<?xml version="1.0" encoding="utf-8"?>
<!-- Generator: Adobe Illustrator 16.0.0, SVG Export Plug-In . SVG Version: 6.00 Build 0)  -->
<!DOCTYPE svg PUBLIC "-//W3C//DTD SVG 1.1//EN" "http://www.w3.org/Graphics/SVG/1.1/DTD/svg11.dtd">
<svg version="1.1" id="Layer_1" xmlns="http://www.w3.org/2000/svg" xmlns:xlink="http://www.w3.org/1999/xlink" x="0px" y="0px"
	 width="182px" height="191px" viewBox="0 0 182 191" enable-background="new 0 0 182 191" xml:space="preserve">
<g>
	<defs>
		<rect id="SVGID_1_" width="182" height="191"/>
	</defs>
	<clipPath id="SVGID_2_">
		<use xlink:href="#SVGID_1_"  overflow="visible"/>
	</clipPath>
	<path clip-path="url(#SVGID_2_)" fill="#FFE6C7" d="M133.874,35.735c2.425,2.591,4.701,5.597,6.198,8.662
		c3.145,6.44,3.403,15.634,2.457,22.666c-0.652,4.858-3.5,11.604-2.102,16.52c1.893,6.661,11.867,6.389,16.732,8.057
		c4.474,1.533,8.716,5.303,10.995,9.894c6.999,14.079-1.418,21.624-5.628,27.921c-4.787,7.157,5.643,15.813-0.348,22.956
		c-6.263,7.469-13.807,10.57-26.328,10.57c-24.808,0-30.363,2.156-64.742-0.541c-6.514-0.511-15.193-2.156-21.685-2.927
		c-9.8-1.164-33.971-10.587-27.664-28.408c4.667-13.186,29.172-11.158,20.959-29.182c-5.371-11.789-15.47-28.152-2.912-38.567
		c9.119-7.564,14.956-11.907,20.248-23.343c5.794-12.52,13.924-19.303,26.723-20.495c6.928-0.645,13.948-0.585,20.755,1.125
		c8.303,2.083,16.507,6.066,23.16,11.99C131.748,33.571,132.824,34.615,133.874,35.735"/>
	<path clip-path="url(#SVGID_2_)" fill="#E5C49D" d="M47.835,117.578c-0.109-1.345-0.136-2.663,0.096-3.996
		c0.484-2.773,1.79-5.431,3.483-7.666c1.593-2.104,3.088-3.355,5.288-4.879c3.001-2.076,6.81-2.548,10.372-2.773
		c2.772-0.176,5.59-0.128,8.368-0.008c1.061,0.046,2.122,0.131,3.176,0.203c0.467,0.031,0.916-0.073,1.353,0.1
		c-0.551,0.259-1.081,0.765-1.553,1.186c-1.247,1.113-2.182,2.728-3.155,4.07c-1.217,1.682-2.261,3.442-3.574,5.065
		c-2.295,2.841-5.747,5.262-9.43,5.838c-3.365,0.525-7.219-0.34-10.349,1.31c0,0-3.118,1.663-3.619,7.396L47.835,117.578z"/>
	<path clip-path="url(#SVGID_2_)" fill="#E5C49D" d="M41.759,100.911c-3.499-3.78-9.136-4.418-13.695-6.399
		c-3.004-1.305-6.203-3.291-8.201-5.94c0.694,3.586,0.204,7.469,0.636,11.152c0.397,3.383,1.818,6.384,4.285,8.758
		c4.693,4.514,12.35,3.016,16.678,7.999c1.985,2.285,2.687,5.779,3.404,8.432c0.014-2.82,0.335-6.156,0.372-7.169
		C45.238,117.743,46.672,106.191,41.759,100.911"/>
	<path clip-path="url(#SVGID_2_)" fill="#D5B792" d="M47.443,107.788c0.804-3.067,3.451-6.705,5.753-8.813
		c2.464-2.255,5.453-2.765,8.297-4.292c1.499-0.805,2.75-1.888,3.233-3.584c1.333-4.685-0.176-9.703-0.451-14.439
		c-0.154-2.65-0.339-5.147,0.566-7.603c-0.139,0.375-1.992,1.201-2.384,1.471c-0.731,0.507-1.437,1.046-2.179,1.537
		c-3.478,2.302-7.395,3.795-10.157,7.066c-2.374,2.811-3.948,6.425-4.768,9.989c-0.446,1.935-0.707,3.97-0.775,5.955
		c-0.091,2.659,0.224,5.568,0.869,8.146c0.599,2.398,0.556,5.942,1.007,8.338L47.443,107.788z"/>
	<path clip-path="url(#SVGID_2_)" fill="#FFFFFF" d="M54.442,85.924c-1.462,3.322-2.973,6.913-4.215,10.362
		c-1.243,3.449-2.216,6.757-2.606,9.494l-0.001,0.006c-0.789,4.922-0.79,10.266-0.79,15.427c0,1.982,0.199,32.991,0.199,34.781
		c0,0.208-0.168,0.376-0.376,0.376s-0.376-0.168-0.376-0.376c0-1.783-0.198-32.792-0.198-34.781c0-5.162-0.002-10.541,0.799-15.546
		l0.371,0.06l-0.372-0.054c0.404-2.821,1.392-6.166,2.643-9.641c1.252-3.475,2.769-7.081,4.234-10.411
		c0.084-0.189,0.306-0.276,0.496-0.192C54.439,85.513,54.526,85.734,54.442,85.924"/>
	<path clip-path="url(#SVGID_2_)" fill="#FFFFFF" d="M65.523,104.244c-2.815,0.446-5.923,1.194-8.638,2.515
		c-2.718,1.321-5.03,3.203-6.318,5.915c-0.821,1.728-1.46,3.867-1.686,5.764c-0.04,0.327-0.076,1.114-0.104,2.214
		c-0.085,3.305-0.11,9.508-0.11,15.809c0,8.856,0.049,17.91,0.049,19.436c0,0.208-0.168,0.376-0.375,0.376
		c-0.208,0-0.376-0.168-0.376-0.376c0-1.52-0.049-10.578-0.049-19.436c0-4.203,0.011-8.359,0.044-11.648
		c0.016-1.646,0.038-3.072,0.066-4.181c0.029-1.11,0.063-1.891,0.109-2.283c0.239-1.992,0.897-4.188,1.753-5.995
		c1.384-2.913,3.854-4.902,6.668-6.27c2.817-1.369,5.991-2.128,8.85-2.581c0.204-0.032,0.397,0.107,0.429,0.313
		C65.868,104.02,65.729,104.212,65.523,104.244z"/>
	<path clip-path="url(#SVGID_2_)" fill="#FFFFFF" d="M44.491,155.995c0-1.146,0.013-4.368,0.013-8.527
		c0-5.492-0.022-12.617-0.123-18.736c-0.05-3.059-0.12-5.867-0.217-8.091c-0.049-1.112-0.104-2.079-0.166-2.854
		s-0.133-1.366-0.206-1.702c-0.875-4.091-2.846-7.812-5.928-10.757c-3.082-2.946-7.278-5.122-12.626-6.104
		c-0.204-0.037-0.339-0.233-0.302-0.437c0.038-0.204,0.234-0.34,0.438-0.303c5.473,1.004,9.814,3.245,13.009,6.301
		c3.196,3.054,5.241,6.918,6.144,11.143c0.086,0.404,0.155,1.007,0.22,1.799c0.221,2.764,0.348,7.788,0.42,13.333
		c0.071,5.543,0.088,11.603,0.088,16.409c0,4.16-0.013,7.384-0.013,8.527c0,0.207-0.167,0.376-0.375,0.376
		S44.491,156.202,44.491,155.995"/>
	<path clip-path="url(#SVGID_2_)" fill="#E5C49D" d="M61.827,148.942c-1.298-0.117-2.591,0.356-2.447,1.839
		c-3.059-1.127-5.117,1.65-5.117,3.688h74.217c2.928-3.464-2.059-10-5.671-8.183c0.621-2.265-1.564-3.739-2.992-3.099
		c0.179,0.126-0.776-3.074-3.772-1.846c0.078-3.142-2.53-4.036-4.927-2.498c-0.32-2.608-4.01-4.971-5.701-2.038
		c0.058-3.962-5.167-4.57-5.908-0.615c-1.08-1.162-2.557-0.285-2.721,1.141c-0.952-1.292-2.058-1.143-2.944,0.061
		c2.593-6.505-7.286-8.487-7.708-2.485c-1.527-2.527-4.849-0.954-4.233,1.498c-1.412-1.269-3.61-0.651-3.362,1.536
		c-1.962-2.084-6.973-2.185-7.307,2.203c-1.166-1.276-2.711-0.916-3.034,0.891c-1.74-0.219-3.106,0.527-2.73,2.441
		c-0.805,0.058-1.931-0.016-2.22,1.938C63.249,145.414,60.572,146.062,61.827,148.942"/>
	<path clip-path="url(#SVGID_2_)" fill="#E5C49D" d="M159.91,154.47c1.327-5.061-6.328-7.875-8.395-2.899
		c0.101-1.85,0.729-3.934-1.537-4.996c-2.254-1.056-3.937,0.804-4.887,2.394c2.566-4.328,1.44-9.707-4.476-11.165
		c-6.304-1.556-9.406,1.677-9.557,8.206c-0.438-2.998-5.943-3.642-6.261,0.611c-2.309-0.795-2.672-3.086-5.909-2.785
		c-2.859,0.267-4.21,2.099-5.307,4.643c0,0-6.555,0.225-5.052,5.992H159.91z"/>
	<path clip-path="url(#SVGID_2_)" fill="#D5B792" d="M27.173,158.3c0,4.75,31.723,8.6,70.853,8.6c39.131,0,70.853-3.85,70.853-8.6
		s-31.722-8.602-70.853-8.602C58.896,149.698,27.173,153.55,27.173,158.3"/>
	<path clip-path="url(#SVGID_2_)" fill="#FFFFFF" d="M84.49,119.91c-0.611,2.809-1.141,5.846-1.527,9.094
		c-0.171,1.44-0.305,2.842-0.406,4.204c-0.228,0.097-2.974,1.2-5.543-0.47c-1.666-1.082-2.292-2.701-2.525-3.663
		c-0.106-0.436-0.113-0.89-0.037-1.329c1.665-9.623,3.378-16.749,4.484-18.761c0.324-0.592,1.053-1.917,2.297-2.111
		c0.557-0.087,1.038,0.08,1.306,0.198C83.189,111.351,83.84,115.631,84.49,119.91"/>
	<path clip-path="url(#SVGID_2_)" fill="#FFFFFF" d="M113.658,119.91c0.61,2.809,1.141,5.846,1.526,9.094
		c0.172,1.44,0.306,2.842,0.406,4.204c0.229,0.097,2.974,1.2,5.543-0.47c1.666-1.082,2.292-2.701,2.525-3.663
		c0.105-0.436,0.113-0.89,0.037-1.329c-1.665-9.623-3.378-16.749-4.484-18.761c-0.324-0.592-1.053-1.917-2.297-2.111
		c-0.557-0.087-1.038,0.08-1.306,0.198C114.959,111.351,114.308,115.631,113.658,119.91"/>
	<polygon clip-path="url(#SVGID_2_)" fill="#E09A61" points="102.485,105.88 93.986,105.859 94.066,105.096 94.222,103.596 
		94.224,103.582 94.594,100.012 94.874,97.297 101.639,97.313 101.896,99.912 102.245,103.456 102.262,103.625 102.415,105.184 	"/>
	<path clip-path="url(#SVGID_2_)" fill="#C47947" d="M101.896,99.912c-0.721,0.596-1.438,0.974-1.992,1.212
		c-0.153,0.066-0.318,0.094-0.485,0.087c-0.399-0.015-0.812-0.024-1.236-0.025c-0.436-0.001-0.856,0.006-1.265,0.02
		c-0.167,0.006-0.332-0.022-0.484-0.089c-0.517-0.224-1.172-0.571-1.839-1.104l0.28-2.715l6.765,0.017L101.896,99.912z"/>
	<path clip-path="url(#SVGID_2_)" fill="#E09A61" d="M104.201,90.717c1.968-0.912,1.261,2.097,0.88,3.15
		c-0.139,0.387-0.277,1.421-1.037,1.288L104.201,90.717z"/>
	<path clip-path="url(#SVGID_2_)" fill="#E09A61" d="M92.123,90.88c-1.992-0.859-1.204,2.13-0.795,3.172
		c0.151,0.384,0.317,1.414,1.072,1.26L92.123,90.88z"/>
	<path clip-path="url(#SVGID_2_)" fill="#E09A61" d="M104.254,91.219c-0.066,1.204-0.086,2.415-0.107,3.451
		c-0.05,0.533-0.187,1.333-0.583,2.219c-0.136,0.301-0.503,1.063-1.223,1.857c-0.846,0.934-1.777,1.471-2.454,1.775
		c-0.149,0.067-0.311,0.1-0.475,0.097c-0.372-0.005-0.754-0.007-1.144,0c-0.384,0.005-0.759,0.015-1.122,0.03
		c-0.165,0.008-0.327-0.02-0.479-0.084c-0.684-0.285-1.63-0.798-2.501-1.708c-0.74-0.774-1.129-1.526-1.271-1.822
		c-0.422-0.876-0.579-1.671-0.644-2.205c-0.049-1.034-0.101-2.244-0.201-3.446c-0.481-2.132,0.17-4.905,0.921-6.23
		c0.69-0.933,3.208-0.395,5.093-0.421c1.882-0.025,4.384-0.631,5.101,0.283C103.952,86.321,104.678,89.074,104.254,91.219"/>
	<path clip-path="url(#SVGID_2_)" fill="#3B2314" d="M96.846,89.423c-0.982-0.215-2.168-0.331-3.346-0.186
		c-0.203,0.025-0.546,0.202-0.65,0.518c-0.07,0.214,0.002,0.423,0.053,0.537c0.133-0.084,0.338-0.199,0.605-0.292
		c0.36-0.124,0.738-0.174,1.642-0.112c0.442,0.031,1.021,0.088,1.7,0.206c0.016-0.063,0.029-0.135,0.036-0.215
		C96.901,89.693,96.875,89.535,96.846,89.423"/>
	<path clip-path="url(#SVGID_2_)" fill="#3B2314" d="M99.726,91.166c0.115,0.122,0.635,0.641,1.48,0.697
		c0.778,0.051,1.326-0.323,1.474-0.43c-0.029,0.039-0.614,0.787-1.573,0.688C100.176,92.025,99.752,91.221,99.726,91.166"/>
	<path clip-path="url(#SVGID_2_)" fill="#3B2314" d="M99.437,89.388c0.977-0.241,2.158-0.389,3.338-0.276
		c0.205,0.02,0.553,0.186,0.665,0.5c0.077,0.212,0.011,0.423-0.038,0.538c-0.135-0.08-0.343-0.19-0.612-0.275
		c-0.364-0.115-0.743-0.154-1.645-0.068c-0.44,0.042-1.018,0.116-1.692,0.252c-0.019-0.062-0.034-0.134-0.043-0.214
		C99.388,89.659,99.41,89.501,99.437,89.388"/>
	<path clip-path="url(#SVGID_2_)" fill="#3B2314" d="M96.607,91.208c-0.111,0.125-0.616,0.658-1.461,0.737
		c-0.776,0.072-1.335-0.287-1.484-0.391c0.031,0.039,0.635,0.771,1.592,0.646C96.182,92.079,96.582,91.263,96.607,91.208"/>
	<path clip-path="url(#SVGID_2_)" d="M104.569,83.149c-0.773-1.22-3.732-2.52-6.547-2.497c-2.813,0.053-5.736,1.432-6.477,2.673
		c-1.581,1.624-1.22,5.879-0.559,7.672c0,0,0.241-0.477,1.131-0.117c-0.25-1.13,0.049-4.59,1.152-5.935
		c1.168-0.373,2.698-0.174,4.809-0.104c2.107-0.127,3.632-0.367,4.81-0.026c1.141,1.314,1.532,4.766,1.313,5.902
		c0.88-0.385,1.135,0.086,1.135,0.086C105.948,88.993,106.193,84.73,104.569,83.149"/>
	<path clip-path="url(#SVGID_2_)" fill="#C47947" d="M99.366,95.169c0.021,0.058-0.488,0.422-1.118,0.43
		c-0.629,0.008-1.146-0.341-1.127-0.4c0.017-0.051,0.436,0.141,1.123,0.132C98.933,95.322,99.348,95.118,99.366,95.169"/>
	<path clip-path="url(#SVGID_2_)" fill="#C47947" d="M96.111,97.596c-0.001-0.096,1.16-0.201,2.169-0.21
		c1.029-0.01,2.229,0.08,2.23,0.178c0,0.1-1.241,0.207-2.326,0.206C97.256,97.77,96.113,97.689,96.111,97.596"/>
	<path clip-path="url(#SVGID_2_)" fill="#C47947" d="M99.12,98.706c0.001,0.059-0.349,0.11-0.78,0.116
		c-0.433,0.006-0.783-0.037-0.784-0.095c-0.001-0.059,0.349-0.109,0.781-0.115C98.769,98.606,99.119,98.648,99.12,98.706"/>
	<polygon clip-path="url(#SVGID_2_)" fill="#3B2314" points="98.467,96.194 98.474,96.688 101.38,96.649 	"/>
	<path clip-path="url(#SVGID_2_)" fill="#3B2314" d="M97.97,96.201l0.007,0.494l-1.569,0.021c-0.446,0.006-0.892,0.012-1.337,0.02
		c0.01-0.003,1.432-0.265,1.441-0.267C96.523,96.467,97.96,96.203,97.97,96.201"/>
	<polygon clip-path="url(#SVGID_2_)" points="105.682,84.743 90.477,84.949 91.252,79.508 104.76,79.325 	"/>
	<path clip-path="url(#SVGID_2_)" fill="#DC2428" d="M81.944,84.78l0.361-1.484c0.001,0,0.068,0.016,0.221,0.049
		c0.154,0.033,0.386,0.081,0.694,0.138c0.617,0.114,1.538,0.266,2.745,0.414c2.415,0.298,5.972,0.581,10.516,0.52
		s10.074-0.468,16.437-1.55l0.256,1.506c-6.444,1.096-12.054,1.509-16.672,1.571C87.266,86.069,81.997,84.793,81.944,84.78"/>
	<polygon clip-path="url(#SVGID_2_)" fill="#DC2428" points="111.207,142.063 86.919,142.063 88.964,134.241 109.179,134.241 	"/>
	<path clip-path="url(#SVGID_2_)" fill="#FFFFFF" d="M98.453,103.124c-0.947-0.998-4.885-0.655-4.885-0.655l-0.616,1.51l6.115,0.288
		C99.067,104.267,98.713,103.398,98.453,103.124"/>
	<path clip-path="url(#SVGID_2_)" fill="#FFFFFF" d="M99.398,103.124c0.948-0.998,4.884-0.655,4.884-0.655l0.795,1.554l-6.293,0.244
		C98.784,104.267,99.139,103.398,99.398,103.124"/>
	<polygon clip-path="url(#SVGID_2_)" fill="#FFFFFF" points="88.483,134.241 99.063,134.241 99.063,104.255 92.952,103.979 
		91.972,104.28 85.595,117.034 	"/>
	<polygon clip-path="url(#SVGID_2_)" fill="#FFFFFF" points="109.643,134.241 99.063,134.241 99.063,104.255 105.174,103.979 
		106.153,104.28 112.53,117.034 	"/>
	<rect x="98.586" y="104.652" clip-path="url(#SVGID_2_)" fill="#E2DCDC" width="0.507" height="29.589"/>
	<polygon clip-path="url(#SVGID_2_)" points="95.702,105.724 97.37,131.096 86.678,132.918 82.347,107.168 91.973,104.28 	"/>
	<polygon clip-path="url(#SVGID_2_)" points="102.423,105.724 100.755,131.096 111.448,132.918 115.779,107.168 106.153,104.28 	"/>
	<path clip-path="url(#SVGID_2_)" d="M130.302,145.54c1.449-1.979,1.742-4.543,0.723-6.622c-1.278-2.606-4.414-4.036-7.515-3.273
		c-5.271,1.408-11.78,2.674-19.289,3.119c-10.611,0.63-19.635-0.59-26.332-2.04c-4.229-0.396-7.65,2.063-8.17,5.003
		c-0.447,2.531,1.389,4.654,1.713,5.018c5.975,1.889,13.772,3.688,22.986,4.155C109.914,151.686,122.464,148.348,130.302,145.54"/>
	<path clip-path="url(#SVGID_2_)" fill="#141312" d="M106.061,157.261c-1.153,1.271-0.669,3.623,0.895,4.335
		c3.893,1.773,8.139,2.768,12.415,2.905c1.323,0.042,2.396-1.336,2.328-2.657c-0.068-1.322-1.027-2.47-2.183-3.114
		s-2.493-0.873-3.803-1.062s-2.646-0.354-3.854-0.896C109.953,155.921,107.356,155.831,106.061,157.261"/>
	<path clip-path="url(#SVGID_2_)" fill="#E09A61" d="M103.051,159.618c11.399,4.459,13.788,3.548,14.384,2.646
		c0.394-0.595,0.178-1.441,0.154-1.532c-0.506-1.881-3.669-2.641-7.453-3.551c-1.392-0.334-1.452-0.465-2.68-0.6
		c-0.914-0.103-1.844-0.197-2.694-0.547c-0.78-0.32-1.676,0.373-1.891,1.188C102.655,158.037,102.914,158.894,103.051,159.618"/>
	<path clip-path="url(#SVGID_2_)" fill="#161616" d="M106.758,153.528c-0.58,1.605-1.192,3.237-1.84,4.894
		c-0.455,1.166-0.915,2.311-1.379,3.434c-6.633-3.075-12.183-4.905-16.144-6.028c-0.451-0.128-9.728-2.754-15.252-6.979
		c-0.835-0.639-2.275-1.842-2.899-3.861c-0.096-0.311-0.779-2.635,0.291-4.799c1.289-2.608,4.688-4.1,8.354-3.465
		c6.193,3.909,12.695,7.809,19.511,11.659C100.549,150.16,103.669,151.875,106.758,153.528"/>
	<path clip-path="url(#SVGID_2_)" fill="#141312" d="M95.337,156.183c1.154,1.272,0.669,3.623-0.895,4.335
		c-3.893,1.774-8.139,2.769-12.415,2.905c-1.323,0.042-2.396-1.335-2.328-2.657s1.027-2.469,2.182-3.114
		c1.156-0.645,2.493-0.873,3.803-1.062c1.31-0.188,2.646-0.354,3.854-0.896C91.444,154.842,94.041,154.754,95.337,156.183"/>
	<path clip-path="url(#SVGID_2_)" fill="#E09A61" d="M98.348,158.54c-1.839,0.813-10.702,4.638-12.586,2.191
		c-0.282-0.365-0.498-0.987-0.375-1.566c0.351-1.658,3.361-2.423,5.875-3.062c1.305-0.331,1.326-0.451,2.681-0.601
		c0.914-0.102,1.843-0.197,2.693-0.547c0.78-0.32,1.676,0.373,1.892,1.188C98.742,156.959,98.483,157.816,98.348,158.54"/>
	<path clip-path="url(#SVGID_2_)" fill="#161616" d="M132.045,144.236c-0.706,1.952-2.163,3.067-2.789,3.534
		c-3.194,2.383-15.107,7.812-31.643,14.221c-0.287-1.445-0.655-3.002-1.133-4.647c-0.495-1.704-1.038-3.268-1.592-4.684
		c9.54-5.672,19.08-11.344,28.621-17.016c3.646-0.68,7.06,0.831,8.354,3.465C133.014,141.451,132.142,143.972,132.045,144.236"/>
	<path clip-path="url(#SVGID_2_)" fill="#EAEAEA" d="M89.862,116.726c-5.087,3.391-10.175,6.781-15.262,10.172
		c-0.138,0.512-0.614,2.516,0.483,4.29c1.329,2.147,4.437,3.106,7.474,2.021c3.93-3.172,7.859-6.345,11.789-9.517
		C92.851,121.369,91.356,119.048,89.862,116.726"/>
	<path clip-path="url(#SVGID_2_)" fill="#E09A61" d="M98.46,116.916c0.24,0.473,0.476,0.857,0.667,1.147
		c0.098,0.148,0.491,0.736,1.121,1.441c0.282,0.314,0.533,0.566,0.721,0.747c0.916-1.032,1.833-2.064,2.749-3.097
		c-0.658-0.444-1.316-0.89-1.975-1.334c0.119-0.545,0.235-1.401,0.08-2.429c-0.122-0.806-0.372-1.45-0.587-1.895
		c-0.276-0.012-1.607-0.035-2.55,0.934C97.641,113.507,97.5,115.369,98.46,116.916"/>
	<path clip-path="url(#SVGID_2_)" fill="#E09A61" d="M95.791,115.154c0.009-1.379,0.018-2.758,0.026-4.137
		c0.027-0.26,0.103-0.664,0.327-1.108c0.233-0.462,0.53-0.771,0.728-0.947c0.064-0.106,0.159-0.234,0.294-0.36
		c0.255-0.239,0.527-0.35,0.693-0.4c0.121-0.035,0.619-0.165,0.994,0.113c0.048,0.036,0.099,0.082,0.147,0.141
		c0.34-0.125,0.681-0.063,0.849,0.146c0.036,0.046,0.096,0.137,0.111,0.287c0.211-0.025,0.895-0.086,1.342,0.334
		c0.104,0.1,0.279,0.264,0.26,0.487c-0.021,0.247-0.262,0.392-0.3,0.414c0.218,0.156,0.328,0.408,0.28,0.64
		c-0.041,0.195-0.179,0.311-0.228,0.348c0.022,0.025,0.18,0.216,0.134,0.48c-0.05,0.287-0.295,0.414-0.32,0.428
		c-0.303-0.012-0.853,0.013-1.435,0.307c-0.273,0.137-0.484,0.299-0.641,0.439c-0.172,0.643-0.184,1.155-0.167,1.495
		c0.035,0.67,0.202,0.975,0.169,1.598c-0.028,0.533-0.184,0.958-0.302,1.219c-0.699,0.956-1.397,1.913-2.095,2.869
		c-0.713-1.028-1.425-2.056-2.137-3.083c0.157-0.117,0.326-0.265,0.494-0.445C95.436,115.966,95.664,115.493,95.791,115.154"/>
	<path clip-path="url(#SVGID_2_)" fill="#C47947" d="M98.526,108.468c-0.597,0.316-1.737,1.16-1.458,1.794
		c0.688-0.584,1.558-1.196,2.579-1.207c-1.016,0.247-1.684,0.846-2.472,1.478c-0.196,0.104-0.435-0.08-0.423-0.303
		C96.713,109.268,97.737,108.709,98.526,108.468"/>
	<path clip-path="url(#SVGID_2_)" fill="#C47947" d="M100.746,110.092c-0.475,0.083-0.934,0.212-1.37,0.384
		c-0.402,0.175-0.959,0.387-0.85,0.77c-0.015,0.336,0.667-0.109,1.105-0.117c0.482-0.075,0.968-0.077,1.449-0.051
		c-0.703,0.128-1.413,0.218-2.068,0.48c-0.271,0.154-0.731,0.122-0.771-0.261C98.186,110.207,99.956,110.09,100.746,110.092"/>
	<path clip-path="url(#SVGID_2_)" fill="#C47947" d="M96.658,119.945c0.69-1.309,2.101-2.546,2.246-3.937
		c0.021-1.091-0.37-2.23,0.055-3.305c0.582-0.531,1.434-0.786,2.164-0.698l0.199-0.145l-0.188,0.169
		c-0.703-0.05-1.665,0.479-1.977,0.763c-0.461,1.44,0.464,2.953-0.288,4.336C98.164,118.089,97.416,119.022,96.658,119.945"/>
	<path clip-path="url(#SVGID_2_)" fill="#EAEAEA" d="M89.608,117.073c0.052-0.292,0.124-0.599,0.222-0.918
		c0.461-1.505,1.296-2.597,1.974-3.303c2.252,1.624,3.596,3.335,4.354,4.474c1.134,1.701,2.305,3.458,1.614,4.874
		c-0.404,0.829-1.425,1.497-2.522,1.538c-0.909,0.034-1.582-0.372-1.841-0.548C92.144,121.151,90.875,119.112,89.608,117.073"/>
	<path clip-path="url(#SVGID_2_)" fill="#EAEAEA" d="M108.287,116.726c5.087,3.391,10.175,6.781,15.262,10.172
		c0.138,0.512,0.614,2.516-0.483,4.29c-1.328,2.147-4.437,3.106-7.474,2.021c-3.93-3.172-7.859-6.345-11.789-9.517
		C105.298,121.369,106.792,119.048,108.287,116.726"/>
	<path clip-path="url(#SVGID_2_)" fill="#EAEAEA" d="M108.54,117.073c-0.052-0.292-0.124-0.599-0.222-0.918
		c-0.461-1.505-1.296-2.597-1.975-3.303c-2.252,1.624-3.596,3.335-4.354,4.474c-1.133,1.701-2.305,3.458-1.614,4.874
		c0.404,0.829,1.425,1.497,2.523,1.538c0.908,0.034,1.582-0.372,1.84-0.548C106.005,121.151,107.273,119.112,108.54,117.073"/>
</g>
</svg>
