<svg id="Layer_1" data-name="Layer 1" xmlns="http://www.w3.org/2000/svg" xmlns:xlink="http://www.w3.org/1999/xlink" viewBox="0 0 158.81 109.78"><defs><style>.cls-1{fill:none;}.cls-2{clip-path:url(#clip-path);}.cls-3{fill:#ae7469;}.cls-4{clip-path:url(#clip-path-2);}.cls-5{fill:#a55d4f;}.cls-6{clip-path:url(#clip-path-3);}.cls-7{opacity:0.15;}.cls-8{clip-path:url(#clip-path-4);}.cls-9{fill:#281010;}.cls-10{clip-path:url(#clip-path-5);}.cls-11{fill:#7a574e;}.cls-12{fill:#7b889b;}.cls-13{fill:#6b7b8e;}.cls-14{fill:#bdd8ff;}.cls-15{fill:#accff9;}.cls-16{fill:#d7e9ff;}.cls-17{fill:#8897aa;}.cls-18{fill:#ce4a4a;}.cls-19{fill:#bf3d3d;}.cls-20{fill:#e55757;}.cls-21{fill:#381b19;}.cls-22{fill:#442221;}.cls-23{fill:#f2c9a0;}.cls-24{fill:#dbac89;}.cls-25{fill:#d3d3d3;}.cls-26{fill:#fff;}.cls-27{fill:#e4c77b;}.cls-28{fill:#292937;}.cls-29{fill:#1e1e29;}.cls-30{fill:#232330;}.cls-31{fill:#3a2317;}.cls-32{fill:#563a1f;}.cls-33{fill:#e8dcd6;}.cls-34{opacity:0.2;}.cls-35{fill:#42210b;}.cls-36{fill:#d8a188;}.cls-37{fill:#9f0102;}.cls-38{fill:#7c5342;}.cls-39{fill:#724a3b;}.cls-40{fill:#ffcb7e;}.cls-41{fill:#6b4337;}.cls-42{fill:#7f5546;}.cls-43{fill:#543730;}.cls-44{fill:#8e695c;}.cls-45{fill:#e09a61;}.cls-46{fill:#c47947;}.cls-47{fill:#8a5d3b;}.cls-48{fill:#3b2314;}.cls-49{fill:#dc2428;}.cls-50{fill:#e2dcdc;}.cls-51{fill:#bd1f22;}</style><clipPath id="clip-path"><path class="cls-1" d="M24.57,64.45c-.81-3.81-.51-10.15,3.36-13.83,11.56-11,22.56-1.19,24.77-13.06,2-11,9.76-21.57,23.83-18.16,18.06,4.4,16.07,16.86,24.93,15.92s24.05-7.9,26.79,5.3-10.12,24.52-1.93,23.59c1.18.08,4.53.43,5.68,2.64,1.27,2.43-.82,5.71-1.66,7-5.47,8.62-38.92,21.18-77,9.89C42.89,80.69,27,75.75,24.57,64.45Z"/></clipPath><clipPath id="clip-path-2"><path class="cls-1" d="M24.57,64.45c-.81-3.81-.51-10.15,3.36-13.83,11.56-11,22.56-1.19,24.77-13.06,2-11,9.76-21.57,23.83-18.16,18.06,4.4,16.07,16.86,24.93,15.92s24.05-7.9,26.79,5.3-10.12,24.52-1.93,23.59c1.18.08,4.53.43,5.68,2.64,1.27,2.43-.82,5.71-1.66,7-5.47,8.62-38.75,22-76.86,10.67C43.07,81.47,27,75.75,24.57,64.45Z"/></clipPath><clipPath id="clip-path-3"><path class="cls-1" d="M24.57,64.45l0-.1c-.21-1.16-1.5-9.08,3.38-13.73,11.56-11,22.56-1.19,24.77-13.06,2-11,9.76-21.57,23.83-18.16,18.06,4.4,16.07,16.86,24.93,15.92s24.05-7.9,26.79,5.3-10.12,24.52-1.93,23.59c1.08.11,3.77.53,4.88,2.49,1.4,2.48-.63,5.9-1.51,7.38C125.86,80.53,110.47,88.66,86,88.66c0,0-32.2,1.07-53.19-13.47C30.64,73.68,25.67,70.24,24.57,64.45Z"/></clipPath><clipPath id="clip-path-4"><rect class="cls-1" x="49.22" y="64.05" width="3.01" height="18.55"/></clipPath><clipPath id="clip-path-5"><rect class="cls-1" x="102.76" y="64.05" width="3.01" height="18.55"/></clipPath></defs><g class="cls-2"><path class="cls-3" d="M133.51,77.41A16,16,0,0,1,118,89.23H53.93A29.88,29.88,0,0,1,30.53,78a29,29,0,0,1-6-13.5c-.87-5.32-.26-10.39,3.36-13.83,11.56-11,22.56-1.19,24.77-13.06,2-10.94,9.76-21.57,23.83-18.15,18.06,4.39,16.07,16.85,24.93,15.91s24.05-7.9,26.79,5.3-10.12,24.52-1.93,23.59c5.68.64,7.57,4.32,7.7,8.67A15.65,15.65,0,0,1,133.51,77.41Z"/></g><g class="cls-4"><path class="cls-5" d="M156.34,64.89s-2.17,9.91-4,14.07C148,89,140.91,95.55,133,95.55H36.55c-9.85,0-19.09-5.5-26.59-15C6.73,76.53,1.31,66.31,1.31,66.31Z"/></g><g class="cls-6"><g class="cls-7"><g class="cls-8"><rect class="cls-9" x="49.22" y="64.05" width="3.01" height="18.55"/></g></g><g class="cls-7"><g class="cls-10"><rect class="cls-9" x="102.76" y="64.05" width="3.01" height="18.55"/></g></g><rect class="cls-11" x="59.94" y="39.64" width="0.39" height="24.87"/><path class="cls-11" d="M59.94,40.82v.84l.39-.15V39.88a2.82,2.82,0,0,1-.39.94"/><path class="cls-11" d="M60.33,39.87a13.34,13.34,0,0,1-1.61,3.06c-1.42,2.27-3.64,6.65-1.37,11.29.63,1.36,1.78,5.79-1.11,9.37h4.51a19.68,19.68,0,0,0,.63-11.69c-1.71-6.13-.65-10.66-1.05-12"/><path class="cls-11" d="M60,38.56l-.2.58a.4.4,0,0,0,.38.53.41.41,0,0,0,.38-.53l-.21-.58a.19.19,0,0,0-.35,0"/><rect class="cls-12" x="60.3" y="39.64" width="0.39" height="24.87"/><path class="cls-13" d="M60.3,40.82v.84l.39-.15V39.88a3.09,3.09,0,0,1-.39.94"/><rect class="cls-13" x="60.3" y="39.64" width="0.39" height="0.19"/><path class="cls-14" d="M60.69,39.87s0,.79-1.38,3.06a11.72,11.72,0,0,0-.45,11.29,9.58,9.58,0,0,1-1.31,9.37h3.58a19.77,19.77,0,0,0,.63-11.69c-1.72-6.13-.68-10.66-1.07-12"/><path class="cls-15" d="M58.84,54.24l-.25-.54,1.3,1.84a6.37,6.37,0,0,1-.62,8.05H57.54a9.54,9.54,0,0,0,1.3-9.35"/><path class="cls-16" d="M62.3,55c-.88-1.41-2.3-2.18-3-3.28-1.26-1.87-.74-4.77.31-7a15.68,15.68,0,0,0,1.21-4.13c.07,1.88-.52,6,1,11.34A17.7,17.7,0,0,1,62.3,55"/><path class="cls-12" d="M60.33,38.56l-.2.58a.4.4,0,1,0,.75,0l-.2-.58a.19.19,0,0,0-.35,0"/><path class="cls-17" d="M60.08,39.3c.62,0,.49-.73.44-.95a.12.12,0,0,0-.14.1l-.28.81s0,0,0,0"/><rect class="cls-11" x="94.91" y="39.64" width="0.39" height="24.87"/><path class="cls-11" d="M95.28,40.82v.84l-.38-.15V39.88a3.59,3.59,0,0,0,.38.94"/><path class="cls-11" d="M94.91,39.87a13.34,13.34,0,0,0,1.61,3.06c1.42,2.27,3.64,6.65,1.36,11.29C97.26,55.58,96.09,60,99,63.59H94.48a19.77,19.77,0,0,1-.63-11.69c1.7-6.13.66-10.66,1.06-12"/><path class="cls-11" d="M95.27,38.56l.2.58a.4.4,0,1,1-.75,0l.2-.58a.19.19,0,0,1,.35,0"/><rect class="cls-12" x="94.54" y="39.64" width="0.39" height="24.87"/><path class="cls-13" d="M94.92,40.82v.84l-.39-.15V39.88a3.41,3.41,0,0,0,.39.94"/><rect class="cls-13" x="94.54" y="39.64" width="0.39" height="0.19"/><path class="cls-18" d="M94.54,39.87s0,.79,1.39,3.06a11.77,11.77,0,0,1,.45,11.29,9.57,9.57,0,0,0,1.3,9.37H94.1a19.72,19.72,0,0,1-.62-11.69c1.69-6.13.66-10.66,1.06-12"/><path class="cls-19" d="M96.38,54.24c.09-.18.17-.37.25-.54l-1.3,1.84A6.37,6.37,0,0,0,96,63.59h1.73a9.59,9.59,0,0,1-1.3-9.35"/><path class="cls-20" d="M92.94,55c.87-1.41,2.29-2.18,3-3.28,1.25-1.87.74-4.77-.32-7a15.58,15.58,0,0,1-1.2-4.13c-.08,1.88.51,6-1,11.34A16,16,0,0,0,92.94,55"/><path class="cls-12" d="M94.91,38.56l.2.58a.4.4,0,0,1-.38.53.4.4,0,0,1-.37-.53l.2-.58a.19.19,0,0,1,.35,0"/><path class="cls-17" d="M95.16,39.3c-.63,0-.49-.73-.44-.95a.13.13,0,0,1,.14.1l.27.81,0,0"/><path class="cls-21" d="M84.62,64.46H70l-.72-10.37A3.88,3.88,0,0,1,73.19,50h8.28a3.88,3.88,0,0,1,3.87,4.14Z"/><path class="cls-22" d="M69.35,54.53a3.88,3.88,0,0,1,3.84-3.32h8.28a3.9,3.9,0,0,1,3.84,3.32l0-.46a3.87,3.87,0,0,0-3.87-4.13H73.19a3.87,3.87,0,0,0-3.87,4.13Z"/><path class="cls-23" d="M80.83,52.48c0,.9-1.35,1.63-3,1.63s-2.93-.59-2.93-1.49c0-.53.8-1,1.62-1.25v-2.7h2.61v2.7C80,51.62,80.83,52,80.83,52.48Z"/><path class="cls-24" d="M79.14,48.66V51a3.16,3.16,0,0,1-1.44.22,3.26,3.26,0,0,1-1.18-.32V48.66Z"/><path class="cls-25" d="M77.87,62.1s-3.89-7.81-3.3-9.45c.19-.7,1.35-1.11,1.35-1.11a4.07,4.07,0,0,0,3.91,0s1.06.69,1.25,1.38C81.67,54.54,77.87,62.1,77.87,62.1Z"/><polygon class="cls-26" points="79.26 50.95 77.88 52.03 78.79 53.46 79.83 51.52 79.26 50.95"/><polygon class="cls-26" points="76.49 50.95 77.88 52.03 76.96 53.46 75.92 51.52 76.49 50.95"/><path class="cls-27" d="M78.18,65a.31.31,0,1,1-.61,0,.31.31,0,0,1,.3-.3A.29.29,0,0,1,78.18,65Z"/><path class="cls-27" d="M78.18,68.09a.31.31,0,1,1-.31-.3A.3.3,0,0,1,78.18,68.09Z"/><path class="cls-28" d="M83.09,52.69a2.1,2.1,0,0,1,1.35.39,2.87,2.87,0,0,1,.66,1l3.35,7.41a2.43,2.43,0,0,1-.73.33c0,.1.07.2.1.3a10.76,10.76,0,0,1-1.33.42,8.22,8.22,0,0,1-1.12.07l0,.14a14.9,14.9,0,0,1-1.89,0,67.15,67.15,0,0,0-1.34-7.38C81.64,54,82.57,52.69,83.09,52.69Z"/><path class="cls-29" d="M85.37,62.59h.2c-.12-.25-.42-.76-.42-.76S85.32,62.34,85.37,62.59Z"/><path class="cls-29" d="M88,61.74c-.28-.32-.87-.93-.87-.93s.45.69.66,1l0,0Z"/><path class="cls-29" d="M82.86,56.3A5.19,5.19,0,0,1,83,54.85c.08-.49-.54-.66-.93-.93a2.23,2.23,0,0,0,.08,1.41A69.55,69.55,0,0,1,83.5,62.7c.33,0,.66,0,1,0a1,1,0,0,1-.3-.5C83.54,60.14,82.94,56.76,82.86,56.3Z"/><path class="cls-28" d="M72.67,52.69a2.1,2.1,0,0,0-1.35.39,2.87,2.87,0,0,0-.66,1c-1.11,2.48-2.23,4.94-3.35,7.41a2.55,2.55,0,0,0,.73.33c0,.1-.06.2-.1.3a11.35,11.35,0,0,0,1.33.42,8.22,8.22,0,0,0,1.12.07l0,.14a14.9,14.9,0,0,0,1.89,0,69.65,69.65,0,0,1,1.34-7.38C74.11,54,73.18,52.69,72.67,52.69Z"/><path class="cls-29" d="M70.38,62.59h-.21c.13-.25.43-.76.43-.76S70.43,62.34,70.38,62.59Z"/><path class="cls-29" d="M67.8,61.74c.28-.32.87-.93.87-.93s-.45.69-.66,1l0,0Z"/><path class="cls-29" d="M72.89,56.3a5.6,5.6,0,0,0-.15-1.45c-.08-.49.54-.66.93-.93a2.23,2.23,0,0,1-.08,1.41,69.55,69.55,0,0,0-1.34,7.37c-.33,0-.66,0-1,0a1,1,0,0,0,.3-.5C72.21,60.14,72.81,56.76,72.89,56.3Z"/><path class="cls-28" d="M84,71.24c-.09-.13-.83-14.09-.82-15.3,0-.55,1-2.48.65-3s-3.27-1.15-3.75-1.26c0,0,0,1.07,0,2.48,0,1.08-1.88,2-2.34,2s-2.34-.86-2.34-2c0-1.38,0-2.45,0-2.44-.4.12-3.19.78-3.51,1.21s.65,2.44.65,3c0,1.22-.73,15.17-.82,15.3-.22.34.73.5,1.41.51,0,0,2.94.27,4.57.27s4.9-.27,4.9-.27C83.29,71.75,84.24,71.58,84,71.24Z"/><path class="cls-30" d="M78.65,55.86H83.2c.09-.64,1-2.43.64-2.89s-3.28-1.15-3.75-1.26c0,0,0,1.07,0,2.48C80.09,54.89,79.33,55.51,78.65,55.86Z"/><path class="cls-30" d="M76.81,55.86c-.67-.35-1.41-1-1.41-1.66,0-1.38,0-2.45,0-2.44-.4.11-3.19.78-3.52,1.21s.56,2.26.64,2.89Z"/><polygon class="cls-29" points="77.85 72.02 77.81 56.18 77.66 56.18 77.76 72.02 77.85 72.02"/><polygon class="cls-29" points="75.86 55.86 76.04 55.86 75.84 70.24 75.86 55.86"/><polygon class="cls-29" points="73.81 55.86 73.98 55.86 73.78 68.49 73.81 55.86"/><polygon class="cls-29" points="81.81 55.86 81.97 55.86 81.78 69.07 81.81 55.86"/><polygon class="cls-29" points="79.75 55.86 79.91 55.86 79.72 68.49 79.75 55.86"/><path class="cls-23" d="M81.87,46.6a1.87,1.87,0,0,1-.3,1c-.15.24-.51.75-.68.68s-.07-.49.07-1.28c.1-.54.19-.78.41-.91a.38.38,0,0,1,.34-.06C81.89,46.08,81.88,46.42,81.87,46.6Z"/><path class="cls-23" d="M73.89,46.38a1.19,1.19,0,0,0,.18.83c0,.09.5,1,.77.92S75,47,75,46.83c-.08-.67-.28-.82-.38-.87a.38.38,0,0,0-.33-.05C74,46,73.9,46.32,73.89,46.38Z"/><path class="cls-23" d="M77.68,50.88a2.43,2.43,0,0,1-.51-.05,2.63,2.63,0,0,1-1.33-.89,3.71,3.71,0,0,1-.52-.8,8.47,8.47,0,0,1-.67-3.91s.06-1.94.79-2.46a.76.76,0,0,1,.2-.12,12.69,12.69,0,0,1,2.16-.42,11.52,11.52,0,0,1,2.2-.38l.16,0c.89.36,1,2.08,1,3.22,0,.88.07,2.86-.8,4.09a7.05,7.05,0,0,1-.67.78,2.55,2.55,0,0,1-1.1.83A2.92,2.92,0,0,1,77.68,50.88Z"/><path class="cls-31" d="M80.89,47.29a4,4,0,0,0,0-1.9,4.78,4.78,0,0,1-.41-.9c0-.14-.06-.25-.08-.33a5.27,5.27,0,0,0-.59-.22,7.58,7.58,0,0,0-3.5-.1c-.22,0-.55.08-1,.16a1.08,1.08,0,0,1,0,.53,2.17,2.17,0,0,1-.19.41l-.14.23a7.83,7.83,0,0,0-.28,2.12s0,0-.07-.24-.09-.29-.1-.36c0-.26-.17-.27-.27-.52a2.81,2.81,0,0,1-.09-.31c0-.15,0-.37,0-.64a17.43,17.43,0,0,1,.11-1.82A2.83,2.83,0,0,1,75,42a3.06,3.06,0,0,1,1.6-.85,5.51,5.51,0,0,1,1.51-.2,3.52,3.52,0,0,1,1.42.1,2.53,2.53,0,0,1,1.34,1.18l.12,0c.28,0,.63.34.77.71a4.13,4.13,0,0,1-.1,1.83l-.08.55c-.07.41-.11.62-.12.67A2.91,2.91,0,0,1,80.89,47.29Z"/><path class="cls-31" d="M76.9,46.29a.23.23,0,0,1,0,.11.21.21,0,0,1,0,.18l-.43,0-.47,0c-.21,0-.54,0-1,0,.17-.1.15-.26.54-.32A4.3,4.3,0,0,1,76.9,46.29Z"/><path class="cls-31" d="M79.56,46.23c.38.06.32.19.49.29a7.32,7.32,0,0,0-1,0l-.46,0-.43.05a.26.26,0,0,1,0-.29A4.67,4.67,0,0,1,79.56,46.23Z"/><path class="cls-26" d="M76.59,47.42a.75.75,0,0,1-.41.18.77.77,0,0,1-.59-.2.62.62,0,0,1,.51-.27A.59.59,0,0,1,76.59,47.42Z"/><path d="M76.59,47.42a.82.82,0,0,0-.49-.18.8.8,0,0,0-.51.16.56.56,0,0,1,.51-.28A.64.64,0,0,1,76.59,47.42Z"/><path class="cls-32" d="M76.16,47.24a.62.62,0,0,0-.2,0,.22.22,0,0,0,.05.31.22.22,0,0,0,.28,0,.21.21,0,0,0,0-.25Z"/><path d="M76.13,47.32a.1.1,0,0,0-.11.07.12.12,0,0,0,.06.13.12.12,0,0,0,.16-.08A.12.12,0,0,0,76.13,47.32Z"/><path class="cls-33" d="M76.07,47.31s0,0,0,0a.08.08,0,0,0,0,0,.05.05,0,0,0,0,0S76.09,47.32,76.07,47.31Z"/><path class="cls-26" d="M79,47.14a.75.75,0,0,1,.32.08.74.74,0,0,1,.22.2.8.8,0,0,1-.61.22.71.71,0,0,1-.43-.2A.71.71,0,0,1,79,47.14Z"/><path d="M78.89,47.15a.66.66,0,0,1,.66.27.9.9,0,0,0-.59-.16.84.84,0,0,0-.45.18A.62.62,0,0,1,78.89,47.15Z"/><path class="cls-32" d="M78.79,47.29a.21.21,0,0,0,0,.26.21.21,0,0,0,.28,0,.24.24,0,0,0,0-.32H79Z"/><path d="M78.88,47.45a.1.1,0,0,0,.14.07.11.11,0,0,0,.06-.12.12.12,0,0,0-.11-.07A.11.11,0,0,0,78.88,47.45Z"/><path class="cls-33" d="M79,47.37s0,0,0,0,0,0,0,0l0,0S79,47.35,79,47.37Z"/><g class="cls-34"><polygon class="cls-33" points="76.92 48.09 75.21 48.09 75.02 46.98 77.11 46.98 77.05 47.38 77.03 47.44 76.92 48.09"/></g><path class="cls-35" d="M77,48.14H75.17L75,46.93h2.2Zm-1.71-.08h1.63l.18-1h-2Z"/><g class="cls-34"><polygon class="cls-33" points="79.91 48.01 78.2 48.01 78.01 46.89 80.1 46.89 79.91 48.01"/></g><path class="cls-35" d="M80,48.06H78.16L78,46.84h2.2ZM78.24,48h1.63l.18-1h-2Z"/><path class="cls-35" d="M77.07,47.48l0-.08a.76.76,0,0,1,1.07,0l0,.09A.7.7,0,0,0,77.07,47.48Z"/><polygon class="cls-35" points="75.07 47.52 74.31 46.12 74.25 45.86 75.15 47.47 75.07 47.52"/><polygon class="cls-35" points="80.07 47.42 80.01 47.34 81.43 45.88 81.41 46.02 80.07 47.42"/><path class="cls-36" d="M77,49.58a1.31,1.31,0,0,0,.51.12,1.88,1.88,0,0,0,1-.11s-.15,0-.37-.06A3,3,0,0,0,77,49.58Z"/><path class="cls-24" d="M77.72,49.15c-.16,0-.31-.11-.31-.15s.11,0,.34,0,.33,0,.33,0A.51.51,0,0,1,77.72,49.15Z"/><path class="cls-37" d="M77.07,53.27l.59.86a20.36,20.36,0,0,0-.58,3.19,20.11,20.11,0,0,0,0,4.06l1.7,0a16.8,16.8,0,0,0,0-4A17.12,17.12,0,0,0,78,54.13l.69-.8-.41-.64c-.14-.22-.28-.44-.43-.65C77.61,52.44,77.35,52.85,77.07,53.27Z"/><path class="cls-31" d="M77.68,49.27v.11a.43.43,0,0,1,0,.11,3.14,3.14,0,0,0-.45,0,1.11,1.11,0,0,0-.41.09.78.78,0,0,0-.19.13l.14-.27a1.47,1.47,0,0,1,.28-.12A1.43,1.43,0,0,1,77.68,49.27Z"/><path class="cls-31" d="M77.73,49.28s0,.08,0,.14v0l.48,0a1,1,0,0,1,.4.09.62.62,0,0,1,.19.13l-.14-.27a1.14,1.14,0,0,0-.27-.12A1.4,1.4,0,0,0,77.73,49.28Z"/><path class="cls-27" d="M77.56,64a.24.24,0,0,1-.48,0,.24.24,0,0,1,.24-.24.23.23,0,0,1,.24.24"/><path class="cls-27" d="M77.56,66.41a.24.24,0,0,1-.48,0,.23.23,0,0,1,.24-.24.24.24,0,0,1,.24.24"/><path class="cls-29" d="M83.09,62.19h.15c-.1-.2-.33-.58-.33-.58s.14.39.18.58"/><path class="cls-29" d="M85.06,61.53l-.67-.71s.36.53.51.8c0,0,0,0,0,0l.18,0"/><path class="cls-29" d="M71.57,62.19h-.15c.1-.2.32-.58.32-.58s-.13.39-.17.58"/><path class="cls-29" d="M69.6,61.53l.66-.71s-.35.53-.5.8c0,0,0,0,0,0l-.17,0"/><rect class="cls-38" x="50.68" y="61.4" width="53.9" height="21.2"/><rect class="cls-39" x="50.68" y="61.4" width="53.9" height="2.49"/><path class="cls-40" d="M76.32,64.69H52.58a.53.53,0,0,0-.53.52V81a.53.53,0,0,0,.53.53H76.32a.52.52,0,0,0,.52-.53V65.21a.52.52,0,0,0-.52-.52"/><path class="cls-39" d="M75.69,65.28H53.17a.53.53,0,0,0-.53.53V80.38a.52.52,0,0,0,.53.52H75.7a.52.52,0,0,0,.53-.52V65.81a.54.54,0,0,0-.54-.53"/><path class="cls-40" d="M78.4,65.21V81a.53.53,0,0,0,.53.53h23.74a.53.53,0,0,0,.53-.53V65.21a.53.53,0,0,0-.53-.52H78.93a.53.53,0,0,0-.53.52"/><path class="cls-39" d="M79.07,65.79V80.36a.53.53,0,0,0,.53.53h22.49a.53.53,0,0,0,.53-.53V65.79a.52.52,0,0,0-.53-.52H79.6a.53.53,0,0,0-.53.52"/><path class="cls-41" d="M50.25,62.29v.55a.56.56,0,0,0,.56.55h53.63a.55.55,0,0,0,.55-.55v-.55Z"/><path class="cls-41" d="M74.91,66.19H54.5a.48.48,0,0,0-.48.48v13.2a.47.47,0,0,0,.48.48H74.91a.48.48,0,0,0,.48-.48V66.67a.49.49,0,0,0-.48-.48"/><path class="cls-38" d="M74.63,66H54.22a.48.48,0,0,0-.48.47V79.69a.48.48,0,0,0,.48.47H74.63a.47.47,0,0,0,.48-.47V66.48a.47.47,0,0,0-.48-.47"/><path class="cls-42" d="M68.92,66H54.22a.48.48,0,0,0-.48.47v8.37c13.34,0,15-6.66,15.18-8.84"/><path class="cls-41" d="M101.33,66.19H80.91a.48.48,0,0,0-.47.48v13.2a.47.47,0,0,0,.47.48h20.42a.47.47,0,0,0,.47-.48V66.67a.48.48,0,0,0-.47-.48"/><path class="cls-38" d="M101.05,66H80.64a.47.47,0,0,0-.48.47V79.69a.47.47,0,0,0,.48.47h20.41a.48.48,0,0,0,.48-.47V66.48a.48.48,0,0,0-.48-.47"/><path class="cls-42" d="M95.32,66H80.63a.47.47,0,0,0-.48.47v8.37c13.35,0,15-6.66,15.17-8.84"/><path class="cls-43" d="M83.39,68.57H71.87a1.79,1.79,0,0,1,0-3.57H83.39a1.79,1.79,0,0,1,0,3.57"/><path class="cls-44" d="M84.8,66.79a1.44,1.44,0,0,1-1.45,1.44H71.91a1.45,1.45,0,0,1-1.4-1.06,1.67,1.67,0,0,1-.05-.31v-.15a1.44,1.44,0,0,1,1.45-1.37H83.35A1.46,1.46,0,0,1,84.8,66.79Z"/><path class="cls-43" d="M74.5,67.71v-.23h.08a.21.21,0,0,0,.12,0,.21.21,0,0,0,0-.13V66.07H75V67.3c0,.28-.13.41-.37.41H74.5"/><path class="cls-43" d="M75.56,67.33V66.08h.25v1.26a.14.14,0,0,0,.14.16c.09,0,.14,0,.14-.16V66.08h.25v1.25a.49.49,0,0,1-.1.3.37.37,0,0,1-.29.1.44.44,0,0,1-.29-.1.49.49,0,0,1-.1-.3"/><path class="cls-43" d="M76.92,67.71V66.08h.4a.4.4,0,0,1,.29.1.43.43,0,0,1,.1.3v.83a.45.45,0,0,1-.1.3.33.33,0,0,1-.29.1Zm.25-.23h.15a.15.15,0,0,0,.1,0,.16.16,0,0,0,0-.13v-.85a.18.18,0,0,0,0-.13.13.13,0,0,0-.1,0h-.15Z"/><path class="cls-43" d="M78.26,67.33v-.86a.47.47,0,0,1,.1-.3.36.36,0,0,1,.29-.1.4.4,0,0,1,.29.1.42.42,0,0,1,.1.3v.16h-.25v-.17c0-.11,0-.16-.12-.16s-.15,0-.15.16v.88a.14.14,0,0,0,.15.16c.07,0,.12,0,.12-.16V67h-.11V66.8H79v.51a.4.4,0,0,1-.1.3.33.33,0,0,1-.29.1.39.39,0,0,1-.29-.1.36.36,0,0,1-.1-.28"/><polygon class="cls-43" points="79.6 67.72 79.6 66.08 80.3 66.08 80.3 66.31 79.86 66.31 79.86 66.77 80.21 66.77 80.21 67 79.86 67 79.86 67.48 80.3 67.48 80.3 67.72 79.6 67.72"/><path d="M108.92,54a8.48,8.48,0,0,1-.34,1.52A9.25,9.25,0,0,1,107.37,58a3.26,3.26,0,0,1-3.28.31c-1.14-.53-2.07-1.79-1.84-2.68C102.57,54.36,105.24,53.67,108.92,54Z"/><path class="cls-45" d="M107.65,59.79c-.09-.42-.18-.89-.24-1.4,0-.33-.06-.64-.07-.94s0-.41,0-.61v0c-.66.13-1.36.29-2.07.47l-.15,0c-.6.15-1.17.31-1.72.48h0s0,.09.07.14a3.7,3.7,0,0,1,.27,1,2.87,2.87,0,0,1,0,.6,3.58,3.58,0,0,1-.25,1.1Z"/><path class="cls-46" d="M103.39,57.8l0,.15a3.7,3.7,0,0,1,.27,1,3.2,3.2,0,0,0,.43,0,3.35,3.35,0,0,0,.79-.11c.57-.13.69-.13.88-.18a2.84,2.84,0,0,0,1.56-1.27c0-.21,0-.41,0-.61l-2.22.48C104.51,57.47,103.94,57.63,103.39,57.8Z"/><path class="cls-45" d="M101,54.12c.16.64.29,1.3.41,1.85a3.68,3.68,0,0,0,.54,1.15,8.2,8.2,0,0,0,.88.89c.6.58.82.72,1.1.74a2.42,2.42,0,0,0,.52,0c.62-.1.7-.08,1-.14a2.66,2.66,0,0,0,1-.43,4.13,4.13,0,0,0,1-1,3.74,3.74,0,0,0,.65-1,2.13,2.13,0,0,0,.15-1.29c-.08-.58-.17-1.26-.23-1.94a5.47,5.47,0,0,0-1.18-3.35c-.5-.44-1.9.14-3,.34s-2.55.14-2.85.72a6.74,6.74,0,0,0-.21,1.59A7.42,7.42,0,0,0,101,54.12Z"/><path class="cls-26" d="M104.74,53.84a1.44,1.44,0,0,0,.67.15,1.47,1.47,0,0,0,.93-.41,1.46,1.46,0,0,0-.63-.3,1.07,1.07,0,0,0-.36,0A1,1,0,0,0,104.74,53.84Z"/><path class="cls-47" d="M104.94,53.64a.43.43,0,0,0,.85-.18.36.36,0,0,0-.12-.18h-.21a.88.88,0,0,0-.23.07l-.11.07a.82.82,0,0,0-.19.18A.09.09,0,0,0,104.94,53.64Z"/><path d="M105.58,53.56a.23.23,0,0,1-.21.26.25.25,0,0,1-.24-.23.23.23,0,0,1,.2-.26A.25.25,0,0,1,105.58,53.56Z"/><path class="cls-26" d="M105.66,53.47a.1.1,0,0,1-.08.1.11.11,0,0,1-.1-.09.1.1,0,0,1,.08-.1A.11.11,0,0,1,105.66,53.47Z"/><path class="cls-48" d="M104.1,52.89a6.28,6.28,0,0,1,1.73-1.07.56.56,0,0,1,.56.09.48.48,0,0,1,.12.35,2,2,0,0,0-.47,0,2.49,2.49,0,0,0-1,.42,8.39,8.39,0,0,0-.79.53.26.26,0,0,1-.07-.1A.72.72,0,0,1,104.1,52.89Z"/><path class="cls-48" d="M104.74,53.84a1.07,1.07,0,0,1,1.6-.26,1,1,0,0,0-1.25-.27A.91.91,0,0,0,104.74,53.84Z"/><path class="cls-26" d="M103.07,54.08a1.43,1.43,0,0,1-1.16.36,1.14,1.14,0,0,1-.43-.17,1.18,1.18,0,0,1,.45-.44,1,1,0,0,1,.58-.1l.14,0A.86.86,0,0,1,103.07,54.08Z"/><path class="cls-47" d="M102.64,54a.42.42,0,0,1-.39.46.47.47,0,0,1-.49-.4.29.29,0,0,1,0-.2.9.9,0,0,1,.58-.1l.13,0A.45.45,0,0,1,102.64,54Z"/><path d="M101.87,54.1a.25.25,0,0,0,.28.2.24.24,0,0,0,.17-.29.25.25,0,0,0-.28-.2A.24.24,0,0,0,101.87,54.1Z"/><path class="cls-26" d="M102.21,54a.09.09,0,0,0,.11.07.09.09,0,0,0,.06-.11.09.09,0,0,0-.11-.07A.09.09,0,0,0,102.21,54Z"/><path class="cls-48" d="M103.11,53a4,4,0,0,0-1.5-.38.39.39,0,0,0-.35.22.46.46,0,0,0,0,.3,1,1,0,0,1,.3-.11,1.46,1.46,0,0,1,.75.08,6.22,6.22,0,0,1,.75.26.34.34,0,0,0,0-.12A1.29,1.29,0,0,0,103.11,53Z"/><path class="cls-48" d="M103.07,54.08a1,1,0,0,0-1.59.19.91.91,0,0,1,.42-.54A1,1,0,0,1,103.07,54.08Z"/><path d="M100.47,49.42a5.63,5.63,0,0,1,3-1.74,4.74,4.74,0,0,1,4,.71,5,5,0,0,1,1.58,4.19,7.72,7.72,0,0,1-.56,2.77,7.23,7.23,0,0,1-.68,1.31,3.25,3.25,0,0,0,.16-.61,3.87,3.87,0,0,0,0-.76c0-.24,0-.62-.09-1.15-.08,0-.3.06-.31,0a3.85,3.85,0,0,0-.35-1.56,9.68,9.68,0,0,1-.6-1,3.6,3.6,0,0,1-.25-1.1,6.67,6.67,0,0,0-3.14-.27,6.53,6.53,0,0,0-2,.69,3.7,3.7,0,0,1,0,1.37,4.83,4.83,0,0,0-.25,1.35,2.37,2.37,0,0,0,.12.67,10.12,10.12,0,0,1-.39-1.24A9.67,9.67,0,0,1,100.47,49.42Z"/><path class="cls-46" d="M103.38,55.89s.11.06.34.11a.76.76,0,0,0,.64-.09q.31-.18.3-.21a1.63,1.63,0,0,0-.53.16.69.69,0,0,1-.2,0A1.89,1.89,0,0,0,103.38,55.89Z"/><path class="cls-46" d="M104.21,57.09c.62-.07.94,0,1-.05a1.41,1.41,0,0,0-1-.19,1.31,1.31,0,0,0-.84.35A6.31,6.31,0,0,0,104.21,57.09Z"/><path class="cls-46" d="M103.88,57.72c0,.06.23.14.46.11s.45-.17.44-.23-.3,0-.46,0S103.88,57.66,103.88,57.72Z"/><polygon class="cls-48" points="103.75 56.26 103.84 56.52 102.5 56.95 103.75 56.26"/><polygon class="cls-48" points="104.24 56.19 104.21 56.46 105.89 56.64 104.24 56.19"/><path d="M100.44,50.66l8.11-.91-.41-2.8-7.89.77Z"/><path class="cls-49" d="M112.83,48.94l-.32-.79-.12.05h0l-.41.13h0c-.35.11-.89.27-1.59.45h0a47.91,47.91,0,0,1-6,1.09h0a47.89,47.89,0,0,1-8,.29h0l0,.79a49.7,49.7,0,0,0,8.1-.26h0a40.24,40.24,0,0,0,8.33-1.75Z"/><path class="cls-45" d="M107.74,53.13a.4.4,0,0,1,.42-.43c.59,0,.41,1.34.27,1.85-.06.23-.07.81-.53.79Z"/><path class="cls-45" d="M119.76,89.18c0,.08,0,.15,0,.22v0c0,.32,0,.65,0,1h0a6.76,6.76,0,0,1-.12,1.14,1,1,0,0,1-.18.44l-.1.1h0l0,0a.42.42,0,0,0,0,.06c0,.15-.15.49-.48.55a.53.53,0,0,1-.28-.07c-.13.32-.32.38-.47.32a.58.58,0,0,1-.25-.24.38.38,0,0,1-.31-.07c-.23-.17-.19-.59-.26-1.44,0-.16-.08-.68-.23-1.72a.13.13,0,0,0,0-.06v-.07c0-.17,0-.35-.08-.52-.16.6,0,1.54-.51,1.71h-.2l0,0,0,0h0l0,0a.14.14,0,0,1,0-.06.43.43,0,0,1,0,0c.13-1.27-.13-1.91,0-2.48a3.76,3.76,0,0,0,.77-1.71,2.19,2.19,0,0,0-.18-1,52.43,52.43,0,0,1-1.82-7.32c-.23-1.07-.34-1.61-.36-1.7-.14-.71-.14-.74-.23-1.08a39.35,39.35,0,0,0-1.76-5.4,17.47,17.47,0,0,0-.26,11.78,25.49,25.49,0,0,1-5,.89,24.91,24.91,0,0,1-4.94-.13,20.46,20.46,0,0,0-.07-7.12c0-.12-.19-.8-.39-1.67l-.45-1.83c-.09-.34-.16-.63-.22-.88,0,.21,0,.42-.07.62l-3.46-3c.09-1.21.19-2.05.24-2.45.13-1.1.26-2,.36-2.62l1.7-1c1-.63,2-1.27,3-1.9.08-.13.15-.26.23-.38l2.29.38,2.59-.84c1.21.26,2.52.59,3.91,1,.91.3,1.77.61,2.57.93a11.91,11.91,0,0,1,1.26,2.84c.12.37.38,1.61.83,4.09.33,1.82.54,2.34.83,3.52,0,0,.14.58.3,1.39a59,59,0,0,1,.94,9.07c0,.77,0,1.89,0,3.23.14.3.29.56.43.82a4.31,4.31,0,0,1,.54,1.75C119.7,88.51,119.73,88.84,119.76,89.18Z"/><path class="cls-46" d="M109.77,61c-.74-.62-2.74-.08-3.44.71Z"/><path class="cls-46" d="M101.81,62.16c.52-.76,2.34-.83,3.1-.28Z"/><path class="cls-46" d="M119.4,92a4.51,4.51,0,0,0,0-2.53,7.3,7.3,0,0,1-.09,2.64Z"/><path class="cls-46" d="M118.55,92.64a4.79,4.79,0,0,0,0-3.63,8.41,8.41,0,0,1,.24,1.95A6.85,6.85,0,0,1,118.55,92.64Z"/><path class="cls-46" d="M117.84,92.72a6.09,6.09,0,0,0,0-3.57,10.28,10.28,0,0,1,.13,2.37A9.22,9.22,0,0,1,117.84,92.72Z"/><path class="cls-26" d="M115.64,83.6c.56.64,2.47.87,2.93.29,2.09-.71,1-2.74-.08-9.51-1.15-7.15-2.44-15-4.9-13.25l-1.06,8.63S113.53,83.25,115.64,83.6Z"/><path class="cls-26" d="M115,86s5.22,1,5.67-.39c.23-.72-1.92-2.66-1.92-2.66l-2.95.07Z"/><path class="cls-26" d="M105.27,59.5c.18-.24.47-.33,1.23-.52.43-.11,1-.24,1.62-.37l.11.88-3.13.72A.92.92,0,0,1,105.27,59.5Z"/><path class="cls-26" d="M104.84,59.59a1.29,1.29,0,0,0-.72-.19,4,4,0,0,0-1,.05l-.14.89,2.13-.13A.8.8,0,0,0,104.84,59.59Z"/><path class="cls-26" d="M111.88,76.27l-5.64.43q-.55-8.26-1.09-16.55l3.08-.66.46.12,3.65,7.18C112.18,70,112,73.12,111.88,76.27Z"/><path class="cls-26" d="M97.84,76c-.71.9-2.25.71-2.53.68l-2.9-1.5c.18-.36.56-1.12,1-2.09,3.17-6.65,4.32-10.91,5.66-10.73a.83.83,0,0,1,.45.24c.39,2.88.79,5.77,1.18,8.66a17.32,17.32,0,0,1-2,3.69q-.42.56-.84,1.05l-2.53.68c-3.07-1.53-5.37-2.82-6.59-3.54a5.14,5.14,0,0,1-1.89-1.77,3.75,3.75,0,0,1-.46-1.14,2.57,2.57,0,0,1,0-1.53,2.11,2.11,0,0,1,.8-1.06c.89-.55,2.23.15,3.53.82,5.3,2.7,5.79,2.63,6.48,3.71C97.39,72.5,98.83,74.79,97.84,76Z"/><path class="cls-26" d="M101.92,77.1l4.32-.4q-.55-8.26-1.09-16.55l-2.16.18-.74.39-1.94,7.18Z"/><path class="cls-50" d="M106,76.72l.27,0q-.54-8.17-1.06-16.38l-.36,0Q105.39,68.54,106,76.72Z"/><path d="M106.23,61.23l.64,13.91,5.57.77q.36-3.66.66-7.45c.19-2.48.35-4.93.49-7.33-.74-.28-1.53-.56-2.37-.82s-1.72-.51-2.53-.7Z"/><path d="M104,61.31l1.23,14-3.65,1.1q-1.17-7-2.35-14l3-1.67Z"/><path d="M102.27,102.13a89.26,89.26,0,0,0,3.25,13.76l4-.18c-.79-4.3-1.47-9-2-14-.51-5.3-1.09-10.26-1.12-14.84h.29c.08,4.71.69,9.78,1.27,15.21.51,4.84,1.2,9.36,2,13.55l4.48-.17a86.74,86.74,0,0,0,1.06-13.68,87.81,87.81,0,0,0-3-22.59,11.26,11.26,0,0,0-2.07-.42c-.3,0-.64,0-1,0a10,10,0,0,0-2.47.32l-.32,0a4.43,4.43,0,0,0-2.31-.57,4.35,4.35,0,0,0-2.58,1c0,.36-.11.91-.17,1.59A84,84,0,0,0,102.27,102.13Z"/><path class="cls-49" d="M101.62,80.73l11.1-1-1-3.57-9.61.88Z"/><path class="cls-51" d="M108.93,87.29a52.23,52.23,0,0,0,3.51,13.76,43.67,43.67,0,0,0,1.07-6.28,42.78,42.78,0,0,0-1.21-15l-3.69.33A51.76,51.76,0,0,0,108.93,87.29Z"/><path class="cls-45" d="M81.12,67.29c-.93.23-1.23-1.13-.17-.75h0A.39.39,0,0,1,81.12,67.29Z"/><path class="cls-45" d="M81.14,66.74c-1.28,0-.77-1.43-.1-.79h0l.07,0h0A.39.39,0,0,1,81.14,66.74Z"/><path class="cls-45" d="M81.13,66.1,80.76,66a.38.38,0,0,1,.21-.74l.37.11A.39.39,0,0,1,81.13,66.1Z"/><path class="cls-45" d="M85.31,66.62a3,3,0,0,1-.76-.74,9.28,9.28,0,0,1-.47-.9c-.23-.34-.91.42-2.6-.28l-.62,2.48a5.92,5.92,0,0,0,3.68,1.33l1,.6,1-1.83Z"/><path class="cls-45" d="M82.94,65.1c-.4-.36-4.17-1.3-4.13-.49,0,.33.39.29.61.32a7.57,7.57,0,0,1,2.47.68c.4.14.81.71,1.22.3A.51.51,0,0,0,82.94,65.1Z"/><path class="cls-45" d="M81.86,63.29c.49.94,1,1.91,1.4,2.88.37.82,1.42.23,1.08-.61a6.38,6.38,0,0,0-2-2.63A.32.32,0,0,0,81.86,63.29Z"/><path class="cls-46" d="M81.4,67.15a.47.47,0,0,0-.07-.48s0,.06,0,.16a.42.42,0,0,1,0,.24.45.45,0,0,1-.3.24.16.16,0,0,0,.1,0A.34.34,0,0,0,81.4,67.15Z"/><path class="cls-46" d="M81.5,66.59c.1-.13.08-.57-.13-.53s.22.26,0,.52-.4.1-.58,0l-.32-.14a.81.81,0,0,0,.87.26A.55.55,0,0,0,81.5,66.59Z"/><path class="cls-46" d="M81.6,66a.45.45,0,0,0-.25-.67h0c-.34-.08-.43-.08-.44-.07s.08.06.41.18a.33.33,0,0,1-.18.63h0c-.16-.06-.62-.24-.63-.23s.46.47.85.34A.43.43,0,0,0,81.6,66Z"/><path class="cls-46" d="M83.75,66.86a2.76,2.76,0,0,1-.88-1.21,2.8,2.8,0,0,1-.15-.68l-.09,0a2.24,2.24,0,0,0,.42,1.31A2,2,0,0,0,83.75,66.86Z"/><line class="cls-1" x1="98.55" y1="76.35" x2="98.55" y2="76.35"/><path class="cls-26" d="M86.18,65.19s-3.49,3-2.69,4.51c.4.74,3,.67,3,.67l1.15-2.47Z"/><path d="M46.4,54a9.44,9.44,0,0,0,.34,1.52A9.25,9.25,0,0,0,48,58a3.27,3.27,0,0,0,3.29.31c1.13-.53,2.06-1.79,1.83-2.68C52.75,54.36,50.09,53.67,46.4,54Z"/><path class="cls-45" d="M47.67,59.79c.09-.42.18-.89.24-1.4,0-.33.06-.64.07-.94s0-.41,0-.61c0,0,0,0,0,0,.66.13,1.35.29,2.07.47l.14,0c.6.15,1.17.31,1.73.48h0l-.07.14a3.7,3.7,0,0,0-.27,1,3.83,3.83,0,0,0,0,.6,3.33,3.33,0,0,0,.24,1.1Z"/><path class="cls-46" d="M51.94,57.8l0,.15a3.7,3.7,0,0,0-.27,1,3.2,3.2,0,0,1-.43,0,3.42,3.42,0,0,1-.79-.11c-.57-.13-.69-.13-.88-.18A2.84,2.84,0,0,1,48,57.45c0-.21,0-.41,0-.61l2.22.48C50.81,57.47,51.38,57.63,51.94,57.8Z"/><path class="cls-45" d="M54.29,54.12c-.16.64-.29,1.3-.4,1.85a3.75,3.75,0,0,1-.55,1.15,7.76,7.76,0,0,1-.87.89c-.61.58-.82.72-1.11.74a2.31,2.31,0,0,1-.51,0c-.63-.1-.71-.08-1-.14a2.66,2.66,0,0,1-1-.43,4.11,4.11,0,0,1-1-1,3.59,3.59,0,0,1-.66-1,2.21,2.21,0,0,1-.15-1.29c.08-.58.17-1.26.24-1.94a5.4,5.4,0,0,1,1.17-3.35c.5-.44,1.9.14,3,.34s2.54.14,2.85.72a7.29,7.29,0,0,1,0,3.48Z"/><path class="cls-26" d="M50.58,53.84a1.4,1.4,0,0,1-.67.15,1.47,1.47,0,0,1-.93-.41,1.46,1.46,0,0,1,.63-.3,1.08,1.08,0,0,1,.36,0A1,1,0,0,1,50.58,53.84Z"/><path class="cls-47" d="M50.39,53.64a.45.45,0,0,1-.51.33.39.39,0,0,1-.23-.69h.21a.88.88,0,0,1,.23.07l.11.07a.82.82,0,0,1,.19.18Z"/><path d="M49.74,53.56a.23.23,0,0,0,.21.26.25.25,0,0,0,.24-.23.23.23,0,0,0-.19-.26A.26.26,0,0,0,49.74,53.56Z"/><path class="cls-26" d="M49.66,53.47a.1.1,0,0,0,.08.1.11.11,0,0,0,.1-.09.09.09,0,0,0-.08-.1A.11.11,0,0,0,49.66,53.47Z"/><path class="cls-48" d="M51.22,52.89a6.28,6.28,0,0,0-1.73-1.07.56.56,0,0,0-.56.09.48.48,0,0,0-.12.35,2.09,2.09,0,0,1,.48,0,2.52,2.52,0,0,1,1,.42c.22.13.5.31.8.53a.44.44,0,0,0,.06-.1A.72.72,0,0,0,51.22,52.89Z"/><path class="cls-48" d="M50.58,53.84a1.07,1.07,0,0,0-1.6-.26,1,1,0,0,1,1.25-.27A.91.91,0,0,1,50.58,53.84Z"/><path class="cls-26" d="M52.25,54.08a1.43,1.43,0,0,0,1.16.36,1.14,1.14,0,0,0,.43-.17,1.12,1.12,0,0,0-.45-.44,1,1,0,0,0-.58-.1l-.13,0A.85.85,0,0,0,52.25,54.08Z"/><path class="cls-47" d="M52.69,54a.41.41,0,0,0,.39.46.45.45,0,0,0,.48-.4.29.29,0,0,0-.05-.2.9.9,0,0,0-.58-.1l-.13,0A.36.36,0,0,0,52.69,54Z"/><path d="M53.45,54.1A.23.23,0,1,1,53,54a.26.26,0,0,1,.28-.2A.24.24,0,0,1,53.45,54.1Z"/><path class="cls-26" d="M53.11,54a.09.09,0,0,1-.11.07.09.09,0,0,1-.06-.11.1.1,0,0,1,.11-.07A.09.09,0,0,1,53.11,54Z"/><path class="cls-48" d="M52.22,53a3.9,3.9,0,0,1,1.5-.38.39.39,0,0,1,.34.22.55.55,0,0,1,0,.3,1.12,1.12,0,0,0-.3-.11,1.49,1.49,0,0,0-.76.08,6.88,6.88,0,0,0-.75.26.83.83,0,0,1,0-.12A.76.76,0,0,1,52.22,53Z"/><path class="cls-48" d="M52.25,54.08a1,1,0,0,1,1.59.19.87.87,0,0,0-.42-.54A1,1,0,0,0,52.25,54.08Z"/><path d="M54.85,49.42a5.59,5.59,0,0,0-3-1.74,4.74,4.74,0,0,0-4,.71,5,5,0,0,0-1.58,4.19,7.67,7.67,0,0,0,.55,2.77,7.92,7.92,0,0,0,.68,1.31,2.7,2.7,0,0,1-.15-.61,3.22,3.22,0,0,1,0-.76c0-.24.05-.62.09-1.15.08,0,.3.06.31,0a3.66,3.66,0,0,1,.36-1.56c.19-.39.4-.56.6-1a3.27,3.27,0,0,0,.24-1.1,6.67,6.67,0,0,1,3.14-.27,6.53,6.53,0,0,1,2,.69,3.94,3.94,0,0,0,0,1.37,4.83,4.83,0,0,1,.25,1.35,2.37,2.37,0,0,1-.12.67A8.64,8.64,0,0,0,54.65,53,9.67,9.67,0,0,0,54.85,49.42Z"/><path class="cls-46" d="M52,55.89s-.12.06-.35.11a.76.76,0,0,1-.64-.09q-.32-.18-.3-.21a1.64,1.64,0,0,1,.54.16.64.64,0,0,0,.2,0A2,2,0,0,1,52,55.89Z"/><path class="cls-46" d="M51.11,57.09c-.61-.07-.94,0-1-.05a1.43,1.43,0,0,1,1-.19,1.35,1.35,0,0,1,.85.35A6.32,6.32,0,0,1,51.11,57.09Z"/><path class="cls-46" d="M51.44,57.72c0,.06-.23.14-.46.11s-.45-.17-.43-.23.29,0,.45,0S51.44,57.66,51.44,57.72Z"/><polygon class="cls-48" points="51.57 56.26 51.48 56.52 52.82 56.95 51.57 56.26"/><polygon class="cls-48" points="51.08 56.19 51.11 56.46 49.43 56.64 51.08 56.19"/><path d="M54.88,50.66l-8.11-.91.42-2.8,7.88.77Z"/><path class="cls-49" d="M42.49,48.94l.32-.79.13.05h0l.4.13h0c.36.11.89.27,1.59.45h0a48.13,48.13,0,0,0,6,1.09h0a47.72,47.72,0,0,0,8,.29h0l0,.79a49.74,49.74,0,0,1-8.1-.26h0a40.67,40.67,0,0,1-8.33-1.75Z"/><path class="cls-45" d="M47.59,53.13a.41.41,0,0,0-.43-.43c-.58,0-.4,1.34-.27,1.85.06.23.08.81.53.79Z"/><path class="cls-45" d="M35.57,89.18c0,.08,0,.15,0,.22v0c0,.32,0,.65,0,1h0a6.76,6.76,0,0,0,.12,1.14,1,1,0,0,0,.19.44l.09.1h0l.05,0a.15.15,0,0,0,0,.06.68.68,0,0,0,.49.55.58.58,0,0,0,.28-.07c.13.32.31.38.46.32a.53.53,0,0,0,.25-.24.37.37,0,0,0,.31-.07c.24-.17.19-.59.26-1.44,0-.16.09-.68.23-1.72,0,0,0,0,0-.06a.15.15,0,0,1,0-.07c0-.17,0-.35.07-.52.16.6,0,1.54.52,1.71h.2l0,0,0,0h0l0,0a.14.14,0,0,0,0-.06.07.07,0,0,0,0,0c-.12-1.27.13-1.91,0-2.48a3.79,3.79,0,0,1-.78-1.71,2.16,2.16,0,0,1,.19-1,52.77,52.77,0,0,0,1.81-7.32c.23-1.07.34-1.61.36-1.7.14-.71.14-.74.23-1.08a39.35,39.35,0,0,1,1.76-5.4,17.36,17.36,0,0,1,1.14,5.47A17.07,17.07,0,0,1,43,81.51a25.49,25.49,0,0,0,5,.89A25,25,0,0,0,53,82.27a20,20,0,0,1,.07-7.12c0-.12.18-.8.39-1.67.16-.69.31-1.31.44-1.83.09-.34.16-.63.23-.88,0,.21,0,.42.07.62l3.45-3c-.09-1.21-.18-2.05-.23-2.45-.13-1.1-.27-2-.37-2.62l-1.7-1c-1-.63-2-1.27-3-1.9L52.11,60l-2.3.38-2.59-.84c-1.21.26-2.52.59-3.9,1q-1.38.45-2.58.93a11.91,11.91,0,0,0-1.26,2.84c-.11.37-.37,1.61-.82,4.09-.34,1.82-.55,2.34-.84,3.52,0,0-.13.58-.3,1.39a59,59,0,0,0-.94,9.07c0,.77,0,1.89,0,3.23a7.88,7.88,0,0,1-.43.82,4.47,4.47,0,0,0-.54,1.75C35.62,88.51,35.59,88.84,35.57,89.18Z"/><path class="cls-46" d="M45.55,61c.74-.62,2.75-.08,3.44.71Z"/><path class="cls-46" d="M53.51,62.16c-.52-.76-2.34-.83-3.1-.28Z"/><path class="cls-46" d="M35.93,92a4.51,4.51,0,0,1,0-2.53,7.56,7.56,0,0,0,0,1.61,5.64,5.64,0,0,0,.15,1Z"/><path class="cls-46" d="M36.77,92.64a4.79,4.79,0,0,1,0-3.63A8,8,0,0,0,36.56,91,6.45,6.45,0,0,0,36.77,92.64Z"/><path class="cls-46" d="M37.48,92.72a6.17,6.17,0,0,1,0-3.57,10.28,10.28,0,0,0-.13,2.37A9.22,9.22,0,0,0,37.48,92.72Z"/><path class="cls-26" d="M39.68,83.6c-.56.64-2.47.87-2.92.29-2.09-.71-1-2.74.08-9.51,1.14-7.15,2.44-15,4.89-13.25l1.06,8.63S41.8,83.25,39.68,83.6Z"/><path class="cls-26" d="M40.33,86s-5.22,1-5.67-.39c-.23-.72,1.92-2.66,1.92-2.66l3,.07Z"/><path class="cls-26" d="M50.05,59.5c-.18-.24-.47-.33-1.23-.52-.43-.11-1-.24-1.62-.37l-.11.88,3.13.72A.88.88,0,0,0,50.05,59.5Z"/><path class="cls-26" d="M50.48,59.59a1.29,1.29,0,0,1,.72-.19,4.1,4.1,0,0,1,1,.05l.14.89-2.13-.13A.78.78,0,0,1,50.48,59.59Z"/><path class="cls-26" d="M43.44,76.27l5.65.43q.54-8.26,1.09-16.55l-3.09-.66-.46.12C45.42,62,44.2,64.39,43,66.79,43.14,70,43.29,73.12,43.44,76.27Z"/><path class="cls-26" d="M57.48,76c.71.9,2.26.71,2.53.68l2.9-1.5c-.18-.36-.56-1.12-1-2.09-3.16-6.65-4.32-10.91-5.65-10.73a.77.77,0,0,0-.45.24Q55.19,67,54.6,71.3a17,17,0,0,0,2,3.69c.27.37.55.72.83,1.05l2.53.68c3.07-1.53,5.37-2.82,6.6-3.54a5.21,5.21,0,0,0,1.88-1.77A3.51,3.51,0,0,0,69,70.27a2.56,2.56,0,0,0,0-1.53,2.18,2.18,0,0,0-.81-1.06c-.88-.55-2.23.15-3.53.82-5.29,2.7-5.79,2.63-6.48,3.71C57.93,72.5,56.49,74.79,57.48,76Z"/><path class="cls-26" d="M53.4,77.1l-4.31-.4q.54-8.26,1.09-16.55l2.15.18.74.39L55,67.9Z"/><path class="cls-50" d="M49.35,76.72l-.26,0,1-16.38.36,0Q49.93,68.54,49.35,76.72Z"/><path d="M49.09,61.23l-.64,13.91-5.57.77q-.36-3.66-.66-7.45c-.19-2.48-.35-4.93-.49-7.33.74-.28,1.53-.56,2.37-.82s1.73-.51,2.53-.7Z"/><path d="M51.35,61.31l-1.23,14,3.64,1.1q1.17-7,2.35-14l-3-1.67Z"/><path d="M53.05,102.13a88.1,88.1,0,0,1-3.25,13.76l-4-.18c.79-4.3,1.47-9,2-14,.51-5.3,1.09-10.26,1.12-14.84h-.29c-.07,4.71-.69,9.78-1.27,15.21-.51,4.84-1.2,9.36-2,13.55l-4.47-.17a87.2,87.2,0,0,1,1.95-36.27,11.26,11.26,0,0,1,2.07-.42c.3,0,.65,0,1,0a10.11,10.11,0,0,1,2.48.32l.31,0A4.46,4.46,0,0,1,51,78.48a4.35,4.35,0,0,1,2.58,1c.05.36.11.91.18,1.59A84.71,84.71,0,0,1,53.05,102.13Z"/><path class="cls-49" d="M53.7,80.73l-11.1-1,1-3.57,9.61.88Z"/><path class="cls-51" d="M46.39,87.29a52.66,52.66,0,0,1-3.5,13.76,43.54,43.54,0,0,1-1.08-6.28,42.44,42.44,0,0,1,1.22-15l3.68.33A51.76,51.76,0,0,1,46.39,87.29Z"/><path class="cls-45" d="M74.2,67.29c.93.23,1.23-1.13.18-.75h0A.39.39,0,0,0,74.2,67.29Z"/><path class="cls-45" d="M74.18,66.74c1.28,0,.77-1.43.11-.79,0,0,0,0,0,0l-.07,0h0A.39.39,0,0,0,74.18,66.74Z"/><path class="cls-45" d="M74.19,66.1l.37-.11a.38.38,0,0,0-.21-.74l-.36.11A.38.38,0,0,0,74.19,66.1Z"/><path class="cls-45" d="M70,66.62a3,3,0,0,0,.76-.74,7.43,7.43,0,0,0,.47-.9c.24-.34.91.42,2.6-.28l.62,2.48a5.92,5.92,0,0,1-3.68,1.33l-1,.6-1-1.83Z"/><path class="cls-45" d="M72.38,65.1c.4-.36,4.17-1.3,4.13-.49,0,.33-.39.29-.61.32a7.57,7.57,0,0,0-2.47.68c-.4.14-.81.71-1.22.3A.51.51,0,0,1,72.38,65.1Z"/><path class="cls-45" d="M73.46,63.29c-.49.94-1,1.91-1.4,2.88-.36.82-1.42.23-1.08-.61a6.38,6.38,0,0,1,2-2.63A.32.32,0,0,1,73.46,63.29Z"/><path class="cls-46" d="M73.93,67.15a.5.5,0,0,1,.06-.48s0,.06,0,.16a.42.42,0,0,0,0,.24.45.45,0,0,0,.3.24.16.16,0,0,1-.1,0A.31.31,0,0,1,73.93,67.15Z"/><path class="cls-46" d="M73.83,66.59c-.11-.13-.09-.57.12-.53.06.11-.22.26,0,.52s.4.1.58,0l.32-.14a.81.81,0,0,1-.87.26A.44.44,0,0,1,73.83,66.59Z"/><path class="cls-46" d="M73.72,66A.45.45,0,0,1,74,65.3h0c.35-.08.43-.08.44-.07s-.07.06-.41.18a.33.33,0,0,0,.18.63h0c.16-.06.62-.24.63-.23s-.45.47-.84.34A.42.42,0,0,1,73.72,66Z"/><path class="cls-46" d="M71.58,66.86a2.84,2.84,0,0,0,.87-1.21A2.4,2.4,0,0,0,72.6,65l.09,0a2.24,2.24,0,0,1-.42,1.31A2,2,0,0,1,71.58,66.86Z"/><line class="cls-1" x1="56.78" y1="76.35" x2="56.78" y2="76.35"/><path class="cls-26" d="M69.14,65.19s3.49,3,2.69,4.51c-.39.74-3,.67-3,.67L67.73,67.9Z"/></g></svg>