<?xml version="1.0" encoding="utf-8"?>
<!-- Generator: Adobe Illustrator 16.0.0, SVG Export Plug-In . SVG Version: 6.00 Build 0)  -->
<!DOCTYPE svg PUBLIC "-//W3C//DTD SVG 1.1//EN" "http://www.w3.org/Graphics/SVG/1.1/DTD/svg11.dtd">
<svg version="1.1" id="Layer_1" xmlns="http://www.w3.org/2000/svg" xmlns:xlink="http://www.w3.org/1999/xlink" x="0px" y="0px"
	 width="594px" height="574.5px" viewBox="0 0 594 574.5" enable-background="new 0 0 594 574.5" xml:space="preserve">
<g>
	<defs>
		<rect id="SVGID_1_" width="594" height="574.5"/>
	</defs>
	<clipPath id="SVGID_2_">
		<use xlink:href="#SVGID_1_"  overflow="visible"/>
	</clipPath>
	<path clip-path="url(#SVGID_2_)" fill="#8892DB" d="M263.8,507.5C141.1,488.9,41.4,372.9,59.5,243.9C74.9,134,171.4,48.4,287,40.3
		c69.6-5.1,138.3,18.9,189.6,66.2c42.2,38.8,69.601,90.8,74.601,145.3C564.5,396.8,416.4,530.6,263.8,507.5"/>
	<path clip-path="url(#SVGID_2_)" fill="#E09A61" d="M348.442,218.021c-6.039,5.6-7.203,8.103-13.092-4.575
		c-0.186-0.41-0.403-0.848-0.633-1.285c-2.181-4.309-5.752-9.627-7.754-11.908c-2.201-2.496-3.393-4.146-3.521-7.854
		s0.055-9.631-0.117-12.302c-0.049-0.718-0.061-1.425-0.051-2.074c0.028-2.045-0.473-4.06-1.444-5.859
		c-0.038-0.07-0.075-0.139-0.112-0.207c-0.579-1.08-1.32-2.06-2.191-2.922c-0.733-0.725-1.594-1.624-2.092-2.312
		c-0.992-1.37-0.146-2.959-0.146-2.959c-1.121-1.334,0.07-3.442,0.07-3.442s-0.71-1.97-0.313-2.358c0.397-0.4,1.38,0.037,1.38,0.037
		s-0.058-1.512,0.707-1.512c0.774,0.013,8.801,5.565,9.653,6.303c0.851,0.737,5.607,6.378,6.388,7.745
		c0.781,1.354,0.795,4.849,0.994,6.995c0.199,2.159,1.566,10.908,1.566,10.908c0.873,2.551,1.658,3.445,1.658,3.445
		c0.535,0.64,2.256,2.444,4.219,4.475c3.398,3.554,7.533,7.791,7.533,7.791S355.264,211.712,348.442,218.021"/>
	<path clip-path="url(#SVGID_2_)" fill="#C47947" d="M317.285,163.764c6.421,5.456,5.722,4.734,10.112,12.473
		c-0.436-2.502-1.896-5.421-3.468-7.385C321.877,167.013,319.389,164.954,317.285,163.764"/>
	<path clip-path="url(#SVGID_2_)" fill="#C47947" d="M317.356,160.327c2.755,2.407,6.379,4.767,8.882,7.495
		c1.343,1.931,2.732,4.263,4.105,6.177c-0.69-2.484-2.279-5.372-3.966-7.328C323.501,164.478,320.225,161.969,317.356,160.327"/>
	<path clip-path="url(#SVGID_2_)" fill="#C47947" d="M318.431,158.003c2.763,2.195,6.318,4.868,8.997,7.125
		c1.916,2.42,3.622,5.124,5.671,7.405c-1.102-2.693-3.343-5.546-5.235-7.79C324.782,162.416,321.509,159.756,318.431,158.003"/>
	<path clip-path="url(#SVGID_2_)" d="M317.795,190.256c-0.642,3.687-1.645,7.868-3.225,12.351
		c-3.037,8.616-7.139,15.317-10.655,20.096c-8.155,5.299-18.438,5.873-26.891,1.498c-9.072-4.697-16.236-15.202-14.118-22.392
		C265.905,191.633,287.865,186.834,317.795,190.256"/>
	<path clip-path="url(#SVGID_2_)" fill="#E09A61" d="M307.144,237.668c-1.239-2.564-2.886-6.761-3.379-12.188
		c-0.501-5.503,0.391-9.984,1.163-12.742c-8.314,1.536-14.18,2.728-18.036,3.543c-0.308,0.065-0.694,0.146-1.223,0.261
		c-4.897,1.059-9.627,2.187-14.185,3.358c-0.116,0.028-0.24,0.065-0.356,0.093c0.158,0.35,0.318,0.733,0.491,1.164
		c0.774,1.983,1.647,4.818,1.932,8.267c0.124,1.515,0.14,3.149-0.021,4.885c-0.349,3.733-1.377,6.783-2.315,8.928
		c5.626-1.02,11.387-1.994,17.278-2.913C294.836,239.335,301.057,238.453,307.144,237.668"/>
	<path clip-path="url(#SVGID_2_)" fill="#C47947" d="M271.484,219.9c0.045,0.419,0.09,0.838,0.135,1.257
		c0.774,1.983,1.647,4.817,1.932,8.267c0.798,0.205,1.993,0.457,3.457,0.549c2.46,0.155,4.218-0.231,6.461-0.647
		c4.716-0.875,5.673-0.788,7.265-1.147c2.203-0.496,7.219-2.203,13.068-9.853c-0.01-1.731,0.026-3.393,0.097-4.967
		c-6.116,1.065-12.192,2.129-18.23,3.182C280.773,217.601,276.042,218.729,271.484,219.9"/>
	<path clip-path="url(#SVGID_2_)" fill="#E09A61" d="M310.48,208.023c-0.867,2.037-2.444,4.454-5.624,7.95
		c-3.338,3.653-5.177,5.676-8.515,7.608c-0.013,0-0.013,0.013-0.026,0.013c-0.197,0.118-0.394,0.237-0.604,0.355
		c-1.735,0.998-4.179,2.26-7.477,2.799c-2.405,0.394-3.022,0.249-8.16,0.814c-0.184,0.027-0.355,0.04-0.513,0.053
		c-1.248,0.144-1.984,0.21-2.483,0.236c-0.591,0.027-0.841,0.014-1.235-0.026c-2.208-0.197-3.89-1.406-8.291-5.913
		c-0.145-0.144-0.29-0.302-0.447-0.46c-0.237-0.249-0.474-0.486-0.684-0.709c-3.429-3.509-5.203-5.348-6.149-6.833
		c-2.392-3.693-3.535-7.162-4.1-9.5c-0.762-4.586-1.629-9.948-2.72-15.243c-0.815-3.929-1.511-9.237-1.169-15.466
		c0.289-5.124,1.195-9.487,2.154-12.877c2.694-4.586,14.652-3.692,23.456-4.954c8.882-1.274,20.485-5.597,24.401-1.866
		c4.48,5.48,9.447,17.66,8.528,27.726c0.315,5.558,0.854,11.103,1.301,15.847C312.701,203.858,311.163,206.407,310.48,208.023"/>
	<path clip-path="url(#SVGID_2_)" fill="#FFFFFF" d="M283.789,188.091c0.985,0.552,2.896,1.438,5.401,1.444
		c4.172,0.01,6.973-2.429,7.704-3.109c-1.566-1.353-3.32-2.219-5.05-2.588c-0.708-0.15-1.729-0.334-2.913-0.103
		C285.82,184.342,284.158,187.376,283.789,188.091"/>
	<path clip-path="url(#SVGID_2_)" fill="#8A5D3B" d="M285.421,186.525c0.246,1.802,2.267,3.052,4.016,2.818
		c1.816-0.239,3.457-2.112,3.011-4.001c-0.15-0.611-0.481-1.118-0.927-1.516c-0.575-0.117-1.138-0.181-1.697-0.183
		c-0.659,0.09-1.304,0.272-1.911,0.544c-0.338,0.146-0.643,0.321-0.931,0.503c-0.645,0.421-1.172,0.92-1.579,1.403
		C285.395,186.233,285.404,186.379,285.421,186.525"/>
	<path clip-path="url(#SVGID_2_)" d="M290.695,186.068c0.067,1.11-0.731,2.016-1.761,2.023c-1.01,0.007-1.866-0.855-1.931-1.925
		c-0.064-1.07,0.686-1.975,1.694-2.021C289.725,184.097,290.628,184.958,290.695,186.068"/>
	<path clip-path="url(#SVGID_2_)" fill="#FFFFFF" d="M291.376,185.334c0.025,0.422-0.282,0.771-0.683,0.78
		c-0.398,0.009-0.738-0.32-0.763-0.736c-0.025-0.417,0.274-0.765,0.672-0.78C291.003,184.583,291.351,184.913,291.376,185.334"/>
	<path clip-path="url(#SVGID_2_)" fill="#3B2314" d="M281.69,174.033c4.5,0.256,10.245,1.275,16.159,3.705
		c1.097,0.451,2.745,1.917,2.777,3.736c0.021,1.237-0.787,2.182-1.295,2.671c-0.607-0.684-1.562-1.656-2.876-2.602
		c-1.721-1.237-3.598-2.094-8.114-3.189c-2.078-0.503-4.705-1.054-7.694-1.451c0.031-0.289,0.086-0.615,0.182-0.968
		C281.049,175.119,281.398,174.478,281.69,174.033"/>
	<path clip-path="url(#SVGID_2_)" fill="#3B2314" d="M283.789,188.091c0.477-0.7,2.026-2.779,4.851-3.589
		c4.361-1.252,7.901,1.63,8.25,1.924c-2.999-3.323-7.255-4.221-10.102-2.525C284.796,185.087,284.042,187.22,283.789,188.091"/>
	<path clip-path="url(#SVGID_2_)" fill="#FFFFFF" d="M270.786,189.146c-0.642,0.599-4.424,4.019-9.341,3.236
		c-1.478-0.236-2.678-0.791-3.562-1.327c0.899-1.607,2.142-2.859,3.563-3.662c1.436-0.816,3.064-1.167,4.711-0.939
		c0.556,0.076,0.973,0.191,1.102,0.23C269.083,187.234,270.227,188.445,270.786,189.146"/>
	<path clip-path="url(#SVGID_2_)" fill="#8A5D3B" d="M267.228,188.612c0.366,1.899-1.278,3.666-3.065,3.841
		c-1.793,0.176-3.873-1.234-4.063-3.137c-0.061-0.611,0.082-1.185,0.359-1.677c1.435-0.816,3.061-1.166,4.708-0.939
		c0.383,0.046,0.752,0.132,1.101,0.231C266.743,187.379,267.097,187.946,267.228,188.612"/>
	<path clip-path="url(#SVGID_2_)" d="M261.05,189.624c0.293,1.09,1.336,1.776,2.328,1.532c0.994-0.246,1.562-1.331,1.268-2.422
		c-0.293-1.092-1.337-1.777-2.33-1.53C261.324,187.449,260.756,188.533,261.05,189.624"/>
	<path clip-path="url(#SVGID_2_)" fill="#FFFFFF" d="M263.772,188.507c0.11,0.411,0.503,0.669,0.876,0.576
		c0.374-0.092,0.587-0.5,0.476-0.911c-0.11-0.411-0.501-0.669-0.875-0.576C263.875,187.689,263.663,188.096,263.772,188.507"/>
	<path clip-path="url(#SVGID_2_)" fill="#3B2314" d="M268.563,176.978c-3.75,0.831-7.961,2.405-11.58,4.996
		c-0.626,0.448-1.396,1.733-1.08,3.171c0.212,0.969,0.889,1.678,1.299,2.044c0.264-0.557,0.705-1.366,1.401-2.188
		c0.941-1.111,2.099-1.953,5.246-3.249c1.545-0.636,3.61-1.398,6.14-2.094c-0.078-0.278-0.183-0.591-0.33-0.925
		C269.32,177.959,268.898,177.375,268.563,176.978"/>
	<path clip-path="url(#SVGID_2_)" fill="#3B2314" d="M270.786,189.146c-0.355-0.299-3.567-2.906-7.709-1.877
		c-3.173,0.788-4.812,3.192-5.191,3.782c0.19-0.69,0.968-3.199,3.306-4.46C264.048,185.051,268.093,185.99,270.786,189.146"/>
	<path clip-path="url(#SVGID_2_)" d="M250.364,150.712c3.132-3.188,11.64-10.977,25.062-13.262
		c4.32-0.735,20.246-3.598,32.521,7.132c14.518,12.689,11.822,33.422,11.545,34.562c-0.292,5.624-1.441,13.685-5.382,22.442
		c-1.855,4.127-3.938,7.711-5.94,10.529c0.474-1.107,1.056-2.893,1.417-4.985c0.387-2.235,0.308-3.887,0.204-6.247
		c-0.087-1.964-0.216-5.009-0.381-9.371c-0.603-0.101-2.467,0.397-2.479-0.214c-0.124-6.346-1.203-10.241-2.415-12.887
		c-1.461-3.191-3.101-4.648-4.559-8.576c-1.347-3.624-1.616-6.873-1.644-9.002c-4.82-1.839-14.023-4.58-25.495-3.193
		c-7.176,0.867-12.884,3.064-16.758,4.943c0.517,4.92-0.064,8.661-0.689,11.167c-0.97,3.883-2.454,6.434-2.454,10.923
		c0,2.357,0.41,4.28,0.744,5.51c-1.065-3.065-2.041-6.476-2.801-10.213C248.497,168.355,249.146,158.164,250.364,150.712"/>
	<path clip-path="url(#SVGID_2_)" fill="#C47947" d="M271.997,204.369c-0.03,0.166,0.899,0.496,2.791,0.989
		c1.734,0.614,3.668,0.408,5.221-0.559c1.738-0.883,2.573-1.403,2.505-1.559c-0.085-0.193-1.545,0.169-4.376,1.083
		c-0.535,0.133-1.088,0.192-1.64,0.176C273.533,204.207,272.034,204.164,271.997,204.369"/>
	<path clip-path="url(#SVGID_2_)" fill="#C47947" d="M275.206,216.163c2.037,0.137,4.209,0.283,6.828-0.379
		c3.691-0.935,7.183-3.2,6.921-3.949c-0.16-0.46-1.676-0.178-9.833,1.023c-8.416,1.24-10.437,1.475-10.437,1.939
		C268.685,215.468,272.896,216.007,275.206,216.163"/>
	<path clip-path="url(#SVGID_2_)" fill="#C47947" d="M275.529,219.436c-0.028,0.443,1.864,1.165,3.732,1.009
		c1.932-0.162,3.719-1.253,3.609-1.689c-0.117-0.467-2.412-0.254-3.729-0.131C277.831,218.746,275.559,218.957,275.529,219.436"/>
	<polygon clip-path="url(#SVGID_2_)" fill="#3B2314" points="276.21,208.241 276.405,210.47 264.941,211.305 	"/>
	<polygon clip-path="url(#SVGID_2_)" fill="#3B2314" points="278.543,208.061 278.738,210.292 292.477,209.244 	"/>
	<path clip-path="url(#SVGID_2_)" d="M249.765,160.78c22.458-1.631,44.561-3.236,66.317-4.816c-0.825-7.65-1.651-15.3-2.477-22.952
		c-21.152,1.236-42.634,2.492-64.451,3.768C249.359,144.778,249.562,152.778,249.765,160.78"/>
	<path clip-path="url(#SVGID_2_)" fill="#DC2428" d="M351.208,150.723l-2.302-6.524c-0.002,0-0.325,0.107-1.061,0.329
		c-0.733,0.221-1.845,0.546-3.321,0.949c-2.948,0.804-7.347,1.919-13.097,3.147c-11.405,2.437-28.035,5.295-49.041,7.031
		c-20.582,1.702-37.409,1.698-65.044-0.205l-0.583,6.425c27.974,2.021,45.145,2.117,66.064,0.456
		C325.991,158.905,350.955,150.805,351.208,150.723"/>
	<path clip-path="url(#SVGID_2_)" fill="#E09A61" d="M308.4,183.224c-0.066-1.897,1.622-3.559,3.608-3.337
		c4.751,0.531,2.859,10.999,1.616,15.133c-0.55,1.823-0.872,6.61-4.584,6.244L308.4,183.224z"/>
	<path clip-path="url(#SVGID_2_)" fill="#E09A61" d="M338.054,600.678c4.999,14.953,6.271,28.16,4.314,40.442
		c-4.097,25.715-19.683,44.802-26.283,69.905c-0.124,8.396,0.166,15.263,0.457,20.011c1.043,16.996,3.341,27.028-1.661,30.387
		c-1.569,1.054-3.461,1.184-5.088,1.298c-4.934,0.346-9.146-1.906-11.359-3.742c-6.799-5.644-5.266-16.738-4.588-27.059
		c0.412-6.271,0.691-11.336,1.481-14.434c-3.224-3.23-0.568-6.396,1.04-8.004c10.544-55.512-2.467-57.259,0.722-82.959
		c1.563-12.604,9.029-20.629,9.051-33.457c-0.765-9.212-11.053-26.981-5.784-44.583c-7.473-20.323-2.234-41.432-5.683-65.816
		c-1.114-7.901-3.064-17.507-4.817-25.009c-1.754,7.502-3.697,17.107-4.817,25.009c-3.442,24.385,1.797,45.493-5.676,65.816
		c5.268,17.602-5.021,35.371-5.785,44.583c0.022,12.828,7.48,20.854,9.045,33.457c3.187,25.7-9.816,27.447,0.72,82.959
		c1.608,1.608,4.264,4.773,1.041,8.004c1.087,3.993,1.166,8.569,1.627,14.118c0.609,7.343,1.02,13.984,0.262,18.954
		c-1.383,9.063-11.348,17.457-16.997,15.845c-7.085-2.022-7.441-19.686-7.461-21.324c-0.076-6.386,1.341-8.504,2.005-17.509
		c0.518-7.027,0.175-12.801-0.189-16.545c-6.599-25.104-22.193-44.19-26.282-69.905c-1.958-12.282-0.692-25.489,4.307-40.442
		c17.253-51.583-24.354-81.365-9.51-144.794l57.71,1.579l57.717-1.579C362.415,519.313,320.801,549.095,338.054,600.678"/>
	<path clip-path="url(#SVGID_2_)" fill="#E09A61" d="M391.012,303.274c-4.047,2.235-8.384,4.89-12.872,8.045
		c-6.324,4.446-11.662,8.979-16.09,13.194c-1.442-2.131-3.338-4.581-5.792-7.08c-2.731-2.78-5.426-4.88-7.724-6.437
		c-4.943,10.088-10.804,24.824-13.785,43.395c-3.301,20.551-1.81,37.903,0.119,49.576c-9.842,9.854-80.181,9.854-90.022,0
		c8.41-36.621-3.89-65.846-12.641-89.208c-0.679,8.361-1.544,16.985-2.626,25.852c-0.723,5.922-1.514,11.713-2.362,17.369
		c-5.814-1.064-11.96-2.38-18.38-4.011c-7.245-1.84-13.999-3.866-20.235-5.965c2.235-10.897,3.513-19.733,4.238-25.394
		c3.419-26.68,1.783-39.14,10.278-53.941c3.212-5.599,6.741-9.556,8.891-11.766c1.341-1.354,12.549-5.362,20.065-6.203
		c12.785-1.103,27.686-6.635,34.887-12.404l22.89,4.81l22.114-5.611c7.188,5.781,22.877,12.102,35.676,13.205
		c7.516,0.841,18.724,4.849,20.078,6.203c4.079,5.13,8.552,11.571,12.701,19.376C385.772,286.35,389.004,295.712,391.012,303.274"/>
	<path clip-path="url(#SVGID_2_)" fill="#C47947" d="M251.577,251.799c6.079-5.038,24.454-3.442,31.41,1.401L251.577,251.799z"/>
	<path clip-path="url(#SVGID_2_)" fill="#C47947" d="M328.135,251.799c-6.078-5.038-24.453-3.442-31.41,1.401L328.135,251.799z"/>
	<path clip-path="url(#SVGID_2_)" fill="#4D4D4D" d="M348.245,458.922c-2.566-16.567-5.793-39.959-13.849-57.108
		c-17.079,1.991-72.003,1.991-89.081,0c-8.055,17.149-11.283,40.541-13.848,57.108c18.373,1.773,41.128,1.218,58.389,1.217
		C307.117,460.14,329.872,460.695,348.245,458.922"/>
	<path clip-path="url(#SVGID_2_)" d="M342.506,403.495c-8.651-9.228-50.595,0-50.595,0h-2.933c0,0-41.944-9.228-50.596,0
		c-41.783,181.576,21.15,328.712,21.15,328.712h28.61l0.836-267.844h2.373l0.867,267.844h29.139
		C321.357,732.207,384.289,585.071,342.506,403.495"/>
	<polygon clip-path="url(#SVGID_2_)" fill="#DC2428" points="342.506,403.495 238.382,403.495 247.151,369.964 333.813,369.964 	"/>
	<path clip-path="url(#SVGID_2_)" fill="#BD1F22" d="M251.278,614.987c-28.887-116.063-8.253-211.493-8.253-211.493h41.287
		C284.313,403.494,289.708,576.558,251.278,614.987"/>
	<path clip-path="url(#SVGID_2_)" fill="#FFFFFF" d="M233.571,318.399c-0.087,5.726-0.261,11.572-0.536,17.534
		c-0.635,13.819,1.503,22.074,0.049,34.597c-0.82,0.691-14.593,12.008-28.506,8.775c-6.483-1.507-11.972-5.619-11.972-5.619
		c-0.029-0.021-0.057-0.042-0.085-0.064c-3.913-2.95-5.991-7.749-5.703-12.641c2.96-50.178,8.135-87.322,13.639-97.359
		c1.644-2.998,5.344-9.744,11.68-10.735c2.831-0.442,5.276,0.409,6.638,1.007L233.571,318.399z"/>
	<path clip-path="url(#SVGID_2_)" fill="#FFFFFF" d="M287.829,236.566c-4.062-4.281-20.937-2.812-20.937-2.812l-2.644,6.472
		l26.216,1.235C290.464,241.461,288.943,237.74,287.829,236.566"/>
	<path clip-path="url(#SVGID_2_)" fill="#FFFFFF" d="M291.883,236.566c4.062-4.281,20.938-2.812,20.938-2.812l3.407,6.66
		l-26.979,1.047C289.249,241.461,290.77,237.74,291.883,236.566"/>
	<polygon clip-path="url(#SVGID_2_)" fill="#FFFFFF" points="245.088,369.964 290.444,369.964 290.444,241.414 264.248,240.226 
		260.047,241.52 232.708,296.199 	"/>
	<path clip-path="url(#SVGID_2_)" fill="#FFFFFF" d="M410.04,327.256c2.356-9.056-1.33-16.556-2.37-18.513
		c-9.03-18.929-18.059-37.855-27.089-56.783c-7.753,1.242-15.506,2.484-23.259,3.726c-5.788,20.092-8.739,30.336-14.528,50.428
		c1.406,2.117,3.483,5.156,6.133,8.712c6.794,9.113,11.609,15.574,18.594,20.949c7.235,5.569,14.4,11.084,23.491,9.654
		C399.964,344.021,407.668,336.37,410.04,327.256"/>
	<polygon clip-path="url(#SVGID_2_)" fill="#FFFFFF" points="335.801,369.964 290.444,369.964 290.444,241.414 316.642,240.226 
		320.842,241.52 348.181,296.199 	"/>
	<rect x="288.402" y="243.116" clip-path="url(#SVGID_2_)" fill="#E2DCDC" width="2.173" height="126.848"/>
	<polygon clip-path="url(#SVGID_2_)" points="276.039,247.709 283.19,356.481 237.351,364.289 218.781,253.899 260.048,241.52 	"/>
	<polygon clip-path="url(#SVGID_2_)" points="304.85,247.709 297.699,356.481 343.538,364.289 362.107,253.899 320.841,241.52 	"/>
	<path clip-path="url(#SVGID_2_)" fill="#DD8D52" d="M277.079,227.852c-0.592,0.026-0.841,0.013-1.235-0.026
		c-2.208-0.197-3.89-1.406-8.292-5.913c1.893-0.736,4.534,0.473,5.979,1.471C275.238,224.553,276.368,226.156,277.079,227.852"/>
	<path clip-path="url(#SVGID_2_)" fill="#DD8D52" d="M295.711,223.949c-1.735,0.999-4.178,2.26-7.477,2.799
		c-2.404,0.394-3.022,0.249-8.16,0.815c-0.184,0.026-0.355,0.039-0.512,0.052c1.945-1.853,4.113-3.311,6.412-4.323
		c2.195-0.959,6.294-2.746,8.909-0.368C295.212,223.213,295.487,223.555,295.711,223.949"/>
	<path clip-path="url(#SVGID_2_)" fill="#FFFFFF" d="M231.596,376.175c11.021-9.398,29.647-38.797,43.818-72.784
		c4.203-10.079,9.308-17.664,3.379-26.088c-1.781-5.851-16.481-14.527-22.003-11.907c-11.361,5.39-26.177,32.694-43.571,56.75
		c-15.302,21.162-28.475,37.152-23.687,47.486c3.275,7.066,13.279,9.288,16.133,9.922
		C219.445,382.612,229.962,377.433,231.596,376.175"/>
	<path clip-path="url(#SVGID_2_)" fill="#DD955F" d="M300.929,247.865c-2.152,2.24-3.987,4.15-7.51,6.288
		c-1.352,0.82-3.295,1.883-5.784,2.863c-1.061,1.718-2.161,3.45-3.302,5.196c-3.032,4.639-6.104,8.991-9.168,13.066
		c-4.666-3.432-9.332-6.865-13.998-10.297c3.251-5.23,6.502-10.46,9.753-15.69c-1.498-5.067-1.053-8.741-0.727-11.995
		c0.07-0.699,0.453-2.422,0.144-4.668c-0.288-2.092-1.012-3.737-1.584-4.809c-0.196-0.12-1.42-1.012-1.745-2.62
		c-0.165-0.816,0.045-1.53,0.499-2.012c0.854-0.907,3.402,0.16,4.771,1.094c4.006,2.733,4.22,8.604,4.224,10.34
		c3.96-6.62,8.591-9.199,10.984-10.244c1.845-0.805,5.553-2.405,7.219-0.768c1.27,1.248,0.701,3.735,0.492,4.526
		c1.88,0.264,3.281,1.597,3.459,3.137c0.153,1.315-0.638,2.326-0.844,2.575c0.533,0.1,1.517,0.367,2.413,1.166
		c0.363,0.324,1.735,1.547,1.568,3.299c-0.103,1.076-0.734,1.81-1.006,2.091c0.367-0.005,1.102,0.044,1.689,0.544
		c1.029,0.876,0.816,2.458,0.745,2.996C303,245.59,302.016,246.734,300.929,247.865"/>
	<path clip-path="url(#SVGID_2_)" fill="#FFFFFF" d="M297.699,266.28c-23.041-18.699-37.147-26.017-42.322-21.956
		c-3.491,2.741-2.915,10.662,1.726,23.763l21.451,11.33c1.7,0.083,6.48,0.093,11.301-3
		C295.285,272.933,297.194,267.804,297.699,266.28"/>
	<path clip-path="url(#SVGID_2_)" fill="#E09A61" d="M233.414,360.842l-0.447-0.131
		C233.164,360.763,233.309,360.816,233.414,360.842"/>
	<path clip-path="url(#SVGID_2_)" fill="#FFFFFF" d="M366.915,329.651c-10.24-10.216-30.741-45.096-37.935-81.148
		c-1.756-8.801-6.098-17.341,0.252-26.996c5.871-5.112,14.619-10.95,23.848-9.432c12.785,2.104,16.044,16.615,36.641,59.305
		c16.829,34.881,25.77,48.234,19.194,57.914c-4.767,7.016-15.163,8.385-16.6,8.587C378.505,339.83,368.442,331.032,366.915,329.651"
		/>
	<path clip-path="url(#SVGID_2_)" fill="#FFFFFF" d="M313.134,207.061c24.015-16.764,38.437-22.922,43.268-18.474
		c3.26,3.001,2.153,10.831-3.319,23.488l-21.944,9.563c-1.684-0.052-6.402-0.421-10.951-3.878
		C315.064,213.866,313.528,208.617,313.134,207.061"/>
	<path clip-path="url(#SVGID_2_)" fill="#C47947" d="M294.496,228.532c-2.575,1.572-4.597,3.141-6.841,5.154
		C288.614,230.844,291.489,228.648,294.496,228.532"/>
	<path clip-path="url(#SVGID_2_)" fill="#C47947" d="M300.589,240.226c-2.574,1.572-4.597,3.141-6.841,5.154
		C294.708,242.538,297.583,240.342,300.589,240.226"/>
	<path clip-path="url(#SVGID_2_)" fill="#C47947" d="M297.559,233.968c-2.806,1.109-5.065,2.309-7.622,3.908
		C291.369,235.241,294.578,233.568,297.559,233.968"/>
	<path clip-path="url(#SVGID_2_)" fill="#483291" d="M404,509.2c2.7-30-17.1-73.7-51.9-75.5c-7.399-0.4-13,0.7-11.5,9
		c1,5.7,4.101,11,7.601,15.7c9,12.3,20.1,19.6,31.6,29.3c5.101,4.399,10,8.6,15.3,12.7c1.801,1.399,3.101,3,4.5,4.699
		c1,1.101,4,5.5,3.801,4.5l0.699-0.399H404z"/>
	<path clip-path="url(#SVGID_2_)" fill="#21263D" d="M408.3,540.3c-0.2,0-0.5-0.2-0.5-0.399v-1.2c-0.2-3.601-0.7-14.4-4.8-29
		c-7.8-27.4-21.6-43.101-42.9-61.101c-0.199-0.199-0.199-0.5,0-0.699c0.2-0.2,0.5-0.2,0.601,0c21.399,18,35.399,34,43.1,61.6
		c2.8,9.5,4.4,19.3,4.9,29.2v1.1C408.7,540.1,408.6,540.3,408.3,540.3"/>
	<path clip-path="url(#SVGID_2_)" fill="#D9CCFF" d="M397.4,335.7c3.899,7.2-2.101,14.7-1.7,22.1c1.2,20.601,36.5,17.601,32.6,39.5
		c-0.8,4.4-3.5,8.3-6.5,11.5c-2.3,2.7-6.8,5.4-7.5,9.2c-1.3,7.3,9.4,11.9,13.3,16.4c5.601,6.8,7.5,16,1.801,23.399
		c-5.5,7-6.101,5.8-5.4,15.7c0.6,8.8-1.2,27-7.4,34.8c-7.6-38.8-20-33.8-34.899-35.1c-8.2-0.7-18.5-7-16.4-15.4
		c2.2-8.8,2.7-11,7.4-18c6.3-9.3-4-14.5-11.7-16.399c-10-2.601-11.6-5.301-14.4-16.7c-1.3-5-0.399-10,2.2-14.3
		c2.8-4.9,8.601-7,11.5-11.601c5.4-8.5-8.2-11.6-13.3-15.1c-5.6-4-7.5-8.9-5-15.3c1.2-3,3-5.5,5.7-7.101c2-1.2,6.2-1.3,7.5-3.3
		c1-1.6-0.7-5.4-0.4-7.5c0.2-2.6,1.3-5.1,3.2-7c5.7-5.1,13,1.9,19.3,2.6C384.7,329,393.3,327.9,397.4,335.7"/>
	<path clip-path="url(#SVGID_2_)" fill="#21263D" d="M412,539.2h-0.1c-0.301,0-0.5-0.3-0.4-0.601c4.8-17.699,5.3-39.6,5-46.5
		c-0.7-20.6-4.9-42-12.5-63.8c-7.4-23.2-17-45.6-28.6-67c-0.101-0.3,0-0.5,0.199-0.7c0.2-0.1,0.5,0,0.601,0.2
		c11.6,19.7,20.2,43,28.6,67.2c7.4,20.6,11.7,42.2,12.601,64c0.3,7-0.2,29-5,46.8C412.4,539.1,412.2,539.2,412,539.2"/>
	<path clip-path="url(#SVGID_2_)" fill="#21263D" d="M385,379.2c-0.3,0-0.5-0.3-0.4-0.601c1-4,1.801-9.699,2.4-16.199
		c0-0.301,0.2-0.5,0.5-0.4c0.3,0,0.4,0.2,0.4,0.5c-0.5,5.5-1.301,10.9-2.4,16.3c0,0.2-0.2,0.4-0.4,0.4 M390.4,392l-0.301-0.1
		l-7.3-4.4c-3.3-2-6.2-3.9-10-5.5c-0.2-0.1-0.399-0.4-0.3-0.6c0.1-0.301,0.4-0.4,0.6-0.301c3.601,1.601,7,3.5,10.2,5.7l7.3,4.3
		c0.2,0.2,0.2,0.5,0,0.7c0,0-0.1,0.101-0.199,0.101 M398.4,411.9c-0.301,0-0.5-0.301-0.4-0.601l2-8.2l2-9c0.1-0.199,0.4-0.3,0.6-0.3
		c0.301,0.101,0.4,0.3,0.4,0.601l-2.2,9l-1.899,8.1C398.9,411.8,398.7,411.9,398.4,411.9 M400.6,417.7L400.4,417.6
		c-2-1.199-5-2.5-8.301-4c-3.399-1.399-7-2.899-9.899-4.6c-0.3-0.1-0.4-0.3-0.4-0.6c0.101-0.301,0.3-0.4,0.601-0.4
		c0.1,0,0.199,0.1,0.3,0.2c2.899,1.7,6.399,3.2,9.8,4.6c3.2,1.4,6.3,2.8,8.3,4c0.3,0.101,0.3,0.4,0.2,0.7L400.6,417.7 M408.5,440.3
		h-0.2c-0.2-0.1-0.399-0.399-0.3-0.6c2-5,3-7.4,5-11.9l1-2.399c0.1-0.301,0.4-0.4,0.6-0.301c0.301,0.101,0.4,0.4,0.301,0.601l-1,2.5
		c-1.801,3.899-3.5,7.899-5,11.899L408.5,440.3 M411.5,452.5h-0.3l-8.101-5.2c-3.899-2.399-6.699-4.1-9.699-6.6
		c-0.301-0.101-0.4-0.4-0.301-0.601c0.101-0.3,0.4-0.399,0.601-0.3c0.1,0,0.2,0.101,0.3,0.3c3,2.4,5.7,4.101,9.5,6.5
		c2.3,1.4,5,3,8.2,5.2c0.2,0.101,0.3,0.4,0.1,0.601L411.5,452.5 M415,470.2h-0.3c-0.2-0.101-0.3-0.4-0.2-0.601
		c1.3-3.199,3.3-6.699,5-9.699c1.1-2,2.2-3.801,2.9-5.301c0-0.199,0.399-0.3,0.6-0.199c0.2,0.1,0.3,0.399,0.2,0.6
		c-0.9,1.8-1.9,3.6-3,5.4c-1.601,3-3.601,6.399-4.9,9.5C415.3,470.1,415.1,470.2,415,470.2"/>
	<path clip-path="url(#SVGID_2_)" fill="#483291" d="M419.6,509.2c-2.699-30,17.2-73.7,52-75.5c7.301-0.4,12.9,0.7,11.4,9
		c-1,5.7-4,11-7.5,15.7c-9,12.3-20.2,19.6-31.6,29.3c-5.2,4.399-10,8.6-15.301,12.7c-1.8,1.399-3.199,3-4.6,4.699
		c-0.9,1.101-4,5.5-3.7,4.5L419.6,509.2z"/>
	<path clip-path="url(#SVGID_2_)" fill="#21263D" d="M415.4,540.3c0.199,0,0.399-0.2,0.399-0.399v-1.2c0.3-3.601,0.8-14.4,4.9-29
		c7.7-27.4,21.6-43.101,42.8-61.101c0.1-0.199,0-0.5-0.2-0.699c-0.1-0.101-0.3-0.101-0.399,0c-21.4,18-35.301,34-43,61.6
		c-2.9,9.9-4.601,20-5,30.3C414.9,540.1,415.1,540.3,415.4,540.3"/>
	<polygon clip-path="url(#SVGID_2_)" fill="#FDFFFF" points="427.5,568 396.8,568 385.1,521.4 439.3,521.4 	"/>
	<path clip-path="url(#SVGID_2_)" fill="#2A1969" d="M427.6,568l-30.8,0.1h-0.2L384.7,521.5L384.6,521H412l27.2-0.1h0.6l-0.1,0.6
		l-3,11.6l-3,11.7l-3,11.601l-3.2,11.6H427.6z M427.6,568l2.7-11.7l2.8-11.7L435.9,532.9L438.8,521.3l0.5,0.601h-27.1L385.1,521.8
		l0.301-0.5L397,568l-0.2-0.1l30.7,0.1H427.6z"/>
</g>
<g>
	<defs>
		<path id="SVGID_3_" d="M164.2,13.3c-3.8,3.2-6.6,7.4-8.1,12.1c-13.5-12.3-34.1-13.8-46.5-3.2c-3.7,3.2-6.5,7.3-7.9,12
			c-19.3-11-43.4-10.3-59,3c-16.5,14.3-17.9,38.2-4.6,57.1c-6.6,0.5-13,2.8-18,7c-12.6,11-12,30.4,1.5,43.4
			c4.5,4.3,9.8,7.4,15.3,9.2c-1.9,0.9-3.8,2.1-5.4,3.5c-11.7,10.1-11,28,1.4,40.2c12.5,12,32.1,13.7,43.8,3.6c2.7-2.2,4.8-5,6.3-8.2
			c22.4,17.1,53,18.8,71.6,2.9c13.2-11.4,17-29,11.7-45.9c7.5,1.7,15.4-0.1,21.4-5c3.9-3.4,6.4-8.1,6.9-13.3
			c11.1,1.8,22.5-1.2,31.3-8.3C241.3,109.9,240.5,86,224,70c-3.2-3-6.7-5.6-10.6-7.7l0.8-0.7c13-11.1,12.3-31-1.5-44.4v0.1
			c-7.665-7.497-17.897-11.394-27.683-11.394C177.311,5.905,169.883,8.322,164.2,13.3"/>
	</defs>
	<clipPath id="SVGID_4_">
		<use xlink:href="#SVGID_3_"  overflow="visible"/>
	</clipPath>
	
		<radialGradient id="SVGID_5_" cx="0" cy="574.5" r="1" gradientTransform="matrix(124.5195 -107.0827 220.2457 213.2911 -126392.9297 -122415.3203)" gradientUnits="userSpaceOnUse">
		<stop  offset="0" style="stop-color:#FFFFFF"/>
		<stop  offset="0.3" style="stop-color:#FBFDFE"/>
		<stop  offset="0.6" style="stop-color:#F1F8F9"/>
		<stop  offset="0.9" style="stop-color:#DEEFF2"/>
		<stop  offset="1" style="stop-color:#D3EAED"/>
	</radialGradient>
	<polygon clip-path="url(#SVGID_4_)" fill="url(#SVGID_5_)" points="117.466,318.294 353.91,114.959 131.334,-100.588 
		-105.11,102.746 	"/>
</g>
<g>
	<defs>
		<rect id="SVGID_6_" width="594" height="574.5"/>
	</defs>
	<clipPath id="SVGID_7_">
		<use xlink:href="#SVGID_6_"  overflow="visible"/>
	</clipPath>
	<path clip-path="url(#SVGID_7_)" fill="#2A1969" d="M212.6,17.4c-1-1-2-2-3.2-2.8c-1.1-0.8-2.2-1.7-3.5-2.4l-1.8-1.1l-1.9-1
		l-3.9-1.6l-2-0.7l-2-0.5c-1.4-0.3-2.8-0.7-4.2-0.8l-2-0.3h-6.4l-2.1,0.4l-1,0.1c-0.4,0-0.7,0.2-1,0.3l-2.1,0.5l-2,0.7l-1,0.3
		l-1,0.4l-1.9,1l-1.8,1l-0.9,0.6l-0.8,0.6l-1.7,1.3L163,15c-2.9,3-5.1,6.7-6.4,10.7l-0.2,0.5l-0.5-0.4l-3.1-2.5l-3.4-2.2l-1.7-1
		l-1.9-0.8c-1.2-0.6-2.5-1-3.7-1.5l-2-0.6l-1.9-0.5c-1.3-0.2-2.6-0.5-4-0.6l-2-0.2h-4l-2,0.2l-2,0.3l-0.9,0.1l-1,0.3l-1.9,0.5
		l-1.9,0.7l-0.9,0.3l-0.9,0.5l-1.8,0.8c-1,0.8-2.3,1.3-3.3,2.2L110,23l-1.5,1.4c-1.4,1.4-2.6,3-3.6,4.7l-1,1.7l-1.4,3.7l-0.3,0.9
		l-0.9-0.5l-3.4-1.7l-3.6-1.6l-3.6-1.3l-3.8-1c-1.2-0.4-2.5-0.6-3.7-0.8l-3.9-0.6c-2.5-0.3-5.1-0.4-7.7-0.3l-3.8,0.2l-3.9,0.6
		l-3.7,0.8c-1.3,0.3-2.5,0.8-3.7,1.2l-3.6,1.4l-3.4,1.8l-3.2,2l-3,2.4l-2.9,2.7l-2.5,2.9l-2.2,3.1l-1.9,3.4l-1.5,3.5l-1.2,3.7
		l-0.8,3.8L30.1,63l-0.2,2c-0.3,5.1,0.3,10.1,1.8,15l0.6,1.9l0.7,1.8l1.6,3.5l1.8,3.5l2.1,3.3l0.4,0.6h-0.7L35.5,95l-2.6,0.4
		c-1.7,0.4-3.4,0.9-5.1,1.6l-1.2,0.6l-1.2,0.6l-1.2,0.6l-1.1,0.8c-0.8,0.4-1.5,1-2.2,1.5l-0.5,0.4l-0.5,0.5l-1,1
		c-0.6,0.5-1.2,1.2-1.7,2l-0.9,1l-0.7,1l-0.7,1.2c-0.3,0.3-0.4,0.8-0.6,1.2c-0.4,0.8-0.9,1.5-1.1,2.4c-0.7,1.6-1.1,3.4-1.4,5.1
		l-0.3,2.7v2.7l0.2,2.6c0,1,0.3,1.8,0.4,2.7c0.5,1.7,1,3.4,1.7,5l0.5,1.3l0.6,1.2l1.3,2.3l1.5,2.2l1.7,2.1c1.2,1.4,2.4,2.7,3.8,3.9
		l2,1.7l2.2,1.5c3,2,6.3,3.6,9.7,4.7l0.7,0.2l-0.7,0.4l-3,1.7l-2.6,2.1c-0.8,0.8-1.7,1.6-2.4,2.5l-1,1.3l-1,1.4l-1.5,3
		c-0.3,0.5-0.4,1-0.6,1.6l-0.5,1.6c-0.3,1-0.6,2.2-0.7,3.3l-0.2,1.7v1.7l0.1,1.6l0.2,1.7l0.3,1.7c0,0.5,0.2,1.1,0.4,1.6l1,3.2
		l0.7,1.6l0.8,1.5c1,2,2.4,3.8,3.8,5.6l2.3,2.5l2.6,2.2l2.7,2l3,1.7l3,1.4c1,0.4,2.1,0.9,3.2,1.2l1.6,0.4l1.7,0.4
		c1,0.3,2.2,0.4,3.3,0.5l0.8,0.1H56l1.7,0.1c1.1,0,2.2,0,3.3-0.2c2.3-0.3,4.5-0.6,6.6-1.4l1.6-0.6l1.5-0.7c1-0.4,2-1,2.9-1.6l1.3-1
		l1.3-1l1.3-1.2l0.6-0.6l0.5-0.7l1-1.2l1-1.4l0.4-0.7l0.4-0.7l0.8-1.5l0.4-1l0.8,0.7c2.2,1.4,4.3,3,6.6,4.3l3.4,1.9l3.6,1.7l3.6,1.5
		l3.7,1.3l1.9,0.5l1.9,0.5c1.3,0.3,2.5,0.7,3.8,0.8l3.9,0.6l3.9,0.3c2.6,0.1,5.2,0.2,7.8-0.1l2-0.2l1.9-0.3c1.3-0.3,2.6-0.4,3.8-0.8
		l1.9-0.5l1.9-0.5l3.6-1.4l3.5-1.7c1.2-0.6,2.2-1.3,3.3-2l0.9-0.5l0.7-0.6l1.6-1.2l1.5-1.2l1.4-1.3l1.4-1.4l1.3-1.4l1.2-1.6l1.1-1.5
		l1-1.7l1-1.6c3.2-5.7,4.9-12.1,5-18.6c0.1-5.2-0.7-10.4-2.3-15.4l-0.4-1.5l1.6,0.2l2.3,0.4l2.3,0.1h2.3c0.7,0,1.5,0,2.3-0.2
		l2.2-0.4l2.2-0.7l2.1-0.8l2-1.1l1.9-1.3l0.9-0.7l0.8-0.8l1.6-1.6l1.3-1.8c0.3-0.7,0.8-1.3,1-2l1-2.1l0.5-2.2l0.4-2.2l0.2-1h1
		c4.3,0.6,8.6,0.6,12.9,0c6.5-1,12.5-3.7,17.6-7.8l2.3-2.3l1.1-1.2l1-1.2l0.6-0.6l0.4-0.7l0.9-1.4l1.6-2.8l0.7-1.5l0.5-1.5l0.6-1.5
		l0.4-1.6l0.4-1.6l0.2-1.6l0.3-3.2c0.1-2.2,0-4.4-0.4-6.6l-0.6-3.2l-0.9-3.1l-1.2-3c-0.4-1.1-1-2-1.4-3l-1.7-2.9l-0.9-1.4l-1-1.3
		l-1-1.3l-1-1.2l-2.3-2.5l-2.4-2.2l-2.6-2l-2.7-2l-2.8-1.7l-0.5-0.2l0.4-0.3c0.9-0.5,1.6-1.3,2.4-2l2.1-2.4l0.5-0.6l0.5-0.7l0.8-1.3
		l0.8-1.4l0.7-1.4c0.5-1,0.8-2,1.1-3l0.8-3l0.4-3.2v-3.2l-0.1-1.6l-0.2-1.6l-0.3-1.5l-0.2-0.8l-0.2-0.8l-0.4-1.5l-0.2-0.8l-0.3-0.7
		l-0.6-1.5l-0.3-0.7l-0.4-0.8l-0.7-1.4l-0.8-1.4c-0.6-0.8-1.1-1.8-1.8-2.6l-2-2.5L212.6,17.4z M212.8,17.2l2.2,2.3l2,2.5l1.8,2.7
		l0.8,1.4l0.8,1.4l0.3,0.7L221,29l0.6,1.5l0.3,0.7l0.3,0.8l0.4,1.5l0.3,0.8l0.1,0.8l0.3,1.6l0.2,1.6l0.2,1.6V43l-0.4,3.2l-0.8,3.1
		l-1,3l-0.8,1.5l-0.8,1.4l-0.9,1.4l-0.4,0.7l-0.5,0.6c-0.7,0.8-1.3,1.7-2.1,2.4c-0.8,0.8-1.5,1.6-2.4,2.2V62l2.8,1.7l2.8,1.9l2.7,2
		l2.5,2.3l2.3,2.4l1,1.3l1.1,1.3l1,1.3l1,1.4c0.6,1,1.3,1.9,1.8,2.9l1.5,3l1.3,3.1l1,3.2l0.6,3.3c0.4,2.3,0.6,4.5,0.5,6.8l-0.2,3.4
		L237,105l-0.3,1.6l-0.4,1.7l-0.6,1.6l-0.5,1.6l-0.7,1.5c-0.6,1-1,2.1-1.7,3l-0.9,1.5l-0.4,0.7l-0.6,0.7l-1,1.3l-1.2,1.3l-2.4,2.4
		c-5.2,4.5-11.6,7.4-18.4,8.4c-4.5,0.7-9,0.8-13.6,0.1l1.2-0.9l-0.4,2.5l-0.7,2.4c-0.2,0.8-0.6,1.6-1,2.3c-0.2,0.8-0.7,1.5-1.1,2.2
		l-1.5,2c-0.6,0.7-1.1,1.4-1.7,1.9l-0.9,0.8l-1,0.8l-2,1.4L183,149l-2.3,1l-2.4,0.6c-0.8,0.3-1.6,0.3-2.4,0.5
		c-0.9,0.2-1.7,0.2-2.5,0.2l-1.2,0.1h-1.3c-0.8,0-1.6,0-2.4-0.2l-2.5-0.3l1.2-1.4c1.6,5.2,2.3,10.6,2.3,16c-0.1,5.5-1.2,10.9-3.3,16
		l-1.8,3.6l-1,1.8l-1.2,1.7l-1.2,1.6l-1.2,1.6l-1.4,1.5l-1.5,1.5l-1.4,1.3l-1.6,1.3l-1.7,1.3l-0.8,0.6l-0.8,0.5
		c-1.2,0.7-2.3,1.5-3.5,2.1l-3.7,1.8l-3.8,1.4l-2,0.5l-2,0.5c-1.2,0.4-2.6,0.6-3.9,0.8l-2,0.3l-2,0.2c-2.7,0.2-5.4,0.3-8.1,0.2
		l-4-0.4l-4-0.6c-1.4-0.2-2.6-0.6-4-0.9l-2-0.5l-1.8-0.6l-3.9-1.3l-3.7-1.5c-2.4-1.2-4.8-2.3-7.1-3.8c-2.4-1.3-4.5-3-6.7-4.5
		l1.3-0.3l-0.8,1.6l-0.4,0.7l-0.5,0.8l-1,1.5l-1.2,1.4l-0.6,0.6l-0.6,0.6l-1.3,1.2l-1.4,1.1l-1.4,1c-1,0.7-2,1.3-3.1,1.8l-1.7,0.7
		l-1.6,0.6c-2.3,0.8-4.6,1.3-7,1.5l-3.4,0.1h-1.8l-0.9-0.1l-0.8-0.1c-1.2-0.2-2.4-0.3-3.5-0.6l-1.7-0.4l-1.7-0.5l-3.3-1.2l-3.1-1.5
		l-3-1.8l-2.9-2c-0.9-0.8-1.7-1.6-2.6-2.4l-2.4-2.6c-1.5-1.8-2.7-3.7-3.8-5.8l-0.8-1.5l-0.7-1.7c-0.5-1-0.8-2.2-1.1-3.3l-0.4-1.7
		l-0.3-1.7l-0.1-1.8l-0.1-1.7v-1.8l0.2-1.7c0.1-1.2,0.4-2.3,0.7-3.5l0.6-1.6l0.6-1.7c0.5-1,1-2,1.7-3l1-1.5l1-1.4
		c0.8-1,1.7-1.6,2.5-2.4l2.8-2.2l3-1.7v0.6c-3.5-1.1-6.7-2.7-9.8-4.7l-2.2-1.6l-2-1.7c-1.4-1.2-2.7-2.6-3.9-4l-1.7-2l-1.5-2.4
		c-0.5-0.7-1-1.5-1.3-2.3l-0.7-1.3l-0.5-1.2c-0.7-1.7-1.3-3.4-1.7-5.2L11,125l-0.2-2.7v-2.8l0.3-2.7c0.3-1.8,0.8-3.6,1.4-5.3
		l1.1-2.5l0.7-1.2l0.7-1.1l0.7-1.2l1-1c1.7-2.1,3.7-4,6-5.5l1.1-0.8l1.2-0.7l1.2-0.6l1.3-0.6c1.7-0.7,3.4-1.3,5.2-1.7l2.7-0.5
		l2.7-0.3l-0.3,0.7l-2.2-3.3l-2-3.5L32,84.1l-0.7-1.9l-0.6-1.9c-1.6-5.1-2.3-10.4-2.1-15.7c0-0.6,0-1.3,0.2-2l0.2-2
		c0.1-1.2,0.5-2.5,0.8-3.8l1.1-3.9l1.6-3.7l1.9-3.5l2.3-3.3l2.6-3l2.8-2.8l3.2-2.5l3.4-2.1l3.5-1.9l3.7-1.5c1.3-0.4,2.5-0.9,3.8-1.2
		l4-1l3.9-0.5c1.3,0,2.6-0.3,4-0.3c2.6,0,5.3,0,8,0.3l3.9,0.6l3.9,0.9l3.8,1l3.7,1.5l3.7,1.6l3.5,1.8l-1.2,0.5
		c1.3-4,3.6-7.7,6.5-10.7l1.5-1.4l1.7-1.3l0.8-0.6c0.3-0.3,0.6-0.4,1-0.6l1.7-1l2-1l0.9-0.4l1-0.4l2-0.6l2-0.5l1-0.3l1-0.1l2-0.3
		l2.1-0.1h4.1l2.1,0.2c1.4,0.1,2.7,0.5,4,0.7l2,0.6l2,0.6l3.9,1.6l1.8,0.9l1.8,1l3.4,2.3l3.2,2.7l-0.7,0.1c1.6-4.7,4.5-8.9,8.3-12.2
		l1.7-1.3l1-0.6l0.8-0.6l1.9-1l2-1l0.9-0.4l1-0.4l2-0.6l2.1-0.5l1-0.3l1.1-0.1l2.1-0.3l2.2-0.1h4.2l2.2,0.4c1.4,0,2.8,0.5,4.2,0.7
		l2,0.6l2,0.7c1.3,0.6,2.7,1,4,1.7l1.8,1l1.9,1l3.5,2.5L212.8,17.2z"/>
	<path clip-path="url(#SVGID_7_)" fill="#FFFFFF" d="M205.4,181.9c6.4,3.5,8.9,10.7,5.5,16.1s-11.3,7-17.7,3.5
		c-6.4-3.5-9-10.8-5.6-16.2C191,179.9,198.9,178.3,205.4,181.9 M228.1,211.3c-1,3.7-4.8,6-8.5,5c-3.8-0.7-6.3-4.4-5.5-8.2V208
		c1-3.7,4.8-6,8.5-5h0.1C226.5,203.8,228.9,207.5,228.1,211.3"/>
	<path clip-path="url(#SVGID_7_)" fill="none" stroke="#2A1969" stroke-width="3" stroke-miterlimit="10" d="M76,573h399.2
		 M484.2,573H518"/>
</g>
</svg>
