<?xml version="1.0" encoding="utf-8"?>
<!-- Generator: Adobe Illustrator 16.0.0, SVG Export Plug-In . SVG Version: 6.00 Build 0)  -->
<!DOCTYPE svg PUBLIC "-//W3C//DTD SVG 1.1//EN" "http://www.w3.org/Graphics/SVG/1.1/DTD/svg11.dtd">
<svg version="1.1" id="Layer_1" xmlns="http://www.w3.org/2000/svg" xmlns:xlink="http://www.w3.org/1999/xlink" x="0px" y="0px"
	 width="176px" height="159px" viewBox="0 0 176 159" enable-background="new 0 0 176 159" xml:space="preserve">
<path fill="#7382EF" d="M84.5,159c19.055,0,34.5-2.686,34.5-6s-15.445-6-34.5-6c-19.054,0-34.5,2.686-34.5,6S65.446,159,84.5,159z"
	/>
<path fill="#FDFFFC" d="M124.953,8.053c0.425,3.529-2.076,7.634-6.428,9.779c-2.373,1.171-5.17,1.148-7.484-0.132
	c-3.201-1.773-5.305-4.892-5.495-8.282c-0.179-3.18,1.325-6.628,4.095-8.289C115.036-2.104,124.229,2.041,124.953,8.053z"/>
<path fill="#AEB4FC" d="M112.6,8.44c0.359,1.112,0.793,2.198,1.299,3.25c0.252,0.527,0.524,1.047,0.814,1.555
	c0.235,0.413,0.494,0.816,0.814,1.168c0.584,0.638,1.437,1.051,2.289,0.7c0.797-0.329,1.324-1.165,1.5-1.983
	c0.205-0.94,0.014-1.964-0.441-2.804c-0.471-0.866-1.238-1.528-2.156-1.884c-0.917-0.355-2-0.406-2.919-0.027
	c-0.991,0.409-1.479,1.336-1.835,2.292c-0.38,1.02-0.605,2.182-0.279,3.248c0.256,0.832,0.861,1.59,1.687,1.911
	c0.204,0.08,0.419,0.124,0.638,0.143c0.1,0.008,0.108-0.12,0.047-0.167c-0.514-0.39-1.025-0.78-1.537-1.169c0,0.052,0,0.104,0,0.156
	c1.166-0.501,2.316-1.194,3.047-2.262c0.621-0.909,0.822-2.094,0.431-3.137c-0.206-0.547-0.572-1.015-1.082-1.306
	c-0.039-0.022-0.104-0.013-0.124,0.031c-0.747,1.664-0.217,3.723,1.111,4.937c0.373,0.341,0.804,0.605,1.277,0.782
	c0.016-0.058,0.031-0.115,0.049-0.174c-0.924-0.327-1.85-0.652-2.771-0.979c-0.803-0.284-1.637-0.528-2.412-0.887
	c-0.622-0.288-1.261-0.716-1.441-1.418c-0.205-0.796,0.256-1.606,0.861-2.094c0.655-0.529,1.496-0.801,2.292-1.04
	c0.89-0.266,1.81-0.454,2.739-0.481c1.554-0.046,3.15,0.4,4.283,1.503c0.265,0.256,0.498,0.544,0.687,0.861
	c0.188,0.315,0.509,0.836,0.188,1.162c-0.26,0.265-0.719,0.317-1.061,0.402c-0.455,0.114-0.914,0.223-1.376,0.315
	c-1.666,0.333-3.452,0.421-4.997-0.401c-0.63-0.336-1.191-0.81-1.57-1.418c-0.224-0.362-0.412-0.785-0.402-1.217
	c0.009-0.377,0.193-0.713,0.459-0.971c0.949-0.922,2.615-0.988,3.764-0.435c0.559,0.27,1.039,0.714,1.25,1.309
	c0.24,0.678,0.1,1.411-0.257,2.022c-0.866,1.487-2.596,1.896-4.198,1.977c-0.425,0.021-0.848,0.024-1.271,0.026
	c-0.032,0-0.062,0.018-0.078,0.045c-0.298,0.525,0.206,1.055,0.61,1.342c0.578,0.409,1.209,0.743,1.867,1.004
	c0.647,0.256,1.328,0.442,2.02,0.536c0.641,0.088,1.367,0.086,1.923-0.291c0.501-0.341,0.838-0.973,0.642-1.578
	c-0.015-0.046-0.062-0.077-0.109-0.063c-0.448,0.131-0.828,0.393-1.194,0.675c-0.389,0.3-0.772,0.596-1.204,0.835
	c-0.855,0.477-1.83,0.77-2.816,0.742c-1.711-0.049-3.479-1.298-3.625-3.102c-0.039-0.484,0.045-0.995,0.312-1.407
	c0.267-0.415,0.71-0.661,1.183-0.771c0.933-0.216,1.912,0.069,2.713,0.549c0.412,0.246,0.791,0.545,1.137,0.878
	c0.316,0.306,0.582,0.679,0.938,0.943c0.389,0.292,0.815,0.291,1.269,0.156c0.511-0.153,1.015-0.341,1.51-0.539
	c0.987-0.393,1.965-0.85,2.875-1.4c0.351-0.213,0.679-0.487,0.78-0.903c0.1-0.406-0.027-0.825-0.211-1.188
	c-0.203-0.408-0.491-0.769-0.781-1.119c-0.277-0.334-0.579-0.658-0.945-0.896c-0.38-0.246-0.813-0.363-1.265-0.33
	c-0.522,0.039-1.013,0.234-1.511,0.384c-0.414,0.124-0.855,0.205-1.287,0.126c-0.227-0.04-1.09-0.384-0.582-0.638
	c0.167-0.083,0.357-0.085,0.537-0.073c0.246,0.016,0.49,0.05,0.729,0.102c0.436,0.092,0.857,0.238,1.258,0.434
	c1.648,0.805,2.789,2.397,2.883,4.245c0.05,0.93-0.159,1.876-0.633,2.683c-0.442,0.75-1.113,1.347-1.894,1.728
	c-0.769,0.377-1.649,0.544-2.501,0.435c-0.398-0.052-1-0.14-1.012-0.649c-0.008-0.382,0.277-0.746,0.633-0.86
	c0.525-0.17,1.094,0.032,1.591,0.208c0.11,0.039,0.151-0.129,0.048-0.174c-1.199-0.5-2.451-0.857-3.668-1.308
	c-1.191-0.442-2.382-0.985-3.32-1.86c-1.071-1-1.631-2.352-1.974-3.75c-0.274-1.119-0.813-3.011,0.455-3.737
	c0.549-0.314,1.231-0.238,1.813-0.066c0.676,0.199,1.291,0.559,1.883,0.93c0.662,0.417,1.308,0.877,1.893,1.397
	c0.292,0.259,0.543,0.56,0.586,0.963c0.043,0.392-0.082,0.791-0.259,1.136c-0.534,1.042-1.606,1.732-2.745,1.934
	c-0.57,0.101-1.169,0.076-1.725-0.094c-0.135-0.042-0.271-0.091-0.399-0.149c-0.151-0.069-0.299-0.157-0.466-0.18
	c-0.28-0.038-0.512,0.158-0.674,0.366c-0.332,0.425-0.37,1.007-0.231,1.512c0.159,0.572,0.54,1.021,1.039,1.335
	c0.558,0.352,1.214,0.521,1.856,0.641c0.791,0.147,1.594,0.25,2.396,0.314c0.802,0.063,1.634,0.117,2.435,0.039
	c0.67-0.065,1.219-0.357,1.496-0.992c0.486-1.121,0.189-2.51-0.527-3.462c-0.393-0.52-0.893-0.877-1.473-1.159
	c-0.619-0.3-1.482-0.699-1.494-1.508c-0.01-0.729,0.832-1.05,1.391-1.274c0.654-0.264,1.328-0.488,2.023-0.606
	c0.691-0.117,1.42-0.118,2.088,0.117c0.672,0.236,1.215,0.713,1.596,1.306c0.365,0.567,0.607,1.226,0.727,1.888
	c0.117,0.648,0.11,1.381-0.25,1.956c-0.742,1.192-2.412,0.884-3.478,0.376c-0.672-0.323-1.304-0.734-1.866-1.224
	c-0.273-0.237-0.539-0.492-0.773-0.771c-0.24-0.288-0.463-0.655-0.353-1.045c0.095-0.333,0.377-0.582,0.655-0.771
	c0.301-0.204,0.631-0.374,0.965-0.518c0.705-0.304,1.5-0.479,2.268-0.363c1.258,0.19,2.453,1.201,2.278,2.569
	c-0.073,0.575-0.382,1.11-0.897,1.391c-0.102,0.055-0.012,0.21,0.093,0.155c1.065-0.58,1.276-2.075,0.633-3.042
	c-0.793-1.194-2.356-1.483-3.669-1.142c-1.063,0.276-3.236,1.221-2.291,2.641c0.409,0.613,1.038,1.125,1.633,1.548
	c0.585,0.416,1.229,0.782,1.917,1.001c0.601,0.191,1.271,0.284,1.89,0.122c0.59-0.154,1.07-0.566,1.307-1.133
	c0.254-0.615,0.222-1.318,0.084-1.957c-0.146-0.674-0.408-1.344-0.805-1.908c-0.396-0.563-0.936-1.005-1.584-1.241
	c-0.66-0.239-1.377-0.25-2.065-0.15c-0.756,0.109-1.489,0.353-2.196,0.639c-0.541,0.219-1.216,0.479-1.435,1.076
	c-0.242,0.657,0.252,1.296,0.778,1.635c0.334,0.213,0.703,0.358,1.051,0.545c0.308,0.166,0.588,0.373,0.83,0.624
	c0.478,0.492,0.803,1.125,0.939,1.795c0.135,0.666,0.1,1.458-0.269,2.048c-0.468,0.75-1.438,0.69-2.211,0.683
	c-0.89-0.009-1.775-0.077-2.655-0.193c-1.332-0.177-3.281-0.38-3.838-1.845c-0.219-0.572-0.193-1.331,0.335-1.731
	c0.326-0.25,0.712,0.073,1.041,0.186c0.274,0.094,0.562,0.153,0.851,0.179c1.176,0.109,2.4-0.323,3.248-1.144
	c0.451-0.438,0.827-1.017,0.944-1.642c0.063-0.341,0.041-0.695-0.118-1.009c-0.165-0.321-0.453-0.559-0.726-0.785
	c-0.621-0.515-1.28-0.983-1.974-1.398c-0.604-0.363-1.235-0.697-1.931-0.851c-0.581-0.128-1.237-0.133-1.751,0.206
	c-0.533,0.35-0.764,0.952-0.796,1.568c-0.038,0.7,0.127,1.407,0.284,2.084c0.17,0.739,0.387,1.472,0.707,2.16
	c0.594,1.275,1.572,2.245,2.789,2.929c1.187,0.666,2.496,1.073,3.775,1.506c0.631,0.213,1.258,0.432,1.872,0.687
	c0.017-0.058,0.032-0.115,0.048-0.174c-0.494-0.174-1.033-0.353-1.563-0.239c-0.37,0.08-0.668,0.33-0.813,0.681
	c-0.125,0.306-0.105,0.676,0.154,0.904c0.316,0.281,0.866,0.317,1.271,0.337c1.793,0.087,3.58-0.942,4.386-2.549
	c0.848-1.696,0.638-3.829-0.519-5.331c-0.558-0.725-1.305-1.298-2.142-1.667c-0.42-0.186-0.862-0.322-1.315-0.4
	c-0.377-0.065-0.836-0.153-1.19,0.03c-0.129,0.066-0.242,0.179-0.257,0.33c-0.018,0.171,0.152,0.296,0.277,0.389
	c0.325,0.238,0.75,0.299,1.146,0.279c1.045-0.056,2.065-0.835,3.114-0.422c0.47,0.184,0.838,0.554,1.162,0.929
	c0.33,0.382,0.653,0.784,0.877,1.239c0.234,0.479,0.324,1.058-0.073,1.48c-0.175,0.186-0.398,0.314-0.617,0.439
	c-0.252,0.144-0.506,0.281-0.765,0.415c-1.043,0.539-2.129,0.994-3.246,1.354c-0.288,0.094-0.6,0.195-0.901,0.112
	c-0.253-0.069-0.457-0.245-0.637-0.428c-0.351-0.358-0.675-0.735-1.063-1.057c-0.734-0.604-1.609-1.067-2.566-1.162
	c-0.92-0.092-1.963,0.187-2.418,1.06c-0.414,0.795-0.303,1.78,0.101,2.554s1.099,1.391,1.896,1.741
	c1.877,0.824,3.976,0.061,5.498-1.127c0.407-0.318,0.817-0.646,1.321-0.792c-0.036-0.021-0.073-0.042-0.11-0.063
	c0.166,0.517-0.112,1.059-0.539,1.361c-0.493,0.352-1.147,0.366-1.729,0.298c-1.191-0.142-2.365-0.572-3.395-1.19
	c-0.413-0.248-1.424-0.818-1.072-1.437c-0.025,0.015-0.053,0.03-0.077,0.045c1.726-0.009,3.712-0.039,5.026-1.331
	c0.529-0.521,0.923-1.211,0.99-1.959c0.063-0.687-0.196-1.367-0.687-1.849c-0.97-0.952-2.614-1.132-3.841-0.635
	c-0.648,0.262-1.299,0.759-1.403,1.495c-0.11,0.788,0.411,1.607,0.94,2.146c1.199,1.217,2.976,1.585,4.625,1.467
	c1.039-0.073,2.058-0.311,3.064-0.563c0.358-0.089,0.801-0.154,1.071-0.432c0.283-0.289,0.188-0.675,0.035-1.006
	c-0.656-1.433-2.125-2.366-3.632-2.686c-1.879-0.397-3.924,0.038-5.672,0.761c-0.771,0.319-1.521,0.791-1.903,1.563
	c-0.341,0.69-0.31,1.485,0.188,2.087c0.476,0.572,1.211,0.868,1.894,1.113c0.998,0.36,2,0.707,3,1.061
	c0.495,0.176,0.991,0.35,1.487,0.526c0.108,0.039,0.154-0.134,0.047-0.174c-1.618-0.602-2.646-2.343-2.602-4.04
	c0.014-0.487,0.12-0.969,0.32-1.414c-0.042,0.01-0.082,0.021-0.124,0.032c0.911,0.519,1.271,1.605,1.178,2.608
	c-0.108,1.171-0.878,2.134-1.801,2.807c-0.548,0.399-1.151,0.713-1.772,0.979c-0.067,0.03-0.045,0.12,0,0.156
	c0.515,0.39,1.026,0.78,1.539,1.169c0.017-0.056,0.03-0.112,0.045-0.167c-0.873-0.072-1.584-0.7-1.965-1.461
	c-0.464-0.926-0.385-2.018-0.109-2.987c0.259-0.914,0.656-2.001,1.479-2.554c0.788-0.532,1.848-0.595,2.747-0.37
	c1.858,0.46,3.156,2.205,3.05,4.121c-0.046,0.835-0.426,1.718-1.137,2.196c-0.755,0.507-1.627,0.281-2.251-0.317
	c-0.349-0.334-0.623-0.739-0.867-1.153c-0.297-0.506-0.569-1.027-0.827-1.554c-0.529-1.084-0.98-2.208-1.353-3.355
	C112.738,8.284,112.566,8.331,112.6,8.44z"/>
<defs>
	<filter id="Adobe_OpacityMaskFilter" filterUnits="userSpaceOnUse" x="-23.727" y="-37.368" width="190.727" height="141.368">
		<feColorMatrix  type="matrix" values="1 0 0 0 0  0 1 0 0 0  0 0 1 0 0  0 0 0 1 0"/>
	</filter>
</defs>
<mask maskUnits="userSpaceOnUse" x="-23.727" y="-37.368" width="190.727" height="141.368" id="mask0_362_221_1_">
	<rect fill="#FA6E5A" filter="url(#Adobe_OpacityMaskFilter)" width="176" height="114"/>
</mask>
<g mask="url(#mask0_362_221_1_)">
	<path fill="#808AFF" d="M12.773,35.447c-25.5,4.38-32-10.584-36.5-19.162v-53.653h88v98h-15.5
		C40.44,50.047,38.273,31.067,12.773,35.447z"/>
	<path fill="#808AFF" d="M115.773,35.447c25.5,4.38,32-10.584,36.5-19.162v-53.653h-88v98h15.5
		C88.106,50.047,90.273,31.067,115.773,35.447z"/>
	<g>
		<g>
			<defs>
				<rect id="SVGID_1_" x="150" y="44" width="14" height="17"/>
			</defs>
			<clipPath id="SVGID_2_">
				<use xlink:href="#SVGID_1_"  overflow="visible"/>
			</clipPath>
			<g clip-path="url(#SVGID_2_)">
				<path fill="#9BA3FF" d="M153.387,44H150v17h3.387V44z"/>
				<path fill="#9BA3FF" d="M158.693,49.714h-3.387V61h3.387V49.714z"/>
				<path fill="#9BA3FF" d="M164.007,55.1h-3.386V61h3.386V55.1z"/>
			</g>
		</g>
	</g>
	<g>
		<g>
			<defs>
				<rect id="SVGID_3_" x="135" y="78" width="32" height="26"/>
			</defs>
			<clipPath id="SVGID_4_">
				<use xlink:href="#SVGID_3_"  overflow="visible"/>
			</clipPath>
			<g clip-path="url(#SVGID_4_)">
				<path fill="#3F4553" d="M154.99,103.955l11.145-3.734l-5.587-16.4l-11.146,3.736c-0.438,0.146-0.674,0.614-0.522,1.047
					l5.054,14.83C154.08,103.866,154.553,104.102,154.99,103.955z"/>
				<path fill="#DDDDE3" d="M154.998,103.631l11.423-3.828l-5.383-15.797l-11.423,3.829c-0.282,0.093-0.434,0.396-0.34,0.681
					l5.037,14.78C154.41,103.575,154.716,103.725,154.998,103.631z"/>
				<path fill="#E2E5FF" d="M155.238,103.551l11.424-3.828l-5.383-15.797l-11.424,3.828c-0.281,0.094-0.434,0.396-0.338,0.68
					l5.034,14.781C154.65,103.494,154.957,103.648,155.238,103.551z"/>
				<path fill="#4E5567" d="M155.855,103.664L167,99.928l-5.587-16.396l-11.146,3.735c-0.438,0.146-0.675,0.614-0.522,1.049
					l5.053,14.83C154.945,103.579,155.418,103.809,155.855,103.664z"/>
				<path fill="#3F4553" d="M160.789,83.742l-0.24,0.08l5.588,16.4l0.239-0.08L160.789,83.742z"/>
				<path fill="#93BFA8" d="M162.381,96.553l0.249-0.525l0.522,0.267l-4.082-11.976c-0.073-0.211-0.256-0.194-0.469-0.121
					c-0.213,0.072-0.371,0.17-0.297,0.38L162.381,96.553z"/>
				<path fill="#3F4553" d="M137.338,88.09l7.502-8.82l-1.517-1.268l-7.501,8.82L137.338,88.09z"/>
				<path fill="#F2EDE4" d="M135.82,86.818l1.515,1.268l-2.188,1.193c-0.071,0.041-0.17-0.045-0.146-0.121L135.82,86.818z"/>
				<path fill="#3F4553" d="M135.15,89.283l0.593-0.323l-0.515-0.433l-0.221,0.631C134.98,89.234,135.078,89.32,135.15,89.283z"/>
				<path fill="#4E5567" d="M136.836,87.67l7.501-8.82l-0.515-0.431l-7.502,8.82L136.836,87.67z"/>
			</g>
		</g>
	</g>
	<g>
		<g>
			<defs>
				<rect id="SVGID_5_" x="37" y="3" width="35" height="35"/>
			</defs>
			<clipPath id="SVGID_6_">
				<use xlink:href="#SVGID_5_"  overflow="visible"/>
			</clipPath>
			<g clip-path="url(#SVGID_6_)">
				<path fill="#808AFF" d="M54.503,3C44.833,3,37,10.833,37,20.503c0,9.664,7.833,17.502,17.503,17.502
					c9.664,0,17.502-7.833,17.502-17.502C72,10.833,64.167,3,54.503,3z M54.503,35.045c-8.032,0-14.542-6.511-14.542-14.542
					c0-8.032,6.51-14.542,14.542-14.542c8.032,0,14.542,6.51,14.542,14.542C69.045,28.535,62.535,35.045,54.503,35.045z"/>
				<path fill="#AEB4FC" d="M67.921,26.11c3.099-7.41-0.396-15.929-7.807-19.027c-7.41-3.099-15.929,0.396-19.027,7.806
					c-3.099,7.41,0.396,15.929,7.806,19.027S64.822,33.52,67.921,26.11z"/>
				<path fill="#808AFF" d="M54.531,7.262c-1.021,0-1.025,1.587,0,1.587C55.556,8.849,55.557,7.262,54.531,7.262z"/>
				<path fill="#808AFF" d="M67.738,20.53c0-1.021-1.588-1.025-1.588,0C66.15,21.555,67.738,21.555,67.738,20.53z"/>
				<path fill="#808AFF" d="M54.469,33.738c1.021,0,1.025-1.587,0-1.587C53.449,32.151,53.443,33.738,54.469,33.738z"/>
				<path fill="#808AFF" d="M41.262,20.47c0,1.021,1.588,1.025,1.588,0C42.85,19.45,41.262,19.444,41.262,20.47z"/>
				<path fill="#808AFF" d="M60.754,24.753c-0.094,0-0.188-0.022-0.27-0.077l-6.257-3.721c-0.16-0.093-0.259-0.27-0.259-0.458v-10
					c0-0.292,0.237-0.529,0.529-0.529s0.529,0.237,0.529,0.529V20.2l5.998,3.566c0.254,0.149,0.336,0.474,0.182,0.728
					C61.113,24.659,60.937,24.753,60.754,24.753z"/>
			</g>
		</g>
	</g>
	<path fill="#9BA3FF" d="M19.621,56.407l-0.349-1.981l-2.025,0.345c-0.321-0.925-0.845-1.739-1.522-2.402l1.187-1.664l-1.662-1.153
		l-1.18,1.657c-0.852-0.414-1.802-0.642-2.793-0.635l-0.356-2.008L8.915,48.91l0.349,2.002c-0.936,0.317-1.76,0.835-2.43,1.505
		l-1.683-1.173l-1.166,1.643l1.676,1.167c-0.419,0.842-0.649,1.781-0.643,2.761L3,57.159l0.349,1.981l2.025-0.345
		c0.321,0.925,0.845,1.739,1.522,2.402L5.709,62.86l1.662,1.153l1.18-1.657c0.852,0.414,1.802,0.642,2.793,0.635L11.701,65
		l2.004-0.345l-0.349-2.002c0.936-0.317,1.76-0.835,2.43-1.505l1.683,1.174l1.167-1.643l-1.676-1.167
		c0.419-0.842,0.649-1.781,0.643-2.761L19.621,56.407z M11.632,58.622c-1.027,0.18-2.004-0.504-2.186-1.519
		c-0.182-1.015,0.51-1.981,1.536-2.16c1.027-0.18,2.004,0.504,2.186,1.519C13.35,57.477,12.665,58.443,11.632,58.622z"/>
	<path fill="#AEB4FC" d="M38.728,52.41v-2.492h-2.549c-0.188-1.201-0.656-2.305-1.341-3.258l1.809-1.788l-1.781-1.76l-1.802,1.781
		c-0.957-0.683-2.067-1.16-3.282-1.36V41h-2.521v2.52c-1.215,0.187-2.339,0.649-3.296,1.325l-1.809-1.788l-1.781,1.76l1.802,1.781
		c-0.691,0.946-1.173,2.043-1.375,3.245h-2.563v2.492h2.549c0.188,1.201,0.657,2.306,1.341,3.258l-1.809,1.788l1.781,1.76
		l1.802-1.781c0.957,0.684,2.067,1.16,3.282,1.36v2.533h2.521v-2.52c1.215-0.186,2.333-0.649,3.296-1.325l1.809,1.788l1.781-1.76
		l-1.802-1.781c0.691-0.945,1.173-2.043,1.376-3.244L38.728,52.41L38.728,52.41z M28.483,53.445c-1.292,0-2.346-1.036-2.346-2.319
		c0-1.277,1.047-2.319,2.346-2.319c1.292,0,2.347,1.036,2.347,2.319C30.822,52.403,29.775,53.445,28.483,53.445z"/>
	<g opacity="0.3">
		<path fill="#ECECEC" d="M156.995,33.897l-18.729-4.209c-0.184-0.04-0.3-0.223-0.257-0.407l2.358-10.5
			c0.04-0.183,0.224-0.3,0.406-0.257l18.729,4.213c0.186,0.04,0.3,0.224,0.257,0.407l-2.36,10.5
			C157.357,33.824,157.178,33.94,156.995,33.897z"/>
		<path fill="#F5F4F5" d="M138.318,29.441c-0.049-0.01-0.08-0.06-0.065-0.107l2.36-10.5c0.011-0.05,0.061-0.08,0.106-0.067
			l18.729,4.213c0.05,0.01,0.078,0.06,0.066,0.107l-2.363,10.5c-0.01,0.05-0.059,0.08-0.105,0.067L138.318,29.441z"/>
		<path fill="#706F6E" d="M156.867,22.141l-13.453-3.025l-0.055,0.244l13.453,3.025L156.867,22.141z"/>
		<path fill="#585857" d="M142.105,20.625l-0.621-0.14c-0.076-0.017-0.127-0.093-0.109-0.173l0.096-0.437
			c0.019-0.077,0.094-0.126,0.174-0.11l0.621,0.14c0.076,0.017,0.127,0.094,0.109,0.174l-0.096,0.437
			C142.259,20.592,142.182,20.642,142.105,20.625z"/>
		<path fill="#5E5E5D" d="M141.512,20.361c-0.011-0.003-0.018-0.013-0.014-0.023l0.096-0.437c0.004-0.01,0.014-0.017,0.024-0.014
			l0.62,0.14c0.01,0.003,0.017,0.014,0.014,0.023l-0.098,0.437c-0.002,0.01-0.012,0.017-0.022,0.013L141.512,20.361z"/>
		<path fill="#585857" d="M143.242,20.878l-0.62-0.14c-0.077-0.017-0.127-0.093-0.11-0.173l0.098-0.437
			c0.017-0.077,0.094-0.126,0.174-0.11l0.619,0.14c0.076,0.017,0.128,0.093,0.109,0.173l-0.096,0.437
			C143.396,20.849,143.318,20.896,143.242,20.878z"/>
		<path fill="#5E5E5D" d="M142.648,20.618c-0.01-0.003-0.018-0.013-0.015-0.023l0.099-0.437c0.002-0.01,0.013-0.017,0.021-0.013
			l0.621,0.14c0.011,0.003,0.018,0.013,0.014,0.023l-0.098,0.437c-0.003,0.01-0.014,0.017-0.021,0.013L142.648,20.618z"/>
		<path fill="#585857" d="M144.38,21.135l-0.621-0.14c-0.075-0.017-0.126-0.093-0.11-0.173l0.099-0.438
			c0.019-0.077,0.093-0.126,0.174-0.11l0.62,0.14c0.077,0.017,0.127,0.093,0.109,0.173l-0.098,0.437
			C144.533,21.102,144.457,21.152,144.38,21.135z"/>
		<path fill="#5E5E5D" d="M143.786,20.872c-0.011-0.003-0.017-0.014-0.013-0.023l0.097-0.437c0.003-0.01,0.013-0.017,0.022-0.013
			l0.621,0.14c0.01,0.003,0.016,0.014,0.014,0.023l-0.098,0.437c-0.004,0.01-0.014,0.017-0.022,0.013L143.786,20.872z"/>
		<path fill="#585857" d="M145.518,21.389l-0.621-0.14c-0.076-0.017-0.127-0.093-0.108-0.173l0.097-0.437
			c0.018-0.077,0.094-0.127,0.174-0.11l0.619,0.14c0.077,0.017,0.129,0.094,0.11,0.174l-0.097,0.438
			C145.671,21.359,145.594,21.409,145.518,21.389z"/>
		<path fill="#5E5E5D" d="M144.924,21.128c-0.01-0.003-0.017-0.013-0.014-0.023l0.097-0.437c0.003-0.01,0.013-0.017,0.022-0.014
			l0.621,0.14c0.011,0.003,0.017,0.014,0.014,0.023l-0.098,0.437c-0.002,0.01-0.012,0.017-0.022,0.013L144.924,21.128z"/>
		<path fill="#585857" d="M146.65,21.646l-0.619-0.14c-0.077-0.017-0.127-0.093-0.11-0.173l0.097-0.437
			c0.018-0.077,0.094-0.126,0.174-0.11l0.619,0.14c0.078,0.017,0.127,0.093,0.11,0.173l-0.096,0.437
			C146.809,21.616,146.73,21.662,146.65,21.646z"/>
		<path fill="#5E5E5D" d="M146.061,21.386c-0.01-0.003-0.017-0.014-0.013-0.023l0.097-0.437c0.004-0.01,0.015-0.017,0.023-0.013
			l0.62,0.14c0.01,0.003,0.017,0.014,0.014,0.023l-0.097,0.437c-0.003,0.01-0.014,0.017-0.023,0.013L146.061,21.386z"/>
		<path fill="#585857" d="M147.789,21.902l-0.621-0.14c-0.076-0.017-0.126-0.093-0.109-0.173l0.096-0.437
			c0.019-0.077,0.095-0.127,0.176-0.11l0.62,0.14c0.075,0.017,0.127,0.094,0.108,0.174l-0.097,0.437
			C147.945,21.869,147.869,21.919,147.789,21.902z"/>
		<path fill="#5E5E5D" d="M147.198,21.639c-0.011-0.003-0.017-0.013-0.013-0.023l0.097-0.437c0.003-0.01,0.013-0.017,0.022-0.014
			l0.619,0.14c0.012,0.003,0.018,0.014,0.016,0.023l-0.099,0.437c-0.003,0.01-0.013,0.017-0.022,0.013L147.198,21.639z"/>
		<path fill="#585857" d="M148.926,22.156l-0.619-0.141c-0.078-0.017-0.127-0.093-0.111-0.173l0.099-0.437
			c0.017-0.077,0.095-0.126,0.173-0.11l0.62,0.14c0.077,0.017,0.127,0.093,0.108,0.173l-0.096,0.437
			C149.083,22.126,149.003,22.176,148.926,22.156z"/>
		<path fill="#5E5E5D" d="M148.336,21.896c-0.01-0.003-0.018-0.014-0.014-0.023l0.097-0.437c0.003-0.01,0.015-0.017,0.024-0.013
			l0.619,0.14c0.011,0.003,0.018,0.013,0.014,0.023l-0.096,0.437c-0.004,0.01-0.016,0.017-0.024,0.014L148.336,21.896z"/>
		<path fill="#585857" d="M150.064,22.413l-0.621-0.14c-0.076-0.017-0.127-0.094-0.11-0.173l0.097-0.437
			c0.019-0.077,0.094-0.127,0.174-0.11l0.621,0.14c0.076,0.017,0.127,0.093,0.109,0.173l-0.098,0.437
			C150.217,22.383,150.141,22.43,150.064,22.413z"/>
		<path fill="#5E5E5D" d="M149.473,22.152c-0.01-0.003-0.016-0.013-0.013-0.023l0.097-0.437c0.004-0.01,0.014-0.017,0.023-0.014
			l0.62,0.14c0.01,0.003,0.017,0.013,0.014,0.023l-0.097,0.437c-0.004,0.01-0.014,0.017-0.023,0.013L149.473,22.152z"/>
		<path fill="#585857" d="M151.201,22.669l-0.62-0.14c-0.077-0.017-0.127-0.093-0.11-0.173l0.098-0.437
			c0.017-0.077,0.094-0.126,0.174-0.11l0.619,0.14c0.076,0.017,0.128,0.093,0.111,0.173l-0.098,0.437
			C151.355,22.636,151.277,22.687,151.201,22.669z"/>
		<path fill="#5E5E5D" d="M150.607,22.406c-0.01-0.003-0.018-0.014-0.015-0.023l0.099-0.437c0.002-0.01,0.013-0.017,0.021-0.013
			l0.62,0.14c0.01,0.003,0.019,0.013,0.015,0.023l-0.098,0.437c-0.003,0.01-0.014,0.017-0.021,0.014L150.607,22.406z"/>
		<path fill="#585857" d="M152.338,22.923l-0.62-0.14c-0.077-0.017-0.127-0.094-0.11-0.173l0.099-0.437
			c0.017-0.077,0.093-0.127,0.173-0.11l0.621,0.14c0.076,0.017,0.126,0.093,0.109,0.173l-0.098,0.437
			C152.492,22.893,152.415,22.943,152.338,22.923z"/>
		<path fill="#5E5E5D" d="M151.745,22.663c-0.011-0.003-0.017-0.013-0.015-0.023l0.098-0.437c0.003-0.01,0.014-0.017,0.023-0.013
			l0.621,0.14c0.01,0.003,0.016,0.013,0.012,0.023l-0.096,0.437c-0.005,0.01-0.015,0.017-0.023,0.013L151.745,22.663z"/>
		<path fill="#585857" d="M153.477,23.18l-0.621-0.14c-0.076-0.017-0.127-0.094-0.109-0.174l0.097-0.437
			c0.019-0.077,0.095-0.126,0.175-0.11l0.621,0.14c0.075,0.017,0.127,0.093,0.108,0.173l-0.099,0.437
			C153.629,23.15,153.553,23.197,153.477,23.18z"/>
		<path fill="#5E5E5D" d="M152.882,22.92c-0.01-0.003-0.017-0.014-0.014-0.023l0.097-0.437c0.004-0.01,0.014-0.017,0.023-0.013
			l0.621,0.14c0.01,0.003,0.017,0.013,0.013,0.023l-0.097,0.438c-0.004,0.01-0.015,0.017-0.023,0.013L152.882,22.92z"/>
		<path fill="#585857" d="M154.613,23.437l-0.62-0.14c-0.077-0.017-0.127-0.094-0.11-0.173l0.096-0.437
			c0.019-0.077,0.096-0.127,0.174-0.11l0.621,0.14c0.076,0.017,0.127,0.093,0.109,0.173l-0.096,0.437
			C154.766,23.403,154.689,23.454,154.613,23.437z"/>
		<path fill="#5E5E5D" d="M154.02,23.173c-0.011-0.003-0.017-0.014-0.014-0.023l0.098-0.437c0.002-0.01,0.014-0.017,0.022-0.013
			l0.621,0.14c0.01,0.003,0.017,0.013,0.013,0.023l-0.097,0.437c-0.003,0.01-0.013,0.017-0.022,0.014L154.02,23.173z"/>
		<path fill="#585857" d="M155.751,23.69l-0.621-0.14c-0.077-0.017-0.127-0.093-0.11-0.173l0.099-0.437
			c0.016-0.077,0.093-0.127,0.173-0.11l0.621,0.14c0.074,0.017,0.126,0.093,0.109,0.173l-0.098,0.437
			C155.904,23.66,155.827,23.71,155.751,23.69z"/>
		<path fill="#5E5E5D" d="M155.157,23.43c-0.011-0.003-0.017-0.013-0.013-0.023l0.096-0.438c0.004-0.01,0.014-0.017,0.023-0.013
			l0.619,0.14c0.012,0.003,0.018,0.013,0.014,0.023l-0.097,0.437c-0.004,0.01-0.014,0.017-0.022,0.014L155.157,23.43z"/>
		<path fill="#585857" d="M156.889,23.947l-0.621-0.141c-0.076-0.017-0.127-0.093-0.108-0.173l0.096-0.437
			c0.019-0.077,0.095-0.126,0.175-0.11l0.619,0.14c0.077,0.017,0.127,0.093,0.11,0.173l-0.097,0.437
			C157.042,23.917,156.965,23.964,156.889,23.947z"/>
		<path fill="#5E5E5D" d="M156.294,23.687c-0.01-0.003-0.017-0.013-0.013-0.023l0.097-0.437c0.003-0.01,0.013-0.017,0.022-0.013
			l0.621,0.14c0.011,0.003,0.017,0.013,0.014,0.023l-0.098,0.437c-0.002,0.01-0.014,0.017-0.022,0.013L156.294,23.687z"/>
		<path fill="#585857" d="M158.021,24.204l-0.619-0.14c-0.077-0.017-0.127-0.094-0.11-0.173l0.097-0.438
			c0.016-0.076,0.094-0.126,0.174-0.11l0.619,0.14c0.077,0.017,0.127,0.093,0.11,0.173l-0.097,0.437
			C158.18,24.17,158.102,24.221,158.021,24.204z"/>
		<path fill="#5E5E5D" d="M157.432,23.94c-0.01-0.003-0.017-0.013-0.013-0.023l0.097-0.437c0.004-0.01,0.015-0.017,0.023-0.014
			l0.62,0.14c0.01,0.003,0.017,0.013,0.013,0.023l-0.096,0.437c-0.004,0.01-0.014,0.017-0.024,0.013L157.432,23.94z"/>
		<path fill="#585857" d="M141.471,20.635l0.769,0.173c0.087,0.02,0.144,0.106,0.122,0.197l-0.17,0.754
			c-0.02,0.086-0.105,0.143-0.195,0.124l-0.768-0.174c-0.088-0.02-0.145-0.106-0.125-0.197l0.17-0.754
			C141.294,20.672,141.381,20.615,141.471,20.635z"/>
		<path fill="#5E5E5D" d="M141.258,21.585c-0.02-0.003-0.033-0.027-0.029-0.046l0.17-0.754c0.002-0.021,0.026-0.034,0.047-0.03
			l0.768,0.173c0.021,0.003,0.033,0.027,0.03,0.047l-0.17,0.754c-0.005,0.02-0.027,0.033-0.048,0.03L141.258,21.585z"/>
		<path fill="#585857" d="M142.782,20.932l0.767,0.173c0.088,0.02,0.143,0.107,0.123,0.197l-0.17,0.754
			c-0.02,0.087-0.105,0.144-0.195,0.124l-0.769-0.173c-0.086-0.02-0.144-0.107-0.123-0.197l0.17-0.754
			C142.605,20.965,142.691,20.912,142.782,20.932z"/>
		<path fill="#5E5E5D" d="M142.568,21.882c-0.021-0.003-0.033-0.027-0.029-0.047l0.17-0.753c0.003-0.02,0.025-0.034,0.046-0.03
			l0.769,0.173c0.021,0.003,0.033,0.027,0.029,0.047l-0.171,0.754c-0.003,0.02-0.026,0.033-0.046,0.03L142.568,21.882z"/>
		<path fill="#585857" d="M144.093,21.226l0.769,0.173c0.087,0.02,0.144,0.107,0.123,0.197l-0.17,0.754
			c-0.021,0.087-0.106,0.144-0.196,0.124L143.85,22.3c-0.086-0.021-0.144-0.107-0.123-0.197l0.17-0.754
			C143.917,21.262,144.007,21.206,144.093,21.226z"/>
		<path fill="#5E5E5D" d="M143.88,22.176c-0.021-0.003-0.034-0.026-0.03-0.047l0.17-0.753c0.004-0.02,0.026-0.034,0.047-0.03
			l0.769,0.173c0.021,0.003,0.033,0.027,0.029,0.047l-0.171,0.754c-0.004,0.02-0.025,0.033-0.047,0.03L143.88,22.176z"/>
		<path fill="#585857" d="M145.404,21.519l0.767,0.173c0.087,0.02,0.144,0.107,0.124,0.197l-0.171,0.754
			c-0.021,0.087-0.106,0.144-0.196,0.124l-0.768-0.173c-0.086-0.02-0.143-0.107-0.123-0.197l0.17-0.754
			C145.227,21.556,145.316,21.499,145.404,21.519z"/>
		<path fill="#5E5E5D" d="M145.191,22.473c-0.021-0.003-0.034-0.027-0.03-0.047l0.17-0.753c0.003-0.02,0.026-0.034,0.046-0.03
			l0.768,0.173c0.021,0.003,0.033,0.027,0.03,0.047l-0.17,0.754c-0.004,0.02-0.026,0.033-0.047,0.03L145.191,22.473z"/>
		<path fill="#585857" d="M146.715,21.816l0.768,0.173c0.086,0.02,0.144,0.107,0.123,0.197l-0.17,0.754
			c-0.021,0.086-0.106,0.144-0.196,0.124l-0.769-0.174c-0.087-0.02-0.143-0.106-0.123-0.196l0.17-0.754
			C146.541,21.849,146.628,21.796,146.715,21.816z"/>
		<path fill="#5E5E5D" d="M146.501,22.766c-0.021-0.003-0.033-0.026-0.03-0.046l0.17-0.754c0.004-0.02,0.027-0.033,0.047-0.03
			l0.769,0.174c0.021,0.003,0.033,0.026,0.028,0.046l-0.17,0.754c-0.002,0.02-0.025,0.034-0.047,0.03L146.501,22.766z"/>
		<path fill="#585857" d="M148.025,22.109l0.768,0.173c0.086,0.02,0.143,0.107,0.123,0.197l-0.17,0.754
			c-0.02,0.087-0.107,0.144-0.197,0.124l-0.767-0.173c-0.087-0.02-0.144-0.107-0.123-0.197l0.17-0.754
			C147.852,22.146,147.939,22.089,148.025,22.109z"/>
		<path fill="#5E5E5D" d="M147.813,23.06c-0.021-0.003-0.033-0.027-0.029-0.047l0.17-0.753c0.003-0.021,0.025-0.034,0.047-0.03
			l0.768,0.173c0.021,0.003,0.032,0.027,0.029,0.047l-0.17,0.753c-0.004,0.021-0.025,0.034-0.047,0.03L147.813,23.06z"/>
		<path fill="#585857" d="M149.337,22.406l0.767,0.173c0.088,0.02,0.145,0.106,0.123,0.197l-0.17,0.754
			c-0.02,0.086-0.105,0.143-0.197,0.123l-0.767-0.173c-0.087-0.02-0.143-0.107-0.122-0.197l0.17-0.754
			C149.163,22.439,149.25,22.386,149.337,22.406z"/>
		<path fill="#5E5E5D" d="M149.123,23.356c-0.02-0.003-0.033-0.026-0.03-0.046l0.171-0.754c0.002-0.02,0.026-0.033,0.047-0.03
			l0.768,0.173c0.021,0.003,0.031,0.027,0.029,0.046l-0.17,0.754c-0.004,0.02-0.026,0.034-0.047,0.03L149.123,23.356z"/>
		<path fill="#585857" d="M150.65,22.7l0.768,0.173c0.087,0.021,0.143,0.107,0.123,0.197l-0.17,0.753
			c-0.02,0.087-0.105,0.144-0.197,0.124l-0.767-0.173c-0.087-0.02-0.144-0.107-0.123-0.197l0.17-0.754
			C150.475,22.736,150.561,22.68,150.65,22.7z"/>
		<path fill="#5E5E5D" d="M150.434,23.65c-0.02-0.003-0.033-0.027-0.029-0.047l0.171-0.753c0.003-0.02,0.026-0.034,0.047-0.03
			l0.769,0.173c0.02,0.003,0.031,0.027,0.028,0.047l-0.17,0.754c-0.003,0.02-0.026,0.033-0.047,0.03L150.434,23.65z"/>
		<path fill="#585857" d="M151.961,22.993l0.768,0.173c0.086,0.02,0.145,0.107,0.123,0.197l-0.17,0.754
			c-0.02,0.087-0.105,0.144-0.197,0.124l-0.767-0.174c-0.087-0.02-0.144-0.106-0.122-0.197l0.17-0.753
			C151.785,23.03,151.871,22.973,151.961,22.993z"/>
		<path fill="#5E5E5D" d="M151.748,23.947c-0.02-0.003-0.033-0.027-0.03-0.047l0.171-0.754c0.004-0.02,0.026-0.033,0.047-0.03
			l0.768,0.173c0.021,0.003,0.031,0.027,0.029,0.047l-0.17,0.753c-0.004,0.02-0.026,0.034-0.047,0.03L151.748,23.947z"/>
		<path fill="#585857" d="M153.271,23.29l0.769,0.174c0.086,0.02,0.144,0.106,0.123,0.196l-0.17,0.754
			c-0.021,0.087-0.106,0.144-0.197,0.124l-0.767-0.173c-0.088-0.021-0.144-0.107-0.123-0.197l0.17-0.754
			C153.096,23.323,153.182,23.27,153.271,23.29z"/>
		<path fill="#5E5E5D" d="M153.059,24.241c-0.02-0.003-0.033-0.027-0.029-0.046l0.171-0.754c0.003-0.02,0.026-0.034,0.047-0.03
			l0.769,0.173c0.02,0.003,0.031,0.027,0.028,0.047l-0.17,0.754c-0.004,0.021-0.026,0.033-0.047,0.03L153.059,24.241z"/>
		<path fill="#585857" d="M154.583,23.583l0.767,0.173c0.088,0.02,0.146,0.107,0.125,0.197l-0.17,0.754
			c-0.021,0.087-0.106,0.144-0.197,0.124l-0.765-0.174c-0.087-0.02-0.143-0.106-0.122-0.196l0.17-0.754
			C154.407,23.62,154.493,23.563,154.583,23.583z"/>
		<path fill="#5E5E5D" d="M154.37,24.534c-0.021-0.003-0.034-0.026-0.03-0.046l0.17-0.754c0.004-0.02,0.027-0.034,0.047-0.03
			l0.769,0.173c0.021,0.003,0.032,0.027,0.028,0.047l-0.174,0.754c-0.003,0.021-0.024,0.033-0.046,0.03L154.37,24.534z"/>
		<path fill="#585857" d="M155.895,23.88l0.768,0.174c0.087,0.02,0.145,0.106,0.124,0.197l-0.17,0.753
			c-0.021,0.087-0.107,0.144-0.197,0.124l-0.769-0.173c-0.086-0.02-0.144-0.107-0.123-0.197l0.171-0.754
			C155.717,23.914,155.807,23.86,155.895,23.88z"/>
		<path fill="#5E5E5D" d="M155.682,24.831c-0.021-0.003-0.033-0.026-0.031-0.046l0.17-0.754c0.005-0.021,0.027-0.034,0.049-0.03
			l0.767,0.173c0.021,0.003,0.033,0.027,0.03,0.047l-0.17,0.754c-0.004,0.02-0.027,0.033-0.047,0.03L155.682,24.831z"/>
		<path fill="#585857" d="M157.205,24.174l0.768,0.173c0.086,0.02,0.144,0.107,0.123,0.197l-0.171,0.754
			c-0.021,0.087-0.106,0.144-0.196,0.124l-0.768-0.173c-0.086-0.02-0.143-0.107-0.123-0.197l0.174-0.754
			C157.027,24.21,157.118,24.154,157.205,24.174z"/>
		<path fill="#5E5E5D" d="M156.991,25.125c-0.021-0.003-0.033-0.027-0.03-0.047l0.171-0.754c0.003-0.02,0.026-0.033,0.046-0.03
			l0.768,0.174c0.021,0.003,0.033,0.026,0.029,0.047l-0.17,0.753c-0.003,0.02-0.024,0.034-0.046,0.03L156.991,25.125z"/>
		<path fill="#585857" d="M141.193,21.856l0.768,0.173c0.087,0.02,0.145,0.106,0.124,0.197l-0.17,0.754
			c-0.021,0.086-0.106,0.143-0.197,0.124l-0.767-0.174c-0.088-0.02-0.145-0.106-0.124-0.197l0.174-0.754
			C141.021,21.893,141.107,21.836,141.193,21.856z"/>
		<path fill="#5E5E5D" d="M140.98,22.807c-0.021-0.003-0.032-0.027-0.029-0.047l0.17-0.754c0.003-0.02,0.027-0.033,0.047-0.03
			l0.768,0.173c0.021,0.003,0.032,0.026,0.029,0.046l-0.17,0.754c-0.004,0.02-0.027,0.034-0.047,0.03L140.98,22.807z"/>
		<path fill="#585857" d="M142.509,22.152l0.767,0.174c0.089,0.02,0.145,0.106,0.123,0.197l-0.17,0.754
			c-0.02,0.086-0.104,0.143-0.194,0.123l-0.769-0.173c-0.086-0.02-0.144-0.106-0.123-0.197l0.17-0.754
			C142.332,22.186,142.419,22.133,142.509,22.152z"/>
		<path fill="#5E5E5D" d="M142.292,23.104c-0.021-0.003-0.033-0.027-0.03-0.047l0.17-0.754c0.004-0.02,0.027-0.033,0.047-0.03
			l0.769,0.174c0.021,0.003,0.033,0.026,0.028,0.047l-0.17,0.753c-0.002,0.02-0.025,0.034-0.047,0.03L142.292,23.104z"/>
		<path fill="#585857" d="M143.818,22.446l0.769,0.173c0.086,0.02,0.144,0.107,0.123,0.197l-0.17,0.754
			c-0.021,0.087-0.106,0.144-0.197,0.124l-0.767-0.173c-0.088-0.02-0.143-0.107-0.123-0.197l0.17-0.754
			C143.643,22.483,143.729,22.426,143.818,22.446z"/>
		<path fill="#5E5E5D" d="M143.605,23.397c-0.021-0.003-0.032-0.027-0.029-0.047l0.17-0.754c0.004-0.02,0.027-0.033,0.047-0.03
			l0.768,0.173c0.021,0.003,0.032,0.027,0.029,0.046l-0.17,0.754c-0.003,0.02-0.027,0.034-0.047,0.03L143.605,23.397z"/>
		<path fill="#585857" d="M145.13,22.74l0.767,0.173c0.088,0.02,0.146,0.107,0.125,0.197l-0.17,0.754
			c-0.021,0.087-0.106,0.144-0.197,0.124l-0.768-0.173c-0.087-0.02-0.144-0.107-0.123-0.197l0.17-0.754
			C144.953,22.776,145.04,22.72,145.13,22.74z"/>
		<path fill="#5E5E5D" d="M144.917,23.69c-0.021-0.003-0.034-0.027-0.03-0.047l0.17-0.754c0.004-0.02,0.027-0.033,0.047-0.03
			l0.769,0.173c0.021,0.003,0.033,0.027,0.028,0.047l-0.17,0.753c-0.004,0.021-0.025,0.034-0.047,0.03L144.917,23.69z"/>
		<path fill="#585857" d="M146.441,23.037l0.768,0.173c0.086,0.02,0.143,0.107,0.123,0.197l-0.17,0.754
			c-0.02,0.086-0.107,0.144-0.197,0.124l-0.767-0.174c-0.087-0.02-0.144-0.106-0.123-0.196l0.17-0.754
			C146.266,23.07,146.355,23.017,146.441,23.037z"/>
		<path fill="#5E5E5D" d="M146.229,23.987c-0.021-0.003-0.035-0.027-0.029-0.047l0.17-0.754c0.003-0.02,0.025-0.033,0.047-0.03
			l0.768,0.173c0.021,0.003,0.032,0.027,0.029,0.047l-0.17,0.754c-0.004,0.02-0.025,0.033-0.047,0.03L146.229,23.987z"/>
		<path fill="#585857" d="M147.752,23.33l0.768,0.173c0.086,0.02,0.145,0.107,0.123,0.197l-0.17,0.754
			c-0.02,0.086-0.105,0.144-0.197,0.123l-0.767-0.173c-0.087-0.02-0.144-0.106-0.124-0.197l0.17-0.754
			C147.575,23.367,147.665,23.31,147.752,23.33z"/>
		<path fill="#5E5E5D" d="M147.539,24.281c-0.02-0.003-0.033-0.027-0.03-0.046l0.171-0.754c0.002-0.021,0.026-0.034,0.047-0.03
			l0.768,0.173c0.021,0.003,0.031,0.027,0.029,0.047l-0.17,0.754c-0.004,0.02-0.026,0.033-0.047,0.03L147.539,24.281z"/>
		<path fill="#585857" d="M149.063,23.627l0.769,0.173c0.087,0.02,0.144,0.107,0.123,0.197l-0.17,0.754
			c-0.021,0.087-0.107,0.144-0.197,0.124l-0.769-0.173c-0.086-0.02-0.143-0.107-0.123-0.197l0.172-0.754
			C148.889,23.66,148.977,23.607,149.063,23.627z"/>
		<path fill="#5E5E5D" d="M148.85,24.578c-0.021-0.003-0.033-0.027-0.031-0.047l0.173-0.753c0.003-0.021,0.024-0.034,0.046-0.03
			l0.768,0.173c0.021,0.003,0.033,0.027,0.029,0.047l-0.17,0.754c-0.003,0.02-0.025,0.033-0.046,0.03L148.85,24.578z"/>
		<path fill="#585857" d="M150.374,23.92l0.767,0.173c0.088,0.02,0.145,0.107,0.123,0.197l-0.17,0.754
			c-0.02,0.086-0.104,0.144-0.197,0.124l-0.767-0.174c-0.086-0.02-0.144-0.106-0.123-0.197l0.17-0.753
			C150.2,23.957,150.287,23.9,150.374,23.92z"/>
		<path fill="#5E5E5D" d="M150.16,24.871c-0.02-0.003-0.033-0.026-0.03-0.046l0.17-0.754c0.005-0.02,0.027-0.034,0.048-0.03
			l0.767,0.173c0.021,0.003,0.032,0.027,0.03,0.047l-0.17,0.754c-0.004,0.02-0.026,0.033-0.048,0.03L150.16,24.871z"/>
		<path fill="#585857" d="M151.686,24.214l0.768,0.174c0.087,0.02,0.145,0.106,0.123,0.197l-0.172,0.753
			c-0.02,0.087-0.104,0.144-0.194,0.124l-0.769-0.173c-0.086-0.02-0.144-0.106-0.123-0.197l0.17-0.754
			C151.512,24.25,151.598,24.194,151.686,24.214z"/>
		<path fill="#5E5E5D" d="M151.471,25.165c-0.02-0.003-0.033-0.026-0.029-0.046l0.17-0.754c0.005-0.021,0.027-0.033,0.048-0.03
			l0.767,0.174c0.021,0.003,0.033,0.026,0.03,0.046l-0.17,0.754c-0.003,0.02-0.027,0.033-0.048,0.03L151.471,25.165z"/>
		<path fill="#585857" d="M152.995,24.511l0.769,0.174c0.086,0.02,0.144,0.106,0.123,0.196l-0.171,0.754
			c-0.021,0.087-0.106,0.144-0.196,0.124l-0.768-0.173c-0.087-0.02-0.143-0.107-0.123-0.197l0.17-0.754
			C152.822,24.544,152.909,24.491,152.995,24.511z"/>
		<path fill="#5E5E5D" d="M152.782,25.461c-0.021-0.003-0.033-0.026-0.03-0.046l0.17-0.754c0.004-0.02,0.027-0.033,0.047-0.03
			l0.768,0.174c0.021,0.003,0.033,0.026,0.029,0.046l-0.17,0.754c-0.003,0.02-0.027,0.033-0.047,0.03L152.782,25.461z"/>
		<path fill="#585857" d="M154.311,24.804l0.768,0.174c0.087,0.02,0.145,0.106,0.123,0.197l-0.172,0.754
			c-0.02,0.086-0.105,0.143-0.195,0.123l-0.768-0.173c-0.088-0.02-0.144-0.107-0.123-0.197l0.171-0.754
			C154.133,24.841,154.221,24.784,154.311,24.804z"/>
		<path fill="#5E5E5D" d="M154.093,25.755c-0.02-0.003-0.034-0.026-0.03-0.046l0.17-0.754c0.004-0.02,0.027-0.033,0.047-0.03
			l0.769,0.174c0.021,0.003,0.033,0.026,0.03,0.046l-0.17,0.754c-0.006,0.02-0.027,0.033-0.049,0.03L154.093,25.755z"/>
		<path fill="#585857" d="M155.621,25.101l0.768,0.174c0.086,0.02,0.144,0.106,0.123,0.197l-0.171,0.753
			c-0.021,0.087-0.106,0.144-0.196,0.124l-0.768-0.173c-0.087-0.02-0.143-0.107-0.123-0.197l0.17-0.754
			C155.443,25.135,155.531,25.081,155.621,25.101z"/>
		<path fill="#5E5E5D" d="M155.407,26.052c-0.021-0.003-0.033-0.026-0.03-0.046l0.17-0.754c0.004-0.02,0.027-0.033,0.047-0.03
			l0.768,0.173c0.021,0.004,0.033,0.027,0.029,0.047l-0.17,0.754c-0.003,0.02-0.025,0.033-0.046,0.03L155.407,26.052z"/>
		<path fill="#585857" d="M156.932,25.395l0.769,0.174c0.087,0.02,0.143,0.106,0.123,0.197l-0.171,0.754
			c-0.021,0.086-0.106,0.143-0.196,0.123l-0.769-0.173c-0.086-0.02-0.143-0.105-0.123-0.197l0.17-0.754
			C156.755,25.432,156.842,25.375,156.932,25.395z"/>
		<path fill="#5E5E5D" d="M156.718,26.346c-0.02-0.003-0.032-0.027-0.03-0.047l0.17-0.754c0.004-0.02,0.027-0.033,0.047-0.03
			l0.769,0.174c0.021,0.003,0.033,0.026,0.03,0.047l-0.17,0.753c-0.004,0.02-0.027,0.034-0.049,0.03L156.718,26.346z"/>
		<path fill="#585857" d="M140.921,23.077l0.767,0.173c0.088,0.02,0.146,0.106,0.125,0.197l-0.17,0.754
			c-0.021,0.086-0.106,0.143-0.197,0.124l-0.768-0.174c-0.087-0.02-0.144-0.106-0.123-0.197l0.17-0.754
			C140.748,23.113,140.835,23.057,140.921,23.077z"/>
		<path fill="#5E5E5D" d="M140.708,24.027c-0.021-0.003-0.034-0.027-0.031-0.047l0.171-0.754c0.004-0.02,0.026-0.033,0.047-0.03
			l0.768,0.173c0.021,0.003,0.033,0.026,0.029,0.047l-0.17,0.753c-0.004,0.02-0.025,0.034-0.047,0.03L140.708,24.027z"/>
		<path fill="#585857" d="M142.232,23.37l0.767,0.173c0.087,0.02,0.144,0.107,0.123,0.197l-0.17,0.754
			c-0.021,0.087-0.106,0.144-0.197,0.124l-0.767-0.174c-0.086-0.02-0.144-0.106-0.123-0.197l0.17-0.754
			C142.059,23.407,142.145,23.354,142.232,23.37z"/>
		<path fill="#5E5E5D" d="M142.02,24.324c-0.021-0.003-0.035-0.027-0.03-0.047l0.171-0.754c0.003-0.02,0.025-0.033,0.046-0.03
			l0.769,0.173c0.021,0.003,0.032,0.027,0.029,0.047l-0.171,0.754c-0.003,0.02-0.024,0.033-0.046,0.03L142.02,24.324z"/>
		<path fill="#585857" d="M143.542,23.667l0.769,0.173c0.086,0.02,0.144,0.107,0.123,0.197l-0.17,0.754
			c-0.021,0.087-0.106,0.144-0.197,0.124l-0.768-0.173c-0.087-0.02-0.145-0.107-0.123-0.197l0.17-0.754
			C143.369,23.704,143.456,23.647,143.542,23.667z"/>
		<path fill="#5E5E5D" d="M143.329,24.618c-0.021-0.003-0.033-0.027-0.03-0.047l0.17-0.754c0.004-0.02,0.027-0.033,0.047-0.03
			l0.769,0.173c0.021,0.003,0.032,0.027,0.028,0.047l-0.17,0.753c-0.002,0.021-0.025,0.034-0.047,0.03L143.329,24.618z"/>
		<path fill="#585857" d="M144.857,23.96l0.767,0.173c0.087,0.02,0.144,0.107,0.124,0.197l-0.17,0.754
			c-0.02,0.087-0.107,0.144-0.197,0.124l-0.768-0.173c-0.086-0.02-0.144-0.107-0.123-0.197l0.17-0.754
			C144.68,23.997,144.768,23.94,144.857,23.96z"/>
		<path fill="#5E5E5D" d="M144.641,24.911c-0.021-0.003-0.033-0.027-0.031-0.047l0.17-0.754c0.006-0.02,0.027-0.033,0.049-0.03
			l0.768,0.173c0.02,0.003,0.033,0.027,0.029,0.047l-0.17,0.754c-0.003,0.02-0.027,0.033-0.047,0.03L144.641,24.911z"/>
		<path fill="#585857" d="M146.168,24.257l0.768,0.173c0.086,0.021,0.144,0.107,0.123,0.197l-0.17,0.754
			c-0.021,0.086-0.106,0.143-0.197,0.123l-0.768-0.173c-0.087-0.02-0.143-0.107-0.123-0.197l0.17-0.754
			C145.991,24.291,146.078,24.237,146.168,24.257z"/>
		<path fill="#5E5E5D" d="M145.954,25.208c-0.021-0.003-0.033-0.027-0.03-0.047l0.17-0.754c0.004-0.02,0.027-0.033,0.047-0.03
			l0.769,0.173c0.021,0.003,0.032,0.027,0.028,0.047l-0.17,0.754c-0.002,0.02-0.024,0.033-0.045,0.03L145.954,25.208z"/>
		<path fill="#585857" d="M147.479,24.551l0.769,0.173c0.087,0.02,0.144,0.107,0.123,0.197l-0.17,0.754
			c-0.021,0.087-0.107,0.144-0.197,0.124l-0.769-0.173c-0.086-0.02-0.143-0.107-0.123-0.197l0.172-0.754
			C147.302,24.587,147.389,24.531,147.479,24.551z"/>
		<path fill="#5E5E5D" d="M147.266,25.501c-0.021-0.003-0.033-0.027-0.031-0.047l0.17-0.753c0.005-0.021,0.027-0.034,0.049-0.03
			l0.768,0.173c0.02,0.003,0.032,0.027,0.029,0.047l-0.17,0.754c-0.004,0.02-0.027,0.033-0.047,0.03L147.266,25.501z"/>
		<path fill="#585857" d="M148.79,24.844l0.767,0.173c0.088,0.02,0.145,0.107,0.123,0.197l-0.17,0.754
			c-0.02,0.087-0.107,0.144-0.197,0.124l-0.767-0.173c-0.086-0.02-0.144-0.107-0.123-0.197l0.17-0.754
			C148.613,24.881,148.7,24.828,148.79,24.844z"/>
		<path fill="#5E5E5D" d="M148.576,25.798c-0.02-0.003-0.033-0.027-0.03-0.047l0.17-0.753c0.003-0.021,0.027-0.034,0.048-0.03
			l0.767,0.173c0.021,0.003,0.032,0.027,0.03,0.047l-0.17,0.754c-0.004,0.02-0.026,0.033-0.048,0.03L148.576,25.798z"/>
		<path fill="#585857" d="M150.1,25.141l0.77,0.173c0.086,0.021,0.145,0.107,0.123,0.197l-0.172,0.753
			c-0.02,0.087-0.105,0.144-0.195,0.124l-0.768-0.173c-0.088-0.02-0.145-0.107-0.125-0.197l0.172-0.754
			C149.924,25.175,150.014,25.121,150.1,25.141z"/>
		<path fill="#5E5E5D" d="M149.887,26.092c-0.02-0.003-0.033-0.026-0.029-0.046l0.17-0.754c0.002-0.02,0.027-0.034,0.048-0.03
			l0.767,0.173c0.021,0.003,0.033,0.027,0.03,0.047l-0.17,0.754c-0.003,0.02-0.027,0.033-0.048,0.03L149.887,26.092z"/>
		<path fill="#585857" d="M151.411,25.435l0.767,0.174c0.088,0.02,0.146,0.106,0.124,0.197l-0.171,0.753
			c-0.02,0.087-0.105,0.144-0.195,0.124l-0.769-0.173c-0.086-0.02-0.144-0.106-0.123-0.197l0.17-0.754
			C151.234,25.471,151.324,25.415,151.411,25.435z"/>
		<path fill="#5E5E5D" d="M151.198,26.385c-0.021-0.003-0.034-0.026-0.03-0.046l0.17-0.754c0.003-0.02,0.025-0.033,0.046-0.03
			l0.769,0.174c0.021,0.003,0.033,0.026,0.029,0.046l-0.174,0.754c-0.003,0.02-0.025,0.033-0.046,0.03L151.198,26.385z"/>
		<path fill="#585857" d="M152.723,25.731l0.767,0.174c0.088,0.02,0.145,0.105,0.125,0.197l-0.173,0.753
			c-0.02,0.087-0.104,0.144-0.194,0.124l-0.769-0.173c-0.086-0.02-0.144-0.107-0.123-0.197l0.17-0.754
			C152.549,25.765,152.635,25.711,152.723,25.731z"/>
		<path fill="#5E5E5D" d="M152.508,26.682c-0.02-0.003-0.033-0.023-0.029-0.046l0.17-0.754c0.004-0.02,0.026-0.033,0.047-0.03
			l0.768,0.174c0.021,0.003,0.034,0.026,0.03,0.046l-0.17,0.754c-0.005,0.02-0.027,0.033-0.048,0.03L152.508,26.682z"/>
		<path fill="#585857" d="M154.033,26.025l0.767,0.174c0.087,0.02,0.144,0.106,0.124,0.197l-0.17,0.754
			c-0.02,0.086-0.107,0.143-0.197,0.123L153.79,27.1c-0.087-0.02-0.144-0.107-0.124-0.197l0.17-0.754
			C153.859,26.062,153.945,26.005,154.033,26.025z"/>
		<path fill="#5E5E5D" d="M153.818,26.976c-0.021-0.003-0.032-0.026-0.029-0.046l0.17-0.754c0.004-0.02,0.027-0.033,0.047-0.03
			l0.768,0.174c0.021,0.003,0.033,0.026,0.029,0.046l-0.17,0.754c-0.003,0.02-0.025,0.033-0.047,0.03L153.818,26.976z"/>
		<path fill="#585857" d="M155.344,26.319l0.768,0.173c0.088,0.02,0.144,0.106,0.123,0.197l-0.17,0.754
			c-0.021,0.086-0.106,0.143-0.196,0.124l-0.769-0.174c-0.086-0.02-0.143-0.106-0.123-0.197l0.17-0.754
			C155.17,26.355,155.257,26.299,155.344,26.319z"/>
		<path fill="#5E5E5D" d="M155.13,27.272c-0.021-0.003-0.032-0.026-0.03-0.046l0.17-0.754c0.004-0.02,0.027-0.033,0.047-0.03
			l0.769,0.173c0.021,0.004,0.034,0.027,0.029,0.047l-0.171,0.75c-0.002,0.02-0.024,0.034-0.045,0.03L155.13,27.272z"/>
		<path fill="#585857" d="M156.658,26.615l0.767,0.174c0.087,0.02,0.144,0.106,0.123,0.197l-0.17,0.754
			c-0.021,0.086-0.106,0.143-0.196,0.123l-0.768-0.173c-0.086-0.02-0.143-0.106-0.123-0.197l0.17-0.754
			C156.48,26.649,156.568,26.596,156.658,26.615z"/>
		<path fill="#5E5E5D" d="M156.441,27.566c-0.021-0.003-0.033-0.027-0.03-0.047l0.17-0.754c0.003-0.02,0.026-0.033,0.047-0.03
			l0.767,0.174c0.021,0.003,0.033,0.026,0.03,0.047l-0.17,0.753c-0.003,0.02-0.026,0.034-0.047,0.03L156.441,27.566z"/>
		<path fill="#585857" d="M140.646,24.297l0.768,0.173c0.087,0.021,0.145,0.107,0.124,0.197l-0.17,0.754
			c-0.021,0.086-0.106,0.143-0.197,0.123l-0.767-0.173c-0.088-0.02-0.146-0.107-0.125-0.197l0.172-0.754
			C140.471,24.334,140.561,24.277,140.646,24.297z"/>
		<path fill="#5E5E5D" d="M140.434,25.248c-0.02-0.003-0.033-0.027-0.029-0.047l0.171-0.754c0.003-0.021,0.026-0.033,0.047-0.03
			l0.769,0.173c0.02,0.003,0.031,0.027,0.028,0.047l-0.17,0.754c-0.003,0.02-0.026,0.033-0.047,0.03L140.434,25.248z"/>
		<path fill="#585857" d="M141.958,24.591l0.769,0.174c0.086,0.02,0.144,0.106,0.123,0.196l-0.17,0.754
			c-0.021,0.087-0.106,0.144-0.197,0.124l-0.768-0.173c-0.087-0.02-0.145-0.107-0.124-0.197l0.171-0.754
			C141.782,24.628,141.872,24.571,141.958,24.591z"/>
		<path fill="#5E5E5D" d="M141.745,25.542c-0.021-0.003-0.033-0.027-0.03-0.046l0.17-0.754c0.004-0.02,0.027-0.034,0.047-0.03
			l0.769,0.174c0.021,0.003,0.032,0.026,0.028,0.046l-0.17,0.754c-0.002,0.02-0.025,0.033-0.047,0.03L141.745,25.542z"/>
		<path fill="#585857" d="M143.27,24.888l0.769,0.173c0.086,0.02,0.144,0.107,0.123,0.197l-0.17,0.754
			c-0.021,0.087-0.107,0.144-0.197,0.124l-0.769-0.173c-0.086-0.02-0.144-0.107-0.123-0.197l0.175-0.754
			C143.096,24.921,143.184,24.868,143.27,24.888z"/>
		<path fill="#5E5E5D" d="M143.057,25.838c-0.021-0.003-0.035-0.027-0.031-0.047l0.17-0.754c0.005-0.02,0.027-0.033,0.048-0.03
			l0.768,0.173c0.021,0.003,0.033,0.027,0.03,0.047l-0.17,0.753c-0.004,0.021-0.027,0.034-0.047,0.03L143.057,25.838z"/>
		<path fill="#585857" d="M144.58,25.182l0.768,0.173c0.086,0.02,0.145,0.106,0.123,0.197l-0.171,0.754
			c-0.021,0.086-0.106,0.143-0.196,0.123l-0.767-0.173c-0.087-0.02-0.144-0.107-0.124-0.197l0.17-0.754
			C144.407,25.218,144.493,25.161,144.58,25.182z"/>
		<path fill="#5E5E5D" d="M144.367,26.132c-0.02-0.003-0.034-0.026-0.03-0.046l0.17-0.754c0.003-0.02,0.027-0.034,0.048-0.03
			l0.766,0.173c0.021,0.003,0.033,0.026,0.031,0.046l-0.17,0.754c-0.005,0.02-0.026,0.033-0.048,0.03L144.367,26.132z"/>
		<path fill="#585857" d="M150.59,26.532l-4.706-1.057c-0.087-0.02-0.17,0.033-0.19,0.12l-0.184,0.812
			c-0.013,0.061,0.024,0.12,0.084,0.134l4.75,1.067c0.086,0.02,0.176-0.037,0.196-0.124l0.17-0.754
			C150.734,26.642,150.68,26.552,150.59,26.532z"/>
		<path fill="#5E5E5D" d="M145.641,26.419l0.18-0.797c0.005-0.017,0.023-0.03,0.041-0.023l4.705,1.058
			c0.021,0.003,0.033,0.026,0.031,0.046l-0.171,0.754c-0.003,0.02-0.026,0.033-0.047,0.03L145.641,26.419z"/>
		<path fill="#585857" d="M151.139,26.656l0.767,0.173c0.088,0.02,0.145,0.107,0.125,0.197l-0.173,0.754
			c-0.02,0.087-0.104,0.144-0.194,0.124l-0.769-0.174c-0.086-0.02-0.144-0.106-0.123-0.197l0.17-0.753
			C150.961,26.692,151.048,26.636,151.139,26.656z"/>
		<path fill="#5E5E5D" d="M150.924,27.606c-0.02-0.003-0.033-0.027-0.029-0.047l0.17-0.754c0.004-0.02,0.026-0.033,0.047-0.03
			l0.768,0.173c0.021,0.003,0.034,0.027,0.03,0.047l-0.171,0.754c-0.004,0.02-0.026,0.033-0.047,0.03L150.924,27.606z"/>
		<path fill="#585857" d="M152.449,26.953l0.767,0.173c0.086,0.02,0.144,0.107,0.123,0.197l-0.17,0.754
			c-0.021,0.087-0.106,0.144-0.196,0.124l-0.768-0.174c-0.087-0.02-0.143-0.106-0.123-0.197l0.17-0.753
			C152.271,26.986,152.361,26.933,152.449,26.953z"/>
		<path fill="#5E5E5D" d="M152.234,27.903c-0.021-0.003-0.032-0.027-0.029-0.047l0.17-0.754c0.004-0.02,0.027-0.033,0.047-0.03
			l0.768,0.173c0.021,0.003,0.033,0.027,0.029,0.047l-0.17,0.754c-0.003,0.02-0.027,0.033-0.047,0.03L152.234,27.903z"/>
		<path fill="#585857" d="M153.759,27.246l0.767,0.173c0.089,0.02,0.146,0.107,0.125,0.197l-0.17,0.754
			c-0.021,0.087-0.106,0.144-0.196,0.124l-0.769-0.173c-0.086-0.02-0.144-0.107-0.123-0.197l0.17-0.753
			C153.582,27.283,153.672,27.226,153.759,27.246z"/>
		<path fill="#5E5E5D" d="M153.546,28.197c-0.021-0.003-0.032-0.027-0.03-0.047l0.17-0.754c0.004-0.02,0.027-0.033,0.047-0.03
			l0.769,0.173c0.021,0.003,0.033,0.027,0.029,0.047l-0.171,0.753c-0.004,0.021-0.022,0.034-0.047,0.03L153.546,28.197z"/>
		<path fill="#585857" d="M155.07,27.54l0.767,0.173c0.087,0.02,0.144,0.106,0.124,0.197l-0.17,0.754
			c-0.02,0.086-0.107,0.143-0.197,0.124l-0.767-0.174c-0.087-0.021-0.144-0.106-0.124-0.197l0.17-0.754
			C154.896,27.576,154.982,27.52,155.07,27.54z"/>
		<path fill="#5E5E5D" d="M154.855,28.49c-0.021-0.003-0.032-0.026-0.029-0.047l0.171-0.754c0.003-0.02,0.026-0.033,0.046-0.03
			l0.768,0.173c0.021,0.003,0.033,0.027,0.029,0.047l-0.17,0.754c-0.003,0.02-0.025,0.033-0.046,0.03L154.855,28.49z"/>
		<path fill="#585857" d="M156.381,27.836l0.768,0.173c0.086,0.02,0.145,0.107,0.123,0.197l-0.17,0.754
			c-0.02,0.087-0.105,0.144-0.197,0.124l-0.766-0.173c-0.088-0.02-0.145-0.107-0.125-0.197l0.17-0.754
			C156.208,27.87,156.295,27.816,156.381,27.836z"/>
		<path fill="#5E5E5D" d="M156.168,28.787c-0.02-0.003-0.033-0.027-0.029-0.047l0.17-0.754c0.002-0.02,0.026-0.033,0.047-0.03
			l0.768,0.173c0.021,0.003,0.031,0.027,0.029,0.047l-0.17,0.754c-0.004,0.02-0.026,0.033-0.047,0.03L156.168,28.787z"/>
		<path fill="#EDEDED" d="M150.354,28.66l-3.85-0.864c-0.173-0.04-0.346,0.07-0.383,0.244l-0.464,2.058
			c-0.04,0.174,0.069,0.347,0.243,0.384l3.85,0.864c0.173,0.04,0.348-0.07,0.384-0.244l0.464-2.058
			C150.637,28.87,150.527,28.7,150.354,28.66z"/>
		<path fill="#9D9B9B" d="M150.384,28.537l-3.85-0.864c-0.24-0.054-0.479,0.097-0.533,0.337l-0.464,2.058
			c-0.053,0.24,0.097,0.48,0.337,0.534l3.849,0.864c0.24,0.053,0.481-0.097,0.534-0.337l0.464-2.058
			C150.773,28.83,150.624,28.593,150.384,28.537z M150.137,31.102c-0.039,0.174-0.21,0.284-0.384,0.244l-3.849-0.864
			c-0.174-0.04-0.283-0.21-0.243-0.384l0.463-2.058c0.04-0.173,0.21-0.283,0.384-0.243l3.85,0.864
			c0.172,0.04,0.283,0.21,0.242,0.384L150.137,31.102z"/>
		<path fill="#DFDFDE" d="M145.889,29.083l-0.228,1.014c-0.04,0.173,0.069,0.347,0.243,0.384l3.85,0.864
			c0.173,0.04,0.346-0.07,0.383-0.244l0.228-1.014L145.889,29.083z"/>
		<path fill="#D9D9DA" d="M148.109,29.581l-2.221-0.5l-0.229,1.014c-0.04,0.173,0.068,0.347,0.242,0.383l1.908,0.431L148.109,29.581
			z"/>
		<path fill="#E3E1E1" d="M159.59,22.753l-18.898-4.25c-0.109-0.026-0.188-0.13-0.178-0.243l1.979-10.814
			c0.026-0.297,0.307-0.5,0.597-0.434l19.249,4.33c0.291,0.066,0.457,0.37,0.354,0.65l-2.838,10.617
			C159.813,22.716,159.703,22.78,159.59,22.753z"/>
		<path fill="#C7C7C6" d="M141.338,17.466l1.825-9.129c0.026-0.28,0.29-0.474,0.563-0.41l17.642,3.966
			c0.272,0.06,0.43,0.35,0.333,0.614l-2.254,9.029c-0.08,0.22-0.312,0.343-0.541,0.293l-17.204-3.869
			C141.471,17.91,141.318,17.696,141.338,17.466z"/>
		<path fill="#C6E6F2" d="M141.465,17.479l1.824-9.136c0.02-0.203,0.21-0.343,0.41-0.296l17.648,3.969
			c0.195,0.043,0.313,0.254,0.242,0.444l-2.261,9.036c-0.058,0.16-0.226,0.25-0.392,0.213l-17.215-3.873
			C141.561,17.8,141.448,17.646,141.465,17.479z"/>
		<path opacity="0.24" fill="#B6E0ED" enable-background="new    " d="M141.738,16.605c0.326-0.587,0.772-1.141,1.268-1.601
			c1.28-1.191,3.064-1.848,4.746-2.208c1.98-0.427,4.2-1.301,6.214-1.124c2.796,0.24,4.687,0.667,7.335,1.578l0.29-0.791
			c0.07-0.19-0.043-0.4-0.243-0.444L143.7,8.046c-0.196-0.043-0.392,0.097-0.41,0.296l-1.794,8.806
			C141.555,16.953,141.65,16.762,141.738,16.605z"/>
		<path fill="#585857" d="M156.852,22.139l-13.449-3.025l0.008-0.227l13.559,3.048L156.852,22.139z"/>
		<path fill="#3C3C3B" d="M152.473,9.548c0.021-0.083,0.104-0.137,0.188-0.117c0.083,0.021,0.137,0.104,0.115,0.187
			c-0.02,0.083-0.104,0.137-0.187,0.117C152.505,9.718,152.452,9.634,152.473,9.548z"/>
		<path fill="#585857" d="M152.516,9.558c0.015-0.06,0.073-0.097,0.133-0.083c0.062,0.014,0.098,0.074,0.084,0.134
			s-0.072,0.097-0.133,0.083S152.502,9.618,152.516,9.558z"/>
		<path fill="#B6E0ED" d="M152.579,9.574c0.006-0.023,0.03-0.04,0.053-0.033s0.04,0.03,0.033,0.053
			c-0.006,0.023-0.03,0.04-0.054,0.034C152.589,9.621,152.572,9.598,152.579,9.574z"/>
	</g>
	<path fill="#FDFFFC" d="M32.808,84.637c-0.897-3.791-4.688-6.129-8.459-5.229c-3.776,0.9-6.105,4.708-5.208,8.494
		c0.632,2.66,2.69,4.604,5.167,5.214c0.143,0.379,0.408,2.677,0.881,3.414c0.214,0.331,0.484,0.389,0.897,0.301
		c0.332,1.183,1.717,2.269,2.859,2.16c0.8-0.077,1.381-0.63,1.641-1.371c0.204-0.578,0.367-1.244,0.469-1.89
		c0.55-0.016,0.815-0.071,0.79-0.588c-0.046-0.896-1.014-3.361-1.05-3.74C32.553,89.729,33.409,87.18,32.808,84.637z"/>
	<path fill="#AEB4FC" d="M29.154,84.382c-0.107-0.384-0.484-0.64-0.882-0.542c-0.372,0.086-0.652,0.501-0.54,0.885
		c0.066,0.235,0.24,0.426,0.449,0.512c-0.153,0.992-0.347,1.971-0.428,2.974c-0.077,0.933-0.153,1.842-0.357,2.748
		c-1.105-1.663-2.207-3.321-3.424-4.901c0.336-0.322,0.082-1.045-0.484-0.91c-0.667,0.158-0.423,1.201,0.25,1.043
		c0.005,0,0.01-0.006,0.015-0.01c1.264,1.795,2.502,3.616,3.532,5.563c0.112,0.209,0.417,0.163,0.489-0.053
		c0.336-1.002,0.433-2.025,0.504-3.074c0.082-1.131,0.301-2.241,0.393-3.367C29.011,85.134,29.256,84.745,29.154,84.382z"/>
	<path fill="#808AFF" d="M20.668,78.201c-1.422-0.707-2.849-1.417-4.271-2.129c-0.295-0.143-0.565,0.282-0.27,0.44
		c1.386,0.767,2.777,1.53,4.164,2.297C20.699,79.035,21.076,78.405,20.668,78.201z"/>
	<path fill="#808AFF" d="M23.344,72.777c-0.117-0.261-0.454-0.072-0.428,0.164c0.173,1.474,0.719,2.978,1.146,4.4
		c0.107,0.348,0.642,0.23,0.556-0.133C24.267,75.744,23.961,74.153,23.344,72.777z"/>
	<path fill="#808AFF" d="M29.969,72.347c-0.367,0.322-0.591,0.834-0.82,1.264c-0.24,0.45-0.454,0.911-0.658,1.376
		c-0.163,0.378,0.464,0.578,0.622,0.189c0.189-0.476,0.393-0.937,0.627-1.392c0.199-0.394,0.489-0.778,0.606-1.202
		C30.413,72.352,30.137,72.193,29.969,72.347z"/>
</g>
<g>
	<g>
		<g>
			<path fill="#E09A61" d="M71.494,39.232c1.222,1.137,1.463,1.648,2.658-0.924c0.042-0.085,0.084-0.171,0.128-0.256
				c0.44-0.867,1.166-1.947,1.578-2.416c0.44-0.512,0.682-0.839,0.71-1.592c0.028-0.754-0.015-1.947,0.028-2.502
				c0.014-0.142,0.014-0.284,0.014-0.426c0-0.413,0.099-0.824,0.298-1.194c0.015-0.014,0.015-0.029,0.029-0.042
				c0.113-0.214,0.27-0.412,0.44-0.597c0.142-0.142,0.327-0.327,0.426-0.469c0.198-0.284,0.028-0.597,0.028-0.597
				c0.228-0.271-0.014-0.696-0.014-0.696s0.142-0.398,0.057-0.484c-0.086-0.086-0.285,0.015-0.285,0.015s0.015-0.313-0.142-0.313
				s-1.791,1.124-1.961,1.279c-0.17,0.157-1.137,1.294-1.294,1.563c-0.155,0.271-0.155,0.98-0.199,1.421
				c-0.042,0.441-0.313,2.217-0.313,2.217c-0.17,0.511-0.341,0.697-0.341,0.697c-0.114,0.128-0.456,0.498-0.853,0.91
				c-0.683,0.724-1.521,1.578-1.521,1.578S70.115,37.953,71.494,39.232z"/>
			<g>
				<g>
					<g>
						<path fill="#C47947" d="M77.818,28.232c-1.308,1.108-1.166,0.966-2.047,2.529c0.086-0.511,0.384-1.095,0.697-1.493
							C76.88,28.886,77.391,28.474,77.818,28.232z"/>
						<path fill="#C47947" d="M77.804,27.536c-0.555,0.483-1.293,0.967-1.805,1.521c-0.271,0.398-0.554,0.867-0.839,1.25
							c0.142-0.497,0.469-1.094,0.81-1.492C76.553,28.374,77.221,27.863,77.804,27.536z"/>
						<path fill="#C47947" d="M77.59,27.066c-0.554,0.44-1.279,0.98-1.819,1.45c-0.383,0.498-0.739,1.038-1.151,1.506
							c0.228-0.54,0.682-1.123,1.066-1.577C76.297,27.962,76.965,27.422,77.59,27.066z"/>
					</g>
				</g>
			</g>
		</g>
	</g>
	<g>
		<g>
			<path fill="#E09A61" d="M96.265,39.46c-1.222,1.137-1.463,1.648-2.657-0.924c-0.042-0.085-0.085-0.17-0.128-0.255
				c-0.44-0.867-1.165-1.947-1.577-2.416c-0.441-0.512-0.683-0.839-0.711-1.592c-0.028-0.753,0.015-1.948-0.028-2.501
				c-0.014-0.142-0.014-0.285-0.014-0.427c0-0.412-0.1-0.824-0.299-1.193c-0.014-0.015-0.014-0.029-0.028-0.042
				c-0.114-0.214-0.271-0.413-0.44-0.597c-0.143-0.143-0.327-0.327-0.427-0.469c-0.199-0.284-0.028-0.597-0.028-0.597
				c-0.228-0.27,0.014-0.697,0.014-0.697s-0.142-0.397-0.057-0.483c0.086-0.086,0.285,0.014,0.285,0.014s-0.016-0.313,0.142-0.313
				c0.156,0,1.79,1.123,1.962,1.279c0.17,0.157,1.136,1.294,1.293,1.564c0.156,0.269,0.156,0.98,0.199,1.421
				c0.042,0.44,0.312,2.217,0.312,2.217c0.171,0.512,0.342,0.697,0.342,0.697c0.113,0.128,0.455,0.498,0.853,0.91
				c0.683,0.724,1.521,1.578,1.521,1.578S97.658,38.181,96.265,39.46z"/>
			<g>
				<g>
					<g>
						<path fill="#C47947" d="M89.955,28.46c1.308,1.107,1.165,0.966,2.046,2.529c-0.084-0.511-0.383-1.095-0.695-1.493
							C90.893,29.127,90.382,28.701,89.955,28.46z"/>
						<path fill="#C47947" d="M89.97,27.763c0.554,0.483,1.293,0.966,1.804,1.521c0.271,0.398,0.555,0.867,0.84,1.25
							c-0.143-0.498-0.469-1.094-0.81-1.492C91.22,28.616,90.552,28.104,89.97,27.763z"/>
						<path fill="#C47947" d="M90.183,27.294c0.555,0.441,1.278,0.98,1.818,1.45c0.385,0.498,0.739,1.038,1.152,1.507
							c-0.228-0.54-0.683-1.124-1.066-1.578C91.477,28.189,90.808,27.649,90.183,27.294z"/>
					</g>
				</g>
			</g>
		</g>
	</g>
	<g>
		<g>
			<g>
				<g>
					<polygon fill="#E09A61" points="87.468,45.244 80.078,45.244 80.149,44.576 80.276,43.269 80.276,43.254 80.589,40.156 
						80.831,37.796 86.715,37.796 86.942,40.057 87.255,43.126 87.27,43.283 87.396,44.633 					"/>
					<path fill="#C47947" d="M86.942,40.057c-0.626,0.525-1.25,0.853-1.734,1.052c-0.128,0.057-0.27,0.085-0.427,0.071
						c-0.341-0.014-0.71-0.014-1.08-0.014c-0.383,0-0.739,0-1.094,0.014c-0.143,0-0.284-0.014-0.426-0.071
						c-0.456-0.199-1.023-0.498-1.606-0.952l0.242-2.36H86.7L86.942,40.057z"/>
				</g>
				<g>
					<path fill="#E09A61" d="M88.975,32.026c1.719-0.767,1.065,1.833,0.725,2.743c-0.128,0.342-0.256,1.236-0.924,1.108
						L88.975,32.026z"/>
					<path fill="#E09A61" d="M78.471,32.026c-1.72-0.767-1.065,1.833-0.724,2.743c0.128,0.342,0.255,1.236,0.923,1.108
						L78.471,32.026z"/>
				</g>
				<path fill="#E09A61" d="M89.003,32.467c-0.071,1.052-0.1,2.103-0.128,2.999c-0.043,0.469-0.171,1.151-0.526,1.919
					c-0.127,0.256-0.454,0.924-1.079,1.606c-0.754,0.796-1.564,1.25-2.161,1.521c-0.128,0.057-0.27,0.085-0.412,0.071
					c-0.327-0.014-0.654-0.014-0.995-0.014c-0.326,0-0.653,0-0.98,0.014c-0.142,0-0.284-0.014-0.412-0.071
					c-0.597-0.255-1.407-0.71-2.16-1.521c-0.64-0.682-0.967-1.336-1.081-1.606c-0.355-0.768-0.483-1.463-0.525-1.919
					c-0.028-0.896-0.057-1.947-0.128-2.999c-0.398-1.862,0.199-4.264,0.867-5.401c0.611-0.796,2.799-0.298,4.434-0.298
					c1.634,0,3.822-0.498,4.434,0.298C88.804,28.204,89.401,30.605,89.003,32.467z"/>
				<g>
					<g>
						<path fill="#FFFFFF" d="M82.394,32.751c-0.185,0.142-0.554,0.383-1.109,0.469c-0.724,0.1-1.264-0.17-1.463-0.27
							c0.199-0.27,0.454-0.483,0.739-0.611c0.284-0.128,0.597-0.185,0.895-0.128c0.071,0.015,0.143,0.028,0.199,0.042
							C82.053,32.396,82.294,32.652,82.394,32.751z"/>
						<path fill="#8A5D3B" d="M81.812,32.567c0.028,0.326-0.313,0.625-0.64,0.64c-0.341,0.014-0.71-0.242-0.71-0.569
							c0-0.099,0.042-0.199,0.1-0.285c0.284-0.127,0.597-0.184,0.895-0.127c0.071,0.014,0.143,0.028,0.199,0.042
							C81.741,32.353,81.798,32.453,81.812,32.567z"/>
						<path d="M80.845,32.652c0.029,0.185,0.213,0.313,0.413,0.285c0.184-0.028,0.313-0.214,0.284-0.413
							c-0.029-0.184-0.213-0.312-0.412-0.284C80.931,32.282,80.803,32.467,80.845,32.652z"/>
						<path fill="#FFFFFF" d="M80.674,32.623c0.015,0.072,0.086,0.114,0.157,0.114c0.071-0.015,0.113-0.085,0.1-0.156
							c-0.015-0.071-0.086-0.114-0.157-0.114C80.703,32.481,80.661,32.552,80.674,32.623z"/>
						<path fill="#3B2314" d="M84.839,30.847c0.782,0.398,1.748,0.768,2.771,0.91c0.171,0.028,0.498-0.043,0.667-0.285
							c0.114-0.17,0.101-0.355,0.071-0.469c-0.127,0.043-0.326,0.086-0.567,0.114c-0.327,0.028-0.654-0.015-1.407-0.271
							c-0.37-0.127-0.839-0.298-1.379-0.554c-0.028,0.042-0.057,0.099-0.085,0.17C84.854,30.605,84.839,30.748,84.839,30.847z"/>
						<path fill="#3B2314" d="M82.394,32.751c-0.113-0.085-0.64-0.455-1.364-0.383c-0.668,0.071-1.095,0.469-1.208,0.582
							c0.014-0.042,0.412-0.768,1.25-0.824C81.882,32.083,82.365,32.709,82.394,32.751z"/>
					</g>
					<g>
						<path fill="#FFFFFF" d="M85.038,32.695c0.17,0.142,0.54,0.412,1.095,0.525c0.71,0.128,1.279-0.099,1.478-0.199
							c-0.186-0.284-0.427-0.498-0.711-0.64c-0.284-0.142-0.583-0.213-0.895-0.17c-0.071,0.015-0.142,0.028-0.199,0.042
							C85.394,32.339,85.137,32.581,85.038,32.695z"/>
						<path fill="#8A5D3B" d="M85.621,32.523c-0.043,0.327,0.269,0.641,0.61,0.668c0.342,0.028,0.711-0.213,0.739-0.54
							c0-0.1-0.028-0.213-0.085-0.299c-0.285-0.142-0.583-0.212-0.896-0.17c-0.071,0.015-0.142,0.029-0.198,0.043
							C85.706,32.311,85.635,32.41,85.621,32.523z"/>
						<path d="M86.587,32.667c-0.043,0.184-0.228,0.313-0.426,0.255c-0.186-0.042-0.313-0.227-0.256-0.427
							c0.042-0.185,0.228-0.313,0.426-0.255C86.516,32.297,86.629,32.481,86.587,32.667z"/>
						<path fill="#FFFFFF" d="M86.757,32.638c-0.014,0.071-0.084,0.114-0.156,0.1c-0.071-0.015-0.113-0.085-0.099-0.156
							c0.014-0.071,0.085-0.114,0.155-0.1C86.729,32.495,86.771,32.567,86.757,32.638z"/>
						<path fill="#3B2314" d="M82.593,30.804c-0.768,0.427-1.719,0.81-2.742,0.98c-0.17,0.029-0.512-0.028-0.668-0.269
							c-0.114-0.157-0.1-0.355-0.086-0.455c0.128,0.042,0.327,0.084,0.569,0.1c0.327,0.014,0.654-0.043,1.392-0.313
							c0.356-0.127,0.825-0.326,1.365-0.583c0.029,0.042,0.057,0.1,0.086,0.17C82.565,30.563,82.579,30.705,82.593,30.804z"/>
						<path fill="#3B2314" d="M85.038,32.695c0.128-0.086,0.654-0.427,1.393-0.313c0.668,0.1,1.065,0.526,1.165,0.64
							c-0.014-0.042-0.369-0.782-1.208-0.881C85.578,32.041,85.066,32.652,85.038,32.695z"/>
					</g>
				</g>
				<path d="M89.372,25.447c-0.653-1.066-3.211-2.232-5.656-2.246c-2.445,0.014-5.003,1.179-5.657,2.246
					c-1.392,1.392-1.122,5.102-0.583,6.665c0,0,0.213-0.412,0.98-0.085c-0.199-0.98,0.1-3.993,1.066-5.145
					c1.023-0.313,2.345-0.113,4.178-0.028c1.833-0.085,3.155-0.27,4.179,0.028c0.98,1.152,1.278,4.165,1.064,5.145
					c0.768-0.327,0.981,0.085,0.981,0.085C90.51,30.549,90.766,26.839,89.372,25.447z"/>
				<g>
					<g>
						<path fill="#C47947" d="M84.71,35.835l-0.497,0.242c-0.299,0.156-0.668,0.156-0.967,0l-0.498-0.242l0.824,0.114
							c0.101,0.014,0.199,0.014,0.299,0L84.71,35.835z"/>
					</g>
				</g>
				<g>
					<path fill="#C47947" d="M83.688,37.683c-1.009-0.029-1.62,0.128-1.635,0.071c-0.014-0.071,0.726-0.398,1.621-0.412
						c1.107-0.015,2.032,0.483,2.003,0.568C85.648,37.981,84.938,37.712,83.688,37.683z"/>
				</g>
				<g>
					<path fill="#C47947" d="M84.455,38.905c0,0.057-0.298,0.085-0.683,0.085c-0.37,0-0.682-0.042-0.682-0.085
						c0-0.057,0.298-0.085,0.682-0.085C84.157,38.82,84.455,38.862,84.455,38.905z"/>
				</g>
			</g>
			<g>
				<polygon fill="#3B2314" points="84.015,36.489 83.943,36.916 86.444,37.3 				"/>
				<path fill="#3B2314" d="M83.432,36.503l0.071,0.427c-0.454,0.085-0.895,0.156-1.35,0.242c-0.383,0.071-0.768,0.128-1.151,0.199
					c0.014,0,1.194-0.426,1.194-0.426C82.224,36.93,83.418,36.503,83.432,36.503z"/>
			</g>
			<g>
				<polygon points="90.325,26.854 77.107,26.854 77.846,22.135 89.585,22.135 				"/>
				<g>
					<path fill="#DC2428" d="M69.688,26.598l0.327-1.279c0,0,0.057,0.014,0.184,0.042l0,0c0.128,0.029,0.327,0.071,0.597,0.128l0,0
						c0.54,0.099,1.336,0.256,2.388,0.398l0,0c2.089,0.284,5.188,0.568,9.139,0.568l0,0c3.951,0,8.755-0.285,14.298-1.152l0,0
						l0.198,1.308c-5.613,0.882-10.488,1.166-14.51,1.166l0,0C74.308,27.791,69.746,26.611,69.688,26.598L69.688,26.598z"/>
				</g>
			</g>
		</g>
	</g>
	<g>
		<g>
			<g>
				<path fill="#E09A61" d="M93.935,116.817c1.009,3.026,1.266,5.713,0.881,8.2c-0.823,5.216-3.993,9.082-5.329,14.17
					c-0.028,1.705,0.028,3.098,0.099,4.051c0.214,3.438,0.684,5.485-0.341,6.153c-0.313,0.213-0.695,0.241-1.037,0.271
					c-0.995,0.07-1.848-0.385-2.302-0.753c-1.378-1.138-1.066-3.397-0.924-5.487c0.086-1.264,0.142-2.302,0.299-2.927
					c-0.653-0.653-0.113-1.293,0.214-1.62c2.131-11.256-0.498-11.612,0.142-16.813c0.313-2.559,1.833-4.179,1.833-6.779
					c-0.156-1.862-2.246-5.473-1.18-9.039c-1.521-4.122-0.454-8.399-1.151-13.346c-0.228-1.605-0.625-3.553-0.98-5.073
					c-0.356,1.521-0.754,3.468-0.98,5.073c-0.697,4.946,0.37,9.224-1.152,13.346c1.066,3.566-1.023,7.177-1.18,9.039
					c0,2.601,1.521,4.234,1.834,6.779c0.64,5.216-1.99,5.571,0.142,16.813c0.327,0.327,0.867,0.967,0.213,1.62
					c0.228,0.81,0.243,1.733,0.327,2.856c0.128,1.492,0.213,2.828,0.058,3.837c-0.285,1.834-2.303,3.539-3.439,3.212
					c-1.436-0.412-1.507-3.993-1.507-4.32c-0.014-1.293,0.271-1.72,0.413-3.554c0.1-1.421,0.029-2.601-0.042-3.354
					c-1.336-5.088-4.506-8.954-5.33-14.169c-0.398-2.487-0.142-5.174,0.867-8.201c3.496-10.46-4.932-16.501-1.934-29.362
					l11.697,0.326l11.697-0.326C98.88,100.316,90.438,106.357,93.935,116.817z"/>
				<path fill="#E09A61" d="M104.665,56.515c-0.824,0.454-1.705,0.994-2.615,1.634c-1.278,0.896-2.359,1.819-3.27,2.672
					c-0.298-0.427-0.682-0.924-1.179-1.436c-0.555-0.569-1.094-0.995-1.563-1.308c-1.01,2.046-2.189,5.031-2.8,8.797
					c-0.668,4.164-0.37,7.689,0.028,10.048c-1.989,2.004-16.259,2.004-18.248,0c0.298-2.786,0.426-6.196,0.028-10.048
					c-0.612-5.941-2.232-10.745-3.695-14.141c-2.289,2.573-4.591,5.131-6.879,7.703c0.042-1.605,0.299-7.177,2.089-10.942
					c0.512-1.081,1.151-1.721,1.806-2.388c0.27-0.271,2.544-1.081,4.064-1.251c2.587-0.227,5.614-1.35,7.078-2.515l4.647,0.98
					l4.477-1.137c1.464,1.166,4.633,2.458,7.233,2.671c1.521,0.17,3.795,0.98,4.064,1.251c0.825,1.037,1.734,2.345,2.573,3.922
					C103.613,53.089,104.268,54.979,104.665,56.515z"/>
				<g>
					<path fill="#C47947" d="M76.397,46.083c1.236-1.023,4.959-0.697,6.367,0.285L76.397,46.083z"/>
					<path fill="#C47947" d="M91.917,46.083c-1.237-1.023-4.961-0.697-6.368,0.285L91.917,46.083z"/>
				</g>
				<path fill="#4D4D4D" d="M95.995,88.08c-0.525-3.354-1.18-8.102-2.813-11.583c-3.469,0.397-14.596,0.397-18.064,0
					c-1.635,3.481-2.288,8.214-2.814,11.583c3.724,0.355,8.342,0.242,11.838,0.242C87.667,88.322,92.272,88.436,95.995,88.08z"/>
			</g>
			<g>
				<g>
					<path d="M83.943,148.838c-0.198-0.796-0.255-1.45-0.269-1.891c0,0-0.072-2.273-0.256-3.525l-0.015-0.07
						c-0.056,0-0.042,2.089-0.213,2.104c-0.028,0-0.042-0.043-0.057-0.057c-0.369-0.697-3.95-0.569-4.078-0.229l-0.071,0.086
						c-0.085,0-0.142-2.018-0.285-2.018c-0.014,0-0.029,0.028-0.029,0.042c-0.099,0.241-0.284,1.535-0.767,3.297
						c-0.085,0.313-0.498,0.782-0.612,1.321c-0.084,0.343-0.184,0.812-0.213,1.166c-0.071,1.052,0.54,2.004,0.881,2.374
						c0.938,1.022,3.042,1.108,5.017-0.142c0.441-0.285,0.768-0.726,0.895-1.252v-0.014
						C83.986,149.576,84.029,149.192,83.943,148.838z"/>
				</g>
				<path d="M94.844,76.838c-1.748-1.876-10.261,0-10.261,0h-0.596c0,0-8.499-1.876-10.262,0
					c-8.471,36.811,4.292,66.642,4.292,66.642h5.799l0.17-54.306h0.483l0.17,54.306h5.912
					C90.552,143.479,103.314,113.648,94.844,76.838z"/>
				<g>
					<polygon fill="#DC2428" points="94.844,76.838 73.725,76.838 75.501,70.045 93.067,70.045 					"/>
					<path fill="#BD1F22" d="M76.34,119.716c-5.855-23.534-1.677-42.878-1.677-42.878h8.371
						C83.033,76.838,84.128,111.928,76.34,119.716z"/>
				</g>
				<g>
					<g>
						<path fill="#FFFFFF" d="M83.745,42.998c-0.825-0.866-4.25-0.568-4.25-0.568l-0.54,1.308l5.315,0.256
							C84.285,43.979,83.972,43.226,83.745,42.998z"/>
						<path fill="#FFFFFF" d="M84.568,42.998c0.825-0.866,4.25-0.568,4.25-0.568l0.696,1.35l-5.472,0.213
							C84.042,43.979,84.341,43.226,84.568,42.998z"/>
					</g>
					<polygon fill="#FFFFFF" points="75.089,70.045 84.285,70.045 84.285,43.979 78.969,43.737 78.116,43.993 72.574,55.079 					
						"/>
					<path fill="#FFFFFF" d="M108.53,61.375c0.483-1.833-0.27-3.354-0.483-3.751c-1.833-3.838-3.666-7.675-5.485-11.512
						c-1.577,0.256-3.142,0.497-4.719,0.752c-1.18,4.08-1.776,6.154-2.941,10.219c0.284,0.426,0.71,1.052,1.236,1.762
						c1.378,1.848,2.359,3.155,3.767,4.25c1.463,1.122,2.913,2.246,4.761,1.961C106.484,64.786,108.047,63.222,108.53,61.375z"/>
					<path fill="#FFFFFF" d="M59.001,61.375c-0.483-1.833,0.27-3.354,0.483-3.751c1.833-3.838,3.667-7.675,5.486-11.512
						c1.577,0.256,3.141,0.497,4.718,0.752c1.18,4.08,1.776,6.154,2.942,10.219c-0.285,0.426-0.71,1.052-1.237,1.762
						c-1.378,1.848-2.359,3.155-3.766,4.25c-1.464,1.122-2.914,2.246-4.761,1.961C61.033,64.786,59.47,63.222,59.001,61.375z"/>
					<polygon fill="#FFFFFF" points="93.479,70.045 84.285,70.045 84.285,43.979 89.6,43.737 90.438,43.993 95.981,55.079 					"/>
					<rect x="83.872" y="44.32" fill="#E2DCDC" width="0.441" height="25.725"/>
				</g>
				<g>
					<polygon points="81.356,45.258 82.807,67.302 73.512,68.893 69.746,46.509 78.116,43.993 					"/>
					<polygon points="87.197,45.258 85.748,67.302 95.043,68.893 98.81,46.509 90.438,43.993 					"/>
				</g>
			</g>
		</g>
		<path fill="#474747" d="M77.107,148.752c-0.014,0.257-0.029,1.436,0.796,2.274c0.44,0.454,0.923,0.611,1.151,0.696
			c0.71,0.228,1.292,0.128,1.819,0.043c0.568-0.1,1.322-0.228,1.976-0.825c0.341-0.313,0.597-0.682,0.682-0.824
			c0.213-0.341,0.355-0.653,0.455-0.895c-0.015,0.44-0.029,0.895-0.043,1.336c-0.198,0.396-0.54,0.952-1.123,1.421
			c-1.264,1.009-3.297,1.308-4.662,0.241c-0.284-0.213-0.724-0.653-1.051-1.449c-0.071-0.284-0.142-0.697-0.113-1.194
			C77.008,149.264,77.05,148.979,77.107,148.752z"/>
		<g>
			<path d="M84.327,148.838c0.199-0.796,0.255-1.45,0.27-1.891c0,0,0.071-2.273,0.256-3.525l0.014-0.07
				c0.057,0,0.042,2.089,0.213,2.104c0.028,0,0.042-0.043,0.057-0.057c0.37-0.697,3.952-0.569,4.079-0.229l0.072,0.086
				c0.084,0,0.142-2.018,0.283-2.018c0.014,0,0.028,0.028,0.028,0.042c0.1,0.241,0.284,1.535,0.768,3.297
				c0.085,0.313,0.497,0.782,0.611,1.321c0.085,0.343,0.185,0.812,0.213,1.166c0.071,1.052-0.54,2.004-0.881,2.374
				c-0.938,1.022-3.041,1.108-5.017-0.142c-0.44-0.285-0.768-0.726-0.896-1.252v-0.014
				C84.285,149.576,84.241,149.192,84.327,148.838z"/>
		</g>
		<path fill="#474747" d="M91.163,148.752c0.015,0.257,0.028,1.436-0.796,2.274c-0.44,0.454-0.924,0.611-1.151,0.696
			c-0.711,0.228-1.293,0.128-1.819,0.043c-0.568-0.1-1.321-0.228-1.976-0.825c-0.341-0.313-0.597-0.682-0.682-0.824
			c-0.213-0.341-0.355-0.653-0.455-0.895c0.014,0.44,0.029,0.895,0.042,1.336c0.199,0.396,0.54,0.952,1.123,1.421
			c1.265,1.009,3.297,1.308,4.662,0.241c0.285-0.213,0.726-0.653,1.052-1.449c0.07-0.284,0.143-0.697,0.114-1.194
			C91.277,149.264,91.22,148.979,91.163,148.752z"/>
	</g>
	<line fill="none" x1="73.213" y1="71.324" x2="72.176" y2="71.324"/>
	<line fill="none" x1="63.122" y1="86.503" x2="62.483" y2="86.503"/>
	<path fill="#E09A61" d="M72.715,68.183l-0.084-0.028C72.673,68.169,72.702,68.183,72.715,68.183z"/>
	<g>
		<path fill="#FFFFFF" d="M100.018,62.1c-2.075-2.075-6.239-9.138-7.689-16.458c-0.354-1.791-1.236-3.51,0.058-5.472
			c1.193-1.037,2.97-2.217,4.832-1.918c2.587,0.426,3.255,3.368,7.433,12.023c3.411,7.078,5.23,9.778,3.895,11.739
			c-0.967,1.422-3.07,1.706-3.369,1.734C102.362,64.161,100.33,62.384,100.018,62.1z"/>
		<path fill="#FFFFFF" d="M89.116,37.243c4.876-3.396,7.788-4.647,8.769-3.752c0.669,0.611,0.441,2.203-0.667,4.762l-4.449,1.933
			c-0.341-0.015-1.292-0.086-2.217-0.783C89.5,38.621,89.188,37.555,89.116,37.243z"/>
	</g>
	<g>
		<path fill="#FFFFFF" d="M67.756,61.872c2.074-2.074,6.239-9.138,7.689-16.458c0.355-1.791,1.236-3.51-0.057-5.472
			c-1.194-1.037-2.971-2.217-4.832-1.918c-2.587,0.427-3.255,3.369-7.434,12.024c-3.411,7.078-5.229,9.778-3.894,11.74
			c0.966,1.421,3.069,1.705,3.368,1.733C65.411,63.934,67.443,62.142,67.756,61.872z"/>
		<path fill="#FFFFFF" d="M78.656,37.015c-4.875-3.397-7.788-4.647-8.769-3.752c-0.668,0.612-0.441,2.203,0.668,4.761l4.448,1.934
			c0.341-0.015,1.294-0.086,2.217-0.783C78.273,38.394,78.571,37.327,78.656,37.015z"/>
	</g>
</g>
</svg>
