<?xml version="1.0" encoding="utf-8"?>
<!-- Generator: Adobe Illustrator 16.0.0, SVG Export Plug-In . SVG Version: 6.00 Build 0)  -->
<!DOCTYPE svg PUBLIC "-//W3C//DTD SVG 1.1//EN" "http://www.w3.org/Graphics/SVG/1.1/DTD/svg11.dtd">
<svg version="1.1" id="Layer_1" xmlns="http://www.w3.org/2000/svg" xmlns:xlink="http://www.w3.org/1999/xlink" x="0px" y="0px"
	 width="824px" height="708px" viewBox="0 0 824 708" enable-background="new 0 0 824 708" xml:space="preserve">
<g>
	<defs>
		<rect id="SVGID_1_" x="-90" y="-157" width="1000" height="1000"/>
	</defs>
	<clipPath id="SVGID_2_">
		<use xlink:href="#SVGID_1_"  overflow="visible"/>
	</clipPath>
	<g clip-path="url(#SVGID_2_)">
		<defs>
			<path id="SVGID_3_" d="M358.368,64.011c-49.799,33.666-35.041,77.632-83.755,136.653
				c-39.048,47.312-57.588,30.035-123.428,85.224C108.589,321.593,41.534,377.802,38.743,457.2
				c-0.656,18.667,1.321,64.74,44.156,118.664c43.001,62.085,139.904,54.497,201.743,52.004
				c95.153-3.835,191.862,2.17,287.569,5.273c42.344,1.372,85.801,2.57,125.811-12.508c40.01-15.077,76.431-50.23,82.399-95.646
				c7.743-58.927-35.319-110.324-50.152-167.636c-15.77-60.93-3.277-137.909-48.864-177.498
				c-32.676-28.377-54.269-4.002-106.03-33.264c-63.159-35.705-57.064-84.852-109.74-101.681
				c-10.311-3.294-20.606-4.626-30.518-4.626C394.491,40.283,360.359,62.666,358.368,64.011"/>
		</defs>
		<clipPath id="SVGID_4_">
			<use xlink:href="#SVGID_3_"  overflow="visible"/>
		</clipPath>
		<path clip-path="url(#SVGID_4_)" fill="#E3F4FF" d="M780.421,524.992c-5.97,45.409-42.39,80.56-82.399,95.64
			c-40.011,15.08-83.471,13.88-125.811,12.51c-95.71-3.1-192.42-9.109-287.57-5.27c-53.05,2.14-131.91,8.029-180.4-29.55
			c-8.03-6.221-15.23-13.641-21.34-22.461c-42.84-53.92-44.81-100-44.16-118.659c1.87-53.21,32.61-96.011,65.5-129.2
			c16.18-16.33,32.89-30.34,46.94-42.11c65.84-55.19,84.38-37.92,123.43-85.23c48.72-59.02,33.96-102.99,83.76-136.65
			c2.47-1.67,54.68-35.9,107.26-19.1c52.681,16.83,46.58,65.97,109.74,101.68c51.76,29.26,73.36,4.89,106.03,33.26
			c45.59,39.59,33.1,116.57,48.87,177.5C745.102,414.662,788.161,466.062,780.421,524.992"/>
		<path clip-path="url(#SVGID_4_)" fill="#BDDEEF" d="M131.311,638.476c-5.727-12.235-14.044-34.054-14.949-62.484
			c-0.911-28.61,6.093-51.032,11.067-63.621c8.721,10.537,20.895,27.854,29.225,51.909c9.801,28.302,9.805,53.004,8.7,67.515
			C154.007,634.021,142.659,636.249,131.311,638.476"/>
		<path clip-path="url(#SVGID_4_)" fill="#FFFFFF" d="M147.81,635.401c-4.674-9.43-7.172-19.677-9.415-29.885
			c-6.306-30.664-9.1-61.938-10.967-93.146c2.147,31.159,5.222,62.399,11.796,92.965c2.309,10.082,4.9,20.295,9.589,29.541
			L147.81,635.401"/>
		<path clip-path="url(#SVGID_4_)" fill="#99CCE0" d="M184.131,632.203c3.877-19.121,8.915-52.81,5.655-94.563
			c-3.281-42.015-13.488-73.277-20.248-90.604c-7.088,17.285-16.6,45.229-21.324,82.188c-5.558,43.485-1.951,79.593,1.263,100.565
			C161.028,630.594,172.581,631.398,184.131,632.203"/>
		<path clip-path="url(#SVGID_4_)" fill="#FFFFFF" d="M166.156,630.84c3.364-14.935,4.4-30.348,5.223-45.622
			c2.042-46.037,0.561-92.182-1.841-138.182c2.978,53.651,5.651,107.604,1.363,161.254c-0.749,7.658-1.71,15.315-3.405,22.866
			L166.156,630.84z"/>
		<path clip-path="url(#SVGID_4_)" fill="#BDDEEF" d="M204.787,632.203c2.255-11.12,5.185-30.713,3.289-54.994
			c-1.908-24.436-7.844-42.615-11.776-52.692c-4.122,10.052-9.654,26.303-12.401,47.798c-3.233,25.289-1.135,46.289,0.734,58.485
			C191.351,631.268,198.069,631.735,204.787,632.203"/>
		<path clip-path="url(#SVGID_4_)" fill="#FFFFFF" d="M194.333,631.41c1.376-6.28,2.151-13.404,2.636-19.851
			c1.784-28.974,0.814-58.076-0.669-87.043c1.7,28.967,2.887,58.081,1.318,87.087c-0.441,6.498-1.164,13.644-2.506,19.991
			L194.333,631.41"/>
		<path clip-path="url(#SVGID_4_)" fill="#99CCE0" d="M104.241,328.002v270.32c-8.03-6.221-15.23-13.641-21.34-22.461
			c-42.84-53.92-44.81-100-44.16-118.659C40.611,403.992,71.351,361.191,104.241,328.002"/>
		<rect x="344.016" y="157.464" clip-path="url(#SVGID_4_)" fill="#E8E8E8" width="109.552" height="149.878"/>
		<path clip-path="url(#SVGID_4_)" fill="#99CCE0" d="M455.569,309.341H342.016V155.463h113.553V309.341z M346.016,305.341h105.553
			V159.463H346.016V305.341z"/>
		<rect x="453.568" y="157.464" clip-path="url(#SVGID_4_)" fill="#E8E8E8" width="109.552" height="149.878"/>
		<path clip-path="url(#SVGID_4_)" fill="#99CCE0" d="M565.121,309.341H451.569V155.463h113.552V309.341z M455.569,305.341h105.552
			V159.463H455.569V305.341z"/>
		<rect x="344.016" y="307.341" clip-path="url(#SVGID_4_)" fill="#E8E8E8" width="109.552" height="149.878"/>
		<path clip-path="url(#SVGID_4_)" fill="#99CCE0" d="M455.568,459.219H342.016V305.341h113.552V459.219z M346.016,455.219h105.552
			V309.341H346.016V455.219z"/>
		<rect x="453.568" y="307.341" clip-path="url(#SVGID_4_)" fill="#E8E8E8" width="109.552" height="149.878"/>
		<path clip-path="url(#SVGID_4_)" fill="#99CCE0" d="M565.121,459.219H451.569V305.341h113.552V459.219z M455.568,455.219H561.12
			V309.341H455.568V455.219z"/>
		<g opacity="0.57" clip-path="url(#SVGID_4_)">
			<g>
				<defs>
					<rect id="SVGID_5_" x="89.673" y="159.44" width="640.654" height="503.088"/>
				</defs>
				<clipPath id="SVGID_6_">
					<use xlink:href="#SVGID_5_"  overflow="visible"/>
				</clipPath>
				<g clip-path="url(#SVGID_6_)">
					<defs>
						<polygon id="SVGID_7_" points="346.061,159.44 89.673,657.98 730.327,662.528 561.061,159.504 						"/>
					</defs>
					<clipPath id="SVGID_8_">
						<use xlink:href="#SVGID_7_"  overflow="visible"/>
					</clipPath>
					<defs>
						<filter id="Adobe_OpacityMaskFilter" filterUnits="userSpaceOnUse" x="87.025" y="156.068" width="645.949" height="509.831">
							<feColorMatrix  type="matrix" values="1 0 0 0 0  0 1 0 0 0  0 0 1 0 0  0 0 0 1 0"/>
						</filter>
					</defs>
					<mask maskUnits="userSpaceOnUse" x="87.025" y="156.068" width="645.949" height="509.831" id="SVGID_9_">
						<g filter="url(#Adobe_OpacityMaskFilter)">
							
								<linearGradient id="SVGID_10_" gradientUnits="userSpaceOnUse" x1="-90" y1="843.002" x2="-89" y2="843.002" gradientTransform="matrix(4.332 823.0768 823.0768 -4.332 -693057.875 77616.2734)">
								<stop  offset="0" style="stop-color:#FFFFFF"/>
								<stop  offset="0.3735" style="stop-color:#959595"/>
								<stop  offset="0.679" style="stop-color:#454545"/>
								<stop  offset="0.8941" style="stop-color:#131313"/>
								<stop  offset="1" style="stop-color:#000000"/>
							</linearGradient>
							<polygon clip-path="url(#SVGID_8_)" fill="url(#SVGID_10_)" points="730.31,156.068 732.975,662.514 89.69,665.899 
								87.025,159.454 							"/>
						</g>
					</mask>
					
						<linearGradient id="SVGID_11_" gradientUnits="userSpaceOnUse" x1="-90" y1="843.002" x2="-89" y2="843.002" gradientTransform="matrix(4.332 823.0768 823.0768 -4.332 -693057.875 77616.2734)">
						<stop  offset="0" style="stop-color:#FFFFA4"/>
						<stop  offset="1" style="stop-color:#FFFFA4"/>
					</linearGradient>
					<polygon clip-path="url(#SVGID_8_)" mask="url(#SVGID_9_)" fill="url(#SVGID_11_)" points="730.31,156.068 732.975,662.514 
						89.69,665.899 87.025,159.454 					"/>
				</g>
			</g>
		</g>
		<path clip-path="url(#SVGID_4_)" fill="#415CA0" d="M607.894,472.868c-0.773,2.302-4.521,10.727-44.236,14.513
			c-30.531,2.911-50.263,4.507-69.534-7.657c-6.505-4.104-11.117-8.616-14.006-11.804c-0.589-0.94-1.377-2.341-2.063-4.135
			c-2.638-6.907-1.539-13.877,1.599-23.334c5.875-17.71,9.058-27.307,18.733-34.487c4.497-3.337,9.313-5.35,17.61-8.815
			c6.142-2.564,11.677-4.396,16.09-5.687c0.988-0.289,1.919-0.55,2.792-0.789c1.813-0.564,4.496-1.233,7.787-1.409
			c4.454-0.232,7.687,0.542,14.244,2.55c0.243,0.075,0.296,0.092,0.544,0.168c0,0,0.012,0.004,0.039,0.013
			c0.672,0.208,1.14,0.352,1.153,0.355c4.719,1.453,11.455,4.721,11.455,4.721c4.109,1.993,8.279,4.01,12.857,6.245
			c2.794,1.781,6.691,4.696,10.286,9.185c4.973,6.21,6.635,12.021,9.459,22.315c2.55,9.293,3.336,16.229,4.561,27.031
			C607.993,468.266,608.353,471.505,607.894,472.868"/>
		<path clip-path="url(#SVGID_4_)" fill="#345389" d="M512.612,434.847c-1.592,8.469-3.185,16.938-4.776,25.408
			c1.471,0.489,2.939,0.979,4.409,1.47L512.612,434.847z"/>
		<path clip-path="url(#SVGID_4_)" fill="#345389" d="M568.171,467.912c-0.894-1.522-1.891-3.62-2.508-6.241
			c-1.262-5.365-0.218-9.886,0.49-12.161c-11.265,1.946-20.313,1.605-26.541,0.919c-18.3-2.021-24.673-8.399-41.603-7.348
			c-6.264,0.39-17.389,1.08-21.103,8.15c-3.124,5.947,0.396,13.739,2.001,16.37C491.548,488.328,557.301,470.879,568.171,467.912"/>
		<path clip-path="url(#SVGID_4_)" fill="#EBC9AF" d="M556.91,392.279c-2.485,1.587-6.092,4.313-9.408,8.626
			c-3.033,3.947-4.695,7.771-5.617,10.446c-0.274-2.401-0.956-5.934-2.817-9.814c-2.178-4.563-5.036-7.629-6.947-9.383
			c-0.018-0.083-0.025-0.183-0.034-0.291c0.989-0.341,1.92-0.648,2.793-0.931c1.811-0.665,4.496-1.455,7.787-1.662
			C547.12,388.996,550.353,389.91,556.91,392.279"/>
		<path clip-path="url(#SVGID_4_)" fill="#EBC9AF" d="M555.854,379.51v20.546c-7.966-0.024-15.932-0.047-23.897-0.071V379.51
			H555.854z"/>
		<path clip-path="url(#SVGID_4_)" fill="#BCA18C" d="M555.854,382.326v9.012c-0.836,0.817-5.165,4.882-11.975,4.871
			c-6.776-0.01-11.081-4.048-11.923-4.871v-9.012H555.854z"/>
		<path clip-path="url(#SVGID_4_)" fill="#EBC9AF" d="M519.72,330.815c-1.59,13.283-1.179,24.016-0.473,31.408
			c0.058,0.598,0.116,1.12,0.123,1.181c0.563,4.936,1.328,11.659,4.829,17.813c2.907,5.109,6.663,8.007,7.487,8.625
			c2.537,1.906,6.67,5.029,12.596,5.009c5.769-0.021,9.853-3.004,11.002-3.87c2.878-2.165,4.655-4.848,5.919-6.753
			c1.431-2.158,2.21-3.89,2.403-4.326c1.291-2.916,1.735-5.316,2.044-7.052c0.805-4.511,0.632-8.461,0.497-11.523
			c-0.012-0.277-0.022-0.455-0.024-0.521c-0.273-6.952-0.435-17.287-0.591-30.937c-2.649-1.978-10.456-7.265-21.726-7.438
			C530.896,322.233,522.104,328.881,519.72,330.815"/>
		<path clip-path="url(#SVGID_4_)" fill="#32201B" d="M522.277,333.084c-0.295,4.567-0.801,8.22-1.22,10.763
			c-0.635,3.844-0.94,4.35-1.057,6.765c-0.12,2.48-0.511,4.954-0.456,7.437c0.021,0.925,0.089,2.571-0.68,2.915
			c-0.314,0.141-0.679,0.024-0.951-0.107c-0.31-3.482-0.576-7.041-0.792-10.677c-0.438-7.36-0.639-14.454-0.65-21.253h-2.332
			c0.433-1.003,1.938-4.158,5.58-6.199c3.709-2.079,7.256-1.67,8.324-1.506c1.714-2.009,5.674-6.019,11.866-7.35
			c4.499-0.966,8.236-0.102,10.98,0.531c1.161,0.269,3.545,0.903,10.717,4.517c2.802,1.412,6.646,3.437,11.155,6.096
			c-0.271,0.182-0.646,0.395-1.126,0.557c-0.602,0.204-1.134,0.25-1.505,0.253c0.147,0.215,0.452,0.6,0.974,0.885
			c0.69,0.376,1.345,0.354,1.606,0.329c-0.234,0.351-0.601,0.81-1.151,1.227c-0.28,0.213-0.554,0.373-0.796,0.493
			c0.104,5.829-0.159,10.771-0.48,14.569c-0.176,2.078-0.439,5.145-1.091,9.154c-0.771,4.742-1.741,8.75-2.603,11.84
			c-0.239-0.713-0.563-1.802-0.797-3.161c-0.235-1.362-0.255-2.281-0.316-3.264c-0.04-0.656-0.213-3.338-0.758-5.818
			c-0.379-1.72-0.926-3.177-2.021-6.091c-0.655-1.744-1.095-2.767-1.182-4.369c-0.069-1.307,0.146-2.389,0.337-3.092
			c-6.281-0.36-13.042-0.984-20.202-1.978C534.722,335.587,528.25,334.395,522.277,333.084"/>
		<path clip-path="url(#SVGID_4_)" fill="#EBC9AF" d="M565.073,365.283c0.432-2.802,1.393-4.835,2.111-6.081
			c1.077-1.864,2.8-4.849,5.301-4.859c0.099,0,1.316-0.022,2.174,0.772c1.697,1.571,0.737,5.015-0.864,10.757
			c0,0-0.653,2.341-2.571,5.74c-0.533,0.942-1.09,1.816-2.147,2.239c-0.111,0.045-1.377,0.538-2.613,0
			c-1.504-0.653-2.421-2.595-2.047-4.724C564.636,367.846,564.854,366.564,565.073,365.283"/>
		<path clip-path="url(#SVGID_4_)" fill="#EBC9AF" d="M520.369,360.807c-1.434-2.93-3.457-4.507-4.883-4.123
			c-0.994,0.267-1.499,1.431-1.784,2.087c-0.236,0.545-0.683,2.542,0.342,7.397c1.026,4.863,2.598,6.334,3.188,6.905
			c1.486,1.442,2.465,1.387,2.693,1.366c1.635-0.152,2.517-2.078,2.603-2.274C521.808,368.379,521.088,364.592,520.369,360.807"/>
		<path clip-path="url(#SVGID_4_)" fill="#4B2F27" d="M539.072,350.132c-0.574-0.277-5.717-2.857-10.169,0.025
			c-0.117,0.101-0.389,0.348-0.683,0.835c-0.833,1.381-0.881,3.084-0.86,3.895c1.3-0.716,3.06-1.523,5.236-2.099
			c2.531-0.669,4.751-0.793,6.374-0.759C539.005,351.397,539.038,350.764,539.072,350.132"/>
		<path clip-path="url(#SVGID_4_)" fill="#4B2F27" d="M546.293,352.206c0,0,4.781-0.417,12.065,2.846
			c0.063-0.488,0.106-1.26-0.103-2.163c-0.086-0.374-0.32-1.39-1.036-2.233c-0.915-1.082-2.15-1.326-3.824-1.656
			c-4.144-0.492-6.571,0.708-7.179,1.063L546.293,352.206z"/>
		<path clip-path="url(#SVGID_4_)" fill="#FFFFFF" d="M536.391,361.388c0.014-0.603-0.491-1.039-0.759-1.271
			c-0.284-0.246-0.825-0.63-2.353-0.911c-1.853-0.343-3.249-0.183-4.116-0.075c-1.013,0.124-1.404,0.274-1.688,0.417
			c-0.84,0.419-1.346,1.056-1.612,1.461c0.201,0.431,0.604,1.126,1.365,1.65c0.636,0.437,1.199,0.534,2.239,0.701
			c0.357,0.059,2.188,0.336,4.515-0.095c0.564-0.104,1.165-0.252,1.707-0.721C535.923,362.343,536.378,361.948,536.391,361.388"/>
		<path clip-path="url(#SVGID_4_)" fill="#5C524D" d="M532.919,360.881c0,1.458-1.178,2.637-2.637,2.637
			c-1.454,0-2.636-1.179-2.636-2.637c0-0.603,0.203-1.16,0.546-1.603c0.876-0.099,2.138-0.455,3.803-0.15
			c0.175,0.033,0.34,0.066,0.488,0.104C532.739,359.636,532.919,360.369,532.919,360.881"/>
		<path clip-path="url(#SVGID_4_)" fill="#2E2927" d="M530.91,361.058c0,0.597-0.484,1.081-1.081,1.081
			c-0.598,0-1.082-0.484-1.082-1.081s0.484-1.081,1.082-1.081C530.426,359.977,530.91,360.461,530.91,361.058"/>
		<path clip-path="url(#SVGID_4_)" fill="#FFFFFF" d="M531.315,360.332c0,0.305-0.246,0.551-0.55,0.551s-0.55-0.246-0.55-0.551
			c0-0.304,0.246-0.55,0.55-0.55S531.315,360.028,531.315,360.332"/>
		<path clip-path="url(#SVGID_4_)" fill="#8F6E43" d="M525.861,361.01c0.483-0.889,1.327-1.645,2.372-1.887
			c2.273-0.523,6.53-0.649,7.974,1.523c0.137,0.223,0.213,0.488,0.186,0.743c-0.043-0.522-0.421-0.896-0.817-1.187
			c-0.379-0.31-0.849-0.479-1.328-0.604c-1.451-0.361-2.964-0.473-4.456-0.342c-0.498,0.04-1.005,0.091-1.488,0.175
			C527.315,359.594,526.477,360.23,525.861,361.01"/>
		<path clip-path="url(#SVGID_4_)" fill="#FFFFFF" d="M548.478,361.388c-0.014-0.603,0.491-1.039,0.759-1.271
			c0.284-0.246,0.825-0.63,2.353-0.911c1.853-0.343,3.249-0.183,4.117-0.075c1.012,0.124,1.403,0.274,1.688,0.417
			c0.84,0.419,1.347,1.056,1.612,1.461c-0.201,0.431-0.604,1.126-1.365,1.65c-0.636,0.437-1.199,0.534-2.239,0.701
			c-0.357,0.059-2.188,0.336-4.515-0.095c-0.564-0.104-1.165-0.252-1.707-0.721C548.945,362.343,548.49,361.948,548.478,361.388"/>
		<path clip-path="url(#SVGID_4_)" fill="#5C524D" d="M549.959,360.751c0,1.514,1.223,2.737,2.736,2.737
			c1.51,0,2.737-1.224,2.737-2.737c0-0.626-0.211-1.205-0.567-1.664c-0.909-0.103-2.256-0.206-3.984,0.111
			c-0.181,0.035-0.353,0.068-0.507,0.106C550.108,359.726,549.959,360.219,549.959,360.751"/>
		<path clip-path="url(#SVGID_4_)" fill="#2E2927" d="M551.16,361.165c0,0.62,0.503,1.123,1.123,1.123
			c0.619,0,1.121-0.503,1.121-1.123s-0.502-1.123-1.121-1.123C551.663,360.042,551.16,360.545,551.16,361.165"/>
		<path clip-path="url(#SVGID_4_)" fill="#FFFFFF" d="M552.942,360.129c0,0.314,0.256,0.57,0.571,0.57s0.57-0.256,0.57-0.57
			c0-0.315-0.255-0.571-0.57-0.571S552.942,359.813,552.942,360.129"/>
		<path clip-path="url(#SVGID_4_)" fill="#8F6E43" d="M548.477,361.39c0.2-2.875,6.11-2.85,8.159-2.267
			c1.045,0.242,1.889,0.996,2.372,1.887c-0.319-0.396-0.677-0.757-1.095-1.025C556.31,358.754,548.771,358.768,548.477,361.39"/>
		<path clip-path="url(#SVGID_4_)" fill="#030202" d="M566.928,356.64c-0.191,0.035-0.43,0.079-0.706,0.104
			c-0.181,0.007-0.391,0.003-0.609-0.02l-0.048-0.001c-0.96-0.092-1.639-0.493-2.016-0.718c0,0-1.895-1.249-3.036-1.848
			c-0.642-0.334-1.276-0.573-1.892-0.745c-1.961-0.574-3.687-0.497-4.41-0.462c-0.333,0.014-0.819,0.054-1.411,0.148h-0.01
			c-0.897,0.147-2.044,0.434-3.291,0.984c-1.18,0.523-2.074,1.119-2.71,1.604c-0.338,0.309-0.808,0.424-1.243,0.284
			c-0.416-0.14-0.631-0.463-0.733-0.677c-0.061-0.128-0.195-0.204-0.338-0.207l-4.896-0.079c-0.142-0.002-0.278,0.07-0.344,0.196
			c-0.106,0.211-0.334,0.525-0.761,0.652c-0.431,0.126-0.895-0.005-1.223-0.324c-0.62-0.506-1.505-1.128-2.657-1.69
			c-1.002-0.482-1.93-0.783-2.736-0.977h-0.01c-0.834-0.194-1.509-0.272-1.927-0.308c-0.409-0.035-1.151-0.095-2.084-0.043
			c-1.201,0.066-2.729,0.317-4.263,1.044c-1.152,0.563-3.085,1.75-3.085,1.75c-0.163,0.092-0.375,0.203-0.644,0.323
			c-0.22,0.091-0.479,0.182-0.775,0.244c-0.19,0.045-0.4,0.069-0.619,0.085c-0.238,0.016-0.457,0.012-0.647,0
			c-0.276-0.024-0.523-0.076-0.712-0.126c-0.013,0.171-0.025,0.342-0.037,0.513v0.01c-0.051,0.789-0.102,1.579-0.153,2.377
			c0.314-0.022,0.695-0.025,1.084,0.066c0.114,0.02,0.219,0.051,0.332,0.091c0.151,0.06,0.283,0.128,0.387,0.253
			c0.215,0.262,0.181,0.613,0.16,0.727c0.015,0.21,0.03,0.438,0.055,0.695c0.102,0.765,0.276,1.719,0.622,2.763
			c0,0.009,0,0.009,0.009,0.019c0.245,0.728,0.566,1.513,1.01,2.301c0.315,0.558,0.694,1.23,1.235,1.915
			c0.467,0.607,1.075,1.227,1.866,1.772c2.768,1.949,5.751,1.721,6.562,1.629c0.734-0.083,3.167-0.396,5.273-2.304
			c1.585-1.44,2.202-3.078,2.749-4.555c0.706-1.884,0.914-3.552,0.977-4.7c0.004-0.066-0.007-0.122-0.036-0.182
			c-0.131-0.268-0.484-1.115-0.082-1.74c0.265-0.414,0.724-0.53,1.221-0.665c0.525-0.144,2.819-0.106,3.351,0.055
			c0.492,0.15,0.947,0.282,1.197,0.705c0.384,0.637,0.001,1.475-0.139,1.736c-0.029,0.058-0.043,0.112-0.042,0.178
			c0.018,1.15,0.181,2.824,0.825,4.731c0.499,1.493,1.063,3.149,2.601,4.641c2.044,1.975,4.454,2.366,5.195,2.474
			c0.798,0.117,3.782,0.442,6.611-1.417c1.713-1.124,2.593-2.547,3.219-3.584c1.37-2.282,1.757-4.456,1.882-5.72
			c-0.017-0.115-0.04-0.468,0.184-0.722c0.106-0.122,0.241-0.186,0.394-0.24c0.048-0.019,0.106-0.027,0.153-0.046
			c0.173-0.045,0.344-0.07,0.506-0.077c0.277-0.024,0.534-0.011,0.762,0.013C566.981,358.574,566.96,357.611,566.928,356.64
			 M537.538,361.4c-0.2,2.91-1.841,4.855-2.345,5.428c-0.563,0.647-1.619,1.858-3.43,2.524c-3.573,1.313-6.844-0.682-7.258-0.945
			c-0.415-0.265-2.111-1.396-3.171-3.488c-0.342-0.672-0.615-1.438-0.764-2.308c-0.139-0.829-0.136-1.601-0.049-2.275
			c0.111-0.979,0.371-1.746,0.55-2.209c0.219-0.539,1.048-2.363,3.018-3.502c1.191-0.695,2.328-0.867,3.575-0.866
			c0.495-0.011,0.999,0.016,1.531,0.034l0.087,0.002c1.475,0.061,3.339,0.148,5.232,1.379c0.622,0.4,1.658,1.093,2.369,2.428
			C537.68,359.1,537.599,360.536,537.538,361.4 M563.23,363.302c-0.715,3.568-3.561,5.331-4.119,5.665
			c-0.423,0.25-3.757,2.138-7.284,0.71c-1.787-0.724-2.806-1.968-3.347-2.634c-0.485-0.589-2.063-2.585-2.168-5.5
			c-0.033-0.867-0.066-2.305,0.775-3.776c0.755-1.311,1.812-1.97,2.447-2.35c1.961-1.188,3.875-1.194,5.351-1.209
			c0.447-0.002,0.866-0.005,1.276,0.002h0.009c0.885,0.023,1.703,0.104,2.517,0.393c0.426,0.131,0.852,0.328,1.285,0.603
			c1.932,1.202,2.702,3.052,2.902,3.598C563.158,359.597,563.635,361.271,563.23,363.302"/>
		<path clip-path="url(#SVGID_4_)" fill="#BCA18C" d="M542.116,361.39c-0.575,1.813-1.566,4.397-2.237,6.208
			c-0.49,1.523-1.351,2.976-1.273,4.594c0.032,1.055,0.578,1.812,1.407,2.407c1.199,0.899,2.879,0.823,4.192,0.185
			c-1.883,1.338-4.247,0.988-5.67-0.833c-1.373-2.092-0.019-4.538,0.78-6.575C540.161,365.34,541.097,363.344,542.116,361.39"/>
		<path clip-path="url(#SVGID_4_)" fill="#5C2222" d="M533.608,381.825c3.381,0.083,6.662,0.298,10.017,0.286
			c3.353,0.024,6.634-0.172,10.016-0.235C547.418,384.441,539.82,384.413,533.608,381.825"/>
		<path clip-path="url(#SVGID_4_)" fill="#4B2F27" d="M532.242,385.315c0.512-0.18,1.066,2.021,3.188,3.035
			c0.406,0.193,1.518,0.655,2.833,0.456c1.237-0.189,1.464-0.782,2.934-1.266c1.377-0.452,2.563-0.388,3.086-0.354
			c1.641,0.104,1.865,0.615,4.502,1.062c1.265,0.215,1.724,0.185,2.125,0.102c1.174-0.241,2.089-0.978,2.377-1.214
			c0.776-0.636,0.98-1.107,1.821-1.416c0.24-0.088,0.843-0.311,1.113-0.052c0.281,0.269,0.066,0.922-0.102,1.366
			c-0.675,1.792-1.219,3.237-2.579,4.604c-3.217,3.229-8.197,3.217-9.088,3.214c-4.908-0.013-8.143-2.496-9.648-3.652
			c-1.131-0.869-2.203-1.946-2.637-3.507C531.88,386.662,531.879,385.443,532.242,385.315"/>
		<path clip-path="url(#SVGID_4_)" fill="#4A423B" d="M532.786,377.93c-0.122,0.792-0.438,1.506-0.949,2.125
			C531.957,379.262,532.277,378.55,532.786,377.93"/>
		<path clip-path="url(#SVGID_4_)" fill="#4A423B" d="M535.291,377.095c-0.303,0.71-0.497,1.3-0.684,2.049
			C534.341,378.422,534.645,377.513,535.291,377.095"/>
		<path clip-path="url(#SVGID_4_)" fill="#4A423B" d="M534.389,377.513c-0.303,0.71-0.497,1.3-0.684,2.049
			C533.438,378.839,533.742,377.931,534.389,377.513"/>
		<path clip-path="url(#SVGID_4_)" fill="#4A423B" d="M536.314,377.133c-0.271,0.718-0.467,1.313-0.683,2.049
			C535.398,378.454,535.693,377.576,536.314,377.133"/>
		<path clip-path="url(#SVGID_4_)" fill="#4A423B" d="M537.339,376.905c-0.162,0.664-0.304,1.207-0.606,1.821
			C536.603,378.066,536.809,377.34,537.339,376.905"/>
		<path clip-path="url(#SVGID_4_)" fill="#4A423B" d="M538.174,377.437c0.031,0.528-0.12,0.985-0.417,1.404
			C537.641,378.332,537.808,377.808,538.174,377.437"/>
		<path clip-path="url(#SVGID_4_)" fill="#4A423B" d="M538.971,376.829c0.016,0.677-0.088,1.31-0.379,1.936
			C538.456,378.096,538.581,377.392,538.971,376.829"/>
		<path clip-path="url(#SVGID_4_)" fill="#4A423B" d="M539.919,376.943c0.188,0.538,0.163,1.076-0.076,1.594
			C539.655,377.999,539.682,377.461,539.919,376.943"/>
		<path clip-path="url(#SVGID_4_)" fill="#4A423B" d="M540.45,377.247c0.374,0.255,0.426,0.777,0.19,1.138
			C540.449,378.01,540.424,377.678,540.45,377.247"/>
		<path clip-path="url(#SVGID_4_)" fill="#4A423B" d="M540.83,376.716c0.357,0.339,0.524,0.76,0.492,1.252
			C540.959,377.636,540.793,377.207,540.83,376.716"/>
		<path clip-path="url(#SVGID_4_)" fill="#4A423B" d="M541.437,376.526c0.697,0.547,1.056,1.522,0.873,2.39
			C542.046,378.066,541.786,377.345,541.437,376.526"/>
		<path clip-path="url(#SVGID_4_)" fill="#4A423B" d="M542.575,376.791c0.588,0.328,0.895,1.105,0.683,1.745
			C543.019,377.904,542.829,377.419,542.575,376.791"/>
		<path clip-path="url(#SVGID_4_)" fill="#4A423B" d="M543.068,376.791c0.54,0.278,0.803,0.896,0.759,1.48
			C543.463,377.817,543.273,377.344,543.068,376.791"/>
		<path clip-path="url(#SVGID_4_)" fill="#4A423B" d="M543.751,376.64c0.529,0.224,0.804,0.916,0.569,1.442
			C544.101,377.55,543.955,377.178,543.751,376.64"/>
		<path clip-path="url(#SVGID_4_)" fill="#4A423B" d="M544.396,376.867c0.512,0.066,0.832,0.744,0.53,1.176
			C544.751,377.566,544.629,377.318,544.396,376.867"/>
		<path clip-path="url(#SVGID_4_)" fill="#4A423B" d="M545.041,376.905c0.699,0.059,1.258,0.894,0.986,1.556
			C545.813,377.802,545.525,377.396,545.041,376.905"/>
		<path clip-path="url(#SVGID_4_)" fill="#4A423B" d="M545.725,376.791c0.657,0.204,1.111,0.953,0.985,1.632
			C546.386,377.813,546.115,377.36,545.725,376.791"/>
		<path clip-path="url(#SVGID_4_)" fill="#4A423B" d="M546.862,377.398c0.583,0.368,0.996,0.928,1.176,1.593
			C547.496,378.556,547.123,378.043,546.862,377.398"/>
		<path clip-path="url(#SVGID_4_)" fill="#4A423B" d="M547.47,377.076c0.716,0.47,1.279,1.104,1.649,1.878
			C548.42,378.455,547.874,377.834,547.47,377.076"/>
		<path clip-path="url(#SVGID_4_)" fill="#4A423B" d="M548.513,376.887c0.465,0.296,0.824,0.771,0.873,1.327
			C548.963,377.856,548.642,377.446,548.513,376.887"/>
		<path clip-path="url(#SVGID_4_)" fill="#4A423B" d="M549.594,377.189c0.625,0.314,1.094,0.954,1.1,1.669
			C550.277,378.297,549.912,377.802,549.594,377.189"/>
		<path clip-path="url(#SVGID_4_)" fill="#4A423B" d="M550.732,377.664c0.555,0.227,0.9,0.873,0.777,1.461
			C551.193,378.611,550.983,378.213,550.732,377.664"/>
		<path clip-path="url(#SVGID_4_)" fill="#4A423B" d="M551.908,377.911c0.663,0.339,1.22,0.924,1.385,1.669
			C552.758,379.057,552.278,378.556,551.908,377.911"/>
		<path clip-path="url(#SVGID_4_)" fill="#BBDAE6" d="M555.743,391.353c-1.087,1.368-2.241,2.761-3.466,4.173
			c-1.782,2.054-3.553,3.959-5.282,5.72c0.099,4.366,0.197,8.732,0.296,13.099c0.599-1.097,1.622-2.912,3.006-5.098
			c3.043-4.803,4.636-6.342,6.54-9.962c0.751-1.428,1.812-3.677,2.712-6.684C558.28,392.185,557.012,391.769,555.743,391.353"/>
		<path clip-path="url(#SVGID_4_)" fill="#BBDAE6" d="M531.926,391.473c-1.697,0.542-3.395,1.084-5.092,1.626
			c1.36,2.89,2.893,5.899,4.621,8.997c2.633,4.724,5.342,8.976,7.992,12.766c0.216-4.472,0.432-8.943,0.647-13.415
			c-1.327-1.103-2.836-2.526-4.34-4.324C534.055,395.09,532.817,393.127,531.926,391.473"/>
		<path clip-path="url(#SVGID_4_)" fill="#EBC9AF" d="M549.443,408.141c-0.219-0.491-0.402-0.895-0.491-1.102
			c-0.041-0.095-0.065-0.148-0.071-0.154c0-0.006-0.006-0.006-0.006-0.012c-0.029-0.047,0.195-0.438,0.285-0.586
			c0.059-0.101,0.111-0.202,0.171-0.308c0.812-1.464,1.594-3.164,1.553-4.906v-0.089l-0.006-0.207
			c-0.012-0.563-0.006-1.144,0.028-1.725c0-0.006,0.007-0.018,0.007-0.023c0.112-1.611,0.51-3.193,1.665-4.289
			c0.136-0.125,0.283-0.255,0.438-0.379c0.551-0.475,1.119-0.954,1.084-1.606c-0.03-0.634-0.699-1.096-1.31-1.132
			c-0.557-0.035-1.167,0.19-1.849,0.676c-2.103,1.499-3.288,3.431-3.33,5.445c0,0.071-0.053,0.13-0.124,0.142
			c-0.07,0.013-0.142-0.035-0.159-0.106c-0.641-2.18-1.357-4.657-2.939-6.499c-1.463-1.706-4.099-2.915-6.309-1.926
			c-0.154,0.065-0.32,0.161-0.469,0.272c-0.385,0.278-0.704,0.675-0.688,1.144c0.012,0.189,0.071,0.355,0.161,0.504
			c0,0.006,0.005,0.006,0.005,0.006c0.018,0.029,0.03,0.059,0.042,0.089c0.029,0.071,0.047,0.142,0.041,0.219
			c0,0.154-0.065,0.296-0.172,0.403c-0.029,0.029-0.065,0.059-0.101,0.077c-0.064,0.053-0.143,0.083-0.225,0.101
			c-0.32,0.065-0.646,0.143-0.966,0.237c-0.356,0.1-1.12,0.373-1.327,0.906c-0.03,0.083-0.048,0.172-0.054,0.272
			c-0.005,0.124,0.018,0.248,0.054,0.361v0.006c0.018,0.053,0.029,0.095,0.035,0.142c0.018,0.278-0.177,0.527-0.45,0.61
			c-0.041,0.012-0.089,0.018-0.136,0.018h-0.006c-0.019,0.007-0.024,0.007-0.042,0.007c-0.87-0.013-1.155,0.112-1.754,0.396
			c-0.261,0.124-1.611,0.972-1.6,1.991c0,0.1,0.024,0.195,0.06,0.284c0,0.006,0.006,0.012,0.006,0.018
			c0.012,0.029,0.023,0.06,0.029,0.089c0.042,0.171-0.006,0.35-0.112,0.486c-0.035,0.047-0.077,0.088-0.124,0.124
			c-0.019,0.012-0.035,0.023-0.047,0.029c-0.019,0.018-0.036,0.023-0.055,0.035c-0.319,0.226-0.526,0.604-0.634,0.931
			c-0.26,0.788,0.231,1.629,0.794,2.074c0.102,0.083,0.214,0.172,0.326,0.26c0.587,0.474,1.315,1.066,1.973,1.245
			c0.047,0.017,0.089,0.053,0.102,0.1c0.794,2.844,2.867,5.214,4.87,7.507c0.254,0.296,0.521,0.58,0.794,0.848
			c0.2,0.207,0.407,0.402,0.609,0.598c0.124,0.119,0.249,0.237,0.367,0.356c0.449,0.433,0.879,0.866,1.288,1.316
			c3.2-0.326,6.843-1.03,9.486-3.655C549.913,409.199,549.659,408.626,549.443,408.141"/>
		<path clip-path="url(#SVGID_4_)" fill="#BCA18C" d="M542.311,415.808l1.179,3.217l1.523,4.165l8.087-7.731
			c-0.439-0.533-0.896-1.078-1.167-1.789c-0.107-0.261-0.249-0.646-0.415-1.091l-0.012-0.012c-0.137-0.201-0.268-0.42-0.373-0.657
			c-0.212-0.451-0.586-1.286-0.97-2.147c-2.643,2.624-6.286,3.328-9.485,3.654c0.643,0.707,1.22,1.463,1.633,2.386V415.808z"/>
		<path clip-path="url(#SVGID_4_)" fill="#BCA18C" d="M536.901,392.068c1.547-0.535,3.106-0.211,4.668,0.214
			c-1.456-0.396-3.155-1.085-4.437-0.913C537.242,391.616,537.134,391.935,536.901,392.068"/>
		<path clip-path="url(#SVGID_4_)" fill="#BCA18C" d="M533.833,394.723c0.673-0.017,1.667,0,2.862,0.166
			c1.002,0.14,1.711,0.325,1.721,0.288c0.01-0.036-0.7-0.279-4.032-1.225C534.529,394.31,534.212,394.717,533.833,394.723"/>
		<path clip-path="url(#SVGID_4_)" fill="#BCA18C" d="M530.392,398.022c0.646-0.041,1.4-0.044,2.234,0.036
			c1.058,0.1,1.972,0.307,2.712,0.527c-0.59-0.309-1.395-0.658-2.39-0.896c-0.96-0.231-1.807-0.291-2.458-0.289
			c0.023,0.055,0.082,0.225,0.018,0.419C530.478,397.913,530.429,397.98,530.392,398.022"/>
		<path clip-path="url(#SVGID_4_)" fill="#345389" d="M539.796,415.347c1.554-0.12,3.906-0.486,6.521-1.653
			c2.806-1.253,4.74-2.907,5.878-4.041c17.856,20.146,32.858,34.905,43.806,45.092c6.222,5.79,13.508,12.313,11.894,18.123
			c-1.892,6.813-15.312,10.104-24.016,9.062C554.448,478.399,541.006,420.77,539.796,415.347"/>
		<rect x="382.303" y="477.315" clip-path="url(#SVGID_4_)" fill="#3D3D3D" width="12.064" height="185.561"/>
		<rect x="393.945" y="477.315" clip-path="url(#SVGID_4_)" fill="#A34F2E" width="327.792" height="156.585"/>
		<rect x="721.737" y="477.315" clip-path="url(#SVGID_4_)" fill="#3D3D3D" width="12.063" height="185.561"/>
		<rect x="334.999" y="472.868" clip-path="url(#SVGID_4_)" fill="#7C3A25" width="447.724" height="16.954"/>
		<path clip-path="url(#SVGID_4_)" fill="#FFFFFF" d="M738.16,472.367c0.684-1.22,1.449-3.138,1.392-5.538
			c-0.052-2.164-0.764-3.898-1.392-5.02h56.343c0.785,1.455,1.243,3.08,1.325,4.717c0.127,2.511-0.619,4.527-1.326,5.841H738.16z"/>
		<path clip-path="url(#SVGID_4_)" fill="#E80F2E" d="M794.199,462.31c0.667,1.322,1.057,2.778,1.13,4.242
			c0.113,2.234-0.5,4.061-1.131,5.315h-55.22c0.589-1.257,1.123-2.981,1.073-5.05c-0.044-1.807-0.51-3.324-1.067-4.508H794.199z
			 M794.797,461.31h-57.532c0.521,0.765,1.72,2.739,1.787,5.532c0.074,3.087-1.278,5.279-1.787,6.025h57.532
			c0.537-0.941,1.688-3.257,1.531-6.367C796.204,464.056,795.328,462.237,794.797,461.31"/>
		<path clip-path="url(#SVGID_4_)" fill="#FFFFFF" d="M741.82,460.809c0.683-1.22,1.449-3.138,1.391-5.537
			c-0.052-2.164-0.763-3.899-1.391-5.021h56.342c0.786,1.455,1.244,3.08,1.326,4.717c0.127,2.511-0.62,4.527-1.327,5.841H741.82z"/>
		<path clip-path="url(#SVGID_4_)" fill="#1021B5" d="M797.859,450.751c0.667,1.322,1.056,2.778,1.13,4.242
			c0.112,2.235-0.5,4.061-1.131,5.316h-55.221c0.589-1.258,1.123-2.982,1.073-5.051c-0.044-1.807-0.509-3.323-1.067-4.508H797.859z
			 M798.456,449.751h-57.532c0.522,0.765,1.72,2.739,1.787,5.532c0.075,3.087-1.278,5.28-1.787,6.026h57.532
			c0.538-0.942,1.688-3.258,1.532-6.367C799.864,452.497,798.988,450.679,798.456,449.751"/>
		<rect x="633.009" y="416.297" clip-path="url(#SVGID_4_)" fill="#4F4E4E" width="96.767" height="50.81"/>
		<polygon clip-path="url(#SVGID_4_)" fill="#3A3A3A" points="729.749,472.864 632.925,472.864 632.925,467.105 729.775,467.105 		
			"/>
		<polygon clip-path="url(#SVGID_4_)" fill="#3A3A3A" points="633.03,472.864 623.902,472.864 623.902,468.157 633.03,467.105 		"/>
		<path clip-path="url(#SVGID_4_)" fill="#4080A0" d="M321.506,534.214c-28.702,0.411-71.642-11.01-88.709-38.504
			c-3.188-5.137-5.309-11.711-5.309-11.711c-8.231-22.373-4.929-41.361-3.504-48.968c2.139-11.425,5.187-16.336,6.826-18.454
			c0.21-0.272,0.364-0.453,0.564-0.694c3.29-3.969,8.928-9.42,18.989-15.259c2.176,2.398,5.16,5.981,8.144,10.691
			c7.381,11.648,9.811,22.375,11.586,30.854c2.677,12.787,3.98,21.008,4.741,26.726c0.38,2.856-0.023,7.823,1.989,13.953
			c0,0,1.712,5.214,5.192,10.368c5.413,8.016,20.914,18.999,43.3,27.602c0.319,0.87,1.774,5.111-0.381,9.394
			C323.904,532.259,322.443,533.531,321.506,534.214"/>
		<path clip-path="url(#SVGID_4_)" fill="#4080A0" d="M221.994,384.657c0.85-0.498,3-1.599,5.844-1.38
			c4.42,0.341,6.96,3.597,7.369,4.139c-0.348,1.56-0.696,3.118-1.043,4.678c-4.274-0.706-8.547-1.413-12.821-2.119
			C221.56,388.201,221.777,386.43,221.994,384.657"/>
		<path clip-path="url(#SVGID_4_)" fill="#F7B89F" d="M190.6,665.048c3.18,0,5.758-2.222,5.758-4.963v-91.169
			c0-2.741-2.578-4.963-5.758-4.963c-3.18,0-5.758,2.222-5.758,4.963v91.169C184.842,662.826,187.42,665.048,190.6,665.048"/>
		<path clip-path="url(#SVGID_4_)" fill="#D19182" d="M204.733,665.048c3.18,0,5.758-2.222,5.758-4.963v-91.169
			c0-2.741-2.578-4.963-5.758-4.963s-5.758,2.222-5.758,4.963v91.169C198.975,662.826,201.553,665.048,204.733,665.048"/>
		<path clip-path="url(#SVGID_4_)" fill="#F7B89F" d="M258.437,665.048c3.18,0,5.758-2.222,5.758-4.963v-91.169
			c0-2.741-2.578-4.963-5.758-4.963c-3.18,0-5.758,2.222-5.758,4.963v91.169C252.679,662.826,255.257,665.048,258.437,665.048"/>
		<path clip-path="url(#SVGID_4_)" fill="#D19182" d="M271.565,665.048c3.18,0,5.758-2.222,5.758-4.963v-91.169
			c0-2.741-2.578-4.963-5.758-4.963c-3.18,0-5.758,2.222-5.758,4.963v91.169C265.807,662.826,268.385,665.048,271.565,665.048"/>
		<path clip-path="url(#SVGID_4_)" fill="#726562" d="M201.919,419.586c-10.997,46.899-2.276,70.817,8.874,84.052
			c20.706,24.576,65.696,25.64,75.06,54.397c2.402,7.38,3.566,22.44,2.665,24.566c-0.867,2.046-2.808,3.645-5.257,3.569
			c-2.994,0.467-6.398-4.222-8.262-5.877c-5.88-5.882-13.699-9.119-22.015-9.119c0,0-52.355,0-52.354-0.001
			c-6.178,0.091-14.933-0.788-22.723-6.089c-15.096-10.274-16.896-30.579-20.404-78.314c-2.362-32.142-4.073-57.327-5.005-71.291
			c5.546-1.461,13.913-2.98,24.066-2.274C187.721,413.98,196.46,417.127,201.919,419.586"/>
		<path clip-path="url(#SVGID_4_)" fill="#DDDDDD" d="M348.556,672.614c-15.772,5.71-36.665,0-36.665,0
			c1.238-30.293-1.88-80.224-8.148-90.252c-24.369-38.99-109.68,11.908-103.413-67.688c0,0,53.033-10.325,69.569-6.268
			c20.616,5.06,59.398,11.063,76.15,38.858C363.799,576.718,348.556,672.614,348.556,672.614"/>
		<path clip-path="url(#SVGID_4_)" fill="#DDDDDD" d="M339.154,672.614c-15.772,5.71-36.665,0-36.665,0
			c1.238-30.293-1.88-80.224-8.148-90.252c-24.369-38.99-109.681,11.908-103.413-67.688c0,0,60.621-11.214,77.09-6.895
			c19.116,5.015,51.877,11.689,68.629,39.485C354.397,576.718,339.154,672.614,339.154,672.614"/>
		<path clip-path="url(#SVGID_4_)" fill="#5190B7" d="M269.899,508.406c0,0-36.289,24.377-82.355,19.99
			c0,0-2.385-31.275-2.469-47.253c-0.116-21.62-4.281-73.894,34.646-90.896c0.95-0.417,1.925-0.808,2.927-1.181
			c8.919,8.151,13.595,9.47,16.036,8.398c2.845-1.241,2.654-5.729,2.601-6.418v-0.019c0.012,0.009,0.028,0.019,0.041,0.031
			c1.15,0.799,2.268,1.717,3.359,2.751c9.511,8.994,16.759,26.734,21.513,54.082c0.617,3.538,1.191,7.239,1.724,11.103
			c0.354,2.564,0.67,7.005,0.943,12.267c0.244,4.769,0.454,10.216,0.62,15.543c0.063,2.1,0.123,4.184,0.173,6.199
			c0.025,1.015,0.047,2.015,0.069,2.991C269.84,501.029,269.899,505.451,269.899,508.406"/>
		<path clip-path="url(#SVGID_4_)" fill="#5190B7" d="M256.137,542.27c5.937-1.255,21.026-3.574,36.61,4.037
			c9.825,4.8,15.511,11.429,18.574,15.075c19.384,23.077,18.236,53.797,17.498,63.529c10.767-5.474,21.535-10.947,32.303-16.421
			c1.301-6.802,2.185-15.429,1.346-25.304c-0.838-9.855-2.604-32.438-18.844-48.993c-9.57-9.756-24.401-17.675-36.475-20.324
			c-2.476-0.543-9.68-1.927-18.305-6.191c-3.71-1.834-7.923-3.917-11.306-7.134c-9.426-8.961-9.028-23.508-8.642-28.674
			c-27.609,11.452-55.218,22.904-82.826,34.355c-0.154,5.42-0.001,13.111,1.474,22.172c2.307,14.165,3.46,21.248,8.025,26.726
			c7.388,8.867,16.744,6.032,54.107,13.931c13.183,2.786,19.851,4.233,23.622,6.864c16.762,11.694,16.876,40.2,14.536,61.376
			c8.211-4.846,16.421-9.69,24.631-14.537c1.018-7.854,1.341-19.713-3.23-32.706C297.07,555.475,261.132,543.804,256.137,542.27"/>
		<path clip-path="url(#SVGID_4_)" fill="#4080A0" d="M297.128,532.362c-28.702,0.411-71.642-11.01-88.709-38.504
			c-3.188-5.138-5.309-11.711-5.309-11.711c-4.344-22.292-5.712-39.721-5.412-48.801c0.233-7.045,1.606-13.141,5.195-18.239
			c0.428-0.609,1.097-1.551,2.174-2.658c0.957-0.983,7.536-7.529,16.912-6.523c6.767,0.728,11.029,4.962,12.2,6.161
			c5.376,5.502,6.316,12.554,6.685,15.319c6.282,47.095,7.355,51.917,8.294,54.864c3.787,11.894,15.866,26.179,52.335,36.564
			C304.814,526.199,297.128,532.362,297.128,532.362"/>
		<path clip-path="url(#SVGID_4_)" fill="#CCA279" d="M310.421,522.28c5.498,1.751,19.65,7.715,22.542,23.336
			c0.32,1.731-1.445,3.109-3.055,2.398c-3.239-2.475-7.223-5.088-11.992-7.422c-2.08-1.018-4.091-1.876-6.003-2.603
			c-1.646-0.069-4.276-0.387-7.199-1.689c-3.316-1.479-5.476-3.544-6.628-4.822c0.897-0.803,2.447-2.411,3.403-4.93
			c0.63-1.658,0.788-3.145,0.811-4.175c1.22,0.178,2.187,0.133,2.829,0.065c1.647-0.176,2.672-0.671,4.38-0.38
			C309.509,522.06,309.93,522.124,310.421,522.28"/>
		<path clip-path="url(#SVGID_4_)" fill="#987957" d="M329.301,540.972c-0.084-0.036-0.158-0.099-0.209-0.183
			c-4.636-7.5-10.661-10.303-10.721-10.33c-0.236-0.107-0.341-0.386-0.234-0.622c0.107-0.234,0.383-0.34,0.618-0.235
			c0.001,0,0.003,0.001,0.004,0.001c0.257,0.116,6.338,2.935,11.132,10.692c0.137,0.221,0.068,0.51-0.152,0.647
			C329.602,541.027,329.438,541.033,329.301,540.972"/>
		<path clip-path="url(#SVGID_4_)" fill="#987957" d="M329.786,546.536c-0.066-0.029-0.127-0.075-0.176-0.136
			c-5.459-6.794-14.055-11.318-14.141-11.363c-0.231-0.12-0.32-0.404-0.2-0.635c0.12-0.23,0.407-0.317,0.634-0.199
			c0.088,0.046,8.855,4.657,14.44,11.608c0.163,0.202,0.13,0.498-0.072,0.661C330.129,546.586,329.942,546.604,329.786,546.536"/>
		<path clip-path="url(#SVGID_4_)" fill="#5190B7" d="M227.064,384.209c2.267,0.196,5.723,0.776,9.512,2.602
			c4.866,2.346,7.908,5.6,9.466,7.538c0.021,1.569,0.012,3.197-0.034,4.879c-0.046,1.708-0.127,3.358-0.235,4.946
			c-1.515-2.059-6.303-7.076-9.656-9.583c-4.237-3.167-8.358-4.733-11.117-5.536C225.688,387.438,226.376,385.824,227.064,384.209"
			/>
		<path clip-path="url(#SVGID_4_)" fill="#4C6580" d="M227.064,384.209c7.414,0.366,15.052,4.104,19.417,10.134
			c0.041,2.46-0.067,7.409-0.217,9.865l-0.057,1.352c-1.523-2.096-3.277-4.051-5.122-5.914c-4.516-4.763-9.987-8.555-16.316-10.49
			l0.077-0.166L227.064,384.209z M227.064,384.209l-1.91,4.911l-0.107-0.227c6.424,1.608,12.124,5.37,16.683,10.109
			c1.548,1.554,3.064,3.11,4.439,4.879l-0.887,0.259c0.173-2.439,0.334-7.342,0.321-9.786l0.097,0.269
			c-2.27-2.824-5.057-5.258-8.247-7.031C234.266,385.821,230.727,384.659,227.064,384.209"/>
		<path clip-path="url(#SVGID_4_)" fill="#BC956B" d="M244.425,412.577c-1.136-3.506-3.812-5.874-8.38-11.419
			c-5.042-6.121-9.99-10.324-13.387-12.069c0.01-1.585,0.023-3.169,0.034-4.753c0.026-3.616,0.055-7.229,0.082-10.846l0.005-0.657
			c0.203,0.058,1.531,0.42,3.411,0.931c5.609,1.531,16.113,4.412,16.131,4.592c-0.003,0.006-0.008,0.061-0.016,0.167
			c-0.197,1.924-0.419,4.467-0.569,7.467c0,0.021-0.003,0.042-0.003,0.063c-0.029,0.602-0.058,1.165-0.084,1.703
			c-0.195,4.004-0.274,6.405-0.037,9.328c0.011,0.119,1.321,4.626,1.321,4.626s-0.107,0.839,0.783,6.989
			C244.084,411.24,244.205,411.228,244.425,412.577"/>
		<path clip-path="url(#SVGID_4_)" fill="#987957" d="M242.322,378.355c-0.003,0.005-0.008,0.061-0.016,0.166
			c-0.068,0.809-0.337,4.436-0.569,7.467c-0.045,0.583-0.09,1.143-0.129,1.656c0.013,0.034,0.029,0.071,0.042,0.11
			c-0.195,4.004-0.274,6.404-0.037,9.329c-2.646,0.534-7.884-3.158-10.467-4.979c-3.933-2.771-6.698-5.683-8.453-7.768
			c0.026-3.617,0.055-7.23,0.082-10.848c1.086,0.087,2.232,0.181,3.416,0.274C231.8,375.296,242.303,378.177,242.322,378.355"/>
		<path clip-path="url(#SVGID_4_)" fill="#5190B7" d="M221.994,384.657c0,0,7.358,9.915,17.946,13.102l0.449,8.928
			c0,0-19.989-12.741-19.977-16.735L221.994,384.657z"/>
		<path clip-path="url(#SVGID_4_)" fill="#4C6580" d="M240.389,406.687c5.004,8.029,8.471,17.063,10.115,26.383
			c0.512,3.118,0.897,6.252,1.072,9.399l-0.206-0.104c0.842-0.465,1.605-1.122,2.479-1.58c-0.866,0.596-1.597,1.364-2.512,1.93
			C249.682,430.176,245.972,418.033,240.389,406.687"/>
		<path clip-path="url(#SVGID_4_)" fill="#BC956B" d="M234.806,392.994c1.306,0.668,3.911,1.754,7.1,1.365
			c2.194-0.267,4.477-1.236,7.348-3.761c6.51-5.726,9.113-13.366,11.191-19.692c0.629-1.916,2.173-6.878,3.07-13.575
			c0.593-4.429,0.814-7.477,0.891-9.87c0.093-2.868,0.083-4.096,0.024-4.937c-0.028-0.391-0.381-5.154-1.43-7.443
			c-2.272-4.961-11.143-5.589-22.133-6.245c-4.219-0.252-10.31-0.418-17.724,0.092c-1.391,1.172-3.177,3.069-3.857,5.785
			c-0.58,2.318,0.076,3.508-0.356,5.596c-0.779,3.762-4.066,5.489-5.515,6.958C205.335,355.458,223.205,387.062,234.806,392.994"/>
		<path clip-path="url(#SVGID_4_)" fill="#111010" d="M217.429,365.276c-1.695-2.081-3.392-4.178-5.092-6.29
			c-1.167-1.451-2.327-2.898-3.48-4.343c-1.732-2.17-2.912-4.755-3.241-7.513c-0.028-0.236-0.051-0.479-0.069-0.726
			c-0.174-2.465,0.302-4.296,0.899-6.59c0.914-3.513,2.215-5.949,2.995-7.388c1.72-3.172,3.13-4.646,3.794-5.292
			c2.139-2.082,3.421-2.28,4.094-2.297c1.095-0.027,1.978,0.391,2.496,0.699c0.554-1.43,1.809-4.09,4.493-6.39
			c3.136-2.687,6.444-3.358,7.689-3.595c3.792-0.72,8.019,0.685,16.474,3.495c3.974,1.321,5.871,2.149,7.888,3.595
			c3.7,2.651,4.965,5.344,5.292,6.09c0.434,0.991,0.667,1.871,0.799,2.496c1.004,0.744,2.581,2.114,3.794,4.294
			c1.647,2.96,1.691,5.739,1.697,7.289c0.001,0.231-0.002,0.468-0.018,0.732c-0.224,3.708-1.354,6.413-2.278,8.853
			c-1.743,4.599-2.336,7.729-2.556,7.676c-0.308-0.077,1.474-6.059,0.359-10.072c-0.085-0.306-0.429-1.57-0.901-3.389
			c-0.176-0.677-0.373-1.506-0.596-2.603c-0.61-2.992-0.808-4.984-0.899-6.291c-0.098-1.415-0.111-2.612-0.1-3.494
			c-1.189,0.528-3.043,1.245-5.392,1.697c-4.471,0.86-8.052,0.243-18.271-2.097c-4.065-0.93-7.634-1.779-10.584-2.496
			c0.549,1.833,1.913,7.252-0.3,13.579c-2.348,6.715-7.226,10.168-8.786,11.183C217.562,359.152,217.495,362.214,217.429,365.276"/>
		<path clip-path="url(#SVGID_4_)" fill="#111010" d="M214.907,370.768c0.331,1.089,1.001,2.79,2.396,4.493
			c1.859,2.271,4.028,3.349,5.167,3.819c-0.879-1.196-1.809-2.617-2.695-4.269c-1.081-2.014-1.847-3.903-2.397-5.542
			C216.554,369.77,215.731,370.269,214.907,370.768"/>
		<path clip-path="url(#SVGID_4_)" fill="#484443" d="M253.698,327.272c-0.863-0.027-1.802-0.1-2.802-0.243
			c-1.944-0.277-3.627-0.747-5.011-1.243c0.75,1.101,1.888,2.496,3.544,3.794c0.898,0.704,1.77,1.24,2.546,1.648
			c-2.652,0.205-6.073,0.222-9.984-0.399c-3.351-0.533-6.193-1.395-8.437-2.247c2.341,1.554,7.142,4.285,13.828,4.992
			c5.741,0.607,10.353-0.545,12.93-1.398c-1.818-0.381-3.97-0.992-6.29-1.996c-1.431-0.62-2.696-1.29-3.794-1.948
			c0.775,0.232,2.172,0.538,3.894,0.3c1.525-0.21,2.672-0.76,3.345-1.148C256.211,327.348,254.954,327.31,253.698,327.272"/>
		<path clip-path="url(#SVGID_4_)" fill="#484443" d="M222.096,336.321c0.079,1.652-0.01,4.178-0.974,7.039
			c-1.448,4.299-4.076,6.996-5.466,8.237c0.937-0.352,4.079-1.666,5.991-5.092C224.3,341.751,222.354,336.93,222.096,336.321"/>
		<path clip-path="url(#SVGID_4_)" fill="#484443" d="M218.352,342.162c-0.494,1.218-1.246,2.742-2.396,4.343
			c-1.315,1.829-2.711,3.146-3.819,4.044c0.705-0.14,2.671-0.626,4.268-2.396C218.623,345.694,218.399,342.681,218.352,342.162"/>
		<path clip-path="url(#SVGID_4_)" fill="#484443" d="M263.607,341.413c-0.016,0.598-0.02,1.48,0.05,2.546
			c0.077,1.187,0.217,2.115,0.494,3.923c0.107,0.697,0.258,1.642,0.455,2.767c0.134-1.393,0.187-2.566,0.208-3.443
			c0.062-2.61-0.133-3.507-0.408-4.244C264.148,342.267,263.831,341.742,263.607,341.413"/>
		<path clip-path="url(#SVGID_4_)" fill="#FFFFFF" d="M233.736,365.216c0.976-0.098,1.977-0.057,2.937-0.045
			c0.722,0.047,1.455,0.105,2.185,0.208c3.996-1.278,4.622-5.681,4.622-5.681c-0.228-0.051-0.968-0.068-1.984-0.073
			c-1.989-0.012-5.041,0.042-7.417,0.102c-1.997,0.043-3.521,0.084-3.521,0.084S230.334,363.787,233.736,365.216"/>
		<path clip-path="url(#SVGID_4_)" fill="#3F2E20" d="M237.549,363.869c0.19,0.013,0.382,0.012,0.569-0.003
			c0.034-0.006,0.063-0.011,0.093-0.009c0.013-0.005,0.029-0.003,0.041-0.008c0.056-0.008,0.106-0.013,0.154-0.023
			c0.041-0.009,0.078-0.009,0.112-0.016c1.626-0.325,2.889-1.699,3.002-3.433c0.016-0.258,0.007-0.506-0.024-0.753
			c-1.989-0.012-5.041,0.042-7.417,0.102c-0.001,0.016-0.005,0.024-0.006,0.039c-0.007,0.04-0.011,0.086-0.015,0.132
			c-0.002,0.03-0.008,0.056-0.004,0.083C233.968,362.007,235.514,363.742,237.549,363.869"/>
		<path clip-path="url(#SVGID_4_)" fill="#FFFFFF" d="M253.313,365.727c0.812-0.106,1.644-0.106,2.443-0.118
			c0.584,0.019,1.168,0.039,1.752,0.103c0.005-0.011,0.005-0.011,0.008-0.004c3.538-1.179,3.958-5.104,3.958-5.104
			c-0.237-0.038-1.117-0.026-2.292,0.018c-1.885,0.061-4.511,0.206-6.427,0.315c-1.442,0.081-2.484,0.146-2.484,0.146
			S250.185,364.64,253.313,365.727"/>
		<path clip-path="url(#SVGID_4_)" fill="#3F2E20" d="M256.474,364.251c0.165-0.028,0.323-0.07,0.478-0.12
			c0.033-0.006,0.056-0.015,0.078-0.024c0.015-0.008,0.022-0.011,0.04-0.01l0.209-0.091c1.282-0.567,2.084-1.935,1.903-3.386
			c-1.885,0.061-4.511,0.206-6.427,0.315c-0.019,0.018-0.034,0.023-0.045,0.037c-0.002,0.16,0.001,0.31,0.026,0.468
			c0.001,0.043,0.007,0.075,0.015,0.116c0.003,0.025,0.005,0.052,0.015,0.073C253.078,363.361,254.727,364.526,256.474,364.251"/>
		<path clip-path="url(#SVGID_4_)" fill="#987957" d="M248.002,358.524c0.495,2.875,1.27,5.705,2.26,8.451
			c0.608,1.734,1.641,3.54,1.004,5.368c-0.584,1.735-2.361,3.008-4.221,2.909c-0.938-0.023-1.872-0.356-2.688-0.877
			c0.729,0.646,1.667,1.066,2.662,1.207c3.268,0.42,5.982-2.989,4.875-6.083C250.536,365.831,249.124,362.275,248.002,358.524"/>
		<path clip-path="url(#SVGID_4_)" d="M247.31,378.635c2.724,0.998,5.84,1.025,8.509,0.069c-1.377,0.157-2.756,0.078-4.037-0.219
			c-1.284-0.294-2.467-0.808-3.482-1.476c-0.468-0.308-1.125-0.221-1.468,0.194C246.417,377.688,246.667,378.426,247.31,378.635"/>
		<path clip-path="url(#SVGID_4_)" d="M243.253,376.827c-2.772,1.549-6.624,2.802-9.951,2.447c3.297,1.072,7.575,0.459,11.098-0.649
			C246.239,377.987,244.953,375.967,243.253,376.827"/>
		<path clip-path="url(#SVGID_4_)" fill="#111010" d="M241.615,347.951c-0.334,2.153-0.669,4.308-1.003,6.462
			c0,0-12.568-4.963-16.645,3.982c0,0-0.309-8.215,7.011-10.202c1.501-0.308,3.341-0.565,5.447-0.604
			C238.411,347.554,240.164,347.721,241.615,347.951"/>
		<path clip-path="url(#SVGID_4_)" fill="#111010" d="M249.359,349.2c0.226,1.921,0.452,3.842,0.679,5.763
			c0.892-0.604,2.508-1.524,4.716-1.876c1.455-0.23,3.321-0.527,5.224,0.486c2.291,1.221,3.095,3.523,3.302,4.189
			c0.03-0.746,0.075-3.896-2.259-6.516c-1.8-2.021-3.998-2.588-4.826-2.789C252.903,347.658,250.212,348.796,249.359,349.2"/>
		<path clip-path="url(#SVGID_4_)" fill="#652B28" d="M247.281,381.951c-0.419-0.123-3.651-1.021-6.866,0.654
			c-0.529,0.276-0.939,0.559-1.216,0.77c2.632-0.806,4.655-0.81,5.809-0.725c1.776,0.129,3.48,0.557,3.48,0.557
			c1.273,0.32,2.008,0.639,2.052,0.544C250.605,383.607,249.159,382.505,247.281,381.951"/>
		<path clip-path="url(#SVGID_4_)" fill="#987957" d="M243.747,384.173c-0.44-0.015-0.658-0.003-0.888,0.039
			c-0.337,0.06-0.778,0.197-0.768,0.29c0.009,0.073,0.302,0.087,0.777,0.122c1.06,0.079,1.589,0.118,1.945,0.193
			c0.996,0.209,1.494,0.313,1.665,0.393c0.028,0.013,0.184,0.088,0.365,0.05c0.018-0.004,0.206-0.046,0.224-0.146
			c0.007-0.035-0.002-0.108-0.177-0.229c-0.66-0.459-1.995-0.626-1.995-0.626C244.403,384.197,244.102,384.185,243.747,384.173"/>
		<path clip-path="url(#SVGID_4_)" fill="#4C6580" d="M239.922,397.755c0.37,2.911,0.657,6.824,0.901,9.772l-0.655-0.397
			c-4.586-2.894-18.967-12.076-19.757-17.178c0.562,2.124,2.661,3.446,4.188,4.898c5.111,4.159,10.57,7.876,15.986,11.63
			l-0.594,0.345C239.917,404.143,239.873,400.399,239.922,397.755"/>
	</g>
	<g clip-path="url(#SVGID_2_)">
		<defs>
			<rect id="SVGID_12_" x="-90" y="-157" width="1000" height="1000"/>
		</defs>
		<clipPath id="SVGID_13_">
			<use xlink:href="#SVGID_12_"  overflow="visible"/>
		</clipPath>
		<path clip-path="url(#SVGID_13_)" fill="#847977" d="M150.997,411.53c3.61,0.625,9.028,2.002,14.778,5.354
			c11.06,6.446,16.112,15.976,17.873,19.405c3.739,7.281,4.244,12.808,4.34,43.913c0.05,16.262-0.052,26.304,1.277,40.852
			c1.649,18.056,2.806,23.514,7.149,27.32c3.773,3.307,7.087,3.094,26.298,4.34c26.41,1.714,31.63,2.861,37.021,4.851
			c15.207,5.611,19.779,13.483,21.191,16.341c2.26,4.571,3.271,10.151,1.813,10.972c-1.856,1.045-5.754-6.732-14.749-11.397
			c-4.027-2.088-7.791-2.887-19.149-3.574c-14.06-0.851-25.379-0.659-30.553-0.551c-19.112,0.403-24.128,1.167-32.34-1.662
			c-5.657-1.949-9.917-4.583-12.596-6.468c-1.663-1.469-3.652-3.508-5.532-6.213c-2.415-3.475-3.775-6.79-4.562-9.245
			c-1.046-6.174-2.093-12.349-3.14-18.523C157.076,488.673,154.037,450.102,150.997,411.53"/>
		<path clip-path="url(#SVGID_13_)" fill="#4C6580" d="M252.924,434.813c0,0.463-0.217,0.838-0.484,0.838s-0.484-0.375-0.484-0.838
			s0.217-0.838,0.484-0.838S252.924,434.35,252.924,434.813"/>
		<path clip-path="url(#SVGID_13_)" fill="#4C6580" d="M251.776,428.2c0,0.463-0.217,0.838-0.484,0.838s-0.484-0.375-0.484-0.838
			s0.217-0.838,0.484-0.838S251.776,427.737,251.776,428.2"/>
		<path clip-path="url(#SVGID_13_)" fill="#4C6580" d="M249.317,419.45c0.112,0.449-0.007,0.866-0.267,0.932
			c-0.259,0.063-0.56-0.247-0.672-0.697c-0.112-0.449,0.007-0.866,0.267-0.93C248.905,418.689,249.206,419.002,249.317,419.45"/>
		<path clip-path="url(#SVGID_13_)" fill="#4C6580" d="M247.077,412.888c0.112,0.449-0.007,0.866-0.267,0.931
			c-0.259,0.064-0.56-0.248-0.672-0.697c-0.112-0.448,0.007-0.865,0.267-0.93C246.664,412.127,246.965,412.438,247.077,412.888"/>
		<path clip-path="url(#SVGID_13_)" fill="#BC956B" d="M219.543,372.033c-0.566,0.687-1.505,0.919-2.013,1.044
			c-1.842,0.454-3.388-0.315-3.804-0.522c-1.446-0.72-2.5-2.677-4.549-6.563c-0.586-1.111-1.161-2.456-2.312-5.146
			c-0.711-1.662-1.071-2.585-0.82-3.729c0.038-0.174,0.454-1.96,1.715-2.388c1.38-0.467,2.946,0.974,4.922,2.834
			c1.382,1.303,2.967,2.82,4.549,5.52C218.41,365.095,221.258,369.953,219.543,372.033"/>
	</g>
</g>
</svg>
