<?xml version="1.0" encoding="utf-8"?>
<!-- Generator: Adobe Illustrator 16.0.0, SVG Export Plug-In . SVG Version: 6.00 Build 0)  -->
<!DOCTYPE svg PUBLIC "-//W3C//DTD SVG 1.1//EN" "http://www.w3.org/Graphics/SVG/1.1/DTD/svg11.dtd">
<svg version="1.1" id="Layer_1" xmlns="http://www.w3.org/2000/svg" xmlns:xlink="http://www.w3.org/1999/xlink" x="0px" y="0px"
	 width="852.085px" height="570.057px" viewBox="0 0 852.085 570.057" enable-background="new 0 0 852.085 570.057"
	 xml:space="preserve">
<g>
	<defs>
		<rect id="SVGID_1_" x="-66.776" y="-208.791" width="1000" height="1000"/>
	</defs>
	<clipPath id="SVGID_2_">
		<use xlink:href="#SVGID_1_"  overflow="visible"/>
	</clipPath>
	<path clip-path="url(#SVGID_2_)" fill="#E3F4FF" d="M116.376,530.324c0,0-133.351-192.226-52.866-268.868
		s157.171-8.323,172.499-90.981C250.145,94.241,303.997,20.218,402.01,44.083c125.833,30.641,111.93,117.373,173.707,110.882
		c61.777-6.49,167.448-55.043,186.554,36.891c19.104,91.934-70.418,170.782-13.413,164.27c39.176-4.476,89.303-14.486,63.415,80.408
		c-16.466,60.354-40.481,93.79-40.481,93.79H116.376z"/>
	<path clip-path="url(#SVGID_2_)" fill="#99CCE0" d="M99.96,476.726c23.94-10.013,50.122,15.419,50.122,15.419
		s-22.444-23.187-22.915-56.105c-0.339-23.449,20.346-57.519,27.614-58.684c7.271-1.165,27.149,20.746,31.958,62.427
		c2.244,19.449-7.499,48.687-7.499,48.687s17.227-39.712,54.044-40.46c2.833,9.726-7.189,31.086-14.697,43.763
		c-6.516,11.002-22.869,30.302-58.282,26.03C116.703,512.542,99.417,476.955,99.96,476.726"/>
	<path clip-path="url(#SVGID_2_)" fill="#FFFFFF" d="M146.473,394.074c2.957,6.452,6.003,12.722,9.719,18.759
		c-0.328-9.925-0.834-20.068-0.07-29.91c0.07-0.892,1.317-0.892,1.387,0c0.461,5.932,0.436,11.94,0.357,17.946
		c0.677-1.268,1.268-2.578,1.724-3.961c0.697-2.136,0.47-4.314,0.731-6.501l0.464-0.064c1.605,3.93-0.419,8.641-2.937,11.9
		c-0.057,4.117-0.127,8.227-0.066,12.307c0.148,10.181,0.546,20.355,1.247,30.518c3.794-11.115,8.609-21.653,11.766-33.029
		l0.479,0.062c-1.522,11.682-6.964,23.235-11.988,33.799l-0.197,0.114l0.04,0.653c0.937,13.034,2.505,26.108,5.144,38.94
		c7.165-12.085,11.979-24.28,16.248-37.66c0.097-0.307,0.524-0.179,0.47,0.13c-2.233,13.038-8.164,27.929-16.481,38.3l-0.073,0.037
		c1.781,8.506,4.031,16.899,6.904,25.103c0.14,0.396-0.479,0.561-0.625,0.173c-7.216-19.66-10.768-40.23-12.643-61.024
		c-1.025-11.342-1.477-22.729-1.772-34.112c-0.018-0.849-0.048-1.711-0.079-2.565c-4.368-5.794-8.311-12.735-10.022-19.796
		L146.473,394.074z"/>
	<path clip-path="url(#SVGID_2_)" fill="#FFFFFF" d="M107.642,477.594c4.201,2.912,7.914,6.464,12.131,9.389
		c3.179,2.205,6.507,4.192,9.883,6.091c-2.949-2.77-5.746-5.848-8.197-9.04l0.358-0.275c3.44,2.709,6.107,6.44,9.004,9.702
		l0.027,0.29c1.42,0.785,2.848,1.562,4.28,2.326c6.483,3.458,13.211,6.525,19.766,9.89c-4.007-3.397-7.456-7.401-11.681-10.589
		c-0.277-0.211-0.046-0.619,0.275-0.472c5.494,2.542,9.277,7.881,13.551,11.983l0.088,0.227c2.493,1.32,4.957,2.691,7.359,4.159
		c0.425,0.258,0.055,0.853-0.379,0.649c-10.526-4.908-21.077-9.933-31.333-15.387c-8.736-4.641-19.693-10.237-25.675-18.403
		C106.869,477.816,107.324,477.373,107.642,477.594"/>
	<path clip-path="url(#SVGID_2_)" fill="#FFFFFF" d="M175.391,508.387c1.465-0.953,2.909-1.926,4.356-2.9l0.003-0.023
		c2.215-4.256,5.324-8.075,7.572-12.383c2.509-4.806,4.571-9.949,5.948-15.201l0.404,0.112c-0.825,5.521-3.024,10.626-5.436,15.628
		c-1.547,3.197-3.367,7.129-5.852,10.06c5.282-3.652,10.405-7.481,15.286-11.628c3.446-9.236,7.037-18.422,10.493-27.655
		c0.124-0.334,0.646-0.207,0.543,0.146c-2.652,8.942-5.636,18.146-9.859,26.516c2.673-2.315,5.272-4.72,7.784-7.253
		c2.724-2.742,5.266-5.648,7.665-8.67l-0.115-0.255c1.559-6.006,3.825-12.141,6.037-17.942l0.373,0.104
		c-1.884,5.421-2.755,11.747-5.385,16.91c1.66-2.155,3.268-4.355,4.766-6.628c3.449-5.232,5.196-11.206,8.36-16.499
		c0.164-0.278,0.686-0.182,0.649,0.18c-0.53,5.438-4.046,11.008-6.822,15.586c-3.713,6.137-8.375,11.693-13.283,16.896
		c-7.093,7.526-15.316,14.467-24.165,20.121c3.191-0.272,6.328-0.37,9.528-1.195c4.174-1.073,8.048-3.224,11.815-5.26
		c0.307-0.167,0.565,0.279,0.273,0.471c-6.54,4.214-15.134,8.447-23.178,6.935c-2.463,1.519-4.96,2.966-7.505,4.274
		C175.354,508.979,175.115,508.569,175.391,508.387"/>
	<path clip-path="url(#SVGID_2_)" fill="#FFFFFF" d="M136.089,444.138c4.596,6.759,7.757,14.64,11.715,21.795
		c4.569,8.261,9.838,15.839,15.874,23.095l-0.26,0.26c-6.271-6.176-11.1-13.649-15.538-21.203
		c-4.429-7.537-9.14-15.567-12.255-23.746C135.516,444.053,135.935,443.919,136.089,444.138"/>
	<path clip-path="url(#SVGID_2_)" fill="#FFFFFF" d="M138.325,411.231c6.677,12.738,11.825,25.888,19.42,38.17l-0.33,0.258
		c-8.904-10.907-14.245-25.335-19.539-38.239L138.325,411.231z"/>
	<path clip-path="url(#SVGID_2_)" fill="#FFFFFF" d="M126.922,498.025c2.785,0.521,5.479,1.522,8.148,2.457
		c2.994,1.043,6.073,1.723,9.085,2.675l-0.054,0.432c-5.679-0.104-12.058-3.204-17.24-5.343L126.922,498.025z"/>
	<path clip-path="url(#SVGID_2_)" fill="#FFFFFF" d="M108.245,482.96c1.678,0.631,3.161,1.72,4.753,2.542
		c1.702,0.88,3.416,1.681,5.048,2.682c0.246,0.148,0.085,0.588-0.203,0.479c-3.191-1.232-7.611-2.591-9.81-5.336L108.245,482.96z"/>
	<path clip-path="url(#SVGID_2_)" fill="#FFFFFF" d="M209.086,483.755c2.879-1.99,6.052-3.482,8.918-5.509
		c3.258-2.303,6.177-5.124,8.922-8.003c0.27-0.284,0.664,0.132,0.421,0.419c-4.553,5.448-11.041,11.598-18.112,13.444
		L209.086,483.755z"/>
	<polygon clip-path="url(#SVGID_2_)" fill="#E5C6A5" points="694.81,320.087 670.249,320.368 667.414,298.105 691.14,297.007 
		692.409,304.967 	"/>
	<path clip-path="url(#SVGID_2_)" fill="#CEB797" d="M692.115,303.125c-0.842,0.793-11.208,10.19-19.418,6.744
		c-0.85-0.356-3.128-1.099-4.022-1.869l-1.261-9.896l23.726-1.097C691.465,299.047,691.79,301.087,692.115,303.125"/>
	<path clip-path="url(#SVGID_2_)" fill="#FFFFFF" d="M143.088,540.28c-0.158,0-0.316-0.068-0.426-0.198
		c-0.199-0.236-0.17-0.586,0.066-0.785l11.523-9.744c0.238-0.2,0.588-0.17,0.786,0.066c0.199,0.234,0.17,0.586-0.065,0.784
		l-11.523,9.744C143.343,540.236,143.216,540.28,143.088,540.28"/>
	<path clip-path="url(#SVGID_2_)" fill="#2E77CE" d="M763.821,501.158c0,0.29-0.01,0.58-0.01,0.86c0,0.08-0.01,0.159-0.01,0.25
		c0,0.069-0.01,0.149-0.01,0.229c-0.021,0.94-0.051,1.84-0.09,2.7c-0.101,2.189-0.761,13.43-1.681,28.58h-100.5
		c-0.09-19.521-0.439-36.9-0.74-48.88v-0.011c-0.27-10.5-0.5-16.85-0.5-16.85s3.82-2.5,8.891-5.57
		c7.35-4.439,17.35-10.069,22.13-10.949c1.32-0.24,3.92,0.569,7.34,2.1c0.55,0.25,1.12,0.51,1.71,0.79
		c6.5,3.1,15.351,8.27,24.04,13.63c7.74,2.05,15.78,5.6,19.54,6.72c1.96,0.591,3.09,0.521,3.7,0.08
		c2.33-1.649-2.87-8.609,1.05-5.359c4.41,3.659,7.42,8.12,9.41,13.17c0.08,0.22,0.17,0.439,0.25,0.66c0.05,0.14,0.11,0.29,0.16,0.43
		c0.68-0.29,1.29-0.58,1.85-0.86c0.01,0,0.01,0,0.01-0.01c1.83-0.94,3.011-1.79,3.28-1.99c0.021-0.02,0.04-0.029,0.061-0.04
		c0,0,0.01,0.2,0.01,0.57c0.01,0.27,0.02,0.63,0.029,1.07C763.821,485.908,763.972,494.118,763.821,501.158"/>
	<path clip-path="url(#SVGID_2_)" fill="#CFE5E1" d="M717.585,469.909c0,0-12.253,1.123-24.201,0
		c-7.902-0.742-14.768-2.518-14.768-2.518s8.37-12.482,17.913-12.487C704.166,454.901,717.585,469.909,717.585,469.909"/>
	<path clip-path="url(#SVGID_2_)" fill="#195193" d="M711.941,533.778h-12.8c1.86-19.061,3.4-36.271,3.4-36.271
		s0.17,3.141,0.449,7.37v0.03c0.49,7.56,1.29,18.57,1.971,21.31C705.781,529.518,709.202,532.058,711.941,533.778"/>
	<path clip-path="url(#SVGID_2_)" fill="#195193" d="M713.713,477.678c8.387,0,15.737-1.228,15.823-1.242
		c0.399-0.069,0.671-0.448,0.603-0.851c-0.069-0.399-0.466-0.661-0.85-0.603c-0.102,0.018-10.075,1.682-19.951,1.099
		c-0.403-0.03-0.755,0.287-0.778,0.693c-0.025,0.405,0.286,0.753,0.692,0.778C710.748,477.64,712.247,477.678,713.713,477.678"/>
	<path clip-path="url(#SVGID_2_)" fill="#195193" d="M693.281,466.538l-0.46-0.03h-0.01l-0.74-0.06l-0.02,0.89
		c0.01,0.011,0,0.011,0,0.011l-0.01,0.55l-0.03,1.87l-0.16,9.159l18.11,1.73l0.06-3.08l0.021-1.47l0.1-5.79l0.05-2.521
		L693.281,466.538z M708.632,472.768l-0.03,1.479l-0.04,2.53v0.05l-0.04,2.22l-15.17-1.449l0.14-7.681l0.03-1.88l15.17,1.13
		l-0.02,1.19L708.632,472.768z"/>
	<path clip-path="url(#SVGID_2_)" fill="#195193" d="M686.331,476.446c0.341,0,0.647-0.238,0.72-0.587
		c0.084-0.397-0.173-0.788-0.571-0.869c-0.049-0.011-4.837-1.01-7.587-2.124c-2.666-1.079-5.03-3.555-5.054-3.579
		c-0.276-0.294-0.743-0.312-1.041-0.029c-0.295,0.281-0.308,0.747-0.028,1.042c0.104,0.111,2.609,2.733,5.569,3.933
		c2.875,1.164,7.641,2.157,7.842,2.198C686.23,476.442,686.281,476.446,686.331,476.446"/>
	<path clip-path="url(#SVGID_2_)" fill="#195193" d="M709.296,474.286c0.383,0,0.706-0.298,0.734-0.686
		c0.027-0.406-0.28-0.759-0.686-0.786l-11.769-0.799c-0.386-0.04-0.757,0.277-0.786,0.686c-0.027,0.405,0.279,0.758,0.686,0.785
		l11.769,0.798C709.261,474.286,709.279,474.286,709.296,474.286"/>
	<path clip-path="url(#SVGID_2_)" fill="#195193" d="M763.852,501.387c0,0.04-0.01,0.261-0.04,0.631c0,0.08-0.01,0.159-0.01,0.25
		c0,0.069-0.01,0.149-0.01,0.229c-0.21,3.64-0.931,15.92-1.82,31.28h-1.48c1.061-18.18,1.87-32.08,1.891-32.47
		c0.02-0.41,0.38-0.7,0.78-0.7c0.319,0.02,0.579,0.25,0.659,0.55C763.842,501.228,763.852,501.308,763.852,501.387"/>
	<path clip-path="url(#SVGID_2_)" fill="#195193" d="M713.062,533.778h-2.49c-2-1.58-4.199-3.7-5.59-6.19
		c-1.74-3.13-2.05-13.87-1.99-22.68v-0.03c0.051-6.529,0.301-11.99,0.33-12.5c0.021-0.41,0.351-0.76,0.771-0.7
		c0.41,0.021,0.72,0.36,0.7,0.771c-0.48,10.12-0.79,30.34,1.479,34.42C707.901,529.797,710.852,532.228,713.062,533.778"/>
	<path clip-path="url(#SVGID_2_)" fill="#195193" d="M753.862,494.978l-28.29-9.271c-0.221-0.07-0.471-0.03-0.66,0.11
		c-0.19,0.14-0.3,0.359-0.3,0.59v3.91c0,0.31,0.189,0.59,0.479,0.689l28.29,10.13c0.08,0.03,0.16,0.051,0.25,0.051
		c0.15,0,0.29-0.051,0.42-0.141c0.2-0.14,0.311-0.359,0.311-0.6v-4.771C754.362,495.358,754.162,495.078,753.862,494.978
		 M752.892,499.398l-26.81-9.601v-2.37l26.81,8.79V499.398z"/>
	<path clip-path="url(#SVGID_2_)" fill="#2E77CE" d="M768.329,476.558c-7.16,12.449-26.45,7.46-46.38-9.181
		c-24.12-20.13-52.29,6.99-52.29,6.99s-1.5-63.99-12.52-82.96c-11.021-18.97-14.46-60.64-8.62-70.94c1.479-2.6,6.81-5.159,14.02-6.8
		c0.83-0.189,1.61,0.07,2.49-0.109c0.06-0.011,0.11-0.021,0.17-0.03c10.561-2.1,24.46-3.29,36.95-3.59
		c11.32-0.26,21.49,0.21,26.99,1.41h0.01c0.93,0.199,1.72,0.42,2.36,0.659c3.68,1.391,16.649,11.79,21.97,21.95
		c3.109,5.94,3.609,11.79-1.891,15.69c-0.42,0.3-0.869,0.59-1.359,0.859c-9.851,5.511-7.99,17.9-8.18,22.71
		c-0.021,0.58-0.03,1.181-0.011,1.801c0.41,22.42,24.011,69.26,27.62,87.199C771.26,470.158,770.81,472.228,768.329,476.558"/>
	<path clip-path="url(#SVGID_2_)" fill="#E5E5E5" d="M702.149,309.938l-15.64,66.59l-0.86,3.67l-20.45-66.67
		c0.61-0.12,1.24-0.24,1.88-0.35C677.369,311.288,690.39,310.218,702.149,309.938"/>
	<path clip-path="url(#SVGID_2_)" fill="#FFFFFF" d="M702.149,309.938l-15.64,66.59l-19.431-63.35
		C677.369,311.288,690.39,310.218,702.149,309.938"/>
	<path clip-path="url(#SVGID_2_)" fill="#E5E5E5" d="M687.72,311.438l1.704,52.667l-11.462-51.765
		C681.817,311.881,680.486,311.881,687.72,311.438"/>
	<path clip-path="url(#SVGID_2_)" fill="#FF3C00" d="M674.792,311.88l6.736,8.857c0,0,5.689-9.388,5.569-10.111
		C686.936,309.646,674.792,311.88,674.792,311.88"/>
	<polygon clip-path="url(#SVGID_2_)" fill="#FF3C00" points="680.191,316.125 679.798,362.727 685.836,382.986 690.16,362.572 
		682.993,315.151 	"/>
	<path clip-path="url(#SVGID_2_)" fill="#2E77CE" d="M756.439,483.568c-0.72,0.109-1.49,0.17-2.29,0.17
		c-13.12,0-36.61-14.28-47.06-20.79c-3.011-1.87-8.421-2.4-10.96,0.07c-7.9,7.659-23.36,29.68-33.711,23.13
		c-17.17-10.86-7.649-67.971-8.84-79.46c-0.55-5.32-1.04-12.221-2.069-18.7c-1.94-12.2-2.454-23.577-12.841-21.617
		c-1.621,0.306-2.907,0.153-3.6,0.317c-4.516,1.072,2.17-14.59,4.39-24.16c2.681-11.58,5.62-22.61,5.74-23.061v-0.01
		c0,0,4.84-2.71,13.87-5.06c3.43-0.891,3.47-0.73,3.47-0.73l23.83,77.49l4.62-21.99c0,0,3.811,46.83,21.351,65.58
		c17.439,18.64,32.069,36.16,37.84,43.19C751.979,480.118,754.079,482.007,756.439,483.568"/>
	<path clip-path="url(#SVGID_2_)" fill="#195193" d="M701.338,461.607c0.007-0.001,0.016-0.003,0.023-0.005
		c0.396-0.098,0.637-0.496,0.54-0.892l-14.927-60.742l20.613-38.028l-5.83-8.296l8.581-0.074l8.294-42.581
		c0.079-0.399-0.179-0.787-0.578-0.868c-0.396-0.075-0.786,0.178-0.868,0.579l-8.059,41.407l-10.19,0.089l6.918,9.846
		l-20.446,37.725l0.067,0.277l14.994,61.019C700.564,461.451,700.95,461.689,701.338,461.607"/>
	<polygon clip-path="url(#SVGID_2_)" fill="#195193" points="650.778,320.233 657.848,353.754 666.135,352.007 662.26,360.391 
		688.579,398.447 667.361,359.829 669.667,348.248 661.176,347.134 654.939,317.565 	"/>
	<path clip-path="url(#SVGID_2_)" fill="#195193" d="M759.712,483.857c3.402-0.718,6.068-2.184,7.948-4.38
		c3.264-3.811,2.868-8.396,2.903-8.587c0.085-0.462,0.064-3.861-0.156-3.852c-0.395,0.017-0.648,3.68-0.656,4.087
		c-0.022,1.165-0.356,4.077-3.223,7.41c-2.176,2.525-5.591,3.971-10.145,4.293c-11.201,0.791-31.711-10.808-43.965-17.737
		c-3.17-1.793-5.676-3.209-7.337-4.022c-6.931-3.389-12.752,3.955-17.89,10.437c-1.286,1.622-2.499,3.153-3.698,4.489
		c-5.59,6.228-13.188,9.728-13.263,9.762c-0.37,0.169-0.534,0.605-0.366,0.975c0.167,0.371,0.599,0.533,0.975,0.366
		c0.323-0.145,7.948-3.655,13.75-10.119c1.229-1.37,2.457-2.918,3.756-4.558c5.028-6.342,10.228-12.898,16.09-10.028
		c1.62,0.793,4.108,2.2,7.259,3.981c12.397,7.011,33.148,18.746,44.794,17.924C757.627,484.217,758.703,484.071,759.712,483.857"/>
	<path clip-path="url(#SVGID_2_)" fill="#195193" d="M752.12,437.551c0.372-0.078,0.627-0.431,0.577-0.813
		c-0.051-0.403-0.42-0.689-0.823-0.639l-23.993,3.055c-0.436,0.074-0.689,0.42-0.638,0.822c0.051,0.404,0.42,0.689,0.823,0.638
		l23.993-3.054C752.08,437.558,752.101,437.555,752.12,437.551"/>
	<path clip-path="url(#SVGID_2_)" fill="#195193" d="M678.748,442.578c0.378-0.152,0.559-0.583,0.406-0.959
		c-0.152-0.377-0.581-0.549-0.959-0.406l-13.187,5.35c-0.378,0.153-0.559,0.582-0.406,0.959c0.136,0.336,0.491,0.517,0.834,0.445
		c0.042-0.009,0.085-0.023,0.126-0.039L678.748,442.578z"/>
	<polygon clip-path="url(#SVGID_2_)" fill="#BC2800" points="684.408,315.874 681.542,318.521 677.962,316.212 680.165,319.255 
		683.554,318.857 	"/>
	<path clip-path="url(#SVGID_2_)" fill="#2E77CE" d="M769.55,343.887c-6.9,2.65-12.851,4.511-17.961,5.761
		c-7.93,1.95-13.859,2.45-18.26,2.229c-9.359-0.47-11.76-4.21-11.76-4.21c2.22-10.609,2.25-18.08,1.51-23.35
		c-0.189-1.351-0.43-2.55-0.689-3.641c-0.358-1.502-0.712-4.985,0.52-8.54c0.24-0.693-1.995-1.516-1.838-1.839
		c3.432,0.156,14.214-0.311,16.802-0.912c11.11-2.18,27.826-6.419,36.886-10.339c0.07-0.029,0.131-0.06,0.19-0.08
		c3.88-1.689,6.34-3.13,6.36-3.979v-0.04c0-0.04,0-0.08-0.01-0.12c-0.051-0.72-0.211-1.52-0.471-2.38
		c-4.08-14-32.07-45.31-32.07-45.31l2.24-1.82l0.04-0.03l10.25-8.31c0,0,25.601,21.15,43.141,40.2c8.5,9.23,15.109,17.97,16,23.56
		C823.939,322.887,799.699,332.308,769.55,343.887"/>
	<path clip-path="url(#SVGID_2_)" fill="#195193" d="M769.55,343.887c-6.147,2.361-11.541,4.096-16.258,5.329
		c-1.072,0.28-2.078,0.747-3.048,1.283c-0.005,0.003-0.01,0.005-0.015,0.008c-9.851,5.511-7.99,17.9-8.18,22.71
		c-0.021,0.58-0.03,1.181-0.011,1.801c-6.359-5.5-8.34-16.45-8.71-23.141c-0.16-2.859-0.029-4.939,0.18-5.479
		c2.061-5.38,9.73-8.99,19.971-12.44c15.279-5.149,36.32-9.93,53.01-19.689c9.67-5.65,2.811-25.09-2.06-37.09
		c8.5,9.23,15.109,17.97,16,23.56C823.939,322.887,799.699,332.308,769.55,343.887"/>
	<path clip-path="url(#SVGID_2_)" fill="#195193" d="M800.339,301.717c-4.01,0.86-15.949-4.069-15.949-4.069
		s11.29,10.109,8.83,10.529c-2.45,0.44-12.83-9.55-12.83-9.55l4.47,12.7l-9.67-4.57c0,0-25.776,0.979-37.316,2.629
		c11.11-2.18,27.826-6.419,36.887-10.339c0.069-0.029,0.13-0.06,0.189-0.08c3.87-1.58,6.36-3,6.36-3.979v-0.04
		c0-0.04,0-0.08-0.01-0.12c0.279-0.65,0.25-1.38-0.261-2.1l-0.21-0.28l-32.39-45.5l2.56-1.63l0.04-0.03c0,0,33.49,41.8,35.98,45.27
		c2.49,3.47-1.72,4.94-1.72,4.94S804.359,300.858,800.339,301.717"/>
	<path clip-path="url(#SVGID_2_)" fill="#FFFFFF" d="M748.761,247.137l-1.821-2.908l11.414-9.956l2.936,2.703
		C761.289,236.977,751.763,245.295,748.761,247.137"/>
	<path clip-path="url(#SVGID_2_)" fill="#EFD5AF" d="M749.498,241.861c0,0-6.251-1.443-10.932-3.082
		c-4.682-1.638-8.199-4.262-7.069-5.267c1.13-1.006,8.446,0.381,7.715-0.38c-0.731-0.761-6.698-3.391-8.816-3.09
		s-3.349,1.193-3.823,0.153s4.051-5.483,5.327-5.536c1.275-0.053,0.486-3.148,2.816-3.253c2.331-0.104,1.589-0.45,3.441-2.018
		c1.853-1.568,3.261,0.193,4.134-1.178c0.873-1.372,2.694-1.128,3.988-0.755c1.293,0.372,8.312,9.2,10.33,12.227
		c2.018,3.027,2.381,3.9,2.381,3.9L749.498,241.861z"/>
	
		<rect x="728.877" y="202.708" transform="matrix(-0.5061 -0.8625 0.8625 -0.5061 934.4631 1030.0494)" clip-path="url(#SVGID_2_)" fill="#FF3C00" width="66.545" height="89.533"/>
	<polygon clip-path="url(#SVGID_2_)" fill="#FF9017" points="780.392,201.165 783.869,202.913 810.76,252.911 743.353,296.256 
		739.544,294.704 709.177,242.958 	"/>
	<path clip-path="url(#SVGID_2_)" fill="#EFD5AF" d="M746.279,217.455c1.177,0.229,7.332,5.391,6.635,7.671
		c-0.696,2.28-5.566-2.603-5.566-2.603s4.706,6.024,3.296,8.018s-8.66-5.201-8.66-5.201s8.211,7.843,5.666,10.194
		c-2.389,2.205-11.108-7.672-11.108-7.672s8.254,8.695,5.843,9.677c-3.949,1.607-10.653-6.98-10.653-6.98s0.688,8.94-2.801,5.924
		c-4.409-3.812-3.443-10.011,5.213-11.632C735.428,224.61,741.508,216.526,746.279,217.455"/>
	<path clip-path="url(#SVGID_2_)" fill="#2E77CE" d="M652.699,316.538c-2.62,1.4-4.729,6.094-5.16,33.43
		c-0.145,9.224-3,16.33-6.199,15.37c0,0-2.4,0.57-6.271,1.351c-14.57,2.899-50.04,8.63-57.31-2.82
		c-15.811-24.89-17.13-85.27-17.13-85.27l13.05-1.31c0,0,7.54,58.98,20.359,63.72c10.61,3.931,32.62-13.14,51.16-21.54
		C647.779,318.288,650.3,317.288,652.699,316.538"/>
	<path clip-path="url(#SVGID_2_)" fill="#195193" d="M652.909,387.337c-0.46,0.23-0.93,0.45-1.399,0.65
		c-1.94-12.2-2.388-23.18-12.841-21.617c-1.928,0.288-3.275,0.336-3.6,0.317c-14.57,2.899-50.04,8.63-57.31-2.82
		c-15.811-24.89-17.131-85.27-17.131-85.27l4.051-0.13c0,0,2.25,39.04,3.279,44.13c2.45,12.189,8.71,30.59,17.82,36.359
		c15.08,9.561,39.448-10.188,50.808-16.357c2.62-1.431,8.175-2.021,10.471,0.643c0.738,0.858,1.939,4.27,3.09,9.02
		C653.377,365.623,654.339,386.637,652.909,387.337"/>
	<path clip-path="url(#SVGID_2_)" fill="#EFD5AF" d="M573.828,281.715c0,0,2.045-18.861,1.729-22.824
		c-0.169-2.129-1.269-3.855-3.491-5.108c-0.813-0.459-0.517-7.229-4.042-6.12c-4.196,1.32-1.478,5.063-1.478,5.063
		s-1.752-6.656-3.904-4.24c-2.15,2.417-1.673,4.574-1.673,4.574s-2.278-3.832-4.141-1.177c-1.863,2.655-0.657,5.446-0.657,5.446
		s-3.389-6.372-5.223-2.454c-1.863,3.981,9.781,26.185,9.781,26.185L573.828,281.715z"/>
	<path clip-path="url(#SVGID_2_)" fill="#E2C8A3" d="M552.203,262.173c0.311,0.149,0.454,0.405,0.625,0.644
		c1.181,1.646,2.424,3.339,3.891,4.724c0.466,0.378,0.994,0.941,1.501,0.823c1.036-1.051,0.715-2.824,0.503-4.203l-0.444-1.881
		c0.999,1.306,2.105,2.953,3.192,4.13c0.496,0.559,1.078,0.92,1.714,0.855c1.016-0.498,0.723-2.17,0.709-3.173
		c-0.145-1.437-0.386-2.998-0.857-4.389l0.904,0.877c0,0,0.514,0.496,0.514,0.497l0.039,0.044l0.021,0.065
		c0.274,0.928,0.961,1.625,1.591,2.33c0.586,0.564,1.418,1.487,2.229,1.453c0.972-0.207,1.116-1.353,0.836-2.188
		c-0.272-0.93-0.846-1.774-1.469-2.547l0.136-0.118c0.674,0.75,1.311,1.57,1.664,2.56c0.779,1.954-0.847,3.698-2.661,2.305
		c-1.143-0.772-2.833-2.472-3.06-3.392c-0.001-0.001-0.341-0.628-0.342-0.629l0.558-0.269c0.518,1.909,2.027,6.685-0.612,7.553
		c-0.999,0.188-2.088-0.485-2.633-1.165c-0.779-0.881-1.38-1.825-1.969-2.782c0,0.001,0.725-0.309,0.724-0.306
		c0.28,1.379,0.548,5.126-1.597,5.059c-2.225-0.965-3.479-3.459-4.872-5.305C552.793,263.272,552.224,262.745,552.203,262.173"/>
	<path clip-path="url(#SVGID_2_)" fill="#E2C8A3" d="M571.277,253.341c-0.519-0.4-2.07-1.486-4.244-1.433
		c-0.836,0.021-2.688,0.066-3.095,1.006c0,0,0.286,2.058,4.148,7.069l0.83,1.388l0.566,2.022c0,0-6.506-8.3-6.443-10.474
		C563.103,250.746,567.735,250.262,571.277,253.341"/>
	<polygon clip-path="url(#SVGID_2_)" fill="#FFFFFF" points="574.211,278.028 559.897,279.439 560.251,283.574 574.289,282.142 	"/>
	<path clip-path="url(#SVGID_2_)" fill="#444951" d="M443.242,390.217l-1.061,17.351l-0.01,0.12l-1.72,27.939l-0.131,2.15
		l-0.489,7.96l-0.311,5.2l-0.359,5.84l-2.301,37.38l-0.199,3.29l-0.87,14.24v0.02l-0.09,1.49l-0.271,4.42l-0.17,2.75l-0.53,8.51
		l-0.3,4.9h-99.73l-0.32-4.9l-0.33-4.96l-0.41-6.16l-0.12-1.79l-0.27-4.14l-0.01-0.11v-0.01l-0.42-6.27l-1.54-23.301l-0.43-6.43
		l-1.68-25.31l-0.01-0.2l-0.23-3.46l-0.59-8.95l-0.05-0.77l-0.01-0.011l-0.38-5.739l-0.06-1.021l-1.8-27.149l-0.02-0.32l-0.83-12.45
		c-0.68-10.27,5.84-19.08,14.14-19.08h89.77C437.361,371.248,443.872,379.988,443.242,390.217"/>
	<polygon clip-path="url(#SVGID_2_)" fill="#444951" points="334.192,516.178 334.192,523.978 334.052,523.917 321.502,518.898 
		321.502,533.778 316.092,533.778 316.092,510.488 319.972,511.708 320.002,511.717 320.422,511.848 333.521,515.967 	"/>
	<polygon clip-path="url(#SVGID_2_)" fill="#444951" points="444.332,510.488 444.332,533.778 438.922,533.778 438.922,518.898 
		435.262,520.368 426.232,523.978 426.232,516.178 435.702,513.198 440.452,511.708 440.521,511.688 	"/>
	<path clip-path="url(#SVGID_2_)" fill="#89909B" d="M372.136,371.252c0,0,35.228,2.042,48.778,40.198
		c13.549,38.155,15.09,81.86,15.09,81.86l8.534-102.93c0.85-10.232-5.612-19.129-13.892-19.129H372.136z"/>
	<path clip-path="url(#SVGID_2_)" fill="#3D93C9" d="M442.832,438.167c-0.23,0.61-0.46,1.2-0.69,1.771
		c-0.79,1.979-1.54,3.81-2.16,5.42c-0.05,0.13-0.1,0.25-0.149,0.38c-0.07,0.19-0.141,0.38-0.21,0.56
		c-0.771,2.07-1.5,4.15-2.19,6.271c-0.67,2.02-1.31,4.07-1.92,6.16c-0.71,2.41-1.39,4.859-2.05,7.37
		c-0.08,0.279-0.15,0.569-0.221,0.85c-1.58,6.021-3.06,12.36-4.64,19.17c-1.09,4.67-2.22,9.57-3.46,14.74
		c-0.04,0.17-0.08,0.36-0.13,0.57c-0.49,2.149-1.19,5.84-1.92,10.279c-0.31,1.86-0.63,3.86-0.94,5.931
		c-0.55,3.63-1.08,7.479-1.52,11.239c-0.2,1.66-0.38,3.301-0.54,4.9h-77.39c-0.09-1.65-0.21-3.29-0.34-4.9
		c-0.33-3.96-0.77-7.75-1.26-11.13c-0.32-2.17-0.66-4.16-1-5.93c-0.01-0.04-0.02-0.07-0.02-0.1c0,0,0-0.011-0.01-0.011
		c-0.37-1.91-0.76-3.55-1.15-4.84c-0.05-0.2-0.11-0.38-0.16-0.55c-0.09-0.29-0.18-0.58-0.28-0.88c-2.17-7-4.29-15.76-6.43-24.72
		c-0.4-1.671-0.8-3.341-1.2-5.011c-0.56-2.33-1.12-4.66-1.69-6.949c-0.49-1.99-0.99-3.961-1.49-5.881
		c-0.01-0.029-0.01-0.05-0.02-0.08c-0.56-2.13-1.12-4.21-1.68-6.21c-0.91-3.199-1.83-6.199-2.78-8.909
		c-0.22-0.631-0.45-1.25-0.67-1.851c-0.63-1.689-1.53-3.66-2.53-5.8c-0.25-0.52-0.5-1.05-0.75-1.59
		c-0.35-0.75-0.72-1.521-1.08-2.311c-4.51-9.76-9.15-21.569-1.42-27.819c0-0.011,0.01-0.011,0.02-0.011
		c2.9-2.35,6.02-4.119,9.26-5.52c5.72-2.48,11.85-3.78,17.92-4.99c3.89-0.76,7.75-1.49,11.46-2.46l0.03,0.021l1.89,1.12l0.92,0.54
		l0.37,0.22l9.95,5.899l0.55,0.33l9.01,5.33l3.37,2l3.83-2.08l9.09-4.93l0.03-0.02l7.29-3.95l0.53-0.29l1.19-0.641l5.1-2.77
		l0.75-0.41c1.49,0.39,2.94,0.73,4.34,1.05c1.08,0.24,2.14,0.471,3.18,0.69c8.62,1.82,15.9,3.189,24.18,9.359
		c0.39,0.28,0.779,0.57,1.17,0.891c0.16,0.12,0.319,0.25,0.479,0.38c0.13,0.11,0.261,0.22,0.391,0.34
		C450.691,415.108,446.731,428.098,442.832,438.167"/>
	<path clip-path="url(#SVGID_2_)" fill="#4271C6" d="M435.512,458.728c-0.71,2.409-1.39,4.859-2.05,7.37
		c-0.08,0.279-0.15,0.569-0.221,0.85c-1.58,6.02-3.06,12.36-4.64,19.17c-1.09,4.67-2.22,9.57-3.46,14.74
		c-0.04,0.17-0.08,0.359-0.13,0.569c-0.43,2.03-1,5.74-1.61,10.28c-0.25,1.86-0.51,3.851-0.77,5.93
		c-0.44,3.61-0.88,7.461-1.28,11.24c-0.17,1.66-0.34,3.3-0.49,4.9h-79.17c-0.09-1.62-0.19-3.271-0.29-4.9
		c-0.25-3.87-0.55-7.7-0.88-11.13c-0.21-2.17-0.44-4.18-0.68-5.93c-0.01-0.03-0.01-0.07-0.01-0.101l-0.01-0.01
		c-0.28-2-0.58-3.66-0.9-4.84c-0.05-0.2-0.11-0.38-0.16-0.55c-0.09-0.29-0.18-0.58-0.28-0.88c-2.17-7-4.29-15.761-6.43-24.721
		c-0.4-1.67-0.8-3.34-1.2-5.01c-0.56-2.33-1.12-4.66-1.69-6.95c-0.49-1.989-0.99-3.96-1.49-5.88l1.49-12.37l0.01-0.109l0.7-5.8
		l0.23-1.9c0.13,0.24,0.27,0.43,0.42,0.59c3.62,3.82,13.87-13.43,16.97-7.5c1.2,2.28,1.22,5.66,0.62,9.59
		c-2.17,13.88-12.32,34.71-7.5,39.09c6.23,5.67,16.99,5.591,24.95,5.99c3.9,0.2,7.84,0.311,11.79,0.32
		c3.41,0.01,6.84-0.05,10.27-0.19c1-0.04,2-0.08,3-0.13c7.8-0.399,23.85-0.88,30.14-5.99c2.25-1.83-1.4-14.43-4.94-26.59
		c-2.63-9.05-5.2-17.87-5.21-21.81c-0.01-0.79,0.09-1.391,0.32-1.75c0.38-0.61,1.14-0.4,2.18,0.37
		c4.37,3.279,13.55,16.76,18.74,22.189c0.1,0.101,0.19,0.2,0.29,0.29c0,0.01,0,0.01,0.01,0.01
		C433.882,458.948,435.122,459.708,435.512,458.728"/>
	<path clip-path="url(#SVGID_2_)" fill="#BC956B" d="M404.386,414.622c-5.464,9.302-13.739,22.528-21.324,23.823
		c-6.64-2.711-19.123-17.188-21.323-28.045c1.57-1.67,3.699-4.295,5.362-7.889c0.08-0.182,0.173-0.362,0.253-0.557
		c1.756-3.992,2.209-7.536,2.315-9.885c8.556-0.217,17.112-0.447,25.668-0.665c-0.106,2.602,0.067,6.219,1.344,10.332
		c0.373,1.21,0.812,2.348,1.291,3.412C399.928,409.565,402.576,412.735,404.386,414.622"/>
	<path clip-path="url(#SVGID_2_)" fill="#987957" d="M397.608,399.75c-2.24,1.355-7.945,4.398-15.766,4.185
		c-7.001-0.191-12.083-2.896-14.328-4.274c0.298-0.464,0.591-0.982,0.86-1.557c1.077-2.295,1.301-4.479,1.294-6.032
		c8.557-0.219,17.113-0.448,25.669-0.665c0.047,0.732,0.231,3.313,0.707,5.192c0.13,0.51,0.264,0.904,0.429,1.285
		C396.839,398.731,397.288,399.355,397.608,399.75"/>
	<path clip-path="url(#SVGID_2_)" fill="#AD2D43" d="M386.371,433.479l-7.092,0.354c-1.403,1.783-3.444,4.419-3.311,5.998
		c0.185,2.17,3.926,4.768,6.379,5.778c4.213,1.735,6.764-2.871,8.516-5.249C392.25,438.478,388.878,434.683,386.371,433.479"/>
	<path clip-path="url(#SVGID_2_)" fill="#84AFEF" d="M371.174,398.997c-3.305-2.046-4.29-2.34-5.634-4.343
		c-1.543,2.431-8.462-0.88-13.011,1.887c14.024,4.243,0.759,30.956,3.106,42.376c7.093-11.347,19.624,3.192,27.427-3.546
		C365.09,417.726,370.453,404.25,371.174,398.997"/>
	<path clip-path="url(#SVGID_2_)" fill="#84AFEF" d="M394.79,396.505c1.857-1.493,1.526-2.086,3.833-4.884
		c1.542,2.431,11.806,3.863,16.356,6.63c-5.563,11.197-0.015,28.773-2.364,40.193c-7.092-11.349-21.752,3.664-29.552-3.074
		C394.054,427.569,394.124,404.43,394.79,396.505"/>
	<path clip-path="url(#SVGID_2_)" fill="#AD2D43" d="M389.072,533.778h-15.87c0.16-1.57,0.32-3.2,0.49-4.9
		c0.35-3.51,0.73-7.26,1.11-11.17c0.19-1.939,0.38-3.92,0.57-5.93c0.01-0.021,0.01-0.05,0.01-0.07c0.66-6.82,1.33-13.95,1.97-20.93
		c1.87-20.43,3.45-39.55,3.5-45.91c0.01-1.06-0.03-1.77-0.11-2.06l5.32-2.83c0.02,0.09,0.05,0.17,0.08,0.26
		c0.11,0.3,0.22,2.11,0.34,5.07c0.32,8.479,0.67,26.39,1.14,45.279c0.18,7.05,0.37,14.24,0.58,21.12c0.01,0.01,0.01,0.03,0.01,0.05
		c0.06,2.011,0.13,3.99,0.2,5.931c0.13,3.91,0.28,7.67,0.43,11.189C388.912,530.568,388.992,532.208,389.072,533.778"/>
	<path clip-path="url(#SVGID_2_)" fill="#462F2E" d="M347.875,356.487h-3.937c1.525-1.454,3.05-2.908,4.575-4.362
		c-0.856,0.071-1.861,0.094-2.979,0c-1.514-0.127-2.809-0.429-3.83-0.745c2.814-2.904,4.407-5.656,5.32-7.555
		c3.004-6.243,3.041-12.367,3.086-19.683c0.017-2.822-0.105-5.147-0.213-6.704c3.404,0.426,6.809,0.852,10.214,1.276
		c0.569-1.861,1.573-4.353,3.405-6.916c3.339-4.672,7.562-6.97,9.788-7.979c6.473,1.654,11.758,3.363,15.535,4.682
		c15.872,5.541,19.241,9.114,20.854,11.172c3.382,4.313,4.273,8.637,4.469,9.683c1.099,5.858-0.537,10.616-1.383,12.662
		c2.731,2.411,5.461,4.822,8.192,7.234c-1.066-0.084-2.166-0.188-3.298-0.318c-1.099-0.127-2.163-0.271-3.192-0.427
		c0.68,0.732,1.969,1.917,3.937,2.66c1.153,0.436,2.196,0.589,2.979,0.639c-1.021,0.933-2.462,2.046-4.363,2.979
		c-3.315,1.628-6.384,1.901-8.192,1.915c0.74,5.085,2.362,11.472,5.958,18.088c0.924,1.699,1.893,3.258,2.873,4.682
		c-1.809-0.355-3.618-0.709-5.426-1.064c2.518,2.838,5.036,5.675,7.554,8.512c-1.224,0.065-3.144,0.011-5.32-0.745
		c-3.207-1.11-5.182-3.12-6.065-4.148c0.868,2.206,2.172,4.919,4.15,7.767c1.511,2.176,3.071,3.937,4.468,5.32
		c-1.493-0.227-3.516-0.69-5.745-1.702c-2.075-0.943-3.667-2.061-4.788-2.979c-0.085,0.635-0.272,2.636,0.958,4.575
		c0.661,1.043,1.482,1.676,2.021,2.021c-1.232,0.013-3.361-0.14-5.639-1.277c-1.134-0.564-2.013-1.229-2.66-1.808
		c0.319,1.312,0.638,2.624,0.958,3.936c-1.056-0.563-2.619-1.345-4.575-2.128c0,0-2.758-1.102-5.108-1.702
		c-4.408-1.125-8.826,0.539-21.599,4.895c-2.821,0.962-5.07,1.722-6.277,2.128c0.227-1.359,0.38-3.101,0.213-5.107
		c-0.277-3.32-1.311-5.917-2.128-7.554c-1.526,1.383-3.05,2.766-4.576,4.149c0.404-2.493,0.635-5.277,0.532-8.3
		C358.176,371.057,351.66,361.268,347.875,356.487"/>
	<path clip-path="url(#SVGID_2_)" fill="#BC956B" d="M351.706,354.678c-1.767,10.163,2.063,20.566,2.833,22.782
		c1.291,3.715,3.447,9.705,8.977,15.309c2.735,2.771,7.77,7.87,15.641,8.725c1.633,0.178,6.378,0.629,11.278-1.915
		c4.087-2.123,6.17-5.231,8.725-9.15c4.111-6.303,5.818-12.038,6.384-14.045c1.343-4.765,5.505-24.337,2.554-32.983
		c-4.029-11.802-26.853-19.464-54.264-15.818c0.991,4.451,0.975,8.011,0.78,10.428c-0.118,1.461-0.288,2.345-1.276,7.73
		C352.544,350.065,351.848,353.86,351.706,354.678"/>
	<path clip-path="url(#SVGID_2_)" fill="#462F2E" d="M373.344,346.627c-0.65,0.961-2.131,2.87-4.753,4.185
		c-3.198,1.604-6.17,1.359-7.306,1.206c0.119,1.017,0.237,2.033,0.355,3.05c1.515,0,3.94-0.188,6.668-1.276
		c2.297-0.916,3.97-2.137,5.036-3.051V346.627z"/>
	<path clip-path="url(#SVGID_2_)" fill="#462F2E" d="M383.417,347.052c0.047,1.442,0.094,2.886,0.142,4.327
		c1.05,0.971,3.034,2.545,5.958,3.477c3.69,1.174,6.849,0.678,8.299,0.354c-0.071-1.158-0.141-2.316-0.212-3.475
		c-1.532,0.175-4.137,0.272-7.165-0.64C386.931,350.039,384.589,348.148,383.417,347.052"/>
	<path clip-path="url(#SVGID_2_)" fill="#54453D" d="M362.651,361.186c0.867-0.316,2.538-0.791,4.628-0.532
		c2.735,0.339,4.559,1.735,5.267,2.341c-1.379,0.407-3.071,1.035-4.894,2.021c-1.847,1-3.313,2.09-4.416,3.033
		c1.295-1.614,2.589-3.229,3.884-4.842C365.63,362.534,364.141,361.86,362.651,361.186"/>
	<path clip-path="url(#SVGID_2_)" fill="#54453D" d="M385.544,361.594c0.623-0.386,2.99-1.744,6.171-1.277
		c3.106,0.457,4.96,2.358,5.462,2.909c-1.537-0.237-3.074-0.474-4.611-0.71c0.994,1.395,1.986,2.79,2.979,4.185
		c-1.255-0.97-2.86-2.053-4.823-3.05C388.813,362.681,387.038,362.034,385.544,361.594"/>
	<path clip-path="url(#SVGID_2_)" fill="#987957" d="M377.6,361.558c-0.585,3.259-1.549,6.422-2.58,9.56
		c-0.554,1.82-1.826,3.786-1.18,5.595c1.23,2.741,4.722,3.691,7.697,3.04c-0.934,0.61-2.056,0.954-3.226,1.026
		c-3.928,0.21-7.7-3.078-6.187-7.207C373.724,369.386,375.366,365.456,377.6,361.558"/>
	<path clip-path="url(#SVGID_2_)" fill="#987957" d="M369.725,390.216c0.244-0.52,0.69-0.635,1.075-0.87
		c1.201-0.647,2.446-1.192,3.74-1.642c4.867-1.726,10.469-1.586,14.359,2.181c1.213,1.067,1.03,1.535-0.399,0.537
		c-5.257-3.142-11.811-1.849-17.427-0.433C370.641,390.098,370.282,390.354,369.725,390.216"/>
	<path clip-path="url(#SVGID_2_)" fill="#462F2E" d="M353.94,372.766c-0.489-2.743-1.023-7.031-0.638-12.236
		c0.481-6.513,2.021-9.318,2.66-15.109c0.4-3.628,0.51-9.017-1.171-15.853c1.667-0.497,3.334-0.993,5.001-1.49
		c4.58,3.952,10.649,8.47,18.301,12.556c10.139,5.415,19.532,8.188,26.599,9.683c0.461,6.277,0.923,12.555,1.384,18.832
		c1.517-2.035,3.665-5.444,4.894-10.107c0-0.001,2.025-7.681-0.107-15.428c-2.982-10.847-27.542-21.218-58.803-18.938
		c0.997,8.914,1.024,16.417-0.248,20.746c-0.533,1.815-1.489,4.604-2.128,8.832c-0.607,4.018-1.112,7.619,0.213,11.703
		C350.943,369.183,352.723,371.45,353.94,372.766"/>
	<path clip-path="url(#SVGID_2_)" fill="#BC956B" d="M404.289,374.421c0.32,1.89,1.128,2.729,1.49,3.056
		c1.325,1.193,3.09,1.284,4.173,1.043c1.526-0.34,2.95-1.612,5.216-7.153c2.906-7.107,5.125-12.534,2.648-14.986
		c-1.152-1.141-3.02-1.341-4.346-0.996c-1.8,0.469-2.482,1.904-5.585,8.16C404.875,369.611,403.823,371.674,404.289,374.421"/>
	<path clip-path="url(#SVGID_2_)" fill="#BC956B" d="M351.401,366.553c-0.779-2.123-0.615-2.7-1.543-4.735
		c-1.1-2.412-1.869-2.78-2.162-2.895c-1.044-0.409-2.417-0.125-3.255,0.597c-2.197,1.893-0.962,6.547-0.108,9.763
		c0.663,2.499,1.463,5.364,4.014,7.648c1.045,0.937,2.452,2.196,4.23,1.899c1.742-0.293,3.225-1.972,3.309-3.58
		c0.06-1.142-0.664-1.426-2.278-4.178C353.059,370.136,352.144,368.576,351.401,366.553"/>
	<path clip-path="url(#SVGID_2_)" fill="#3D93C9" d="M343.15,398.237l-7.455,38.262c-7.513,6.653-9.616,19.148-11.465,28.463
		c-2.673,13.481-8.766,34.086-21.697,41.346c-4.742,2.662-10.604,2.403-14.351-1.438c-1.685-1.728-2.777-3.579-3.489-5.142
		c-2.233-4.905-2.13-9.519-2.009-11.752c2.349-43.392,19.787-65.725,19.787-65.725c2.851-3.651,6.455-8.201,12.581-12.742
		C325.794,401.545,336.866,399.11,343.15,398.237"/>
	<path clip-path="url(#SVGID_2_)" fill="#4271C6" d="M339.625,416.119l-24.182,46.441c-5.945,5.053-10.689,11.912-15.708,18.099
		c-2.668,3.288-9.177,17.37-15.042,19.068c-1.514-3.523-1.672-7.394-1.12-11.524c1.659-12.449,5.051-20.337,8.558-27.902
		C299.316,454.294,326.349,435.789,339.625,416.119"/>
	<path clip-path="url(#SVGID_2_)" fill="#3D93C9" d="M423.018,399.434l0.469,36.892c7.062,7.133,8.337,19.739,9.57,29.155
		c1.783,13.627-0.445,31.164,11.98,39.255c4.559,2.968,16.398,4.231,20.391,0.644c1.681-1.508,2.222-1.166,3.118-2.92
		c2.405-4.705,3.728-9.057,3.556-11.117c-2.114-25.247-3.171-37.872-7.416-49.362c-5.053-13.676-8.136-22.022-16.762-29.895
		C438.973,403.916,428.996,400.769,423.018,399.434"/>
	<path clip-path="url(#SVGID_2_)" fill="#4271C6" d="M420.896,412.254l21.086,51.407c5.601,5.433,9.885,12.588,14.487,19.092
		c2.444,3.457,7.408,17.936,13.15,20.014c1.488-3.567,2.966-7.832,2.689-11.989c-0.84-12.532-1.691-18.082-2.478-25.079
		C463.058,459.235,424.698,420.544,420.896,412.254"/>
	<path clip-path="url(#SVGID_2_)" fill="#CCA279" d="M347.042,379.887l-3.499,15.433c-2.348-10.464-1.957-18.617-1.193-24.029
		c0.975-6.901,2.945-12.093,3.862-11.983c0.317,0.038,1.077,0.759,1.453,1.61c0.064,0.146,0.128,0.305,0.19,0.473
		c0.316,0.835,0.497,1.798,0.586,2.832c0.294,3.481-0.48,7.787-0.848,10.804C347.405,376.564,347.243,379.037,347.042,379.887"/>
	<path clip-path="url(#SVGID_2_)" fill="#987957" d="M344,383.882c-0.518-1.654-1.071-4.155-0.781-7.131
		c0.197-2.018,0.701-3.436,1.152-4.766c0.856-2.521,2.023-6.202,3.294-11.067c0.064,0.145,0.128,0.303,0.191,0.471
		c0.315,0.835,0.496,1.799,0.586,2.833c-0.635,1.663-1.343,3.282-1.949,4.863C344.765,373.596,344.124,379.077,344,383.882"/>
	<path clip-path="url(#SVGID_2_)" fill="#CCA279" d="M360.241,408.956c0.085-3.444-1.015-4.302-2-11.948
		c-0.068-0.529-0.172-1.327-0.25-2.01c-0.26-2.29-0.49-4.609-0.75-6.939c-0.079-0.74-0.12-1.471-0.12-2.2
		c0-0.39,0.011-0.78,0.031-1.16c0.02-0.45,0.059-0.9,0.109-1.35c0,0-0.01-0.011,0-0.011c0.04-0.46,0.1-0.909,0.171-1.369
		c0.039-0.271,0.079-0.54,0.129-0.811c0.05-0.29,0.101-0.58,0.16-0.86c0.05-0.29,0.11-0.579,0.171-0.869
		c0.129-0.631,0.27-1.261,0.409-1.881c0.05-0.229,0.14-0.52,0.24-0.859c0.091-0.311,0.2-0.66,0.32-1.03c0.1-0.3,0.2-0.62,0.301-0.96
		c0.069-0.21,0.129-0.42,0.189-0.63c0.11-0.33,0.2-0.68,0.291-1.03c0.079-0.27,0.149-0.54,0.209-0.81
		c0.01-0.05,0.02-0.101,0.031-0.141c0.059-0.279,0.119-0.56,0.169-0.84c0.03-0.149,0.05-0.3,0.07-0.45
		c0.031-0.21,0.061-0.409,0.07-0.609c0.06-0.601,0.05-1.15-0.049-1.62c-0.061-0.26-0.111-0.8-0.48-1.01
		c-0.921-0.521-2.971,1.279-4.48,2.91c-0.25,0.27-0.491,0.529-0.701,0.779c-0.16,0.19-0.299,0.36-0.43,0.521
		c-0.03,0.04-0.06,0.069-0.09,0.109c-1.15,1.44-2.84,4.051-3.69,8.23c-0.25,1.18-0.42,2.49-0.5,3.939c-0.04,0.511-0.07,1-0.08,1.45
		c0,0.07-0.009,0.141-0.009,0.21c-0.01-0.08-0.03-0.16-0.04-0.239c-0.161-0.971-0.181-2.051-0.121-3.15
		c0.01-0.311,0.03-0.63,0.06-0.94c0.02-0.229,0.04-0.449,0.071-0.68c0.03-0.28,0.059-0.56,0.089-0.83c0.01-0.02,0.01-0.05,0.01-0.07
		c0.21-1.64,0.51-3.229,0.73-4.569c0.22-1.34,0.47-2.66,0.73-3.98c0.201-1.01,0.41-2.02,0.61-3.04c0.101-0.5,0.2-1.01,0.3-1.51
		c0.13-0.71,0.271-1.42,0.39-2.14c0.04-0.2,0.07-0.41,0.11-0.62v-0.021c0.011-0.06,0.021-0.13,0.031-0.189
		c0.02-0.11,0.039-0.25,0.069-0.42c0.02-0.08,0.04-0.17,0.05-0.271c0.01-0.05,0.02-0.109,0.03-0.17c0.06-0.29,0.111-0.62,0.18-0.99
		c0.03-0.199,0.06-0.399,0.09-0.62c0.04-0.26,0.081-0.529,0.111-0.8c0-0.04,0.009-0.069,0.019-0.109
		c0.03-0.28,0.06-0.561,0.09-0.841c0.01-0.149,0.02-0.3,0.04-0.449c0.02-0.271,0.03-0.54,0.04-0.801c0.051-1.5-0.1-2.89-0.709-3.529
		c-0.101-0.12-0.221-0.2-0.361-0.271l-0.01-0.01c-0.06-0.02-0.32-0.13-0.659-0.1c-0.911,0.06-1.831,1.83-2.601,3.75
		c-0.09,0.239-0.18,0.47-0.27,0.71c-0.349,0.97-0.65,1.93-0.869,2.689v0.01c-0.281,0.931-0.441,1.57-0.441,1.57
		c-0.83,3.311-1.519,5.99-2.069,8.17c-0.071,0.24-0.121,0.46-0.181,0.681c-0.97,3.75-1.549,5.97-1.9,7.529v0.04v0.021
		c-0.399,1.81-0.51,2.729-0.59,4.189c-0.13,2.3-0.22,4.391-0.18,6.19v0.01c0.02,1.6,0.141,2.97,0.43,4.03
		c0.35,1.319,0.701,2.59,0.98,3.85c0.451,2.04,0.701,4.08,0.451,6.36c-0.5,4.47-1.861,8.13-3.381,11.68
		c-0.77,1.811-1.589,3.601-2.349,5.45v0.01c0,0.01-0.01,0.01-0.01,0.021c-0.281,0.649-0.541,1.319-0.801,2
		c0.11,0.149,0.22,0.3,0.331,0.439c2.22,3.11,3.019,5.34,5.089,8.851c0.17,0.279,0.32,0.56,0.45,0.85
		c2.661-1.85,5.13-5.13,7.47-7.39c0.211-0.2,0.41-0.4,0.6-0.59c0.19-0.19,0.371-0.381,0.55-0.57c0.24-0.25,0.47-0.5,0.69-0.74
		c0.28-0.32,0.55-0.62,0.81-0.93c0.25-0.29,0.49-0.59,0.73-0.88c0.424-0.513,0.712-0.857,0.73-0.88
		C360.075,415.708,360.241,408.956,360.241,408.956"/>
	<path clip-path="url(#SVGID_2_)" fill="#987957" d="M351.192,426.06c-1.737,1.981-3.435,3.651-3.617,3.847
		c-1.242,1.335-2.523,2.619-3.852,3.545c-0.137-0.294-0.287-0.579-0.452-0.854c3.485-6.047,7.13-9.826,9.861-12.181
		c9.117-10.41,2.484-31.082,2.422-34.28c-0.118-6.069,2.6-11.958,4.586-17.57c0.536,2.479-1.448,7.261-1.841,8.982
		c-0.363,1.594-0.611,3.041-0.776,4.432c0,0-0.359,2.955-0.286,6.08c0.24,10.253,5.473,19.71,1.553,27.946
		C357.348,419.037,354.462,422.329,351.192,426.06"/>
	<path clip-path="url(#SVGID_2_)" fill="#E5804E" d="M349.776,384.048c0.028,0.544,0.083,1.085,0.167,1.626
		c-0.087-0.055-0.173-0.111-0.253-0.174C349.702,385.046,349.73,384.559,349.776,384.048"/>
	<path clip-path="url(#SVGID_2_)" fill="#987957" d="M352.654,363.726c-0.636,3.862-1.534,7.632-2.168,11.501
		c-0.48,2.93-1.346,7.121-0.843,10.238c-0.129-1.218-0.271-3.026-0.252-5.214c0.045-4.974,0.896-8.548,1.409-11.021
		c0.701-3.382,1.505-8.25,1.862-14.506C354.166,356.311,352.882,362.346,352.654,363.726"/>
	<path clip-path="url(#SVGID_2_)" fill="#3D93C9" d="M339.005,415.032c-9.739,22.224-52.275,50.578-55.552,75.652
		c-1.836,14.053,11.428,21.971,24.266,16.817c7.579-3.043,17.687-16.076,21.645-22.102c4.791-7.294,23.22-45.947,26.078-63.867
		L339.005,415.032z"/>
	<path clip-path="url(#SVGID_2_)" fill="#CCA279" d="M415.152,378.117l2.599,15.206c2.633-9.098,2.851-16.51,2.543-21.612
		c-0.459-7.609-2.3-13.641-3.257-13.584c-0.308,0.019-1.084,0.688-1.499,1.493c-0.07,0.137-0.14,0.288-0.211,0.448
		c-0.35,0.796-0.578,1.724-0.717,2.727c-0.468,3.374,0.06,7.605,0.261,10.563C414.972,374.862,415.001,377.279,415.152,378.117"/>
	<path clip-path="url(#SVGID_2_)" fill="#987957" d="M417.907,382.165c1.555-3.939,0.63-11.939-0.495-16.072
		c-0.608-2.238-0.5-4.106-1.873-6.474c-0.071,0.138-0.141,0.288-0.211,0.449c-0.35,0.796-0.578,1.724-0.717,2.727
		c0.53,1.651,1.134,3.266,1.643,4.836C417.698,372.112,418.037,377.48,417.907,382.165"/>
	<path clip-path="url(#SVGID_2_)" fill="#CCA279" d="M418.962,412.908c-1.22-3.37-2.26-6.87-2.5-11.03
		c-0.01-0.16-0.02-0.31-0.01-0.46c-0.05-1.41,0.1-2.71,0.37-3.979c0.37-1.82,0.97-3.561,1.57-5.431c0.34-1.05,0.54-2.359,0.65-3.859
		c0.01-0.011,0.01-0.011,0-0.021c0.14-1.779,0.15-3.819,0.13-6.06c-0.01-1.36-0.12-2.76-0.34-4.36v-0.03v-0.02
		c-0.18-1.41-0.44-2.97-0.78-4.82v-0.01c-0.09-0.5-0.19-1.03-0.29-1.58c-0.24-1.25-0.51-2.63-0.81-4.17c0,0-0.51-2.61-1.28-5.59
		v-0.01c-0.11-0.45-0.23-0.91-0.36-1.36c-0.04-0.15-0.08-0.29-0.12-0.44c-0.92-3.26-2.06-6.409-3.12-6.64
		c-0.02-0.01-0.04-0.02-0.06-0.02c-0.36-0.051-0.65,0.069-0.65,0.069c-0.14,0.061-0.26,0.141-0.36,0.24
		c-1.55,1.47-0.62,7.41-0.47,8.76c0.05,0.44,0.1,0.88,0.16,1.32c0.03,0.31,0.07,0.61,0.12,0.92c0.06,0.5,0.13,1,0.2,1.5
		c0.16,1.11,0.32,2.21,0.48,3.32c0.09,0.64,0.18,1.27,0.26,1.91c0.02,0.06,0.02,0.13,0.03,0.189c0.03,0.24,0.06,0.49,0.09,0.73
		c0.06,0.47,0.12,0.949,0.17,1.42c0.24,2.13,0.64,4.939,0.57,7.46c0,0.09-0.01,0.18-0.01,0.25c-0.01,0.27-0.02,0.529-0.05,0.79
		c-0.02,0.25-0.05,0.489-0.09,0.729c-0.01,0.09-0.02,0.17-0.04,0.26c-0.02,0.181-0.05,0.351-0.09,0.521
		c-0.02,0.08-0.04,0.16-0.06,0.24c0.01-0.07,0.01-0.141,0.01-0.21c0.01-0.44,0.01-0.91-0.01-1.41v-0.01c0-0.33-0.01-0.66-0.03-0.971
		c-0.16-2.1-0.8-3.72-1.24-4.85c-0.47-1.16-0.87-2.16-1.21-3.01c-0.29-0.71-0.53-1.311-0.74-1.811c-0.02-0.04-0.03-0.09-0.06-0.13
		c-0.37-0.92-0.6-1.439-0.7-1.6c-1.34-2.04-3.72-4.69-4.78-4.19c-0.23,0.101-0.35,0.34-0.42,0.57v0.01
		c-0.05,0.14-0.07,0.271-0.1,0.37c-0.03,0.11-0.06,0.229-0.08,0.36c0,0.02,0,0.04-0.01,0.06c-0.06,0.39-0.07,0.82-0.05,1.29
		c0.01,0.14,0.02,0.28,0.03,0.42c0.01,0.09,0.02,0.19,0.03,0.29c0.01,0.13,0.03,0.26,0.05,0.4c0.02,0.17,0.05,0.35,0.08,0.529
		c0.08,0.49,0.18,1,0.29,1.49c0.05,0.22,0.1,0.43,0.16,0.65c0.08,0.35,0.17,0.689,0.25,1.01c0.06,0.229,0.12,0.44,0.18,0.65
		c0.06,0.239,0.12,0.47,0.17,0.68c0.1,0.399,0.18,0.74,0.23,1.01c0.58,3.38,1.05,6.83,0.48,10.29c-0.04,0.22-0.07,0.45-0.11,0.67
		c-0.09,0.58-0.19,1.16-0.28,1.73v0.01c-0.38,2.35-0.75,4.68-1.19,6.979c-0.28,1.54-0.6,3.07-0.96,4.591
		c-0.41,1.729-0.88,3.449-1.45,5.149c-0.16,0.48-0.29,0.94-0.39,1.4c-0.04,0.17-0.07,0.34-0.1,0.51c-0.07,0.4,0.23,0.717,0.18,1.057
		c0.284,1.26,0.816,5.255,1.74,6.943c0.083,0.151,0.22,0.28,0.33,0.42l0.42,0.54c0.14,0.18,0.28,0.35,0.4,0.521
		c0.44,0.569,0.84,1.119,1.23,1.649c0.43,0.601,0.85,1.19,1.29,1.76c0.24,0.32,0.47,0.631,0.72,0.95c0.25,0.32,0.5,0.63,0.77,0.95
		c0.4,0.49,0.83,0.98,1.3,1.48c1.43,1.539,2.9,3.52,4.45,5.239c0.44,0.5,0.89,0.971,1.35,1.4c0.13,0.13,0.27,0.25,0.4,0.37
		c0.22,0.21,0.45,0.399,0.68,0.58c0.15-0.28,0.31-0.551,0.49-0.811c2.3-3.46,3.17-5.63,5.76-8.77
		C420.962,418.108,419.902,415.547,418.962,412.908"/>
	<path clip-path="url(#SVGID_2_)" fill="#987957" d="M402.571,415c1.952,3.153,3.616,5.162,6.127,7.848
		c2.166,2.317,4.394,5.645,6.887,7.587c0.146-0.279,0.308-0.548,0.483-0.81c-6.442-7.642-13.702-16.557-12.891-26.472
		c0.28-3.411,0.454-6.81,1.212-9.948c0.735-3.04,1.923-6.34,2.151-9.451c0.432-5.9-2.704-8.845-3.545-17.343
		c-0.652,2.386,1.029,7.145,1.323,8.841c0.584,3.375,1.055,6.825,0.483,10.288c-1.082,6.529-4.024,14.523-4.479,21.037
		C400.162,408.843,400.871,412.254,402.571,415"/>
	<path clip-path="url(#SVGID_2_)" fill="#E5804E" d="M412.273,382.024c-0.054,0.528-0.136,1.052-0.247,1.574
		c0.088-0.048,0.175-0.098,0.257-0.155C412.294,383,412.293,382.524,412.273,382.024"/>
	<path clip-path="url(#SVGID_2_)" fill="#987957" d="M410.535,362.091c0.417,3.794,1.094,7.51,1.509,11.31
		c0.313,2.877,0.938,7.002,0.285,10.01c1.431-2.146,0.695-12.849,0.048-16.354c-0.822-4.473-1.732-9.173-1.38-13.73
		C409.451,354.793,410.384,360.736,410.535,362.091"/>
	<path clip-path="url(#SVGID_2_)" fill="#3D93C9" d="M420.896,412.254c12.411,21.704,49.75,53.29,51.413,78.523
		c1.005,15.251-9.983,20.974-25.134,15.49c-7.678-2.779-16.8-17.001-20.428-23.23c-4.392-7.54-20.721-47.126-22.616-65.173
		L420.896,412.254z"/>
	<rect x="87.967" y="511.704" clip-path="url(#SVGID_2_)" fill="#754026" width="539.569" height="17.174"/>
	<rect x="590.622" y="422.353" clip-path="url(#SVGID_2_)" fill="#FF9017" width="23.1" height="83.135"/>
	<polygon clip-path="url(#SVGID_2_)" fill="#FF3C00" points="590.621,422.354 613.721,505.488 590.621,505.488 	"/>
	<path clip-path="url(#SVGID_2_)" fill="#FF3C00" d="M595.968,481.196c0-4.405,3.289-8.006,7.539-8.574
		c-0.381-0.051-0.758-0.116-1.151-0.116c-4.8,0-8.691,3.891-8.691,8.69s3.892,8.691,8.691,8.691c0.394,0,0.771-0.065,1.151-0.116
		C599.257,489.202,595.968,485.601,595.968,481.196"/>
	<path clip-path="url(#SVGID_2_)" fill="#004345" d="M611.046,481.196c0-4.405-3.289-8.006-7.539-8.574
		c-4.249,0.568-7.538,4.169-7.538,8.574s3.289,8.006,7.538,8.575C607.757,489.202,611.046,485.601,611.046,481.196"/>
	<rect x="594.786" y="437.463" clip-path="url(#SVGID_2_)" fill="#FFFFFF" width="13.877" height="21.586"/>
	<rect x="594.786" y="461.712" clip-path="url(#SVGID_2_)" fill="#FFFFFF" width="13.877" height="5.607"/>
	<path clip-path="url(#SVGID_2_)" fill="#006370" d="M606.016,442.126h-8.921c-0.433,0-0.787-0.354-0.787-0.787
		c0-0.434,0.354-0.788,0.787-0.788h8.921c0.435,0,0.787,0.354,0.787,0.788C606.803,441.772,606.45,442.126,606.016,442.126"/>
	<path clip-path="url(#SVGID_2_)" fill="#006370" d="M606.016,445.829h-8.921c-0.433,0-0.787-0.354-0.787-0.787
		s0.354-0.788,0.787-0.788h8.921c0.435,0,0.787,0.354,0.787,0.788S606.45,445.829,606.016,445.829"/>
	<path clip-path="url(#SVGID_2_)" fill="#006370" d="M606.016,449.528h-8.921c-0.433,0-0.787-0.354-0.787-0.787
		s0.354-0.788,0.787-0.788h8.921c0.435,0,0.787,0.354,0.787,0.788S606.45,449.528,606.016,449.528"/>
	<path clip-path="url(#SVGID_2_)" fill="#006370" d="M606.016,453.227h-8.921c-0.433,0-0.787-0.354-0.787-0.786
		c0-0.435,0.354-0.788,0.787-0.788h8.921c0.435,0,0.787,0.354,0.787,0.788C606.803,452.874,606.45,453.227,606.016,453.227"/>
	<path clip-path="url(#SVGID_2_)" fill="#006370" d="M606.016,456.93h-8.921c-0.433,0-0.787-0.354-0.787-0.787
		c0-0.435,0.354-0.788,0.787-0.788h8.921c0.435,0,0.787,0.354,0.787,0.788C606.803,456.576,606.45,456.93,606.016,456.93"/>
	
		<rect x="562.657" y="420.384" transform="matrix(0.9876 0.1568 -0.1568 0.9876 79.5585 -84.3413)" clip-path="url(#SVGID_2_)" fill="#FF3C00" width="23.1" height="83.133"/>
	<path clip-path="url(#SVGID_2_)" fill="#FF3C00" d="M565.371,478.04c0.691-4.351,4.504-7.391,8.79-7.286
		c-0.368-0.109-0.729-0.233-1.119-0.295c-4.74-0.753-9.193,2.479-9.946,7.219c-0.753,4.741,2.479,9.194,7.22,9.947
		c0.39,0.063,0.771,0.057,1.156,0.066C567.364,486.461,564.681,482.39,565.371,478.04"/>
	<path clip-path="url(#SVGID_2_)" fill="#004345" d="M580.262,480.405c0.691-4.352-1.993-8.423-6.1-9.651
		c-4.287-0.104-8.101,2.937-8.791,7.286c-0.69,4.351,1.993,8.423,6.101,9.651C575.758,487.795,579.571,484.754,580.262,480.405"/>
	
		<rect x="569.284" y="435.616" transform="matrix(0.9876 0.1569 -0.1569 0.9876 77.1582 -84.8612)" clip-path="url(#SVGID_2_)" fill="#FFFFFF" width="13.877" height="21.587"/>
	
		<rect x="566.733" y="459.666" transform="matrix(0.9876 0.1569 -0.1569 0.9876 79.6837 -84.2967)" clip-path="url(#SVGID_2_)" fill="#FFFFFF" width="13.877" height="5.605"/>
	<path clip-path="url(#SVGID_2_)" fill="#006370" d="M581.548,441.039c-0.04,0-0.083-0.003-0.123-0.009l-8.81-1.398
		c-0.432-0.068-0.724-0.475-0.655-0.901c0.066-0.428,0.486-0.711,0.901-0.655l8.81,1.399c0.431,0.067,0.723,0.473,0.655,0.901
		C582.264,440.762,581.929,441.039,581.548,441.039"/>
	<path clip-path="url(#SVGID_2_)" fill="#006370" d="M580.967,444.695c-0.04,0-0.083-0.003-0.123-0.009l-8.811-1.398
		c-0.431-0.068-0.723-0.475-0.654-0.901c0.067-0.428,0.485-0.723,0.9-0.655l8.811,1.399c0.43,0.068,0.723,0.474,0.654,0.901
		C581.684,444.418,581.348,444.695,580.967,444.695"/>
	<path clip-path="url(#SVGID_2_)" fill="#006370" d="M580.386,448.348c-0.04,0-0.083-0.003-0.123-0.009l-8.811-1.399
		c-0.431-0.067-0.723-0.474-0.654-0.9c0.066-0.428,0.482-0.714,0.9-0.655l8.811,1.399c0.431,0.066,0.723,0.473,0.654,0.901
		C581.103,448.072,580.767,448.348,580.386,448.348"/>
	<path clip-path="url(#SVGID_2_)" fill="#006370" d="M579.805,452.004c-0.04,0-0.083-0.003-0.123-0.009l-8.811-1.399
		c-0.431-0.067-0.723-0.474-0.655-0.9c0.067-0.428,0.48-0.723,0.901-0.655l8.81,1.399c0.431,0.067,0.724,0.473,0.655,0.901
		C580.521,451.728,580.186,452.004,579.805,452.004"/>
	<path clip-path="url(#SVGID_2_)" fill="#006370" d="M579.226,455.659c-0.04,0-0.083-0.004-0.123-0.01l-8.81-1.399
		c-0.431-0.067-0.723-0.474-0.655-0.901c0.068-0.427,0.492-0.713,0.901-0.655l8.81,1.4c0.432,0.067,0.724,0.473,0.655,0.901
		C579.943,455.381,579.607,455.659,579.226,455.659"/>
	<polygon clip-path="url(#SVGID_2_)" fill="#004345" points="531.235,508.463 531.235,457.607 534.797,457.607 534.797,505.131 
		613.118,505.131 613.118,457.607 616.379,457.607 616.379,508.463 	"/>
	<polygon clip-path="url(#SVGID_2_)" fill="#E5B19C" points="627.536,517.354 87.967,518.096 87.967,512.168 627.536,511.427 	"/>
	<path clip-path="url(#SVGID_2_)" fill="#A5A5A5" d="M326.157,506.054H222.972c-1.662,0-3.009-1.347-3.009-3.008v-63.915
		c0-1.662,1.347-3.009,3.009-3.009h103.185c1.661,0,3.008,1.347,3.008,3.009v63.915
		C329.165,504.708,327.818,506.054,326.157,506.054"/>
	<path clip-path="url(#SVGID_2_)" fill="#BECCCA" d="M324.642,506.054H221.457c-1.662,0-3.009-1.347-3.009-3.008v-63.915
		c0-1.662,1.347-3.009,3.009-3.009h103.185c1.662,0,3.008,1.347,3.008,3.009v63.915C327.65,504.708,326.303,506.054,324.642,506.054
		"/>
	<path clip-path="url(#SVGID_2_)" fill="#FFFFFF" d="M282.319,473.551c0,4.789-4.15,8.672-9.27,8.672
		c-5.119,0-9.269-3.883-9.269-8.672s4.15-8.671,9.269-8.671C278.169,464.88,282.319,468.762,282.319,473.551"/>
	<polygon clip-path="url(#SVGID_2_)" fill="#BECCCA" points="226.715,505.435 227.299,511.715 366.106,511.715 366.106,505.435 	"/>
	<polygon clip-path="url(#SVGID_2_)" fill="#686B6B" points="326.504,505.435 326.714,511.715 373.634,511.715 373.634,505.435 	"/>
	<polygon clip-path="url(#SVGID_2_)" fill="#686B6B" points="226.836,511.715 323.481,505.434 226.728,506.054 	"/>
	<polygon clip-path="url(#SVGID_2_)" fill="#004345" points="194.355,513.28 103.023,513.28 104.524,494.196 194.993,493.788 	"/>
	<polygon clip-path="url(#SVGID_2_)" fill="#0D726E" points="194.355,513.28 139.478,513.28 104.254,497.634 104.524,494.196 
		194.993,493.788 	"/>
	<polygon clip-path="url(#SVGID_2_)" fill="#E6E6FF" points="180.907,497.754 180.66,509.314 153.072,509.314 153.072,498.205 	"/>
	<polygon clip-path="url(#SVGID_2_)" fill="#E6E6FF" points="150.58,498.205 150.769,509.314 146.35,509.314 145.91,498.205 	"/>
	<polygon clip-path="url(#SVGID_2_)" fill="#BFAD45" points="190.517,493.788 192.865,476.048 187.659,476.569 98.087,485.536 
		98.258,487.148 189.024,479.127 187.064,492.065 98.518,492.164 98.428,493.556 	"/>
	<path clip-path="url(#SVGID_2_)" fill="#6F7F87" d="M188.204,484.543c0,0-3.452-6.311-6.655-4.755
		c-3.204,1.557-3.463,5.189-3.463,5.189l0.943,0.573c0,0,0.804-4.974,3.457-4.925c2.653,0.051,4.295,4.925,4.295,4.925
		s0.628,3.325-2.095,4.923c-2.724,1.597-4.4,0.209-4.819-0.524s-0.733-2.828-0.733-2.828l-1.048,0.105c0,0,0.074,3.031,1.153,3.983
		c1.164,1.026,3.538,1.462,5.54,0.624c1.424-0.596,2.886-2.467,2.886-2.467L188.204,484.543z"/>
	<polygon clip-path="url(#SVGID_2_)" fill="#11B7AE" points="492.733,484.715 493.161,487.092 496.185,488.729 493.875,488.603 
		544.689,508.551 547.398,507.729 548.677,500.981 	"/>
	<polygon clip-path="url(#SVGID_2_)" fill="#FF3C00" points="523.783,421.589 492.733,484.715 542.875,505.208 581.72,428.46 	"/>
	<polygon clip-path="url(#SVGID_2_)" fill="#BC2800" points="581.721,428.46 550.513,442.259 540.961,504.425 512.148,491.925 
		492.733,484.715 523.783,421.589 	"/>
	<path clip-path="url(#SVGID_2_)" fill="#FFFFFF" d="M581.721,428.46l1.806,1.78l-0.894,1.818l2.209-1.654l0.788,1.817
		c0,0-37.79,75.531-38.231,75.507c-0.44-0.023-1.957-0.106-1.957-0.106l1.518-2.337l-2.5,2.282l-1.583-2.359L581.721,428.46z"/>
	<polygon clip-path="url(#SVGID_2_)" fill="#D1DEE5" points="573.301,449.035 583.752,429.5 586.391,428.569 	"/>
	<polygon clip-path="url(#SVGID_2_)" fill="#D1DEE5" points="555.938,484.591 573.289,451.127 573.262,455.81 	"/>
	<path clip-path="url(#SVGID_2_)" fill="#FFFFFF" d="M460.146,500.159l15.971-0.104c8.162-6.494,24.957-46.064,24.957-46.064
		l57.262-1.968c0,0-21.762,50.645-28.973,55.996c-7.21,5.353-26.316-8.137-26.316-8.137L460.146,500.159z"/>
	<polygon clip-path="url(#SVGID_2_)" fill="#576C7C" points="535.237,455.734 552.813,455.048 552.18,455.947 534.694,456.516 	"/>
	<polygon clip-path="url(#SVGID_2_)" fill="#576C7C" points="533.468,458.971 551.8,458.282 551.166,459.179 532.925,459.753 	"/>
	<polygon clip-path="url(#SVGID_2_)" fill="#576C7C" points="537.702,462.079 550.732,461.515 550.099,462.413 537.159,462.861 	"/>
	<polygon clip-path="url(#SVGID_2_)" fill="#576C7C" points="512.327,465.949 530.743,465.292 530.11,466.19 511.784,466.731 	"/>
	<polygon clip-path="url(#SVGID_2_)" fill="#576C7C" points="499.636,469.439 547.732,467.986 547.099,468.884 499.093,470.221 	"/>
	<polygon clip-path="url(#SVGID_2_)" fill="#576C7C" points="497.865,472.676 545.962,471.224 545.329,472.122 497.322,473.458 	"/>
	<polygon clip-path="url(#SVGID_2_)" fill="#576C7C" points="496.095,475.915 544.191,474.461 543.559,475.359 495.552,476.696 	"/>
	<polygon clip-path="url(#SVGID_2_)" fill="#576C7C" points="494.77,479.149 542.865,477.696 542.232,478.594 494.227,479.931 	"/>
	<polygon clip-path="url(#SVGID_2_)" fill="#576C7C" points="493.544,482.383 541.64,480.93 541.007,481.828 493.001,483.165 	"/>
	<polygon clip-path="url(#SVGID_2_)" fill="#576C7C" points="492.042,485.619 540.138,484.166 539.505,485.064 491.499,486.401 	"/>
	<polygon clip-path="url(#SVGID_2_)" fill="#576C7C" points="490.046,488.858 538.143,487.405 537.509,488.302 489.503,489.64 	"/>
	<polygon clip-path="url(#SVGID_2_)" fill="#576C7C" points="488.187,492.096 536.282,490.643 535.649,491.541 487.644,492.877 	"/>
	<polygon clip-path="url(#SVGID_2_)" fill="#576C7C" points="486.42,495.333 534.516,493.88 533.883,494.779 485.877,496.116 	"/>
	<polygon clip-path="url(#SVGID_2_)" fill="#576C7C" points="483.702,498.577 531.799,497.125 531.166,498.022 483.159,499.359 	"/>
	<polygon clip-path="url(#SVGID_2_)" fill="#576C7C" points="481.933,501.815 530.028,500.362 529.396,501.259 481.39,502.596 	"/>
	<polygon clip-path="url(#SVGID_2_)" fill="#576C7C" points="480.162,505.052 528.258,503.599 527.625,504.498 479.619,505.834 	"/>
	<polygon clip-path="url(#SVGID_2_)" fill="#576C7C" points="478.392,508.29 526.487,506.836 525.854,507.735 477.849,509.072 	"/>
	<path clip-path="url(#SVGID_2_)" fill="#11B7AE" d="M460.146,500.159c0,0,3.61,5.39,9.308,7.87s9.843,2.339,9.843,2.339
		l45.898-0.646c0,0-8.756-1.846-14.306-5.084c-5.551-3.238-7.843-4.755-7.843-4.755L460.146,500.159z"/>
	<path clip-path="url(#SVGID_2_)" fill="#72544F" d="M645.167,276.771c-0.482-0.71-1.127-1.733-1.773-3.025
		c-0.441-0.881-1.046-2.212-2.14-5.872c-1.092-3.652-1.638-5.478-1.742-7.265c-0.123-2.116,0.146-3.866,0.398-5.026
		c0.796-0.183,1.593-0.365,2.389-0.548c2.021,3.236,6.184,10.987,3.831,19.159C645.892,275.024,645.577,275.887,645.167,276.771"/>
	<path clip-path="url(#SVGID_2_)" fill="#E5C6A5" d="M641.798,262.242c1.969,13.899,6.738,23.763,10.106,29.498
		c7.167,12.204,13.243,14.657,15.021,15.295c5.29,1.898,9.993,1.173,11.744,0.819c9.96-2.015,15.06-10.383,16.388-12.564
		c6.524-10.708,3.76-22.033,3.005-25.126c-0.683-2.794-3.675-13.557-9.684-19.706c-2.652-2.715-11.972-8.642-26.097-5.695
		C648.108,247.719,642.314,261.003,641.798,262.242"/>
	<path clip-path="url(#SVGID_2_)" fill="#72544F" d="M663.284,265.702c0,0,0.136,6.041,2.913,6.919
		c0.685,0.217,1.315,0.165,1.729,0.091c1.948-2.212,4.555-4.787,7.921-7.283c2.776-2.058,5.435-3.592,7.738-4.734
		c-3.605,0.355-6.348,1.153-8.193,1.821c-3.799,1.373-5.116,2.517-8.467,2.822C663.819,265.621,663.284,265.702,663.284,265.702"/>
	<path clip-path="url(#SVGID_2_)" fill="#72544F" d="M656.911,267.25c0.115,0.096,2.556,2.205,2.003,4.916
		c-0.2,0.98-0.719,1.683-1.093,2.094c-2.577-1.337-4.867-2.098-6.555-2.549c-1.481-0.396-3.172-0.837-5.463-0.91
		c-2.07-0.067-3.796,0.193-5.008,0.455c1.354-1.073,3.773-2.711,7.193-3.642C651.87,266.557,655.152,266.923,656.911,267.25"/>
	<path clip-path="url(#SVGID_2_)" fill="#9E6359" d="M668.564,300.889c-0.889-0.213-2.264-0.653-3.687-1.639
		c-1.281-0.887-2.574-1.782-2.801-3.209c-0.361-2.284,2.278-4.213,2.596-4.438c2.616-1.862,5.728-1.171,7.306-0.82
		c1.57,0.349,3.216,0.715,4.029,2.185c0.733,1.328,0.37,2.801,0.205,3.346c-0.65-0.057-2.626-0.146-4.645,1.094
		C669.645,298.589,668.826,300.279,668.564,300.889"/>
	<path clip-path="url(#SVGID_2_)" fill="#72544F" d="M680.143,288.599c-2.498,0.311-5.328,0.511-8.433,0.478
		c-2.115-0.023-2.27,0.259-4.086,0.068c-0.363,0.82-2.845,0.967-3.392,1.263c-0.101,0.736-0.387,0.775-0.819,1.605
		c-1.865,3.588-6.181,4.327-6.896,4.438c0.837,0.286,2.514,0.721,4.506,0.273c3.878-0.871,5.627-4.341,5.872-4.849
		c1.232,0.301,2.985,0.566,5.053,0.342C676.119,291.766,678.968,289.609,680.143,288.599"/>
	<path clip-path="url(#SVGID_2_)" fill="#CEB797" d="M671.205,302.058c-0.16,0-0.32-0.066-0.435-0.196
		c-0.209-0.239-0.186-0.604,0.054-0.814c0.066-0.058,1.649-1.436,3.348-1.685c0.315-0.051,0.608,0.171,0.654,0.487
		c0.046,0.314-0.172,0.607-0.488,0.653c-1.354,0.2-2.739,1.399-2.752,1.411C671.475,302.01,671.34,302.058,671.205,302.058"/>
	<path clip-path="url(#SVGID_2_)" fill="#FFFFFF" d="M677.52,272.145c-0.059,0.426-0.232,0.851-0.561,1.13
		c-1.637,1.393-4.068,2.957-7.029,3.75c-0.881,0.236-1.484-0.435-1.6-0.773c-0.613-1.797,0.481-2.827,2.146-4.249
		c2.14-1.828,5.771-2.556,6.863-1.328C677.549,270.911,677.604,271.542,677.52,272.145"/>
	<path clip-path="url(#SVGID_2_)" fill="#6F6157" d="M675.36,273.098c0,0.498-0.104,0.974-0.291,1.405
		c-0.605,0.301-1.241,0.651-1.896,1.052c-0.576,0.357-1.108,0.718-1.595,1.082c-1.606-0.1-2.922-1.268-3.249-2.799
		c0.833-0.852,1.922-1.777,3.309-2.584c0.751-0.435,1.494-0.784,2.212-1.059C674.765,270.838,675.36,271.897,675.36,273.098"/>
	<path clip-path="url(#SVGID_2_)" fill="#26211D" d="M677.1,273.611c-2.443,1.6-4.836,3.097-7.375,4.539
		C671.495,275.784,674.185,274.116,677.1,273.611"/>
	<path clip-path="url(#SVGID_2_)" fill="#26211D" d="M679.762,269.139c-4.931,0.516-9.421,2.781-12.837,6.35
		C669.397,271.072,674.735,268.4,679.762,269.139"/>
	<path clip-path="url(#SVGID_2_)" fill="#FFFFFF" d="M648.968,279.691c0.302,0.293,0.683,0.521,1.085,0.55
		c2.005,0.146,4.675-0.023,7.252-1.08c0.766-0.313,0.784-1.168,0.659-1.491c-0.66-1.721-2.062-1.893-4.104-2.047
		c-2.625-0.197-5.635,1.286-5.66,2.84C648.195,278.762,648.541,279.276,648.968,279.691"/>
	<path clip-path="url(#SVGID_2_)" fill="#6F6157" d="M649.844,279.292c0.303,0.381,0.667,0.687,1.062,0.913
		c0.61-0.11,1.272-0.2,1.979-0.26c0.625-0.051,1.22-0.074,1.787-0.068c1.074-0.98,1.293-2.613,0.592-3.97
		c-1.106-0.184-2.439-0.28-3.912-0.119c-0.796,0.09-1.533,0.24-2.209,0.433C648.888,277.227,649.113,278.373,649.844,279.292"/>
	<path clip-path="url(#SVGID_2_)" fill="#26211D" d="M658.135,279.907c-2.681,0.352-5.276,0.546-7.979,0.671
		C652.579,279.284,655.527,279.068,658.135,279.907"/>
	<path clip-path="url(#SVGID_2_)" fill="#26211D" d="M658.493,276.295c-4.479-0.746-9.053-0.077-12.94,2.354
		C648.739,275.156,654.278,274.312,658.493,276.295"/>
	<path clip-path="url(#SVGID_2_)" fill="#CEB797" d="M659.824,275.079c0.59,2.005,0.908,4.111,0.911,6.223
		c0.105,1.96-0.439,4.167,0.15,5.994c1.199,3.26,4.464,3.152,6.929,1.269c0.861-0.586,1.787-1.096,2.662-1.651
		c-0.729,0.771-1.576,1.363-2.32,2.101c-2.694,2.719-6.905,2.567-8.358-1.336c-0.656-1.957-0.059-4.451,0.042-6.405
		C659.985,279.229,659.976,277.165,659.824,275.079"/>
	<path clip-path="url(#SVGID_2_)" fill="#D3D3D3" d="M693.649,317.565l4.153-7.633c-2.501-4.419-5.219-3.841-5.219-3.841
		l-6.434,5.726l3.519,12.125L693.649,317.565z"/>
	<path clip-path="url(#SVGID_2_)" fill="#D3D3D3" d="M678.675,315.558l-10.069-6.458c-2.09,1.104-2.224,3.012-2.263,4.25
		l10.393,9.979L678.675,315.558z"/>
	<path clip-path="url(#SVGID_2_)" fill="#BDDEEF" d="M424.207,161.084c0,29.011-23.518,52.529-52.529,52.529
		c-29.011,0-52.529-23.518-52.529-52.529c0-29.011,23.518-52.529,52.529-52.529C400.688,108.556,424.207,132.074,424.207,161.084"/>
	<path clip-path="url(#SVGID_2_)" fill="#99CCE0" d="M371.677,214.114c-29.24,0-53.028-23.788-53.028-53.029
		c0-29.24,23.788-53.029,53.028-53.029c29.24,0,53.029,23.789,53.029,53.029C424.706,190.326,400.917,214.114,371.677,214.114
		 M371.677,109.056c-28.688,0-52.028,23.34-52.028,52.029s23.34,52.029,52.028,52.029c28.689,0,52.029-23.34,52.029-52.029
		S400.366,109.056,371.677,109.056"/>
	<path clip-path="url(#SVGID_2_)" fill="#FFFFFF" d="M371.678,118.421c-0.276,0-0.5-0.224-0.5-0.5v-6.796c0-0.276,0.224-0.5,0.5-0.5
		s0.5,0.224,0.5,0.5v6.796C372.178,118.197,371.954,118.421,371.678,118.421"/>
	<path clip-path="url(#SVGID_2_)" fill="#FFFFFF" d="M371.678,211.728c-0.276,0-0.5-0.224-0.5-0.5v-6.796c0-0.276,0.224-0.5,0.5-0.5
		s0.5,0.224,0.5,0.5v6.796C372.178,211.503,371.954,211.728,371.678,211.728"/>
	<path clip-path="url(#SVGID_2_)" fill="#FFFFFF" d="M350.3,124.149c-0.239,0.138-0.545,0.056-0.683-0.183l-3.398-5.885
		c-0.138-0.24-0.056-0.545,0.183-0.683c0.239-0.139,0.545-0.057,0.683,0.183l3.398,5.885
		C350.621,123.706,350.539,124.011,350.3,124.149"/>
	<path clip-path="url(#SVGID_2_)" fill="#FFFFFF" d="M396.953,204.955c-0.239,0.138-0.545,0.056-0.683-0.183l-3.398-5.885
		c-0.138-0.24-0.056-0.545,0.183-0.683c0.239-0.139,0.545-0.057,0.683,0.183l3.398,5.885
		C397.274,204.511,397.192,204.817,396.953,204.955"/>
	<path clip-path="url(#SVGID_2_)" fill="#FFFFFF" d="M334.65,139.799c-0.138,0.239-0.444,0.321-0.683,0.183l-5.885-3.398
		c-0.24-0.138-0.322-0.444-0.183-0.683c0.138-0.239,0.443-0.321,0.683-0.183l5.885,3.398
		C334.707,139.254,334.789,139.56,334.65,139.799"/>
	<path clip-path="url(#SVGID_2_)" fill="#FFFFFF" d="M415.456,186.452c-0.138,0.239-0.444,0.321-0.683,0.183l-5.885-3.398
		c-0.24-0.138-0.322-0.444-0.183-0.683c0.138-0.239,0.443-0.321,0.683-0.183l5.885,3.398
		C415.512,185.907,415.594,186.213,415.456,186.452"/>
	<path clip-path="url(#SVGID_2_)" fill="#FFFFFF" d="M328.922,161.176c0,0.276-0.224,0.5-0.5,0.5h-6.796c-0.276,0-0.5-0.224-0.5-0.5
		c0-0.276,0.224-0.5,0.5-0.5h6.796C328.699,160.676,328.922,160.9,328.922,161.176"/>
	<path clip-path="url(#SVGID_2_)" fill="#FFFFFF" d="M422.229,161.176c0,0.276-0.224,0.5-0.5,0.5h-6.796c-0.276,0-0.5-0.224-0.5-0.5
		c0-0.276,0.224-0.5,0.5-0.5h6.796C422.004,160.676,422.229,160.9,422.229,161.176"/>
	<path clip-path="url(#SVGID_2_)" fill="#FFFFFF" d="M334.65,182.554c0.138,0.239,0.056,0.545-0.183,0.683l-5.885,3.398
		c-0.24,0.138-0.545,0.056-0.683-0.183c-0.139-0.239-0.057-0.545,0.183-0.683l5.885-3.398
		C334.207,182.233,334.513,182.315,334.65,182.554"/>
	<path clip-path="url(#SVGID_2_)" fill="#FFFFFF" d="M415.456,135.901c0.138,0.239,0.056,0.545-0.183,0.683l-5.885,3.398
		c-0.24,0.138-0.545,0.056-0.683-0.183c-0.139-0.239-0.057-0.545,0.183-0.683l5.885-3.398
		C415.012,135.58,415.318,135.662,415.456,135.901"/>
	<path clip-path="url(#SVGID_2_)" fill="#FFFFFF" d="M350.3,198.204c0.239,0.138,0.321,0.444,0.183,0.683l-3.398,5.885
		c-0.138,0.24-0.444,0.322-0.683,0.183c-0.239-0.138-0.321-0.443-0.183-0.683l3.398-5.885
		C349.755,198.147,350.061,198.065,350.3,198.204"/>
	<path clip-path="url(#SVGID_2_)" fill="#FFFFFF" d="M396.953,117.398c0.239,0.138,0.321,0.444,0.183,0.683l-3.398,5.885
		c-0.138,0.24-0.444,0.322-0.683,0.183c-0.239-0.138-0.321-0.443-0.183-0.683l3.398-5.885
		C396.408,117.342,396.714,117.26,396.953,117.398"/>
	<path clip-path="url(#SVGID_2_)" fill="#FFFFFF" d="M370.104,161.306l1.791-25.656l1.791,25.656
		C373.773,163.834,370.016,163.839,370.104,161.306"/>
	<path clip-path="url(#SVGID_2_)" fill="#FFFFFF" d="M371.894,163.097l-37.02-1.791l37.02-1.791
		C374.367,159.473,374.375,163.137,371.894,163.097"/>
	
		<line clip-path="url(#SVGID_2_)" fill="none" stroke="#99CCE0" stroke-width="8.211" stroke-miterlimit="10" x1="54.522" y1="531.181" x2="819.393" y2="531.181"/>
	<path clip-path="url(#SVGID_2_)" fill="#72544F" d="M652.759,257.588c6.05,2.358,12.979-1.434,17.908-4.133
		c2.377-1.301,5.764-3.485,9.219-7.045c0.056,5.264,1.533,8.685,2.92,10.865c2.584,4.062,5.748,4.829,8.359,9.305
		c1.815,3.11,2.348,6.206,2.513,8.335c0.357,0.075,0.715,0.15,1.07,0.224c-0.271-0.719-2.097-5.774,0.674-9.818
		c0.706-1.031,1.557-1.769,2.338-2.294c0.174-2.19,0.293-5.345-0.025-9.12c-0.506-5.99-0.833-9.871-3.518-13.203
		c-0.98-1.22-3.416-6.702-13.27-6.768c-0.854-0.949-2.296-2.306-4.412-3.284c-1.058-0.489-3.75-1.56-8.791-0.962
		c-6.597,0.782-11.368,3.729-15.493,6.336c-4.891,3.092-7.35,4.616-9.256,7.166c-5.039,6.744-3.973,15.322-3.31,18.849
		c0.557,0.25,1.363,0.499,2.112,0.201c0.917-0.364,1.167-1.369,1.845-2.927c1.087-2.501,1.63-3.752,2.512-4.239
		C647.831,254.15,649.835,256.448,652.759,257.588"/>
	<path clip-path="url(#SVGID_2_)" fill="#E5C6A5" d="M694.753,271.565c-1.22-3.474-0.482-7.148,1.529-8.799
		c2.855-2.346,7.211,0.27,8.482,3.311c1.02,2.436,0.338,5.648-2.238,11.616c-1.527,3.536-2.951,3.351-3.944,3.236
		C696.692,280.709,695.397,275.619,694.753,271.565"/>
</g>
</svg>
