<?xml version="1.0" encoding="utf-8"?>
<!-- Generator: Adobe Illustrator 16.0.0, SVG Export Plug-In . SVG Version: 6.00 Build 0)  -->
<!DOCTYPE svg PUBLIC "-//W3C//DTD SVG 1.1//EN" "http://www.w3.org/Graphics/SVG/1.1/DTD/svg11.dtd">
<svg version="1.1" id="Layer_1" xmlns="http://www.w3.org/2000/svg" xmlns:xlink="http://www.w3.org/1999/xlink" x="0px" y="0px"
	 width="720px" height="792px" viewBox="0 0 720 792" enable-background="new 0 0 720 792" xml:space="preserve">
<g>
	<defs>
		<path id="SVGID_1_" d="M314.865,94.694c-41.602,36.139-29.271,83.348-69.964,146.72c-32.622,50.793-48.11,32.238-103.113,91.493
			C106.2,371.252,50.187,431.6,47.857,516.853c-0.552,20.041,1.102,69.514,36.882,127.407c0.852,1.578,1.73,3.124,2.64,4.619
			c5.179,8.613,13.023,15.644,19.63,21.75c0,0,10.016,9.356,23.608,16.14c87.792,43.816,218.909,45.927,218.909,45.927
			c27.86,0.392,188.041,1.687,257.662-45.037c24.419-16.391,38.796-37.826,40.09-39.798c0.025-0.052,0.059-0.101,0.093-0.151
			c10.467-16.498,17.836-36.18,20.075-58.077c6.473-63.264-29.499-118.45-41.896-179.984c-13.175-65.42-2.732-148.074-40.817-190.58
			c-27.302-30.476-45.339-4.295-88.577-35.714c-52.765-38.336-47.677-91.107-91.677-109.186c-8.611-3.532-17.203-4.96-25.48-4.959
			C345.056,69.212,316.531,93.244,314.865,94.694"/>
	</defs>
	<clipPath id="SVGID_2_">
		<use xlink:href="#SVGID_1_"  overflow="visible"/>
	</clipPath>
	
		<linearGradient id="SVGID_3_" gradientUnits="userSpaceOnUse" x1="-142" y1="900.9961" x2="-141" y2="900.9961" gradientTransform="matrix(-3.8393 -687.2287 -687.2287 3.8393 619006.375 -100404.6563)">
		<stop  offset="0" style="stop-color:#E3F4FF"/>
		<stop  offset="0.4118" style="stop-color:#E3F4FF"/>
		<stop  offset="0.7063" style="stop-color:#E1F3FF"/>
		<stop  offset="0.8516" style="stop-color:#D9F0FF"/>
		<stop  offset="0.9639" style="stop-color:#CCEAFF"/>
		<stop  offset="1" style="stop-color:#C6E7FF"/>
	</linearGradient>
	<polygon clip-path="url(#SVGID_2_)" fill="url(#SVGID_3_)" points="47.325,737.883 43.589,69.229 673.898,65.708 677.634,734.361 	
		"/>
</g>
<g>
	<defs>
		<rect id="SVGID_4_" x="-142" y="-99" width="1000" height="1000"/>
	</defs>
	<clipPath id="SVGID_5_">
		<use xlink:href="#SVGID_4_"  overflow="visible"/>
	</clipPath>
	<path clip-path="url(#SVGID_5_)" fill="#BDDEEF" d="M647.37,647.709c-0.033,0.051-0.067,0.101-0.093,0.151
		c-1.295,1.971-15.672,23.407-40.09,39.798c-69.622,46.724-229.801,45.43-257.662,45.036c0,0-131.116-2.109-218.908-45.926
		c-13.592-6.783-23.609-16.141-23.609-16.141c-6.607-6.105-14.45-13.137-19.63-21.748c58.311-9.132,163.654-15.23,283.934-15.23
		C486.347,633.649,587.74,639.23,647.37,647.709"/>
	<path clip-path="url(#SVGID_5_)" fill="#F27070" d="M286.586,649.985c-0.384-0.283-0.702-0.617-0.936-1.011
		C285.918,649.343,286.235,649.685,286.586,649.985"/>
	<path clip-path="url(#SVGID_5_)" fill="#939393" d="M288.494,651.688c-0.029,1.427,0.568,2.566,0.568,2.566
		c1.333,2.543,4.675,3.211,6.318,3.516c7.311,1.359,13.897-1.905,13.898-1.905c5.104-2.083,6.521-3.977,13.9-9.067
		c4.639-3.201,8.562-5.545,11.06-6.979c1.787-2.343,1.157-3.037,1.159-7.052C321.006,636.998,288.588,646.945,288.494,651.688"/>
	<path clip-path="url(#SVGID_5_)" fill="#E2C294" d="M316.796,602.029c1.735,5.548,0.019,11.695-3.081,16.612
		s-7.468,8.876-11.607,12.957c-4.139,4.081-8.186,8.476-10.379,13.858c-0.737,1.809-1.198,4.039-0.006,5.585
		c1.128,1.463,8.964,1.671,10.811,1.614c8.883-0.276,11.408-6.219,18.921-10.966c4.277-2.703,9.662-4.898,11.952-7.968
		c2.764-3.706,0.712-9.145,0.636-13.768c-0.071-4.302-0.142-8.604-0.212-12.906c-0.019-1.151-0.101-2.447-0.966-3.209
		c-0.608-0.534-1.46-0.667-2.262-0.775c-4.72-0.647-9.439-1.294-14.159-1.94L316.796,602.029z"/>
	<path clip-path="url(#SVGID_5_)" fill="#B59B76" d="M315.464,615.406c1.916-4.229,2.708-8.988,1.332-13.38l-0.351-0.899
		c4.715,0.647,9.439,1.287,14.153,1.935c0.81,0.108,1.656,0.243,2.268,0.783c0.864,0.756,0.945,2.051,0.963,3.203
		c0.045,2.779,0.09,5.569,0.144,8.358c-2.791,0.325-5.935,0.542-9.376,0.537C321.252,615.938,318.19,615.725,315.464,615.406"/>
	<path clip-path="url(#SVGID_5_)" fill="#353430" d="M292.954,639.933c-7.364,9.915-3.836,10.98-3.128,12.081
		c2.137,3.325,9.094,2.811,14.787,1.653c4.319-0.878,8.347-2.807,11.776-5.576c6.197-5.004,13.677-10.972,19.008-15.325
		c0.234-1.044,0.472-2.586,0.346-4.433c-0.132-1.941-0.588-3.054-1.011-4.861c-0.36-1.539-0.735-3.745-0.738-6.549
		c-2.402,0.752-6.037,1.58-10.488,1.447c-3.696-0.11-6.746-0.846-8.917-1.552c-2.779,4.665-5.169,6.989-7.22,9.097
		c-2.668,2.741-4.458,3.648-7.965,7.328C296.875,635.895,294.145,638.397,292.954,639.933"/>
	<path clip-path="url(#SVGID_5_)" fill="#939393" d="M416.354,651.688c0.029,1.427-0.567,2.566-0.567,2.566
		c-1.333,2.543-4.675,3.211-6.318,3.516c-7.311,1.359-13.897-1.905-13.897-1.905c-5.104-2.083-6.521-3.977-13.9-9.067
		c-4.639-3.201-8.562-5.545-11.06-6.979c-1.787-2.343-1.157-3.037-1.159-7.052C383.841,636.998,416.259,646.945,416.354,651.688"/>
	<path clip-path="url(#SVGID_5_)" fill="#E2C294" d="M388.051,602.029c-1.734,5.548-0.019,11.695,3.081,16.612
		c3.101,4.917,7.469,8.876,11.607,12.957s8.186,8.476,10.379,13.858c0.737,1.809,1.198,4.039,0.006,5.585
		c-1.128,1.463-8.964,1.671-10.811,1.614c-8.883-0.276-11.408-6.219-18.921-10.966c-4.277-2.703-9.662-4.898-11.952-7.968
		c-2.765-3.706-0.712-9.145-0.636-13.768c0.07-4.302,0.141-8.604,0.212-12.906c0.019-1.151,0.101-2.447,0.966-3.209
		c0.607-0.534,1.46-0.667,2.262-0.775c4.72-0.647,9.439-1.294,14.159-1.94L388.051,602.029z"/>
	<path clip-path="url(#SVGID_5_)" fill="#B59B76" d="M389.383,615.406c-1.916-4.229-2.708-8.988-1.332-13.38l0.352-0.899
		c-4.715,0.647-9.439,1.287-14.154,1.935c-0.809,0.108-1.655,0.243-2.267,0.783c-0.864,0.756-0.945,2.051-0.963,3.203
		c-0.046,2.779-0.091,5.569-0.145,8.358c2.791,0.325,5.936,0.542,9.376,0.537C383.595,615.938,386.657,615.725,389.383,615.406"/>
	<path clip-path="url(#SVGID_5_)" fill="#353430" d="M411.895,639.933c7.363,9.915,3.836,10.98,3.128,12.081
		c-2.138,3.325-9.095,2.811-14.787,1.653c-4.319-0.878-8.347-2.807-11.776-5.576c-6.197-5.004-13.677-10.972-19.008-15.325
		c-0.234-1.044-0.472-2.586-0.346-4.433c0.132-1.941,0.588-3.054,1.011-4.861c0.36-1.539,0.735-3.745,0.738-6.549
		c2.401,0.752,6.037,1.58,10.487,1.447c3.696-0.11,6.746-0.846,8.917-1.552c2.779,4.665,5.169,6.989,7.221,9.097
		c2.668,2.741,4.458,3.648,7.965,7.328C407.974,635.895,410.703,638.397,411.895,639.933"/>
	<path clip-path="url(#SVGID_5_)" fill="#00828F" d="M350.713,457.33c-1.107,51.365-6.16,102.674-15.099,153.265h-20.402
		c-6.018-21.134-11.628-45.647-15.515-73.132c-1.091-7.726-1.99-15.258-2.722-22.6c-2.073-20.934-2.764-40.236-2.647-57.533H350.713
		z"/>
	<path clip-path="url(#SVGID_5_)" fill="#00828F" d="M410.811,457.33c-0.117,17.014-0.966,35.65-2.963,55.636
		c-0.949,9.547-2.164,19.403-3.68,29.541c-3.754,25.055-8.773,47.837-14.251,68.088h-20.393
		c-8.948-50.591-13.992-101.891-15.099-153.265H410.811z"/>
	<path clip-path="url(#SVGID_5_)" fill="#01747A" d="M350.671,457.33c-0.524,21.925-1.74,43.85-3.704,65.698
		c-17.48-0.599-35.875-4.443-49.993-8.165c-2.072-20.934-2.763-40.236-2.647-57.533H350.671z"/>
	<path clip-path="url(#SVGID_5_)" fill="#01747A" d="M410.811,457.33c-0.117,17.014-0.966,35.65-2.963,55.636
		c-14.817,4.387-33.188,8.814-49.71,9.896c-1.932-21.8-3.164-43.657-3.679-65.532H410.811z"/>
	<path clip-path="url(#SVGID_5_)" fill="#23AEB5" d="M420.258,500.006c-0.683,1.73-2.064,3.154-3.896,3.854
		c-15.414,5.868-39.263,12.669-68.895,12.585c-28.293-0.065-43.309-5.602-56.752-11.028c-1.897-0.758-3.246-2.372-3.72-4.245
		c-0.025-0.066-0.042-0.133-0.059-0.199c-0.166-0.766-0.199-1.574-0.066-2.381c0.299-1.84,0.641-3.938,1.015-6.26
		c0.083-0.55,0.175-1.115,0.267-1.689c3.604-22.583,9.938-64.177,15.465-98.97c2.208-13.902,2.943-24.983,3.529-30.897
		c2.548-25.715,1.392-49.25,1.978-64.856c-1.443,2.917-3.042,7.219-4.484,10.136c-1.13,0.269,0.223,1.112-0.906,1.381
		c0.391-1.906,0.782-4.22,1.048-6.867c0.525-5.219,0.575-11.753-0.79-19.07c-2.639-14.167-9.123-22.932-12.944-27.868
		c1.807-1.706,4.095-3.721,6.909-5.843c0,0,0.008,0.008,0.008,0c5.286-4.004,12.369-8.382,21.301-11.712
		c1.382-0.516,2.738-0.982,4.078-1.406c0.225-0.075,0.458-0.142,0.683-0.208c0,0,0.008-0.009,0.017-0.009
		c1.714-0.524,3.396-0.982,5.027-1.365c1.232-0.3,2.431-0.558,3.604-0.782h0.009c3.113-0.608,6.018-0.991,8.673-1.224h0.008
		c3.205-0.275,6.027-0.333,8.374-0.308c5.718,0.674,11.878,1.706,18.337,3.255c0.948,0.224,1.897,0.466,2.854,0.707
		c0.567,0.15,1.132,0.3,1.698,0.458c0.433,0.116,0.866,0.233,1.307,0.366c0.566,0.15,1.132,0.317,1.698,0.483h0.009
		c0.407,0.117,0.808,0.241,1.215,0.366c0.384,0.117,0.758,0.233,1.141,0.35c6.077,1.898,12.336,4.27,18.704,7.241
		c3.462,1.615,5.739,2.749,8.845,4.488c-6.151,15.216-8.529,29.482-10.402,40.902v0.017c-0.874,5.335-0.191,9.981-0.534,14.226
		c0,0.008-0.417,1.461-0.417,1.469c-0.44,5.469-1.421,9.567-1.388,14.811c0,0.217,0,0.425,0.009,0.633v0.016
		c0.217,23.257,4.554,44.249,8.407,62.736c1.889,9.09,3.504,15.2,3.962,17.289c7.383,33.413,10.887,62.045,14.466,88.656
		c0.218,1.599,0.434,3.197,0.658,4.778c0.05,0.383,0.101,0.767,0.158,1.149c0.058,0.482,0.125,0.957,0.191,1.431
		C420.824,497.783,420.666,498.957,420.258,500.006"/>
	<path clip-path="url(#SVGID_5_)" fill="#F9855D" d="M303.73,307.433c-0.523-0.323-0.855-1.368-1.036-2.945
		c0.038,0.104,0.076,0.218,0.114,0.332C303.074,305.599,303.388,306.473,303.73,307.433"/>
	<path clip-path="url(#SVGID_5_)" fill="#F9855D" d="M303.825,307.157c0.504-1.568,1.026-2.993,1.568-4.228
		C305.754,304.231,304.433,305.599,303.825,307.157"/>
	<path clip-path="url(#SVGID_5_)" fill="#F9855D" d="M306.01,305.285c-0.199-0.789-0.399-1.577-0.618-2.356
		C305.601,303.518,305.801,304.325,306.01,305.285"/>
	<path clip-path="url(#SVGID_5_)" fill="#F9855D" d="M395.855,302.796c-0.466,2.214-0.884,4.39-1.245,6.518
		c0.152-1.017,0.314-1.986,0.467-2.87C395.333,304.896,395.6,303.623,395.855,302.796"/>
	<path clip-path="url(#SVGID_5_)" fill-rule="evenodd" clip-rule="evenodd" fill="#23AEB5" d="M319.788,262.054
		c0.461,4.45-3.327,7.268-3.808,9.253c-4.097,16.901-14.007,48.058-15.955,52.631c-0.002,0.007-0.004,0.013-0.006,0.02
		c-0.096,0.509-0.211,1.009-0.317,1.499c-0.475,2.1-0.646,4.181-0.675,6.261c-8.169,0.48-16.338,0.96-24.507,1.439
		c2.155-36.108,6.962-63.039,12.131-73.232c2.88-5.68,7.076-9.217,7.076-9.217c6.071-5.118,13.14-6.36,17.358-6.694
		C314.363,247.588,318.928,253.757,319.788,262.054"/>
	<path clip-path="url(#SVGID_5_)" fill-rule="evenodd" clip-rule="evenodd" fill="#23AEB5" d="M432.537,343.796L403.8,341.96
		c-0.541-9.225-3.453-30.119-7.944-39.164c-0.256,0.826-0.522,2.1-0.779,3.648c-7.398-11.969-19.31-23.991-24.181-31.896
		c-2.239-14.476,1.013-26.868,8.077-29.986c4.656-2.056,11.637-0.372,17.5,1.042c0.001,0,2.944,0.262,7.557,2.386
		C414.674,250.61,432.537,293.7,432.537,343.796"/>
	<path clip-path="url(#SVGID_5_)" fill-rule="evenodd" clip-rule="evenodd" fill="#1F9393" d="M402.989,324.903
		c0.292-0.071-1.225-9.5-5.891-19.697c-0.406-0.888-0.82-1.701-1.242-2.408c-0.255,0.82-0.52,2.099-0.782,3.649
		c-0.722,4.153-1.481,10.195-2.257,14.1c-0.038,0.173-0.068,0.338-0.106,0.504c0.339-3.882,0.729-9.84,0.679-17.207
		c-0.026-3.684-0.147-5.506-0.213-8.665c-0.104-4.897-0.163-10.714,0.607-19.642c0.194,1.39,0.488,3.636,0.769,6.417
		c0.377,3.75,0.53,6.511,0.56,6.982C395.646,297.619,402.488,325.025,402.989,324.903"/>
	<path clip-path="url(#SVGID_5_)" fill-rule="evenodd" clip-rule="evenodd" fill="#E2C294" d="M374.603,233.43
		c-3.153,5.126-11.269,14.667-18.004,16.175c-1.604,5.406-1.707,8.975-3.31,14.38c-0.663-5.692-2.137-8.51-2.792-14.202
		c-4.968,0.034-18.687-9.76-21.478-16.496c1.556-0.669,4.614-1.14,8.654-4.013c5.057-3.597,7.296-8.224,8.135-10.258
		c4.532-0.253,9.064-0.499,13.596-0.751c0.355,2.498,1.29,4.73,2.586,6.668C365.074,229.533,370.221,232.475,374.603,233.43"/>
	<path clip-path="url(#SVGID_5_)" fill="#003399" d="M376.329,233.095c-1.85,3.092-3.918,5.917-6.189,8.449
		c-3.475,3.863-7.358,6.976-11.569,9.269c-0.662,3.897-1.174,5.644-1.808,7.828c-0.423,1.42-0.894,3.037-1.515,5.624
		c-0.253,1.044-1.058,1.754-2.007,1.795c-0.068,0-0.143,0.007-0.211,0c-1.024-0.075-1.83-0.908-1.966-2.048l-2.129-13.315
		c-3.017-0.765-5.918-2.096-8.634-3.945c-4.818-3.269-9.364-9.303-11.882-13.473c0.914-0.259,1.863-0.512,2.846-0.764
		c0.047-0.014,0.095-0.027,0.143-0.041c2.341,3.706,6.443,9.023,10.558,11.828c2.703,1.836,5.59,3.085,8.586,3.726l0.99,0.212
		l1.829,11.431c0.191-0.682,0.375-1.289,0.539-1.87c0.669-2.3,1.16-3.958,1.856-8.196l0.123-0.731l0.655-0.341
		c4.144-2.157,7.973-5.18,11.392-8.975c2.02-2.245,3.87-4.743,5.527-7.453c0.84,0.273,1.687,0.56,2.526,0.867
		C376.104,233.013,376.213,233.054,376.329,233.095"/>
	<path clip-path="url(#SVGID_5_)" fill-rule="evenodd" clip-rule="evenodd" fill="#003399" d="M328.391,236.086
		c-0.024,0.513-0.444,0.909-0.937,0.886c-0.493-0.024-0.873-0.458-0.848-0.971c0.024-0.513,0.443-0.909,0.936-0.886
		C328.035,235.14,328.415,235.573,328.391,236.086"/>
	<path clip-path="url(#SVGID_5_)" fill-rule="evenodd" clip-rule="evenodd" fill="#003399" d="M330.799,240.053
		c-0.024,0.513-0.444,0.909-0.937,0.886c-0.493-0.024-0.873-0.458-0.848-0.971c0.024-0.513,0.443-0.909,0.936-0.886
		C330.443,239.106,330.823,239.54,330.799,240.053"/>
	<path clip-path="url(#SVGID_5_)" fill-rule="evenodd" clip-rule="evenodd" fill="#003399" d="M333.284,243.079
		c-0.024,0.513-0.444,0.909-0.937,0.886c-0.493-0.024-0.873-0.458-0.848-0.971c0.024-0.513,0.443-0.909,0.936-0.886
		C332.928,242.132,333.308,242.566,333.284,243.079"/>
	<path clip-path="url(#SVGID_5_)" fill-rule="evenodd" clip-rule="evenodd" fill="#003399" d="M336.359,246.016
		c-0.024,0.513-0.444,0.909-0.937,0.886c-0.493-0.024-0.873-0.458-0.848-0.971c0.024-0.513,0.443-0.909,0.936-0.886
		C336.003,245.069,336.383,245.503,336.359,246.016"/>
	<path clip-path="url(#SVGID_5_)" fill-rule="evenodd" clip-rule="evenodd" fill="#003399" d="M339.519,247.882
		c0.403,0.295,0.498,0.875,0.213,1.295c-0.285,0.42-0.843,0.521-1.246,0.226c-0.403-0.295-0.498-0.875-0.213-1.295
		C338.558,247.688,339.116,247.587,339.519,247.882"/>
	<path clip-path="url(#SVGID_5_)" fill-rule="evenodd" clip-rule="evenodd" fill="#003399" d="M343.986,250.351
		c0.403,0.295,0.498,0.875,0.213,1.295c-0.285,0.42-0.843,0.521-1.246,0.226c-0.403-0.295-0.498-0.875-0.213-1.295
		C343.025,250.157,343.583,250.056,343.986,250.351"/>
	<path clip-path="url(#SVGID_5_)" fill-rule="evenodd" clip-rule="evenodd" fill="#003399" d="M347.704,252.126
		c0.403,0.295,0.498,0.875,0.213,1.295c-0.285,0.42-0.843,0.521-1.246,0.226s-0.498-0.875-0.213-1.295
		C346.743,251.933,347.301,251.832,347.704,252.126"/>
	<path clip-path="url(#SVGID_5_)" fill-rule="evenodd" clip-rule="evenodd" fill="#003399" d="M348.375,257.015
		c0.403,0.295,0.498,0.875,0.213,1.295c-0.285,0.42-0.843,0.521-1.246,0.226c-0.403-0.295-0.498-0.875-0.213-1.295
		C347.414,256.821,347.972,256.72,348.375,257.015"/>
	<path clip-path="url(#SVGID_5_)" fill-rule="evenodd" clip-rule="evenodd" fill="#003399" d="M349.062,261.56
		c0.389,0.315,0.457,0.898,0.153,1.304c-0.304,0.405-0.865,0.479-1.254,0.164c-0.389-0.315-0.458-0.898-0.154-1.304
		C348.112,261.318,348.673,261.244,349.062,261.56"/>
	<path clip-path="url(#SVGID_5_)" fill-rule="evenodd" clip-rule="evenodd" fill="#003399" d="M350.135,265.841
		c0.389,0.315,0.457,0.898,0.153,1.304c-0.304,0.405-0.865,0.479-1.254,0.164c-0.389-0.315-0.458-0.898-0.154-1.304
		C349.184,265.6,349.746,265.526,350.135,265.841"/>
	<path clip-path="url(#SVGID_5_)" fill-rule="evenodd" clip-rule="evenodd" fill="#003399" d="M353.832,267.768
		c0.389,0.315,0.457,0.898,0.153,1.304c-0.304,0.405-0.865,0.479-1.254,0.164s-0.458-0.898-0.154-1.304
		C352.882,267.527,353.443,267.453,353.832,267.768"/>
	<path clip-path="url(#SVGID_5_)" fill-rule="evenodd" clip-rule="evenodd" fill="#003399" d="M357.404,265.666
		c0.389,0.315,0.457,0.898,0.153,1.304c-0.304,0.405-0.865,0.479-1.254,0.164s-0.458-0.898-0.154-1.304
		C356.453,265.425,357.015,265.351,357.404,265.666"/>
	<path clip-path="url(#SVGID_5_)" fill-rule="evenodd" clip-rule="evenodd" fill="#003399" d="M360.221,256.549
		c0.39,0.315,0.457,0.898,0.153,1.304c-0.304,0.405-0.865,0.479-1.254,0.164c-0.389-0.314-0.458-0.898-0.154-1.304
		C359.27,256.308,359.832,256.234,360.221,256.549"/>
	<path clip-path="url(#SVGID_5_)" fill-rule="evenodd" clip-rule="evenodd" fill="#003399" d="M360.935,252.201
		c0.389,0.315,0.457,0.898,0.153,1.304c-0.305,0.405-0.865,0.479-1.254,0.164c-0.39-0.314-0.459-0.898-0.154-1.304
		C359.983,251.96,360.546,251.886,360.935,252.201"/>
	<path clip-path="url(#SVGID_5_)" fill-rule="evenodd" clip-rule="evenodd" fill="#003399" d="M364.413,249.876
		c0.389,0.315,0.457,0.898,0.152,1.304c-0.304,0.405-0.864,0.479-1.254,0.164c-0.389-0.315-0.458-0.898-0.153-1.304
		C363.463,249.635,364.023,249.561,364.413,249.876"/>
	<path clip-path="url(#SVGID_5_)" fill-rule="evenodd" clip-rule="evenodd" fill="#003399" d="M367.995,247.256
		c0.389,0.315,0.457,0.898,0.153,1.304c-0.305,0.405-0.865,0.479-1.254,0.164c-0.39-0.315-0.458-0.898-0.154-1.304
		C367.044,247.015,367.606,246.941,367.995,247.256"/>
	<path clip-path="url(#SVGID_5_)" fill-rule="evenodd" clip-rule="evenodd" fill="#003399" d="M371.012,244.311
		c0.389,0.315,0.457,0.898,0.153,1.304c-0.305,0.405-0.865,0.479-1.254,0.164c-0.39-0.315-0.458-0.898-0.154-1.304
		C370.061,244.069,370.623,243.996,371.012,244.311"/>
	<path clip-path="url(#SVGID_5_)" fill-rule="evenodd" clip-rule="evenodd" fill="#003399" d="M374.131,241.041
		c0.389,0.315,0.457,0.898,0.153,1.304c-0.305,0.405-0.865,0.479-1.254,0.164c-0.39-0.314-0.458-0.898-0.154-1.304
		C373.18,240.8,373.742,240.726,374.131,241.041"/>
	<path clip-path="url(#SVGID_5_)" fill-rule="evenodd" clip-rule="evenodd" fill="#003399" d="M376.251,238.293
		c0.389,0.315,0.457,0.898,0.153,1.304c-0.305,0.405-0.865,0.479-1.254,0.164c-0.39-0.315-0.459-0.898-0.154-1.304
		C375.301,238.052,375.862,237.978,376.251,238.293"/>
	<path clip-path="url(#SVGID_5_)" fill-rule="evenodd" clip-rule="evenodd" fill="#003399" d="M378.062,235.187
		c0.39,0.315,0.457,0.898,0.153,1.304c-0.304,0.405-0.865,0.479-1.254,0.164c-0.39-0.314-0.458-0.898-0.154-1.304
		C377.11,234.946,377.673,234.872,378.062,235.187"/>
	<path clip-path="url(#SVGID_5_)" fill-rule="evenodd" clip-rule="evenodd" fill="#003399" d="M358.861,261.15
		c0.39,0.315,0.457,0.898,0.153,1.304c-0.304,0.405-0.865,0.479-1.254,0.164c-0.389-0.314-0.458-0.898-0.154-1.304
		C357.912,260.91,358.473,260.835,358.861,261.15"/>
	<path clip-path="url(#SVGID_5_)" fill-rule="evenodd" clip-rule="evenodd" fill="#B59B76" d="M361.99,224.933
		c-2.465,1.706-7.262,4.259-13.22,3.44c-2.43-0.335-4.443-1.154-5.972-1.986c2.034-2.778,2.737-5.638,3.01-7.371
		c4.532-0.253,9.064-0.498,13.595-0.751C359.758,220.763,360.693,222.995,361.99,224.933"/>
	<path clip-path="url(#SVGID_5_)" fill="#2E2E30" d="M330.422,122.526c1.558-2.155,5.821-7.416,13.063-9.213
		c4.904-1.217,8.904-0.283,13.064,0.687c7.683,1.793,12.938,5.257,17.189,8.113c4.569,3.072,9.314,6.262,13.888,12.239
		c4.919,6.43,6.522,12.014,9.076,20.901c1.225,4.266,1.547,6.759,0.687,9.351c-0.754,2.275-1.834,2.866-2.612,5.775
		c-0.257,0.961-0.901,3.746-0.275,7.013c0.703,3.663,2.209,3.791,3.987,8.388c1.322,3.416,2.287,5.908,1.514,8.664
		c-0.33,1.174-1.916,3.258-5.088,7.425c-1.573,2.067-2.26,2.87-2.613,4.4c-0.158,0.689-0.736,3.2,0.825,5.501
		c1.496,2.204,3.903,2.666,4.4,2.75c-0.238,1.977-1.523,3.644-3.301,4.263c-2.179,0.759-4.743-0.184-6.05-2.338
		c0.555,0.781,1.34,2.082,1.788,3.85c0.354,1.404,0.873,3.444,0,5.363c-0.815,1.791-1.972,1.566-3.301,3.988
		c-0.572,1.043-1.097,2.033-0.825,3.163c0.422,1.753,2.439,2.502,2.751,2.612c-1.549,1.064-3.589,1.06-5.088,0
		c-1.385-0.978-2.084-2.697-1.788-4.4c-0.225,0.957-1.263,4.907-5.088,7.426c-5.382,3.544-11.374,1.024-11.826,0.825
		c2.363,0.731,4.676-0.146,5.501-1.788c0.672-1.339,0.293-3.066-0.55-4.125c-1.13-1.42-2.394-0.76-4.126-2.338
		c-0.147-0.134-2.273-2.115-1.787-3.85c0.311-1.112,1.454-1.26,1.512-2.2c0.054-0.862-0.852-1.615-1.925-2.338
		c-3.356-2.261-6.463-3.025-6.463-3.025c-5.958-1.466-9.061-2.229-10.863-0.55c-0.924,0.861-0.496,1.424-1.788,6.188
		c-0.907,3.348-1.361,5.022-2.337,6.463c-2.415,3.565-6.402,4.593-6.738,4.675c-5.639,1.369-10.102-2.333-10.588-2.75
		c2.521-0.321,5.042-0.642,7.563-0.963c-0.161-0.012-2.221-0.204-3.163-1.925c-0.842-1.538-0.428-3.635,1.1-4.95
		c-0.756,0.01-4.57-0.017-7.701-3.025c-2.874-2.762-3.235-6.175-3.3-7.013c1.243,1.078,2.831,0.93,3.438,0.137
		c0.524-0.683,0.369-1.911-0.275-2.475c-0.948-0.831-2.191,0.447-3.575-0.138c-1.497-0.632-1.128-2.584-3.026-6.738
		c-0.661-1.446-1.089-2.385-1.925-3.437c-2.092-2.636-3.989-2.526-5.638-4.126c-2.988-2.899-2.089-8.433-1.65-11.138
		c0.955-5.878,3.544-6.781,4.126-12.101c0.396-3.623-0.496-6.037-1.238-8.938c-0.551-2.154-3.385-13.814-0.825-24.752
		c3.154-13.477,12.881-18.953,13.751-19.388c1.511-0.757,3.025-0.946,3.025-0.946c0.349-0.043,1.328-0.144,2.578,0.052
		C328.976,121.937,329.829,122.254,330.422,122.526"/>
	<path clip-path="url(#SVGID_5_)" fill="#E2C294" d="M384.393,172.864c0.078,2.083,0.336,12.628-5.304,24.348
		c-1.975,4.104-12.783,26.564-30.321,26.402c-18.385-0.17-28.826-25.058-30.045-27.965c-4.394-10.473-4.193-19.745-4.004-23.072
		c1.166-20.515,6.438-41.154,32.83-41.168C374.357,131.395,383.581,151.093,384.393,172.864"/>
	<path clip-path="url(#SVGID_5_)" fill="#E2C294" d="M316.87,184.13c-0.817-3.761-2.09-6.339-2.975-7.849
		c-0.782-1.334-1.639-2.48-3.046-2.939c-0.321-0.105-1.306-0.426-2.222,0c-1.062,0.494-1.502,1.746-1.792,3.118
		c-0.917,4.326-0.038,8.347,0.286,9.677c0.299,1.225,1.263,3.385,3.19,7.706c0.799,1.791,1.438,3.133,2.903,3.835
		c0.187,0.089,1.55,0.719,2.975,0.286c2.008-0.609,3.46-3.122,3.262-6.164C318.59,189.243,317.73,186.687,316.87,184.13"/>
	<path clip-path="url(#SVGID_5_)" fill="#E2C294" d="M381.095,181.442c0.871-4.154,2.229-7.001,3.173-8.669
		c0.834-1.473,1.749-2.738,3.25-3.246c0.343-0.115,1.394-0.47,2.371,0c1.133,0.546,1.601,1.928,1.911,3.444
		c0.978,4.778,0.041,9.219-0.305,10.688c-0.319,1.352-1.348,3.738-3.403,8.51c-0.854,1.979-1.534,3.461-3.097,4.236
		c-0.199,0.098-1.654,0.794-3.175,0.316c-2.142-0.673-3.689-3.448-3.479-6.808C379.26,187.09,380.177,184.267,381.095,181.442"/>
	<path clip-path="url(#SVGID_5_)" fill="#B59B76" d="M345.761,185.782c-0.531,2.641-1.196,5.191-1.972,7.757
		c-0.248,0.801-0.601,1.651-0.751,2.447c-0.063,0.377-0.043,0.662,0.103,0.922c0.151,0.297,0.502,0.512,0.772,0.707
		c2.131,1.304,5.114,0.725,7.195-0.503c-1.919,1.957-5.26,2.797-7.757,1.405c-2.399-1.277-1.261-3.441-0.561-5.33
		C343.693,190.694,344.588,188.171,345.761,185.782"/>
	<path clip-path="url(#SVGID_5_)" fill="#B59B76" d="M338.264,205.627c5.098,3.137,11.152,4.063,16.839,2.134
		c1.856-0.608,3.646-1.455,5.363-2.491c-3.092,2.999-7.482,4.729-11.814,4.605C344.839,209.81,340.995,208.27,338.264,205.627"/>
	<path clip-path="url(#SVGID_5_)" fill="#240F0F" d="M343.485,167.698c0.135-0.307-3.445-2.427-7.426-3.85
		c-2.455-0.878-4.621-1.333-6.228-1.585c-0.294-0.045-0.592-0.015-0.87,0.093c-0.707,0.273-1.498,0.643-2.321,1.148
		c-1.721,1.057-2.924,2.302-3.716,3.293c-0.079,0.099,0.024,0.239,0.143,0.194c0.342-0.13,0.685-0.261,1.029-0.393
		c3.959-1.523,4.267-1.762,5.019-1.994c1.679-0.518,4.443,0.266,9.901,1.856C342.263,167.406,343.411,167.866,343.485,167.698"/>
	<path clip-path="url(#SVGID_5_)" fill="#240F0F" d="M349.534,167.368c-0.135-0.307,3.445-2.427,7.426-3.85
		c2.455-0.878,4.621-1.333,6.229-1.585c0.294-0.045,0.592-0.015,0.869,0.093c0.707,0.273,1.498,0.643,2.321,1.148
		c1.721,1.057,2.924,2.302,3.716,3.293c0.079,0.099-0.023,0.239-0.143,0.194c-0.342-0.13-0.686-0.261-1.029-0.393
		c-3.959-1.523-4.267-1.762-5.019-1.994c-1.68-0.518-4.443,0.266-9.901,1.856C350.756,167.076,349.608,167.537,349.534,167.368"/>
	<path clip-path="url(#SVGID_5_)" fill="#2E2E30" d="M389.379,167.458c-0.695,0.671-1.607,1.719-2.269,3.197
		c-0.802,1.793-0.609,2.831-1.444,4.435c-0.435,0.835-1.207,1.937-2.681,2.991c-0.104-1.822-0.206-3.644-0.311-5.466
		c-0.503,2.252-1.103,4.607-1.821,7.047c-1.316,4.472-2.82,8.523-4.365,12.135c0.19-4.383,0.067-8.04-0.104-10.726
		c-0.356-5.594-0.938-7.161-1.959-8.456c-1.457-1.85-3.343-2.557-5.879-3.507c-4.513-1.691-5.595-0.667-9.797-2.063
		c-2.632-0.874-6.117-2.031-8.354-5.156c-1.861-2.6-1.097-4.101-3.506-8.148c-1.246-2.092-2.495-3.446-3.61-4.641
		c-1.925-2.062-5.353-5.216-10.726-7.838c-1.599,3.823-3.705,8.139-6.497,12.686c-2.201,3.583-4.456,6.705-6.601,9.385
		c0.753,1.9,1.981,5.771,1.341,10.622c-0.922,6.991-5.105,11.349-6.497,12.686c0.384-1.438,1.017-4.607-0.052-8.354
		c-0.779-2.731-2.143-4.649-3.042-5.724c-0.189-1.324-3.137-24.636,13.716-38.21c9.881-7.959,21.184-8.232,23.239-8.251
		c2.72-0.025,12.778,0.176,22.277,7.013c7.914,5.696,11.285,13.008,14.164,19.251C387.341,158.311,388.677,163.65,389.379,167.458"
		/>
	<path clip-path="url(#SVGID_5_)" fill="#D1D1D1" d="M316.258,195.974c0,1.481-0.975,2.681-2.179,2.681
		c-1.203,0-2.178-1.2-2.178-2.681s0.975-2.681,2.178-2.681C315.283,193.293,316.258,194.493,316.258,195.974"/>
	<path clip-path="url(#SVGID_5_)" fill="#D1D1D1" d="M317.035,203.649c-0.15-2.223-1.316-4.162-2.081-5.219
		c-0.092-0.125-0.175-0.242-0.258-0.341c-0.242-0.317-0.408-0.492-0.408-0.492s-0.125,0.117-0.325,0.35
		c-0.133,0.15-0.291,0.35-0.466,0.608c-0.458,0.632-1.007,1.589-1.432,2.88c-0.216,0.649-0.399,1.39-0.524,2.214
		c-0.5,3.304,0.641,6.051,2.747,6.051c0.791,0,1.598-0.399,2.131-1.448C316.91,207.312,317.184,205.839,317.035,203.649
		 M315.811,207.562c-0.1,0.241-0.2,0.433-0.3,0.583c-0.075,0.108-0.141,0.191-0.208,0.258c-0.283,0.308-0.624,0.458-1.015,0.458
		c-0.441,0-0.808-0.184-1.132-0.558c-0.1-0.108-0.183-0.233-0.258-0.375c-0.117-0.183-0.217-0.391-0.292-0.616
		c-0.241-0.657-0.358-1.481-0.333-2.38c0-0.183,0.017-0.367,0.034-0.558c0.016-0.2,0.041-0.4,0.066-0.599
		c0.092-0.591,0.217-1.141,0.358-1.632c0.009-0.041,0.025-0.083,0.042-0.125c0.058-0.208,0.125-0.407,0.183-0.599
		c0.416-1.14,0.924-1.973,1.307-2.497c0.433,0.591,0.999,1.49,1.407,2.563v0.008c0.091,0.225,0.174,0.449,0.241,0.691
		c0.141,0.483,0.241,0.999,0.283,1.523c0.025,0.35,0.033,0.674,0.033,0.974c0,0.191,0,0.383-0.008,0.558
		c-0.025,0.782-0.125,1.398-0.258,1.864v0.008C315.918,207.279,315.86,207.429,315.811,207.562"/>
	
		<rect x="312.798" y="205.737" transform="matrix(0.8583 0.5131 -0.5131 0.8583 150.6011 -131.3013)" clip-path="url(#SVGID_5_)" fill="#D1D1D1" width="0.561" height="2.682"/>
	
		<rect x="313.854" y="206.797" transform="matrix(0.5127 0.8586 -0.8586 0.5127 331.3959 -169.7065)" clip-path="url(#SVGID_5_)" fill="#D1D1D1" width="2.682" height="0.561"/>
	
		<rect x="314.505" y="204.648" transform="matrix(0.998 0.0629 -0.0629 0.998 13.5107 -19.4467)" clip-path="url(#SVGID_5_)" fill="#D1D1D1" width="2.423" height="0.561"/>
	
		<rect x="311.564" y="204.392" transform="matrix(0.998 0.0627 -0.0627 0.998 13.4472 -19.2001)" clip-path="url(#SVGID_5_)" fill="#D1D1D1" width="2.204" height="0.562"/>
	
		<rect x="311.937" y="202.219" transform="matrix(0.5127 0.8586 -0.8586 0.5127 326.5314 -170.2914)" clip-path="url(#SVGID_5_)" fill="#D1D1D1" width="2.682" height="0.561"/>
	
		<rect x="315.113" y="201.159" transform="matrix(0.8587 0.5124 -0.5124 0.8587 148.3297 -133.0129)" clip-path="url(#SVGID_5_)" fill="#D1D1D1" width="0.561" height="2.682"/>
	<path clip-path="url(#SVGID_5_)" fill="#D1D1D1" d="M385.584,195.176c0,1.481-0.976,2.681-2.18,2.681
		c-1.203,0-2.178-1.2-2.178-2.681c0-1.48,0.975-2.681,2.178-2.681C384.608,192.495,385.584,193.695,385.584,195.176"/>
	<path clip-path="url(#SVGID_5_)" fill="#D1D1D1" d="M386.354,202.851c-0.149-2.223-1.323-4.17-2.081-5.219
		c-0.316-0.433-0.558-0.708-0.641-0.799c-0.017-0.025-0.025-0.034-0.025-0.034s-0.017,0.017-0.042,0.042
		c-0.107,0.1-0.398,0.408-0.749,0.916c-0.674,0.957-1.582,2.63-1.947,5.094c-0.499,3.313,0.641,6.06,2.738,6.06
		C385.131,208.911,386.663,207.446,386.354,202.851 M385.131,206.763c-0.092,0.25-0.2,0.449-0.3,0.599
		c-0.075,0.1-0.142,0.183-0.199,0.25c-0.283,0.3-0.625,0.449-1.024,0.449c-0.433,0-0.808-0.174-1.124-0.549
		c-0.1-0.116-0.183-0.241-0.258-0.374c-0.116-0.184-0.216-0.392-0.291-0.616c-0.25-0.666-0.367-1.49-0.333-2.389
		c0-0.183,0.008-0.367,0.033-0.558c0.008-0.2,0.033-0.4,0.067-0.599c0.083-0.6,0.208-1.141,0.357-1.64
		c0.066-0.25,0.149-0.491,0.225-0.716c0.416-1.14,0.924-1.973,1.307-2.497c0.425,0.591,0.999,1.49,1.407,2.564
		c0.091,0.224,0.166,0.457,0.24,0.699c0.143,0.483,0.242,0.999,0.275,1.523c0.025,0.35,0.041,0.666,0.041,0.974
		c0,0.2,0,0.383-0.008,0.566C385.514,205.514,385.339,206.254,385.131,206.763"/>
	
		<rect x="382.123" y="204.939" transform="matrix(0.8581 0.5135 -0.5135 0.8581 160.1795 -167.0837)" clip-path="url(#SVGID_5_)" fill="#D1D1D1" width="0.561" height="2.682"/>
	
		<rect x="383.179" y="205.999" transform="matrix(0.5126 0.8586 -0.8586 0.5126 364.5358 -229.6187)" clip-path="url(#SVGID_5_)" fill="#D1D1D1" width="2.682" height="0.561"/>
	
		<rect x="383.83" y="203.851" transform="matrix(0.998 0.0627 -0.0627 0.998 13.5519 -23.7328)" clip-path="url(#SVGID_5_)" fill="#D1D1D1" width="2.423" height="0.561"/>
	
		<rect x="380.889" y="203.594" transform="matrix(0.998 0.0625 -0.0625 0.998 13.4864 -23.4716)" clip-path="url(#SVGID_5_)" fill="#D1D1D1" width="2.204" height="0.563"/>
	
		<rect x="381.262" y="201.422" transform="matrix(0.5127 0.8586 -0.8586 0.5127 359.6305 -230.2019)" clip-path="url(#SVGID_5_)" fill="#D1D1D1" width="2.682" height="0.561"/>
	
		<rect x="384.438" y="200.361" transform="matrix(0.8589 0.5121 -0.5121 0.8589 157.5503 -168.5501)" clip-path="url(#SVGID_5_)" fill="#D1D1D1" width="0.562" height="2.682"/>
	<path clip-path="url(#SVGID_5_)" fill="#B59B76" d="M351.842,181.314c0-5.297,3.958-9.609,8.044-10.561
		c4.718-1.099,8.92,2.584,9.523,3.167c2.114,2.045,2.736,4.483,3.163,5.787c-1.022,1.174-3.893,4.157-8.457,5.051
		C357.573,186.04,352.679,182.025,351.842,181.314"/>
	<path clip-path="url(#SVGID_5_)" fill="#FFFFFF" d="M351.842,181.69c0.688-4.827,3.958-8.633,8.044-9.488
		c4.718-0.987,8.576,2.364,9.179,2.888c2.115,1.836,3.081,3.985,3.508,5.156c-1.022,1.055-3.893,3.735-8.457,4.538
		C357.573,185.934,352.679,182.328,351.842,181.69"/>
	<path clip-path="url(#SVGID_5_)" fill="#746653" d="M367.802,179.935c0,3.095-2.509,5.604-5.604,5.604
		c-3.094,0-5.603-2.509-5.603-5.604c0-3.095,2.509-5.604,5.603-5.604C365.293,174.331,367.802,176.839,367.802,179.935"/>
	<path clip-path="url(#SVGID_5_)" fill="#3A332A" d="M364.776,180.897c0,1.424-1.154,2.578-2.578,2.578s-2.579-1.154-2.579-2.578
		s1.155-2.578,2.579-2.578S364.776,179.473,364.776,180.897"/>
	<path clip-path="url(#SVGID_5_)" fill="#FFFFFF" d="M365.739,180.708c0,0.532-0.432,0.963-0.964,0.963
		c-0.53,0-0.962-0.431-0.962-0.963c0-0.532,0.432-0.963,0.962-0.963C365.308,179.745,365.739,180.176,365.739,180.708"/>
	<path clip-path="url(#SVGID_5_)" fill="#433015" d="M372.571,180.246c-0.672-0.89-1.28-1.853-2.075-2.629
		c-0.757-0.77-1.603-1.419-2.511-1.934c-3.61-2.087-8.169-2.012-11.662,0.269c-1.973,1.261-3.714,3.336-4.482,5.669
		c-0.192-2.712,1.256-5.357,3.367-7.159C361.184,169.376,371.104,172.332,372.571,180.246"/>
	<path clip-path="url(#SVGID_5_)" fill="#433015" d="M370.835,176.61c1.263-0.364,2.475-1.141,3.18-2.277
		c-0.424,0.958-1.187,1.735-2.061,2.302c-0.3,0.193-0.599,0.362-0.947,0.509L370.835,176.61z"/>
	<path clip-path="url(#SVGID_5_)" fill="#433015" d="M371.599,177.852c1.063-0.026,2.283-0.266,2.983-1.147
		c-0.421,0.779-1.264,1.223-2.078,1.492c-0.283,0.09-0.56,0.165-0.867,0.215L371.599,177.852z"/>
	<path clip-path="url(#SVGID_5_)" fill="#433015" d="M372.323,179.091c0.572,0.122,1.232,0.091,1.763-0.189
		c0.187-0.094,0.347-0.232,0.496-0.387c-0.332,0.591-0.981,0.934-1.635,1.062c-0.227,0.045-0.442,0.074-0.695,0.072L372.323,179.091
		z"/>
	<path clip-path="url(#SVGID_5_)" fill="#B59B76" d="M340.757,181.314c0-5.297-3.958-9.609-8.044-10.561
		c-4.718-1.099-8.92,2.584-9.523,3.167c-2.115,2.045-2.737,4.483-3.163,5.787c1.022,1.174,3.892,4.157,8.457,5.051
		C335.026,186.04,339.92,182.025,340.757,181.314"/>
	<path clip-path="url(#SVGID_5_)" fill="#FFFFFF" d="M340.76,181.69c-0.59,0.45-3.15,2.34-6.88,3.05c-1.5,0.28-3.19,0.37-5.02,0.1
		c-0.12-0.02-0.25-0.04-0.38-0.06c-4.56-0.8-7.43-3.48-8.45-4.53c0.42-1.17,1.39-3.32,3.5-5.16c0.61-0.52,4.47-3.88,9.18-2.89
		C336.8,173.06,340.07,176.86,340.76,181.69"/>
	<path clip-path="url(#SVGID_5_)" fill="#746653" d="M336.87,179.79c0,2.15-1.21,4.02-2.99,4.95c-1.5,0.28-3.19,0.37-5.02,0.1
		c-1.89-0.89-3.19-2.82-3.19-5.05c0-3.1,2.5-5.61,5.6-5.61C334.36,174.18,336.87,176.69,336.87,179.79"/>
	<path clip-path="url(#SVGID_5_)" fill="#3A332A" d="M328.69,180.749c0,1.424,1.154,2.578,2.578,2.578
		c1.424,0,2.579-1.154,2.579-2.578s-1.155-2.578-2.579-2.578C329.844,178.171,328.69,179.325,328.69,180.749"/>
	<path clip-path="url(#SVGID_5_)" fill="#FFFFFF" d="M327.728,180.749c0,0.532,0.431,0.963,0.963,0.963
		c0.531,0,0.962-0.431,0.962-0.963c0-0.532-0.431-0.963-0.962-0.963C328.159,179.786,327.728,180.217,327.728,180.749"/>
	<path clip-path="url(#SVGID_5_)" fill="#433015" d="M320.027,180.246c0.672-0.89,1.28-1.853,2.074-2.629
		c0.758-0.77,1.604-1.419,2.512-1.934c3.61-2.087,8.169-2.012,11.662,0.269c1.973,1.261,3.714,3.336,4.482,5.669
		c0.192-2.712-1.257-5.357-3.367-7.159C331.415,169.376,321.494,172.332,320.027,180.246"/>
	<path clip-path="url(#SVGID_5_)" fill="#433015" d="M321.764,176.61c-1.263-0.364-2.475-1.141-3.18-2.277
		c0.424,0.958,1.187,1.735,2.061,2.302c0.3,0.193,0.599,0.362,0.947,0.509L321.764,176.61z"/>
	<path clip-path="url(#SVGID_5_)" fill="#433015" d="M321,177.852c-1.064-0.026-2.283-0.266-2.984-1.147
		c0.421,0.779,1.264,1.223,2.079,1.492c0.283,0.09,0.558,0.165,0.867,0.215L321,177.852z"/>
	<path clip-path="url(#SVGID_5_)" fill="#433015" d="M320.275,179.091c-0.572,0.122-1.232,0.091-1.763-0.189
		c-0.186-0.094-0.346-0.232-0.496-0.387c0.332,0.591,0.982,0.934,1.635,1.062c0.227,0.045,0.443,0.074,0.696,0.072L320.275,179.091z
		"/>
	<path clip-path="url(#SVGID_5_)" fill="#23AEB5" d="M404.023,412.795c2.146-0.286,4.804-0.443,7.825-0.183
		c4.734,0.408,8.553,1.688,11.184,2.821c1.421-6.143,9.662-53.587,9.404-64.903c0.48-15.455-0.849-20.573-2.004-21.844
		c-3.185-3.498-7.394-4.78-9.188-5.111c-6.463-1.195-11.846,3.498-12.503,4.076c-7.354,6.464-4.515,18.836-3.864,26.43
		C406.036,367.586,405.348,386.855,404.023,412.795"/>
	<path clip-path="url(#SVGID_5_)" fill="#003399" d="M420.258,500.006c-0.924,0.325-1.848,0.648-2.772,0.957
		c-0.024-0.008-0.041-0.017-0.065-0.025c1.057-1.923,2.072-3.845,3.046-5.768c0.058,0.482,0.125,0.957,0.192,1.432
		C420.824,497.783,420.666,498.957,420.258,500.006"/>
	<path clip-path="url(#SVGID_5_)" fill="#003399" d="M420.308,494.021c-2.081-0.898-4.129-1.831-6.143-2.797
		c0.017-0.024,0.024-0.041,0.032-0.065c1.823-0.608,3.646-1.249,5.452-1.915C419.866,490.841,420.083,492.439,420.308,494.021"/>
	<path clip-path="url(#SVGID_5_)" fill="#003399" d="M410.635,497.728c-0.006,0.01-0.012,0.021-0.019,0.031
		c-0.011-0.006-0.021-0.011-0.032-0.017c-1.228,2.159-2.504,4.308-3.829,6.444c0.021,0.011,0.042,0.021,0.063,0.032
		c3.576-0.986,7.133-2.071,10.665-3.256c-0.021-0.01-0.043-0.02-0.064-0.028C415.119,499.903,412.857,498.834,410.635,497.728"/>
	<path clip-path="url(#SVGID_5_)" fill="#003399" d="M410.584,497.742c0.011,0.006,0.022,0.012,0.033,0.017
		c0.005-0.01,0.011-0.021,0.018-0.031c1.227-2.16,2.404-4.329,3.532-6.507c0.01-0.021,0.021-0.041,0.032-0.063
		c-3.356,1.124-6.734,2.155-10.131,3.094c-0.013,0.02-0.024,0.04-0.035,0.06C406.177,495.49,408.361,496.636,410.584,497.742"/>
	<path clip-path="url(#SVGID_5_)" fill="#003399" d="M400.174,500.613c-0.007,0.01-0.013,0.02-0.02,0.03
		c-0.01-0.006-0.021-0.012-0.031-0.018c-1.336,2.088-2.72,4.163-4.152,6.223c0.021,0.012,0.041,0.025,0.061,0.037
		c3.613-0.791,7.21-1.68,10.787-2.667c-0.021-0.011-0.042-0.021-0.063-0.032C404.522,503.031,402.328,501.839,400.174,500.613"/>
	<path clip-path="url(#SVGID_5_)" fill="#003399" d="M400.123,500.625c0.01,0.007,0.021,0.013,0.031,0.019
		c0.007-0.01,0.013-0.021,0.02-0.031c1.335-2.088,2.621-4.188,3.858-6.301c0.012-0.021,0.024-0.04,0.036-0.061
		c-3.398,0.938-6.815,1.782-10.246,2.533c-0.013,0.02-0.026,0.038-0.039,0.059C395.856,498.137,397.969,499.398,400.123,500.625"/>
	<path clip-path="url(#SVGID_5_)" fill="#003399" d="M389.607,502.924c-0.007,0.01-0.014,0.02-0.021,0.028
		c-0.011-0.006-0.021-0.013-0.031-0.019c-1.44,2.012-2.929,4.009-4.466,5.989c0.019,0.013,0.039,0.025,0.059,0.039
		c3.641-0.594,7.271-1.286,10.883-2.076c-0.02-0.013-0.041-0.024-0.061-0.036C393.809,505.574,391.688,504.265,389.607,502.924"/>
	<path clip-path="url(#SVGID_5_)" fill="#003399" d="M389.556,502.934c0.011,0.007,0.021,0.013,0.03,0.02
		c0.007-0.01,0.014-0.02,0.022-0.03c1.439-2.012,2.832-4.04,4.176-6.08c0.012-0.021,0.024-0.039,0.038-0.059
		c-3.433,0.751-6.879,1.408-10.338,1.972c-0.015,0.02-0.028,0.037-0.041,0.057C385.439,500.218,387.477,501.592,389.556,502.934"/>
	<path clip-path="url(#SVGID_5_)" fill="#003399" d="M378.958,504.659c-0.008,0.009-0.015,0.019-0.022,0.028
		c-0.009-0.008-0.02-0.015-0.029-0.021c-1.543,1.931-3.133,3.845-4.771,5.74c0.019,0.014,0.038,0.028,0.057,0.043
		c3.662-0.398,7.315-0.894,10.956-1.487c-0.021-0.013-0.039-0.025-0.059-0.04C383.003,507.532,380.959,506.11,378.958,504.659"/>
	<path clip-path="url(#SVGID_5_)" fill="#003399" d="M378.906,504.666c0.011,0.007,0.021,0.014,0.029,0.021
		c0.008-0.01,0.015-0.02,0.023-0.028c1.542-1.932,3.037-3.881,4.483-5.847c0.015-0.019,0.028-0.037,0.041-0.057
		c-3.458,0.564-6.929,1.035-10.407,1.413c-0.014,0.018-0.028,0.035-0.044,0.053C374.947,501.732,376.905,503.214,378.906,504.666"/>
	<path clip-path="url(#SVGID_5_)" fill="#003399" d="M368.25,505.819c-0.008,0.01-0.016,0.019-0.023,0.027
		c-0.01-0.007-0.02-0.015-0.028-0.022c-1.642,1.846-3.33,3.672-5.065,5.476c0.019,0.015,0.036,0.031,0.056,0.046
		c3.673-0.201,7.343-0.5,11.004-0.896c-0.02-0.015-0.038-0.028-0.058-0.044C372.13,508.905,370.168,507.377,368.25,505.819"/>
	<path clip-path="url(#SVGID_5_)" fill="#003399" d="M368.198,505.824c0.009,0.008,0.019,0.015,0.027,0.022
		c0.009-0.009,0.017-0.018,0.024-0.026c1.641-1.848,3.236-3.713,4.783-5.599c0.015-0.018,0.028-0.034,0.044-0.053
		c-3.479,0.377-6.964,0.661-10.453,0.853c-0.016,0.017-0.031,0.033-0.047,0.051C364.406,502.682,366.28,504.267,368.198,505.824"/>
	<path clip-path="url(#SVGID_5_)" fill="#003399" d="M357.506,506.405c-0.008,0.009-0.017,0.018-0.025,0.026
		c-0.009-0.008-0.018-0.017-0.027-0.025c-1.737,1.756-3.52,3.489-5.348,5.198c0.018,0.016,0.035,0.032,0.052,0.048
		c3.678-0.004,7.356-0.105,11.03-0.307c-0.02-0.016-0.037-0.03-0.056-0.045C361.213,509.694,359.337,508.063,357.506,506.405"/>
	<path clip-path="url(#SVGID_5_)" fill="#003399" d="M357.454,506.407c0.009,0.008,0.018,0.016,0.027,0.023
		c0.008-0.008,0.017-0.017,0.025-0.024c1.737-1.758,3.427-3.535,5.071-5.334c0.015-0.018,0.031-0.034,0.047-0.052
		c-3.49,0.19-6.983,0.288-10.477,0.292c-0.016,0.017-0.033,0.032-0.049,0.048C353.838,503.066,355.623,504.749,357.454,506.407"/>
	<path clip-path="url(#SVGID_5_)" fill="#003399" d="M346.75,506.416c-0.009,0.008-0.018,0.016-0.027,0.024
		c-0.008-0.009-0.017-0.018-0.025-0.025c-1.828,1.66-3.701,3.295-5.619,4.904c0.017,0.017,0.033,0.033,0.05,0.051
		c3.674,0.192,7.351,0.287,11.029,0.283c-0.017-0.017-0.034-0.033-0.052-0.05C350.275,509.899,348.49,508.169,346.75,506.416"/>
	<path clip-path="url(#SVGID_5_)" fill="#003399" d="M346.698,506.415c0.009,0.009,0.017,0.017,0.026,0.025
		c0.008-0.008,0.017-0.017,0.026-0.024c1.828-1.66,3.611-3.347,5.348-5.056c0.016-0.016,0.033-0.032,0.049-0.048
		c-3.493,0.004-6.987-0.086-10.477-0.269c-0.017,0.016-0.034,0.03-0.052,0.046C343.265,502.886,344.959,504.662,346.698,506.415"/>
	<path clip-path="url(#SVGID_5_)" fill="#003399" d="M336.005,505.852c-0.009,0.008-0.019,0.015-0.028,0.023
		c-0.008-0.01-0.016-0.019-0.024-0.027c-1.916,1.56-3.875,3.093-5.877,4.596c0.015,0.019,0.031,0.036,0.046,0.054
		c3.662,0.39,7.332,0.681,11.006,0.872c-0.016-0.017-0.032-0.033-0.049-0.051C339.341,509.518,337.65,507.694,336.005,505.852"/>
	<path clip-path="url(#SVGID_5_)" fill="#003399" d="M335.953,505.848c0.008,0.009,0.016,0.018,0.024,0.026
		c0.009-0.008,0.019-0.015,0.028-0.022c1.915-1.561,3.786-3.148,5.613-4.762c0.017-0.016,0.034-0.03,0.052-0.045
		c-3.49-0.184-6.976-0.461-10.455-0.829c-0.018,0.014-0.036,0.027-0.054,0.043C332.711,502.141,334.309,504.004,335.953,505.848"/>
	<path clip-path="url(#SVGID_5_)" fill="#003399" d="M325.295,504.712c-0.01,0.007-0.02,0.015-0.029,0.021
		c-0.008-0.009-0.015-0.02-0.023-0.028c-1.998,1.455-4.04,2.88-6.123,4.274c0.015,0.019,0.029,0.036,0.044,0.056
		c3.642,0.586,7.296,1.073,10.958,1.462c-0.015-0.018-0.031-0.035-0.046-0.053C328.435,508.552,326.841,506.641,325.295,504.712"/>
	<path clip-path="url(#SVGID_5_)" fill="#003399" d="M325.243,504.705c0.008,0.009,0.015,0.02,0.023,0.028
		c0.009-0.007,0.019-0.015,0.029-0.021c1.998-1.456,3.954-2.94,5.866-4.454c0.018-0.014,0.036-0.028,0.054-0.043
		c-3.479-0.369-6.95-0.833-10.409-1.389c-0.019,0.013-0.038,0.027-0.057,0.04C322.199,500.829,323.697,502.776,325.243,504.705"/>
	<path clip-path="url(#SVGID_5_)" fill="#003399" d="M314.644,502.998c-0.01,0.007-0.02,0.013-0.03,0.02
		c-0.008-0.01-0.015-0.02-0.022-0.03c-2.077,1.346-4.196,2.658-6.355,3.938c0.013,0.02,0.027,0.039,0.041,0.059
		c3.614,0.782,7.244,1.466,10.886,2.052c-0.014-0.019-0.029-0.037-0.043-0.057C317.58,507.002,316.087,505.008,314.644,502.998"/>
	<path clip-path="url(#SVGID_5_)" fill="#003399" d="M314.592,502.988c0.007,0.01,0.014,0.02,0.021,0.028
		c0.01-0.006,0.02-0.013,0.031-0.019c2.076-1.346,4.112-2.725,6.105-4.132c0.019-0.014,0.038-0.026,0.057-0.04
		c-3.46-0.557-6.908-1.206-10.341-1.949c-0.02,0.012-0.039,0.025-0.059,0.037C311.753,498.953,313.148,500.978,314.592,502.988"/>
	<path clip-path="url(#SVGID_5_)" fill="#003399" d="M304.074,500.708c-0.01,0.006-0.021,0.013-0.031,0.019
		c-0.007-0.011-0.014-0.021-0.02-0.031c-2.152,1.23-4.343,2.426-6.574,3.586c0.013,0.02,0.025,0.04,0.038,0.06
		c3.578,0.979,7.176,1.86,10.791,2.643c-0.014-0.021-0.028-0.039-0.041-0.06C306.801,504.866,305.413,502.794,304.074,500.708"/>
	<path clip-path="url(#SVGID_5_)" fill="#003399" d="M304.022,500.695c0.007,0.011,0.013,0.021,0.02,0.031
		c0.01-0.006,0.021-0.013,0.031-0.018c2.151-1.231,4.262-2.497,6.333-3.795c0.019-0.013,0.039-0.025,0.058-0.037
		c-3.433-0.743-6.851-1.579-10.25-2.51c-0.02,0.012-0.041,0.022-0.061,0.033C301.395,496.511,302.685,498.609,304.022,500.695"/>
	<path clip-path="url(#SVGID_5_)" fill="#003399" d="M297.482,504.342c-3.513-0.966-7.009-2.022-10.488-3.171
		c-0.058-0.017-0.125-0.042-0.183-0.059c-0.008-0.025-0.017-0.041-0.033-0.066c0.05-0.024,0.108-0.05,0.158-0.074
		c2.247-1.008,4.453-2.057,6.625-3.147c0,0.018,0.009,0.026,0.017,0.034c0.008,0,0.017-0.008,0.033-0.017
		c1.224,2.155,2.506,4.304,3.838,6.442C297.458,504.301,297.475,504.317,297.482,504.342"/>
	<path clip-path="url(#SVGID_5_)" fill="#003399" d="M293.558,497.828c0.006,0.011,0.012,0.021,0.018,0.032
		c0.011-0.006,0.022-0.011,0.033-0.017c2.22-1.111,4.402-2.26,6.544-3.442c0.021-0.012,0.041-0.022,0.061-0.034
		c-3.399-0.93-6.779-1.953-10.136-3.069c-0.021,0.01-0.042,0.02-0.063,0.029C291.147,493.505,292.328,495.672,293.558,497.828"/>
	<path clip-path="url(#SVGID_5_)" fill="#003399" d="M290.074,491.299c-0.017,0.008-0.042,0.018-0.058,0.025
		c-0.708,0.341-1.415,0.674-2.131,1.007c0.083-0.549,0.175-1.115,0.266-1.69C288.792,490.866,289.433,491.083,290.074,491.299"/>
	<polygon clip-path="url(#SVGID_5_)" fill-rule="evenodd" clip-rule="evenodd" fill="#6F8FA3" points="453.797,675.778 
		453.539,676.024 447.667,681.628 441.396,674.673 436.898,669.681 432.548,664.854 432.547,664.854 353.496,577.147 
		347.795,570.822 232.056,442.415 238.186,436.565 353.496,564.498 359.197,570.822 443.949,664.854 448.3,669.681 452.8,674.673 
		453.539,675.493 	"/>
	<polygon clip-path="url(#SVGID_5_)" fill-rule="evenodd" clip-rule="evenodd" fill="#426276" points="354.794,565.938 
		362.076,574.018 356.392,580.361 349.109,572.281 	"/>
	<polygon clip-path="url(#SVGID_5_)" fill-rule="evenodd" clip-rule="evenodd" fill="#6F8FA3" points="474.937,442.414 
		359.197,570.823 353.496,577.148 274.445,664.854 274.444,664.854 270.094,669.681 265.594,674.672 259.325,681.628 
		253.526,676.096 253.195,675.778 253.526,675.412 254.192,674.672 258.692,669.681 263.043,664.854 347.795,570.823 
		353.496,564.498 468.807,436.566 	"/>
	<polygon clip-path="url(#SVGID_5_)" fill-rule="evenodd" clip-rule="evenodd" fill="#426276" points="274.446,664.854 
		270.095,669.681 265.595,674.673 254.192,674.673 258.692,669.681 263.043,664.854 	"/>
	<polygon clip-path="url(#SVGID_5_)" fill-rule="evenodd" clip-rule="evenodd" fill="#426276" points="452.8,674.673 
		441.397,674.673 436.897,669.681 432.547,664.854 443.948,664.854 448.3,669.681 	"/>
	
		<rect x="199.282" y="438.764" clip-path="url(#SVGID_5_)" fill-rule="evenodd" clip-rule="evenodd" fill="#426276" width="306.881" height="8.378"/>
	<path clip-path="url(#SVGID_5_)" fill-rule="evenodd" clip-rule="evenodd" fill="#5D65B2" d="M188.87,425.017h328.096
		c3.601,0,6.546,2.946,6.546,6.547v3.928c0,3.6-2.945,6.546-6.546,6.546H188.87c-3.6,0-6.546-2.946-6.546-6.546v-3.928
		C182.324,427.963,185.27,425.017,188.87,425.017"/>
	<polygon clip-path="url(#SVGID_5_)" fill-rule="evenodd" clip-rule="evenodd" fill="#979DFF" points="462.271,425.017 
		491.129,425.017 491.129,442.037 465.674,442.037 	"/>
	<polygon clip-path="url(#SVGID_5_)" fill-rule="evenodd" clip-rule="evenodd" fill="#979DFF" points="448.811,425.017 
		457.761,425.017 457.761,442.037 446.972,442.037 	"/>
	<polygon clip-path="url(#SVGID_5_)" fill-rule="evenodd" clip-rule="evenodd" fill="#979DFF" points="430.329,425.017 
		442.058,425.017 442.058,442.037 432.168,442.037 	"/>
	<polygon clip-path="url(#SVGID_5_)" fill-rule="evenodd" clip-rule="evenodd" fill="#979DFF" points="413.503,425.017 
		422.43,425.017 422.43,442.037 411.664,442.037 	"/>
	<polygon clip-path="url(#SVGID_5_)" fill-rule="evenodd" clip-rule="evenodd" fill="#979DFF" points="317.773,425.017 
		330.266,425.017 333.549,442.037 317.661,442.037 	"/>
	<polygon clip-path="url(#SVGID_5_)" fill-rule="evenodd" clip-rule="evenodd" fill="#979DFF" points="344.488,425.017 
		357.927,425.017 355.854,442.037 344.488,442.037 	"/>
	<polygon clip-path="url(#SVGID_5_)" fill-rule="evenodd" clip-rule="evenodd" fill="#979DFF" points="364.197,425.017 
		376.712,425.017 378.784,442.037 364.197,442.037 	"/>
	<polygon clip-path="url(#SVGID_5_)" fill-rule="evenodd" clip-rule="evenodd" fill="#979DFF" points="388.833,425.017 
		402.243,425.017 400.171,442.037 388.833,442.037 	"/>
	<polygon clip-path="url(#SVGID_5_)" fill-rule="evenodd" clip-rule="evenodd" fill="#979DFF" points="218.436,425.017 
		234.828,425.017 231.546,442.037 218.548,442.037 	"/>
	<polygon clip-path="url(#SVGID_5_)" fill-rule="evenodd" clip-rule="evenodd" fill="#979DFF" points="245.279,425.017 
		256.337,425.017 258.41,442.037 245.279,442.037 	"/>
	<polygon clip-path="url(#SVGID_5_)" fill-rule="evenodd" clip-rule="evenodd" fill="#979DFF" points="264.988,425.017 
		279.884,425.017 277.811,442.037 264.988,442.037 	"/>
	<polygon clip-path="url(#SVGID_5_)" fill-rule="evenodd" clip-rule="evenodd" fill="#979DFF" points="289.624,425.017 
		300.654,425.017 302.726,442.037 289.624,442.037 	"/>
	<polygon clip-path="url(#SVGID_5_)" fill-rule="evenodd" clip-rule="evenodd" fill="#222B56" points="453.539,675.492 
		453.539,676.024 447.667,681.629 441.397,674.673 436.897,669.681 448.3,669.681 452.8,674.673 	"/>
	<polygon clip-path="url(#SVGID_5_)" fill-rule="evenodd" clip-rule="evenodd" fill="#222B56" points="270.094,669.681 
		265.594,674.672 259.325,681.628 253.526,676.096 253.526,675.412 254.192,674.672 258.692,669.681 	"/>
	<path clip-path="url(#SVGID_5_)" fill-rule="evenodd" clip-rule="evenodd" fill="#222B56" d="M353.279,567.724
		c1.357,0,2.458,1.246,2.458,2.782c0,1.537-1.101,2.782-2.458,2.782c-1.357,0-2.458-1.245-2.458-2.782
		C350.821,568.97,351.922,567.724,353.279,567.724"/>
	<path clip-path="url(#SVGID_5_)" fill-rule="evenodd" clip-rule="evenodd" fill="#222B56" d="M353.873,386.436
		c-0.77,0.716-0.809,2.346-0.614,3.52c0.195,1.174,0.623,1.892,1.624,2.302c1.001,0.409,2.575,0.509,3.916,0.561
		c1.342,0.051,2.451,0.053,3.131-0.125c0.681-0.179,0.932-0.537,0.897-1.336c-0.035-0.799-0.355-2.038-1.266-2.985
		c-0.91-0.947-2.412-1.602-3.914-2.028C356.146,385.918,354.643,385.72,353.873,386.436"/>
	<path clip-path="url(#SVGID_5_)" fill-rule="evenodd" clip-rule="evenodd" fill="#222B56" d="M343.007,406.516
		c0.931-0.487,1.004-1.433,0.97-2.134c-0.035-0.701-0.177-1.158-0.964-1.485c-0.786-0.327-2.217-0.525-3.916-0.675
		c-1.699-0.15-3.667-0.251-5.116-0.253c-1.449-0.003-2.379,0.093-2.987,0.255c-0.609,0.162-0.895,0.39-1.04,1.042
		c-0.144,0.652-0.146,1.729-0.057,2.396c0.088,0.669,0.266,0.93,1.715,1.096c1.449,0.165,4.167,0.235,6.421,0.255
		C340.287,407.033,342.076,407.004,343.007,406.516"/>
	
		<rect x="312.123" y="420.721" transform="matrix(1 0.0017 -0.0017 1 0.7205 -0.5903)" clip-path="url(#SVGID_5_)" fill-rule="evenodd" clip-rule="evenodd" fill="#426276" width="68.716" height="2.959"/>
	<path clip-path="url(#SVGID_5_)" fill-rule="evenodd" clip-rule="evenodd" fill="#ACDAF7" d="M310.551,420.84
		c-0.053-0.261-0.123-0.783-0.373-1.419c-0.249-0.637-0.677-1.387-1.427-2.253c-0.75-0.865-1.821-1.845-2.947-2.695
		c-1.125-0.849-2.305-1.567-3.181-1.961c-0.875-0.393-1.448-0.459-1.734-0.541s-0.286-0.18-0.348-5.689
		c-0.062-5.511-0.187-16.434-0.213-21.862c-0.027-5.429,0.045-5.364,0.081-5.69c0.036-0.326,0.038-1.043,0.039-1.76
		c1.753-0.03,3.506-0.06,5.259-0.089c0.321,0.718,0.641,1.436,0.962,2.153c4.257,0.073,8.515,0.145,13.38,0.463
		c4.864,0.318,10.337,0.882,15.434,1.803c5.096,0.922,9.816,2.202,14.518,4.182c4.701,1.981,9.383,4.662,13.17,7.522
		c3.787,2.859,6.681,5.896,9.43,9.618c2.747,3.721,5.352,8.128,7.046,11.407c1.693,3.279,2.477,5.433,2.814,6.51
		c0.338,1.076,0.231,1.076-11.808,0.99c-12.038-0.085-36.007-0.257-48.01-0.343C310.64,421.101,310.605,421.1,310.551,420.84
		 M314.807,390.247c-0.824,0.863-1.22,1.873-1.382,2.981c-0.163,1.108-0.094,2.315,0.333,3.538c0.428,1.224,1.213,2.464,2.409,3.542
		c1.197,1.078,2.805,1.994,4.968,2.731c2.164,0.737,4.882,1.296,7.457,1.708c2.575,0.412,5.007,0.677,7.565,0.828
		c2.558,0.15,5.241,0.188,7.406,0.028c2.164-0.159,3.81-0.515,4.992-1.165s1.899-1.595,1.884-3.225
		c-0.015-1.63-0.763-3.947-2.441-5.873c-1.678-1.927-4.287-3.464-7.773-4.611s-7.85-1.904-11.677-2.302
		c-3.827-0.398-7.119-0.436-9.391-0.097C316.885,388.669,315.631,389.384,314.807,390.247"/>
	<path clip-path="url(#SVGID_5_)" fill-rule="evenodd" clip-rule="evenodd" fill="#5CA4D1" d="M350.413,400.711
		c1.492,0.658,2.564,1.352,4.013,1.927c1.609,0.639,3.684,1.131,6.222,1.592c2.539,0.461,5.544,0.89,7.993,1.774
		s4.344,2.225,5.307,3.611c0.964,1.389,0.996,2.822,0.548,4.013c-0.449,1.188-1.381,2.133-4.28,2.715
		c-2.898,0.582-7.764,0.802-13.524,0.759c-5.76-0.042-12.414-0.347-18.87-1.01s-12.716-1.685-18.205-2.934
		c-5.489-1.248-10.209-2.723-12.855-3.624c-2.646-0.9-3.218-1.228-3.522-1.44c-0.303-0.212-0.339-0.311-0.354-2.218
		c-0.014-1.907-0.008-5.625,0.299-7.482c0.308-1.858,0.916-1.857,2.418-1.919c1.503-0.063,3.9-0.189,5.689-0.268
		c0.823-0.036,1.517-0.062,2.283-0.054c0.052,0.204,0.113,0.408,0.185,0.613c0.427,1.223,1.212,2.463,2.409,3.541
		c1.196,1.078,2.805,1.994,4.968,2.73c2.163,0.738,4.881,1.297,7.456,1.708c2.575,0.412,5.008,0.678,7.565,0.828
		c2.558,0.151,5.241,0.189,7.406,0.029c2.165-0.159,3.811-0.515,4.993-1.165c1.181-0.65,1.898-1.595,1.883-3.225
		C350.438,401.053,350.429,400.884,350.413,400.711"/>
	
		<rect x="309.143" y="422.801" transform="matrix(1 0.0017 -0.0017 1 0.7196 -0.5883)" clip-path="url(#SVGID_5_)" fill-rule="evenodd" clip-rule="evenodd" fill="#AEC2CF" width="75.987" height="2.151"/>
	<path clip-path="url(#SVGID_5_)" fill-rule="evenodd" clip-rule="evenodd" fill="#5CA4D1" d="M402.998,415.354h93.979
		c1.975,0,3.591,1.616,3.591,3.591v2.054c0,1.976-1.616,3.592-3.591,3.592h-93.979c-1.975,0-3.592-1.616-3.592-3.592v-2.054
		C399.406,416.971,401.023,415.354,402.998,415.354"/>
	<path clip-path="url(#SVGID_5_)" fill-rule="evenodd" clip-rule="evenodd" fill="#171E3A" d="M402.998,406.119h104.984
		c1.975,0,3.591,1.616,3.591,3.592v2.052c0,1.977-1.616,3.593-3.591,3.593H402.998c-1.975,0-3.592-1.616-3.592-3.593v-2.052
		C399.406,407.735,401.023,406.119,402.998,406.119"/>
	<path clip-path="url(#SVGID_5_)" fill-rule="evenodd" clip-rule="evenodd" fill="#444EAD" d="M402.998,396.883h96.519
		c1.976,0,3.592,1.616,3.592,3.592v2.052c0,1.976-1.616,3.592-3.592,3.592h-96.519c-1.975,0-3.592-1.616-3.592-3.592v-2.052
		C399.406,398.5,401.023,396.883,402.998,396.883"/>
	<path clip-path="url(#SVGID_5_)" fill-rule="evenodd" clip-rule="evenodd" fill="#5DA333" d="M399.612,387.647h96.518
		c1.976,0,3.592,1.616,3.592,3.591v2.053c0,1.976-1.616,3.592-3.592,3.592h-96.518c-1.976,0-3.593-1.616-3.593-3.592v-2.053
		C396.02,389.264,397.637,387.647,399.612,387.647"/>
	<path clip-path="url(#SVGID_5_)" fill-rule="evenodd" clip-rule="evenodd" fill="#AD2C5D" d="M430.526,386.016l65.377-0.199
		c4.662-0.014,6.009,8.118,0.792,9.875c-0.499,0.168-0.961,0.486-1.22,1.167c-0.902,2.368,0.951,4.742-0.164,7.198
		c-0.196,0.43-2.039,1.184-2.346,1.826c-0.938,1.965-0.13,7.306-3.072,7.585c-0.953,0.091-1.595,0.619-1.819,1.081
		c-0.324,0.665-0.556,1.308-0.761,1.895c-0.304,0.872,2.188,3.853-4.739,3.157c-3.456-0.348-7.624-2.164-9.118-6.122
		c-0.883-2.339-0.914-10.907-3.292-13.9c-5.899-7.422-26.329-8.64-36.402-10.319c-2.855-0.476-5.553-0.957-7.283-1.445
		c-2.313-0.653-3.751-3.547-1.303-3.816C426.136,383.894,428.485,386.021,430.526,386.016"/>
	<path clip-path="url(#SVGID_5_)" fill-rule="evenodd" clip-rule="evenodd" fill="#AD2C5D" d="M426.969,380.432h67.836
		c1.773,0,3.224,1.451,3.224,3.224v1.842c0,1.774-1.45,3.224-3.224,3.224h-67.836c-1.773,0-3.225-1.45-3.225-3.224v-1.842
		C423.744,381.883,425.195,380.432,426.969,380.432"/>
	<path clip-path="url(#SVGID_5_)" fill="#E2C294" d="M338.624,390.994c0,0-2.277,3.876-5.833,1.153c0,0-2.674,1.899-5.338,0.242
		c0,0-2.2,1.541-4.806,0c0,0-1.482,1.008-3.139-0.891c-1.667-1.899-4.098-8.914-3.982-10.736c0.068-1.094,0.416-2.79,0.688-3.972
		c0.174-0.794,0.319-1.366,0.319-1.366l-7.615-6.589l12.004-3.914l3.626,4.465c1.233,1.518,2.717,2.812,4.389,3.825l4.877,2.957
		l-0.868,1.01l3.149,3.788C336.095,380.966,333.373,387.525,338.624,390.994"/>
	<path clip-path="url(#SVGID_5_)" fill="#B59B76" d="M316.533,375.424l-6.606-4.625l12.467-4.065l3.345,3.986
		c-1.11,0.222-1.998,0.493-3.548,1.305C319.626,373.367,317.417,374.279,316.533,375.424"/>
	<path clip-path="url(#SVGID_5_)" fill="#00828F" d="M323.798,368.462l1.952-0.885c-0.071,0.27-0.202,0.644-0.452,1.043
		c-0.223,0.353-0.467,0.612-0.66,0.787C324.421,369.202,324.199,368.966,323.798,368.462"/>
	<path clip-path="url(#SVGID_5_)" fill="#00828F" d="M315.188,374.425l-1.917,2.522c1.292-0.093,2.917-1.369,3.262-1.524
		C316.185,375.152,315.188,374.425,315.188,374.425"/>
	<path clip-path="url(#SVGID_5_)" fill="#E2C294" d="M335.897,381.938l-4.034-6.004c0,0,2.662-0.201,5.628,2.004
		c2.966,2.206,6.527,5.882,6.527,5.882S339.916,382.498,335.897,381.938"/>
	<path clip-path="url(#SVGID_5_)" fill="#23AEB5" d="M325.762,367.611c-0.476,0.184-0.986,0.401-1.529,0.652
		c-1.929,0.877-4.227,2.18-6.541,4.11c-1.896,1.57-3.341,3.183-4.419,4.578c-0.367-0.226-0.702-0.435-1.438-0.902
		c-0.315-0.201-0.553-0.351-0.632-0.401c-0.022-0.013-0.027-0.016-0.028-0.017c-14.477-9.143-29.115-30.488-29.115-30.488
		c-1.922-2.803-4.595-6.872-7.541-11.986c0.526-0.776,8.754-12.548,19.706-11.2c1.548,0.19,3.562,0.694,5.798,1.98
		C308.603,338.495,317.183,353.053,325.762,367.611"/>
	<path clip-path="url(#SVGID_5_)" fill="#B59B76" d="M332.792,392.51c-0.104,0-0.208-0.044-0.28-0.132
		c-0.069-0.083-1.708-2.098-2.069-6.03c-0.019-0.199,0.128-0.376,0.328-0.394c0.215-0.013,0.377,0.13,0.395,0.328
		c0.339,3.69,1.891,5.614,1.906,5.633c0.128,0.155,0.106,0.384-0.049,0.512C332.956,392.483,332.873,392.51,332.792,392.51"/>
	<path clip-path="url(#SVGID_5_)" fill="#B59B76" d="M327.452,392.752c-0.127,0-0.25-0.067-0.317-0.185
		c-0.087-0.156-2.129-3.832-2.067-6.92c0.003-0.198,0.165-0.356,0.363-0.356h0.008c0.2,0.004,0.359,0.171,0.355,0.371
		c-0.057,2.889,1.954,6.513,1.975,6.549c0.098,0.175,0.036,0.396-0.139,0.495C327.573,392.737,327.513,392.752,327.452,392.752"/>
	<path clip-path="url(#SVGID_5_)" fill="#B59B76" d="M322.646,392.752c-0.132,0-0.259-0.072-0.324-0.198
		c-0.068-0.133-1.672-3.305-1.582-6.25c0.007-0.2,0.163-0.324,0.375-0.352c0.201,0.006,0.358,0.174,0.352,0.375
		c-0.085,2.755,1.487,5.865,1.503,5.896c0.09,0.179,0.02,0.397-0.158,0.489C322.759,392.739,322.703,392.752,322.646,392.752"/>
	<path clip-path="url(#SVGID_5_)" fill="#23AEB5" d="M304.875,309.65c1.661-9.394,3.322-18.787,4.983-28.181
		c-0.204,9.429-0.408,18.858-0.612,28.286c-0.449-2.735-0.898-5.47-1.347-8.204C306.89,304.251,305.882,306.95,304.875,309.65"/>
	<path clip-path="url(#SVGID_5_)" fill="#BDDEEF" d="M179.382,615.602c-8.283-26.518-1.733-61.516,15.783-83.119
		c-1.658,12.543-5.371,29.17-7.664,41.6C184.729,588.006,182.805,601.583,179.382,615.602"/>
	<path clip-path="url(#SVGID_5_)" fill="#BDDEEF" d="M168.056,612.889c-3.783-15.738-6.728-30.955-11.579-46.148
		c-4.656-15.252-10.74-29.265-17.855-43.803c3.433,2.367,6.501,5.204,9.314,8.271C166.984,552.479,174.979,585.219,168.056,612.889"
		/>
	<path clip-path="url(#SVGID_5_)" fill="#99CCE0" d="M170.565,628.124c-1.288-23.839-0.981-57.56-1.207-81.657
		c0.056-24.127-0.532-57.853,0.615-81.666c6.803,26.383,9.193,54.047,9.406,81.61C179.342,573.977,177.152,601.66,170.565,628.124"
		/>
	<path clip-path="url(#SVGID_5_)" fill="#99CCE0" d="M189.669,647.819c-4.605,1.023-10.565,1.904-17.514,1.81
		c-6.032-0.082-11.267-0.878-15.458-1.81c-2.578-15.574-5.306-32.059-8.199-49.533h49.37L189.669,647.819z"/>
</g>
</svg>
