<?xml version="1.0" encoding="utf-8"?>
<!-- Generator: Adobe Illustrator 16.0.0, SVG Export Plug-In . SVG Version: 6.00 Build 0)  -->
<!DOCTYPE svg PUBLIC "-//W3C//DTD SVG 1.1//EN" "http://www.w3.org/Graphics/SVG/1.1/DTD/svg11.dtd">
<svg version="1.1" id="Layer_1" xmlns="http://www.w3.org/2000/svg" xmlns:xlink="http://www.w3.org/1999/xlink" x="0px" y="0px"
	 width="642px" height="598px" viewBox="0 0 642 598" enable-background="new 0 0 642 598" xml:space="preserve">
<g>
	<defs>
		<path id="SVGID_1_" d="M401.383,38.085c-69.425,5.229-78.145,81.273-150.128,91.915c-24.587,3.635-41.668-2.562-57.323-8.757
			c-18.64-7.378-35.26-14.755-60.124-5.541c-41.259,15.291-73.653,64.575-66.727,101.726c3.744,20.08,15.655,18.812,32.327,56.572
			c9.671,21.902,19.861,44.98,15.054,72.408c-5.048,28.802-21.4,49.166-21.4,49.166c-13.066,19.61-19.059,27.103-22.519,35.984
			c-1.291,3.311-2.34,6.724-3.097,11.473c-0.174,1.091-3.723,25.594,10.656,44.029c7.794,9.993,18.066,14.631,32.217,19.279
			c40.28,13.236,82.674,16.947,133.089,15.252c16.152-0.543,29.268-1.512,37.469-2.205c41.021-1.172,75.876-1.748,100.659-4.042
			c41.189-3.813,60.021-7.229,79.081-12.579c32.227-9.045,70.509-19.788,74.553-41.872c3.697-20.187-24.925-29.581-22.34-52.456
			c2.575-22.778,32.167-22.062,54-55.8c2.063-3.187,25.923-41.237,12.333-77.903c-6.289-16.969-18.254-27.311-30.857-38.204
			c-27.634-23.886-40.166-18.006-52.163-31.96c-27.407-31.876,20.096-83.386-2.938-126c-14.653-27.108-52.535-40.77-84.078-40.771
			C406.494,37.8,403.91,37.895,401.383,38.085"/>
	</defs>
	<clipPath id="SVGID_2_">
		<use xlink:href="#SVGID_1_"  overflow="visible"/>
	</clipPath>
	<rect x="9.74" y="21.745" clip-path="url(#SVGID_2_)" fill="#E3F4FF" width="633.19" height="531.063"/>
	<path clip-path="url(#SVGID_2_)" fill="#A04B2A" d="M149.383,156.809c16.936,78.894,33.872,157.787,50.808,236.681
		C189.128,469.234,178.064,544.979,167,620.724c6.809-1.532,13.617-3.064,20.425-4.596c10.894-72,21.788-144,32.681-216
		c36.766,58.894,73.532,117.786,110.298,176.681l18.383-15.319c-40-59.745-80-119.49-120-179.233
		c-20.085-76.085-40.17-152.17-60.255-228.256C162.149,154.937,155.766,155.873,149.383,156.809"/>
	<path clip-path="url(#SVGID_2_)" fill="#A04B2A" d="M105.668,193.132l121.854-19.084c34.979,153.61,51.753,230.598,50.317,230.938
		c-0.016,0.004-0.035-0.002-0.056-0.019l-116.436,38.057C153.98,405.979,116.686,237.741,105.668,193.132"/>
	<path clip-path="url(#SVGID_2_)" fill="#FFFFFF" d="M169.03,439.461c-8.928-41.396-18.142-83.295-27.391-124.552
		c-8.879-39.608-26.686-116.846-28.968-126.742l119.865-18.773c8.644,39.332,47.746,217.171,51.326,232.535L169.03,439.461z"/>
	<path clip-path="url(#SVGID_2_)" fill="#592819" d="M231.76,170.528c17.911,81.485,46.749,212.55,50.932,230.732l-93.697,30.624
		l-19.222,6.283c-8.846-41.01-17.98-82.539-27.157-123.477c-8.618-38.442-25.645-112.331-28.729-125.702L231.76,170.528z
		 M233.31,168.261l-121.854,19.084c0,0,19.649,85.144,29.208,127.783c9.38,41.84,18.587,83.717,27.622,125.629
		c38.919-12.72,77.837-25.441,116.756-38.161C284.568,401.466,233.31,168.261,233.31,168.261"/>
	<path clip-path="url(#SVGID_2_)" fill="#3C6828" d="M196.259,284.79c-0.395-0.727-0.753-1.487-0.905-2.3
		c-0.509-2.714,1.32-5.357,1.282-8.118c-0.008-0.58-0.099-1.17,0.028-1.737c0.127-0.567,0.551-1.125,1.131-1.168
		c0.356-0.027,0.695,0.142,1.013,0.307c0.899,0.466,1.876,1.02,2.201,1.979c0.335,0.986-0.138,2.055-0.116,3.096
		c0.056,2.689,3.233,4.348,3.782,6.98c0.382,1.828-0.589,3.627-1.089,5.426c-0.472,1.701-1.529,6.616-4.148,3.681
		c-0.773-0.866-0.521-2.622-0.859-3.706C198.086,287.645,197.045,286.235,196.259,284.79"/>
	<path clip-path="url(#SVGID_2_)" fill="#3C6828" d="M219.701,368.111c-5.189-3.938-7.572-10.475-9.567-16.833
		c-4.827-15.378-8.667-31.228-11.417-47.109c0.081-0.176,0.071-0.389-0.049-0.56c-0.025-0.036-0.046-0.075-0.068-0.113
		c-0.087-0.504-0.175-1.012-0.267-1.521c0.063-0.696,0.291-1.433,0.494-2.085c0.96-3.076,1.537-6.268,1.717-9.486
		c0.017-0.311-0.221-0.576-0.531-0.594c-0.311-0.017-0.577,0.221-0.594,0.531c-0.171,3.063-0.715,6.101-1.614,9.033
		c-0.276-1.185-0.61-2.359-1.051-3.498c-1.218-3.143-3.186-5.893-5.089-8.551c-1.15-1.607-2.339-3.268-3.71-4.76
		c-2.097-2.282-4.627-4.179-7.074-6.013c-3.512-2.634-6.83-5.121-9.037-8.674c-0.165-0.264-0.512-0.345-0.776-0.181
		c-0.264,0.165-0.345,0.512-0.181,0.776c2.32,3.732,5.878,6.4,9.319,8.98c2.405,1.804,4.893,3.669,6.919,5.874
		c1.325,1.442,2.494,3.074,3.624,4.653c1.863,2.602,3.789,5.292,4.955,8.302c0.328,0.847,0.595,1.722,0.823,2.61l-8.956-5.111
		c-1.718-0.981-3.495-1.994-4.793-3.481c-0.205-0.234-0.561-0.258-0.795-0.053c-0.235,0.204-0.258,0.56-0.053,0.794
		c1.423,1.629,3.367,2.739,5.083,3.718l9.864,5.629c0.116,0.549,0.222,1.101,0.323,1.652c-0.038,0.626,0.038,1.251,0.321,1.826
		l0.048,0.28c0.706,4.092,1.485,8.182,2.334,12.263c-0.291-0.433-0.587-0.831-0.864-1.175c-0.463-0.574-0.972-1.112-1.404-1.711
		c-0.572-0.793-0.997-1.68-1.49-2.523c-1.273-2.178-2.991-4.056-4.696-5.916c-0.406-0.443-0.821-0.893-1.344-1.19
		c-0.707-0.4-1.587-0.482-2.355-0.219c-0.177,0.061-0.353,0.143-0.476,0.284c-0.19,0.218-0.215,0.535-0.183,0.823
		c0.243,2.19,3.089,3.544,2.981,5.745c-0.035,0.713-0.396,1.391-0.362,2.104c0.045,0.939,0.751,1.699,1.431,2.349
		c2.271,2.176,4.864,4.228,7.951,4.826c0.558,0.109,1.148,0.179,1.636,0.455c2.318,10.574,5.103,21.069,8.331,31.354
		c2.05,6.532,4.508,13.256,9.961,17.393c0.248,0.188,0.601,0.14,0.789-0.107c0.01-0.014,0.02-0.026,0.028-0.04
		C219.992,368.615,219.936,368.289,219.701,368.111"/>
	<path clip-path="url(#SVGID_2_)" fill="#FFA41F" d="M171.346,275.372c-1.755,1.025-3.481,2.222-5.479,2.594
		c-1.998,0.372-4.393-0.376-5.151-2.262c-0.32-0.797-0.311-1.684-0.513-2.518c-0.375-1.555-1.446-2.829-2.289-4.189
		c-0.842-1.36-1.481-3.05-0.89-4.536c1.208-3.04,6.25-2.718,7.7-5.65c0.601-1.214,0.483-2.846,1.542-3.69
		c1.484-1.181,3.602,0.288,5.498,0.267c1.47-0.016,2.753-0.952,4.16-1.377c2.084-0.629,4.511-0.025,6.001,1.562
		c1.491,1.588,1.932,4.099,1.002,6.068c-0.425,0.9-1.101,1.673-1.457,2.602c-0.546,1.423-0.277,3.014-0.434,4.53
		C180.343,275.47,175.529,272.928,171.346,275.372"/>
	<path clip-path="url(#SVGID_2_)" fill="#2B0000" d="M170.577,262.613c-0.796,0.221-1.403,0.923-1.646,1.713l-0.218-0.072
		c-0.97,0.845-0.224,2.686,1.041,2.92c1.266,0.233,2.506-0.778,2.932-1.992c0.192-0.548,0.252-1.175,0-1.698
		C172.328,262.74,171.373,262.393,170.577,262.613"/>
	<path clip-path="url(#SVGID_2_)" fill="#FFA41F" d="M169.087,287.685c-1.398,1.005-2.011,3.224-0.844,4.49
		c0.575,0.624,1.457,0.914,1.989,1.576c0.631,0.787,0.62,1.889,0.872,2.866c0.374,1.452,1.45,2.743,2.871,3.221
		c1.421,0.479,3.144,0.047,4.057-1.143c0.305-0.399,0.518-0.865,0.849-1.244c0.908-1.041,2.439-1.18,3.79-1.471
		c1.351-0.29,2.875-1.083,2.963-2.463c0.043-0.671-0.283-1.321-0.264-1.994c0.024-0.881,0.621-1.623,1.097-2.365
		c1.414-2.198,1.779-5.436-0.138-7.212c-0.389-0.36-0.88-0.648-1.41-0.654c-1.301-0.013-2.005,1.518-3.123,2.184
		c-0.662,0.395-1.457,0.471-2.215,0.612c-2.085,0.386-3.465,1.812-5.325,2.43C172.539,287.09,170.73,286.503,169.087,287.685"/>
	<path clip-path="url(#SVGID_2_)" fill="#2B0000" d="M179.505,288.72c-0.761,0.108-1.371,0.663-1.929,1.191l0.28,0.229
		c-0.611-0.062-0.973,0.786-0.709,1.341c0.265,0.554,0.87,0.846,1.432,1.097c0.204,0.091,0.438,0.183,0.645,0.097
		c0.145-0.06,0.243-0.195,0.332-0.323c0.374-0.536,0.747-1.071,1.121-1.606c0.168-0.241,0.34-0.493,0.381-0.783
		C181.164,289.203,180.266,288.612,179.505,288.72"/>
	<path clip-path="url(#SVGID_2_)" fill="#3C6828" d="M226.928,305.652l-0.686-0.357c1.754-3.369,3.567-6.853,4.512-10.584
		c1.04-4.102,0.805-8.046-0.66-11.105c-0.963-2.012-2.503-3.803-3.992-5.535c-2.211-2.572-4.496-5.231-4.916-8.652
		c-0.471-3.845,1.563-7.333,3.529-10.705c2.012-3.452,3.913-6.711,3.394-10.332l0.765-0.11c0.557,3.887-1.501,7.417-3.491,10.831
		c-1.902,3.262-3.869,6.635-3.429,10.222c0.39,3.189,2.5,5.643,4.734,8.242c1.522,1.771,3.096,3.601,4.103,5.705
		c1.978,4.13,1.479,8.604,0.712,11.629C230.536,298.72,228.702,302.244,226.928,305.652"/>
	<path clip-path="url(#SVGID_2_)" fill="#3C6828" d="M221.357,270.087c-1.181-0.335-2.356-2.251-2.287-3.44
		c0.038-0.654,0.228-1.27,0.412-1.865c0.128-0.413,0.248-0.803,0.321-1.203c0.41-2.251-0.703-4.344-1.88-6.559
		c-1.113-2.094-2.264-4.259-2.069-6.626l0.77,0.063c-0.176,2.141,0.921,4.204,1.981,6.2c1.188,2.234,2.416,4.545,1.959,7.06
		c-0.081,0.445-0.214,0.876-0.343,1.293c-0.178,0.577-0.346,1.121-0.379,1.682c-0.049,0.85,1.033,2.589,1.823,2.671l-0.08,0.768
		C221.51,270.125,221.433,270.109,221.357,270.087"/>
	<path clip-path="url(#SVGID_2_)" fill="#3C6828" d="M223.545,274.555c-0.058-1.093-0.129-2.452,0.409-3.622
		c0.669-1.454,2.056-2.269,3.397-3.057c1.211-0.712,2.354-1.383,2.993-2.478c0.298-0.511,0.501-1.139,0.698-1.747
		c0.401-1.243,0.816-2.528,2.078-3.057l0.299,0.713c-0.935,0.392-1.278,1.456-1.642,2.582c-0.209,0.647-0.425,1.316-0.765,1.899
		c-0.741,1.269-2.026,2.024-3.269,2.754c-1.295,0.761-2.519,1.481-3.087,2.714c-0.458,0.997-0.396,2.198-0.339,3.258
		L223.545,274.555z"/>
	<path clip-path="url(#SVGID_2_)" fill="#FE8462" d="M212.515,247.237c0.453-0.514,1.279-0.404,1.923-0.169
		c0.644,0.234,1.339,0.554,1.985,0.323c0.455-0.163,0.778-0.571,1.205-0.797c0.738-0.389,1.697-0.153,2.311,0.412
		c0.614,0.564,0.927,1.393,1.053,2.217c0.135,0.881,0.018,1.911-0.695,2.444C218.365,253.11,210.522,249.497,212.515,247.237"/>
	<path clip-path="url(#SVGID_2_)" fill="#2B0000" d="M218.48,248.842c-0.176-0.358-0.676-0.364-1.072-0.318
		c-0.355,0.041-0.709,0.083-1.064,0.124c-0.135,0.016-0.276,0.033-0.39,0.107c-0.308,0.201-0.233,0.714,0.05,0.949
		c0.284,0.235,0.678,0.27,1.045,0.295l0.085-0.192c0.335,0.013,0.688,0.023,0.986-0.132
		C218.418,249.521,218.628,249.144,218.48,248.842"/>
	<path clip-path="url(#SVGID_2_)" fill="#FE8462" d="M220.668,253.314c-0.782,0.486-0.983,1.637-1.809,2.044
		c-0.33,0.162-0.717,0.181-1.039,0.356c-0.822,0.447-0.762,1.801-0.013,2.362c0.221,0.166,0.493,0.279,0.769,0.262
		c0.638-0.041,1.02-0.707,1.539-1.079c0.862-0.618,2.037-0.389,3.086-0.237c1.86,0.27,4.361-1.068,1.986-2.662
		C224.237,253.722,221.694,252.677,220.668,253.314"/>
	<path clip-path="url(#SVGID_2_)" fill="#2B0000" d="M223.351,255.567c-0.008-0.082-0.054-0.154-0.102-0.22
		c-0.32-0.431-0.858-0.691-1.395-0.674l-0.037,0.152c-0.261-0.033-0.511,0.101-0.741,0.231c-0.323,0.184-0.647,0.368-0.971,0.552
		c-0.11,0.063-0.233,0.144-0.245,0.27c-0.011,0.104,0.063,0.2,0.151,0.257c0.354,0.232,0.81-0.024,1.23-0.078
		c0.356-0.046,0.712,0.061,1.069,0.093c0.358,0.031,0.768-0.041,0.968-0.339C223.326,255.739,223.36,255.653,223.351,255.567"/>
	<path clip-path="url(#SVGID_2_)" fill="#FFA41F" d="M224.253,248.208c-0.305-0.51-0.509-1.18-0.188-1.68
		c0.359-0.559,1.171-0.594,1.811-0.415c0.64,0.179,1.261,0.51,1.924,0.466c0.923-0.062,1.743-0.848,2.656-0.695
		c0.545,0.091,0.972,0.499,1.403,0.844c0.677,0.542,1.456,0.982,1.984,1.67c0.528,0.688,0.722,1.749,0.139,2.391
		c-1.09,1.202-3.62,0.136-4.978-0.058C227.095,250.458,225.312,249.982,224.253,248.208"/>
	<path clip-path="url(#SVGID_2_)" fill="#2B0000" d="M231.306,249.375c0.032-0.328-0.31-0.555-0.604-0.702
		c-0.48-0.24-0.959-0.479-1.438-0.719l0.02,0.187c-0.408-0.289-0.913-0.44-1.413-0.422c-0.256,0.009-0.526,0.069-0.708,0.25
		c-0.182,0.181-0.232,0.509-0.051,0.69c0.081,0.08,0.192,0.121,0.299,0.159c0.889,0.316,1.784,0.615,2.685,0.898
		c0.23,0.072,0.471,0.144,0.71,0.109C231.045,249.791,231.282,249.616,231.306,249.375"/>
	<path clip-path="url(#SVGID_2_)" fill="#FFA41F" d="M229.051,259.498c-0.391-0.49-0.682-1.239-0.26-1.702
		c0.233-0.256,0.603-0.321,0.945-0.372c0.319-0.048,0.649-0.096,0.963-0.022c0.583,0.138,1.071,0.679,1.664,0.604
		c0.201-0.026,0.386-0.122,0.585-0.16c0.316-0.061,0.639,0.029,0.947,0.118c0.44,0.127,0.879,0.254,1.318,0.38
		c0.114,0.033,0.233,0.069,0.318,0.153c0.103,0.101,0.135,0.252,0.194,0.384c0.189,0.422,0.654,0.636,0.977,0.968
		c0.412,0.423,0.567,1.138,0.22,1.618c-0.377,0.52-1.124,0.56-1.767,0.551C233.038,261.987,230.424,261.217,229.051,259.498"/>
	<path clip-path="url(#SVGID_2_)" fill="#2B0000" d="M233.06,258.889c0.084,0.091,0.174,0.176,0.267,0.259
		c0.001,0.001,0.003,0.001,0.005,0.002L233.06,258.889z"/>
	<path clip-path="url(#SVGID_2_)" fill="#2B0000" d="M234.525,259.985c-0.141-0.148-0.33-0.238-0.509-0.339
		c-0.247-0.14-0.478-0.309-0.69-0.499c-0.645-0.292-1.389-0.36-2.077-0.188c-0.091,0.023-0.185,0.051-0.256,0.113
		c-0.166,0.146-0.146,0.405-0.112,0.624c0.038,0.237,0.096,0.505,0.304,0.625c0.239,0.139,0.536,0.008,0.811-0.019
		c0.416-0.04,0.809,0.168,1.19,0.34c0.38,0.171,0.823,0.313,1.205,0.145c0.113-0.05,0.218-0.129,0.27-0.241
		C234.749,260.361,234.667,260.133,234.525,259.985"/>
	<path clip-path="url(#SVGID_2_)" fill="#3C6828" d="M229.836,267.146l-0.544-0.549c1.051-1.041,3.163-1.484,4.651-1.547
		c1.242-0.053,2.419-0.654,3.306-1.171c0.928-0.542,2.195-1.409,2.483-2.677c0.169-0.743-0.009-1.52-0.198-2.343
		c-0.048-0.211-0.096-0.422-0.139-0.632c-0.298-1.485-0.072-2.644,0.655-3.351l0.54,0.554c-0.67,0.651-0.607,1.797-0.437,2.645
		c0.041,0.203,0.088,0.407,0.135,0.612c0.199,0.871,0.406,1.771,0.198,2.686c-0.354,1.561-1.795,2.559-2.848,3.173
		c-0.963,0.563-2.25,1.216-3.662,1.276C232.518,265.884,230.673,266.317,229.836,267.146"/>
	<path clip-path="url(#SVGID_2_)" fill="#FE8462" d="M235.912,255.85c-0.707-0.261-1.353-0.803-1.538-1.534
		c-0.185-0.73,0.237-1.618,0.975-1.771c0.904-0.186,1.806,0.708,2.686,0.432c0.234-0.074,0.434-0.224,0.647-0.346
		c0.78-0.446,1.746-0.506,2.614-0.276c0.869,0.23,1.649,0.73,2.314,1.335c0.615,0.559,1.158,1.241,1.353,2.049
		c0.195,0.807-0.03,1.754-0.702,2.242c-0.501,0.363-1.17,0.425-1.776,0.307c-0.606-0.119-1.167-0.401-1.719-0.679
		c-0.837-0.422-1.689-0.975-2.56-1.311C237.501,256.026,236.665,256.064,235.912,255.85"/>
	<path clip-path="url(#SVGID_2_)" fill="#2B0000" d="M239.33,253.861c-0.316,0.068-0.633,0.137-0.949,0.205
		c-0.203,0.044-0.413,0.09-0.58,0.213c-0.072,0.053-0.137,0.123-0.161,0.21c-0.059,0.208,0.144,0.41,0.355,0.458
		s0.43-0.002,0.647,0.002c0.662,0.012,1.2,0.507,1.788,0.811c0.205,0.106,0.422,0.191,0.645,0.251
		c0.146,0.04,0.303,0.069,0.446,0.019c0.282-0.099,0.378-0.475,0.277-0.756c-0.101-0.281-0.34-0.486-0.569-0.678
		C240.596,254.066,240.205,253.674,239.33,253.861"/>
	<path clip-path="url(#SVGID_2_)" fill="#3C6828" d="M219.732,265.309c-0.216-0.061-0.252-0.321-0.33-0.89
		c-0.069-0.502-0.276-2.013-0.457-2.301c-0.257-0.191-0.56-0.329-0.881-0.474c-0.14-0.063-0.28-0.126-0.416-0.194
		c-0.766-0.38-1.438-0.898-2.087-1.398l-2.095-1.618c-0.35-0.269-0.746-0.575-1.038-0.982c-0.234-0.327-0.382-0.688-0.524-1.037
		c-0.153-0.375-0.297-0.729-0.533-0.998c-0.19-0.216-0.451-0.399-0.728-0.592c-0.523-0.365-1.116-0.779-1.235-1.512l0.763-0.124
		c0.067,0.41,0.459,0.684,0.914,1.002c0.303,0.211,0.616,0.429,0.867,0.716c0.322,0.367,0.497,0.799,0.668,1.216
		c0.131,0.322,0.255,0.625,0.437,0.879c0.225,0.315,0.559,0.572,0.881,0.82l2.096,1.618c0.619,0.478,1.259,0.972,1.957,1.318
		c0.129,0.063,0.26,0.123,0.391,0.182c0.356,0.161,0.723,0.327,1.055,0.58c0.301,0.229,0.465,0.856,0.731,2.793
		c0.024,0.175,0.051,0.37,0.066,0.461h0.041c0.001,0.143,0.002,0.522-0.369,0.548C219.837,265.326,219.78,265.323,219.732,265.309
		 M219.984,264.564c-0.041-0.012-0.087-0.017-0.136-0.013c-0.165,0.013-0.273,0.121-0.32,0.225l0.7-0.002
		C220.191,264.691,220.106,264.598,219.984,264.564"/>
	<path clip-path="url(#SVGID_2_)" fill="#FFA41F" d="M207.315,251.721c-0.694,0.648-1.065,1.626-0.975,2.571
		c0.055,0.577,0.451,1.25,1.025,1.162c0.143-0.022,0.274-0.092,0.409-0.147c1.418-0.58,2.956,0.47,4.486,0.562
		c0.524,0.031,1.089-0.071,1.464-0.438c0.374-0.368,0.456-1.053,0.064-1.402c-0.376-0.337-1.078-0.32-1.238-0.8
		c-0.075-0.226,0.016-0.471,0.025-0.71C212.67,250.163,208.342,250.763,207.315,251.721"/>
	<path clip-path="url(#SVGID_2_)" fill="#2B0000" d="M210.922,253.363c0.029-0.251-0.147-0.479-0.343-0.638
		c-0.196-0.159-0.425-0.284-0.576-0.486l-0.075,0.037c-0.637-0.063-1.291,0.344-1.517,0.943c-0.054,0.145-0.084,0.315-0.005,0.448
		c0.15,0.256,0.526,0.182,0.822,0.167c0.325-0.017,0.648,0.079,0.972,0.061C210.525,253.877,210.885,253.686,210.922,253.363"/>
	<path clip-path="url(#SVGID_2_)" fill="#23AEB5" d="M370.87,396.12c1.12-8.45,2.9-21.28,1.11-38c-0.5-4.67-1.271-9.55-2.061-13.97
		c-0.859-4.82-1.75-9.101-2.35-11.99c0,0-0.84-3.42-1.851-8.55c-1.279-6.49-2.84-15.71-3.319-24.19
		c-0.311-5.47-0.03-9.33,0.77-12.75c0.41-1.73,0.97-3.16,1.82-5.51c1.7-4.64,2.58-7,4.05-8.58c0.95-1.03,2.98-2.79,6.87-3.58
		c0.229-0.05,0.47-0.1,0.72-0.14c0.061,0.03,0.13,0.05,0.2,0.08c0.91,0.37,2.16,0.84,3.71,1.31c5.16,1.58,13.59,3.16,23.41,0.86
		c2.21-0.52,4.26-1.18,6.14-1.92h0.01c6.721-2.67,11.341-6.4,13.75-8.6c1.681,0.07,3.57,0.17,5.65,0.34
		c0.79,0.06,1.61,0.13,2.45,0.21c2.55,0.24,5.32,0.58,8.3,1.04c1.64,0.25,3.34,0.54,5.1,0.87c0.551,0.11,1.101,0.22,1.66,0.33
		c1.261,0.25,2.54,0.53,3.851,0.83c0.01,0,0.01,0.01,0.02,0.01c1.15,0.26,2.32,0.54,3.5,0.84c10.73,2.74,16.07,4.24,18.86,7.72
		c7.02,8.71-0.851,23.18-9.101,48.739c-4.88,15.11-7.46,30.86-11.71,46.15c-6.47,23.271-6.18,67.271,23.881,158.33
		c-40.25-2.29-80.5-4.57-120.75-6.86C362.65,462.83,367.76,419.66,370.87,396.12"/>
	<path clip-path="url(#SVGID_2_)" fill="#302C2B" d="M395.165,130.381c1.893-2.3,7.029-7.883,15.252-9.384
		c5.567-1.016,9.974,0.308,14.557,1.685c8.465,2.544,14.097,6.785,18.648,10.277c4.896,3.755,9.976,7.654,14.669,14.657
		c5.048,7.534,6.45,13.89,8.68,24.006c1.071,4.855,1.256,7.665,0.113,10.502c-1.003,2.49-2.252,3.076-3.326,6.274
		c-0.354,1.056-1.271,4.125-0.8,7.822c0.528,4.144,2.203,4.392,3.87,9.657c1.238,3.912,2.142,6.766,1.083,9.792
		c-0.451,1.29-2.37,3.508-6.209,7.945c-1.904,2.201-2.729,3.05-3.23,4.737c-0.225,0.758-1.048,3.525,0.537,6.207
		c1.518,2.569,4.178,3.254,4.727,3.384c-0.405,2.193-1.959,3.967-3.988,4.534c-2.491,0.696-5.291-0.538-6.601-3.038
		c0.565,0.912,1.351,2.422,1.728,4.43c0.3,1.594,0.735,3.912-0.376,5.996c-1.037,1.945-2.314,1.612-3.969,4.227
		c-0.713,1.126-1.369,2.196-1.146,3.478c0.35,1.989,2.553,2.969,2.893,3.114c-1.807,1.081-4.087,0.933-5.689-0.357
		c-1.479-1.191-2.14-3.162-1.689-5.045c-0.317,1.054-1.757,5.397-6.209,7.945c-6.267,3.585-12.789,0.347-13.28,0.092
		c2.591,0.984,5.239,0.165,6.275-1.612c0.846-1.45,0.543-3.407-0.325-4.651c-1.164-1.666-2.622-1.017-4.448-2.903
		c-0.156-0.16-2.393-2.525-1.729-4.43c0.427-1.222,1.715-1.307,1.847-2.354c0.121-0.96-0.84-1.865-1.988-2.749
		c-3.594-2.763-7.014-3.835-7.014-3.835c-6.56-2.057-9.976-3.128-12.107-1.377c-1.093,0.898-0.654,1.557-2.433,6.792
		c-1.25,3.68-1.875,5.52-3.067,7.062c-2.95,3.817-7.479,4.687-7.861,4.755c-6.399,1.134-11.13-3.318-11.645-3.818
		c2.841-0.182,5.682-0.364,8.523-0.546c-0.18-0.025-2.469-0.384-3.401-2.374c-0.833-1.779-0.224-4.094,1.578-5.457
		c-0.848-0.042-5.108-0.34-8.398-3.923c-3.019-3.29-3.184-7.13-3.196-8.072c1.313,1.292,3.099,1.238,3.832,0.395
		c0.635-0.728,0.548-2.111-0.133-2.787c-1.002-0.995-2.48,0.347-3.987-0.405c-1.628-0.812-1.079-2.968-2.909-7.745
		c-0.639-1.664-1.051-2.744-1.912-3.979c-2.154-3.093-4.282-3.103-6.013-5.007c-3.139-3.452-1.745-9.576-1.064-12.569
		c1.48-6.506,4.438-7.334,5.461-13.24c0.697-4.023-0.13-6.785-0.756-10.08c-0.465-2.447-2.815-15.682,0.813-27.731
		c4.473-14.847,15.732-20.287,16.735-20.713c1.742-0.739,3.448-0.844,3.448-0.844c0.393-0.024,1.495-0.068,2.879,0.238
		C393.59,129.62,394.521,130.035,395.165,130.381"/>
	<path clip-path="url(#SVGID_2_)" fill="#E2C294" d="M427.157,248.698c-0.319-3.686,0.339-8.138,0.62-12.936l-0.002-0.114h-0.023
		l-25.968,7.501l-0.968,9.879l-1.646,16.725l33.382-1.728C429.655,262.55,427.761,256.714,427.157,248.698"/>
	<path clip-path="url(#SVGID_2_)" fill="#B59B76" d="M400.902,251.557c9.536,3.119,17.159,0.413,26.163-6.186
		c0.079-3.691,0.417-5.254,0.697-10.052l-0.025-0.114l-25.968,7.501L400.902,251.557z"/>
	<path clip-path="url(#SVGID_2_)" fill="#E2C294" d="M450.911,191.712c-0.063,2.334-0.528,14.141-7.37,26.866
		c-2.396,4.457-15.508,28.844-34.215,27.488c-19.611-1.422-29.01-29.947-30.106-33.279c-3.955-12.003-3.089-22.356-2.654-26.063
		c2.685-22.858,9.759-45.58,37.93-43.828C443.109,144.676,451.572,167.317,450.911,191.712"/>
	<path clip-path="url(#SVGID_2_)" fill="#E2C294" d="M447.346,200.098c1.533-5.552,3.615-9.293,5.035-11.472
		c1.255-1.925,2.601-3.561,4.678-4.12c0.474-0.128,1.927-0.519,3.211,0.201c1.488,0.836,2.005,2.748,2.296,4.827
		c0.918,6.554-0.729,12.491-1.321,14.45c-0.548,1.805-2.144,4.95-5.334,11.239c-1.322,2.607-2.37,4.557-4.555,5.473
		c-0.276,0.117-2.307,0.935-4.325,0.159c-2.845-1.093-4.706-4.985-4.134-9.517L447.346,200.098z"/>
	<path clip-path="url(#SVGID_2_)" fill="#B59B76" d="M396.742,205.142c-2.536,3.261-4.587,6.502-6.443,10.213
		c-1.068,2.553,1.982,4.727,4.24,4.893c2.121,0.3,4.353-0.284,5.913-1.571c-1.93,0.64-3.856,0.612-5.633,0.151
		c-1.257-0.376-3.35-1.423-2.773-2.853C393.737,212.543,395.59,208.869,396.742,205.142"/>
	<path clip-path="url(#SVGID_2_)" fill="#240F0F" d="M397.888,183.092c0.193-0.322-3.483-3.187-7.703-5.335
		c-2.604-1.325-4.946-2.139-6.696-2.647c-0.32-0.092-0.655-0.101-0.979-0.021c-0.825,0.203-1.758,0.502-2.743,0.946
		c-2.063,0.929-3.577,2.142-4.598,3.13c-0.102,0.099-0.007,0.269,0.132,0.236c0.398-0.096,0.799-0.192,1.198-0.29
		c4.616-1.129,4.993-1.351,5.861-1.502c1.94-0.336,4.899,0.928,10.737,3.472C396.571,182.594,397.781,183.268,397.888,183.092"/>
	<path clip-path="url(#SVGID_2_)" fill="#240F0F" d="M403.007,182.466c-0.152-0.344,3.854-2.727,8.31-4.33
		c2.748-0.989,5.175-1.504,6.975-1.789c0.329-0.052,0.663-0.018,0.974,0.101c0.793,0.305,1.681,0.718,2.604,1.282
		c1.93,1.18,3.28,2.572,4.17,3.681c0.089,0.11-0.027,0.267-0.159,0.217c-0.384-0.145-0.77-0.291-1.155-0.438
		c-4.438-1.697-4.784-1.964-5.627-2.222c-1.882-0.577-4.975,0.308-11.086,2.102C404.375,182.136,403.09,182.654,403.007,182.466"/>
	<path clip-path="url(#SVGID_2_)" fill="#FFFFFF" d="M452.534,217.085c-0.104,1.656-1.279,2.93-2.624,2.845
		c-1.346-0.084-2.353-1.495-2.248-3.151c0.104-1.655,1.278-2.929,2.624-2.845C451.632,214.02,452.638,215.43,452.534,217.085"/>
	<path clip-path="url(#SVGID_2_)" fill="#FFFFFF" d="M451.439,220.67c-0.189-0.36-0.369-0.67-0.539-0.93
		c-0.391-0.62-0.69-0.98-0.69-0.98s-0.41,0.32-0.96,1.01c-0.28,0.36-0.61,0.82-0.93,1.38c-0.61,1.04-1.221,2.42-1.601,4.19
		c-0.79,3.66,0.3,6.81,2.65,6.96c1.689,0.11,3.51-1.42,3.49-6.58C452.85,223.76,452.12,221.95,451.439,220.67 M451.22,230.02
		c-0.12,0.26-0.25,0.46-0.37,0.62c-0.09,0.12-0.17,0.21-0.25,0.28c-0.34,0.32-0.739,0.47-1.18,0.44c-0.49-0.03-0.89-0.26-1.22-0.7
		c-0.101-0.14-0.19-0.29-0.271-0.45c-0.109-0.21-0.2-0.44-0.27-0.7c-0.23-0.76-0.311-1.69-0.21-2.7c0.01-0.2,0.04-0.4,0.069-0.61
		c0.03-0.22,0.07-0.44,0.12-0.66c0.141-0.67,0.32-1.28,0.521-1.83c0.1-0.27,0.2-0.52,0.31-0.75c0.3-0.72,0.641-1.32,0.96-1.81
		c0.24-0.36,0.471-0.67,0.67-0.91c0.13,0.21,0.28,0.46,0.431,0.73c0.34,0.62,0.699,1.38,0.97,2.23c0.08,0.25,0.15,0.51,0.22,0.78
		c0.12,0.56,0.2,1.15,0.2,1.75c0,0.39-0.01,0.75-0.03,1.09c-0.01,0.22-0.029,0.42-0.05,0.62
		C451.729,228.64,451.479,229.47,451.22,230.02"/>
	
		<rect x="446.697" y="228.968" transform="matrix(-0.5654 0.8248 -0.8248 -0.5654 890.7181 -10.784)" clip-path="url(#SVGID_2_)" fill="#FFFFFF" width="3.005" height="0.62"/>
	
		<rect x="450.256" y="227.924" transform="matrix(-0.888 0.4598 -0.4598 -0.888 956.1689 226.0114)" clip-path="url(#SVGID_2_)" fill="#FFFFFF" width="0.62" height="3.005"/>
	
		<rect x="450.99" y="225.702" transform="matrix(-0.1245 0.9922 -0.9922 -0.1245 732.7869 -192.4545)" clip-path="url(#SVGID_2_)" fill="#FFFFFF" width="0.62" height="2.715"/>
	
		<rect x="447.597" y="225.325" transform="matrix(-0.1244 0.9922 -0.9922 -0.1244 728.436 -189.678)" clip-path="url(#SVGID_2_)" fill="#FFFFFF" width="0.62" height="2.47"/>
	
		<rect x="448.432" y="222.671" transform="matrix(-0.8884 0.4591 -0.4591 -0.8884 950.3168 217.2954)" clip-path="url(#SVGID_2_)" fill="#FFFFFF" width="0.621" height="3.006"/>
	
		<rect x="449.606" y="224.012" transform="matrix(-0.5654 0.8248 -0.8248 -0.5654 891.1838 -20.9405)" clip-path="url(#SVGID_2_)" fill="#FFFFFF" width="3.005" height="0.62"/>
	<path clip-path="url(#SVGID_2_)" fill="#B59B76" d="M408.942,199.154c0.372-5.922,5.099-10.466,9.734-11.244
		c5.352-0.897,9.791,3.516,10.425,4.21c2.221,2.434,2.746,5.205,3.13,6.692c-1.225,1.241-4.644,4.375-9.81,5.054
		C415.019,204.838,409.828,200.007,408.942,199.154"/>
	<path clip-path="url(#SVGID_2_)" fill="#FFFFFF" d="M408.916,199.573c1.107-5.349,5.03-9.374,9.66-10.044
		c5.343-0.773,9.422,3.245,10.059,3.873c2.236,2.202,3.165,4.672,3.559,6.011c-1.216,1.108-4.612,3.903-9.773,4.48
		C415.024,204.721,409.807,200.345,408.916,199.573"/>
	<path clip-path="url(#SVGID_2_)" fill="#746653" d="M424.078,197.611c-0.217,3.46-3.198,6.089-6.658,5.872
		s-6.089-3.198-5.872-6.658s3.198-6.089,6.658-5.872C421.666,191.17,424.295,194.151,424.078,197.611"/>
	<path clip-path="url(#SVGID_2_)" fill="#3A332A" d="M418.835,197.507c-0.1,1.592-1.471,2.802-3.063,2.702
		c-1.592-0.1-2.801-1.472-2.701-3.064c0.1-1.592,1.471-2.801,3.063-2.702C417.726,194.543,418.936,195.916,418.835,197.507"/>
	<path clip-path="url(#SVGID_2_)" fill="#FFFFFF" d="M419.95,196.952c-0.036,0.594-0.549,1.046-1.144,1.009
		c-0.594-0.038-1.046-0.55-1.008-1.144c0.037-0.594,0.549-1.046,1.143-1.009C419.537,195.846,419.987,196.357,419.95,196.952"/>
	<path clip-path="url(#SVGID_2_)" fill="#433015" d="M432.193,199.414c-0.688-1.042-1.301-2.161-2.135-3.085
		c-0.793-0.914-1.693-1.699-2.672-2.338c-3.891-2.587-8.993-2.824-13.058-0.518c-2.295,1.271-4.386,3.469-5.408,6.024
		c-0.025-3.045,1.779-5.901,4.267-7.767C420.225,186.46,431.108,190.462,432.193,199.414"/>
	<path clip-path="url(#SVGID_2_)" fill="#433015" d="M430.508,195.227c1.437-0.318,2.847-1.102,3.715-2.322
		c-0.541,1.04-1.449,1.856-2.467,2.429c-0.349,0.194-0.694,0.362-1.094,0.502L430.508,195.227z"/>
	<path clip-path="url(#SVGID_2_)" fill="#433015" d="M431.273,196.668c1.192,0.046,2.571-0.137,3.417-1.073
		c-0.525,0.841-1.499,1.279-2.429,1.522c-0.323,0.081-0.636,0.146-0.985,0.18L431.273,196.668z"/>
	<path clip-path="url(#SVGID_2_)" fill="#433015" d="M431.997,198.104c0.63,0.176,1.371,0.188,1.985-0.087
		c0.214-0.093,0.403-0.236,0.581-0.399c-0.412,0.638-1.164,0.976-1.902,1.072c-0.257,0.034-0.501,0.052-0.783,0.032L431.997,198.104
		z"/>
	<path clip-path="url(#SVGID_2_)" fill="#B59B76" d="M396.678,199.242c0.536-5.614-3.222-10.585-7.457-12.007
		c-4.888-1.643-9.715,1.836-10.412,2.393c-2.448,1.953-3.354,4.474-3.938,5.813c0.964,1.348,3.704,4.8,8.452,6.209
		C390.126,203.668,395.719,199.91,396.678,199.242"/>
	<path clip-path="url(#SVGID_2_)" fill="#FFFFFF" d="M396.641,199.639c-0.241-5.186-3.321-9.55-7.565-10.87
		c-4.9-1.524-9.329,1.638-10.021,2.132c-2.428,1.732-3.669,3.912-4.238,5.11c0.976,1.222,3.747,4.352,8.504,5.665
		C390.137,203.557,395.688,200.231,396.641,199.639"/>
	<path clip-path="url(#SVGID_2_)" fill="#746653" d="M390.256,196.536c-0.303,3.175-3.123,5.504-6.298,5.2
		c-3.177-0.303-5.504-3.123-5.201-6.298s3.123-5.504,6.299-5.2C388.23,190.542,390.559,193.361,390.256,196.536"/>
	<path clip-path="url(#SVGID_2_)" fill="#3A332A" d="M385.539,196.091c-0.141,1.461-1.438,2.532-2.898,2.393
		c-1.461-0.14-2.532-1.437-2.393-2.898s1.437-2.533,2.897-2.393C384.606,193.332,385.679,194.63,385.539,196.091"/>
	<path clip-path="url(#SVGID_2_)" fill="#FFFFFF" d="M386.559,194.996c-0.052,0.545-0.536,0.945-1.082,0.893
		c-0.545-0.052-0.945-0.536-0.893-1.082c0.052-0.545,0.536-0.945,1.082-0.893C386.211,193.966,386.61,194.451,386.559,194.996"/>
	<path clip-path="url(#SVGID_2_)" fill="#433015" d="M374.816,196.011c0.803-0.875,1.544-1.834,2.465-2.577
		c0.882-0.738,1.843-1.341,2.857-1.795c4.038-1.847,8.862-1.306,12.332,1.466c1.964,1.536,3.599,3.911,4.177,6.461
		c0.479-2.854-0.79-5.804-2.844-7.927C387.985,185.643,377.173,187.772,374.816,196.011"/>
	<path clip-path="url(#SVGID_2_)" fill="#433015" d="M377.024,192.333c-1.301-0.513-2.507-1.46-3.14-2.735
		c0.353,1.058,1.083,1.959,1.952,2.649c0.298,0.234,0.598,0.444,0.951,0.635L377.024,192.333z"/>
	<path clip-path="url(#SVGID_2_)" fill="#433015" d="M376.09,193.572c-1.125-0.135-2.393-0.512-3.046-1.517
		c0.367,0.867,1.215,1.424,2.052,1.791c0.29,0.124,0.575,0.232,0.897,0.316L376.09,193.572z"/>
	<path clip-path="url(#SVGID_2_)" fill="#433015" d="M375.196,194.812c-0.618,0.071-1.315-0.028-1.851-0.379
		c-0.187-0.119-0.343-0.281-0.485-0.46c0.292,0.66,0.947,1.089,1.625,1.29c0.237,0.07,0.462,0.123,0.729,0.146L375.196,194.812z"/>
	<path clip-path="url(#SVGID_2_)" fill="#302C2B" d="M456.666,188.26c-0.824,0.701-1.92,1.809-2.762,3.415
		c-1.021,1.949-0.88,3.122-1.925,4.857c-0.545,0.904-1.486,2.081-3.208,3.156c0.012-2.045,0.025-4.089,0.037-6.133
		c-0.72,2.483-1.557,5.074-2.531,7.751c-1.786,4.908-3.752,9.331-5.732,13.261c0.521-4.887,0.641-8.984,0.637-11.999
		c-0.007-6.28-0.547-8.072-1.598-9.592c-1.498-2.17-3.558-3.092-6.325-4.333c-4.929-2.208-6.209-1.138-10.811-2.993
		c-2.881-1.162-6.695-2.701-8.978-6.352c-1.898-3.037-0.939-4.661-3.349-9.355c-1.245-2.427-2.547-4.028-3.71-5.442
		c-2.008-2.441-5.618-6.208-11.441-9.516c-2.057,4.162-4.714,8.84-8.154,13.727c-2.712,3.852-5.452,7.185-8.038,10.03
		c0.708,2.177,1.81,6.591,0.753,11.97c-1.521,7.751-8.619,14.087-10.27,15.483c0.531-1.581,0.839-5.928-0.093-10.192
		c-0.681-3.108-0.218-5.146-0.263-7.521c-0.119-1.493-1.777-27.764,18.017-41.758c11.605-8.204,24.261-7.717,26.561-7.594
		c3.043,0.163,14.274,1.094,24.414,9.404c8.449,6.925,11.705,15.335,14.484,22.518C455.028,177.89,456.147,183.954,456.666,188.26"
		/>
	<path clip-path="url(#SVGID_2_)" fill="#302C2B" d="M444.28,188.871c0.227,1.048,2.521,10.839,12.315,15.281
		c9.926,4.502,18.917-0.407,19.813-0.917c-5.922-3.433-7.921-7.019-8.654-9.65c-1.244-4.458,0.785-7.463-0.62-14.701
		c-0.716-3.689-1.203-6.193-2.805-6.968C462.054,170.817,456.976,172.94,444.28,188.871"/>
	<path clip-path="url(#SVGID_2_)" fill="#B59B76" d="M394.319,229.165c0.077-0.174,0.153-0.18,0.153-0.18s3.034,0.636,6.856,0.657
		c5.558,0.031,9.933-1.168,9.933-1.168s-4.007,7.345-9.371,6.87C397.681,234.971,393.705,230.557,394.319,229.165"/>
	<path clip-path="url(#SVGID_2_)" fill="#E2C294" d="M447.135,263.118c-1.507-0.481-3.751-1.235-6.431-2.287
		c-7.456-2.928-11.2-4.464-12.719-7.658c-1.35-2.843-0.202-5.082-1.54-5.775c-1.785-0.923-4.514,3.071-8.476,5.324
		c-3.371,1.918-8.646,3.173-17.153,0.798c-0.482,1.714-1.498,4.379-3.765,6.796c-1.626,1.733-3.448,2.862-7.072,4.408
		c-3.253,1.389-7.899,3.088-13.821,4.363c1.717,5.888,5.059,14.263,11.867,22.347c2.438,2.895,4.93,5.287,7.274,7.252
		c0.252,6.574,0.504,13.148,0.757,19.722c2.236-5.672,4.471-11.343,6.707-17.015c5.149-1.437,11.566-3.859,18.234-8.085
		C436.404,283.542,443.94,269.979,447.135,263.118"/>
	<path clip-path="url(#SVGID_2_)" fill="#003399" d="M375.883,268.903c1.16,4.089,2.966,9.069,5.846,14.41
		c3.783,7.012,8.125,12.246,11.646,15.871c-0.308,5.354-0.179,7.821-0.023,10.904c0.113,2.007,0.229,4.291,0.25,7.901
		c0.011,1.458,0.803,2.647,1.965,3c0.085,0.021,0.176,0.054,0.262,0.066c1.29,0.223,2.528-0.624,3.026-2.086l6.487-16.911
		c3.896-0.733,9.461-2.192,15.542-5.343c8.607-4.461,13.844-10.028,17.803-14.313c3.537-3.828,8.732-10.106,12.864-17.883
		c-1.77-0.888-4.145-1.203-5.913-2.091c-2.572,5.502-8.121,15.436-18.962,23.998c-8.613,6.801-17.126,10.021-22.565,11.601
		l-1.287-0.032l-5.569,14.518c-0.039-0.96-0.093-1.821-0.127-2.638c-0.163-3.247-0.293-5.591,0.07-11.405l0.06-1.003l-0.713-0.656
		c-3.422-3.336-7.829-8.402-11.511-15.429c-2.495-4.763-4.017-9.206-4.971-12.847C378.669,268.658,377.275,268.781,375.883,268.903"
		/>
	<path clip-path="url(#SVGID_2_)" fill-rule="evenodd" clip-rule="evenodd" fill="#003399" d="M435.002,289.225
		c-0.118,0.685,0.287,1.34,0.904,1.464s1.213-0.331,1.331-1.015c0.118-0.685-0.286-1.34-0.904-1.464
		C435.716,288.085,435.12,288.54,435.002,289.225"/>
	<path clip-path="url(#SVGID_2_)" fill-rule="evenodd" clip-rule="evenodd" fill="#003399" d="M441.865,281.265
		c-0.118,0.685,0.287,1.34,0.904,1.464s1.213-0.331,1.331-1.015c0.118-0.685-0.286-1.34-0.904-1.464
		C442.579,280.125,441.983,280.58,441.865,281.265"/>
	<path clip-path="url(#SVGID_2_)" fill-rule="evenodd" clip-rule="evenodd" fill="#003399" d="M448.94,272.614
		c-0.118,0.686,0.287,1.34,0.903,1.464c0.617,0.124,1.213-0.331,1.331-1.015c0.118-0.685-0.286-1.34-0.903-1.464
		S449.059,271.93,448.94,272.614"/>
	<path clip-path="url(#SVGID_2_)" fill-rule="evenodd" clip-rule="evenodd" fill="#003399" d="M438.476,285.308
		c-0.118,0.685,0.287,1.34,0.903,1.464c0.617,0.124,1.213-0.331,1.331-1.015c0.118-0.685-0.286-1.34-0.903-1.464
		S438.594,284.623,438.476,285.308"/>
	<path clip-path="url(#SVGID_2_)" fill-rule="evenodd" clip-rule="evenodd" fill="#003399" d="M445.693,276.844
		c-0.118,0.685,0.287,1.34,0.904,1.464s1.213-0.331,1.331-1.015c0.118-0.685-0.286-1.34-0.904-1.464
		C446.407,275.706,445.812,276.159,445.693,276.844"/>
	<path clip-path="url(#SVGID_2_)" fill-rule="evenodd" clip-rule="evenodd" fill="#003399" d="M430.873,293.705
		c-0.118,0.685,0.287,1.34,0.904,1.464c0.616,0.124,1.213-0.331,1.331-1.015c0.117-0.685-0.286-1.34-0.904-1.464
		C431.587,292.566,430.991,293.02,430.873,293.705"/>
	<path clip-path="url(#SVGID_2_)" fill-rule="evenodd" clip-rule="evenodd" fill="#003399" d="M426.922,296.919
		c-0.118,0.685,0.287,1.34,0.904,1.464s1.213-0.331,1.331-1.015c0.118-0.685-0.286-1.34-0.904-1.464
		C427.636,295.78,427.04,296.234,426.922,296.919"/>
	<path clip-path="url(#SVGID_2_)" fill-rule="evenodd" clip-rule="evenodd" fill="#003399" d="M422.265,299.831
		c-0.118,0.685,0.287,1.34,0.903,1.464c0.617,0.124,1.213-0.331,1.331-1.015c0.118-0.685-0.286-1.34-0.903-1.464
		S422.383,299.146,422.265,299.831"/>
	<path clip-path="url(#SVGID_2_)" fill-rule="evenodd" clip-rule="evenodd" fill="#003399" d="M417.813,301.301
		c-0.584,0.263-0.87,0.998-0.638,1.642s0.893,0.953,1.477,0.69c0.584-0.262,0.87-0.998,0.639-1.642S418.396,301.038,417.813,301.301
		"/>
	<path clip-path="url(#SVGID_2_)" fill-rule="evenodd" clip-rule="evenodd" fill="#003399" d="M411.566,303.157
		c-0.584,0.263-0.87,0.998-0.638,1.642s0.893,0.953,1.477,0.69c0.584-0.262,0.87-0.998,0.639-1.642S412.15,302.894,411.566,303.157"
		/>
	<path clip-path="url(#SVGID_2_)" fill-rule="evenodd" clip-rule="evenodd" fill="#003399" d="M406.449,304.333
		c-0.584,0.263-0.87,0.998-0.638,1.642s0.893,0.953,1.477,0.69c0.584-0.262,0.87-0.998,0.639-1.642
		C407.694,304.379,407.033,304.07,406.449,304.333"/>
	<path clip-path="url(#SVGID_2_)" fill-rule="evenodd" clip-rule="evenodd" fill="#003399" d="M404.206,310.577
		c-0.584,0.263-0.87,0.998-0.639,1.642c0.232,0.645,0.894,0.953,1.478,0.69s0.87-0.998,0.638-1.642
		C405.451,310.623,404.79,310.314,404.206,310.577"/>
	<path clip-path="url(#SVGID_2_)" fill-rule="evenodd" clip-rule="evenodd" fill="#003399" d="M402.041,316.36
		c-0.571,0.293-0.826,1.042-0.566,1.673s0.934,0.905,1.506,0.611c0.573-0.293,0.826-1.042,0.566-1.674
		C403.288,316.34,402.613,316.067,402.041,316.36"/>
	<path clip-path="url(#SVGID_2_)" fill-rule="evenodd" clip-rule="evenodd" fill="#003399" d="M399.475,321.676
		c-0.572,0.293-0.826,1.042-0.567,1.673c0.26,0.631,0.935,0.905,1.506,0.611c0.573-0.293,0.826-1.042,0.567-1.673
		S400.047,321.383,399.475,321.676"/>
	<path clip-path="url(#SVGID_2_)" fill-rule="evenodd" clip-rule="evenodd" fill="#003399" d="M394.34,323.058
		c-0.572,0.293-0.826,1.042-0.567,1.674c0.261,0.631,0.935,0.904,1.506,0.61c0.573-0.293,0.826-1.042,0.567-1.673
		S394.912,322.765,394.34,323.058"/>
	<path clip-path="url(#SVGID_2_)" fill-rule="evenodd" clip-rule="evenodd" fill="#003399" d="M390.524,319.161
		c-0.572,0.293-0.826,1.042-0.566,1.673s0.934,0.904,1.506,0.61c0.572-0.293,0.825-1.042,0.566-1.673
		S391.097,318.868,390.524,319.161"/>
	<path clip-path="url(#SVGID_2_)" fill-rule="evenodd" clip-rule="evenodd" fill="#003399" d="M389.672,306.239
		c-0.572,0.293-0.826,1.042-0.567,1.673c0.261,0.631,0.935,0.905,1.506,0.611c0.573-0.293,0.826-1.042,0.567-1.673
		C390.919,306.219,390.244,305.946,389.672,306.239"/>
	<path clip-path="url(#SVGID_2_)" fill-rule="evenodd" clip-rule="evenodd" fill="#003399" d="M390.046,300.274
		c-0.572,0.293-0.826,1.042-0.567,1.673c0.26,0.631,0.934,0.905,1.506,0.611c0.573-0.293,0.826-1.042,0.567-1.673
		C391.292,300.254,390.617,299.981,390.046,300.274"/>
	<path clip-path="url(#SVGID_2_)" fill-rule="evenodd" clip-rule="evenodd" fill="#003399" d="M386.411,296.112
		c-0.572,0.293-0.826,1.042-0.567,1.673c0.259,0.631,0.934,0.905,1.506,0.611c0.573-0.293,0.826-1.042,0.567-1.673
		C387.658,296.092,386.982,295.819,386.411,296.112"/>
	<path clip-path="url(#SVGID_2_)" fill-rule="evenodd" clip-rule="evenodd" fill="#003399" d="M382.732,291.527
		c-0.572,0.293-0.826,1.042-0.567,1.673c0.261,0.631,0.935,0.905,1.507,0.611c0.572-0.293,0.825-1.042,0.566-1.673
		C383.979,291.507,383.305,291.234,382.732,291.527"/>
	<path clip-path="url(#SVGID_2_)" fill-rule="evenodd" clip-rule="evenodd" fill="#003399" d="M379.849,286.69
		c-0.572,0.293-0.826,1.042-0.566,1.673c0.259,0.631,0.934,0.905,1.506,0.611c0.572-0.293,0.825-1.042,0.566-1.673
		S380.421,286.397,379.849,286.69"/>
	<path clip-path="url(#SVGID_2_)" fill-rule="evenodd" clip-rule="evenodd" fill="#003399" d="M376.932,281.394
		c-0.572,0.293-0.826,1.042-0.567,1.673c0.261,0.631,0.935,0.905,1.506,0.611c0.573-0.293,0.826-1.042,0.567-1.673
		C378.179,281.374,377.504,281.101,376.932,281.394"/>
	<path clip-path="url(#SVGID_2_)" fill-rule="evenodd" clip-rule="evenodd" fill="#003399" d="M375.101,277.1
		c-0.571,0.293-0.825,1.042-0.566,1.673c0.26,0.631,0.934,0.905,1.506,0.611c0.573-0.293,0.826-1.042,0.567-1.673
		C376.348,277.08,375.673,276.807,375.101,277.1"/>
	<path clip-path="url(#SVGID_2_)" fill-rule="evenodd" clip-rule="evenodd" fill="#003399" d="M373.757,272.431
		c-0.572,0.293-0.826,1.042-0.567,1.673c0.26,0.631,0.935,0.905,1.506,0.611c0.573-0.293,0.826-1.042,0.567-1.673
		S374.329,272.138,373.757,272.431"/>
	<path clip-path="url(#SVGID_2_)" fill-rule="evenodd" clip-rule="evenodd" fill="#003399" d="M390.024,312.741
		c-0.572,0.293-0.826,1.042-0.567,1.673c0.26,0.631,0.935,0.905,1.507,0.611c0.572-0.293,0.825-1.042,0.566-1.673
		S390.597,312.448,390.024,312.741"/>
	<path clip-path="url(#SVGID_2_)" fill="#8CC1D1" d="M368.222,404.391c-3.543-1.884-6.985-3.367-9.477-4.33
		c-7.551-2.92-15.134-4.421-22.723-0.445c-8.83,4.626-10.938,13.858-4.976,21.893c3.236,4.36,8.494,6.754,13.735,8.178
		c10.3,2.799,25.221,8.058,34.732-0.31C390.688,419.548,378.986,410.115,368.222,404.391"/>
	<path clip-path="url(#SVGID_2_)" fill="#00828F" d="M370.388,347.103c-0.519-3.161-1.097-6.387-1.74-9.672
		c-0.349-1.78-0.708-3.537-1.078-5.271c0,0-0.84-3.42-1.85-8.55c0.313-2.389,0.779-5.037,1.36-5.04
		c0.934-0.006,1.693,6.803,2.145,10.838C369.709,333.738,370.231,339.763,370.388,347.103"/>
	<path clip-path="url(#SVGID_2_)" fill="#E2C294" d="M404.38,423.8c-0.349,0.094-3.391,0.916-7.34,2.71
		c-0.33,0.15-0.62,0.3-0.891,0.44c-11.09,5.91-35.899,10.84-40.46,3.75c-4.569-7.09,25.061-12.101,25.391-13.48
		c0.01-0.04,0.01-0.06,0-0.1c-0.2-0.83-5.03,0.38-10.851-0.59c-1.81-0.3-3.43-0.57-3.47-1.11c-0.09-1.13,6.76-2.97,12.98-3.29
		c3.75-0.2,7.01,0.17,9.569,0.66c0.891,0.17,1.8,0.13,2.66-0.13c0.19-0.061,0.38-0.13,0.57-0.21c1.22-0.53,3.08-1.33,5.439-2.351
		c18.051-7.79,64.79-27.89,66.12-27.979l24.021,0.21C427.37,413.163,406.813,423.143,404.38,423.8"/>
	<path clip-path="url(#SVGID_2_)" fill="#B59B76" d="M404.38,423.8c-1.349,0.419-2.751,0.896-4.195,1.438
		c-0.915,0.344-1.799,0.694-2.65,1.051c-1.518-1.652-2.471-3.229-3.056-4.364c-1.211-2.349-1.67-4.405-1.988-5.883
		c-0.297-1.374-0.443-2.543-0.521-3.381c0.449-0.18,0.899-0.362,1.352-0.548c1.595-0.657,3.147-1.329,4.658-2.013
		C400.109,414.66,402.24,419.23,404.38,423.8"/>
	<path clip-path="url(#SVGID_2_)" fill="#FE8462" d="M340.426,403.255c0.356-0.322,2.718-2.392,5.745-1.851
		c3.02,0.539,5.143,3.399,4.723,4.149c-0.479,0.854-4.062-1.393-6.51,0.383c-0.796,0.576-0.993,1.229-2.107,1.659
		c-0.913,0.353-2.428,0.55-3.063-0.191C338.537,406.617,338.854,404.773,340.426,403.255"/>
	<path clip-path="url(#SVGID_2_)" fill="#2B0000" d="M358.737,403.347c0.473,0.086,3.554,0.693,4.973,3.42
		c1.416,2.723,0.447,6.149-0.402,6.274c-0.97,0.142-1.376-4.066-4.278-4.923c-0.941-0.278-1.579-0.035-2.6-0.655
		c-0.836-0.508-1.917-1.588-1.72-2.544C354.922,403.904,356.575,403.028,358.737,403.347"/>
	<path clip-path="url(#SVGID_2_)" fill="#FFA41F" d="M338.043,410.405c-1.061-0.198-2.129,0.337-2.697,1.254
		c-0.315,0.51-0.59,1.145-0.686,1.895c-0.42,3.27,2.986,5.403,3.128,5.489c3.448,2.089,8.096,0.251,8.105-0.574
		c0.009-0.713-3.444-0.536-6.128-3.32c-0.421-0.436-1.851-1.92-1.468-3.191c0.158-0.524,0.567-0.822,0.447-1.148
		C338.667,410.597,338.4,410.473,338.043,410.405"/>
	<path clip-path="url(#SVGID_2_)" fill="#3C6828" d="M348.787,422.468c0.432,0.629,1.67,2.254,3.895,2.937
		c0.729,0.224,3.6,1.104,5.042-0.574c1.01-1.177,1.046-3.292,0.128-4.085c-0.928-0.802-2.068,0.401-4.277-0.32
		c-1.267-0.413-1.372-0.965-2.872-1.34c-0.723-0.181-2.245-0.561-2.809,0.128C347.392,419.826,347.728,421.193,348.787,422.468"/>
	<path clip-path="url(#SVGID_2_)" fill="#AA6148" d="M221.58,278.657c0,0,81.094,26.304,80.852,28.135
		c-0.241,1.832-81.245-25.158-81.245-25.158L221.58,278.657z"/>
	<path clip-path="url(#SVGID_2_)" fill="#2B0000" d="M221.187,281.634c0,0-10.913-0.275-13.117-4.758
		c-1.474-3-2.512-6.15-3.037-7.907c-0.145-0.485,0.396-0.881,0.82-0.604l15.727,10.292L221.187,281.634z"/>
	<path clip-path="url(#SVGID_2_)" fill="#E2C294" d="M330.264,330.686c-18.537-9.905-37.073-19.81-55.61-29.715
		c-0.359-9.195-4.564-16.941-11.133-19.599c-3.595-1.455-10.036-2.249-13.67,1.218c-1.489,1.421-2.705,3.746-2.013,4.69
		c1.159,1.58,6.206-2.683,10.509-0.719c4.328,1.976,6.255,9.497,5.105,10.31c-0.164,0.116-0.374,0.08-0.486,0.058
		c-3.44-0.665-8.205-5.627-13.61-7.017c-1.508-0.388-3.106-0.799-3.566-0.173c-1.951,2.652,18.731,20.944,23.016,24.733
		c12.275,10.855,30.552,25.696,55.75,41.831L330.264,330.686z"/>
	<path clip-path="url(#SVGID_2_)" fill="#B59B76" d="M325.128,334c-1.347,6.671-2.693,13.342-4.039,20.012
		c-18.032-13.719-36.064-27.438-54.096-41.156c-0.607-0.542-1.215-1.084-1.822-1.626c0.231-1.207,0.873-3.66,2.851-6.016
		c2.448-2.917,5.463-3.919,6.632-4.243C291.478,311.98,308.303,322.99,325.128,334"/>
	<path clip-path="url(#SVGID_2_)" fill="#23AEB5" d="M378.35,311c-3.17,4.58-6.34,9.18-9.51,13.78
		c-4.399,6.41-8.81,12.83-13.21,19.239c-4.68,6.811-9.35,13.61-14.03,20.37c-2.439,3.53-7.31,4.33-10.779,1.801
		c-19.721-14.431-40.7-32.421-60.57-47.25c-1.16-0.87-2.32-1.73-3.47-2.57c-0.07-1.25-0.31-7.52,4.3-12.17
		c1.89-1.91,3.95-2.9,5.38-3.43c1.66,0.92,3.31,1.84,4.97,2.76c16.28,9.05,32.56,18.1,48.83,27.16
		c10.54-17.421,20.13-34.05,30.53-51.34c2.33-3.89,5.98-6.72,10.16-8.46c0.13-0.06,0.27-0.12,0.42-0.2
		C373.22,282.88,376.49,298.82,378.35,311"/>
	<path clip-path="url(#SVGID_2_)" fill="#003399" d="M281.43,303.53c-2.65,1.53-6.92,4.65-9.49,10.14c-0.89,1.89-1.4,3.7-1.69,5.271
		c-1.16-0.87-2.32-1.73-3.47-2.57c-0.07-1.25-0.31-7.52,4.3-12.17c1.89-1.91,3.95-2.9,5.38-3.43
		C278.12,301.69,279.77,302.61,281.43,303.53"/>
	<path clip-path="url(#SVGID_2_)" fill="#00828F" d="M368.84,324.78c-4.399,6.41-8.81,12.83-13.21,19.239
		c2.699-6.229,5.688-12.623,9.002-19.142c1.095-2.151,2.197-4.263,3.308-6.337C368.239,320.621,368.539,322.7,368.84,324.78"/>
	<path clip-path="url(#SVGID_2_)" fill="#E2C294" d="M251.804,288.597c0.418-0.405,3.582-3.372,8.197-2.822
		c5.437,0.647,7.82,5.574,7.955,5.866c-1.234,0.125-2.467,0.25-3.7,0.376c-2.392-1.417-4.342-1.752-5.724-1.777
		c-1.083-0.02-2.015,0.148-3.445-0.174C253.638,289.739,252.53,289.102,251.804,288.597"/>
	<polygon clip-path="url(#SVGID_2_)" fill="#A04B2A" points="110.128,197.66 105.668,193.132 111.456,187.345 113.447,195.98 	"/>
	<path clip-path="url(#SVGID_2_)" fill="#3C6828" d="M212.251,272.324c-2.348,2.816-2.366,4.218-2.23,5.421
		c0.044,0.384,0.232,1.508-0.17,1.702c-0.233,0.113-0.588-0.123-0.936-0.425c-1.756-1.525-2.468-3.777-2.468-3.777
		c-0.839-2.651-1.472-5.051-1.926-6.932c-0.097-0.401,0.331-0.719,0.692-0.52C207.681,269.153,209.783,270.964,212.251,272.324"/>
	<path clip-path="url(#SVGID_2_)" fill="#00828F" d="M401.857,428.653c29.646-13.341,59.295-26.684,88.941-40.024
		c1.033-0.465,1.731-1.454,1.823-2.583c0.001-0.006,0.001-0.012,0.002-0.018c2.692-24.324-61.448,27.381-92.129,41.181
		C400.964,427.739,401.423,428.225,401.857,428.653"/>
	<path clip-path="url(#SVGID_2_)" fill="#23AEB5" d="M489.53,387.14c-27.181,12.23-54.351,24.46-81.521,36.69
		c-2.5,1.13-5.01,2.25-7.51,3.38c-1.17-1.32-2.41-2.94-3.54-4.92c-2.71-4.74-3.53-9.22-3.8-12l5.95-3.37l65.399-37.01
		c1.2-0.68,1.86-2.03,1.641-3.391c-1.841-11.399-4.12-23.399-6.94-35.909c-3.04-13.49-6.39-26.17-9.88-38
		c7.689-5.57,15.38-11.13,23.07-16.7c5.409,13.03,11.159,30.15,14.63,50.17C491.25,350.37,490.94,371.43,489.53,387.14"/>
	<path clip-path="url(#SVGID_2_)" fill="#23AEB5" d="M472.357,275.806c0.014,0.033,0.027,0.068,0.041,0.101
		c0.647-0.469,1.296-0.938,1.943-1.407c-0.013-0.03-0.026-0.062-0.039-0.092C473.628,274.887,473.032,275.327,472.357,275.806"/>
	<path clip-path="url(#SVGID_2_)" fill="#23AEB5" d="M489.973,326.812c-3.675-21.197-9.731-38.777-15.428-52.102
		c-0.675,0.48-1.35,0.959-2.025,1.438c5.421,13.043,11.036,29.862,14.515,49.929c4.212,24.295,3.909,45.358,2.497,61.067
		c-29.68,13.354-59.357,26.71-89.036,40.065c30.146-13.476,60.293-26.95,90.439-40.427c1.041-0.465,1.748-1.456,1.832-2.593
		C493.898,368.935,493.865,349.26,489.973,326.812"/>
	<path clip-path="url(#SVGID_2_)" fill="#003399" d="M408.01,423.83c-2.5,1.13-5.01,2.25-7.51,3.38c-1.17-1.32-2.41-2.94-3.54-4.92
		c-2.71-4.74-3.53-9.22-3.8-12l5.95-3.37c0.63,2.39,1.58,5.1,2.989,7.96C403.89,418.5,405.99,421.47,408.01,423.83"/>
	<path clip-path="url(#SVGID_2_)" fill="#00828F" d="M455.557,355.325c0.381-3.638,0.81-7.683,1.28-12.081
		c0.901-8.421,1.073-9.85,1.102-12.488c0.086-7.877-1.263-11.99-0.734-12.123c0.821-0.206,5.02,9.511,6.061,21.123
		c0.39,4.337,0.253,7.991,0.042,10.584c-0.994-4.773-1.986-9.547-2.979-14.319C458.737,342.455,457.146,348.891,455.557,355.325"/>
</g>
</svg>
