<?xml version="1.0" encoding="utf-8"?>
<!-- Generator: Adobe Illustrator 16.0.0, SVG Export Plug-In . SVG Version: 6.00 Build 0)  -->
<!DOCTYPE svg PUBLIC "-//W3C//DTD SVG 1.1//EN" "http://www.w3.org/Graphics/SVG/1.1/DTD/svg11.dtd">
<svg version="1.1" id="Layer_1" xmlns="http://www.w3.org/2000/svg" xmlns:xlink="http://www.w3.org/1999/xlink" x="0px" y="0px"
	 width="876.087px" height="612.062px" viewBox="0 0 876.087 612.062" enable-background="new 0 0 876.087 612.062"
	 xml:space="preserve">
<g>
	<defs>
		<path id="SVGID_1_" d="M243.689,191.759c-15.33,82.66-92.01,14.34-172.499,90.98c-42.2,40.19-25.6,112.17-0.26,171.541
			c4.123,9.666,8.477,18.997,12.847,27.802c21.169,42.656,64.79,69.528,112.41,69.528h502.22
			c56.432,0,105.949-37.614,121.046-91.987c0.168-0.599,0.332-1.2,0.496-1.803c0.331-1.2,0.642-2.381,0.951-3.54
			c23.681-91.11-25.68-81.29-64.359-76.87c-57.011,6.51,32.52-72.34,13.409-164.271c-19.1-91.93-124.779-43.38-186.55-36.89
			c-61.779,6.49-47.88-80.24-173.71-110.88c-12.766-3.109-24.768-4.557-36.045-4.556C298.34,60.821,255.988,125.458,243.689,191.759
			"/>
	</defs>
	<clipPath id="SVGID_2_">
		<use xlink:href="#SVGID_1_"  overflow="visible"/>
	</clipPath>
	
		<linearGradient id="SVGID_3_" gradientUnits="userSpaceOnUse" x1="-63.7759" y1="806.2109" x2="-62.7759" y2="806.2109" gradientTransform="matrix(781.7039 0 0 -781.7039 49899.0742 630524.375)">
		<stop  offset="0" style="stop-color:#E3F4FF"/>
		<stop  offset="0.4118" style="stop-color:#E3F4FF"/>
		<stop  offset="0.7063" style="stop-color:#E1F3FF"/>
		<stop  offset="0.8516" style="stop-color:#D9F0FF"/>
		<stop  offset="0.9639" style="stop-color:#CCEAFF"/>
		<stop  offset="1" style="stop-color:#C6E7FF"/>
	</linearGradient>
	<rect x="28.99" y="60.812" clip-path="url(#SVGID_2_)" fill="url(#SVGID_3_)" width="815.589" height="490.797"/>
</g>
<g>
	<defs>
		<rect id="SVGID_4_" x="-63.776" y="-193.789" width="1000" height="1000"/>
	</defs>
	<clipPath id="SVGID_5_">
		<use xlink:href="#SVGID_4_"  overflow="visible"/>
	</clipPath>
	<path clip-path="url(#SVGID_5_)" fill="#BDDEEF" d="M820.9,454.279c-0.31,1.159-0.62,2.34-0.95,3.54
		c-0.165,0.604-0.329,1.204-0.495,1.802c-15.099,54.374-64.616,91.988-121.048,91.988h-502.22c-47.62,0-91.241-26.872-112.41-69.528
		c-4.37-8.805-8.724-18.137-12.847-27.802H820.9z"/>
	<path clip-path="url(#SVGID_5_)" fill="#BDDEEF" d="M311.538,261.688h-60.53v-66.523c1.36-1.665,12.235-14.524,30.565-14.383
		c17.97,0.138,28.557,12.659,29.965,14.383V261.688z"/>
	<path clip-path="url(#SVGID_5_)" fill="#99CCE0" d="M314.706,264.856h-66.868v-70.822l0.715-0.875
		c2.13-2.607,13.671-15.549,32.72-15.549c0.107,0,0.215,0.001,0.323,0.002c18.869,0.144,30.297,12.977,32.396,15.548l0.714,0.874
		V264.856z M254.176,258.519h54.193v-62.184c-2.958-3.312-12.298-12.273-26.822-12.385c-0.09,0-0.183-0.001-0.274-0.001
		c-14.68,0-24.114,9.046-27.097,12.386V258.519z"/>
	<path clip-path="url(#SVGID_5_)" fill="#BDDEEF" d="M654.746,261.688h-60.53v-66.523c1.359-1.665,12.234-14.524,30.564-14.383
		c17.971,0.138,28.558,12.659,29.966,14.383V261.688z"/>
	<path clip-path="url(#SVGID_5_)" fill="#99CCE0" d="M657.915,264.856h-66.868v-70.822l0.715-0.874
		c2.129-2.608,13.665-15.55,32.72-15.55c0.107,0,0.216,0.001,0.323,0.002c18.868,0.144,30.296,12.977,32.396,15.548l0.715,0.874
		V264.856z M597.384,258.519h54.192v-62.184c-2.958-3.312-12.298-12.273-26.821-12.385c-0.09,0-0.184-0.001-0.274-0.001
		c-14.684,0-24.115,9.045-27.097,12.386V258.519z"/>
	<path clip-path="url(#SVGID_5_)" fill="#99CCE0" d="M655.922,547.767c-142.127-0.511-284.255-1.021-426.383-1.532
		c15.812-17.652,50.017-48.059,65.828-65.712h409.656C694.788,498.687,666.158,529.603,655.922,547.767"/>
	<path clip-path="url(#SVGID_5_)" fill="#CCA279" d="M331.682,492.649c-3.19,0.465-7.829,0.608-12.333-1.649
		c-3.693-1.852-3.956-3.645-7.991-5.635c-1.98-0.975-8.1-3.993-13.798-1.264c-4.474,2.142-6.385,6.723-6.637,7.35
		c-0.504,1.257-0.676,2.287-0.813,2.997c-0.637,3.307-0.312,6.341-0.774,14.397c-0.52,9.09-0.707,13.667-2.342,17.173
		c-2.457,5.27-5.778,7.799-4.683,10.147c0.832,1.784,3.231,1.363,9.757,2.732c9.623,2.018,12.021,4.531,14.831,2.731
		c2.397-1.536,3.27-5.043,2.732-7.806c-0.712-3.66-4.009-6.571-8.196-7.025c2.282-4.07,4.748-8.241,7.415-12.488
		c0.382-0.607,0.763-1.21,1.145-1.809c1.903-2.981,5.302-4.664,8.83-4.397c5.001,0.377,10.002,0.755,15.004,1.132
		C333.112,503.707,332.397,498.178,331.682,492.649"/>
	<path clip-path="url(#SVGID_5_)" fill="#DDDDDD" d="M471.405,497.098c3.259,2.66,3.6,7.575,0.694,10.617
		c-0.016,0.018-0.032,0.034-0.048,0.051c-7.581,7.903-19.435,14.584-55.611,16.199c-22.629,1.013-55.449,0.077-95.016-9.631
		c0.906-7.468,1.806-14.935,2.706-22.403c3.344-1.155,9.357-3.081,17.444-5.029c22.331-5.37,60.444-10.864,101.548-0.626
		c3.469,0.596,6.556,1.216,9.226,1.787C460.562,489.757,466.832,493.364,471.405,497.098"/>
	<path clip-path="url(#SVGID_5_)" fill="#C6C6C6" d="M452.348,488.063c-2.67-0.572-5.757-1.192-9.226-1.788
		c-41.104-10.239-79.217-4.744-101.548,0.626c-8.088,1.949-14.101,3.874-17.445,5.03l0.537-3.063
		c2.521-1.067,5.357-2.187,8.499-3.314c12.813-4.595,30.65-9.22,52.189-9.75C415.416,475.06,438.981,482.634,452.348,488.063"/>
	<path clip-path="url(#SVGID_5_)" fill="#2256AA" d="M347.827,296.65c0.918-0.538,3.238-1.726,6.307-1.489
		c4.77,0.368,7.512,3.882,7.953,4.467c-0.375,1.683-0.75,3.365-1.125,5.048c-4.613-0.763-9.225-1.525-13.837-2.288
		C347.359,300.476,347.593,298.563,347.827,296.65"/>
	<path clip-path="url(#SVGID_5_)" fill="#5190B7" d="M399.53,430.211c0,0-39.166,26.311-88.884,21.575c0,0-2.574-33.754-2.665-51
		c-0.125-23.334-15.553-62.236,37.393-98.101c0.927-0.628,2.077-0.873,3.159-1.275c9.626,8.797,14.672,10.221,17.307,9.064
		c3.071-1.34,2.865-6.183,2.807-6.927v-0.02c0.014,0.01,0.031,0.02,0.044,0.034c1.241,0.862,2.449,1.854,3.626,2.97
		c10.265,9.706,18.088,28.853,23.219,58.37c0.666,3.817,1.285,7.812,1.86,11.982c0.382,2.767,0.724,7.56,1.018,13.238
		c0.264,5.147,0.49,11.026,0.67,16.776c0.067,2.266,0.132,4.515,0.186,6.688c0.027,1.097,0.05,2.175,0.074,3.23
		C399.466,422.249,399.53,427.022,399.53,430.211"/>
	<path clip-path="url(#SVGID_5_)" fill="#5190B7" d="M494.68,487.412c-3.421,3.611-7.473,7.413-12.233,11.145
		c-11.265,8.834-22.434,14.1-31.217,17.309c-5.495-9.87-11.862-15.301-17.035-18.485c-14.513-8.938-36.236-7.958-79.09-5.633
		c-6.327,0.343-24.155,1.411-34.111-9.15c-0.764-0.81-1.368-1.547-1.683-1.967c-5.047-6.729-6.473-15.364-8.667-28.843
		c-1.586-9.775-1.757-18.079-1.586-23.926c29.79-12.36,59.592-24.722,89.393-37.084c-0.425,5.579-0.851,21.273,9.328,30.952
		c3.651,3.472,8.198,5.717,12.201,7.697c9.306,4.6,17.078,6.091,19.75,6.676c20.112,4.408,35.337,18.125,38.816,21.412
		c0.178,0.169,0.326,0.31,0.557,0.532C489.723,468.326,493.413,479.098,494.68,487.412"/>
	<path clip-path="url(#SVGID_5_)" fill="#4080A0" d="M422.24,476.928c-19.506-1.2-74.563-7.16-102.127-48.051
		c-2.568-3.81-4.985-8.052-7.125-12.776c-6.832-26.556-8.098-47.528-6.866-57.268c0.605-4.787,1.823-13.827,8.128-21.974
		c0.254-0.328,0.48-0.601,0.671-0.825c2.296-2.705,10.171-11.985,21.01-10.856c7.836,0.816,12.767,6.609,13.943,8.086
		c5.635,7.072,5.026,15.903,5.373,18.695c3.072,24.743,2.752,47.823,15.155,67.799c9.011,15.786,25.456,29.706,57.035,41.063
		C425.705,466.19,423.973,471.56,422.24,476.928"/>
	<path clip-path="url(#SVGID_5_)" fill="#CCA279" d="M436.863,466.049c5.935,1.89,21.208,8.327,24.329,25.187
		c0.346,1.868-1.559,3.356-3.297,2.588c-3.495-2.671-7.795-5.49-12.943-8.01c-2.244-1.098-4.415-2.025-6.479-2.809
		c-1.776-0.075-4.614-0.417-7.769-1.824c-3.58-1.596-5.911-3.824-7.154-5.204c0.969-0.866,2.641-2.604,3.673-5.32
		c0.68-1.79,0.85-3.395,0.875-4.506c1.317,0.191,2.361,0.144,3.053,0.069c1.778-0.189,2.884-0.723,4.728-0.409
		C435.879,465.811,436.333,465.88,436.863,466.049"/>
	<path clip-path="url(#SVGID_5_)" fill="#987957" d="M457.24,486.223c-0.09-0.04-0.17-0.107-0.227-0.197
		c-5.003-8.095-11.506-11.12-11.57-11.149c-0.255-0.116-0.367-0.416-0.252-0.671c0.114-0.255,0.412-0.367,0.666-0.256
		c0.002,0.001,0.004,0.001,0.005,0.002c0.276,0.125,6.841,3.168,12.015,11.54c0.146,0.239,0.074,0.552-0.165,0.699
		C457.563,486.281,457.387,486.288,457.24,486.223"/>
	<path clip-path="url(#SVGID_5_)" fill="#987957" d="M457.763,492.228c-0.072-0.032-0.137-0.081-0.189-0.146
		c-5.893-7.333-15.171-12.217-15.263-12.265c-0.249-0.129-0.345-0.436-0.216-0.684c0.13-0.249,0.439-0.344,0.684-0.217
		c0.096,0.051,9.558,5.027,15.585,12.529c0.177,0.219,0.142,0.538-0.077,0.713C458.133,492.281,457.931,492.302,457.763,492.228"/>
	<path clip-path="url(#SVGID_5_)" fill="#CCA279" d="M470.459,443.504c9.603,5.05,17.098,16.245,14.358,20.75
		c-0.039,0.063-0.084,0.132-0.134,0.202c-1.008,1.414-3.031,1.649-4.441,0.638c-5.819-4.176-8.021-5.903-8.878-6.668
		c-0.262-0.233-1.367-1.243-3.02-2.342c-0.421-0.28-0.766-0.492-0.96-0.609c-0.733-0.587-1.104-0.876-1.113-0.866
		c-0.017,0.021,1.482,1.287,4.645,3.921c-0.044,0.242-0.928,0.646-1.484,0.68c-2.616,0.151-4.661-1.514-9.881-5.79
		c-1.517-1.244-3.48-2.911-5.717-4.971c0.89-0.667,2.446-2.024,3.527-4.267c0.713-1.477,0.977-2.832,1.079-3.779
		c0.836,0.068,1.703,0.161,2.601,0.285c1.929,0.269,3.702,0.639,5.306,1.058C467.131,442.008,468.664,442.56,470.459,443.504"/>
	<path clip-path="url(#SVGID_5_)" fill="#987957" d="M483.047,460.121c-0.074-0.041-0.137-0.104-0.178-0.185
		c-3.669-7.276-8.992-10.339-9.046-10.369c-0.209-0.117-0.283-0.382-0.165-0.591c0.116-0.208,0.379-0.282,0.588-0.168
		c0.001,0.001,0.002,0.001,0.003,0.002c0.227,0.127,5.601,3.208,9.396,10.734c0.108,0.214,0.021,0.476-0.192,0.583
		C483.32,460.195,483.168,460.188,483.047,460.121"/>
	<path clip-path="url(#SVGID_5_)" fill="#987957" d="M482.574,463.973c-0.06-0.032-0.111-0.079-0.151-0.14
		c-4.484-6.69-12.037-11.545-12.113-11.593c-0.202-0.129-0.262-0.396-0.133-0.6c0.129-0.202,0.4-0.259,0.6-0.133
		c0.077,0.049,7.781,4.996,12.368,11.843c0.133,0.199,0.08,0.469-0.12,0.602C482.885,464.047,482.711,464.049,482.574,463.973"/>
	<path clip-path="url(#SVGID_5_)" fill="#5190B7" d="M353.299,296.167c2.447,0.212,6.177,0.839,10.266,2.809
		c5.251,2.53,8.535,6.042,10.217,8.135c0.022,1.693,0.132,9.629,0.431,11.623c-1.635-2.223-7.524-8.656-11.144-11.361
		c-4.572-3.419-9.02-5.109-11.997-5.976C351.814,299.652,352.557,297.909,353.299,296.167"/>
	<path clip-path="url(#SVGID_5_)" fill="none" stroke="#4C6580" stroke-miterlimit="10" d="M353.299,296.167
		c2.447,0.212,6.177,0.839,10.266,2.809c5.251,2.53,8.535,6.042,10.217,8.135c0.022,1.693,0.132,9.629,0.431,11.623
		c-1.635-2.223-7.524-8.656-11.144-11.361c-4.572-3.419-9.02-5.109-11.997-5.976C351.814,299.652,352.557,297.909,353.299,296.167z"
		/>
	<path clip-path="url(#SVGID_5_)" fill="#BC956B" d="M372.256,329.298c-1.226-3.784-3.664-9.715-8.594-15.701
		c-5.442-6.604-11.451-10.281-15.118-12.164c0.012-1.71,0.026-3.42,0.037-5.129c0.029-3.903,0.06-7.804,0.089-11.707l0.005-0.708
		c0.219,0.062,1.653,0.452,3.681,1.004c6.054,1.653,17.391,4.762,17.411,4.956c-0.003,0.005-0.009,0.065-0.017,0.179
		c-0.214,2.077-0.453,4.822-0.615,8.059c0,0.023-0.003,0.046-0.003,0.069c-0.031,0.648-0.062,1.257-0.091,1.837
		c-0.21,4.322-0.295,6.913-0.039,10.068c0.011,0.128,0.022,0.259,0.034,0.39c0.244,2.73,0.472,2.89,2.13,12.42
		C371.641,325.604,372.017,327.841,372.256,329.298"/>
	<path clip-path="url(#SVGID_5_)" fill="#987957" d="M369.767,289.849c-0.003,0.006-0.009,0.065-0.017,0.179
		c-0.074,0.874-0.364,4.788-0.615,8.06c-0.048,0.628-0.096,1.231-0.139,1.786c0.014,0.037,0.031,0.077,0.045,0.12
		c-0.126,1.7-0.2,3.529-0.195,5.471c0.006,1.761,0.076,3.427,0.19,4.986c-2.007-0.44-4.306-1.16-6.709-2.354
		c-7.955-3.95-12.032-10.592-13.73-13.863c0-0.013,0.028-3.77,0.028-3.783c0-0.031,0.045-5.823,0.045-5.854
		c1.172,0.094,2.409,0.194,3.687,0.296C358.41,286.546,369.747,289.656,369.767,289.849"/>
	<path clip-path="url(#SVGID_5_)" fill="#5190B7" d="M347.827,296.65c0,0,8.213,10.801,20.299,14.818l-0.812,12.021
		c0,0-21.207-16.815-21.194-21.125L347.827,296.65z"/>
	<path clip-path="url(#SVGID_5_)" fill="#4C6580" d="M368.126,311.469c-0.005,3.43-0.254,8.579-0.392,12.05l-0.033,0.804
		l-0.649-0.502c-5.954-4.666-11.784-9.542-16.91-15.125c-1.55-1.892-3.665-3.809-4.023-6.331c0.635,2.432,2.845,4.098,4.465,5.908
		c5.415,5.23,11.216,10.063,16.992,14.888l-0.682,0.302C367.2,319.981,367.694,314.888,368.126,311.469"/>
	<path clip-path="url(#SVGID_5_)" fill="#4C6580" d="M367.58,318.421l0.2,2c1.675,2.654,3.321,5.903,4.703,8.911
		c2.764,6.169,4.799,12.662,6.104,19.294c0.603,3.323,1.082,6.672,1.284,10.04l-0.201-0.102c0.84-0.456,1.686-0.9,2.537-1.337
		c-0.85,0.568-1.707,1.127-2.57,1.675c-1.902-13.369-5.97-26.365-12.043-38.429l-0.013-0.024v-0.019L367.58,318.421z"/>
	<path clip-path="url(#SVGID_5_)" fill="#111010" d="M338.099,281.104c0.401,1.317,1.211,3.375,2.899,5.436
		c2.249,2.746,4.873,4.051,6.251,4.62c-1.064-1.447-2.189-3.166-3.261-5.164c-1.308-2.436-2.235-4.723-2.899-6.704
		C340.092,279.896,339.096,280.5,338.099,281.104"/>
	<path clip-path="url(#SVGID_5_)" fill="#BC956B" d="M361.359,305.729c1.564,0.851,4.69,2.249,8.57,1.875
		c2.671-0.257,5.47-1.362,9.031-4.337c8.073-6.744,11.467-15.933,14.182-23.544c0.822-2.305,2.848-8.276,4.142-16.373
		c1.553-9.715,1.482-13.954,1.566-17.934c0.02-0.964-1.058-6.56-1.689-7.307c-8.561-10.135-35.621-4.55-35.626-4.519
		c0,0.001,0.071,0.015,0.154,0.03c-2.246,0.403-8.465-2.224-11.224-1.207c-3.342,1.233-3.297,6.29-6.743,8.915
		C323.566,254.102,342.338,296.127,361.359,305.729"/>
	<path clip-path="url(#SVGID_5_)" fill="#111010" d="M341.149,274.46c-2.051-2.518-4.104-5.054-6.16-7.61
		c-1.412-1.754-2.815-3.506-4.21-5.254c-2.095-2.625-3.523-5.752-3.921-9.087c-0.034-0.287-0.062-0.58-0.083-0.879
		c-0.211-2.982,0.365-5.196,1.087-7.972c1.105-4.25,2.679-7.197,3.624-8.939c2.08-3.837,3.786-5.619,4.59-6.402
		c2.586-2.517,4.137-2.757,4.952-2.778c1.325-0.033,2.393,0.473,3.02,0.846c0.67-1.73,2.189-4.949,5.436-7.731
		c3.793-3.25,7.795-4.062,9.301-4.348c4.587-0.872,9.701,0.828,19.93,4.227c4.807,1.598,7.102,2.6,9.543,4.349
		c4.476,3.207,6.007,6.465,6.402,7.368c0.525,1.199,0.807,2.263,0.966,3.02c1.216,0.9,3.123,2.557,4.59,5.194
		c1.993,3.581,2.047,6.943,2.054,8.818c0.007,1.699-0.184,3.679-2.778,11.596c-0.782,2.386-1.866,5.565-3.262,9.301
		c1.464-5.411,1.17-9.462,0.604-12.2c-0.438-2.124-0.968-3.104-1.812-7.248c-0.737-3.619-0.977-6.03-1.087-7.61
		c-0.119-1.711-0.134-3.16-0.121-4.227c-1.438,0.639-3.682,1.507-6.522,2.053c-5.409,1.041-9.743,0.294-22.105-2.536
		c-4.917-1.126-9.235-2.154-12.804-3.02c0.664,2.217,2.314,8.773-0.363,16.427c-2.84,8.124-8.742,12.301-10.629,13.529
		C341.31,267.051,341.229,270.756,341.149,274.46"/>
	<path clip-path="url(#SVGID_5_)" fill="#484443" d="M385.027,228.484c-1.044-0.032-2.18-0.121-3.39-0.294
		c-2.351-0.335-4.388-0.904-6.062-1.503c0.908,1.331,2.284,3.019,4.288,4.59c1.086,0.851,2.141,1.499,3.08,1.993
		c-3.209,0.248-7.347,0.268-12.079-0.483c-4.054-0.644-7.492-1.688-10.207-2.718c2.832,1.88,8.64,5.184,16.729,6.039
		c6.946,0.735,12.524-0.659,15.643-1.691c-2.2-0.461-4.804-1.2-7.61-2.416c-1.732-0.75-3.262-1.56-4.59-2.355
		c0.938,0.28,2.627,0.65,4.711,0.362c1.845-0.254,3.232-0.919,4.047-1.389C388.067,228.575,386.547,228.53,385.027,228.484"/>
	<path clip-path="url(#SVGID_5_)" fill="#484443" d="M346.796,239.431c0.096,1.999-0.012,5.054-1.178,8.516
		c-1.752,5.2-4.932,8.463-6.613,9.965c1.134-0.426,4.934-2.016,7.247-6.16C349.463,246.001,347.108,240.168,346.796,239.431"/>
	<path clip-path="url(#SVGID_5_)" fill="#484443" d="M342.266,246.497c-0.598,1.473-1.507,3.318-2.899,5.254
		c-1.59,2.213-3.28,3.807-4.62,4.893c0.854-0.169,3.231-0.758,5.164-2.9C342.594,250.771,342.323,247.125,342.266,246.497"/>
	<path clip-path="url(#SVGID_5_)" fill="#484443" d="M397.015,245.591c-0.062,0.658-0.118,1.751,0.06,3.08
		c0.263,1.954,0.812,2.773,1.088,4.711c0.106,0.747,0.207,1.906,0.06,3.382c0.072-1.959,0.126-3.839,0.181-5.858
		c0.028-1.012,0.047-2.117-0.423-3.443C397.688,246.636,397.304,246.005,397.015,245.591"/>
	<path clip-path="url(#SVGID_5_)" fill="#BC956B" d="M341.139,279.94c-0.649,0.779-1.719,1.037-2.299,1.177
		c-2.1,0.506-3.857-0.379-4.329-0.617c-1.643-0.829-2.831-3.064-5.141-7.502c-0.661-1.269-1.308-2.804-2.603-5.874
		c-0.799-1.896-1.204-2.95-0.911-4.252c0.056-0.249,0.503-2.037,1.967-2.707c2.121-0.971,4.995,1.036,6.391,2.68
		c0.807,0.951,0.653,1.23,2.397,3.996c0.989,1.568,1.437,2.01,1.949,2.893C339.89,272.033,343.104,277.583,341.139,279.94"/>
	<path clip-path="url(#SVGID_5_)" fill="#FFFFFF" d="M362.816,274.1c1.054,0.097,2.106,0.345,3.121,0.556
		c0.755,0.198,1.521,0.41,2.273,0.669c4.496-0.534,6.064-5.07,6.064-5.07c-0.231-0.1-1.011-0.271-2.087-0.485
		c-2.106-0.421-5.35-0.991-7.879-1.416c-2.125-0.365-3.749-0.635-3.749-0.635S359.505,271.887,362.816,274.1"/>
	<path clip-path="url(#SVGID_5_)" fill="#3F2E20" d="M366.975,274.824c0.145,0.039,0.294,0.067,0.44,0.084
		c0.028,0.001,0.05,0.002,0.073,0.009c0.011-0.002,0.023,0.001,0.033-0.001c0.045,0.003,0.084,0.007,0.123,0.005
		c0.033,0,0.062,0.006,0.089,0.006c1.306-0.004,2.492-0.873,2.844-2.195c0.052-0.197,0.082-0.39,0.096-0.586
		c-0.023-1.311-0.801-2.458-1.916-2.864c-1.405-0.511-3.141,0.229-3.832,1.811c-0.003,0.011-0.007,0.018-0.011,0.029
		c-0.011,0.03-0.021,0.065-0.031,0.1c-0.007,0.023-0.014,0.041-0.016,0.063C364.492,272.838,365.422,274.415,366.975,274.824"/>
	<path clip-path="url(#SVGID_5_)" fill="#FFFFFF" d="M384.463,277.67c0.82,0.118,1.629,0.343,2.403,0.546
		c0.554,0.174,1.104,0.347,1.64,0.56c0.007-0.009,0.007-0.009,0.008-0.001c3.619-0.183,5.267-3.928,5.267-3.928
		c-0.214-0.11-1.063-0.359-2.218-0.666c-1.879-0.511-4.578-1.173-6.593-1.663c-1.543-0.378-2.674-0.647-2.674-0.647
		S381.524,275.694,384.463,277.67"/>
	<path clip-path="url(#SVGID_5_)" fill="#3F2E20" d="M387.777,278.291c0.122,0.014,0.243,0.015,0.362,0.01
		c0.025,0.003,0.043,0.001,0.061-0.002c0.011-0.001,0.017-0.002,0.03,0.002l0.165-0.023c1.019-0.15,1.879-0.988,2.079-2.13
		c-0.051-1.439-1.13-2.569-2.384-2.663c-0.981-0.073-1.955,0.496-2.465,1.44c-0.018,0.009-0.031,0.011-0.042,0.02
		c-0.028,0.13-0.052,0.251-0.06,0.384c-0.006,0.036-0.007,0.063-0.008,0.098c-0.002,0.021-0.005,0.042-0.001,0.062
		C385.459,276.914,386.474,278.133,387.777,278.291"/>
	<path clip-path="url(#SVGID_5_)" fill="#987957" d="M379.642,270.058c0.207,3.142,0.72,6.267,1.472,9.326
		c0.456,1.93,1.362,3.985,0.471,5.875c-0.823,1.797-2.874,2.963-4.859,2.646c-1.004-0.131-1.969-0.594-2.786-1.245
		c0.71,0.776,1.669,1.334,2.721,1.596c3.46,0.82,6.759-2.532,5.92-5.979C381.537,278.186,380.423,274.211,379.642,270.058"/>
	<path clip-path="url(#SVGID_5_)" d="M377.728,291.318c2.56,1.803,5.8,2.704,8.849,2.455c-1.479-0.222-2.894-0.69-4.146-1.359
		c-1.255-0.665-2.345-1.532-3.216-2.513c-0.401-0.451-1.11-0.545-1.584-0.209C377.063,290.081,377.117,290.921,377.728,291.318"/>
	<path clip-path="url(#SVGID_5_)" d="M373.723,289.034c-3.232,1.138-7.561,1.762-11.033,0.772c3.31,1.747,7.972,1.881,11.922,1.351
		C376.685,290.815,375.689,288.431,373.723,289.034"/>
	<path clip-path="url(#SVGID_5_)" fill="#111010" d="M374.876,257.817c-0.602,2.274-1.204,4.549-1.806,6.823
		c0,0-12.93-6.747-18.316,2.396c0,0,0.595-8.853,8.677-10.159c1.646-0.161,3.65-0.23,5.915-0.033
		C371.482,257.029,373.344,257.407,374.876,257.817"/>
	<path clip-path="url(#SVGID_5_)" fill="#111010" d="M384.771,259.9c-0.191,2.079-0.383,4.158-0.574,6.237
		c1.23-0.502,3.113-1.058,5.401-0.925c1.688,0.098,3.386,0.196,4.705,1.497c1.736,1.713,1.531,4.244,1.482,4.728
		c0.24-0.454,1.949-3.83,0.353-7.141c-1.062-2.203-3.004-3.164-3.983-3.649C388.97,259.07,385.88,259.638,384.771,259.9"/>
	<path clip-path="url(#SVGID_5_)" fill="#652B28" d="M376.134,296.771c2.206-0.542,2.726-0.751,2.711-0.833
		c-0.019-0.102-0.843,0.01-1.997,0.029c-1.4,0.023-2.42-0.104-3.5-0.238c-2.255-0.28-3.752-0.482-5.374-1.446
		c-0.306-0.183-0.549-0.352-0.709-0.468c0.61,0.651,1.73,1.676,3.423,2.373C373.073,297.169,375.208,296.931,376.134,296.771"/>
	<path clip-path="url(#SVGID_5_)" fill="#987957" d="M372.847,299.238c0.475-0.002,0.71-0.025,0.956-0.079
		c0.361-0.08,0.831-0.246,0.816-0.345c-0.012-0.079-0.33-0.082-0.843-0.1c-1.146-0.04-1.719-0.06-2.106-0.126
		c-1.082-0.183-1.624-0.275-1.811-0.354c-0.031-0.013-0.204-0.087-0.396-0.038c-0.019,0.005-0.221,0.058-0.236,0.168
		c-0.006,0.038,0.007,0.116,0.2,0.239c0.732,0.467,2.179,0.591,2.179,0.591C372.138,299.24,372.463,299.24,372.847,299.238"/>
	<path clip-path="url(#SVGID_5_)" fill="#4C6580" d="M381.288,352.565c0.056,0.588-0.158,1.089-0.477,1.119
		c-0.32,0.03-0.624-0.421-0.679-1.01c-0.056-0.588,0.158-1.089,0.477-1.119C380.928,351.525,381.232,351.978,381.288,352.565"/>
	<path clip-path="url(#SVGID_5_)" fill="#4C6580" d="M380.258,345.271c0.116,0.579-0.045,1.099-0.36,1.162
		c-0.314,0.063-0.663-0.355-0.779-0.935c-0.116-0.579,0.045-1.1,0.36-1.163C379.793,344.273,380.142,344.691,380.258,345.271"/>
	<path clip-path="url(#SVGID_5_)" fill="#4C6580" d="M378.566,338.437c0.116,0.579-0.045,1.099-0.36,1.162
		c-0.314,0.063-0.663-0.355-0.779-0.935c-0.116-0.579,0.045-1.1,0.36-1.162C378.102,337.439,378.451,337.857,378.566,338.437"/>
	<path clip-path="url(#SVGID_5_)" fill="#4C6580" d="M375.12,330.239c0.116,0.579-0.045,1.099-0.36,1.162
		c-0.314,0.063-0.663-0.355-0.779-0.935c-0.116-0.579,0.045-1.1,0.36-1.162C374.655,329.242,375.004,329.66,375.12,330.239"/>
	<path clip-path="url(#SVGID_5_)" fill="#4C6580" d="M372.825,322.483c0.116,0.579-0.045,1.1-0.36,1.162
		c-0.314,0.063-0.663-0.354-0.779-0.934c-0.116-0.579,0.045-1.101,0.36-1.163C372.36,321.486,372.709,321.904,372.825,322.483"/>
	<path clip-path="url(#SVGID_5_)" fill="#B73E8F" d="M402.849,415.298c3.696,7.364,8.139,12.076,11.592,15.026
		c1.439,1.23,5.674,4.691,21.748,11.418c6.914,2.894,13.066,5.155,18.123,6.887c0.705-0.288,3.853-1.663,5.292-5.144
		c0.793-1.92,0.728-3.663,0.62-4.598c-9.299-3.26-20.291-7.936-32.009-14.726c-10.286-5.959-18.837-12.22-25.735-17.94
		C402.603,409.246,402.726,412.272,402.849,415.298"/>
	<path clip-path="url(#SVGID_5_)" fill="#4080A0" d="M387.438,334.5c3.679,10.24,5.095,19.059,5.981,24.738
		c0.549,3.523,2.565,14.011,3.261,25.055c0.074,1.164,0.185,3.151,0.431,6.071c0.538,6.387,1.24,11.532,1.745,14.86
		c1.105,5.398,3.261,12.139,7.611,18.938c13.901,21.729,38.802,26.229,44.31,27.094c0.73-0.103,5.109-0.792,7.884-4.826
		c2.285-3.321,2.021-6.788,1.918-7.721c-2.772-0.627-6.681-1.68-11.161-3.492c-5.364-2.171-17.881-8.006-28.453-20.66
		c-10.892-13.04-14.171-26.684-15.404-32.077c-3.009-13.168-0.614-18.456-5.256-34.252c-1.11-3.78-3.221-10.191-7.43-17.398
		c-3.117-5.337-6.032-8.791-6.887-9.786c-3.536-4.114-7.048-7.1-9.786-9.152C381.615,320.234,385.115,328.034,387.438,334.5"/>
</g>
</svg>
