<?xml version="1.0" encoding="utf-8"?>
<!-- Generator: Adobe Illustrator 16.0.0, SVG Export Plug-In . SVG Version: 6.00 Build 0)  -->
<!DOCTYPE svg PUBLIC "-//W3C//DTD SVG 1.1//EN" "http://www.w3.org/Graphics/SVG/1.1/DTD/svg11.dtd">
<svg version="1.1" id="Layer_1" xmlns="http://www.w3.org/2000/svg" xmlns:xlink="http://www.w3.org/1999/xlink" x="0px" y="0px"
	 width="700px" height="634px" viewBox="0 0 700 634" enable-background="new 0 0 700 634" xml:space="preserve">
<g>
	<defs>
		<rect id="SVGID_1_" x="-174" y="-173" width="1000" height="1000"/>
	</defs>
	<clipPath id="SVGID_2_">
		<use xlink:href="#SVGID_1_"  overflow="visible"/>
	</clipPath>
	<g clip-path="url(#SVGID_2_)">
		<defs>
			<rect id="SVGID_3_" x="-174" y="-173" width="1000" height="1000"/>
		</defs>
		<clipPath id="SVGID_4_">
			<use xlink:href="#SVGID_3_"  overflow="visible"/>
		</clipPath>
		<path clip-path="url(#SVGID_4_)" fill="#E3F4FF" d="M210.439,98.381c-8.834,8.531-17.134,18.426-22.586,28.517
			c-11.457,21.206-12.4,51.478-8.953,74.629c2.38,15.998,12.75,38.207,7.658,54.395c-6.9,21.93-43.239,21.036-60.972,26.527
			c-16.297,5.047-31.752,17.46-40.065,32.572c-25.501,46.36,5.17,71.198,20.511,91.928c17.44,23.568-20.559,52.067,1.266,75.585
			c22.822,24.588,50.308,34.804,95.934,34.804c90.396,0,110.638,7.098,235.907-1.783c23.734-1.681,55.359-7.098,79.016-9.637
			c35.708-3.834,123.783-34.856,100.802-93.533c-17.004-43.415-106.294-36.736-76.371-96.082
			c19.571-38.815,56.369-92.688,10.611-126.982c-33.229-24.901-54.497-39.202-73.779-76.854
			c-21.112-41.222-50.736-63.556-97.375-67.48c-25.243-2.124-50.823-1.925-75.629,3.701c-30.251,6.862-60.145,19.975-84.389,39.478
			C218.187,91.251,214.263,94.688,210.439,98.381"/>
		<path clip-path="url(#SVGID_4_)" fill="#BDDEEF" d="M494.361,387.55c-3.494-26.398,41.869-28.717,37.558-3.791
			c9.975-16.637,37.945-0.301,30.217,18.549c8.164-1.481,14.673,5.178,17.718,12.196c3.762,8.661,0.992,14.874-4.807,21.907
			c7.82-0.094,16.066,6.762,16.577,14.828c0.743,11.669-1.111,15.158-7.378,21.372c8.629,0.852,11.276,11.374,11.03,19.173
			c-0.378,11.954-6.306,14.598-16.743,16.549c-12.284,2.298-22.482,2.406-34.926,0.896c-10.405-1.266-21.608-5.013-32.393-4.919
			c-17.645,0.153-35.199-2.013-52.635-4.483c-11.771-1.665-28.303-0.66-35.959-11.227c-6.207-8.573-8.41-19.478-4.299-29.305
			c2.24-5.358,13.773-20.062,20.48-10.627c-9.565-7.762-9.61-15.332-6.684-24.231c2.941-8.933,13.303-16.769,22.231-12.162
			c-5.972-11.562-0.714-23.918,9.898-31.31C464.249,380.965,483.263,368.295,494.361,387.55"/>
		<path clip-path="url(#SVGID_4_)" fill="#BDDEEF" d="M218.646,415.176c-3.494-26.397,41.869-28.717,37.558-3.791
			c9.974-16.637,37.945-0.301,30.216,18.549c8.164-1.481,14.673,5.179,17.718,12.196c3.762,8.661,0.992,14.874-4.806,21.907
			c7.82-0.093,16.066,6.762,16.577,14.829c0.743,11.668-1.112,15.157-7.378,21.372c8.629,0.851,11.276,11.374,11.03,19.172
			c-0.378,11.955-6.306,14.598-16.743,16.549c-12.284,2.298-22.483,2.407-34.926,0.896c-10.405-1.266-21.609-5.013-32.393-4.919
			c-17.644,0.153-35.199-2.013-52.634-4.483c-11.771-1.665-28.303-0.66-35.959-11.227c-6.207-8.572-8.41-19.478-4.299-29.305
			c2.24-5.358,13.773-20.061,20.48-10.627c-9.565-7.761-9.61-15.332-6.683-24.231c2.941-8.933,13.303-16.769,22.231-12.161
			c-5.971-11.563-0.714-23.919,9.899-31.311C188.533,408.591,207.546,395.921,218.646,415.176"/>
		<path clip-path="url(#SVGID_4_)" fill="#99CCE0" d="M365.06,447.322c-16.043-17.826,9.358-42.316,26.698-28.123
			c-14.452-28.586,36.047-44.749,37.916-14.528c12.692-16.211,41.679-7.569,35.258,14.782c24.492-7.351,36.273,24.908,21.479,36.779
			c12.779,3.059,15.012,22.305,5.778,29.68c-8.344,6.662-29.044,5.092-39.945,5.093c-14.388,0.001-28.976-0.873-42.991-2.044
			c-15.908-1.329-40.872,3.562-54.07-8.121c-5.854-5.184-12.389-9.867-9.433-24.56C346.899,450.572,359.601,438.128,365.06,447.322"
			/>
		<path clip-path="url(#SVGID_4_)" fill="#99CCE0" d="M545.304,469.955c-8.629-9.587,5.034-22.761,14.36-15.127
			c-7.773-15.377,19.393-24.071,20.396-7.814c6.829-8.723,22.42-4.073,18.966,7.95c13.178-3.954,19.516,13.4,11.555,19.784
			c6.874,1.646,8.076,11.999,3.108,15.965c-4.487,3.584-15.622,2.74-21.486,2.741c-7.74,0.001-15.59-0.47-23.125-1.102
			c-8.56-0.715-21.988,1.917-29.087-4.367c-3.15-2.788-6.663-5.308-5.072-13.211C535.536,471.705,542.365,465.009,545.304,469.955"
			/>
		<path clip-path="url(#SVGID_4_)" fill="#BDDEEF" d="M633.438,509.424c0,28.696-128.209,51.955-286.359,51.955
			c-158.147,0-286.356-23.259-286.356-51.955c0-28.693,128.209-51.95,286.356-51.95C505.229,457.474,633.438,480.73,633.438,509.424
			"/>
		<path clip-path="url(#SVGID_4_)" fill="#C6C6C6" d="M434.198,468.646c4.186-9.646,8.056-20.308,1.995-28.573
			c-6.062-8.265-17.27-11.2-26.385-8.273c-55.878,17.938-108.217,15.955-168.882,3.392c-8.41-1.741-22.614,4.36-26.044,13.209
			c-3.43,8.85,0.557,19.252,7.665,24.575C222.547,472.976,372.367,514.267,434.198,468.646"/>
		<path clip-path="url(#SVGID_4_)" fill="#5190B7" d="M394.357,406.581c-7.841,11.842-31.756-19.389-33.464-21.948
			c-2.954,12.39,6.662,51.832,21.948,69.693c-58.201,60.45-89.049,7.604-113.482,6.076c5.602-12.901,9.711-23.723,11.537-34.032
			v-0.005c1.99-11.229,1.268-21.847-3.184-33.858c-2.632,1.956-5.096,3.591-7.401,4.938c-39.054,22.839-31.935-37.808-25.521-58.324
			c9.114-20.635,27.15-29.8,47.83-34.016c10.788-2.446,16.548-4.075,28.306-1.527c13.73,2.136,30.521,5.969,41.85,12.118
			c4.521,2.502,9.243,5.862,10.974,10.608C376.399,330.631,397.23,402.709,394.357,406.581"/>
		<path clip-path="url(#SVGID_4_)" fill="#4080A0" d="M280.897,426.364c1.99-11.228,1.268-21.846-3.184-33.857
			c-2.633,1.956-5.096,3.591-7.401,4.938l-1.088-2.97l14.08-16.013C288.501,391.048,281.032,425.751,280.897,426.364"/>
		<path clip-path="url(#SVGID_4_)" fill="#BC956B" d="M328.17,308.577c-8.855,11.673-15.607,23.56-18.504,35.83
			c-3.867-14.953-10.98-25.831-19.851-34.466c0,0,2.643-3.252,4.915-6.476c0.823-1.178,1.6-2.356,2.181-3.365
			c0.113-0.192,0.22-0.372,0.31-0.547c0.006-0.005,0.011-0.017,0.017-0.022c0.096-0.186,0.186-0.361,0.265-0.524
			c0.637-1.331,0.918-3.703,1.009-6.15c0.169-4.052-0.158-8.296-0.158-8.296l26.35,0.372c0,0-0.175,3.156-0.479,7.975
			c-0.079,1.324-0.186,2.784-0.288,4.334v0.029c-0.073,0.992-0.034,1.933,0.079,2.812c0.248,2.012,0.885,3.697,1.589,5.028
			C326.795,307.36,328.17,308.577,328.17,308.577"/>
		<path clip-path="url(#SVGID_4_)" fill="#987957" d="M325.605,305.111c-3.696,4.023-10.423,8.858-15.8,8.785
			c-9.007-0.22-14.208-6.373-15.076-10.431c0.823-1.178,1.601-2.356,2.181-3.365c0.113-0.191,0.22-0.372,0.31-0.546
			c0.006-0.006,0.012-0.017,0.017-0.023c0.096-0.186,0.186-0.361,0.265-0.524c0.637-1.33,0.919-3.703,1.009-6.149
			c0.169-4.053-0.158-8.297-0.158-8.297l26.35,0.372c0,0-0.174,3.156-0.479,7.975c-0.079,1.325-0.186,2.785-0.287,4.335v0.028
			c-0.074,0.992-0.034,1.933,0.079,2.813C324.264,302.096,324.9,303.781,325.605,305.111"/>
		<path clip-path="url(#SVGID_4_)" fill="#5190B7" d="M297.701,300.353c0,0-4.531,3.202-3.589,8.169
			c0.943,4.968,9.578,11.914,9.578,11.914l-3.743,15.688c0,0-17.128-14.624-9.368-30.43c0.322-0.655,0.813-1.214,1.423-1.613
			L297.701,300.353z"/>
		<path clip-path="url(#SVGID_4_)" fill="#5190B7" d="M324.242,301.411c0,0,2.162,1.725,1.666,6.556
			c-0.515,5.029-9.641,12.227-9.641,12.227l4.344,15.532c0,0,16.368-15.932,8.111-31.07c-0.251-0.46-0.663-0.815-1.106-1.097
			L324.242,301.411z"/>
		<path clip-path="url(#SVGID_4_)" fill="#4C6580" d="M303.689,320.436c-1.073,5.505-2.287,10.977-3.494,16.449
			c-5.62-4.939-10.327-11.352-11.72-18.832c-0.676-3.61-0.319-7.429,1.093-10.808c0.543-1.262,1.083-2.682,2.361-3.385
			c0.77-0.48,4.914-2.984,5.771-3.507l-4.418,3.11c-1.142,0.774-2.201,1.437-2.633,2.773c-4.842,10.63,1.733,22.313,9.562,29.579
			c-0.001,0-0.66,0.215-0.66,0.215C300.888,330.82,302.224,325.613,303.689,320.436"/>
		<path clip-path="url(#SVGID_4_)" fill="#4C6580" d="M324.241,301.411c2.713,2.838,2.338,7.686,0.159,10.745
			c-2.165,3.198-4.933,5.887-7.872,8.37l0.146-0.446l4.415,15.512l-0.825-0.223c6.848-7.175,12.759-17.627,9.535-27.75
			c-0.42-1.086-0.833-2.411-1.515-3.342c-0.452-0.544-1.375-1.02-1.938-1.448C325.676,302.355,324.966,301.87,324.241,301.411
			 M324.241,301.411c1.325,0.917,3.016,1.6,4.241,2.686c0.781,0.962,1.234,2.251,1.729,3.378c3.721,10.325-2.229,21.19-9.254,28.607
			l-0.596,0.613l-0.229-0.836l-4.274-15.552l-0.075-0.273c1.552-1.216,3.056-2.525,4.469-3.915c2.514-2.622,5.539-5.557,5.573-9.429
			C325.867,304.844,325.567,302.802,324.241,301.411"/>
		<path clip-path="url(#SVGID_4_)" fill="#4C6580" d="M312.15,378.487l4.96-0.156l-0.104,0.108
			c-0.667-13.736-0.957-27.804,2.274-41.261c0.572-1.884,1.191-3.826,2.409-5.399c-1.032,1.686-1.536,3.607-1.954,5.514
			c-2.513,13.535-2.187,27.422-2.519,41.139l-0.001,0.11l-0.103-0.001L312.15,378.487z"/>
		<path clip-path="url(#SVGID_4_)" fill="#BC956B" d="M281.959,263.584c-1.031-2.605-2.399-4.353-3.346-5.382
			c-1.06-1.152-2.109-2.262-3.835-2.665c-0.529-0.124-2.152-0.502-3.322,0.383c-0.954,0.721-1.19,1.965-1.278,3.322
			c-0.189,2.945,0.355,5.939,2.108,10.668c1.774,4.783,2.896,6.249,4,7.275c1.76,1.636,3.155,1.859,3.855,1.891
			c0.451,0.021,1.376,0.051,2.254-0.509c1.746-1.113,1.681-3.519,1.673-3.709C283.366,271.101,282.663,267.343,281.959,263.584"/>
		<path clip-path="url(#SVGID_4_)" fill="#BC956B" d="M336.801,278.641c0.412,0.386,1.142,0.945,2.133,1.067
			c0.344,0.042,1.75,0.158,3.783-1.649c4.498-3.999,4.783-10.946,4.896-13.722c0.054-1.287,0.049-3.43-1.261-5.188
			c-0.35-0.47-1.036-1.364-2.133-1.504c-0.887-0.113-1.599,0.323-2.085,0.631c-1.88,1.187-2.544,3.263-2.765,4.121
			C339.37,262.396,335.54,275.731,336.801,278.641"/>
		<path clip-path="url(#SVGID_4_)" fill="#BC956B" d="M339.057,242.075c-0.932-3.651-1.87-7.322-4.655-10.91
			c-7.704-9.925-22.798-10.515-32.148-8.582c-4.068,0.84-11.133,2.301-16.438,8.291c-5.721,6.461-5.967,14.323-6.255,23.566
			c-0.28,8.972,1.379,15.243,3.928,24.874c1.004,3.795,2.861,10.087,7.273,16.293c1.932,2.717,3.699,4.497,6.037,5.818
			c2.813,1.59,5.297,1.863,8.874,2.255c3.776,0.415,7.437,0.816,11.637-0.8c0.508-0.196,2.568-1.012,5.067-2.958
			c7.476-5.823,12.603-16.874,14.062-20.171C336.438,279.751,342.936,253.276,339.057,242.075"/>
		<path clip-path="url(#SVGID_4_)" fill="#111010" d="M338.764,265.017c2.101-3.536,4.302-8.081,5.879-13.595
			c1.248-4.361,2.914-10.417,1.837-18.004c-0.674-4.75-1.415-9.968-5.756-13.228c-3.413-2.563-7.386-2.664-9.309-2.572
			c0.07-1.87-0.319-3.245-0.612-4.042c-2.101-5.706-8.685-7.359-9.553-7.563c-1.332-0.313-2.427-0.367-3.218-0.378
			c-6.217-0.082-12.434,2.306-16.869,4.512c0,0-7.735,3.231-15.31,8.696c-1.5,1.083-3.943,2.961-4.531,6.001
			c-0.189,0.975-0.138,1.817-0.062,2.388c-0.964,0.334-4.819,1.795-6.92,5.879c-0.779,1.515-1.142,3.059-1.286,5.696
			c-0.459,8.422,1.937,15.194,2.45,16.595c1.091,2.987,3.007,7.233,6.43,11.758c-0.612-2.297-1.141-5.613-0.367-9.369
			c0.349-1.699,0.702-2.211,2.327-6.614c1.761-4.772,2.641-7.158,3.123-9.308c0.541-2.416,1.002-6.08,0.245-10.901
			c3.23,0.521,6.775,0.889,10.594,0.979c12.956,0.309,23.733-2.68,31.293-5.634c-0.199,3.978,0.009,10.888,3.309,18.494
			c1.877,4.329,4.217,7.64,6.185,9.982C338.682,258.198,338.723,261.607,338.764,265.017"/>
		<path clip-path="url(#SVGID_4_)" fill="#484443" d="M290.17,223.16c2.361-0.039,5.088-0.236,8.084-0.735
			c3.36-0.559,6.289-1.37,8.726-2.204c-2.235,1.99-4.47,3.98-6.706,5.97c2.503-0.123,5.28-0.399,8.268-0.918
			c4.501-0.783,8.415-1.934,11.666-3.123c-2.855,1.75-6.866,3.781-11.942,5.144c-7.87,2.113-14.636,1.636-18.739,1.01
			c3.093-1.408,6.185-2.817,9.278-4.225C295.927,223.771,293.048,223.465,290.17,223.16"/>
		<path clip-path="url(#SVGID_4_)" fill="#484443" d="M284.628,232.805c0.427,2.02,0.795,4.907,0.429,8.329
			c-0.521,4.858-2.278,8.51-3.491,10.594c0.638-3.089,1.236-6.316,1.776-9.676C283.853,238.869,284.278,235.784,284.628,232.805"/>
		<path clip-path="url(#SVGID_4_)" fill="#484443" d="M280.954,239.909c0.283,1.47,0.548,3.846,0,6.675
			c-0.438,2.261-1.242,4.025-1.899,5.205c0.111-1.742,0.304-3.629,0.613-5.634C280.018,243.879,280.467,241.792,280.954,239.909"/>
		<path clip-path="url(#SVGID_4_)" fill="#484443" d="M334.446,231.703c-1.218,3.011-0.284,5.898,0.275,7.624
			c1.308,4.038,3.913,6.629,5.42,7.9c-1.124-1.767-2.451-4.263-3.399-7.441c-1.214-4.071-1.316-7.626-1.194-10.012
			C335.224,230.202,334.792,230.849,334.446,231.703"/>
		<path clip-path="url(#SVGID_4_)" d="M308.939,286.758c-3.988,2.185-8.775,2.763-13.081,1.578
			c4.195,0.228,8.412-1.167,11.523-3.876C308.994,283.183,310.724,285.73,308.939,286.758"/>
		<path clip-path="url(#SVGID_4_)" d="M313.094,283.92c3.564,2.078,7.967,2.657,12.046,1.648c-4.009,1.971-8.818,2.3-13.145,0.901
			C310.051,285.795,311.267,282.967,313.094,283.92"/>
		<path clip-path="url(#SVGID_4_)" fill="#542525" d="M312.198,248.814l0.776,4.456c0,0,11.049-3.715,20.52-0.243
			C333.494,253.027,326.201,245.543,312.198,248.814"/>
		<path clip-path="url(#SVGID_4_)" fill="#542525" d="M303.989,250.422l0.015,4.523c0,0-11.528-1.725-20.247,3.349
			C283.757,258.294,289.63,249.65,303.989,250.422"/>
		<path clip-path="url(#SVGID_4_)" fill="#987957" d="M309.031,259.606c1.185,1.632,2.221,4.335,3.133,6.145
			c1.827,4.005,5.048,9.146,1.604,13.204c-1.701,1.695-4.737,2.021-6.621,0.526c3.316,1.184,7.128,0.017,7.388-3.902
			c0.46-3.475-1.732-6.419-2.962-9.554C310.812,264.147,309.48,261.576,309.031,259.606"/>
		<path clip-path="url(#SVGID_4_)" fill="#FFFFFF" d="M302.571,262.03c0,0,1.342,6.749-5.86,7.841c-7.194,1.09-9.2-5.852-9.2-5.852
			c1.37-1.058,2.87-1.744,4.379-2.169c2.696-0.77,5.413-0.703,7.431-0.46C301.271,261.622,302.571,262.03,302.571,262.03"/>
		<path clip-path="url(#SVGID_4_)" fill="#3F2E20" d="M296.985,267.674c-0.215,0.083-0.434,0.142-0.649,0.184l-0.159,0.03
			c-0.057,0.003-0.12,0.015-0.178,0.018c-0.047,0.01-0.087,0.017-0.136,0.019c-1.938,0.169-3.816-0.967-4.518-2.885
			c-0.197-0.547-0.281-1.108-0.263-1.656c0.005-0.141,0.019-0.284,0.042-0.42c0.04-0.305,0.106-0.598,0.215-0.891
			c0.182-0.077,0.366-0.154,0.55-0.222c2.696-0.771,5.414-0.704,7.432-0.46c0.089,0.164,0.171,0.329,0.238,0.506
			c0.018,0.046,0.035,0.092,0.054,0.146c0.013,0.031,0.028,0.061,0.034,0.093C300.416,264.395,299.235,266.857,296.985,267.674"/>
		<path clip-path="url(#SVGID_4_)" fill="#987957" d="M289.699,271.043c1.927-0.919,4.076-1.225,6.177-1.446
			c2.09-0.125,4.34-0.326,6.311,0.542c-2.075-0.241-4.164,0.124-6.238,0.264C294.103,270.581,291.516,270.765,289.699,271.043"/>
		<path clip-path="url(#SVGID_4_)" fill="#FFFFFF" d="M330.092,259.845c0,0-0.533,7.206-7.798,7.621
			c-7.272,0.415-7.349-6.466-7.349-6.466s1.139-0.657,2.984-1.27c2.037-0.68,4.942-1.309,8.09-0.946
			C327.349,258.933,328.722,259.269,330.092,259.845"/>
		<path clip-path="url(#SVGID_4_)" fill="#3F2E20" d="M326.599,261.682c-0.283,2.053-1.919,3.569-3.875,3.802
			c-0.048,0.009-0.097,0.01-0.137,0.018c-0.065,0.002-0.121,0.011-0.186,0.012h-0.048c-0.041,0.001-0.073,0.001-0.114,0.01
			c-0.218-0.004-0.445-0.017-0.681-0.054c-2.402-0.334-4.088-2.534-3.795-4.935c0-0.033,0.008-0.065,0.007-0.106
			c0.007-0.048,0.014-0.105,0.03-0.154c0.029-0.188,0.075-0.373,0.129-0.544c2.037-0.68,4.942-1.31,8.09-0.947
			c0.157,0.249,0.274,0.514,0.369,0.788c0.05,0.129,0.093,0.274,0.128,0.411C326.653,260.523,326.687,261.098,326.599,261.682"/>
		<path clip-path="url(#SVGID_4_)" fill="#987957" d="M329.313,267.299c-1.826,0.066-4.419,0.372-6.259,0.542
			c-2.064,0.252-4.184,0.284-6.177,0.909c1.773-1.221,4.021-1.446,6.098-1.714C325.08,266.86,327.247,266.757,329.313,267.299"/>
		<path clip-path="url(#SVGID_4_)" fill="#987957" d="M301.31,290.368c0,0,8.31,3.972,18.699-1.768
			C320.009,288.6,312.193,291.593,301.31,290.368"/>
		<polygon clip-path="url(#SVGID_4_)" fill="#FFAD42" points="385.527,287.724 318.694,295.946 318.074,290.847 384.906,282.624 		
			"/>
		<polygon clip-path="url(#SVGID_4_)" fill="#FB8E21" points="389.34,287.257 385.529,287.722 385.415,286.77 384.904,282.624 
			388.719,282.154 		"/>
		<path clip-path="url(#SVGID_4_)" fill="#FB8E21" d="M299.196,294.791l9.221,0.026l0.382,0.765
			c1.457,1.691,4.428,1.037,6.644,0.765l3.252-0.4l-0.621-5.1l-18.996,2.337L299.196,294.791z"/>
		<path clip-path="url(#SVGID_4_)" fill="#4F352D" d="M328.556,290.954c0.043,0.351-0.954,0.762-2.229,0.919
			c-1.275,0.157-2.343,0-2.387-0.351c-0.043-0.351,0.956-0.762,2.231-0.919C327.444,290.446,328.513,290.603,328.556,290.954"/>
		<path clip-path="url(#SVGID_4_)" fill="#4F352D" d="M338.721,289.704c0.043,0.351-0.955,0.763-2.229,0.919
			c-1.275,0.157-2.344,0-2.388-0.351c-0.043-0.351,0.956-0.762,2.231-0.919C337.608,289.195,338.678,289.353,338.721,289.704"/>
		<path clip-path="url(#SVGID_4_)" fill="#4F352D" d="M348.886,288.453c0.043,0.351-0.955,0.762-2.23,0.919
			c-1.274,0.157-2.343,0-2.386-0.351c-0.044-0.351,0.955-0.763,2.229-0.919C347.773,287.945,348.843,288.102,348.886,288.453"/>
		<path clip-path="url(#SVGID_4_)" fill="#4F352D" d="M359.051,287.202c0.043,0.351-0.955,0.762-2.23,0.919
			c-1.275,0.157-2.343,0-2.387-0.351c-0.043-0.351,0.956-0.763,2.23-0.919C357.938,286.694,359.007,286.852,359.051,287.202"/>
		<path clip-path="url(#SVGID_4_)" fill="#4F352D" d="M369.215,285.952c0.043,0.351-0.955,0.763-2.229,0.919
			c-1.275,0.157-2.344,0-2.388-0.351c-0.043-0.351,0.956-0.762,2.231-0.919C368.103,285.444,369.172,285.601,369.215,285.952"/>
		<path clip-path="url(#SVGID_4_)" fill="#4F352D" d="M379.38,284.701c0.043,0.351-0.955,0.762-2.23,0.919
			c-1.274,0.157-2.343,0-2.386-0.351c-0.044-0.351,0.955-0.762,2.23-0.919C378.268,284.193,379.337,284.35,379.38,284.701"/>
		<g opacity="0.15" clip-path="url(#SVGID_4_)">
			<g>
				<defs>
					<rect id="SVGID_5_" x="308.417" y="286.3" width="80.923" height="10.4"/>
				</defs>
				<clipPath id="SVGID_6_">
					<use xlink:href="#SVGID_5_"  overflow="visible"/>
				</clipPath>
				<path clip-path="url(#SVGID_6_)" d="M389.34,287.257l-3.811,0.465l-66.834,8.223l-3.251,0.4
					c-2.215,0.272-5.186,0.927-6.644-0.763l-0.383-0.765l0.98-0.072l9.188,0.25l66.83-8.226l3.813-0.469L389.34,287.257z"/>
			</g>
		</g>
		<path clip-path="url(#SVGID_4_)" fill="#CCA279" d="M391.205,290.683c-0.259,0.874-1.229,1.246-2.176,1.612
			c-0.265,0.09-0.518,0.192-0.755,0.293c-2.035,0.902-3.297,2.801-4.199,4.876c0,0.005-0.017,0.016-0.017,0.028
			c-0.316,0.749-0.599,1.51-0.846,2.254l-0.091,0.276l-0.039,0.119c-0.761,2.316-2.582,4.188-4.334,5.738
			c-0.13,0.112-0.248,0.219-0.372,0.326c-0.187,0.153-0.665,0.564-0.648,0.637c0,0.012,0.006,0.012,0,0.023
			c0.006,0.011,0.017,0.09,0.022,0.237c0,0.022,0.006,0.045,0.006,0.073c0.022,0.327,0.078,0.913,0.13,1.606
			c0.141,1.81,0.344,4.425,0.457,5.637c0.005,0.045,0.005,0.084,0.011,0.118c0.027,0.361,0.096,0.71,0.18,1.037
			c0.006,0.011,0.006,0.011,0.012,0.023c0.012,0.665,0.018,1.234,0.039,1.629c0.028,1.065,0.372,1.995,0.699,2.902l-14.265,6.409
			l-0.058-6.195l-0.051-4.79v-0.006c-0.118-1.443-0.523-2.739-1.059-3.996c-0.316-0.756-0.683-1.494-1.061-2.249
			c-0.101-0.209-0.208-0.423-0.315-0.637c-0.174-0.355-0.36-0.71-0.524-1.077c-0.235-0.479-0.456-0.975-0.653-1.488
			c-1.567-3.956-3.19-8.043-2.908-12.163c0.006-0.067-0.034-0.135-0.084-0.18c-0.784-0.541-1.472-1.663-2.024-2.559
			c-0.106-0.169-0.208-0.338-0.304-0.496c-0.536-0.846-0.789-2.188-0.079-3.1c0.293-0.383,0.744-0.784,1.268-0.93
			c0.028-0.011,0.057-0.006,0.09-0.023c0.018-0.005,0.046-0.011,0.073-0.017c0.079-0.028,0.153-0.062,0.227-0.107
			c0.203-0.129,0.349-0.343,0.372-0.586c0.006-0.045,0.006-0.084,0.006-0.129c0-0.012-0.006-0.023,0-0.029
			c-0.006-0.135,0.005-0.27,0.05-0.4c0.462-1.353,2.638-1.837,3.038-1.877c0.925-0.096,1.353-0.129,2.497,0.293
			c0.022,0.012,0.034,0.012,0.057,0.012l0.011,0.005c0.063,0.023,0.124,0.034,0.187,0.04c0.399,0.017,0.771-0.22,0.879-0.592
			c0.011-0.068,0.017-0.13,0.017-0.209l0.007-0.005c0.005-0.164,0.032-0.338,0.096-0.502c0.056-0.13,0.118-0.237,0.197-0.332
			c0.523-0.609,1.656-0.609,2.175-0.575c0.463,0.022,0.93,0.073,1.381,0.141c0.119,0.011,0.23,0.011,0.344-0.029
			c0.058-0.005,0.113-0.028,0.169-0.056c0.192-0.09,0.344-0.248,0.412-0.451c0.045-0.096,0.056-0.197,0.05-0.31
			c0-0.039-0.005-0.084-0.017-0.135c0,0-0.005,0,0-0.011c-0.05-0.237-0.05-0.48,0.022-0.739c0.197-0.62,0.801-0.997,1.438-1.183
			c0.248-0.079,0.513-0.124,0.744-0.141c3.376-0.271,6.285,2.553,7.418,5.484c1.223,3.167,1.009,6.763,0.834,9.937
			c-0.013,0.101,0.062,0.197,0.163,0.214c0.096,0.017,0.197-0.04,0.226-0.13c0.998-2.638,3.46-4.627,6.934-5.619
			c1.12-0.321,2.033-0.333,2.75-0.028C390.799,288.913,391.464,289.838,391.205,290.683"/>
		<path clip-path="url(#SVGID_4_)" fill="#BC956B" d="M379.284,320.127l-14.266,6.409l-0.056-6.195l0.141-2.914
			c-0.006-0.648-0.085-1.274-0.192-1.877v-0.005c-0.186-2.311-0.056-1.99-1.059-3.997c3.73,0,7.879-2.051,13.905-4.373
			c0.021,0.327,0.078,0.913,0.129,1.606c0.141,1.809,0.344,4.425,0.457,5.636c0.005,0.045,0.005,0.085,0.011,0.119
			c0.028,0.36,0.096,0.71,0.18,1.037c0.006,0.011,0.006,0.011,0.013,0.022c0.011,0.665,0.016,1.235,0.039,1.629
			C378.613,318.29,378.957,319.22,379.284,320.127"/>
		<path clip-path="url(#SVGID_4_)" fill="#BC956B" d="M368.867,281.748c0.276,0.089,0.632,0.127,0.822,0.16
			c1.386,0.254,2.23,0.798,3.435,1.542c0.281,0.17,1.576,1.051,1.795,0.759c0.186-0.251-0.922-1.39-1.206-1.579
			c-1.443-0.985-2.729-1.397-4.214-1.695c0.006,0.107-0.005,0.209-0.049,0.308c-0.071,0.203-0.224,0.36-0.413,0.451
			C368.983,281.719,368.923,281.741,368.867,281.748"/>
		<path clip-path="url(#SVGID_4_)" fill="#BC956B" d="M363.585,283.812c0.033,0.056,0.079,0.098,0.14,0.128
			c0.705,0.391,1.401,0.778,2.106,1.169c0.33,0.187,0.655,0.311,0.984,0.498c0.297,0.176,0.632,0.373,0.917,0.536
			c0.661,0.366,1.595,0.829,1.767,0.714c0.284-0.207-0.699-1.1-0.969-1.38c-0.635-0.638-1.231-0.964-1.884-1.327
			c-0.661-0.366-1.322-0.732-1.976-1.096c-0.002,0.079-0.006,0.139-0.02,0.204c-0.107,0.376-0.48,0.612-0.878,0.594
			C363.713,283.848,363.647,283.833,363.585,283.812"/>
		<path clip-path="url(#SVGID_4_)" fill="#BC956B" d="M357.256,286.646c0.063,0.145,0.178,0.265,0.337,0.313
			c1.522,0.39,3.054,0.828,4.357,1.764c0.446,0.325,1.629,1.13,1.813,0.88c0.207-0.287-0.897-1.531-1.146-1.751
			c-1.285-1.132-2.96-1.637-4.584-2.063c-0.031-0.012-0.065-0.015-0.103-0.01c-0.002,0.008,0.003,0.018,0,0.026
			c0.002,0.044,0.003,0.089-0.003,0.131c-0.024,0.246-0.171,0.458-0.375,0.587c-0.068,0.046-0.143,0.081-0.222,0.106
			C357.303,286.637,357.273,286.645,357.256,286.646"/>
		<path clip-path="url(#SVGID_4_)" fill="#4080A0" d="M327.943,323.624c-3.335,13.47-10.75,32.972-25.053,50.108
			c-24.206,28.999-44.179,35.378-54.831,26.488c-2.324-1.935-4.007-4.437-4.973-7.466c-3.478-10.871,3.43-27.04,22.365-49.716
			c14.151-16.958,35.698-29.477,48.294-35.251c6.735,6.485,8.448,9.392,12.564,14.014
			C326.823,322.382,327.363,322.987,327.943,323.624"/>
		<path clip-path="url(#SVGID_4_)" fill="#5190B7" d="M326.31,321.802c-3.48,13.413-10.87,32.261-24.738,48.878
			c-24.205,28.993-44.179,35.378-54.83,26.483c-1.486-1.241-2.714-2.713-3.655-4.408c-3.477-10.871,3.431-27.04,22.365-49.716
			c14.151-16.958,35.698-29.478,48.294-35.251C320.859,314.486,322.193,317.18,326.31,321.802"/>
		<path clip-path="url(#SVGID_4_)" fill="#CCA279" d="M353.838,291.622c-0.028-0.09-0.068-0.18-0.119-0.27
			c-0.113-0.231-0.231-0.44-0.355-0.637c-1.036-1.674-2.406-2.136-4.267-2.717c0.378-0.338,0.384-0.671,0.164-0.992
			c-0.772-1.11-4.284-2.012-4.284-2.012c-2.683-0.564-6.527-0.789-10.482-0.152c-2.075,0.327-4.178,0.896-6.167,1.775
			c-0.873,0.462-1.792,1.742-2.644,3.292c-0.158,0.282-0.31,0.569-0.462,0.868c-0.18,0.366-0.361,0.738-0.536,1.11
			c-0.157,0.35-0.315,0.699-0.462,1.043c-0.214,0.49-0.417,0.975-0.609,1.443c-0.14,0.349-0.27,0.693-0.394,1.014
			c-0.288,0.75-0.524,1.409-0.693,1.905c-0.761,2.373-2.013,4.532-3.545,6.499c-0.018,0.028-0.034,0.056-0.062,0.079
			c-1.387,1.781-3.01,3.404-4.696,4.892c-0.005,0-0.005,0.006-0.011,0.012c-2.102,1.86-4.317,3.505-6.318,4.977
			c-1.353,0.992-2.61,1.905-3.675,2.75c1.494-1.178,8.516-0.502,13.262,2.677c0.806,0.536,1.544,1.145,2.181,1.832
			c0.682,0.733,1.246,1.55,1.641,2.458c0.259,0.591,0.445,1.217,0.552,1.888c0.586-1.19,1.296-3.309,2.069-5.608
			c0-0.006,0-0.012,0.005-0.017c0,0,0-0.006,0.006-0.012c1.347-4.03,2.874-8.618,4.205-9.705c0.862-0.209,1.64-0.502,2.344-0.857
			c1.105-0.552,2.029-1.257,2.848-2.04c0.05-0.046,0.101-0.091,0.146-0.136c0.124-0.124,0.248-0.242,0.361-0.372
			c1.555-1.612,2.75-3.477,4.114-4.977c0.84-0.924,1.748-1.713,2.847-2.232c3.043-1.149,5.025,1.085,8.165,0.656
			c0.997-0.051,1.884-0.503,1.974-0.904c0.034-0.152-0.298-0.746-0.428-0.93c-0.446-0.634-1.262-1.6-2.282-2.057
			c4.08,1.595,7.4,1.404,3.55-3.229C352.975,293.516,354.158,292.648,353.838,291.622 M339.864,288.162
			c0.237-0.085,0.503-0.17,0.784-0.248c0.501-0.232,2.897-0.649,4.999-0.463c0.485,0.04,0.953,0.113,1.375,0.231
			c-1.116-0.056-2.119-0.073-3.179-0.005c-0.028,0.005-0.063,0.005-0.095,0.011c-0.575,0.04-1.173,0.113-1.821,0.22
			c-0.011,0-0.023,0.006-0.034,0.006c-0.94,0.157-1.99,0.4-3.229,0.744C338.969,288.517,339.369,288.336,339.864,288.162
			 M343.483,295.241c1.634-0.09,2.824,0.287,3.597,0.524C346.172,295.528,344.938,295.421,343.483,295.241 M345.879,290.867
			c-3.18-0.445-5.794,0.349-7.203,0.902c1.95-1.33,6.893-1.505,8.697-0.739C346.64,290.912,346.082,290.878,345.879,290.867"/>
		<path clip-path="url(#SVGID_4_)" fill="#F7BAB0" d="M347.079,295.765c-0.907-0.237-2.142-0.344-3.596-0.524
			C345.117,295.151,346.308,295.528,347.079,295.765"/>
		<path clip-path="url(#SVGID_4_)" fill="#BC956B" d="M347.372,291.03c-0.732-0.118-1.291-0.152-1.494-0.163
			c-3.179-0.446-5.794,0.349-7.202,0.901C340.625,290.438,345.569,290.264,347.372,291.03"/>
		<path clip-path="url(#SVGID_4_)" fill="#BC956B" d="M347.023,287.683c-1.116-0.056-2.119-0.073-3.18-0.006
			c-0.027,0.006-0.062,0.006-0.096,0.012c-0.575,0.039-1.172,0.112-1.82,0.219c-0.012,0-0.022,0.006-0.034,0.006
			c-0.94,0.158-1.989,0.4-3.229,0.744c0.305-0.141,0.705-0.321,1.201-0.496c0.235-0.084,0.501-0.169,0.783-0.248
			c0.502-0.231,2.896-0.648,5-0.462C346.132,287.491,346.6,287.564,347.023,287.683"/>
		<path clip-path="url(#SVGID_4_)" fill="#987957" d="M350.878,299.744c-0.006,0-0.006,0.006-0.011,0.006
			c-2.48,1.476-5.079-0.153-7.705,0.067c-2.351,0.119-3.682,1.302-4.898,2.852c-1.268,1.624-2.413,3.664-4.475,5.349
			c-0.034,0.023-0.068,0.051-0.103,0.079c-0.011,0.017-0.027,0.034-0.045,0.056c-1.341,1.285-2.976,2.362-5.19,2.898
			c-2.092,1.713-4.667,12.067-6.285,15.342c-0.107-0.671-0.293-1.297-0.552-1.889c-0.237-1.64-0.552-3.601-1.127-4.3
			c1.274-2.429,5.428-10.371,6.814-11.036c2.401-1.73,3.81-0.953,5.918-3.066c2.999-4.893,7.581-8.934,14.069-6.702
			c0.731,0.321,2.536,0.744,3.534-0.141c0.038-0.028,0.078-0.067,0.117-0.107C351.029,299.321,351.029,299.451,350.878,299.744"/>
		<path clip-path="url(#SVGID_4_)" fill="#5190B7" d="M323.915,319.007c-0.012,0.032,1.526,1.802,1.526,1.802l-3.752,7.106
			l-19.735-11.845c0,0,6.059-3.039,9.611-5.986c0.039-0.03,0.683-0.39,0.728-0.426c0.402-0.333,1.525-0.83,2.051-1.303
			C318.42,312.062,321.317,315.569,323.915,319.007"/>
		<path clip-path="url(#SVGID_4_)" fill="#4080A0" d="M361.208,314.855c-3.197,11.981-5.804,30.441-1.997,50.02
			c6.441,33.133,19.324,46.736,31.493,44.373c2.652-0.513,5.05-1.745,7.111-3.7c7.409-7.008,8.975-22.642,3.932-48.553
			c-3.765-19.374-15.23-38.462-22.6-48.413c-8.067,2.172-10.661,3.709-15.875,5.551
			C362.621,314.367,361.937,314.607,361.208,314.855"/>
		<path clip-path="url(#SVGID_4_)" fill="#5190B7" d="M363.272,314.133c-3.06,11.999-5.401,29.936-1.713,48.921
			c6.444,33.128,19.324,46.737,31.495,44.367c1.698-0.33,3.293-0.952,4.761-1.874c7.409-7.008,8.975-22.642,3.932-48.553
			c-3.764-19.374-15.23-38.463-22.6-48.413C370.692,310.757,368.486,312.29,363.272,314.133"/>
		<path clip-path="url(#SVGID_4_)" fill="#141312" d="M348.949,511.821c-4.214,4.537-2.425,12.938,3.299,15.494
			c14.26,6.364,29.81,9.94,45.459,10.459c4.843,0.161,8.76-4.754,8.502-9.477s-3.773-8.829-8.008-11.141
			c-4.235-2.313-9.127-3.135-13.923-3.817c-4.796-0.682-9.688-1.282-14.113-3.222C363.185,507.058,353.683,506.726,348.949,511.821"
			/>
		<path clip-path="url(#SVGID_4_)" fill="#54534F" d="M347.047,510.786c-4.148,4.574-2.406,13.026,3.213,15.586
			c13.996,6.379,29.265,9.951,44.638,10.444c4.756,0.153,8.613-4.8,8.368-9.553c-0.245-4.752-3.691-8.878-7.847-11.197
			s-8.96-3.138-13.67-3.816c-4.711-0.677-9.515-1.272-13.857-3.217C361.038,505.968,351.704,505.649,347.047,510.786"/>
		<path clip-path="url(#SVGID_4_)" fill="#CCA279" d="M336.223,519.262c7.434,6.418,18.117,8.854,27.599,6.291
			c3.191-0.861,4.962-4.686,4.251-7.915c-0.713-3.229-3.371-5.755-6.375-7.137s-6.349-1.796-9.635-2.16
			c-3.286-0.363-6.629-0.706-9.688-1.963c-2.804-1.153-6.023,1.339-6.797,4.269C334.804,513.578,335.736,516.659,336.223,519.262"/>
		<path clip-path="url(#SVGID_4_)" fill="#C6C6C6" d="M346.155,505.029c-2.144,6.621-4.293,13.248-6.443,19.869
			c-39.938-7.73-79.142-22.944-114.609-44.359c-5.091-3.074-8.714-8.193-10.423-13.882c-1.694-5.659-1.495-11.896,1.047-17.256
			c5.09-10.735,18.844-16.438,30.035-12.452c37.261,13.264,71.155,35.859,97.752,65.133
			C344.404,503.058,345.287,504.039,346.155,505.029"/>
		<path clip-path="url(#SVGID_4_)" fill="#DDDDDD" d="M343.514,502.082c-1.67,5.157-3.34,10.314-5.014,15.466
			c-0.457,1.407-1.897,2.257-3.348,1.964c-39.057-7.869-77.351-22.89-112.064-43.855c-3.581-2.164-6.436-5.332-8.408-8.998
			c-1.694-5.66-2.339-12.897,0.202-18.257c5.091-10.736,19.689-15.438,30.88-11.451C283.023,450.213,316.917,472.81,343.514,502.082
			"/>
		<path clip-path="url(#SVGID_4_)" fill="#141312" d="M306.587,507.946c4.214,4.537,2.425,12.939-3.299,15.493
			c-14.26,6.365-29.809,9.941-45.46,10.461c-4.842,0.16-8.759-4.755-8.501-9.478s3.774-8.828,8.008-11.141
			c4.234-2.313,9.127-3.135,13.923-3.817c4.796-0.682,9.687-1.282,14.113-3.222C292.352,503.183,301.854,502.851,306.587,507.946"/>
		<path clip-path="url(#SVGID_4_)" fill="#54534F" d="M308.49,506.911c4.148,4.574,2.406,13.026-3.213,15.586
			c-13.996,6.38-29.265,9.951-44.638,10.444c-4.756,0.153-8.613-4.8-8.368-9.553c0.245-4.752,3.691-8.878,7.846-11.197
			c4.155-2.319,8.96-3.138,13.67-3.815s9.514-1.273,13.858-3.218C294.498,502.092,303.831,501.774,308.49,506.911"/>
		<path clip-path="url(#SVGID_4_)" fill="#CCA279" d="M319.313,515.387c-7.433,6.418-18.117,8.854-27.598,6.292
			c-3.192-0.862-4.962-4.687-4.251-7.916c0.713-3.229,3.371-5.755,6.375-7.137c3.003-1.382,6.348-1.796,9.635-2.16
			c3.286-0.363,6.629-0.706,9.687-1.963c2.803-1.153,6.024,1.339,6.797,4.27C320.732,509.703,319.8,512.784,319.313,515.387"/>
		<path clip-path="url(#SVGID_4_)" fill="#C6C6C6" d="M440.469,463.96c-1.83,5.211-5.289,9.838-10.031,12.707
			c-35.467,21.415-74.672,36.628-114.617,44.358c-2.143-6.628-4.292-13.248-6.442-19.869c0.989-1.125,1.986-2.242,3.011-3.346
			c26.533-29.081,60.292-51.535,97.389-64.741c11.191-3.979,24.945,1.724,30.035,12.459
			C442.525,451.259,442.568,457.994,440.469,463.96"/>
		<path clip-path="url(#SVGID_4_)" fill="#DDDDDD" d="M440.469,463.96c-1.908,3.075-4.472,5.716-7.59,7.603
			c-34.131,20.604-71.709,35.467-110.083,43.449c-2.571,0.534-5.135-0.946-5.945-3.444c-1.487-4.588-2.975-9.17-4.462-13.757
			c26.533-29.081,60.292-51.535,97.389-64.741c11.191-3.979,25.274,0.083,30.364,10.818
			C442.854,449.619,442.568,457.994,440.469,463.96"/>
		<path clip-path="url(#SVGID_4_)" fill="#4080A0" d="M361.208,386.897c0,0-1.601,11.938,2.863,29.439
			c-5.957-13.009-8.026-47.661-8.026-47.661c6.511,15.736,17.682,32.809,17.682,32.809l-0.005,0.005
			C366.861,394.692,361.208,386.897,361.208,386.897"/>
		<path clip-path="url(#SVGID_4_)" fill="#4080A0" d="M403.278,450.214c-74.93,75.07-127.725,8.866-152.159,7.339
			c2.413-5.473,22.365-8.635,24.693-13.595c0.073-0.158,0.13-0.322,0.169-0.485c5.158-0.575,13.578-0.49,23.898,3.428
			c17.433,6.622,11.56,15.831,29.174,9.783c17.618-6.042,10.427-6.34,28.266-10.358c5.89-1.325,11.589-3.714,16.582-6.33
			c0.288,0.541,0.856,1.032,1.646,1.471C381.551,444.876,400.189,445.913,403.278,450.214"/>
		<path clip-path="url(#SVGID_4_)" fill="#5190B7" d="M403.278,450.214c-77.837,78.564-121.76,8.582-152.159,7.339
			c2.413-5.473,22.365-8.635,24.693-13.595c5.417,0.05,12.423,0.986,20.483,4.041c19.158,7.276,12.704,17.394,32.053,10.748
			c19.355-6.634,11.459-6.966,31.057-11.379c5.67-1.274,11.176-3.45,16.142-5.902C381.551,444.876,400.189,445.913,403.278,450.214"
			/>
		<path clip-path="url(#SVGID_4_)" fill="#BC956B" d="M347.079,295.765c-1.238-0.003-2.429-0.076-3.596-0.524
			C344.711,295.108,345.966,295.195,347.079,295.765"/>
		<path clip-path="url(#SVGID_4_)" fill="#BC956B" d="M338.676,291.769c2.216-1.603,6.218-1.829,8.696-0.739
			c-1.438-0.35-2.938-0.282-4.403-0.195C341.504,290.958,340.021,291.129,338.676,291.769"/>
		<path clip-path="url(#SVGID_4_)" fill="#BC956B" d="M340.648,287.914c1.511-0.771,3.364-0.861,5-0.462
			C343.988,287.641,342.296,287.707,340.648,287.914"/>
		<path clip-path="url(#SVGID_4_)" fill="#060534" d="M434.116,254.571L434.116,254.571l-3.815-26.015
			c-0.118-0.808-0.76-1.437-1.567-1.536l-18.021-2.107l-0.47,0.069l-0.25,0.036l-0.251,0.037l-0.406,0.06l-0.219,0.032l-0.276,0.297
			l-0.151,0.279c-0.049,0.108-0.085,0.222-0.11,0.337c0.006,0.085,0.019,0.169,0.037,0.251c0.006,0.075,0.017,0.148,0.033,0.221
			l3.685,25.135c-1.003,0.299-1.939,0.785-2.764,1.432c-2.492,1.97-3.55,4.789-2.277,6.271c1.272,1.483,4.156,1.092,6.635-0.973
			c2.479-2.065,3.551-4.789,2.277-6.271l-2.625-17.909l14.314,1.689l2.626,17.908c-1.003,0.3-1.94,0.785-2.764,1.433
			c-2.492,1.97-3.55,4.789-2.277,6.271c1.271,1.482,4.156,1.092,6.635-0.973C434.593,258.481,435.294,256.067,434.116,254.571"/>
		<path clip-path="url(#SVGID_4_)" fill="#060534" d="M499.55,215.035L499.55,215.035l-1.538-23.005
			c-0.047-0.714-0.566-1.308-1.266-1.45l-15.606-3.087l-0.415,0.028l-0.221,0.015l-0.223,0.015l-0.359,0.023l-0.193,0.013
			l-0.263,0.241l-0.151,0.233c-0.049,0.092-0.089,0.188-0.12,0.287c0,0.074,0.005,0.149,0.017,0.223
			c-0.001,0.065,0.003,0.13,0.013,0.194l1.485,22.227c-0.896,0.192-1.749,0.553-2.515,1.061c-2.314,1.551-3.434,3.942-2.424,5.325
			c1.01,1.384,3.558,1.241,5.867-0.392c2.31-1.634,3.434-3.941,2.424-5.325l-1.059-15.837l12.396,2.464l1.06,15.837
			c-0.897,0.193-1.75,0.553-2.515,1.061c-2.314,1.551-3.434,3.942-2.424,5.326c1.01,1.383,3.557,1.24,5.867-0.393
			C499.696,218.485,500.477,216.424,499.55,215.035"/>
		<path clip-path="url(#SVGID_4_)" fill="#060534" d="M437.597,194.787c-0.782-0.622-1.917-0.492-2.535,0.29
			c-0.435,0.551-0.512,1.306-0.195,1.936l10.782,23.003c-0.873,0.575-1.631,1.311-2.231,2.168c-1.818,2.606-2.018,5.61-0.371,6.662
			c1.646,1.052,4.294-0.154,6.071-2.846c1.778-2.692,2.018-5.61,0.371-6.662l-8.585-18.316c1.368,0.605,9.87,4.302,11.158,7.185
			c0.517,0.832,1.583,1.125,2.448,0.676c0.871-0.483,1.184-1.583,0.7-2.457c-0.001-0.003-0.003-0.006-0.004-0.008
			C453.434,202.69,440.105,196.751,437.597,194.787"/>
		<path clip-path="url(#SVGID_4_)" fill="#060534" d="M542.107,146.807c-0.782-0.622-1.917-0.492-2.535,0.29
			c-0.435,0.551-0.512,1.306-0.195,1.936l10.782,23.003c-0.873,0.575-1.631,1.311-2.231,2.168c-1.818,2.606-2.018,5.61-0.371,6.662
			c1.646,1.052,4.294-0.154,6.071-2.846c1.778-2.692,2.018-5.61,0.371-6.662l-8.585-18.316c1.368,0.605,9.87,4.302,11.158,7.185
			c0.516,0.832,1.583,1.125,2.448,0.676c0.871-0.483,1.184-1.583,0.7-2.457c-0.001-0.003-0.004-0.006-0.005-0.008
			C557.944,154.711,544.616,148.772,542.107,146.807"/>
		<path clip-path="url(#SVGID_4_)" fill="#060534" d="M465.582,152.5c-0.014-0.998-0.832-1.794-1.829-1.777
			c-0.703,0.012-1.335,0.432-1.622,1.076l-10.963,22.917c-0.999-0.311-2.049-0.431-3.093-0.353
			c-3.168,0.244-5.618,1.995-5.389,3.934c0.229,1.94,2.841,3.225,6.05,2.894c3.209-0.33,5.617-1.994,5.389-3.934l8.729-18.247
			c0.399,1.441,2.927,10.361,1.512,13.184c-0.315,0.927,0.132,1.938,1.028,2.322c0.926,0.369,1.975-0.086,2.345-1.015
			c0.001-0.003,0.002-0.006,0.003-0.008C469.504,169.762,465.652,155.687,465.582,152.5"/>
		<path clip-path="url(#SVGID_4_)" fill="#060534" d="M538.221,198.325c-0.014-0.998-0.832-1.794-1.829-1.777
			c-0.702,0.012-1.335,0.432-1.622,1.076l-10.963,22.917c-0.999-0.311-2.049-0.431-3.093-0.353
			c-3.168,0.244-5.618,1.995-5.389,3.934c0.229,1.94,2.841,3.225,6.05,2.894c3.209-0.33,5.617-1.994,5.389-3.934l8.729-18.247
			c0.399,1.441,2.927,10.361,1.512,13.184c-0.315,0.927,0.132,1.938,1.028,2.322c0.926,0.369,1.975-0.086,2.345-1.015
			c0.001-0.003,0.002-0.006,0.003-0.008C542.143,215.586,538.291,201.511,538.221,198.325"/>
		<path clip-path="url(#SVGID_4_)" fill="#060534" d="M507.818,154.914L507.818,154.914l9.745-24.42
			c0.304-0.758,0.063-1.624-0.587-2.115l-14.533-10.86l-0.44-0.176l-0.236-0.094l-0.234-0.094l-0.383-0.152l-0.204-0.082
			l-0.389,0.118l-0.27,0.166c-0.098,0.07-0.186,0.149-0.266,0.237c-0.037,0.076-0.068,0.155-0.094,0.236
			c-0.033,0.066-0.06,0.135-0.083,0.206l-9.416,23.594c-1.017-0.244-2.072-0.293-3.108-0.146c-3.145,0.454-5.473,2.363-5.115,4.284
			c0.356,1.92,3.049,3.028,6.229,2.485s5.474-2.363,5.115-4.283l6.708-16.812l11.538,8.639l-6.708,16.811
			c-1.019-0.243-2.073-0.293-3.109-0.146c-3.145,0.454-5.473,2.363-5.116,4.283c0.358,1.921,3.05,3.029,6.229,2.486
			S508.088,156.799,507.818,154.914"/>
		<path clip-path="url(#SVGID_4_)" fill="#4C6580" d="M315.629,373.234c0,0.511-0.414,0.926-0.926,0.926
			c-0.511,0-0.925-0.415-0.925-0.926c0-0.512,0.414-0.927,0.925-0.927C315.215,372.308,315.629,372.723,315.629,373.234"/>
		<path clip-path="url(#SVGID_4_)" fill="#4C6580" d="M315.629,367.234c0,0.511-0.414,0.926-0.926,0.926
			c-0.511,0-0.925-0.415-0.925-0.926c0-0.512,0.414-0.927,0.925-0.927C315.215,366.308,315.629,366.723,315.629,367.234"/>
		<path clip-path="url(#SVGID_4_)" fill="#4C6580" d="M315.917,360.596c0,0.511-0.414,0.926-0.926,0.926
			c-0.511,0-0.925-0.415-0.925-0.926s0.414-0.926,0.925-0.926C315.502,359.67,315.917,360.085,315.917,360.596"/>
		<g clip-path="url(#SVGID_4_)">
			<defs>
				<path id="SVGID_7_" d="M1739.13,435.872c-0.173,1.754-0.951,9.236-3.303,18.972c0,0-4.259,17.629-13.038,34.646
					c-34.709,67.277-141.957,108.766-141.957,108.766c-31.856,12.324-100.653,35.138-228.256,34.213
					c-146.409-1.061-255.313-1.851-331.351-79.511c-46.038-47.022-62.342-104.159-68.968-138.823
					c-7.314-39.043-20.128-103.253,14.825-136.535c82.428-78.488,160.965-8.521,176.663-93.172
					c14.473-78.073,69.629-153.887,170.006-129.443c128.866,31.381,114.632,120.204,177.895,113.555
					c63.269-6.649,171.49-56.373,191.058,37.784c19.567,94.15-72.12,174.903-13.734,168.232c43.578-4.978,52.685-1.631,62.068,6.586
					C1743.453,392.014,1741.021,416.69,1739.13,435.872"/>
			</defs>
			<clipPath id="SVGID_8_">
				<use xlink:href="#SVGID_7_"  overflow="visible"/>
			</clipPath>
			<path clip-path="url(#SVGID_8_)" fill="#BDDEEF" d="M874.669,107.514c-0.761-0.138-55.277,18.189-55.277,46.453
				c0,28.264,50.923,39.642,77.599,32.408c26.675-7.233,64.885-3.582,84.399,9.654c19.516,13.236,48.074-30.831,105.241-18.839
				c57.166,11.993,81.883,0.644,115.096-17.626c33.213-18.27,54.82,14.284,84.182,8.048c29.36-6.236,45.479-51.14,4.207-65.762
				c-41.272-14.623-200.386-31.982-229.736-29.096C1031.027,75.641,874.669,107.514,874.669,107.514"/>
			<path clip-path="url(#SVGID_8_)" fill="#D2F0FF" d="M744.413,131.018c0,0,19.53,15.199,47.244,10.807
				c27.715-4.393,47.622-13.792,73.618-4.597c25.996,9.194,84.946,14.705,130.419-3.745c45.473-18.45,91.881-33.56,141.989-17.508
				c50.11,16.051,77.022,27.166,114.144,15.043c37.12-12.123,57.987,26.087,100.451,6.21c42.463-19.878,14.479-50.001-18.394-56.18
				c-32.873-6.179-83.914-46.344-143.307-37.075c-59.394,9.269-113.627-16.112-170.409-3.862S933.517,71.012,875.98,66.375
				C818.443,61.737,701.007,96.796,744.413,131.018"/>
		</g>
	</g>
</g>
</svg>
