<?xml version="1.0" encoding="utf-8"?>
<!-- Generator: Adobe Illustrator 16.0.0, SVG Export Plug-In . SVG Version: 6.00 Build 0)  -->
<!DOCTYPE svg PUBLIC "-//W3C//DTD SVG 1.1//EN" "http://www.w3.org/Graphics/SVG/1.1/DTD/svg11.dtd">
<svg version="1.1" id="Layer_1" xmlns="http://www.w3.org/2000/svg" xmlns:xlink="http://www.w3.org/1999/xlink" x="0px" y="0px"
	 width="864px" height="800px" viewBox="0 0 864 800" enable-background="new 0 0 864 800" xml:space="preserve">
<g>
	<defs>
		<rect id="SVGID_1_" x="-76" y="-107" width="1000" height="1000"/>
	</defs>
	<clipPath id="SVGID_2_">
		<use xlink:href="#SVGID_1_"  overflow="visible"/>
	</clipPath>
	<g clip-path="url(#SVGID_2_)">
		<defs>
			<path id="SVGID_3_" d="M487.369,40.41c-30.442,13.65-54.199,38.937-73.56,66.107c-19.497,27.36-38.681,59.727-71.251,67.963
				c-25.834,6.533-50.867-4.297-76.181-15.127c-21.584-9.234-43.373-18.467-66.039-16.94c-42.586,2.868-74.001,44.012-82.674,85.805
				c-8.674,41.792-0.6,84.95,2.676,127.507c3.275,42.558,0.602,88.714-25.539,122.455c-25.459,32.861-45.491,34.944-56.104,65.71
				c-13.584,39.38,9.267,80.473,16.306,93.13c49.235,88.541,185.667,106.476,242.15,113.129
				c232.857,27.426,469.351-58.824,507.673-163.103c27.052-73.613,1.061-153.266,1.061-153.266
				c-1.093-4.711-2.017-8.196-2.281-9.199c-7.149-27.107-28.697-93.682-85.475-143.12c-23.139-20.148-50.214-36.897-66.887-62.653
				c-17.071-26.37-21.045-58.76-27.271-89.549c-6.226-30.79-16.528-63.211-41.499-82.271c-14.555-11.11-32.615-16.118-50.979-16.119
				C516.401,30.869,501.104,34.252,487.369,40.41"/>
		</defs>
		<clipPath id="SVGID_4_">
			<use xlink:href="#SVGID_3_"  overflow="visible"/>
		</clipPath>
		<path clip-path="url(#SVGID_4_)" fill="#E3F4FF" d="M778.896,683.727c12.112-7.568,22.751-17.326,31.038-28.958
			c0.048-0.069,0.099-0.139,0.147-0.207c4.911-6.938,48.122-78.575,33.757-180.916c-2.938-20.932-16.323-116.298-88.236-180.478
			c-30.626-27.333-57.038-35.774-80.815-76.408c-11.685-19.966-9.82-25.639-30.859-77.766
			c-20.965-51.943-31.447-77.915-45.604-90.411c-32.453-28.645-82.388-31.813-117.496-22.844
			c-18.515,4.73-21.216,9.849-101.387,61.714c-37.529,24.279-56.402,36.454-61.714,38.205
			c-66.707,21.983-109.861-30.525-157.225-14.694c-43.682,14.6-59.143,76.696-72.98,136.78
			C27.626,507.818-2.32,637.855,32.878,686.979c50.523,70.512,142.081,80.19,285.673,95.372c0,0,158.404,13.819,378.469-56.229
			C721.772,718.243,758.518,696.458,778.896,683.727"/>
		<path clip-path="url(#SVGID_4_)" fill="#99CCE0" d="M1038.718,541.479c-23.266,22.68-50.616,41.065-79.487,54.299
			c-0.293,0.614-0.586,1.2-0.881,1.814c-7.257,15.183-15.101,30.018-23.479,44.427c-12.994,22.439-27.269,43.892-42.717,64.304
			c-46.375,7.792-94.83,8.325-141.978,8.538c-286.891,1.229-573.779,2.509-860.642,3.763
			c-29.35-36.929-54.831-77.433-75.698-121.031c-0.293-0.587-0.586-1.2-0.879-1.814c-0.774-0.24-1.548-0.507-2.349-0.801
			c-5.176-1.787-11.073-4.029-17.53-6.883c4.295-9.74,11.18-18.358,20.038-24.282c18.784-12.62,45.28-12.513,63.958,0.268
			c-3.282-17.45,9.311-36.368,26.682-40.051c17.371-3.709,36.582,8.458,40.664,25.748c12.968-31.138,47.202-52.003,80.821-49.282
			c33.62,2.749,64.037,28.87,71.802,61.717c-4.989-37.328,26.95-74.924,64.519-77.3c37.595-2.374,73.537,29.646,76.791,67.16
			c10.913-27.643,36.582-48.962,65.772-54.565c29.19-5.629,60.97,4.644,81.355,26.256c7.071-31.378,34.074-57.34,65.719-63.185
			c31.645-5.843,66.118,8.779,83.941,35.568c11.555-34.154,47.229-58.541,83.25-56.887c36.021,1.653,69.293,29.19,77.698,64.251
			c20.226-25.588,54.833-38.956,87.012-33.646c32.18,5.311,60.622,29.11,71.563,59.849c14.996-21.026,40.904-33.779,66.706-32.819
			c25.802,0.987,50.695,15.609,64.064,37.702C1001.976,524.696,1023.91,528.992,1038.718,541.479"/>
		<path clip-path="url(#SVGID_4_)" fill="#BDDEEF" d="M535.513,819.479L67.422,746.99c-71.065-11.005-71.488-113.324-0.497-124.797
			c167.288-27.037,362.923-40.411,579.131-21.275c48.501,4.293,95.349,9.983,140.457,16.774
			c72.578,10.927,81.343,112.114,11.767,135.479C709.297,783.054,620.439,812.243,535.513,819.479"/>
		<rect x="469.12" y="0.362" clip-path="url(#SVGID_4_)" fill="#A5A4A4" width="14.024" height="824.862"/>
		<rect x="363.324" y="0.362" clip-path="url(#SVGID_4_)" fill="#A5A4A4" width="14.025" height="824.862"/>
		<path clip-path="url(#SVGID_4_)" fill="#23AEB5" d="M166.999,513.501c-5.479-12.54-9.831-25.577-15.799-37.892
			c0,0-4.131-8.525-8.363-27.772c-1.118-5.084-1.594-8.304,0-11.511c2.563-5.155,9.098-7.502,16.935-10.316
			c3.2-1.148,5.897-1.876,7.673-2.309c7.2-1.163,13.668-1.574,19.174-1.615c4.094-0.029,6.142-0.078,8.389,0.219
			c7.806,1.026,10.937,3.86,21.421,7.532c2.168,0.759,5.348,1.799,9.306,2.816c2.028,0.465,5.764,1.631,9.049,4.805
			c4.176,4.036,5.115,8.958,5.776,12.165c0.961,4.661,0.432,8.389-0.921,16.109c-2.472,14.133-3.619,19.216-3.619,19.216
			c-5.348,23.813-6.686,26.282-6.688,34.071c-0.009,3.947,0.021,9.632,2.041,16.625c0.231,0.8,0.414,1.375,0.451,1.492
			c1.638,5.16,5.866,35.32,14.746,112.056c-32.082,5.329-64.166,10.659-96.248,15.988
			C175.126,570.279,174.466,530.593,166.999,513.501"/>
		<path clip-path="url(#SVGID_4_)" fill="#302C2B" d="M211.782,307.715c-1.663-2.02-6.174-6.924-13.397-8.243
			c-4.89-0.892-8.761,0.271-12.786,1.481c-7.434,2.234-12.382,5.959-16.38,9.026c-4.299,3.299-8.763,6.723-12.885,12.875
			c-4.434,6.618-5.665,12.2-7.624,21.085c-0.941,4.266-1.103,6.733-0.099,9.226c0.88,2.187,1.978,2.701,2.921,5.51
			c0.312,0.928,1.117,3.623,0.703,6.87c-0.464,3.641-1.935,3.859-3.4,8.484c-1.087,3.435-1.881,5.942-0.951,8.6
			c0.396,1.133,2.082,3.082,5.454,6.979c1.673,1.933,2.397,2.679,2.837,4.16c0.198,0.667,0.92,3.097-0.471,5.453
			c-1.333,2.256-3.669,2.857-4.152,2.972c0.356,1.926,1.721,3.484,3.504,3.983c2.187,0.61,4.647-0.474,5.797-2.669
			c-0.497,0.801-1.187,2.127-1.518,3.891c-0.263,1.401-0.645,3.436,0.331,5.267c0.91,1.709,2.032,1.416,3.486,3.714
			c0.627,0.988,1.203,1.929,1.006,3.055c-0.307,1.747-2.242,2.606-2.54,2.734c1.586,0.949,3.589,0.819,4.996-0.313
			c1.3-1.046,1.88-2.777,1.485-4.431c0.279,0.926,1.543,4.74,5.454,6.979c5.504,3.149,11.233,0.304,11.664,0.081
			c-2.275,0.864-4.601,0.146-5.512-1.417c-0.743-1.273-0.477-2.992,0.286-4.085c1.023-1.463,2.304-0.893,3.907-2.55
			c0.137-0.141,2.102-2.217,1.519-3.892c-0.375-1.072-1.506-1.147-1.621-2.066c-0.106-0.845,0.737-1.64,1.746-2.415
			c3.156-2.427,6.16-3.369,6.16-3.369c5.762-1.806,8.762-2.747,10.635-1.21c0.96,0.789,0.575,1.368,2.137,5.967
			c1.098,3.232,1.647,4.848,2.694,6.203c2.591,3.352,6.569,4.117,6.905,4.176c5.621,0.996,9.776-2.914,10.228-3.353
			c-2.495-0.16-4.991-0.32-7.486-0.479c0.157-0.022,2.168-0.338,2.987-2.086c0.732-1.562,0.197-3.596-1.385-4.794
			c0.743-0.036,4.486-0.298,7.376-3.445c2.652-2.889,2.796-6.263,2.808-7.091c-1.154,1.137-2.722,1.088-3.367,0.348
			c-0.557-0.639-0.48-1.854,0.117-2.447c0.88-0.874,2.18,0.304,3.503-0.356c1.43-0.713,0.948-2.606,2.555-6.803
			c0.56-1.462,0.924-2.41,1.679-3.495c1.892-2.717,3.762-2.726,5.283-4.398c2.756-3.032,1.532-8.411,0.934-11.041
			c-1.301-5.714-3.899-6.441-4.797-11.629c-0.613-3.533,0.114-5.96,0.664-8.854c0.409-2.15,2.473-13.775-0.715-24.358
			c-3.928-13.041-13.818-17.819-14.699-18.193c-1.53-0.65-3.029-0.742-3.029-0.742c-0.345-0.021-1.314-0.06-2.529,0.21
			C213.166,307.047,212.349,307.412,211.782,307.715"/>
		<path clip-path="url(#SVGID_4_)" fill="#E2C294" d="M183.682,411.642c0.28-3.238-0.298-7.148-0.544-11.362l0.002-0.101h0.02
			l22.809,6.589l0.85,8.677l1.446,14.691l-29.322-1.519C181.488,423.809,183.151,418.683,183.682,411.642"/>
		<path clip-path="url(#SVGID_4_)" fill="#B59B76" d="M206.743,414.152c-8.376,2.74-15.072,0.363-22.98-5.434
			c-0.07-3.241-0.367-4.614-0.613-8.829l0.022-0.1l22.809,6.589L206.743,414.152z"/>
		<path clip-path="url(#SVGID_4_)" fill="#E2C294" d="M162.817,361.586c0.056,2.05,0.464,12.421,6.474,23.599
			c2.104,3.914,13.621,25.334,30.053,24.143c17.226-1.248,25.48-26.304,26.444-29.23c3.474-10.543,2.714-19.637,2.331-22.893
			c-2.357-20.078-8.571-40.037-33.315-38.497C169.669,320.271,162.236,340.159,162.817,361.586"/>
		<path clip-path="url(#SVGID_4_)" fill="#E2C294" d="M165.949,368.952c-1.347-4.877-3.175-8.163-4.423-10.077
			c-1.102-1.69-2.284-3.127-4.109-3.619c-0.416-0.112-1.692-0.456-2.82,0.177c-1.307,0.734-1.761,2.414-2.017,4.24
			c-0.806,5.757,0.64,10.972,1.162,12.693c0.48,1.585,1.881,4.347,4.684,9.871c1.162,2.29,2.083,4.003,4,4.808
			c0.244,0.102,2.027,0.821,3.8,0.14c2.498-0.961,4.133-4.379,3.631-8.36C168.554,375.534,167.251,372.243,165.949,368.952"/>
		<path clip-path="url(#SVGID_4_)" fill="#B59B76" d="M210.397,373.383c2.227,2.864,4.029,5.711,5.661,8.971
			c0.937,2.242-1.742,4.152-3.726,4.298c-1.863,0.263-3.823-0.25-5.193-1.38c1.695,0.561,3.387,0.537,4.947,0.132
			c1.104-0.33,2.943-1.249,2.436-2.505C213.036,379.884,211.409,376.656,210.397,373.383"/>
		<path clip-path="url(#SVGID_4_)" fill="#240F0F" d="M209.391,354.015c-0.17-0.283,3.059-2.799,6.766-4.686
			c2.287-1.164,4.344-1.879,5.881-2.325c0.282-0.081,0.576-0.088,0.86-0.019c0.725,0.179,1.543,0.441,2.41,0.831
			c1.812,0.817,3.141,1.882,4.038,2.75c0.09,0.087,0.006,0.236-0.115,0.207c-0.35-0.084-0.702-0.169-1.054-0.255
			c-4.054-0.991-4.385-1.186-5.148-1.319c-1.703-0.295-4.302,0.816-9.431,3.05C210.547,353.578,209.484,354.169,209.391,354.015"/>
		<path clip-path="url(#SVGID_4_)" fill="#240F0F" d="M204.895,353.465c0.134-0.302-3.385-2.395-7.299-3.803
			c-2.414-0.869-4.545-1.321-6.126-1.572c-0.289-0.045-0.582-0.016-0.855,0.089c-0.697,0.268-1.476,0.63-2.287,1.126
			c-1.695,1.036-2.882,2.259-3.663,3.233c-0.078,0.097,0.024,0.235,0.14,0.191c0.338-0.127,0.676-0.256,1.014-0.385
			c3.899-1.49,4.202-1.725,4.943-1.952c1.653-0.506,4.37,0.271,9.738,1.846C203.692,353.176,204.821,353.63,204.895,353.465"/>
		<path clip-path="url(#SVGID_4_)" fill="#FFFFFF" d="M161.392,383.874c0.091,1.454,1.123,2.573,2.305,2.499
			c1.181-0.074,2.065-1.313,1.974-2.768c-0.091-1.454-1.123-2.573-2.305-2.499C162.185,381.181,161.301,382.42,161.392,383.874"/>
		<path clip-path="url(#SVGID_4_)" fill="#FFFFFF" d="M163.531,386.646c0.654,0.79,1.654,2.309,2.157,4.651
			c0.398,1.85,0.211,3.572-0.488,4.496c-0.294,0.389-0.646,0.59-1.077,0.616c-0.386,0.025-0.733-0.104-1.031-0.386
			c-0.438-0.413-1.171-1.556-1.158-4.558C161.943,389.48,162.901,387.643,163.531,386.646 M163.429,385.348
			c0,0-2.309,2.824-2.324,6.114c-0.02,4.532,1.581,5.869,3.07,5.776c2.064-0.13,3.015-2.897,2.324-6.114
			C165.637,387.115,163.429,385.348,163.429,385.348"/>
		
			<rect x="163.878" y="394.31" transform="matrix(0.5654 0.8248 -0.8248 0.5654 397.2682 35.2368)" clip-path="url(#SVGID_4_)" fill="#FFFFFF" width="2.64" height="0.545"/>
		
			<rect x="162.848" y="393.393" transform="matrix(0.8884 0.459 -0.459 0.8884 199.3755 -30.8363)" clip-path="url(#SVGID_4_)" fill="#FFFFFF" width="0.545" height="2.641"/>
		
			<rect x="162.203" y="391.442" transform="matrix(0.1247 0.9922 -0.9922 0.1247 531.7848 182.4667)" clip-path="url(#SVGID_4_)" fill="#FFFFFF" width="0.544" height="2.384"/>
		
			<rect x="165.183" y="391.111" transform="matrix(0.1247 0.9922 -0.9922 0.1247 533.9577 179.1262)" clip-path="url(#SVGID_4_)" fill="#FFFFFF" width="0.544" height="2.169"/>
		
			<rect x="164.449" y="388.779" transform="matrix(0.8884 0.459 -0.459 0.8884 197.4366 -32.0859)" clip-path="url(#SVGID_4_)" fill="#FFFFFF" width="0.545" height="2.641"/>
		
			<rect x="161.323" y="389.957" transform="matrix(0.5654 0.8248 -0.8248 0.5654 392.5503 35.4415)" clip-path="url(#SVGID_4_)" fill="#FFFFFF" width="2.641" height="0.545"/>
		<path clip-path="url(#SVGID_4_)" fill="#B59B76" d="M199.681,368.123c-0.326-5.202-4.479-9.193-8.551-9.876
			c-4.7-0.789-8.6,3.088-9.156,3.698c-1.951,2.138-2.412,4.571-2.749,5.877c1.075,1.091,4.078,3.843,8.616,4.439
			C194.344,373.116,198.903,368.872,199.681,368.123"/>
		<path clip-path="url(#SVGID_4_)" fill="#FFFFFF" d="M199.704,368.492c-0.973-4.698-4.419-8.234-8.485-8.822
			c-4.693-0.679-8.276,2.85-8.836,3.402c-1.963,1.934-2.779,4.104-3.125,5.28c1.068,0.973,4.052,3.428,8.584,3.935
			C194.338,373.013,198.921,369.169,199.704,368.492"/>
		<path clip-path="url(#SVGID_4_)" fill="#746653" d="M186.386,366.768c0.191,3.039,2.809,5.348,5.848,5.158
			c3.039-0.191,5.349-2.809,5.158-5.849c-0.191-3.039-2.809-5.348-5.848-5.157C188.504,361.111,186.195,363.729,186.386,366.768"/>
		<path clip-path="url(#SVGID_4_)" fill="#3A332A" d="M190.991,366.677c0.088,1.398,1.293,2.461,2.691,2.373
			s2.461-1.292,2.373-2.691c-0.088-1.398-1.293-2.461-2.691-2.373S190.903,365.279,190.991,366.677"/>
		<path clip-path="url(#SVGID_4_)" fill="#FFFFFF" d="M190.012,366.188c0.033,0.522,0.483,0.919,1.005,0.886
			c0.522-0.033,0.918-0.483,0.886-1.005c-0.033-0.522-0.483-0.918-1.005-0.886C190.375,365.217,189.979,365.667,190.012,366.188"/>
		<path clip-path="url(#SVGID_4_)" fill="#433015" d="M179.258,368.352c0.605-0.915,1.143-1.898,1.875-2.71
			c0.697-0.802,1.487-1.492,2.347-2.053c3.417-2.273,7.899-2.48,11.469-0.455c2.016,1.116,3.853,3.047,4.751,5.291
			c0.022-2.675-1.564-5.183-3.747-6.823C189.771,356.975,180.211,360.489,179.258,368.352"/>
		<path clip-path="url(#SVGID_4_)" fill="#433015" d="M180.739,364.673c-1.262-0.279-2.501-0.968-3.263-2.04
			c0.475,0.914,1.272,1.631,2.166,2.134c0.306,0.17,0.61,0.318,0.961,0.441L180.739,364.673z"/>
		<path clip-path="url(#SVGID_4_)" fill="#433015" d="M180.066,365.94c-1.047,0.04-2.258-0.12-3.001-0.942
			c0.462,0.738,1.316,1.123,2.134,1.336c0.283,0.072,0.558,0.128,0.864,0.158L180.066,365.94z"/>
		<path clip-path="url(#SVGID_4_)" fill="#433015" d="M179.43,367.202c-0.554,0.155-1.204,0.165-1.743-0.077
			c-0.188-0.081-0.354-0.207-0.511-0.35c0.362,0.56,1.022,0.857,1.671,0.942c0.226,0.03,0.439,0.045,0.688,0.027L179.43,367.202z"/>
		<path clip-path="url(#SVGID_4_)" fill="#B59B76" d="M210.453,368.2c-0.471-4.931,2.83-9.297,6.55-10.547
			c4.293-1.442,8.533,1.613,9.146,2.102c2.15,1.716,2.946,3.931,3.459,5.106c-0.847,1.184-3.254,4.216-7.424,5.454
			C216.208,372.089,211.295,368.787,210.453,368.2"/>
		<path clip-path="url(#SVGID_4_)" fill="#FFFFFF" d="M210.487,368.55c0.212-4.555,2.917-8.388,6.645-9.548
			c4.304-1.338,8.194,1.439,8.801,1.873c2.132,1.521,3.223,3.436,3.723,4.488c-0.857,1.073-3.291,3.823-7.469,4.976
			C216.199,371.992,211.323,369.07,210.487,368.55"/>
		<path clip-path="url(#SVGID_4_)" fill="#746653" d="M216.095,365.824c0.266,2.789,2.743,4.834,5.532,4.568
			s4.835-2.743,4.568-5.532c-0.266-2.79-2.743-4.835-5.532-4.568C217.874,360.558,215.829,363.035,216.095,365.824"/>
		<path clip-path="url(#SVGID_4_)" fill="#3A332A" d="M220.238,365.433c0.123,1.283,1.262,2.224,2.546,2.102
			c1.283-0.123,2.224-1.262,2.101-2.546c-0.122-1.283-1.262-2.224-2.545-2.102C221.056,363.01,220.115,364.149,220.238,365.433"/>
		<path clip-path="url(#SVGID_4_)" fill="#FFFFFF" d="M219.342,364.471c0.046,0.479,0.471,0.83,0.95,0.785
			c0.479-0.046,0.831-0.472,0.785-0.951c-0.046-0.479-0.471-0.83-0.95-0.784C219.648,363.566,219.296,363.992,219.342,364.471"/>
		<path clip-path="url(#SVGID_4_)" fill="#433015" d="M229.656,365.363c-0.704-0.769-1.356-1.611-2.165-2.263
			c-0.774-0.649-1.619-1.178-2.51-1.577c-3.546-1.622-7.784-1.147-10.832,1.287c-1.725,1.349-3.161,3.435-3.668,5.676
			c-0.421-2.507,0.693-5.099,2.498-6.963C218.089,356.256,227.587,358.127,229.656,365.363"/>
		<path clip-path="url(#SVGID_4_)" fill="#433015" d="M227.716,362.132c1.143-0.451,2.202-1.282,2.758-2.402
			c-0.31,0.929-0.951,1.72-1.714,2.326c-0.262,0.206-0.525,0.39-0.836,0.558L227.716,362.132z"/>
		<path clip-path="url(#SVGID_4_)" fill="#433015" d="M228.537,363.22c0.988-0.119,2.102-0.45,2.676-1.333
			c-0.323,0.762-1.068,1.251-1.803,1.574c-0.255,0.109-0.505,0.203-0.788,0.277L228.537,363.22z"/>
		<path clip-path="url(#SVGID_4_)" fill="#433015" d="M229.322,364.31c0.543,0.062,1.155-0.025,1.625-0.333
			c0.164-0.104,0.301-0.247,0.427-0.404c-0.256,0.58-0.832,0.957-1.428,1.133c-0.207,0.062-0.405,0.108-0.641,0.129L229.322,364.31z
			"/>
		<path clip-path="url(#SVGID_4_)" fill="#302C2B" d="M157.763,358.555c0.724,0.616,1.685,1.589,2.425,3
			c0.897,1.712,0.773,2.742,1.691,4.266c0.479,0.794,1.305,1.828,2.818,2.772c-0.011-1.796-0.022-3.592-0.033-5.387
			c0.633,2.181,1.368,4.457,2.224,6.808c1.568,4.311,3.295,8.196,5.035,11.649c-0.458-4.294-0.563-7.892-0.56-10.54
			c0.007-5.516,0.481-7.091,1.403-8.426c1.317-1.906,3.126-2.716,5.557-3.805c4.329-1.94,5.454-1,9.495-2.63
			c2.531-1.021,5.881-2.372,7.886-5.579c1.667-2.668,0.825-4.094,2.941-8.217c1.094-2.132,2.237-3.538,3.259-4.78
			c1.763-2.144,4.935-5.453,10.05-8.358c1.806,3.655,4.141,7.764,7.162,12.057c2.382,3.383,4.789,6.31,7.061,8.809
			c-0.623,1.913-1.59,5.79-0.662,10.515c1.336,6.808,7.571,12.373,9.021,13.6c-0.466-1.389-0.737-5.207,0.082-8.953
			c0.597-2.73,0.191-4.52,0.23-6.606c0.104-1.311,1.562-24.387-15.825-36.679c-10.194-7.206-21.31-6.778-23.33-6.67
			c-2.673,0.143-12.538,0.961-21.445,8.26c-7.422,6.082-10.281,13.47-12.722,19.779
			C159.201,349.446,158.217,354.772,157.763,358.555"/>
		<path clip-path="url(#SVGID_4_)" fill="#302C2B" d="M168.641,359.091c-0.199,0.92-2.213,9.521-10.817,13.423
			c-8.719,3.954-16.616-0.358-17.404-0.806c5.203-3.016,6.958-6.165,7.603-8.476c1.092-3.917-0.689-6.556,0.545-12.914
			c0.629-3.239,1.056-5.439,2.463-6.119C153.029,343.233,157.491,345.098,168.641,359.091"/>
		<path clip-path="url(#SVGID_4_)" fill="#FFFFFF" d="M212.525,394.483c-0.068-0.152-0.134-0.158-0.134-0.158
			s-2.665,0.56-6.024,0.577c-4.881,0.027-8.723-1.026-8.723-1.026s3.52,6.452,8.231,6.036
			C209.573,399.584,213.064,395.706,212.525,394.483"/>
		<path clip-path="url(#SVGID_4_)" fill="#E2C294" d="M166.134,424.308c1.324-0.423,3.295-1.085,5.648-2.009
			c6.549-2.572,9.839-3.922,11.172-6.727c1.186-2.498,0.177-4.465,1.353-5.073c1.574-0.813,4.056,2.563,7.445,4.677
			c2.933,1.829,7.612,3.393,15.251,2.14c1.027,2.15,3.023,5.604,6.672,8.744c4.906,4.223,10.094,5.551,12.587,6.019
			c-0.962,4.187-3.097,10.74-8.209,17.102c-2.149,2.674-4.38,4.763-6.389,6.369c-0.221,5.774-0.443,11.55-0.665,17.323
			c-1.964-4.981-3.927-9.964-5.891-14.945c-4.524-1.263-10.16-3.39-16.016-7.102C175.559,442.246,168.94,430.334,166.134,424.308"/>
		<path clip-path="url(#SVGID_4_)" fill="#003399" d="M228.171,430.539c-1.227,4.096-2.758,7.943-4.587,11.507
			c-2.797,5.438-6.231,10.119-10.229,13.941c0.27,4.702,0.157,6.869,0.021,9.577c-0.099,1.763-0.201,3.769-0.219,6.939
			c-0.01,1.281-0.706,2.326-1.727,2.635c-0.074,0.02-0.154,0.049-0.23,0.06c-1.133,0.194-2.22-0.548-2.658-1.832l-5.698-14.854
			c-3.421-0.644-8.31-1.926-13.651-4.692c-7.561-3.919-12.16-8.81-15.638-12.573c-3.106-3.362-7.67-8.876-11.299-15.707
			c1.554-0.78,3.64-1.057,5.194-1.837c2.259,4.833,7.133,13.558,16.656,21.079c7.564,5.974,15.043,8.802,19.82,10.189l1.13-0.027
			l4.893,12.752c0.034-0.845,0.08-1.6,0.111-2.317c0.144-2.852,0.257-4.911-0.062-10.018l-0.052-0.882l0.626-0.575
			c3.958-3.646,7.355-8.208,10.11-13.553c1.627-3.16,3.004-6.568,4.12-10.168C225.925,430.301,227.048,430.42,228.171,430.539"/>
		<path clip-path="url(#SVGID_4_)" fill-rule="evenodd" clip-rule="evenodd" fill="#003399" d="M176.791,447.238
			c0.104,0.602-0.252,1.177-0.794,1.286s-1.066-0.29-1.169-0.892c-0.104-0.602,0.251-1.178,0.794-1.286
			C176.164,446.238,176.687,446.638,176.791,447.238"/>
		<path clip-path="url(#SVGID_4_)" fill-rule="evenodd" clip-rule="evenodd" fill="#003399" d="M170.762,440.247
			c0.104,0.601-0.252,1.177-0.794,1.285c-0.542,0.109-1.066-0.29-1.169-0.892c-0.104-0.601,0.251-1.177,0.794-1.286
			C170.135,439.247,170.658,439.646,170.762,440.247"/>
		<path clip-path="url(#SVGID_4_)" fill-rule="evenodd" clip-rule="evenodd" fill="#003399" d="M164.548,432.648
			c0.104,0.602-0.252,1.177-0.794,1.286s-1.066-0.29-1.169-0.892c-0.104-0.602,0.251-1.178,0.794-1.286
			C163.921,431.648,164.444,432.048,164.548,432.648"/>
		<path clip-path="url(#SVGID_4_)" fill-rule="evenodd" clip-rule="evenodd" fill="#003399" d="M173.74,443.798
			c0.104,0.601-0.252,1.177-0.794,1.286c-0.542,0.108-1.066-0.29-1.169-0.893c-0.104-0.601,0.251-1.177,0.794-1.286
			C173.113,442.798,173.636,443.196,173.74,443.798"/>
		<path clip-path="url(#SVGID_4_)" fill-rule="evenodd" clip-rule="evenodd" fill="#003399" d="M167.4,436.364
			c0.104,0.601-0.252,1.177-0.794,1.286c-0.542,0.108-1.066-0.29-1.169-0.893c-0.104-0.601,0.251-1.177,0.794-1.286
			C166.773,435.364,167.296,435.763,167.4,436.364"/>
		<path clip-path="url(#SVGID_4_)" fill-rule="evenodd" clip-rule="evenodd" fill="#003399" d="M180.417,451.174
			c0.104,0.601-0.252,1.177-0.794,1.286c-0.542,0.108-1.066-0.29-1.169-0.893c-0.104-0.601,0.251-1.177,0.794-1.286
			C179.791,450.174,180.313,450.572,180.417,451.174"/>
		<path clip-path="url(#SVGID_4_)" fill-rule="evenodd" clip-rule="evenodd" fill="#003399" d="M183.888,453.997
			c0.104,0.601-0.252,1.177-0.794,1.286c-0.542,0.108-1.066-0.29-1.169-0.893c-0.104-0.601,0.251-1.177,0.794-1.286
			C183.261,452.997,183.784,453.396,183.888,453.997"/>
		<path clip-path="url(#SVGID_4_)" fill-rule="evenodd" clip-rule="evenodd" fill="#003399" d="M187.979,456.555
			c0.104,0.601-0.252,1.177-0.794,1.285c-0.542,0.109-1.066-0.289-1.169-0.892c-0.104-0.601,0.251-1.177,0.794-1.286
			C187.352,455.555,187.875,455.953,187.979,456.555"/>
		<path clip-path="url(#SVGID_4_)" fill-rule="evenodd" clip-rule="evenodd" fill="#003399" d="M191.89,457.846
			c0.513,0.231,0.764,0.877,0.56,1.442c-0.203,0.565-0.784,0.838-1.297,0.606c-0.513-0.23-0.764-0.877-0.561-1.442
			C190.795,457.887,191.376,457.615,191.89,457.846"/>
		<path clip-path="url(#SVGID_4_)" fill-rule="evenodd" clip-rule="evenodd" fill="#003399" d="M197.376,459.476
			c0.513,0.231,0.764,0.878,0.561,1.442c-0.204,0.566-0.785,0.838-1.298,0.607c-0.513-0.231-0.764-0.877-0.561-1.443
			C196.282,459.517,196.863,459.245,197.376,459.476"/>
		<path clip-path="url(#SVGID_4_)" fill-rule="evenodd" clip-rule="evenodd" fill="#003399" d="M201.871,460.509
			c0.513,0.231,0.764,0.877,0.56,1.442c-0.203,0.566-0.784,0.838-1.297,0.607c-0.513-0.231-0.764-0.877-0.561-1.443
			C200.776,460.55,201.357,460.278,201.871,460.509"/>
		<path clip-path="url(#SVGID_4_)" fill-rule="evenodd" clip-rule="evenodd" fill="#003399" d="M203.841,465.993
			c0.513,0.231,0.764,0.877,0.561,1.442c-0.204,0.566-0.785,0.838-1.298,0.607c-0.513-0.231-0.764-0.877-0.561-1.443
			C202.748,466.034,203.329,465.763,203.841,465.993"/>
		<path clip-path="url(#SVGID_4_)" fill-rule="evenodd" clip-rule="evenodd" fill="#003399" d="M205.743,471.073
			c0.503,0.258,0.726,0.916,0.498,1.47c-0.228,0.555-0.82,0.794-1.323,0.537c-0.503-0.258-0.726-0.916-0.498-1.47
			S205.24,470.815,205.743,471.073"/>
		<path clip-path="url(#SVGID_4_)" fill-rule="evenodd" clip-rule="evenodd" fill="#003399" d="M207.997,475.742
			c0.503,0.258,0.726,0.916,0.498,1.471c-0.228,0.554-0.82,0.794-1.323,0.536s-0.726-0.916-0.498-1.47
			S207.494,475.484,207.997,475.742"/>
		<path clip-path="url(#SVGID_4_)" fill-rule="evenodd" clip-rule="evenodd" fill="#003399" d="M212.507,476.956
			c0.503,0.259,0.726,0.916,0.498,1.471c-0.228,0.554-0.82,0.794-1.323,0.537c-0.503-0.259-0.726-0.916-0.498-1.471
			C211.413,476.939,212.004,476.698,212.507,476.956"/>
		<path clip-path="url(#SVGID_4_)" fill-rule="evenodd" clip-rule="evenodd" fill="#003399" d="M215.858,473.533
			c0.503,0.258,0.726,0.916,0.498,1.47c-0.228,0.555-0.82,0.794-1.323,0.537c-0.503-0.258-0.726-0.916-0.498-1.47
			S215.355,473.275,215.858,473.533"/>
		<path clip-path="url(#SVGID_4_)" fill-rule="evenodd" clip-rule="evenodd" fill="#003399" d="M216.607,462.184
			c0.503,0.258,0.726,0.916,0.498,1.47s-0.82,0.794-1.323,0.537c-0.503-0.258-0.726-0.916-0.498-1.47
			C215.513,462.166,216.104,461.926,216.607,462.184"/>
		<path clip-path="url(#SVGID_4_)" fill-rule="evenodd" clip-rule="evenodd" fill="#003399" d="M216.279,456.944
			c0.503,0.258,0.726,0.916,0.498,1.47s-0.82,0.794-1.323,0.537c-0.503-0.258-0.726-0.916-0.498-1.47
			C215.184,456.927,215.776,456.687,216.279,456.944"/>
		<path clip-path="url(#SVGID_4_)" fill-rule="evenodd" clip-rule="evenodd" fill="#003399" d="M219.472,453.288
			c0.503,0.258,0.726,0.916,0.498,1.47s-0.82,0.794-1.323,0.537c-0.503-0.258-0.726-0.916-0.498-1.47
			C218.377,453.271,218.969,453.03,219.472,453.288"/>
		<path clip-path="url(#SVGID_4_)" fill-rule="evenodd" clip-rule="evenodd" fill="#003399" d="M222.703,449.261
			c0.503,0.258,0.726,0.916,0.498,1.47c-0.228,0.555-0.82,0.794-1.323,0.537c-0.503-0.258-0.726-0.916-0.498-1.47
			S222.2,449.003,222.703,449.261"/>
		<path clip-path="url(#SVGID_4_)" fill-rule="evenodd" clip-rule="evenodd" fill="#003399" d="M225.236,445.013
			c0.503,0.258,0.726,0.916,0.498,1.47s-0.82,0.794-1.323,0.537c-0.503-0.258-0.726-0.916-0.498-1.47
			C224.141,444.995,224.733,444.755,225.236,445.013"/>
		<path clip-path="url(#SVGID_4_)" fill-rule="evenodd" clip-rule="evenodd" fill="#003399" d="M227.798,440.36
			c0.503,0.258,0.726,0.916,0.498,1.47c-0.228,0.555-0.82,0.794-1.323,0.537c-0.503-0.258-0.726-0.916-0.498-1.47
			S227.295,440.103,227.798,440.36"/>
		<path clip-path="url(#SVGID_4_)" fill-rule="evenodd" clip-rule="evenodd" fill="#003399" d="M229.406,436.588
			c0.503,0.259,0.726,0.916,0.498,1.471c-0.228,0.554-0.82,0.794-1.323,0.537c-0.503-0.259-0.726-0.916-0.498-1.471
			C228.311,436.571,228.903,436.33,229.406,436.588"/>
		<path clip-path="url(#SVGID_4_)" fill-rule="evenodd" clip-rule="evenodd" fill="#003399" d="M230.587,432.487
			c0.503,0.258,0.726,0.916,0.498,1.47s-0.82,0.794-1.323,0.537c-0.503-0.258-0.726-0.916-0.498-1.471
			C229.492,432.47,230.084,432.229,230.587,432.487"/>
		<path clip-path="url(#SVGID_4_)" fill-rule="evenodd" clip-rule="evenodd" fill="#003399" d="M216.298,467.895
			c0.503,0.258,0.726,0.916,0.498,1.471c-0.228,0.554-0.82,0.794-1.323,0.536s-0.726-0.916-0.498-1.47
			S215.795,467.637,216.298,467.895"/>
		<path clip-path="url(#SVGID_4_)" fill="#23AEB5" d="M143.353,435.408c-7.241,18.053-11.875,33.534-14.847,44.845
			c-9.159,34.859-5.924,43.035-3.792,46.931c2.381,4.352,5.459,7.142,26.449,19.592c13.716,8.136,25.441,14.678,34.16,19.425
			c-0.87-11.215-1.741-22.43-2.612-33.645c-9.412-2.441-16.798-5.541-21.997-8.066c-8.775-4.26-11.639-7.035-12.735-10.53
			c-0.91-2.906-0.328-5.452,0.49-8.571c2.78-10.6,4.171-15.898,7.058-21.8c3.33-6.81,7.131-17.359,8.681-33.372L143.353,435.408z"/>
		<path clip-path="url(#SVGID_4_)" fill="#F4CCAB" d="M317.811,602.414l0.029,4.917c0,0,8.702,8.211,5.191,13.345
			c-3.133,2.379-4.105,4.351-5.294,2.785c-1.189-1.567-2.001-5.89-2.596-6.673c-0.595-0.783-0.781,2.7-1.755,2.567
			c-1.378-0.188-2.19-4.512-1.624-8.646l-2.001-5.89L317.811,602.414z"/>
		<path clip-path="url(#SVGID_4_)" fill="#096633" d="M308.936,609.162l11.658-5.503l-13.099-40.54l-20.623-54.816
			c0,0-0.427,44.048-0.182,51.203C286.935,566.662,308.936,609.162,308.936,609.162"/>
		<path clip-path="url(#SVGID_4_)" fill="#096633" d="M268.166,738.415l0.353,4.998l5.605,78.403h18.872
			c11.616-38.455,15.781-70.001,17.365-92.286c2.076-29.205,1.735-70.816,2.053-104.343c0.015-1.546,0.057-6.572,0.037-13.29
			c-0.013-4.195-0.049-6.542-0.049-6.542h-38.278l-0.316,6.991l-0.681,15.272l-2.979,66.487l-1.8,40.284L268.166,738.415z"/>
		<path clip-path="url(#SVGID_4_)" fill="#096633" d="M194.383,790.202l14.591,10.943c10.686-8.741,25.117-21.798,39.939-39.67
			c11.48-13.844,17.22-20.766,22.439-31.012c20.349-39.951,15.016-91.193,17.047-109.276c0.39-3.466,0.718-6.506,0.998-9.023
			c0.34-3.222,0.583-5.581,0.705-6.809c0.073-0.645,0.109-0.985,0.109-0.985l-37.73-9.934c0,0-4.11,4.851-7.685,18.251
			c-0.261,0.977-2.42,8.269-3.295,16.865c-2.521,24.767,5.69,57.407,1.678,83.134C243.179,712.687,241.445,723.806,194.383,790.202"
			/>
		<path clip-path="url(#SVGID_4_)" fill="#513D1D" d="M226.009,505.611c0,0,7.49,0.827,12.488-5.823
			c-1.666,6.65-4.171,8.316-4.171,8.316s34.946-6.65,23.297-44.09l3.332-30.788c-1.009-1.045-2.018-2.006-3.028-2.869
			c-19.795-17.133-38.922-0.924-29.413,22.835c1.216,3.028,2.091,6.104,2.699,9.156c0,0.012,0.012,0.024,0.012,0.037
			C235.639,484.455,226.009,505.611,226.009,505.611"/>
		<path clip-path="url(#SVGID_4_)" fill="#ED2448" d="M261.787,434.891c0,5.514-4.47,9.984-9.984,9.984s-9.983-4.471-9.983-9.984
			s4.469-9.984,9.983-9.984S261.787,429.377,261.787,434.891"/>
		<path clip-path="url(#SVGID_4_)" fill="#157A45" d="M201.866,709.846c-2.705,4.333-0.61,10.041,4.271,11.545
			c18.911,5.827,44.389,11.361,74.7,11.719c24.09,0.283,44.958-2.779,61.52-6.538c4.938-1.121,7.507-6.564,5.209-11.077
			c-6.023-11.829-12.385-25.744-18.362-41.617c-6.437-17.098-10.197-30.542-11.576-35.635c-5.724-21.134-8.241-37.341-10.68-55.604
			c-5.643-42.261-4.768-57.089-17.722-72.102c-4.573-5.299-9.302-8.806-12.586-10.941l-17.813-0.001l-22.389,10.335
			c-2.611,1.256-4.152,3.997-3.913,6.884c0.947,11.451,5.95,24.896,5.467,43.13c-0.678,25.627-1.257,47.528-3.976,65.807
			C231.063,645.601,223.506,675.177,201.866,709.846"/>
		<polygon clip-path="url(#SVGID_4_)" fill="#F4CCAB" points="278.283,499.593 278.283,480.138 260.043,480.138 258.828,499.593 
			278.283,510.536 		"/>
		<path clip-path="url(#SVGID_4_)" fill="#DDB99E" d="M278.153,494.135c0.249-6.489,0.498-12.979,0.748-19.469h-18.239
			c-0.417,5.203-0.835,10.405-1.252,15.607c1.315,1.678,3.894,4.518,8.056,6.649c4.509,2.311,8.647,2.646,10.817,2.67
			C278.239,497.774,278.196,495.954,278.153,494.135"/>
		<path clip-path="url(#SVGID_4_)" fill="#096633" d="M258.827,499.593c-1.018,0.47-2.036,0.94-3.054,1.41
			c1.404,2.534,2.807,5.22,4.186,8.058c1.885,3.883,3.523,7.632,4.948,11.203c4.459-3.242,8.917-6.484,13.375-9.728L258.827,499.593
			z"/>
		<path clip-path="url(#SVGID_4_)" fill="#F4CCAB" d="M298.879,443.015c0,11.705,0.974,54.5-21.115,53.445
			c-26.956-1.287-24.363-42.187-24.205-55.746L298.879,443.015z"/>
		<path clip-path="url(#SVGID_4_)" fill="#664A1D" d="M244.735,449.447c0,25.194,10.567,31.651,11.053,31.932
			c0.956,0.476,1.912,0.953,2.868,1.43c-1.379-3.383-2.719-7.342-3.764-11.835c-0.594-2.553-1.023-4.977-1.329-7.239
			c0.279,0.066,0.637,0.101,1.042,0.109c3.483,0.08,6.362,2.72,6.59,6.195l0.593,9.061l4.241-17.611l16.869-8.053l-15.681,12.155
			c0,0,5.971-0.778,8.743-1.588c5.302-1.521,10.007-3.892,13.716-6.165c5.338-3.271,8.621-6.312,8.621-6.312v9.717
			c2.845-5.654,3.903-9.777,4.22-12.599c0.389-3.501-0.377-5.021-0.377-5.021c-5.642-21.183-41.841-24.563-53.684-6.117
			C246.328,440.79,244.99,444.767,244.735,449.447"/>
		<path clip-path="url(#SVGID_4_)" fill="#096633" d="M278.283,510.536h10.943c-3.647-3.461-7.295-6.921-10.943-10.382V510.536z"/>
		<path clip-path="url(#SVGID_4_)" fill="#FFFFFF" d="M277.775,471.843c-0.207,0.327-1.364,2.085-3.504,2.436
			c-2.208,0.362-4.558-0.923-5.716-3.23c1.985-2.616,5.091-3.405,7.101-2.276C277.16,469.615,277.645,471.306,277.775,471.843"/>
		<path clip-path="url(#SVGID_4_)" fill="#EF6F7B" d="M287.724,486.335c-0.879,0.068-1.67,0.199-2.479,0.189
			c-0.798,0.003-1.586-0.011-2.371-0.128c-1.579-0.18-3.122-0.569-4.803-0.98c0.596,0.646,1.345,1.116,2.135,1.479
			c0.793,0.368,1.65,0.592,2.525,0.708c0.876,0.104,1.777,0.065,2.638-0.143C286.234,487.285,287.043,486.866,287.724,486.335"/>
		<path clip-path="url(#SVGID_4_)" fill="#DDB99E" d="M284.819,481.787c1.975-1.799-2.55-5.929-1.195-8.996
			c0.597,2.339,1.614,4.444,2.727,6.523c0.612,1.143,0.139,2.623-1.078,3.068c-0.777,0.283-1.632,0.287-2.376-0.145
			C283.613,482.26,284.281,482.1,284.819,481.787"/>
		<path clip-path="url(#SVGID_4_)" fill="#3A2608" d="M278.9,464.07c-4.36-2.907-9.447,0-9.447,0s4.36-4.359,9.447-1.453V464.07z"/>
		<path clip-path="url(#SVGID_4_)" fill="#3A2608" d="M294.888,464.07c-4.36-2.907-9.447,0-9.447,0s4.36-4.359,9.447-1.453V464.07z"
			/>
		<path clip-path="url(#SVGID_4_)" fill="#141529" d="M272.405,471.499c0,1.219,0.989,2.208,2.208,2.208
			c1.219,0,2.208-0.989,2.208-2.208s-0.989-2.208-2.208-2.208C273.394,469.291,272.405,470.28,272.405,471.499"/>
		<path clip-path="url(#SVGID_4_)" fill="#938479" d="M268.555,471.048c2.063-4.098,8.715-4.563,9.22,0.795
			C276.071,467.374,271.421,468.192,268.555,471.048"/>
		<path clip-path="url(#SVGID_4_)" fill="#FFFFFF" d="M294.774,471.843c-0.207,0.327-1.364,2.085-3.504,2.436
			c-2.208,0.362-4.558-0.923-5.716-3.23c1.985-2.616,5.091-3.405,7.101-2.276C294.16,469.615,294.645,471.306,294.774,471.843"/>
		<path clip-path="url(#SVGID_4_)" fill="#141529" d="M289.373,471.499c0,1.237,1.002,2.239,2.239,2.239
			c1.237,0,2.239-1.002,2.239-2.239c0-1.236-1.002-2.239-2.239-2.239C290.375,469.26,289.373,470.263,289.373,471.499"/>
		<path clip-path="url(#SVGID_4_)" fill="#938479" d="M285.555,471.048c2.063-4.098,8.715-4.563,9.22,0.795
			C293.071,467.374,288.421,468.192,285.555,471.048"/>
		<path clip-path="url(#SVGID_4_)" fill="#F4CCAB" d="M260.956,468.589c0,3.676-2.249,6.655-5.023,6.655s-5.023-2.979-5.023-6.655
			c0-3.677,2.249-6.656,5.023-6.656S260.956,464.912,260.956,468.589"/>
		<path clip-path="url(#SVGID_4_)" fill="#F5B4B8" d="M294.688,647.632c13.439-6.73,17.269-18.207,17.269-18.207l-1.303-3
			l-1.303-2.998c0,0-11.004-5.028-25.094,0.204c-14.091,5.23-6.881,17.257-6.881,17.257S281.25,654.364,294.688,647.632"/>
		<path clip-path="url(#SVGID_4_)" fill="#FCE9ED" d="M292.568,643.762c9.49-4.284,19.26-14.632,19.26-14.632l-1.175-2.705
			l-1.176-2.706c0,0-14.231,0.085-23.838,4.1c-7.205,3.012-9.68,7.26-7.332,12.664C280.657,645.887,285.451,646.978,292.568,643.762
			"/>
		<path clip-path="url(#SVGID_4_)" fill="#F5B4B8" d="M309.03,622.725c0.392,1.357-1.19,0.969-2.625,0.531
			c-10.181-3.1-18.195-2.986-19.61-2.754c-3.229,0.528-6.666,2.14-7.85-1.809c-1.418-4.729,6.618-5.835,13.442-4.358
			C298.66,615.69,308.25,620.006,309.03,622.725"/>
		<path clip-path="url(#SVGID_4_)" fill="#F5B4B8" d="M312.252,630.139c-0.725-1.215-1.521,0.207-2.18,1.555
			c-4.681,9.557-10.231,15.339-11.366,16.216c-2.59,2.001-6.113,3.413-4.033,6.976c2.491,4.263,8.781-0.859,12.357-6.857
			C310.319,642.518,313.707,632.563,312.252,630.139"/>
		<path clip-path="url(#SVGID_4_)" fill="#F5B4B8" d="M280.387,634.854c-3.007,1.768-5.219,1.734-6.927,0.067
			c-2.19-2.133-1.293-5.918,0.465-8.933c2.761-4.73,9.516-4.731,11.716-0.753C287.677,628.918,283.436,633.063,280.387,634.854"/>
		<path clip-path="url(#SVGID_4_)" fill="#FCE9ED" d="M280.059,632.986c-1.371,1.636-3.683,1.954-5.169,0.709
			c-1.486-1.245-1.58-3.58-0.211-5.213c1.37-1.636,3.683-1.952,5.17-0.708C281.334,629.018,281.428,631.353,280.059,632.986"/>
		<path clip-path="url(#SVGID_4_)" fill="#FCE9ED" d="M284.557,628.166c-0.752,0.895-1.951,1.127-2.681,0.515
			c-0.731-0.609-0.713-1.834,0.037-2.729c0.753-0.897,1.951-1.127,2.682-0.515C285.326,626.048,285.309,627.268,284.557,628.166"/>
		<path clip-path="url(#SVGID_4_)" fill="#FCE9ED" d="M281.634,625.833c-0.494,0.814-1.432,1.146-2.092,0.745
			c-0.662-0.401-0.798-1.387-0.306-2.201c0.494-0.813,1.429-1.144,2.09-0.743C281.989,624.035,282.125,625.019,281.634,625.833"/>
		<path clip-path="url(#SVGID_4_)" fill="#FCE9ED" d="M278.337,625.505c-0.277,0.749-0.996,1.174-1.603,0.948
			c-0.61-0.225-0.879-1.013-0.605-1.761c0.276-0.748,0.995-1.172,1.604-0.947C278.344,623.97,278.613,624.759,278.337,625.505"/>
		<path clip-path="url(#SVGID_4_)" fill="#F5B4B8" d="M284.028,643.231c-3.345,0.991-4.829,2.631-4.776,5.018
			c0.067,3.059,3.445,4.982,6.849,5.754c5.341,1.211,9.951-3.728,8.543-8.052C293.341,641.952,287.417,642.224,284.028,643.231"/>
		<path clip-path="url(#SVGID_4_)" fill="#FCE9ED" d="M285.169,644.744c-2.131-0.112-3.94,1.361-4.044,3.297
			c-0.104,1.935,1.539,3.597,3.666,3.709c2.131,0.113,3.94-1.36,4.045-3.297C288.941,646.52,287.298,644.858,285.169,644.744"/>
		<path clip-path="url(#SVGID_4_)" fill="#FCE9ED" d="M291.763,644.747c-1.168-0.063-2.156,0.654-2.207,1.606
			c-0.052,0.952,0.854,1.772,2.022,1.836c1.169,0.062,2.155-0.658,2.208-1.607C293.835,645.63,292.933,644.809,291.763,644.747"/>
		<path clip-path="url(#SVGID_4_)" fill="#FCE9ED" d="M291.473,648.474c-0.932-0.194-1.815,0.265-1.973,1.021
			c-0.156,0.76,0.471,1.53,1.401,1.726c0.932,0.194,1.813-0.262,1.97-1.021C293.03,649.44,292.404,648.67,291.473,648.474"/>
		<path clip-path="url(#SVGID_4_)" fill="#FCE9ED" d="M289.463,651.105c-0.736-0.306-1.536-0.071-1.787,0.525
			c-0.251,0.602,0.143,1.336,0.876,1.646c0.735,0.308,1.536,0.072,1.787-0.527C290.592,652.151,290.199,651.415,289.463,651.105"/>
		<path clip-path="url(#SVGID_4_)" fill="#F5B4B8" d="M331.224,634.671c2.44-3.395,3.397-5.964,3.187-10.224
			c-0.453-9.146-6.319-18.847-17.895-21.439c-5.042-0.983-7.896,0.801-10.288,6.424c-2.461,5.785-4.647,12.135-2.102,17.887
			c2.12,4.787,8.237,9.375,13.502,10.924C325.607,640.588,328.161,638.934,331.224,634.671"/>
		<path clip-path="url(#SVGID_4_)" fill="#FCE9ED" d="M334.411,624.447c-0.324-6.556-3.43-13.394-9.424-17.697
			c-1.897,3.07-4.791,7.511-7.041,9.845c-4.778,4.957-12.161,6.688-10.988,9.387c1.172,2.696,10.153-1.364,14.233-1.422
			c4.861-0.069,10.29,0.946,13.24,1.593C334.446,625.614,334.44,625.049,334.411,624.447"/>
		<path clip-path="url(#SVGID_4_)" fill="#282125" d="M310.76,618.091c-1.271,0.552-2.748-0.031-3.3-1.299
			c-0.552-1.271,0.031-2.746,1.302-3.298c1.269-0.551,2.743,0.029,3.295,1.301C312.608,616.063,312.028,617.54,310.76,618.091"/>
		<path clip-path="url(#SVGID_4_)" fill="#1F1A1C" d="M309.932,617.389c-0.646,0.28-1.398-0.017-1.679-0.663
			c-0.281-0.646,0.014-1.399,0.661-1.681c0.648-0.281,1.399,0.017,1.68,0.662C310.875,616.354,310.58,617.106,309.932,617.389"/>
		<path clip-path="url(#SVGID_4_)" fill="#FFF7EF" d="M308.694,614.393c1.032-0.449,2.232,0.024,2.68,1.057
			c0.364,0.838,0.124,1.786-0.535,2.354c0.874-0.569,1.238-1.698,0.809-2.685c-0.48-1.104-1.763-1.608-2.863-1.132
			c-0.841,0.366-1.334,1.2-1.305,2.067C307.552,615.347,307.997,614.695,308.694,614.393"/>
		<path clip-path="url(#SVGID_4_)" fill="#FFF7EF" d="M310.377,615.776c-0.271,0.118-0.586-0.006-0.704-0.276
			c-0.117-0.271,0.007-0.587,0.278-0.704c0.27-0.118,0.587,0.007,0.705,0.276C310.773,615.344,310.648,615.658,310.377,615.776"/>
		<path clip-path="url(#SVGID_4_)" fill="#FFF7EF" d="M309.275,615.479c-0.178,0.077-0.39-0.005-0.469-0.186
			c-0.077-0.179,0.006-0.391,0.185-0.468c0.182-0.079,0.391,0.005,0.469,0.184C309.539,615.189,309.457,615.4,309.275,615.479"/>
		<path clip-path="url(#SVGID_4_)" fill="#282125" d="M315.524,629.052c-1.271,0.552-1.854,2.026-1.302,3.297
			c0.55,1.267,2.028,1.851,3.299,1.298c1.268-0.551,1.848-2.028,1.297-3.295C318.266,629.081,316.792,628.501,315.524,629.052"/>
		<path clip-path="url(#SVGID_4_)" fill="#1F1A1C" d="M315.472,630.137c-0.646,0.281-0.942,1.033-0.662,1.678
			c0.281,0.647,1.033,0.945,1.68,0.664c0.648-0.281,0.943-1.034,0.662-1.682C316.871,630.152,316.12,629.854,315.472,630.137"/>
		<path clip-path="url(#SVGID_4_)" fill="#FFF7EF" d="M316.818,633.085c1.032-0.449,1.504-1.65,1.056-2.683
			c-0.364-0.837-1.223-1.309-2.088-1.217c1.014-0.249,2.087,0.257,2.516,1.244c0.479,1.102-0.027,2.385-1.127,2.863
			c-0.841,0.364-1.788,0.155-2.4-0.454C315.341,633.268,316.12,633.388,316.818,633.085"/>
		<path clip-path="url(#SVGID_4_)" fill="#FFF7EF" d="M316.953,630.906c-0.271,0.118-0.394,0.436-0.277,0.704
			c0.118,0.271,0.432,0.395,0.703,0.277c0.271-0.118,0.397-0.433,0.279-0.704C317.541,630.915,317.224,630.789,316.953,630.906"/>
		<path clip-path="url(#SVGID_4_)" fill="#FFF7EF" d="M316.419,631.917c-0.178,0.077-0.262,0.289-0.185,0.467
			c0.079,0.183,0.291,0.266,0.469,0.188c0.182-0.079,0.264-0.289,0.185-0.471C316.81,631.921,316.601,631.838,316.419,631.917"/>
		<path clip-path="url(#SVGID_4_)" fill="#F5B4B8" d="M359.012,639.604c1.686-0.663,5.662-2.336,1.487-7.006
			c-3.152-3.582-6.684-5.495-9.72-6.517c-7.075-2.79-13.795-4.643-19.747-2.224c0,0-1.353,4.972-0.305,5.654
			c0,0,9.246,6.801,13.454,8.347C349.411,639.971,354.558,641.244,359.012,639.604"/>
		<path clip-path="url(#SVGID_4_)" fill="#FCE9ED" d="M352.603,635.81c7.849-1.159-4.067-7.255-6.413-8.044
			c-5.47-2.156-13.018-2.741-15.16-3.152c0,0-1.35,1.888-0.816,3.926c0,0,7.873,3.753,11.122,4.948
			C345.38,635.12,348.957,636.347,352.603,635.81"/>
		<path clip-path="url(#SVGID_4_)" fill="#E59B9D" d="M333.352,593.36c-1.947-0.827-3.912-1.549-5.84-2.47
			c-0.53-0.257-1.141-0.558-1.749-0.776c-0.149,0.317-0.299,0.637-0.445,0.958c-2.393,4.887-4.294,15.702-4.294,15.702
			c0.02,0.529,4.452,3.943,4.452,3.943c5.59-3.652,8.971-8.334,12.22-14.403C336.122,595.434,334.991,594.055,333.352,593.36"/>
		<path clip-path="url(#SVGID_4_)" fill="#FCE9ED" d="M335.084,594.912c0,0-7.347-1.533-8.559,1.117
			c-1.851,3.778-4.953,11.436-4.953,11.436c0.031,0.335,3.407,2.864,3.407,2.864C326.438,608.132,331.977,601.112,335.084,594.912"
			/>
		<path clip-path="url(#SVGID_4_)" fill="#F5B4B8" d="M331.928,588.186c-1.44-1.311-4.952-0.884-8.678-0.453
			c-2.284,0.264-11.088,3.747-10.54,5.344c0.553,1.595,14.472,4.876,16.943,4.779C334.677,597.694,343.848,599.053,331.928,588.186"
			/>
		<path clip-path="url(#SVGID_4_)" fill="#F5EFEC" d="M306.701,631.186c2.079,0.428,3.467-5.235,2.9-6.414
			c-0.574-1.195-1.93-1.368-4.176-2.474c-1.268-0.622-2.002-0.151-2.404,0.378c0.095,1.575,0.436,3.131,1.106,4.643
			C304.71,628.644,305.605,629.953,306.701,631.186"/>
		
			<path clip-path="url(#SVGID_4_)" fill="none" stroke="#2E2A2B" stroke-width="0.279" stroke-linecap="round" stroke-linejoin="round" stroke-miterlimit="10" d="
			M306.413,626.241c0,0-0.964,0.419-1.494,0.649c-0.526,0.229-1.441-0.347-0.612-1.677"/>
		
			<path clip-path="url(#SVGID_4_)" fill="none" stroke="#2E2A2B" stroke-width="0.279" stroke-linecap="round" stroke-linejoin="round" stroke-miterlimit="10" d="
			M306.404,626.222c0,0-0.964,0.419-1.494,0.649c-0.526,0.229-0.732,1.287,0.808,1.591"/>
		<path clip-path="url(#SVGID_4_)" fill="#443E42" d="M307.845,628.091c-0.601-0.108-1.256-0.457-1.758-0.976
			c-0.261-0.266-0.58-0.999-0.599-1.371c-0.034-0.721,0.156-1.438,0.487-1.952c0.197-0.309,1.35-1.312,2.548,1.447
			C309.722,627.997,308.203,628.156,307.845,628.091"/>
		<path clip-path="url(#SVGID_4_)" fill="#2E2A2B" d="M305.485,625.674c0.183,0.086,0.371,0.084,0.542,0.01
			c0.392-0.17,0.562-0.642,0.228-1.412c-0.086-0.197-0.179-0.357-0.279-0.48C305.656,624.286,305.463,624.975,305.485,625.674"/>
		<path clip-path="url(#SVGID_4_)" fill="#2E2A2B" d="M307.845,628.091c-0.023-0.158-0.076-0.335-0.162-0.532
			c-0.335-0.772-0.797-0.971-1.189-0.8c-0.171,0.074-0.301,0.21-0.362,0.404C306.628,627.655,307.263,627.984,307.845,628.091"/>
		<path clip-path="url(#SVGID_4_)" fill="#524A50" d="M308.647,626.628c0,0,0.228-0.797-0.767-2.081
			c-0.872-1.13-1.583-0.825-1.545-0.716c0.038,0.108,0.566,0.801,0.33,1.508C306.426,626.049,307.125,623.999,308.647,626.628"/>
		<path clip-path="url(#SVGID_4_)" fill="#F4D3BB" d="M304.992,624.54c-0.476,0.207-1.028-0.014-1.235-0.49
			c-0.206-0.474,0.01-1.028,0.486-1.234c0.477-0.208,1.028,0.013,1.235,0.486C305.686,623.78,305.47,624.332,304.992,624.54"/>
		<path clip-path="url(#SVGID_4_)" fill="#F4D3BB" d="M307.35,629.964c-0.476,0.207-1.027-0.011-1.234-0.488
			c-0.207-0.476,0.009-1.029,0.485-1.236c0.478-0.206,1.029,0.013,1.236,0.489S307.828,629.756,307.35,629.964"/>
		<path clip-path="url(#SVGID_4_)" fill="#F4CCAB" d="M285.363,618.953l6.679,3.924c0,0,4.317,18.346,14.088,17.616
			c5.717-2.391,9.173-2.157,7.977-5.016c-1.196-2.859-6.446-7.38-7.044-8.809c-0.598-1.43,4.298,1.068,4.886-0.364
			c0.831-2.028-4.419-6.549-10.5-9.043l-6.446-7.379L285.363,618.953z"/>
		<path clip-path="url(#SVGID_4_)" fill="#096633" d="M227.95,528.248c1.518,14.369,4.404,25.881,7.912,34.81
			c2.577,6.56,6.525,12.487,11.452,17.526c12.506,12.789,41.366,42.302,41.366,42.302l11.173-11.367l-26.005-33.125
			c-4.285-5.459-7.199-11.865-8.498-18.683l-5.451-28.624c-1.071-13.691-6.849-22.792-16.392-22.98
			c-5.715-0.111-10.727,3.216-13.59,8.813C228.139,520.396,227.54,524.365,227.95,528.248"/>
		<path clip-path="url(#SVGID_4_)" fill="#E2C294" d="M284.24,554.096c1.577-0.254,3.333-0.587,4.204-1.25
			c1.382-1.075,1.651-2.422,1.066-2.611c-0.587-0.189-7.446,0.031-8.471,0.049c-0.098,0.004-0.263,0.03-0.458,0.067
			c0.664-0.673,1.268-1.266,1.627-1.569c1.246-1.035,4.429-2.807,5.225-4.359c0.781-1.567,0.44-2.898-0.169-2.816
			c-0.611,0.083-6.7,3.248-7.615,3.707c-3.775,1.891-3.485,4.129-7.045,6.742c-0.534,0.392-1.422,1.015-3.1,2.257
			c-0.065,0.049-0.123,0.092-0.186,0.139c-0.027,0.02-0.053,0.039-0.078,0.059c-1.373,1.018-2.488,1.87-3.218,2.431c0,0,0,0,0,0.001
			c-0.606,0.447-1.265,0.939-1.995,1.49c-4.383,3.313-5.404,4.317-7.527,5.43c-1.359,0.709-3.452,1.604-6.341,2.091
			c1.43,3.145,2.857,6.289,4.287,9.433c2.25-1.158,3.994-1.955,5.131-2.451c0.416-0.182,1.133-0.578,2.166-0.751
			c0.566-0.095,0.828-0.063,1.623-0.09c1.404,0.195,4.698,0.438,7.76-1.493c1.831-1.153,2.836-2.618,3.697-3.868
			c0.651-0.948,1.133-1.875,1.549-2.774c0.006,0.005,0.015,0.01,0.021,0.015c0.218-0.414,0.496-0.994,0.751-1.709
			c0.636-1.782,2.117-3.146,3.921-3.716c0.128-0.04,0.242-0.074,0.34-0.101c1.568-0.409,5.202-0.664,6.581-1.734
			c1.372-1.088,1.628-2.438,1.041-2.622C288.697,553.986,286.385,554.032,284.24,554.096"/>
		<path clip-path="url(#SVGID_4_)" fill="#1A5B72" d="M173.644,679.051c-8.487,5.739-9.54,18.225-8.108,45.425
			c1.097,20.839,3.628,49.848,9.946,84.889c2.066,1.078,5.531,2.558,10.062,3.018c5.129,0.521,9.244-0.507,11.552-1.27
			c1.514-5.882,3.56-14.197,5.709-24.225c1.901-8.869,5.357-24.997,7.428-41.964c4.17-34.151,6.255-51.226-3.447-60.883
			C198.333,675.627,182.656,672.957,173.644,679.051"/>
		<path clip-path="url(#SVGID_4_)" fill="#1F627F" d="M181.131,682.67c-8.487,5.739-9.54,18.224-8.108,45.425
			c1.097,20.839,3.628,49.847,9.946,84.888c2.066,1.078,5.531,2.559,10.063,3.019c5.129,0.521,9.244-0.507,11.552-1.271
			c1.514-5.881,3.56-14.197,5.709-24.224c1.901-8.869,5.357-24.997,7.428-41.964c4.17-34.151,6.255-51.227-3.447-60.883
			C205.82,679.246,190.143,676.576,181.131,682.67"/>
		<path clip-path="url(#SVGID_4_)" fill="#205972" d="M214.714,621.775c1.712-0.219,3.423-0.438,5.135-0.658
			c0.641-14.966,1.534-26.948,2.212-34.975c1.187-14.042,2.155-21.13,0.837-31.651c-1.154-9.212-3.496-16.543-5.261-21.233
			C216.663,562.764,215.689,592.27,214.714,621.775"/>
		<path clip-path="url(#SVGID_4_)" fill="#317AA3" d="M165.127,524.203c-1.035,1.482-1.521,2.996-2.502,6.023
			c-2.353,7.271-2.244,13.363-2.175,15.653c0.407,13.544,3.9,44.198,4.335,48.278c1.576,14.755-1.597,30.548-7.942,62.134
			c-3.451,17.175-7.218,31.331-10.141,41.397c-0.762,2.046-2.083,6.505-0.775,11.699c1.168,4.638,3.817,7.423,6.673,10.349
			c4.461,4.57,11.81,9.298,20.093,10.735c5.128,0.89,9.996-2.568,10.846-7.703c2.045-12.332,4.089-24.664,6.13-36.995
			c0.865,16.436,1.731,32.872,2.595,49.309c0.266,5.067,5.748,8.077,10.184,5.614c2.772-1.539,6.022-1.882,16.831-13.546
			c3.617-3.902,6.54-7.199,8.546-9.495c-1.909-30.031-3.913-51.696-5.476-66.519c-0.527-4.991-2.768-25.918-3.324-49.518
			c-0.09-3.801-0.159-7.896-0.085-13.468c0.398-30.174,4.523-44.449-2.385-57.098c-2.399-4.396-5.625-7.663-6.299-8.336
			c-2.474-2.47-6.802-6.787-13.392-8.088c-2.684-0.528-4.747-0.765-8.535,0.113C183.675,515.823,169.262,518.272,165.127,524.203"/>
		<path clip-path="url(#SVGID_4_)" fill="#1F627F" d="M186.447,524.341c5.915,4.218,4.476,9.869,9.328,21.653
			c1.589,3.856,5.796,14.226,11.974,19.238c15.014,12.18,43.546-2.104,45.36-3.039c1.476,4.967,2.953,9.932,4.429,14.897
			c-2.549,3.154-13.93,16.532-32.711,18.292c-15.317,1.435-26.537-5.678-33.598-10.157c-2.102-1.334-17.671-11.489-25.439-30.142
			c0,0-3.609-8.666-3.587-20.091c0.005-2.438,0.19-6.993,2.687-9.833c2.264-2.576,5.367-3.759,5.367-3.759s0.372-0.141,0.749-0.259
			C175.821,519.63,182.572,521.577,186.447,524.341"/>
		<path clip-path="url(#SVGID_4_)" fill="#1F627F" d="M186.792,511.762c0,0,11.866,0.815,15.272,2.882l0.421,2.153l-17.077-1.289
			L186.792,511.762z"/>
		<path clip-path="url(#SVGID_4_)" fill="#E2C294" d="M187.801,506.862l14.029,0.441l0.122,12.734
			c-0.014-0.06-3.101,1.528-6.986,1.539c-4.413,0.012-7.92-4.295-7.92-4.295L187.801,506.862z"/>
		<path clip-path="url(#SVGID_4_)" fill="#B59B76" d="M201.893,514.262l-0.063-6.958l-14.029-0.441l-0.209,2.888
			C191.106,512.165,195.949,514.369,201.893,514.262"/>
		<path clip-path="url(#SVGID_4_)" fill="#5E1212" d="M182.584,446.262c0,0,11.305-9.366,28.253-4.803
			c10.493,2.831,13.168,29.218,8.28,37.081c-2.255,3.629-3.718,5.291-7.827,10.213c-8.47-6.082-29.691,6.546-29.691,6.546
			s-14.729-2.428-17.034-28.438C162.802,446.949,182.584,446.262,182.584,446.262"/>
		<path clip-path="url(#SVGID_4_)" fill="#E2C294" d="M219.485,481.331c-0.793-7.056,0.983-28.386,0.983-28.386l-3.584,0.052
			c0.002-0.514,0-0.8,0-0.8l-41.785,2.463c0,0-8.799,20.305,3.249,36.884c3.487,13.811,12.361,19.78,20.992,21.224
			c0.779,0.13,1.522,0.206,2.243,0.26c1.095,0.241,2.116,0.354,3.038,0.328c1.603-0.05,4.518-0.79,5.924-2.321
			c4.241-4.629,8.28-10.874,9.061-17.53C220.235,488.122,219.803,484.118,219.485,481.331"/>
		<path clip-path="url(#SVGID_4_)" fill="#B59B76" d="M204.529,482.849c0,0,0.033,3.58,1.062,6.7c0.172,0.52,0.524,0.957,0.79,1.436
			c0.564,1.018,1.26,1.871,0.467,2.842c-1.308,1.589-3.169,0.848-5.06,0.037c0.992,1.074,3.143,1.62,4.088,1.354
			c1.332-0.379,2.868-1.948,1.22-4.373c-0.27-0.397-0.518-0.805-0.706-1.246C205.729,488.05,204.92,486.716,204.529,482.849"/>
		<path clip-path="url(#SVGID_4_)" fill="#5E1212" d="M184.228,467.569c0,0-4.8,14.415-7.572,18.872
			c-3.881-4.545-13.505-22.109-4.692-34.814c1.565-2.261,7.02-4.405,12.307-4.28c8.2-4.667,18.71-8.805,28.947-5.104
			c8.776,3.17,13.007,13.724,16.394,24.671c-3.372-0.047-5.566-2.574-5.566-2.574s0.36,5.83-1.635,10.79
			c-5.968-5.134-10.346-9.604-10.346-9.604s1.628,4.344-0.281,6.411c-5.294-2.748-12.365-4.031-16.86-7.396
			c0.937,1.497,4.537,3.86,7.417,5.925C194.525,472.001,188.341,470.701,184.228,467.569"/>
		<path clip-path="url(#SVGID_4_)" fill="#5E1212" d="M187.325,475.608c0,0,6.299-3.665,11.874,0.997
			c0.671-1.766-0.023-4.102-0.47-4.261c-2.24-0.788-7.003-1.548-10.236,0.748C187.434,473.851,187.325,475.608,187.325,475.608"/>
		<path clip-path="url(#SVGID_4_)" fill="#FFFFFF" d="M187.659,482.293c-0.025,1.313,2.072,2.961,4.669,3.002
			c2.586,0.044,4.232-1.465,4.26-2.847c0.023-1.39-1.637-3.48-4.228-3.522C189.77,478.878,187.68,480.828,187.659,482.293"/>
		<path clip-path="url(#SVGID_4_)" fill="#140408" d="M195.377,482.661c-0.025,1.195-0.913,1.964-1.923,1.945
			c-1.009-0.017-1.742-0.809-1.728-2.008c0.025-1.196,0.858-2.151,1.861-2.132C194.592,480.479,195.397,481.465,195.377,482.661"/>
		<path clip-path="url(#SVGID_4_)" fill="#140408" d="M196.589,482.448c-0.419-0.854-1.087-2.896-4.29-2.95
			c-2.99-0.047-4.174,2.126-4.639,2.795c0.012-1.06,0.965-3.433,4.261-3.559C195.655,478.593,196.749,481.235,196.589,482.448"/>
		<path clip-path="url(#SVGID_4_)" fill="#5E1212" d="M217.222,475.628c0,0-5.847-3.02-9.78,1.289
			c-0.66-1.666-0.17-3.867,0.161-4.095c2.458-1.706,6.367-0.239,8.204,0.529C216.847,473.785,217.222,475.628,217.222,475.628"/>
		<path clip-path="url(#SVGID_4_)" fill="#FFFFFF" d="M216.107,481.864c0.138,1.307-1.421,3.112-3.678,3.349
			c-2.251,0.232-3.946-1.157-4.086-2.538c-0.146-1.381,1.119-3.59,3.37-3.825C213.965,478.611,215.96,480.4,216.107,481.864"/>
		<path clip-path="url(#SVGID_4_)" fill="#140408" d="M211.583,482.817c0.115,1.196,0.93,1.776,1.811,1.684
			c0.874-0.093,1.616-0.904,1.489-2.098c-0.121-1.194-1.071-1.997-1.945-1.911C212.063,480.583,211.456,481.626,211.583,482.817"/>
		<path clip-path="url(#SVGID_4_)" fill="#140408" d="M208.343,482.675c0.285-0.883,0.71-3.135,3.492-3.428
			c2.601-0.268,3.809,1.984,4.272,2.618c-0.105-1.061-1.143-3.357-4.029-3.239C208.816,478.762,208.093,481.478,208.343,482.675"/>
		<path clip-path="url(#SVGID_4_)" fill="#E2C294" d="M179.812,479.663c-0.971-2.529-4.203-4.388-6.405-2.868
			c-3.328,2.287-2.73,8.05-0.596,11.355c1.3,1.988,4.201,4.423,6.112,3.112C181.379,489.582,181.657,484.48,179.812,479.663"/>
		<path clip-path="url(#SVGID_4_)" fill="#921F33" d="M203.932,498.229c-3.149-0.229-6.087-1.326-7.003,0.292
			c-0.657,1.147,0.477,5.957,6.132,6.255c3.952,0.213,6.883-2.995,6.674-5.255C209.571,497.819,207.085,498.464,203.932,498.229"/>
		<path clip-path="url(#SVGID_4_)" fill="#CD3735" d="M196.81,499.908c0.296,1.854,1.984,4.647,6.25,4.868
			c1.943,0.104,3.64-0.622,4.842-1.652C205.525,499.729,200.848,498.273,196.81,499.908"/>
		<path clip-path="url(#SVGID_4_)" fill="#FFFFFF" d="M196.928,498.522c-0.061,0.108-0.097,0.263-0.122,0.435
			c4.26,3.104,10.332,3.027,11.842-0.528c-1.043-0.248-2.748-0.052-4.717-0.198C200.782,498,197.844,496.903,196.928,498.522"/>
		<path clip-path="url(#SVGID_4_)" fill="#B59B76" d="M203.709,507.598c-0.099,0.215-1.023,0.174-2.066-0.091
			c-1.043-0.263-1.815-0.651-1.711-0.864c0.099-0.217,1.024-0.175,2.067,0.089C203.036,506.995,203.802,507.383,203.709,507.598"/>
		<path clip-path="url(#SVGID_4_)" fill="#1F627F" d="M186.792,511.762c0.537,1.23,1.444,2.872,2.979,4.441
			c3.433,3.51,7.659,4.256,9.226,4.451l0.535,4.798c-1.483-0.07-3.513-0.362-5.696-1.33c-5.364-2.377-7.737-7.089-8.428-8.614
			L186.792,511.762z"/>
		<path clip-path="url(#SVGID_4_)" fill="#1F627F" d="M201.862,517.321c0,0,0.501,1.515-0.807,2.4l0.164,5.007
			c0,0,2.028-2.537,1.937-4.52c-0.091-1.981-1.188-5.042-1.188-5.042L201.862,517.321z"/>
		<path clip-path="url(#SVGID_4_)" fill="#1F627F" d="M197.08,525.151c0.817,0.1,1.635,0.199,2.452,0.301l0.778,13.797
			c0.098-4.876,0.196-9.751,0.294-14.627c0.52-0.438,1.041-0.876,1.562-1.314l-0.888,22.109l-1.48-0.072
			C198.892,538.614,197.986,531.882,197.08,525.151"/>
		<path clip-path="url(#SVGID_4_)" fill="#F3914B" d="M488.544,300.17l-5.911-61.617c0,0-14.589-8.86-2.672-16.695
			c11.917-7.834,20.923,8.11,11.732,14.059l13.252,60.574L488.544,300.17z"/>
		<path clip-path="url(#SVGID_4_)" fill="#F3914B" d="M520.693,308.662l52.351-33.029c0,0,1.34-17.017,13.702-9.905
			c12.362,7.111,2.183,22.333-7.267,16.808l-48.114,39.113L520.693,308.662z"/>
		<polygon clip-path="url(#SVGID_4_)" fill="#FF9750" points="738.005,244.944 864.248,336.272 866.759,338.087 865.341,338.385 
			835.693,344.553 782.249,355.668 726.646,367.246 675.585,377.875 506.096,413.147 481.43,332.288 570.014,302.138 
			622.994,284.094 641.741,277.705 683.729,263.424 719.239,251.337 		"/>
	</g>
	<g clip-path="url(#SVGID_2_)">
		<defs>
			<path id="SVGID_5_" d="M683.729,263.424l-41.987,14.281l-18.747,6.389l-52.981,18.044l-88.583,30.149l24.667,80.86
				l169.488-35.272l51.06-10.63l50.422-10.478c-13.287-24.964-32.206-52.033-58.936-75.306c-8.31-7.236-17.129-14.035-25.79-20.968
				L683.729,263.424z"/>
		</defs>
		<clipPath id="SVGID_6_">
			<use xlink:href="#SVGID_5_"  overflow="visible"/>
		</clipPath>
		<g opacity="0.72" clip-path="url(#SVGID_6_)">
			<g>
				<defs>
					<rect id="SVGID_7_" x="568.419" y="206.42" width="357.391" height="198.991"/>
				</defs>
				<clipPath id="SVGID_8_">
					<use xlink:href="#SVGID_7_"  overflow="visible"/>
				</clipPath>
				<path clip-path="url(#SVGID_8_)" fill="#844949" d="M702.414,219.199l46.691,33.776c-9.734-1.803-20.463-2.015-29.866-1.637
					c-1.127,0.038-2.251,0.096-3.334,0.165c-15.746,0.928-25.288-19.281-14.497-31.258
					C701.733,219.876,702.063,219.53,702.414,219.199"/>
				<path clip-path="url(#SVGID_8_)" fill="#844949" d="M675.786,371.197c2.415-9.819,4.349-55.849,16.24-65.22
					c11.892-9.372,41.264-15.102,39.752,16.218c-1.512,31.321-7.186,80.376-28.011,83.03S673.236,381.565,675.786,371.197"/>
				<path clip-path="url(#SVGID_8_)" fill="#844949" d="M568.818,309.565c2.415-9.818,4.349-55.849,16.24-65.22
					c11.892-9.372,41.264-15.102,39.752,16.219c-1.511,31.32-7.186,80.376-28.01,83.029
					C575.975,346.247,566.269,319.935,568.818,309.565"/>
				<path clip-path="url(#SVGID_8_)" fill="#844949" d="M787.474,363.509c-8.445-14.417-39.819-48.642-25.427-62.732
					c14.395-14.09,87.451,22.425,71.422,55.168C817.44,388.688,793.404,373.634,787.474,363.509"/>
				<path clip-path="url(#SVGID_8_)" fill="#844949" d="M637.146,272.26c-8.445-14.417-39.819-48.642-25.426-62.732
					c14.394-14.091,87.45,22.425,71.422,55.168C667.112,297.439,643.076,282.385,637.146,272.26"/>
			</g>
		</g>
	</g>
	<g clip-path="url(#SVGID_2_)">
		<defs>
			<path id="SVGID_9_" d="M487.369,40.41c-30.442,13.65-54.199,38.937-73.56,66.107c-19.497,27.36-38.681,59.727-71.251,67.963
				c-25.834,6.533-50.867-4.297-76.181-15.127c-21.584-9.234-43.373-18.467-66.039-16.94c-42.586,2.868-74.001,44.012-82.674,85.805
				c-8.674,41.792-0.6,84.95,2.676,127.507c3.275,42.558,0.602,88.714-25.539,122.455c-25.459,32.861-45.491,34.944-56.104,65.71
				c-13.584,39.38,9.267,80.473,16.306,93.13c49.235,88.541,185.667,106.476,242.15,113.129
				c232.857,27.426,469.351-58.824,507.673-163.103c27.052-73.613,1.061-153.266,1.061-153.266
				c-1.093-4.711-2.017-8.196-2.281-9.199c-7.149-27.107-28.697-93.682-85.475-143.12c-23.139-20.148-50.214-36.897-66.887-62.653
				c-17.071-26.37-21.045-58.76-27.271-89.549c-6.226-30.79-16.528-63.211-41.499-82.271c-14.555-11.11-32.615-16.118-50.979-16.119
				C516.401,30.869,501.104,34.252,487.369,40.41"/>
		</defs>
		<clipPath id="SVGID_10_">
			<use xlink:href="#SVGID_9_"  overflow="visible"/>
		</clipPath>
		<path clip-path="url(#SVGID_10_)" fill="#FF9750" d="M492.216,304.066c-0.893,0.245-22.01,5.88-37.8-4.119
			c-15.791-10-19.727-31.5-19.886-32.41l-0.235-1.345l1.316-0.361c0.892-0.245,22.011-5.881,37.801,4.118
			c15.791,10,19.724,31.5,19.885,32.411l0.235,1.345L492.216,304.066z"/>
		<path clip-path="url(#SVGID_10_)" fill="#FF9750" d="M436.008,267.278c0,0,21.189-5.82,36.602,3.939
			c15.411,9.759,19.209,31.402,19.209,31.402s-21.188,5.819-36.6-3.94C439.807,288.92,436.008,267.278,436.008,267.278
			 M432.579,265.107l0.473,2.69c0.164,0.938,4.216,23.068,20.562,33.418c16.345,10.35,38.083,4.55,38.999,4.298l2.634-0.723
			l-0.472-2.69c-0.164-0.937-4.214-23.069-20.56-33.419c-16.345-10.35-38.085-4.549-39.001-4.298L432.579,265.107z"/>
		<g opacity="0.89" clip-path="url(#SVGID_10_)">
			<g>
				<defs>
					<rect id="SVGID_11_" x="447.865" y="273.936" width="41.781" height="29.036"/>
				</defs>
				<clipPath id="SVGID_12_">
					<use xlink:href="#SVGID_11_"  overflow="visible"/>
				</clipPath>
				<path clip-path="url(#SVGID_12_)" fill="#844949" d="M489.646,301.683c0,0-15.861,4.357-27.399-2.949
					c-11.537-7.306-14.381-23.508-14.381-23.508s15.862-4.357,27.399,2.949C486.802,285.48,489.646,301.683,489.646,301.683"/>
			</g>
		</g>
		<path clip-path="url(#SVGID_10_)" fill="#FF9750" d="M585.16,346.053c-9.3,2.705-17.755,2.895-25.129,0.566
			c-17.822-5.631-27.121-25.412-27.508-26.251l-0.573-1.24l1.183-0.686c0.209-0.122,5.204-3.001,12.468-5.114
			c9.3-2.705,17.755-2.896,25.13-0.566c17.82,5.631,27.12,25.412,27.507,26.251l0.573,1.24l-1.183,0.686
			C597.419,341.061,592.426,343.939,585.16,346.053"/>
		<path clip-path="url(#SVGID_10_)" fill="#FF9750" d="M546.02,314.769c6.864-1.997,15.751-3.263,24.258-0.576
			c17.394,5.496,26.598,25.449,26.598,25.449s-4.962,2.884-12.134,4.97c-6.864,1.996-15.751,3.263-24.258,0.575
			c-17.393-5.496-26.598-25.448-26.598-25.448S538.848,316.854,546.02,314.769 M545.183,311.886L545.183,311.886
			c-7.44,2.165-12.59,5.132-12.804,5.257l-2.362,1.373l1.144,2.48c0.398,0.864,9.973,21.225,28.42,27.053
			c7.661,2.421,16.408,2.235,26-0.555c7.438-2.164,12.588-5.132,12.804-5.257l2.36-1.372l-1.144-2.481
			c-0.397-0.864-9.972-21.225-28.42-27.053C563.52,308.91,554.771,309.097,545.183,311.886"/>
		<g opacity="0.89" clip-path="url(#SVGID_10_)">
			<g>
				<defs>
					<rect id="SVGID_13_" x="536.226" y="314.788" width="47.155" height="25.5"/>
				</defs>
				<clipPath id="SVGID_14_">
					<use xlink:href="#SVGID_13_"  overflow="visible"/>
				</clipPath>
				<path clip-path="url(#SVGID_14_)" fill="#844949" d="M536.226,320.088c0,0,14.223-8.266,27.243-4.152
					c13.022,4.115,19.912,19.052,19.912,19.052s-14.222,8.266-27.243,4.151C543.116,335.025,536.226,320.088,536.226,320.088"/>
			</g>
		</g>
		<path clip-path="url(#SVGID_10_)" fill="#FF9750" d="M548.498,313.602c2.429,8.352,2.082,17.576-1.619,26.139L490.57,470.124
			c-8.458,19.577-31.382,28.67-50.939,20.224c-11.016-4.758-18.707-14.084-21.831-24.821c-2.433-8.367-2.097-17.572,1.604-26.134
			l56.323-130.389c3.992-9.253,11.218-16.17,19.807-19.979c9.568-4.274,20.813-4.695,31.134-0.244
			c5.209,2.252,9.681,5.522,13.261,9.493C543.942,302.674,546.851,307.938,548.498,313.602"/>
		<path clip-path="url(#SVGID_10_)" fill="#844949" d="M493,328.631c0.93,3.197-0.908,6.543-4.104,7.473
			c-3.198,0.93-6.543-0.908-7.474-4.105c-0.93-3.197,0.908-6.543,4.105-7.473C488.725,323.596,492.07,325.434,493,328.631"/>
		<path clip-path="url(#SVGID_10_)" fill="#844949" d="M520.179,342.292c0.931,3.197-0.907,6.543-4.104,7.473
			c-3.198,0.93-6.543-0.908-7.473-4.105c-0.931-3.197,0.907-6.543,4.104-7.473S519.249,339.095,520.179,342.292"/>
		<g opacity="0.89" clip-path="url(#SVGID_10_)">
			<g>
				<defs>
					<rect id="SVGID_15_" x="495.394" y="285.626" width="44.533" height="27.413"/>
				</defs>
				<clipPath id="SVGID_16_">
					<use xlink:href="#SVGID_15_"  overflow="visible"/>
				</clipPath>
				<path clip-path="url(#SVGID_16_)" fill="#844949" d="M539.928,298.273c-7.142,10.759-16.847,17.824-27.274,13.453
					c-14.517-6.096-18.053-15.043-17.12-22.702c9.568-4.274,20.813-4.695,31.133-0.244
					C531.875,291.033,536.349,294.302,539.928,298.273"/>
			</g>
		</g>
		<path clip-path="url(#SVGID_10_)" fill="#F95A71" d="M432.879,474.643c-1.975,7.08-4.52,17.466-6.348,30.225
			c-3.204,22.337-0.612,26.816-4.706,33.307c-12.795,20.287-58.085,8.158-59.222,14.276c-0.878,4.727,24.634,20.152,50.916,14.318
			c28.579-6.345,41.362-34.124,43.516-39.067c8.653-19.862,5.636-38.159,4.073-45.249c-2.453,0.543-5.607,0.938-9.232,0.636
			C442.198,482.28,435.544,477.025,432.879,474.643"/>
		<path clip-path="url(#SVGID_10_)" fill="#844949" d="M459.757,484.672c-5.511,0.937-11.887,0.652-18.553-2.369
			c-18.938-8.583-21.507-28.523-21.605-29.368l5.973-0.715c0.088,0.708,2.329,17.448,18.116,24.604
			c15.613,7.078,29.622-4.413,30.213-4.906l3.876,4.601C477.318,476.904,470.051,482.92,459.757,484.672"/>
		<rect x="576.368" y="0.362" clip-path="url(#SVGID_10_)" fill="#A5A4A4" width="14.024" height="824.862"/>
		<rect x="683.617" y="0.362" clip-path="url(#SVGID_10_)" fill="#A5A4A4" width="14.024" height="824.862"/>
	</g>
</g>
</svg>
