<?xml version="1.0" encoding="utf-8"?>
<!-- Generator: Adobe Illustrator 16.0.0, SVG Export Plug-In . SVG Version: 6.00 Build 0)  -->
<!DOCTYPE svg PUBLIC "-//W3C//DTD SVG 1.1//EN" "http://www.w3.org/Graphics/SVG/1.1/DTD/svg11.dtd">
<svg version="1.1" id="Layer_1" xmlns="http://www.w3.org/2000/svg" xmlns:xlink="http://www.w3.org/1999/xlink" x="0px" y="0px"
	 width="465px" height="468px" viewBox="0 0 465 468" enable-background="new 0 0 465 468" xml:space="preserve">
<rect x="-131.993" y="100.514" fill="#5190B7" width="47.261" height="60.357"/>
<rect x="-131.993" y="180.202" fill="#4080A0" width="47.261" height="60.356"/>
<rect x="-131.993" y="259.89" fill="#4C6580" width="47.261" height="60.357"/>
<rect x="-75.421" y="100.514" fill="#DDDDDD" width="47.261" height="60.357"/>
<rect x="-75.421" y="180.202" fill="#C6C6C6" width="47.261" height="60.356"/>
<text transform="matrix(1 0 0 1 -108.3623 90.6367)"><tspan x="0" y="0" font-family="'MyriadPro-Regular'" font-size="12">K</tspan><tspan x="6.624" y="0" font-family="'MyriadPro-Regular'" font-size="12">hushi d</tspan><tspan x="43.427" y="0" font-family="'MyriadPro-Regular'" font-size="12">r</tspan><tspan x="47.243" y="0" font-family="'MyriadPro-Regular'" font-size="12">ess</tspan></text>
<g>
	<defs>
		<path id="SVGID_1_" d="M144.476,27.063c-46.254,3.096-53.687,49.107-52.119,90.241c-1.209,21.049-8.663,44.917-28.24,52.742
			c-10.902,4.358-24.522,3.209-32.799,11.536c-3.969,3.993-5.651,9.221-5.649,14.727c0.002,7.919,3.486,16.414,8.661,22.639
			c14.838,16.928,48.287,31.763,50.332,55.641c0.063,0.733,0.093,1.445,0.094,2.139c0.008,4.862-1.393,8.854-2.813,12.855
			c-7.29,20.565-23.575,28.079-31.96,36.883c-6.473,6.795-9.14,16.03-9.147,26.341c-0.015,23.528,13.821,52.655,27.888,71.153
			c7.844,10.314,20.005,13.872,34.528,13.875c0.006,0,0.013,0,0.019,0c0.015,0,0.032,0,0.047,0
			c15.383-0.008,33.412-3.995,51.766-8.163c0.172-0.039,0.342-0.078,0.514-0.117c0.045-0.01,0.092-0.021,0.137-0.03
			c0.087-0.021,0.172-0.039,0.259-0.06c0.411-0.093,0.826-0.188,1.237-0.281c0.052-0.012,0.097-0.021,0.148-0.033
			c0.112-0.025,0.227-0.052,0.339-0.077c0.598-0.136,1.194-0.271,1.793-0.407c0.011-0.002,0.023-0.005,0.034-0.008
			c18.664-4.234,37.469-8.34,53.997-8.348c0.016,0,0.034-0.001,0.05-0.001c0.006,0,0.011,0,0.016,0
			c6.815,0.001,13.239,0.7,19.107,2.375c19.716,5.628,30.362,8.987,30.362,8.987c16.639,5.121,25.167,8.109,36.021,11.128
			c0,0,9.796,2.665,17.447,4.394c4.942,1.115,12.562,1.907,21.625,1.908c0.004,0,0.006,0,0.01,0c0.344,0,0.688-0.001,1.035-0.003
			c28.767-0.189,71.337-8.34,90.093-38.852c0.231-0.376,0.457-0.753,0.682-1.135c7.707-13.181,10.345-28.333,10.342-42.817
			c-0.004-28.258-10.058-53.968-12.113-57.51c-10.963-12.087-14.786-21.907-14.778-30.49c0.017-19.875,20.572-33.116,20.582-52.512
			c0.004-7.381-2.968-15.653-11.179-25.521c-23.129-27.484-76.554-11.032-89.754-48.715c-0.618-2.376-0.887-4.739-0.886-7.094
			c0.007-15.638,11.928-30.901,12.533-47.199c0.016-0.428,0.023-0.854,0.023-1.28c-0.013-17.724-13.929-33.355-30.306-40.41
			c-0.07-0.03-0.142-0.06-0.211-0.089c-0.222-0.094-0.444-0.187-0.667-0.279c-0.016-0.006-0.032-0.013-0.047-0.02
			c-12.829-5.271-26.359-6.475-40.104-6.478c-0.013,0-0.027,0-0.041,0c-0.006,0-0.012,0-0.018,0
			c-5.393,0.001-10.818,0.186-16.246,0.382c-0.189,0.007-0.38,0.014-0.569,0.02c-0.165,0.006-0.33,0.012-0.495,0.018
			c-0.166,0.006-0.33,0.012-0.494,0.018c-0.039,0.002-0.08,0.003-0.119,0.005c-0.105,0.003-0.209,0.007-0.313,0.011
			c-5.474,0.198-10.947,0.386-16.39,0.386c-0.007,0-0.015,0-0.021,0c-0.012,0-0.024,0-0.037,0
			c-10.98-0.002-21.834-0.768-32.319-3.757c-0.083-0.023-0.166-0.047-0.248-0.071c-17.956-5.183-34.062-16.736-52.643-18.719
			c-0.579-0.027-1.152-0.048-1.72-0.063c-0.751-0.02-1.493-0.03-2.227-0.03C147.793,26.898,146.109,26.953,144.476,27.063"/>
	</defs>
	<clipPath id="SVGID_2_">
		<use xlink:href="#SVGID_1_"  overflow="visible"/>
	</clipPath>
	
		<linearGradient id="SVGID_3_" gradientUnits="userSpaceOnUse" x1="-267.0005" y1="738" x2="-266.0005" y2="738" gradientTransform="matrix(414.6709 -0.0189 0.0189 -414.7224 110728.9531 306298.0625)">
		<stop  offset="0" style="stop-color:#E3F4FF"/>
		<stop  offset="0.4118" style="stop-color:#E3F4FF"/>
		<stop  offset="0.7063" style="stop-color:#E1F3FF"/>
		<stop  offset="0.8516" style="stop-color:#D9F0FF"/>
		<stop  offset="0.9639" style="stop-color:#CCEAFF"/>
		<stop  offset="1" style="stop-color:#C6E7FF"/>
	</linearGradient>
	<polygon clip-path="url(#SVGID_2_)" fill="url(#SVGID_3_)" points="25.667,26.898 440.354,26.879 440.334,449.102 25.648,449.121 	
		"/>
</g>
<g>
	<defs>
		<path id="SVGID_4_" d="M92.357,117.304c-1.209,21.049-8.663,44.917-28.24,52.742c-10.902,4.358-24.522,3.209-32.799,11.536
			c-9.675,9.735-5.761,26.812,3.012,37.366c14.838,16.928,48.287,31.763,50.332,55.641c0.502,5.861-1.097,10.42-2.719,14.994
			c-7.29,20.565-23.575,28.079-31.96,36.883c-21.244,22.301-1.491,70.891,18.741,97.494c16.556,21.771,52.346,13.442,88.994,5.113
			c26.977-6.131,54.419-12.261,74.997-6.389c19.716,5.628,30.362,8.987,30.362,8.987c16.639,5.121,25.167,8.109,36.021,11.128
			c0,0,9.796,2.665,17.447,4.394c20.821,4.701,89.038,3.654,113.444-38.081c22.745-38.896,1.338-94.971-1.771-100.327
			c-46.007-50.728,33.731-61.524-5.375-108.523c-23.129-27.484-76.554-11.032-89.754-48.715
			c-4.725-18.16,10.951-35.541,11.647-54.293c0.678-18.249-13.513-34.465-30.282-41.69c-18.469-7.894-38.424-7.17-58.397-6.446
			c-16.932,0.614-33.875,1.228-49.941-3.408c-17.956-5.183-34.062-16.736-52.643-18.719c-1.346-0.062-2.657-0.093-3.947-0.093
			C98.758,26.902,90.734,74.717,92.357,117.304"/>
	</defs>
	<clipPath id="SVGID_5_">
		<use xlink:href="#SVGID_4_"  overflow="visible"/>
	</clipPath>
	<polygon clip-path="url(#SVGID_5_)" fill="#BDDEEF" points="109.326,316.654 109.326,231.193 138.338,231.193 138.338,203.442 
		157.891,203.442 157.891,150.85 163.198,150.85 163.198,149.143 175.369,149.143 175.369,150.894 180.753,150.894 180.753,222.521 
		187.375,222.521 187.375,199.342 206.14,199.342 206.14,255.16 219.542,255.16 219.542,170.645 260.854,170.645 260.854,242.073 
		274.361,242.073 274.361,116.194 330.494,116.194 330.494,268.405 336.802,268.405 336.802,231.403 378.428,231.403 
		378.428,318.44 387.258,318.44 387.258,286.906 410.805,286.906 410.805,154.457 456.636,154.457 456.636,311.713 456.636,480.274 
		39.527,480.274 39.527,212.482 70.643,212.482 70.643,279.758 77.791,279.758 77.791,162.866 104.279,162.866 104.279,317.18 	"/>
	<polygon clip-path="url(#SVGID_5_)" fill="#99CCE0" points="87.196,421.272 87.196,335.812 116.208,335.812 116.208,308.061 
		135.761,308.061 135.761,255.468 158.624,255.513 158.624,327.14 165.246,327.14 165.246,303.96 184.01,303.96 184.01,359.778 
		197.412,359.778 197.412,275.264 238.724,275.264 238.724,346.691 252.231,346.691 252.231,220.813 308.364,220.813 
		308.364,373.023 314.672,373.023 314.672,336.021 356.298,336.021 356.298,423.06 365.128,423.06 365.128,391.524 388.675,391.524 
		388.675,259.075 434.506,259.075 434.506,416.331 434.506,449.103 17.397,449.103 17.397,317.101 48.512,317.101 48.512,384.376 
		55.661,384.376 55.661,267.484 82.15,267.484 82.15,421.799 	"/>
	<path clip-path="url(#SVGID_5_)" fill="#003D74" d="M359.351,335.869c2.21,3.2,4.42,6.399,6.62,9.6
		c8.47,6.29,16.95,12.57,25.43,18.86c-6.529-7.79-13.06-15.601-19.58-23.38c-0.569-0.08-1.329-0.23-1.75-0.26
		C366.69,339.199,362.771,337.379,359.351,335.869"/>
	<path clip-path="url(#SVGID_5_)" fill="#63A0DF" d="M359.301,335.789c0.021,0.03,0.04,0.05,0.05,0.08
		c3.421,1.51,7.341,3.33,10.721,4.819c0.42,0.03,1.18,0.181,1.75,0.261c-0.04-0.051-0.08-0.09-0.12-0.141
		c9.72,0.71,19.439,1.42,29.149,2.12c9.091,0.67,18.181,1.33,27.261,1.99c-1.96,1.77-3.92,3.55-5.87,5.32
		c0.2,0.05,0.399,0.09,0.6,0.14c8.46,1.99,16.931,3.97,25.391,5.94c-0.12-10.311-0.23-20.62-0.341-30.931
		c-2.75,1.221-6.949,2.88-12.25,4.16c-5.819,1.41-9.899,1.62-25.47,2.2c-9.84,0.37-15.07,0.54-20.08,0.74
		c-9.109,0.359-16.5,0.76-21.24,1.04C365.661,334.279,362.481,335.039,359.301,335.789"/>
	<path clip-path="url(#SVGID_5_)" fill="#025299" d="M371.701,340.809c6.56,7.83,13.13,15.681,19.699,23.521
		c2.2,1.63,4.391,3.26,6.591,4.89c4.359,12.07,8.72,24.13,13.069,36.2c-1.119-15.33-2.22-30.67-3.33-45.99
		c-2.3-5.51-4.58-11-6.88-16.5C391.141,342.229,381.421,341.519,371.701,340.809"/>
	<path clip-path="url(#SVGID_5_)" fill="#003D74" d="M411.061,405.419c0.51,1.41,1.021,2.83,1.53,4.24
		c-0.76,7.13-1.53,14.27-2.29,21.399h30.26c-1.04-19.35-2.06-38.689-3.08-58.04c-4.88-7.54-9.76-15.1-14.64-22.64
		c-0.2-0.05-0.4-0.09-0.601-0.14c1.95-1.771,3.91-3.551,5.87-5.32c-9.08-0.66-18.17-1.32-27.26-1.99c2.3,5.5,4.58,10.99,6.88,16.5
		C408.841,374.749,409.94,390.089,411.061,405.419"/>
	<path clip-path="url(#SVGID_5_)" fill="#00529B" d="M422.841,350.379c4.88,7.54,9.76,15.1,14.64,22.64
		c1.021,19.351,2.041,38.69,3.08,58.04h8.48c-0.27-24.909-0.54-49.83-0.811-74.739C439.771,354.349,431.301,352.369,422.841,350.379
		"/>
	<path clip-path="url(#SVGID_5_)" fill="none" stroke="#003D74" stroke-miterlimit="10" d="M422.841,350.379
		c-0.05-0.08-0.1-0.15-0.15-0.229"/>
	<path clip-path="url(#SVGID_5_)" fill="#639DDD" d="M403.766,304.779v0.01c1.83,0.77,3.67,1.56,5.51,2.34
		c1.971-0.25,3.94-0.5,5.91-0.74c-1.029-0.87-2.05-1.75-3.069-2.62C409.336,304.109,406.546,304.449,403.766,304.779"/>
	<path clip-path="url(#SVGID_5_)" fill="#025299" d="M403.766,304.789c1.62,11.609,3.24,23.2,4.86,34.8
		c1.44-0.03,2.88-0.06,4.32-0.09c0.76-11.021,1.529-22.04,2.3-33.061c-0.021-0.02-0.04-0.029-0.061-0.05
		c-1.97,0.24-3.939,0.49-5.91,0.74C407.436,306.349,405.596,305.559,403.766,304.789"/>
	<path clip-path="url(#SVGID_5_)" fill="#025299" d="M87.632,304.789c-1.62,11.609-3.24,23.2-4.86,34.8
		c-1.44-0.03-2.88-0.06-4.32-0.09c-0.76-11.021-1.53-22.04-2.3-33.061c0.02-0.02,0.04-0.029,0.06-0.05
		c1.97,0.24,3.94,0.49,5.91,0.74C83.961,306.349,85.802,305.559,87.632,304.789"/>
	<path clip-path="url(#SVGID_5_)" fill="#003D73" d="M81.733,328.099c-1.061,0-2.745-0.206-4.069-1.323
		c-0.396-0.333-1.448-1.219-1.088-2.334c0.194-0.603,0.749-1.029,1.563-1.197l0.36,1.731c0.016-0.104-0.004-0.186-0.015-0.21
		c0.029,0.064,0.134,0.199,0.469,0.481c1.325,1.118,3.454,0.812,3.476,0.81c1.154-0.176,2.206-0.723,2.794-1.161l0.091-1.811
		c0.589,0.029,1.966,0.097,2.286,1.172c0.084,0.283,0.112,0.731-0.227,1.267c-0.71,1.119-2.75,2.222-4.644,2.511
		C82.627,328.049,82.255,328.099,81.733,328.099"/>
	<path clip-path="url(#SVGID_5_)" fill="#003D73" d="M81.111,316.094c-2.666,0-5.49-0.556-6.222-1.284
		c-0.245-0.245-0.369-0.558-0.349-0.883c0.059-1.043,1.266-1.196,2.065-1.298l0.115,0.905c0.977,0.303,3.135,0.676,5.395,0.527
		c1.578-0.102,3.06-0.438,3.894-0.721l0.147-1.169c0.809,0.1,2.162,0.27,2.255,1.365c0.027,0.31-0.078,0.623-0.297,0.878
		c-0.865,1.01-4.327,1.543-5.869,1.643C81.875,316.082,81.495,316.094,81.111,316.094"/>
	<path clip-path="url(#SVGID_5_)" fill="none" stroke="#003D73" stroke-width="2" stroke-miterlimit="10" d="M77.255,320.938
		c-0.379,0.085-0.854,0.222-0.857,0.398c-0.009,0.521,4.101,0.979,4.947,1.079c10.274,1.207,30.299,6.085,84.903,13.133
		c13.854,1.788,37.486,4.837,66.123,5.142c76.846,0.819,160.882-18.436,170.081-17.632c1.54,0.134,4.129-0.217,9.306-0.919
		c0.954-0.129,2.877-0.405,3-1.17c0.059-0.358-0.293-0.718-0.611-0.972"/>
	<path clip-path="url(#SVGID_5_)" fill="#003D74" d="M123.521,335.869c-2.21,3.2-4.42,6.399-6.62,9.6
		c-8.47,6.29-16.95,12.57-25.43,18.86c6.53-7.79,13.06-15.601,19.58-23.38c0.57-0.08,1.33-0.23,1.75-0.26
		C116.182,339.199,120.102,337.379,123.521,335.869"/>
	<path clip-path="url(#SVGID_5_)" fill="#63A0DF" d="M123.571,335.789c-0.02,0.03-0.04,0.05-0.05,0.08
		c-3.42,1.51-7.34,3.33-10.72,4.819c-0.42,0.03-1.18,0.181-1.75,0.261c0.04-0.051,0.08-0.09,0.12-0.141
		c-9.72,0.71-19.44,1.42-29.15,2.12c-9.09,0.67-18.18,1.33-27.26,1.99c1.96,1.77,3.92,3.55,5.87,5.32c-0.2,0.05-0.4,0.09-0.6,0.14
		c-8.46,1.99-16.93,3.97-25.39,5.94c0.12-10.311,0.23-20.62,0.34-30.931c2.75,1.221,6.95,2.88,12.25,4.16
		c5.82,1.41,9.9,1.62,25.47,2.2c9.84,0.37,15.07,0.54,20.08,0.74c9.11,0.359,16.5,0.76,21.24,1.04
		C117.211,334.279,120.392,335.039,123.571,335.789"/>
	<path clip-path="url(#SVGID_5_)" fill="#025299" d="M111.171,340.809c-6.56,7.83-13.13,15.681-19.7,23.521
		c-2.2,1.63-4.39,3.26-6.59,4.89c-4.36,12.07-8.72,24.13-13.07,36.2c1.12-15.33,2.22-30.67,3.33-45.99c2.3-5.51,4.58-11,6.88-16.5
		C91.731,342.229,101.452,341.519,111.171,340.809"/>
	<path clip-path="url(#SVGID_5_)" fill="#003D74" d="M71.812,405.419c-0.51,1.41-1.02,2.83-1.53,4.24
		c0.76,7.13,1.53,14.27,2.29,21.399h-30.26c1.04-19.35,2.06-38.689,3.08-58.04c4.88-7.54,9.76-15.1,14.64-22.64
		c0.2-0.05,0.4-0.09,0.6-0.14c-1.95-1.771-3.91-3.551-5.87-5.32c9.08-0.66,18.17-1.32,27.26-1.99c-2.3,5.5-4.58,10.99-6.88,16.5
		C74.032,374.749,72.932,390.089,71.812,405.419"/>
	<path clip-path="url(#SVGID_5_)" fill="#00529B" d="M60.031,350.379c-4.88,7.54-9.76,15.1-14.64,22.64
		c-1.02,19.351-2.04,38.69-3.08,58.04h-8.48c0.27-24.909,0.54-49.83,0.81-74.739C43.102,354.349,51.571,352.369,60.031,350.379"/>
	<path clip-path="url(#SVGID_5_)" fill="none" stroke="#003D74" stroke-miterlimit="10" d="M60.182,350.149
		c-0.05,0.079-0.1,0.149-0.15,0.229"/>
	<path clip-path="url(#SVGID_5_)" fill="#639DDD" d="M87.632,304.779v0.01c-1.83,0.77-3.67,1.56-5.51,2.34
		c-1.97-0.25-3.94-0.5-5.91-0.74c1.03-0.87,2.05-1.75,3.07-2.62C82.062,304.109,84.852,304.449,87.632,304.779"/>
	<path clip-path="url(#SVGID_5_)" fill="#003D73" d="M410.328,330.243c-1.062,0-2.745-0.206-4.069-1.323
		c-0.396-0.333-1.448-1.219-1.088-2.334c0.194-0.604,0.749-1.03,1.563-1.198l0.36,1.732c0.016-0.105-0.004-0.187-0.015-0.21
		c0.028,0.063,0.134,0.198,0.469,0.48c1.325,1.118,3.454,0.813,3.476,0.811c1.154-0.177,2.206-0.724,2.794-1.161l0.092-1.812
		c0.589,0.029,1.966,0.098,2.285,1.172c0.085,0.283,0.112,0.731-0.227,1.268c-0.71,1.119-2.75,2.221-4.644,2.51
		C411.222,330.192,410.85,330.243,410.328,330.243"/>
	<path clip-path="url(#SVGID_5_)" fill="#003D73" d="M409.706,318.238c-2.666,0-5.49-0.557-6.223-1.284
		c-0.245-0.245-0.369-0.559-0.349-0.884c0.059-1.043,1.266-1.195,2.064-1.298l0.115,0.905c0.978,0.303,3.135,0.676,5.396,0.528
		c1.578-0.103,3.06-0.439,3.894-0.722l0.147-1.169c0.809,0.101,2.162,0.27,2.255,1.365c0.026,0.311-0.078,0.623-0.297,0.878
		c-0.865,1.01-4.327,1.543-5.869,1.644C410.47,318.226,410.09,318.238,409.706,318.238"/>
</g>
<g>
	<defs>
		<rect id="SVGID_6_" x="-267" y="-262" width="1000" height="1000"/>
	</defs>
	<clipPath id="SVGID_7_">
		<use xlink:href="#SVGID_6_"  overflow="visible"/>
	</clipPath>
	<path clip-path="url(#SVGID_7_)" fill="#4080A0" d="M278.076,246.64c0,0-0.171,6.052-1.287,6.978l-1.144-0.098
		c0.112-2.387,0.224-4.772,0.336-7.158L278.076,246.64z"/>
	<path clip-path="url(#SVGID_7_)" fill="#CCA279" d="M274.919,247.406c0,0,2.267,0.733,5.112,1.113c0,0,0.814,0.134,1.826,0.136
		c0,0,2.171-0.004,2.697-0.046c0.524-0.043,1.314,0.082,1.685,0.249s1.964,0.957,2.189,1.175c0.226,0.217,2.328,1.837,2.372,2.062
		c0.044,0.224-0.322,0.278-0.322,0.278s-0.546-0.094-0.699-0.088c-0.58,0.019-2.324-0.661-2.872-0.882
		c-0.112-0.045-0.231-0.066-0.354-0.064l-1.11,0.019c0,0,0.949,0.388,0.493,0.874c-0.3,0.082-0.729,0.19-1.249,0.296
		c-0.899,0.184-1.905,0.389-2.859,0.349c-0.496-0.021-0.662-0.096-2.876-0.854c-2.009-0.688-3.019-1.028-3.271-1.085
		c-2.232-0.497-3.175-0.35-3.339-0.644c-0.207-0.371,0.176-0.892,0.475-1.325C273.5,247.978,274.465,247.565,274.919,247.406"/>
	<path clip-path="url(#SVGID_7_)" fill="#987957" d="M285.915,252.24c0,0,0.083-0.001,0.151-0.231
		c0.068-0.231-0.224-0.55-0.966-0.773c-0.742-0.223-1.301-0.404-1.799-0.501c-0.498-0.096-0.706-0.075-1.073-0.157
		c-0.366-0.082-0.613-0.17-0.613-0.17s-0.001,0.307,1.153,0.45c1.153,0.144,2.142,0.452,2.542,0.657
		C285.711,251.719,286.103,251.876,285.915,252.24"/>
	<path clip-path="url(#SVGID_7_)" fill="#987957" d="M278.091,248.195c-0.384,0.72-0.862,1.875-0.898,3.228
		c-0.866-0.294-1.347-0.448-1.51-0.484c-2.232-0.498-3.175-0.351-3.34-0.644c-0.208-0.371,0.176-0.892,0.475-1.326
		c0.684-0.99,1.646-1.402,2.101-1.563C274.918,247.406,276.221,247.826,278.091,248.195"/>
	<path clip-path="url(#SVGID_7_)" fill="#4080A0" d="M195.459,246.638c0,0,0.171,6.053,1.287,6.979l1.145-0.098
		c-0.15-2.381-0.3-4.762-0.45-7.142C196.781,246.464,196.121,246.551,195.459,246.638"/>
	<path clip-path="url(#SVGID_7_)" fill="#CCA279" d="M198.618,247.405c0,0-2.267,0.733-5.113,1.113c0,0-0.814,0.134-1.826,0.136
		c0,0-2.171-0.004-2.697-0.046c-0.525-0.043-1.315,0.082-1.685,0.249c-0.37,0.167-1.964,0.957-2.19,1.174
		c-0.225,0.218-2.327,1.837-2.371,2.063c-0.044,0.224,0.322,0.278,0.322,0.278s0.546-0.094,0.699-0.089
		c0.58,0.02,2.323-0.66,2.872-0.881c0.113-0.045,0.232-0.066,0.354-0.064l1.11,0.019c0,0-0.949,0.387-0.493,0.874
		c0.3,0.082,0.729,0.19,1.249,0.296c0.899,0.184,1.905,0.389,2.859,0.349c0.495-0.021,0.662-0.096,2.876-0.854
		c2.009-0.688,3.019-1.029,3.271-1.085c2.232-0.497,3.175-0.35,3.339-0.644c0.207-0.371-0.176-0.892-0.475-1.325
		C200.036,247.977,199.072,247.564,198.618,247.405"/>
	<path clip-path="url(#SVGID_7_)" fill="#987957" d="M187.622,252.238c0,0-0.083-0.001-0.152-0.23
		c-0.068-0.231,0.224-0.55,0.966-0.773c0.742-0.223,1.301-0.404,1.799-0.501c0.498-0.096,0.706-0.076,1.073-0.158
		c0.366-0.082,0.613-0.17,0.613-0.17s0.001,0.308-1.153,0.451c-1.153,0.144-2.142,0.452-2.542,0.657
		C187.826,251.718,187.434,251.875,187.622,252.238"/>
	<path clip-path="url(#SVGID_7_)" fill="#987957" d="M195.446,248.194c0.384,0.719,0.862,1.875,0.898,3.228
		c0.866-0.294,1.347-0.448,1.51-0.484c2.232-0.498,3.175-0.351,3.34-0.645c0.208-0.37-0.176-0.891-0.475-1.325
		c-0.683-0.99-1.646-1.402-2.1-1.563C198.619,247.405,197.315,247.825,195.446,248.194"/>
	<path clip-path="url(#SVGID_7_)" fill="#CCA279" d="M226.903,333.389c0.387,1.236,0.004,2.605-0.686,3.702
		c-0.691,1.095-1.665,1.978-2.587,2.887c-0.922,0.909-1.824,1.889-2.313,3.088c-0.164,0.403-0.267,0.9-0.001,1.245
		c0.251,0.326,0.721,0.37,1.132,0.357c1.98-0.062,3.891-0.813,5.565-1.871c0.953-0.603,1.843-0.791,2.305-1.82
		c0.421-0.939,0.445-2.563,0.428-3.593c-0.016-0.959-0.031-1.918-0.047-2.876c-0.004-0.257-0.023-0.546-0.215-0.715
		c-0.136-0.12-0.326-0.149-0.504-0.174c-1.052-0.145-2.104-0.288-3.155-0.433L226.903,333.389z"/>
	<path clip-path="url(#SVGID_7_)" fill="#CCA279" d="M245.23,333.389c-0.387,1.236-0.004,2.605,0.688,3.702
		c0.689,1.095,1.663,1.978,2.586,2.887c0.922,0.909,1.823,1.889,2.313,3.088c0.164,0.403,0.268,0.9,0.001,1.245
		c-0.251,0.326-0.721,0.37-1.132,0.357c-1.98-0.062-3.891-0.813-5.565-1.871c-0.952-0.603-1.843-0.791-2.305-1.82
		c-0.421-0.939-0.445-2.563-0.428-3.593c0.016-0.959,0.031-1.918,0.047-2.876c0.004-0.257,0.022-0.546,0.215-0.715
		c0.136-0.12,0.326-0.149,0.504-0.174c1.052-0.145,2.104-0.288,3.155-0.433L245.23,333.389z"/>
	<path clip-path="url(#SVGID_7_)" fill="#987957" d="M226.606,336.369c0.427-0.941,0.604-2.003,0.297-2.98l-0.078-0.201
		c1.05,0.145,2.103,0.287,3.153,0.431c0.181,0.024,0.369,0.055,0.506,0.176c0.192,0.168,0.21,0.457,0.214,0.713
		c0.01,0.62,0.02,1.241,0.032,1.862c-0.621,0.072-1.322,0.121-2.089,0.12C227.896,336.488,227.214,336.44,226.606,336.369"/>
	<path clip-path="url(#SVGID_7_)" fill="#987957" d="M245.527,336.369c-0.569,0.067-1.201,0.113-1.887,0.12
		c-0.823,0.009-1.574-0.042-2.237-0.12c0.019-0.726,0.023-1.323,0.032-1.862c0.004-0.256,0.022-0.545,0.214-0.713
		c0.136-0.121,0.325-0.151,0.504-0.176c1.053-0.144,2.104-0.286,3.155-0.431l-0.078,0.201
		C244.924,334.366,245.101,335.428,245.527,336.369"/>
	<path clip-path="url(#SVGID_7_)" fill="#C6C6C6" d="M235.334,298.385c-0.008,1.087-0.023,2.189-0.054,3.306
		c-0.006,0.333-0.016,0.666-0.028,1.001c-0.006,0.252-0.014,0.505-0.023,0.758c-0.044,1.317-0.104,2.652-0.182,4.008
		c-0.023,0.457-0.052,0.916-0.082,1.377c-0.027,0.449-0.058,0.902-0.09,1.356c-0.04,0.577-0.084,1.149-0.128,1.72
		c-0.023,0.305-0.049,0.607-0.077,0.91c-0.048,0.578-0.1,1.153-0.151,1.725c-0.082,0.876-0.168,1.742-0.264,2.601
		c-0.027,0.263-0.056,0.521-0.086,0.782c-0.084,0.76-0.172,1.512-0.267,2.256c-0.032,0.266-0.066,0.533-0.101,0.798
		c-0.033,0.264-0.067,0.529-0.104,0.792c-0.034,0.262-0.07,0.524-0.106,0.786c-0.121,0.89-0.249,1.77-0.382,2.636
		c-0.038,0.261-0.078,0.52-0.12,0.778c-0.084,0.544-0.169,1.083-0.258,1.615c-0.081,0.483-0.161,0.962-0.243,1.437
		c-0.258,1.502-0.531,2.965-0.812,4.391c-0.046,0.236-0.094,0.474-0.142,0.71c-0.06,0.303-0.123,0.605-0.185,0.904
		c-0.034,0.166-0.068,0.331-0.102,0.495c-0.635,0.179-1.506,0.355-2.549,0.367c-1.144,0.013-2.092-0.179-2.762-0.367
		c-1.666-4.138-2.728-7.802-3.431-10.688c-1.321-5.421-2.27-11.851-2.168-19.068c0.005-0.327,0.013-0.65,0.021-0.974
		c0.162-5.959,1.012-11.188,2.037-15.501c0.002-0.008,0.004-0.016,0.006-0.023l11.059-0.257c0.559-0.015,1.098-0.026,1.608-0.038
		c0.04,0.959,0.075,1.931,0.104,2.92c0.01,0.333,0.018,0.667,0.023,1.002c0.015,0.662,0.024,1.332,0.032,2.007
		C235.342,296.048,235.344,297.207,235.334,298.385"/>
	<path clip-path="url(#SVGID_7_)" fill="#C6C6C6" d="M249.835,323.695c-1.069,4.696-2.438,8.685-3.701,11.83
		c-0.767,0.15-1.729,0.272-2.837,0.258c-0.95-0.013-1.785-0.122-2.474-0.258c-0.015-0.072-0.03-0.155-0.05-0.246
		c-0.018-0.084-0.035-0.165-0.052-0.249c-1.506-7.282-2.775-15.613-3.427-24.841c-0.063-0.918-0.122-1.83-0.17-2.732
		c-0.373-6.652-0.363-12.842-0.124-18.48c0.262,0.006,0.522,0.013,0.786,0.019c0.144,0.004,0.29,0.006,0.438,0.01
		c0.124,0.002,0.246,0.006,0.371,0.008c3.565,0.084,7.13,0.166,10.693,0.251c0.126,0.002,0.254,0.006,0.38,0.008
		c0.993,4.166,1.82,9.191,2.021,14.905c0.02,0.525,0.033,1.057,0.04,1.592C251.826,312.485,251.012,318.521,249.835,323.695"/>
	<path clip-path="url(#SVGID_7_)" fill="#DDDDDD" d="M249.835,323.695c-1.302,4.177-2.799,7.775-3.946,10.701
		c-0.148,0.384-0.517,0.634-0.926,0.634c-0.475,0.079-1.003,0.141-1.579,0.165c-1.021,0.044-1.921-0.041-2.662-0.165
		c-2.269-11.82-3.09-20.003-3.427-24.841c-0.063-0.918-0.122-1.83-0.17-2.732c-0.373-6.652-0.363-12.842-0.124-18.48
		c0.262,0.006,0.522,0.013,0.786,0.019c0.144,0.004,0.29,0.006,0.438,0.01c0.124,0.002,0.246,0.006,0.371,0.008
		c3.565,0.084,7.13,0.166,10.693,0.251c0.126,0.002,0.254,0.006,0.38,0.008c0.993,4.166,1.82,9.191,2.021,14.905
		c0.02,0.525,0.033,1.057,0.04,1.592C251.826,312.485,251.012,318.521,249.835,323.695"/>
	<path clip-path="url(#SVGID_7_)" fill="#DDDDDD" d="M235.334,298.385c-0.008,1.087-0.023,2.189-0.054,3.306
		c-0.006,0.333-0.016,0.666-0.028,1.001c-0.006,0.252-0.014,0.505-0.023,0.758c-0.044,1.317-0.104,2.652-0.182,4.008
		c-0.023,0.457-0.052,0.916-0.082,1.377c-0.025,0.449-0.056,0.902-0.088,1.356c-0.04,0.577-0.085,1.149-0.13,1.72
		c-0.023,0.305-0.049,0.607-0.077,0.91c-0.048,0.578-0.1,1.153-0.151,1.725c-0.082,0.876-0.168,1.742-0.264,2.601
		c-0.027,0.263-0.056,0.521-0.086,0.782c-0.084,0.76-0.172,1.512-0.267,2.256c-0.032,0.266-0.066,0.533-0.101,0.798
		c-0.033,0.264-0.067,0.529-0.104,0.792c-0.034,0.262-0.07,0.524-0.106,0.786c-0.121,0.89-0.249,1.77-0.382,2.636
		c-0.038,0.261-0.078,0.52-0.12,0.778c-0.084,0.544-0.169,1.083-0.258,1.615c-0.081,0.483-0.161,0.962-0.243,1.437
		c-0.258,1.502-0.531,2.965-0.812,4.391c-0.046,0.236-0.094,0.474-0.142,0.71c-0.06,0.303-0.123,0.605-0.185,0.904
		c-0.751,0.074-1.585,0.117-2.49,0.103c-0.622-0.012-1.207-0.049-1.751-0.103c-0.227-0.132-0.754-0.195-0.926-0.634
		c-1.042-2.66-2.416-5.868-3.677-9.559c-1.321-5.421-2.27-11.851-2.168-19.068c0.005-0.327,0.013-0.65,0.021-0.974
		c0.162-5.959,1.012-11.188,2.037-15.501c3.404-0.084,7.619-0.193,11.064-0.28c0.559-0.015,1.098-0.026,1.608-0.038h0.002
		c0.041,0.957,0.075,1.931,0.102,2.92c0.01,0.333,0.018,0.667,0.023,1.002c0.015,0.664,0.026,1.332,0.032,2.007
		C235.342,296.048,235.344,297.207,235.334,298.385"/>
	<path clip-path="url(#SVGID_7_)" fill="#C6C6C6" d="M235.171,288.977c0.239,5.647,0.252,11.812-0.123,18.48
		c-5.901-0.036-10.873-1.273-14.588-2.661c0.162-5.971,1.017-11.208,2.043-15.524L235.171,288.977z"/>
	<path clip-path="url(#SVGID_7_)" fill="#C6C6C6" d="M251.691,304.176c-3.812,1.599-8.741,3.028-14.566,3.28
		c-0.372-6.651-0.362-12.842-0.124-18.479c4.225,0.098,8.446,0.195,12.67,0.295C250.663,293.438,251.49,298.462,251.691,304.176"/>
	<path clip-path="url(#SVGID_7_)" fill="#FBAAD5" d="M249.146,275.162c-0.021-0.021-0.044-0.038-0.063-0.06
		c-0.333-1.396-0.541-2.684-0.67-3.833C248.618,272.441,248.862,273.732,249.146,275.162"/>
	<path clip-path="url(#SVGID_7_)" fill="#FBAAD5" d="M249.283,275.905l-0.287-0.886c0.029,0.029,0.056,0.057,0.086,0.083
		C249.146,275.368,249.211,275.635,249.283,275.905"/>
	<path clip-path="url(#SVGID_7_)" fill="#5190B7" d="M254.787,301.929c-4.046,1.759-10.251,3.742-17.944,3.713h-0.148
		c-7.693,0.029-13.898-1.954-17.943-3.713c-1.882-0.815-2.92-2.855-2.456-4.853c1.583-6.829,4.378-15.767,5.373-19.82
		c0.115-0.468,0.228-0.927,0.339-1.373c0,0,0-0.002,0.002-0.004c0.043-0.179,0.088-0.358,0.134-0.532
		c0.172-0.685,0.343-1.343,0.506-1.976c0.005-0.015,0.009-0.027,0.012-0.039c0.45-1.711,0.868-3.231,1.246-4.562
		c0.126-0.444,0.244-0.854,0.352-1.229c0.002-0.004,0.002-0.009,0.005-0.013c0.443-1.514,0.751-2.483,0.995-3.202
		c0.05-0.147,0.097-0.285,0.142-0.414c0.511-1.45,0.744-1.882,1.542-4.857c1.534-5.73,2.054-9.337,5.104-12.998
		c0.936-1.124,1.848-1.938,2.49-2.461c0.694-0.339,1.364-0.574,1.983-0.734h0.002c0.057-0.016,0.115-0.031,0.172-0.045
		c0.024-0.008,0.05-0.014,0.075-0.019c0.024,0.005,0.05,0.011,0.073,0.019c0.058,0.014,0.116,0.029,0.173,0.045
		c0.619,0.16,1.292,0.396,1.985,0.734c0.643,0.523,1.553,1.337,2.489,2.461c3.051,3.661,3.571,7.268,5.104,12.998
		c0.869,3.24,1.07,3.464,1.686,5.271c0.244,0.721,0.554,1.695,0.999,3.215c0.108,0.376,0.227,0.785,0.353,1.229
		c0.378,1.33,0.796,2.851,1.246,4.562c0.002,0.012,0.007,0.024,0.011,0.039c0.163,0.633,0.335,1.291,0.508,1.976
		c0.045,0.177,0.09,0.355,0.136,0.536c0.109,0.446,0.224,0.905,0.339,1.373c0.995,4.054,3.79,12.991,5.373,19.82
		C257.706,299.073,256.668,301.113,254.787,301.929"/>
	<path clip-path="url(#SVGID_7_)" fill="#FBAAD5" d="M236.844,242.78v0.036c-0.024-0.007-0.05-0.013-0.074-0.019
		C236.794,242.791,236.819,242.787,236.844,242.78"/>
	<path clip-path="url(#SVGID_7_)" fill="#5190B7" d="M236.595,242.232c-0.021,0.206-0.045,0.416-0.072,0.629h-0.003
		c-1.242,9.863-8.823,28.155-13.611,32.605c0.197-0.994,0.376-1.922,0.537-2.788c0.37-2.02,0.644-3.711,0.818-5.151
		c0.065-0.57,0.118-1.101,0.154-1.599c0.018-0.268,0.031-0.522,0.04-0.767v-0.018c-0.004-0.455-0.165-6.393-5.841-8.867
		c0,0-1.022-0.633-2.017-1c-0.979-0.358-2.012-0.658-3.075-0.901c-7.161-1.648-15.592-0.875-16.777-0.758
		c0.195-0.765,0.459-2.25,0.041-4.029c-0.319-1.359-0.909-2.354-1.327-2.949c8.996-1.619,18.717-2.931,29.099-3.731
		C228.676,242.592,232.689,242.37,236.595,242.232"/>
	<path clip-path="url(#SVGID_7_)" fill="#FBAAD5" d="M236.77,242.799c-0.025,0.005-0.05,0.011-0.075,0.018v-0.036
		C236.72,242.787,236.744,242.791,236.77,242.799"/>
	<path clip-path="url(#SVGID_7_)" fill="#5190B7" d="M236.943,242.231c0.988,9.694,8.794,28.688,13.686,33.234
		c-0.834-4.228-1.344-7.247-1.509-9.538c-0.018-0.267-0.031-0.521-0.04-0.766v-0.019c0.005-0.455,0.164-6.393,5.841-8.866
		c0,0,1.021-0.634,2.017-1c7.58-2.796,18.491-1.796,19.852-1.659c-0.193-0.766-0.459-2.25-0.039-4.03
		c0.317-1.359,0.908-2.354,1.326-2.949c-9.01-1.618-18.741-2.93-29.133-3.73C244.842,242.592,240.84,242.371,236.943,242.231"/>
	<polygon clip-path="url(#SVGID_7_)" fill="#4080A0" points="232.604,243.559 232.946,242.014 234.392,240.904 240.484,240.904 
		241.688,242.066 241.688,243.524 	"/>
	<path clip-path="url(#SVGID_7_)" fill="#BC956B" d="M241.897,243.136c-2.199,2.785-3.667,1.528-4.647,8.59
		c-0.866-3.64-2.538-6.306-4.646-8.438c0,0,1.221-1.445,1.764-2.351c0.059-0.094,0.108-0.182,0.148-0.262
		c0.161-0.319,0.239-0.892,0.273-1.484c0.06-0.979,0-2.009,0-2.009l6.378,0.213c0,0-0.057,0.763-0.152,1.929
		c-0.026,0.32-0.058,0.674-0.09,1.049c-0.022,0.242-0.02,0.473,0.006,0.688C241.067,242.374,241.897,243.136,241.897,243.136"/>
	<path clip-path="url(#SVGID_7_)" fill="#987957" d="M240.925,240.373c-0.021,0.242-0.018,0.473,0.006,0.688
		c-0.486,0.286-1.714,0.919-3.389,0.863c-1.569-0.051-2.695-0.68-3.173-0.986c0.021-0.036,0.05-0.082,0.081-0.136
		c0.023-0.044,0.047-0.086,0.067-0.126c0.159-0.319,0.238-0.892,0.272-1.484c0.06-0.979,0-2.009,0-2.009l6.378,0.213
		c0,0-0.057,0.763-0.153,1.929C240.989,239.645,240.957,239.998,240.925,240.373"/>
	<path clip-path="url(#SVGID_7_)" fill="#5190B7" d="M234.391,240.905c0,0-1.072,0.866-0.867,2.073
		c0.204,1.207,2.391,2.915,2.391,2.915l-0.979,3.78c0,0-4.259-3.78-1.989-7.659L234.391,240.905z"/>
	<path clip-path="url(#SVGID_7_)" fill="#5490B2" d="M235.914,245.894c0,0,2.236,5.717,1.369,12.96h-0.639
		c0,0,0.275-9.271-1.184-11.207L235.914,245.894z"/>
	<path clip-path="url(#SVGID_7_)" fill="#5190B7" d="M240.979,241.383c0,0,0.515,0.428,0.373,1.595
		c-0.148,1.216-2.393,2.915-2.393,2.915l0.98,3.781c0,0,4.037-3.781,2.108-7.484c-0.059-0.112-0.156-0.2-0.263-0.271
		L240.979,241.383z"/>
	<path clip-path="url(#SVGID_7_)" fill="#4C6580" d="M235.915,245.894c-0.284,1.334-0.593,2.662-0.919,3.985
		c-1.113-1.016-2.03-2.26-2.522-3.697c-0.475-1.384-0.314-2.943,0.473-4.168c-0.306,0.646-0.541,1.323-0.569,2.029
		c-0.093,2.14,1.16,4.097,2.629,5.55l-0.176,0.055C235.173,248.392,235.532,247.14,235.915,245.894"/>
	<path clip-path="url(#SVGID_7_)" fill="#4C6580" d="M238.961,245.894c0.379,1.247,0.733,2.499,1.082,3.754l-0.176-0.05
		c1.6-1.673,3.02-4.002,2.477-6.39c-0.078-0.377-0.23-0.777-0.408-1.104c-0.274-0.266-0.64-0.479-0.956-0.721
		c0.339,0.225,0.696,0.393,1.022,0.662c1.628,2.59-0.023,5.804-1.989,7.706l-0.131,0.131
		C239.561,248.557,239.248,247.229,238.961,245.894"/>
	<path clip-path="url(#SVGID_7_)" fill="#4C6580" d="M236.368,260.611l1.202-0.022l-0.022,0.021c0.029-3.296,0.236-6.603,0.821-9.85
		c0.228-1.066,0.421-2.193,1.045-3.114c-0.293,0.467-0.432,1.005-0.557,1.534c-0.783,3.767-0.93,7.627-1.266,11.453l-0.021-0.001
		L236.368,260.611z"/>
	<path clip-path="url(#SVGID_7_)" fill="#BC956B" d="M231.417,230.847c-0.249-0.63-0.58-1.053-0.809-1.301
		c-0.256-0.279-0.51-0.547-0.927-0.645c-0.128-0.03-0.521-0.121-0.804,0.093c-0.23,0.174-0.287,0.475-0.308,0.803
		c-0.046,0.712,0.085,1.436,0.509,2.579c0.429,1.157,0.7,1.512,0.967,1.76c0.426,0.395,0.763,0.449,0.932,0.457
		c0.109,0.005,0.333,0.012,0.545-0.123c0.423-0.269,0.407-0.851,0.405-0.897C231.757,232.664,231.587,231.755,231.417,230.847"/>
	<path clip-path="url(#SVGID_7_)" fill="#BC956B" d="M244.678,234.487c0.1,0.093,0.275,0.228,0.516,0.258
		c0.083,0.01,0.423,0.038,0.914-0.399c1.088-0.967,1.157-2.646,1.185-3.318c0.013-0.311,0.012-0.829-0.305-1.254
		c-0.085-0.114-0.251-0.33-0.516-0.364c-0.216-0.027-0.387,0.078-0.505,0.153c-0.454,0.287-0.614,0.789-0.669,0.996
		C245.298,230.559,244.372,233.784,244.678,234.487"/>
	<path clip-path="url(#SVGID_7_)" fill="#BC956B" d="M245.223,225.646c-0.225-0.883-0.452-1.771-1.126-2.638
		c-1.862-2.4-5.512-2.542-7.772-2.075c-0.983,0.203-2.692,0.556-3.975,2.005c-1.384,1.562-1.443,3.463-1.513,5.698
		c-0.067,2.169,0.334,3.685,0.95,6.014c0.243,0.918,0.692,2.439,1.759,3.94c0.467,0.657,0.894,1.087,1.459,1.406
		c0.68,0.385,1.281,0.45,2.146,0.546c0.913,0.1,1.799,0.196,2.814-0.194c0.123-0.047,0.621-0.244,1.225-0.715
		c1.808-1.408,3.047-4.08,3.4-4.877C244.59,234.756,246.161,228.354,245.223,225.646"/>
	<path clip-path="url(#SVGID_7_)" fill="#111010" d="M245.152,231.193c0.508-0.855,1.039-1.954,1.422-3.287
		c0.301-1.055,0.704-2.519,0.443-4.354c-0.163-1.148-0.342-2.41-1.392-3.198c-0.825-0.619-1.786-0.644-2.251-0.622
		c0.017-0.452-0.077-0.784-0.148-0.977c-0.508-1.38-2.1-1.779-2.31-1.829c-0.322-0.075-0.587-0.089-0.778-0.091
		c-1.503-0.021-3.006,0.557-4.079,1.091c0,0-1.87,0.781-3.701,2.102c-0.363,0.262-0.954,0.716-1.096,1.451
		c-0.046,0.236-0.034,0.44-0.015,0.578c-0.233,0.081-1.165,0.434-1.673,1.421c-0.189,0.367-0.276,0.74-0.311,1.378
		c-0.111,2.036,0.468,3.673,0.592,4.012c0.264,0.722,0.727,1.749,1.555,2.843c-0.148-0.555-0.276-1.357-0.089-2.265
		c0.085-0.411,0.17-0.535,0.563-1.599c0.426-1.154,0.638-1.731,0.755-2.251c0.131-0.584,0.242-1.47,0.059-2.636
		c0.781,0.126,1.638,0.215,2.562,0.237c3.132,0.075,5.738-0.648,7.566-1.362c-0.048,0.962,0.002,2.633,0.8,4.472
		c0.454,1.046,1.02,1.847,1.495,2.413C245.132,229.544,245.142,230.369,245.152,231.193"/>
	<path clip-path="url(#SVGID_7_)" fill="#484443" d="M233.402,221.072c0.571-0.009,1.229-0.057,1.955-0.178
		c0.812-0.135,1.52-0.331,2.109-0.533c-0.54,0.482-1.08,0.963-1.621,1.444c0.604-0.03,1.276-0.096,1.999-0.222
		c1.089-0.189,2.034-0.468,2.82-0.755c-0.689,0.423-1.66,0.914-2.887,1.244c-1.903,0.51-3.539,0.395-4.531,0.244
		c0.747-0.341,1.495-0.681,2.243-1.022C234.794,221.22,234.099,221.146,233.402,221.072"/>
	<path clip-path="url(#SVGID_7_)" fill="#484443" d="M232.063,223.404c0.103,0.488,0.192,1.187,0.104,2.014
		c-0.126,1.175-0.551,2.058-0.844,2.561c0.154-0.746,0.299-1.527,0.429-2.339C231.875,224.87,231.977,224.124,232.063,223.404"/>
	<path clip-path="url(#SVGID_7_)" fill="#484443" d="M231.174,225.122c0.068,0.355,0.132,0.93,0,1.614
		c-0.106,0.547-0.3,0.973-0.459,1.259c0.027-0.422,0.073-0.878,0.148-1.363C230.948,226.082,231.056,225.577,231.174,225.122"/>
	<path clip-path="url(#SVGID_7_)" fill="#484443" d="M244.108,223.138c-0.296,0.728-0.069,1.426,0.066,1.844
		c0.316,0.976,0.946,1.602,1.311,1.91c-0.272-0.428-0.594-1.031-0.822-1.799c-0.293-0.985-0.318-1.844-0.288-2.421
		C244.296,222.774,244.192,222.931,244.108,223.138"/>
	<path clip-path="url(#SVGID_7_)" d="M237.471,236.021c-1.031,0.445-2.222,0.475-3.253,0.084c1.026,0.153,2.096-0.091,2.923-0.685
		C237.567,235.143,237.934,235.81,237.471,236.021"/>
	<path clip-path="url(#SVGID_7_)" d="M238.559,235.42c0.827,0.594,1.896,0.839,2.923,0.685c-1.031,0.392-2.222,0.361-3.253-0.084
		C237.766,235.81,238.131,235.143,238.559,235.42"/>
	<path clip-path="url(#SVGID_7_)" fill="#987957" d="M238.389,238.287c-0.023,0-0.049-0.004-0.073-0.014
		c-0.16-0.063-0.332-0.085-0.503-0.094c-0.162,0-0.32,0.028-0.473,0.084c-0.104,0.038-0.219-0.016-0.257-0.12
		s0.016-0.219,0.12-0.257c0.195-0.071,0.4-0.108,0.608-0.108h0.003c0.223,0,0.439,0.041,0.647,0.121
		c0.103,0.041,0.154,0.157,0.114,0.26C238.545,238.237,238.469,238.287,238.389,238.287"/>
	<path clip-path="url(#SVGID_7_)" fill="#542525" d="M239.154,226.768l0.087,1.114c0,0,2.803-0.657,5.051,0.417
		C244.292,228.299,242.673,226.289,239.154,226.768"/>
	<path clip-path="url(#SVGID_7_)" fill="#542525" d="M237.098,226.973l-0.101,1.112c0,0-2.795-0.692-5.056,0.353
		C231.941,228.438,233.586,226.449,237.098,226.973"/>
	<path clip-path="url(#SVGID_7_)" fill="#987957" d="M238.124,229.348c0.253,0.429,0.445,1.117,0.628,1.584
		c0.356,1.027,1.028,2.366,0.087,3.283c-0.458,0.378-1.212,0.387-1.64-0.024c0.788,0.368,1.752,0.17,1.907-0.788
		c0.194-0.843-0.277-1.618-0.506-2.418C238.456,230.506,238.189,229.843,238.124,229.348"/>
	<path clip-path="url(#SVGID_7_)" fill="#FFFFFF" d="M236.479,229.793c0,0,0.173,1.691-1.623,1.792
		c-1.794,0.1-2.126-1.653-2.126-1.653c0.361-0.228,0.746-0.362,1.127-0.431c0.682-0.127,1.348-0.048,1.838,0.059
		C236.17,229.664,236.479,229.793,236.479,229.793"/>
	<path clip-path="url(#SVGID_7_)" fill="#3F2E20" d="M234.976,231.051c-0.056,0.015-0.11,0.025-0.164,0.03l-0.04,0.004
		c-0.015-0.001-0.03,0.001-0.044,0c-0.013,0.001-0.022,0.002-0.034,0.002c-0.48-0.004-0.916-0.327-1.043-0.815
		c-0.036-0.139-0.044-0.279-0.027-0.413c0.005-0.034,0.012-0.069,0.021-0.102c0.017-0.074,0.04-0.145,0.073-0.214
		c0.047-0.015,0.094-0.03,0.141-0.042c0.681-0.127,1.348-0.047,1.838,0.059c0.018,0.043,0.035,0.085,0.047,0.13
		c0.003,0.012,0.006,0.024,0.01,0.038c0.003,0.007,0.005,0.015,0.006,0.023C235.895,230.324,235.547,230.903,234.976,231.051"/>
	<path clip-path="url(#SVGID_7_)" fill="#987957" d="M233.105,231.71c0.495-0.181,1.031-0.206,1.552-0.212
		c0.517,0.018,1.075,0.021,1.539,0.28c-0.504-0.108-1.026-0.066-1.54-0.08C234.198,231.699,233.559,231.685,233.105,231.71"/>
	<path clip-path="url(#SVGID_7_)" fill="#FFFFFF" d="M243.297,229.896c0,0-0.299,1.759-2.094,1.693
		c-1.799-0.067-1.657-1.761-1.657-1.761s0.295-0.135,0.763-0.243c0.518-0.12,1.246-0.207,2.011-0.044
		C242.644,229.608,242.974,229.722,243.297,229.896"/>
	<path clip-path="url(#SVGID_7_)" fill="#3F2E20" d="M242.396,230.266c-0.117,0.498-0.556,0.833-1.041,0.845
		c-0.013,0.001-0.024,0-0.034,0.001c-0.016-0.001-0.03,0-0.046-0.001l-0.013-0.001c-0.01-0.001-0.018-0.002-0.027-0.001
		c-0.055-0.006-0.109-0.014-0.166-0.029c-0.583-0.138-0.947-0.718-0.819-1.301c0.001-0.008,0.004-0.016,0.004-0.026
		c0.003-0.012,0.006-0.026,0.012-0.037c0.012-0.046,0.026-0.091,0.045-0.131c0.516-0.12,1.245-0.207,2.011-0.045
		c0.033,0.065,0.055,0.133,0.072,0.202c0.01,0.033,0.017,0.07,0.021,0.104C242.436,229.982,242.43,230.125,242.396,230.266"/>
	<path clip-path="url(#SVGID_7_)" fill="#987957" d="M242.932,231.71c-0.45-0.026-1.095-0.011-1.551-0.012
		c-0.514,0.014-1.036-0.028-1.54,0.08c0.464-0.259,1.022-0.262,1.539-0.28C241.901,231.504,242.438,231.529,242.932,231.71"/>
	<path clip-path="url(#SVGID_7_)" fill="#652B28" d="M235.511,236.731c0,0,1.951,1.17,4.64,0
		C240.15,236.731,238.158,237.286,235.511,236.731"/>
	<path clip-path="url(#SVGID_7_)" fill="#4080A0" d="M225.401,263.912c-0.111,3.295-1.081,6.504-1.956,8.767
		c-0.728,1.886-1.391,3.116-1.436,3.2c0.043-0.179,0.088-0.357,0.133-0.532c0.172-0.685,0.344-1.343,0.507-1.976
		c0.005-0.015,0.009-0.027,0.011-0.038c0.45-1.712,0.869-3.232,1.246-4.562c0.127-0.445,0.245-0.854,0.353-1.23
		c0.002-0.004,0.002-0.01,0.005-0.014c0.065-0.569,0.117-1.101,0.153-1.599c0.018-0.267,0.032-0.522,0.041-0.767v-0.019
		c-0.004-0.454-0.165-6.392-5.841-8.866c0,0-1.022-0.633-2.017-1c-0.979-0.358-2.013-0.657-3.075-0.901
		c0,0,10.205-1.271,11.616,5.956C225.373,261.51,225.444,262.716,225.401,263.912"/>
	<path clip-path="url(#SVGID_7_)" fill="#4080A0" d="M248.093,263.912c0.111,3.295,1.081,6.504,1.956,8.767
		c0.729,1.886,1.392,3.116,1.437,3.2c-0.043-0.179-0.088-0.357-0.133-0.532c-0.173-0.685-0.345-1.343-0.508-1.976
		c-0.005-0.015-0.009-0.027-0.011-0.038c-0.45-1.712-0.869-3.232-1.246-4.562c-0.127-0.445-0.245-0.854-0.353-1.23
		c-0.002-0.004-0.002-0.01-0.005-0.014c-0.065-0.569-0.117-1.101-0.153-1.599c-0.018-0.267-0.032-0.522-0.041-0.767v-0.019
		c0.005-0.454,0.165-6.392,5.841-8.866c0,0,1.022-0.633,2.018-1c0.979-0.358,2.013-0.657,3.074-0.901c0,0-10.205-1.271-11.615,5.956
		C248.122,261.51,248.05,262.716,248.093,263.912"/>
	<path clip-path="url(#SVGID_7_)" fill="#4C6580" d="M237.301,259.201c0,0.25-0.16,0.452-0.357,0.452s-0.357-0.202-0.357-0.452
		s0.16-0.452,0.357-0.452S237.301,258.951,237.301,259.201"/>
	<path clip-path="url(#SVGID_7_)" fill="#4C6580" d="M237.301,256.749c0,0.25-0.16,0.452-0.357,0.452s-0.357-0.202-0.357-0.452
		s0.16-0.452,0.357-0.452S237.301,256.499,237.301,256.749"/>
	<path clip-path="url(#SVGID_7_)" fill="#4C6580" d="M237.607,254.419c0,0.25-0.159,0.452-0.356,0.452s-0.357-0.202-0.357-0.452
		s0.16-0.451,0.357-0.451S237.607,254.169,237.607,254.419"/>
	<path clip-path="url(#SVGID_7_)" fill="#4C6580" d="M237.965,251.921c0,0.25-0.16,0.452-0.357,0.452
		c-0.196,0-0.356-0.202-0.356-0.452s0.16-0.452,0.356-0.452C237.805,251.469,237.965,251.671,237.965,251.921"/>
	<path clip-path="url(#SVGID_7_)" fill="#4C6580" d="M236.271,248.18c0,0.25-0.16,0.452-0.357,0.452
		c-0.196,0-0.356-0.202-0.356-0.452s0.16-0.451,0.356-0.451C236.111,247.729,236.271,247.93,236.271,248.18"/>
</g>
</svg>
