<?xml version="1.0" encoding="utf-8"?>
<!-- Generator: Adobe Illustrator 16.0.0, SVG Export Plug-In . SVG Version: 6.00 Build 0)  -->
<!DOCTYPE svg PUBLIC "-//W3C//DTD SVG 1.1//EN" "http://www.w3.org/Graphics/SVG/1.1/DTD/svg11.dtd">
<svg version="1.1" id="Layer_1" xmlns="http://www.w3.org/2000/svg" xmlns:xlink="http://www.w3.org/1999/xlink" x="0px" y="0px"
	 width="844px" height="676px" viewBox="0 0 844 676" enable-background="new 0 0 844 676" xml:space="preserve">
<g>
	<defs>
		<path id="SVGID_1_" d="M223.746,188.427c-15.698,84.651-94.234,14.684-176.663,93.172
			c-34.953,33.283-22.141,97.492-14.825,136.536c6.626,34.663,22.929,91.8,68.968,138.822
			c76.038,77.659,184.941,78.45,331.351,79.511c127.602,0.925,196.398-21.889,228.255-34.213c0,0,107.249-41.488,141.957-108.766
			c8.779-17.016,13.037-34.646,13.037-34.646c2.353-9.735,3.131-17.217,3.303-18.971c1.891-19.183,4.324-43.859-8.092-54.731
			c-9.383-8.217-18.488-11.563-62.067-6.585c-58.386,6.669,33.302-74.083,13.734-168.233
			c-19.567-94.157-127.789-44.433-191.058-37.784c-63.262,6.65-49.028-82.174-177.895-113.555
			c-13.068-3.183-25.369-4.666-36.914-4.665C279.704,54.319,236.335,120.519,223.746,188.427"/>
	</defs>
	<clipPath id="SVGID_2_">
		<use xlink:href="#SVGID_1_"  overflow="visible"/>
	</clipPath>
	<path clip-path="url(#SVGID_2_)" fill="#E3F4FF" d="M814.553,458.501c-0.203,0.788-0.422,1.59-0.64,2.398
		c-9.006,33.007-20.215,58.147-28.701,74.414c-7.415,14.206-12.756,21.644-12.756,21.644h-671.23c0,0-46.657-67.259-68.968-138.822
		c-15.866-50.871-19.427-103.923,14.825-136.536c82.428-78.487,160.965-8.52,176.663-93.172
		c14.473-78.072,69.629-153.886,170.006-129.443C522.618,90.365,508.384,179.188,571.646,172.54
		c63.268-6.649,171.49-56.373,191.058,37.784c19.567,94.15-72.12,174.903-13.733,168.233
		C788.759,374.004,839.573,363.887,814.553,458.501"/>
	<path clip-path="url(#SVGID_2_)" fill="#99CCE0" d="M814.554,458.501c3.686,0.919,8.652,2.771,12.745,6.903
		c17.965,18.14-0.479,60.455-3.063,66.384c-2.066,4.738-8.493,18.678-35.973,48.812c-24.033,26.354-45.135,44.221-48.793,47.188
		c-85.701,69.463-623.345,38.501-697.532-70.469c-13.26-19.476-39.83-59.233-39.83-59.233
		c-20.803-37.373,38.798-54.688,30.15-79.951c82.316-24.866,208.036-40.753,348.92-40.753
		C588.406,377.382,762.838,411.767,814.554,458.501"/>
	<path clip-path="url(#SVGID_2_)" fill="#99CCE0" d="M500.949,121.418c5.537-8.647,5.918-20.519,4.255-34.558
		c-1.24-10.451-4.86-17.531-4.979-17.86l-2.23,0.806c0.107,0.3,10.683,30.26-1.263,48.911L500.949,121.418z"/>
	<path clip-path="url(#SVGID_2_)" fill="#99CCE0" d="M504.541,93.163l0.383-4.993c-13.137-1.007-25.339-5.768-32.541-15.856
		c-5.394-7.556-7.729-15.118-7.744-15.191l-2.197,0.446c0.068,0.338,1.749,8.376,7.757,16.79
		C475.77,82.163,486.25,91.761,504.541,93.163"/>
	<path clip-path="url(#SVGID_2_)" fill="#99CCE0" d="M586.388,102.307c10.213-8.299,15.443-22.593,19.058-40.347
		c2.689-13.216,1.127-23.286,1.115-23.735l-3.04,0.085c0.011,0.409,0.848,41.117-21.18,59.017L586.388,102.307z"/>
	<path clip-path="url(#SVGID_2_)" fill="#99CCE0" d="M595.598,95.124l-1.552-6.226c16.382-4.085,30.78-12.714,37.72-27.002
		c5.198-10.702,6.531-20.757,6.534-20.852l2.871,0.093c-0.015,0.442-0.417,10.957-6.206,22.876
		C629.597,75.066,618.408,89.436,595.598,95.124"/>
	<path clip-path="url(#SVGID_2_)" fill="#BDDEEF" d="M406.952,144.969c-0.761-0.138-55.277,18.189-55.277,46.453
		c0,28.264,50.923,39.642,77.598,32.408c26.675-7.233,64.885-3.582,84.399,9.654c19.516,13.236,48.075-30.831,105.241-18.839
		c57.166,11.993,81.883,0.644,115.096-17.626s54.82,14.284,84.182,8.048c29.36-6.236,45.479-51.14,4.207-65.762
		c-41.272-14.623-200.386-31.982-229.736-29.096C563.311,113.096,406.952,144.969,406.952,144.969"/>
	<path clip-path="url(#SVGID_2_)" fill="#99CCE0" d="M563.498,440.531c0,0,16.403-48.824,20.033-89.104
		c4.009-44.485-7.603-91.771,0.565-119.578c9.612-32.725-4.021-86.623-9.734-121.64c0,0,35.671,93.262,28.015,115.269
		c-7.2,20.699,0.326,83.007,7.277,121.61c6.952,38.603-7.724,69.439,0,93.442C609.654,440.531,575.271,452.059,563.498,440.531"/>
	<path clip-path="url(#SVGID_2_)" fill="#99CCE0" d="M593.465,287.913l-4.318-3.666c0.254-0.298,6.318-7.377,17.754-15.161
		c10.521-7.163,27.787-16.29,50.292-19.1c40.968-5.115,98.029-45.224,100.253-79.233l5.652,0.37
		c-1.123,17.168-14.757,36.958-37.406,54.295c-21.236,16.254-46.581,27.54-67.798,30.189
		C616.98,260.714,598.688,297.911,593.465,287.913"/>
	<path clip-path="url(#SVGID_2_)" fill="#99CCE0" d="M599.999,202.529l-1.312-5.511c0.224-0.054,12.918-3.178,28.36-12.258
		c14.227-8.364,35.483-22.83,47.891-48.19l3.395,1.661c-13.063,26.703-33.636,42.754-48.594,51.517
		C613.536,199.243,600.544,202.4,599.999,202.529 M599.344,199.774l-0.658-2.755c0,0,0.001,0,0.002-0.001L599.344,199.774z"/>
	<path clip-path="url(#SVGID_2_)" fill="#99CCE0" d="M633.313,185.082c-8.655-7.749-12.664-20.573-15.101-36.38
		c-1.813-11.766-0.012-20.579,0.019-20.974l2.677,0.202c-0.026,0.361-2.482,36.219,16.184,52.932L633.313,185.082z"/>
	<path clip-path="url(#SVGID_2_)" fill="#99CCE0" d="M656.592,171.263c-1.166,0-2.345-0.017-3.545-0.052l0.164-5.662
		c26.193,0.761,43.407-7.417,53.237-14.412c10.656-7.583,15.206-15.464,15.25-15.543l2.468,1.39
		c-0.201,0.358-3.283,10.078-14.85,18.388C699.206,162.636,682.553,171.263,656.592,171.263"/>
	<path clip-path="url(#SVGID_2_)" fill="#99CCE0" d="M574.827,239.466c-69.483,0.004-133.337-63.575-158.748-86.259
		c-4.528-4.042-8.804-7.859-9.888-8.377c0.003,0.002,0.295,0.139,0.761,0.139v-5.665c1.996,0,3.777,1.534,12.899,9.677
		c25.806,23.037,99.575,83.905,169.295,79.718l-4.021,10.764C582.725,239.607,577.223,239.466,574.827,239.466"/>
	<path clip-path="url(#SVGID_2_)" fill="#99CCE0" d="M438.364,212.557c-17.496,0-31.313-4.159-41.604-7.322
		c-20-6.148-28.329-17.15-28.76-17.513l1.639-1.944c0.099,0.083,10.096,8.355,29.104,14.14c17.552,5.342,46.611,9.597,85.372-0.466
		l6.431,7.741C472.941,211.763,451.985,212.557,438.364,212.557"/>
	<path clip-path="url(#SVGID_2_)" fill="#99CCE0" d="M514.582,213.899l-5.158-2.341c16.681-36.755-3.105-74.383-3.334-74.741
		l2.122-1.353c0.251,0.395,6.203,9.828,10.005,24.202C521.741,172.989,523.971,193.211,514.582,213.899"/>
	<path clip-path="url(#SVGID_2_)" fill="#99CCE0" d="M515.674,171.273c-14.734,0-26.622-15.695-33.538-23.49
		c-1.69-1.904-4.133-5.834-4.828-4.874c0.004,0.002-1.306-1.374-0.751-1.374l1.717,0.344c1.759,1.502,3.084,1.048,6.952,5.407
		c6.537,7.368,19.097,19.267,31.772,18.271l0.442,5.647C516.849,171.25,516.26,171.273,515.674,171.273"/>
	<path clip-path="url(#SVGID_2_)" fill="#99CCE0" d="M583.704,168.473c-22.77-3.187-35.621-13.842-42.394-22.22
		c-7.402-9.158-9.336-17.566-9.415-17.919l5.528-1.239c0.018,0.076,1.807,7.67,8.473,15.819
		c8.918,10.901,21.901,17.613,38.593,19.949L583.704,168.473z"/>
	<path clip-path="url(#SVGID_2_)" fill="#99CCE0" d="M620.843,155.373l-1.929-5.326c14.014-5.075,25.872-13.959,30.668-27.135
		c3.592-9.87,3.848-18.82,3.842-18.903l2.53-0.179c0.027,0.389,0.629,9.658-3.371,20.65
		C648.873,134.673,640.354,148.307,620.843,155.373"/>
	<path clip-path="url(#SVGID_2_)" fill="#99CCE0" d="M732.146,228.391c-2.869,0-6.875-0.3-9.835-0.454l1.999-8.346
		c17.4,0.904,33.137-0.945,46.771-5.496c10.845-3.62,20.4-8.953,28.398-15.851c7.12-6.14,11.675-12.417,14.24-16.602
		c2.79-4.55,3.904-7.685,3.915-7.717l5.352,1.859c-0.193,0.556-4.885,13.769-19.538,26.517
		c-8.557,7.444-18.764,13.193-30.337,17.088C761.081,223.437,746.926,228.391,732.146,228.391"/>
	<path clip-path="url(#SVGID_2_)" fill="#D2F0FF" d="M276.696,168.473c0,0,19.53,15.199,47.244,10.807
		c27.715-4.393,47.622-13.792,73.618-4.597c25.997,9.194,84.947,14.705,130.419-3.745s91.881-33.56,141.989-17.509
		c50.11,16.052,77.022,27.167,114.144,15.044c37.12-12.123,57.986,26.087,100.45,6.21c42.464-19.878,14.48-50.001-18.393-56.18
		s-83.914-46.344-143.307-37.075c-59.394,9.269-113.627-16.112-170.409-3.862S465.8,108.466,408.264,103.83
		C350.726,99.192,233.29,134.251,276.696,168.473"/>
	<path clip-path="url(#SVGID_2_)" fill="#D2F0FF" d="M499.945,79.987c0,0-35.078,3.596-54.953,10.789
		c-19.875,7.192-65.453,2.876-48.129-19.42c17.323-22.296,30.242-36.681,68.998-32.366c38.757,4.316,77.544,8.631,88.46,18.701
		C565.236,67.76,515.148,82.145,499.945,79.987"/>
	<path clip-path="url(#SVGID_2_)" fill="#D2F0FF" d="M585.241,47.944c14.662-3.385,39.503,10.559,63.899,22.203
		c24.397,11.645,74.947,3.509,54.59-30.486c-20.357-33.996-35.667-56.012-84.278-51.43c-48.612,4.581-97.265,9.161-111.456,23.624
		C493.803,26.319,545.379,57.147,585.241,47.944"/>
	<path clip-path="url(#SVGID_2_)" fill="#99CCE0" d="M48.666,87.963c5.538-8.647,5.919-20.519,4.255-34.558
		c-1.24-10.451-4.86-17.531-4.979-17.86l-2.231,0.806c0.108,0.3,10.683,30.26-1.262,48.911L48.666,87.963z"/>
	<path clip-path="url(#SVGID_2_)" fill="#99CCE0" d="M52.258,59.708l0.383-4.993C39.504,53.708,27.302,48.947,20.1,38.859
		c-5.394-7.556-7.73-15.118-7.744-15.191l-2.198,0.446c0.069,0.338,1.749,8.376,7.757,16.79
		C23.486,48.708,33.967,58.307,52.258,59.708"/>
	<path clip-path="url(#SVGID_2_)" fill="#99CCE0" d="M134.104,68.853c10.213-8.299,15.444-22.593,19.058-40.347
		c2.689-13.216,1.127-23.286,1.115-23.735l-3.04,0.085c0.011,0.409,0.848,41.117-21.18,59.017L134.104,68.853z"/>
	<path clip-path="url(#SVGID_2_)" fill="#99CCE0" d="M143.314,61.669l-1.552-6.226c16.382-4.085,30.78-12.714,37.72-27.002
		c5.198-10.702,6.531-20.757,6.534-20.852l2.871,0.093c-0.014,0.442-0.417,10.957-6.206,22.876
		C177.313,41.611,166.125,55.981,143.314,61.669"/>
	<path clip-path="url(#SVGID_2_)" fill="#BDDEEF" d="M-45.331,111.514c-0.761-0.138-55.277,18.189-55.277,46.453
		c0,28.264,50.923,39.642,77.598,32.408c26.675-7.233,64.885-3.582,84.4,9.654c19.515,13.236,48.074-30.831,105.241-18.839
		c57.166,11.993,81.883,0.644,115.096-17.626c33.213-18.27,54.82,14.284,84.181,8.048c29.361-6.236,45.479-51.14,4.207-65.762
		C328.843,91.227,169.73,73.868,140.379,76.754C111.028,79.641-45.331,111.514-45.331,111.514"/>
	<path clip-path="url(#SVGID_2_)" fill="#99CCE0" d="M111.215,407.077c0,0,16.403-48.824,20.033-89.104
		c4.009-44.485-7.603-91.771,0.565-119.578c9.613-32.725-4.02-86.623-9.734-121.64c0,0,35.671,93.262,28.015,115.269
		c-7.201,20.699,0.326,83.007,7.277,121.61c6.952,38.603-7.724,69.439,0,93.443C157.371,407.077,122.988,418.604,111.215,407.077"/>
	<path clip-path="url(#SVGID_2_)" fill="#99CCE0" d="M141.182,254.458l-4.318-3.666c0.253-0.298,6.319-7.377,17.753-15.161
		c10.521-7.163,27.787-16.29,50.292-19.1c40.968-5.115,98.03-45.224,100.253-79.233l5.653,0.37
		c-1.123,17.168-14.757,36.958-37.407,54.295c-21.236,16.254-46.581,27.54-67.797,30.189
		C164.697,227.26,146.404,264.456,141.182,254.458"/>
	<path clip-path="url(#SVGID_2_)" fill="#99CCE0" d="M147.716,169.075l-1.312-5.511c0.224-0.054,12.918-3.178,28.361-12.258
		c14.226-8.364,35.483-22.83,47.89-48.19l3.395,1.661c-13.064,26.703-33.636,42.754-48.594,51.517
		C161.253,165.788,148.261,168.946,147.716,169.075 M147.06,166.319l-0.658-2.755c0,0,0.001,0,0.002-0.001L147.06,166.319z"/>
	<path clip-path="url(#SVGID_2_)" fill="#99CCE0" d="M181.029,151.627c-8.655-7.749-12.664-20.573-15.1-36.38
		c-1.814-11.766-0.011-20.579,0.018-20.974l2.677,0.202c-0.027,0.361-2.483,36.219,16.183,52.932L181.029,151.627z"/>
	<path clip-path="url(#SVGID_2_)" fill="#99CCE0" d="M204.309,137.809c-1.166,0-2.345-0.017-3.545-0.052l0.164-5.662
		c26.193,0.761,43.407-7.417,53.237-14.412c10.657-7.583,15.206-15.464,15.25-15.543l2.468,1.39
		c-0.201,0.358-3.283,10.078-14.85,18.388C246.923,129.182,230.27,137.809,204.309,137.809"/>
	<path clip-path="url(#SVGID_2_)" fill="#99CCE0" d="M122.544,206.011c-69.484,0.004-133.337-63.575-158.748-86.259
		c-4.528-4.042-8.804-7.859-9.888-8.376c0.003,0.001,0.295,0.138,0.761,0.138v-5.665c1.996,0,3.777,1.534,12.899,9.677
		c25.806,23.037,99.575,83.905,169.295,79.718l-4.02,10.764C130.441,206.152,124.939,206.011,122.544,206.011"/>
	<path clip-path="url(#SVGID_2_)" fill="#99CCE0" d="M-13.919,179.102c-17.495,0-31.313-4.159-41.604-7.322
		c-20-6.148-28.329-17.15-28.76-17.513l1.639-1.944c0.099,0.083,10.096,8.355,29.104,14.14c17.552,5.342,46.611,9.597,85.373-0.466
		l6.43,7.741C20.658,178.308-0.298,179.102-13.919,179.102"/>
	<path clip-path="url(#SVGID_2_)" fill="#99CCE0" d="M62.299,180.445l-5.158-2.341c16.681-36.755-3.105-74.383-3.334-74.741
		l2.122-1.353c0.251,0.395,6.203,9.828,10.005,24.202C69.458,139.534,71.688,159.757,62.299,180.445"/>
	<path clip-path="url(#SVGID_2_)" fill="#99CCE0" d="M63.391,137.818c-14.734,0-26.622-15.695-33.538-23.49
		c-1.69-1.904-4.133-5.834-4.828-4.874c0.004,0.002-1.306-1.373-0.751-1.373l1.717,0.343c1.759,1.502,3.084,1.048,6.952,5.407
		c6.537,7.368,19.097,19.267,31.773,18.271l0.442,5.647C64.565,137.795,63.977,137.818,63.391,137.818"/>
	<path clip-path="url(#SVGID_2_)" fill="#99CCE0" d="M131.421,135.018c-22.769-3.187-35.621-13.842-42.393-22.22
		c-7.403-9.158-9.336-17.566-9.415-17.919l5.528-1.239c0.017,0.076,1.807,7.67,8.473,15.819
		c8.917,10.901,21.901,17.613,38.592,19.949L131.421,135.018z"/>
	<path clip-path="url(#SVGID_2_)" fill="#99CCE0" d="M168.56,121.918l-1.929-5.326c14.014-5.075,25.872-13.959,30.668-27.135
		c3.592-9.87,3.848-18.82,3.842-18.903l2.53-0.179c0.028,0.389,0.629,9.658-3.371,20.65
		C196.59,101.218,188.072,114.852,168.56,121.918"/>
	<path clip-path="url(#SVGID_2_)" fill="#99CCE0" d="M279.863,194.937c-2.869,0-6.874-0.3-9.834-0.454l1.999-8.346
		c17.4,0.904,33.136-0.945,46.771-5.496c10.846-3.62,20.4-8.953,28.399-15.851c7.12-6.14,11.674-12.417,14.24-16.602
		c2.79-4.55,3.904-7.685,3.915-7.717l5.351,1.859c-0.193,0.556-4.884,13.769-19.538,26.517
		c-8.556,7.444-18.763,13.193-30.337,17.088C308.798,189.982,294.643,194.937,279.863,194.937"/>
	<path clip-path="url(#SVGID_2_)" fill="#D2F0FF" d="M-175.587,135.018c0,0,19.53,15.199,47.244,10.807
		c27.715-4.393,47.622-13.792,73.618-4.597c25.997,9.194,84.947,14.705,130.419-3.745c45.473-18.45,91.881-33.56,141.99-17.508
		c50.11,16.051,77.022,27.166,114.143,15.043c37.12-12.123,57.987,26.087,100.45,6.21c42.464-19.878,14.48-50.001-18.393-56.18
		c-32.873-6.179-83.914-46.344-143.307-37.075S156.951,31.86,100.169,44.11C43.387,56.36,13.517,75.012-44.019,70.375
		C-101.557,65.737-218.993,100.796-175.587,135.018"/>
	<path clip-path="url(#SVGID_2_)" fill="#D2F0FF" d="M47.663,46.532c0,0-35.078,3.596-54.953,10.789
		c-19.875,7.192-65.453,2.876-48.13-19.42C-38.097,15.605-25.178,1.22,13.578,5.535c38.757,4.316,77.544,8.631,88.46,18.701
		C112.954,34.305,62.866,48.69,47.663,46.532"/>
	<path clip-path="url(#SVGID_2_)" fill="#D2F0FF" d="M132.958,14.489c14.663-3.385,39.503,10.559,63.9,22.203
		c24.397,11.645,74.947,3.51,54.59-30.486c-20.358-33.996-35.667-56.012-84.279-51.43C118.557-40.643,69.905-36.063,55.712-21.6
		C41.52-7.136,93.096,23.692,132.958,14.489"/>
	<path clip-path="url(#SVGID_2_)" fill="#BDDEEF" d="M170.384,467.924c-9.53,1.151-20.723,5.369-19.696,13.505
		c0.314,2.482,1.788,4.786,3.946,6.642c1.898,1.632,3.946,3.155,6.123,4.563c9.76,6.313,10.326,17.756,1.407,24.78
		c-4.726,3.722-9.769,8.013-9.754,13.218c0.018,6.256,7.509,11.071,15.183,13.098c15.726,4.152,32.861,0.462,49.45-0.407
		c27.978-1.469,55.452,5.231,83.247,8.081c28.462,2.917,60.634,0.805,80.393-15.498c0.749-0.618,1.396-1.314,1.852-2.083
		c3.324-5.61-4.513-9.658-11.033-11.762c-2.939-0.947-5.887-1.881-8.843-2.797c-11.087-3.438-7.461-16.212,4.479-15.778
		c3.957,0.143,7.902,0.322,11.793,0.448c39.035,1.264,78.407-3.918,114.699-15.094c7.41-2.282,16.111-6.608,13.66-12.969
		c-0.495-1.286-1.419-2.452-2.596-3.439c-8.528-7.15-21.579-8.931-33.835-10.221C438.373,458.791,371.232,443.66,170.384,467.924"/>
	<path clip-path="url(#SVGID_2_)" fill="#A85E2C" d="M646.088,432.33l1.23,72.968c-22.209,15.04-52.916,13.143-70.19,1.183
		l-0.151-2.714l-2.536-70.227l65.653-1.13L646.088,432.33z"/>
	<path clip-path="url(#SVGID_2_)" fill="#BC8662" d="M640.094,432.409l1.047,62.147c0.05,2.964-1.544,5.707-4.132,7.155
		c-19.275,10.79-43.493,10.161-60.031,2.055l-2.54-70.384L640.094,432.409z"/>
	<path clip-path="url(#SVGID_2_)" fill="#A85E2C" d="M646.085,432.332c0.075,4.473-15.902,8.369-35.687,8.703
		c-19.784,0.333-35.883-3.023-35.959-7.496c-0.075-4.472,15.902-8.369,35.687-8.702C629.91,424.503,646.01,427.859,646.085,432.332"
		/>
	<path clip-path="url(#SVGID_2_)" fill="#BC8662" d="M641.243,432.132c0.059,3.515-14.358,6.607-32.202,6.909
		c-17.845,0.301-32.358-2.306-32.417-5.82c-0.061-3.516,14.357-6.608,32.202-6.909C626.67,426.011,641.184,428.616,641.243,432.132"
		/>
	<path clip-path="url(#SVGID_2_)" fill="#A85E2C" d="M630.472,490.926c-0.777,0.013-1.418-0.606-1.431-1.383l-0.662-39.319
		c-0.014-0.777,0.605-1.417,1.383-1.43c0.777-0.014,1.418,0.605,1.431,1.383l0.662,39.317
		C631.867,490.271,631.249,490.912,630.472,490.926"/>
	<path clip-path="url(#SVGID_2_)" fill="#A85E2C" d="M615.583,497.127c-0.777,0.013-1.418-0.606-1.431-1.383l-0.654-38.807
		c-0.013-0.776,0.607-1.418,1.384-1.431c0.777-0.013,1.417,0.605,1.431,1.383l0.653,38.806
		C616.979,496.473,616.36,497.113,615.583,497.127"/>
	<path clip-path="url(#SVGID_2_)" fill="#A85E2C" d="M592.324,497.519c-0.777,0.013-1.418-0.605-1.432-1.383l-0.653-38.806
		c-0.014-0.777,0.606-1.418,1.384-1.432c0.777-0.013,1.417,0.606,1.43,1.383l0.654,38.807
		C593.72,496.864,593.101,497.506,592.324,497.519"/>
	<path clip-path="url(#SVGID_2_)" fill="#D39775" d="M620.527,483.735c-0.777,0.013-1.418-0.606-1.432-1.383l-0.661-39.319
		c-0.014-0.777,0.605-1.417,1.383-1.43c0.776-0.014,1.418,0.605,1.431,1.383l0.662,39.318
		C621.923,483.081,621.305,483.723,620.527,483.735"/>
	<path clip-path="url(#SVGID_2_)" fill="#D39775" d="M605.639,489.937c-0.777,0.013-1.418-0.606-1.431-1.383l-0.654-38.807
		c-0.013-0.776,0.606-1.418,1.384-1.431s1.417,0.606,1.43,1.383l0.654,38.807C607.035,489.282,606.416,489.924,605.639,489.937"/>
	<path clip-path="url(#SVGID_2_)" fill="#D39775" d="M582.38,490.328c-0.777,0.014-1.418-0.605-1.432-1.383l-0.653-38.806
		c-0.014-0.777,0.606-1.418,1.384-1.431c0.776-0.014,1.417,0.605,1.43,1.383l0.654,38.806
		C583.775,489.675,583.156,490.315,582.38,490.328"/>
	<path clip-path="url(#SVGID_2_)" fill="#514A4A" d="M535.165,525.189c-0.002,0.671,0.287,1.202,0.287,1.202
		c0.647,1.187,2.224,1.474,2.999,1.604c1.161,0.194,3.121,0.29,6.521-1.006c2.763-1.055,4.658-2.332,6.427-3.541
		c1.5-1.026,3.221-2.399,5.185-4.204c0.822-1.116,0.52-1.438,0.489-3.325C550.338,518.023,535.172,522.959,535.165,525.189"/>
	<path clip-path="url(#SVGID_2_)" fill="#D13333" d="M557.056,515.87c-0.006-0.021,0.371,1.143-1.885,3.275
		c-2.54,2.401-4.129,3.739-6.483,5.035c-1.797,0.989-3.063,1.688-5,2.208c0,0-5.259,1.414-7.98-0.555
		c-0.276-0.199-0.441-0.46-0.441-0.46c-0.039-0.058-0.07-0.119-0.1-0.184c-0.623-1.429,0.92-4.396,2.777-5.448
		c14.627-8.278,18.324-5.653,18.324-5.653C556.47,514.357,556.926,515.01,557.056,515.87"/>
	<path clip-path="url(#SVGID_2_)" fill="#BC956B" d="M556.143,516.385c-1.053,1.461-3.567,2.537-5.559,3.845
		c-3.494,2.29-4.636,5.103-8.812,5.307c-0.865,0.043-4.554,0.007-5.093-0.674c-0.575-0.722-0.374-1.774-0.045-2.631
		c0.992-2.543,2.856-4.645,4.773-6.598c1.916-1.952,3.939-3.845,5.356-6.184c0.165-0.271,0.314-0.548,0.458-0.831
		c1.063-2.073,1.577-4.489,0.948-6.702c1.933,0.229,3.857,0.463,5.79,0.691c0.38,0.043,0.775,0.099,1.068,0.348
		c0.414,0.353,0.46,0.956,0.482,1.498c0.024,0.597,0.363,1.499,0.724,2.437c0.031,1.006,0.069,2.005,0.1,3.011v0.007
		C556.407,512.081,557.414,514.618,556.143,516.385"/>
	<path clip-path="url(#SVGID_2_)" fill="#987957" d="M556.335,509.9c-1.547,0.04-3.372-0.042-5.383-0.381
		c-1.39-0.236-2.641-0.553-3.729-0.9c1.062-2.073,1.578-4.488,0.949-6.701c1.932,0.228,3.856,0.463,5.788,0.689
		c0.382,0.043,0.776,0.101,1.069,0.349c0.414,0.352,0.459,0.957,0.482,1.498c0.024,0.598,0.363,1.5,0.724,2.437
		C556.267,507.896,556.305,508.895,556.335,509.9"/>
	<path clip-path="url(#SVGID_2_)" fill="#D13333" d="M537.343,520.157c0,0,6.914-3.287,10.439,3.612l4.688-3.114
		c0,0-3.118-9.15-11.062-5.021C541.408,515.635,538.82,517.898,537.343,520.157"/>
	<path clip-path="url(#SVGID_2_)" fill="#514A4A" d="M563.052,532.363c-0.002,0.671,0.287,1.202,0.288,1.202
		c0.647,1.187,2.224,1.474,2.998,1.604c1.161,0.194,3.121,0.29,6.521-1.006c2.763-1.055,4.658-2.332,6.427-3.541
		c1.5-1.026,3.22-2.399,5.184-4.204c0.822-1.116,0.521-1.438,0.489-3.325C578.226,525.197,563.06,530.133,563.052,532.363"/>
	<path clip-path="url(#SVGID_2_)" fill="#D13333" d="M584.943,523.044c-0.006-0.021,0.371,1.143-1.885,3.275
		c-2.54,2.401-4.129,3.739-6.483,5.035c-1.797,0.989-3.063,1.688-5.001,2.208c0,0-5.258,1.414-7.979-0.555
		c-0.276-0.199-0.441-0.46-0.441-0.46c-0.039-0.058-0.071-0.119-0.1-0.184c-0.623-1.429,0.92-4.396,2.777-5.448
		c14.626-8.278,18.324-5.653,18.324-5.653C584.357,521.531,584.813,522.184,584.943,523.044"/>
	<path clip-path="url(#SVGID_2_)" fill="#BC956B" d="M584.031,523.558c-0.217,0.523-0.714,1.511-5.201,4.556
		c-5.649,3.825-8.005,4.386-9.169,4.595c-1.48,0.265-3.972,0.687-5.093-0.674c-0.675-0.812-0.574-1.919-0.544-2.25
		c0.267-2.601,2.906-3.349,6.097-6.569c0.754-0.759,3.099-3.162,4.532-6.593c0.244-0.573,0.438-1.141,0.605-1.698
		c0.533-1.783,0.702-3.433,0.728-4.791v-0.008c0.014-0.485,0.006-0.936-0.015-1.337v-0.007l-0.176-0.419
		c2.221,0.272,4.448,0.53,6.671,0.802c0.38,0.043,0.782,0.101,1.075,0.349c0.413,0.352,0.459,0.957,0.475,1.498
		c0.044,1.314,0.087,2.623,0.13,3.932c0.026,0.71,0.052,1.427,0.071,2.138C584.388,522.122,584.674,522.006,584.031,523.558"/>
	<path clip-path="url(#SVGID_2_)" fill="#987957" d="M584.153,514.942h-0.007c-1.315,0.376-3.621,0.818-6.298,0.178
		c-0.935-0.224-1.739-0.538-2.407-0.86c0.144-0.566,0.274-1.199,0.371-1.891c0.115-0.816,0.164-1.567,0.174-2.236v-0.007
		c0.127-0.438,0.133-0.882-0.015-1.337v-0.007l-0.176-0.42c2.221,0.272,4.448,0.53,6.67,0.803c0.381,0.043,0.783,0.099,1.076,0.348
		c0.414,0.353,0.459,0.956,0.475,1.498C584.061,512.319,584.104,513.627,584.153,514.942"/>
	<path clip-path="url(#SVGID_2_)" fill="#D13333" d="M565.23,527.331c0,0,6.914-3.287,10.439,3.612l4.688-3.114
		c0,0-6.26-8.926-10.948-4.653C569.409,523.176,566.707,525.071,565.23,527.331"/>
	<path clip-path="url(#SVGID_2_)" fill="#DDDDDD" d="M594.079,476.19c-0.02,0.64-0.06,1.29-0.1,1.949
		c-0.53,8.221-2.11,15.521-4.05,21.73c-1.761,5.63-3.17,10.37-5.011,14.09c-1.95,0.45-4.92,0.82-8.25-0.07
		c-0.819-0.22-1.55-0.479-2.22-0.77c-0.01-0.05-0.01-0.101-0.02-0.15c0-0.05-0.011-0.1-0.021-0.149c0,0-0.02-0.16-0.04-0.311
		c-0.05-0.43-5.71-29.439-4.78-44.08c0.19-3.069,0.91-6.83,2.841-11.12c0.51-1.14,1.109-2.31,1.81-3.52
		c1.16-2.021,2.6-4.13,4.38-6.33c0.38-0.47,0.78-0.95,1.19-1.43c-0.021,1.12-0.04,2.109-0.07,3c-0.11,4.1-0.33,5.81-0.55,6.35
		c-0.05,0.12-0.41,0.93-0.101,0.96c0.15,0.021,0.301,0.04,0.45,0.05c4.351,0.45,8.7,0.891,13.05,1.341
		c0.15,0.01,0.311,0.029,0.46,0.05c0.211,1.319,0.391,2.7,0.551,4.149c0.119,1.04,0.22,2.11,0.3,3.21
		C594.159,468.54,594.249,472.24,594.079,476.19"/>
	<path clip-path="url(#SVGID_2_)" fill="#DDDDDD" d="M557.682,509.138c-2.438,0.154-5.486,0.03-8.821-0.906
		c-0.801-0.226-1.554-0.479-2.258-0.749c-2.009-6.582-3.754-14.87-4.721-24.506c-1.263-12.599-1.442-26.541,1.78-32.582
		c1.309-3.188,3.259-6.571,6.197-9.982c-0.098,6.312-0.351,8.691-0.623,9.357c-0.047,0.113-0.413,0.933-0.101,0.962
		c0.152,0.015,0.302,0.031,0.453,0.046c4.35,0.447,8.698,0.892,13.045,1.339c0.154,0.015,0.312,0.032,0.466,0.047
		c0.81,5.188,1.337,11.41,1.029,18.414c-0.028,0.644-0.063,1.294-0.104,1.949C563.491,480.745,559.529,505.414,557.682,509.138"/>
	<path clip-path="url(#SVGID_2_)" fill="#DDDDDD" d="M634.694,406.379c0,0,4.83,26.624-11.29,38.787
		c-19.551,14.753-38.411,25.235-38.411,25.235s-12.871-3.68-11.593-9.83C576.844,444.005,605.455,401.317,634.694,406.379"/>
	<path clip-path="url(#SVGID_2_)" fill="#DDDDDD" d="M593.14,426.73c-0.49,2.01-1.15,4.109-2.04,6.26
		c-1.82,4.39-4.58,8.97-8.721,13.37c-0.89,0.949-1.77,1.84-2.64,2.67c-1.15,1.109-2.28,2.13-3.4,3.06c-0.71,0.61-1.409,1.17-2.1,1.7
		c-1.46,1.11-2.87,2.08-4.24,2.94c-10.91,6.829-18.83,6.02-18.83,6.02s-10.1-0.19-9.399-6.44c0.09-0.829,0.46-1.97,1.08-3.35
		c0.979-2.22,2.6-5.06,4.71-8.24c9.46-14.22,28.83-35.17,45.87-36.84C593.43,407.88,595.719,416.14,593.14,426.73"/>
	<path clip-path="url(#SVGID_2_)" fill="#C6C6C6" d="M633.64,421.53c-0.021,2.609-0.391,6.59-2.301,10.85
		c-2.87,6.41-7.63,9.91-14.3,14.811c-7.54,5.55-7.81,3.869-15.189,9.579c-3.45,2.681-5.131,4.381-8.25,5.16
		c-0.101,0.021-0.2,0.051-0.301,0.07c-4.26,0.95-7.58-0.57-11.619-2.04c0,0-2.471-0.91-7.53-2.22c-0.54-0.141-1.11-0.28-1.72-0.431
		c0.51-1.14,1.109-2.31,1.81-3.52c-1.46,1.11-2.87,2.08-4.24,2.94c-3.18-0.75-7.02-1.561-11.55-2.391c-3.83-0.7-9.1-1.39-15.6-1.38
		c0.979-2.22,2.6-5.06,4.71-8.24c13.2-3.56,26.399-7.109,39.6-10.67c1.31-0.35,2.63-0.71,3.94-1.06L633.64,421.53z"/>
	<path clip-path="url(#SVGID_2_)" fill="#DDDDDD" d="M605.364,456.414c0,0-9.243,4.154-11.167,16.467l-2.034-9.531L605.364,456.414z
		"/>
	<path clip-path="url(#SVGID_2_)" fill="#5190B7" d="M599.829,326.051c0,0,3.876-6.152,15.156-2.843
		c-0.332,0.535,0.766,1.392,0.387,1.805c-4.572,4.971-13.217,3.491-15.359,3.07C599.951,327.405,599.89,326.728,599.829,326.051"/>
	<path clip-path="url(#SVGID_2_)" fill="#235368" d="M544.83,405.359c0.824-1.111,1.646-2.221,2.471-3.331
		c0.373-0.504,0.753-1.021,0.934-1.621c0.123-0.41,0.136-0.888-0.12-1.23c-0.242-0.326-0.684-0.459-1.087-0.418
		c-0.403,0.04-0.777,0.229-1.121,0.446c-1.307,0.824-2.294,2.059-3.223,3.293L544.83,405.359z"/>
	<path clip-path="url(#SVGID_2_)" fill="#99CCE0" d="M240.199,478.406c-4.537,0.619-9.844,2.714-9.295,6.587
		c0.168,1.181,0.888,2.27,1.932,3.138c0.917,0.765,1.905,1.478,2.953,2.133c4.702,2.938,5.057,8.393,0.855,11.809
		c-2.227,1.811-4.601,3.895-4.555,6.376c0.055,2.984,3.663,5.225,7.338,6.135c7.532,1.865,15.677-0.021,23.583-0.559
		c13.334-0.907,26.488,2.086,39.766,3.24c13.597,1.181,28.926-0.063,38.23-7.986c0.353-0.3,0.656-0.636,0.868-1.007
		c1.544-2.7-2.224-4.573-5.349-5.528c-1.409-0.43-2.822-0.853-4.238-1.269c-5.314-1.559-3.679-7.678,2.02-7.56
		c1.888,0.039,3.771,0.097,5.627,0.128c18.628,0.314,37.369-2.447,54.597-8.046c3.517-1.144,7.635-3.271,6.419-6.287
		c-0.245-0.609-0.695-1.158-1.263-1.621c-4.12-3.348-10.359-4.101-16.213-4.626C367.953,472.072,335.818,465.352,240.199,478.406"/>
	<path clip-path="url(#SVGID_2_)" fill="#5190B7" d="M643.719,364.62c-2.229,7.55-3.229,8.939-4.87,16.41
		c-1.229,5.59-1.27,9.12-1.62,14.899c-1,16.561-1.5,24.84-3.189,29.051c-5.44,13.5-19.049,21.029-31.4,27.859
		c-4.05,2.23-7.47,7.09-11.68,5.55c-26.86-9.83-47.78-7.22-51.93-8.229c8.68-16.99,23.619-23.11,35.26-38.26
		c0.479-0.601,0.939-1.23,1.39-1.87h0.01c0.091-0.13,0.19-0.261,0.28-0.4c0.26-0.37,0.521-0.74,0.771-1.12
		c1.698-2.52,3.309-5.29,4.789-8.37c1.529-3.18,2.92-6.689,4.14-10.62c0.35-1.13,0.571-2.3,0.7-3.47
		c0.371-3.34,0.04-6.74,0.08-9.649c0.01-1.011,0.06-1.971,0.21-2.83c-0.21,1.25-0.521,2.449-0.919,3.6
		c-1.312,3.94-3.541,7.41-5.842,11.01c-0.39,0.62-0.79,1.24-1.18,1.87c-3.33,5.311-7.88,10.01-13.52,12.74
		c-0.051,0.03-0.101,0.06-0.15,0.08c-0.77-0.69-1.63-1.44-2.54-2.23c-1.81-1.58-3.8-3.29-5.57-4.83
		c-0.68-0.59-1.319-1.159-1.909-1.68c0.26-0.25,0.52-0.51,0.77-0.76c0.22-0.22,0.441-0.44,0.65-0.66
		c8.369-8.59,14.649-19.28,15.449-31.22c0.2-2.98,0.141-5.99,0.641-8.94c1.189-7.05,5.74-13.46,12.01-16.91
		c2.35-1.279,4.9-2.18,7.23-3.479c2.739-1.53,5.14-3.61,7.8-5.26c2.661-1.66,5.779-2.9,8.89-2.48l5.74-0.04c0,0.01,0,0.01,0.01,0.01
		c1.19,1.45,2.74,2.52,4.41,3.42c0.861,0.48,1.77,0.9,2.65,1.32c4.619,2.16,9.35,4.16,13.55,7.05c0.239,0.16,0.479,0.33,0.72,0.5
		c3.9,2.851,7.28,6.561,8.83,11.101C646.229,353.18,645.329,359.14,643.719,364.62"/>
	<path clip-path="url(#SVGID_2_)" fill="#F59F18" d="M569.396,402.92c2.877,1.712,5.541,3.779,7.918,6.138
		c0.787,0.783,1.602,1.904,1.119,2.906c-0.334,0.693-1.203,0.994-1.967,0.896c-0.764-0.097-1.447-0.507-2.1-0.914
		c-3.262-2.036-6.405-4.26-9.413-6.653c1.331-0.89,2.662-1.777,3.992-2.666L569.396,402.92z"/>
	<path clip-path="url(#SVGID_2_)" fill="#8E8B5E" d="M557.448,394.72c-1.574-1.359-3.234-2.622-4.966-3.774
		c-0.108-0.073-0.23-0.148-0.36-0.128c-0.146,0.021-0.244,0.154-0.326,0.276c-0.603,0.894-1.204,1.786-1.805,2.68
		c1.753,1.489,3.652,2.806,5.663,3.923c0.659-0.968,1.318-1.936,1.978-2.903L557.448,394.72z"/>
	<path clip-path="url(#SVGID_2_)" fill="#595634" d="M538.577,383.657c-15.856-11.009-32.137-21.405-48.805-31.143
		c-16.005-9.352-32.314-18.37-49.356-25.707c-16.352-7.039-33.524-12.448-51.286-14.318c-15.147-1.594-30.661-0.298-45.209,4.299
		c-14.071,4.446-27.267,12.097-37.208,23.111c-1.242,1.376-2.425,2.802-3.559,4.268c-0.373,0.482,0.311,1.152,0.688,0.665
		c9.134-11.813,21.794-20.357,35.724-25.538c14.076-5.234,29.32-7.213,44.285-6.294c17.791,1.092,35.187,6.063,51.628,12.769
		c16.819,6.86,32.857,15.531,48.599,24.555c16.423,9.415,32.484,19.463,48.134,30.113c1.973,1.342,3.938,2.694,5.896,4.054
		C538.615,384.844,539.079,384.006,538.577,383.657"/>
	<path clip-path="url(#SVGID_2_)" fill="#595634" d="M470.033,341.91c-1.273,1.638-2.549,3.276-3.822,4.914
		c-0.159,0.204-0.189,0.484,0.011,0.677c0.17,0.164,0.517,0.193,0.677-0.012c1.274-1.638,2.548-3.276,3.823-4.914
		c0.158-0.204,0.188-0.482-0.011-0.676C470.539,341.734,470.192,341.705,470.033,341.91"/>
	<path clip-path="url(#SVGID_2_)" fill="#595634" d="M466.4,347.033c0.645,1.502,0.103,3.29-1.129,4.326
		c-0.292,0.246-0.635,0.447-0.996,0.573c-0.272,0.096-0.794,0.293-0.952-0.03c-0.148-0.302-0.059-0.73,0.025-1.037
		c0.14-0.508,0.33-1.014,0.569-1.481c0.481-0.942,1.42-1.939,2.589-1.753c0.255,0.041,0.515-0.077,0.583-0.344
		c0.06-0.232-0.087-0.542-0.344-0.583c-1.388-0.221-2.614,0.57-3.361,1.694c-0.372,0.561-0.624,1.196-0.837,1.833
		c-0.184,0.547-0.312,1.114-0.209,1.692c0.099,0.549,0.488,0.999,1.052,1.088c0.599,0.095,1.262-0.158,1.782-0.437
		c0.917-0.491,1.647-1.343,2.054-2.294c0.476-1.11,0.576-2.392,0.092-3.519c-0.102-0.236-0.324-0.402-0.594-0.323
		C466.5,346.505,466.299,346.794,466.4,347.033"/>
	<path clip-path="url(#SVGID_2_)" fill="#595634" d="M377.482,312.362c-0.917,1.178-1.833,2.356-2.75,3.534
		c-0.158,0.204-0.188,0.484,0.012,0.677c0.17,0.164,0.517,0.193,0.676-0.012c0.917-1.178,1.833-2.356,2.75-3.534
		c0.158-0.204,0.188-0.483-0.012-0.676C377.988,312.186,377.642,312.157,377.482,312.362"/>
	<path clip-path="url(#SVGID_2_)" fill="#595634" d="M374.837,316.178c0.237,0.552,0.254,1.047,0.102,1.602
		c-0.146,0.531-0.436,0.997-0.882,1.378c-0.038,0.033-0.038,0.033-0.103,0.079c-0.061,0.044-0.124,0.085-0.189,0.124
		c-0.16,0.096-0.22,0.124-0.365,0.174c-0.121,0.042-0.252,0.085-0.379,0.096c-0.015,0.001-0.058-0.002-0.084,0.001
		c0.02,0.021-0.048-0.021-0.058-0.034c0.006,0.054-0.049-0.204-0.032-0.093c-0.01-0.065-0.01-0.133-0.009-0.198
		c0.001-0.034,0.003-0.069,0.006-0.103c-0.006,0.067,0.002-0.017,0.003-0.026c0.013-0.084,0.032-0.167,0.054-0.249
		c0.097-0.354,0.23-0.706,0.397-1.033c0.322-0.631,0.957-1.316,1.711-1.196c0.255,0.041,0.514-0.077,0.583-0.344
		c0.059-0.232-0.088-0.542-0.344-0.582c-1.062-0.17-1.995,0.419-2.568,1.282c-0.274,0.413-0.458,0.883-0.616,1.35
		c-0.14,0.418-0.229,0.85-0.148,1.289c0.081,0.441,0.403,0.799,0.852,0.875c0.465,0.079,0.979-0.112,1.384-0.329
		c0.678-0.363,1.223-0.996,1.525-1.699c0.356-0.829,0.44-1.79,0.078-2.634c-0.102-0.237-0.325-0.403-0.594-0.324
		C374.936,315.65,374.734,315.938,374.837,316.178"/>
	<path clip-path="url(#SVGID_2_)" fill="#595634" d="M521.71,372.609c-1.434,1.854-2.543,3.938-3.977,5.789
		c-0.157,0.204-0.188,0.483,0.012,0.677c0.17,0.164,0.517,0.194,0.676-0.012c1.436-1.853,2.543-3.936,3.978-5.789
		c0.157-0.204,0.188-0.482-0.013-0.676C522.216,372.434,521.869,372.404,521.71,372.609"/>
	<path clip-path="url(#SVGID_2_)" fill="#595634" d="M517.908,378.621c0.607,1.416,0.098,3.1-1.063,4.077
		c-0.274,0.229-0.596,0.419-0.934,0.537c-0.268,0.093-0.745,0.257-0.875-0.016c-0.129-0.271-0.053-0.674,0.027-0.967
		c0.131-0.479,0.311-0.956,0.537-1.399c0.451-0.882,1.33-1.823,2.426-1.648c0.255,0.04,0.515-0.077,0.583-0.344
		c0.061-0.232-0.087-0.542-0.344-0.583c-1.326-0.212-2.499,0.542-3.214,1.617c-0.354,0.533-0.593,1.14-0.796,1.743
		c-0.177,0.523-0.297,1.066-0.197,1.619c0.095,0.528,0.471,0.961,1.015,1.048c0.572,0.091,1.209-0.149,1.707-0.417
		c0.873-0.467,1.569-1.277,1.957-2.183c0.452-1.06,0.55-2.281,0.089-3.355c-0.102-0.236-0.324-0.402-0.594-0.323
		C518.008,378.093,517.807,378.382,517.908,378.621"/>
	<path clip-path="url(#SVGID_2_)" fill="#CCA279" d="M555.781,400.174c-1.161,1.418-1.663,3.349-3.051,4.546
		c-0.506,0.435-1.104,0.749-1.635,1.152c-1.912,1.456-2.752,3.89-3.489,6.177c-0.264,0.813-0.528,1.668-0.376,2.508
		c0.152,0.841,0.876,1.644,1.727,1.572c-0.075,1.203,1.258,2.265,2.413,1.922c0.174,0.852,0.825,1.589,1.649,1.866
		c0.357,0.12,0.738,0.158,1.094,0.286c0.453,0.162,0.842,0.462,1.277,0.664c1.409,0.654,3.266,0.098,4.081-1.225
		c0.816-1.322-2.514-0.053-1.488-3.995c2.569-0.628,4.884-4.055,3.779-6.459c-0.131-0.287-0.297-0.573-0.309-0.888
		c-0.016-0.433,0.255-0.816,0.514-1.162c1.026-1.371,2.053-2.743,3.078-4.114c0.156-0.209,0.321-0.458,0.257-0.711
		c-0.061-0.238-0.301-0.378-0.519-0.492c-2.678-1.395-5.356-2.79-8.033-4.185L555.781,400.174z"/>
	<path clip-path="url(#SVGID_2_)" fill="#B58D6B" d="M555.313,410.423c-2.974,0.596-6.466,7.913,2.488,5.608
		c4.62-1.795,1.288-7.352,1.288-7.352S558.508,411.424,555.313,410.423"/>
	<path clip-path="url(#SVGID_2_)" fill="#2C3133" d="M554.502,400.757c-0.256,3.272,0.23,6.601,1.413,9.662
		c0.266,0.685,0.569,1.415,0.396,2.128c-0.099,0.405-0.342,0.757-0.603,1.082c-0.489,0.613-1.097,1.19-1.861,1.363
		c-0.611,0.138-1.254,0-1.836-0.232c-1.897-0.755-3.258-2.418-4.901-3.63c-0.121-0.089-0.251-0.179-0.401-0.196
		c-0.317-0.038-0.567,0.246-0.848,0.403c-0.771,0.432-1.707-0.147-2.367-0.735c-0.96-0.854-1.848-1.788-2.654-2.788
		c-0.409-0.302-0.818-0.644-1.016-1.111s-0.107-1.094,0.324-1.362c-0.64-0.389-0.813-1.372-0.342-1.955s1.469-0.622,1.983-0.078
		c0.359-0.947,1.536-1.493,2.492-1.156c0.789,0.278,1.311,1.017,1.978,1.523c0.672,0.513,1.493,0.787,2.211,1.233
		c0.718,0.447,1.369,1.167,1.347,2.012c-0.004,0.137-0.026,0.274-0.009,0.409c0.05,0.395,0.435,0.692,0.831,0.729
		c0.396,0.036,0.787-0.142,1.095-0.395c1.105-0.906,1.199-2.546,1.101-3.972c-0.099-1.428-0.264-2.989,0.548-4.167
		c0.294,0.383,0.667,0.704,1.089,0.937L554.502,400.757z"/>
	<path clip-path="url(#SVGID_2_)" fill="#235368" d="M552.695,409.201c0.618,0.322,0.833,1.229,0.426,1.794
		c-0.345,0.48-1.07,0.64-1.583,0.343c-0.511-0.298-0.729-1.015-0.465-1.544c0.265-0.528,0.979-0.782,1.514-0.532L552.695,409.201z"
		/>
	<path clip-path="url(#SVGID_2_)" fill="#6DA8C6" d="M544.692,403.258c-0.828,1.499-1.992,2.813-3.382,3.813L544.692,403.258z"/>
	<path clip-path="url(#SVGID_2_)" fill="#6DA8C6" d="M542.89,404.052c-0.408,0.435-0.874,0.816-1.381,1.131L542.89,404.052z"/>
	<path clip-path="url(#SVGID_2_)" fill="#CCA279" d="M607.308,378.448c-9.209,2.74-17.86,6.894-27.07,9.634
		c-3.48,1.035-4.569,1.702-8.134,2.396c-3.241,0.631-9.513-0.063-12.641,1.001c-1.805,0.613-3.521,1.456-5.233,2.297
		c-1.193,0.587-2.421,1.199-3.292,2.204s-1.3,2.516-0.677,3.69c0.624,1.176,2.509,1.571,3.316,0.514
		c-1.122,0.053-1.195,1.927-0.241,2.52c0.954,0.592,2.187,0.288,3.264-0.035c-0.469,0.725-0.299,1.79,0.371,2.332
		c0.67,0.543,1.748,0.487,2.358-0.121c-0.749,0.578-0.644,1.855,0.038,2.513c0.507,0.489,2.613-0.008,3.612-0.212
		c4.362-0.889,10.725-7.164,11.667-7.551c0.598-0.245,1.271-0.148,1.909-0.055c10.445,1.533,21.204,0.897,31.396-1.857
		c0.59-0.159,1.219-0.354,1.593-0.836c0.254-0.329,0.353-0.75,0.438-1.157c0.649-3.113,0.854-6.318,0.607-9.489
		c-0.112-1.45-0.551-2.857-1.256-4.129L607.308,378.448z"/>
	<path clip-path="url(#SVGID_2_)" fill="#CCA279" d="M547.768,413.974c1.2-0.566,2.398-1.131,3.599-1.697
		c0.773-0.364,1.623-0.734,2.455-0.76c0.64-0.021,1.144,0.56,1.007,1.184c-0.071,0.329-0.214,0.647-0.396,0.929
		c-0.378,0.575-0.916,1.023-1.446,1.463c1.137-1.108,2.578-2.308,4.12-1.932c0.159,0.039,0.324,0.103,0.42,0.235
		c0.206,0.286,0.046,0.969-0.176,1.243c-0.566,0.7-1.2,1.105-1.766,1.805c0.523-1.075,1.645-1.835,2.838-1.922
		c0.364-0.027,0.821,0.073,0.912,0.428c0.044,0.166-0.041,0.715-0.1,0.876c-0.299,0.824-0.67,1.235-1.159,1.962
		c0.237-0.356,0.47-0.923,0.865-1.087c0.396-0.164,1.095-0.212,1.383,0.106c0.186,0.204,0.233,0.824,0.152,1.088
		c-0.344,1.109-1.423,2.495-2.438,2.961s-1.491,0.087-2.553-0.261c-1.061-0.35-2.011-0.966-2.926-1.605
		c-1.042-0.727-2.058-1.494-3.043-2.296L547.768,413.974z"/>
	<path clip-path="url(#SVGID_2_)" fill="#235368" d="M541.725,407.678c1.242-1.566,2.612-3.026,4.096-4.365
		c0.2-0.182,0.174-0.531-0.013-0.71c-0.206-0.199-0.508-0.17-0.71,0.012c-1.482,1.339-2.853,2.799-4.095,4.365
		c-0.168,0.212-0.196,0.509,0.012,0.71C541.195,407.863,541.556,407.892,541.725,407.678"/>
	<path clip-path="url(#SVGID_2_)" fill="#235368" d="M542.882,408.81c1.391-1.269,2.69-2.634,3.889-4.084
		c0.172-0.21,0.193-0.512-0.012-0.71c-0.185-0.178-0.537-0.198-0.71,0.012c-1.198,1.452-2.498,2.815-3.89,4.084
		c-0.199,0.183-0.174,0.529,0.013,0.71C542.378,409.021,542.681,408.992,542.882,408.81"/>
	<path clip-path="url(#SVGID_2_)" fill="#235368" d="M543.908,409.948c1.303-1.516,2.716-2.933,4.228-4.239
		c0.205-0.178,0.171-0.533-0.012-0.71c-0.21-0.202-0.505-0.165-0.71,0.012c-1.513,1.307-2.925,2.724-4.228,4.24
		c-0.176,0.206-0.19,0.514,0.012,0.71C543.386,410.141,543.731,410.154,543.908,409.948"/>
	<path clip-path="url(#SVGID_2_)" fill="#235368" d="M544.863,410.886c1.592-1.184,2.965-2.615,4.078-4.259
		c0.152-0.224,0.031-0.559-0.191-0.684c-0.254-0.143-0.53-0.033-0.684,0.191c-1.011,1.491-2.278,2.817-3.724,3.894
		c-0.218,0.161-0.319,0.441-0.169,0.688C544.305,410.934,544.645,411.049,544.863,410.886"/>
	<path clip-path="url(#SVGID_2_)" fill="#235368" d="M546.344,403.452c-0.26-5.598-3.34-10.558-7.508-14.158
		c-4.739-4.093-10.743-6.283-16.671-8.023c-11.928-3.505-23.852-6.738-34.862-12.686c-5.396-2.914-10.502-6.397-14.97-10.613
		c-4.495-4.238-7.762-9.563-12.253-13.78c-4.574-4.297-10.525-6.381-16.462-8.038c-7.146-1.995-14.326-3.873-21.489-5.805
		c-7.154-1.93-14.309-3.86-21.464-5.79c-7.257-1.958-14.492-4.128-21.803-5.87c-1.384-0.33-2.791-0.545-4.212-0.343
		c-1.805,0.256-3.524,1.013-5.226,1.631c-3.562,1.295-7.125,2.59-10.687,3.885c-6.97,2.533-13.939,5.066-20.909,7.6
		c-7.125,2.589-14.249,5.179-21.374,7.77c-3.348,1.217-6.777,2.31-10.06,3.694c-2.26,0.954-4.488,2.348-5.23,4.832
		c-0.853,2.859,0.291,6.147,0.866,8.949c0.706,3.437,1.38,6.879,2.001,10.331c1.291,7.173,2.351,14.392,2.975,21.656
		c1.211,14.081,0.739,28.415-3.029,42.102c-3.267,11.864-8.774,25.694-3.514,37.912c1.012,2.352,2.428,4.468,4.244,6.272
		c0.46,0.456,1.157-0.267,0.698-0.723c-9.388-9.322-6.157-24.717-2.7-35.782c2.021-6.468,3.812-12.923,4.766-19.646
		c0.937-6.6,1.253-13.277,1.104-19.939c-0.306-13.681-2.507-27.249-5.209-40.638c-0.323-1.599-0.658-3.195-0.989-4.793
		c-0.364-1.76-0.782-3.681-0.24-5.452c0.94-3.075,4.47-4.132,7.166-5.111c6.815-2.478,13.63-4.954,20.445-7.432
		c13.629-4.954,27.259-9.908,40.888-14.862c1.626-0.591,3.285-1.303,5.041-1.339c1.764-0.037,3.499,0.537,5.182,0.991
		c3.577,0.965,7.155,1.93,10.732,2.895c7.075,1.909,14.15,3.818,21.225,5.726c6.996,1.888,13.991,3.775,20.987,5.662
		c6.299,1.699,12.935,3.036,18.854,5.859c2.847,1.358,5.4,3.138,7.615,5.388c2.151,2.185,3.986,4.65,5.919,7.022
		c3.678,4.514,7.954,8.44,12.715,11.788c9.58,6.737,20.656,11.058,31.798,14.445c11.271,3.427,25.28,5.398,32.038,16.293
		c1.531,2.468,2.463,5.229,2.598,8.136C545.369,404.113,546.373,404.099,546.344,403.452"/>
	<path clip-path="url(#SVGID_2_)" fill="#F59F18" d="M551.196,388.979c0.712,0.382,1.092,1.202,0.883,1.983
		c-0.185,0.694-0.532,1.341-1.04,1.847c-0.847,0.846-2.151,1.244-3.296,0.895c-0.729-0.224-1.342-0.716-1.934-1.198
		c-0.961-0.781-1.922-1.563-2.883-2.344c-1.028-0.836-2.057-1.672-3.084-2.508c-0.895-0.728-1.845-1.543-2.083-2.67
		c-0.013-0.056-0.021-0.112-0.028-0.171c-0.147-1.375,1.385-2.314,2.604-1.661L551.196,388.979z"/>
	<path clip-path="url(#SVGID_2_)" fill="#C47712" d="M539.247,386.388c0.817-0.452,1.429-1.308,1.571-2.234
		c0.021-0.138,0.018-0.265-0.057-0.386c-0.063-0.104-0.184-0.2-0.304-0.226c-0.244-0.052-0.569,0.083-0.611,0.361
		c-0.015,0.094-0.034,0.188-0.059,0.28c-0.014,0.051-0.028,0.101-0.045,0.15c-0.008,0.023-0.016,0.045-0.023,0.068
		c-0.007,0.018-0.04,0.099-0.007,0.02c0.033-0.08-0.001,0.001-0.009,0.02c-0.009,0.021-0.02,0.043-0.029,0.064
		c-0.021,0.043-0.042,0.086-0.065,0.128c-0.047,0.088-0.1,0.175-0.156,0.257c-0.014,0.021-0.028,0.039-0.041,0.059
		c-0.035,0.05,0.08-0.1,0.016-0.022c-0.031,0.037-0.06,0.074-0.092,0.11c-0.063,0.072-0.13,0.141-0.2,0.205
		c-0.035,0.033-0.073,0.062-0.108,0.095c0.114-0.108-0.012,0.007-0.047,0.033c-0.082,0.058-0.167,0.111-0.255,0.16
		c-0.229,0.127-0.314,0.47-0.169,0.688C538.713,386.453,539.001,386.524,539.247,386.388"/>
	<path clip-path="url(#SVGID_2_)" fill="#C47712" d="M540.485,386.795c1.657,1.688,3.456,3.225,5.368,4.613
		c0.221,0.159,0.563,0.025,0.685-0.191c0.146-0.26,0.028-0.524-0.192-0.685c-1.842-1.337-3.566-2.835-5.163-4.459
		C540.729,385.612,540.032,386.334,540.485,386.795"/>
	<path clip-path="url(#SVGID_2_)" fill="#C47712" d="M543.689,387.286c1.101,0.737,2.203,1.474,3.304,2.211
		c0.226,0.151,0.559,0.032,0.685-0.19c0.141-0.252,0.033-0.533-0.192-0.685c-1.101-0.737-2.203-1.474-3.304-2.211
		c-0.226-0.151-0.559-0.032-0.685,0.191C543.356,386.854,543.463,387.135,543.689,387.286"/>
	<path clip-path="url(#SVGID_2_)" fill="#C47712" d="M568.759,407.425c1.849,1.069,3.563,2.341,5.121,3.801
		c0.472,0.442,1.17-0.278,0.697-0.722c-1.617-1.515-3.407-2.845-5.326-3.954C568.69,406.226,568.2,407.102,568.759,407.425"/>
	<path clip-path="url(#SVGID_2_)" fill="#C47712" d="M572.538,407.645c0.865,0.763,1.73,1.526,2.596,2.29
		c0.197,0.173,0.524,0.197,0.71-0.012c0.173-0.196,0.198-0.524-0.012-0.71c-0.865-0.764-1.731-1.526-2.596-2.29
		c-0.197-0.173-0.524-0.197-0.71,0.012C572.352,407.131,572.328,407.46,572.538,407.645"/>
	<path clip-path="url(#SVGID_2_)" fill="#235368" d="M303.178,488.594c-1.188-0.317-2.776-0.472-3.373,0.895
		c-0.59,1.349,0.834,2.06,1.835,2.514c2.477,1.123,5.134,1.788,7.844,2c2.705,0.212,5.457-0.052,8.07-0.783
		c1.18-0.331,2.461-0.691,3.402-1.512c0.818-0.712,1.121-1.895,0.363-2.772c-0.859-0.995-2.447-0.979-3.641-1.099
		c-1.764-0.175-3.529-0.35-5.294-0.525c-0.642-0.063-0.62,0.941,0.017,1.004c1.303,0.129,2.606,0.259,3.91,0.389
		c1.112,0.109,2.307,0.108,3.388,0.42c0.756,0.217,1.437,0.839,0.813,1.608c-0.621,0.768-1.732,1.063-2.629,1.343
		c-4.301,1.34-8.988,1.316-13.288-0.016c-1.173-0.363-2.44-0.791-3.49-1.44c-0.461-0.285-0.582-0.706-0.105-1.066
		c0.539-0.405,1.346-0.141,1.927,0.014C303.553,489.732,303.802,488.76,303.178,488.594"/>
	<path clip-path="url(#SVGID_2_)" fill="#235368" d="M311.879,485.4c3.207-0.269,6.504-0.162,9.66,0.505
		c2.496,0.527,5.229,1.657,6.203,4.225c0.484,1.273,0.487,2.684-0.298,3.836c-0.365,0.535,0.513,1.021,0.875,0.492
		c1.572-2.309,0.553-5.516-1.427-7.229c-2.397-2.074-5.784-2.556-8.829-2.825c-2.063-0.183-4.138-0.181-6.201-0.008
		C311.222,484.45,311.234,485.455,311.879,485.4"/>
	<path clip-path="url(#SVGID_2_)" fill="#235368" d="M296.101,495.438c3.89,2.45,8.707,3.228,13.176,2.167
		c0.628-0.149,0.345-1.112-0.283-0.963c-4.215,1-8.74,0.227-12.401-2.079C296.045,494.218,295.556,495.096,296.101,495.438"/>
	<path clip-path="url(#SVGID_2_)" fill="#235368" d="M287.879,497.454c3.55,2.488,7.732,3.966,12.051,4.309
		c0.643,0.051,0.622-0.953-0.017-1.004c-4.143-0.329-8.142-1.796-11.542-4.18C287.842,496.207,287.355,497.086,287.879,497.454"/>
	<path clip-path="url(#SVGID_2_)" fill="#235368" d="M354.304,485.479c4.883,1.48,10.118,1.677,15.105,0.605
		c1.419-0.307,2.812-0.72,4.171-1.23c0.6-0.225,0.324-1.191-0.283-0.963c-5.986,2.25-12.623,2.471-18.742,0.616
		C353.935,484.318,353.687,485.291,354.304,485.479"/>
	<path clip-path="url(#SVGID_2_)" fill="#235368" d="M368.09,480.836c3.899-0.857,7.798-1.716,11.697-2.573
		c0.631-0.139,0.347-1.103-0.283-0.964c-3.899,0.858-7.798,1.717-11.697,2.574C367.177,480.012,367.46,480.975,368.09,480.836"/>
	<path clip-path="url(#SVGID_2_)" fill="#235368" d="M249.4,503.641c-0.733-0.469-1.515,0.043-1.887,0.712
		c-0.407,0.733-0.363,1.563-0.124,2.344c0.475,1.553,1.73,2.791,3.226,3.378c0.861,0.338,1.78,0.417,2.687,0.248
		c0.267-0.051,0.411-0.383,0.34-0.623c-0.082-0.282-0.356-0.391-0.623-0.34c-1.493,0.277-3.067-0.479-3.982-1.649
		c-0.45-0.577-0.775-1.289-0.83-2.024c-0.026-0.343,0.056-0.686,0.259-0.969c0.067-0.094,0.151-0.191,0.257-0.243
		c0.06-0.028,0.081-0.023,0.185,0.042C249.455,504.865,249.942,503.988,249.4,503.641"/>
	<path clip-path="url(#SVGID_2_)" fill="#235368" d="M249.485,491.27c1.751,1.473,2.248,4.146,1.105,6.138
		c-0.323,0.563,0.553,1.053,0.875,0.492c1.354-2.358,0.805-5.596-1.282-7.353C249.69,490.133,248.99,490.853,249.485,491.27"/>
	<path clip-path="url(#SVGID_2_)" fill="#235368" d="M253.496,489.587c1.437,1.273,2.267,3.117,2.26,5.038
		c-0.002,0.646,1.001,0.63,1.004-0.018c0.007-2.17-0.942-4.302-2.566-5.743C253.711,488.437,253.011,489.156,253.496,489.587"/>
	<path clip-path="url(#SVGID_2_)" fill="#4080A0" d="M586.619,376.03l-0.17,0.37c0.01-1.011,0.061-1.971,0.21-2.83
		c-0.21,1.25-0.52,2.449-0.92,3.6c0.55-3.87,0.81-11.16,1.29-17.47C587.029,359.7,588.47,370.82,586.619,376.03"/>
	<path clip-path="url(#SVGID_2_)" fill="#987957" d="M553.023,400.957c1.111-0.407,2.159-0.971,3.104-1.684
		c0.137-0.105,0.203-0.282,0.107-0.441c-0.083-0.136-0.302-0.212-0.44-0.106c-0.9,0.68-1.893,1.229-2.953,1.616
		c-0.162,0.06-0.268,0.225-0.217,0.398C552.671,400.898,552.86,401.018,553.023,400.957"/>
	<path clip-path="url(#SVGID_2_)" fill="#987957" d="M554.948,403.406c1.551-0.301,2.99-1.052,4.138-2.134
		c0.302-0.284-0.159-0.728-0.459-0.446c-1.072,1.011-2.416,1.686-3.859,1.965c-0.17,0.033-0.262,0.243-0.217,0.398
		C554.604,403.368,554.777,403.439,554.948,403.406"/>
	<path clip-path="url(#SVGID_2_)" fill="#987957" d="M559.806,405.092c1.248-0.319,2.393-0.991,3.285-1.92
		c0.286-0.298-0.175-0.744-0.461-0.445c-0.819,0.853-1.859,1.457-3.006,1.751C559.226,404.579,559.405,405.195,559.806,405.092"/>
	<path clip-path="url(#SVGID_2_)" fill="#4080A0" d="M625.727,350.261c0,0-9.365,26.269-53.413,38.785l3.386,11.327
		c0,0,51.018,8.696,68.017-35.755C650.121,344.476,638.246,333.866,625.727,350.261"/>
	<path clip-path="url(#SVGID_2_)" fill="#BC956B" d="M606.433,330.83c-0.664,3.213-1.896,8.183-2.835,8.383
		c-0.561,0.12-1.446-5.702-2.018-6.723c-0.07-0.125-0.141-1.76-0.37-4.121c-0.16-1.66-0.35-3.1-0.569-3.22
		c-0.15-0.08-0.301-0.15-0.451-0.21c-0.1-0.04-0.189-0.08-0.289-0.11c-0.08-0.03-0.16-0.06-0.24-0.09c-0.17-0.05-0.34-0.1-0.52-0.14
		c-0.171-0.04-0.352-0.08-0.53-0.11c3.38-1.44,9.24-3.79,14.729-5.25c-0.04,0.05-0.07,0.11-0.1,0.16c-0.36,0.64-0.23,1.7,0.11,2.84
		c0.629,2.1,1.949,4.5,2.149,5.32C616.01,329.59,606.914,328.5,606.433,330.83"/>
	<path clip-path="url(#SVGID_2_)" fill="#987957" d="M613.35,322.24c-0.384,0.796-1.83,3.548-5.161,5.11
		c-3.229,1.515-6.174,0.948-7.053,0.745c-0.131-0.829-0.174-1.464-0.188-1.912c-0.011-0.325-0.004-0.871-0.308-1.033
		c-0.15-0.08-0.3-0.15-0.45-0.21c-0.09-0.04-0.189-0.08-0.29-0.11c-0.08-0.03-0.16-0.06-0.239-0.09
		c-0.171-0.06-0.341-0.1-0.521-0.14c-0.17-0.05-0.35-0.08-0.53-0.11c3.38-1.44,9.24-3.79,14.73-5.25
		c-0.04,0.05-0.07,0.11-0.101,0.16C612.88,320.04,613.01,321.1,613.35,322.24"/>
	<path clip-path="url(#SVGID_2_)" fill="#111010" d="M621.777,312.444c-0.225,0.734-0.676,1.882-1.616,3.03
		c-1.254,1.531-2.716,2.258-3.485,2.576c0.593-0.807,1.221-1.765,1.818-2.879c0.729-1.358,1.246-2.633,1.617-3.737
		C620.666,311.771,621.221,312.107,621.777,312.444"/>
	<path clip-path="url(#SVGID_2_)" fill="#BC956B" d="M608.811,326.17c-0.872,0.474-2.614,1.254-4.777,1.045
		c-1.488-0.143-3.049-0.759-5.033-2.417c-4.501-3.76-6.394-8.882-7.906-13.125c-0.458-1.285-1.588-4.613-2.309-9.127
		c-0.866-5.415-0.826-7.778-0.873-9.997c-0.012-0.537,0.59-3.657,0.941-4.073c4.772-5.65,19.856-2.536,19.859-2.52
		c0,0.001-0.04,0.009-0.086,0.017c1.252,0.225,4.719-1.24,6.257-0.672c1.863,0.687,1.838,3.506,3.759,4.969
		C629.879,297.392,619.414,320.818,608.811,326.17"/>
	<path clip-path="url(#SVGID_2_)" fill="#111010" d="M620.077,308.74c1.143-1.403,2.288-2.817,3.434-4.242
		c0.787-0.978,1.569-1.954,2.347-2.929c1.168-1.463,1.965-3.206,2.186-5.065c0.02-0.16,0.035-0.324,0.047-0.49
		c0.118-1.663-0.204-2.897-0.606-4.444c-0.615-2.369-1.493-4.012-2.02-4.983c-1.16-2.139-2.111-3.133-2.56-3.569
		c-1.441-1.403-2.306-1.537-2.761-1.549c-0.737-0.018-1.333,0.264-1.683,0.472c-0.373-0.964-1.221-2.759-3.03-4.31
		c-2.114-1.811-4.345-2.264-5.185-2.424c-2.558-0.486-5.408,0.462-11.11,2.357c-2.68,0.891-3.959,1.449-5.32,2.424
		c-2.493,1.788-3.348,3.604-3.567,4.108c-0.293,0.668-0.45,1.261-0.539,1.683c-0.678,0.501-1.741,1.425-2.56,2.895
		c-1.109,1.997-1.14,3.871-1.144,4.916c-0.004,0.947,0.102,2.051,1.548,6.464c0.437,1.33,1.04,3.102,1.818,5.185
		c-0.815-3.017-0.652-5.275-0.336-6.801c0.243-1.184,0.539-1.731,1.01-4.04c0.411-2.018,0.545-3.362,0.605-4.242
		c0.066-0.955,0.074-1.762,0.067-2.357c0.802,0.356,2.053,0.84,3.636,1.145c3.016,0.58,5.432,0.163,12.322-1.414
		c2.741-0.628,5.148-1.201,7.138-1.684c-0.37,1.236-1.29,4.891,0.202,9.158c1.583,4.528,4.873,6.857,5.925,7.541
		C619.986,304.61,620.031,306.675,620.077,308.74"/>
	<path clip-path="url(#SVGID_2_)" fill="#484443" d="M595.617,283.111c0.582-0.018,1.215-0.067,1.89-0.164
		c1.311-0.187,2.446-0.504,3.379-0.838c-0.506,0.742-1.272,1.683-2.39,2.559c-0.605,0.474-1.194,0.835-1.717,1.111
		c1.789,0.138,4.096,0.149,6.732-0.27c2.261-0.359,4.177-0.94,5.69-1.515c-1.579,1.048-4.816,2.89-9.326,3.367
		c-3.871,0.409-6.98-0.367-8.72-0.943c1.227-0.257,2.678-0.669,4.242-1.346c0.966-0.418,1.818-0.87,2.559-1.313
		c-0.522,0.156-1.464,0.362-2.626,0.202c-1.028-0.142-1.802-0.513-2.256-0.775C593.923,283.162,594.771,283.137,595.617,283.111"/>
	<path clip-path="url(#SVGID_2_)" fill="#484443" d="M616.929,289.213c-0.053,1.114,0.007,2.817,0.657,4.747
		c0.976,2.899,2.749,4.718,3.686,5.555c-0.632-0.237-2.75-1.124-4.04-3.434C615.442,292.875,616.755,289.625,616.929,289.213"/>
	<path clip-path="url(#SVGID_2_)" fill="#484443" d="M619.454,293.152c0.333,0.821,0.84,1.849,1.616,2.929
		c0.886,1.233,1.828,2.122,2.574,2.727c-0.475-0.094-1.801-0.422-2.878-1.616C619.271,295.534,619.422,293.502,619.454,293.152"/>
	<path clip-path="url(#SVGID_2_)" fill="#484443" d="M588.935,292.647c0.035,0.367,0.065,0.976-0.034,1.717
		c-0.146,1.089-0.452,1.546-0.605,2.626c-0.06,0.417-0.115,1.062-0.033,1.885c-0.04-1.092-0.071-2.14-0.102-3.265
		c-0.016-0.564-0.026-1.181,0.235-1.919C588.56,293.229,588.773,292.878,588.935,292.647"/>
	<path clip-path="url(#SVGID_2_)" fill="#BC956B" d="M620.055,311.773c0.36,0.436,0.955,0.583,1.278,0.663
		c1.169,0.288,2.15-0.2,2.415-0.332c0.918-0.457,1.587-1.699,2.888-4.166c0.372-0.706,0.737-1.56,1.468-3.267
		c0.451-1.055,0.68-1.641,0.521-2.367c-0.025-0.111-0.289-1.245-1.09-1.515c-0.875-0.297-1.87,0.617-3.125,1.799
		c-0.877,0.826-1.884,1.79-2.888,3.503C620.773,307.369,618.966,310.454,620.055,311.773"/>
	<path clip-path="url(#SVGID_2_)" fill="#FFFFFF" d="M595.753,307.514c-0.532-0.01-1.067,0.047-1.581,0.093
		c-0.372,0.053-0.748,0.103-1.118,0.183l-0.003-0.003c-2.396-0.469-3.067-2.799-3.067-2.799c0.112-0.03,0.463-0.066,0.952-0.106
		c0.158-0.013,0.336-0.027,0.525-0.04c1.062-0.08,2.492-0.16,3.666-0.22c0.17-0.01,0.337-0.016,0.496-0.026
		c0.936-0.05,1.611-0.083,1.611-0.083S597.653,306.646,595.753,307.514"/>
	<path clip-path="url(#SVGID_2_)" fill="#3F2E20" d="M595.161,304.968c0,0.017,0,0.03-0.003,0.047
		c-0.024,1.061-0.966,1.873-2.117,1.826c-0.109-0.006-0.213-0.02-0.319-0.04c-0.02-0.003-0.037-0.006-0.053-0.01
		c-0.01-0.003-0.015-0.003-0.027-0.003l-0.143-0.04c-0.869-0.249-1.518-0.998-1.564-1.867c0.16-0.013,0.336-0.026,0.526-0.039
		c1.061-0.08,2.492-0.16,3.667-0.22c0.016,0.093,0.03,0.183,0.03,0.273C595.161,304.921,595.161,304.941,595.161,304.968"/>
	<path clip-path="url(#SVGID_2_)" fill="#FFFFFF" d="M610.035,303.78c0,0-0.35,2.402-2.659,3.188
		c-0.003-0.004-0.003-0.004-0.006,0.003c-0.376-0.03-0.753-0.03-1.128-0.03c-0.52,0.023-1.056,0.04-1.584,0.12
		c-1.997-0.602-1.87-2.772-1.87-2.772s0.416-0.037,1.048-0.09c0.173-0.016,0.358-0.03,0.559-0.046
		c1.071-0.094,2.482-0.207,3.633-0.283c0.185-0.013,0.36-0.023,0.526-0.033C609.315,303.787,609.882,303.763,610.035,303.78"/>
	<path clip-path="url(#SVGID_2_)" fill="#3F2E20" d="M608.028,303.87c0.069,0.865-0.472,1.697-1.301,2.066l-0.137,0.06
		c-0.014,0-0.017,0-0.026,0.004c-0.018,0.006-0.03,0.013-0.051,0.02c-0.103,0.033-0.205,0.059-0.313,0.079
		c-1.134,0.203-2.176-0.475-2.342-1.524c-0.007-0.013-0.007-0.03-0.007-0.046c-0.008-0.023-0.011-0.043-0.011-0.07
		c-0.013-0.09-0.01-0.173-0.007-0.26c0.173-0.016,0.36-0.03,0.56-0.046C605.466,304.06,606.877,303.947,608.028,303.87"/>
	<path clip-path="url(#SVGID_2_)" d="M600.877,316.853c-1.656,0.787-3.614,0.986-5.349,0.54c0.875,0.018,1.738-0.112,2.526-0.373
		c0.79-0.26,1.505-0.652,2.104-1.131c0.276-0.221,0.694-0.205,0.935,0.036C601.383,316.205,601.269,316.684,600.877,316.853"/>
	<path clip-path="url(#SVGID_2_)" fill="#987957" d="M599.199,302.884c-0.284,1.91-0.754,3.795-1.365,5.627
		c-0.376,1.157-1.032,2.368-0.582,3.568c0.413,1.139,1.608,1.954,2.838,1.859c0.62-0.029,1.232-0.264,1.765-0.622
		c-0.473,0.439-1.087,0.732-1.743,0.84c-2.155,0.328-4.005-1.885-3.319-3.95C597.635,307.757,598.514,305.383,599.199,302.884"/>
	<path clip-path="url(#SVGID_2_)" fill="#652B28" d="M597.31,319.004c-0.056,0.224,2.431,1.284,5.382,1.075
		c1.883-0.133,3.065-0.72,3.33-0.856c1.567-0.803,2.663-2.076,2.523-2.24c-0.147-0.174-1.493,1.078-3.643,1.822
		C600.941,320.175,597.377,318.737,597.31,319.004"/>
	<path clip-path="url(#SVGID_2_)" fill="#987957" d="M605.689,321.179c-0.815,0.493-1.612,0.642-2.112,0.687
		c-1.195,0.107-2.124-0.25-2.554-0.448c0.8,0.068,1.848,0.078,3.049-0.127c0.923-0.157,1.71-0.402,2.338-0.646
		C606.244,320.794,606.004,320.989,605.689,321.179"/>
	<path clip-path="url(#SVGID_2_)" d="M603.966,315.374c1.702,1.061,4.096,1.967,6.206,1.843c-2.113,0.577-4.794,0.062-6.984-0.743
		C602.047,316.016,602.918,314.779,603.966,315.374"/>
	<path clip-path="url(#SVGID_2_)" fill="#111010" d="M601.149,296.52l0.538,3.832c0,0,8.632-3.129,10.885,2.553
		c0.002-0.62-0.07-1.632-0.518-2.771c-0.263-0.667-0.796-1.795-1.979-2.805c-1.079-0.921-3.247-1.185-3.846-1.214
		C604.298,296.213,603.286,296.25,601.149,296.52"/>
	<path clip-path="url(#SVGID_2_)" fill="#111010" d="M597.381,297.159v3.318c0,0-6.765-2.395-8.181,1.922
		c-0.055-0.459-0.082-1.184,0.143-2.017c0.615-2.277,2.56-3.312,2.757-3.413C594.673,295.654,597.197,297.053,597.381,297.159"/>
	<path clip-path="url(#SVGID_2_)" fill="#5190B7" d="M618,327.473c-3.089,4.183-3.682,6.109-10.285,10.929
		c1.006-3.055-1.684-5.938-1.256-7.776c5.082-2.265,7.176-5.608,8.526-7.418C616.162,324.588,617.321,325.546,618,327.473"/>
	<path clip-path="url(#SVGID_2_)" fill="#5190B7" d="M600.773,329.62l-4.229,7.84c0,0,1.723-5.528,1.891-8.382l1.394-3.064
		C599.828,326.014,600.741,327.703,600.773,329.62"/>
	<path clip-path="url(#SVGID_2_)" fill="#4C6580" d="M618,327.473c-1.305,2.181-2.501,4.428-4.218,6.334
		c-2.022,2.298-4.506,4.072-6.979,5.797l0.478-1.346c0.404-1.141,0.245-2.431-0.123-3.689c-0.31-1.258-1.036-2.614-0.698-3.943
		c-0.046,1.372,0.831,2.487,1.283,3.743c0.539,1.292,0.836,2.782,0.407,4.177l-0.704-0.514c1.984-1.527,3.951-3.068,5.685-4.829
		C614.888,331.428,616.307,329.322,618,327.473"/>
	<path clip-path="url(#SVGID_2_)" fill="#4C6580" d="M600.773,329.227c-1.351,2.928-2.987,5.781-4.523,8.616l0.474-1.888
		c0.85-3.306,1.652-6.661,3.106-9.764c-1.077,3.235-1.824,6.566-2.621,9.877l-0.459-0.178
		C598.039,333.637,599.327,331.387,600.773,329.227"/>
	<path clip-path="url(#SVGID_2_)" fill="#4C6580" d="M599.321,360c0.938,0.011,1.877,0.046,2.814,0.076l-0.141,0.114
		c1.102-9.782,2.512-19.531,4.42-29.19c-0.22,2.454-0.502,4.9-0.805,7.341c-0.916,7.325-2.016,14.626-3.353,21.888l-0.023,0.127
		C601.263,360.241,600.291,360.133,599.321,360"/>
	<path clip-path="url(#SVGID_2_)" fill="#DDDDDD" d="M570.985,456.101c0,0-6.352,4.054-6.777,11.728l-2.511-9.911L570.985,456.101z"
		/>
	<path clip-path="url(#SVGID_2_)" fill="#235368" d="M309.778,490.782c-0.019,0-0.039,0-0.058-0.002
		c-0.29-0.027-0.504-0.284-0.477-0.575c0.304-3.272,0.084-8.122-2.685-12.641c-0.581-0.947-1.258-1.852-2.013-2.687
		c-0.195-0.217-0.178-0.55,0.038-0.746c0.215-0.194,0.55-0.179,0.745,0.038c0.798,0.883,1.515,1.84,2.13,2.844
		c2.921,4.766,3.154,9.857,2.836,13.289C310.269,490.574,310.044,490.778,309.778,490.782"/>
	<path clip-path="url(#SVGID_2_)" fill="#4C6580" d="M600.663,329.374c0.01,1.843,0.398,3.422,1.372,4.997
		C600.506,333.306,599.941,331.069,600.663,329.374"/>
</g>
<g>
	<defs>
		<rect id="SVGID_3_" x="-74" y="-169" width="1000" height="1000"/>
	</defs>
	<clipPath id="SVGID_4_">
		<use xlink:href="#SVGID_3_"  overflow="visible"/>
	</clipPath>
	<g clip-path="url(#SVGID_4_)">
		<defs>
			<path id="SVGID_5_" d="M1826.826,525.046c27.052-73.613,1.061-153.266,1.061-153.266c-1.093-4.711-2.017-8.196-2.281-9.199
				c-7.148-27.107-28.697-93.682-85.474-143.12c-23.139-20.149-50.214-36.897-66.888-62.653
				c-17.071-26.369-21.044-58.76-27.271-89.549c-6.226-30.79-16.528-63.211-41.499-82.271c-26.52-20.242-64.662-20.228-95.104-6.578
				c-30.443,13.65-54.2,38.937-73.563,66.107c-19.495,27.36-38.68,59.727-71.251,67.962
				c-47.858,12.103-92.965-35.385-142.219-32.067c-42.587,2.869-74.001,44.013-82.675,85.806
				c-8.673,41.792-0.599,84.95,2.677,127.507c3.276,42.557,0.604,88.714-25.539,122.455c-25.459,32.861-45.492,34.944-56.104,65.71
				c-13.583,39.38,9.267,80.473,16.306,93.13c49.235,88.541,185.668,106.476,242.15,113.129
				C1552.01,715.574,1788.505,629.323,1826.826,525.046"/>
		</defs>
		<clipPath id="SVGID_6_">
			<use xlink:href="#SVGID_5_"  overflow="visible"/>
		</clipPath>
		<path clip-path="url(#SVGID_6_)" fill="#99CCE0" d="M2060.718,479.479c-23.266,22.68-50.616,41.065-79.487,54.299
			c-0.293,0.614-0.586,1.2-0.881,1.814c-7.257,15.183-15.101,30.018-23.479,44.427c-12.994,22.439-27.269,43.892-42.718,64.304
			c-46.375,7.792-94.829,8.325-141.977,8.538c-286.891,1.229-573.779,2.509-860.642,3.763
			c-29.351-36.929-54.831-77.433-75.698-121.031c-0.293-0.587-0.586-1.2-0.879-1.814c-0.774-0.24-1.548-0.507-2.349-0.801
			c-5.177-1.787-11.073-4.029-17.53-6.883c4.295-9.74,11.18-18.358,20.038-24.282c18.784-12.62,45.28-12.513,63.958,0.268
			c-3.282-17.45,9.311-36.368,26.682-40.051c17.371-3.709,36.582,8.458,40.664,25.748c12.968-31.138,47.202-52.003,80.821-49.282
			c33.62,2.749,64.037,28.87,71.802,61.717c-4.99-37.328,26.95-74.924,64.52-77.3c37.595-2.374,73.536,29.646,76.791,67.16
			c10.912-27.643,36.581-48.962,65.771-54.565c29.189-5.629,60.97,4.644,81.355,26.256c7.07-31.378,34.073-57.34,65.719-63.185
			c31.645-5.843,66.118,8.779,83.941,35.568c11.555-34.154,47.229-58.541,83.25-56.887c36.021,1.653,69.293,29.19,77.698,64.251
			c20.226-25.588,54.833-38.956,87.012-33.646c32.18,5.311,60.622,29.11,71.563,59.849c14.996-21.026,40.904-33.779,66.706-32.819
			c25.802,0.987,50.695,15.609,64.064,37.702C2023.976,462.696,2045.91,466.992,2060.718,479.479"/>
	</g>
	<path clip-path="url(#SVGID_4_)" fill="#4C6580" d="M601.459,356.726c-0.056,0.314-0.32,0.529-0.591,0.481
		c-0.271-0.049-0.444-0.342-0.388-0.656c0.056-0.313,0.32-0.529,0.591-0.48C601.342,356.118,601.516,356.412,601.459,356.726"/>
	<path clip-path="url(#SVGID_4_)" fill="#4C6580" d="M602.331,351.109c-0.056,0.313-0.32,0.528-0.591,0.48
		c-0.271-0.049-0.443-0.342-0.388-0.656c0.057-0.313,0.321-0.529,0.591-0.48C602.215,350.501,602.388,350.795,602.331,351.109"/>
	<path clip-path="url(#SVGID_4_)" fill="#4C6580" d="M602.938,346.332c-0.056,0.313-0.32,0.528-0.591,0.48
		c-0.271-0.049-0.443-0.342-0.388-0.655c0.057-0.314,0.321-0.53,0.591-0.481C602.821,345.724,602.994,346.018,602.938,346.332"/>
	<path clip-path="url(#SVGID_4_)" fill="#4C6580" d="M603.952,342.065c-0.056,0.314-0.321,0.529-0.591,0.481
		c-0.271-0.05-0.444-0.343-0.388-0.656c0.056-0.314,0.32-0.53,0.591-0.481C603.835,341.457,604.008,341.751,603.952,342.065"/>
	<path clip-path="url(#SVGID_4_)" fill="#4C6580" d="M601.841,336.097c0.02,0.32-0.187,0.593-0.463,0.61
		c-0.275,0.018-0.515-0.229-0.534-0.549c-0.02-0.319,0.188-0.593,0.462-0.609C601.582,335.531,601.82,335.776,601.841,336.097"/>
</g>
</svg>
