<?xml version="1.0" encoding="utf-8"?>
<!-- Generator: Adobe Illustrator 16.0.0, SVG Export Plug-In . SVG Version: 6.00 Build 0)  -->
<!DOCTYPE svg PUBLIC "-//W3C//DTD SVG 1.1//EN" "http://www.w3.org/Graphics/SVG/1.1/DTD/svg11.dtd">
<svg version="1.1" id="Layer_1" xmlns="http://www.w3.org/2000/svg" xmlns:xlink="http://www.w3.org/1999/xlink" x="0px" y="0px"
	 width="1000px" height="1000px" viewBox="0 0 1000 1000" enable-background="new 0 0 1000 1000" xml:space="preserve">
<g>
	<defs>
		<rect id="SVGID_1_" width="1000" height="1000"/>
	</defs>
	<clipPath id="SVGID_2_">
		<use xlink:href="#SVGID_1_"  overflow="visible"/>
	</clipPath>
	<g clip-path="url(#SVGID_2_)">
		<defs>
			<path id="SVGID_3_" d="M269.96,431.45C252.44,525.93,164.79,447.84,72.8,535.44c-30.714,29.249-33.194,79.779-26.75,110.09
				c19.121,89.942,145.911,129.241,228.755,153.796c303.411,89.928,569.686-10.115,613.302-78.709
				c6.646-10.453,23.281-36.617,13.181-55.974c-9.202-17.633-35.785-20.4-45.158-20.993c-65.149,7.439,37.17-82.681,15.33-187.76
				c-21.83-105.08-142.61-49.58-213.22-42.16c-70.61,7.41-54.721-91.72-198.54-126.74c-14.592-3.553-28.309-5.208-41.2-5.206
				C332.424,281.794,284.015,355.669,269.96,431.45"/>
		</defs>
		<clipPath id="SVGID_4_">
			<use xlink:href="#SVGID_3_"  overflow="visible"/>
		</clipPath>
		<path clip-path="url(#SVGID_4_)" fill="#E3F4FF" d="M913.27,748.71c-4.21,15.81-11.46,30.4-21.09,43.15
			c-23.319,30.87-60.56,50.89-102.279,50.89H279.84c-52.07,0-100.92-16.87-140.58-45.85c-17.09-12.5-32.479-27.24-45.68-43.851
			c-24.14-30.38-40.96-67-47.53-107.52c-6.87-42.44-2-82.71,26.75-110.09c91.99-87.601,179.64-9.511,197.16-103.99
			c16.16-87.13,77.71-171.74,189.74-144.46c143.819,35.02,127.93,134.15,198.54,126.74c70.609-7.42,191.39-62.92,213.22,42.16
			c21.84,105.08-80.479,195.2-15.33,187.76c45.22,5.14,60.21,34.42,61.28,69.02C917.8,725.15,916.34,737.25,913.27,748.71"/>
		<path clip-path="url(#SVGID_4_)" fill="#BDDEEF" d="M1095.133,648.97c0,0-17.255,78.901-31.755,111.994
			c-35.112,80.121-91.184,132.083-154,132.083H141.396c-78.401,0-151.953-43.786-211.668-119.003
			c-25.732-32.442-68.779-113.811-68.779-113.811L1095.133,648.97z"/>
		<path clip-path="url(#SVGID_4_)" fill="#42210B" d="M532.311,549.241h-80.405c-10.173,0-18.419-8.246-18.419-18.419V427.066
			c0-10.173,8.246-18.419,18.419-18.419h80.405c10.174,0,18.419,8.246,18.419,18.419v103.756
			C550.729,540.995,542.484,549.241,532.311,549.241"/>
		<path clip-path="url(#SVGID_4_)" fill="#603813" d="M539.339,549.657h-80.405c-10.173,0-18.419-8.246-18.419-18.419V427.482
			c0-10.173,8.246-18.419,18.419-18.419h80.405c10.173,0,18.419,8.246,18.419,18.419v103.756
			C557.758,541.411,549.512,549.657,539.339,549.657"/>
		<path clip-path="url(#SVGID_4_)" fill="#F2C9A0" d="M519.547,467.408c0,6.611-9.823,11.97-21.944,11.97
			c-12.121,0-21.47-4.349-21.47-10.96c0-3.866,5.93-7.222,11.887-9.141v-19.805h19.158v19.805
			C513.143,461.196,519.547,463.542,519.547,467.408"/>
		<path clip-path="url(#SVGID_4_)" fill="#DBAC89" d="M507.179,439.472v17.122c-1.962,0.804-5.734,2.041-10.543,1.68
			c-3.863-0.29-6.839-1.494-8.615-2.382v-16.42H507.179z"/>
		<path clip-path="url(#SVGID_4_)" fill="#D3D3D3" d="M497.846,537.898c0,0-28.503-57.303-24.193-69.266
			c1.383-5.123,9.861-8.178,9.861-8.178s6.584,3.647,14.365,3.647c7.782,0,14.366-3.647,14.366-3.647s7.737,5.1,9.101,10.136
			C525.656,482.553,497.846,537.898,497.846,537.898"/>
		<polygon clip-path="url(#SVGID_4_)" fill="#FFFFFF" points="508.02,456.233 497.879,464.1 504.639,474.589 512.244,460.451 		"/>
		<polygon clip-path="url(#SVGID_4_)" fill="#FFFFFF" points="487.739,456.233 497.879,464.1 491.119,474.589 483.514,460.451 		"/>
		<path clip-path="url(#SVGID_4_)" fill="#E4C77B" d="M500.125,558.906c0,1.24-1.006,2.246-2.247,2.246
			c-1.24,0-2.246-1.006-2.246-2.246s1.006-2.246,2.246-2.246C499.119,556.66,500.125,557.666,500.125,558.906"/>
		<path clip-path="url(#SVGID_4_)" fill="#E4C77B" d="M500.125,581.896c0,1.24-1.006,2.246-2.247,2.246
			c-1.24,0-2.246-1.006-2.246-2.246s1.006-2.246,2.246-2.246C499.119,579.649,500.125,580.655,500.125,581.896"/>
		<path clip-path="url(#SVGID_4_)" fill="#292937" d="M536.041,469.002c3.771,0,7.547,0.792,9.94,2.873
			c2.395,2.08,3.604,4.708,4.765,7.269c8.195,18.097,16.392,36.194,24.588,54.291c-1.547,1.018-3.365,1.824-5.329,2.361
			c0.245,0.729,0.49,1.458,0.734,2.188c-3.16,1.108-4.804,1.876-9.796,3.034c-2.271,0.527-5.82,0.375-8.174,0.512l0.145,1.029
			c-4.589,0.21-9.203,0.151-13.779-0.178c0,0-6.068-44.288-9.861-54.031C525.481,478.608,532.352,469.002,536.041,469.002"/>
		<path clip-path="url(#SVGID_4_)" fill="#1E1E29" d="M552.811,541.527c0.446-0.025,0.934-0.04,1.448-0.053
			c-0.917-1.877-3.126-5.492-3.126-5.492S552.487,539.679,552.811,541.527"/>
		<path clip-path="url(#SVGID_4_)" fill="#1E1E29" d="M571.682,535.256c-2.023-2.313-6.342-6.789-6.342-6.789s3.318,5.1,4.772,7.65
			c-0.036-0.107-0.071-0.215-0.107-0.321C570.577,535.639,571.137,535.457,571.682,535.256"/>
		<path clip-path="url(#SVGID_4_)" fill="#1E1E29" d="M534.434,495.403c-0.573-3.391,0.831-8.98,1.088-10.553
			c0.579-3.552-3.971-4.907-6.771-6.801c-0.821,3.093-0.884,6.687,0.523,10.301c3.792,9.742,9.861,54.031,9.861,54.031
			c2.37,0.17,4.75,0.266,7.132,0.292c-1.026-0.967-1.799-2.183-2.238-3.721C539.376,523.573,535.007,498.794,534.434,495.403"/>
		<path clip-path="url(#SVGID_4_)" fill="#292937" d="M459.717,469.002c-3.772,0-7.547,0.792-9.941,2.873
			c-2.394,2.08-3.604,4.708-4.764,7.269c-8.196,18.097-16.392,36.194-24.588,54.291c1.547,1.018,3.365,1.824,5.329,2.361
			c-0.245,0.729-0.49,1.458-0.735,2.188c3.161,1.108,4.804,1.876,9.797,3.034c2.271,0.527,5.82,0.375,8.173,0.512l-0.144,1.029
			c4.589,0.21,9.203,0.151,13.779-0.178c0,0,6.068-44.288,9.861-54.031C470.276,478.608,463.406,469.002,459.717,469.002"/>
		<path clip-path="url(#SVGID_4_)" fill="#1E1E29" d="M442.947,541.527c-0.446-0.025-0.934-0.04-1.448-0.053
			c0.917-1.877,3.126-5.492,3.126-5.492S443.271,539.679,442.947,541.527"/>
		<path clip-path="url(#SVGID_4_)" fill="#1E1E29" d="M424.076,535.256c2.023-2.313,6.342-6.789,6.342-6.789s-3.319,5.1-4.773,7.65
			c0.036-0.107,0.072-0.215,0.107-0.321C425.18,535.639,424.621,535.457,424.076,535.256"/>
		<path clip-path="url(#SVGID_4_)" fill="#1E1E29" d="M461.324,495.403c0.573-3.391-0.831-8.98-1.087-10.553
			c-0.58-3.552,3.97-4.907,6.77-6.801c0.821,3.093,0.883,6.687-0.524,10.301c-3.792,9.742-9.861,54.031-9.861,54.031
			c-2.37,0.17-4.75,0.266-7.132,0.292c1.026-0.967,1.799-2.183,2.238-3.721C456.382,523.573,460.751,498.794,461.324,495.403"/>
		<path clip-path="url(#SVGID_4_)" fill="#292937" d="M542.91,604.988c-0.669-0.982-6.074-103.264-6.005-112.165
			c0.031-4.011,7.59-18.212,4.775-21.826c-2.799-3.592-24.057-8.333-27.538-9.161c-0.249-0.059-0.054,7.862-0.054,18.15
			c0,7.957-13.684,14.596-17.165,14.596s-17.118-6.323-17.118-14.499c0-10.172,0.25-17.978-0.026-17.896
			c-2.935,0.87-23.363,5.68-25.8,8.81c-2.815,3.614,4.743,17.815,4.774,21.826c0.069,8.901-5.335,111.182-6.005,112.165
			c-1.675,2.459,5.309,3.674,10.348,3.747c0,0,21.514,1.938,33.532,1.938c12.017,0,35.934-1.938,35.934-1.938
			C537.598,608.662,544.585,607.447,542.91,604.988"/>
		<path clip-path="url(#SVGID_4_)" fill="#232330" d="M503.606,492.212h33.349c0.65-4.674,7.411-17.765,4.726-21.214
			c-2.798-3.592-24.057-8.333-27.538-9.161c-0.249-0.059-0.053,7.862-0.053,18.149C514.09,485.055,508.537,489.588,503.606,492.212"
			/>
		<path clip-path="url(#SVGID_4_)" fill="#232330" d="M490.095,492.212c-4.876-2.562-10.288-6.977-10.288-12.128
			c0-10.172,0.249-17.978-0.026-17.896c-2.935,0.87-23.363,5.68-25.801,8.81c-2.686,3.449,4.075,16.54,4.725,21.214H490.095z"/>
		<polygon clip-path="url(#SVGID_4_)" fill="#1E1E29" points="497.655,610.674 497.454,494.541 496.271,494.541 497.051,610.674 		
			"/>
		<polygon clip-path="url(#SVGID_4_)" fill="#1E1E29" points="483.16,492.212 484.405,492.212 482.965,597.604 		"/>
		<polygon clip-path="url(#SVGID_4_)" fill="#1E1E29" points="468.073,492.212 469.318,492.212 467.878,584.826 		"/>
		<polygon clip-path="url(#SVGID_4_)" fill="#1E1E29" points="526.67,492.212 527.915,492.212 526.475,589.08 		"/>
		<polygon clip-path="url(#SVGID_4_)" fill="#1E1E29" points="511.582,492.212 512.827,492.212 511.388,584.826 		"/>
		<path clip-path="url(#SVGID_4_)" fill="#F2C9A0" d="M530.521,428.439c-0.874,4.52-7.96,11.151-10.136,10.711
			c-2.177-0.441-0.579-7.199,0.333-11.711c0.913-4.512,1.701-7.004,3.548-8.236C526.947,417.416,532.307,419.203,530.521,428.439"/>
		<path clip-path="url(#SVGID_4_)" fill="#F2C9A0" d="M465.458,428.391c0.874,4.52,5.721,11.13,7.898,10.69
			c2.176-0.44,2.817-7.178,1.905-11.69c-0.913-4.512-1.701-7.004-3.548-8.236C469.031,417.368,463.671,419.155,465.458,428.391"/>
		<path clip-path="url(#SVGID_4_)" fill="#F2C9A0" d="M496.636,456.189c-21.283-0.693-28.134-26.667-24.563-42.652
			c1.022-11.431,5.831-15.748,7.948-17.272c2.974-2.143,4.682-1.689,17.266-3.992c13.179-2.412,14.536-3.5,17.264-2.376
			c8.015,3.304,9.07,17.949,9.245,23.64C525.333,422.938,518.304,456.896,496.636,456.189"/>
		<path clip-path="url(#SVGID_4_)" fill="#96928A" d="M522.266,425.975c-0.721-0.049,0.826-9.533-1.943-20.568
			c-1.634-6.508-4.264-11.545-6.318-14.881c-1.991,0.614-5.162,1.528-9.125,2.387c-8.151,1.765-11.262,1.475-16.286,2.948
			c-2.392,0.701-6.034,2.639-9.886,5.252c-2.317,1.572-3.314,4.443-2.664,7.166c0.093,0.388,0.173,0.795,0.232,1.234v0.001
			c0.098,0.654,0.111,1.166,0.104,1.369c-0.016,0.478-0.266,7.555-0.634,17.273c-0.48-0.72-1.162-1.813-1.856-3.208
			c-0.838-1.682-1.231-3.002-1.618-3.911c-1.15-2.698-2.316-4.694-2.771-6.785c-0.447-2.054-0.996-6.781,2.667-13.477
			c2.662-7.383,6.774-10.928,8.986-12.495c2.969-2.105,3.279-1.188,18.11-5.476c6.126-1.771,8.37-2.591,10.951-1.403
			c3.696,1.7,5.087,6.138,5.615,8.423c1.891,0.797,5.395,2.633,7.722,6.458c2.375,3.902,2.305,7.864,2.246,11.091
			c-0.02,1.151-0.23,1.729-1.123,7.16C523,424.724,522.507,425.992,522.266,425.975"/>
		<rect x="283.63" y="757.992" clip-path="url(#SVGID_4_)" fill="#603813" width="424.849" height="22.77"/>
		<polygon clip-path="url(#SVGID_4_)" fill="#A67C52" points="708.479,757.991 283.63,757.991 332.265,721.168 658.717,720.883 		
			"/>
		<rect x="305.124" y="546.852" clip-path="url(#SVGID_4_)" fill="#785331" width="381.86" height="200.116"/>
		<rect x="305.124" y="557.597" clip-path="url(#SVGID_4_)" fill="#603813" width="381.86" height="8.321"/>
		<rect x="297.043" y="546.852" clip-path="url(#SVGID_4_)" fill="#754C24" width="398.46" height="12.821"/>
		<polygon clip-path="url(#SVGID_4_)" fill="#A67C52" points="695.503,546.852 297.043,546.852 342.657,526.118 648.832,525.958 		
			"/>
		<polygon clip-path="url(#SVGID_4_)" fill="#C69C6D" points="303.581,545.339 346.045,526.037 342.438,526.039 296.824,546.772 
			695.284,546.772 692.083,545.339 		"/>
		<polygon clip-path="url(#SVGID_4_)" fill="#754C24" points="419.988,597.239 428.595,586.747 318.549,586.747 327.157,597.239 		
			"/>
		<polygon clip-path="url(#SVGID_4_)" fill="#754C24" points="327.157,597.239 318.549,586.747 318.549,720.884 327.157,710.392 		
			"/>
		<polygon clip-path="url(#SVGID_4_)" fill="#8C6239" points="419.988,597.239 419.988,710.392 428.595,720.884 428.595,586.747 		
			"/>
		<polygon clip-path="url(#SVGID_4_)" fill="#8C6239" points="327.157,710.392 318.549,720.884 428.595,720.884 419.988,710.392 		
			"/>
		<polygon clip-path="url(#SVGID_4_)" fill="#754C24" points="542.037,597.239 550.645,586.747 440.599,586.747 449.207,597.239 		
			"/>
		<polygon clip-path="url(#SVGID_4_)" fill="#754C24" points="449.207,597.239 440.599,586.747 440.599,720.884 449.207,710.392 		
			"/>
		<polygon clip-path="url(#SVGID_4_)" fill="#8C6239" points="542.037,597.239 542.037,710.392 550.645,720.884 550.645,586.747 		
			"/>
		<polygon clip-path="url(#SVGID_4_)" fill="#8C6239" points="449.207,710.392 440.599,720.884 550.645,720.884 542.037,710.392 		
			"/>
		<polygon clip-path="url(#SVGID_4_)" fill="#754C24" points="665.81,597.239 674.418,586.747 564.371,586.747 572.979,597.239 		
			"/>
		<polygon clip-path="url(#SVGID_4_)" fill="#754C24" points="572.979,597.239 564.371,586.747 564.371,720.884 572.979,710.392 		
			"/>
		<polygon clip-path="url(#SVGID_4_)" fill="#8C6239" points="665.81,597.239 665.81,710.392 674.418,720.884 674.418,586.747 		"/>
		<polygon clip-path="url(#SVGID_4_)" fill="#8C6239" points="572.979,710.392 564.371,720.884 674.418,720.884 665.81,710.392 		
			"/>
		<path clip-path="url(#SVGID_4_)" fill="#C69C6D" d="M620.708,538.406c0,1.6,8.36,2.897,18.673,2.897s18.672-1.298,18.672-2.897
			c0-1.601-8.359-2.898-18.672-2.898S620.708,536.806,620.708,538.406"/>
		<path clip-path="url(#SVGID_4_)" fill="#754C24" d="M628.914,537.859c0,1.233,4.667,2.234,10.424,2.234s10.424-1.001,10.424-2.234
			c0-1.234,3.063-4.468-10.424-4.471C626.305,533.386,628.914,536.625,628.914,537.859"/>
		<path clip-path="url(#SVGID_4_)" fill="#C69C6D" d="M628.914,535.508c0,1.299,4.667,2.352,10.424,2.352s10.424-1.053,10.424-2.352
			c0-1.298-4.667-2.351-10.424-2.351S628.914,534.21,628.914,535.508"/>
		<polygon clip-path="url(#SVGID_4_)" fill="#603813" points="595.595,532.369 629.867,523.988 628.698,519.345 594.365,527.479 		
			"/>
		<path clip-path="url(#SVGID_4_)" fill="#603813" d="M631.122,506.815c-7.46,1.688-7.838,0.097-4.062,16.462
			c3.06,13.254,2.292,13.139,11.781,11.528c6.219-1.056,5.839,0.125,3.088-16.191C639.729,505.569,638.101,505.237,631.122,506.815"
			/>
		<polygon clip-path="url(#SVGID_4_)" fill="#E6E6E6" points="481.704,543.676 416.71,540.607 424.793,527.341 474.739,529.593 		
			"/>
		<polygon clip-path="url(#SVGID_4_)" fill="#E6E6E6" points="572.184,540.613 507.217,544.221 513.898,530.195 563.813,527.318 		
			"/>
		<polygon clip-path="url(#SVGID_4_)" fill="#F2F2F2" points="535.217,543.181 462.54,543.181 470.858,527.953 526.703,527.836 		
			"/>
		<path clip-path="url(#SVGID_4_)" fill="#96928A" d="M501.897,419.968l0.087,2.984c0,0,11.446-0.477,13.273,0.525
			C515.258,423.478,512.724,421.854,501.897,419.968"/>
		<path clip-path="url(#SVGID_4_)" fill="#96928A" d="M489.242,420.219l0.253,2.975c0,0-11.427,0.827-13.129,2.031
			C476.366,425.225,478.7,423.323,489.242,420.219"/>
		<path clip-path="url(#SVGID_4_)" fill="#FFFFFF" d="M488.13,428.92l-1.348,1.3c-0.289,0.186-0.599,0.33-0.915,0.434
			c-0.585,0.199-1.211,0.261-1.823,0.178c-0.612-0.082-1.204-0.302-1.741-0.66l-1.926-1.293l2.126-1.3
			c1.307-0.798,2.951-0.798,4.258,0L488.13,428.92z"/>
		<path clip-path="url(#SVGID_4_)" fill="#42210B" d="M486.41,429.463c0,0.475-0.213,0.901-0.543,1.19
			c-0.585,0.2-1.211,0.261-1.823,0.179c-0.475-0.275-0.791-0.784-0.791-1.369c0-0.874,0.708-1.582,1.575-1.582
			C485.701,427.881,486.41,428.589,486.41,429.463"/>
		<path clip-path="url(#SVGID_4_)" fill="#FFFFFF" d="M503.953,428.099l1.348,1.3c0.289,0.186,0.6,0.33,0.915,0.434
			c0.585,0.199,1.211,0.261,1.823,0.178c0.612-0.082,1.204-0.302,1.741-0.66l1.926-1.293l-2.126-1.3
			c-1.307-0.798-2.951-0.798-4.258,0L503.953,428.099z"/>
		<path clip-path="url(#SVGID_4_)" fill="#42210B" d="M505.673,428.642c0,0.475,0.213,0.901,0.543,1.19
			c0.585,0.2,1.211,0.261,1.823,0.179c0.475-0.275,0.791-0.784,0.791-1.369c0-0.874-0.708-1.582-1.575-1.582
			C506.382,427.06,505.673,427.768,505.673,428.642"/>
		<g opacity="0.41" clip-path="url(#SVGID_4_)">
			<g>
				<defs>
					<rect id="SVGID_5_" x="476.989" y="427.105" width="15.274" height="8.213"/>
				</defs>
				<clipPath id="SVGID_6_">
					<use xlink:href="#SVGID_5_"  overflow="visible"/>
				</clipPath>
				<polygon clip-path="url(#SVGID_6_)" fill="#E8DCD6" points="490.891,435.318 478.361,435.318 476.989,427.105 492.263,427.105 
					491.774,430.032 491.697,430.497 				"/>
			</g>
		</g>
		<path clip-path="url(#SVGID_4_)" fill="#42210B" d="M491.182,435.662H478.07l-1.487-8.901h16.086L491.182,435.662z
			 M478.652,434.974h11.947l1.258-7.525h-14.462L478.652,434.974z"/>
		<g opacity="0.41" clip-path="url(#SVGID_4_)">
			<g>
				<defs>
					<rect id="SVGID_7_" x="498.918" y="426.417" width="15.274" height="8.213"/>
				</defs>
				<clipPath id="SVGID_8_">
					<use xlink:href="#SVGID_7_"  overflow="visible"/>
				</clipPath>
				<polygon clip-path="url(#SVGID_8_)" fill="#E8DCD6" points="512.819,434.63 500.289,434.63 498.917,426.417 514.191,426.417 
									"/>
			</g>
		</g>
		<path clip-path="url(#SVGID_4_)" fill="#42210B" d="M513.111,434.974h-13.112l-1.487-8.901h16.086L513.111,434.974z
			 M500.581,434.286h11.947l1.258-7.525h-14.462L500.581,434.286z"/>
		<path clip-path="url(#SVGID_4_)" fill="#42210B" d="M492.003,430.748l-0.32-0.587c0.036-0.04,3.694-3.996,7.867-0.374l-0.311,0.64
			C495.569,427.242,492.134,430.604,492.003,430.748"/>
		<polygon clip-path="url(#SVGID_4_)" fill="#42210B" points="477.321,431.042 471.733,420.805 471.297,418.873 477.915,430.694 		
			"/>
		<polygon clip-path="url(#SVGID_4_)" fill="#42210B" points="514.024,430.294 513.547,429.799 523.94,419.087 523.751,420.104 		
			"/>
		<path clip-path="url(#SVGID_4_)" fill="#DBAC89" d="M491.959,445.611c0,0,4.022,3.959,10.466,0l-5.728-1.727L491.959,445.611z"/>
		<path clip-path="url(#SVGID_4_)" fill="#DBAC89" d="M496.215,442.633c-1.933,0-3.07-0.833-3.143-0.889
			c-0.151-0.114-0.181-0.329-0.067-0.48c0.114-0.152,0.329-0.182,0.481-0.069c0.102,0.076,2.549,1.839,6.509-0.318
			c0.168-0.091,0.376-0.03,0.467,0.138c0.091,0.166,0.029,0.375-0.138,0.466C498.722,442.353,497.335,442.633,496.215,442.633"/>
		<path clip-path="url(#SVGID_4_)" fill="#DBAC89" d="M497.281,450.525c-1.17,0-1.858-0.504-1.902-0.538
			c-0.092-0.069-0.109-0.199-0.041-0.291c0.069-0.092,0.2-0.11,0.292-0.041c0.061,0.046,1.542,1.113,3.939-0.193
			c0.101-0.055,0.227-0.018,0.282,0.084c0.055,0.1,0.018,0.227-0.083,0.282C498.798,450.356,497.958,450.525,497.281,450.525"/>
		<rect x="364.458" y="638.216" clip-path="url(#SVGID_4_)" fill="#BC956B" width="34.04" height="28.315"/>
		<path clip-path="url(#SVGID_4_)" fill="#BC956B" d="M413.675,604.109c0,0,1.379-9.778,7.571-7.614
			c6.192,2.162-1.366,18.84-4.449,20.173c-2.632,1.141-4.163-1.154-4.163-1.154"/>
		<path clip-path="url(#SVGID_4_)" fill="#BC956B" d="M348.923,604.109c0,0-1.378-9.778-7.571-7.614
			c-6.191,2.162,1.366,18.84,4.448,20.173c2.632,1.141,4.163-1.154,4.163-1.154"/>
		<path clip-path="url(#SVGID_4_)" fill="#B580D8" d="M433.826,666.851c32.418,26.964,48.747,144.588-44.551,75.754l10.265-14.569
			c10.888,6.304,25.995,16.725,39.647,18.529c-2.507,0.028-5.276,2.97-5.335,5.576c-0.004-0.048-0.062-0.822-0.067-0.867
			c0.01,0.178-0.027-0.475,0.021,0.388c-3.215-24.601-14.162-50.612-23.964-72.036L433.826,666.851z"/>
		<path clip-path="url(#SVGID_4_)" fill="#B580D8" d="M352.892,678.313c-9.609,20.813-21.217,48.815-24.037,72.676
			c0.005-0.051-0.001-0.102-0.019-0.15c-0.238-1.818-3.694-4.971-5.439-4.587c8.798-0.995,20.045-8.961,26.972-13.31l10.925,14.082
			c-13.222,12.473-51.74,37.928-54.868,2.203c-2.625-29.971,3.981-73.517,27.434-87.106L352.892,678.313z"/>
		<path clip-path="url(#SVGID_4_)" fill="#B580D8" d="M433.826,666.851c-10.501-14.158-52.348-16.543-52.348-16.543v-0.322
			c0,0-41.849,2.385-52.347,16.546c-7.413,9.995,8.16,95.327,8.16,95.327l-10.16,62.543c0,0,17.822,16.923,54.353,16.923
			c36.532,0,50.874-16.923,50.874-16.923l-6.558-60.524C425.8,763.877,441.236,676.843,433.826,666.851"/>
		<path clip-path="url(#SVGID_4_)" fill="#BC956B" d="M412.862,615.705c-3.204,20.617-25.185,36.512-31.384,36.512
			c-6.199,0-28.538-17.117-31.93-36.512c-1.474-8.434-1.638-18.063-1.59-26.051c0.13-21.827,12.068-36.752,33.147-36.752
			c22.657,0,33.405,14.379,33.869,36.752C415.164,598.782,414.18,607.225,412.862,615.705"/>
		<path clip-path="url(#SVGID_4_)" fill="#683B11" d="M341.813,596.407c-0.04-0.013-0.08-0.021-0.12-0.013v-0.175
			C341.733,596.287,341.773,596.347,341.813,596.407"/>
		<path clip-path="url(#SVGID_4_)" fill="#683B11" d="M342.041,586.615c-0.067,0.067-0.14,0.133-0.213,0.213
			c0-0.146,0.006-0.293,0.013-0.445C341.907,586.463,341.974,586.542,342.041,586.615"/>
		<path clip-path="url(#SVGID_4_)" fill="#683B11" d="M342.3,577.25c-0.033,0-0.067,0-0.093,0.008c0-0.061,0.006-0.114,0.013-0.174
			C342.24,577.144,342.273,577.197,342.3,577.25"/>
		<path clip-path="url(#SVGID_4_)" fill="#F5F5F5" d="M360.647,643.951c0,0,11.136,3.671,21.236,3.671
			c10.105,0,19.605-3.671,19.605-3.671l1.549,9.184c0,0-8.444,3.67-21.154,3.67c-12.708,0-23.012-3.67-23.012-3.67L360.647,643.951z
			"/>
		<path clip-path="url(#SVGID_4_)" fill="#2B1808" d="M421.662,578.638c0.941,2.108,1.901,4.31,1.828,6.617
			c-0.067,2.061-1.221,4.222-3.082,4.956c-0.027,2.074-0.047,4.088-0.007,5.969c-0.487,0-0.987,0.401-1.474,1.094
			c-0.133,0.401-0.253,0.728-0.347,0.961c-0.927,2.455-1.981,5.27-2.768,7.584c-0.006,0.008-0.006,0.014-0.006,0.021
			c-0.361,1.594-0.641,3.188-0.807,4.582c-0.167,1.414-0.707,3.335-1.555,5.536c-0.026,0.187-0.06,0.367-0.086,0.554
			c-0.454,2.896-0.774,5.943-2.608,6.984c-0.32,0.18-1.094,0.54-1.554,1.38c-0.341,0.621-0.267,1.368-0.287,2.075
			c-0.074,2.854-1.868,5.603-4.463,6.803c-0.853,0.401-1.834,0.674-2.448,1.395c-0.48,0.561-0.667,1.308-1.027,1.947
			c-1.187,2.088-3.762,2.528-6.203,3.068c-1.141,0.566-2.301,0.974-3.468,1.193c-0.127,0.027-0.254,0.048-0.381,0.067
			c-1.454,0.667-2.848,1.474-4.322,2.101c-2.181,0.928-4.756,1.421-6.884,0.367c-0.693-0.34-1.334-0.84-2.094-1
			c-1.201-0.247-2.375,0.42-3.555,0.78c-2.501,0.76-5.396,0.053-7.257-1.781c-1.454-1.434-2.255-3.408-3.662-4.883
			c-2.321-2.434-6.35-3.695-6.897-7.01c-0.007-0.033-0.013-0.073-0.013-0.107c-0.094-0.62-0.074-1.28-0.381-1.813
			c-0.387-0.66-1.154-0.954-1.847-1.294c-0.074-0.033-0.14-0.067-0.207-0.101c-2.788-1.421-4.836-4.702-5.103-7.337
			c-0.08-0.8,0.094-0.507,0.12-2.321c0.007-0.286,0-0.627-0.013-1.021v-0.006c-0.414-1.335-0.7-2.596-0.854-3.736
			c-0.587-4.382-1.821-8.284-3.055-11.119c-0.693-1.026-1.607-2.273-3.081-4.735c-0.04-0.061-0.08-0.12-0.12-0.187
			c-0.087-0.154-0.18-0.307-0.274-0.467c-1.034-1.748-1.741-3.009-1.634-4.703c0.12-1.927,1.247-3.395,2.041-4.222
			c0.073-0.08,0.147-0.147,0.213-0.213c-0.066-0.074-0.133-0.154-0.2-0.234c-1.24-1.414-2.408-3.002-2.608-4.856
			c-0.206-1.921,1.061-4.129,2.975-4.269c0.027-0.006,0.06-0.006,0.094-0.006c-0.027-0.054-0.06-0.107-0.08-0.167
			c-1.301-2.555-1.675-5.57-1.028-8.364c0.461-1.981,2.055-4.163,4.029-3.696c0.174-2.548,1.087-5.209,3.155-6.703
			c1.921-1.394,4.969-1.313,6.443,0.468c0.114,0.133,0.214,0.272,0.307,0.427c0.06-0.247,0.147-0.487,0.254-0.714
			c1.1-2.602,4.362-4.162,7.07-3.255c0.053,0.013,0.1,0.025,0.147,0.046c0.027-0.046,0.053-0.093,0.073-0.141
			c1.294-2.374,2.715-4.835,5.056-6.155c2.395-1.348,6.03-0.867,7.104,1.661c2.054-1.694,4.055-3.702,6.663-4.223
			c2.615-0.514,5.877,1.475,5.396,4.096c2.027-1.081,4.168-2.188,6.456-2.135c2.295,0.046,4.729,1.707,4.769,4.002
			c0.827-0.674,3.829-2.975,7.865-2.602c0.973,0.094,3.081,0.287,4.849,1.915c2.848,2.628,2.328,6.689,2.261,7.157
			c0.38-0.367,0.8-0.661,1.241-0.882c1.06-0.526,2.241-0.619,3.295-0.359c0.927,0.233,1.754,0.747,2.314,1.494
			c0.861,1.146,1.027,2.774,0.454,4.222l3.648,4.696c0.807,0.914,1.401,1.987,1.688,3.175
			C426.465,574.256,424.697,577.871,421.662,578.638"/>
		<rect x="593.014" y="632.569" clip-path="url(#SVGID_4_)" fill="#BC956B" width="34.04" height="28.314"/>
		<path clip-path="url(#SVGID_4_)" fill="#BC956B" d="M642.231,598.462c0,0,1.379-9.777,7.571-7.613
			c6.191,2.161-1.366,18.84-4.449,20.173c-2.632,1.141-4.163-1.154-4.163-1.154"/>
		<path clip-path="url(#SVGID_4_)" fill="#BC956B" d="M577.479,598.462c0,0-1.378-9.777-7.57-7.613
			c-6.191,2.161,1.365,18.84,4.447,20.173c2.633,1.141,4.163-1.154,4.163-1.154"/>
		<path clip-path="url(#SVGID_4_)" fill="#D6CA54" d="M662.383,661.203c32.418,26.965,48.746,144.589-44.552,75.755l10.266-14.569
			c10.888,6.304,25.995,16.724,39.646,18.529c-2.507,0.027-5.276,2.97-5.335,5.575c-0.004-0.048-0.062-0.821-0.066-0.866
			c0.01,0.178-0.027-0.475,0.021,0.388c-3.215-24.601-14.162-50.613-23.964-72.036L662.383,661.203z"/>
		<path clip-path="url(#SVGID_4_)" fill="#D6CA54" d="M581.447,672.667c-9.608,20.813-21.217,48.815-24.037,72.676
			c0.005-0.051-0.001-0.102-0.02-0.15c-0.237-1.818-3.693-4.972-5.438-4.587c8.798-0.995,20.045-8.961,26.973-13.31l10.925,14.082
			c-13.222,12.473-51.74,37.927-54.868,2.203c-2.625-29.971,3.981-73.517,27.434-87.106L581.447,672.667z"/>
		<path clip-path="url(#SVGID_4_)" fill="#D6CA54" d="M662.383,661.203c-10.502-14.157-52.349-16.543-52.349-16.543v-0.321
			c0,0-41.849,2.385-52.347,16.546c-7.413,9.995,8.16,95.327,8.16,95.327l-10.16,62.543c0,0,17.822,16.923,54.353,16.923
			c36.532,0,50.873-16.923,50.873-16.923l-6.557-60.524C654.356,758.23,669.792,671.195,662.383,661.203"/>
		<path clip-path="url(#SVGID_4_)" fill="#BC956B" d="M640.713,608.648c-3.132,20.153-24.618,35.69-30.679,35.69
			c-6.06,0-27.896-16.732-31.213-35.69c-1.44-8.244-1.601-17.658-1.554-25.466c0.127-21.337,11.796-35.928,32.401-35.928
			c22.148,0,32.655,14.058,33.109,35.928C642.962,592.106,642.002,600.358,640.713,608.648"/>
		<path clip-path="url(#SVGID_4_)" fill="#683B11" d="M596.16,633.6c-0.054-0.02-0.113-0.047-0.168-0.072
			C595.967,633.173,596.007,633.113,596.16,633.6"/>
		<path clip-path="url(#SVGID_4_)" fill="#F5F5F5" d="M588.775,638.305c0,0,11.136,3.671,21.236,3.671
			c10.104,0,19.604-3.671,19.604-3.671l1.549,9.184c0,0-8.444,3.67-21.153,3.67s-23.013-3.67-23.013-3.67L588.775,638.305z"/>
		<path clip-path="url(#SVGID_4_)" fill="#603813" d="M424.826,842.293h-91.993c-6.871,0-12.614-5.226-13.261-12.065
			l-12.279-129.934c-0.739-7.816,5.409-14.573,13.26-14.573h116.553c7.851,0,13.999,6.757,13.26,14.573l-12.28,129.934
			C437.439,837.067,431.697,842.293,424.826,842.293"/>
		<path clip-path="url(#SVGID_4_)" fill="#603813" d="M657.629,842.293h-91.993c-6.871,0-12.614-5.226-13.261-12.065
			l-12.279-129.934c-0.739-7.816,5.409-14.573,13.26-14.573h116.554c7.851,0,13.999,6.757,13.26,14.573l-12.28,129.934
			C670.243,837.067,664.5,842.293,657.629,842.293"/>
		<path clip-path="url(#SVGID_4_)" fill="#785331" d="M565.636,837.164c-4.249,0-7.754-3.19-8.154-7.42l-12.279-129.934
			c-0.22-2.323,0.524-4.556,2.097-6.282c1.57-1.728,3.722-2.679,6.058-2.679h116.552c2.335,0,4.486,0.951,6.058,2.679
			c1.571,1.727,2.316,3.959,2.097,6.282l-12.28,129.934c-0.398,4.229-3.905,7.42-8.153,7.42H565.636z"/>
		<path clip-path="url(#SVGID_4_)" fill="#603813" d="M669.908,695.979c1.179,0,1.924,0.627,2.265,1.001
			c0.34,0.374,0.894,1.177,0.783,2.349l-12.279,129.934c-0.149,1.581-1.46,2.773-3.048,2.773h-91.993
			c-1.588,0-2.898-1.192-3.047-2.773l-12.28-129.934c-0.111-1.172,0.443-1.975,0.783-2.349s1.087-1.001,2.264-1.001H669.908z
			 M669.908,685.721H553.355c-7.851,0-13.999,6.756-13.26,14.573l12.279,129.933c0.646,6.84,6.39,12.066,13.261,12.066h91.993
			c6.87,0,12.613-5.227,13.261-12.066l12.278-129.933C683.907,692.477,677.76,685.721,669.908,685.721"/>
		<path clip-path="url(#SVGID_4_)" fill="#785331" d="M332.833,837.164c-4.249,0-7.754-3.19-8.154-7.42l-12.279-129.934
			c-0.22-2.323,0.524-4.556,2.096-6.282c1.571-1.728,3.722-2.679,6.057-2.679h116.553c2.335,0,4.486,0.951,6.057,2.679
			c1.572,1.727,2.317,3.959,2.097,6.282l-12.28,129.934c-0.4,4.229-3.905,7.42-8.154,7.42H332.833z"/>
		<path clip-path="url(#SVGID_4_)" fill="#603813" d="M437.105,695.979c1.177,0,1.924,0.627,2.264,1.001
			c0.34,0.374,0.894,1.177,0.784,2.349l-12.28,129.934c-0.149,1.581-1.46,2.773-3.048,2.773h-91.993
			c-1.588,0-2.898-1.192-3.047-2.773l-12.28-129.934c-0.111-1.172,0.443-1.975,0.783-2.349c0.34-0.374,1.087-1.001,2.264-1.001
			H437.105z M437.105,685.721H320.552c-7.851,0-13.999,6.756-13.26,14.573l12.28,129.933c0.646,6.84,6.389,12.066,13.26,12.066
			h91.993c6.871,0,12.614-5.227,13.261-12.066l12.279-129.933C451.104,692.477,444.956,685.721,437.105,685.721"/>
		<polygon clip-path="url(#SVGID_4_)" fill="#365696" points="356.653,532.801 339.26,543.78 373.143,543.78 383.696,532.037 		"/>
		<polygon clip-path="url(#SVGID_4_)" fill="#365696" points="356.653,529.597 339.26,540.575 373.143,540.575 383.696,528.832 		
			"/>
		<path clip-path="url(#SVGID_4_)" fill="#FFFFFF" d="M373.143,543.779h-33.882c0,0-1.017-0.979,0-3.204h33.882V543.779z"/>
		<path clip-path="url(#SVGID_4_)" fill="#E5E5E5" d="M383.697,528.832c-0.089,0.081-0.795,0.745-0.716,1.769
			c0.063,0.825,0.594,1.326,0.716,1.436c-3.518,3.915-7.036,7.829-10.554,11.743c-0.611-0.434-0.94-1.15-0.847-1.858
			c0.108-0.827,0.741-1.273,0.847-1.346C376.661,536.66,380.179,532.746,383.697,528.832"/>
		<path clip-path="url(#SVGID_4_)" fill="#365696" d="M339.261,540.575c0,0-1.355,1.096,0,3.204
			C339.261,543.779,338.664,541.87,339.261,540.575"/>
		<polygon clip-path="url(#SVGID_4_)" fill="#365696" points="355.552,529.074 338.159,540.053 372.041,540.053 382.595,528.31 		
			"/>
		<polygon clip-path="url(#SVGID_4_)" fill="#365696" points="355.552,525.869 338.159,536.849 372.041,536.849 382.595,525.105 		
			"/>
		<path clip-path="url(#SVGID_4_)" fill="#FFFFFF" d="M372.042,540.053H338.16c0,0-1.017-0.979,0-3.204h33.882V540.053z"/>
		<path clip-path="url(#SVGID_4_)" fill="#E5E5E5" d="M382.596,525.105c-0.089,0.081-0.795,0.745-0.716,1.768
			c0.063,0.826,0.594,1.327,0.716,1.437c-3.518,3.915-7.036,7.829-10.554,11.742c-0.611-0.434-0.94-1.149-0.847-1.857
			c0.108-0.827,0.741-1.274,0.847-1.346C375.56,532.934,379.078,529.02,382.596,525.105"/>
		<path clip-path="url(#SVGID_4_)" fill="#365696" d="M338.159,536.848c0,0-1.355,1.097,0,3.204
			C338.159,540.052,337.563,538.143,338.159,536.848"/>
		<polygon clip-path="url(#SVGID_4_)" fill="#365696" points="361.566,525.327 344.173,536.307 378.055,536.307 388.609,524.563 		
			"/>
		<polygon clip-path="url(#SVGID_4_)" fill="#365696" points="361.566,522.123 344.173,533.102 378.055,533.102 388.609,521.358 		
			"/>
		<path clip-path="url(#SVGID_4_)" fill="#FFFFFF" d="M378.056,536.306h-33.882c0,0-1.017-0.979,0-3.204h33.882V536.306z"/>
		<path clip-path="url(#SVGID_4_)" fill="#E5E5E5" d="M388.61,521.358c-0.089,0.081-0.795,0.745-0.716,1.769
			c0.063,0.826,0.594,1.326,0.716,1.436c-3.518,3.915-7.036,7.829-10.554,11.743c-0.611-0.434-0.94-1.15-0.847-1.858
			c0.108-0.826,0.741-1.273,0.847-1.346C381.574,529.187,385.092,525.272,388.61,521.358"/>
		<path clip-path="url(#SVGID_4_)" fill="#365696" d="M344.173,533.102c0,0-1.355,1.096,0,3.204
			C344.173,536.306,343.577,534.396,344.173,533.102"/>
		<path clip-path="url(#SVGID_4_)" fill="#2B1808" d="M647.697,562.99c-0.46-1.725-5.132-8.259-6.54-8.574
			c-7.133-5.22-19.485-9.429-31.494-9.429c-12.312,0-34.134,10.749-37.643,16.339c-0.465,0.735-0.829,2.418-1.112,4.654
			c-1.044,2.533-2.755,7.706-3.777,16.272l2.733-4.653l0.202,1.387c-0.148,4.755-0.188,9.349-0.202,12.205
			c1.146-0.108,5.099,6.923,6.325,16.023c0.195,1.434,0.592,3.051,1.185,4.774c0,0-0.559,6.312,2.311,11.814
			c0,0-0.343-5.045,0-4.587c0.344,0.458,3.617,9.173,7.53,14.904v-4.701c0,0,3.476,4.23,9.436,9.794c0,0-0.693-3.753-0.788-4.822
			c-0.027-0.357,0.014-0.418,0.169,0.074c0.559,1.743,10.965,9.401,13.1,10.965c0.081,0.053,0.148,0.101,0.202,0.141
			c0.055-0.04,0.121-0.088,0.195-0.141c1.664-1.22,8.372-6.156,11.497-9.093c0.883-0.822,1.475-1.488,1.597-1.872
			c0.282-0.896,0.175,0.04-0.021,1.313c-0.235,1.488-0.592,3.436-0.592,3.436c5.96-5.563,9.436-9.794,9.436-9.794v4.701
			c3.913-5.731,7.186-14.446,7.53-14.904c0.343-0.458,0,4.587,0,4.587c2.061-3.961,2.35-8.332,2.35-10.475
			c1.422-3.206,2.331-6.055,2.561-7.974c0.687-5.645,3.158-14.373,5.454-14.373c-0.079-3.772,0.068-8.069,0.062-12.346l2.122,3.616
			c-0.674-5.65-1.651-9.826-2.533-12.736C648.734,567.166,648.33,564.95,647.697,562.99"/>
		<path clip-path="url(#SVGID_4_)" fill="#96928A" d="M502.978,447.016c-0.88-0.54-1.682-1.087-2.401-1.628
			c0.26,0.421,0.36,0.654,0.3,0.708c-0.094,0.08-0.526-0.241-1.301-0.954c0.354,0.413,0.507,0.66,0.447,0.727
			c-0.08,0.1-0.574-0.134-1.474-0.707c0.213,0.313,0.287,0.507,0.227,0.573c-0.087,0.087-0.454-0.08-1.094-0.507
			c-0.124,0.146-0.262,0.23-0.402,0.276c-0.01,0.005-0.023,0.015-0.032,0.018c-0.02,0.013-0.04,0.02-0.066,0.02
			c-0.074,0.02-0.147,0.02-0.214,0c-0.026,0-0.047-0.007-0.067-0.02c-0.008-0.003-0.021-0.013-0.031-0.018
			c-0.14-0.046-0.278-0.13-0.402-0.276c-0.64,0.427-1.007,0.594-1.094,0.507c-0.06-0.066,0.02-0.26,0.227-0.573
			c-0.901,0.573-1.394,0.807-1.474,0.707c-0.06-0.067,0.093-0.314,0.453-0.727c-0.78,0.713-1.214,1.034-1.307,0.954
			c-0.06-0.054,0.04-0.287,0.3-0.708c-0.72,0.541-1.521,1.088-2.394,1.628c-0.494,0.3-0.974,0.58-1.441,0.834
			c0.08-0.794,0.347-2.201,1.367-3.402c0.24-0.287,0.58-0.674,1.147-0.974c0.814-0.427,1.621-0.42,2.328-0.413
			c0.641,0.006,1.168,0.093,1.528,0.173c0.106,0.12,0.407,0.427,0.88,0.5c0.027,0.007,0.06,0.007,0.087,0.007s0.06,0,0.087-0.007
			c0.473-0.073,0.773-0.38,0.887-0.5c0.353-0.08,0.88-0.167,1.527-0.173c0.701-0.007,1.508-0.014,2.321,0.413
			c0.566,0.3,0.908,0.687,1.147,0.974c1.021,1.201,1.287,2.608,1.374,3.402C503.944,447.596,503.464,447.316,502.978,447.016"/>
	</g>
</g>
</svg>
