<?xml version="1.0" encoding="utf-8"?>
<!-- Generator: Adobe Illustrator 16.0.0, SVG Export Plug-In . SVG Version: 6.00 Build 0)  -->
<!DOCTYPE svg PUBLIC "-//W3C//DTD SVG 1.1//EN" "http://www.w3.org/Graphics/SVG/1.1/DTD/svg11.dtd">
<svg version="1.1" id="Layer_1" xmlns="http://www.w3.org/2000/svg" xmlns:xlink="http://www.w3.org/1999/xlink" x="0px" y="0px"
	 width="1000px" height="1000px" viewBox="0 0 1000 1000" enable-background="new 0 0 1000 1000" xml:space="preserve">
<g>
	<defs>
		<path id="SVGID_1_" d="M494.404,160.288c-55.596,4.653-91.965,27.23-117.935,57.616c-0.002,0.001-0.003,0.003-0.004,0.004
			c-1.953-1.009-4.088-1.574-6.33-1.574c-9.228,0-16.709,9.428-16.709,21.058c0,3.645,0.736,7.073,2.029,10.063
			c-19.084,31.974-31.842,68.695-44.743,100.752c-17.139,42.338-78.386,49.009-100.476,98.137
			c-20.106,23.11-30.61,59.704-35.893,86.244c-3.786,19.063-4.878,32.95-4.878,32.95
			c-5.994,133.425,113.887,235.621,237.556,272.619c0.095,0.027,0.19,0.055,0.285,0.082c21.524,6.769,42.374,11.35,61.461,13.623
			c5.858,0.696,11.756,1.005,17.655,0.977c0.941-0.004,1.868-0.019,2.808-0.023c0.004,0,0.007,0,0.011,0
			c12.594,0.652,24.926,0.486,36.843-0.534c2.409-0.213,4.855-0.451,7.313-0.736c0.157-0.018,0.317-0.039,0.477-0.057
			c43.832-4.939,94.125-18.891,140.939-44.12c66.11-34.839,122.361-89.109,133.148-161.533c9.591-47.585,22.79-75.265,22.79-146.339
			c2.314-47.098-37.401-136.25-37.401-136.25c-12.724-22.695-27.644-42.671-43.039-59.562c-2.813-3.122-56.569-48.487-56.569-48.487
			c-1.508-1.163-2.991-2.362-4.462-3.596c-39.979-33.485-70.99-92.328-171.21-92.334
			C510.574,159.267,502.706,159.595,494.404,160.288"/>
	</defs>
	<clipPath id="SVGID_2_">
		<use xlink:href="#SVGID_1_"  overflow="visible"/>
	</clipPath>
	<path clip-path="url(#SVGID_2_)" fill="#E3F4FF" d="M830.751,499.496c0,71.075-13.199,98.754-22.79,146.339
		c-10.825,72.677-67.43,127.074-133.84,161.899c-0.202,0.119-0.404,0.227-0.606,0.321c-41.163,21.496-86.041,35.478-126.101,41.638
		c-0.76,0.119-1.521,0.237-2.268,0.332c-0.795,0.131-1.591,0.25-2.373,0.345c-1.448,0.201-2.873,0.392-4.31,0.569
		c-1.697,0.214-3.383,0.416-5.068,0.606c-2.456,0.284-4.901,0.521-7.312,0.735c-11.917,1.021-24.249,1.188-36.843,0.534
		c-26.682-1.365-54.552-6.374-82.22-14.659c-123.668-36.997-243.55-139.193-237.556-272.619c27.608-20.712,34.54,5.224,59.715-13.91
		c18.624-16.071,50.719-25.33,50.719-25.33c-20.012-15.917-61.769-36.866-98.659,4.843c31.632-63.324,39.94-20.38,75.003-42.564
		c10.398-11.774,16.071-13.567,35.68-10.243c41.223,8.89,23.833-48.452,59.81-42.873c0,0-7.347-8.641-26.956-8.772
		c-19.608-0.13-23.038,19.277-44.878,13.722c-14.149-3.609-33.757-2.837-53.14,1.424c-5.567,1.223-11.122,2.73-16.522,4.51
		c22.089-49.128,83.335-55.798,100.475-98.137c12.902-32.059,25.662-68.784,44.748-100.76c6.243-10.469,13.175-20.427,21.009-29.543
		c25.971-30.386,62.339-52.962,117.936-57.615c119.312-9.958,151.906,55.324,194.874,91.312c1.472,1.235,2.956,2.434,4.463,3.597
		c-3.265,6.599-5.151,14.397-5.151,22.754c0,23.834,15.323,43.157,34.231,43.157c11.253,0,21.247-6.849,27.489-17.424
		c15.396,16.89,30.315,36.866,43.039,59.561c-0.226,0.047-0.451,0.107-0.676,0.178c-18.695,5.389-26.624,27.312-36.25,37.389
		c-9.602,10.077-27.786,13.329-27.786,13.329s12.035,19.098,37.923,21.532c12.166,1.139,22.611-3.407,31.584-8.926
		c-6.979,12.676-5.092,21.412-14.635,32.76c-11.145,13.27-27.762,17.887-42.006,40.938c-14.255,23.05-11.442,47.501-11.442,47.501
		c3.93-3.987,9.567-9.316,16.855-15.003c6.385-4.997,18.837-14.587,35.383-21.199c14.351-5.721,25.911-6.859,29.65-7.405
		c5.673-0.831,12.059-3.016,18.776-6.315C830.739,498.511,830.751,499.008,830.751,499.496"/>
	<path clip-path="url(#SVGID_2_)" fill="#FFFFFF" d="M750.312,303.685c-6.243,10.576-16.238,17.424-27.49,17.424
		c-18.908,0-34.231-19.323-34.231-43.157c0-8.356,1.888-16.155,5.151-22.754C693.741,255.197,747.498,300.563,750.312,303.685"/>
	<path clip-path="url(#SVGID_2_)" fill="#FFFFFF" d="M351.733,435.459c-35.977-5.579-18.588,51.763-59.81,42.873
		c-19.609-3.324-25.282-1.531-35.68,10.243c-35.063,22.184-43.371-20.76-75.004,42.564c36.891-41.709,78.648-20.76,98.66-4.843
		c0,0-32.096,9.259-50.719,25.33c-25.175,19.134-32.107-6.802-59.715,13.91c0,0,1.092-13.887,4.878-32.949
		c5.282-26.54,15.786-63.134,35.894-86.244c5.4-1.78,10.955-3.287,16.522-4.51c19.383-4.261,38.991-5.033,53.14-1.424
		c21.84,5.555,25.27-13.852,44.878-13.721C344.386,426.818,351.733,435.459,351.733,435.459"/>
	<path clip-path="url(#SVGID_2_)" fill="#FFFFFF" d="M830.751,499.496c0-0.487-0.012-0.985-0.024-1.472
		c-6.718,3.3-13.104,5.484-18.776,6.315c-3.739,0.546-15.3,1.685-29.65,7.405c-16.546,6.612-28.998,16.202-35.383,21.199
		c-7.288,5.687-12.926,11.016-16.855,15.003c0,0-2.813-24.451,11.442-47.501c14.244-23.051,30.861-27.668,42.006-40.938
		c9.543-11.348,7.656-20.084,14.635-32.76c-8.973,5.519-19.418,10.065-31.584,8.926c-25.888-2.434-37.923-21.532-37.923-21.532
		s18.185-3.252,27.786-13.329c9.626-10.077,17.555-32,36.25-37.389c0.225-0.071,0.45-0.131,0.676-0.178
		C793.35,363.246,833.066,452.397,830.751,499.496"/>
	<path clip-path="url(#SVGID_2_)" fill="#99CCE0" d="M328.326,362.63c0,1.748-1.124,3.165-2.511,3.165
		c-1.387,0-2.512-1.417-2.512-3.165s1.125-3.165,2.512-3.165C327.202,359.465,328.326,360.882,328.326,362.63"/>
	<path clip-path="url(#SVGID_2_)" fill="#99CCE0" d="M349.407,368.613c0,1.748-1.125,3.165-2.512,3.165
		c-1.386,0-2.511-1.417-2.511-3.165s1.125-3.165,2.511-3.165C348.282,365.448,349.407,366.865,349.407,368.613"/>
	<path clip-path="url(#SVGID_2_)" fill="#99CCE0" d="M419.859,274.061c0,1.748-1.124,3.165-2.511,3.165
		c-1.387,0-2.512-1.417-2.512-3.165s1.125-3.165,2.512-3.165C418.735,270.896,419.859,272.313,419.859,274.061"/>
	<path clip-path="url(#SVGID_2_)" fill="#99CCE0" d="M748.546,554.7c0,1.748-1.124,3.165-2.511,3.165s-2.512-1.417-2.512-3.165
		s1.125-3.165,2.512-3.165S748.546,552.952,748.546,554.7"/>
	<path clip-path="url(#SVGID_2_)" fill="#99CCE0" d="M757.099,546.127c0,1.748-1.125,3.165-2.513,3.165
		c-1.387,0-2.511-1.417-2.511-3.165s1.124-3.165,2.511-3.165C755.974,542.962,757.099,544.379,757.099,546.127"/>
	<path clip-path="url(#SVGID_2_)" fill="#99CCE0" d="M344.384,352.359c0,2.815-1.811,5.097-4.045,5.097
		c-2.233,0-4.044-2.282-4.044-5.097c0-2.814,1.811-5.097,4.044-5.097C342.573,347.263,344.384,349.545,344.384,352.359"/>
	
		<ellipse clip-path="url(#SVGID_2_)" fill="none" stroke="#FFFFFF" stroke-width="1.798" stroke-miterlimit="10" cx="331.055" cy="540.182" rx="5.24" ry="6.604"/>
	
		<ellipse clip-path="url(#SVGID_2_)" fill="none" stroke="#FFFFFF" stroke-width="1.798" stroke-miterlimit="10" cx="627.25" cy="258.525" rx="5.24" ry="6.604"/>
	
		<ellipse clip-path="url(#SVGID_2_)" fill="none" stroke="#FFFFFF" stroke-width="1.798" stroke-miterlimit="10" cx="370.135" cy="237.392" rx="16.708" ry="21.058"/>
	
		<ellipse clip-path="url(#SVGID_2_)" fill="none" stroke="#FFFFFF" stroke-width="1.798" stroke-miterlimit="10" cx="233.091" cy="613.207" rx="34.236" ry="43.149"/>
	<path clip-path="url(#SVGID_2_)" fill="#EAB16C" d="M556.413,482.138c0,2.75-1.812,4.979-4.046,4.979s-4.045-2.229-4.045-4.979
		s1.811-4.979,4.045-4.979S556.413,479.388,556.413,482.138"/>
	<path clip-path="url(#SVGID_2_)" fill="#EAB16C" d="M552.762,483.935c12.731,6.139,7.166,17.264,7.114,17.609h-15.418
		C544.458,501.544,539.671,487.412,552.762,483.935"/>
	<path clip-path="url(#SVGID_2_)" fill="#23AEB5" d="M687.984,862.412c-48.849,18.461-168.679,139.704-250.554,102.851
		c-34.987-15.749-121.764-91.685-121.764-91.685s61.671,22.967,77.388-41.94c3.772-15.578,8.298-34.84,9.34-58.995
		c0.957-22.106-0.303-48.126-5.157-78.497c0.033,2.217-1.176,4.384-2.318,6.752c0,0-0.017,0.017-0.017,0.034
		c-0.504,1.041-0.991,2.134-1.361,3.275c-2.016-1.243-2.486-8.349-2.083-18.63c1.428-36.166,13.674-111.539,7.61-107.994
		c0.1-0.067,0.218-0.135,0.353-0.202c0.016-0.017,0.033-0.017,0.033-0.017c4.3-2.335,18.058-7.677,36.956-12.968
		c0.084-0.018,0.168-0.05,0.252-0.067c2.251-0.638,4.586-1.26,7.005-1.882c0.117-0.033,0.235-0.067,0.352-0.1
		c15.354-3.998,33.378-7.744,52.142-9.896c12.766-1.461,31.497,2.437,50.478,8.686c0.303,0.101,0.588,0.201,0.89,0.303
		c2.067,0.671,4.149,1.377,6.217,2.133c0.285,0.101,0.554,0.201,0.84,0.302c21.333,7.694,41.995,17.823,53.72,26.071
		c27.347,19.2-3.88,108.062-5.661,132.42c-0.906-1.983-7.021-24.711-7.962-26.29C581.429,777.648,556.081,917.828,687.984,862.412"
		/>
	<path clip-path="url(#SVGID_2_)" fill-rule="evenodd" clip-rule="evenodd" fill="#E2C294" d="M550.336,564.698
		c-7.762,12.615-27.734,36.1-44.313,39.812c-3.948,13.305-4.2,22.09-8.148,35.394c-1.629-14.009-5.257-20.946-6.87-34.957
		c-12.229,0.084-45.993-24.021-52.864-40.601c3.83-1.646,11.356-2.805,21.3-9.877c12.448-8.854,17.958-20.242,20.024-25.248
		c11.154-0.621,22.308-1.226,33.462-1.847c0.873,6.147,3.174,11.641,6.366,16.411C526.886,555.106,539.552,562.347,550.336,564.698"
		/>
	<path clip-path="url(#SVGID_2_)" fill="#003399" d="M554.585,563.876c-4.552,7.609-9.642,14.563-15.235,20.796
		c-8.551,9.508-18.108,17.168-28.474,22.812c-1.629,9.592-2.889,13.893-4.45,19.268c-1.043,3.493-2.201,7.475-3.729,13.842
		c-0.622,2.57-2.604,4.316-4.939,4.418c-0.168,0-0.353,0.017-0.521,0c-2.519-0.186-4.502-2.234-4.838-5.04l-5.24-32.773
		c-7.425-1.881-14.564-5.156-21.25-9.709c-11.859-8.046-23.047-22.896-29.246-33.158c2.251-0.64,4.586-1.261,7.005-1.883
		c0.118-0.032,0.235-0.066,0.353-0.1c5.762,9.121,15.857,22.207,25.987,29.111c6.652,4.518,13.757,7.592,21.132,9.171l2.435,0.521
		l4.502,28.138c0.471-1.681,0.924-3.176,1.327-4.604c1.647-5.661,2.856-9.743,4.57-20.174l0.302-1.798l1.612-0.84
		c10.196-5.309,19.62-12.749,28.035-22.09c4.974-5.526,9.525-11.675,13.607-18.344c2.066,0.672,4.149,1.378,6.215,2.134
		C554.031,563.674,554.301,563.774,554.585,563.876"/>
	<path clip-path="url(#SVGID_2_)" fill-rule="evenodd" clip-rule="evenodd" fill="#003399" d="M436.597,571.238
		c-0.06,1.262-1.092,2.237-2.306,2.18c-1.213-0.057-2.148-1.127-2.088-2.389c0.06-1.263,1.092-2.238,2.306-2.181
		C435.722,568.906,436.657,569.976,436.597,571.238"/>
	<path clip-path="url(#SVGID_2_)" fill-rule="evenodd" clip-rule="evenodd" fill="#003399" d="M442.524,581.001
		c-0.06,1.262-1.092,2.238-2.306,2.18c-1.213-0.057-2.148-1.127-2.088-2.389s1.092-2.238,2.306-2.18
		C441.649,578.669,442.584,579.739,442.524,581.001"/>
	<path clip-path="url(#SVGID_2_)" fill-rule="evenodd" clip-rule="evenodd" fill="#003399" d="M448.639,588.447
		c-0.06,1.263-1.092,2.238-2.306,2.181c-1.213-0.058-2.148-1.127-2.088-2.39c0.06-1.262,1.092-2.237,2.306-2.18
		C447.764,586.115,448.698,587.186,448.639,588.447"/>
	<path clip-path="url(#SVGID_2_)" fill-rule="evenodd" clip-rule="evenodd" fill="#003399" d="M456.208,595.678
		c-0.06,1.262-1.092,2.237-2.306,2.18c-1.213-0.057-2.148-1.127-2.088-2.389c0.06-1.263,1.092-2.238,2.306-2.181
		C455.333,593.346,456.269,594.415,456.208,595.678"/>
	<path clip-path="url(#SVGID_2_)" fill-rule="evenodd" clip-rule="evenodd" fill="#003399" d="M463.984,600.27
		c0.992,0.726,1.226,2.152,0.524,3.186c-0.701,1.034-2.074,1.283-3.066,0.557c-0.991-0.726-1.226-2.151-0.524-3.186
		S462.993,599.543,463.984,600.27"/>
	<path clip-path="url(#SVGID_2_)" fill-rule="evenodd" clip-rule="evenodd" fill="#003399" d="M474.981,606.346
		c0.992,0.727,1.226,2.153,0.524,3.187c-0.702,1.034-2.074,1.283-3.066,0.557c-0.992-0.726-1.226-2.151-0.524-3.186
		S473.989,605.62,474.981,606.346"/>
	<path clip-path="url(#SVGID_2_)" fill-rule="evenodd" clip-rule="evenodd" fill="#003399" d="M484.132,610.717
		c0.992,0.727,1.226,2.153,0.524,3.187c-0.701,1.033-2.074,1.282-3.066,0.557c-0.991-0.726-1.226-2.152-0.524-3.187
		C481.768,610.24,483.14,609.991,484.132,610.717"/>
	<path clip-path="url(#SVGID_2_)" fill-rule="evenodd" clip-rule="evenodd" fill="#003399" d="M485.782,622.75
		c0.992,0.726,1.226,2.152,0.524,3.186c-0.702,1.034-2.074,1.283-3.066,0.557c-0.992-0.726-1.226-2.151-0.524-3.186
		C483.418,622.272,484.79,622.023,485.782,622.75"/>
	<path clip-path="url(#SVGID_2_)" fill-rule="evenodd" clip-rule="evenodd" fill="#003399" d="M487.473,633.934
		c0.957,0.774,1.126,2.211,0.377,3.209c-0.748,0.998-2.131,1.179-3.087,0.404c-0.957-0.774-1.126-2.212-0.378-3.21
		C485.134,633.339,486.516,633.158,487.473,633.934"/>
	<path clip-path="url(#SVGID_2_)" fill-rule="evenodd" clip-rule="evenodd" fill="#003399" d="M490.115,644.472
		c0.957,0.775,1.126,2.211,0.377,3.209c-0.748,0.998-2.131,1.179-3.088,0.405c-0.956-0.775-1.125-2.212-0.377-3.21
		C487.775,643.878,489.158,643.696,490.115,644.472"/>
	<path clip-path="url(#SVGID_2_)" fill-rule="evenodd" clip-rule="evenodd" fill="#003399" d="M499.213,649.214
		c0.958,0.775,1.126,2.211,0.377,3.209c-0.748,0.998-2.131,1.179-3.088,0.405c-0.956-0.775-1.125-2.212-0.377-3.21
		C496.875,648.62,498.256,648.438,499.213,649.214"/>
	<path clip-path="url(#SVGID_2_)" fill-rule="evenodd" clip-rule="evenodd" fill="#003399" d="M508.005,644.04
		c0.957,0.775,1.126,2.212,0.377,3.21c-0.748,0.997-2.132,1.179-3.087,0.404c-0.957-0.774-1.127-2.212-0.379-3.21
		C505.665,643.446,507.048,643.266,508.005,644.04"/>
	<path clip-path="url(#SVGID_2_)" fill-rule="evenodd" clip-rule="evenodd" fill="#003399" d="M514.938,621.603
		c0.957,0.774,1.126,2.211,0.377,3.209c-0.748,0.998-2.131,1.179-3.088,0.405c-0.956-0.775-1.125-2.213-0.377-3.211
		C512.6,621.008,513.981,620.827,514.938,621.603"/>
	<path clip-path="url(#SVGID_2_)" fill-rule="evenodd" clip-rule="evenodd" fill="#003399" d="M516.695,610.9
		c0.956,0.774,1.125,2.211,0.377,3.209s-2.132,1.179-3.089,0.405c-0.956-0.775-1.125-2.213-0.377-3.21
		C514.355,610.307,515.738,610.125,516.695,610.9"/>
	<path clip-path="url(#SVGID_2_)" fill-rule="evenodd" clip-rule="evenodd" fill="#003399" d="M525.256,605.178
		c0.957,0.774,1.126,2.211,0.377,3.209c-0.748,0.998-2.131,1.179-3.088,0.404c-0.956-0.774-1.125-2.212-0.377-3.21
		C522.917,604.584,524.299,604.402,525.256,605.178"/>
	<path clip-path="url(#SVGID_2_)" fill-rule="evenodd" clip-rule="evenodd" fill="#003399" d="M534.073,598.729
		c0.957,0.775,1.126,2.211,0.377,3.209c-0.748,0.998-2.131,1.18-3.088,0.405c-0.956-0.775-1.125-2.212-0.377-3.21
		C531.734,598.135,533.116,597.954,534.073,598.729"/>
	<path clip-path="url(#SVGID_2_)" fill-rule="evenodd" clip-rule="evenodd" fill="#003399" d="M541.497,591.479
		c0.957,0.775,1.126,2.211,0.377,3.209c-0.748,0.998-2.131,1.179-3.088,0.405c-0.956-0.775-1.125-2.212-0.377-3.21
		C539.158,590.886,540.54,590.704,541.497,591.479"/>
	<path clip-path="url(#SVGID_2_)" fill-rule="evenodd" clip-rule="evenodd" fill="#003399" d="M549.175,583.433
		c0.957,0.775,1.126,2.211,0.377,3.209c-0.748,0.998-2.131,1.179-3.088,0.405c-0.956-0.775-1.125-2.212-0.377-3.21
		C546.836,582.839,548.218,582.657,549.175,583.433"/>
	<path clip-path="url(#SVGID_2_)" fill-rule="evenodd" clip-rule="evenodd" fill="#003399" d="M554.393,576.669
		c0.957,0.775,1.126,2.211,0.377,3.209c-0.748,0.998-2.131,1.179-3.088,0.405c-0.956-0.775-1.125-2.212-0.377-3.21
		C552.054,576.075,553.436,575.894,554.393,576.669"/>
	<path clip-path="url(#SVGID_2_)" fill-rule="evenodd" clip-rule="evenodd" fill="#003399" d="M558.85,569.024
		c0.957,0.775,1.126,2.211,0.377,3.209c-0.748,0.998-2.131,1.18-3.088,0.405c-0.956-0.775-1.125-2.212-0.377-3.21
		C556.511,568.431,557.893,568.25,558.85,569.024"/>
	<path clip-path="url(#SVGID_2_)" fill-rule="evenodd" clip-rule="evenodd" fill="#003399" d="M511.594,632.928
		c0.957,0.775,1.126,2.211,0.377,3.209c-0.748,0.998-2.131,1.179-3.087,0.405c-0.957-0.775-1.126-2.212-0.378-3.21
		S510.637,632.152,511.594,632.928"/>
	<path clip-path="url(#SVGID_2_)" fill-rule="evenodd" clip-rule="evenodd" fill="#B59B76" d="M519.293,543.785
		c-6.064,4.2-17.873,10.482-32.539,8.466c-5.98-0.823-10.935-2.839-14.698-4.888c5.006-6.837,6.736-13.875,7.408-18.143
		c11.154-0.621,22.308-1.226,33.462-1.848C513.8,533.521,516.102,539.015,519.293,543.785"/>
	<path clip-path="url(#SVGID_2_)" fill-rule="evenodd" clip-rule="evenodd" fill="#333333" d="M453.974,928.567l-0.047-0.008
		c0,0-6.987,13.697-16.386,22.534c-15.422-16.846-30.9-33.651-46.385-50.408l-0.02-0.027c-1.036-1.146-35.17-38.351-52.887-60.772
		c-3.505-4.454-6.735-8.644-9.663-12.589l-0.019-0.026c-0.349-0.717-6.11-12.793,1.586-22.882
		c7.961-10.364,24.292,2.084,24.292,2.084C388.028,846.472,421.924,887.253,453.974,928.567"/>
	<path clip-path="url(#SVGID_2_)" fill-rule="evenodd" clip-rule="evenodd" fill="#23AEB5" d="M458.349,919.861
		c0.605,10.969-10.415,26.591-21.922,32c-2.099,0.975-4.199,1.612-6.265,1.831c-4.704-4.082-9.273-8.13-13.674-12.146
		c-66.336-60.305-98.504-112.445-101.108-175.522c-1.579-37.863,7.509-79.673,26.256-129.564
		c8.281-20.779,22.677-38.651,41.508-50.764c6.266-4.082,11.658-6.786,16.277-8.315c0.017-0.017,0.034-0.017,0.034-0.017
		c35.41-11.758,26.255,44.481,24.34,73.341c0.387,21.014-11.741,23.501-22.056,42.331c-1.075,1.932-2.116,4.049-3.124,6.383
		c-0.454-2.149-0.907-3.947-1.378-5.273c-0.772,2.149-1.562,4.418-2.318,6.753c0,0-0.016,0.017-0.016,0.032
		c-5.51,16.682-10.634,37.695-12.683,58.995v0.067c-2.503,25.853-0.487,52.125,10.835,71.644c1.612,2.772,3.393,5.394,5.392,7.862
		c13.136,17.722,24.475,33.63,35.679,48.781c4.62,6.266,9.222,12.396,13.909,18.495C451.411,911.159,454.821,915.51,458.349,919.861
		"/>
	<path clip-path="url(#SVGID_2_)" fill-rule="evenodd" clip-rule="evenodd" fill="#1F9393" d="M436.428,951.861
		c-2.1,0.974-4.2,1.613-6.266,1.831c-4.703-4.082-9.272-8.13-13.673-12.146c-66.336-60.305-98.504-112.445-101.108-175.522
		c2.738,11.606,6.988,26.927,13.623,44.431c5.292,13.977,12.649,33.075,26.524,54.913c12.834,20.191,25.046,32.975,39.493,48.144
		C405.149,924.11,418.891,937.499,436.428,951.861"/>
	<path clip-path="url(#SVGID_2_)" fill-rule="evenodd" clip-rule="evenodd" fill="#333333" d="M538.361,920.482l0.047-0.008
		c0,0,6.987,13.698,16.386,22.534c15.422-16.845,30.9-33.651,46.386-50.408l0.02-0.027c1.036-1.146,35.17-38.351,52.888-60.772
		c3.504-4.454,6.734-8.644,9.662-12.588l0.02-0.027c0.349-0.717,6.109-12.793-1.586-22.882c-7.962-10.364-24.292,2.084-24.292,2.084
		C604.308,838.387,570.411,879.169,538.361,920.482"/>
	<path clip-path="url(#SVGID_2_)" fill-rule="evenodd" clip-rule="evenodd" fill="#23AEB5" d="M666.175,824.717
		c-9.306,21.082-59.096,82.126-89.315,109.456c-5.744,5.208-10.768,9.172-14.682,11.439c-1.915,0.05-3.931-0.486-5.996-1.495
		c-11.726-5.576-24.375-25.584-22.157-31.899c3.914-5.493,7.761-10.717,11.507-15.672c54.459-72.199,89.03-92.961,49.15-200.47
		c-0.57,1.831-3.511,27.7-4.804,25.785c-21.821-36.67-57.55-53.568-50.159-90.592c0.957-51.704,39.442-60.154,67.411-42.13
		c35.158,26.676,63.9,96.875,69.04,158.978C678.606,777.194,675.852,804.491,666.175,824.717"/>
	<path clip-path="url(#SVGID_2_)" fill-rule="evenodd" clip-rule="evenodd" fill="#1F9393" d="M666.175,824.717
		c-9.306,21.082-59.096,82.126-89.315,109.456c-5.744,5.208-10.768,9.172-14.682,11.439c-1.915,0.05-3.931-0.486-5.996-1.495
		c6.392-4.885,14.082-11.073,22.566-18.626c5.164-4.596,15.365-13.916,27.332-26.811c15.576-16.784,27.212-32.153,35.16-43.488
		c11.525-16.436,17.288-24.653,22.509-35.979c16.609-36.029,12.447-71.701,12.421-71.096
		C674.894,777.269,675.852,804.491,666.175,824.717"/>
	<path clip-path="url(#SVGID_2_)" fill-rule="evenodd" clip-rule="evenodd" fill="#1F9393" d="M402.748,772.508
		c-0.118,0.05-0.235,0.102-0.353,0.135c0.958-22.106-0.302-48.127-5.157-78.498c0.034,2.218-1.176,4.385-2.318,6.753
		c0,0-0.017,0.018-0.017,0.034c-5.51,16.681-10.633,37.694-12.682,58.994c-0.538-16.042,0.369-36.4,5.409-59.313
		c1.159-5.259,2.452-10.264,3.83-15.034c2.234-7.794,4.737-14.935,7.273-21.367c1.109,10.196,2.1,19.822,3.007,28.825
		c1.629,16.244,2.94,30.455,3.981,42.348C407.534,755.945,408.593,769.888,402.748,772.508"/>
	<path clip-path="url(#SVGID_2_)" fill-rule="evenodd" clip-rule="evenodd" fill="#1F9393" d="M586.069,754.925
		c0.871-16.951,1.454-34.446,1.69-52.458c0.161-12.242,0.154-24.243,0-35.996c8.77,17.983,17.482,41.476,21.392,69.73
		c1.1,7.938,1.716,15.519,1.98,22.671c-6.009-16.95-11.862-38.297-17.869-55.248c-0.323,7.896-1.032,16.562-2.335,25.85
		C589.627,738.745,587.929,747.256,586.069,754.925"/>
	<path clip-path="url(#SVGID_2_)" fill="#2E2E30" d="M446.501,305.054c3.702-5.122,13.835-17.624,31.046-21.896
		c11.653-2.892,21.161-0.673,31.046,1.634c18.259,4.261,30.748,12.492,40.851,19.282c10.861,7.3,22.14,14.879,33.007,29.085
		c11.689,15.281,15.502,28.552,21.569,49.674c2.912,10.138,3.677,16.062,1.634,22.222c-1.792,5.406-4.359,6.812-6.209,13.726
		c-0.611,2.283-2.143,8.902-0.654,16.667c1.67,8.704,5.248,9.007,9.478,19.935c3.143,8.117,5.435,14.039,3.595,20.588
		c-0.783,2.791-4.554,7.743-12.091,17.647c-3.739,4.913-5.372,6.821-6.209,10.458c-0.377,1.636-1.751,7.604,1.96,13.071
		c3.555,5.238,9.276,6.336,10.458,6.536c-0.566,4.698-3.62,8.66-7.844,10.131c-5.18,1.805-11.272-0.437-14.379-5.556
		c1.319,1.856,3.184,4.949,4.248,9.151c0.846,3.335,2.075,8.185,0,12.744c-1.937,4.258-4.686,3.721-7.843,9.478
		c-1.36,2.479-2.607,4.832-1.961,7.517c1.002,4.165,5.797,5.946,6.536,6.209c-3.68,2.528-8.528,2.518-12.092,0
		c-3.291-2.324-4.951-6.412-4.248-10.458c-0.533,2.274-3.003,11.661-12.093,17.648c-12.791,8.424-27.031,2.433-28.104,1.96
		c5.616,1.738,11.113-0.346,13.072-4.248c1.598-3.183,0.697-7.287-1.308-9.804c-2.686-3.374-5.687-1.806-9.804-5.557
		c-0.35-0.318-5.402-5.027-4.248-9.149c0.739-2.644,3.455-2.995,3.595-5.229c0.128-2.049-2.025-3.838-4.576-5.556
		c-7.975-5.373-15.358-7.189-15.358-7.189c-14.162-3.482-21.536-5.297-25.818-1.308c-2.196,2.047-1.178,3.385-4.248,14.707
		c-2.158,7.956-3.236,11.935-5.556,15.359c-5.739,8.473-15.214,10.918-16.013,11.111c-13.4,3.252-24.008-5.545-25.164-6.537
		c5.992-0.762,11.983-1.524,17.974-2.286c-0.381-0.029-5.277-0.486-7.516-4.575c-2.001-3.656-1.018-8.64,2.614-11.766
		c-1.797,0.024-10.86-0.039-18.3-7.189c-6.831-6.564-7.689-14.673-7.844-16.667c2.954,2.563,6.727,2.21,8.17,0.327
		c1.245-1.624,0.877-4.542-0.653-5.883c-2.254-1.974-5.208,1.063-8.497-0.326c-3.556-1.503-2.68-6.143-7.19-16.014
		c-1.571-3.438-2.59-5.669-4.575-8.17c-4.972-6.264-9.48-6.002-13.399-9.804c-7.102-6.891-4.966-20.042-3.921-26.471
		c2.269-13.971,8.422-16.117,9.804-28.759c0.941-8.61-1.178-14.349-2.942-21.242c-1.31-5.121-8.043-32.831-1.96-58.824
		c7.496-32.031,30.612-45.044,32.68-46.079c3.59-1.798,7.189-2.247,7.189-2.247c0.829-0.103,3.157-0.343,6.128,0.123
		C443.065,303.653,445.091,304.407,446.501,305.054"/>
	<path clip-path="url(#SVGID_2_)" fill="#EACAA0" d="M574.768,424.684c0.185,4.949,0.798,30.01-12.606,57.864
		c-4.694,9.755-30.38,63.132-72.06,62.747c-43.693-0.404-68.506-59.553-71.404-66.461c-10.441-24.89-9.963-46.926-9.514-54.831
		c2.77-48.756,15.299-97.807,78.022-97.839C550.918,326.131,572.838,372.945,574.768,424.684"/>
	<path clip-path="url(#SVGID_2_)" fill="#EACAA0" d="M414.294,451.459c-1.941-8.938-4.966-15.065-7.07-18.654
		c-1.858-3.17-3.895-5.893-7.24-6.984c-0.763-0.249-3.103-1.013-5.281,0c-2.524,1.174-3.568,4.148-4.259,7.41
		c-2.177,10.28-0.089,19.838,0.682,22.998c0.71,2.91,3,8.045,7.581,18.313c1.899,4.257,3.416,7.447,6.899,9.114
		c0.443,0.212,3.683,1.709,7.07,0.681c4.773-1.448,8.222-7.421,7.751-14.65C418.382,463.611,416.338,457.535,414.294,451.459"/>
	<path clip-path="url(#SVGID_2_)" fill="#EACAA0" d="M566.929,445.072c2.071-9.871,5.298-16.638,7.542-20.602
		c1.982-3.501,4.155-6.508,7.723-7.714c0.814-0.275,3.312-1.119,5.635,0c2.691,1.297,3.806,4.582,4.543,8.184
		c2.322,11.354,0.096,21.91-0.728,25.4c-0.758,3.215-3.201,8.885-8.087,20.226c-2.025,4.702-3.645,8.225-7.36,10.066
		c-0.472,0.234-3.929,1.887-7.542,0.752c-5.091-1.599-8.771-8.196-8.268-16.18C562.567,458.493,564.748,451.783,566.929,445.072"/>
	<path clip-path="url(#SVGID_2_)" fill="#B59B76" d="M482.956,455.386c-1.261,6.276-2.841,12.336-4.685,18.435
		c-0.592,1.905-1.431,3.924-1.786,5.817c-0.149,0.895-0.102,1.572,0.243,2.191c0.359,0.704,1.193,1.216,1.837,1.678
		c5.063,3.099,12.154,1.725,17.099-1.196c-4.562,4.653-12.502,6.648-18.434,3.342c-5.703-3.035-2.998-8.18-1.336-12.67
		C478.041,467.059,480.167,461.063,482.956,455.386"/>
	<path clip-path="url(#SVGID_2_)" fill="#240F0F" d="M423.583,420.412c-0.48-0.638,6.655-7.484,15.094-12.936
		c5.205-3.363,9.971-5.591,13.554-7.043c0.655-0.266,1.361-0.356,2.061-0.258c1.786,0.248,3.816,0.675,5.994,1.398
		c4.556,1.512,8.015,3.741,10.384,5.606c0.237,0.186,0.074,0.565-0.225,0.525c-0.863-0.115-1.728-0.232-2.595-0.351
		c-9.987-1.377-10.829-1.763-12.695-1.892c-4.166-0.288-10.135,3.025-21.902,9.664C426.252,419.075,423.845,420.761,423.583,420.412
		"/>
	<path clip-path="url(#SVGID_2_)" fill="#240F0F" d="M541.261,408.593c0.121-0.789-9.404-3.439-19.42-4.247
		c-6.177-0.497-11.429-0.203-15.272,0.214c-0.703,0.076-1.367,0.331-1.938,0.748c-1.455,1.065-3.041,2.403-4.617,4.07
		c-3.296,3.49-5.288,7.091-6.492,9.855c-0.121,0.275,0.203,0.532,0.447,0.356c0.706-0.51,1.412-1.023,2.119-1.538
		c8.146-5.941,8.704-6.681,10.286-7.678c3.533-2.226,10.359-2.134,23.867-1.858C538.277,408.679,541.195,409.025,541.261,408.593"/>
	<path clip-path="url(#SVGID_2_)" fill="#2E2E30" d="M586.617,411.836c-1.651,1.594-3.822,4.084-5.392,7.598
		c-1.904,4.262-1.448,6.728-3.433,10.54c-1.033,1.986-2.868,4.603-6.372,7.107c-0.245-4.33-0.489-8.66-0.735-12.99
		c-1.195,5.354-2.623,10.951-4.33,16.749c-3.129,10.627-6.703,20.255-10.376,28.84c0.455-10.418,0.163-19.109-0.245-25.491
		c-0.85-13.296-2.232-17.019-4.657-20.098c-3.462-4.395-7.944-6.075-13.97-8.333c-10.729-4.02-13.297-1.585-23.285-4.902
		c-6.255-2.078-14.536-4.828-19.853-12.255c-4.423-6.179-2.608-9.745-8.334-19.363c-2.96-4.974-5.928-8.19-8.578-11.03
		c-4.575-4.902-12.722-12.397-25.491-18.628c-3.799,9.085-8.806,19.343-15.441,30.148c-5.229,8.516-10.589,15.937-15.686,22.304
		c1.789,4.516,4.707,13.715,3.186,25.245c-2.192,16.614-12.133,26.972-15.442,30.148c0.913-3.418,2.419-10.948-0.122-19.853
		c-1.852-6.491-5.094-11.05-7.231-13.603c-0.449-3.147-7.453-58.551,32.599-90.81c23.483-18.915,50.343-19.563,55.229-19.609
		c6.464-0.059,30.367,0.42,52.942,16.667c18.811,13.539,26.82,30.915,33.66,45.753C581.773,390.097,584.949,402.787,586.617,411.836
		"/>
	<path clip-path="url(#SVGID_2_)" fill="#FFFFFF" d="M412.841,479.606c0,3.52-2.318,6.373-5.178,6.373
		c-2.859,0-5.178-2.853-5.178-6.373s2.319-6.373,5.178-6.373C410.522,473.233,412.841,476.086,412.841,479.606"/>
	<path clip-path="url(#SVGID_2_)" fill="#FFFFFF" d="M408.104,486.614c1.67,2.306,4.256,6.592,4.578,11.374
		c0.487,7.236-1.108,10.1-2.103,11.165c-0.674,0.721-1.49,1.086-2.426,1.086c-1.042,0-1.921-0.433-2.688-1.323
		c-1.825-2.12-2.537-6.245-1.858-10.764C404.466,492.431,406.648,488.616,408.104,486.614 M408.153,483.467
		c0,0-5.055,4.596-6.526,14.387c-1.18,7.857,1.532,14.386,6.526,14.386c3.604,0,7.261-3.467,6.526-14.386
		C414.145,489.926,408.153,483.467,408.153,483.467"/>
	
		<rect x="404.616" y="502.808" transform="matrix(0.8586 0.5126 -0.5126 0.8586 316.6767 -136.2153)" clip-path="url(#SVGID_2_)" fill="#FFFFFF" width="1.334" height="6.375"/>
	
		<rect x="407.125" y="505.329" transform="matrix(0.5126 0.8586 -0.8586 0.5126 634.4224 -105.6927)" clip-path="url(#SVGID_2_)" fill="#FFFFFF" width="6.375" height="1.334"/>
	
		<rect x="408.673" y="500.221" transform="matrix(0.998 0.0627 -0.0627 0.998 32.2351 -24.8329)" clip-path="url(#SVGID_2_)" fill="#FFFFFF" width="5.759" height="1.335"/>
	
		<rect x="401.683" y="499.614" transform="matrix(0.998 0.0626 -0.0626 0.998 32.1252 -24.3385)" clip-path="url(#SVGID_2_)" fill="#FFFFFF" width="5.239" height="1.335"/>
	
		<rect x="402.569" y="494.45" transform="matrix(0.5126 0.8586 -0.8586 0.5126 622.8851 -107.0747)" clip-path="url(#SVGID_2_)" fill="#FFFFFF" width="6.375" height="1.334"/>
	
		<rect x="410.118" y="491.929" transform="matrix(0.8587 0.5126 -0.5126 0.8587 311.8392 -140.5679)" clip-path="url(#SVGID_2_)" fill="#FFFFFF" width="1.335" height="6.376"/>
	<path clip-path="url(#SVGID_2_)" fill="#FFFFFF" d="M577.117,479.606c0,3.52-2.318,6.373-5.179,6.373
		c-2.858,0-5.178-2.853-5.178-6.373s2.319-6.373,5.178-6.373C574.799,473.233,577.117,476.086,577.117,479.606"/>
	<path clip-path="url(#SVGID_2_)" fill="#FFFFFF" d="M572.38,486.614c1.671,2.306,4.257,6.592,4.578,11.374
		c0.487,7.236-1.107,10.1-2.103,11.165c-0.674,0.721-1.49,1.086-2.426,1.086c-1.042,0-1.922-0.433-2.688-1.323
		c-1.825-2.12-2.537-6.245-1.858-10.764C568.742,492.431,570.924,488.616,572.38,486.614 M572.43,483.467
		c0,0-5.056,4.596-6.526,14.387c-1.18,7.857,1.532,14.386,6.526,14.386c3.604,0,7.261-3.467,6.525-14.386
		C578.421,489.926,572.43,483.467,572.43,483.467"/>
	
		<rect x="568.893" y="502.808" transform="matrix(0.8585 0.5128 -0.5128 0.8585 340.0381 -220.4679)" clip-path="url(#SVGID_2_)" fill="#FFFFFF" width="1.333" height="6.374"/>
	
		<rect x="571.401" y="505.329" transform="matrix(0.5127 0.8586 -0.8586 0.5127 714.4353 -246.7506)" clip-path="url(#SVGID_2_)" fill="#FFFFFF" width="6.375" height="1.334"/>
	
		<rect x="572.948" y="500.221" transform="matrix(0.998 0.0627 -0.0627 0.998 32.5587 -35.1391)" clip-path="url(#SVGID_2_)" fill="#FFFFFF" width="5.759" height="1.335"/>
	
		<rect x="565.959" y="499.614" transform="matrix(0.998 0.0626 -0.0626 0.998 32.4508 -34.6299)" clip-path="url(#SVGID_2_)" fill="#FFFFFF" width="5.239" height="1.335"/>
	
		<rect x="566.845" y="494.45" transform="matrix(0.5127 0.8586 -0.8586 0.5127 702.9041 -248.1354)" clip-path="url(#SVGID_2_)" fill="#FFFFFF" width="6.376" height="1.334"/>
	
		<rect x="574.395" y="491.929" transform="matrix(0.8584 0.513 -0.513 0.8584 335.4645 -224.9038)" clip-path="url(#SVGID_2_)" fill="#FFFFFF" width="1.333" height="6.375"/>
	<path clip-path="url(#SVGID_2_)" fill="#B59B76" d="M498.208,444.242c-0.855-12.559,7.833-23.424,17.369-26.341
		c11.008-3.367,21.567,4.69,23.09,5.974c5.345,4.507,7.214,10.189,8.434,13.21c-2.232,2.95-8.557,10.486-19.236,13.342
		C512.559,454.519,500.308,445.791,498.208,444.242"/>
	<path clip-path="url(#SVGID_2_)" fill="#FFFFFF" d="M498.269,445.132c0.853-11.557,7.991-21.108,17.542-23.796
		c11.026-3.102,20.717,4.222,22.23,5.366c5.311,4.014,7.948,8.953,9.146,11.661c-2.252,2.667-8.625,9.484-19.319,12.124
		C512.542,454.271,500.357,446.51,498.269,445.132"/>
	<path clip-path="url(#SVGID_2_)" fill="#746653" d="M540.158,433.93c0.5,7.338-5.044,13.691-12.382,14.191
		c-7.338,0.499-13.691-5.044-14.191-12.382c-0.499-7.338,5.044-13.692,12.382-14.191S539.659,426.592,540.158,433.93"/>
	<path clip-path="url(#SVGID_2_)" fill="#3A332A" d="M535.734,432.883c0.23,3.376-2.32,6.3-5.697,6.529
		c-3.377,0.23-6.3-2.32-6.529-5.697c-0.23-3.376,2.32-6.299,5.697-6.529S535.505,429.507,535.734,432.883"/>
	<path clip-path="url(#SVGID_2_)" fill="#FFFFFF" d="M527.081,436.626c0.086,1.26-0.866,2.352-2.127,2.438
		c-1.26,0.085-2.352-0.867-2.438-2.127c-0.085-1.261,0.866-2.352,2.127-2.438S526.995,435.366,527.081,436.626"/>
	<path clip-path="url(#SVGID_2_)" fill="#433015" d="M547.188,438.362c-1.737-2.002-3.333-4.186-5.343-5.9
		c-1.921-1.702-4.031-3.105-6.268-4.178c-8.897-4.367-19.696-3.454-27.606,2.52c-4.477,3.307-8.269,8.508-9.713,14.164
		c-0.894-6.398,2.114-12.904,6.828-17.517C518.432,414.426,542.433,419.835,547.188,438.362"/>
	<path clip-path="url(#SVGID_2_)" fill="#433015" d="M542.483,430.021c2.936-1.066,5.684-3.106,7.173-5.912
		c-0.851,2.339-2.535,4.305-4.517,5.792c-0.679,0.504-1.36,0.954-2.161,1.359L542.483,430.021z"/>
	<path clip-path="url(#SVGID_2_)" fill="#433015" d="M544.494,432.842c2.52-0.233,5.37-0.998,6.891-3.2
		c-0.873,1.913-2.799,3.103-4.689,3.872c-0.655,0.26-1.297,0.482-2.021,0.65L544.494,432.842z"/>
	<path clip-path="url(#SVGID_2_)" fill="#433015" d="M546.413,435.664c1.375,0.196,2.937,0.017,4.15-0.732
		c0.425-0.254,0.783-0.608,1.112-0.999c-0.689,1.455-2.178,2.373-3.704,2.781c-0.531,0.142-1.038,0.247-1.639,0.282L546.413,435.664
		z"/>
	<path clip-path="url(#SVGID_2_)" fill="#B59B76" d="M471.624,442.689c-0.958-12.552-11.116-22.056-20.972-23.573
		c-11.377-1.751-20.67,7.738-21.993,9.228c-4.641,5.227-5.675,11.119-6.448,14.285c2.633,2.598,9.974,9.148,20.953,10.44
		C458.898,454.921,469.769,444.524,471.624,442.689"/>
	<path clip-path="url(#SVGID_2_)" fill="#FFFFFF" d="M471.692,443.579c-2.504-11.315-10.94-19.742-20.778-21.029
		c-11.357-1.487-19.895,7.152-21.229,8.502c-4.679,4.735-6.58,10.002-7.377,12.854c2.612,2.315,9.898,8.147,20.861,9.224
		C458.88,454.673,469.824,445.243,471.692,443.579"/>
	<path clip-path="url(#SVGID_2_)" fill="#746653" d="M437.849,439.175c0.56,7.334,6.958,12.825,14.292,12.265
		c7.333-0.559,12.825-6.958,12.265-14.291c-0.559-7.334-6.958-12.825-14.292-12.266
		C442.781,425.443,437.289,431.841,437.849,439.175"/>
	<path clip-path="url(#SVGID_2_)" fill="#3A332A" d="M447.972,437.297c0.257,3.374,3.202,5.901,6.576,5.644
		c3.374-0.258,5.901-3.202,5.644-6.576c-0.258-3.375-3.202-5.901-6.576-5.644C450.241,430.979,447.714,433.923,447.972,437.297"/>
	<path clip-path="url(#SVGID_2_)" fill="#FFFFFF" d="M445.695,440.018c0.096,1.26,1.195,2.203,2.455,2.107
		c1.26-0.096,2.203-1.195,2.107-2.455c-0.096-1.26-1.195-2.203-2.455-2.107C446.542,437.659,445.599,438.758,445.695,440.018"/>
	<path clip-path="url(#SVGID_2_)" fill="#433015" d="M422.308,443.905c1.431-2.231,2.698-4.622,4.44-6.606
		c1.657-1.96,3.543-3.651,5.602-5.035c8.179-5.6,18.996-6.247,27.683-1.471c4.905,2.63,9.404,7.232,11.646,12.623
		c-0.034-6.461-3.945-12.467-9.272-16.355C447.328,416.086,424.354,424.887,422.308,443.905"/>
	<path clip-path="url(#SVGID_2_)" fill="#433015" d="M425.765,434.975c-3.058-0.633-6.07-2.257-7.948-4.82
		c1.179,2.192,3.127,3.896,5.302,5.083c0.745,0.401,1.484,0.749,2.334,1.034L425.765,434.975z"/>
	<path clip-path="url(#SVGID_2_)" fill="#433015" d="M424.181,438.056c-2.526,0.131-5.458-0.216-7.278-2.177
		c1.138,1.768,3.215,2.669,5.196,3.158c0.686,0.163,1.353,0.291,2.094,0.353L424.181,438.056z"/>
	<path clip-path="url(#SVGID_2_)" fill="#433015" d="M422.687,441.124c-1.332,0.392-2.903,0.439-4.212-0.129
		c-0.458-0.19-0.862-0.488-1.245-0.828c0.892,1.341,2.496,2.036,4.066,2.22c0.546,0.064,1.062,0.095,1.661,0.044L422.687,441.124z"
		/>
</g>
<g>
	<defs>
		<rect id="SVGID_3_" width="1000" height="1000"/>
	</defs>
	<clipPath id="SVGID_4_">
		<use xlink:href="#SVGID_3_"  overflow="visible"/>
	</clipPath>
	<path clip-path="url(#SVGID_4_)" fill="#B59B76" d="M497.775,505.719c0,3.009-7.162,5.963-11.692,5.963
		c-4.531,0-10.716-2.865-10.716-5.872c0-3.009,6.185-5.021,10.716-5.021C490.613,500.789,497.775,502.711,497.775,505.719"/>
	<path clip-path="url(#SVGID_4_)" fill="#99CCE0" d="M641.031,346.637c-6.188,0-11.334-4.765-11.809-10.936l-0.105-1.362
		c-2.836-25.539,5.677-53.443,29.322-81.82c21.283-25.066,33.108-43.511,33.108-64.792c0-24.121-15.134-40.201-44.929-40.674
		c-11.175,0-23.162,2.444-33.426,6.664c-8.269,3.4-17.676-0.748-20.858-9.104c-2.984-7.832,0.577-16.672,8.194-20.168
		C615.951,117.368,636.087,113,655.131,113c54.388,0,78.979,33.58,78.979,69.524c0,32.16-17.97,55.334-40.673,82.292
		c-20.81,24.592-28.376,45.402-26.956,69.523c0.257,6.714-5.116,12.297-11.835,12.297H641.031z M619.783,409.792
		c1.295-15.859,12.68-26.74,28.252-26.74c16.554,0,27.905,12.296,27.905,29.796c0,14.076-7.867,25.416-20.981,28.495
		C633.544,446.37,617.992,431.716,619.783,409.792"/>
	<path clip-path="url(#SVGID_4_)" fill="#EFE6AF" d="M1049.749,144.117c-6.188,0-11.334-4.765-11.809-10.935l-0.105-1.362
		c-2.836-25.539,5.677-53.443,29.322-81.82c21.283-25.066,33.108-43.511,33.108-64.792c0-24.122-15.135-40.201-44.93-40.674
		c-11.174,0-23.162,2.444-33.425,6.664c-8.269,3.4-17.676-0.748-20.859-9.104c-2.983-7.832,0.577-16.672,8.195-20.168
		c15.421-7.077,35.558-11.445,54.601-11.445c54.389,0,78.98,33.58,78.98,69.524c0,32.16-17.97,55.334-40.673,82.292
		c-20.81,24.592-28.376,45.402-26.956,69.523c0.257,6.714-5.116,12.297-11.835,12.297H1049.749z M1028.5,207.273
		c1.295-15.859,12.68-26.74,28.252-26.74c16.555,0,27.906,12.296,27.906,29.796c0,14.076-7.867,25.416-20.982,28.495
		C1042.262,243.85,1026.709,229.197,1028.5,207.273"/>
</g>
</svg>
