<?xml version="1.0" encoding="utf-8"?>
<!-- Generator: Adobe Illustrator 16.0.0, SVG Export Plug-In . SVG Version: 6.00 Build 0)  -->
<!DOCTYPE svg PUBLIC "-//W3C//DTD SVG 1.1//EN" "http://www.w3.org/Graphics/SVG/1.1/DTD/svg11.dtd">
<svg version="1.1" id="Layer_1" xmlns="http://www.w3.org/2000/svg" xmlns:xlink="http://www.w3.org/1999/xlink" x="0px" y="0px"
	 width="634.468px" height="446.976px" viewBox="0 0 634.468 446.976" enable-background="new 0 0 634.468 446.976"
	 xml:space="preserve">
<g>
	<defs>
		<rect id="SVGID_1_" x="-184.106" y="-302.101" width="1000" height="1000"/>
	</defs>
	<clipPath id="SVGID_2_">
		<use xlink:href="#SVGID_1_"  overflow="visible"/>
	</clipPath>
	<g clip-path="url(#SVGID_2_)">
		<defs>
			<path id="SVGID_3_" d="M282.562-6.645c-15.14,4.721-58.721,18.312-89.587,57.465c-18.313,23.23-55.765,85.415-72.493,94.221
				c-5.697,2.999-11.781,5.62-11.781,5.62c-19.207,8.274-36.693,11.716-52.524,13.329c-5.588,0.582-10.976,0.923-16.157,1.172
				c-3.816,0.184-7.515,0.317-11.116,0.449c-2.976,0.108-5.87,0.217-8.697,0.358c-21.702,1.089-39.022,3.983-52.259,22.267
				c-0.922,1.28-1.795,2.586-2.61,3.908c-22.027,35.803-4.806,87.471-2.487,94.172c8.506,24.554,22.775,42.007,34.557,53.232
				c7.957,7.583,17.361,13.452,27.663,17.27c64.123,23.797,166.536,52.516,294.435,50.503
				c135.971-2.128,242.225-38.073,304.91-64.805c2.254-0.956,4.365-2.211,6.277-3.733c40.17-31.954,47.843-56.798,46.738-74.118
				c-1.672-26.066-23.481-39.494-68.332-85.342c-5.345-5.463-11.016-11.384-17.011-17.836
				c-12.007-12.921-19.373-21.568-24.828-28.361c-1.33-1.664-2.554-3.218-3.701-4.698c-8.388-10.835-12.746-17.644-28.794-34.448
				c-3.118-3.268-6.202-6.494-9.262-9.687C482.832,39.792,445.033,3.125,389.566-10.47c-1.699-0.415-4.066-0.983-7.021-1.601
				c-13.758-2.877-26.861-3.962-38.835-3.961C313.402-16.031,290.369-9.08,282.562-6.645"/>
		</defs>
		<clipPath id="SVGID_4_">
			<use xlink:href="#SVGID_3_"  overflow="visible"/>
		</clipPath>
		<g opacity="0.2" clip-path="url(#SVGID_4_)">
			<g>
				<defs>
					<rect id="SVGID_5_" x="66.042" y="113.774" width="37.9" height="100.134"/>
				</defs>
				<clipPath id="SVGID_6_">
					<use xlink:href="#SVGID_5_"  overflow="visible"/>
				</clipPath>
				<polyline clip-path="url(#SVGID_6_)" fill="#FFFFFF" points="66.042,213.908 93.117,213.908 103.942,185.309 103.942,113.774 
									"/>
			</g>
		</g>
		<line clip-path="url(#SVGID_4_)" fill="#724A3B" x1="108.016" y1="104.408" x2="108.016" y2="111.671"/>
		<rect x="-92.387" y="346.455" clip-path="url(#SVGID_4_)" fill="#7F584F" width="847.811" height="244.533"/>
		<rect x="-62.41" y="435.079" clip-path="url(#SVGID_4_)" fill="#754E48" width="141.69" height="1.143"/>
		<rect x="108.181" y="415.019" clip-path="url(#SVGID_4_)" fill="#754E48" width="100.97" height="1.142"/>
		<rect x="226.481" y="399.026" clip-path="url(#SVGID_4_)" fill="#754E48" width="87.153" height="1.142"/>
		<rect x="298.777" y="420.73" clip-path="url(#SVGID_4_)" fill="#754E48" width="90.817" height="1.142"/>
		<rect x="398.345" y="392.173" clip-path="url(#SVGID_4_)" fill="#754E48" width="80.572" height="1.142"/>
		<rect x="479.004" y="423.011" clip-path="url(#SVGID_4_)" fill="#754E48" width="83.301" height="1.142"/>
		<rect x="556.041" y="394.071" clip-path="url(#SVGID_4_)" fill="#754E48" width="70.557" height="1.143"/>
		<rect x="641.858" y="416.915" clip-path="url(#SVGID_4_)" fill="#754E48" width="109.327" height="1.143"/>
		<rect x="569.269" y="453.721" clip-path="url(#SVGID_4_)" fill="#754E48" width="96.65" height="1.142"/>
		<rect x="377.817" y="460.131" clip-path="url(#SVGID_4_)" fill="#754E48" width="101.043" height="1.142"/>
		<polygon clip-path="url(#SVGID_4_)" fill="#754E48" points="755.424,419.807 684.395,368.8 683.779,369.742 755.424,421.191 		"/>
		<polygon clip-path="url(#SVGID_4_)" fill="#754E48" points="755.424,588.124 610.169,368.944 609.274,369.596 755.424,590.126 		
			"/>
		<polygon clip-path="url(#SVGID_4_)" fill="#754E48" points="551.149,369.144 550.085,369.397 598.346,590.988 599.464,590.988 		
			"/>
		<rect x="478.371" y="369.271" clip-path="url(#SVGID_4_)" fill="#754E48" width="1.091" height="221.718"/>
		<polygon clip-path="url(#SVGID_4_)" fill="#754E48" points="337.981,590.988 339.125,590.988 405.798,369.442 404.758,369.099 		
			"/>
		<polygon clip-path="url(#SVGID_4_)" fill="#754E48" points="181.108,590.988 182.453,590.988 334.989,369.605 334.104,368.937 		
			"/>
		<polygon clip-path="url(#SVGID_4_)" fill="#754E48" points="20.222,590.988 21.862,590.988 259.333,369.697 258.608,368.844 		"/>
		<polygon clip-path="url(#SVGID_4_)" fill="#754E48" points="-92.387,555.748 174.975,369.747 174.372,368.795 -92.387,554.377 		
			"/>
		<polygon clip-path="url(#SVGID_4_)" fill="#754E48" points="-92.387,450.39 78.005,369.791 77.556,368.75 -92.387,449.137 		"/>
		<polygon clip-path="url(#SVGID_4_)" fill="#754E48" points="-92.387,395.605 -19.906,369.811 -20.256,368.729 -92.387,394.4 		"/>
		<rect x="-92.387" y="395.098" clip-path="url(#SVGID_4_)" fill="#754E48" width="114.404" height="1.142"/>
		<g opacity="0.15" clip-path="url(#SVGID_4_)">
			<g>
				<defs>
					<rect id="SVGID_7_" x="-92.387" y="381.479" width="231.05" height="38.067"/>
				</defs>
				<clipPath id="SVGID_8_">
					<use xlink:href="#SVGID_7_"  overflow="visible"/>
				</clipPath>
				<polygon clip-path="url(#SVGID_8_)" fill="#281010" points="138.664,382.24 -92.387,419.545 -92.387,381.479 				"/>
			</g>
		</g>
		<g opacity="0.15" clip-path="url(#SVGID_4_)">
			<g>
				<defs>
					<rect id="SVGID_9_" x="524.375" y="381.479" width="231.05" height="38.067"/>
				</defs>
				<clipPath id="SVGID_10_">
					<use xlink:href="#SVGID_9_"  overflow="visible"/>
				</clipPath>
				<polygon clip-path="url(#SVGID_10_)" fill="#281010" points="524.374,382.24 755.423,419.545 755.423,381.479 				"/>
			</g>
		</g>
		<rect x="-92.387" y="353.699" clip-path="url(#SVGID_4_)" fill="#6B4337" width="847.811" height="29.984"/>
		<g opacity="0.15" clip-path="url(#SVGID_4_)">
			<g>
				<defs>
					<rect id="SVGID_11_" x="123.373" y="236.64" width="22.074" height="136.116"/>
				</defs>
				<clipPath id="SVGID_12_">
					<use xlink:href="#SVGID_11_"  overflow="visible"/>
				</clipPath>
				<rect x="123.373" y="236.64" clip-path="url(#SVGID_12_)" fill="#281010" width="22.074" height="136.116"/>
			</g>
		</g>
		<g opacity="0.15" clip-path="url(#SVGID_4_)">
			<g>
				<defs>
					<rect id="SVGID_13_" x="515.716" y="236.64" width="22.074" height="136.116"/>
				</defs>
				<clipPath id="SVGID_14_">
					<use xlink:href="#SVGID_13_"  overflow="visible"/>
				</clipPath>
				<rect x="515.716" y="236.64" clip-path="url(#SVGID_14_)" fill="#281010" width="22.075" height="136.116"/>
			</g>
		</g>
		<rect x="201.908" y="57.502" clip-path="url(#SVGID_4_)" fill="#7A574E" width="2.812" height="182.445"/>
		<path clip-path="url(#SVGID_4_)" fill="#7A574E" d="M201.908,66.174v6.142l2.812-1.091V59.212
			C204.719,59.21,203.948,63.172,201.908,66.174"/>
		<path clip-path="url(#SVGID_4_)" fill="#7A574E" d="M204.719,59.21c0,0-1.379,5.831-11.791,22.491
			c-10.413,16.66-26.656,48.73-9.996,82.884c4.581,9.995,13.119,42.483-8.122,68.723h33.085c0,0,17.076-40.817,4.581-85.799
			C199.981,102.526,207.634,69.206,204.719,59.21"/>
		<path clip-path="url(#SVGID_4_)" fill="#7A574E" d="M202.047,49.605l-1.467,4.243c-0.65,1.879,0.745,3.839,2.734,3.839
			c1.988,0,3.383-1.96,2.734-3.839l-1.468-4.243C204.165,48.402,202.463,48.402,202.047,49.605"/>
		<rect x="204.563" y="57.502" clip-path="url(#SVGID_4_)" fill="#7B889B" width="2.812" height="182.445"/>
		<path clip-path="url(#SVGID_4_)" fill="#6B7B8E" d="M204.563,66.174v6.142l2.812-1.091V59.212
			C207.374,59.21,206.603,63.172,204.563,66.174"/>
		<rect x="204.563" y="57.501" clip-path="url(#SVGID_4_)" fill="#6B7B8E" width="2.812" height="1.344"/>
		<path clip-path="url(#SVGID_4_)" fill="#BDD8FF" d="M207.375,59.21c0,0,0.26,5.831-10.152,22.491
			c-10.413,16.66-19.992,48.73-3.332,82.884c4.581,9.995,11.662,42.483-9.58,68.723h26.24c0,0,17.076-40.817,4.581-85.799
			S210.29,69.206,207.375,59.21"/>
		<path clip-path="url(#SVGID_4_)" fill="#ACCFF9" d="M193.89,164.585c-0.642-1.316-1.245-2.63-1.811-3.939
			c1.803,2.546,6.827,9.659,9.487,13.586c3.121,4.607,19.813,30.845-4.537,59.076h-12.718
			C205.552,207.067,198.472,174.581,193.89,164.585"/>
		<path clip-path="url(#SVGID_4_)" fill="#D7E9FF" d="M219.184,170.07c-6.482-10.329-16.889-15.902-22.3-24.019
			c-9.163-13.745-5.415-34.986,2.291-51.438c5.521-11.788,7.941-24.218,8.87-30.317c0.59,13.814-3.776,44.106,7.087,83.212
			C217.271,155.212,218.544,162.794,219.184,170.07"/>
		<path clip-path="url(#SVGID_4_)" fill="#7B889B" d="M204.702,49.605l-1.467,4.243c-0.65,1.879,0.745,3.839,2.734,3.839
			c1.988,0,3.383-1.96,2.734-3.839l-1.468-4.243C206.819,48.402,205.118,48.402,204.702,49.605"/>
		<path clip-path="url(#SVGID_4_)" fill="#8897AA" d="M202.849,55.039c4.642-0.204,3.621-5.346,3.185-6.959
			c-0.43-0.026-0.874,0.203-1.043,0.692l-2.058,5.951C202.896,54.828,202.869,54.934,202.849,55.039"/>
		<rect x="458.152" y="57.502" clip-path="url(#SVGID_4_)" fill="#7A574E" width="2.813" height="182.445"/>
		<path clip-path="url(#SVGID_4_)" fill="#7A574E" d="M460.963,66.174v6.142l-2.813-1.091V59.212
			C458.152,59.21,458.923,63.172,460.963,66.174"/>
		<path clip-path="url(#SVGID_4_)" fill="#7A574E" d="M458.152,59.21c0,0,1.379,5.831,11.791,22.491
			c10.413,16.66,26.656,48.73,9.996,82.884c-4.581,9.995-13.12,42.483,8.122,68.723h-33.085c0,0-17.076-40.817-4.581-85.799
			S455.236,69.206,458.152,59.21"/>
		<path clip-path="url(#SVGID_4_)" fill="#7A574E" d="M460.824,49.605l1.467,4.243c0.65,1.879-0.744,3.839-2.733,3.839
			c-1.988,0-3.383-1.96-2.734-3.839l1.468-4.243C458.707,48.402,460.408,48.402,460.824,49.605"/>
		<rect x="455.496" y="57.502" clip-path="url(#SVGID_4_)" fill="#7B889B" width="2.813" height="182.445"/>
		<path clip-path="url(#SVGID_4_)" fill="#6B7B8E" d="M458.308,66.174v6.142l-2.812-1.091V59.212
			C455.498,59.21,456.268,63.172,458.308,66.174"/>
		<rect x="455.496" y="57.501" clip-path="url(#SVGID_4_)" fill="#6B7B8E" width="2.813" height="1.344"/>
		<path clip-path="url(#SVGID_4_)" fill="#CE4A4A" d="M455.497,59.21c0,0-0.26,5.831,10.152,22.491
			c10.413,16.66,19.992,48.73,3.332,82.884c-4.581,9.995-11.662,42.483,9.58,68.723h-26.24c0,0-17.076-40.817-4.581-85.799
			S452.581,69.206,455.497,59.21"/>
		<path clip-path="url(#SVGID_4_)" fill="#BF3D3D" d="M468.981,164.585c0.642-1.316,1.245-2.63,1.812-3.939
			c-1.804,2.546-6.827,9.659-9.487,13.586c-3.121,4.607-19.813,30.845,4.537,59.076h12.718
			C457.319,207.067,464.399,174.581,468.981,164.585"/>
		<path clip-path="url(#SVGID_4_)" fill="#E55757" d="M443.688,170.07c6.481-10.329,16.889-15.902,22.3-24.019
			c9.163-13.745,5.415-34.986-2.291-51.438c-5.521-11.788-7.941-24.218-8.87-30.317c-0.59,13.814,3.776,44.106-7.087,83.212
			C445.599,155.212,444.327,162.794,443.688,170.07"/>
		<path clip-path="url(#SVGID_4_)" fill="#7B889B" d="M458.168,49.605l1.468,4.243c0.649,1.879-0.745,3.839-2.734,3.839
			c-1.988,0-3.383-1.96-2.734-3.839l1.469-4.243C456.052,48.402,457.752,48.402,458.168,49.605"/>
		<path clip-path="url(#SVGID_4_)" fill="#8897AA" d="M460.022,55.039c-4.642-0.204-3.621-5.346-3.185-6.959
			c0.43-0.026,0.874,0.203,1.043,0.692l2.058,5.951C459.975,54.828,460.002,54.934,460.022,55.039"/>
		<path clip-path="url(#SVGID_4_)" fill="#381B19" d="M382.806,239.635H275.857l-5.211-76.17
			c-1.124-16.422,11.894-30.361,28.354-30.361h60.664c16.459,0,29.477,13.939,28.353,30.361L382.806,239.635z"/>
		<path clip-path="url(#SVGID_4_)" fill="#442221" d="M270.873,166.777c1.981-13.65,13.739-24.302,28.127-24.302h60.664
			c14.39,0,26.147,10.652,28.127,24.302l0.228-3.313c1.123-16.422-11.895-30.361-28.354-30.361H299
			c-16.46,0-29.477,13.939-28.354,30.361L270.873,166.777z"/>
		<path clip-path="url(#SVGID_4_)" fill="#F2C9A0" d="M345.969,166.062c0,5.076-7.543,9.191-16.849,9.191
			c-9.308,0-16.485-3.339-16.485-8.415c0-2.969,4.553-5.546,9.127-7.019v-15.207h14.71v15.207
			C341.052,161.292,345.969,163.094,345.969,166.062"/>
		<path clip-path="url(#SVGID_4_)" fill="#DBAC89" d="M336.472,144.612v13.147c-1.506,0.617-4.402,1.567-8.095,1.29
			c-2.966-0.223-5.251-1.148-6.615-1.829v-12.608H336.472z"/>
		<path clip-path="url(#SVGID_4_)" fill="#D3D3D3" d="M329.307,220.186c0,0-21.885-43.998-18.576-53.183
			c1.062-3.934,7.572-6.28,7.572-6.28s5.055,2.801,11.029,2.801s11.03-2.801,11.03-2.801s5.94,3.916,6.988,7.782
			C350.66,177.69,329.307,220.186,329.307,220.186"/>
		<polygon clip-path="url(#SVGID_4_)" fill="#FFFFFF" points="337.118,157.481 329.332,163.521 334.523,171.575 340.362,160.72 		
			"/>
		<polygon clip-path="url(#SVGID_4_)" fill="#FFFFFF" points="321.546,157.481 329.333,163.521 324.141,171.575 318.302,160.72 		
			"/>
		<path clip-path="url(#SVGID_4_)" fill="#E4C77B" d="M331.056,236.315c0,0.952-0.771,1.725-1.724,1.725
			c-0.953,0-1.726-0.772-1.726-1.725c0-0.951,0.772-1.724,1.726-1.724C330.285,234.592,331.056,235.364,331.056,236.315"/>
		<path clip-path="url(#SVGID_4_)" fill="#E4C77B" d="M331.056,253.967c0,0.952-0.771,1.726-1.724,1.726
			c-0.953,0-1.726-0.773-1.726-1.726s0.772-1.724,1.726-1.724C330.285,252.243,331.056,253.015,331.056,253.967"/>
		<path clip-path="url(#SVGID_4_)" fill="#292937" d="M358.633,167.286c2.896,0,5.795,0.608,7.633,2.206
			c1.838,1.597,2.768,3.614,3.657,5.581c6.294,13.895,12.587,27.792,18.88,41.686c-1.188,0.78-2.584,1.4-4.092,1.813
			c0.188,0.559,0.376,1.118,0.563,1.679c-2.426,0.851-3.688,1.439-7.521,2.33c-1.744,0.404-4.469,0.288-6.276,0.392l0.112,0.791
			c-3.524,0.162-7.067,0.116-10.58-0.136c0,0-4.66-34.006-7.572-41.486C350.525,174.662,355.8,167.286,358.633,167.286"/>
		<path clip-path="url(#SVGID_4_)" fill="#1E1E29" d="M371.509,222.972c0.343-0.02,0.717-0.031,1.112-0.04
			c-0.704-1.441-2.4-4.217-2.4-4.217S371.261,221.553,371.509,222.972"/>
		<path clip-path="url(#SVGID_4_)" fill="#1E1E29" d="M386,218.156c-1.554-1.774-4.87-5.212-4.87-5.212s2.549,3.915,3.666,5.873
			c-0.028-0.082-0.057-0.164-0.083-0.246C385.152,218.45,385.581,218.311,386,218.156"/>
		<path clip-path="url(#SVGID_4_)" fill="#1E1E29" d="M357.399,187.557c-0.439-2.604,0.639-6.895,0.835-8.103
			c0.445-2.727-3.049-3.767-5.197-5.222c-0.631,2.375-0.68,5.134,0.4,7.91c2.912,7.48,7.572,41.486,7.572,41.486
			c1.82,0.13,3.648,0.204,5.477,0.225c-0.788-0.742-1.382-1.676-1.719-2.856C361.195,209.187,357.839,190.161,357.399,187.557"/>
		<path clip-path="url(#SVGID_4_)" fill="#292937" d="M300.031,167.286c-2.896,0-5.795,0.608-7.633,2.206
			c-1.838,1.597-2.767,3.614-3.657,5.581l-18.88,41.686c1.188,0.78,2.584,1.4,4.092,1.813c-0.188,0.559-0.376,1.118-0.564,1.679
			c2.426,0.851,3.688,1.439,7.522,2.33c1.744,0.404,4.469,0.288,6.276,0.392l-0.112,0.791c3.524,0.162,7.067,0.116,10.58-0.136
			c0,0,4.66-34.006,7.572-41.486C308.139,174.662,302.864,167.286,300.031,167.286"/>
		<path clip-path="url(#SVGID_4_)" fill="#1E1E29" d="M287.155,222.972c-0.343-0.02-0.717-0.031-1.112-0.04
			c0.704-1.441,2.4-4.217,2.4-4.217S287.403,221.553,287.155,222.972"/>
		<path clip-path="url(#SVGID_4_)" fill="#1E1E29" d="M272.665,218.156c1.553-1.774,4.87-5.212,4.87-5.212s-2.549,3.915-3.666,5.873
			c0.028-0.082,0.056-0.164,0.083-0.246C273.512,218.45,273.083,218.311,272.665,218.156"/>
		<path clip-path="url(#SVGID_4_)" fill="#1E1E29" d="M301.265,187.557c0.44-2.604-0.638-6.895-0.835-8.103
			c-0.445-2.727,3.049-3.767,5.198-5.222c0.631,2.375,0.679,5.134-0.401,7.91c-2.912,7.48-7.572,41.486-7.572,41.486
			c-1.82,0.13-3.648,0.204-5.476,0.225c0.788-0.742,1.381-1.676,1.718-2.856C297.47,209.187,300.825,190.161,301.265,187.557"/>
		<path clip-path="url(#SVGID_4_)" fill="#292937" d="M363.908,271.698c-0.514-0.754-4.663-79.287-4.61-86.122
			c0.023-3.079,5.827-13.983,3.666-16.758c-2.148-2.758-18.471-6.398-21.145-7.034c-0.19-0.045-0.04,6.037-0.04,13.936
			c0,6.11-10.507,11.207-13.18,11.207s-13.143-4.855-13.143-11.132c0-7.81,0.191-13.804-0.02-13.741
			c-2.254,0.668-17.938,4.361-19.81,6.764c-2.162,2.775,3.642,13.679,3.666,16.758c0.053,6.835-4.097,85.368-4.611,86.122
			c-1.286,1.888,4.076,2.821,7.945,2.877c0,0,16.519,1.488,25.746,1.488c9.229,0,27.592-1.488,27.592-1.488
			C359.829,274.52,365.194,273.586,363.908,271.698"/>
		<path clip-path="url(#SVGID_4_)" fill="#232330" d="M333.73,185.107h25.605c0.499-3.589,5.69-13.64,3.628-16.289
			c-2.148-2.758-18.47-6.398-21.145-7.034c-0.191-0.045-0.04,6.037-0.04,13.936C341.779,179.612,337.515,183.092,333.73,185.107"/>
		<path clip-path="url(#SVGID_4_)" fill="#232330" d="M323.355,185.107c-3.744-1.967-7.899-5.357-7.899-9.312
			c0-7.81,0.191-13.804-0.02-13.741c-2.254,0.668-17.939,4.361-19.81,6.764c-2.063,2.649,3.128,12.7,3.627,16.289H323.355z"/>
		<polygon clip-path="url(#SVGID_4_)" fill="#1E1E29" points="329.16,276.063 329.004,186.895 328.098,186.895 328.696,276.063 		
			"/>
		<polygon clip-path="url(#SVGID_4_)" fill="#1E1E29" points="318.031,185.107 318.987,185.107 317.881,266.029 		"/>
		<polygon clip-path="url(#SVGID_4_)" fill="#1E1E29" points="306.446,185.107 307.402,185.107 306.297,256.218 		"/>
		<polygon clip-path="url(#SVGID_4_)" fill="#1E1E29" points="351.438,185.107 352.394,185.107 351.289,259.484 		"/>
		<polygon clip-path="url(#SVGID_4_)" fill="#1E1E29" points="339.854,185.107 340.81,185.107 339.705,256.218 		"/>
		<path clip-path="url(#SVGID_4_)" fill="#F2C9A0" d="M354.395,136.141c-0.671,3.47-6.112,8.562-7.783,8.224
			s-0.444-5.527,0.256-8.992c0.701-3.464,1.307-5.378,2.725-6.324C351.65,127.677,355.767,129.049,354.395,136.141"/>
		<path clip-path="url(#SVGID_4_)" fill="#F2C9A0" d="M304.438,136.104c0.671,3.47,4.393,8.546,6.064,8.208s2.163-5.511,1.463-8.976
			c-0.701-3.464-1.306-5.378-2.724-6.324C307.183,127.64,303.066,129.012,304.438,136.104"/>
		<path clip-path="url(#SVGID_4_)" fill="#F2C9A0" d="M328.377,157.448c-16.341-0.532-21.602-20.475-18.86-32.749
			c0.784-8.777,4.477-12.091,6.102-13.262c2.285-1.645,3.596-1.297,13.258-3.065c10.119-1.852,11.16-2.687,13.256-1.824
			c6.153,2.537,6.964,13.781,7.099,18.151C350.412,131.917,345.014,157.99,328.377,157.448"/>
		<path clip-path="url(#SVGID_4_)" fill="#96928A" d="M348.056,134.249c-0.553-0.038,0.635-7.319-1.492-15.792
			c-1.254-4.998-3.273-8.865-4.851-11.426c-1.529,0.471-3.965,1.173-7.006,1.832c-6.259,1.356-8.647,1.133-12.505,2.264
			c-1.836,0.538-4.633,2.026-7.591,4.032c-1.779,1.207-2.544,3.412-2.045,5.503c0.071,0.297,0.133,0.61,0.178,0.947v0.001
			c0.075,0.502,0.085,0.895,0.08,1.051c-0.012,0.367-0.204,5.801-0.487,13.263c-0.368-0.554-0.892-1.392-1.425-2.464
			c-0.643-1.291-0.945-2.305-1.243-3.003c-0.882-2.071-1.777-3.604-2.127-5.209c-0.343-1.577-0.764-5.207,2.048-10.348
			c2.044-5.669,5.201-8.391,6.899-9.594c2.279-1.616,2.518-0.912,13.905-4.204c4.704-1.36,6.427-1.99,8.408-1.078
			c2.838,1.305,3.905,4.713,4.313,6.468c1.45,0.612,4.141,2.021,5.928,4.958c1.824,2.996,1.77,6.038,1.725,8.516
			c-0.016,0.884-0.177,1.327-0.861,5.498C348.621,133.288,348.243,134.262,348.056,134.249"/>
		<path clip-path="url(#SVGID_4_)" fill="#96928A" d="M332.417,129.637l0.066,2.291c0,0,8.789-0.366,10.192,0.404
			C342.676,132.332,340.73,131.085,332.417,129.637"/>
		<path clip-path="url(#SVGID_4_)" fill="#96928A" d="M322.701,129.83l0.193,2.284c0,0-8.773,0.635-10.08,1.56
			C312.814,133.674,314.606,132.213,322.701,129.83"/>
		<path clip-path="url(#SVGID_4_)" fill="#FFFFFF" d="M321.847,136.51l-1.035,0.998c-0.223,0.143-0.46,0.254-0.703,0.333
			c-0.449,0.153-0.929,0.201-1.399,0.137c-0.47-0.063-0.925-0.232-1.337-0.507l-1.479-0.993l1.632-0.998
			c1.004-0.613,2.266-0.613,3.27,0L321.847,136.51z"/>
		<path clip-path="url(#SVGID_4_)" fill="#42210B" d="M320.526,136.927c0,0.364-0.163,0.692-0.417,0.914
			c-0.448,0.153-0.93,0.2-1.399,0.137c-0.364-0.211-0.607-0.602-0.607-1.051c0-0.671,0.544-1.215,1.209-1.215
			C319.982,135.712,320.526,136.256,320.526,136.927"/>
		<path clip-path="url(#SVGID_4_)" fill="#FFFFFF" d="M333.996,135.879l1.035,0.998c0.222,0.143,0.46,0.254,0.703,0.333
			c0.449,0.153,0.929,0.201,1.398,0.137c0.472-0.063,0.926-0.232,1.338-0.507l1.479-0.993l-1.632-0.998
			c-1.004-0.613-2.266-0.613-3.271,0L333.996,135.879z"/>
		<path clip-path="url(#SVGID_4_)" fill="#42210B" d="M335.316,136.296c0,0.364,0.164,0.692,0.417,0.914
			c0.449,0.153,0.931,0.201,1.4,0.137c0.364-0.211,0.607-0.602,0.607-1.051c0-0.671-0.544-1.215-1.209-1.215
			C335.86,135.082,335.316,135.625,335.316,136.296"/>
		<g opacity="0.41" clip-path="url(#SVGID_4_)">
			<g>
				<defs>
					<rect id="SVGID_15_" x="313.292" y="135.116" width="11.728" height="6.306"/>
				</defs>
				<clipPath id="SVGID_16_">
					<use xlink:href="#SVGID_15_"  overflow="visible"/>
				</clipPath>
				<polygon clip-path="url(#SVGID_16_)" fill="#E8DCD6" points="323.966,141.422 314.345,141.422 313.292,135.117 325.02,135.117 
					324.644,137.364 324.584,137.721 				"/>
			</g>
		</g>
		<path clip-path="url(#SVGID_4_)" fill="#42210B" d="M324.19,141.687h-10.067l-1.142-6.834h12.351L324.19,141.687z
			 M314.569,141.159h9.173l0.966-5.778h-11.104L314.569,141.159z"/>
		<g opacity="0.41" clip-path="url(#SVGID_4_)">
			<g>
				<defs>
					<rect id="SVGID_17_" x="330.13" y="134.588" width="11.727" height="6.306"/>
				</defs>
				<clipPath id="SVGID_18_">
					<use xlink:href="#SVGID_17_"  overflow="visible"/>
				</clipPath>
				<polygon clip-path="url(#SVGID_18_)" fill="#E8DCD6" points="340.804,140.895 331.183,140.895 330.129,134.588 341.858,134.588 
									"/>
			</g>
		</g>
		<path clip-path="url(#SVGID_4_)" fill="#42210B" d="M341.027,141.158h-10.067l-1.142-6.834h12.351L341.027,141.158z
			 M331.407,140.63h9.173l0.966-5.778h-11.104L331.407,140.63z"/>
		<path clip-path="url(#SVGID_4_)" fill="#42210B" d="M324.821,137.914l-0.246-0.451c0.027-0.031,2.836-3.068,6.04-0.287
			l-0.238,0.492C327.558,135.222,324.92,137.803,324.821,137.914"/>
		<polygon clip-path="url(#SVGID_4_)" fill="#42210B" points="313.547,138.139 309.257,130.28 308.921,128.795 314.003,137.872 		
			"/>
		<polygon clip-path="url(#SVGID_4_)" fill="#42210B" points="341.729,137.565 341.362,137.185 349.343,128.96 349.197,129.741 		
			"/>
		<path clip-path="url(#SVGID_4_)" fill="#DBAC89" d="M324.787,149.326c0,0,3.088,3.04,8.036,0L328.425,148L324.787,149.326z"/>
		<path clip-path="url(#SVGID_4_)" fill="#DBAC89" d="M328.054,147.039c-1.483,0-2.356-0.64-2.413-0.682
			c-0.115-0.088-0.139-0.253-0.052-0.369c0.088-0.117,0.253-0.14,0.37-0.053c0.078,0.058,1.957,1.412,4.998-0.244
			c0.128-0.07,0.288-0.023,0.358,0.105c0.069,0.128,0.021,0.289-0.106,0.358C329.98,146.824,328.915,147.039,328.054,147.039"/>
		<path clip-path="url(#SVGID_4_)" fill="#DBAC89" d="M328.873,153.099c-0.898,0-1.426-0.387-1.46-0.413
			c-0.071-0.053-0.084-0.153-0.032-0.223c0.053-0.071,0.153-0.085,0.225-0.032c0.047,0.035,1.184,0.854,3.024-0.148
			c0.077-0.042,0.174-0.014,0.217,0.064c0.042,0.077,0.014,0.175-0.063,0.217C330.038,152.969,329.392,153.099,328.873,153.099"/>
		<path clip-path="url(#SVGID_4_)" fill="#96928A" d="M333.247,150.404c-0.676-0.415-1.291-0.835-1.844-1.25
			c0.2,0.323,0.277,0.502,0.23,0.543c-0.071,0.062-0.404-0.184-0.999-0.732c0.271,0.317,0.39,0.507,0.344,0.558
			c-0.062,0.077-0.44-0.102-1.132-0.543c0.163,0.241,0.221,0.39,0.174,0.441c-0.066,0.066-0.349-0.062-0.839-0.39
			c-0.097,0.112-0.202,0.177-0.31,0.212c-0.008,0.004-0.018,0.011-0.023,0.014c-0.017,0.01-0.031,0.015-0.053,0.015
			c-0.056,0.016-0.111,0.016-0.163,0c-0.021,0-0.035-0.005-0.052-0.015c-0.006-0.003-0.016-0.01-0.023-0.014
			c-0.107-0.035-0.214-0.1-0.31-0.212c-0.491,0.328-0.772,0.456-0.84,0.39c-0.046-0.051,0.016-0.2,0.175-0.441
			c-0.691,0.441-1.07,0.62-1.132,0.543c-0.046-0.051,0.072-0.241,0.348-0.558c-0.599,0.548-0.932,0.794-1.004,0.732
			c-0.046-0.041,0.031-0.22,0.231-0.543c-0.553,0.415-1.168,0.835-1.839,1.25c-0.379,0.23-0.748,0.446-1.106,0.64
			c0.062-0.609,0.267-1.69,1.05-2.612c0.185-0.22,0.445-0.517,0.882-0.747c0.624-0.328,1.243-0.323,1.786-0.318
			c0.492,0.005,0.896,0.072,1.174,0.133c0.082,0.092,0.312,0.328,0.676,0.384c0.02,0.005,0.046,0.005,0.065,0.005
			c0.021,0,0.048,0,0.067-0.005c0.364-0.056,0.594-0.292,0.681-0.384c0.272-0.061,0.677-0.128,1.173-0.133
			c0.538-0.005,1.157-0.01,1.782,0.318c0.437,0.23,0.697,0.527,0.881,0.747c0.784,0.922,0.989,2.003,1.056,2.612
			C333.99,150.851,333.621,150.634,333.247,150.404"/>
		<rect x="133.987" y="217.181" clip-path="url(#SVGID_4_)" fill="#7C5342" width="395.063" height="155.575"/>
		<rect x="133.987" y="217.18" clip-path="url(#SVGID_4_)" fill="#724A3B" width="395.063" height="18.21"/>
		<path clip-path="url(#SVGID_4_)" fill="#724A3B" d="M524.757,231.88H138.28c-4.096,0-7.416-3.32-7.416-7.417
			c0-5.172,4.193-9.366,9.365-9.366h382.579c5.172,0,9.366,4.194,9.366,9.366C532.174,228.56,528.853,231.88,524.757,231.88"/>
		<path clip-path="url(#SVGID_4_)" fill="#FFCB7E" d="M321.961,241.313H147.929c-2.115,0-3.83,1.715-3.83,3.83v115.452
			c0,2.116,1.715,3.831,3.83,3.831h174.032c2.115,0,3.83-1.715,3.83-3.831V245.143C325.792,243.027,324.077,241.313,321.961,241.313
			"/>
		<path clip-path="url(#SVGID_4_)" fill="#724A3B" d="M317.361,245.601H152.229c-2.115,0-3.83,1.715-3.83,3.829v106.878
			c0,2.115,1.715,3.83,3.83,3.83h165.131c2.114,0,3.83-1.715,3.83-3.83V249.43C321.191,247.315,319.475,245.601,317.361,245.601"/>
		<path clip-path="url(#SVGID_4_)" fill="#FFCB7E" d="M337.246,245.143v115.452c0,2.116,1.715,3.83,3.83,3.83h174.031
			c2.115,0,3.83-1.714,3.83-3.83V245.143c0-2.114-1.715-3.83-3.83-3.83H341.076C338.96,241.313,337.246,243.028,337.246,245.143"/>
		<path clip-path="url(#SVGID_4_)" fill="#724A3B" d="M342.122,249.431v106.877c0,2.114,1.715,3.83,3.829,3.83h164.856
			c2.116,0,3.83-1.716,3.83-3.83V249.431c0-2.115-1.714-3.83-3.83-3.83H345.951C343.836,245.601,342.122,247.315,342.122,249.431"/>
		<path clip-path="url(#SVGID_4_)" fill="#6B4337" d="M130.864,223.728v4.074c0,2.252,1.826,4.078,4.078,4.078h393.154
			c2.252,0,4.078-1.826,4.078-4.078v-4.074H130.864z"/>
		<path clip-path="url(#SVGID_4_)" fill="#6B4337" d="M311.628,252.39H162.023c-1.917,0-3.47,1.555-3.47,3.471v96.829
			c0,1.916,1.553,3.47,3.47,3.47h149.605c1.916,0,3.47-1.554,3.47-3.47V255.86C315.098,253.944,313.544,252.39,311.628,252.39"/>
		<path clip-path="url(#SVGID_4_)" fill="#7C5342" d="M309.598,250.984H159.993c-1.917,0-3.47,1.554-3.47,3.47v96.829
			c0,1.916,1.553,3.471,3.47,3.471h149.605c1.916,0,3.47-1.555,3.47-3.471v-96.829C313.068,252.538,311.514,250.984,309.598,250.984
			"/>
		<path clip-path="url(#SVGID_4_)" fill="#7F5546" d="M267.668,250.984H159.993c-1.917,0-3.47,1.554-3.47,3.47v61.405
			C254.263,315.561,266.348,267.051,267.668,250.984"/>
		<path clip-path="url(#SVGID_4_)" fill="#6B4337" d="M505.215,252.39H355.611c-1.917,0-3.47,1.555-3.47,3.471v96.829
			c0,1.916,1.553,3.47,3.47,3.47h149.604c1.916,0,3.471-1.554,3.471-3.47V255.86C508.686,253.944,507.131,252.39,505.215,252.39"/>
		<path clip-path="url(#SVGID_4_)" fill="#7C5342" d="M503.185,250.984H353.581c-1.917,0-3.47,1.554-3.47,3.47v96.829
			c0,1.916,1.553,3.471,3.47,3.471h149.604c1.917,0,3.471-1.555,3.471-3.471v-96.829
			C506.656,252.538,505.102,250.984,503.185,250.984"/>
		<path clip-path="url(#SVGID_4_)" fill="#7F5546" d="M461.256,250.984H353.581c-1.917,0-3.471,1.554-3.471,3.47v61.405
			C447.851,315.561,459.935,267.051,461.256,250.984"/>
		<path clip-path="url(#SVGID_4_)" fill="#543730" d="M373.712,269.813h-84.389c-7.226,0-13.085-5.857-13.085-13.085
			c0-7.227,5.859-13.085,13.085-13.085h84.389c7.228,0,13.085,5.858,13.085,13.085C386.797,263.956,380.94,269.813,373.712,269.813"
			/>
		<path clip-path="url(#SVGID_4_)" fill="#8E695C" d="M373.461,267.314h-83.886c-5.847,0-10.586-4.739-10.586-10.586
			s4.739-10.586,10.586-10.586h83.886c5.848,0,10.586,4.739,10.586,10.586S379.309,267.314,373.461,267.314"/>
		<path clip-path="url(#SVGID_4_)" fill="#9B776B" d="M281.932,246.143c-1.625,0-2.942,1.316-2.942,2.941v10.525h90.246
			c1.625,0,2.941-1.317,2.941-2.942v-10.524H281.932z"/>
		<path clip-path="url(#SVGID_4_)" fill="#543730" d="M308.599,263.501v-1.712c0.14,0.011,0.358,0.017,0.654,0.017
			c0.342,0,0.607-0.084,0.798-0.251c0.19-0.167,0.285-0.465,0.285-0.893v-9.136h1.879v9.002c0,2.004-0.902,3.006-2.706,3.006
			C309.107,263.534,308.804,263.523,308.599,263.501"/>
		<path clip-path="url(#SVGID_4_)" fill="#543730" d="M316.427,260.646v-9.119h1.879v9.235c0,0.779,0.326,1.169,0.977,1.169
			c0.646,0,0.97-0.39,0.97-1.169v-9.235h1.879v9.119c0,0.963-0.252,1.705-0.755,2.226c-0.504,0.521-1.215,0.78-2.134,0.78
			c-0.92,0-1.618-0.26-2.098-0.78S316.427,261.608,316.427,260.646"/>
		<path clip-path="url(#SVGID_4_)" fill="#543730" d="M326.327,263.501v-11.975h2.973c0.931,0,1.63,0.253,2.101,0.76
			c0.471,0.506,0.706,1.241,0.706,2.204v6.055c0,0.963-0.235,1.696-0.706,2.2s-1.17,0.756-2.101,0.756H326.327z M328.206,261.789
			h1.061c0.312,0,0.55-0.09,0.715-0.271c0.163-0.182,0.245-0.479,0.245-0.891v-6.229c0-0.412-0.082-0.708-0.245-0.89
			c-0.165-0.181-0.403-0.271-0.715-0.271h-1.061V261.789z"/>
		<path clip-path="url(#SVGID_4_)" fill="#543730" d="M336.151,260.628v-6.229c0-0.963,0.238-1.705,0.715-2.225
			c0.478-0.521,1.177-0.781,2.098-0.781c0.922,0,1.636,0.26,2.141,0.781c0.506,0.52,0.759,1.262,0.759,2.225v1.169h-1.879v-1.286
			c0-0.785-0.293-1.177-0.88-1.177c-0.716,0-1.074,0.392-1.074,1.177v6.464c0,0.779,0.358,1.169,1.074,1.169
			c0.587,0,0.88-0.39,0.88-1.169v-2.205h-0.752v-1.712h2.631v3.8c0,0.964-0.253,1.705-0.759,2.226
			c-0.505,0.521-1.219,0.781-2.141,0.781c-0.921,0-1.62-0.261-2.098-0.781C336.389,262.333,336.151,261.592,336.151,260.628"/>
		<polygon clip-path="url(#SVGID_4_)" fill="#543730" points="345.984,263.501 345.984,251.526 351.111,251.526 351.111,253.238 
			347.863,253.238 347.863,256.578 350.443,256.578 350.443,258.282 347.863,258.282 347.863,261.789 351.111,261.789 
			351.111,263.501 		"/>
		<path clip-path="url(#SVGID_4_)" fill="#4C6580" d="M505.492,226.727c0,0-18.809,6.307-21.69,8.607l0.472,2.435l21.876-8.764
			L505.492,226.727z"/>
		<path clip-path="url(#SVGID_4_)" fill="#BC956B" d="M608.057,323.11l-8.91,8.875l-10.57-9.37c0,0,2.927-1.855,3.783-6.627
			L608.057,323.11z"/>
		<path clip-path="url(#SVGID_4_)" fill="#BC956B" d="M474.81,242.775c-29.444,31.482-62.051,46.222-96.31,11.218
			c-4.548-4.473-11.533,0.417-8.892,6.383c31.699,56.552,84.425,46.221,125.956,6.725
			C513.206,252.976,491.395,227.33,474.81,242.775"/>
		<path clip-path="url(#SVGID_4_)" fill="#5190B7" d="M370.491,264.887c0.728,1.356,1.531,2.806,2.513,4.43
			c3.01,4.974,8.968,11.139,18.387,21.576c14.148,12.489,33.023,19.817,53.015,18.4c0.004,0,0.008-0.004,0.013-0.004
			c13.557-0.958,27.629-5.94,41.088-16.065c4.518-3.394,8.964-7.369,13.3-11.965l-16.432-43.816c0,0-9.824,4.179-14.685,8.275
			c-32.427,27.315-45.27,40.318-81.095,13.465c-1.486-1.109-3.009-2.294-4.572-3.549c-0.426,1.229-1.207,2.951-2.68,4.618
			C376.122,263.898,371.889,264.688,370.491,264.887"/>
		<path clip-path="url(#SVGID_4_)" fill="#BC956B" d="M353.732,254.201c-5.477,0.584-6.153-7.318-0.436-4.37l-0.094,0.009
			C356.026,249.458,356.567,253.901,353.732,254.201"/>
		<path clip-path="url(#SVGID_4_)" fill="#BC956B" d="M354.25,251.129c-7.281-1.241-3.281-8.654,0-4.509
			c-0.018-0.053-0.058-0.054,0.039,0.004c0.092,0.054,0.265,0.112,0.387,0.133c0.004,0.002,0.06,0.008-0.017-0.001
			C357.5,246.982,357.084,251.439,354.25,251.129"/>
		<path clip-path="url(#SVGID_4_)" fill="#BC956B" d="M354.668,247.516l-2.024-0.886c-2.627-1.104-0.839-5.205,1.758-4.022
			l2.024,0.886C359.053,244.596,357.265,248.698,354.668,247.516"/>
		<path clip-path="url(#SVGID_4_)" fill="#BC956B" d="M378.153,253.652c-1.053-0.92-2.581-2.462-3.799-4.727
			c-1.393-2.586-1.314-4.137-1.994-5.442c-1.075-2.066-5.489,1.673-14.617-3.584l-5.419,13.51c0,0,7.913,8.959,20.01,10.265
			L378.153,253.652z"/>
		<path clip-path="url(#SVGID_4_)" fill="#BC956B" d="M365.759,243.314c-1.994-2.341-22.811-10.54-23.169-5.931
			c-0.212,1.839,1.976,1.91,3.245,2.228c4.768,1.167,9.43,3.064,13.541,5.746c2.186,1.083,4.104,4.622,6.763,2.637
			C367.75,246.779,367.45,244.304,365.759,243.314"/>
		<path clip-path="url(#SVGID_4_)" fill="#BC956B" d="M360.967,232.272c2.104,5.661,4.162,11.486,5.813,17.265
			c1.477,4.897,7.936,2.382,6.635-2.576c-2.188-8.34-5.016-11.133-9.151-16.306C362.894,228.94,360.131,230.264,360.967,232.272"/>
		<path clip-path="url(#SVGID_4_)" fill="#987957" d="M355.404,253.646c1.604-1.892-0.505-3.989-0.085-1.848
			c0.136,2.172-1.719,1.669-1.917,2.44C353.792,254.999,355.018,254.088,355.404,253.646"/>
		<path clip-path="url(#SVGID_4_)" fill="#987957" d="M356.396,250.564c0.709-0.632,0.937-3.16-0.293-3.107
			c-0.455,0.616,1.027,1.627-0.458,2.922c-0.977,0.816-2.362,0.288-3.356-0.224c-0.465-0.104-1.181-1.366-1.705-0.992
			c-0.126,0.129-0.125,0.341,0.006,0.469C352.004,251.09,354.792,252.405,356.396,250.564"/>
		<path clip-path="url(#SVGID_4_)" fill="#987957" d="M357.484,247.133c1.08-1.252,0.606-3.302-0.926-3.944l-2.023-0.885
			c-0.392-0.177-0.663,0.438-0.267,0.606l2.024,0.887c2.235,0.938,0.707,4.419-1.492,3.416c-0.04-0.017-1.881-0.678-2.971-1.782
			c-0.128-0.13-0.338-0.132-0.468-0.003c-0.132,0.129-0.132,0.338-0.004,0.468C353.771,247.792,355.608,248.941,357.484,247.133"/>
		<path clip-path="url(#SVGID_4_)" fill="#987957" d="M369.029,253.814c-4.719-3.824-4.696-12.058-4.406-12.13
			c-1.497-1.471-1.476,9.739,3.877,12.103C368.698,253.875,368.893,253.983,369.029,253.814"/>
		<path clip-path="url(#SVGID_4_)" fill="#4080A0" d="M444.417,309.289c13.556-0.958,27.628-5.94,41.087-16.065l-8.753-5.015
			C476.751,288.209,467.15,303.19,444.417,309.289"/>
		<path clip-path="url(#SVGID_4_)" fill="#5190B7" d="M479.293,300.193c4.207,13.74,8.331,19.216,12.699,39.271
			c5.724,26.28,3.054,42.578,8.813,50.507c16.774,23.091,85.118,3.636,94.995-23.674c3.063-8.467-4.774-10.887-16.245-50.991
			c-14.931-52.2-15.007-56.312-61.146-86.309c-10.914-2.214-24.849,1.424-31.892,6.199l-4.144,2.245
			C472.842,266.403,475.178,286.756,479.293,300.193"/>
		<path clip-path="url(#SVGID_4_)" fill="#4080A0" d="M556.637,263.603c0,0,16.133,22.86,22.919,51.704
			c-2.852-15.546-8.108-36.322-17.362-51.676l-1.589-2.518l-3.962,2.485L556.637,263.603z"/>
		<path clip-path="url(#SVGID_4_)" fill="#BC956B" d="M497.522,251.216l0.385,8.759l-3.49-8.824l-8.726-11.953l-1.686-2.307
			l0.831-7.433l16.952-6.645c0.264,1.117,0.991,2.582,1.734,3.876c0.969,1.685,1.955,3.094,1.955,3.094L497.522,251.216z"/>
		<path clip-path="url(#SVGID_4_)" fill="#987957" d="M503.523,226.688c-6.799,7.289-15.063,11.292-17.832,12.51l-1.686-2.308
			l0.831-7.433l16.952-6.646C502.053,223.931,502.78,225.395,503.523,226.688"/>
		<path clip-path="url(#SVGID_4_)" fill="#BC956B" d="M583.083,326.875c-3.035,2.464-6.094,3.556-6.101,3.58
			c-0.727,0.164-1.463,0.322-2.191,0.474c-1.332,0.272-2.671,0.53-4.014,0.767c-2.688,0.476-5.393,0.877-8.109,1.207h-0.005
			c-0.634,0.077-1.126,0.615-1.128,1.27c-0.002,0.708,0.571,1.282,1.28,1.284c2.785,0.009,5.576-0.059,8.365-0.201
			c1.396-0.07,2.79-0.164,4.188-0.274c0.55-0.045,1.095-0.092,1.64-0.142c0.007,0.022,0.017,0.046,0.023,0.068
			c-1.417,0.65-2.846,1.277-4.287,1.875c-1.618,0.676-3.254,1.31-4.902,1.906c-1.646,0.605-3.313,1.137-4.988,1.651l-0.03,0.009
			c-0.621,0.191-1.007,0.828-0.874,1.478c0.142,0.692,0.819,1.14,1.513,0.998c1.771-0.36,3.54-0.743,5.285-1.202
			c1.749-0.448,3.488-0.937,5.212-1.47c1.699-0.521,3.388-1.074,5.066-1.665c0.008,0.009,0.016,0.02,0.022,0.028
			c-0.507,0.344-1.018,0.687-1.54,1.016c-1.18,0.745-2.385,1.463-3.62,2.13c-1.234,0.668-2.487,1.313-3.768,1.897
			c-1.276,0.601-2.581,1.134-3.896,1.653l-0.026,0.01c-0.597,0.234-0.937,0.883-0.77,1.517c0.181,0.685,0.883,1.092,1.567,0.913
			c1.424-0.374,2.848-0.768,4.249-1.235c1.407-0.451,2.793-0.967,4.17-1.513c1.378-0.546,2.734-1.148,4.079-1.79
			c0.673-0.319,1.339-0.658,2.004-1.005c0.301-0.16,0.593-0.317,0.887-0.479c0.016,0.011,0.031,0.022,0.046,0.033
			c-0.278,0.256-0.556,0.511-0.843,0.762c-0.856,0.743-1.751,1.462-2.663,2.164c-0.914,0.698-1.851,1.377-2.805,2.034
			c-0.953,0.659-1.929,1.292-2.913,1.916l-0.014,0.01c-0.53,0.335-0.747,1.017-0.483,1.604c0.29,0.647,1.049,0.937,1.697,0.646
			c1.096-0.489,2.188-0.992,3.27-1.529c1.081-0.535,2.154-1.095,3.216-1.687c1.06-0.595,2.109-1.214,3.146-1.878
			c0.518-0.334,1.033-0.673,1.545-1.032l0.769-0.553c0.097-0.073,0.188-0.143,0.28-0.213c1.345-0.317,7.505-4.873,12.516-11.923
			c4.372-6.152-3.667-10.07-6.388-10.671c-2.551-0.565-4.568,2.041-5.855,2.073c-0.655-0.163-4.367-0.178-5.025-0.294
			L583.083,326.875z"/>
		<path clip-path="url(#SVGID_4_)" fill="#5190B7" d="M509.077,228.467c7.727,29.768,51.05,40.559,51.05,40.559
			c3.42,0.187,14.175-0.024,24.479,6.09c10.402,6.387,16.541,23.126,7.511,40.853c-0.783,1.539-1.681,3.086-2.7,4.633
			c0,0,5.007,8.732,11.844,10.125c1.29-0.919,3.111-2.304,5.128-4.165c11.396-10.522,18.313-26.396,18.535-40.289
			c0.438-27.582-25.55-45.56-31.702-49.817C557.892,212.015,515.047,226.362,509.077,228.467"/>
		<path clip-path="url(#SVGID_4_)" fill="#84245F" d="M371.582,263.766l0.494,0.81c0,0-1.194,0.264-1.585,0.312
			C370.491,264.887,371.32,263.914,371.582,263.766"/>
		<path clip-path="url(#SVGID_4_)" fill="#84245F" d="M381.499,256.935l-0.851-0.811c0,0,1.02-0.54,1.374-0.49
			C382.022,255.634,381.646,256.762,381.499,256.935"/>
		<path clip-path="url(#SVGID_4_)" fill="#5190B7" d="M496.846,238.443l1.959,13.517c0,0,13.075-11.527,10.271-23.494l-3.585-1.739
			C505.305,230.832,502.559,234.998,496.846,238.443"/>
		<path clip-path="url(#SVGID_4_)" fill="#5190B7" d="M484.611,236.219c0.394,0.234,3.021,6.251,6.971,7.271l1.726,9.01
			c0,0-9.877-4.735-10.933-15.057l1.427-2.108L484.611,236.219z"/>
		<path clip-path="url(#SVGID_4_)" fill="#5190B7" d="M493.307,252.499l-0.756-3.944c0,0,2.575,1.594,2.98,2.452
			c0.404,0.86,7.986,30.571,7.986,30.571l-1.974,0.598L493.307,252.499z"/>
		<polygon clip-path="url(#SVGID_4_)" fill="#5190B7" points="498.805,251.96 504.583,281.218 501.75,282.177 496.239,250.915 
			498.272,247.764 		"/>
		<path clip-path="url(#SVGID_4_)" fill="#BC956B" d="M489.291,234.179c-1.454,0.791-4.361,2.091-7.969,1.743
			c-2.483-0.239-5.086-1.267-8.396-4.032c-7.508-6.271-10.663-14.815-13.187-21.893c-0.765-2.143-2.648-7.695-3.853-15.224
			c-1.442-9.033-1.377-12.974-1.456-16.675c-0.019-0.896,0.984-6.1,1.571-6.794c7.96-9.424,33.12-4.231,33.125-4.203
			c0,0.002-0.065,0.015-0.143,0.029c4.619,0.828,10.856,2.712,16.706,7.167C524.431,186.174,506.977,225.251,489.291,234.179"/>
		<path clip-path="url(#SVGID_4_)" fill="#111010" d="M511.144,211.707c-0.374,1.229-1.13,3.149-2.704,5.071
			c-2.099,2.563-4.547,3.779-5.832,4.311c0.992-1.351,2.042-2.953,3.042-4.817c1.22-2.273,2.085-4.406,2.705-6.254
			C509.285,210.58,510.214,211.145,511.144,211.707"/>
		<path clip-path="url(#SVGID_4_)" fill="#BC956B" d="M489.445,234.68c-1.459,0.794-4.376,2.098-7.995,1.749
			c-2.492-0.24-5.103-1.271-8.425-4.046c-7.532-6.292-10.697-14.864-13.23-21.965c-0.767-2.149-2.656-7.721-3.863-15.274
			c-1.449-9.062-1.384-13.017-1.461-16.73c-0.02-0.899,0.986-6.12,1.575-6.817c7.986-9.454,33.23-4.244,33.235-4.216
			c0,0.002-0.067,0.015-0.145,0.029c2.096,0.376,7.897-2.075,10.472-1.126c3.118,1.15,3.076,5.868,6.291,8.316
			C524.702,186.517,507.189,225.723,489.445,234.68"/>
		<path clip-path="url(#SVGID_4_)" fill="#111010" d="M508.298,205.51c1.913-2.35,3.829-4.715,5.747-7.099
			c1.317-1.637,2.626-3.271,3.927-4.902c1.955-2.449,3.287-5.366,3.658-8.477c0.032-0.268,0.059-0.541,0.078-0.82
			c0.197-2.782-0.341-4.848-1.014-7.438c-1.032-3.965-2.5-6.714-3.381-8.339c-1.941-3.579-3.533-5.243-4.282-5.972
			c-2.413-2.349-3.86-2.573-4.62-2.592c-1.236-0.031-2.232,0.44-2.817,0.789c-0.625-1.614-2.042-4.617-5.07-7.212
			c-3.539-3.032-7.272-3.79-8.678-4.057c-4.279-0.814-9.051,0.772-18.594,3.944c-4.484,1.491-6.625,2.425-8.902,4.057
			c-4.175,2.992-5.604,6.031-5.972,6.874c-0.49,1.118-0.753,2.111-0.902,2.817c-1.134,0.839-2.912,2.385-4.281,4.845
			c-1.859,3.341-1.909,6.478-1.916,8.226c-0.006,1.586,0.172,3.433,2.592,10.818c0.729,2.226,1.74,5.192,3.043,8.677
			c-1.365-5.048-1.091-8.827-0.564-11.381c0.41-1.981,0.903-2.896,1.691-6.761c0.688-3.377,0.912-5.626,1.014-7.1
			c0.111-1.596,0.125-2.948,0.113-3.944c1.341,0.597,3.434,1.406,6.085,1.916c5.046,0.971,9.088,0.274,20.621-2.366
			c4.587-1.051,8.615-2.009,11.945-2.817c-0.619,2.068-2.159,8.184,0.338,15.325c2.649,7.579,8.155,11.475,9.917,12.621
			C508.149,198.599,508.223,202.054,508.298,205.51"/>
		<path clip-path="url(#SVGID_4_)" fill="#484443" d="M467.365,162.619c0.974-0.03,2.034-0.113,3.163-0.274
			c2.192-0.313,4.093-0.843,5.655-1.403c-0.848,1.242-2.132,2.817-4,4.282c-1.014,0.794-1.998,1.399-2.874,1.86
			c2.993,0.232,6.854,0.25,11.269-0.451c3.782-0.601,6.989-1.574,9.522-2.536c-2.644,1.754-8.061,4.837-15.607,5.635
			c-6.479,0.685-11.684-0.615-14.593-1.578c2.052-0.43,4.48-1.12,7.099-2.254c1.616-0.699,3.043-1.455,4.282-2.197
			c-0.875,0.261-2.451,0.605-4.395,0.338c-1.721-0.237-3.016-0.857-3.775-1.296C464.529,162.703,465.947,162.661,467.365,162.619"/>
		<path clip-path="url(#SVGID_4_)" fill="#484443" d="M503.031,172.831c-0.09,1.865,0.011,4.715,1.099,7.944
			c1.634,4.852,4.601,7.895,6.169,9.297c-1.057-0.398-4.603-1.88-6.761-5.747C500.542,178.959,502.74,173.519,503.031,172.831"/>
		<path clip-path="url(#SVGID_4_)" fill="#484443" d="M507.256,179.423c0.557,1.375,1.406,3.095,2.704,4.902
			c1.484,2.064,3.06,3.551,4.311,4.564c-0.797-0.158-3.015-0.707-4.817-2.705C506.951,183.41,507.204,180.009,507.256,179.423"/>
		<path clip-path="url(#SVGID_4_)" fill="#484443" d="M456.181,178.578c0.058,0.614,0.109,1.634-0.057,2.874
			c-0.244,1.823-0.757,2.586-1.015,4.394c-0.099,0.697-0.192,1.778-0.056,3.156c-0.067-1.828-0.118-3.582-0.169-5.466
			c-0.026-0.944-0.044-1.975,0.394-3.211C455.553,179.553,455.911,178.963,456.181,178.578"/>
		<path clip-path="url(#SVGID_4_)" fill="#BC956B" d="M508.261,210.586c0.603,0.729,1.6,0.976,2.14,1.108
			c1.957,0.483,3.6-0.335,4.041-0.554c1.537-0.765,2.657-2.845,4.834-6.973c0.622-1.181,1.233-2.61,2.456-5.467
			c0.755-1.765,1.138-2.747,0.872-3.962c-0.041-0.185-0.483-2.082-1.823-2.536c-1.466-0.496-3.13,1.034-5.229,3.011
			c-1.468,1.383-3.152,2.996-4.834,5.864C509.465,203.215,506.44,208.376,508.261,210.586"/>
		<path clip-path="url(#SVGID_4_)" fill="#FFFFFF" d="M467.913,201.65c-0.946-0.018-1.898,0.083-2.81,0.166
			c-0.662,0.095-1.33,0.184-1.986,0.325l-0.006-0.006c-4.259-0.834-5.453-4.974-5.453-4.974c0.201-0.053,0.822-0.118,1.69-0.189
			c0.284-0.024,0.599-0.047,0.936-0.071c1.886-0.142,4.429-0.284,6.517-0.39c0.302-0.018,0.598-0.03,0.881-0.048
			c1.662-0.088,2.863-0.148,2.863-0.148S471.29,200.106,467.913,201.65"/>
		<path clip-path="url(#SVGID_4_)" fill="#3F2E20" d="M466.86,197.126c0,0.03,0,0.053-0.006,0.083
			c-0.041,1.886-1.715,3.329-3.761,3.247c-0.195-0.012-0.38-0.036-0.568-0.07c-0.036-0.007-0.065-0.013-0.095-0.019
			c-0.018-0.006-0.023-0.006-0.048-0.006l-0.254-0.071c-1.544-0.442-2.696-1.774-2.779-3.318c0.283-0.023,0.597-0.047,0.934-0.071
			c1.887-0.142,4.43-0.284,6.519-0.39c0.028,0.166,0.053,0.325,0.053,0.485C466.86,197.043,466.86,197.079,466.86,197.126"/>
		<path clip-path="url(#SVGID_4_)" fill="#FFFFFF" d="M493.296,195.015c0,0-0.621,4.27-4.726,5.666
			c-0.006-0.006-0.006-0.006-0.012,0.006c-0.669-0.054-1.337-0.054-2.005-0.054c-0.923,0.042-1.875,0.071-2.815,0.213
			c-3.549-1.069-3.323-4.926-3.323-4.926s0.738-0.065,1.862-0.16c0.308-0.029,0.64-0.053,0.993-0.083
			c1.905-0.165,4.412-0.366,6.459-0.502c0.325-0.024,0.638-0.042,0.935-0.059C492.018,195.027,493.024,194.985,493.296,195.015"/>
		<path clip-path="url(#SVGID_4_)" fill="#3F2E20" d="M489.73,195.175c0.124,1.538-0.84,3.016-2.313,3.673l-0.242,0.106
			c-0.024,0-0.029,0-0.048,0.006c-0.029,0.012-0.053,0.023-0.089,0.036c-0.183,0.059-0.367,0.105-0.556,0.141
			c-2.017,0.361-3.868-0.845-4.163-2.708c-0.012-0.024-0.012-0.053-0.012-0.083c-0.013-0.041-0.019-0.077-0.019-0.124
			c-0.023-0.16-0.018-0.308-0.012-0.462c0.308-0.029,0.639-0.053,0.994-0.082C485.176,195.512,487.684,195.311,489.73,195.175"/>
		<path clip-path="url(#SVGID_4_)" d="M477.019,218.25c-2.943,1.397-6.423,1.752-9.506,0.96c1.556,0.033,3.089-0.199,4.49-0.664
			c1.404-0.461,2.675-1.158,3.74-2.01c0.491-0.394,1.234-0.364,1.661,0.063C477.917,217.099,477.716,217.95,477.019,218.25"/>
		<path clip-path="url(#SVGID_4_)" d="M482.509,215.621c3.025,1.886,7.279,3.496,11.03,3.274c-3.756,1.027-8.521,0.11-12.413-1.319
			C479.098,216.762,480.649,214.564,482.509,215.621"/>
		<path clip-path="url(#SVGID_4_)" fill="#111010" d="M472.368,185.634c-0.126,2.267-0.044,4.709-0.173,6.646
			c-1.344-1.535-4.236-3.724-5.193-4.237c-0.729-0.391-4.475-2.548-7.287-1.222c-1.982,0.935-2.421,3.087-2.674,2.97
			c-0.495-0.228,0.495-6.108,3.652-7.115c0.422-0.135,0.835-0.153,1.662-0.189c0.413-0.018,2.103-0.072,4.424,0.559
			C469.103,183.677,470.989,184.703,472.368,185.634"/>
		<path clip-path="url(#SVGID_4_)" fill="#111010" d="M477.456,186.333c0.873,2.446,1.051,3.201,1.588,5.5
			c0.687-0.642,1.661-1.536,2.859-2.576c1.722-1.495,2.583-2.242,3.544-2.915c1.649-1.155,3.386-2.37,5.907-2.842
			c1.113-0.209,2.52-0.467,4.186,0.091c1.575,0.527,2.627,1.568,3.41,2.381c-0.161-0.753-0.995-4.269-4.261-6.184
			c-1.283-0.752-2.531-1.016-3.405-1.112c-1.954,0.339-4.929,1.1-8.111,2.973C480.533,183.202,478.666,184.982,477.456,186.333"/>
		<path clip-path="url(#SVGID_4_)" fill="#987957" d="M474.037,193.423c-0.504,3.395-1.338,6.745-2.427,10.001
			c-0.667,2.056-1.833,4.209-1.034,6.341c0.734,2.024,2.859,3.473,5.044,3.305c1.103-0.052,2.192-0.47,3.137-1.104
			c-0.839,0.78-1.931,1.301-3.097,1.493c-3.832,0.583-7.118-3.353-5.9-7.021C471.255,202.085,472.819,197.865,474.037,193.423"/>
		<path clip-path="url(#SVGID_4_)" fill="#652B28" d="M470.922,224.035c-0.182-0.371,3.46-3.263,8.38-4.11
			c3.136-0.54,5.312,0.006,5.8,0.137c2.892,0.77,5.201,2.559,5.039,2.906c-0.171,0.365-2.882-1.284-6.702-1.709
			C476.396,220.478,471.14,224.479,470.922,224.035"/>
		<path clip-path="url(#SVGID_4_)" fill="#987957" d="M479.803,224.686c1.593-0.575,3.032-0.558,3.92-0.462
			c2.121,0.229,3.615,1.172,4.296,1.668c-1.369-0.396-3.193-0.777-5.357-0.839c-1.665-0.047-3.121,0.106-4.301,0.313
			C478.702,225.165,479.189,224.908,479.803,224.686"/>
		<path clip-path="url(#SVGID_4_)" fill="#4C6580" d="M496.846,238.443c1.116,4.33,2.059,8.695,2.908,13.081l-0.984-0.345
			c1.524-1.477,2.987-3.107,4.288-4.821c3.896-5.058,7-11.352,6.019-17.893c2.632,8.883-3.189,17.798-9.516,23.612l-0.817,0.715
			C497.976,248.03,497.305,243.25,496.846,238.443"/>
		<path clip-path="url(#SVGID_4_)" fill="#4C6580" d="M484.61,236.219c1.854,2.645,3.744,6.062,7.06,6.931l0.207,0.05l0.05,0.225
			l2.033,8.95l0.293,1.293l-1.233-0.569c-5.688-3.249-10.182-9.003-10.645-15.655c0.48,3.176,1.79,6.2,3.856,8.656
			c1.983,2.415,4.576,4.458,7.362,5.802l-0.938,0.724l-1.419-9.067l0.258,0.273C487.961,242.62,486.386,239.15,484.61,236.219"/>
		<path clip-path="url(#SVGID_4_)" fill="#4C6580" d="M498.123,248.499c2.989,10.73,5.155,21.649,6.676,32.677l0.024,0.208
			c-1.09,0.273-2.178,0.551-3.277,0.793c0.982-0.41,1.977-0.789,2.971-1.168l-0.149,0.252
			C501.58,270.484,499.435,259.562,498.123,248.499"/>
		<path clip-path="url(#SVGID_4_)" fill="#4C6580" d="M496.831,257.104c0.066,0.359-0.085,0.688-0.338,0.734
			c-0.252,0.046-0.51-0.208-0.576-0.567c-0.065-0.359,0.085-0.688,0.338-0.734C496.507,256.49,496.765,256.744,496.831,257.104"/>
		<path clip-path="url(#SVGID_4_)" fill="#4C6580" d="M495.459,252.008c0.066,0.36-0.085,0.688-0.338,0.735
			c-0.252,0.046-0.51-0.208-0.576-0.568c-0.066-0.359,0.085-0.688,0.338-0.734C495.135,251.394,495.393,251.647,495.459,252.008"/>
		<path clip-path="url(#SVGID_4_)" fill="#4C6580" d="M499.611,262.493c0.066,0.359-0.085,0.688-0.338,0.734
			c-0.252,0.047-0.51-0.207-0.575-0.567c-0.066-0.359,0.085-0.688,0.338-0.734C499.288,261.879,499.545,262.133,499.611,262.493"/>
		<path clip-path="url(#SVGID_4_)" fill="#4C6580" d="M500.633,268.073c0.066,0.36-0.085,0.688-0.338,0.735
			c-0.252,0.046-0.51-0.208-0.576-0.568c-0.065-0.359,0.085-0.688,0.339-0.734C500.31,267.459,500.568,267.713,500.633,268.073"/>
		<path clip-path="url(#SVGID_4_)" fill="#4C6580" d="M502.023,274.099c0.065,0.36-0.085,0.689-0.338,0.735
			c-0.252,0.046-0.511-0.208-0.576-0.568c-0.066-0.359,0.085-0.688,0.338-0.734C501.699,273.484,501.957,273.738,502.023,274.099"/>
		<path clip-path="url(#SVGID_4_)" fill="#4C6580" d="M503.246,279.543c0.066,0.36-0.085,0.688-0.338,0.735
			c-0.252,0.046-0.51-0.208-0.576-0.568c-0.065-0.359,0.086-0.688,0.339-0.734C502.922,278.929,503.18,279.183,503.246,279.543"/>
		<path clip-path="url(#SVGID_4_)" fill="#4C6580" d="M125.874,226.727c0,0,18.809,6.307,21.691,8.607l-0.472,2.435l-21.876-8.764
			L125.874,226.727z"/>
		<path clip-path="url(#SVGID_4_)" fill="#BC956B" d="M23.308,323.11l8.911,8.875l10.57-9.37c0,0-2.927-1.855-3.783-6.627
			L23.308,323.11z"/>
		<path clip-path="url(#SVGID_4_)" fill="#BC956B" d="M156.555,242.775c29.445,31.482,62.051,46.222,96.31,11.218
			c4.548-4.473,11.533,0.417,8.891,6.383c-31.699,56.552-84.424,46.221-125.956,6.725C118.16,252.976,139.97,227.33,156.555,242.775
			"/>
		<path clip-path="url(#SVGID_4_)" fill="#5190B7" d="M260.875,264.887c-0.727,1.356-1.531,2.806-2.513,4.43
			c-3.009,4.974-8.967,11.139-18.386,21.576c-14.149,12.489-33.024,19.817-53.015,18.4c-0.004,0-0.008-0.004-0.013-0.004
			c-13.556-0.958-27.628-5.94-41.087-16.065c-4.518-3.394-8.964-7.369-13.3-11.965l16.431-43.816c0,0,9.825,4.179,14.685,8.275
			c32.427,27.315,45.27,40.318,81.095,13.465c1.486-1.109,3.009-2.294,4.572-3.549c0.426,1.229,1.207,2.951,2.68,4.618
			C255.244,263.898,259.477,264.688,260.875,264.887"/>
		<path clip-path="url(#SVGID_4_)" fill="#BC956B" d="M277.634,254.201c5.476,0.584,6.153-7.318,0.435-4.37l0.094,0.009
			C275.34,249.458,274.799,253.901,277.634,254.201"/>
		<path clip-path="url(#SVGID_4_)" fill="#BC956B" d="M277.116,251.129c7.281-1.241,3.281-8.654,0-4.509
			c0.018-0.053,0.058-0.054-0.039,0.004c-0.092,0.054-0.265,0.112-0.387,0.133c-0.003,0.002-0.059,0.008,0.017-0.001
			C273.866,246.982,274.281,251.439,277.116,251.129"/>
		<path clip-path="url(#SVGID_4_)" fill="#BC956B" d="M276.698,247.516l2.024-0.886c2.627-1.104,0.839-5.205-1.758-4.022
			l-2.024,0.886C272.313,244.596,274.101,248.698,276.698,247.516"/>
		<path clip-path="url(#SVGID_4_)" fill="#BC956B" d="M253.213,253.652c1.053-0.92,2.581-2.462,3.799-4.727
			c1.392-2.586,1.314-4.137,1.994-5.442c1.075-2.066,5.489,1.673,14.617-3.584l5.419,13.51c0,0-7.913,8.959-20.01,10.265
			L253.213,253.652z"/>
		<path clip-path="url(#SVGID_4_)" fill="#BC956B" d="M265.606,243.314c1.994-2.341,22.811-10.54,23.169-5.931
			c0.212,1.839-1.976,1.91-3.245,2.228c-4.768,1.167-9.43,3.064-13.541,5.746c-2.186,1.083-4.105,4.622-6.763,2.637
			C263.615,246.779,263.917,244.304,265.606,243.314"/>
		<path clip-path="url(#SVGID_4_)" fill="#BC956B" d="M270.398,232.272c-2.103,5.661-4.162,11.486-5.813,17.265
			c-1.477,4.897-7.936,2.382-6.635-2.576c2.188-8.34,5.016-11.133,9.151-16.306C268.471,228.94,271.234,230.264,270.398,232.272"/>
		<path clip-path="url(#SVGID_4_)" fill="#987957" d="M275.961,253.646c-1.603-1.892,0.505-3.989,0.085-1.848
			c-0.136,2.172,1.719,1.669,1.916,2.44C277.575,254.999,276.348,254.088,275.961,253.646"/>
		<path clip-path="url(#SVGID_4_)" fill="#987957" d="M274.969,250.564c-0.709-0.632-0.936-3.16,0.293-3.107
			c0.455,0.616-1.027,1.627,0.458,2.922c0.977,0.816,2.362,0.288,3.357-0.224c0.464-0.104,1.18-1.366,1.705-0.992
			c0.126,0.129,0.125,0.341-0.006,0.469C279.361,251.09,276.573,252.405,274.969,250.564"/>
		<path clip-path="url(#SVGID_4_)" fill="#987957" d="M273.882,247.133c-1.08-1.252-0.607-3.302,0.925-3.944l2.024-0.885
			c0.391-0.177,0.663,0.438,0.266,0.606l-2.024,0.887c-2.235,0.938-0.707,4.419,1.492,3.416c0.04-0.017,1.881-0.678,2.971-1.782
			c0.128-0.13,0.338-0.132,0.468-0.003c0.131,0.129,0.132,0.338,0.004,0.468C277.595,247.792,275.758,248.941,273.882,247.133"/>
		<path clip-path="url(#SVGID_4_)" fill="#987957" d="M262.336,253.814c4.719-3.824,4.697-12.058,4.407-12.13
			c1.497-1.471,1.475,9.739-3.877,12.103C262.667,253.875,262.474,253.983,262.336,253.814"/>
		<path clip-path="url(#SVGID_4_)" fill="#4080A0" d="M186.948,309.289c-13.556-0.958-27.628-5.94-41.087-16.065l8.753-5.015
			C154.614,288.209,164.216,303.19,186.948,309.289"/>
		<path clip-path="url(#SVGID_4_)" fill="#5190B7" d="M152.072,300.193c-4.207,13.74-8.331,19.216-12.699,39.271
			c-5.724,26.28-3.054,42.578-8.814,50.507c-16.774,23.091-85.118,3.636-94.995-23.674c-3.062-8.467,4.775-10.887,16.245-50.991
			c14.931-52.2,15.007-56.312,61.147-86.309c10.914-2.214,24.848,1.424,31.891,6.199l4.144,2.245
			C158.523,266.403,156.188,286.756,152.072,300.193"/>
		<path clip-path="url(#SVGID_4_)" fill="#4080A0" d="M74.729,263.603c0,0-16.132,22.86-22.919,51.704
			c2.852-15.546,8.109-36.322,17.363-51.676l1.588-2.518l3.962,2.485L74.729,263.603z"/>
		<path clip-path="url(#SVGID_4_)" fill="#BC956B" d="M133.844,251.216l-0.385,8.759l3.49-8.824l8.726-11.953l1.685-2.307
			l-0.831-7.433l-16.952-6.645c-0.264,1.117-0.991,2.582-1.734,3.876c-0.969,1.685-1.955,3.094-1.955,3.094L133.844,251.216z"/>
		<path clip-path="url(#SVGID_4_)" fill="#987957" d="M127.843,226.688c6.799,7.289,15.063,11.292,17.832,12.51l1.685-2.308
			l-0.831-7.433l-16.952-6.646C129.313,223.931,128.586,225.395,127.843,226.688"/>
		<path clip-path="url(#SVGID_4_)" fill="#BC956B" d="M48.282,326.875c3.035,2.464,6.094,3.556,6.101,3.58
			c0.726,0.164,1.463,0.322,2.191,0.474c1.332,0.272,2.671,0.53,4.014,0.767c2.687,0.476,5.392,0.877,8.109,1.207h0.005
			c0.634,0.077,1.126,0.615,1.128,1.27c0.002,0.708-0.571,1.282-1.28,1.284c-2.786,0.009-5.576-0.059-8.366-0.201
			c-1.395-0.07-2.79-0.164-4.187-0.274c-0.55-0.045-1.095-0.092-1.64-0.142c-0.007,0.022-0.016,0.046-0.023,0.068
			c1.417,0.65,2.846,1.277,4.287,1.875c1.618,0.676,3.254,1.31,4.902,1.906c1.646,0.605,3.313,1.137,4.989,1.651l0.03,0.009
			c0.621,0.191,1.007,0.828,0.874,1.478c-0.142,0.692-0.819,1.14-1.513,0.998c-1.77-0.36-3.539-0.743-5.285-1.202
			c-1.749-0.448-3.488-0.937-5.212-1.47c-1.699-0.521-3.388-1.074-5.066-1.665c-0.008,0.009-0.016,0.02-0.023,0.028
			c0.507,0.344,1.018,0.687,1.54,1.016c1.18,0.745,2.385,1.463,3.62,2.13c1.235,0.668,2.488,1.313,3.768,1.897
			c1.276,0.601,2.581,1.134,3.896,1.653l0.027,0.01c0.596,0.234,0.936,0.883,0.769,1.517c-0.18,0.685-0.882,1.092-1.567,0.913
			c-1.424-0.374-2.848-0.768-4.249-1.235c-1.407-0.451-2.793-0.967-4.17-1.513c-1.378-0.546-2.734-1.148-4.079-1.79
			c-0.672-0.319-1.339-0.658-2.004-1.005c-0.301-0.16-0.593-0.317-0.887-0.479c-0.015,0.011-0.031,0.022-0.046,0.033
			c0.279,0.256,0.556,0.511,0.843,0.762c0.858,0.743,1.751,1.462,2.663,2.164c0.914,0.698,1.851,1.377,2.805,2.034
			c0.953,0.659,1.929,1.292,2.913,1.916l0.014,0.01c0.53,0.335,0.747,1.017,0.483,1.604c-0.29,0.647-1.049,0.937-1.697,0.646
			c-1.096-0.489-2.189-0.992-3.27-1.529c-1.081-0.535-2.154-1.095-3.215-1.687c-1.06-0.595-2.11-1.214-3.146-1.878
			c-0.518-0.334-1.033-0.673-1.545-1.032l-0.768-0.553c-0.097-0.073-0.188-0.143-0.281-0.213
			c-1.345-0.317-7.505-4.873-12.515-11.923c-4.372-6.152,3.667-10.07,6.387-10.671c2.551-0.565,4.569,2.041,5.857,2.073
			c0.654-0.163,4.366-0.178,5.024-0.294L48.282,326.875z"/>
		<path clip-path="url(#SVGID_4_)" fill="#5190B7" d="M122.289,228.467c-7.726,29.768-51.05,40.559-51.05,40.559
			c-3.419,0.187-14.174-0.024-24.478,6.09c-10.402,6.387-16.541,23.126-7.511,40.853c0.783,1.539,1.681,3.086,2.7,4.633
			c0,0-5.006,8.732-11.843,10.125c-1.29-0.919-3.112-2.304-5.128-4.165c-11.396-10.522-18.314-26.396-18.535-40.289
			c-0.439-27.582,25.549-45.56,31.702-49.817C73.474,212.015,116.319,226.362,122.289,228.467"/>
		<path clip-path="url(#SVGID_4_)" fill="#84245F" d="M259.784,263.766l-0.494,0.81c0,0,1.194,0.264,1.585,0.312
			C260.875,264.887,260.046,263.914,259.784,263.766"/>
		<path clip-path="url(#SVGID_4_)" fill="#84245F" d="M249.867,256.935l0.851-0.811c0,0-1.02-0.54-1.374-0.49
			C249.344,255.634,249.72,256.762,249.867,256.935"/>
		<path clip-path="url(#SVGID_4_)" fill="#5190B7" d="M134.52,238.443l-1.959,13.517c0,0-13.074-11.527-10.272-23.494l3.585-1.739
			C126.061,230.832,128.807,234.998,134.52,238.443"/>
		<path clip-path="url(#SVGID_4_)" fill="#5190B7" d="M146.755,236.219c-0.394,0.234-3.021,6.251-6.971,7.271l-1.726,9.01
			c0,0,9.877-4.735,10.933-15.057l-1.427-2.108L146.755,236.219z"/>
		<path clip-path="url(#SVGID_4_)" fill="#5190B7" d="M138.059,252.499l0.756-3.944c0,0-2.576,1.594-2.981,2.452
			c-0.404,0.86-7.986,30.571-7.986,30.571l1.973,0.598L138.059,252.499z"/>
		<polygon clip-path="url(#SVGID_4_)" fill="#5190B7" points="132.561,251.96 126.784,281.218 129.616,282.177 135.126,250.915 
			133.094,247.764 		"/>
		<path clip-path="url(#SVGID_4_)" fill="#BC956B" d="M142.075,234.179c1.454,0.791,4.361,2.091,7.969,1.743
			c2.483-0.239,5.086-1.267,8.396-4.032c7.508-6.271,10.663-14.815,13.187-21.893c0.765-2.143,2.648-7.695,3.852-15.224
			c1.443-9.033,1.377-12.974,1.456-16.675c0.019-0.896-0.984-6.1-1.571-6.794c-7.96-9.424-33.12-4.231-33.125-4.203
			c0,0.002,0.066,0.015,0.143,0.029c-4.619,0.828-10.858,2.712-16.706,7.167C106.934,186.174,124.389,225.251,142.075,234.179"/>
		<path clip-path="url(#SVGID_4_)" fill="#111010" d="M120.222,211.707c0.374,1.229,1.13,3.149,2.704,5.071
			c2.099,2.563,4.547,3.779,5.832,4.311c-0.992-1.351-2.042-2.953-3.042-4.817c-1.22-2.273-2.085-4.406-2.705-6.254
			C122.081,210.58,121.152,211.145,120.222,211.707"/>
		<path clip-path="url(#SVGID_4_)" fill="#BC956B" d="M141.921,234.68c1.459,0.794,4.376,2.098,7.995,1.749
			c2.492-0.24,5.103-1.271,8.425-4.046c7.532-6.292,10.697-14.864,13.23-21.965c0.767-2.149,2.657-7.721,3.864-15.274
			c1.449-9.062,1.383-13.017,1.461-16.73c0.019-0.899-0.987-6.12-1.576-6.817c-7.986-9.454-33.23-4.244-33.235-4.216
			c0,0.002,0.067,0.015,0.144,0.029c-2.095,0.376-7.897-2.075-10.471-1.126c-3.118,1.15-3.076,5.868-6.291,8.316
			C106.664,186.517,124.177,225.723,141.921,234.68"/>
		<path clip-path="url(#SVGID_4_)" fill="#111010" d="M123.067,205.51c-1.913-2.35-3.829-4.715-5.747-7.099
			c-1.317-1.637-2.626-3.271-3.927-4.902c-1.955-2.449-3.287-5.366-3.658-8.477c-0.032-0.268-0.058-0.541-0.078-0.82
			c-0.197-2.782,0.341-4.848,1.014-7.438c1.032-3.965,2.5-6.714,3.381-8.339c1.941-3.579,3.533-5.243,4.282-5.972
			c2.413-2.349,3.86-2.573,4.62-2.592c1.236-0.031,2.232,0.44,2.817,0.789c0.625-1.614,2.042-4.617,5.071-7.212
			c3.539-3.032,7.272-3.79,8.677-4.057c4.28-0.814,9.051,0.772,18.594,3.944c4.484,1.491,6.625,2.425,8.902,4.057
			c4.175,2.992,5.604,6.031,5.972,6.874c0.49,1.118,0.753,2.111,0.902,2.817c1.134,0.839,2.913,2.385,4.282,4.845
			c1.859,3.341,1.909,6.478,1.916,8.226c0.006,1.586-0.172,3.433-2.592,10.818c-0.73,2.226-1.74,5.192-3.043,8.677
			c1.365-5.048,1.091-8.827,0.564-11.381c-0.41-1.981-0.903-2.896-1.691-6.761c-0.688-3.377-0.912-5.626-1.014-7.1
			c-0.111-1.596-0.125-2.948-0.113-3.944c-1.341,0.597-3.434,1.406-6.085,1.916c-5.046,0.971-9.088,0.274-20.621-2.366
			c-4.587-1.051-8.615-2.009-11.945-2.817c0.619,2.068,2.159,8.184-0.338,15.325c-2.65,7.579-8.156,11.475-9.917,12.621
			C123.217,198.599,123.142,202.054,123.067,205.51"/>
		<path clip-path="url(#SVGID_4_)" fill="#484443" d="M164.001,162.619c-0.974-0.03-2.034-0.113-3.163-0.274
			c-2.193-0.313-4.093-0.843-5.655-1.403c0.847,1.242,2.131,2.817,4,4.282c1.013,0.794,1.998,1.399,2.874,1.86
			c-2.994,0.232-6.855,0.25-11.269-0.451c-3.782-0.601-6.989-1.574-9.522-2.536c2.643,1.754,8.06,4.837,15.607,5.635
			c6.479,0.685,11.684-0.615,14.593-1.578c-2.052-0.43-4.481-1.12-7.099-2.254c-1.616-0.699-3.043-1.455-4.282-2.197
			c0.875,0.261,2.451,0.605,4.395,0.338c1.72-0.237,3.015-0.857,3.775-1.296C166.837,162.703,165.419,162.661,164.001,162.619"/>
		<path clip-path="url(#SVGID_4_)" fill="#484443" d="M128.335,172.831c0.089,1.865-0.011,4.715-1.099,7.944
			c-1.634,4.852-4.601,7.895-6.169,9.297c1.057-0.398,4.603-1.88,6.761-5.747C130.823,178.959,128.626,173.519,128.335,172.831"/>
		<path clip-path="url(#SVGID_4_)" fill="#484443" d="M124.109,179.423c-0.557,1.375-1.406,3.095-2.704,4.902
			c-1.484,2.064-3.06,3.551-4.311,4.564c0.797-0.158,3.015-0.707,4.818-2.705C124.416,183.41,124.162,180.009,124.109,179.423"/>
		<path clip-path="url(#SVGID_4_)" fill="#484443" d="M175.185,178.578c-0.058,0.614-0.11,1.634,0.056,2.874
			c0.245,1.823,0.757,2.586,1.015,4.394c0.099,0.697,0.193,1.778,0.056,3.156c0.067-1.828,0.118-3.582,0.169-5.466
			c0.026-0.944,0.044-1.975-0.394-3.211C175.813,179.553,175.455,178.963,175.185,178.578"/>
		<path clip-path="url(#SVGID_4_)" fill="#BC956B" d="M123.104,210.586c-0.602,0.729-1.599,0.976-2.139,1.108
			c-1.957,0.483-3.6-0.335-4.041-0.554c-1.537-0.765-2.657-2.845-4.834-6.973c-0.622-1.181-1.234-2.61-2.456-5.467
			c-0.755-1.765-1.138-2.747-0.872-3.962c0.041-0.185,0.483-2.082,1.823-2.536c1.466-0.496,3.13,1.034,5.229,3.011
			c1.468,1.383,3.153,2.996,4.834,5.864C121.9,203.215,124.926,208.376,123.104,210.586"/>
		<path clip-path="url(#SVGID_4_)" fill="#FFFFFF" d="M163.453,201.65c0.946-0.018,1.898,0.083,2.809,0.166
			c0.663,0.095,1.331,0.184,1.987,0.325l0.006-0.006c4.258-0.834,5.453-4.974,5.453-4.974c-0.201-0.053-0.822-0.118-1.691-0.189
			c-0.284-0.024-0.598-0.047-0.935-0.071c-1.886-0.142-4.429-0.284-6.517-0.39c-0.302-0.018-0.597-0.03-0.881-0.048
			c-1.662-0.088-2.863-0.148-2.863-0.148S160.076,200.106,163.453,201.65"/>
		<path clip-path="url(#SVGID_4_)" fill="#3F2E20" d="M164.506,197.126c0,0.03,0,0.053,0.006,0.083
			c0.041,1.886,1.715,3.329,3.761,3.247c0.195-0.012,0.379-0.036,0.568-0.07c0.036-0.007,0.065-0.013,0.095-0.019
			c0.017-0.006,0.023-0.006,0.047-0.006l0.254-0.071c1.544-0.442,2.697-1.774,2.78-3.318c-0.284-0.023-0.597-0.047-0.934-0.071
			c-1.887-0.142-4.43-0.284-6.518-0.39c-0.029,0.166-0.053,0.325-0.053,0.485C164.506,197.043,164.506,197.079,164.506,197.126"/>
		<path clip-path="url(#SVGID_4_)" fill="#FFFFFF" d="M138.069,195.015c0,0,0.621,4.27,4.725,5.666
			c0.006-0.006,0.006-0.006,0.012,0.006c0.669-0.054,1.337-0.054,2.005-0.054c0.923,0.042,1.875,0.071,2.815,0.213
			c3.549-1.069,3.324-4.926,3.324-4.926s-0.739-0.065-1.863-0.16c-0.307-0.029-0.639-0.053-0.993-0.083
			c-1.905-0.165-4.412-0.366-6.459-0.502c-0.325-0.024-0.638-0.042-0.934-0.059C139.347,195.027,138.341,194.985,138.069,195.015"/>
		<path clip-path="url(#SVGID_4_)" fill="#3F2E20" d="M141.636,195.175c-0.124,1.538,0.84,3.016,2.312,3.673l0.243,0.106
			c0.024,0,0.03,0,0.047,0.006c0.03,0.012,0.053,0.023,0.089,0.036c0.183,0.059,0.367,0.105,0.556,0.141
			c2.017,0.361,3.868-0.845,4.163-2.708c0.012-0.024,0.012-0.053,0.012-0.083c0.012-0.041,0.018-0.077,0.018-0.124
			c0.024-0.16,0.018-0.308,0.012-0.462c-0.308-0.029-0.639-0.053-0.994-0.082C146.19,195.512,143.682,195.311,141.636,195.175"/>
		<path clip-path="url(#SVGID_4_)" d="M154.347,218.25c2.943,1.397,6.423,1.752,9.506,0.96c-1.556,0.033-3.089-0.199-4.491-0.664
			c-1.404-0.461-2.674-1.158-3.74-2.01c-0.491-0.394-1.234-0.364-1.661,0.063C153.448,217.099,153.65,217.95,154.347,218.25"/>
		<path clip-path="url(#SVGID_4_)" d="M148.857,215.621c-3.026,1.886-7.28,3.496-11.031,3.274c3.756,1.027,8.522,0.11,12.413-1.319
			C152.268,216.762,150.717,214.564,148.857,215.621"/>
		<path clip-path="url(#SVGID_4_)" fill="#111010" d="M158.998,185.634c0.126,2.267,0.044,4.709,0.173,6.646
			c1.344-1.535,4.236-3.724,5.193-4.237c0.729-0.391,4.475-2.548,7.287-1.222c1.983,0.935,2.421,3.087,2.674,2.97
			c0.495-0.228-0.495-6.108-3.652-7.115c-0.422-0.135-0.835-0.153-1.662-0.189c-0.413-0.018-2.103-0.072-4.424,0.559
			C162.263,183.677,160.377,184.703,158.998,185.634"/>
		<path clip-path="url(#SVGID_4_)" fill="#111010" d="M153.91,186.333c-0.873,2.446-1.051,3.201-1.588,5.5
			c-0.686-0.642-1.661-1.536-2.859-2.576c-1.722-1.495-2.583-2.242-3.544-2.915c-1.65-1.155-3.386-2.37-5.907-2.842
			c-1.114-0.209-2.52-0.467-4.187,0.091c-1.574,0.527-2.626,1.568-3.409,2.381c0.16-0.753,0.995-4.269,4.261-6.184
			c1.283-0.752,2.531-1.016,3.405-1.112c1.954,0.339,4.929,1.1,8.111,2.973C150.833,183.202,152.7,184.982,153.91,186.333"/>
		<path clip-path="url(#SVGID_4_)" fill="#987957" d="M157.329,193.423c0.504,3.395,1.338,6.745,2.427,10.001
			c0.667,2.056,1.833,4.209,1.034,6.341c-0.735,2.024-2.86,3.473-5.044,3.305c-1.103-0.052-2.193-0.47-3.137-1.104
			c0.839,0.78,1.931,1.301,3.097,1.493c3.832,0.583,7.118-3.353,5.9-7.021C160.11,202.085,158.547,197.865,157.329,193.423"/>
		<path clip-path="url(#SVGID_4_)" fill="#652B28" d="M160.443,224.035c0.182-0.371-3.46-3.263-8.38-4.11
			c-3.136-0.54-5.311,0.006-5.8,0.137c-2.891,0.77-5.201,2.559-5.039,2.906c0.171,0.365,2.882-1.284,6.702-1.709
			C154.969,220.478,160.225,224.479,160.443,224.035"/>
		<path clip-path="url(#SVGID_4_)" fill="#987957" d="M151.562,224.686c-1.592-0.575-3.032-0.558-3.92-0.462
			c-2.121,0.229-3.615,1.172-4.296,1.668c1.37-0.396,3.194-0.777,5.358-0.839c1.665-0.047,3.121,0.106,4.301,0.313
			C152.664,225.165,152.177,224.908,151.562,224.686"/>
		<path clip-path="url(#SVGID_4_)" fill="#4C6580" d="M134.52,238.443c-0.461,4.806-1.131,9.587-1.897,14.35l-0.818-0.715
			c-6.326-5.812-12.148-14.731-9.516-23.612c-0.981,6.542,2.122,12.835,6.02,17.893c1.3,1.714,2.762,3.345,4.288,4.821l-0.985,0.345
			C132.461,247.139,133.401,242.773,134.52,238.443"/>
		<path clip-path="url(#SVGID_4_)" fill="#4C6580" d="M146.755,236.219c-1.774,2.931-3.351,6.401-6.883,7.611l0.258-0.273
			l-1.419,9.067l-0.939-0.724c2.786-1.343,5.38-3.387,7.362-5.802c2.067-2.456,3.377-5.48,3.857-8.656
			c-0.461,6.652-4.956,12.405-10.644,15.655c-0.001,0-1.233,0.569-1.234,0.569l0.294-1.293l2.033-8.95l0.05-0.225l0.206-0.05
			C143.012,242.279,144.902,238.865,146.755,236.219"/>
		<path clip-path="url(#SVGID_4_)" fill="#4C6580" d="M133.244,248.499c-1.313,11.063-3.46,21.984-6.245,32.762l-0.15-0.252
			c0.994,0.379,1.988,0.758,2.971,1.168c-1.1-0.242-2.187-0.52-3.277-0.793l0.025-0.208
			C128.088,270.148,130.253,259.229,133.244,248.499"/>
		<path clip-path="url(#SVGID_4_)" fill="#4C6580" d="M134.535,257.104c-0.066,0.359,0.085,0.688,0.338,0.734
			c0.252,0.046,0.51-0.208,0.576-0.567c0.066-0.359-0.085-0.688-0.338-0.734C134.859,256.49,134.601,256.744,134.535,257.104"/>
		<path clip-path="url(#SVGID_4_)" fill="#4C6580" d="M135.906,252.008c-0.066,0.36,0.085,0.688,0.338,0.735
			c0.252,0.046,0.51-0.208,0.576-0.568c0.066-0.359-0.085-0.688-0.338-0.734C136.23,251.394,135.972,251.647,135.906,252.008"/>
		<path clip-path="url(#SVGID_4_)" fill="#4C6580" d="M131.754,262.493c-0.066,0.359,0.085,0.688,0.338,0.734
			c0.252,0.047,0.51-0.207,0.576-0.567c0.066-0.359-0.085-0.688-0.338-0.734C132.078,261.879,131.82,262.133,131.754,262.493"/>
		<path clip-path="url(#SVGID_4_)" fill="#4C6580" d="M130.732,268.073c-0.066,0.36,0.085,0.688,0.338,0.735
			c0.252,0.046,0.51-0.208,0.576-0.568c0.066-0.359-0.085-0.688-0.338-0.734C131.056,267.459,130.798,267.713,130.732,268.073"/>
		<path clip-path="url(#SVGID_4_)" fill="#4C6580" d="M129.343,274.099c-0.066,0.36,0.085,0.689,0.338,0.735
			c0.252,0.046,0.51-0.208,0.576-0.568c0.066-0.359-0.085-0.688-0.338-0.734C129.667,273.484,129.409,273.738,129.343,274.099"/>
		<path clip-path="url(#SVGID_4_)" fill="#4C6580" d="M128.12,279.543c-0.066,0.36,0.085,0.688,0.338,0.735
			c0.252,0.046,0.51-0.208,0.576-0.568c0.066-0.359-0.085-0.688-0.338-0.734C128.444,278.929,128.186,279.183,128.12,279.543"/>
	</g>
</g>
</svg>
