<?xml version="1.0" encoding="utf-8"?>
<!-- Generator: Adobe Illustrator 16.0.0, SVG Export Plug-In . SVG Version: 6.00 Build 0)  -->
<!DOCTYPE svg PUBLIC "-//W3C//DTD SVG 1.1//EN" "http://www.w3.org/Graphics/SVG/1.1/DTD/svg11.dtd">
<svg version="1.1" id="Layer_1" xmlns="http://www.w3.org/2000/svg" xmlns:xlink="http://www.w3.org/1999/xlink" x="0px" y="0px"
	 width="1000px" height="1000px" viewBox="0 0 1000 1000" enable-background="new 0 0 1000 1000" xml:space="preserve">
<g>
	<defs>
		<rect id="SVGID_1_" width="1000" height="1000"/>
	</defs>
	<clipPath id="SVGID_2_">
		<use xlink:href="#SVGID_1_"  overflow="visible"/>
	</clipPath>
	<g clip-path="url(#SVGID_2_)">
		<defs>
			<path id="SVGID_3_" d="M322.025,345.565c-15.518,83.689-93.163,14.517-174.655,92.113
				c-33.862,32.242-30.342,84.691-14.656,134.985c14.599,46.807,32.755,81.569,42.364,95.154c0,0,21.042,29.754,51.83,54.897
				c58.674,47.916,169.237,89.858,298.387,92.779c40.422,0.914,168.457-0.054,264.336-59.077
				c43.205-26.597,71.794-60.003,83.745-76.597c23.117-32.094,32.112-64.878,32.112-64.878c0.177-0.648,0.365-1.365,0.633-2.372
				c24.736-93.539-25.502-83.536-64.838-79.035c-57.723,6.594,32.923-73.242,13.578-166.323
				c-19.346-93.087-126.338-43.928-188.889-37.355c-62.543,6.575-48.47-81.24-175.873-112.265
				c-12.919-3.146-25.08-4.612-36.494-4.612C377.348,212.98,334.472,278.428,322.025,345.565"/>
		</defs>
		<clipPath id="SVGID_4_">
			<use xlink:href="#SVGID_3_"  overflow="visible"/>
		</clipPath>
		<path clip-path="url(#SVGID_4_)" fill="#E3F4FF" d="M906.121,612.57c-0.202,0.779-0.417,1.572-0.633,2.372
			c-8.904,32.631-19.985,57.486-28.374,73.568c-7.332,14.045-12.612,21.396-12.612,21.396
			c-40.71,28.774-163.755,107.846-339.207,105.586c-166.52-2.144-282.972-76.298-324.397-105.586
			c-6.618-9.854-15.796-24.223-25.82-42.09c-14.289-25.468-31.335-59.779-42.364-95.155
			c-15.686-50.293-19.206-102.742,14.656-134.984c81.492-77.596,159.137-8.424,174.656-92.114
			c14.309-77.185,68.838-152.138,168.074-127.972c127.403,31.025,113.33,118.839,175.873,112.265
			c62.551-6.573,169.543-55.732,188.889,37.355c19.345,93.081-71.301,172.916-13.578,166.322
			C880.62,529.033,930.857,519.03,906.121,612.57"/>
		<g opacity="0.11" clip-path="url(#SVGID_4_)">
			<g>
				<defs>
					<rect id="SVGID_5_" x="487.018" y="676.897" width="9.513" height="13.698"/>
				</defs>
				<clipPath id="SVGID_6_">
					<use xlink:href="#SVGID_5_"  overflow="visible"/>
				</clipPath>
				<path clip-path="url(#SVGID_6_)" d="M496.305,690.597l-9.287-13.699l9.513,12.729
					C496.328,689.772,496.26,690.101,496.305,690.597"/>
			</g>
		</g>
		<path clip-path="url(#SVGID_4_)" fill="#D2F0FF" d="M1109.308,652.337c-16.485,28.615-39.334,53.175-64.835,73.998
			c-52.655,42.647-115.507,70.907-179.709,91.456c0.79-0.249,1.577-0.498,2.363-0.756c-205.216,0.122-413.09,0.229-608.148,0.147
			c0.261,0.094,0.521,0.189,0.782,0.28c-86.531-30.827-174.758-84.184-210.688-172.75
			C179.834,643.389,866.822,610.114,1109.308,652.337"/>
		<path clip-path="url(#SVGID_4_)" fill="#BDDEEF" d="M1103.264,662.221c-15.854,24.457-36.262,45.714-58.792,64.113
			c-50.2,40.693-109.778,68.242-170.802,88.573c-206.233,6.213-417.852,0.31-614.691,2.279c-3.947-1.407-7.881-2.856-11.793-4.351
			c-26.126-9.949-51.569-21.779-75.642-36.011c-13.145-7.768-25.862-16.267-37.969-25.563
			C419.999,678.896,947.811,664.829,1103.264,662.221"/>
		<path clip-path="url(#SVGID_4_)" fill="#99CCE0" d="M510.33,666.252c0,0-239.471,26.282-399.263,66.066
			c-13.305-12.309-25.027-25.392-35.059-39.198C152.069,684.638,371.947,661.95,510.33,666.252"/>
		<path clip-path="url(#SVGID_4_)" fill="#99CCE0" d="M157.208,643.28c0.191,2.733-71.162,5.185-106.968,4.276
			c-0.397-0.943-0.784-1.891-1.165-2.843c-1.7-4.25-3.268-8.548-4.688-12.899c3.178-1.344,6.997-2.283,11.563-2.42
			c19.423-0.586,19.773,8.23,32.485,6.172c12.712-2.059,19.423-3.821,28.603,0.295C126.221,639.975,156.942,639.534,157.208,643.28"
			/>
		<path clip-path="url(#SVGID_4_)" fill="#99CCE0" d="M389.636,816.669c0.488,0.192,0.983,0.374,1.489,0.544
			c-47.891-0.497-92.795,0.944-133.587-0.543c-5.214-1.874-10.406-3.825-15.561-5.846c-16.495-6.464-32.689-13.699-48.427-21.832
			c14.178-8.328,94.547-29.577,142.201-7.965C361.321,788.852,376.063,811.177,389.636,816.669"/>
		<path clip-path="url(#SVGID_4_)" fill="#99CCE0" d="M429.281,762.312c15.322-12.474,33.265-7.053,53.506-4.153
			c10.947,1.139,17.303-0.246,16.244,4.153C497.971,766.712,420.106,767.412,429.281,762.312"/>
		<path clip-path="url(#SVGID_4_)" fill="#99CCE0" d="M229.711,414.176c3.844-6.002,4.108-14.242,2.953-23.988
			c-0.86-7.254-3.373-12.168-3.455-12.397l-1.549,0.56c0.075,0.208,7.415,21.004-0.876,33.95L229.711,414.176z"/>
		<path clip-path="url(#SVGID_4_)" fill="#99CCE0" d="M232.205,394.564l0.266-3.466c-9.119-0.699-17.588-4.004-22.587-11.006
			c-3.745-5.245-5.366-10.494-5.376-10.544l-1.525,0.309c0.047,0.235,1.214,5.814,5.384,11.655
			C212.233,386.929,219.509,393.591,232.205,394.564"/>
		<path clip-path="url(#SVGID_4_)" fill="#99CCE0" d="M289.016,400.911c7.089-5.761,10.72-15.682,13.228-28.006
			c1.867-9.174,0.783-16.163,0.774-16.475l-2.11,0.059c0.008,0.284,0.589,28.54-14.701,40.965L289.016,400.911z"/>
		<path clip-path="url(#SVGID_4_)" fill="#99CCE0" d="M295.409,395.925l-1.077-4.322c11.371-2.835,21.365-8.825,26.182-18.742
			c3.608-7.429,4.533-14.408,4.535-14.474l1.993,0.064c-0.009,0.307-0.289,7.606-4.307,15.879
			C319.008,382.002,311.242,391.977,295.409,395.925"/>
		<path clip-path="url(#SVGID_4_)" fill="#BDDEEF" d="M164.466,430.523c-0.528-0.096-38.369,12.625-38.369,32.244
			c0,19.619,35.347,27.517,53.863,22.496c18.516-5.022,45.038-2.487,58.584,6.701c13.545,9.187,33.369-21.401,73.05-13.077
			c39.681,8.324,56.837,0.447,79.891-12.235c23.054-12.681,38.052,9.915,58.432,5.587c20.38-4.329,31.568-35.498,2.92-45.648
			c-28.648-10.15-139.092-22.199-159.465-20.195C272.999,408.399,164.466,430.523,164.466,430.523"/>
		<path clip-path="url(#SVGID_4_)" fill="#99CCE0" d="M273.128,635.681c0,0,11.386-33.89,13.906-61.849
			c2.782-30.878-5.278-63.701,0.392-83.003c6.672-22.714-2.791-60.127-6.757-84.433c0,0,24.76,64.736,19.446,80.011
			c-4.998,14.368,0.226,57.617,5.051,84.413c4.826,26.796-5.361,48.2,0,64.861C305.167,635.681,281.3,643.682,273.128,635.681"/>
		<path clip-path="url(#SVGID_4_)" fill="#99CCE0" d="M293.929,529.744l-2.997-2.545c0.175-0.206,4.386-5.12,12.323-10.523
			c7.303-4.972,19.287-11.308,34.909-13.258c28.437-3.551,68.044-31.391,69.588-54.998l3.923,0.257
			c-0.779,11.917-10.243,25.654-25.965,37.688c-14.74,11.282-32.333,19.116-47.059,20.954
			C310.251,510.865,297.554,536.685,293.929,529.744"/>
		<path clip-path="url(#SVGID_4_)" fill="#99CCE0" d="M298.464,470.478l-0.91-3.825c0.155-0.037,8.966-2.206,19.686-8.508
			c9.875-5.806,24.63-15.847,33.241-33.45l2.357,1.152c-9.068,18.536-23.348,29.677-33.73,35.76
			C307.861,468.195,298.843,470.388,298.464,470.478 M298.009,468.565l-0.457-1.912c0.001,0,0.001,0,0.002-0.001L298.009,468.565z"
			/>
		<path clip-path="url(#SVGID_4_)" fill="#99CCE0" d="M321.588,458.367c-6.007-5.379-8.79-14.28-10.482-25.252
			c-1.258-8.168-0.007-14.285,0.014-14.559l1.858,0.141c-0.019,0.25-1.724,25.14,11.233,36.741L321.588,458.367z"/>
		<path clip-path="url(#SVGID_4_)" fill="#99CCE0" d="M337.747,448.775c-0.809,0-1.628-0.012-2.461-0.036l0.114-3.93
			c18.181,0.528,30.13-5.149,36.953-10.004c7.398-5.264,10.555-10.734,10.586-10.789l1.713,0.965
			c-0.14,0.249-2.279,6.996-10.308,12.764C367.327,442.787,355.767,448.775,337.747,448.775"/>
		<path clip-path="url(#SVGID_4_)" fill="#99CCE0" d="M280.992,496.116c-48.23,0.003-92.553-44.129-110.191-59.874
			c-3.143-2.806-6.111-5.456-6.863-5.815c0.002,0.001,0.204,0.096,0.528,0.096v-3.932c1.385,0,2.622,1.065,8.954,6.717
			c17.912,15.991,69.117,58.241,117.511,55.333l-2.79,7.472C286.474,496.214,282.655,496.116,280.992,496.116"/>
		<path clip-path="url(#SVGID_4_)" fill="#99CCE0" d="M186.27,477.438c-12.144,0-21.735-2.887-28.878-5.083
			c-13.883-4.267-19.664-11.904-19.963-12.156l1.138-1.349c0.068,0.058,7.007,5.799,20.201,9.815
			c12.183,3.708,32.354,6.662,59.259-0.324l4.464,5.374C210.271,476.887,195.725,477.438,186.27,477.438"/>
		<path clip-path="url(#SVGID_4_)" fill="#99CCE0" d="M239.174,478.37l-3.58-1.625c11.578-25.512-2.156-51.631-2.315-51.88
			l1.473-0.939c0.175,0.274,4.306,6.822,6.945,16.8C244.143,449.973,245.691,464.01,239.174,478.37"/>
		<path clip-path="url(#SVGID_4_)" fill="#99CCE0" d="M239.932,448.782c-10.227,0-18.479-10.894-23.28-16.305
			c-1.173-1.322-2.868-4.049-3.351-3.383c0.003,0.001-0.906-0.954-0.521-0.954l1.191,0.239c1.222,1.042,2.142,0.727,4.826,3.753
			c4.538,5.114,13.256,13.373,22.055,12.682l0.306,3.92C240.748,448.766,240.338,448.782,239.932,448.782"/>
		<path clip-path="url(#SVGID_4_)" fill="#99CCE0" d="M287.153,446.838c-15.805-2.212-24.725-9.608-29.426-15.423
			c-5.139-6.358-6.48-12.193-6.535-12.439l3.837-0.859c0.012,0.052,1.254,5.323,5.881,10.979
			c6.19,7.567,15.202,12.225,26.788,13.847L287.153,446.838z"/>
		<path clip-path="url(#SVGID_4_)" fill="#99CCE0" d="M312.933,437.745l-1.339-3.697c9.727-3.523,17.959-9.689,21.287-18.835
			c2.494-6.851,2.672-13.063,2.668-13.121l1.755-0.124c0.02,0.27,0.437,6.704-2.339,14.333
			C332.388,423.376,326.477,432.84,312.933,437.745"/>
		<path clip-path="url(#SVGID_4_)" fill="#99CCE0" d="M390.191,488.429c-1.991,0-4.771-0.209-6.826-0.315l1.388-5.794
			c12.077,0.628,23-0.655,32.464-3.814c7.529-2.513,14.161-6.215,19.713-11.003c4.942-4.261,8.103-8.619,9.884-11.524
			c1.937-3.158,2.71-5.334,2.718-5.356l3.714,1.29c-0.134,0.386-3.39,9.557-13.562,18.407c-5.939,5.166-13.024,9.157-21.058,11.86
			C410.276,484.991,400.45,488.429,390.191,488.429"/>
		<path clip-path="url(#SVGID_4_)" fill="#D2F0FF" d="M74.052,446.838c0,0,13.556,10.55,32.793,7.501
			c19.238-3.049,33.056-9.573,51.1-3.191c18.045,6.383,58.964,10.208,90.528-2.599c31.563-12.806,63.776-23.295,98.558-12.153
			c34.782,11.142,53.463,18.857,79.229,10.442c25.767-8.415,40.251,18.108,69.726,4.31c29.475-13.797,10.051-34.706-12.767-38.995
			c-22.818-4.29-58.247-32.169-99.473-25.735c-41.226,6.434-78.871-11.184-118.285-2.681s-60.147,21.45-100.085,18.231
			C125.438,398.749,43.923,423.084,74.052,446.838"/>
		<path clip-path="url(#SVGID_4_)" fill="#D2F0FF" d="M229.015,385.418c0,0-24.349,2.496-38.144,7.489
			c-13.796,4.992-45.433,1.997-33.408-13.48c12.024-15.476,20.991-25.461,47.893-22.466c26.902,2.996,53.825,5.991,61.402,12.981
			C274.335,376.931,239.568,386.916,229.015,385.418"/>
		<path clip-path="url(#SVGID_4_)" fill="#D2F0FF" d="M288.22,363.176c10.178-2.35,27.42,7.329,44.355,15.412
			c16.934,8.083,52.022,2.436,37.892-21.162c-14.131-23.597-24.757-38.878-58.5-35.698c-33.743,3.179-67.513,6.358-77.365,16.398
			C224.751,348.165,260.551,369.564,288.22,363.176"/>
		<path clip-path="url(#SVGID_4_)" fill="#99CCE0" d="M219.308,648.754c0,0,7.381-22.186,31.26-23.055
			c23.88-0.867,24.314,12.157,39.944,9.118c15.631-3.039,23.88-5.645,35.168,0.435c11.289,6.078,49.062,5.427,49.387,10.963
			C375.393,651.751,210.408,656.503,219.308,648.754"/>
		<path clip-path="url(#SVGID_4_)" fill="#99CCE0" d="M604.265,404.219c3.844-6.002,4.108-14.242,2.952-23.988
			c-0.859-7.254-3.373-12.168-3.455-12.397l-1.549,0.56c0.075,0.208,7.416,21.004-0.876,33.95L604.265,404.219z"/>
		<path clip-path="url(#SVGID_4_)" fill="#99CCE0" d="M606.758,384.606l0.266-3.466c-9.119-0.699-17.588-4.004-22.587-11.006
			c-3.745-5.245-5.366-10.494-5.376-10.544l-1.524,0.309c0.047,0.235,1.214,5.814,5.383,11.655
			C586.787,376.972,594.062,383.634,606.758,384.606"/>
		<path clip-path="url(#SVGID_4_)" fill="#99CCE0" d="M663.569,390.954c7.089-5.761,10.72-15.682,13.228-28.006
			c1.867-9.174,0.783-16.163,0.774-16.475l-2.109,0.059c0.007,0.284,0.588,28.54-14.702,40.965L663.569,390.954z"/>
		<path clip-path="url(#SVGID_4_)" fill="#99CCE0" d="M669.963,385.968l-1.077-4.322c11.37-2.835,21.364-8.825,26.182-18.742
			c3.608-7.429,4.533-14.408,4.535-14.474l1.993,0.064c-0.01,0.307-0.289,7.606-4.308,15.879
			C693.562,372.045,685.795,382.02,669.963,385.968"/>
		<path clip-path="url(#SVGID_4_)" fill="#BDDEEF" d="M539.019,420.566c-0.527-0.096-38.368,12.625-38.368,32.244
			c0,19.619,35.347,27.516,53.862,22.495c18.517-5.021,45.038-2.486,58.584,6.702c13.545,9.187,33.369-21.401,73.05-13.077
			c39.682,8.324,56.838,0.447,79.892-12.235c23.054-12.681,38.052,9.915,58.432,5.587c20.38-4.329,31.568-35.498,2.92-45.648
			c-28.647-10.15-139.092-22.199-159.465-20.195C647.552,398.442,539.019,420.566,539.019,420.566"/>
		<path clip-path="url(#SVGID_4_)" fill="#99CCE0" d="M647.682,625.724c0,0,11.386-33.891,13.906-61.85
			c2.781-30.878-5.278-63.701,0.392-83.002c6.672-22.715-2.791-60.128-6.757-84.434c0,0,24.76,64.736,19.446,80.011
			c-4.998,14.368,0.226,57.618,5.051,84.413s-5.361,48.2,0,64.861C679.72,625.724,655.854,633.725,647.682,625.724"/>
		<path clip-path="url(#SVGID_4_)" fill="#99CCE0" d="M668.482,519.787l-2.997-2.545c0.175-0.206,4.386-5.12,12.323-10.523
			c7.303-4.972,19.286-11.308,34.908-13.258c28.438-3.551,68.044-31.391,69.588-54.998l3.924,0.257
			c-0.779,11.917-10.243,25.654-25.966,37.688c-14.739,11.282-32.333,19.116-47.059,20.954
			C684.804,500.908,672.107,526.727,668.482,519.787"/>
		<path clip-path="url(#SVGID_4_)" fill="#99CCE0" d="M673.018,460.52l-0.91-3.825c0.155-0.037,8.966-2.206,19.686-8.508
			c9.875-5.806,24.63-15.847,33.241-33.45l2.357,1.152c-9.068,18.536-23.349,29.677-33.73,35.76
			C682.414,458.238,673.396,460.431,673.018,460.52 M672.563,458.608l-0.457-1.912c0.001,0,0.001,0,0.002-0.001L672.563,458.608z"/>
		<path clip-path="url(#SVGID_4_)" fill="#99CCE0" d="M696.142,448.41c-6.008-5.379-8.79-14.28-10.482-25.252
			c-1.258-8.168-0.007-14.285,0.013-14.559l1.859,0.141c-0.02,0.25-1.725,25.14,11.232,36.741L696.142,448.41z"/>
		<path clip-path="url(#SVGID_4_)" fill="#99CCE0" d="M712.3,438.818c-0.809,0-1.628-0.012-2.461-0.036l0.114-3.93
			c18.181,0.528,30.13-5.149,36.953-10.004c7.397-5.264,10.555-10.734,10.586-10.789l1.713,0.965
			c-0.141,0.249-2.279,6.996-10.309,12.764C741.88,432.83,730.32,438.818,712.3,438.818"/>
		<path clip-path="url(#SVGID_4_)" fill="#99CCE0" d="M655.545,486.159c-48.229,0.003-92.553-44.129-110.19-59.874
			c-3.144-2.806-6.111-5.456-6.863-5.815c0.002,0.001,0.204,0.096,0.528,0.096v-3.932c1.385,0,2.622,1.065,8.954,6.717
			c17.911,15.991,69.116,58.241,117.511,55.334l-2.79,7.472C661.027,486.257,657.208,486.159,655.545,486.159"/>
		<path clip-path="url(#SVGID_4_)" fill="#99CCE0" d="M560.823,467.48c-12.145,0-21.735-2.887-28.878-5.083
			c-13.884-4.267-19.664-11.904-19.964-12.156l1.139-1.349c0.067,0.058,7.007,5.799,20.201,9.815
			c12.183,3.708,32.354,6.662,59.259-0.324l4.464,5.374C584.824,466.929,570.277,467.48,560.823,467.48"/>
		<path clip-path="url(#SVGID_4_)" fill="#99CCE0" d="M613.728,468.413l-3.58-1.625c11.578-25.512-2.156-51.631-2.315-51.88
			l1.474-0.939c0.175,0.274,4.306,6.822,6.944,16.8C618.696,440.016,620.244,454.053,613.728,468.413"/>
		<path clip-path="url(#SVGID_4_)" fill="#99CCE0" d="M614.485,438.825c-10.228,0-18.479-10.894-23.28-16.305
			c-1.173-1.322-2.868-4.049-3.351-3.383c0.003,0.001-0.906-0.954-0.521-0.954l1.191,0.239c1.222,1.042,2.142,0.728,4.825,3.753
			c4.538,5.114,13.257,13.373,22.056,12.682l0.306,3.92C615.301,438.809,614.891,438.825,614.485,438.825"/>
		<path clip-path="url(#SVGID_4_)" fill="#99CCE0" d="M661.707,436.88c-15.806-2.212-24.726-9.608-29.427-15.423
			c-5.139-6.358-6.479-12.193-6.534-12.439l3.837-0.859c0.012,0.052,1.254,5.323,5.882,10.98
			c6.188,7.567,15.201,12.225,26.787,13.847L661.707,436.88z"/>
		<path clip-path="url(#SVGID_4_)" fill="#99CCE0" d="M687.485,427.788l-1.339-3.697c9.727-3.523,17.959-9.689,21.287-18.835
			c2.494-6.851,2.672-13.063,2.668-13.121l1.756-0.124c0.02,0.27,0.437,6.704-2.34,14.333
			C706.941,413.418,701.029,422.883,687.485,427.788"/>
		<path clip-path="url(#SVGID_4_)" fill="#99CCE0" d="M764.744,478.472c-1.991,0-4.771-0.208-6.826-0.315l1.388-5.794
			c12.077,0.628,23-0.655,32.464-3.814c7.529-2.513,14.161-6.215,19.713-11.002c4.942-4.262,8.104-8.62,9.885-11.525
			c1.937-3.158,2.71-5.334,2.718-5.356l3.714,1.29c-0.134,0.386-3.39,9.557-13.562,18.407c-5.939,5.166-13.024,9.157-21.059,11.86
			C784.829,475.034,775.003,478.472,764.744,478.472"/>
		<path clip-path="url(#SVGID_4_)" fill="#D2F0FF" d="M448.605,436.88c0,0,13.556,10.55,32.793,7.501
			c19.238-3.049,33.056-9.573,51.1-3.191c18.045,6.383,58.964,10.208,90.528-2.599c31.563-12.806,63.775-23.295,98.558-12.153
			s53.463,18.857,79.229,10.442s40.251,18.108,69.726,4.31c29.474-13.797,10.051-34.706-12.767-38.995
			c-22.818-4.29-58.247-32.169-99.474-25.735c-41.226,6.434-78.871-11.184-118.285-2.681s-60.146,21.45-100.085,18.231
			C499.991,388.792,418.476,413.126,448.605,436.88"/>
		<path clip-path="url(#SVGID_4_)" fill="#D2F0FF" d="M603.568,375.46c0,0-24.35,2.496-38.145,7.489
			c-13.796,4.992-45.433,1.996-33.408-13.48s20.991-25.461,47.894-22.466c26.902,2.996,53.825,5.991,61.402,12.981
			C648.888,366.974,614.121,376.958,603.568,375.46"/>
		<path clip-path="url(#SVGID_4_)" fill="#D2F0FF" d="M662.773,353.219c10.178-2.35,27.42,7.329,44.354,15.412
			s52.022,2.436,37.893-21.161c-14.131-23.598-24.757-38.879-58.5-35.699c-33.743,3.179-67.513,6.358-77.365,16.398
			C599.305,338.208,635.104,359.607,662.773,353.219"/>
		<path clip-path="url(#SVGID_4_)" fill="#99CCE0" d="M593.861,638.796c0,0,7.381-22.185,31.26-23.054
			c23.88-0.868,24.314,12.157,39.944,9.118c15.631-3.039,23.88-5.646,35.168,0.434c11.289,6.078,49.062,5.428,49.387,10.964
			C749.946,641.793,584.96,646.545,593.861,638.796"/>
		<path clip-path="url(#SVGID_4_)" fill="#99CCE0" d="M485.587,728.177c0,6.784-45.095,12.283-100.723,12.283
			c-55.628,0-100.724-5.499-100.724-12.283s45.096-12.283,100.724-12.283C440.493,715.894,485.587,721.393,485.587,728.177"/>
		<path clip-path="url(#SVGID_4_)" fill="#99CCE0" d="M810.823,678.352c0.314,7.849-51.599,16.305-115.952,18.889
			c-64.354,2.583-116.778-1.685-117.093-9.531c-0.315-7.848,51.598-16.304,115.952-18.888
			C758.084,666.237,810.508,670.504,810.823,678.352"/>
		<path clip-path="url(#SVGID_4_)" fill="#E5A031" d="M717.616,595.415c-1.374,3.424-3.082,9.365-1.583,16.151
			c1.336,6.053,4.668,10.262,8.075,14.567c2.81,3.551,4.214,5.325,6.334,6.65c2.936,1.836,4.491,3.019,7.6,5.384
			c0.369,0.28,1.146,0.889,1.427,1.9c0.414,1.503-0.528,2.957-0.951,3.642c-1.49,2.412-2.076,5.298-3.483,7.759
			c-1.519,2.655-2.982,7.323-2.691,16.151c-2.942,0.334-5.14,1.226-6.492,1.9c-0.701,0.349-5.202,2.651-6.651,6.334
			c-0.428,1.088-0.412,1.847-0.315,2.375c0.242,1.336,1.181,2.174,1.583,2.532c3.562,3.183,11.028,1.87,11.718,1.742
			c2.485-0.463,4.275-0.796,6.017-2.217c2.466-2.012,3.022-4.728,3.958-8.075c0.622-2.223,2.302-8.229,4.592-12.826
			c2.762-5.54,6.597-9.403,12.034-14.884c1.557-1.567,2.892-2.813,3.801-3.642c-0.572-1.104-1.291-2.658-1.899-4.592
			c-1.517-4.809-1.367-8.787-1.268-10.927c0.193-4.156,1.105-7.654,2.059-10.292c-3.8-6.439-7.601-12.879-11.4-19.317
			L717.616,595.415z"/>
		<path clip-path="url(#SVGID_4_)" fill="#E5A031" d="M842.084,595.138c-8.606,1.084-16.236-1.307-18.376-2.068
			c-7.249-2.577-10.859-6.478-22.821-19.402l-0.775-0.839c-7.226-7.805-14.551-15.683-21.772-23.415l6.301-5.884
			c7.23,7.741,14.564,15.63,21.797,23.442l0.777,0.84c11.892,12.85,14.293,15.326,19.382,17.136
			c1.63,0.579,16.215,5.406,25.865-3.548c7.646-7.093,7.045-17.88,6.847-19.97l8.583-0.813c0.266,2.799,1.049,17.256-9.565,27.104
			C853.273,592.406,847.487,594.457,842.084,595.138"/>
		<path clip-path="url(#SVGID_4_)" fill-rule="evenodd" clip-rule="evenodd" fill="#713727" d="M870.473,543.554
			c0.669,1.28,3.775,7.497,1.588,13.017c-2.211,5.583-9.202,8.851-12.583,6.508c-1.058-0.732-1.629-1.922-1.955-2.913
			c-0.541-1.639-1.155-4.148-1.004-7.051c0.271-5.189,2.822-8.361,3.945-9.577c-0.259,3.26-0.519,6.521-0.777,9.781
			c0.606-1.849,1.152-4.045,1.476-6.578c0.696-5.466,0.085-10.36-0.667-13.907c0,0,0.01,0.002,0.036,0.005
			c1.099,0.626,5.365,3.204,7.882,8.416c2.814,5.831,1.352,10.635,1.051,11.551c0.432-0.84,0.895-1.988,1.158-3.443
			C871.05,547.003,870.764,544.896,870.473,543.554"/>
		<path clip-path="url(#SVGID_4_)" fill="#FFBC39" d="M638.128,518.144c12.726-0.083,22.318,2.237,28.818,4.434
			c9.73,3.287,12.586,6.314,22.907,8.445c7.748,1.599,13.925,1.5,21.957,1.372c10.728-0.172,12.975-1.272,24.068-1.9
			c14.002-0.794,21.002-1.189,27.499,0.633c3.142,0.883,19.909,5.979,28.344,22.803c1.358,2.709,7.652,15.261,3.694,28.079
			c-2.072,6.713-5.36,8.329-6.968,17.102c-0.579,3.166-1.604,9.108,0.212,16.045c1.477,5.638,4.997,12.575,5.7,13.934
			c0.992,1.919,1.694,3.976,2.679,5.897c1.03,2.014,1.759,3.188,1.614,4.835c-0.127,1.443-0.844,2.351-1.549,3.414
			c-0.186,0.281-1.285,2.685-3.482,7.495c-1.563,3.42-4.051,8.858-4.856,15.517c-0.448,3.699-0.672,5.549-0.317,7.18
			c0.292,1.336,0.809,2.66,0.317,4.327c-0.42,1.428-1.349,2.324-1.795,2.744c-2.189,2.065-5.09,2.449-7.283,2.64
			c-8.775,0.762-13.155,1.246-14.251-0.423c-1.678-2.551,0.907-7.121,2.533-9.184c2.79-3.537,6.602-4.563,7.917-4.855
			c-0.115-4.293,0.127-9.565,1.267-15.466c0.726-3.75,1.684-7.089,2.692-9.975c-6.048-3.689-10.83-7.164-14.251-9.818
			c-8.562-6.64-11.782-10.603-12.668-11.717c-4.804-6.045-6.021-10.239-6.333-11.401c-1.004-3.726-0.982-6.987-0.792-9.184
			c-9.819-1.86-17.938-1.645-23.436-1.107c-5.812,0.567-10.218,1.644-11.241,1.899c-7.816,1.951-10.392,3.96-16.151,5.7
			c-4.044,1.222-10.116,2.45-18.228,1.897c0.298,4.376,0.402,11.126-1.038,19.162c-1.178,6.57-1.996,6.234-5.7,20.269
			c-3.42,12.959-5.131,19.438-5.067,21.112c0.086,2.276,0.482,6.203-1.899,8.656c-1.114,1.147-3.316,2.466-5.438,3.325
			c-0.328,0.133-1.215,0.482-2.375,0.792c-2.455,0.656-11.783,3.148-14.092-0.317c-1.501-2.25,0.363-6.409,2.533-8.709
			c3.743-3.965,9.214-3.255,9.816-3.167c0.957-5.141,2.12-12.648,2.692-21.851c0.401-6.454,0.593-9.819,0-13.934
			c-0.685-4.759-2.797-13.139-10.609-22.485c-3.183-0.4-6.577-1.26-9.976-2.85c-16.79-7.855-21.127-27.621-21.852-31.194
			C621.871,558.258,630,538.2,638.128,518.144"/>
		<path clip-path="url(#SVGID_4_)" fill="#E5A031" d="M625.883,590.242c0.224,12.488,1.753,22.314,3.167,29.136
			c1.115,5.385,1.706,6.711,2.532,12.034c2.06,13.259,1.138,22.701,0.846,25.335c-0.534,4.817-1.394,8.793-2.111,11.611
			c-1.341,0.107-3.912,0.521-6.123,2.429c-1.434,1.237-2.165,2.602-2.745,3.694c-1.175,2.215-1.612,4.257-1.794,5.595
			c3.938,1.309,7.254,1.51,9.396,1.479c3.766-0.056,7.319-0.108,9.395-2.534c0.923-1.079,1.319-2.655,2.111-5.806
			c0.747-2.971,1.015-5.255,1.056-5.596c0.77-6.399,3.61-11.091,6.229-19.95c1.299-4.396,1.851-7.505,2.955-13.724
			c1.32-7.433,2.104-14.374,2.533-20.689C644.181,605.585,635.031,597.914,625.883,590.242"/>
		<path clip-path="url(#SVGID_4_)" fill="#FCFCFC" d="M540.41,556.133c-0.08,0-0.156-0.032-0.214-0.09
			c-2.543-2.563-4.536-5.364-5.926-8.327l-0.07-0.151l17.272-5.944l10.072,6.241l-6.249,1.86c-0.076,0.021-0.153,0.034-0.232,0.034
			c-0.281,0-0.54-0.145-0.688-0.385l-1.572-2.536l-2.04,2.951c-0.154,0.223-0.396,0.35-0.667,0.35c-0.289,0-0.55-0.149-0.698-0.398
			l-1.725-2.922l-1.91,3.533c-0.142,0.262-0.415,0.425-0.714,0.425c-0.251,0-0.484-0.114-0.639-0.312l-2.862-3.678
			c-0.733,3.066-1.014,6.102-0.835,9.025c0.005,0.085-0.023,0.165-0.081,0.226C540.576,556.098,540.494,556.133,540.41,556.133"/>
		<path clip-path="url(#SVGID_4_)" d="M551.454,541.785l9.728,6.028l-5.929,1.764c-0.063,0.02-0.126,0.028-0.188,0.028
			c-0.224,0-0.438-0.115-0.562-0.313l-1.691-2.732l-2.172,3.141c-0.131,0.19-0.337,0.284-0.542,0.284
			c-0.221,0-0.442-0.108-0.569-0.324l-1.859-3.15l-2.037,3.767c-0.123,0.229-0.353,0.346-0.582,0.346
			c-0.193,0-0.386-0.082-0.521-0.255l-3.053-3.921c-0.787,3.166-1.101,6.291-0.913,9.371c0.006,0.098-0.072,0.164-0.154,0.164
			c-0.036,0-0.075-0.014-0.106-0.046c-2.478-2.496-4.471-5.243-5.896-8.284L551.454,541.785z M551.491,541.455l-0.135,0.047
			l-17.047,5.866l-0.316,0.108l0.143,0.303c1.395,2.979,3.397,5.793,5.954,8.369c0.086,0.086,0.199,0.134,0.319,0.134
			c0.125,0,0.247-0.052,0.333-0.144c0.086-0.091,0.129-0.212,0.121-0.339c-0.172-2.813,0.084-5.728,0.76-8.675l2.67,3.429
			c0.184,0.234,0.46,0.37,0.757,0.37c0.354,0,0.678-0.193,0.846-0.504l1.784-3.3l1.59,2.693c0.175,0.296,0.484,0.472,0.828,0.472
			c0.314,0,0.609-0.153,0.789-0.414l1.911-2.763l1.45,2.342c0.177,0.285,0.481,0.455,0.816,0.455c0.092,0,0.186-0.014,0.274-0.04
			l5.929-1.765l0.64-0.191l-0.567-0.352l-9.728-6.027L551.491,541.455z"/>
		<path clip-path="url(#SVGID_4_)" fill="#FCFCFC" d="M561.53,577.402c-2.732-2.771-4.733-5.398-6.119-8.035
			c-0.059-0.111-0.055-0.242,0.011-0.35c0.064-0.108,0.184-0.176,0.309-0.176c0.04,0,0.079,0.006,0.118,0.021
			c2.605,0.885,5.468,1.495,8.741,1.863l-2.643-3.815c-0.156-0.227-0.187-0.512-0.084-0.768c0.104-0.254,0.327-0.437,0.596-0.489
			l3.943-0.767l-2.272-2.52c-0.187-0.206-0.253-0.489-0.18-0.757c0.073-0.269,0.276-0.478,0.541-0.561l3.427-1.064l-1.95-2.257
			c-0.239-0.277-0.264-0.682-0.06-0.983l3.645-5.407l2.942,11.478l-10.842,14.712L561.53,577.402z"/>
		<path clip-path="url(#SVGID_4_)" d="M569.489,551.699l2.843,11.084l-10.695,14.514c-2.525-2.561-4.629-5.211-6.093-7.999
			c-0.076-0.146,0.037-0.306,0.187-0.306c0.022,0,0.046,0.004,0.069,0.012c2.811,0.954,5.864,1.561,9.101,1.907l-2.829-4.086
			c-0.271-0.393-0.051-0.934,0.417-1.024l4.204-0.817l-2.451-2.717c-0.323-0.357-0.166-0.93,0.295-1.073l3.646-1.133l-2.103-2.431
			c-0.194-0.227-0.214-0.554-0.047-0.801L569.489,551.699z M569.614,550.977l-0.374,0.554l-3.456,5.131
			c-0.242,0.358-0.213,0.838,0.069,1.165l1.802,2.084l-3.208,0.996c-0.315,0.099-0.555,0.347-0.643,0.663
			c-0.087,0.318-0.007,0.653,0.214,0.898l2.095,2.322l-3.682,0.716c-0.32,0.062-0.584,0.279-0.706,0.581
			c-0.123,0.301-0.087,0.641,0.099,0.909l2.454,3.543c-3.125-0.371-5.873-0.968-8.381-1.819c-0.055-0.019-0.111-0.028-0.167-0.028
			c-0.178,0-0.346,0.096-0.438,0.248c-0.093,0.153-0.098,0.339-0.015,0.497c1.392,2.65,3.401,5.29,6.145,8.071l0.247,0.25
			l0.208-0.283l10.696-14.514l0.084-0.114l-0.035-0.138l-2.843-11.084L569.614,550.977z"/>
		<path clip-path="url(#SVGID_4_)" fill="#BD8328" d="M567.963,552.933c0,0,4.279,12.457-4.808,20.423
			c0,0,10.568-1.496,11.387-7.393C575.36,560.064,567.963,552.933,567.963,552.933"/>
		<path clip-path="url(#SVGID_4_)" fill="#FFBC39" d="M600.289,537.325l-7.866,13.931c0,0-7.408,3.874-12.609,17.439
			c-0.105,0.271-0.212,0.54-0.311,0.816c-5.219,14.229-15.316,11.522-17.112,10.695c-1.802-0.834-2.87-1.109-0.704-6.387
			c2.166-5.271,17.522-3.082,5.823-18.256c-4.561-5.923-10.795-8.101-16.695-8.547c-6.304,2.107-10.201,1.755-14.499,1.73
			c-2.036,0.605-4.243-0.258-5.289-2.112c-0.546-0.97-1.016-1.943-1.421-2.895c-1.092-2.559-1.714-4.937-2.043-6.516
			c-0.27-1.291,0.235-2.618,1.274-3.428c1.978-1.532,4.538-2.684,7.197-3.54c6.804-2.195,14.259-2.472,14.259-2.472
			c0.527-0.382,1.033-0.786,1.508-1.202c8.26-7.238,9.645-19.613,9.645-19.613l26.47-6.968L600.289,537.325z"/>
		<path clip-path="url(#SVGID_4_)" fill="#FFD993" d="M579.813,568.695c-4.632,14.323-15.262,12.722-17.423,11.512
			c-1.802-0.833-2.87-1.109-0.704-6.387c2.166-5.271,17.522-3.082,5.823-18.257c-4.562-5.923-10.795-8.1-16.695-8.547
			c-6.304,2.108-10.202,1.756-14.499,1.732c-2.037,0.604-4.244-0.259-5.289-2.113c-0.781-1.303-1.515-3.017-2.119-4.696
			c5.753-2.688,27.679-11.641,40.205,1.338C575.634,551.162,580.56,560.113,579.813,568.695"/>
		<path clip-path="url(#SVGID_4_)" fill="#BD8328" d="M550.805,547.14c3.973,0.46,7.873,1.653,11.148,3.861
			c1.636,1.097,3.105,2.426,4.371,3.927c1.246,1.511,2.416,3.16,3.381,4.858c0.466,0.858,0.918,1.729,1.207,2.639
			c0.292,0.903,0.46,1.838,0.347,2.717c-0.042,0.443-0.191,0.856-0.377,1.253c-0.22,0.379-0.466,0.753-0.806,1.065
			c-0.649,0.648-1.473,1.169-2.337,1.634c-0.867,0.466-1.778,0.89-2.678,1.366c-0.898,0.472-1.808,0.998-2.574,1.74
			c-0.371,0.378-0.727,0.799-0.932,1.306c-0.214,0.492-0.345,0.96-0.505,1.447c-0.29,0.965-0.583,1.959-0.57,2.975
			c0.141-0.998,0.521-1.93,0.904-2.851c0.201-0.45,0.398-0.937,0.633-1.344c0.213-0.413,0.543-0.757,0.898-1.065
			c1.491-1.203,3.449-1.788,5.269-2.712c0.916-0.456,1.849-0.97,2.635-1.739c0.404-0.366,0.735-0.829,1.021-1.315
			c0.252-0.505,0.451-1.051,0.515-1.609c0.15-1.123-0.068-2.212-0.392-3.213c-0.324-1.011-0.805-1.931-1.298-2.837
			c-1.025-1.796-2.231-3.413-3.559-4.989c-1.348-1.557-2.953-2.881-4.688-3.974c-3.478-2.212-7.574-3.229-11.596-3.389
			L550.805,547.14z"/>
		<path clip-path="url(#SVGID_4_)" fill="#845E34" d="M532.24,542.03c0,0,1.25-2.083,3.275-4.704l-3.519-3.105l-3.443,4.039
			L532.24,542.03z"/>
		<path clip-path="url(#SVGID_4_)" fill="#BD8328" d="M527.563,537.226c0.331,1.578,0.95,3.958,2.044,6.518
			c1.143-0.607,2.104-1.26,2.91-1.939c0.588-0.496,0.909-1.26,0.768-2.016c-0.214-1.147-1.224-0.903-2.399-1.264
			c-1.676-0.516-1.31-2.025,1.104-2.465c1.275-0.231,1.773,0.226,1.822,2.727c0.012,0.596,1.053,0.442,1.248-0.12
			c0.991-2.847,1.74-5.102,0.973-8.41c-2.655,0.856-5.215,2.007-7.192,3.545C527.796,534.61,527.295,535.935,527.563,537.226"/>
		<path clip-path="url(#SVGID_4_)" fill="#FFFFFF" d="M566.089,523.836c-0.81,0.475-1.784,0.428-2.523-0.053
			c-0.306-0.188-0.575-0.458-0.77-0.792c-0.341-0.576-0.411-1.233-0.258-1.832c0.07-0.271,0.193-0.534,0.358-0.77h0.005
			c0.229,0.029,0.458,0.013,0.698-0.022c0.089-0.013,0.171-0.03,0.259-0.041c0.587-0.124,1.21-0.348,1.808-0.641
			c0.065-0.029,0.129-0.059,0.194-0.1c0.335,0.146,0.64,0.382,0.881,0.681c0.07,0.088,0.129,0.177,0.187,0.276
			C567.609,521.688,567.229,523.161,566.089,523.836"/>
		<path clip-path="url(#SVGID_4_)" d="M563.564,523.783c-0.305-0.188-0.574-0.458-0.769-0.792c-0.34-0.576-0.411-1.233-0.258-1.832
			c0.069-0.271,0.192-0.534,0.357-0.77h0.007c0.229,0.029,0.457,0.013,0.697-0.022c0.088-0.012,0.171-0.03,0.259-0.041
			c0.029,0.029,0.053,0.052,0.076,0.082c0.07,0.088,0.129,0.176,0.188,0.275C564.745,521.728,564.48,523.049,563.564,523.783"/>
		<path clip-path="url(#SVGID_4_)" d="M569.828,517.338c-0.48,0.669-1.051,1.262-1.66,1.819c-0.446,0.399-0.923,0.77-1.428,1.109
			c-0.192,0.123-0.387,0.241-0.587,0.358c-0.364,0.212-0.751,0.388-1.162,0.539c-0.411,0.153-0.851,0.271-1.333,0.271
			c-0.369,0.012-0.773-0.082-1.121-0.275c-0.088-0.053-0.176-0.118-0.258-0.183c-0.388-0.328-0.581-0.786-0.587-1.22
			c0.329,0.293,0.646,0.498,0.957,0.581c0.082,0.022,0.164,0.041,0.246,0.052h0.006c0.229,0.03,0.458,0.012,0.699-0.023
			c0.657-0.1,1.379-0.34,2.065-0.681c0.065-0.029,0.13-0.059,0.194-0.1c0.634-0.3,1.256-0.657,1.878-1.021L569.828,517.338z"/>
		<path clip-path="url(#SVGID_4_)" fill="#7E3E2B" d="M661.352,513.393c1.385-0.377,3.798-0.843,6.756-0.422
			c3.2,0.455,5.524,1.734,6.756,2.533c-0.238-1.056-1.658-6.882-7.389-10.345c-4.728-2.856-9.425-2.314-10.769-2.111
			c3.66-0.704,7.319-1.408,10.979-2.111c-3.489,0.345-7.816,0.396-12.668-0.423c-12.219-2.061-20.636-8.435-24.701-12.034
			c5.348-0.281,10.697-0.563,16.045-0.844c-5.802-1.816-13.72-3.645-23.224-4.012c-4.708-0.181-9.073,0.028-13.04,0.459
			c-10.721-0.912-19.16,1.604-19.16,1.604c1.204-5.119,3.789-7.561,3.789-7.561c-14.632,3.059-22.853,9.526-27.46,15.563v-0.002
			c-11.896,5.534-5.82,13.284-5.82,13.284s12.816-0.877,17.472,6.789s-2.844,14.063,1.462,21.178c2.659,4.396,4.95,2.388,7.558,7.57
			c1.617,3.214,1.779,6.386,1.791,9.462c-15.546,15.893-11.527,33.579-2.963,40.42c6.672,5.33,7.723,10.98,7.834,13.455
			c-0.594,1.48-1.23,2.828-1.864,4.032c4.152-3.167,8.305-6.333,12.457-9.5c1.41,5.875,3.884,9.325,5.911,11.4
			c2.304,2.358,4.739,3.589,7.601,7.39c1.467,1.947,2.561,3.831,3.378,5.489c2.633-2.104,6.765-5.974,9.924-12.034
			c4.217-8.092,4.379-15.638,4.222-19.212c0.897,0.347,2.036,0.683,3.378,0.844c2.966,0.356,5.384-0.329,6.756-0.844
			c-0.665-1.428-2.036-3.888-4.645-6.123c-2.517-2.157-5.055-3.137-6.545-3.589c1.92-0.311,5.293-0.604,9.29,0.422
			c3.923,1.006,6.701,2.833,8.233,4.011c-0.075-1.835-0.346-4.077-1.056-6.545c-1.466-5.095-4.097-8.69-5.911-10.767
			c2.234,0.989,4.771,1.944,7.6,2.744c1.162,0.328,2.29,0.607,3.378,0.845c0.386-1.098,2.41-7.206-0.844-13.513
			c-2.367-4.585-6.194-6.698-7.601-7.389c2.584-0.007,8.27,0.346,13.934,4.011c3.008,1.946,5.045,4.203,6.334,5.912
			c0.584-4.429,0.963-11.517-1.055-19.846c-1.812-7.468-4.863-13.104-7.179-16.679c1.673-0.271,4.303-0.478,7.39,0.211
			c2.13,0.475,3.837,1.232,5.066,1.899c0.303-1.005,1.337-4.871-0.634-8.867C670.171,516.195,666.028,513.63,661.352,513.393"/>
		<path clip-path="url(#SVGID_4_)" fill="#FFBD5E" d="M586.346,514.929c-2.111-2.475-2.338-6.056-0.537-8.765
			c3.906-5.875,8.48-8.882,11.287-7.912c4.209,1.457,6.53,12.585,1.294,18.33c-0.024,0.027-0.051,0.056-0.075,0.082
			c-2.932,3.143-7.99,2.923-10.781-0.346L586.346,514.929z"/>
		<path clip-path="url(#SVGID_4_)" fill="#FFD993" d="M587.725,514.568c-1.259-1.176-1.683-2.981-1.112-4.606
			c0.901-2.568,2.635-5.854,5.96-7.715c0.972-0.545,2.79-1.563,4.272-0.867c2.21,1.036,2.409,5.289,1.725,7.979
			c-0.763,2.998-2.874,5.034-4.739,6.307c-1.668,1.137-3.899,0.967-5.375-0.412L587.725,514.568z"/>
		<path clip-path="url(#SVGID_4_)" fill="#CCA279" d="M354.011,723.289c0,0-8.342-0.704-14.739-3.605
			c-6.396-2.902-5.776-4.624-5.1-6.319c0.339-0.85,1.987-3.669,3.541-6.267c1.54-2.568,2.991-4.916,2.991-4.916l9.372-2.201
			l0.408-0.095c-0.097,0.211-0.193,0.418-0.286,0.625c-1.978,4.408-2.607,8.069-1.86,10.805c0.117,0.441,0.276,0.86,0.466,1.251
			C350.245,715.509,354.011,723.289,354.011,723.289"/>
		<path clip-path="url(#SVGID_4_)" fill="#56524F" d="M347.916,711.498c0,0,1.33,1.163,2.06,1.902
			c0.73,0.74,16.897,19.03,16.897,19.03s-0.477,2.881-2.47,2.837c-1.993-0.043-16.487-5.528-21.184-7.887
			c-4.697-2.36-11.424-4.666-12.192-6.104c-0.768-1.438-0.656-3.51,0.337-5.125c0.993-1.614,3.812-6.359,3.977-6.628
			c0.164-0.27,1.61,0.816,1.61,0.816l9.458,7.774c0,0-2.093-3.315-1.686-4.508C345.13,712.414,347.916,711.498,347.916,711.498"/>
		<path clip-path="url(#SVGID_4_)" fill="#0F0E0E" d="M331.363,716.151c0,0-1.003,1.682-1.457,2.858
			c-0.454,1.176-0.58,3.836-0.58,3.836s1.308,1.229,4.937,3.064c3.628,1.838,5.745,1.972,5.745,1.972s1.768,1.495,3.474,2.239
			c1.705,0.744,18.525,6.977,20.239,7.244c1.713,0.27,2.713-0.803,2.942-1.397c0.23-0.595,0.209-3.538,0.209-3.538
			s-1.271,1.276-2.664,1.089c-1.393-0.187-20.525-7.11-22.977-8.654c-2.452-1.545-3.837-1.753-6.834-3.1s-3.882-2.702-3.823-3.31
			C330.633,717.846,331.363,716.151,331.363,716.151"/>
		<path clip-path="url(#SVGID_4_)" fill="#CCA279" d="M425.57,721.783c0,0-8.318,0.966-15.098-0.611
			c-6.78-1.581-6.461-3.396-6.082-5.197c0.204-0.983,1.531-4.544,2.7-7.581c0.97-2.54,1.831-4.711,1.831-4.711l9.223-4.206
			c-1.387,5.116-1.432,9.11-0.123,11.772c0.179,0.368,0.388,0.712,0.62,1.027C420.554,714.882,425.57,721.783,425.57,721.783"/>
		<path clip-path="url(#SVGID_4_)" fill="#987957" d="M348.338,711.315c-2.327-0.545-4.882-1.303-7.184-2.347
			c-1.506-0.684-2.624-1.301-3.441-1.871c1.54-2.568,2.99-4.916,2.99-4.916l9.373-2.2c0.035,0.179,0.074,0.358,0.122,0.529
			C348.219,704.919,347.591,708.58,348.338,711.315"/>
		<path clip-path="url(#SVGID_4_)" fill="#987957" d="M418.021,711.249c-1.869-0.121-3.822-0.36-5.663-0.792
			c-2.806-0.653-4.392-1.347-5.267-2.063c0.97-2.54,1.831-4.711,1.831-4.711l9.223-4.206
			C416.757,704.593,416.712,708.587,418.021,711.249"/>
		<path clip-path="url(#SVGID_4_)" fill="#56524F" d="M417.944,711.089c0,0,1.145,1.195,1.987,1.777
			c0.843,0.582,19.828,15.347,19.828,15.347s0.019,2.928-1.948,3.28c-1.967,0.354-17.142-2.154-22.158-3.541
			c-5.016-1.386-12.02-2.314-13.018-3.575c-0.998-1.262-1.238-3.32-0.535-5.105c0.703-1.785,2.672-7.009,2.789-7.307
			c0.116-0.297,1.721,0.482,1.721,0.482l10.612,5.763c0,0-2.618-2.844-2.42-4.097C415,712.86,417.944,711.089,417.944,711.089"/>
		<path clip-path="url(#SVGID_4_)" fill="#0F0E0E" d="M402.1,719.271c0,0-0.702,1.853-0.949,3.1
			c-0.247,1.247,0.079,3.887,0.079,3.887s1.493,0.947,5.371,2.031c3.877,1.084,5.981,0.795,5.981,0.795s1.991,1.118,3.793,1.511
			c1.803,0.394,19.391,3.174,21.121,3.098c1.73-0.077,2.531-1.329,2.656-1.96s-0.393-3.52-0.393-3.52s-1.033,1.507-2.434,1.601
			c-1.402,0.094-21.38-2.908-24.052-3.938c-2.671-1.031-4.068-0.96-7.242-1.689c-3.174-0.728-4.272-1.883-4.317-2.493
			C401.669,721.082,402.1,719.271,402.1,719.271"/>
		<path clip-path="url(#SVGID_4_)" fill="#C6C6C6" d="M379.685,647.713c-1.32,7.51-3.721,14.563-4.84,17.851
			c-1.006,2.959-1.939,5.396-2.634,7.134c-4.268,13.812-13.562,30.647-22.776,38.021c-3.572-1.148-11.582-6.374-11.582-6.374
			s3.454-13.87,6.196-27.13l0.001-0.014c1.746-8.436,3.202-16.624,3.3-20.828c0.489-21.047,11.791-63.954,20.667-62.745
			c5.307,0.725,11.659,27.593,12.175,30.225C382.133,633.784,380.677,642.078,379.685,647.713"/>
		<path clip-path="url(#SVGID_4_)" fill="#DDDDDD" d="M428.97,685.42c-1.63,8.43-3.6,17.39-10.45,24.93
			c-3.5-0.1-12.24-3.569-12.24-3.569s2.86-20.16-5.72-37.7h0.01c-2.77-3.3-6.72-8.21-11.13-14.42c-1.23-1.73-2.43-3.43-3.6-5.09
			c-4.12-5.87-7.84-11.36-10.92-16.811c-2.62-4.62-4.78-9.2-6.35-13.96c-1.09-3.33-1.9-6.75-2.37-10.33
			c-1.99-15.16,1.77-35.26,9.46-36.92c9.4-2.02,26.31,22.431,34.16,44.63c0.55,1.551,1.26,3.44,2.1,5.521
			c0.21,0.52,0.42,1.05,0.65,1.6c0.13,0.311,0.26,0.62,0.39,0.94c0.17,0.41,0.35,0.83,0.53,1.25c0.08,0.2,0.17,0.41,0.26,0.62
			c0.18,0.42,0.36,0.84,0.55,1.26c0.26,0.61,0.53,1.22,0.81,1.83c0.21,0.45,0.42,0.91,0.63,1.37c1.24,2.71,2.55,5.39,3.84,7.8
			c0.24,0.439,0.48,0.88,0.72,1.3c0.31,0.561,0.61,1.09,0.92,1.6C428.99,654.34,431.91,670.2,428.97,685.42"/>
		<path clip-path="url(#SVGID_4_)" fill="#C6C6C6" d="M420.3,639.67c-8.57,10.3-26.07,10.48-34.46,9.9
			c-4.12-5.87-1.311-0.324-4.391-5.774c-8.082-13.876-9.619-42.986-9.619-43.116l-6.407,16.056c-1.09-3.33,1.247-4.686,0.777-8.266
			c-1.99-15.16,1.77-35.26,9.46-36.92c9.4-2.02,26.31,22.431,34.16,44.63c0.55,1.551,1.26,3.44,2.1,5.521
			c0.21,0.52,0.42,1.05,0.65,1.6c0.13,0.311,0.26,0.62,0.39,0.94c0.17,0.41,0.35,0.83,0.53,1.25c0.08,0.2,0.17,0.41,0.26,0.62
			c0.18,0.42,0.36,0.84,0.55,1.26c0.26,0.61,0.53,1.22,0.81,1.83c0.21,0.45,0.42,0.91,0.63,1.37c1.24,2.71,2.55,5.39,3.84,7.8
			C419.82,638.81,420.06,639.25,420.3,639.67"/>
		<path clip-path="url(#SVGID_4_)" fill="#CCA279" d="M418.677,573.33c-0.186-0.188-7.365,6.173-7.365,6.173
			c0.261,0.278,0.568,0.681,0.873,1.107c0.38,0.526,0.755,1.091,1.036,1.506l0.003,0.001c0.198,0.297,0.347,0.52,0.416,0.6
			c0.759,0.869,2.02,3.674,3.376,5.191c1.356,1.516,3.748,4.163,4.981,5.035c1.159,0.816,3.041,0.422,3.203-0.59
			c0.015-0.071,0.102-0.1,0.151-0.048c0.409,0.41,1.372,1.318,2.607,0.372c0.419-0.319,0.536-0.648,0.601-1.011
			c0.062-0.364,0.475-0.549,0.789-0.357c0.544,0.335,1.275,0.521,2.069,0.005c0.93-0.606,1.027-1.472,0.861-2.229
			c0.279,0.13,0.661,0.157,1.182-0.011c0.298-0.096,0.507-0.283,0.706-0.482c0.756-0.77,0.701-2.019,0.147-3.295
			c-0.229-0.527-0.545-1.059-0.923-1.564c0.082,0.016,0.165,0.027,0.245,0.039c1.537,0.236,2.543,0.164,3.336-0.76
			c-0.594-1.638-6.269-5.355-8.261-6.065c-1.519-0.541-3.593-0.313-4.618-0.483c-0.097-0.017-0.208-0.043-0.325-0.08h-0.007
			c-0.27-0.082-0.594-0.206-0.944-0.365c-0.063-0.027-0.129-0.06-0.195-0.092c-0.612-0.287-1.294-0.67-1.941-1.077
			C419.889,574.346,419.153,573.805,418.677,573.33"/>
		<path clip-path="url(#SVGID_4_)" fill="#987957" d="M422.636,575.924c-0.779-0.406-1.729-0.961-1.956-1.075
			c-3.159,0.53-6.621,4.294-8.494,5.761c0.104,0.171,0.895,1.332,1.008,1.526c0.011-0.006,0.019-0.013,0.031-0.02
			c0.939-0.547,3.609-3.656,7.079-5.386c0.531-0.265,1.456-0.561,2.317-0.805C422.625,575.927,422.631,575.927,422.636,575.924"/>
		<path clip-path="url(#SVGID_4_)" fill="#4080A0" d="M412.295,582.048c-4.546-1.771-25.94-10.643-32.761-32.036
			c-5.109-16.022-1.413-37.099,7.322-39.991c1.849-0.612,25.873,55.696,34.787,65.115c-2.035,0.736-3.762,1.766-5.157,2.804
			c-1.626,1.211-2.728,2.382-3.163,2.865C412.89,581.289,412.546,581.72,412.295,582.048"/>
		<path clip-path="url(#SVGID_4_)" fill="#987957" d="M421.572,591.486c0.039,0.028,0.089,0.041,0.141,0.031
			c0.098-0.02,0.163-0.114,0.144-0.213c-0.026-0.136-0.088-0.611,0.21-0.995c0.172-0.224,0.52-0.481,1.198-0.438
			c0.497,0.03,0.853,0.287,1.022,0.439c0.074,0.064,0.177,0.062,0.246-0.002c0.069-0.064,0.077-0.17,0.02-0.244
			c-0.311-0.405-0.429-0.913-0.323-1.396c0.086-0.395,0.316-0.724,0.614-0.88c0.498-0.26,1.343-0.101,1.839,0.61
			c0.053,0.078,0.156,0.102,0.238,0.055c0.082-0.046,0.115-0.146,0.077-0.232c-0.229-0.517-0.247-1.081-0.046-1.548
			c0.14-0.328,0.374-0.571,0.641-0.667c0.347-0.124,0.795-0.013,1.202,0.29c0.043,0.038,0.087,0.074,0.133,0.108
			c0.086,0.063,0.189,0.045,0.25-0.029c0.062-0.075,0.053-0.187-0.02-0.251c-0.043-0.039-0.087-0.075-0.132-0.109
			c-0.289-0.265-0.471-0.625-0.507-1.011c-0.035-0.387,0.078-0.753,0.311-1.008c0.406-0.442,1.159-0.523,1.751-0.19
			c0.088,0.05,0.199,0.019,0.248-0.069c0.05-0.088,0.02-0.195-0.069-0.248c-0.748-0.421-1.672-0.311-2.197,0.263
			c-0.303,0.328-0.451,0.798-0.406,1.285c0.02,0.215,0.076,0.423,0.165,0.616c-0.296-0.083-0.591-0.082-0.851,0.011
			c-0.363,0.13-0.674,0.445-0.854,0.865c-0.15,0.353-0.2,0.748-0.148,1.144c-0.55-0.393-1.246-0.492-1.793-0.206
			c-0.399,0.209-0.691,0.619-0.802,1.124c-0.078,0.356-0.056,0.726,0.057,1.068c-0.184-0.077-0.399-0.137-0.643-0.151
			c-0.838-0.053-1.283,0.286-1.509,0.579c-0.391,0.505-0.313,1.111-0.279,1.286C421.509,591.421,421.536,591.461,421.572,591.486"/>
		<path clip-path="url(#SVGID_4_)" fill="#987957" d="M422.436,584.45c0.022,0.017,0.047,0.027,0.075,0.032
			c0.099,0.018,0.193-0.049,0.21-0.147c0.084-0.477,0.075-0.95-0.028-1.408c-0.056-0.254-0.138-0.488-0.237-0.703
			c0.434,0.235,0.932,0.442,1.493,0.583c0.921,0.232,1.87,0.26,2.82,0.082c0.098-0.018,0.163-0.114,0.145-0.212
			c-0.018-0.1-0.114-0.165-0.212-0.146c-0.898,0.168-1.794,0.143-2.664-0.077c-0.797-0.199-1.46-0.541-1.987-0.902
			c-0.444-0.591-0.98-0.955-1.268-1.125c-0.077-0.044-0.175-0.027-0.232,0.041c-0.057,0.068-0.056,0.169,0.003,0.235
			c0.26,0.3,0.673,0.716,1.241,1.113c0.236,0.324,0.438,0.719,0.543,1.191c0.092,0.41,0.1,0.836,0.025,1.265
			C422.35,584.343,422.381,584.412,422.436,584.45"/>
		<path clip-path="url(#SVGID_4_)" fill="#5190B7" d="M387.204,656.837c-3.073-6.359-6.812-15.325-9.551-26.449
			c-6.609-26.84-2.852-47.78-4.104-47.933c-1.049-0.127-4.246,14.521-13.223,74.535c-13.048-0.829-24.981-3.12-23.666-7.236
			c5.281-16.532,15.186-43.903,13.409-82.625c-1.008-21.97-6.038-27-5.102-44.996c0.409-7.874,11.086-19.813,20.203-22.363
			c6.915-1.934,20.213,5.156,22.816,7.829c10.277,10.551,10.205,31.542,13.324,50.911c4.762,29.573,2.824,30.926,4.589,38.241
			c4.791,19.857,14.666,35.032,23.427,45.637c-4.301,3.232-10.938,7.467-19.836,10.531
			C400.512,656.01,392.607,656.748,387.204,656.837"/>
		<path clip-path="url(#SVGID_4_)" fill="#C6C6C6" d="M418.523,710.353c-3.5-0.103-12.247-3.573-12.247-3.573
			s2.86-20.155-5.711-37.698c5.515,8.094,6.888,23.775,7.228,31.446c0.123,2.761,1.641,5.218,3.949,6.388L418.523,710.353z"/>
		<path clip-path="url(#SVGID_4_)" fill="#5190B7" d="M368.814,493.651c-1.192,2.304-1.683,2.883-2.402,3.588
			c12.606,6.553,17.615,12.772,18.68,14.061c0.008-1.517-0.565-7.715-1.095-9.43c-4.198-1.405-6.246-3.14-9.531-4.943
			C372.123,495.642,370.774,494.832,368.814,493.651"/>
		<path clip-path="url(#SVGID_4_)" fill="#4C6580" d="M368.814,493.651c-0.588,1.331-1.213,2.689-2.244,3.749l-0.054-0.361
			c7.072,3.42,13.942,7.797,18.882,14.008l-0.704,0.251c0.015-1.538-0.099-3.14-0.211-4.709c-0.108-1.578-0.196-3.161-0.486-4.719
			c0.512,1.508,0.726,3.099,0.99,4.664c0.271,1.931,0.49,3.928,0.561,5.909c-5.24-6.32-12.192-10.922-19.24-15.003l-0.283-0.165
			C367.242,496.318,368.014,494.956,368.814,493.651"/>
		<path clip-path="url(#SVGID_4_)" fill="#446C84" d="M364.768,497.242c-0.93-0.696-2.273-0.292-2.273-0.292
			s-0.836,3.959-1.323,4.437C371.826,504.827,369.847,500.155,364.768,497.242"/>
		<path clip-path="url(#SVGID_4_)" fill="#4C6580" d="M380.263,504.739c2.335,6.61,4.193,13.389,5.635,20.25
			c0.471,2.294,0.938,4.574,1.138,6.937l-0.176-0.116c1.047-0.391,2.103-0.756,3.133-1.188c-1.046,0.535-2.123,1.008-3.191,1.495
			C385.329,522.865,382.689,513.791,380.263,504.739"/>
		<path clip-path="url(#SVGID_4_)" fill="#BC956B" d="M382.413,512.454c-4.57-7.455-18.242-10.659-18.242-10.659
			s-0.102-1.371-0.265-3.23c-0.05-0.619-0.111-1.279-0.172-1.97c-0.325-3.453-0.803-7.414-1.239-7.688l13.904,5.433
			c0.345,0.356,1.177,4.762,1.867,8.611c0.031,0.153,3.192,4.438,3.223,4.581C381.712,508.7,381.097,506.638,382.413,512.454"/>
		<path clip-path="url(#SVGID_4_)" fill="#987957" d="M378.267,502.951c-1.95-0.041-7.048-0.688-14.533-6.355
			c-0.325-3.453-0.802-7.414-1.239-7.689l13.904,5.434C376.745,494.695,377.576,499.103,378.267,502.951"/>
		<path clip-path="url(#SVGID_4_)" fill="#111010" d="M356.608,486.733c0.344,0.818,0.999,2.084,2.217,3.294
			c1.622,1.612,3.391,2.276,4.311,2.55c-0.777-0.858-1.611-1.885-2.43-3.096c-0.999-1.475-1.744-2.88-2.301-4.107
			C357.806,485.828,357.207,486.281,356.608,486.733"/>
		<path clip-path="url(#SVGID_4_)" fill="#BC956B" d="M373.142,500.987c1.059,0.442,3.155,1.133,5.618,0.638
			c1.695-0.341,3.417-1.233,5.503-3.375c4.732-4.856,6.302-10.97,7.541-16.028c0.376-1.532,1.281-5.494,1.577-10.77
			c0.356-6.33,0.031-9.043-0.178-11.6c-0.05-0.62-1.11-4.136-1.564-4.574c-6.156-5.933-23.135-0.569-23.137-0.55
			c0,0.001,0.047,0.005,0.101,0.01c-1.414,0.406-5.574-0.869-7.275-0.035c-2.062,1.011-1.7,4.25-3.736,6.16
			C345.512,470.379,360.315,496.085,373.142,500.987"/>
		<path clip-path="url(#SVGID_4_)" fill="#111010" d="M358.125,482.273c-1.48-1.479-2.964-2.97-4.451-4.473
			c-1.02-1.032-2.035-2.062-3.045-3.091c-1.516-1.545-2.637-3.455-3.112-5.567c-0.041-0.182-0.078-0.368-0.111-0.558
			c-0.332-1.898-0.109-3.356,0.171-5.183c0.429-2.797,1.244-4.79,1.735-5.969c1.081-2.597,2.057-3.853,2.521-4.406
			c1.492-1.785,2.47-2.041,2.992-2.108c0.847-0.108,1.565,0.145,1.991,0.343c0.316-1.153,1.077-3.317,2.976-5.314
			c2.217-2.333,4.729-3.118,5.676-3.401c2.883-0.861,6.274-0.108,13.056,1.398c3.187,0.707,4.724,1.198,6.404,2.159
			c3.081,1.761,4.277,3.749,4.59,4.302c0.415,0.734,0.666,1.397,0.818,1.872c0.839,0.497,2.171,1.434,3.285,3.028
			c1.514,2.164,1.77,4.316,1.898,5.517c0.116,1.089,0.124,2.371-1.017,7.618c-0.344,1.581-0.83,3.69-1.479,6.177
			c0.582-3.565,0.127-6.143-0.416-7.861c-0.421-1.333-0.825-1.926-1.639-4.527c-0.711-2.271-1.024-3.801-1.198-4.807
			c-0.189-1.089-0.295-2.017-0.357-2.702c-0.879,0.505-2.261,1.208-4.046,1.746c-3.399,1.023-6.226,0.83-14.338-0.17
			c-3.227-0.398-6.062-0.772-8.408-1.092c0.572,1.378,2.062,5.472,0.85,10.555c-1.286,5.396-4.794,8.462-5.923,9.374
			C357.74,477.513,357.934,479.894,358.125,482.273"/>
		<path clip-path="url(#SVGID_4_)" fill="#484443" d="M383.227,449.908c-0.671,0.048-1.405,0.066-2.193,0.035
			c-1.529-0.06-2.872-0.29-3.985-0.565c0.67,0.794,1.663,1.786,3.051,2.661c0.752,0.474,1.472,0.82,2.106,1.074
			c-2.041,0.371-4.692,0.657-7.775,0.486c-2.642-0.145-4.915-0.588-6.723-1.069c1.94,1.018,5.881,2.754,11.123,2.769
			c4.501,0.013,7.986-1.247,9.917-2.114c-1.441-0.151-3.159-0.454-5.038-1.048c-1.159-0.367-2.194-0.785-3.098-1.208
			c0.62,0.118,1.727,0.244,3.044-0.078c1.166-0.284,2.012-0.802,2.503-1.157C385.182,449.766,384.204,449.837,383.227,449.908"/>
		<path clip-path="url(#SVGID_4_)" fill="#484443" d="M359.438,459.444c0.193,1.275,0.325,3.241-0.194,5.537
			c-0.781,3.449-2.604,5.75-3.583,6.824c0.699-0.347,3.03-1.617,4.24-4.426C361.58,463.48,359.687,459.896,359.438,459.444"/>
		<path clip-path="url(#SVGID_4_)" fill="#484443" d="M357,464.272c-0.286,0.984-0.747,2.226-1.512,3.56
			c-0.874,1.523-1.852,2.656-2.64,3.44c0.536-0.164,2.022-0.698,3.119-2.198C357.492,466.991,357.078,464.672,357,464.272"/>
		<path clip-path="url(#SVGID_4_)" fill="#484443" d="M392.039,460.085c0.004,0.426,0.04,1.131,0.242,1.971
			c0.297,1.235,0.702,1.724,1.007,2.948c0.117,0.472,0.258,1.208,0.262,2.165c-0.083-1.261-0.172-2.47-0.27-3.768
			c-0.049-0.651-0.109-1.361-0.498-2.179C392.539,460.71,392.252,460.332,392.039,460.085"/>
		<path clip-path="url(#SVGID_4_)" fill="#BC956B" d="M358.509,485.759c-0.362,0.544-1.03,0.784-1.392,0.913
			c-1.31,0.47-2.497,0.024-2.816-0.095c-1.11-0.417-2.026-1.768-3.814-4.451c-0.511-0.767-1.032-1.706-2.074-3.583
			c-0.644-1.16-0.976-1.807-0.879-2.662c0.015-0.129,0.185-1.464,1.074-1.871c0.972-0.444,2.224,0.49,3.806,1.7
			c1.107,0.847,2.378,1.837,3.736,3.688C357.161,480.778,359.605,484.112,358.509,485.759"/>
		<path clip-path="url(#SVGID_4_)" fill="#FFFFFF" d="M369.202,478.896c0.748-0.008,1.507,0.091,2.236,0.166
			c0.546,0.085,1.099,0.178,1.647,0.307c3.125-0.701,3.901-4.005,3.901-4.005c-0.17-0.054-0.731-0.118-1.504-0.19
			c-1.511-0.145-3.835-0.312-5.645-0.428c-1.521-0.104-2.683-0.176-2.683-0.176S366.713,477.577,369.202,478.896"/>
		<path clip-path="url(#SVGID_4_)" fill="#3F2E20" d="M372.544,478.126c0.144,0.023,0.29,0.035,0.433,0.036
			c0.026-0.002,0.048-0.003,0.071,0.001c0.01-0.003,0.022-0.001,0.032-0.004c0.043-0.002,0.082-0.002,0.118-0.007
			c0.032-0.004,0.06-0.002,0.087-0.004c1.258-0.137,2.312-1.096,2.516-2.406c0.03-0.195,0.04-0.384,0.033-0.574
			c-1.512-0.144-3.836-0.311-5.646-0.428c-0.002,0.012-0.005,0.019-0.008,0.03c-0.007,0.03-0.013,0.064-0.019,0.099
			c-0.005,0.023-0.01,0.041-0.009,0.063C369.948,476.467,371.006,477.891,372.544,478.126"/>
		<path clip-path="url(#SVGID_4_)" fill="#FFFFFF" d="M384.672,478.46c0.625,0.011,1.253,0.104,1.858,0.184
			c0.439,0.08,0.877,0.16,1.312,0.274c0.004-0.008,0.004-0.008,0.006-0.002c2.803-0.495,3.559-3.412,3.559-3.412
			c-0.175-0.055-0.84-0.145-1.733-0.243c-1.429-0.165-3.429-0.349-4.888-0.481c-1.098-0.1-1.892-0.168-1.892-0.168
			S382.432,477.29,384.672,478.46"/>
		<path clip-path="url(#SVGID_4_)" fill="#3F2E20" d="M388.113,477.754c0.128-0.002,0.252-0.017,0.375-0.037
			c0.025-0.001,0.043-0.005,0.061-0.01c0.012-0.004,0.018-0.005,0.032-0.002l0.167-0.046c1.032-0.285,1.79-1.228,1.816-2.344
			c-1.43-0.165-3.429-0.349-4.888-0.48c-0.017,0.011-0.029,0.014-0.039,0.023c-0.019,0.121-0.033,0.233-0.032,0.355
			c-0.004,0.033-0.004,0.059-0.002,0.09c0,0.02-0.002,0.039,0.003,0.057C385.648,476.703,386.763,477.767,388.113,477.754"/>
		<path clip-path="url(#SVGID_4_)" d="M381.563,489.704c1.766,1.385,3.924,2.008,5.894,1.695c-0.975-0.129-1.921-0.462-2.774-0.965
			c-0.853-0.5-1.61-1.171-2.232-1.943c-0.285-0.355-0.752-0.406-1.042-0.114C381.063,488.715,381.143,489.4,381.563,489.704"/>
		<path clip-path="url(#SVGID_4_)" d="M378.969,487.84c-1.734,1.361-4.208,2.489-6.446,2.245c2.27,0.852,5.072,0.259,7.337-0.741
			C381.039,488.772,380.04,487.082,378.969,487.84"/>
		<path clip-path="url(#SVGID_4_)" fill="#111010" d="M392.5,467.706c0.006,0.472,0.004,0.98-0.006,1.514
			c-0.063-0.034-0.126-0.069-0.189-0.095c-1.935-0.874-4.184,0.172-5.016,0.566c-0.673,0.311-1.645,0.877-2.62,1.869
			c-0.603-1.123-1.215-2.255-1.818-3.378c0.572-0.506,1.63-1.304,3.157-1.734c0.834-0.234,3.177-0.898,5.394,0.418
			C391.815,467.11,392.185,467.399,392.5,467.706"/>
		<path clip-path="url(#SVGID_4_)" fill="#111010" d="M379.28,468.898c-0.583,1.298-1.167,2.596-1.75,3.894
			c-0.782-0.688-1.989-1.604-3.635-2.346c-1.137-0.512-2.433-1.097-4.015-1.101c-2.896-0.009-5.001,1.932-5.711,2.654
			c0.169-0.674,0.696-2.395,2.307-3.824c0.354-0.314,1.562-1.325,3.432-1.723c1.749-0.372,3.117-0.004,4.742,0.432
			C375.775,467.187,377.436,467.758,379.28,468.898"/>
		<path clip-path="url(#SVGID_4_)" fill="#987957" d="M380.35,473.771c0.582,2.149,1.374,4.245,2.322,6.261
			c0.586,1.274,1.501,2.573,1.147,4.007c-0.319,1.361-1.579,2.455-2.999,2.513c-0.715,0.049-1.449-0.137-2.106-0.474
			c0.6,0.438,1.343,0.691,2.11,0.726c2.513,0.086,4.332-2.699,3.269-4.971C382.798,479.143,381.471,476.542,380.35,473.771"/>
		<path clip-path="url(#SVGID_4_)" fill="#652B28" d="M385.219,494.206c-0.873-1.379-1.9-2.027-2.459-2.316
			c-3.131-1.625-6.59,0.164-6.753,0.251c-0.878,0.471-2.503,1.6-2.503,1.6c1.047-0.501,3.365-1.435,6.387-1.2
			C382.389,492.734,384.242,493.638,385.219,494.206"/>
		<path clip-path="url(#SVGID_4_)" fill="#987957" d="M381.03,494.788c0.035-0.007,0.067-0.029,0.09-0.067
			c0.057-0.09,0.043-0.235-0.031-0.324c-0.033-0.039-0.811-0.948-2.175-0.207c-0.082,0.045-0.113,0.177-0.07,0.296
			c0.042,0.118,0.143,0.18,0.226,0.134c1.18-0.641,1.809,0.096,1.815,0.104C380.928,494.776,380.982,494.797,381.03,494.788"/>
		<path clip-path="url(#SVGID_4_)" fill="#CCA279" d="M446.84,508.55v0.021c-0.02,0.46-0.16,0.93-0.42,1.319
			c-0.87,1.28-3.56,3.801-5.09,5.221c-1.54,1.42-4.41,2.77-5.29,3.569c-0.13,0.12-0.68,0.49-1.3,0.92c-0.7,0.5-1.51,1.08-1.97,1.53
			c0,0-6.67-7.28-6.49-7.47c0.73-0.76,1.62-2.15,2.27-3.41c0.45-0.88,0.79-1.71,0.86-2.22c0.16-1.061-0.11-3.19,0.42-4.771
			c0.69-2.06,1.98-3.35,3.65-4l4.99-1.91c1.15-0.45,2.11-1,3.25,0.09c0.21,0.2,0.41,0.41,0.51,0.72c0.11,0.33,0.15,0.61,0.11,0.84
			c0,0.14-0.04,0.26-0.08,0.37c0.13-0.03,0.26-0.05,0.38-0.06c0.67-0.07,1.39,0.11,1.94,0.91c0.54,0.81,0.36,1.56,0.03,2.129
			c-0.041,0.068-0.058,0.141-0.066,0.213c-0.009,0.085-0.008,0.171,0.026,0.247c0.02,0.061,0.05,0.11,0.09,0.16
			c0.08,0.101,0.19,0.17,0.33,0.19c0.38,0.05,0.71,0.17,1.05,0.6c0.89,1.11,0.26,2.03-0.18,2.521c-0.05,0.06-0.11,0.12-0.15,0.17
			c-0.06,0.05-0.03,0.14,0.05,0.149c0.03,0.011,0.07,0.011,0.1,0.03c0.02,0,0.03,0,0.05,0.01c0.02,0,0.03,0.011,0.05,0.021
			s0.05,0.02,0.07,0.03c0.01,0,0.01,0.01,0.02,0.01c0.04,0.02,0.08,0.04,0.11,0.069c0.05,0.03,0.11,0.07,0.15,0.12
			c0.05,0.04,0.09,0.101,0.13,0.15c0.05,0.07,0.1,0.14,0.14,0.22c0.05,0.08,0.08,0.17,0.11,0.26c0.04,0.091,0.07,0.181,0.08,0.28
			C446.83,508.04,446.86,508.29,446.84,508.55"/>
		<path clip-path="url(#SVGID_4_)" fill="#987957" d="M435.133,519.329c-0.47,0.308-0.963,0.657-1.468,1.055
			c-0.318,0.251-0.616,0.5-0.895,0.746c0,0-6.67-7.28-6.49-7.47c0.73-0.761,1.62-2.15,2.27-3.41
			c0.784,1.607,1.569,2.915,2.216,3.902c0.62,0.949,1.343,2.043,2.502,3.329C433.983,518.275,434.639,518.893,435.133,519.329"/>
		<g opacity="0.41" clip-path="url(#SVGID_4_)">
			<g>
				<defs>
					<rect id="SVGID_7_" x="444.164" y="506.623" width="2.684" height="1.951"/>
				</defs>
				<clipPath id="SVGID_8_">
					<use xlink:href="#SVGID_7_"  overflow="visible"/>
				</clipPath>
				<path clip-path="url(#SVGID_8_)" fill="#DC9964" d="M445.867,506.623c-0.181,0.095-0.348,0.22-0.506,0.35
					c-0.455,0.375-0.859,0.813-1.197,1.296c0.161,0.138,0.412,0.155,0.592,0.044c0.125-0.078,0.429-0.399,0.87-0.379
					c0.399,0.017,0.751,0.589,1.218,0.641C446.891,507.668,446.508,506.799,445.867,506.623"/>
			</g>
		</g>
		<path clip-path="url(#SVGID_4_)" fill="#987957" d="M445.861,506.283l-1.753,1.679c-0.085,0.082-0.088,0.218-0.006,0.304
			c0.082,0.085,0.218,0.088,0.303,0.006l1.645-1.576c-0.091-0.048-0.188-0.08-0.291-0.095c-0.074-0.012-0.106-0.101-0.054-0.153
			C445.752,506.398,445.805,506.343,445.861,506.283"/>
		<path clip-path="url(#SVGID_4_)" fill="#987957" d="M442.36,498.985l-2.258,2.163c-0.085,0.082-0.088,0.217-0.006,0.302
			c0.082,0.087,0.217,0.09,0.303,0.008l2.244-2.15c-0.128,0.013-0.255,0.036-0.378,0.066
			C442.315,499.261,442.348,499.133,442.36,498.985"/>
		<path clip-path="url(#SVGID_4_)" fill="#987957" d="M444.544,502.521l-1.839,1.73c-0.087,0.08-0.093,0.216-0.012,0.303
			c0.08,0.087,0.215,0.092,0.302,0.012l1.679-1.58C444.563,502.862,444.511,502.69,444.544,502.521"/>
		<path clip-path="url(#SVGID_4_)" fill="#BB6C31" d="M436.802,496.606l0.926,1.22c-0.562,0.371-1.057,0.72-1.512,1.067
			c-1.101,0.837-1.98,1.655-3.072,2.7l-0.638-0.958l-13.891-20.861l-4.831-1.069l-0.551-2.627l3.095,0.261l-13.441-20.187
			c-0.117-0.175-0.186-0.368-0.208-0.564c-0.055-0.46,0.139-0.934,0.545-1.216c0.249-0.172,0.537-0.248,0.818-0.23
			c0.046,0.003,0.091,0.008,0.136,0.016c0.015,0.002,0.029,0.005,0.044,0.008c0.164,0.032,0.321,0.097,0.461,0.19
			c0.024,0.016,0.047,0.033,0.069,0.05c0.092,0.07,0.174,0.15,0.245,0.245l20.623,27.204l0.002,0.001l2.195,2.897v0.001l2.494,3.289
			l0.115-0.404l0.061-0.212l0.976-3.427l2.738,2.436l0.227,5.504l0.006,0.126l0.061,1.496L436.802,496.606z"/>
		<path clip-path="url(#SVGID_4_)" fill="#BB6C31" d="M457.267,524.786c0.002,0.046,0.003,0.092,0.002,0.137
			c0,0.063-0.002,0.127-0.005,0.191c-0.004,0.055-0.008,0.11-0.014,0.165c-0.004,0.049-0.009,0.097-0.017,0.146
			c0,0.016-0.002,0.031-0.005,0.047c-0.006,0.043-0.013,0.086-0.022,0.13c0,0.007-0.002,0.014-0.003,0.02
			c-0.018,0.1-0.04,0.198-0.066,0.296c-0.004,0.013-0.007,0.025-0.011,0.037c-0.014,0.051-0.029,0.104-0.045,0.154
			c-0.018,0.053-0.036,0.106-0.056,0.159c-0.038,0.105-0.082,0.211-0.132,0.313c-0.023,0.051-0.049,0.104-0.075,0.152
			c-0.049,0.094-0.104,0.184-0.16,0.273c-0.005,0.008-0.009,0.016-0.013,0.022l-0.001-0.001c-0.298,0.465-0.701,0.876-1.203,1.19
			c-1.793,1.125-4.155,0.618-5.327-1.143l-8.281-12.436l-1.153-1.73l3.026-3.759l1.342-1.669l1.564,2.062l9.863,13.009
			c0.081,0.107,0.156,0.218,0.224,0.33c0.023,0.037,0.045,0.074,0.066,0.112c0.022,0.039,0.043,0.076,0.063,0.114
			c0.019,0.039,0.039,0.078,0.058,0.117c0.019,0.038,0.036,0.076,0.054,0.115c0.017,0.039,0.034,0.078,0.049,0.118
			c0.016,0.04,0.032,0.079,0.045,0.118c0.002,0,0.002,0.001,0.001,0.002c0.014,0.037,0.027,0.074,0.039,0.111
			c0.002,0.006,0.004,0.011,0.005,0.017c0.013,0.037,0.024,0.074,0.035,0.112c0.008,0.03,0.017,0.058,0.024,0.089
			c0.011,0.036,0.019,0.073,0.028,0.111C457.226,524.272,457.258,524.529,457.267,524.786"/>
		<g opacity="0.19" clip-path="url(#SVGID_4_)">
			<g>
				<defs>
					<rect id="SVGID_9_" x="403.591" y="454.14" width="34.137" height="44.753"/>
				</defs>
				<clipPath id="SVGID_10_">
					<use xlink:href="#SVGID_9_"  overflow="visible"/>
				</clipPath>
				<path clip-path="url(#SVGID_10_)" d="M436.802,496.606l0.926,1.22c-0.562,0.371-1.057,0.72-1.512,1.067l-0.556-0.761
					l-18.171-24.894l-3.074-4.212l-10.825-14.83c0.148-0.045,0.301-0.063,0.452-0.054c0.046,0.003,0.091,0.008,0.136,0.016
					c0.015,0.002,0.029,0.005,0.044,0.008c0.164,0.032,0.321,0.097,0.461,0.19c0.024,0.016,0.048,0.033,0.069,0.05
					c0.092,0.07,0.174,0.15,0.245,0.245l20.623,27.204l0.002,0.001l2.195,2.897v0.001l2.494,3.289l0.115-0.404l0.061-0.212
					l0.976-3.427l2.738,2.436l0.227,5.504l0.006,0.126l0.061,1.496L436.802,496.606z"/>
			</g>
		</g>
		<g opacity="0.19" clip-path="url(#SVGID_4_)">
			<g>
				<defs>
					<rect id="SVGID_11_" x="443.705" y="507.482" width="13.563" height="19.547"/>
				</defs>
				<clipPath id="SVGID_12_">
					<use xlink:href="#SVGID_11_"  overflow="visible"/>
				</clipPath>
				<path clip-path="url(#SVGID_12_)" d="M457.267,524.786c0.002,0.046,0.003,0.092,0.002,0.137c0,0.063-0.002,0.127-0.005,0.191
					c-0.004,0.055-0.008,0.11-0.014,0.165c-0.004,0.049-0.009,0.097-0.017,0.146c0,0.016-0.002,0.031-0.005,0.047
					c-0.006,0.043-0.013,0.086-0.022,0.13c0,0.007-0.002,0.014-0.003,0.02c-0.018,0.1-0.041,0.198-0.066,0.296
					c-0.004,0.013-0.007,0.025-0.011,0.037c-0.014,0.051-0.029,0.104-0.045,0.154c-0.018,0.053-0.036,0.106-0.056,0.159
					c-0.039,0.106-0.083,0.211-0.132,0.313c-0.023,0.051-0.049,0.104-0.075,0.152c-0.054,0.101-0.112,0.2-0.173,0.296
					c-0.114-0.26-0.259-0.512-0.436-0.749l-10.951-15.002l-1.552-2.127l1.342-1.669l1.564,2.062l9.863,13.009
					c0.081,0.107,0.156,0.218,0.224,0.33c0.023,0.037,0.045,0.074,0.066,0.112c0.022,0.039,0.043,0.076,0.063,0.114
					c0.019,0.039,0.039,0.078,0.058,0.117c0.019,0.038,0.036,0.076,0.054,0.115c0.008,0.019,0.017,0.037,0.024,0.055
					c0.009,0.021,0.017,0.043,0.025,0.063c0.016,0.04,0.032,0.079,0.045,0.118c0.002,0,0.002,0.001,0.001,0.002
					c0.014,0.037,0.027,0.074,0.039,0.111c0.002,0.006,0.004,0.011,0.005,0.017c0.013,0.037,0.024,0.074,0.035,0.112
					c0.008,0.03,0.017,0.058,0.024,0.089c0.011,0.036,0.019,0.073,0.028,0.111C457.226,524.272,457.258,524.529,457.267,524.786"/>
			</g>
		</g>
		<path clip-path="url(#SVGID_4_)" fill="#CCA279" d="M446.611,509.544c-0.054,0.12-0.117,0.234-0.192,0.345
			c-0.256,0.378-0.668,0.86-1.162,1.39c-1.015,1.091-2.375,2.382-3.426,3.362c-0.178,0.166-0.348,0.323-0.506,0.47
			c-1.537,1.423-4.405,2.771-5.286,3.567l4.129-6.1l3.314-3.794l1.565-1.303l0.711-0.881
			C446.708,506.738,447.158,508.346,446.611,509.544"/>
		<path clip-path="url(#SVGID_4_)" fill="#4080A0" d="M436.462,521.516c0,0-19.464,36.16-42.943,45.468
			c-20.153,7.988-41.765-13.157-47.229-29.195c-0.988-2.901-4.187-12.291,0.588-20.209c2.316-3.84,7.275-8.607,12.23-7.917
			c4.563,0.636,8.957,5.18,12.086,11.911c0.534,1.149,1.197,2.237,1.997,3.22c23.371,28.742,40.975-3.482,53.617-15.871
			c2.106,5.519,5.777,9.331,7.934,11.22C435.776,521.048,436.462,521.516,436.462,521.516"/>
		<path clip-path="url(#SVGID_4_)" fill="#4C6580" d="M388.852,528.156c0.064,0.485-0.175,0.919-0.536,0.967
			c-0.36,0.047-0.704-0.309-0.769-0.794c-0.064-0.486,0.176-0.919,0.536-0.967C388.442,527.314,388.788,527.67,388.852,528.156"/>
		<path clip-path="url(#SVGID_4_)" fill="#4C6580" d="M387.933,523.748c0.064,0.485-0.175,0.919-0.536,0.967
			c-0.36,0.047-0.704-0.309-0.769-0.794c-0.064-0.486,0.176-0.919,0.536-0.967S387.869,523.262,387.933,523.748"/>
		<path clip-path="url(#SVGID_4_)" fill="#4C6580" d="M386.877,519.26c0.064,0.485-0.175,0.919-0.536,0.967
			c-0.36,0.047-0.704-0.308-0.769-0.794c-0.064-0.486,0.176-0.919,0.536-0.967C386.468,518.419,386.813,518.773,386.877,519.26"/>
		<path clip-path="url(#SVGID_4_)" fill="#4C6580" d="M385.622,514.82c0.064,0.486-0.175,0.919-0.536,0.968
			c-0.36,0.047-0.704-0.309-0.769-0.794c-0.064-0.486,0.176-0.919,0.536-0.968C385.213,513.979,385.558,514.335,385.622,514.82"/>
		<path clip-path="url(#SVGID_4_)" fill="#5190B7" d="M362.495,496.95c-0.878,2.441-1.323,3.479-1.323,4.438
			c13.297,7.576,20.016,9.929,21.241,11.066c-0.192-1.505-1.499-6.313-2.25-7.943c-2.84-0.392-6.762-1.269-11.02-3.353
			C366.405,499.818,364.196,498.306,362.495,496.95"/>
		<path clip-path="url(#SVGID_4_)" fill="#4C6580" d="M361.172,501.387c3.121,1.48,7.607,3.731,10.761,5.264l5.377,2.615
			c1.657,0.874,3.865,1.707,5.37,2.901l-0.655,0.336c-0.261-1.984-0.8-4.039-1.278-6.012c-0.18-0.663-0.356-1.328-0.583-1.981
			c1.356,2.786,2.24,5.759,2.816,8.821c-1.585-1.268-4.215-2.269-6.091-3.182C371.453,507.605,366.17,504.715,361.172,501.387"/>
	</g>
</g>
</svg>
