<?xml version="1.0" encoding="utf-8"?>
<!-- Generator: Adobe Illustrator 16.0.0, SVG Export Plug-In . SVG Version: 6.00 Build 0)  -->
<!DOCTYPE svg PUBLIC "-//W3C//DTD SVG 1.1//EN" "http://www.w3.org/Graphics/SVG/1.1/DTD/svg11.dtd">
<svg version="1.1" id="Layer_1" xmlns="http://www.w3.org/2000/svg" xmlns:xlink="http://www.w3.org/1999/xlink" x="0px" y="0px"
	 width="874px" height="824px" viewBox="0 0 874 824" enable-background="new 0 0 874 824" xml:space="preserve">
<g>
	<defs>
		<rect id="SVGID_1_" x="-56" y="-131" width="1000" height="1000"/>
	</defs>
	<clipPath id="SVGID_2_">
		<use xlink:href="#SVGID_1_"  overflow="visible"/>
	</clipPath>
	<path clip-path="url(#SVGID_2_)" fill="#E3F4FF" d="M734.26,409.71c0,139.32-96.979,256-227.13,286.2
		c-21.42,4.97-43.74,7.6-66.68,7.6c-21.24,0-41.96-2.25-61.92-6.54C246,668.54,146.65,550.73,146.65,409.71
		c0-162.27,131.54-293.81,293.8-293.81C602.72,115.9,734.26,247.44,734.26,409.71"/>
	<path clip-path="url(#SVGID_2_)" fill="#BC956B" d="M507.13,695.91c-21.42,4.97-43.74,7.6-66.68,7.6
		c-21.24,0-41.96-2.25-61.92-6.54l8.59-28.97l8.95-30.2l87.736,0.001l11.11,25.485L507.13,695.91z"/>
	<path clip-path="url(#SVGID_2_)" fill="#987957" d="M494.918,663.286c-15.149,5.489-34.792,12.624-54.997,12.894
		c-20.038,0.27-37.829-3.26-52.803-8.18l8.954-30.2h87.736L494.918,663.286z"/>
	<path clip-path="url(#SVGID_2_)" fill="#BC956B" d="M302.533,445.889c-5.374-13.573-12.498-22.681-17.433-28.043
		c-5.522-6.001-10.989-11.785-19.984-13.885c-2.754-0.643-11.209-2.617-17.308,1.997c-4.968,3.756-6.201,10.236-6.656,17.307
		c-0.989,15.345,1.849,30.945,10.982,55.582c9.241,24.927,15.089,32.563,20.84,37.908c9.169,8.523,16.437,9.687,20.085,9.854
		c2.351,0.107,7.171,0.265,11.747-2.652c9.094-5.798,8.759-18.336,8.717-19.328C309.86,485.049,306.196,465.469,302.533,445.889"/>
	<path clip-path="url(#SVGID_2_)" fill="#BC956B" d="M588.272,524.335c2.145,2.011,5.95,4.923,11.116,5.558
		c1.789,0.22,9.115,0.827,19.705-8.59c23.438-20.839,24.924-57.032,25.518-71.498c0.275-6.704,0.256-17.872-6.568-27.032
		c-1.824-2.448-5.397-7.103-11.117-7.832c-4.619-0.589-8.323,1.68-10.862,3.284c-9.793,6.188-13.252,17-14.401,21.475
		C601.662,439.699,581.703,509.176,588.272,524.335"/>
	<path clip-path="url(#SVGID_2_)" fill="#BC956B" d="M600.026,333.817c-4.857-19.021-9.744-38.152-24.253-56.845
		c-40.142-51.712-118.789-54.787-167.502-44.717c-21.195,4.381-58.01,11.99-85.647,43.202
		c-29.811,33.665-31.089,74.627-32.591,122.784c-1.458,46.747,7.187,79.421,20.464,129.605
		c5.231,19.771,14.909,52.552,37.897,84.888c10.064,14.157,19.27,23.433,31.454,30.317c14.657,8.282,27.6,9.702,46.234,11.748
		c19.674,2.159,38.753,4.253,60.634-4.169c2.646-1.02,13.383-5.271,26.4-15.411c38.952-30.343,65.666-87.919,73.267-105.1
		C586.384,530.12,620.238,392.177,600.026,333.817"/>
	<path clip-path="url(#SVGID_2_)" fill="#111010" d="M598.5,453.35c10.946-18.426,22.412-42.106,30.631-70.835
		c6.502-22.721,15.185-54.273,9.573-93.808c-3.512-24.745-7.373-51.936-29.993-68.921c-17.782-13.351-38.48-13.881-48.5-13.401
		c0.367-9.743-1.664-16.909-3.19-21.059c-10.941-29.731-45.253-38.344-49.776-39.406c-6.938-1.63-12.646-1.914-16.763-1.969
		c-32.396-0.43-64.788,12.017-87.896,23.507c0,0-40.304,16.834-79.768,45.308c-7.819,5.643-20.548,15.431-23.612,31.27
		c-0.982,5.078-0.718,9.468-0.319,12.443c-5.025,1.742-25.112,9.35-36.055,30.632c-4.059,7.89-5.954,15.934-6.702,29.675
		c-2.39,43.883,10.094,79.168,12.764,86.469c5.688,15.559,15.671,37.686,33.503,61.263c-3.187-11.973-5.943-29.247-1.915-48.818
		c1.821-8.851,3.659-11.519,12.126-34.46c9.175-24.864,13.763-37.296,16.272-48.5c2.819-12.585,5.221-31.675,1.276-56.796
		c16.833,2.722,35.301,4.632,55.202,5.106c67.502,1.608,123.657-13.965,163.047-29.356c-1.04,20.726,0.042,56.733,17.23,96.362
		c9.783,22.557,21.975,39.807,32.227,52.009C598.074,417.826,598.288,435.588,598.5,453.35"/>
	<path clip-path="url(#SVGID_2_)" fill="#484443" d="M345.313,235.261c12.3-0.201,26.511-1.23,42.119-3.828
		c17.506-2.915,32.771-7.14,45.468-11.487c-11.646,10.369-23.293,20.74-34.939,31.109c13.04-0.641,27.508-2.078,43.075-4.786
		c23.453-4.079,43.85-10.077,60.785-16.272c-14.875,9.121-35.773,19.702-62.221,26.802c-41.006,11.009-76.261,8.528-97.637,5.265
		c16.113-7.339,32.227-14.677,48.341-22.016C375.305,238.452,360.31,236.856,345.313,235.261"/>
	<path clip-path="url(#SVGID_2_)" fill="#484443" d="M316.436,285.516c2.225,10.525,4.143,25.567,2.233,43.395
		c-2.711,25.316-11.865,44.341-18.187,55.2c3.326-16.093,6.442-32.908,9.254-50.415C312.4,317.113,314.61,301.036,316.436,285.516"
		/>
	<path clip-path="url(#SVGID_2_)" fill="#484443" d="M297.292,322.529c1.472,7.659,2.853,20.039,0,34.779
		c-2.28,11.782-6.471,20.972-9.893,27.121c0.579-9.08,1.582-18.908,3.191-29.354C292.418,343.22,294.754,332.339,297.292,322.529"/>
	<path clip-path="url(#SVGID_2_)" fill="#484443" d="M576.005,279.772c-6.346,15.689-1.477,30.731,1.436,39.725
		c6.812,21.04,20.392,34.536,28.239,41.161c-5.857-9.205-12.772-22.212-17.709-38.768c-6.326-21.215-6.86-39.736-6.223-52.169
		C580.051,271.949,577.806,275.321,576.005,279.772"/>
	<path clip-path="url(#SVGID_2_)" d="M432.802,557.624c-21.944,9.46-47.271,10.117-69.211,1.786
		c21.833,3.266,44.584-1.943,62.199-14.576C434.856,538.949,442.65,553.132,432.802,557.624"/>
	<path clip-path="url(#SVGID_2_)" d="M455.939,544.835c17.618,12.633,40.363,17.841,62.199,14.575
		c-21.944,8.33-47.265,7.674-69.211-1.785C439.092,553.14,446.855,538.948,455.939,544.835"/>
	<path clip-path="url(#SVGID_2_)" fill="#987957" d="M452.341,605.82c-0.513,0-1.037-0.094-1.546-0.292
		c-3.439-1.337-7.074-1.815-10.717-2.01c-3.435,0.004-6.816,0.606-10.049,1.787c-2.218,0.807-4.662-0.333-5.472-2.543
		c-0.808-2.214,0.331-4.664,2.544-5.472c4.172-1.523,8.534-2.299,12.965-2.305h0.06c4.716,0,9.347,0.871,13.765,2.589
		c2.195,0.854,3.283,3.327,2.429,5.525C455.66,604.787,454.049,605.82,452.341,605.82"/>
	<path clip-path="url(#SVGID_2_)" fill="#542525" d="M468.614,364.249l1.855,23.696c0,0,59.64-13.973,107.47,8.873
		C577.939,396.818,543.483,354.062,468.614,364.249"/>
	<path clip-path="url(#SVGID_2_)" fill="#542525" d="M424.875,365.094l-2.157,23.67c0,0-59.457-14.728-107.573,7.508
		C315.145,396.271,350.141,353.957,424.875,365.094"/>
	<path clip-path="url(#SVGID_2_)" fill="#987957" d="M446.708,415.63c5.393,9.125,9.479,23.776,13.354,33.696
		c7.573,21.855,21.885,50.341,1.862,69.867c-9.738,8.026-25.78,8.234-34.898-0.523c16.76,7.836,37.28,3.615,40.58-16.76
		c4.12-17.948-5.887-34.434-10.773-51.444C453.779,440.266,448.082,426.155,446.708,415.63"/>
	<path clip-path="url(#SVGID_2_)" fill="#FFFFFF" d="M411.714,425.118c0,0,3.682,35.972-34.532,38.12
		c-38.175,2.145-45.236-35.164-45.236-35.164c7.691-4.854,15.876-7.704,23.98-9.179c14.483-2.696,28.667-1.003,39.105,1.269
		C405.117,422.343,411.714,425.118,411.714,425.118"/>
	<path clip-path="url(#SVGID_2_)" fill="#3F2E20" d="M379.705,451.879c-1.164,0.327-2.342,0.528-3.486,0.639l-0.845,0.083
		c-0.3-0.014-0.639,0.021-0.941,0.007c-0.254,0.024-0.465,0.046-0.723,0.027c-10.223-0.069-19.484-6.945-22.207-17.322
		c-0.76-2.961-0.921-5.937-0.559-8.794c0.099-0.735,0.239-1.476,0.428-2.179c0.359-1.574,0.854-3.075,1.565-4.555
		c0.994-0.312,1.991-0.622,2.989-0.891c14.484-2.695,28.668-1.003,39.106,1.27c0.386,0.903,0.731,1.809,0.996,2.767
		c0.068,0.25,0.134,0.5,0.207,0.792c0.057,0.165,0.117,0.33,0.134,0.5C399.269,436.42,391.878,448.725,379.705,451.879"/>
	<path clip-path="url(#SVGID_2_)" fill="#987957" d="M339.921,465.903c10.537-3.855,21.929-4.393,33.027-4.511
		c10.996,0.378,22.868,0.44,32.749,5.954c-10.736-2.286-21.842-1.406-32.766-1.702C363.186,465.665,349.561,465.345,339.921,465.903
		"/>
	<path clip-path="url(#SVGID_2_)" fill="#FFFFFF" d="M556.763,427.297c0,0-6.353,37.436-44.562,36.014
		c-38.248-1.425-35.247-37.46-35.247-37.46s6.285-2.877,16.236-5.168c10.995-2.55,26.503-4.404,42.79-0.948
		C542.863,421.17,549.884,423.599,556.763,427.297"/>
	<path clip-path="url(#SVGID_2_)" fill="#3F2E20" d="M537.582,435.179c-2.497,10.6-11.804,17.72-22.149,17.975
		c-0.258,0.022-0.513,0.002-0.727,0.028c-0.34-0.027-0.643-0.008-0.979-0.034l-0.255-0.021c-0.211-0.017-0.381-0.029-0.597-0.005
		c-1.143-0.132-2.322-0.31-3.536-0.619c-12.399-2.936-20.135-15.277-17.412-27.694c0.013-0.17,0.07-0.336,0.087-0.548
		c0.063-0.251,0.128-0.546,0.233-0.793c0.246-0.962,0.577-1.917,0.943-2.784c10.995-2.55,26.502-4.405,42.789-0.95
		c0.702,1.378,1.186,2.824,1.539,4.303c0.202,0.698,0.354,1.479,0.466,2.213C538.44,429.144,538.331,432.164,537.582,435.179"/>
	<path clip-path="url(#SVGID_2_)" fill="#987957" d="M549.005,465.903c-9.586-0.558-23.301-0.237-33.01-0.259
		c-10.924,0.296-22.03-0.584-32.767,1.702c9.882-5.514,21.754-5.576,32.748-5.954C527.076,461.511,538.465,462.048,549.005,465.903"
		/>
	<path clip-path="url(#SVGID_2_)" fill="#652B28" d="M391.105,572.74c0,0,41.509,24.889,98.697,0
		C489.803,572.74,447.434,584.53,391.105,572.74"/>
</g>
</svg>
