<?xml version="1.0" encoding="utf-8"?>
<!-- Generator: Adobe Illustrator 16.0.0, SVG Export Plug-In . SVG Version: 6.00 Build 0)  -->
<!DOCTYPE svg PUBLIC "-//W3C//DTD SVG 1.1//EN" "http://www.w3.org/Graphics/SVG/1.1/DTD/svg11.dtd">
<svg version="1.1" id="Layer_1" xmlns="http://www.w3.org/2000/svg" xmlns:xlink="http://www.w3.org/1999/xlink" x="0px" y="0px"
	 width="1000px" height="768px" viewBox="0 0 1000 768" enable-background="new 0 0 1000 768" xml:space="preserve">
<g>
	<defs>
		<rect id="SVGID_1_" y="-115" width="1000" height="1000"/>
	</defs>
	<clipPath id="SVGID_2_">
		<use xlink:href="#SVGID_1_"  overflow="visible"/>
	</clipPath>
	<path clip-path="url(#SVGID_2_)" fill="#E3F4FF" d="M291.031,178.654c0,57.773-40.216,106.159-94.187,118.682
		c-8.882,2.061-18.138,3.152-27.651,3.152c-8.808,0-17.4-0.933-25.677-2.712c-54.958-11.79-96.156-60.644-96.156-119.122
		c0-67.29,54.547-121.838,121.833-121.838C236.484,56.816,291.031,111.364,291.031,178.654"/>
	<path clip-path="url(#SVGID_2_)" fill="#BC956B" d="M196.844,297.336c-8.882,2.061-18.138,3.152-27.651,3.152
		c-8.808,0-17.4-0.933-25.677-2.712l3.562-12.014l3.711-12.523h36.383l4.607,10.569L196.844,297.336z"/>
	<path clip-path="url(#SVGID_2_)" fill="#987957" d="M191.78,283.807c-6.282,2.277-14.427,5.235-22.806,5.347
		c-8.31,0.112-15.687-1.352-21.897-3.392l3.713-12.524l36.383,0.001L191.78,283.807z"/>
	<path clip-path="url(#SVGID_2_)" fill="#E3F4FF" d="M604.017,178.654c0,57.773-40.216,106.159-94.187,118.682
		c-8.882,2.061-18.138,3.152-27.651,3.152c-8.808,0-17.4-0.933-25.677-2.712c-54.958-11.79-96.156-60.644-96.156-119.122
		c0-67.29,54.547-121.838,121.833-121.838C549.47,56.816,604.017,111.364,604.017,178.654"/>
	<path clip-path="url(#SVGID_2_)" fill="#BC956B" d="M509.83,297.336c-8.882,2.061-18.138,3.152-27.651,3.152
		c-8.808,0-17.4-0.933-25.677-2.712l3.562-12.014l3.711-12.523h36.383l4.606,10.569L509.83,297.336z"/>
	<path clip-path="url(#SVGID_2_)" fill="#987957" d="M504.766,283.807c-6.282,2.277-14.427,5.235-22.806,5.347
		c-8.31,0.112-15.687-1.352-21.897-3.392l3.713-12.524l36.383,0.001L504.766,283.807z"/>
	<path clip-path="url(#SVGID_2_)" fill="#E3F4FF" d="M913.131,178.654c0,57.773-40.216,106.159-94.188,118.682
		c-8.882,2.061-18.138,3.152-27.65,3.152c-8.808,0-17.4-0.933-25.678-2.712c-54.958-11.79-96.155-60.644-96.155-119.122
		c0-67.29,54.547-121.838,121.833-121.838C858.584,56.816,913.131,111.364,913.131,178.654"/>
	<path clip-path="url(#SVGID_2_)" fill="#BC956B" d="M818.944,297.336c-8.884,2.061-18.139,3.152-27.651,3.152
		c-8.808,0-17.4-0.933-25.677-2.712l3.562-12.014l3.711-12.523h36.383l4.607,10.569L818.944,297.336z"/>
	<path clip-path="url(#SVGID_2_)" fill="#987957" d="M813.88,283.807c-6.282,2.277-14.427,5.235-22.806,5.347
		c-8.311,0.112-15.688-1.352-21.897-3.392l3.713-12.524l36.384,0.001L813.88,283.807z"/>
	<path clip-path="url(#SVGID_2_)" fill="#E3F4FF" d="M291.031,564.514c0,57.772-40.216,106.159-94.187,118.682
		c-8.882,2.062-18.138,3.152-27.651,3.152c-8.808,0-17.4-0.935-25.677-2.713C88.558,671.846,47.36,622.991,47.36,564.514
		c0-67.29,54.547-121.838,121.833-121.838C236.484,442.676,291.031,497.224,291.031,564.514"/>
	<path clip-path="url(#SVGID_2_)" fill="#BC956B" d="M196.844,683.195c-8.882,2.062-18.138,3.152-27.651,3.152
		c-8.808,0-17.4-0.934-25.677-2.712l3.562-12.015l3.711-12.522h36.383l4.607,10.568L196.844,683.195z"/>
	<path clip-path="url(#SVGID_2_)" fill="#987957" d="M191.78,669.667c-6.282,2.276-14.427,5.234-22.806,5.347
		c-8.31,0.112-15.687-1.352-21.897-3.392l3.713-12.524l36.383,0.001L191.78,669.667z"/>
	<path clip-path="url(#SVGID_2_)" fill="#E3F4FF" d="M604.017,564.514c0,57.772-40.216,106.159-94.187,118.682
		c-8.882,2.062-18.138,3.152-27.651,3.152c-8.808,0-17.4-0.935-25.677-2.713c-54.958-11.789-96.156-60.644-96.156-119.121
		c0-67.29,54.547-121.838,121.833-121.838C549.47,442.676,604.017,497.224,604.017,564.514"/>
	<path clip-path="url(#SVGID_2_)" fill="#BC956B" d="M509.83,683.195c-8.882,2.062-18.138,3.152-27.651,3.152
		c-8.808,0-17.4-0.934-25.677-2.712l3.562-12.015l3.711-12.522h36.383l4.606,10.568L509.83,683.195z"/>
	<path clip-path="url(#SVGID_2_)" fill="#987957" d="M504.766,669.667c-6.282,2.276-14.427,5.234-22.806,5.347
		c-8.31,0.112-15.687-1.352-21.897-3.392l3.713-12.524l36.383,0.001L504.766,669.667z"/>
	<path clip-path="url(#SVGID_2_)" fill="#E3F4FF" d="M913.131,564.514c0,57.772-40.216,106.159-94.188,118.682
		c-8.882,2.062-18.138,3.152-27.65,3.152c-8.808,0-17.4-0.935-25.678-2.713c-54.958-11.789-96.155-60.644-96.155-119.121
		c0-67.29,54.547-121.838,121.833-121.838C858.584,442.676,913.131,497.224,913.131,564.514"/>
	<path clip-path="url(#SVGID_2_)" fill="#BC956B" d="M818.944,683.195c-8.884,2.062-18.139,3.152-27.651,3.152
		c-8.808,0-17.4-0.934-25.677-2.712l3.562-12.015l3.711-12.522h36.383l4.607,10.568L818.944,683.195z"/>
	<path clip-path="url(#SVGID_2_)" fill="#987957" d="M813.88,669.667c-6.282,2.276-14.427,5.234-22.806,5.347
		c-8.311,0.112-15.688-1.352-21.897-3.392l3.713-12.524l36.384,0.001L813.88,669.667z"/>
	<path clip-path="url(#SVGID_2_)" fill="#BC956B" d="M114.271,196.921c-2.206-5.572-5.13-9.31-7.156-11.511
		c-2.266-2.463-4.51-4.837-8.203-5.699c-1.13-0.264-4.6-1.074-7.104,0.819c-2.039,1.542-2.545,4.202-2.732,7.104
		c-0.406,6.299,0.759,12.702,4.508,22.815c3.793,10.232,6.193,13.366,8.554,15.561c3.764,3.498,6.747,3.975,8.244,4.044
		c0.965,0.044,2.944,0.109,4.822-1.089c3.733-2.38,3.595-7.526,3.578-7.933C117.279,212.995,115.775,204.958,114.271,196.921"/>
	<path clip-path="url(#SVGID_2_)" fill="#BC956B" d="M231.559,229.121c0.881,0.825,2.442,2.021,4.563,2.281
		c0.735,0.091,3.742,0.34,8.089-3.525c9.62-8.554,10.23-23.411,10.474-29.348c0.113-2.752,0.105-7.336-2.697-11.096
		c-0.748-1.005-2.215-2.916-4.563-3.215c-1.896-0.242-3.416,0.689-4.459,1.348c-4.019,2.54-5.439,6.978-5.911,8.815
		C237.055,194.38,228.863,222.898,231.559,229.121"/>
	<path clip-path="url(#SVGID_2_)" fill="#BC956B" d="M236.384,150.918c-1.994-7.808-4-15.66-9.955-23.333
		c-16.477-21.226-48.759-22.489-68.755-18.355c-8.7,1.798-23.811,4.921-35.155,17.733c-12.237,13.819-12.762,30.632-13.378,50.399
		c-0.598,19.188,2.95,32.6,8.4,53.199c2.147,8.116,6.119,21.572,15.555,34.845c4.131,5.811,7.91,9.618,12.911,12.444
		c6.016,3.399,11.329,3.982,18.978,4.822c8.076,0.886,15.907,1.746,24.888-1.711c1.087-0.418,5.494-2.164,10.837-6.326
		c15.989-12.455,26.955-36.088,30.074-43.14C230.784,231.496,244.68,174.874,236.384,150.918"/>
	<path clip-path="url(#SVGID_2_)" fill="#111010" d="M235.757,199.983c4.493-7.563,9.2-17.284,12.573-29.076
		c2.669-9.326,6.233-22.277,3.929-38.505c-1.441-10.157-3.026-21.319-12.311-28.29c-7.299-5.48-15.795-5.698-19.908-5.501
		c0.151-3.999-0.683-6.94-1.309-8.644c-4.491-12.204-18.575-15.739-20.432-16.175c-2.847-0.669-5.191-0.786-6.881-0.808
		c-13.297-0.177-26.593,4.932-36.078,9.648c0,0-16.544,6.91-32.742,18.598c-3.21,2.316-8.435,6.334-9.693,12.836
		c-0.403,2.084-0.294,3.886-0.131,5.107c-2.062,0.715-10.307,3.838-14.799,12.574c-1.666,3.238-2.444,6.54-2.751,12.18
		c-0.981,18.013,4.143,32.497,5.239,35.494c2.335,6.386,6.433,15.468,13.752,25.146c-1.308-4.914-2.439-12.005-0.786-20.039
		c0.748-3.632,1.502-4.728,4.977-14.145c3.767-10.205,5.65-15.309,6.68-19.907c1.157-5.166,2.143-13.002,0.524-23.313
		c6.909,1.117,14.49,1.901,22.658,2.095c27.708,0.66,50.758-5.732,66.926-12.049c-0.426,8.507,0.018,23.287,7.073,39.553
		c4.016,9.26,9.02,16.34,13.228,21.349C235.582,185.402,235.67,192.692,235.757,199.983"/>
	<path clip-path="url(#SVGID_2_)" fill="#484443" d="M131.831,110.464c5.049-0.083,10.882-0.505,17.289-1.571
		c7.185-1.197,13.451-2.931,18.663-4.715c-4.78,4.256-9.561,8.513-14.342,12.769c5.353-0.263,11.292-0.854,17.682-1.964
		c9.626-1.675,17.998-4.137,24.95-6.68c-6.106,3.744-14.684,8.087-25.54,11.002c-16.832,4.519-31.303,3.5-40.077,2.161
		c6.614-3.013,13.228-6.025,19.842-9.037C144.142,111.774,137.987,111.119,131.831,110.464"/>
	<path clip-path="url(#SVGID_2_)" fill="#484443" d="M119.978,131.092c0.913,4.32,1.701,10.495,0.917,17.812
		c-1.113,10.392-4.871,18.201-7.466,22.658c1.365-6.605,2.645-13.507,3.799-20.693C118.321,144.063,119.229,137.462,119.978,131.092
		"/>
	<path clip-path="url(#SVGID_2_)" fill="#484443" d="M112.12,146.285c0.604,3.144,1.171,8.225,0,14.276
		c-0.936,4.836-2.656,8.608-4.061,11.132c0.238-3.727,0.65-7.761,1.31-12.049C110.119,154.778,111.078,150.312,112.12,146.285"/>
	<path clip-path="url(#SVGID_2_)" fill="#484443" d="M226.524,128.735c-2.605,6.44-0.606,12.614,0.589,16.306
		c2.796,8.636,8.37,14.176,11.591,16.895c-2.404-3.778-5.242-9.117-7.269-15.913c-2.596-8.708-2.816-16.31-2.553-21.414
		C228.185,125.523,227.263,126.908,226.524,128.735"/>
	<path clip-path="url(#SVGID_2_)" fill="#652B28" d="M153.678,252.396c-0.539,0.35-1.18-0.287-0.835-0.829
		c3.844-6.021,10.904-9.325,17.94-8.219c6.494,1.021,11.893,5.629,14.097,11.834c0.216,0.61-0.545,1.098-0.995,0.633
		c-2.425-2.504-7.232-6.393-14.398-7.229C162.246,247.741,156.627,250.482,153.678,252.396"/>
	<path clip-path="url(#SVGID_2_)" fill="#FFFFFF" d="M128.708,187.972c0,0,1.428,15.901,17.489,16.559
		c16.061,0.657,15.993-14.537,15.993-14.537S131.444,187.521,128.708,187.972"/>
	<path clip-path="url(#SVGID_2_)" fill="#3F2E20" d="M155.78,188.776c0.012,0.074,0.023,0.148,0.027,0.216
		c0.708,5.22-2.88,10.066-8.102,10.891c-0.498,0.079-0.995,0.116-1.483,0.124c-0.082-0.001-0.158-0.002-0.241-0.003
		c-0.035-0.002-0.069-0.003-0.104-0.004c-0.139-0.006-0.271-0.013-0.404-0.026c-0.097-0.005-0.194-0.011-0.293-0.023
		c-4.272-0.441-7.879-3.694-8.582-8.143c-0.201-1.271-0.145-2.527,0.129-3.713c0.07-0.301,0.16-0.604,0.259-0.895
		c0.215-0.641,0.491-1.249,0.834-1.827c7.664-1.68,13.999,0.178,17.535,1.714c0.151,0.437,0.277,0.886,0.365,1.354
		C155.744,188.548,155.762,188.662,155.78,188.776"/>
	<path clip-path="url(#SVGID_2_)" fill="#987957" d="M162.19,189.994c-1.127,0.152-2.25,0.276-3.359,0.38
		c-9.849,0.893-18.963-0.173-24.529-1.154c-3.489-0.617-5.583-1.198-5.591-1.25l0.008-0.002c2.407-1.027,4.877-2.206,7.121-2.693
		c9.852-2.16,17.997,0.229,22.542,2.203c2.14,0.928,3.345,2.217,3.709,2.452l0.009-0.001
		C162.16,189.972,162.19,189.994,162.19,189.994"/>
	<path clip-path="url(#SVGID_2_)" fill="#987957" d="M131.481,205.53c4.428-1.62,9.214-1.845,13.877-1.895
		c4.621,0.158,9.609,0.185,13.761,2.502c-4.511-0.961-9.178-0.592-13.768-0.716C141.256,205.43,135.532,205.296,131.481,205.53"/>
	<path clip-path="url(#SVGID_2_)" fill="#FFFFFF" d="M222.106,187.972c0,0-1.428,15.901-17.489,16.559
		c-16.061,0.657-15.993-14.537-15.993-14.537S219.37,187.521,222.106,187.972"/>
	<path clip-path="url(#SVGID_2_)" fill="#3F2E20" d="M194.886,188.841c-0.012,0.075-0.024,0.15-0.028,0.219
		c-0.718,5.294,2.921,10.207,8.217,11.044c0.504,0.08,1.008,0.117,1.503,0.126c0.084-0.001,0.161-0.003,0.245-0.004
		c0.035-0.001,0.07-0.002,0.105-0.004c0.141-0.006,0.275-0.012,0.41-0.026c0.098-0.005,0.197-0.011,0.296-0.023
		c4.333-0.447,7.99-3.746,8.703-8.258c0.204-1.288,0.147-2.561-0.131-3.765c-0.071-0.305-0.162-0.612-0.262-0.908
		c-0.218-0.649-0.498-1.266-0.846-1.852c-7.771-1.703-14.195,0.181-17.781,1.738c-0.154,0.443-0.281,0.898-0.37,1.373
		C194.922,188.609,194.904,188.725,194.886,188.841"/>
	<path clip-path="url(#SVGID_2_)" fill="#987957" d="M188.624,189.994c1.127,0.152,2.25,0.276,3.359,0.38
		c9.849,0.893,18.963-0.173,24.529-1.154c3.489-0.617,5.583-1.198,5.591-1.25l-0.008-0.002c-2.407-1.027-4.877-2.206-7.121-2.693
		c-9.852-2.16-17.997,0.229-22.542,2.203c-2.14,0.928-3.345,2.217-3.709,2.452l-0.009-0.001
		C188.654,189.972,188.624,189.994,188.624,189.994"/>
	<path clip-path="url(#SVGID_2_)" fill="#987957" d="M219.333,205.53c-4.028-0.234-9.791-0.1-13.87-0.109
		c-4.59,0.124-9.256-0.245-13.768,0.716c4.152-2.317,9.141-2.344,13.76-2.502C210.119,203.685,214.904,203.91,219.333,205.53"/>
	<path clip-path="url(#SVGID_2_)" d="M166.805,238.093c-9.512,3.126-20.106,2.451-28.949-1.847
		c8.988,2.18,18.678,0.859,26.502-3.753C168.362,230.377,171.083,236.587,166.805,238.093"/>
	<path clip-path="url(#SVGID_2_)" d="M176.939,233.623c6.879,5.932,16.176,8.957,25.41,8.413
		c-9.469,2.654-20.011,1.431-28.815-3.338C169.598,236.457,173.37,230.826,176.939,233.623"/>
	<path clip-path="url(#SVGID_2_)" fill="#542525" d="M166.129,172.554l-3.967-9.135c0,0-21.722,13.668-43.786,11.14
		C118.376,174.56,137.857,186.799,166.129,172.554"/>
	<path clip-path="url(#SVGID_2_)" fill="#542525" d="M182.664,170.434l4.191-9.034c0,0,21.378,14.201,43.498,12.218
		C230.353,173.618,210.576,185.373,182.664,170.434"/>
	<path clip-path="url(#SVGID_2_)" fill="#987957" d="M174.376,183.473c2.259,3.823,3.971,9.962,5.595,14.118
		c3.173,9.158,9.169,21.092,0.78,29.274c-4.08,3.363-10.802,3.45-14.622-0.22c7.022,3.283,15.62,1.515,17.003-7.022
		c1.726-7.52-2.467-14.427-4.514-21.554C177.339,193.795,174.952,187.883,174.376,183.473"/>
	<path clip-path="url(#SVGID_2_)" fill="#BC956B" d="M236.518,533.984c-2-7.833-4.012-15.71-9.987-23.408
		c-16.53-21.294-48.915-22.56-68.975-18.414c-8.727,1.805-23.887,4.938-35.267,17.79c-12.276,13.863-12.802,30.73-13.421,50.562
		c-0.6,19.249,2.96,32.704,8.427,53.369c2.154,8.141,6.139,21.64,15.605,34.955c4.145,5.83,7.936,9.649,12.952,12.483
		c6.036,3.411,11.366,3.996,19.039,4.838c8.101,0.89,15.957,1.752,24.968-1.716c1.09-0.42,5.511-2.171,10.871-6.347
		c16.04-12.494,27.041-36.203,30.17-43.278C230.899,614.818,244.84,558.017,236.518,533.984"/>
	<path clip-path="url(#SVGID_2_)" fill="#BC956B" d="M113.237,582.517c-2.477-5.113-5.142-8.946-7.178-11.548
		c-4.467-5.708-6.97-6.854-8.739-7.334c-0.916-0.249-4.32-1.173-6.554,0.623c-1.999,1.606-2.056,4.578-2.029,6.555
		c0.157,11.442,3.592,22.12,4.681,25.436c3.178,9.67,4.792,12.753,7.647,15.449c3.987,3.766,7.472,4.021,8.271,4.058
		c0.968,0.044,2.953,0.109,4.837-1.093c3.745-2.387,3.607-7.55,3.589-7.958C116.254,598.642,114.745,590.579,113.237,582.517"/>
	<path clip-path="url(#SVGID_2_)" fill="#BC956B" d="M230.899,614.818c0.883,0.828,2.45,2.027,4.577,2.289
		c0.738,0.091,3.754,0.341,8.115-3.537c9.651-8.581,10.263-23.484,10.508-29.441c0.113-2.761,0.105-7.36-2.705-11.132
		c-0.751-1.007-2.223-2.924-4.578-3.226c-1.902-0.242-3.428,0.692-4.473,1.354c-4.033,2.548-5.457,7-5.93,8.843
		C236.414,579.968,228.195,608.577,230.899,614.818"/>
	<path clip-path="url(#SVGID_2_)" fill="#BC956B" d="M114.357,580.41c-2.206-5.571-5.13-9.31-7.156-11.511
		c-2.266-2.463-4.51-4.837-8.203-5.699c-1.13-0.264-4.6-1.073-7.104,0.819c-2.039,1.542-2.545,4.202-2.732,7.104
		c-0.406,6.3,0.759,12.702,4.508,22.815c3.793,10.232,6.193,13.366,8.554,15.562c3.764,3.497,6.747,3.975,8.244,4.044
		c0.965,0.044,2.944,0.108,4.822-1.09c3.733-2.379,3.595-7.525,3.578-7.933C117.365,596.484,115.861,588.447,114.357,580.41"/>
	<path clip-path="url(#SVGID_2_)" fill="#BC956B" d="M231.645,612.61c0.881,0.825,2.442,2.021,4.563,2.28
		c0.735,0.092,3.742,0.341,8.089-3.524c9.62-8.554,10.23-23.411,10.474-29.348c0.113-2.753,0.105-7.337-2.697-11.097
		c-0.748-1.005-2.215-2.916-4.563-3.215c-1.896-0.242-3.416,0.689-4.459,1.348c-4.019,2.54-5.439,6.979-5.911,8.815
		C237.141,577.87,228.949,606.388,231.645,612.61"/>
	<path clip-path="url(#SVGID_2_)" fill="#BC956B" d="M236.469,534.408c-1.994-7.808-4-15.66-9.955-23.333
		c-16.477-21.226-48.759-22.489-68.755-18.355c-8.7,1.799-23.811,4.921-35.155,17.733c-12.237,13.819-12.762,30.632-13.378,50.399
		c-0.598,19.188,2.95,32.6,8.4,53.198c2.147,8.116,6.119,21.572,15.555,34.846c4.131,5.811,7.91,9.617,12.911,12.443
		c6.016,3.399,11.329,3.982,18.978,4.822c8.076,0.886,15.907,1.746,24.888-1.711c1.087-0.418,5.494-2.164,10.837-6.326
		c15.989-12.455,26.955-36.088,30.074-43.14C230.87,614.985,244.766,558.363,236.469,534.408"/>
	<path clip-path="url(#SVGID_2_)" fill="#111010" d="M235.843,583.473c4.493-7.563,9.2-17.284,12.573-29.076
		c2.669-9.325,6.233-22.276,3.929-38.505c-1.441-10.156-3.026-21.318-12.311-28.29c-7.299-5.479-15.795-5.697-19.908-5.501
		c0.151-3.999-0.683-6.939-1.309-8.644c-4.491-12.204-18.575-15.739-20.432-16.175c-2.847-0.669-5.191-0.786-6.881-0.809
		c-13.297-0.177-26.593,4.933-36.078,9.648c0,0-16.544,6.91-32.742,18.598c-3.21,2.316-8.435,6.334-9.693,12.836
		c-0.403,2.084-0.294,3.887-0.131,5.107c-2.062,0.715-10.307,3.838-14.799,12.574c-1.666,3.237-2.444,6.54-2.751,12.18
		c-0.981,18.013,4.143,32.497,5.239,35.494c2.335,6.386,6.433,15.468,13.752,25.146c-1.308-4.914-2.439-12.005-0.786-20.039
		c0.748-3.632,1.502-4.728,4.977-14.145c3.767-10.205,5.65-15.309,6.68-19.907c1.157-5.166,2.143-13.002,0.524-23.313
		c6.909,1.116,14.49,1.9,22.658,2.095c27.708,0.661,50.758-5.732,66.926-12.049c-0.426,8.507,0.018,23.287,7.073,39.553
		c4.016,9.26,9.02,16.34,13.228,21.349C235.668,568.892,235.756,576.182,235.843,583.473"/>
	<path clip-path="url(#SVGID_2_)" fill="#484443" d="M131.917,493.954c5.049-0.083,10.882-0.505,17.289-1.572
		c7.185-1.196,13.451-2.93,18.663-4.715c-4.78,4.257-9.561,8.514-14.342,12.77c5.353-0.263,11.292-0.853,17.682-1.964
		c9.626-1.675,17.998-4.137,24.95-6.68c-6.106,3.744-14.684,8.087-25.54,11.002c-16.832,4.519-31.303,3.5-40.077,2.161
		c6.614-3.014,13.228-6.025,19.842-9.037C144.228,495.264,138.073,494.608,131.917,493.954"/>
	<path clip-path="url(#SVGID_2_)" fill="#484443" d="M120.064,514.582c0.913,4.32,1.701,10.495,0.917,17.812
		c-1.113,10.393-4.871,18.201-7.466,22.658c1.365-6.604,2.645-13.507,3.799-20.692C118.407,527.552,119.315,520.952,120.064,514.582
		"/>
	<path clip-path="url(#SVGID_2_)" fill="#484443" d="M112.206,529.774c0.604,3.145,1.171,8.226,0,14.276
		c-0.936,4.836-2.656,8.607-4.061,11.132c0.238-3.727,0.65-7.761,1.31-12.049C110.205,538.268,111.164,533.802,112.206,529.774"/>
	<path clip-path="url(#SVGID_2_)" fill="#484443" d="M226.609,512.225c-2.605,6.439-0.606,12.614,0.589,16.306
		c2.796,8.636,8.371,14.176,11.591,16.896c-2.404-3.778-5.242-9.117-7.269-15.913c-2.596-8.708-2.816-16.311-2.553-21.414
		C228.271,509.014,227.348,510.397,226.609,512.225"/>
	<path clip-path="url(#SVGID_2_)" fill="#652B28" d="M149.738,633.285c0.084-0.367,0.231-0.727,0.431-1.038
		c2.38-3.764,7.251-4.246,10.848-5.012c1.698-0.365,3.406-0.655,5.119-0.871c2.664-0.333,5.346-0.333,8.01,0
		c1.719,0.216,3.43,0.506,5.13,0.871c3.59,0.766,8.468,1.248,10.848,5.012c0.2,0.312,0.341,0.671,0.425,1.038
		c0.212,0.882,0.116,1.864-0.309,2.678c-0.514,0.998-1.442,1.592-2.387,1.842c-1.911,0.483-3.191-0.226-4.928-1.015
		c-4.073-1.858-8.377-2.515-12.74-2.601h-0.083c-4.363,0.086-8.661,0.742-12.734,2.601c-1.737,0.789-3.018,1.498-4.928,1.015
		c-0.952-0.25-1.878-0.844-2.394-1.842C149.628,635.149,149.526,634.167,149.738,633.285"/>
	<path clip-path="url(#SVGID_2_)" fill="#FFFFFF" d="M128.708,570.865c0,0,1.428,15.901,17.489,16.56
		c16.061,0.656,15.993-14.537,15.993-14.537S131.444,570.414,128.708,570.865"/>
	<path clip-path="url(#SVGID_2_)" fill="#3F2E20" d="M155.78,571.67c0.012,0.074,0.023,0.147,0.027,0.216
		c0.708,5.22-2.88,10.066-8.102,10.891c-0.498,0.079-0.995,0.116-1.483,0.124c-0.082-0.001-0.158-0.002-0.241-0.003
		c-0.035-0.002-0.069-0.003-0.104-0.004c-0.139-0.006-0.271-0.013-0.404-0.025c-0.097-0.006-0.194-0.012-0.293-0.023
		c-4.272-0.441-7.879-3.694-8.582-8.143c-0.201-1.271-0.145-2.527,0.129-3.714c0.07-0.301,0.16-0.604,0.259-0.895
		c0.215-0.641,0.491-1.249,0.834-1.827c7.664-1.68,13.999,0.178,17.535,1.714c0.151,0.438,0.277,0.887,0.365,1.354
		C155.744,571.44,155.762,571.556,155.78,571.67"/>
	<path clip-path="url(#SVGID_2_)" fill="#987957" d="M162.19,572.888c-1.127,0.152-2.25,0.276-3.359,0.38
		c-9.849,0.894-18.963-0.173-24.529-1.153c-3.489-0.617-5.583-1.199-5.591-1.25l0.008-0.003c2.407-1.026,4.877-2.205,7.121-2.692
		c9.852-2.16,17.997,0.229,22.542,2.203c2.14,0.928,3.345,2.217,3.709,2.452l0.009-0.001
		C162.16,572.866,162.19,572.888,162.19,572.888"/>
	<path clip-path="url(#SVGID_2_)" fill="#987957" d="M131.481,588.423c4.428-1.619,9.214-1.845,13.877-1.895
		c4.621,0.158,9.609,0.185,13.761,2.502c-4.511-0.961-9.178-0.592-13.768-0.716C141.256,588.323,135.532,588.189,131.481,588.423"/>
	<path clip-path="url(#SVGID_2_)" fill="#FFFFFF" d="M222.106,570.865c0,0-1.428,15.901-17.489,16.56
		c-16.061,0.656-15.993-14.537-15.993-14.537S219.37,570.414,222.106,570.865"/>
	<path clip-path="url(#SVGID_2_)" fill="#3F2E20" d="M194.886,571.734c-0.012,0.075-0.024,0.15-0.028,0.219
		c-0.718,5.295,2.921,10.207,8.217,11.045c0.504,0.079,1.008,0.116,1.503,0.126c0.084-0.001,0.161-0.003,0.245-0.005
		c0.035-0.001,0.07-0.002,0.105-0.004c0.141-0.006,0.275-0.012,0.41-0.025c0.098-0.005,0.197-0.012,0.296-0.023
		c4.333-0.447,7.99-3.746,8.703-8.258c0.204-1.288,0.147-2.561-0.131-3.765c-0.071-0.306-0.162-0.612-0.262-0.908
		c-0.218-0.649-0.498-1.267-0.846-1.853c-7.771-1.702-14.195,0.182-17.781,1.738c-0.154,0.443-0.281,0.898-0.37,1.373
		C194.922,571.503,194.904,571.618,194.886,571.734"/>
	<path clip-path="url(#SVGID_2_)" fill="#987957" d="M188.624,572.888c1.127,0.152,2.25,0.276,3.359,0.38
		c9.849,0.894,18.963-0.173,24.529-1.153c3.489-0.617,5.583-1.199,5.591-1.25l-0.008-0.003c-2.407-1.026-4.877-2.205-7.121-2.692
		c-9.852-2.16-17.997,0.229-22.542,2.203c-2.14,0.928-3.345,2.217-3.709,2.452l-0.009-0.001
		C188.654,572.866,188.624,572.888,188.624,572.888"/>
	<path clip-path="url(#SVGID_2_)" fill="#987957" d="M219.333,588.423c-4.028-0.233-9.791-0.1-13.87-0.108
		c-4.59,0.124-9.256-0.245-13.768,0.716c4.152-2.317,9.141-2.344,13.76-2.502C210.119,586.578,214.904,586.804,219.333,588.423"/>
	<path clip-path="url(#SVGID_2_)" d="M166.915,621.294c-9.194,3.964-19.806,4.239-28.999,0.748
		c9.148,1.369,18.681-0.813,26.061-6.106C167.776,613.471,171.041,619.412,166.915,621.294"/>
	<path clip-path="url(#SVGID_2_)" d="M176.609,615.936c7.382,5.293,16.912,7.476,26.061,6.107
		c-9.195,3.49-19.804,3.215-28.999-0.748C169.55,619.415,172.803,613.47,176.609,615.936"/>
	<path clip-path="url(#SVGID_2_)" fill="#987957" d="M175.125,643.784c-0.215,0-0.435-0.039-0.648-0.122
		c-1.441-0.562-2.964-0.761-4.49-0.842c-1.439,0.001-2.856,0.254-4.21,0.748c-0.93,0.338-1.954-0.14-2.293-1.065
		c-0.339-0.928,0.139-1.954,1.066-2.293c1.748-0.638,3.575-0.963,5.432-0.965h0.025c1.976,0,3.916,0.365,5.767,1.085
		c0.92,0.357,1.376,1.393,1.018,2.313C176.516,643.351,175.84,643.784,175.125,643.784"/>
	<path clip-path="url(#SVGID_2_)" fill="#542525" d="M166.129,555.448l-3.967-9.136c0,0-21.722,13.668-43.786,11.141
		C118.376,557.453,137.857,569.693,166.129,555.448"/>
	<path clip-path="url(#SVGID_2_)" fill="#542525" d="M182.664,553.327l4.191-9.034c0,0,21.378,14.201,43.498,12.218
		C230.353,556.511,210.576,568.266,182.664,553.327"/>
	<path clip-path="url(#SVGID_2_)" fill="#987957" d="M174.376,566.366c2.259,3.823,3.971,9.962,5.595,14.118
		c3.173,9.158,9.169,21.092,0.78,29.273c-4.08,3.363-10.802,3.45-14.622-0.22c7.022,3.283,15.62,1.515,17.003-7.022
		c1.726-7.52-2.467-14.427-4.514-21.554C177.339,576.688,174.952,570.776,174.376,566.366"/>
	<path clip-path="url(#SVGID_2_)" fill="#BC956B" d="M423.799,580.533c-2.206-5.572-5.13-9.311-7.156-11.511
		c-2.266-2.464-4.51-4.838-8.203-5.699c-1.13-0.265-4.6-1.074-7.104,0.818c-2.039,1.542-2.545,4.202-2.732,7.104
		c-0.406,6.299,0.759,12.702,4.508,22.814c3.793,10.232,6.193,13.366,8.554,15.562c3.764,3.498,6.747,3.975,8.244,4.044
		c0.965,0.044,2.944,0.109,4.822-1.089c3.733-2.379,3.595-7.526,3.578-7.934C426.807,596.607,425.303,588.57,423.799,580.533"/>
	<path clip-path="url(#SVGID_2_)" fill="#BC956B" d="M541.087,612.732c0.881,0.825,2.441,2.021,4.563,2.281
		c0.735,0.091,3.742,0.34,8.089-3.525c9.62-8.554,10.23-23.411,10.475-29.348c0.113-2.752,0.104-7.336-2.697-11.096
		c-0.748-1.005-2.215-2.916-4.563-3.215c-1.896-0.242-3.416,0.688-4.459,1.348c-4.02,2.54-5.439,6.978-5.911,8.814
		C546.583,577.992,538.391,606.511,541.087,612.732"/>
	<path clip-path="url(#SVGID_2_)" fill="#BC956B" d="M545.912,534.53c-1.994-7.808-4-15.659-9.955-23.333
		c-16.478-21.226-48.759-22.488-68.755-18.354c-8.7,1.798-23.811,4.921-35.155,17.732c-12.237,13.819-12.762,30.633-13.378,50.399
		c-0.598,19.188,2.95,32.6,8.4,53.199c2.147,8.116,6.119,21.572,15.555,34.845c4.131,5.812,7.91,9.618,12.911,12.444
		c6.016,3.398,11.329,3.981,18.978,4.821c8.076,0.887,15.907,1.746,24.888-1.711c1.087-0.418,5.494-2.164,10.837-6.325
		c15.989-12.455,26.955-36.089,30.074-43.141C540.312,615.107,554.208,558.485,545.912,534.53"/>
	<path clip-path="url(#SVGID_2_)" fill="#111010" d="M545.285,583.596c4.493-7.563,9.2-17.284,12.573-29.076
		c2.669-9.326,6.232-22.277,3.929-38.505c-1.441-10.157-3.026-21.319-12.312-28.29c-7.299-5.48-15.795-5.698-19.907-5.501
		c0.15-3.999-0.684-6.94-1.31-8.645c-4.491-12.204-18.575-15.738-20.432-16.175c-2.849-0.669-5.191-0.786-6.881-0.808
		c-13.297-0.178-26.593,4.932-36.078,9.647c0,0-16.544,6.91-32.742,18.599c-3.21,2.315-8.435,6.334-9.693,12.836
		c-0.403,2.084-0.294,3.886-0.131,5.106c-2.062,0.715-10.307,3.838-14.799,12.574c-1.666,3.238-2.444,6.54-2.751,12.18
		c-0.981,18.014,4.143,32.497,5.239,35.494c2.335,6.386,6.433,15.468,13.752,25.146c-1.308-4.914-2.439-12.005-0.786-20.039
		c0.748-3.632,1.502-4.729,4.977-14.146c3.767-10.205,5.65-15.308,6.68-19.906c1.157-5.166,2.143-13.003,0.524-23.313
		c6.909,1.117,14.49,1.901,22.658,2.095c27.708,0.66,50.758-5.731,66.926-12.049c-0.426,8.507,0.019,23.287,7.073,39.553
		c4.016,9.261,9.02,16.341,13.229,21.35C545.11,569.015,545.198,576.305,545.285,583.596"/>
	<path clip-path="url(#SVGID_2_)" fill="#484443" d="M441.359,494.076c5.049-0.083,10.882-0.505,17.289-1.572
		c7.185-1.195,13.451-2.93,18.663-4.715c-4.78,4.257-9.561,8.514-14.342,12.771c5.353-0.264,11.292-0.854,17.682-1.964
		c9.626-1.676,17.998-4.138,24.95-6.681c-6.106,3.744-14.684,8.087-25.54,11.002c-16.832,4.52-31.303,3.5-40.077,2.161
		c6.614-3.013,13.228-6.025,19.842-9.037C453.67,495.387,447.515,494.731,441.359,494.076"/>
	<path clip-path="url(#SVGID_2_)" fill="#484443" d="M429.506,514.704c0.913,4.32,1.701,10.495,0.917,17.813
		c-1.113,10.392-4.871,18.201-7.466,22.658c1.365-6.605,2.645-13.508,3.799-20.693C427.849,527.675,428.757,521.074,429.506,514.704
		"/>
	<path clip-path="url(#SVGID_2_)" fill="#484443" d="M421.648,529.897c0.604,3.144,1.171,8.225,0,14.275
		c-0.936,4.836-2.656,8.608-4.061,11.133c0.238-3.728,0.65-7.762,1.31-12.05C419.647,538.391,420.606,533.924,421.648,529.897"/>
	<path clip-path="url(#SVGID_2_)" fill="#484443" d="M536.052,512.347c-2.605,6.44-0.606,12.614,0.589,16.307
		c2.796,8.636,8.37,14.176,11.591,16.895c-2.404-3.778-5.242-9.117-7.269-15.913c-2.597-8.708-2.816-16.31-2.555-21.414
		C537.713,509.136,536.791,510.52,536.052,512.347"/>
	<path clip-path="url(#SVGID_2_)" fill="#652B28" d="M502.184,635.878c-2.168-1.597-10.25-7.146-21.673-6.367
		c-9.734,0.662-16.277,5.535-18.544,7.397c4.29-1.662,10.749-3.598,18.788-3.97C490.033,632.51,497.519,634.342,502.184,635.878"/>
	<path clip-path="url(#SVGID_2_)" fill="#FFFFFF" d="M472.547,574.688c0,0-2.548,14.976-18.264,11.557
		c-15.708-3.408-14.367-19.314-14.367-19.314c0.8,0.008,3.874,0.657,7.844,1.585c5.755,1.342,13.37,3.252,18.636,4.601
		C470.032,574.035,472.547,574.688,472.547,574.688"/>
	<path clip-path="url(#SVGID_2_)" fill="#3F2E20" d="M456.569,581.934c-0.496-0.006-0.994-0.063-1.479-0.138l-0.236-0.041
		c-0.039-0.007-0.067-0.021-0.107-0.028c-0.128-0.022-0.264-0.057-0.39-0.089c-0.097-0.027-0.186-0.042-0.281-0.079
		c-4.13-1.169-7.126-4.993-7.049-9.497c0.027-1.254,0.276-2.449,0.732-3.547c5.755,1.342,13.37,3.253,18.636,4.6
		C465.935,578.13,461.691,582.018,456.569,581.934"/>
	<path clip-path="url(#SVGID_2_)" fill="#987957" d="M439.619,584.697c4.64-0.833,9.394-0.229,13.996,0.524
		c4.524,0.951,9.433,1.838,13.124,4.836c-4.278-1.725-8.939-2.164-13.439-3.078C449.265,586.283,443.648,585.164,439.619,584.697"/>
	<path clip-path="url(#SVGID_2_)" fill="#FFFFFF" d="M531.939,564.797c0,0,1.918,15.849-13.666,19.826
		c-15.571,3.985-18.662-10.887-18.662-10.887s2.423-0.72,5.955-1.757c5.243-1.544,12.936-3.783,18.697-5.346
		C528.141,565.584,531.149,564.832,531.939,564.797"/>
	<path clip-path="url(#SVGID_2_)" fill="#3F2E20" d="M525.158,570.267c0.244,4.56-2.649,8.549-6.792,9.89
		c-0.096,0.029-0.193,0.051-0.278,0.08c-0.136,0.038-0.261,0.074-0.396,0.113l-0.343,0.073c-0.491,0.094-0.986,0.169-1.502,0.197
		c-5.198,0.267-9.666-3.537-10.281-8.642c5.243-1.544,12.937-3.782,18.697-5.345C524.776,567.751,525.098,568.971,525.158,570.267"
		/>
	<path clip-path="url(#SVGID_2_)" fill="#987957" d="M532.882,582.543c-3.988,0.608-9.598,1.938-13.59,2.777
		c-4.464,1.076-9.104,1.686-13.317,3.563c3.579-3.13,8.453-4.193,12.938-5.31C523.485,582.653,528.213,581.88,532.882,582.543"/>
	<path clip-path="url(#SVGID_2_)" d="M485.456,618.472c9.802-2.04,20.254-0.182,28.56,5.08c-8.688-3.174-18.464-2.947-26.756,0.759
		C483.043,625.965,481.036,619.488,485.456,618.472"/>
	<path clip-path="url(#SVGID_2_)" d="M475.12,624.349c-8.399-3.459-18.175-3.396-26.767,0.034
		c8.149-5.506,18.538-7.672,28.397-5.924C481.191,619.343,479.39,625.876,475.12,624.349"/>
	<path clip-path="url(#SVGID_2_)" fill="#987957" d="M489.463,643.863c-0.644,0.818-1.756,1.116-2.765,0.859
		c-2.669-0.68-5.471-0.935-8.103,0.132c-2.166,0.825-3.419-2.595-1.227-3.358C479.662,639.676,491.983,640.66,489.463,643.863"/>
	<path clip-path="url(#SVGID_2_)" fill="#542525" d="M492.37,551.189l3.967,9.135c0,0,21.722-13.668,43.786-11.14
		C540.123,549.185,520.642,536.944,492.37,551.189"/>
	<path clip-path="url(#SVGID_2_)" fill="#542525" d="M475.835,553.311l-4.191,9.034c0,0-21.378-14.201-43.498-12.218
		C428.146,550.127,447.923,538.371,475.835,553.311"/>
	<path clip-path="url(#SVGID_2_)" fill="#987957" d="M484.146,566.366c2.259,3.823,3.971,9.962,5.595,14.118
		c3.173,9.158,9.169,21.092,0.78,29.273c-4.08,3.363-10.802,3.45-14.622-0.22c7.022,3.283,15.62,1.515,17.003-7.022
		c1.726-7.52-2.467-14.427-4.514-21.554C487.109,576.688,484.722,570.776,484.146,566.366"/>
	<path clip-path="url(#SVGID_2_)" fill="#987957" d="M483.429,552.894c-0.25,0-0.502-0.006-0.758-0.018
		c-2.503-0.107-5.017-0.782-7.272-1.947c-0.491-0.253-0.683-0.855-0.43-1.347c0.253-0.49,0.856-0.685,1.348-0.429
		c1.999,1.032,4.225,1.629,6.44,1.725c3.803,0.167,6.788-1.099,8.633-2.188c0.477-0.279,1.09-0.122,1.37,0.353
		c0.28,0.477,0.123,1.089-0.352,1.37C490.452,551.565,487.351,552.894,483.429,552.894"/>
	<path clip-path="url(#SVGID_2_)" fill="#987957" d="M483.429,558.158c-0.25,0-0.502-0.005-0.758-0.017
		c-2.503-0.108-5.017-0.782-7.272-1.947c-0.491-0.253-0.683-0.855-0.43-1.347c0.253-0.49,0.856-0.686,1.348-0.43
		c1.999,1.032,4.225,1.63,6.44,1.726c3.803,0.167,6.788-1.1,8.633-2.189c0.477-0.278,1.09-0.122,1.37,0.354
		c0.28,0.476,0.123,1.089-0.352,1.37C490.452,556.83,487.351,558.158,483.429,558.158"/>
	<path clip-path="url(#SVGID_2_)" fill="#987957" d="M483.429,563.424c-0.25,0-0.502-0.005-0.758-0.018
		c-2.503-0.107-5.017-0.781-7.272-1.946c-0.491-0.253-0.683-0.856-0.43-1.348c0.253-0.489,0.856-0.685,1.348-0.429
		c1.999,1.032,4.225,1.629,6.44,1.726c3.803,0.167,6.788-1.1,8.633-2.189c0.477-0.279,1.09-0.122,1.37,0.353
		c0.28,0.477,0.123,1.09-0.352,1.37C490.452,562.096,487.351,563.424,483.429,563.424"/>
	<path clip-path="url(#SVGID_2_)" fill="#BC956B" d="M422.979,197.352c-2.206-5.571-5.13-9.31-7.156-11.511
		c-2.266-2.463-4.51-4.837-8.203-5.699c-1.13-0.264-4.6-1.074-7.104,0.819c-2.039,1.542-2.545,4.202-2.732,7.104
		c-0.406,6.299,0.759,12.702,4.508,22.815c3.793,10.232,6.193,13.366,8.554,15.561c3.764,3.498,6.747,3.975,8.244,4.044
		c0.965,0.044,2.944,0.109,4.822-1.089c3.733-2.379,3.595-7.526,3.578-7.933C425.987,213.426,424.483,205.389,422.979,197.352"/>
	<path clip-path="url(#SVGID_2_)" fill="#BC956B" d="M540.267,229.552c0.881,0.825,2.441,2.021,4.563,2.281
		c0.735,0.091,3.742,0.34,8.089-3.525c9.62-8.554,10.23-23.411,10.475-29.348c0.112-2.752,0.104-7.336-2.696-11.096
		c-0.749-1.005-2.216-2.916-4.564-3.215c-1.896-0.242-3.416,0.689-4.459,1.348c-4.019,2.54-5.438,6.978-5.911,8.815
		C545.762,194.812,537.57,223.33,540.267,229.552"/>
	<path clip-path="url(#SVGID_2_)" fill="#BC956B" d="M545.091,151.35c-1.994-7.808-4-15.66-9.955-23.333
		c-16.477-21.226-48.759-22.489-68.755-18.355c-8.7,1.798-23.811,4.921-35.155,17.733c-12.237,13.819-12.761,30.632-13.378,50.399
		c-0.598,19.188,2.95,32.6,8.4,53.199c2.147,8.116,6.119,21.572,15.555,34.845c4.132,5.811,7.91,9.618,12.911,12.444
		c6.016,3.399,11.33,3.982,18.978,4.822c8.076,0.886,15.907,1.746,24.888-1.711c1.087-0.418,5.494-2.164,10.837-6.326
		c15.989-12.455,26.955-36.088,30.074-43.14C539.491,231.927,553.387,175.305,545.091,151.35"/>
	<path clip-path="url(#SVGID_2_)" fill="#111010" d="M544.465,200.415c4.492-7.563,9.199-17.284,12.572-29.076
		c2.669-9.326,6.233-22.277,3.931-38.505c-1.442-10.157-3.027-21.319-12.313-28.29c-7.299-5.48-15.795-5.698-19.907-5.501
		c0.15-3.999-0.684-6.94-1.31-8.644c-4.491-12.204-18.575-15.739-20.432-16.175c-2.848-0.669-5.191-0.786-6.882-0.808
		c-13.296-0.177-26.593,4.932-36.078,9.648c0,0-16.544,6.91-32.742,18.598c-3.21,2.316-8.435,6.334-9.693,12.836
		c-0.403,2.084-0.294,3.886-0.131,5.107c-2.062,0.715-10.307,3.838-14.799,12.574c-1.666,3.238-2.444,6.54-2.751,12.18
		c-0.981,18.013,4.143,32.497,5.239,35.494c2.335,6.386,6.433,15.468,13.752,25.146c-1.308-4.914-2.439-12.005-0.786-20.039
		c0.748-3.632,1.502-4.728,4.977-14.145c3.767-10.205,5.65-15.309,6.68-19.907c1.157-5.166,2.143-13.002,0.524-23.313
		c6.909,1.117,14.49,1.901,22.658,2.095c27.708,0.66,50.758-5.732,66.926-12.049c-0.426,8.507,0.019,23.287,7.073,39.553
		c4.016,9.26,9.02,16.34,13.228,21.349C544.289,185.833,544.377,193.124,544.465,200.415"/>
	<path clip-path="url(#SVGID_2_)" fill="#484443" d="M440.538,110.895c5.049-0.083,10.882-0.505,17.289-1.571
		c7.185-1.197,13.451-2.931,18.663-4.715c-4.78,4.256-9.561,8.513-14.342,12.769c5.353-0.263,11.292-0.853,17.682-1.964
		c9.626-1.675,17.998-4.137,24.95-6.68c-6.106,3.744-14.684,8.087-25.54,11.002c-16.832,4.519-31.303,3.5-40.077,2.161
		c6.614-3.013,13.228-6.025,19.842-9.037C452.849,112.205,446.694,111.55,440.538,110.895"/>
	<path clip-path="url(#SVGID_2_)" fill="#484443" d="M428.686,131.523c0.913,4.32,1.701,10.495,0.917,17.812
		c-1.113,10.392-4.871,18.201-7.466,22.658c1.365-6.604,2.645-13.507,3.799-20.693C427.028,144.493,427.937,137.894,428.686,131.523
		"/>
	<path clip-path="url(#SVGID_2_)" fill="#484443" d="M420.827,146.716c0.604,3.144,1.171,8.225,0,14.276
		c-0.936,4.836-2.656,8.608-4.061,11.132c0.238-3.727,0.65-7.761,1.31-12.049C418.826,155.209,419.785,150.743,420.827,146.716"/>
	<path clip-path="url(#SVGID_2_)" fill="#484443" d="M535.231,129.166c-2.605,6.44-0.606,12.614,0.589,16.306
		c2.796,8.636,8.371,14.176,11.591,16.895c-2.404-3.778-5.242-9.117-7.27-15.913c-2.596-8.708-2.815-16.31-2.553-21.414
		C536.892,125.955,535.97,127.339,535.231,129.166"/>
	<path clip-path="url(#SVGID_2_)" fill="#FFFFFF" d="M472.16,188.393c0,0,1.547,15.114-14.51,16.017
		c-16.04,0.901-19.007-14.775-19.007-14.775c3.232-2.039,6.671-3.237,10.076-3.857c6.086-1.133,12.045-0.421,16.431,0.533
		C469.388,187.227,472.16,188.393,472.16,188.393"/>
	<path clip-path="url(#SVGID_2_)" fill="#3F2E20" d="M458.71,199.637c-0.489,0.138-0.984,0.222-1.465,0.269l-0.355,0.034
		c-0.126-0.005-0.268,0.009-0.395,0.003c-0.107,0.01-0.195,0.019-0.304,0.012c-4.295-0.03-8.187-2.919-9.331-7.279
		c-0.319-1.244-0.387-2.494-0.235-3.695c0.042-0.309,0.101-0.62,0.18-0.915c0.151-0.661,0.359-1.292,0.658-1.914
		c0.417-0.131,0.836-0.261,1.256-0.374c6.085-1.133,12.045-0.422,16.431,0.533c0.162,0.379,0.307,0.76,0.418,1.163
		c0.029,0.105,0.057,0.21,0.087,0.332c0.025,0.07,0.05,0.139,0.057,0.21C466.93,193.142,463.825,198.313,458.71,199.637"/>
	<path clip-path="url(#SVGID_2_)" fill="#987957" d="M441.994,205.53c4.428-1.62,9.214-1.845,13.877-1.895
		c4.621,0.158,9.609,0.185,13.761,2.502c-4.511-0.961-9.178-0.592-13.768-0.716C451.769,205.43,446.045,205.296,441.994,205.53"/>
	<path clip-path="url(#SVGID_2_)" fill="#FFFFFF" d="M533.106,189.308c0,0-2.669,15.73-18.725,15.132
		c-16.071-0.598-14.81-15.739-14.81-15.739s2.641-1.209,6.822-2.172c4.62-1.072,11.137-1.851,17.979-0.399
		C527.266,186.734,530.216,187.754,533.106,189.308"/>
	<path clip-path="url(#SVGID_2_)" fill="#3F2E20" d="M525.047,192.62c-1.05,4.454-4.96,7.446-9.308,7.553
		c-0.108,0.009-0.215,0.001-0.305,0.011c-0.144-0.011-0.271-0.003-0.411-0.014l-0.107-0.008c-0.089-0.007-0.16-0.013-0.251-0.002
		c-0.479-0.056-0.976-0.131-1.485-0.26c-5.21-1.234-8.46-6.42-7.316-11.637c0.005-0.072,0.029-0.141,0.036-0.231
		c0.027-0.105,0.054-0.228,0.098-0.332c0.104-0.405,0.243-0.806,0.397-1.171c4.62-1.071,11.136-1.85,17.979-0.399
		c0.295,0.579,0.498,1.187,0.647,1.808c0.084,0.294,0.147,0.622,0.194,0.93C525.407,190.084,525.361,191.354,525.047,192.62"/>
	<path clip-path="url(#SVGID_2_)" fill="#987957" d="M529.846,205.53c-4.027-0.234-9.791-0.1-13.869-0.109
		c-4.591,0.124-9.257-0.245-13.769,0.716c4.152-2.317,9.142-2.344,13.76-2.502C520.632,203.685,525.417,203.91,529.846,205.53"/>
	<path clip-path="url(#SVGID_2_)" fill="#542525" d="M496.871,161.337l1.149,9.892c0,0,24.751-6.785,45.135,2.03
		C543.154,173.259,528.058,155.898,496.871,161.337"/>
	<path clip-path="url(#SVGID_2_)" fill="#542525" d="M475.902,162.902l-1.163,9.891c0,0-24.742-6.82-45.138,1.966
		C429.602,174.759,444.723,157.419,475.902,162.902"/>
	<path clip-path="url(#SVGID_2_)" fill="#987957" d="M484.889,183.473c3.595,6.417,5.567,14.369,8.257,21.222
		c2.876,7.037,4.416,16.442-1.809,22.255c-4.106,3.378-10.935,3.51-14.695-0.305c2.414,0.884,4.735,1.577,7.153,1.445
		c8.255,0.22,11.285-8.754,9.801-15.669C491.363,202.782,486.446,193.401,484.889,183.473"/>
	<path clip-path="url(#SVGID_2_)" fill="#652B28" d="M484.694,249.962c-6.122,0.247-10.915-0.543-13.106-0.966
		c-4.75-0.917-8.668-2.31-11.605-3.577c1.775,2.507,4.614,5.954,8.667,8.848c1.53,1.093,6.817,4.786,13.035,5.205
		c12.332,0.833,21.242-11.69,22.693-13.793C499.438,247.675,492.721,249.638,484.694,249.962"/>
	<path clip-path="url(#SVGID_2_)" fill="#987957" d="M483.254,263.625c-2.613,0.044-4.659-0.098-5.594-0.174
		c-2.027-0.165-3.699-0.416-4.953-0.644c0.757,0.452,1.969,1.072,3.699,1.593c0.653,0.196,2.91,0.861,5.564,0.937
		c5.263,0.149,9.066-2.104,9.686-2.483C489.547,263.213,486.68,263.567,483.254,263.625"/>
	<path clip-path="url(#SVGID_2_)" d="M478.246,241.702c-9.345,3.861-20.055,3.975-29.248,0.293
		c4.735,0.602,9.474,0.293,13.873-0.857c4.404-1.136,8.463-3.123,11.938-5.705c1.6-1.189,3.859-0.856,5.048,0.744
		C481.292,238.046,480.449,240.895,478.246,241.702"/>
	<path clip-path="url(#SVGID_2_)" d="M487.939,235.432c7.22,5.417,16.667,7.762,25.811,6.562
		c-9.218,3.693-19.962,3.566-29.324-0.324C479.55,239.432,483.492,232.422,487.939,235.432"/>
	<path clip-path="url(#SVGID_2_)" fill="#BC956B" d="M733.814,198.329c-2.206-5.572-5.13-9.31-7.156-11.511
		c-2.266-2.463-4.51-4.837-8.203-5.699c-1.13-0.264-4.6-1.074-7.104,0.819c-2.039,1.542-2.545,4.202-2.732,7.104
		c-0.405,6.299,0.76,12.702,4.509,22.815c3.793,10.232,6.192,13.366,8.554,15.561c3.764,3.498,6.747,3.975,8.244,4.044
		c0.965,0.044,2.943,0.109,4.821-1.089c3.733-2.379,3.596-7.526,3.578-7.933C736.822,214.402,735.318,206.366,733.814,198.329"/>
	<path clip-path="url(#SVGID_2_)" fill="#BC956B" d="M851.103,230.528c0.881,0.825,2.441,2.021,4.563,2.281
		c0.735,0.091,3.742,0.34,8.089-3.526c9.62-8.553,10.23-23.41,10.475-29.347c0.112-2.752,0.104-7.336-2.697-11.096
		c-0.748-1.005-2.215-2.916-4.563-3.215c-1.896-0.242-3.416,0.689-4.459,1.348c-4.019,2.54-5.438,6.978-5.911,8.815
		C856.598,195.788,848.406,224.306,851.103,230.528"/>
	<path clip-path="url(#SVGID_2_)" fill="#BC956B" d="M855.927,152.326c-1.994-7.808-4-15.66-9.955-23.333
		c-16.477-21.226-48.759-22.489-68.755-18.355c-8.7,1.798-23.811,4.922-35.155,17.733c-12.236,13.819-12.762,30.632-13.378,50.399
		c-0.598,19.188,2.95,32.6,8.4,53.199c2.146,8.116,6.119,21.572,15.555,34.845c4.132,5.811,7.91,9.618,12.911,12.444
		c6.016,3.399,11.33,3.982,18.978,4.822c8.076,0.886,15.907,1.746,24.889-1.711c1.087-0.418,5.494-2.164,10.837-6.326
		c15.989-12.455,26.955-36.088,30.074-43.14C850.327,232.903,864.223,176.281,855.927,152.326"/>
	<path clip-path="url(#SVGID_2_)" fill="#111010" d="M855.301,201.391c4.492-7.563,9.199-17.284,12.572-29.076
		c2.669-9.326,6.233-22.277,3.93-38.505c-1.441-10.157-3.026-21.319-12.312-28.29c-7.299-5.48-15.795-5.698-19.908-5.501
		c0.151-3.999-0.683-6.94-1.309-8.644c-4.491-12.204-18.575-15.739-20.433-16.175c-2.847-0.669-5.19-0.786-6.881-0.808
		c-13.297-0.177-26.593,4.932-36.078,9.648c0,0-16.544,6.91-32.741,18.598c-3.21,2.316-8.436,6.334-9.693,12.836
		c-0.403,2.084-0.294,3.886-0.131,5.107c-2.063,0.715-10.308,3.838-14.799,12.574c-1.666,3.238-2.444,6.54-2.751,12.18
		c-0.981,18.013,4.143,32.497,5.238,35.494c2.335,6.386,6.434,15.468,13.752,25.146c-1.308-4.914-2.438-12.005-0.785-20.039
		c0.748-3.632,1.502-4.728,4.977-14.145c3.767-10.205,5.65-15.308,6.68-19.907c1.157-5.166,2.144-13.002,0.524-23.313
		c6.909,1.117,14.49,1.901,22.658,2.095c27.708,0.661,50.758-5.732,66.926-12.049c-0.426,8.507,0.018,23.287,7.073,39.553
		c4.016,9.26,9.02,16.34,13.228,21.349C855.125,186.81,855.213,194.1,855.301,201.391"/>
	<path clip-path="url(#SVGID_2_)" fill="#484443" d="M751.374,111.872c5.049-0.083,10.882-0.505,17.289-1.572
		c7.185-1.196,13.451-2.93,18.663-4.715c-4.78,4.257-9.562,8.514-14.342,12.77c5.353-0.263,11.292-0.853,17.682-1.964
		c9.626-1.675,17.998-4.137,24.95-6.68c-6.106,3.744-14.685,8.087-25.54,11.002c-16.832,4.519-31.303,3.5-40.077,2.161
		c6.614-3.013,13.228-6.025,19.842-9.037C763.686,113.182,757.53,112.527,751.374,111.872"/>
	<path clip-path="url(#SVGID_2_)" fill="#484443" d="M739.521,132.5c0.913,4.32,1.701,10.495,0.917,17.812
		c-1.113,10.392-4.871,18.201-7.466,22.658c1.364-6.605,2.645-13.507,3.799-20.693C737.864,145.47,738.772,138.87,739.521,132.5"/>
	<path clip-path="url(#SVGID_2_)" fill="#484443" d="M731.663,147.693c0.604,3.144,1.171,8.225,0,14.276
		c-0.936,4.836-2.656,8.608-4.061,11.132c0.237-3.727,0.649-7.761,1.31-12.049C729.662,156.186,730.621,151.72,731.663,147.693"/>
	<path clip-path="url(#SVGID_2_)" fill="#484443" d="M846.066,130.143c-2.604,6.44-0.605,12.614,0.59,16.306
		c2.796,8.636,8.369,14.176,11.591,16.895c-2.404-3.778-5.242-9.117-7.27-15.913c-2.596-8.708-2.815-16.31-2.554-21.414
		C847.728,126.932,846.806,128.315,846.066,130.143"/>
	<path clip-path="url(#SVGID_2_)" fill="#987957" d="M747.187,190.197c0,0,3.304,15.747,19.457,14.512
		c16.152-1.236,14.294-16.436,14.294-16.436c-0.458,0.804-5.428,9.164-15.55,10.145
		C754.271,199.494,747.515,190.642,747.187,190.197"/>
	<path clip-path="url(#SVGID_2_)" fill="#987957" d="M842.38,189.01c0,0-2.28,15.928-18.479,15.738
		c-16.199-0.189-15.326-15.477-15.326-15.477c0.5,0.813,5.608,8.816,15.405,9.514C831.335,199.309,838.462,195.513,842.38,189.01"/>
	<path clip-path="url(#SVGID_2_)" d="M788.053,243.488c-9.267,3.995-19.961,4.272-29.227,0.754
		c9.219,1.379,18.827-0.82,26.266-6.155C788.919,235.602,792.21,241.591,788.053,243.488"/>
	<path clip-path="url(#SVGID_2_)" d="M797.822,238.087c7.439,5.335,17.044,7.534,26.266,6.155
		c-9.267,3.518-19.958,3.24-29.227-0.754C790.709,241.594,793.986,235.601,797.822,238.087"/>
	<path clip-path="url(#SVGID_2_)" fill="#987957" d="M796.303,263.84c-0.216,0-0.438-0.04-0.652-0.123
		c-1.452-0.565-2.987-0.767-4.525-0.849c-1.451,0.002-2.878,0.256-4.244,0.755c-0.936,0.34-1.968-0.141-2.31-1.074
		c-0.343-0.935,0.139-1.97,1.073-2.311c1.763-0.643,3.604-0.97,5.475-0.973h0.025c1.991,0,3.947,0.368,5.813,1.093
		c0.928,0.361,1.387,1.405,1.026,2.333C797.705,263.404,797.023,263.84,796.303,263.84"/>
	<path clip-path="url(#SVGID_2_)" fill="#987957" d="M793.925,183.527c2.276,3.853,4.002,10.04,5.639,14.229
		c3.198,9.229,9.241,21.258,0.786,29.503c-4.112,3.39-10.886,3.477-14.737-0.221c7.078,3.309,15.743,1.527,17.137-7.077
		c1.739-7.579-2.486-14.54-4.55-21.724C796.91,193.93,794.505,187.972,793.925,183.527"/>
	<path clip-path="url(#SVGID_2_)" fill="#652B28" d="M776.092,257.378c-0.503,0.4-1.203-0.172-0.91-0.745
		c3.245-6.363,9.955-10.331,17.065-9.907c6.562,0.39,12.379,4.458,15.17,10.422c0.274,0.586-0.438,1.145-0.929,0.726
		c-2.655-2.259-7.814-5.668-15.027-5.811C784.172,251.921,778.843,255.19,776.092,257.378"/>
	<path clip-path="url(#SVGID_2_)" fill="#542525" d="M780.961,158.053l1.896,9.776c0,0-25.645,1.017-42.409,15.582
		C740.448,183.411,749.589,162.298,780.961,158.053"/>
	<path clip-path="url(#SVGID_2_)" fill="#542525" d="M804.124,156.981l-1.487,9.847c0,0,25.664-0.052,43.021,13.803
		C845.657,180.631,835.646,159.917,804.124,156.981"/>
	<path clip-path="url(#SVGID_2_)" fill="#BC956B" d="M733.707,580.41c-2.206-5.571-5.13-9.31-7.156-11.511
		c-2.266-2.463-4.51-4.837-8.202-5.699c-1.13-0.264-4.601-1.073-7.104,0.819c-2.039,1.542-2.545,4.202-2.731,7.104
		c-0.406,6.3,0.759,12.702,4.508,22.815c3.793,10.232,6.192,13.366,8.554,15.562c3.764,3.497,6.747,3.975,8.244,4.044
		c0.965,0.044,2.944,0.108,4.822-1.09c3.732-2.379,3.595-7.525,3.578-7.933C736.715,596.484,735.211,588.447,733.707,580.41"/>
	<path clip-path="url(#SVGID_2_)" fill="#BC956B" d="M850.995,612.61c0.881,0.825,2.441,2.021,4.563,2.28
		c0.735,0.092,3.742,0.341,8.089-3.524c9.62-8.554,10.23-23.411,10.475-29.348c0.112-2.753,0.104-7.337-2.697-11.097
		c-0.748-1.005-2.215-2.916-4.563-3.215c-1.896-0.242-3.416,0.689-4.459,1.348c-4.02,2.54-5.439,6.979-5.911,8.815
		C856.491,577.87,848.299,606.388,850.995,612.61"/>
	<path clip-path="url(#SVGID_2_)" fill="#BC956B" d="M855.82,534.408c-1.994-7.808-4-15.66-9.955-23.333
		c-16.478-21.226-48.76-22.489-68.756-18.355c-8.699,1.799-23.811,4.921-35.154,17.733c-12.237,13.819-12.763,30.632-13.378,50.399
		c-0.599,19.188,2.949,32.6,8.399,53.198c2.147,8.116,6.119,21.572,15.556,34.846c4.132,5.811,7.909,9.617,12.91,12.443
		c6.017,3.399,11.33,3.982,18.979,4.822c8.076,0.886,15.907,1.746,24.888-1.711c1.087-0.418,5.494-2.164,10.837-6.326
		c15.989-12.455,26.955-36.088,30.074-43.14C850.22,614.985,864.116,558.363,855.82,534.408"/>
	<path clip-path="url(#SVGID_2_)" fill="#111010" d="M855.193,583.473c4.493-7.563,9.2-17.284,12.573-29.076
		c2.669-9.325,6.232-22.276,3.929-38.505c-1.441-10.156-3.026-21.318-12.312-28.29c-7.299-5.479-15.795-5.697-19.907-5.501
		c0.15-3.999-0.684-6.939-1.31-8.644c-4.491-12.204-18.575-15.739-20.432-16.175c-2.848-0.669-5.191-0.786-6.881-0.809
		c-13.298-0.177-26.594,4.933-36.078,9.648c0,0-16.544,6.91-32.742,18.598c-3.21,2.316-8.435,6.334-9.693,12.836
		c-0.402,2.084-0.294,3.887-0.131,5.107c-2.062,0.715-10.307,3.838-14.799,12.574c-1.666,3.237-2.444,6.54-2.751,12.18
		c-0.981,18.013,4.143,32.497,5.239,35.494c2.335,6.386,6.433,15.468,13.752,25.146c-1.309-4.914-2.439-12.005-0.786-20.039
		c0.748-3.632,1.502-4.728,4.977-14.145c3.768-10.205,5.65-15.309,6.681-19.907c1.156-5.166,2.143-13.002,0.523-23.313
		c6.909,1.116,14.49,1.9,22.658,2.095c27.708,0.661,50.758-5.732,66.926-12.049c-0.426,8.507,0.019,23.287,7.073,39.553
		c4.016,9.26,9.02,16.34,13.229,21.349C855.019,568.892,855.106,576.182,855.193,583.473"/>
	<path clip-path="url(#SVGID_2_)" fill="#484443" d="M751.267,493.954c5.05-0.083,10.883-0.505,17.289-1.572
		c7.186-1.196,13.451-2.93,18.663-4.715c-4.779,4.257-9.561,8.514-14.342,12.77c5.354-0.263,11.292-0.853,17.682-1.964
		c9.626-1.675,17.998-4.137,24.95-6.68c-6.105,3.744-14.684,8.087-25.54,11.002c-16.832,4.519-31.303,3.5-40.077,2.161
		c6.614-3.014,13.229-6.025,19.843-9.037C763.578,495.264,757.423,494.608,751.267,493.954"/>
	<path clip-path="url(#SVGID_2_)" fill="#484443" d="M739.414,514.582c0.913,4.32,1.701,10.495,0.917,17.812
		c-1.113,10.393-4.871,18.201-7.466,22.658c1.365-6.604,2.645-13.507,3.799-20.692C737.757,527.552,738.665,520.952,739.414,514.582
		"/>
	<path clip-path="url(#SVGID_2_)" fill="#484443" d="M731.556,529.774c0.604,3.145,1.171,8.226,0,14.276
		c-0.936,4.836-2.655,8.607-4.061,11.132c0.238-3.727,0.65-7.761,1.31-12.049C729.555,538.268,730.514,533.802,731.556,529.774"/>
	<path clip-path="url(#SVGID_2_)" fill="#484443" d="M845.96,512.225c-2.605,6.439-0.606,12.614,0.589,16.306
		c2.796,8.636,8.37,14.176,11.591,16.896c-2.404-3.778-5.242-9.117-7.269-15.913c-2.597-8.708-2.816-16.311-2.555-21.414
		C847.621,509.014,846.698,510.397,845.96,512.225"/>
	<path clip-path="url(#SVGID_2_)" fill="#652B28" d="M809.972,635.62c-0.56,3.92-4.439,7.229-9.75,8.58
		c-1.99-4.19-6.2-6.87-10.77-6.851c-4.25,0.021-8.19,2.37-10.29,6.12c-0.811-0.18-7.88-1.899-9.55-7.42
		c-0.221-0.729-0.381-1.66-0.33-2.77c3.54-9.38,35.319-9.04,40.38-1.03C810.102,633.65,810.092,634.79,809.972,635.62"/>
	<path clip-path="url(#SVGID_2_)" d="M786.455,621.294c-9.194,3.964-19.807,4.239-29,0.748c9.148,1.369,18.682-0.813,26.062-6.106
		C787.315,613.471,790.58,619.412,786.455,621.294"/>
	<path clip-path="url(#SVGID_2_)" d="M796.148,615.936c7.383,5.293,16.911,7.476,26.062,6.107
		c-9.195,3.49-19.804,3.215-28.999-0.748C789.09,619.415,792.343,613.47,796.148,615.936"/>
	<path clip-path="url(#SVGID_2_)" fill="#987957" d="M794.664,650.58c-3.031-0.915-6.303-1.45-9.349-0.215
		c-2.166,0.824-3.419-2.596-1.227-3.359C786.648,644.974,801.705,646.438,794.664,650.58"/>
	<path clip-path="url(#SVGID_2_)" fill="#542525" d="M807.424,539.229l-1.082,9.9c0,0,25.641-1.105,43.551,12.025
		C849.893,561.154,839.04,540.868,807.424,539.229"/>
	<path clip-path="url(#SVGID_2_)" fill="#542525" d="M776.222,535.746l1.715,9.81c0,0-25.657,0.544-42.688,14.799
		C735.248,560.354,744.777,539.412,776.222,535.746"/>
	<path clip-path="url(#SVGID_2_)" fill="#987957" d="M793.916,566.366c2.259,3.823,3.971,9.962,5.595,14.118
		c3.173,9.158,9.169,21.092,0.78,29.273c-4.08,3.363-10.803,3.45-14.622-0.22c7.021,3.283,15.62,1.515,17.003-7.022
		c1.726-7.52-2.467-14.427-4.514-21.554C796.879,576.688,794.492,570.776,793.916,566.366"/>
	<path clip-path="url(#SVGID_2_)" fill="#FFFFFF" d="M840.844,573.437c0,0-3.001,15.68-19.048,14.74
		c-16.047-0.941-14.471-16.054-14.471-16.054c1.158-1.885,3.742-5.435,8.372-7.48c9.237-4.083,18.067,1.599,18.861,2.128
		C837.854,568.97,839.801,571.69,840.844,573.437"/>
	<path clip-path="url(#SVGID_2_)" fill="#987957" d="M836.341,590.632c-4.245-2.051-8.985-2.751-13.62-3.264
		c-4.614-0.301-9.58-0.771-13.941,1.123c4.584-0.509,9.191,0.322,13.771,0.654C826.623,589.562,832.333,589.997,836.341,590.632"/>
	<path clip-path="url(#SVGID_2_)" fill="#3F2E20" d="M812.896,574.207c-0.571,5.72,3.603,10.82,9.323,11.39
		c5.72,0.571,10.819-3.603,11.39-9.321c0.571-5.721-3.603-10.82-9.322-11.392C818.567,564.313,813.468,568.487,812.896,574.207"/>
	<path clip-path="url(#SVGID_2_)" fill="#DD4351" d="M800.222,644.2l-21.06-0.73c2.1-3.75,6.04-6.1,10.29-6.12
		C794.021,637.33,798.231,640.01,800.222,644.2"/>
	<path clip-path="url(#SVGID_2_)" fill="#652B28" d="M788.092,640.775c0,0,2.203-3.948,8.43-5.265h-4.215
		C792.307,635.511,790.008,636.235,788.092,640.775"/>
	<path clip-path="url(#SVGID_2_)" fill="#FFFFFF" d="M748.136,571.271c0,0,1.812,15.862,17.884,16.131
		c16.072,0.27,15.637-14.919,15.637-14.919c-1.012-1.967-3.321-5.7-7.783-8.09c-8.904-4.766-18.138,0.236-18.97,0.704
		C751.452,567.043,749.307,569.608,748.136,571.271"/>
	<path clip-path="url(#SVGID_2_)" fill="#987957" d="M751.332,588.758c4.387-1.727,9.167-2.068,13.827-2.23
		c4.623,0.046,9.61-0.048,13.817,2.168c-4.533-0.851-9.189-0.369-13.781-0.382C761.103,588.422,755.376,588.426,751.332,588.758"/>
	<path clip-path="url(#SVGID_2_)" fill="#3F2E20" d="M775.945,574.143c0.139,5.747-4.407,10.519-10.153,10.657
		c-5.747,0.139-10.518-4.407-10.657-10.154c-0.139-5.746,4.407-10.517,10.153-10.656
		C771.035,563.851,775.807,568.396,775.945,574.143"/>
</g>
</svg>
