<?xml version="1.0" encoding="utf-8"?>
<!-- Generator: Adobe Illustrator 26.0.1, SVG Export Plug-In . SVG Version: 6.00 Build 0)  -->
<svg version="1.1" id="Layer_1" xmlns="http://www.w3.org/2000/svg" xmlns:xlink="http://www.w3.org/1999/xlink" x="0px" y="0px"
	 viewBox="0 0 1000 1000" style="enable-background:new 0 0 1000 1000;" xml:space="preserve">
<style type="text/css">
	.st0{clip-path:url(#SVGID_00000128470777658280059740000010745306150086757554_);}
	.st1{fill:#E3F4FF;}
	.st2{fill:#FFFFFF;}
	.st3{fill:#BDDEEF;}
	.st4{fill:none;stroke:#FFFFFF;stroke-width:1.5852;stroke-miterlimit:10;}
	.st5{fill:#5190B7;}
	.st6{fill:#C098EA;}
	.st7{fill:#4C6580;}
	.st8{fill:#9E64D0;}
	.st9{fill:#BC956B;}
	.st10{fill:#987957;}
	.st11{fill:#F6AF9A;}
	.st12{fill:#111010;}
	.st13{fill:#484443;}
	.st14{fill:#3F2E20;}
	.st15{fill:#652B28;}
	.st16{fill:#542525;}
</style>
<g>
	<g>
		<defs>
			<path id="SVGID_1_" d="M758.59,441.89c-0.18,0.04-0.35,0.09-0.53,0.14c0.18-0.05,0.35-0.11,0.53-0.16
				c-0.7-1.25-1.41-2.48-2.13-3.71c-0.72-1.23-1.44-2.46-2.16-3.67c-0.74-1.2-1.48-2.41-2.22-3.6c-1.49-2.39-3.01-4.75-4.54-7.05
				c-0.63-0.97-1.28-1.92-1.93-2.87c-0.53-0.76-1.04-1.51-1.56-2.27c-0.58-0.84-1.16-1.67-1.78-2.51c-0.58-0.83-1.18-1.65-1.78-2.48
				c-1.6-2.2-3.22-4.34-4.85-6.45c-0.81-1.05-1.63-2.11-2.44-3.13c-1.65-2.07-3.32-4.11-4.99-6.1c-0.83-0.98-1.67-1.99-2.51-2.95
				c-0.83-0.97-1.67-1.93-2.51-2.88c-0.84-0.95-1.69-1.88-2.55-2.83c-1.25-1.39-13.71-12.06-25.88-22.4
				c-12.15-10.35-24-20.34-24-20.34c-1.32-1.04-2.64-2.07-3.92-3.16c-37.88-31.73-66.63-89.29-171.82-80.52
				c-49.01,4.11-81.08,24.01-103.97,50.81c-1.72-0.9-3.6-1.39-5.59-1.39c-8.14,0-14.73,8.32-14.73,18.56c0,3.22,0.65,6.24,1.79,8.88
				c-16.82,28.2-28.07,60.56-39.45,88.83c-15.1,37.32-69.11,43.19-88.58,86.51c-17.72,20.37-26.98,52.63-31.64,76.05
				c-3.34,16.81-4.31,29.04-4.31,29.04c-0.12,2.83-0.19,5.64-0.19,8.46c0,0.98,0.02,1.99,0.04,2.99c0.02,1.04,0.04,2.04,0.07,3.06
				c0.02,0.63,0.04,1.27,0.07,1.88c0.02,0.33,0.02,0.63,0.04,0.95c0.07,1.37,0.14,2.74,0.25,4.1c0,0.07,0.02,0.14,0.02,0.19
				c0.11,1.65,0.25,3.29,0.42,4.94c0.07,0.84,0.16,1.69,0.26,2.55c0.11,0.97,0.21,1.92,0.33,2.87c0.09,0.65,0.18,1.3,0.26,1.93
				c0.09,0.65,0.18,1.28,0.28,1.93c0.09,0.63,0.19,1.28,0.3,1.92c0.11,0.65,0.19,1.28,0.32,1.92c0.11,0.6,0.19,1.18,0.3,1.78
				c0.02,0.11,0.05,0.19,0.07,0.3c0.18,0.98,0.37,1.95,0.56,2.94c0,0.02,0,0.04,0,0.04c0.16,0.83,0.33,1.65,0.51,2.46
				c0.18,0.84,0.35,1.67,0.55,2.51c0.19,0.83,0.39,1.65,0.58,2.48c0.42,1.65,0.83,3.3,1.28,4.94c3.55,13.11,8.49,25.74,14.61,37.83
				c0.39,0.76,0.77,1.51,1.16,2.27c0.37,0.7,0.74,1.41,1.11,2.09c0.3,0.53,0.58,1.05,0.86,1.56
				c50.19,22.91,138.93,55.62,253.82,57.73c127.54,2.34,225.64-34.16,277.3-57.73c0.23-0.58,0.44-1.2,0.67-1.79
				c0.26-0.74,0.51-1.48,0.77-2.22c0.23-0.69,0.46-1.39,0.69-2.07c0.12-0.4,0.25-0.79,0.37-1.2c0.26-0.84,0.53-1.67,0.77-2.51
				c0.04-0.09,0.05-0.19,0.09-0.28c0.23-0.81,0.47-1.6,0.69-2.41c0.26-0.97,0.51-1.92,0.76-2.87c0.25-0.98,0.49-1.95,0.7-2.92
				c0.25-0.97,0.46-1.93,0.65-2.92c0.16-0.7,0.3-1.41,0.44-2.11c0.02-0.12,0.05-0.26,0.07-0.4c0.07-0.26,0.12-0.54,0.18-0.81
				c0.14-0.83,0.3-1.67,0.44-2.5c0.02-0.07,0.02-0.14,0.04-0.21c0.16-0.95,0.32-1.92,0.46-2.87c8.46-41.95,20.09-66.36,20.09-129.02
				v-0.07C793.57,520.4,758.59,441.89,758.59,441.89z"/>
		</defs>
		<clipPath id="SVGID_00000076601619677570897250000014944716510453713804_">
			<use xlink:href="#SVGID_1_"  style="overflow:visible;"/>
		</clipPath>
		<g style="clip-path:url(#SVGID_00000076601619677570897250000014944716510453713804_);">
			<path class="st1" d="M791.57,562.01c0,62.67-11.64,87.07-20.09,129.02c-0.14,0.96-0.3,1.91-0.46,2.87
				c-0.01,0.06-0.02,0.13-0.03,0.2c-0.14,0.84-0.3,1.67-0.45,2.5c-0.05,0.28-0.1,0.55-0.16,0.81c-0.03,0.13-0.05,0.28-0.08,0.41
				c-0.13,0.7-0.28,1.41-0.43,2.11c-0.2,0.98-0.42,1.96-0.65,2.92c-0.22,0.97-0.46,1.93-0.7,2.9c-0.24,0.96-0.5,1.91-0.76,2.87
				c-0.21,0.8-0.45,1.6-0.68,2.4c-0.03,0.1-0.06,0.19-0.09,0.3c-0.24,0.84-0.5,1.67-0.76,2.51c-0.12,0.4-0.25,0.79-0.38,1.19
				c-0.22,0.69-0.46,1.39-0.69,2.08c-0.25,0.74-0.51,1.48-0.77,2.21c-0.21,0.6-0.43,1.21-0.66,1.8
				c-51.66,23.57-149.76,60.07-277.29,57.73c-114.88-2.1-203.63-34.82-253.82-57.73c-0.29-0.52-0.57-1.04-0.86-1.57
				c-0.38-0.69-0.74-1.4-1.11-2.1c-0.4-0.75-0.78-1.51-1.16-2.26c-6.12-12.09-11.06-24.72-14.61-37.83
				c-0.45-1.64-0.87-3.29-1.27-4.94c-0.19-0.82-0.39-1.66-0.58-2.49c-0.19-0.84-0.38-1.67-0.55-2.51c-0.17-0.81-0.35-1.64-0.51-2.46
				c0-0.01-0.01-0.03-0.01-0.04c-0.19-0.98-0.38-1.96-0.56-2.94c-0.02-0.1-0.04-0.19-0.06-0.3c-0.1-0.59-0.2-1.18-0.31-1.77
				c-0.11-0.63-0.21-1.27-0.32-1.91s-0.2-1.28-0.3-1.91c-0.1-0.65-0.19-1.29-0.27-1.94c-0.09-0.64-0.18-1.28-0.26-1.94
				c-0.12-0.95-0.23-1.9-0.35-2.87c-0.09-0.85-0.18-1.69-0.26-2.55c-0.16-1.64-0.31-3.28-0.42-4.93c0-0.06-0.01-0.13-0.01-0.19
				c-0.1-1.36-0.18-2.73-0.24-4.09c-0.02-0.32-0.03-0.63-0.04-0.96c-0.03-0.62-0.05-1.24-0.07-1.87c-0.03-1.02-0.05-2.04-0.07-3.07
				c-0.02-1-0.03-2-0.03-2.99c0-2.8,0.06-5.62,0.19-8.45c24.34-18.26,30.45,4.6,52.64-12.26c16.43-14.17,44.72-22.33,44.72-22.33
				c-17.64-14.03-54.46-32.5-86.99,4.28c27.9-55.83,35.22-17.98,66.13-37.53c9.17-10.38,14.17-11.97,31.46-9.03
				c36.34,7.84,21.01-42.71,52.73-37.79c0,0-6.48-7.62-23.76-7.74c-17.29-0.11-20.31,17-39.57,12.1
				c-12.48-3.18-29.76-2.5-46.85,1.26c-4.91,1.07-9.81,2.4-14.57,3.97c19.48-43.31,73.48-49.19,88.59-86.52
				c11.38-28.27,22.63-60.64,39.46-88.83c-0.01-0.01,0-0.01,0-0.01c5.51-9.23,11.62-18.01,18.53-26.04
				c22.89-26.8,54.96-46.7,103.97-50.8c105.2-8.78,133.93,48.77,171.81,80.51c1.29,1.09,2.61,2.14,3.93,3.17
				c-2.87,5.82-4.54,12.69-4.54,20.06c0,21.01,13.51,38.05,30.18,38.05c9.93,0,18.74-6.04,24.24-15.37
				c0.85,0.94,1.69,1.87,2.54,2.83c0.85,0.95,1.69,1.91,2.53,2.88c0.85,0.97,1.68,1.96,2.52,2.95c1.67,1.99,3.33,4.02,4.98,6.09
				c0.81,1.03,1.64,2.08,2.45,3.14c1.63,2.11,3.25,4.26,4.85,6.45c0.6,0.82,1.19,1.65,1.78,2.49c0.6,0.84,1.19,1.67,1.77,2.52
				c0.52,0.74,1.04,1.5,1.56,2.25c0.65,0.96,1.29,1.91,1.94,2.88c1.54,2.3,3.04,4.65,4.53,7.04c0.74,1.19,1.49,2.4,2.21,3.62
				c0.73,1.21,1.46,2.43,2.17,3.67c0.72,1.22,1.43,2.46,2.13,3.72c-0.2,0.05-0.4,0.1-0.6,0.16c-16.48,4.75-23.47,24.08-31.96,32.96
				c-8.46,8.89-24.49,11.75-24.49,11.75s10.61,16.85,33.44,18.98c10.72,1.01,19.93-3,27.84-7.86c-6.15,11.17-4.49,18.87-12.9,28.88
				c-9.83,11.69-24.47,15.77-37.03,36.08c-12.57,20.33-10.09,41.89-10.09,41.89c3.46-3.52,8.43-8.22,14.86-13.23
				c5.63-4.41,16.61-12.86,31.2-18.69c12.66-5.05,22.84-6.05,26.14-6.54c5-0.72,10.63-2.66,16.56-5.56
				C791.56,561.14,791.57,561.58,791.57,562.01z"/>
			<path class="st2" d="M720.65,389.37c-5.5,9.32-14.32,15.36-24.24,15.36c-16.67,0-30.18-17.04-30.18-38.05
				c0-7.37,1.66-14.24,4.54-20.06C670.77,346.63,718.17,386.62,720.65,389.37z"/>
			<path class="st2" d="M369.24,505.55c-31.72-4.92-16.39,45.64-52.73,37.8c-17.29-2.93-22.29-1.35-31.46,9.03
				c-30.91,19.56-38.24-18.3-66.13,37.53c32.52-36.77,69.34-18.3,86.98-4.27c0,0-28.3,8.16-44.72,22.33
				c-22.2,16.87-28.31-6-52.65,12.26c0,0,0.96-12.24,4.3-29.05c4.66-23.4,13.92-55.66,31.65-76.04c4.76-1.57,9.66-2.9,14.57-3.98
				c17.09-3.76,34.38-4.44,46.85-1.26c19.26,4.9,22.28-12.21,39.57-12.1C362.76,497.94,369.24,505.55,369.24,505.55z"/>
			<path class="st2" d="M791.57,562.01c0-0.43-0.01-0.87-0.02-1.3c-5.92,2.91-11.55,4.83-16.56,5.57
				c-3.3,0.48-13.49,1.49-26.14,6.53c-14.59,5.83-25.57,14.28-31.2,18.69c-6.43,5.01-11.4,9.71-14.86,13.23
				c0,0-2.48-21.56,10.09-41.88c12.56-20.32,27.21-24.39,37.03-36.09c8.41-10,6.75-17.71,12.9-28.88
				c-7.91,4.87-17.12,8.87-27.85,7.87c-22.82-2.15-33.43-18.98-33.43-18.98s16.03-2.87,24.5-11.75
				c8.49-8.88,15.48-28.21,31.96-32.96c0.2-0.06,0.4-0.12,0.6-0.16C758.59,441.89,793.61,520.49,791.57,562.01z"/>
			<ellipse class="st3" cx="407.88" cy="569.35" rx="40.75" ry="51.36"/>
			<ellipse class="st3" cx="663.57" cy="488.51" rx="14.8" ry="18.65"/>
			<path class="st3" d="M348.6,441.34c0,1.54-0.99,2.79-2.21,2.79s-2.21-1.25-2.21-2.79c0-1.54,0.99-2.79,2.21-2.79
				S348.6,439.8,348.6,441.34z"/>
			<path class="st3" d="M367.19,446.62c0,1.54-0.99,2.79-2.21,2.79c-1.22,0-2.21-1.25-2.21-2.79s0.99-2.79,2.21-2.79
				C366.2,443.83,367.19,445.08,367.19,446.62z"/>
			<path class="st3" d="M429.3,363.26c0,1.54-0.99,2.79-2.21,2.79s-2.21-1.25-2.21-2.79c0-1.54,0.99-2.79,2.21-2.79
				S429.3,361.72,429.3,363.26z"/>
			<path class="st3" d="M719.09,610.68c0,1.54-0.99,2.79-2.21,2.79s-2.21-1.25-2.21-2.79s0.99-2.79,2.21-2.79
				S719.09,609.14,719.09,610.68z"/>
			<path class="st3" d="M726.63,603.12c0,1.54-0.99,2.79-2.21,2.79c-1.22,0-2.21-1.25-2.21-2.79s0.99-2.79,2.21-2.79
				C725.64,600.33,726.63,601.58,726.63,603.12z"/>
			<ellipse class="st3" cx="359.19" cy="432.29" rx="3.57" ry="4.49"/>
			<path class="st4" d="M355.63,597.88c0,3.22-2.07,5.82-4.62,5.82c-2.55,0-4.62-2.61-4.62-5.82c0-3.22,2.07-5.82,4.62-5.82
				C353.56,592.06,355.63,594.67,355.63,597.88z"/>
			<path class="st4" d="M616.77,349.56c0,3.22-2.07,5.82-4.62,5.82c-2.55,0-4.62-2.61-4.62-5.82c0-3.22,2.07-5.82,4.62-5.82
				C614.7,343.74,616.77,346.34,616.77,349.56z"/>
			<ellipse class="st4" cx="385.46" cy="330.93" rx="14.73" ry="18.57"/>
			<ellipse class="st4" cx="264.64" cy="662.26" rx="30.18" ry="38.04"/>
		</g>
		<g style="clip-path:url(#SVGID_00000076601619677570897250000014944716510453713804_);">
			<g>
				<g>
					<g>
						<g>
							<g>
								<g>
									<path class="st5" d="M521.12,961.02c-38.24-0.14-71.13-14.1-89.87-21.75c-12.27-5.01-9.81-19.3-7.44-28.29
										c10.21-42.88,18.76-94.49,24.88-122.46c8.4-58.08,0.62-139.65-3.82-166.39c-8.16-28.07-16.61-33.4-11.9-44.2
										c12.36-26.56,75.29-28.76,87.28-29.48c-0.16,0.05-0.33,0.12-0.49,0.16c0.93-0.11,1.9-0.11,2.83,0
										c-0.16-0.04-0.32-0.11-0.47-0.16c11.6,0.6,75.29,3.01,87.28,29.48c0,0,0.02,0.02,0.02,0.04
										c5.57,13.18-7.88,19.99-16.56,52.67c-2.5,9.91-3.52,27.23-3.57,47.22c-0.02,11.41,0.28,23.68,0.79,35.92
										c0.26,6.33,0.6,12.66,0.97,18.86c1.69,28.09,4.34,53.51,6.73,64.78c-1.44,1.49,16.91,84.1,22.38,122.86
										C627.34,946.12,548.62,960.29,521.12,961.02z"/>
									<path class="st6" d="M523.77,548.38v0.16c-0.55-0.03-1.1-0.06-1.65-0.07c0.16,0.06,0.31,0.11,0.48,0.16
										c-0.47-0.06-0.93-0.1-1.41-0.14c-0.49,0.04-0.96,0.08-1.43,0.14c0.17-0.04,0.34-0.1,0.49-0.16
										c0.2-0.01,0.41-0.01,0.61-0.01c0.11-0.01,0.21-0.01,0.32-0.01c0.16-0.01,0.31-0.01,0.47,0c0.1,0,0.2-0.01,0.3-0.01h0.01
										C522.57,548.4,523.17,548.38,523.77,548.38z"/>
									<path class="st6" d="M523.77,548.3c-0.65,0.04-1.24,0.08-1.81,0.13h-0.01c-0.1,0-0.2,0.01-0.3,0.01
										c-0.06,0.01-0.1,0.01-0.14,0.01c-0.11,0.01-0.23,0.01-0.32,0.03c-0.49,0.04-0.96,0.08-1.43,0.14
										c0.17-0.04,0.34-0.1,0.49-0.16c0.04-0.01,0.1-0.03,0.14-0.04l0.01-0.01c0.27-0.08,0.52-0.17,0.78-0.27
										c0.01,0,0.03-0.01,0.04-0.01C522.17,548.2,523.01,548.26,523.77,548.3z"/>
								</g>
								<path class="st5" d="M486.07,631.46c-18.14,41.45-44.98,122.74-50.03,169.1c-8.29,1.02-21.61-0.31-30-2.55
									c-9.28-47.02-11.13-199.41,38.48-230.46c4.25-2.66,10.69-5.22,14.34-6.81C474.31,565.6,482.82,585.64,486.07,631.46z"/>
								<path class="st7" d="M459.38,640.06c0.17-1.77,0.31-3.49,0.44-5.14c-0.72,23.81-1.23,100.83-7.76,121.77
									c0.89-7.36-0.21-22.31,0.21-29.56c-2.3,7.19-3,11.11-5.13,18.49C447.38,737.14,458.1,654.63,459.38,640.06z"/>
								<g>
									<path class="st6" d="M518.61,961c0.83,0.01,1.67,0.03,2.51,0.03c-0.83,0.01-1.68,0.01-2.51,0.01V961z"/>
									<path class="st6" d="M522.6,548.62c-0.47-0.06-0.93-0.1-1.41-0.14c-0.49,0.04-0.96,0.08-1.43,0.14
										c0.17-0.04,0.34-0.1,0.49-0.16c-0.55,0.01-1.1,0.04-1.65,0.07v-0.16c0.59,0,1.2,0.01,1.79,0.04c0.01,0,0.01,0,0.03,0
										c0.1,0,0.2,0.01,0.3,0.01c0.16-0.01,0.31-0.01,0.47,0c0.11,0,0.21,0,0.32,0.01c0.2,0,0.4,0,0.59,0.01c0,0,0,0,0.01,0
										C522.28,548.52,522.43,548.58,522.6,548.62z"/>
									<path class="st6" d="M522.6,548.62c-0.47-0.06-0.93-0.1-1.41-0.14c-0.11-0.01-0.21-0.01-0.32-0.03c-0.06,0-0.1,0-0.14-0.01
										c-0.1,0-0.2-0.01-0.3-0.01c0,0,0,0-0.01-0.01c-0.56-0.03-1.17-0.07-1.82-0.11c0.76-0.04,1.61-0.1,2.56-0.17
										c0.01,0,0.03,0.01,0.04,0.01c0.24,0.1,0.49,0.18,0.76,0.28h0.01c0.04,0.01,0.08,0.03,0.14,0.04c0,0,0,0,0.01,0
										C522.28,548.52,522.43,548.58,522.6,548.62z"/>
								</g>
								<path class="st5" d="M636.34,798.01c-4.18,1.13-9.62,2.02-15.03,2.5c-5.64,0.51-10.69,0.39-14.96,0.05
									c-0.79-14.87-2.88-35.53-8.6-59.63c-0.25-1.05-0.56-2.36-0.95-3.92c-1.28-5.01-3.36-12.71-6.72-23.22
									c-0.33-1-0.67-2.04-1.02-3.09c-0.53-1.62-1.09-3.3-1.69-5.03c-6.47-19.14-16.24-44.51-31.06-74.2
									c3.24-45.81,11.74-65.85,27.21-70.71c3.64,1.58,10.07,4.13,14.33,6.8c4.2,2.64,8.05,6.14,11.55,10.39
									c0,0,0.02,0.02,0.02,0.04C647.1,623.76,644.83,754.99,636.34,798.01z"/>
								<path class="st7" d="M590.09,713.78c0.26,6.33,0.6,12.66,0.97,18.86c-3.5-15.73-3.16-18.53-3.67-26.98
									c-0.09-1.78-0.23-3.8-0.46-6.26c-1.32-14.77,0.95-30.75,0.84-44.42c0.14,1.65,0.28,3.38,0.44,5.15
									c0.49,5.03,0.72,11.15,1.09,17.74c0.42,7.37,1.04,15.31,2.43,22.92c3.18,17.25,4.68,33,5.08,36.21
									C595.52,732,593.44,724.3,590.09,713.78z"/>
							</g>
							<g>
								<polygon class="st7" points="493.11,557.63 495.51,546.75 505.69,538.94 548.61,538.94 557.1,547.12 557.1,557.39 								
									"/>
								<path class="st8" d="M540.25,548.21c-3.06,0.17-5.41,0.38-8.57,0.93c-1.7-0.3-3.16-0.49-4.62-0.64
									c3.26-0.37,6.06-0.47,8.22-0.47C536.99,548.04,538.64,548.1,540.25,548.21z"/>
								<g>
									<path class="st6" d="M526.27,548.44c-1.57-0.14-3.18-0.23-5.13-0.32c0.99-0.04,2.06-0.1,3.26-0.17
										C524.97,548.11,525.59,548.28,526.27,548.44z"/>
								</g>
								<path class="st9" d="M558.57,554.65c-15.49,19.62-27.4,39.67-32.74,60.51c-6.1-25.63-17.88-44.42-32.72-59.43
									c0,0,8.6-10.18,12.43-16.55c0.41-0.66,0.76-1.29,1.05-1.85c1.13-2.25,1.68-6.29,1.92-10.45c0.42-6.91,0-14.15,0-14.15
									l44.93,1.5c0,0-0.4,5.38-1.07,13.59c-0.18,2.26-0.41,4.75-0.64,7.39c-0.16,1.71-0.13,3.33,0.04,4.84
									C552.72,549.28,558.57,554.65,558.57,554.65z"/>
								<path class="st10" d="M551.72,535.19c-0.09,1.07-0.11,1.7-0.1,2.5c0.02,2.57,0.45,4.66,0.82,6.05
									c-3.44,3.04-6.78,4.68-9.42,5.61c-17.95,6.32-35.81-8.73-37.48-10.18c0.16-0.26,0.36-0.58,0.57-0.96
									c0.18-0.31,0.33-0.61,0.48-0.89c1.13-2.25,1.68-6.29,1.92-10.45c0.42-6.91,0-14.15,0-14.15l44.93,1.5
									c0,0-0.4,5.38-1.07,13.59C552.17,530.06,551.95,532.55,551.72,535.19z"/>
								<path class="st5" d="M505.69,538.94c0,0-7.56,6.1-6.11,14.6c1.44,8.5,16.85,20.54,16.85,20.54l-6.9,26.63
									c0,0-30-26.63-14.01-53.96L505.69,538.94z"/>
								<path class="st5" d="M516.42,574.08c0,0,15.75,40.27,9.64,91.29h-4.5c0,0,1.94-65.31-8.34-78.94L516.42,574.08z"/>
								<path class="st5" d="M552.1,542.3c0,0,3.63,3.01,2.63,11.24c-1.05,8.56-16.85,20.54-16.85,20.54l6.9,26.63
									c0,0,28.44-26.63,14.85-52.72c-0.41-0.79-1.1-1.41-1.85-1.91L552.1,542.3z"/>
								<g>
									<path class="st7" d="M522.75,665.37c1.78-0.08,3.56-0.15,5.34-0.2l-0.2,0.19c0.02-6.73,0.37-13.44,0.75-20.15
										c0.96-13.42,2.32-26.85,5.27-40c1.15-4.92,2.43-9.86,4.56-14.46c0.7-1.53,1.55-3.02,2.61-4.32
										c-1.81,2.84-2.83,6.06-3.71,9.27c-4.13,16.23-5.49,33.02-7.24,49.63c-0.7,6.74-1.25,13.49-1.85,20.24
										C526.43,665.53,524.59,665.44,522.75,665.37L522.75,665.37z"/>
								</g>
							</g>
						</g>
						<g>
							<path class="st10" d="M518.66,516.55c2.26,0.85,9.6,3.29,14.49,1c0.13-0.06,0.25,0.11,0.15,0.21
								c-1.61,1.61-7.01,5.75-14.77-0.99C518.41,516.68,518.52,516.5,518.66,516.55z"/>
						</g>
					</g>
				</g>
			</g>
			<g>
				<g>
					<g>
						<g>
							<path class="st12" d="M476.76,507.35c1.26,2.12,3.56,5.37,7.38,8.23c5.1,3.82,10.23,4.97,12.88,5.38
								c-2.47-2.07-5.17-4.58-7.9-7.6c-3.32-3.69-5.92-7.28-7.93-10.45C479.72,504.39,478.24,505.87,476.76,507.35z"/>
							<g>
								<path class="st9" d="M527.87,540.31c3.09,0.81,9.14,1.91,15.75-0.4c4.55-1.59,8.95-4.72,13.88-11.43
									c11.18-15.22,13.16-32.69,14.63-47.12c0.45-4.37,1.42-15.65,0.2-30.32c-1.46-17.6-3.4-24.96-4.96-31.94
									c-0.38-1.69-4.66-10.98-6.08-12.02c-19.27-14-64.05,7.34-64.05,7.39c0,0,0.13,0,0.28-0.01c-3.74,1.67-15.71-0.25-20.08,2.71
									c-5.3,3.58-3.05,12.38-7.94,18.43C439.85,466.5,490.59,531.73,527.87,540.31z"/>
							</g>
							<g>
								<path class="st12" d="M479.23,494.46c-4.65-3.51-9.32-7.05-14-10.63c-3.21-2.45-6.41-4.91-9.59-7.36
									c-4.78-3.68-8.61-8.52-10.73-14.16c-0.18-0.49-0.36-0.98-0.52-1.5c-1.65-5.11-1.59-9.22-1.52-14.36
									c0.11-7.88,1.59-13.7,2.49-17.14c1.98-7.58,4.19-11.42,5.26-13.13c3.43-5.5,6.03-6.58,7.44-6.97
									c2.3-0.63,4.37-0.2,5.63,0.18c0.43-3.3,1.69-9.57,6.16-15.81c5.22-7.29,11.85-10.42,14.35-11.57
									c7.62-3.49,17.27-2.71,36.56-1.17c9.07,0.73,13.5,1.49,18.5,3.49c9.18,3.67,13.24,8.7,14.32,10.1
									c1.43,1.87,2.38,3.6,2.98,4.85c2.5,1.05,6.54,3.12,10.23,7.09c5.01,5.39,6.54,11.23,7.36,14.49
									c0.74,2.96,1.26,6.49,0.13,21.41c-0.34,4.49-0.87,10.5-1.7,17.61c0.23-10.06-2.02-17-4.18-21.53
									c-1.67-3.51-3.02-5-6.27-11.86c-2.84-5.99-4.29-10.09-5.16-12.8c-0.94-2.93-1.59-5.45-2.02-7.32
									c-2.23,1.73-5.77,4.21-10.49,6.38c-8.98,4.13-16.86,4.69-39.63,5.05c-9.05,0.14-17.02,0.2-23.62,0.22
									c2.11,3.58,7.79,14.3,6.41,28.8c-1.47,15.38-9.97,25.19-12.73,28.14C476.34,481.48,477.79,487.97,479.23,494.46z"/>
								<path class="st13" d="M536.03,395.5c-1.83,0.39-3.85,0.72-6.04,0.94c-4.24,0.42-8.04,0.3-11.21-0.02
									c2.15,1.93,5.28,4.29,9.44,6.16c2.26,1.02,4.38,1.7,6.22,2.15c-5.49,1.81-12.69,3.62-21.27,4.34
									c-7.34,0.61-13.78,0.27-18.96-0.36c5.74,2.06,17.29,5.34,31.75,3.36c12.42-1.7,21.55-6.52,26.55-9.65
									c-4.03,0.14-8.89-0.03-14.3-0.95c-3.34-0.57-6.36-1.32-9.01-2.14c1.75,0.09,4.86,0.01,8.37-1.39
									c3.11-1.23,5.24-2.99,6.46-4.16C541.36,394.36,538.69,394.93,536.03,395.5z"/>
								<path class="st13" d="M482.32,439.56c-0.23,3.02-0.78,7.61-2.18,12.73c-2.11,7.69-5.01,12.36-6.51,14.5
									c0.92-0.55,4.03-2.66,6.41-8.72C483.34,449.65,482.45,440.69,482.32,439.56z"/>
								<path class="st13" d="M469.2,445.23c-0.41,2.82-1.21,6.43-2.8,10.4c-1.82,4.54-4.09,8.04-5.96,10.51
									c1.42-0.66,5.31-2.71,7.76-7.27C471.6,452.54,469.56,446.3,469.2,445.23z"/>
								<path class="st13" d="M564.26,420.19c0.17,1.17,0.54,3.1,1.43,5.34c1.3,3.29,2.6,4.49,3.91,7.75
									c0.51,1.26,1.18,3.23,1.56,5.87c-0.71-3.45-1.43-6.75-2.2-10.29c-0.39-1.78-0.83-3.71-2.21-5.82
									C565.88,421.72,564.94,420.78,564.26,420.19z"/>
							</g>
							<path class="st9" d="M481.64,503.93c-0.79,1.64-2.54,2.56-3.49,3.06c-3.43,1.8-6.88,1.03-7.81,0.82
								c-3.22-0.72-6.27-4.1-12.24-10.81c-1.71-1.92-3.51-4.31-7.1-9.09c-2.22-2.95-3.39-4.61-3.45-7
								c-0.01-0.36-0.05-4.11,2.24-5.58c2.51-1.6,6.32,0.49,11.16,3.22c3.38,1.91,7.27,4.15,11.73,8.74
								C476,490.71,484.02,498.96,481.64,503.93z"/>
						</g>
					</g>
					<g>
						<path class="st2" d="M508.29,483.68c2-0.51,4.09-0.73,6.09-1.01c1.52-0.13,3.06-0.24,4.61-0.25
							c7.91-3.9,7.84-13.25,7.84-13.25c-0.49-0.03-2.03,0.16-4.15,0.47c-4.14,0.59-10.47,1.66-15.39,2.52
							c-4.14,0.71-7.3,1.27-7.3,1.27S500.77,481.77,508.29,483.68z"/>
						<path class="st14" d="M515.81,479.69c0.4-0.03,0.8-0.1,1.18-0.18c0.07-0.02,0.13-0.04,0.19-0.04
							c0.03-0.01,0.06-0.02,0.08-0.03c0.11-0.03,0.22-0.06,0.31-0.1c0.08-0.03,0.16-0.04,0.23-0.07c3.28-1.18,5.48-4.43,5.17-8.07
							c-0.05-0.54-0.14-1.06-0.28-1.56c-4.14,0.59-10.47,1.66-15.39,2.52c0,0.03,0,0.05,0,0.08c0,0.08,0.01,0.18,0.01,0.28
							c0,0.06,0,0.12,0.02,0.17C507.78,476.93,511.53,480.06,515.81,479.69z"/>
					</g>
					<g>
						<path class="st2" d="M551.22,477.87c1.71-0.19,3.46-0.16,5.14-0.16c1.23,0.06,2.45,0.13,3.68,0.28
							c0.01-0.02,0.01-0.02,0.02-0.01c7.48-2.35,8.51-10.59,8.51-10.59c-0.5-0.09-2.35-0.1-4.82-0.05
							c-3.96,0.06-9.49,0.27-13.52,0.43c-3.04,0.12-5.23,0.22-5.23,0.22S544.68,475.47,551.22,477.87z"/>
						<path class="st14" d="M557.92,474.88c0.35-0.05,0.68-0.14,1.01-0.24c0.07-0.01,0.12-0.03,0.16-0.05
							c0.03-0.01,0.05-0.02,0.09-0.02l0.44-0.18c2.72-1.15,4.45-3.99,4.12-7.05c-3.96,0.06-9.49,0.27-13.52,0.43
							c-0.04,0.04-0.07,0.05-0.1,0.08c-0.01,0.34-0.01,0.65,0.04,0.98c0,0.09,0.01,0.16,0.03,0.25c0,0.05,0.01,0.11,0.03,0.15
							C550.81,472.88,554.23,475.39,557.92,474.88z"/>
					</g>
					<g>
						<g>
							<path d="M544.54,510.49c5.86,1.98,12.03,1.63,16.87-0.99c-2.65,0.56-5.42,0.56-8.09,0.03c-2.68-0.52-5.26-1.57-7.58-3.01
								c-1.07-0.66-2.33-0.37-2.81,0.66C542.33,508.38,543.17,510.08,544.54,510.49L544.54,510.49z"/>
						</g>
						<g>
							<path d="M536.18,507.02c-4.78,3.74-11.61,6.83-17.77,6.14c6.25,2.36,13.97,0.74,20.22-2
								C541.87,509.6,539.13,504.94,536.18,507.02L536.18,507.02z"/>
						</g>
					</g>
					<path class="st10" d="M537.04,465.91c1.93,5.83,4.42,11.47,7.33,16.87c1.8,3.42,4.52,6.85,3.76,10.85
						c-0.67,3.79-3.97,6.99-7.87,7.36c-1.96,0.24-4.01-0.16-5.86-0.99c1.72,1.12,3.8,1.7,5.91,1.68c6.93-0.14,11.51-8.08,8.25-14.17
						C544.58,480.32,540.54,473.36,537.04,465.91L537.04,465.91z"/>
					<g>
						<path class="st15" d="M526.88,515.99c2.06,2.77,4.34,3.97,5.56,4.49c6.86,2.92,13.87-1.41,14.2-1.62
							c1.78-1.14,5.02-3.78,5.02-3.78l0,0c-2.13,1.23-6.86,3.57-13.28,3.57C533.09,518.64,529.03,517.03,526.88,515.99z"/>
					</g>
					<g>
						<path class="st10" d="M536.71,524.86c-0.09,0.03-0.17,0.1-0.23,0.21c-0.13,0.26-0.05,0.66,0.18,0.88
							c0.1,0.1,2.49,2.37,6.02-0.05c0.21-0.15,0.26-0.52,0.11-0.83c-0.15-0.31-0.44-0.45-0.66-0.3c-3.05,2.09-4.98,0.25-5,0.23
							C536.99,524.86,536.84,524.82,536.71,524.86z"/>
					</g>
					<path class="st16" d="M541.09,443.15l-0.78,6.78c0,0,17.43-0.72,29.54,8.3C569.84,458.23,562.57,444.32,541.09,443.15z"/>
					<path class="st16" d="M525.21,445.97l1.52,6.82c0,0-18.14,1.38-29.74,12.05C496.99,464.84,503.08,449.77,525.21,445.97z"/>
				</g>
				<path class="st14" d="M519.62,483.15c-3.7-1.88-8.44-1.08-11.87,1.06C511.77,483.72,515.53,482.98,519.62,483.15L519.62,483.15z
					"/>
				<path class="st14" d="M561.03,478.42c-3.59-2.09-8.37-1.56-11.91,0.39C553.16,478.54,556.95,478.02,561.03,478.42L561.03,478.42
					z"/>
			</g>
			<circle class="st7" cx="523.39" cy="659.65" r="2.14"/>
			<circle class="st7" cx="523.67" cy="644.2" r="2.14"/>
			<circle class="st7" cx="523.39" cy="628.49" r="2.14"/>
			<circle class="st7" cx="517.37" cy="592.86" r="2.14"/>
			<circle class="st7" cx="521.25" cy="610.31" r="2.14"/>
			<g>
				<path class="st7" d="M499.58,553.54c1.13,4.38,4.27,7.86,7.28,11.09c3.19,3.32,6.66,6.4,10.29,9.19
					c-1.86,7.94-4.76,19.09-6.78,27.11c0,0-0.36,1.4-0.36,1.4l-1.06-0.97c-10.83-10.38-19.85-24.88-18.44-40.4
					c0.51-5.08,2.33-9.96,5.01-14.21c-2.31,4.46-3.91,9.31-4.12,14.28c-0.67,10.01,3.5,19.63,9.06,27.74
					c2.81,4.08,6.08,7.92,9.65,11.29l-1.42,0.43c2.06-7.87,4.96-18.86,7.12-26.58c0,0,0.23,0.67,0.23,0.67
					c-3.49-2.91-6.78-6-9.77-9.41C503.42,561.75,500.36,558.03,499.58,553.54L499.58,553.54z"/>
			</g>
			<g>
				<path class="st7" d="M554.73,553.54c-1.25,8.06-10.43,15.97-16.45,21.06c0,0,0.24-0.68,0.24-0.68
					c2.06,7.41,5.15,19.05,7.11,26.58c0,0-1.44-0.42-1.44-0.42c11.86-12.05,22.34-29.55,17.39-46.96c-0.25-0.85-0.6-1.75-0.87-2.6
					c-0.23-0.6-0.83-1.93-1.07-2.53c10.43,18.22-0.76,40.03-14.26,53.36c0,0-1.07,1.03-1.07,1.03l-0.37-1.45
					c-1.96-7.77-4.97-19.41-6.79-27.11c3.69-2.75,7.21-5.8,10.42-9.11C550.58,561.49,553.79,557.98,554.73,553.54L554.73,553.54z"/>
			</g>
		</g>
	</g>
	<g>
		<path class="st3" d="M750.72,287.26c-0.77-36.69-30.74-66.21-67.61-66.21c-22.42,0-42.28,10.91-54.59,27.71
			c-3.95-1.91-8.38-2.98-13.06-2.98c-16.62,0-30.09,13.47-30.09,30.09c0,0.82,0.04,1.64,0.11,2.44c-13.09,6.97-22,20.74-22,36.6
			c0,22.89,18.55,41.44,41.44,41.44c6.79,0,13.19-1.64,18.85-4.54c6.85,16.61,23.19,28.3,42.27,28.3c17.59,0,32.84-9.94,40.49-24.5
			c6.7,4.84,14.93,7.71,23.84,7.71c22.51,0,40.76-18.25,40.76-40.76C771.11,307.47,762.9,294.31,750.72,287.26z"/>
		<path class="st3" d="M642.18,359.26c0,11.52-9.34,20.85-20.85,20.85c-11.52,0-20.85-9.34-20.85-20.85
			c0-11.52,9.34-20.85,20.85-20.85C632.84,338.41,642.18,347.75,642.18,359.26z"/>
		<path class="st3" d="M613.6,389.18c0,7.25-5.88,13.13-13.13,13.13c-7.25,0-13.13-5.88-13.13-13.13c0-7.25,5.88-13.13,13.13-13.13
			C607.72,376.05,613.6,381.93,613.6,389.18z"/>
		<path class="st3" d="M607.04,414.2c0,3.63-2.94,6.57-6.57,6.57c-3.63,0-6.57-2.94-6.57-6.57c0-3.63,2.94-6.57,6.57-6.57
			C604.1,407.63,607.04,410.57,607.04,414.2z"/>
	</g>
</g>
</svg>
