<?xml version="1.0" encoding="utf-8"?>
<!-- Generator: Adobe Illustrator 16.0.0, SVG Export Plug-In . SVG Version: 6.00 Build 0)  -->
<!DOCTYPE svg PUBLIC "-//W3C//DTD SVG 1.1//EN" "http://www.w3.org/Graphics/SVG/1.1/DTD/svg11.dtd">
<svg version="1.1" id="Layer_1" xmlns="http://www.w3.org/2000/svg" xmlns:xlink="http://www.w3.org/1999/xlink" x="0px" y="0px"
	 width="712.465px" height="667.466px" viewBox="0 0 712.465 667.466" enable-background="new 0 0 712.465 667.466"
	 xml:space="preserve">
<g>
	<defs>
		<rect id="SVGID_1_" x="-169.107" y="-159.608" width="1000" height="1000"/>
	</defs>
	<clipPath id="SVGID_2_">
		<use xlink:href="#SVGID_1_"  overflow="visible"/>
	</clipPath>
	<path clip-path="url(#SVGID_2_)" fill="#E3F4FF" d="M213.493,98.182c-9.669,9.337-18.754,20.169-24.721,31.214
		c-12.541,23.21-13.573,56.345-9.8,81.684c2.605,17.511,13.956,41.82,8.382,59.538c-7.552,24.003-47.327,23.025-66.737,29.035
		c-17.838,5.524-34.754,19.111-43.853,35.652c-27.911,50.744,5.659,77.929,22.45,100.62c19.09,25.799-22.503,56.99,1.386,82.732
		c24.98,26.912,55.065,38.094,105.005,38.094c98.942,0,121.098,7.77,258.212-1.952c25.978-1.84,60.592-7.769,86.485-10.547
		c39.084-4.197,135.488-38.151,110.333-102.378c-18.612-47.519-116.345-40.209-83.592-105.165
		c21.421-42.485,61.698-101.452,11.613-138.988c-36.368-27.256-59.649-42.909-80.754-84.121
		c-23.107-45.12-55.533-69.565-106.582-73.861c-27.63-2.324-55.628-2.106-82.78,4.052C285.43,51.302,252.71,65.655,226.173,87
		C221.974,90.378,217.678,94.14,213.493,98.182"/>
	<path clip-path="url(#SVGID_2_)" fill="#99CCE0" d="M524.26,414.691c-3.824-28.893,45.828-31.432,41.108-4.148
		c10.917-18.211,41.533-0.329,33.073,20.302c8.937-1.622,16.062,5.668,19.394,13.349c4.116,9.48,1.086,16.28-5.262,23.979
		c8.561-0.103,17.586,7.4,18.146,16.23c0.813,12.771-1.217,16.591-8.076,23.394c9.445,0.931,12.343,12.449,12.073,20.983
		c-0.413,13.086-6.902,15.979-18.326,18.114c-13.445,2.515-24.608,2.635-38.229,0.981c-11.389-1.388-23.65-5.487-35.454-5.385
		c-19.313,0.166-38.528-2.204-57.611-4.907c-12.884-1.823-30.979-0.724-39.359-12.288c-6.794-9.384-9.205-21.32-4.705-32.076
		c2.452-5.864,15.075-21.958,22.416-11.632c-10.469-8.495-10.518-16.781-7.314-26.521c3.219-9.777,14.561-18.354,24.333-13.313
		c-6.536-12.654-0.781-26.18,10.835-34.271C491.301,407.483,512.111,393.616,524.26,414.691"/>
	<path clip-path="url(#SVGID_2_)" fill="#99CCE0" d="M222.476,444.929c-3.824-28.893,45.828-31.432,41.109-4.148
		c10.917-18.212,41.533-0.33,33.073,20.302c8.936-1.622,16.061,5.668,19.393,13.349c4.117,9.48,1.086,16.28-5.261,23.979
		c8.56-0.103,17.586,7.4,18.145,16.23c0.813,12.771-1.217,16.591-8.076,23.394c9.445,0.931,12.343,12.448,12.073,20.983
		c-0.413,13.086-6.902,15.979-18.326,18.114c-13.445,2.515-24.608,2.635-38.228,0.981c-11.389-1.388-23.651-5.487-35.455-5.385
		c-19.313,0.166-38.528-2.204-57.611-4.907c-12.884-1.823-30.979-0.724-39.359-12.288c-6.794-9.384-9.205-21.32-4.705-32.076
		c2.452-5.864,15.075-21.958,22.416-11.632c-10.469-8.495-10.518-16.781-7.315-26.521c3.219-9.778,14.561-18.354,24.333-13.313
		c-6.536-12.654-0.781-26.18,10.835-34.271C189.517,437.721,210.327,423.854,222.476,444.929"/>
	<path clip-path="url(#SVGID_2_)" fill="#99CCE0" d="M382.733,480.115c-17.561-19.512,10.244-46.316,29.222-30.781
		c-15.817-31.289,39.455-48.98,41.501-15.901c13.894-17.744,45.62-8.286,38.592,16.179c26.808-8.046,39.703,27.263,23.511,40.256
		c13.986,3.349,16.43,24.414,6.323,32.487c-9.133,7.291-31.789,5.573-43.722,5.574c-15.748,0.001-31.715-0.955-47.057-2.237
		c-17.412-1.455-44.736,3.898-59.183-8.889c-6.407-5.674-13.559-10.801-10.322-26.882
		C362.856,483.673,376.758,470.052,382.733,480.115"/>
	<path clip-path="url(#SVGID_2_)" fill="#99CCE0" d="M580.019,504.887c-9.445-10.493,5.51-24.913,15.718-16.557
		c-8.509-16.831,21.227-26.347,22.324-8.553c7.475-9.548,24.54-4.459,20.759,8.702c14.424-4.328,21.361,14.666,12.647,21.653
		c7.522,1.802,8.839,13.135,3.402,17.476c-4.912,3.923-17.099,2.998-23.519,2.999c-8.472,0.002-17.063-0.514-25.312-1.204
		c-9.368-0.783-24.066,2.098-31.838-4.781c-3.446-3.051-7.292-5.809-5.551-14.46C569.327,506.802,576.803,499.474,580.019,504.887"
		/>
	<path clip-path="url(#SVGID_2_)" fill="#BDDEEF" d="M676.486,548.088c0,31.409-140.331,56.867-313.434,56.867
		c-173.102,0-313.433-25.458-313.433-56.867c0-31.407,140.331-56.862,313.433-56.862
		C536.155,491.226,676.486,516.681,676.486,548.088"/>
	<path clip-path="url(#SVGID_2_)" fill="#5190B7" d="M514.097,418.963c6.595,24.751,5.648,74.519-20.275,100.901
		c-3.341,3.399-13.801,13.766-30.537,17.164c-14.58,2.962-26.16-1.687-32.571-3.01c-7.379-1.521-29.665-8.146-50.407-48.881
		c1.454-6.769,2.679-14.713,3.168-23.634c0.635-11.549-0.129-21.712-1.317-30.005l-27.343-13.737
		c-1.145-14.095-1.46-30.509,0.085-48.689c1.828-21.519,5.835-40.481,10.417-56.414c2.708-9.414,9.111-17.324,17.712-22.013
		c3.603-1.964,7.365-3.916,11.291-5.837c11.739-5.744,22.862-10.197,32.978-13.677c0.935-1.151,2.861-3.184,5.966-4.384
		c5.739-2.217,10.928,0.181,11.926,0.666c4.682,0.246,7.488,0.341,10.627,0.723c2.644,0.322,5.083,0.71,7.342,1.135
		c0,0,5.968,1.12,12.195,2.969c15.951,4.735,33.179,14.456,35.396,15.719c11.398,6.491,15.71,10.334,17.585,12.09
		c4.236,3.967,7.255,7.781,9.231,10.551c-10.277,12.75-23.169,32.738-26.802,58.978
		C508.299,387.366,506.857,391.793,514.097,418.963"/>
	<path clip-path="url(#SVGID_2_)" fill="#2D2A2A" d="M460.487,580.535c-0.158,1.278-0.154,2.573,0.012,3.85
		c2.797,21.425,36.698,16.221,43.167,0.963c5.077-11.121,1.469-21.456,4.687-31.858c0.175-0.567,0.021-8.147-0.246-9.148
		c-4.46-16.759-25.052-6.755-29.592-3.9C474.52,542.953,462.026,568.155,460.487,580.535"/>
	<path clip-path="url(#SVGID_2_)" fill="#565252" d="M461.154,576.171c-0.975,4.994,1.156,10.763,5.492,13.426
		c7.384,4.533,26.334,6.7,36.539-8.072c3.947-6.337,1.399-17.658,4.624-30.611c2.189-8.798-2.706-16.114-11.771-15.941
		c-7.859,0.149-15.113,3.953-17.523,5.467C474.943,542.687,463.756,562.816,461.154,576.171"/>
	<path clip-path="url(#SVGID_2_)" fill="#BC956B" d="M506.393,539.861c-1.04,2.505,1.476,6.871-1.947,19.213
		c-0.278,1.003-0.814,5.646-1.279,7.518c-1.821,7.323-2.23,10.16-2.795,12.707c-1.039,4.685-13.667,11.813-31.313,5.727
		c-0.926-0.32-6.593,0.351-3.734-9.515c2.966-10.241,9.618-30.568,14.612-34.321c0,0,3.088-4.566,4.557-8.926
		c1.47-4.36,1.981-8.83,1.981-8.83l22.997,4.679L506.393,539.861z"/>
	<path clip-path="url(#SVGID_2_)" fill="#987957" d="M483.947,533.715c1.868,1.068,6.737,3.521,13.3,3.097
		c5.693-0.369,9.758-2.716,11.567-3.918c0.715-3.355,1.43-6.709,2.145-10.063c-8.162,0.202-16.325,0.403-24.487,0.606
		c0,0-0.505,4.466-1.981,8.827C484.326,532.745,484.146,533.234,483.947,533.715"/>
	<path clip-path="url(#SVGID_2_)" fill="#353333" d="M461.816,573.301c3.803-0.554,6.681-3.656,15.488-2.07
		c8.317,1.352,18.419,5.089,25.547,14.63c0.966-2.434,1.975-5.539,2.624-9.215c0.674-3.757,0.804-7.085,0.723-9.746
		c0,0-0.219-0.259-0.654-0.697c-2.957-3.005-15.983-14.475-37.652-8.798c-1.07,2.472-2.162,3.833-3.171,6.638
		c-0.491,1.371-1.174,3.532-1.78,5.524C462.502,571.016,462.09,572.376,461.816,573.301"/>
	<path clip-path="url(#SVGID_2_)" fill="#474545" d="M462.94,569.567c3.095-0.984,6.303-2.967,13.711-1.643
		c6.798,1.104,14.788,3.804,21.373,9.968c2.096,1.963,5.564,0.956,6.235-1.836c0.209-0.867,0.401-1.773,0.57-2.717
		c0.458-2.614,0.666-5.019,0.714-7.137c-2.957-3.005-15.983-14.475-37.652-8.798c-1.07,2.472-2.162,3.833-3.171,6.638
		C464.229,565.414,463.546,567.575,462.94,569.567"/>
	<path clip-path="url(#SVGID_2_)" fill="#C6C6C6" d="M554.575,458.119c-10.466,32.331-25.457,59.21-40.11,74.438
		c-11.571-2.047-18.544-1.29-35.687-9.865c-0.146-1.028-0.353-2.529-0.57-4.343c0,0-0.523-4.257-0.869-8.14
		c-2.394-26.864,23.811-95.415,23.811-95.415c3.674-9.61,5.776-14.765,9.818-21.249c3.726-5.977,18.605-29.852,33.246-27.564
		c8.9,1.392,14.437,11.722,16.339,16.445C566.738,397.779,565.925,423.066,554.575,458.119"/>
	<path clip-path="url(#SVGID_2_)" fill="#DDDDDD" d="M552.945,453.25c-9.646,29.776-23.116,54.922-36.639,70.611
		c-2.045,2.373-5.175,3.512-8.276,3.074c-3.656-0.516-6.838-0.103-13.68-2.376c-4.289-1.425-9.805-3.435-16.143-6.211
		c-1.116-39.633,7.675-69.27,15.107-87.742c2.555-6.348,27.913-68.139,50.899-64.626c7.364,1.126,12.66,8.675,16.338,16.445
		C564.842,398.031,563.174,421.683,552.945,453.25"/>
	<path clip-path="url(#SVGID_2_)" fill="#4B8BAA" d="M507.89,399.406c0.247,1.266,0.591,3.2,0.879,5.569
		c3.052,25.122-7.326,41.371-14.068,60.156c-14.597,40.669-2.751,59.396-17.656,75.849c-3.629,4.006-11.226,9.655-24.548,11.925
		c-15.237,2.598-28.123-1.791-37.619-7.71c-8.073-5.032-26-16.206-29.205-34.563c-2.334-13.375,6.991-18.818,4.397-35.463
		c-1.217-7.804-4.264-13.792-6.437-17.397c-0.072-4.651-0.145-9.3-0.218-13.951c4.619,4.177,14.266,11.688,28.348,14.229
		c2.085,0.376,8.204,1.512,15.979,0.5c20.746-2.698,54.649-33.499,54.649-33.499C489.112,418.904,498.001,410.33,507.89,399.406"/>
	<path clip-path="url(#SVGID_2_)" fill="#4080A0" d="M422.858,463.592c10.821,6.301,24.023,8.084,36.176,5.141
		c3.468-0.84,6.825-2.082,10.018-3.675c0.946-0.471,0.115-1.889-0.828-1.417c-10.813,5.394-23.65,6.259-35.163,2.669
		c-3.273-1.021-6.41-2.41-9.373-4.136C422.772,461.641,421.944,463.06,422.858,463.592"/>
	<path clip-path="url(#SVGID_2_)" fill="#4080A0" d="M473.883,482.54c-6.29,11.818,0.045,25.357-3.67,37.665
		c-0.934,3.094-2.51,5.941-4.899,8.145c-0.779,0.717,0.385,1.876,1.16,1.161c9.944-9.165,5.406-23.89,6.13-35.628
		c0.224-3.646,0.971-7.27,2.697-10.514C475.797,482.435,474.38,481.605,473.883,482.54"/>
	<path clip-path="url(#SVGID_2_)" fill="#4080A0" d="M460.523,482.342c0.358,8.31-0.943,16.629-3.884,24.413
		c-2.61,6.911-6.732,13.762-13.422,17.363c-3.683,1.982-7.979,2.855-12.102,1.966c-1.031-0.222-1.472,1.36-0.438,1.583
		c7.746,1.672,15.467-2.115,20.461-7.94c5.359-6.25,8.357-14.526,9.916-22.514c0.955-4.894,1.325-9.89,1.11-14.871
		C462.121,481.29,460.477,481.285,460.523,482.342"/>
	<path clip-path="url(#SVGID_2_)" fill="#CCA279" d="M473.352,275.398c-11.022,14.531-19.429,29.329-23.034,44.604
		c-4.813-18.615-13.668-32.157-24.712-42.906c0,0,3.289-4.049,6.117-8.062c1.025-1.466,1.993-2.933,2.717-4.189
		c0.14-0.238,0.272-0.463,0.385-0.68c0.007-0.007,0.015-0.021,0.021-0.028c0.12-0.232,0.232-0.45,0.33-0.653
		c0.793-1.656,1.145-4.61,1.256-7.655c0.211-5.045-0.195-10.328-0.195-10.328l32.802,0.463c0,0-0.218,3.929-0.597,9.928
		c-0.099,1.649-0.231,3.466-0.357,5.396v0.035c-0.092,1.235-0.043,2.407,0.098,3.501c0.31,2.505,1.102,4.603,1.979,6.259
		C471.64,273.882,473.352,275.398,473.352,275.398"/>
	<path clip-path="url(#SVGID_2_)" fill="#987957" d="M470.16,271.083c-4.601,5.008-12.975,11.027-19.669,10.936
		c-11.212-0.274-17.687-7.933-18.767-12.985c1.023-1.466,1.992-2.933,2.715-4.189c0.14-0.238,0.274-0.463,0.386-0.68
		c0.007-0.007,0.015-0.021,0.021-0.028c0.119-0.232,0.231-0.449,0.33-0.653c0.793-1.656,1.143-4.61,1.256-7.655
		c0.21-5.045-0.197-10.328-0.197-10.328l32.803,0.463c0,0-0.218,3.929-0.597,9.928c-0.098,1.649-0.231,3.466-0.358,5.396v0.035
		c-0.091,1.235-0.042,2.407,0.099,3.501C468.49,267.33,469.283,269.427,470.16,271.083"/>
	<path clip-path="url(#SVGID_2_)" fill="#5190B7" d="M434.553,264.675c0,0-5.429,4.555-4.256,10.739s12.581,14.747,12.581,14.747
		l-4.66,19.529c0,0-22.265-19.01-10.981-39.174L434.553,264.675z"/>
	<path clip-path="url(#SVGID_2_)" fill="#5190B7" d="M442.878,290.161c0,0,11.924,35.744,8.186,73.056l-3.285,0.063
		c0,0,0.63-54.259-7.062-64.063L442.878,290.161z"/>
	<path clip-path="url(#SVGID_2_)" fill="#5190B7" d="M468.463,266.478c0,0,2.69,2.147,2.074,8.161
		c-0.643,6.261-12.003,15.221-12.003,15.221l5.408,19.335c0,0,20.376-19.832,10.097-38.677c-0.313-0.574-0.826-1.015-1.377-1.366
		L468.463,266.478z"/>
	<path clip-path="url(#SVGID_2_)" fill="#4C6580" d="M442.878,290.161c-1.091,5.721-2.924,13.875-4.185,19.643l-0.176,0.799
		l-0.616-0.541c-10.919-9.574-19.294-25.938-10.926-39.692c2.478-1.94,5.04-3.816,7.577-5.695c-2.225,1.907-5.116,4.412-7.056,5.986
		c-5.58,10.01-2.497,21.649,3.894,30.478c2.085,2.96,4.496,5.741,7.146,8.18l-0.792,0.258
		C439.202,303.817,441.292,295.794,442.878,290.161"/>
	<path clip-path="url(#SVGID_2_)" fill="#4C6580" d="M458.535,289.859c1.768,5.441,4.248,13.646,5.895,19.199l-0.839-0.226
		c5.553-5.904,10.159-13.12,12.121-21.042c1.146-4.939,1.017-10.269-0.926-15c-0.391-0.9-0.749-1.947-1.327-2.712
		c-0.546-0.685-1.735-1.296-2.438-1.83l-2.559-1.771c0.913,0.528,3.154,1.842,4.024,2.363c1.97,0.955,2.64,3.306,3.469,5.165
		c3.236,8.547,0.632,18.109-3.967,25.64c-2.328,3.837-5.108,7.37-8.312,10.539C462.138,304.196,459.908,295.818,458.535,289.859"/>
	<path clip-path="url(#SVGID_2_)" fill="#5190B7" d="M458.535,289.859c0,0-14.452,36.253-9.279,73.393l3.285-0.064
		c0,0,1.195-54.27,8.502-64.363L458.535,289.859z"/>
	<path clip-path="url(#SVGID_2_)" fill="#4C6580" d="M447.78,363.28l4.758-0.218l-0.124,0.124
		c-0.07-10.901,0.444-21.797,1.418-32.656c0.836-8.131,1.78-16.31,3.952-24.218c0.795-2.596,1.614-5.29,3.259-7.487
		c-1.422,2.331-2.097,4.999-2.716,7.627c-3.759,18.656-4.31,37.796-5.66,56.739l-0.008,0.125l-0.116-0.001L447.78,363.28z"/>
	<path clip-path="url(#SVGID_2_)" fill="#4C6580" d="M451.32,355.435c0,0.804-0.652,1.455-1.456,1.455
		c-0.805,0-1.457-0.651-1.457-1.455c0-0.805,0.652-1.456,1.457-1.456C450.667,353.979,451.32,354.63,451.32,355.435"/>
	<path clip-path="url(#SVGID_2_)" fill="#4C6580" d="M451.79,343.235c0,0.804-0.651,1.456-1.456,1.456
		c-0.804,0-1.457-0.652-1.457-1.456s0.653-1.456,1.457-1.456C451.138,341.779,451.79,342.431,451.79,343.235"/>
	<path clip-path="url(#SVGID_2_)" fill="#4C6580" d="M452.996,330.376c0,0.804-0.652,1.456-1.456,1.456
		c-0.806,0-1.457-0.652-1.457-1.456c0-0.804,0.651-1.456,1.457-1.456C452.343,328.92,452.996,329.572,452.996,330.376"/>
	<path clip-path="url(#SVGID_2_)" fill="#4C6580" d="M454.412,318.546c0,0.804-0.652,1.456-1.456,1.456
		c-0.806,0-1.457-0.652-1.457-1.456c0-0.804,0.651-1.456,1.457-1.456C453.759,317.09,454.412,317.742,454.412,318.546"/>
	<path clip-path="url(#SVGID_2_)" fill="#4080A0" d="M427.218,310.601c4.058,39.161-5.771,66.479-12.587,80.873
		c-11.466,24.218-37.342,60.219-49.279,52.433c-2.918-1.901-5.329-4.765-7.146-8.557c-6.527-13.605-3.797-37.521,9.556-73.877
		c9.975-27.185,28.769-50.637,40.175-62.262c3.843,0.536,6.584,1.742,8.29,2.671c2.277,1.24,4.001,2.688,7.254,5.422
		C425.083,308.65,426.363,309.809,427.218,310.601"/>
	<path clip-path="url(#SVGID_2_)" fill="#4B8BAA" d="M426.677,310.104c2.401,37.511-7.383,63.611-14.23,77.654
		c-11.863,24.323-38.029,59.789-49.282,52.424c-1.866-1.221-3.529-2.831-4.958-4.832c-6.527-13.604-3.796-37.521,9.555-73.877
		c9.976-27.185,28.77-50.637,40.175-62.263c2.526,1.713,5.24,3.445,8.145,5.163C419.75,306.545,423.301,308.443,426.677,310.104"/>
	<path clip-path="url(#SVGID_2_)" fill="#111010" d="M488.068,238.268c-0.541,1.776-1.633,4.551-3.909,7.329
		c-3.032,3.702-6.57,5.462-8.427,6.229c1.434-1.951,2.951-4.269,4.396-6.962c1.764-3.285,3.014-6.368,3.909-9.039
		C485.38,236.639,486.724,237.454,488.068,238.268"/>
	<path clip-path="url(#SVGID_2_)" fill="#BC956B" d="M456.708,271.467c-2.109,1.147-6.324,3.032-11.556,2.528
		c-3.601-0.347-7.374-1.837-12.175-5.847c-10.886-9.093-15.461-21.482-19.121-31.744c-1.108-3.107-3.84-11.158-5.585-22.075
		c-2.094-13.098-1.998-18.813-2.11-24.18c-0.028-1.299,1.426-8.844,2.276-9.851c11.542-13.664,48.025-6.134,48.032-6.093
		c0.001,0.002-0.096,0.02-0.207,0.041c3.028,0.543,11.414-2.999,15.132-1.627c4.507,1.662,4.446,8.48,9.093,12.019
		C507.663,201.861,482.352,258.522,456.708,271.467"/>
	<path clip-path="url(#SVGID_2_)" fill="#111010" d="M483.956,229.311c2.765-3.394,5.533-6.814,8.306-10.26
		c1.903-2.366,3.796-4.727,5.677-7.084c2.823-3.539,4.75-7.755,5.285-12.252c0.047-0.387,0.085-0.782,0.112-1.184
		c0.285-4.022-0.492-7.007-1.465-10.749c-1.491-5.73-3.613-9.703-4.886-12.052c-2.807-5.173-5.106-7.577-6.189-8.631
		c-3.486-3.395-5.579-3.718-6.677-3.746c-1.786-0.044-3.226,0.637-4.072,1.14c-0.902-2.332-2.95-6.672-7.328-10.423
		c-5.113-4.382-10.51-5.477-12.541-5.863c-6.184-1.175-13.079,1.117-26.87,5.7c-6.481,2.154-9.575,3.505-12.866,5.863
		c-6.034,4.324-8.1,8.718-8.631,9.935c-0.708,1.617-1.09,3.051-1.305,4.071c-1.638,1.213-4.21,3.447-6.188,7.003
		c-2.688,4.829-2.759,9.362-2.77,11.889c-0.009,2.291,0.248,4.961,3.746,15.634c1.054,3.217,2.516,7.503,4.397,12.54
		c-1.974-7.295-1.576-12.757-0.814-16.448c0.591-2.864,1.306-4.186,2.443-9.772c0.994-4.879,1.318-8.13,1.466-10.26
		c0.16-2.308,0.18-4.261,0.163-5.7c1.939,0.862,4.964,2.032,8.794,2.768c7.292,1.403,13.135,0.397,29.803-3.42
		c6.629-1.517,12.45-2.902,17.264-4.071c-0.896,2.99-3.12,11.829,0.488,22.149c3.829,10.953,11.787,16.585,14.331,18.24
		C483.739,219.321,483.848,224.316,483.956,229.311"/>
	<path clip-path="url(#SVGID_2_)" fill="#484443" d="M424.796,167.323c1.407-0.044,2.939-0.163,4.571-0.396
		c3.17-0.452,5.916-1.219,8.173-2.027c-1.224,1.795-3.08,4.071-5.781,6.188c-1.464,1.148-2.887,2.021-4.152,2.687
		c4.327,0.336,9.905,0.362,16.286-0.651c5.465-0.868,10.1-2.275,13.761-3.664c-3.819,2.534-11.649,6.989-22.556,8.143
		c-9.364,0.989-16.886-0.889-21.091-2.28c2.966-0.622,6.478-1.619,10.261-3.258c2.335-1.011,4.397-2.103,6.188-3.175
		c-1.264,0.377-3.542,0.876-6.352,0.488c-2.487-0.343-4.358-1.239-5.455-1.873C420.699,167.445,422.748,167.384,424.796,167.323"/>
	<path clip-path="url(#SVGID_2_)" fill="#484443" d="M476.342,182.082c-0.13,2.695,0.016,6.814,1.588,11.481
		c2.361,7.012,6.648,11.411,8.916,13.436c-1.528-0.574-6.652-2.717-9.771-8.305C472.747,190.938,475.92,183.075,476.342,182.082"/>
	<path clip-path="url(#SVGID_2_)" fill="#484443" d="M482.45,191.608c0.806,1.987,2.031,4.473,3.908,7.084
		c2.145,2.983,4.422,5.133,6.229,6.596c-1.151-0.228-4.357-1.021-6.962-3.908C482.007,197.371,482.373,192.456,482.45,191.608"/>
	<path clip-path="url(#SVGID_2_)" fill="#484443" d="M408.633,190.387c0.084,0.887,0.159,2.361-0.081,4.153
		c-0.354,2.635-1.094,3.738-1.466,6.351c-0.144,1.008-0.28,2.57-0.082,4.56c-0.097-2.641-0.17-5.176-0.244-7.898
		c-0.037-1.364-0.063-2.855,0.57-4.642C407.725,191.796,408.244,190.945,408.633,190.387"/>
	<path clip-path="url(#SVGID_2_)" fill="#BC956B" d="M483.902,236.646c0.87,1.055,2.312,1.41,3.093,1.603
		c2.826,0.698,5.201-0.484,5.84-0.801c2.221-1.106,3.839-4.111,6.984-10.078c0.9-1.706,1.784-3.771,3.551-7.901
		c1.092-2.551,1.646-3.969,1.26-5.726c-0.06-0.267-0.698-3.009-2.634-3.664c-2.119-0.717-4.524,1.493-7.559,4.351
		c-2.122,1.999-4.556,4.33-6.984,8.474C485.642,225.994,481.269,233.453,483.902,236.646"/>
	<path clip-path="url(#SVGID_2_)" fill="#FFFFFF" d="M459.671,224.744c-1.608,1.044-5.172,1.974-7.922,2.02
		c-6.664-0.615-9.157-7.256-9.157-7.256c0.338-0.157,1.483-0.44,3.065-0.798c3.094-0.704,7.866-1.673,11.587-2.398
		c3.126-0.622,5.514-1.083,5.514-1.083S464.479,221.345,459.671,224.744"/>
	<path clip-path="url(#SVGID_2_)" fill="#3F2E20" d="M453.268,223.96c-0.292,0.087-0.591,0.15-0.887,0.191
		c-0.056,0.002-0.101,0.006-0.148,0.021c-0.021-0.004-0.046,0.004-0.066,0c-0.09,0.008-0.17,0.017-0.247,0.016
		c-0.067,0-0.125,0.013-0.181,0.016c-2.646,0.053-5.086-1.652-5.859-4.312c-0.114-0.397-0.186-0.787-0.222-1.182
		c3.095-0.704,7.866-1.672,11.588-2.398c0.007,0.023,0.016,0.036,0.022,0.059c0.024,0.06,0.046,0.13,0.068,0.2
		c0.015,0.047,0.031,0.083,0.035,0.128C458.205,219.825,456.394,223.061,453.268,223.96"/>
	<path clip-path="url(#SVGID_2_)" fill="#FFFFFF" d="M425.847,229.07c-1.243,0.812-4.124,1.678-6.163,1.711
		c-0.012-0.014-0.012-0.014-0.013-0.001c-5.679-0.269-7.919-5.856-7.919-5.856c0.333-0.154,1.629-0.5,3.372-0.922
		c2.79-0.69,6.704-1.562,9.562-2.193c2.149-0.478,3.706-0.813,3.706-0.813S429.988,226.183,425.847,229.07"/>
	<path clip-path="url(#SVGID_2_)" fill="#3F2E20" d="M420.323,229.026c-0.286,0.031-0.57,0.035-0.853,0.024
		c-0.058,0.007-0.099,0.001-0.141-0.005c-0.028-0.004-0.042-0.006-0.071,0.004l-0.39-0.053c-2.403-0.345-4.381-2.245-4.759-4.748
		c3.167-0.782,7.609-1.772,10.853-2.488c0.04,0.02,0.067,0.024,0.093,0.041c0.077,0.266,0.142,0.515,0.175,0.789
		c0.02,0.074,0.025,0.131,0.029,0.202c0.008,0.044,0.017,0.088,0.011,0.129C425.562,225.95,423.362,228.666,420.323,229.026"/>
	<path clip-path="url(#SVGID_2_)" d="M435.65,251.746c-3.678,2.911-8.182,4.233-12.301,3.598c2.035-0.279,4.01-0.984,5.786-2.042
		c1.779-1.053,3.355-2.463,4.646-4.082c0.595-0.745,1.569-0.857,2.178-0.249C436.688,249.675,436.524,251.107,435.65,251.746"/>
	<path clip-path="url(#SVGID_2_)" d="M441.053,247.827c3.637,2.828,8.817,5.163,13.493,4.632c-4.735,1.802-10.599,0.587-15.341-1.48
		C436.738,249.792,438.812,246.251,441.053,247.827"/>
	<path clip-path="url(#SVGID_2_)" fill="#652B28" d="M451.104,256.087c0.653,1.408-4.45,7.095-10.697,7.034
		c-5.73-0.056-9.367-4.919-9.892-5.642c2.147-0.074,5.426-0.232,9.419-0.608C448.145,256.097,450.701,255.216,451.104,256.087"/>
	<path clip-path="url(#SVGID_2_)" fill="#542525" d="M428.582,213.424c0,0-5.109-0.408-6.66-0.428
		c-1.924-0.026-7.104-0.095-10.036,3.248c-1.955,2.23-1.898,4.825-2.188,4.77c-0.411-0.079-1.115-5.453,1.958-9.849
		c3.09-4.418,8.128-5.176,9.912-5.444c2.163-0.325,5.57,0.102,5.57,0.102L428.582,213.424z"/>
	<path clip-path="url(#SVGID_2_)" fill="#542525" d="M438.769,203.367c0.913,2.83,1.682,4.718,2.596,7.548
		c2.208-1.13,4.646-1.933,8.236-3.097c2.479-0.803,5.306-1.719,8.591-1.367c6.02,0.646,9.945,5.161,11.256,6.825
		c-0.196-1.44-0.896-5.134-3.915-8.473c-0.663-0.733-2.941-3.111-6.735-4.367c-3.547-1.174-6.474-0.724-9.949-0.19
		C446.443,200.615,442.862,201.419,438.769,203.367"/>
	<path clip-path="url(#SVGID_2_)" fill="#987957" d="M433.075,218.757c-1.433,6.061-3.418,11.867-5.377,17.769
		c-1.486,4.973,2.782,10.009,7.938,9.275c1.563-0.248,3.034-0.95,4.183-1.989c-1.244,0.912-2.714,1.522-4.223,1.647
		c-3.013,0.31-6.002-1.623-7.087-4.409c-1.15-2.928,0.399-5.923,1.281-8.748C431.249,227.886,432.341,223.348,433.075,218.757"/>
	<path clip-path="url(#SVGID_2_)" fill="#C6C6C6" d="M318.657,473.686c1.168-1.506,3.018-3.629,5.667-5.688
		c7.525-5.851,15.658-6.653,25.41-7.487c15.159-1.296,25.814-2.134,33.899-2.739c0.214,1.461,0.349,3.176,0.281,5.088
		c-0.131,3.675-0.96,6.706-1.759,8.864C360.99,472.378,339.823,473.033,318.657,473.686"/>
	<path clip-path="url(#SVGID_2_)" fill="#2D2A2A" d="M534.76,538.025c1.138,0.603,2.195,1.35,3.146,2.219
		c15.938,14.589-7.785,39.361-23.991,35.899c-12.021-2.228-18.412-11.114-28.776-14.45c-0.565-0.183-6.684-4.66-7.351-5.453
		c-11.163-13.272,8.851-24.391,13.793-26.47C495.931,527.942,523.74,532.179,534.76,538.025"/>
	<path clip-path="url(#SVGID_2_)" fill="#565252" d="M530.804,536.065c4.649,2.07,8.15,7.125,7.841,12.204
		c-0.526,8.649-9.63,25.409-27.584,25.286c-7.456-0.406-15.263-8.99-27.72-13.786c-8.461-3.257-11.642-11.467-6.297-18.789
		c4.635-6.35,11.912-10.106,14.536-11.211C495.471,528.135,518.375,530.531,530.804,536.065"/>
	<path clip-path="url(#SVGID_2_)" fill="#BC956B" d="M475.103,552.266c2.649,0.586,4.779,5.151,16.851,9.434
		c0.98,0.348,5.09,2.574,6.891,3.268c7.041,2.714,9.599,4.007,12.009,5.007c4.432,1.838,17.517-4.411,22.663-22.354
		c0.27-0.941,4.072-5.197-5.646-8.521c-10.089-3.45-30.551-9.671-36.492-7.736c0,0-5.511-0.093-9.924-1.394
		c-4.414-1.299-8.368-3.445-8.368-3.445l-9.37,21.517L475.103,552.266z"/>
	<path clip-path="url(#SVGID_2_)" fill="#987957" d="M482.957,530.358c-3.508,9.856-6.933,16.82-9.476,21.311l-9.767-3.628
		l9.376-21.517c0,0,3.947,2.151,8.366,3.445C481.944,530.111,482.449,530.244,482.957,530.358"/>
	<path clip-path="url(#SVGID_2_)" fill="#353333" d="M528.074,534.959c-2.636,2.798-6.829,3.372-10.586,11.495
		c-3.667,7.586-6.405,18.002-2.685,29.316c-2.547-0.607-5.669-1.563-9.052-3.143c-3.463-1.604-6.264-3.408-8.396-5.002
		c0,0-0.086-0.327-0.195-0.936c-0.764-4.146-2.678-21.397,14.41-35.882c2.639,0.543,4.379,0.431,7.255,1.215
		c1.405,0.385,3.566,1.067,5.546,1.713C525.809,534.21,527.161,534.654,528.074,534.959"/>
	<path clip-path="url(#SVGID_2_)" fill="#474545" d="M524.372,533.737c-2.582,1.969-6.047,3.458-9.216,10.284
		c-2.997,6.201-5.374,14.293-4.106,23.223c0.403,2.843-2.412,5.105-5.084,4.052c-0.83-0.326-1.682-0.689-2.552-1.093
		c-2.403-1.126-4.491-2.335-6.252-3.512c-0.764-4.146-2.678-21.397,14.409-35.881c2.639,0.542,4.38,0.43,7.255,1.214
		C520.231,532.409,522.393,533.09,524.372,533.737"/>
	<path clip-path="url(#SVGID_2_)" fill="#C6C6C6" d="M478.349,519.465c0.721,0.768,1.5,1.6,1.501,1.601
		c0.488,0.524,0.967,1.037,1.436,1.538c-4.252,18.69-9.267,23.595-15.034,33.839c-21.067,1.652-51.351-3.824-82.979-16.258
		c-41.721-16.399-62.357-35.692-65.769-52.712c-0.622-3.116-0.671-6.157-0.164-9.091c0,0,0.445-2.591,1.318-4.696
		C323.746,461.407,475.954,516.915,478.349,519.465"/>
	<path clip-path="url(#SVGID_2_)" fill="#DDDDDD" d="M480.129,524.481c-0.501,3.37-1.336,7.209-2.721,11.331
		c-2.938,8.745-7.21,15.363-10.716,19.856c-37.776-4.198-66.644-14.041-85.543-22.01c-23.47-9.896-63.545-26.794-64.152-50.799
		c-0.048-1.893,0.159-3.454,0.341-4.479c0.139-1.167,0.463-2.858,1.319-4.696c4.276-9.181,16.895-11.4,21.963-12.292
		c23.132-4.067,53.627,12.122,60.53,15.864C423.16,489.187,450.031,504.744,480.129,524.481"/>
	<path clip-path="url(#SVGID_2_)" fill="#5190B7" d="M552.512,408.309c-5.475,11.997-11.024,26.902-23.96,42.094
		c-22.796,26.771-48.48,40.967-64.399,48.135c-4.871-7.755-9.742-15.498-14.601-23.265c-0.563-0.887-1.113-1.783-1.676-2.669
		c10.866-11.572,21.71-23.146,32.541-34.73c10.111-10.83,20.225-21.673,30.325-32.528c-4.249-10.495-8.509-23.253-11.645-38.032
		c-1.34-6.283-2.334-11.202-3.052-15.152c0-0.011-0.013-0.024-0.013-0.035c-1.555-8.534-1.807-12.626-1.328-16.468
		c2.457-19.717,13.476-28.423,13.477-28.423c1.841-1.334,9.487-6.873,17.974-4.865c6.149,1.455,9.816,6.178,11.409,8.231
		C551.19,328.157,552.453,403.782,552.512,408.309"/>
	<path clip-path="url(#SVGID_2_)" fill="#4080A0" d="M513.235,406.988c-22.177,22.798-41.506,45.486-63.683,68.285
		c-0.563-0.887-1.113-1.783-1.676-2.67c10.867-11.571,21.709-23.145,32.54-34.729c10.113-10.83,17.368-21.563,27.469-32.418
		c-4.249-10.496-5.651-23.363-8.787-38.144c-1.341-6.282-2.334-11.201-3.052-15.15C499.23,363.495,510.542,401.099,513.235,406.988"
		/>
	<path clip-path="url(#SVGID_2_)" fill="#926C3C" d="M430.358,262.22c2.693-2.44,10.186,0.242,10.331,2.638
		c0.107,1.761-3.846,1.877-5.825,5.825c-1.507,3.007-0.271,5.043-1.649,5.935c-2.214,1.433-8.235-1.989-8.242-5.056
		c-0.005-1.844,2.168-2.289,4.066-6.485C429.861,263.26,429.685,262.829,430.358,262.22"/>
	<path clip-path="url(#SVGID_2_)" fill="#664622" d="M432.611,263.099c1.85-0.782,4.375,0.028,2.973,2.425
		c-0.768,1.369-2.004,2.425-3.186,3.354c-0.629,0.621-1.06,1.519-1.326,2.519c-0.229-1.014-0.059-2.172,0.61-3.118
		c1.101-1.268,2.08-2.057,2.938-3.346C435.828,263.445,433.693,263.284,432.611,263.099"/>
	<path clip-path="url(#SVGID_2_)" fill="#987957" d="M430.428,271.308c-0.61,1.113-1.245,2.226-1.892,3.351
		c-1.843,3.207-3.722,6.247-5.601,9.131c0.993-2.585,2.524-5.828,4.871-9.239c0.777-1.136,1.567-2.178,2.346-3.123
		C430.248,271.379,430.344,271.343,430.428,271.308"/>
	<path clip-path="url(#SVGID_2_)" fill="#CCA279" d="M443.592,285.214c-3.303,11.094-12.411,16.336-14.505,17.473
		c-2.059,4.907-4.105,9.825-6.151,14.732c-4.021-3.399-8.043-6.798-12.063-10.185c1.664-4.296,3.327-8.604,4.991-12.9
		c-0.133-2.119-0.156-7.54,3.146-13.189c3.627-6.175,9.024-8.844,11.142-9.718c-0.777,0.946-1.567,1.987-2.345,3.124
		c-2.346,3.41-3.878,6.654-4.871,9.239c1.879-2.884,3.758-5.924,5.602-9.131c0.646-1.125,1.279-2.238,1.891-3.352
		c-0.084,0.037-0.18,0.072-0.276,0.12c1.389-1.687,2.766-3.088,3.985-4.236c0.695-0.335,1.544-0.599,2.035-0.228
		c0.443,0.335,0.263,0.898,0.706,1.197c0.61,0.395,1.232-0.443,2.153-0.203c1.077,0.275,1.138,1.639,2.06,1.699
		c0.67,0.048,0.933-0.67,1.567-0.598c0.646,0.072,1.101,0.921,1.377,1.651C444.669,273.546,445.459,278.967,443.592,285.214"/>
	<path clip-path="url(#SVGID_2_)" fill="#987957" d="M435.937,269.862c-1.398,4.776-3.852,9.278-7.106,13.042
		C431.767,278.879,434.149,274.514,435.937,269.862"/>
	<path clip-path="url(#SVGID_2_)" fill="#987957" d="M438.832,271.792c-1.399,4.775-3.853,9.278-7.107,13.042
		C434.661,280.81,437.043,276.443,438.832,271.792"/>
	<path clip-path="url(#SVGID_2_)" fill="#987957" d="M440.838,275.16c-1.396,4.777-3.845,9.282-7.097,13.049
		C436.676,284.18,439.054,279.813,440.838,275.16"/>
	<path clip-path="url(#SVGID_2_)" fill="#987957" d="M443.536,277.502c-1.197,4.352-3.347,8.479-6.245,11.939
		C439.867,285.726,441.948,281.734,443.536,277.502"/>
	<path clip-path="url(#SVGID_2_)" fill="#4B8BAA" d="M409.238,300.094c5.813,3.337,11.626,6.674,17.44,10.011
		c-1.579,3.854-3.157,7.707-4.736,11.561c-6.472-3.493-12.944-6.985-19.417-10.478C404.763,307.49,407,303.792,409.238,300.094"/>
	<path clip-path="url(#SVGID_2_)" fill="#872106" d="M342.581,558.481c0,12.521-44.875,22.666-100.233,22.666
		c-55.357,0-100.241-10.146-100.241-22.666v-0.035c0.086-12.493,44.936-22.631,100.241-22.631c49.063,0,89.888,7.979,98.54,18.504
		C342.001,555.667,342.581,557.056,342.581,558.481"/>
	<path clip-path="url(#SVGID_2_)" fill="#FF4310" d="M340.887,554.32c-0.086,12.503-44.927,22.632-100.232,22.632
		c-49.071,0-89.905-7.971-98.548-18.505c0.086-12.494,44.935-22.633,100.241-22.633C291.411,535.814,332.236,543.793,340.887,554.32
		"/>
	<path clip-path="url(#SVGID_2_)" fill="#DDDDDD" d="M244.83,531.587c0-0.107,0.024-0.216,0.096-0.322
		c-0.036,0.168-0.06,0.347-0.06,0.515C244.842,531.708,244.83,531.648,244.83,531.587"/>
	<path clip-path="url(#SVGID_2_)" fill="#DDDDDD" d="M310.784,531.587c0,0.061-0.012,0.12-0.036,0.192
		c0-0.168-0.024-0.347-0.06-0.515C310.76,531.372,310.784,531.48,310.784,531.587"/>
	<path clip-path="url(#SVGID_2_)" fill="#DDDDDD" d="M310.748,531.78c-0.706,2.418-15.187,4.344-32.935,4.344
		c-17.76,0-32.241-1.926-32.947-4.344c0-0.168,0.024-0.348,0.06-0.516c1.173-2.356,15.45-4.224,32.887-4.224
		c17.425,0,31.702,1.867,32.875,4.224C310.724,531.432,310.748,531.612,310.748,531.78"/>
	<path clip-path="url(#SVGID_2_)" fill="#7F7E7C" d="M310.789,532.516c0.116,10.613-16.827,23.829-33.42,23.657
		c-21.753-0.223-32.533-23.344-32.534-23.657c0-0.136,0.005-0.271,0.005-0.271c0.006-0.157,0.016-0.312,0.031-0.472
		c0.168,0.574,1.101,1.112,2.657,1.603c5.062,1.616,16.719,2.741,30.29,2.741c14.852,0,27.418-1.352,31.535-3.207
		c0.802-0.358,1.28-0.742,1.4-1.137C310.773,532.002,310.786,532.25,310.789,532.516"/>
	<path clip-path="url(#SVGID_2_)" fill="#FF811F" d="M309.353,532.911c-4.117,1.855-16.683,3.207-31.535,3.207
		c-13.571,0-25.228-1.125-30.29-2.741c2.573-1.974,14.589-2.836,19.878-3.219C284.281,528.96,306.122,530.014,309.353,532.911"/>
	<path clip-path="url(#SVGID_2_)" fill="#BCA284" d="M272.093,564.936c0,5.05-17.715,9.143-39.567,9.143s-39.566-4.093-39.566-9.143
		c0-5.049,17.714-9.142,39.566-9.142S272.093,559.887,272.093,564.936"/>
	<path clip-path="url(#SVGID_2_)" fill="#CCB492" d="M252.606,569.62c-0.429,5.03-18.428,7.603-40.201,5.744
		s-39.075-7.442-38.646-12.473c0.43-5.03,18.428-7.603,40.201-5.744C235.733,559.004,253.035,564.589,252.606,569.62"/>
	<path clip-path="url(#SVGID_2_)" fill="#56514F" d="M227.837,496.623c0.03,0.234-0.014,0.438-0.059,0.579
		c-0.177,0.82-0.748,1.594-1.634,2.317c-3.03,2.463-9.878,4.177-17.828,4.177s-14.798-1.714-17.829-4.177
		c-0.885-0.724-1.456-1.497-1.633-2.317c-0.044-0.138-0.089-0.342-0.059-0.579c0.388-3.036,12.219-4.026,19.259-4.049
		C215.423,492.551,227.446,493.556,227.837,496.623"/>
	<path clip-path="url(#SVGID_2_)" fill="#EEFEFF" d="M226.458,497.501c-2.054,1.561-8.592,6.114-18.142,6.195
		c-9.583,0.08-16.213-4.394-18.287-5.92c5.195-0.887,11.394-1.571,18.391-1.612C215.259,496.125,221.337,496.708,226.458,497.501"/>
	<path clip-path="url(#SVGID_2_)" fill="#56514F" d="M227.778,497.202l-5.372,47.079c0,2.825-6.317,5.118-14.09,5.118
		c-7.792,0-14.109-2.293-14.109-5.118l-5.353-47.079c4.972,1.171,11.423,2.218,18.98,2.26
		C215.83,499.507,222.624,498.416,227.778,497.202"/>
	<path clip-path="url(#SVGID_2_)" fill="#5190B7" d="M383.931,461.723c-1.399,3.682-4.169,6.583-7.051,9.343
		c-11.816,11.32-20.338,11.098-21.762,16.486c-2.089,7.906,14.878,18.847,21.103,22.86c13.184,8.502,25.469,12.408,32.532,14.288
		c20.282,5.395,39.067,5.119,70.801,4.653c0.954-0.014,1.738-0.028,2.251-0.038c0.195-2.026,0.391-4.054,0.587-6.081
		c-10.161-12.434-20.136-19.559-27.257-23.739c-9.737-5.717-22.277-10.703-35.895-16.12c-7.107-2.827-13.736-5.264-21.98-10.771
		C391.278,468.609,386.831,464.591,383.931,461.723"/>
	<path clip-path="url(#SVGID_2_)" fill="#CCA279" d="M432.787,486.306c-1.945,0.104-4.701,0.381-7.913,1.172
		c-4.961,1.223-11.215,3.718-10.957,5.095c0.104,0.546,1.197,0.771,2.604,1.061c3.465,0.714,5.821-0.171,6.009,0.293
		c0.237,0.59-3.384,2.505-5.569,3.811c-2.995,1.79-6.967,4.636-11.137,9.231c-0.354,0.449-0.466,1.018-0.256,1.429
		c0.305,0.6,1.306,0.884,2.16,0.33c4.007-2.345,8.012-4.688,12.018-7.034c-3.811,3.028-7.621,6.058-11.431,9.086
		c-0.579,0.607-0.691,1.513-0.294,2.198c0.451,0.775,1.465,1.111,2.346,0.733c0.533-0.336,1.065-0.674,1.6-1.012
		c0.368-0.231,0.563-0.354,0.563-0.354s12.271-7.742,12.932-8.16c-3.713,3.224-7.425,6.448-11.137,9.672
		c-0.299,0.604-0.194,1.324,0.256,1.795c0.493,0.518,1.301,0.629,1.941,0.257c4.201-3.224,8.402-6.447,12.603-9.672
		c-2.442,2.785-4.884,5.569-7.327,8.354c-0.311,0.497-0.414,1.065-0.183,1.392c0.317,0.449,1.351,0.542,2.234-0.22
		c3.077-2.344,6.155-4.689,9.232-7.034c4.54-2.033,7.233-3.235,8.481-3.792c6.079-2.712,8.67-3.854,10.716-6.704
		c0.933-1.3,1.458-2.543,1.759-3.407c2.011-1.066,4.022-2.134,6.034-3.201c-2.999-4.777-5.998-9.555-8.996-14.332
		c-3.409,2.235-6.818,4.472-10.228,6.708C438.16,484.767,435.473,485.537,432.787,486.306"/>
</g>
</svg>
