<?xml version="1.0" encoding="utf-8"?>
<!-- Generator: Adobe Illustrator 16.0.0, SVG Export Plug-In . SVG Version: 6.00 Build 0)  -->
<!DOCTYPE svg PUBLIC "-//W3C//DTD SVG 1.1//EN" "http://www.w3.org/Graphics/SVG/1.1/DTD/svg11.dtd">
<svg version="1.1" id="Layer_1" xmlns="http://www.w3.org/2000/svg" xmlns:xlink="http://www.w3.org/1999/xlink" x="0px" y="0px"
	 width="3052.838px" height="2000px" viewBox="0 0 3052.838 2000" enable-background="new 0 0 3052.838 2000" xml:space="preserve">
<rect y="0" fill="#FFFFFF" width="3052.838" height="2000"/>
<g>
	<g>
		<g>
			<path fill="#FFE9D2" d="M1143.79,1805.658c-469.229-21.012-797.188-225.18-878.449-487.721
				c-81.262-262.542,43.03-425.913,183.663-589.082c89.135-103.417,30.308-298.375,339.876-428.915
				c309.57-130.541,691.484-42.199,860.911,33.477c169.426,75.675,279.168,32.174,383.006,30.739
				c117.357-1.622,450.074,82.913,645.273,278.149c228.83,228.874,201.701,597.085,3.018,837.964
				c-83.703,101.479-274.479,230.473-433.156,273.881C1723.933,1897.498,1143.79,1805.658,1143.79,1805.658z"/>
		</g>
	</g>
	<g>
		<g>
			<path fill="#E05E3B" d="M1245.344,1308.198c10.12-13.165,65.246-41.911,80.414-23.155
				c15.169,18.759-227.877,320.506-227.877,320.506s-190.677,30.742-194.942,28.518c-4.265-2.224-130.963-40.088-132.633-43.128
				c-1.67-3.039,14.225-140.651,14.225-140.651s95.363-79.905,135.953-114.062c40.592-34.156,109.243-99.242,121.817-79.667
				c12.573,19.572-147.851,219.044-147.851,219.044l68.547-33.68c0,0,99.678-93.383,120.806-121.417
				c21.128-28.034,88.188-87.988,106.358-74.985c18.169,13.003-102.589,182.174-102.589,182.174l50.414-14.391
				C1137.985,1413.304,1235.225,1321.361,1245.344,1308.198z"/>
		</g>
		<g>
			<path fill="#20111D" d="M1244.057,1307.208c7.646-9.945,41.854-29.671,65.098-29.956c8.139-0.102,14.153,2.18,17.866,6.771
				c0.564,0.698,0.458,1.719-0.242,2.283c-0.695,0.563-1.715,0.459-2.281-0.241c-3.06-3.781-8.208-5.654-15.304-5.567
				c-21.965,0.27-55.429,19.407-62.563,28.688c-10.082,13.115-103.555,101.538-107.529,105.297l-0.289,0.272l-55.26,15.773
				l2.698-3.777c0.301-0.424,30.489-42.769,58.066-86.148c49.646-78.1,47.939-91.589,44.9-93.763
				c-16.117-11.517-81.307,44.372-104.117,74.642c-20.97,27.825-119.995,120.69-120.992,121.625l-0.394,0.271l-75.112,36.905
				l4.583-5.698c0.402-0.5,40.531-50.446,78.604-102.135c68.957-93.615,71.33-111.62,69.147-115.016
				c-1.006-1.564-2.461-2.465-4.451-2.752c-16.515-2.375-61.511,36.624-94.366,65.1c-7.35,6.369-14.291,12.386-20.588,17.684
				c-38.625,32.501-127.967,107.369-135.461,113.647c-6.065,52.546-14.66,131.106-14.266,138.908l0.071,0.037
				c5.906,3.079,55.325,18.437,88.372,28.705c26.646,8.28,41.802,13.007,43.445,13.863c0.793,0.413,1.094,1.385,0.685,2.179
				c-0.409,0.795-1.389,1.105-2.185,0.701c-1.56-0.793-21.645-7.034-42.908-13.643c-64.603-20.073-83.915-26.443-88.912-29.05
				c-0.896-0.466-1.332-0.812-1.486-1.095c-1.67-3.039,8.078-90.034,14.036-141.622l0.073-0.642l0.496-0.416
				c0.953-0.799,95.823-80.292,135.951-114.059c6.278-5.282,13.211-11.291,20.551-17.652c37.018-32.084,78.974-68.445,96.954-65.859
				c2.939,0.422,5.198,1.839,6.722,4.211c2.093,3.258,8.464,13.174-69.27,118.701c-30.619,41.568-62.562,82.007-74.15,96.564
				l61.817-30.375c4.746-4.451,100.06-93.992,120.444-121.043c18.89-25.066,85.51-87.483,107.358-76.09
				c0.431,0.225,0.845,0.478,1.239,0.76c5.412,3.874,6.732,18.262-44.054,98.156c-22.849,35.939-47.481,71.168-55.487,82.512
				l45.595-13.016C1143.021,1406.305,1234.402,1319.771,1244.057,1307.208z"/>
		</g>
	</g>
	<g>
		<path fill="#FFCD70" d="M1285.355,1525.602c5.667,0,10.262-4.595,10.262-10.262v-257.001c0-19.438-48.594-19.438-77.75-2.43
			s-120.1,6.69-109.334-89.897c12.301-110.358,116.478-76.753,143.35-46.164c15.793,17.979,43.734,4.859,43.734-38.874V865.277
			c0-5.667-4.595-10.261-10.262-10.261h-176.822c-75.319,0-138.491,2.429-106.905,48.593
			c31.586,46.164,14.578,133.632-63.171,133.632s-97.187-70.461-72.89-121.483c24.296-51.023,14.577-60.741-60.742-60.741H598.848
			c-5.667,0-10.262,4.594-10.262,10.261v213.267c0,51.022,36.445,51.022,89.897,26.727c53.452-24.297,97.187,7.289,97.187,68.03
			s-55.883,102.046-109.335,72.89c-53.452-29.155-77.749-12.148-77.749,17.008v252.142c0,5.667,4.595,10.262,10.262,10.262H1285.355
			z"/>
		<path fill="#20111D" d="M787.054,1344.462c-0.409,0-0.811-0.176-1.092-0.52l-36.77-45.009c-0.488-0.602-0.4-1.492,0.201-1.986
			c0.602-0.487,1.487-0.402,1.986,0.202l36.767,45.009c0.491,0.604,0.403,1.492-0.201,1.986
			C787.685,1344.356,787.369,1344.462,787.054,1344.462z"/>
		<path fill="#20111D" d="M805.02,1344.462c-0.409,0-0.817-0.176-1.096-0.52l-33.654-41.249c-0.491-0.604-0.403-1.493,0.201-1.986
			c0.599-0.488,1.49-0.406,1.983,0.201l33.657,41.25c0.491,0.604,0.403,1.492-0.201,1.986
			C805.649,1344.356,805.331,1344.462,805.02,1344.462z"/>
		<path fill="#20111D" d="M1169.672,1454.058c-0.408,0-0.811-0.176-1.092-0.519l-36.77-45.01c-0.488-0.602-0.4-1.492,0.201-1.985
			c0.602-0.488,1.487-0.403,1.986,0.201l36.767,45.009c0.491,0.604,0.403,1.492-0.201,1.986
			C1170.303,1453.953,1169.988,1454.058,1169.672,1454.058z"/>
		<path fill="#20111D" d="M1187.638,1454.058c-0.408,0-0.817-0.176-1.095-0.519l-33.654-41.25c-0.491-0.604-0.403-1.492,0.201-1.986
			c0.599-0.488,1.49-0.405,1.983,0.201l33.658,41.25c0.49,0.604,0.402,1.492-0.202,1.986
			C1188.268,1453.953,1187.95,1454.058,1187.638,1454.058z"/>
		<path fill="#20111D" d="M1099.809,958.596c-0.408,0-0.812-0.176-1.093-0.52l-36.77-45.009c-0.488-0.602-0.4-1.492,0.201-1.986
			c0.603-0.487,1.487-0.402,1.986,0.202l36.767,45.009c0.491,0.604,0.403,1.492-0.201,1.986
			C1100.438,958.491,1100.123,958.596,1099.809,958.596z"/>
		<path fill="#20111D" d="M1117.773,958.596c-0.408,0-0.817-0.176-1.095-0.52l-33.654-41.249c-0.491-0.604-0.403-1.493,0.201-1.986
			c0.599-0.488,1.489-0.406,1.983,0.201l33.658,41.25c0.491,0.604,0.402,1.492-0.201,1.986
			C1118.403,958.491,1118.086,958.596,1117.773,958.596z"/>
		<path fill="#20111D" d="M622.837,1122.496c14.278,0,32.674-5.207,56.24-15.92c11.813-5.369,23.367-8.092,34.338-8.092
			c36.378,0,60.818,30.066,60.818,74.816c0,0.402-0.007,0.804-0.017,1.204c-0.02,0.801,0.633,1.456,1.434,1.456h0
			c0.785,0,1.417-0.63,1.437-1.414c0.01-0.414,0.018-0.83,0.018-1.246c0-46.468-25.595-77.688-63.69-77.688
			c-11.384,0-23.337,2.809-35.527,8.35c-23.184,10.539-41.192,15.662-55.051,15.662c-22.081,0-32.815-13.438-32.815-41.081V866.712
			c0-5.667,4.594-10.261,10.261-10.261h204.543c2.13,0,4.213,0.009,6.257,0.025c0.756,0.006,1.382-0.574,1.438-1.329v-0.001
			c0.062-0.828-0.585-1.536-1.415-1.542c-2.049-0.016-4.141-0.024-6.281-0.024H600.282c-7.253,0-13.132,5.879-13.132,13.132v211.832
			C587.15,1107.709,599.157,1122.496,622.837,1122.496z"/>
		<g>
			<path fill="#20111D" d="M941.313,1037.175v0.002c0.02,0.802,0.696,1.44,1.497,1.405c29.051-1.262,51.974-15.223,64.851-39.637
				c15.619-29.611,13.625-69.148-4.848-96.147c-7.876-11.512-9.977-20.385-6.421-27.126c9.375-17.774,56.333-19.221,112.14-19.221
				h175.388c5.667,0,10.261,4.595,10.261,10.262v111.842c0,0.858,0.75,1.525,1.602,1.426l0.001,0
				c0.724-0.084,1.269-0.697,1.269-1.426V866.712c0-7.253-5.879-13.132-13.132-13.132h-175.389
				c-56.754,0-104.557,1.561-114.68,20.752c-4.1,7.772-1.944,17.614,6.59,30.087c17.614,25.743,19.582,64.934,4.678,93.187
				c-12.374,23.461-34.439,36.883-62.428,38.106C941.91,1035.746,941.294,1036.392,941.313,1037.175z"/>
			<path fill="#20111D" d="M1266.083,1242.006c-16.797,0-35.549,4.853-48.939,12.663c-7.099,4.142-17.876,6.517-29.571,6.518
				c-1.39,0-3.041-0.037-4.904-0.144c-0.803-0.046-1.49,0.582-1.516,1.387l0,0c-0.025,0.78,0.583,1.436,1.363,1.48
				c1.92,0.109,3.624,0.148,5.058,0.148c12.188-0.001,23.492-2.52,31.018-6.908c12.976-7.57,31.174-12.272,47.492-12.272
				c13.584,0,28.098,3.536,28.098,13.461v255.565c0,5.667-4.593,10.261-10.26,10.261H643.876c-0.799,0-1.444,0.653-1.435,1.452
				v0.001c0.009,0.786,0.649,1.419,1.435,1.419h640.044c7.253,0,13.133-5.88,13.133-13.133v-255.565
				C1297.053,1248.265,1285.186,1242.006,1266.083,1242.006z"/>
		</g>
	</g>
	<g>
		<path fill="#E05E3B" d="M2105.166,1258.485c0,0,113.715-149.306,117.136-152.97c3.421-3.663,67.909-62.616,92.862-71.893
			c24.954-9.277,95.758-52.042,96.553-54.729c0.795-2.687-74.857-88.771-80.08-85.933c-5.223,2.839-124.231,88.04-124.231,88.04
			l-73.813,97.399l-94.715,134.469l23.357,21.813L2105.166,1258.485z"/>
		<path fill="#ED6D45" d="M2058.854,1264.962c0,0,97.2,29.042,118.849,39.829c21.65,10.787,47.027,13.909,60.774,1.025
			c13.747-12.883,27.895-39.968,11.624-62.022c0,0,57.654,13.546,68.832,16.268c11.176,2.722,24.707-3.505,32.406-11.748
			c7.697-8.243,4.033-37.596,4.033-37.596l-84.08-60.309l-154.734,64.698l-58.677,34.37L2058.854,1264.962z"/>
		<g>
			<path d="M2259.066,1272.317c-1.066,6.319-3.82,13.069-8.402,20.619c-16.758,27.612-36.753,23.837-48.697,21.582
				c-1.234-0.233-2.377-0.45-3.416-0.608c-10.83-1.654-62.658-22.959-64.859-23.864l1.137-2.759
				c0.535,0.221,53.693,22.075,64.174,23.674c1.069,0.164,2.247,0.387,3.518,0.626c11.186,2.112,29.909,5.647,45.594-20.198
				c17.238-28.398,7.417-44.299-22.723-71.366l1.994-2.219C2250.46,1238.528,2262.244,1253.502,2259.066,1272.317z"/>
		</g>
		<g>
			<path d="M2352.599,1249.113c-10.31,16.253-39.887,10.922-41.142,10.688l-61.699-14.555l0.686-2.904l61.631,14.541
				c0.22,0.04,28.777,5.18,38.006-9.368L2352.599,1249.113z"/>
		</g>
		<path fill="#ED6D45" d="M2073.988,1169.392c0,0,113.714-149.306,117.135-152.97c3.422-3.664,67.909-62.616,92.863-71.893
			c24.953-9.277,95.758-52.042,96.553-54.729s-74.856-88.771-80.08-85.933c-5.223,2.839-124.232,88.04-124.232,88.04l-73.813,97.4
			l-71.717,132.796l0.359,23.485L2073.988,1169.392z"/>
		<g>
			<g>
				<path fill="#3EA0BD" d="M2186.466,1513.448v-646.28c0-6.712-5.441-12.153-12.153-12.153h-217.663
					c-47.165,0-44.569,36.444-26.43,70.46c18.14,34.015,14.11,106.905-62.839,106.905s-106.105-51.023-81.809-99.616
					c24.297-48.594,14.578-77.749-41.305-77.749h-217.202c-6.713,0-12.154,5.44-12.154,12.153v225
					c0,43.734-33.047,42.258-59.773,20.392c-26.727-21.867-116.624-34.016-119.053,70.46
					c-2.43,104.475,106.534,80.576,142.979,51.42s36.816,19.475,36.816,57.914v221.095c0,6.712,5.441,12.153,12.153,12.153h646.279
					C2181.024,1525.602,2186.466,1520.16,2186.466,1513.448z"/>
			</g>
			<path fill="#20111D" d="M1641.561,1320.547c-0.409,0-0.812-0.176-1.093-0.52l-36.77-45.009c-0.488-0.602-0.4-1.492,0.201-1.986
				c0.603-0.487,1.486-0.402,1.986,0.202l36.767,45.009c0.491,0.604,0.402,1.492-0.201,1.985
				C1642.19,1320.441,1641.875,1320.547,1641.561,1320.547z"/>
			<path fill="#20111D" d="M1659.525,1320.547c-0.408,0-0.817-0.176-1.096-0.52l-33.654-41.25c-0.491-0.604-0.402-1.492,0.201-1.985
				c0.6-0.488,1.49-0.406,1.983,0.201l33.657,41.25c0.491,0.604,0.403,1.492-0.201,1.985
				C1660.154,1320.441,1659.837,1320.547,1659.525,1320.547z"/>
			<path fill="#20111D" d="M2062.506,1070.773c-0.408,0-0.812-0.176-1.092-0.52l-36.771-45.01c-0.487-0.601-0.399-1.491,0.202-1.985
				c0.602-0.487,1.486-0.403,1.985,0.201l36.768,45.009c0.49,0.604,0.403,1.492-0.202,1.986
				C2063.136,1070.668,2062.82,1070.773,2062.506,1070.773z"/>
			<path fill="#20111D" d="M2080.471,1070.773c-0.408,0-0.816-0.176-1.095-0.52l-33.655-41.25c-0.49-0.604-0.402-1.492,0.201-1.986
				c0.6-0.487,1.49-0.405,1.984,0.202l33.657,41.249c0.491,0.604,0.403,1.492-0.202,1.986
				C2081.102,1070.668,2080.783,1070.773,2080.471,1070.773z"/>
			<path fill="#20111D" d="M1993.562,1430.143c-0.409,0-0.812-0.176-1.093-0.519l-36.77-45.009c-0.488-0.602-0.4-1.492,0.201-1.986
				c0.602-0.488,1.486-0.402,1.986,0.201l36.768,45.01c0.49,0.604,0.402,1.491-0.202,1.985
				C1994.191,1430.038,1993.876,1430.143,1993.562,1430.143z"/>
			<path fill="#20111D" d="M2011.526,1430.143c-0.409,0-0.817-0.176-1.095-0.519l-33.655-41.25
				c-0.491-0.604-0.403-1.492,0.201-1.985c0.599-0.488,1.489-0.406,1.983,0.201l33.658,41.25c0.49,0.604,0.402,1.491-0.201,1.985
				C2012.156,1430.038,2011.838,1430.143,2011.526,1430.143z"/>
			<g>
				<path fill="#20111D" d="M1928.133,1001.59c-8.582,14.301-22.428,23.574-40.59,27.381c-0.756,0.158-1.26,0.877-1.131,1.64
					l0.003,0.019c0.134,0.802,0.911,1.34,1.706,1.174c23.272-4.854,35.813-17.636,42.474-28.736
					c14.817-24.694,11.665-58.065,0.892-78.267c-12.244-22.962-15.209-42.896-8.132-54.689c5.438-9.063,16.64-13.659,33.295-13.659
					h216.228c6.712,0,12.152,5.441,12.152,12.153v568.698c0,0.829,0.701,1.486,1.529,1.433l0,0c0.756-0.049,1.344-0.676,1.344-1.433
					V868.604c0-8.298-6.728-15.025-15.025-15.025h-216.228c-17.733,0-29.764,5.065-35.757,15.053
					c-10.417,17.36,0.578,43.488,8.061,57.519C1939.346,945.64,1942.401,977.811,1928.133,1001.59z"/>
				<path fill="#20111D" d="M1497.794,1226.982c16.649,0,16.649,37.783,16.649,65.372v16.881c0,0.69,0.491,1.282,1.169,1.411l0,0
					c0.884,0.166,1.703-0.512,1.703-1.411v-16.881c0-30.405,0-68.244-19.521-68.244c-5.461,0-11.881,3.013-19.626,9.208
					c-14.833,11.865-44.563,24.637-74.789,24.637c-20.229,0-36.828-6.046-48.004-17.484c-12.437-12.731-18.444-32.049-17.854-57.418
					c1.761-75.746,49.241-83.923,69.573-83.923c20.283,0,38.289,7.303,47.134,14.54c11.846,9.691,24.768,15.25,35.451,15.25
					c16.948,0,26.668-13.396,26.668-36.752V868.604c0-6.712,5.441-12.153,12.153-12.153h65.136c0.805,0,1.453-0.661,1.436-1.466l0,0
					c-0.017-0.781-0.654-1.406-1.436-1.406h-65.136c-8.298,0-15.025,6.727-15.025,15.025v223.563
					c0,21.849-8.451,33.881-23.797,33.881c-10.032,0-22.291-5.322-33.632-14.602c-9.241-7.561-27.961-15.189-48.954-15.189
					c-21.175,0-70.624,8.451-72.445,86.728c-0.609,26.171,5.673,46.188,18.673,59.492c11.729,12.004,29.038,18.349,50.057,18.349
					c30.918,0,61.372-13.097,76.583-25.266C1487.077,1229.868,1493.076,1226.982,1497.794,1226.982z"/>
			</g>
		</g>
		<path fill="#FC8759" d="M1962.628,1225.468c-19.288-68.171,67.915-85.117,67.915-85.117s0.01-0.083,0.024-0.218l4.97-1.403
			c-0.107,0.175-0.227,0.367-0.328,0.534c27.461-6.539,169.356-42.273,226.68-95.38c63.602-58.923,78.514-89.58,62.459-118.292
			c-16.055-28.712-39.967-57.046-39.967-57.046s-87.539,62.291-114.052,77.828c-6.778,3.972-17.865,21.895-32.442,41.765
			c-26.531-62.205-46.952-86.144-69.538-110.901c11.782-26.195,139.458-125.002,181.178-159.347
			c41.721-34.345,243.992,46.524,305.903,48.398c27.883,0.844,55.684-6.604,77.822-15.048
			c48.268-18.409,101.561-20.061,150.145-2.499c52.928,19.131,105.577,56.917,102.844,131.514
			c-2.162,59.014-38.535,111.386-92.432,135.521l-21.045,9.425c-105.633,61.468-167.221,127.415-236.906,160.722
			c-69.688,33.305-239.752,19.167-317.06,33.78c-77.309,14.612-183.78,63.71-218.666,52.363
			C1969.422,1262.078,1962.628,1225.468,1962.628,1225.468z"/>
		<path fill="#FCB6A9" d="M2049.935,1235.863c0,0-17.185-63.855-19.149-65.689c-1.965-1.835-40.188,3.655-46.244,15.652
			c-6.055,11.996,6.848,55.672,11.563,60.074C2002.486,1251.862,2044.292,1243.833,2049.935,1235.863z"/>
		<path fill="#FFA480" d="M2056.928,1236.315c0,0-17.622-66.459-19.66-68.362c-2.037-1.902-41.865,3.981-48.222,16.507
			s6.892,57.977,11.782,62.544C2007.45,1253.188,2051.018,1244.643,2056.928,1236.315z"/>
		<g>
			<path d="M2329.74,956.066c-8.1,47.969-70.804,92.793-73.505,94.703c-71.415,48.123-134.952,65.407-186.003,79.295
				c-24.028,6.535-46.725,12.711-66.654,21.078c-18.775,7.884-31.387,19.492-37.486,34.502c-9.66,23.786,0.498,48.283,0.603,48.527
				l-2.745,1.167c-0.445-1.042-10.755-25.823-0.633-50.788c6.404-15.786,19.562-27.951,39.107-36.158
				c20.111-8.445,42.898-14.644,67.025-21.207c50.84-13.83,114.112-31.041,185.092-78.871c0.633-0.446,65.983-47.171,72.542-94.6
				c2.001-14.545-1.77-27.817-11.208-39.446l-32.699-44.842l2.41-1.758l32.652,44.781c9.934,12.236,13.92,26.279,11.801,41.676
				C2329.949,954.771,2329.85,955.423,2329.74,956.066z"/>
		</g>
		<path d="M2137.349,986.797c14.142-20.546,24.24-35.027,25.232-35.943c3.437-3.172,128.942-89.279,134.284-92.942l1.688,2.459
			c-45.157,30.977-131.266,90.211-133.949,92.673c-1.109,1.15-11.295,15.792-25.93,37.076
			C2138.239,989.006,2137.791,987.905,2137.349,986.797z"/>
		<g>
			<path d="M2566.107,1171.055c-49.098,33.559-145.146,44.975-218.558,41.403c-78.461-3.815-152.75,14.123-153.491,14.306
				l-165.534,47.156l-0.819-2.867l165.59-47.172c0.799-0.197,75.492-18.239,154.401-14.402
				c72.911,3.547,168.202-7.719,216.727-40.885L2566.107,1171.055z"/>
		</g>
		<path d="M2067.442,876.335c2.715-4.914,4.62-8.179,5.44-9.248c7.721-10.061,57.076-55.366,129.664-114.263
			c1.887-1.681,47.62-42.224,64.543-43.577c1.557-0.124,3.105-0.288,4.725-0.46c16.072-1.701,38.083-4.034,136.504,21.645
			l-0.753,2.886c-97.896-25.542-119.593-23.243-135.437-21.564c-1.646,0.174-3.219,0.339-4.802,0.466
			c-15.933,1.274-62.382,42.461-62.849,42.877c-78.477,63.675-122.883,105.535-129.229,113.806
			c-0.814,1.062-2.791,4.472-5.626,9.624C2068.899,877.792,2068.175,877.058,2067.442,876.335z"/>
		<g>
			<path d="M2528.784,1143.796c-18.638,12.607-50.599,17.858-51.95,18.076l-0.475-2.946c0.325-0.051,32.666-5.365,50.754-17.602
				L2528.784,1143.796z"/>
		</g>
		<g>
			<path d="M2540.75,1121.252c-18.639,12.605-50.601,17.858-51.952,18.076l-0.474-2.946c0.324-0.052,32.667-5.366,50.754-17.601
				L2540.75,1121.252z"/>
		</g>
		<g>
			
				<rect x="2149.183" y="1136.853" transform="matrix(0.9291 -0.3699 0.3699 0.9291 -277.9907 878.1478)" width="2.983" height="54.1"/>
		</g>
		<g>
			
				<rect x="2174.533" y="1131.761" transform="matrix(0.9291 -0.3699 0.3699 0.9291 -274.3088 887.1639)" width="2.983" height="54.1"/>
		</g>
		<path fill="#3EA0BD" d="M2171.412,855.016h-140.716l36.745,147.088l118.997-6.998V870.04
			C2186.438,861.742,2179.711,855.016,2171.412,855.016z"/>
		<path fill="#20111D" d="M2172.877,853.58H2024.33v2.871h148.547c6.711,0,12.152,5.441,12.152,12.154v133.499h2.873V868.605
			C2187.902,860.307,2181.174,853.58,2172.877,853.58z"/>
	</g>
	<g>
		<path fill="#FC8759" d="M128.352,1689.843c23.448,88.21,163.02,213.267,365.245,173.565
			c23.208-27.508,0.898-2.654,135.661-149.243c58.525,1.271,324.643,6.251,382.48-1.933
			c53.083-7.492,165.835-74.109,210.779-102.821c20.738-13.237,269.818-173.127,243.832-197.853
			c-26.833-25.498-87.018,0.39-131.304,23.071c-8.813,4.63-20.734,10.595-223.104,115.247
			c-68.82,9.191-197.811-30.165-197.811-30.165c33.025-11.387,236.452-84.502,226.581-118.39
			c-9.369-31.186-67.999-10.393-129.407-5.537c-20.985,2.108-38.438,1.867-55.637,1.011
			c-105.195-5.956-147.779-34.538-391.322-19.417c-56.409,3.502-110.289,24.705-153.859,60.703
			C378.992,1464.102,228.775,1608.084,128.352,1689.843z"/>
	</g>
	<g>
		<path fill="#20111D" d="M508.507,1843.111c0.535,0.23,1.063,0.445,1.584,0.666c0.541,0.223,1.075,0.441,1.601,0.655l35.446-38.546
			l2.172-2.348l0.1-0.124l16.816-18.285l1.991-2.167l0.249-0.275l32.471-35.312l29.02-31.573c0.922,0.023,2.645,0.065,5.095,0.115
			c43.649,0.901,318.295,6.206,376.914-2.067c63.63-9.002,208.593-101.257,210.053-102.198c0.756-0.478,0.98-1.492,0.498-2.241
			c-0.471-0.751-1.493-0.979-2.24-0.485c-1.457,0.922-145.837,92.812-208.757,101.716c-60.147,8.505-349.593,2.597-379.709,1.966
			c-1.507-0.041-2.368-0.063-2.513-0.063l-0.746-0.01l-31.134,33.868l-31.767,34.549l-0.205,0.214l-2.038,2.217l-16.974,18.461
			l-0.065,0.076l-2.211,2.402L508.507,1843.111z"/>
	</g>
	<g>
		<path fill="#20111D" d="M1332.858,1433.929c0.8-0.409,1.775-0.098,2.187,0.702c0.41,0.797,0.095,1.774-0.701,2.186
			c-43.903,22.58-219.889,113.576-221.662,114.493l-0.252,0.13l-0.279,0.037c-68.375,9.134-197.2-29.815-198.493-30.211l-4.78-1.457
			l4.724-1.629c65.572-22.611,233.915-87.597,225.548-116.404c-0.249-0.859,0.245-1.761,1.106-2.011
			c0.862-0.248,1.76,0.245,2.011,1.106c4.74,16.316-31.312,40.805-110.216,74.861c-47.966,20.703-97.374,38.463-112.625,43.846
			c24.007,6.943,131.763,36.634,192.016,28.717C1119.088,1544.343,1289.722,1456.117,1332.858,1433.929z"/>
	</g>
</g>
</svg>
