<?xml version="1.0" encoding="utf-8"?>
<!-- Generator: Adobe Illustrator 16.0.0, SVG Export Plug-In . SVG Version: 6.00 Build 0)  -->
<!DOCTYPE svg PUBLIC "-//W3C//DTD SVG 1.1//EN" "http://www.w3.org/Graphics/SVG/1.1/DTD/svg11.dtd">
<svg version="1.1" id="Layer_1" xmlns="http://www.w3.org/2000/svg" xmlns:xlink="http://www.w3.org/1999/xlink" x="0px" y="0px"
	 width="666.067px" height="723.072px" viewBox="0 0 666.067 723.072" enable-background="new 0 0 666.067 723.072"
	 xml:space="preserve">
<g>
	<defs>
		<rect id="SVGID_1_" x="-162.786" y="-130.782" width="1000" height="1000"/>
	</defs>
	<clipPath id="SVGID_2_">
		<use xlink:href="#SVGID_1_"  overflow="visible"/>
	</clipPath>
	<path clip-path="url(#SVGID_2_)" fill="#939393" d="M232.755,674.426c-0.034,1.714,0.683,3.082,0.683,3.082
		c1.601,3.056,5.616,3.859,7.589,4.225c8.784,1.633,16.697-2.289,16.697-2.289c6.132-2.503,7.835-4.777,16.7-10.894
		c5.573-3.845,10.286-6.662,13.287-8.384c2.147-2.816,1.39-3.649,1.392-8.473C271.815,656.777,232.869,668.729,232.755,674.426"/>
	<path clip-path="url(#SVGID_2_)" fill="#E2C294" d="M266.758,614.767c2.084,6.666,0.023,14.051-3.701,19.957
		c-3.725,5.908-8.972,10.664-13.945,15.567s-9.834,10.183-12.47,16.65c-0.884,2.172-1.438,4.852-0.007,6.709
		c1.356,1.758,10.77,2.008,12.988,1.938c10.672-0.331,13.706-7.471,22.732-13.175c5.139-3.246,11.608-5.884,14.359-9.572
		c3.321-4.452,0.856-10.984,0.764-16.539c-0.085-5.168-0.17-10.337-0.255-15.505c-0.023-1.384-0.121-2.94-1.161-3.854
		c-0.73-0.644-1.753-0.802-2.717-0.934c-5.67-0.776-11.34-1.554-17.01-2.331L266.758,614.767z"/>
	<path clip-path="url(#SVGID_2_)" fill="#B59B76" d="M265.158,630.838c2.302-5.081,3.254-10.799,1.6-16.073l-0.422-1.081
		c5.665,0.777,11.34,1.546,17.004,2.323c0.973,0.131,1.989,0.292,2.724,0.94c1.038,0.908,1.136,2.465,1.157,3.849
		c0.054,3.341,0.108,6.691,0.173,10.042c-3.352,0.391-7.13,0.651-11.264,0.646C272.111,631.478,268.433,631.22,265.158,630.838"/>
	<path clip-path="url(#SVGID_2_)" fill="#353430" d="M238.113,660.304c-8.847,11.912-4.609,13.191-3.758,14.514
		c4.034,6.275,22.352,1.164,26.637-0.434c8.022-6.549,20.09-16.141,28.112-22.69c0.28-1.254,0.566-3.106,0.415-5.325
		c-0.159-2.332-0.706-3.67-1.215-5.841c-0.432-1.848-0.883-4.499-0.886-7.867c-2.886,0.903-7.253,1.897-12.601,1.738
		c-4.439-0.133-8.103-1.017-10.712-1.864c-3.339,5.604-6.21,8.397-8.674,10.929c-3.206,3.293-5.355,4.383-9.57,8.803
		C242.823,655.453,239.544,658.459,238.113,660.304"/>
	<path clip-path="url(#SVGID_2_)" fill="#939393" d="M386.365,674.426c0.033,1.714-0.684,3.082-0.684,3.082
		c-1.601,3.056-5.615,3.859-7.59,4.225c-8.783,1.633-16.696-2.289-16.696-2.289c-6.132-2.503-7.835-4.777-16.699-10.894
		c-5.573-3.845-10.286-6.662-13.288-8.384c-2.147-2.816-1.39-3.649-1.392-8.473C347.304,656.777,386.25,668.729,386.365,674.426"/>
	<path clip-path="url(#SVGID_2_)" fill="#E2C294" d="M352.362,614.767c-2.084,6.666-0.022,14.051,3.701,19.957
		c3.725,5.908,8.972,10.664,13.945,15.567c4.973,4.903,9.834,10.183,12.47,16.65c0.884,2.172,1.438,4.852,0.007,6.709
		c-1.355,1.758-10.77,2.008-12.988,1.938c-10.672-0.331-13.706-7.471-22.731-13.175c-5.139-3.246-11.608-5.884-14.359-9.572
		c-3.321-4.452-0.856-10.984-0.764-16.539c0.085-5.168,0.17-10.337,0.255-15.505c0.023-1.384,0.121-2.94,1.161-3.854
		c0.73-0.644,1.753-0.802,2.717-0.934c5.67-0.776,11.34-1.554,17.01-2.331L352.362,614.767z"/>
	<path clip-path="url(#SVGID_2_)" fill="#B59B76" d="M353.962,630.838c-2.302-5.081-3.254-10.799-1.601-16.073l0.423-1.081
		c-5.665,0.777-11.341,1.546-17.004,2.323c-0.973,0.131-1.989,0.292-2.724,0.94c-1.038,0.908-1.135,2.465-1.157,3.849
		c-0.054,3.341-0.108,6.691-0.173,10.042c3.352,0.391,7.13,0.651,11.265,0.646C347.008,631.478,350.687,631.22,353.962,630.838"/>
	<path clip-path="url(#SVGID_2_)" fill="#353430" d="M381.006,660.304c8.847,11.912,4.609,13.191,3.758,14.514
		c-4.034,6.275-22.352,1.164-26.637-0.434c-8.022-6.549-20.09-16.141-28.112-22.69c-0.28-1.254-0.566-3.106-0.415-5.325
		c0.159-2.332,0.706-3.67,1.215-5.841c0.432-1.848,0.883-4.499,0.886-7.867c2.886,0.903,7.253,1.897,12.601,1.738
		c4.439-0.133,8.104-1.017,10.712-1.864c3.339,5.604,6.21,8.397,8.674,10.929c3.206,3.293,5.355,4.383,9.57,8.803
		C376.296,655.453,379.576,658.459,381.006,660.304"/>
	<path clip-path="url(#SVGID_2_)" fill="#00828F" d="M307.504,440.928c-1.33,61.71-7.4,123.35-18.14,184.13h-24.51
		c-7.23-25.39-13.97-54.84-18.64-87.859c-1.31-9.28-2.39-18.33-3.27-27.15c-2.49-25.15-3.32-48.34-3.18-69.12H307.504z"/>
	<path clip-path="url(#SVGID_2_)" fill="#00828F" d="M379.705,440.928c-0.141,20.44-1.16,42.83-3.561,66.84
		c-1.14,11.47-2.6,23.311-4.42,35.49c-4.51,30.1-10.54,57.47-17.12,81.8h-24.5c-10.75-60.78-16.81-122.41-18.14-184.13H379.705z"/>
	<path clip-path="url(#SVGID_2_)" fill="#01747A" d="M307.455,440.928c-0.63,26.34-2.09,52.68-4.45,78.93
		c-21-0.72-43.1-5.34-60.06-9.81c-2.49-25.15-3.32-48.34-3.18-69.12H307.455z"/>
	<path clip-path="url(#SVGID_2_)" fill="#01747A" d="M379.705,440.928c-0.141,20.44-1.16,42.83-3.561,66.84
		c-17.8,5.271-39.87,10.59-59.72,11.891c-2.32-26.19-3.8-52.45-4.42-78.73H379.705z"/>
	<path clip-path="url(#SVGID_2_)" fill="#23AEB5" d="M391.054,492.198c-0.82,2.079-2.479,3.789-4.68,4.63
		c-18.521,7.05-47.17,15.22-82.77,15.12c-33.99-0.08-52.03-6.73-68.18-13.25c-2.28-0.91-3.9-2.851-4.47-5.101
		c-0.03-0.08-0.05-0.16-0.07-0.24c-0.2-0.92-0.24-1.89-0.08-2.859c0.36-2.21,0.77-4.73,1.22-7.521c0.1-0.66,0.21-1.34,0.32-2.029
		c4.33-27.131,11.94-77.101,18.58-118.9c0.89-5.62,2.01-16.12,4.24-37.12c2.94-27.74,4.96-51.41,6.34-69.49
		c-0.18,0.4-0.93,0.83-1.94,1.27c-1.07,0.47-2.43,0.96-3.76,1.46c-0.65,0.25-1.28,0.5-1.87,0.74c-1.49,0.64-2.66,1.29-2.87,1.94
		c0.47-2.29,0.94-5.07,1.26-8.25c0.63-6.27,0.69-14.12-0.95-22.91c-3.17-17.02-10.96-27.55-15.55-33.48
		c2.17-2.05,4.92-4.47,8.3-7.02c0,0,0.01,0.01,0.01,0c6.35-4.81,14.86-10.07,25.59-14.07c1.66-0.62,3.29-1.18,4.9-1.69
		c0.27-0.09,0.55-0.17,0.82-0.25c0,0,0.01-0.01,0.02-0.01c2.06-0.63,4.08-1.18,6.04-1.64c1.48-0.36,2.92-0.67,4.33-0.94h0.01
		c3.74-0.73,7.23-1.19,10.42-1.47h0.01c3.85-0.33,7.24-0.4,10.06-0.37c6.87,0.81,14.27,2.05,22.03,3.91
		c1.14,0.27,2.28,0.56,3.43,0.85c0.68,0.18,1.36,0.36,2.04,0.55c0.52,0.14,1.04,0.28,1.57,0.44c0.68,0.18,1.36,0.38,2.041,0.58h0.01
		c0.49,0.14,0.97,0.29,1.46,0.44c0.46,0.14,0.91,0.28,1.37,0.42c7.3,2.28,14.819,5.13,22.47,8.7c4.16,1.94,8.1,3.97,11.83,6.06
		c-7.39,18.28-11.45,34.75-13.7,48.47v0.02c-1.05,6.41-1.7,12.22-2.11,17.32v0.02c-0.529,6.57-0.739,13.01-0.699,19.31
		c0,0.26,0,0.51,0.01,0.76v0.02c0.26,27.94,5.47,53.16,10.1,75.37c2.271,10.92,4.21,18.26,4.761,20.77
		c8.869,40.14,13.079,74.54,17.38,106.51c0.26,1.92,0.52,3.84,0.79,5.74c0.06,0.46,0.119,0.92,0.189,1.38
		c0.07,0.58,0.15,1.15,0.23,1.72C391.734,489.527,391.544,490.938,391.054,492.198"/>
	<path clip-path="url(#SVGID_2_)" fill="#F9855D" d="M251.06,260.844c-0.628-0.388-1.027-1.644-1.244-3.539
		c0.045,0.126,0.091,0.263,0.137,0.4C250.272,258.641,250.649,259.691,251.06,260.844"/>
	<path clip-path="url(#SVGID_2_)" fill="#F9855D" d="M251.174,260.513c0.605-1.883,1.233-3.596,1.883-5.08
		C253.491,256.997,251.905,258.641,251.174,260.513"/>
	<path clip-path="url(#SVGID_2_)" fill="#F9855D" d="M253.8,258.264c-0.24-0.947-0.479-1.895-0.742-2.831
		C253.309,256.142,253.549,257.111,253.8,258.264"/>
	<path clip-path="url(#SVGID_2_)" fill="#F9855D" d="M361.738,255.273c-0.559,2.66-1.062,5.274-1.494,7.831
		c0.182-1.222,0.376-2.386,0.559-3.448C361.11,257.797,361.43,256.267,361.738,255.273"/>
	<path clip-path="url(#SVGID_2_)" fill-rule="evenodd" clip-rule="evenodd" fill="#23AEB5" d="M270.351,206.327
		c0.554,5.346-0.369,9.532-0.947,11.917c-4.923,20.306-20.455,56.935-22.796,62.429c-0.003,0.008-0.005,0.016-0.007,0.024
		c-0.115,0.612-0.254,1.212-0.381,1.801c-0.571,2.523-0.776,5.023-0.81,7.522l-29.443,1.729c2.589-43.38,8.364-75.735,14.574-87.98
		c3.46-6.823,8.5-11.072,8.501-11.073c7.294-6.149,15.786-7.641,20.854-8.042C263.835,188.947,269.319,196.359,270.351,206.327"/>
	<path clip-path="url(#SVGID_2_)" fill-rule="evenodd" clip-rule="evenodd" fill="#23AEB5" d="M405.685,290.021h-34.496
		c-0.649-11.083-4.056-23.88-9.45-34.747c-0.309,0.993-0.628,2.523-0.937,4.384c-8.89-14.38-23.2-28.823-29.051-38.32
		c-2.69-17.391,1.217-32.279,9.703-36.025c5.596-2.469,13.98-0.447,21.024,1.252c0,0,6.561,1.583,12.102,4.134
		C386.378,196.13,401.548,234.978,405.685,290.021"/>
	<path clip-path="url(#SVGID_2_)" fill-rule="evenodd" clip-rule="evenodd" fill="#1F9393" d="M257.498,281.653
		c-1.371-7.751-2.374-17.111-3.698-23.389c-0.252-1.153-0.491-2.123-0.742-2.831c-0.685,1.575-1.347,3.402-1.998,5.411
		c-1.838,5.81-3.436,13.081-4.452,19.827c0,0.012,0,0.035-0.011,0.046c-0.491,3.299-0.845,6.484-1.005,9.303h-1.758
		c-1.518-4.417-2.077-9.839,5.491-34.085c0.003-0.017,0.006-0.034,0.009-0.051c0.156-0.891,0.791-2.121,3.022-3.302
		c4.381-16.139,7.455-27.648,7.959-30.084c0.015-0.071,0.078-0.377,0.128-0.373c0.294,0.024-0.674,10.542-0.832,23.906
		c-0.047,3.949,0.02,4.52,0,7.53C259.567,260.179,259.163,269.674,257.498,281.653"/>
	<path clip-path="url(#SVGID_2_)" fill-rule="evenodd" clip-rule="evenodd" fill="#1F9393" d="M370.308,281.833
		c0.352-0.086-1.472-11.413-7.078-23.664c-0.487-1.067-0.984-2.043-1.49-2.893c-0.308,0.986-0.624,2.522-0.94,4.384
		c-0.868,4.99-1.781,12.248-2.712,16.94c-0.045,0.207-0.081,0.406-0.126,0.605c0.406-4.663,0.875-11.821,0.813-20.672
		c-0.031-4.426-0.177-6.615-0.256-10.41c-0.124-5.883-0.195-12.872,0.731-23.597c0.231,1.67,0.585,4.367,0.922,7.709
		c0.453,4.505,0.638,7.822,0.673,8.388C361.486,249.054,369.707,281.98,370.308,281.833"/>
	<path clip-path="url(#SVGID_2_)" fill-rule="evenodd" clip-rule="evenodd" fill="#E2C294" d="M336.205,171.938
		c-3.788,6.158-13.537,17.62-21.63,19.433c-1.927,6.494-2.05,10.782-3.977,17.276c-0.795-6.839-2.566-10.225-3.353-17.063
		c-5.969,0.041-22.45-11.725-25.804-19.818c1.87-0.804,5.543-1.369,10.397-4.821c6.076-4.322,8.765-9.881,9.774-12.324
		c5.444-0.303,10.889-0.599,16.333-0.902c0.426,3.001,1.55,5.682,3.107,8.011C324.759,167.257,330.941,170.791,336.205,171.938"/>
	<path clip-path="url(#SVGID_2_)" fill="#003399" d="M338.28,171.537c-2.222,3.714-4.707,7.109-7.438,10.151
		c-4.173,4.641-8.839,8.38-13.898,11.135c-0.795,4.682-1.41,6.781-2.173,9.404c-0.508,1.706-1.074,3.649-1.82,6.757
		c-0.303,1.254-1.271,2.107-2.411,2.156c-0.082,0-0.172,0.008-0.254,0c-1.23-0.09-2.197-1.09-2.361-2.46l-2.558-15.997
		c-3.624-0.918-7.109-2.517-10.373-4.739c-5.788-3.928-11.249-11.176-14.275-16.186c1.099-0.311,2.239-0.615,3.419-0.918
		c0.058-0.016,0.115-0.033,0.173-0.049c2.812,4.452,7.74,10.84,12.684,14.209c3.247,2.206,6.715,3.706,10.315,4.477l1.189,0.254
		l2.197,13.734c0.23-0.82,0.451-1.549,0.648-2.246c0.804-2.763,1.394-4.756,2.23-9.848l0.148-0.877l0.787-0.41
		c4.977-2.591,9.577-6.223,13.685-10.782c2.427-2.698,4.649-5.699,6.641-8.954c1.009,0.328,2.026,0.672,3.034,1.041
		C338.008,171.439,338.14,171.488,338.28,171.537"/>
	<path clip-path="url(#SVGID_2_)" fill-rule="evenodd" clip-rule="evenodd" fill="#003399" d="M280.688,175.13
		c-0.029,0.616-0.533,1.092-1.125,1.064c-0.593-0.028-1.049-0.55-1.02-1.166c0.029-0.616,0.533-1.092,1.126-1.064
		C280.26,173.993,280.716,174.515,280.688,175.13"/>
	<path clip-path="url(#SVGID_2_)" fill-rule="evenodd" clip-rule="evenodd" fill="#003399" d="M283.581,179.896
		c-0.029,0.616-0.533,1.092-1.125,1.064c-0.593-0.028-1.049-0.55-1.02-1.166c0.029-0.616,0.533-1.092,1.126-1.064
		C283.154,178.758,283.61,179.28,283.581,179.896"/>
	<path clip-path="url(#SVGID_2_)" fill-rule="evenodd" clip-rule="evenodd" fill="#003399" d="M286.565,183.531
		c-0.029,0.616-0.533,1.092-1.125,1.064c-0.593-0.028-1.049-0.55-1.02-1.166c0.029-0.616,0.533-1.092,1.126-1.064
		C286.138,182.393,286.594,182.915,286.565,183.531"/>
	<path clip-path="url(#SVGID_2_)" fill-rule="evenodd" clip-rule="evenodd" fill="#003399" d="M290.26,187.06
		c-0.029,0.616-0.533,1.092-1.125,1.064c-0.593-0.028-1.049-0.55-1.02-1.166c0.029-0.616,0.533-1.092,1.126-1.064
		C289.833,185.922,290.289,186.444,290.26,187.06"/>
	<path clip-path="url(#SVGID_2_)" fill-rule="evenodd" clip-rule="evenodd" fill="#003399" d="M294.056,189.301
		c0.484,0.354,0.599,1.051,0.256,1.555c-0.343,0.505-1.013,0.627-1.497,0.272c-0.484-0.354-0.598-1.051-0.256-1.555
		C292.902,189.068,293.572,188.947,294.056,189.301"/>
	<path clip-path="url(#SVGID_2_)" fill-rule="evenodd" clip-rule="evenodd" fill="#003399" d="M299.423,192.267
		c0.484,0.354,0.599,1.051,0.256,1.555c-0.343,0.505-1.013,0.627-1.497,0.272c-0.484-0.354-0.598-1.05-0.256-1.555
		C298.27,192.034,298.939,191.913,299.423,192.267"/>
	<path clip-path="url(#SVGID_2_)" fill-rule="evenodd" clip-rule="evenodd" fill="#003399" d="M303.89,194.401
		c0.484,0.354,0.599,1.051,0.256,1.555c-0.343,0.505-1.013,0.627-1.497,0.272c-0.484-0.354-0.598-1.051-0.256-1.555
		C302.736,194.168,303.406,194.047,303.89,194.401"/>
	<path clip-path="url(#SVGID_2_)" fill-rule="evenodd" clip-rule="evenodd" fill="#003399" d="M304.696,200.274
		c0.484,0.354,0.599,1.051,0.256,1.555c-0.343,0.505-1.013,0.627-1.497,0.272c-0.484-0.354-0.598-1.051-0.256-1.555
		C303.542,200.041,304.211,199.92,304.696,200.274"/>
	<path clip-path="url(#SVGID_2_)" fill-rule="evenodd" clip-rule="evenodd" fill="#003399" d="M305.521,205.733
		c0.467,0.378,0.55,1.079,0.184,1.566c-0.365,0.488-1.04,0.576-1.507,0.198c-0.467-0.378-0.55-1.08-0.184-1.567
		C304.379,205.443,305.054,205.355,305.521,205.733"/>
	<path clip-path="url(#SVGID_2_)" fill-rule="evenodd" clip-rule="evenodd" fill="#003399" d="M306.81,210.877
		c0.467,0.378,0.55,1.079,0.184,1.566c-0.365,0.488-1.04,0.576-1.507,0.198c-0.467-0.378-0.55-1.08-0.184-1.567
		C305.668,210.587,306.343,210.499,306.81,210.877"/>
	<path clip-path="url(#SVGID_2_)" fill-rule="evenodd" clip-rule="evenodd" fill="#003399" d="M311.251,213.191
		c0.467,0.378,0.55,1.079,0.184,1.566c-0.365,0.488-1.04,0.576-1.507,0.198c-0.467-0.378-0.55-1.08-0.184-1.567
		C310.11,212.902,310.785,212.813,311.251,213.191"/>
	<path clip-path="url(#SVGID_2_)" fill-rule="evenodd" clip-rule="evenodd" fill="#003399" d="M315.542,210.667
		c0.467,0.378,0.55,1.079,0.184,1.566c-0.365,0.488-1.04,0.576-1.507,0.198c-0.467-0.378-0.55-1.08-0.184-1.567
		C314.401,210.376,315.076,210.289,315.542,210.667"/>
	<path clip-path="url(#SVGID_2_)" fill-rule="evenodd" clip-rule="evenodd" fill="#003399" d="M318.927,199.714
		c0.467,0.378,0.55,1.079,0.184,1.566c-0.365,0.488-1.04,0.576-1.507,0.198c-0.467-0.378-0.55-1.08-0.184-1.567
		C317.785,199.424,318.46,199.336,318.927,199.714"/>
	<path clip-path="url(#SVGID_2_)" fill-rule="evenodd" clip-rule="evenodd" fill="#003399" d="M319.785,194.49
		c0.467,0.378,0.55,1.079,0.184,1.566c-0.365,0.488-1.04,0.576-1.507,0.198c-0.467-0.378-0.55-1.08-0.184-1.567
		C318.643,194.2,319.317,194.112,319.785,194.49"/>
	<path clip-path="url(#SVGID_2_)" fill-rule="evenodd" clip-rule="evenodd" fill="#003399" d="M323.963,191.697
		c0.467,0.378,0.55,1.079,0.184,1.566c-0.365,0.488-1.04,0.576-1.507,0.198c-0.467-0.378-0.55-1.08-0.184-1.567
		C322.821,191.407,323.496,191.319,323.963,191.697"/>
	<path clip-path="url(#SVGID_2_)" fill-rule="evenodd" clip-rule="evenodd" fill="#003399" d="M328.267,188.549
		c0.467,0.378,0.55,1.079,0.184,1.566c-0.365,0.488-1.04,0.576-1.507,0.198c-0.467-0.378-0.55-1.08-0.184-1.567
		C327.125,188.259,327.8,188.171,328.267,188.549"/>
	<path clip-path="url(#SVGID_2_)" fill-rule="evenodd" clip-rule="evenodd" fill="#003399" d="M331.891,185.011
		c0.467,0.378,0.55,1.079,0.184,1.566c-0.365,0.488-1.04,0.576-1.507,0.198c-0.467-0.378-0.55-1.08-0.184-1.567
		C330.749,184.721,331.424,184.633,331.891,185.011"/>
	<path clip-path="url(#SVGID_2_)" fill-rule="evenodd" clip-rule="evenodd" fill="#003399" d="M335.639,181.083
		c0.467,0.378,0.55,1.079,0.184,1.567c-0.365,0.487-1.04,0.575-1.507,0.197c-0.467-0.378-0.55-1.08-0.184-1.567
		C334.497,180.793,335.171,180.705,335.639,181.083"/>
	<path clip-path="url(#SVGID_2_)" fill-rule="evenodd" clip-rule="evenodd" fill="#003399" d="M338.185,177.781
		c0.467,0.378,0.551,1.079,0.185,1.566c-0.365,0.488-1.04,0.576-1.507,0.198c-0.467-0.378-0.55-1.08-0.184-1.567
		C337.043,177.491,337.718,177.403,338.185,177.781"/>
	<path clip-path="url(#SVGID_2_)" fill-rule="evenodd" clip-rule="evenodd" fill="#003399" d="M340.361,174.05
		c0.467,0.378,0.55,1.079,0.184,1.566c-0.364,0.488-1.04,0.576-1.507,0.198s-0.55-1.08-0.184-1.567
		C339.219,173.76,339.894,173.672,340.361,174.05"/>
	<path clip-path="url(#SVGID_2_)" fill-rule="evenodd" clip-rule="evenodd" fill="#003399" d="M317.294,205.242
		c0.467,0.378,0.55,1.079,0.184,1.566c-0.365,0.488-1.04,0.576-1.507,0.198c-0.467-0.378-0.55-1.08-0.184-1.567
		C316.152,204.952,316.827,204.864,317.294,205.242"/>
	<path clip-path="url(#SVGID_2_)" fill-rule="evenodd" clip-rule="evenodd" fill="#B59B76" d="M321.052,161.73
		c-2.96,2.05-8.724,5.116-15.882,4.133c-2.919-0.402-5.338-1.386-7.175-2.387c2.444-3.337,3.288-6.772,3.616-8.855
		c5.445-0.303,10.889-0.598,16.333-0.902C318.372,156.72,319.495,159.401,321.052,161.73"/>
	<path clip-path="url(#SVGID_2_)" fill="#2E2E30" d="M283.127,38.702c1.872-2.589,6.994-8.909,15.694-11.068
		c5.891-1.462,10.697-0.341,15.694,0.826c9.23,2.153,15.544,6.314,20.65,9.746c5.491,3.691,11.192,7.522,16.686,14.703
		c5.909,7.725,7.836,14.434,10.903,25.111c1.472,5.125,1.858,8.12,0.826,11.234c-0.906,2.732-2.204,3.443-3.14,6.938
		c-0.309,1.155-1.083,4.5-0.33,8.425c0.845,4.401,2.653,4.554,4.791,10.078c1.588,4.103,2.747,7.097,1.817,10.407
		c-0.396,1.411-2.302,3.915-6.113,8.921c-1.89,2.484-2.715,3.448-3.138,5.287c-0.191,0.827-0.885,3.844,0.991,6.608
		c1.797,2.647,4.688,3.202,5.286,3.304c-0.286,2.375-1.83,4.378-3.965,5.121c-2.618,0.912-5.698-0.221-7.269-2.808
		c0.667,0.938,1.609,2.501,2.146,4.625c0.429,1.686,1.05,4.138,0,6.443c-0.979,2.152-2.367,1.881-3.965,4.791
		c-0.687,1.253-1.316,2.443-0.991,3.8c0.508,2.105,2.932,3.006,3.305,3.138c-1.86,1.278-4.312,1.273-6.112,0
		c-1.664-1.175-2.503-3.241-2.147-5.286c-0.27,1.149-1.519,5.895-6.112,8.921c-6.466,4.258-13.666,1.23-14.208,0.991
		c2.839,0.878,5.618-0.175,6.608-2.148c0.808-1.608,0.353-3.683-0.66-4.956c-1.358-1.705-2.875-0.912-4.956-2.808
		c-0.177-0.161-2.731-2.542-2.148-4.626c0.374-1.336,1.747-1.514,1.817-2.643c0.065-1.036-1.024-1.94-2.313-2.808
		c-4.031-2.717-7.764-3.635-7.764-3.635c-7.159-1.761-10.887-2.677-13.051-0.661c-1.11,1.035-0.596,1.711-2.148,7.435
		c-1.09,4.022-1.636,6.033-2.808,7.764c-2.901,4.283-7.691,5.519-8.095,5.617c-6.774,1.644-12.136-2.803-12.72-3.304
		c3.028-0.386,6.057-0.771,9.086-1.157c-0.193-0.014-2.668-0.245-3.8-2.312c-1.012-1.848-0.515-4.367,1.322-5.948
		c-0.909,0.012-5.49-0.02-9.252-3.634c-3.453-3.318-3.886-7.418-3.965-8.425c1.494,1.295,3.401,1.117,4.131,0.165
		c0.629-0.821,0.443-2.296-0.331-2.974c-1.139-0.997-2.632,0.538-4.295-0.165c-1.798-0.76-1.355-3.105-3.635-8.095
		c-0.794-1.738-1.309-2.866-2.312-4.13c-2.514-3.166-4.793-3.034-6.774-4.956c-3.59-3.483-2.51-10.131-1.982-13.381
		c1.147-7.063,4.257-8.148,4.956-14.538c0.476-4.354-0.595-7.254-1.487-10.738c-0.662-2.589-4.066-16.596-0.991-29.736
		c3.789-16.192,15.475-22.771,16.52-23.294c1.815-0.908,3.635-1.136,3.635-1.136c0.418-0.052,1.595-0.173,3.097,0.062
		C281.39,37.994,282.414,38.375,283.127,38.702"/>
	<path clip-path="url(#SVGID_2_)" fill="#E2C294" d="M347.967,99.176c0.093,2.502,0.402,15.171-6.373,29.251
		c-2.372,4.931-15.357,31.914-36.426,31.719c-22.088-0.204-34.631-30.104-36.096-33.597c-5.278-12.582-5.036-23.721-4.809-27.717
		c1.4-24.647,7.733-49.443,39.441-49.459C335.911,49.356,346.992,73.021,347.967,99.176"/>
	<path clip-path="url(#SVGID_2_)" fill="#E2C294" d="M266.846,112.711c-0.981-4.518-2.511-7.615-3.574-9.43
		c-0.939-1.602-1.969-2.979-3.66-3.53c-0.385-0.126-1.569-0.512-2.669,0c-1.276,0.593-1.804,2.097-2.153,3.746
		c-1.101,5.196-0.046,10.028,0.344,11.625c0.359,1.472,1.517,4.067,3.832,9.258c0.96,2.152,1.728,3.764,3.488,4.607
		c0.224,0.107,1.862,0.864,3.574,0.344c2.413-0.732,4.157-3.751,3.918-7.406C268.913,118.854,267.879,115.782,266.846,112.711"/>
	<path clip-path="url(#SVGID_2_)" fill="#E2C294" d="M344.004,109.482c1.047-4.99,2.679-8.411,3.813-10.415
		c1.002-1.77,2.101-3.29,3.904-3.899c0.411-0.139,1.674-0.566,2.849,0c1.361,0.655,1.924,2.316,2.296,4.137
		c1.175,5.74,0.049,11.076-0.367,12.84c-0.383,1.625-1.618,4.491-4.088,10.224c-1.024,2.377-1.843,4.158-3.721,5.089
		c-0.239,0.118-1.986,0.954-3.813,0.38c-2.574-0.808-4.434-4.143-4.18-8.179L344.004,109.482z"/>
	<path clip-path="url(#SVGID_2_)" fill="#B59B76" d="M301.556,114.696c-0.637,3.173-1.436,6.236-2.369,9.319
		c-0.299,0.963-0.722,1.984-0.902,2.94c-0.075,0.453-0.052,0.795,0.123,1.108c0.181,0.356,0.603,0.615,0.928,0.848
		c2.56,1.567,6.144,0.872,8.644-0.604c-2.306,2.352-6.32,3.361-9.319,1.689c-2.883-1.534-1.515-4.135-0.675-6.404
		C299.07,120.597,300.146,117.566,301.556,114.696"/>
	<path clip-path="url(#SVGID_2_)" fill="#B59B76" d="M292.548,138.537c6.125,3.768,13.398,4.881,20.23,2.563
		c2.23-0.729,4.379-1.747,6.444-2.992c-3.716,3.603-8.99,5.681-14.195,5.532C300.447,143.563,295.83,141.712,292.548,138.537"/>
	<path clip-path="url(#SVGID_2_)" fill="#240F0F" d="M298.821,92.97c0.163-0.369-4.139-2.916-8.921-4.626
		c-2.95-1.054-5.552-1.601-7.483-1.903c-0.353-0.055-0.711-0.018-1.044,0.111c-0.851,0.328-1.801,0.772-2.789,1.379
		c-2.068,1.27-3.513,2.766-4.465,3.957c-0.095,0.119,0.03,0.287,0.172,0.233c0.411-0.156,0.824-0.314,1.237-0.473
		c4.756-1.829,5.126-2.116,6.029-2.396c2.018-0.622,5.337,0.32,11.895,2.23C297.354,92.62,298.732,93.172,298.821,92.97"/>
	<path clip-path="url(#SVGID_2_)" fill="#240F0F" d="M306.088,92.574c-0.163-0.369,4.139-2.916,8.921-4.626
		c2.95-1.054,5.552-1.601,7.483-1.903c0.353-0.055,0.711-0.018,1.044,0.111c0.851,0.328,1.801,0.771,2.789,1.379
		c2.068,1.27,3.513,2.766,4.465,3.957c0.095,0.119-0.03,0.287-0.172,0.233c-0.411-0.156-0.824-0.314-1.237-0.473
		c-4.756-1.829-5.126-2.116-6.029-2.395c-2.018-0.622-5.338,0.32-11.895,2.23C307.556,92.224,306.177,92.776,306.088,92.574"/>
	<path clip-path="url(#SVGID_2_)" fill="#2E2E30" d="M353.958,92.681c-0.835,0.806-1.933,2.065-2.727,3.841
		c-0.962,2.154-0.731,3.401-1.733,5.328c-0.523,1.004-1.45,2.327-3.223,3.593c-0.124-2.189-0.248-4.378-0.371-6.567
		c-0.604,2.706-1.326,5.536-2.188,8.467c-1.582,5.372-3.389,10.239-5.246,14.579c0.23-5.267,0.083-9.66-0.124-12.886
		c-0.429-6.722-1.128-8.604-2.354-10.16c-1.75-2.222-4.015-3.071-7.062-4.213c-5.423-2.032-6.722-0.801-11.771-2.478
		c-3.162-1.05-7.348-2.44-10.036-6.195c-2.235-3.123-1.318-4.926-4.212-9.788c-1.497-2.514-2.997-4.14-4.337-5.575
		c-2.313-2.478-6.431-6.267-12.886-9.417c-1.92,4.593-4.451,9.778-7.805,15.24c-2.644,4.305-5.353,8.056-7.93,11.275
		c0.905,2.283,2.38,6.933,1.611,12.762c-1.108,8.398-6.133,13.634-7.806,15.24c0.462-1.728,1.223-5.535-0.062-10.036
		c-0.936-3.281-2.575-5.586-3.655-6.877c-0.227-1.59-3.768-29.598,16.479-45.905c11.871-9.562,25.449-9.889,27.919-9.912
		c3.268-0.031,15.351,0.212,26.762,8.425c9.509,6.844,13.559,15.627,17.016,23.128C351.508,81.692,353.115,88.107,353.958,92.681"/>
	<path clip-path="url(#SVGID_2_)" fill="#D1D1D1" d="M266.111,126.939c0,1.779-1.172,3.221-2.617,3.221
		c-1.446,0-2.618-1.442-2.618-3.221c0-1.779,1.172-3.221,2.618-3.221C264.939,123.719,266.111,125.161,266.111,126.939"/>
	<path clip-path="url(#SVGID_2_)" fill="#D1D1D1" d="M267.043,136.162c-0.18-2.67-1.58-5-2.5-6.27c-0.11-0.15-0.21-0.29-0.31-0.41
		c-0.29-0.38-0.49-0.59-0.49-0.59s-0.15,0.14-0.39,0.42c-0.16,0.18-0.35,0.42-0.56,0.73c-0.55,0.76-1.21,1.91-1.72,3.46
		c-0.26,0.78-0.48,1.67-0.63,2.66c-0.6,3.97,0.77,7.27,3.3,7.27c0.95,0,1.92-0.48,2.56-1.74
		C266.894,140.562,267.224,138.792,267.043,136.162 M265.573,140.861c-0.12,0.29-0.24,0.52-0.36,0.7c-0.09,0.13-0.17,0.23-0.25,0.31
		c-0.34,0.37-0.75,0.55-1.22,0.55c-0.53,0-0.97-0.22-1.36-0.67c-0.12-0.13-0.22-0.28-0.31-0.45c-0.14-0.22-0.26-0.47-0.35-0.74
		c-0.29-0.79-0.43-1.78-0.4-2.86c0-0.22,0.02-0.44,0.04-0.67c0.02-0.24,0.05-0.48,0.08-0.72c0.11-0.71,0.26-1.37,0.43-1.96
		c0.01-0.05,0.03-0.1,0.05-0.15c0.07-0.25,0.15-0.49,0.22-0.72c0.5-1.37,1.11-2.37,1.57-3c0.52,0.71,1.2,1.79,1.69,3.08v0.01
		c0.11,0.27,0.21,0.54,0.29,0.83c0.17,0.58,0.29,1.2,0.34,1.83c0.03,0.42,0.04,0.81,0.04,1.17c0,0.23,0,0.46-0.01,0.67
		c-0.03,0.94-0.15,1.68-0.31,2.24v0.01C265.704,140.521,265.633,140.701,265.573,140.861"/>
	
		<rect x="261.954" y="138.668" transform="matrix(0.8586 0.5126 -0.5126 0.8586 108.9815 -114.6149)" clip-path="url(#SVGID_2_)" fill="#D1D1D1" width="0.674" height="3.223"/>
	
		<rect x="263.222" y="139.942" transform="matrix(0.5126 0.8586 -0.8586 0.5126 249.5121 -159.0203)" clip-path="url(#SVGID_2_)" fill="#D1D1D1" width="3.222" height="0.674"/>
	
		<rect x="264.005" y="137.36" transform="matrix(0.998 0.0626 -0.0626 0.998 9.137 -16.3418)" clip-path="url(#SVGID_2_)" fill="#D1D1D1" width="2.91" height="0.675"/>
	
		<rect x="260.472" y="137.054" transform="matrix(0.998 0.0627 -0.0627 0.998 9.1277 -16.1413)" clip-path="url(#SVGID_2_)" fill="#D1D1D1" width="2.648" height="0.674"/>
	
		<rect x="260.919" y="134.443" transform="matrix(0.5126 0.8586 -0.8586 0.5126 243.6909 -159.7245)" clip-path="url(#SVGID_2_)" fill="#D1D1D1" width="3.223" height="0.675"/>
	
		<rect x="264.735" y="133.169" transform="matrix(0.8583 0.5131 -0.5131 0.8583 106.7122 -116.9164)" clip-path="url(#SVGID_2_)" fill="#D1D1D1" width="0.675" height="3.223"/>
	<path clip-path="url(#SVGID_2_)" fill="#D1D1D1" d="M349.398,125.981c0,1.779-1.173,3.221-2.617,3.221
		c-1.446,0-2.618-1.442-2.618-3.221c0-1.779,1.172-3.221,2.618-3.221C348.225,122.76,349.398,124.202,349.398,125.981"/>
	<path clip-path="url(#SVGID_2_)" fill="#D1D1D1" d="M350.324,135.201c-0.181-2.67-1.59-5.01-2.5-6.27
		c-0.38-0.52-0.67-0.85-0.771-0.96c-0.02-0.03-0.03-0.04-0.03-0.04s-0.02,0.02-0.05,0.05c-0.13,0.12-0.479,0.49-0.899,1.1
		c-0.811,1.15-1.9,3.16-2.34,6.12c-0.601,3.98,0.77,7.28,3.289,7.28C348.853,142.481,350.694,140.721,350.324,135.201
		 M348.853,139.901c-0.109,0.3-0.239,0.54-0.359,0.72c-0.09,0.12-0.17,0.22-0.24,0.3c-0.34,0.36-0.75,0.54-1.23,0.54
		c-0.52,0-0.97-0.21-1.35-0.66c-0.12-0.14-0.22-0.29-0.31-0.45c-0.141-0.22-0.261-0.47-0.351-0.74c-0.3-0.8-0.439-1.79-0.399-2.87
		c0-0.22,0.01-0.44,0.04-0.67c0.01-0.24,0.04-0.48,0.08-0.72c0.1-0.72,0.25-1.37,0.43-1.97c0.08-0.3,0.18-0.59,0.27-0.86
		c0.5-1.37,1.11-2.37,1.57-3c0.51,0.71,1.2,1.79,1.69,3.08c0.109,0.27,0.199,0.55,0.29,0.84c0.17,0.58,0.289,1.2,0.329,1.83
		c0.03,0.42,0.051,0.8,0.051,1.17c0,0.24,0,0.46-0.011,0.68C349.313,138.401,349.103,139.291,348.853,139.901"/>
	
		<rect x="345.24" y="137.71" transform="matrix(0.8586 0.5126 -0.5126 0.8586 120.2637 -157.4409)" clip-path="url(#SVGID_2_)" fill="#D1D1D1" width="0.674" height="3.223"/>
	
		<rect x="346.508" y="138.984" transform="matrix(0.5125 0.8587 -0.8587 0.5125 289.3564 -231.0089)" clip-path="url(#SVGID_2_)" fill="#D1D1D1" width="3.222" height="0.674"/>
	
		<rect x="347.291" y="136.402" transform="matrix(0.998 0.0626 -0.0626 0.998 9.2419 -21.559)" clip-path="url(#SVGID_2_)" fill="#D1D1D1" width="2.91" height="0.675"/>
	
		<rect x="343.757" y="136.095" transform="matrix(0.998 0.0627 -0.0627 0.998 9.2296 -21.3603)" clip-path="url(#SVGID_2_)" fill="#D1D1D1" width="2.649" height="0.676"/>
	
		<rect x="344.205" y="133.484" transform="matrix(0.5127 0.8586 -0.8586 0.5127 283.4157 -231.6962)" clip-path="url(#SVGID_2_)" fill="#D1D1D1" width="3.223" height="0.675"/>
	
		<rect x="348.021" y="132.21" transform="matrix(0.8583 0.5131 -0.5131 0.8583 118.0202 -159.7871)" clip-path="url(#SVGID_2_)" fill="#D1D1D1" width="0.675" height="3.223"/>
	<path clip-path="url(#SVGID_2_)" fill="#B59B76" d="M308.861,109.328c0-6.364,4.755-11.545,9.664-12.688
		c5.667-1.321,10.716,3.105,11.44,3.805c2.541,2.456,3.289,5.386,3.8,6.952c-1.227,1.411-4.675,4.995-10.16,6.069
		C315.746,115.004,309.867,110.183,308.861,109.328"/>
	<path clip-path="url(#SVGID_2_)" fill="#FFFFFF" d="M308.861,109.779c0.827-5.799,4.755-10.371,9.664-11.399
		c5.667-1.186,10.303,2.84,11.027,3.469c2.541,2.207,3.702,4.789,4.213,6.195c-1.227,1.268-4.675,4.488-10.16,5.452
		C315.746,114.878,309.867,110.546,308.861,109.779"/>
	<path clip-path="url(#SVGID_2_)" fill="#746653" d="M328.034,107.67c0,3.718-3.014,6.732-6.732,6.732
		c-3.718,0-6.732-3.014-6.732-6.732c0-3.718,3.014-6.732,6.732-6.732C325.021,100.938,328.034,103.952,328.034,107.67"/>
	<path clip-path="url(#SVGID_2_)" fill="#3A332A" d="M324.4,108.827c0,1.711-1.387,3.098-3.098,3.098
		c-1.71,0-3.097-1.387-3.097-3.098c0-1.711,1.387-3.097,3.097-3.097C323.013,105.73,324.4,107.116,324.4,108.827"/>
	<path clip-path="url(#SVGID_2_)" fill="#FFFFFF" d="M325.556,108.6c0,0.639-0.518,1.156-1.156,1.156
		c-0.639,0-1.157-0.517-1.157-1.156c0-0.639,0.518-1.156,1.157-1.156C325.039,107.444,325.556,107.961,325.556,108.6"/>
	<path clip-path="url(#SVGID_2_)" fill="#433015" d="M333.765,108.045c-0.807-1.069-1.537-2.226-2.492-3.159
		c-0.911-0.924-1.926-1.704-3.017-2.323c-4.338-2.507-9.815-2.418-14.011,0.324c-2.37,1.514-4.461,4.007-5.384,6.81
		c-0.232-3.258,1.509-6.436,4.045-8.6C320.084,94.985,332.003,98.538,333.765,108.045"/>
	<path clip-path="url(#SVGID_2_)" fill="#433015" d="M331.679,103.676c1.517-0.437,2.973-1.371,3.821-2.735
		c-0.51,1.15-1.427,2.084-2.477,2.766c-0.36,0.231-0.719,0.434-1.137,0.611L331.679,103.676z"/>
	<path clip-path="url(#SVGID_2_)" fill="#433015" d="M332.596,105.168c1.278-0.031,2.743-0.319,3.585-1.377
		c-0.506,0.934-1.518,1.469-2.498,1.791c-0.339,0.109-0.671,0.199-1.042,0.259L332.596,105.168z"/>
	<path clip-path="url(#SVGID_2_)" fill="#433015" d="M333.467,106.657c0.687,0.146,1.479,0.11,2.118-0.227
		c0.223-0.113,0.416-0.279,0.596-0.465c-0.398,0.71-1.18,1.122-1.964,1.275c-0.273,0.053-0.532,0.089-0.836,0.086L333.467,106.657z"
		/>
	<path clip-path="url(#SVGID_2_)" fill="#B59B76" d="M295.543,109.328c0-6.364-4.755-11.545-9.664-12.688
		c-5.667-1.321-10.716,3.105-11.44,3.805c-2.541,2.456-3.289,5.386-3.8,6.952c1.227,1.411,4.675,4.995,10.16,6.069
		C288.659,115.004,294.538,110.183,295.543,109.328"/>
	<path clip-path="url(#SVGID_2_)" fill="#FFFFFF" d="M295.543,109.779c-0.827-5.799-4.755-10.371-9.664-11.399
		c-5.667-1.186-10.303,2.84-11.027,3.469c-2.541,2.207-3.702,4.789-4.213,6.195c1.227,1.268,4.675,4.488,10.16,5.452
		C288.659,114.878,294.538,110.546,295.543,109.779"/>
	<path clip-path="url(#SVGID_2_)" fill="#746653" d="M277.413,107.493c0,3.718,3.014,6.732,6.732,6.732
		c3.718,0,6.732-3.014,6.732-6.732c0-3.718-3.014-6.732-6.732-6.732C280.427,100.761,277.413,103.775,277.413,107.493"/>
	<path clip-path="url(#SVGID_2_)" fill="#3A332A" d="M281.047,108.649c0,1.711,1.387,3.098,3.098,3.098
		c1.71,0,3.097-1.387,3.097-3.098c0-1.711-1.387-3.097-3.097-3.097C282.434,105.552,281.047,106.938,281.047,108.649"/>
	<path clip-path="url(#SVGID_2_)" fill="#FFFFFF" d="M279.891,108.649c0,0.639,0.518,1.156,1.156,1.156
		c0.639,0,1.157-0.517,1.157-1.156c0-0.639-0.518-1.156-1.157-1.156C280.409,107.493,279.891,108.01,279.891,108.649"/>
	<path clip-path="url(#SVGID_2_)" fill="#433015" d="M270.639,108.045c0.807-1.069,1.537-2.226,2.492-3.159
		c0.911-0.924,1.926-1.704,3.017-2.323c4.338-2.507,9.815-2.418,14.011,0.324c2.37,1.514,4.461,4.007,5.384,6.81
		c0.232-3.258-1.509-6.436-4.045-8.6C284.32,94.985,272.401,98.538,270.639,108.045"/>
	<path clip-path="url(#SVGID_2_)" fill="#433015" d="M272.725,103.676c-1.517-0.437-2.973-1.371-3.821-2.735
		c0.51,1.15,1.427,2.084,2.477,2.766c0.36,0.231,0.719,0.434,1.137,0.611L272.725,103.676z"/>
	<path clip-path="url(#SVGID_2_)" fill="#433015" d="M271.808,105.168c-1.278-0.031-2.743-0.319-3.585-1.377
		c0.506,0.934,1.518,1.469,2.498,1.791c0.339,0.109,0.671,0.199,1.042,0.259L271.808,105.168z"/>
	<path clip-path="url(#SVGID_2_)" fill="#433015" d="M270.937,106.657c-0.687,0.146-1.48,0.11-2.118-0.227
		c-0.223-0.113-0.416-0.279-0.596-0.465c0.398,0.71,1.18,1.122,1.964,1.275c0.273,0.053,0.532,0.089,0.836,0.086L270.937,106.657z"
		/>
	<path clip-path="url(#SVGID_2_)" fill="#D1D1D1" d="M508.087,663.217c-15.935-0.651-31.858-1.301-47.794-1.952
		c7.911-15.513,17.968-39.027,23.617-69.014c5.594-29.758,13.196-70.145-1.814-98.715c-8.299-15.811-21.779-24.68-38.034-30.204
		c-0.045-0.012-0.08-0.023-0.114-0.034c-7.819-2.66-16.289-4.543-25.124-6.063c-41.778-7.145-91.969-6.049-122.572-38.9
		c-23.561-25.284-41.562-77.187-3.368-196.735h39.758c0,0-40.077,108.738-8.207,169.088
		c31.858,60.351,122.435,50.294,172.752,82.164c5.753,3.642,10.33,8.938,13.926,15.467
		C539.011,538.887,508.087,663.217,508.087,663.217"/>
	<path clip-path="url(#SVGID_2_)" fill="#E2C294" d="M281.646,225.449l9.528-6.794c0,0,0.536-5.973,2.493-8.046
		c1.956-2.073,3.214-2.911,3.214-2.911l13.978,14.427l-15.515,15.624L281.646,225.449z"/>
	<path clip-path="url(#SVGID_2_)" fill="#1F9393" d="M285.452,218.771c1.429,2.173,3.375,4.712,5.988,7.251
		c4.095,3.978,8.26,6.439,11.359,7.937c-4.461,6.121-38.996,53.622-49.475,62.289c-4.891,4.044-12.317,12.671-22.845,12.66
		c-1.951-0.003-8.739,0.256-12.509-4.327c-3.128-3.801-2.55-8.915-2.245-11.302c1.87-14.674,16.009-26.007,20.489-29.641
		C248.469,253.699,264.634,239.576,285.452,218.771"/>
	<path clip-path="url(#SVGID_2_)" fill="#1F9393" d="M332.086,218.771c-1.429,2.173-3.376,4.712-5.988,7.251
		c-4.095,3.978-8.26,6.439-11.359,7.937c4.461,6.121,38.996,53.622,49.476,62.289c13.656,12.591,21.422,12.708,23.484,12.658
		c5.682-0.14,10.155-2.955,11.869-4.325c6.167-4.929,6.139-13.508,6.131-14.56c-0.085-11.763-12.482-20.381-19.893-25.762
		C372.63,254.69,354.602,240.375,332.086,218.771"/>
	<path clip-path="url(#SVGID_2_)" fill="#EFECE6" d="M348.989,237.75l-43.371,6.315c4.694-12.951,3.132-25.362-4.003-31.098
		c-1.474-1.185-3.746-2.535-7.156-3.198c0.174-1.109,0.58-2.726,1.65-4.323c1.29-1.926,3.661-4.027,9.347-5.26
		c11.112-2.411,26.635-0.205,31.134,2.26C341.089,204.912,352.058,220.487,348.989,237.75"/>
	<path clip-path="url(#SVGID_2_)" fill="#E2C294" d="M292.325,213.087c0.46-2.002,1.5-5.285,4.093-8.4
		c2.76-3.316,7.157-6.297,8.25-5.403c0.686,0.56-0.069,2.53-0.137,2.709c-0.793,2.068-2.391,2.478-3.449,3.919
		c-0.794,1.081-1.459,2.982-0.592,6.55c-0.745-0.333-2.507-0.999-4.745-0.673C294.149,212.022,292.977,212.662,292.325,213.087"/>
	<path clip-path="url(#SVGID_2_)" fill="#383838" d="M310.858,232.586c-0.156,0-0.305-0.085-0.381-0.234
		c-0.107-0.21-0.024-0.468,0.187-0.575c5.471-2.788,11.325-4.461,17.399-4.973c4.891-0.411,9.808-0.051,14.613,1.071
		c0.23,0.054,0.373,0.284,0.32,0.514c-0.055,0.23-0.288,0.375-0.515,0.319c-4.719-1.101-9.541-1.456-14.348-1.051
		c-5.963,0.503-11.71,2.145-17.082,4.882C310.991,232.571,310.924,232.586,310.858,232.586"/>
	<path clip-path="url(#SVGID_2_)" fill="#383838" d="M310.858,222.032c-0.158,0-0.312-0.089-0.386-0.242
		c-0.102-0.213-0.013-0.469,0.2-0.572c4.889-2.361,10.099-3.902,15.486-4.58c5.512-0.695,11.066-0.464,16.509,0.68
		c0.231,0.049,0.379,0.276,0.331,0.508c-0.049,0.23-0.274,0.375-0.507,0.331c-5.349-1.125-10.809-1.351-16.227-0.67
		c-5.295,0.666-10.415,2.181-15.221,4.503C310.984,222.019,310.92,222.032,310.858,222.032"/>
	<path clip-path="url(#SVGID_2_)" fill="#383838" d="M307.102,212.971c-0.178,0-0.344-0.112-0.405-0.29
		c-0.077-0.224,0.043-0.467,0.267-0.543c4.529-1.542,9.221-2.673,13.945-3.361c5.927-0.863,11.967-1.04,17.951-0.527
		c0.235,0.02,0.41,0.228,0.39,0.463c-0.021,0.235-0.231,0.411-0.464,0.39c-5.917-0.506-11.891-0.331-17.754,0.521
		c-4.672,0.68-9.313,1.799-13.792,3.324C307.195,212.964,307.148,212.971,307.102,212.971"/>
	<path clip-path="url(#SVGID_2_)" fill="#383838" d="M301.234,206.74c-0.173,0-0.336-0.105-0.4-0.276
		c-0.084-0.221,0.028-0.469,0.248-0.552c4.272-1.621,8.719-2.808,13.217-3.529c6.173-0.99,12.465-1.111,18.706-0.363
		c0.234,0.029,0.402,0.242,0.373,0.476c-0.028,0.235-0.233,0.397-0.476,0.375c-6.159-0.739-12.374-0.618-18.467,0.357
		c-4.441,0.712-8.831,1.884-13.049,3.484C301.335,206.731,301.284,206.74,301.234,206.74"/>
	<path clip-path="url(#SVGID_2_)" fill="#EFECE6" d="M508.087,663.217c-15.935-0.651-31.858-1.301-47.794-1.952
		c7.911-15.513,17.968-39.027,23.617-69.014c5.594-29.758,13.196-70.145-1.814-98.715c-8.299-15.811-21.779-24.68-38.034-30.204
		c16.799,2.948,55.224,8.049,67.051,24.986C539.011,538.887,508.087,663.217,508.087,663.217"/>
	<path clip-path="url(#SVGID_2_)" fill="#383838" d="M510.673,500.289c-0.104,0-0.212-0.033-0.303-0.102
		c-7.566-5.747-23.392-10.437-24.063-10.634c-0.266-0.078-0.416-0.355-0.339-0.619c0.077-0.266,0.356-0.416,0.62-0.34
		c0.679,0.198,16.675,4.939,24.388,10.796c0.219,0.167,0.262,0.48,0.095,0.701C510.974,500.221,510.824,500.289,510.673,500.289"/>
	<path clip-path="url(#SVGID_2_)" fill="#383838" d="M475.081,646.803c-0.239,0-0.452-0.174-0.491-0.418
		c-0.046-0.272,0.138-0.53,0.41-0.575c0.743-0.123,18.291-2.989,27.549-1.039c0.27,0.057,0.442,0.322,0.387,0.594
		c-0.059,0.269-0.321,0.439-0.593,0.385c-9.069-1.915-26.444,0.926-27.179,1.047C475.136,646.801,475.108,646.803,475.081,646.803"
		/>
	<path clip-path="url(#SVGID_2_)" fill="#383838" d="M480.497,629.617c-0.228,0-0.433-0.155-0.487-0.386
		c-0.063-0.27,0.104-0.538,0.373-0.602c3.829-0.895,23.114-5.21,26.893-2.323c0.22,0.168,0.261,0.481,0.094,0.701
		c-0.168,0.22-0.48,0.262-0.701,0.094c-2.836-2.168-17.714,0.552-26.057,2.503C480.572,629.613,480.534,629.617,480.497,629.617"/>
	<path clip-path="url(#SVGID_2_)" fill="#383838" d="M508.791,604.098c-0.083,0-0.167-0.021-0.245-0.064
		c-2.621-1.475-13.675-0.7-19.795-0.01l-0.111-0.994c2.806-0.315,16.97-1.797,20.397,0.133c0.24,0.136,0.326,0.44,0.189,0.681
		C509.134,604.007,508.964,604.098,508.791,604.098 M488.686,603.527h0.011H488.686z"/>
	<path clip-path="url(#SVGID_2_)" fill="#383838" d="M513.544,577.229c-0.062,0-0.125-0.012-0.186-0.036
		c-2.497-0.998-14.962-0.44-21.206-0.005c-0.294,0.02-0.514-0.188-0.534-0.464c-0.018-0.275,0.189-0.515,0.464-0.534
		c1.872-0.131,18.373-1.238,21.648,0.075c0.256,0.103,0.38,0.394,0.277,0.649C513.931,577.11,513.743,577.229,513.544,577.229"/>
	<path clip-path="url(#SVGID_2_)" fill="#383838" d="M515.888,526.153c-0.107,0-0.218-0.035-0.31-0.107
		c-7.376-5.816-21.345-9.503-21.937-9.657c-0.268-0.069-0.428-0.343-0.357-0.609c0.069-0.267,0.339-0.432,0.609-0.357
		c0.6,0.156,14.766,3.894,22.305,9.839c0.216,0.171,0.253,0.485,0.083,0.702C516.182,526.088,516.036,526.153,515.888,526.153"/>
	<path clip-path="url(#SVGID_2_)" fill="#383838" d="M513.654,557.16c-0.098,0-0.194-0.028-0.28-0.087
		c-5.191-3.529-17.144-3.977-17.65-3.995c-0.275-0.01-0.491-0.241-0.482-0.518c0.012-0.275,0.244-0.464,0.518-0.482
		c0.518,0.02,12.75,0.479,18.177,4.169c0.229,0.155,0.287,0.466,0.132,0.694C513.97,557.084,513.813,557.16,513.654,557.16"/>
	<path clip-path="url(#SVGID_2_)" fill="#383838" d="M514.703,538.291c-0.098,0-0.194-0.028-0.28-0.087
		c-5.169-3.515-16.727-6.39-17.217-6.511c-0.268-0.066-0.432-0.337-0.364-0.605c0.064-0.267,0.33-0.432,0.604-0.365
		c0.496,0.122,12.223,3.04,17.538,6.655c0.229,0.155,0.287,0.466,0.132,0.694C515.019,538.215,514.862,538.291,514.703,538.291"/>
	<path clip-path="url(#SVGID_2_)" fill="#003399" d="M391.054,492.198c-1.109,0.39-2.22,0.779-3.33,1.149
		c-0.029-0.01-0.05-0.02-0.08-0.03c1.271-2.31,2.49-4.619,3.66-6.93c0.07,0.58,0.15,1.15,0.23,1.72
		C391.734,489.527,391.544,490.938,391.054,492.198"/>
	<path clip-path="url(#SVGID_2_)" fill="#003399" d="M391.115,485.008c-2.5-1.08-4.96-2.2-7.381-3.36
		c0.021-0.029,0.03-0.05,0.04-0.08c2.19-0.729,4.381-1.5,6.551-2.3C390.584,481.188,390.844,483.107,391.115,485.008"/>
	<path clip-path="url(#SVGID_2_)" fill="#003399" d="M379.494,489.461c-0.008,0.013-0.015,0.024-0.022,0.037
		c-0.013-0.007-0.026-0.013-0.039-0.02c-1.474,2.594-3.008,5.175-4.6,7.742c0.024,0.013,0.051,0.025,0.075,0.039
		c4.298-1.186,8.57-2.489,12.814-3.911c-0.027-0.012-0.053-0.024-0.079-0.036C384.881,492.074,382.165,490.789,379.494,489.461"/>
	<path clip-path="url(#SVGID_2_)" fill="#003399" d="M379.433,489.479c0.013,0.008,0.025,0.014,0.038,0.021
		c0.008-0.013,0.015-0.026,0.022-0.038c1.473-2.594,2.888-5.201,4.243-7.818c0.013-0.023,0.025-0.049,0.039-0.073
		c-4.031,1.351-8.09,2.589-12.172,3.716c-0.015,0.023-0.028,0.048-0.042,0.072C374.138,486.774,376.762,488.149,379.433,489.479"/>
	<path clip-path="url(#SVGID_2_)" fill="#003399" d="M366.926,492.928c-0.008,0.012-0.016,0.024-0.024,0.036
		c-0.012-0.007-0.024-0.015-0.036-0.021c-1.605,2.509-3.269,5.002-4.989,7.477c0.023,0.016,0.049,0.029,0.073,0.044
		c4.341-0.949,8.661-2.018,12.959-3.202c-0.025-0.015-0.052-0.027-0.076-0.04C372.149,495.832,369.513,494.4,366.926,492.928"/>
	<path clip-path="url(#SVGID_2_)" fill="#003399" d="M366.865,492.942c0.013,0.007,0.025,0.014,0.038,0.022
		c0.008-0.014,0.015-0.025,0.023-0.037c1.604-2.51,3.148-5.033,4.636-7.571c0.014-0.024,0.028-0.047,0.042-0.072
		c-4.082,1.127-8.187,2.142-12.31,3.043c-0.016,0.023-0.03,0.047-0.046,0.07C361.739,489.952,364.278,491.469,366.865,492.942"/>
	<path clip-path="url(#SVGID_2_)" fill="#003399" d="M354.232,495.703c-0.008,0.012-0.018,0.024-0.025,0.035
		c-0.012-0.008-0.024-0.015-0.037-0.023c-1.73,2.417-3.52,4.816-5.365,7.195c0.022,0.017,0.047,0.032,0.07,0.048
		c4.374-0.714,8.734-1.546,13.075-2.495c-0.024-0.015-0.049-0.028-0.074-0.044C359.279,498.888,356.731,497.315,354.232,495.703"/>
	<path clip-path="url(#SVGID_2_)" fill="#003399" d="M354.17,495.715c0.012,0.008,0.023,0.017,0.036,0.024
		c0.009-0.012,0.017-0.024,0.025-0.036c1.73-2.418,3.403-4.854,5.017-7.306c0.016-0.023,0.03-0.046,0.047-0.07
		c-4.123,0.902-8.266,1.692-12.421,2.37c-0.017,0.021-0.032,0.045-0.049,0.066C349.223,492.452,351.672,494.104,354.17,495.715"/>
	<path clip-path="url(#SVGID_2_)" fill="#003399" d="M341.438,497.788c-0.009,0.012-0.018,0.023-0.026,0.034
		c-0.013-0.008-0.024-0.017-0.035-0.025c-1.854,2.32-3.766,4.62-5.732,6.896c0.023,0.018,0.045,0.034,0.068,0.051
		c4.399-0.477,8.789-1.071,13.164-1.786c-0.024-0.015-0.049-0.03-0.072-0.047C346.298,501.24,343.842,499.532,341.438,497.788"/>
	<path clip-path="url(#SVGID_2_)" fill="#003399" d="M341.375,497.797c0.013,0.009,0.023,0.017,0.035,0.026
		c0.009-0.013,0.019-0.023,0.027-0.034c1.853-2.322,3.648-4.664,5.388-7.025c0.016-0.021,0.033-0.044,0.049-0.066
		c-4.154,0.678-8.324,1.243-12.503,1.696c-0.017,0.021-0.035,0.043-0.052,0.064C336.62,494.271,338.972,496.052,341.375,497.797"/>
	<path clip-path="url(#SVGID_2_)" fill="#003399" d="M328.573,499.183c-0.01,0.011-0.019,0.022-0.029,0.033
		c-0.011-0.01-0.022-0.02-0.034-0.028c-1.972,2.219-4,4.412-6.084,6.579c0.021,0.019,0.043,0.036,0.065,0.055
		c4.414-0.24,8.822-0.601,13.221-1.077c-0.023-0.018-0.046-0.034-0.068-0.052C333.235,502.891,330.877,501.053,328.573,499.183"/>
	<path clip-path="url(#SVGID_2_)" fill="#003399" d="M328.511,499.188c0.011,0.01,0.022,0.019,0.034,0.027
		c0.009-0.01,0.019-0.021,0.029-0.032c1.971-2.218,3.887-4.461,5.746-6.725c0.017-0.021,0.035-0.043,0.052-0.064
		c-4.178,0.453-8.366,0.794-12.558,1.023c-0.019,0.021-0.037,0.041-0.056,0.062C323.956,495.413,326.207,497.317,328.511,499.188"/>
	<path clip-path="url(#SVGID_2_)" fill="#003399" d="M315.666,499.887c-0.01,0.01-0.02,0.021-0.031,0.03
		c-0.01-0.01-0.021-0.02-0.032-0.028c-2.086,2.108-4.228,4.19-6.424,6.244c0.021,0.019,0.042,0.038,0.062,0.058
		c4.419-0.005,8.837-0.128,13.251-0.369c-0.022-0.018-0.044-0.037-0.066-0.055C320.119,503.839,317.866,501.877,315.666,499.887"/>
	<path clip-path="url(#SVGID_2_)" fill="#003399" d="M315.603,499.888c0.011,0.011,0.021,0.021,0.032,0.029
		c0.01-0.01,0.021-0.02,0.031-0.031c2.086-2.108,4.116-4.246,6.092-6.406c0.018-0.021,0.037-0.041,0.056-0.063
		c-4.193,0.229-8.39,0.346-12.587,0.352c-0.019,0.019-0.039,0.038-0.059,0.058C311.259,495.875,313.404,497.897,315.603,499.888"/>
	<path clip-path="url(#SVGID_2_)" fill="#003399" d="M302.744,499.899c-0.011,0.01-0.021,0.02-0.032,0.028
		c-0.01-0.01-0.021-0.02-0.031-0.03c-2.196,1.994-4.446,3.96-6.75,5.892c0.02,0.021,0.04,0.041,0.06,0.063
		c4.413,0.23,8.832,0.344,13.25,0.339c-0.02-0.02-0.041-0.039-0.062-0.059C306.979,504.083,304.833,502.004,302.744,499.899"/>
	<path clip-path="url(#SVGID_2_)" fill="#003399" d="M302.681,499.897c0.01,0.01,0.02,0.021,0.031,0.031
		c0.01-0.01,0.021-0.021,0.032-0.029c2.195-1.995,4.337-4.021,6.424-6.073c0.02-0.02,0.04-0.039,0.06-0.059
		c-4.198,0.005-8.395-0.104-12.587-0.322c-0.021,0.019-0.042,0.036-0.063,0.056C298.557,495.658,300.591,497.791,302.681,499.897"/>
	<path clip-path="url(#SVGID_2_)" fill="#003399" d="M289.835,499.221c-0.011,0.009-0.022,0.019-0.034,0.027
		c-0.009-0.01-0.019-0.021-0.029-0.032c-2.301,1.874-4.655,3.716-7.06,5.522c0.018,0.021,0.037,0.043,0.056,0.064
		c4.399,0.467,8.808,0.816,13.222,1.048c-0.02-0.021-0.039-0.041-0.059-0.062C293.843,503.625,291.811,501.435,289.835,499.221"/>
	<path clip-path="url(#SVGID_2_)" fill="#003399" d="M289.772,499.216c0.01,0.011,0.019,0.022,0.029,0.032
		c0.011-0.009,0.022-0.019,0.034-0.027c2.3-1.875,4.548-3.782,6.743-5.721c0.021-0.018,0.041-0.037,0.062-0.055
		c-4.193-0.22-8.381-0.552-12.56-0.995c-0.022,0.017-0.043,0.034-0.065,0.051C285.877,494.762,287.797,497.001,289.772,499.216"/>
	<path clip-path="url(#SVGID_2_)" fill="#003399" d="M276.968,497.853c-0.012,0.008-0.023,0.017-0.035,0.025
		c-0.009-0.012-0.018-0.022-0.027-0.034c-2.401,1.748-4.854,3.46-7.357,5.135c0.018,0.022,0.035,0.045,0.053,0.067
		c4.376,0.703,8.766,1.289,13.165,1.756c-0.018-0.021-0.037-0.043-0.056-0.063C280.74,502.465,278.825,500.169,276.968,497.853"/>
	<path clip-path="url(#SVGID_2_)" fill="#003399" d="M276.906,497.844c0.009,0.011,0.018,0.023,0.027,0.034
		c0.012-0.009,0.024-0.018,0.035-0.026c2.401-1.748,4.75-3.533,7.047-5.351c0.022-0.018,0.044-0.034,0.066-0.051
		c-4.18-0.444-8.35-1.001-12.506-1.669c-0.023,0.016-0.045,0.031-0.068,0.048C273.249,493.187,275.049,495.525,276.906,497.844"/>
	<path clip-path="url(#SVGID_2_)" fill="#003399" d="M264.171,495.792c-0.012,0.009-0.024,0.017-0.037,0.024
		c-0.008-0.012-0.017-0.024-0.025-0.036c-2.496,1.616-5.041,3.194-7.635,4.73c0.016,0.022,0.032,0.047,0.049,0.069
		c4.342,0.94,8.703,1.763,13.079,2.465c-0.018-0.021-0.035-0.045-0.053-0.066C267.7,500.603,265.907,498.206,264.171,495.792"/>
	<path clip-path="url(#SVGID_2_)" fill="#003399" d="M264.109,495.78c0.008,0.013,0.017,0.024,0.025,0.035
		c0.013-0.007,0.025-0.015,0.037-0.022c2.495-1.617,4.941-3.272,7.335-4.964c0.023-0.017,0.046-0.032,0.068-0.049
		c-4.156-0.668-8.299-1.448-12.423-2.342c-0.024,0.016-0.047,0.03-0.071,0.045C260.699,490.933,262.375,493.365,264.109,495.78"/>
	<path clip-path="url(#SVGID_2_)" fill="#003399" d="M251.473,493.042c-0.013,0.007-0.025,0.014-0.038,0.021
		c-0.008-0.013-0.016-0.024-0.023-0.036c-2.585,1.478-5.218,2.913-7.898,4.307c0.015,0.023,0.03,0.048,0.045,0.073
		c4.299,1.176,8.622,2.233,12.964,3.174c-0.016-0.024-0.032-0.047-0.049-0.071C254.749,498.038,253.082,495.548,251.473,493.042"/>
	<path clip-path="url(#SVGID_2_)" fill="#003399" d="M251.412,493.026c0.008,0.013,0.016,0.024,0.024,0.037
		c0.012-0.007,0.025-0.015,0.037-0.021c2.585-1.479,5.121-2.999,7.608-4.56c0.024-0.014,0.047-0.028,0.071-0.044
		c-4.125-0.893-8.231-1.896-12.315-3.015c-0.024,0.014-0.049,0.027-0.073,0.041C248.254,488,249.804,490.521,251.412,493.026"/>
	<path clip-path="url(#SVGID_2_)" fill="#003399" d="M243.554,497.408c-4.22-1.16-8.42-2.431-12.6-3.811
		c-0.07-0.02-0.15-0.05-0.22-0.07c-0.01-0.029-0.02-0.05-0.04-0.079c0.06-0.03,0.13-0.061,0.19-0.091c2.7-1.21,5.35-2.47,7.96-3.779
		c0,0.02,0.01,0.029,0.02,0.04c0.01,0,0.02-0.011,0.04-0.021c1.47,2.59,3.01,5.17,4.61,7.74
		C243.524,497.357,243.544,497.378,243.554,497.408"/>
	<path clip-path="url(#SVGID_2_)" fill="#003399" d="M238.84,489.582c0.007,0.013,0.014,0.025,0.022,0.038
		c0.013-0.007,0.026-0.013,0.039-0.021c2.667-1.335,5.289-2.714,7.863-4.136c0.024-0.013,0.048-0.025,0.073-0.04
		c-4.084-1.117-8.144-2.346-12.178-3.688c-0.025,0.012-0.05,0.023-0.075,0.036C235.943,484.387,237.362,486.991,238.84,489.582"/>
	<path clip-path="url(#SVGID_2_)" fill="#003399" d="M234.654,481.737c-0.02,0.011-0.05,0.021-0.07,0.03
		c-0.85,0.41-1.7,0.811-2.56,1.21c0.1-0.66,0.21-1.34,0.32-2.029C233.114,481.218,233.884,481.478,234.654,481.737"/>
</g>
</svg>
