<?xml version="1.0" encoding="utf-8"?>
<!-- Generator: Adobe Illustrator 16.0.0, SVG Export Plug-In . SVG Version: 6.00 Build 0)  -->
<!DOCTYPE svg PUBLIC "-//W3C//DTD SVG 1.1//EN" "http://www.w3.org/Graphics/SVG/1.1/DTD/svg11.dtd">
<svg version="1.1" id="Layer_1" xmlns="http://www.w3.org/2000/svg" xmlns:xlink="http://www.w3.org/1999/xlink" x="0px" y="0px"
	 width="784px" height="810px" viewBox="0 0 784 810" enable-background="new 0 0 784 810" xml:space="preserve">
<g>
	<defs>
		<rect id="SVGID_1_" x="-110" y="-115" width="1000" height="1000"/>
	</defs>
	<clipPath id="SVGID_2_">
		<use xlink:href="#SVGID_1_"  overflow="visible"/>
	</clipPath>
	<path clip-path="url(#SVGID_2_)" fill="#514A4A" d="M438.984,689.527c0.034,1.735-0.691,3.121-0.691,3.121
		c-1.622,3.095-5.688,3.907-7.687,4.278c-2.992,0.557-8.059,0.887-16.908-2.317c-7.192-2.604-12.148-5.828-16.775-8.877
		c-3.926-2.588-8.433-6.065-13.592-10.646c-2.174-2.851-1.408-3.695-1.41-8.58C399.428,671.655,438.868,683.758,438.984,689.527"/>
	<path clip-path="url(#SVGID_2_)" fill="#D13333" d="M381.916,666.806c0.015-0.051-0.865,2.544,5.061,7.96
		c6.676,6.102,10.843,9.492,16.987,12.741c4.692,2.481,7.998,4.229,13.032,5.492c0,0,13.66,3.429,20.614-1.782
		c0.704-0.526,1.12-1.21,1.12-1.21c0.1-0.149,0.18-0.31,0.25-0.479c1.915-4.653-5.406-11.972-7.421-13.971
		c-10.557-10.471-29.476-17.167-45.948-11.729c-0.924,0.305-1.66,0.588-2.092,0.761c-0.232,0.104-0.619,0.317-0.963,0.721
		C382.053,665.901,381.945,666.543,381.916,666.806"/>
	<path clip-path="url(#SVGID_2_)" fill="#514A4A" d="M285.121,689.589c-0.035,1.736,0.691,3.121,0.691,3.121
		c1.622,3.095,5.688,3.908,7.686,4.279c2.994,0.556,8.059,0.886,16.909-2.318c7.192-2.604,12.148-5.828,16.775-8.877
		c3.926-2.588,8.433-6.065,13.592-10.646c2.174-2.851,1.408-3.694,1.41-8.58C324.677,671.717,285.237,683.819,285.121,689.589"/>
	<path clip-path="url(#SVGID_2_)" fill="#F27070" d="M286.495,691.279c-0.46-0.34-0.84-0.74-1.12-1.21
		C285.695,690.509,286.075,690.919,286.495,691.279"/>
	<path clip-path="url(#SVGID_2_)" fill="#D13333" d="M342.145,666.439c-0.015-0.051,0.909,2.972-5.017,8.388
		c-6.676,6.103-10.844,9.493-16.987,12.741c-4.692,2.48-7.998,4.229-13.032,5.493c0,0-13.66,3.429-20.614-1.782
		c-0.704-0.527-1.12-1.21-1.12-1.21c-0.1-0.15-0.18-0.311-0.25-0.48c-1.55-3.72,2.57-11.33,7.42-13.97
		c38.19-20.77,47.64-13.82,47.64-13.82C340.695,662.499,341.845,664.209,342.145,666.439"/>
	<path clip-path="url(#SVGID_2_)" fill="#E2C294" d="M319.555,629.174c2.11,6.75,0.023,14.228-3.748,20.21
		c-3.772,5.982-9.086,10.799-14.122,15.764c-5.036,4.966-9.959,10.312-12.627,16.862c-0.897,2.198-1.458,4.913-0.008,6.794
		c1.373,1.779,10.906,2.032,13.153,1.964c10.807-0.336,13.88-7.567,23.02-13.342c5.204-3.288,11.756-5.959,14.541-9.694
		c3.363-4.508,0.866-11.125,0.774-16.748c-0.086-5.235-0.172-10.469-0.258-15.703c-0.023-1.4-0.123-2.978-1.176-3.904
		c-0.739-0.649-1.776-0.811-2.751-0.943c-5.742-0.787-11.484-1.574-17.226-2.361L319.555,629.174z"/>
	<path clip-path="url(#SVGID_2_)" fill="#B59B76" d="M317.934,645.448c2.332-5.145,3.295-10.936,1.62-16.277l-0.427-1.096
		c5.737,0.788,11.484,1.566,17.22,2.354c0.985,0.131,2.014,0.295,2.758,0.952c1.051,0.92,1.15,2.496,1.172,3.896
		c0.054,3.383,0.109,6.776,0.175,10.17c-3.395,0.396-7.22,0.66-11.407,0.653C324.976,646.096,321.251,645.835,317.934,645.448"/>
	<path clip-path="url(#SVGID_2_)" fill="#FFEFAB" d="M360.29,456.71c-1.33,61.71-7.4,123.35-18.14,184.13h-24.51
		C310.41,615.45,303.67,586,299,552.98c-1.31-9.28-2.39-18.33-3.27-27.15c-2.49-25.15-3.32-48.34-3.18-69.12H360.29z"/>
	<path clip-path="url(#SVGID_2_)" fill="#E2C294" d="M405.356,629.174c-2.109,6.75-0.022,14.228,3.748,20.21
		c3.772,5.982,9.086,10.799,14.122,15.764c5.036,4.966,9.959,10.313,12.627,16.862c0.897,2.199,1.458,4.913,0.008,6.794
		c-1.373,1.78-3.946,1.727-6.183,1.953c-15.173,1.536-21.539-5.982-30.68-11.758c-5.204-3.287-12.398-7.135-13.316-9.246
		c-2.243-5.158-1.401-13.146-1.309-18.77c0.086-5.235,0.172-10.469,0.258-15.703c0.023-1.401,0.123-2.978,1.176-3.903
		c0.739-0.65,1.776-0.812,2.751-0.944c5.742-0.787,11.484-1.574,17.227-2.361L405.356,629.174z"/>
	<path clip-path="url(#SVGID_2_)" fill="#B59B76" d="M406.978,645.448c-2.332-5.145-3.296-10.936-1.62-16.277l0.427-1.096
		c-5.737,0.788-11.484,1.566-17.22,2.354c-0.985,0.131-2.014,0.295-2.758,0.952c-1.051,0.92-1.15,2.496-1.172,3.896
		c-0.054,3.383-0.109,6.776-0.175,10.17c3.395,0.396,7.22,0.66,11.407,0.653C399.936,646.096,403.66,645.835,406.978,645.448"/>
	<path clip-path="url(#SVGID_2_)" fill="#FFEFAB" d="M432.49,456.71c-0.141,20.44-1.16,42.83-3.561,66.84
		c-1.14,11.47-2.6,23.311-4.42,35.49c-4.51,30.1-10.54,57.47-17.12,81.8h-24.5c-10.75-60.78-16.81-122.41-18.14-184.13H432.49z"/>
	<path clip-path="url(#SVGID_2_)" fill="#C9BC81" d="M360.24,456.71c-0.63,26.34-2.09,52.68-4.45,78.93
		c-21-0.72-43.1-5.34-60.06-9.81c-2.49-25.15-3.32-48.34-3.18-69.12H360.24z"/>
	<path clip-path="url(#SVGID_2_)" fill="#C9BC81" d="M432.49,456.71c-0.141,20.44-1.16,42.83-3.561,66.84
		c-17.8,5.271-39.87,10.59-59.72,11.891c-2.32-26.19-3.8-52.45-4.42-78.73H432.49z"/>
	<path clip-path="url(#SVGID_2_)" fill="#D13333" d="M290.974,676.667c0,0,18.024-8.201,26.841,9.799l12.26-7.852
		c0,0-7.668-23.801-28.39-13.466C301.685,665.148,294.892,670.889,290.974,676.667"/>
	<path clip-path="url(#SVGID_2_)" fill="#D13333" d="M433.131,676.667c0,0-18.024-8.201-26.841,9.799l-12.261-7.852
		c0,0,7.668-23.801,28.391-13.466C422.42,665.148,429.213,670.889,433.131,676.667"/>
	<path clip-path="url(#SVGID_2_)" fill-rule="evenodd" clip-rule="evenodd" fill="#FFEFAB" d="M451.33,381.651l-1.741,46.118
		c0,0,36.851,7.931,45.601-6.64c8.75-14.568,35.861-18.15,35.861-18.15c-3.32-52.246-27.532-65.921-98.165-189.065l-20.719,36.98
		l27.304,65.287C448.13,336.884,452.176,359.225,451.33,381.651"/>
	<path clip-path="url(#SVGID_2_)" fill-rule="evenodd" clip-rule="evenodd" fill="#F99569" d="M340.788,186.412
		c0,0-33.339,2.368-53.682,25.788l64.862,63.232l51.435-48.246l29.313-16.529C432.715,210.657,394.405,176.759,340.788,186.412"/>
	<path clip-path="url(#SVGID_2_)" fill="#F9855D" d="M444.322,503.895c0.521,3.76-1.616,7.369-5.164,8.719
		c-18.517,7.047-47.168,15.213-82.765,15.121c-33.994-0.088-52.032-6.737-68.187-13.258c-3.268-1.319-5.19-4.725-4.618-8.201
		c3.823-23.226,12.605-81.072,20.124-128.448c0.891-5.616,2.006-16.116,4.234-37.116c2.945-27.744,4.964-51.415,6.345-69.496
		c-0.69,1.554-9.812,3.474-10.445,5.411c-4.436-14.344,3.9-48.01,4.143-62.222c24.786,16.715,57.678,17.3,84.938,6.597
		c8.422-3.121,15.128-11.256,24.873-10.261c-2.634,14.211-5.755,35.552-6.244,61.571c-1.115,59.463,12.547,108.83,14.18,116.227
		C435.415,432.407,439.546,469.425,444.322,503.895"/>
	<path clip-path="url(#SVGID_2_)" fill="#F9855D" d="M303.846,276.626c-0.628-0.388-1.027-1.644-1.244-3.539
		c0.045,0.126,0.091,0.263,0.137,0.4C303.058,274.423,303.435,275.473,303.846,276.626"/>
	<path clip-path="url(#SVGID_2_)" fill="#F9855D" d="M303.96,276.295c0.605-1.883,1.233-3.596,1.883-5.08
		C306.277,272.779,304.691,274.423,303.96,276.295"/>
	<path clip-path="url(#SVGID_2_)" fill="#F9855D" d="M306.585,274.046c-0.24-0.947-0.479-1.895-0.742-2.831
		C306.094,271.924,306.334,272.894,306.585,274.046"/>
	<path clip-path="url(#SVGID_2_)" fill="#F9855D" d="M306.528,227.177l-3.721,32.669
		C303.572,249.584,305.284,236.674,306.528,227.177"/>
	<path clip-path="url(#SVGID_2_)" fill="#F9855D" d="M322.943,222.052c-1.393-0.445-2.797-0.89-4.201-1.358
		c-3.276-1.61-6.483-3.402-9.577-5.479c-0.308-0.195-0.605-0.411-0.89-0.617c-0.034-0.011-0.08-0.046-0.114-0.068
		c-0.057-0.046-0.114-0.08-0.171-0.126C312.715,217.475,317.738,220.02,322.943,222.052"/>
	<path clip-path="url(#SVGID_2_)" fill="#F9855D" d="M368.226,227.28c-3.961,0.662-7.933,1.141-11.917,1.415
		c-2.979-0.205-5.936-0.525-8.892-0.958C354.345,228.364,361.331,228.205,368.226,227.28"/>
	<path clip-path="url(#SVGID_2_)" fill="#F9855D" d="M405.289,213.913c-0.126,0.091-0.251,0.183-0.377,0.274
		c-0.193,0.148-0.388,0.274-0.569,0.411c-0.138,0.114-0.298,0.205-0.435,0.308c-0.046,0.034-0.091,0.057-0.137,0.08
		c-3.196,2.169-6.518,4.029-9.897,5.707c-0.318,0.103-0.628,0.206-0.946,0.309C397.186,218.947,401.157,216.093,405.289,213.913"/>
	<path clip-path="url(#SVGID_2_)" fill="#F9855D" d="M414.523,271.056c-0.559,2.66-1.062,5.274-1.494,7.831
		c0.182-1.222,0.376-2.386,0.559-3.448C413.896,273.579,414.216,272.049,414.523,271.056"/>
	<path clip-path="url(#SVGID_2_)" fill="#F9855D" d="M417.218,234.437c-0.206,10.684-0.434,22.259-0.765,30.9l0.273-11.312
		L417.218,234.437z"/>
	<path clip-path="url(#SVGID_2_)" fill-rule="evenodd" clip-rule="evenodd" fill="#FFEFAB" d="M417.794,196.233
		c0,0-22.925,61.219-25.205,103.566s19.577,97.733,19.577,97.733l-103.254,8.94c0,0,71.347-160.749,64.678-180.211l22.47-37.482
		C396.06,188.78,412.46,193.806,417.794,196.233"/>
	<path clip-path="url(#SVGID_2_)" fill-rule="evenodd" clip-rule="evenodd" fill="#F9855D" d="M323.137,222.109
		c-0.285,4.166-0.673,8.264-0.947,11.917c0.159,11.073-7.135,22.328-13.105,34.701c-0.194,0.377-0.376,0.765-0.559,1.153
		c-0.651,1.381-1.301,2.774-1.94,4.167c-0.252-1.153-0.491-2.124-0.742-2.831c-0.685,1.575-1.347,3.401-1.998,5.41
		c-1.838,5.81-3.436,13.082-4.452,19.828c0,0.011,0,0.034-0.011,0.045c-0.114,0.605-0.251,1.199-0.377,1.781
		c-0.571,2.523-0.776,5.023-0.81,7.523h-33.571c-0.503-4.749-0.685-9.532-0.628-14.28c0.011-0.617,0.034-1.222,0.045-1.838
		c0.002,0.009,0.003,0.02,0.005,0.029c10.708-50.048,18.805-73.03,24.452-79.058C305.804,190.141,324.655,200.307,323.137,222.109"
		/>
	<path clip-path="url(#SVGID_2_)" fill-rule="evenodd" clip-rule="evenodd" fill="#F9855D" d="M458.471,305.803h-34.496
		c-0.649-11.083-4.056-23.88-9.45-34.747c-0.309,0.993-0.628,2.523-0.937,4.384c-8.89-14.38-23.2-28.823-29.051-38.32
		c-2.675-42,16.03-46.717,47.912-27.759c6.678,13.602,11.626,30.676,17.163,50.599C454.323,276.907,456.984,292.435,458.471,305.803
		"/>
	<path clip-path="url(#SVGID_2_)" fill-rule="evenodd" clip-rule="evenodd" fill="#FFEFAB" d="M408.531,190.653
		c-0.344-2.269,1.249-6.134-0.271-7.987c-1.871-2.269-8.759-6.454-9.636-15.647c-0.876-9.192,4.628-38.298,1.104-55.02
		c-3.525-16.722-6.815-22.326-17.473-31.32c-6.969-5.125-15.114-7.801-23.321-8.018v-0.009l-0.226,0.009l-0.226-0.009v0.009
		c-24.857,0.66-37.738,21.251-40.278,44.49c-2.838,26.042-0.126,42.475-2.097,49.914c-1.97,7.438,5.152,13.848,5.152,13.848
		s-3.389,1.428-3.281,5.803c0.109,4.375-4.781,6.029-4.781,6.029c-17.482,4.121-19.334,14.031-17.264,18.424
		c0.352,0.742,0.75,1.447,1.229,2.106c10.661,14.955,42.299,37.381,73.403,28.476l-0.007,0.012c0.02-0.009,0.041-0.018,0.061-0.027
		c1.29-0.37,2.587-0.771,3.898-1.238c6.861-2.441,12.176-5.089,16.271-7.837c21.476-9.726,44.887-16.104,44.887-16.104
		C430.235,200.768,417.794,192.796,408.531,190.653 M343.397,171.729c-15.384-12.32-24.125-40.992-14.544-61.565
		c5.776-12.41,17.617-18.747,29.585-19.027v-0.009h0.352v0.009c11.977,0.28,24.433,6.345,29.594,19.027
		c8.406,20.708,1.338,49.236-14.706,61.194C360.21,181.401,352.581,179.078,343.397,171.729"/>
	<path clip-path="url(#SVGID_2_)" fill-rule="evenodd" clip-rule="evenodd" fill="#FFEFAB" d="M392.678,314.5h-45.294
		c15.583-39.717,29.304-79.2,26.204-88.239l6.548-35.898c0,0,22.266-1.896,27.599,0.535c0,0,0.526,36.82-15.146,108.905
		C391.574,304.464,392.38,309.502,392.678,314.5"/>
	<path clip-path="url(#SVGID_2_)" fill-rule="evenodd" clip-rule="evenodd" fill="#DB6F52" d="M310.284,297.436
		c-1.371-7.751-2.374-17.111-3.698-23.389c-0.252-1.153-0.491-2.123-0.742-2.831c-0.685,1.575-1.347,3.402-1.998,5.411
		c-1.838,5.81-3.436,13.081-4.452,19.827c0,0.012,0,0.035-0.011,0.046c-0.491,3.299-0.845,6.484-1.005,9.303h-1.758
		c-1.518-4.417-2.077-9.839,5.491-34.085c0.003-0.017,0.006-0.034,0.009-0.051c0.156-0.891,0.791-2.121,3.022-3.302
		c4.381-16.139,7.455-27.648,7.959-30.084c0.015-0.071,0.078-0.377,0.128-0.373c0.294,0.024-0.674,10.542-0.832,23.906
		c-0.047,3.949,0.02,4.52,0,7.53C312.353,275.961,311.949,285.457,310.284,297.436"/>
	<path clip-path="url(#SVGID_2_)" fill-rule="evenodd" clip-rule="evenodd" fill="#DB6F52" d="M423.094,297.615
		c0.352-0.086-1.472-11.413-7.078-23.664c-0.487-1.067-0.984-2.043-1.49-2.893c-0.308,0.986-0.624,2.522-0.94,4.384
		c-0.868,4.99-1.781,12.248-2.712,16.94c-0.045,0.207-0.081,0.406-0.126,0.605c0.406-4.663,0.875-11.821,0.813-20.672
		c-0.031-4.426-0.177-6.615-0.256-10.41c-0.124-5.883-0.195-12.872,0.731-23.597c0.231,1.67,0.585,4.367,0.922,7.709
		c0.453,4.505,0.638,7.822,0.673,8.388C414.271,264.836,422.492,297.762,423.094,297.615"/>
</g>
<g>
	<defs>
		<path id="SVGID_3_" d="M358.599,91.133l-0.172-0.009v0.009c-11.977,0.281-23.808,6.626-29.593,19.037
			c-9.573,20.563-0.826,50.331,14.372,61.42c11.28,8.23,17.582,8.871,30.472-0.231c5.926-4.192,7.161-5.409,13.486-10.714
			c0.715-0.599,1.446,1.096,2.272,2.792c2.102,4.313,4.821,8.624,9.461-24.818c2.109-15.213-1.215-13.588-3.821-11.963
			c-1.356,0.846-2.519,1.691-2.617,0.162c-0.379-5.82-1.699-11.507-4.095-16.648c-5.776-12.411-17.616-18.756-29.585-19.037v-0.009
			L358.599,91.133z"/>
	</defs>
	<clipPath id="SVGID_4_">
		<use xlink:href="#SVGID_3_"  overflow="visible"/>
	</clipPath>
	<path clip-path="url(#SVGID_4_)" fill="#2E2E30" d="M340.344,80.411c1.501-2.077,5.61-7.147,12.59-8.879
		c4.726-1.173,8.582-0.273,12.59,0.662c7.405,1.728,12.47,5.066,16.567,7.819c4.405,2.961,8.979,6.035,13.386,11.796
		c4.74,6.196,6.286,11.578,8.746,20.144c1.182,4.111,1.491,6.514,0.663,9.012c-0.727,2.192-1.768,2.762-2.519,5.566
		c-0.247,0.926-0.868,3.61-0.266,6.759c0.678,3.53,2.13,3.653,3.845,8.084c1.273,3.292,2.204,5.694,1.458,8.35
		c-0.318,1.131-1.848,3.14-4.904,7.156c-1.516,1.992-2.178,2.766-2.518,4.241c-0.153,0.664-0.71,3.084,0.795,5.301
		c1.441,2.124,3.762,2.57,4.24,2.651c-0.229,1.905-1.468,3.512-3.181,4.108c-2.1,0.732-4.571-0.177-5.831-2.253
		c0.535,0.753,1.291,2.007,1.724,3.711c0.343,1.353,0.841,3.319,0,5.169c-0.785,1.726-1.9,1.508-3.182,3.843
		c-0.551,1.006-1.057,1.96-0.795,3.048c0.407,1.689,2.352,2.412,2.651,2.518c-1.492,1.025-3.459,1.021-4.904,0
		c-1.335-0.943-2.008-2.6-1.723-4.241c-0.216,0.922-1.217,4.729-4.903,7.157c-5.188,3.416-10.963,0.987-11.398,0.795
		c2.278,0.705,4.507-0.141,5.301-1.723c0.648-1.29,0.283-2.955-0.53-3.976c-1.089-1.368-2.306-0.732-3.976-2.253
		c-0.142-0.129-2.19-2.039-1.722-3.711c0.299-1.071,1.401-1.214,1.457-2.12c0.052-0.831-0.821-1.556-1.855-2.253
		c-3.234-2.179-6.229-2.916-6.229-2.916c-5.743-1.412-8.734-2.148-10.47-0.53c-0.89,0.83-0.478,1.373-1.723,5.964
		c-0.875,3.227-1.312,4.84-2.253,6.229c-2.327,3.436-6.169,4.427-6.493,4.506c-5.435,1.319-9.736-2.249-10.205-2.651
		c2.429-0.309,4.859-0.618,7.289-0.927c-0.155-0.012-2.14-0.197-3.048-1.856c-0.812-1.482-0.413-3.503,1.06-4.771
		c-0.729,0.01-4.404-0.016-7.422-2.915c-2.77-2.662-3.118-5.951-3.18-6.759c1.198,1.039,2.727,0.896,3.313,0.132
		c0.505-0.658,0.356-1.842-0.265-2.385c-0.914-0.801-2.112,0.431-3.446-0.133c-1.442-0.61-1.087-2.491-2.916-6.494
		c-0.637-1.394-1.05-2.299-1.855-3.313c-2.017-2.54-3.844-2.434-5.434-3.976c-2.88-2.794-2.014-8.128-1.59-10.735
		c0.92-5.665,3.415-6.536,3.976-11.662c0.382-3.492-0.478-5.819-1.193-8.615c-0.531-2.076-3.262-13.314-0.795-23.855
		c3.04-12.989,12.414-18.267,13.253-18.686c1.456-0.729,2.915-0.912,2.915-0.912c0.336-0.042,1.281-0.139,2.485,0.05
		C338.951,79.843,339.772,80.149,340.344,80.411"/>
	<polygon clip-path="url(#SVGID_4_)" fill="#FFEFAB" points="410.544,169.098 371.669,178.417 379.774,109.773 410.544,109.773 	"/>
	<path clip-path="url(#SVGID_4_)" fill="#E2C294" d="M392.36,128.925c0.075,2.007,0.323,12.17-5.112,23.466
		c-1.904,3.956-12.32,25.602-29.223,25.446c-17.719-0.164-27.781-24.151-28.957-26.952c-4.234-10.094-4.04-19.03-3.858-22.236
		c1.124-19.772,6.204-39.664,31.641-39.677C382.688,88.958,391.578,107.943,392.36,128.925"/>
	<path clip-path="url(#SVGID_4_)" fill="#E2C294" d="M327.283,139.783c-0.787-3.625-2.014-6.109-2.867-7.565
		c-0.753-1.285-1.58-2.389-2.936-2.832c-0.31-0.101-1.259-0.411-2.142,0c-1.023,0.476-1.447,1.682-1.727,3.005
		c-0.883,4.169-0.036,8.045,0.277,9.326c0.288,1.181,1.216,3.263,3.074,7.427c0.77,1.726,1.385,3.02,2.798,3.696
		c0.179,0.086,1.493,0.693,2.867,0.276c1.935-0.587,3.334-3.009,3.143-5.941C328.941,144.711,328.112,142.248,327.283,139.783"/>
	<path clip-path="url(#SVGID_4_)" fill="#E2C294" d="M389.182,137.193c0.84-4.003,2.148-6.747,3.058-8.355
		c0.805-1.42,1.686-2.639,3.133-3.128c0.33-0.112,1.343-0.454,2.284,0c1.092,0.526,1.544,1.858,1.843,3.319
		c0.942,4.604,0.038,8.885-0.295,10.3c-0.307,1.304-1.298,3.604-3.279,8.203c-0.821,1.906-1.479,3.335-2.984,4.082
		c-0.192,0.095-1.594,0.765-3.059,0.305c-2.065-0.649-3.557-3.324-3.353-6.562L389.182,137.193z"/>
	<path clip-path="url(#SVGID_4_)" fill="#B59B76" d="M356.046,144.07c-0.511,2.545-1.152,5.003-1.9,7.476
		c-0.24,0.772-0.58,1.591-0.724,2.359c-0.061,0.363-0.041,0.637,0.099,0.888c0.145,0.286,0.483,0.494,0.744,0.681
		c2.054,1.257,4.929,0.7,6.935-0.485c-1.85,1.887-5.07,2.696-7.476,1.355c-2.313-1.231-1.216-3.317-0.542-5.138
		C354.053,148.804,354.915,146.372,356.046,144.07"/>
	<path clip-path="url(#SVGID_4_)" fill="#B59B76" d="M347.705,162.461c4.914,3.023,10.748,3.916,16.229,2.056
		c1.789-0.585,3.513-1.401,5.169-2.4c-2.98,2.891-7.211,4.557-11.387,4.438C354.042,166.493,350.336,165.008,347.705,162.461"/>
	<path clip-path="url(#SVGID_4_)" fill="#240F0F" d="M352.221,125.449c0.13-0.296-3.32-2.339-7.157-3.711
		c-2.366-0.846-4.454-1.285-6.003-1.527c-0.283-0.044-0.57-0.014-0.838,0.089c-0.682,0.264-1.444,0.62-2.237,1.107
		c-1.659,1.018-2.818,2.219-3.581,3.174c-0.076,0.095,0.023,0.23,0.137,0.187c0.33-0.126,0.661-0.252,0.992-0.379
		c3.816-1.468,4.113-1.698,4.838-1.922c1.618-0.499,4.281,0.257,9.542,1.789C351.043,125.168,352.15,125.611,352.221,125.449"/>
	<path clip-path="url(#SVGID_4_)" fill="#240F0F" d="M359.183,124.88c-0.13-0.296,3.32-2.339,7.157-3.711
		c2.366-0.846,4.454-1.285,6.003-1.527c0.283-0.044,0.57-0.014,0.838,0.089c0.682,0.264,1.444,0.62,2.237,1.107
		c1.659,1.019,2.818,2.219,3.581,3.174c0.076,0.095-0.023,0.23-0.137,0.187c-0.33-0.126-0.661-0.252-0.992-0.379
		c-3.816-1.468-4.113-1.698-4.838-1.922c-1.618-0.499-4.281,0.257-9.542,1.789C360.361,124.599,359.254,125.042,359.183,124.88"/>
	<path clip-path="url(#SVGID_4_)" fill="#2E2E30" d="M397.166,123.715c-0.67,0.646-1.55,1.656-2.188,3.081
		c-0.771,1.729-0.587,2.729-1.391,4.274c-0.419,0.806-1.163,1.867-2.585,2.883c-0.1-1.756-0.198-3.512-0.298-5.268
		c-0.485,2.171-1.064,4.441-1.756,6.792c-1.269,4.31-2.718,8.214-4.208,11.696c0.185-4.225,0.066-7.75-0.099-10.338
		c-0.344-5.392-0.905-6.902-1.889-8.15c-1.403-1.783-3.221-2.464-5.665-3.38c-4.35-1.63-5.392-0.642-9.443-1.988
		c-2.537-0.842-5.895-1.957-8.051-4.969c-1.794-2.506-1.058-3.952-3.379-7.853c-1.201-2.017-2.404-3.321-3.479-4.473
		c-1.856-1.988-5.159-5.027-10.338-7.554c-1.54,3.684-3.571,7.844-6.262,12.226c-2.12,3.454-4.294,6.463-6.361,9.045
		c0.726,1.832,1.909,5.562,1.292,10.238c-0.888,6.737-4.92,10.938-6.262,12.226c0.37-1.386,0.981-4.44-0.049-8.051
		c-0.751-2.632-2.066-4.481-2.933-5.517c-0.182-1.276-3.022-23.744,13.22-36.826c9.523-7.671,20.416-7.934,22.397-7.952
		c2.622-0.024,12.315,0.17,21.47,6.759c7.628,5.49,10.877,12.537,13.651,18.554C395.202,114.899,396.49,120.045,397.166,123.715"/>
	<path clip-path="url(#SVGID_4_)" fill="#FFFFFF" d="M326.693,151.198c0,1.427-0.94,2.584-2.1,2.584c-1.159,0-2.1-1.157-2.1-2.584
		c0-1.427,0.941-2.584,2.1-2.584C325.753,148.614,326.693,149.771,326.693,151.198"/>
	<path clip-path="url(#SVGID_4_)" fill="#FFFFFF" d="M324.772,154.04c0.677,0.935,1.726,2.673,1.857,4.613
		c0.197,2.934-0.45,4.096-0.853,4.527c-0.273,0.292-0.604,0.441-0.984,0.441c-0.422,0-0.779-0.176-1.09-0.537
		c-0.74-0.86-1.029-2.532-0.754-4.365C323.297,156.398,324.183,154.852,324.772,154.04 M324.792,152.764c0,0-2.05,1.864-2.646,5.834
		c-0.479,3.187,0.621,5.834,2.646,5.834c1.462,0,2.945-1.405,2.646-5.834C327.223,155.383,324.792,152.764,324.792,152.764"/>
	
		<rect x="323.358" y="160.607" transform="matrix(0.8592 0.5117 -0.5117 0.8592 128.4248 -142.801)" clip-path="url(#SVGID_4_)" fill="#FFFFFF" width="0.541" height="2.586"/>
	
		<rect x="324.376" y="161.63" transform="matrix(0.5124 0.8588 -0.8588 0.5124 297.8339 -200.7247)" clip-path="url(#SVGID_4_)" fill="#FFFFFF" width="2.585" height="0.54"/>
	
		<rect x="325.003" y="159.558" transform="matrix(0.9981 0.0623 -0.0623 0.9981 10.591 -20.01)" clip-path="url(#SVGID_4_)" fill="#FFFFFF" width="2.336" height="0.542"/>
	
		<rect x="322.168" y="159.312" transform="matrix(0.998 0.0625 -0.0625 0.998 10.6045 -19.8877)" clip-path="url(#SVGID_4_)" fill="#FFFFFF" width="2.125" height="0.541"/>
	
		<rect x="322.528" y="157.218" transform="matrix(0.5124 0.8588 -0.8588 0.5124 293.1444 -201.2892)" clip-path="url(#SVGID_4_)" fill="#FFFFFF" width="2.585" height="0.54"/>
	
		<rect x="325.59" y="156.195" transform="matrix(0.8592 0.5117 -0.5117 0.8592 126.4816 -144.564)" clip-path="url(#SVGID_4_)" fill="#FFFFFF" width="0.541" height="2.586"/>
	<path clip-path="url(#SVGID_4_)" fill="#C5C4C6" d="M393.508,150.429c0,1.427-0.94,2.584-2.1,2.584s-2.1-1.157-2.1-2.584
		c0-1.427,0.94-2.584,2.1-2.584S393.508,149.002,393.508,150.429"/>
	<path clip-path="url(#SVGID_4_)" fill="#C5C4C6" d="M391.587,153.271c0.677,0.935,1.726,2.673,1.856,4.613
		c0.197,2.934-0.449,4.096-0.853,4.527c-0.273,0.292-0.604,0.441-0.984,0.441c-0.422,0-0.778-0.176-1.09-0.537
		c-0.74-0.86-1.029-2.532-0.754-4.365C390.111,155.63,390.997,154.083,391.587,153.271 M391.606,151.995c0,0-2.05,1.864-2.646,5.834
		c-0.479,3.187,0.621,5.834,2.646,5.834c1.462,0,2.945-1.405,2.646-5.834C394.037,154.614,391.606,151.995,391.606,151.995"/>
	
		<rect x="390.173" y="159.838" transform="matrix(0.8592 0.5117 -0.5117 0.8592 137.4417 -177.0986)" clip-path="url(#SVGID_4_)" fill="#C5C4C6" width="0.541" height="2.586"/>
	
		<rect x="391.19" y="160.861" transform="matrix(0.5125 0.8587 -0.8587 0.5125 329.6855 -258.4665)" clip-path="url(#SVGID_4_)" fill="#C5C4C6" width="2.586" height="0.54"/>
	
		<rect x="391.818" y="158.79" transform="matrix(0.998 0.0625 -0.0625 0.998 10.7111 -24.2538)" clip-path="url(#SVGID_4_)" fill="#C5C4C6" width="2.336" height="0.541"/>
	
		<rect x="388.983" y="158.542" transform="matrix(0.998 0.0625 -0.0625 0.998 10.687 -24.0646)" clip-path="url(#SVGID_4_)" fill="#C5C4C6" width="2.125" height="0.542"/>
	
		<rect x="389.342" y="156.449" transform="matrix(0.5126 0.8586 -0.8586 0.5126 324.9561 -259.0244)" clip-path="url(#SVGID_4_)" fill="#C5C4C6" width="2.585" height="0.54"/>
	
		<rect x="392.404" y="155.426" transform="matrix(0.8592 0.5117 -0.5117 0.8592 135.4982 -178.8615)" clip-path="url(#SVGID_4_)" fill="#C5C4C6" width="0.541" height="2.586"/>
	<path clip-path="url(#SVGID_4_)" fill="#B59B76" d="M360.5,136.974c0.371-5.091,4.478-8.96,8.472-9.588
		c4.612-0.726,8.393,3.109,8.932,3.712c1.889,2.113,2.317,4.501,2.634,5.784c-1.064,1.057-4.032,3.723-8.482,4.262
		C365.677,141.917,361.255,137.716,360.5,136.974"/>
	<path clip-path="url(#SVGID_4_)" fill="#FFFFFF" d="M360.474,137.335c1-4.592,4.409-8.021,8.397-8.557
		c4.604-0.618,8.078,2.874,8.621,3.419c1.904,1.914,2.682,4.047,3.009,5.203c-1.056,0.942-4.002,3.317-8.447,3.769
		C365.685,141.816,361.234,138.007,360.474,137.335"/>
	<path clip-path="url(#SVGID_4_)" fill="#746653" d="M375.629,137.097c-0.217,2.975-2.741,4.345-5.716,4.128
		c-2.975-0.217-5.273-1.938-5.057-4.913c0.217-2.975,2.805-5.211,5.779-4.994C373.61,131.535,375.847,134.122,375.629,137.097"/>
	<path clip-path="url(#SVGID_4_)" fill="#3A332A" d="M372.31,138.107c-0.1,1.369-1.29,2.397-2.659,2.298
		c-1.369-0.1-2.397-1.291-2.298-2.659c0.1-1.369,1.291-2.398,2.659-2.298C371.381,135.548,372.41,136.738,372.31,138.107"/>
	<path clip-path="url(#SVGID_4_)" fill="#FFFFFF" d="M373.45,137.131c-0.037,0.511-0.482,0.895-0.993,0.858
		c-0.511-0.037-0.895-0.482-0.857-0.993c0.037-0.511,0.481-0.895,0.992-0.858C373.103,136.177,373.486,136.621,373.45,137.131"/>
	<path clip-path="url(#SVGID_4_)" fill="#433015" d="M380.5,137.399c-0.583-0.903-1.1-1.871-1.81-2.673
		c-0.674-0.792-1.442-1.476-2.278-2.034c-3.325-2.26-7.712-2.507-11.229-0.559c-1.985,1.074-3.803,2.946-4.705,5.135
		c0.005-2.62,1.582-5.061,3.738-6.645C370.315,126.152,379.645,129.689,380.5,137.399"/>
	<path clip-path="url(#SVGID_4_)" fill="#433015" d="M379.086,133.782c1.239-0.261,2.459-0.924,3.216-1.966
		c-0.474,0.891-1.262,1.585-2.143,2.069c-0.301,0.164-0.6,0.306-0.945,0.423L379.086,133.782z"/>
	<path clip-path="url(#SVGID_4_)" fill="#433015" d="M379.733,135.029c1.025,0.05,2.213-0.095,2.949-0.893
		c-0.46,0.719-1.301,1.087-2.103,1.288c-0.278,0.067-0.549,0.12-0.849,0.146L379.733,135.029z"/>
	<path clip-path="url(#SVGID_4_)" fill="#433015" d="M380.343,136.271c0.541,0.157,1.178,0.174,1.708-0.058
		c0.185-0.078,0.349-0.199,0.504-0.338c-0.36,0.545-1.01,0.829-1.646,0.906c-0.222,0.027-0.431,0.04-0.674,0.021L380.343,136.271z"
		/>
	<path clip-path="url(#SVGID_4_)" fill="#B59B76" d="M351.419,138.264c0-5.105-3.815-9.261-7.753-10.179
		c-4.546-1.059-8.597,2.491-9.178,3.053c-2.038,1.97-2.637,4.321-3.048,5.577c0.985,1.132,3.751,4.007,8.151,4.868
		C345.896,142.817,350.612,138.949,351.419,138.264"/>
	<path clip-path="url(#SVGID_4_)" fill="#FFFFFF" d="M351.419,138.626c-0.663-4.653-3.815-8.32-7.753-9.144
		c-4.546-0.952-8.265,2.278-8.846,2.783c-2.038,1.77-2.969,3.841-3.38,4.969c0.985,1.017,3.751,3.6,8.151,4.374
		C345.896,142.717,350.612,139.241,351.419,138.626"/>
	<path clip-path="url(#SVGID_4_)" fill="#746653" d="M337.471,137.124c0,2.983,2.418,4.655,5.401,4.655c2.982,0,5.4-1.672,5.4-4.655
		s-2.418-5.401-5.4-5.401C339.889,131.723,337.471,134.141,337.471,137.124"/>
	<path clip-path="url(#SVGID_4_)" fill="#3A332A" d="M340.892,137.942c0,1.372,1.113,2.485,2.485,2.485s2.485-1.113,2.485-2.485
		c0-1.372-1.113-2.485-2.485-2.485S340.892,136.57,340.892,137.942"/>
	<path clip-path="url(#SVGID_4_)" fill="#FFFFFF" d="M339.728,137.207c0,0.512,0.415,0.928,0.928,0.928
		c0.512,0,0.927-0.416,0.927-0.928c0-0.512-0.415-0.928-0.927-0.928C340.143,136.279,339.728,136.695,339.728,137.207"/>
	<path clip-path="url(#SVGID_4_)" fill="#433015" d="M331.44,137.234c0.647-0.858,1.233-1.786,1.999-2.534
		c0.731-0.742,1.546-1.367,2.421-1.863c3.48-2.012,7.873-1.94,11.239,0.259c1.902,1.215,3.579,3.214,4.32,5.463
		c0.185-2.613-1.211-5.163-3.245-6.899C342.416,126.757,332.854,129.607,331.44,137.234"/>
	<path clip-path="url(#SVGID_4_)" fill="#433015" d="M333.114,133.73c-1.217-0.351-2.385-1.1-3.065-2.194
		c0.409,0.923,1.144,1.672,1.987,2.219c0.289,0.185,0.577,0.348,0.912,0.49L333.114,133.73z"/>
	<path clip-path="url(#SVGID_4_)" fill="#433015" d="M332.378,134.927c-1.026-0.025-2.2-0.256-2.876-1.105
		c0.406,0.75,1.218,1.178,2.004,1.437c0.272,0.088,0.538,0.16,0.836,0.208L332.378,134.927z"/>
	<path clip-path="url(#SVGID_4_)" fill="#433015" d="M331.679,136.121c-0.551,0.117-1.187,0.088-1.699-0.182
		c-0.179-0.091-0.334-0.224-0.478-0.373c0.319,0.569,0.947,0.9,1.575,1.023c0.219,0.042,0.427,0.071,0.671,0.069L331.679,136.121z"
		/>
</g>
<g>
	<defs>
		<rect id="SVGID_5_" x="-110" y="-115" width="1000" height="1000"/>
	</defs>
	<clipPath id="SVGID_6_">
		<use xlink:href="#SVGID_5_"  overflow="visible"/>
	</clipPath>
	<path clip-path="url(#SVGID_6_)" fill="#B5A76B" d="M368.533,194.568c-17.939,0.151-32.683-7.937-32.883-8.049
		c-0.217-0.122-0.296-0.397-0.174-0.615c0.122-0.217,0.395-0.297,0.616-0.174c0.268,0.151,27.128,14.873,52.26,3.845
		c0.228-0.101,0.495,0.002,0.596,0.232c0.1,0.228-0.004,0.495-0.233,0.595C381.928,193.381,375.021,194.514,368.533,194.568"/>
	<path clip-path="url(#SVGID_6_)" fill="#B5A76B" d="M371.464,205.354c-23.89,0-43.437-8.19-43.701-8.303
		c-0.23-0.098-0.337-0.364-0.239-0.593c0.098-0.229,0.362-0.336,0.593-0.238c0.359,0.152,36.172,15.147,69.977,4.292
		c0.242-0.075,0.492,0.055,0.568,0.293c0.077,0.237-0.054,0.492-0.291,0.568C389.307,204.283,380.1,205.354,371.464,205.354"/>
	<path clip-path="url(#SVGID_6_)" fill="#B5A76B" d="M370.761,209.541c-27.68,0-51.054-12.252-51.338-12.403
		c-0.22-0.118-0.304-0.392-0.186-0.612c0.118-0.22,0.394-0.301,0.612-0.186c0.343,0.183,34.734,18.202,69.348,10.295
		c0.244-0.061,0.485,0.096,0.541,0.34c0.055,0.243-0.097,0.485-0.34,0.541C383.111,208.951,376.833,209.541,370.761,209.541"/>
	<path clip-path="url(#SVGID_6_)" fill="#B5A76B" d="M355.421,226.392c-28.783,0-46.651-22.908-46.868-23.194
		c-0.152-0.198-0.113-0.482,0.086-0.633c0.196-0.152,0.481-0.114,0.633,0.085c0.264,0.346,26.84,34.389,67.331,18.708
		c0.233-0.088,0.495,0.025,0.584,0.259c0.091,0.233-0.025,0.494-0.258,0.584C369.24,225.179,362.039,226.392,355.421,226.392"/>
	<path clip-path="url(#SVGID_6_)" fill="#B5A76B" d="M383.843,348.061c-0.199,0-0.38-0.131-0.435-0.331
		c-0.058-0.208-5.74-21.094-2.368-45.695c3.364-24.537,13.336-61.662,13.437-62.034c0.064-0.24,0.317-0.383,0.554-0.319
		c0.241,0.065,0.384,0.313,0.318,0.554c-0.1,0.372-10.056,37.443-13.414,61.923c-3.346,24.407,2.286,45.123,2.343,45.329
		c0.067,0.24-0.074,0.49-0.314,0.556C383.923,348.056,383.883,348.061,383.843,348.061"/>
	<path clip-path="url(#SVGID_6_)" fill="#B5A76B" d="M354.172,375.808c-0.076,0-0.153-0.019-0.223-0.059
		c-0.217-0.124-0.293-0.399-0.17-0.616c0.084-0.148,8.455-15.032,13.889-37.283c5.648-23.138,11.257-74.518,10.923-76.864
		c-0.036-0.247,0.136-0.476,0.384-0.511c0.242-0.029,0.474,0.136,0.511,0.384c0.424,2.98-5.541,55.091-10.941,77.205
		c-5.465,22.382-13.895,37.366-13.98,37.515C354.481,375.726,354.329,375.808,354.172,375.808"/>
	<path clip-path="url(#SVGID_6_)" fill="#D1D1D1" d="M560.873,678.999c-15.935-0.651-31.858-1.301-47.794-1.952
		c7.911-15.513,17.968-39.027,23.617-69.014c5.594-29.758,13.196-70.145-1.814-98.715c-8.299-15.811-21.779-24.68-38.034-30.204
		c-0.045-0.012-0.08-0.023-0.114-0.034c-7.819-2.66-16.289-4.543-25.124-6.063c-41.778-7.145-91.969-6.049-122.572-38.9
		c-23.561-25.284-41.562-77.187-3.368-196.735h39.758c0,0-40.077,108.738-8.207,169.088
		c31.858,60.351,122.435,50.294,172.752,82.164c5.753,3.642,10.33,8.938,13.926,15.467
		C591.797,554.669,560.873,678.999,560.873,678.999"/>
	<path clip-path="url(#SVGID_6_)" fill="#E2C294" d="M334.431,241.231l9.528-6.794c0,0,0.536-5.973,2.493-8.046
		c1.956-2.073,3.214-2.911,3.214-2.911l13.978,14.427l-15.515,15.624L334.431,241.231z"/>
	<path clip-path="url(#SVGID_6_)" fill="#E27356" d="M338.238,234.553c1.429,2.174,3.375,4.712,5.988,7.251
		c4.095,3.978,8.26,6.439,11.359,7.937c-4.461,6.121-38.996,53.622-49.475,62.289c-13.657,12.592-21.422,12.708-23.485,12.658
		c-5.681-0.14-10.155-2.955-11.869-4.324c-5.462-4.366-5.984-12.313-6.131-14.562c-2.021-30.789,61.098-64.716,70.97-69.886
		C336.735,235.319,337.667,234.843,338.238,234.553"/>
	<path clip-path="url(#SVGID_6_)" fill="#E27356" d="M384.872,234.553c-1.429,2.174-3.376,4.712-5.988,7.251
		c-4.095,3.978-8.26,6.439-11.359,7.937c4.461,6.121,38.996,53.622,49.476,62.289c13.656,12.592,21.422,12.708,23.484,12.658
		c5.682-0.14,10.155-2.955,11.869-4.324c5.462-4.366,5.984-12.313,6.131-14.562c2.021-30.789-61.098-64.716-70.97-69.886
		C386.374,235.319,385.441,234.843,384.872,234.553"/>
	<path clip-path="url(#SVGID_6_)" fill="#EFECE6" d="M401.774,253.532l-43.371,6.315c4.694-12.951,3.132-25.362-4.003-31.098
		c-1.474-1.185-3.746-2.535-7.156-3.198c0.174-1.109,0.58-2.726,1.65-4.323c1.29-1.926,3.661-4.027,9.347-5.26
		c11.112-2.411,26.635-0.205,31.134,2.26C393.875,220.694,404.844,236.27,401.774,253.532"/>
	<path clip-path="url(#SVGID_6_)" fill="#E2C294" d="M345.111,228.869c0.46-2.002,1.5-5.285,4.093-8.4
		c2.76-3.316,7.157-6.297,8.25-5.403c0.686,0.56-0.069,2.53-0.137,2.709c-0.793,2.068-2.391,2.478-3.449,3.919
		c-0.794,1.081-1.459,2.982-0.592,6.55c-0.745-0.333-2.507-0.999-4.745-0.673C346.935,227.805,345.763,228.444,345.111,228.869"/>
	<path clip-path="url(#SVGID_6_)" fill="#383838" d="M363.644,248.369c-0.156,0-0.305-0.085-0.381-0.234
		c-0.107-0.21-0.024-0.468,0.187-0.575c5.471-2.788,11.325-4.461,17.399-4.973c4.891-0.411,9.808-0.051,14.613,1.071
		c0.23,0.054,0.373,0.284,0.32,0.514c-0.055,0.23-0.288,0.375-0.515,0.319c-4.719-1.101-9.541-1.456-14.348-1.051
		c-5.963,0.503-11.71,2.145-17.082,4.882C363.777,248.354,363.71,248.369,363.644,248.369"/>
	<path clip-path="url(#SVGID_6_)" fill="#383838" d="M363.644,237.814c-0.158,0-0.312-0.089-0.386-0.242
		c-0.102-0.213-0.013-0.469,0.2-0.572c4.889-2.361,10.099-3.902,15.486-4.58c5.512-0.695,11.066-0.464,16.509,0.68
		c0.231,0.049,0.379,0.276,0.331,0.508c-0.049,0.23-0.274,0.375-0.507,0.331c-5.349-1.125-10.809-1.351-16.227-0.67
		c-5.295,0.666-10.415,2.181-15.221,4.503C363.77,237.801,363.706,237.814,363.644,237.814"/>
	<path clip-path="url(#SVGID_6_)" fill="#383838" d="M359.887,228.753c-0.178,0-0.344-0.112-0.405-0.29
		c-0.077-0.224,0.043-0.467,0.267-0.543c4.529-1.542,9.221-2.673,13.945-3.361c5.927-0.863,11.967-1.04,17.951-0.527
		c0.235,0.02,0.41,0.228,0.39,0.463c-0.021,0.235-0.231,0.411-0.464,0.39c-5.917-0.506-11.891-0.331-17.754,0.521
		c-4.672,0.68-9.313,1.799-13.792,3.324C359.98,228.746,359.934,228.753,359.887,228.753"/>
	<path clip-path="url(#SVGID_6_)" fill="#383838" d="M354.02,222.522c-0.173,0-0.336-0.105-0.4-0.276
		c-0.084-0.221,0.028-0.469,0.248-0.552c4.272-1.621,8.719-2.808,13.217-3.529c6.173-0.99,12.465-1.111,18.706-0.363
		c0.234,0.029,0.402,0.242,0.373,0.476c-0.028,0.235-0.233,0.397-0.476,0.375c-6.159-0.739-12.374-0.618-18.467,0.357
		c-4.441,0.712-8.831,1.884-13.049,3.484C354.121,222.514,354.069,222.522,354.02,222.522"/>
	<path clip-path="url(#SVGID_6_)" fill="#EFECE6" d="M560.873,678.999c-15.935-0.651-31.858-1.301-47.794-1.952
		c7.911-15.513,17.968-39.027,23.617-69.014c5.594-29.758,13.196-70.145-1.814-98.715c-8.299-15.811-21.779-24.68-38.034-30.204
		c16.799,2.948,55.224,8.049,67.051,24.986C591.797,554.669,560.873,678.999,560.873,678.999"/>
	<path clip-path="url(#SVGID_6_)" fill="#383838" d="M563.459,516.071c-0.104,0-0.212-0.033-0.303-0.102
		c-7.566-5.747-23.392-10.437-24.063-10.634c-0.266-0.078-0.416-0.355-0.339-0.619c0.077-0.266,0.356-0.416,0.62-0.34
		c0.679,0.198,16.675,4.939,24.388,10.796c0.219,0.167,0.262,0.48,0.095,0.701C563.76,516.003,563.609,516.071,563.459,516.071"/>
	<path clip-path="url(#SVGID_6_)" fill="#383838" d="M527.866,662.585c-0.239,0-0.452-0.174-0.491-0.418
		c-0.046-0.272,0.138-0.53,0.41-0.575c0.743-0.123,18.291-2.989,27.549-1.039c0.27,0.057,0.442,0.322,0.387,0.594
		c-0.059,0.269-0.321,0.439-0.593,0.385c-9.069-1.915-26.444,0.926-27.179,1.047C527.922,662.583,527.894,662.585,527.866,662.585"
		/>
	<path clip-path="url(#SVGID_6_)" fill="#383838" d="M533.282,645.399c-0.228,0-0.433-0.155-0.487-0.386
		c-0.063-0.27,0.104-0.538,0.373-0.602c3.829-0.895,23.114-5.21,26.893-2.323c0.22,0.168,0.261,0.481,0.094,0.701
		c-0.168,0.22-0.48,0.262-0.701,0.094c-2.836-2.168-17.714,0.552-26.057,2.503C533.357,645.396,533.319,645.399,533.282,645.399"/>
	<path clip-path="url(#SVGID_6_)" fill="#383838" d="M561.576,619.88c-0.083,0-0.167-0.021-0.245-0.064
		c-2.621-1.475-13.675-0.7-19.795-0.01l-0.111-0.994c2.806-0.315,16.97-1.797,20.397,0.133c0.24,0.136,0.326,0.44,0.189,0.681
		C561.92,619.789,561.75,619.88,561.576,619.88 M541.472,619.31h0.011H541.472z"/>
	<path clip-path="url(#SVGID_6_)" fill="#383838" d="M566.33,593.012c-0.062,0-0.125-0.012-0.186-0.036
		c-2.497-0.998-14.962-0.44-21.206-0.005c-0.294,0.02-0.514-0.188-0.534-0.464c-0.018-0.275,0.189-0.515,0.464-0.534
		c1.872-0.131,18.373-1.238,21.648,0.075c0.256,0.103,0.38,0.394,0.277,0.649C566.717,592.893,566.528,593.012,566.33,593.012"/>
	<path clip-path="url(#SVGID_6_)" fill="#383838" d="M568.674,541.936c-0.107,0-0.218-0.035-0.31-0.107
		c-7.376-5.816-21.345-9.503-21.937-9.657c-0.268-0.069-0.428-0.343-0.357-0.609c0.069-0.267,0.339-0.432,0.609-0.357
		c0.6,0.156,14.766,3.894,22.305,9.839c0.216,0.171,0.253,0.485,0.083,0.702C568.968,541.87,568.821,541.936,568.674,541.936"/>
	<path clip-path="url(#SVGID_6_)" fill="#383838" d="M566.439,572.942c-0.098,0-0.194-0.028-0.28-0.087
		c-5.191-3.529-17.144-3.977-17.65-3.995c-0.275-0.01-0.491-0.241-0.482-0.518c0.012-0.275,0.244-0.464,0.518-0.482
		c0.518,0.02,12.75,0.479,18.177,4.169c0.229,0.155,0.287,0.466,0.132,0.694C566.756,572.866,566.599,572.942,566.439,572.942"/>
	<path clip-path="url(#SVGID_6_)" fill="#383838" d="M567.488,554.073c-0.098,0-0.194-0.028-0.28-0.087
		c-5.169-3.515-16.727-6.39-17.217-6.511c-0.268-0.066-0.432-0.337-0.364-0.605c0.064-0.267,0.33-0.432,0.604-0.365
		c0.496,0.122,12.223,3.04,17.538,6.655c0.229,0.155,0.287,0.466,0.132,0.694C567.805,553.997,567.647,554.073,567.488,554.073"/>
	<path clip-path="url(#SVGID_6_)" fill="#B5A76B" d="M477.053,412.544c-0.297-2.596-0.626-5.229-0.979-7.826
		c-3.239-23.889-8.835-47.752-16.631-70.929l0.947-0.318c7.817,23.235,13.427,47.161,16.675,71.112
		c0.354,2.605,0.684,5.245,0.981,7.848L477.053,412.544z"/>
	<path clip-path="url(#SVGID_6_)" fill="#B5A76B" d="M507.91,388.538c-1.313-12.778-3.942-25.435-7.816-37.614
		c-6.288-19.766-15.82-38.338-28.333-55.2l0.802-0.596c12.579,16.951,22.162,35.621,28.484,55.493
		c3.895,12.245,6.538,24.968,7.857,37.814L507.91,388.538z"/>
	
		<rect x="453.361" y="343.905" transform="matrix(0.31 0.9507 -0.9507 0.31 656.5957 -215.9234)" clip-path="url(#SVGID_6_)" fill="#B5A76B" width="47.397" height="1"/>
</g>
</svg>
