<?xml version="1.0" encoding="utf-8"?>
<!-- Generator: Adobe Illustrator 16.0.0, SVG Export Plug-In . SVG Version: 6.00 Build 0)  -->
<!DOCTYPE svg PUBLIC "-//W3C//DTD SVG 1.1//EN" "http://www.w3.org/Graphics/SVG/1.1/DTD/svg11.dtd">
<svg version="1.1" id="Layer_1" xmlns="http://www.w3.org/2000/svg" xmlns:xlink="http://www.w3.org/1999/xlink" x="0px" y="0px"
	 width="1000px" height="762.076px" viewBox="0 0 1000 762.076" enable-background="new 0 0 1000 762.076" xml:space="preserve">
<g>
	<defs>
		<rect id="SVGID_1_" y="-175.787" width="1000" height="1000"/>
	</defs>
	<clipPath id="SVGID_2_">
		<use xlink:href="#SVGID_1_"  overflow="visible"/>
	</clipPath>
	<rect x="152.756" y="147.254" clip-path="url(#SVGID_2_)" fill="#99CCE0" width="671.591" height="459.767"/>
	<g clip-path="url(#SVGID_2_)">
		<defs>
			<rect id="SVGID_3_" y="-175.787" width="1000" height="1000"/>
		</defs>
		<clipPath id="SVGID_4_">
			<use xlink:href="#SVGID_3_"  overflow="visible"/>
		</clipPath>
		<g opacity="0.2" clip-path="url(#SVGID_4_)">
			<g>
				<defs>
					<rect id="SVGID_5_" x="219.963" y="195.517" width="21.592" height="490.053"/>
				</defs>
				<clipPath id="SVGID_6_">
					<use xlink:href="#SVGID_5_"  overflow="visible"/>
				</clipPath>
				<path clip-path="url(#SVGID_6_)" fill="none" stroke="#272828" stroke-width="7.236" stroke-miterlimit="10" d="
					M223.579,684.915l14.348-77.895c-4.783-137.126-9.566-274.252-14.348-411.378"/>
			</g>
		</g>
		<path clip-path="url(#SVGID_4_)" fill="#E2C294" d="M238.663,310.417c-1.142-1.62-2.284-3.241-3.425-4.862
			c0.186-1.459,0.271-3.606-0.332-6.077c-1.099-4.512-3.817-7.343-5.082-8.507c-0.099,0.898-0.142,2.027,0,3.314
			c0.181,1.646,0.602,2.997,0.994,3.978c-2.246-2.173-4.492-4.346-6.737-6.519c-0.37,5.229-0.738,10.46-1.108,15.69
			c0.331,0.744,1.346,2.76,3.646,3.977c1.157,0.613,2.246,0.815,2.984,0.884c0.994,1.621,1.988,3.241,2.983,4.862
			C234.612,314.91,236.637,312.664,238.663,310.417"/>
		<g opacity="0.2" clip-path="url(#SVGID_4_)">
			<g>
				<defs>
					<rect id="SVGID_7_" x="361.385" y="195.517" width="21.592" height="490.053"/>
				</defs>
				<clipPath id="SVGID_8_">
					<use xlink:href="#SVGID_7_"  overflow="visible"/>
				</clipPath>
				<path clip-path="url(#SVGID_8_)" fill="none" stroke="#272828" stroke-width="7.236" stroke-miterlimit="10" d="M365,684.915
					l14.348-77.895c-4.783-137.126-9.566-274.252-14.348-411.378"/>
			</g>
		</g>
		<rect x="598.408" y="286.289" clip-path="url(#SVGID_4_)" fill="#BDDEEF" width="159.813" height="320.731"/>
		<path clip-path="url(#SVGID_4_)" fill="#99CCE0" d="M626.708,456.644c0,5.516-4.472,9.988-9.988,9.988s-9.988-4.473-9.988-9.988
			s4.472-9.988,9.988-9.988S626.708,451.128,626.708,456.644"/>
		
			<line clip-path="url(#SVGID_4_)" fill="none" stroke="#BDDEEF" stroke-width="7.236" stroke-miterlimit="10" x1="223.579" y1="192.912" x2="223.579" y2="684.915"/>
		
			<line clip-path="url(#SVGID_4_)" fill="none" stroke="#BDDEEF" stroke-width="7.236" stroke-miterlimit="10" x1="365" y1="192.912" x2="365" y2="684.915"/>
		
			<line clip-path="url(#SVGID_4_)" fill="none" stroke="#5993AA" stroke-width="7.538" stroke-miterlimit="10" x1="365" y1="394.254" x2="365" y2="407.082"/>
		
			<line clip-path="url(#SVGID_4_)" fill="none" stroke="#BDDEEF" stroke-width="6.873" stroke-miterlimit="10" x1="223.579" y1="252.832" x2="365" y2="252.832"/>
		
			<line clip-path="url(#SVGID_4_)" fill="none" stroke="#BDDEEF" stroke-width="6.873" stroke-miterlimit="10" x1="223.579" y1="326.75" x2="368.366" y2="327.07"/>
		
			<line clip-path="url(#SVGID_4_)" fill="none" stroke="#BDDEEF" stroke-width="6.873" stroke-miterlimit="10" x1="223.579" y1="400.668" x2="368.366" y2="400.668"/>
		
			<line clip-path="url(#SVGID_4_)" fill="none" stroke="#BDDEEF" stroke-width="6.873" stroke-miterlimit="10" x1="223.579" y1="474.586" x2="365" y2="474.586"/>
		
			<line clip-path="url(#SVGID_4_)" fill="none" stroke="#BDDEEF" stroke-width="6.873" stroke-miterlimit="10" x1="223.579" y1="548.504" x2="365" y2="548.504"/>
		
			<line clip-path="url(#SVGID_4_)" fill="none" stroke="#BDDEEF" stroke-width="6.873" stroke-miterlimit="10" x1="223.579" y1="622.422" x2="365" y2="622.422"/>
		<path clip-path="url(#SVGID_4_)" fill="#5993AA" d="M366.683,400.585c0,0.787-0.638,1.425-1.425,1.425
			c-0.787,0-1.424-0.638-1.424-1.425s0.637-1.426,1.424-1.426C366.044,399.159,366.683,399.798,366.683,400.585"/>
		<path clip-path="url(#SVGID_4_)" fill="#23AEB5" d="M340.92,391.633c-1.39,6.9-24.2,7.6-32.09,7.84
			c-23.19,0.721-39.02,1.221-42.47-6.479c-4.61-10.261,14.41-31.561,13.79-41.561c-0.02-0.42-0.24-3.27-0.38-7.52
			c-0.06-1.99-0.1-4.29-0.1-6.8c-0.06-0.58-0.12-1.17-0.19-1.771c-0.17-1.47-0.37-2.99-0.61-4.55c-0.03-0.24-0.07-0.48-0.11-0.72
			c0.04,0,1.91-29.43,0.7-31.63c0-0.01-0.01-0.02-0.02-0.03c-0.05-0.1-0.12-0.13-0.2-0.08c0.03-0.01,0.05-0.03,0.07-0.05l0.02-0.021
			h0.02c1.18-0.62,4.92-2.09,10.05-3.53c0.03,0,0.05-0.02,0.08-0.02c0.62-0.17,1.24-0.34,1.91-0.5c0.03-0.03,0.05-0.03,0.1-0.03
			c1.2-0.33,2.47-0.62,3.79-0.93c3.24-0.72,6.76-1.35,10.41-1.78c3.04-0.33,7.36,0.43,11.87,1.78c0.62,0.19,1.25,0.38,1.87,0.6
			c0.07,0.02,0.15,0.04,0.24,0.07c0.55,0.19,1.13,0.38,1.68,0.57c0.1,0.05,0.17,0.08,0.24,0.1c5.61,2.01,11.06,4.68,14.29,6.88h0.03
			c0.09,0.07,0.21,0.15,0.31,0.22c0.26,0.19,0.53,0.41,0.77,0.67c5.47,5.76-0.46,24.82-1.99,33.12c-0.12,0.601-3.6,17.591-0.79,26.2
			c1.12,3.431,5.44,14.07,5.44,14.07c2.03,4.8-2.37,8.13-1.03,10.27c0.6,0.98,1.1,1.771,1.49,2.471c0.12,0.21,0.21,0.38,0.31,0.55
			C340.9,390.003,341.09,390.763,340.92,391.633"/>
		<path clip-path="url(#SVGID_4_)" fill="#1F9393" d="M306.493,420.426c-22.594-0.355-36.383,0.169-44.435-7.341
			c-1.864-1.74-2.873-3.325-3.294-4.26c-3.145-6.975,0.257-13.903,4.12-31.388c28.427-1.813,54.824,6.454,83.25,4.642
			c1.321,6.425,2.221,11.887,2.837,16.077c0.685,4.659,0.88,6.794,0.049,9.337c-1.56,4.771-5.573,7.415-7.429,8.603
			C333.529,421.25,323.097,420.687,306.493,420.426"/>
		<path clip-path="url(#SVGID_4_)" fill-rule="evenodd" clip-rule="evenodd" fill="#E2C294" d="M320.43,294.813
			c-2.113,3.435-7.551,9.829-12.065,10.84c-1.075,3.622-1.144,6.014-2.219,9.636c-0.443-3.814-1.431-5.703-1.87-9.517
			c-3.33,0.021-12.523-6.541-14.394-11.055c1.043-0.448,3.092-0.764,5.8-2.689c3.389-2.411,4.889-5.512,5.452-6.875
			c3.037-0.169,6.073-0.333,9.11-0.503c0.238,1.674,0.865,3.17,1.734,4.469C314.045,292.201,317.494,294.173,320.43,294.813"/>
		<path clip-path="url(#SVGID_4_)" fill="#003399" d="M321.587,294.589c-1.239,2.072-2.625,3.965-4.148,5.662
			c-2.328,2.589-4.931,4.675-7.753,6.211c-0.443,2.612-0.786,3.783-1.212,5.246c-0.283,0.952-0.599,2.036-1.015,3.769
			c-0.169,0.7-0.709,1.175-1.345,1.203c-0.045,0-0.096,0.004-0.142,0c-0.686-0.05-1.225-0.608-1.317-1.372l-1.427-8.923
			c-2.021-0.513-3.965-1.405-5.785-2.644c-3.229-2.191-6.276-6.234-7.963-9.029c0.613-0.173,1.248-0.343,1.907-0.512
			c0.032-0.009,0.064-0.018,0.096-0.027c1.569,2.483,4.318,6.046,7.076,7.926c1.811,1.23,3.745,2.067,5.753,2.497l0.663,0.142
			l1.226,7.661c0.128-0.457,0.252-0.865,0.361-1.253c0.449-1.542,0.778-2.653,1.245-5.493l0.082-0.49l0.439-0.228
			c2.776-1.446,5.342-3.472,7.633-6.015c1.354-1.504,2.594-3.178,3.705-4.994c0.563,0.183,1.13,0.375,1.692,0.581
			C321.436,294.534,321.509,294.562,321.587,294.589"/>
		<path clip-path="url(#SVGID_4_)" fill-rule="evenodd" clip-rule="evenodd" fill="#003399" d="M289.462,296.594
			c-0.016,0.344-0.297,0.609-0.628,0.594c-0.33-0.016-0.585-0.307-0.568-0.651c0.016-0.343,0.297-0.609,0.627-0.594
			C289.224,295.959,289.478,296.25,289.462,296.594"/>
		<path clip-path="url(#SVGID_4_)" fill-rule="evenodd" clip-rule="evenodd" fill="#003399" d="M291.076,299.252
			c-0.016,0.344-0.297,0.609-0.628,0.594c-0.33-0.016-0.585-0.307-0.568-0.651c0.016-0.343,0.297-0.609,0.627-0.594
			C290.837,298.617,291.092,298.908,291.076,299.252"/>
		<path clip-path="url(#SVGID_4_)" fill-rule="evenodd" clip-rule="evenodd" fill="#003399" d="M292.74,301.279
			c-0.016,0.344-0.297,0.609-0.628,0.594c-0.33-0.016-0.585-0.307-0.568-0.651c0.016-0.343,0.297-0.609,0.627-0.594
			C292.502,300.645,292.756,300.936,292.74,301.279"/>
		<path clip-path="url(#SVGID_4_)" fill-rule="evenodd" clip-rule="evenodd" fill="#003399" d="M294.802,303.248
			c-0.016,0.344-0.297,0.609-0.628,0.594c-0.33-0.016-0.585-0.307-0.568-0.651c0.016-0.343,0.297-0.609,0.627-0.594
			C294.563,302.613,294.817,302.904,294.802,303.248"/>
		<path clip-path="url(#SVGID_4_)" fill-rule="evenodd" clip-rule="evenodd" fill="#003399" d="M296.919,304.498
			c0.27,0.198,0.334,0.586,0.143,0.868c-0.191,0.281-0.565,0.349-0.835,0.151c-0.27-0.197-0.334-0.586-0.143-0.867
			C296.275,304.368,296.648,304.3,296.919,304.498"/>
		<path clip-path="url(#SVGID_4_)" fill-rule="evenodd" clip-rule="evenodd" fill="#003399" d="M299.913,306.153
			c0.27,0.198,0.334,0.586,0.143,0.867c-0.191,0.282-0.565,0.35-0.835,0.152c-0.27-0.197-0.334-0.586-0.143-0.867
			C299.269,306.023,299.643,305.955,299.913,306.153"/>
		<path clip-path="url(#SVGID_4_)" fill-rule="evenodd" clip-rule="evenodd" fill="#003399" d="M302.404,307.343
			c0.27,0.198,0.334,0.586,0.143,0.868c-0.191,0.281-0.565,0.349-0.835,0.151c-0.27-0.197-0.334-0.586-0.143-0.867
			C301.76,307.213,302.134,307.145,302.404,307.343"/>
		<path clip-path="url(#SVGID_4_)" fill-rule="evenodd" clip-rule="evenodd" fill="#003399" d="M302.854,310.619
			c0.27,0.198,0.334,0.586,0.143,0.868c-0.191,0.281-0.565,0.349-0.835,0.151c-0.27-0.197-0.334-0.586-0.143-0.867
			C302.209,310.489,302.583,310.421,302.854,310.619"/>
		<path clip-path="url(#SVGID_4_)" fill-rule="evenodd" clip-rule="evenodd" fill="#003399" d="M303.314,313.664
			c0.261,0.211,0.307,0.602,0.103,0.874c-0.204,0.271-0.58,0.321-0.841,0.11c-0.261-0.211-0.307-0.602-0.103-0.874
			C302.677,313.502,303.053,313.453,303.314,313.664"/>
		<path clip-path="url(#SVGID_4_)" fill-rule="evenodd" clip-rule="evenodd" fill="#003399" d="M304.033,316.533
			c0.261,0.211,0.307,0.602,0.103,0.874c-0.204,0.271-0.58,0.321-0.841,0.11c-0.261-0.211-0.307-0.602-0.103-0.874
			C303.396,316.371,303.772,316.322,304.033,316.533"/>
		<path clip-path="url(#SVGID_4_)" fill-rule="evenodd" clip-rule="evenodd" fill="#003399" d="M306.511,317.825
			c0.261,0.211,0.307,0.602,0.103,0.874c-0.204,0.271-0.58,0.321-0.841,0.11c-0.261-0.211-0.307-0.602-0.103-0.874
			C305.874,317.663,306.25,317.613,306.511,317.825"/>
		<path clip-path="url(#SVGID_4_)" fill-rule="evenodd" clip-rule="evenodd" fill="#003399" d="M308.904,316.416
			c0.261,0.211,0.307,0.602,0.103,0.874c-0.204,0.271-0.58,0.321-0.841,0.11c-0.261-0.211-0.307-0.602-0.103-0.874
			C308.267,316.254,308.643,316.205,308.904,316.416"/>
		<path clip-path="url(#SVGID_4_)" fill-rule="evenodd" clip-rule="evenodd" fill="#003399" d="M310.792,310.307
			c0.261,0.211,0.307,0.602,0.103,0.874c-0.204,0.271-0.58,0.321-0.841,0.11s-0.307-0.602-0.103-0.874
			S310.531,310.096,310.792,310.307"/>
		<path clip-path="url(#SVGID_4_)" fill-rule="evenodd" clip-rule="evenodd" fill="#003399" d="M311.271,307.393
			c0.261,0.211,0.307,0.602,0.103,0.874c-0.204,0.272-0.58,0.321-0.841,0.11c-0.261-0.211-0.307-0.602-0.103-0.874
			S311.009,307.182,311.271,307.393"/>
		<path clip-path="url(#SVGID_4_)" fill-rule="evenodd" clip-rule="evenodd" fill="#003399" d="M313.601,305.834
			c0.261,0.211,0.307,0.602,0.103,0.874c-0.204,0.271-0.58,0.321-0.841,0.11c-0.261-0.211-0.307-0.602-0.103-0.874
			S313.34,305.624,313.601,305.834"/>
		<path clip-path="url(#SVGID_4_)" fill-rule="evenodd" clip-rule="evenodd" fill="#003399" d="M316.002,304.079
			c0.261,0.211,0.307,0.602,0.103,0.874s-0.58,0.321-0.841,0.11c-0.261-0.211-0.307-0.602-0.103-0.874
			C315.365,303.917,315.741,303.868,316.002,304.079"/>
		<path clip-path="url(#SVGID_4_)" fill-rule="evenodd" clip-rule="evenodd" fill="#003399" d="M318.023,302.105
			c0.261,0.211,0.307,0.602,0.103,0.874s-0.58,0.321-0.841,0.11c-0.261-0.211-0.307-0.602-0.103-0.874
			S317.763,301.894,318.023,302.105"/>
		<path clip-path="url(#SVGID_4_)" fill-rule="evenodd" clip-rule="evenodd" fill="#003399" d="M320.114,299.914
			c0.261,0.211,0.307,0.602,0.103,0.874s-0.58,0.321-0.841,0.11c-0.261-0.211-0.307-0.602-0.103-0.874
			C319.477,299.752,319.853,299.703,320.114,299.914"/>
		<path clip-path="url(#SVGID_4_)" fill-rule="evenodd" clip-rule="evenodd" fill="#003399" d="M321.535,298.072
			c0.261,0.211,0.307,0.602,0.103,0.874c-0.204,0.271-0.58,0.321-0.841,0.11c-0.261-0.211-0.307-0.602-0.103-0.874
			C320.897,297.91,321.273,297.861,321.535,298.072"/>
		<path clip-path="url(#SVGID_4_)" fill-rule="evenodd" clip-rule="evenodd" fill="#003399" d="M322.748,295.991
			c0.261,0.211,0.307,0.602,0.103,0.874c-0.204,0.272-0.58,0.321-0.841,0.11c-0.261-0.211-0.307-0.602-0.103-0.874
			C322.111,295.829,322.487,295.78,322.748,295.991"/>
		<path clip-path="url(#SVGID_4_)" fill-rule="evenodd" clip-rule="evenodd" fill="#003399" d="M309.881,313.39
			c0.261,0.211,0.307,0.602,0.103,0.874c-0.204,0.271-0.58,0.321-0.841,0.11c-0.261-0.211-0.307-0.602-0.103-0.874
			C309.244,313.228,309.62,313.179,309.881,313.39"/>
		<path clip-path="url(#SVGID_4_)" fill-rule="evenodd" clip-rule="evenodd" fill="#B59B76" d="M311.978,289.119
			c-1.651,1.143-4.866,2.854-8.859,2.305c-1.628-0.224-2.978-0.773-4.002-1.331c1.363-1.861,1.834-3.778,2.017-4.939
			c3.037-0.17,6.074-0.334,9.111-0.504C310.481,286.325,311.108,287.82,311.978,289.119"/>
		<path clip-path="url(#SVGID_4_)" fill="#2E2E30" d="M290.823,220.493c1.044-1.444,3.901-4.97,8.754-6.174
			c3.286-0.816,5.967-0.19,8.755,0.461c5.148,1.201,8.67,3.522,11.518,5.437c3.063,2.058,6.243,4.195,9.308,8.201
			c3.296,4.309,4.371,8.051,6.082,14.007c0.821,2.859,1.036,4.529,0.46,6.266c-0.505,1.524-1.229,1.921-1.751,3.87
			c-0.172,0.644-0.604,2.511-0.184,4.7c0.471,2.455,1.48,2.54,2.673,5.621c0.885,2.289,1.532,3.959,1.013,5.806
			c-0.221,0.787-1.284,2.183-3.409,4.976c-1.055,1.385-1.515,1.923-1.751,2.949c-0.106,0.461-0.494,2.144,0.553,3.686
			c1.002,1.477,2.615,1.786,2.949,1.843c-0.16,1.324-1.021,2.442-2.212,2.856c-1.461,0.509-3.179-0.123-4.055-1.566
			c0.372,0.523,0.898,1.395,1.198,2.58c0.239,0.941,0.585,2.308,0,3.594c-0.546,1.2-1.321,1.049-2.211,2.672
			c-0.384,0.699-0.735,1.363-0.553,2.12c0.282,1.174,1.634,1.677,1.843,1.751c-1.038,0.712-2.405,0.71-3.41,0
			c-0.928-0.656-1.396-1.808-1.198-2.949c-0.15,0.641-0.846,3.288-3.409,4.976c-3.607,2.375-7.623,0.686-7.925,0.553
			c1.583,0.49,3.133-0.098,3.686-1.198c0.45-0.898,0.196-2.055-0.369-2.765c-0.757-0.951-1.604-0.509-2.764-1.566
			c-0.099-0.09-1.524-1.418-1.198-2.58c0.208-0.746,0.974-0.845,1.013-1.475c0.036-0.578-0.571-1.082-1.29-1.566
			c-2.249-1.516-4.331-2.028-4.331-2.028c-3.993-0.982-6.073-1.493-7.28-0.368c-0.619,0.577-0.332,0.954-1.198,4.146
			c-0.608,2.244-0.912,3.366-1.566,4.332c-1.619,2.389-4.29,3.078-4.516,3.133c-3.778,0.917-6.769-1.564-7.095-1.843
			c1.689-0.215,3.379-0.43,5.068-0.645c-0.108-0.009-1.488-0.137-2.12-1.29c-0.564-1.031-0.287-2.436,0.738-3.318
			c-0.507,0.007-3.063-0.011-5.161-2.027c-1.926-1.851-2.168-4.138-2.211-4.7c0.833,0.723,1.896,0.623,2.303,0.092
			c0.351-0.458,0.248-1.28-0.184-1.659c-0.635-0.556-1.468,0.3-2.396-0.092c-1.003-0.423-0.755-1.731-2.027-4.515
			c-0.443-0.97-0.73-1.599-1.29-2.304c-1.402-1.766-2.673-1.692-3.778-2.764c-2.003-1.943-1.401-5.652-1.106-7.465
			c0.64-3.939,2.375-4.544,2.764-8.109c0.266-2.428-0.332-4.046-0.829-5.99c-0.37-1.443-2.268-9.257-0.553-16.587
			c2.114-9.032,8.632-12.701,9.215-12.993c1.013-0.507,2.027-0.633,2.027-0.633c0.234-0.03,0.891-0.097,1.728,0.034
			C289.854,220.098,290.425,220.311,290.823,220.493"/>
		<path clip-path="url(#SVGID_4_)" fill="#E2C294" d="M326.991,254.226c0.052,1.396,0.225,8.462-3.555,16.316
			c-1.323,2.751-8.566,17.802-20.319,17.693c-12.32-0.113-19.317-16.792-20.134-18.74c-2.944-7.018-2.81-13.232-2.683-15.461
			c0.781-13.748,4.314-27.579,22.001-27.589C320.266,226.436,326.447,239.637,326.991,254.226"/>
		<path clip-path="url(#SVGID_4_)" fill="#E2C294" d="M281.741,261.775c-0.547-2.52-1.4-4.248-1.993-5.26
			c-0.524-0.894-1.099-1.662-2.042-1.969c-0.215-0.071-0.875-0.286-1.489,0c-0.712,0.331-1.006,1.169-1.201,2.089
			c-0.614,2.899-0.025,5.594,0.192,6.485c0.2,0.821,0.846,2.268,2.138,5.164c0.535,1.2,0.963,2.1,1.945,2.57
			c0.125,0.06,1.039,0.482,1.994,0.192c1.346-0.408,2.318-2.093,2.185-4.131C282.894,265.203,282.317,263.489,281.741,261.775"/>
		<path clip-path="url(#SVGID_4_)" fill="#E2C294" d="M324.78,259.975c0.584-2.784,1.494-4.692,2.127-5.809
			c0.558-0.988,1.171-1.836,2.177-2.176c0.23-0.077,0.934-0.315,1.589,0c0.759,0.366,1.073,1.292,1.281,2.308
			c0.655,3.202,0.027,6.178-0.205,7.162c-0.214,0.907-0.902,2.506-2.28,5.704c-0.571,1.325-1.028,2.319-2.076,2.838
			c-0.133,0.066-1.108,0.532-2.126,0.212c-1.436-0.451-2.474-2.311-2.332-4.562C323.55,263.759,324.166,261.867,324.78,259.975"/>
		<path clip-path="url(#SVGID_4_)" fill="#B59B76" d="M301.102,262.883c-0.356,1.77-0.801,3.478-1.321,5.198
			c-0.167,0.537-0.403,1.107-0.504,1.64c-0.042,0.253-0.028,0.444,0.069,0.618c0.101,0.199,0.336,0.343,0.518,0.474
			c1.428,0.873,3.427,0.486,4.821-0.338c-1.286,1.313-3.525,1.875-5.198,0.943c-1.608-0.856-0.845-2.307-0.376-3.573
			C299.716,266.175,300.316,264.484,301.102,262.883"/>
		<path clip-path="url(#SVGID_4_)" fill="#B59B76" d="M296.078,276.182c3.417,2.102,7.474,2.723,11.284,1.43
			c1.245-0.407,2.443-0.975,3.595-1.669c-2.073,2.01-5.014,3.169-7.918,3.085C300.484,278.985,297.908,277.953,296.078,276.182"/>
		<path clip-path="url(#SVGID_4_)" fill="#240F0F" d="M299.577,250.764c0.091-0.206-2.309-1.626-4.976-2.58
			c-1.645-0.589-3.097-0.894-4.174-1.062c-0.197-0.031-0.397-0.01-0.583,0.062c-0.474,0.183-1.004,0.431-1.555,0.769
			c-1.154,0.709-1.96,1.543-2.491,2.207c-0.053,0.067,0.017,0.16,0.096,0.13c0.229-0.087,0.459-0.175,0.69-0.263
			c2.653-1.021,2.859-1.181,3.363-1.336c1.125-0.347,2.977,0.178,6.635,1.244C298.758,250.569,299.527,250.877,299.577,250.764"/>
		<path clip-path="url(#SVGID_4_)" fill="#240F0F" d="M303.631,250.543c-0.091-0.206,2.309-1.626,4.976-2.58
			c1.645-0.589,3.097-0.894,4.174-1.062c0.197-0.031,0.397-0.01,0.583,0.062c0.474,0.183,1.004,0.431,1.555,0.769
			c1.154,0.709,1.96,1.543,2.491,2.207c0.053,0.067-0.017,0.16-0.096,0.13c-0.229-0.087-0.459-0.175-0.69-0.263
			c-2.653-1.021-2.859-1.181-3.363-1.336c-1.125-0.348-2.977,0.178-6.635,1.244C304.45,250.348,303.681,250.656,303.631,250.543"/>
		<path clip-path="url(#SVGID_4_)" fill="#2E2E30" d="M330.332,250.603c-0.466,0.45-1.078,1.152-1.52,2.143
			c-0.537,1.201-0.409,1.897-0.968,2.971c-0.292,0.56-0.809,1.299-1.797,2.005c-0.069-1.221-0.138-2.442-0.207-3.663
			c-0.337,1.509-0.74,3.087-1.221,4.722c-0.883,2.997-1.89,5.712-2.926,8.133c0.128-2.938,0.046-5.389-0.069-7.188
			c-0.24-3.749-0.63-4.799-1.313-5.667c-0.977-1.24-2.24-1.713-3.94-2.35c-3.025-1.134-3.749-0.447-6.566-1.382
			c-1.763-0.586-4.098-1.362-5.598-3.456c-1.247-1.742-0.735-2.748-2.35-5.46c-0.834-1.402-1.671-2.309-2.418-3.11
			c-1.291-1.382-3.588-3.496-7.188-5.253c-1.072,2.562-2.483,5.454-4.354,8.501c-1.475,2.402-2.986,4.494-4.424,6.289
			c0.505,1.274,1.328,3.868,0.899,7.119c-0.618,4.685-3.421,7.606-4.354,8.501c0.257-0.964,0.682-3.087-0.035-5.598
			c-0.522-1.83-1.436-3.116-2.039-3.836c-0.126-0.887-2.101-16.51,9.192-25.606c6.622-5.334,14.196-5.517,15.574-5.529
			c1.823-0.017,8.563,0.118,14.928,4.699c5.304,3.818,7.563,8.718,9.492,12.901C328.966,244.473,329.862,248.051,330.332,250.603"/>
		<path clip-path="url(#SVGID_4_)" fill="#D1D1D1" d="M281.331,269.712c0,0.992-0.654,1.797-1.46,1.797s-1.46-0.805-1.46-1.797
			c0-0.992,0.654-1.797,1.46-1.797S281.331,268.721,281.331,269.712"/>
		<path clip-path="url(#SVGID_4_)" fill="#D1D1D1" d="M279.995,271.688c0.471,0.651,1.2,1.859,1.291,3.208
			c0.137,2.04-0.312,2.848-0.593,3.148c-0.19,0.203-0.42,0.306-0.684,0.306c-0.294,0-0.542-0.122-0.758-0.373
			c-0.515-0.598-0.715-1.761-0.524-3.035C278.969,273.329,279.585,272.253,279.995,271.688 M280.009,270.801
			c0,0-1.425,1.296-1.84,4.057c-0.333,2.215,0.432,4.056,1.84,4.056c1.016,0,2.047-0.977,1.84-4.056
			C281.699,272.622,280.009,270.801,280.009,270.801"/>
		
			<rect x="279.012" y="276.256" transform="matrix(0.8584 0.513 -0.513 0.8584 181.7033 -103.9777)" clip-path="url(#SVGID_4_)" fill="#D1D1D1" width="0.376" height="1.797"/>
		
			<rect x="279.719" y="276.966" transform="matrix(0.5127 0.8586 -0.8586 0.5127 374.7195 -105.8677)" clip-path="url(#SVGID_4_)" fill="#D1D1D1" width="1.798" height="0.375"/>
		
			<rect x="280.156" y="275.526" transform="matrix(0.998 0.0628 -0.0628 0.998 17.8775 -17.1078)" clip-path="url(#SVGID_4_)" fill="#D1D1D1" width="1.624" height="0.376"/>
		
			<rect x="278.185" y="275.355" transform="matrix(0.998 0.0628 -0.0628 0.998 17.8638 -16.9807)" clip-path="url(#SVGID_4_)" fill="#D1D1D1" width="1.477" height="0.376"/>
		
			<rect x="278.434" y="273.898" transform="matrix(0.5127 0.8586 -0.8586 0.5127 371.4594 -106.2598)" clip-path="url(#SVGID_4_)" fill="#D1D1D1" width="1.798" height="0.375"/>
		
			<rect x="280.564" y="273.188" transform="matrix(0.8584 0.513 -0.513 0.8584 180.3493 -105.2081)" clip-path="url(#SVGID_4_)" fill="#D1D1D1" width="0.376" height="1.797"/>
		<path clip-path="url(#SVGID_4_)" fill="#D1D1D1" d="M327.789,269.178c0,0.992-0.654,1.797-1.46,1.797s-1.46-0.805-1.46-1.797
			c0-0.992,0.654-1.797,1.46-1.797S327.789,268.186,327.789,269.178"/>
		<path clip-path="url(#SVGID_4_)" fill="#D1D1D1" d="M326.453,271.153c0.471,0.651,1.2,1.859,1.291,3.208
			c0.137,2.04-0.312,2.848-0.593,3.148c-0.19,0.203-0.42,0.306-0.684,0.306c-0.294,0-0.542-0.122-0.758-0.373
			c-0.515-0.598-0.715-1.761-0.524-3.035C325.427,272.794,326.043,271.719,326.453,271.153 M326.467,270.267
			c0,0-1.425,1.296-1.84,4.057c-0.333,2.215,0.432,4.056,1.84,4.056c1.016,0,2.047-0.977,1.84-4.056
			C328.157,272.087,326.467,270.267,326.467,270.267"/>
		
			<rect x="325.469" y="275.721" transform="matrix(0.8584 0.513 -0.513 0.8584 188.0071 -127.8846)" clip-path="url(#SVGID_4_)" fill="#D1D1D1" width="0.376" height="1.797"/>
		
			<rect x="326.176" y="276.432" transform="matrix(0.5127 0.8586 -0.8586 0.5127 396.9012 -146.0164)" clip-path="url(#SVGID_4_)" fill="#D1D1D1" width="1.798" height="0.375"/>
		
			<rect x="326.613" y="274.992" transform="matrix(0.998 0.0628 -0.0628 0.998 17.9357 -20.0277)" clip-path="url(#SVGID_4_)" fill="#D1D1D1" width="1.624" height="0.376"/>
		
			<rect x="324.643" y="274.82" transform="matrix(0.998 0.0628 -0.0628 0.998 17.922 -19.9007)" clip-path="url(#SVGID_4_)" fill="#D1D1D1" width="1.477" height="0.376"/>
		
			<rect x="324.892" y="273.364" transform="matrix(0.5127 0.8586 -0.8586 0.5127 393.6412 -146.4087)" clip-path="url(#SVGID_4_)" fill="#D1D1D1" width="1.798" height="0.376"/>
		
			<rect x="327.021" y="272.653" transform="matrix(0.8587 0.5124 -0.5124 0.8587 186.3852 -129.0215)" clip-path="url(#SVGID_4_)" fill="#D1D1D1" width="0.376" height="1.797"/>
		<path clip-path="url(#SVGID_4_)" fill="#B59B76" d="M305.177,259.889c0-3.55,2.652-6.44,5.391-7.078
			c3.161-0.736,5.977,1.733,6.381,2.123c1.417,1.37,1.834,3.004,2.12,3.878c-0.685,0.787-2.608,2.786-5.668,3.385
			C309.017,263.055,305.738,260.365,305.177,259.889"/>
		<path clip-path="url(#SVGID_4_)" fill="#FFFFFF" d="M305.177,260.141c0.461-3.235,2.652-5.785,5.391-6.358
			c3.161-0.662,5.747,1.584,6.151,1.935c1.417,1.231,2.064,2.671,2.35,3.455c-0.685,0.708-2.608,2.503-5.668,3.041
			C309.017,262.984,305.738,260.568,305.177,260.141"/>
		<path clip-path="url(#SVGID_4_)" fill="#746653" d="M315.675,258.445c0,2.074-1.681,3.755-3.755,3.755
			c-2.074,0-3.755-1.681-3.755-3.755c0-2.074,1.681-3.755,3.755-3.755C313.994,254.69,315.675,256.372,315.675,258.445"/>
		<path clip-path="url(#SVGID_4_)" fill="#3A332A" d="M313.648,258.445c0,0.954-0.774,1.728-1.728,1.728s-1.728-0.774-1.728-1.728
			s0.774-1.728,1.728-1.728S313.648,257.491,313.648,258.445"/>
		<path clip-path="url(#SVGID_4_)" fill="#FFFFFF" d="M313.648,257.363c0,0.356-0.289,0.645-0.645,0.645s-0.645-0.289-0.645-0.645
			s0.289-0.645,0.645-0.645S313.648,257.007,313.648,257.363"/>
		<path clip-path="url(#SVGID_4_)" fill="#433015" d="M319.069,259.173c-0.45-0.596-0.858-1.242-1.39-1.762
			c-0.508-0.516-1.075-0.951-1.683-1.296c-2.42-1.399-5.475-1.348-7.815,0.181c-1.323,0.844-2.489,2.235-3.004,3.799
			c-0.129-1.818,0.842-3.59,2.257-4.798C311.438,251.888,318.086,253.87,319.069,259.173"/>
		<path clip-path="url(#SVGID_4_)" fill="#433015" d="M317.905,256.736c0.846-0.244,1.658-0.765,2.131-1.526
			c-0.284,0.642-0.795,1.163-1.381,1.543c-0.201,0.129-0.401,0.243-0.634,0.341L317.905,256.736z"/>
		<path clip-path="url(#SVGID_4_)" fill="#433015" d="M318.417,257.568c0.713-0.017,1.53-0.178,2-0.768
			c-0.283,0.521-0.847,0.819-1.394,0.999c-0.189,0.061-0.374,0.111-0.581,0.144L318.417,257.568z"/>
		<path clip-path="url(#SVGID_4_)" fill="#433015" d="M318.902,258.399c0.383,0.082,0.826,0.061,1.182-0.127
			c0.124-0.063,0.231-0.155,0.332-0.259c-0.222,0.396-0.658,0.626-1.096,0.711c-0.152,0.03-0.296,0.05-0.466,0.048L318.902,258.399z
			"/>
		<path clip-path="url(#SVGID_4_)" fill="#B59B76" d="M297.749,259.889c0-3.55-2.652-6.44-5.391-7.078
			c-3.161-0.736-5.977,1.733-6.381,2.123c-1.417,1.37-1.834,3.004-2.12,3.878c0.685,0.787,2.608,2.786,5.668,3.385
			C293.909,263.055,297.188,260.365,297.749,259.889"/>
		<path clip-path="url(#SVGID_4_)" fill="#FFFFFF" d="M297.749,260.141c-0.461-3.235-2.652-5.785-5.391-6.358
			c-3.161-0.662-5.747,1.584-6.151,1.935c-1.417,1.231-2.064,2.671-2.35,3.455c0.685,0.708,2.608,2.503,5.668,3.041
			C293.909,262.984,297.188,260.568,297.749,260.141"/>
		<path clip-path="url(#SVGID_4_)" fill="#746653" d="M287.635,258.455c0,2.074,1.681,3.755,3.755,3.755
			c2.074,0,3.755-1.681,3.755-3.755s-1.681-3.755-3.755-3.755C289.316,254.7,287.635,256.381,287.635,258.455"/>
		<path clip-path="url(#SVGID_4_)" fill="#3A332A" d="M289.662,258.455c0,0.954,0.774,1.728,1.728,1.728
			c0.954,0,1.728-0.774,1.728-1.728s-0.774-1.728-1.728-1.728C290.437,256.727,289.662,257.501,289.662,258.455"/>
		<path clip-path="url(#SVGID_4_)" fill="#FFFFFF" d="M289.519,257.216c0,0.356,0.289,0.645,0.645,0.645
			c0.356,0,0.645-0.289,0.645-0.645s-0.289-0.645-0.645-0.645C289.807,256.571,289.519,256.86,289.519,257.216"/>
		<path clip-path="url(#SVGID_4_)" fill="#433015" d="M283.857,259.173c0.45-0.596,0.858-1.242,1.39-1.762
			c0.508-0.516,1.075-0.951,1.683-1.296c2.42-1.399,5.475-1.348,7.815,0.181c1.323,0.844,2.489,2.235,3.004,3.799
			c0.129-1.818-0.842-3.59-2.257-4.798C291.488,251.888,284.84,253.87,283.857,259.173"/>
		<path clip-path="url(#SVGID_4_)" fill="#433015" d="M285.021,256.736c-0.846-0.244-1.658-0.765-2.131-1.526
			c0.284,0.642,0.795,1.163,1.381,1.543c0.201,0.129,0.401,0.243,0.634,0.341L285.021,256.736z"/>
		<path clip-path="url(#SVGID_4_)" fill="#433015" d="M284.509,257.568c-0.713-0.017-1.53-0.178-2-0.768
			c0.283,0.521,0.847,0.819,1.394,0.999c0.189,0.061,0.374,0.111,0.581,0.144L284.509,257.568z"/>
		<path clip-path="url(#SVGID_4_)" fill="#433015" d="M284.023,258.399c-0.383,0.082-0.826,0.061-1.182-0.127
			c-0.124-0.063-0.231-0.155-0.332-0.259c0.222,0.396,0.658,0.626,1.096,0.711c0.152,0.03,0.297,0.05,0.466,0.048L284.023,258.399z"
			/>
		<path clip-path="url(#SVGID_4_)" fill-rule="evenodd" clip-rule="evenodd" fill="#23AEB5" d="M328.291,297.332
			c2.53,0.302,7.417,1.26,12.077,4.875c1.842,1.429,3.231,2.949,4.258,4.29c0.314,0.409,0.563,0.868,0.719,1.359
			c2.674,8.412,3.206,15.833,3.848,25.092c1.231,17.762-0.745,33.166-2.948,45.367c-2.571-2.082-5.143-4.163-7.714-6.245
			c-0.052-4.326-0.226-8.821-0.551-13.47c-0.855-12.223-2.606-23.393-4.776-33.367c0.38-2.45,0.157-4.188-0.129-5.338
			c-0.106-0.427-0.272-0.971-0.524-2.032c-0.332-1.393-0.532-2.48-0.668-3.2C331.192,310.989,330.101,305.526,328.291,297.332"/>
		<path clip-path="url(#SVGID_4_)" fill="#939393" d="M346.931,481.861c0.019,0.954-0.38,1.717-0.38,1.717
			c-0.892,1.701-3.128,2.148-4.226,2.353c-1.646,0.306-4.431,0.487-9.298-1.275c-3.955-1.432-6.68-3.203-9.224-4.881
			c-2.159-1.423-4.637-3.335-7.474-5.854c-1.195-1.567-0.774-2.032-0.775-4.717C325.181,472.035,346.867,478.689,346.931,481.861"/>
		<path clip-path="url(#SVGID_4_)" fill="#353430" d="M315.551,469.368c0.008-0.028-0.476,1.399,2.783,4.377
			c3.671,3.355,5.962,5.219,9.34,7.006c2.58,1.364,4.398,2.325,7.166,3.021c0,0,7.511,1.885,11.335-0.98
			c0.387-0.29,0.616-0.665,0.616-0.665c0.055-0.083,0.099-0.171,0.138-0.264c1.053-2.56-2.973-6.583-4.08-7.683
			c-5.805-5.758-16.208-9.439-25.266-6.449c-0.508,0.168-0.912,0.323-1.15,0.418c-0.128,0.058-0.34,0.175-0.53,0.396
			C315.626,468.87,315.567,469.225,315.551,469.368"/>
		<path clip-path="url(#SVGID_4_)" fill="#939393" d="M262.327,481.896c-0.019,0.954,0.38,1.716,0.38,1.716
			c0.892,1.702,3.128,2.149,4.226,2.354c1.646,0.306,4.431,0.486,9.298-1.275c3.955-1.432,6.68-3.204,9.224-4.881
			c2.159-1.423,4.637-3.335,7.474-5.854c1.195-1.567,0.774-2.032,0.775-4.718C284.077,472.068,262.391,478.724,262.327,481.896"/>
		<path clip-path="url(#SVGID_4_)" fill="#F27070" d="M263.082,482.825c-0.253-0.188-0.462-0.407-0.616-0.665
			C262.642,482.402,262.851,482.627,263.082,482.825"/>
		<path clip-path="url(#SVGID_4_)" fill="#353430" d="M293.682,469.166c-0.008-0.027,0.5,1.635-2.759,4.612
			c-3.67,3.355-5.962,5.22-9.34,7.006c-2.58,1.365-4.398,2.326-7.166,3.021c0,0-7.511,1.885-11.335-0.98
			c-0.387-0.29-0.616-0.666-0.616-0.666c-0.055-0.082-0.099-0.17-0.137-0.264c-0.853-2.045,1.413-6.23,4.08-7.681
			c20.999-11.422,26.195-7.6,26.195-7.6C292.885,467,293.517,467.94,293.682,469.166"/>
		<path clip-path="url(#SVGID_4_)" fill="#E2C294" d="M281.261,448.675c1.16,3.712,0.013,7.823-2.061,11.113
			c-2.074,3.29-4.996,5.938-7.765,8.668c-2.769,2.73-5.476,5.67-6.944,9.272c-0.492,1.209-0.801,2.701-0.003,3.734
			c0.754,0.979,5.996,1.119,7.232,1.08c5.942-0.184,7.632-4.16,12.658-7.336c2.861-1.808,6.464-3.276,7.995-5.33
			c1.849-2.479,0.477-6.117,0.426-9.21c-0.047-2.878-0.095-5.756-0.142-8.634c-0.013-0.771-0.068-1.638-0.647-2.146
			c-0.406-0.357-0.976-0.445-1.513-0.52c-3.157-0.433-6.314-0.865-9.471-1.298L281.261,448.675z"/>
		<path clip-path="url(#SVGID_4_)" fill="#B59B76" d="M280.37,457.624c1.282-2.829,1.812-6.013,0.891-8.95l-0.235-0.603
			c3.154,0.435,6.314,0.861,9.469,1.294c0.541,0.073,1.107,0.163,1.516,0.524c0.578,0.506,0.633,1.373,0.645,2.143
			c0.03,1.86,0.06,3.727,0.096,5.592c-1.867,0.218-3.97,0.363-6.272,0.359C284.242,457.98,282.193,457.836,280.37,457.624"/>
		<path clip-path="url(#SVGID_4_)" fill="#00828F" d="M303.171,376.139c-0.552,12.305-1.511,23.744-2.879,35.208
			c-1.606,13.983-3.813,28.014-6.618,43.747h-13.456c-3.981-13.959-7.698-30.147-10.265-48.304c-0.024-0.12-0.024-0.216-0.048-0.335
			c-0.695-4.989-1.271-9.858-1.751-14.607c-0.671-6.858-1.127-11.439-1.391-15.709"/>
		<path clip-path="url(#SVGID_4_)" fill="#E2C294" d="M328.44,448.675c-1.16,3.712-0.013,7.823,2.061,11.113
			c2.074,3.29,4.996,5.938,7.765,8.668c2.769,2.73,5.476,5.67,6.944,9.272c0.492,1.209,0.801,2.701,0.003,3.734
			c-0.754,0.979-2.169,0.95-3.399,1.075c-8.343,0.844-11.844-3.29-16.87-6.466c-2.861-1.807-6.817-3.923-7.322-5.084
			c-1.233-2.836-0.771-7.229-0.72-10.321c0.047-2.878,0.095-5.756,0.142-8.634c0.013-0.771,0.068-1.638,0.647-2.146
			c0.406-0.357,0.976-0.445,1.513-0.52c3.157-0.433,6.314-0.865,9.471-1.298L328.44,448.675z"/>
		<path clip-path="url(#SVGID_4_)" fill="#B59B76" d="M329.332,457.624c-1.282-2.829-1.812-6.013-0.891-8.95l0.235-0.603
			c-3.154,0.435-6.314,0.861-9.469,1.294c-0.541,0.073-1.107,0.163-1.516,0.524c-0.578,0.506-0.633,1.373-0.645,2.143
			c-0.03,1.86-0.06,3.727-0.096,5.592c1.867,0.218,3.97,0.363,6.272,0.359C325.459,457.98,327.507,457.836,329.332,457.624"/>
		<path clip-path="url(#SVGID_4_)" fill="#00828F" d="M342.816,375.443c-0.311,4.197-0.767,8.658-1.415,15.158
			c-0.479,4.772-1.055,9.665-1.75,14.654c-0.217,1.606-0.433,3.214-0.672,4.845c-2.494,16.572-5.805,31.61-9.426,44.993h-13.455
			c-2.758-15.661-4.988-29.788-6.595-43.891c-1.391-11.655-2.351-23.312-2.902-35.76"/>
		<path clip-path="url(#SVGID_4_)" fill="#01747A" d="M303.171,376.139c-0.552,12.305-1.511,23.744-2.879,35.208
			c-10.576-0.432-21.561-2.613-30.387-4.892c-0.695-4.989-1.271-9.858-1.751-14.607c-0.671-6.858-1.127-11.439-1.391-15.709H303.171
			z"/>
		<path clip-path="url(#SVGID_4_)" fill="#01747A" d="M342.816,375.443c-0.311,4.197-0.767,8.658-1.415,15.158
			c-0.479,4.772-1.055,9.665-1.75,14.654c-9.186,2.638-20.123,5.204-30.148,5.947c-1.391-11.655-2.351-23.312-2.902-35.76H342.816z"
			/>
		<path clip-path="url(#SVGID_4_)" fill="#353430" d="M265.31,474.032c-4.926,6.633-2.566,7.345-2.093,8.082
			c2.247,3.494,12.447,0.647,14.833-0.242c4.467-3.647,11.187-8.988,15.654-12.635c0.156-0.698,0.315-1.729,0.231-2.965
			c-0.089-1.3-0.393-2.044-0.676-3.253c-0.241-1.028-0.492-2.505-0.494-4.381c-1.607,0.503-4.039,1.058-7.017,0.969
			c-2.472-0.074-4.512-0.566-5.964-1.039c-1.86,3.122-3.458,4.677-4.83,6.086c-1.786,1.834-2.983,2.44-5.329,4.901
			C267.933,471.331,266.107,473.004,265.31,474.032"/>
		<path clip-path="url(#SVGID_4_)" fill="#353430" d="M344.178,474.032c4.926,6.633,2.566,7.345,2.093,8.082
			c-2.247,3.494-12.447,0.647-14.833-0.242c-4.467-3.647-13.006-6.626-15.885-12.669c-0.156-0.698,0.117-1.673,0.202-2.908
			c0.088-1.299,0.191-2.066,0.474-3.275c0.241-1.028,0.492-2.505,0.494-4.381c1.607,0.503,4.039,1.058,7.017,0.969
			c2.472-0.074,4.512-0.566,5.964-1.039c1.86,3.122,3.458,4.677,4.83,6.086c1.786,1.834,2.983,2.44,5.329,4.901
			C341.555,471.331,343.381,473.004,344.178,474.032"/>
		<path clip-path="url(#SVGID_4_)" fill="#353430" d="M343.712,474.79c0,0-9.911-4.509-14.759,5.389l-6.741-4.317
			c0,0,4.216-13.088,15.611-7.405C337.823,468.456,341.557,471.612,343.712,474.79"/>
		<path clip-path="url(#SVGID_4_)" fill="#1F9393" d="M347.131,398.001c-0.504,0.737-1.222,1.338-2.114,1.668
			c-10.181,3.878-25.947,8.358-45.513,8.319c-18.694-0.039-28.622-3.704-37.504-7.291c-1.784-0.737-2.851-2.599-2.54-4.52
			c0.426-2.539,1.357-8.435,2.249-14.137c0.039-0.231,0.078-0.483,0.117-0.717c1.338-8.513,8.493-15.087,17.103-15.262h0.175
			c6.03-0.116,10.859,0.912,15.28,2.308c7.757,2.405,14.234,5.876,23.814,5.915c3.646,0.02,8.067-0.466,13.167-2.133
			c6.671-2.172,13.71,2.036,14.641,8.997c0.64,4.674,1.241,9.25,1.842,13.729C348.023,396.004,347.751,397.109,347.131,398.001"/>
		<path clip-path="url(#SVGID_4_)" fill="#23AEB5" d="M347.131,398.001c-0.504,0.737-1.222,1.338-2.114,1.668
			c-5.507,2.095-12.624,4.363-21.098,5.992l-0.019,0.02h-0.02c-2.85,0.543-5.856,1.027-8.998,1.396
			c-0.078,0.02-0.136,0.02-0.213,0.02c-4.751,0.582-9.813,0.91-15.165,0.892c-4.673,0-8.784-0.252-12.488-0.66h-0.019
			c-0.039,0-0.078,0-0.136-0.019c-4.519-0.485-8.417-1.241-11.887-2.152h-0.039v-0.02c-4.945-1.28-9.037-2.87-12.935-4.441
			c-0.911-0.387-1.648-1.066-2.094-1.9c-0.23-0.418-0.387-0.875-0.458-1.353c-0.093-0.619-0.014-1.104,0.012-1.265
			c0.165-1.034-0.056-9.9,3.82-19.666c0.702-1.77,2.18-2.048,4.601-3.52c4.025-2.448,7.859-3.347,10.331-3.712h0.174
			c6.051-0.116,10.879,0.912,15.281,2.308c7.777,2.405,14.234,5.876,23.814,5.915c6.453,0.026,6.313-2.293,13.167-2.133
			c3.508,0.081,12.746,0.296,15.315,5.36c1.373,2.705,0.711,4.547,1.649,13.521C347.774,395.803,347.377,396.774,347.131,398.001"/>
		<path clip-path="url(#SVGID_4_)" fill="#23AEB5" d="M283.98,322.603c-0.63,2.18-1.62,5.34-3.06,9.06
			c-0.11,0.27-0.21,0.54-0.31,0.81c-0.38,0.971-0.75,1.92-1.13,2.87c-1.25,3.19-2.47,6.22-3.71,8.95c-0.01,0.01-0.01,0.01-0.01,0.02
			c-3.38,7.41-6.91,12.681-11.62,13.431c-8.22,1.3-16.92-11.69-22.97-20.73c-3.91-5.84-6.43-11.17-8.02-15.01
			c-0.86-1.98-1.54-3.82-2.1-5.43c1.29-1.01,2.87-2.43,4.39-4.38c1.8-2.29,3.09-4.27,3.77-5.95c1.3,1.79,2.37,3.23,3.59,4.79
			c1.1,1.39,2.09,2.61,3,3.71c2.32,2.79,4.16,4.88,4.88,5.69c9.79,11.06,11.04,11.78,12.12,11.47c0.92-0.261,1.31-1.181,2.57-5.061
			c1.78-5.5,4.12-13.39,5.2-16.85c1.49-4.77,2.44-7.11,4.72-9.19c1.45-1.32,2.96-2.09,4.02-2.52c0.01-0.01,0.03-0.01,0.04-0.021
			c0.03,0.05,0.06,0.1,0.09,0.15c0.01,0.01,0.02,0.02,0.02,0.03c1.99,3.24,4.91,9.11,5.14,16.79
			C284.69,318.033,284.4,320.523,283.98,322.603"/>
		<path clip-path="url(#SVGID_4_)" fill="#E2C294" d="M332.983,380.295c-0.676,0.538-2.015,0.833-2.483,0.23
			c-0.396-0.512-0.002-1.706,0.453-2.261c1.697-1.696,3.395-3.394,5.092-5.091l2.029,2.03L332.983,380.295z"/>
		<path clip-path="url(#SVGID_4_)" fill="#E2C294" d="M334.187,383.942c-0.759,0.46-1.699,0.278-2.151-0.331
			c-0.344-0.464-0.367-1.129-0.066-1.687c2.19-2.233,4.379-4.467,6.568-6.7c0.255,0.322,0.609,0.71,1.084,1.089
			c0.513,0.41,1.007,0.684,1.399,0.863C338.743,379.433,336.465,381.688,334.187,383.942"/>
		<path clip-path="url(#SVGID_4_)" fill="#E2C294" d="M338.243,384.703c-0.781,0.319-1.632,0.053-2.004-0.553
			c-0.407-0.663-0.052-1.423-0.026-1.478c1.841-1.882,3.682-3.764,5.522-5.646c0.83,0.603,1.661,1.205,2.491,1.808
			C342.23,380.791,340.237,382.747,338.243,384.703"/>
		<path clip-path="url(#SVGID_4_)" fill="#E2C294" d="M342.229,384.466c-0.494,0.111-0.999-0.063-1.287-0.442
			c-0.34-0.449-0.219-0.974-0.201-1.045c1.245-1.245,2.49-2.49,3.735-3.735l1.488,1.488L342.229,384.466z"/>
		<path clip-path="url(#SVGID_4_)" fill="#E2C294" d="M333.859,375.359c0.587-0.555,1.198-1.194,1.806-1.928
			c0.284-0.343,0.547-0.682,0.789-1.012c1.04-0.735,2.334-1.334,3.674-1.087c1.244,0.229,1.393,0.977,3.688,2.619
			c2.214,1.585,3.123,1.641,3.585,2.772c0.423,1.037,0.129,2.141-0.178,2.9c-0.13,0.122-1.171,1.103-1.302,1.226
			c-0.433,0.409-0.868,0.816-1.301,1.225c-0.008-0.601-0.113-1.062-0.212-1.378c-0.151-0.483-0.324-0.749-0.258-1.129
			c0.061-0.348,0.288-0.602,0.472-0.763c-0.156,0.146-0.398,0.321-0.693,0.319c-0.463-0.003-0.587-0.44-1.235-0.842
			c-0.784-0.484-1.464-0.376-1.511-0.683c-0.04-0.263,0.434-0.528,0.383-0.604c-0.04-0.056-0.318,0.1-0.545,0.18
			c-0.73,0.258-1.745,0.025-2.287-0.603c-0.102-0.119-0.509-0.623-0.394-1.147c0.081-0.366,0.383-0.596,0.353-0.626
			c-0.037-0.036-0.389,0.415-0.891,0.675c-0.381,0.198-0.785,0.254-3.011-0.003C334.396,375.428,334.072,375.387,333.859,375.359"/>
		<path clip-path="url(#SVGID_4_)" fill="#1F9393" d="M333.622,344.474c-0.185-3.065-0.218-6.536,0.041-10.332
			c0.222-3.24,0.621-6.207,1.102-8.862c0.644,3.021,1.208,6.435,1.561,10.193c0.347,3.679,0.434,7.069,0.373,10.102
			c-0.555-3.138-1.109-6.275-1.664-9.414C334.564,338.932,334.093,341.702,333.622,344.474"/>
		<path clip-path="url(#SVGID_4_)" fill="#003399" d="M260.283,395.43c2.598,1.454,5.158,2.754,7.699,3.898l-5.876,1.299
			L260.283,395.43z"/>
		<path clip-path="url(#SVGID_4_)" fill="#003399" d="M268.613,399.621c2.327,1.047,4.615,1.979,6.864,2.792l-4.537,1.494
			L268.613,399.621z"/>
		<path clip-path="url(#SVGID_4_)" fill="#003399" d="M276.098,402.553c2.793,1.008,5.546,1.823,8.222,2.463l-5.061,0.969
			L276.098,402.553z"/>
		<path clip-path="url(#SVGID_4_)" fill="#003399" d="M285.135,405.37c3.064,0.737,6.051,1.26,8.959,1.629l-5.817,0.098
			L285.135,405.37z"/>
		<path clip-path="url(#SVGID_4_)" fill="#003399" d="M321.852,405.743c2.207-0.653,6.81-2.034,10.851-4.067l-3.356,2.735
			C329.347,404.411,324.115,405.399,321.852,405.743"/>
		<path clip-path="url(#SVGID_4_)" fill="#003399" d="M333.435,401.486c2.153-0.853,4.073-1.745,5.721-2.579l-2.192,3.355
			L333.435,401.486z"/>
		<path clip-path="url(#SVGID_4_)" fill="#003399" d="M339.568,399.087l0.078,0.02c-0.039,0.02-0.097,0.059-0.136,0.059
			L339.568,399.087z"/>
		<path clip-path="url(#SVGID_4_)" fill="#003399" d="M346.37,394.699l-3.394,5.333l-3.684-1.183
			C343.849,396.562,346.37,394.699,346.37,394.699"/>
		<path clip-path="url(#SVGID_4_)" fill="#003399" d="M242.802,311.028c-1.396,2.599-4.188,6.574-9.657,10.976
			c-0.854-1.978-1.532-3.82-2.095-5.43c1.323-1.195,2.823-2.732,4.302-4.657c1.643-2.139,3.011-3.947,3.857-5.671
			C240.508,308.03,241.58,309.477,242.802,311.028"/>
		<path clip-path="url(#SVGID_4_)" fill="#1F9393" d="M280.61,332.473c0,1.08-0.01,2.2-0.06,3.351c-0.12,2.939-0.4,5.649-0.77,8.09
			h-0.01c-0.06-1.99-0.1-4.29-0.1-6.8c-0.06-0.58-0.12-1.17-0.19-1.771c-1.25,3.19-2.47,6.22-3.71,8.95
			c0.69-3.021,1.39-6.05,2.09-9.08c0.34-1.47,0.68-2.95,1.01-4.42c0.44-1.92,0.87-3.83,1.31-5.74
			C280.43,327.293,280.59,329.772,280.61,332.473"/>
		<path clip-path="url(#SVGID_4_)" fill="#E2C294" d="M219.018,287.787c0.811,0.465,1.622,0.929,2.434,1.394
			c0.092,0.105,1.493,1.749,0.881,3.53c-0.212,0.619-0.596,1.044-0.881,1.298c-0.792-0.297-1.583-0.595-2.375-0.892
			c-0.224-0.553-0.521-1.48-0.534-2.659C218.53,289.278,218.806,288.345,219.018,287.787"/>
		<path clip-path="url(#SVGID_4_)" fill="#E2C294" d="M221.452,296.246l-2.375-1.336c-0.219,0.378-0.629,1.198-0.653,2.315
			c-0.026,1.235,0.434,2.142,0.653,2.52c0.792,0.169,1.583,0.339,2.375,0.508c0.189-0.307,0.439-0.808,0.531-1.468
			C222.156,297.539,221.646,296.574,221.452,296.246"/>
		<path clip-path="url(#SVGID_4_)" fill="#E2C294" d="M220.265,300.965c0.132,0.363,0.285,0.916,0.297,1.603
			c0.014,0.776-0.158,1.397-0.297,1.781c-0.396-0.149-0.792-0.297-1.187-0.446c-0.156-0.214-0.671-0.979-0.594-2.048
			c0.058-0.803,0.421-1.367,0.594-1.602C219.473,300.491,219.869,300.729,220.265,300.965"/>
		<path clip-path="url(#SVGID_4_)" fill="#E2C294" d="M219.968,305.024c0.157,0.279,0.428,0.856,0.41,1.615
			c-0.009,0.397-0.095,0.726-0.179,0.961l-1.162-0.023c-0.105-0.136-0.753-1.007-0.492-2.056c0.099-0.396,0.295-0.688,0.447-0.871
			C219.318,304.775,219.643,304.899,219.968,305.024"/>
	</g>
</g>
</svg>
