<?xml version="1.0" encoding="utf-8"?>
<!-- Generator: Adobe Illustrator 16.0.0, SVG Export Plug-In . SVG Version: 6.00 Build 0)  -->
<!DOCTYPE svg PUBLIC "-//W3C//DTD SVG 1.1//EN" "http://www.w3.org/Graphics/SVG/1.1/DTD/svg11.dtd">
<svg version="1.1" id="Layer_1" xmlns="http://www.w3.org/2000/svg" xmlns:xlink="http://www.w3.org/1999/xlink" x="0px" y="0px"
	 width="918px" height="857px" viewBox="0 0 918 857" enable-background="new 0 0 918 857" xml:space="preserve">
<g>
	<defs>
		<path id="SVGID_1_" d="M475.956,92.641c-89.223,0.005-154.726,84.878-157.796,157.417c0.161,6.932,1.013,13.63,1.016,20.146
			c0.004,7.801-1.207,15.34-6.274,22.699c-0.931,16.192-116.888,39.78-116.802,41.415c-62.701,26.378-111.467,93.478-111.462,168.52
			c0.002,38.799,13.043,79.721,43.936,118.236c13.217,19.408,34.514,33.595,55.398,40.57c10.511,12.921,27.57,31.942,51.763,50.906
			c156.349,122.559,371.837,55.494,452.729,14.2c12.614-7.656,23.196-14.876,31.58-20.911c0.209-0.301,0.417-0.601,0.625-0.902
			c6.427-9.321,12.141-19.04,12.975-20.467c4.316-7.433,8.329-15.051,12.029-22.826c35.297-13.435,70.409-57.979,72.646-90.884
			c0.522-3.535,0.769-6.965,0.764-10.302c-0.095-65.007-95.37-94.593-97.571-171.414c-0.025-0.903-0.039-1.798-0.038-2.684
			c0.013-43.789,31.237-67.116,31.256-99.718c0.005-6.481-1.225-13.329-4.179-20.777c-1.242-3.125-15.18-36.951-45.54-47.411
			c-16.983-5.857-28.137-1.752-56.69-9.129c-75.332-16.095-86.257-96.948-139.281-113.298c-10.38-2.251-20.517-3.336-30.373-3.386
			c-0.232-0.001-0.465-0.001-0.697-0.001C475.964,92.641,475.96,92.641,475.956,92.641"/>
	</defs>
	<clipPath id="SVGID_2_">
		<use xlink:href="#SVGID_1_"  overflow="visible"/>
	</clipPath>
	
		<linearGradient id="SVGID_3_" gradientUnits="userSpaceOnUse" x1="-47.9995" y1="999.9697" x2="-46.9995" y2="999.9697" gradientTransform="matrix(734.4442 0 0 -734.4442 35337.8203 734886.125)">
		<stop  offset="0" style="stop-color:#E3F4FF"/>
		<stop  offset="0.4118" style="stop-color:#E3F4FF"/>
		<stop  offset="0.7063" style="stop-color:#E1F3FF"/>
		<stop  offset="0.8516" style="stop-color:#D9F0FF"/>
		<stop  offset="0.9639" style="stop-color:#CCEAFF"/>
		<stop  offset="1" style="stop-color:#C6E7FF"/>
	</linearGradient>
	<rect x="84.633" y="92.641" clip-path="url(#SVGID_2_)" fill="url(#SVGID_3_)" width="734.454" height="742.468"/>
</g>
<g>
	<defs>
		<path id="SVGID_4_" d="M318.16,250.058c0.354,15.231,4.041,29.34-5.258,42.845c-0.931,16.192-116.888,39.78-116.802,41.415
			c-95.119,40.016-158.17,173.75-67.526,286.756c13.217,19.408,34.514,33.595,55.398,40.57
			c10.511,12.921,27.57,31.942,51.763,50.906c189.933,148.883,467.148,17.931,484.309-6.711
			c7.211-10.353,13.704-21.548,13.704-21.548c4.276-7.376,8.256-14.935,11.925-22.647c35.297-13.435,70.409-57.979,72.646-90.884
			c10.695-72.396-94.493-100.952-96.808-181.716c-1.556-54.405,45.148-77.509,27.039-123.179
			c-1.242-3.125-15.18-36.951-45.54-47.411c-16.983-5.857-28.137-1.752-56.69-9.129c-75.332-16.095-86.257-96.948-139.281-113.298
			c-10.629-2.305-21.003-3.388-31.083-3.387C386.733,92.646,321.23,177.519,318.16,250.058"/>
	</defs>
	<clipPath id="SVGID_5_">
		<use xlink:href="#SVGID_4_"  overflow="visible"/>
	</clipPath>
	<rect x="256.804" y="257.903" clip-path="url(#SVGID_5_)" fill="#99CCE0" width="450.108" height="225.677"/>
	<path clip-path="url(#SVGID_5_)" fill="#606060" d="M708.878,485.216H254.837v-228.95h454.041V485.216z M258.77,481.944h446.175
		V259.54H258.77V481.944z"/>
	<path clip-path="url(#SVGID_5_)" fill="#99CCE0" d="M151.979,660.105h611.266C753.24,681.094,735.438,711.604,704.47,739
		c-61.579,54.476-133.786,59.998-208.653,64.653c-85.485,5.314-197.757,12.296-283.199-63.305
		C181.47,712.787,162.904,682.23,151.979,660.105"/>
	<path clip-path="url(#SVGID_5_)" fill="#E2C294" d="M511.52,386.947c-0.789,1.246-1.404,2.303-1.832,3.059
		c-2.772,4.905-2.971,6.632-2.964,7.723c0.007,0.874,0.147,1.581,0.253,2.014l1.456,4.159c0.221,0.628,0.674,1.145,1.27,1.442
		c2.543,1.268,8.2,4.071,8.373,4.037c0.214-0.041,5.235,6.026,5.235,6.026l9.882-2.804l-5.399-7.045
		c-1.328-1.733-2.161-3.794-2.408-5.964l-0.08-0.704c0.353-2.041-0.137-4.138-1.354-5.814l-4.348-6.727l-0.658,5.007l-1.543-5.124
		l-4.364-0.575c-0.133,0.006-0.249,0.029-0.348,0.059C511.929,385.944,511.597,386.746,511.52,386.947"/>
	<path clip-path="url(#SVGID_5_)" fill="#444444" d="M517.043,365.583l-0.877,34.658l3.16,0.065l0.877-34.658
		c-0.473-1.582-0.946-3.163-1.418-4.745C518.204,362.463,517.624,364.023,517.043,365.583"/>
	<path clip-path="url(#SVGID_5_)" fill="#E2C294" d="M519.86,386.747c-0.307-0.474-0.902-0.66-1.393-0.456
		c-0.434,0.18-0.711,0.632-0.686,1.123l-0.167,1.268c-0.199,1.507,0.168,3.035,1.031,4.288l1.92,3.318
		C520.299,393.236,520.129,389.799,519.86,386.747"/>
	<path clip-path="url(#SVGID_5_)" fill="#E2C294" d="M516.447,386.106c0.094,0.002,0.544,0.023,0.902,0.387
		c0.303,0.31,0.353,0.675,0.363,0.785c-0.029,0.229-0.055,0.403-0.077,0.543c-0.147,0.915-0.889,1.618-1.809,1.73l-0.852,0.103
		L516.447,386.106z"/>
	<path clip-path="url(#SVGID_5_)" fill="#E2C294" d="M517.156,391.483l-0.027,0.499c-0.044,0.798-0.773,1.381-1.562,1.247
		l-2.216-0.375l2.573,1.138c0.58,0.257,0.9,0.886,0.768,1.506c-0.167,0.781-0.975,1.243-1.731,0.992l-2.187-0.726
		c-0.69-0.229-1.072-0.968-0.858-1.664l1.253-4.096c0.271-0.885,1.335-1.236,2.079-0.685l1.367,1.013
		C516.979,390.6,517.182,391.033,517.156,391.483"/>
	<path clip-path="url(#SVGID_5_)" fill="#B59B76" d="M509.351,396.268c0.765-0.04,1.53,0.035,2.287,0.17
		c0.771,0.141,1.459,0.354,2.216,0.506c0.189,0.052,0.393,0.106,0.604,0.234c0.22,0.13,0.38,0.367,0.449,0.575
		c0.146,0.436,0.112,0.896-0.07,1.284c-0.175,0.39-0.49,0.71-0.865,0.88c-0.38,0.158-0.804,0.185-1.165,0.052
		c0.768,0.034,1.445-0.449,1.628-1.088c0.09-0.316,0.1-0.661-0.023-0.936c-0.103-0.29-0.315-0.362-0.696-0.457
		c-0.726-0.159-1.482-0.405-2.178-0.632C510.82,396.638,510.091,396.459,509.351,396.268"/>
	<path clip-path="url(#SVGID_5_)" fill="#B59B76" d="M512.596,388.798c1.622-0.412,3.561,0.376,4.341,1.872
		C515.599,389.76,514.163,389.186,512.596,388.798"/>
	<path clip-path="url(#SVGID_5_)" fill="#B59B76" d="M510.771,392.631c1.964-0.391,4.156,0.281,5.572,1.692
		C514.508,393.583,512.725,393.029,510.771,392.631"/>
	<path clip-path="url(#SVGID_5_)" fill="#B59B76" d="M517.583,389.583c0.49,2.479,1.601,4.755,3.262,6.573
		c0.398,1.467-0.188,2.967-0.938,4.198c0.473-1.12,0.744-3.069,0.519-3.885C518.644,394.662,517.521,392.135,517.583,389.583"/>
	<path clip-path="url(#SVGID_5_)" fill="#514A4A" d="M656.838,698.037c0.021,1.076-0.429,1.936-0.429,1.936
		c-1.005,1.918-3.524,2.421-4.763,2.65c-5.348,0.993-10.48-1.436-10.48-1.436c-2.27-0.886-3.812-1.785-11.177-6.82
		c-2.861-1.957-5.247-3.61-6.964-4.808c-0.395-0.314-1.075-0.947-1.508-1.971c-0.751-1.777-0.198-3.41-0.046-3.819
		C632.322,686.961,656.767,694.462,656.838,698.037"/>
	<path clip-path="url(#SVGID_5_)" fill="#AAA3A3" d="M621.468,683.955C621.468,683.955,621.468,683.955,621.468,683.955
		c-0.005-0.001,1.466,2.963,3.137,4.934c1.432,1.688,1.974,1.428,7.314,5.02c2.659,1.789,2.591,1.898,4.132,2.847
		c2.869,1.767,5.43,2.818,7.16,3.436c0,0,8.466,2.125,12.775-1.105c0.437-0.327,0.694-0.75,0.694-0.75
		c0.062-0.093,0.112-0.191,0.155-0.297c1.188-2.885-3.351-7.42-4.6-8.659c-6.543-6.489-18.269-10.64-28.478-7.27
		c-0.573,0.188-1.029,0.364-1.296,0.471c-0.145,0.065-0.384,0.197-0.599,0.447C621.553,683.395,621.485,683.792,621.468,683.955"/>
	<path clip-path="url(#SVGID_5_)" fill="#514A4A" d="M561.475,698.076c-0.021,1.076,0.429,1.935,0.429,1.935
		c0.503,0.959,1.384,1.564,2.295,1.958c0.784,0.34,1.553,0.602,2.469,0.693c6.414,0.649,11.374-1.315,11.374-1.315
		c3.216-1.273,3.901-2.321,11.073-7.468c2.926-2.1,5.341-3.741,6.854-4.754c1.349-1.768,0.873-2.29,0.874-5.317
		C585.991,686.999,561.547,694.5,561.475,698.076"/>
	<path clip-path="url(#SVGID_5_)" fill="#F27070" d="M562.327,699.123c-0.285-0.211-0.521-0.459-0.694-0.75
		C561.831,698.646,562.066,698.9,562.327,699.123"/>
	<path clip-path="url(#SVGID_5_)" fill="#AAA3A3" d="M596.818,683.728L596.818,683.728c-0.016,0,0.077,1.714,0.079,2
		c0.018,2.188-4.585,3.708-9.521,7.537c-2.471,1.918-2.17,2.199-4.196,3.56c-3.042,2.041-6.022,2.952-8.077,3.403
		c0,0-8.467,2.125-12.777-1.104c-0.436-0.327-0.694-0.75-0.694-0.75c-0.062-0.093-0.11-0.192-0.154-0.298
		c-0.96-2.306,1.593-7.022,4.599-8.658c23.67-12.873,29.527-8.566,29.527-8.566C595.919,681.286,596.632,682.346,596.818,683.728"/>
	<path clip-path="url(#SVGID_5_)" fill="#E2C294" d="M582.816,660.631c1.309,4.184,0.016,8.818-2.322,12.526
		s-5.632,6.692-8.754,9.771c-3.12,3.077-6.172,6.391-7.825,10.45c-0.557,1.363-0.903,3.045-0.005,4.211
		c0.851,1.103,6.76,1.26,8.151,1.217c6.699-0.207,8.604-4.688,14.269-8.269c3.225-2.038,7.285-3.693,9.013-6.008
		c2.084-2.795,0.536-6.896,0.479-10.382c-0.053-3.243-0.106-6.487-0.159-9.731c-0.015-0.869-0.076-1.846-0.729-2.42
		c-0.458-0.403-1.1-0.502-1.705-0.585c-3.559-0.487-7.117-0.976-10.676-1.463L582.816,660.631z"/>
	<path clip-path="url(#SVGID_5_)" fill="#B59B76" d="M581.813,670.718c1.445-3.188,2.042-6.777,1.004-10.089l-0.265-0.679
		c3.556,0.489,7.117,0.971,10.673,1.459c0.61,0.082,1.249,0.183,1.71,0.59c0.65,0.57,0.712,1.547,0.726,2.416
		c0.034,2.096,0.068,4.2,0.109,6.303c-2.105,0.245-4.477,0.409-7.07,0.405C586.178,671.119,583.868,670.957,581.813,670.718"/>
	<path clip-path="url(#SVGID_5_)" fill="#FFEFAB" d="M608.064,553.739c-0.824,38.247-4.586,76.451-11.243,114.122H581.63
		c-4.48-15.736-8.658-33.989-11.553-54.455c-0.812-5.751-1.48-11.36-2.027-16.827c-1.543-15.588-2.058-29.961-1.971-42.84H608.064z"
		/>
	<path clip-path="url(#SVGID_5_)" fill="#E2C294" d="M635.996,660.631c-1.308,4.184-0.015,8.818,2.323,12.526
		s5.631,6.692,8.753,9.771c3.121,3.077,6.172,6.391,7.826,10.45c0.556,1.363,0.902,3.045,0.005,4.211
		c-0.851,1.103-2.446,1.07-3.832,1.211c-9.404,0.952-13.35-3.708-19.016-7.287c-3.226-2.038-7.685-4.423-8.253-5.731
		c-1.391-3.197-0.868-8.147-0.812-11.634c0.053-3.243,0.107-6.487,0.16-9.731c0.014-0.869,0.076-1.846,0.728-2.42
		c0.459-0.403,1.102-0.502,1.706-0.585l10.677-1.463L635.996,660.631z"/>
	<path clip-path="url(#SVGID_5_)" fill="#B59B76" d="M637.001,670.718c-1.445-3.188-2.042-6.777-1.004-10.089l0.265-0.679
		c-3.556,0.489-7.118,0.971-10.673,1.459c-0.611,0.082-1.248,0.183-1.71,0.59c-0.651,0.57-0.712,1.547-0.727,2.416
		c-0.033,2.096-0.067,4.2-0.107,6.303c2.104,0.245,4.475,0.409,7.068,0.405C632.636,671.119,634.944,670.957,637.001,670.718"/>
	<path clip-path="url(#SVGID_5_)" fill="#FFEFAB" d="M652.813,553.739c-0.087,12.669-0.719,26.546-2.206,41.427
		c-0.707,7.109-1.612,14.447-2.74,21.996c-2.795,18.656-6.533,35.62-10.61,50.699h-15.186
		c-6.663-37.671-10.418-75.868-11.243-114.122H652.813z"/>
	<path clip-path="url(#SVGID_5_)" fill="#C9BC81" d="M608.033,553.739c-0.39,16.325-1.295,32.651-2.758,48.92
		c-13.016-0.446-26.713-3.309-37.225-6.08c-1.543-15.588-2.059-29.961-1.972-42.84H608.033z"/>
	<path clip-path="url(#SVGID_5_)" fill="#C9BC81" d="M652.813,553.739c-0.087,12.669-0.719,26.546-2.206,41.427
		c-11.033,3.267-24.712,6.564-37.015,7.369c-1.438-16.232-2.355-32.508-2.739-48.796H652.813z"/>
	<path clip-path="url(#SVGID_5_)" fill="#AAA3A3" d="M562.839,692.58c-1.565,3.806-0.823,5.439-0.35,6.104
		c2.097,2.934,9.727,1.978,19.249-2.543c0.92-0.269,4.189-1.347,6.185-4.64c1.023-1.687,1.326-3.318,1.425-4.331
		c-0.639-0.304-1.616-0.83-2.658-1.672c-3.949-3.194-3.889-6.965-6.261-7.784c-1.09-0.376-2.908-0.204-6.025,2.607
		c-2.641,2.044-5.577,4.7-8.424,8.107C564.796,689.845,563.755,691.239,562.839,692.58"/>
	<path clip-path="url(#SVGID_5_)" fill-rule="evenodd" clip-rule="evenodd" fill="#FFEFAB" d="M664.49,507.218l-1.079,28.583
		c0,0,22.84,4.916,28.263-4.114c5.424-9.03,22.227-11.25,22.227-11.25c-2.058-32.381-17.064-40.857-60.842-117.181l-12.842,22.92
		l16.922,40.464C662.506,479.472,665.014,493.319,664.49,507.218"/>
	<path clip-path="url(#SVGID_5_)" fill-rule="evenodd" clip-rule="evenodd" fill="#F99569" d="M595.977,386.21
		c-4.41,0.304-8.006,1.021-10.564,1.658c-6.437,1.601-12.292,3.058-16.505,8.031c-2.16,2.55-3.21,5.224-3.752,7.054
		c12.584,12.81,25.167,25.621,37.751,38.431l31.879-29.903l18.168-10.244C652.953,401.237,629.209,380.227,595.977,386.21"/>
	<path clip-path="url(#SVGID_5_)" fill="#F9855D" d="M660.146,582.983c0.323,2.331-1.002,4.567-3.2,5.404
		c-11.477,4.367-29.235,9.429-51.298,9.372c-21.068-0.055-32.248-4.176-42.262-8.217c-2.024-0.818-3.217-2.929-2.861-5.083
		c2.432-14.775,7.012-54.876,12.473-79.611c0.523-2.377,1.734-9.434,4.186-23.542c2.71-15.607,4.426-26.234,3.03-37.011
		c-0.164-1.272-0.42-2.91-0.551-5.418c-0.561-10.69,2.084-18.884,1.929-18.918c-0.164-0.036-1.313,9.513-7.071,19.744
		c-0.549,0.975-1.047,1.794-1.439,2.421c-2.749-8.89,2.417-29.756,2.567-38.565c15.362,10.36,35.748,10.723,52.645,4.089
		c5.22-1.935,9.375-6.977,15.416-6.36c-1.633,8.808-3.567,22.035-3.87,38.162c-0.692,36.855,7.776,67.452,8.787,72.036
		C654.626,538.677,657.187,561.619,660.146,582.983"/>
	<path clip-path="url(#SVGID_5_)" fill="#F9855D" d="M573.081,442.125c-0.39-0.241-0.638-1.019-0.771-2.193
		c0.028,0.078,0.056,0.162,0.085,0.247C572.593,440.76,572.825,441.41,573.081,442.125"/>
	<path clip-path="url(#SVGID_5_)" fill="#F9855D" d="M573.151,441.919c0.375-1.167,0.764-2.229,1.167-3.148
		C574.587,439.74,573.604,440.759,573.151,441.919"/>
	<path clip-path="url(#SVGID_5_)" fill="#F9855D" d="M574.778,440.526c-0.148-0.587-0.297-1.174-0.46-1.755
		C574.475,439.21,574.622,439.811,574.778,440.526"/>
	<path clip-path="url(#SVGID_5_)" fill="#F9855D" d="M574.743,411.477l-2.306,20.248
		C572.911,425.364,573.973,417.362,574.743,411.477"/>
	<path clip-path="url(#SVGID_5_)" fill="#F9855D" d="M584.917,408.3c-0.863-0.276-1.733-0.552-2.604-0.842
		c-2.03-0.997-4.018-2.108-5.935-3.396c-0.191-0.12-0.375-0.255-0.552-0.382c-0.021-0.007-0.051-0.028-0.071-0.042
		c-0.035-0.029-0.071-0.05-0.106-0.078C578.578,405.463,581.69,407.041,584.917,408.3"/>
	<path clip-path="url(#SVGID_5_)" fill="#F9855D" d="M612.982,411.54c-2.455,0.41-4.917,0.707-7.386,0.877
		c-1.847-0.127-3.679-0.325-5.511-0.594C604.38,412.212,608.71,412.113,612.982,411.54"/>
	<path clip-path="url(#SVGID_5_)" fill="#F9855D" d="M635.955,403.255c-0.078,0.057-0.156,0.113-0.234,0.17
		c-0.12,0.092-0.24,0.17-0.354,0.254c-0.085,0.071-0.184,0.128-0.269,0.192c-0.028,0.021-0.057,0.035-0.085,0.049
		c-1.981,1.344-4.04,2.497-6.134,3.537c-0.198,0.064-0.39,0.128-0.587,0.191C630.932,406.375,633.394,404.606,635.955,403.255"/>
	<path clip-path="url(#SVGID_5_)" fill="#F9855D" d="M641.678,438.672c-0.347,1.648-0.657,3.27-0.927,4.854
		c0.113-0.757,0.234-1.479,0.347-2.136C641.289,440.236,641.487,439.287,641.678,438.672"/>
	<path clip-path="url(#SVGID_5_)" fill="#F9855D" d="M643.348,415.976c-0.127,6.622-0.269,13.796-0.474,19.152l0.17-7.012
		L643.348,415.976z"/>
	<path clip-path="url(#SVGID_5_)" fill-rule="evenodd" clip-rule="evenodd" fill="#FFEFAB" d="M643.705,392.297
		c0,0-14.209,37.943-15.622,64.19c-1.413,26.246,12.134,60.573,12.134,60.573c-2.558-0.163-6.625-0.203-11.421,0.797
		c-9.767,2.037-13.105,6.419-20.571,7.837c-3.929,0.746-9.951,0.852-18.123-2.939c1.258-15.362,3.597-32.701,7.713-51.476
		c5.095-23.236,11.771-43.469,18.493-60.37l13.927-23.232C630.234,387.677,640.399,390.793,643.705,392.297"/>
	<path clip-path="url(#SVGID_5_)" fill-rule="evenodd" clip-rule="evenodd" fill="#F9855D" d="M585.037,408.335
		c-0.026,0.379-0.011,0.809-0.034,1.551c0,0-0.108,2.927-0.553,5.835c-0.805,5.246-8.001,20.401-8.001,20.401
		c-3.623,7.63-7.901,17.71-12.185,21.947c-0.891,0.882-3.476,3.439-7.086,3.723c-0.48,0.037-0.853,0.027-1.106,0.019
		c-1.604-0.05-4.268-0.458-7.395-2.563c-0.23-2.51-0.342-5.144-0.296-7.891c0.007-0.382,0.017-0.762,0.029-1.139
		c0.001,0.006,0.001,0.012,0.002,0.018c2.367-11.954,6.383-25.801,13.281-40.379c2.042-4.316,4.176-8.357,6.346-12.128
		c0.426-0.355,5.76-4.692,10.576-2.856C584.373,397.068,585.169,406.434,585.037,408.335"/>
	<path clip-path="url(#SVGID_5_)" fill-rule="evenodd" clip-rule="evenodd" fill="#F9855D" d="M663.081,478.306
		c-4.917,0.928-9.835,1.856-14.753,2.784c-1.401-8.314-2.764-16.729-4.079-25.243c-0.891-5.763-1.747-11.488-2.57-17.175
		c-0.191,0.615-0.39,1.564-0.58,2.717c-5.51-8.913-14.379-17.864-18.006-23.75c-1.658-26.032,9.935-28.955,29.695-17.205
		c3.702,8.011,7.655,18.648,10.027,31.552C666.338,451.136,664.935,467.422,663.081,478.306"/>
	<path clip-path="url(#SVGID_5_)" fill-rule="evenodd" clip-rule="evenodd" fill="#FFEFAB" d="M637.963,388.839
		c-0.213-1.406,0.774-3.802-0.167-4.95c-1.159-1.406-5.428-4-5.972-9.698c-0.543-5.697,2.869-23.737,0.684-34.101
		c-2.185-10.364-4.224-13.838-10.83-19.412c-4.318-3.177-9.366-4.835-14.453-4.969v-0.006l-0.141,0.006l-0.14-0.006v0.006
		c-15.406,0.409-23.39,13.171-24.964,27.574c-1.76,16.14-0.078,26.325-1.299,30.936c-1.223,4.611,3.192,8.583,3.192,8.583
		s-2.101,0.885-2.034,3.597c0.068,2.711-2.963,3.736-2.963,3.736c-10.835,2.555-11.982,8.697-10.7,11.42
		c0.219,0.459,0.466,0.896,0.763,1.305c6.606,9.269,26.216,23.168,45.494,17.649l-0.005,0.008c0.013-0.006,0.025-0.012,0.037-0.017
		c0.801-0.23,1.604-0.478,2.417-0.768c4.252-1.512,7.546-3.154,10.084-4.857c13.312-6.028,27.821-9.981,27.821-9.981
		C651.415,395.108,643.705,390.167,637.963,388.839 M597.594,377.11c-9.534-7.636-14.952-25.407-9.014-38.157
		c3.58-7.692,10.919-11.62,18.336-11.793v-0.006h0.219v0.006c7.424,0.173,15.144,3.933,18.343,11.793
		c5.21,12.834,0.829,30.515-9.115,37.927C608.014,383.104,603.286,381.665,597.594,377.11"/>
	<path clip-path="url(#SVGID_5_)" fill-rule="evenodd" clip-rule="evenodd" fill="#FFEFAB" d="M628.138,465.599h-28.073
		c9.658-24.617,18.162-49.087,16.241-54.69l4.06-22.249c0,0,13.8-1.176,17.104,0.331c0,0,0.326,22.821-9.388,67.499
		C627.454,459.378,627.953,462.5,628.138,465.599"/>
	<path clip-path="url(#SVGID_5_)" fill-rule="evenodd" clip-rule="evenodd" fill="#DB6F52" d="M644.571,454.85
		c0,0-0.458-6.698-2.095-12.77c-0.189-0.702-0.484-2.879-0.798-3.406c-0.209,0.881-0.404,1.787-0.583,2.718
		c-0.724,3.768-1.063,7.313-1.155,10.555c0.014,0.378,0.027,0.756,0.041,1.134c-0.168-1.17-0.383-3.004-0.44-5.264
		c-0.086-3.373,0.269-4.234,0.301-8.364c0.017-2.261-0.064-1.968-0.159-6.452c-0.076-3.646-0.121-7.978,0.453-14.625
		c0.082,0.996,0.243,2.689,0.572,4.778c0.396,2.524,0.841,4.372,1.007,5.071c1.833,7.753,3.763,15.912,3.015,25.026
		C644.671,453.963,644.607,454.535,644.571,454.85"/>
</g>
<g>
	<defs>
		<path id="SVGID_6_" d="M607.016,327.157l-0.106-0.005v0.005c-7.422,0.174-14.756,4.107-18.342,11.799
			c-5.934,12.745-0.512,31.195,8.907,38.068c6.992,5.101,10.898,5.498,18.888-0.144c3.673-2.597,4.438-3.352,8.358-6.64
			c0.443-0.37,0.896,0.68,1.408,1.731c1.302,2.672,2.987,5.345,5.863-15.382c1.309-9.428-0.752-8.422-2.367-7.415
			c-0.841,0.524-1.561,1.049-1.622,0.1c-0.235-3.606-1.053-7.132-2.538-10.318c-3.581-7.692-10.919-11.625-18.337-11.799v-0.005
			L607.016,327.157z"/>
	</defs>
	<clipPath id="SVGID_7_">
		<use xlink:href="#SVGID_6_"  overflow="visible"/>
	</clipPath>
	<path clip-path="url(#SVGID_7_)" fill="#2E2E30" d="M595.702,320.512c0.931-1.287,3.477-4.43,7.803-5.503
		c2.929-0.727,5.319-0.17,7.804,0.41c4.589,1.071,7.729,3.14,10.268,4.847c2.729,1.834,5.564,3.74,8.296,7.31
		c2.938,3.841,3.896,7.176,5.422,12.485c0.731,2.549,0.924,4.038,0.41,5.586c-0.45,1.359-1.095,1.712-1.561,3.45
		c-0.153,0.574-0.539,2.238-0.165,4.189c0.42,2.188,1.319,2.264,2.384,5.011c0.788,2.04,1.364,3.528,0.902,5.174
		c-0.196,0.702-1.144,1.947-3.039,4.436c-0.939,1.235-1.35,1.714-1.561,2.629c-0.094,0.411-0.44,1.911,0.493,3.285
		c0.894,1.317,2.332,1.593,2.629,1.643c-0.144,1.181-0.91,2.177-1.973,2.546c-1.302,0.454-2.833-0.109-3.613-1.396
		c0.332,0.466,0.8,1.244,1.067,2.3c0.212,0.838,0.521,2.057,0,3.203c-0.486,1.07-1.178,0.935-1.972,2.382
		c-0.341,0.624-0.655,1.215-0.492,1.89c0.252,1.047,1.457,1.494,1.643,1.56c-0.925,0.636-2.144,0.633-3.039,0
		c-0.827-0.584-1.244-1.611-1.068-2.628c-0.133,0.571-0.754,2.931-3.039,4.435c-3.215,2.118-6.794,0.612-7.063,0.493
		c1.411,0.437,2.793-0.087,3.285-1.068c0.401-0.799,0.176-1.831-0.329-2.464c-0.675-0.848-1.429-0.453-2.464-1.396
		c-0.088-0.08-1.357-1.264-1.067-2.3c0.186-0.664,0.869-0.753,0.903-1.314c0.032-0.515-0.509-0.965-1.149-1.397
		c-2.005-1.35-3.861-1.807-3.861-1.807c-3.559-0.875-5.413-1.331-6.489-0.328c-0.552,0.514-0.296,0.85-1.067,3.696
		c-0.542,2-0.813,3-1.396,3.861c-1.442,2.129-3.823,2.744-4.024,2.792c-3.368,0.818-6.034-1.393-6.325-1.642l4.518-0.575
		c-0.096-0.008-1.326-0.122-1.889-1.15c-0.503-0.919-0.256-2.172,0.657-2.957c-0.452,0.006-2.73-0.01-4.601-1.808
		c-1.717-1.649-1.933-3.688-1.971-4.189c0.742,0.644,1.69,0.556,2.053,0.082c0.313-0.408,0.221-1.141-0.164-1.478
		c-0.566-0.496-1.309,0.267-2.136-0.082c-0.894-0.378-0.674-1.544-1.807-4.025c-0.396-0.864-0.651-1.425-1.15-2.054
		c-1.25-1.574-2.383-1.508-3.368-2.464c-1.785-1.732-1.248-5.037-0.984-6.653c0.569-3.512,2.115-4.051,2.464-7.229
		c0.235-2.164-0.296-3.606-0.739-5.339c-0.33-1.287-2.021-8.252-0.493-14.785c1.884-8.051,7.694-11.322,8.214-11.582
		c0.902-0.452,1.808-0.565,1.808-0.565c0.208-0.026,0.793-0.086,1.54,0.031C594.838,320.16,595.348,320.349,595.702,320.512"/>
	<polygon clip-path="url(#SVGID_7_)" fill="#FFEFAB" points="639.212,375.479 615.116,381.255 620.141,338.71 639.212,338.71 	"/>
	<path clip-path="url(#SVGID_7_)" fill="#E2C294" d="M627.941,350.581c0.046,1.244,0.201,7.543-3.169,14.544
		c-1.18,2.452-7.636,15.868-18.111,15.771c-10.983-0.101-17.219-14.968-17.948-16.705c-2.624-6.256-2.504-11.794-2.391-13.781
		c0.696-12.255,3.845-24.584,19.611-24.592C621.946,325.81,627.456,337.576,627.941,350.581"/>
	<path clip-path="url(#SVGID_7_)" fill="#E2C294" d="M587.606,357.311c-0.487-2.246-1.248-3.786-1.776-4.689
		c-0.467-0.796-0.979-1.481-1.82-1.755c-0.192-0.063-0.78-0.255-1.327,0c-0.634,0.295-0.896,1.043-1.071,1.863
		c-0.547,2.583-0.021,4.986,0.173,5.78c0.178,0.731,0.754,2.022,1.904,4.603c0.478,1.07,0.859,1.872,1.734,2.291
		c0.112,0.053,0.926,0.429,1.777,0.171c1.199-0.364,2.066-1.865,1.947-3.682C588.635,360.364,588.121,358.837,587.606,357.311"/>
	<path clip-path="url(#SVGID_7_)" fill="#E2C294" d="M625.971,355.705c0.521-2.481,1.332-4.182,1.896-5.178
		c0.498-0.88,1.044-1.636,1.941-1.939c0.203-0.069,0.831-0.281,1.416,0c0.677,0.326,0.955,1.152,1.142,2.057
		c0.584,2.854,0.023,5.507-0.183,6.384c-0.19,0.808-0.805,2.233-2.033,5.084c-0.51,1.182-0.916,2.067-1.851,2.53
		c-0.118,0.059-0.986,0.474-1.895,0.189c-1.28-0.402-2.205-2.06-2.078-4.067C624.875,359.078,625.423,357.392,625.971,355.705"/>
	<path clip-path="url(#SVGID_7_)" fill="#B59B76" d="M605.434,359.967c-0.316,1.577-0.714,3.101-1.178,4.634
		c-0.147,0.478-0.359,0.986-0.448,1.462c-0.038,0.225-0.025,0.395,0.062,0.55c0.09,0.177,0.3,0.306,0.461,0.422
		c1.272,0.779,3.055,0.434,4.298-0.3c-1.146,1.169-3.142,1.67-4.633,0.839c-1.435-0.762-0.754-2.056-0.336-3.184
		C604.199,362.901,604.733,361.394,605.434,359.967"/>
	<path clip-path="url(#SVGID_7_)" fill="#B59B76" d="M600.264,371.366c3.046,1.874,6.662,2.427,10.059,1.274
		c1.109-0.362,2.178-0.868,3.205-1.487c-1.849,1.791-4.471,2.824-7.059,2.75C604.191,373.865,601.895,372.945,600.264,371.366"/>
	<path clip-path="url(#SVGID_7_)" fill="#240F0F" d="M603.063,348.426c0.081-0.184-2.059-1.45-4.437-2.3
		c-1.466-0.524-2.76-0.796-3.72-0.946c-0.176-0.028-0.354-0.009-0.521,0.055c-0.422,0.163-0.895,0.384-1.386,0.686
		c-1.028,0.631-1.747,1.375-2.22,1.967c-0.047,0.059,0.015,0.143,0.085,0.116c0.205-0.078,0.41-0.156,0.615-0.235
		c2.364-0.91,2.549-1.053,2.998-1.191c1.003-0.31,2.653,0.159,5.914,1.109C602.333,348.252,603.02,348.526,603.063,348.426"/>
	<path clip-path="url(#SVGID_7_)" fill="#240F0F" d="M607.378,348.073c-0.081-0.184,2.059-1.45,4.437-2.3
		c1.466-0.524,2.76-0.796,3.72-0.946c0.176-0.028,0.354-0.009,0.52,0.055c0.423,0.163,0.896,0.384,1.387,0.686
		c1.027,0.631,1.747,1.375,2.22,1.967c0.047,0.059-0.015,0.143-0.085,0.116c-0.205-0.078-0.41-0.156-0.615-0.235
		c-2.365-0.91-2.549-1.053-2.998-1.191c-1.003-0.31-2.653,0.159-5.914,1.109C608.108,347.899,607.422,348.173,607.378,348.073"/>
	<path clip-path="url(#SVGID_7_)" fill="#2E2E30" d="M630.92,347.352c-0.415,0.401-0.961,1.027-1.355,1.91
		c-0.479,1.071-0.364,1.691-0.863,2.649c-0.26,0.499-0.721,1.157-1.602,1.786c-0.061-1.088-0.123-2.176-0.184-3.265
		c-0.302,1.346-0.66,2.753-1.09,4.21c-0.785,2.671-1.685,5.091-2.607,7.249c0.114-2.619,0.041-4.803-0.062-6.407
		c-0.214-3.342-0.561-4.278-1.171-5.052c-0.87-1.104-1.997-1.527-3.511-2.094c-2.697-1.011-3.342-0.399-5.853-1.232
		c-1.572-0.523-3.653-1.214-4.99-3.081c-1.112-1.553-0.655-2.449-2.094-4.867c-0.745-1.25-1.49-2.058-2.157-2.772
		c-1.15-1.232-3.197-3.116-6.407-4.682c-0.955,2.284-2.213,4.862-3.881,7.578c-1.314,2.14-2.661,4.005-3.942,5.606
		c0.449,1.135,1.184,3.447,0.8,6.345c-0.55,4.176-3.049,6.779-3.881,7.578c0.23-0.859,0.608-2.752-0.03-4.99
		c-0.466-1.632-1.28-2.778-1.817-3.42c-0.113-0.79-1.873-14.716,8.194-22.824c5.901-4.754,12.652-4.917,13.881-4.929
		c1.625-0.015,7.633,0.106,13.307,4.189c4.729,3.403,6.741,7.771,8.461,11.5C629.701,341.887,630.501,345.077,630.92,347.352"/>
	<path clip-path="url(#SVGID_7_)" fill="#FFFFFF" d="M587.241,364.385c0,0.885-0.583,1.602-1.301,1.602
		c-0.719,0-1.302-0.717-1.302-1.602c0-0.885,0.583-1.602,1.302-1.602C586.658,362.783,587.241,363.5,587.241,364.385"/>
	<path clip-path="url(#SVGID_7_)" fill="#FFFFFF" d="M586.051,366.146c0.419,0.58,1.069,1.657,1.15,2.859
		c0.123,1.819-0.278,2.538-0.528,2.806c-0.17,0.181-0.375,0.273-0.609,0.273c-0.263,0-0.483-0.109-0.677-0.333
		c-0.458-0.533-0.637-1.569-0.467-2.705C585.136,367.608,585.686,366.649,586.051,366.146 M586.063,365.355
		c0,0-1.271,1.155-1.641,3.616c-0.297,1.975,0.386,3.616,1.641,3.616c0.905,0,1.824-0.871,1.64-3.616
		C587.569,366.979,586.063,365.355,586.063,365.355"/>
	
		<rect x="585.174" y="370.217" transform="matrix(0.8581 0.5134 -0.5134 0.8581 273.5303 -247.8948)" clip-path="url(#SVGID_7_)" fill="#FFFFFF" width="0.336" height="1.602"/>
	
		<rect x="585.805" y="370.85" transform="matrix(0.5125 0.8587 -0.8587 0.5125 604.5403 -322.8403)" clip-path="url(#SVGID_7_)" fill="#FFFFFF" width="1.602" height="0.335"/>
	
		<rect x="586.193" y="369.567" transform="matrix(0.998 0.063 -0.063 0.998 24.4795 -36.2695)" clip-path="url(#SVGID_7_)" fill="#FFFFFF" width="1.448" height="0.335"/>
	
		<rect x="584.437" y="369.414" transform="matrix(0.998 0.063 -0.063 0.998 24.4559 -36.1407)" clip-path="url(#SVGID_7_)" fill="#FFFFFF" width="1.317" height="0.335"/>
	
		<rect x="584.659" y="368.116" transform="matrix(0.5125 0.8587 -0.8587 0.5125 601.6342 -323.1895)" clip-path="url(#SVGID_7_)" fill="#FFFFFF" width="1.602" height="0.335"/>
	
		<rect x="586.557" y="367.482" transform="matrix(0.8588 0.5124 -0.5124 0.8588 271.552 -248.5997)" clip-path="url(#SVGID_7_)" fill="#FFFFFF" width="0.335" height="1.603"/>
	<path clip-path="url(#SVGID_7_)" fill="#C5C4C6" d="M628.652,363.909c0,0.885-0.583,1.602-1.301,1.602
		c-0.719,0-1.302-0.717-1.302-1.602c0-0.885,0.583-1.602,1.302-1.602C628.069,362.307,628.652,363.023,628.652,363.909"/>
	<path clip-path="url(#SVGID_7_)" fill="#C5C4C6" d="M627.462,365.67c0.419,0.58,1.069,1.657,1.15,2.859
		c0.123,1.819-0.278,2.538-0.528,2.806c-0.17,0.181-0.375,0.273-0.609,0.273c-0.263,0-0.483-0.109-0.677-0.333
		c-0.458-0.533-0.637-1.569-0.467-2.705C626.547,367.132,627.096,366.173,627.462,365.67 M627.475,364.879
		c0,0-1.271,1.155-1.641,3.616c-0.297,1.975,0.385,3.616,1.641,3.616c0.905,0,1.824-0.871,1.64-3.616
		C628.98,366.502,627.475,364.879,627.475,364.879"/>
	
		<rect x="626.585" y="369.74" transform="matrix(0.8588 0.5124 -0.5124 0.8588 278.3618 -268.7893)" clip-path="url(#SVGID_7_)" fill="#C5C4C6" width="0.335" height="1.602"/>
	
		<rect x="627.216" y="370.374" transform="matrix(0.5125 0.8587 -0.8587 0.5125 624.3182 -358.6312)" clip-path="url(#SVGID_7_)" fill="#C5C4C6" width="1.602" height="0.335"/>
	
		<rect x="627.605" y="369.09" transform="matrix(0.998 0.0628 -0.0628 0.998 24.4118 -38.7037)" clip-path="url(#SVGID_7_)" fill="#C5C4C6" width="1.447" height="0.336"/>
	
		<rect x="625.848" y="368.938" transform="matrix(0.998 0.063 -0.063 0.998 24.5082 -38.7515)" clip-path="url(#SVGID_7_)" fill="#C5C4C6" width="1.317" height="0.335"/>
	
		<rect x="626.07" y="367.639" transform="matrix(0.5125 0.8587 -0.8587 0.5125 621.4117 -358.9806)" clip-path="url(#SVGID_7_)" fill="#C5C4C6" width="1.602" height="0.335"/>
	
		<rect x="627.968" y="367.005" transform="matrix(0.8581 0.5134 -0.5134 0.8581 277.9528 -270.3221)" clip-path="url(#SVGID_7_)" fill="#C5C4C6" width="0.336" height="1.603"/>
	<path clip-path="url(#SVGID_7_)" fill="#B59B76" d="M608.194,355.569c0.23-3.156,2.775-5.553,5.251-5.943
		c2.858-0.45,5.202,1.927,5.536,2.301c1.171,1.31,1.437,2.79,1.633,3.585c-0.66,0.655-2.499,2.308-5.258,2.642
		C611.403,358.633,608.662,356.029,608.194,355.569"/>
	<path clip-path="url(#SVGID_7_)" fill="#FFFFFF" d="M608.178,355.793c0.62-2.846,2.733-4.971,5.204-5.303
		c2.854-0.384,5.008,1.781,5.344,2.119c1.181,1.186,1.663,2.508,1.865,3.224c-0.654,0.584-2.48,2.056-5.235,2.336
		C611.408,358.571,608.649,356.21,608.178,355.793"/>
	<path clip-path="url(#SVGID_7_)" fill="#746653" d="M617.571,355.645c-0.134,1.844-1.698,2.693-3.543,2.559
		c-1.843-0.135-3.268-1.202-3.134-3.046c0.135-1.843,1.738-3.229,3.582-3.095C616.32,352.198,617.705,353.801,617.571,355.645"/>
	<path clip-path="url(#SVGID_7_)" fill="#3A332A" d="M615.515,356.271c-0.063,0.848-0.801,1.486-1.648,1.424s-1.486-0.8-1.424-1.648
		c0.062-0.848,0.8-1.486,1.647-1.424C614.938,354.686,615.576,355.423,615.515,356.271"/>
	<path clip-path="url(#SVGID_7_)" fill="#FFFFFF" d="M616.221,355.667c-0.023,0.317-0.299,0.555-0.615,0.532
		c-0.317-0.023-0.555-0.299-0.532-0.616c0.023-0.316,0.299-0.554,0.615-0.531C616.006,355.075,616.243,355.35,616.221,355.667"/>
	<path clip-path="url(#SVGID_7_)" fill="#433015" d="M620.591,355.833c-0.362-0.559-0.682-1.159-1.122-1.657
		c-0.418-0.491-0.893-0.914-1.412-1.26c-2.06-1.401-4.78-1.554-6.959-0.347c-1.23,0.666-2.357,1.826-2.917,3.183
		c0.003-1.624,0.981-3.137,2.317-4.119C614.279,348.862,620.061,351.055,620.591,355.833"/>
	<path clip-path="url(#SVGID_7_)" fill="#433015" d="M619.714,353.591c0.769-0.162,1.524-0.573,1.993-1.218
		c-0.294,0.552-0.782,0.982-1.328,1.282c-0.187,0.101-0.372,0.189-0.586,0.262L619.714,353.591z"/>
	<path clip-path="url(#SVGID_7_)" fill="#433015" d="M620.115,354.364c0.635,0.031,1.372-0.059,1.828-0.554
		c-0.285,0.446-0.807,0.674-1.305,0.799c-0.172,0.041-0.34,0.074-0.525,0.09L620.115,354.364z"/>
	<path clip-path="url(#SVGID_7_)" fill="#433015" d="M620.493,355.134c0.335,0.097,0.73,0.108,1.059-0.036
		c0.114-0.048,0.217-0.123,0.313-0.209c-0.223,0.338-0.626,0.514-1.021,0.561c-0.137,0.017-0.267,0.025-0.418,0.013L620.493,355.134
		z"/>
	<path clip-path="url(#SVGID_7_)" fill="#B59B76" d="M602.566,356.369c0-3.164-2.364-5.74-4.806-6.309
		c-2.817-0.656-5.327,1.544-5.688,1.892c-1.264,1.222-1.635,2.678-1.89,3.457c0.61,0.702,2.324,2.483,5.052,3.017
		C599.144,359.191,602.066,356.793,602.566,356.369"/>
	<path clip-path="url(#SVGID_7_)" fill="#FFFFFF" d="M602.566,356.593c-0.411-2.884-2.364-5.157-4.806-5.668
		c-2.817-0.589-5.122,1.413-5.482,1.725c-1.263,1.097-1.84,2.381-2.095,3.081c0.61,0.63,2.324,2.231,5.052,2.71
		C599.144,359.128,602.066,356.974,602.566,356.593"/>
	<path clip-path="url(#SVGID_7_)" fill="#746653" d="M593.921,355.662c0,1.849,1.499,2.885,3.348,2.885s3.347-1.036,3.347-2.885
		s-1.498-3.347-3.347-3.347S593.921,353.813,593.921,355.662"/>
	<path clip-path="url(#SVGID_7_)" fill="#3A332A" d="M596.041,356.169c0,0.851,0.69,1.54,1.54,1.54c0.852,0,1.54-0.689,1.54-1.54
		c0-0.851-0.688-1.54-1.54-1.54C596.731,354.629,596.041,355.318,596.041,356.169"/>
	<path clip-path="url(#SVGID_7_)" fill="#FFFFFF" d="M595.32,355.714c0,0.318,0.257,0.575,0.575,0.575
		c0.317,0,0.574-0.257,0.574-0.575c0-0.318-0.257-0.575-0.574-0.575C595.577,355.139,595.32,355.396,595.32,355.714"/>
	<path clip-path="url(#SVGID_7_)" fill="#433015" d="M590.184,355.73c0.4-0.532,0.764-1.107,1.239-1.571
		c0.452-0.459,0.958-0.847,1.5-1.155c2.156-1.246,4.88-1.202,6.966,0.161c1.179,0.753,2.219,1.993,2.678,3.386
		c0.115-1.619-0.751-3.2-2.011-4.276C596.985,349.237,591.06,351.003,590.184,355.73"/>
	<path clip-path="url(#SVGID_7_)" fill="#433015" d="M591.221,353.559c-0.754-0.217-1.479-0.682-1.9-1.36
		c0.254,0.572,0.71,1.036,1.232,1.375c0.179,0.115,0.357,0.216,0.564,0.304L591.221,353.559z"/>
	<path clip-path="url(#SVGID_7_)" fill="#433015" d="M590.765,354.3c-0.636-0.016-1.364-0.159-1.782-0.685
		c0.251,0.465,0.754,0.731,1.241,0.891c0.169,0.054,0.334,0.099,0.519,0.129L590.765,354.3z"/>
	<path clip-path="url(#SVGID_7_)" fill="#433015" d="M590.332,355.041c-0.342,0.073-0.736,0.055-1.054-0.113
		c-0.11-0.056-0.207-0.139-0.296-0.231c0.198,0.354,0.586,0.558,0.977,0.634c0.136,0.026,0.265,0.044,0.416,0.043L590.332,355.041z"
		/>
</g>
<g>
	<defs>
		<path id="SVGID_8_" d="M318.16,250.058c0.354,15.231,4.041,29.34-5.258,42.845c-0.931,16.192-116.888,39.78-116.802,41.415
			c-95.119,40.016-158.17,173.75-67.526,286.756c13.217,19.408,34.514,33.595,55.398,40.57
			c10.511,12.921,27.57,31.942,51.763,50.906c189.933,148.883,467.148,17.931,484.309-6.711
			c7.211-10.353,13.704-21.548,13.704-21.548c4.276-7.376,8.256-14.935,11.925-22.647c35.297-13.435,70.409-57.979,72.646-90.884
			c10.695-72.396-94.493-100.952-96.808-181.716c-1.556-54.405,45.148-77.509,27.039-123.179
			c-1.242-3.125-15.18-36.951-45.54-47.411c-16.983-5.857-28.137-1.752-56.69-9.129c-75.332-16.095-86.257-96.948-139.281-113.298
			c-10.629-2.305-21.003-3.388-31.083-3.387C386.733,92.646,321.23,177.519,318.16,250.058"/>
	</defs>
	<clipPath id="SVGID_9_">
		<use xlink:href="#SVGID_8_"  overflow="visible"/>
	</clipPath>
	<path clip-path="url(#SVGID_9_)" fill="#B5A76B" d="M613.173,391.266c-11.118,0.094-20.256-4.919-20.381-4.989
		c-0.134-0.075-0.183-0.246-0.107-0.381c0.075-0.134,0.244-0.184,0.382-0.108c0.166,0.094,16.813,9.218,32.391,2.383
		c0.141-0.063,0.307,0.002,0.369,0.144c0.062,0.142-0.002,0.307-0.145,0.369C621.475,390.53,617.195,391.231,613.173,391.266"/>
	<path clip-path="url(#SVGID_9_)" fill="#B5A76B" d="M614.99,397.95c-14.808,0-26.922-5.076-27.086-5.146
		c-0.143-0.061-0.208-0.225-0.148-0.368c0.061-0.142,0.225-0.208,0.368-0.147c0.222,0.094,22.419,9.388,43.371,2.66
		c0.149-0.046,0.305,0.034,0.352,0.181c0.048,0.147-0.033,0.305-0.18,0.353C626.049,397.286,620.342,397.95,614.99,397.95"/>
	<path clip-path="url(#SVGID_9_)" fill="#B5A76B" d="M614.555,400.546c-17.156,0-31.644-7.594-31.819-7.688
		c-0.136-0.072-0.188-0.242-0.115-0.379c0.073-0.136,0.244-0.186,0.379-0.115c0.213,0.113,21.528,11.282,42.981,6.381
		c0.152-0.038,0.301,0.06,0.336,0.21c0.034,0.151-0.061,0.301-0.211,0.336C622.208,400.181,618.317,400.546,614.555,400.546"/>
	<path clip-path="url(#SVGID_9_)" fill="#B5A76B" d="M605.046,410.99c-17.839,0-28.913-14.198-29.048-14.375
		c-0.094-0.123-0.069-0.299,0.053-0.393c0.121-0.094,0.299-0.071,0.393,0.053c0.164,0.214,16.635,21.314,41.73,11.595
		c0.146-0.055,0.308,0.015,0.362,0.16c0.058,0.145-0.015,0.307-0.159,0.363C613.611,410.238,609.148,410.99,605.046,410.99"/>
	<path clip-path="url(#SVGID_9_)" fill="#B5A76B" d="M622.662,486.399c-0.123,0-0.234-0.081-0.27-0.205
		c-0.036-0.129-3.559-13.074-1.468-28.321c2.085-15.208,8.266-38.218,8.327-38.449c0.04-0.149,0.197-0.237,0.344-0.197
		c0.149,0.04,0.237,0.194,0.197,0.343c-0.062,0.23-6.232,23.206-8.313,38.379c-2.073,15.128,1.417,27.967,1.453,28.095
		c0.041,0.149-0.046,0.304-0.195,0.345C622.713,486.396,622.688,486.399,622.662,486.399"/>
	<path clip-path="url(#SVGID_9_)" fill="#B5A76B" d="M604.272,503.597c-0.047,0-0.096-0.011-0.139-0.037
		c-0.135-0.076-0.182-0.247-0.104-0.382c0.052-0.091,5.24-9.316,8.607-23.107c3.502-14.341,6.978-46.186,6.77-47.64
		c-0.021-0.153,0.085-0.295,0.238-0.317c0.15-0.018,0.295,0.085,0.316,0.238c0.264,1.847-3.434,34.146-6.781,47.852
		c-3.387,13.872-8.611,23.159-8.664,23.251C604.464,503.546,604.369,503.597,604.272,503.597"/>
	<path clip-path="url(#SVGID_9_)" fill="#F9855D" d="M518.689,412.729c1.308-0.564,3.003-1.46,4.74-2.883
		c2.367-1.941,3.817-4.048,4.651-5.498c0,0,18.203,19.074,33.307,36c0,0,5.977,6.697,5.284,12.104
		c-0.024,0.183-0.056,0.374-0.056,0.374c-0.563,3.305-2.585,5.68-3.529,6.564c0,0-2.888,2.706-9.021,2.349
		C546.142,461.277,532.271,441.511,518.689,412.729"/>
	<path clip-path="url(#SVGID_9_)" fill="#B5A76B" d="M680.433,526.365c-0.184-1.609-0.388-3.241-0.605-4.851
		c-2.008-14.807-5.477-29.596-10.309-43.961l0.587-0.197c4.846,14.401,8.322,29.229,10.336,44.075
		c0.219,1.614,0.424,3.251,0.607,4.863L680.433,526.365z"/>
	<path clip-path="url(#SVGID_9_)" fill="#B5A76B" d="M699.559,511.486c-0.813-7.92-2.443-15.764-4.846-23.313
		c-3.896-12.251-9.805-23.762-17.56-34.213l0.497-0.369c7.797,10.506,13.735,22.078,17.653,34.394
		c2.414,7.59,4.053,15.475,4.87,23.438L699.559,511.486z"/>
	
		<rect x="665.749" y="483.824" transform="matrix(0.31 0.9507 -0.9507 0.31 929.7911 -312.863)" clip-path="url(#SVGID_9_)" fill="#B5A76B" width="29.376" height="0.619"/>
	<path clip-path="url(#SVGID_9_)" fill="#E2C294" d="M650.085,504.705l-2.591,8.367c-0.559,1.803-0.843,3.68-0.843,5.566v0.672
		c0,1.054,0.089,2.104,0.265,3.144l0.912,5.389c0.056,0.788,1.224,1.424,1.375-0.101c0.057-0.569,0.391-5.573,0.391-5.573
		l0.491,8.144l-0.917,5.121c-0.143,0.798,0.396,1.558,1.196,1.686c0.599,0.095,1.193-0.192,1.491-0.721l2.506-4.466
		c1.519-2.702,2.521-5.666,2.956-8.735l0.063-0.455c0.44-3.103,0.293-6.258-0.433-9.307l-0.093-0.392l-0.099-8.339H650.085z"/>
	<path clip-path="url(#SVGID_9_)" fill="#F9855D" d="M658.376,508.721c-1.204-0.581-2.823-1.222-4.804-1.64
		c-2.202-0.464-4.12-0.5-5.544-0.42c-0.188-8.155-0.582-16.679-1.233-25.539c-0.602-8.198-1.38-16.078-2.289-23.619
		c1.801-3.947,4.425-9.105,6.658-10.927c0.129-0.106,0.244-0.192,0.244-0.192c1.924-1.444,4.024-1.568,6.231-1.7
		c2.42-0.144,4.458-0.27,6.768-0.405c0.702,8.707,0.917,18.973-0.026,30.419C663.292,487.899,660.936,499.365,658.376,508.721"/>
</g>
<g>
	<defs>
		<rect id="SVGID_10_" x="-48" width="1000" height="1000"/>
	</defs>
	<clipPath id="SVGID_11_">
		<use xlink:href="#SVGID_10_"  overflow="visible"/>
	</clipPath>
	<path clip-path="url(#SVGID_11_)" fill="#AAA3A3" d="M587.395,686.059c0.272,0.235,0.749,0.572,1.392,0.656
		c0.819,0.105,1.517-0.251,2.387-0.858c2.002-1.394,3.98-2.771,4.5-5.173c0.054-0.248,0.077-0.94,0.123-2.327
		c0.053-1.59,0.052-2.896,0.041-3.777c0.481,1.271,1.003,3.053,1.183,5.232c0.155,1.861,0.016,3.463-0.183,4.684
		c-2.938,2.785-5.878,5.571-8.817,8.356L587.395,686.059z"/>
	<path clip-path="url(#SVGID_11_)" fill="#AAA3A3" d="M656.14,692.58c1.565,3.806,0.824,5.439,0.35,6.104
		c-2.097,2.934-9.727,1.978-19.249-2.543c-0.92-0.269-4.188-1.347-6.185-4.64c-1.023-1.687-1.326-3.318-1.424-4.331
		c0.448-0.056,1.495-0.249,2.47-1.068c1.346-1.129,1.601-2.643,1.654-3.03c0.663-3.299,3.354-5.542,6.122-5.479
		c2.789,0.063,4.498,2.442,4.697,2.729c2.642,2.044,5.577,4.7,8.425,8.107C654.183,689.845,655.224,691.239,656.14,692.58"/>
	<path clip-path="url(#SVGID_11_)" fill="#AAA3A3" d="M631.584,686.059c-0.272,0.235-0.749,0.572-1.392,0.656
		c-0.818,0.105-1.517-0.251-2.387-0.858c-2.002-1.394-3.98-2.771-4.5-5.173c-0.054-0.248-0.077-0.94-0.123-2.327
		c-0.053-1.59-0.052-2.896-0.041-3.777c-0.481,1.271-1.003,3.053-1.183,5.232c-0.155,1.861-0.016,3.463,0.183,4.684
		c2.939,2.785,5.878,5.571,8.817,8.356L631.584,686.059z"/>
</g>
</svg>
