<?xml version="1.0" encoding="utf-8"?>
<!-- Generator: Adobe Illustrator 16.0.0, SVG Export Plug-In . SVG Version: 6.00 Build 0)  -->
<!DOCTYPE svg PUBLIC "-//W3C//DTD SVG 1.1//EN" "http://www.w3.org/Graphics/SVG/1.1/DTD/svg11.dtd">
<svg version="1.1" id="Layer_1" xmlns="http://www.w3.org/2000/svg" xmlns:xlink="http://www.w3.org/1999/xlink" x="0px" y="0px"
	 width="664px" height="598px" viewBox="0 0 664 598" enable-background="new 0 0 664 598" xml:space="preserve">
<g>
	<defs>
		<rect id="SVGID_1_" x="-94" y="-115" width="1000" height="1000"/>
	</defs>
	<clipPath id="SVGID_2_">
		<use xlink:href="#SVGID_1_"  overflow="visible"/>
	</clipPath>
	<g clip-path="url(#SVGID_2_)">
		<defs>
			<path id="SVGID_3_" d="M331.17,46.19c-48.13,4.03-79.61,23.57-102.09,49.88h-0.01c-0.26-0.14-0.53-0.26-0.8-0.37
				c-0.16-0.08-0.33-0.15-0.5-0.21c-0.41-0.16-0.84-0.29-1.27-0.41c-0.25-0.06-0.51-0.12-0.77-0.17c-0.23-0.04-0.47-0.08-0.7-0.11
				c-0.48-0.06-0.95-0.09-1.44-0.09c-7.98,0-14.46,8.16-14.46,18.23c0,0.43,0.01,0.85,0.039,1.27c0.011,0.35,0.041,0.69,0.081,1.03
				v0.06c0.04,0.35,0.08,0.69,0.13,1.02c0.01,0.03,0.01,0.06,0.01,0.08c0.049,0.32,0.11,0.64,0.17,0.95
				c0.02,0.11,0.04,0.22,0.07,0.32c0.06,0.31,0.13,0.61,0.21,0.91c0.08,0.32,0.17,0.64,0.27,0.95c0.02,0.08,0.05,0.15,0.07,0.22
				c0.08,0.26,0.17,0.52,0.26,0.77c0.14,0.38,0.29,0.75,0.439,1.11c-7.459-3.88-14.909-7.78-22.369-11.67
				c-11.11,3.38-57.59,18.89-86.69,67.59c-31.75,53.12-19.21,106.26-16.65,116.27c-3.26,3.75-6.231,7.91-8.94,12.35
				c-0.9,1.48-1.77,2.99-2.61,4.52c-7.16,13.06-12.25,27.96-15.83,41.68c-0.42,1.61-0.82,3.21-1.2,4.78
				c-0.38,1.57-0.74,3.13-1.08,4.65c-0.51,2.29-0.98,4.53-1.41,6.68c-3.28,16.5-4.22,28.52-4.22,28.52
				c-0.13,2.78-0.191,5.55-0.191,8.3c0,0.98,0.011,1.96,0.031,2.94c0.02,1.01,0.04,2.01,0.07,3.01c0.02,0.62,0.04,1.23,0.07,1.84
				c0.01,0.32,0.02,0.63,0.04,0.94c0.06,1.34,0.14,2.68,0.24,4.02c0,0.061,0.01,0.13,0.01,0.19c0.12,1.62,0.26,3.229,0.41,4.84
				c0.08,0.84,0.17,1.67,0.26,2.5c0.11,0.95,0.22,1.89,0.34,2.82c0.08,0.64,0.17,1.27,0.26,1.899c0.08,0.63,0.17,1.26,0.27,1.9
				c0.09,0.62,0.19,1.25,0.29,1.88s0.2,1.26,0.31,1.88c0.1,0.58,0.2,1.16,0.3,1.74c0.02,0.1,0.04,0.189,0.06,0.29
				c0.18,0.97,0.36,1.93,0.549,2.89c0,0.01,0.011,0.03,0.011,0.04c0.16,0.811,0.33,1.62,0.5,2.42c0.17,0.82,0.35,1.641,0.54,2.46
				c0.19,0.811,0.38,1.63,0.57,2.44c0.4,1.62,0.81,3.24,1.25,4.85c0.08,0.3,0.16,0.61,0.24,0.91c3.9,14.21,9.06,26.37,14.11,36.23
				c0.37,0.739,0.75,1.479,1.14,2.22c0.359,0.689,0.72,1.38,1.09,2.06c0.28,0.521,0.56,1.03,0.84,1.54
				c49.28,22.49,136.42,54.62,249.22,56.681c125.22,2.3,221.55-33.54,272.271-56.681c0.229-0.58,0.439-1.18,0.649-1.77
				c0.261-0.721,0.51-1.44,0.76-2.17c0.23-0.681,0.46-1.36,0.681-2.04c0.12-0.391,0.25-0.78,0.37-1.17
				c0.259-0.82,0.51-1.641,0.75-2.46c0.029-0.101,0.06-0.19,0.09-0.29c0.229-0.79,0.46-1.57,0.67-2.36
				c0.26-0.94,0.51-1.88,0.75-2.82c0.24-0.95,0.47-1.899,0.69-2.85c0.229-0.95,0.439-1.91,0.64-2.87c0.149-0.69,0.29-1.38,0.42-2.07
				c0.03-0.13,0.05-0.27,0.08-0.399c0.06-0.261,0.109-0.53,0.16-0.8c0.149-0.811,0.3-1.631,0.439-2.45
				c0.01-0.07,0.021-0.141,0.03-0.2c0.16-0.94,0.31-1.88,0.45-2.82c8.3-41.189,19.729-65.149,19.729-126.68
				c2-40.77-32.381-117.95-32.381-117.95c-0.689-1.23-1.379-2.45-2.089-3.65c-0.701-1.21-1.41-2.41-2.13-3.6
				c-0.71-1.19-1.44-2.38-2.17-3.55c-0.721-1.17-1.46-2.33-2.2-3.48c-0.75-1.16-1.491-2.3-2.25-3.43c-0.63-0.95-1.26-1.89-1.9-2.83
				c-0.51-0.74-1.02-1.48-1.529-2.21c-0.57-0.83-1.15-1.65-1.74-2.47c-0.58-0.82-1.16-1.63-1.75-2.44
				c-1.57-2.15-3.15-4.26-4.76-6.33c-0.8-1.04-1.609-2.07-2.41-3.08c-1.62-2.03-3.25-4.03-4.891-5.98
				c-0.819-0.98-1.64-1.95-2.47-2.9c-0.82-0.95-1.65-1.9-2.479-2.83c-0.83-0.94-1.66-1.86-2.491-2.78
				c-2.43-2.7-48.969-41.97-48.969-41.97c-1.301-1.01-2.591-2.04-3.86-3.11c-34.614-28.994-61.44-79.936-148.214-79.934
				C345.173,45.306,338.351,45.591,331.17,46.19"/>
		</defs>
		<clipPath id="SVGID_4_">
			<use xlink:href="#SVGID_3_"  overflow="visible"/>
		</clipPath>
		<path clip-path="url(#SVGID_4_)" fill="#E3F4FF" d="M622.34,339.83c0,61.53-11.43,85.49-19.729,126.68
			c-0.141,0.94-0.29,1.88-0.45,2.82c-0.01,0.06-0.021,0.13-0.03,0.2c-0.14,0.819-0.29,1.64-0.439,2.45
			c-0.051,0.27-0.101,0.539-0.16,0.8c-0.03,0.13-0.05,0.27-0.08,0.399c-0.13,0.69-0.271,1.38-0.42,2.07
			c-0.2,0.96-0.41,1.92-0.641,2.87c-0.22,0.95-0.449,1.899-0.689,2.85c-0.24,0.94-0.49,1.88-0.75,2.82
			c-0.21,0.79-0.44,1.57-0.67,2.36c-0.03,0.1-0.061,0.189-0.09,0.29c-0.24,0.819-0.49,1.64-0.75,2.46
			c-0.12,0.39-0.25,0.779-0.37,1.17c-0.221,0.68-0.45,1.359-0.681,2.04c-0.25,0.729-0.5,1.449-0.76,2.17
			c-0.21,0.59-0.42,1.189-0.649,1.77C544.26,519.19,447.93,555.03,322.71,552.73c-112.8-2.061-199.94-34.19-249.22-56.681
			c-0.28-0.51-0.56-1.02-0.84-1.54c-0.37-0.68-0.73-1.37-1.09-2.06c-0.39-0.74-0.77-1.48-1.14-2.22
			c-6.01-11.87-10.86-24.271-14.35-37.141c-0.44-1.609-0.85-3.229-1.25-4.85c-0.19-0.811-0.38-1.63-0.57-2.44
			c-0.19-0.819-0.37-1.64-0.54-2.46c-0.17-0.8-0.34-1.609-0.5-2.42c0-0.01-0.01-0.03-0.01-0.04c-0.19-0.96-0.37-1.92-0.55-2.89
			c-0.02-0.101-0.04-0.19-0.06-0.29c-0.1-0.58-0.2-1.16-0.3-1.74c-0.11-0.62-0.21-1.25-0.31-1.88s-0.2-1.26-0.29-1.88
			c-0.1-0.641-0.19-1.271-0.27-1.9c-0.09-0.63-0.18-1.26-0.26-1.899c-0.12-0.931-0.23-1.87-0.34-2.82c-0.09-0.83-0.18-1.66-0.26-2.5
			c-0.16-1.61-0.3-3.22-0.41-4.84c0-0.061-0.01-0.13-0.01-0.19c-0.1-1.34-0.18-2.68-0.24-4.02c-0.02-0.311-0.03-0.62-0.04-0.94
			c-0.03-0.609-0.05-1.22-0.07-1.84c-0.03-1-0.05-2-0.07-3.01c-0.02-0.98-0.03-1.96-0.03-2.94c0-2.75,0.06-5.52,0.19-8.3
			c23.9-17.93,29.9,4.52,51.69-12.04c16.13-13.91,43.91-21.93,43.91-21.93c-17.32-13.78-53.47-31.91-85.41,4.2
			c27.39-54.82,34.58-17.65,64.93-36.85c9-10.19,13.91-11.75,30.89-8.87c35.68,7.7,20.63-41.94,51.77-37.11c0,0-6.36-7.48-23.33-7.6
			c-16.98-0.11-19.94,16.69-38.85,11.88c-12.25-3.12-29.22-2.45-46,1.24c-4.82,1.05-9.63,2.36-14.31,3.9
			c19.13-42.53,72.15-48.3,86.98-84.95c11.17-27.76,22.22-59.54,38.74-87.22c-0.01-0.01,0-0.01,0-0.01
			c5.41-9.06,11.41-17.68,18.19-25.57c22.48-26.311,53.96-45.85,102.09-49.88c103.29-8.62,131.5,47.89,168.7,79.05
			c1.27,1.07,2.56,2.1,3.86,3.11c-2.82,5.71-4.46,12.46-4.46,19.7c0,20.63,13.27,37.36,29.63,37.36c9.75,0,18.399-5.93,23.8-15.09
			c0.83,0.92,1.66,1.84,2.49,2.78c0.83,0.93,1.659,1.88,2.479,2.83c0.83,0.95,1.65,1.92,2.47,2.9c1.641,1.95,3.271,3.95,4.891,5.98
			c0.8,1.01,1.609,2.04,2.41,3.08c1.6,2.07,3.189,4.18,4.76,6.33c0.59,0.81,1.17,1.62,1.75,2.44c0.59,0.82,1.17,1.64,1.74,2.47
			c0.51,0.73,1.02,1.47,1.529,2.21c0.641,0.94,1.271,1.88,1.9,2.83c1.51,2.26,2.99,4.57,4.45,6.91c0.729,1.17,1.46,2.36,2.17,3.55
			c0.72,1.19,1.43,2.39,2.13,3.6c0.71,1.2,1.4,2.42,2.09,3.65c-0.2,0.05-0.39,0.1-0.59,0.16c-16.18,4.66-23.04,23.64-31.38,32.36
			c-8.311,8.73-24.05,11.54-24.05,11.54s10.42,16.54,32.83,18.64c10.529,0.99,19.569-2.95,27.34-7.72
			c-6.04,10.97-4.41,18.53-12.67,28.36c-9.65,11.48-24.03,15.48-36.36,35.43c-12.34,19.96-9.91,41.13-9.91,41.13
			c3.4-3.46,8.28-8.07,14.59-12.99c5.53-4.33,16.311-12.63,30.63-18.35c12.431-4.96,22.431-5.94,25.671-6.42
			c4.909-0.71,10.439-2.61,16.26-5.46C622.33,338.98,622.34,339.41,622.34,339.83"/>
		<path clip-path="url(#SVGID_4_)" fill="#FFFFFF" d="M552.702,170.324c-5.405,9.155-14.057,15.084-23.797,15.084
			c-16.369,0-29.634-16.728-29.634-37.36c0-7.234,1.634-13.985,4.46-19.698C503.731,128.35,550.268,167.622,552.702,170.324"/>
		<path clip-path="url(#SVGID_4_)" fill="#FFFFFF" d="M207.664,284.398c-31.144-4.829-16.091,44.81-51.776,37.114
			c-16.975-2.877-21.886-1.326-30.887,8.867c-30.353,19.204-37.545-17.971-64.929,36.847c31.935-36.107,68.083-17.972,85.407-4.193
			c0,0-27.784,8.015-43.906,21.927c-21.793,16.563-27.794-5.887-51.694,12.043c0,0,0.946-12.022,4.224-28.524
			c4.572-22.975,13.665-54.653,31.071-74.659c4.676-1.541,9.484-2.846,14.303-3.904c16.78-3.689,33.754-4.357,46.002-1.233
			c18.906,4.809,21.876-11.991,38.85-11.878C201.304,276.918,207.664,284.398,207.664,284.398"/>
		<path clip-path="url(#SVGID_4_)" fill="#FFFFFF" d="M622.337,339.832c0-0.421-0.011-0.853-0.021-1.274
			c-5.814,2.856-11.343,4.747-16.255,5.466c-3.237,0.473-13.244,1.459-25.667,6.412c-14.323,5.723-25.102,14.025-30.63,18.351
			c-6.309,4.922-11.19,9.536-14.591,12.988c0,0-2.436-21.167,9.905-41.121c12.33-19.954,26.716-23.951,36.363-35.439
			c8.262-9.823,6.627-17.385,12.669-28.359c-7.768,4.778-16.81,8.713-27.342,7.727c-22.41-2.107-32.829-18.639-32.829-18.639
			s15.742-2.816,24.055-11.539c8.332-8.724,15.196-27.702,31.38-32.367c0.195-0.062,0.391-0.113,0.586-0.154
			C589.96,221.884,624.341,299.06,622.337,339.832"/>
		<path clip-path="url(#SVGID_4_)" fill="#BDDEEF" d="M285.622,347.038c0,27.853-17.915,50.432-40.015,50.432
			c-22.099,0-40.015-22.579-40.015-50.432s17.916-50.432,40.015-50.432C267.707,296.605,285.622,319.185,285.622,347.038"/>
		<path clip-path="url(#SVGID_4_)" fill="#BDDEEF" d="M511.192,267.667c0,10.112-6.504,18.309-14.527,18.309
			s-14.527-8.197-14.527-18.309c0-10.112,6.504-18.309,14.527-18.309S511.192,257.555,511.192,267.667"/>
		<path clip-path="url(#SVGID_4_)" fill="#BDDEEF" d="M187.401,221.352c0,1.513-0.973,2.74-2.174,2.74s-2.174-1.227-2.174-2.74
			c0-1.513,0.973-2.74,2.174-2.74S187.401,219.839,187.401,221.352"/>
		<path clip-path="url(#SVGID_4_)" fill="#BDDEEF" d="M205.65,226.53c0,1.513-0.973,2.74-2.174,2.74s-2.174-1.227-2.174-2.74
			c0-1.513,0.973-2.74,2.174-2.74S205.65,225.018,205.65,226.53"/>
		<path clip-path="url(#SVGID_4_)" fill="#BDDEEF" d="M266.639,144.679c0,1.513-0.973,2.74-2.174,2.74
			c-1.201,0-2.174-1.227-2.174-2.74c0-1.513,0.973-2.74,2.174-2.74C265.666,141.939,266.639,143.166,266.639,144.679"/>
		<path clip-path="url(#SVGID_4_)" fill="#BDDEEF" d="M551.175,387.621c0,1.514-0.974,2.74-2.175,2.74
			c-1.2,0-2.174-1.227-2.174-2.74c0-1.513,0.974-2.74,2.174-2.74C550.201,384.881,551.175,386.108,551.175,387.621"/>
		<path clip-path="url(#SVGID_4_)" fill="#BDDEEF" d="M558.577,380.2c0,1.513-0.973,2.74-2.174,2.74s-2.174-1.227-2.174-2.74
			c0-1.513,0.973-2.74,2.174-2.74S558.577,378.687,558.577,380.2"/>
		<path clip-path="url(#SVGID_4_)" fill="#BDDEEF" d="M201.302,212.46c0,2.437-1.568,4.413-3.501,4.413
			c-1.934,0-3.502-1.976-3.502-4.413s1.568-4.413,3.502-4.413C199.734,208.048,201.302,210.023,201.302,212.46"/>
		
			<ellipse clip-path="url(#SVGID_4_)" fill="none" stroke="#FFFFFF" stroke-width="1.557" stroke-miterlimit="10" cx="189.764" cy="375.053" rx="4.536" ry="5.717"/>
		
			<ellipse clip-path="url(#SVGID_4_)" fill="none" stroke="#FFFFFF" stroke-width="1.557" stroke-miterlimit="10" cx="446.172" cy="131.23" rx="4.536" ry="5.717"/>
		
			<ellipse clip-path="url(#SVGID_4_)" fill="none" stroke="#FFFFFF" stroke-width="1.557" stroke-miterlimit="10" cx="223.594" cy="112.937" rx="14.464" ry="18.23"/>
		
			<ellipse clip-path="url(#SVGID_4_)" fill="none" stroke="#FFFFFF" stroke-width="1.557" stroke-miterlimit="10" cx="104.959" cy="438.27" rx="29.637" ry="37.353"/>
		<path clip-path="url(#SVGID_4_)" fill="#CCA279" d="M339.562,458.59c3.375-1.498,6.751-2.996,10.126-4.494
			c2.076,0.523,4.715,0.941,7.762,0.833c7.91-0.279,13.659-3.93,16.239-5.832c0.485-1.458,0.861-3.091,1.02-4.884
			c0.836-9.473-4.99-16.794-7.116-19.222c6.717-2.826,12.922-6.79,19.516-9.889c1.523-0.715,2.259-2.463,1.704-4.051
			c-0.007-0.02-0.014-0.04-0.021-0.06c-0.6-1.714-2.481-2.632-4.19-2.019c-12,4.312-23.528,9.667-35.615,13.781
			c4.451-1.851,8.902-3.702,13.353-5.553c-1.538-0.135-3.075-0.271-4.613-0.405c-4.418,2.264-9.185,4.707-13.603,6.971l-4.982,8.382
			c-3.477,3.752-6.956,7.505-10.432,11.258C334.732,451.832,333.54,450.165,339.562,458.59"/>
		<path clip-path="url(#SVGID_4_)" fill="#2256AA" d="M189.563,271.875c1.478-0.866,5.216-2.78,10.16-2.399
			c7.685,0.593,12.101,6.253,12.812,7.196c-0.604,2.711-1.209,5.422-1.813,8.132c-7.43-1.228-14.86-2.457-22.29-3.685
			C188.81,278.037,189.187,274.956,189.563,271.875"/>
		<path clip-path="url(#SVGID_4_)" fill="#5190B7" d="M275.204,552.245c-42.776,0.652-85.551,1.306-128.327,1.959
			c-0.899-30.357-1.935-57.335-2.938-80.326c-0.604-13.823-1.058-23.074-3.429-35.755c-3.886-20.791-8.446-26.936-11.51-43.347
			c-2.038-10.917-5.214-27.934-0.135-47.27c0,0,10.514-35.077,56.753-65.919c0.386-0.257,0.805-0.483,1.24-0.676
			c0.548-0.242,1.111-0.451,1.691-0.645c0.709-0.241,1.45-0.467,2.159-0.725l0.016,0.017c0.016,0.016,0.032,0.032,0.048,0.032
			c0.903,0.837,1.773,1.611,2.61,2.352c6.831,5.976,12.114,9.456,16.174,11.228c3.947,1.724,6.75,1.852,8.747,1.079
			c0.097-0.032,0.193-0.08,0.274-0.113c0.29-0.128,0.564-0.273,0.821-0.434c0.258-0.162,0.484-0.339,0.709-0.548
			c1.08-0.935,1.788-2.223,2.24-3.56c0.95-2.819,0.821-5.896,0.757-6.605v-0.032c0.016,0.016,0.048,0.032,0.064,0.048
			c0.097,0.064,0.177,0.129,0.274,0.209c0.016-0.016,0.032,0.017,0.032,0.017c1.885,1.32,3.738,2.851,5.542,4.558
			c0.257,0.242,0.499,0.484,0.741,0.725c0.547,0.532,1.095,1.096,1.626,1.66c2.385,2.529,4.688,5.38,6.879,8.57
			c12.05,17.398,21.506,44.831,28.159,83.075c1.064,6.153,2.062,12.582,2.996,19.298c0.613,4.463,1.16,12.179,1.644,21.329
			c0.402,7.958,0.757,16.995,1.047,25.887c0.016,0.387,0.016,0.757,0.032,1.144c0.125,2.992,0.194,6.911,0.29,10.777
			c0.048,1.972,0.081,3.396,0.086,3.649C272.617,468.265,273.37,493.218,275.204,552.245"/>
		<path clip-path="url(#SVGID_4_)" fill="#4080A0" d="M334.225,432.734c4.168,10.005,8.337,20.011,12.505,30.016
			c-9.801,8.646-32.348,26.125-65.854,31.808c-5.895,1-60.753,9.302-104.94-27.616c-44.891-37.506-61.534-108.065-39.39-131.629
			c5.87-6.248,20.471-15.58,35.84-12.761c9.398,1.723,15.561,7.345,16.964,8.679c10.1,9.608,11.296,23.229,12.167,29.744
			c0.127,7.384,1.485,39.227,26.1,62.177C254.249,447.982,297.238,452.272,334.225,432.734"/>
		<path clip-path="url(#SVGID_4_)" fill="#5190B7" d="M198.378,271.095c3.942,0.341,9.951,1.351,16.537,4.524
			c8.46,4.076,13.75,9.735,16.459,13.105c0.036,2.728,0.213,15.513,0.695,18.724c-2.633-3.581-12.121-13.943-17.952-18.302
			c-7.366-5.506-14.531-8.229-19.327-9.626C195.986,276.711,197.182,273.903,198.378,271.095"/>
		<path clip-path="url(#SVGID_4_)" fill="none" stroke="#4C6580" stroke-width="1.611" stroke-miterlimit="10" d="M198.378,271.095
			c3.942,0.341,9.951,1.351,16.537,4.524c8.46,4.076,13.75,9.735,16.459,13.105c0.036,2.728,0.213,15.513,0.695,18.724
			c-2.633-3.581-12.121-13.943-17.952-18.302c-7.366-5.506-14.531-8.229-19.327-9.626
			C195.986,276.711,197.182,273.903,198.378,271.095z"/>
		<path clip-path="url(#SVGID_4_)" fill="#BC956B" d="M228.92,324.47c-16.4-46.82-38.24-28.35-38.72-60.02
			c-0.05-3.65,0.18-7.97,0.73-13.13c18.14,2.08,32.18,7.26,33.67,13.47c0.13,0.54,0.59,2.87,0.82,5.88
			c0.43,5.57-0.23,9.72-0.36,10.66c-0.28,2.03-0.34,5.57,0.14,11.89C225.7,299.96,226.82,309.87,228.92,324.47"/>
		<path clip-path="url(#SVGID_4_)" fill="#987957" d="M225.2,293.22c-1.2,0.26-2.5,0.39-3.9,0.32c-5.3-0.28-9.12-3.45-13.04-7.25
			c-4.62-4.48-11.13-11.53-18.06-21.84c-0.05-3.65,0.18-7.97,0.73-13.13c18.14,2.08,32.18,7.26,33.67,13.47
			c0.13,0.54,0.59,2.87,0.82,5.88c0.43,5.57-0.23,9.72-0.36,10.66C224.78,283.36,224.72,286.9,225.2,293.22"/>
		<path clip-path="url(#SVGID_4_)" fill="#5190B7" d="M189.563,271.875c0,0,13.23,17.399,32.699,23.871l-1.308,19.366
			c0,0-34.162-27.089-34.142-34.032L189.563,271.875z"/>
		<path clip-path="url(#SVGID_4_)" fill="#4C6580" d="M222.263,295.746c-0.073,6.817-0.365,13.9-0.69,20.703l-1.04-0.805
			c-7.546-5.955-32.599-25.914-33.72-34.563c0.092,1.026,0.68,1.891,1.205,2.73c1.696,2.502,3.881,4.63,5.999,6.776
			c5.775,5.655,11.923,10.926,18.061,16.187c3.087,2.615,6.178,5.237,9.299,7.806l-1.1,0.486
			C220.833,308.725,221.473,302.07,222.263,295.746"/>
		<path clip-path="url(#SVGID_4_)" fill="#4C6580" d="M221.383,306.945c0.071,0.932,0.298,2.478,0.303,3.153
			c2.823,4.639,5.37,9.457,7.601,14.422c4.467,9.927,7.765,20.394,9.828,31.083c1.011,5.348,1.735,10.75,2.068,16.173l-0.324-0.163
			c1.353-0.733,2.717-1.45,4.087-2.154c-1.37,0.917-2.75,1.817-4.141,2.7c-2.369-16.154-6.519-32.016-12.717-47.125
			c-2.047-4.997-4.269-9.928-6.683-14.781C221.332,309.164,221.402,308.044,221.383,306.945"/>
		<path clip-path="url(#SVGID_4_)" fill="#4C6580" d="M243.466,361.949c0.09,0.947-0.254,1.754-0.769,1.803
			c-0.514,0.049-1.004-0.679-1.094-1.626c-0.09-0.947,0.255-1.755,0.769-1.803C242.886,360.274,243.376,361.002,243.466,361.949"/>
		<path clip-path="url(#SVGID_4_)" fill="#4C6580" d="M241.807,350.197c0.187,0.933-0.073,1.771-0.58,1.872
			c-0.506,0.102-1.068-0.572-1.255-1.505c-0.186-0.933,0.073-1.771,0.58-1.872C241.059,348.59,241.62,349.264,241.807,350.197"/>
		<path clip-path="url(#SVGID_4_)" fill="#4C6580" d="M239.082,339.188c0.187,0.933-0.073,1.771-0.58,1.872
			c-0.506,0.102-1.068-0.572-1.255-1.505c-0.186-0.933,0.073-1.771,0.58-1.872C238.334,337.582,238.895,338.255,239.082,339.188"/>
		<path clip-path="url(#SVGID_4_)" fill="#4C6580" d="M233.529,325.983c0.187,0.933-0.073,1.771-0.58,1.872
			c-0.506,0.102-1.068-0.572-1.255-1.505c-0.186-0.933,0.073-1.771,0.58-1.872C232.781,324.376,233.342,325.05,233.529,325.983"/>
		<path clip-path="url(#SVGID_4_)" fill="#4C6580" d="M229.833,313.49c0.187,0.933-0.073,1.771-0.58,1.872
			c-0.506,0.102-1.068-0.572-1.255-1.505c-0.186-0.933,0.073-1.771,0.58-1.872C229.084,311.883,229.646,312.557,229.833,313.49"/>
		<path clip-path="url(#SVGID_4_)" fill="#4080A0" d="M289.949,468.922h-17.326c-0.282-10.642-0.54-20.587-0.516-20.587
			c0.016-0.001,0.078,4.203,0.117,4.203c0.028-0.001,0.154-2.22-0.311-4.988c-0.066-0.396-0.129-0.685-0.144-0.778
			c-0.821-5.348-1.949-13.645-2.819-23.938c-0.387-4.704-0.564-7.895-0.693-9.779c-1.111-17.784-4.365-34.683-5.251-40.353
			c-1.418-9.15-3.705-23.358-9.633-39.854c-3.738-10.423-9.376-22.988-18.107-36.423c0.95,0.709,1.949,1.482,2.996,2.32
			c3.85,3.125,8.296,7.217,12.775,12.42c1.385,1.611,6.073,7.169,11.099,15.771c6.782,11.615,10.181,21.941,11.969,28.03
			c1.904,6.48,3.072,11.862,3.836,16.635c2.237,13.985,2.59,19.676,4.621,38.539c0.409,3.798,2.275,18.507,6.007,47.926
			C288.92,460.833,289.603,466.207,289.949,468.922"/>
		<path clip-path="url(#SVGID_4_)" fill="#AF3D2E" d="M479.01,470.271c-2.83,19.96-7.141,46.92-13.78,80.35
			c-9.954-0.274-19.908-0.55-29.862-0.825c1.412-21.338,1.322-38.618,0.98-50.448c-0.449-15.508-0.135-31.04-0.98-46.531
			c-0.617-11.305-1.47-21.661,3.429-33.796c2.864-7.097,6.701-12.335,9.583-15.723c1.124-0.717,2.809-1.593,4.971-2.007
			c7.199-1.38,13.323,3.551,15.81,5.62c5.78,4.811,9,12.01,10.65,20.061v0.01c0.439,2.16,0.77,4.38,1,6.64
			C482.209,446.932,480.289,461.262,479.01,470.271"/>
		<path clip-path="url(#SVGID_4_)" fill="#BC956B" d="M212.742,284.96c2.371,1.404,7.128,3.742,13.15,3.383
			c4.145-0.247,8.535-1.799,14.21-6.199c12.867-9.976,18.633-23.997,23.261-35.615c1.401-3.519,4.871-12.64,7.329-25.09
			c1.625-8.233,2.394-13.921,2.815-18.397c0.506-5.367,0.63-7.668,0.617-9.251c-0.007-0.737-0.116-9.705-1.817-14.118
			c-3.684-9.562-20.239-11.768-40.763-14.273c-7.88-0.961-19.278-1.979-33.235-1.883c-2.744,2.036-6.312,5.385-7.901,10.398
			c-1.356,4.277-0.263,6.583-1.316,10.448c-1.897,6.962-8.258,9.818-11.145,12.403C161.853,211.181,191.686,272.493,212.742,284.96"
			/>
		<path clip-path="url(#SVGID_4_)" fill="#111010" d="M183.383,230.987c-2.936-4.097-5.875-8.225-8.816-12.382
			c-2.019-2.853-4.025-5.702-6.019-8.544c-2.994-4.269-4.908-9.25-5.204-14.456c-0.026-0.448-0.041-0.904-0.045-1.369
			c-0.041-4.642,1.064-8.017,2.449-12.249c2.12-6.479,4.841-10.894,6.471-13.502c3.592-5.746,6.406-8.345,7.726-9.48
			c4.249-3.653,6.676-3.876,7.94-3.83c2.056,0.076,3.662,0.961,4.598,1.6c1.204-2.616,3.866-7.458,9.163-11.457
			c6.189-4.673,12.468-5.548,14.829-5.847c7.191-0.911,14.953,2.213,30.476,8.461c7.295,2.937,10.755,4.709,14.369,7.653
			c6.627,5.398,8.687,10.594,9.213,12.03c0.699,1.909,1.034,3.584,1.208,4.772c1.797,1.51,4.594,4.261,6.614,8.488
			c2.744,5.74,2.505,10.955,2.337,13.859c-0.025,0.434-0.059,0.878-0.12,1.372c-0.849,6.926-3.281,11.863-5.297,16.33
			c-3.8,8.419-5.275,14.22-5.681,14.091c-0.567-0.179,3.466-11.185,1.842-18.838c-0.124-0.582-0.622-2.993-1.297-6.455
			c-0.251-1.291-0.524-2.867-0.816-4.948c-0.796-5.679-0.936-9.438-0.955-11.896c-0.02-2.663,0.095-4.909,0.218-6.562
			c-2.29,0.853-5.849,1.982-10.303,2.557c-8.481,1.093-15.124-0.479-34.008-6.05c-7.51-2.215-14.101-4.221-19.549-5.906
			c0.816,3.5,2.744,13.816-2.136,25.419c-5.181,12.316-14.725,18.222-17.768,19.943
			C184.343,219.523,183.863,225.255,183.383,230.987"/>
		<path clip-path="url(#SVGID_4_)" fill="#111010" d="M178.02,240.989c0.495,2.08,1.553,5.346,3.971,8.7
			c3.222,4.471,7.162,6.744,9.242,7.758c-1.509-2.344-3.087-5.115-4.558-8.314c-1.792-3.899-3.009-7.531-3.849-10.665
			C181.224,239.308,179.622,240.149,178.02,240.989"/>
		<path clip-path="url(#SVGID_4_)" fill="#484443" d="M255.776,163.956c-1.614-0.15-3.366-0.396-5.225-0.78
			c-3.611-0.745-6.712-1.821-9.249-2.911c1.28,2.15,3.25,4.898,6.205,7.523c1.601,1.423,3.174,2.528,4.581,3.383
			c-4.996,0.078-11.41-0.288-18.67-1.906c-6.219-1.386-11.446-3.332-15.554-5.19c4.209,3.185,12.89,8.862,25.343,10.962
			c10.69,1.803,19.468,0.179,24.399-1.121c-3.364-0.925-7.328-2.321-11.559-4.472c-2.612-1.328-4.905-2.731-6.887-4.09
			c1.426,0.523,4.009,1.259,7.265,1.013c2.882-0.218,5.096-1.114,6.403-1.764C260.478,164.387,258.127,164.171,255.776,163.956"/>
		<path clip-path="url(#SVGID_4_)" fill="#484443" d="M195.49,177.252c-0.043,3.107-0.503,7.83-2.641,13.082
			c-3.214,7.889-8.453,12.64-11.202,14.807c1.797-0.552,7.838-2.651,11.82-8.851C198.992,187.687,195.903,178.424,195.49,177.252"/>
		<path clip-path="url(#SVGID_4_)" fill="#484443" d="M187.794,187.767c-1.067,2.226-2.653,4.996-4.995,7.864
			c-2.677,3.275-5.447,5.583-7.628,7.137c1.339-0.18,5.079-0.864,8.279-3.997C187.892,194.419,187.822,188.746,187.794,187.767"/>
		<path clip-path="url(#SVGID_4_)" fill="#484443" d="M272.712,191.611c-0.099,1.12-0.208,2.772-0.202,4.778
			c0.008,2.234,0.163,3.99,0.472,7.411c0.119,1.319,0.292,3.108,0.531,5.239c0.414-2.595,0.648-4.79,0.789-6.431
			c0.42-4.884,0.157-6.589-0.272-8.003C273.625,193.275,273.091,192.254,272.712,191.611"/>
		<path clip-path="url(#SVGID_4_)" fill="#FFFFFF" d="M211.995,229.991c1.832,0.188,3.658,0.64,5.42,1.024
			c1.311,0.359,2.639,0.741,3.943,1.206c7.833-0.848,10.644-8.711,10.644-8.711c-0.4-0.179-1.755-0.491-3.623-0.882
			c-3.655-0.772-9.291-1.823-13.684-2.608c-3.691-0.673-6.51-1.172-6.51-1.172S206.274,226.08,211.995,229.991"/>
		<path clip-path="url(#SVGID_4_)" fill="#3F2E20" d="M219.518,228.949c0.345,0.096,0.699,0.165,1.048,0.208
			c0.066,0.002,0.119,0.006,0.175,0.022c0.025-0.004,0.053,0.004,0.078-0.001c0.107,0.008,0.2,0.017,0.292,0.014
			c0.078,0,0.146,0.014,0.212,0.015c3.114,0.014,5.955-2.038,6.817-5.184c0.127-0.469,0.203-0.929,0.239-1.395
			c-3.655-0.771-9.291-1.823-13.684-2.608c-0.008,0.028-0.019,0.043-0.027,0.07c-0.027,0.071-0.051,0.154-0.076,0.237
			c-0.017,0.056-0.035,0.098-0.039,0.152C213.631,224.174,215.822,227.948,219.518,228.949"/>
		<path clip-path="url(#SVGID_4_)" fill="#FFFFFF" d="M249.694,234.927c1.53,0.15,3.052,0.502,4.52,0.818
			c1.06,0.283,2.12,0.567,3.163,0.931c0.012-0.018,0.012-0.018,0.015-0.003c6.972-0.66,9.405-7.664,9.405-7.664
			c-0.419-0.17-2.033-0.521-4.203-0.939c-3.473-0.687-8.34-1.534-11.892-2.145c-2.673-0.464-4.607-0.786-4.607-0.786
			S244.432,231.614,249.694,234.927"/>
		<path clip-path="url(#SVGID_4_)" fill="#3F2E20" d="M256.103,233.566c0.313,0.019,0.621,0.009,0.926-0.017
			c0.063,0.004,0.108-0.005,0.153-0.013c0.03-0.006,0.045-0.008,0.077,0.001l0.42-0.078c2.588-0.496,4.634-2.657,4.916-5.39
			c-3.474-0.687-8.34-1.534-11.892-2.144c-0.043,0.023-0.073,0.029-0.099,0.049c-0.07,0.292-0.128,0.566-0.15,0.865
			c-0.016,0.08-0.02,0.143-0.021,0.22c-0.006,0.048-0.013,0.096-0.005,0.141C250.266,230.499,252.79,233.33,256.103,233.566"/>
		<path clip-path="url(#SVGID_4_)" fill="#987957" d="M241.475,221.877c0.595,5.447,1.72,10.842,3.256,16.104
			c0.938,3.321,2.667,6.826,1.26,10.178c-1.296,3.185-4.775,5.365-8.249,4.963c-1.756-0.152-3.469-0.885-4.937-1.956
			c1.291,1.296,3,2.194,4.85,2.572c6.077,1.166,11.56-4.909,9.843-10.838C245.378,235.866,243.144,229.038,241.475,221.877"/>
		<path clip-path="url(#SVGID_4_)" d="M237.846,259.493c4.991,2.187,10.829,2.599,15.941,1.116
			c-2.598,0.135-5.174-0.173-7.542-0.878c-2.371-0.699-4.53-1.799-6.356-3.17c-0.84-0.63-2.081-0.544-2.773,0.194
			C236.284,257.615,236.666,259.027,237.846,259.493"/>
		<path clip-path="url(#SVGID_4_)" d="M230.45,255.634c-5.375,2.583-12.742,4.485-18.937,3.433
			c6.057,2.393,14.147,1.738,20.878,0.07C235.913,258.154,233.736,254.218,230.45,255.634"/>
		<path clip-path="url(#SVGID_4_)" fill="#111010" d="M232.399,201.125c-1.218,3.909-2.436,7.817-3.654,11.726
			c0,0-21.97-12.703-32.023,2.784c0,0,1.703-15.344,15.85-17.006c2.874-0.157,6.363-0.125,10.287,0.387
			C226.558,199.5,229.767,200.296,232.399,201.125"/>
		<path clip-path="url(#SVGID_4_)" fill="#111010" d="M246.436,205.592c-0.112,3.631-0.224,7.262-0.337,10.893
			c1.826-0.874,5.083-2.138,9.282-2.178c2.765-0.026,6.315-0.059,9.568,2.351c3.918,2.904,4.773,7.401,4.972,8.697
			c0.263-1.377,1.218-7.214-2.39-12.729c-2.782-4.253-6.71-5.915-8.191-6.518C253.446,203.71,248.133,205.078,246.436,205.592"/>
		<path clip-path="url(#SVGID_4_)" fill="#652B28" d="M237.407,265.707c-0.772-0.28-6.726-2.338-12.947,0.43
			c-1.022,0.456-1.824,0.94-2.368,1.299c5.028-1.202,8.821-0.975,10.973-0.683c3.315,0.449,6.459,1.449,6.459,1.449
			c2.348,0.747,3.69,1.429,3.784,1.254C243.446,269.197,240.863,266.961,237.407,265.707"/>
		<path clip-path="url(#SVGID_4_)" fill="#987957" d="M230.524,269.46c-0.823-0.08-1.233-0.081-1.669-0.031
			c-0.639,0.075-1.482,0.281-1.473,0.455c0.008,0.139,0.556,0.199,1.442,0.32c1.977,0.27,2.965,0.405,3.624,0.587
			c1.842,0.507,2.763,0.76,3.074,0.93c0.051,0.027,0.337,0.186,0.679,0.135c0.034-0.005,0.393-0.061,0.438-0.249
			c0.016-0.065,0.008-0.202-0.306-0.45c-1.184-0.936-3.667-1.404-3.667-1.404C231.752,269.582,231.188,269.524,230.524,269.46"/>
		<path clip-path="url(#SVGID_4_)" fill="#BC956B" d="M186.563,243.897c-1.141,1.222-2.927,1.547-3.895,1.724
			c-3.505,0.638-6.314-0.984-7.069-1.42c-2.628-1.517-4.376-5.308-7.766-12.829c-0.97-2.152-1.893-4.739-3.737-9.914
			c-1.14-3.197-1.709-4.97-1.106-7.085c0.092-0.321,1.079-3.621,3.492-4.274c2.641-0.716,5.41,2.165,8.898,5.882
			c2.439,2.601,5.235,5.631,7.887,10.873C185.244,230.762,190.018,240.198,186.563,243.897"/>
		<path clip-path="url(#SVGID_4_)" fill="#C95039" d="M535.489,516.221c-0.31,8.711-0.33,17.061-0.16,25.011c0,0-0.01,0.01,0,0.02
			c0.07,3.19,0.17,6.311,0.3,9.37h-94.3c3.8-16.24,6.05-28.97,6.12-48.56c0.16-47.58-0.62-54.79-0.62-54.79
			c-3.824-20.93-2.812-38.192,2.497-45.455c1.487-2.034,3.123-3.673,3.123-3.673c3.87-3.879,8.293-5.728,17.14-9.423
			c2.344-0.979,6.02-2.435,10.881-3.6c0.09-0.022,0.162-0.039,0.21-0.05c0.13-0.04,0.25-0.07,0.369-0.09
			c0.021-0.01,0.04-0.02,0.051-0.02c4.3-1.01,7.229-1.24,8.33-1.31c5.609-0.36,10.319,0.2,13.659,0.82
			c0.101,0.01,0.19,0.03,0.29,0.05c0.53,0.15,1.131,0.31,1.801,0.5c0.85,0.22,1.8,0.47,2.83,0.75h0.01
			c9.859,2.64,27.229,7.64,32.52,16.081c0.01,0.02,0.03,0.05,0.04,0.069c8.01,12.851,0.521,20.601-1.39,29.96
			C538.27,436.352,537.35,462.971,535.489,516.221"/>
		<path clip-path="url(#SVGID_4_)" fill="#AF3D2E" d="M548.579,463.571c-2.75,19.42-6.91,45.47-13.25,77.66c0,0-0.01,0.01,0,0.02
			c-0.609,3.061-1.239,6.19-1.88,9.37h-33.6c0.21-3.66,0.35-6.97,0.45-9.91c1.739-53.84-0.561-89.63-0.561-89.63
			c-0.46-7.16-1.56-22.67,6.11-38.85c3.029-6.4,7.87-16.25,17.069-17.641c7.601-1.149,14.16,4.25,15.811,5.62
			c0.649,0.54,1.27,1.11,1.85,1.71C554.899,416.551,550.789,448.011,548.579,463.571"/>
		<path clip-path="url(#SVGID_4_)" fill="#995C33" d="M506.126,379.773c0,0-19.461,0.381-25.194,3.486l-0.861,3.486l28.018-0.738
			L506.126,379.773z"/>
		<path clip-path="url(#SVGID_4_)" fill="#F2B172" d="M504.87,371.683l-22.969-0.404l-1.22,20.807
			c0.027-0.097,4.946,2.746,11.295,3.076c7.213,0.371,13.292-6.386,13.292-6.386L504.87,371.683z"/>
		<path clip-path="url(#SVGID_4_)" fill="#E5A26A" d="M481.241,382.648l0.661-11.369l22.967,0.404l0.11,4.737
			C499.042,380.086,490.949,383.3,481.241,382.648"/>
		<path clip-path="url(#SVGID_4_)" fill="#5E1212" d="M518.258,273.042c0,0-17.729-16.218-45.799-10.117
			c-17.379,3.786-23.866,46.704-16.507,59.95c3.396,6.113,5.652,8.947,11.975,17.322c14.333-9.263,48.009,13.081,48.009,13.081
			s24.271-2.788,30.125-45.119C550.538,275.751,518.258,273.042,518.258,273.042"/>
		<path clip-path="url(#SVGID_4_)" fill="#F2B172" d="M455.126,327.408c1.863-11.47,0.669-46.479,0.669-46.479l5.855,0.372
			c0.037-0.84,0.063-1.308,0.063-1.308l68.105,7.377c0,0,12.755,33.896-8.269,60.03c-6.808,22.296-21.793,31.344-36.016,33.009
			c-1.284,0.151-2.505,0.216-3.688,0.245c-1.809,0.308-3.487,0.409-4.992,0.294c-2.616-0.211-7.323-1.654-9.497-4.269
			c-6.562-7.908-12.663-18.439-13.407-29.384C453.355,338.449,454.383,331.939,455.126,327.408"/>
		<path clip-path="url(#SVGID_4_)" fill="#C68758" d="M479.452,331.088c0,0-0.342,5.85-2.273,10.867
			c-0.322,0.836-0.826,1.6-1.406,2.283c-1.418,1.669-2.211,2.958-0.991,4.608c2.01,2.702,5.111,1.64,8.268,0.468
			c-1.707,1.675-5.268,2.395-6.79,1.883c-2.148-0.726-4.532-3.415-1.644-7.246c0.473-0.627,0.91-1.275,1.254-1.981
			C477.072,339.493,478.502,337.377,479.452,331.088"/>
		<path clip-path="url(#SVGID_4_)" fill="#5E1212" d="M513.862,307.74c0,0,6.689,23.947,10.864,31.456
			c6.708-7.119,23.849-35.058,10.46-56.532c-2.376-3.822-11.121-7.765-19.773-7.985c-13.03-8.286-29.878-15.891-46.908-10.663
			c-14.599,4.478-22.362,21.392-28.776,39.015c5.516,0.192,9.305-3.763,9.305-3.763s-1.056,9.502,1.808,17.77
			c10.167-7.915,17.682-14.87,17.682-14.87s-3.01,6.971-0.055,10.502c8.873-4.067,20.536-5.598,28.152-10.736
			c-1.652,2.372-7.727,5.946-12.599,9.091C496.675,314.159,506.888,312.53,513.862,307.74"/>
		<path clip-path="url(#SVGID_4_)" fill="#5E1212" d="M508.154,320.632c0,0-10.002-6.497-19.489,0.677
			c-0.954-2.939,0.366-6.701,1.109-6.926c3.727-1.108,11.571-1.968,16.673,2.044C508.117,317.751,508.154,320.632,508.154,320.632"
			/>
		<path clip-path="url(#SVGID_4_)" fill="#FFFFFF" d="M507.071,331.533c-0.063,2.148-3.625,4.673-7.873,4.533
			c-4.229-0.135-6.799-2.734-6.734-4.996c0.073-2.274,2.954-5.559,7.194-5.419C503.896,325.782,507.154,329.136,507.071,331.533"/>
		<path clip-path="url(#SVGID_4_)" fill="#140408" d="M494.427,329.992c-0.055,1.957,1.35,2.535,3,2.588
			c1.652,0.053,2.9-0.436,2.974-2.397c0.056-1.957-1.229-3.586-2.872-3.634C495.886,326.489,494.491,328.035,494.427,329.992"/>
		<path clip-path="url(#SVGID_4_)" fill="#140408" d="M492.463,331.069c0.754-1.36,2.011-4.646,7.249-4.478
			c4.892,0.163,6.653,3.81,7.359,4.941c0.065-1.734-1.302-5.689-6.68-6.159C494.299,324.844,492.298,329.074,492.463,331.069"/>
		<path clip-path="url(#SVGID_4_)" fill="#5E1212" d="M459.283,318.267c0,0,9.8-4.466,15.884,2.891
			c1.211-2.671,0.587-6.307,0.063-6.706c-3.881-2.986-10.387-0.901-13.452,0.209C460.045,315.285,459.283,318.267,459.283,318.267"
			/>
		<path clip-path="url(#SVGID_4_)" fill="#FFFFFF" d="M460.604,328.551c-0.33,2.124,2.073,5.2,5.743,5.767
			c3.661,0.562,6.544-1.573,6.883-3.82c0.349-2.245-1.541-5.959-5.202-6.523C464.366,323.406,460.962,326.17,460.604,328.551"/>
		<path clip-path="url(#SVGID_4_)" fill="#140408" d="M468.585,328.968c-0.285,1.948-1.605,2.283-3.037,2.06
			c-1.422-0.222-2.414-0.906-2.11-2.846c0.294-1.944,1.697-3.334,3.12-3.123C467.979,325.277,468.889,327.032,468.585,328.968"/>
		<path clip-path="url(#SVGID_4_)" fill="#140408" d="M473.23,330.498c-0.395-1.466-0.909-5.182-5.432-5.884
			c-4.231-0.647-6.388,2.939-7.194,3.937c0.257-1.723,2.138-5.396,6.845-4.971C472.771,324.063,473.735,328.561,473.23,330.498"/>
		<path clip-path="url(#SVGID_4_)" fill="#F2B172" d="M520.111,327.863c1.789-4.056,7.221-6.836,10.698-4.175
			c5.259,4.005,3.817,13.379,0.064,18.609c-2.284,3.147-7.221,6.893-10.24,4.6C516.753,343.951,516.707,335.589,520.111,327.863"/>
		<path clip-path="url(#SVGID_4_)" fill="#921F33" d="M484.959,360.49c3.506,0.287,7.642,1.255,7.592,1.837
			c-0.057,0.667-5.504-0.684-13.959,0.734c0,0-7.664,1.286-9.516-0.273c-0.076-0.064-0.163-0.158-0.159-0.269
			c0.016-0.446,1.486-0.871,6.491-1.417C480.277,360.571,482.711,360.306,484.959,360.49"/>
		<g opacity="0.3" clip-path="url(#SVGID_4_)">
			<g>
				<defs>
					<rect id="SVGID_5_" x="478.797" y="370.075" width="6.273" height="1.808"/>
				</defs>
				<clipPath id="SVGID_6_">
					<use xlink:href="#SVGID_5_"  overflow="visible"/>
				</clipPath>
				<path clip-path="url(#SVGID_6_)" fill="#FFA483" d="M478.807,371.61c0.145,0.358,1.659,0.365,3.385,0.017
					c1.726-0.347,3.019-0.921,2.865-1.277c-0.144-0.36-1.659-0.366-3.385-0.02C479.956,370.679,478.673,371.252,478.807,371.61"/>
			</g>
		</g>
		<path clip-path="url(#SVGID_4_)" fill="#AF3D2E" d="M506.126,379.773c-0.976,1.967-2.591,4.579-5.226,7.021
			c-5.895,5.462-12.86,6.342-15.438,6.536l-1.258,7.799c2.429,0.005,5.771-0.311,9.417-1.717
			c8.959-3.456,13.216-10.969,14.467-13.405C507.435,383.929,506.78,381.851,506.126,379.773"/>
		<path clip-path="url(#SVGID_4_)" fill="#AF3D2E" d="M481.047,387.651c0,0-0.939,2.438,1.127,3.989l-0.67,8.171
			c0,0-3.111-4.311-2.804-7.542c0.308-3.233,2.347-8.147,2.347-8.147V387.651z"/>
		<path clip-path="url(#SVGID_4_)" fill="#AF3D2E" d="M488.236,400.834c-1.344,0.098-2.688,0.195-4.033,0.295l-2.377,22.492
			c0.231-7.979,0.462-15.956,0.693-23.936c-0.817-0.757-1.633-1.515-2.45-2.272l-0.321,36.212h2.427
			C484.194,422.694,486.215,411.764,488.236,400.834"/>
	</g>
</g>
</svg>
