<?xml version="1.0" encoding="utf-8"?>
<!-- Generator: Adobe Illustrator 16.0.0, SVG Export Plug-In . SVG Version: 6.00 Build 0)  -->
<!DOCTYPE svg PUBLIC "-//W3C//DTD SVG 1.1//EN" "http://www.w3.org/Graphics/SVG/1.1/DTD/svg11.dtd">
<svg version="1.1" id="Layer_1" xmlns="http://www.w3.org/2000/svg" xmlns:xlink="http://www.w3.org/1999/xlink" x="0px" y="0px"
	 width="664px" height="598px" viewBox="0 0 664 598" enable-background="new 0 0 664 598" xml:space="preserve">
<g>
	<defs>
		<rect id="SVGID_1_" x="-115" y="-134" width="1000" height="1000"/>
	</defs>
	<clipPath id="SVGID_2_">
		<use xlink:href="#SVGID_1_"  overflow="visible"/>
	</clipPath>
	<g clip-path="url(#SVGID_2_)">
		<defs>
			<rect id="SVGID_3_" x="39.433" y="-1027" width="615" height="893"/>
		</defs>
		<clipPath id="SVGID_4_">
			<use xlink:href="#SVGID_3_"  overflow="visible"/>
		</clipPath>
		<g clip-path="url(#SVGID_4_)">
			<defs>
				<rect id="SVGID_5_" x="39.433" y="-1027" width="615" height="893"/>
			</defs>
			<clipPath id="SVGID_6_">
				<use xlink:href="#SVGID_5_"  overflow="visible"/>
			</clipPath>
			<g clip-path="url(#SVGID_6_)">
				
					<image overflow="visible" width="1230" height="1786" xlink:href="91491DB7.jpg"  transform="matrix(0.5 0 0 0.5 39.4331 -1027)">
				</image>
			</g>
		</g>
	</g>
</g>
<g>
	<defs>
		<path id="SVGID_7_" d="M328.884,48c-48.131,4.03-79.61,23.57-102.09,49.881h-0.01c-0.26-0.141-0.53-0.261-0.8-0.371
			c-0.16-0.078-0.33-0.15-0.501-0.21c-0.41-0.159-0.839-0.29-1.269-0.409c-0.251-0.061-0.511-0.121-0.77-0.17
			c-0.23-0.041-0.471-0.08-0.7-0.111c-0.481-0.06-0.951-0.09-1.44-0.09c-7.98,0-14.46,8.16-14.46,18.23
			c0,0.43,0.009,0.85,0.039,1.27c0.011,0.351,0.041,0.69,0.08,1.031v0.059c0.041,0.351,0.08,0.69,0.131,1.021
			c0.01,0.029,0.01,0.059,0.01,0.079c0.049,0.32,0.11,0.642,0.17,0.95c0.02,0.109,0.039,0.22,0.07,0.32
			c0.059,0.31,0.13,0.609,0.21,0.91c0.08,0.319,0.17,0.64,0.27,0.949c0.02,0.08,0.05,0.15,0.07,0.221c0.08,0.26,0.17,0.52,0.26,0.77
			c0.139,0.38,0.29,0.751,0.439,1.111c-7.459-3.881-14.909-7.781-22.369-11.672c-11.111,3.381-57.59,18.891-86.69,67.59
			c-31.75,53.121-19.211,106.262-16.65,116.271c-3.26,3.75-6.231,7.911-8.941,12.351c-0.899,1.479-1.769,2.989-2.609,4.52
			c-7.16,13.061-12.251,27.96-15.83,41.68c-0.42,1.61-0.821,3.211-1.201,4.78c-0.379,1.569-0.739,3.13-1.08,4.649
			c-0.509,2.291-0.98,4.53-1.409,6.681c-3.28,16.5-4.22,28.52-4.22,28.52c-0.13,2.78-0.191,5.551-0.191,8.301
			c0,0.979,0.011,1.96,0.031,2.939c0.02,1.01,0.039,2.01,0.07,3.011c0.02,0.619,0.04,1.229,0.069,1.84
			c0.011,0.32,0.021,0.63,0.041,0.939c0.06,1.34,0.139,2.68,0.24,4.021c0,0.06,0.01,0.131,0.01,0.189
			c0.12,1.62,0.26,3.23,0.409,4.84c0.081,0.841,0.171,1.671,0.261,2.5c0.109,0.95,0.22,1.891,0.34,2.82
			c0.08,0.64,0.17,1.271,0.26,1.9c0.08,0.63,0.17,1.26,0.27,1.899c0.09,0.62,0.19,1.25,0.29,1.88s0.199,1.261,0.309,1.88
			c0.101,0.581,0.201,1.16,0.301,1.74c0.02,0.102,0.039,0.191,0.059,0.291c0.181,0.969,0.36,1.93,0.55,2.89
			c0,0.01,0.011,0.029,0.011,0.04c0.16,0.81,0.329,1.619,0.499,2.42c0.171,0.819,0.351,1.64,0.541,2.46
			c0.189,0.81,0.379,1.631,0.57,2.44c0.4,1.62,0.809,3.24,1.25,4.85c0.079,0.3,0.159,0.609,0.24,0.91
			c3.899,14.209,9.06,26.37,14.11,36.229c0.37,0.74,0.749,1.481,1.14,2.22c0.359,0.69,0.72,1.38,1.09,2.061
			c0.28,0.52,0.56,1.029,0.84,1.54c49.28,22.489,136.42,54.62,249.22,56.681c125.219,2.299,221.55-33.541,272.27-56.681
			c0.23-0.58,0.439-1.18,0.649-1.771c0.261-0.72,0.511-1.439,0.761-2.17c0.23-0.68,0.461-1.36,0.681-2.04
			c0.12-0.39,0.249-0.78,0.37-1.17c0.259-0.82,0.509-1.64,0.75-2.46c0.028-0.1,0.06-0.19,0.09-0.29
			c0.229-0.79,0.46-1.57,0.669-2.359c0.26-0.94,0.511-1.88,0.751-2.82c0.239-0.949,0.47-1.9,0.689-2.85
			c0.23-0.95,0.439-1.911,0.641-2.87c0.148-0.69,0.29-1.381,0.42-2.069c0.029-0.131,0.05-0.271,0.08-0.401
			c0.06-0.26,0.109-0.53,0.16-0.8c0.149-0.81,0.299-1.63,0.439-2.45c0.01-0.07,0.021-0.139,0.03-0.2
			c0.16-0.939,0.309-1.88,0.45-2.818c8.299-41.191,19.729-65.15,19.729-126.681c2.001-40.771-32.38-117.951-32.38-117.951
			c-0.688-1.229-1.38-2.449-2.09-3.649c-0.7-1.21-1.409-2.41-2.129-3.601c-0.71-1.189-1.44-2.379-2.17-3.549
			c-0.72-1.171-1.461-2.33-2.2-3.48c-0.75-1.16-1.491-2.301-2.25-3.43c-0.63-0.95-1.26-1.89-1.9-2.83
			c-0.511-0.74-1.02-1.48-1.529-2.211c-0.57-0.83-1.151-1.649-1.74-2.47c-0.581-0.819-1.16-1.63-1.75-2.439
			c-1.57-2.15-3.151-4.261-4.761-6.33c-0.8-1.04-1.61-2.07-2.409-3.079c-1.62-2.031-3.251-4.031-4.891-5.98
			c-0.819-0.98-1.64-1.951-2.47-2.9c-0.819-0.95-1.65-1.9-2.479-2.83c-0.83-0.94-1.66-1.86-2.491-2.779
			c-2.429-2.699-48.97-41.971-48.97-41.971c-1.3-1.01-2.59-2.039-3.859-3.109c-34.614-28.994-61.442-79.936-148.216-79.935
			C342.885,47.116,336.064,47.4,328.884,48"/>
	</defs>
	<clipPath id="SVGID_8_">
		<use xlink:href="#SVGID_7_"  overflow="visible"/>
	</clipPath>
	<path clip-path="url(#SVGID_8_)" fill="#E3F4FF" d="M620.054,341.641c0,61.529-11.43,85.489-19.729,126.68
		c-0.141,0.939-0.29,1.88-0.45,2.819c-0.011,0.061-0.021,0.131-0.03,0.2c-0.14,0.82-0.29,1.641-0.44,2.45
		c-0.05,0.271-0.1,0.54-0.159,0.8c-0.03,0.13-0.051,0.271-0.08,0.4c-0.13,0.689-0.271,1.38-0.42,2.07
		c-0.2,0.96-0.41,1.92-0.641,2.869c-0.22,0.95-0.45,1.9-0.689,2.851c-0.24,0.939-0.49,1.88-0.75,2.819
		c-0.21,0.79-0.44,1.57-0.67,2.36c-0.03,0.101-0.061,0.19-0.091,0.29c-0.239,0.82-0.489,1.64-0.75,2.46
		c-0.119,0.39-0.25,0.78-0.369,1.17c-0.221,0.681-0.45,1.36-0.681,2.04c-0.25,0.73-0.5,1.45-0.76,2.17
		c-0.21,0.59-0.42,1.19-0.65,1.771c-50.72,23.14-147.05,58.979-272.27,56.68c-112.8-2.06-199.94-34.19-249.22-56.68
		c-0.28-0.511-0.56-1.021-0.84-1.54c-0.37-0.681-0.73-1.37-1.09-2.061c-0.39-0.739-0.77-1.479-1.14-2.22
		c-6.01-11.87-10.86-24.27-14.35-37.14c-0.44-1.61-0.85-3.23-1.25-4.851c-0.19-0.81-0.38-1.63-0.57-2.439
		c-0.19-0.82-0.37-1.641-0.54-2.46c-0.17-0.801-0.34-1.61-0.5-2.42c0-0.011-0.01-0.03-0.01-0.04c-0.19-0.96-0.37-1.92-0.55-2.891
		c-0.02-0.1-0.04-0.189-0.06-0.29c-0.1-0.58-0.2-1.16-0.3-1.739c-0.11-0.62-0.21-1.25-0.31-1.881c-0.1-0.63-0.2-1.26-0.29-1.88
		c-0.1-0.64-0.19-1.27-0.27-1.899c-0.09-0.63-0.18-1.261-0.26-1.9c-0.12-0.93-0.23-1.87-0.34-2.82c-0.09-0.829-0.18-1.659-0.26-2.5
		c-0.16-1.609-0.3-3.22-0.41-4.84c0-0.06-0.01-0.13-0.01-0.189c-0.1-1.34-0.18-2.681-0.24-4.021c-0.02-0.31-0.03-0.62-0.04-0.939
		c-0.03-0.61-0.05-1.221-0.07-1.84c-0.03-1-0.05-2-0.07-3.011c-0.02-0.979-0.03-1.96-0.03-2.939c0-2.75,0.06-5.521,0.19-8.3
		c23.9-17.931,29.9,4.52,51.69-12.04c16.13-13.91,43.91-21.931,43.91-21.931c-17.32-13.779-53.47-31.91-85.41,4.2
		c27.39-54.819,34.58-17.649,64.93-36.851c9-10.189,13.91-11.75,30.89-8.869c35.68,7.699,20.63-41.94,51.771-37.11
		c0,0-6.36-7.479-23.33-7.6c-16.98-0.11-19.94,16.69-38.85,11.88c-12.25-3.12-29.22-2.45-46,1.24c-4.82,1.05-9.63,2.359-14.31,3.899
		c19.13-42.53,72.15-48.3,86.98-84.95c11.17-27.76,22.22-59.539,38.74-87.22c-0.01-0.01,0-0.01,0-0.01
		c5.41-9.06,11.41-17.681,18.19-25.57c22.48-26.31,53.96-45.85,102.09-49.88c103.29-8.62,131.5,47.891,168.7,79.051
		c1.27,1.069,2.56,2.1,3.859,3.109c-2.819,5.71-4.46,12.46-4.46,19.7c0,20.63,13.271,37.36,29.63,37.36
		c9.75,0,18.4-5.931,23.801-15.091c0.83,0.921,1.66,1.841,2.489,2.78c0.83,0.93,1.66,1.88,2.48,2.83c0.83,0.949,1.65,1.92,2.47,2.9
		c1.641,1.949,3.271,3.949,4.891,5.979c0.8,1.01,1.609,2.04,2.409,3.08c1.601,2.069,3.19,4.18,4.761,6.33
		c0.59,0.81,1.17,1.62,1.75,2.44c0.59,0.819,1.17,1.64,1.739,2.469c0.511,0.73,1.021,1.471,1.53,2.211
		c0.641,0.939,1.271,1.88,1.9,2.83c1.51,2.26,2.99,4.57,4.45,6.91c0.729,1.17,1.46,2.359,2.17,3.549
		c0.72,1.19,1.43,2.391,2.13,3.601c0.71,1.2,1.399,2.42,2.09,3.649c-0.2,0.051-0.39,0.101-0.59,0.16
		c-16.181,4.66-23.04,23.641-31.38,32.36c-8.311,8.729-24.051,11.54-24.051,11.54s10.421,16.54,32.83,18.641
		c10.53,0.989,19.57-2.951,27.341-7.721c-6.04,10.971-4.41,18.53-12.671,28.36c-9.649,11.479-24.029,15.479-36.359,35.43
		c-12.34,19.96-9.91,41.13-9.91,41.13c3.4-3.46,8.28-8.069,14.59-12.99c5.53-4.33,16.311-12.629,30.63-18.35
		c12.431-4.96,22.431-5.939,25.67-6.42c4.91-0.71,10.44-2.609,16.261-5.46C620.044,340.79,620.054,341.221,620.054,341.641"/>
	<path clip-path="url(#SVGID_8_)" fill="#FFFFFF" d="M550.416,172.134c-5.405,9.155-14.057,15.084-23.797,15.084
		c-16.369,0-29.634-16.728-29.634-37.36c0-7.233,1.634-13.984,4.46-19.697C501.445,130.16,547.98,169.432,550.416,172.134"/>
	<path clip-path="url(#SVGID_8_)" fill="#FFFFFF" d="M205.378,286.208c-31.144-4.829-16.091,44.81-51.776,37.114
		c-16.975-2.877-21.886-1.326-30.887,8.867c-30.353,19.203-37.545-17.971-64.929,36.847c31.935-36.106,68.083-17.971,85.407-4.192
		c0,0-27.784,8.015-43.905,21.928c-21.794,16.563-27.795-5.889-51.695,12.042c0,0,0.946-12.022,4.224-28.524
		c4.572-22.975,13.665-54.652,31.071-74.658c4.676-1.541,9.484-2.847,14.303-3.904c16.78-3.689,33.754-4.357,46.002-1.233
		c18.906,4.81,21.876-11.991,38.85-11.878C199.018,278.729,205.378,286.208,205.378,286.208"/>
	<path clip-path="url(#SVGID_8_)" fill="#FFFFFF" d="M620.051,341.643c0-0.422-0.011-0.854-0.021-1.274
		c-5.814,2.856-11.343,4.747-16.255,5.466c-3.237,0.473-13.244,1.459-25.667,6.412c-14.323,5.723-25.102,14.025-30.63,18.352
		c-6.31,4.922-11.19,9.535-14.591,12.987c0,0-2.436-21.167,9.905-41.12c12.33-19.955,26.716-23.951,36.363-35.439
		c8.261-9.823,6.627-17.385,12.669-28.359c-7.768,4.778-16.81,8.713-27.342,7.728c-22.41-2.107-32.829-18.64-32.829-18.64
		s15.742-2.815,24.054-11.539c8.333-8.724,15.197-27.701,31.381-32.367c0.195-0.062,0.391-0.112,0.586-0.153
		C587.674,223.694,622.055,300.87,620.051,341.643"/>
	<path clip-path="url(#SVGID_8_)" fill="#BDDEEF" d="M283.336,348.848c0,27.853-17.915,50.432-40.015,50.432
		c-22.099,0-40.015-22.579-40.015-50.432c0-27.854,17.916-50.432,40.015-50.432C265.421,298.416,283.336,320.994,283.336,348.848"/>
	<path clip-path="url(#SVGID_8_)" fill="#BDDEEF" d="M508.906,269.478c0,10.112-6.504,18.31-14.528,18.31
		c-8.022,0-14.526-8.197-14.526-18.31s6.504-18.31,14.526-18.31C502.402,251.168,508.906,259.365,508.906,269.478"/>
	<path clip-path="url(#SVGID_8_)" fill="#BDDEEF" d="M185.115,223.162c0,1.513-0.973,2.74-2.174,2.74
		c-1.201,0-2.174-1.228-2.174-2.74c0-1.514,0.973-2.74,2.174-2.74C184.142,220.422,185.115,221.648,185.115,223.162"/>
	<path clip-path="url(#SVGID_8_)" fill="#BDDEEF" d="M203.364,228.341c0,1.513-0.973,2.739-2.174,2.739
		c-1.201,0-2.174-1.227-2.174-2.739s0.973-2.74,2.174-2.74C202.391,225.601,203.364,226.828,203.364,228.341"/>
	<path clip-path="url(#SVGID_8_)" fill="#BDDEEF" d="M264.353,146.489c0,1.513-0.973,2.74-2.174,2.74
		c-1.201,0-2.174-1.228-2.174-2.74s0.973-2.739,2.174-2.739C263.379,143.75,264.353,144.977,264.353,146.489"/>
	<path clip-path="url(#SVGID_8_)" fill="#BDDEEF" d="M548.888,389.432c0,1.513-0.973,2.74-2.174,2.74s-2.174-1.228-2.174-2.74
		s0.973-2.74,2.174-2.74S548.888,387.919,548.888,389.432"/>
	<path clip-path="url(#SVGID_8_)" fill="#BDDEEF" d="M556.291,382.01c0,1.514-0.973,2.74-2.174,2.74s-2.174-1.227-2.174-2.74
		c0-1.513,0.973-2.74,2.174-2.74S556.291,380.497,556.291,382.01"/>
	<path clip-path="url(#SVGID_8_)" fill="#BDDEEF" d="M199.016,214.271c0,2.437-1.568,4.412-3.501,4.412
		c-1.934,0-3.502-1.976-3.502-4.412c0-2.438,1.568-4.414,3.502-4.414C197.448,209.857,199.016,211.834,199.016,214.271"/>
	
		<ellipse clip-path="url(#SVGID_8_)" fill="none" stroke="#FFFFFF" stroke-width="1.557" stroke-miterlimit="10" cx="187.478" cy="376.863" rx="4.536" ry="5.717"/>
	
		<ellipse clip-path="url(#SVGID_8_)" fill="none" stroke="#FFFFFF" stroke-width="1.557" stroke-miterlimit="10" cx="443.886" cy="133.041" rx="4.536" ry="5.717"/>
	
		<ellipse clip-path="url(#SVGID_8_)" fill="none" stroke="#FFFFFF" stroke-width="1.557" stroke-miterlimit="10" cx="221.308" cy="114.746" rx="14.464" ry="18.23"/>
	
		<ellipse clip-path="url(#SVGID_8_)" fill="none" stroke="#FFFFFF" stroke-width="1.557" stroke-miterlimit="10" cx="102.673" cy="440.079" rx="29.637" ry="37.354"/>
	<path clip-path="url(#SVGID_8_)" fill="#B78E70" d="M276.037,368.582c1.343-9.27,10.069-28.077,11.157-29.918
		c0.51-0.865,1.043-1.909,1.666-3.391c0,0,3.012-7.166,7.848-12.961c0.059-0.07,0.249-0.201,0.481-0.379
		c0.624-0.481,1.522-0.348,1.983,0.291c0.346,0.478,0.597,0.944,0.781,1.381c1.762,4.162-0.64,9.944-5.733,14.815
		c-0.087,0.083-0.163,0.177-0.224,0.279C288.01,348.661,282.024,358.622,276.037,368.582"/>
	<path clip-path="url(#SVGID_8_)" fill="#C49976" d="M279.831,359.658c-0.869-0.643,3.554-8.217,11.718-22.195
		c0.121-0.207,2.264-3.529,6.55-10.174c2.416-3.746,4.616-7.097,8.625-10.287c0.126-0.102,0.249-0.197,0.367-0.289
		c0.684-0.527,1.69-0.389,2.182,0.32c0.302,0.436,0.527,0.861,0.696,1.26c1.77,4.183-0.663,10-5.806,14.887
		c-0.039,0.037-0.077,0.076-0.111,0.119C285.793,355.396,280.607,360.233,279.831,359.658"/>
	<path clip-path="url(#SVGID_8_)" fill="#CCA279" d="M261.75,397.972c2.562-2.45,6.258-6.508,9.186-12.322
		c4.434-8.804,3.065-13.612,6.618-23.162c3.285-8.829,8.096-14.54,11.79-18.891c4.153-4.89,11.12-12.913,22.896-17.835
		c1.071-0.448,2.092-0.833,3.046-1.163c1.88-0.651,3.57,1.364,2.6,3.103c-0.74,1.325-1.692,2.676-2.927,3.944
		c-3.239,3.33-5.436,3.022-9.503,6.865c-1.456,1.376-4.128,3.952-5.855,8.215c-0.563,1.39-2.028,5.134-1.437,9.952
		c0.189,1.546,0.542,2.808,0.839,3.691c3.213-3.164,5.326-6.05,6.662-8.1c1.335-2.049,1.948-3.768,4.008-6.835
		c2.232-3.325,3.785-5.638,4.901-5.338c1.347,0.362,1.822,4.472,1.128,7.948c-0.742,3.722-2.432,4.748-5.166,10.42
		c-0.545,1.132-1.22,2.845-2.546,6.223c-5.551,14.135-6.169,15.713-6.537,16.401c-0.046,0.085-0.076,0.136-0.119,0.211
		c-3.22,5.665-7.541,8.65-8.487,9.371c-2.632,2.007-6.097,7.035-9.364,20.702C276.238,406.906,268.994,402.438,261.75,397.972"/>
	<path clip-path="url(#SVGID_8_)" fill="#2256AA" d="M181.574,290.158c1.596-0.935,5.631-3.001,10.97-2.59
		c8.297,0.641,13.065,6.751,13.833,7.77c-0.653,2.927-1.305,5.854-1.958,8.78c-8.022-1.327-16.044-2.653-24.066-3.979
		C180.76,296.812,181.167,293.485,181.574,290.158"/>
	<path clip-path="url(#SVGID_8_)" fill="#5190B7" d="M274.04,592.872c-46.185,0.704-92.369,1.409-138.553,2.114
		c-0.971-32.775-2.09-61.903-3.173-86.728c-0.652-14.924-1.143-24.912-3.702-38.604c-4.196-22.446-9.12-29.081-12.428-46.802
		c-2.2-11.787-5.629-30.158-0.145-51.035c0,0,11.352-37.872,61.275-71.172c0.417-0.278,0.87-0.522,1.34-0.731
		c0.591-0.26,1.199-0.486,1.826-0.694c0.765-0.261,1.565-0.505,2.33-0.783l0.018,0.017c0.017,0.019,0.034,0.035,0.052,0.035
		c0.974,0.905,1.913,1.74,2.818,2.541c7.374,6.451,13.079,10.209,17.462,12.122c4.261,1.861,7.288,2,9.445,1.165
		c0.104-0.035,0.208-0.087,0.295-0.121c0.313-0.14,0.609-0.297,0.887-0.471c0.279-0.173,0.522-0.365,0.765-0.591
		c1.166-1.009,1.931-2.4,2.418-3.845c1.026-3.043,0.887-6.365,0.818-7.131v-0.035c0.017,0.019,0.052,0.035,0.069,0.054
		c0.104,0.069,0.191,0.139,0.296,0.226c0.017-0.018,0.035,0.018,0.035,0.018c2.034,1.426,4.035,3.078,5.983,4.922
		c0.278,0.261,0.539,0.521,0.8,0.783c0.591,0.574,1.183,1.183,1.756,1.791c2.575,2.73,5.062,5.81,7.427,9.254
		c13.01,18.783,23.22,48.403,30.403,89.694c1.148,6.645,2.226,13.584,3.235,20.837c0.661,4.817,1.253,13.149,1.775,23.028
		c0.434,8.592,0.817,18.349,1.13,27.95c0.017,0.418,0.017,0.818,0.035,1.235c0.134,3.23,0.209,7.462,0.312,11.636
		c0.053,2.129,0.088,3.666,0.094,3.939C271.247,502.199,272.059,529.141,274.04,592.872"/>
	<path clip-path="url(#SVGID_8_)" fill="#4080A0" d="M264.303,385.042c9.166,4.936,18.333,9.871,27.499,14.807
		c-20.447,64.148-49.981,107.64-71.108,112.412c-9.686,2.188-19.085,1.499-19.085,1.499s-17.273-1.386-34.749-12.989
		c-43.299-28.749-70.619-112.228-42.53-142.12c6.339-6.744,22.103-16.82,38.697-13.777c10.147,1.861,16.802,7.931,18.315,9.371
		c10.906,10.373,12.198,25.08,13.138,32.113c6.264,24.416,12.527,48.833,18.791,73.249
		C230.282,434.752,247.292,409.896,264.303,385.042"/>
	<path clip-path="url(#SVGID_8_)" fill="#5190B7" d="M191.091,289.316c4.257,0.369,10.744,1.459,17.855,4.885
		c9.134,4.4,14.846,10.51,17.77,14.148c0.04,2.947,0.23,16.75,0.751,20.217c-2.843-3.866-13.087-15.055-19.383-19.76
		c-7.953-5.945-15.688-8.887-20.867-10.395C188.508,295.381,189.8,292.348,191.091,289.316"/>
	<path clip-path="url(#SVGID_8_)" fill="none" stroke="#4C6580" stroke-width="1.739" stroke-miterlimit="10" d="M191.091,289.316
		c4.257,0.369,10.744,1.459,17.855,4.885c9.134,4.4,14.846,10.51,17.77,14.148c0.04,2.947,0.23,16.75,0.751,20.217
		c-2.843-3.866-13.087-15.055-19.383-19.76c-7.953-5.945-15.688-8.887-20.867-10.395C188.508,295.381,189.8,292.348,191.091,289.316
		z"/>
	<path clip-path="url(#SVGID_8_)" fill="#BC956B" d="M224.067,346.944c-17.707-50.551-41.287-30.608-41.806-64.803
		c-0.054-3.94,0.195-8.604,0.788-14.176c19.586,2.245,34.745,7.838,36.354,14.543c0.14,0.583,0.637,3.099,0.885,6.349
		c0.465,6.014-0.248,10.494-0.388,11.51c-0.303,2.191-0.368,6.014,0.151,12.838C220.59,320.481,221.8,331.182,224.067,346.944"/>
	<path clip-path="url(#SVGID_8_)" fill="#987957" d="M220.05,313.204c-1.296,0.281-2.699,0.421-4.211,0.347
		c-5.722-0.304-9.847-3.726-14.079-7.828c-4.988-4.838-12.017-12.449-19.499-23.582c-0.054-3.94,0.194-8.604,0.788-14.176
		c19.586,2.246,34.744,7.838,36.353,14.543c0.141,0.584,0.637,3.1,0.885,6.35c0.465,6.014-0.248,10.494-0.388,11.509
		C219.597,302.559,219.532,306.381,220.05,313.204"/>
	<path clip-path="url(#SVGID_8_)" fill="#5190B7" d="M181.574,290.158c0,0,14.285,18.786,35.305,25.773l-1.412,20.908
		c0,0-36.885-29.246-36.863-36.742L181.574,290.158z"/>
	<path clip-path="url(#SVGID_8_)" fill="#4C6580" d="M216.879,315.932c-0.079,7.359-0.394,15.008-0.745,22.353l-1.123-0.868
		c-8.007-6.281-35.355-28.17-36.407-37.318c0.217,1.638,1.308,2.977,2.254,4.266c1.68,2.139,3.603,4.072,5.524,5.998
		c6.235,6.105,12.874,11.797,19.5,17.477c3.334,2.824,6.671,5.654,10.04,8.429l-1.187,0.524
		C215.336,329.944,216.026,322.76,216.879,315.932"/>
	<path clip-path="url(#SVGID_8_)" fill="#4C6580" d="M215.929,328.023c0.077,1.006,0.321,2.676,0.327,3.404
		c3.048,5.008,5.798,10.21,8.206,15.57c4.824,10.719,8.385,22.02,10.612,33.561c1.092,5.774,1.873,11.606,2.233,17.462l-0.35-0.176
		c1.462-0.792,2.933-1.565,4.413-2.326c-1.479,0.99-2.969,1.962-4.471,2.915c-2.559-17.441-7.039-34.568-13.731-50.881
		c-2.209-5.394-4.609-10.719-7.215-15.958C215.874,330.419,215.949,329.21,215.929,328.023"/>
	<path clip-path="url(#SVGID_8_)" fill="#4C6580" d="M239.772,387.41c0.097,1.022-0.275,1.895-0.83,1.947
		c-0.555,0.052-1.084-0.734-1.181-1.756c-0.097-1.023,0.274-1.895,0.83-1.947C239.146,385.602,239.675,386.389,239.772,387.41"/>
	<path clip-path="url(#SVGID_8_)" fill="#4C6580" d="M237.98,374.723c0.201,1.007-0.079,1.911-0.626,2.021
		c-0.547,0.109-1.154-0.619-1.355-1.626c-0.201-1.007,0.079-1.912,0.626-2.021C237.173,372.987,237.78,373.715,237.98,374.723"/>
	<path clip-path="url(#SVGID_8_)" fill="#4C6580" d="M235.039,362.836c0.201,1.008-0.079,1.912-0.626,2.021
		s-1.154-0.618-1.355-1.625c-0.201-1.008,0.079-1.912,0.626-2.021S234.838,361.829,235.039,362.836"/>
	<path clip-path="url(#SVGID_8_)" fill="#4C6580" d="M229.043,348.578c0.201,1.008-0.079,1.912-0.626,2.022
		c-0.547,0.108-1.154-0.619-1.355-1.626c-0.201-1.008,0.079-1.912,0.626-2.021S228.843,347.571,229.043,348.578"/>
	<path clip-path="url(#SVGID_8_)" fill="#4C6580" d="M225.053,335.09c0.201,1.007-0.079,1.912-0.626,2.021
		c-0.547,0.109-1.154-0.619-1.355-1.625c-0.201-1.008,0.079-1.912,0.626-2.021C224.245,333.354,224.852,334.083,225.053,335.09"/>
	<path clip-path="url(#SVGID_8_)" fill="#4080A0" d="M286.076,568.266c-6.236,0-9.438-2.694-15.673-2.694
		c-0.305-11.488,0.267-84.891,0.293-84.891c0.017-0.001,0.084,4.538,0.126,4.538c0.031-0.001,0.167-2.396-0.335-5.386
		c-0.072-0.427-0.14-0.738-0.156-0.84c-0.887-5.774-2.104-14.731-3.044-25.846c-0.417-5.079-0.608-8.523-0.747-10.559
		c-1.2-19.201-4.714-37.446-5.67-43.568c-1.531-9.879-4.001-25.22-10.401-43.03c-4.036-11.254-10.123-24.82-19.55-39.326
		c1.026,0.766,2.104,1.6,3.235,2.506c4.157,3.373,8.957,7.791,13.793,13.409c1.495,1.739,6.557,7.74,11.983,17.027
		c7.323,12.541,10.993,23.689,12.923,30.264c2.056,6.996,3.317,12.808,4.142,17.961c2.415,15.101,2.796,21.244,4.989,41.61
		c0.442,4.101,7.402,58.672,6.485,90.677C288.184,540.09,285.702,565.334,286.076,568.266"/>
	<path clip-path="url(#SVGID_8_)" fill="#BC956B" d="M205.801,301.555c2.692,1.267,8.043,3.296,14.479,2.296
		c4.43-0.689,8.992-2.804,14.643-8.112c12.813-12.035,17.581-27.693,21.371-40.652c1.148-3.925,3.947-14.084,5.32-27.716
		c0.908-9.015,1.154-15.207,1.151-20.063c-0.004-5.821-0.105-8.306-0.281-10.007c-0.082-0.791-1.114-10.42-3.392-14.989
		c-4.934-9.903-22.953-10.586-45.27-11.187c-8.567-0.229-20.923-0.162-35.915,1.364c-2.742,2.468-6.235,6.431-7.433,11.981
		c-1.021,4.736,0.389,7.104-0.349,11.365c-1.329,7.676-7.876,11.395-10.714,14.467C143.58,227.439,181.896,290.301,205.801,301.555"
		/>
	<path clip-path="url(#SVGID_8_)" fill="#111010" d="M168.741,246.533c-3.573-4.104-7.153-8.241-10.738-12.409
		c-2.461-2.862-4.908-5.718-7.341-8.57c-3.653-4.282-6.218-9.442-7.067-15.008c-0.073-0.479-0.136-0.968-0.188-1.467
		c-0.518-4.985,0.326-8.726,1.383-13.416c1.619-7.181,4.093-12.203,5.58-15.173c3.275-6.543,6.035-9.622,7.338-10.978
		c4.195-4.36,6.78-4.847,8.144-4.926c2.217-0.128,4.034,0.66,5.105,1.251c1.027-2.936,3.395-8.411,8.681-13.249
		c6.176-5.653,12.836-7.233,15.343-7.796c7.637-1.713,16.298,0.854,33.62,5.988c8.141,2.412,12.041,3.965,16.225,6.76
		c7.674,5.127,10.418,10.502,11.13,11.992c0.945,1.98,1.476,3.746,1.785,5.006c2.085,1.439,5.371,4.111,7.974,8.449
		c3.535,5.89,3.809,11.52,3.925,14.658c0.017,0.469,0.025,0.95,0.011,1.487c-0.207,7.531-2.318,13.086-4.029,18.093
		c-3.226,9.437-4.221,15.821-4.67,15.726c-0.628-0.136,2.585-12.376,0.059-20.438c-0.192-0.612-0.973-3.153-2.052-6.806
		c-0.402-1.361-0.855-3.028-1.381-5.235c-1.434-6.022-1.969-10.049-2.239-12.688c-0.293-2.861-0.399-5.287-0.435-7.076
		c-2.374,1.15-6.085,2.727-10.814,3.799c-9.004,2.04-16.304,1.027-37.17-3.036c-8.299-1.616-15.588-3.099-21.616-4.354
		c1.234,3.678,4.359,14.57,0.296,27.539c-4.313,13.766-13.97,21.088-17.065,23.248C168.604,234.113,168.672,240.324,168.741,246.533
		"/>
	<path clip-path="url(#SVGID_8_)" fill="#111010" d="M163.997,257.831c0.744,2.185,2.215,5.588,5.155,8.946
		c3.919,4.477,8.386,6.52,10.725,7.396c-1.861-2.365-3.84-5.184-5.746-8.471c-2.325-4.01-4.003-7.789-5.225-11.072
		C167.269,255.697,165.633,256.764,163.997,257.831"/>
	<path clip-path="url(#SVGID_8_)" fill="#484443" d="M239.722,167.104c-1.75,0.004-3.658-0.082-5.696-0.306
		c-3.957-0.432-7.4-1.272-10.238-2.186c1.595,2.181,3.993,4.933,7.436,7.454c1.866,1.365,3.67,2.394,5.27,3.17
		c-5.363,0.593-12.294,0.853-20.262-0.146c-6.827-0.857-12.643-2.415-17.248-3.992c4.848,2.993,14.758,8.211,28.357,9.198
		c11.675,0.849,20.944-1.792,26.112-3.692c-3.71-0.65-8.113-1.746-12.881-3.629c-2.942-1.16-5.55-2.435-7.818-3.693
		c1.586,0.417,4.436,0.945,7.911,0.349c3.076-0.528,5.364-1.718,6.703-2.55C244.819,167.088,242.271,167.096,239.722,167.104"/>
	<path clip-path="url(#SVGID_8_)" fill="#484443" d="M176.277,187.541c0.27,3.344,0.258,8.469-1.506,14.331
		c-2.649,8.808-7.796,14.448-10.531,17.058c1.876-0.776,8.156-3.648,11.803-10.719C181.105,198.4,176.841,188.76,176.277,187.541"/>
	<path clip-path="url(#SVGID_8_)" fill="#484443" d="M169.077,199.627c-0.92,2.502-2.342,5.642-4.568,8.963
		c-2.542,3.793-5.285,6.557-7.471,8.449c1.421-0.33,5.372-1.446,8.491-5.141C169.861,206.769,169.207,200.677,169.077,199.627"/>
	<path clip-path="url(#SVGID_8_)" fill="#484443" d="M260.744,195.104c0.008,1.213,0.059,3,0.27,5.156
		c0.236,2.4,0.582,4.271,1.263,7.917c0.262,1.405,0.631,3.312,1.104,5.577c0.181-2.831,0.209-5.215,0.193-6.993
		c-0.046-5.293-0.502-7.098-1.108-8.575C261.897,196.798,261.217,195.755,260.744,195.104"/>
	<path clip-path="url(#SVGID_8_)" fill="#FFFFFF" d="M199.395,242.547c1.988,0.016,3.997,0.314,5.93,0.548
		c1.446,0.252,2.912,0.527,4.361,0.896c8.333-1.711,10.553-10.449,10.553-10.449c-0.448-0.151-1.936-0.348-3.984-0.579
		c-4.008-0.456-10.172-1.013-14.974-1.408c-4.036-0.347-7.117-0.596-7.117-0.596S192.846,238.926,199.395,242.547"/>
	<path clip-path="url(#SVGID_8_)" fill="#3F2E20" d="M207.375,240.66c0.381,0.067,0.768,0.105,1.148,0.116
		c0.071-0.005,0.128-0.006,0.19,0.007c0.027-0.009,0.057-0.002,0.084-0.01c0.115-0.003,0.217-0.002,0.315-0.015
		c0.084-0.009,0.159,0,0.23-0.005c3.349-0.303,6.193-2.799,6.798-6.268c0.089-0.518,0.124-1.02,0.115-1.525
		c-4.008-0.455-10.172-1.012-14.974-1.407c-0.006,0.03-0.016,0.048-0.022,0.079c-0.022,0.078-0.04,0.17-0.058,0.262
		c-0.012,0.061-0.028,0.109-0.026,0.166C200.561,236.127,203.299,239.961,207.375,240.66"/>
	<path clip-path="url(#SVGID_8_)" fill="#FFFFFF" d="M240.419,244.009c1.66,0.005,3.332,0.228,4.942,0.418
		c1.168,0.197,2.336,0.394,3.494,0.679c0.012-0.021,0.012-0.021,0.016-0.005c7.427-1.42,9.328-9.196,9.328-9.196
		c-0.468-0.141-2.239-0.354-4.613-0.582c-3.803-0.383-9.121-0.797-13.001-1.092c-2.921-0.227-5.033-0.375-5.033-0.375
		S234.424,240.984,240.419,244.009"/>
	<path clip-path="url(#SVGID_8_)" fill="#3F2E20" d="M247.169,241.893c0.339-0.011,0.668-0.054,0.994-0.112
		c0.067-0.003,0.115-0.017,0.162-0.029c0.032-0.009,0.048-0.014,0.084-0.007l0.443-0.126c2.731-0.798,4.71-3.329,4.735-6.295
		c-3.804-0.386-9.121-0.798-13.002-1.093c-0.043,0.029-0.074,0.039-0.101,0.063c-0.045,0.32-0.079,0.621-0.073,0.944
		c-0.009,0.088-0.007,0.156,0,0.238c-0.002,0.053-0.004,0.104,0.009,0.152C240.582,239.191,243.584,241.977,247.169,241.893"/>
	<path clip-path="url(#SVGID_8_)" fill="#987957" d="M230.254,230.819c1.195,5.794,2.954,11.479,5.142,16.978
		c1.346,3.475,3.561,7.066,2.391,10.812c-1.069,3.556-4.585,6.255-8.361,6.177c-1.902,0.016-3.818-0.598-5.505-1.6
		c1.519,1.262,3.448,2.053,5.475,2.27c6.65,0.634,11.925-6.455,9.475-12.652C235.875,245.457,232.778,238.347,230.254,230.819"/>
	<path clip-path="url(#SVGID_8_)" d="M230.188,271.622c5.588,1.841,11.905,1.69,17.248-0.425c-2.779,0.408-5.579,0.341-8.196-0.176
		c-2.62-0.51-5.053-1.472-7.154-2.759c-0.968-0.593-2.294-0.373-2.962,0.49C228.316,269.763,228.872,271.242,230.188,271.622"/>
	<path clip-path="url(#SVGID_8_)" d="M221.845,268.229c-5.514,3.324-13.239,6.119-20.005,5.621
		c6.754,1.953,15.384,0.426,22.449-2.055C227.974,270.381,225.232,266.371,221.845,268.229"/>
	<path clip-path="url(#SVGID_8_)" fill="#111010" d="M218.383,209.439l-2.732,12.976c0,0-24.91-11.414-34.136,6.258
		c0,0,0.265-16.667,15.302-19.896c3.073-0.463,6.827-0.783,11.097-0.633C211.94,208.288,215.47,208.817,218.383,209.439"/>
	<path clip-path="url(#SVGID_8_)" fill="#111010" d="M233.927,212.81c0.249,3.914,0.499,7.829,0.748,11.743
		c1.874-1.126,5.245-2.816,9.755-3.287c2.969-0.311,6.782-0.708,10.524,1.552c4.507,2.722,5.885,7.468,6.231,8.841
		c0.143-1.508,0.574-7.879-3.866-13.438c-3.425-4.288-7.816-5.675-9.47-6.171C241.27,210.072,235.699,212.084,233.927,212.81"/>
	<path clip-path="url(#SVGID_8_)" fill="#652B28" d="M230.35,278.346c-0.858-0.223-7.468-1.827-13.872,1.783
		c-1.053,0.593-1.865,1.195-2.414,1.637c5.282-1.805,9.382-1.947,11.725-1.854c3.609,0.145,7.091,0.899,7.091,0.899
		c2.6,0.563,4.112,1.16,4.195,0.963C237.197,281.48,234.192,279.341,230.35,278.346"/>
	<path clip-path="url(#SVGID_8_)" fill="#987957" d="M223.334,283.082c-0.893-0.002-1.334,0.038-1.797,0.137
		c-0.679,0.146-1.564,0.453-1.537,0.64c0.022,0.149,0.618,0.157,1.583,0.196c2.152,0.09,3.228,0.134,3.955,0.262
		c2.031,0.357,3.047,0.535,3.399,0.686c0.058,0.025,0.38,0.166,0.744,0.077c0.035-0.009,0.415-0.106,0.445-0.313
		c0.01-0.07-0.012-0.217-0.375-0.451c-1.369-0.887-4.085-1.137-4.085-1.137C224.666,283.088,224.055,283.083,223.334,283.082"/>
	<path clip-path="url(#SVGID_8_)" fill="#BC956B" d="M173.476,260.087c-1.102,1.431-2.989,1.961-4.011,2.25
		c-3.702,1.043-6.887-0.414-7.743-0.806c-2.979-1.362-5.245-5.26-9.656-12.998c-1.261-2.213-2.517-4.901-5.027-10.275
		c-1.551-3.318-2.343-5.167-1.91-7.502c0.066-0.355,0.79-4.002,3.317-4.951c2.766-1.037,6.036,1.776,10.164,5.416
		c2.887,2.547,6.201,5.52,9.586,10.883C170.719,246.102,176.813,255.758,173.476,260.087"/>
	<path clip-path="url(#SVGID_8_)" fill="#2256AA" d="M514.557,311.143c-1.555-0.912-5.487-2.926-10.689-2.524
		c-8.085,0.624-12.731,6.579-13.479,7.571c0.637,2.852,1.272,5.703,1.908,8.556c7.817-1.292,15.634-2.585,23.451-3.878
		C515.35,317.626,514.954,314.384,514.557,311.143"/>
	<path clip-path="url(#SVGID_8_)" fill="#C1BC80" d="M424.453,606.122c45.006,0.688,90.01,1.374,135.015,2.062
		c0.946-31.938,2.036-60.323,3.092-84.512c0.475-10.875,0.862-19.061,2.07-28.076c0.569-4.256,1.15-7.397,1.537-9.543
		c5.265-29.277,7.109-39.416,8.093-45.013c4.674-26.616,6.954-40.134,4.159-50.324c-1.985-7.237-5.194-12.328-11.612-22.51
		c0,0-18.137-26.854-48.098-46.845c-0.407-0.271-0.849-0.509-1.306-0.712c-0.576-0.254-1.169-0.476-1.779-0.678
		c-0.745-0.255-1.525-0.491-2.271-0.763l-0.017,0.017c-0.018,0.017-0.034,0.034-0.051,0.034c-0.949,0.882-1.864,1.695-2.745,2.475
		c-7.188,6.288-12.746,9.949-17.018,11.813c-4.151,1.813-7.101,1.949-9.203,1.136c-0.101-0.033-0.203-0.084-0.288-0.118
		c-0.305-0.137-0.593-0.288-0.863-0.458c-0.272-0.169-0.51-0.356-0.746-0.576c-1.137-0.983-1.881-2.339-2.356-3.746
		c-1-2.966-0.864-6.202-0.797-6.948v-0.033c-0.017,0.016-0.05,0.033-0.067,0.05c-0.102,0.067-0.187,0.136-0.287,0.221
		c-0.018-0.017-0.034,0.017-0.034,0.017c-1.983,1.39-3.934,3-5.831,4.797c-0.271,0.254-0.525,0.509-0.78,0.763
		c-0.974,0.974-1.664,1.697-1.711,1.746c-1.491,1.565-17.559,13.075-21.62,16.479c-5.545,4.647-7.558,9.99-11.27,19.84
		c-8.619,22.871-4.728,38.203-7.126,80.405c-0.543,9.561-0.814,10.015-1.729,22.44C427.216,491.24,424.819,533.558,424.453,606.122"
		/>
	<path clip-path="url(#SVGID_8_)" fill="#B2AA5F" d="M503.79,591.53c5.512,1.148,12.837,2.106,21.428,1.689
		c10.685-0.52,19.372-2.972,25.361-5.188c-0.531-15.631-0.092-38.938,5.411-66.476c3.829-19.156,6.274-21.178,11.712-42.915
		c9.842-39.351,21.724-86.44,2.636-100.757c-9.518-7.139-22.983-3.319-26.385-2.354c-18.59,5.274-32.443,24.836-34.775,49.959
		c0.214,20.188,0.117,40.882-0.34,62.056C508.061,523.622,506.301,558.317,503.79,591.53"/>
	<path clip-path="url(#SVGID_8_)" fill="#C1BC80" d="M505.283,310.321c-4.147,0.358-10.47,1.422-17.398,4.76
		c-8.901,4.288-14.467,10.242-17.316,13.788c-0.039,2.87-0.224,16.321-0.732,19.7c2.771-3.769,12.754-14.67,18.889-19.256
		c7.75-5.793,15.288-8.659,20.334-10.128C507.801,316.23,506.541,313.276,505.283,310.321"/>
	<path clip-path="url(#SVGID_8_)" fill="none" stroke="#45515B" stroke-width="1.695" stroke-miterlimit="10" d="M505.283,310.321
		c-4.147,0.358-10.47,1.422-17.398,4.76c-8.901,4.288-14.467,10.242-17.316,13.788c-0.039,2.87-0.224,16.321-0.732,19.7
		c2.771-3.769,12.754-14.67,18.889-19.256c7.75-5.793,15.288-8.659,20.334-10.128C507.801,316.23,506.541,313.276,505.283,310.321z"
		/>
	<path clip-path="url(#SVGID_8_)" fill="#BC956B" d="M473.149,366.478c17.255-49.26,40.233-29.827,40.738-63.147
		c0.052-3.84-0.19-8.385-0.768-13.814c-19.087,2.188-33.857,7.639-35.426,14.172c-0.137,0.568-0.621,3.02-0.862,6.186
		c-0.452,5.861,0.241,10.228,0.379,11.217c0.295,2.136,0.357,5.859-0.147,12.51C476.538,340.69,475.358,351.117,473.149,366.478"/>
	<path clip-path="url(#SVGID_8_)" fill="#987957" d="M477.34,328.602c-0.019,0.777,13.048,6.067,36.351-21.146
		c0.177-3.193,0.222-6.688,0.05-10.436c-0.122-2.651-0.34-5.156-0.621-7.504c-19.085,2.188-33.856,7.639-35.425,14.172
		c-0.136,0.568-0.62,3.02-0.862,6.187c-0.34,4.403-0.032,7.962,0.199,9.88c0.088,0.73,0.102,0.669,0.18,1.336
		C477.584,324.277,477.487,326.872,477.34,328.602"/>
	<path clip-path="url(#SVGID_8_)" fill="#C1BC80" d="M514.557,311.143c0,0-13.92,18.306-34.403,25.114l1.377,20.375
		c0,0,35.941-28.501,35.921-35.805L514.557,311.143z"/>
	<path clip-path="url(#SVGID_8_)" fill="#45515B" d="M480.153,336.257c0.831,6.655,1.505,13.653,2.089,20.327l-1.155-0.512
		c3.282-2.703,6.535-5.462,9.782-8.213c6.457-5.535,12.927-11.082,19.003-17.031c2.228-2.258,4.526-4.496,6.311-7.129
		c0.553-0.884,1.171-1.793,1.269-2.873c-1.057,8.948-27.604,30.182-35.478,36.365l-1.094,0.848
		C480.537,350.884,480.229,343.428,480.153,336.257"/>
	<path clip-path="url(#SVGID_8_)" fill="#45515B" d="M481.08,348.039c-0.021,1.156,0.053,2.334-0.024,3.48
		c-2.521,5.113-4.92,10.274-7.035,15.549c-6.509,15.901-10.886,32.585-13.376,49.583c-1.463-0.929-2.915-1.876-4.356-2.84
		c1.442,0.739,2.877,1.495,4.301,2.266l-0.341,0.172c0.351-5.706,1.111-11.389,2.176-17.016
		c2.173-11.245,5.633-22.263,10.345-32.702c2.384-5.206,5.005-10.303,7.993-15.174C480.756,350.674,481.007,349.018,481.08,348.039"
		/>
	<path clip-path="url(#SVGID_8_)" fill="#45515B" d="M457.846,405.91c-0.094,0.995,0.268,1.846,0.809,1.896s1.057-0.715,1.151-1.711
		c0.094-0.996-0.269-1.846-0.81-1.897C458.455,404.147,457.939,404.914,457.846,405.91"/>
	<path clip-path="url(#SVGID_8_)" fill="#45515B" d="M459.591,393.546c-0.195,0.98,0.077,1.862,0.61,1.97
		c0.533,0.106,1.124-0.604,1.32-1.584c0.196-0.981-0.076-1.863-0.609-1.97C460.378,391.855,459.787,392.564,459.591,393.546"/>
	<path clip-path="url(#SVGID_8_)" fill="#45515B" d="M462.458,381.963c-0.196,0.981,0.077,1.863,0.61,1.971
		c0.532,0.106,1.124-0.604,1.319-1.584c0.197-0.981-0.076-1.863-0.608-1.971C463.246,380.273,462.654,380.982,462.458,381.963"/>
	<path clip-path="url(#SVGID_8_)" fill="#45515B" d="M468.3,368.069c-0.196,0.981,0.077,1.863,0.61,1.971
		c0.533,0.106,1.124-0.604,1.319-1.584c0.197-0.981-0.075-1.863-0.609-1.97C469.087,366.38,468.496,367.089,468.3,368.069"/>
	<path clip-path="url(#SVGID_8_)" fill="#45515B" d="M472.189,354.926c-0.196,0.98,0.076,1.863,0.609,1.97s1.124-0.603,1.32-1.584
		c0.197-0.981-0.076-1.863-0.609-1.97S472.385,353.944,472.189,354.926"/>
	<path clip-path="url(#SVGID_8_)" fill="#462F2E" d="M423.755,231.298c-0.546-7.087-0.526-17.413,2.418-29.362
		c3.413-13.854,9.335-24.121,13.645-30.398c3.397-0.057,6.793-0.115,10.19-0.172c5.418-3.451,10.89-7.02,16.407-10.709
		c9.472-6.332,18.566-12.678,27.29-19c-2.476,3.974-4.951,7.945-7.427,11.918c3.749-0.613,9.314-1.26,16.063-1.036
		c7.229,0.241,13.721,0.456,19.688,3.627c4.104,2.18,4.997,4.183,13.991,16.927c17.245,24.438,16.33,20.43,19.344,26.598
		c1.472,3.012,4.042,8.783,10.019,13.818c2.267,1.91,4.392,3.182,5.872,3.973c-3.973,0.23-7.945,0.461-11.918,0.69
		c0.879,1.733,2.318,3.897,4.664,5.7c7.565,5.813,17.556,2.46,18.652,2.072c-2.399,1.197-5.534,2.5-9.326,3.455
		c-3.939,0.991-7.439,1.317-10.19,1.381c1.601,0.82,4.419,2.004,8.118,2.246c4.269,0.277,7.601-0.838,9.326-1.556
		c-1.846,1.47-4.668,3.381-8.463,4.837c-3.862,1.481-7.297,1.939-9.672,2.072c1.773,2.245,4.307,4.988,7.772,7.6
		c2.544,1.916,4.987,3.307,7.081,4.318c-0.86,0.675-4.631,3.482-9.846,2.936c-3.216-0.338-5.494-1.797-6.563-2.591
		c-0.026,0.429-0.42,9.167,6.218,13.472c3.153,2.047,6.423,2.137,7.945,2.074c-0.761,1.508-2.835,5.082-7.082,7.146
		c-8.254,4.009-16.615-1.632-16.969-1.878c1.368,2.258,3.47,4.799,6.671,6.088c4.59,1.849,8.771,0.049,9.003,0.842
		c0.269,0.918-5.029,4.417-11.335,4.664c-4.919,0.191-8.815-1.66-10.946-2.915c1,0.97,2.554,2.333,4.664,3.627
		c5.627,3.449,10.311,3.403,10.298,4.404c-0.014,1.017-4.861,2.433-9.845,1.942c-6.393-0.629-10.942-4.189-13.148-6.218
		c-0.479,4.124-0.659,10.636,1.685,18.007c1.104,3.479,2.527,6.379,3.886,8.678c-2.208-0.256-7.074-1.131-11.788-4.793
		c-6.045-4.695-7.903-10.92-8.42-12.953c0.437,3.646,1.094,7.645,2.073,11.918c0.851,3.716,1.829,7.134,2.85,10.232
		c-2.176-1.013-5.388-2.621-9.067-4.922c-19.609-12.258-18.372-22.822-35.105-36.789c-3.256-2.718-19.091-15.496-42.143-18.826
		c-0.435-0.063-2.298,0.209-4.491-0.518c-4.007-1.328-7.4-5.096-8.355-9.348c-0.369-1.642-0.308-3.06-0.259-3.692
		c0.213-2.755,1.232-3.946,1.878-6.349c0.381-1.412,0.719-3.57,0.259-6.477C427.496,229.139,425.625,230.218,423.755,231.298"/>
	<path clip-path="url(#SVGID_8_)" fill="#BC956B" d="M440.204,188.779c-2.964,7.979-6.466,19.889-7.455,34.666
		c-1.557,23.276,4.005,40.434,8.946,55.168c8.637,25.754,17.68,33.612,20.874,36.157c3.532,2.815,9.334,7.314,17.52,7.828
		c9.138,0.573,15.952-4.151,24.229-10.065c12.158-8.688,19.166-18.414,24.601-26.092c4.338-6.128,9.954-14.061,14.538-25.347
		c5.161-12.707,11.769-28.976,7.082-48.086c-4.925-20.08-20.833-37.231-40.63-43.985c-2.791-0.951-16.714-5.468-34.293-1.49
		C455.984,171.975,444.215,184.199,440.204,188.779"/>
	<path clip-path="url(#SVGID_8_)" fill="#FFFFFF" d="M455.866,256.004c0,4.549-3.207,8.234-7.162,8.234
		c-3.954,0-7.161-3.686-7.161-8.234c0-4.547,3.207-8.233,7.161-8.233C452.659,247.771,455.866,251.457,455.866,256.004"/>
	<path clip-path="url(#SVGID_8_)" fill="#333333" d="M451.075,256.004c0,2.6-1.832,4.705-4.093,4.705
		c-2.26,0-4.092-2.105-4.092-4.705c0-2.599,1.832-4.704,4.092-4.704C449.243,251.3,451.075,253.405,451.075,256.004"/>
	<path clip-path="url(#SVGID_8_)" fill="#FFFFFF" d="M496.048,256.004c0,4.549-3.206,8.234-7.162,8.234
		c-3.955,0-7.162-3.686-7.162-8.234c0-4.547,3.207-8.233,7.162-8.233C492.842,247.771,496.048,251.457,496.048,256.004"/>
	<path clip-path="url(#SVGID_8_)" fill="#333333" d="M491.257,256.004c0,2.6-1.832,4.705-4.093,4.705s-4.093-2.105-4.093-4.705
		c0-2.599,1.832-4.704,4.093-4.704S491.257,253.405,491.257,256.004"/>
	<path clip-path="url(#SVGID_8_)" fill="#462F2E" d="M445.819,187.902c9.429,6.874,19.741,13.863,30.96,20.77
		c16.711,10.286,32.771,18.752,47.67,25.734c-0.189,9.561,0.784,21.043,4.534,33.421c0.797,2.632,1.669,5.136,2.591,7.513
		c0.302-5.431,1.757-15.486,9.066-23.834c2.987-3.412,7.13-8.143,13.083-7.901c5.105,0.206,8.666,3.95,9.846,5.31
		c-0.174-9.019-1.669-24.209-9.725-40.583c-4.099-8.334-15.479-31.47-41.12-41.69c-24.082-9.601-58.713-6.996-73.771,13.49
		c-8.793,11.961-9.049,27.248-8.938,38.342c0.146,14.598,3.413,26.428,6.218,34.199c-1.018-6.494-1.312-12.242-1.295-16.97
		c0.04-11.629,1.969-20.366,3.108-25.39c1.934-8.52,4.156-14.174,4.922-16.063C444.037,191.617,445.053,189.454,445.819,187.902"/>
	<path clip-path="url(#SVGID_8_)" fill="#96775F" d="M467.43,246.524c-2.205,7.008-4.846,13.813-7.577,20.61
		c-1.352,3.321-2.809,6.449-2.507,9.968c0.349,3.266,2.417,6.348,5.381,7.786c4.257,2.027,9.411,0.935,13.484-1.314
		c-5.887,5.264-16.104,5.453-19.96-2.368c-2.635-4.768-0.543-10.508,1.572-14.926C460.829,259.6,463.91,252.965,467.43,246.524"/>
	<path clip-path="url(#SVGID_8_)" fill="#652B28" d="M484.714,303.574c-6.01-1.285-12.398-1.184-18.533,0.347
		c5.898-2.271,12.405-3.224,18.881-2.653C486.68,301.452,486.318,303.875,484.714,303.574"/>
	<path clip-path="url(#SVGID_8_)" fill="#462F2E" d="M440.195,230.604v7.71c1.871-1.092,4.734-2.434,8.424-2.998
		c7.313-1.119,13.084,1.551,15.276,2.713c-0.095-2.951-0.189-5.902-0.284-8.853c-1.5-0.927-5.916-3.386-11.994-2.998
		C445.611,226.563,441.576,229.498,440.195,230.604"/>
	<path clip-path="url(#SVGID_8_)" fill="#462F2E" d="M480.459,230.604v7.71c1.872-1.092,4.735-2.434,8.425-2.998
		c7.313-1.119,13.084,1.551,15.276,2.713c-0.095-2.951-0.189-5.902-0.285-8.853c-1.5-0.927-5.916-3.386-11.993-2.998
		C485.875,226.563,481.841,229.498,480.459,230.604"/>
	<path clip-path="url(#SVGID_8_)" fill="#BC956B" d="M530.336,278.475c-3.438-3.33-1.68-9.784-0.365-14.609
		c0.829-3.047,2.673-9.482,8.523-14.854c1.745-1.604,7.763-7.129,11.762-5.207c2.181,1.05,2.909,3.904,3.335,5.572
		c0.591,2.313,0.608,4.829-0.73,9.832c-1.609,6.014-2.843,10.627-6.818,15.248c-2.172,2.526-4.685,5.449-8.766,5.905
		C536.682,280.43,532.801,280.863,530.336,278.475"/>
</g>
</svg>
