<?xml version="1.0" encoding="utf-8"?>
<!-- Generator: Adobe Illustrator 16.0.0, SVG Export Plug-In . SVG Version: 6.00 Build 0)  -->
<!DOCTYPE svg PUBLIC "-//W3C//DTD SVG 1.0//EN" "http://www.w3.org/TR/2001/REC-SVG-20010904/DTD/svg10.dtd">
<svg version="1.0" id="Layer_1" xmlns="http://www.w3.org/2000/svg" xmlns:xlink="http://www.w3.org/1999/xlink" x="0px" y="0px"
	 width="652px" height="646px" viewBox="0 0 652 646" enable-background="new 0 0 652 646" xml:space="preserve">
<g>
	<defs>
		<rect id="SVGID_1_" x="-176" y="-206" width="1000" height="1000"/>
	</defs>
	<clipPath id="SVGID_2_">
		<use xlink:href="#SVGID_1_"  overflow="visible"/>
	</clipPath>
	<g clip-path="url(#SVGID_2_)">
		<defs>
			<path id="SVGID_3_" d="M289.789,49.638c-32.451,22.03-64.29,62.48-63.341,103.35c0.271,11.649,3.091,22.439-4.019,32.77
				c-6.46,9.399-19.461,13.03-45.19,19.919c-32.66,8.741-41.37,10.991-44.14,11.761c-43.181,12.089-82.951,70.71-85.04,129.57
				c-0.5,14.11,1,48.96,33.39,89.74c5.29,7.63,11.66,13.88,18.819,18.97c5.78,4.109,11.331,7.069,16.101,9.181
				c2.42,1.069,4.629,1.909,6.57,2.578c0.3,0.111,0.59,0.211,0.88,0.302c0.11,0.229,0.219,0.46,0.329,0.679
				c7.821,16.341,17.37,31.52,28.371,45.36c43.979,55.391,111.07,89.301,183.27,90.16c76.189,0.9,147.45-35.119,192.49-94.77
				c5.789-7.65,11.139-15.69,16.01-24.101c3.14-5.4,6.079-10.959,8.799-16.65c0.111-0.229,0.221-0.45,0.33-0.679
				c10.821-4.96,21.07-11.851,29.79-20.352c2.371-2.279,4.621-4.7,6.741-7.22c12.29-14.639,17.46-31.32,19.029-41.94
				c8.18-55.369-72.271-77.209-74.039-138.979c-1.19-41.61,34.529-59.281,20.68-94.211c-0.95-2.389-11.61-28.26-34.83-36.26
				c-12.991-4.479-21.521-1.339-43.36-6.979c-6.91-1.781-14.631-4.71-23.52-9.74c-47.771-27.01-43.16-64.18-83.001-76.91
				c-7.797-2.491-15.58-3.498-23.075-3.498C317.11,31.692,291.292,48.617,289.789,49.638"/>
		</defs>
		<clipPath id="SVGID_4_">
			<use xlink:href="#SVGID_3_"  overflow="visible"/>
		</clipPath>
		
			<linearGradient id="SVGID_5_" gradientUnits="userSpaceOnUse" x1="-176" y1="794" x2="-175" y2="794" gradientTransform="matrix(561.5706 0 0 -561.5706 98884.4297 446205.0625)">
			<stop  offset="0" style="stop-color:#E3F4FF"/>
			<stop  offset="0.4118" style="stop-color:#E3F4FF"/>
			<stop  offset="0.7063" style="stop-color:#E1F3FF"/>
			<stop  offset="0.8516" style="stop-color:#D9F0FF"/>
			<stop  offset="0.9639" style="stop-color:#CCEAFF"/>
			<stop  offset="1" style="stop-color:#C6E7FF"/>
		</linearGradient>
		<rect x="47.559" y="31.69" clip-path="url(#SVGID_4_)" fill="url(#SVGID_5_)" width="569.599" height="573.188"/>
	</g>
	<g clip-path="url(#SVGID_2_)">
		<defs>
			<rect id="SVGID_6_" x="-176" y="-206" width="1000" height="1000"/>
		</defs>
		<clipPath id="SVGID_7_">
			<use xlink:href="#SVGID_6_"  overflow="visible"/>
		</clipPath>
		<path clip-path="url(#SVGID_7_)" fill="#BDDEEF" d="M583.209,447.428c-8.721,8.5-18.971,15.39-29.79,20.35
			c-0.11,0.23-0.221,0.45-0.33,0.68c-2.721,5.69-5.66,11.25-8.8,16.65c-4.87,8.41-10.221,16.45-16.011,24.1
			c-17.38,2.921-35.54,3.12-53.21,3.2c-107.52,0.46-215.04,0.94-322.55,1.41c-11-13.84-20.55-29.02-28.37-45.36
			c-0.11-0.22-0.22-0.449-0.33-0.68c-0.29-0.09-0.58-0.189-0.88-0.3c-1.94-0.67-4.15-1.51-6.57-2.58c1.61-3.65,4.19-6.88,7.51-9.1
			c7.04-4.73,16.97-4.69,23.97,0.1c-1.23-6.54,3.49-13.63,10-15.01c6.51-1.391,13.71,3.17,15.24,9.649
			c4.86-11.67,17.69-19.489,30.29-18.47c12.6,1.03,24,10.82,26.91,23.13c-1.87-13.99,10.1-28.08,24.18-28.97
			c14.09-0.89,27.56,11.11,28.78,25.17c4.09-10.36,13.71-18.35,24.65-20.45c10.94-2.109,22.851,1.74,30.49,9.84
			c2.65-11.76,12.77-21.489,24.63-23.68c11.86-2.189,24.78,3.29,31.46,13.33c4.33-12.8,17.7-21.94,31.2-21.32
			s25.97,10.94,29.12,24.08c7.58-9.59,20.55-14.6,32.609-12.609c12.061,1.989,22.721,10.909,26.82,22.43
			c5.62-7.88,15.33-12.66,25-12.3c9.67,0.37,19,5.85,24.01,14.13C569.438,441.138,577.658,442.747,583.209,447.428"/>
		<path clip-path="url(#SVGID_7_)" fill="#99CCE0" d="M553.088,468.458c-2.72,5.689-5.659,11.25-8.8,16.649
			c-42.84,73.9-122.529,119.88-208.5,118.87c-90.24-1.08-172.5-53.78-211.64-135.52H553.088z"/>
		<path clip-path="url(#SVGID_7_)" fill="#A3A3A3" d="M133.469,459.762c0.16,0.301,0.31,0.61,0.47,0.91c-0.1,0-0.19-0.01-0.29-0.02
			L133.469,459.762z"/>
		<path clip-path="url(#SVGID_7_)" fill="#E5E1CA" d="M205.083,362.518c0.733-7.814-9.294-11.566-15.806-22.112
			c-3.244-5.254-6.459-13.559-5.575-26.603c-8.542-12.413-7.812-30.436,1.707-42.118c9.519-11.681,27.024-16.035,40.906-10.175
			c-1.344-19.323-1.094-42.017,14.317-53.75c5.443-4.144,12.161-6.293,17.781-10.193c9.597-6.661,15.099-17.729,23.49-25.857
			c10.575-10.244,25.892-15.378,40.504-13.576c14.612,1.802,28.222,10.503,35.992,23.009c31.423-6.77,44.422-1.553,50.181,5.403
			c4.916,5.938,2.616,10.8,8.327,16.917c11.068,11.854,26.904,1.297,41.944,10.588c15.165,9.367,20.948,33.62,17.737,51.024
			c-3.254,17.64-14.309,20.428-12.586,33.78c1.765,13.688,13.808,14.064,18.993,32.211c0.698,2.441,5.882,21.473-3.658,31.969
			c-5.544,6.102-10.549,3.251-17.339,9.624c-8.916,8.368-5.372,18.053-10.869,27.079c-8.482,13.93-31.326,13.818-45.291,14.817
			c-26.518,1.896-51.54-12.295-77.991-14.96c-13.412-1.353-26.94,0.291-40.416-0.062c-10.613-0.276-32.259-5.8-75.134-16.369
			c-3.445-0.85-12.028-3.063-13.042-8.068C198.342,370.581,204.526,368.451,205.083,362.518"/>
		<rect x="214.606" y="366.162" clip-path="url(#SVGID_7_)" fill="#9B4031" width="242.993" height="73.805"/>
		<path clip-path="url(#SVGID_7_)" fill="#9B4031" d="M214.609,367.132h40.5v-73.8h-40.5V367.132z M220.069,297.372h29.58v65.72
			h-29.58V297.372z"/>
		<path clip-path="url(#SVGID_7_)" fill="#9B4031" d="M255.109,367.132h40.5v-73.8h-40.5V367.132z M260.559,297.372h29.59v65.72
			h-29.59V297.372z"/>
		<path clip-path="url(#SVGID_7_)" fill="#9B4031" d="M335.5,336.742c-0.201,0-0.411-0.01-0.611-0.03
			c-0.21-0.01-0.408-0.02-0.609-0.04c-1.351-0.1-2.601-0.31-3.629-0.54v11.59c0.33,0.12,0.68,0.23,1.049,0.341
			c0.319,0.079,0.66,0.17,1.02,0.25c0.23,0.05,0.46,0.09,0.71,0.13l0.63,0.09c0.431,0.06,0.882,0.09,1.351,0.109
			c0.241,0.011,0.47,0.011,0.7,0v-11.89C335.909,336.752,335.699,336.752,335.5,336.742 M330.65,352.642v10.45h-12.271
			c0.01,0.03,0.021,0.07,0.03,0.11c0.091,0.29,0.171,0.59,0.25,0.899c0.08,0.301,0.16,0.62,0.241,0.94
			c0.069,0.29,0.14,0.59,0.209,0.89c0.01,0.08,0.03,0.15,0.05,0.23c0.06,0.31,0.131,0.64,0.19,0.97h9.79l0.25-0.97h4.181
			c0.06,0.32,0.13,0.64,0.189,0.97h2c0.09-0.33,0.182-0.66,0.281-0.97h0.069v-13.54L330.65,352.642z M335.5,336.742
			c-0.201,0-0.411-0.01-0.611-0.03c-0.21-0.01-0.408-0.02-0.609-0.04c-1.351-0.1-2.601-0.31-3.629-0.54v26.96h-12.271
			c0.01,0.03,0.021,0.07,0.03,0.11c0.091,0.29,0.171,0.59,0.25,0.899c0.08,0.301,0.16,0.62,0.241,0.94
			c0.069,0.29,0.14,0.59,0.209,0.89c0.01,0.08,0.03,0.15,0.05,0.23c0.06,0.31,0.131,0.64,0.19,0.97h9.79l0.25-0.97h4.181
			c0.06,0.32,0.13,0.64,0.189,0.97h2c0.09-0.33,0.182-0.66,0.281-0.97h0.069v-29.41C335.909,336.752,335.699,336.752,335.5,336.742
			 M295.609,367.132h40.5v-73.8h-40.5V367.132z M330.65,363.092h-29.59v-65.72h29.59V363.092z"/>
		<path clip-path="url(#SVGID_7_)" fill="#9B4031" d="M341.309,301.682l-0.029-0.029c-0.061-0.07-0.12-0.15-0.17-0.23
			c-0.061-0.09-0.101-0.17-0.141-0.26c-0.028-0.05-0.049-0.11-0.06-0.17c-0.029-0.07-0.04-0.141-0.061-0.21
			c0,0.14-0.019,0.28-0.059,0.41c-0.04,0.14-0.091,0.26-0.171,0.38c-0.039,0.069-0.09,0.14-0.159,0.2
			c-0.02,0.05-0.06,0.09-0.111,0.13c-0.309,0.31-0.729,0.489-1.158,0.47c-0.911-0.06-1.672-0.87-1.9-1.79
			c-0.221,0.21-0.441,0.42-0.681,0.62c-0.16,0.14-0.33,0.27-0.5,0.399v51.021l5.449-0.021v-50.68
			C341.469,301.852,341.389,301.772,341.309,301.682 M341.309,301.682l-0.029-0.029c-0.069-0.07-0.12-0.15-0.17-0.23
			c-0.061-0.09-0.101-0.17-0.141-0.26c-0.028-0.05-0.049-0.11-0.06-0.17c-0.029-0.07-0.04-0.141-0.061-0.21
			c0,0.14-0.019,0.28-0.059,0.41c-0.04,0.14-0.091,0.26-0.171,0.38c-0.039,0.069-0.09,0.14-0.159,0.2
			c-0.02,0.05-0.06,0.09-0.111,0.13c-0.309,0.31-0.729,0.489-1.158,0.47c-0.911-0.06-1.672-0.87-1.9-1.79
			c-0.221,0.21-0.441,0.42-0.681,0.62c-0.16,0.14-0.33,0.28-0.5,0.399v51.021l5.449-0.021v-50.68
			C341.469,301.852,341.38,301.772,341.309,301.682 M336.109,367.132h40.5v-73.8h-40.5V367.132z M341.559,297.372h29.591v65.72
			h-29.591V297.372z"/>
		<path clip-path="url(#SVGID_7_)" fill="#9B4031" d="M376.609,367.132h40.489v-73.8h-40.489V367.132z M382.059,297.372h29.591
			v65.72h-29.591V297.372z"/>
		<path clip-path="url(#SVGID_7_)" fill="#9B4031" d="M417.099,367.132h40.5v-73.8h-40.5V367.132z M422.559,297.372h29.591v65.72
			h-29.591V297.372z"/>
		<path clip-path="url(#SVGID_7_)" fill="#5190B7" d="M311.436,396.046c-2.326-13.059-13.986-29.173-9.834-35.569
			c0.157-0.239,0.334-0.465,0.539-0.676c0-0.007,0.007-0.014,0.007-0.014c2.305-2.407,5.312-4.371,8.818-5.912
			c0.088-0.041,0.17-0.075,0.252-0.108c3.6-1.569,7.706-2.694,12.091-3.403c0.143-0.027,0.293-0.048,0.436-0.068
			c0.327-0.055,0.655-0.103,0.989-0.149c0.239-0.035,0.477-0.069,0.716-0.097c2.182-0.285,4.426-0.47,6.703-0.565
			c0.191-0.007,0.389-0.015,0.58-0.021c-0.055,0.021-0.116,0.041-0.171,0.055c0.096-0.014,0.198-0.021,0.3-0.027
			c0.062-0.007,0.13-0.007,0.192-0.007c0.067,0,0.143,0,0.211,0.007c0.095,0.007,0.19,0.014,0.278,0.027
			c-0.054-0.014-0.108-0.034-0.155-0.055c0.189,0.006,0.382,0.014,0.578,0.021c0.737,0.026,1.474,0.067,2.203,0.123
			c0.26,0.013,0.519,0.034,0.777,0.061c2.715,0.205,5.367,0.56,7.911,1.064c0.211,0.041,0.423,0.082,0.627,0.13
			c0.055,0.007,0.109,0.02,0.157,0.034c0.572,0.116,1.139,0.245,1.697,0.382c2.694,0.647,5.237,1.473,7.563,2.489
			c0.082,0.033,0.163,0.067,0.252,0.108c3.505,1.541,6.513,3.505,8.818,5.912c0,0,0.006,0.007,0.006,0.014
			c0.205,0.211,0.382,0.437,0.539,0.676c4.126,6.355-7.378,22.319-9.792,35.345c-0.498,2.694-0.614,5.258-0.116,7.59
			c0.013,0.075,0.034,0.15,0.047,0.226v0.014c0,0.026,0.007,0.047,0.007,0.075c0,0.006,0,0.013,0.007,0.02
			c0.008,0.041,0.008,0.089,0.015,0.13c0.832,8.197,1.697,15.084,2.809,21.447h-48.445c0.614-4.549,1.343-11.116,2.387-21.447
			c0-0.027,0.007-0.062,0.007-0.089c0.007-0.014,0.007-0.027,0.007-0.041v-0.007c0.013-0.109,0.034-0.218,0.061-0.327
			C311.994,401.147,311.899,398.658,311.436,396.046"/>
		<path clip-path="url(#SVGID_7_)" fill="#C098EA" d="M333.965,349.432v0.055c-0.193-0.01-0.386-0.02-0.579-0.024
			c0.055,0.019,0.109,0.039,0.168,0.054c-0.163-0.02-0.326-0.035-0.494-0.049c-0.174,0.014-0.337,0.029-0.5,0.049
			c0.06-0.015,0.118-0.035,0.173-0.054c0.069-0.005,0.144-0.005,0.214-0.005c0.039-0.005,0.073-0.005,0.113-0.005
			c0.055-0.005,0.108-0.005,0.163,0c0.034,0,0.069-0.005,0.104-0.005h0.005C333.545,349.437,333.752,349.432,333.965,349.432"/>
		<path clip-path="url(#SVGID_7_)" fill="#C098EA" d="M333.965,349.402c-0.228,0.015-0.435,0.03-0.633,0.045h-0.005
			c-0.035,0-0.07,0.004-0.104,0.004c-0.02,0.005-0.035,0.005-0.05,0.005c-0.039,0.005-0.079,0.005-0.113,0.011
			c-0.174,0.015-0.337,0.029-0.5,0.05c0.06-0.016,0.118-0.035,0.173-0.056c0.016-0.005,0.034-0.01,0.05-0.014l0.005-0.005
			c0.094-0.03,0.183-0.06,0.272-0.094c0.004,0,0.01-0.005,0.015-0.005C333.4,349.367,333.698,349.388,333.965,349.402"/>
		<path clip-path="url(#SVGID_7_)" fill="#5190B7" d="M320.75,378.541c-2.51,5.734-5.49,13.639-8.299,22.108
			c-0.334,1.023-0.669,2.053-1.003,3.089v0.007c-2.318,7.256-4.453,14.771-6.008,21.576h-14.109
			c-1.371-19.605,0.075-51.432,10.27-64.845c0.177-0.231,0.355-0.457,0.539-0.676c0-0.006,0.007-0.013,0.007-0.013
			c1.227-1.487,2.57-2.722,4.044-3.643c1.397-0.866,3.464-1.711,4.773-2.271c0.089-0.041,0.171-0.075,0.252-0.109
			C316.632,355.464,319.612,362.487,320.75,378.541"/>
		<path clip-path="url(#SVGID_7_)" fill="#4080A0" d="M313.194,384.197c0.059-0.619,0.109-1.222,0.153-1.801
			c-0.034,4.79-0.203,10.393-0.668,15.564c-0.48,5.34-0.638,10.326-1.925,13.384c0.312-2.578,0.555-5.167,0.703-7.705
			c-0.806,2.519-1.598,5.102-2.346,7.69c0.079-0.382,0.678-6.321,1.886-12.88C311.922,393.402,312.833,387.935,313.194,384.197"/>
		<path clip-path="url(#SVGID_7_)" fill="#C098EA" d="M333.555,349.516c-0.163-0.02-0.327-0.034-0.495-0.049
			c-0.173,0.015-0.337,0.029-0.5,0.049c0.06-0.015,0.119-0.034,0.173-0.054c-0.193,0.005-0.386,0.015-0.579,0.024v-0.055
			c0.208,0,0.421,0.006,0.629,0.016h0.01c0.034,0,0.069,0.005,0.104,0.005c0.054-0.005,0.108-0.005,0.163,0
			c0.039,0,0.073,0,0.113,0.005c0.069,0,0.139,0,0.208,0.005h0.006C333.44,349.481,333.495,349.501,333.555,349.516"/>
		<path clip-path="url(#SVGID_7_)" fill="#C098EA" d="M333.555,349.516c-0.163-0.02-0.327-0.034-0.495-0.049
			c-0.04-0.005-0.074-0.005-0.114-0.01c-0.021,0-0.035,0-0.049-0.005c-0.035,0-0.07-0.005-0.104-0.005l-0.005-0.005
			c-0.198-0.011-0.411-0.025-0.639-0.04c0.268-0.016,0.564-0.034,0.896-0.06c0.005,0,0.011,0.005,0.016,0.005
			c0.084,0.034,0.173,0.064,0.267,0.1h0.005c0.016,0.005,0.03,0.01,0.05,0.015h0.006
			C333.44,349.481,333.495,349.501,333.555,349.516"/>
		<path clip-path="url(#SVGID_7_)" fill="#5190B7" d="M374.787,425.322h-14.115c-1.549-6.807-3.684-14.321-6.002-21.577
			c-0.007-0.006-0.007-0.014-0.007-0.021c-0.313-0.968-0.628-1.937-0.947-2.897c-2.816-8.538-5.824-16.518-8.354-22.286
			c1.139-16.053,4.119-23.077,9.541-24.775c0.081,0.034,0.163,0.068,0.252,0.109c1.303,0.559,3.376,1.405,4.774,2.271
			c1.473,0.921,2.815,2.155,4.044,3.643c0,0,0.006,0.007,0.006,0.013c0.184,0.218,0.362,0.444,0.539,0.675
			C374.713,373.89,376.158,405.716,374.787,425.322"/>
		<path clip-path="url(#SVGID_7_)" fill="#4080A0" d="M353.003,384.197c-0.06-0.619-0.109-1.222-0.153-1.801
			c0.034,4.79,0.202,10.393,0.668,15.564c0.48,5.34-0.123,4.954,1.844,13.384c-0.311-2.578-0.554-5.167-0.701-7.705
			c0.806,2.519,1.598,5.102,2.345,7.69c-0.079-0.382-0.598-6.321-1.806-12.88C354.274,393.402,353.363,387.935,353.003,384.197"/>
		<polygon clip-path="url(#SVGID_7_)" fill="#5190B7" points="323.219,352.673 324.062,348.858 327.629,346.122 342.669,346.122 
			345.641,348.99 345.641,352.589 		"/>
		<path clip-path="url(#SVGID_7_)" fill="#9E64D0" d="M339.739,349.372c-1.074,0.059-1.895,0.134-3.004,0.327
			c-0.594-0.104-1.109-0.175-1.618-0.224c1.144-0.129,2.123-0.163,2.88-0.163C338.597,349.313,339.176,349.332,339.739,349.372"/>
		<path clip-path="url(#SVGID_7_)" fill="#C098EA" d="M334.84,349.451c-0.549-0.049-1.114-0.079-1.796-0.114
			c0.346-0.015,0.722-0.034,1.143-0.059C334.385,349.337,334.602,349.396,334.84,349.451"/>
		<path clip-path="url(#SVGID_7_)" fill="#BC956B" d="M346.157,351.628c-5.429,6.874-9.601,13.902-11.472,21.202
			c-2.139-8.982-6.266-15.564-11.467-20.826c0,0,3.014-3.567,4.355-5.8c0.144-0.232,0.268-0.45,0.367-0.647
			c0.396-0.787,0.589-2.203,0.673-3.663c0.148-2.42,0-4.959,0-4.959l15.743,0.524c0,0-0.14,1.887-0.377,4.762
			c-0.064,0.792-0.144,1.663-0.223,2.588c-0.055,0.599-0.045,1.168,0.016,1.698C344.108,349.747,346.157,351.628,346.157,351.628"/>
		<path clip-path="url(#SVGID_7_)" fill="#987957" d="M343.757,344.809c-0.054,0.6-0.045,1.168,0.015,1.698
			c-1.202,0.706-4.231,2.268-8.365,2.131c-3.873-0.128-6.651-1.679-7.832-2.433c0.056-0.092,0.124-0.205,0.2-0.337
			c0.061-0.109,0.116-0.214,0.166-0.313c0.396-0.787,0.589-2.202,0.673-3.662c0.147-2.42,0-4.959,0-4.959l15.743,0.525
			c0,0-0.14,1.885-0.376,4.761C343.915,343.013,343.836,343.884,343.757,344.809"/>
		<path clip-path="url(#SVGID_7_)" fill="#5190B7" d="M327.629,346.123c0,0-2.648,2.136-2.143,5.116
			c0.506,2.979,5.902,7.195,5.902,7.195l-2.417,9.332c0,0-10.513-9.332-4.91-18.907L327.629,346.123z"/>
		<path clip-path="url(#SVGID_7_)" fill="#5490B2" d="M331.39,358.435c0,0,5.518,14.111,3.378,31.989h-1.577
			c0,0,0.679-22.884-2.922-27.661L331.39,358.435z"/>
		<path clip-path="url(#SVGID_7_)" fill="#5190B7" d="M343.891,347.302c0,0,1.272,1.057,0.92,3.938
			c-0.365,3-5.902,7.195-5.902,7.195l2.418,9.332c0,0,9.965-9.332,5.205-18.474c-0.146-0.278-0.388-0.495-0.649-0.668
			L343.891,347.302z"/>
		<path clip-path="url(#SVGID_7_)" fill="#4C6580" d="M331.39,358.435c-0.61,3.406-1.366,6.78-2.163,10.146
			c-1.568-1.335-2.925-2.872-4.079-4.553c-2.543-3.638-4.037-8.524-2.306-12.807c0.258-0.823,0.8-1.621,1.221-2.361
			c-0.693,1.628-1.248,3.288-1.29,5.02c-0.139,5.226,2.942,9.969,6.49,13.561l-0.715,0.219
			C329.437,364.564,330.342,361.479,331.39,358.435"/>
		<path clip-path="url(#SVGID_7_)" fill="#4C6580" d="M338.908,358.435c1.049,3.045,1.961,6.128,2.844,9.223l-0.728-0.212
			c3.375-3.594,6.303-8.149,6.483-13.211c0.019-1.68-0.367-3.329-0.978-4.941c0.194,0.444,0.709,1.301,0.87,1.735
			c1.693,4.397,0.16,9.317-2.407,13.055c-1.116,1.649-2.416,3.18-3.917,4.521C340.268,365.234,339.519,361.849,338.908,358.435"/>
		<path clip-path="url(#SVGID_7_)" fill="#4C6580" d="M332.765,391.688l2.709-0.186l-0.111,0.105
			c0.226-7.299,0.93-14.605,2.48-21.751c0.564-2.36,1.1-4.803,2.353-6.92c-1.615,4.571-1.896,9.487-2.648,14.255
			c-0.565,4.304-1.342,10.305-1.973,14.542l-0.095-0.002L332.765,391.688z"/>
		<path clip-path="url(#SVGID_7_)" fill="#D39485" d="M344.357,337.462c0,0-0.139,1.885-0.381,4.76
			c-1.809,1.074-3.933,1.519-6.028,1.701c-2.366,0.205-4.807,0.092-7.022-0.762c-0.816-0.315-1.604-0.741-2.311-1.268
			c0.146-2.418,0-4.958,0-4.958L344.357,337.462z"/>
		<path clip-path="url(#SVGID_7_)" fill="#BC956B" d="M319.115,321.438c-0.666-1.568-1.523-2.61-2.114-3.222
			c-0.662-0.685-1.316-1.344-2.372-1.563c-0.323-0.067-1.315-0.272-2.013,0.282c-0.569,0.453-0.694,1.212-0.727,2.038
			c-0.071,1.794,0.304,3.605,1.441,6.454c1.149,2.881,1.853,3.755,2.54,4.362c1.094,0.969,1.945,1.083,2.371,1.093
			c0.275,0.005,0.838,0.01,1.363-0.345c1.045-0.702,0.969-2.164,0.962-2.278C320.082,325.985,319.599,323.711,319.115,321.438"/>
		<path clip-path="url(#SVGID_7_)" fill="#BC956B" d="M352.677,329.77c0.256,0.229,0.708,0.558,1.313,0.617
			c0.209,0.021,1.066,0.07,2.274-1.059c2.675-2.499,2.744-6.726,2.771-8.415c0.014-0.783-0.021-2.086-0.844-3.135
			c-0.219-0.28-0.65-0.813-1.319-0.883c-0.541-0.055-0.966,0.221-1.258,0.415c-1.125,0.75-1.497,2.021-1.619,2.546
			C353.995,319.856,351.866,328.02,352.677,329.77"/>
		<path clip-path="url(#SVGID_7_)" fill="#BC956B" d="M353.502,307.509c-0.621-2.205-1.246-4.423-2.993-6.562
			c-4.831-5.918-14.017-6.053-19.67-4.737c-2.46,0.572-6.733,1.565-9.868,5.286c-3.382,4.013-3.413,8.796-3.45,14.418
			c-0.037,5.458,1.066,9.246,2.759,15.062c0.667,2.292,1.89,6.089,4.665,9.795c1.214,1.623,2.315,2.68,3.756,3.447
			c1.734,0.924,3.248,1.053,5.429,1.238c2.301,0.196,4.532,0.385,7.062-0.66c0.306-0.126,1.546-0.653,3.036-1.874
			c4.457-3.651,7.409-10.445,8.246-12.472C352.473,330.45,356.026,314.26,353.502,307.509"/>
		<path clip-path="url(#SVGID_7_)" fill="#111010" d="M353.666,321.459c1.225-2.181,2.494-4.977,3.371-8.352
			c0.693-2.67,1.615-6.376,0.847-10.973c-0.479-2.877-1.009-6.038-3.696-7.955c-2.113-1.506-4.529-1.509-5.696-1.424
			c0.014-1.138-0.243-1.968-0.433-2.448c-1.362-3.437-5.391-4.344-5.92-4.455c-0.814-0.17-1.481-0.187-1.963-0.181
			c-3.78,0.043-7.523,1.588-10.187,2.994c0,0-4.654,2.08-9.176,5.515c-0.896,0.682-2.353,1.859-2.665,3.717
			c-0.1,0.595-0.057,1.106-0.002,1.452c-0.581,0.218-2.903,1.163-4.119,3.678c-0.45,0.932-0.648,1.876-0.696,3.48
			c-0.153,5.127,1.404,9.208,1.737,10.052c0.708,1.8,1.936,4.353,4.084,7.052c-0.406-1.389-0.777-3.396-0.363-5.69
			c0.187-1.038,0.394-1.354,1.316-4.055c0.999-2.927,1.498-4.392,1.759-5.705c0.293-1.477,0.518-3.711-0.014-6.63
			c1.972,0.269,4.132,0.438,6.455,0.437c7.881-0.006,14.388-1.983,18.938-3.892c-0.062,2.421,0.168,6.619,2.287,11.193
			c1.206,2.603,2.678,4.58,3.909,5.975C353.514,317.316,353.59,319.387,353.666,321.459"/>
		<path clip-path="url(#SVGID_7_)" fill="#484443" d="M323.502,296.741c1.434-0.06,3.089-0.22,4.902-0.567
			c2.034-0.391,3.804-0.927,5.272-1.471c-1.329,1.243-2.658,2.486-3.987,3.73c1.52-0.113,3.203-0.322,5.012-0.683
			c2.725-0.543,5.087-1.302,7.045-2.073c-1.709,1.107-4.117,2.401-7.183,3.306c-4.752,1.401-8.873,1.214-11.376,0.895
			c1.859-0.903,3.718-1.805,5.577-2.708C327.01,297.027,325.256,296.884,323.502,296.741"/>
		<path clip-path="url(#SVGID_7_)" fill="#484443" d="M320.277,302.688c0.29,1.222,0.557,2.971,0.385,5.056
			c-0.244,2.962-1.257,5.208-1.964,6.493c0.342-1.887,0.658-3.858,0.935-5.909C319.897,306.385,320.108,304.503,320.277,302.688"/>
		<path clip-path="url(#SVGID_7_)" fill="#484443" d="M318.149,307.061c0.194,0.889,0.39,2.33,0.1,4.058
			c-0.232,1.381-0.695,2.465-1.077,3.192c0.042-1.062,0.131-2.21,0.288-3.435C317.641,309.488,317.882,308.212,318.149,307.061"/>
		<path clip-path="url(#SVGID_7_)" fill="#484443" d="M350.544,301.272c-0.695,1.849-0.084,3.59,0.281,4.631
			c0.855,2.436,2.479,3.97,3.413,4.722c-0.711-1.058-1.555-2.556-2.178-4.474c-0.799-2.456-0.915-4.616-0.876-6.067
			C350.994,300.349,350.741,300.748,350.544,301.272"/>
		<path clip-path="url(#SVGID_7_)" fill="#FFFFFF" d="M332.908,319.308c0,0,0.428,4.186-4.018,4.436
			c-4.441,0.249-5.263-4.091-5.263-4.091c0.895-0.565,1.847-0.896,2.79-1.068c1.685-0.314,3.335-0.117,4.549,0.147
			C332.141,318.985,332.908,319.308,332.908,319.308"/>
		<path clip-path="url(#SVGID_7_)" fill="#3F2E20" d="M329.184,322.421c-0.135,0.038-0.271,0.062-0.404,0.074l-0.1,0.01
			c-0.035-0.002-0.074,0.002-0.108,0.001c-0.03,0.003-0.055,0.006-0.084,0.003c-1.19-0.008-2.268-0.808-2.584-2.015
			c-0.089-0.345-0.107-0.691-0.065-1.022c0.012-0.087,0.028-0.173,0.05-0.255c0.042-0.183,0.1-0.357,0.183-0.529
			c0.115-0.036,0.23-0.072,0.348-0.104c1.685-0.313,3.335-0.117,4.549,0.147c0.045,0.104,0.085,0.211,0.116,0.321
			c0.008,0.029,0.016,0.059,0.023,0.093c0.008,0.02,0.015,0.039,0.017,0.059C331.46,320.623,330.6,322.055,329.184,322.421"/>
		<path clip-path="url(#SVGID_7_)" fill="#987957" d="M324.556,324.053c1.226-0.448,2.551-0.511,3.842-0.525
			c1.28,0.044,2.661,0.053,3.81,0.693c-1.248-0.266-2.541-0.164-3.812-0.198C327.263,324.024,325.678,323.987,324.556,324.053"/>
		<path clip-path="url(#SVGID_7_)" fill="#FFFFFF" d="M349.782,319.562c0,0-0.739,4.354-5.184,4.189
			c-4.45-0.166-4.102-4.357-4.102-4.357s0.731-0.335,1.89-0.602c1.278-0.297,3.083-0.513,4.978-0.11
			C348.165,318.849,348.982,319.132,349.782,319.562"/>
		<path clip-path="url(#SVGID_7_)" fill="#3F2E20" d="M347.551,320.479c-0.29,1.232-1.373,2.062-2.577,2.091
			c-0.03,0.003-0.059,0-0.084,0.003c-0.04-0.003-0.075-0.001-0.114-0.004l-0.029-0.002c-0.024-0.002-0.044-0.003-0.069,0
			c-0.133-0.016-0.27-0.036-0.412-0.072c-1.441-0.342-2.342-1.777-2.024-3.222c0.001-0.021,0.008-0.04,0.01-0.064
			c0.007-0.028,0.015-0.063,0.027-0.092c0.028-0.112,0.066-0.223,0.109-0.324c1.279-0.297,3.083-0.513,4.979-0.11
			c0.081,0.16,0.137,0.329,0.179,0.501c0.022,0.081,0.041,0.172,0.054,0.257C347.65,319.776,347.638,320.127,347.551,320.479"/>
		<path clip-path="url(#SVGID_7_)" fill="#987957" d="M348.88,324.053c-1.115-0.065-2.711-0.028-3.84-0.03
			c-1.271,0.034-2.563-0.067-3.813,0.198c1.149-0.642,2.53-0.649,3.811-0.693C346.329,323.542,347.654,323.604,348.88,324.053"/>
		<path clip-path="url(#SVGID_7_)" d="M334.593,334.068c-2.587,1.068-5.553,1.1-8.098,0.08c1.311,0.168,2.623,0.081,3.841-0.236
			c1.219-0.315,2.343-0.865,3.305-1.58c0.443-0.329,1.069-0.237,1.398,0.206C335.436,333.056,335.203,333.845,334.593,334.068"/>
		<path clip-path="url(#SVGID_7_)" d="M337.276,332.332c1.999,1.5,4.615,2.149,7.147,1.817c-2.553,1.021-5.528,0.986-8.12-0.091
			C334.954,333.439,336.046,331.499,337.276,332.332"/>
		<path clip-path="url(#SVGID_7_)" fill="#542525" d="M339.75,311.816l0.317,2.739c0,0,6.854-1.879,12.497,0.563
			C352.564,315.118,348.385,310.311,339.75,311.816"/>
		<path clip-path="url(#SVGID_7_)" fill="#542525" d="M333.944,312.25l-0.322,2.738c0,0-6.85-1.889-12.498,0.545
			C321.124,315.533,325.312,310.732,333.944,312.25"/>
		<path clip-path="url(#SVGID_7_)" fill="#987957" d="M336.433,317.945c0.995,1.777,1.541,3.979,2.286,5.876
			c0.796,1.948,1.223,4.553-0.501,6.162c-1.138,0.936-3.027,0.973-4.068-0.085c0.668,0.245,1.311,0.438,1.979,0.4
			c2.286,0.061,3.125-2.423,2.715-4.338C338.226,323.292,336.863,320.694,336.433,317.945"/>
		<path clip-path="url(#SVGID_7_)" fill="#111010" d="M316.946,304.855c-0.32-0.346-0.564-0.76-0.71-1.207
			c-0.128-0.39-0.173-0.843,0.051-1.186c0.39-0.598,1.28-0.497,1.973-0.323c0.288-0.361,0.035-0.883,0.028-1.344
			c-0.007-0.458,0.252-0.889,0.598-1.189c0.346-0.301,0.772-0.491,1.196-0.665c0.935-0.384,1.893-0.711,2.868-0.979
			c0.07,0.263-0.077,0.539-0.281,0.719c-0.203,0.178-0.458,0.285-0.69,0.426c-0.821,0.495-1.329,1.378-1.684,2.268
			c-0.356,0.892-0.596,1.832-1.06,2.672c-0.233,0.421-0.535,0.825-0.96,1.051c-0.426,0.224-0.996,0.226-1.351-0.1L316.946,304.855z"
			/>
		<path clip-path="url(#SVGID_7_)" fill="#111010" d="M355.167,302.781c0.319-0.346,0.563-0.76,0.71-1.207
			c0.128-0.39,0.173-0.843-0.052-1.186c-0.39-0.598-1.279-0.497-1.973-0.323c-0.288-0.361-0.035-0.883-0.028-1.344
			c0.008-0.458-0.252-0.889-0.598-1.189s-0.771-0.491-1.196-0.665c-0.935-0.384-1.893-0.711-2.868-0.979
			c-0.07,0.262,0.077,0.539,0.281,0.719c0.203,0.178,0.458,0.285,0.69,0.426c0.821,0.495,1.329,1.378,1.684,2.268
			c0.356,0.892,0.597,1.832,1.061,2.672c0.232,0.421,0.534,0.825,0.96,1.051c0.426,0.224,0.996,0.226,1.351-0.1L355.167,302.781z"/>
		<path clip-path="url(#SVGID_7_)" fill="#652B28" d="M328.451,335.582c2.048,0.606,9.172,2.408,14.023-0.201
			c0.047-0.025,0.02-0.097-0.032-0.083c-1.31,0.34-6.185,1.36-13.971,0.197C328.416,335.487,328.398,335.566,328.451,335.582"/>
		<path clip-path="url(#SVGID_7_)" fill="#987957" d="M332.172,338.277c0.791,0.299,3.365,1.155,5.078,0.352
			c0.047-0.022,0.089,0.036,0.053,0.072c-0.566,0.564-2.456,2.015-5.177-0.346C332.087,338.321,332.124,338.26,332.172,338.277"/>
		<polygon clip-path="url(#SVGID_7_)" fill="#38393A" points="389.557,327.395 401.231,289.272 422.676,283.792 417.91,295.705 
			411.238,294.514 397.42,329.778 		"/>
		<polygon clip-path="url(#SVGID_7_)" fill="#999999" points="398.34,327.422 398.35,327.432 399.05,325.632 		"/>
		<polygon clip-path="url(#SVGID_7_)" fill="#262728" points="405.95,288.068 401.24,289.271 395.287,308.682 390.743,323.52 
			392.649,324.496 392.647,324.504 398.342,327.426 399.477,324.53 395.191,323.226 		"/>
		<polygon clip-path="url(#SVGID_7_)" fill="#999999" points="419.84,290.88 417.91,295.705 411.239,294.515 417.912,295.709 
			419.844,290.88 		"/>
		<polygon clip-path="url(#SVGID_7_)" fill="#262728" points="412.819,290.421 411.239,294.515 417.91,295.705 419.84,290.88 		"/>
		<path clip-path="url(#SVGID_7_)" fill="#38393A" d="M298.729,501.952c-0.09,1.93-0.19,3.87-0.32,5.81
			c-0.2,3.16-0.46,6.341-0.77,9.53c-0.34,3.62-0.75,7.26-1.22,10.92c-0.52,4.07-3.38,7.32-7.14,8.44h-0.01
			c-0.9,0.26-1.85,0.399-2.83,0.399h-35.39c-2.73,0-5.25-1.1-7.09-2.909c-0.61-0.601-1.14-1.28-1.58-2.03
			c-0.29-0.5-0.55-1.03-0.75-1.58c-0.22-0.55-0.37-1.14-0.48-1.74c-3.64-20.59-6.42-41.08-8.25-61.45
			c-0.04-0.439-0.08-0.87-0.11-1.31c-0.77-8.71-1.37-17.4-1.78-26.07c-0.39-8.39-0.62-16.75-0.67-25.1
			c-0.03-5.53,4.51-10.01,10.05-10.01h37.51c4.4,0,8.26,2.869,9.6,7.069c0.03,0.08,0.05,0.16,0.07,0.24h0.01v0.01
			c0.08,0.24,0.15,0.471,0.22,0.71c0.11,0.33,0.21,0.66,0.31,0.99v0.01h0.01c0.59,1.91,1.16,3.82,1.69,5.74l0.01,0.01
			c0.53,1.851,1.03,3.71,1.5,5.58c0.01,0.03,0.02,0.07,0.03,0.11c0.4,1.56,0.79,3.13,1.15,4.71c0.11,0.47,0.22,0.93,0.32,1.399
			c0,0,0.01,0,0,0.011c0.65,2.83,1.24,5.67,1.79,8.52c0.89,4.74,1.65,9.51,2.27,14.311v0.01c0.54,4.17,0.98,8.35,1.31,12.57
			c0.01,0.159,0.03,0.329,0.04,0.489C299.109,478.682,299.27,490.222,298.729,501.952"/>
		<path clip-path="url(#SVGID_7_)" fill="#38393A" d="M437.93,414.862c-0.051,8.35-0.28,16.71-0.681,25.1
			c-0.39,8.301-0.95,16.62-1.67,24.95l-0.21,2.431c-0.17,1.8-0.33,3.59-0.51,5.39c-0.03,0.29-0.061,0.58-0.09,0.87
			c-0.311,3.13-0.641,6.27-1.01,9.41c-0.16,1.52-0.341,3.029-0.53,4.55c-0.12,1.13-0.26,2.25-0.41,3.38
			c-0.17,1.41-0.35,2.83-0.54,4.24c-0.53,4.08-1.1,8.149-1.7,12.239c-0.34,2.33-0.7,4.66-1.069,7c-0.37,2.391-0.761,4.79-1.16,7.181
			c-0.021,0.14-0.051,0.28-0.07,0.42c-0.38,2.26-0.77,4.51-1.17,6.77v0.011c-0.05,0.27-0.11,0.54-0.18,0.8
			c-0.011,0.04-0.021,0.08-0.03,0.12c-0.07,0.27-0.16,0.54-0.26,0.79c0,0.01,0,0.02-0.011,0.029c-0.08,0.221-0.17,0.44-0.27,0.65
			c-0.03,0.09-0.07,0.18-0.12,0.26c-0.1,0.22-0.22,0.44-0.35,0.65c-0.141,0.25-0.301,0.5-0.471,0.729
			c-0.17,0.24-0.34,0.46-0.529,0.681c0,0.01-0.011,0.02-0.011,0.02c-0.17,0.19-0.34,0.38-0.52,0.55c-0.061,0.07-0.13,0.141-0.2,0.2
			c-0.149,0.15-0.31,0.29-0.479,0.43c-0.37,0.311-0.75,0.591-1.16,0.841c-0.34,0.21-0.69,0.39-1.05,0.56
			c-0.12,0.06-0.25,0.11-0.37,0.16c-0.53,0.229-1.09,0.399-1.66,0.53c-0.11,0.029-0.23,0.05-0.34,0.069
			c-0.17,0.04-0.351,0.07-0.53,0.09c-0.21,0.03-0.42,0.051-0.63,0.061c-0.24,0.02-0.48,0.03-0.72,0.03h-35.4
			c-2.521,0-4.84-0.94-6.61-2.5c-0.41-0.36-0.8-0.75-1.14-1.181c-1.18-1.43-1.97-3.2-2.23-5.16c-0.25-1.949-0.479-3.89-0.689-5.819
			c-0.2-1.71-0.37-3.4-0.53-5.101c-0.16-1.59-0.29-3.18-0.42-4.76c-0.13-1.59-0.25-3.189-0.35-4.77
			c-0.29-4.511-0.48-8.99-0.57-13.431c-0.03-1.27-0.04-2.529-0.05-3.79c-0.05-7.83,0.21-15.56,0.81-23.199
			c0.021-0.391,0.061-0.78,0.09-1.171c0.17-2.069,0.36-4.119,0.58-6.17c0.19-1.83,0.41-3.649,0.641-5.47v-0.01
			c0.63-4.89,1.399-9.75,2.319-14.561c0.021-0.149,0.051-0.29,0.08-0.43c0.28-1.49,0.58-2.979,0.9-4.46
			c0.45-2.14,0.93-4.28,1.439-6.4c0.71-2.979,1.48-5.93,2.32-8.869c0.62-2.25,1.29-4.48,1.99-6.71c0.08-0.25,0.16-0.511,0.24-0.761
			c0-0.01,0-0.01,0.01-0.02c0.04-0.13,0.08-0.26,0.12-0.391c0.319-1.01,0.79-1.939,1.38-2.77c1.84-2.64,4.87-4.3,8.22-4.3h37.51
			c3.881,0,7.261,2.189,8.931,5.41C437.539,411.633,437.939,413.202,437.93,414.862"/>
		<polyline clip-path="url(#SVGID_7_)" fill="#999999" points="272.934,404.842 266.743,404.842 266.743,404.847 272.947,404.847 
			272.934,404.842 		"/>
		<path clip-path="url(#SVGID_7_)" fill="#262728" d="M272.947,404.848h-6.204c1.355,19.127,0.66,38.814-1.949,59.043
			c-0.644,5.032-4.896,8.844-9.98,8.844h-21.399c1.83,18.587,4.422,37.276,7.743,56.066c0.847,4.777,5.032,8.251,9.895,8.251h11.457
			c-1.379-13.268-2.139-26.454-2.218-39.559c-0.02-3.542,2.885-6.408,6.428-6.408h23.177c-4.374-21.87-9.671-51.611-9.229-65.418
			c0.012-0.383,0.058-0.757,0.136-1.117c0.345-1.617,1.315-2.995,2.641-3.88l4.669-6.791c-0.178-0.572-0.357-1.143-0.539-1.712
			C286.842,411.71,281.25,408.287,272.947,404.848"/>
		<path clip-path="url(#SVGID_7_)" fill="#999999" d="M397.14,404.842c-0.011,0-0.011,0-0.021,0.011h9.68v-0.011H397.14z"/>
		<path clip-path="url(#SVGID_7_)" fill="#828282" d="M428.278,522.027c-0.378,2.255-0.766,4.509-1.165,6.767
			c-0.51,2.886-2.237,5.295-4.595,6.754c2.357-1.457,4.083-3.864,4.594-6.747C427.512,526.541,427.9,524.283,428.278,522.027z"/>
		<path clip-path="url(#SVGID_7_)" fill="#262728" d="M406.797,404.848h-9.678c-5.775,2.392-10.237,4.776-12.667,6.159l11.632,9.374
			c2.212,0.996,3.737,3.236,3.708,5.827c-0.088,8.032-2.01,25.865-11.032,64.877h23.693c3.542,0,6.447,2.866,6.427,6.408
			c-0.078,13.104-0.838,26.291-2.217,39.559h0.555c1.929,0,3.751-0.546,5.301-1.504c2.357-1.458,4.085-3.868,4.595-6.753
			c0.398-2.258,0.787-4.513,1.166-6.769c0.193-1.16,0.387-2.324,0.575-3.483c2.498-15.338,4.505-30.606,6.001-45.809h-16.146
			c-5.083,0-9.319-3.812-9.98-8.844C406.12,443.68,405.426,423.975,406.797,404.848"/>
		<path clip-path="url(#SVGID_7_)" fill="#EF6A0F" d="M382.408,412.218c0,0,22.726-14.425,47.479-14.842
			c3.104-0.053,4.367-4.009,1.813-5.774c-2.506-1.729-6.036-3.362-10.932-4.163c-13.104-2.145-40.506,7.387-46.938,19.776
			C367.397,419.604,382.408,412.218,382.408,412.218"/>
		<g opacity="0.23" clip-path="url(#SVGID_7_)">
			<g>
				<defs>
					<rect id="SVGID_8_" x="376.901" y="393.427" width="56.161" height="17.58"/>
				</defs>
				<clipPath id="SVGID_9_">
					<use xlink:href="#SVGID_8_"  overflow="visible"/>
				</clipPath>
				<path clip-path="url(#SVGID_9_)" fill="#262728" d="M429.265,393.427c-18.965,0-35.175,6.095-35.175,6.095
					s-3.074,0.791-5.813,0.791c-2.489,0-4.702-0.652-4.082-3.146c-2.334,1.467-4.438,3.051-6.199,4.725l-1.094,3.03l7.551,6.085
					c6.102-3.476,25.083-13.288,45.439-13.636c2.219-0.034,3.49-2.068,3.102-3.863C431.74,393.453,430.498,393.427,429.265,393.427"
					/>
			</g>
		</g>
		<path clip-path="url(#SVGID_7_)" fill="#EF6A0F" d="M287.658,412.218c0,0-22.725-14.425-47.479-14.842
			c-3.104-0.053-4.367-4.009-1.813-5.774c2.504-1.729,6.036-3.362,10.931-4.163c13.105-2.145,40.505,7.387,46.938,19.776
			C302.669,419.604,287.658,412.218,287.658,412.218"/>
		<path clip-path="url(#SVGID_7_)" fill="#999999" d="M237.044,393.617c-0.228,1.24,0.337,2.578,1.452,3.272
			C237.39,396.194,236.828,394.862,237.044,393.617"/>
		<g opacity="0.23" clip-path="url(#SVGID_7_)">
			<g>
				<defs>
					<rect id="SVGID_10_" x="236.998" y="393.438" width="57.517" height="19.327"/>
				</defs>
				<clipPath id="SVGID_11_">
					<use xlink:href="#SVGID_10_"  overflow="visible"/>
				</clipPath>
				<path clip-path="url(#SVGID_11_)" fill="#262728" d="M239.438,393.438c-0.784,0-1.573,0.012-2.363,0.035
					c-0.011,0.049-0.021,0.097-0.03,0.145c-0.217,1.245,0.345,2.577,1.452,3.272c0.469,0.292,1.034,0.472,1.679,0.48
					c24.754,0.424,47.476,14.843,47.476,14.843s0.478,0.235,1.228,0.552l5.635-8.198c-1.469-1.882-3.393-3.679-5.644-5.35
					c0.903,2.791-1.013,3.557-3.388,3.557c-2.888,0-6.456-1.134-6.456-1.134S260.418,393.438,239.438,393.438"/>
			</g>
		</g>
		<path clip-path="url(#SVGID_7_)" fill="#4F5051" d="M405.633,575.669h-22.647c-3.251,0-5.968-2.434-6.383-5.658
			c-3.382-26.265-1.73-51.149,5.708-74.403c0.857-2.682,3.326-4.523,6.143-4.523h24c3.542,0,6.448,2.868,6.426,6.41
			c-0.143,24.024-2.578,48.338-6.917,72.891C411.422,573.445,408.739,575.669,405.633,575.669"/>
		<path clip-path="url(#SVGID_7_)" fill="#4F5051" d="M273.541,575.669h22.647c3.251,0,5.968-2.434,6.383-5.658
			c3.382-26.265,1.73-51.149-5.708-74.403c-0.858-2.682-3.326-4.523-6.143-4.523h-24c-3.542,0-6.448,2.868-6.427,6.41
			c0.144,24.024,2.58,48.338,6.918,72.891C267.75,573.445,270.433,575.669,273.541,575.669"/>
		<path clip-path="url(#SVGID_7_)" fill="#828282" d="M375.085,537.07L375.085,537.07c-0.264,6.188-0.2,12.467,0.181,18.834
			C374.886,549.539,374.822,543.258,375.085,537.07"/>
		<path clip-path="url(#SVGID_7_)" fill="#828282" d="M411.959,570.382c-0.02,0.091-0.029,0.19-0.06,0.28
			c0.03-0.09,0.05-0.18,0.07-0.28c0.43-2.42,0.84-4.859,1.22-7.27C412.8,565.532,412.39,567.952,411.959,570.382 M411.8,571.072
			c0-0.021,0.01-0.04,0.01-0.07c0,0.04-0.01,0.07-0.021,0.101C411.789,571.092,411.8,571.082,411.8,571.072"/>
		<path clip-path="url(#SVGID_7_)" fill="#393A3B" d="M401.088,491.085H388.76c-0.242,1.044-0.488,2.104-0.74,3.178
			c-0.991,4.252-2.067,8.746-3.23,13.494h2.201c2.914,0,5.101,2.694,4.49,5.558l-1.915,9.082h-0.005l-2.321,10.979h0.005
			l-0.013,0.039l-0.002,0.01c-0.036,0.172-0.082,0.34-0.137,0.504c-0.326,0.987-0.976,1.814-1.813,2.371
			c-0.002,0.002-0.003,0.003-0.005,0.004c-0.004,0.003-0.009,0.005-0.013,0.009c-0.73,0.481-1.603,0.758-2.527,0.758h-7.649
			c-0.264,6.188-0.198,12.468,0.181,18.834c0.279,4.654,0.726,9.356,1.339,14.104c0.046,0.364,0.121,0.719,0.223,1.062
			c0.424,1.403,1.301,2.598,2.452,3.417c1.053,0.746,2.335,1.18,3.712,1.18h22.638c1.196,0,2.329-0.327,3.3-0.903
			c1.556-0.927,2.701-2.494,3.034-4.379c0.535-3.027,1.042-6.055,1.518-9.076c0.089-0.572,0.177-1.146,0.264-1.721h-8.776
			c-3.253,0-5.981-2.438-6.389-5.659C395.751,531.969,396.444,510.959,401.088,491.085"/>
		<path clip-path="url(#SVGID_7_)" fill="#393A3B" d="M289.897,491.085h-10.108c1.223,6.197,2.07,12.497,2.556,18.898
			c0.793-1.318,2.234-2.227,3.933-2.227h7.073C292.394,503.289,291.186,497.529,289.897,491.085"/>
		<path clip-path="url(#SVGID_7_)" fill="#828282" d="M300.14,574.302c-0.01,0.011-0.03,0.021-0.04,0.04
			c0.01-0.01,0.03-0.02,0.04-0.029c0.03-0.021,0.06-0.051,0.09-0.08C300.199,574.252,300.169,574.282,300.14,574.302
			 M302.569,570.012c-0.02,0.16-0.05,0.32-0.08,0.471c0.04-0.15,0.07-0.311,0.09-0.471c0.1-0.8,0.2-1.609,0.29-2.409
			C302.77,568.402,302.669,569.212,302.569,570.012 M302.379,570.942c0.04-0.11,0.07-0.23,0.09-0.34c0.01-0.04,0.02-0.08,0.02-0.12
			c-0.02,0.12-0.05,0.239-0.09,0.359C302.399,570.872,302.39,570.912,302.379,570.942"/>
		<path clip-path="url(#SVGID_7_)" fill="#393A3B" d="M282.74,517.232c0.342,10.215-0.203,20.678-1.578,31.375
			c-0.424,3.22-3.135,5.659-6.388,5.659h-10.132c0.762,5.354,1.626,10.726,2.575,16.113c0.167,0.976,0.554,1.867,1.104,2.627
			c0.331,0.456,0.719,0.866,1.154,1.219c1.118,0.906,2.541,1.441,4.062,1.441h22.654c0.678,0,1.333-0.106,1.948-0.302
			c2.334-0.748,4.103-2.804,4.431-5.354c1.448-11.239,1.973-22.227,1.518-32.94h-12.901c-1.18,0-2.274-0.449-3.099-1.202
			c-0.002-0.003-0.005-0.005-0.007-0.007l-0.001-0.001c-0.653-0.599-1.137-1.388-1.361-2.299l-2.014-8.273L282.74,517.232z"/>
		<path clip-path="url(#SVGID_7_)" fill="#65657C" d="M382.734,537.07h-91.547c-2.118,0-3.962-1.448-4.464-3.507l-4.907-20.117
			c-0.706-2.894,1.486-5.684,4.464-5.684h100.706c2.92,0,5.1,2.688,4.496,5.545l-4.253,20.117
			C386.78,535.55,384.906,537.07,382.734,537.07"/>
		<path clip-path="url(#SVGID_7_)" fill="#272829" d="M386.99,507.757h-2.202c-0.001,0.002-0.001,0.004-0.002,0.006h2.2
			c2.92,0,5.099,2.688,4.496,5.545l-1.922,9.088h0.005l1.915-9.081C392.091,510.451,389.905,507.757,386.99,507.757"/>
		<path clip-path="url(#SVGID_7_)" fill="#393A3B" d="M282.345,509.982c-0.098,0.163-0.186,0.332-0.264,0.508
			c0.078-0.175,0.166-0.343,0.264-0.506V509.982z"/>
		<path clip-path="url(#SVGID_7_)" fill="#4D4D62" d="M386.986,507.763h-2.2c-0.753,3.071-1.543,6.248-2.37,9.533h-86.972
			c0,0,0,0,0-0.002h-0.003c0,0-0.827-3.642-2.089-9.531h-7.073c-1.697,0-3.139,0.907-3.935,2.223
			c-0.098,0.162-0.186,0.331-0.264,0.505c-0.395,0.89-0.514,1.918-0.258,2.96l2.882,11.837l2.019,8.277
			c0.221,0.907,0.704,1.696,1.356,2.296c0,0,0.001,0,0.001,0.001c0.003,0.002,0.005,0.004,0.007,0.007
			c0.828,0.754,1.924,1.201,3.105,1.201h91.545c0.923,0,1.794-0.276,2.524-0.757c0.004-0.004,0.009-0.006,0.013-0.009
			c0.002-0.001,0.003-0.003,0.005-0.004c0.836-0.556,1.484-1.383,1.813-2.371c0.054-0.164,0.099-0.331,0.135-0.503l0.004-0.012
			l0.008-0.038h-77.901c-2.118,0-3.965-0.543-4.456-1.305l-4.914-7.54c-0.694-1.084,1.491-2.135,4.473-2.135h85.119l1.921-9.089
			C392.086,510.451,389.906,507.763,386.986,507.763"/>
		<path clip-path="url(#SVGID_7_)" fill="#38393A" d="M372.386,401.487c-2.694-18.366-18.52-32.479-37.631-32.479
			c-19.113,0-34.938,14.113-37.632,32.479c-0.271,1.813-0.407,3.677-0.407,5.574c0,8.981,3.101,17.232,8.337,23.738l14.232,0.881
			c-8.184-5.151-13.606-14.249-13.606-24.619c0-1.914,0.187-3.778,0.543-5.574c2.592-13.401,14.385-23.517,28.533-23.517
			c14.146,0,25.939,10.115,28.531,23.517c0.356,1.796,0.542,3.66,0.542,5.574c0,11.641-6.845,21.688-16.723,26.331l14.233,0.864
			c7.064-6.913,11.454-16.537,11.454-27.195C372.793,405.164,372.656,403.301,372.386,401.487"/>
		<polygon clip-path="url(#SVGID_7_)" fill="#EF6A0F" points="398.038,421.955 394.326,436.289 361.339,434.257 347.105,433.393 
			319.285,431.682 305.052,430.8 285.669,429.613 280.908,424.361 296.632,401.487 372.64,401.487 		"/>
		<g opacity="0.23" clip-path="url(#SVGID_7_)">
			<g>
				<defs>
					<rect id="SVGID_12_" x="283.445" y="401.488" width="112.638" height="19.182"/>
				</defs>
				<clipPath id="SVGID_13_">
					<use xlink:href="#SVGID_12_"  overflow="visible"/>
				</clipPath>
				<path clip-path="url(#SVGID_13_)" fill="#262728" d="M314.456,401.487h-8.235h-9.098h-0.491l-2.117,3.079l-5.635,8.198
					l-5.434,7.905c0.838-0.56,1.818-0.923,2.871-1.023c0.209-0.021,0.42-0.032,0.633-0.032h0.013l106.56,0.217
					c0.914,0.003,1.78,0.198,2.561,0.55l-9.99-8.05h-16.28c-0.105,0.005-0.213,0.008-0.32,0.008c-0.104,0-0.21-0.003-0.314-0.008
					h-59.839L314.456,401.487z"/>
			</g>
		</g>
		<path clip-path="url(#SVGID_7_)" fill="#EF6A0F" d="M286.962,419.615l106.56,0.216c3.504,0.007,6.309,2.873,6.27,6.377
			c-0.106,9.647-2.857,33.439-17.384,91.086h-86.967c0,0-15.517-68.388-14.773-91.627
			C280.776,422.28,283.573,419.609,286.962,419.615"/>
		<path clip-path="url(#SVGID_7_)" fill="#19191A" d="M283.445,420.67c-1.326,0.885-2.296,2.264-2.641,3.88
			c0.347-1.609,1.313-2.981,2.632-3.867L283.445,420.67z"/>
		<path clip-path="url(#SVGID_7_)" fill="#242463" d="M286.317,419.646c-1.054,0.102-2.034,0.464-2.872,1.022l-0.009,0.014
			C284.276,420.118,285.259,419.752,286.317,419.646"/>
		<path clip-path="url(#SVGID_7_)" fill="#272829" d="M388.02,494.264c-0.997,4.254-2.073,8.744-3.239,13.493h0.008
			C385.952,503.01,387.028,498.516,388.02,494.264"/>
		<path clip-path="url(#SVGID_7_)" fill="#37374A" d="M384.787,507.763h-0.008c-0.753,3.07-1.543,6.245-2.371,9.531h-86.963
			c0,0.002,0,0.002,0,0.002h86.971C383.243,514.011,384.033,510.834,384.787,507.763"/>
		<g opacity="0.23" clip-path="url(#SVGID_7_)">
			<g>
				<defs>
					<rect id="SVGID_14_" x="280.641" y="419.622" width="107.638" height="97.67"/>
				</defs>
				<clipPath id="SVGID_15_">
					<use xlink:href="#SVGID_14_"  overflow="visible"/>
				</clipPath>
				<path clip-path="url(#SVGID_15_)" fill="#262728" d="M383.879,493.012c-3.38-0.199-6.689-0.649-9.93-1.319
					c-1.399-0.29-2.78-0.62-4.14-0.99c-0.2-0.05-0.391-0.1-0.58-0.16c-0.97-0.27-1.94-0.56-2.89-0.87
					c-1.41-0.46-2.801-0.97-4.171-1.51c-1.43-0.57-2.84-1.18-4.22-1.84c-1.46-0.69-2.88-1.43-4.28-2.21
					c-1.739-0.99-3.439-2.04-5.09-3.16c-1.54-1.05-3.04-2.16-4.5-3.33c-1.399-1.12-2.76-2.3-4.069-3.53
					c-1.7-1.59-3.32-3.26-4.851-5.01c-0.51-0.57-1-1.15-1.49-1.74c-0.18-0.22-0.359-0.439-0.529-0.67
					c-0.79-0.97-1.54-1.96-2.28-2.99v-0.01c-0.87-1.22-1.71-2.47-2.51-3.75c-3.79-6.069-6.68-12.77-8.5-19.96
					c-0.51-2.05-0.94-4.149-1.28-6.28c-0.11-0.689-0.22-1.369-0.32-2.06c-0.04-0.229-0.07-0.46-0.11-0.69v-0.01
					c-0.29-1.899-0.56-3.77-0.81-5.6c-0.27-1.93-0.52-3.811-0.74-5.641l-6.84-0.01l-1.21-0.01h-1.71l-7.98-0.02l-7.82-0.011h-1.21
					l-2.86-0.01h-0.04c-0.1,0-0.2,0-0.3,0.01c-0.1,0-0.2,0-0.3,0.011c-0.16,0.02-0.34,0.039-0.5,0.069c-0.02,0-0.03,0.01-0.05,0.01
					c-0.08,0.011-0.16,0.03-0.23,0.051c-0.1,0.02-0.19,0.05-0.29,0.08c-0.04,0.01-0.08,0.02-0.12,0.029
					c-0.19,0.061-0.38,0.13-0.56,0.2c-0.12,0.05-0.23,0.1-0.33,0.15c-0.05,0.02-0.1,0.04-0.14,0.069c-0.05,0.021-0.1,0.04-0.14,0.07
					c-0.04,0.021-0.07,0.04-0.1,0.06c-0.01,0-0.02,0.011-0.03,0.021c-0.02,0-0.04,0.01-0.06,0.02c0,0-0.01,0-0.01,0.011
					c-0.04,0.02-0.08,0.05-0.12,0.08c-0.04,0.02-0.09,0.05-0.13,0.08c-0.01,0.01-0.02,0.01-0.03,0.02c-0.01,0-0.02,0.01-0.03,0.01
					c0,0.01-0.01,0.01-0.01,0.01c-0.08,0.051-0.16,0.11-0.23,0.171c-0.06,0.04-0.12,0.079-0.18,0.13l-0.44,0.39
					c-0.02,0.021-0.05,0.04-0.07,0.06c-0.07,0.08-0.14,0.15-0.2,0.221c-0.02,0.02-0.04,0.05-0.06,0.069
					c-0.01,0.011-0.03,0.021-0.04,0.04c-0.02,0.011-0.03,0.03-0.04,0.04c-0.01,0.011-0.02,0.021-0.02,0.03c-0.01,0-0.01,0-0.01,0.01
					c-0.02,0.011-0.02,0.011-0.03,0.021v0.01l-0.3,0.39l-0.32,0.5c-0.01,0.011-0.01,0.011-0.02,0.021
					c-0.01,0.02-0.03,0.04-0.04,0.06v0.011l-0.15,0.319l-0.06,0.12c-0.04,0.08-0.08,0.17-0.11,0.26
					c-0.01,0.011-0.01,0.03-0.02,0.051c-0.01,0.01-0.01,0.02-0.01,0.029c-0.02,0.021-0.02,0.04-0.02,0.061
					c0,0.01-0.01,0.02-0.01,0.029c-0.04,0.07-0.06,0.141-0.09,0.221v0.01l-0.01,0.03c-0.03,0.08-0.05,0.17-0.07,0.26
					c-0.01,0.01-0.01,0.01-0.01,0.02c-0.03,0.101-0.05,0.19-0.07,0.29c-0.08,0.36-0.13,0.73-0.14,1.11
					c-0.03,1.05-0.04,2.18-0.01,3.39c0,0.141,0.01,0.29,0.01,0.431c0.01,0.1,0.01,0.199,0.01,0.31s0.01,0.23,0.01,0.351
					c0.01,0.279,0.02,0.56,0.04,0.85v0.1c0.01,0.011,0.01,0.021,0.01,0.04c0,0.011-0.01,0.011-0.01,0.021v0.01
					c0.02,0.19,0.03,0.37,0.04,0.57v0.04c0.02,0.26,0.03,0.529,0.04,0.79c0.03,0.42,0.06,0.85,0.09,1.279
					c0,0.12,0.01,0.25,0.02,0.37c0.02,0.28,0.04,0.561,0.07,0.851c0.01,0.08,0.01,0.149,0.02,0.229c0.01,0.19,0.03,0.37,0.05,0.57
					v0.06c0.03,0.29,0.05,0.57,0.07,0.86c0.02,0.18,0.03,0.36,0.05,0.54c0.04,0.34,0.07,0.68,0.1,1.02
					c0.02,0.261,0.05,0.53,0.08,0.801c0.03,0.25,0.05,0.5,0.08,0.75v0.069c0.01,0.05,0.01,0.101,0.02,0.15
					c0.03,0.24,0.06,0.49,0.08,0.729c0.01,0.141,0.03,0.271,0.04,0.41c0.01,0.07,0.02,0.13,0.02,0.2c0.01,0.01,0.01,0.03,0.01,0.05
					c0.06,0.521,0.12,1.05,0.18,1.59c0.07,0.551,0.14,1.11,0.21,1.67c0,0.021,0,0.051,0.01,0.07c0.01,0.15,0.03,0.3,0.05,0.46
					c0.04,0.28,0.07,0.561,0.11,0.851c0.02,0.13,0.03,0.26,0.05,0.399c0.04,0.25,0.07,0.51,0.1,0.76
					c0.05,0.341,0.09,0.681,0.14,1.021c0.05,0.34,0.09,0.689,0.14,1.03c0.04,0.26,0.08,0.529,0.11,0.8
					c0.03,0.149,0.05,0.3,0.07,0.46c0.02,0.17,0.05,0.33,0.07,0.5c0.03,0.2,0.06,0.41,0.09,0.62c0,0.029,0.01,0.069,0.01,0.1
					c0.04,0.22,0.07,0.43,0.1,0.65c0.1,0.699,0.21,1.41,0.31,2.13c0.02,0.12,0.04,0.25,0.06,0.37c0.02,0.16,0.05,0.319,0.07,0.479
					c0.05,0.29,0.1,0.59,0.14,0.88l0.15,0.96c0.14,0.9,0.29,1.801,0.43,2.71c0.05,0.29,0.09,0.591,0.14,0.881
					c0.01,0.039,0.02,0.09,0.02,0.14c0.01,0.02,0.01,0.04,0.02,0.07c0.09,0.55,0.18,1.1,0.27,1.649c0.03,0.18,0.06,0.36,0.09,0.54
					c0.03,0.18,0.06,0.37,0.09,0.55c0.06,0.32,0.11,0.63,0.16,0.94c0.12,0.68,0.23,1.36,0.35,2.04c0.03,0.18,0.06,0.35,0.09,0.52
					c0.17,0.98,0.34,1.95,0.51,2.92c0.01,0.051,0.02,0.11,0.03,0.17c0.17,0.931,0.33,1.851,0.5,2.761c0.06,0.34,0.12,0.67,0.18,1
					c0.08,0.43,0.16,0.85,0.23,1.26c0.03,0.14,0.05,0.28,0.08,0.41c0.03,0.21,0.07,0.41,0.11,0.609c0.09,0.48,0.18,0.96,0.27,1.44
					c0.18,0.96,0.36,1.92,0.54,2.87c0.13,0.71,0.27,1.42,0.4,2.12c0.04,0.17,0.07,0.33,0.1,0.49c0.06,0.3,0.12,0.6,0.17,0.899
					c0.05,0.24,0.1,0.47,0.14,0.71c0.04,0.22,0.09,0.44,0.13,0.66c0.03,0.16,0.06,0.32,0.09,0.48c0.06,0.27,0.11,0.539,0.16,0.8
					c0.01,0.04,0.01,0.08,0.02,0.12c0.04,0.18,0.07,0.359,0.11,0.529c0.01,0.08,0.03,0.16,0.04,0.23c0.16,0.8,0.31,1.58,0.47,2.35
					c0.05,0.28,0.11,0.561,0.17,0.84c0,0.03,0,0.051,0.01,0.07c0.11,0.54,0.21,1.07,0.32,1.6c0.06,0.271,0.11,0.53,0.16,0.79
					c0.02,0.091,0.04,0.171,0.05,0.261c0.04,0.199,0.08,0.39,0.12,0.58c0.06,0.27,0.11,0.54,0.16,0.8
					c0.02,0.08,0.03,0.149,0.05,0.229c0.03,0.15,0.06,0.29,0.09,0.44c0.01,0.04,0.01,0.09,0.02,0.13c0.02,0.07,0.04,0.15,0.05,0.23
					c0.18,0.84,0.34,1.659,0.51,2.47c0.04,0.16,0.07,0.33,0.1,0.49c0.03,0.149,0.06,0.3,0.09,0.439c0.05,0.21,0.09,0.42,0.13,0.62
					c0.02,0.1,0.04,0.19,0.06,0.29c0.13,0.61,0.25,1.2,0.37,1.77c0.04,0.2,0.09,0.4,0.12,0.591c0.04,0.149,0.07,0.31,0.1,0.46
					c0.01,0.04,0.02,0.08,0.02,0.12c0.01,0.029,0.02,0.06,0.02,0.1c0.02,0.06,0.03,0.13,0.05,0.2c0.01,0.069,0.02,0.14,0.04,0.2
					c0.07,0.31,0.14,0.619,0.2,0.93c0.01,0.04,0.02,0.08,0.02,0.12c0.01,0.06,0.03,0.12,0.04,0.17c0.02,0.12,0.05,0.24,0.07,0.35
					c0.06,0.271,0.12,0.53,0.17,0.79c0.04,0.15,0.07,0.311,0.1,0.46c0.01,0.061,0.03,0.13,0.04,0.19c0.02,0.069,0.03,0.13,0.05,0.2
					c0.01,0.069,0.03,0.14,0.04,0.21c0.03,0.149,0.06,0.3,0.09,0.439v0.01h0.01c0.03,0.17,0.07,0.341,0.11,0.511
					c0.07,0.35,0.15,0.699,0.22,1.04c0.1,0.449,0.19,0.88,0.28,1.3c0.06,0.27,0.12,0.54,0.17,0.79c0.02,0.06,0.03,0.12,0.04,0.18
					c0.04,0.16,0.07,0.311,0.1,0.46c0.06,0.24,0.11,0.48,0.16,0.71c0.03,0.141,0.06,0.28,0.09,0.41c0.02,0.07,0.03,0.14,0.04,0.2
					c0.05,0.2,0.09,0.39,0.13,0.58c0.01,0.05,0.02,0.1,0.03,0.149c0.02,0.08,0.04,0.16,0.05,0.24c0.03,0.09,0.04,0.17,0.06,0.25
					s0.04,0.16,0.05,0.24c0.02,0.07,0.04,0.14,0.05,0.21c0.02,0.1,0.05,0.189,0.06,0.28c0.01,0.02,0.01,0.05,0.01,0.069
					c0.02,0.07,0.04,0.141,0.05,0.2c0.02,0.08,0.04,0.16,0.05,0.23c0.07,0.27,0.12,0.5,0.15,0.689c0.01,0.05,0.02,0.09,0.03,0.13
					c0.01,0.011,0.01,0.021,0.01,0.03c0.01,0.02,0.01,0.04,0.01,0.06c0.02,0.03,0.02,0.061,0.03,0.091c0,0.02,0.01,0.04,0.01,0.06
					c0.04,0.14,0.06,0.24,0.07,0.31c0.01,0.011,0,0.021,0,0.021c0.01,0.01,0.01,0.01,0.01,0.02v0.011v0.01
					c0.01,0.01,0.01,0.02,0.01,0.03c0.01,0.01,0.01,0.02,0.01,0.02h86.96c0.21-0.82,0.41-1.63,0.62-2.439
					c0.24-0.971,0.48-1.921,0.71-2.87c0.16-0.641,0.32-1.271,0.47-1.9c0.061-0.22,0.11-0.45,0.17-0.67
					c0.03-0.14,0.07-0.28,0.101-0.42c0.1-0.41,0.2-0.82,0.3-1.23v-0.01c0.07-0.29,0.15-0.59,0.22-0.88
					c0.07-0.3,0.141-0.59,0.21-0.89c0.091-0.34,0.17-0.69,0.25-1.03c0.051-0.19,0.101-0.37,0.141-0.56
					c0.02-0.051,0.029-0.101,0.04-0.15c0.14-0.58,0.279-1.15,0.42-1.72c0.04-0.19,0.09-0.38,0.13-0.57c0.37-1.51,0.72-3,1.07-4.46
					c0.26-1.09,0.51-2.17,0.76-3.23c0.09-0.369,0.17-0.739,0.26-1.109C386.8,493.152,385.329,493.103,383.879,493.012
					 M307.509,429.462c0.41,0.13,0.8,0.271,1.19,0.431c0.24,0.09,0.47,0.189,0.7,0.3c0.65,0.29,1.27,0.62,1.86,0.989h0.01
					c0.03,0.03,0.06,0.051,0.09,0.07c0.17,0.101,0.33,0.21,0.5,0.33c0.2,0.14,0.39,0.28,0.58,0.42c0.38,0.29,0.74,0.59,1.08,0.91
					c1.2,1.11,2.17,2.41,2.87,3.83c0.2,0.39,0.37,0.8,0.52,1.21c0.08,0.22,0.15,0.45,0.22,0.68c0.06,0.221,0.12,0.44,0.17,0.66
					c0.05,0.22,0.09,0.44,0.13,0.67c0.03,0.15,0.06,0.311,0.07,0.47c0.02,0.101,0.03,0.211,0.04,0.311
					c0.01,0.13,0.02,0.26,0.03,0.39c0.02,0.25,0.03,0.5,0.03,0.75c0,0.48-0.03,0.96-0.09,1.431c0,0.06-0.01,0.119-0.02,0.18
					c-0.02,0.13-0.04,0.27-0.07,0.4c-0.03,0.159-0.06,0.319-0.09,0.47c-0.06,0.28-0.13,0.55-0.21,0.819
					c-0.06,0.211-0.13,0.421-0.21,0.631c0,0.02-0.01,0.04-0.02,0.06c-0.07,0.19-0.14,0.37-0.22,0.56
					c-0.08,0.19-0.17,0.381-0.26,0.561c-0.04,0.09-0.09,0.18-0.14,0.27c-0.04,0.101-0.09,0.19-0.14,0.28
					c-0.1,0.17-0.2,0.351-0.31,0.521v0.01c-0.01,0.02-0.03,0.04-0.05,0.07c-0.04,0.069-0.08,0.14-0.13,0.199
					c-0.08,0.13-0.17,0.261-0.26,0.391c-0.1,0.149-0.21,0.3-0.32,0.439c-0.07,0.09-0.14,0.181-0.22,0.271
					c-0.08,0.1-0.17,0.21-0.26,0.31c-0.07,0.09-0.15,0.18-0.24,0.271c0,0-0.01,0.01-0.01,0.02c-0.02,0.021-0.03,0.03-0.05,0.04
					c-0.03,0.04-0.07,0.09-0.12,0.13c-0.08,0.101-0.17,0.19-0.27,0.28c-0.08,0.09-0.18,0.189-0.28,0.28
					c-0.21,0.189-0.42,0.39-0.65,0.58c-0.04,0.029-0.08,0.06-0.12,0.1c-0.07,0.05-0.14,0.11-0.22,0.17
					c-0.05,0.04-0.1,0.09-0.16,0.13c-0.4,0.311-0.83,0.601-1.27,0.87c-0.2,0.13-0.42,0.25-0.63,0.37c-0.12,0.07-0.24,0.13-0.36,0.2
					c-0.06,0.029-0.12,0.06-0.18,0.09c-0.12,0.06-0.23,0.12-0.35,0.18c-0.19,0.09-0.39,0.181-0.6,0.26
					c-0.05,0.021-0.09,0.04-0.14,0.061c-0.01,0.01-0.02,0.02-0.04,0.02c-0.02,0.011-0.04,0.021-0.07,0.03
					c-0.04,0.01-0.08,0.03-0.12,0.04c-0.16,0.07-0.32,0.13-0.49,0.19c-0.13,0.05-0.27,0.1-0.41,0.149
					c-0.09,0.021-0.18,0.05-0.27,0.08c0,0-0.01,0.01-0.02,0.01c-0.02,0.011-0.04,0.011-0.06,0.021c-0.1,0.03-0.2,0.06-0.3,0.09v0.01
					h-0.02c-0.11,0.04-0.22,0.07-0.33,0.09c-0.24,0.061-0.49,0.12-0.73,0.17c-0.09,0.03-0.18,0.051-0.27,0.07
					c-0.03,0.01-0.05,0.01-0.08,0.01c-0.03,0.011-0.05,0.021-0.08,0.021c-0.07,0.01-0.14,0.03-0.21,0.03
					c-0.083,0.015-0.163,0.029-0.242,0.046c-0.15,0.023-0.299,0.054-0.448,0.073c-0.11,0.021-0.22,0.04-0.33,0.051
					c-0.2,0.02-0.4,0.04-0.61,0.05c-0.03,0.01-0.07,0.02-0.11,0.01c-0.07,0.021-0.15,0.021-0.22,0.03h-0.09
					c-0.09,0.01-0.19,0.02-0.29,0.01h-0.07c-0.007,0.004-0.013,0.002-0.02,0.004c-0.063,0.002-0.126,0.004-0.19,0.006h-0.07
					c-0.16,0.021-0.33,0.021-0.5,0.021c-0.34,0-0.68-0.01-1.01-0.03c-0.08,0-0.15-0.01-0.23-0.02c-0.11-0.011-0.22-0.021-0.33-0.03
					h-0.03c-0.07-0.01-0.14-0.01-0.2-0.021h-0.05c-0.03-0.01-0.05-0.01-0.08-0.01c-0.05-0.01-0.1-0.01-0.15-0.02
					c-0.09-0.011-0.18-0.021-0.27-0.03c-0.22-0.03-0.43-0.06-0.65-0.1h-0.03c-0.01-0.011-0.02-0.011-0.03-0.011
					c-0.02-0.01-0.05-0.01-0.07-0.01c-0.24-0.05-0.48-0.09-0.72-0.15c-0.16-0.029-0.32-0.069-0.48-0.109
					c-0.25-0.061-0.49-0.13-0.73-0.2c-0.1-0.02-0.2-0.05-0.3-0.09v-0.01c-0.14-0.04-0.27-0.08-0.41-0.13
					c-0.1-0.04-0.21-0.07-0.31-0.11c-0.16-0.05-0.32-0.12-0.48-0.19c-0.05-0.01-0.1-0.029-0.15-0.06
					c-0.04-0.021-0.07-0.03-0.11-0.05c-0.11-0.04-0.22-0.09-0.32-0.141c-0.07-0.029-0.14-0.06-0.2-0.09
					c-0.08-0.04-0.16-0.07-0.23-0.12c-0.14-0.05-0.28-0.12-0.41-0.189c-0.01-0.011-0.01-0.011-0.02-0.011v-0.01
					c-0.02,0-0.03-0.01-0.05-0.02c-0.04-0.021-0.07-0.04-0.11-0.061c-0.22-0.12-0.44-0.239-0.66-0.38c-0.05-0.03-0.1-0.06-0.15-0.09
					c-0.01-0.01-0.03-0.02-0.04-0.03c-0.23-0.14-0.45-0.29-0.67-0.439c-0.46-0.32-0.9-0.66-1.32-1.03
					c-0.21-0.19-0.41-0.38-0.61-0.57c-0.19-0.189-0.38-0.39-0.56-0.59c-0.15-0.16-0.28-0.319-0.42-0.49
					c-0.2-0.239-0.39-0.479-0.57-0.739c-0.01-0.021-0.02-0.03-0.03-0.051c-0.14-0.199-0.27-0.399-0.4-0.609
					c-0.09-0.15-0.18-0.3-0.27-0.46c-0.05-0.07-0.09-0.15-0.12-0.23c-0.03-0.04-0.05-0.09-0.07-0.13c-0.12-0.21-0.23-0.43-0.32-0.66
					c-0.05-0.109-0.1-0.22-0.15-0.34c-0.06-0.14-0.11-0.27-0.15-0.41c-0.01-0.01-0.02-0.02-0.02-0.029
					c-0.08-0.221-0.15-0.45-0.22-0.681c-0.01-0.069-0.04-0.149-0.06-0.229c-0.05-0.15-0.09-0.311-0.12-0.471
					c-0.03-0.109-0.05-0.22-0.07-0.34c-0.04-0.16-0.06-0.319-0.08-0.479c-0.1-0.561-0.14-1.141-0.14-1.73c0-0.09,0-0.17,0.01-0.26
					c0-0.09,0.01-0.18,0.01-0.26c0.01-0.181,0.02-0.351,0.04-0.521c-0.01-0.06,0-0.13,0.01-0.189c0.01-0.11,0.02-0.221,0.05-0.33
					c0.01-0.12,0.03-0.24,0.05-0.36c0.01-0.04,0.01-0.09,0.03-0.13c0.03-0.189,0.07-0.39,0.11-0.58c0.01-0.04,0.02-0.08,0.03-0.12
					c0.06-0.27,0.14-0.54,0.23-0.8c0.01-0.04,0.03-0.08,0.04-0.12c0.01-0.069,0.04-0.14,0.06-0.21c0.02-0.06,0.04-0.109,0.07-0.16
					c0.09-0.279,0.21-0.55,0.33-0.81c0.02-0.021,0.03-0.05,0.04-0.08c0.05-0.11,0.11-0.22,0.17-0.33c0.1-0.21,0.22-0.42,0.33-0.62
					c0.08-0.149,0.17-0.29,0.26-0.439c0.1-0.141,0.19-0.28,0.29-0.431c0.1-0.14,0.2-0.279,0.3-0.41c0.02-0.04,0.05-0.079,0.08-0.119
					c0.03-0.04,0.06-0.07,0.08-0.11c0.06-0.061,0.1-0.12,0.16-0.18c0.04-0.061,0.1-0.131,0.14-0.19c0.3-0.35,0.61-0.68,0.94-1
					c0.16-0.15,0.32-0.3,0.49-0.45c0.16-0.14,0.32-0.279,0.48-0.41c0.02-0.02,0.03-0.029,0.05-0.04c0.17-0.14,0.34-0.27,0.52-0.399
					c0.06-0.05,0.13-0.101,0.19-0.141c0.1-0.069,0.2-0.14,0.31-0.199l0.01-0.011c0.02-0.02,0.03-0.029,0.05-0.04
					c0.18-0.119,0.37-0.239,0.55-0.35c0.1-0.06,0.21-0.12,0.31-0.18c0.26-0.16,0.53-0.3,0.8-0.44c0.06-0.03,0.11-0.05,0.17-0.069
					c0.08-0.051,0.17-0.091,0.25-0.131c0.06-0.029,0.11-0.05,0.16-0.069h0.01c0.2-0.101,0.4-0.181,0.6-0.261
					c0.06-0.029,0.12-0.06,0.18-0.079c0.03-0.011,0.05-0.021,0.08-0.03c0.27-0.101,0.53-0.2,0.8-0.28c0.41-0.14,0.84-0.26,1.27-0.37
					c0.3-0.08,0.6-0.14,0.91-0.189c0.16-0.04,0.32-0.07,0.48-0.09c0.23-0.04,0.46-0.07,0.7-0.101c0.44-0.06,0.89-0.09,1.35-0.11
					c0.26-0.01,0.52-0.02,0.79-0.02c0.26,0,0.53,0,0.79,0.02c0.16,0,0.32,0.011,0.47,0.03c0.68,0.05,1.34,0.13,1.99,0.25
					c0.15,0.03,0.29,0.061,0.43,0.09c0.25,0.04,0.49,0.101,0.73,0.16C306.939,429.292,307.219,429.372,307.509,429.462"/>
			</g>
		</g>
		<path clip-path="url(#SVGID_7_)" fill="#F4EAC1" d="M317.6,441.882c0,7.303-6.88,13.224-15.368,13.224
			s-15.369-5.921-15.369-13.224s6.881-13.224,15.369-13.224S317.6,434.579,317.6,441.882"/>
		<path clip-path="url(#SVGID_7_)" fill="#F4EAC1" d="M391.225,441.882c0,7.303-6.881,13.224-15.368,13.224
			c-8.488,0-15.369-5.921-15.369-13.224s6.881-13.224,15.369-13.224C384.344,428.658,391.225,434.579,391.225,441.882"/>
		<path clip-path="url(#SVGID_7_)" fill="#1C1C65" d="M317.488,443.49L317.488,443.49c-0.924,6.545-7.402,11.615-15.257,11.615
			c-3.345,0-6.441-0.919-8.965-2.481c2.525,1.566,5.623,2.489,8.973,2.489C310.084,455.113,316.573,450.03,317.488,443.49"/>
		<path clip-path="url(#SVGID_7_)" fill="#EBDA9B" d="M296.733,429.546c-5.761,1.898-9.861,6.709-9.861,12.335
			c0,4.421,2.522,8.339,6.395,10.743c2.523,1.563,5.62,2.482,8.965,2.482c7.855,0,14.333-5.071,15.256-11.615
			c-1.711,0.559-3.558,0.864-5.506,0.864c-8.489,0-15.367-5.932-15.367-13.233C296.615,430.58,296.647,430.054,296.733,429.546"/>
		<path clip-path="url(#SVGID_7_)" fill="#EBDA9B" d="M370.353,429.546c-5.762,1.898-9.861,6.709-9.861,12.335
			c0,3.313,1.416,6.345,3.756,8.666c2.818,2.793,6.974,4.56,11.609,4.56c6.132,0,11.425-3.091,13.891-7.561
			c0.001-0.002,0.002-0.004,0.004-0.006c0.001-0.003,0.003-0.007,0.005-0.01c0.688-1.252,1.152-2.611,1.353-4.04
			c-1.712,0.56-3.575,0.865-5.507,0.865c-8.473,0-15.368-5.932-15.368-13.233C370.233,430.58,370.268,430.054,370.353,429.546"/>
		<polygon clip-path="url(#SVGID_7_)" fill="#F4EAC1" points="379.32,460.025 370.42,512.535 313.71,512.535 304.788,459.892 
			315.636,459.892 320.65,459.914 325.661,459.914 330.674,459.937 334.86,459.937 339.872,459.958 349.269,459.958 
			355.102,459.981 360.111,459.981 365.119,460.003 374.313,460.003 		"/>
		<polygon clip-path="url(#SVGID_7_)" fill="#38393A" points="339.871,459.959 340.396,512.535 336.584,512.535 334.86,459.937 		
			"/>
		<polygon clip-path="url(#SVGID_7_)" fill="#38393A" points="330.674,459.937 333.398,512.535 329.586,512.535 325.661,459.914 		
			"/>
		<polygon clip-path="url(#SVGID_7_)" fill="#38393A" points="320.65,459.914 325.773,512.535 321.962,512.535 315.636,459.892 		
			"/>
		<polygon clip-path="url(#SVGID_7_)" fill="#38393A" points="309.799,459.892 317.522,512.535 313.71,512.535 304.788,459.892 		
			"/>
		<polygon clip-path="url(#SVGID_7_)" fill="#38393A" points="379.32,460.025 370.42,512.535 366.607,512.535 374.313,460.003 		"/>
		<polygon clip-path="url(#SVGID_7_)" fill="#38393A" points="370.129,460.003 363.423,512.535 359.609,512.535 365.119,460.003 		
			"/>
		<polygon clip-path="url(#SVGID_7_)" fill="#38393A" points="360.111,459.98 355.798,512.535 351.985,512.535 355.102,459.98 		"/>
		<polygon clip-path="url(#SVGID_7_)" fill="#38393A" points="349.269,459.959 347.546,512.535 343.733,512.535 344.259,459.959 		
			"/>
		<path clip-path="url(#SVGID_7_)" fill="#38393A" d="M364.3,409.836l21.444-88.874l18.109,9.292l-29.069,80.535
			C374.784,410.789,368.352,414.839,364.3,409.836"/>
		<polygon clip-path="url(#SVGID_7_)" fill="#999999" points="385.736,320.955 373.013,373.722 373.014,373.724 385.744,320.962 
			390.735,323.523 390.737,323.518 		"/>
		<rect x="390.624" y="324.008" clip-path="url(#SVGID_7_)" fill="#19191A" width="2.142" height="0.007"/>
		<polyline clip-path="url(#SVGID_7_)" fill="#CFBCA9" points="373.013,373.722 372.332,376.546 373.013,373.724 373.013,373.722 		
			"/>
		<polyline clip-path="url(#SVGID_7_)" fill="#BFA892" points="372.332,376.546 371.521,379.91 372.332,376.546 		"/>
		<path clip-path="url(#SVGID_7_)" fill="#35357D" d="M364.59,410.172h-0.011c0.09,0.101,0.181,0.19,0.28,0.29
			C364.77,410.362,364.68,410.272,364.59,410.172 M368.409,412.252c0.01,0.01,0.021,0.01,0.021,0.01c0.029,0,0.069,0.011,0.1,0.011
			C368.499,412.272,368.449,412.262,368.409,412.252 M370.02,412.322c0.02,0,0.04,0,0.06-0.01c-0.01,0-0.02,0.01-0.04,0
			C370.039,412.313,370.029,412.313,370.02,412.322 M372.159,411.922c-0.14,0.04-0.28,0.08-0.43,0.12
			c0.14-0.03,0.27-0.069,0.399-0.1c0.04-0.021,0.07-0.03,0.11-0.03v-0.01C372.209,411.912,372.189,411.922,372.159,411.922
			 M372.409,411.853c0.03-0.011,0.061-0.021,0.08-0.021v-0.01C372.459,411.832,372.439,411.842,372.409,411.853 M372.569,411.792
			c-0.02,0.01-0.05,0.021-0.08,0.03c0.021-0.01,0.04-0.01,0.05-0.01c0.08-0.03,0.16-0.061,0.24-0.09
			C372.709,411.742,372.649,411.772,372.569,411.792 M373.649,411.372c0.01,0,0.03-0.01,0.04-0.01c0.02-0.01,0.03-0.021,0.04-0.03
			C373.709,411.353,373.68,411.362,373.649,411.372 M373.909,411.252c-0.01,0.01-0.03,0.021-0.05,0.03
			c0.02-0.01,0.04-0.021,0.07-0.03c0.069-0.029,0.14-0.069,0.199-0.1C374.06,411.183,373.989,411.223,373.909,411.252
			 M374.779,410.792h0.01l0.42-1.18L374.779,410.792z"/>
		<path clip-path="url(#SVGID_7_)" fill="#242463" d="M369.813,412.332h-0.05c-0.091,0.003-0.182,0.005-0.271,0.005
			c-0.089,0-0.179-0.002-0.268-0.005h-0.046c0.105,0.004,0.21,0.006,0.314,0.006C369.6,412.338,369.706,412.336,369.813,412.332"/>
		<path clip-path="url(#SVGID_7_)" fill="#262728" d="M385.744,320.962l-12.731,52.761l-0.681,2.824l-0.811,3.363l-7.219,29.931
			c1.469,1.81,3.247,2.432,4.92,2.491c0.09,0.003,0.18,0.004,0.269,0.004c0.091,0,0.181-0.001,0.271-0.004
			c2.719-0.093,5.022-1.544,5.022-1.544l0.715-1.982c-0.947-0.355-1.878-0.999-2.707-2.032l19.856-82.27l-1.907-0.978l-0.005-0.004
			L385.744,320.962z"/>
		<path clip-path="url(#SVGID_7_)" fill="#C7B29E" d="M317.567,383.597L317.567,383.597c-0.026,0.146-0.064,0.287-0.115,0.424
			C317.504,383.883,317.542,383.742,317.567,383.597"/>
		<path clip-path="url(#SVGID_7_)" fill="#2F3031" d="M316.27,377.968c0.541,1.146,0.925,2.254,1.085,3.14
			c0.207,1.152,0.317,1.88,0.212,2.49l0.001-0.001c0.106-0.612-0.006-1.341-0.214-2.495
			C317.192,380.216,316.81,379.111,316.27,377.968"/>
		<path clip-path="url(#SVGID_7_)" fill="#C7B29E" d="M296.217,387.319c0.193,0.602,0.434,1.152,0.736,1.593
			c0.085,0.121,0.185,0.24,0.298,0.356c0.004,0.001,0.008,0.002,0.012,0.003c-0.116-0.119-0.219-0.242-0.306-0.368
			C296.653,388.463,296.41,387.915,296.217,387.319"/>
		<path clip-path="url(#SVGID_7_)" fill="#2F3031" d="M368.31,389.129c-0.449,0.521-1.167,0.986-2.016,1.364
			c0.85-0.377,1.568-0.841,2.02-1.357C368.313,389.134,368.311,389.131,368.31,389.129"/>
		<path clip-path="url(#SVGID_7_)" fill="#CCA279" d="M367.619,383.231c0,0,0.087,4.131-1.175,5.958
			c-1.261,1.825-6.783,2.912-7.653,1.131c-3.61,0.434-4.131-1.176-4.131-1.176s-2.959,0.215-2.74-1.914
			c-1.87-1.738-1.928-1.965-1.53-4.178c0.399-2.214,2.574-6.171,4.835-7.346c2.262-1.173,5.088-1.913,9.045,2.218
			C367.793,381.361,367.619,383.231,367.619,383.231"/>
		<path clip-path="url(#SVGID_7_)" fill="#987957" d="M358.791,390.319c0.313-1.097,0.94-1.912,1.65-2.646
			c0.373-0.351,0.762-0.688,1.214-0.957c0.444-0.27,0.943-0.527,1.527-0.572c-0.511,0.987-1.087,1.764-1.805,2.478
			C360.65,389.311,359.867,389.946,358.791,390.319"/>
		<path clip-path="url(#SVGID_7_)" fill="#987957" d="M360.986,383.008c-0.906,1.281-1.979,2.267-3.048,3.248l-1.638,1.41
			c-0.548,0.474-1.099,0.912-1.642,1.479c0.036-0.807,0.433-1.542,0.864-2.172c0.438-0.643,0.967-1.202,1.527-1.712
			C358.197,384.271,359.469,383.432,360.986,383.008"/>
		<path clip-path="url(#SVGID_7_)" fill="#987957" d="M358.182,379.404c-1.005,1.466-2.154,2.674-3.255,3.912
			c-0.57,0.601-1.096,1.225-1.625,1.844c-0.513,0.637-1.024,1.255-1.382,2.069c-0.2-0.899,0.113-1.839,0.505-2.629
			c0.398-0.808,0.93-1.527,1.515-2.179C355.136,381.143,356.516,380.051,358.182,379.404"/>
		<path clip-path="url(#SVGID_7_)" fill="#CCA279" d="M300.398,383.231c0,0-0.087,4.131,1.174,5.958
			c1.261,1.825,6.784,2.912,7.654,1.131c3.61,0.434,4.131-1.176,4.131-1.176s2.958,0.215,2.74-1.914
			c1.87-1.738,1.928-1.965,1.53-4.178c-0.399-2.214-2.574-6.171-4.835-7.346c-2.262-1.173-5.088-1.913-9.046,2.218
			C300.225,381.361,300.398,383.231,300.398,383.231"/>
		<path clip-path="url(#SVGID_7_)" fill="#987957" d="M309.226,390.319c-0.313-1.097-0.941-1.912-1.651-2.646
			c-0.373-0.351-0.761-0.688-1.214-0.957c-0.444-0.27-0.943-0.527-1.527-0.572c0.511,0.987,1.088,1.764,1.805,2.478
			C307.366,389.311,308.15,389.946,309.226,390.319"/>
		<path clip-path="url(#SVGID_7_)" fill="#987957" d="M307.03,383.008c0.907,1.281,1.979,2.267,3.048,3.248l1.638,1.41
			c0.548,0.474,1.099,0.912,1.642,1.479c-0.037-0.807-0.433-1.542-0.865-2.172c-0.437-0.643-0.967-1.202-1.527-1.712
			C309.82,384.271,308.548,383.432,307.03,383.008"/>
		<path clip-path="url(#SVGID_7_)" fill="#987957" d="M309.835,379.404c1.005,1.466,2.155,2.674,3.255,3.912
			c0.57,0.601,1.096,1.225,1.625,1.844c0.513,0.637,1.024,1.255,1.382,2.069c0.2-0.899-0.113-1.839-0.505-2.629
			c-0.398-0.808-0.93-1.527-1.515-2.179C312.881,381.143,311.501,380.051,309.835,379.404"/>
		<g opacity="0.35" clip-path="url(#SVGID_7_)">
			<g>
				<defs>
					<rect id="SVGID_16_" x="422.676" y="155.83" width="45.724" height="130.941"/>
				</defs>
				<clipPath id="SVGID_17_">
					<use xlink:href="#SVGID_16_"  overflow="visible"/>
				</clipPath>
				<path clip-path="url(#SVGID_17_)" fill="#7F7F7D" d="M422.676,282.808c0,0,10.16,8.077,20.996-6.363
					c10.837-14.44,4.775-46.879,5.327-66.624c0.551-19.745,19.399-53.992,19.399-53.992s-16.461,26.229-16.829,64.616
					c-0.367,38.387,2.204,49.38-3.673,59.484C442.019,290.033,424.09,287.111,422.676,282.808"/>
			</g>
		</g>
		<g opacity="0.35" clip-path="url(#SVGID_7_)">
			<g>
				<defs>
					<rect id="SVGID_18_" x="426.407" y="201.006" width="21.522" height="77.046"/>
				</defs>
				<clipPath id="SVGID_19_">
					<use xlink:href="#SVGID_18_"  overflow="visible"/>
				</clipPath>
				<path clip-path="url(#SVGID_19_)" fill="#7F7F7D" d="M444.406,201.006c0,0,6.43,24.682-1.469,48.658
					c-7.897,23.976-16.531,26.781-16.531,26.781s11.755,7.068,15.796-8.446S451.569,222.163,444.406,201.006"/>
			</g>
		</g>
		<g opacity="0.35" clip-path="url(#SVGID_7_)">
			<g>
				<defs>
					<rect id="SVGID_20_" x="433.938" y="221.3" width="25.414" height="75.618"/>
				</defs>
				<clipPath id="SVGID_21_">
					<use xlink:href="#SVGID_20_"  overflow="visible"/>
				</clipPath>
				<path clip-path="url(#SVGID_21_)" fill="#7F7F7D" d="M455.794,221.3c-1.652,24.485-2.02,52.797-4.959,63.147
					c-2.938,10.35-16.897,5.585-16.897,5.585s18.86,18.267,23.665-4.704C462.406,262.357,455.794,221.3,455.794,221.3"/>
			</g>
		</g>
		<path clip-path="url(#SVGID_7_)" fill="#A3A3A3" d="M253.701,272.282c-2.586-20.877,12.853-37.084,33.811-35.782
			c6.238,0.398,12.327,2.4,17.617,5.66c-5.587-2.504-11.576-3.996-17.677-4.1C267.102,237.868,253.72,252.16,253.701,272.282"/>
		<path clip-path="url(#SVGID_7_)" fill="#A3A3A3" d="M295.211,191.466c9.316,11.18,22.712,18.77,37.248,20.118
			c4.803,0.487,9.679,0.367,14.549-0.281C327.959,217.327,305.301,208.646,295.211,191.466"/>
		<path clip-path="url(#SVGID_7_)" fill="#A3A3A3" d="M385.212,228.201c12.451,7.704,16.92,24.189,8.429,36.533
			c-2.615,3.848-6.179,7.011-10.267,9.018c5.613-4.208,9.987-9.901,11.806-16.636C398.081,246.314,393.372,235.487,385.212,228.201"
			/>
		<path clip-path="url(#SVGID_7_)" fill="#A3A3A3" d="M215.864,281.833c-11.773,8.444-15.658,22.545-9.183,35.633
			C197.131,305.695,202.032,287.67,215.864,281.833"/>
		<path clip-path="url(#SVGID_7_)" fill="#4C6580" d="M334.756,388.82c0,0.383-0.311,0.692-0.692,0.692s-0.69-0.31-0.69-0.692
			c0-0.382,0.309-0.691,0.69-0.691S334.756,388.438,334.756,388.82"/>
		<path clip-path="url(#SVGID_7_)" fill="#4C6580" d="M335.225,382.712c0,0.382-0.311,0.692-0.692,0.692s-0.69-0.311-0.69-0.692
			s0.309-0.692,0.69-0.692S335.225,382.33,335.225,382.712"/>
		<path clip-path="url(#SVGID_7_)" fill="#4C6580" d="M332.277,364.271c0,0.382-0.311,0.692-0.692,0.692s-0.691-0.311-0.691-0.692
			s0.31-0.691,0.691-0.691S332.277,363.89,332.277,364.271"/>
	</g>
</g>
</svg>
