<svg xmlns="http://www.w3.org/2000/svg" width="186" height="105" fill="none"><path fill="#F4A17C" fill-rule="evenodd" d="M.629 54.191c4.757 9.183 12.159 23.47 37.945 19.042 20.76-3.566 26.886 7.517 32.63 17.91.967 1.748 1.922 3.476 2.934 5.112 1.452 2.345 4.091 3.593 6.85 3.593H84a9 9 0 0 0 9-9V40.864a9 9 0 0 0-5.552-8.313l-75-31.108C6.522-1.015 0 3.34 0 9.756V51.62c0 .895.217 1.777.629 2.572Zm184.742 0c-4.757 9.183-12.159 23.47-37.945 19.042-20.759-3.566-26.886 7.517-32.631 17.91-.966 1.748-1.921 3.476-2.934 5.112-1.451 2.345-4.091 3.593-6.849 3.593H102a9 9 0 0 1-9-9V40.864a9 9 0 0 1 5.552-8.313l75-31.108C179.478-1.015 186 3.34 186 9.756V51.62c0 .895-.217 1.777-.629 2.572Z" clip-rule="evenodd"/><path fill="#F5E2D5" d="M110.175 13.498s1.122.125 2.083.985c.961.86 1.847-1.332.257-1.78a2.05 2.05 0 0 0-2.34.795Zm-1.067-.1s.733-.851 1.99-1.158c1.256-.306-.08-2.261-1.344-1.21-1.262 1.056-.646 2.368-.646 2.368Zm-14.65 5.09s-.78.808-.96 2.08c-.181 1.269-2.28.151-1.35-1.202.928-1.353 2.31-.878 2.31-.878Zm.756-.754s-1.114-.187-2.277.377c-1.163.564-1.404-1.785.25-1.782a2.036 2.036 0 0 1 2.027 1.405Zm16.178 7.416c2.435-3.974 1.158-9.15-2.852-11.563-4.01-2.413-9.235-1.147-11.67 2.826-2.435 3.974-1.158 9.15 2.852 11.564 4.011 2.412 9.235 1.147 11.67-2.827Z"/><path fill="#3F4553" d="M97.548 19.347a.33.33 0 0 1-.375-.16.322.322 0 0 1 .134-.439l2.116-1.13-1.418-.05a.328.328 0 0 1-.317-.336.328.328 0 0 1 .339-.314l2.627.09a.33.33 0 0 1 .309.251.324.324 0 0 1-.164.361l-3.183 1.7a.515.515 0 0 1-.068.027Zm11.325-3.086a.36.36 0 0 1-.077.011l-3.456.109a.325.325 0 0 1-.187-.602l2.335-1.443a.329.329 0 0 1 .451.103.322.322 0 0 1-.104.448l-1.299.802 2.238-.07a.328.328 0 0 1 .099.642Zm-11.467 4.551c1.8 3.29 4.997 5.163 7.941 4.36 2.942-.803 4.724-4.035 4.574-7.771l-1.136.116a32.827 32.827 0 0 0-10.484 2.88l-.895.415Z"/><path fill="#4E5567" d="M108.949 21.623c-1.275-.415-2.887-.45-4.532 0-1.677.458-3.065 1.328-3.943 2.359 1.491.957 3.177 1.326 4.789.887 1.631-.448 2.901-1.638 3.686-3.246Z"/><path fill="#F5E2D5" d="M52.497 53.653c1.301-4.466-1.298-9.132-5.806-10.42-4.508-1.29-9.216 1.286-10.517 5.752-1.301 4.467 1.298 9.132 5.806 10.421 4.508 1.29 9.216-1.286 10.517-5.753Z"/><path fill="#3F4553" d="M39.995 46.21a.324.324 0 0 1 .178-.622l2.373.38-1.095-.892a.324.324 0 0 1-.044-.459.331.331 0 0 1 .463-.043l2.03 1.657c.115.092.15.252.09.385a.328.328 0 0 1-.35.187l-3.571-.57c-.028-.008-.052-.013-.074-.024Zm10.881 4.379a.339.339 0 0 1-.068-.038L48 48.552a.325.325 0 0 1 .224-.588l2.737.263c.18.016.312.176.296.355a.328.328 0 0 1-.359.293l-1.524-.147 1.82 1.294a.32.32 0 0 1 .074.453.328.328 0 0 1-.392.114Zm-5.47 4.268c-1.24 0-2.346-.277-3.309-.827-2.537-1.451-3.123-4.266-3.147-4.385a.41.41 0 0 1 .805-.157c.005.024.544 2.578 2.76 3.842 1.615.922 3.728.952 6.282.09a.408.408 0 1 1 .262.77c-1.322.442-2.542.667-3.653.667Z"/><path fill="#F5E2D5" d="M95.586 77.452a9.195 9.195 0 0 0 0-13.088c-3.647-3.615-9.561-3.615-13.21 0a9.195 9.195 0 0 0 .001 13.088c3.648 3.614 9.562 3.614 13.21 0Z"/><path fill="#3F4553" d="M83.72 73.936s6.007-3.398 11.795-4.22c0 0 1.661 5.424-3.873 7.523-4.797 1.82-7.922-3.303-7.922-3.303Zm1.185-2.614a.55.55 0 0 1-.487-.293l-1.363-2.609a.542.542 0 0 1 .235-.732.551.551 0 0 1 .74.233l1.362 2.609a.542.542 0 0 1-.487.792Zm7.263-2.612a.545.545 0 0 1-.534-.428L91 65.312a.547.547 0 0 1 1.07-.225l.635 2.97a.542.542 0 0 1-.536.653Z"/><path fill="#4E5567" d="M93.112 76.157c-.504-1.229-2.263-1.73-3.982-1.117-.952.341-1.691.954-2.093 1.645 1.245.621 2.794.9 4.572.225a7.65 7.65 0 0 0 1.503-.753Z"/><path fill="#F5E2D5" d="M143.018 46.92c4.739-2.018 6.931-7.46 4.895-12.157-2.036-4.696-7.529-6.868-12.269-4.85-4.739 2.017-6.931 7.46-4.895 12.156 2.036 4.696 7.529 6.868 12.269 4.85Z"/><path fill="#3F4553" d="M140.522 40.477c-3.226 0-5.676-1.86-5.711-1.888a.27.27 0 0 1-.047-.38.275.275 0 0 1 .383-.045c.197.151 4.88 3.696 9.757.387a.276.276 0 0 1 .38.07.268.268 0 0 1-.071.378c-1.62 1.098-3.235 1.478-4.691 1.478Zm2.663-4.914c0 .57-.224 1.033-.504 1.033-.279 0-.503-.46-.503-1.033 0-.572.224-1.033.503-1.033.28 0 .504.464.504 1.033Zm-4.836-.198c0 .57-.224 1.033-.503 1.033s-.504-.46-.504-1.033c0-.57.225-1.033.504-1.033s.503.461.503 1.033Z"/><path fill="#F4A17C" d="M115.71 102.889c12.588 0 22.793-2.285 22.793-5.104 0-2.818-10.205-5.103-22.793-5.103s-22.792 2.285-22.792 5.103c0 2.819 10.204 5.104 22.792 5.104Z"/><path fill="#F4A17C" d="M115.71 102.889c12.588 0 22.793-2.285 22.793-5.104 0-2.818-10.205-5.103-22.793-5.103s-22.792 2.285-22.792 5.103c0 2.819 10.204 5.104 22.792 5.104Z" opacity=".5"/><path fill="#3F4553" d="M113.946 30.322s-1.746-.158-1.905-1.73c-.158-1.573 3.971-3.542 6.59-3.62 2.622-.08 5.162 2.754 5.162 5.035 0 2.28.397 5.507 2.381 6.136 1.984.63 3.336 4.486 2.143 5.901-1.191 1.416-1.111 1.416.079 2.677 1.19 1.258.159 3.462-.635 3.934s-3.177 1.18-8.497.708-8.498-5.272-8.736-7.24c-.238-1.966 1.587-3.306 2.222-4.17.635-.866-.476-1.574-.397-2.52.08-.944 1.27-1.73 1.588-2.52.323-.783.005-2.591.005-2.591Z"/><path fill="#3F4553" d="M122.515 49.653a36.83 36.83 0 0 1-3.26-.157c-5.577-.497-8.637-5.53-8.859-7.357-.194-1.595.901-2.771 1.697-3.631a7.93 7.93 0 0 0 .553-.635c.32-.439.126-.832-.099-1.29-.177-.358-.358-.727-.322-1.158.049-.6.492-1.115.922-1.61.284-.332.553-.644.676-.947.26-.643.065-2.045.008-2.427-.4-.068-1.779-.407-1.924-1.839-.038-.371.129-.767.49-1.177 1.147-1.293 4.116-2.53 6.231-2.592 1.196-.032 2.474.523 3.525 1.535 1.098 1.055 1.779 2.449 1.779 3.639 0 1.974.298 5.377 2.288 6.009 1.043.33 2.009 1.543 2.463 3.086.372 1.266.276 2.4-.254 3.032-1.079 1.28-1.079 1.28-.031 2.383l.107.111c.594.627.624 1.413.548 1.96-.14.999-.728 1.894-1.213 2.184-.41.238-1.822.881-5.325.881Zm-3.78-24.549c-.033 0-.066 0-.101.003-2.017.06-4.951 1.274-6.035 2.5-.311.35-.454.678-.424.97.145 1.446 1.765 1.609 1.782 1.612a.136.136 0 0 1 .123.11c.014.077.32 1.858-.008 2.672-.14.344-.422.672-.72 1.02-.399.466-.815.946-.857 1.458-.03.358.137.692.296 1.017.244.49.493.998.077 1.57a7.838 7.838 0 0 1-.572.66c-.761.82-1.804 1.946-1.626 3.416.214 1.77 3.188 6.638 8.613 7.12 5.856.521 7.92-.395 8.415-.688.421-.25.955-1.082 1.084-1.988.068-.49.041-1.19-.477-1.738l-.104-.111c-1.127-1.188-1.182-1.313.022-2.744.474-.564.55-1.603.203-2.782-.35-1.196-1.193-2.558-2.283-2.902-2.156-.683-2.476-4.22-2.476-6.267 0-1.12-.649-2.438-1.694-3.444-.98-.935-2.151-1.464-3.238-1.464Z"/><path fill="#AC9B8F" d="M126.611 42.969a.339.339 0 0 1-.087-.008.136.136 0 0 1-.104-.163.137.137 0 0 1 .164-.103c.003 0 .134.022.298-.098.211-.152.49-.534.63-1.507.18-1.253-1.823-2.897-3.941-4.635-.942-.773-1.916-1.572-2.77-2.391-2.829-2.715-3.229-5.925-3.234-5.958a.136.136 0 0 1 .12-.15.142.142 0 0 1 .151.12c.002.03.394 3.151 3.152 5.792.846.811 1.815 1.608 2.753 2.376 2.275 1.865 4.239 3.479 4.037 4.88-.126.871-.38 1.444-.758 1.701a.694.694 0 0 1-.411.144Zm-13.497-13.936c-.887 0-1.169-.341-1.182-.36a.133.133 0 0 1 .024-.19.137.137 0 0 1 .192.024c.003.003.46.51 2.148.09 1.774-.44 3.58-1.858 3.596-1.874a.137.137 0 0 1 .192.022.134.134 0 0 1-.022.19c-.077.06-1.869 1.47-3.7 1.922-.509.13-.92.176-1.248.176Z"/><path fill="#E49621" d="M105.607 95.028s1.183 1.537 2.504 2.261c1.322.724 3.695.225 3.011-1.491-.684-1.717-1.779-2.623-2.6-2.937-.821-.317-2.956.493-2.915 2.167Z"/><path fill="#3F4553" d="M109.455 97.747a2.99 2.99 0 0 1-1.409-.339c-1.333-.73-2.499-2.234-2.548-2.296a.134.134 0 0 1-.028-.08c-.016-.712.34-1.36 1.008-1.827.673-.469 1.573-.672 2.093-.472.411.158 1.812.841 2.677 3.016.243.61.142 1.152-.285 1.524-.358.314-.922.474-1.508.474Zm-3.711-2.766c.184.23 1.262 1.549 2.433 2.192.816.444 2.033.395 2.608-.104.34-.295.411-.716.211-1.22-.824-2.072-2.14-2.714-2.523-2.86-.381-.147-1.172-.022-1.837.441-.336.23-.892.74-.892 1.551Z"/><path fill="#F1BD54" d="m107.29 96.7.014.041c.257.204.528.393.807.545 1.322.724 3.695.225 3.011-1.491-2.143-1.307-3.832.906-3.832.906Z"/><path fill="#3F4553" d="M109.455 97.747a2.99 2.99 0 0 1-1.409-.339 5.955 5.955 0 0 1-.827-.558.13.13 0 0 1-.046-.068l-.014-.043a.132.132 0 0 1 .022-.122c.019-.022 1.787-2.297 4.012-.939a.14.14 0 0 1 .055.065c.243.61.142 1.153-.285 1.524-.358.32-.922.48-1.508.48Zm-1.987-1.046c.247.19.485.347.709.472.816.444 2.033.395 2.608-.104.329-.287.408-.691.227-1.176-1.787-1.06-3.218.423-3.544.808Z"/><path fill="#F1BD54" d="M108.111 97.29c1.24.677 3.402.284 3.104-1.183-.444.469-1.328 1.044-2.556.594-1.319-.48-2.45-1.795-2.918-2.4-.087.22-.142.46-.134.727 0 0 1.182 1.537 2.504 2.261Z"/><path fill="#3F4553" d="M109.455 97.745c-.49 0-.996-.112-1.41-.34-1.332-.729-2.498-2.234-2.547-2.296a.134.134 0 0 1-.028-.079 1.956 1.956 0 0 1 .145-.78.136.136 0 0 1 .11-.085.136.136 0 0 1 .126.052c.427.55 1.557 1.882 2.854 2.356 1.262.461 2.105-.238 2.408-.561.036-.038.088-.052.137-.038a.133.133 0 0 1 .096.103c.104.515-.068.968-.487 1.272-.356.266-.87.396-1.404.396Zm-3.711-2.764c.183.23 1.262 1.549 2.433 2.192.763.417 1.921.4 2.523-.038.263-.19.4-.437.405-.735-.446.38-1.305.865-2.496.43-1.223-.447-2.293-1.6-2.819-2.245-.03.13-.046.26-.046.396Z"/><path fill="#E49621" d="M125.432 94.97s-1.182 1.538-2.504 2.262-3.695.225-3.01-1.491c.684-1.717 1.778-2.622 2.6-2.937.821-.317 2.955.493 2.914 2.167Z"/><path fill="#3F4553" d="M121.585 97.69c-.586 0-1.15-.162-1.511-.477-.427-.371-.528-.91-.285-1.524.865-2.172 2.269-2.855 2.677-3.015.52-.2 1.42.003 2.093.472.668.463 1.027 1.114 1.007 1.827a.14.14 0 0 1-.027.079c-.049.065-1.215 1.57-2.548 2.297a2.975 2.975 0 0 1-1.406.341Zm1.354-4.82a1.08 1.08 0 0 0-.375.056c-.383.147-1.696.792-2.523 2.86-.2.505-.129.926.211 1.221.574.502 1.792.548 2.608.103 1.171-.64 2.249-1.958 2.433-2.188 0-.81-.556-1.32-.892-1.554-.49-.342-1.049-.499-1.462-.499Z"/><path fill="#F1BD54" d="m123.749 96.644-.014.04a5.759 5.759 0 0 1-.807.545c-1.322.724-3.695.225-3.011-1.491 2.143-1.31 3.832.906 3.832.906Z"/><path fill="#3F4553" d="M121.584 97.69c-.585 0-1.149-.162-1.51-.477-.427-.371-.529-.91-.285-1.524a.128.128 0 0 1 .055-.065c2.225-1.358 3.995.914 4.012.938a.135.135 0 0 1 .022.122l-.014.041a.125.125 0 0 1-.047.065 6.07 6.07 0 0 1-.826.559 2.98 2.98 0 0 1-1.407.341Zm-1.557-1.86c-.181.486-.101.892.227 1.177.575.502 1.793.548 2.608.103.225-.122.463-.28.709-.472-.328-.382-1.76-1.863-3.544-.808Z"/><path fill="#F1BD54" d="M122.928 97.232c-1.24.678-3.402.285-3.103-1.182.443.469 1.327 1.044 2.556.594 1.319-.48 2.449-1.795 2.917-2.4.088.22.142.46.134.727 0 0-1.182 1.537-2.504 2.261Z"/><path fill="#3F4553" d="M121.584 97.688c-.533 0-1.048-.133-1.409-.393-.419-.304-.591-.757-.487-1.272a.136.136 0 0 1 .096-.103.133.133 0 0 1 .136.038c.304.323 1.147 1.02 2.409.561 1.297-.474 2.43-1.806 2.854-2.356a.141.141 0 0 1 .126-.052c.049.006.09.038.109.084.102.255.151.518.146.781 0 .03-.011.057-.028.079-.049.065-1.215 1.57-2.548 2.297-.407.225-.914.336-1.404.336Zm-1.653-1.348c.009.298.143.545.405.735.603.44 1.76.456 2.524.038 1.171-.64 2.249-1.958 2.433-2.188a1.61 1.61 0 0 0-.05-.396c-.525.642-1.595 1.798-2.818 2.245-1.188.431-2.048-.054-2.494-.434Z"/><path fill="#FED9CE" d="M116.168 36.035s-.317 2.598-.555 3.148c-.238.55-3.177.708-4.447 1.18s-3.971 2.755-5.638 4.328c-1.667 1.572-3.177 5.743-3.177 6.293 0 .55 1.666-1.572 3.177-3.07 1.508-1.493 4.844-3.383 4.844-3.383s1.193 5.854 1.352 6.486c.159.63-.003 1.678-.003 1.914s-3.336 5.98-3.891 10.78c-.556 4.799.476 13.927.476 13.927s-1.826 3.541-1.984 7.476c-.159 3.934-1.032 8.577-.953 8.891.08.315-.158.944.238 1.023.397.078.715-1.023 1.667-1.259.952-.236 2.222.394 2.384-.236.158-.629 0-1.887.158-3.541.159-1.651 2.781-8.42 2.94-10.7.158-2.28 2.063-13.456 2.463-14.006l.397-.55s.396-.944.634.078c.239 1.022 0 11.172.477 12.669.476 1.494 4.228 11.533 4.704 12.712.476 1.18-.556 2.598-.238 3.227.317.63 1.19.394 1.984.394s1.62 1.155 2.255 1.155c.635 0 .843-.92.843-1.942 0-1.022-2.8-10.982-2.958-13.423-.159-2.44-.715-4.328-.715-4.328s1.032-11.25.794-13.69c-.238-2.441-2.302-8.657-2.302-8.657l1.429-7.768s4.368 2.44 5.876 4.406c1.508 1.966 2.542 1.887 2.381.314-.159-1.572-3.892-6.215-5.876-8.262-1.984-2.045-4.685-1.651-5.479-2.202-.794-.55-.317-5.98-.317-5.98l-2.94 2.596Z"/><path fill="#3F4553" d="M105.651 95.168a.293.293 0 0 1-.068-.008c-.383-.076-.359-.482-.339-.778a1.28 1.28 0 0 0-.006-.344c-.033-.128.022-.55.203-1.83.257-1.826.645-4.583.747-7.1.15-3.704 1.787-7.104 1.981-7.495-.074-.664-1.004-9.32-.473-13.916.446-3.854 2.698-8.363 3.546-10.06.178-.356.331-.662.345-.722-.003-.04.008-.146.019-.285.039-.42.102-1.12-.013-1.578-.143-.57-1.109-5.288-1.317-6.304-.687.4-3.363 1.99-4.652 3.267-.526.52-1.073 1.123-1.557 1.654-1.202 1.318-1.505 1.616-1.727 1.532-.047-.019-.126-.068-.126-.211 0-.619 1.524-4.794 3.218-6.394 1.358-1.28 4.291-3.84 5.684-4.355.537-.198 1.35-.342 2.138-.48.944-.166 2.121-.372 2.23-.627.227-.526.542-3.083.545-3.11a.127.127 0 0 1 .044-.084l2.939-2.598a.138.138 0 0 1 .153-.019.137.137 0 0 1 .074.133c-.181 2.07-.271 5.488.26 5.857.238.166.712.244 1.262.337 1.215.203 2.876.482 4.236 1.884 1.976 2.037 5.747 6.695 5.914 8.341.093.93-.23 1.202-.432 1.28-.518.204-1.298-.33-2.195-1.5-1.308-1.705-4.855-3.806-5.668-4.273l-1.387 7.547c.18.542 2.068 6.29 2.298 8.653.233 2.389-.725 12.956-.791 13.69.066.234.564 2.056.712 4.331.09 1.378 1.056 5.288 1.834 8.431.626 2.538 1.124 4.545 1.124 5 0 1.34-.347 2.078-.979 2.078-.345 0-.706-.272-1.087-.556-.391-.293-.796-.6-1.168-.6-.17 0-.345.011-.515.022-.64.04-1.303.081-1.593-.49-.164-.323-.035-.774.113-1.294.175-.621.372-1.323.123-1.942-.482-1.193-4.223-11.204-4.707-12.723-.285-.898-.318-4.683-.348-8.024-.019-2.185-.036-4.246-.131-4.656-.08-.336-.156-.371-.156-.371-.044.008-.156.165-.219.314a.081.081 0 0 1-.014.027l-.397.55c-.35.486-2.26 11.425-2.435 13.936-.091 1.28-.945 3.96-1.7 6.324-.602 1.882-1.168 3.66-1.24 4.382-.079.819-.079 1.551-.079 2.142 0 .607 0 1.09-.082 1.421-.121.48-.673.412-1.259.342-.397-.05-.846-.103-1.223-.008-.49.122-.805.501-1.059.808-.203.238-.378.453-.6.453Zm4.721-50.77c.019 0 .038.002.058.01a.132.132 0 0 1 .076.098c.011.06 1.196 5.86 1.352 6.478.126.502.06 1.231.022 1.668-.011.127-.022.225-.022.28 0 .073-.052.181-.372.824-.843 1.686-3.079 6.163-3.519 9.97-.548 4.73.465 13.806.476 13.898a.147.147 0 0 1-.014.076c-.019.035-1.814 3.56-1.97 7.419-.102 2.53-.49 5.296-.748 7.126-.123.868-.227 1.617-.208 1.73.031.122.022.277.011.423-.019.329-.008.472.121.497.096.016.252-.174.405-.358.263-.32.624-.757 1.204-.9.43-.106.903-.05 1.322.002.558.068.9.095.96-.138.077-.299.077-.765.077-1.353 0-.594 0-1.334.079-2.167.072-.751.619-2.46 1.251-4.439.75-2.348 1.601-5.011 1.689-6.258.136-1.975 2.028-13.44 2.487-14.077l.389-.54c.057-.132.233-.482.49-.466.241.02.342.342.397.58.101.437.117 2.324.139 4.713.028 3.157.06 7.086.334 7.943.484 1.516 4.22 11.514 4.702 12.704.284.705.063 1.486-.113 2.115-.125.448-.246.87-.128 1.101.208.412.728.38 1.33.342.178-.011.356-.022.534-.022.465 0 .905.334 1.332.654.342.257.668.501.92.501.638 0 .706-1.263.706-1.806 0-.423-.542-2.617-1.117-4.935-.821-3.316-1.748-7.075-1.841-8.477-.156-2.394-.704-4.279-.709-4.298-.006-.016-.006-.032-.006-.049.011-.113 1.029-11.267.794-13.666-.233-2.398-2.277-8.564-2.296-8.626a.153.153 0 0 1-.006-.068l1.429-7.769a.131.131 0 0 1 .077-.098.136.136 0 0 1 .125.006c.181.1 4.409 2.476 5.92 4.441.933 1.218 1.593 1.522 1.875 1.41.221-.086.317-.45.262-1-.158-1.562-3.941-6.223-5.837-8.181-1.297-1.337-2.909-1.608-4.086-1.806-.608-.103-1.086-.182-1.374-.382-.741-.516-.501-4.491-.402-5.765l-2.644 2.337c-.046.377-.331 2.609-.558 3.135-.162.371-1.032.542-2.436.786-.774.136-1.579.277-2.091.466-1.174.437-3.721 2.536-5.591 4.298-1.59 1.5-2.985 5.31-3.122 6.096.257-.19.84-.827 1.363-1.402.487-.534 1.037-1.139 1.568-1.662 1.505-1.491 4.737-3.327 4.874-3.406a.13.13 0 0 1 .06-.013Z"/><path fill="#3F4553" d="M121.19 93.422c.317.63 1.19.394 1.984.394.793 0 1.62 1.155 2.255 1.155.635 0 .843-.92.843-1.942 0-1.022-2.8-10.982-2.959-13.423-.158-2.44-.714-4.328-.714-4.328s1.032-11.25.794-13.69a13.514 13.514 0 0 0-.238-1.41l-14.064-1.357c-.58 1.576-1.076 3.287-1.262 4.892-.555 4.8.476 13.927.476 13.927s-1.825 3.542-1.984 7.477c-.159 3.934-1.032 8.576-.952 8.891.079.315-.159.944.238 1.022.397.079.714-1.022 1.667-1.258.952-.236 2.222.393 2.383-.236.159-.629 0-1.887.159-3.541.159-1.652 2.78-8.42 2.939-10.7.159-2.281 2.064-13.456 2.463-14.006l.397-.55s.397-.944.635.078 0 11.172.476 12.669c.476 1.494 4.228 11.533 4.705 12.712.476 1.177-.559 2.595-.241 3.224Z"/><path fill="#3F4553" d="M105.651 95.169a.293.293 0 0 1-.068-.008c-.384-.076-.359-.483-.34-.779.008-.127.017-.26-.005-.344-.033-.128.022-.55.202-1.83.258-1.826.646-4.583.747-7.1.151-3.704 1.787-7.104 1.982-7.495-.074-.664-1.005-9.32-.474-13.916.165-1.424.591-3.08 1.27-4.925a.142.142 0 0 1 .142-.09l14.064 1.357c.061.005.11.049.121.105.123.575.202 1.055.241 1.427.232 2.389-.726 12.956-.791 13.691.065.233.563 2.056.711 4.33.091 1.378 1.057 5.288 1.834 8.431.627 2.538 1.125 4.545 1.125 5 0 1.34-.348 2.078-.98 2.078-.345 0-.706-.271-1.087-.556-.391-.293-.796-.6-1.168-.6-.17 0-.345.012-.515.022-.64.041-1.302.082-1.592-.49-.165-.323-.036-.773.112-1.294.175-.62.372-1.323.123-1.942-.482-1.193-4.223-11.204-4.707-12.723-.285-.897-.318-4.683-.348-8.024-.019-2.185-.035-4.246-.131-4.656-.079-.336-.156-.371-.156-.371-.044.008-.156.165-.219.314a.08.08 0 0 1-.014.028l-.397.55c-.35.486-2.26 11.424-2.435 13.935-.09 1.28-.944 3.96-1.7 6.324-.602 1.882-1.168 3.66-1.239 4.382-.08.82-.08 1.551-.08 2.142 0 .608 0 1.088-.082 1.421-.12.48-.673.412-1.259.342-.397-.049-.845-.103-1.223-.008-.49.122-.805.501-1.059.808-.208.25-.383.464-.605.464Zm3.536-36.204c-.649 1.784-1.059 3.387-1.221 4.762-.547 4.729.466 13.805.476 13.897a.137.137 0 0 1-.013.076c-.019.035-1.815 3.56-1.971 7.42-.101 2.53-.489 5.295-.747 7.125-.123.868-.227 1.617-.208 1.73.03.123.022.277.011.424-.019.328-.008.471.121.496.095.016.251-.174.405-.358.262-.32.624-.757 1.204-.9.429-.106.903-.05 1.322.002.558.068.9.095.96-.138.077-.298.077-.765.077-1.353 0-.594 0-1.334.079-2.167.071-.751.619-2.46 1.251-4.439.75-2.348 1.601-5.011 1.688-6.258.137-1.975 2.028-13.44 2.488-14.077l.389-.54c.057-.132.232-.482.49-.466.24.02.342.342.396.58.102.437.118 2.324.14 4.713.027 3.157.06 7.086.334 7.943.484 1.516 4.22 11.514 4.701 12.704.285.705.063 1.486-.112 2.115-.126.448-.246.87-.128 1.101.208.412.728.38 1.33.342.178-.011.355-.022.533-.022.466 0 .906.334 1.333.654.342.257.668.501.92.501.637 0 .706-1.263.706-1.806 0-.423-.542-2.616-1.117-4.935-.821-3.316-1.749-7.075-1.842-8.477-.156-2.397-.703-4.279-.708-4.298-.006-.016-.006-.032-.006-.048.011-.114 1.029-11.267.794-13.667a12.189 12.189 0 0 0-.214-1.3l-13.861-1.336Z"/><path fill="#9776A5" d="M124.904 41.624c-1.984-2.045-4.685-1.652-5.479-2.202-.58-.402-.482-3.398-.389-4.99l-.511-.477-2.357 2.083s-.317 2.597-.555 3.148c-.238.55-3.178.708-4.447 1.18-1.251.463-3.881 2.679-5.553 4.246l1.645 1.904c1.491-1.063 3.114-1.98 3.114-1.98s1.193 5.855 1.352 6.486c.159.63-.003 1.679-.003 1.915 0 .173-1.82 3.354-2.994 6.936 2.277 1.039 6.76 2.218 14.611 1.28-.405-2.668-2.246-8.219-2.246-8.219l1.428-7.769s1.374.767 2.846 1.787l2.272-2.175c-.969-1.22-1.979-2.375-2.734-3.153Z"/><path fill="#3F4553" d="M117.928 61.63c-4.543 0-7.469-.821-9.256-1.637a.138.138 0 0 1-.073-.166c.856-2.611 2.063-5.03 2.643-6.19.178-.356.331-.665.345-.724-.003-.041.008-.147.019-.285.038-.42.101-1.12-.014-1.578-.142-.57-1.108-5.288-1.316-6.305a41.47 41.47 0 0 0-2.936 1.876.138.138 0 0 1-.184-.021l-1.644-1.901a.135.135 0 0 1 .01-.187c1.44-1.35 4.237-3.772 5.6-4.277.536-.198 1.349-.341 2.137-.48.944-.165 2.121-.371 2.231-.626.227-.526.541-3.086.544-3.11a.127.127 0 0 1 .044-.084l2.356-2.083a.14.14 0 0 1 .186.003l.512.477c.03.027.047.068.044.106-.197 3.286.041 4.672.331 4.87.238.165.712.244 1.262.336 1.215.204 2.876.483 4.236 1.885.791.813 1.814 1.996 2.742 3.164a.135.135 0 0 1-.011.182l-2.271 2.175a.135.135 0 0 1-.173.013 39.249 39.249 0 0 0-2.668-1.684l-1.387 7.547c.153.464 1.858 5.665 2.241 8.208a.134.134 0 0 1-.027.103.131.131 0 0 1-.093.052 46.514 46.514 0 0 1-5.43.341Zm-9.031-1.833c2.394 1.063 6.792 2.113 14.285 1.237-.437-2.676-2.2-8.005-2.219-8.06a.153.153 0 0 1-.006-.067l1.429-7.769a.138.138 0 0 1 .203-.092c.013.008 1.338.748 2.764 1.73l2.101-2.012c-.9-1.128-1.885-2.262-2.649-3.048-1.297-1.337-2.909-1.608-4.086-1.806-.607-.103-1.086-.182-1.373-.382-.474-.328-.627-2.026-.449-5.047l-.372-.35-2.225 1.966c-.047.377-.332 2.609-.559 3.135-.161.371-1.031.542-2.435.786-.775.136-1.579.277-2.091.467-1.13.42-3.574 2.416-5.413 4.13l1.48 1.71c1.453-1.024 3.008-1.906 3.021-1.914a.138.138 0 0 1 .203.093c.011.06 1.196 5.86 1.352 6.478.126.501.06 1.23.022 1.667-.011.128-.022.225-.022.28 0 .073-.052.181-.372.824-.567 1.144-1.741 3.495-2.589 6.044Z"/><path fill="#FED9CE" d="M121.037 39.828c-.72-.124-1.305-.198-1.612-.41-.58-.4-.482-3.397-.388-4.989l-.512-.477-2.357 2.083s-.317 2.597-.555 3.148c-.093.211-.588.366-1.232.502.529 1.572 1.689 4.387 3.213 4.387 1.484.003 2.792-2.65 3.443-4.244Z"/><path fill="#3F4553" d="M117.594 44.21c-1.601 0-2.78-2.806-3.344-4.482a.144.144 0 0 1 .011-.111.14.14 0 0 1 .09-.065c.868-.182 1.095-.33 1.136-.423.227-.526.542-3.086.545-3.11a.126.126 0 0 1 .043-.084l2.357-2.083a.14.14 0 0 1 .186.003l.512.477c.03.027.046.068.043.106-.197 3.286.041 4.672.332 4.87.238.165.714.244 1.264.336l.29.049a.139.139 0 0 1 .096.068.144.144 0 0 1 .008.116c-.807 1.977-2.083 4.334-3.569 4.334Zm-3.035-4.425c.468 1.356 1.607 4.152 3.035 4.152 1.355 0 2.595-2.44 3.251-4.005l-.12-.022c-.607-.103-1.089-.182-1.376-.382-.474-.329-.627-2.026-.449-5.047l-.372-.35-2.225 1.966c-.047.377-.332 2.609-.559 3.135-.101.225-.446.388-1.185.553Z"/><path fill="#C6FF00" d="M119.02 34.717a4.99 4.99 0 0 0-.843.149c-.328.081-.963.426-1.568.781l-.438.388s-.129 1.057-.285 1.966c.548-.195 2.138-.811 3.085-1.706.002-.559.024-1.109.049-1.578Z"/><path fill="#BFB2AA" d="M119.02 34.717a4.99 4.99 0 0 0-.843.149c-.328.081-.963.426-1.568.781l-.438.388s-.129 1.057-.285 1.966c.548-.195 2.138-.811 3.085-1.706.002-.559.024-1.109.049-1.578Z"/><path fill="#FA6E5A" d="M115.928 75.088c8.692 0 15.738-6.981 15.738-15.594s-7.046-15.595-15.738-15.595c-8.693 0-15.739 6.982-15.739 15.595 0 8.612 7.046 15.594 15.739 15.594Z"/><path fill="#E3604D" d="M121.102 72.458c-8.691 0-15.738-6.982-15.738-15.595 0-5.014 2.391-9.472 6.102-12.324-6.518 1.906-11.277 7.877-11.277 14.955 0 8.612 7.047 15.594 15.738 15.594a15.77 15.77 0 0 0 9.636-3.267 15.93 15.93 0 0 1-4.461.637Z"/><path fill="#3F4553" d="M104.885 53.723a.6.6 0 0 1-.135-1.188l4.341-.99-2.507-.775a.604.604 0 0 1-.4-.754.61.61 0 0 1 .761-.395l4.65 1.44a.602.602 0 0 1-.044 1.163l-6.53 1.489a.793.793 0 0 1-.136.01Zm21.756 0a.637.637 0 0 1-.142-.016l-6.226-1.489a.605.605 0 0 1-.465-.569.603.603 0 0 1 .435-.594l4.885-1.44a.607.607 0 0 1 .755.407.6.6 0 0 1-.407.748l-2.721.803 4.032.963a.602.602 0 0 1 .448.726.614.614 0 0 1-.594.461Zm-22.736 2.549c1.587 6.753 6.368 11.658 12.022 11.658s10.438-4.906 12.022-11.658l-2.088-.344a60.89 60.89 0 0 0-20.158.04l-1.798.304Z"/><path fill="#4E5567" d="M124.124 63.339c-2.075-1.364-4.935-2.207-8.098-2.207-3.224 0-6.133.88-8.216 2.291 2.192 2.438 5.022 3.916 8.117 3.916 3.134 0 5.994-1.51 8.197-4Z"/><path fill="#FED9CE" d="M113.867 29.454s-.556 1.651-1.032 2.597c-.476.944.238 3.856.794 4.721.555.866 1.587.708 1.984.63.397-.08 2.143-1.18 2.78-1.81l.953-.943s.317 0 .635-.629c.317-.629-.953-2.045-2.064-3.777-1.111-1.73-1.587-1.652-1.587-1.652l-2.463.863Z"/><path fill="#3F4553" d="M115.016 37.6c-.823 0-1.267-.39-1.502-.757-.572-.892-1.308-3.848-.802-4.854.468-.925 1.021-2.563 1.026-2.579a.132.132 0 0 1 .085-.084l2.463-.865c.115-.019.646-.01 1.749 1.709.295.46.599.892.892 1.31.843 1.2 1.451 2.068 1.18 2.6-.274.542-.564.667-.693.697l-.922.913c-.651.646-2.425 1.763-2.849 1.847a3.43 3.43 0 0 1-.627.063Zm-1.04-8.04c-.106.314-.591 1.702-1.018 2.551-.454.898.269 3.783.789 4.588.353.55.974.74 1.844.57.342-.068 2.072-1.142 2.709-1.774l.953-.943a.139.139 0 0 1 .096-.041c-.003 0 .246-.027.511-.553.197-.388-.432-1.286-1.16-2.324-.293-.42-.597-.854-.898-1.318-.919-1.432-1.376-1.575-1.45-1.59l-2.376.833Z"/><path fill="#3F4553" d="M114.425 33.377a.15.15 0 0 1-.049-.008c-.83-.317-.756-.531-.734-.599.055-.165.693-1.098.887-1.38a.135.135 0 0 1 .189-.035.132.132 0 0 1 .035.187c-.364.529-.755 1.12-.84 1.282.069.07.312.198.558.293a.136.136 0 0 1 .08.177.138.138 0 0 1-.126.084Zm2.772-1.239a.135.135 0 0 1-.123-.078c-.126-.266-.29-.434-.49-.502-.268-.09-.517.027-.52.027a.139.139 0 0 1-.183-.06.136.136 0 0 1 .06-.181c.014-.009.353-.171.733-.041.271.092.49.31.649.643a.136.136 0 0 1-.066.181.225.225 0 0 1-.06.011Zm-2.936-.754a.135.135 0 0 1-.112-.056.523.523 0 0 0-.323-.198c-.123-.014-.26.043-.4.165a.139.139 0 0 1-.194-.01.136.136 0 0 1 .011-.194c.2-.178.405-.254.616-.233a.784.784 0 0 1 .511.31.136.136 0 0 1-.033.19.113.113 0 0 1-.076.026Zm3.372-.108a.134.134 0 0 1-.129-.092c-.383-1.096-1.059-.944-1.086-.936a.138.138 0 0 1-.167-.097.134.134 0 0 1 .095-.166c.009-.002.945-.233 1.415 1.11a.136.136 0 0 1-.085.173.121.121 0 0 1-.043.008Zm-4.024-.54a.147.147 0 0 1-.06-.014.132.132 0 0 1-.06-.181c.153-.307.358-.488.61-.545.383-.087.723.165.736.176.06.046.071.13.025.19a.137.137 0 0 1-.192.024c-.002-.002-.254-.187-.511-.127-.167.038-.31.173-.425.401a.138.138 0 0 1-.123.076Zm.326 3.26s.977.377 2.228-.323c0 0-.651.968-1.412 1.077-.761.105-.816-.754-.816-.754Z"/><path fill="#FED9CE" d="M105.093 45.192s-3.44 2.861-3.99 4.702c-.55 1.842-.137 6.066-.205 7.36-.069 1.293.826 2.725 1.237 2.999.413.274.481-.203.413-.68-.069-.478-.069-2.932-.069-2.932s.619 1.77.687 1.432c.069-.342.069-.955-.205-1.91-.274-.954-.963-2.315-.895-2.589.069-.274 2.269-4.36 2.614-5.657"/><path fill="#3F4553" d="M102.345 60.467a.53.53 0 0 1-.287-.103c-.432-.284-1.371-1.76-1.3-3.118.019-.385-.003-1.044-.03-1.809-.063-1.803-.151-4.273.241-5.58.555-1.858 3.889-4.651 4.031-4.768a.135.135 0 0 1 .191.017.132.132 0 0 1-.016.19c-.033.026-3.413 2.858-3.946 4.636-.378 1.267-.293 3.71-.23 5.497.027.77.049 1.437.03 1.833-.066 1.242.796 2.628 1.177 2.88.079.051.134.062.15.054.052-.032.104-.241.052-.602-.068-.48-.071-2.847-.071-2.95 0-.065.049-.122.115-.133a.139.139 0 0 1 .153.09c.145.417.329.886.457 1.163.014-.318-.024-.822-.235-1.56-.118-.412-.32-.91-.498-1.35-.296-.732-.446-1.123-.4-1.31.025-.097.203-.452.602-1.244.668-1.326 1.782-3.544 2.015-4.412a.137.137 0 0 1 .167-.098.135.135 0 0 1 .098.166c-.238.894-1.319 3.042-2.033 4.463-.288.572-.559 1.109-.581 1.19-.024.12.206.686.389 1.142.181.447.383.952.506 1.378.31 1.076.266 1.697.208 1.97-.027.134-.123.15-.153.153-.082.005-.194.013-.528-.835.005.759.022 1.84.063 2.134.038.26.066.721-.178.87a.263.263 0 0 1-.159.046Z"/><path fill="#3F4553" d="M102.321 60.364a.139.139 0 0 1-.129-.09 15.05 15.05 0 0 1-.66-2.725.139.139 0 0 1 .115-.154.137.137 0 0 1 .156.114c.214 1.478.644 2.657.646 2.67a.135.135 0 0 1-.082.174.103.103 0 0 1-.046.011Zm-.49-.325a.138.138 0 0 1-.123-.076c-.02-.035-.446-.895-.72-2.302a.139.139 0 0 1 .109-.16.14.14 0 0 1 .162.108c.265 1.37.692 2.224.695 2.232a.137.137 0 0 1-.06.182.116.116 0 0 1-.063.016Z"/><path fill="#FED9CE" d="M127.772 45.192s3.44 2.861 3.99 4.702c.55 1.842.137 6.066.205 7.36.069 1.293-.826 2.725-1.237 2.999-.41.274-.481-.203-.413-.68.069-.478.069-2.932.069-2.932s-.619 1.77-.687 1.432c-.069-.34-.069-.955.205-1.91.276-.954.963-2.315.895-2.589-.069-.274-2.269-4.36-2.614-5.657"/><path fill="#3F4553" d="M130.52 60.467a.307.307 0 0 1-.162-.046c-.24-.149-.213-.61-.177-.87.041-.293.057-1.378.062-2.134-.333.846-.44.84-.528.835-.03-.003-.126-.02-.153-.152-.055-.274-.101-.895.208-1.971.123-.426.326-.93.506-1.378.184-.456.411-1.022.386-1.142-.022-.078-.293-.62-.58-1.193-.714-1.42-1.795-3.568-2.031-4.46a.135.135 0 0 1 .099-.166.138.138 0 0 1 .167.098c.23.865 1.346 3.086 2.011 4.409.4.795.578 1.15.602 1.247.047.187-.104.578-.399 1.31-.178.44-.378.938-.498 1.35-.214.738-.252 1.242-.236 1.56.129-.28.31-.746.457-1.164a.138.138 0 0 1 .154-.09.14.14 0 0 1 .115.134c0 .1 0 2.467-.072 2.95-.052.36 0 .57.052.602.017.01.072 0 .151-.054.38-.252 1.242-1.638 1.177-2.88-.022-.396.002-1.063.03-1.833.063-1.784.148-4.23-.23-5.497-.534-1.779-3.911-4.607-3.946-4.637a.133.133 0 0 1-.017-.19.136.136 0 0 1 .192-.016c.142.117 3.475 2.91 4.031 4.767.391 1.307.304 3.778.241 5.581-.028.765-.049 1.426-.03 1.809.071 1.358-.868 2.834-1.3 3.118a.49.49 0 0 1-.282.103Z"/><path fill="#3F4553" d="M130.525 60.256c-.011 0-.022 0-.036-.006a.135.135 0 0 1-.098-.165c.005-.017.432-1.67.432-2.772 0-.075.061-.135.137-.135.077 0 .137.06.137.136 0 1.136-.421 2.77-.441 2.839a.133.133 0 0 1-.131.103Zm.49-.054a.136.136 0 0 1-.129-.182c.006-.016.646-1.765.646-2.435 0-.076.06-.136.137-.136.077 0 .137.06.137.136 0 .716-.635 2.454-.662 2.527a.136.136 0 0 1-.129.09Z"/><path fill="#F4A17C" d="M67.868 103.016c12.393 0 22.44-2.342 22.44-5.23 0-2.89-10.047-5.232-22.44-5.232-12.394 0-22.441 2.342-22.441 5.231s10.047 5.231 22.44 5.231Z"/><path fill="#F4A17C" d="M69.162 103.018c13.12 0 23.756-2.335 23.756-5.215s-10.636-5.215-23.756-5.215c-13.12 0-23.756 2.335-23.756 5.215s10.636 5.215 23.756 5.215Z"/><path fill="#E49621" d="M58.438 94.149s-3.328 1.733-3.955 2.63c-.626.898.208 1.611 1.459 1.698 1.25.087 6.398-1.63 6.864-1.852.468-.223.128-1.57-.211-2.264-.337-.697-4.157-.212-4.157-.212Z"/><path fill="#3F4553" d="M56.038 98.615c-.038 0-.074 0-.107-.003-.83-.057-1.483-.385-1.71-.851-.11-.228-.175-.597.148-1.058.64-.913 3.866-2.6 4.003-2.673a.092.092 0 0 1 .047-.014c.654-.084 3.935-.458 4.296.285.19.388.353.916.42 1.347.09.6 0 .969-.275 1.099-.46.22-5.374 1.868-6.822 1.868Zm2.441-4.336c-.287.152-3.309 1.752-3.886 2.576-.2.285-.241.55-.126.786.183.38.753.649 1.483.7 1.232.09 6.333-1.619 6.795-1.838.143-.068.19-.372.12-.814a4.772 4.772 0 0 0-.393-1.272c-.203-.417-2.447-.33-3.993-.138Z"/><path fill="#F1BD54" d="M62.978 95.524c-1.32.572-4.96 2.115-6.215 2.275-1.024.13-1.965-.253-2.485-.526-.085.653.654 1.133 1.664 1.204 1.25.086 6.398-1.63 6.863-1.852.258-.125.268-.592.173-1.101Z"/><path fill="#3F4553" d="M56.038 98.615c-.039 0-.074 0-.107-.003-.7-.048-1.275-.284-1.577-.648a.92.92 0 0 1-.216-.707.133.133 0 0 1 .074-.104.13.13 0 0 1 .126 0c.468.247 1.404.64 2.406.513 1.253-.16 5.043-1.773 6.176-2.264a.129.129 0 0 1 .118.005.14.14 0 0 1 .071.095c.129.675.044 1.106-.246 1.245-.463.22-5.378 1.868-6.825 1.868Zm-1.62-1.12a.695.695 0 0 0 .147.298c.25.301.766.505 1.382.548 1.232.09 6.333-1.619 6.795-1.838.14-.068.184-.361.126-.784-1.546.667-4.882 2.06-6.092 2.215-.938.117-1.82-.187-2.359-.439Z"/><path fill="#E49621" d="M74.555 94.149s3.327 1.733 3.954 2.63c.627.898-.208 1.611-1.459 1.698-1.25.087-6.398-1.63-6.863-1.852-.468-.223-.129-1.57.21-2.264.34-.697 4.158-.212 4.158-.212Z"/><path fill="#3F4553" d="M76.957 98.615c-1.45 0-6.362-1.649-6.828-1.868-.27-.13-.364-.5-.273-1.099.065-.43.23-.96.418-1.347.362-.746 3.643-.369 4.297-.285a.24.24 0 0 1 .047.014c.136.07 3.366 1.757 4.003 2.673.323.461.26.83.148 1.058-.227.469-.881.794-1.71.851-.03 0-.066.003-.102.003Zm-4.84-4.496c-.83 0-1.49.081-1.596.298a4.77 4.77 0 0 0-.394 1.272c-.069.442-.022.746.12.814.452.217 5.326 1.844 6.7 1.844.035 0 .065 0 .095-.003.73-.052 1.297-.32 1.483-.7.115-.236.072-.501-.125-.786-.575-.825-3.6-2.424-3.887-2.576a20.068 20.068 0 0 0-2.397-.163Z"/><path fill="#F1BD54" d="M70.017 95.524c1.319.572 4.959 2.115 6.215 2.275 1.023.13 1.965-.252 2.485-.526.085.653-.654 1.133-1.664 1.204-1.251.087-6.399-1.63-6.864-1.852-.26-.125-.27-.591-.172-1.101Z"/><path fill="#3F4553" d="M76.957 98.615c-1.45 0-6.363-1.649-6.828-1.868-.29-.139-.375-.57-.246-1.245a.133.133 0 0 1 .07-.095.138.138 0 0 1 .118-.005c1.133.49 4.927 2.104 6.177 2.264 1.002.127 1.938-.266 2.406-.513a.13.13 0 0 1 .126 0c.04.022.068.06.073.103a.899.899 0 0 1-.216.708c-.3.364-.875.6-1.576.648-.033 0-.068.003-.104.003Zm-6.833-2.896c-.06.423-.014.716.125.784.452.217 5.326 1.84 6.7 1.844.035 0 .066 0 .096-.003.615-.043 1.133-.25 1.382-.548a.681.681 0 0 0 .147-.298c-.536.252-1.415.558-2.361.44-1.21-.158-4.543-1.552-6.09-2.219ZM60.085 60.218s-3.03 12.989-3.45 14.843c-.422 1.855-.732 3.94-.239 5.188.493 1.247 2.072 13.488 2.072 13.488l4.537 1.225s.058-7.864-.093-10.955c-.15-3.091-.325-6.999-.325-6.999l4.822-11.907.796 1.044 3.61 10.674-2.124 17.888 4.316-1.12s3.708-11.378 4.313-13.745c.602-2.367.892-3.959.421-5.046-.47-1.088-3.525-13.223-3.525-13.223l-15.13-1.355Z"/><path fill="#3F4553" d="M63.002 95.095a.161.161 0 0 1-.035-.005l-4.538-1.226a.134.134 0 0 1-.098-.114c-.017-.122-1.585-12.237-2.064-13.455-.41-1.044-.336-2.766.233-5.266.416-1.833 3.421-14.714 3.451-14.844a.139.139 0 0 1 .145-.106l15.126 1.356a.137.137 0 0 1 .12.103c.03.122 3.057 12.138 3.52 13.2.473 1.09.219 2.645-.416 5.134-.597 2.346-4.278 13.64-4.313 13.754a.132.132 0 0 1-.096.089l-4.316 1.12c-.044.01-.09 0-.126-.03a.132.132 0 0 1-.046-.12l2.12-17.856-3.593-10.624-.637-.835-4.716 11.66c.017.363.181 4.032.326 6.97.15 3.058.093 10.884.093 10.962 0 .044-.02.082-.055.106a.137.137 0 0 1-.085.027Zm-4.411-1.467 4.277 1.155c.009-1.182.044-7.977-.093-10.773-.15-3.091-.325-6.999-.325-6.999a.14.14 0 0 1 .01-.057l4.823-11.907a.135.135 0 0 1 .11-.084.137.137 0 0 1 .128.054l.796 1.044a.116.116 0 0 1 .02.038l3.609 10.673a.15.15 0 0 1 .005.06L69.85 94.523l4.05-1.052c.315-.965 3.716-11.427 4.286-13.667.618-2.43.87-3.943.43-4.96-.455-1.043-3.203-11.934-3.51-13.148l-14.911-1.337c-.301 1.293-3.03 12.989-3.424 14.727-.556 2.446-.635 4.116-.244 5.109.471 1.209 1.908 12.232 2.064 13.433Z"/><path fill="#4E5567" d="M71.144 91.99h-.017a.137.137 0 0 1-.12-.151c.016-.13 1.579-13.044 1.661-13.765.044-.369.055-.48.31-.493.12-.006.374-.02.933-.391.134-.09.221-.155.276-.198a7.85 7.85 0 0 0-.246.005c-.34.011-.805.028-1.136-.116-.77-.334-2.8-7.059-3.2-8.406a.135.135 0 0 1 .094-.168.136.136 0 0 1 .17.092c1.14 3.845 2.597 8.037 3.045 8.232.277.12.707.106 1.018.095.359-.01.559-.019.614.144.046.141-.066.268-.48.545-.62.415-.925.431-1.072.437h-.017a10590.036 10590.036 0 0 1-1.697 14.02.138.138 0 0 1-.136.118Zm-8.404-2.836a.138.138 0 0 1-.137-.12l-.115-.967a.137.137 0 0 1 .12-.15.137.137 0 0 1 .15.12l.115.968a.136.136 0 0 1-.12.15h-.014Zm-.282-2.414a.138.138 0 0 1-.137-.119l-1.02-8.685c-.182-.038-.6-.13-1.15-.282-.099-.027-.307-.084-.315-.247-.011-.182.205-.268.681-.458.37-.147.832-.331 1.254-.594.503-.312 1.7-2.904 3.278-7.11a.135.135 0 0 1 .175-.079.133.133 0 0 1 .08.174c-1.15 3.059-2.671 6.798-3.39 7.245-.444.274-.937.472-1.298.616a7.98 7.98 0 0 0-.432.182l.035.01c.73.201 1.223.296 1.229.299.057.01.104.06.11.116l1.031 8.783a.136.136 0 0 1-.12.15h-.011ZM65.7 68.01a.135.135 0 0 1-.129-.182c.187-.509.297-.82.297-.82a.139.139 0 0 1 .175-.084c.07.024.11.103.084.173 0 0-.109.312-.295.824a.142.142 0 0 1-.131.09Z"/><path fill="#FFF9F1" d="M69.25 39.083s-7.342-1.196-10.3-1.722c-2.96-.526-5.502-1.023-5.502-1.023L52.16 40.43s5.87 1.958 7.417 2.416c1.546.459 2.156.708 2.156.708s.203 9.879-.432 12.005c-.635 2.126-2.063 6.4-2.063 6.4l7.564 4.197 1.519-2.321.117 2.193s2.379-.138 4.521-.818c2.143-.681 3.44-1.5 3.44-1.5l-1.7-7.397 2.319-9.543s11.68-2.3 11.749-3.045c.068-.746-1.607-3.48-1.607-3.48l-15.826-1.021-2.083-.141Z"/><path fill="#3F4553" d="M66.801 66.294a.138.138 0 0 1-.065-.016L59.17 62.08a.133.133 0 0 1-.063-.16c.014-.043 1.437-4.295 2.064-6.396.588-1.974.446-10.877.427-11.875a29.6 29.6 0 0 0-2.06-.672c-1.53-.453-7.363-2.397-7.42-2.416a.135.135 0 0 1-.088-.169l1.29-4.092a.134.134 0 0 1 .155-.092c.025.006 2.576.502 5.498 1.02 2.888.512 10.041 1.678 10.293 1.722l2.077.144 15.827 1.022a.143.143 0 0 1 .11.065c.171.285 1.696 2.796 1.625 3.563-.02.198-.052.564-6.007 1.923a240.872 240.872 0 0 1-5.767 1.228l-2.29 9.429 1.691 7.364a.131.131 0 0 1-.06.144c-.014.008-1.338.838-3.473 1.516s-4.53.824-4.554.824a.134.134 0 0 1-.098-.035.137.137 0 0 1-.047-.095l-.096-1.779-1.289 1.972a.143.143 0 0 1-.115.06Zm-7.4-4.395 7.354 4.08 1.448-2.212a.141.141 0 0 1 .15-.057.136.136 0 0 1 .101.125l.113 2.055c.536-.04 2.54-.227 4.348-.802 1.8-.572 3.01-1.25 3.328-1.437l-1.678-7.3a.12.12 0 0 1 0-.063l2.318-9.542a.138.138 0 0 1 .107-.1c5.452-1.074 11.385-2.468 11.645-2.94.046-.545-1.073-2.527-1.555-3.322l-15.755-1.017-2.085-.143c-.006 0-.008 0-.014-.003-.074-.01-7.375-1.204-10.3-1.722-2.568-.456-4.845-.895-5.384-.998l-1.212 3.85c.864.288 5.884 1.956 7.285 2.373 1.535.456 2.145.703 2.17.714a.14.14 0 0 1 .085.122c.008.404.194 9.924-.438 12.045-.572 1.912-1.803 5.619-2.03 6.294Z"/><path fill="#fff" d="m66.68 38.573-.32 4.683 3.878-1.505 4.121 3.151-.13-6.156-7.549-.173Z"/><path fill="#3F4553" d="M74.36 45.038a.154.154 0 0 1-.085-.028l-4.059-3.102-3.806 1.478a.142.142 0 0 1-.132-.016.135.135 0 0 1-.054-.12l.32-4.682c.005-.074.074-.125.14-.128l7.544.174c.074.002.132.06.135.132l.13 6.156a.14.14 0 0 1-.073.125c-.02.005-.038.01-.06.01Zm-4.122-3.423c.03 0 .06.011.085.027l3.895 2.978-.124-5.74-7.285-.169-.298 4.342 3.678-1.427a.108.108 0 0 1 .05-.01ZM68.47 63.526h-.01a.135.135 0 0 1-.126-.147l1.521-17.935c.006-.076.074-.127.148-.125a.137.137 0 0 1 .126.147L68.607 63.4a.139.139 0 0 1-.137.125Zm8.547-16.618a.129.129 0 0 1-.076-.024.135.135 0 0 1-.047-.17l1.831-3.83a.141.141 0 0 1 .183-.065.136.136 0 0 1 .066.182l-1.456 3.042 3.323-3.522a.139.139 0 0 1 .194-.005.136.136 0 0 1 .005.192l-3.921 4.16a.146.146 0 0 1-.102.04Zm-15.284-3.216a.14.14 0 0 1-.11-.054l-3.005-3.91a.134.134 0 0 1 .025-.19.137.137 0 0 1 .192.025l2.375 3.088-.83-2.001a.136.136 0 0 1 .075-.176.139.139 0 0 1 .178.073l1.223 2.956a.137.137 0 0 1-.058.168.119.119 0 0 1-.065.021Z"/><path fill="#fff" d="m68.46 38.953 1.53 6.502 2.742-6.136-1.402-.09-2.082-.144c.002-.002-.296-.051-.788-.132Z"/><path fill="#3F4553" d="M69.99 45.59h-.014a.137.137 0 0 1-.12-.102l-1.53-6.503a.14.14 0 0 1 .033-.125.13.13 0 0 1 .123-.04l.79.13 3.47.233a.143.143 0 0 1 .11.065.134.134 0 0 1 .008.125l-2.742 6.136a.145.145 0 0 1-.128.082Zm-1.35-6.47 1.39 5.91 2.5-5.59-3.29-.222-.6-.097Z"/><path fill="#C6FF00" d="m68.46 38.953 1.53 6.502 2.742-6.136-1.402-.09-2.082-.144c.002-.002-.296-.051-.788-.132Z"/><path fill="#FED9CE" d="m68.46 38.953 1.53 6.502 2.742-6.136-1.402-.09-2.082-.144c.002-.002-.296-.051-.788-.132Z"/><path fill="#fff" d="M91.662 42.242s.134 1.082-.474 1.556c-.605.475-3.163 1.297-3.88.87-.717-.425-1.733-2.678-1.336-4.265.397-1.583 2.794-.995 2.794-.995s2.343.743 2.896 2.834Z"/><path fill="#575C69" d="M87.907 44.921c-.277 0-.51-.04-.668-.136-.8-.474-1.793-2.836-1.399-4.414.178-.71.753-1.123 1.667-1.196a4.47 4.47 0 0 1 1.292.1c.106.033 2.43.792 2.994 2.929.002.005.002.01.002.019.006.046.135 1.163-.522 1.678-.476.377-2.263 1.02-3.366 1.02Zm-.102-5.483c-.67 0-1.497.176-1.702.998-.386 1.54.632 3.734 1.275 4.116.649.385 3.129-.393 3.725-.86.512-.4.433-1.328.424-1.426-.53-1.985-2.78-2.72-2.802-2.728a4.326 4.326 0 0 0-.92-.1Z"/><path fill="#FED9CE" d="M89.494 43.389c-1.122.062-2.11-.735-2.395-1.812-.714-2.722-2.455-9.13-3.117-9.569-.843-.556-1.489-.697-1.478-1.212l.055-2.568s.375-.559.624-.038c.25.518.189.927.189.927s.413-1.147.37-1.507c-.044-.361-.13-1.337-.124-1.595.006-.257.348-.48.854.044.506.523 1.494 1.648 1.303 2.182-.192.535-.534 3.173-.534 3.173s6.338 9.22 6.218 10.039c-.088.588-.6 1.86-1.965 1.936Z"/><path fill="#3F4553" d="M89.37 43.527c-1.108 0-2.107-.789-2.402-1.917-1.461-5.572-2.636-9.209-3.06-9.49a9.96 9.96 0 0 0-.67-.397c-.51-.282-.879-.485-.868-.93l.055-2.568c0-.024.008-.051.022-.073.022-.035.233-.339.504-.32.147.01.268.111.358.298.058.12.099.236.131.342.102-.35.184-.7.167-.846-.043-.35-.128-1.34-.123-1.614a.41.41 0 0 1 .263-.377c.137-.054.43-.08.826.331.592.61 1.55 1.722 1.333 2.324-.172.475-.47 2.726-.52 3.094 1.128 1.64 6.333 9.272 6.213 10.093-.1.673-.666 1.969-2.091 2.048-.052.002-.096.002-.137.002Zm-6.677-15.253-.052 2.525c-.005.268.233.412.728.688.206.114.438.242.69.407.643.423 2.08 5.48 3.174 9.648.274 1.05 1.221 1.768 2.253 1.711 1.25-.07 1.748-1.217 1.836-1.816.082-.56-3.757-6.395-6.196-9.944a.123.123 0 0 1-.022-.092c.014-.109.345-2.658.54-3.203.114-.323-.384-1.125-1.273-2.044-.244-.253-.432-.304-.531-.266a.139.139 0 0 0-.088.13c-.005.244.074 1.198.12 1.575.047.383-.33 1.448-.374 1.57a.138.138 0 0 1-.162.087.134.134 0 0 1-.1-.152c0-.002.048-.38-.176-.851-.041-.087-.09-.141-.131-.144-.058-.008-.17.09-.236.171Z"/><path fill="#263238" d="M84.73 29.212a.163.163 0 0 1-.039-.005c-.071-.022-.115-.098-.09-.168l.295-.98c-.063-.14-.238-.552-.257-.93-.011-.208.074-.303.145-.346.183-.111.44.03.49.057a.133.133 0 0 1 .046.184.136.136 0 0 1-.186.049c-.082-.049-.186-.073-.21-.06 0 0-.02.022-.014.103.022.401.252.87.254.876a.12.12 0 0 1 .009.098l-.312 1.03a.142.142 0 0 1-.132.092Z"/><path fill="#263238" d="M84.261 29.09c-.01 0-.022 0-.033-.003a.137.137 0 0 1-.1-.162l.23-.93c-.07-.147-.25-.61-.143-1.099.049-.22.147-.366.295-.43.203-.093.403.013.424.024.066.035.09.119.055.184a.138.138 0 0 1-.186.054c-.003-.002-.104-.051-.18-.016-.08.035-.12.152-.14.241-.107.483.137.958.14.963.016.03.019.062.01.095l-.24.979a.134.134 0 0 1-.132.1Z"/><path fill="#263238" d="M83.87 29.063c-.008 0-.016 0-.025-.003a.14.14 0 0 1-.112-.157l.222-1.24c-.036-.14-.183-.753-.205-1.192a.477.477 0 0 1 .147-.396c.208-.193.55-.155.589-.15a.135.135 0 1 1-.036.269c-.07-.008-.27-.01-.37.079-.043.04-.062.1-.06.184.025.461.203 1.163.206 1.169a.132.132 0 0 1 .002.057l-.227 1.266a.13.13 0 0 1-.131.114Z"/><path fill="#FA6E5A" d="M72.48 40.48c9.371 0 16.97-7.53 16.97-16.816 0-9.287-7.599-16.815-16.97-16.815-9.373 0-16.971 7.528-16.971 16.815 0 9.287 7.598 16.815 16.97 16.815Z"/><path fill="#AC3E2F" d="M60.767 22.98c.339-8.167 6.508-14.73 14.365-15.922-.64-.1-1.292-.168-1.954-.195-9.365-.383-17.269 6.828-17.658 16.104-.386 9.28 6.891 17.11 16.254 17.496 1.122.046 2.22-.019 3.29-.182-8.397-1.307-14.656-8.677-14.297-17.3Z" opacity=".3"/><path fill="#3F4553" d="M62.195 25.175s12.455-1.625 22.761.932c0 0-.966 10.25-11.726 10.015-9.33-.204-11.035-10.947-11.035-10.947Zm11.552-5.326a.816.816 0 0 1-.813-.71c-.26-2.005-2.1-3.515-4.28-3.515-1.943 0-3.654 1.215-4.16 2.95a.824.824 0 0 1-1.018.556.813.813 0 0 1-.561-1.008c.709-2.43 3.068-4.125 5.739-4.125 3.002 0 5.542 2.12 5.908 4.935a.816.816 0 0 1-.709.912c-.035.002-.07.005-.106.005Zm11.957 1.931a.819.819 0 0 1-.821-.792c-.05-1.787-1.536-3.279-3.457-3.468-1.71-.169-3.328.748-3.93 2.231a.826.826 0 0 1-1.067.453.812.812 0 0 1-.457-1.057c.873-2.153 3.18-3.488 5.616-3.246 2.739.27 4.86 2.44 4.934 5.04a.814.814 0 0 1-.8.836c-.002.003-.01.003-.018.003Z"/><path fill="#fff" d="M63.816 25.49c.1.406.853 2.632 5.248 2.814 4.839.198 9.672.575 12.187.499 1.505-.046 2.225-1.329 2.562-2.354-7.62-1.727-16.194-1.288-19.998-.96Z"/><path fill="#4E5567" d="M76.448 35.3c.003-2.41-2.608-4.45-5.922-4.585-1.837-.076-3.503.452-4.663 1.345 1.663 1.89 4.075 3.416 7.534 3.492a14.07 14.07 0 0 0 3.051-.252ZM57.95 94.209l5.422 1.686.044-2.215-5.685-1.16.22 1.689Z"/><path fill="#3F4553" d="M63.372 96.03a.212.212 0 0 1-.04-.005L57.91 94.34a.138.138 0 0 1-.096-.112l-.22-1.692a.135.135 0 0 1 .045-.116.13.13 0 0 1 .12-.033l5.684 1.16c.066.014.11.071.11.136l-.044 2.216a.136.136 0 0 1-.137.133Zm-5.298-1.925 5.164 1.606.038-1.923-5.386-1.1.184 1.417Z"/><path fill="#4E5567" d="m69.086 94.537.668 1.963 5.34-2.153-.403-1.83-5.605 2.02Z"/><path fill="#3F4553" d="M69.754 96.633a.149.149 0 0 1-.058-.014.14.14 0 0 1-.073-.078l-.668-1.96a.135.135 0 0 1 .082-.172l5.605-2.02a.135.135 0 0 1 .112.008c.035.02.06.052.068.09l.403 1.83a.137.137 0 0 1-.082.155l-5.34 2.15a.102.102 0 0 1-.05.01Zm-.495-2.015.577 1.7 5.099-2.052-.345-1.568-5.331 1.92Z"/><path fill="#fff" d="M49.185 37.863s-.364 1.028.126 1.621c.49.594 2.811 1.937 3.602 1.67.79-.262 2.269-2.253 2.225-3.882-.047-1.633-2.515-1.565-2.515-1.565s-2.447.23-3.438 2.156Z"/><path fill="#3F4553" d="M52.68 41.323c-1.024 0-3.038-1.226-3.476-1.755-.53-.642-.167-1.706-.15-1.752l.008-.016c1.013-1.971 3.445-2.218 3.547-2.229.914-.019 2.624.298 2.665 1.695.047 1.624-1.434 3.72-2.318 4.016a.859.859 0 0 1-.276.04Zm-3.37-3.409c-.03.095-.306.982.108 1.483.481.583 2.736 1.866 3.453 1.63.712-.239 2.176-2.164 2.132-3.75-.04-1.478-2.35-1.432-2.375-1.432-.017 0-2.37.244-3.317 2.07Z"/><path fill="#FED9CE" d="M50.49 39.289c1.084.298 2.22-.271 2.729-1.264 1.283-2.508 4.365-8.4 5.107-8.688.944-.366 1.603-.366 1.705-.87l.5-2.52s-.246-.623-.599-.168c-.353.453-.383.868-.383.868s-.156-1.207-.036-1.55c.12-.343.414-1.28.463-1.533.05-.252-.236-.542-.843-.138-.608.404-1.815 1.293-1.743 1.857.074.564-.165 3.213-.165 3.213s-8.18 7.666-8.237 8.494c-.041.588.183 1.936 1.502 2.299Z"/><path fill="#3F4553" d="M51.079 39.506a2.35 2.35 0 0 1-.624-.084c-1.377-.38-1.65-1.763-1.604-2.443.058-.83 6.787-7.184 8.243-8.548.033-.371.224-2.633.159-3.132-.082-.631 1.094-1.515 1.8-1.987.48-.318.756-.228.879-.147a.41.41 0 0 1 .175.426c-.052.268-.35 1.218-.468 1.551-.05.141-.044.5-.019.862.052-.097.118-.2.2-.306.126-.163.265-.236.413-.214.266.038.408.38.422.417a.15.15 0 0 1 .005.076l-.495 2.514c-.088.437-.49.556-1.049.724a9.517 9.517 0 0 0-.741.247c-.476.184-2.406 3.49-5.033 8.623-.451.884-1.344 1.42-2.263 1.42Zm-.55-.347c.993.274 2.074-.228 2.57-1.196 1.964-3.84 4.458-8.477 5.177-8.753.282-.109.537-.185.761-.253.545-.162.807-.252.86-.518l.492-2.478c-.044-.092-.126-.206-.192-.214-.043-.008-.098.035-.158.111-.323.412-.356.792-.356.794a.134.134 0 0 1-.134.125.13.13 0 0 1-.14-.12c-.016-.127-.156-1.25-.027-1.613.126-.357.41-1.274.457-1.513.008-.046 0-.108-.057-.146-.088-.057-.282-.049-.575.146-1.068.71-1.727 1.389-1.683 1.728.074.572-.154 3.132-.162 3.243a.144.144 0 0 1-.04.087c-3.148 2.95-8.156 7.842-8.195 8.403-.046.608.195 1.836 1.402 2.167Z"/><path fill="#263238" d="M58.493 26.593h-.006a.132.132 0 0 1-.129-.141c0-.008.036-.746.017-1.107-.022-.39.564-1.81.632-1.97a.134.134 0 0 1 .178-.074.134.134 0 0 1 .074.176c-.244.586-.624 1.605-.61 1.855.019.374-.017 1.104-.017 1.133a.14.14 0 0 1-.14.128Zm-.455-.153-.274-.005s.02-.791.033-1.087c.014-.3.318-1.234.35-1.337a.136.136 0 0 1 .173-.087c.071.022.112.1.087.171-.09.277-.328 1.042-.339 1.267-.01.293-.03 1.079-.03 1.079Z"/></svg>