<?xml version="1.0" encoding="utf-8"?>
<!-- Generator: Adobe Illustrator 16.0.0, SVG Export Plug-In . SVG Version: 6.00 Build 0)  -->
<!DOCTYPE svg PUBLIC "-//W3C//DTD SVG 1.1//EN" "http://www.w3.org/Graphics/SVG/1.1/DTD/svg11.dtd">
<svg version="1.1" id="Layer_1" xmlns="http://www.w3.org/2000/svg" xmlns:xlink="http://www.w3.org/1999/xlink" x="0px" y="0px"
	 width="826px" height="742px" viewBox="0 0 826 742" enable-background="new 0 0 826 742" xml:space="preserve">
<g>
	<defs>
		<rect id="SVGID_1_" x="-92" y="-123" width="1000" height="1000"/>
	</defs>
	<clipPath id="SVGID_2_">
		<use xlink:href="#SVGID_1_"  overflow="visible"/>
	</clipPath>
	<g clip-path="url(#SVGID_2_)">
		<defs>
			<path id="SVGID_3_" d="M422.678,64.785c-82.343,3.657-142.22,82.72-145.088,150.52c0.337,14.582,3.866,28.079-5.032,41.008
				c-0.876,15.25-108.4,37.36-111.708,39.543c-0.051,0.034-0.076,0.064-0.075,0.088c-0.006,0.002,0.003-0.001-0.003,0.001
				c0,0,0,0,0,0.001c-0.924,0.388-1.841,0.782-2.755,1.182c-5.435,2.38-10.756,4.991-15.943,7.823
				c-57.027,31.243-89.542,86.815-81.968,160.53c2.737,26.809,9.099,51.073,30.284,78.099
				c27.104,34.575,63.24,62.255,104.831,83.212c174.493,63.311,479,45.839,560.411-103.424c0.205-0.377,0.415-0.768,0.618-1.146
				c0.495-3.349,0.73-6.599,0.73-9.762l0,0c0-0.126,0-0.255-0.002-0.381c0-0.008,0-0.023,0-0.031c0-0.039,0-0.08,0-0.119
				c0-0.008,0-0.007,0-0.015c0-0.074-0.002-0.146-0.003-0.22c0-0.017,0-0.029-0.001-0.045c0-0.033-0.001-0.068-0.001-0.103
				c0-0.022-0.001-0.041-0.001-0.064c-0.001-0.048-0.002-0.095-0.002-0.142c-0.001-0.027-0.001-0.063-0.002-0.091
				c0-0.028-0.001-0.056-0.002-0.083c0-0.032-0.001-0.055-0.001-0.087c-0.001-0.025-0.001-0.049-0.002-0.074
				c-0.001-0.048-0.002-0.102-0.004-0.149c0-0.021-0.001-0.04-0.001-0.062c-0.001-0.035-0.002-0.077-0.003-0.113
				c-0.001-0.019-0.001-0.036-0.002-0.056c-0.001-0.052-0.003-0.11-0.005-0.162c0-0.009,0-0.018-0.001-0.027
				c-0.001-0.048-0.003-0.099-0.004-0.146c-0.001-0.014-0.001-0.029-0.002-0.042c-0.005-0.115-0.009-0.233-0.014-0.347
				c0-0.011-0.001-0.018-0.001-0.027c-0.002-0.059-0.005-0.108-0.007-0.167c0-0.002,0-0.007,0-0.008
				c-2.38-54.545-74.931-83.105-90.45-141.548c-0.01-0.035-0.018-0.067-0.027-0.102c-0.004-0.017-0.011-0.04-0.016-0.057
				c-0.015-0.06-0.029-0.117-0.046-0.177c-0.002-0.009-0.004-0.015-0.006-0.023c-1.603-6.14-2.578-12.612-2.776-19.475
				c-0.935-32.701,16.35-53.583,25.043-75.423c5.148-12.935,7.284-26.205,0.839-42.462c-0.952-2.394-9.689-23.616-28.044-37.123
				c-4.572-3.365-9.742-6.251-15.537-8.246c-7.295-2.517-13.467-3.114-20.522-3.645c-8.667-0.651-18.671-1.204-33.734-5.096
				c-72.095-15.403-82.551-92.78-133.296-108.428c-10.172-2.206-20.1-3.242-29.746-3.242
				C426.612,64.654,424.643,64.698,422.678,64.785"/>
		</defs>
		<clipPath id="SVGID_4_">
			<use xlink:href="#SVGID_3_"  overflow="visible"/>
		</clipPath>
		
			<linearGradient id="SVGID_5_" gradientUnits="userSpaceOnUse" x1="-92" y1="876.9805" x2="-91" y2="876.9805" gradientTransform="matrix(706.5609 0 0 -706.5609 65054.0977 620016.875)">
			<stop  offset="0" style="stop-color:#E3F4FF"/>
			<stop  offset="0.4118" style="stop-color:#E3F4FF"/>
			<stop  offset="0.7063" style="stop-color:#E1F3FF"/>
			<stop  offset="0.8516" style="stop-color:#D9F0FF"/>
			<stop  offset="0.9639" style="stop-color:#CCEAFF"/>
			<stop  offset="1" style="stop-color:#C6E7FF"/>
		</linearGradient>
		<rect x="52.532" y="64.654" clip-path="url(#SVGID_4_)" fill="url(#SVGID_5_)" width="704.447" height="625.448"/>
	</g>
	<g clip-path="url(#SVGID_2_)">
		<defs>
			<path id="SVGID_6_" d="M277.59,215.305c0.337,14.582,3.866,28.079-5.032,41.008c-0.891,15.494-111.868,38.069-111.786,39.633
				C92.291,324.757,51.739,384.048,60.106,465.481c2.737,26.809,9.099,51.073,30.284,78.099
				c147.385,188.012,562.15,172.325,665.86-21.357c3.567-24.146-6.334-43.191-20.84-61.033
				c-27.13-33.365-70.359-62.515-71.811-112.871c-1.487-52.067,43.215-74.179,25.882-117.886
				c-1.189-2.992-14.53-35.363-43.581-45.368c-16.258-5.608-26.928-1.682-54.259-8.742
				c-72.094-15.404-82.547-92.776-133.292-108.427c-10.172-2.207-20.098-3.243-29.743-3.242
				C343.219,64.661,280.526,145.887,277.59,215.305"/>
		</defs>
		<clipPath id="SVGID_7_">
			<use xlink:href="#SVGID_6_"  overflow="visible"/>
		</clipPath>
		<path clip-path="url(#SVGID_7_)" fill="#99CCE0" d="M756.25,522.223c-2.315,12.061-7.553,32.876-20.842,54.594
			c-102.496,167.503-544.937,161.456-650.416-24.01c-18.709-32.896-23.56-65.71-24.886-87.325
			c120.085-6.641,246.333-10.477,378.226-10.537c102.512-0.044,201.615,2.185,297.076,6.244
			C749.916,479.03,759.816,498.077,756.25,522.223"/>
		<g opacity="0.27" clip-path="url(#SVGID_7_)">
			<g>
				<defs>
					<rect id="SVGID_8_" x="143.245" y="506.025" width="548.082" height="76.914"/>
				</defs>
				<clipPath id="SVGID_9_">
					<use xlink:href="#SVGID_8_"  overflow="visible"/>
				</clipPath>
				<path clip-path="url(#SVGID_9_)" fill="#5B828E" d="M691.326,544.481c0,21.239-122.691,38.457-274.041,38.457
					c-151.348,0-274.041-17.218-274.041-38.457c0-21.238,122.693-38.457,274.041-38.457
					C568.635,506.024,691.326,523.243,691.326,544.481"/>
			</g>
		</g>
		<path clip-path="url(#SVGID_7_)" fill="#D9669C" d="M276.003,398.705c1.569,0.541,4.068,1.537,6.796,3.306
			c3.97,2.574,12.863,9.664,21.26,45.827c1.171,5.041,4.816,14.028,6.179,22.682c-1.723,1.354-3.712,2.775-5.973,4.174
			c-2.181,1.35-4.266,2.461-6.185,3.377c-0.929-5.875-4.655-14.734-7.429-22.335c-3.918-10.734-8.917-19.197-13.225-25.347
			c-2.585-5.047-8.672-18.566-2.862-29.399C274.975,400.224,275.451,399.46,276.003,398.705"/>
		<path clip-path="url(#SVGID_7_)" fill="#D6A370" d="M309.541,479.82c0.36,1.229,0.943,3.051,1.826,5.192
			c2.926,7.09,5.323,8.407,6.898,12.764c2.603,7.2,0.791,14.636-0.391,14.524c-1.544-0.146-0.277-7.864-0.777-7.879
			c-0.555-0.017-0.147,9.717-1.792,9.681c-1.508-0.033-1.113-2.839-1.894-10.189c0.377,7.863,0.422,9.451-0.26,9.581
			c-1.005,0.191-1.03-1.502-2.561-9.132c-0.151,3.747,0.015,4.635-0.797,4.628c-0.704-0.007-0.805-2.165-2.346-6.029
			c-1.505-3.772-2.126-3.948-2.937-6.775c-0.665-2.32-0.43-2.838-1.017-5.297c-0.655-2.742-1.647-5.022-2.613-6.817
			C303.767,482.654,306.653,481.237,309.541,479.82"/>
		<path clip-path="url(#SVGID_7_)" fill="#E2C294" d="M545.089,344.501c4.397-1.67,8.101-2.14,10.652-2.257
			c3.726-0.171,8.642,0.243,8.713,1.092c0.015,0.18-0.18,0.447-2.128,1.195c-1.777,0.683-4.269,1.51-7.406,2.15
			C551.643,345.955,548.365,345.229,545.089,344.501"/>
		<path clip-path="url(#SVGID_7_)" fill="#D6B890" d="M543.73,348.895c1.591-1.432,5.653-4.658,10.934-4.339
			c4.066,0.246,8.188,2.605,7.994,3.819c-0.148,0.931-2.87,1.366-4.144,1.57c-1.43,0.228-1.961,0.091-4.086,0.325
			c0,0-1.651,0.183-3.166,0.496c-3.898,0.807-8.461,7.22-9.371,8.525c-0.479-0.664-0.942-1.531-1.164-2.597
			C539.874,352.591,543.376,349.225,543.73,348.895"/>
		<path clip-path="url(#SVGID_7_)" fill="#E2C294" d="M522.843,361.732c2.413-2.005,4.827-4.009,7.242-6.014
			c1.941-1.855,4.78-4.371,8.483-7c3.599-2.556,5.399-3.834,7.622-4.692c9.203-3.555,20.344,1.271,20.231,2.967
			c-0.049,0.718-2.317,1.278-3.764,1.381c-1.38,0.099-2.397-0.191-3.01-0.341c0,0-2.606-0.637-7.293-0.222
			c-4.458,0.396-8.199,4.468-10.29,7.269c-0.109,0.585-0.189,1.277-0.125,1.945c0.063,0.687,0.391,1.4,0.729,1.804
			c0.964,1.15,3.133,0.652,5.897,0.304c0.495-0.063,7.497-0.928,7.732-0.11c0.169,0.584-3.034,2.327-6.569,3.393
			c-5.284,1.595-7.56,0.546-12.07,2.195c-2.518,0.92-4.349,2.174-5.4,2.982C529.119,365.64,525.981,363.686,522.843,361.732"/>
		<path clip-path="url(#SVGID_7_)" fill="#23AEB5" d="M533.843,367.11c-8.953,13.464-17.558,23.974-24.353,31.604
			c-0.814,0.914-14.629,16.199-29.204,21.489c-2.407,0.873-5.854,1.845-9.613,0.735c-5.874-1.732-8.881-7.481-9.316-8.317
			c-0.714-1.362-1.233-2.805-1.491-4.266c0,0-0.197-1.178-0.18-2.332c0.059-3.817,2.995-7.618,3.223-7.906
			c5.693-7.221,35.133-22.758,46.937-29.795c3.713-2.213,9.2-5.683,15.569-10.536c0.98,1.447,2.173,3.028,3.617,4.655
			C530.695,364.316,532.345,365.859,533.843,367.11"/>
		<path clip-path="url(#SVGID_7_)" fill="#1F9393" d="M501.279,496.271c3.911-8.074,7.526-16.996,1.864-23.913
			c-5.662-6.918-15.465-10.006-23.979-7.557c-52.204,15.012-106.415,10.592-160.045,2.756c-7.919-1.157-19.528,4.364-22.733,11.77
			c-3.204,7.405,0.52,16.112,7.161,20.567C303.547,499.894,443.515,534.451,501.279,496.271"/>
		<path clip-path="url(#SVGID_7_)" fill="#23AEB5" d="M483.45,464.998c-20.758,7.845-71.679,59.366-106.472,43.706
			c-14.868-6.693-51.743-38.961-51.743-38.961s26.207,9.76,32.886-17.823c1.603-6.62,3.526-14.806,3.969-25.069
			c0.406-9.394-0.129-20.452-2.192-33.357c0.014,0.942-0.5,1.863-0.985,2.869c0,0-0.007,0.008-0.007,0.015
			c-0.214,0.442-0.421,0.907-0.578,1.392c-0.857-0.528-1.057-3.547-0.885-7.916c0.606-15.369,5.81-47.398,3.233-45.892
			c0.043-0.029,0.093-0.057,0.15-0.086c0.007-0.007,0.014-0.007,0.014-0.007c1.828-0.992,7.674-3.262,15.705-5.511
			c0.035-0.007,0.071-0.021,0.107-0.028c0.956-0.272,1.948-0.536,2.976-0.8c0.05-0.014,0.1-0.028,0.15-0.043
			c6.525-1.699,14.184-3.29,22.158-4.204c5.425-0.621,13.384,1.035,21.45,3.69c0.128,0.043,0.25,0.086,0.378,0.129
			c0.878,0.285,1.763,0.585,2.642,0.907c0.08,0.028,0.205,0.073,0.356,0.128c0,0,0,0,0.001,0
			c13.544,4.515,19.154,9.577,22.298,11.721c6.677,4.555,4.791,7.357,17.938,26.388c3.621,5.242,6.771,9.381,8.816,12
			c3.973-2.413,7.947-4.826,11.92-7.239c-5.688,13.311-11.375,26.623-17.063,39.934c-3.524-1.349-6.133-2.898-7.837-4.042
			c-6.369-4.271-10.185-9.609-15.089-16.598c-1.739-2.479-3.077-4.58-3.944-5.986C438.169,428.978,427.398,488.547,483.45,464.998"
			/>
		<path clip-path="url(#SVGID_7_)" fill-rule="evenodd" clip-rule="evenodd" fill="#E2C294" d="M424.957,338.485
			c-3.298,5.361-11.785,15.34-18.831,16.918c-1.677,5.653-1.784,9.387-3.462,15.04c-0.692-5.953-2.234-8.901-2.919-14.855
			c-5.197,0.036-19.545-10.207-22.465-17.253c1.628-0.699,4.826-1.192,9.052-4.197c5.289-3.762,7.631-8.602,8.509-10.729
			c4.739-0.264,9.479-0.521,14.219-0.785c0.371,2.612,1.35,4.947,2.705,6.974C414.992,334.409,420.374,337.486,424.957,338.485"/>
		<path clip-path="url(#SVGID_7_)" fill="#003399" d="M426.763,338.136c-1.934,3.234-4.097,6.189-6.474,8.837
			c-3.635,4.041-7.695,7.296-12.101,9.694c-0.692,4.076-1.228,5.903-1.891,8.188c-0.443,1.484-0.936,3.176-1.585,5.882
			c-0.264,1.092-1.107,1.834-2.099,1.877c-0.071,0-0.15,0.007-0.221,0c-1.071-0.079-1.913-0.949-2.056-2.142l-2.227-13.926
			c-3.155-0.8-6.189-2.192-9.03-4.126c-5.04-3.42-9.794-9.73-12.428-14.091c0.957-0.271,1.949-0.536,2.977-0.8
			c0.05-0.014,0.1-0.028,0.15-0.043c2.448,3.877,6.738,9.437,11.043,12.371c2.827,1.92,5.846,3.227,8.98,3.898l1.035,0.221
			l1.913,11.956c0.2-0.713,0.392-1.349,0.564-1.955c0.699-2.406,1.213-4.141,1.941-8.573l0.129-0.764l0.685-0.357
			c4.333-2.256,8.337-5.418,11.914-9.387c2.113-2.349,4.047-4.961,5.782-7.795c0.878,0.285,1.763,0.585,2.641,0.907
			C426.527,338.05,426.642,338.093,426.763,338.136"/>
		<path clip-path="url(#SVGID_7_)" fill-rule="evenodd" clip-rule="evenodd" fill="#003399" d="M376.624,341.264
			c-0.025,0.536-0.464,0.951-0.98,0.927c-0.515-0.025-0.913-0.479-0.887-1.016c0.025-0.536,0.464-0.951,0.98-0.926
			C376.252,340.273,376.649,340.729,376.624,341.264"/>
		<path clip-path="url(#SVGID_7_)" fill-rule="evenodd" clip-rule="evenodd" fill="#003399" d="M379.143,345.413
			c-0.025,0.536-0.464,0.951-0.98,0.927c-0.515-0.025-0.913-0.479-0.887-1.016c0.025-0.536,0.464-0.951,0.98-0.926
			C378.771,344.422,379.167,344.877,379.143,345.413"/>
		<path clip-path="url(#SVGID_7_)" fill-rule="evenodd" clip-rule="evenodd" fill="#003399" d="M381.741,348.578
			c-0.025,0.536-0.464,0.951-0.98,0.927c-0.515-0.025-0.913-0.48-0.887-1.016c0.025-0.536,0.464-0.951,0.98-0.926
			C381.369,347.586,381.767,348.042,381.741,348.578"/>
		<path clip-path="url(#SVGID_7_)" fill-rule="evenodd" clip-rule="evenodd" fill="#003399" d="M384.958,351.65
			c-0.025,0.536-0.464,0.951-0.98,0.927c-0.515-0.025-0.913-0.479-0.887-1.016c0.025-0.536,0.464-0.951,0.98-0.926
			C384.586,350.659,384.983,351.114,384.958,351.65"/>
		<path clip-path="url(#SVGID_7_)" fill-rule="evenodd" clip-rule="evenodd" fill="#003399" d="M388.262,353.601
			c0.421,0.308,0.521,0.915,0.223,1.354s-0.882,0.545-1.303,0.237c-0.422-0.309-0.521-0.915-0.223-1.354
			C387.257,353.398,387.841,353.292,388.262,353.601"/>
		<path clip-path="url(#SVGID_7_)" fill-rule="evenodd" clip-rule="evenodd" fill="#003399" d="M392.935,356.183
			c0.421,0.309,0.521,0.915,0.223,1.354c-0.298,0.439-0.882,0.545-1.303,0.237c-0.422-0.309-0.521-0.915-0.223-1.354
			C391.93,355.98,392.514,355.875,392.935,356.183"/>
		<path clip-path="url(#SVGID_7_)" fill-rule="evenodd" clip-rule="evenodd" fill="#003399" d="M396.824,358.041
			c0.421,0.308,0.521,0.915,0.223,1.354s-0.882,0.545-1.303,0.237c-0.422-0.309-0.521-0.915-0.223-1.354
			C395.819,357.838,396.403,357.731,396.824,358.041"/>
		<path clip-path="url(#SVGID_7_)" fill-rule="evenodd" clip-rule="evenodd" fill="#003399" d="M397.525,363.154
			c0.421,0.309,0.521,0.915,0.223,1.354s-0.882,0.545-1.303,0.237c-0.422-0.309-0.521-0.915-0.223-1.354
			C396.52,362.951,397.104,362.845,397.525,363.154"/>
		<path clip-path="url(#SVGID_7_)" fill-rule="evenodd" clip-rule="evenodd" fill="#003399" d="M398.244,367.906
			c0.407,0.329,0.478,0.94,0.16,1.364c-0.318,0.424-0.905,0.501-1.312,0.172c-0.406-0.33-0.478-0.94-0.16-1.364
			C397.25,367.654,397.836,367.578,398.244,367.906"/>
		<path clip-path="url(#SVGID_7_)" fill-rule="evenodd" clip-rule="evenodd" fill="#003399" d="M399.366,372.385
			c0.407,0.329,0.478,0.94,0.16,1.364c-0.318,0.424-0.905,0.501-1.312,0.172c-0.406-0.33-0.478-0.94-0.16-1.364
			S398.959,372.056,399.366,372.385"/>
		<path clip-path="url(#SVGID_7_)" fill-rule="evenodd" clip-rule="evenodd" fill="#003399" d="M403.233,374.4
			c0.407,0.329,0.478,0.94,0.16,1.364c-0.318,0.424-0.905,0.501-1.312,0.172c-0.406-0.33-0.478-0.94-0.16-1.364
			C402.239,374.148,402.826,374.071,403.233,374.4"/>
		<path clip-path="url(#SVGID_7_)" fill-rule="evenodd" clip-rule="evenodd" fill="#003399" d="M406.968,372.201
			c0.407,0.329,0.478,0.94,0.16,1.364s-0.905,0.501-1.312,0.172c-0.406-0.33-0.478-0.94-0.16-1.364
			C405.975,371.949,406.562,371.873,406.968,372.201"/>
		<path clip-path="url(#SVGID_7_)" fill-rule="evenodd" clip-rule="evenodd" fill="#003399" d="M409.915,362.667
			c0.407,0.329,0.479,0.94,0.16,1.364c-0.318,0.424-0.905,0.501-1.313,0.172c-0.405-0.33-0.478-0.94-0.159-1.364
			C408.921,362.415,409.508,362.337,409.915,362.667"/>
		<path clip-path="url(#SVGID_7_)" fill-rule="evenodd" clip-rule="evenodd" fill="#003399" d="M410.661,358.119
			c0.407,0.329,0.479,0.94,0.16,1.364c-0.318,0.424-0.905,0.501-1.312,0.172c-0.406-0.33-0.479-0.94-0.16-1.364
			C409.667,357.867,410.254,357.79,410.661,358.119"/>
		<path clip-path="url(#SVGID_7_)" fill-rule="evenodd" clip-rule="evenodd" fill="#003399" d="M414.299,355.687
			c0.407,0.329,0.479,0.94,0.16,1.364c-0.317,0.424-0.904,0.501-1.312,0.172c-0.406-0.33-0.479-0.94-0.16-1.364
			C413.306,355.435,413.893,355.358,414.299,355.687"/>
		<path clip-path="url(#SVGID_7_)" fill-rule="evenodd" clip-rule="evenodd" fill="#003399" d="M418.046,352.946
			c0.407,0.329,0.479,0.94,0.16,1.364c-0.318,0.424-0.905,0.501-1.312,0.172c-0.406-0.33-0.479-0.94-0.16-1.364
			C417.052,352.694,417.639,352.617,418.046,352.946"/>
		<path clip-path="url(#SVGID_7_)" fill-rule="evenodd" clip-rule="evenodd" fill="#003399" d="M421.201,349.866
			c0.407,0.329,0.478,0.94,0.16,1.364c-0.318,0.424-0.905,0.501-1.313,0.172c-0.405-0.33-0.478-0.94-0.16-1.364
			C420.207,349.614,420.794,349.537,421.201,349.866"/>
		<path clip-path="url(#SVGID_7_)" fill-rule="evenodd" clip-rule="evenodd" fill="#003399" d="M424.464,346.446
			c0.407,0.329,0.478,0.94,0.16,1.364c-0.318,0.424-0.905,0.501-1.313,0.172c-0.406-0.33-0.478-0.94-0.16-1.364
			C423.47,346.194,424.057,346.117,424.464,346.446"/>
		<path clip-path="url(#SVGID_7_)" fill-rule="evenodd" clip-rule="evenodd" fill="#003399" d="M426.681,343.572
			c0.407,0.329,0.479,0.94,0.16,1.364c-0.318,0.424-0.905,0.501-1.313,0.172c-0.405-0.33-0.478-0.94-0.159-1.364
			C425.687,343.32,426.273,343.243,426.681,343.572"/>
		<path clip-path="url(#SVGID_7_)" fill-rule="evenodd" clip-rule="evenodd" fill="#003399" d="M428.575,340.324
			c0.406,0.329,0.478,0.94,0.159,1.364c-0.317,0.424-0.904,0.501-1.312,0.172c-0.406-0.33-0.478-0.94-0.16-1.364
			C427.581,340.072,428.168,339.995,428.575,340.324"/>
		<path clip-path="url(#SVGID_7_)" fill-rule="evenodd" clip-rule="evenodd" fill="#003399" d="M408.493,367.479
			c0.407,0.329,0.479,0.94,0.16,1.364c-0.317,0.424-0.905,0.501-1.312,0.172c-0.406-0.33-0.478-0.94-0.16-1.364
			C407.5,367.227,408.087,367.15,408.493,367.479"/>
		<path clip-path="url(#SVGID_7_)" fill-rule="evenodd" clip-rule="evenodd" fill="#B59B76" d="M411.766,329.598
			c-2.577,1.785-7.595,4.454-13.828,3.598c-2.541-0.35-4.647-1.207-6.246-2.078c2.127-2.905,2.863-5.896,3.148-7.709
			c4.74-0.264,9.48-0.521,14.22-0.785C409.432,325.236,410.409,327.571,411.766,329.598"/>
		<path clip-path="url(#SVGID_7_)" fill="#939393" d="M421.637,532.404c-3.937,3.797-2.265,10.829,3.082,12.967
			c13.322,5.326,27.849,8.32,42.47,8.754c4.524,0.134,8.185-3.979,7.942-7.931c-0.24-3.953-3.525-7.39-7.481-9.324
			c-3.956-1.936-8.526-2.624-13.007-3.195c-4.48-0.57-9.05-1.072-13.185-2.695C434.936,528.417,426.059,528.139,421.637,532.404"/>
		<path clip-path="url(#SVGID_7_)" fill="#353430" d="M419.859,531.538c-3.875,3.828-2.248,10.901,3.001,13.044
			c13.076,5.339,27.341,8.328,41.704,8.741c4.442,0.128,8.046-4.018,7.816-7.995c-0.228-3.977-3.448-7.43-7.33-9.371
			c-3.883-1.941-8.371-2.626-12.771-3.194c-4.401-0.566-8.89-1.064-12.947-2.691C432.931,527.504,424.211,527.239,419.859,531.538"
			/>
		<path clip-path="url(#SVGID_7_)" fill="#E2C294" d="M409.747,538.632c6.944,5.37,16.927,7.409,25.783,5.265
			c2.982-0.722,4.636-3.922,3.972-6.624c-0.665-2.702-3.149-4.816-5.955-5.973c-2.807-1.157-5.932-1.505-9.001-1.809
			c-3.071-0.304-6.193-0.591-9.052-1.643c-2.619-0.965-5.627,1.12-6.35,3.573C408.422,533.874,409.293,536.452,409.747,538.632"/>
		<path clip-path="url(#SVGID_7_)" fill-rule="evenodd" clip-rule="evenodd" fill="#333333" d="M384.008,493.11l-0.02-0.003
			c0,0-2.969,5.82-6.963,9.574c-6.554-7.157-13.131-14.299-19.711-21.42l-0.009-0.012c-0.44-0.487-14.945-16.297-22.474-25.825
			c-1.49-1.893-2.862-3.673-4.106-5.349l-0.008-0.012c-0.149-0.305-2.597-5.437,0.674-9.725c3.383-4.404,10.322,0.886,10.322,0.886
			C355.984,458.223,370.388,475.554,384.008,493.11"/>
		<path clip-path="url(#SVGID_7_)" fill-rule="evenodd" clip-rule="evenodd" fill="#333333" d="M384.008,493.11
			c0.413,0.523,0.815,1.056,1.228,1.58l-6.85,9.459l-0.012,0.009c-0.449-0.499-0.901-0.978-1.349-1.477
			c3.994-3.754,6.963-9.574,6.963-9.574L384.008,493.11z"/>
		<path clip-path="url(#SVGID_7_)" fill-rule="evenodd" clip-rule="evenodd" fill="#E2C294" d="M403.542,502.883
			c0.422,0.339,0.142,0.916-0.458,1.349c-0.646,0.466-1.638,0.752-2.515,0.401c-0.815-0.163-1.76-0.606-2.699-1.414
			c-3.141-2.721-4.659-1.877-5.09-1.013c-0.443,0.873,3.734,5.85,8.5,7.578c4.778,1.72,5.437,3.925,6.152,5.411
			c0.734,1.489,2.421,1.847,2.274,3.453c-0.144,1.586-9.459-1.473-13.763-2.213c-3.96-0.684-5.417,0.171-8.01-2.088l-9.549-10.198
			l-1.361-1.468c3.994-3.754,6.964-9.574,6.964-9.574l0.02,0.003c2.726,0.411,6.054,1.086,8.807,2.228c0,0,2.598,0.432,5.896,3.148
			C402.021,501.193,402.677,502.203,403.542,502.883"/>
		<path clip-path="url(#SVGID_7_)" fill-rule="evenodd" clip-rule="evenodd" fill="#D6A370" d="M392.775,502.211
			c-0.441,0.866,3.738,5.841,8.511,7.571c4.771,1.729,5.433,3.924,6.154,5.414c0,0-5.77-2.357-9.884-3.943
			C393.442,509.669,390.796,503.886,392.775,502.211"/>
		<path clip-path="url(#SVGID_7_)" fill-rule="evenodd" clip-rule="evenodd" fill="#23AEB5" d="M385.868,489.41
			c0.257,4.661-4.426,11.3-9.316,13.599c-0.892,0.413-1.784,0.686-2.662,0.778c-1.999-1.734-3.94-3.455-5.811-5.161
			c-28.189-25.627-41.859-47.783-42.965-74.588c-0.671-16.09,3.191-33.856,11.157-55.058c3.519-8.83,9.637-16.425,17.639-21.572
			c2.662-1.735,4.954-2.884,6.917-3.533c0.007-0.008,0.014-0.008,0.014-0.008c15.048-4.996,11.157,18.903,10.344,31.166
			c0.164,8.93-4.99,9.987-9.373,17.989c-0.457,0.821-0.9,1.72-1.328,2.712c-0.192-0.914-0.385-1.677-0.585-2.241
			c-0.328,0.914-0.664,1.877-0.985,2.869c0,0-0.007,0.008-0.007,0.015c-2.342,7.088-4.519,16.019-5.39,25.069v0.029
			c-1.063,10.985-0.207,22.149,4.604,30.444c0.686,1.179,1.442,2.291,2.292,3.341c5.582,7.53,10.4,14.291,15.162,20.729
			c1.963,2.663,3.918,5.269,5.91,7.859C382.919,485.712,384.369,487.562,385.868,489.41"/>
		<path clip-path="url(#SVGID_7_)" fill-rule="evenodd" clip-rule="evenodd" fill="#1F9393" d="M376.552,503.009
			c-0.892,0.414-1.785,0.685-2.663,0.778c-1.998-1.735-3.94-3.455-5.81-5.161C339.89,473,326.22,450.842,325.114,424.038
			c1.163,4.933,2.969,11.442,5.789,18.881c2.248,5.938,5.375,14.055,11.271,23.335c5.454,8.58,10.643,14.013,16.782,20.458
			C363.261,491.217,369.1,496.905,376.552,503.009"/>
		<path clip-path="url(#SVGID_7_)" fill-rule="evenodd" clip-rule="evenodd" fill="#23AEB5" d="M382.291,481.38l-1.164-0.436h1.257
			C382.384,480.944,382.355,481.102,382.291,481.38"/>
		<path clip-path="url(#SVGID_7_)" fill-rule="evenodd" clip-rule="evenodd" fill="#003399" d="M373.89,503.787
			c-1.999-1.735-3.94-3.455-5.811-5.161c8.366-4.576,11.964-11.064,13.406-14.776c1.435,1.863,2.884,3.712,4.383,5.561
			C386.174,494.921,379.571,503.187,373.89,503.787"/>
		<path clip-path="url(#SVGID_7_)" fill="#01747A" d="M419.026,526.72c-2.002,5.541-4.01,11.088-6.02,16.629
			c-37.312-6.471-73.938-19.202-107.073-37.125c-4.756-2.573-8.141-6.857-9.737-11.617c-1.583-4.737-1.397-9.956,0.977-14.443
			c4.666-8.815,18.496-11.614,28.061-10.42c16.466,2.054,13.621,15.405,35.409,27.834c19.849,11.322,37.102,8.737,55.916,26.676
			C417.653,525.297,418.507,526.176,419.026,526.72"/>
		<path clip-path="url(#SVGID_7_)" fill="#00828F" d="M416.559,524.253c-1.56,4.316-3.12,8.633-4.684,12.944
			c-0.428,1.178-1.772,1.888-3.127,1.645c-36.489-6.588-72.265-19.157-104.696-36.704c-3.345-1.813-6.012-4.464-7.855-7.531
			c-1.583-4.737-1.396-9.956,0.978-14.443c4.942-9.338,18.862-11.982,28.06-10.421c13.287,2.258,18.305,13.68,27.598,23.879
			C362.769,504.526,380.853,517.613,416.559,524.253"/>
		<path clip-path="url(#SVGID_7_)" fill="#939393" d="M382.061,529.161c3.937,3.797,2.265,10.829-3.082,12.967
			c-13.322,5.326-27.849,8.32-42.471,8.754c-4.523,0.135-8.183-3.979-7.941-7.931c0.24-3.953,3.525-7.389,7.481-9.324
			s8.527-2.624,13.007-3.194c4.481-0.571,9.05-1.073,13.185-2.696C368.761,525.174,377.638,524.896,382.061,529.161"/>
		<path clip-path="url(#SVGID_7_)" fill="#353430" d="M383.838,528.295c3.875,3.828,2.248,10.901-3.001,13.044
			c-13.077,5.339-27.341,8.328-41.704,8.741c-4.443,0.128-8.046-4.017-7.817-7.995c0.228-3.977,3.448-7.43,7.33-9.371
			c3.882-1.94,8.371-2.626,12.771-3.193c4.401-0.567,8.889-1.065,12.947-2.692C370.766,524.261,379.485,523.996,383.838,528.295"/>
		<path clip-path="url(#SVGID_7_)" fill="#E2C294" d="M393.95,535.389c-6.945,5.371-16.926,7.41-25.783,5.266
			c-2.982-0.723-4.636-3.923-3.971-6.625s3.149-4.815,5.955-5.973s5.931-1.504,9.001-1.809c3.071-0.304,6.193-0.591,9.05-1.643
			c2.619-0.965,5.628,1.12,6.351,3.573C395.275,530.632,394.405,533.209,393.95,535.389"/>
		<path clip-path="url(#SVGID_7_)" fill="#01747A" d="M507.138,492.348c-1.709,4.361-4.942,8.234-9.371,10.635
			c-33.135,17.923-69.762,30.654-107.08,37.125c-2.002-5.547-4.011-11.088-6.019-16.629c0.462-0.471,0.926-0.939,1.394-1.406
			c0,0,0.719-0.716,1.419-1.394c2.041-1.976,44.858-22.953,61.805-33.446c16.039-9.932,17.299-15.672,29.207-17.569
			c8.217-1.311,22.576-0.963,28.032,7.259C510.727,483.254,507.595,491.183,507.138,492.348"/>
		<path clip-path="url(#SVGID_7_)" fill="#00828F" d="M507.138,492.348c-1.782,2.574-4.177,4.784-7.09,6.363
			c-31.887,17.244-66.994,29.683-102.844,36.363c-2.402,0.447-4.797-0.791-5.554-2.883c-1.39-3.84-2.779-7.675-4.169-11.513
			c29.866-10.06,48.406-22.836,59.979-32.952c7.577-6.623,16.649-16.024,31.627-18.063c2.828-0.386,20.933-2.56,27.438,7.259
			C510.468,482.871,508.041,490.034,507.138,492.348"/>
		<path clip-path="url(#SVGID_7_)" fill="#2E2E30" d="M378.748,222.491c1.629-2.254,6.089-7.756,13.663-9.636
			c5.128-1.273,9.313-0.296,13.663,0.719c8.037,1.875,13.532,5.497,17.978,8.485c4.78,3.213,9.743,6.549,14.526,12.801
			c5.145,6.725,6.821,12.565,9.492,21.861c1.281,4.462,1.617,7.069,0.719,9.78c-0.788,2.379-1.918,2.997-2.732,6.04
			c-0.269,1.005-0.942,3.918-0.288,7.335c0.735,3.831,2.311,3.964,4.171,8.773c1.384,3.573,2.393,6.179,1.582,9.061
			c-0.345,1.228-2.004,3.408-5.32,7.766c-1.646,2.162-2.365,3.002-2.733,4.603c-0.166,0.72-0.77,3.346,0.863,5.753
			c1.563,2.305,4.082,2.788,4.602,2.876c-0.249,2.067-1.593,3.811-3.451,4.459c-2.279,0.793-4.962-0.193-6.328-2.445
			c0.581,0.816,1.4,2.177,1.869,4.027c0.372,1.468,0.913,3.602,0,5.609c-0.852,1.873-2.062,1.637-3.451,4.171
			c-0.599,1.091-1.147,2.126-0.863,3.307c0.441,1.834,2.552,2.618,2.877,2.733c-1.619,1.113-3.753,1.108-5.322,0
			c-1.448-1.023-2.179-2.822-1.869-4.602c-0.234,1-1.321,5.132-5.321,7.766c-5.629,3.708-11.897,1.071-12.368,0.863
			c2.471,0.765,4.89-0.153,5.752-1.87c0.704-1.4,0.307-3.206-0.575-4.314c-1.182-1.485-2.503-0.795-4.314-2.445
			c-0.154-0.141-2.378-2.213-1.869-4.027c0.324-1.163,1.52-1.318,1.582-2.301c0.056-0.902-0.893-1.689-2.015-2.445
			c-3.51-2.365-6.759-3.164-6.759-3.164c-6.233-1.533-9.478-2.332-11.362-0.576c-0.967,0.901-0.519,1.49-1.87,6.472
			c-0.949,3.502-1.424,5.253-2.445,6.76c-2.526,3.729-6.695,4.804-7.047,4.89c-5.898,1.431-10.566-2.44-11.075-2.877
			c2.637-0.335,5.274-0.671,7.911-1.006c-0.168-0.013-2.323-0.214-3.308-2.014c-0.881-1.609-0.448-3.802,1.15-5.178
			c-0.791,0.011-4.779-0.017-8.054-3.164c-3.006-2.888-3.383-6.457-3.451-7.335c1.3,1.128,2.96,0.973,3.595,0.144
			c0.548-0.714,0.386-1.999-0.288-2.589c-0.991-0.868-2.291,0.469-3.739-0.143c-1.565-0.662-1.179-2.703-3.164-7.048
			c-0.691-1.513-1.14-2.495-2.013-3.595c-2.189-2.757-4.172-2.642-5.897-4.315c-3.126-3.032-2.186-8.82-1.726-11.649
			c0.999-6.149,3.706-7.093,4.315-12.657c0.414-3.789-0.518-6.315-1.295-9.348c-0.577-2.254-3.54-14.449-0.863-25.888
			c3.299-14.097,13.473-19.824,14.382-20.279c1.581-0.791,3.165-0.989,3.165-0.989c0.364-0.046,1.389-0.151,2.696,0.054
			C377.236,221.874,378.127,222.206,378.748,222.491"/>
		<path clip-path="url(#SVGID_7_)" fill="#E2C294" d="M435.196,275.139c0.081,2.178,0.352,13.207-5.548,25.466
			c-2.065,4.292-13.37,27.783-31.713,27.614c-19.229-0.178-30.149-26.209-31.424-29.249c-4.595-10.954-4.385-20.652-4.187-24.131
			c1.219-21.457,6.733-43.044,34.337-43.058C424.701,231.767,434.348,252.369,435.196,275.139"/>
		<path clip-path="url(#SVGID_7_)" fill="#E2C294" d="M364.574,286.922c-0.854-3.933-2.186-6.63-3.111-8.209
			c-0.818-1.395-1.714-2.594-3.187-3.074c-0.335-0.11-1.365-0.446-2.324,0c-1.11,0.517-1.57,1.826-1.874,3.261
			c-0.958,4.524-0.039,8.731,0.3,10.121c0.313,1.281,1.32,3.541,3.336,8.06c0.836,1.873,1.504,3.277,3.036,4.011
			c0.195,0.093,1.621,0.752,3.112,0.299c2.1-0.637,3.618-3.265,3.411-6.447C366.373,292.271,365.474,289.597,364.574,286.922"/>
		<path clip-path="url(#SVGID_7_)" fill="#E2C294" d="M431.747,284.112c0.911-4.344,2.332-7.322,3.319-9.067
			c0.871-1.541,1.828-2.864,3.398-3.395c0.358-0.121,1.457-0.492,2.479,0c1.185,0.571,1.675,2.017,2,3.602
			c1.021,4.997,0.042,9.643-0.32,11.178c-0.334,1.415-1.409,3.911-3.559,8.902c-0.893,2.069-1.604,3.619-3.239,4.43
			c-0.208,0.103-1.729,0.83-3.319,0.331c-2.241-0.704-3.86-3.607-3.639-7.121C429.828,290.019,430.787,287.065,431.747,284.112"/>
		<path clip-path="url(#SVGID_7_)" fill="#B59B76" d="M394.792,288.651c-0.555,2.762-1.251,5.429-2.062,8.113
			c-0.26,0.838-0.629,1.727-0.786,2.56c-0.065,0.394-0.045,0.692,0.107,0.964c0.158,0.31,0.525,0.536,0.808,0.739
			c2.229,1.364,5.349,0.759,7.526-0.526c-2.008,2.047-5.502,2.925-8.113,1.47c-2.51-1.336-1.319-3.6-0.588-5.576
			C392.628,293.788,393.564,291.149,394.792,288.651"/>
		<path clip-path="url(#SVGID_7_)" fill="#B59B76" d="M386.95,309.407c5.333,3.281,11.664,4.249,17.612,2.232
			c1.942-0.636,3.812-1.521,5.61-2.605c-3.235,3.137-7.826,4.945-12.358,4.816C393.827,313.782,389.807,312.171,386.95,309.407"/>
		<path clip-path="url(#SVGID_7_)" fill="#240F0F" d="M392.411,269.736c0.142-0.321-3.603-2.538-7.766-4.027
			c-2.568-0.918-4.834-1.394-6.515-1.657c-0.308-0.048-0.619-0.016-0.909,0.096c-0.741,0.286-1.568,0.673-2.428,1.201
			c-1.801,1.106-3.059,2.408-3.887,3.445c-0.083,0.103,0.026,0.25,0.149,0.203c0.359-0.136,0.718-0.273,1.077-0.412
			c4.141-1.592,4.463-1.842,5.25-2.085c1.756-0.542,4.646,0.279,10.355,1.942C391.133,269.432,392.334,269.913,392.411,269.736"/>
		<path clip-path="url(#SVGID_7_)" fill="#240F0F" d="M398.738,269.392c-0.142-0.321,3.603-2.538,7.766-4.027
			c2.568-0.918,4.834-1.394,6.515-1.657c0.308-0.048,0.619-0.016,0.909,0.096c0.741,0.286,1.568,0.673,2.428,1.201
			c1.801,1.106,3.06,2.408,3.887,3.445c0.083,0.103-0.024,0.25-0.148,0.203c-0.359-0.136-0.718-0.273-1.077-0.412
			c-4.141-1.592-4.463-1.842-5.25-2.085c-1.756-0.542-4.646,0.279-10.355,1.942C400.016,269.086,398.814,269.567,398.738,269.392"/>
		<path clip-path="url(#SVGID_7_)" fill="#2E2E30" d="M440.412,269.485c-0.728,0.702-1.683,1.798-2.373,3.344
			c-0.839,1.875-0.638,2.961-1.511,4.638c-0.455,0.874-1.263,2.026-2.805,3.128c-0.108-1.905-0.216-3.811-0.323-5.717
			c-0.525,2.357-1.154,4.82-1.906,7.371c-1.377,4.677-2.949,8.914-4.565,12.693c0.2-4.585,0.071-8.41-0.108-11.219
			c-0.374-5.851-0.981-7.49-2.05-8.845c-1.522-1.934-3.496-2.673-6.147-3.667c-4.722-1.769-5.853-0.698-10.247-2.157
			c-2.753-0.915-6.398-2.125-8.738-5.394c-1.946-2.719-1.147-4.288-3.667-8.521c-1.303-2.189-2.609-3.605-3.775-4.854
			c-2.014-2.158-5.599-5.456-11.219-8.198c-1.672,3.998-3.875,8.512-6.795,13.268c-2.302,3.747-4.66,7.013-6.904,9.815
			c0.788,1.988,2.072,6.036,1.403,11.111c-0.965,7.311-5.34,11.87-6.796,13.267c0.402-1.504,1.064-4.818-0.054-8.737
			c-0.815-2.856-2.242-4.863-3.182-5.987c-0.198-1.384-3.28-25.767,14.346-39.964c10.335-8.324,22.156-8.61,24.306-8.63
			c2.845-0.026,13.364,0.185,23.299,7.335c8.279,5.958,11.804,13.606,14.814,20.136
			C438.279,259.918,439.678,265.503,440.412,269.485"/>
		<path clip-path="url(#SVGID_7_)" fill="#D1D1D1" d="M363.934,299.31c0,1.549-1.02,2.805-2.279,2.805
			c-1.258,0-2.278-1.256-2.278-2.805s1.02-2.805,2.278-2.805C362.914,296.505,363.934,297.761,363.934,299.31"/>
		<path clip-path="url(#SVGID_7_)" fill="#D1D1D1" d="M361.849,302.394c0.735,1.015,1.873,2.901,2.015,5.006
			c0.214,3.184-0.488,4.445-0.925,4.913c-0.297,0.317-0.656,0.478-1.068,0.478c-0.458,0-0.845-0.191-1.183-0.583
			c-0.803-0.933-1.117-2.748-0.818-4.737C360.248,304.954,361.209,303.275,361.849,302.394 M361.871,301.009
			c0,0-2.225,2.023-2.872,6.331c-0.519,3.458,0.674,6.332,2.872,6.332c1.586,0,3.196-1.526,2.872-6.332
			C364.508,303.852,361.871,301.009,361.871,301.009"/>
		
			<rect x="360.315" y="309.521" transform="matrix(0.8585 0.5128 -0.5128 0.8585 210.4563 -140.9239)" clip-path="url(#SVGID_7_)" fill="#D1D1D1" width="0.588" height="2.805"/>
		
			<rect x="361.419" y="310.63" transform="matrix(0.5125 0.8587 -0.8587 0.5125 443.8489 -159.9773)" clip-path="url(#SVGID_7_)" fill="#D1D1D1" width="2.806" height="0.587"/>
		
			<rect x="362.1" y="308.383" transform="matrix(0.998 0.0628 -0.0628 0.998 20.1055 -22.2136)" clip-path="url(#SVGID_7_)" fill="#D1D1D1" width="2.534" height="0.587"/>
		
			<rect x="359.024" y="308.115" transform="matrix(0.998 0.0629 -0.0629 0.998 20.1096 -22.0418)" clip-path="url(#SVGID_7_)" fill="#D1D1D1" width="2.306" height="0.587"/>
		
			<rect x="359.414" y="305.843" transform="matrix(0.5125 0.8587 -0.8587 0.5125 438.7605 -160.5894)" clip-path="url(#SVGID_7_)" fill="#D1D1D1" width="2.806" height="0.587"/>
		
			<rect x="362.736" y="304.734" transform="matrix(0.8583 0.5131 -0.5131 0.8583 208.5353 -142.9087)" clip-path="url(#SVGID_7_)" fill="#D1D1D1" width="0.587" height="2.805"/>
		<path clip-path="url(#SVGID_7_)" fill="#D1D1D1" d="M436.442,298.476c0,1.549-1.021,2.805-2.279,2.805
			c-1.258,0-2.278-1.256-2.278-2.805s1.021-2.805,2.278-2.805C435.422,295.67,436.442,296.927,436.442,298.476"/>
		<path clip-path="url(#SVGID_7_)" fill="#D1D1D1" d="M434.357,301.56c0.734,1.015,1.873,2.901,2.015,5.006
			c0.214,3.184-0.488,4.445-0.925,4.913c-0.297,0.317-0.656,0.478-1.068,0.478c-0.458,0-0.845-0.191-1.183-0.583
			c-0.804-0.933-1.117-2.748-0.818-4.737C432.756,304.12,433.717,302.44,434.357,301.56 M434.379,300.175
			c0,0-2.225,2.023-2.872,6.331c-0.519,3.458,0.674,6.332,2.872,6.332c1.586,0,3.196-1.526,2.872-6.332
			C437.016,303.018,434.379,300.175,434.379,300.175"/>
		
			<rect x="432.822" y="308.686" transform="matrix(0.8591 0.5118 -0.5118 0.8591 219.7308 -177.98)" clip-path="url(#SVGID_7_)" fill="#D1D1D1" width="0.588" height="2.806"/>
		
			<rect x="433.927" y="309.796" transform="matrix(0.5127 0.8586 -0.8586 0.5127 478.3511 -222.6548)" clip-path="url(#SVGID_7_)" fill="#D1D1D1" width="2.806" height="0.587"/>
		
			<rect x="434.607" y="307.549" transform="matrix(0.998 0.0626 -0.0626 0.998 20.1319 -26.6895)" clip-path="url(#SVGID_7_)" fill="#D1D1D1" width="2.534" height="0.587"/>
		
			<rect x="431.532" y="307.281" transform="matrix(0.998 0.0629 -0.0629 0.998 20.2052 -26.6092)" clip-path="url(#SVGID_7_)" fill="#D1D1D1" width="2.305" height="0.587"/>
		
			<rect x="431.922" y="305.008" transform="matrix(0.5125 0.8587 -0.8587 0.5125 473.4211 -223.2543)" clip-path="url(#SVGID_7_)" fill="#D1D1D1" width="2.805" height="0.587"/>
		
			<rect x="435.244" y="303.899" transform="matrix(0.8587 0.5125 -0.5125 0.8587 218.0346 -180.0791)" clip-path="url(#SVGID_7_)" fill="#D1D1D1" width="0.587" height="2.805"/>
		<path clip-path="url(#SVGID_7_)" fill="#B59B76" d="M401.151,283.978c0-5.54,4.14-10.051,8.414-11.046
			c4.933-1.15,9.329,2.703,9.959,3.313c2.212,2.138,2.862,4.689,3.308,6.052c-1.068,1.229-4.07,4.348-8.845,5.283
			C407.145,288.919,402.027,284.721,401.151,283.978"/>
		<path clip-path="url(#SVGID_7_)" fill="#FFFFFF" d="M401.151,284.371c0.72-5.049,4.14-9.029,8.414-9.924
			c4.933-1.032,8.969,2.473,9.6,3.021c2.212,1.921,3.222,4.168,3.667,5.393c-1.068,1.104-4.07,3.906-8.845,4.746
			C407.145,288.81,402.027,285.039,401.151,284.371"/>
		<path clip-path="url(#SVGID_7_)" fill="#746653" d="M417.536,281.725c0,3.237-2.624,5.861-5.861,5.861
			c-3.236,0-5.859-2.624-5.859-5.861c0-3.237,2.623-5.861,5.859-5.861C414.912,275.864,417.536,278.488,417.536,281.725"/>
		<path clip-path="url(#SVGID_7_)" fill="#3A332A" d="M414.372,281.725c0,1.489-1.207,2.697-2.697,2.697
			c-1.488,0-2.695-1.208-2.695-2.697c0-1.489,1.207-2.697,2.695-2.697C413.165,279.028,414.372,280.236,414.372,281.725"/>
		<path clip-path="url(#SVGID_7_)" fill="#FFFFFF" d="M414.372,280.035c0,0.556-0.451,1.007-1.007,1.007
			c-0.557,0-1.007-0.451-1.007-1.007c0-0.556,0.45-1.007,1.007-1.007C413.921,279.028,414.372,279.479,414.372,280.035"/>
		<path clip-path="url(#SVGID_7_)" fill="#433015" d="M422.832,282.86c-0.703-0.931-1.339-1.938-2.17-2.75
			c-0.792-0.805-1.677-1.484-2.627-2.022c-3.775-2.183-8.544-2.105-12.196,0.281c-2.065,1.319-3.885,3.489-4.688,5.929
			c-0.202-2.836,1.314-5.603,3.521-7.487C410.922,271.49,421.299,274.583,422.832,282.86"/>
		<path clip-path="url(#SVGID_7_)" fill="#433015" d="M421.017,279.057c1.321-0.38,2.588-1.194,3.326-2.381
			c-0.444,1.001-1.241,1.814-2.156,2.408c-0.314,0.201-0.626,0.378-0.99,0.532L421.017,279.057z"/>
		<path clip-path="url(#SVGID_7_)" fill="#433015" d="M421.814,280.356c1.113-0.027,2.389-0.278,3.121-1.199
			c-0.44,0.814-1.322,1.279-2.174,1.56c-0.296,0.094-0.585,0.173-0.907,0.225L421.814,280.356z"/>
		<path clip-path="url(#SVGID_7_)" fill="#433015" d="M422.573,281.652c0.598,0.127,1.288,0.095,1.844-0.198
			c0.194-0.098,0.362-0.243,0.52-0.405c-0.348,0.619-1.028,0.977-1.71,1.111c-0.238,0.046-0.464,0.077-0.729,0.075L422.573,281.652z
			"/>
		<path clip-path="url(#SVGID_7_)" fill="#B59B76" d="M389.558,283.978c0-5.54-4.14-10.051-8.414-11.046
			c-4.933-1.15-9.329,2.703-9.959,3.313c-2.212,2.138-2.863,4.689-3.308,6.052c1.068,1.229,4.07,4.348,8.845,5.283
			C383.563,288.919,388.682,284.721,389.558,283.978"/>
		<path clip-path="url(#SVGID_7_)" fill="#FFFFFF" d="M389.558,284.371c-0.72-5.049-4.14-9.029-8.414-9.924
			c-4.933-1.032-8.969,2.473-9.6,3.021c-2.212,1.921-3.222,4.168-3.667,5.393c1.068,1.104,4.07,3.906,8.845,4.746
			C383.563,288.81,388.682,285.039,389.558,284.371"/>
		<path clip-path="url(#SVGID_7_)" fill="#746653" d="M373.773,281.74c0,3.237,2.624,5.861,5.861,5.861
			c3.237,0,5.861-2.624,5.861-5.861c0-3.237-2.624-5.861-5.861-5.861C376.397,275.879,373.773,278.503,373.773,281.74"/>
		<path clip-path="url(#SVGID_7_)" fill="#3A332A" d="M376.937,281.74c0,1.489,1.207,2.697,2.697,2.697
			c1.489,0,2.696-1.208,2.696-2.697c0-1.489-1.207-2.697-2.696-2.697C378.144,279.043,376.937,280.251,376.937,281.74"/>
		<path clip-path="url(#SVGID_7_)" fill="#FFFFFF" d="M376.712,279.807c0,0.556,0.451,1.007,1.007,1.007s1.007-0.451,1.007-1.007
			s-0.451-1.007-1.007-1.007S376.712,279.25,376.712,279.807"/>
		<path clip-path="url(#SVGID_7_)" fill="#433015" d="M367.876,282.86c0.703-0.931,1.338-1.938,2.17-2.75
			c0.792-0.805,1.677-1.484,2.626-2.022c3.777-2.183,8.545-2.105,12.197,0.281c2.065,1.319,3.885,3.489,4.688,5.929
			c0.202-2.836-1.314-5.603-3.521-7.487C379.787,271.49,369.41,274.583,367.876,282.86"/>
		<path clip-path="url(#SVGID_7_)" fill="#433015" d="M369.692,279.057c-1.321-0.38-2.588-1.194-3.326-2.381
			c0.444,1.001,1.241,1.814,2.156,2.408c0.314,0.201,0.626,0.378,0.99,0.532L369.692,279.057z"/>
		<path clip-path="url(#SVGID_7_)" fill="#433015" d="M368.894,280.356c-1.113-0.027-2.388-0.278-3.121-1.199
			c0.441,0.814,1.322,1.279,2.174,1.56c0.296,0.094,0.585,0.173,0.907,0.225L368.894,280.356z"/>
		<path clip-path="url(#SVGID_7_)" fill="#433015" d="M368.135,281.652c-0.598,0.127-1.288,0.095-1.844-0.198
			c-0.194-0.098-0.362-0.243-0.519-0.405c0.347,0.619,1.028,0.977,1.71,1.111c0.238,0.046,0.463,0.077,0.728,0.075L368.135,281.652z
			"/>
		<path clip-path="url(#SVGID_7_)" fill="#23AEB5" d="M504.17,484.713c0,3.677-1.569,9.086-2.891,11.558
			c-0.478,0.3-0.965,0.594-1.478,0.914c-0.235,0.129-0.483,0.299-0.735,0.428c-19.721,11.889-41.905,20.347-64.673,24.634
			c-35.817,6.87-74.099,2.958-107.795-10.658c-11.138-5.578-25.714-8.019-29.503-20.878c-3.413-7.922,2.332-17.697,9.352-20.158
			c11.636-4.187,17.268-2.747,28.667,1.262c22.03,13.794,44.061,27.575,66.086,41.367c27.929-19.963,82.316-50.876,82.25-48.184
			C496.76,464.639,504.623,468.537,504.17,484.713"/>
		<path clip-path="url(#SVGID_7_)" fill-rule="evenodd" clip-rule="evenodd" fill="#003399" d="M430.874,522.875
			c-1.577,0.264-3.184,0.521-4.804,0.75c-1.849-1.407-3.662-2.856-5.432-4.326c-1.378,1.841-2.791,3.662-4.248,5.468
			c-0.671,0.064-1.35,0.114-2.034,0.171c-0.229,0.021-0.457,0.043-0.692,0.057l-0.3,0.021c-1.699,0.129-3.419,0.236-5.161,0.322
			c-1.649-1.535-3.255-3.105-4.826-4.697c-1.513,1.663-3.055,3.305-4.647,4.932h-0.05c-0.906,0-1.806-0.007-2.698-0.021h-0.05
			c-0.207-0.007-0.414-0.007-0.621-0.014c-1.606-0.029-3.191-0.079-4.761-0.144c-1.528-1.735-3.013-3.491-4.462-5.268
			c-1.713,1.563-3.469,3.104-5.26,4.604c-0.043-0.007-0.086-0.007-0.129-0.014c-0.821-0.072-1.628-0.15-2.434-0.243
			c-0.186-0.021-0.371-0.043-0.55-0.064c-0.228-0.021-0.457-0.043-0.678-0.078c-1.306-0.144-2.591-0.308-3.869-0.479
			c-1.478-2.006-2.898-4.033-4.269-6.082c-2.027,1.506-4.097,2.97-6.21,4.39c-0.121-0.021-0.25-0.05-0.371-0.07
			c-0.564-0.107-1.121-0.223-1.678-0.336c-0.271-0.058-0.542-0.107-0.813-0.171c-0.379-0.071-0.757-0.15-1.135-0.236
			c-0.878-0.185-1.749-0.378-2.613-0.571c-1.449-2.384-2.827-4.782-4.147-7.202c-2.449,1.449-4.954,2.842-7.51,4.184
			c-0.078-0.029-0.157-0.05-0.235-0.072c-0.322-0.092-0.636-0.192-0.957-0.285c-0.335-0.1-0.671-0.2-1.006-0.307
			c-0.041-0.013-0.909-0.28-1.657-0.515c-1.704-0.534-3.617-1.161-3.946-1.271c0.059-1.008,0.047-2.265-0.17-3.687
			c-0.255-1.676-0.713-3.062-1.144-4.101c-2.817,0.345-5.82,0.617-8.995,0.779c-2.363,0.12-4.635,0.17-6.807,0.164
			c0.092-1.102,0.142-2.305,0.12-3.596c-0.032-1.949-0.22-3.71-0.472-5.242c-2.691,0.095-5.448,0.23-8.268,0.414
			c-2.369,0.152-4.689,0.333-6.959,0.536c0.143-2.003,0.188-4.234,0.053-6.655c-0.079-1.428-0.212-2.776-0.381-4.039
			c-2.106,0.428-4.24,0.806-6.396,1.142c-0.035,0.007-0.078,0.015-0.114,0.021c-0.342-1.199-0.592-2.398-0.742-3.583
			c-0.022-0.121-0.036-0.236-0.05-0.357c-0.079-0.742-0.122-1.485-0.129-2.213c0-0.135,0-0.278,0.007-0.414
			c0-0.071,0-0.136,0.008-0.2c0-0.185,0.007-0.371,0.014-0.557c0.007,0.008,0.021,0.015,0.028,0.021
			c39.732,31.102,87.959,42.26,133.771,33.479C430.289,519.105,430.581,520.989,430.874,522.875"/>
		<path clip-path="url(#SVGID_7_)" fill-rule="evenodd" clip-rule="evenodd" fill="#003399" d="M504.188,483.039
			c0.019,1.512-0.069,3.255-0.364,5.166c-0.51,3.309-1.477,6.036-2.39,8.076c-0.035,0.021-0.071,0.05-0.114,0.078
			c-2.079-0.399-4.326-0.755-6.726-1.029c-2.352-0.268-4.577-0.428-6.655-0.509c-0.095,1.8-0.158,3.657-0.185,5.567
			c-0.016,1.199-0.017,2.377-0.005,3.532c-0.548,0.287-1.1,0.581-1.656,0.882c-0.457,0.248-0.907,0.495-1.354,0.743
			c-1.738-0.406-3.606-0.78-5.595-1.092c-2.518-0.396-4.887-0.641-7.075-0.781c-1.143,2.983-2.369,5.946-3.669,8.901
			c-1.652,0.633-3.317,1.26-5.004,1.849c-2.619-1.185-5.196-2.44-7.717-3.748c-1.221,2.491-2.499,4.977-3.848,7.438
			c-2.173,0.637-4.318,1.199-6.546,1.756c-2.177-1.299-4.318-2.648-6.41-4.04c-1.285,2.127-2.619,4.233-4.004,6.325
			c-0.157,0.027-0.314,0.063-0.479,0.092c-1.171,0.223-2.344,0.429-3.519,0.629c-0.292-1.885-0.585-3.77-0.878-5.654
			c10.299-2.054,23.146-5.575,37.172-11.833C482.964,498.342,495.282,490.044,504.188,483.039"/>
		<path clip-path="url(#SVGID_7_)" fill-rule="evenodd" clip-rule="evenodd" fill="#23AEB5" d="M298.124,483.039
			c10.61,11.717,30.373,29.77,59.787,38.285c17.083,4.944,31.659,5.005,39.858,4.981c9.914-0.029,29.194-0.259,51.92-8.916
			c23.895-9.102,40.102-23.139,49.298-32.603c-13.811,6.27-47.936,19.927-80.24,30.768c-7.246,2.431-18.104,4.893-30.417,2.622
			c-13.157-2.425-21.766-9.106-26.747-12.587C349.663,497.261,330.246,487.499,298.124,483.039"/>
		<path clip-path="url(#SVGID_7_)" fill-rule="evenodd" clip-rule="evenodd" fill="#1F9393" d="M362.24,426.793
			c-0.05,0.021-0.1,0.043-0.15,0.058c0.407-9.395-0.128-20.451-2.191-33.357c0.014,0.942-0.5,1.863-0.985,2.87
			c0,0-0.008,0.007-0.008,0.014c-2.341,7.088-4.518,16.019-5.389,25.069c-0.228-6.817,0.157-15.468,2.299-25.205
			c0.492-2.234,1.042-4.361,1.627-6.389c0.949-3.313,2.013-6.346,3.091-9.08c0.471,4.333,0.892,8.424,1.278,12.25
			c0.692,6.902,1.249,12.941,1.692,17.995C364.274,419.755,364.724,425.68,362.24,426.793"/>
		<path clip-path="url(#SVGID_7_)" fill-rule="evenodd" clip-rule="evenodd" fill="#1F9393" d="M440.142,419.321
			c0.388-7.906,1.019-16.069,1.94-24.464c0.23-2.102,0.476-4.184,0.734-6.245c1.984,4.278,4.557,9.091,7.897,14.143
			c2.824,4.27,5.695,7.95,8.397,11.075c-2.465-1.706-5.311-3.95-8.213-6.851c-2.922-2.918-5.177-5.78-6.889-8.256
			c-0.589,3.246-1.189,6.507-1.804,9.782C441.526,412.133,440.838,415.738,440.142,419.321"/>
		<path clip-path="url(#SVGID_7_)" fill="#BC956B" d="M617,547.421c1.29-0.262,2.817-0.479,4.54-0.544
			c1.424-0.054,5.508,0.182,6.639,0.293c-0.181-3.43-3.152-7.035-3.334-10.465c-1.276-0.392-2.929-0.77-4.877-0.899
			c-2.524-0.169-4.651,0.138-6.18,0.482C614.859,539.999,615.929,543.71,617,547.421"/>
		<path clip-path="url(#SVGID_7_)" fill="#9FA681" d="M621.156,535.688c14.373-2.976,15.882-6.907,24.752-2.753
			c2.336,3.658,2.08,11.914,2.394,16.189c0.771,10.383,2.284,17.003-0.633,19.897c-1.408,1.442-4.532,2.59-7.08,1.084
			c-1.744-1.024-3.988-6.924-5.588-14.131c-4.217-5.346-8.421-8.951-8.421-8.951s0.018-4.169-0.683-6.19
			C625.272,539.008,619.398,536.05,621.156,535.688"/>
		<path clip-path="url(#SVGID_7_)" fill="#81896E" d="M637.111,551.302c0.846,2.182-0.098,4.519-1.668,6.564
			c-0.151-0.619-0.3-1.244-0.442-1.892c-4.217-5.346-8.421-8.95-8.421-8.95s0.011-3.3-0.478-5.449
			C631.391,543.419,634.974,547.588,637.111,551.302"/>
		<path clip-path="url(#SVGID_7_)" fill="#646C5A" d="M628.102,548.414c-0.939-0.893-1.521-1.39-1.521-1.39s0.018-4.169-0.682-6.19
			c-0.625-1.826-6.499-4.784-4.742-5.146c3.096-0.643,5.591-1.328,7.693-1.969C631.172,538.427,630.607,543.657,628.102,548.414"/>
		<path clip-path="url(#SVGID_7_)" fill="#481925" d="M646.32,557.65c-0.731-8.84-4.025-17.685-5.662-26.411
			c1.519,0.204,3.185,0.729,5.25,1.697c2.336,3.656,2.08,11.912,2.394,16.188c0.771,10.383,2.284,17.002-0.633,19.898
			c-0.787,0.807-2.118,1.526-3.581,1.735C646.38,567.258,646.613,561.165,646.32,557.65"/>
		<path clip-path="url(#SVGID_7_)" fill="#481925" d="M630.024,551.449c-0.288-0.12-0.394-0.363-0.306-0.583
			c0.826-1.979,3.247-6.057,3.35-6.232c0.124-0.2,0.381-0.261,0.588-0.141c0.201,0.118,0.267,0.383,0.148,0.584
			c-0.026,0.041-2.492,4.189-3.295,6.115C630.428,551.384,630.225,551.492,630.024,551.449"/>
		<path clip-path="url(#SVGID_7_)" fill="#481925" d="M631.98,553.49c-0.244-0.055-0.38-0.291-0.324-0.522
			c0.353-1.384,3.476-5.061,3.831-5.484c0.154-0.176,0.422-0.194,0.602-0.039c0.18,0.149,0.2,0.421,0.049,0.598
			c-0.93,1.084-3.396,4.123-3.651,5.132C632.427,553.4,632.202,553.54,631.98,553.49"/>
		<path clip-path="url(#SVGID_7_)" fill="#481925" d="M634.054,555.964c-0.277-0.089-0.394-0.334-0.315-0.563
			c0.764-2.178,3.367-5.193,3.476-5.32c0.155-0.183,0.425-0.206,0.603-0.045c0.179,0.153,0.198,0.42,0.044,0.596
			c-0.028,0.035-2.61,3.032-3.317,5.053C634.469,555.896,634.258,556.008,634.054,555.964"/>
		<path clip-path="url(#SVGID_7_)" fill="#B2B2B2" d="M505.416,532.495c2.112-3.692,8.606-11.889,40.55-12.415
			c16.331-0.27,41.518,1.432,72.261,12.292c0.832,1.818,1.945,4.851,2.137,8.752c0.218,4.416-0.845,7.895-1.601,9.837
			c-5.104,1.036-12.317,2.418-21.001,3.813c-8.668,1.392-22.688,3.64-36.271,4.497c-24.547,1.547-50.266,3.168-57.045-9.577
			C501.466,544.09,502.834,537.003,505.416,532.495"/>
		<path clip-path="url(#SVGID_7_)" fill="#B2B2B2" d="M504.745,535.616c3.231-9.848,13.656-14.789,44.053-24.101
			c36.883-11.3,48.157-10.801,53.813-7.998c1.204,0.597,2.266,1.407,2.266,1.407c1.996,1.431,3.406,2.985,4.355,4.212
			c1.138,4.354,2.03,10.795-0.705,16.996c-2.229,5.06-7.897,12.286-40.47,18.913c-20.788,4.23-55.674,10.494-63.66-0.566
			C502.321,541.604,504.008,537.864,504.745,535.616"/>
		<path clip-path="url(#SVGID_7_)" fill="#9B9B9B" d="M568.915,542.965c-28.139,7.146-51.833,2.591-63.66-0.567
			c0.934,0.703,2.426,1.77,4.357,2.889c7.124,4.126,18.539,7.997,58.445-0.239c27.518-5.68,36.791-10.568,40.47-18.913
			c0.217-0.491,0.403-0.982,0.575-1.475C600.41,530.657,586.882,538.403,568.915,542.965"/>
		<path clip-path="url(#SVGID_7_)" fill="#B2B2B2" d="M609.232,509.137c-0.948-1.227-2.359-2.781-4.356-4.212
			c0,0-1.06-0.812-2.265-1.407c-5.656-2.803-16.93-3.302-53.813,7.998c-27.976,8.57-39.028,13.441-43.132,21.839
			c-0.02,0.062-0.044,0.119-0.063,0.18c-0.737,2.248-2.423,5.988-0.348,8.863c7.985,11.062,42.871,4.797,63.659,0.567
			c31.295-6.367,37.752-13.287,40.189-18.307C611.112,518.926,610.28,513.146,609.232,509.137"/>
		<path clip-path="url(#SVGID_7_)" fill="#EF303E" d="M471.855,452.596c0.014-0.016,0.028-0.032,0.042-0.048
			c1.958-2.255,4.761-3.634,7.745-3.746c1.104-0.041,2.026,0.093,2.767,0.297c1.391,0.38,2.316,1.689,2.219,3.126
			c0,0-9.95,6.179-11.943,4.876c-0.351-0.229-0.632-0.482-0.857-0.744C470.901,455.279,470.929,453.672,471.855,452.596"/>
		<path clip-path="url(#SVGID_7_)" fill="#C4233E" d="M472.527,453.113c0.013-0.014,0.027-0.028,0.04-0.042
			c1.898-1.938,4.497-3.227,7.179-3.506c0.993-0.104,1.811-0.053,2.462,0.063c1.222,0.22,1.969,1.215,1.79,2.377
			c0,0-9.309,5.606-11.013,4.684c-0.3-0.163-0.536-0.349-0.721-0.545C471.502,455.334,471.627,454.039,472.527,453.113"/>
		
			<rect x="486.892" y="452.02" transform="matrix(-0.8899 0.4562 -0.4562 -0.8899 1130.865 632.2086)" clip-path="url(#SVGID_7_)" fill="#414042" width="4.485" height="1.125"/>
		
			<rect x="486.075" y="452.16" transform="matrix(-0.4563 -0.8898 0.8898 -0.4563 305.7942 1094.0834)" clip-path="url(#SVGID_7_)" fill="#EF303E" width="2.142" height="2.92"/>
		<path clip-path="url(#SVGID_7_)" fill="#58595B" d="M453.254,463.679c0.002-0.612,0.123-1.174,0.398-1.554l0.512,0.999
			L453.254,463.679z"/>
		<path clip-path="url(#SVGID_7_)" fill="#F24C4C" d="M449.594,463.287c2.692-1.444,6.229-3.338,9.896-5.3
			c0.309-0.165,0.618-0.331,0.928-0.496c1.656-0.886,3.327-1.778,4.949-2.646l1.683,0.572l-18.795,9.634
			C448.419,464.323,448.885,463.667,449.594,463.287"/>
		<path clip-path="url(#SVGID_7_)" fill="#EF303E" d="M448.483,466.852c-0.117-0.229-0.198-0.466-0.245-0.706
			c-0.072-0.366-0.063-0.738,0.017-1.095l18.795-9.633l0.966,0.328l0.418,3.966l0.216,2.186l0.144-0.892l13.539-6.938l0.109,0.171
			l0.718,1.115l0.786,1.222l-32.255,16.533L448.483,466.852z"/>
		<polygon clip-path="url(#SVGID_7_)" fill="#C4233E" points="483.945,456.575 484.147,456.889 483.025,457.473 482.14,457.934 
			481.006,458.526 478.78,459.688 477.646,460.279 476.76,460.74 476.143,461.063 474.874,463.8 461.718,470.659 459.368,469.809 
			459.019,469.991 458.567,470.229 453.801,472.713 453.221,473.014 452.441,473.421 451.975,473.664 451.69,473.108 		"/>
		<polygon clip-path="url(#SVGID_7_)" fill="#58595B" points="462.746,461.061 464.538,461.709 468.433,459.712 468.581,461.115 
			468.794,461.007 468.84,462.269 456.53,468.475 454.798,467.638 454.691,465.188 		"/>
		<path clip-path="url(#SVGID_7_)" fill="#414042" d="M472.984,462.082c1.89,3.687,6.41,5.144,10.097,3.254s5.144-6.41,3.255-10.098
			c-1.89-3.687-6.411-5.144-10.098-3.253C472.551,453.874,471.094,458.395,472.984,462.082"/>
		<path clip-path="url(#SVGID_7_)" fill="#414042" d="M476.57,451.14l1.627-0.834c0.399-0.205,0.885,0.026,0.977,0.466l0.286,1.359
			l-2.856,0.566l-0.329-0.642C476.104,451.722,476.236,451.311,476.57,451.14"/>
		<path clip-path="url(#SVGID_7_)" fill="#414042" d="M482.751,452.906l-2.757-0.938l0.036-0.72c0.02-0.375,0.338-0.664,0.714-0.646
			l1.826,0.092c0.448,0.022,0.753,0.464,0.613,0.892L482.751,452.906z"/>
		<path clip-path="url(#SVGID_7_)" fill="#414042" d="M485.214,455.223l-1.918-2.191l0.391-0.604
			c0.204-0.315,0.626-0.406,0.941-0.202l1.535,0.992c0.377,0.243,0.42,0.779,0.085,1.078L485.214,455.223z"/>
		<path clip-path="url(#SVGID_7_)" fill="#414042" d="M485.623,455.604l0.641-0.328c0.335-0.172,0.745-0.039,0.917,0.295
			l0.834,1.628c0.205,0.399-0.027,0.884-0.466,0.977l-1.36,0.285L485.623,455.604z"/>
		<path clip-path="url(#SVGID_7_)" fill="#414042" d="M486.353,458.995l0.719,0.036c0.375,0.018,0.664,0.338,0.646,0.714
			l-0.093,1.826c-0.021,0.447-0.465,0.752-0.891,0.612l-1.321-0.432L486.353,458.995z"/>
		<path clip-path="url(#SVGID_7_)" fill="#414042" d="M485.893,462.687c0.316,0.204,0.407,0.626,0.203,0.941l-0.992,1.536
			c-0.244,0.377-0.779,0.42-1.079,0.086l-0.928-1.035l2.192-1.918L485.893,462.687z"/>
		<path clip-path="url(#SVGID_7_)" fill="#414042" d="M479.859,465.189l2.856-0.566l0.328,0.642
			c0.172,0.334,0.039,0.744-0.295,0.916l-1.627,0.834c-0.4,0.205-0.884-0.026-0.978-0.466L479.859,465.189z"/>
		<path clip-path="url(#SVGID_7_)" fill="#414042" d="M476.568,464.414l2.757,0.939l-0.036,0.718
			c-0.019,0.376-0.338,0.665-0.714,0.646l-1.826-0.092c-0.448-0.021-0.753-0.465-0.613-0.892L476.568,464.414z"/>
		<path clip-path="url(#SVGID_7_)" fill="#414042" d="M473.07,463.025l1.035-0.928l1.918,2.191l-0.391,0.604
			c-0.204,0.315-0.625,0.406-0.941,0.202l-1.536-0.992C472.778,463.86,472.736,463.325,473.07,463.025"/>
		<path clip-path="url(#SVGID_7_)" fill="#414042" d="M473.696,461.717l-0.641,0.328c-0.335,0.172-0.745,0.039-0.917-0.295
			l-0.834-1.627c-0.204-0.4,0.027-0.885,0.466-0.978l1.36-0.285L473.696,461.717z"/>
		<path clip-path="url(#SVGID_7_)" fill="#414042" d="M472.967,458.326l-0.719-0.036c-0.375-0.02-0.665-0.339-0.646-0.714
			l0.093-1.826c0.021-0.448,0.465-0.753,0.891-0.613l1.321,0.432L472.967,458.326z"/>
		<path clip-path="url(#SVGID_7_)" fill="#414042" d="M473.427,454.634c-0.316-0.204-0.407-0.626-0.203-0.941l0.993-1.536
			c0.242-0.377,0.778-0.42,1.078-0.085l0.928,1.034l-2.192,1.918L473.427,454.634z"/>
		<path clip-path="url(#SVGID_7_)" fill="#EF303E" d="M475.36,460.864c-1.217-2.375-0.279-5.286,2.096-6.503
			c1.097-0.563,2.309-0.664,3.415-0.377l-2.959,9.18C476.848,462.751,475.922,461.961,475.36,460.864"/>
		<path clip-path="url(#SVGID_7_)" fill="#F24C4C" d="M480.871,453.984c1.288,0.334,2.434,1.194,3.088,2.473
			c1.217,2.374,0.279,5.286-2.096,6.503c-1.277,0.655-2.71,0.685-3.951,0.204L480.871,453.984z"/>
		<path clip-path="url(#SVGID_7_)" fill="#414042" d="M477.36,459.839c0.651,1.27,2.208,1.771,3.479,1.121
			c1.27-0.651,1.771-2.208,1.119-3.479c-0.649-1.27-2.206-1.771-3.477-1.12S476.709,458.568,477.36,459.839"/>
		<path clip-path="url(#SVGID_7_)" fill="#414042" d="M479.431,454.222c0.259-0.133,0.576-0.03,0.709,0.229
			c0.133,0.26,0.031,0.576-0.228,0.709c-0.26,0.133-0.577,0.03-0.71-0.229C479.069,454.673,479.172,454.354,479.431,454.222"/>
		<path clip-path="url(#SVGID_7_)" fill="#414042" d="M482.304,455.064c0.283,0.063,0.461,0.347,0.396,0.631
			c-0.064,0.282-0.347,0.461-0.63,0.396c-0.284-0.064-0.462-0.347-0.397-0.631C481.737,455.176,482.02,454.999,482.304,455.064"/>
		<path clip-path="url(#SVGID_7_)" fill="#414042" d="M483.225,457.454c0.231-0.177,0.562-0.13,0.737,0.102
			c0.177,0.232,0.13,0.563-0.102,0.738c-0.232,0.175-0.563,0.13-0.738-0.103C482.947,457.96,482.992,457.63,483.225,457.454"/>
		<path clip-path="url(#SVGID_7_)" fill="#414042" d="M483.132,459.979c0.29,0.014,0.515,0.262,0.5,0.553
			c-0.015,0.29-0.262,0.513-0.553,0.499c-0.291-0.015-0.514-0.262-0.5-0.552C482.594,460.188,482.841,459.963,483.132,459.979"/>
		<path clip-path="url(#SVGID_7_)" fill="#414042" d="M480.693,461.881c0.198-0.214,0.531-0.227,0.744-0.028
			c0.214,0.198,0.227,0.532,0.028,0.745s-0.531,0.225-0.744,0.026C480.509,462.428,480.496,462.094,480.693,461.881"/>
		<path clip-path="url(#SVGID_7_)" fill="#414042" d="M478.348,461.742c0.289-0.035,0.553,0.17,0.588,0.457
			c0.036,0.289-0.168,0.553-0.457,0.589c-0.288,0.036-0.552-0.169-0.588-0.457C477.855,462.042,478.059,461.778,478.348,461.742"/>
		<path clip-path="url(#SVGID_7_)" fill="#414042" d="M475.911,460.286c0.158-0.244,0.483-0.314,0.728-0.156
			c0.245,0.157,0.315,0.483,0.157,0.728s-0.484,0.314-0.729,0.156C475.823,460.856,475.753,460.53,475.911,460.286"/>
		<path clip-path="url(#SVGID_7_)" fill="#414042" d="M476.02,458.453c-0.278,0.086-0.573-0.069-0.659-0.348
			c-0.085-0.278,0.071-0.573,0.349-0.659c0.278-0.085,0.573,0.07,0.658,0.35C476.453,458.073,476.297,458.367,476.02,458.453"/>
		<path clip-path="url(#SVGID_7_)" fill="#414042" d="M477.379,455.143c0.268,0.112,0.394,0.422,0.281,0.689
			c-0.113,0.268-0.422,0.395-0.69,0.281c-0.268-0.113-0.394-0.422-0.281-0.69C476.802,455.155,477.111,455.029,477.379,455.143"/>
		<path clip-path="url(#SVGID_7_)" fill="#EF303E" d="M478.456,459.277c0.341,0.665,1.156,0.928,1.82,0.587
			c0.665-0.341,0.929-1.156,0.587-1.821c-0.341-0.665-1.155-0.928-1.82-0.587S478.114,458.612,478.456,459.277"/>
		<path clip-path="url(#SVGID_7_)" fill="#414042" d="M451.491,475.882c1.482,2.892,5.028,4.035,7.922,2.553
			c2.893-1.482,4.036-5.029,2.553-7.922c-1.481-2.893-5.028-4.036-7.922-2.553C451.151,469.442,450.008,472.989,451.491,475.882"/>
		<path clip-path="url(#SVGID_7_)" fill="#EF303E" d="M452.908,475.155c-1.082-2.109-0.247-4.697,1.861-5.778
			c1.089-0.559,2.306-0.606,3.376-0.231l-2.633,8.168C454.426,476.992,453.466,476.245,452.908,475.155"/>
		<path clip-path="url(#SVGID_7_)" fill="#F24C4C" d="M458.146,469.146c1.004,0.351,1.881,1.072,2.404,2.093
			c1.081,2.11,0.247,4.698-1.862,5.779c-1.022,0.523-2.154,0.598-3.175,0.296L458.146,469.146z"/>
		<path clip-path="url(#SVGID_7_)" fill="#414042" d="M455.425,473.865c0.369,0.721,1.252,1.005,1.972,0.636
			c0.721-0.369,1.005-1.252,0.636-1.973c-0.368-0.72-1.252-1.005-1.972-0.636C455.34,472.263,455.056,473.146,455.425,473.865"/>
		<path clip-path="url(#SVGID_7_)" fill="#414042" d="M456.525,469.253c0.229-0.118,0.512-0.027,0.63,0.203
			c0.118,0.229,0.027,0.512-0.203,0.63c-0.229,0.118-0.512,0.026-0.63-0.203C456.204,469.652,456.295,469.371,456.525,469.253"/>
		<path clip-path="url(#SVGID_7_)" fill="#414042" d="M459.078,470.001c0.252,0.059,0.41,0.31,0.352,0.561
			c-0.058,0.253-0.309,0.41-0.561,0.353s-0.409-0.309-0.352-0.561S458.826,469.943,459.078,470.001"/>
		<path clip-path="url(#SVGID_7_)" fill="#414042" d="M459.896,472.125c0.206-0.156,0.5-0.116,0.656,0.091
			c0.155,0.206,0.114,0.499-0.092,0.655c-0.205,0.156-0.498,0.115-0.655-0.091C459.649,472.574,459.69,472.28,459.896,472.125"/>
		<path clip-path="url(#SVGID_7_)" fill="#414042" d="M459.814,474.368c0.258,0.013,0.457,0.233,0.444,0.491
			c-0.014,0.258-0.233,0.457-0.491,0.444c-0.258-0.014-0.457-0.233-0.444-0.491C459.337,474.555,459.557,474.355,459.814,474.368"/>
		<path clip-path="url(#SVGID_7_)" fill="#414042" d="M457.647,476.059c0.176-0.189,0.472-0.201,0.662-0.025
			c0.188,0.177,0.2,0.473,0.025,0.662c-0.177,0.189-0.474,0.2-0.662,0.024C457.483,476.545,457.472,476.248,457.647,476.059"/>
		<path clip-path="url(#SVGID_7_)" fill="#414042" d="M455.563,475.937c0.257-0.032,0.491,0.149,0.523,0.405
			c0.032,0.258-0.15,0.491-0.407,0.523c-0.256,0.032-0.49-0.149-0.521-0.406C455.125,476.202,455.307,475.968,455.563,475.937"/>
		<path clip-path="url(#SVGID_7_)" fill="#414042" d="M453.397,474.642c0.141-0.217,0.43-0.28,0.646-0.139
			c0.219,0.14,0.28,0.43,0.14,0.646c-0.141,0.218-0.43,0.279-0.647,0.14C453.319,475.148,453.257,474.858,453.397,474.642"/>
		<path clip-path="url(#SVGID_7_)" fill="#414042" d="M453.494,473.014c-0.247,0.076-0.51-0.063-0.585-0.31
			c-0.076-0.248,0.062-0.509,0.309-0.586c0.247-0.075,0.509,0.063,0.585,0.311C453.88,472.676,453.74,472.938,453.494,473.014"/>
		<path clip-path="url(#SVGID_7_)" fill="#414042" d="M454.702,470.07c0.238,0.102,0.35,0.375,0.25,0.613
			c-0.102,0.239-0.376,0.35-0.614,0.25c-0.238-0.101-0.35-0.375-0.249-0.613S454.464,469.971,454.702,470.07"/>
		<path clip-path="url(#SVGID_7_)" fill="#414042" d="M448.483,466.852l0.075,0.146l1.136-0.582c0.11-0.057,0.188-0.155,0.225-0.264
			c0.035-0.11,0.029-0.233-0.028-0.346c-0.113-0.221-0.387-0.309-0.608-0.195l-1.044,0.535
			C448.285,466.386,448.366,466.622,448.483,466.852"/>
		<path clip-path="url(#SVGID_7_)" fill="#414042" d="M448.747,467.366l0.412,0.804l1.137-0.583c0.11-0.056,0.188-0.154,0.224-0.263
			c0.036-0.11,0.029-0.233-0.027-0.346c-0.114-0.221-0.388-0.309-0.609-0.195L448.747,467.366z"/>
		<path clip-path="url(#SVGID_7_)" fill="#414042" d="M449.348,468.538l0.413,0.806l1.136-0.583
			c0.111-0.057,0.188-0.153,0.225-0.265c0.035-0.11,0.028-0.233-0.028-0.345c-0.113-0.221-0.387-0.31-0.609-0.196L449.348,468.538z"
			/>
		<path clip-path="url(#SVGID_7_)" fill="#414042" d="M449.949,469.711l0.413,0.805l1.136-0.582
			c0.109-0.057,0.188-0.154,0.224-0.265s0.029-0.233-0.027-0.343c-0.113-0.223-0.388-0.312-0.609-0.198L449.949,469.711z"/>
		
			<rect x="463.305" y="455.455" transform="matrix(-0.457 -0.8895 0.8895 -0.457 268.6098 1078.5566)" clip-path="url(#SVGID_7_)" fill="#414042" width="0.438" height="3.666"/>
		
			<rect x="463.72" y="456.265" transform="matrix(-0.4561 -0.8899 0.8899 -0.4561 267.8616 1079.9069)" clip-path="url(#SVGID_7_)" fill="#414042" width="0.439" height="3.666"/>
		
			<rect x="464.135" y="457.076" transform="matrix(-0.4561 -0.8899 0.8899 -0.4561 267.7453 1081.4569)" clip-path="url(#SVGID_7_)" fill="#414042" width="0.439" height="3.665"/>
		<path clip-path="url(#SVGID_7_)" fill="#414042" d="M465.197,454.476c0.304,0.172,0.675,0.306,1.083,0.396l-0.064,0.263
			l0.91,0.554l0.16-0.694c0.742,0.024,1.429-0.097,1.912-0.345c0.404-0.207,0.63-0.483,0.654-0.799
			c0.056-0.748-1.089-1.424-2.606-1.539c-0.834-0.063-1.619,0.06-2.154,0.334c-0.404,0.206-0.631,0.482-0.653,0.798
			C464.409,453.818,464.68,454.186,465.197,454.476 M469.145,453.175l-1.859,1.331l-0.629-0.145l-1.164-1.584
			c0.471-0.166,1.093-0.237,1.733-0.189C468.016,452.648,468.718,452.877,469.145,453.175 M469.071,454.401
			c-0.399,0.204-0.979,0.315-1.603,0.315l1.896-1.357c0.145,0.149,0.223,0.31,0.211,0.47
			C469.56,454.04,469.38,454.243,469.071,454.401 M464.715,453.463c0.017-0.21,0.194-0.413,0.504-0.572
			c0.002-0.001,0.007-0.002,0.01-0.004l1.152,1.57l-0.035,0.143c-0.384-0.084-0.73-0.208-1.013-0.365
			C464.92,454.003,464.696,453.722,464.715,453.463"/>
		<path clip-path="url(#SVGID_7_)" fill="#F2B172" d="M487.761,449.659c2.709,2.444,1.977,6.872-1.353,8.368
			c-0.353,0.157-0.718,0.279-1.089,0.345c-2.279,0.401-4.295,0.659-4.295,0.659s-4.07,3.107-5.544,3.291
			c-1.686,0.21-2.616-0.457-2.64-1.134c-0.023-0.675,3.114-2.736,4.075-3.553c0.962-0.816,3.187-2.454,3.187-2.454l-4.594-2.102
			c0,0-6.789,4.181-8.027,3.934c-1.237-0.247-1.515-0.591-1.515-0.591s-3.035,1.581-4.18-0.354c5.327-4.561,8.362-6.142,9.946-6.894
			c1.584-0.751,14.532-0.827,15.937,0.403C487.7,449.604,487.73,449.632,487.761,449.659"/>
		<path clip-path="url(#SVGID_7_)" fill="#F2B172" d="M488.618,454.334c0,0-3.583,0.332-5.722-0.424s-8.906-4.379-8.906-4.379
			s-4.191,2.126-5.268,2.856s-3.159,2.807-4.535,3.072c-1.377,0.267-2.336-0.298-2.139-0.756s3.992-4.468,4.561-5.066
			c0.567-0.6,5.315-3.546,6.786-3.973s7.989,0.49,11.657,1.919C488.721,449.014,489.004,453.557,488.618,454.334"/>
		<path clip-path="url(#SVGID_7_)" fill="#F2B172" d="M488.103,452.381c0.695,1.257,0.307,2.665,0.973,2.83
			c0.437,0.109,0.728-0.499,1.895-0.917c0.572-0.205,1.028-0.283,1.641-0.372c0.9-0.132,2.298-0.312,4.149-0.463
			c-0.328-2.514-0.658-5.028-0.987-7.542c-1.99,0.817-3.642,1.072-4.763,1.156c-2.96,0.223-6.541-0.415-6.799-0.463
			c-1.731-0.224-3.534-0.265-3.534-0.265s0.601,1.784,0.743,1.968C483.587,451.07,486.85,450.117,488.103,452.381"/>
		<path clip-path="url(#SVGID_7_)" fill="#AF3D2E" d="M561.589,416.75c-2.343,1.364-4.314,2.911-8.458,6.911
			c-7.726,7.455-8.529,9.463-11.712,12.31c-9.006,8.056-21.198,8.639-30.247,9.07c-7.374,0.353-13.642-0.535-18.297-1.556
			c-0.111,1.318-0.194,2.687-0.242,4.1c-0.116,3.413-0.01,6.601,0.23,9.522c2.229,0.433,5.593,1.065,9.69,1.757
			c23.927,4.034,35.891,6.051,44.496,3.794c21.51-5.643,28.935-30.411,29.555-32.479c0.706-2.353,4.097-13.665-0.302-16.831
			C572.337,410.494,563.75,415.492,561.589,416.75"/>
		<path clip-path="url(#SVGID_7_)" fill="#C95039" d="M608.212,484.883c-0.158,4.419-0.027,8.744-0.021,8.989
			c0.151,6.386,0.631,11.646,1.041,15.265c-1.793-0.353-4.753-0.83-8.42-0.895c-12.176-0.214-17.515,4.391-27.353,4.593
			c-3.73,0.076-9.382-0.452-16.423-3.771c2.098-1.193,5.117-3.392,6.114-6.946c0.303-1.076,0.029-3.224-0.398-7.533
			c-0.456-4.594-1.249-9.474-1.427-10.832c-0.239-1.822-0.235-1.797-0.257-1.935c-2.57-16.157-7.824-30.357-7.824-30.358
			c-0.596-1.144-4.609-19.462-0.118-27.013c2.419-4.066,6.091-7.123,10.317-9.379c6.036-3.225,10.453-4.013,11.591-4.195
			c3.434-0.565,6.353-0.486,8.396-0.299c16.21,1.489,23.278,8.198,23.278,8.198c1.2,1.142,3.158,3.042,4.546,6.134
			c2.313,5.155,1.469,10.11,1.144,12.105C609.299,456.008,608.294,482.584,608.212,484.883"/>
		<path clip-path="url(#SVGID_7_)" fill="#995C33" d="M584.803,407.567c0,0-11.633,1.368-14.885,3.563l-0.313,2.14l16.737-2.084
			L584.803,407.567z"/>
		<path clip-path="url(#SVGID_7_)" fill="#F2B172" d="M582.837,403.789l-12.855,1.03l0.455,11.692
			c0.01-0.056,2.914,1.265,6.479,1.102c4.05-0.186,7.078-4.294,7.078-4.294L582.837,403.789z"/>
		<path clip-path="url(#SVGID_7_)" fill="#E5A26A" d="M570.233,411.208l-0.252-6.39l12.855-1.028l0.32,2.641
			C580.04,408.803,575.693,411.042,570.233,411.208"/>
		<path clip-path="url(#SVGID_7_)" fill="#5E1212" d="M584.928,347.94c0,0-10.792-8.094-26.144-3.15
			c-9.504,3.064-10.784,27.401-5.948,34.4c2.231,3.23,3.648,4.689,7.638,9.024c7.503-5.959,27.541,4.687,27.541,4.687
			s13.409-2.885,14.368-26.858C603.114,347.69,584.928,347.94,584.928,347.94"/>
		<path clip-path="url(#SVGID_7_)" fill="#F2B172" d="M552.622,381.769c0.414-6.511-2.166-26.008-2.166-26.008l3.292-0.112
			c-0.024-0.471-0.036-0.734-0.036-0.734l38.459,0.4c0,0,8.979,18.243-1.34,33.997c-2.586,12.829-10.464,18.703-18.32,20.411
			c-0.709,0.155-1.389,0.258-2.049,0.34c-0.992,0.27-1.926,0.418-2.772,0.437c-1.473,0.025-4.182-0.523-5.54-1.867
			c-4.098-4.06-8.083-9.611-9.097-15.687C552.236,388.034,552.454,384.34,552.622,381.769"/>
		<path clip-path="url(#SVGID_7_)" fill="#C68758" d="M566.416,382.495c0,0,0.129,3.287-0.677,6.196
			c-0.134,0.484-0.373,0.939-0.66,1.353c-0.702,1.01-1.074,1.774-0.302,2.629c1.27,1.4,2.944,0.637,4.645-0.19
			c-0.861,1.029-2.812,1.627-3.691,1.424c-1.239-0.288-2.719-1.66-1.314-3.959c0.23-0.376,0.44-0.763,0.593-1.176
			C565.546,387.322,566.229,386.061,566.416,382.495"/>
		<path clip-path="url(#SVGID_7_)" fill="#5E1212" d="M584.368,367.568c0,0,5.047,13.016,7.79,16.982
			c3.358-4.344,11.409-20.892,2.756-32.16c-1.537-2.006-6.64-3.731-11.486-3.382c-7.734-3.918-17.563-7.246-26.794-3.394
			c-7.913,3.3-11.326,13.175-13.947,23.372c3.092-0.193,4.993-2.61,4.993-2.61s-0.07,5.367,1.981,9.83
			c5.249-4.978,9.067-9.275,9.067-9.275s-1.301,4.06,0.543,5.871c4.736-2.757,11.17-4.25,15.145-7.537
			c-0.793,1.415-3.992,3.745-6.543,5.768C575.115,372.094,580.732,370.625,584.368,367.568"/>
		<path clip-path="url(#SVGID_7_)" fill="#5E1212" d="M581.883,375.084c0,0-5.943-3.084-10.854,1.443
			c-0.693-1.59-0.161-3.764,0.242-3.93c2.021-0.823,6.358-1.732,9.428,0.231C581.705,373.476,581.883,375.084,581.883,375.084"/>
		<path clip-path="url(#SVGID_7_)" fill="#FFFFFF" d="M581.874,381.234c0.081,1.203-1.771,2.809-4.152,2.963
			c-2.371,0.156-3.948-1.156-4.036-2.424c-0.083-1.274,1.348-3.268,3.725-3.42C579.786,378.194,581.789,379.891,581.874,381.234"/>
		<path clip-path="url(#SVGID_7_)" fill="#140408" d="M574.889,382.751c0.076,1.096,0.893,1.343,1.818,1.282
			c0.926-0.062,1.596-0.402,1.53-1.502c-0.076-1.097-0.884-1.937-1.804-1.873C575.513,380.714,574.818,381.654,574.889,382.751"/>
		<path clip-path="url(#SVGID_7_)" fill="#140408" d="M573.686,381.773c0.346-0.801,0.869-2.707,3.806-2.897
			c2.742-0.176,3.927,1.765,4.382,2.358c-0.059-0.973-1.039-3.107-4.068-3.076C574.37,378.194,573.484,380.668,573.686,381.773"/>
		<path clip-path="url(#SVGID_7_)" fill="#5E1212" d="M554.445,376.433c0,0,5.232-3.031,9.034,0.747
			c0.53-1.558-0.018-3.556-0.331-3.75c-2.332-1.457-5.854,0.064-7.505,0.851C554.708,374.725,554.445,376.433,554.445,376.433"/>
		<path clip-path="url(#SVGID_7_)" fill="#FFFFFF" d="M555.746,382.107c-0.068,1.205,1.442,2.793,3.524,2.909
			c2.076,0.113,3.57-1.237,3.638-2.512c0.071-1.273-1.188-3.246-3.265-3.36C557.566,379.026,555.815,380.757,555.746,382.107"/>
		<path clip-path="url(#SVGID_7_)" fill="#140408" d="M560.394,383.595c-0.053,1.104-0.773,1.362-1.585,1.316
			c-0.807-0.046-1.398-0.374-1.334-1.475c0.058-1.103,0.766-1.956,1.572-1.915C559.854,381.565,560.456,382.496,560.394,383.595"/>
		<path clip-path="url(#SVGID_7_)" fill="#140408" d="M562.907,382.506c-0.301-0.798-0.791-2.847-3.356-2.991
			c-2.399-0.13-3.408,1.991-3.806,2.593c0.05-0.977,0.9-3.132,3.555-3.152C562.3,378.936,563.083,381.395,562.907,382.506"/>
		<path clip-path="url(#SVGID_7_)" fill="#F2B172" d="M588.959,378.471c0.778-2.364,3.662-4.215,5.75-2.917
			c3.157,1.951,2.864,7.268,1.053,10.395c-1.104,1.884-3.657,4.247-5.471,3.13C587.962,387.644,587.479,382.974,588.959,378.471"/>
		<path clip-path="url(#SVGID_7_)" fill="#921F33" d="M567.648,396.585c2.881-0.352,5.528-1.489,6.441-0.044
			c0.653,1.023-0.173,5.489-5.35,6.013c-3.618,0.371-6.45-2.442-6.359-4.524C562.455,396.459,564.764,396.939,567.648,396.585"/>
		<path clip-path="url(#SVGID_7_)" fill="#CD3735" d="M574.26,397.809c-0.189,1.715-1.614,4.353-5.52,4.746
			c-1.778,0.181-3.368-0.409-4.518-1.303C566.253,398.031,570.481,396.487,574.26,397.809"/>
		<path clip-path="url(#SVGID_7_)" fill="#FFFFFF" d="M574.09,396.541c0.061,0.099,0.101,0.237,0.131,0.395
			c-3.771,3.038-9.348,3.237-10.893,0.042c0.947-0.273,2.521-0.17,4.32-0.393C570.528,396.233,573.177,395.096,574.09,396.541"/>
		<g opacity="0.3" clip-path="url(#SVGID_7_)">
			<g>
				<defs>
					<rect id="SVGID_10_" x="568.261" y="404.021" width="3.443" height="1.257"/>
				</defs>
				<clipPath id="SVGID_11_">
					<use xlink:href="#SVGID_10_"  overflow="visible"/>
				</clipPath>
				<path clip-path="url(#SVGID_11_)" fill="#FFA483" d="M568.27,405.173c0.101,0.192,0.947,0.114,1.893-0.175
					s1.637-0.681,1.532-0.87c-0.102-0.194-0.947-0.114-1.894,0.173C568.861,404.59,568.175,404.979,568.27,405.173"/>
			</g>
		</g>
		<path clip-path="url(#SVGID_7_)" fill="#AF3D2E" d="M584.803,407.567c-0.47,1.236-1.284,2.894-2.719,4.511
			c-3.209,3.616-7.33,4.551-8.862,4.818l-0.298,4.745c1.456-0.14,3.438-0.524,5.54-1.58c5.163-2.594,7.272-7.343,7.879-8.876
			C585.83,409.979,585.315,408.773,584.803,407.567"/>
		<path clip-path="url(#SVGID_7_)" fill="#AF3D2E" d="M570.244,413.755c0,0-0.42,1.515,0.908,2.323l0.078,4.933
			c0,0-2.116-2.399-2.121-4.354s0.928-5.016,0.928-5.016L570.244,413.755z"/>
		<path clip-path="url(#SVGID_7_)" fill="#AF3D2E" d="M575.322,421.229c-0.8,0.138-1.6,0.275-2.398,0.413l-0.106,13.608
			c-0.329-4.791-0.657-9.583-0.986-14.374c-0.534-0.405-1.067-0.813-1.601-1.219l1.929,21.707l1.452-0.142
			C574.182,434.558,574.752,427.893,575.322,421.229"/>
		<path clip-path="url(#SVGID_7_)" fill="#F2B172" d="M565.882,559.966c-2.287,1.67-4.115,1.953-5.387,1.885
			c-3-0.161-4.49-2.361-8.941-2.953c-0.8-0.105-1.795-0.174-2.929,0.161c-0.582,0.171-1.258,0.558-3.1,1.95
			c-1.092,0.825-3.167,3.117-4.6,3.47c-1.432,0.354-2.47-0.188-2.287-0.68c0.184-0.492,3.955-4.907,4.52-5.565
			c0.564-0.66,5.395-4.01,6.917-4.535c1.521-0.527,8.418,0.088,12.347,1.393C566.352,556.395,566.246,559.128,565.882,559.966"/>
		<path clip-path="url(#SVGID_7_)" fill="#F2B172" d="M566.874,562.141c0,0,4.084-1.938,5.875-7.962
			c0.024-0.085,0.191-0.652,0.486-1.409c0.082-0.21,0.181-0.441,0.303-0.705c0.515-1.106,1.34-2.807,2.533-4.994
			c-3.063-1.48-6.125-2.961-9.188-4.441c-0.273,1.417-0.642,2.635-1.035,3.664c-0.186,0.49-0.508,1.268-1.172,2.529
			c-1.683,3.196-2.524,4.796-3.984,5.78c-0.697,0.471-2.032,1.174-4.193,1.221c0.189,1.653,0.381,3.307,0.57,4.96
			C557.511,561.068,562.519,564.209,566.874,562.141"/>
		<path clip-path="url(#SVGID_7_)" fill="#AF3D2E" d="M583.738,426.905c-4.892,5.333-4.553,12.628-4.562,22.767
			c0,0-0.008,9.936-2.13,35.933c-0.755,9.246-1.944,23.009-6.518,39.485c-3.16,11.386-6.95,20.512-9.891,26.826
			c5.053,1.439,10.106,2.88,15.159,4.319c12.244-17.937,18.126-33.696,21.192-44.489c2.735-9.624,4.291-19.023,7.227-36.755
			c3.061-18.493,1.038-11.563,3.136-23.426c2.379-13.45,4.996-22.324,0.901-26.139c-4.142-3.858-9.517-4.661-9.517-4.661
			c-0.062-0.009-0.425-0.063-0.774-0.097C593.015,420.195,586.907,423.451,583.738,426.905"/>
		<path clip-path="url(#SVGID_7_)" fill="#E2C294" d="M556.299,359.023c0.255,0.724-3.26,2.334-5.947,3.205
			c-0.958,0.311-2.765,0.836-9.815,1.738c-1.763,0.225-3.229,0.394-4.247,0.508c1.867-2.391,3.732-4.781,5.6-7.171
			c0.111,0.2,0.248,0.381,0.41,0.552c1.046,1.064,2.625,0.769,6.709,0.669C553.106,358.435,555.952,358.036,556.299,359.023"/>
		<path clip-path="url(#SVGID_7_)" fill="#C16191" d="M288.106,517.403c-3.006,5.92-8.31,14.162-17.492,20.384
			c-9.774,6.621-19.039,7.631-35.994,9.536c-11.464,1.288-26.011,2.938-49.967,5.694c3.194-8.097,8.96-18.766,19.511-27.537
			C237.525,497.748,285.708,516.432,288.106,517.403"/>
		<path clip-path="url(#SVGID_7_)" fill="#E2C294" d="M263.111,515.481v38.301l-13.844,1.385
			c-1.153-10.922-2.307-21.843-3.461-32.764C251.574,520.096,257.343,517.788,263.111,515.481"/>
		<path clip-path="url(#SVGID_7_)" fill="#3A3A3A" d="M247.603,548.835c1.381,0.328,3.061,0.581,4.971,0.563
			c5.225-0.047,9.191-2.089,11.231-3.355c0.119,3.194,0.686,5.63,1.194,7.285c0.469,1.532,0.944,2.576,1.561,4.96
			c0.61,2.358,0.916,3.539,0.845,4.468c-0.196,2.588-1.806,3.378-3.448,6.64c-1.209,2.403-0.692,2.684-1.867,6.004
			c-1.266,3.58-2.932,8.29-7.163,10.745c-0.826,0.479-3.342,1.939-6.214,1.285c-1.362-0.309-2.418-1.006-2.939-1.469
			c-3.81-3.384,0.324-12.616,1.571-25.487C247.83,555.463,247.735,551.362,247.603,548.835"/>
		<path clip-path="url(#SVGID_7_)" fill="#E2C294" d="M226.271,537.71c-2.537,6.991-5.835,14.798-10.15,23.069
			c-3.392,6.495-6.909,12.317-10.351,17.475c-1.388,2.079-2.764,4.051-4.108,5.91c0.157,2.728,0.318,5.455,0.48,8.183
			c0.078,1.312-0.628,2.547-1.81,3.123c-1.454,0.711-3.145,1.717-4.825,3.153c-4.303,3.668-4.466,6.651-7.694,10.458
			c-4.881,5.76-13.203,9.194-15.684,7.079c-1.979-1.69-0.163-6.804,0.917-9.85c4.013-11.306,10.407-13.799,16.305-24.301
			c1.018-1.815,1.947-4.19,3.185-7.826c0.741-2.211,1.601-4.881,2.663-8.172c3.499-10.872,5.848-20.093,7.386-26.763
			C210.48,538.733,218.376,538.219,226.271,537.71"/>
		<path clip-path="url(#SVGID_7_)" fill="#3A3A3A" d="M201.663,584.164c0.156,2.704,0.316,5.409,0.476,8.113
			c0.081,1.354-0.65,2.625-1.868,3.224c-1.44,0.708-3.108,1.707-4.763,3.122c-4.303,3.668-4.466,6.65-7.695,10.458
			c-4.88,5.759-13.202,9.195-15.683,7.078c-1.979-1.689-0.164-6.802,0.917-9.849c4.013-11.306,10.407-13.8,16.305-24.301
			c1.018-1.815,1.947-4.189,3.185-7.827c1.211,0.961,3.225,2.317,6.013,3.212c3.017,0.969,5.631,0.976,7.221,0.859
			C204.382,580.333,203.006,582.305,201.663,584.164"/>
		<path clip-path="url(#SVGID_7_)" fill="#D9669C" d="M288.108,517.404c-1.586,0.973-3.687,1.178-9.511,3.547
			c-1.434,0.583-3.045,1.41-4.906,2.682c-7.313,5.003-11.307,11.964-13.535,17.079c-10.215,0.344-21.431,1.242-33.456,2.999
			c-17.655,2.572-33.276,6.453-46.579,10.611c0.464-8.384,2.707-28.305,16.923-47.687c10.267-13.991,22.373-21.708,29.537-25.537
			c0.693-11.847,1.024-21.859,1.193-29.478c0.33-14.949-0.039-17.265-1.246-20.143c-4.191-9.994-13.637-15.239-11.611-19.886
			c0.334-0.768,1.611-2.021,4.163-4.531c1.817-1.786,3.415-3.168,4.54-4.098c0,0,5.219-2.617,11.792-4.666
			c0.232-0.067,0.478-0.142,0.718-0.217c0.65-0.194,1.323-0.389,1.996-0.568c0.195-0.052,0.397-0.104,0.591-0.149
			c0.224-0.06,0.449-0.119,0.673-0.172c5.055-1.233,12.369-2.034,21.177-1.601h0.053c0.074,0.008,0.142,0.015,0.224,0.015
			c0.598,0.03,1.204,0.067,1.817,0.112c0.233,0.017,0.468,0.033,0.703,0.053c4.078,0.336,8.607,1.277,13.458,3.23
			c1.16,0.428,2.459,0.992,3.831,1.741c1.815,0.989,3.306,2.055,4.487,3.021c-3.03,8.945-6.321,22.315-5.325,38.38
			c0.023,0.375,0.051,0.71,0.085,1.164c1.123,14.776,3.387,25.423,4.774,32.121C291.521,508.514,291.447,515.354,288.108,517.404"/>
		<path clip-path="url(#SVGID_7_)" fill="#AF5180" d="M285.953,494.946c-7.031-6.545-15.371-11.569-24.655-14.005
			c-9.237-2.554-18.981-2.492-28.413-0.763c4.567-1.64,9.426-2.503,14.317-2.697C261.879,476.822,276.907,483.293,285.953,494.946"
			/>
		<path clip-path="url(#SVGID_7_)" fill="#D6A370" d="M225.963,468.643c1.034,0.754,2.609,1.842,4.615,3
			c6.643,3.832,9.347,3.413,13.252,5.904c6.456,4.117,9.557,11.113,8.552,11.746c-1.312,0.827-5.018-6.062-5.423-5.769
			c-0.449,0.326,5.812,7.789,4.487,8.765c-1.215,0.893-2.614-1.571-7.717-6.918c5.096,6,6.1,7.23,5.639,7.75
			c-0.68,0.765-1.732-0.562-7.6-5.674c2.166,3.062,2.84,3.663,2.192,4.153c-0.562,0.424-1.959-1.225-5.538-3.346
			c-3.493-2.071-4.093-1.831-6.46-3.576c-1.943-1.432-2.072-1.987-4.038-3.577c-2.192-1.772-4.369-2.974-6.23-3.807
			C223.117,474.411,224.54,471.526,225.963,468.643"/>
		<path clip-path="url(#SVGID_7_)" fill="#D9669C" d="M225.959,401.975c-2.283,0.934-5.814,2.699-9.145,6.006
			c-1.982,1.967-3.256,3.847-4.592,6.061c-2.32,3.844-5.338,9.543-10.775,25.103c-1.631,4.667-2.286,6.812-2.817,9.674
			c-0.844,4.549-1.582,8.527-0.122,12.611c0.528,1.478,1.731,4.054,7.836,8.908c3.611,2.872,9.162,6.72,16.85,10.073
			c2.384-3.77,4.768-7.537,7.153-11.306c-2.594-2.578-5.36-5.202-8.307-7.846c-1.944-1.744-3.87-3.409-5.769-5
			c1.1-3.629,2.426-7.465,4.033-11.452c3.203-7.951,6.836-14.809,10.377-20.571C229.107,416.815,227.534,409.396,225.959,401.975"/>
		<path clip-path="url(#SVGID_7_)" fill="#AF5180" d="M239.301,500.847c5.22-10.063,18.657-10.924,26.534-3.461
			C256.439,492.688,246.815,492.953,239.301,500.847"/>
		<path clip-path="url(#SVGID_7_)" fill="#AF5180" d="M233.621,505.177c-0.082,13.108-9.724,25.646-22.381,29.071
			C222.694,528.218,230.731,517.797,233.621,505.177"/>
		<path clip-path="url(#SVGID_7_)" fill="#513D1D" d="M209.833,402.786c0,0,6.921,0.765,11.538-5.381
			c-1.539,6.146-3.854,7.684-3.854,7.684s32.289-6.145,21.526-40.736l3.078-28.446c-0.932-0.966-1.865-1.854-2.797-2.651
			c-18.29-15.83-35.962-0.854-27.177,21.098c1.124,2.798,1.933,5.64,2.494,8.46c0,0.011,0.012,0.023,0.012,0.034
			C218.73,383.238,209.833,402.786,209.833,402.786"/>
		<path clip-path="url(#SVGID_7_)" fill="#ED2448" d="M242.89,337.443c0,5.095-4.13,9.224-9.224,9.224
			c-5.095,0-9.225-4.129-9.225-9.224c0-5.094,4.13-9.224,9.225-9.224C238.759,328.219,242.89,332.349,242.89,337.443"/>
		<polygon clip-path="url(#SVGID_7_)" fill="#F4CCAB" points="257.997,397.203 257.997,380.438 242.279,380.438 241.23,397.203 
			257.997,406.635 		"/>
		<path clip-path="url(#SVGID_7_)" fill="#DDB99E" d="M257.885,392.5c0.215-5.594,0.429-11.186,0.644-16.778h-15.718
			c-0.359,4.483-0.719,8.967-1.078,13.45c1.132,1.446,3.356,3.894,6.942,5.73c3.886,1.99,7.452,2.279,9.322,2.302L257.885,392.5z"/>
		<path clip-path="url(#SVGID_7_)" fill="#F4CCAB" d="M277.16,344.95c0,10.815,0.9,50.354-19.509,49.381
			c-24.906-1.188-22.51-38.979-22.365-51.507L277.16,344.95z"/>
		<path clip-path="url(#SVGID_7_)" fill="#3A2608" d="M258.701,364.404c-4.029-2.686-8.729,0-8.729,0s4.029-4.029,8.729-1.343
			V364.404z"/>
		<path clip-path="url(#SVGID_7_)" fill="#3A2608" d="M265.632,365.322c4.389-2.939,8.458,0.474,8.458,0.474
			s-2.847-5.204-8.458-1.817V365.322z"/>
		<path clip-path="url(#SVGID_7_)" fill="#664A1D" d="M227.134,350.894c0,23.278,9.763,29.244,10.213,29.502
			c0.883,0.44,1.766,0.881,2.649,1.322c-1.273-3.125-2.512-6.784-3.478-10.936c-0.549-2.359-0.944-4.599-1.228-6.688
			c0.259,0.061,0.589,0.091,0.964,0.1c3.217,0.074,5.878,2.513,6.088,5.724l0.548,8.372l3.918-16.271l15.586-7.441l-14.487,11.231
			c0,0,5.517-0.719,8.078-1.467c4.898-1.404,9.246-3.595,12.672-5.696c4.932-3.022,7.966-5.831,7.966-5.831v8.977
			c2.629-5.224,3.606-9.033,3.898-11.64c0.36-3.235-0.348-4.639-0.348-4.639c-5.213-19.571-38.659-22.694-49.601-5.652
			C228.605,342.895,227.37,346.568,227.134,350.894"/>
		<path clip-path="url(#SVGID_7_)" fill="#FFFFFF" d="M257.661,371.586c-0.192,0.303-1.261,1.926-3.238,2.25
			c-2.04,0.334-4.211-0.853-5.281-2.985c1.834-2.416,4.704-3.147,6.561-2.104C257.093,369.528,257.54,371.09,257.661,371.586"/>
		<path clip-path="url(#SVGID_7_)" fill="#EF6F7B" d="M266.394,384.976c-0.812,0.063-1.543,0.184-2.289,0.174
			c-0.738,0.003-1.465-0.009-2.191-0.117c-1.459-0.166-2.885-0.525-4.438-0.905c0.551,0.596,1.243,1.03,1.973,1.365
			c0.732,0.342,1.524,0.548,2.333,0.655c0.809,0.096,1.642,0.061,2.437-0.132C265.019,385.854,265.766,385.467,266.394,384.976"/>
		<path clip-path="url(#SVGID_7_)" fill="#DDB99E" d="M264.17,380.773c1.825-1.662-2.356-5.478-1.104-8.312
			c0.552,2.16,1.491,4.106,2.52,6.026c0.565,1.057,0.128,2.424-0.996,2.836c-0.718,0.262-1.509,0.265-2.196-0.134
			C263.055,381.21,263.672,381.062,264.17,380.773"/>
		<path clip-path="url(#SVGID_7_)" fill="#141529" d="M252.699,371.268c0,1.127,0.913,2.04,2.04,2.04s2.04-0.913,2.04-2.04
			c0-1.127-0.913-2.04-2.04-2.04S252.699,370.141,252.699,371.268"/>
		<path clip-path="url(#SVGID_7_)" fill="#938479" d="M249.143,370.851c1.906-3.786,8.053-4.216,8.519,0.735
			C256.086,367.456,251.791,368.212,249.143,370.851"/>
		<path clip-path="url(#SVGID_7_)" fill="#FFFFFF" d="M273.368,371.586c-0.192,0.303-1.261,1.926-3.238,2.25
			c-2.04,0.334-4.211-0.853-5.281-2.985c1.834-2.416,4.704-3.147,6.561-2.104C272.8,369.528,273.248,371.09,273.368,371.586"/>
		<path clip-path="url(#SVGID_7_)" fill="#141529" d="M268.377,371.268c0,1.142,0.926,2.069,2.069,2.069
			c1.142,0,2.069-0.927,2.069-2.069c0-1.142-0.927-2.069-2.069-2.069C269.303,369.199,268.377,370.126,268.377,371.268"/>
		<path clip-path="url(#SVGID_7_)" fill="#938479" d="M264.849,370.851c1.906-3.786,8.053-4.216,8.519,0.735
			C271.793,367.456,267.497,368.212,264.849,370.851"/>
		<path clip-path="url(#SVGID_7_)" fill="#F4CCAB" d="M242.121,368.579c0,3.396-2.078,6.15-4.641,6.15s-4.641-2.754-4.641-6.15
			s2.078-6.15,4.641-6.15S242.121,365.183,242.121,368.579"/>
		<path clip-path="url(#SVGID_7_)" fill="#D9669C" d="M241.095,397.16c3.001,1.964,5.607,3.486,7.606,4.594
			c2.91,1.615,4.185,2.163,5.539,1.74c1.872-0.584,2.773-2.67,3.114-3.617c0.244-0.625,0.488-1.251,0.732-1.877
			c0.206,0.346,2.245,3.903,0.55,7.601c-1.644,3.585-5.448,4.356-6.089,4.486c-5.633,1.144-12.407-3.42-12.728-8.516
			C239.707,399.796,240.397,398.259,241.095,397.16"/>
		<path clip-path="url(#SVGID_7_)" fill="#AF5180" d="M256.933,404.303c-1.271,0.823-2.647,1.122-4.016,1.122
			c-2.557,0-5.084-1.056-6.842-1.788c-3.066-1.278-5.817-3.395-7.949-6.124c0.195-0.052,0.397-0.105,0.591-0.149
			c2.056,2.565,4.666,4.546,7.575,5.759c2.767,1.15,6.954,2.893,10.334,0.71c3.642-2.349,3.665-7.636,3.657-8.233l0.284-0.008h0.277
			v0.015C260.859,396.66,260.732,401.85,256.933,404.303"/>
		<path clip-path="url(#SVGID_7_)" fill="#AF5180" d="M263.364,395.771c-0.015,1.771-0.411,7.68-4.868,10.551
			c-1.578,1.025-3.298,1.398-5.003,1.398c-3.185,0-6.333-1.309-8.524-2.221c-3.657-1.525-6.955-4.009-9.557-7.201
			c0.232-0.067,0.479-0.143,0.718-0.217c2.505,2.991,5.638,5.324,9.108,6.768c3.447,1.442,8.659,3.611,12.877,0.89
			c4.225-2.722,4.531-8.622,4.546-10.02C262.893,395.733,263.125,395.756,263.364,395.771"/>
	</g>
</g>
</svg>
