<?xml version="1.0" encoding="utf-8"?>
<!-- Generator: Adobe Illustrator 16.0.0, SVG Export Plug-In . SVG Version: 6.00 Build 0)  -->
<!DOCTYPE svg PUBLIC "-//W3C//DTD SVG 1.1//EN" "http://www.w3.org/Graphics/SVG/1.1/DTD/svg11.dtd">
<svg version="1.1" id="Layer_1" xmlns="http://www.w3.org/2000/svg" xmlns:xlink="http://www.w3.org/1999/xlink" x="0px" y="0px"
	 width="404.017px" height="531.17px" viewBox="0 0 404.017 531.17" enable-background="new 0 0 404.017 531.17"
	 xml:space="preserve">
<path fill="#FFFFFF" d="M407.62,106.736c-5.26,8.91-13.681,14.68-23.16,14.68c-15.93,0-28.84-16.28-28.84-36.36
	c0-7.04,1.59-13.61,4.34-19.17C359.96,65.886,405.25,104.106,407.62,106.736"/>
<path fill="#FFFFFF" d="M-77.63,299.586c4.45-22.36,13.3-53.19,30.24-72.66c4.55-1.5,9.23-2.77,13.92-3.8
	c16.33-3.59,32.85-4.24,44.77-1.2c18.4,4.68,21.29-11.67,37.81-11.56s22.71,7.39,22.71,7.39"/>
<path fill="#FFFFFF" d="M-71.82,298.366c31.08-35.14,66.26-17.489,83.12-4.08c0,0-27.04,7.801-42.73,21.341
	c-21.21,16.12-27.05-5.73-50.31,11.72"/>
<path fill="#FFFFFF" d="M71.82,217.756c-30.31-4.7-15.66,43.609-50.39,36.119c-16.52-2.799-21.3-1.29-30.06,8.631
	c-29.54,18.689-36.54-17.49-63.19,35.859"/>
<path fill="#FFFFFF" d="M475.39,271.707c0-0.41-0.01-0.83-0.02-1.24c-5.66,2.78-11.04,4.62-15.82,5.319
	c-3.149,0.461-12.89,1.421-24.979,6.24c-13.94,5.57-24.431,13.65-29.811,17.86c-6.14,4.79-10.89,9.28-14.2,12.64
	c0,0-2.369-20.6,9.641-40.02c12-19.42,26-23.31,35.39-34.49c8.04-9.56,6.45-16.92,12.33-27.6c-7.56,4.65-16.36,8.48-26.61,7.52
	c-21.81-2.05-31.949-18.14-31.949-18.14s15.319-2.74,23.409-11.23c8.11-8.49,14.79-26.96,30.54-31.5c0.19-0.06,0.381-0.11,0.57-0.15
	C443.88,156.916,477.34,232.026,475.39,271.707"/>
<path fill="#FFFFFF" d="M156.074,484.114c-3.013,2.089-5.676,4.637-8.701,6.734c-2.28,1.582-4.667,3.007-7.088,4.368
	c2.115-1.986,4.121-4.194,5.879-6.483l-0.257-0.198c-2.467,1.943-4.38,4.619-6.458,6.958l-0.019,0.209
	c-1.018,0.563-2.043,1.12-3.07,1.669c-4.65,2.48-9.476,4.68-14.177,7.093c2.874-2.437,5.348-5.309,8.378-7.596
	c0.199-0.15,0.033-0.444-0.197-0.337c-3.941,1.823-6.654,5.652-9.719,8.594l-0.064,0.163c-1.788,0.947-3.555,1.93-5.278,2.983
	c-0.304,0.185-0.039,0.611,0.272,0.466c7.55-3.521,15.117-7.124,22.473-11.036c6.266-3.328,14.125-7.343,18.415-13.199
	C156.629,484.273,156.302,483.956,156.074,484.114"/>
<path fill="#FFFFFF" d="M135.67,460.118c-3.296,4.848-5.563,10.5-8.403,15.633c-3.276,5.924-7.055,11.359-11.385,16.564l0.187,0.187
	c4.497-4.43,7.961-9.791,11.144-15.209c3.177-5.406,6.555-11.166,8.79-17.031C136.081,460.057,135.781,459.961,135.67,460.118"/>
<path fill="#FFFFFF" d="M134.066,436.516c-4.789,9.136-8.481,18.567-13.929,27.377l0.237,0.185
	c6.386-7.824,10.217-18.171,14.014-27.427L134.066,436.516z"/>
<path fill="#FFFFFF" d="M142.245,498.767c-1.997,0.374-3.929,1.092-5.844,1.763c-2.147,0.748-4.356,1.235-6.516,1.918l0.039,0.31
	c4.073-0.074,8.648-2.297,12.364-3.831L142.245,498.767z"/>
<path fill="#FFFFFF" d="M155.641,487.962c-1.203,0.453-2.267,1.234-3.409,1.823c-1.221,0.631-2.45,1.206-3.621,1.924
	c-0.176,0.106-0.061,0.422,0.146,0.343c2.289-0.883,5.459-1.857,7.036-3.826L155.641,487.962z"/>
<path fill="#FFFFFF" d="M286.754,474.969c-2.577-1.78-5.418-3.117-7.984-4.932c-2.917-2.061-5.529-4.587-7.988-7.164
	c-0.24-0.256-0.594,0.117-0.377,0.375c4.076,4.878,9.886,10.382,16.217,12.036L286.754,474.969z"/>
<path fill="#FFFFFF" d="M245.175,424.209c2.121,4.628,4.306,9.125,6.971,13.455c-0.234-7.119-0.598-14.395-0.05-21.453
	c0.05-0.64,0.944-0.64,0.994,0c0.331,4.254,0.313,8.564,0.257,12.872c0.485-0.91,0.909-1.849,1.236-2.841
	c0.5-1.532,0.337-3.095,0.523-4.663l0.333-0.046c1.151,2.818-0.3,6.197-2.105,8.535c-0.042,2.953-0.091,5.9-0.048,8.827
	c0.106,7.302,0.392,14.599,0.894,21.888c2.723-7.972,6.175-15.53,8.44-23.689l0.344,0.043c-1.093,8.38-4.996,16.666-8.599,24.242
	l-0.142,0.083l0.028,0.468c0.672,9.35,1.797,18.727,3.689,27.93c5.14-8.668,8.593-17.414,11.653-27.012
	c0.07-0.22,0.377-0.129,0.338,0.094c-1.602,9.351-5.855,20.031-11.82,27.471l-0.053,0.026c1.277,6.101,2.892,12.121,4.951,18.004
	c0.102,0.285-0.343,0.402-0.448,0.124c-5.176-14.102-7.723-28.854-9.067-43.77c-0.735-8.135-1.061-16.303-1.271-24.466
	c-0.013-0.609-0.035-1.227-0.056-1.84c-3.133-4.156-5.962-9.134-7.189-14.199L245.175,424.209z"/>
<path fill="#FFFFFF" d="M217.323,484.114c3.013,2.089,5.676,4.637,8.701,6.734c2.28,1.582,4.667,3.007,7.088,4.368
	c-2.115-1.986-4.121-4.194-5.879-6.483l0.257-0.198c2.467,1.943,4.38,4.619,6.458,6.958l0.02,0.209
	c1.018,0.563,2.043,1.12,3.069,1.669c4.65,2.48,9.477,4.68,14.178,7.093c-2.874-2.437-5.349-5.309-8.378-7.596
	c-0.198-0.15-0.033-0.444,0.196-0.337c3.941,1.823,6.654,5.652,9.719,8.594l0.064,0.163c1.788,0.947,3.555,1.93,5.278,2.983
	c0.304,0.185,0.039,0.611-0.272,0.466c-7.55-3.521-15.117-7.124-22.473-11.036c-6.267-3.328-14.125-7.343-18.415-13.199
	C216.769,484.273,217.096,483.956,217.323,484.114"/>
<path fill="#FFFFFF" d="M265.916,506.2c1.051-0.683,2.087-1.382,3.124-2.08l0.003-0.017c1.588-3.054,3.818-5.792,5.43-8.883
	c1.8-3.445,3.279-7.136,4.268-10.901l0.289,0.08c-0.593,3.96-2.17,7.622-3.899,11.21c-1.109,2.293-2.415,5.111-4.197,7.214
	c3.788-2.619,7.463-5.365,10.964-8.34c2.472-6.624,5.047-13.213,7.526-19.835c0.089-0.24,0.463-0.148,0.389,0.104
	c-1.901,6.414-4.042,13.016-7.07,19.019c1.917-1.66,3.78-3.386,5.583-5.202c1.954-1.967,3.776-4.051,5.498-6.22l-0.083-0.182
	c1.118-4.308,2.743-8.707,4.329-12.869l0.268,0.074c-1.352,3.888-1.975,8.426-3.861,12.129c1.19-1.547,2.344-3.124,3.418-4.754
	c2.474-3.753,3.728-8.037,5.996-11.834c0.117-0.2,0.492-0.13,0.466,0.129c-0.381,3.901-2.902,7.896-4.894,11.179
	c-2.663,4.401-6.007,8.388-9.527,12.118c-5.087,5.398-10.984,10.377-17.332,14.433c2.289-0.196,4.539-0.266,6.834-0.857
	c2.994-0.771,5.772-2.313,8.475-3.772c0.22-0.12,0.404,0.199,0.195,0.337c-4.69,3.022-10.854,6.06-16.624,4.974
	c-1.767,1.09-3.558,2.128-5.383,3.066C265.89,506.624,265.718,506.331,265.916,506.2"/>
<path fill="#FFFFFF" d="M237.728,460.118c3.296,4.848,5.563,10.5,8.403,15.633c3.275,5.924,7.055,11.359,11.385,16.564l-0.188,0.187
	c-4.497-4.43-7.961-9.791-11.144-15.209c-3.177-5.406-6.556-11.166-8.79-17.031C237.316,460.057,237.616,459.961,237.728,460.118"/>
<path fill="#FFFFFF" d="M239.331,436.516c4.789,9.136,8.48,18.567,13.929,27.377l-0.237,0.185
	c-6.386-7.824-10.217-18.171-14.014-27.427L239.331,436.516z"/>
<path fill="#FFFFFF" d="M231.152,498.767c1.997,0.374,3.929,1.092,5.844,1.763c2.147,0.748,4.356,1.235,6.517,1.918l-0.039,0.31
	c-4.073-0.074-8.648-2.297-12.364-3.831L231.152,498.767z"/>
<path fill="#FFFFFF" d="M217.757,487.962c1.202,0.453,2.267,1.234,3.408,1.823c1.222,0.631,2.45,1.206,3.621,1.924
	c0.177,0.106,0.062,0.422-0.146,0.343c-2.289-0.883-5.459-1.857-7.036-3.826L217.757,487.962z"/>
<path fill="#FFFFFF" d="M290.084,488.533c2.064-1.427,4.341-2.498,6.396-3.951c2.336-1.651,4.43-3.675,6.398-5.739
	c0.194-0.205,0.477,0.094,0.303,0.3c-3.266,3.907-7.92,8.317-12.99,9.644L290.084,488.533z"/>
<path fill="#BDDEEF" d="M367.222,201.474c0,9.841-6.33,17.819-14.139,17.819s-14.139-7.978-14.139-17.819
	c0-9.841,6.33-17.819,14.139-17.819S367.222,191.632,367.222,201.474"/>
<path fill="#BDDEEF" d="M52.1,156.398c0,1.473-0.947,2.667-2.116,2.667c-1.168,0-2.116-1.194-2.116-2.667s0.948-2.667,2.116-2.667
	C51.153,153.731,52.1,154.925,52.1,156.398"/>
<path fill="#BDDEEF" d="M69.86,161.438c0,1.473-0.947,2.667-2.116,2.667c-1.168,0-2.116-1.194-2.116-2.667
	c0-1.473,0.948-2.667,2.116-2.667C68.914,158.771,69.86,159.965,69.86,161.438"/>
<path fill="#BDDEEF" d="M129.215,81.778c0,1.473-0.947,2.667-2.116,2.667c-1.168,0-2.116-1.194-2.116-2.667s0.948-2.667,2.116-2.667
	C128.269,79.111,129.215,80.305,129.215,81.778"/>
<path fill="#BDDEEF" d="M406.133,318.215c0,1.474-0.947,2.667-2.116,2.667c-1.168,0-2.116-1.193-2.116-2.667
	c0-1.473,0.948-2.667,2.116-2.667C405.186,315.548,406.133,316.743,406.133,318.215"/>
<path fill="#BDDEEF" d="M413.338,310.993c0,1.474-0.947,2.667-2.116,2.667c-1.168,0-2.116-1.193-2.116-2.667
	c0-1.473,0.948-2.667,2.116-2.667C412.391,308.326,413.338,309.52,413.338,310.993"/>
<path fill="#BDDEEF" d="M65.628,147.745c0,2.372-1.526,4.295-3.408,4.295c-1.881,0-3.407-1.923-3.407-4.295
	c0-2.372,1.526-4.295,3.407-4.295C64.103,143.45,65.628,145.373,65.628,147.745"/>
<ellipse fill="none" stroke="#FFFFFF" stroke-width="1.515" stroke-miterlimit="10" cx="54.399" cy="305.984" rx="4.415" ry="5.563"/>
<ellipse fill="none" stroke="#FFFFFF" stroke-width="1.515" stroke-miterlimit="10" cx="303.941" cy="68.689" rx="4.415" ry="5.564"/>
<ellipse fill="none" stroke="#FFFFFF" stroke-width="1.515" stroke-miterlimit="10" cx="87.323" cy="50.885" rx="14.077" ry="17.741"/>
<ellipse fill="none" stroke="#FFFFFF" stroke-width="1.515" stroke-miterlimit="10" cx="-28.135" cy="367.507" rx="28.844" ry="36.354"/>
<path fill="#BC956B" d="M164.878,472.597c1.549,4.954,0.017,10.442-2.751,14.833s-6.668,7.925-10.364,11.569
	c-3.696,3.644-7.309,7.568-9.267,12.375c-0.658,1.614-1.07,3.604-0.006,4.986c1.008,1.306,2.889,1.483,4.538,1.433
	c7.932-0.246,15.589-3.258,22.298-7.497c3.818-2.413,7.384-3.173,9.234-7.294c1.691-3.765,1.785-10.272,1.718-14.399
	c-0.064-3.841-0.127-7.683-0.19-11.523c-0.017-1.029-0.09-2.187-0.863-2.865c-0.542-0.477-1.303-0.595-2.019-0.693
	c-4.214-0.577-8.428-1.154-12.642-1.731L164.878,472.597z"/>
<path fill="#987957" d="M163.688,484.542c1.711-3.775,2.418-8.025,1.189-11.946l-0.313-0.804c4.21,0.578,8.428,1.149,12.637,1.728
	c0.723,0.097,1.479,0.217,2.025,0.699c0.771,0.675,0.844,1.832,0.859,2.859c0.041,2.483,0.081,4.974,0.129,7.464
	c-2.491,0.29-5.299,0.484-8.371,0.48C168.856,485.017,166.123,484.826,163.688,484.542"/>
<path fill="#C6C6C6" d="M196.051,329.516c0.008,0.94,0,1.88-0.008,2.82c0,0.313,0,0.627-0.009,0.94
	c-0.008,1.204-0.016,2.418-0.031,3.623c-0.017,1.551-0.04,3.108-0.065,4.659c-0.015,0.9-0.031,1.792-0.047,2.691
	c-0.025,1.31-0.057,2.62-0.089,3.929c-0.008,0.475-0.024,0.94-0.04,1.414c-0.008,0.402-0.017,0.795-0.024,1.197
	c-0.169,6.371-0.41,12.742-0.723,19.113c-0.049,0.939-0.089,1.872-0.146,2.812c-0.023,0.498-0.048,0.996-0.08,1.494
	c-0.04,0.788-0.088,1.583-0.129,2.379c-0.008,0.184-0.016,0.369-0.031,0.554c-0.049,0.835-0.098,1.663-0.145,2.499
	c-0.161,2.691-0.33,5.383-0.515,8.074c-0.057,0.763-0.104,1.534-0.161,2.298c-0.063,0.892-0.128,1.775-0.192,2.659
	c-0.112,1.422-0.217,2.844-0.33,4.266c0,0.049-0.008,0.104-0.008,0.153c-0.12,1.494-0.241,2.972-0.369,4.45
	c-0.129,1.535-0.265,3.069-0.401,4.604c-0.032,0.458-0.08,0.908-0.121,1.366c-0.097,1.052-0.192,2.089-0.289,3.133
	c-0.257,2.74-0.53,5.447-0.812,8.132c-0.089,0.835-0.177,1.671-0.265,2.506c-0.056,0.538-0.113,1.068-0.169,1.599
	c-0.056,0.554-0.12,1.101-0.185,1.647c-0.057,0.514-0.112,1.02-0.168,1.525c-0.113,1.021-0.233,2.049-0.354,3.062
	c0,0.023-0.008,0.057-0.008,0.089c-0.176,1.494-0.353,2.988-0.53,4.491c-0.241,2.04-0.499,4.064-0.755,6.073
	c-0.105,0.852-0.217,1.688-0.33,2.53c-0.056,0.426-0.112,0.844-0.168,1.262c-0.169,1.285-0.346,2.563-0.523,3.841
	c-0.088,0.658-0.176,1.309-0.265,1.96c-0.12,0.867-0.249,1.735-0.37,2.603c-0.016,0.097-0.023,0.193-0.04,0.289
	c-0.136,0.957-0.273,1.913-0.409,2.861c-0.064,0.466-0.137,0.932-0.209,1.397c-0.217,1.47-0.442,2.933-0.659,4.395
	c-0.755,4.893-1.542,9.777-2.37,14.646c-0.209,1.205-0.418,2.419-0.627,3.624c-0.112,0.667-0.225,1.325-0.345,1.984h-17.989
	c-3.928-11.569-8.146-25.982-11.617-42.822c-4.475-21.724-7.688-47.489-7.343-76.412c0-0.257,0.008-0.514,0.008-0.763
	c0.016-1.052,0.04-2.089,0.056-3.133c0.041-1.647,0.089-3.286,0.145-4.901c0.008-0.072,0.008-0.153,0.008-0.225
	c0.819-21.757,3.527-40.95,6.748-56.985c0.009-0.033,0.017-0.065,0.025-0.097l37.408-1.027c0.952-0.028,1.899-0.055,2.834-0.082
	c0.86-0.024,1.72-0.048,2.564-0.072h0.104c0.072,2.018,0.136,4.033,0.192,6.05c0.024,0.893,0.049,1.791,0.073,2.691
	c0.016,0.378,0.023,0.747,0.031,1.125c0.017,0.61,0.032,1.221,0.049,1.832c0.031,1.333,0.057,2.675,0.079,4.017
	c0.033,1.632,0.058,3.263,0.073,4.901c0.017,1.044,0.024,2.088,0.032,3.141c0.008,0.104,0.008,0.209,0,0.313
	C196.059,322.269,196.066,325.87,196.051,329.516"/>
<path fill="#DDDDDD" d="M196.066,326.729c0,0.932,0,1.855-0.016,2.788c0.008,0.939,0,1.88-0.008,2.819c0,0.313,0,0.626-0.009,0.94
	c-0.008,1.205-0.016,2.418-0.031,3.623c-0.017,1.551-0.04,3.108-0.065,4.66c-0.015,0.899-0.031,1.791-0.048,2.69
	c-0.024,1.311-0.056,2.619-0.088,3.929c-0.017,0.868-0.04,1.743-0.064,2.611c-0.169,6.371-0.41,12.742-0.723,19.113
	c-0.049,0.939-0.089,1.872-0.146,2.812c-0.023,0.498-0.048,0.996-0.079,1.494c-0.04,0.788-0.09,1.583-0.13,2.378
	c-0.008,0.186-0.016,0.37-0.031,0.556c-0.049,0.835-0.098,1.662-0.145,2.498c-0.161,2.691-0.33,5.383-0.515,8.074
	c-0.056,0.764-0.104,1.534-0.161,2.297c-0.064,0.893-0.128,1.776-0.192,2.66c-0.112,1.422-0.217,2.845-0.33,4.267
	c-0.119,1.534-0.249,3.068-0.377,4.603c-0.129,1.535-0.265,3.069-0.401,4.604c-0.378,4.21-0.788,8.42-1.222,12.629
	c-0.089,0.836-0.177,1.671-0.265,2.507c-0.121,1.077-0.232,2.161-0.354,3.246c-0.168,1.525-0.345,3.053-0.522,4.587
	c0,0.023-0.008,0.056-0.008,0.089c-0.177,1.494-0.354,2.988-0.53,4.491c-0.354,2.868-0.715,5.735-1.085,8.604
	c-0.056,0.427-0.112,0.845-0.168,1.262c-0.169,1.285-0.346,2.563-0.523,3.841c-0.209,1.525-0.418,3.045-0.635,4.563
	c-0.016,0.098-0.024,0.193-0.04,0.289c-0.201,1.422-0.409,2.844-0.618,4.258c-0.217,1.472-0.442,2.934-0.659,4.396
	c-0.755,4.893-1.542,9.777-2.37,14.646c-0.209,1.205-0.418,2.418-0.627,3.624h-14.357c-1.301,0-2.474-0.876-3.028-2.25
	c-0.04-0.096-0.081-0.192-0.113-0.289c-13.594-31.711-20.061-74.42-19.732-115.458c0.016-2.69,0.065-5.375,0.145-8.05
	c0.008-0.071,0.008-0.152,0.008-0.225c0.611-20.117,2.876-39.616,6.748-56.986c12.638-0.369,27.308-0.835,40.267-1.205
	c0.86-0.023,1.721-0.048,2.563-0.071h0.104c0.072,2.016,0.137,4.032,0.192,6.05c0.024,0.891,0.049,1.791,0.073,2.69
	c0.016,0.378,0.023,0.747,0.031,1.125c0.049,1.952,0.089,3.904,0.129,5.85c0.032,1.63,0.057,3.261,0.072,4.899
	c0.017,1.045,0.024,2.089,0.032,3.143c0.002,0.023-0.001,0.048,0,0.07c0.013,1.341,0.031,2.68,0.04,4.019
	C196.066,323.893,196.066,325.307,196.066,326.729"/>
<path fill="#C6C6C6" d="M196.066,326.729c0,1.855-0.008,3.728-0.023,5.607c0,0.313,0,0.626-0.009,0.94
	c-0.097,11.439-0.458,23.299-1.148,35.559c-19.065-0.121-35.695-3.455-49.233-7.657c-0.016-0.008-0.04-0.008-0.056-0.016
	c0.016-1.052,0.04-2.089,0.056-3.133c0.041-1.647,0.089-3.286,0.145-4.901c0.008-0.071,0.008-0.152,0.008-0.225
	c0.611-20.117,2.876-39.616,6.748-56.986c0.009-0.032,0.017-0.063,0.025-0.096l37.408-1.027c0.952-0.027,1.899-0.055,2.834-0.082
	c0.86-0.023,1.721-0.048,2.563-0.071c0.321,7.663,0.546,15.594,0.635,23.757c0.008,0.104,0.008,0.209,0,0.313
	c0.016,1.253,0.032,2.516,0.04,3.776C196.066,323.893,196.066,325.307,196.066,326.729"/>
<path fill="#BC956B" d="M230.096,472.597c-1.549,4.954-0.018,10.442,2.751,14.833c2.768,4.391,6.668,7.925,10.364,11.569
	c3.695,3.644,7.309,7.568,9.267,12.375c0.658,1.614,1.07,3.604,0.006,4.986c-1.008,1.306-2.889,1.483-4.538,1.433
	c-7.932-0.246-15.589-3.258-22.298-7.497c-3.818-2.413-7.384-3.173-9.234-7.294c-1.69-3.765-1.784-10.272-1.718-14.399
	c0.064-3.841,0.127-7.683,0.19-11.523c0.017-1.029,0.09-2.187,0.862-2.865c0.542-0.477,1.304-0.595,2.02-0.693
	c4.214-0.577,8.428-1.154,12.642-1.731L230.096,472.597z"/>
<path fill="#987957" d="M231.285,484.542c-1.711-3.775-2.418-8.025-1.189-11.946l0.313-0.804c-4.21,0.578-8.428,1.149-12.638,1.728
	c-0.723,0.097-1.478,0.217-2.024,0.699c-0.771,0.675-0.845,1.832-0.859,2.859c-0.041,2.483-0.081,4.974-0.129,7.464
	c2.491,0.29,5.299,0.484,8.371,0.48C226.117,485.017,228.851,484.826,231.285,484.542"/>
<path fill="#C6C6C6" d="M198.923,329.516c-0.008,0.94,0,1.88,0.008,2.82c0,0.313,0,0.627,0.009,0.94
	c0.008,1.204,0.016,2.418,0.031,3.623c0.017,1.551,0.04,3.108,0.065,4.659c0.015,0.9,0.031,1.792,0.047,2.691
	c0.025,1.31,0.057,2.62,0.089,3.929c0.008,0.475,0.024,0.94,0.04,1.414c0.008,0.402,0.016,0.795,0.024,1.197
	c0.169,6.371,0.41,12.742,0.723,19.113c0.049,0.939,0.089,1.872,0.145,2.812c0.024,0.498,0.049,0.996,0.08,1.494
	c0.04,0.788,0.089,1.583,0.129,2.379c0.009,0.184,0.017,0.369,0.032,0.554c0.048,0.835,0.098,1.663,0.145,2.499
	c0.161,2.691,0.33,5.383,0.515,8.074c0.056,0.763,0.104,1.534,0.161,2.298c0.063,0.892,0.128,1.775,0.192,2.659
	c0.112,1.422,0.217,2.844,0.329,4.266c0,0.049,0.009,0.104,0.009,0.153c0.12,1.494,0.24,2.972,0.369,4.45
	c0.129,1.535,0.265,3.069,0.401,4.604c0.032,0.458,0.08,0.908,0.121,1.366c0.096,1.052,0.192,2.089,0.289,3.133
	c0.257,2.74,0.53,5.447,0.811,8.132c0.09,0.835,0.178,1.671,0.266,2.506c0.056,0.538,0.113,1.068,0.169,1.599
	c0.056,0.554,0.12,1.101,0.185,1.647c0.057,0.514,0.112,1.02,0.168,1.525c0.113,1.021,0.233,2.049,0.354,3.062
	c0,0.023,0.008,0.057,0.008,0.089c0.177,1.494,0.354,2.988,0.53,4.491c0.241,2.04,0.499,4.064,0.755,6.073
	c0.104,0.852,0.217,1.688,0.33,2.53c0.056,0.426,0.111,0.844,0.168,1.262c0.169,1.285,0.346,2.563,0.522,3.841
	c0.089,0.658,0.177,1.309,0.266,1.96c0.12,0.867,0.249,1.735,0.37,2.603c0.016,0.097,0.022,0.193,0.04,0.289
	c0.136,0.957,0.272,1.913,0.408,2.861c0.064,0.466,0.138,0.932,0.209,1.397c0.218,1.47,0.442,2.933,0.659,4.395
	c0.755,4.893,1.542,9.777,2.37,14.646c0.209,1.205,0.418,2.419,0.627,3.624c0.112,0.667,0.226,1.325,0.345,1.984h17.989
	c3.928-11.569,8.146-25.982,11.617-42.822c4.475-21.724,7.688-47.489,7.343-76.412c0-0.257-0.008-0.514-0.008-0.763
	c-0.016-1.052-0.04-2.089-0.056-3.133c-0.041-1.647-0.089-3.286-0.146-4.901c-0.008-0.072-0.008-0.153-0.008-0.225
	c-0.819-21.757-3.527-40.95-6.748-56.985c-0.009-0.033-0.017-0.065-0.025-0.097l-37.407-1.027c-0.952-0.028-1.899-0.055-2.834-0.082
	c-0.86-0.024-1.721-0.048-2.564-0.072h-0.104c-0.072,2.018-0.137,4.033-0.192,6.05c-0.025,0.893-0.049,1.791-0.073,2.691
	c-0.016,0.378-0.023,0.747-0.032,1.125c-0.016,0.61-0.031,1.221-0.048,1.832c-0.031,1.333-0.057,2.675-0.08,4.017
	c-0.032,1.632-0.057,3.263-0.072,4.901c-0.017,1.044-0.024,2.088-0.032,3.141c-0.008,0.104-0.008,0.209,0,0.313
	C198.915,322.269,198.907,325.87,198.923,329.516"/>
<path fill="#DDDDDD" d="M198.907,326.729c0,0.932,0,1.855,0.016,2.788c-0.008,0.939,0,1.88,0.008,2.819c0,0.313,0,0.626,0.008,0.94
	c0.009,1.205,0.017,2.418,0.032,3.623c0.017,1.551,0.04,3.108,0.065,4.66c0.015,0.899,0.03,1.791,0.048,2.69
	c0.023,1.311,0.056,2.619,0.088,3.929c0.016,0.868,0.04,1.743,0.064,2.611c0.169,6.371,0.409,12.742,0.723,19.113
	c0.049,0.939,0.089,1.872,0.145,2.812c0.024,0.498,0.049,0.996,0.08,1.494c0.04,0.788,0.089,1.583,0.129,2.378
	c0.009,0.186,0.017,0.37,0.032,0.556c0.048,0.835,0.097,1.662,0.145,2.498c0.16,2.691,0.33,5.383,0.515,8.074
	c0.056,0.764,0.104,1.534,0.161,2.297c0.063,0.893,0.128,1.776,0.191,2.66c0.113,1.422,0.218,2.845,0.33,4.267
	c0.12,1.534,0.249,3.068,0.377,4.603c0.13,1.535,0.266,3.069,0.402,4.604c0.378,4.21,0.788,8.42,1.221,12.629
	c0.089,0.836,0.178,1.671,0.266,2.507c0.121,1.077,0.232,2.161,0.354,3.246c0.168,1.525,0.345,3.053,0.522,4.587
	c0,0.023,0.008,0.056,0.008,0.089c0.177,1.494,0.353,2.988,0.53,4.491c0.354,2.868,0.715,5.735,1.085,8.604
	c0.056,0.427,0.111,0.845,0.168,1.262c0.169,1.285,0.346,2.563,0.522,3.841c0.209,1.525,0.418,3.045,0.636,4.563
	c0.016,0.098,0.023,0.193,0.039,0.289c0.2,1.422,0.409,2.844,0.618,4.258c0.218,1.472,0.442,2.934,0.659,4.396
	c0.756,4.893,1.542,9.777,2.37,14.646c0.209,1.205,0.418,2.418,0.627,3.624h14.357c1.301,0,2.474-0.876,3.027-2.25
	c0.04-0.096,0.081-0.192,0.113-0.289c13.594-31.711,20.061-74.42,19.732-115.458c-0.017-2.69-0.065-5.375-0.146-8.05
	c-0.008-0.071-0.008-0.152-0.008-0.225c-0.611-20.117-2.876-39.616-6.748-56.986c-12.638-0.369-27.308-0.835-40.267-1.205
	c-0.86-0.023-1.721-0.048-2.563-0.071h-0.105c-0.071,2.016-0.136,4.032-0.191,6.05c-0.025,0.891-0.049,1.791-0.073,2.69
	c-0.016,0.378-0.023,0.747-0.032,1.125c-0.048,1.952-0.088,3.904-0.128,5.85c-0.032,1.63-0.057,3.261-0.072,4.899
	c-0.017,1.045-0.024,2.089-0.032,3.143c-0.002,0.023,0.001,0.048,0,0.07c-0.014,1.341-0.031,2.68-0.04,4.019
	C198.907,323.893,198.907,325.307,198.907,326.729"/>
<path fill="#C6C6C6" d="M198.907,326.729c0,1.855,0.008,3.728,0.023,5.607c0,0.313,0,0.626,0.008,0.94
	c0.098,11.439,0.458,23.299,1.149,35.559c19.064-0.121,35.695-3.455,49.233-7.657c0.016-0.008,0.04-0.008,0.056-0.016
	c-0.016-1.052-0.04-2.089-0.056-3.133c-0.041-1.647-0.09-3.286-0.146-4.901c-0.008-0.071-0.008-0.152-0.008-0.225
	c-0.611-20.117-2.876-39.616-6.748-56.986c-0.009-0.032-0.018-0.063-0.025-0.096l-37.407-1.027
	c-0.952-0.027-1.899-0.055-2.834-0.082c-0.86-0.023-1.721-0.048-2.563-0.071c-0.322,7.663-0.546,15.594-0.635,23.757
	c-0.008,0.104-0.008,0.209,0,0.313c-0.017,1.253-0.032,2.516-0.04,3.776C198.907,323.893,198.907,325.307,198.907,326.729"/>
<path fill="#5190B7" d="M198.118,360.201c-21.75-0.08-40.46-8.02-51.12-12.37c-6.98-2.85-5.58-10.979-4.23-16.09
	c5.81-24.39,10.67-53.75,14.15-69.66c4.78-33.04,0.35-79.44-2.17-94.65c-4.64-15.97-9.45-19-6.77-25.14
	c7.03-15.11,42.83-16.36,49.65-16.77c-0.09,0.03-0.19,0.07-0.28,0.09c0.53-0.06,1.08-0.06,1.61,0c-0.09-0.02-0.18-0.06-0.271-0.09
	c6.601,0.34,42.83,1.71,49.65,16.77c0,0,0.01,0.01,0.01,0.02c3.17,7.5-4.479,11.37-9.42,29.96c-1.42,5.64-2,15.49-2.03,26.86
	c-0.01,6.49,0.16,13.47,0.45,20.43c0.15,3.6,0.34,7.2,0.55,10.73c0.96,15.98,2.471,30.44,3.83,36.851
	c-0.819,0.85,9.62,47.84,12.73,69.89C258.538,351.721,213.758,359.781,198.118,360.201"/>
<path fill="#C098EA" d="M199.628,125.474v0.088c-0.313-0.016-0.626-0.032-0.94-0.04c0.089,0.032,0.177,0.064,0.273,0.089
	c-0.266-0.033-0.53-0.057-0.804-0.081c-0.28,0.024-0.546,0.048-0.812,0.081c0.097-0.025,0.192-0.057,0.282-0.089
	c0.111-0.008,0.232-0.008,0.345-0.008c0.064-0.008,0.121-0.008,0.185-0.008c0.088-0.008,0.177-0.008,0.266,0
	c0.056,0,0.111-0.008,0.169-0.008h0.008C198.944,125.482,199.282,125.474,199.628,125.474"/>
<path fill="#C098EA" d="M198.197,360.2c0.482,0,0.956-0.008,1.431-0.016v0.023C199.153,360.208,198.672,360.208,198.197,360.2"/>
<path fill="#C098EA" d="M199.628,125.426c-0.37,0.024-0.707,0.048-1.028,0.072h-0.008c-0.058,0-0.113,0.008-0.169,0.008
	c-0.032,0.008-0.057,0.008-0.08,0.008c-0.064,0.008-0.129,0.008-0.186,0.016c-0.28,0.025-0.546,0.049-0.812,0.081
	c0.097-0.024,0.192-0.056,0.282-0.089c0.023-0.008,0.056-0.016,0.079-0.024l0.009-0.008c0.152-0.048,0.297-0.096,0.441-0.152
	c0.008,0,0.017-0.008,0.024-0.008C198.712,125.37,199.193,125.402,199.628,125.426"/>
<path fill="#BC956B" d="M136.489,258.114c0,0,0.308,7.487-0.942,16.427c0,0-0.279,2.581-1.128,5.649c0,0-1.843,6.573-2.415,8.129
	c-0.572,1.557-0.861,4.054-0.666,5.316c0.195,1.261,1.241,6.757,1.709,7.624c0.468,0.865,3.604,8.6,4.246,8.923
	c0.642,0.322,1.114-0.74,1.114-0.74s0.179-1.734,0.323-2.192c0.548-1.74-0.041-7.597-0.246-9.445
	c-0.042-0.379-0.007-0.758,0.102-1.124l0.995-3.348c0,0,0.372,3.199,2.23,2.231c0,0,1.181-1.632,1.952-3.534
	c0.77-1.902,2.957-5.882,4.124-8.475c1.167-2.594,0.191-6.68-0.818-9.327c-1.008-2.648-0.734-6.882-0.526-10.824
	c0.613-11.649,3.496-11.595-3.549-10.337C135.054,254.485,136.489,258.114,136.489,258.114"/>
<path fill="#987957" d="M141.854,295.502c0,0-0.073,0.252-0.829,0.265c-0.756,0.013-1.477-1.142-1.527-3.577
	c-0.05-2.435-0.129-4.282,0-5.871c0.13-1.59,0.367-2.205,0.428-3.385c0.061-1.179,0-2,0-2s0.932,0.257,0.394,3.872
	c-0.539,3.615-0.436,6.872-0.154,8.256C140.449,294.447,140.594,295.764,141.854,295.502"/>
<path fill="#5190B7" d="M178.177,172.732c-10.32,23.576-25.586,69.819-28.461,96.189c-4.715,0.58-12.291-0.178-17.067-1.447
	c-5.277-26.749-6.33-113.434,21.891-131.096c2.419-1.514,6.082-2.967,8.156-3.872C171.491,135.27,176.331,146.67,178.177,172.732"/>
<path fill="#4C6580" d="M162.995,177.626c0.096-1.004,0.177-1.984,0.249-2.924c-0.412,13.544-0.7,57.357-4.413,69.265
	c0.506-4.186-0.12-12.692,0.121-16.814c-1.31,4.09-1.704,6.318-2.917,10.519C156.171,232.845,162.269,185.912,162.995,177.626"/>
<path fill="#C098EA" d="M196.688,360.184c0.474,0.008,0.948,0.016,1.43,0.016c-0.474,0.008-0.956,0.008-1.43,0.008V360.184z"/>
<path fill="#C098EA" d="M198.961,125.611c-0.265-0.032-0.53-0.056-0.803-0.08c-0.282,0.024-0.547,0.048-0.813,0.08
	c0.097-0.024,0.193-0.056,0.281-0.088c-0.313,0.008-0.626,0.024-0.94,0.04v-0.089c0.339,0,0.684,0.008,1.021,0.025h0.016
	c0.057,0,0.112,0.008,0.168,0.008c0.09-0.008,0.178-0.008,0.267,0c0.063,0,0.12,0,0.184,0.008c0.113,0,0.226,0,0.338,0.008h0.008
	C198.776,125.555,198.865,125.587,198.961,125.611"/>
<path fill="#C098EA" d="M198.961,125.611c-0.265-0.032-0.53-0.056-0.803-0.08c-0.065-0.008-0.121-0.008-0.186-0.016
	c-0.031,0-0.057,0-0.081-0.008c-0.056,0-0.111-0.008-0.168-0.008l-0.009-0.008c-0.321-0.017-0.666-0.041-1.036-0.065
	c0.435-0.024,0.916-0.056,1.454-0.096c0.009,0,0.017,0.008,0.025,0.008c0.136,0.056,0.281,0.104,0.433,0.161h0.008
	c0.024,0.008,0.05,0.016,0.081,0.024h0.008C198.776,125.555,198.865,125.587,198.961,125.611"/>
<path fill="#BC956B" d="M259.822,258.114c0,0-0.308,7.487,0.942,16.427c0,0,0.279,2.581,1.128,5.649c0,0,1.843,6.573,2.415,8.129
	c0.572,1.557,0.861,4.054,0.666,5.316c-0.195,1.261-1.241,6.757-1.709,7.624c-0.468,0.865-3.604,8.6-4.246,8.923
	c-0.642,0.322-1.114-0.74-1.114-0.74s-0.179-1.734-0.322-2.192c-0.549-1.74,0.041-7.597,0.245-9.445
	c0.042-0.379,0.008-0.758-0.102-1.124l-0.995-3.348c0,0-0.372,3.199-2.229,2.231c0,0-1.182-1.632-1.952-3.534
	s-2.957-5.882-4.124-8.475c-1.167-2.594-0.191-6.68,0.817-9.327c1.009-2.648,0.734-6.882,0.526-10.824
	c-0.613-11.649-3.496-11.595,3.549-10.337C261.258,254.485,259.822,258.114,259.822,258.114"/>
<path fill="#987957" d="M254.457,295.502c0,0,0.072,0.252,0.829,0.265c0.756,0.013,1.477-1.142,1.526-3.577
	c0.05-2.435,0.129-4.282,0-5.871c-0.13-1.59-0.367-2.205-0.428-3.385c-0.061-1.179,0-2,0-2s-0.932,0.257-0.394,3.872
	s0.436,6.872,0.153,8.256C255.862,294.447,255.718,295.764,254.457,295.502"/>
<path fill="#5190B7" d="M263.658,267.471c-2.38,0.64-5.471,1.149-8.55,1.42c-3.21,0.29-6.08,0.22-8.511,0.029
	c-0.449-8.46-1.64-20.209-4.89-33.92c-0.14-0.6-0.32-1.34-0.54-2.229c-0.73-2.85-1.91-7.23-3.82-13.21
	c-0.189-0.57-0.38-1.16-0.58-1.76c-0.3-0.92-0.619-1.88-0.96-2.86c-3.68-10.89-9.239-25.32-17.67-42.21
	c1.84-26.06,6.681-37.46,15.48-40.22c2.069,0.9,5.729,2.35,8.149,3.87c2.391,1.5,4.58,3.49,6.57,5.91c0,0,0.01,0.01,0.01,0.02
	C269.778,168.351,268.488,243.001,263.658,267.471"/>
<path fill="#4C6580" d="M237.348,219.561c0.15,3.6,0.34,7.2,0.55,10.73c-1.989-8.95-1.8-10.54-2.09-15.35
	c-0.05-1.01-0.13-2.16-0.26-3.56c-0.75-8.4,0.54-17.49,0.48-25.27c0.079,0.94,0.159,1.92,0.25,2.93
	c0.279,2.86,0.409,6.34,0.619,10.09c0.24,4.19,0.591,8.71,1.381,13.04c1.81,9.81,2.659,18.77,2.89,20.6
	C240.438,229.921,239.258,225.541,237.348,219.561"/>
<polygon fill="#79ACCC" points="182.183,130.735 183.552,124.544 189.342,120.103 213.757,120.103 218.582,124.757 218.582,130.598 
	"/>
<path fill="#9E64D0" d="M209.001,125.376c-1.742,0.096-3.076,0.217-4.877,0.53c-0.964-0.168-1.799-0.281-2.627-0.361
	c1.856-0.209,3.447-0.265,4.677-0.265C207.146,125.281,208.085,125.313,209.001,125.376"/>
<path fill="#C098EA" d="M201.048,125.505c-0.892-0.08-1.808-0.129-2.916-0.185c0.562-0.024,1.173-0.056,1.855-0.096
	C200.309,125.32,200.662,125.417,201.048,125.505"/>
<path fill="#BC956B" d="M219.42,129.04c-8.813,11.159-15.586,22.568-18.623,34.418c-3.471-14.582-10.171-25.267-18.615-33.807
	c0,0,4.893-5.793,7.07-9.416c0.233-0.378,0.434-0.731,0.595-1.053c0.642-1.277,0.957-3.575,1.092-5.945c0.241-3.929,0-8.05,0-8.05
	l25.557,0.851c0,0-0.225,3.061-0.611,7.729c-0.104,1.286-0.232,2.7-0.361,4.202c-0.088,0.972-0.072,1.896,0.024,2.756
	C216.094,125.987,219.42,129.04,219.42,129.04"/>
<path fill="#987957" d="M215.523,117.969c-0.088,0.972-0.072,1.896,0.024,2.756c-1.952,1.146-6.869,3.683-13.58,3.461
	c-6.287-0.208-10.798-2.727-12.715-3.951c0.091-0.147,0.202-0.332,0.324-0.548c0.1-0.175,0.19-0.344,0.27-0.505
	c0.643-1.277,0.956-3.575,1.093-5.945c0.241-3.929,0-8.05,0-8.05l25.557,0.851c0,0-0.226,3.061-0.61,7.729
	C215.78,115.053,215.651,116.467,215.523,117.969"/>
<path fill="#5190B7" d="M189.342,120.103c0,0-4.299,3.468-3.478,8.305s9.583,11.682,9.583,11.682l-3.926,15.15
	c0,0-17.066-15.15-7.97-30.695L189.342,120.103z"/>
<path fill="#5190B7" d="M195.446,140.089c0,0,8.958,22.907,5.484,51.929h-2.562c0,0,1.104-37.148-4.743-44.904L195.446,140.089z"/>
<path fill="#5190B7" d="M215.741,122.017c0,0,2.064,1.714,1.494,6.391c-0.595,4.87-9.583,11.682-9.583,11.682l3.925,15.15
	c0,0,16.177-15.15,8.45-29.991c-0.236-0.451-0.629-0.803-1.054-1.085L215.741,122.017z"/>
<path fill="#4C6580" d="M199.044,192.019l3.037-0.115l-0.115,0.11c0.328-13.336,1.071-26.924,4.949-39.764
	c0.653-1.796,1.344-3.637,2.558-5.135c-1.031,1.614-1.61,3.446-2.111,5.272c-3.167,12.964-3.865,26.389-5.166,39.637l-0.01,0.114
	l-0.104-0.004L199.044,192.019z"/>
<path fill="#D39485" d="M216.498,106.042c0,0-0.225,3.061-0.616,7.727c-2.938,1.744-6.385,2.464-9.789,2.762
	c-3.841,0.333-7.801,0.149-11.398-1.237c-1.327-0.512-2.604-1.203-3.752-2.057c0.239-3.926,0-8.05,0-8.05L216.498,106.042z"/>
<path fill="#BC956B" d="M176.752,81.307c-0.989-2.497-2.299-4.172-3.207-5.159c-1.016-1.104-2.021-2.167-3.676-2.554
	c-0.507-0.118-2.062-0.481-3.184,0.368c-0.914,0.691-1.141,1.883-1.224,3.183c-0.182,2.823,0.34,5.693,2.02,10.225
	c1.7,4.585,2.776,5.99,3.834,6.973c1.686,1.568,3.023,1.782,3.694,1.813c0.433,0.019,1.319,0.048,2.161-0.488
	c1.673-1.067,1.611-3.373,1.604-3.556C178.1,88.511,177.426,84.909,176.752,81.307"/>
<path fill="#BC956B" d="M229.314,95.737c0.396,0.37,1.096,0.906,2.045,1.022c0.329,0.041,1.678,0.153,3.625-1.58
	c4.312-3.833,4.585-10.491,4.694-13.152c0.05-1.233,0.047-3.288-1.208-4.973c-0.336-0.45-0.993-1.306-2.045-1.44
	c-0.85-0.109-1.532,0.309-1.999,0.604c-1.801,1.138-2.438,3.127-2.649,3.95C231.777,80.168,228.106,92.949,229.314,95.737"/>
<path fill="#BC956B" d="M231.477,60.691c-0.894-3.499-1.793-7.018-4.461-10.457c-7.385-9.512-21.852-10.078-30.813-8.226
	c-3.899,0.806-10.671,2.206-15.755,7.947c-5.484,6.193-5.719,13.728-5.995,22.587c-0.268,8.599,1.322,14.61,3.764,23.841
	c0.963,3.637,2.743,9.667,6.971,15.616c1.852,2.604,3.545,4.31,5.787,5.577c2.696,1.523,5.077,1.784,8.504,2.161
	c3.62,0.397,7.13,0.782,11.154-0.767c0.487-0.188,2.462-0.97,4.857-2.835c7.165-5.582,12.079-16.173,13.477-19.333
	C228.967,96.802,235.195,71.427,231.477,60.691"/>
<path fill="#111010" d="M231.196,82.679c2.014-3.389,4.123-7.746,5.635-13.03c1.196-4.18,2.793-9.984,1.761-17.257
	c-0.646-4.551-1.356-9.553-5.518-12.678c-3.271-2.456-7.078-2.553-8.921-2.465c0.067-1.792-0.306-3.11-0.587-3.874
	c-2.014-5.469-8.325-7.053-9.157-7.249c-1.276-0.299-2.326-0.352-3.083-0.362c-5.96-0.079-11.918,2.211-16.169,4.324
	c0,0-7.414,3.097-14.674,8.335c-1.438,1.038-3.779,2.838-4.343,5.752c-0.181,0.934-0.132,1.742-0.059,2.289
	c-0.924,0.32-4.619,1.72-6.632,5.635c-0.747,1.451-1.095,2.931-1.233,5.459c-0.44,8.072,1.857,14.563,2.348,15.906
	c1.046,2.862,2.883,6.932,6.163,11.269c-0.586-2.202-1.093-5.38-0.352-8.979c0.335-1.628,0.673-2.119,2.23-6.339
	c1.688-4.574,2.532-6.861,2.994-8.922c0.518-2.315,0.96-5.826,0.234-10.447c3.097,0.5,6.494,0.852,10.155,0.939
	c12.417,0.296,22.747-2.569,29.993-5.4c-0.191,3.812,0.008,10.436,3.17,17.726c1.799,4.149,4.042,7.322,5.928,9.567
	C231.118,76.144,231.157,79.412,231.196,82.679"/>
<path fill="#484443" d="M184.622,42.561c2.263-0.037,4.877-0.226,7.748-0.704c3.221-0.536,6.028-1.314,8.364-2.113
	c-2.142,1.907-4.285,3.815-6.427,5.722c2.398-0.118,5.06-0.382,7.924-0.88c4.314-0.75,8.066-1.854,11.181-2.993
	c-2.735,1.678-6.581,3.624-11.445,4.93c-7.543,2.025-14.028,1.569-17.96,0.968c2.964-1.35,5.928-2.699,8.892-4.05
	C190.139,43.148,187.38,42.855,184.622,42.561"/>
<path fill="#484443" d="M179.31,51.806c0.409,1.936,0.762,4.703,0.411,7.983c-0.499,4.657-2.183,8.156-3.346,10.154
	c0.612-2.96,1.185-6.054,1.702-9.274C178.567,57.618,178.974,54.661,179.31,51.806"/>
<path fill="#484443" d="M175.788,58.614c0.271,1.409,0.525,3.686,0,6.398c-0.419,2.167-1.19,3.857-1.82,4.989
	c0.107-1.671,0.291-3.479,0.587-5.4C174.891,62.42,175.321,60.419,175.788,58.614"/>
<path fill="#484443" d="M227.059,50.749c-1.167,2.886-0.272,5.653,0.264,7.307c1.253,3.871,3.751,6.353,5.195,7.572
	c-1.078-1.693-2.351-4.086-3.259-7.131c-1.163-3.903-1.262-7.31-1.144-9.597C227.802,49.31,227.39,49.93,227.059,50.749"/>
<path fill="#FFFFFF" d="M197.911,76.572c0,0,0.695,6.794-6.521,7.199c-7.209,0.405-8.543-6.641-8.543-6.641
	c1.453-0.916,2.998-1.455,4.529-1.733c2.735-0.51,5.414-0.19,7.385,0.239C196.665,76.048,197.911,76.572,197.911,76.572"/>
<path fill="#3F2E20" d="M191.866,81.626c-0.22,0.062-0.442,0.1-0.658,0.121l-0.16,0.015c-0.057-0.002-0.121,0.004-0.178,0.002
	c-0.048,0.004-0.087,0.008-0.136,0.005c-1.931-0.014-3.68-1.312-4.194-3.272c-0.144-0.559-0.174-1.121-0.106-1.66
	c0.019-0.139,0.045-0.279,0.081-0.412c0.068-0.297,0.161-0.581,0.296-0.86c0.187-0.059,0.376-0.118,0.564-0.168
	c2.736-0.51,5.414-0.19,7.386,0.239c0.073,0.171,0.139,0.342,0.188,0.523c0.013,0.047,0.025,0.094,0.039,0.149
	c0.011,0.032,0.021,0.063,0.025,0.095C195.562,78.706,194.165,81.03,191.866,81.626"/>
<path fill="#987957" d="M184.353,84.274c1.99-0.728,4.141-0.829,6.237-0.852c2.077,0.071,4.318,0.083,6.185,1.125
	c-2.026-0.432-4.125-0.266-6.188-0.322C188.747,84.229,186.174,84.169,184.353,84.274"/>
<path fill="#FFFFFF" d="M225.305,76.983c0,0-1.199,7.07-8.416,6.802c-7.223-0.27-6.656-7.075-6.656-7.075s1.187-0.544,3.066-0.976
	c2.076-0.482,5.005-0.832,8.081-0.179C222.68,75.826,224.006,76.285,225.305,76.983"/>
<path fill="#3F2E20" d="M221.683,78.472c-0.472,2.002-2.229,3.347-4.183,3.395c-0.05,0.004-0.098,0-0.138,0.005
	c-0.064-0.005-0.122-0.002-0.185-0.007l-0.048-0.003c-0.04-0.003-0.072-0.006-0.113-0.001c-0.216-0.025-0.438-0.059-0.668-0.117
	c-2.342-0.555-3.803-2.885-3.288-5.23c0.002-0.033,0.013-0.064,0.016-0.104c0.013-0.047,0.024-0.103,0.045-0.15
	c0.047-0.181,0.108-0.362,0.178-0.526c2.077-0.481,5.006-0.831,8.081-0.179c0.133,0.26,0.224,0.533,0.291,0.813
	c0.038,0.132,0.066,0.279,0.088,0.418C221.845,77.332,221.823,77.903,221.683,78.472"/>
<path fill="#987957" d="M223.84,84.274c-1.81-0.105-4.4-0.045-6.233-0.049c-2.063,0.056-4.161-0.11-6.188,0.322
	c1.866-1.042,4.108-1.054,6.184-1.125C219.699,83.445,221.849,83.546,223.84,84.274"/>
<path d="M200.646,100.533c-4.199,1.735-9.014,1.786-13.146,0.132c2.128,0.27,4.258,0.132,6.234-0.385
	c1.98-0.511,3.805-1.404,5.366-2.565c0.719-0.534,1.735-0.384,2.27,0.334C202.016,98.89,201.638,100.17,200.646,100.533"/>
<path d="M205.004,97.715c3.245,2.435,7.491,3.489,11.603,2.95c-4.145,1.659-8.974,1.602-13.182-0.146
	C201.234,99.513,203.005,96.362,205.004,97.715"/>
<path fill="#542525" d="M209.019,64.411l0.516,4.446c0,0,11.125-3.05,20.288,0.913C229.822,69.77,223.036,61.966,209.019,64.411"/>
<path fill="#542525" d="M199.594,65.114l-0.523,4.446c0,0-11.12-3.066-20.288,0.884C178.783,70.444,185.58,62.65,199.594,65.114"/>
<path fill="#987957" d="M203.633,74.36c1.616,2.884,2.502,6.458,3.711,9.539c1.293,3.162,1.985,7.39-0.813,10.003
	c-1.845,1.518-4.915,1.577-6.605-0.137c1.085,0.397,2.128,0.708,3.215,0.649c3.712,0.099,5.073-3.935,4.405-7.043
	C206.543,83.04,204.333,78.822,203.633,74.36"/>
<path fill="#111010" d="M171.999,53.11c-0.519-0.56-0.915-1.233-1.153-1.959c-0.207-0.631-0.281-1.368,0.083-1.925
	c0.634-0.97,2.079-0.805,3.203-0.526c0.467-0.584,0.057-1.431,0.046-2.179c-0.011-0.744,0.409-1.443,0.97-1.932
	c0.562-0.489,1.254-0.797,1.942-1.08c1.517-0.623,3.073-1.153,4.655-1.587c0.115,0.424-0.125,0.875-0.455,1.165
	c-0.331,0.29-0.744,0.464-1.12,0.691c-1.333,0.805-2.158,2.237-2.735,3.683c-0.577,1.446-0.968,2.974-1.72,4.337
	c-0.378,0.683-0.868,1.34-1.559,1.704c-0.691,0.365-1.616,0.368-2.192-0.16"/>
<path fill="#111010" d="M234.046,49.743c0.519-0.56,0.915-1.233,1.152-1.959c0.207-0.631,0.281-1.368-0.083-1.924
	c-0.634-0.971-2.078-0.806-3.202-0.527c-0.468-0.584-0.058-1.431-0.046-2.179c0.011-0.744-0.409-1.443-0.971-1.932
	c-0.562-0.488-1.254-0.797-1.941-1.08c-1.518-0.623-3.073-1.153-4.655-1.587c-0.115,0.424,0.125,0.875,0.455,1.165
	c0.331,0.29,0.744,0.464,1.12,0.692c1.333,0.804,2.158,2.236,2.734,3.682c0.577,1.446,0.969,2.974,1.721,4.337
	c0.378,0.683,0.867,1.34,1.559,1.704c0.691,0.365,1.616,0.368,2.192-0.16"/>
<path fill="#652B28" d="M190.677,103.567c3.325,0.984,14.89,3.91,22.765-0.327c0.076-0.041,0.032-0.157-0.052-0.135
	c-2.126,0.551-10.04,2.209-22.681,0.321C190.62,103.412,190.59,103.541,190.677,103.567"/>
<path fill="#987957" d="M196.717,107.366c1.285,0.486,5.462,1.874,8.244,0.57c0.075-0.036,0.144,0.06,0.085,0.119
	c-0.919,0.915-3.987,3.268-8.404-0.562C196.578,107.438,196.639,107.337,196.717,107.366"/>
<polyline fill="#4C6580" points="516.542,49.028 469.281,49.028 469.281,-11.329 "/>
</svg>
