<?xml version="1.0" encoding="utf-8"?>
<!-- Generator: Adobe Illustrator 26.0.1, SVG Export Plug-In . SVG Version: 6.00 Build 0)  -->
<svg version="1.1" id="Layer_1" xmlns="http://www.w3.org/2000/svg" xmlns:xlink="http://www.w3.org/1999/xlink" x="0px" y="0px"
	 viewBox="0 0 1202 824" style="enable-background:new 0 0 1202 824;" xml:space="preserve">
<style type="text/css">
	.st0{clip-path:url(#SVGID_00000123431520980733714480000008954536903461697714_);fill:#BDDEEF;}
	.st1{clip-path:url(#SVGID_00000123431520980733714480000008954536903461697714_);}
	.st2{fill:#52A7C1;}
	.st3{clip-path:url(#SVGID_00000123431520980733714480000008954536903461697714_);fill:#99CCE0;}
	.st4{fill:#DE9F7E;}
	.st5{fill:#D38A6A;}
	.st6{fill:#FFFFFF;}
	.st7{fill:#D3D3D3;}
	.st8{fill:#FFFFFF;stroke:#D3D3D3;stroke-width:1.2192;stroke-miterlimit:10;}
	.st9{fill:#CE993A;}
	.st10{fill:#CE8065;}
	.st11{fill:#B7303D;}
	.st12{fill:#B77409;}
	.st13{fill:#AF7151;}
	.st14{fill:#FFFFFF;stroke:#D3D3D3;stroke-width:0.9379;stroke-miterlimit:10;}
	.st15{fill:#3774CC;}
	.st16{fill:#0B57B2;}
	.st17{fill:#AFABAC;}
	.st18{fill:#A8A8A8;}
	.st19{fill:#D1CBCD;}
	.st20{fill:#DCD3C4;}
	.st21{fill:#F7F4F0;}
	.st22{fill:#717677;}
	.st23{fill:#682C1E;}
	.st24{fill:#6C7072;}
	.st25{clip-path:url(#SVGID_00000123431520980733714480000008954536903461697714_);fill:#AFABAC;}
	.st26{clip-path:url(#SVGID_00000123431520980733714480000008954536903461697714_);fill:#DCD3C4;}
	.st27{clip-path:url(#SVGID_00000123431520980733714480000008954536903461697714_);fill:#F7F4F0;}
	.st28{fill:#D34047;}
	.st29{fill:#FCB856;}
	.st30{clip-path:url(#SVGID_00000123431520980733714480000008954536903461697714_);fill:#AF7151;}
	.st31{clip-path:url(#SVGID_00000123431520980733714480000008954536903461697714_);fill:#3A3A3A;}
	.st32{clip-path:url(#SVGID_00000123431520980733714480000008954536903461697714_);fill:#DE9F7E;}
	.st33{fill:#CC936D;}
	.st34{fill:#17140C;}
	.st35{clip-path:url(#SVGID_00000123431520980733714480000008954536903461697714_);fill:#D34047;}
	.st36{clip-path:url(#SVGID_00000123431520980733714480000008954536903461697714_);fill:#B7303D;}
	.st37{fill:#7C7C7C;}
	.st38{fill:#494949;}
	.st39{fill:#101010;}
	.st40{clip-path:url(#SVGID_00000123431520980733714480000008954536903461697714_);fill:#1154A5;}
</style>
<g>
	<defs>
		<path id="SVGID_1_" d="M1168.4,544.1c-3.9,17.8-9,41.2-21.3,65.9c-5.4,10.9-12.2,22-21,33c-27.6,34.7-60.5,50.9-77.4,58.9
			c-276.5,132-602.9,57-602.9,57c-112.2-25.8-212.9-48.9-291-117.8c-15.8-13.9-30.6-29.7-44.5-47.7C45,508.4,2.9,374,51.3,321.4
			c50.5-54.9,163.7-8.7,236.7-75.6c9.5-8.7,16.5-21.3,20.6-40.2c21.1-97,101.4-191.1,247.7-160.8c187.7,39,167,149.3,259.1,141.1
			s249.8-70,278.3,46.9c28.5,117-105,217.3-20,209c34.7-3.4,75.1-9.2,94.2,11.8C1183.2,470.4,1177.7,501.5,1168.4,544.1z"/>
	</defs>
	<clipPath id="SVGID_00000094578100636553035540000006805027124863208345_">
		<use xlink:href="#SVGID_1_"  style="overflow:visible;"/>
	</clipPath>
	<path style="clip-path:url(#SVGID_00000094578100636553035540000006805027124863208345_);fill:#BDDEEF;" d="M1168.4,544.5
		c-3.9,17.8-9,41.2-21.3,65.9c-5.4,10.9-12.2,22-21,33c-27.6,34.7-60.5,50.9-77.4,58.9c-276.5,132-602.9,57-602.9,57
		c-112.2-25.8-212.9-48.9-291-117.8c-15.8-13.9-30.6-29.7-44.5-47.7C45,508.8,2.9,374.4,51.3,321.8c50.5-54.9,163.7-8.7,236.7-75.6
		c9.5-8.7,16.5-21.3,20.6-40.2c21.1-97,101.4-191.1,247.7-160.8c187.7,39,167,149.3,259.1,141.1s249.8-70,278.3,46.9
		c28.5,117-105,217.3-20,209c34.7-3.4,75.1-9.2,94.2,11.8C1183.2,470.8,1177.7,501.9,1168.4,544.5z"/>
	<g style="clip-path:url(#SVGID_00000094578100636553035540000006805027124863208345_);">
		<path class="st2" d="M54.5,507.8c36.5-35.8,51.1-41.6,96.2-32c24.6,5.3,56.2,2.9,74.3-16.7c12.4-13.5,10.8-33.5,28.2-40.7
			c21.8-9.1,54.9,6.1,74.4,15.9c24.1,12.1,50,26.8,77,14.9c37.1-16.5,37.3-64.6,82.2-67.8c28.9-2.1,52.6,12.7,76.2,28
			c11.3,7.3,24.3,22.1,38.6,21.7c29.9-0.7,46.4-43.8,74.8-51.2c51.3-13.4,95.2,20.2,136.7,45.9c11.7,7.2,27.9,18.3,42.4,17.4
			c22.1-1.4,28-26.4,45-36.7c39.2-23.7,67.5,12,101.1,23.5c27.1,9.3,47.9-10,70.6-21.8c34.8-18,76.9-20.8,114.5-8.4
			c28.1,9.2,38.7,36.1,40.5,63.5c1.8,27.4-5.7,54.1-11.5,80.6c-6.3,29-8.3,57.7-11.7,87.1c-1.8,15.4-0.5,23.3-13.9,30.9
			c-14.9,8.4-41,8-57.3,5.6c-32-4.7-62.3-14.4-94.8-16.9c-33.9-2.7-67.9-2.3-101.8-4.8c-48.8-3.6-96.8-13-145.8-15.9
			c-43.4-2.6-86.8-3.8-130.2-7.1c-54.6-4-110.6-2.7-165.2-1.1c-71.6,2.1-142.5,3.4-213.3,16.7c-53.1,10-119.7,40.4-174.2,16.4
			c-15.8-7-24.7-18.1-29.7-34.3C71.3,600,66,577.3,61.4,556.2c-2.7-12.4,1.2-46.1-8.4-54.3"/>
	</g>
	<path style="clip-path:url(#SVGID_00000094578100636553035540000006805027124863208345_);fill:#99CCE0;" d="M1147.1,610
		c-5.4,10.9-12.2,22-21,33c-27.6,34.7-60.5,50.9-77.4,58.9c-276.5,132-602.9,57-602.9,57c-112.2-25.8-212.9-48.9-291-117.8
		c58.9-44.4,316.4-76.3,536.1-76.3C854.6,564.8,1039.2,582.6,1147.1,610z"/>
	<g style="clip-path:url(#SVGID_00000094578100636553035540000006805027124863208345_);">
		<g>
			<g>
				<g>
					<path class="st4" d="M302.4,470.9c-0.1,3.2-0.1,6.3-0.4,9.5c-0.2,1.9-0.4,3.7-0.9,5.5c-0.6,1.8-1.7,3.3-2.3,5.1
						c-0.6,1.6-1,3.2-1.2,4.9c-0.1,1.2-0.2,2.4-0.2,3.6h-36.3c0.1-2.3,0.1-4.5-0.5-6.8c-0.5-2.1-1.8-4-2.5-6c-1.1-3-1-6.1-1.3-9.3
						c-0.3-3.3-0.6-6.6-0.8-10c-0.1-2.1,0.2-5.3,0.3-7.4c0-0.7,0-2.6,0.9-2.9c5.3-1,14.4-7.9,14.4-7.9c0.3-0.8,0.5-1.9,0.6-3
						c0-0.5,0-0.9,0-1.4c0-1-0.1-2-0.1-2.9c2.4,1.3,5.5,1.7,8.2,1.7c2.5,0,5-0.3,7.4-1.1c0,0.6-0.1,1.2-0.1,1.9c0,0.5,0,1,0,1.4
						c0.1,1.6,0.3,3.1,1,4.3c0.2,0.2,0.3,0.4,0.5,0.5c3.3,1.8,8.7,5.8,13,6.6c0.5,1.2,0.2,2.9,0.2,4.1
						C302.5,464.1,302.5,468,302.4,470.9z"/>
					<path class="st5" d="M287.6,444.2c0,0.3,0,0.6,0,0.9c-0.5,0.6-1.4,1.5-2.6,2.4c-1.4,1-2.9,2.1-5,2.2c-2,0.1-3.6-0.8-4.7-1.5
						c-1.5-0.9-2.5-1.9-3.1-2.6c0-0.3,0-0.6,0-1c0-1,0-2-0.1-2.9c2.4,1.3,5.5,1.7,8.2,1.7c2.5,0,5-0.3,7.4-1.1
						C287.6,442.9,287.6,443.5,287.6,444.2z"/>
					<path class="st4" d="M269.3,430.8c-0.2-0.9,0.3-1.2-0.7-1.6c-0.8-0.3-1.5,1.2-1.7,2.3c-0.2,1.1,1,5,1.6,5.6
						c0.6,0.5,1.5,0.7,1.7-0.2L269.3,430.8z"/>
					<path class="st4" d="M290.3,427.6c0.5,4.7,0.9,9.5-1.7,14c-0.2,0.4-1,1.8-2.5,3.3c-1.3,1.2-3.1,2.7-5.6,3.2
						c-0.5,0.1-1,0.1-1.5,0c-3.8-0.8-7-4.4-7.9-6c0,0,0,0,0,0c-0.1-0.2-0.2-0.4-0.4-0.6c-0.1-0.2-0.2-0.5-0.3-0.7c0,0,0,0,0,0
						c-0.9-2.4-1.1-9.3-1.3-13.3c-0.4-5.4,3-10.1,8.5-11.8c0.7-0.2,1.4-0.3,2.1-0.3h0c0.1,0,0.1,0,0.2,0c0.6,0,1.2,0.1,8.4,4.5
						C290.3,421.2,289.9,423.8,290.3,427.6z"/>
				</g>
				<path class="st4" d="M265.4,635.3c-0.5-3-1.2-7.3-2.2-12.6c-0.5-2.8-1.3-6.4-2.2-10.6c0,0,6.4-6.3,11.9-3.3
					c4.1,2.2,2.8,10.4,1.2,26.9c-0.2,1.8-0.3,3.3-0.4,4.5c-2.5,0-5,0-7.5,0C266,639,265.7,637.3,265.4,635.3z"/>
				<path class="st4" d="M296.1,635.3c0.5-3,1.2-7.3,2.2-12.6c0.5-2.8,1.3-6.4,2.2-10.6c0,0-6.4-6.4-11.9-3.3
					c-3.9,2.2-2.8,10.4-1.2,26.9c0.2,1.8,0.3,3.3,0.4,4.5c2.5,0,5,0,7.5,0C295.6,639,295.8,637.3,296.1,635.3z"/>
				<path class="st6" d="M254.2,534.8c-1.2,15.6-1.6,29-1.8,39.5c-0.4,26.4,1.1,34.5,7,39.2c4.9,4,11.3,4.4,16.2,4.1
					c1.3-6.4,2.4-13.3,3.2-20.7c0.9-7.7,1.4-15,1.6-21.7c-0.8-12.9-1.6-25.8-2.3-38.6C270.1,536,262.2,535.4,254.2,534.8z"/>
				<path class="st6" d="M304.6,533.8c3.3,10.2,10.5,70.5-5.6,83.7c-2.1,3.5-10.3,3.8-12.9,0.9c-1.2-6.6-2.4-13.4-3.5-20.4
					c-1.4-9.1-2.5-18-3.4-26.5c-0.5-3.6-1-7.4-1.2-11.6c-0.4-8.9,0.3-16.8,1.3-23.4C282.2,533.6,301.8,532.1,304.6,533.8z"/>
				<g>
					<g>
						<path class="st7" d="M274.8,579.9c0.6,7.9-4.5,16.1-12,19C268.4,593.6,272.5,587.2,274.8,579.9L274.8,579.9z"/>
					</g>
					<g>
						<path class="st7" d="M275.5,586.7c2.5,7.1-0.3,15.7-6.4,20.1C272.8,600.5,275,593.9,275.5,586.7L275.5,586.7z"/>
					</g>
					<g>
						<path class="st7" d="M284.5,581.6c3.7,6.1,7.7,11.7,12.1,17.3C290.2,595.5,285.5,588.8,284.5,581.6L284.5,581.6z"/>
					</g>
					<g>
						<path class="st7" d="M283.2,588.4c1,2.6,2.5,6.3,3.8,8.8c1.2,2.5,3.4,5.9,4.9,8.2C286.1,602,282.5,595,283.2,588.4
							L283.2,588.4z"/>
					</g>
					<g>
						<path class="st7" d="M274.2,572.3c0,5.8-4.1,11.5-9.6,13.3C268.2,581.6,271.5,577.1,274.2,572.3L274.2,572.3z"/>
					</g>
					<g>
						<path class="st7" d="M285.4,573.8c1.4,1.7,3.1,4,4.4,5.7c1.3,1.7,3.1,3.9,4.3,5.8C289.4,583.6,285.8,578.8,285.4,573.8
							L285.4,573.8z"/>
					</g>
					<path class="st8" d="M286.8,544.6c0.6,1.9,0,4.4-0.1,6.2c-0.1,4,0,7.9,0.1,11.9c0.1,8,0.6,16,0.3,24c0,1.1,0,2.5-0.4,3.6
						c-1.4,3.8-9.9,5.1-13-0.4c-1.2-2.2-1-5.3-1-7.7c0-4.2,0.3-8.4,0.7-12.5c0.7-7.7,1.4-15.3,2.3-23c0.4-3.6,5-4.8,8.1-4.4
						c0.9,0.1,1.9,0.5,2.6,1.2C286.5,543.8,286.7,544.2,286.8,544.6z"/>
				</g>
				<path class="st9" d="M253.1,456.9c12.2-3.9,15.9-5.8,16.2-6.7c0.1-0.2,0.4-1,1.1-1.4c0.4-0.2,1.4-0.3,1.4-0.3
					c-2.2,5.1-2.4,10.2,3.7,12.7c0.7,0.3,4.2,6.1,4.4,7.6c0,0,2.6-7.3,3.3-7.6c6.7-2.4,6.2-8.3,4.7-12.9c0.2,0,0.7,0.1,1.2,0.4
					c0.2,0.1,0.5,0.4,0.8,0.9c0.1,0.2,0.2,0.4,0.3,0.6c5.6,2.7,9.8,4.6,11.4,5.2c1.5,0.6,3,1.2,4.4,1.8c0,0.3,0,0.7,0,1.3
					c0.1,7.1-1.3,11.3-2.5,19.7c-0.8,5.6-1.6,12.1-2.3,25.2c-0.1,1.2-0.2,3.7,0,6.8c0.3,4.2,1.2,7.2,1.3,8.3
					c0.7,5.5,3.6,19.5,3.7,21.6c-6.7,2.3-17,5-29.9,4.7c-9.6-0.2-17.5-2-23.3-3.8c1.4-10.8,2.4-18.2,2.8-20.8c0.1-0.6,0.4-2.4,0.6-5
					c0.1-0.8,0.1-1.6,0.2-2.5c0.2-3.4,0.1-5.2,0.1-10.4c-0.1-7.7-0.1-7.3,0-10.3c0.3-6.1-1.7-13.9-1.7-13.9
					C254.4,474.3,253.3,467.9,253.1,456.9z"/>
				<g>
					<path d="M279.7,454.6c-0.6,0-4.5-0.1-6.6-3c-0.5-0.7-0.8-1.3-0.9-1.8c-0.2-0.6-0.3-1.1-0.4-1.4c0,0,0,0,0,0
						c0-0.1-0.1-0.5,0.1-0.8c0-0.1,0.1-0.2,0.2-0.2c0,0.2,0.1,0.5,0.2,0.9c0,0,0.4,1.6,1.3,2.9c1.2,1.8,6.1,4.2,10.3,2.1
						c2.9-1.5,3.9-4.5,4.1-5.3c0.1,0,0.2,0.3,0.2,0.5c0.1,0.1,0,0.4,0,0.5c-0.3,0.8-1.2,3.3-4.2,4.8
						C283.5,453.9,281.9,454.6,279.7,454.6z"/>
				</g>
				<g>
					<path d="M269,438.5c-0.3,0-0.5-0.7-0.5-1.2l0.2,0.1c0,0.6,0.2,0.9,0.2,0.9c0.1,0,0.3-0.3,0.3-1c0-0.6-0.2-1-0.3-1
						c-0.1-0.1-0.1-0.1,0-0.2c0.3,0,0.5,0.6,0.5,1.2C269.5,437.9,269.4,438.5,269,438.5z"/>
				</g>
				<path class="st4" d="M289.9,430.9c0.2-0.9,0.1-1.3,0.9-1.6s1.5,1.2,1.7,2.3c0.2,1.1-1,5-1.6,5.6c-0.6,0.5-1.5,0.7-1.7-0.2
					L289.9,430.9z"/>
				<g>
					<path d="M290.4,438.5c0.3,0,0.5-0.7,0.5-1.2l-0.2,0.1c0,0.6-0.2,0.9-0.2,0.9c-0.1,0-0.3-0.3-0.3-1c0-0.6,0.2-1,0.3-1
						c0.1-0.1,0.1-0.1,0-0.2c-0.3,0-0.5,0.6-0.5,1.2C289.9,437.9,290,438.5,290.4,438.5z"/>
				</g>
				<path d="M289.4,433.1c0.1-0.2,0.2-0.4,0.3-0.5c0.2-1,0.3-1.9,0.5-2.9c0.4-1,0.8-2.4,1-4c0.3-2.3,0.4-4.6-0.9-6.3
					c-1-1.3-2.4-1.1-2.6-1.2c-5.5-9-16.9-0.9-18.2,2.2c-0.5,1.3-1.1,3.5-0.9,6.2c0.1,1.2,0.4,2.3,0.7,3.2c0.1,0.2,0.2,0.4,0.3,0.6
					c0.4,1,0.5,1.9,0.4,2.5c0.1,0.2,0.1,0.4,0.2,0.6c0-0.3,0.1-0.9,0.1-1.7c0.3-4.1,0.2-5.4,1.2-6.5c0.2-0.3,0.7-0.7,1.4-1.1
					c5.3,1.3,14.6-2.8,14.9-1.7c0,0.5-0.1,1.3,0.1,2.3c0.2,1.3,0.7,2.3,0.9,2.7C289.2,428.5,289.7,430.3,289.4,433.1z"/>
				<g>
					<path class="st10" d="M276.7,441.6c-0.1,0.3,1.5,1.1,3.3,1.1c1.6,0,3.1-0.7,3.1-1c0-0.1-0.1-0.2-2.5-0.2
						C278,441.4,276.7,441.4,276.7,441.6z"/>
				</g>
				<g>
					<path class="st10" d="M278.4,438.6c0,0.1,0.7,0.8,1.6,0.8c0.8,0,1.5-0.6,1.5-0.7c0-0.1-0.6,0.2-1.5,0.3
						C279,438.9,278.4,438.5,278.4,438.6z"/>
				</g>
				<g>
					<path d="M271.8,430.6c0.3-0.4,0.8-0.8,1.4-1.2c0,0,0,0,0,0c0.3-0.2,0.7-0.3,1.1-0.2c1,0.1,1.9,0.2,2.9,0.3
						c0.1,0.1,0.2,0.3,0.2,0.5c0,0.2,0,0.3,0,0.4c-1.1-0.1-2.2-0.2-3.3-0.4c-0.2,0-0.5,0-0.7,0.1
						C272.8,430.3,272.3,430.4,271.8,430.6z"/>
				</g>
				<g>
					<path d="M287.9,430.6c-0.3-0.4-0.8-0.8-1.4-1.2c0,0,0,0,0,0c-0.3-0.2-0.7-0.3-1.1-0.2c-1,0.1-1.9,0.2-2.9,0.3
						c-0.1,0.1-0.2,0.3-0.2,0.5c0,0.2,0,0.3,0,0.4c1.1-0.1,2.2-0.2,3.3-0.4c0.2,0,0.5,0,0.7,0.1
						C286.8,430.3,287.4,430.4,287.9,430.6z"/>
				</g>
				<g>
					<path d="M273.2,644.3c0.4,0.2,0.9,0.5,1.3,1c1,1.4,0.5,3.4-0.5,6.3c-0.7,2.3-1.6,5-2.7,7.9c-0.5,1-1.3,2.3-2.7,2.9
						c-3.9,1.8-9.8-2-10.1-5.6c-0.1-1.2,0.4-2.2,1.5-4.1c1.5-2.7,3.2-4.6,4.4-5.8C267.4,646.1,270.3,645.2,273.2,644.3z"/>
					<path class="st4" d="M264.9,644.3c-1.5,4-2.5,6.7-4.2,8.9c-0.3,0.4-0.9,1.2-1,2.2c0,0.2-0.1,1.5,0.7,2.5
						c0.3,0.3,0.4,0.4,1.7,1.2c1.7,1.1,1.5,1,1.9,1.3c0.8,0.4,2.1,1.1,3.4,0.9c1.9-0.3,2.9-2.5,3.1-2.8c0.3-0.9,0.6-1.8,0.9-2.7
						c0.6-1.9,0.9-3,1.6-5.1c0.6-1.9,0.9-2.8,0.9-3.2c0.2-1.6-0.2-2.3-0.2-4.4c0-1.3,0-2.3,0.1-3c-1.1-0.3-2.7-0.5-4.5-0.5
						c-1.2,0.1-2.9-0.4-3,0.5C266,642.1,265.3,643.4,264.9,644.3z"/>
					<path d="M259.6,654.1c1.5,0.2,3.3,0.5,5.3,1.2c2.9,1,5.1,2.4,6.6,3.5c0.5-1.6,1-3.1,1.6-4.7c-0.7-0.9-2.2-2.4-4.6-3.4
						c-2.6-1.2-4.9-1.2-6.1-1.1C261.5,651.1,260.6,652.6,259.6,654.1z"/>
				</g>
				<g>
					<path d="M288.1,644c-0.4,0.1-1,0.4-1.4,0.9c-1.1,1.3-0.7,3.4,0.1,6.3c0.6,2.3,1.4,5.1,2.3,8.1c0.4,1.1,1.2,2.3,2.6,3
						c3.8,2,9.9-1.4,10.4-5c0.2-1.1-0.3-2.2-1.3-4.2c-1.3-2.8-2.9-4.7-4-6C293.8,646.1,291,645,288.1,644z"/>
					<path class="st4" d="M296.4,644.4c0.7,2.6,1.8,6.3,3.7,9.1c0.3,0.4,0.8,1.2,0.9,2.3c0,0.2,0,1.5-0.8,2.5
						c-0.3,0.3-0.4,0.3-1.7,1.1c-1.8,1-1.6,1-2,1.2c-0.9,0.4-2.1,1-3.4,0.7c-1.9-0.5-2.8-2.6-2.9-3c-0.2-0.9-0.5-1.9-0.7-2.8
						c-0.5-1.9-0.8-3-1.3-5.2c-0.5-1.9-0.7-2.9-0.7-3.2c-0.1-1.6,0.3-2.3,0.5-4.4c0.1-1.3,0.1-2.3,0-3c1-0.4,2.4-0.9,4.2-1.1
						c1.4-0.1,3.6-0.8,3.6,0.2C295.5,641.3,296,643.2,296.4,644.4z"/>
					<path d="M301.1,654.5c-1.5,0.1-3.3,0.3-5.3,0.9c-3,0.8-5.2,2.1-6.8,3.1c-0.4-1.6-0.9-3.2-1.3-4.8c0.8-0.8,2.4-2.2,4.7-3.2
						c2.7-1,5-0.9,6.1-0.8C299.4,651.4,300.3,653,301.1,654.5z"/>
				</g>
			</g>
			<g>
				<path d="M282.4,432.6c0.1,0.1,0.7,1.2,2,1.3c1,0.1,1.9-0.4,2.4-1.3c-0.1,0.2-0.2,0.4-0.3,0.6C285.3,434.8,283,434.6,282.4,432.6
					z"/>
			</g>
			<g>
				<path d="M277.2,432.6c-0.7,1.3-2.1,1.8-3.4,1c-0.4-0.2-0.7-0.5-1-0.9c0.1,0.2,0.2,0.4,0.3,0.6
					C274.3,434.8,276.7,434.5,277.2,432.6L277.2,432.6z"/>
			</g>
			<path id="XMLID_00000020381918278985666930000016741892682618601662_" class="st11" d="M268,423c4.9-4,20.9-3.4,23.3-2.8
				c0.4,0.2,0.9,1.1,0.7,2.6c0.5,1,0.5,2.3-0.2,2.7c0,0,0,0,0,0.1c0,0.4-0.3,0.7-0.6,0.6c-2.7-0.1-15.3-1.6-22,2.5
				c-0.3,0.2-0.7,0.1-0.9-0.2c-0.2-0.3-0.3-0.8-0.2-1.6c-0.7-0.6-0.5-2.1-0.3-2.4C267.7,423.8,267.8,423.2,268,423z"/>
			<path class="st9" d="M254.6,530.9c-0.8,6.5-1.7,13.3-2.8,20.1c-0.5,2.9-0.9,5.8-1.5,8.6c6.3,2.4,15.6,5,27,5.6
				c14,0.6,25.2-2.2,32.2-4.5c-0.6-4.5-1.2-9.2-1.9-14c-0.8-4.9-1.6-9.7-2.4-14.3c-4.4,2.3-16.4,8.1-31.8,5.6
				C264.9,536.7,258.5,533.4,254.6,530.9z"/>
			<path class="st12" d="M275.7,461.4c-0.4,0.2-1.1,0.6-1.7,1.2c-1.4,1.6-1.2,3.3-1.8,3.4c-0.8,0.1-2.1-3-2.6-4.7
				c-0.4-1.4-1.1-3.6-1.1-6.6c0.1-1.9,0.4-3.5,0.7-4.5c0.1-0.2,0.3-0.8,0.9-1.3c0.7-0.5,1.5-0.4,1.6-0.4c-0.3,0.5-2,3.2-1.3,6.6
				C271.4,459.5,275.4,461.2,275.7,461.4z"/>
			<path class="st12" d="M283.2,461.4c0.4,0.2,1,0.7,1.6,1.3c1.3,1.7,1,3.3,1.6,3.5c0.8,0.2,2.3-2.8,2.9-4.5
				c0.5-1.3,1.4-3.5,1.5-6.5c0-1.4-0.1-2.6-0.2-3.6c-0.1-0.5-0.2-0.8-0.2-1c-0.1-0.4-0.2-0.8-0.3-1.1c-0.3-0.7-1.3-1-2-1.1
				c0.4,1,0.7,2.2,0.7,3.6C288.7,457.4,283.9,460.9,283.2,461.4z"/>
			<path class="st12" d="M283.2,461.4c-1.5,3.5-3.2,7.1-3.5,10.9c-0.5,5.8-0.4,11.6-0.3,17.4c0,0-0.2-0.2-0.2-0.2
				c1.4,0,2.8-0.1,4.2-0.1c-1.5,0.2-2.9,0.4-4.4,0.6c-0.6-6.9-1.1-13.9,0.4-20.7C280.5,466.5,281.7,463.9,283.2,461.4L283.2,461.4z"
				/>
			<circle class="st12" cx="281.5" cy="471.4" r="0.9"/>
			<circle class="st12" cx="281.2" cy="479.9" r="0.9"/>
			<circle class="st12" cx="281.2" cy="487.1" r="0.9"/>
			<path class="st4" d="M341.9,480.9c-1.3,0.9-3.7,2.5-6.6,4.7c-10.4,7.6-14.4,11.9-18.4,10.7c-0.9-0.3-1.6-1-3.1-2.3
				c-4.2-4-6.7-8.1-8.1-10.9c4.2-2,8.5-4.1,12.7-6.1c1.8,2.5,3.5,5,5.3,7.5c4.4-1.5,8.7-3,13.1-4.5
				C338.5,480.2,340.2,480.5,341.9,480.9z"/>
			<g>
				<path class="st9" d="M305.2,457c0.9,0.3,2.2,0.8,3.6,1.7c3.7,2.3,5.3,5.3,8.5,11.1c1.2,2.1,3.1,5.6,5.8,10.2
					c-4.8,3-9.6,6-14.4,9c-2.3-2.4-4.6-4.8-6.9-7.3C302.9,473.4,304,465.2,305.2,457z"/>
				<path class="st12" d="M324.7,482.1c-4.8,3.3-9.6,6.6-14.4,9.9c-0.3-0.4-0.5-0.9-0.8-1.3c-0.7-1.1-1.5-2.1-2.2-2.9
					c2.2-1.4,4.4-2.9,6.7-4.5c2.9-2,5.6-4.1,8.2-6.1C323,478.8,323.9,480.4,324.7,482.1z"/>
			</g>
		</g>
		<path class="st13" d="M291,499.2c-0.2,0.5-0.7,0.6-1.2,0.8c-0.5,0.2-0.8,0.2-1.3,0.3c-0.9,0.1-1.7,0.3-1.9,0.4
			c-1.1,0.3-1.7,0.7-2.3,1c-0.9,0.5-2.3,0.9-4.4,0.9l-0.4-1c2.7-0.7,3.5-1.5,3.7-2.2c0.1-0.3,0.2-1,0.7-1.8c0.3-0.4,0.5-0.7,0.7-0.8
			c-0.1,0.1-0.2,0.3-0.2,0.5c0,0.5,0.6,0.9,1.1,1.1c1.1,0.4,1.8-0.5,4-0.5c0.8,0,1.3,0.1,1.5,0.4C291.1,498.5,291.1,498.9,291,499.2
			z"/>
		<path class="st4" d="M277.3,495.9c-3.9-0.9-8.2-2.2-12.8-3.9c-3.4-1.3-6.5-2.6-9.4-4c0.1-1.1,0.1-2.2,0.2-3.3
			c-4.2,0.1-8.5,0.2-12.7,0.3c0,4.2,0,8.3,0,12.5c7.9,1.8,16.8,3.3,26.6,4c3.3,0.2,6.4,0.3,9.5,0.4c0.2-0.6,0.3-1.6,0.1-2.8
			C278.5,497.5,277.7,496.4,277.3,495.9z"/>
		<path class="st9" d="M253.1,456.9c-0.9,0.2-2.6,0.6-4.3,1.8c-4.4,3.1-5.3,8.9-6.6,17.8c-0.3,2.2-0.7,5.3-0.9,9.2
			c5.3,0.1,10.5,0.2,15.8,0.3c0.1-6.3,0.2-12.6,0.3-18.8C255.9,463.7,254.5,460.3,253.1,456.9z"/>
		<path class="st12" d="M258,488.6c-5.8-0.1-11.7-0.2-17.5-0.3c0-0.5,0.1-1,0.1-1.6c0-1.3,0-2.5-0.1-3.7c2.6,0.1,5.3,0.2,8.1,0.2
			c3.5,0,6.9-0.1,10.2-0.2C258.5,484.9,258.2,486.8,258,488.6z"/>
	</g>
	<g style="clip-path:url(#SVGID_00000094578100636553035540000006805027124863208345_);">
		<g>
			<g>
				<g>
					<path class="st4" d="M544.2,472.3c0,2.4-0.1,4.9-0.3,7.3c-0.1,1.4-0.3,2.9-0.7,4.2c-0.4,1.4-1.3,2.6-1.8,3.9
						c-0.5,1.2-0.7,2.5-0.9,3.8c-0.1,0.9-0.2,1.8-0.2,2.7h-27.9c0.1-1.7,0.1-3.5-0.4-5.2c-0.4-1.6-1.4-3-1.9-4.6
						c-0.8-2.3-0.8-4.7-1-7.1c-0.3-2.6-0.5-5.1-0.6-7.7c-0.1-1.6,0.2-4.1,0.3-5.7c0-0.5,0-2,0.7-2.3c4.1-0.7,11.1-6.1,11.1-6.1
						c0.3-0.6,0.4-1.4,0.5-2.3c0-0.3,0-0.7,0-1.1c0-0.8,0-1.6-0.1-2.3c1.9,1,4.2,1.3,6.3,1.3c1.9,0,3.8-0.3,5.7-0.9
						c0,0.5-0.1,0.9-0.1,1.4c0,0.4,0,0.7,0,1.1c0.1,1.2,0.3,2.4,0.8,3.3c0.1,0.2,0.3,0.3,0.4,0.4c2.6,1.4,6.7,4.5,10,5.1
						c0.3,0.9,0.2,2.2,0.2,3.2C544.3,467,544.3,470,544.2,472.3z"/>
					<path class="st5" d="M532.8,451.7c0,0.2,0,0.5,0,0.7c-0.4,0.5-1.1,1.2-2,1.8c-1.1,0.8-2.3,1.6-3.9,1.7
						c-1.6,0.1-2.7-0.6-3.6-1.1c-1.1-0.7-1.9-1.4-2.4-2c0-0.2,0-0.5,0-0.7c0-0.8,0-1.6-0.1-2.3c1.9,1,4.2,1.3,6.3,1.3
						c1.9,0,3.8-0.3,5.7-0.9C532.8,450.7,532.8,451.2,532.8,451.7z"/>
					<path class="st4" d="M518.7,441.4c-0.2-0.7,0.2-0.9-0.6-1.2c-0.6-0.3-1.2,0.9-1.3,1.8c-0.1,0.9,0.7,3.9,1.2,4.3
						c0.5,0.4,1.1,0.6,1.3-0.2L518.7,441.4z"/>
					<path class="st4" d="M534.9,438.9c0.4,3.6,0.7,7.3-1.3,10.8c-0.2,0.3-0.8,1.4-1.9,2.5c-1,1-2.4,2.1-4.3,2.5
						c-0.4,0.1-0.8,0.1-1.1,0c-2.9-0.6-5.4-3.4-6.1-4.6c0,0,0,0,0,0c-0.1-0.1-0.2-0.3-0.3-0.5c-0.1-0.2-0.2-0.4-0.2-0.5c0,0,0,0,0,0
						c-0.7-1.9-0.9-7.2-1-10.2c-0.3-4.2,2.3-7.8,6.6-9c0.5-0.2,1-0.2,1.6-0.2h0c0,0,0.1,0,0.1,0c0.5,0,0.9,0.1,6.5,3.4
						C534.9,434,534.6,436,534.9,438.9z"/>
				</g>
				<path class="st4" d="M515.8,598.7c-0.4-2.3-0.9-5.6-1.7-9.7c-0.4-2.2-1-4.9-1.7-8.2c0,0,4.9-4.9,9.2-2.6c3.2,1.7,2.1,8,1,20.7
					c-0.1,1.4-0.2,2.6-0.3,3.4c-1.9,0-3.9,0-5.8,0C516.2,601.5,516,600.3,515.8,598.7z"/>
				<path class="st4" d="M539.4,598.7c0.4-2.3,0.9-5.6,1.7-9.7c0.4-2.2,1-4.9,1.7-8.2c0,0-5-4.9-9.2-2.6c-3,1.7-2.1,8-1,20.7
					c0.1,1.4,0.2,2.6,0.3,3.4c1.9,0,3.9,0,5.8,0C539,601.5,539.2,600.3,539.4,598.7z"/>
				<path class="st6" d="M507.1,521.4c-0.9,12-1.3,22.3-1.4,30.4c-0.3,20.3,0.9,26.5,5.4,30.2c3.8,3.1,8.7,3.4,12.4,3.1
					c1-4.9,1.8-10.2,2.5-15.9c0.7-5.9,1.1-11.5,1.2-16.7c-0.6-9.9-1.2-19.8-1.8-29.7C519.4,522.3,513.2,521.9,507.1,521.4z"/>
				<path class="st6" d="M545.9,520.6c2.5,7.8,8.1,54.2-4.3,64.4c-1.6,2.7-7.9,2.9-9.9,0.7c-1-5.1-1.9-10.3-2.7-15.7
					c-1.1-7-1.9-13.9-2.6-20.4c-0.4-2.7-0.7-5.7-0.9-8.9c-0.3-6.8,0.2-12.9,1-18C528.6,520.5,543.7,519.3,545.9,520.6z"/>
				<g>
					<g>
						<path class="st7" d="M523,556.1c0.5,6.1-3.5,12.4-9.2,14.6C518.1,566.6,521.2,561.7,523,556.1L523,556.1z"/>
					</g>
					<g>
						<path class="st7" d="M523.5,561.3c1.9,5.4-0.2,12.1-4.9,15.4C521.5,572,523.1,566.8,523.5,561.3L523.5,561.3z"/>
					</g>
					<g>
						<path class="st7" d="M530.5,557.4c2.8,4.7,5.9,9,9.3,13.3C534.8,568.1,531.2,562.9,530.5,557.4L530.5,557.4z"/>
					</g>
					<g>
						<path class="st7" d="M529.4,562.6c0.8,2,1.9,4.9,2.9,6.7c0.9,1.9,2.6,4.5,3.8,6.3C531.7,573.1,528.9,567.7,529.4,562.6
							L529.4,562.6z"/>
					</g>
					<g>
						<path class="st7" d="M522.5,550.3c0,4.5-3.2,8.9-7.4,10.2C517.8,557.5,520.5,553.9,522.5,550.3L522.5,550.3z"/>
					</g>
					<g>
						<path class="st7" d="M531.1,551.4c1.1,1.3,2.4,3.1,3.4,4.4c1,1.3,2.4,3,3.3,4.4C534.2,558.9,531.4,555.3,531.1,551.4
							L531.1,551.4z"/>
					</g>
					<path class="st14" d="M532.2,528.9c0.5,1.4,0,3.4-0.1,4.7c-0.1,3,0,6.1,0,9.1c0.1,6.2,0.4,12.3,0.2,18.5c0,0.9,0,1.9-0.3,2.8
						c-1.1,2.9-7.6,4-10-0.3c-0.9-1.7-0.8-4.1-0.8-5.9c0-3.2,0.2-6.4,0.5-9.6c0.5-5.9,1.1-11.8,1.8-17.7c0.3-2.8,3.9-3.7,6.2-3.4
						c0.7,0.1,1.5,0.4,2,0.9C532,528.3,532.1,528.6,532.2,528.9z"/>
				</g>
				<path class="st15" d="M506.3,461.5c9.4-3,12.2-4.4,12.5-5.2c0-0.1,0.3-0.7,0.8-1.1c0.3-0.2,1.1-0.2,1.1-0.2
					c-1.7,4-1.9,7.9,2.9,9.8c0.5,0.2,3.2,4.7,3.4,5.9c0,0,2-5.6,2.6-5.8c5.2-1.9,4.8-6.4,3.6-9.9c0.2,0,0.5,0.1,0.9,0.3
					c0.1,0.1,0.4,0.3,0.7,0.7c0.1,0.2,0.2,0.3,0.2,0.5c4.3,2.1,7.5,3.5,8.8,4c1.1,0.5,2.3,0.9,3.4,1.3c0,0.2,0,0.6,0,1
					c0,5.5-1,8.7-1.9,15.1c-0.6,4.3-1.2,9.3-1.8,19.4c-0.1,1-0.1,2.8,0,5.2c0.2,3.2,0.9,5.5,1,6.4c0.5,4.2,2.8,15,2.8,16.6
					c-5.1,1.8-13.1,3.9-23,3.6c-7.4-0.2-13.5-1.6-17.9-2.9c1.1-8.3,1.9-14,2.2-16c0.1-0.5,0.3-1.9,0.5-3.8c0.1-0.6,0.1-1.2,0.1-1.9
					c0.2-2.6,0.1-4,0.1-8c0-5.9-0.1-5.6,0-7.9c0.2-4.7-1.3-10.7-1.3-10.7C507.2,474.9,506.5,469.9,506.3,461.5z"/>
				<g>
					<path d="M526.7,459.7c-0.5,0-3.4-0.1-5.1-2.3c-0.4-0.5-0.6-1-0.7-1.3c-0.2-0.4-0.2-0.8-0.3-1.1c0,0,0,0,0,0
						c0-0.1-0.1-0.4,0.1-0.6c0,0,0.1-0.1,0.2-0.2c0,0.2,0.1,0.4,0.1,0.7c0,0,0.3,1.2,1,2.2c0.9,1.4,4.7,3.3,7.9,1.6
						c2.3-1.2,3-3.5,3.2-4.1c0,0,0.1,0.2,0.2,0.4c0,0.1,0,0.3,0,0.4c-0.3,0.6-0.9,2.5-3.2,3.7C529.7,459.2,528.4,459.7,526.7,459.7z
						"/>
				</g>
				<g>
					<path d="M518.5,447.3c-0.2,0-0.4-0.5-0.4-1l0.2,0.1c0,0.5,0.1,0.7,0.2,0.7c0.1,0,0.2-0.3,0.2-0.8c0-0.5-0.1-0.8-0.2-0.8
						c0,0,0-0.1,0-0.2c0.2,0,0.4,0.5,0.4,0.9S518.8,447.3,518.5,447.3z"/>
				</g>
				<path class="st4" d="M534.6,441.5c0.2-0.7,0.1-1,0.7-1.2c0.6-0.2,1.2,0.9,1.3,1.8c0.1,0.9-0.7,3.9-1.2,4.3
					c-0.5,0.4-1.1,0.6-1.3-0.2L534.6,441.5z"/>
				<g>
					<path d="M534.9,447.3c0.2,0,0.4-0.5,0.4-1l-0.2,0.1c0,0.5-0.1,0.7-0.2,0.7c-0.1,0-0.2-0.3-0.2-0.8c0-0.5,0.1-0.8,0.2-0.8
						c0,0,0-0.1,0-0.2c-0.2,0-0.4,0.5-0.4,0.9S534.7,447.3,534.9,447.3z"/>
				</g>
				<path d="M534.2,443.2c0.1-0.1,0.2-0.3,0.2-0.4c0.1-0.7,0.2-1.5,0.4-2.2c0.3-0.8,0.6-1.8,0.8-3.1c0.2-1.8,0.3-3.5-0.7-4.8
					c-0.7-1-1.9-0.8-2-0.9c-4.2-7-13-0.7-14,1.7c-0.4,1-0.9,2.7-0.7,4.7c0.1,1,0.3,1.8,0.5,2.4c0.1,0.1,0.2,0.3,0.2,0.5
					c0.3,0.7,0.4,1.4,0.3,1.9c0,0.1,0.1,0.3,0.1,0.4c0-0.3,0.1-0.7,0.1-1.3c0.3-3.2,0.2-4.1,0.9-5c0.2-0.2,0.5-0.6,1.1-0.9
					c4.1,1,11.3-2.1,11.4-1.3c0,0.4,0,1,0.1,1.8c0.2,1,0.5,1.7,0.7,2.1C534.1,439.7,534.4,441,534.2,443.2z"/>
				<g>
					<path class="st10" d="M524.4,449.7c0,0.2,1.2,0.9,2.5,0.9c1.2,0,2.4-0.6,2.4-0.8c0,0-0.1-0.1-1.9-0.2
						C525.4,449.6,524.5,449.5,524.4,449.7z"/>
				</g>
				<g>
					<path class="st10" d="M525.7,447.4c0,0.1,0.5,0.6,1.2,0.6c0.7,0,1.2-0.5,1.2-0.5c0-0.1-0.4,0.2-1.1,0.2
						C526.2,447.7,525.7,447.4,525.7,447.4z"/>
				</g>
				<g>
					<path d="M520.6,441.2c0.2-0.3,0.6-0.6,1-0.9c0,0,0,0,0,0c0.3-0.2,0.6-0.2,0.9-0.2c0.7,0.1,1.5,0.2,2.2,0.2
						c0.1,0.1,0.1,0.2,0.2,0.4c0,0.1,0,0.3,0,0.3c-0.9-0.1-1.7-0.2-2.6-0.3c-0.2,0-0.4,0-0.6,0.1C521.4,441,521,441.1,520.6,441.2z"
						/>
				</g>
				<g>
					<path d="M533,441.2c-0.2-0.3-0.6-0.6-1-0.9c0,0,0,0,0,0c-0.3-0.2-0.6-0.2-0.9-0.2c-0.7,0.1-1.5,0.2-2.2,0.2
						c-0.1,0.1-0.1,0.2-0.2,0.4c0,0.1,0,0.3,0,0.3c0.9-0.1,1.7-0.2,2.6-0.3c0.2,0,0.4,0,0.6,0.1C532.2,441,532.6,441.1,533,441.2z"
						/>
				</g>
				<g>
					<path d="M521.8,605.7c0.3,0.1,0.7,0.3,1,0.8c0.8,1.1,0.4,2.6-0.3,4.8c-0.6,1.8-1.3,3.8-2.1,6.1c-0.4,0.8-1,1.7-2.1,2.2
						c-3,1.4-7.5-1.5-7.8-4.3c-0.1-0.9,0.3-1.7,1.2-3.2c1.2-2.1,2.5-3.5,3.4-4.4C517.3,607,519.5,606.3,521.8,605.7z"/>
					<path class="st4" d="M515.4,605.7c-1.2,3.1-1.9,5.1-3.3,6.9c-0.2,0.3-0.7,0.9-0.8,1.7c0,0.2-0.1,1.2,0.5,1.9
						c0.2,0.2,0.3,0.3,1.3,0.9c1.3,0.8,1.2,0.8,1.5,1c0.7,0.3,1.6,0.8,2.6,0.7c1.5-0.3,2.2-1.9,2.4-2.1c0.2-0.7,0.5-1.4,0.7-2.1
						c0.5-1.5,0.7-2.3,1.2-3.9c0.4-1.4,0.7-2.2,0.7-2.4c0.1-1.2-0.1-1.8-0.2-3.4c0-1,0-1.8,0.1-2.3c-0.9-0.2-2.1-0.4-3.5-0.3
						c-0.9,0-2.2-0.3-2.3,0.3C516.2,603.9,515.7,604.9,515.4,605.7z"/>
					<path d="M511.3,613.2c1.1,0.1,2.5,0.4,4,0.9c2.2,0.8,3.9,1.8,5.1,2.7c0.4-1.2,0.8-2.4,1.2-3.6c-0.6-0.7-1.7-1.8-3.5-2.6
						c-2-0.9-3.8-0.9-4.7-0.9C512.7,610.9,512,612,511.3,613.2z"/>
				</g>
				<g>
					<path d="M533.2,605.4c-0.3,0.1-0.7,0.3-1.1,0.7c-0.9,1-0.5,2.6,0.1,4.9c0.5,1.8,1,3.9,1.8,6.2c0.3,0.8,0.9,1.8,2,2.3
						c2.9,1.6,7.6-1.1,8-3.9c0.1-0.9-0.2-1.7-1-3.2c-1-2.1-2.2-3.6-3.1-4.6C537.6,607,535.4,606.2,533.2,605.4z"/>
					<path class="st4" d="M539.6,605.8c0.5,2,1.4,4.9,2.9,7c0.2,0.3,0.6,0.9,0.7,1.8c0,0.2,0,1.2-0.6,1.9c-0.2,0.2-0.3,0.3-1.3,0.8
						c-1.4,0.8-1.2,0.7-1.6,0.9c-0.7,0.3-1.6,0.7-2.6,0.5c-1.5-0.3-2.1-2-2.2-2.3c-0.2-0.7-0.4-1.4-0.6-2.1c-0.4-1.5-0.6-2.3-1-4
						c-0.4-1.5-0.5-2.2-0.6-2.5c-0.1-1.2,0.2-1.7,0.4-3.4c0.1-1,0.1-1.8,0-2.3c0.7-0.3,1.8-0.7,3.2-0.8c1.1-0.1,2.8-0.6,2.7,0.1
						C538.9,603.4,539.3,604.8,539.6,605.8z"/>
					<path d="M543.2,613.5c-1.1,0.1-2.5,0.3-4.1,0.7c-2.3,0.7-4,1.6-5.3,2.4c-0.3-1.2-0.7-2.5-1-3.7c0.6-0.6,1.8-1.7,3.7-2.4
						c2-0.8,3.8-0.7,4.7-0.6C541.9,611.1,542.6,612.3,543.2,613.5z"/>
				</g>
			</g>
			<g>
				<path d="M528.8,442.8c0,0.1,0.5,0.9,1.5,1c0.7,0.1,1.5-0.3,1.9-1c-0.1,0.2-0.2,0.3-0.3,0.5C531.1,444.5,529.3,444.3,528.8,442.8
					z"/>
			</g>
			<g>
				<path d="M524.8,442.8c-0.5,1-1.6,1.3-2.6,0.8c-0.3-0.2-0.6-0.4-0.8-0.7c0.1,0.2,0.2,0.3,0.3,0.5
					C522.6,444.5,524.4,444.3,524.8,442.8L524.8,442.8z"/>
			</g>
			<path id="XMLID_00000182520446704875178170000004590337964960367001_" class="st11" d="M517.7,435.4c3.8-3.1,16.1-2.6,17.9-2.1
				c0.3,0.1,0.7,0.9,0.5,2c0.4,0.7,0.4,1.7-0.1,2.1c0,0,0,0,0,0.1c0,0.3-0.2,0.5-0.5,0.5c-2.1-0.1-11.8-1.2-16.9,1.9
				c-0.2,0.1-0.5,0.1-0.7-0.2c-0.1-0.3-0.2-0.6-0.2-1.2c-0.5-0.4-0.4-1.6-0.2-1.9C517.5,436,517.6,435.6,517.7,435.4z"/>
			<path class="st15" d="M507.4,518.4c-0.6,5-1.3,10.2-2.1,15.5c-0.4,2.2-0.7,4.5-1.1,6.6c4.8,1.8,12,3.9,20.8,4.3
				c10.7,0.5,19.4-1.7,24.8-3.5c-0.4-3.5-0.9-7.1-1.5-10.7c-0.6-3.8-1.2-7.4-1.9-11c-3.3,1.8-12.7,6.2-24.5,4.3
				C515.3,522.9,510.4,520.3,507.4,518.4z"/>
			<path class="st16" d="M523.7,464.9c-0.3,0.2-0.8,0.5-1.3,0.9c-1.1,1.2-0.9,2.5-1.4,2.6c-0.6,0.1-1.6-2.3-2-3.6
				c-0.3-1.1-0.9-2.8-0.8-5.1c0-1.5,0.3-2.7,0.6-3.5c0-0.1,0.2-0.6,0.7-1c0.6-0.4,1.1-0.3,1.3-0.3c-0.3,0.4-1.6,2.4-1,5.1
				C520.4,463.5,523.4,464.8,523.7,464.9z"/>
			<path class="st16" d="M529.5,464.9c0.3,0.2,0.8,0.5,1.2,1c1,1.3,0.7,2.6,1.2,2.7c0.6,0.2,1.7-2.2,2.3-3.5c0.4-1,1.1-2.7,1.1-5
				c0-1.1-0.1-2-0.2-2.8c-0.1-0.4-0.1-0.6-0.2-0.8c-0.1-0.3-0.2-0.6-0.2-0.8c-0.3-0.6-1-0.8-1.6-0.9c0.3,0.8,0.6,1.7,0.6,2.8
				C533.7,461.9,530,464.5,529.5,464.9z"/>
			<path class="st16" d="M529.5,464.9c-1.1,2.7-2.4,5.4-2.7,8.4c-0.4,4.4-0.3,8.9-0.2,13.4c0,0-0.2-0.2-0.2-0.2
				c1.1,0,2.2-0.1,3.2-0.1c-1.1,0.2-2.3,0.3-3.4,0.4c-0.4-5.3-0.9-10.7,0.3-15.9C527.3,468.9,528.3,466.9,529.5,464.9L529.5,464.9z"
				/>
			<circle class="st16" cx="528.1" cy="472.7" r="0.7"/>
			<circle class="st16" cx="527.9" cy="479.1" r="0.7"/>
			<circle class="st16" cx="527.9" cy="484.7" r="0.7"/>
		</g>
		<path class="st4" d="M524.9,491.5c-3-0.7-6.3-1.7-9.8-3c-2.6-1-5-2-7.2-3c0-0.9,0.1-1.7,0.1-2.6c-3.3,0.1-6.5,0.1-9.8,0.2
			c0,3.2,0,6.4,0,9.6c6.1,1.4,12.9,2.5,20.5,3c2.5,0.2,5,0.3,7.3,0.3c0.1-0.4,0.3-1.2,0.1-2.1C525.8,492.7,525.2,491.8,524.9,491.5z
			"/>
		<path class="st15" d="M506.3,461.5c-0.7,0.1-2,0.5-3.3,1.3c-3.4,2.4-4.1,6.9-5.1,13.7c-0.2,1.7-0.5,4.1-0.7,7.1
			c4,0.1,8.1,0.1,12.1,0.2c0.1-4.8,0.1-9.7,0.2-14.5C508.4,466.7,507.3,464.1,506.3,461.5z"/>
		<path class="st16" d="M510,485.9c-4.5-0.1-9-0.1-13.5-0.2c0-0.4,0.1-0.8,0.1-1.2c0-1,0-1.9-0.1-2.8c2,0.1,4.1,0.1,6.2,0.1
			c2.7,0,5.3,0,7.9-0.1C510.4,483,510.2,484.5,510,485.9z"/>
	</g>
	<g style="clip-path:url(#SVGID_00000094578100636553035540000006805027124863208345_);">
		<g>
			<g>
				<g>
					<path class="st17" d="M609.5,389.6c-27.4,36.9-9.9,234.9-28.9,235.7c-7.7,0.3-17.1,1.6-25.6,1.3c0,0-0.1,0-0.1,0
						c-3.3-0.1-6.4-0.5-9.2-1.2c-1.8-0.5-3.4-1.1-4.9-1.9c-4.7-2.5-7.8-6.9-8.2-14.2c0-0.2,0-0.4,0-0.7c0-0.8,0-1.6,0-2.4
						c1.7-37.3-0.5-68-0.9-75.2c-0.2-4.4-1.4-9.8-3.1-17c-4.2-17.2-9.4-25.4-19.8-49.9c-5.4-12.7-8.1-19.1-9.3-23.5
						c-5.8-20-4.4-37.9-2.3-49.9C526.1,368.6,576.3,384.5,609.5,389.6z"/>
					<g>
						<path class="st18" d="M561.4,624.5c0,0.6-0.1,1.2-0.1,1.8c-2.1,0.1-4.3,0.3-6.4,0.3c0,0-0.1,0-0.1,0c-3.3-0.1-6.4-0.5-9.2-1.2
							c0-0.3,0-0.6,0-0.9c0-5.5,3.5-10,7.9-10C557.9,614.6,561.4,619,561.4,624.5z"/>
						<path class="st18" d="M541.9,620.6c-0.3,1.1-0.7,2-1.2,2.9c-4.7-2.5-7.8-6.9-8.2-14.2c0-0.2,0-0.4,0-0.7
							c1.8,0,3.7,0.1,4.5,0.3C541.2,610.1,543.4,615.3,541.9,620.6z"/>
						<path class="st18" d="M581.5,624.5c-0.1-5.4-3.6-9.8-7.9-9.8c-4.4,0-7.9,4.5-7.9,10c0,0.6,0.1,1.1,0.1,1.7
							c4.6-0.3,9.1-0.8,13.1-0.9C579.8,625.4,580.7,625.1,581.5,624.5z"/>
					</g>
				</g>
				<g>
					<path class="st17" d="M663.7,481.8c0,0,22,46.7,23.1,124.5c-1.2,26.7,29.1,20.5,48.1,19c20.2-1.6-1.7-126.1,25.7-163.1
						C742.7,447,663.7,481.8,663.7,481.8z"/>
					<g>
						<path class="st18" d="M720.2,626.3c0.1-0.6,0.1-1.2,0.1-1.8c0-5.5-3.5-10-7.9-10c-4.4,0-7.9,4.5-7.9,10c0,0.6,0.1,1.2,0.1,1.7
							C709.6,626.8,714.9,626.7,720.2,626.3z"/>
						<path class="st18" d="M696.5,608.9c-3.5-1-6.4,2.8-8.4,6.6c2.1,5.8,6.8,8.7,12.7,10.1c0.7-1,1.2-2.1,1.5-3.4
							C703.7,616.9,700.7,610,696.5,608.9z"/>
						<path class="st18" d="M737.5,624.3c-0.1-5.4-3.6-9.8-7.9-9.8c-4.4,0-7.9,4.5-7.9,10c0,0.6,0.1,1.1,0.1,1.7
							c4.6-0.3,9.1-0.8,13.1-0.9C735.8,625.2,736.7,624.9,737.5,624.3z"/>
					</g>
				</g>
				<g>
					<path class="st19" d="M853.4,430.3c-5.6,39.4-19.4,50.2-25.7,91.3c-2.1,13.8-13,85.8-12.8,94.8c0.1,2.9-1.6,5.8-4.1,7.4
						c-0.8,0.6-1.7,1-2.7,1.2c-3.6,0.8-8.1,1.7-12.8,2.2c-0.9,0.1-1.7,0.2-2.6,0.3c-0.5,0.1-0.9,0.1-1.4,0.1c-0.2,0-0.5,0-0.7,0
						c-1.8,0.1-3.7,0.2-5.5,0.2c0,0,0,0-0.1,0c0,0-0.1,0-0.1,0c0,0,0,0,0,0c-2.7,0-5.3-0.2-7.8-0.6c-1.1-0.2-2.2-0.4-3.3-0.7
						c-4.5-1.2-8.3-3.3-10.9-6.7c-0.8-1-1.4-2.1-1.9-3.1c-1.8-4-1.8-8.1-1.8-10.5c0.1-33.3,0.2-81.9-17.7-110.2
						c-3.6-5.6-7.2-20.2-6.1-35.1c0.3-3.8,3.6-26.8,12.1-39.6c0,0,103.5-54.7,106.7-31.6C855.3,398,855.2,417.8,853.4,430.3z"/>
					<g>
						<path class="st18" d="M792.9,625.8c0,0.6-0.1,1.2-0.1,1.8c0,0,0,0,0,0c-0.5,0-0.9,0.1-1.4,0.1c-0.2,0-0.5,0-0.7,0
							c-1.9,0.1-3.7,0.2-5.5,0.2c0,0,0,0-0.1,0c0,0-0.1,0-0.1,0c0,0,0,0,0,0c-2.7,0-5.3-0.2-7.8-0.6c-0.1-0.5-0.1-1-0.1-1.5
							c0-5.5,3.5-10,7.9-10C789.3,615.9,792.9,620.3,792.9,625.8z"/>
						<path class="st18" d="M774.7,624.3c-0.2,0.8-0.5,1.6-0.9,2.3c-4.5-1.2-8.3-3.3-10.9-6.7c-0.8-1-1.4-2.1-1.9-3.1
							c2.1-3.2,5.5-5,8.7-4.1C774,613.8,776.2,619,774.7,624.3z"/>
						<path class="st18" d="M810.9,623.9c-0.8,0.6-1.7,1-2.7,1.2c-3.6,0.8-8.1,1.7-12.8,2.2c-0.1-0.4-0.1-0.8-0.1-1.3
							c0-5.5,3.5-10,7.9-10C806.9,616.1,810.1,619.4,810.9,623.9z"/>
					</g>
				</g>
				<path class="st19" d="M854.2,393.3c0,91.6-121.3,99.2-121.3,99.2s-41.1,10.6-91.6,7.2c-1.4-0.1-2.9-0.2-4.3-0.3
					c-21.5-1.8-46.3-2.7-66.7-15.1c-45.5-27.6-44.6-53.1-48.2-85c-0.1-0.7-0.2-1.5-0.3-2.2c-0.1-0.9-0.2-1.8-0.3-2.6
					c-4.8-35.4-1.2-65.5,3.5-76c0.3-0.8,0.7-1.4,1-2c0.1-0.1,0.1-0.2,0.2-0.3c0.3-0.4,0.5-0.7,0.8-0.9c0.1-0.1,0.1-0.1,0.2-0.2
					c10.4-8.7,57.8-56.5,57.8-56.5s5.6,4,18.1,8.2c12.4,4.2,31.6,8.6,58.8,9.5c55.6,1.9,75.4,10.4,98.1,12.9
					c20.1,2.3,56.7,11.4,78.4,48.3c5.7,9.7,10.1,20.9,12.4,33.8C851.9,377.8,854.2,385.9,854.2,393.3z"/>
				<path class="st17" d="M609.5,304.9c0,55.5-52.6,83.2-87.4,94.4c-0.1-0.7-0.2-1.5-0.3-2.2c-0.1-0.9-0.2-1.8-0.3-2.6
					c-4.8-35.4-1.2-65.5,3.5-76c0.3-0.8,0.7-1.4,1-2c0.1-0.1,0.1-0.2,0.2-0.3c0.3-0.4,0.5-0.7,0.8-0.9c0.1-0.1,0.1-0.1,0.2-0.2
					c10.4-8.7,57.8-56.5,57.8-56.5s5.6,4,18.1,8.2C607.1,277.9,609.5,290.5,609.5,304.9z"/>
				<g>
					<path class="st19" d="M545.6,464.5c0,0,29.6,35.2,24.4,141.8c-1.3,26.7,29,19.8,48.1,19c7.5-0.3,7.2-11.8,8.6-22.6
						c4.6-37.2-3-44.4,0.2-69.1c2.9-22.4,10.1-24,16.3-59.8c1.8-10.1,2.7-18.6,3.2-24.2C612.7,454.4,579.1,459.4,545.6,464.5z"/>
					<g>
						<path class="st18" d="M603.4,626.3c0.1-0.6,0.1-1.2,0.1-1.8c0-5.5-3.5-10-7.9-10c-4.4,0-7.9,4.5-7.9,10c0,0.6,0.1,1.2,0.1,1.7
							C592.7,626.8,598.1,626.7,603.4,626.3z"/>
						<path class="st18" d="M580.3,610.5c-3.5-1-7.2,1.2-9.2,5c2.1,5.8,6.8,8.7,12.7,10.1c0.7-1,1.2-2.1,1.5-3.4
							C586.7,616.9,584.5,611.7,580.3,610.5z"/>
						<path class="st18" d="M620.6,624.3c-0.1-5.4-3.6-9.8-7.9-9.8c-4.4,0-7.9,4.5-7.9,10c0,0.6,0.1,1.1,0.1,1.7
							c4.6-0.3,9.1-0.8,13.1-0.9C619,625.2,619.8,624.9,620.6,624.3z"/>
					</g>
				</g>
			</g>
		</g>
		<g>
			<path class="st17" d="M415.3,201.5c-21.3,4-31.7,24-41.6,43.2c-5.2,10-18.4,35.7-10.4,62.8c2.5,8.3,5.3,11.2,12.6,23.1
				c30.8,50.1,39,93.5,48.8,91.7c0.7-0.1,1.3-0.3,2.2-1.3c14.3-15.4,27.1-60.6,27.1-60.6l16.4-131.9
				C456.2,209.1,434.8,197.9,415.3,201.5z"/>
			<path class="st20" d="M462,352.2c0.8,4.9-96.9,106.9-105.7,109c2.7-3.9,5.6-8,8.7-12.3c27.9-38.9,69.8-91.8,74.1-103.7
				c1-2.9,2.6-4.6,4.5-5.4C450.4,337,460.9,345.6,462,352.2z"/>
			<path class="st21" d="M455.6,352.2c0.6,3.9-60.8,69-90.6,96.7c27.9-38.9,69.8-91.8,74.1-103.7c1-2.9,2.6-4.6,4.5-5.4
				C449.2,341.7,454.8,347.5,455.6,352.2z"/>
			<g>
				<path class="st19" d="M575.1,297.9c-3.4,46.3-45.3,109.2-86,106.2c-40.4-3-58.3-81.3-61.5-117.1c-3.5-38.4,14.9-82,36.1-84.9
					c14.3-2,22,15.6,43.9,13.6c15.1-1.4,17.8-10.2,30.8-9.5c20.4,1.2,33.9,24,35.4,26.6C588.2,257.8,576.1,285.5,575.1,297.9z"/>
				<path class="st17" d="M497,394.7c-24.3,18-45.7,29.9-60.6,37.4c-46.2,23.2-72.7,25.4-105.9,51.9c-16.8,13.4-28.1,27.3-34.9,36.8
					c1.2,2.9,2.8,8.4,0.3,12.6c-4,6.7-17.2,6.7-24.7,3.7c-3.1-1.2-5.2-2.9-5.4-4.8c-0.5-5.3,9-11.3,9-11.3c0.3-1,0.9-2.7,1.6-4.7
					c22.2-60.4,88.5-72.1,133.6-109.6c21.7-18,47.2-49.3,61.7-107.1c0.7-2.7,1.3-5.4,1.9-8.2C481.3,325.9,489.1,360.3,497,394.7z"/>
				<path class="st19" d="M497,390.8c-3.5,2.6-7,5.1-10.6,7.6l-2,1.4c-14.3,9.8-28.3,18.3-39.7,24.6l-2.1,1.2
					c-3.8,2.1-7.3,3.9-10.4,5.5c-7.7,3.9-14.9,7.2-21.7,10.1c-0.8,0.3-1.5,0.7-2.3,1c-10.2,4.3-19.4,7.8-28.1,11.3l-2.3,0.9h0
					c-7.8,3.1-15.1,6.2-22.4,9.9c-0.7,0.4-1.5,0.8-2.2,1.1c-5.1,2.6-10.1,5.6-15.3,9c-0.7,0.5-1.5,1-2.2,1.5
					c-3.1,2.2-6.3,4.5-9.5,7.1c-2.4,1.9-4.7,3.9-6.9,5.8c-0.7,0.6-1.4,1.2-2,1.8c-5.1,4.6-9.6,9.2-13.4,13.5
					c-0.6,0.6-1.1,1.3-1.7,1.9c-4.5,5.1-8.1,9.8-10.9,13.7c1.2,2.9,2.8,8.4,0.3,12.6c-3.4,5.6-13.1,6.5-20.6,4.9
					c-3.1-1.2-5.2-2.9-5.4-4.8c-0.5-5.3,9-11.3,9-11.3c0.3-1,0.9-2.7,1.6-4.7c1.5-4.1,3.2-8,5.1-11.7c0.4-0.9,0.9-1.7,1.4-2.6
					c2.2-4,4.6-7.7,7.3-11.3c0.8-1.1,1.6-2.1,2.5-3.2c4.6-5.7,9.7-10.9,15.1-15.6c1.1-1,2.3-1.9,3.4-2.9c4.7-3.8,9.6-7.4,14.7-10.7
					c0,0,0,0,0,0c1.8-1.2,3.5-2.3,5.3-3.4c0,0,0,0,0,0c1.7-1.1,3.4-2.1,5.1-3.1c0.3-0.2,0.6-0.4,0.9-0.6c5.2-3.1,10.5-6.1,15.9-9
					c0,0,0,0,0,0h0c1.4-0.8,2.7-1.5,4.1-2.2h0c1.1-0.6,2.2-1.2,3.3-1.8c0.2-0.1,0.5-0.3,0.7-0.4c0,0,0,0,0,0c5.4-3,10.9-6,16.2-9.1
					c1.5-0.8,2.9-1.7,4.4-2.6c8-4.8,15.8-9.8,23.2-15.5c0,0,0,0,0,0c1.2-0.9,2.3-1.8,3.4-2.7l0,0c0.5-0.4,0.9-0.8,1.4-1.1
					c5.5-4.6,11.3-10.6,17.3-18.1c0.9-1.1,1.8-2.3,2.7-3.5c4.6-6,9.1-12.8,13.6-20.4v0c0.6-1.1,1.3-2.2,1.9-3.4
					c11.2-19.7,21.5-44.2,28.5-72.4c5.3,23.3,11.5,51,17.3,76.6v0l0.7,3C493.7,376.2,495.4,383.7,497,390.8z"/>
				<g>
					<g>
						<path class="st17" d="M304,504c-0.6,0.6-1.1,1.3-1.7,1.9c-8.6-2.3-15.8-2.1-20.9-1.2c0.4-0.9,0.9-1.7,1.4-2.6
							C288.2,501.4,295.4,501.5,304,504z"/>
					</g>
					<g>
						<path class="st17" d="M319.5,488.6c-0.7,0.6-1.4,1.2-2,1.8c-13.3-3.5-23.1-1.2-27.4,0.4c0.8-1.1,1.6-2.1,2.5-3.2
							C298.2,486.1,307.5,485.1,319.5,488.6z"/>
					</g>
					<g>
						<path class="st17" d="M338.1,474.2c-0.7,0.5-1.5,1-2.2,1.5c-12-5.5-21.7-5.2-28.3-3.7c1.1-1,2.3-1.9,3.4-2.9
							C318,468.3,327.3,469,338.1,474.2z"/>
					</g>
					<g>
						<path class="st17" d="M355.6,464c-0.7,0.4-1.5,0.8-2.2,1.1c-7.2-5.6-14.2-8.3-21-8c-2.4,0.1-4.6,0.6-6.5,1.2
							c1.8-1.2,3.5-2.3,5.3-3.4c0,0,0,0,0,0c0.3,0,0.7,0,1-0.1C339.9,454.6,347.7,457.7,355.6,464z"/>
					</g>
					<g>
						<path class="st22" d="M336.3,451.8c0.3-0.2,0.6-0.4,0.9-0.6c-0.4,0.5-0.6,0.8-0.6,0.8L336.3,451.8z"/>
						<path class="st17" d="M380.2,453.3l-2.3,0.9h0c-8.1-8.3-16-12.3-23.7-12c-0.4,0-0.7,0-1.1,0.1c1.4-0.8,2.7-1.5,4.1-2.2h0
							C364.8,440.7,372.5,445.1,380.2,453.3z"/>
					</g>
					<g>
						<path class="st22" d="M360.5,438.2l0.7-0.4c0,0,0,0,0,0c0,0,0,0,0,0c-0.3,0.3-0.5,0.6-0.5,0.6L360.5,438.2z"/>
						<path class="st17" d="M410.5,441c-0.8,0.3-1.5,0.7-2.3,1c-9.6-9.4-19-13.9-28.1-13.6c-0.9,0-1.9,0.1-2.7,0.3
							c-0.1,0-0.2,0-0.2,0l4.6-2.6C391.2,426.3,400.9,431.3,410.5,441z"/>
					</g>
					<g>
						<path class="st17" d="M444.7,424.3l-2.1,1.2c-11.4-10.6-22.7-15.7-33.5-15.3c-1.4,0.1-2.8,0.2-4.1,0.4
							c1.2-0.9,2.3-1.8,3.4-2.7l0,0c0.2,0,0.4,0,0.5,0C420.6,407.4,432.6,412.9,444.7,424.3z"/>
					</g>
					<g>
						<path class="st17" d="M486.4,398.3l-2,1.4c-16.3-12.1-32.8-16.9-47.9-14c-3.6,0.7-6.7,1.8-9.4,3c0.9-1.1,1.8-2.3,2.7-3.5
							c1.9-0.7,4-1.2,6.2-1.7C447.4,381.3,465,382.2,486.4,398.3z"/>
					</g>
					<g>
						<path class="st17" d="M491.9,368.6c-12.9-7.2-25.7-9.7-37.6-7.4c-4.3,0.8-7.9,2.2-10.9,3.6c0.6-1.1,1.3-2.2,1.9-3.4
							c2.5-1,5.3-1.9,8.4-2.5c8.9-1.8,21.8-1.6,37.5,6.6v0L491.9,368.6z"/>
					</g>
				</g>
			</g>
			<path class="st17" d="M619.5,212c-7.6-2.1-16-1-16-1c-4.4,0.5-8.1,1.7-11.7,3.4c-4.9,2.2-8.1,4.3-11.1,6.2
				c-4.3,2.7-10.7,6.3-19.3,9.8c5.8,11.4,12.4,28.2,13.7,49c3.7,56.2-33.2,96-41.3,104.2c13.7,9.9,29.6,23.1,45.4,40.5
				c11.8,13,21.3,25.6,28.8,37c-1.2-5.6-2.5-13.2-3.4-22.3c0,0-1.3-12.8-1.1-25c0.5-28,36.7-58.9,47.4-99.2
				C665.3,260.3,626.9,214,619.5,212z"/>
		</g>
		<g>
			<path class="st23" d="M509.2,301.4c0,6.8-2.7,12.3-6.1,12.3c-3.4,0-6.1-5.5-6.1-12.3c0-6.8,2.7-12.3,6.1-12.3
				C506.5,289,509.2,294.5,509.2,301.4z"/>
			<path class="st6" d="M511.4,292.4c0,2.8-2.3,5.1-5.1,5.1c-2.8,0-5.1-2.3-5.1-5.1c0-2.8,2.3-5.1,5.1-5.1
				C509.1,287.2,511.4,289.5,511.4,292.4z"/>
		</g>
		<g>
			<path class="st23" d="M444.4,293.3c0,6.8-2.7,12.3-6.1,12.3c-3.4,0-6.1-5.5-6.1-12.3c0-6.8,2.7-12.3,6.1-12.3
				C441.6,281,444.4,286.5,444.4,293.3z"/>
			<path class="st6" d="M446.5,284.4c0,2.8-2.3,5.1-5.1,5.1c-2.8,0-5.1-2.3-5.1-5.1c0-2.8,2.3-5.1,5.1-5.1
				C444.2,279.2,446.5,281.5,446.5,284.4z"/>
		</g>
		<path class="st17" d="M739.5,491.7c0,0-3.6,1-7.6,1c-1.8-13.6-2.3-26.5-1.2-36.3c0.8-7.8,1.9-19.9,10.3-32.7
			C741,423.8,727.1,463.2,739.5,491.7z"/>
		<path class="st24" d="M641.3,499.6c-1.4-0.1-2.9-0.2-4.3-0.3c1.9-5.2,6.6-18.4,8.2-25.4c3.4-15.3,0.6-25.4,0.5-25.8
			C646,448.7,654.4,463.5,641.3,499.6z"/>
	</g>
	<path style="clip-path:url(#SVGID_00000094578100636553035540000006805027124863208345_);fill:#AFABAC;" d="M518.3,379.1
		c0,5.8-8.1,7.9-15.2,7.9s-12.9-4.7-12.9-10.6c0-5.8,5.8-10.6,12.9-10.6S518.3,373.2,518.3,379.1z"/>
	<path style="clip-path:url(#SVGID_00000094578100636553035540000006805027124863208345_);fill:#DCD3C4;" d="M516.2,380.2
		c1,4.8-92.4,110.8-101.1,113.3c2.2-3.5,4.6-7.2,7.1-11c26.3-40.1,67.1-96.1,70.9-108.3c1-3.3,2.8-5.1,5-5.8
		C504.8,366,514.9,373.8,516.2,380.2z"/>
	<path style="clip-path:url(#SVGID_00000094578100636553035540000006805027124863208345_);fill:#F7F4F0;" d="M510.7,380.2
		c0.8,3.9-60.7,74.6-88.4,102.3c26.3-40.1,67.1-96.1,70.9-108.3c1-3.3,2.8-5.1,5-5.8C503.8,369.9,509.7,375.4,510.7,380.2z"/>
	<g style="clip-path:url(#SVGID_00000094578100636553035540000006805027124863208345_);">
		<g>
			<g>
				<path class="st4" d="M815.5,460.4c-0.1,3.2-0.1,6.3-0.4,9.5c-0.2,1.9-0.4,3.7-0.9,5.5c-0.6,1.8-1.7,3.3-2.3,5.1
					c-0.6,1.6-1,3.2-1.2,4.9c-0.1,1.2-0.2,2.4-0.2,3.6h-36.3c0.1-2.3,0.1-4.5-0.5-6.8c-0.5-2.1-1.8-4-2.5-6c-1.1-3-1-6.1-1.3-9.3
					c-0.3-3.3-0.6-6.6-0.8-10c-0.1-2.1,0.2-5.3,0.3-7.4c0-0.7,0-2.6,0.9-2.9c5.3-1,14.4-7.9,14.4-7.9c0.3-0.8,0.5-1.9,0.6-3
					c0-0.5,0-0.9,0-1.4c0-1-0.1-2-0.1-2.9c2.4,1.3,5.5,1.7,8.2,1.7c2.5,0,5-0.3,7.4-1.1c0,0.6-0.1,1.2-0.1,1.9c0,0.5,0,1,0,1.4
					c0.1,1.6,0.3,3.1,1,4.3c0.2,0.2,0.3,0.4,0.5,0.5c3.3,1.8,8.7,5.8,13,6.6c0.5,1.2,0.2,2.9,0.2,4.1
					C815.6,453.5,815.6,457.4,815.5,460.4z"/>
				<path class="st5" d="M800.7,433.7c0,0.3,0,0.6,0,0.9c-0.5,0.6-1.4,1.5-2.6,2.4c-1.4,1-2.9,2.1-5,2.2c-2,0.1-3.6-0.8-4.7-1.5
					c-1.5-0.9-2.5-1.9-3.1-2.6c0-0.3,0-0.6,0-1c0-1,0-2-0.1-2.9c2.4,1.3,5.5,1.7,8.2,1.7c2.5,0,5-0.3,7.4-1.1
					C800.7,432.4,800.7,433,800.7,433.7z"/>
				<path class="st4" d="M782.4,420.3c-0.2-0.9,0.3-1.2-0.7-1.6c-0.8-0.3-1.5,1.2-1.7,2.3c-0.2,1.1,1,5,1.6,5.6
					c0.6,0.5,1.5,0.7,1.7-0.2L782.4,420.3z"/>
				<path class="st4" d="M803.4,417.1c0.5,4.7,0.9,9.5-1.7,14c-0.2,0.4-1,1.8-2.5,3.3c-1.3,1.2-3.1,2.7-5.6,3.2
					c-0.5,0.1-1,0.1-1.5,0c-3.8-0.8-7-4.4-7.9-6c0,0,0,0,0,0c-0.1-0.2-0.2-0.4-0.4-0.6c-0.1-0.2-0.2-0.5-0.3-0.7c0,0,0,0,0,0
					c-0.9-2.4-1.1-9.3-1.3-13.3c-0.4-5.4,3-10.1,8.5-11.8c0.7-0.2,1.4-0.3,2.1-0.3h0c0.1,0,0.1,0,0.2,0c0.6,0,1.2,0.1,8.4,4.5
					C803.4,410.7,803,413.3,803.4,417.1z"/>
			</g>
			<path class="st4" d="M778.5,624.8c-0.5-3-1.2-7.3-2.2-12.6c-0.5-2.8-1.3-6.4-2.2-10.6c0,0,6.4-6.3,11.9-3.3
				c4.1,2.2,2.8,10.4,1.2,26.9c-0.2,1.8-0.3,3.3-0.4,4.5c-2.5,0-5,0-7.5,0C779.1,628.4,778.8,626.8,778.5,624.8z"/>
			<path class="st4" d="M809.2,624.8c0.5-3,1.2-7.3,2.2-12.6c0.5-2.8,1.3-6.4,2.2-10.6c0,0-6.4-6.4-11.9-3.3
				c-3.9,2.2-2.8,10.4-1.2,26.9c0.2,1.8,0.3,3.3,0.4,4.5c2.5,0,5,0,7.5,0C808.7,628.4,808.9,626.8,809.2,624.8z"/>
			<path class="st6" d="M767.3,524.2c-1.2,15.6-1.6,29-1.8,39.5c-0.4,26.4,1.1,34.5,7,39.2c4.9,4,11.3,4.4,16.2,4.1
				c1.3-6.4,2.4-13.3,3.2-20.7c0.9-7.7,1.4-15,1.6-21.7c-0.8-12.9-1.6-25.8-2.3-38.6C783.2,525.4,775.3,524.8,767.3,524.2z"/>
			<path class="st6" d="M817.7,523.2c3.3,10.2,10.5,70.5-5.6,83.7c-2.1,3.5-10.3,3.8-12.9,0.9c-1.2-6.6-2.4-13.4-3.5-20.4
				c-1.4-9.1-2.5-18-3.4-26.5c-0.5-3.6-1-7.4-1.2-11.6c-0.4-8.9,0.3-16.8,1.3-23.4C795.3,523,814.9,521.5,817.7,523.2z"/>
			<g>
				<g>
					<path class="st7" d="M787.9,569.4c0.6,7.9-4.5,16.1-12,19C781.5,583,785.6,576.7,787.9,569.4L787.9,569.4z"/>
				</g>
				<g>
					<path class="st7" d="M788.6,576.1c2.5,7.1-0.3,15.7-6.4,20.1C785.9,590,788.1,583.3,788.6,576.1L788.6,576.1z"/>
				</g>
				<g>
					<path class="st7" d="M797.6,571.1c3.7,6.1,7.7,11.7,12.1,17.3C803.3,585,798.6,578.2,797.6,571.1L797.6,571.1z"/>
				</g>
				<g>
					<path class="st7" d="M796.3,577.8c1,2.6,2.5,6.3,3.8,8.8c1.2,2.5,3.4,5.9,4.9,8.2C799.2,591.5,795.6,584.5,796.3,577.8
						L796.3,577.8z"/>
				</g>
				<g>
					<path class="st7" d="M787.3,561.8c0,5.8-4.1,11.5-9.6,13.3C781.3,571,784.6,566.6,787.3,561.8L787.3,561.8z"/>
				</g>
				<g>
					<path class="st7" d="M798.5,563.3c1.4,1.7,3.1,4,4.4,5.7c1.3,1.7,3.1,3.9,4.3,5.8C802.5,573,798.9,568.3,798.5,563.3
						L798.5,563.3z"/>
				</g>
				<path class="st8" d="M799.9,534c0.6,1.9,0,4.4-0.1,6.2c-0.1,4,0,7.9,0.1,11.9c0.1,8,0.6,16,0.3,24c0,1.1,0,2.5-0.4,3.6
					c-1.4,3.8-9.9,5.1-13-0.4c-1.2-2.2-1-5.3-1-7.7c0-4.2,0.3-8.4,0.7-12.5c0.7-7.7,1.4-15.3,2.3-23c0.4-3.6,5-4.8,8.1-4.4
					c0.9,0.1,1.9,0.5,2.6,1.2C799.6,533.2,799.8,533.6,799.9,534z"/>
			</g>
			<path class="st28" d="M766.2,446.4c12.2-3.9,15.9-5.8,16.2-6.7c0.1-0.2,0.4-1,1.1-1.4c0.4-0.2,1.4-0.3,1.4-0.3
				c-2.2,5.1-2.4,10.2,3.7,12.7c0.7,0.3,4.2,6.1,4.4,7.6c0,0,2.6-7.3,3.3-7.6c6.7-2.4,6.2-8.3,4.7-12.9c0.2,0,0.7,0.1,1.2,0.4
				c0.2,0.1,0.5,0.4,0.8,0.9c0.1,0.2,0.2,0.4,0.3,0.6c5.6,2.7,9.8,4.6,11.4,5.2c1.5,0.6,3,1.2,4.4,1.8c0,0.3,0,0.7,0,1.3
				c0.1,7.1-1.3,11.3-2.5,19.7c-0.8,5.6-1.6,12.1-2.3,25.2c-0.1,1.2-0.2,3.7,0,6.8c0.3,4.2,1.2,7.2,1.3,8.3
				c0.7,5.5,3.6,19.5,3.7,21.6c-6.7,2.3-17,5-29.9,4.7c-9.6-0.2-17.5-2-23.3-3.8c1.4-10.8,2.4-18.2,2.8-20.8c0.1-0.6,0.4-2.4,0.6-5
				c0.1-0.8,0.1-1.6,0.2-2.5c0.2-3.4,0.1-5.2,0.1-10.4c-0.1-7.7-0.1-7.3,0-10.3c0.3-6.1-1.7-13.9-1.7-13.9
				C767.5,463.8,766.4,457.4,766.2,446.4z"/>
			<g>
				<path d="M792.8,444c-0.6,0-4.5-0.1-6.6-3c-0.5-0.7-0.8-1.3-0.9-1.8c-0.2-0.6-0.3-1.1-0.4-1.4c0,0,0,0,0,0c0-0.1-0.1-0.5,0.1-0.8
					c0-0.1,0.1-0.2,0.2-0.2c0,0.2,0.1,0.5,0.2,0.9c0,0,0.4,1.6,1.3,2.9c1.2,1.8,6.1,4.2,10.3,2.1c2.9-1.5,3.9-4.5,4.1-5.3
					c0.1,0,0.2,0.3,0.2,0.5c0.1,0.1,0,0.4,0,0.5c-0.3,0.8-1.2,3.3-4.2,4.8C796.6,443.4,795,444.1,792.8,444z"/>
			</g>
			<g>
				<path d="M782.1,428c-0.3,0-0.5-0.7-0.5-1.2l0.2,0.1c0,0.6,0.2,0.9,0.2,0.9c0.1,0,0.3-0.3,0.3-1c0-0.6-0.2-1-0.3-1
					c-0.1-0.1-0.1-0.1,0-0.2c0.3,0,0.5,0.6,0.5,1.2C782.6,427.3,782.5,428,782.1,428z"/>
			</g>
			<path class="st4" d="M803,420.3c0.2-0.9,0.1-1.3,0.9-1.6c0.8-0.3,1.5,1.2,1.7,2.3c0.2,1.1-1,5-1.6,5.6c-0.6,0.5-1.5,0.7-1.7-0.2
				L803,420.3z"/>
			<g>
				<path d="M803.5,428c0.3,0,0.5-0.7,0.5-1.2l-0.2,0.1c0,0.6-0.2,0.9-0.2,0.9c-0.1,0-0.3-0.3-0.3-1c0-0.6,0.2-1,0.3-1
					c0.1-0.1,0.1-0.1,0-0.2c-0.3,0-0.5,0.6-0.5,1.2C803,427.3,803.1,428,803.5,428z"/>
			</g>
			<path d="M802.5,422.6c0.1-0.2,0.2-0.4,0.3-0.5c0.2-1,0.3-1.9,0.5-2.9c0.4-1,0.8-2.4,1-4c0.3-2.3,0.4-4.6-0.9-6.3
				c-1-1.3-2.4-1.1-2.6-1.2c-5.5-9-16.9-0.9-18.2,2.2c-0.5,1.3-1.1,3.5-0.9,6.2c0.1,1.2,0.4,2.3,0.7,3.2c0.1,0.2,0.2,0.4,0.3,0.6
				c0.4,1,0.5,1.9,0.4,2.5c0.1,0.2,0.1,0.4,0.2,0.6c0-0.3,0.1-0.9,0.1-1.7c0.3-4.1,0.2-5.4,1.2-6.5c0.2-0.3,0.7-0.7,1.4-1.1
				c5.3,1.3,14.6-2.8,14.9-1.7c0,0.5-0.1,1.3,0.1,2.3c0.2,1.3,0.7,2.3,0.9,2.7C802.3,418,802.8,419.8,802.5,422.6z"/>
			<g>
				<path class="st10" d="M789.8,431.1c-0.1,0.3,1.5,1.1,3.3,1.1c1.6,0,3.1-0.7,3.1-1c0-0.1-0.1-0.2-2.5-0.2
					C791.1,430.9,789.8,430.8,789.8,431.1z"/>
			</g>
			<g>
				<path class="st10" d="M791.5,428.1c0,0.1,0.7,0.8,1.6,0.8c0.8,0,1.5-0.6,1.5-0.7c0-0.1-0.6,0.2-1.5,0.3
					C792.1,428.4,791.5,428,791.5,428.1z"/>
			</g>
			<g>
				<path d="M784.9,420c0.3-0.4,0.8-0.8,1.4-1.2c0,0,0,0,0,0c0.3-0.2,0.7-0.3,1.1-0.2c1,0.1,1.9,0.2,2.9,0.3
					c0.1,0.1,0.2,0.3,0.2,0.5c0,0.2,0,0.3,0,0.4c-1.1-0.1-2.2-0.2-3.3-0.4c-0.2,0-0.5,0-0.7,0.1C785.9,419.7,785.4,419.9,784.9,420z
					"/>
			</g>
			<g>
				<path d="M801,420c-0.3-0.4-0.8-0.8-1.4-1.2c0,0,0,0,0,0c-0.3-0.2-0.7-0.3-1.1-0.2c-1,0.1-1.9,0.2-2.9,0.3
					c-0.1,0.1-0.2,0.3-0.2,0.5c0,0.2,0,0.3,0,0.4c1.1-0.1,2.2-0.2,3.3-0.4c0.2,0,0.5,0,0.7,0.1C800,419.7,800.5,419.9,801,420z"/>
			</g>
			<g>
				<path d="M786.3,633.8c0.4,0.2,0.9,0.5,1.3,1c1,1.4,0.5,3.4-0.5,6.3c-0.7,2.3-1.6,5-2.7,7.9c-0.5,1-1.3,2.3-2.7,2.9
					c-3.9,1.8-9.8-2-10.1-5.6c-0.1-1.2,0.4-2.2,1.5-4.1c1.5-2.7,3.2-4.6,4.4-5.8C780.5,635.5,783.4,634.7,786.3,633.8z"/>
				<path class="st4" d="M778,633.8c-1.5,4-2.5,6.7-4.2,8.9c-0.3,0.4-0.9,1.2-1,2.2c0,0.2-0.1,1.5,0.7,2.5c0.3,0.3,0.4,0.4,1.7,1.2
					c1.7,1.1,1.5,1,1.9,1.3c0.8,0.4,2.1,1.1,3.4,0.9c1.9-0.3,2.9-2.5,3.1-2.8c0.3-0.9,0.6-1.8,0.9-2.7c0.6-1.9,0.9-3,1.6-5.1
					c0.6-1.9,0.9-2.8,0.9-3.2c0.2-1.6-0.2-2.3-0.2-4.4c0-1.3,0-2.3,0.1-3c-1.1-0.3-2.7-0.5-4.5-0.5c-1.2,0.1-2.9-0.4-3,0.5
					C779.1,631.5,778.4,632.8,778,633.8z"/>
				<path d="M772.7,643.6c1.5,0.2,3.3,0.5,5.3,1.2c2.9,1,5.1,2.4,6.6,3.5c0.5-1.6,1-3.1,1.6-4.7c-0.7-0.9-2.2-2.4-4.6-3.4
					c-2.6-1.2-4.9-1.2-6.1-1.1C774.6,640.6,773.7,642.1,772.7,643.6z"/>
			</g>
			<g>
				<path d="M801.2,633.4c-0.4,0.1-1,0.4-1.4,0.9c-1.1,1.3-0.7,3.4,0.1,6.3c0.6,2.3,1.4,5.1,2.3,8.1c0.4,1.1,1.2,2.3,2.6,3
					c3.8,2,9.9-1.4,10.4-5c0.2-1.1-0.3-2.2-1.3-4.2c-1.3-2.8-2.9-4.7-4-6C806.9,635.5,804.1,634.5,801.2,633.4z"/>
				<path class="st4" d="M809.5,633.9c0.7,2.6,1.8,6.3,3.7,9.1c0.3,0.4,0.8,1.2,0.9,2.3c0,0.2,0,1.5-0.8,2.5
					c-0.3,0.3-0.4,0.4-1.7,1.1c-1.8,1-1.6,1-2,1.2c-0.9,0.4-2.1,1-3.4,0.7c-1.9-0.5-2.8-2.6-2.9-3c-0.2-0.9-0.5-1.9-0.7-2.8
					c-0.5-1.9-0.8-3-1.3-5.2c-0.5-1.9-0.7-2.9-0.7-3.2c-0.1-1.6,0.3-2.3,0.5-4.4c0.1-1.3,0.1-2.3,0-3c1-0.4,2.4-0.9,4.2-1.1
					c1.4-0.1,3.6-0.8,3.6,0.2C808.6,630.8,809.1,632.7,809.5,633.9z"/>
				<path d="M814.2,644c-1.5,0.1-3.3,0.3-5.3,0.9c-3,0.8-5.2,2.1-6.8,3.1c-0.4-1.6-0.9-3.2-1.3-4.8c0.8-0.8,2.4-2.2,4.7-3.2
					c2.7-1,5-0.9,6.1-0.8C812.5,640.9,813.4,642.4,814.2,644z"/>
			</g>
		</g>
		<g>
			<path d="M795.5,422.1c0.1,0.1,0.7,1.2,2,1.3c1,0.1,1.9-0.4,2.4-1.3c-0.1,0.2-0.2,0.4-0.3,0.6C798.4,424.2,796.1,424,795.5,422.1z
				"/>
		</g>
		<g>
			<path d="M790.3,422c-0.7,1.3-2.1,1.8-3.4,1c-0.4-0.2-0.7-0.5-1-0.9c0.1,0.2,0.2,0.4,0.3,0.6C787.4,424.3,789.8,424,790.3,422
				L790.3,422z"/>
		</g>
		<path id="XMLID_00000122702684863859505670000001914196837667201202_" class="st29" d="M781.1,412.5c4.9-4,20.9-3.4,23.3-2.8
			c0.4,0.2,0.9,1.1,0.7,2.6c0.5,1,0.5,2.3-0.2,2.7c0,0,0,0,0,0.1c0,0.4-0.3,0.7-0.6,0.6c-2.7-0.1-15.3-1.6-22,2.5
			c-0.3,0.2-0.7,0.1-0.9-0.2c-0.2-0.3-0.3-0.8-0.2-1.6c-0.7-0.6-0.5-2.1-0.3-2.4C780.8,413.3,780.9,412.7,781.1,412.5z"/>
		<path class="st29" d="M814.1,444.6c-0.3-2.6-2.6-2.8-3.3-2.5c-0.7-1.2-1.9-1.8-3.2-1.3c-0.2-0.9-2.3-1.5-2.9-1.1
			c0.1,4.1-0.5,44.1-5.6,58.8c-0.3,1.3,9.6,5.5,13.2,3C812.8,499.6,816.8,456.1,814.1,444.6z"/>
		<path class="st28" d="M767.7,520.4c-0.8,6.5-1.7,13.3-2.8,20.1c-0.5,2.9-0.9,5.8-1.5,8.6c6.3,2.4,15.6,5,27,5.6
			c14,0.6,25.2-2.2,32.2-4.5c-0.6-4.5-1.2-9.2-1.9-14c-0.8-4.9-1.6-9.7-2.4-14.3c-4.4,2.3-16.4,8.1-31.8,5.6
			C778,526.2,771.6,522.8,767.7,520.4z"/>
		<path class="st11" d="M788.8,450.8c-0.4,0.2-1.1,0.6-1.7,1.2c-1.4,1.6-1.2,3.3-1.8,3.4c-0.8,0.1-2.1-3-2.6-4.7
			c-0.4-1.4-1.1-3.6-1.1-6.6c0.1-1.9,0.4-3.5,0.7-4.5c0.1-0.2,0.3-0.8,0.9-1.3c0.7-0.5,1.5-0.4,1.6-0.4c-0.3,0.5-2,3.2-1.3,6.6
			C784.5,448.9,788.5,450.7,788.8,450.8z"/>
		<path class="st11" d="M796.3,450.8c0.4,0.2,1,0.7,1.6,1.3c1.3,1.7,1,3.3,1.6,3.5c0.8,0.2,2.3-2.8,2.9-4.5c0.5-1.3,1.4-3.5,1.5-6.5
			c0-1.4-0.1-2.6-0.2-3.6c-0.1-0.5-0.2-0.8-0.2-1c-0.1-0.4-0.2-0.8-0.3-1.1c-0.3-0.7-1.3-1-2-1.1c0.4,1,0.7,2.2,0.7,3.6
			C801.8,446.9,797,450.3,796.3,450.8z"/>
		<g>
			<path class="st11" d="M796.3,450.8c-1.5,3.5-3.2,7.1-3.5,10.9c-0.5,5.8-0.4,11.6-0.3,17.4c0,0-0.2-0.2-0.2-0.2
				c1.4,0,2.8-0.1,4.2-0.1c-1.5,0.2-2.9,0.4-4.4,0.6c-0.6-6.9-1.1-13.9,0.4-20.7C793.6,456,794.8,453.4,796.3,450.8L796.3,450.8z"/>
		</g>
		<circle class="st11" cx="794.6" cy="460.9" r="0.9"/>
		<circle class="st11" cx="794.3" cy="469.3" r="0.9"/>
		<circle class="st11" cx="794.3" cy="476.6" r="0.9"/>
		<path class="st4" d="M855,470.3c-1.3,0.9-3.7,2.5-6.6,4.7c-10.4,7.6-14.4,11.9-18.4,10.7c-0.9-0.3-1.6-1-3.1-2.3
			c-4.2-4-6.7-8.1-8.1-10.9c4.2-2,8.5-4.1,12.7-6.1c1.8,2.5,3.5,5,5.3,7.5c4.4-1.5,8.7-3,13.1-4.5C851.6,469.6,853.3,470,855,470.3z
			"/>
		<g>
			<path class="st28" d="M818.3,446.4c0.9,0.3,2.2,0.8,3.6,1.7c3.7,2.3,5.3,5.3,8.5,11.1c1.2,2.1,3.1,5.6,5.8,10.2
				c-4.8,3-9.6,6-14.4,9c-2.3-2.4-4.6-4.8-6.9-7.3C816,462.8,817.2,454.6,818.3,446.4z"/>
			<path class="st11" d="M837.9,471.6c-4.8,3.3-9.6,6.6-14.4,9.9c-0.3-0.4-0.5-0.9-0.8-1.3c-0.7-1.1-1.5-2.1-2.2-2.9
				c2.2-1.4,4.4-2.9,6.7-4.5c2.9-2,5.6-4.1,8.2-6.1C836.1,468.3,837,469.9,837.9,471.6z"/>
		</g>
	</g>
	<path style="clip-path:url(#SVGID_00000094578100636553035540000006805027124863208345_);fill:#AF7151;" d="M804.1,488.7
		c-0.2,0.5-0.7,0.6-1.2,0.8c-0.5,0.2-0.8,0.2-1.3,0.3c-0.9,0.1-1.7,0.3-1.9,0.4c-1.1,0.3-1.7,0.7-2.3,1c-0.9,0.5-2.3,0.9-4.4,0.9
		l-0.4-1c2.7-0.7,3.5-1.5,3.7-2.2c0.1-0.3,0.2-1,0.7-1.8c0.3-0.4,0.5-0.7,0.7-0.8c-0.1,0.1-0.2,0.3-0.2,0.5c0,0.5,0.6,0.9,1.1,1.1
		c1.1,0.4,1.8-0.5,4-0.5c0.8,0,1.3,0.1,1.5,0.4C804.2,488,804.3,488.4,804.1,488.7z"/>
	<path style="clip-path:url(#SVGID_00000094578100636553035540000006805027124863208345_);fill:#AFABAC;" d="M880.8,443.8
		c-7,10.1-15.2,15.9-20.6,19.4c-33.6,22-83.4,39.1-99.9,44.6c0.7-0.4,1.8-1,3.1-1.8c12.6-7.1,29.3-15.6,67.2-31.6
		c15.5-6.6,20.2-8.3,27.2-13.5c7.3-5.4,14.8-11,18.8-20.6c6.4-15.4,0.6-33.4-8.5-44.9c-4.5-5.7-9.8-9.6-14.9-12.4
		c-0.8-4.1-1.7-8.2-2.4-11.7c-2.3-12.9-6.7-24.1-12.4-33.8c-5.2-8.9-11.3-16.1-17.8-22.1v0c13.8,8.5,47.8,31,64.3,62.4
		c4.8,9.1,6.3,16.4,7.5,23C894.4,411.8,891.1,429,880.8,443.8z"/>
	<path style="clip-path:url(#SVGID_00000094578100636553035540000006805027124863208345_);fill:#3A3A3A;" d="M771.1,501.7
		c-0.6-0.2-1.6-0.5-2.8-0.8c-1.8-0.4-7.5-1.6-13.1,1.6c-5.7,3.2-7.5,8.9-7.9,10.2c1.6-1.2,3.1-2.5,4.7-3.7c-1.8,2-3.5,4-5.3,6
		c4.9-3.3,7.5-4.8,7.8-4.6c0.2,0.3-2.5,2.9-8.2,7.9c3.9-1.7,7.9-3.5,11.8-5.2c-4.2,3.5-6.3,5.4-6.1,5.6c0.2,0.3,3.7-1.9,10.4-6.4
		c-1.7,2.3-3.4,4.6-5.1,6.9c1.6-0.2,5.6-1.1,9.2-4.4c4.7-4.4,5.4-9.9,5.5-11.3C771.7,502.9,771.4,502.3,771.1,501.7z"/>
	<path style="clip-path:url(#SVGID_00000094578100636553035540000006805027124863208345_);fill:#DE9F7E;" d="M861.6,464.7
		c-0.1,0.6-0.4,1.6-1.1,2.6c-0.5,0.7-1,1.2-1.4,1.5c-1.4,0.5-2.7,1.1-4.1,1.6c-1,0.6-2,1.1-3,1.7c-0.3-0.1-0.7-0.4-1-0.8
		c-0.7-0.7-0.9-1.5-0.9-1.8c1-0.8,2-1.5,3-2.3c-0.4-0.4-0.7-0.7-1-0.8c-0.3-0.2-0.5-0.2-0.6-0.5c-0.1-0.3,0.1-0.6,0.2-0.7
		c0.8-0.7,3.9,1.3,3.9,1.3c0,0-1.4-1.1-2.7-1.7c-0.2-0.1-0.6-0.3-0.7-0.6c0-0.2,0.1-0.4,0.1-0.4c0.2-0.4,1-0.4,1.3-0.4
		c1.6,0.1,3.5,2,3.9,2.4c-0.2-0.5-0.5-0.9-0.6-1.1c-0.4-0.6-1.1-1.3-1.3-1.5c-0.5-0.5-0.7-0.7-0.7-1c0-0.3,0.2-0.6,0.4-0.7
		c0.7-0.3,1.8,0.7,2.7,1.6c0.9,0.8,1.3,1.4,1.4,1.4c0.1-0.1-0.2-0.7-0.6-1.3c-0.6-0.8-1.2-1-2-2.1c0,0,0,0,0,0c0,0-0.1-0.1-0.1-0.3
		c0-0.3,0.4-0.5,0.5-0.5c1-0.4,3.2,2.5,3.4,2.8C861.1,463.8,861.4,464.3,861.6,464.7z"/>
	<g style="clip-path:url(#SVGID_00000094578100636553035540000006805027124863208345_);">
		<path class="st4" d="M809.3,485.1c0,0.5-0.8,0.9-0.8,0.9c-1,0.4-1.8-0.2-3.4-0.7c-0.6-0.2-2.8-0.9-5.1-0.2
			c-0.8,0.2-1.9,0.7-2.3,1.2c0,0,0,0,0,0c-0.2,0.2-0.5,0.4-0.7,0.8c-0.5,0.8-0.6,1.5-0.7,1.8c-0.2,0.7-1.1,1.7-4.5,2.5
			c-0.5-2-0.9-4-1.4-6c0.7-0.5,1.7-1.1,3-1.7c2.5-1.3,3.7-1.9,5.1-2.1c1-0.1,0.6,0.2,6.2,1.2c0.1,0,1.1,0.2,2.3,0.7
			C807.9,483.8,809.4,484.4,809.3,485.1z"/>
	</g>
	<path style="clip-path:url(#SVGID_00000094578100636553035540000006805027124863208345_);fill:#DE9F7E;" d="M790.4,485.4
		c-3.9-0.9-8.2-2.2-12.8-3.9c-3.4-1.3-6.5-2.6-9.4-4c0.1-1.1,0.1-2.2,0.2-3.3c-4.2,0.1-8.5,0.2-12.7,0.3c0,4.2,0,8.3,0,12.5
		c7.9,1.8,16.8,3.3,26.6,4c3.3,0.2,6.4,0.3,9.5,0.4c0.2-0.6,0.3-1.6,0.1-2.8C791.6,486.9,790.8,485.8,790.4,485.4z"/>
	<g style="clip-path:url(#SVGID_00000094578100636553035540000006805027124863208345_);">
		<path class="st4" d="M610.8,456c-1.2,0.5-2.8,1.2-4.4,2.5c-0.9,0.7-1.6,1.4-2.2,2c-0.4-0.7-0.8-1.3-1.2-2
			c-0.6-1.1-1.3-2.1-1.9-3.2c-0.4-0.2-0.8-0.5-1.4-0.9c-0.2-0.1-1-0.8-1.7-1.9c-0.6-0.9-1-1.8-1.2-2.5c-4.1-4.7-4.1-5.9-3.8-6.2
			c0.1-0.1,0.2-0.2,0.4-0.2c0.6-0.1,1.2,0.7,2.4,2c0.8,0.9,1.6,1.6,1.6,1.5c0,0-0.9-1.2-2-2.5c-1.2-1.3-1.9-2.1-2.2-3.3
			c-0.1-0.3-0.2-1,0.1-1.2c0.3-0.2,0.8,0,0.9,0.1c1.4,1.6,2.8,3.3,4.3,4.9c-1.5-2-3-4.1-4.5-6.1c0,0-0.2-0.5,0.1-0.9
			c0.2-0.3,0.7-0.4,1.1-0.2c1.7,2.1,3.4,4.2,5.2,6.3c-1-1.4-1.9-2.5-2.5-3.2c-0.8-0.9-1.5-1.7-1.2-2.3c0.1-0.3,0.5-0.4,0.6-0.4
			c0.7-0.2,1.7,0.5,4.4,4.1c0.8,1,1.8,2.4,2.9,4.1c0-1.2,0.1-4.3,0.8-4.4c0.6-0.1,1.6,2.1,2,4c0.5,2.2,0.1,4.1-0.2,5.3
			C608.4,453,609.6,454.5,610.8,456z"/>
	</g>
	<g style="clip-path:url(#SVGID_00000094578100636553035540000006805027124863208345_);">
		<path class="st33" d="M703.2,277.8c-1.9-0.2-3.8-0.4-5.7-0.6c-0.3,2.2-0.6,4.5-0.8,6.7c2.3,0.2,4.6,0.4,6.8,0.6
			C703.4,282.2,703.3,280,703.2,277.8z"/>
		<path class="st33" d="M685.8,266.4c-0.2,0.2-0.3,0.7-0.1,1c0,0,0.2,0.4,0.1,0.6c0,0,0,0,0,0c0,0,0,0,0,0c0,0-7.2-0.3-10.1,1.4
			c-4.2,2.5-6.6,12.7-1.2,18.2c3.9,4.1,9.9,3.4,10.8,3.3c-0.1,0.1-0.9,1-0.6,1.6c0.1,0.1,0.2,0.3,0.6,0.5c1.3,0.5,3-0.5,6-1.4
			c1.4-0.4,2.2-0.6,2.2-0.8c0-0.3-0.8-0.5-1.5-0.6c0.6-0.2,5.7-1.7,7.5-6.6c1-2.8,0.4-5.2,0.2-5.9c-1.3-4.9-5.7-7-6.4-7.3
			c0.2-0.1,0.4-0.3,0.4-0.5c0-0.4-0.8-0.8-1.7-1.3c-1.7-0.9-3.2-1.9-4.9-2.4C686.7,266.2,686,266.1,685.8,266.4z"/>
		<g>
			<path class="st33" d="M817.5,316.3c3.6,2.1,6.6,3.5,8.7,4.5c2.9,1.3,5.2,2.2,8.2,4.3c1.6,1.1,2.7,2.1,3.5,2.9
				c-0.3,1.2-0.8,3-1.2,5.2c-0.8,3.9-1.3,6.2-0.6,6.5c0.7,0.4,2.4-1.7,3.1-2.5c1.4-1.6,3.2-4.4,4.5-8.6c-0.1-0.2-0.3-0.6-0.6-1
				c-1-1.4-2-2.1-2.3-2.3c-2.4-1.8-5.3-5.9-10.9-10.5c-1.7-1.4-4.2-3.2-7.5-5.2C820.7,311.9,819.1,314.1,817.5,316.3z"/>
			<path class="st6" d="M822.8,316.2c-7.8-0.3-18.3-1.4-30.1-5.1c-11.7-3.6-20.8-8.4-27.4-12.5c1.4,0.1,10.8,0.4,16.3-6.4
				c1.5-1.9,2.4-3.8,2.9-5.4c3.2,1.2,8.1,3.2,13.9,5.8c24.2,11,25.4,16.5,25.5,18.6C824.1,312.3,824,314,822.8,316.2z"/>
		</g>
		<path class="st33" d="M709,310.2c-0.1,1.2-0.3,3.4-0.5,6c-0.4,8.9,0.5,12.8,0.1,20.4c-0.1,2.1-0.4,5.4-1.1,9.5
			c-0.5,0.3-2.2,1.3-3.2,3.4c-1,2.2-0.6,4.1-0.4,4.7c0.6,0.7,1.1-1.9,1.6-2.9c-0.6,2.7-1.1,5.3-1.7,8c-0.2,1,0.8,0.8,1,0.2
			c0.8-2,2.1-5.5,2.1-5.5c0.3,0.1-1.2,4.3-2.1,6.6c0,0,0,0.2,0,0.2c-0.1,0.8,0.8,1.1,1.2,0.3c0,0,0.6-1.5,0.6-1.5
			c0.1-0.4,1.6-4.8,1.7-4.6c-0.5,1.7-0.7,2.8-1.3,4.5c-0.3,0.9,0.7,1.2,1,0.5c0,0,1.1-3.2,1.9-5c-0.4,1.3-0.8,2.1-1.2,3.4
			c-0.3,1,0.3,1.2,0.8,0.5c0.4-1.1,1.3-2.3,1.9-4c0.4-1.2,1-2.6,1.3-4.5c0.3-1.7,0.3-3.2,0.2-4.4c2.6-11,5.1-22,7.7-33
			C716.9,312.1,713,311.2,709,310.2z"/>
		<path class="st15" d="M705.8,310.9c-0.4-7.5-0.9-15-1.3-22.5c0-0.2-0.1-0.5-0.2-0.9c-0.4-1.5-0.9-2.6-1.2-3.1
			c-0.4-0.8-0.9-2.1-1.2-3.8c0-0.6,0-1.8,0.6-3.1c1-2,2.9-2.8,3.4-3c0.7-0.2,1.9-0.5,3.3-0.8c15.5-3.2,27.6,0.3,47.6,5.4
			c6.2,1.6,16.7,4.2,30.6,7.5c-1.2,4.6-2.4,9.2-3.6,13.7c-3,0.2-6,0.5-9,0.7c1.9,1.8,3.7,3.7,5.6,5.5c-8.3-2.8-18-5.6-28.9-7.6
			c-8.9-1.7-17.2-2.6-24.7-3.1c-1.6,6.5-3.2,13-4.8,19.5C716.6,313.9,711.2,312.4,705.8,310.9z"/>
		<path class="st34" d="M683.4,266.7c-3-0.5-7.5,1.1-10.2,4.5c-1,1.3-1.6,2.6-1.9,3.4c-0.3,0.8-0.6,2.1-0.8,3.7c0,0,0,0.3-0.1,0.6
			c-0.1,1.4-0.1,6.9,3.4,9.6c1,0.8,2.2,1,4.6,1.6c4.6,1,9.6,2.1,13.7-0.1c0.9-0.5,2.3-1.4,3.3-2.1c1.4-1,2.5-1.9,3.2-2.6
			c0.4-1.1,0.8-2.6,0.9-4.4c0.2-2.2-0.1-4-0.4-5.2c-0.4-0.3-1-0.7-1.7-1.3c-3.3-2.6-3.9-3.6-5.7-4.6c-1.5-0.8-3.2-1.5-3.5-1.7
			C688.2,268.1,685,266.9,683.4,266.7z"/>
	</g>
	<path style="clip-path:url(#SVGID_00000094578100636553035540000006805027124863208345_);fill:#D34047;" d="M766.2,446.4
		c-0.9,0.2-2.6,0.6-4.3,1.8c-4.4,3.1-5.3,8.9-6.6,17.8c-0.3,2.2-0.7,5.3-0.9,9.2c5.3,0.1,10.5,0.2,15.8,0.3
		c0.1-6.3,0.2-12.6,0.3-18.8C769,453.2,767.6,449.8,766.2,446.4z"/>
	<path style="clip-path:url(#SVGID_00000094578100636553035540000006805027124863208345_);fill:#B7303D;" d="M771.1,478.1
		c-5.8-0.1-11.7-0.2-17.5-0.3c0-0.5,0.1-1,0.1-1.6c0-1.3,0-2.5-0.1-3.7c2.6,0.1,5.3,0.2,8.1,0.2c3.5,0,6.9-0.1,10.2-0.2
		C771.6,474.4,771.3,476.2,771.1,478.1z"/>
	<path style="clip-path:url(#SVGID_00000094578100636553035540000006805027124863208345_);fill:#DE9F7E;" d="M348.5,475.2
		c-0.1,0.6-0.4,1.6-1.1,2.6c-0.5,0.7-1,1.2-1.4,1.5c-1.4,0.5-2.7,1.1-4.1,1.6c-1,0.6-2,1.1-3,1.7c-0.3-0.1-0.7-0.4-1-0.8
		c-0.7-0.7-0.9-1.5-0.9-1.8c1-0.8,2-1.5,3-2.3c-0.4-0.4-0.7-0.7-1-0.8c-0.3-0.2-0.5-0.2-0.6-0.5c-0.1-0.3,0.1-0.6,0.2-0.7
		c0.8-0.7,3.9,1.3,3.9,1.3c0,0-1.4-1.1-2.7-1.7c-0.2-0.1-0.6-0.3-0.7-0.6c0-0.2,0.1-0.4,0.1-0.4c0.2-0.4,1-0.4,1.3-0.4
		c1.6,0.1,3.5,2,3.9,2.4c-0.2-0.5-0.5-0.9-0.6-1.1c-0.4-0.6-1.1-1.3-1.3-1.5c-0.5-0.5-0.7-0.7-0.7-1c0-0.3,0.2-0.6,0.4-0.7
		c0.7-0.3,1.8,0.7,2.7,1.6c0.9,0.8,1.3,1.4,1.4,1.4c0.1-0.1-0.2-0.7-0.6-1.3c-0.6-0.8-1.2-1-2-2.1c0,0,0,0,0,0c0,0-0.1-0.1-0.1-0.3
		c0-0.3,0.4-0.5,0.5-0.5c1-0.4,3.2,2.5,3.4,2.8C348,474.3,348.3,474.9,348.5,475.2z"/>
	<g style="clip-path:url(#SVGID_00000094578100636553035540000006805027124863208345_);">
		<path class="st4" d="M296.2,495.6c0,0.5-0.8,0.9-0.8,0.9c-1,0.4-1.8-0.2-3.4-0.7c-0.6-0.2-2.8-0.9-5.1-0.2
			c-0.8,0.2-1.9,0.7-2.3,1.2c0,0,0,0,0,0c-0.2,0.2-0.5,0.4-0.7,0.8c-0.5,0.8-0.6,1.5-0.7,1.8c-0.2,0.7-1.1,1.7-4.5,2.5
			c-0.5-2-0.9-4-1.4-6c0.7-0.5,1.7-1.1,3-1.7c2.5-1.3,3.7-1.9,5.1-2.1c1-0.1,0.6,0.2,6.2,1.2c0.1,0,1.1,0.2,2.3,0.7
			C294.8,494.3,296.2,494.9,296.2,495.6z"/>
	</g>
	<g style="clip-path:url(#SVGID_00000094578100636553035540000006805027124863208345_);">
		<g>
			<path class="st4" d="M669.7,482.5c3.9-0.8,8.4-2.1,13.2-4c3.1-1.2,5.9-2.5,8.3-3.8c0-1.2-0.1-2.5-0.1-3.7l14.3,0.3
				c-0.4,4.4-0.9,8.8-1.3,13.2c-0.1,1.1-0.8,2-1.9,2.4c-5.8,2-14.1,4-24,3.3c-3.7-0.3-7-0.8-10-1.6c-0.2-0.6-0.4-1.6-0.1-2.8
				C668.4,484.1,669.3,483,669.7,482.5z"/>
			<g>
				<g>
					<g>
						<path class="st4" d="M643.8,456.8c0.1,3.3,0.1,6.5,0.4,9.7c0.2,1.9,0.4,3.8,1,5.7c0.6,1.9,1.7,3.4,2.4,5.2
							c0.6,1.6,1,3.3,1.2,5c0.2,1.2,0.2,2.4,0.2,3.7h37.3c-0.1-2.3-0.1-4.7,0.5-7c0.5-2.2,1.8-4.1,2.6-6.2c1.1-3.1,1-6.3,1.3-9.5
							c0.3-3.4,0.7-6.8,0.9-10.3c0.1-2.2-0.2-5.4-0.3-7.6c0-0.7,0-2.7-0.9-3c-5.4-1-14.8-8.1-14.8-8.1c-0.4-0.8-0.5-1.9-0.6-3.1
							c0-0.5,0-0.9,0-1.4c0-1,0.1-2.1,0.1-3c-2.5,1.4-5.6,1.7-8.4,1.7c-2.6,0-5.1-0.4-7.6-1.1c0,0.6,0.1,1.3,0.1,1.9
							c0,0.5,0,1,0,1.5c-0.1,1.6-0.4,3.2-1,4.4c-0.2,0.2-0.3,0.4-0.5,0.5c-3.4,1.9-8.9,6-13.4,6.8c-0.5,1.2-0.2,3-0.3,4.3
							C643.7,449.7,643.7,453.7,643.8,456.8z"/>
						<path class="st4" d="M677.9,415.5c0.3-0.9-0.3-1.2,0.8-1.6c0.8-0.4,1.6,1.3,1.8,2.4c0.2,1.2-1,5.2-1.7,5.8
							c-0.7,0.6-1.5,0.8-1.8-0.2L677.9,415.5z"/>
						<path class="st4" d="M656.3,412.1c-0.5,4.8-0.9,9.8,1.7,14.4c0.2,0.4,1.1,1.8,2.6,3.4c1.3,1.3,3.2,2.8,5.8,3.3
							c0.5,0.1,1,0.1,1.5,0c3.9-0.8,7.2-4.5,8.1-6.1c0,0,0,0,0,0c0.1-0.2,0.2-0.4,0.4-0.6c0.1-0.3,0.2-0.5,0.3-0.7c0,0,0,0,0,0
							c0.9-2.5,1.2-9.6,1.3-13.7c0.4-5.6-3.1-10.4-8.8-12.1c-0.7-0.2-1.4-0.3-2.1-0.3h0c-0.1,0-0.1,0-0.2,0c-0.6,0-1.2,0.1-8.7,4.6
							C656.3,405.6,656.7,408.2,656.3,412.1z"/>
					</g>
					<path class="st4" d="M681.9,626.1c0.5-3.1,1.2-7.5,2.3-13c0.6-2.9,1.3-6.6,2.3-10.9c0,0-6.6-6.5-12.2-3.4
						c-4.2,2.3-2.8,10.7-1.3,27.7c0.1,1.5,0.3,3.1,0.3,3.1c0.1,0.9,0.2,1.7,0.2,2.3c2.5-0.1,5.1-0.2,7.6-0.3c0.1-0.4,0.2-1,0.3-1.7
						C681.3,629.8,681.6,628,681.9,626.1z"/>
					<path class="st4" d="M650.2,626.1c-1.1-6.8-2-11.9-2.3-13c-0.6-2.9-1.3-6.6-2.3-10.9c0,0,6.6-6.6,12.2-3.4
						c3.7,2.1,2.8,10.8,1.3,27.7c-0.2,2.1-0.4,3.9-0.5,5.2c-2.5,0.1-5.1,0.1-7.6,0.2C650.9,630.3,650.6,628.4,650.2,626.1z"/>
					<path class="st6" d="M693.4,522.5c1.2,16,1.7,29.8,1.8,40.7c0.4,27.2-1.2,35.5-7.2,40.4c-5.1,4.1-11.7,4.6-16.7,4.2
						c-1.3-6.6-2.4-13.7-3.3-21.3c-0.9-7.9-1.4-15.4-1.6-22.4c0.8-13.3,1.6-26.5,2.4-39.8C677,523.8,685.2,523.1,693.4,522.5z"/>
					<path class="st6" d="M641.5,521.5c-3.4,10.5-10.8,72.6,5.8,86.2c2.2,3.6,10.6,3.9,13.3,1c1.3-6.8,2.5-13.8,3.6-21
						c1.4-9.4,2.6-18.5,3.5-27.3c0.6-3.7,1-7.6,1.2-11.9c0.4-9.2-0.3-17.3-1.4-24.1C664.6,521.3,644.4,519.7,641.5,521.5z"/>
					<g>
						<g>
							<path class="st7" d="M669.1,546.3c-0.9,15.9,3.2,31.4,15.5,42.3C670.2,580.4,664.8,561.6,669.1,546.3L669.1,546.3z"/>
						</g>
						<g>
							<path class="st7" d="M668.2,550.1c-1.1,16.1,1.9,32.4,9.8,46.6C667.4,584,664,565.9,668.2,550.1L668.2,550.1z"/>
						</g>
						<g>
							<path class="st7" d="M666.8,549.4c1.6,14.7-4.7,30.7-17.1,39.1C660,577.8,665.3,564,666.8,549.4L666.8,549.4z"/>
						</g>
						<g>
							<path class="st7" d="M666.1,548.6c5,15.9,1.5,35.4-11.5,46.6C665.1,581.9,667.9,565.2,666.1,548.6L666.1,548.6z"/>
						</g>
						<g>
							<path class="st7" d="M668.7,550.9c2.9,9.1,7.5,17.2,14.1,24.1C674.1,570.4,668.5,560.6,668.7,550.9L668.7,550.9z"/>
						</g>
						<g>
							<path class="st7" d="M667.2,549.8c-0.8,9.8-6.4,19.4-14.8,24.7C658.6,567,663.5,558.8,667.2,549.8L667.2,549.8z"/>
						</g>
					</g>
					<path class="st37" d="M639.6,528.2c6.9,2.4,17.6,5.2,30.8,4.9c9.9-0.2,18.1-2.1,24-3.9c-1.5-11.1-2.5-18.7-2.9-21.4
						c-0.1-0.6-0.4-2.5-0.6-5.1c0,0-0.1-1.2-0.2-2.6c-0.8-12.2-0.1-21.3-0.1-21.3c0.5-6.9,1.7-14.3,1.7-14.3l0,0
						c1-4.1,2.1-10.7,2.3-22c-9.8-3.1-14.3-5-15.9-6.1h0c-0.5-0.3-0.7-0.6-0.8-0.8c-0.1-0.2-0.4-1-1.1-1.4c-0.4-0.3-1.5-0.3-1.5-0.3
						c-2.1-0.3-4.4-0.5-6.9-0.6c-3.6-0.1-6.9,0.1-9.8,0.4c-0.3,0-0.7,0.1-1.2,0.5c-0.2,0.1-0.6,0.4-0.9,0.9
						c-0.1,0.2-0.2,0.5-0.3,0.6c-0.3,0.1-0.6,0.3-0.8,0.4c-5.3,2.5-9.4,4.4-10.9,5c-1.5,0.6-3.1,1.2-4.6,1.8c0,0.3,0,0.8,0,1.3
						c-0.1,7.3,1.3,11.6,2.5,20.3c0.8,5.8,1.6,12.5,2.4,26c0.1,1.3,0.2,3.8,0,7c-0.3,4.3-1.2,7.4-1.4,8.6
						C642.7,511.6,639.7,526.1,639.6,528.2z"/>
					<g>
						<path d="M678.2,423.4c0.3,0,0.5-0.7,0.5-1.3l-0.2,0.2c0,0.7-0.2,0.9-0.3,0.9c-0.1,0-0.3-0.4-0.3-1c0-0.7,0.2-1,0.3-1
							c0.1-0.1,0.1-0.1,0-0.2c-0.3,0-0.5,0.6-0.5,1.3C677.7,422.7,677.8,423.4,678.2,423.4z"/>
					</g>
					<path class="st4" d="M656.7,415.5c-0.3-0.9-0.1-1.3-1-1.7c-0.8-0.3-1.6,1.3-1.8,2.4c-0.2,1.2,1,5.2,1.7,5.8
						c0.7,0.6,1.5,0.8,1.8-0.2L656.7,415.5z"/>
					<g>
						<path d="M656.2,423.4c-0.3,0-0.5-0.7-0.5-1.3l0.2,0.2c0,0.7,0.2,0.9,0.3,0.9s0.3-0.4,0.3-1c0-0.7-0.2-1-0.3-1
							c-0.1-0.1-0.1-0.1,0-0.2c0.3,0,0.5,0.6,0.5,1.3C656.7,422.7,656.5,423.4,656.2,423.4z"/>
					</g>
					<path d="M656.3,403.7c1-1.4,2.5-1.1,2.7-1.2c5.7-9.3,17.4-0.9,18.8,2.3c0.5,1.3,1.2,3.6,0.9,6.3c-0.1,1.3-0.4,2.4-0.7,3.3
						c0,0,0,0.1-0.1,0.1c-0.1,1.9-0.7,3.3-0.9,3.7c-0.2,2-0.7,4.5-1.9,7.1c-0.6,1.3-1.5,3.2-3.3,4.9c-0.5,0.5-0.9,0.8-1.3,1.1
						c-2.6,0-5.2,0-7.8,0c-0.9-0.8-1.8-1.8-2.7-3.1c-2.8-4.1-3.2-8.4-3.2-10.7c0,0,0,0,0,0c-0.1-0.4-0.1-0.8-0.2-1.2
						c-0.1-0.3-0.1-0.6-0.2-1c0-0.3-0.1-0.5-0.1-0.8c-0.4-1.1-0.8-2.5-1-4.1C655.1,407.8,655,405.5,656.3,403.7z"/>
				</g>
				<path id="XMLID_00000076597674880991521630000004573066030903370653_" class="st11" d="M679.2,407.5c-5.1-4.1-21.5-3.5-24-2.9
					c-0.4,0.2-1,1.2-0.7,2.7c-0.5,1-0.5,2.3,0.2,2.8c0,0,0,0,0,0.1c0,0.4,0.3,0.7,0.7,0.7c2.8-0.2,15.7-1.6,22.6,2.6
					c0.3,0.2,0.7,0.1,0.9-0.2c0.2-0.3,0.3-0.9,0.2-1.6c0.7-0.6,0.5-2.1,0.3-2.5C679.5,408.3,679.4,407.6,679.2,407.5z"/>
				<path class="st37" d="M693.1,518.5c0.8,6.7,1.7,13.6,2.9,20.7c0.5,3,1,6,1.5,8.9c-6.5,2.4-16,5.2-27.8,5.7
					c-14.4,0.7-26-2.2-33.2-4.6c0.6-4.7,1.3-9.5,2-14.4c0.8-5,1.6-10,2.5-14.7c4.5,2.4,16.9,8.3,32.8,5.8
					C682.5,524.5,689,521.1,693.1,518.5z"/>
				<path class="st4" d="M602.4,457.2c2.8,6.1,5.6,10.9,7.8,14.3c2.5,3.9,10,15.5,15.2,14.8c0.6-0.1,1.9-0.4,6.7-5.9
					c3.8-4.4,6.6-8.4,8.3-11.2c-4.4-2.1-8.7-4.2-13.1-6.3c-1.6,2-3.3,4.1-4.9,6.1c-4.9-5.4-9.8-10.9-14.7-16.3
					C606,454.1,604.2,455.7,602.4,457.2z"/>
				<g>
					<path class="st37" d="M640.9,442.4c-0.9,0.3-2.2,0.8-3.7,1.7c-3.8,2.3-5.4,5.4-8.8,11.4c-1.2,2.1-3.2,5.7-6,10.5
						c4.9,3.1,9.9,6.2,14.8,9.2c2.4-2.5,4.7-5,7.1-7.5C643.3,459.3,642.1,450.8,640.9,442.4z"/>
					<path class="st38" d="M620.8,468.3c5,3.4,9.9,6.8,14.9,10.2c0.3-0.4,0.6-0.9,0.9-1.4c0.7-1.1,1.5-2.1,2.3-3
						c-2.3-1.5-4.6-3-6.9-4.6c-3-2.1-5.8-4.2-8.5-6.3C622.5,464.9,621.7,466.6,620.8,468.3z"/>
				</g>
			</g>
			<path class="st37" d="M693.4,442c1,0.2,2.7,0.6,4.4,1.8c5.6,3.9,6.3,11.9,6.8,18.3c0.2,2.3,0.3,5.6,0,9.5
				c-5.1,0.1-10.2,0.2-15.3,0.2c-0.1-6.5-0.2-12.9-0.3-19.4C690.5,449,691.9,445.5,693.4,442z"/>
			<path class="st38" d="M690.6,475.1c5.2-0.2,10.3-0.3,15.5-0.5c0-0.5-0.1-1.1-0.1-1.6c0-1.3,0-2.6,0.1-3.8c-2.7,0-5.5,0.1-8.3,0.2
				c-2.4,0.1-4.8,0.2-7.1,0.3C690.6,471.5,690.6,473.3,690.6,475.1z"/>
		</g>
		<path class="st39" d="M681.1,639.1c0.2,0.4,0.5,0.9,0.7,1.7c0.1,0.5,0.8,3.1-0.6,4.5c-0.9,1-2.4,0.9-4.3,0.8
			c-1.6-0.1-3.6-0.2-4.3-1.5c-0.4-0.7-0.4-1.7-0.4-2.4c0-0.2,0-0.8,0.2-1.5c0.2-0.9,0.5-1.6,0.7-2.1c0.2-0.2,2.8-2.2,5.7-1.2
			C679.9,637.9,680.7,638.6,681.1,639.1z"/>
		<path class="st4" d="M673.4,639.9c0,0-0.1,0.3-0.2,0.7c-0.1,0.6-0.2,1.3,0,2c0.3,0.9,0.9,1.5,1.1,1.7c0.9,0.7,1.8,0.7,3.1,0.7
			c1.2,0,2.1,0,2.9-0.6c0.5-0.4,0.8-1,0.8-1.2c0.3-0.7,0.2-1.3,0.2-2c-0.1-0.7-0.3-1.3-0.3-1.3c-0.3-0.9-0.3-3.6,0.3-10.5h-7.9
			C673.7,636.4,673.6,639.1,673.4,639.9z"/>
		<path class="st39" d="M651,639.1c-0.2,0.4-0.5,0.9-0.7,1.7c-0.1,0.5-0.8,3.1,0.6,4.5c0.9,1,2.4,0.9,4.3,0.8
			c1.6-0.1,3.6-0.2,4.3-1.5c0.4-0.7,0.4-1.7,0.4-2.4c0-0.2,0-0.8-0.2-1.5c-0.2-0.9-0.5-1.6-0.7-2.1c-0.2-0.2-2.8-2.2-5.7-1.2
			C652.2,637.9,651.4,638.6,651,639.1z"/>
		<path class="st4" d="M658.8,639.9c0,0,0.1,0.3,0.2,0.7c0.1,0.6,0.2,1.3,0,2c-0.3,0.9-0.9,1.5-1.1,1.7c-0.9,0.7-1.8,0.7-3.1,0.7
			c-1.2,0-2.1,0-2.9-0.6c-0.5-0.4-0.8-1-0.8-1.2c-0.3-0.7-0.2-1.3-0.2-2c0.1-0.7,0.3-1.3,0.3-1.3c0.3-0.9,0.3-3.6-0.3-10.5h7.9
			C658.5,636.4,658.6,639.1,658.8,639.9z"/>
		<path class="st38" d="M655.4,436c3.6,0.3,7.5,0.6,11.7,0.6c4.1,0.1,8-0.1,11.5-0.4c-0.5-0.3-0.7-0.6-0.8-0.8
			c-0.1-0.2-0.4-1-1.1-1.4c-0.4-0.3-1.5-0.3-1.5-0.3c-2.1-0.3-4.4-0.5-6.9-0.6c-3.6-0.1-6.9,0.1-9.8,0.4c-0.3,0-0.7,0.1-1.2,0.5
			c-0.2,0.1-0.6,0.4-0.9,0.9c-0.1,0.2-0.2,0.5-0.3,0.6C656,435.7,655.7,435.8,655.4,436z"/>
	</g>
	<g style="clip-path:url(#SVGID_00000094578100636553035540000006805027124863208345_);">
		<g>
			<path class="st4" d="M376.7,469.2c-1.2,0.5-2.8,1.2-4.4,2.5c-0.9,0.7-1.6,1.4-2.2,2c-0.4-0.7-0.8-1.3-1.2-2
				c-0.6-1.1-1.3-2.1-1.9-3.2c-0.4-0.2-0.8-0.5-1.4-0.9c-0.2-0.1-1-0.8-1.7-1.9c-0.6-0.9-1-1.8-1.2-2.5c-4.1-4.7-4.1-5.9-3.8-6.2
				c0.1-0.1,0.2-0.2,0.4-0.2c0.6-0.1,1.2,0.7,2.4,2c0.8,0.9,1.6,1.6,1.6,1.5c0,0-0.9-1.2-2-2.5c-1.2-1.3-1.9-2.1-2.2-3.3
				c-0.1-0.3-0.2-1,0.1-1.2c0.3-0.2,0.8,0,0.9,0.1c1.4,1.6,2.8,3.3,4.3,4.9c-1.5-2-3-4.1-4.5-6.1c0,0-0.2-0.5,0.1-0.9
				c0.2-0.3,0.7-0.4,1.1-0.2c1.7,2.1,3.4,4.2,5.2,6.3c-1-1.4-1.9-2.5-2.5-3.2c-0.8-0.9-1.5-1.7-1.2-2.3c0.1-0.3,0.5-0.4,0.6-0.4
				c0.7-0.2,1.7,0.5,4.4,4.1c0.8,1,1.8,2.4,2.9,4.1c0-1.2,0.1-4.3,0.8-4.4c0.6-0.1,1.6,2.1,2,4c0.5,2.2,0.1,4.1-0.2,5.3
				C374.2,466.2,375.5,467.7,376.7,469.2z"/>
		</g>
		<g>
			<g>
				<path class="st4" d="M435.6,495.7c3.9-0.8,8.4-2.1,13.2-4c3.1-1.2,5.9-2.5,8.3-3.8c0-1.2-0.1-2.5-0.1-3.7l14.3,0.3
					c-0.4,4.4-0.9,8.8-1.3,13.2c-0.1,1.1-0.8,2-1.9,2.4c-5.8,2-14.1,4-24,3.3c-3.7-0.3-7-0.8-10-1.6c-0.2-0.6-0.4-1.6-0.1-2.8
					C434.3,497.3,435.1,496.1,435.6,495.7z"/>
				<g>
					<g>
						<g>
							<path class="st4" d="M409.6,469.9c0.1,3.3,0.1,6.5,0.4,9.7c0.2,1.9,0.4,3.8,1,5.7c0.6,1.9,1.7,3.4,2.4,5.2
								c0.6,1.6,1,3.3,1.2,5c0.2,1.2,0.2,2.4,0.2,3.7h37.3c-0.1-2.3-0.1-4.7,0.5-7c0.5-2.2,1.8-4.1,2.6-6.2c1.1-3.1,1-6.3,1.3-9.5
								c0.3-3.4,0.7-6.8,0.9-10.3c0.1-2.2-0.2-5.4-0.3-7.6c0-0.7,0-2.7-0.9-3c-5.4-1-14.8-8.1-14.8-8.1c-0.4-0.8-0.5-1.9-0.6-3.1
								c0-0.5,0-0.9,0-1.4c0-1,0.1-2.1,0.1-3c-2.5,1.4-5.6,1.7-8.4,1.7c-2.6,0-5.1-0.4-7.6-1.1c0,0.6,0.1,1.3,0.1,1.9
								c0,0.5,0,1,0,1.5c-0.1,1.6-0.4,3.2-1,4.4c-0.2,0.2-0.3,0.4-0.5,0.5c-3.4,1.9-8.9,6-13.4,6.8c-0.5,1.2-0.2,3-0.3,4.3
								C409.6,462.9,409.6,466.9,409.6,469.9z"/>
							<path class="st4" d="M443.8,428.6c0.3-0.9-0.3-1.2,0.8-1.6c0.8-0.4,1.6,1.3,1.8,2.4c0.2,1.2-1,5.2-1.7,5.8
								c-0.7,0.6-1.5,0.8-1.8-0.2L443.8,428.6z"/>
							<path class="st4" d="M422.2,425.3c-0.5,4.8-0.9,9.8,1.7,14.4c0.2,0.4,1.1,1.8,2.6,3.4c1.3,1.3,3.2,2.8,5.8,3.3
								c0.5,0.1,1,0.1,1.5,0c3.9-0.8,7.2-4.5,8.1-6.1c0,0,0,0,0,0c0.1-0.2,0.2-0.4,0.4-0.6c0.1-0.3,0.2-0.5,0.3-0.7c0,0,0,0,0,0
								c0.9-2.5,1.2-9.6,1.3-13.7c0.4-5.6-3.1-10.4-8.8-12.1c-0.7-0.2-1.4-0.3-2.1-0.3h0c-0.1,0-0.1,0-0.2,0c-0.6,0-1.2,0.1-8.7,4.6
								C422.2,418.7,422.5,421.4,422.2,425.3z"/>
						</g>
						<path class="st4" d="M447.8,639.3c0.5-3.1,1.2-7.5,2.3-13c0.6-2.9,1.3-6.6,2.3-10.9c0,0-6.6-6.5-12.2-3.4
							c-4.2,2.3-2.8,10.7-1.3,27.7c0.1,1.5,0.3,3.1,0.3,3.1c0.1,0.9,0.2,1.7,0.2,2.3c2.5-0.1,5.1-0.2,7.6-0.3c0.1-0.4,0.2-1,0.3-1.7
							C447.2,642.9,447.5,641.1,447.8,639.3z"/>
						<path class="st4" d="M416.1,639.3c-1.1-6.8-2-11.9-2.3-13c-0.6-2.9-1.3-6.6-2.3-10.9c0,0,6.6-6.6,12.2-3.4
							c3.7,2.1,2.8,10.8,1.3,27.7c-0.2,2.1-0.4,3.9-0.5,5.2c-2.5,0.1-5.1,0.1-7.6,0.2C416.8,643.5,416.5,641.6,416.1,639.3z"/>
						<path class="st6" d="M459.3,535.7c1.2,16.1,1.7,29.8,1.8,40.7c0.4,27.2-1.2,35.5-7.2,40.4c-5.1,4.1-11.7,4.6-16.7,4.2
							c-1.3-6.6-2.4-13.7-3.3-21.3c-0.9-7.9-1.4-15.4-1.6-22.4c0.8-13.3,1.6-26.5,2.4-39.8C442.9,536.9,451.1,536.3,459.3,535.7z"/>
						<path class="st6" d="M407.4,534.7c-3.4,10.5-10.8,72.6,5.8,86.2c2.2,3.6,10.6,3.9,13.3,1c1.3-6.8,2.5-13.8,3.6-21
							c1.4-9.4,2.6-18.5,3.5-27.3c0.6-3.7,1-7.6,1.2-11.9c0.4-9.2-0.3-17.3-1.4-24.1C430.5,534.4,410.3,532.9,407.4,534.7z"/>
						<g>
							<g>
								<path class="st7" d="M434.9,559.4c-0.9,15.9,3.2,31.4,15.5,42.3C436.1,593.6,430.7,574.8,434.9,559.4L434.9,559.4z"/>
							</g>
							<g>
								<path class="st7" d="M434.1,563.2c-1.1,16.1,1.9,32.4,9.8,46.6C433.3,597.2,429.9,579.1,434.1,563.2L434.1,563.2z"/>
							</g>
							<g>
								<path class="st7" d="M432.7,562.6c1.6,14.7-4.7,30.7-17.1,39.1C425.9,591,431.1,577.2,432.7,562.6L432.7,562.6z"/>
							</g>
							<g>
								<path class="st7" d="M432,561.8c5,15.9,1.5,35.4-11.5,46.6C431,595,433.8,578.4,432,561.8L432,561.8z"/>
							</g>
							<g>
								<path class="st7" d="M434.5,564c2.9,9.1,7.5,17.2,14.1,24.1C440,583.6,434.4,573.7,434.5,564L434.5,564z"/>
							</g>
							<g>
								<path class="st7" d="M433,563c-0.8,9.8-6.4,19.4-14.8,24.7C424.5,580.2,429.3,572,433,563L433,563z"/>
							</g>
						</g>
						<path class="st28" d="M405.5,541.3c6.9,2.4,17.6,5.2,30.8,4.9c9.9-0.2,18.1-2.1,24-3.9c-1.5-11.1-2.5-18.7-2.9-21.4
							c-0.1-0.6-0.4-2.5-0.6-5.1c0,0-0.1-1.2-0.2-2.6c-0.8-12.2-0.1-21.3-0.1-21.3c0.5-6.9,1.7-14.3,1.7-14.3l0,0
							c1-4.1,2.1-10.7,2.3-22c-9.8-3.1-14.3-5-15.9-6.1h0c-0.5-0.3-0.7-0.6-0.8-0.8c-0.1-0.2-0.4-1-1.1-1.4
							c-0.4-0.3-1.5-0.3-1.5-0.3c-2.1-0.3-4.4-0.5-6.9-0.6c-3.6-0.1-6.9,0.1-9.8,0.4c-0.3,0-0.7,0.1-1.2,0.5
							c-0.2,0.1-0.6,0.4-0.9,0.9c-0.1,0.2-0.2,0.5-0.3,0.6c-0.3,0.1-0.6,0.3-0.8,0.4c-5.3,2.5-9.4,4.4-10.9,5
							c-1.5,0.6-3.1,1.2-4.6,1.8c0,0.3,0,0.8,0,1.3c-0.1,7.3,1.3,11.6,2.5,20.3c0.8,5.8,1.6,12.4,2.4,26c0.1,1.3,0.2,3.8,0,7
							c-0.3,4.3-1.2,7.4-1.4,8.6C408.5,524.8,405.6,539.3,405.5,541.3z"/>
						<g>
							<path d="M444,436.6c0.3,0,0.5-0.7,0.5-1.3l-0.2,0.2c0,0.7-0.2,0.9-0.3,0.9s-0.3-0.4-0.3-1c0-0.7,0.2-1,0.3-1
								c0.1-0.1,0.1-0.1,0-0.2c-0.3,0-0.5,0.6-0.5,1.3C443.5,435.9,443.7,436.6,444,436.6z"/>
						</g>
						<path class="st4" d="M422.6,428.7c-0.3-0.9-0.1-1.3-1-1.7c-0.8-0.3-1.6,1.3-1.8,2.4c-0.2,1.2,1,5.2,1.7,5.8
							c0.7,0.6,1.5,0.8,1.8-0.2L422.6,428.7z"/>
						<g>
							<path d="M422.1,436.6c-0.3,0-0.5-0.7-0.5-1.3l0.2,0.2c0,0.7,0.2,0.9,0.3,0.9s0.3-0.4,0.3-1c0-0.7-0.2-1-0.3-1
								c-0.1-0.1-0.1-0.1,0-0.2c0.3,0,0.5,0.6,0.5,1.3C422.6,435.9,422.4,436.6,422.1,436.6z"/>
						</g>
						<path d="M422.2,416.9c1-1.4,2.5-1.1,2.7-1.2c5.7-9.3,17.4-0.9,18.8,2.3c0.5,1.3,1.2,3.6,0.9,6.3c-0.1,1.3-0.4,2.4-0.7,3.3
							c0,0,0,0.1-0.1,0.1c-0.1,1.9-0.7,3.3-0.9,3.7c-0.2,2-0.7,4.5-1.9,7.1c-0.6,1.3-1.5,3.2-3.3,4.9c-0.5,0.5-0.9,0.8-1.3,1.1
							c-2.6,0-5.2,0-7.8,0c-0.9-0.8-1.8-1.8-2.7-3.1c-2.8-4.1-3.2-8.4-3.2-10.7c0,0,0,0,0,0c-0.1-0.4-0.1-0.8-0.2-1.2
							c-0.1-0.3-0.1-0.6-0.2-1c0-0.3-0.1-0.5-0.1-0.8c-0.4-1.1-0.8-2.5-1-4.1C420.9,421,420.9,418.6,422.2,416.9z"/>
					</g>
					<path id="XMLID_00000174600566862696165120000000919682536530794403_" class="st15" d="M445.1,420.6c-5.1-4.1-21.5-3.5-24-2.9
						c-0.4,0.2-1,1.2-0.7,2.7c-0.5,1-0.5,2.3,0.2,2.8c0,0,0,0,0,0.1c0,0.4,0.3,0.7,0.7,0.7c2.8-0.2,15.7-1.6,22.6,2.6
						c0.3,0.2,0.7,0.1,0.9-0.2c0.2-0.3,0.3-0.9,0.2-1.6c0.7-0.6,0.5-2.1,0.3-2.5C445.4,421.4,445.3,420.8,445.1,420.6z"/>
					<path class="st28" d="M458.9,531.7c0.8,6.7,1.7,13.6,2.9,20.7c0.5,3,1,6,1.5,8.9c-6.5,2.4-16,5.2-27.8,5.7
						c-14.4,0.7-26-2.2-33.2-4.6c0.6-4.7,1.3-9.5,2-14.4c0.8-5,1.6-10,2.5-14.7c4.5,2.4,16.9,8.3,32.8,5.8
						C448.3,537.7,454.9,534.3,458.9,531.7z"/>
					<path class="st4" d="M368.3,470.3c2.8,6.1,5.6,10.9,7.8,14.3c2.5,3.9,10,15.5,15.2,14.8c0.6-0.1,1.9-0.4,6.7-5.9
						c3.8-4.4,6.6-8.4,8.3-11.2c-4.4-2.1-8.7-4.2-13.1-6.3c-1.6,2-3.3,4.1-4.9,6.1c-4.9-5.4-9.8-10.9-14.7-16.3
						C371.8,467.3,370.1,468.8,368.3,470.3z"/>
					<g>
						<path class="st28" d="M406.8,455.6c-0.9,0.3-2.2,0.8-3.7,1.7c-3.8,2.3-5.4,5.4-8.8,11.4c-1.2,2.1-3.2,5.7-6,10.5
							c4.9,3.1,9.9,6.2,14.8,9.2c2.4-2.5,4.7-5,7.1-7.5C409.1,472.5,408,464,406.8,455.6z"/>
						<path class="st11" d="M386.7,481.4c5,3.4,9.9,6.8,14.9,10.2c0.3-0.4,0.6-0.9,0.9-1.4c0.7-1.1,1.5-2.1,2.3-3
							c-2.3-1.5-4.6-3-6.9-4.6c-3-2.1-5.8-4.2-8.5-6.3C388.4,478.1,387.5,479.7,386.7,481.4z"/>
					</g>
				</g>
				<path class="st28" d="M459.3,455.2c1,0.2,2.7,0.6,4.4,1.8c5.6,3.9,6.3,11.9,6.8,18.3c0.2,2.3,0.3,5.6,0,9.5
					c-5.1,0.1-10.2,0.2-15.3,0.2c-0.1-6.5-0.2-12.9-0.3-19.4C456.4,462.2,457.8,458.7,459.3,455.2z"/>
				<path class="st11" d="M456.4,488.3c5.2-0.2,10.3-0.3,15.5-0.5c0-0.5-0.1-1.1-0.1-1.6c0-1.3,0-2.6,0.1-3.8
					c-2.7,0-5.5,0.1-8.3,0.2c-2.4,0.1-4.8,0.2-7.1,0.3C456.4,484.7,456.4,486.5,456.4,488.3z"/>
			</g>
			<path class="st39" d="M447,652.3c0.2,0.4,0.5,0.9,0.7,1.7c0.1,0.5,0.8,3.1-0.6,4.5c-0.9,1-2.4,0.9-4.3,0.8
				c-1.6-0.1-3.6-0.2-4.3-1.5c-0.4-0.7-0.4-1.7-0.4-2.4c0-0.2,0-0.8,0.2-1.5c0.2-0.9,0.5-1.6,0.7-2.1c0.2-0.2,2.8-2.2,5.7-1.2
				C445.8,651,446.6,651.8,447,652.3z"/>
			<path class="st4" d="M439.2,653c0,0-0.1,0.3-0.2,0.7c-0.1,0.6-0.2,1.3,0,2c0.3,0.9,0.9,1.5,1.1,1.7c0.9,0.7,1.8,0.7,3.1,0.7
				c1.2,0,2.1,0,2.9-0.6c0.5-0.4,0.8-1,0.8-1.2c0.3-0.7,0.2-1.3,0.2-2c-0.1-0.7-0.3-1.3-0.3-1.3c-0.3-0.9-0.3-3.6,0.3-10.5h-7.9
				C439.5,649.6,439.4,652.3,439.2,653z"/>
			<path class="st39" d="M416.9,652.3c-0.2,0.4-0.5,0.9-0.7,1.7c-0.1,0.5-0.8,3.1,0.6,4.5c0.9,1,2.4,0.9,4.3,0.8
				c1.6-0.1,3.6-0.2,4.3-1.5c0.4-0.7,0.4-1.7,0.4-2.4c0-0.2,0-0.8-0.2-1.5c-0.2-0.9-0.5-1.6-0.7-2.1c-0.2-0.2-2.8-2.2-5.7-1.2
				C418.1,651,417.3,651.8,416.9,652.3z"/>
			<path class="st4" d="M424.6,653c0,0,0.1,0.3,0.2,0.7c0.1,0.6,0.2,1.3,0,2c-0.3,0.9-0.9,1.5-1.1,1.7c-0.9,0.7-1.8,0.7-3.1,0.7
				c-1.2,0-2.1,0-2.9-0.6c-0.5-0.4-0.8-1-0.8-1.2c-0.3-0.7-0.2-1.3-0.2-2c0.1-0.7,0.3-1.3,0.3-1.3c0.3-0.9,0.3-3.6-0.3-10.5h7.9
				C424.3,649.6,424.4,652.3,424.6,653z"/>
			<path class="st11" d="M421.3,449.1c3.6,0.3,7.5,0.6,11.7,0.6c4.1,0.1,8-0.1,11.5-0.4c-0.5-0.3-0.7-0.6-0.8-0.8
				c-0.1-0.2-0.4-1-1.1-1.4c-0.4-0.3-1.5-0.3-1.5-0.3c-2.1-0.3-4.4-0.5-6.9-0.6c-3.6-0.1-6.9,0.1-9.8,0.4c-0.3,0-0.7,0.1-1.2,0.5
				c-0.2,0.1-0.6,0.4-0.9,0.9c-0.1,0.2-0.2,0.5-0.3,0.6C421.8,448.9,421.6,449,421.3,449.1z"/>
		</g>
	</g>
	<path style="clip-path:url(#SVGID_00000094578100636553035540000006805027124863208345_);fill:#1154A5;" d="M705,307
		c6.5,1.5,12.9,3,19.4,4.4c-0.4,1.7-0.7,3.3-1.1,5c-6.3-1.3-12.7-2.7-19-4C704.5,310.6,704.7,308.8,705,307z"/>
	<path style="clip-path:url(#SVGID_00000094578100636553035540000006805027124863208345_);fill:#1154A5;" d="M705.6,274.6
		c-0.6,0.8-1.2,1.8-1.7,3c-1.2,2.9-1,5.6-0.8,7c-0.6-0.6-1.8-2-2.1-4.1c-0.1-0.6-0.5-3.7,1.5-5.2
		C703.8,274.5,705.1,274.5,705.6,274.6z"/>
</g>
</svg>
