<?xml version="1.0" encoding="utf-8"?>
<!-- Generator: Adobe Illustrator 26.0.1, SVG Export Plug-In . SVG Version: 6.00 Build 0)  -->
<svg version="1.1" id="Layer_1" xmlns="http://www.w3.org/2000/svg" xmlns:xlink="http://www.w3.org/1999/xlink" x="0px" y="0px"
	 viewBox="0 0 720 792" style="enable-background:new 0 0 720 792;" xml:space="preserve">
<style type="text/css">
	.st0{fill:#BDDEEF;}
	.st1{fill:#52A7C1;}
	.st2{fill:#99CCE0;}
	.st3{fill:#81CCC6;}
	.st4{fill:#FCB99B;}
	.st5{fill:#0066A5;}
	.st6{fill:#CD070C;}
	.st7{fill:#3E8ACE;}
	.st8{fill:#1E1E1E;}
	.st9{fill:#990000;}
	.st10{fill:#526672;}
	.st11{fill:#5E271B;}
	.st12{fill:#EA906C;}
	.st13{fill:#FFFFFF;}
	.st14{fill:#6B3628;}
	.st15{fill:#1D1818;}
	.st16{fill:#250A01;}
	.st17{fill:#531CBF;}
	.st18{fill:#EA4E5A;}
	.st19{fill:#EE252A;}
	.st20{fill:#353535;}
	.st21{fill:#DB2818;}
	.st22{fill:#C21111;}
	.st23{fill:#FFCC00;}
	.st24{fill:#E7372E;}
	.st25{fill-rule:evenodd;clip-rule:evenodd;fill:#6F8FA3;}
	.st26{fill-rule:evenodd;clip-rule:evenodd;fill:#426276;}
	.st27{fill-rule:evenodd;clip-rule:evenodd;fill:#5D65B2;}
	.st28{fill-rule:evenodd;clip-rule:evenodd;fill:#979DFF;}
	.st29{fill-rule:evenodd;clip-rule:evenodd;fill:#222B56;}
	.st30{fill-rule:evenodd;clip-rule:evenodd;fill:#ACDAF7;}
	.st31{fill-rule:evenodd;clip-rule:evenodd;fill:#5CA4D1;}
	.st32{fill-rule:evenodd;clip-rule:evenodd;fill:#AEC2CF;}
	.st33{fill-rule:evenodd;clip-rule:evenodd;fill:#171E3A;}
	.st34{fill-rule:evenodd;clip-rule:evenodd;fill:#444EAD;}
	.st35{fill-rule:evenodd;clip-rule:evenodd;fill:#5DA333;}
	.st36{fill-rule:evenodd;clip-rule:evenodd;fill:#AD2C5D;}
</style>
<g>
	<path class="st0" d="M701.3,584.1c-2.4,23.9-10.5,45.4-21.9,63.4c0,0.1-0.1,0.1-0.1,0.2c-1.4,2.2-17.1,25.5-43.8,43.4
		c-76,51-250.8,49.6-281.2,49.2c0,0-143.1-2.3-238.9-50.1c-14.8-7.4-25.8-17.6-25.8-17.6c-7.2-6.7-15.8-14.3-21.4-23.7
		c-1-1.6-2-3.3-2.9-5C26.2,580.6,24.4,526.6,25,504.7c2.5-93,63.7-158.9,102.5-200.8c60-64.7,76.9-44.4,112.5-99.9
		c44.4-69.2,31-120.7,76.4-160.1c2.3-2,49.9-42.1,97.8-22.4c48,19.7,42.5,77.3,100.1,119.2c47.2,34.3,66.9,5.7,96.7,39
		c41.6,46.4,30.2,136.6,44.6,208C669.1,454.8,708.3,515.1,701.3,584.1z"/>
	<path class="st1" d="M679.3,647.5c0,0.1-0.1,0.1-0.1,0.2c-1.4,2.2-17.1,25.5-43.8,43.4c-76,51-250.8,49.6-281.2,49.2
		c0,0-143.1-2.3-238.9-50.1c-14.8-7.4-25.8-17.6-25.8-17.6c-7.2-6.7-15.8-14.3-21.4-23.7c63.6-10,178.6-16.6,309.9-16.6
		C503.6,632.2,614.3,638.2,679.3,647.5z"/>
	<g>
		<g>
			<path class="st2" d="M168.6,612.5c-9-28.9-1.9-67.1,17.2-90.7c-1.8,13.7-5.9,31.8-8.4,45.4C174.4,582.3,172.3,597.2,168.6,612.5
				L168.6,612.5z"/>
			<path class="st2" d="M156.2,609.5c-4.1-17.2-7.3-33.8-12.6-50.4c-5.1-16.6-11.7-31.9-19.5-47.8c3.7,2.6,7.1,5.7,10.2,9
				C155,543.6,163.8,579.3,156.2,609.5L156.2,609.5z"/>
			<path class="st1" d="M158.9,626.1c-1.4-26-1.1-62.8-1.3-89.1c0.1-26.3-0.6-63.1,0.7-89.1c7.4,28.8,10,59,10.3,89.1
				C168.5,567,166.1,597.2,158.9,626.1L158.9,626.1z"/>
		</g>
		<path class="st3" d="M179.8,647.6c-5,1.1-11.5,2.1-19.1,2c-6.6-0.1-12.3-1-16.9-2c-2.8-17-5.8-35-8.9-54.1h53.9L179.8,647.6z"/>
	</g>
	<g>
		<g>
			<path class="st1" d="M485.8,371.1H289.7V239.6h196.1V371.1z M297.7,363.1h180.1V247.6H297.7V363.1z"/>
		</g>
	</g>
	<g>
		<g>
			<g transform="matrix( -1.1695404052734375, 0.6071929931640625, 0.6146087646484375, 1.1432952880859375, 5196.8,604.6) ">
				<g>
					<path class="st4" d="M3170-1902.7c-11-15.5-16.9-23.5-20.1-27.9c0,0-1.1-1.5-2.6-3.6c-4.7-6.3-7.9-10.9-9.7-13.8
						c-0.8-1.6-2-3.5-3.4-5.5c-5-6.4-9.9-9.6-14.9-9.4c1.8,1.6,2.7,3.8,2.7,6.7c0,1.3,0,1.2,0-0.2c0.3,2.6-0.6,6.4-2.7,11.5
						c-0.7,1.7-1.2,2.9-1.7,3.8l0,0c0.4,1.6,1.3,3.4,2.8,5.3l3.1,3.2l-0.4-0.4l1.8,1.7c-0.1,0-0.1-0.1-0.2-0.1l3,3.1
						c0.5,0.4,1,0.9,1.4,1.4c0.7,0.7,2.3,2.2,5,4.7l23.9,24.8C3161.9-1899.1,3166-1900.9,3170-1902.7z"/>
				</g>
			</g>
			<g transform="matrix( -1.1695404052734375, 0.6071929931640625, 0.6146087646484375, 1.1432952880859375, 5173.75,644.15) ">
				<g transform="matrix( 1, 0, 0, 1, 0,0) ">
					<g>
						<g id="Symbol_1g_0_Layer0_0_FILL_00000029753910857672454250000015241057265149420459_">
							<path class="st5" d="M3103.4-1975.1c-1.5-2.1-3-3.6-4.1-4.6c-1.8-1.6-2.9-2.6-4.7-3.2c-2.3-0.7-4.5-0.3-5.8,0.1
								c-1.1,4.2-2.2,8.5-3.4,12.7c-0.2,1.3-0.3,2-0.2,2c-0.3,4.4-0.3,7.6-0.2,9.7l24.9,23.6c4.1-3,7.9-7,11.2-11.8
								c0.7-1.1,1.1-1.6,1.2-1.6L3103.4-1975.1z"/>
						</g>
					</g>
				</g>
			</g>
			<g transform="matrix( 0.3377532958984375, 0, 0, 0.3377532958984375, 5280.4,571.5) ">
				<g transform="matrix( 1, 0, 0, 1, 0,0) ">
					<g>
						<g id="Seragu_0_Layer0_0_FILL_00000173865969648869613230000004221784799035318946_">
							<path class="st6" d="M-14421.2-181l-1.4,56.8c46.6,8.2,93.3,6.8,139.9-4.1l-3.5-68.9
								C-14331.1-188.1-14376.2-182.7-14421.2-181z"/>
							<path class="st7" d="M-14333.4-941.1c-19.9-4.6-41.5-7.8-64.7-9.4l-23,769.5c45-1.7,90-7.1,135.1-16.2L-14333.4-941.1z"/>
							<path class="st6" d="M-14337.2-943.3c17,248.7,34.1,497.4,51.1,746.1l3.5,68.9c13.9-3.7,20.3-4,28.7-16.9
								c-19.6-264.2-39.3-528.4-58.9-792.6C-14321-939.6-14329.1-941.5-14337.2-943.3z"/>
						</g>
					</g>
				</g>
			</g>
			<path class="st4" d="M455.7,383.1c0.8-10.6-0.4-20.6-2.1-27.1c-1.3-4.9-9.8,3.2-15.5,7.6l-0.4,0.1c-2.5,20.1,7.8,40.5-0.5,59.9
				c0.4-0.2,2.5-0.5,2.5-0.5c1,3.2,5.8,4.6,7.9,2.5C450.8,411.3,454.6,403.3,455.7,383.1z"/>
			<path class="st4" d="M453.5,351.8c-0.7-16.1-1.4-29.1-2.2-39c-0.2-2-0.3-4-0.4-5.8c-0.8-10.3-1.2-17.7-1.2-22.2
				c0.2-2.4,0.2-5.3,0-8.5c-1-10.7-4.5-17.7-10.2-21c1,3.1,0.4,6.2-1.8,9.3c-1,1.4-0.9,1.4,0.2-0.2c-1.5,3.1-5.3,6.7-11.3,10.9
				c-2,1.4-3.5,2.4-4.6,3l0,0c-0.8,2.1-0.9,4.7-0.6,7.8l1.3,5.8l-0.2-0.7l0.8,3.2c0-0.1-0.1-0.2-0.1-0.3l1.2,5.6
				c0.2,0.8,0.4,1.7,0.6,2.5c0.3,1.2,1.1,4.1,2.3,8.7l9.4,44.5c0.9,4.9,1.1,10.2,0.6,16l13.6-14.8c0.7-0.2,1.4-0.3,2-0.4
				C454,359,453.9,357.5,453.5,351.8z"/>
			<g transform="matrix( -1.1695404052734375, 0.6071929931640625, 0.6146087646484375, 1.1432952880859375, 5173.75,644.15) ">
				<g transform="matrix( 1, 0, 0, 1, 0,0) ">
					<g>
						<g id="Symbol_1g_0_Layer0_0_FILL_00000146500141722730002380000015852826107956400056_">
							<path class="st5" d="M3024.4-1932.1c-1.1-2.3-1.6-4.4-2-5.9c-0.5-2.3-0.9-3.9-0.5-5.7c0.5-2.4,1.9-4.1,2.9-5.1
								c4.2,1.1,8.4,2.2,12.6,3.3c1.2,0.4,1.8,0.7,1.8,0.8c3.9,1.9,6.7,3.5,8.5,4.6l8.2,33.5c-4.7,2.1-9.9,3.5-15.7,4
								c-1.3,0.1-1.9,0.2-2,0.2L3024.4-1932.1z"/>
						</g>
					</g>
				</g>
			</g>
			<g transform="matrix( 0.3377532958984375, 0, 0, 0.3377532958984375, 3290.05,391.6) ">
				<g>
					<g id="Layer4_0_MEMBER_3_FILL_00000083773057374773869860000012314718106002095025_">
						<path class="st4" d="M-8657.9,714.5v7.7c-1.7,5-3.9,9.9-6.5,14.8c-4.2,10.1-7.7,18.6-10.5,25.3c-2.1,4.3-3.8,8.8-5.2,13.3
							c-0.5,1-0.9,2.1-1.3,3.2c0,0.6,0,1.3-0.1,1.9c-0.7,4.6-1,17.6,4.9,25.9c8,11.4,25.7,10.4,28.6,10.2
							c14.7-1.1,24.1-10.7,26.9-13.9c1.6-1.8,2.7-3.5,3.5-4.6c0.3-3.6,0.7-8.2,1-13.5c0.2-4.2,0.7-12.5,0.6-22.9
							c-0.1-9.6-0.4-18.9-0.9-27.8c-0.3-6.5-0.4-10.4-0.4-11.5v-0.1h-0.1c0.2-3,0.2-6.1,0.1-9.4
							C-8625.1,702-8638.6,702.4-8657.9,714.5z"/>
					</g>
				</g>
			</g>
			<g transform="matrix( 1.2063140869140625, 0.1528778076171875, -0.1528778076171875, 1.2063140869140625, 5202.45,1176.9) ">
				<g transform="matrix( 1, 0, 0, 1, 0,0) ">
					<g>
						<g id="Duplicate_Items_Folder_1s1hoe_lft_0_Layer0_0_FILL_00000108311422898657732280000007257625082221413308_">
							<path class="st8" d="M-4004,94.1c1.6,1.6,4,1.8,7.3,0.7c1.8-0.7,3.3-1.9,4.5-3.6c1.1-1.7,1.9-3.3,2.4-4.8
								c1.1-3.4,1.7-6,1.6-7.8c-0.1,1.8-0.6,4.2-1.6,7.2c-0.5,1.5-1.3,3.1-2.4,4.8c-1.1,1.7-2.6,2.8-4.5,3.6
								c-3.3,1.1-5.7,0.9-7.3-0.7c-1.9-2-3-4.8-3.3-8.3C-4007.1,89-4006,91.9-4004,94.1z"/>
							<path class="st9" d="M-4006.3,75.3l-0.1,0c-0.2,1.2-0.5,2.9-0.7,5c-0.1,0.6-0.1,1.2-0.1,1.8c0,0.5,0,1.1,0,1.6l0,1.5
								c0.3,3.5,1.4,6.2,3.3,8.3c1.6,1.6,4,1.8,7.3,0.7c1.8-0.7,3.3-1.9,4.5-3.6c1.1-1.7,1.9-3.3,2.4-4.8c1-3,1.6-5.5,1.6-7.2
								c0-0.3,0-0.5-0.1-0.7c-0.2,0.4-0.4,0.7-0.7,1c-2.2,3-4.9,4.7-8,5c-0.8,0.1-1.5,0.1-2.1,0.1C-4004,83.9-4006.4,81-4006.3,75.3
								z"/>
							<path class="st10" d="M-4006.3,75.3c0-0.1,0-0.3,0-0.4c0,0.1-0.1,0.3-0.1,0.4L-4006.3,75.3z"/>
						</g>
					</g>
				</g>
			</g>
			<g transform="matrix( 0.337738037109375, 0, 0, 0.337738037109375, 3216.95,391.6) ">
				<g>
					<g id="Layer4_0_MEMBER_4_MEMBER_0_FILL_00000067217838369953464500000006160800975940564151_">
						<path class="st4" d="M-8367.3,718.5v0.1c0,1.1-0.1,4.9-0.4,11.5c-0.5,8.9-0.8,18.2-0.9,27.8c-0.1,9.6,0.1,17.2,0.6,22.9
							c0.6,5.5,0.9,8.5,0.9,8.9c0.2,0.7,0.3,1.4,0.4,2.2c0.1,0.1,0.1,0.2,0.1,0.2c0,0.3,0,0.5,0,0.8c0,0.3,0,0.7,0,1
							c0.4,0.4,0.7,0.9,1,1.3c0,0,0.9,1.1,1.9,2.2c17.2,18.8,38.4,16.1,38.4,16.1c4.2-0.5,13-1.6,19.1-9c6.5-7.9,5.6-18,5.4-20.2
							c-0.4-4.1-1.5-7.4-2.5-9.6c-0.3-1.1-0.8-2.2-1.3-3.2c-1.4-4.5-3.2-8.9-5.2-13.3c-2.8-6.7-6.3-15.1-10.5-25.3
							c-2.6-4.8-4.8-9.8-6.5-14.8v-7.7c-19.4-12.1-32.9-12.5-40.6-1.4c0,1.6,0,3.2,0,4.8C-8367.4,715.4-8367.3,717-8367.3,718.5z"/>
					</g>
				</g>
			</g>
			<g transform="matrix( -1.2062835693359375, 0.152862548828125, 0.152862548828125, 1.2062835693359375, 5292.25,1175.25) ">
				<g transform="matrix( 1, 0, 0, 1, 0,0) ">
					<g>
						<g id="Duplicate_Items_Folder_1s1hoe_lft_0_Layer0_0_FILL_00000026860742729660249190000001947612017156319413_">
							<path class="st8" d="M3929.4-910.9c1.6,1.6,4,1.8,7.3,0.7c1.8-0.7,3.3-1.9,4.5-3.6c1.1-1.7,1.9-3.3,2.4-4.8
								c1.1-3.4,1.7-6,1.6-7.8c-0.1,1.8-0.6,4.2-1.6,7.2c-0.5,1.5-1.3,3.1-2.4,4.8c-1.1,1.7-2.6,2.8-4.5,3.6
								c-3.3,1.1-5.7,0.9-7.3-0.7c-1.9-2-3-4.8-3.3-8.3C3926.3-916,3927.4-913.1,3929.4-910.9z"/>
							<path class="st9" d="M3927.1-929.7l-0.1,0c-0.2,1.2-0.5,2.9-0.7,5c-0.1,0.6-0.1,1.2-0.1,1.8c0,0.5,0,1.1,0,1.6l0,1.5
								c0.3,3.5,1.4,6.2,3.3,8.3c1.6,1.6,4,1.8,7.3,0.7c1.8-0.7,3.3-1.9,4.5-3.6c1.1-1.7,1.9-3.3,2.4-4.8c1-3,1.6-5.5,1.6-7.2
								c0-0.3,0-0.5-0.1-0.7c-0.2,0.4-0.4,0.7-0.7,1c-2.2,3-4.9,4.7-8,5c-0.8,0.1-1.5,0.1-2.1,0.1
								C3929.4-921.1,3927-924,3927.1-929.7z"/>
							<path class="st10" d="M3927.1-929.7c0-0.1,0-0.3,0-0.4c0,0.1-0.1,0.3-0.1,0.4L3927.1-929.7z"/>
						</g>
					</g>
				</g>
			</g>
			<g transform="matrix( 0.337738037109375, 0, 0, 0.337738037109375, 3216.95,391.6) ">
				<g transform="matrix( 2.9608612060546875, 0, 0, 2.9608612060546875, -9524.95,-1159.45) ">
					<path class="st11" d="M-8271.6,36.7c-0.1,0-0.1,0-0.1-0.1l0-0.6c0-0.1,0-0.1,0.1-0.1h0c0.1,0,0.1,0,0.1,0.1l0,0.6
						C-8271.5,36.7-8271.6,36.7-8271.6,36.7L-8271.6,36.7z"/>
				</g>
			</g>
			<g transform="matrix( 1.428558349609375, 0.0227203369140625, -0.0227203369140625, 1.428558349609375, 5228.6,548.25) ">
				<g transform="matrix( 0.2199859619140625, 0, 0, 0.2199859619140625, -228.9,-225.1) ">
					<g>
						<g id="Duplicate_Items_Folder_1c2h_hair_ul_0_Layer0_0_MEMBER_0_FILL_00000070806647506425133910000000595315814305163924_">
							<path d="M-14303.4,268C-14303.4,268-14303.3,268-14303.4,268C-14303.3,268-14303.3,268-14303.4,268c2.7-4.1,5.3-8.5,7.7-13.2
								c13.5-26.2,16.9-51.9,17.1-71.1c0.1-3.7,0.2-40.1-25.7-59.9c-14.3-10.9-32.5-13.8-33.7-14c-12.5-1.7-24.7-0.6-36.8,3.3
								c-10.1,3.3-19.4,8.3-27.9,15c-0.6,0.5-1.3,1-1.9,1.5c-2.2,2.1-4.4,4.3-6.5,6.7c-11.9,13.1-20.8,27.8-26.7,44.1
								c-5.9,16.2-8.5,33.2-7.8,50.9c0.7,17.7,4.8,34.4,12,50.1c4.7,10.2,10.5,18.6,17.2,25.4c7.9,7.8,16.5,12.6,25.8,14.4
								c8.8,1.7,18.1,0.7,27.9-2.9c9.9-3.7,11.9-9.5,25.2-14.5c8.5-3.2,7.8-1.1,11.4-3.4C-14314,292.7-14303.4,268-14303.4,268z"/>
						</g>
					</g>
				</g>
			</g>
			<g transform="matrix( 0.3377532958984375, 0, 0, 0.3377532958984375, 3216.95,368.4) ">
				<g>
					<g id="Layer4_0_MEMBER_6_FILL_00000067949482145319812080000011673862291020206221_">
						<path class="st4" d="M-8252.9-308.5c-15.5,8.7-37.7,19.2-65.5,26.7c-48.2,13-87.5,10.3-102.5,8.8
							c-47.9-4.8-84.4-21.1-105.8-32.8c0.9-7.8,2.9-14.8,6-21.2c0.6-1,1.1-2,1.7-3c3.8-6,11.5-10.8,23.1-14.5
							c2.3-0.8,4.8-1.4,7.5-2.1c0.1-0.1,0.2-0.1,0.4-0.1h0.3c0.5-0.2,9-4.2,25.4-11.9c14-6.7,23.4-18.4,28.3-35.1l1.3-10l0.4-43.3
							l78.1,1.2v38.9c0.6,3.7,1.5,7.3,2.6,10.7c7.7,23.7,27.1,40,58.4,49c0.5,0.1,1,0.3,1.5,0.5h0.4c0.2,0,0.3,0,0.4,0.1
							c15.8,3.9,25.9,9.4,30.5,16.6c0.6,1,1.1,2,1.6,3C-8255.9-321.4-8254-315.2-8252.9-308.5z"/>
						<path class="st12" d="M-8352-397.7c-1.1-3.4-1.5-5.3-2.1-9.1v-38.9l-78.1-1.2l-0.4,43.3l-0.7,5.5
							c15.6,12.2,26.6,21.5,41.3,23.2C-8376.5-376.3-8365.5-387.4-8352-397.7z"/>
					</g>
				</g>
			</g>
			<g transform="matrix( -0.3599700927734375, 0, 0, 0.3599700927734375, 7402.85,360) ">
				<g>
					<g id="Layer4_0_MEMBER_7_MEMBER_0_MEMBER_0_FILL_00000132064390693305782800000006221438547574060431_">
						<path class="st4" d="M19572.3-448.3c-3.5-0.6-6.9,1.2-10.2,5.4c-3.2,4.2-5.4,9.6-6.5,16.1c-1.1,6.5-0.9,12.3,0.8,17.4
							c1.7,5,4.3,7.8,7.8,8.4c3.5,0.6,6.9-1.2,10.1-5.4c3.3-4.2,5.5-9.6,6.6-16.1s0.8-12.3-0.9-17.4
							C19578.4-444.9,19575.8-447.7,19572.3-448.3z"/>
					</g>
				</g>
			</g>
			<g transform="matrix( 0.3599700927734375, 0, 0, 0.3599700927734375, 3083.15,360.9) ">
				<g>
					<g id="Layer4_0_MEMBER_7_MEMBER_1_MEMBER_0_MEMBER_0_FILL_00000068657463147798939050000017361065544448161450_">
						<path class="st4" d="M-7438.5-448.6c-3.5-0.6-6.9,1.2-10.2,5.4c-3.2,4.2-5.4,9.6-6.5,16.1c-1.1,6.5-0.9,12.3,0.8,17.4
							c1.7,5,4.3,7.8,7.8,8.4c3.5,0.6,6.9-1.2,10.1-5.4c3.3-4.2,5.5-9.6,6.6-16.1s0.8-12.3-0.9-17.4
							C-7432.4-445.2-7435-448-7438.5-448.6z"/>
					</g>
				</g>
			</g>
			<g transform="matrix( 0.337738037109375, 0, 0, 0.337738037109375, 3216.95,368.4) ">
				<g>
					<g id="Layer4_0_MEMBER_7_MEMBER_2_FILL_00000108302225046511874350000007161234686235441541_">
						<path class="st4" d="M-8438.2-602.6c-28.7,22.4-38.9,66.9-22.7,109c4.8,40.4,13.1,65.9,24.7,76.7c11.6,10.8,21,18.3,28.1,22.6
							c1.8,1.1,4.8,4,9.5,5c2.8,0.6,5.7,0.6,6.9,0.6c2.7,0,5-0.3,6.7-0.6c2.7-1.2,5.8-2.9,9.4-5c7.2-4.3,16.7-11.8,28.3-22.6
							c11.5-10.8,20.1-36.5,25.6-77.2c14.4-42.3,8.2-84.8-16.9-107.1c-13.5-12-29.6-15.8-33.8-16.7
							C-8398.3-623.5-8423-614.5-8438.2-602.6z"/>
					</g>
				</g>
				<g>
					<g transform="matrix( 0.3377532958984375, 0, 0, 0.3377532958984375, 3216.95,368.4) ">
						<g>
							<g id="Layer4_0_MEMBER_10_FILL_00000037680293800430945820000004437896239161791665_">
								<path class="st13" d="M-34465.9-2518.6c29.5,4.2,53.3-8.5,61.8-13.5c-4.2-12.1-14.4-21.9-30.7-29.4c-3-1.2-6.1-2.2-9.2-3.2
									c-10.5-3-21-4.2-31.5-3.5c-10.9,1-22,4.1-33.1,9.3c-7.7,3.4-12.6,6.9-14.7,10.7c4.9,4.9,12.2,11.3,22.1,17
									C-34484.2-2521.4-34468.9-2519-34465.9-2518.6z"/>
							</g>
						</g>
					</g>
					<g>
						<g transform="matrix( 1.0824432373046875, -0.0170745849609375, 0.0170745849609375, 1.0824432373046875, 5226.3,494.1) ">
							<g transform="matrix( 1, 0, 0, 1, 0,0) ">
								<g>
									<g id="Duplicate_Items_Folder_ch3eye_ball_0_Layer0_0_FILL_00000019679325558709361190000015577864091701929105_">
										<path class="st14" d="M-12583.6-1108.1c0,2.2-0.9,4.1-2.6,5.6c-1.6,1.7-3.6,2.5-5.9,2.4c-2.3,0-4.2-0.9-5.9-2.6
											c-1.6-1.6-2.4-3.5-2.3-5.7c0-2.3,0.9-4.3,2.5-5.9c0.8-0.8,1.7-1.3,2.7-1.7l0.3,0c2.7,0.1,5.5,0.6,8.3,1.4c0,0,0,0,0,0
											c0.2,0.2,0.4,0.3,0.5,0.5C-12584.4-1112.4-12583.6-1110.4-12583.6-1108.1z"/>
									</g>
								</g>
							</g>
							<g transform="matrix( 1.2004852294921875, 0, 0, 1.2004852294921875, -268.9,-88.45) ">
								<g>
									
										<g id="Duplicate_Items_Folder_ch3eye_ball_0_Layer0_0_MEMBER_0_MEMBER_0_FILL_00000155867166713230116250000000256063705067731127_">
										<path class="st15" d="M-10265-852.2c-1,0-1.9,0.3-2.6,0.9c-0.6,0.7-1,1.6-1,2.6c0,1,0.3,1.8,0.9,2.4
											c0.7,0.7,1.6,1.1,2.6,1.1c1,0,1.8-0.3,2.4-1c0.7-0.6,1.1-1.4,1.1-2.4c0-1-0.3-1.9-1-2.6
											C-10263.2-851.9-10264-852.2-10265-852.2z"/>
									</g>
								</g>
							</g>
							<g transform="matrix( 1.5006103515625, 0, 0, 1.5006103515625, -7.4,7.4) ">
								<g>
									
										<g id="Duplicate_Items_Folder_ch3eye_ball_0_Layer0_0_MEMBER_0_MEMBER_1_FILL_00000013166816985285330240000015161945561182868870_">
										<path class="st13" d="M-8388-744.2c0.2-0.1,0.3-0.3,0.3-0.6c0-0.2-0.1-0.4-0.3-0.6c-0.1-0.2-0.3-0.3-0.6-0.3
											c-0.2,0-0.4,0.1-0.6,0.3c-0.2,0.2-0.3,0.4-0.3,0.6c0,0.3,0.1,0.5,0.3,0.6c0.2,0.2,0.4,0.3,0.6,0.3
											C-8388.3-743.9-8388.1-744-8388-744.2z"/>
									</g>
								</g>
							</g>
						</g>
						<path class="st16" d="M-8451.9-493.7c2.4,2.4,14,13.4,30.8,12.7c7.2-0.3,12.8-2.6,16.3-4.5c1.1,0.3,2.3,0,1.6-1.3
							c-0.1-0.1-0.1-0.3-0.2-0.4c-1.9-4.9-4.6-7.8-6.4-9.3c-7.5-6.7-19.5-8.2-28.1-3.3c-3.3,1.8-5.4,4.2-6.7,6c0,0-0.1,0-0.1,0
							C-8446.9-493.5-8449.3-493.4-8451.9-493.7z M-8440.9-491.3c0.8-0.9,7.8-8,18.4-7c11.5,1,17.1,10.5,17.6,11.4
							c-2,1.2-10.2,5.8-20.7,3.8C-8433.8-484.7-8439-489.3-8440.9-491.3z"/>
					</g>
				</g>
				<g>
					<g transform="matrix( 0.3377532958984375, 0, 0, 0.3377532958984375, 3216.95,368.4) ">
						<g>
							<g id="Layer4_0_MEMBER_10_FILL_00000043434501078980779040000000743205715879055764_">
								<path class="st13" d="M-34283.3-2515.3c-28.9,3.6-52.3-9.9-60.6-15.3c11.4-20.1,24.9-26.8,30.5-29c3.8-1.5,7.7-2.5,9.3-2.9
									c10.6-2.7,21.1-3.5,31.6-2.5c10.9,1.3,21.8,4.7,32.8,10.3c7.6,3.6,12.4,7.3,14.3,11.2c-5,4.7-12.5,10.8-22.6,16.3
									C-34252.8-2524.6-34266.4-2517.4-34283.3-2515.3z"/>
							</g>
						</g>
					</g>
					<g>
						<g transform="matrix( 1.0824432373046875, -0.0170745849609375, 0.0170745849609375, 1.0824432373046875, 5226.3,494.1) ">
							<g transform="matrix( 1, 0, 0, 1, 0,0) ">
								<g>
									<g id="Duplicate_Items_Folder_ch3eye_ball_0_Layer0_0_FILL_00000178897779638367534110000004757235165692038784_">
										<path class="st14" d="M-12545.4-1106.9c-0.1,2.2,0.6,4.2,2.3,5.8c1.5,1.8,3.4,2.7,5.8,2.8c2.2,0.1,4.2-0.6,6-2.2
											c1.7-1.5,2.6-3.3,2.7-5.6c0.1-2.3-0.6-4.3-2.2-6.1c-0.8-0.8-1.6-1.4-2.5-1.9l-0.3,0c-2.7-0.1-5.5,0.2-8.4,0.9c0,0,0,0,0,0
											c-0.2,0.1-0.4,0.3-0.5,0.5C-12544.4-1111.1-12545.3-1109.2-12545.4-1106.9z"/>
									</g>
								</g>
							</g>
							<g transform="matrix( 1.2004852294921875, 0, 0, 1.2004852294921875, -268.9,-88.45) ">
								<g>
									
										<g id="Duplicate_Items_Folder_ch3eye_ball_0_Layer0_0_MEMBER_0_MEMBER_0_FILL_00000171705626683177993560000006016940878898504340_">
										<path d="M-10219.1-850.7c1,0,1.8,0.4,2.5,1.1c0.6,0.7,0.9,1.6,0.8,2.6c0,1-0.4,1.8-1.1,2.4c-0.8,0.7-1.6,1-2.6,1
											c-1,0-1.8-0.4-2.4-1.2c-0.7-0.7-1-1.5-1-2.5c0-1,0.4-1.8,1.2-2.5C-10220.9-850.5-10220.1-850.8-10219.1-850.7z"/>
									</g>
								</g>
							</g>
							<g transform="matrix( 1.5006103515625, 0, 0, 1.5006103515625, -7.4,7.4) ">
								<g>
									
										<g id="Duplicate_Items_Folder_ch3eye_ball_0_Layer0_0_MEMBER_0_MEMBER_1_FILL_00000156580424118292958200000012076804961067636892_">
										<path class="st13" d="M-8347.9-743.1c-0.1-0.1-0.2-0.3-0.2-0.5c0-0.2,0.1-0.3,0.2-0.5c0.1-0.1,0.3-0.2,0.5-0.2
											c0.2,0,0.3,0.1,0.5,0.2c0.1,0.2,0.2,0.3,0.2,0.5c0,0.2-0.1,0.4-0.2,0.5c-0.2,0.1-0.3,0.2-0.5,0.2
											C-8347.7-742.9-8347.8-742.9-8347.9-743.1z"/>
									</g>
								</g>
							</g>
						</g>
						<path class="st16" d="M-8341.5-492.2C-8341.6-492.2-8341.6-492.2-8341.5-492.2c-1.3-1.8-3.4-4.2-6.6-6.2
							c-8.5-5.2-20.5-4-28.2,2.4c-1.8,1.5-4.6,4.3-6.6,9.1c0,0.1-0.1,0.2-0.1,0.3c0,0-0.1,0.1-0.1,0.1c-0.7,1.3,0.5,1.6,1.6,1.3
							c3.5,2,9.1,4.4,16.2,5c16.9,1.2,28.8-9.5,31.2-11.8C-8336.8-491.7-8339.3-491.8-8341.5-492.2z M-8360.8-482.1
							c-10.6,1.7-18.6-3.2-20.6-4.5c0.5-0.9,6.4-10.1,17.9-10.8c10.7-0.6,17.4,6.7,18.2,7.6
							C-8347.3-487.9-8352.6-483.4-8360.8-482.1z"/>
					</g>
				</g>
			</g>
			<g transform="matrix( 0.3377532958984375, 0, 0, 0.3377532958984375, 3216.95,368.4) ">
				<g>
					<g id="Layer4_0_MEMBER_8_FILL_00000175319676425229078710000006024513648722652050_">
						<path class="st12" d="M-8393.9-445.1c0.5,0.2,2.3,0.8,4.5,0.5c4.5-0.5,7.9-4,7.5-4.7c-0.3-0.6-3.7,2-9,1.7
							c-4.7-0.2-7.5-2.5-8-1.9C-8399.1-448.9-8396.9-446.2-8393.9-445.1z"/>
					</g>
				</g>
			</g>
			<g transform="matrix( 1.1208038330078125, -0.013397216796875, 0.0169830322265625, 1.078460693359375, 4974.4,418.95) ">
				<g>
					<g id="Layer4_0_MEMBER_10_MEMBER_2_FILL_00000036217245672926481490000001340957966933783226_">
						<path d="M-4096.6-257.5c0,0,0.5-0.6,0.4-1.1c0-0.2-0.1-0.3-0.2-0.4c-2.3-1.2-4.3-1.7-5.7-2c-1.3-0.2-2.7-0.5-4.5-0.2
							c-2.5,0.4-4.4,1.6-5.5,2.6c1.4-0.4,3.1-0.7,4.9-0.8C-4102.6-259.7-4098.9-258.5-4096.6-257.5z"/>
					</g>
				</g>
			</g>
			<g transform="matrix( 1.1208038330078125, -0.013397216796875, 0.0169830322265625, 1.078460693359375, 4974.4,418.95) ">
				<g>
					<g id="Layer4_0_MEMBER_10_MEMBER_2_FILL_00000022551090966218300870000018084693885850638243_">
						<path d="M-4089.5-257.4c0,0-0.5-0.6-0.3-1.2c0.1-0.2,0.1-0.3,0.2-0.4c2.3-1.1,4.3-1.6,5.8-1.8c1.3-0.2,2.7-0.4,4.5-0.1
							c2.5,0.5,4.3,1.7,5.4,2.7c-1.4-0.4-3-0.8-4.9-1C-4083.5-259.5-4087.3-258.3-4089.5-257.4z"/>
					</g>
				</g>
			</g>
			<g transform="matrix( 0.337677001953125, 0, 0, 0.3437042236328125, 3216.95,364.85) ">
				<g>
					<g id="Layer4_0_MEMBER_13_MEMBER_0_FILL_00000120525620508685210460000016286481485412055953_">
						<path class="st17" d="M-8524.2-206.1c-0.4-0.6-0.8-1.2-1.1-1.8c5.3,10.8,11.7,22.2,19.1,34.1c1.7,3.8,3.3,7.6,4.9,11.4
							c16,26.1,48.9,34.1,98.6,24.1c53.3,17.3,93.1,10.2,119.3-21.3c1.8-4.7,3.7-9.4,5.8-14.2c4.5-7.2,8.6-14.2,12.3-21
							c-0.5,0.6-1.1,1.2-1.7,1.8c-9.4,9.9-20.7,16.6-34,20.1c-14.4,3.9-33.9,3.7-58.4-0.6c-21.1-3.1-30-4.5-26.6-4.3
							c-7.8-0.7-19.2-0.8-34.2-0.4c-15.3,0.4-28.1,1.1-38.5,2.2c-10.4,1-20.1,0.2-29.1-2.3C-8502.9-182.2-8514.9-191.5-8524.2-206.1
							 M-8392.6-179c-0.2,0-0.3,0-0.4,0l0.1,0c0.7,0.1,1.4,0.2,2.1,0.2c0.1,0,0.3,0,0.5,0c-0.5-0.1-1.1-0.2-1.7-0.3
							c-0.1,0-0.2,0-0.2,0C-8392.3-179-8392.4-179-8392.6-179z"/>
						<path class="st5" d="M-8312.6-342.3c-0.4-0.2-1.1-0.6-2-1.1c-4.6-2.4-8.1-4-8.9-4.3c-2.8-1.3-7.7-3.8-17.6-9.5
							c1.6,8.8,3.6,27.5-5,48.2c-4.4,10.5-10.1,18.3-14.8,23.6c-6.6,2.8-20.6,7.8-38.4,5.8c-12.3-1.4-21.8-5.5-27.5-8.6
							c-4.8-6.8-10.8-16.3-14.9-28.8c-3.6-11-5.8-23.3-6.7-37.1c-6.1,2.3-12.1,5.1-18,8.3c2.7-1.1-15.8,7.8-26.5,12.9
							c-4.1,2-8.4,3.6-12.9,4.8c-12,3.2-25.9,8.8-29.8,15.7c-17.5,30.3,0.7,77.1,11.4,106.4c17,46.6,30.5,116.3,13.3,216
							c13.7,7,65.2,31.3,130.7,16.7c60.7-13.5,95.5-51.9,105.8-64.3c-10.9-47.7-7-83.6-1.3-107.7c6.2-26.3,13.5-34.4,25.5-80.9
							c16.2-62.7,10.7-78.3,2.7-86.3c-3.5-3.5-13.9-7.9-34.9-16.7C-8292.8-333.5-8302.9-337.1-8312.6-342.3z M-8392.9-179
							c0.9,0,1.9,0.1,2.7,0.3C-8391.2-178.8-8392.1-178.8-8392.9-179z"/>
					</g>
				</g>
			</g>
			<g transform="matrix( 0.337677001953125, 0, 0, 0.3437042236328125, 3216.95,364.85) ">
				<g>
					<g id="Layer4_0_MEMBER_13_MEMBER_1_FILL_00000085233792261382350850000006495762541381060233_">
						<path class="st5" d="M-8218.9,762.9c-5.7,2.7-13.9,6.6-23.9,10.8c-25.2,10.6-59.5,25-99.6,30.4c-14.6,2-64.5,7.4-123.6-12.7
							c-38.2-13-66-31.7-83-45.2c1.7-8.4,23.7-119.9,34.8-189.1c3.1-19.7,5.2-34.5,7.5-59.4c1.1-13.4,2-31.6,1.6-53.7
							c34.1-52.1,70-113.7,103.7-184.5c33.9-71.2,59.1-138,78.1-197.4c14.5,105.8,29,211.6,43.5,317.4
							C-8259.5,507.3-8239.2,635.1-8218.9,762.9z"/>
						<path class="st18" d="M-8258.9,8.1c-2.4-8.8-5.2-17.8-8.3-27.2c-2.7-8.1-5.4-15.8-8.2-23.2c-8.1,5.6-16.2,11.1-24.3,16.7
							c-7.4,27.7-14.8,55.4-22.2,83.2C-8300.9,41.1-8279.9,24.6-8258.9,8.1z"/>
						<g>
							<path class="st19" d="M-8297.6-336.6c0.3-0.6,0.7-1.2,1-1.8v0c0-0.1,0.1-0.2,0.1-0.3c0,0,0,0,0-0.1l0,0c-0.8,1-1.5,2-2.3,3
								c0.7-0.8,1.3-1.6,2-2.4C-8297-337.7-8297.3-337.1-8297.6-336.6z"/>
							<path class="st5" d="M-8258.9,8.1c-23,17.8-45.9,35.6-68.9,53.5c18.8,128.8,37.6,257.6,56.5,386.4
								c8.6-36.7,15.9-76.6,21-119.3C-8235.5,204.5-8244,95.1-8258.9,8.1z"/>
						</g>
					</g>
				</g>
			</g>
			<g transform="matrix( 0.3376007080078125, 0, 0, 0.3436279296875, 3216.95,364.85) ">
				<g>
					<g id="Layer4_0_MEMBER_13_MEMBER_1_MEMBER_4_FILL_00000132079938140971410650000007160906524279355321_">
						<path class="st6" d="M-8207.2-320.4c-20.5-4.6-41-9.2-61.4-13.8c-18.6,51.2-37.2,102.4-55.8,153.6
							c-64.9,178.2-130.2,356.1-196.1,533.9c4.5,30.2,9,60.5,13.5,90.7c56.2-52.1,100.7-124.5,133.3-217.2
							C-8318.2,44.4-8262.7-138-8207.2-320.4z"/>
						<path class="st7" d="M-8298.3-344.2c-37.3,29.7-74.9,60-112.8,91.1c-36.5,30-72.4,59.9-107.5,89.7l11.2,43.7l2.5,9.9
							c-19.5,90.4-33.8,201.9-28.4,329c2,48,6.7,93.1,12.9,134.8c65.8-178,131.1-356.1,196-534.4c18.6-51.2,37.2-102.4,55.8-153.6
							C-8278.5-337.5-8288.4-340.9-8298.3-344.2z"/>
						<path class="st6" d="M-8299.2-339.1l-12.2-1.5c-93.7,43.1-165,85.3-214,126.5l6.9,50.7
							C-8448.3-224.5-8375.2-283.1-8299.2-339.1z"/>
					</g>
				</g>
			</g>
			<g>
				<path d="M418.9,204.6c0.1-6.5-0.5-21.1-10.2-34.2c-3.7-5.1-10.2-13-21-15.2c-4-0.8-9.8-0.5-13.7,1.6c0,0-0.1,0.1-0.1,0.1
					c0,0.1-0.1,0.2-0.1,0.3c-0.4-0.1-0.9-0.1-1.4-0.2c0,0,0,0-0.1,0c-7.5-0.5-14,5.4-17.9,11.8c-9.3,15.5-9.2,46.6,3.6,58.9
					c0,0,0.1,0.1,0.2,0.1c3.8,4.8,5.2,5.9,8.7,11.3c0.6-1.3,1.3-3.2,1.7-5.6c0.3-2,0.3-3.7,0.2-5c-4.2-3.4-6.3-9-6.9-12.9
					c-0.1,0-0.3-0.1-0.5-0.2c-0.3-0.2-0.6-0.4-0.9-0.8c-1.7-1.8-3.1-4.3-4-7.5c-0.1-0.6-0.3-1.1-0.3-1.7c0.2-0.3,0.5-0.6,0.9-1
					c2.1-1.5,3.6-4.2,2.9-6.8c-0.3-5.4,0.7-10.7,3.2-15.4c1.3-2.4,3-4.5,4.9-6.2c0.9-0.8,1.8-1.3,2.7-1.5c0.3-0.1,0.7-0.1,0.9-0.1
					c7-1.5,12.4,4.3,15.4,10.3l1.2,3c0.1,0.4,1.7,3.2,1.9,3.7l0,0l0,0.1l0.5,0.8c0.4,0.6,0.7,1.1,1,1.5l1.3,1.7
					c2.5,3.9,6.2,7.6,9.9,9.4c1,0.6,2.7,1.2,4,1.6l3.5,1.4c0.3,0.1,0.6,0.2,0.9,0.3l1.7,0.4h0c0.1,0,0.2,0.1,0.3,0.1
					c2.4,1.2,4.1,2.5,4.3,2.7c1.6,1.4,1.4,6.5-0.6,12.4c1-0.9,3.6-3.2,4.6-7.1C423.2,210.3,419.4,205.2,418.9,204.6z"/>
			</g>
			<g>
				<g transform="matrix( 0.3376922607421875, 0, 0, 0.3376922607421875, 3216.95,368.4) ">
					<g>
						<g id="Layer4_0_MEMBER_14_MEMBER_0_MEMBER_2_FILL_00000174560733704492160710000002694256057397621137_">
							<path class="st20" d="M-8369.7-557.5c3.3,25.3,19.9,50.4,43.8,65.2C-8347.4-509.3-8363.3-532.6-8369.7-557.5
								C-8369.8-557.5-8369.8-557.5-8369.7-557.5z"/>
						</g>
					</g>
				</g>
			</g>
			<g transform="matrix( 0.3377532958984375, 0, 0, 0.3377532958984375, 3217.2,368.05) ">
				<g>
					<g id="Layer4_0_MEMBER_15_FILL_00000040534999713983809640000004341340097578432387_">
						<path class="st21" d="M-8396.2-519.9c-0.9,0.9-1.3,1.9-1.3,3.1c0,1.2,0.4,2.3,1.3,3.1c0.9,0.9,1.9,1.3,3.1,1.3
							c1.2,0,2.3-0.4,3.1-1.3c0.9-0.9,1.3-1.9,1.3-3.1c0-1.2-0.4-2.3-1.3-3.1c-0.9-0.9-1.9-1.3-3.1-1.3
							C-8394.3-521.2-8395.3-520.8-8396.2-519.9z"/>
					</g>
				</g>
			</g>
			<g>
				<path class="st22" d="M361.3,216.6c0,0.7-0.2,1.1-0.5,1.4c-0.7,0.6-1.8,0.5-2.3-0.2c-0.2-0.3-0.3-0.7-0.4-1.2c0-0.1,0-0.2,0-0.4
					c0.2-1.3,0.7-2.5,1.5-3.7c0,0,0,0,0,0c0.8,1.2,1.3,2.4,1.5,3.6C361.3,216.3,361.3,216.4,361.3,216.6z"/>
				<path class="st23" d="M362,215.9c-0.1-0.3-0.1-0.6-0.2-0.8c-0.5-1.5-1.2-3-2.1-4.3c-1,1.4-1.7,3-2.2,4.7c0,0.1-0.1,0.3-0.1,0.4
					c-0.5,2.7,0.2,4.1,2.3,4.1c1.6,0,2.5-0.9,2.5-2.6C362.2,217,362.1,216.5,362,215.9z M360.9,217.8c-0.6,0.8-1.8,0.8-2.4,0
					c0,0,0,0,0,0c-0.4-0.5-0.4-1-0.4-1.2c0-0.1,0-0.2,0-0.4c0.2-1.3,0.7-2.5,1.5-3.7l0-0.3v0.2c0,0,0,0,0,0c0.8,1.2,1.3,2.4,1.5,3.6
					c0,0.2,0.1,0.3,0.1,0.5C361.3,217.1,361.2,217.5,360.9,217.8z"/>
			</g>
			<g>
				<path class="st22" d="M405.7,219.7c0,0.7-0.2,1.1-0.5,1.4c-0.7,0.6-1.8,0.5-2.3-0.2c-0.2-0.3-0.3-0.7-0.4-1.2c0-0.1,0-0.2,0-0.4
					c0.2-1.3,0.7-2.5,1.5-3.7c0,0,0,0,0,0c0.8,1.2,1.3,2.4,1.5,3.6C405.6,219.4,405.7,219.6,405.7,219.7z"/>
				<path class="st23" d="M406.4,219.1c-0.1-0.3-0.1-0.6-0.2-0.8c-0.5-1.5-1.2-3-2.1-4.3c-1,1.4-1.7,3-2.2,4.7
					c0,0.1-0.1,0.3-0.1,0.4c-0.5,2.7,0.2,4.1,2.3,4.1c1.6,0,2.5-0.9,2.5-2.6C406.5,220.2,406.5,219.6,406.4,219.1z M405.3,220.9
					c-0.6,0.8-1.8,0.8-2.4,0c0,0,0,0,0,0c-0.4-0.5-0.4-1-0.4-1.2c0-0.1,0-0.2,0-0.4c0.2-1.3,0.7-2.5,1.5-3.7l0-0.3v0.2c0,0,0,0,0,0
					c0.8,1.2,1.3,2.4,1.5,3.6c0,0.2,0.1,0.3,0.1,0.5C405.7,220.2,405.5,220.6,405.3,220.9z"/>
			</g>
			<path d="M412.9,230.1c2.4,10.6,4.4,23.5,4.7,38.1c0.6,27.4-4.9,50-10.2,65.5c-2.1-4.2-4.8-11.1-5.5-20
				c-0.6-7.3,0.4-13.4,1.4-17.5c-1.3,5.4-2.4,11.9-2.6,19.2c0,2.4,0,4.6,0.1,6.8c-2.7-6.9-5.4-15.8-6.5-26.2
				c-2.8-25.1,4.5-45.3,9.2-55.6C406.7,236.9,409.8,233.5,412.9,230.1z"/>
			<path class="st6" d="M373.2,630.1c-4.3,1.1-12.8,2.6-23.1,0.3c-9.9-2.2-16.7-6.9-20.1-9.6c-1.7,7.8-3.4,15.5-5.1,23.3
				c3,2.5,7.5,5.7,13.7,8.3c6.5,2.7,11.9,3.6,14.3,3.8c8.2,1,15-0.2,19.3-1.3c5,2.1,15.2,5.5,28.1,4.2c10.4-1.1,18.2-4.7,22.7-7.2
				c1.7,0.3,6.4,0.8,11.4-1.7c6.6-3.3,8.9-9.4,9.4-10.7c-1-6-2-12-2.9-18c-1.7,1.7-4.3,4-8.2,5.7c-6.9,3-13.2,2.2-15.9,1.7
				c-3.6,2.1-11.7,6.3-22.9,6.3C384.2,635.1,376.8,631.9,373.2,630.1z"/>
			<g transform="matrix( 1, 0, 0, 1, 0,0) ">
				<g>
					<g id="Layer5_48_MEMBER_2_FILL_00000015329261948473727910000004270200531849159074_">
						<path class="st24" d="M383,223.6c-6.9,0-7.2,0.2-7.3,0.4c-0.1,0.6,3.3,2.3,7,2.3c3.7,0,7.2-1.7,7-2.4
							C389.8,223.7,389.4,223.6,383,223.6z"/>
					</g>
				</g>
			</g>
			<path class="st20" d="M375.3,168.4c2.5,0.7,6,2.1,9,5c3.2,3.1,3.2,5.3,6.1,11.4c2.9,5.9,6.6,13.5,13.9,17.8
				c3.8,2.3,7.8,3.2,8,2.8c0.2-0.3-3.8-1.6-7.3-5c-3.2-3.1-3.5-5.7-7.6-15.4c-2.7-6.2-4-9.4-5.4-10.8
				C390.1,172.1,385.5,168.4,375.3,168.4z"/>
		</g>
	</g>
	<g>
		<polygon class="st25" points="478.7,707.5 478.4,707.7 472.6,713.3 466.3,706.4 461.8,701.4 457.4,696.5 457.4,696.5 378.4,608.8 
			372.7,602.5 257,474.1 263.1,468.3 378.4,596.2 384.1,602.5 468.8,696.5 473.2,701.4 477.7,706.4 478.4,707.2 		"/>
		<polygon class="st26" points="379.7,597.6 387,605.7 381.3,612.1 374,604 379.7,597.6 		"/>
		<polygon class="st25" points="499.8,474.1 384.1,602.5 378.4,608.8 299.3,696.5 299.3,696.5 295,701.4 290.5,706.4 284.2,713.3 
			278.4,707.8 278.1,707.5 278.4,707.1 279.1,706.4 283.6,701.4 287.9,696.5 372.7,602.5 378.4,596.2 493.7,468.3 		"/>
		<polygon class="st26" points="299.3,696.5 295,701.4 290.5,706.4 279.1,706.4 283.6,701.4 287.9,696.5 		"/>
		<polygon class="st26" points="477.7,706.4 466.3,706.4 461.8,701.4 457.4,696.5 468.8,696.5 473.2,701.4 		"/>
		<polygon class="st26" points="224.2,470.5 531.1,470.5 531.1,478.8 224.2,478.8 224.2,470.5 		"/>
		<path class="st27" d="M213.8,456.7h328.1c3.6,0,6.5,2.9,6.5,6.5v3.9c0,3.6-2.9,6.5-6.5,6.5H213.8c-3.6,0-6.5-2.9-6.5-6.5v-3.9
			C207.2,459.7,210.2,456.7,213.8,456.7L213.8,456.7z"/>
		<polygon class="st28" points="487.2,456.7 516,456.7 516,473.7 490.6,473.7 487.2,456.7 		"/>
		<polygon class="st28" points="473.7,456.7 482.7,456.7 482.7,473.7 471.9,473.7 473.7,456.7 		"/>
		<polygon class="st28" points="455.2,456.7 467,456.7 467,473.7 457.1,473.7 455.2,456.7 		"/>
		<polygon class="st28" points="438.4,456.7 447.3,456.7 447.3,473.7 436.6,473.7 438.4,456.7 		"/>
		<polygon class="st28" points="342.7,456.7 355.2,456.7 358.4,473.7 342.6,473.7 342.7,456.7 		"/>
		<polygon class="st28" points="369.4,456.7 382.8,456.7 380.8,473.7 369.4,473.7 369.4,456.7 		"/>
		<polygon class="st28" points="389.1,456.7 401.6,456.7 403.7,473.7 389.1,473.7 389.1,456.7 		"/>
		<polygon class="st28" points="413.7,456.7 427.1,456.7 425.1,473.7 413.7,473.7 413.7,456.7 		"/>
		<polygon class="st28" points="243.3,456.7 259.7,456.7 256.4,473.7 243.4,473.7 243.3,456.7 		"/>
		<polygon class="st28" points="270.2,456.7 281.2,456.7 283.3,473.7 270.2,473.7 270.2,456.7 		"/>
		<polygon class="st28" points="289.9,456.7 304.8,456.7 302.7,473.7 289.9,473.7 289.9,456.7 		"/>
		<polygon class="st28" points="314.5,456.7 325.6,456.7 327.6,473.7 314.5,473.7 314.5,456.7 		"/>
		<polygon class="st29" points="478.4,707.2 478.4,707.7 472.6,713.3 466.3,706.4 461.8,701.4 473.2,701.4 477.7,706.4 		"/>
		<polygon class="st29" points="295,701.4 290.5,706.4 284.2,713.3 278.4,707.8 278.4,707.1 279.1,706.4 283.6,701.4 		"/>
		<path class="st29" d="M378.2,599.4c1.4,0,2.5,1.2,2.5,2.8s-1.1,2.8-2.5,2.8c-1.4,0-2.5-1.2-2.5-2.8S376.8,599.4,378.2,599.4
			L378.2,599.4z"/>
		<g>
			<path class="st29" d="M378.8,418.1c-0.8,0.7-0.8,2.3-0.6,3.5c0.2,1.2,0.6,1.9,1.6,2.3c1,0.4,2.6,0.5,3.9,0.6
				c1.3,0.1,2.5,0.1,3.1-0.1c0.7-0.2,0.9-0.5,0.9-1.3c0-0.8-0.4-2-1.3-3c-0.9-0.9-2.4-1.6-3.9-2C381,417.6,379.5,417.4,378.8,418.1
				L378.8,418.1z"/>
			<path class="st29" d="M367.9,438.2c0.9-0.5,1-1.4,1-2.1c0-0.7-0.2-1.2-1-1.5c-0.8-0.3-2.2-0.5-3.9-0.7c-1.7-0.1-3.7-0.3-5.1-0.3
				c-1.4,0-2.4,0.1-3,0.3c-0.6,0.2-0.9,0.4-1,1c-0.1,0.7-0.1,1.7-0.1,2.4c0.1,0.7,0.3,0.9,1.7,1.1c1.4,0.2,4.2,0.2,6.4,0.3
				C365.2,438.7,367,438.7,367.9,438.2L367.9,438.2z"/>
			<polygon class="st26" points="405.7,452.5 337,452.4 337,455.3 405.7,455.4 405.7,452.5 			"/>
			<path class="st30" d="M335.4,452.5c-0.1-0.3-0.1-0.8-0.4-1.4c-0.2-0.6-0.7-1.4-1.4-2.3c-0.7-0.9-1.8-1.8-2.9-2.7
				c-1.1-0.8-2.3-1.6-3.2-2c-0.9-0.4-1.4-0.5-1.7-0.5c-0.3-0.1-0.3-0.2-0.3-5.7c-0.1-5.5-0.2-16.4-0.2-21.9c0-5.4,0-5.4,0.1-5.7
				c0-0.3,0-1,0-1.8c1.8,0,3.5-0.1,5.3-0.1c0.3,0.7,0.6,1.4,1,2.2c4.3,0.1,8.5,0.1,13.4,0.5c4.9,0.3,10.3,0.9,15.4,1.8
				c5.1,0.9,9.8,2.2,14.5,4.2c4.7,2,9.4,4.7,13.2,7.5c3.8,2.9,6.7,5.9,9.4,9.6c2.7,3.7,5.4,8.1,7,11.4c1.7,3.3,2.5,5.4,2.8,6.5
				c0.3,1.1,0.2,1.1-11.8,1c-12-0.1-36-0.3-48-0.3C335.5,452.8,335.5,452.8,335.4,452.5L335.4,452.5z M339.7,421.9
				c-0.8,0.9-1.2,1.9-1.4,3c-0.2,1.1-0.1,2.3,0.3,3.5c0.4,1.2,1.2,2.5,2.4,3.5c1.2,1.1,2.8,2,5,2.7c2.2,0.7,4.9,1.3,7.5,1.7
				c2.6,0.4,5,0.7,7.6,0.8c2.6,0.2,5.2,0.2,7.4,0c2.2-0.2,3.8-0.5,5-1.2c1.2-0.7,1.9-1.6,1.9-3.2c0-1.6-0.8-3.9-2.4-5.9
				c-1.7-1.9-4.3-3.5-7.8-4.6c-3.5-1.1-7.8-1.9-11.7-2.3s-7.1-0.4-9.4-0.1C341.8,420.4,340.5,421.1,339.7,421.9L339.7,421.9z"/>
			<path class="st31" d="M375.3,432.4c1.5,0.7,2.6,1.4,4,1.9c1.6,0.6,3.7,1.1,6.2,1.6s5.5,0.9,8,1.8c2.4,0.9,4.3,2.2,5.3,3.6
				c1,1.4,1,2.8,0.5,4c-0.4,1.2-1.4,2.1-4.3,2.7c-2.9,0.6-7.8,0.8-13.5,0.8c-5.8,0-12.4-0.3-18.9-1c-6.5-0.7-12.7-1.7-18.2-2.9
				c-5.5-1.2-10.2-2.7-12.9-3.6c-2.6-0.9-3.2-1.2-3.5-1.4c-0.3-0.2-0.3-0.3-0.4-2.2c0-1.9,0-5.6,0.3-7.5c0.3-1.9,0.9-1.9,2.4-1.9
				c1.5-0.1,3.9-0.2,5.7-0.3c0.8,0,1.5-0.1,2.3-0.1c0.1,0.2,0.1,0.4,0.2,0.6c0.4,1.2,1.2,2.5,2.4,3.5c1.2,1.1,2.8,2,5,2.7
				c2.2,0.7,4.9,1.3,7.5,1.7c2.6,0.4,5,0.7,7.6,0.8c2.6,0.2,5.2,0.2,7.4,0c2.2-0.2,3.8-0.5,5-1.2c1.2-0.7,1.9-1.6,1.9-3.2
				C375.3,432.7,375.3,432.6,375.3,432.4L375.3,432.4z"/>
			<polygon class="st32" points="410,454.6 334,454.4 334,456.6 410,456.7 410,454.6 			"/>
		</g>
		<g>
			<path class="st31" d="M427.9,447h94c2,0,3.6,1.6,3.6,3.6v2.1c0,2-1.6,3.6-3.6,3.6h-94c-2,0-3.6-1.6-3.6-3.6v-2.1
				C424.3,448.7,425.9,447,427.9,447L427.9,447z"/>
			<path class="st33" d="M427.9,437.8h105c2,0,3.6,1.6,3.6,3.6v2.1c0,2-1.6,3.6-3.6,3.6h-105c-2,0-3.6-1.6-3.6-3.6v-2.1
				C424.3,439.4,425.9,437.8,427.9,437.8L427.9,437.8z"/>
			<path class="st34" d="M427.9,428.6h96.5c2,0,3.6,1.6,3.6,3.6v2.1c0,2-1.6,3.6-3.6,3.6h-96.5c-2,0-3.6-1.6-3.6-3.6v-2.1
				C424.3,430.2,425.9,428.6,427.9,428.6L427.9,428.6z"/>
			<path class="st35" d="M424.5,419.3H521c2,0,3.6,1.6,3.6,3.6v2.1c0,2-1.6,3.6-3.6,3.6h-96.5c-2,0-3.6-1.6-3.6-3.6v-2.1
				C420.9,421,422.5,419.3,424.5,419.3L424.5,419.3z"/>
			<path class="st36" d="M455.4,417.7l65.4-0.2c4.7,0,6,8.1,0.8,9.9c-0.5,0.2-1,0.5-1.2,1.2c-0.9,2.4,1,4.7-0.2,7.2
				c-0.2,0.4-2,1.2-2.3,1.8c-0.9,2-0.1,7.3-3.1,7.6c-1,0.1-1.6,0.6-1.8,1.1c-0.3,0.7-0.6,1.3-0.8,1.9c-0.3,0.9,2.2,3.9-4.7,3.2
				c-3.5-0.3-7.6-2.2-9.1-6.1c-0.9-2.3-0.9-10.9-3.3-13.9c-5.9-7.4-26.3-8.6-36.4-10.3c-2.9-0.5-5.6-1-7.3-1.4
				c-2.3-0.7-3.8-3.5-1.3-3.8C451,415.6,453.4,417.7,455.4,417.7L455.4,417.7z"/>
			<path class="st36" d="M451.9,412.1h67.8c1.8,0,3.2,1.5,3.2,3.2v1.8c0,1.8-1.5,3.2-3.2,3.2h-67.8c-1.8,0-3.2-1.5-3.2-3.2v-1.8
				C448.6,413.6,450.1,412.1,451.9,412.1L451.9,412.1z"/>
		</g>
	</g>
	<path class="st4" d="M363.5,422.7c0,0-2.3,3.9-5.8,1.2c0,0-2.5,1.8-5.1,0.4c-0.1,0-0.2-0.1-0.3-0.2c0,0-0.1,0.1-0.3,0.2
		c-0.7,0.3-2.2,0.9-4.1,0c-0.1-0.1-0.2-0.1-0.4-0.2c0,0-0.1,0.1-0.3,0.1c-0.5,0.2-1.6,0.3-2.8-1c-2.5-2.9-4.5-7.2-4-10.7
		c0-0.1,0.1-0.6,0.1-1.3c0-0.6-0.1-1.2-0.1-1.8c-1.2-3.4-2.4-6.8-3.6-10.2c0.9,0,2.1-0.1,3.4-0.6c3.8-1.2,5.8-4.2,6.6-5.3
		c0.8,2.3,1.6,4.3,2.3,5.7c1.1,2.4,1.8,3.5,2.9,4.6c0.7,0.7,1.4,1.1,1.9,1.4c1.6,1,3.2,2,4.9,3l-0.9,1l3.1,3.8
		C361,412.7,358.3,419.2,363.5,422.7z"/>
	<path class="st4" d="M360.9,413.1c-1.5-2-2.9-3.9-4.4-5.9c1.5,0.3,3.6,1,5.9,2.4c2.7,1.7,4.4,3.7,5.4,5c-0.5-0.1-1-0.3-1.5-0.4
		C364.5,413.9,362.7,413.5,360.9,413.1z"/>
	<g>
		<g>
			<path class="st12" d="M357.7,424.2C357.7,424.2,357.7,424.2,357.7,424.2c0,0-0.1,0-0.2-0.1c0,0-0.1,0-0.1-0.1
				c-1.8-2.2-2.1-6-2.1-6c-0.2-1.7-0.1-2.1,0-2.1c0.1,0,0.3,0.3,0.8,2c0,0,0.5,4.3,1.9,5.6c0,0,0,0,0,0
				C358.1,423.8,357.9,424.2,357.7,424.2z"/>
		</g>
		<g>
			<path class="st12" d="M352.7,423.9c0,0.1,0,0.2,0,0.3c-0.1,0-0.2-0.1-0.3-0.2c0,0-0.1,0.1-0.3,0.2c-2.3-4.1-2.1-6.9-2.1-6.9
				c0.1-1,0.2-2.1,0.3-2.1c0.1,0,0.1,0.9,0.4,2.1C351.1,419.4,352.7,423.7,352.7,423.9z"/>
		</g>
		<g>
			<path class="st12" d="M347.9,424.3c-0.1-0.1-0.2-0.1-0.4-0.2c0,0-0.1,0.1-0.3,0.1c-1.9-3.7-1.6-6.2-1.6-6.2
				c0.1-1,0.3-2.1,0.5-2.1c0.2,0,0.2,1.2,0.3,2.1C346.5,419.5,346.8,421.6,347.9,424.3z"/>
		</g>
	</g>
	<path class="st4" d="M351.9,403.5c-2.4,0.4-4.9,0.9-7.5,1.6c-1.7,0.4-3.3,0.9-4.9,1.3c-2.6-5.7-5.2-11.6-7.7-17.9
		c-4.9-12.2-8.7-23.9-11.8-34.8c6.1-1.3,12.2-2.6,18.3-3.9c1.4,6.5,2.4,11.7,3.1,15.2c2.8,15.2,3.1,22.4,7.6,32.6
		C350.1,400.2,351.2,402.3,351.9,403.5z"/>
</g>
</svg>
