<?xml version="1.0" encoding="utf-8"?>
<!-- Generator: Adobe Illustrator 26.0.1, SVG Export Plug-In . SVG Version: 6.00 Build 0)  -->
<svg version="1.1" id="Layer_1" xmlns="http://www.w3.org/2000/svg" xmlns:xlink="http://www.w3.org/1999/xlink" x="0px" y="0px"
	 viewBox="0 0 876.1 612.1" style="enable-background:new 0 0 876.1 612.1;" xml:space="preserve">
<style type="text/css">
	.st0{fill:#BDDEEF;}
	.st1{fill:#52A7C1;}
	.st2{fill:#99CCE0;}
	.st3{fill:#231F20;}
	.st4{fill:#DE9F7E;}
	.st5{fill:#FFFFFF;}
	.st6{fill:#D3D3D3;}
	.st7{fill:#D38A6A;}
	.st8{fill:#D34047;}
	.st9{fill:#B7303D;}
	.st10{fill:#CE8065;}
	.st11{fill:#FCB856;}
	.st12{fill:#DD9373;}
</style>
<g>
	<g>
		<path class="st0" d="M592.2,87.2c9.1,9.7,17.6,21,23.2,32.5c11.8,24.1,12.8,58.6,9.2,85c-2.4,18.2-13.1,43.5-7.9,61.9
			c7.1,25,44.5,23.9,62.7,30.2c16.8,5.7,32.7,19.9,41.2,37.1c26.2,52.8-5.3,81-21.1,104.6c-17.9,26.8,21.1,59.3-1.3,86
			c-23.5,28-51.7,39.6-98.7,39.6c-93,0-113.8,8.1-242.7-2c-24.4-1.9-56.9-8.1-81.3-11c-36.7-4.4-127.3-39.7-103.7-106.5
			c17.5-49.4,109.3-41.8,78.6-109.4c-20.1-44.2-58-105.5-10.9-144.5c34.2-28.3,56.1-44.6,75.9-87.5c21.7-46.9,52.2-72.3,100.2-76.8
			c26-2.4,52.3-2.2,77.8,4.2c31.1,7.8,61.9,22.7,86.8,44.9C584.2,79.1,588.3,83,592.2,87.2z"/>
		<g>
			<path class="st1" d="M320.1,511.5c-4.9-0.4-9.7,1.3-9.2,6.9c-11.5-4.2-19.2,6.2-19.2,13.8h278.2c11-13-7.7-37.5-21.3-30.7
				c2.3-8.5-5.9-14-11.2-11.6c0.7,0.5-2.9-11.5-14.1-6.9c0.3-11.8-9.5-15.1-18.5-9.4c-1.2-9.8-15-18.6-21.4-7.6
				c0.2-14.9-19.4-17.1-22.1-2.3c-4-4.4-9.6-1.1-10.2,4.3c-3.6-4.8-7.7-4.3-11,0.2c9.7-24.4-27.3-31.8-28.9-9.3
				c-5.7-9.5-18.2-3.6-15.9,5.6c-5.3-4.8-13.5-2.4-12.6,5.8c-7.4-7.8-26.1-8.2-27.4,8.3c-4.4-4.8-10.2-3.4-11.4,3.3
				c-6.5-0.8-11.6,2-10.2,9.1c-3,0.2-7.2-0.1-8.3,7.3C325.4,498.3,315.3,500.7,320.1,511.5z"/>
			<path class="st1" d="M687.7,532.2c5-19-23.7-29.5-31.5-10.9c0.4-6.9,2.7-14.7-5.8-18.7c-8.4-4-14.8,3-18.3,9
				c9.6-16.2,5.4-36.4-16.8-41.8c-23.6-5.8-35.3,6.3-35.8,30.8c-1.6-11.2-22.3-13.6-23.5,2.3c-8.7-3-10-11.6-22.1-10.4
				c-10.7,1-15.8,7.9-19.9,17.4c0,0-24.6,0.8-18.9,22.5H687.7z"/>
		</g>
		<path class="st2" d="M190.2,546.6c0,17.8,118.9,32.2,265.6,32.2c146.7,0,265.6-14.4,265.6-32.2c0-17.8-118.9-32.2-265.6-32.2
			C309.1,514.3,190.2,528.8,190.2,546.6z"/>
	</g>
	<g>
		<g>
			<g>
				<g>
					<path class="st3" d="M419,532c-0.2-0.6-0.5-1.2-0.8-1.8c0,0,0,0,0,0c0-0.1-0.1-0.1-0.1-0.2c-0.1-0.1-0.2-0.2-0.2-0.4
						c-0.1-0.2-0.3-0.4-0.4-0.6c-0.1-0.1-0.2-0.3-0.3-0.4c-0.1-0.2-0.3-0.4-0.5-0.5c0-0.1-0.1-0.1-0.1-0.2c0,0,0,0,0,0
						c-0.1-0.1-0.2-0.3-0.4-0.4c-0.4-0.1-1-0.4-1.8-0.6c0,0-3.3-1.1-6.4-1.8c-4.8-1-14,0.4-18.6,2.4c-4.6,2.1-10,2.8-15.1,3.6
						l-1.1,0.2c-6.1,0.9-12.1,1.9-17.5,4.9c-6.2,3.5-10.3,9.3-10.8,15.3c-0.3,3.8,1.1,7.5,3.7,10.3c2.6,2.7,6.3,4.2,10,4.2
						c0.2,0,0.4,0,0.6,0c18.3-0.8,36.8-5.3,53.5-12.8c0.9-0.4,1.7-0.9,2.4-1.5c0.8-0.6,1.6-1.2,2.4-1.7c0.4-0.5,0.8-1.1,1.1-1.8
						c0.7-1.5,1-3.3,1.2-4.9c0,0,0,0,0,0c0-0.1,0-0.1,0-0.2C420.6,539.5,420.2,535.5,419,532z"/>
					<g>
						<path class="st4" d="M420.4,527c-0.1,0-0.2,0.1-0.2,0.1c-4.1,1.4-8.4,1.4-12.7,0.5c-5.5-1.1-11.9-0.1-17.1,2.2
							c-5.3,2.4-11.1,3.1-16.8,3.9c-5.7,0.8-11.6,1.8-16.6,4.6c-5,2.8-9.1,7.6-9.5,13.3c-0.5,6.7,5.2,12.2,11.8,11.9
							c18.1-0.8,36.1-5.1,52.5-12.6c0.7-0.3,1.3-0.7,1.9-1.2c2-1.5,4.1-2.9,6.5-3.8c3.9-1.5,7-2.9,8.7-3.6c0.6-3.3,1.8-7.1,0.7-10.8
							C428.5,527.7,424.2,525.7,420.4,527z"/>
					</g>
					<path class="st3" d="M359.5,535.9c2.2,3.6,5.4,9.8,6.4,18.1c0.5,4.4,0.3,8.3-0.1,11.3c5.7-1.1,11.4-2.2,17-3.3
						c0.3-3.6,0.3-8.4-0.8-14c-1.3-6.8-3.8-12.1-5.8-15.6C370.7,533.5,365.1,534.7,359.5,535.9z"/>
				</g>
				<g>
					<path class="st3" d="M521.8,533.1c0.2-0.6,0.5-1.2,0.8-1.8c0,0,0,0,0,0c0-0.1,0.1-0.1,0.1-0.2c0.1-0.1,0.2-0.2,0.2-0.4
						c0.1-0.2,0.3-0.4,0.4-0.6c0.1-0.1,0.2-0.3,0.3-0.4c0.1-0.2,0.3-0.4,0.5-0.5c0-0.1,0.1-0.1,0.1-0.2c0,0,0,0,0,0
						c0.1-0.1,0.2-0.3,0.4-0.4c0.4-0.1,1-0.4,1.8-0.6c0,0,3.3-1.1,6.4-1.8c4.8-1,14,0.4,18.6,2.4c4.6,2.1,10,2.8,15.1,3.6l1.1,0.2
						c6.1,0.9,12.1,1.9,17.5,4.9c6.2,3.5,10.3,9.3,10.8,15.3c0.3,3.8-1.1,7.5-3.7,10.3c-2.6,2.7-6.3,4.2-10,4.2c-0.2,0-0.4,0-0.6,0
						c-18.3-0.8-36.8-5.3-53.5-12.8c-0.9-0.4-1.7-0.9-2.4-1.5c-0.8-0.6-1.6-1.2-2.4-1.7c-0.4-0.5-0.8-1.1-1.1-1.8
						c-0.7-1.5-1-3.3-1.2-4.9c0,0,0,0,0,0c0-0.1,0-0.1,0-0.2C520.2,540.6,520.6,536.6,521.8,533.1z"/>
					<g>
						<path class="st4" d="M520.4,528.1c0.1,0,0.2,0.1,0.2,0.1c4.1,1.4,8.4,1.4,12.7,0.5c5.5-1.1,11.9-0.1,17.1,2.2
							c5.3,2.4,11.1,3.1,16.8,3.9c5.7,0.8,11.6,1.8,16.6,4.6c5,2.8,9.1,7.6,9.5,13.3c0.5,6.7-5.2,12.2-11.8,11.9
							c-18.1-0.8-36.1-5.1-52.5-12.6c-0.7-0.3-1.3-0.7-1.9-1.2c-2-1.5-4.1-2.9-6.5-3.8c-3.9-1.5-7-2.9-8.7-3.6
							c-0.6-3.3-1.8-7.1-0.7-10.8C512.3,528.8,516.6,526.8,520.4,528.1z"/>
					</g>
					<path class="st3" d="M581.2,537c-2.2,3.6-5.4,9.8-6.4,18.1c-0.5,4.4-0.3,8.3,0.1,11.3c-5.7-1.1-11.4-2.2-17-3.3
						c-0.3-3.6-0.3-8.4,0.8-14c1.3-6.8,3.8-12.1,5.8-15.6C570.1,534.6,575.7,535.8,581.2,537z"/>
				</g>
				<path class="st4" d="M482.4,536.9c-4.4-0.9-16.4-3.4-32.1-6.1c-7.2-1.2-16.5-2.7-27.4-4.2c0,0-9.3-21,2.7-31.4
					c9-7.8,27.4,2.7,65.4,21.2c1,0.5,3.9,2.1,8.1,4c7.8,3.6,14.6,5.9,19.6,7.4c-1.7,5.5-3.4,10.9-5.1,16.4
					C502,541.2,491.5,538.8,482.4,536.9z"/>
				<path class="st4" d="M455.7,536.9c4.4-0.9,16.4-3.4,32.1-6.1c7.2-1.2,16.5-2.7,27.4-4.2c0,0,9.3-21-2.7-31.4
					c-9-7.8-27.4,2.7-65.4,21.2c-1,0.5-3.9,2.1-8.1,4c-7.8,3.6-14.6,5.9-19.6,7.4c1.7,5.5,3.4,10.9,5.1,16.4
					C436.1,541.2,446.6,538.8,455.7,536.9z"/>
				<path class="st5" d="M594.4,503.5c0.6,10.2-17.8,18.5-31.2,24.6c-10.2,4.6-26.1,10.5-47.6,13.6c-2.4,0-11.9,0-20-5.9
					c-5.2-3.8-7.3-8.2-8.2-10.4c-1.4,1-7.6,5.2-16.8,5.1c-7.6-0.2-12.9-3.3-14.6-4.4c-1.4,3-5.2,10-14.1,13.7
					c-5.7,2.4-11.6,2.9-20.1,1.8c-32-4.1-47.6-13.6-47.6-13.6c-1.6-0.8-25.8-14.1-22.5-28.6c1.1-4.7,4.7-8.2,9.7-11.7
					c21.9-15.2,53.7-17.6,69.4-17.9c25.2,0,50.5,0,75.7,0c39.9,2.3,63.1,13.2,74.4,19.7C589.7,494.6,594.1,498.7,594.4,503.5z"/>
				<path class="st5" d="M469.1,513c0,0.1,0,0.2-0.1,0.2c-0.1,0-0.2-0.1-0.3-0.1C468.9,513.1,469,513,469.1,513z"/>
				<path class="st5" d="M468.8,513.1c-0.1,0-0.2,0.1-0.3,0.1c0-0.1,0-0.2-0.1-0.2C468.5,513,468.6,513.1,468.8,513.1z"/>
				<g>
					<path class="st5" d="M444.7,470.8c1.5,1.7,3.6,4.4,5.4,8.2c7.6,16.3-3.6,28.1,3.6,39.8c4,6.4,12.1,10.4,19.5,9.9
						c0.8-0.1,9.8-0.8,14.7-7.8c7.7-11.1-4-24.3,3.6-40.9c1.8-3.9,4-6.7,5.4-8.2"/>
					<path class="st6" d="M444.7,470.8c9.8,10,10,20.6,8,33.6c-0.7,5.6-0.1,11.3,3.8,15.6c7.4,8.6,21.5,9.7,29.3,1.1
						c10.6-12.1-7.6-30.1,11.1-49.4c-17.9,22.2,6.3,40.6-12.4,54.5c-4,2.6-8.8,4.1-13.5,3.9c-9.4-0.6-18.9-7.2-20.7-16.8
						c-1.1-6.2,0.8-12.1,1.5-18C452.9,486.6,450.3,477.8,444.7,470.8L444.7,470.8z"/>
				</g>
				<g>
					<path class="st6" d="M491.2,506.1c17.7,4.6,37.2,2.3,53.5-6.3c-7.8,5.1-16.7,8.8-26,10.8c-9.3,2-19.1,2.3-28.6,0.8L491.2,506.1
						L491.2,506.1z"/>
				</g>
				<g>
					<path class="st6" d="M489.8,495.7c9.6,4.2,20.2,5.6,30.7,4.1c-5.1,1.6-10.5,2.5-16,2.7c-5.5,0.2-11.1-0.5-16.4-1.8
						C488.1,500.8,489.8,495.7,489.8,495.7L489.8,495.7z"/>
				</g>
				<g>
					<path class="st6" d="M452.4,503.6c-10.9,0.4-22.1-2.3-31.5-7.8c7.5,2.7,15.4,3.9,23.2,3.5c2.6-0.1,5.1-0.5,7.6-1
						C451.8,498.4,452.4,503.6,452.4,503.6L452.4,503.6z"/>
				</g>
				<g>
					<path class="st6" d="M451.5,511.3c-18.9,3-38.7-1.1-54.6-11.5c8.3,4.3,17.3,7.1,26.4,8.1c9.1,1.1,18.4,0.4,27.1-1.8
						C450.4,506.1,451.5,511.3,451.5,511.3L451.5,511.3z"/>
				</g>
			</g>
			<g>
				<g>
					<path class="st4" d="M521.1,379.6c0.1,6.9,0.1,13.7-0.3,20.6c-0.2,4-0.6,8.1-1.7,12c-1.1,4-3.5,7.3-4.8,11.2
						c-1.2,3.5-1.9,7.1-2.3,10.7c-0.3,2.6-0.3,5.2-0.3,7.8l-78.8,2c0.2-4.9-0.1-9.8-1.4-14.7c-1.3-4.6-4.1-8.5-5.8-12.9
						c-2.5-6.5-2.5-13.2-3.3-20.1c-0.9-7.2-1.8-14.4-2.4-21.7c-0.4-4.6,0.1-11.5,0.3-16.2c0.1-1.4-0.1-5.7,1.7-6.4c10-6,20-12,30-18
						c0.5-1.1,0.8-2,1.1-2.9c0.3-1,0.7-2.2,0.8-3.7c0.1-1.1,0-2,0-3c-0.1-2.2-0.2-4.4-0.4-6.4c5.4,2.8,12,3.4,17.9,3.2
						c5.4-0.1,10.8-1,16-2.8c-0.1,1.3-0.1,2.6-0.1,4c0,1,0.1,2.1,0.1,3.1c0.3,3.4,0.9,6.8,2.4,9.3c0.4,0.4,0.7,0.9,1.1,1
						c7.4,3.7,19.2,12.2,28.7,13.7c1.1,2.5,0.6,6.3,0.8,9C520.9,364.8,521.1,373.3,521.1,379.6z"/>
					<path class="st7" d="M487.4,322.3c0,0.7,0,1.3,0.1,1.9c-1.1,1.4-2.9,3.4-5.4,5.3c-3.1,2.4-6.3,4.8-10.8,5.1
						c-4.4,0.3-7.8-1.5-10.3-2.9c-3.3-1.8-5.5-3.9-6.9-5.4c0-0.7,0-1.4,0-2.1c0-2.3-0.2-4.4-0.4-6.4c5.4,2.8,12,3.4,17.9,3.2
						c5.4-0.1,10.8-1,16-2.8C487.4,319.6,487.4,320.9,487.4,322.3z"/>
					<path class="st4" d="M447.4,294.4c-0.5-1.9,0.6-2.5-1.5-3.4c-1.8-0.8-3.4,2.6-3.8,5.1c-0.4,2.4,2,11,3.3,12.2s3.2,1.6,3.7-0.4
						L447.4,294.4z"/>
					<path class="st4" d="M493.2,287.9c0.9,10.2,1.7,20.7-4,30.4c-0.5,0.8-2.3,3.9-5.6,7c-2.8,2.7-6.7,5.8-12.3,6.9
						c-1.1,0.2-2.2,0.2-3.2,0c-8.3-1.8-15.1-9.7-17-13.1c0,0,0,0,0,0c-0.3-0.4-0.5-0.8-0.8-1.3c-0.3-0.5-0.5-1-0.6-1.5c0,0,0,0,0,0
						c-1.9-5.3-2.2-20.3-2.5-28.9c-0.7-11.9,6.7-21.9,18.8-25.4c1.5-0.4,3-0.6,4.5-0.6l0,0c0.1,0,0.3,0,0.4,0
						c1.3,0,2.6,0.2,18.2,9.9C493.3,274,492.4,279.6,493.2,287.9z"/>
					<g>
						<path class="st8" d="M393.8,415.3c0.9-11.2,10.5-43.9,12.1-51.3c1.9-8.4,4.3-14.7,13-16.2c4.8-0.8,8.1-1.2,12.8-2.5l13.4,11.5
							l-16.6,70C419.5,420.3,401.2,417.4,393.8,415.3z"/>
					</g>
					<g>
						<path class="st8" d="M549.5,424.7c-0.5-11.2-9.5-52.8-10.8-60.2c-1.5-8.5-3.6-14.6-12.3-16.4c-4.8-1-8.1-1.8-12.7-3.3
							l-10,19.5c3.9,22.1,7.7,44.2,11.6,66.4C526.7,428.7,538.1,426.7,549.5,424.7z"/>
						<path class="st9" d="M513.9,416.9c11.6-3,23.2-6,34.9-8.9c0.7,2.6,1.3,5.5,1.9,8.6c0.5,2.7,0.8,5.3,1.1,7.7
							c-11.8,3-23.6,5.9-35.4,8.9c-0.7-1.8-1.4-4.1-1.9-6.6C513.7,422.7,513.7,419.5,513.9,416.9z"/>
					</g>
					<path class="st9" d="M428.6,411.7c-11.5-3.4-23-6.9-34.5-10.3c-0.8,2.6-1.6,5.4-2.2,8.5c-0.6,2.7-1.1,5.3-1.4,7.7
						c11.7,3.4,23.3,6.9,35,10.3c0.8-1.8,1.6-4,2.2-6.6C428.5,417.5,428.7,414.2,428.6,411.7z"/>
					<path class="st8" d="M423.9,425.6c-0.1,2-0.1,3.3-0.2,4.6c-0.1,7.5,0,10.6,0.1,17.9c0.1,8-1.1,14.3-2,19.6
						c-0.8,4.4-1.6,8.2-2.3,11.1c-8.1,5.8-16.1,11.6-24.2,17.4c22.7-1.4,41.1-0.6,54,0.5c26.1,2.2,41.2,6.2,68.8,5.6
						c12.9-0.3,23.5-1.5,30.5-2.5c-8.8-7.5-17.6-15.1-26.4-22.6c-0.6-3.2-1.3-7.2-1.6-11.9c-0.5-6.8-0.2-12.1-0.1-14.8
						c1.6-28.6,3.3-42.7,5-54.9c2.5-18.3,5.5-27.3,5.3-42.8c0-1.2,0-2.2-0.1-2.9c-3.2-1.2-6.4-2.5-9.6-3.8c-10.7-4.4-20.7-9-30-13.8
						c-0.9-0.5-1.9-1-2.8-1.6c0.8,2.8,2.5,10.6-1.2,19c-1.8,4.1-4.2,7-6,8.8c-2.4,5.5-4.8,11-7.3,16.5c-0.5-3.2-8.1-16-9.7-16.6
						c-2-0.8-3.5-1.7-4.8-2.6c0,0-2.7-2.1-4.7-5.1c-2.8-4.2-3.8-11.3-2-19c-1.1,0.5-2.5,1.4-3.9,2.7c-1,1-1.8,1.9-2.4,2.7
						c-10.4,3.9-20.7,7.9-31.1,11.8c0.5,23.9,2.8,37.9,4.9,46.6C420.3,395.4,424.5,412.2,423.9,425.6z"/>
					<g>
						<path d="M470.7,345.5c-1.4,0-9.7,0.2-14.6-5.9c-1.1-1.4-1.8-2.8-2.2-3.7c-0.5-1.2-0.8-2.3-0.9-3c0,0,0-0.1,0-0.1
							c-0.1-0.1-0.4-1,0.1-1.8c0.1-0.1,0.2-0.4,0.5-0.6c0.1,0.5,0.2,1.1,0.4,1.9c0,0,1,3.4,3,6.2c4.6,6.3,15.1,7.6,22.5,3.5
							c6.7-3.7,8.6-10.7,9-12.3c0.1,0.4,0.3,0.8,0.3,1.3c0,0.3,0,0.5,0,0.7c-0.3,0.9-1.4,4.8-4.3,7.9c-1.9,2-4.3,3.4-4.5,3.5
							C478.9,343.6,475.5,345.4,470.7,345.5z"/>
					</g>
					<g>
						<path d="M446.7,311.1c-0.7,0-1-1.4-1-2.7l0.5,0.3c0,1.4,0.4,1.9,0.5,1.9s0.6-0.8,0.6-2.2c0-1.4-0.4-2.2-0.5-2.2
							c-0.1-0.1-0.1-0.3,0-0.5c0.7,0,1,1.4,1,2.7C447.7,309.7,447.4,311.1,446.7,311.1z"/>
					</g>
					<path class="st4" d="M492.2,295c0.6-1.9,0.3-2.8,2.1-3.5c1.8-0.7,3.3,2.7,3.7,5.1c0.4,2.4-2.2,10.9-3.6,12.1
						c-1.4,1.2-3.2,1.6-3.7-0.5L492.2,295z"/>
					<g>
						<path d="M493.1,311.6c0.7,0,1-1.4,1.1-2.7l-0.5,0.3c0,1.4-0.4,1.9-0.6,1.9s-0.5-0.8-0.5-2.2c0-1.4,0.4-2.2,0.6-2.2
							c0.1-0.1,0.1-0.3,0-0.5c-0.7,0-1,1.4-1.1,2.6S492.4,311.6,493.1,311.6z"/>
					</g>
					<path d="M491.1,299.9c0.2-0.4,0.5-0.8,0.7-1.2c0.4-2.1,0.8-4.2,1.1-6.3c0.9-2.2,1.8-5.2,2.2-8.7c0.7-5,0.9-10-1.8-13.7
						c-2.1-2.9-5.3-2.4-5.6-2.6c-11.7-19.8-36.8-2.3-39.7,4.3c-1.1,2.8-2.6,7.5-2.1,13.4c0.2,2.7,0.8,5,1.4,6.9
						c0.2,0.4,0.5,0.8,0.7,1.3c0.9,2.1,1,4.1,0.9,5.5c0.1,0.4,0.2,0.8,0.3,1.2c0.1-0.7,0.2-2,0.4-3.6c0.8-8.9,0.6-11.6,2.7-14.1
						c0.5-0.7,1.5-1.6,3.2-2.4c11.5,3,31.9-5.7,32.4-3.2c-0.1,1.2-0.2,2.9,0.2,5c0.5,2.9,1.4,4.9,1.8,5.9
						C490.8,289.9,491.8,293.8,491.1,299.9z"/>
					<g>
						<path class="st10" d="M463.9,318.8c0,0.6,4,1.2,7.6,1.1c2.4-0.1,5.5-0.5,5.5-1c0-0.5-3.1-1-5.5-1.1
							C468,317.7,463.9,318.2,463.9,318.8z"/>
					</g>
					<g>
						<path class="st10" d="M467,311.6c-0.1,0.2,1.5,1.7,3.4,1.7c1.8,0,3.3-1.3,3.3-1.5c-0.1-0.2-1.3,0.5-3.2,0.5
							C468.3,312.3,467,311.4,467,311.6z"/>
					</g>
					<g>
						<path d="M452.8,293.9c0.7-0.8,1.7-1.7,3-2.5c0,0,0,0,0,0c0.7-0.4,1.6-0.6,2.5-0.5c2.1,0.2,4.1,0.5,6.2,0.7
							c0.1,0.2,0.4,0.6,0.5,1.1c0.1,0.4,0.1,0.8,0,1c-2.4-0.3-4.8-0.6-7.3-0.9c-0.5-0.1-1.1,0-1.6,0.1
							C455,293.2,453.9,293.6,452.8,293.9z"/>
					</g>
					<g>
						<path d="M487.8,294.3c-0.7-0.8-1.6-1.8-2.9-2.6c0,0,0,0,0,0c-0.7-0.5-1.6-0.6-2.5-0.6c-2.1,0.2-4.1,0.4-6.2,0.6
							c-0.1,0.2-0.4,0.5-0.5,1c-0.1,0.4-0.1,0.8,0,1c2.4-0.2,4.9-0.5,7.3-0.7c0.5-0.1,1.1,0,1.6,0.2
							C485.6,293.6,486.7,293.9,487.8,294.3z"/>
					</g>
					<g>
						<path d="M475.9,298.3c1.5,2.7,4.6,3.8,7.3,2c0.8-0.5,1.5-1.2,2.1-2c-0.2,0.5-0.4,0.9-0.7,1.3
							C482.2,303.1,477.1,302.5,475.9,298.3L475.9,298.3z"/>
					</g>
					<g>
						<path d="M464.6,298.1c-1.5,2.7-4.6,3.8-7.3,2.1c-0.8-0.5-1.5-1.2-2.2-2c0.2,0.5,0.4,0.9,0.7,1.3
							C458.3,302.8,463.4,302.3,464.6,298.1L464.6,298.1z"/>
					</g>
					<path id="XMLID_00000049901226737396075970000017533059212458875295_" class="st11" d="M444.8,277.4
						c10.8-8.6,45.5-6.9,50.7-5.5c0.9,0.4,2,2.5,1.4,5.7c1,2.1,1.1,4.9-0.4,5.9c0,0,0,0.1,0,0.2c0,0.8-0.6,1.4-1.4,1.4
						c-5.9-0.4-33.2-3.8-47.9,4.9c-0.7,0.4-1.5,0.1-1.9-0.5c-0.4-0.7-0.7-1.8-0.4-3.4c-1.5-1.2-1.1-4.5-0.6-5.3
						C444.2,279.1,444.3,277.8,444.8,277.4z"/>
				</g>
				<path class="st11" d="M519.7,347.4c-0.6-5.6-5.6-6-7.1-5.5c-1.5-2.7-4.1-3.8-6.9-2.8c-0.5-1.9-5-3.3-6.2-2.4
					c0.3,9-1.1,96-12.2,128c-0.6,2.9,20.8,12,28.6,6.6C516.7,467.1,525.5,372.3,519.7,347.4z"/>
				<path class="st9" d="M464.7,358.6c-1,0.5-2.3,1.3-3.6,2.7c-3.1,3.4-2.6,7.1-3.9,7.4c-1.8,0.3-4.4-6.5-5.8-10.2
					c-0.7-1.8-1.8-4.9-2.7-9c-0.4-1.8-0.4-2.3-0.8-4.4c-1-4.7-1.7-5.3-1.6-6.7c0.1-1.7,1.3-4.2,6.5-6.9c-0.5,2.3-1.5,7.6,0.6,13.6
					C456.2,353.5,462.9,357.5,464.7,358.6z"/>
				<path class="st9" d="M481,358.6c1,0.3,2.5,0.9,4,2.1c3.6,2.9,3.6,6.7,4.9,6.7c1.8,0,3.5-7,4.2-11c0.4-2.3,0.9-5.6,0.7-9.8
					c0-0.4-0.2-1.8-0.6-4.7c-0.8-6.4-0.9-7.8-2.1-9.2c-0.6-0.7-1.7-1.6-3.8-2.1c0.1,1.8,0.1,3.7,0,5.7
					C487.8,345.9,484.1,353.6,481,358.6z"/>
				<g>
					<path class="st9" d="M481,358.5c-2.5,5.7-4.9,11.7-6.6,17.7c-1.3,6.1-1.5,12.4-1.7,18.7c-0.2,8.4-0.1,16.8,0.1,25.3
						c0,0-0.5-0.5-0.5-0.5c3.1-0.1,6.1-0.2,9.2-0.2c-3.2,0.5-6.4,0.8-9.6,1.2c0,0-0.1-0.5-0.1-0.5c-0.9-8.4-1.3-16.9-1.1-25.4
						c0.2-6.4,0.5-12.8,2.1-19.1C474.9,369.7,477.6,364,481,358.5L481,358.5z"/>
				</g>
				<circle class="st9" cx="477.1" cy="380.5" r="1.9"/>
				<circle class="st9" cx="476.5" cy="398.8" r="1.9"/>
				<circle class="st9" cx="476.5" cy="414.6" r="1.9"/>
			</g>
			<path class="st12" d="M457.5,365c-33,21.9-56.4,39.5-61.1,45.6c-3.8,4.8-3.8,9.3-3.8,9.3c0,2.6,0.8,4.5,1.9,7.3
				c1.8,4.5,3.2,7.8,6.5,9.4c1.9,0.9,4.3,0.8,9.1,0.6c3.1-0.2,5.6-0.5,7.4-0.8c2.2-2.4,5.4-5.9,8.9-10.1
				c13.2-15.8,18.2-25.2,34-46.2c2.2-2.9,5.1-6.7,8.6-11.1C465.1,367.6,461.3,366.3,457.5,365z"/>
			<path class="st12" d="M482.8,365c33,21.9,56.4,39.5,61.1,45.6c3.8,4.8,3.8,9.3,3.8,9.3c0,2.6-0.8,4.5-1.9,7.3
				c-1.8,4.5-3.2,7.8-6.5,9.4c-1.9,0.9-4.3,0.8-9.1,0.6c-3.1-0.2-5.6-0.5-7.4-0.8c-2.2-2.4-5.4-5.9-8.9-10.1
				c-13.2-15.8-18.2-25.2-34-46.2c-2.2-2.9-5.1-6.7-8.6-11.1C475.2,367.6,479,366.3,482.8,365z"/>
		</g>
		<g>
			<g>
				<g>
					<path class="st12" d="M468,323.1c-1.2,0.7-1.5,2.5-1.6,3.2c-0.6,4.4-2.2,11.1-4,15.6c-0.4,1-0.7,1.5-1.1,2.7
						c-0.8,2.5-0.7,3.9-1.2,6.9c-0.1,0.4-0.4,1.9-0.9,4.7c-0.5,2.3-1.1,5.3-1.8,8.8c-2.5,1.7-5,3.3-7.5,5c1.9,2.4,3.8,4.8,5.8,7.2
						c2.1-0.3,5.9-1.3,9.6-4.3c1.6-1.3,2.8-2.7,3.6-3.9c1.7-6.4,2-11.5,2-15.1c0-0.8-0.1-3.3-0.3-8.5c-0.4-10.2-0.5-9.9-0.4-11.3
						c0.3-2.7,0.1-5.5,0.3-8.3c0.1-0.8,0.2-2.3-0.7-2.8C469.3,322.7,468.5,322.8,468,323.1z"/>
					<g>
						<path class="st10" d="M469.9,334.8c-0.2-0.6-0.7-0.8-1.2-0.5c-0.5,0.2-0.7,0.9-0.8,1.6c-0.4,2.7-1.3,5.3-1.6,8
							c-0.1,1.4-0.4,2.7-0.9,4c0.4-1.3,0.7-2.6,0.7-4c0.2-2.7,1-5.3,1.3-8.1c0.1-1.1,0.9-2.5,2.2-2.1c0.4,0.2,0.7,0.5,0.9,0.9
							L469.9,334.8L469.9,334.8z"/>
					</g>
					<g>
						<path class="st10" d="M470.1,328.6c-0.2-0.8-1.2-0.9-1.8-0.4c-0.6,0.5-0.9,1.5-1.1,2.3c-0.9,3.6-1,7.3-2.4,10.8
							c-0.7,1.7-1.2,3.5-1.4,5.3c0.2-1.8,0.6-3.6,1.2-5.4c0.6-1.7,1-3.5,1.3-5.4c0.4-2.2,0.2-8.8,3.6-8.5c0.6,0.1,1.1,0.5,1.2,1
							L470.1,328.6L470.1,328.6z"/>
					</g>
				</g>
				<g>
					<path class="st12" d="M472.3,323.1c1.2,0.7,1.5,2.5,1.6,3.2c0.6,4.4,2.2,11.1,4,15.6c0.4,1,0.7,1.5,1.1,2.7
						c0.8,2.5,0.7,3.9,1.2,6.9c0.1,0.4,0.4,1.9,0.9,4.7c0.5,2.3,1.1,5.3,1.8,8.8c2,1.3,4,2.7,6.1,4c-1.5,2.7-2.9,5.4-4.4,8.1
						c-2.1-0.3-5.9-1.3-9.6-4.3c-1.6-1.3-2.8-2.7-3.6-3.9c-1.7-6.4-2-11.5-2-15.1c0-0.8,0.1-3.3,0.3-8.5c0.4-10.2,0.5-9.9,0.4-11.3
						c-0.3-2.7-0.1-5.5-0.3-8.3c-0.1-0.8-0.2-2.3,0.7-2.8C471,322.7,471.7,322.8,472.3,323.1z"/>
					<g>
						<path class="st10" d="M469.8,334.6c0.5-1.4,2.4-1.1,2.8,0.2c0.5,1.7,0.5,3.4,0.9,5.1c0.3,1.3,0.5,2.7,0.6,4
							c0.1,1.4,0.3,2.7,0.7,4c-0.8-1.9-0.9-4-1.2-6c-0.5-2-0.9-4-1.3-6c-0.1-0.6-0.3-1.3-0.8-1.6c-0.5-0.3-1-0.1-1.2,0.5
							L469.8,334.6L469.8,334.6z"/>
					</g>
					<g>
						<path class="st10" d="M469.6,328.4c0.4-1.1,1.9-1.4,2.8-0.6c0.8,0.8,1,1.7,1.2,2.6c0.8,3.6,0.8,7.3,2.1,10.8
							c0.6,1.7,1.1,3.5,1.2,5.4c-0.2-1.8-0.7-3.6-1.4-5.3c-0.6-1.7-1.1-3.5-1.4-5.4c-0.4-1.9-0.5-8.3-3.2-8
							c-0.4,0.1-0.6,0.3-0.7,0.7L469.6,328.4L469.6,328.4z"/>
					</g>
				</g>
			</g>
			<g>
				<g>
					<path class="st10" d="M471.4,369c-1.6-5.6-2.5-11.4-2.2-17.2c0.1-2.9,0.3-8.7,0.5-11.6c0.1-1.7,0.3-4.1,0.2-5.8
						c-0.3-3.4-0.2-6.8-0.1-10.2c0.1-0.5,0.3-1,0.7-1.2c-0.4,0.3-0.6,0.8-0.6,1.3c0.2,3.4,0.2,6.8,0.5,10.1c0.1,1.7-0.1,4.1-0.1,5.8
						c-0.1,2.9-0.3,8.7-0.5,11.6C469.4,357.6,470.1,363.3,471.4,369L471.4,369z"/>
				</g>
			</g>
		</g>
	</g>
</g>
</svg>
