<?xml version="1.0" encoding="utf-8"?>
<!-- Generator: Adobe Illustrator 26.0.1, SVG Export Plug-In . SVG Version: 6.00 Build 0)  -->
<svg version="1.1" id="Layer_1" xmlns="http://www.w3.org/2000/svg" xmlns:xlink="http://www.w3.org/1999/xlink" x="0px" y="0px"
	 viewBox="0 0 700 634" style="enable-background:new 0 0 700 634;" xml:space="preserve">
<style type="text/css">
	.st0{fill:#BDDEEF;}
	.st1{fill:#99CCE0;}
	.st2{fill:#52A7C1;}
	.st3{fill:#FFFFFF;}
	.st4{fill:#060534;}
	.st5{fill:#231F20;}
	.st6{fill:#DE9F7E;}
	.st7{fill:#D3D3D3;}
	.st8{fill:#D38A6A;}
	.st9{fill:#D34047;}
	.st10{fill:#B7303D;}
	.st11{fill:#CE8065;}
	.st12{fill:#6B3628;}
	.st13{fill:#FCB856;}
	.st14{fill:#FFAD42;}
	.st15{fill:#FB8E21;}
	.st16{fill:#4F352D;}
	.st17{opacity:0.15;}
	.st18{fill:#DD9373;}
</style>
<g>
	<g>
		<path class="st0" d="M503.4,90.2c9.4,10,18.2,21.7,24,33.5c12.2,24.9,13.2,60.5,9.5,87.7c-2.5,18.8-13.5,44.9-8.1,63.9
			c7.3,25.8,45.9,24.7,64.7,31.2c17.3,5.9,33.7,20.5,42.5,38.3c27.1,54.5-5.5,83.7-21.8,108c-18.5,27.7,21.8,61.2-1.3,88.8
			c-24.2,28.9-53.4,40.9-101.9,40.9c-96,0-117.5,8.3-250.5-2.1c-25.2-2-58.8-8.3-83.9-11.3c-37.9-4.5-131.4-41-107-109.9
			c18.1-51,112.9-43.2,81.1-112.9c-20.8-45.6-59.9-108.9-11.3-149.2c35.3-29.3,57.9-46.1,78.3-90.3c22.4-48.4,53.9-74.7,103.4-79.3
			c26.8-2.5,54-2.3,80.3,4.4c32.1,8.1,63.9,23.5,89.6,46.4C495.2,81.9,499.4,85.9,503.4,90.2z"/>
		<g>
			<path class="st1" d="M168.4,406.9c-0.4-5.2-0.5-10.3,0.4-15.5c1.9-10.7,6.9-21,13.5-29.7c6.2-8.1,12-13,20.5-18.9
				c11.6-8,26.3-9.9,40.1-10.7c10.7-0.7,21.6-0.5,32.4,0c4.1,0.2,8.2,0.5,12.3,0.8c1.8,0.1,3.5-0.3,5.2,0.4c-2.1,1-4.2,3-6,4.6
				c-4.8,4.3-8.4,10.6-12.2,15.7c-4.7,6.5-8.8,13.3-13.8,19.6c-8.9,11-22.2,20.4-36.5,22.6c-13,2-27.9-1.3-40,5.1
				c0,0-12.1,6.4-14,28.6L168.4,406.9z"/>
			<path class="st1" d="M144.8,342.4c-13.5-14.6-35.4-17.1-53-24.8c-11.6-5.1-24-12.7-31.7-23c2.7,13.9,0.8,28.9,2.5,43.2
				c1.5,13.1,7,24.7,16.6,33.9c18.2,17.5,47.8,11.7,64.5,31c7.7,8.8,10.4,22.4,13.2,32.6c0.1-10.9,1.3-23.8,1.4-27.7
				C158.3,407.6,163.9,362.9,144.8,342.4z"/>
			<path class="st2" d="M166.8,369c3.1-11.9,13.4-25.9,22.3-34.1c9.5-8.7,21.1-10.7,32.1-16.6c5.8-3.1,10.6-7.3,12.5-13.9
				c5.2-18.1-0.7-37.5-1.7-55.9c-0.6-10.3-1.3-19.9,2.2-29.4c-0.5,1.5-7.7,4.6-9.2,5.7c-2.8,2-5.6,4-8.4,5.9
				c-13.5,8.9-28.6,14.7-39.3,27.3c-9.2,10.9-15.3,24.9-18.4,38.7c-1.7,7.5-2.7,15.4-3,23c-0.4,10.3,0.9,21.5,3.4,31.5
				c2.3,9.3,2.2,23,3.9,32.3L166.8,369z"/>
			<path class="st3" d="M193.9,284.4c-5.7,12.9-11.5,26.7-16.3,40.1c-4.8,13.3-8.6,26.1-10.1,36.7l0,0c-3,19-3.1,39.7-3.1,59.7
				c0,7.7,0.8,127.7,0.8,134.6c0,0.8-0.6,1.5-1.5,1.5s-1.5-0.7-1.5-1.5c0-6.9-0.8-126.9-0.8-134.6c0-20,0-40.8,3.1-60.2l1.4,0.2
				l-1.4-0.2c1.6-10.9,5.4-23.9,10.2-37.3c4.8-13.4,10.7-27.4,16.4-40.3c0.3-0.7,1.2-1.1,1.9-0.7
				C193.9,282.9,194.2,283.7,193.9,284.4z"/>
			<path class="st3" d="M236.8,355.3c-10.9,1.7-22.9,4.6-33.4,9.7c-10.5,5.1-19.5,12.4-24.4,22.9c-3.2,6.7-5.6,15-6.5,22.3
				c-0.2,1.3-0.3,4.3-0.4,8.6c-0.3,12.8-0.4,36.8-0.4,61.2c0,34.3,0.2,69.3,0.2,75.2c0,0.8-0.7,1.5-1.5,1.5c-0.8,0-1.5-0.7-1.5-1.5
				c0-5.9-0.2-40.9-0.2-75.2c0-16.3,0-32.3,0.2-45.1c0.1-6.4,0.1-11.9,0.3-16.2c0.1-4.3,0.2-7.3,0.4-8.8c0.9-7.7,3.5-16.2,6.8-23.2
				c5.4-11.3,14.9-19,25.8-24.3c10.9-5.3,23.2-8.2,34.2-10c0.8-0.1,1.5,0.4,1.7,1.2C238.1,354.5,237.6,355.2,236.8,355.3
				L236.8,355.3z"/>
			<path class="st3" d="M155.4,555.6c0-4.4,0-16.9,0-33c0-21.3-0.1-48.8-0.5-72.5c-0.2-11.8-0.5-22.7-0.8-31.3
				c-0.2-4.3-0.4-8-0.6-11c-0.2-3-0.5-5.3-0.8-6.6c-3.4-15.8-11-30.2-22.9-41.6c-11.9-11.4-28.2-19.8-48.9-23.6
				c-0.8-0.1-1.3-0.9-1.2-1.7c0.1-0.8,0.9-1.3,1.7-1.2c21.2,3.9,38,12.6,50.3,24.4c12.4,11.8,20.3,26.8,23.8,43.1
				c0.3,1.6,0.6,3.9,0.9,7c0.9,10.7,1.3,30.1,1.6,51.6c0.3,21.4,0.3,44.9,0.3,63.5c0,16.1,0,28.6,0,33c0,0.8-0.6,1.5-1.5,1.5
				S155.4,556.4,155.4,555.6z"/>
		</g>
		<g>
			<path class="st2" d="M222.5,528.3c-5-0.5-10,1.4-9.5,7.1c-11.8-4.4-19.8,6.4-19.8,14.3h287.2c11.3-13.4-8-38.7-21.9-31.7
				c2.4-8.8-6.1-14.5-11.6-12c0.7,0.5-3-11.9-14.6-7.1c0.3-12.2-9.8-15.6-19.1-9.7c-1.2-10.1-15.5-19.2-22.1-7.9
				c0.2-15.3-20-17.7-22.9-2.4c-4.2-4.5-9.9-1.1-10.5,4.4c-3.7-5-8-4.4-11.4,0.2c10-25.2-28.2-32.8-29.8-9.6
				c-5.9-9.8-18.8-3.7-16.4,5.8c-5.5-4.9-14-2.5-13,5.9c-7.6-8.1-27-8.5-28.3,8.5c-4.5-4.9-10.5-3.5-11.7,3.4
				c-6.7-0.8-12,2-10.6,9.4c-3.1,0.2-7.5-0.1-8.6,7.5C228,514.6,217.6,517.1,222.5,528.3z"/>
			<path class="st2" d="M602,549.7c5.1-19.6-24.5-30.5-32.5-11.2c0.4-7.2,2.8-15.2-5.9-19.3c-8.7-4.1-15.2,3.1-18.9,9.3
				c9.9-16.7,5.6-37.6-17.3-43.2c-24.4-6-36.4,6.5-37,31.8c-1.7-11.6-23-14.1-24.2,2.4c-8.9-3.1-10.3-11.9-22.9-10.8
				c-11.1,1-16.3,8.1-20.5,18c0,0-25.4,0.9-19.5,23.2H602z"/>
		</g>
		<path class="st1" d="M84.1,564.5c0,18.4,122.7,33.3,274.2,33.3c151.4,0,274.2-14.9,274.2-33.3c0-18.4-122.7-33.3-274.2-33.3
			C206.8,531.2,84.1,546.1,84.1,564.5z"/>
		<g>
			<g>
				<g>
					<g>
						<path class="st4" d="M470.7,297.7L470.7,297.7l-3.8-26c-0.1-0.8-0.8-1.4-1.6-1.5l-18-2.1l-0.5,0.1l-0.3,0l0,0l-0.3,0l-0.4,0.1
							l-0.2,0l-0.3,0.3l-0.2,0.3c0,0.1-0.1,0.2-0.1,0.3l0,0c0,0.1,0,0.2,0,0.3c0,0.1,0,0.1,0,0.2l3.7,25.1c-1,0.3-1.9,0.8-2.8,1.4
							c-2.5,2-3.5,4.8-2.3,6.3c1.3,1.5,4.2,1.1,6.6-1c2.5-2.1,3.6-4.8,2.3-6.3l0,0l-2.6-17.9l14.3,1.7l2.6,17.9
							c-1,0.3-1.9,0.8-2.8,1.4c-2.5,2-3.6,4.8-2.3,6.3c1.3,1.5,4.2,1.1,6.6-1C471.2,301.6,471.9,299.2,470.7,297.7z"/>
					</g>
					<path class="st4" d="M536.2,258.2L536.2,258.2l-1.5-23c0-0.7-0.6-1.3-1.3-1.4l-15.6-3.1l-0.4,0l-0.2,0l0,0l-0.2,0l-0.4,0
						l-0.2,0l-0.3,0.2l-0.2,0.2c0,0.1-0.1,0.2-0.1,0.3l0,0c0,0.1,0,0.1,0,0.2c0,0.1,0,0.1,0,0.2l1.5,22.2c-0.9,0.2-1.7,0.6-2.5,1.1
						c-2.3,1.6-3.4,3.9-2.4,5.3c1,1.4,3.6,1.2,5.9-0.4c2.3-1.6,3.4-3.9,2.4-5.3l0,0l-1.1-15.8l12.4,2.5l1.1,15.8
						c-0.9,0.2-1.7,0.6-2.5,1.1c-2.3,1.6-3.4,3.9-2.4,5.3c1,1.4,3.6,1.2,5.9-0.4C536.3,261.6,537.1,259.6,536.2,258.2z"/>
					<path class="st4" d="M474.2,238c-0.8-0.6-1.9-0.5-2.5,0.3c-0.4,0.6-0.5,1.3-0.2,1.9l10.8,23c-0.9,0.6-1.6,1.3-2.2,2.2
						c-1.8,2.6-2,5.6-0.4,6.7c1.6,1.1,4.3-0.2,6.1-2.8c1.8-2.7,2-5.6,0.4-6.7l0,0l-8.6-18.3c1.4,0.6,9.9,4.3,11.2,7.2
						c0.5,0.8,1.6,1.1,2.4,0.7c0.9-0.5,1.2-1.6,0.7-2.5c0,0,0,0,0,0C490.1,245.9,476.7,239.9,474.2,238z"/>
					<path class="st4" d="M578.7,190c-0.8-0.6-1.9-0.5-2.5,0.3c-0.4,0.6-0.5,1.3-0.2,1.9l10.8,23c-0.9,0.6-1.6,1.3-2.2,2.2
						c-1.8,2.6-2,5.6-0.4,6.7c1.6,1.1,4.3-0.2,6.1-2.8c1.8-2.7,2-5.6,0.4-6.7l0,0l-8.6-18.3c1.4,0.6,9.9,4.3,11.2,7.2
						c0.5,0.8,1.6,1.1,2.4,0.7c0.9-0.5,1.2-1.6,0.7-2.5c0,0,0,0,0,0C594.6,197.9,581.2,191.9,578.7,190z"/>
					<path class="st4" d="M502.2,195.7c0-1-0.8-1.8-1.8-1.8c-0.7,0-1.3,0.4-1.6,1.1l-11,22.9c-1-0.3-2-0.4-3.1-0.4
						c-3.2,0.2-5.6,2-5.4,3.9c0.2,1.9,2.8,3.2,6,2.9c3.2-0.3,5.6-2,5.4-3.9l0,0l8.7-18.2c0.4,1.4,2.9,10.4,1.5,13.2
						c-0.3,0.9,0.1,1.9,1,2.3c0.9,0.4,2-0.1,2.3-1c0,0,0,0,0,0C506.1,212.9,502.3,198.9,502.2,195.7z"/>
					<path class="st4" d="M574.8,241.5c0-1-0.8-1.8-1.8-1.8c-0.7,0-1.3,0.4-1.6,1.1l-11,22.9c-1-0.3-2-0.4-3.1-0.4
						c-3.2,0.2-5.6,2-5.4,3.9c0.2,1.9,2.8,3.2,6,2.9c3.2-0.3,5.6-2,5.4-3.9l0,0l8.7-18.2c0.4,1.4,2.9,10.4,1.5,13.2
						c-0.3,0.9,0.1,1.9,1,2.3c0.9,0.4,2-0.1,2.3-1c0,0,0,0,0,0C578.8,258.7,574.9,244.7,574.8,241.5z"/>
					<g>
						<path class="st4" d="M544.4,198.1L544.4,198.1l9.7-24.4c0.3-0.8,0.1-1.6-0.6-2.1l-14.5-10.9l-0.4-0.2l-0.2-0.1l0,0l-0.2-0.1
							l-0.4-0.2l-0.2-0.1l-0.4,0.1l-0.3,0.2c-0.1,0.1-0.2,0.1-0.3,0.2l0,0c0,0.1-0.1,0.2-0.1,0.2c0,0.1-0.1,0.1-0.1,0.2l-9.4,23.6
							c-1-0.2-2.1-0.3-3.1-0.1c-3.1,0.5-5.5,2.4-5.1,4.3c0.4,1.9,3,3,6.2,2.5c3.2-0.5,5.5-2.4,5.1-4.3l0,0l6.7-16.8l11.5,8.6
							l-6.7,16.8c-1-0.2-2.1-0.3-3.1-0.1c-3.1,0.5-5.5,2.4-5.1,4.3c0.4,1.9,3,3,6.2,2.5C542.9,201.7,544.7,200,544.4,198.1z"/>
					</g>
				</g>
			</g>
		</g>
	</g>
	<g>
		<g>
			<g>
				<path class="st5" d="M323.9,549.3c-0.2-0.7-0.5-1.3-0.8-1.8c0,0,0,0,0,0c0-0.1-0.1-0.1-0.1-0.2c-0.1-0.1-0.2-0.3-0.2-0.4
					c-0.1-0.2-0.3-0.4-0.4-0.6c-0.1-0.1-0.2-0.3-0.3-0.4c-0.2-0.2-0.3-0.4-0.5-0.6c0-0.1-0.1-0.1-0.1-0.2c0,0,0,0,0,0
					c-0.1-0.1-0.2-0.3-0.4-0.4c-0.4-0.1-1-0.4-1.8-0.6c0,0-3.4-1.1-6.6-1.8c-5-1.1-14.6,0.4-19.3,2.5c-4.8,2.2-10.3,2.9-15.7,3.7
					l-1.1,0.2c-6.4,0.9-12.6,2-18.1,5.1c-6.4,3.6-10.7,9.7-11.2,15.8c-0.3,3.9,1.1,7.8,3.9,10.7c2.7,2.8,6.5,4.4,10.4,4.4
					c0.2,0,0.4,0,0.6,0c19-0.8,38.2-5.5,55.5-13.3c0.9-0.4,1.7-0.9,2.5-1.5c0.9-0.7,1.7-1.2,2.5-1.7c0.4-0.6,0.9-1.2,1.2-1.8
					c0.7-1.6,1-3.4,1.3-5.1c0,0,0,0,0,0c0-0.1,0-0.1,0-0.2C325.5,557.1,325.1,552.9,323.9,549.3z"/>
				<g>
					<path class="st6" d="M325.3,544.2c-0.1,0-0.2,0.1-0.2,0.1c-4.2,1.4-8.8,1.4-13.1,0.5c-5.7-1.2-12.3-0.1-17.8,2.3
						c-5.5,2.5-11.5,3.2-17.5,4.1c-5.9,0.9-12,1.9-17.3,4.8c-5.1,2.9-9.4,7.9-9.9,13.8c-0.5,6.9,5.4,12.6,12.3,12.3
						c18.8-0.8,37.4-5.3,54.6-13.1c0.7-0.3,1.4-0.7,2-1.2c2.1-1.6,4.3-3,6.7-4c4-1.6,7.2-3,9-3.8c0.6-3.4,1.9-7.4,0.7-11.2
						C333.7,544.8,329.3,542.8,325.3,544.2z"/>
				</g>
				<path class="st5" d="M262.1,553.3c2.3,3.8,5.6,10.2,6.6,18.8c0.5,4.6,0.3,8.6-0.1,11.8c5.9-1.1,11.8-2.3,17.7-3.4
					c0.3-3.7,0.3-8.8-0.8-14.6c-1.4-7.1-4-12.6-6-16.2C273.7,550.9,267.9,552.1,262.1,553.3z"/>
			</g>
			<g>
				<path class="st5" d="M430.6,550.4c0.2-0.7,0.5-1.3,0.8-1.8c0,0,0,0,0,0c0-0.1,0.1-0.1,0.1-0.2c0.1-0.1,0.2-0.3,0.2-0.4
					c0.1-0.2,0.3-0.4,0.4-0.6c0.1-0.1,0.2-0.3,0.3-0.4c0.2-0.2,0.3-0.4,0.5-0.6c0-0.1,0.1-0.1,0.1-0.2c0,0,0,0,0,0
					c0.1-0.1,0.2-0.3,0.4-0.4c0.4-0.1,1-0.4,1.8-0.6c0,0,3.4-1.1,6.6-1.8c5-1.1,14.6,0.4,19.3,2.5c4.8,2.2,10.3,2.9,15.7,3.7
					l1.1,0.2c6.4,0.9,12.6,2,18.1,5.1c6.4,3.6,10.7,9.7,11.2,15.8c0.3,3.9-1.1,7.8-3.9,10.7c-2.7,2.8-6.5,4.4-10.4,4.4
					c-0.2,0-0.4,0-0.6,0c-19-0.8-38.2-5.5-55.5-13.3c-0.9-0.4-1.7-0.9-2.5-1.5c-0.9-0.7-1.7-1.2-2.5-1.7c-0.4-0.6-0.9-1.2-1.2-1.8
					c-0.7-1.6-1-3.4-1.3-5.1c0,0,0,0,0,0c0-0.1,0-0.1,0-0.2C429,558.3,429.4,554.1,430.6,550.4z"/>
				<g>
					<path class="st6" d="M429.2,545.3c0.1,0,0.2,0.1,0.2,0.1c4.2,1.4,8.8,1.4,13.1,0.5c5.7-1.2,12.3-0.1,17.8,2.3
						c5.5,2.5,11.5,3.2,17.5,4.1c5.9,0.9,12,1.9,17.3,4.8c5.1,2.9,9.4,7.9,9.9,13.8c0.5,6.9-5.4,12.6-12.3,12.3
						c-18.8-0.8-37.4-5.3-54.6-13.1c-0.7-0.3-1.4-0.7-2-1.2c-2.1-1.6-4.3-3-6.7-4c-4-1.6-7.2-3-9-3.8c-0.6-3.4-1.9-7.4-0.7-11.2
						C420.8,546,425.2,543.9,429.2,545.3z"/>
				</g>
				<path class="st5" d="M492.4,554.5c-2.3,3.8-5.6,10.2-6.6,18.8c-0.5,4.6-0.3,8.6,0.1,11.8c-5.9-1.1-11.8-2.3-17.7-3.4
					c-0.3-3.7-0.3-8.8,0.8-14.6c1.4-7.1,4-12.6,6-16.2C480.8,552,486.6,553.3,492.4,554.5z"/>
			</g>
			<path class="st6" d="M389.7,554.4c-4.6-1-17-3.5-33.4-6.3c-7.5-1.3-17.1-2.8-28.4-4.3c0,0-9.7-21.8,2.8-32.6
				c9.4-8.1,28.4,2.9,67.9,22c1,0.5,4.1,2.2,8.4,4.1c8.1,3.7,15.2,6.1,20.3,7.6c-1.8,5.7-3.5,11.4-5.3,17
				C410.1,558.9,399.2,556.4,389.7,554.4z"/>
			<path class="st6" d="M362,554.4c4.6-1,17-3.5,33.4-6.3c7.5-1.3,17.1-2.8,28.4-4.3c0,0,9.7-21.8-2.8-32.6
				c-9.4-8.1-28.4,2.9-67.9,22c-1,0.5-4.1,2.2-8.4,4.1c-8.1,3.7-15.2,6.1-20.3,7.6c1.8,5.7,3.5,11.4,5.3,17
				C341.6,558.9,352.5,556.4,362,554.4z"/>
			<path class="st3" d="M506.1,519.7c0.6,10.6-18.5,19.2-32.4,25.5c-10.6,4.8-27.1,10.9-49.5,14.1c-2.5,0-12.4,0-20.7-6.1
				c-5.4-3.9-7.6-8.5-8.5-10.8c-1.5,1.1-7.9,5.4-17.4,5.2c-7.9-0.2-13.4-3.4-15.1-4.5c-1.5,3.1-5.5,10.4-14.6,14.3
				c-5.9,2.5-12,3-20.8,1.9c-33.3-4.3-49.5-14.1-49.5-14.1c-1.6-0.9-26.8-14.6-23.3-29.7c1.1-4.9,4.9-8.5,10.1-12.2
				c22.8-15.8,55.8-18.2,72.1-18.6c26.2,0,52.4,0,78.7,0c41.4,2.4,65.6,13.7,77.2,20.5C501.2,510.4,505.8,514.7,506.1,519.7z"/>
			<path class="st3" d="M375.9,529.6c0,0.1,0,0.2-0.1,0.2c-0.1,0-0.2-0.1-0.3-0.1C375.7,529.7,375.8,529.6,375.9,529.6z"/>
			<path class="st3" d="M375.6,529.7c-0.1,0-0.2,0.1-0.3,0.1c0-0.1,0-0.2-0.1-0.2C375.3,529.6,375.4,529.7,375.6,529.7z"/>
			<g>
				<path class="st3" d="M350.6,485.8c1.5,1.7,3.8,4.6,5.6,8.5c7.9,17-3.8,29.2,3.7,41.3c4.1,6.7,12.6,10.8,20.2,10.3
					c0.9-0.1,10.2-0.8,15.3-8.1c8-11.5-4.1-25.3,3.7-42.4c1.8-4.1,4.2-6.9,5.6-8.5"/>
				<path class="st7" d="M350.6,485.8c10.2,10.4,10.4,21.4,8.3,34.9c-0.7,5.9-0.1,11.8,3.9,16.3c7.7,8.9,22.3,10,30.4,1.1
					c11-12.5-7.9-31.3,11.5-51.3c-18.6,23.1,6.5,42.2-12.9,56.6c-4.1,2.7-9.1,4.3-14.1,4.1c-9.8-0.6-19.7-7.5-21.4-17.5
					c-1.1-6.4,0.9-12.5,1.5-18.7C359.1,502.2,356.4,493,350.6,485.8L350.6,485.8z"/>
			</g>
			<g>
				<path class="st7" d="M398.8,522.4c18.4,4.8,38.6,2.4,55.6-6.5c-8.1,5.3-17.3,9.1-27,11.2c-9.7,2.1-19.8,2.4-29.7,0.8
					L398.8,522.4L398.8,522.4z"/>
			</g>
			<g>
				<path class="st7" d="M397.4,511.6c10,4.3,21,5.8,31.9,4.3c-5.3,1.7-10.9,2.6-16.6,2.8c-5.7,0.2-11.5-0.5-17.1-1.8
					C395.6,516.9,397.4,511.6,397.4,511.6L397.4,511.6z"/>
			</g>
			<g>
				<path class="st7" d="M358.5,519.9c-11.3,0.4-22.9-2.4-32.7-8.1c7.8,2.8,16,4.1,24.1,3.6c2.7-0.1,5.3-0.6,7.9-1
					C357.9,514.4,358.5,519.9,358.5,519.9L358.5,519.9z"/>
			</g>
			<g>
				<path class="st7" d="M357.6,527.8c-19.6,3.2-40.2-1.2-56.7-12c8.6,4.5,18,7.4,27.5,8.5c9.5,1.1,19.1,0.4,28.2-1.9L357.6,527.8
					L357.6,527.8z"/>
			</g>
		</g>
		<g>
			<g>
				<path class="st6" d="M436.6,371.9c0.6,7.6,1.2,15.2,1.3,22.9c0.1,4.5-0.1,9-1,13.5c-0.9,4.5-3.3,8.4-4.5,12.8
					c-1.1,3.9-1.6,8-1.7,12c-0.1,2.9,0,5.8,0.3,8.6l-87.4,8.3c-0.2-5.5-0.9-10.9-2.7-16.2c-1.8-5-5.2-9.1-7.5-13.9
					c-3.3-7.1-3.8-14.5-5.3-22c-1.6-7.9-3.1-15.9-4.3-23.9c-0.8-5.1-0.7-12.8-0.9-18c-0.1-1.6-0.6-6.3,1.4-7.3
					c10.6-7.5,21.3-14.9,31.9-22.4c0.4-1.2,0.8-2.3,1-3.3c0.3-1.2,0.6-2.5,0.6-4.1c0-1.3-0.1-2.2-0.2-3.3c-0.2-2.4-0.6-4.9-1-7.1
					c6.2,2.7,13.6,2.8,20.2,2.2c6-0.6,12-2,17.5-4.4c0,1.4,0.1,2.9,0.2,4.5c0.1,1.1,0.2,2.3,0.4,3.4c0.6,3.8,1.6,7.5,3.4,10.1
					c0.4,0.5,0.9,0.9,1.3,1.1c8.5,3.6,22.2,12,32.9,12.9c1.4,2.7,1.2,7,1.5,9.9C435.2,355.4,436.1,364.9,436.6,371.9z"/>
				<path class="st8" d="M394.7,311c0.1,0.7,0.1,1.4,0.2,2.1c-1.1,1.7-3,4-5.6,6.3c-3.2,2.8-6.6,5.8-11.6,6.5
					c-4.8,0.7-8.8-1.1-11.7-2.4c-3.8-1.7-6.4-3.9-8.1-5.5c0-0.8-0.1-1.6-0.2-2.3c-0.2-2.5-0.6-4.9-1-7.1c6.2,2.7,13.6,2.8,20.2,2.2
					c6-0.6,12-2,17.5-4.4C394.5,307.9,394.6,309.4,394.7,311z"/>
				<path class="st6" d="M347.3,282.1c-0.7-2.1,0.4-2.8-2-3.7c-2-0.7-3.5,3.2-3.8,5.9c-0.3,2.7,3.1,12,4.7,13.3
					c1.6,1.2,3.7,1.6,4.1-0.8L347.3,282.1z"/>
				<path class="st6" d="M397.6,271.3c1.8,11.3,3.5,22.8-2,34.1c-0.5,1-2.3,4.5-5.6,8.2c-2.9,3.2-7,6.9-13.2,8.6
					c-1.2,0.3-2.4,0.4-3.6,0.2c-9.3-1.4-17.5-9.6-20-13.3c0,0,0,0,0,0c-0.3-0.4-0.6-0.8-1-1.4c-0.3-0.6-0.6-1.1-0.8-1.6c0,0,0,0,0,0
					c-2.5-5.8-4.1-22.4-5-31.9c-1.7-13.1,5.7-24.9,18.9-29.6c1.6-0.6,3.2-0.9,4.9-1l0,0c0.1,0,0.3,0,0.4,0c1.5-0.1,2.9,0,21,9.6
					C396.6,255.9,396.1,262.2,397.6,271.3z"/>
				<g>
					<path class="st9" d="M292,415.5c1-12.5,11.6-48.9,13.4-57c2.1-9.4,4.8-16.3,14.5-18c5.3-0.9,9-1.3,14.2-2.8l14.9,12.8
						l-18.5,77.9C320.6,421.1,300.2,417.9,292,415.5z"/>
				</g>
				<g>
					<path class="st9" d="M469.6,425.6c-1-12.5-12.9-58.3-14.7-66.4c-2.1-9.4-4.7-16-14.4-17.7c-5.3-0.9-9.1-1.6-14.3-3.1
						l-10.3,22.2l17.4,78.9L469.6,425.6z"/>
					<path class="st10" d="M430.2,426.2c12.8-3.8,25.6-7.7,38.4-11.5c0.9,2.9,1.7,6,2.5,9.4c0.7,3,1.2,5.9,1.6,8.6
						c-13,3.8-25.9,7.6-38.9,11.4c-0.9-2-1.7-4.5-2.4-7.3C430.4,432.7,430.2,429.1,430.2,426.2z"/>
				</g>
				<path class="st10" d="M330.8,411.5c-12.8-3.8-25.6-7.7-38.4-11.5c-0.9,2.9-1.7,6-2.5,9.4c-0.7,3-1.2,5.9-1.6,8.6
					c13,3.8,25.9,7.6,38.9,11.4c0.9-2,1.7-4.5,2.4-7.3C330.7,418,330.9,414.3,330.8,411.5z"/>
				<path class="st9" d="M325.5,427c-0.1,2.2-0.2,3.6-0.2,5.1c-0.2,8.3,0,11.8,0.1,19.9c0.1,9.8,0,15.2-2.2,21.8
					c-0.9,2.7-1.9,4.9-2.7,6.3c-8.9,8.4-17.9,16.9-26.8,25.3c25.2-1.5,45.8-0.6,60.1,0.6c29.1,2.4,45.8,6.9,76.5,6.2
					c14.3-0.3,26.1-1.7,33.9-2.8c-10.4-10.1-20.8-20.2-31.2-30.4c0.1-2.4,0.1-5.1,0-8.1c-0.1-3.6-0.3-5.1-0.3-8.3
					c0-3.6,0.1-6.3,0.2-8.1c1.8-31.8,3.7-47.6,5.6-61.1c2.8-20.3,6.1-30.4,5.9-47.6c0-1.4,0-2.5-0.1-3.2c-3.5-1.3-7.1-2.8-10.7-4.2
					c-11.9-4.9-23-10.1-33.4-15.4c-0.5-0.9-1.7-2.7-4.1-4c-1.4-0.7-2.8-1-3.6-1.1c1,1.6,7.7,12.6,3.3,24.5c-1.7,4.7-4.6,7.9-6.7,9.8
					c-2.7,6.1-5.4,12.2-8.1,18.3c-0.6-3.6-9-17.8-10.8-18.4c-2.3-0.9-3.9-1.9-5.3-2.9c0,0-3-2.3-5.3-5.7c-3.1-4.7-4.2-12.5-2.2-21.1
					c-1.2,0.6-2.8,1.6-4.3,3c-1.2,1.1-2,2.1-2.6,3.1c-11.5,4.4-23.1,8.8-34.6,13.1c0.6,26.6,3.1,42.2,5.5,51.8
					C321.5,393.4,326.2,412.1,325.5,427z"/>
				<g>
					<path d="M378.1,337.8c-1.5,0.1-10.8,0.8-16.6-5.7c-1.3-1.5-2.2-3-2.6-4c-0.6-1.3-1-2.5-1.2-3.3c0,0,0-0.1-0.1-0.1
						c-0.1-0.2-0.5-1.1,0-2c0.1-0.2,0.2-0.4,0.5-0.6c0.1,0.5,0.3,1.2,0.6,2.1c0,0,1.3,3.8,3.7,6.7c3.4,4.1,15.7,8.8,25.2,2.6
						c6.7-4.4,8.4-11.8,8.8-13.6c0.2,0.1,0.5,0.6,0.7,1.2c0.2,0.3,0.2,1.1,0.2,1.2c-0.7,2-2.1,8.2-9,12.4
						C387.1,335.3,383.4,337.4,378.1,337.8z"/>
				</g>
				<g>
					<path d="M347.8,300.7c-0.8,0-1.2-1.5-1.3-2.9l0.6,0.3c0.1,1.6,0.6,2.1,0.7,2.1c0.2,0,0.6-0.9,0.5-2.4c-0.1-1.6-0.6-2.4-0.7-2.4
						c-0.1-0.1-0.2-0.3,0-0.5c0.8,0,1.2,1.5,1.3,2.9C348.8,299.1,348.5,300.7,347.8,300.7z"/>
				</g>
				<path class="st6" d="M397.1,279.3c0.5-2.2,0.1-3.2,2-4c1.9-0.9,3.9,2.7,4.5,5.4c0.6,2.7-1.6,12.3-3.1,13.7
					c-1.5,1.4-3.5,2-4.2-0.3L397.1,279.3z"/>
				<g>
					<path d="M399.3,297.7c0.8,0,1-1.6,1-3.1l-0.5,0.4c0.1,1.6-0.3,2.1-0.5,2.1c-0.2,0-0.7-0.8-0.7-2.4c-0.1-1.6,0.3-2.4,0.5-2.4
						c0.1-0.2,0.1-0.3,0-0.5c-0.8,0-1,1.6-1,3S398.5,297.7,399.3,297.7z"/>
				</g>
				<path d="M396.2,284.9c0.2-0.4,0.4-0.9,0.7-1.3c0.3-2.3,0.5-4.7,0.8-7c0.8-2.6,1.6-5.9,1.8-9.9c0.4-5.6,0.2-11.1-3.1-15.1
					c-2.5-3.1-6-2.2-6.4-2.5c-14.6-21.1-41,0.4-43.8,7.9c-1,3.1-2.3,8.5-1.3,15c0.4,3,1.3,5.5,2.1,7.5c0.3,0.4,0.6,0.9,0.8,1.4
					c1.2,2.3,1.4,4.5,1.4,6c0.2,0.4,0.3,0.9,0.5,1.3c0-0.8,0.1-2.3,0.1-4c0.2-10-0.2-13,1.9-15.9c0.5-0.8,1.5-1.9,3.3-2.9
					c13,2.4,35-8.8,35.7-6.1c0,1.3,0,3.2,0.6,5.5c0.7,3.2,2,5.4,2.5,6.4C395.1,273.8,396.5,278,396.2,284.9z"/>
				<g>
					<path class="st11" d="M366.7,307.2c-0.1,0.8,3.9,2.5,8.1,2.3c3.9-0.2,7.4-2.2,7.3-2.9c0-0.1-0.2-0.4-6.1-0.2
						C369.8,306.5,366.8,306.6,366.7,307.2z"/>
				</g>
				<g>
					<path class="st11" d="M370.3,299.7c-0.1,0.2,1.7,1.7,3.9,1.6c2-0.1,3.6-1.7,3.5-1.9c-0.1-0.2-1.4,0.7-3.5,0.8
						C371.9,300.4,370.4,299.5,370.3,299.7z"/>
				</g>
				<g>
					<path d="M353.2,281.2c0.7-0.9,1.7-2,3.1-3c0,0,0,0,0,0c0.8-0.6,1.7-0.8,2.7-0.8c2.3,0.1,4.6,0.2,7,0.3c0.2,0.2,0.5,0.6,0.6,1.1
						c0.1,0.4,0.1,0.8,0.1,1.1c-2.7-0.1-5.4-0.2-8.1-0.4c-0.6,0-1.2,0.1-1.8,0.3C355.6,280.3,354.4,280.7,353.2,281.2z"/>
				</g>
				<g>
					<path d="M392.1,278.9c-0.8-0.8-1.9-1.8-3.4-2.6c0,0,0,0,0,0c-0.8-0.5-1.8-0.6-2.8-0.4c-2.3,0.4-4.6,0.8-6.9,1.1
						c-0.2,0.2-0.4,0.6-0.5,1.2c-0.1,0.5,0,0.8,0,1.1c2.7-0.4,5.4-0.9,8-1.3c0.6-0.1,1.2-0.1,1.8,0.1
						C389.6,278.3,390.9,278.6,392.1,278.9z"/>
				</g>
				<g>
					<path class="st3" d="M366.7,286.8c-0.2-0.3-1.4-2.6-3.8-3.1c-2.5-0.5-5.3,0.9-6.7,3.7c0.5,0.4,2.4,1.8,5.2,1.7
						C364.4,288.9,366.3,287.2,366.7,286.8z"/>
					<path class="st12" d="M364.2,285.9c0.2,1.3-0.6,2.5-1.9,2.8c-1.3,0.2-2.5-0.6-2.8-1.9c-0.2-1.3,0.6-2.5,1.9-2.8
						C362.7,283.8,363.9,284.6,364.2,285.9z"/>
					<path d="M366.7,286.8c-1.9-2.9-5.5-3.8-8.3-1.7c-0.9,0.6-1.6,1.4-2.2,2.4c0.2-0.5,0.4-1.1,0.7-1.6
						C359.4,282,365.1,282.2,366.7,286.8L366.7,286.8z"/>
					<path d="M363,286.2c0.1,0.6-0.3,1.3-0.9,1.4c-0.6,0.1-1.3-0.3-1.4-0.9c-0.1-0.6,0.3-1.3,0.9-1.4
						C362.3,285.2,362.9,285.6,363,286.2z"/>
					<path class="st3" d="M361.2,285.7c0.1,0.3-0.1,0.5-0.4,0.6c-0.3,0.1-0.5-0.1-0.6-0.4c-0.1-0.3,0.1-0.5,0.4-0.6
						C360.9,285.2,361.2,285.4,361.2,285.7z"/>
				</g>
				<g>
					<path class="st3" d="M379.4,286.2c0.1-0.4,1-2.8,3.3-3.7c2.4-0.9,5.4,0.2,7.1,2.7c-0.5,0.5-2.2,2.1-4.9,2.4
						C382,287.9,379.9,286.5,379.4,286.2z"/>
					<path class="st12" d="M381.8,285c-0.1,1.3,1,2.4,2.3,2.5c1.3,0.1,2.4-1,2.5-2.3c0.1-1.3-1-2.4-2.3-2.5
						C382.9,282.6,381.8,283.6,381.8,285z"/>
					<path d="M379.4,286.2c1.5-3.2,4.9-4.5,8-2.9c0.9,0.5,1.8,1.2,2.5,2.1c-0.2-0.5-0.6-1-0.9-1.4
						C385.9,280.4,380.3,281.4,379.4,286.2L379.4,286.2z"/>
					<path d="M383,285.1c0,0.6,0.5,1.2,1.1,1.2c0.6,0,1.2-0.5,1.2-1.1c0-0.6-0.5-1.2-1.1-1.2C383.5,283.9,383,284.4,383,285.1z"/>
					<path class="st3" d="M384.6,284.3c0,0.3,0.2,0.5,0.5,0.5c0.3,0,0.5-0.2,0.5-0.5c0-0.3-0.2-0.5-0.5-0.5
						C384.9,283.8,384.6,284,384.6,284.3z"/>
				</g>
				<path id="XMLID_00000082346761055721773950000004768454645786555536_" class="st13" d="M343,263.5c11.3-10.4,50-11.3,55.8-10.1
					c1,0.4,2.4,2.6,2,6.3c1.2,2.2,1.6,5.4,0,6.6c0,0,0,0.1,0,0.2c0.1,0.9-0.6,1.6-1.5,1.6c-6.5,0-37.1-1.6-52.8,9.2
					c-0.7,0.5-1.7,0.3-2.1-0.4c-0.5-0.8-0.9-2-0.8-3.8c-1.7-1.3-1.6-4.9-1-5.9C342.5,265.4,342.6,264,343,263.5z"/>
			</g>
			<path class="st13" d="M432.1,340c-0.7-6.2-6.2-6.7-7.9-6.2c-1.7-3-4.5-4.3-7.7-3.1c-0.6-2.1-5.5-3.6-6.9-2.7
				c0.4,10-1.2,106.8-13.6,142.4c-0.7,3.2,23.2,13.4,31.8,7.3C428.8,473.1,438.6,367.7,432.1,340z"/>
			<path class="st10" d="M370.9,352.4c-1.1,0.5-2.6,1.4-4,3c-3.5,3.8-2.8,7.9-4.3,8.2c-2,0.4-4.9-7.3-6.4-11.4c-0.7-2-2-5.4-3-10
				c-0.4-2-0.4-2.5-0.9-4.9c-1.2-5.2-1.9-5.9-1.8-7.5c0.1-1.9,1.5-4.6,7.2-7.7c-0.6,2.6-1.6,8.4,0.6,15.2
				C361.5,346.7,368.9,351.2,370.9,352.4z"/>
			<path class="st10" d="M389,352.4c1.1,0.4,2.8,1,4.4,2.4c4,3.3,4,7.4,5.5,7.5c2,0.1,3.9-7.8,4.7-12.2c0.6-3.5,1.5-9,0.2-16.1
				c-0.6-3.3-1.5-6.1-2.4-8.4c-0.4-1.1-0.8-1.9-1-2.2c-0.5-1-0.9-1.8-1.3-2.3c-1.2-1.6-3.7-1.7-5.4-1.6c1.4,2.1,2.8,4.9,3.6,8.2
				C400,340.3,390.4,350.9,389,352.4z"/>
			<g>
				<path class="st10" d="M389,352.3c-2.8,6.3-5.4,13-7.4,19.7c-1.5,6.8-1.6,13.8-1.9,20.8c-0.2,9.4-0.1,18.7,0.2,28.1l-0.6-0.5
					c3.4-0.1,6.8-0.2,10.2-0.2c-3.5,0.5-7.1,0.9-10.7,1.4c0,0-0.1-0.6-0.1-0.6c-1-9.4-1.4-18.8-1.3-28.2c0.2-7.1,0.5-14.3,2.4-21.2
					C382.3,364.8,385.3,358.4,389,352.3L389,352.3z"/>
			</g>
			<circle class="st10" cx="384.8" cy="376.8" r="2.2"/>
			<circle class="st10" cx="384.1" cy="397.1" r="2.2"/>
			<circle class="st10" cx="384.1" cy="414.7" r="2.2"/>
		</g>
		<g>
			<g>
				<g>
					<polygon class="st14" points="453.9,314.2 374.2,322.2 373.6,316.2 453.3,308.1 					"/>
					<polygon class="st15" points="458.5,313.7 453.9,314.2 453.8,313 453.3,308.1 457.9,307.6 					"/>
					<path class="st15" d="M351.1,320.4l11,0.3l0.4,0.9c1.7,2,5.2,1.3,7.9,1.1l3.9-0.4l-0.6-6.1l-22.6,2.3L351.1,320.4z"/>
					<path class="st16" d="M386.1,316.6c0,0.4-1.2,0.9-2.7,1c-1.5,0.2-2.8-0.1-2.8-0.5c0-0.4,1.2-0.9,2.7-1
						C384.8,315.9,386.1,316.1,386.1,316.6z"/>
					<path class="st16" d="M398.2,315.3c0,0.4-1.2,0.9-2.7,1c-1.5,0.2-2.8-0.1-2.8-0.5c0-0.4,1.2-0.9,2.7-1
						C396.9,314.7,398.2,314.9,398.2,315.3z"/>
					<path class="st16" d="M410.3,314.1c0,0.4-1.2,0.9-2.7,1c-1.5,0.2-2.8-0.1-2.8-0.5c0-0.4,1.2-0.9,2.7-1
						C409,313.5,410.3,313.7,410.3,314.1z"/>
					<path class="st16" d="M422.5,312.9c0,0.4-1.2,0.9-2.7,1c-1.5,0.2-2.8-0.1-2.8-0.5c0-0.4,1.2-0.9,2.7-1
						C421.2,312.2,422.4,312.5,422.5,312.9z"/>
					<path class="st16" d="M434.6,311.7c0,0.4-1.2,0.9-2.7,1c-1.5,0.2-2.8-0.1-2.8-0.5c0-0.4,1.2-0.9,2.7-1
						C433.3,311,434.5,311.2,434.6,311.7z"/>
					<path class="st16" d="M446.7,310.4c0,0.4-1.2,0.9-2.7,1c-1.5,0.2-2.8-0.1-2.8-0.5c0-0.4,1.2-0.9,2.7-1
						C445.4,309.8,446.7,310,446.7,310.4z"/>
					<path class="st17" d="M458.5,313.7l-4.5,0.5l-79.7,8.1l-3.9,0.4c-2.6,0.3-6.2,1-7.9-1.1l-0.4-0.9l1.2-0.1l10.9,0.5l79.7-8.1
						l4.5-0.5L458.5,313.7z"/>
				</g>
				<g>
					<path class="st18" d="M454.5,316.4c0.2,1.1-2.6,2.5-3.8,3c-0.4,0.2-0.8,0.3-0.9,0.3c-2.4,1-4,3.2-5.1,5.7c0,0,0,0,0,0
						c-0.2,1.2-0.5,2.5-1.1,4c-1.9,4.8-5.5,7.6-7.4,8.9c0.5,2.8,1,5.7,1.5,8.5c0.3,1.8,0.5,3.6,0.8,5.4c-4.2,2.2-8.4,4.3-12.6,6.5
						c-1.1-5.9-2.3-11.9-3.4-17.8c-3.4-2.3-4.8-4.7-5.4-6.5c-1.3-3.8-0.2-7.7-2.8-13.8c0-0.1-0.1-0.2-0.1-0.2
						c-0.9-0.7-1.7-2-2.3-3.1c-0.1-0.2-0.2-0.4-0.3-0.6c-0.6-1-0.9-2.6,0-3.7c0.4-0.4,0.9-0.9,1.5-1.1c0,0,0.1,0,0.1,0
						c0,0,0.1,0,0.1,0c0.1,0,0.2-0.1,0.3-0.1c0.2-0.1,0.4-0.4,0.5-0.7c0-0.1,0-0.1,0-0.2c0,0,0,0,0,0c0.1-0.2,0.2-0.5,0.5-0.9
						c1.1-1.5,2.8-1.7,3.2-1.8c0.6-0.1,1.2-0.1,1.4,0c0.4,0,0.9,0.2,1.6,0.4c0,0,0,0,0.1,0c0,0,0.2,0.1,0.2,0.1
						c0.5,0,0.9-0.2,1.1-0.7c0-0.1,0.1-0.7,0.2-0.8c0,0,0.1-0.2,0.2-0.4c0.3-0.4,1.4-1.2,2.7-1.1c0.6,0,1,0,1.5,0.4
						c0.2,0.1,0.4,0.3,0.6,0.3c0.2,0,0.4-0.3,0.5-0.5c0.1-0.1,0.1-0.2,0.1-0.4c0,0,0-0.1,0-0.2c0,0,0,0,0,0c-0.1-0.3,0-0.6,0-0.9
						c0.2-0.7,1-1.2,1.7-1.4c0.3-0.1,0.6-0.1,0.9-0.1c1.2-0.1,6.3,1.8,8.7,6.7c2.3,4.8,0.8,9.5,0.3,10.7c0.6-0.5,5.3-4.5,9.2-5.2
						c1.6-0.3,2.9,0,3.3,0C452.6,315.2,454.3,315.6,454.5,316.4z"/>
					<g>
						<path class="st11" d="M432,308.5c0.3,0.2,1.8,1.3,2.1,0.9c0.2-0.3-1.1-1.7-1.4-1.9c-1.7-1.2-5-1.9-5-1.8
							c-0.1,0.2-0.3,0.4-0.5,0.5C427.1,306.3,430.6,307.6,432,308.5z"/>
					</g>
					<g>
						<path class="st11" d="M423.3,310.3c0.4,0.2,0.8,0.4,1.2,0.6c0.3,0.2,0.7,0.5,1.1,0.7c0.8,0.5,1.9,1,2.1,0.9
							c0.3-0.2-0.8-1.3-1.1-1.7c-0.7-0.8-4.5-2.8-4.6-2.7c-0.1,0.4-0.6,0.7-1.1,0.7C420.8,308.7,422.5,309.8,423.3,310.3z"/>
					</g>
					<g>
						<path class="st11" d="M418.6,314.5c0.5,0.4,1.9,1.4,2.1,1.1c0.3-0.3-1-1.8-1.3-2.1c-1.5-1.4-5.5-2.4-5.5-2.4
							c0,0.3-0.2,0.5-0.5,0.7C413.3,311.8,417.1,313.3,418.6,314.5z"/>
					</g>
				</g>
			</g>
			<g>
				<path class="st18" d="M345.1,346.1c0,0-0.1,0.1-0.1,0.1c0.1,0,0.2-0.1,0.4-0.3C345.2,346,345.1,346,345.1,346.1z M404.7,317.8
					c-0.6-2.5-2.5-3.4-5.5-4.4c0.6-0.3,0.4-1.5,0.1-1.7c0,0-0.7-1.1-4.9-2c-9.7-1.9-15.3-1-18.9,1.5c-2.9,2-4.3,5.6-7.4,12.5
					c-0.9,2-1.5,3.7-2,4.9c-5.1,6.8-10.3,13.7-15.4,20.5c4.5,1.9,8.9,3.9,13.4,5.8c3.7-6,7.3-12,11-18.1c1.4-0.3,3.4-1,5.6-2.4
					c4.2-2.7,4.8-5.6,8-7.2c1.8-1,4.8-1.7,9.8-0.1c3.6,0.2,2.1-2.2,0.7-3.4c2.8,1,7.7-0.1,3-4C402.7,320.2,405,319,404.7,317.8z
					 M388.2,313.3c0.3-0.1,0.6-0.2,0.9-0.3c0.6-0.3,3.5-0.7,6-0.4c0.6,0.1,1.1,0.2,1.6,0.3c-1.3-0.1-2.5-0.1-3.8-0.1
					c0,0-0.1,0-0.1,0c-0.7,0-1.4,0.1-2.2,0.2c0,0,0,0-0.1,0c-1.1,0.2-2.4,0.4-3.9,0.8C387.1,313.7,387.6,313.5,388.2,313.3z
					 M395.3,316.6c-3.8-0.6-6.9,0.3-8.6,0.9c2.3-1.5,8.2-1.6,10.4-0.7C396.2,316.7,395.5,316.7,395.3,316.6z"/>
				<path class="st11" d="M396.7,312.9c-1.3-0.1-2.5-0.1-3.8-0.1c0,0-0.1,0-0.1,0c-0.7,0-1.4,0.1-2.2,0.2c0,0,0,0-0.1,0
					c-1.1,0.2-2.4,0.4-3.9,0.8c0.4-0.2,0.8-0.4,1.4-0.6c0.3-0.1,0.6-0.2,0.9-0.3c0.6-0.3,3.5-0.7,6-0.4
					C395.7,312.6,396.2,312.7,396.7,312.9z"/>
				<path class="st11" d="M397,316.9c-0.9-0.2-1.5-0.2-1.8-0.2c-3.8-0.6-6.9,0.3-8.6,0.9C389,316,394.9,315.9,397,316.9z"/>
				<path class="st11" d="M397.1,322.7c-1.1-0.3-4.2-0.9-7.5-0.7C393.9,321.6,396.2,322.4,397.1,322.7z"/>
			</g>
		</g>
		<path class="st18" d="M375,336.6c-9.8,14.8-16.1,27.6-20.1,36.7c-9,20.5-12.3,35.8-26.7,54.4c-4,5.1-7.6,8.9-9.9,11.3
			c-2,0.3-4.8,0.7-8.3,0.9c-5.4,0.3-8.1,0.4-10.1-0.6c-3.6-1.8-5.2-5.5-7.2-10.5c-1.3-3.1-2.2-5.2-2.1-8.1c0.1-4.9,2.9-8.6,4.3-10.4
			c5.3-6.6,33.1-39.1,71.7-83.2C369.4,330.3,372.2,333.4,375,336.6z"/>
		<path class="st18" d="M422.4,340.9c2.5,14.5,3.3,26.3,3.6,34.3c0.7,22.9-2.1,37.4,4.8,57.5c1.7,5,3.6,9,4.8,11.5
			c1.5,0.9,3.8,2.2,6.6,3.4c4.4,2,6.6,2.9,8.7,2.8c3.9-0.3,6.6-3,9.8-6.1c2.1-2.1,3.9-3.8,4.9-6.6c1.6-4.3,0.4-8.5-0.2-10.4
			c-2.3-7.6-13.5-41.9-29.3-88.9C431.6,339.2,427,340,422.4,340.9z"/>
	</g>
</g>
</svg>
