<?xml version="1.0" encoding="utf-8"?>
<!-- Generator: Adobe Illustrator 26.0.1, SVG Export Plug-In . SVG Version: 6.00 Build 0)  -->
<svg version="1.1" id="Layer_1" xmlns="http://www.w3.org/2000/svg" xmlns:xlink="http://www.w3.org/1999/xlink" x="0px" y="0px"
	 viewBox="0 0 852.1 570.1" style="enable-background:new 0 0 852.1 570.1;" xml:space="preserve">
<style type="text/css">
	.st0{fill:#BDDEEF;}
	.st1{fill:#99CCE0;}
	.st2{fill:#FFFFFF;}
	.st3{fill:#444951;}
	.st4{fill:#FCA170;}
	.st5{fill:#EA916A;}
	.st6{fill:#A19AAD;}
	.st7{fill:#C0B8CF;}
	.st8{fill:#B5AEB0;}
	.st9{fill:#17140C;}
	.st10{fill:#E8E8E8;}
	.st11{fill:#754026;}
	.st12{fill:#FF9017;}
	.st13{fill:#FF3C00;}
	.st14{fill:#004345;}
	.st15{fill:#006370;}
	.st16{fill:#E5B19C;}
	.st17{fill:#A5A5A5;}
	.st18{fill:#BECCCA;}
	.st19{fill:#686B6B;}
	.st20{fill:#0D726E;}
	.st21{fill:#E6E6FF;}
	.st22{fill:#BFAD45;}
	.st23{fill:#6F7F87;}
	.st24{fill:#11B7AE;}
	.st25{fill:#BC2800;}
	.st26{fill:#D1DEE5;}
	.st27{fill:#576C7C;}
	.st28{fill:#52A7C1;}
	.st29{clip-path:url(#SVGID_00000088099385997051282220000011798633968653033368_);fill:#ADADAD;}
	.st30{clip-path:url(#SVGID_00000088099385997051282220000011798633968653033368_);}
	.st31{fill:#FFF8ED;}
	.st32{fill:#08161C;}
	.st33{fill:#00223D;}
	.st34{fill:#212121;}
	.st35{fill:#F28E62;}
	.st36{fill:#D33F33;}
	.st37{fill:none;stroke:#000000;stroke-miterlimit:10;}
	.st38{fill:#ADADAD;}
	.st39{fill:#4F2921;}
</style>
<g>
	<g>
		<path class="st0" d="M113.6,520.7c0,0-133.4-192.2-52.9-268.9c80.5-76.6,157.2-8.3,172.5-91c14.1-76.2,68-150.3,166-126.4
			C525,65.1,511.1,151.8,572.9,145.3c61.8-6.5,167.4-55,186.6,36.9C778.6,274.2,689,353,746,346.5c39.2-4.5,89.3-14.5,63.4,80.4
			C793,487.3,769,520.7,769,520.7H113.6z"/>
		<g>
			<path class="st1" d="M97.2,467.1c23.9-10,50.1,15.4,50.1,15.4s-22.4-23.2-22.9-56.1c-0.3-23.4,20.3-57.5,27.6-58.7
				c7.3-1.2,27.1,20.7,32,62.4c2.2,19.5-7.5,48.7-7.5,48.7s17.2-39.7,54-40.5c2.8,9.7-7.2,31.1-14.7,43.8c-6.5,11-22.9,30.3-58.3,26
				C113.9,503,96.7,467.4,97.2,467.1z"/>
			<path class="st2" d="M143.7,384.5c3,6.5,6,12.7,9.7,18.8c-0.3-9.9-0.8-20.1-0.1-29.9c0.1-0.9,1.3-0.9,1.4,0
				c0.5,5.9,0.4,11.9,0.4,17.9c0.7-1.3,1.3-2.6,1.7-4c0.7-2.1,0.5-4.3,0.7-6.5l0.5-0.1c1.6,3.9-0.4,8.6-2.9,11.9
				c-0.1,4.1-0.1,8.2-0.1,12.3c0.1,10.2,0.5,20.4,1.2,30.5c3.8-11.1,8.6-21.7,11.8-33l0.5,0.1c-1.5,11.7-7,23.2-12,33.8l-0.2,0.1
				l0,0.7c0.9,13,2.5,26.1,5.1,38.9c7.2-12.1,12-24.3,16.2-37.7c0.1-0.3,0.5-0.2,0.5,0.1c-2.2,13-8.2,27.9-16.5,38.3l-0.1,0
				c1.8,8.5,4,16.9,6.9,25.1c0.1,0.4-0.5,0.6-0.6,0.2c-7.2-19.7-10.8-40.2-12.6-61c-1-11.3-1.5-22.7-1.8-34.1c0-0.8,0-1.7-0.1-2.6
				c-4.4-5.8-8.3-12.7-10-19.8L143.7,384.5z"/>
			<path class="st2" d="M104.9,468c4.2,2.9,7.9,6.5,12.1,9.4c3.2,2.2,6.5,4.2,9.9,6.1c-2.9-2.8-5.7-5.8-8.2-9l0.4-0.3
				c3.4,2.7,6.1,6.4,9,9.7l0,0.3c1.4,0.8,2.8,1.6,4.3,2.3c6.5,3.5,13.2,6.5,19.8,9.9c-4-3.4-7.5-7.4-11.7-10.6
				c-0.3-0.2,0-0.6,0.3-0.5c5.5,2.5,9.3,7.9,13.6,12l0.1,0.2c2.5,1.3,5,2.7,7.4,4.2c0.4,0.3,0.1,0.9-0.4,0.6
				c-10.5-4.9-21.1-9.9-31.3-15.4c-8.7-4.6-19.7-10.2-25.7-18.4C104.1,468.2,104.6,467.8,104.9,468z"/>
			<path class="st2" d="M172.6,498.8c1.5-1,2.9-1.9,4.4-2.9l0,0c2.2-4.3,5.3-8.1,7.6-12.4c2.5-4.8,4.6-9.9,5.9-15.2l0.4,0.1
				c-0.8,5.5-3,10.6-5.4,15.6c-1.5,3.2-3.4,7.1-5.9,10.1c5.3-3.7,10.4-7.5,15.3-11.6c3.4-9.2,7-18.4,10.5-27.7
				c0.1-0.3,0.6-0.2,0.5,0.1c-2.7,8.9-5.6,18.1-9.9,26.5c2.7-2.3,5.3-4.7,7.8-7.3c2.7-2.7,5.3-5.6,7.7-8.7l-0.1-0.3
				c1.6-6,3.8-12.1,6-17.9l0.4,0.1c-1.9,5.4-2.8,11.7-5.4,16.9c1.7-2.2,3.3-4.4,4.8-6.6c3.4-5.2,5.2-11.2,8.4-16.5
				c0.2-0.3,0.7-0.2,0.6,0.2c-0.5,5.4-4,11-6.8,15.6c-3.7,6.1-8.4,11.7-13.3,16.9c-7.1,7.5-15.3,14.5-24.2,20.1
				c3.2-0.3,6.3-0.4,9.5-1.2c4.2-1.1,8-3.2,11.8-5.3c0.3-0.2,0.6,0.3,0.3,0.5c-6.5,4.2-15.1,8.4-23.2,6.9c-2.5,1.5-5,3-7.5,4.3
				C172.6,499.4,172.4,499,172.6,498.8z"/>
			<path class="st2" d="M133.3,434.5c4.6,6.8,7.8,14.6,11.7,21.8c4.6,8.3,9.8,15.8,15.9,23.1l-0.3,0.3c-6.3-6.2-11.1-13.7-15.5-21.2
				c-4.4-7.5-9.1-15.6-12.3-23.7C132.8,434.5,133.2,434.3,133.3,434.5z"/>
			<path class="st2" d="M135.6,401.6c6.7,12.7,11.8,25.9,19.4,38.2l-0.3,0.3c-8.9-10.9-14.2-25.3-19.5-38.2L135.6,401.6z"/>
			<path class="st2" d="M124.2,488.4c2.8,0.5,5.5,1.5,8.1,2.5c3,1,6.1,1.7,9.1,2.7l-0.1,0.4c-5.7-0.1-12.1-3.2-17.2-5.3L124.2,488.4
				z"/>
			<path class="st2" d="M105.5,473.4c1.7,0.6,3.2,1.7,4.8,2.5c1.7,0.9,3.4,1.7,5,2.7c0.2,0.1,0.1,0.6-0.2,0.5
				c-3.2-1.2-7.6-2.6-9.8-5.3L105.5,473.4z"/>
			<path class="st2" d="M206.3,474.2c2.9-2,6.1-3.5,8.9-5.5c3.3-2.3,6.2-5.1,8.9-8c0.3-0.3,0.7,0.1,0.4,0.4
				c-4.6,5.4-11,11.6-18.1,13.4L206.3,474.2z"/>
		</g>
		<g>
			<path class="st2" d="M140.3,530.7c-0.2,0-0.3-0.1-0.4-0.2c-0.2-0.2-0.2-0.6,0.1-0.8l11.5-9.7c0.2-0.2,0.6-0.2,0.8,0.1
				c0.2,0.2,0.2,0.6-0.1,0.8l-11.5,9.7C140.6,530.6,140.5,530.7,140.3,530.7z"/>
		</g>
		<g>
			<g>
				<g>
					<g>
						<path class="st3" d="M440.4,379.4l-1.1,17.3l0,0.1l-1.7,27.9l-0.1,2.1l-0.5,8l-0.3,5.2l-0.4,5.8l-2.3,37.4l-0.2,3.3l-0.9,14.2
							v0l-0.1,1.5l-0.3,4.4l-0.2,2.8l-0.5,8.5l-0.3,4.9h-99.7l-0.3-4.9l-0.3-5l-0.4-6.2l-0.1-1.8l-0.3-4.1l0-0.1v0l-0.4-6.3
							l-1.5-23.3l-0.4-6.4l-1.7-25.3l0-0.2l-0.2-3.5l-0.6-9l-0.1-0.8l0,0l-0.4-5.7l-0.1-1l-1.8-27.2l0-0.3l-0.8-12.5
							c-0.7-10.3,5.8-19.1,14.1-19.1h89.8C434.6,360.4,441.1,369.1,440.4,379.4z"/>
						<g>
							<g>
								<path class="st2" d="M400.6,380.4c1.5,1.3,3,2.6,4.5,3.8c7.5,2.1,15.9,4.9,24.9,8.9c5.8,2.6,11.1,5.3,15.8,8.1
									c-0.1,2.2-0.2,5.6-0.7,9.7c-1.4,13.5-4.3,23.3-5.5,27.2c-2.4,8.6-5.3,21.3-6.7,39.4c0.7,12.3,1.4,24.6,2.1,36.8
									c-35.6-0.4-71.2-0.7-106.9-1.1c0.9-11.6,0.6-21.1,0.1-27.7c-0.9-12.4-2.8-21.8-9.3-55.5c-0.1-0.4-0.3-1.5-0.6-2.8
									c-1.2-5.5-2.6-9.5-2.9-10.3c-1.3-3.9-3.4-9.1-6.8-14.9c9-3.9,16.2-6.8,21.3-8.7c5.6-2.2,10.9-5.1,16.6-7
									c1.7-0.6,5.2-1.7,8.9-4.6c1.9-1.5,3.3-3,4.2-4.1l10.8-2.1l23.1,2.7L400.6,380.4z"/>
								<path class="st4" d="M399.3,382.3c0,0,0,2.7,0,3.3v6.9c0,0.4-1.5,8.5-1.5,8.5s-10.9,10.4-11.4,10.9
									c-0.5,0.5-12.1,1.1-12.1,1.1s-9.9-9.3-10.3-9.8c-0.4-0.5-1.1-9.5-1.1-10.1c0-0.5-0.2-3.5-0.3-4.9c0-0.3,0-0.6,0-0.7
									c0-0.6-0.4-4.2-0.4-4.2l1.5-5.9c0,0,18.1-0.4,19.3-0.4C384.1,376.9,399.3,382.3,399.3,382.3z"/>
								<path class="st5" d="M398.9,381.4c-0.4,0.7-0.8,1.4-1.2,2.1c-1,2.3-2.8,5.7-6.1,9.1c-2.9,3-7.3,7.4-12.7,6.9
									c-3.9-0.3-6.7-3-9.7-6c-3-2.9-4.8-5.9-5.8-8c-0.5-1-1-2-1.5-3.1c0,0,1.5-5.9,1.5-5.9C371,373.8,391.7,376.4,398.9,381.4z"/>
								<path class="st6" d="M384.9,423.2l5.5,24.8c2.2,9.8,3.2,19.8,3,29.8c-0.2,12.5-0.4,25-0.6,37.5c-7.7-0.2-15.4-0.3-23.1-0.5
									c0.5-14.2,1-28.4,1.5-42.6c0.2-4.9,0.6-9.8,1.4-14.7l5.2-34.4L384.9,423.2z"/>
								<path class="st7" d="M390.3,409.6c0,0-3-0.1-3.9-0.2c-0.8-0.1-3.5-0.5-4.8-0.4c-0.3,0-0.9-0.1-1.3-0.1c-0.6,0-1.5,0-2.2,0
									c-1.3,0.1-6.9,0.8-7.2,0.8c-0.2,0.1-0.6,0.6-0.6,0.6l7.5,12.7l7,0.1l7.5-12L390.3,409.6z"/>
								<path class="st8" d="M399.4,383.3c-0.4,3.8-2.1,10.5-5,14.3c-3,3.9-6.8,6.8-8.7,8s-3.4,2.7-4,3.4c1.5,0,4.5-0.1,7,2
									c0.6,0.5,7.9,6,7.9,6c1.9-2.8,4.7-7.7,6.2-14.2c1.6-7.1,1-13,0.4-16.4l-2-4.2l-0.6-0.7L399.4,383.3z"/>
								<path class="st8" d="M362.6,381.3c0,0-0.2,4.5,0.1,6.1c0.5,3.5,3.2,8,6.3,11.8c2.8,3.4,9.1,6.6,11.4,9.7
									c-2,0.1-5.3,0.6-9,2.3c-3.3,1.6-5.5,3.6-6.9,5c-2-3.2-4.9-8.9-6.2-16.4c-1.4-8.7,0.1-15.8,1.2-19.7l1.8-1.2L362.6,381.3z"/>
								<path class="st4" d="M406.3,351c0.6-0.3,0.8-0.6,1.4-0.4c0.4,0.1,1,0.6,1.2,1.1c0.3,0.8,0.6,2.2,0.1,3.9
									c-0.1,0.5-0.6,2.7-0.9,3.6c-0.4,1.1-0.8,4.5-1.2,5.3c-0.4,0.8-1,3.4-1.5,4.1s-0.9,1.9-2.4,2.2c-0.5,0.1-1-0.1-1-0.1
									s-0.9-9.3-0.8-11.2c0.2-1.9,1.9-5.6,2.1-6.5C403.5,352.1,406.3,351,406.3,351z"/>
								<path class="st4" d="M355.1,351.6c-0.6-0.3-0.7-0.6-1.4-0.5c-0.4,0.1-1,0.5-1.2,1.1c-0.3,0.8-0.6,2.2-0.2,3.9
									c0.1,0.5,0.5,2.7,0.9,3.6c0.4,1.2,0.8,4.5,1.1,5.4c0.3,0.8,1,3.4,1.5,4.2c0.5,0.7,0.9,2,2.4,2.2c0.5,0.1,1-0.1,1-0.1
									s1.1-9.3,0.9-11.2s-1.8-5.7-2-6.6C357.8,352.7,355.1,351.6,355.1,351.6z"/>
								<path class="st4" d="M405.8,345.9c0.8,23.9-12.1,51.4-25.4,51.5c-7.3,0.1-12.9-8-15.8-12.1c-6.6-9.5-6.8-19.6-7-31.8
									c-0.1-6,0.2-14.1,2.2-23.7c0.4-2.2,15.1-5.8,21.5-5.9c6.3,0.1,21.8,4.8,22.2,7C404.5,334.6,405.6,339.7,405.8,345.9z"/>
								<g>
									<path class="st5" d="M403.6,353.6c0.2-0.2,0.4-0.3,0.7-0.3c0.1,0,0.2,0,0.4,0.1c0.1-0.3,0.1-0.7,0.2-1
										c-0.2,0-0.3-0.1-0.5-0.1c-0.6,0-1.1,0.3-1.5,0.7c-0.4,0.5-0.8,1.1-1,1.7c-0.6,1.8-0.1,3.5,0.3,4.8c-0.7,0-1.3,0.4-1.6,0.9
										c-0.2,0.4-0.4,0.8-0.5,1.2c-0.3,1.2,0.1,2.2,0.3,2.7l0,0.1c0.1,0.2,0.1,0.4,0.2,0.5c-0.2-0.1-0.5-0.2-0.7-0.2
										c-0.7,0-1.2,0.3-1.6,0.9c-0.2,0.2-0.3,0.5-0.4,0.8c-0.8,1.9-0.2,3.5,0.5,5.1c0.4,0.9,0.7,1.9,0.9,3c0.2,1.2-0.1,1.8-0.8,3
										c-0.6,1-1.3,2.5-2.1,4.9c-0.9,2.7-1.3,5-1.5,6.6c0.4-0.4,0.8-0.9,1.2-1.3c0.2-1.4,0.6-3.1,1.2-5c1.7-5.3,3.2-5.5,2.9-8.3
										c-0.4-3-2.4-5.1-1.4-7.5c0.1-0.2,0.2-0.4,0.3-0.6c0.2-0.3,0.5-0.4,0.8-0.4c0.3,0,0.7,0.2,0.8,0.5c0.3,0.7,0.7,1.6,1,2.5
										c0-2.1,0.3-3-0.3-4.8c-0.2-0.4-0.5-1.2-0.3-2.2c0.1-0.3,0.2-0.6,0.4-0.9c0.2-0.3,0.5-0.5,0.8-0.5c0.3,0,0.7,0.2,0.8,0.5
										c0.2,0.5,0.5,1,0.7,1.6c0.3,0.6,0.5,1.3,0.8,2c-0.2-1.1-0.4-2.2-0.7-3.3c-0.2-0.5-0.3-1.1-0.5-1.6
										c-0.4-1.3-1.1-2.9-0.5-4.6C403,354.4,403.3,354,403.6,353.6z"/>
									<path class="st5" d="M365,382.3c-0.8-2.5-1.5-3.9-2.1-4.9c-0.7-1.2-0.9-1.7-0.8-3c0.1-1.1,0.5-2,0.9-3
										c0.6-1.6,1.3-3.2,0.5-5.1c-0.1-0.3-0.2-0.5-0.4-0.8c-0.4-0.5-1-0.9-1.6-0.9c-0.2,0-0.4,0-0.5,0.1c0.1-0.5,0.2-1.2,0-1.9
										c-0.1-0.4-0.2-0.8-0.5-1.2c-0.4-0.6-1-0.9-1.7-0.9c-0.1,0-0.1,0-0.2,0c0.1-0.3,0.2-0.6,0.3-0.8l0.1-0.3
										c0.4-1.3,1.1-3.1,0.4-5c-0.2-0.6-0.5-1.2-1-1.7c-0.2-0.3-0.6-0.5-0.9-0.6c0,0.4,0.1,0.9,0.1,1.2c0.3,0.4,0.6,0.9,0.8,1.4
										c0.6,1.8-0.1,3.4-0.5,4.6c-0.7,2.1-1.1,4.2-1.4,6.1c0.5-1.2,0.9-2.4,1.4-3.4c0,0,0,0,0,0c0.2-0.3,0.5-0.5,0.8-0.5
										c0.3,0,0.6,0.1,0.8,0.5c0.2,0.3,0.3,0.6,0.4,0.9c0.2,1-0.1,1.8-0.3,2.2c-0.6,1.5-0.4,2.4-0.4,4.1c0,0,0,0,0,0
										c0.4-1.2,0.9-2.3,1.3-3.2c0.2-0.4,0.5-0.5,0.8-0.5c0.3,0,0.6,0.1,0.8,0.4c0.1,0.2,0.2,0.4,0.3,0.6c1,2.5-1,4.5-1.4,7.5
										c-0.3,2.8,1.2,3,2.9,8.3c0.4,1.3,1,3.2,1.3,5.3c0.3,0.4,0.7,0.8,1.1,1.3C366.3,386.4,365.5,384,365,382.3z"/>
								</g>
								<path class="st9" d="M353.8,328.1c0.7-2.8,2.4-5.1,3.9-7.3c0.9-1.4,2.7-2.7,4.8-3.7c5.1-2.4,20.7-4.2,24.9-3.6
									c3.6,0.5,7.2,1.3,10.3,2.8c3.9,1.9,6,6,7.1,9.1c2.5,1.9,3.6,3.9,4.1,5.2c0.4,1.1,0.5,2-0.7,12.2c-0.2,1.8-0.5,4.4-1.3,7.6
									c-0.4,1.8-0.6,2.7-1.1,3.7c-0.5,1.1-1.5,2.8-1.8,3.9c-0.3,1-0.4,2.5-0.4,2.5c-0.3,0.1-0.5,0.2-0.8,0.3
									c0-4.8-1.1-8.4-2.8-11.1c-0.6-1-1-1.4-1.5-2.3c-1.8-3.6-0.9-7.7,0.2-10.6c-0.9,1.4-5.7,8.3-15.1,10.3
									c-9.2,2-16.2-2.1-17.7-3c-1-1-2-2.1-3.1-3.1c0,0.4,0.1,1.1,0,1.8c-0.1,1.5-0.6,2.5-0.8,3c-0.7,1.8-1.4,3.6-1.9,5.5
									c-1.2,3.8-1.5,7.1-1.5,9.3c-0.3,0.1-0.5,0.2-0.8,0.2c0,0-0.1-1.4-0.4-2.5c-0.3-1-1.3-2.8-1.8-3.9c-0.5-1.1-1.1-3.1-1.1-3.7
									c0-0.6-0.5-3-0.9-4.6c-0.3-1.5-0.5-3.1-0.6-4.6c-0.1-1.6-0.1-3.1,0-4.3c0-1.3,0.1-2.7,0.3-4
									C353.3,330.7,353.6,328.7,353.8,328.1z"/>
							</g>
							<g>
								<path class="st2" d="M341.7,388.6c-2.7,12.4-5.4,24.7-8.1,37.1c-7.5,6.7-9.6,19.1-11.5,28.5c-2.7,13.5-8.8,34.1-21.7,41.3
									c-4.7,2.7-10.6,2.4-14.4-1.4c-1.8-1.8-2.9-3.6-3.5-5.1c-3.1-7.4-0.6-14.9,0.6-17.9c8.5-23,17.1-45.9,25.6-68.9
									c6.2-2.5,12.3-5,18.5-7.6C332.1,392.5,336.9,390.5,341.7,388.6z"/>
							</g>
							<g>
								<path class="st2" d="M419.9,389c0.5,12.2,1,24.3,1.5,36.5c7.1,7.1,8.3,19.7,9.6,29.2c1.8,13.6-0.4,31.2,12,39.3
									c4.6,3,16.4,4.2,20.4,0.6c1.1-1,1.8-1.2,2.3-1.7c0,0,0.4-0.5,0.8-1.2c0.8-1.4,1.7-9.2,2.2-20c-7.6-23.5-15.2-46.9-22.8-70.4
									C437.2,397.1,428.6,393.1,419.9,389z"/>
							</g>
							<g>
								<g>
									<g>
										<g>
											<path class="st4" d="M407.2,372.3c0.3,2.5,1.1,6.9,2.5,12.3c1.2-3.8,2.6-10.1,1.8-17.6c-0.4-4-1.3-7.4-2.3-10.1
												c-0.2-0.7-1.2-0.8-1.6-0.2c-0.2,0.2-0.3,0.5-0.4,0.9c-0.3,1-0.1,1.8,0.1,2.3c0.7,2.6-0.3,3.3-0.3,8.6
												C407,368.3,407,370.1,407.2,372.3z"/>
											<path class="st4" d="M402.4,376.5l3.4,12.5c0.9-3.9,1.9-10.4,0.4-18.2c-0.8-3.9-2-7.2-3.2-9.8c-0.3-0.7-1.2-0.7-1.6-0.1
												c-0.2,0.3-0.3,0.6-0.4,0.9c-0.2,1,0.1,1.8,0.3,2.2c0.9,2.5,0,3.3,0.5,8.6C401.9,373.5,402.1,374.9,402.4,376.5z"/>
											<path class="st4" d="M415.3,406.1c-0.3-0.6-6.6-13.1-7-14.2c-0.1-0.3-0.2-0.7-0.2-0.7c-0.1-0.4,0-0.9,0.1-1.3
												c0.7-2,0.8-3.2,1.4-5.4c0.3-1.1,0.6-2.2,0.9-3.2c0.2-4,0.1-9.4-1.3-15.7c-1.1-4.8-2.7-8.8-4.2-11.9
												c-0.3-0.6-1.1-0.7-1.5-0.2c-0.3,0.4-0.6,0.9-0.8,1.4c-0.6,1.8,0.1,3.4,0.5,4.7c1.7,4.8,1.7,9.2,1.6,12.9
												c0,2.5-0.2,5.1-0.6,5.1c-0.5,0-0.7-3.4-2.4-8.2c-0.4-1.2-0.9-2.3-1.3-3.2c-0.3-0.7-1.2-0.7-1.6-0.1
												c-0.1,0.2-0.2,0.4-0.3,0.6c-1,2.5,1.1,4.5,1.4,7.5c0.3,2.8-1.2,3-2.9,8.3c-1,3.3-1.5,6-1.5,7.5c0,0.8-0.1,2.3,0.3,4.1
												c0.6,3.1,1.9,5.6,3.2,7.5l6.2,10.6C408.4,410.6,412.2,407.9,415.3,406.1z"/>
										</g>
									</g>
									<g>
										<g>
											<path class="st4" d="M354,372.3c-0.3,2.5-1.1,6.9-2.5,12.3c-1.2-3.8-2.6-10.1-1.8-17.6c0.4-4,1.3-7.4,2.3-10.1
												c0.2-0.7,1.2-0.8,1.6-0.2c0.2,0.2,0.3,0.5,0.4,0.9c0.3,1,0.1,1.8-0.1,2.3c-0.7,2.6,0.3,3.3,0.3,8.6
												C354.2,368.3,354.2,370.1,354,372.3z"/>
											<path class="st4" d="M358.6,377.9l-3.4,12.5c-0.9-3.9-1.9-10.4-0.4-18.2c0.8-3.9,2-7.2,3.2-9.8c0.3-0.7,1.2-0.7,1.6-0.1
												c0.2,0.3,0.3,0.6,0.4,0.9c0.2,1-0.1,1.8-0.3,2.2c-0.9,2.5,0,3.3-0.5,8.6C359.1,374.9,358.9,376.3,358.6,377.9z"/>
											<path class="st4" d="M355.9,412.4l6.2-10.6c1.2-1.6,2.6-4.2,3.2-7.5c0.9-4.9-0.5-9.1-1.3-11.6c-1.7-5.3-3.2-5.5-2.9-8.3
												c0.4-3,2.4-5.1,1.4-7.5c-0.1-0.2-0.2-0.4-0.3-0.6c-0.4-0.6-1.3-0.6-1.6,0.1c-0.4,0.9-0.8,1.9-1.3,3.2
												c-1.7,4.8-2,8.2-2.4,8.2c-0.4,0-0.6-2.7-0.6-5.1c0-3.6,0-8,1.6-12.9c0.4-1.3,1.1-2.9,0.5-4.7c-0.2-0.6-0.5-1-0.8-1.4
												c-0.4-0.5-1.2-0.4-1.5,0.2c-1.5,3.1-3.1,7.1-4.2,11.9c-1.4,6.3-1.5,11.7-1.3,15.7c0.3,1.1,0.6,2.1,0.9,3.2
												c0.7,2.2,0.2,1.9,0.9,4c0.1,0.4,0.2,0.9,0.1,1.3c0,0,0,0.3-0.2,0.7c-0.4,1.1-6.7,13.6-7,14.2
												C348.5,406.4,352.8,410.6,355.9,412.4z"/>
										</g>
									</g>
								</g>
							</g>
						</g>
					</g>
					<g>
						<path class="st10" d="M347.1,392.5c-20.9,25.3-41.7,50.7-62.6,76c-1.1,2.1-2.9,6.1-3.1,11.3c-0.1,2.6-0.2,7.6,2.5,11.5
							c4.3,6.3,13.1,8.8,21.8,5.3c11.1-4.4,17.7-14.5,21.6-22.1c11.6-22.2,23.5-45.4,36.3-70.8C358.1,400,352.6,396.3,347.1,392.5z"
							/>
					</g>
					<path class="st10" d="M413.1,395.6c27.2,34.3,46.5,60.6,52.7,70.6c1.3,2,4.3,7,4.4,13.7c0,2.8,0.2,9.7-4.4,14
						c-4.4,4.1-11.9,4.7-20.7,1.5c-11.6-4.2-17-15.7-20.4-23.2c-7.7-16.6-17.6-39.1-28.2-67C402.1,402,407.6,398.8,413.1,395.6z"/>
					<g>
						<path class="st5" d="M377.8,379.8c1.9,0.6,3.3,0.5,5.1-0.3C382.1,381.5,378.9,381.7,377.8,379.8z"/>
						<path class="st5" d="M386.2,386.9c-4.8-1.1-8.4-1.1-13.1-0.2C375.4,384.2,383.5,384.3,386.2,386.9z"/>
						<path class="st9" d="M375.9,362.2c-1.8-0.2-4.4-0.4-7.5,0c-4.1,0.5-7.1,1.8-7.3,1.5c-0.2-0.3,1.7-1.4,2.7-1.9
							c1.6-0.8,3.1-1.2,3.9-1.4c3.5-0.8,6.8-0.5,8.6-0.2c0,0.3,0.1,0.7,0,1.2C376.2,361.7,376.1,362,375.9,362.2z"/>
						<path class="st9" d="M384.1,362.2c1.8-0.2,4.4-0.4,7.5,0c4.1,0.5,7.1,1.8,7.3,1.5c0.2-0.3-1.7-1.4-2.7-1.9
							c-1.6-0.8-3.1-1.2-3.9-1.4c-3.5-0.8-6.8-0.5-8.6-0.2c0,0.3-0.1,0.7,0,1.2C383.8,361.7,383.9,362,384.1,362.2z"/>
						<g>
							<path d="M365.6,368.5c2.6,1.2,5,1.1,7.6-0.3C371.7,370.9,367.2,371.1,365.6,368.5L365.6,368.5z"/>
						</g>
						<g>
							<path d="M387.8,367.5c2.7,1.6,5.3,1.4,7.9-0.2C394.2,370.1,389.5,370.4,387.8,367.5L387.8,367.5z"/>
						</g>
					</g>
				</g>
			</g>
			<g>
				<g>
					<rect x="85.2" y="502.1" class="st11" width="539.6" height="17.2"/>
				</g>
				<g>
					<rect x="587.9" y="412.8" class="st12" width="23.1" height="83.1"/>
					<polygon class="st13" points="587.9,412.8 611,495.9 587.9,495.9 					"/>
					<g>
						<path class="st13" d="M593.2,471.6c0-4.4,3.3-8,7.5-8.6c-0.4-0.1-0.8-0.1-1.2-0.1c-4.8,0-8.7,3.9-8.7,8.7s3.9,8.7,8.7,8.7
							c0.4,0,0.8-0.1,1.2-0.1C596.5,479.6,593.2,476,593.2,471.6z"/>
						<path class="st14" d="M608.3,471.6c0-4.4-3.3-8-7.5-8.6c-4.2,0.6-7.5,4.2-7.5,8.6s3.3,8,7.5,8.6
							C605,479.6,608.3,476,608.3,471.6z"/>
					</g>
					<rect x="592" y="427.9" class="st2" width="13.9" height="21.6"/>
					<rect x="592" y="452.1" class="st2" width="13.9" height="5.6"/>
					<g>
						<path class="st15" d="M603.3,432.5h-8.9c-0.4,0-0.8-0.4-0.8-0.8c0-0.4,0.4-0.8,0.8-0.8h8.9c0.4,0,0.8,0.4,0.8,0.8
							C604,432.2,603.7,432.5,603.3,432.5z"/>
					</g>
					<g>
						<path class="st15" d="M603.3,436.2h-8.9c-0.4,0-0.8-0.4-0.8-0.8c0-0.4,0.4-0.8,0.8-0.8h8.9c0.4,0,0.8,0.4,0.8,0.8
							C604,435.9,603.7,436.2,603.3,436.2z"/>
					</g>
					<g>
						<path class="st15" d="M603.3,439.9h-8.9c-0.4,0-0.8-0.4-0.8-0.8c0-0.4,0.4-0.8,0.8-0.8h8.9c0.4,0,0.8,0.4,0.8,0.8
							C604,439.6,603.7,439.9,603.3,439.9z"/>
					</g>
					<g>
						<path class="st15" d="M603.3,443.6h-8.9c-0.4,0-0.8-0.4-0.8-0.8c0-0.4,0.4-0.8,0.8-0.8h8.9c0.4,0,0.8,0.4,0.8,0.8
							C604,443.3,603.7,443.6,603.3,443.6z"/>
					</g>
					<g>
						<path class="st15" d="M603.3,447.3h-8.9c-0.4,0-0.8-0.4-0.8-0.8c0-0.4,0.4-0.8,0.8-0.8h8.9c0.4,0,0.8,0.4,0.8,0.8
							C604,447,603.7,447.3,603.3,447.3z"/>
					</g>
				</g>
				<g>
					
						<rect x="559.9" y="410.8" transform="matrix(0.9876 0.1569 -0.1569 0.9876 78.0265 -84.0324)" class="st13" width="23.1" height="83.1"/>
					<g>
						<path class="st13" d="M562.6,468.4c0.7-4.4,4.5-7.4,8.8-7.3c-0.4-0.1-0.7-0.2-1.1-0.3c-4.7-0.8-9.2,2.5-9.9,7.2
							c-0.8,4.7,2.5,9.2,7.2,9.9c0.4,0.1,0.8,0.1,1.2,0.1C564.6,476.9,561.9,472.8,562.6,468.4z"/>
						<path class="st14" d="M577.5,470.8c0.7-4.4-2-8.4-6.1-9.7c-4.3-0.1-8.1,2.9-8.8,7.3c-0.7,4.4,2,8.4,6.1,9.7
							C573,478.2,576.8,475.2,577.5,470.8z"/>
					</g>
					
						<rect x="566.5" y="426" transform="matrix(0.9876 0.1568 -0.1568 0.9876 75.6113 -84.5386)" class="st2" width="13.9" height="21.6"/>
					
						<rect x="564" y="450.1" transform="matrix(0.9876 0.1568 -0.1568 0.9876 78.0999 -83.9411)" class="st2" width="13.9" height="5.6"/>
					<g>
						<path class="st15" d="M578.8,431.4c0,0-0.1,0-0.1,0l-8.8-1.4c-0.4-0.1-0.7-0.5-0.7-0.9c0.1-0.4,0.5-0.7,0.9-0.7l8.8,1.4
							c0.4,0.1,0.7,0.5,0.7,0.9C579.5,431.2,579.2,431.4,578.8,431.4z"/>
					</g>
					<g>
						<path class="st15" d="M578.2,435.1c0,0-0.1,0-0.1,0l-8.8-1.4c-0.4-0.1-0.7-0.5-0.7-0.9c0.1-0.4,0.5-0.7,0.9-0.7l8.8,1.4
							c0.4,0.1,0.7,0.5,0.7,0.9C578.9,434.8,578.6,435.1,578.2,435.1z"/>
					</g>
					<g>
						<path class="st15" d="M577.6,438.8c0,0-0.1,0-0.1,0l-8.8-1.4c-0.4-0.1-0.7-0.5-0.7-0.9c0.1-0.4,0.5-0.7,0.9-0.7l8.8,1.4
							c0.4,0.1,0.7,0.5,0.7,0.9C578.3,438.5,578,438.8,577.6,438.8z"/>
					</g>
					<g>
						<path class="st15" d="M577,442.4c0,0-0.1,0-0.1,0l-8.8-1.4c-0.4-0.1-0.7-0.5-0.7-0.9c0.1-0.4,0.5-0.7,0.9-0.7l8.8,1.4
							c0.4,0.1,0.7,0.5,0.7,0.9C577.8,442.1,577.4,442.4,577,442.4z"/>
					</g>
					<g>
						<path class="st15" d="M576.5,446.1c0,0-0.1,0-0.1,0l-8.8-1.4c-0.4-0.1-0.7-0.5-0.7-0.9c0.1-0.4,0.5-0.7,0.9-0.7l8.8,1.4
							c0.4,0.1,0.7,0.5,0.7,0.9C577.2,445.8,576.8,446.1,576.5,446.1z"/>
					</g>
				</g>
				<polygon class="st14" points="528.5,498.9 528.5,448 532,448 532,495.5 610.4,495.5 610.4,448 613.6,448 613.6,498.9 				"/>
				<polygon class="st16" points="624.8,507.8 85.2,508.5 85.2,502.6 624.8,501.8 				"/>
				<g>
					<g>
						<path class="st17" d="M323.4,496.5H220.2c-1.7,0-3-1.3-3-3v-63.9c0-1.7,1.3-3,3-3h103.2c1.7,0,3,1.3,3,3v63.9
							C326.4,495.1,325.1,496.5,323.4,496.5z"/>
						<path class="st18" d="M321.9,496.5H218.7c-1.7,0-3-1.3-3-3v-63.9c0-1.7,1.3-3,3-3h103.2c1.7,0,3,1.3,3,3v63.9
							C324.9,495.1,323.5,496.5,321.9,496.5z"/>
						<path class="st2" d="M279.6,464c0,4.8-4.2,8.7-9.3,8.7s-9.3-3.9-9.3-8.7s4.2-8.7,9.3-8.7S279.6,459.2,279.6,464z"/>
						<polygon class="st18" points="224,495.8 224.5,502.1 363.3,502.1 363.3,495.8 						"/>
						<polygon class="st19" points="323.7,495.8 324,502.1 370.9,502.1 370.9,495.8 						"/>
					</g>
					<polygon class="st19" points="224.1,502.1 320.7,495.8 224,496.5 					"/>
				</g>
			</g>
			<g>
				<g>
					<polygon class="st14" points="191.6,503.7 100.3,503.7 101.8,484.6 192.2,484.2 					"/>
					<polygon class="st20" points="191.6,503.7 136.7,503.7 101.5,488 101.8,484.6 192.2,484.2 					"/>
					<polygon class="st21" points="178.1,488.2 177.9,499.7 150.3,499.7 150.3,488.6 					"/>
					<polygon class="st21" points="147.8,488.6 148,499.7 143.6,499.7 143.1,488.6 					"/>
				</g>
				<g>
					<g>
						<polygon class="st22" points="187.8,484.2 190.1,466.5 184.9,467 95.3,475.9 95.5,477.6 186.3,469.5 184.3,482.5 95.8,482.6 
							95.7,484 						"/>
						<path class="st23" d="M185.4,475c0,0-3.5-6.3-6.7-4.8c-3.2,1.6-3.5,5.2-3.5,5.2l0.9,0.6c0,0,0.8-5,3.5-4.9
							c2.7,0,4.3,4.9,4.3,4.9s0.6,3.3-2.1,4.9c-2.7,1.6-4.4,0.2-4.8-0.5c-0.4-0.7-0.7-2.8-0.7-2.8l-1,0.1c0,0,0.1,3,1.2,4
							c1.2,1,3.5,1.5,5.5,0.6c1.4-0.6,2.9-2.5,2.9-2.5L185.4,475z"/>
					</g>
				</g>
			</g>
			<g>
				<g>
					<g>
						<polygon class="st24" points="490,475.1 490.4,477.5 493.4,479.1 491.1,479 541.9,499 544.6,498.1 545.9,491.4 						"/>
						<polygon class="st13" points="521,412 490,475.1 540.1,495.6 579,418.9 						"/>
						<polygon class="st25" points="579,418.9 547.7,432.7 538.2,494.8 509.4,482.3 490,475.1 521,412 						"/>
						<path class="st2" d="M579,418.9l1.8,1.8l-0.9,1.8l2.2-1.7l0.8,1.8c0,0-37.8,75.5-38.2,75.5c-0.4,0-2-0.1-2-0.1l1.5-2.3
							l-2.5,2.3l-1.6-2.4L579,418.9z"/>
					</g>
					<polygon class="st26" points="570.5,439.4 581,419.9 583.6,419 					"/>
					<polygon class="st26" points="553.2,475 570.5,441.5 570.5,446.2 					"/>
				</g>
				<g>
					<path class="st2" d="M457.4,490.6l16-0.1c8.2-6.5,25-46.1,25-46.1l57.3-2c0,0-21.8,50.6-29,56c-7.2,5.4-26.3-8.1-26.3-8.1
						L457.4,490.6z"/>
					<g>
						<polygon class="st27" points="532.5,446.1 550,445.5 549.4,446.4 531.9,446.9 						"/>
						<polygon class="st27" points="530.7,449.4 549,448.7 548.4,449.6 530.2,450.2 						"/>
						<polygon class="st27" points="534.9,452.5 548,451.9 547.3,452.8 534.4,453.3 						"/>
						<polygon class="st27" points="509.6,456.4 528,455.7 527.3,456.6 509,457.1 						"/>
						<polygon class="st27" points="496.9,459.8 545,458.4 544.3,459.3 496.3,460.6 						"/>
						<polygon class="st27" points="495.1,463.1 543.2,461.6 542.6,462.5 494.6,463.9 						"/>
						<polygon class="st27" points="493.3,466.3 541.4,464.9 540.8,465.8 492.8,467.1 						"/>
						<polygon class="st27" points="492,469.6 540.1,468.1 539.5,469 491.5,470.3 						"/>
						<polygon class="st27" points="490.8,472.8 538.9,471.3 538.2,472.2 490.2,473.6 						"/>
						<polygon class="st27" points="489.3,476 537.4,474.6 536.7,475.5 488.7,476.8 						"/>
						<polygon class="st27" points="487.3,479.3 535.4,477.8 534.7,478.7 486.7,480 						"/>
						<polygon class="st27" points="485.4,482.5 533.5,481.1 532.9,481.9 484.9,483.3 						"/>
						<polygon class="st27" points="483.7,485.7 531.8,484.3 531.1,485.2 483.1,486.5 						"/>
						<polygon class="st27" points="480.9,489 529,487.5 528.4,488.4 480.4,489.8 						"/>
						<polygon class="st27" points="479.2,492.2 527.3,490.8 526.6,491.7 478.6,493 						"/>
						<polygon class="st27" points="477.4,495.5 525.5,494 524.9,494.9 476.9,496.2 						"/>
						<polygon class="st27" points="475.6,498.7 523.7,497.2 523.1,498.1 475.1,499.5 						"/>
					</g>
					<path class="st24" d="M457.4,490.6c0,0,3.6,5.4,9.3,7.9c5.7,2.5,9.8,2.3,9.8,2.3l45.9-0.6c0,0-8.8-1.8-14.3-5.1
						c-5.6-3.2-7.8-4.8-7.8-4.8L457.4,490.6z"/>
				</g>
			</g>
		</g>
		<g>
			<rect x="51.8" y="517.5" class="st28" width="764.9" height="8.2"/>
		</g>
		<polyline class="st28" points="818,524.2 759.3,524.2 759.2,524.2 757.7,524.2 710.3,524.2 709.2,524.2 707.8,524.2 696.4,524.2 
			658.8,524.2 441.6,524.2 436.2,524.2 431.7,524.2 418.1,524.2 417.3,524.2 386.3,524.2 370.4,524.2 339.9,524.2 338.9,524.2 
			331.9,524.2 318.7,524.2 313.3,524.2 75.6,524.2 		"/>
		<g>
			<g>
				<rect x="308.3" y="126.3" class="st0" width="146.7" height="138.1"/>
				<g>
					<path class="st28" d="M458.2,267.6h-153V123.2h153V267.6z M311.5,261.3H452V129.5H311.5V261.3z"/>
				</g>
				<rect x="310.2" y="239.6" class="st28" width="142.9" height="21.7"/>
			</g>
			<g>
				<polygon class="st28" points="351.1,184.4 412.4,184.4 412.4,183.7 413,183 350.4,183 351.1,183.7 				"/>
				<rect x="352.4" y="177.5" class="st28" width="58.7" height="4.7"/>
				<rect x="354.1" y="171.2" class="st28" width="55.2" height="4.8"/>
				<rect x="369.5" y="157.6" class="st28" width="24.4" height="1.9"/>
				<path class="st28" d="M381.7,152.8c-3.3,0-6.4,1.3-8.7,3.3h17.4C388.1,154.1,385.1,152.8,381.7,152.8z"/>
				<polygon class="st28" points="351.3,187.9 412.2,187.9 412.6,186.7 350.8,186.7 				"/>
				<path class="st28" d="M405,160.5h-46.5v9.9H405V160.5z M368,168.3c-1.5,0-2.6-1.2-2.6-2.6c0-1.5,1.2-2.6,2.6-2.6
					c1.4,0,2.6,1.2,2.6,2.6C370.6,167.1,369.4,168.3,368,168.3z M391.9,168.5h-4.7v0.5h-11v-0.5h-4.7v-5.7h4.7v-0.5h11v0.5h4.7
					V168.5z M395.5,168.3c-1.5,0-2.6-1.2-2.6-2.6c0-1.5,1.2-2.6,2.6-2.6c1.4,0,2.6,1.2,2.6,2.6C398.1,167.1,396.9,168.3,395.5,168.3
					z"/>
				<rect x="354.2" y="204.6" class="st28" width="8.1" height="4.2"/>
				<rect x="354.2" y="198.1" class="st28" width="8.1" height="1.7"/>
				<path class="st28" d="M360.2,192.5c0-1.1-0.9-2-2-2c-1.1,0-2,0.9-2,2c0,1.1,0.9,2,2,2C359.3,194.5,360.2,193.6,360.2,192.5z"/>
				<path class="st28" d="M367.2,189.1v-0.4h-17.7v0.4v11.5h-1v0.8h2.9l0.3,0.8h-2.9l0.7,0.8v8h-1l0.3,0.8l0.7,0.8v0.8h-0.7v0.8h0.7
					v18.7v2v6.8h2.9v-6.8h11.9v6.8h2.9v-6.8v-2v-18.7h0.6v-0.8h-0.6v-0.8l0.6-0.8l0.3-0.8h-0.9v-8l0.6-0.8h-2.9l0.3-0.8h2.9v-0.8
					h-0.9V189.1z M352.4,232.8v-18.7h11.9v18.7H352.4z M364.2,211h-11.9v-8h11.9V211z M352.4,197.4h11.9v3.3h-11.9V197.4z
					 M351.6,196.6l-0.3-0.8h13.8l-0.3,0.8H351.6z M355.4,192.5c0-1.5,1.2-2.8,2.8-2.8c1.5,0,2.8,1.2,2.8,2.8c0,1.5-1.2,2.8-2.8,2.8
					C356.6,195.3,355.4,194,355.4,192.5z"/>
				<path class="st28" d="M415,201.4v-0.8h-1v-11.5v-0.4h-17.7v0.4v11.5h-0.9v0.8h2.9l0.3,0.8h-2.9l0.6,0.8v8h-0.9l0.3,0.8l0.6,0.8
					v0.8h-0.6v0.8h0.6v18.7v2v6.8h2.9v-6.8h11.9v6.8h2.9v-6.8v-2v-18.7h0.7v-0.8H414v-0.8l0.7-0.8l0.3-0.8h-1v-8l0.7-0.8h-2.9
					l0.3-0.8H415z M399.2,232.8v-18.7h11.9v18.7H399.2z M411.1,211h-11.9v-8h11.9V211z M412.1,195.8l-0.3,0.8h-13.2l-0.3-0.8H412.1z
					 M402.5,192.5c0-1.5,1.2-2.8,2.8-2.8c1.5,0,2.8,1.2,2.8,2.8c0,1.5-1.2,2.8-2.8,2.8C403.8,195.3,402.5,194,402.5,192.5z
					 M399.2,197.4h11.9v3.3h-11.9V197.4z"/>
				<rect x="401.1" y="204.6" class="st28" width="8.1" height="4.2"/>
				<rect x="401.1" y="198.1" class="st28" width="8.1" height="1.7"/>
				<path class="st28" d="M407.3,192.5c0-1.1-0.9-2-2-2c-1.1,0-2,0.9-2,2c0,1.1,0.9,2,2,2C406.4,194.5,407.3,193.6,407.3,192.5z"/>
				<path class="st28" d="M382.7,190.7h-0.2l-0.2,1.8h-1.1l-0.2-1.8h-0.2l-0.1-0.8h-12.2v10.7h0.7l0,0.7l-0.4,0.9h0.2l-0.5,0.7v0.6
					v7.5h0.9l-0.3,0.8l-0.6,0.8v0.8h0.6v0.8h-0.6v18.7v2v6.8h2.5v-38v-0.3c0-0.1,0-0.2,0-0.3l0,0l0.5-0.9h-0.2
					c0.7-4.8,4.6-8.2,9.3-8.2h2.1c4.7,0,8.7,3.5,9.3,8.2h-0.2l0.5,0.9c0,0.1,0,0.2,0,0.3v0.3v38h2.5v-6.8v-2v-18.7h-0.6v-0.8h0.6
					v-0.8l-0.6-0.8L394,211h0.9v-7.5V203l-0.5-0.7h0.2l-0.4-0.9v-0.7h0.7V190h-12.1L382.7,190.7z M389.3,195.8
					c-1.8-1.6-4.1-2.5-6.5-2.5h-2.1c-2.4,0-4.7,0.9-6.5,2.5c-1.7,1.5-2.9,3.7-3.2,6h-1.4l0.1-0.3v-0.8c0.5-5.3,5.3-9.5,10.9-9.5h0.1
					l0.2,1.8h1.9l0.2-1.8h0c5.6,0,10.4,4.2,10.9,9.5v0.8l0.1,0.3h-1.4C392.1,199.5,391,197.4,389.3,195.8z"/>
			</g>
		</g>
	</g>
	<g>
		<defs>
			<rect id="SVGID_1_" x="476.9" y="194.6" width="353.2" height="322.9"/>
		</defs>
		<clipPath id="SVGID_00000028307466055580505570000012548351435387627965_">
			<use xlink:href="#SVGID_1_"  style="overflow:visible;"/>
		</clipPath>
		<path style="clip-path:url(#SVGID_00000028307466055580505570000012548351435387627965_);fill:#ADADAD;" d="M704.6,284.5
			c-2.2,0.1-4.5,0.3-6.8,0.4c-8.2,0.7-15.9,1.7-23.1,3c7.6,3.1,15.2,6.1,22.8,9.2C699.9,292.9,702.2,288.7,704.6,284.5"/>
		<g style="clip-path:url(#SVGID_00000028307466055580505570000012548351435387627965_);">
			<g>
				<path class="st4" d="M537.3,307.6c-0.5-3.7-3.9-8.2-6.9-10.4c-3-2.2-4.6-4-7.7-6c-2.8-1.9-5.4-4.1-7.7-6.6
					c-0.3-0.3-0.6-0.2-0.7,0c-1.2,1.4-1.3,3.4-0.7,5.2c0.6,1.7,1.7,3.2,2.8,4.7c1.9,2.6,3.9,5.1,5.8,7.7c-5.5-1.1-9.2-1.4-13-3.9
					c-4.2-2.7-8.6-5.7-13.6-5.8c-1,0-1.7,0.6-2.3,1.4c3.3,2.7,6.4,5,10.2,7.1c4.6,2.5,3.8,11.4,8.2,14.1c7.4,4.6,17.8,5.2,26.4,6.5
					c1.1-1.8,1.5-4.4,1.5-6.5C537.8,312.8,537.6,310.3,537.3,307.6z"/>
				<path class="st4" d="M514.4,304.6c-3.2-1.8-7.2-2.4-10.2-4.5c-1.8-1.3-3.7-2.4-5.8-3.2c-0.9-0.4-1.7-0.7-2.7-0.7
					c-0.9,0-1.3,0.9-1.8,1.7c-0.1,0.1,16.7,12.6,18.2,13.8C513.9,310,514.8,307.1,514.4,304.6z"/>
				<path class="st4" d="M516.9,309.3c-3.2-1.8-7.2-2.4-10.2-4.5c-1.8-1.3-3.7-2.4-5.8-3.2c-0.9-0.4-1.7-0.7-2.7-0.7
					c-0.9,0-1.3,0.9-1.8,1.7c-0.1,0.1,16.7,12.6,18.2,13.8C516.5,314.7,517.3,311.8,516.9,309.3z"/>
				<path class="st4" d="M518.7,310.8c-3-1.1-6.5-1.1-9.4-2.5c-1.7-0.8-3.5-1.5-5.4-2c-0.8-0.2-1.6-0.3-2.4-0.2
					c-0.8,0.1-0.9,1-1.3,1.7c0,0.1,3.5,2,8,5.4c2.8,2,6.7,3.1,9.5,3.9C519.1,315.4,519.4,312.8,518.7,310.8z"/>
			</g>
			<path class="st4" d="M553.7,324.1c-5.7-4.7-11.3-9.7-16.6-14.9l-13.9,5.8c7.2,6.4,14.1,13.2,20.4,20.4L553.7,324.1z"/>
			<path class="st31" d="M547.2,316.8c-2-2.1-5.2-4.2-7.1-6.2c-4.8,3.9-8.9,8.5-12.3,13.7c2.5,2,4.7,4.3,7.2,6.2L547.2,316.8z"/>
			<path d="M667.6,340.6c-8.4,6.9-17.7,14-27.9,21c-14.1,9.7-27.6,17.9-40.3,24.8c-2.6-3.8-5.3-7.8-8-11.8c-3-4.6-5.8-9.1-8.5-13.5
				c15.1-12,44.8-40,59.6-58.1c9.1,1.1,8.2,7.6,14,13.1C662.3,321.6,663.5,334.1,667.6,340.6z"/>
			<g>
				<path class="st32" d="M626.3,701.4c-0.7,0.7-1.5,1.4-2.2,2.1c-0.3,2.6,0.3,4.1,1.1,5c0,0,0.6,0.7,4.3,2.6l0,0
					c6.6,0.6,14.9,0.8,24.4-0.6c6.4-0.9,12-2.4,16.8-3.9c0.6-1,1.2-1.9,1.7-2.9c0.6,0.8,1.2,1.6,1.7,2.4c3.1-1,6.3-2,9.4-3.1
					l-0.3-6.8l-10-3.1L626.3,701.4z"/>
				<path class="st32" d="M676.2,663.6c-7.1,0.9-13.4,1-20.5,1.9c-0.2,5.6-2.6,16.3-4,21.6l27.9-5.5
					C678.3,675.6,677.6,669.5,676.2,663.6z"/>
				<path class="st32" d="M678.9,678.1c-5.9-3.3-12.2-1.4-18.9-0.2l-4.9,0.8c-5.2,8.7-9,12.6-18.4,16.4c-2.8-0.8-6.8-0.1-9.1,1.6
					c-2.3,1.8-3.7,4.7-3.5,7.6c5.2,1.4,10.4,3.3,15.5,4.9c5.5,1.7,18.9-1.4,28.3-4.1c0,0,10.9-6.5,15.2-8.8
					C682.4,691,680.9,683.3,678.9,678.1z"/>
			</g>
			<g>
				<path class="st33" d="M684.1,677.2c1.7-33.1,21.7-77.2,9.9-123.6c-3.9-10.3-25.5-13.1-42.5-3.1c0,33.9,0.3,122.8-0.1,128.5
					C661,681.3,673.7,681.4,684.1,677.2z"/>
				<path d="M651.5,550.6c-0.5-32.4-3.1-120-3.1-120l56.4,0.4c-4.4,30.7-11.9,124.9-11.9,124.9L651.5,550.6z"/>
			</g>
			<g>
				<path class="st32" d="M764.9,710l14.1,2.7c7.3,1.2,14.8,0.6,21.8-1.6c0.5-0.1,1.2-0.4,1.9-0.8c1.2-0.7,2-1.5,2.5-2.1
					c0-1.7,0.1-3.5,0.1-5.2c-0.6-0.2-1.2-0.4-1.8-0.6c-15.5-3.1-30.9-6.3-46.4-9.4l-9.3,8.1c0.3,1.9,0.2,3.7,0.5,5.6
					c3,0.9,5.6,1.8,8.8,2l2.2-4L764.9,710z"/>
				<path class="st32" d="M748.5,667.7c7.1-0.8,13.2-2.3,20.3-3c1.6,5.4,6.4,15.2,9.1,20l-28.4,1.4
					C749.4,679.9,748.6,673.8,748.5,667.7z"/>
				<path class="st32" d="M747.8,701.3c4.3,2.3,13.6,4,13.6,4c9.4,2.7,22.8,5.7,28.3,4.1c5.2-1.5,10.3-3.5,15.5-4.9
					c0.2-2.9-1.2-5.9-3.5-7.6c-2.3-1.7-6.3-2.4-9.1-1.6c-5.5-2.9-15.6-12.1-15.6-12.1l-7.7-5c-6.7-1.2-13-3.2-18.9,0.2
					C748.5,683.5,747.1,696.3,747.8,701.3z"/>
			</g>
			<path d="M735.1,428.4c6,36.4,12.7,71.6,19.1,116c0,0-33.3,11.2-41.9,11.5c-4.1-11-25.9-91.1-32.2-125.3L735.1,428.4z"/>
			<path class="st33" d="M751.7,535c13.1,45.6,23.6,138.7,23.6,138.7c-10.7,4.6-25.3,7.6-33.1,3.9c-12.2-48.9-26.6-76.6-30-122.2
				L751.7,535z"/>
			<path class="st34" d="M735.1,433.5c-1-1.8-4.6-3.3-5.5-5.1c-26.5,0.7-53.1,1.5-79.6,2.2c0,0,0.3,17.6-0.7,39.4
				c5.4,0.7,7.7,1,13,2.1c0.7-11-0.2-22.1,0.5-33.1c4.9,0.1,9.9,0.2,15.1,0.2c5.8,0,11.3-0.2,16.7-0.5c0.5,4.4,1.1,8.9,1.9,13.5
				c1.2,7.6,2.6,14.7,4.1,21.6c6.7-0.1,14.1-0.6,22.1-1.6c7-0.9,13.4-2.1,19.2-3.5C739.5,457.4,737.4,446.5,735.1,433.5z"/>
			<path class="st31" d="M731.9,431.1l-83-1.2c1.9-3.7,0.7-1.2,2.6-4.9c-1.8-2.9-3.6-5.8-5.3-8.7c2-2.7,4.1-4.5,6-7.2
				c-6.5-35.9-9.9-69.7-9.6-106.2c16.4-4.7,37.5-12.9,54.3-16.3c16.5,7.4,30.2,10.7,47.1,14.5c4.3,10.1,5.2,33.4,4.7,44.3
				c-0.5,10.9-2.7,21.6-4.9,32.3L731.9,431.1z"/>
			<path class="st4" d="M675.5,306.5c0.2-5.5,0-11.7-0.8-18.5c-0.6-5.1-1.4-9.9-2.4-14.1c8.9-3.5,17.9-7.1,26.8-10.6
				c-0.1,5,0.3,9,0.7,11.8c0.3,1.9,0.6,3.4,0.9,5.2c0.9,4.4,1.8,8,2.5,10.5c-7.1,4.7-14.1,9.4-21.2,14.1
				C679.8,305.4,677.7,306,675.5,306.5z"/>
			<path class="st35" d="M700.8,280.7c-0.4-1.9-0.8-4-1.1-6.2c-0.5-3.8-0.8-7.3-0.8-10.4c-8.8,3.3-17.7,6.5-26.5,9.8
				c1.4,5.5,1.9,10.2,2.6,15.5c3.3,0,8.4-0.4,14.1-2.4C694.3,285.2,698.3,282.7,700.8,280.7z"/>
			<path d="M670.7,261.1c-5.3,0.9,0.5-10.5-4.6-12.2c-5-1.7-6.1-0.6-11.2-2.1c-5.3-1.6-9.1-7.9-8.1-13.1c1.3-1.7,3.5-4.1,6.6-6.2
				c1.5-1,3.8-2.4,13.2-5.2c5.7-1.7,11.2-2.7,22.2-4.7c0.7-0.1,2.2-0.4,4.2-0.2c1.2,0.1,2.4,0.4,3.6,0.8c1.5,0.5,4.3,6.5,4.3,6.5
				c1.3,0.6,3.2,1.7,4.5,3.8c1.2,1.9,1.3,3.9,1.1,8c-0.2,3.1-0.5,7.2-1.4,12c-1.8,3.2-3.7,6.3-5.6,9.5c-2.7,4.5-5.4,9-8,13.4
				C683.2,268.8,678.2,265.1,670.7,261.1z"/>
			<g>
				<path class="st4" d="M696,261.4c-3.1,4.1-7.7,7.1-13.2,8.1c-11,2.1-21.7-4.6-24.8-15.1c-0.2-0.7-0.4-1.5-0.5-2.2l0,0
					c-0.1-0.6-0.2-1.2-0.3-1.8c-1.1-11.1,6.4-21.4,17.6-23.5c11.8-2.2,23.1,5.6,25.3,17.4C701.3,250.5,699.6,256.7,696,261.4z"/>
				<path class="st4" d="M658.3,244.5c0.1,5-0.4,9.4-0.8,14.7c-0.3,3.7,0.8,7.1,2.2,10.2c0.6,1.3,1.2,3.7,2.6,8
					c0.6,1.9,0.8,3.2,1.8,5.1c0.8,1.5,1.6,3.2,3.2,4.2c0.7,0.5,2.5,1.4,7.3,0.6c4.2-0.7,6.4-1.6,18-9.5c3.1-2.1,3.4-3.3,3.3-9.1
					c-0.1-3.9,0.6-12.2,0-14.5L658.3,244.5z"/>
				<g>
					<path class="st35" d="M666.3,270.1c-0.7-0.3-1.1-1-1.3-1.3c0.6,0.2,1.5,0.3,2.5,0.3c1.6-0.1,2.7-0.8,3.3-1.1
						c-0.1,0.3-0.3,0.8-0.7,1.2C669.2,270.1,667.6,270.8,666.3,270.1z"/>
					<path d="M675.5,252.8c1.1-0.7,2.6-1.5,4.4-2.2c0.6-0.2,1.9-0.7,3.5-1c3.6-0.7,6.1-0.2,6.1-0.6c0-0.3-1.4-0.9-2.8-1.2
						c-3.6-0.8-6.6,0.4-8,0.9c-0.9,0.4-2.2,1-3.6,2c-0.1,0.2-0.3,0.7-0.1,1.4C675.2,252.4,675.4,252.6,675.5,252.8z"/>
					<path d="M666.8,251.7c0.1,0.1,0.6,0.8,0.5,1.6c-0.1,0.3-0.2,0.6-0.3,0.8c-1.2-0.5-2.7-1-4.7-1.4c-0.7-0.1-1.9-0.4-3.6-0.5
						c-0.2,0-0.3,0-0.5,0c-0.2,0-0.5,0-0.7,0c-0.1-0.6-0.2-1.2-0.3-1.8c0.4-0.1,0.7-0.1,1.1-0.1c2-0.1,3.5,0.1,4.8,0.4
						C664,250.8,665.3,251.1,666.8,251.7z"/>
				</g>
				<g>
					<path class="st35" d="M674.2,274.4c1.5,0.8,1,3.1-0.8,3.1c-1.8,0-3.6,0.1-5.5,0.2c-0.3,0-0.6,0-0.9,0.1
						c-1.3,0.1-2.2-1.3-1.5-2.5c0.3-0.4,0.6-0.8,1.1-1.2c1.2-0.9,2.5-0.8,3.4-0.8C671.6,273.3,673,273.8,674.2,274.4z"/>
				</g>
			</g>
			<path d="M654.9,241.7c5.8-1.6,10.4-1.9,13.7-1.9c6.3,0,10.9,1.3,15.8-1.3c1.9-1,3.3-2.3,4.1-3.2c-0.5,2.1-0.9,5.1,0.2,8.2
				c0.9,2.5,2.2,3.4,3.6,5.9c1.1,2.1,2.3,5.3,2.2,10c1.2-0.2,2.3-0.4,3.5-0.5c-0.7,2.2-1.4,4.4-2.2,6.5c1.4,3.5,2.7,7,4.1,10.6
				c1.4-6.9,3.8-18.8,5.1-26.8c0.1-0.5,0.1-1.6,0.3-2.9c0.6-5.1-1.2-10.4-4.6-14.4c-3.3-3.9-8.1-6.6-13.2-7.7
				C675.2,221.3,660.4,230.4,654.9,241.7z"/>
			<g>
				<path class="st4" d="M695.5,253.5c0.9-0.9,2-1.6,3.2-1.8c1.2-0.3,2.6,0,3.5,0.8c1.2,1,1.6,2.8,1.4,4.4c-0.4,4.3-4,8-8.3,8.6
					c-0.7-0.3-1-1.1-0.8-1.8C695.6,260.4,695.7,256.9,695.5,253.5z"/>
				<path class="st35" d="M698.1,255.1c1-0.6,2.3-0.4,3.1,0.3c1.1,1,1.1,2.7,0.5,3.9c-0.7,1.3-1.9,2.1-3.2,2.7
					c-0.7,0.3-2.3,0.6-2.5-0.6c-0.1-0.6,0.5-0.9,0.8-1.3C697.9,258.5,695.8,256.4,698.1,255.1z"/>
			</g>
			<path class="st36" d="M680.9,310.4c-2.9-0.1-4.2-0.4-7.2-0.5c-2.2,18.8-4.7,37.8-7.6,57.3c-1.3,9.2-2.7,18.3-4.2,27.2
				c3.5,5.3,7.1,10.5,10.6,15.8c3.9-5.4,7.9-10.9,11.8-16.3C683.9,368.9,684.1,335.2,680.9,310.4z"/>
			<path d="M806.8,371.1c-8.5-11.7-18.3-24-29.6-36.8c-10.9-12.3-21.7-23.2-31.9-32.8c-2.1,1.3-5.2,19.8-3.3,40
				c0.9,10.3,4.3,16.8,4.3,16.8c11.7,13.4,42.3,39.2,42.3,39.2c5.4-4.3,10.7-8.6,16.1-13c2.1-1.7,3.6-4.3,3.7-7c0,0,0-0.1,0-0.1
				C808.5,374.4,807.4,372.1,806.8,371.1z"/>
			<rect x="648.9" y="424.5" transform="matrix(1 -4.433283e-03 4.433283e-03 1 -1.8925 3.0679)" width="84.4" height="7.8"/>
			
				<rect x="673.3" y="422.5" transform="matrix(1 -4.429542e-03 4.429542e-03 1 -1.8921 3.0334)" class="st37" width="21.1" height="12.4"/>
			<path d="M668.3,294.5c-12.6,54.6-8.7,115.1-9.4,171.5c-5.3-1.6-19.1-6.6-19.1-6.6c0.9-12.4,4.9-44.3,4.5-49.6
				c-0.5-6.2-0.9-12.4-1.4-18.6c-2.1-28.3-3.2-59.9-0.4-88.1C645.8,301.5,668.3,294.5,668.3,294.5z"/>
			<g>
				<path class="st34" d="M658.7,297.1c-0.1,0.2-0.2,0.4-0.3,0.6c-6.5,12.5-12.1,24.3-16.9,37.6c4.2,3.6,8.1,7.2,11.6,11.5
					c-3.7,3.6-7,6.1-10.6,9.7c6.3,11.6,13.7,27.8,16.5,40.9c1-38.3,2-70.5,9.4-102.8l0.7-0.8C665.6,294.8,662.1,295.9,658.7,297.1z"
					/>
			</g>
			<path class="st38" d="M666.7,294.4c-0.7,3.2-1.4,7.3-2.1,10.5c2.5-0.5,6.1-2,9.4-3.2L666.7,294.4z"/>
			<polygon class="st38" points="687.3,295.5 678,304.3 691.4,304 			"/>
			<path class="st31" d="M709.2,292.6c-1.4-3-2.8-5.4-4.6-8.1c-4.2,3.5-13.3,8.2-17.3,11c1.3,4.2,2.5,8.5,3.8,12.7
				C698.6,303.7,704,299,709.2,292.6z"/>
			<path class="st36" d="M687.6,296.7c0.7,2.5,1.5,5,2.2,7.5c-1.8,1.5-3.7,3.3-5.7,5.3c-1.1,1.2-2.1,2.3-3,3.4c-1.4,0.1-3,0.1-4.7,0
				c-1.1-0.1-2.1-0.2-3.1-0.3c-0.6-1.9-1.2-3.9-1.8-5.9c-0.9-3.1-1.6-6.1-2.2-9c1.1,0.6,2.4,1.5,3.7,2.6c1.6,1.3,2.7,2.7,3.5,3.8
				l1.3,0.2C681.2,301.7,684.4,299.2,687.6,296.7z"/>
			<path class="st31" d="M676.7,304.1c-3.7-2.8-7.1-5.9-10-9.6c2.5-2.4,5.2-4.6,8.1-6.7C675.4,292.6,676.7,304.1,676.7,304.1z"/>
			<path d="M739.2,413.3c-0.3,11.9,4.2,32.6,7.5,44c-12.4,6.2-27.6,9-41.4,7.8c-4.4-34.8-6.2-69.9-6-105c0.2-24.1,1.8-50.3,8.8-69.8
				c11.5,5.4,27.8,8.1,37.2,11.1c2.4,16.2,2.4,40.4,4.8,56.6C750.1,358.1,739.4,409.1,739.2,413.3z"/>
			<path class="st34" d="M724,333.2c-3.1-13-5.5-26.6-6.8-39.9c0,0-5.9-1.8-9-3.4l-0.2,0.5c0,0,0,0,0,0c-0.4,1.2-0.9,2.5-1.2,3.7
				c-6,19.1-7.4,43.5-7.5,66.1c-0.1,9.6,0,19.1,0.3,28.7c0.1,2.2,0.1,4.4,0.2,6.6c2.6-15.1,7.6-29.4,17.1-41.7
				c-3.5-3.3-7-6.9-10.5-10.2C712,339.9,718,336.3,724,333.2z"/>
			<path class="st35" d="M745.2,425.2c-2.2,3.2-6.5,7.5-6.5,7.5c-8.9-2.3-11.7-8.6-11.7-8.6c1.8-3.7,3.7-6.5,5.8-13.4
				c2.9,0.1,5.1,0.5,8.8,0.6C744.3,414.4,747.5,421.7,745.2,425.2z"/>
			<path class="st34" d="M739.8,438.5c0-0.5,1-4.3,1.1-4.8c-7-3.3-13.4-6.9-19.4-11.7c-1.4,1.3-2.8,3.6-3,4.7
				C723.6,432.7,732.1,437.1,739.8,438.5z"/>
			<path class="st35" d="M737.7,418.2c-2.7,0.3-5.4,0.6-8.1,0.9c-1.1,0.1-2.6,0.7-3.6,1.2c0,0-1.2,1.4-1.7,1.9
				c-1,1.2-2.4,2.8-3.7,3.4c-1.3,0.6-4.1,0.4-5-0.8c2.4-2.2,3.7-5.6,5.2-8.5c0,0,0.1-0.1,0.1-0.1c3.9-2.4,7.7-4.2,12-5.6
				C734.7,413.1,736.2,415.4,737.7,418.2z"/>
			<path d="M528.2,332.5c3.3-5.9,7.3-13.8,14.8-20.1c19.2,12.5,38.5,25,57.7,37.5c1.2,11.2,2.4,22.5,3.6,33.7
				c-1.6,0.9-3.3,1.8-4.9,2.7c-11.2-6-23.8-13.7-37-23.6C548.6,352.5,537.2,342,528.2,332.5z"/>
			<path class="st31" d="M738.9,408l-2.4,2.4c0,0,4.1,10.8,11.3,13.8l3.8-4L738.9,408z"/>
			<path d="M737.6,406.9c0,0,7.6,12.6,12.7,15.5c7.8-3.6,16.4-8.2,25.4-14.2c11.7-7.7,21.3-15.8,28.9-23.2c2.3-2.2,3.7-5.3,3.5-8.5
				c0-0.8-0.1-1.5-0.2-2c-1.6-7.5-10.7-13.4-22.8-13.8C764.7,380.6,757.9,387.1,737.6,406.9z"/>
			<g>
				<path class="st2" d="M677.9,257.3c0.6,0.4,1.9,1,3.5,1c2.7,0,4.4-1.8,4.9-2.3c-1-1-2.2-1.6-3.3-1.8c-0.5-0.1-1.1-0.2-1.9,0
					C679.1,254.5,678.1,256.7,677.9,257.3z"/>
				<path class="st39" d="M678.9,256.3c0.2,1.2,1.4,2.1,2.5,1.9c1.1-0.2,2-1.5,1.7-2.8c-0.1-0.4-0.3-0.8-0.6-1c0,0-0.2-0.3-0.5-0.3
					c-0.3,0-0.5,0.2-0.5,0.2c-0.4,0.1-0.8,0.2-1.1,0.4c-0.2,0.1-0.4,0.2-0.6,0.4c-0.4,0.3-0.7,0.6-0.9,1
					C678.9,256.1,678.9,256.2,678.9,256.3z"/>
				<path d="M682,256c0.1,0.8-0.4,1.4-1,1.4c-0.6,0-1.1-0.6-1.2-1.3c-0.1-0.7,0.4-1.4,1-1.4C681.4,254.6,681.9,255.2,682,256z"/>
				<path class="st2" d="M682.3,255.4c0,0.3-0.2,0.5-0.4,0.5c-0.2,0-0.5-0.2-0.5-0.5c0-0.3,0.1-0.5,0.4-0.5
					C682,254.9,682.3,255.1,682.3,255.4z"/>
				<path d="M677.9,257.3c0.3-0.5,1.2-2,3-2.6c2.8-0.9,5.1,1.1,5.3,1.3c-2-2.4-4.7-3-6.5-1.7C678.5,255.1,678,256.6,677.9,257.3z"/>
			</g>
			<g>
				<path class="st2" d="M666.8,257.9c-0.2,0.2-1.8,2.1-4.3,1.9c-1.7-0.1-2.8-1.1-3.2-1.4c0.4-0.4,1.1-1.2,2.2-1.7
					c0.3-0.1,1-0.4,1.8-0.4C665.2,256.2,666.5,257.5,666.8,257.9z"/>
				<path class="st39" d="M664.5,256.5c0.6,1,0.1,2.4-0.8,2.9c-0.9,0.5-2.5,0.2-3-0.9c-0.2-0.4-0.2-0.7-0.2-1.1c0-0.1,0-0.3,0.3-0.5
					c0.2-0.2,0.4-0.2,0.5-0.2c0.3-0.2,0.7-0.3,1.1-0.4c0.2-0.1,0.4-0.1,0.6-0.1c0.5,0,0.9,0,1.3,0.1
					C664.4,256.4,664.5,256.4,664.5,256.5z"/>
				<path d="M661.7,258.3c0.4,0.6,1.1,0.8,1.6,0.4c0.5-0.4,0.5-1.1,0.1-1.7c-0.4-0.6-1.1-0.8-1.6-0.4
					C661.4,256.9,661.3,257.7,661.7,258.3z"/>
				<path class="st2" d="M663,257.4c0,0.3,0.3,0.5,0.5,0.5c0.2,0,0.4-0.3,0.4-0.6c0-0.3-0.3-0.5-0.5-0.5
					C663.2,256.8,663,257.1,663,257.4z"/>
				<path d="M666.8,257.9c-0.3-0.2-2.5-1.8-5-1.1c-1.2,0.4-2,1.1-2.4,1.6c0.1-0.3,0.8-1.8,2.3-2.3
					C663.4,255.3,665.5,256.1,666.8,257.9z"/>
			</g>
		</g>
	</g>
</g>
</svg>
