<?xml version="1.0" encoding="utf-8"?>
<!-- Generator: Adobe Illustrator 26.0.1, SVG Export Plug-In . SVG Version: 6.00 Build 0)  -->
<svg version="1.1" id="Layer_1" xmlns="http://www.w3.org/2000/svg" xmlns:xlink="http://www.w3.org/1999/xlink" x="0px" y="0px"
	 viewBox="0 0 824 708" style="enable-background:new 0 0 824 708;" xml:space="preserve">
<style type="text/css">
	.st0{clip-path:url(#SVGID_00000083068046116951693480000003569187042696538021_);fill:#BDDEEF;}
	.st1{clip-path:url(#SVGID_00000083068046116951693480000003569187042696538021_);}
	.st2{fill:#BDDEEF;}
	.st3{fill:#52A7C1;}
	.st4{fill:#E3F4FF;}
	.st5{fill:#FFFFFF;}
	.st6{fill:#99CCE0;}
	.st7{clip-path:url(#SVGID_00000083068046116951693480000003569187042696538021_);fill:#52A7C1;}
	.st8{fill:#4B88E2;}
	.st9{fill:#2A6CBC;}
	.st10{fill:#345389;}
	.st11{fill:#EBC9AF;}
	.st12{fill:#F9B88C;}
	.st13{fill:#EA9860;}
	.st14{fill:#2D2D2D;}
	.st15{fill:#4F2921;}
	.st16{fill:#3B2314;}
	.st17{fill:#030202;}
	.st18{fill:#F2B083;}
	.st19{fill:#EFA573;}
	.st20{fill:none;stroke:#345389;stroke-width:1.0757;stroke-miterlimit:10;}
	.st21{fill:#3D3D3D;}
	.st22{fill:#A34F2E;}
	.st23{clip-path:url(#SVGID_00000083068046116951693480000003569187042696538021_);fill:#7C3A25;}
	.st24{fill:#E80F2E;}
	.st25{fill:#1021B5;}
	.st26{clip-path:url(#SVGID_00000083068046116951693480000003569187042696538021_);fill:#4F4E4E;}
	.st27{clip-path:url(#SVGID_00000083068046116951693480000003569187042696538021_);fill:#3A3A3A;}
	.st28{clip-path:url(#SVGID_00000083068046116951693480000003569187042696538021_);fill:#BCA18C;}
	.st29{fill:#F7B89F;}
	.st30{fill:#D19182;}
	.st31{fill:#726562;}
	.st32{fill:#DE9F7E;}
	.st33{fill:#D34047;}
	.st34{fill:#B7303D;}
	.st35{fill:#D39275;}
	.st36{fill:#D3D3D3;}
	.st37{fill:#FFFFFF;stroke:#D3D3D3;stroke-width:1.3762;stroke-miterlimit:10;}
	.st38{fill:#FCB856;}
	.st39{fill:#D38A6A;}
	.st40{fill:#CE8065;}
	.st41{fill:#6B3628;}
	.st42{fill:#211E1F;}
	.st43{fill:#847977;}
	.st44{clip-path:url(#SVGID_00000083068046116951693480000003569187042696538021_);fill:#2D2D2D;}
</style>
<g>
	<defs>
		<path id="SVGID_1_" d="M95.2,581.1C92.8,577.7,46.4,529,51,462.5c4-57.6,43.4-95.4,111.5-160.9c67.9-65.2,72.4-47.9,113.3-95
			c63.1-72.8,61.6-124.8,120-149.6c12.4-5.3,48.2-20.5,82.1-6.7c44.3,18,55.2,70.8,109.7,101.7c51.8,29.3,73.4,4.9,106,33.3
			c45.6,39.6,33.1,116.6,48.9,177.5c14.8,57.3,57.9,108.7,50.2,167.6c-6,45.4-42.4,80.6-82.4,95.6c-40,15.1-83.5,13.9-125.8,12.5
			c-95.7-3.1-192.4-9.1-287.6-5.3C235.1,635.6,138.2,643.2,95.2,581.1z"/>
	</defs>
	<clipPath id="SVGID_00000169523123202124120780000003001427199012421532_">
		<use xlink:href="#SVGID_1_"  style="overflow:visible;"/>
	</clipPath>
	<path style="clip-path:url(#SVGID_00000169523123202124120780000003001427199012421532_);fill:#BDDEEF;" d="M792.8,530.6
		c-6,45.4-42.4,80.6-82.4,95.6c-40,15.1-83.5,13.9-125.8,12.5c-95.7-3.1-192.4-9.1-287.6-5.3c-53.1,2.1-131.9,8-180.4-29.5
		c-8-6.2-15.2-13.6-21.3-22.5c-42.8-53.9-44.8-100-44.2-118.7c1.9-53.2,32.6-96,65.5-129.2c16.2-16.3,32.9-30.3,46.9-42.1
		c12.8-10.7,26.9-19.7,42.9-30.8c26.3-18.2,31.2-20.4,41.9-29.6c15.1-13.1,24.9-25.4,32.3-35.3c52.6-69.7,56-101.9,90-126.2
		c24.9-17.8,69.4-31.2,107.3-19.1c52.7,16.8,46.6,66,109.7,101.7c51.8,29.3,73.4,4.9,106,33.3c45.6,39.6,33.1,116.6,48.9,177.5
		C757.5,420.3,800.6,471.7,792.8,530.6z"/>
	<g style="clip-path:url(#SVGID_00000169523123202124120780000003001427199012421532_);">
		<rect x="372.4" y="192.1" class="st2" width="166.3" height="103"/>
		<g>
			<path class="st3" d="M541.2,297.6H369.9V189.6h171.3V297.6z M374.9,292.6h161.2v-98H374.9V292.6z"/>
		</g>
		<g>
			<polygon class="st3" points="435.7,252.5 435.7,251.7 430.3,253 430.3,253.7 			"/>
			<path class="st3" d="M430.3,249.4L430.3,249.4l0,3.6l1-0.2v-3.3h0c0,0,0.1,0,0.1-0.1c0,0,0-0.1-0.1-0.1c0-0.3-0.2-0.4-0.3-0.5
				c-0.1-0.1-0.2-0.2-0.2-0.2s-0.1,0.2-0.2,0.2c-0.1,0.1-0.3,0.1-0.3,0.5C430.3,249.3,430.2,249.3,430.3,249.4
				C430.2,249.4,430.3,249.4,430.3,249.4z"/>
			<path class="st3" d="M435.8,248L435.8,248l0,3.8l0.5-0.1v0.8h8.9v-0.8h-1v-1.6c0-0.6,0.2-0.8,0.3-1c0.2-0.3,0.3-0.5,0.3-0.5v-0.9
				h0.9V247h-0.6c0-2.1-1.1-2.6-2.1-3.1c-1-0.5-1.6-1.7-1.6-1.7s-0.6,1.2-1.6,1.7c-1,0.5-2.1,1-2.1,3.1h-0.6v0.7h0.9v0.9
				c0,0,0.1,0.2,0.4,0.5c0.2,0.2,0.4,0.4,0.4,1v1.6h-2V248h0c0,0,0.1,0,0.1-0.1c0,0,0-0.1-0.1-0.1c0-0.3-0.2-0.4-0.3-0.5
				c-0.1-0.1-0.2-0.2-0.2-0.2s-0.1,0.2-0.2,0.2c-0.1,0.1-0.3,0.1-0.3,0.5C435.7,247.9,435.7,247.9,435.8,248
				C435.7,248,435.7,248,435.8,248z M441.8,251.7v-1.6c0-0.6,0.3-0.8,0.5-1c0.3-0.3,0.5-0.5,0.5-0.5s0.1,0.2,0.5,0.5
				c0.2,0.2,0.5,0.4,0.5,1v1.6H441.8z M439.3,250.1c0-0.6,0.3-0.8,0.5-1c0.3-0.3,0.5-0.5,0.5-0.5s0.1,0.2,0.5,0.5
				c0.2,0.2,0.5,0.4,0.5,1v1.6h-1.8V250.1z"/>
			<polygon class="st3" points="475.3,252.5 480.7,253.7 480.7,253 475.3,251.7 			"/>
			<path class="st3" d="M479.7,249.4L479.7,249.4l0,3.3l1,0.2v-3.6h0c0,0,0.1,0,0.1-0.1c0,0,0-0.1-0.1-0.1c0-0.3-0.2-0.4-0.3-0.5
				c-0.1-0.1-0.2-0.2-0.2-0.2s-0.1,0.2-0.2,0.2c-0.1,0.1-0.3,0.1-0.3,0.5C479.6,249.3,479.6,249.3,479.7,249.4
				C479.6,249.4,479.6,249.4,479.7,249.4z"/>
			<path class="st3" d="M465.3,247v0.7h0.9v0.9c0,0,0.1,0.2,0.3,0.5c0.1,0.2,0.3,0.4,0.3,1v1.6h-1v0.8h8.9v-0.8l0.5,0.1V248h0
				c0,0,0.1,0,0.1-0.1c0,0,0-0.1-0.1-0.1c0-0.3-0.2-0.4-0.3-0.5c-0.1-0.1-0.2-0.2-0.2-0.2s-0.1,0.2-0.2,0.2
				c-0.1,0.1-0.3,0.1-0.3,0.5c0,0-0.1,0-0.1,0.1c0,0,0,0.1,0.1,0.1h0v3.7h-2v-1.6c0-0.6,0.2-0.8,0.4-1c0.3-0.3,0.4-0.5,0.4-0.5v-0.9
				h0.9V247h-0.6c0-2.1-1.1-2.6-2.1-3.1c-1-0.5-1.6-1.7-1.6-1.7s-0.6,1.2-1.6,1.7c-1,0.5-2.1,1-2.1,3.1H465.3z M467.4,251.7v-1.6
				c0-0.6,0.3-0.8,0.5-1c0.3-0.3,0.5-0.5,0.5-0.5s0.1,0.2,0.5,0.5c0.2,0.2,0.5,0.4,0.5,1v1.6H467.4z M469.9,251.7v-1.6
				c0-0.6,0.3-0.8,0.5-1c0.3-0.3,0.5-0.5,0.5-0.5s0.1,0.2,0.5,0.5c0.2,0.2,0.5,0.4,0.5,1v1.6H469.9z"/>
			<path class="st3" d="M504.4,271l-0.4-10.1h0.3v-0.4h0c0.1,0,0.3-0.1,0.3-0.3c0-0.1-0.1-0.3-0.3-0.3h-0.3l-0.4-9.7h0.2v0.4h0.3
				v-0.4h0c0.1,0,0.3-0.1,0.3-0.3c0-0.1-0.1-0.3-0.3-0.3h-0.5l-0.4-10.6h0.1v-0.4h0.2v0.4h0.3v-0.4h0c0.1,0,0.3-0.1,0.3-0.3
				c0-0.1-0.1-0.3-0.3-0.3H503v-0.4h-0.4c0,0,0-1.2,0-1.6c0-0.3,0.1-0.5,0.2-0.6c0.1-0.2,0.2-0.3,0.2-0.3V235h0.7
				c0.1,0,0.3-0.1,0.3-0.3c0-0.1-0.1-0.3-0.3-0.3h-0.6c0-1.2-0.6-1.4-1.1-1.7c-0.6-0.3-0.9-0.9-0.9-0.9s-0.3,0.6-0.9,0.9
				c-0.6,0.3-1.1,0.5-1.1,1.7h-0.6c-0.1,0-0.3,0.1-0.3,0.3c0,0.1,0.1,0.3,0.3,0.3h0.7v0.5c0,0,0,0.1,0.2,0.3
				c0.1,0.1,0.2,0.2,0.2,0.6c0,0.3,0,1.6,0,1.6h-0.4v0.4h-0.7c-0.1,0-0.3,0.1-0.3,0.3c0,0.1,0.1,0.3,0.3,0.3h0v0.4h0.3v-0.4h0.2v0.4
				h0.1l-0.4,10.6h-0.5c-0.1,0-0.3,0.1-0.3,0.3c0,0.1,0.1,0.3,0.3,0.3h0v0.4h0.3v-0.4h0.2l-0.4,9.7H498c-0.1,0-0.3,0.1-0.3,0.3
				c0,0.1,0.1,0.3,0.3,0.3v0.4h0.3v-0.4h0.1L498,271h-0.8h-7.5l-0.3-7.7h0.2v-0.3h0c0.1,0,0.2-0.1,0.2-0.2c0-0.1-0.1-0.2-0.2-0.2
				h-0.2l-0.3-7.3h0.2v0.3h0.2v-0.3h0c0.1,0,0.2-0.1,0.2-0.2c0-0.1-0.1-0.2-0.2-0.2H489l-0.3-8.1h0.1v-0.3h0.2v0.3h0.2v-0.3h0
				c0.1,0,0.2-0.1,0.2-0.2c0-0.1-0.1-0.2-0.2-0.2h-0.5v-0.3h-0.3c0,0,0-0.9,0-1.2c0-0.3,0.1-0.4,0.1-0.4c0.1-0.1,0.1-0.2,0.1-0.2
				v-0.4h0.5c0.1,0,0.2-0.1,0.2-0.2c0-0.1-0.1-0.2-0.2-0.2h-0.4c0-0.9-0.4-1.1-0.9-1.3c-0.4-0.2-0.7-0.7-0.7-0.7s-0.2,0.5-0.7,0.7
				c-0.4,0.2-0.9,0.4-0.9,1.3h-0.4c-0.1,0-0.2,0.1-0.2,0.2c0,0.1,0.1,0.2,0.2,0.2h0.5v0.4c0,0,0,0.1,0.1,0.2
				c0.1,0.1,0.1,0.2,0.1,0.4c0,0.3,0,1.2,0,1.2h-0.3v0.3h-0.5c-0.1,0-0.2,0.1-0.2,0.2c0,0.1,0.1,0.2,0.2,0.2h0v0.3h0.2v-0.3h0.2v0.3
				h0.1l-0.3,8.1h-0.4c-0.1,0-0.2,0.1-0.2,0.2c0,0.1,0.1,0.2,0.2,0.2h0v0.3h0.2v-0.3h0.1l-0.3,7.3h-0.3c-0.1,0-0.2,0.1-0.2,0.2
				c0,0.1,0.1,0.2,0.2,0.2v0.3h0.2v-0.3h0.1l-0.3,7.9h-4.1v-16.5l-5.4-1.3V271h-0.6v-17.8h-8.9V271h-0.4v-22.6h-1v-2.7
				c0,0-0.7-0.9-8.9-0.9c-8.2,0-8.9,0.9-8.9,0.9v2.7h-1V271h-0.4v-17.8h-8.9V271h-0.6v-17.8l-5.4,1.3V271h-4.1l-0.3-7.9h0.1v0.3h0.2
				v-0.3c0.1,0,0.2-0.1,0.2-0.2c0-0.1-0.1-0.2-0.2-0.2h-0.3l-0.3-7.3h0.1v0.3h0.2v-0.3h0c0.1,0,0.2-0.1,0.2-0.2
				c0-0.1-0.1-0.2-0.2-0.2h-0.4l-0.3-8.1h0.1v-0.3h0.2v0.3h0.2v-0.3h0c0.1,0,0.2-0.1,0.2-0.2c0-0.1-0.1-0.2-0.2-0.2h-0.5v-0.3h-0.3
				c0,0,0-0.9,0-1.2c0-0.3,0.1-0.4,0.1-0.4c0.1-0.1,0.1-0.2,0.1-0.2v-0.4h0.5c0.1,0,0.2-0.1,0.2-0.2c0-0.1-0.1-0.2-0.2-0.2h-0.4
				c0-0.9-0.4-1.1-0.9-1.3c-0.4-0.2-0.7-0.7-0.7-0.7s-0.2,0.5-0.6,0.7c-0.4,0.2-0.9,0.4-0.9,1.3h-0.4c-0.1,0-0.2,0.1-0.2,0.2
				c0,0.1,0.1,0.2,0.2,0.2h0.5v0.4c0,0,0,0.1,0.1,0.2c0.1,0.1,0.1,0.2,0.1,0.4c0,0.3,0,1.2,0,1.2h-0.3v0.3h-0.5
				c-0.1,0-0.2,0.1-0.2,0.2c0,0.1,0.1,0.2,0.2,0.2h0v0.3h0.2v-0.3h0.2v0.3h0.1l-0.3,8.1h-0.4c-0.1,0-0.2,0.1-0.2,0.2
				c0,0.1,0.1,0.2,0.2,0.2h0v0.3h0.2v-0.3h0.2l-0.3,7.3h-0.2c-0.1,0-0.2,0.1-0.2,0.2c0,0.1,0.1,0.2,0.2,0.2h0v0.3h0.2l-0.3,7.7h-7.5
				h-0.8l-0.4-10.4h0.1v0.4h0.3v-0.4c0.1,0,0.3-0.1,0.3-0.3c0-0.1-0.1-0.3-0.3-0.3h-0.4l-0.4-9.7h0.2v0.4h0.3v-0.4h0
				c0.1,0,0.3-0.1,0.3-0.3c0-0.1-0.1-0.3-0.3-0.3h-0.5l-0.4-10.6h0.1v-0.4h0.3v0.4h0.3v-0.4h0c0.1,0,0.3-0.1,0.3-0.3
				c0-0.1-0.1-0.3-0.3-0.3h-0.7v-0.4h-0.4c0,0,0-1.2,0-1.6c0-0.3,0.1-0.5,0.2-0.6c0.1-0.2,0.2-0.3,0.2-0.3V235h0.7
				c0.1,0,0.3-0.1,0.3-0.3c0-0.1-0.1-0.3-0.3-0.3h-0.6c0-1.2-0.6-1.4-1.1-1.7c-0.6-0.3-0.9-0.9-0.9-0.9s-0.3,0.6-0.9,0.9
				c-0.6,0.3-1.1,0.5-1.1,1.7h-0.6c-0.1,0-0.3,0.1-0.3,0.3c0,0.1,0.1,0.3,0.3,0.3h0.7v0.5c0,0,0.1,0.1,0.2,0.3
				c0.1,0.1,0.2,0.2,0.2,0.6c0,0.3,0,1.6,0,1.6H408v0.4h-0.7c-0.1,0-0.3,0.1-0.3,0.3c0,0.1,0.1,0.3,0.3,0.3h0v0.4h0.3v-0.4h0.3v0.4
				h0.1l-0.4,10.6h-0.5c-0.1,0-0.3,0.1-0.3,0.3c0,0.1,0.1,0.3,0.3,0.3h0v0.4h0.3v-0.4h0.2l-0.4,9.7h-0.3c-0.1,0-0.3,0.1-0.3,0.3
				c0,0.1,0.1,0.3,0.3,0.3h0v0.4h0.3l-0.4,10.1h-0.9v0.6v0.4v5.1h8.1h83.3h8.1V272v-0.4V271H504.4z M500,237.9c0,0,0-1.2,0-1.6
				c0-0.3,0.1-0.5,0.2-0.6c0.2-0.2,0.2-0.3,0.2-0.3s0.1,0.1,0.2,0.3c0.1,0.1,0.2,0.2,0.2,0.6c0,0.3,0,1.6,0,1.6H500z M501.4,237.9
				c0,0,0-1.2,0-1.6c0-0.3,0.1-0.5,0.2-0.6c0.2-0.2,0.2-0.3,0.2-0.3s0.1,0.1,0.2,0.3c0.1,0.1,0.2,0.2,0.2,0.6c0,0.3,0,1.6,0,1.6
				H501.4z M486.4,245.8c0,0,0-0.9,0-1.2c0-0.3,0.1-0.4,0.2-0.4c0.1-0.1,0.2-0.2,0.2-0.2s0.1,0.1,0.2,0.2c0.1,0.1,0.2,0.2,0.2,0.4
				c0,0.3,0,1.2,0,1.2H486.4z M487.4,245.8c0,0,0-0.9,0-1.2c0-0.3,0.1-0.4,0.2-0.4c0.1-0.1,0.2-0.2,0.2-0.2s0.1,0.1,0.2,0.2
				c0.1,0.1,0.2,0.2,0.2,0.4c0,0.3,0,1.2,0,1.2H487.4z M422.9,245.8c0,0,0-0.9,0-1.2c0-0.3,0.1-0.4,0.2-0.4c0.1-0.1,0.2-0.2,0.2-0.2
				s0,0.1,0.2,0.2c0.1,0.1,0.2,0.2,0.2,0.4c0,0.3,0,1.2,0,1.2H422.9z M423.9,245.8c0,0,0-0.9,0-1.2c0-0.3,0.1-0.4,0.2-0.4
				c0.1-0.1,0.2-0.2,0.2-0.2s0.1,0.1,0.2,0.2c0.1,0.1,0.2,0.2,0.2,0.4c0,0.3,0,1.2,0,1.2H423.9z M408.7,237.9c0,0,0-1.2,0-1.6
				c0-0.3,0.1-0.5,0.3-0.6c0.2-0.2,0.2-0.3,0.2-0.3s0.1,0.1,0.2,0.3c0.1,0.1,0.2,0.2,0.2,0.6c0,0.3,0,1.6,0,1.6H408.7z M410.1,237.9
				c0,0,0-1.2,0-1.6c0-0.3,0.1-0.5,0.2-0.6c0.2-0.2,0.2-0.3,0.2-0.3s0.1,0.1,0.2,0.3c0.1,0.1,0.2,0.2,0.2,0.6c0,0.3,0,1.6,0,1.6
				H410.1z M455.5,258.8c0.8,0,1.4,0.6,1.4,1.4v2.2h-2.8v-2.2C454.1,259.5,454.8,258.8,455.5,258.8z M455.5,266
				c0.8,0,1.4,0.6,1.4,1.4v3.6h-2.8v-3.6C454.1,266.6,454.8,266,455.5,266z M476.5,258.5c0-2.2,0.5-2.5,0.9-2.8
				c0.3-0.3,0.7-0.7,0.7-0.7s0.3,0.4,0.7,0.7c0.3,0.3,0.9,0.6,0.9,2.8c0,2.2,0,3.6,0,3.6H478h-1.5
				C476.5,262.1,476.5,260.7,476.5,258.5z M476.5,267.4c0-2.2,0.5-2.5,0.9-2.8c0.3-0.3,0.7-0.7,0.7-0.7s0.3,0.4,0.7,0.7
				c0.3,0.3,0.9,0.6,0.9,2.8c0,2.2,0,3.6,0,3.6h-3.1C476.5,271,476.5,269.6,476.5,267.4z M467.7,258.5c0-2.2,0.8-2.5,1.4-2.8
				c0.6-0.3,1.1-0.7,1.1-0.7s0.6,0.4,1.1,0.7c0.6,0.3,1.4,0.6,1.4,2.8c0,2.2,0,3.6,0,3.6H471v-2c0-0.4-0.3-0.8-0.8-0.8
				c-0.4,0-0.8,0.3-0.8,0.8v2h-1.8C467.7,262.1,467.7,260.7,467.7,258.5z M467.7,267.4c0-2.2,0.8-2.5,1.4-2.8
				c0.6-0.3,1.1-0.7,1.1-0.7s0.6,0.4,1.1,0.7c0.6,0.3,1.4,0.6,1.4,2.8c0,2.2,0,3.6,0,3.6H471v-2c0-0.4-0.3-0.8-0.8-0.8
				c-0.4,0-0.8,0.3-0.8,0.8v2h-1.8C467.7,271,467.7,269.6,467.7,267.4z M448.8,251.7h13.4V271h-1.1c0,0,0-7.8,0-10.4
				c0-5.1-4.5-4.6-5.7-6.7c-1.2,2.1-5.7,1.6-5.7,6.7c0,2.6,0,10.4,0,10.4h-1.1V251.7z M438.3,258.5c0-2.2,0.8-2.5,1.4-2.8
				c0.6-0.3,1.1-0.7,1.1-0.7s0.6,0.4,1.1,0.7c0.6,0.3,1.4,0.6,1.4,2.8c0,2.2,0,3.6,0,3.6h-1.8v-2c0-0.4-0.4-0.8-0.8-0.8
				c-0.4,0-0.8,0.3-0.8,0.8v2h-1.8C438.3,262.1,438.3,260.7,438.3,258.5z M438.3,267.4c0-2.2,0.8-2.5,1.4-2.8
				c0.6-0.3,1.1-0.7,1.1-0.7s0.6,0.4,1.1,0.7c0.6,0.3,1.4,0.6,1.4,2.8c0,2.2,0,3.6,0,3.6h-1.8v-2c0-0.4-0.4-0.8-0.8-0.8
				c-0.4,0-0.8,0.3-0.8,0.8v2h-1.8C438.3,271,438.3,269.6,438.3,267.4z M431.5,258.5c0-2.2,0.5-2.5,0.9-2.8c0.3-0.3,0.7-0.7,0.7-0.7
				s0.3,0.4,0.7,0.7c0.3,0.3,0.9,0.6,0.9,2.8c0,2.2,0,3.6,0,3.6H433h-1.5C431.5,262.1,431.5,260.7,431.5,258.5z M431.5,267.4
				c0-2.2,0.5-2.5,0.9-2.8c0.3-0.3,0.7-0.7,0.7-0.7s0.3,0.4,0.7,0.7c0.3,0.3,0.9,0.6,0.9,2.8c0,2.2,0,3.6,0,3.6h-3.1
				C431.5,271,431.5,269.6,431.5,267.4z"/>
			<path class="st3" d="M446.6,243.4c0,0,0.6-0.8,8.9-0.8c8.3,0,8.9,0.8,8.9,0.8s3.4-3,0.7-7.3c-2.6-4.2-7-5.8-9.4-8.5c0,0,0,0,0,0
				c0.3-0.1,0.6-0.4,0.6-0.7c0-0.3-0.2-0.6-0.5-0.7c0.2-0.1,0.3-0.3,0.3-0.5c0-0.3-0.3-0.6-0.6-0.6c0,0,0,0,0,0c0.1,0,0.2,0,0.2,0
				v-0.8c-0.1,0-0.1,0-0.2,0c0,0,0,0,0,0c0.3,0,0.6-0.3,0.6-0.6c0-0.3-0.3-0.6-0.6-0.6c0,0,0,0,0,0c0.1,0,0.2,0,0.2,0v-1.5
				c0,0,0-0.2-0.2-0.2c-0.2,0-0.2,0.2-0.2,0.2v1.5c-0.2,0.1-0.4,0.3-0.4,0.5c0,0.2,0.1,0.5,0.4,0.5v0.8c-0.2,0.1-0.4,0.3-0.4,0.5
				c0,0.2,0.1,0.4,0.3,0.5c-0.3,0.1-0.5,0.4-0.5,0.7c0,0.3,0.2,0.6,0.6,0.7c-2.3,2.7-6.7,4.2-9.4,8.5
				C443.3,240.4,446.6,243.4,446.6,243.4z M455.5,227.6C455.5,227.6,455.5,227.6,455.5,227.6C455.5,227.6,455.5,227.6,455.5,227.6
				C455.5,227.6,455.5,227.6,455.5,227.6z M455.6,227.6C455.6,227.6,455.6,227.6,455.6,227.6C455.6,227.6,455.6,227.6,455.6,227.6z
				 M455.4,227.6C455.4,227.6,455.4,227.6,455.4,227.6C455.4,227.6,455.4,227.6,455.4,227.6z"/>
		</g>
		<rect x="373.9" y="275.1" class="st3" width="163.2" height="17.6"/>
	</g>
	<g style="clip-path:url(#SVGID_00000169523123202124120780000003001427199012421532_);">
		<path class="st4" d="M143.6,643.7c-5.7-12.2-14-34.1-14.9-62.5c-0.9-28.6,6.1-51,11.1-63.6c8.7,10.5,20.9,27.9,29.2,51.9
			c9.8,28.3,9.8,53,8.7,67.5C166.3,639.3,154.9,641.5,143.6,643.7z"/>
		<path class="st5" d="M160.1,640.7c-4.7-9.4-7.2-19.7-9.4-29.9c-6.3-30.7-9.1-61.9-11-93.1c2.1,31.2,5.2,62.4,11.8,93
			c2.3,10.1,4.9,20.3,9.6,29.5C161.1,640.1,160.1,640.7,160.1,640.7L160.1,640.7z"/>
	</g>
	<g style="clip-path:url(#SVGID_00000169523123202124120780000003001427199012421532_);">
		<path class="st6" d="M196.4,637.5c3.9-19.1,8.9-52.8,5.7-94.6c-3.3-42-13.5-73.3-20.2-90.6c-7.1,17.3-16.6,45.2-21.3,82.2
			c-5.6,43.5-2,79.6,1.3,100.6C173.3,635.8,184.8,636.7,196.4,637.5z"/>
		<path class="st5" d="M178.4,636.1c3.4-14.9,4.4-30.3,5.2-45.6c2-46,0.6-92.2-1.8-138.2c3,53.7,5.7,107.6,1.4,161.3
			c-0.7,7.7-1.7,15.3-3.4,22.9L178.4,636.1L178.4,636.1z"/>
	</g>
	<g style="clip-path:url(#SVGID_00000169523123202124120780000003001427199012421532_);">
		<path class="st4" d="M217.1,637.5c2.3-11.1,5.2-30.7,3.3-55c-1.9-24.4-7.8-42.6-11.8-52.7c-4.1,10.1-9.7,26.3-12.4,47.8
			c-3.2,25.3-1.1,46.3,0.7,58.5C203.6,636.5,210.3,637,217.1,637.5z"/>
		<path class="st5" d="M206.6,636.7c1.4-6.3,2.2-13.4,2.6-19.9c1.8-29,0.8-58.1-0.7-87c1.7,29,2.9,58.1,1.3,87.1
			c-0.4,6.5-1.2,13.6-2.5,20C207.4,636.8,206.6,636.7,206.6,636.7L206.6,636.7z"/>
	</g>
	<path style="clip-path:url(#SVGID_00000169523123202124120780000003001427199012421532_);fill:#52A7C1;" d="M116.5,333.3v270.3
		c-8-6.2-15.2-13.6-21.3-22.5c-42.8-53.9-44.8-100-44.2-118.7C52.9,409.2,83.6,366.4,116.5,333.3z"/>
	<g style="clip-path:url(#SVGID_00000169523123202124120780000003001427199012421532_);">
		<g>
			<g>
				<path class="st8" d="M608.3,438c-1.1,12.1-4.8,21.3-7.6,26.7c0,7.4,0,14.7,0.1,22.1c-12.8-0.2-26.1-0.1-40,0.4
					c-14.9,0.5-29.2,1.4-42.9,2.6c0.1-2.4,0.1-4.9,0.1-7.4c0-2.4,0-4.8,0-7.1c-6.8-0.2-13.6-0.5-20.4-0.7c-1.6,0-3.1-0.8-4-2
					c-0.7-0.9-1.1-2-1.2-3.1c0-0.8,0-1.4,0-1.6c1.7-14.7,5.1-28.3,5.1-28.3c2.6-10.2,5.4-23.1,10-31.2c0.9-1.6,1.7-2.7,2.7-3.7
					c2.5-2.5,4.8-3.1,11.8-6.1c1.3-0.5,3.1-1.3,5.2-2.3c0,0,7-3.1,17.2-6.1c1.1-0.3,2.1-0.6,3-0.8c1.9-0.6,4.8-1.3,8.3-1.5
					c4.8-0.2,8.2,0.6,15.3,2.7c0.2,0.1,0.3,0.1,0.6,0.2c0,0,0,0,0,0c0.7,0.2,1.2,0.4,1.2,0.4c5.1,1.6,12.3,5.1,12.3,5.1
					c2.1,0.9,4.4,2,6.7,3.3c5.2,2.9,9.5,6.1,12.9,9c0.2,0.2,0.3,0.3,0.4,0.5C607,415.2,609.4,425.3,608.3,438z"/>
				<path class="st9" d="M550.8,409.6c1.3,7.5,2.7,14.9,4,22.4l2,52h1.3l2.1-42.2l5.8-36.5C560.9,406.8,555.9,408.2,550.8,409.6z"/>
				<path class="st10" d="M552,416.2c1.3-1.4,3.3-3.4,6.4-5.1c3.6-2,7-2.6,9.1-2.8c-1.7,2.5-3.3,4.9-5,7.4
					C559,415.8,555.5,416,552,416.2z"/>
				<path class="st9" d="M524.1,430.3c-1.7,9.1-3.4,18.1-5.1,27.2c1.6,0.5,3.1,1,4.7,1.6C523.8,449.5,523.9,439.9,524.1,430.3z"/>
				<path class="st11" d="M571,391.2c-2.7,1.7-6.5,4.6-10.1,9.2c-3.2,4.2-5,8.3-6,11.2c-0.3-2.6-1-6.4-3-10.5
					c-2.3-4.9-5.4-8.2-7.4-10c0-0.1,0-0.2,0-0.3c1.1-0.4,2.1-0.7,3-1c1.9-0.7,4.8-1.6,8.3-1.8C560.5,387.7,563.9,388.7,571,391.2z"
					/>
				<g>
					<g>
						<g>
							<path class="st12" d="M558.9,401.5l-3.3,0.1c-6.6,0.1-11.8-5.5-11.1-12.1l0,0l0.1-1.1l0.1-0.7l0.2-1.7l0.6-5.8h23.3l0.6,5.4
								l0.2,1.7l0.1,0.8l0.1,1.1l0,0.3C570.3,395.8,565.4,401.4,558.9,401.5z"/>
							<g>
								<path class="st12" d="M580.1,351.1c0.6-0.2,0.7-0.5,1.2-0.4c0.3,0.1,0.9,0.5,1.1,1c0.2,0.7,0.5,2,0.1,3.5
									c-0.1,0.5-0.5,2.4-0.8,3.2c-0.4,1-0.8,4.1-1.1,4.8c-0.3,0.7-0.9,3.1-1.4,3.7s-0.8,1.8-2.2,2c-0.5,0.1-0.9-0.1-0.9-0.1
									s-0.9-8.4-0.7-10c0.2-1.7,1.7-5.1,1.9-5.9C577.6,352.1,580.1,351.1,580.1,351.1z"/>
								<path class="st12" d="M534,351.6c-0.6-0.2-0.7-0.5-1.2-0.4c-0.3,0.1-0.9,0.5-1.1,1c-0.2,0.7-0.6,2-0.2,3.5
									c0.1,0.5,0.5,2.5,0.8,3.3c0.4,1,0.7,4.1,1,4.8s0.9,3.1,1.3,3.7c0.4,0.7,0.8,1.8,2.1,2c0.5,0.1,0.9-0.1,0.9-0.1s1-8.3,0.8-10
									c-0.1-1.7-1.6-5.1-1.8-5.9S534,351.6,534,351.6z"/>
								<path class="st13" d="M569.3,385.4c-0.7,0.7-1.4,1.4-1.8,1.8c-1.2,1.1-5.5,4.4-5.8,4.7c-0.7,0.7-3,1-5.3,1
									c-2.3-0.1-4.5-0.5-5.2-1.2c-0.3-0.3-4.5-3.8-5.6-5c-0.2-0.2-0.4-0.5-0.7-0.8l0.6-5.8h23.3L569.3,385.4z"/>
								<path class="st12" d="M579.7,345.2c-0.3,2-1.5,9.7-1.5,9.7s-0.2,1.7-0.2,2.5c-0.1,1.1-0.1,3.5-0.4,5c0,0.1,0,0.1,0,0.2
									c-0.3,1.4-0.4,2.2-0.7,3.5c-0.3,1.3-0.7,4.9-0.8,5.6c0,0.8-0.4,2.9-0.6,3.4c-0.2,0.5-0.5,2-1.2,2.9
									c-0.6,0.7-1.2,1.7-1.8,2.5c-0.2,0.2-0.3,0.4-0.4,0.6c-0.3,0.4-1.1,1.3-2,2.2c0,0,0,0.1-0.1,0.1c-0.9,1-1.9,2-2.4,2.5
									c-1.2,1.1-5.5,4.4-5.8,4.7c-0.7,0.7-3,1-5.3,1h-0.1c-2.3-0.1-4.5-0.5-5.2-1.2c-0.3-0.3-4.5-3.8-5.6-5
									c-0.5-0.5-1.4-1.5-2.2-2.5c-0.2-0.2-0.3-0.4-0.5-0.6c-0.7-0.8-1.3-1.6-1.5-1.9c-0.6-0.9-1.4-2.2-2.1-3.2s-0.8-2.4-1-3
									c-0.2-0.5-0.4-2.7-0.4-3.5c0-0.7-0.2-4.3-0.5-5.6c-0.1-0.6-0.2-1.2-0.2-1.7c-0.1-0.5-0.1-1.1-0.3-1.8
									c-0.2-1.5-0.2-4-0.2-5.2c0-0.8-0.1-2.5-0.1-2.5s-0.8-7.7-1-9.8c-0.2-2,1.9-11.8,2.8-13.3c0.9-1.5,6.5-3.5,14.1-4.8
									c1.8-0.3,3.4-0.5,5-0.5l0.3-0.1c1.8,0.1,3.8,0.4,6.1,0.9c7.6,1.6,13.1,3.9,13.9,5.5C578.3,333.3,580,343.2,579.7,345.2z"/>
								<path class="st14" d="M538.1,325.2c5.1-2.7,14.3-6.7,24.5-6.8c5.1,0,7.9,1,10.1,2.3c3.6,2.3,5.3,5.6,6.1,7.4
									c2.3,1.7,3.2,3.5,3.7,4.7c0.4,1,0.5,1.8-0.7,10.9c-0.2,1.6-0.5,3.9-1.2,6.8c-0.4,1.6-0.5,2.4-1,3.3c-0.5,1-1.3,2.6-1.6,3.5
									c-0.3,0.9-0.4,2.2-0.4,2.2c-0.2,0.1-0.5,0.2-0.7,0.3c0-4.3-1-7.5-2.5-10c-0.5-0.9-0.9-1.2-1.3-2.1c-1.6-3.3-0.8-6.9,0.2-9.6
									c-1.5,1.6-4.5,4.5-9.3,6.3c-4,1.5-7.5,1.5-9.5,1.4c0.7-0.1,1.7-0.3,2.7-0.7c1.2-0.5,2.1-1,2.7-1.5c-1.1,0.5-2.7,1.1-4.7,1.4
									c-2.7,0.4-5,0.2-6.5-0.1c1.5-0.1,3.5-0.3,5.6-0.9c2.1-0.6,3.9-1.4,5.2-2.1c-2.3,0.9-6.2,2.1-11.2,1.7
									c-3-0.2-5.5-0.9-7.3-1.6c0,0.4,0.1,0.9,0,1.6c-0.1,1.3-0.5,2.3-0.7,2.7c-0.7,1.6-1.2,3.3-1.8,4.9c-1.1,3.4-1.3,6.4-1.3,8.4
									c-0.2,0.1-0.5,0.1-0.7,0.2c0,0-0.1-1.3-0.4-2.2c-0.3-0.9-1.1-2.5-1.6-3.5s-1-2.8-1-3.3c0-0.5-0.5-2.7-0.8-4.2
									c-0.3-1.4-0.5-2.8-0.5-4.2c-0.1-1.4-0.1-2.8,0-3.9c0-1.4,0.1-2.4,0.2-3.6c0.3-2,0.6-4.6,2.5-7
									C535.4,327.2,536.4,326.1,538.1,325.2z"/>
							</g>
							<g>
								<path class="st5" d="M551.5,360.7c-0.7,0.4-2.2,1.2-4.2,1.3c-2.6,0-4.5-1.3-5.1-1.8c0.8-1,1.8-1.7,2.9-2
									c1.1-0.4,2.2-0.4,3.3,0c0.2,0.1,0.5,0.2,0.7,0.3C550.5,359.1,551.2,360.2,551.5,360.7z"/>
								<path class="st15" d="M548.9,359.7c0,1.3-1.4,2.3-2.6,2.2c-1.2-0.1-2.4-1.3-2.3-2.6c0-0.4,0.2-0.8,0.5-1.1
									c1.1-0.4,2.2-0.4,3.3,0c0.3,0.1,0.5,0.2,0.7,0.3C548.8,358.8,548.9,359.2,548.9,359.7z"/>
								<path d="M544.7,359.9c0,0.7,0.6,1.3,1.3,1.3c0.8,0,1.5-0.7,1.4-1.5c0-0.8-0.8-1.4-1.6-1.3
									C545.2,358.5,544.7,359.1,544.7,359.9z"/>
								<path class="st5" d="M546.9,359.5c0,0.2,0.2,0.3,0.3,0.3c0.2,0,0.3-0.2,0.3-0.3c0-0.2-0.2-0.3-0.3-0.3
									S546.8,359.3,546.9,359.5z"/>
								<path class="st14" d="M552.8,352.9c-5.4-0.8-9.5-0.7-10.6-0.1c-0.8,0.4-1.2,1-1.2,1c-0.4,0.5-0.6,1-0.6,1.3
									c0.4-0.2,1.1-0.5,1.9-0.7c1.1-0.3,2.3-0.4,5.2-0.2c1.4,0.1,3.2,0.3,5.4,0.6c0.1-0.2,0.1-0.3,0.1-0.6
									C553,353.6,552.9,353.2,552.8,352.9z"/>
								<path class="st14" d="M562.1,352.9c5.4-0.8,9.5-0.7,10.6-0.1c0.8,0.4,1.2,1,1.2,1c0.4,0.5,0.6,1,0.6,1.3
									c-0.4-0.2-1.1-0.5-1.9-0.7c-1.1-0.3-2.3-0.4-5.2-0.2c-1.4,0.1-3.2,0.3-5.4,0.6c-0.1-0.2-0.1-0.3-0.1-0.6
									C561.9,353.6,562,353.2,562.1,352.9z"/>
								<path class="st16" d="M551.5,360.7c-0.4-0.4-2.1-2.1-4.8-2.2c-2.4-0.1-4.1,1.3-4.6,1.7c0.1-0.1,1.8-2.8,4.8-2.6
									C550,357.8,551.4,360.5,551.5,360.7z"/>
							</g>
							<g>
								<path class="st5" d="M562.6,360.3c0.5,0.4,2,1.6,4.3,1.7c3,0.1,4.9-1.7,5.3-2c-0.4-0.4-1.4-1.5-3.1-1.9
									c-0.3-0.1-1.9-0.5-3.6,0.2c-0.1,0-0.4,0.2-0.8,0.3C563.7,359.1,563,359.8,562.6,360.3z"/>
								<path class="st15" d="M564.3,360c0.1,1.3,1.5,2.2,2.7,2c1.2-0.2,2.3-1.4,2.1-2.7c-0.1-0.4-0.3-0.8-0.5-1
									c-1.1-0.3-2.2-0.3-3.2,0.1c-0.2,0.1-0.5,0.2-0.7,0.3C564.4,359.1,564.3,359.5,564.3,360z"/>
								<path d="M567.6,359.8c0,0.8-0.6,1.4-1.3,1.4c-0.7,0-1.3-0.6-1.3-1.4c0-0.8,0.6-1.4,1.3-1.4
									C567.1,358.4,567.6,359,567.6,359.8z"/>
								<path class="st5" d="M567.8,359.5c0,0.2-0.1,0.3-0.3,0.3s-0.3-0.1-0.3-0.3c0-0.2,0.1-0.3,0.3-0.3S567.8,359.3,567.8,359.5z"
									/>
								<path class="st16" d="M562.6,360.3c0.6-0.5,1.8-1.4,3.6-1.8c3.1-0.6,5.5,1.1,6,1.4c-1.6-2-4-2.8-6.2-2.3
									C564,358.2,562.9,359.9,562.6,360.3z"/>
							</g>
							<g>
								<g>
									<path class="st13" d="M560.5,372c0.1,0.2-1.6,1.9-3.6,1.7c-1.6-0.1-2.9-1.4-2.8-1.6c0.1-0.2,1.1,0.6,2.8,0.7
										C559.1,372.9,560.4,371.9,560.5,372z"/>
								</g>
							</g>
							<g>
								<path class="st13" d="M559.5,380.9c-0.8,0-3.3,0.1-6.7-0.3c-1.1-0.2-1.7-0.2-1.7-0.4c0-0.3,3.2-0.7,6.4-0.7
									c3,0.1,6.1,0.6,6.1,0.9C563.6,380.8,561.2,380.9,559.5,380.9z"/>
							</g>
						</g>
						<path class="st17" d="M577.7,356.3c-0.2,0-0.4,0.1-0.6,0.1c-0.2,0-0.3,0-0.5,0l0,0c-0.8-0.1-1.4-0.4-1.7-0.6
							c0,0-1.6-1-2.5-1.5c-0.5-0.3-1.1-0.5-1.6-0.6c-1.6-0.5-3.1-0.4-3.7-0.4c-0.3,0-0.7,0-1.2,0.1l0,0c-0.7,0.1-1.7,0.4-2.7,0.8
							c-1,0.4-1.7,0.9-2.2,1.3c-0.3,0.3-0.7,0.4-1,0.2c-0.3-0.1-0.5-0.4-0.6-0.6c-0.1-0.1-0.2-0.2-0.3-0.2l-4.1-0.1
							c-0.1,0-0.2,0.1-0.3,0.2c-0.1,0.2-0.3,0.4-0.6,0.5c-0.4,0.1-0.7,0-1-0.3c-0.5-0.4-1.2-0.9-2.2-1.4c-0.8-0.4-1.6-0.7-2.3-0.8
							l0,0c-0.7-0.2-1.3-0.2-1.6-0.3c-0.3,0-1-0.1-1.7,0c-1,0.1-2.3,0.3-3.5,0.9c-1,0.5-2.6,1.5-2.6,1.5c-0.1,0.1-0.3,0.2-0.5,0.3
							c-0.2,0.1-0.4,0.2-0.6,0.2c-0.2,0-0.3,0.1-0.5,0.1c-0.2,0-0.4,0-0.5,0c-0.2,0-0.4-0.1-0.6-0.1c0,0.1,0,0.3,0,0.4l0,0
							c0,0.7-0.1,1.3-0.1,2c0.3,0,0.6,0,0.9,0.1c0.1,0,0.2,0,0.3,0.1c0.1,0,0.2,0.1,0.3,0.2c0.2,0.2,0.1,0.5,0.1,0.6
							c0,0.2,0,0.4,0,0.6c0.1,0.6,0.2,1.4,0.5,2.3c0,0,0,0,0,0c0.2,0.6,0.5,1.3,0.8,1.9c0.3,0.5,0.6,1,1,1.6c0.4,0.5,0.9,1,1.5,1.5
							c2.3,1.6,4.8,1.4,5.4,1.4c0.6-0.1,2.6-0.3,4.4-1.9c1.3-1.2,1.8-2.6,2.3-3.8c0.6-1.6,0.8-2.9,0.8-3.9c0-0.1,0-0.1,0-0.2
							c-0.1-0.2-0.4-0.9-0.1-1.4c0.2-0.3,0.6-0.4,1-0.6c0.4-0.1,2.3-0.1,2.8,0c0.4,0.1,0.8,0.2,1,0.6c0.3,0.5,0,1.2-0.1,1.4
							c0,0,0,0.1,0,0.1c0,1,0.1,2.3,0.7,3.9c0.4,1.2,0.9,2.6,2.2,3.9c1.7,1.6,3.7,2,4.3,2.1c0.7,0.1,3.1,0.4,5.5-1.2
							c1.4-0.9,2.2-2.1,2.7-3c1.1-1.9,1.5-3.7,1.6-4.7c0-0.1,0-0.4,0.2-0.6c0.1-0.1,0.2-0.2,0.3-0.2c0,0,0.1,0,0.1,0
							c0.1,0,0.3-0.1,0.4-0.1c0.2,0,0.4,0,0.6,0C577.8,357.9,577.8,357.1,577.7,356.3z M553.4,360.3c-0.2,2.4-1.5,4-1.9,4.5
							c-0.5,0.5-1.3,1.5-2.8,2.1c-3,1.1-5.7-0.6-6-0.8c-0.3-0.2-1.8-1.2-2.6-2.9c-0.3-0.6-0.5-1.2-0.6-1.9c-0.1-0.7-0.1-1.3,0-1.9
							c0.1-0.8,0.3-1.4,0.5-1.8c0.2-0.4,0.9-2,2.5-2.9c1-0.6,1.9-0.7,3-0.7c0.4,0,0.8,0,1.3,0l0.1,0c1.2,0.1,2.8,0.1,4.3,1.1
							c0.5,0.3,1.4,0.9,2,2C553.5,358.4,553.4,359.6,553.4,360.3z M574.7,361.9c-0.6,3-3,4.4-3.4,4.7c-0.4,0.2-3.1,1.8-6,0.6
							c-1.5-0.6-2.3-1.6-2.8-2.2c-0.4-0.5-1.7-2.1-1.8-4.6c0-0.7-0.1-1.9,0.6-3.1c0.6-1.1,1.5-1.6,2-2c1.6-1,3.2-1,4.4-1
							c0.4,0,0.7,0,1.1,0l0,0c0.7,0,1.4,0.1,2.1,0.3c0.4,0.1,0.7,0.3,1.1,0.5c1.6,1,2.2,2.5,2.4,3
							C574.6,358.8,575,360.2,574.7,361.9z"/>
					</g>
					<path class="st9" d="M568,412.9c1-4.2,2.1-8.6,3.4-13.1c0.8-2.9,1.7-5.7,2.5-8.4c-1.4-0.4-2.7-0.9-4.1-1.3
						c-1.2,1.5-2.5,3.1-3.8,4.7c-1.9,2.2-3.8,4.2-5.7,6.1c0,1.6,0,3.2,0,4.8C562.9,408,565.4,410.4,568,412.9z"/>
					<path class="st9" d="M551.1,410.2c0,0.1,0.9,2.3,2.7,2.5c0.3,0,0.7,0,1.1-0.1c0-0.3,0-0.6,0-0.9c-1.4-4.5-3.4-9.7-6.6-15.2
						c-1.3-2.3-2.7-4.3-4-6.2c-1.8,0.6-3.6,1.2-5.5,1.7c0.1,2.7,0.4,5.9,1.1,9.3c1.2,5.9,3.2,10.7,5,14.2
						C547,413.7,549,411.9,551.1,410.2z"/>
					<path class="st9" d="M583.7,470.6c-13.9,2.5-29.9,4.5-47.5,5.2c-13.3,0.5-25.7,0.3-36.9-0.4c-1.7-0.2-2.9-0.8-3.6-1.1
						c-0.7-0.4-1.4-0.8-2.1-1.5c-0.7-0.9-1.1-2-1.2-3.1c5.8,6.8,27.7,3.6,44.9,3.2c13.4-0.3,25.3-1.7,35.6-3.5
						c-0.8-1.1-1.6-2.4-2.4-3.8c-0.9-1.5-1.6-3-2.2-4.3c-7.4,0.4-15.6,0.5-24.4,0c-7.3-0.4-14-1.1-20.2-2c-1.5-1.3-2.9-2.6-4.4-4
						c10.3,1.4,21.5,2.5,33.7,2.9c8.4,0.3,16.4,0.2,23.9-0.1c0.7,1.1,1.4,2.3,2.1,3.6C580.9,464.6,582.4,467.7,583.7,470.6z"/>
					<path class="st8" d="M492.4,469.6c12.5,2.1,27.7,3.6,44.9,3.2c13.4-0.3,25.3-1.7,35.6-3.5c-0.8-1.1-1.6-2.4-2.4-3.8
						c-0.9-1.5-1.6-3-2.2-4.3c-7.4,0.4-15.6,0.5-24.4,0c-7.3-0.4-14-1.1-20.2-2"/>
				</g>
				<g>
					<g>
						<path class="st18" d="M561.6,405.4c0-0.1-0.2-0.5-0.5-1.2c0-0.1-0.1-0.2-0.1-0.2c1.8-4.3,2.3-6.8,2.5-8.3
							c0-0.6,0.1-2.9,1.5-4.3c0.1-0.1,0.3-0.3,0.5-0.6c0.9-0.9,2-2.2,1.7-2.8c-0.3-0.5-1.6-0.4-2-0.4c-0.4,0-1.1,0.2-2,0.7
							c-1.7,1.1-2.5,2.8-3.2,4.2c-0.3,0.7-0.5,1.3-0.7,1.7c0-0.9-0.3-4.5-3.1-7c-2.7-2.3-6-2.4-6.8-2.1c-0.2,0.1-0.3,0.2-0.5,0.3
							c-0.4,0.3-0.8,0.7-0.7,1.2c0,0.2,0.1,0.4,0.2,0.5c0,0,0,0,0,0c0,0,0,0.1,0,0.1c0,0.1,0.1,0.2,0,0.2c0,0.2-0.1,0.3-0.2,0.4
							c0,0-0.1,0.1-0.1,0.1c-0.1,0.1-0.2,0.1-0.2,0.1c-0.3,0.1-0.7,0.2-1,0.3c-0.4,0.1-1.2,0.4-1.4,1c0,0.1-0.1,0.2-0.1,0.3
							c0,0.1,0,0.3,0.1,0.4v0c0,0.1,0,0.1,0,0.2c0,0.3-0.2,0.6-0.5,0.7c0,0-0.1,0-0.1,0h0c0,0,0,0,0,0c0,0,0,0,0,0c0,0,0,0,0,0
							c-1.1-0.1-2,0.4-2,0.4c-0.3,0.1-0.8,0.4-1.2,1c-0.1,0.2-0.6,0.9-0.4,1.5c0,0,0,0,0,0c0,0,0,0.1,0,0.1c0,0.2,0,0.4-0.1,0.5
							c0,0.1-0.1,0.1-0.1,0.1c0,0,0,0-0.1,0c0,0,0,0-0.1,0c-0.3,0.2-0.6,0.6-0.7,1c-0.3,0.8,0.2,1.7,0.9,2.2
							c0.1,0.1,0.2,0.2,0.3,0.3c0.6,0.5,1.4,1.1,2.1,1.3c0.1,0,0.1,0.1,0.1,0.1c0.9,3,3.1,5.6,5.2,8c0.3,0.3,0.6,0.6,0.9,0.9
							c0.2,0.2,0.4,0.4,0.7,0.6c0.2,0.2,0.4,0.4,0.4,0.4c0.3,0.3,1.2,1.4,3.3,4.1c1.3-0.3,2.9-0.9,4.7-1.8c2-1.1,3.6-2.3,4.7-3.3
							C562.2,406.5,561.7,405.7,561.6,405.4z"/>
					</g>
					<g>
						<path class="st19" d="M548.1,388.2c1.4,0.2,2.8,0.5,4.2,0.7c1.9,2.6,2.9,3.8,3,3.7c0.1-0.1-0.7-1.5-2.4-4.3
							c-1.5-0.3-3-0.6-4.5-0.9C548.5,387.7,548.4,388.1,548.1,388.2z"/>
					</g>
					<g>
						<path class="st19" d="M544.9,391c1.5,0.3,3,0.6,4.4,0.9c1.7,1.9,2.4,2.7,2.5,2.6c0.1-0.1-0.5-0.9-2-3
							c-1.4-0.4-2.9-0.9-4.3-1.3c0,0,0.1,0.3-0.1,0.5C545.2,391,544.9,391,544.9,391z"/>
					</g>
					<g>
						<path class="st19" d="M541.2,394.6c1.6,0.2,3.3,0.5,4.9,0.7c1.6,1.6,2.4,2.3,2.4,2.3c0.1-0.1-0.6-0.9-2-2.5
							c-0.8-0.2-1.7-0.4-2.6-0.6c-0.9-0.2-1.8-0.4-2.7-0.6c0,0.1,0.1,0.2,0,0.4C541.3,394.5,541.2,394.5,541.2,394.6z"/>
					</g>
				</g>
				<path class="st8" d="M550.5,414.5c2.3-0.8,5-1.8,7.9-3.4c3.1-1.7,5.6-3.5,7.5-5.1c7.4,12.7,14.9,25.4,22.3,38.1
					c0.1-7,0.2-13.9,0.3-20.9c0.5,7.8,1,15.6,1.5,23.5c3.3,4.9,6.5,9.7,9.8,14.6c3.3-6.3,5.1-11.8,6-15.8c0,0,4.4-18.5-0.9-36.2
					c0-0.2-0.1-0.2,0-0.2c0.7,2.1,1.5,4.6,2.2,7.5c1.2,5.4,1.7,11.9,1.8,13.1c0,0.2,0,0.5,0.1,0.9c0,0,0.3,5.2,0.3,10.3
					c-0.2,19.9-0.3,35.6-8.1,39.4c-3.2,1.6-6.8,0.6-8.6,0.1C570.5,474.1,553.1,422.6,550.5,414.5z"/>
				<path class="st9" d="M565.9,406c8.2,11.7,16.6,24.8,24.1,36.9c0,0-2.8,0.7-2.8,0.7c0.4-5.2,1-12.5,1.5-17.6c0,0,3.2,0.2,3.2,0.2
					c-0.1,5-0.3,15.1-0.4,20.1c0,0-0.2-0.8-0.2-0.8c1.6,2.5,3.1,5.1,4.7,7.6c1.6,2.5,3.1,5.1,4.6,7.7l-1.6,0.2
					c2.2-5.2,4.5-10.4,6.8-15.5c-1.8,5.9-3.7,11.8-5.8,17.7c0,0-1-1.4-1-1.4c-3.5-4.9-6.9-9.8-10.2-14.7c0,0-0.2-0.3-0.2-0.3l0-0.4
					c0-5,0-15.1,0-20.1c0,0,3.2,0.2,3.2,0.2c-0.6,6.9-1.5,15.4-2.1,22.3c0,0-2.4-4.1-2.4-4.1C580.2,432.2,572.4,418.7,565.9,406
					L565.9,406z"/>
				<path class="st20" d="M608.9,429.6"/>
			</g>
		</g>
	</g>
	<g style="clip-path:url(#SVGID_00000169523123202124120780000003001427199012421532_);">
		
			<rect x="307.8" y="569.3" transform="matrix(-1.836970e-16 1 -1 -1.836970e-16 975.9507 174.744)" class="st21" width="185.6" height="12.1"/>
		
			<rect x="491.8" y="397" transform="matrix(-1.836970e-16 1 -1 -1.836970e-16 1130.9688 -9.2497)" class="st22" width="156.6" height="327.8"/>
		
			<rect x="647.3" y="569.3" transform="matrix(-1.836970e-16 1 -1 -1.836970e-16 1315.384 -164.6893)" class="st21" width="185.6" height="12.1"/>
	</g>
	
		<rect x="347.3" y="478.1" style="clip-path:url(#SVGID_00000169523123202124120780000003001427199012421532_);fill:#7C3A25;" width="447.7" height="17"/>
	<g style="clip-path:url(#SVGID_00000169523123202124120780000003001427199012421532_);">
		<path class="st5" d="M750.4,477.6c0.7-1.2,1.4-3.1,1.4-5.5c-0.1-2.2-0.8-3.9-1.4-5h56.3c0.8,1.5,1.2,3.1,1.3,4.7
			c0.1,2.5-0.6,4.5-1.3,5.8H750.4z"/>
		<path class="st24" d="M806.5,467.6c0.7,1.3,1.1,2.8,1.1,4.2c0.1,2.2-0.5,4.1-1.1,5.3h-55.2c0.6-1.3,1.1-3,1.1-5.1
			c0-1.8-0.5-3.3-1.1-4.5H806.5 M807.1,466.6c-19.2,0-38.4,0-57.5,0c0.5,0.8,1.7,2.7,1.8,5.5c0.1,3.1-1.3,5.3-1.8,6h57.5
			c0.5-0.9,1.7-3.3,1.5-6.4C808.5,469.3,807.6,467.5,807.1,466.6L807.1,466.6z"/>
	</g>
	<g style="clip-path:url(#SVGID_00000169523123202124120780000003001427199012421532_);">
		<path class="st5" d="M754.1,466.1c0.7-1.2,1.4-3.1,1.4-5.5c-0.1-2.2-0.8-3.9-1.4-5h56.3c0.8,1.5,1.2,3.1,1.3,4.7
			c0.1,2.5-0.6,4.5-1.3,5.8H754.1z"/>
		<path class="st25" d="M810.1,456c0.7,1.3,1.1,2.8,1.1,4.2c0.1,2.2-0.5,4.1-1.1,5.3h-55.2c0.6-1.3,1.1-3,1.1-5.1
			c0-1.8-0.5-3.3-1.1-4.5H810.1 M810.7,455c-19.2,0-38.4,0-57.5,0c0.5,0.8,1.7,2.7,1.8,5.5c0.1,3.1-1.3,5.3-1.8,6h57.5
			c0.5-0.9,1.7-3.3,1.5-6.4C812.1,457.7,811.3,455.9,810.7,455L810.7,455z"/>
	</g>
	
		<rect x="645.3" y="421.5" style="clip-path:url(#SVGID_00000169523123202124120780000003001427199012421532_);fill:#4F4E4E;" width="96.8" height="50.8"/>
	<polygon style="clip-path:url(#SVGID_00000169523123202124120780000003001427199012421532_);fill:#3A3A3A;" points="742,478.1 
		645.2,478.1 645.2,472.4 742,472.4 	"/>
	<polygon style="clip-path:url(#SVGID_00000169523123202124120780000003001427199012421532_);fill:#3A3A3A;" points="645.3,478.1 
		632.7,478.1 632.7,473.4 645.3,472.4 	"/>
	<path style="clip-path:url(#SVGID_00000169523123202124120780000003001427199012421532_);fill:#BCA18C;" d="M356.3,134.4"/>
	<g style="clip-path:url(#SVGID_00000169523123202124120780000003001427199012421532_);">
		<g>
			<g>
				<g>
					<g>
						<g id="_x36__00000027571596937262113270000017701709138772766902_">
							<path class="st29" d="M205,696.2c3,0,5.4-2.1,5.4-4.7V578.3c0-2.6-2.4-4.7-5.4-4.7c-3,0-5.4,2.1-5.4,4.7v113.3
								C199.5,694.1,202,696.2,205,696.2z"/>
							<path class="st30" d="M218.4,696.2c3,0,5.4-2.1,5.4-4.7V578.3c0-2.6-2.4-4.7-5.4-4.7c-3,0-5.4,2.1-5.4,4.7v113.3
								C212.9,694.1,215.3,696.2,218.4,696.2z"/>
							<path class="st29" d="M269.2,696.2c3,0,5.4-2.1,5.4-4.7V578.3c0-2.6-2.4-4.7-5.4-4.7c-3,0-5.4,2.1-5.4,4.7v113.3
								C263.7,694.1,266.1,696.2,269.2,696.2z"/>
							<path class="st30" d="M280.6,696.2c3,0,5.4-2.1,5.4-4.7V578.3c0-2.6-2.4-4.7-5.4-4.7c-3,0-5.4,2.1-5.4,4.7v113.3
								C275.2,694.1,277.6,696.2,280.6,696.2z"/>
							<path class="st31" d="M220.6,434c-11,46.2-2.6,69.4,8.3,82.1c19.6,23,62.2,24.4,71,51.5c2.3,7,3.4,21.2,2.5,23.2
								c-0.8,1.9-2.7,3.4-5,3.4c-2.8,0.4-6.1-4-7.8-5.6c-5.6-5.6-13-8.6-20.8-8.6c0,0-49.5,0-49.5,0c-5.8,0.1-14.1-0.7-21.5-5.8
								c-15-10.2-16.1-30.7-19.3-74.1c-1-13.8-2.9-38.5-5.7-71.1c6.8-0.6,15.2-0.8,24.7,0.2C206.5,430.3,214.3,432.1,220.6,434z"/>
						</g>
						<g>
							<path class="st32" d="M271.6,479.7c0.1,6.7,0.3,13.3,0.4,20c4.6,5.7,9.8,11.7,15.5,17.8c5.3,5.7,10.6,10.9,15.7,15.6
								c0.1,3.6,0.3,7.1,0.4,10.7c-9.1-4.7-18.2-9.6-27.5-14.6c-7.5-4.1-14.8-8.2-22.1-12.2c-1.2-12-2.4-24-3.6-36.1
								C257.5,480.4,264.6,480.1,271.6,479.7z"/>
							<g>
								<path class="st33" d="M272.1,492c-7.3-0.3-14.6-0.7-21.9-1c-1.9-18.9-3.8-37.8-5.7-56.7c-0.6-5.6,3.2-14,9.4-16.1
									c3.8-1.3,7.7,0.3,10,1.5c2,11.4,3.8,23.6,5.2,36.4C270.5,468.7,271.5,480.7,272.1,492z"/>
								<path class="st34" d="M273.1,481.3c-4.4,0.1-9,0-13.8-0.1c-8.1-0.3-15.8-0.8-23.1-1.6c0.6,3.7,1.3,7.3,1.9,11
									c5.6,1.3,12.4,2.5,20.1,2.8c5.6,0.2,10.7,0,15.1-0.5C273.3,488.9,273.2,485.1,273.1,481.3z"/>
							</g>
							<path class="st32" d="M253.1,425.3c0.2,14.9-13.8,26.5-27.5,26.6c-14.1,0.1-28.2-12-27.8-26.3c0.4-13.4,13.2-21.2,14.1-21.8
								c2.4-1.5,9.8-5.7,19-4C242.1,401.9,253,412.3,253.1,425.3z"/>
							<path class="st33" d="M193.1,542.5c0.4-15.9,0.8-31.7,1.2-47.6c-5.2-13.9-6.7-25.1-6.9-33.1c0-0.3,0,0.1-0.1-6.4
								c-0.1-13.7-0.3-21.4,0.7-31c0.6-6,1.1-7.1,1.6-8c2.5-4.6,7.3-6.9,14.5-10.2c3.1-1.4,5.8-2.4,7.6-3.1c0.7-0.4,1.5-0.8,2.2-1.2
								c1.2-0.7,2.2-1.4,3.1-2.1c0.1,0.9,0.4,2.1,0.8,3.5c0,0,1.3,4,4.1,7.6c4.9,6.2,13,8.5,14.3,8.8c1.1,3.1,2.2,6.6,3.1,10.5
								c0.5,2.2,0.9,4.3,1.2,6.3c0.3-5.4,0.5-10.7,0.8-16.1c0.9-0.9,2-2.4,2.8-4.4c2-5.5-0.6-10.4-1.1-11.5c3.7,1.8,8,4.2,12.5,7.5
								c3.3,2.5,6.1,4.9,8.4,7.2c1.4,18.1,2.5,37.1,3.1,56.7c0.6,17.6,0.7,34.6,0.6,51.1c-3.4,4.5-7.8,9-13.5,12.8
								C228.6,556.6,198.1,544.6,193.1,542.5z"/>
							<g>
								<g>
									<g>
										<path class="st35" d="M304.7,693.3c-1.6,3.7-1.3,6.1-0.7,7.5c0.8,2.1,3,5.7,37.4,8.4c2.6,0.2,5.3-0.2,7.7-1.2
											c1.4-0.6,2.9-1.1,3.5-2.4c0.4-0.9,0.2-1.7,0.1-2c-0.3-1-1-1.8-2.1-2.3c-0.5-0.3-1.1-0.5-1.6-0.8c-0.3-0.2-0.6-0.3-0.9-0.4
											c-2.4-1.3-4.8-2.5-7.2-3.7c-2.7-1.5-5.3-3-7.8-4.8c-2.9-2.1-4.8-3.7-6.1-6.1c-2-3.7-1.7-7.5-1.5-9.2
											c1.9-19.7,2.6-39.5,4.2-59.2c0.4-5.4,0.9-13.5,0.8-23.4c-8.1,0.5-16.2,0.9-24.2,1.4c-0.7,2.6-1.7,6.4-2.5,11
											c-2.2,12.5-2,23.2-1.4,30.4c1.1,13.3,4.5,27.3,5.4,39.2c0.3,3.9,0.1,6.5-0.5,9.5C306.6,688.8,305.5,691.6,304.7,693.3z"/>
										<path d="M339.4,710.8c0.6-1.5,3.1-7.9,9.6-10.5c2-0.8,3.8-1,5.3-1.1c-0.9-0.7-1.9-1.5-3.1-2.3c-2.6-1.6-5-2.6-7-3.3
											c-1.9,0.5-4.2,1.3-6.7,2.9c-5.9,3.8-8.4,9.3-9.3,11.6C331.9,709.1,335.7,709.9,339.4,710.8z"/>
									</g>
									<g>
										<path class="st32" d="M292.5,700.2c-1.6,3.7-1.3,6.1-0.7,7.5c0.8,2.1,3,5.7,37.4,8.4c2.6,0.2,5.3-0.2,7.7-1.2
											c1.4-0.6,2.9-1.1,3.5-2.4c0.4-0.9,0.2-1.7,0.1-2c-0.3-1-1-1.8-2.1-2.3c-0.5-0.3-1.1-0.5-1.6-0.8c-0.3-0.2-0.6-0.3-0.9-0.4
											c-2.4-1.3-4.8-2.5-7.2-3.7c-2.7-1.5-5.3-3-7.8-4.8c-2.9-2.1-4.8-3.7-6.1-6.1c-2-3.7-1.7-7.5-1.5-9.2
											c1.9-19.7,2.6-39.5,4.2-59.2c0.4-5.4,0.9-13.5,0.8-23.4c-8.1,0.5-16.2,0.9-24.2,1.4c-0.7,2.6-1.7,6.4-2.5,11
											c-2.2,12.5-2,23.2-1.4,30.4c1.1,13.3,4.5,27.3,5.4,39.2c0.3,3.9,0.1,6.5-0.5,9.5C294.4,695.7,293.3,698.4,292.5,700.2z"/>
										<path d="M327.2,717.6c0.6-1.5,3.1-7.9,9.6-10.5c2-0.8,3.8-1,5.3-1.1c-0.9-0.7-1.9-1.5-3.1-2.3c-2.6-1.6-5-2.6-7-3.3
											c-1.9,0.5-4.2,1.3-6.7,2.9c-5.9,3.8-8.4,9.3-9.3,11.6C319.7,715.9,323.4,716.8,327.2,717.6z"/>
									</g>
									<path class="st5" d="M327.6,561.9c2.2,4.4,5.5,12.3,5.9,31.5c0.3,16.3,0.4,24.6-5.1,30.1c-2.9,3-6.4,4.4-9,5.1
										c-1-8.2-2-16.5-3-24.7c0.2,8.7,0.3,17.4,0.5,26.1c-6.3,1-16.4,1.6-23.6-4.3c-12.3-10.1-1.7-27.2-11.7-40.1
										c-16.5-21.2-69.2-5.2-78.1-22.3c0,0-12.2-13.1-12.2-13.1l0,0c0-0.1,0-0.1,0-0.1c-0.3-0.7-2-4.3-1.9-8.4
										c0.1-10.5,7-18.8,16.7-24c14.6,3,29.2,5.9,43.7,8.9c27.1,5.5,20.2,9.2,40.9,14.1c13,3.1,25.7,4.8,33.7,15.5
										C325.7,558.2,326.6,559.9,327.6,561.9z"/>
									<g>
										<g>
											<path class="st36" d="M315.2,594.4c0.9,6.2-3.7,12.9-9.9,14.1C309.3,604.2,312.4,599.7,315.2,594.4L315.2,594.4z"/>
										</g>
										<g>
											<path class="st36" d="M317.3,596.8c1.9,8.3-1.8,17.8-8.9,22.5C312.6,612.2,315.5,604.9,317.3,596.8L317.3,596.8z"/>
										</g>
										<g>
											<path class="st36" d="M312.5,585c0.9,6-2.2,14.7-9,15.4C308.2,596.4,309.6,590.4,312.5,585L312.5,585z"/>
										</g>
									</g>
									<g>
										<g>
											<path class="st36" d="M316.8,590.8c3.5,3.7,6.3,8.1,11.6,9.2C322.7,603,316.7,596.4,316.8,590.8L316.8,590.8z"/>
										</g>
										<g>
											<path class="st36" d="M317.2,582.8c3.3,3.9,6.2,7.5,10.5,10.4C322.1,593.9,317,588.2,317.2,582.8L317.2,582.8z"/>
										</g>
										<g>
											<path class="st36" d="M317.1,596.5c2.6,2.9,5.1,6.6,7.4,9.7c0.8,1.1,1.6,2.2,2.3,3.5c-1.4-0.4-2.7-1.2-3.8-2
												C319.7,604.9,317.2,600.9,317.1,596.5L317.1,596.5z"/>
										</g>
									</g>
									<path class="st37" d="M277.7,555.5c3.8,1,19.1,5.3,28.4,20.3c5.1,8.2,6.3,16.3,6.6,20.8c0.1,0.7,0.8,3.9,3,5.2
										c1.9,1,3.6-1.7,4.2-7c0.7-4.5,1.2-12.2-1.7-21c-5.2-16-18-23.9-21.6-25.9C290.4,550.3,284.1,552.9,277.7,555.5z"/>
								</g>
								<path class="st33" d="M271.4,517.9c6.6,9.7,17.3,11.4,27.4,15.6c8.3,3.4,19.3,9.8,30.6,23c-12.3,4.3-24.6,8.6-36.9,12.9
									c-8-4.6-20.4-10.7-36.4-14.2c-24.3-5.3-38.3-0.6-48.6-10.3c-4.8-4.6-9.7-13.2-8.6-30.9c22.5-5.5,45.1-11,67.6-16.5
									c-0.2,2.1-0.2,5.1,0.4,8.5C267.4,509.1,268.5,513.6,271.4,517.9z"/>
							</g>
							<g>
								<path class="st34" d="M241.3,420.5c0.2,7.7-0.1,15.6,0.1,23.3c0.1,7.8,0.4,15.5,0.7,23.3c0,0-0.4-0.4-0.4-0.4
									c2.2-0.1,4.4-0.2,6.7-0.3c-2.2,0.4-4.4,0.7-6.6,1l-0.4,0.1l-0.1-0.4C239.3,451.7,239.5,436,241.3,420.5L241.3,420.5z"/>
							</g>
							<path class="st34" d="M245.5,458.9c0.2,0.4,0.2,0.9,0.1,1.3c-0.2,0.6-0.8,0.9-1.4,0.7c-0.4-0.1-0.7-0.5-0.8-1.1
								c-0.1-0.7,0.4-1.2,0.8-1.4C244.7,458.2,245.2,458.4,245.5,458.9z"/>
							<path class="st34" d="M245.2,446.9c0.2,0.4,0.2,0.9,0.1,1.3c-0.2,0.6-0.8,0.9-1.4,0.7c-0.4-0.1-0.7-0.5-0.8-1.1
								c-0.1-0.7,0.4-1.2,0.8-1.4C244.4,446.2,245,446.4,245.2,446.9z"/>
							<path class="st34" d="M244.8,434.5c0.2,0.4,0.2,0.9,0.1,1.3c-0.2,0.6-0.8,0.9-1.4,0.7c-0.4-0.1-0.7-0.5-0.8-1.1
								c-0.1-0.7,0.4-1.2,0.8-1.4C244,433.8,244.5,433.9,244.8,434.5z"/>
							<path class="st38" d="M258.6,414.1c-0.6-4.5-3.3-4.7-4.2-4.3c-1-2.1-2.4-3-3.9-2c-0.4-1.5-2.9-2.5-3.5-1.7
								c0.5,7.3,3.3,77.8-1.6,104.1c-0.2,2.4,12,9,16.1,4.3C261.8,511.2,262.8,434.1,258.6,414.1z"/>
							<path class="st32" d="M221.6,474.3c0.1,6.7,0.3,13.3,0.4,20c5.4,5,11.1,10.1,17,15.2c11.7,10,23.2,19.1,34.4,27.3
								c-1,0.6-2,1.3-3.2,2.3c-1.5,1.3-2.7,2.6-3.5,3.7c-15.1-6.3-28.5-12.3-40.1-17.7c-6.7-3.1-14.1-6.7-22.5-13.5
								c-4.8-4-8.4-7.8-10.8-10.5c-0.4-8.9-0.8-17.9-1.1-26.8C202,474.3,211.8,474.3,221.6,474.3z"/>
							<path class="st33" d="M191.7,488c4.9,0.8,10.9,1.5,17.6,1.4c5.9-0.1,11.2-0.6,15.7-1.4c0-13.5,0-26.9,0-40.4
								c-1.1-3.6-3.2-9.1-7.5-14.7c-3.8-5.1-8-8.4-10.9-10.4c-5.8-0.1-11.6-0.3-17.4-0.4C190.1,444.1,190.9,466.1,191.7,488z"/>
							<path class="st34" d="M190.1,478.2c4.1,1,8.9,2,14.4,2.4c8.2,0.6,15.4,0,20.9-1c-0.2,3.5-0.5,7-0.7,10.5
								c-4.6,1.3-10.8,2.6-18.2,2.6c-6.5,0-12.1-0.9-16.5-1.9C190.1,486.6,190.1,482.4,190.1,478.2z"/>
							<path class="st34" d="M241.3,420.5c0.9-1,2.5-3.3,3.1-6.6c0.9-4.6-0.9-8.1-1.5-9.3c0.6,0.4,1.5,0.7,2.2,1.1
								c0.8,0.3,1.2,3.2,1.5,4.2c0.7,3,0.2,3.9,0.1,11.9c0,2.3,0,4.1-0.5,4.2c-0.3,0.1-0.5-1.1-1.9-2.6c-0.5-0.6-0.8-0.8-1.2-1.1
								c-0.7-0.5-1.2-0.7-1.6-1.3C241.4,420.8,241.4,420.6,241.3,420.5z"/>
							<g>
								<path class="st32" d="M243.7,410.6c-8.1,6.9-28.9-9.1-28.2-9.6c5.1-3.6,4.7-12.7,3.7-20.6c-0.4-3.1-0.9-6-1.2-8.3
									c5.1-1.8,18.5-1.4,24,8.7c2.1,3.8,3,9,1.9,16c-0.6,1.2-0.9,2.5-1,3.7c0,0,0,0.1,0,0.1C242.2,405.3,244.3,409.5,243.7,410.6z
									"/>
								<path class="st39" d="M243.9,396.8c-0.6,1.2-0.9,2.5-1,3.7c0,0,0,0.1,0,0.1c-0.9-0.2-2.1-0.6-3.4-1.1c-1.1-0.4-2.7-1-4.6-2
									c-2.5-1.4-4.7-2.5-6.3-4.9c-0.8-1.1-1.1-2-1.7-3.7c-0.7-1.9-1.4-4.7-1.8-8.4c5.1-3.7,11.5-3.9,15.6-0.8
									c0.5,0.4,0.9,0.7,1.2,1.2C244,384.6,244.9,389.8,243.9,396.8z"/>
								<path class="st32" d="M258.3,365.8c0,0.1,0,0.2,0,0.3c-0.1,0.6-0.2,1.1-0.5,1.7c0,0-0.2,0.4-0.8,2c-0.3,0.8-0.7,5.1-0.7,11
									c0,1-0.2,2.5-0.5,4.4c-0.4,2.3-1.2,6.1-3.9,9.8c-0.6,0.9-1.6,2.1-3,3.3c-0.5,0.5-1.2,0.7-1.9,0.7c-0.6,0-1.4-0.1-2.2-0.3
									c-0.1,0-0.4-0.1-0.8-0.2c-2.1-0.5-4.6-1.1-7.2-2.1c-1.6-0.6-3.5-1.3-4.9-2c-3-1.5-5.2-4.5-5.8-7.9c-0.5-2.1-0.6-4.2-1.2-6.3
									c-0.2-1.3-0.4-2.6-0.5-3.9c0-0.1-0.1-0.2-0.1-0.2c-0.3-0.1-0.4-0.1-0.8-0.1c-3.8-0.6-6.2-5.8-6.9-7.2
									c-2.8-5.9-3.8-18.1,3.8-25.1c4.9-4.5,10.8-4.5,14.1-4.6c4.7-0.2,24.5,2.9,23.6,20.4c-0.1,1.4,0,2.8,0.2,4.2
									c0,0.2,0.1,0.4,0.1,0.5c0,0.1,0,0.2,0,0.3C258.4,364.9,258.4,365.4,258.3,365.8z"/>
								<path d="M223.3,367.8c1.4,1,0.7,2.6,0.8,3c0.4,0.4,1.7,0.8,2.1,1.1c0-1.3,0-2.5,0-3.8c0.1-1.6,0.6-2.6,1-3.2
									c0.6-0.8,1.1-1,2.2-2.3c0,0,1-1,1.8-2.2c2.2-3.2,3.2-6.6,3.4-7.8c0.2-0.7,0.3-1.4,0.3-1.8c0.8,0,2.1,0,3.7,0.1
									c2.3,0.2,3.9,0.5,4.5,0.6c6.3,1.2,10.1-1.7,12.7,0.5c1,0.8,2.1,2.6,1.9,6.8c2.3-6.3,1.2-10.4,0.6-12.1
									c-3.9-11.1-21.7-15.8-32.5-9.6c-3,1.7-5,4.1-6.1,5.6c-3,0.8-4.7,2.3-5.6,3.2c-4.2,4.5-3.7,12.1-3.2,18.8
									c0.1,1.1,0.2,2.1,0.2,2.1c0.3,2,0.9,3.5,1,3.9c1.3,3.5,3.3,13.8,4.7,17.2c0.2,0.4,0.5,1.2,1.3,1.6c0.5,0.3,1.1,0.3,1.4,0.2
									c0.4-5.3,0.1-9.1-0.4-11.6c0,0,0,0,0-0.1c-0.1-0.8-0.6-3.3-0.8-5.6c-0.3-2.9-0.5-4.4,0-4.9
									C219.6,366.5,221.8,366.7,223.3,367.8z"/>
								<path id="XMLID_00000028296350857750853060000002802779357638856873_" class="st38" d="M209.2,357.9
									c27.7-15.2,43.3-14,48.6-13.6c0.9,0.2,2.3,1.8,2.2,4.8c1.3,1.7,1.8,4.1,0.4,5.3c0,0,0,0.1,0,0.1c0.2,0.7-0.4,1.4-1.2,1.4
									c-5.8,0.7-19.9-3.5-46,12.6c-0.6,0.5-1.5,0.4-1.9-0.1c-0.5-0.6-0.9-1.5-0.9-2.9c-1.6-0.8-1.7-3.8-1.3-4.6
									C208.9,359.5,208.7,358.2,209.2,357.9z"/>
								<path class="st32" d="M224.1,368.2c-0.4-4.7-2.5-5.6-2.5-5.6c-1.6-0.7-3.7,0.1-4.7,1.6c-0.8,1.2-0.7,2.5-0.7,3.4
									c0.1,1.7,0.8,3,1.8,4.7c0.7,1.2,1.1,1.9,1.8,2.5c1.4,1.2,2.9,1.4,3.8,1.4c0.1-0.1,0.3-0.2,0.5-0.4c0.8-0.9,0.4-2.4,0.1-6.6
									C224.3,369.2,224.2,368.8,224.1,368.2z"/>
							</g>
							<path class="st40" d="M243,388.3c0,0.7,3.3,1.4,6.1,1.1c0.3,0,2.5-0.3,2.6-0.9c0-0.5-1.7-1.1-3.1-1.3
								C245.9,386.8,243,387.6,243,388.3z"/>
							<g>
								<path class="st5" d="M251.3,370.2c1.2-2.5,3.3-3.3,4.4-2.7c0.7,0.5,1,1.7,0.9,3c-0.4,0.9-0.9,1.2-1.1,1.3
									C254.3,372.4,252.5,371.8,251.3,370.2z"/>
								
									<ellipse transform="matrix(0.1214 -0.9926 0.9926 0.1214 -143.4024 577.6813)" class="st41" cx="254.6" cy="369.8" rx="2.2" ry="1.5"/>
								<ellipse transform="matrix(0.1214 -0.9926 0.9926 0.1214 -143.1602 578.0373)" cx="254.9" cy="369.9" rx="1.1" ry="0.8"/>
								
									<ellipse transform="matrix(0.124 -0.9923 0.9923 0.124 -144.0412 575.8248)" class="st5" cx="254.1" cy="369.5" rx="0.4" ry="0.2"/>
								<path class="st42" d="M256.6,370.5c0.1-1.1-0.3-2.2-1.1-2.6c-1.2-0.7-2.6,0.4-2.9,0.7c-0.7,0.5-1.1,1.2-1.2,1.6
									c0.1-0.4,0.5-1.3,1.3-2c0.2-0.2,2-1.7,3.3-0.8C256.6,367.9,257,369.2,256.6,370.5z"/>
							</g>
							<path class="st40" d="M250.9,382.6c0.1,0.2-0.7,1.2-1.9,1.4c-1.9,0.4-3.6-1.6-3.5-1.7c0.1-0.1,1.3,1,3.2,0.9
								C250,383.1,250.8,382.5,250.9,382.6z"/>
							<g>
								<path d="M234.1,364.5c0.6-0.7,1.4-1.5,2.5-2.2c0,0,0,0,0,0c0.6-0.4,1.4-0.5,2.1-0.4c1.8,0.2,3.6,0.4,5.3,0.6
									c0.1,0.2,0.3,0.5,0.4,0.9c0.1,0.3,0.1,0.6,0,0.8c-2.1-0.2-4.2-0.5-6.2-0.7c-0.5-0.1-0.9,0-1.4,0.1
									C236,363.9,235.1,364.2,234.1,364.5z"/>
							</g>
							<g>
								<path d="M258.2,365c-0.2-0.1-0.4-0.1-0.6-0.1l-6-0.4c0-0.2,0-0.5,0.2-0.8c0.2-0.4,0.4-0.7,0.5-0.8c1.7,0.1,3.4,0.2,5.1,0.4
									c0.3,0,0.6,0.1,0.9,0.2c0,0.1,0,0.2,0,0.3C258.3,364.1,258.3,364.5,258.2,365z"/>
							</g>
							<g>
								<path class="st5" d="M244.2,369.7c-0.2,0.2-0.6,0.5-1,0.7c-1,0.5-2,0.5-2.5,0.4c-1.9-0.1-3.3-1.3-3.8-1.7
									c0.3-0.5,1.3-2.2,3.1-2.7c0.4-0.1,1.2-0.4,2-0.1C243.9,367.1,244.2,369.6,244.2,369.7z"/>
								<g>
									<path class="st41" d="M243,369c-0.1,1.2-1,2-1.9,1.9c-0.9-0.1-1.6-1.1-1.5-2.3s1-2,1.9-1.9
										C242.5,366.8,243.1,367.9,243,369z"/>
									<path d="M242.5,369c-0.1,0.6-0.5,1-1,1c-0.5-0.1-0.8-0.6-0.7-1.2c0.1-0.6,0.5-1,1-1C242.3,367.9,242.6,368.4,242.5,369z"/>
									<path class="st5" d="M240.9,368.5c0,0.2-0.2,0.3-0.3,0.3c-0.1,0-0.3-0.2-0.2-0.4c0-0.2,0.2-0.3,0.3-0.3
										C240.8,368.2,240.9,368.3,240.9,368.5z"/>
									<path d="M244.2,369.7c-0.1,0-0.6-2.1-2-2.8c-1.7-0.8-4,0-5.3,2.2c1.1-2.6,3.6-3.7,5.2-3
										C243.9,366.9,244.3,369.7,244.2,369.7z"/>
								</g>
							</g>
							<g>
								<path d="M221.3,379.1c-0.6,0-0.8-1.2-0.9-2.3l0.4,0.1c0,1.2,0.3,1.8,0.4,1.8c0.1,0,0.4-0.7,0.4-1.9c0-1.2-0.3-1.9-0.5-1.9
									c-0.1-0.1-0.1-0.2,0-0.4c0.6,0,0.8,1.2,0.9,2.3S221.9,379.1,221.3,379.1z"/>
							</g>
							<path class="st34" d="M216.3,399.7c0.4-0.3,1-0.1,1.2,0.4c1,3.6,3.9,11.7,11.5,16.6c2.6,1.6,5.1,2.5,7.2,3
								c-1,3.2-1.6,5.8-1.9,7.7c-0.3,1.4-0.4,2.2-1,2.5c-1.3,0.6-3.6-1.9-5.8-4.3c-2.6-2.9-6-6.7-9.9-11.3c-1.1-1.6-2.3-3.4-3.4-5.4
								c-1.2-2-2.1-3.9-2.9-5.7c1.1-0.7,2.1-1.5,3.2-2.2C215.1,400.6,215.7,400.2,216.3,399.7z"/>
							<g>
								<path d="M236.6,416.2c-4.4,0.2-8-3-11-5.8c-2.3-2.2-5.8-5.8-8.6-10.8c0-0.1,0.2-0.2,0.3-0.3c0.1-0.2,0.3-0.4,0.4-0.6
									c3.4,6.3,7.7,10.2,10.3,12.4c3.6,2.9,7.3,5.1,10.5,3.7c2.8-1.3,4.5-5.3,4.4-10.1c0.1,0.2,0.2,0.4,0.4,0.6
									c0.1,0.3,0.2,0.5,0.3,0.7c0,0.8-0.3,7.7-4.6,9.7C238,416.2,237.2,416.2,236.6,416.2z"/>
							</g>
						</g>
					</g>
					<path class="st43" d="M172.3,429c3.4,0.6,8.5,1.9,14,5.1c10.5,6.1,15.2,15.1,16.9,18.4c3.5,6.9,4,12.1,4.1,41.5
						c0,7.4,0.1,17.8,1.2,38.6c0.2,4.5,0.5,8.7,0.7,12.4c0.4,6.1,5,11,11.1,11.9c18.1,2.6,42.1,6.3,52.2,9.3
						c0.3,0.1,1.3,0.4,2.7,0.9c14.4,5.3,18.7,12.8,20,15.5c2.1,4.3,3.1,9.6,1.7,10.4c-1.8,1-5.4-6.4-14-10.8
						c-3.8-2-7.4-2.7-18.1-3.4c-13.3-0.8-24-0.6-28.9-0.5c-18.1,0.4-22.8,1.1-30.6-1.6c-5.4-1.8-9.4-4.3-11.9-6.1
						c-1.6-1.4-3.5-3.3-5.2-5.9c-2.3-3.3-3.6-6.4-4.3-8.7l-3-17.5C178.1,502,175.2,465.5,172.3,429z"/>
				</g>
			</g>
			<path class="st32" d="M298.1,528.2c-3.2-0.7-6.4-1.5-9.8-2.4c-4.7-1.3-9.1-2.6-13.2-4c7.4,5.6,14.8,11.2,22.1,16.9
				c2.1-1.6,4.3-3.3,6.4-4.9C301.8,531.9,299.9,530,298.1,528.2z"/>
			<g>
				<path class="st32" d="M289.1,550.9C289.1,550.9,289.1,550.9,289.1,550.9c1.8,2.2,3.2,3.8,4,4.8c1.8,2.2,3.1,3.6,2.6,4.4
					c-0.2,0.4-0.8,0.5-0.8,0.5c-0.7,0.1-1.3-0.5-2.4-1.5c-1.1-1.1-1.7-1.7-2.1-2.3c-0.8-1-2-2.4-3.8-3.9c1.4,1.3,2.5,2.5,3.3,3.3
					c1.9,2.1,2.2,2.7,2,3c-0.1,0.2-0.6,0.2-1.1,0.1c-2.9-0.5-5.7-3.3-7.6-5c-1.2-1-3-2.4-5.6-3.8c-1.4-0.2-4.2-0.9-7-3.1
					c-2.4-1.8-3.8-3.9-4.4-5.2c-1.2-0.7-2.4-1.3-3.6-2c0.5-1.6,1.2-3.3,1.9-5.1c0.6-1.3,1.2-2.6,1.7-3.8c2.2,1.6,4.4,3.3,6.6,4.9
					c4,1.4,8,2.8,12,4.3c0.9,0.6,2,1.4,3,2.5c0.5,0.5,0.9,1,1.3,1.4c7.5,9.1,8.5,11.6,8,12.1c-0.1,0.1-0.4,0.1-0.5,0.1
					c-1.1,0-1.5-2-3.4-4.4c-0.9-1.1-1.8-1.8-1.8-1.8c0.9,0.9,1.6,1.6,2.1,2.2c3,3.3,3.4,4.4,3.3,5.3c0,0.3-0.1,0.9-0.4,1
					c-0.8,0.3-2.4-2.1-3.2-3.1c-0.6-0.7-1.1-1.3-1.7-2C290.8,552.9,290,551.9,289.1,550.9z"/>
			</g>
			<g>
				<path class="st32" d="M315.3,543.7C315.3,543.7,315.3,543.7,315.3,543.7c1.7,1.9,3,3.4,3.8,4.2c1.7,1.9,2.9,3.2,2.5,3.9
					c-0.2,0.3-0.7,0.4-0.8,0.4c-0.7,0.1-1.3-0.4-2.2-1.3c-1-1-1.5-1.5-2-2c-0.7-0.9-1.9-2.1-3.6-3.5c1.3,1.2,2.4,2.2,3.1,3
					c1.8,1.9,2.1,2.4,1.9,2.7c-0.2,0.3-0.8,0.1-1,0.1c-2.6-0.5-7.3-4.8-8.8-6.2c1.1,1.3,2.3,2.9,1.9,3.3c-0.2,0.2-0.6,0.2-1,0.1
					c-3.2-0.7-6.9-4.7-10-7.9c-0.9-0.9-1.6-1.7-2.2-2.3c-2.1-1.5-4.2-3-6.4-4.4c0.5-1.2,1.1-2.6,1.8-4c0.7-1.3,1.4-2.5,2.2-3.6
					c2.9,2.2,5.7,4.5,8.6,6.7c0.8,0.4,2,0.9,3.6,1.5c2.3,0.9,3,1.2,4.1,1.8c1.3,0.7,2.1,1.3,3.6,2.6c7.1,6.1,7.6,7,7.3,7.4
					c-0.1,0.2-0.5,0.4-0.7,0.3c-0.4,0-0.5-0.4-1.6-1.5c0,0-1-1.2-1.7-1.6c0,0,0,0,0,0c0.9,0.8,1.5,1.5,2,1.9
					c1.9,1.9,3.7,3.8,3.1,4.7c-0.1,0.2-0.4,0.4-0.7,0.5c-0.2,0-0.6,0-1.2-0.7c-0.4-0.3-0.9-0.9-1.4-1.7c-0.5-0.6-1.1-1.2-1.6-1.7
					C317,545.5,316.2,544.6,315.3,543.7z"/>
			</g>
		</g>
	</g>
	<path style="clip-path:url(#SVGID_00000169523123202124120780000003001427199012421532_);fill:#2D2D2D;" d="M557.2,377.7
		c-0.3,0.2-0.8,0.5-1.5,0.7c-2.2,0.9-3.3,0.3-5.4,0.9c-2.1,0.6-3.2,1.7-3.3,1.5c-0.1-0.2,1.7-1.5,3.8-3.1c1-0.7,2.7-2.1,5-2.5
		c0.4-0.1,1-0.2,1.3,0.1C557.9,375.9,557.3,377.6,557.2,377.7z"/>
	<path style="clip-path:url(#SVGID_00000169523123202124120780000003001427199012421532_);fill:#2D2D2D;" d="M558,377.8
		c0.3,0.2,0.8,0.5,1.5,0.7c2.2,0.9,3.3,0.3,5.4,0.9c2.1,0.6,3.2,1.7,3.3,1.5c0.1-0.2-1.7-1.5-3.8-3.1c-1-0.7-2.7-2.1-5-2.5
		c-0.4-0.1-1-0.2-1.3,0.1C557.3,376.1,557.9,377.7,558,377.8z"/>
</g>
</svg>
