<?xml version="1.0" encoding="utf-8"?>
<!-- Generator: Adobe Illustrator 26.0.1, SVG Export Plug-In . SVG Version: 6.00 Build 0)  -->
<svg version="1.1" id="Layer_1" xmlns="http://www.w3.org/2000/svg" xmlns:xlink="http://www.w3.org/1999/xlink" x="0px" y="0px"
	 viewBox="0 0 844 676" style="enable-background:new 0 0 844 676;" xml:space="preserve">
<style type="text/css">
	.st0{clip-path:url(#SVGID_00000134937826408182128980000002315417052880660917_);fill:#BDDEEF;}
	.st1{clip-path:url(#SVGID_00000134937826408182128980000002315417052880660917_);fill:#52A7C1;}
	.st2{clip-path:url(#SVGID_00000134937826408182128980000002315417052880660917_);}
	.st3{fill:#2782AA;}
	.st4{fill:#52A7C1;}
	.st5{fill:#99CCE0;}
	.st6{clip-path:url(#SVGID_00000134937826408182128980000002315417052880660917_);fill:none;}
	.st7{fill:#BDDEEF;}
	.st8{fill:#235368;}
	.st9{fill:#E3F4FF;}
	.st10{fill:#8E8B5E;}
	.st11{fill:#595634;}
	.st12{fill:#B75846;}
	.st13{fill:#994936;}
	.st14{fill:#89432E;}
	.st15{fill:#CE896A;}
	.st16{fill:#B26E54;}
	.st17{fill:#2C3133;}
	.st18{fill:#6DA8C6;}
	.st19{fill:#F59F18;}
	.st20{fill:#C47712;}
	.st21{fill:#D34047;}
	.st22{fill:#B7303D;}
	.st23{fill:#DE9F7E;}
	.st24{fill:#D39275;}
	.st25{fill:#FFFFFF;}
	.st26{fill:#D3D3D3;}
	.st27{fill:#FFFFFF;stroke:#D3D3D3;stroke-width:0.9505;stroke-miterlimit:10;}
	.st28{fill:#FCB856;}
	.st29{fill:#C63846;}
	.st30{fill:#D38A6A;}
	.st31{fill:#CE8065;}
	.st32{fill:#6B3628;}
	.st33{fill:#211E1F;}
	.st34{clip-path:url(#SVGID_00000134937826408182128980000002315417052880660917_);fill:#DE9F7E;}
	.st35{clip-path:url(#SVGID_00000134937826408182128980000002315417052880660917_);fill:#D3D3D3;}
	.st36{clip-path:url(#SVGID_00000134937826408182128980000002315417052880660917_);fill:#CE8065;}
</style>
<g>
	<defs>
		<path id="SVGID_1_" d="M821.9,442.7c-0.2,1.8-1,9.2-3.3,19c0,0-4.3,17.6-13,34.6c-34.7,67.3-142,108.8-142,108.8
			c-31.9,12.3-100.7,35.1-228.3,34.2c-146.4-1.1-255.3-1.9-331.4-79.5c-46-47-62.3-104.2-69-138.8c-7.3-39-20.1-103.3,14.8-136.5
			c82.4-78.5,161-8.5,176.7-93.2c14.5-78.1,69.6-153.9,170-129.4c128.9,31.4,114.6,120.2,177.9,113.6
			c63.3-6.6,171.5-56.4,191.1,37.8c19.6,94.2-72.1,174.9-13.7,168.2c43.6-5,52.7-1.6,62.1,6.6C826.2,398.9,823.8,423.6,821.9,442.7z
			"/>
	</defs>
	<clipPath id="SVGID_00000154387055328316688630000005888537325102565771_">
		<use xlink:href="#SVGID_1_"  style="overflow:visible;"/>
	</clipPath>
	<path style="clip-path:url(#SVGID_00000154387055328316688630000005888537325102565771_);fill:#BDDEEF;" d="M817.3,461.4
		c-0.2,0.8-0.4,1.6-0.6,2.4c-9,33-20.2,58.1-28.7,74.4c-7.4,14.2-12.8,21.6-12.8,21.6H104c0,0-46.7-67.3-69-138.8
		c-15.9-50.9-19.4-103.9,14.8-136.5c82.4-78.5,161-8.5,176.7-93.2c14.5-78.1,69.6-153.9,170-129.4
		c128.9,31.4,114.6,120.2,177.9,113.6c63.3-6.6,171.5-56.4,191.1,37.8c19.6,94.2-72.1,174.9-13.7,168.2
		C791.5,376.9,842.3,366.7,817.3,461.4z"/>
	<path style="clip-path:url(#SVGID_00000154387055328316688630000005888537325102565771_);fill:#52A7C1;" d="M838.7,423.2
		c-7.6,19.1-8.9,34.5-8.6,45c0.5,21.8,7.8,41.5-3.1,66.4c-2.1,4.7-8.5,18.7-36,48.8c-24,26.4-45.1,44.2-48.8,47.2
		c-85.7,69.5-623.3,38.5-697.5-70.5c-13.3-19.5-39.8-59.2-39.8-59.2c-1.8-5-3.4-10.5-4.4-16.4c-6.4-35.6,8.3-65.9,16.9-80.4
		c107.1-14.7,230.3-24.7,366.6-23.9C557.5,381.3,710.8,399.7,838.7,423.2z"/>
	<g style="clip-path:url(#SVGID_00000154387055328316688630000005888537325102565771_);">
		<path class="st3" d="M409.7,147.8c-0.8-0.1-55.3,18.2-55.3,46.5c0,28.3,50.9,39.6,77.6,32.4c26.7-7.2,64.9-3.6,84.4,9.7
			c19.5,13.2,48.1-30.8,105.2-18.8c57.2,12,81.9,0.6,115.1-17.6c33.2-18.3,54.8,14.3,84.2,8c29.4-6.2,45.5-51.1,4.2-65.8
			c-41.3-14.6-200.4-32-229.7-29.1C566,116,409.7,147.8,409.7,147.8z"/>
		<g>
			<path class="st4" d="M566.2,443.4c0,0,16.4-48.8,20-89.1c4-44.5-7.6-91.8,0.6-119.6c9.6-32.7-4-86.6-9.7-121.6
				c0,0,35.7,93.3,28,115.3c-7.2,20.7,0.3,83,7.3,121.6c7,38.6-7.7,69.4,0,93.4C612.4,443.4,578,454.9,566.2,443.4z"/>
			<g>
				<path class="st4" d="M596.2,290.8l-4.3-3.7c0.3-0.3,6.3-7.4,17.8-15.2c10.5-7.2,27.8-16.3,50.3-19.1c41-5.1,98-45.2,100.3-79.2
					l5.7,0.4c-1.1,17.2-14.8,37-37.4,54.3c-21.2,16.3-46.6,27.5-67.8,30.2C619.7,263.6,601.4,300.8,596.2,290.8z"/>
			</g>
			<g>
				<path class="st4" d="M602.7,205.4l-1.3-5.5c0.2-0.1,12.9-3.2,28.4-12.3c14.2-8.4,35.5-22.8,47.9-48.2l3.4,1.7
					c-13.1,26.7-33.6,42.8-48.6,51.5C616.3,202.1,603.3,205.3,602.7,205.4z M602.1,202.6l-0.7-2.8c0,0,0,0,0,0L602.1,202.6z"/>
			</g>
			<g>
				<path class="st4" d="M636,187.9c-8.7-7.7-12.7-20.6-15.1-36.4c-1.8-11.8,0-20.6,0-21l2.7,0.2c0,0.4-2.5,36.2,16.2,52.9
					L636,187.9z"/>
			</g>
			<g>
				<path class="st4" d="M659.3,174.1c-1.2,0-2.3,0-3.5-0.1l0.2-5.7c26.2,0.8,43.4-7.4,53.2-14.4c10.7-7.6,15.2-15.5,15.3-15.5
					l2.5,1.4c-0.2,0.4-3.3,10.1-14.8,18.4C701.9,165.5,685.3,174.1,659.3,174.1z"/>
			</g>
			<g>
				<path class="st4" d="M577.6,242.3c-69.5,0-133.3-63.6-158.7-86.3c-4.5-4-8.8-7.9-9.9-8.4c0,0,0.3,0.1,0.8,0.1v-5.7
					c2,0,3.8,1.5,12.9,9.7c25.8,23,99.6,83.9,169.3,79.7l-4,10.8C585.5,242.5,580,242.3,577.6,242.3z"/>
			</g>
			<g>
				<path class="st4" d="M441.1,215.4c-17.5,0-31.3-4.2-41.6-7.3c-20-6.1-28.3-17.1-28.8-17.5l1.6-1.9c0.1,0.1,10.1,8.4,29.1,14.1
					c17.6,5.3,46.6,9.6,85.4-0.5l6.4,7.7C475.7,214.6,454.7,215.4,441.1,215.4z"/>
			</g>
			<g>
				<path class="st4" d="M517.3,216.8l-5.2-2.3c16.7-36.8-3.1-74.4-3.3-74.7l2.1-1.4c0.3,0.4,6.2,9.8,10,24.2
					C524.5,175.9,526.7,196.1,517.3,216.8z"/>
			</g>
			<g>
				<path class="st4" d="M518.4,174.1c-14.7,0-26.6-15.7-33.5-23.5c-1.7-1.9-4.1-5.8-4.8-4.9c0,0-1.3-1.4-0.8-1.4l1.7,0.3
					c1.8,1.5,3.1,1,7,5.4c6.5,7.4,19.1,19.3,31.8,18.3l0.4,5.6C519.6,174.1,519,174.1,518.4,174.1z"/>
			</g>
			<g>
				<path class="st4" d="M586.4,171.3c-22.8-3.2-35.6-13.8-42.4-22.2c-7.4-9.2-9.3-17.6-9.4-17.9l5.5-1.2c0,0.1,1.8,7.7,8.5,15.8
					c8.9,10.9,21.9,17.6,38.6,19.9L586.4,171.3z"/>
			</g>
			<g>
				<path class="st4" d="M623.6,158.2l-1.9-5.3c14-5.1,25.9-14,30.7-27.1c3.6-9.9,3.8-18.8,3.8-18.9l2.5-0.2c0,0.4,0.6,9.7-3.4,20.6
					C651.6,137.5,643.1,151.2,623.6,158.2z"/>
			</g>
			<g>
				<path class="st4" d="M734.9,231.3c-2.9,0-6.9-0.3-9.8-0.5l2-8.3c17.4,0.9,33.1-0.9,46.8-5.5c10.8-3.6,20.4-9,28.4-15.9
					c7.1-6.1,11.7-12.4,14.2-16.6c2.8-4.5,3.9-7.7,3.9-7.7l5.4,1.9c-0.2,0.6-4.9,13.8-19.5,26.5c-8.6,7.4-18.8,13.2-30.3,17.1
					C763.8,226.3,749.7,231.3,734.9,231.3z"/>
			</g>
		</g>
		<path class="st5" d="M279.4,171.3c0,0,19.5,15.2,47.2,10.8c27.7-4.4,47.6-13.8,73.6-4.6c26,9.2,84.9,14.7,130.4-3.7
			s91.9-33.6,142-17.5c50.1,16.1,77,27.2,114.1,15c37.1-12.1,58,26.1,100.5,6.2c42.5-19.9,14.5-50-18.4-56.2
			C836,115.2,785,75,725.6,84.3c-59.4,9.3-113.6-16.1-170.4-3.9c-56.8,12.2-86.7,30.9-144.2,26.3C353.5,102.1,236,137.1,279.4,171.3
			z"/>
		<path class="st5" d="M502.7,82.9c0,0-35.1,3.6-55,10.8c-19.9,7.2-65.5,2.9-48.1-19.4c17.3-22.3,30.2-36.7,69-32.4
			c38.8,4.3,77.5,8.6,88.5,18.7C568,70.6,517.9,85,502.7,82.9z"/>
	</g>
	<g style="clip-path:url(#SVGID_00000154387055328316688630000005888537325102565771_);">
		<path class="st3" d="M-42.6,114.4c-0.8-0.1-55.3,18.2-55.3,46.5c0,28.3,50.9,39.6,77.6,32.4c26.7-7.2,64.9-3.6,84.4,9.7
			c19.5,13.2,48.1-30.8,105.2-18.8c57.2,12,81.9,0.6,115.1-17.6c33.2-18.3,54.8,14.3,84.2,8c29.4-6.2,45.5-51.1,4.2-65.8
			c-41.3-14.6-200.4-32-229.7-29.1C113.8,82.5-42.6,114.4-42.6,114.4z"/>
		<g>
			<path class="st4" d="M113.9,409.9c0,0,16.4-48.8,20-89.1c4-44.5-7.6-91.8,0.6-119.6c9.6-32.7-4-86.6-9.7-121.6
				c0,0,35.7,93.3,28,115.3c-7.2,20.7,0.3,83,7.3,121.6c7,38.6-7.7,69.4,0,93.4C160.1,409.9,125.7,421.5,113.9,409.9z"/>
			<g>
				<path class="st4" d="M143.9,257.3l-4.3-3.7c0.3-0.3,6.3-7.4,17.8-15.2c10.5-7.2,27.8-16.3,50.3-19.1c41-5.1,98-45.2,100.3-79.2
					l5.7,0.4c-1.1,17.2-14.8,37-37.4,54.3c-21.2,16.3-46.6,27.5-67.8,30.2C167.4,230.1,149.1,267.3,143.9,257.3z"/>
			</g>
			<g>
				<path class="st4" d="M150.4,171.9l-1.3-5.5c0.2-0.1,12.9-3.2,28.4-12.3c14.2-8.4,35.5-22.8,47.9-48.2l3.4,1.7
					c-13.1,26.7-33.6,42.8-48.6,51.5C164,168.7,151,171.8,150.4,171.9z M149.8,169.2l-0.7-2.8c0,0,0,0,0,0L149.8,169.2z"/>
			</g>
			<g>
				<path class="st4" d="M183.8,154.5c-8.7-7.7-12.7-20.6-15.1-36.4c-1.8-11.8,0-20.6,0-21l2.7,0.2c0,0.4-2.5,36.2,16.2,52.9
					L183.8,154.5z"/>
			</g>
			<g>
				<path class="st4" d="M207,140.7c-1.2,0-2.3,0-3.5-0.1l0.2-5.7c26.2,0.8,43.4-7.4,53.2-14.4c10.7-7.6,15.2-15.5,15.3-15.5
					l2.5,1.4c-0.2,0.4-3.3,10.1-14.8,18.4C249.7,132,233,140.7,207,140.7z"/>
			</g>
			<g>
				<path class="st4" d="M125.3,208.9c-69.5,0-133.3-63.6-158.7-86.3c-4.5-4-8.8-7.9-9.9-8.4c0,0,0.3,0.1,0.8,0.1v-5.7
					c2,0,3.8,1.5,12.9,9.7c25.8,23,99.6,83.9,169.3,79.7l-4,10.8C133.2,209,127.7,208.9,125.3,208.9z"/>
			</g>
			<g>
				<path class="st4" d="M-11.2,182c-17.5,0-31.3-4.2-41.6-7.3c-20-6.1-28.3-17.1-28.8-17.5l1.6-1.9c0.1,0.1,10.1,8.4,29.1,14.1
					c17.6,5.3,46.6,9.6,85.4-0.5l6.4,7.7C23.4,181.2,2.4,182-11.2,182z"/>
			</g>
			<g>
				<path class="st4" d="M65,183.3l-5.2-2.3c16.7-36.8-3.1-74.4-3.3-74.7l2.1-1.4c0.3,0.4,6.2,9.8,10,24.2
					C72.2,142.4,74.4,162.6,65,183.3z"/>
			</g>
			<g>
				<path class="st4" d="M66.1,140.7c-14.7,0-26.6-15.7-33.5-23.5c-1.7-1.9-4.1-5.8-4.8-4.9c0,0-1.3-1.4-0.8-1.4l1.7,0.3
					c1.8,1.5,3.1,1,7,5.4c6.5,7.4,19.1,19.3,31.8,18.3l0.4,5.6C67.3,140.7,66.7,140.7,66.1,140.7z"/>
			</g>
			<g>
				<path class="st4" d="M134.2,137.9c-22.8-3.2-35.6-13.8-42.4-22.2c-7.4-9.2-9.3-17.6-9.4-17.9l5.5-1.2c0,0.1,1.8,7.7,8.5,15.8
					c8.9,10.9,21.9,17.6,38.6,19.9L134.2,137.9z"/>
			</g>
			<g>
				<path class="st4" d="M171.3,124.8l-1.9-5.3c14-5.1,25.9-14,30.7-27.1c3.6-9.9,3.8-18.8,3.8-18.9l2.5-0.2c0,0.4,0.6,9.7-3.4,20.6
					C199.3,104.1,190.8,117.7,171.3,124.8z"/>
			</g>
			<g>
				<path class="st4" d="M282.6,197.8c-2.9,0-6.9-0.3-9.8-0.5l2-8.3c17.4,0.9,33.1-0.9,46.8-5.5c10.8-3.6,20.4-9,28.4-15.9
					c7.1-6.1,11.7-12.4,14.2-16.6c2.8-4.5,3.9-7.7,3.9-7.7l5.4,1.9c-0.2,0.6-4.9,13.8-19.5,26.5c-8.6,7.4-18.8,13.2-30.3,17.1
					C311.5,192.8,297.4,197.8,282.6,197.8z"/>
			</g>
		</g>
		<path class="st5" d="M-172.9,137.9c0,0,19.5,15.2,47.2,10.8c27.7-4.4,47.6-13.8,73.6-4.6c26,9.2,84.9,14.7,130.4-3.7
			s91.9-33.6,142-17.5c50.1,16.1,77,27.2,114.1,15c37.1-12.1,58,26.1,100.5,6.2c42.5-19.9,14.5-50-18.4-56.2
			c-32.9-6.2-83.9-46.3-143.3-37.1c-59.4,9.3-113.6-16.1-170.4-3.9C46.1,59.2,16.2,77.9-41.3,73.2
			C-98.8,68.6-216.3,103.7-172.9,137.9z"/>
	</g>
	<path style="clip-path:url(#SVGID_00000154387055328316688630000005888537325102565771_);fill:none;" d="M104,559.8
		c0,0-136.6-196.9-54.1-275.4c82.4-78.5,161-8.5,176.7-93.2c14.5-78.1,69.6-153.9,170-129.4c128.9,31.4,114.6,120.2,177.9,113.6
		c63.3-6.6,171.5-56.4,191.1,37.8c19.6,94.2-72.1,174.9-13.7,168.2c40.1-4.6,91.5-14.8,64.9,82.3c-16.9,61.8-41.5,96.1-41.5,96.1
		H104z"/>
	<path style="clip-path:url(#SVGID_00000154387055328316688630000005888537325102565771_);fill:none;" d="M104,559.8
		c0,0-136.6-196.9-54.1-275.4c82.4-78.5,161-8.5,176.7-93.2c14.5-78.1,69.6-153.9,170-129.4c128.9,31.4,114.6,120.2,177.9,113.6
		c63.3-6.6,171.5-56.4,191.1,37.8c19.6,94.2-72.1,174.9-13.7,168.2c40.1-4.6,91.5-14.8,64.9,82.3c-16.9,61.8-41.5,96.1-41.5,96.1
		H104z"/>
	<g style="clip-path:url(#SVGID_00000154387055328316688630000005888537325102565771_);">
		<g>
			<path d="M571.9,540c1.1,0.9,4.2,0.9,2.1,5.4c-0.9,2-24.1,5.6-29.7,5.5c-2.9,0-5.9-1-7.3-3c-0.8-1-0.4-2.5,0.8-3.1
				c3.3-1.5,10.4-3.6,11.2-3.8C549.9,540.9,571.9,540,571.9,540z"/>
		</g>
		<g>
			<path d="M563.8,535.1c1.1,0.9,2,3.7,0.5,5.3c-1.5,1.6-24.1,5.6-29.7,5.5c-2.6,0-6.4-0.7-7.3-3c-0.6-1.4,0.1-2.8,0.2-3
				c1.6-3.3,7.4-3.6,11.8-3.8C548.1,535.7,556,535.4,563.8,535.1z"/>
		</g>
		<g>
			<path class="st7" d="M167.5,484.5c-9.5,0.8-20.7,3.8-19.7,9.6c0.3,1.8,1.8,3.4,3.9,4.7c1.9,1.2,3.9,2.2,6.1,3.2
				c9.8,4.5,10.3,12.6,1.4,17.6c-4.7,2.6-9.8,5.7-9.8,9.4c0,4.4,7.5,7.8,15.2,9.3c15.7,2.9,32.9,0.3,49.5-0.3
				c28-1.1,55.4,3.7,83.2,5.7c6.9,0.5,15.4-2.8,27.3-1.2c10.8,1.5,14.9,4.6,27.9,7.1c10.5,2,18.5,2.1,25,2.2
				c14.5,0.2,36.2,0.2,58-11c4.5-2.3,19.6-10.1,18.4-15.4c-1.4-6.1-23.8-6.5-35.3-5.9c-10.5,0.6-38.9,3.6-50.1,3.4
				c-0.6,0-4.2-1-8.8-2c-11.1-2.4-7.5-11.5,4.5-11.2c4,0.1,7.9,0.2,11.8,0.3c39,0.9,78.4-2.8,114.7-10.8c7.4-1.6,16.1-4.7,13.7-9.2
				c-0.5-0.9-1.4-1.7-2.6-2.4c-8.5-5.1-21.6-6.3-33.8-7.2C435.5,477.9,368.3,467.2,167.5,484.5z"/>
			<g>
				<path class="st8" d="M541.9,417.8c0.8-1.1,1.6-2.2,2.5-3.3c0.4-0.5,0.8-1,0.9-1.6c0.1-0.4,0.1-0.9-0.1-1.2
					c-0.2-0.3-0.7-0.5-1.1-0.4c-0.4,0-0.8,0.2-1.1,0.4c-1.3,0.8-2.3,2.1-3.2,3.3L541.9,417.8z"/>
				<path class="st9" d="M237.3,492.4c-4.5,0.6-9.8,2.5-9.3,6c0.2,1.1,0.9,2.1,1.9,2.8c0.9,0.7,1.9,1.3,3,1.9
					c4.7,2.7,5,7.6,0.8,10.7c-2.2,1.6-4.6,3.5-4.6,5.8c0.1,2.7,3.7,4.7,7.3,5.6c7.5,1.7,15.7,0,23.6-0.5c13.3-0.8,26.5,1.9,39.8,2.9
					c13.6,1.1,28.9-0.1,38.2-7.3c0.4-0.3,0.7-0.6,0.9-0.9c1.5-2.5-2.2-4.1-5.3-5c-1.4-0.4-2.8-0.8-4.2-1.1c-5.3-1.4-3.7-7,2-6.9
					c1.9,0,3.8,0.1,5.6,0.1c18.6,0.3,37.4-2.3,54.6-7.4c3.5-1,7.6-3,6.4-5.7c-0.2-0.6-0.7-1.1-1.3-1.5c-4.1-3-10.4-3.7-16.2-4.2
					C365.1,486.4,333,480.4,237.3,492.4z"/>
				<path class="st10" d="M554.5,407.1c-1.6-1.4-3.2-2.6-5-3.8c-0.1-0.1-0.2-0.1-0.4-0.1c-0.1,0-0.2,0.2-0.3,0.3
					c-0.6,0.9-1.2,1.8-1.8,2.7c1.8,1.5,3.7,2.8,5.7,3.9c0.7-1,1.3-1.9,2-2.9L554.5,407.1z"/>
				<g>
					<path class="st11" d="M535.6,396.1c-15.9-11-32.1-21.4-48.8-31.1c-16-9.4-32.3-18.4-49.4-25.7c-16.4-7-33.5-12.4-51.3-14.3
						c-15.1-1.6-30.7-0.3-45.2,4.3c-14.1,4.4-27.3,12.1-37.2,23.1c-1.2,1.4-2.4,2.8-3.6,4.3c-0.4,0.5,0.3,1.2,0.7,0.7
						c9.1-11.8,21.8-20.4,35.7-25.5c14.1-5.2,29.3-7.2,44.3-6.3c17.8,1.1,35.2,6.1,51.6,12.8c16.8,6.9,32.9,15.5,48.6,24.6
						c16.4,9.4,32.5,19.5,48.1,30.1c2,1.3,3.9,2.7,5.9,4.1C535.7,397.3,536.1,396.4,535.6,396.1L535.6,396.1z"/>
				</g>
				<g>
					<path class="st11" d="M467.1,354.3c-1.3,1.6-2.5,3.3-3.8,4.9c-0.2,0.2-0.2,0.5,0,0.7c0.2,0.2,0.5,0.2,0.7,0
						c1.3-1.6,2.5-3.3,3.8-4.9c0.2-0.2,0.2-0.5,0-0.7C467.6,354.1,467.3,354.1,467.1,354.3L467.1,354.3z"/>
				</g>
				<g>
					<path class="st11" d="M463.5,359.4c0.6,1.5,0.1,3.3-1.1,4.3c-0.3,0.2-0.6,0.4-1,0.6c-0.3,0.1-0.8,0.3-1,0c-0.1-0.3-0.1-0.7,0-1
						c0.1-0.5,0.3-1,0.6-1.5c0.5-0.9,1.4-1.9,2.6-1.8c0.3,0,0.5-0.1,0.6-0.3c0.1-0.2-0.1-0.5-0.3-0.6c-1.4-0.2-2.6,0.6-3.4,1.7
						c-0.4,0.6-0.6,1.2-0.8,1.8c-0.2,0.5-0.3,1.1-0.2,1.7c0.1,0.5,0.5,1,1.1,1.1c0.6,0.1,1.3-0.2,1.8-0.4c0.9-0.5,1.6-1.3,2.1-2.3
						c0.5-1.1,0.6-2.4,0.1-3.5c-0.1-0.2-0.3-0.4-0.6-0.3C463.6,358.9,463.4,359.2,463.5,359.4L463.5,359.4z"/>
				</g>
				<g>
					<path class="st11" d="M374.6,324.8c-0.9,1.2-1.8,2.4-2.7,3.5c-0.2,0.2-0.2,0.5,0,0.7c0.2,0.2,0.5,0.2,0.7,0
						c0.9-1.2,1.8-2.4,2.7-3.5c0.2-0.2,0.2-0.5,0-0.7C375.1,324.6,374.7,324.6,374.6,324.8L374.6,324.8z"/>
				</g>
				<g>
					<path class="st11" d="M371.9,328.6c0.2,0.6,0.3,1,0.1,1.6c-0.1,0.5-0.4,1-0.9,1.4c0,0,0,0-0.1,0.1c-0.1,0-0.1,0.1-0.2,0.1
						c-0.2,0.1-0.2,0.1-0.4,0.2c-0.1,0-0.3,0.1-0.4,0.1c0,0-0.1,0-0.1,0c0,0,0,0-0.1,0c0,0.1,0-0.2,0-0.1c0-0.1,0-0.1,0-0.2
						c0,0,0-0.1,0-0.1c0,0.1,0,0,0,0c0-0.1,0-0.2,0.1-0.2c0.1-0.4,0.2-0.7,0.4-1c0.3-0.6,1-1.3,1.7-1.2c0.3,0,0.5-0.1,0.6-0.3
						c0.1-0.2-0.1-0.5-0.3-0.6c-1.1-0.2-2,0.4-2.6,1.3c-0.3,0.4-0.5,0.9-0.6,1.4c-0.1,0.4-0.2,0.8-0.1,1.3c0.1,0.4,0.4,0.8,0.9,0.9
						c0.5,0.1,1-0.1,1.4-0.3c0.7-0.4,1.2-1,1.5-1.7c0.4-0.8,0.4-1.8,0.1-2.6c-0.1-0.2-0.3-0.4-0.6-0.3
						C372,328.1,371.8,328.4,371.9,328.6L371.9,328.6z"/>
				</g>
				<g>
					<path class="st11" d="M518.8,385c-1.4,1.9-2.5,3.9-4,5.8c-0.2,0.2-0.2,0.5,0,0.7c0.2,0.2,0.5,0.2,0.7,0c1.4-1.9,2.5-3.9,4-5.8
						c0.2-0.2,0.2-0.5,0-0.7C519.3,384.8,518.9,384.8,518.8,385L518.8,385z"/>
				</g>
				<g>
					<path class="st11" d="M515,391c0.6,1.4,0.1,3.1-1.1,4.1c-0.3,0.2-0.6,0.4-0.9,0.5c-0.3,0.1-0.7,0.3-0.9,0c-0.1-0.3-0.1-0.7,0-1
						c0.1-0.5,0.3-1,0.5-1.4c0.5-0.9,1.3-1.8,2.4-1.6c0.3,0,0.5-0.1,0.6-0.3c0.1-0.2-0.1-0.5-0.3-0.6c-1.3-0.2-2.5,0.5-3.2,1.6
						c-0.4,0.5-0.6,1.1-0.8,1.7c-0.2,0.5-0.3,1.1-0.2,1.6c0.1,0.5,0.5,1,1,1c0.6,0.1,1.2-0.1,1.7-0.4c0.9-0.5,1.6-1.3,2-2.2
						c0.5-1.1,0.6-2.3,0.1-3.4c-0.1-0.2-0.3-0.4-0.6-0.3C515.1,390.5,514.9,390.8,515,391L515,391z"/>
				</g>
				<g>
					<g>
						<g>
							<g id="_x36__00000158740307593408281090000016924117434239756958_">
								<path class="st12" d="M632.1,541.4c-2.1,0-3.9-1.5-3.9-3.3v-89.9c0-1.8,1.7-3.3,3.9-3.3s3.9,1.5,3.9,3.3V538
									C636,539.9,634.2,541.4,632.1,541.4z"/>
								<path class="st13" d="M622.7,541.4c-2.1,0-3.9-1.5-3.9-3.3v-89.9c0-1.8,1.7-3.3,3.9-3.3s3.9,1.5,3.9,3.3V538
									C626.5,539.9,624.8,541.4,622.7,541.4z"/>
								<path class="st12" d="M586.7,541.3c-2.1,0-3.9-1.5-3.9-3.3v-89.8c0-1.8,1.7-3.3,3.9-3.3c2.1,0,3.9,1.5,3.9,3.3V538
									C590.6,539.8,588.9,541.3,586.7,541.3z"/>
								<path class="st13" d="M578,541.3c-2.1,0-3.9-1.5-3.9-3.3v-89.8c0-1.8,1.7-3.3,3.9-3.3c2.1,0,3.9,1.5,3.9,3.3V538
									C581.8,539.8,580.1,541.3,578,541.3z"/>
								<path class="st14" d="M559,447.1c0-2.1,1.5-3.9,3.3-3.9h81.1c1.8,0,3.3,1.7,3.3,3.9c0,2.1-1.5,18.7-3.3,18.7h-81.1
									C560.5,465.8,559,449.2,559,447.1z"/>
							</g>
						</g>
					</g>
				</g>
				<path class="st15" d="M549.8,417.1c-0.5,0.3-0.9,0.6-1.6,1.2c-1.9,1.5-2.8,3.9-3.5,6.2c-0.3,0.8-0.5,1.7-0.4,2.5
					c0.2,0.8,0.9,1.6,1.7,1.6c-0.1,1.2,1.3,2.3,2.4,1.9c0.2,0.9,0.8,1.6,1.6,1.9c0.4,0.1,0.7,0.2,1.1,0.3c0.5,0.2,0.8,0.5,1.3,0.7
					c1.4,0.7,3.3,0.1,4.1-1.2c0.8-1.3-2.5-0.1-1.5-4c2.6-0.6,4.9-4.1,3.8-6.5c-0.1-0.3-0.3-0.6-0.3-0.9c0-0.4,0.2-0.8,0.5-1.2
					c0.6-0.8,2.4-2.3,4.9-4.1c-0.7-0.4-1.4-0.8-2.1-1.2c-2-1.2-3.8-2.5-5.2-3.8C554,414.1,551.6,416,549.8,417.1z"/>
				<path class="st16" d="M552.4,422.8c-3,0.6-6.5,7.9,2.5,5.6c4.6-1.8,1.3-7.4,1.3-7.4S555.6,423.8,552.4,422.8z"/>
				<path class="st17" d="M551.6,413.2c-0.3,3.3,0.2,6.6,1.4,9.7c0.3,0.7,0.6,1.4,0.4,2.1c-0.1,0.4-0.3,0.8-0.6,1.1
					c-0.5,0.6-1.1,1.2-1.9,1.4c-0.6,0.1-1.3,0-1.8-0.2c-1.9-0.8-3.3-2.4-4.9-3.6c-0.1-0.1-0.3-0.2-0.4-0.2c-0.3,0-0.6,0.2-0.8,0.4
					c-0.8,0.4-1.7-0.1-2.4-0.7c-1-0.9-1.8-1.8-2.7-2.8c-0.4-0.3-0.8-0.6-1-1.1c-0.2-0.5-0.1-1.1,0.3-1.4c-0.6-0.4-0.8-1.4-0.3-2
					c0.5-0.6,1.5-0.6,2-0.1c0.4-0.9,1.5-1.5,2.5-1.2c0.8,0.3,1.3,1,2,1.5c0.7,0.5,1.5,0.8,2.2,1.2c0.7,0.4,1.4,1.2,1.3,2
					c0,0.1,0,0.3,0,0.4c0,0.4,0.4,0.7,0.8,0.7s0.8-0.1,1.1-0.4c1.1-0.9,1.2-2.5,1.1-4s-0.3-3,0.5-4.2c0.3,0.4,0.7,0.7,1.1,0.9
					L551.6,413.2z"/>
				<path class="st8" d="M549.8,421.6c0.6,0.3,0.8,1.2,0.4,1.8c-0.3,0.5-1.1,0.6-1.6,0.3c-0.5-0.3-0.7-1-0.5-1.5
					c0.3-0.5,1-0.8,1.5-0.5L549.8,421.6z"/>
				<path class="st18" d="M541.8,415.7c-0.8,1.5-2,2.8-3.4,3.8L541.8,415.7z"/>
				<path class="st18" d="M540,416.5c-0.4,0.4-0.9,0.8-1.4,1.1L540,416.5z"/>
				<path class="st15" d="M544.8,426.4c1.2-0.6,2.4-1.1,3.6-1.7c0.8-0.4,1.6-0.7,2.5-0.8c0.6,0,1.1,0.6,1,1.2
					c-0.1,0.3-0.2,0.6-0.4,0.9c-0.4,0.6-0.9,1-1.4,1.5c1.1-1.1,2.6-2.3,4.1-1.9c0.2,0,0.3,0.1,0.4,0.2c0.2,0.3,0,1-0.2,1.2
					c-0.6,0.7-1.2,1.1-1.8,1.8c0.5-1.1,1.6-1.8,2.8-1.9c0.4,0,0.8,0.1,0.9,0.4c0,0.2,0,0.7-0.1,0.9c-0.3,0.8-0.7,1.2-1.2,2
					c0.2-0.4,0.5-0.9,0.9-1.1c0.4-0.2,1.1-0.2,1.4,0.1c0.2,0.2,0.2,0.8,0.2,1.1c-0.3,1.1-1.4,2.5-2.4,3c-1,0.5-1.5,0.1-2.6-0.3
					c-1.1-0.3-2-1-2.9-1.6c-1-0.7-2.1-1.5-3-2.3L544.8,426.4z"/>
				<g>
					<path class="st8" d="M538.8,420.1c1.2-1.6,2.6-3,4.1-4.4c0.2-0.2,0.2-0.5,0-0.7c-0.2-0.2-0.5-0.2-0.7,0
						c-1.5,1.3-2.9,2.8-4.1,4.4c-0.2,0.2-0.2,0.5,0,0.7C538.3,420.3,538.6,420.3,538.8,420.1L538.8,420.1z"/>
				</g>
				<g>
					<path class="st8" d="M540,421.2c1.4-1.3,2.7-2.6,3.9-4.1c0.2-0.2,0.2-0.5,0-0.7c-0.2-0.2-0.5-0.2-0.7,0
						c-1.2,1.5-2.5,2.8-3.9,4.1c-0.2,0.2-0.2,0.5,0,0.7C539.4,421.4,539.8,421.4,540,421.2L540,421.2z"/>
				</g>
				<g>
					<path class="st8" d="M541,422.4c1.3-1.5,2.7-2.9,4.2-4.2c0.2-0.2,0.2-0.5,0-0.7c-0.2-0.2-0.5-0.2-0.7,0
						c-1.5,1.3-2.9,2.7-4.2,4.2c-0.2,0.2-0.2,0.5,0,0.7C540.5,422.6,540.8,422.6,541,422.4L541,422.4z"/>
				</g>
				<g>
					<path class="st8" d="M541.9,423.3c1.6-1.2,3-2.6,4.1-4.3c0.2-0.2,0-0.6-0.2-0.7c-0.3-0.1-0.5,0-0.7,0.2c-1,1.5-2.3,2.8-3.7,3.9
						c-0.2,0.2-0.3,0.4-0.2,0.7C541.4,423.3,541.7,423.5,541.9,423.3L541.9,423.3z"/>
				</g>
				<g>
					<path class="st8" d="M543.4,415.9c-0.3-5.6-3.3-10.6-7.5-14.2c-4.7-4.1-10.7-6.3-16.7-8c-11.9-3.5-23.9-6.7-34.9-12.7
						c-5.4-2.9-10.5-6.4-15-10.6c-4.5-4.2-7.8-9.6-12.3-13.8c-4.6-4.3-10.5-6.4-16.5-8c-7.1-2-14.3-3.9-21.5-5.8
						c-7.2-1.9-14.3-3.9-21.5-5.8c-7.3-2-14.5-4.1-21.8-5.9c-1.4-0.3-2.8-0.5-4.2-0.3c-1.8,0.3-3.5,1-5.2,1.6
						c-3.6,1.3-7.1,2.6-10.7,3.9c-7,2.5-13.9,5.1-20.9,7.6c-7.1,2.6-14.2,5.2-21.4,7.8c-3.3,1.2-6.8,2.3-10.1,3.7
						c-2.3,1-4.5,2.3-5.2,4.8c-0.9,2.9,0.3,6.1,0.9,8.9c0.7,3.4,1.4,6.9,2,10.3c1.3,7.2,2.4,14.4,3,21.7c1.2,14.1,0.7,28.4-3,42.1
						c-3.3,11.9-8.8,25.7-3.5,37.9c1,2.4,2.4,4.5,4.2,6.3c0.5,0.5,1.2-0.3,0.7-0.7c-9.4-9.3-6.2-24.7-2.7-35.8
						c2-6.5,3.8-12.9,4.8-19.6c0.9-6.6,1.3-13.3,1.1-19.9c-0.3-13.7-2.5-27.2-5.2-40.6c-0.3-1.6-0.7-3.2-1-4.8
						c-0.4-1.8-0.8-3.7-0.2-5.5c0.9-3.1,4.5-4.1,7.2-5.1c6.8-2.5,13.6-5,20.4-7.4c13.6-5,27.3-9.9,40.9-14.9c1.6-0.6,3.3-1.3,5-1.3
						c1.8,0,3.5,0.5,5.2,1c3.6,1,7.2,1.9,10.7,2.9c7.1,1.9,14.2,3.8,21.2,5.7c7,1.9,14,3.8,21,5.7c6.3,1.7,12.9,3,18.9,5.9
						c2.8,1.4,5.4,3.1,7.6,5.4c2.2,2.2,4,4.7,5.9,7c3.7,4.5,8,8.4,12.7,11.8c9.6,6.7,20.7,11.1,31.8,14.4c11.3,3.4,25.3,5.4,32,16.3
						c1.5,2.5,2.5,5.2,2.6,8.1C542.4,416.5,543.4,416.5,543.4,415.9L543.4,415.9z"/>
				</g>
				<path class="st19" d="M548.3,401.4c0.7,0.4,1.1,1.2,0.9,2c-0.2,0.7-0.5,1.3-1,1.8c-0.8,0.8-2.2,1.2-3.3,0.9
					c-0.7-0.2-1.3-0.7-1.9-1.2c-1-0.8-1.9-1.6-2.9-2.3c-1-0.8-2.1-1.7-3.1-2.5c-0.9-0.7-1.8-1.5-2.1-2.7c0-0.1,0-0.1,0-0.2
					c-0.1-1.4,1.4-2.3,2.6-1.7L548.3,401.4z"/>
				<g>
					<path class="st20" d="M536.3,398.8c0.8-0.5,1.4-1.3,1.6-2.2c0-0.1,0-0.3-0.1-0.4c-0.1-0.1-0.2-0.2-0.3-0.2
						c-0.2-0.1-0.6,0.1-0.6,0.4c0,0.1,0,0.2-0.1,0.3c0,0.1,0,0.1,0,0.2c0,0,0,0,0,0.1c0,0,0,0.1,0,0c0-0.1,0,0,0,0c0,0,0,0,0,0.1
						c0,0,0,0.1-0.1,0.1c0,0.1-0.1,0.2-0.2,0.3c0,0,0,0,0,0.1c0,0,0.1-0.1,0,0c0,0-0.1,0.1-0.1,0.1c-0.1,0.1-0.1,0.1-0.2,0.2
						c0,0-0.1,0.1-0.1,0.1c0.1-0.1,0,0,0,0c-0.1,0.1-0.2,0.1-0.3,0.2c-0.2,0.1-0.3,0.5-0.2,0.7C535.8,398.9,536.1,398.9,536.3,398.8
						L536.3,398.8z"/>
				</g>
				<g>
					<path class="st20" d="M537.6,399.2c1.7,1.7,3.5,3.2,5.4,4.6c0.2,0.2,0.6,0,0.7-0.2c0.1-0.3,0-0.5-0.2-0.7
						c-1.8-1.3-3.6-2.8-5.2-4.5C537.8,398,537.1,398.7,537.6,399.2L537.6,399.2z"/>
				</g>
				<g>
					<path class="st20" d="M540.8,399.7c1.1,0.7,2.2,1.5,3.3,2.2c0.2,0.2,0.6,0,0.7-0.2c0.1-0.3,0-0.5-0.2-0.7
						c-1.1-0.7-2.2-1.5-3.3-2.2c-0.2-0.2-0.6,0-0.7,0.2C540.4,399.3,540.5,399.5,540.8,399.7L540.8,399.7z"/>
				</g>
				<g>
					<path class="st8" d="M300.2,501c-1.2-0.3-2.8-0.5-3.4,0.9c-0.6,1.3,0.8,2.1,1.8,2.5c2.5,1.1,5.1,1.8,7.8,2
						c2.7,0.2,5.5-0.1,8.1-0.8c1.2-0.3,2.5-0.7,3.4-1.5c0.8-0.7,1.1-1.9,0.4-2.8c-0.9-1-2.4-1-3.6-1.1c-1.8-0.2-3.5-0.4-5.3-0.5
						c-0.6-0.1-0.6,0.9,0,1c1.3,0.1,2.6,0.3,3.9,0.4c1.1,0.1,2.3,0.1,3.4,0.4c0.8,0.2,1.4,0.8,0.8,1.6c-0.6,0.8-1.7,1.1-2.6,1.3
						c-4.3,1.3-9,1.3-13.3,0c-1.2-0.4-2.4-0.8-3.5-1.4c-0.5-0.3-0.6-0.7-0.1-1.1c0.5-0.4,1.3-0.1,1.9,0
						C300.6,502.1,300.9,501.2,300.2,501L300.2,501z"/>
				</g>
				<g>
					<path class="st8" d="M308.9,497.8c3.2-0.3,6.5-0.2,9.7,0.5c2.5,0.5,5.2,1.7,6.2,4.2c0.5,1.3,0.5,2.7-0.3,3.8
						c-0.4,0.5,0.5,1,0.9,0.5c1.6-2.3,0.6-5.5-1.4-7.2c-2.4-2.1-5.8-2.6-8.8-2.8c-2.1-0.2-4.1-0.2-6.2,0
						C308.3,496.9,308.3,497.9,308.9,497.8L308.9,497.8z"/>
				</g>
				<g>
					<path class="st8" d="M293.2,507.9c3.9,2.5,8.7,3.2,13.2,2.2c0.6-0.1,0.3-1.1-0.3-1c-4.2,1-8.7,0.2-12.4-2.1
						C293.1,506.6,292.6,507.5,293.2,507.9L293.2,507.9z"/>
				</g>
				<g>
					<path class="st8" d="M284.9,509.9c3.6,2.5,7.7,4,12.1,4.3c0.6,0.1,0.6-1,0-1c-4.1-0.3-8.1-1.8-11.5-4.2
						C284.9,508.6,284.4,509.5,284.9,509.9L284.9,509.9z"/>
				</g>
				<g>
					<path class="st8" d="M351.4,497.9c4.9,1.5,10.1,1.7,15.1,0.6c1.4-0.3,2.8-0.7,4.2-1.2c0.6-0.2,0.3-1.2-0.3-1
						c-6,2.3-12.6,2.5-18.7,0.6C351,496.7,350.8,497.7,351.4,497.9L351.4,497.9z"/>
				</g>
				<g>
					<path class="st8" d="M365.2,493.2c3.9-0.9,7.8-1.7,11.7-2.6c0.6-0.1,0.3-1.1-0.3-1c-3.9,0.9-7.8,1.7-11.7,2.6
						C364.2,492.4,364.5,493.4,365.2,493.2L365.2,493.2z"/>
				</g>
				<g>
					<path class="st8" d="M246.5,516.1c-0.7-0.5-1.5,0-1.9,0.7c-0.4,0.7-0.4,1.6-0.1,2.3c0.5,1.6,1.7,2.8,3.2,3.4
						c0.9,0.3,1.8,0.4,2.7,0.2c0.3,0,0.4-0.4,0.3-0.6c-0.1-0.3-0.4-0.4-0.6-0.3c-1.5,0.3-3.1-0.5-4-1.6c-0.5-0.6-0.8-1.3-0.8-2
						c0-0.3,0.1-0.7,0.3-1c0.1-0.1,0.2-0.2,0.3-0.2c0.1,0,0.1,0,0.2,0C246.5,517.3,247,516.4,246.5,516.1L246.5,516.1z"/>
				</g>
				<g>
					<path class="st8" d="M246.6,503.7c1.8,1.5,2.2,4.1,1.1,6.1c-0.3,0.6,0.6,1.1,0.9,0.5c1.4-2.4,0.8-5.6-1.3-7.4
						C246.8,502.5,246.1,503.3,246.6,503.7L246.6,503.7z"/>
				</g>
				<g>
					<path class="st8" d="M250.6,502c1.4,1.3,2.3,3.1,2.3,5c0,0.6,1,0.6,1,0c0-2.2-0.9-4.3-2.6-5.7
						C250.8,500.8,250.1,501.6,250.6,502L250.6,502z"/>
				</g>
			</g>
			<g>
				<path class="st8" d="M306.8,503.2C306.8,503.2,306.8,503.2,306.8,503.2c-0.3,0-0.6-0.3-0.5-0.6c0.3-3.3,0.1-8.1-2.7-12.6
					c-0.6-0.9-1.3-1.9-2-2.7c-0.2-0.2-0.2-0.5,0-0.7c0.2-0.2,0.6-0.2,0.7,0c0.8,0.9,1.5,1.8,2.1,2.8c2.9,4.8,3.2,9.9,2.8,13.3
					C307.3,503,307.1,503.2,306.8,503.2z"/>
			</g>
		</g>
		<g>
			<g>
				<g>
					<g>
						<g>
							<g>
								<path class="st15" d="M582.5,380.8c-0.6,2.2-1.1,4.4-1.7,6.6c-3.7,5-7.9,10.3-12.8,15.7c-3.8,4.2-7.6,8.1-11.3,11.5
									c-0.1,1,0,2.7,0.8,4.6c0.3,0.7,0.7,1.2,1,1.7c7.3-3.3,12.8-7,16.7-9.9c4.4-3.3,9-7.1,13.9-13.2c2.5-3.1,5.6-7.9,7.8-15.1
									C592.1,382.1,587.3,381.5,582.5,380.8z"/>
								<g>
									<path class="st21" d="M580.9,379.9c4.9,0.9,9.9,1.8,14.8,2.7c2.9-9.5,5.7-18.9,8.6-28.4c0.4-5.4-2.5-9.9-6.5-11.1
										c-3.2-0.9-6.1,0.6-6.9,1.1c-2.4,7.9-4.7,16-7,24.3C582.9,372.3,581.9,376.2,580.9,379.9z"/>
									<path class="st22" d="M581.2,374.6c2.5,0.8,5.2,1.5,7.9,2.2c4.7,1.2,9.2,2.2,13.4,3c-1,1.8-1.9,3.6-2.9,5.4
										c-3.4-0.2-7.5-0.8-11.9-1.9c-3.2-0.8-6.1-1.8-8.5-2.8C579.8,378.6,580.5,376.6,581.2,374.6z"/>
								</g>
								<path class="st23" d="M598.4,348c-0.1,10.3,9.5,18.3,19,18.4c9.8,0.1,19.5-8.3,19.2-18.2c-0.3-9.2-9.1-14.6-9.8-15
									c-1.6-1-6.8-3.9-13.1-2.8C606,331.9,598.5,339,598.4,348z"/>
								<path class="st21" d="M645.1,469.6c-2.1-9.3-3.9-19.9-5-31.7c-1.4-15.6-1.2-29.5-0.2-41.3c1.4-9.9,2.9-17.8,4-23.3
									c1.3-6.8,4.2-20.6,0.7-29.1c-0.4-1.1-1.1-2.7-2.7-4.3c-1.6-1.7-3.3-2.4-9.6-5c-1.1-0.5-2.9-1.2-5.2-2.1
									c-0.5-0.3-1-0.5-1.5-0.9c-0.8-0.5-1.5-1-2.2-1.5c-0.1,0.6-0.3,1.5-0.6,2.4c0,0-0.9,2.8-2.8,5.3c-3.4,4.3-9,5.9-9.9,6.1
									c-0.8,2.1-1.5,4.6-2.2,7.3c-0.3,1.5-0.6,3-0.8,4.4c-0.2-3.7-0.4-7.4-0.5-11.1c-0.6-0.6-1.4-1.6-1.9-3
									c-1.4-3.8,0.4-7.2,0.8-7.9c-2.5,1.2-5.5,2.9-8.6,5.2c-2.3,1.7-4.2,3.4-5.8,5c-1,12.5-1.7,25.6-2.1,39.2
									c-0.4,12.1-0.5,23.9-0.4,35.3c2.9,3.4,5.8,7.2,8.7,11.4c8,11.5,13.3,22.7,17,32.4C624.5,464.7,634.8,467.1,645.1,469.6z"/>
								<path class="st14" d="M559,447.1c0-2.1,1.5-3.9,3.3-3.9h81.1c1.8,0,3.3,1.7,3.3,3.9c0,2.1-1.5,18.7-3.3,18.7h-81.1
									C560.5,465.8,559,449.2,559,447.1z"/>
								<g>
									<g>
										<g>
											<path class="st24" d="M562.8,533.2c1.1,2.6,0.9,4.2,0.5,5.2c-0.5,1.4-2.1,4-25.8,5.8c-1.8,0.1-3.6-0.1-5.3-0.8
												c-1-0.4-2-0.8-2.4-1.7c-0.3-0.6-0.1-1.2-0.1-1.4c0.2-0.7,0.7-1.3,1.4-1.6c0.4-0.2,0.8-0.4,1.1-0.6
												c0.2-0.1,0.4-0.2,0.6-0.3c1.7-0.9,3.3-1.7,5-2.6c1.8-1,3.7-2.1,5.4-3.3c2-1.5,3.3-2.5,4.2-4.2c1.4-2.5,1.1-5.2,1-6.4
												c-1.3-13.6-1.8-27.3-2.9-40.9c-0.3-3.8-0.6-9.3-0.5-16.2c5.6,0.3,11.2,0.7,16.7,1c0.5,1.8,1.2,4.4,1.7,7.6
												c1.5,8.7,1.4,16.1,1,21c-0.7,9.2-3.1,18.9-3.7,27.1c-0.2,2.7-0.1,4.5,0.3,6.6C561.5,530.1,562.2,532,562.8,533.2z"/>
											<path d="M538.8,545.2c-1.1-3.9-3.7-6.8-6.7-7.2c-0.6-0.1-1.5-0.1-2.5,0.2c0.6-0.4,1.3-0.8,2.1-1.2
												c1.7-0.8,3.3-1.2,4.5-1.4c1-0.3,2.4-0.5,3.9-0.1c3.2,0.8,5.7,4,6.5,8C544,544,541.4,544.6,538.8,545.2z"/>
										</g>
										<g>
											<path class="st23" d="M571.2,537.9c1.1,2.6,0.9,4.2,0.5,5.2c-0.5,1.4-2.1,4-25.8,5.8c-1.8,0.1-3.6-0.1-5.3-0.8
												c-1-0.4-2-0.8-2.4-1.7c-0.3-0.6-0.1-1.2-0.1-1.4c0.2-0.7,0.7-1.3,1.4-1.6c0.4-0.2,0.8-0.4,1.1-0.6
												c0.2-0.1,0.4-0.2,0.6-0.3c1.7-0.9,3.3-1.7,5-2.6c1.8-1,3.7-2.1,5.4-3.3c2-1.5,3.3-2.5,4.2-4.2c1.4-2.5,1.1-5.2,1-6.4
												c-0.6-6.6-0.5-10-1-12.3c-0.6-2.9-0.8-11.3-1.1-28.1c-0.1-4.2-0.2-9.9-0.2-16.7c5.8,0.8,11.6,1.5,17.4,2.3
												c0.3,1.6,0.6,3.9,0.9,6.6c1,9.7,0.4,17.4,0.1,20.7c-0.8,8.4-3.4,22.8-3.7,27.1c-0.2,2.7-0.1,4.5,0.3,6.6
												C569.9,534.8,570.7,536.7,571.2,537.9z"/>
											<path d="M547.3,550c-1-4.7-4.1-7.4-6.6-7c-0.3,0-1.7,0.3-3,2.3c0.4-0.8,1.3-2,2.8-3.1c1.9-1.4,3.9-1.7,4.8-1.8
												c1.4-0.5,2.6-0.4,3.3-0.2c3.1,0.6,5.7,3.8,6.5,8C552.4,548.8,549.8,549.4,547.3,550z"/>
										</g>
										<path class="st25" d="M546.9,442.4c-1.5,3-3.8,8.5-4.1,21.7c-0.2,11.6-0.3,17.5,3.5,20.8c2.2,1.9,4.8,2.5,6.8,2.7
											c0.5-5.4,1-10.8,1.6-16.2c-0.1,6-0.2,12-0.3,18c5.2,0.9,12.8,1.3,19-3c8.5-5.9,7.8-16.1,12.6-24.5
											c4.9-8.5,16.5-17.1,45.8-18.7c0.2-0.4,0.6-1,1-1.8c1-2.3,1.2-4.3,1.4-7.5c0.2-4.7,0.2-6,0.2-6c0.2-5.1,0-9.8-0.3-14
											c-2.5,0.2-20.1,1.5-33.3,3.9c-8.5,1.6-11.5,3-13.3,3.8c-4.5,2-6,3.8-15,6c-9,2.2-17.7,3.3-23.2,10.7
											C548.2,439.8,547.6,441,546.9,442.4z"/>
										<g>
											<g>
												<path class="st26" d="M555.6,464.9c1.9,3.7,4.1,6.8,6.9,9.8C558.1,473.8,554.9,469.2,555.6,464.9L555.6,464.9z"/>
											</g>
											<g>
												<path class="st26" d="M555.6,464.9c-0.4,6.2,1.1,12.1,4.7,17.2C554.6,478.7,552.5,470.6,555.6,464.9L555.6,464.9z"/>
											</g>
											<g>
												<path class="st26" d="M557.4,458.4c2,3.7,2.9,7.8,6.2,10.6C558.9,468.5,556.8,462.6,557.4,458.4L557.4,458.4z"/>
											</g>
										</g>
										<g>
											<g>
												<path class="st26" d="M554.4,462.4c0.1,3.8-4.1,8.4-8,6.3C550.2,467.9,551.9,465,554.4,462.4L554.4,462.4z"/>
											</g>
											<g>
												<path class="st26" d="M554.1,456.8c0.2,3.8-3.4,7.7-7.3,7.2C549.8,462,551.9,459.5,554.1,456.8L554.1,456.8z"/>
											</g>
											<g>
												<path class="st26" d="M554.2,466.3c0,2-0.8,3.9-2,5.5c-1.2,1.6-2.8,2.9-4.7,3.5c0.5-0.9,1.1-1.7,1.6-2.4
													C550.7,470.8,552.4,468.3,554.2,466.3L554.2,466.3z"/>
											</g>
										</g>
										<path class="st27" d="M581.4,438c-2.6,0.7-13.2,3.6-19.6,14c-3.5,5.7-4.4,11.2-4.6,14.4c-0.1,0.5-0.5,2.7-2.1,3.6
											c-1.3,0.7-2.5-1.2-2.9-4.9c-0.5-3.1-0.9-8.4,1.1-14.5c3.6-11.1,12.4-16.5,14.9-17.9C572.7,434.4,577,436.2,581.4,438z"/>
									</g>
									<path class="st21" d="M585.7,412c-4.1,6.7-13,9.3-22.3,14.4c-4.2,2.3-10,6-16.4,11.8c10,3.5,20.1,7,30.1,10.5
										c3.9-3.4,10.4-8,19.2-10.9c15.9-5.2,26.3-0.2,33.6-7.1c3.3-3.2,6.7-9.1,5.9-21.3c-15.6-3.8-31.1-7.6-46.7-11.4
										c0.1,1.5,0.1,3.5-0.3,5.9C588.9,403.8,588.1,408.1,585.7,412z"/>
								</g>
								<g>
									<path class="st22" d="M606.5,344.7c1.3,10.7,1.4,21.6,0,32.3c0,0,0,0.3,0,0.3l-0.3,0c-1.5-0.2-3-0.4-4.6-0.7
										c1.5,0,3.1,0.1,4.6,0.2l-0.3,0.2c0.2-2.7,0.2-5.4,0.3-8C606.7,360.8,606.4,352.8,606.5,344.7L606.5,344.7z"/>
								</g>
								<path class="st22" d="M603.7,371.3c-0.1,0.3-0.2,0.6-0.1,0.9c0.2,0.4,0.6,0.6,0.9,0.5c0.3-0.1,0.5-0.4,0.5-0.8
									c0-0.4-0.2-0.8-0.6-1C604.2,370.8,603.9,370.9,603.7,371.3z"/>
								<path class="st22" d="M603.8,363c-0.1,0.3-0.2,0.6-0.1,0.9c0.2,0.4,0.6,0.6,0.9,0.5c0.3-0.1,0.5-0.4,0.5-0.8
									c0-0.4-0.2-0.8-0.6-1C604.4,362.5,604,362.6,603.8,363z"/>
								<path class="st22" d="M604.1,354.4c-0.1,0.3-0.2,0.6-0.1,0.9c0.2,0.4,0.6,0.6,0.9,0.5c0.3-0.1,0.5-0.4,0.5-0.8
									c0-0.4-0.2-0.8-0.6-1C604.7,353.9,604.3,354,604.1,354.4z"/>
								<path class="st28" d="M594.6,340.3c0.4-3.1,2.3-3.2,2.9-2.9c0.7-1.5,1.7-2.1,2.7-1.4c0.3-1.1,2-1.7,2.4-1.2
									c-0.4,5-2.3,53.7,1.1,71.9c0.1,1.6-8.3,6.3-11.1,3C592.4,407.4,591.7,354.1,594.6,340.3z"/>
								<path class="st23" d="M613.5,377c-1.7,4.1-3.4,8.1-5,12.2c-5.1,2.1-10.5,4.2-16,6.3c-9.1,3.4-17.8,6.3-26.2,8.8
									c-0.2,0.9-0.6,2.9,0,5.2c0.5,1.9,1.4,3.2,2,3.9c11.6-2.1,21-3.8,29.6-5.3c4.8-0.8,10.4-2.2,17.4-4.9
									c3.3-1.3,5.9-2.5,7.8-3.5c2.6-4.1,5.2-8.3,7.7-12.4C625.1,383.9,619.3,380.5,613.5,377z"/>
								<path class="st29" d="M633.4,387.9c-3.4-0.5-7.4-1.4-11.9-3c-3.9-1.4-7.2-2.9-9.9-4.4c3.7-9.1,7.3-18.2,11-27.4
									c3.5-3.2,7.6-6.5,12.5-9.6c1.9-1.2,3.8-2.3,5.6-3.3c1.7,1.7,4.1,4.7,4.9,9c0.6,3,0.1,5.5-0.2,7.3
									C643,367.1,634.4,385.8,633.4,387.9z"/>
								<path class="st22" d="M634.6,384.7c-2.9-0.3-6.2-0.9-9.9-2c-5.5-1.6-9.9-3.8-13.2-5.8c-0.7,2.3-1.4,4.6-2.2,6.9
									c2.7,2,6.3,4.3,11.1,6.2c4.2,1.6,8,2.4,11.1,2.8C632.5,390.1,633.6,387.4,634.6,384.7z"/>
								<path class="st22" d="M606.5,344.7c-0.6-0.7-1.7-2.3-2.2-4.6c-0.6-3.2,0.7-5.6,1-6.4c-0.4,0.3-1.1,0.5-1.5,0.8
									c-0.6,0.2-0.9,2.2-1,2.9c-0.5,2.1-0.2,2.7-0.1,8.2c0,1.6,0,2.8,0.4,2.9c0.2,0,0.4-0.8,1.3-1.8c0.4-0.4,0.5-0.6,0.8-0.8
									c0.5-0.3,0.9-0.5,1.1-0.9C606.5,345,606.5,344.8,606.5,344.7z"/>
								<g>
									<path class="st23" d="M605.1,338.5c5.8,4.5,19.7-7.2,19.1-7.5c-3.6-2.3-3.7-8.6-3.2-14.1c0.2-2.1,0.4-4.2,0.6-5.8
										c-3.5-1.1-12.8-0.4-16.2,6.8c-1.3,2.7-1.8,6.3-0.8,11.1c0.4,0.8,0.7,1.7,0.8,2.5c0,0,0,0,0,0.1
										C605.9,334.9,604.6,337.8,605.1,338.5z"/>
									<path class="st30" d="M604.5,329c0.4,0.8,0.7,1.7,0.8,2.5c0,0,0,0,0,0.1c0.6-0.2,1.4-0.5,2.3-0.8c0.7-0.3,1.9-0.8,3.1-1.6
										c1.7-1,3.1-1.9,4.2-3.6c0.5-0.8,0.7-1.4,1-2.6c0.4-1.3,0.8-3.3,0.9-5.8c-3.6-2.4-8.1-2.4-10.8,0c-0.3,0.3-0.6,0.5-0.8,0.8
										C604,320.6,603.6,324.2,604.5,329z"/>
									<path class="st23" d="M593.6,308.1c0,0.1,0,0.1,0,0.2c0.1,0.4,0.2,0.8,0.4,1.1c0,0,0.1,0.3,0.6,1.3
										c0.3,0.6,0.6,3.5,0.9,7.6c0,0.7,0.2,1.7,0.5,3c0.4,1.6,1,4.2,3,6.6c0.5,0.6,1.2,1.4,2.1,2.2c0.4,0.3,0.9,0.5,1.4,0.4
										c0.4-0.1,1-0.1,1.5-0.3c0.1,0,0.3-0.1,0.5-0.2c1.5-0.4,3.1-0.9,4.9-1.7c1.1-0.5,2.4-1,3.3-1.5c2-1.1,3.4-3.2,3.8-5.6
										c0.3-1.5,0.3-2.9,0.6-4.4c0.1-0.9,0.2-1.8,0.3-2.7c0-0.1,0.1-0.1,0.1-0.1c0.2-0.1,0.2-0.1,0.5-0.1c2.6-0.6,4.1-4.2,4.5-5.2
										c1.7-4.1,2.1-12.6-3.4-17.2c-3.5-2.9-7.6-2.7-9.9-2.7c-3.3,0-16.8,2.8-15.6,14.8c0.1,1,0.1,1.9,0,2.9c0,0.1,0,0.3,0,0.4
										c0,0.1,0,0.1,0,0.2C593.5,307.5,593.5,307.8,593.6,308.1z"/>
									<path d="M617.8,308.4c-0.9,0.8-0.4,1.8-0.5,2.1c-0.3,0.3-1.2,0.6-1.4,0.8c0-0.9-0.1-1.8-0.1-2.6c-0.1-1.1-0.5-1.8-0.8-2.2
										c-0.4-0.6-0.8-0.7-1.6-1.5c0,0-0.7-0.6-1.3-1.4c-1.7-2.1-2.4-4.4-2.6-5.3c-0.1-0.5-0.2-0.9-0.3-1.2c-0.6,0-1.5,0-2.5,0.2
										c-1.6,0.2-2.7,0.5-3.1,0.6c-2.3,0.5-6.8-0.7-8.8,0.7c-0.7,0.6-1.4,1.8-1.2,4.6c-1.7-4.2-1-7-0.6-8.2
										c2.5-7.7,14.6-11.5,22.1-7.6c2.1,1.1,3.6,2.6,4.4,3.7c2.1,0.5,3.3,1.4,4,2.1c3.1,3,2.9,8.2,2.8,12.9c0,0.7-0.1,1.4-0.1,1.4
										c-0.2,1.4-0.5,2.4-0.6,2.7c-0.8,2.5-1.8,9.6-2.7,12.1c-0.1,0.3-0.3,0.8-0.8,1.1c-0.4,0.2-0.7,0.2-1,0.2
										c-0.5-3.7-0.3-6.3-0.1-8c0,0,0,0,0-0.1c0.1-0.5,0.3-2.3,0.4-3.9c0.1-2,0.2-3.1-0.2-3.4
										C620.3,307.4,618.8,307.6,617.8,308.4z"/>
									<path id="XMLID_00000028296350857750853060000002802779357638856873_" class="st28" d="M627.2,301.1
										c-19.6-9.6-30.3-8.3-34-7.8c-0.6,0.2-1.5,1.3-1.3,3.4c-0.8,1.2-1.1,2.9-0.1,3.7c0,0,0,0.1,0,0.1c-0.1,0.5,0.3,0.9,0.9,1
										c4,0.3,13.6-3,32.1,7.2c0.4,0.3,1,0.2,1.3-0.2c0.3-0.4,0.6-1.1,0.6-2.1c1.1-0.6,1.1-2.6,0.8-3.2
										C627.5,302.2,627.5,301.3,627.2,301.1z"/>
									<path class="st23" d="M617.2,308.7c0.2-3.2,1.6-4,1.6-4c1.1-0.5,2.5,0,3.3,1c0.6,0.8,0.6,1.7,0.6,2.4
										c0,1.2-0.5,2.1-1.1,3.3c-0.5,0.9-0.7,1.3-1.2,1.8c-0.9,0.8-2,1-2.5,1.1c-0.1,0-0.2-0.1-0.3-0.2c-0.6-0.6-0.3-1.6-0.3-4.5
										C617.2,309.4,617.2,309.1,617.2,308.7z"/>
								</g>
								<path class="st31" d="M605.7,322c0.1,0.4-1.7,1.9-3.9,1.9c-1,0-2.2-0.3-2.2-0.6c0-0.3,1-0.5,2.2-0.8
									C603.7,322,605.5,321.6,605.7,322z"/>
								<g>
									<path class="st25" d="M598.6,310.7c-0.9-1.7-2.4-2.2-3.1-1.7c-0.5,0.3-0.7,1.2-0.5,2.1c0.3,0.6,0.6,0.8,0.8,0.9
										C596.6,312.3,597.8,311.8,598.6,310.7z"/>
									
										<ellipse transform="matrix(0.986 -0.1668 0.1668 0.986 -43.4452 103.806)" class="st32" cx="596.3" cy="310.5" rx="1" ry="1.5"/>
									<ellipse transform="matrix(0.986 -0.1668 0.1668 0.986 -43.4548 103.7696)" cx="596" cy="310.6" rx="0.5" ry="0.8"/>
									
										<ellipse transform="matrix(0.9855 -0.1694 0.1694 0.9855 -43.9413 105.5513)" class="st25" cx="596.6" cy="310.3" rx="0.1" ry="0.2"/>
									<path class="st33" d="M594.9,311c-0.1-0.8,0.2-1.5,0.7-1.8c0.8-0.5,1.8,0.2,2,0.4c0.5,0.3,0.8,0.8,0.9,1.1
										c-0.1-0.3-0.4-0.9-0.9-1.4c-0.1-0.1-1.4-1.1-2.3-0.4C594.8,309.3,594.6,310.2,594.9,311z"/>
								</g>
								<path class="st31" d="M599.9,318.6c-0.1,0.1,0.5,0.8,1.3,1c1.3,0.3,2.5-1.1,2.4-1.2c-0.1-0.1-0.9,0.7-2.2,0.6
									C600.6,318.9,600,318.5,599.9,318.6z"/>
								<g>
									<path d="M610.2,306.4c-0.4-0.5-1-1-1.8-1.4c0,0,0,0,0,0c-0.4-0.2-1-0.3-1.5-0.2c-1.2,0.2-2.4,0.4-3.7,0.6
										c-0.1,0.1-0.2,0.3-0.3,0.6c0,0.2,0,0.4,0,0.6c1.4-0.2,2.9-0.5,4.3-0.7c0.3-0.1,0.6,0,1,0
										C608.9,306.1,609.6,306.2,610.2,306.4z"/>
								</g>
								<g>
									<path d="M593.6,307.5c0.1-0.1,0.3-0.1,0.4-0.1l4.1-0.5c0-0.1,0-0.3-0.1-0.6c-0.1-0.3-0.3-0.5-0.4-0.5
										c-1.2,0.1-2.3,0.3-3.5,0.4c-0.2,0-0.4,0.1-0.6,0.1c0,0.1,0,0.1,0,0.2C593.6,306.9,593.6,307.2,593.6,307.5z"/>
								</g>
								<g>
									<path class="st25" d="M603.5,310.6c0.2,0.1,0.4,0.3,0.8,0.4c0.8,0.3,1.4,0.2,1.8,0.1c1.3-0.3,2.1-1.2,2.5-1.5
										c-0.2-0.3-1-1.4-2.4-1.6c-0.3-0.1-0.9-0.1-1.4,0.1C603.5,308.7,603.5,310.5,603.5,310.6z"/>
									<g>
										<path class="st32" d="M604.3,310c0.2,0.8,0.9,1.3,1.5,1.1s1-0.9,0.8-1.7c-0.2-0.8-0.9-1.3-1.5-1.1S604.1,309.2,604.3,310z
											"/>
										<path d="M604.6,309.9c0.1,0.4,0.4,0.6,0.7,0.6c0.3-0.1,0.5-0.5,0.4-0.9s-0.4-0.6-0.7-0.6
											C604.7,309.1,604.5,309.5,604.6,309.9z"/>
										<path class="st25" d="M605.7,309.4c0,0.1,0.1,0.2,0.2,0.2c0.1,0,0.2-0.1,0.1-0.3c0-0.1-0.1-0.2-0.2-0.2
											C605.7,309.2,605.6,309.3,605.7,309.4z"/>
										<path d="M603.5,310.6c0.1,0,0.2-1.5,1.1-2.1c1.1-0.7,2.8-0.3,3.9,1.1c-1-1.7-2.8-2.3-3.8-1.6
											C603.5,308.6,603.5,310.5,603.5,310.6z"/>
									</g>
								</g>
								<g>
									<path d="M620.4,316.1c0.4,0,0.6-0.8,0.6-1.6l-0.3,0.1c0,0.8-0.2,1.2-0.3,1.2s-0.3-0.5-0.3-1.3c0-0.8,0.2-1.3,0.3-1.3
										c0.1-0.1,0.1-0.2,0-0.3c-0.4,0-0.6,0.8-0.6,1.6C619.8,315.3,620,316.1,620.4,316.1z"/>
								</g>
								<path class="st22" d="M623.8,330.4c-0.3-0.2-0.7-0.1-0.8,0.3c-0.7,2.5-2.7,8.1-8,11.4c-1.8,1.1-3.5,1.7-5,2.1
									c0.7,2.2,1.1,4,1.3,5.3c0.2,0.9,0.3,1.5,0.7,1.7c0.9,0.4,2.5-1.3,4-3c1.8-2,4.1-4.6,6.9-7.8c0.8-1.1,1.6-2.3,2.4-3.7
									c0.8-1.4,1.5-2.7,2-4c-0.7-0.5-1.5-1-2.2-1.5C624.7,331,624.3,330.7,623.8,330.4z"/>
								<g>
									<path d="M609.8,341.8c3.1,0.2,5.5-2.1,7.6-4c1.6-1.5,4-4,6-7.5c0-0.1-0.1-0.1-0.2-0.2c-0.1-0.2-0.2-0.3-0.3-0.4
										c-2.3,4.4-5.3,7.1-7.1,8.5c-2.5,2-5,3.5-7.3,2.5c-2-0.9-3.1-3.7-3.1-7c-0.1,0.1-0.2,0.3-0.2,0.4c-0.1,0.2-0.1,0.3-0.2,0.5
										c0,0.6,0.2,5.3,3.2,6.7C608.8,341.7,609.4,341.8,609.8,341.8z"/>
								</g>
							</g>
						</g>
					</g>
				</g>
			</g>
		</g>
	</g>
	<path style="clip-path:url(#SVGID_00000154387055328316688630000005888537325102565771_);fill:#DE9F7E;" d="M568,409.6
		c0,1.4,0.3,2.7,0.5,3.7c-3.5,3.3-6.5,4.7-8.2,5.3c-2.1,0.8-2.8,0.5-3.1,0.2c-0.6-0.6-0.7-1.7,0-2.2c-0.5,0.5-1.5,0.6-2,0.1
		c-0.5-0.4-0.7-1.2-0.4-1.8c0-0.1,0.1-0.2,0.1-0.2c-0.6,0.2-1.2,0.3-1.8,0.3c-0.4,0-0.7-0.1-1.1-0.3c-0.6-0.3-0.7-1.2-0.5-1.7
		c-0.8,0.2-1.8-0.1-2.2-0.9c-0.5-1-0.2-2.3,0.6-3.2c0.8-0.9,1.8-1.4,2.9-1.9c1.5-0.7,3-1.5,4.6-2c2.4-0.8,6.9-0.4,9.9-0.7
		c0.5,0,1,0,1.5,0C568.3,405.5,567.9,407.3,568,409.6z"/>
	<g style="clip-path:url(#SVGID_00000154387055328316688630000005888537325102565771_);">
		<path class="st30" d="M551.6,413.2c1-0.4,1.9-0.8,2.7-1.5c0.1-0.1,0.2-0.2,0.1-0.4c-0.1-0.1-0.3-0.2-0.4-0.1
			c-0.8,0.6-1.6,1.1-2.6,1.4c-0.1,0.1-0.2,0.2-0.2,0.3C551.3,413.1,551.5,413.2,551.6,413.2L551.6,413.2z"/>
	</g>
	<g style="clip-path:url(#SVGID_00000154387055328316688630000005888537325102565771_);">
		<path class="st30" d="M556.9,413.5c-0.7,0.6-1.4,1.1-2.3,1.5c0-0.1,0.1-0.2,0.1-0.2c-0.6,0.2-1.2,0.3-1.8,0.3
			c0-0.1,0.1-0.2,0.2-0.2c1.3-0.2,2.4-0.8,3.4-1.7C556.8,412.8,557.2,413.2,556.9,413.5z"/>
	</g>
	<g style="clip-path:url(#SVGID_00000154387055328316688630000005888537325102565771_);">
		<path class="st30" d="M557.5,416.8c1.1-0.3,2.1-0.9,2.9-1.7c0.2-0.3-0.2-0.6-0.4-0.4c-0.7,0.7-1.6,1.3-2.6,1.5
			C557,416.3,557.2,416.9,557.5,416.8L557.5,416.8z"/>
	</g>
	<path style="clip-path:url(#SVGID_00000154387055328316688630000005888537325102565771_);fill:#D3D3D3;" d="M553.1,487.6
		c0.4,0.1,0.8,0.1,1.3,0.2c0.1-5.5,0.2-10.9,0.3-16.4C554.2,476.8,553.7,482.2,553.1,487.6z"/>
	<path style="clip-path:url(#SVGID_00000154387055328316688630000005888537325102565771_);fill:#CE8065;" d="M631.7,377.9"/>
</g>
</svg>
