<?xml version="1.0" encoding="utf-8"?>
<!-- Generator: Adobe Illustrator 26.0.1, SVG Export Plug-In . SVG Version: 6.00 Build 0)  -->
<svg version="1.1" id="Layer_1" xmlns="http://www.w3.org/2000/svg" xmlns:xlink="http://www.w3.org/1999/xlink" x="0px" y="0px"
	 viewBox="0 0 1000 1000" style="enable-background:new 0 0 1000 1000;" xml:space="preserve">
<style type="text/css">
	.st0{clip-path:url(#SVGID_00000171703807205758701670000014523541244910104997_);}
	.st1{clip-path:url(#SVGID_00000067195489144408460840000003958710244186483362_);fill:#BDDEEF;}
	.st2{clip-path:url(#SVGID_00000067195489144408460840000003958710244186483362_);fill:#52A7C1;}
	.st3{clip-path:url(#SVGID_00000067195489144408460840000003958710244186483362_);}
	.st4{fill:#52A7C1;}
	.st5{fill:#FCB99B;}
	.st6{fill:#0066A5;}
	.st7{fill:#5E271B;}
	.st8{fill:#EA906C;}
	.st9{fill:#FFFFFF;}
	.st10{fill:#6B3628;}
	.st11{fill:#1D1818;}
	.st12{fill:#250A01;}
	.st13{fill:#EF865F;}
	.st14{fill:#531CBF;}
	.st15{fill:#EA4E5A;}
	.st16{fill:#EE252A;}
	.st17{fill:#CD070C;}
	.st18{fill:#3E8ACE;}
	.st19{fill:#353535;}
	.st20{fill:#DB2818;}
	.st21{fill:#C21111;}
	.st22{fill:#FFCC00;}
	.st23{fill:#E7372E;}
</style>
<g>
	<g>
		<defs>
			<path id="SVGID_1_" d="M793.3,401.9c-12.7-22.7-27.6-42.7-43-59.6c-2.8-3.1-56.6-48.5-56.6-48.5c-1.5-1.2-3-2.4-4.5-3.6
				c-43-36-75.6-101.3-194.9-91.3c-55.6,4.7-92,27.2-117.9,57.6c0,0,0,0,0,0c-7,9.8-14,19.7-21,29.5c-19.1,32-31.8,68.7-44.7,100.8
				c-17.1,42.3-78.4,49-100.5,98.1c-20.1,23.1-30.6,59.7-35.9,86.2c-3.8,19.1-4.9,32.9-4.9,32.9c-6,133.4,113.9,235.6,237.6,272.6
				c0.1,0,0.2,0.1,0.3,0.1c21.5,6.8,42.4,11.3,61.5,13.6c5.9,0.7,11.8,1,17.7,1c0.9,0,1.9,0,2.8,0c0,0,0,0,0,0
				c12.6,0.7,24.9,0.5,36.8-0.5c2.4-0.2,4.9-0.5,7.3-0.7c0.2,0,0.3,0,0.5-0.1c43.8-4.9,94.1-18.9,140.9-44.1
				c66.1-34.8,122.4-89.1,133.1-161.5c9.6-47.6,22.8-75.3,22.8-146.3C833,491,793.3,401.9,793.3,401.9z"/>
		</defs>
		<clipPath id="SVGID_00000149350210912351022340000014474469633352106371_">
			<use xlink:href="#SVGID_1_"  style="overflow:visible;"/>
		</clipPath>
		<g style="clip-path:url(#SVGID_00000149350210912351022340000014474469633352106371_);">
			<defs>
				<path id="SVGID_00000053513601152411274050000013573112470934102170_" d="M800.6,398.9c-13-23.2-28.2-43.6-43.9-60.8
					c-0.2,0.3-0.3,0.5-0.5,0.8c0.2-0.3,0.3-0.5,0.5-0.8c-2.9-3.2-57.7-49.5-57.7-49.5l0,0c-1.5-1.2-3.1-2.4-4.6-3.7
					c-43.9-36.7-77.1-103.4-198.9-93.2c-56.7,4.7-93.9,27.8-120.4,58.8c-8,9.3-15.1,19.5-21.4,30.2c-19.5,32.6-32.5,70.1-45.7,102.8
					c-17.5,43.2-80,50-102.5,100.2c-20.5,23.6-31.2,60.9-36.6,88c-3.9,19.5-5,33.6-5,33.6C157.7,741.6,280,845.9,406.3,883.6
					c28.2,8.5,56.7,13.6,83.9,15c12.9,0.7,25.4,0.5,37.6-0.5c2.5-0.2,5-0.5,7.5-0.8c1.7-0.2,3.4-0.4,5.2-0.6
					c1.5-0.2,2.9-0.4,4.4-0.6c0.8-0.1,1.6-0.2,2.4-0.4c0.8-0.1,1.5-0.2,2.3-0.3c40.9-6.3,86.7-20.6,128.7-42.5
					c0.2-0.1,0.4-0.2,0.6-0.3c67.8-35.5,125.6-91.1,136.6-165.2c1.5-10.4,14.9-42,19.2-87.4C843.1,510.8,818.3,438.9,800.6,398.9z
					 M706.2,345.7c0,0,0.1,0.1,0.1,0.1C706.3,345.8,706.3,345.8,706.2,345.7z"/>
			</defs>
			<clipPath id="SVGID_00000074422070575929757850000016045562999217276558_">
				<use xlink:href="#SVGID_00000053513601152411274050000013573112470934102170_"  style="overflow:visible;"/>
			</clipPath>
			<path style="clip-path:url(#SVGID_00000074422070575929757850000016045562999217276558_);fill:#BDDEEF;" d="M800.6,398.9
				c-13-23.2-28.2-43.6-43.9-60.8c-2.9-3.2-57.7-49.5-57.7-49.5c-1.5-1.2-3.1-2.4-4.6-3.7c-43.9-36.7-77.1-103.4-198.9-93.2
				c-56.7,4.7-93.9,27.8-120.4,58.8c-8,9.3-15.1,19.5-21.4,30.2c-19.5,32.6-32.5,70.1-45.7,102.8c-17.5,43.2-80,50-102.5,100.2
				c-20.5,23.6-31.2,60.9-36.6,88c-3.9,19.5-5,33.6-5,33.6C157.7,741.6,280,845.9,406.3,883.6c28.2,8.5,56.7,13.6,83.9,15
				c12.9,0.7,25.4,0.5,37.6-0.5c2.5-0.2,5-0.5,7.5-0.8c1.7-0.2,3.4-0.4,5.2-0.6c1.5-0.2,2.9-0.4,4.4-0.6c0.8-0.1,1.6-0.2,2.4-0.4
				c0.8-0.1,1.5-0.2,2.3-0.3c40.9-6.3,86.7-20.6,128.7-42.5c0.2-0.1,0.4-0.2,0.6-0.3c67.8-35.5,125.6-91.1,136.6-165.2
				c9.8-48.6,23.3-76.8,23.3-149.4C841.1,489.9,800.6,398.9,800.6,398.9z"/>
			<path style="clip-path:url(#SVGID_00000074422070575929757850000016045562999217276558_);fill:#52A7C1;" d="M129.2,724.3h764.6
				v17.1l-225.8,185c0,0-333.6-5.4-353.2-13.6c-19.7-8.2-172.1-176.9-172.1-176.9"/>
			<g style="clip-path:url(#SVGID_00000074422070575929757850000016045562999217276558_);">
				<path class="st4" d="M325.9,398.3c0,1.8-1.1,3.2-2.6,3.2s-2.6-1.4-2.6-3.2c0-1.8,1.1-3.2,2.6-3.2S325.9,396.5,325.9,398.3z"/>
				<path class="st4" d="M347.5,404.4c0,1.8-1.1,3.2-2.6,3.2c-1.4,0-2.6-1.4-2.6-3.2s1.1-3.2,2.6-3.2
					C346.3,401.2,347.5,402.6,347.5,404.4z"/>
				<path class="st4" d="M419.4,307.9c0,1.8-1.1,3.2-2.6,3.2c-1.4,0-2.6-1.4-2.6-3.2s1.1-3.2,2.6-3.2
					C418.2,304.7,419.4,306.1,419.4,307.9z"/>
				<path class="st4" d="M754.8,594.3c0,1.8-1.1,3.2-2.6,3.2s-2.6-1.4-2.6-3.2s1.1-3.2,2.6-3.2S754.8,592.5,754.8,594.3z"/>
				<path class="st4" d="M763.6,585.6c0,1.8-1.1,3.2-2.6,3.2c-1.4,0-2.6-1.4-2.6-3.2s1.1-3.2,2.6-3.2
					C762.4,582.3,763.6,583.8,763.6,585.6z"/>
				<ellipse class="st4" cx="338.2" cy="387.8" rx="4.1" ry="5.2"/>
				<path class="st4" d="M334.1,579.5c0,3.7-2.4,6.7-5.3,6.7c-3,0-5.3-3-5.3-6.7c0-3.7,2.4-6.7,5.3-6.7
					C331.7,572.8,334.1,575.8,334.1,579.5z"/>
				<path class="st4" d="M636.4,292c0,3.7-2.4,6.7-5.3,6.7c-3,0-5.3-3-5.3-6.7c0-3.7,2.4-6.7,5.3-6.7
					C634,285.3,636.4,288.3,636.4,292z"/>
				<ellipse class="st4" cx="172.1" cy="636.1" rx="34.9" ry="44"/>
			</g>
		</g>
		<g style="clip-path:url(#SVGID_00000149350210912351022340000014474469633352106371_);">
			<g transform="matrix( -1.1695404052734375, 0.6071929931640625, 0.6146087646484375, 1.1432952880859375, 5196.8,604.6) ">
				<g>
					<path class="st5" d="M3407.9-1442c-10.4-19.7-24-37.6-33.9-46c-8.1-6.9-13.3,16.5-18.3,30.7l-0.7,0.6
						c18.1,38.4,58.8,63.1,66,106.6c0.5-0.9,3.8-3.7,3.9-3.6c5.3,4.4,15.1,1.7,16.4-4.4C3431-1387,3428.5-1405.1,3407.9-1442z"/>
					<path class="st5" d="M3369.3-1495.3c-19.1-27.7-34.9-49.9-47.4-66.6c-2.6-3.4-5-6.7-7.2-9.8c-12.9-17.4-21.8-30.1-26.8-37.9
						c-2.3-4.5-5.5-9.6-9.5-15.1c-13.7-17.8-27.4-26.4-41.2-25.9c5.1,4.4,7.5,10.6,7.3,18.5c0,3.6,0,3.4,0.1-0.6
						c0.7,7.1-1.7,17.7-7.4,31.7c-1.9,4.6-3.4,8.1-4.6,10.5l0,0.1c1,4.5,3.6,9.3,7.8,14.5l8.6,8.8l-1-1l4.8,4.8
						c-0.2-0.1-0.3-0.3-0.5-0.4l8.2,8.6c1.3,1.2,2.6,2.5,3.9,3.7c1.9,1.8,6.5,6.1,13.7,13l65.9,68.3c7,7.7,13.3,16.9,18.9,27.6
						l6.9-41.2c1.1-1.1,2.1-2.1,3-3C3378.2-1483.1,3376.3-1485.6,3369.3-1495.3z"/>
				</g>
			</g>
			<g transform="matrix( -1.1695404052734375, 0.6071929931640625, 0.6146087646484375, 1.1432952880859375, 5173.75,644.15) ">
				<g transform="matrix( 1, 0, 0, 1, 0,0) ">
					<g>
						<g id="Symbol_1g_0_Layer0_0_FILL_00000033336774261147028520000017595966459670456751_">
							<path class="st6" d="M3245.7-1651.4c-4.1-5.7-8.2-9.9-11.3-12.7c-4.9-4.4-8-7.3-13-8.9c-6.4-2.1-12.4-0.9-16.1,0.3
								c-3.1,11.7-6.2,23.4-9.3,35.1c-0.6,3.5-0.8,5.4-0.5,5.6c-0.7,12.1-0.9,21-0.6,26.8l68.7,65.2c11.4-8.4,21.7-19.3,30.9-32.6
								c2.1-2.9,3.1-4.4,3.2-4.5L3245.7-1651.4z"/>
						</g>
					</g>
				</g>
			</g>
			<path class="st5" d="M705.4,1030.5c2.3-28.7-1.1-55.9-5.8-73.5c-3.6-13.4-26.5,8.7-42,20.7l-1.2,0.1
				c-6.9,54.5,21.2,109.8-1.4,162.3c1.2-0.7,6.8-1.4,6.9-1.2c2.8,8.6,15.7,12.4,21.4,6.6C692.1,1107.1,702.4,1085.2,705.4,1030.5z"
				/>
			<path class="st5" d="M699.5,945.8c-1.8-43.6-3.8-78.8-6.1-105.7c-0.5-5.5-0.9-10.8-1.2-15.8c-2.1-28-3.2-48-3.2-60.1
				c0.6-6.6,0.6-14.3,0-23.1c-2.8-28.9-12.1-47.9-27.7-57c2.6,8.4,1,16.8-4.9,25.3c-2.6,3.9-2.4,3.7,0.5-0.6
				c-4.2,8.3-14.4,18.1-30.6,29.4c-5.3,3.7-9.5,6.5-12.6,8.2l-0.1,0.1c-2.1,5.6-2.6,12.7-1.6,21.3l3.4,15.6l-0.5-1.8l2.1,8.6
				c-0.1-0.2-0.2-0.5-0.2-0.8l3.2,15.1c0.6,2.3,1.2,4.5,1.7,6.8c0.8,3.3,2.9,11.2,6.2,23.7l25.5,120.6c2.4,13.3,3,27.7,1.7,43.3
				l36.8-40.1c2-0.4,3.9-0.8,5.5-1.2C700.9,965.4,700.6,961.3,699.5,945.8z"/>
			<g transform="matrix( -1.1695404052734375, 0.6071929931640625, 0.6146087646484375, 1.1432952880859375, 5173.75,644.15) ">
				<g transform="matrix( 1, 0, 0, 1, 0,0) ">
					<g>
						<g id="Symbol_1g_0_Layer0_0_FILL_00000054944239029013260660000004647829687018754227_">
							<path class="st6" d="M3027.9-1532.8c-2.9-6.4-4.5-12-5.4-16.1c-1.4-6.5-2.4-10.6-1.3-15.8c1.4-6.7,5.3-11.3,8.1-14
								c11.6,3,23.3,6.1,34.9,9.1c3.4,1.2,5.1,2,5.1,2.3c10.8,5.3,18.6,9.5,23.5,12.6l22.7,92.3c-12.9,5.9-27.3,9.6-43.3,11.1
								c-3.5,0.4-5.4,0.6-5.5,0.6L3027.9-1532.8z"/>
						</g>
					</g>
				</g>
			</g>
			<g transform="matrix( 0.337738037109375, 0, 0, 0.337738037109375, 3216.95,391.6) ">
				<g transform="matrix( 2.9608612060546875, 0, 0, 2.9608612060546875, -9524.95,-1159.45) ">
					<path class="st7" d="M-7691.3,2084.4c-0.2,0-0.3-0.1-0.3-0.3l-0.1-1.6c0-0.2,0.1-0.3,0.3-0.3h0c0.2,0,0.3,0.1,0.3,0.3l0.1,1.6
						C-7691,2084.2-7691.1,2084.4-7691.3,2084.4L-7691.3,2084.4z"/>
				</g>
			</g>
			<g transform="matrix( 1.428558349609375, 0.0227203369140625, -0.0227203369140625, 1.428558349609375, 5228.6,548.25) ">
				<g transform="matrix( 0.2199859619140625, 0, 0, 0.2199859619140625, -228.9,-225.1) ">
					<g>
						<g id="Duplicate_Items_Folder_1c2h_hair_ul_0_Layer0_0_MEMBER_0_FILL_00000062883668953951208780000018419884862044542645_">
							<path d="M-13732.4,1509.2C-13732.4,1509.2-13732.3,1509.2-13732.4,1509.2c0.1-0.1,0.1-0.1,0.1-0.1
								c7.3-11.2,14.5-23.3,21.2-36.3c37.3-72.2,46.6-143.1,47.3-196.2c0.2-10.1,0.5-110.6-71-165.3c-39.4-30.2-89.7-38.1-93-38.5
								c-34.4-4.7-68.2-1.7-101.6,9.1c-27.8,9.1-53.5,22.9-76.9,41.3c-1.7,1.4-3.5,2.8-5.2,4.2c-6.1,5.9-12.1,12-17.9,18.4
								c-32.9,36.2-57.5,76.7-73.7,121.6c-16.3,44.8-23.4,91.6-21.4,140.4c2.1,48.8,13.1,94.9,33.1,138.1c13,28,28.8,51.4,47.6,70.1
								c21.7,21.6,45.5,34.9,71.3,39.9c24.2,4.7,49.8,2,77-8.1c27.4-10.2,32.7-26.2,69.4-40c23.5-8.9,21.5-3.1,31.4-9.4
								C-13761.7,1577.4-13732.4,1509.3-13732.4,1509.2z"/>
						</g>
					</g>
				</g>
			</g>
			<g transform="matrix( 0.3377532958984375, 0, 0, 0.3377532958984375, 3216.95,368.4) ">
				<g>
					<g id="Layer4_0_MEMBER_6_FILL_00000051349539202339165740000012391275948916824974_">
						<path class="st5" d="M-7640.4,1010.9c-42.9,23.9-103.9,52.8-180.8,73.6c-132.9,36-241.5,28.5-282.9,24.3
							c-132.2-13.3-232.7-58.2-291.8-90.4c2.5-21.4,8.1-40.9,16.6-58.4c1.6-2.8,3.1-5.5,4.6-8.2c10.4-16.6,31.7-29.9,63.6-40
							c6.3-2.1,13.1-4,20.6-5.7c0.3-0.2,0.7-0.2,1.1-0.2h0.9c1.5-0.6,24.9-11.5,70.2-32.8c38.6-18.5,64.6-50.7,78.1-96.7l3.7-27.7
							l1.2-119.6l215.6,3.4v107.2c1.8,10.3,4.2,20.1,7.2,29.5c21.1,65.4,74.9,110.4,161.2,135.1c1.5,0.4,2.9,0.9,4.2,1.5h1.2
							c0.4,0,0.8,0.1,1.2,0.2c43.5,10.7,71.6,25.9,84.1,45.7c1.5,2.6,3,5.4,4.3,8.2C-7648.6,975.5-7643.3,992.5-7640.4,1010.9z"/>
						<path class="st8" d="M-7913.8,764.9c-3-9.3-4-14.8-5.8-25.1V632.6l-215.6-3.4l-1.2,119.6l-2,15.1
							c42.9,33.6,73.3,59.3,113.9,63.9C-7981.3,823.9-7950.9,793.4-7913.8,764.9z"/>
					</g>
				</g>
			</g>
			<g transform="matrix( -0.3599700927734375, 0, 0, 0.3599700927734375, 7402.85,360) ">
				<g>
					<g id="Layer4_0_MEMBER_7_MEMBER_0_MEMBER_0_FILL_00000021078949454309462810000009045327446275429555_">
						<path class="st5" d="M19347.1,473.9c-9.6-1.6-19,3.3-28,14.9c-8.9,11.6-14.9,26.4-17.9,44.5c-3.1,18.1-2.4,34,2.2,48
							c4.7,13.9,11.9,21.6,21.5,23.2c9.7,1.7,19-3.3,27.9-14.8c9.1-11.6,15.1-26.4,18.2-44.5c3.1-18.1,2.3-34-2.4-48
							C19363.9,483.4,19356.8,475.6,19347.1,473.9z"/>
					</g>
				</g>
			</g>
			<g transform="matrix( 0.3599700927734375, 0, 0, 0.3599700927734375, 3083.15,360.9) ">
				<g>
					<g id="Layer4_0_MEMBER_7_MEMBER_1_MEMBER_0_MEMBER_0_FILL_00000124841603444672552070000009557501538786280577_">
						<path class="st5" d="M-6980.9,475.8c-9.6-1.6-19,3.3-28,14.9c-8.9,11.6-14.9,26.4-17.9,44.5c-3.1,18.1-2.4,34,2.2,48
							c4.7,13.9,11.9,21.6,21.5,23.2c9.7,1.7,19-3.3,27.9-14.8c9.1-11.6,15.1-26.4,18.2-44.5c3.1-18.1,2.3-34-2.4-48
							C-6964.1,485.3-6971.2,477.5-6980.9,475.8z"/>
					</g>
				</g>
			</g>
			<g transform="matrix( 0.337738037109375, 0, 0, 0.337738037109375, 3216.95,368.4) ">
				<g>
					<g id="Layer4_0_MEMBER_7_MEMBER_2_FILL_00000155839578507800203340000007218492747621014933_">
						<path class="st5" d="M-8150.8,199.6c-79.2,61.8-107.3,184.6-62.6,300.7c13.3,111.4,36,181.9,68.1,211.6
							c32,29.7,57.9,50.4,77.7,62.2c5,3,13.2,11,26.2,13.9c7.7,1.8,15.8,1.7,19.1,1.7c7.6,0,13.9-0.9,18.5-1.7
							c7.4-3.4,16-8,25.9-13.9c20-11.8,46-32.6,78-62.2c31.8-29.7,55.3-100.6,70.6-212.9c39.8-116.7,22.5-233.8-46.6-295.6
							c-37.1-33.1-81.7-43.7-93.2-46.1C-8040.7,142-8109,167-8150.8,199.6z"/>
					</g>
				</g>
				<g>
					<g transform="matrix( 0.3377532958984375, 0, 0, 0.3377532958984375, 3216.95,368.4) ">
						<g>
							<g id="Layer4_0_MEMBER_10_FILL_00000151521162342392976430000011661091064365754537_">
								<path class="st9" d="M-33562.3,450.6c7,1.1,13.5,2,19.6,2.6c19.6,1.8,39.6,1.4,60.1-1.4c12-1.2,24.4-3.2,37-6.1
									c26.2-5.6,51.2-13.2,74.9-22.8c-11.5-33.4-39.7-60.3-84.6-81c-8.4-3.2-16.8-6.2-25.4-8.9c-28.9-8.4-57.9-11.6-87-9.6
									c-30.1,2.6-60.6,11.2-91.4,25.7c-21.3,9.3-34.8,19.1-40.4,29.5c13.8,17.2,34.1,32.8,60.9,46.8
									C-33614.4,437.8-33588.9,446.2-33562.3,450.6z"/>
							</g>
						</g>
					</g>
					<g>
						<g transform="matrix( 1.0824432373046875, -0.0170745849609375, 0.0170745849609375, 1.0824432373046875, 5226.3,494.1) ">
							<g transform="matrix( 1, 0, 0, 1, 0,0) ">
								<g>
									<g id="Duplicate_Items_Folder_ch3eye_ball_0_Layer0_0_FILL_00000163754282474037801820000008358270274974042254_">
										<path class="st10" d="M-12288.3-193.6c-0.1,6.2-2.5,11.4-7.2,15.6c-4.5,4.6-10,6.8-16.3,6.7c-6.2-0.1-11.6-2.5-16.1-7.2
											c-4.4-4.4-6.6-9.6-6.5-15.9c0.1-6.4,2.4-11.8,7-16.4c2.2-2.1,4.7-3.7,7.3-4.8l0.8,0c7.6,0.2,15.2,1.5,22.9,3.9
											c0,0,0,0,0.1,0c0.5,0.4,1,0.9,1.4,1.4C-12290.4-205.5-12288.2-199.9-12288.3-193.6z"/>
									</g>
								</g>
							</g>
							<g transform="matrix( 1.2004852294921875, 0, 0, 1.2004852294921875, -268.9,-88.45) ">
								<g>
									
										<g id="Duplicate_Items_Folder_ch3eye_ball_0_Layer0_0_MEMBER_0_MEMBER_0_FILL_00000148621346637261857980000006421901231492177324_">
										<path class="st11" d="M-10029.5-98.7c-2.7,0-5.1,0.8-7.1,2.5c-1.8,2-2.7,4.3-2.7,7c0,2.7,0.8,5,2.5,6.8c2,2,4.3,3.1,7,3.1
											c2.7,0,5-0.9,6.8-2.9c2-1.7,3-3.9,3.1-6.7c0-2.7-0.9-5.1-2.9-7.1C-10024.6-97.7-10026.8-98.6-10029.5-98.7z"/>
									</g>
								</g>
							</g>
							<g transform="matrix( 1.5006103515625, 0, 0, 1.5006103515625, -7.4,7.4) ">
								<g>
									
										<g id="Duplicate_Items_Folder_ch3eye_ball_0_Layer0_0_MEMBER_0_MEMBER_1_FILL_00000007401872514892788490000018101090765109165746_">
										<path class="st9" d="M-8202.8-133.6c0.7-0.5,1.1-1.3,1.1-2.3c0-0.9-0.3-1.6-1-2.3c-0.5-0.7-1.3-1.1-2.3-1.1
											c-0.9,0-1.6,0.3-2.3,1c-0.7,0.7-1.1,1.4-1.1,2.3c0,1,0.3,1.8,1,2.3c0.7,0.7,1.4,1.1,2.3,1.1
											C-8204.1-132.6-8203.3-132.9-8202.8-133.6z"/>
									</g>
								</g>
							</g>
						</g>
						<path class="st12" d="M-8188.6,492.3c6.6,6.5,38.5,37,85.1,35.1c19.7-0.8,35.3-7.2,45.1-12.3c3,0.9,6.3,0.1,4.4-3.6l0-0.3
							l-0.3,0c-0.3-0.3-0.4-0.5-0.3-0.8c-5.2-13.5-12.8-21.5-17.5-25.7c-20.7-18.4-53.8-22.6-77.7-9.1c-9,5.1-14.9,11.7-18.4,16.4
							c-0.1,0-0.2,0-0.2,0C-8174.7,493-8181.4,493.1-8188.6,492.3z M-8158.3,499c2.3-2.4,21.5-22.1,50.9-19.4
							c31.6,2.9,47.1,29,48.4,31.3c-5.6,3.4-28,16-57.1,10.6C-8138.7,517.2-8153,504.3-8158.3,499z"/>
					</g>
				</g>
				<g>
					<g transform="matrix( 0.3377532958984375, 0, 0, 0.3377532958984375, 3216.95,368.4) ">
						<g>
							<g id="Layer4_0_MEMBER_10_FILL_00000016786147984701555070000016786264881625528974_">
								<path class="st9" d="M-33017,459c-7.1,0.9-13.6,1.6-19.6,2c-19.6,1.2-39.6,0.2-60-3.2c-12-1.6-24.3-4-36.8-7.3
									c-26-6.4-50.7-14.8-74.1-25.1c12.5-33,41.6-59.1,87.1-78.3c8.5-3,17-5.7,25.6-8.1c29.2-7.5,58.2-9.8,87.2-6.9
									c30,3.6,60.2,13,90.6,28.5c21,10,34.1,20.2,39.5,30.8c-14.4,16.8-35.1,31.8-62.3,44.9
									C-32964.5,447.9-32990.3,455.5-33017,459z"/>
							</g>
						</g>
					</g>
					<g>
						<g transform="matrix( 1.0824432373046875, -0.0170745849609375, 0.0170745849609375, 1.0824432373046875, 5226.3,494.1) ">
							<g transform="matrix( 1, 0, 0, 1, 0,0) ">
								<g>
									<g id="Duplicate_Items_Folder_ch3eye_ball_0_Layer0_0_FILL_00000172399468332256630080000012716641558721468861_">
										<path class="st10" d="M-12184.8-191.5c-0.3,6.2,1.8,11.5,6.2,16c4.2,4.9,9.5,7.4,15.9,7.7c6.2,0.3,11.7-1.8,16.6-6.1
											c4.7-4.1,7.2-9.2,7.5-15.4c0.3-6.4-1.7-11.9-5.9-16.8c-2.1-2.2-4.5-4-7-5.2l-0.8,0c-7.6-0.2-15.3,0.6-23.1,2.5
											c0,0,0,0-0.1,0c-0.5,0.4-1,0.8-1.5,1.3C-12181.9-203.2-12184.5-197.9-12184.8-191.5z"/>
									</g>
								</g>
							</g>
							<g transform="matrix( 1.2004852294921875, 0, 0, 1.2004852294921875, -268.9,-88.45) ">
								<g>
									
										<g id="Duplicate_Items_Folder_ch3eye_ball_0_Layer0_0_MEMBER_0_MEMBER_0_FILL_00000001626937127734813910000003537425629523115951_">
										<path class="st11" d="M-9903.3-95.3c2.7,0.1,5,1.1,7,2.9c1.6,2.1,2.4,4.5,2.3,7.2c-0.1,2.7-1.1,4.9-2.9,6.6
											c-2.1,1.9-4.5,2.8-7.2,2.6c-2.7-0.1-4.9-1.2-6.6-3.3c-1.9-1.8-2.8-4.1-2.7-6.8c0.1-2.7,1.2-5,3.3-6.9
											C-9908.3-94.7-9906-95.4-9903.3-95.3z"/>
									</g>
								</g>
							</g>
							<g transform="matrix( 1.5006103515625, 0, 0, 1.5006103515625, -7.4,7.4) ">
								<g>
									
										<g id="Duplicate_Items_Folder_ch3eye_ball_0_Layer0_0_MEMBER_0_MEMBER_1_FILL_00000056415376318496892460000014441623842672969108_">
										<path class="st9" d="M-8107.1-129.1c-0.7-0.5-1-1.3-0.9-2.4c0-0.9,0.4-1.6,1.1-2.3c0.5-0.7,1.3-1,2.4-0.9
											c0.9,0,1.6,0.4,2.3,1.1c0.7,0.7,1,1.5,0.9,2.4c0,1-0.4,1.8-1.1,2.3c-0.7,0.7-1.5,1-2.4,0.9
											C-8105.9-128-8106.6-128.4-8107.1-129.1z"/>
									</g>
								</g>
							</g>
						</g>
						<path class="st12" d="M-7884.2,496.5c-0.1,0-0.2,0-0.2,0c-3.4-4.9-9.1-11.6-17.9-17c-23.5-14.3-56.6-11.1-77.9,6.6
							c-4.8,4-12.7,11.9-18.3,25.2c0,0.3,0,0.5-0.4,0.8l-0.3,0l0,0.3c-2,3.6,1.3,4.5,4.3,3.7c9.6,5.4,25,12.3,44.7,13.7
							c46.5,3.4,79.4-26.1,86.1-32.4C-7871.2,497.9-7877.9,497.6-7884.2,496.5z M-7937.4,524.2c-29.2,4.6-51.2-8.8-56.7-12.3
							c1.4-2.3,17.7-28,49.4-29.8c29.5-1.7,48,18.5,50.2,21C-7899.9,508.2-7914.6,520.7-7937.4,524.2z"/>
					</g>
				</g>
			</g>
			<g transform="matrix( 0.3377532958984375, 0, 0, 0.3377532958984375, 3216.95,368.4) ">
				<g>
					<g id="Layer4_0_MEMBER_8_FILL_00000109005845567874214300000014255545883926555799_">
						<path class="st8" d="M-8029.3,622.6c1.5,0.6,6.2,2.2,12.5,1.4c12.3-1.5,21.8-11.2,20.8-13c-0.9-1.7-10.1,5.4-24.7,4.7
							c-13-0.6-20.8-7-21.9-5.2C-8043.8,612.2-8037.6,619.5-8029.3,622.6z"/>
					</g>
				</g>
			</g>
			<g transform="matrix( 0.337677001953125, 0, 0, 0.337677001953125, 3216.95,368.4) ">
				<g>
					<g id="Layer4_0_MEMBER_10_MEMBER_1_FILL_00000062154963772108770610000003054378486601282191_">
						<path class="st13" d="M-8055.5,511.2v-0.3h-0.3v0.3c0,0.2,0.1,0.3,0.3,0.5C-8055.5,511.5-8055.5,511.3-8055.5,511.2z"/>
					</g>
				</g>
			</g>
			<g transform="matrix( 1.1208038330078125, -0.013397216796875, 0.0169830322265625, 1.078460693359375, 4974.4,418.95) ">
				<g>
					<g id="Layer4_0_MEMBER_10_MEMBER_2_FILL_00000130645028446377598700000009996824026984781498_">
						<path d="M-3997,33.9c0.1-0.1,0.7-2-0.3-3.3c-0.3-0.4-0.7-0.6-1-0.8c-7-0.4-12.7,0.6-16.6,1.6c-3.6,0.9-7.4,1.9-11.7,4.7
							c-5.9,3.8-9.3,9.1-11.2,12.8c3.1-2.6,7-5.3,11.7-7.7C-4014.6,35-4003.8,33.9-3997,33.9z"/>
					</g>
				</g>
			</g>
			<g transform="matrix( 1.1208038330078125, -0.013397216796875, 0.0169830322265625, 1.078460693359375, 4974.4,418.95) ">
				<g>
					<g id="Layer4_0_MEMBER_10_MEMBER_2_FILL_00000036932998588644964990000007676522173255426447_">
						<path d="M-3975.8,35c0-0.1-0.6-2,0.5-3.3c0.3-0.4,0.7-0.6,1-0.7c7,0,12.6,1.3,16.4,2.6c3.5,1.1,7.3,2.3,11.4,5.3
							c5.6,4.2,8.8,9.6,10.4,13.4c-2.9-2.8-6.6-5.7-11.2-8.4C-3958.3,37.2-3969,35.5-3975.8,35z"/>
					</g>
				</g>
			</g>
			<g transform="matrix( 0.337677001953125, 0, 0, 0.3437042236328125, 3216.95,364.85) ">
				<g>
					<g id="Layer4_0_MEMBER_13_MEMBER_0_FILL_00000096049689743136267980000004545500705664125096_">
						<path class="st14" d="M-8385.4,1243.2c-1.2-1.7-2.3-3.3-3.1-4.9c14.6,29.7,32.2,61.1,52.7,94.2c4.6,10.5,9.1,21,13.4,31.4
							c44.1,71.9,134.8,94.1,272,66.6c147.1,47.7,256.7,28,329-58.9c5-12.9,10.3-25.9,15.9-39.1c12.5-19.9,23.8-39.2,33.9-57.9
							c-1.4,1.7-3,3.4-4.7,5.1c-26,27.4-57.2,45.9-93.7,55.3c-39.8,10.7-93.5,10.1-161.2-1.7c-58.3-8.5-82.8-12.5-73.3-11.9
							c-21.4-1.9-52.9-2.2-94.5-1.1c-42.1,1.2-77.5,3.2-106.1,6c-28.6,2.8-55.4,0.7-80.4-6.4
							C-8326.5,1308.9-8359.8,1283.3-8385.4,1243.2 M-8022.2,1317.9c-0.5,0-0.8,0-1,0l0.2,0.1c1.8,0.2,3.8,0.4,5.9,0.7
							c0.4,0,0.8,0,1.4,0.1c-1.4-0.4-3-0.7-4.6-0.9c-0.3,0-0.5,0-0.7,0C-8021.4,1317.9-8021.8,1317.9-8022.2,1317.9z"/>
						<path class="st6" d="M-7801.7,867.2c-1.1-0.6-3-1.6-5.6-3c-12.7-6.6-22.3-11-24.5-12c-7.6-3.5-21.4-10.6-48.5-26.1
							c4.4,24.3,10,76-13.7,132.9c-12,28.9-27.9,50.5-40.9,65.2c-18.1,7.8-56.7,21.4-105.9,16c-34-3.8-60-15.3-75.8-23.8
							c-13.2-18.8-29.8-45.1-41.1-79.4c-9.9-30.3-16.1-64.4-18.6-102.3c-16.8,6.5-33.3,14.1-49.8,22.9c7.4-3.1-43.5,21.5-73,35.6
							c-11.4,5.5-23.3,9.9-35.6,13.2c-33.1,8.8-71.4,24.3-82.3,43.3c-48.2,83.7,1.9,212.8,31.4,293.5c47,128.7,84.1,320.9,36.7,596
							c37.7,19.3,180,86.3,360.5,46.2c167.5-37.2,263.6-143.3,292-177.3c-30.1-131.5-19.3-230.6-3.7-297
							c17-72.5,37.2-94.8,70.3-223.2c44.6-173,29.5-216,7.3-238.2c-9.6-9.6-38.5-21.7-96.2-46
							C-7747,891.7-7774.7,881.6-7801.7,867.2z M-8023.2,1317.9c2.4-0.1,5.2,0.2,7.4,0.9
							C-8018.3,1318.5-8020.9,1318.3-8023.2,1317.9z"/>
					</g>
				</g>
			</g>
			<g transform="matrix( 0.337677001953125, 0, 0, 0.3437042236328125, 3216.95,364.85) ">
				<g>
					<g id="Layer4_0_MEMBER_13_MEMBER_1_FILL_00000090270040289941144080000002453552285510138538_">
						<path class="st15" d="M-7653.5,1834.1c-6.7-24.2-14.3-49.2-22.9-75c-7.4-22.3-15-43.6-22.7-64.1
							c-22.4,15.4-44.7,30.8-67.1,46.1c-20.4,76.5-40.8,153-61.1,229.4C-7769.4,1925-7711.5,1879.6-7653.5,1834.1z"/>
						<g>
							<path class="st16" d="M-7760.3,883.2c0.9-1.7,1.9-3.4,2.8-5.1V878c0.1-0.3,0.3-0.5,0.4-0.8c0-0.1,0-0.1,0-0.2l-0.1,0.1
								c-2.2,2.7-4.3,5.5-6.4,8.2c1.8-2.3,3.7-4.5,5.6-6.7C-7758.7,880.1-7759.5,881.6-7760.3,883.2z"/>
						</g>
					</g>
				</g>
			</g>
			<g transform="matrix( 0.3376007080078125, 0, 0, 0.3436279296875, 3216.95,364.85) ">
				<g>
					<g id="Layer4_0_MEMBER_13_MEMBER_1_MEMBER_4_FILL_00000155123172220221761100000011411603620738519188_">
						<path class="st17" d="M-7507.3,928.1c-56.5-12.7-113-25.3-169.5-38c-51.2,141.3-102.5,282.5-153.9,423.8
							c-179,491.5-359.3,982.5-541,1472.9c12.4,83.4,24.9,166.9,37.3,250.4c155.1-143.6,277.7-343.4,367.8-599.3
							C-7813.5,1934.6-7660.4,1431.3-7507.3,928.1z"/>
						<path class="st18" d="M-7758.7,862.4c-102.9,81.8-206.7,165.6-311.1,251.4c-100.8,82.8-199.7,165.3-296.6,247.4l30.8,120.5
							l6.9,27.3c-53.9,249.4-93.3,557-78.4,907.6c5.6,132.6,18.4,256.8,35.6,371.8c181.5-491,361.7-982.5,540.8-1474.5
							c51.4-141.3,102.7-282.5,153.9-423.8C-7704.1,880.9-7731.4,871.6-7758.7,862.4z"/>
						<path class="st17" d="M-7761.3,876.6l-33.7-4.1c-258.5,119-455.3,235.3-590.4,348.9l19,139.8
							C-8172.5,1192.7-7970.8,1031.2-7761.3,876.6z"/>
					</g>
				</g>
			</g>
			<g>
				<path d="M607.1,545.3c0.4-17.9-1.4-58.1-28.3-94.3c-10.3-13.9-28-36-57.8-42.1c-11-2.2-27.1-1.3-37.9,4.5
					c-0.1,0.1-0.1,0.2-0.3,0.3c-0.1,0.3-0.1,0.6-0.3,0.8c-1.2-0.2-2.5-0.4-3.7-0.4c-0.1,0-0.1,0-0.2,0c-20.8-1.3-38.7,15-49.3,32.5
					c-25.7,42.8-25.3,128.6,9.8,162.5c0.1,0.1,0.3,0.2,0.4,0.3c10.5,13.3,14.4,16.2,24.1,31.1c1.7-3.7,3.7-8.9,4.7-15.3
					c0.8-5.4,0.8-10.2,0.4-13.8c-11.6-9.3-17.4-24.9-18.9-35.6c-0.4-0.1-0.8-0.3-1.3-0.5c-0.8-0.5-1.6-1.2-2.6-2.1
					c-4.8-5-8.4-11.9-11-20.8c-0.4-1.6-0.7-3.2-1-4.6c0.6-0.9,1.4-1.8,2.4-2.7c5.8-4.2,10-11.5,8-18.9c-0.7-15,1.9-29.6,8.9-42.5
					c3.7-6.7,8.2-12.4,13.5-17.2c2.4-2.1,4.9-3.6,7.5-4.3c0.9-0.2,1.8-0.3,2.6-0.3c19.3-4.1,34.1,11.9,42.5,28.3l3.2,8.3
					c0.4,1.1,4.7,8.8,5.3,10.1l0.1,0.1l0.1,0.2l1.3,2.1c1.1,1.7,2.1,3.1,2.9,4.3l3.6,4.7c6.9,10.9,17,21,27.3,26
					c2.8,1.5,7.4,3.2,11.1,4.5l9.6,3.7c0.9,0.3,1.7,0.6,2.4,0.8l4.7,1.2h0.1c0.2,0.1,0.5,0.2,0.7,0.3c6.6,3.3,11.2,6.9,11.9,7.5
					c4.5,3.8,3.8,18-1.7,34.2c2.9-2.4,9.9-8.9,12.6-19.7C619.1,561.1,608.6,547.1,607.1,545.3z"/>
			</g>
			<g>
				<g transform="matrix( 0.3376922607421875, 0, 0, 0.3376922607421875, 3216.95,368.4) ">
					<g>
						<g id="Layer4_0_MEMBER_14_MEMBER_0_MEMBER_2_FILL_00000062900534994686336120000014597062980786448018_">
							<path class="st19" d="M-7959.9,324.4c9.1,69.9,55,139,120.7,179.9C-7898.4,457.5-7942.1,393-7959.9,324.4
								C-7960,324.3-7960,324.3-7959.9,324.4z"/>
						</g>
					</g>
				</g>
			</g>
			<g transform="matrix( 0.3377532958984375, 0, 0, 0.3377532958984375, 3217.2,368.05) ">
				<g>
					<g id="Layer4_0_MEMBER_15_FILL_00000106105362976529624340000002409456028292567990_">
						<path class="st20" d="M-8032.6,425.3c-2.4,2.4-3.6,5.3-3.6,8.6c0,3.4,1.2,6.2,3.6,8.6c2.4,2.4,5.3,3.6,8.6,3.6
							c3.4,0,6.2-1.2,8.6-3.6c2.4-2.4,3.6-5.3,3.6-8.6c0-3.4-1.2-6.2-3.6-8.6c-2.4-2.4-5.3-3.6-8.6-3.6
							C-8027.4,421.8-8030.3,422.9-8032.6,425.3z"/>
					</g>
				</g>
			</g>
			<g>
				<path class="st21" d="M449.2,580.1c0.1,1.8-0.6,3-1.4,3.8c-1.8,1.7-4.9,1.5-6.4-0.5c-0.6-0.8-1-1.9-1-3.2c0-0.3,0.1-0.6,0.1-1
					c0.6-3.5,2-6.9,4.3-10.3c0,0,0,0,0,0c2.2,3.3,3.6,6.7,4.2,10.1C449.1,579.3,449.2,579.7,449.2,580.1z"/>
				<path class="st22" d="M451.1,578.3c-0.2-0.8-0.4-1.5-0.6-2.3c-1.3-4.3-3.2-8.2-5.7-11.8c-2.7,3.9-4.7,8.2-6,12.9
					c-0.1,0.4-0.2,0.8-0.3,1.2c-1.5,7.6,0.6,11.4,6.3,11.4c4.5,0,6.8-2.4,6.8-7.2C451.6,581.3,451.4,579.9,451.1,578.3z
					 M448.2,583.5c-1.7,2.1-5,2.2-6.7,0.1c0,0,0,0,0-0.1c-1-1.3-1.1-2.8-1-3.3c0-0.3,0.1-0.6,0.1-1c0.6-3.5,2-6.9,4.3-10.3l0-0.7
					v0.7c0,0,0,0,0,0c2.2,3.3,3.6,6.7,4.2,10.1c0.1,0.4,0.1,0.8,0.2,1.3C449.2,581.5,448.9,582.6,448.2,583.5z"/>
			</g>
			<g>
				<path class="st21" d="M570.6,588.3c0.1,1.8-0.6,3-1.4,3.8c-1.8,1.7-4.9,1.5-6.4-0.5c-0.6-0.8-1-1.9-1-3.2c0-0.3,0.1-0.6,0.1-1
					c0.6-3.5,2-6.9,4.3-10.3c0,0,0,0,0,0c2.2,3.3,3.6,6.7,4.2,10.1C570.5,587.4,570.6,587.8,570.6,588.3z"/>
				<path class="st22" d="M572.6,586.4c-0.2-0.8-0.4-1.5-0.6-2.3c-1.3-4.3-3.2-8.2-5.7-11.8c-2.7,3.9-4.7,8.2-6,12.9
					c-0.1,0.4-0.2,0.8-0.3,1.2c-1.5,7.6,0.6,11.4,6.3,11.4c4.5,0,6.8-2.4,6.8-7.2C573,589.4,572.9,588,572.6,586.4z M569.6,591.6
					c-1.7,2.1-5,2.2-6.7,0.1c0,0,0,0,0-0.1c-1-1.3-1.1-2.8-1-3.3c0-0.3,0.1-0.6,0.1-1c0.6-3.5,2-6.9,4.3-10.3l0-0.7v0.7c0,0,0,0,0,0
					c2.2,3.3,3.6,6.7,4.2,10.1c0.1,0.4,0.1,0.8,0.2,1.3C570.6,589.6,570.3,590.7,569.6,591.6z"/>
			</g>
			<path d="M590.5,615.8c6.7,29.3,12.1,64.7,13,105.1c1.6,75.7-13.6,138.1-28,180.7c-5.7-11.5-13.2-30.5-15.2-55
				c-1.6-20.2,1.1-36.9,3.9-48.3c-3.7,15-6.6,32.8-7.1,52.9c-0.1,6.5,0,12.8,0.4,18.7c-7.5-19.1-14.8-43.5-18-72.3
				c-7.7-69.3,12.4-124.9,25.4-153.5C573.4,634.6,581.9,625.2,590.5,615.8z"/>
			<g transform="matrix( 1, 0, 0, 1, 0,0) ">
				<g>
					<g id="Layer5_48_MEMBER_2_FILL_00000010271873623757893850000006265749480935599026_">
						<path class="st23" d="M508.5,593.5c-4.7,0.6-11.5,3.2-11.6,6.4c0,3.3,6.9,7.1,13,6.2c6.1-0.9,11.6-6.6,10.7-9.7
							C519.6,593.3,512.7,592.9,508.5,593.5z"/>
					</g>
				</g>
			</g>
			<path class="st19" d="M486.9,445.6c6.9,2,16.5,5.8,24.8,13.8c8.8,8.5,8.9,14.7,17,31.4c7.9,16.4,18.3,37.1,38.3,49
				c10.5,6.2,21.5,8.8,22,7.9c0.5-1-10.4-4.4-20.1-13.8c-8.9-8.7-9.6-15.6-21-42.4c-7.4-17.2-11-25.9-14.8-29.9
				C527.6,455.7,515.1,445.6,486.9,445.6z"/>
		</g>
	</g>
	<g>
		<path class="st4" d="M644,341.8c-6.2,0-11.3-4.8-11.8-10.9l-0.1-1.4c-2.8-25.5,5.7-53.4,29.3-81.8c21.3-25.1,33.1-43.5,33.1-64.8
			c0-24.1-15.1-40.2-44.9-40.7c-11.2,0-23.2,2.4-33.4,6.7c-8.3,3.4-17.7-0.7-20.9-9.1v0c-3-7.8,0.6-16.7,8.2-20.2
			c15.4-7.1,35.6-11.4,54.6-11.4c54.4,0,79,33.6,79,69.5c0,32.2-18,55.3-40.7,82.3c-20.8,24.6-28.4,45.4-27,69.5v0
			c0.3,6.7-5.1,12.3-11.8,12.3H644z M622.8,405c1.3-15.9,12.7-26.7,28.3-26.7c16.6,0,27.9,12.3,27.9,29.8c0,14.1-7.9,25.4-21,28.5
			C636.6,441.5,621,426.9,622.8,405z"/>
	</g>
</g>
</svg>
