<?xml version="1.0" encoding="utf-8"?>
<!-- Generator: Adobe Illustrator 26.0.1, SVG Export Plug-In . SVG Version: 6.00 Build 0)  -->
<svg version="1.1" id="Layer_1" xmlns="http://www.w3.org/2000/svg" xmlns:xlink="http://www.w3.org/1999/xlink" x="0px" y="0px"
	 viewBox="0 0 1000 1000" style="enable-background:new 0 0 1000 1000;" xml:space="preserve">
<style type="text/css">
	.st0{clip-path:url(#SVGID_00000013151156179234778930000001735820789338959508_);fill:#BDDEEF;}
	.st1{clip-path:url(#SVGID_00000103253074979271242430000001357804771816638350_);fill:#52A7C1;}
	.st2{clip-path:url(#SVGID_00000047023631005056983640000012614268934273652378_);}
	.st3{opacity:0.15;}
	.st4{clip-path:url(#SVGID_00000183226282361915869810000007932118975673812123_);fill:#281010;}
	.st5{clip-path:url(#SVGID_00000031189102781338392390000007062821558817566635_);fill:#281010;}
	.st6{fill:#381B19;}
	.st7{fill:#7A574E;}
	.st8{fill:#7B889B;}
	.st9{fill:#6B7B8E;}
	.st10{fill:#BDD8FF;}
	.st11{fill:#ACCFF9;}
	.st12{fill:#D7E9FF;}
	.st13{fill:#8897AA;}
	.st14{fill:#CE4A4A;}
	.st15{fill:#BF3D3D;}
	.st16{fill:#E55757;}
	.st17{fill:#442221;}
	.st18{fill:#F2C9A0;}
	.st19{fill:#DBAC89;}
	.st20{fill:#D3D3D3;}
	.st21{fill:#FFFFFF;}
	.st22{fill:#E4C77B;}
	.st23{fill:#292937;}
	.st24{fill:#1E1E29;}
	.st25{fill:#232330;}
	.st26{fill:#3A2317;}
	.st27{fill:#563A1F;}
	.st28{fill:#E8DCD6;}
	.st29{opacity:0.2;}
	.st30{fill:#42210B;}
	.st31{fill:#D8A188;}
	.st32{fill:#9F0102;}
	.st33{fill:#7C5342;}
	.st34{fill:#724A3B;}
	.st35{fill:#FFCB7E;}
	.st36{fill:#6B4337;}
	.st37{fill:#7F5546;}
	.st38{fill:#543730;}
	.st39{fill:#8E695C;}
	.st40{fill:#DE9F7E;}
	.st41{fill:#CE8065;}
	.st42{fill:#B7303D;}
	.st43{fill:#FFFFFF;stroke:#D3D3D3;stroke-width:2.6116;stroke-miterlimit:10;}
	.st44{fill:#D34047;}
	.st45{fill:#FCB856;}
	.st46{fill:#D38A6A;}
	.st47{fill:#6B3628;}
	.st48{fill:#211E1F;}
</style>
<g>
	<g>
		<defs>
			<path id="SVGID_1_" d="M72.2,584.6c-6.4-30.3-4-80.8,26.8-110.1c92-87.6,179.6-9.5,197.2-104c16.2-87.1,77.7-171.7,189.7-144.5
				c143.8,35,127.9,134.2,198.5,126.7c70.6-7.4,191.4-62.9,213.2,42.2s-80.5,195.2-15.3,187.8c9.4,0.6,36,3.4,45.2,21
				c10.1,19.4-6.5,45.5-13.2,56c-43.6,68.6-309.9,168.6-613.3,78.7C218.1,713.9,91.4,674.6,72.2,584.6z"/>
		</defs>
		<clipPath id="SVGID_00000090999115015377168970000016735959056408598662_">
			<use xlink:href="#SVGID_1_"  style="overflow:visible;"/>
		</clipPath>
		<path style="clip-path:url(#SVGID_00000090999115015377168970000016735959056408598662_);fill:#BDDEEF;" d="M939.5,687.8
			c-4.2,15.8-11.5,30.4-21.1,43.2c-23.3,30.9-60.6,50.9-102.3,50.9H306c-52.1,0-100.9-16.9-140.6-45.9
			c-17.1-12.5-32.5-27.2-45.7-43.8c-24.1-30.4-41-67-47.5-107.5c-6.9-42.4-2-82.7,26.8-110.1c92-87.6,179.6-9.5,197.2-104
			c16.2-87.1,77.7-171.7,189.7-144.5c143.8,35,127.9,134.2,198.5,126.7c70.6-7.4,191.4-62.9,213.2,42.2s-80.5,195.2-15.3,187.8
			c45.2,5.1,60.2,34.4,61.3,69C944,664.3,942.5,676.4,939.5,687.8z"/>
	</g>
	<g>
		<defs>
			<path id="SVGID_00000067918666545168010030000011161611933814289324_" d="M72.2,584.6c-6.4-30.3-4-80.8,26.8-110.1
				c92-87.6,179.6-9.5,197.2-104c16.2-87.1,77.7-171.7,189.7-144.5c143.8,35,127.9,134.2,198.5,126.7
				c70.6-7.4,191.4-62.9,213.2,42.2s-80.5,195.2-15.3,187.8c9.4,0.6,36,3.4,45.2,21c10.1,19.4-6.5,45.5-13.2,56
				c-43.6,68.6-308.5,174.8-611.9,84.9C219.5,720.1,91.4,674.6,72.2,584.6z"/>
		</defs>
		<clipPath id="SVGID_00000067916965381583237300000016340425616454221753_">
			<use xlink:href="#SVGID_00000067918666545168010030000011161611933814289324_"  style="overflow:visible;"/>
		</clipPath>
		<path style="clip-path:url(#SVGID_00000067916965381583237300000016340425616454221753_);fill:#52A7C1;" d="M1121.3,588.1
			c0,0-17.3,78.9-31.8,112c-35,80.1-91.1,132.1-153.9,132.1h-768c-78.4,0-152-43.8-211.7-119c-25.7-32.4-68.8-113.8-68.8-113.8
			L1121.3,588.1z"/>
	</g>
	<g>
		<defs>
			<path id="SVGID_00000041274592766913060090000002466731567086247072_" d="M72.2,584.6c-0.1-0.4-0.1-0.6-0.1-0.8
				c-1.7-9.2-11.9-72.3,26.9-109.3c92-87.6,179.6-9.5,197.2-104c16.2-87.1,77.7-171.7,189.7-144.5c143.8,35,127.9,134.2,198.5,126.7
				c70.6-7.4,191.4-62.9,213.2,42.2c21.8,105.1-80.5,195.2-15.3,187.8c8.6,0.9,30,4.2,38.8,19.8c11.2,19.8-5,46.9-12,58.8
				c-30.5,51.4-153,116.1-347.8,116.1c0,0-256.4,8.5-423.4-107.3C120.5,658.1,81,630.7,72.2,584.6z"/>
		</defs>
		<clipPath id="SVGID_00000031181418737701132990000010635907442260651959_">
			<use xlink:href="#SVGID_00000041274592766913060090000002466731567086247072_"  style="overflow:visible;"/>
		</clipPath>
		<g style="clip-path:url(#SVGID_00000031181418737701132990000010635907442260651959_);">
			<g>
				<g>
					<g class="st3">
						<g>
							<g>
								<g>
									<defs>
										<rect id="SVGID_00000105386649144545146320000012801236567077289601_" x="268.5" y="581.4" width="24" height="147.7"/>
									</defs>
									<clipPath id="SVGID_00000067235891435819799280000007860389246691746181_">
										<use xlink:href="#SVGID_00000105386649144545146320000012801236567077289601_"  style="overflow:visible;"/>
									</clipPath>
									
										<rect x="268.5" y="581.4" style="clip-path:url(#SVGID_00000067235891435819799280000007860389246691746181_);fill:#281010;" width="24" height="147.7"/>
								</g>
							</g>
						</g>
					</g>
				</g>
				<g>
					<g class="st3">
						<g>
							<g>
								<g>
									<defs>
										<rect id="SVGID_00000173868289138907553680000011093447623790885010_" x="694.7" y="581.4" width="24" height="147.7"/>
									</defs>
									<clipPath id="SVGID_00000159458413991679243550000012489669678831701152_">
										<use xlink:href="#SVGID_00000173868289138907553680000011093447623790885010_"  style="overflow:visible;"/>
									</clipPath>
									
										<rect x="694.7" y="581.4" style="clip-path:url(#SVGID_00000159458413991679243550000012489669678831701152_);fill:#281010;" width="24" height="147.7"/>
								</g>
							</g>
						</g>
					</g>
				</g>
				<path class="st6" d="M550.3,584.7H434.2l-5.7-82.6c-1.2-17.8,12.9-32.9,30.8-32.9h65.9c17.9,0,32,15.1,30.8,32.9L550.3,584.7z"
					/>
				<g>
					<g>
						<rect x="354.2" y="386.5" class="st7" width="3.1" height="198"/>
					</g>
					<g>
						<path class="st7" d="M354.2,395.9v6.7l3.1-1.2v-13C357.3,388.3,356.5,392.6,354.2,395.9"/>
					</g>
					<g>
						<path class="st7" d="M357.3,388.3c0,0-1.5,6.3-12.8,24.4s-29,52.9-10.9,89.9c5,10.8,14.2,46.1-8.8,74.6h35.9
							c0,0,18.5-44.3,5-93.1C352.1,435.3,360.5,399.2,357.3,388.3"/>
					</g>
					<g>
						<path class="st7" d="M354.4,377.9l-1.6,4.6c-0.7,2,0.8,4.2,3,4.2s3.7-2.1,3-4.2l-1.6-4.6C356.7,376.6,354.8,376.6,354.4,377.9
							"/>
					</g>
					<g>
						<rect x="357.1" y="386.5" class="st8" width="3.1" height="198"/>
					</g>
					<g>
						<path class="st9" d="M357.1,395.9v6.7l3.1-1.2v-13C360.2,388.3,359.3,392.6,357.1,395.9"/>
					</g>
					<g>
						<rect x="357.1" y="386.5" class="st9" width="3.1" height="1.5"/>
					</g>
					<g>
						<path class="st10" d="M360.2,388.3c0,0,0.3,6.3-11,24.4s-21.7,52.9-3.6,89.9c5,10.8,12.7,46.1-10.4,74.6h28.5
							c0,0,18.5-44.3,5-93.1C355,435.3,363.3,399.2,360.2,388.3"/>
					</g>
					<g>
						<path class="st11" d="M345.5,502.7c-0.7-1.4-1.4-2.9-2-4.3c2,2.8,7.4,10.5,10.3,14.7c3.4,5,21.5,33.5-4.9,64.1h-13.8
							C358.2,548.7,350.5,513.5,345.5,502.7"/>
					</g>
					<g>
						<path class="st12" d="M373,508.6c-7-11.2-18.3-17.3-24.2-26.1c-10-14.9-5.9-38,2.5-55.8c6-12.8,8.6-26.3,9.6-32.9
							c0.6,15-4.1,47.9,7.7,90.3C370.9,492.5,372.3,500.7,373,508.6"/>
					</g>
					<g>
						<path class="st8" d="M357.3,377.9l-1.6,4.6c-0.7,2,0.8,4.2,3,4.2s3.7-2.1,3-4.2l-1.6-4.6C359.6,376.6,357.7,376.6,357.3,377.9
							"/>
					</g>
					<g>
						<path class="st13" d="M355.3,383.8c5-0.2,3.9-5.8,3.5-7.6c-0.5,0-0.9,0.2-1.1,0.8l-2.2,6.5
							C355.3,383.6,355.3,383.7,355.3,383.8"/>
					</g>
					<g>
						<rect x="632.6" y="386.5" class="st7" width="3.1" height="198"/>
					</g>
					<g>
						<path class="st7" d="M635.6,395.9v6.7l-3.1-1.2v-13C632.6,388.3,633.4,392.6,635.6,395.9"/>
					</g>
					<g>
						<path class="st7" d="M632.6,388.3c0,0,1.5,6.3,12.8,24.4s29,52.9,10.9,89.9c-5,10.8-14.3,46.1,8.8,74.6h-35.9
							c0,0-18.5-44.3-5-93.1S629.4,399.2,632.6,388.3"/>
					</g>
					<g>
						<path class="st7" d="M635.5,377.9l1.6,4.6c0.7,2-0.8,4.2-3,4.2s-3.7-2.1-3-4.2l1.6-4.6C633.2,376.6,635,376.6,635.5,377.9"/>
					</g>
					<g>
						<rect x="629.7" y="386.5" class="st8" width="3.1" height="198"/>
					</g>
					<g>
						<path class="st9" d="M632.7,395.9v6.7l-3.1-1.2v-13C629.7,388.3,630.5,392.6,632.7,395.9"/>
					</g>
					<g>
						<rect x="629.7" y="386.5" class="st9" width="3.1" height="1.5"/>
					</g>
					<g>
						<path class="st14" d="M629.7,388.3c0,0-0.3,6.3,11,24.4s21.7,52.9,3.6,89.9c-5,10.8-12.7,46.1,10.4,74.6h-28.5
							c0,0-18.5-44.3-5-93.1S626.5,399.2,629.7,388.3"/>
					</g>
					<g>
						<path class="st15" d="M644.3,502.7c0.7-1.4,1.4-2.9,2-4.3c-2,2.8-7.4,10.5-10.3,14.7c-3.4,5-21.5,33.5,4.9,64.1h13.8
							C631.7,548.7,639.4,513.5,644.3,502.7"/>
					</g>
					<g>
						<path class="st16" d="M616.9,508.6c7-11.2,18.3-17.3,24.2-26.1c10-14.9,5.9-38-2.5-55.8c-6-12.8-8.6-26.3-9.6-32.9
							c-0.6,15,4.1,47.9-7.7,90.3C618.9,492.5,617.6,500.7,616.9,508.6"/>
					</g>
					<g>
						<path class="st8" d="M632.6,377.9l1.6,4.6c0.7,2-0.8,4.2-3,4.2s-3.7-2.1-3-4.2l1.6-4.6C630.3,376.6,632.1,376.6,632.6,377.9"
							/>
					</g>
					<g>
						<path class="st13" d="M634.6,383.8c-5-0.2-3.9-5.8-3.5-7.6c0.5,0,0.9,0.2,1.1,0.8l2.2,6.5
							C634.5,383.6,634.6,383.7,634.6,383.8"/>
					</g>
					<path class="st6" d="M550.7,584.1H434.6l-5.7-82.6c-1.2-17.8,12.9-32.9,30.8-32.9h65.9c17.9,0,32,15.1,30.8,32.9L550.7,584.1z"
						/>
					<g>
						<path class="st17" d="M429.1,505c2.2-14.8,14.9-26.4,30.6-26.4h65.9c15.6,0,28.4,11.6,30.6,26.4l0.2-3.6
							c1.2-17.8-12.9-32.9-30.8-32.9h-65.9c-17.9,0-32,15.1-30.8,32.9L429.1,505z"/>
						<g>
							<g>
								<g>
									<g id="XMLID_00000039825877086042979950000012372262117348987563_">
										<path class="st18" d="M520.5,488.7c0,7.2-10.7,13-23.8,13s-23.3-4.7-23.3-11.9c0-4.2,6.4-7.8,12.9-9.9v-21.5h20.8v21.5
											C513.6,481.9,520.5,484.5,520.5,488.7z"/>
										<path class="st19" d="M507.1,458.3v18.6c-2.1,0.9-6.2,2.2-11.5,1.8c-4.2-0.3-7.4-1.6-9.4-2.6v-17.8H507.1z"/>
										<path class="st20" d="M497,565.3c0,0-31-62.2-26.3-75.2c1.5-5.6,10.7-8.9,10.7-8.9s7.2,4,15.6,4c8.5,0,15.6-4,15.6-4
											s8.4,5.5,9.9,11C527.2,505.1,497,565.3,497,565.3z"/>
										<g>
											<polygon class="st21" points="508,476.5 497,485.1 504.3,496.5 512.6,481.1 											"/>
											<polygon class="st21" points="486,476.5 497,485.1 489.7,496.5 481.4,481.1 											"/>
										</g>
										<path class="st22" d="M499.4,588.1c0,1.3-1.1,2.4-2.4,2.4s-2.4-1.1-2.4-2.4s1.1-2.4,2.4-2.4
											C498.4,585.6,499.4,586.7,499.4,588.1z"/>
										<path class="st22" d="M499.4,613c0,1.3-1.1,2.4-2.4,2.4s-2.4-1.1-2.4-2.4s1.1-2.4,2.4-2.4
											C498.4,610.6,499.4,611.7,499.4,613z"/>
										<g>
											<g>
												<g>
													<path class="st23" d="M538.5,490.4c4.1,0,8.2,0.9,10.8,3.1c2.6,2.3,3.9,5.1,5.2,7.9c8.9,19.7,17.8,39.3,26.7,59
														c-1.7,1.1-3.7,2-5.8,2.6c0.3,0.8,0.5,1.6,0.8,2.4c-3.4,1.2-5.2,2-10.6,3.3c-2.5,0.6-6.3,0.4-8.9,0.6l0.2,1.1
														c-5,0.2-10,0.2-15-0.2c0,0-6.6-48.1-10.7-58.7C527,500.8,534.4,490.4,538.5,490.4z"/>
													<path class="st24" d="M556.7,569.2c0.5,0,1,0,1.6-0.1c-1-2-3.4-6-3.4-6S556.3,567.2,556.7,569.2z"/>
													<path class="st24" d="M577.2,562.4c-2.2-2.5-6.9-7.4-6.9-7.4s3.6,5.5,5.2,8.3c0-0.1-0.1-0.2-0.1-0.3
														C576,562.8,576.6,562.6,577.2,562.4z"/>
													<path class="st24" d="M536.7,519.1c-0.6-3.7,0.9-9.8,1.2-11.5c0.6-3.9-4.3-5.3-7.4-7.4c-0.9,3.4-1,7.3,0.6,11.2
														c4.1,10.6,10.7,58.7,10.7,58.7c2.6,0.2,5.2,0.3,7.7,0.3c-1.1-1-2-2.4-2.4-4C542.1,549.7,537.3,522.8,536.7,519.1z"/>
												</g>
											</g>
											<g>
												<g>
													<path class="st23" d="M455.6,490.4c-4.1,0-8.2,0.9-10.8,3.1c-2.6,2.3-3.9,5.1-5.2,7.9c-8.9,19.7-17.8,39.3-26.7,59
														c1.7,1.1,3.7,2,5.8,2.6c-0.3,0.8-0.5,1.6-0.8,2.4c3.4,1.2,5.2,2,10.6,3.3c2.5,0.6,6.3,0.4,8.9,0.6l-0.2,1.1
														c5,0.2,10,0.2,15-0.2c0,0,6.6-48.1,10.7-58.7C467,500.8,459.6,490.4,455.6,490.4z"/>
													<path class="st24" d="M437.3,569.2c-0.5,0-1,0-1.6-0.1c1-2,3.4-6,3.4-6S437.7,567.2,437.3,569.2z"/>
													<path class="st24" d="M416.8,562.4c2.2-2.5,6.9-7.4,6.9-7.4s-3.6,5.5-5.2,8.3c0-0.1,0.1-0.2,0.1-0.3
														C418,562.8,417.4,562.6,416.8,562.4z"/>
													<path class="st24" d="M457.3,519.1c0.6-3.7-0.9-9.8-1.2-11.5c-0.6-3.9,4.3-5.3,7.4-7.4c0.9,3.4,1,7.3-0.6,11.2
														c-4.1,10.6-10.7,58.7-10.7,58.7c-2.6,0.2-5.2,0.3-7.7,0.3c1.1-1,2-2.4,2.4-4C451.9,549.7,456.7,522.8,457.3,519.1z"/>
												</g>
											</g>
											<g>
												<g>
													<path class="st23" d="M545.9,638.1c-0.7-1.1-6.6-112.2-6.5-121.8c0-4.4,8.2-19.8,5.2-23.7c-3-3.9-26.1-9.1-29.9-10
														c-0.3-0.1-0.1,8.5-0.1,19.7c0,8.6-14.9,15.9-18.6,15.9c-3.8,0-18.6-6.9-18.6-15.7c0-11,0.3-19.5,0-19.4
														c-3.2,0.9-25.4,6.2-28,9.6c-3.1,3.9,5.2,19.4,5.2,23.7c0.1,9.7-5.8,120.8-6.5,121.8c-1.8,2.7,5.8,4,11.2,4.1
														c0,0,23.4,2.1,36.4,2.1c13.1,0,39-2.1,39-2.1C540.1,642.1,547.7,640.8,545.9,638.1z"/>
												</g>
												<g>
													<path class="st25" d="M503.2,515.6h36.2c0.7-5.1,8-19.3,5.1-23c-3-3.9-26.1-9.1-29.9-10c-0.3-0.1-0.1,8.5-0.1,19.7
														C514.6,507.9,508.6,512.8,503.2,515.6z"/>
													<path class="st25" d="M488.5,515.6c-5.3-2.8-11.2-7.6-11.2-13.2c0-11,0.3-19.5,0-19.4c-3.2,0.9-25.4,6.2-28,9.6
														c-2.9,3.7,4.4,18,5.1,23H488.5z"/>
												</g>
												<polygon class="st24" points="496.8,644.3 496.5,518.2 495.3,518.2 496.1,644.3 												"/>
												<polygon class="st24" points="481,515.6 482.4,515.6 480.8,630.1 												"/>
												<polygon class="st24" points="464.6,515.6 466,515.6 464.4,616.2 												"/>
												<polygon class="st24" points="528.3,515.6 529.6,515.6 528.1,620.8 												"/>
												<polygon class="st24" points="511.9,515.6 513.2,515.6 511.7,616.2 												"/>
											</g>
										</g>
									</g>
									<g id="XMLID_00000155834863653535210060000014559734089627266217_">
										<g>
											<g>
												<path class="st18" d="M528.8,441.9c-0.1,1.6-0.4,4.4-2.4,7.6c-1.2,2-4.1,6-5.4,5.4c-1.1-0.5-0.5-3.9,0.6-10.2
													c0.8-4.3,1.5-6.3,3.2-7.3c0.2-0.1,1.6-1,2.7-0.4C529,437.8,528.9,440.5,528.8,441.9z"/>
												<path class="st18" d="M465.3,440.2c-0.2,0.7-0.5,2.7,1.4,6.7c0.3,0.7,4,8,6.2,7.3c2.2-0.7,1.2-8.7,0.9-10.3
													c-0.7-5.4-2.3-6.6-3-7c-0.3-0.2-1.4-0.7-2.7-0.4C466,437,465.4,439.7,465.3,440.2z"/>
											</g>
											<path class="st18" d="M495.4,476c-1.2-0.1-2.5-0.1-4-0.4c-5.4-1.2-8.9-5.1-10.6-7.1c-2.2-2.5-3.4-4.9-4.1-6.4
												c-5.5-11.4-5.7-24.6-5.4-31.1c0,0,0.5-15.5,6.3-19.6c0.5-0.4,0.9-0.6,1.6-1c2.6-1.2,5.9-1.3,17.2-3.3
												c12.1-2.2,15-3.4,17.5-3c0.6,0.1,0.9,0.2,1.3,0.4c7.1,2.8,7.5,16.5,7.8,25.7c0.2,7,0.6,22.8-6.3,32.5
												c-1.2,1.7-3.3,4.1-5.3,6.2c-3.8,3.8-5.7,5.8-8.8,6.6C500,476.3,497.2,476.1,495.4,476z"/>
										</g>
									</g>
								</g>
								<path class="st26" d="M521,447.4c-0.7-0.2,2.9-7.4,0.1-15.1c-0.4-1.1-2.2-3.4-3.3-7.2c-0.3-1.1-0.5-2-0.6-2.6
									c-1-0.4-2.6-1.1-4.7-1.8c-9.9-3.1-19-2-27.8-0.8c-1.8,0.2-4.4,0.6-7.7,1.3c0.5,1.9,0.3,3.4,0.1,4.2
									c-0.3,1.2-0.9,2.2-1.5,3.3c-0.6,1-1,1.7-1.1,1.8c-2.4,3.5-1.8,16.9-2.2,16.9c-0.1,0-0.2-0.4-0.6-1.9
									c-0.3-1.3-0.7-2.3-0.8-2.9c-0.3-2-1.3-2.1-2.1-4.1c-0.4-1-0.6-1.9-0.7-2.5c0.1-1.2,0.1-2.9,0.2-5.1
									c0.5-11.3,0.4-12.3,0.9-14.5c0.6-3.2,1.5-7.4,4.7-11.1c3.6-4.1,8.1-5.4,12.7-6.7c4.7-1.4,8.5-1.5,12-1.6
									c5.5-0.2,8.2-0.3,11.3,0.8c6.3,2.2,9.6,7.5,10.7,9.4c0.2-0.1,0.5-0.3,0.9-0.4c2.2-0.4,5,2.8,6.2,5.7c1,2.5,0.4,6.5-0.8,14.6
									c-0.1,0.5-0.4,2.2-0.7,4.4c-0.5,3.3-0.8,4.9-0.9,5.3C524.1,442.3,521.7,447.6,521,447.4z"/>
							</g>
							<path class="st26" d="M489.3,439.5c0.1,0.2,0.3,0.5,0.4,0.9c0.1,0.7-0.1,1.2-0.2,1.4c-1.1-0.1-2.3-0.3-3.5-0.4
								c-0.3,0-2.2-0.2-3.7-0.2c-1.7-0.1-4.3-0.1-7.7,0.3c1.4-0.8,1.2-2.1,4.3-2.6C482.3,438.4,487.6,439,489.3,439.5z"/>
							<path class="st26" d="M510.4,439c3,0.5,2.5,1.5,3.9,2.3c-3.4-0.4-6-0.4-7.6-0.3c-1.6,0.1-3.4,0.2-3.7,0.2
								c-1.2,0.1-2.3,0.2-3.4,0.4c-0.1-0.2-0.3-0.7-0.2-1.4c0.1-0.4,0.3-0.7,0.4-0.9C501.4,438.9,507,438.5,510.4,439z"/>
							<g>
								<g>
									<path class="st21" d="M486.8,448.5c-0.4,0.4-1.6,1.3-3.2,1.5c-2.6,0.3-4.4-1.3-4.7-1.6c0.1-0.1,1.4-2.2,4-2.2
										C485.4,446.2,486.7,448.3,486.8,448.5z"/>
								</g>
								<g>
									<path d="M486.8,448.5c-0.4-0.4-1.8-1.3-3.9-1.4c-2.1-0.1-3.6,0.9-4.1,1.3c0.8-1.4,2.4-2.3,4.1-2.2
										C485.4,446.1,486.7,448.4,486.8,448.5z"/>
								</g>
								<g>
									<path class="st27" d="M483.3,447.1c-0.6-0.1-1.1,0-1.5,0c-0.6,0.8-0.4,1.9,0.3,2.5c0.7,0.5,1.6,0.4,2.2-0.2
										c0.5-0.5,0.6-1.4,0.2-2C484.2,447.2,483.8,447.1,483.3,447.1z"/>
								</g>
								<g>
									<path d="M483.1,447.6c-0.4,0-0.7,0.2-0.8,0.6c-0.1,0.5,0.1,0.9,0.4,1.1c0.5,0.2,1.2-0.1,1.2-0.7
										C484,448.1,483.6,447.6,483.1,447.6z"/>
								</g>
								<g>
									<path class="st28" d="M482.7,447.6c-0.1,0-0.2,0.1-0.3,0.2c0,0.1,0,0.3,0.2,0.3c0.1,0.1,0.3,0,0.4-0.2
										C483,447.8,482.8,447.6,482.7,447.6z"/>
								</g>
							</g>
							<g>
								<g>
									<path class="st21" d="M506,446.3c1.3-0.1,2.2,0.4,2.6,0.6c1,0.5,1.5,1.2,1.7,1.6c-0.3,0.3-2.2,2-4.8,1.7
										c-1.8-0.2-3-1.2-3.4-1.6C502.2,448.4,503.6,446.4,506,446.3z"/>
								</g>
								<g>
									<path d="M505.1,446.4c1.9-0.4,4,0.4,5.2,2.1c-0.5-0.3-2.2-1.5-4.7-1.3c-1.8,0.2-3.1,1-3.6,1.5
										C502.3,448.3,503.2,446.8,505.1,446.4z"/>
								</g>
								<g>
									<path class="st27" d="M504.3,447.5c-0.4,0.7-0.3,1.5,0.2,2c0.6,0.6,1.6,0.7,2.2,0.2c0.7-0.5,0.9-1.7,0.3-2.5
										c-0.4,0-0.8-0.1-1.3,0C505.1,447.2,504.3,447.5,504.3,447.5z"/>
								</g>
								<g>
									<path d="M505,448.7c0.1,0.5,0.7,0.7,1.1,0.6c0.3-0.1,0.5-0.5,0.5-0.9c-0.1-0.4-0.5-0.6-0.8-0.6
										C505.3,447.8,504.9,448.3,505,448.7z"/>
								</g>
								<g>
									<path class="st28" d="M505.9,448.1c0,0.2,0.2,0.2,0.4,0.2c0.1,0,0.2-0.2,0.2-0.3c0-0.1-0.2-0.2-0.3-0.2
										C506,447.8,505.9,447.9,505.9,448.1z"/>
								</g>
							</g>
							<g>
								<g>
									<g>
										<g class="st29">
											<polygon class="st28" points="489.4,453.8 475.8,453.8 474.3,444.9 490.9,444.9 490.4,448.1 490.3,448.6 											"/>
										</g>
										<g>
											<path class="st30" d="M489.7,454.2h-14.2l-1.6-9.7h17.5L489.7,454.2z M476.1,453.5h13l1.4-8.2h-15.7L476.1,453.5z"/>
										</g>
									</g>
									<g>
										<g class="st29">
											<polygon class="st28" points="513.2,453.1 499.6,453.1 498.1,444.2 514.7,444.2 											"/>
										</g>
										<g>
											<path class="st30" d="M513.5,453.5h-14.2l-1.6-9.7h17.5L513.5,453.5z M499.9,452.7h13l1.4-8.2h-15.7L499.9,452.7z"/>
										</g>
									</g>
								</g>
								<g>
									<g>
										<path class="st30" d="M490.6,448.9l-0.3-0.6c0,0,4-4.3,8.5-0.4l-0.3,0.7C494.5,445.1,490.8,448.7,490.6,448.9z"/>
									</g>
								</g>
								<g>
									<polygon class="st30" points="474.7,449.2 468.6,438.1 468.1,436 475.3,448.8 									"/>
								</g>
								<g>
									<polygon class="st30" points="514.5,448.4 514,447.8 525.3,436.2 525.1,437.3 									"/>
								</g>
							</g>
							<path class="st31" d="M489.6,465.6c0,0.4,2.5,0.8,4,1c4.2,0.5,8.2-0.5,8.1-0.9c0-0.2-1.2-0.3-2.9-0.5
								C494.7,464.9,489.7,465.1,489.6,465.6z"/>
							<g>
								<path class="st19" d="M495.8,462.2c-1.3,0-2.5-0.9-2.5-1.2c0-0.2,0.9,0.2,2.7,0.1c1.7,0,2.6-0.4,2.6-0.2
									C498.6,461.1,497.3,462.2,495.8,462.2z"/>
							</g>
							<path class="st32" d="M490.6,495c1.6,2.3,3.1,4.6,4.7,6.9c-1.9,7.2-3.7,15.7-4.6,25.4c-1.2,12.4-0.8,23.4,0.1,32.3
								c4.5,0,9.1,0.1,13.6,0.1c0.9-8.5,1.3-19.6-0.4-32.2c-1.3-10-3.6-18.6-5.9-25.6c1.8-2.1,3.7-4.3,5.5-6.4
								c-1.1-1.7-2.2-3.4-3.3-5.2c-1.1-1.7-2.2-3.5-3.4-5.2C494.9,488.4,492.8,491.7,490.6,495z"/>
							<path class="st26" d="M495.5,463.2c0,0.3,0,0.6,0,0.9c0,0.3-0.1,0.6-0.1,0.9c-1.5,0-2.7,0-3.6,0.1c-2,0.2-2.7,0.4-3.2,0.7
								c-0.7,0.3-1.2,0.7-1.5,1c0.4-0.7,0.7-1.4,1.1-2.1c0.6-0.3,1.3-0.7,2.2-1C492.4,463,494.3,463,495.5,463.2z"/>
							<path class="st26" d="M495.9,463.3c-0.1,0.3-0.1,0.7-0.1,1.1c0,0.2,0,0.3,0,0.5c1.5,0,2.8,0.1,3.8,0.2
								c1.7,0.2,2.5,0.3,3.2,0.7c0.7,0.3,1.2,0.7,1.5,1c-0.4-0.7-0.7-1.4-1.1-2.1c-0.6-0.3-1.3-0.7-2.2-1
								C498.9,463,497,463.1,495.9,463.3z"/>
						</g>
					</g>
					<g>
						<path class="st24" d="M554.2,560.8c-1.7-1.9-5.3-5.7-5.3-5.7s2.8,4.2,4,6.4c0-0.1-0.1-0.2-0.1-0.3
							C553.3,561.1,553.7,560.9,554.2,560.8"/>
					</g>
					<g>
						<path class="st24" d="M431.1,560.8c1.7-1.9,5.3-5.7,5.3-5.7s-2.8,4.2-4,6.4c0-0.1,0.1-0.2,0.1-0.3
							C432,561.1,431.5,560.9,431.1,560.8"/>
					</g>
				</g>
				<g>
					<path class="st22" d="M494.1,581.1c0,1-0.8,1.9-1.9,1.9c-1,0-1.9-0.8-1.9-1.9c0-1,0.8-1.9,1.9-1.9
						C493.3,579.2,494.1,580,494.1,581.1"/>
				</g>
				<g>
					<path class="st22" d="M494.1,600.2c0,1-0.8,1.9-1.9,1.9c-1,0-1.9-0.8-1.9-1.9s0.8-1.9,1.9-1.9
						C493.3,598.4,494.1,599.2,494.1,600.2"/>
				</g>
				<g>
					<path class="st24" d="M538.1,566.6c0.4,0,0.8,0,1.2,0c-0.8-1.6-2.6-4.6-2.6-4.6S537.8,565.1,538.1,566.6"/>
				</g>
				<g>
					<path class="st24" d="M553.8,561.4c-1.7-1.9-5.3-5.7-5.3-5.7s2.8,4.2,4,6.4c0-0.1-0.1-0.2-0.1-0.3
						C552.9,561.7,553.3,561.5,553.8,561.4"/>
				</g>
				<g>
					<path class="st24" d="M446.4,566.6c-0.4,0-0.8,0-1.2,0c0.8-1.6,2.6-4.6,2.6-4.6S446.7,565.1,446.4,566.6"/>
				</g>
				<g>
					<path class="st24" d="M430.7,561.4c1.7-1.9,5.3-5.7,5.3-5.7s-2.8,4.2-4,6.4c0-0.1,0.1-0.2,0.1-0.3
						C431.6,561.7,431.1,561.5,430.7,561.4"/>
				</g>
				<g>
					<rect x="280.1" y="560.3" class="st33" width="429.1" height="168.8"/>
				</g>
				<g>
					<rect x="280.1" y="560.3" class="st34" width="429.1" height="19.8"/>
				</g>
				<g>
					<path class="st35" d="M484.2,586.5h-189c-2.3,0-4.2,1.9-4.2,4.2V716c0,2.3,1.9,4.2,4.2,4.2h189c2.3,0,4.2-1.9,4.2-4.2V590.7
						C488.4,588.4,486.5,586.5,484.2,586.5"/>
				</g>
				<g>
					<path class="st34" d="M479.2,591.2H299.9c-2.3,0-4.2,1.9-4.2,4.2v116c0,2.3,1.9,4.2,4.2,4.2h179.4c2.3,0,4.2-1.9,4.2-4.2v-116
						C483.4,593,481.5,591.2,479.2,591.2"/>
				</g>
				<path class="st35" d="M500.8,590.7V716c0,2.3,1.9,4.2,4.2,4.2h189c2.3,0,4.2-1.9,4.2-4.2V590.7c0-2.3-1.9-4.2-4.2-4.2H505
					C502.7,586.5,500.8,588.4,500.8,590.7"/>
				<g>
					<path class="st34" d="M506.1,595.3v116c0,2.3,1.9,4.2,4.2,4.2h179.1c2.3,0,4.2-1.9,4.2-4.2v-116c0-2.3-1.9-4.2-4.2-4.2H510.3
						C508,591.2,506.1,593,506.1,595.3"/>
				</g>
				<g>
					<path class="st36" d="M276.7,567.4v4.4c0,2.4,2,4.4,4.4,4.4h427c2.4,0,4.4-2,4.4-4.4v-4.4H276.7z"/>
				</g>
				<g>
					<path class="st36" d="M473,598.5H310.5c-2.1,0-3.8,1.7-3.8,3.8v105.1c0,2.1,1.7,3.8,3.8,3.8H473c2.1,0,3.8-1.7,3.8-3.8V602.3
						C476.8,600.2,475.1,598.5,473,598.5"/>
				</g>
				<path class="st33" d="M470.8,597H308.3c-2.1,0-3.8,1.7-3.8,3.8v105.1c0,2.1,1.7,3.8,3.8,3.8h162.5c2.1,0,3.8-1.7,3.8-3.8V600.8
					C474.6,598.7,472.9,597,470.8,597"/>
				<g>
					<path class="st37" d="M425.3,597h-117c-2.1,0-3.8,1.7-3.8,3.8v66.6C410.7,667.1,423.8,614.4,425.3,597"/>
				</g>
				<g>
					<path class="st36" d="M683.3,598.5H520.8c-2.1,0-3.8,1.7-3.8,3.8v105.1c0,2.1,1.7,3.8,3.8,3.8h162.5c2.1,0,3.8-1.7,3.8-3.8
						V602.3C687.1,600.2,685.4,598.5,683.3,598.5"/>
				</g>
				<path class="st33" d="M681.1,597H518.6c-2.1,0-3.8,1.7-3.8,3.8v105.1c0,2.1,1.7,3.8,3.8,3.8h162.5c2.1,0,3.8-1.7,3.8-3.8V600.8
					C684.9,598.7,683.2,597,681.1,597"/>
				<g>
					<path class="st37" d="M635.5,597h-117c-2.1,0-3.8,1.7-3.8,3.8v66.6C621,667.1,634.1,614.4,635.5,597"/>
				</g>
				<g>
					<path class="st38" d="M540.5,617.4h-91.7c-7.8,0-14.2-6.4-14.2-14.2S441,589,448.8,589h91.7c7.9,0,14.2,6.4,14.2,14.2
						C554.7,611.1,548.3,617.4,540.5,617.4"/>
				</g>
				<path class="st39" d="M551.7,603.2c0,6.3-5.1,11.5-11.5,11.5h-91.1c-5.3,0-9.7-3.5-11.1-8.4c-0.2-0.8-0.4-1.7-0.4-2.5
					c0-0.2,0-0.4,0-0.6s0-0.4,0-0.6c0.3-6.1,5.3-10.9,11.5-10.9h91.1C546.5,591.7,551.7,596.9,551.7,603.2z"/>
				<g>
					<path class="st38" d="M469.7,610.6v-1.9c0.2,0,0.4,0,0.7,0c0.4,0,0.7-0.1,0.9-0.3c0.2-0.2,0.3-0.5,0.3-1v-9.9h2v9.8
						c0,2.2-1,3.3-2.9,3.3C470.3,610.6,469.9,610.6,469.7,610.6"/>
				</g>
				<g>
					<path class="st38" d="M478.2,607.5v-9.9h2v10c0,0.8,0.4,1.3,1.1,1.3s1.1-0.4,1.1-1.3v-10h2v9.9c0,1-0.3,1.8-0.8,2.4
						c-0.5,0.6-1.3,0.8-2.3,0.8s-1.8-0.3-2.3-0.8C478.5,609.3,478.2,608.5,478.2,607.5"/>
				</g>
				<g>
					<path class="st38" d="M489,610.6v-13h3.2c1,0,1.8,0.3,2.3,0.8s0.8,1.3,0.8,2.4v6.6c0,1-0.3,1.8-0.8,2.4s-1.3,0.8-2.3,0.8H489z
						 M491,608.7h1.2c0.3,0,0.6-0.1,0.8-0.3c0.2-0.2,0.3-0.5,0.3-1v-6.8c0-0.4-0.1-0.8-0.3-1c-0.2-0.2-0.4-0.3-0.8-0.3H491V608.7z"
						/>
				</g>
				<g>
					<path class="st38" d="M499.7,607.5v-6.8c0-1,0.3-1.8,0.8-2.4c0.5-0.6,1.3-0.8,2.3-0.8s1.8,0.3,2.3,0.8c0.5,0.6,0.8,1.4,0.8,2.4
						v1.3h-2v-1.4c0-0.9-0.3-1.3-1-1.3c-0.8,0-1.2,0.4-1.2,1.3v7c0,0.8,0.4,1.3,1.2,1.3c0.6,0,1-0.4,1-1.3v-2.4H503v-1.9h2.9v4.1
						c0,1-0.3,1.8-0.8,2.4c-0.5,0.6-1.3,0.8-2.3,0.8s-1.8-0.3-2.3-0.8C499.9,609.3,499.7,608.5,499.7,607.5"/>
				</g>
				<g>
					<polygon class="st38" points="510.3,610.6 510.3,597.6 515.9,597.6 515.9,599.4 512.4,599.4 512.4,603.1 515.2,603.1 
						515.2,604.9 512.4,604.9 512.4,608.7 515.9,608.7 515.9,610.6 					"/>
				</g>
			</g>
			<g>
				<path class="st40" d="M657.8,632.8c-4.9-2.1-9.2-4.3-13-6.5c-0.8,1.2-1.5,2.4-2.3,3.6c-7.9-4.2-16.3-9.2-25-15.1
					c-8.8-5.9-16.7-11.8-23.7-17.5c-2.1,1.6-4.3,3.3-6.5,5.1c-2,1.7-4,3.4-5.8,5.1c9.3,10.2,17.8,19.2,25.5,27.4
					c2.2,2.3,12,12.8,22.3,20.7c0.3,0.2,0.9,0.7,1.8,1.3c6.8,5.1,12.8,9,17.6,11.9c2.8,1.7,6.5,1,8.5-1.7c3.6-4.9,6.3-7.8,12-18.1
					c1.8-3.2,3.9-6.7,6.5-10.5C670.6,637.5,664.4,635.6,657.8,632.8z"/>
				<g>
					<g>
						<path class="st40" d="M593.5,596.7c0,0-3-4.2-4.1-7.6c-0.3-0.9-0.5-1.9-0.5-1.9c-0.4-1.4-0.6-2.6-0.7-3.5
							c-1.6-0.5-3.4-1.2-5.4-2.2c-2.4-1.3-4.3-2.7-5.7-3.9l-2-1.1c-19.2-13.1-24.6-14.5-25.8-13.3c-0.1,0.1-0.7,0.8-0.8,1.7
							c-0.1,1.7,1.8,3.1,3.9,4.5c4.8,3.2,9.1,5.9,10.4,6.7c-1.1-0.5-2.4-0.4-3.3,0.2c-1.2,0.9-1.6,2.6-0.9,4
							c-0.2,0.1-1.3,0.7-1.7,1.9c-0.6,1.5,0.1,2.8,0.2,3c-0.4,0.7-1,2-1,3.7c0.1,3.8,3.5,5.9,3.8,6.1c2.8,3,7.4,7.1,13.9,10.1
							c2.8,1.3,5.5,2.1,7.8,2.7c2.9,2.6,5.7,5.1,8.6,7.7c3.7-3.5,7.3-7,11-10.5C598.7,602.1,596.1,599.4,593.5,596.7z"/>
						<g>
							<path class="st41" d="M565.1,594.8c1.3-1.2,0.9-3.9,0.7-3.9c-0.2,0-0.4,0.4-0.4,1.2c0,0.3-0.2,1.1-0.8,1.8
								c-1.1,1.3-2.7,1.1-2.9,1.1c0.2,0.1,0.4,0.3,0.8,0.4C563.5,595.7,564.5,595.4,565.1,594.8z"/>
							<path class="st41" d="M567.3,590.7c1.1-0.7,2.1-4.2,0.4-4.5c-0.8,0.8,1,2.5-1.4,4c-1.6,0.9-3.4-0.2-4.6-1.1
								c-0.7-0.6-1.4-1.2-2.1-1.8c1.6,2.9,4,4.5,6.1,4.2C566.1,591.4,566.6,591.2,567.3,590.7z"/>
							<path class="st41" d="M570.1,586.2c0.6-0.7,0.6-1.4,0.7-1.8c0.1-2.1-1.4-3.6-1.8-4c-0.5-0.5-1.2-1-2.2-1.4
								c-0.2-0.1-0.7-0.3-0.7-0.2c-0.1,0.1,1.6,0.9,2.7,2.4c0.3,0.5,1.7,2.4,1,3.8c-0.5,0.9-1.8,1.2-2.5,1.2c-0.3,0-0.9-0.1-1.5-0.5
								c0,0,0,0,0,0c-1-0.8-4.2-3.5-4.3-3.4c-0.1,0.1,1.8,2.6,4.4,4.2c0.4,0.3,1.1,0.7,2,0.7C568.3,587.1,569.4,587.1,570.1,586.2z"
								/>
							<path class="st41" d="M580.3,594.7c-1.3-2-3.6-6.1-3.8-11.5c-0.1-2.2,0.2-4.1,0.5-5.6c-0.2-0.1-0.4-0.2-0.6-0.4
								c-0.5,1.6-1.8,6.1,0,11.2C577.5,591.4,579.2,593.5,580.3,594.7z"/>
						</g>
					</g>
					<path class="st40" d="M578.6,574.8c0,0.2,0.2,1.5-0.7,2.3c-0.3,0.2-0.5,0.3-0.8,0.4c1.8,1.4,3.6,2.9,5.6,4.3
						c2,1.5,3.9,2.9,5.8,4.2c-0.1-2.7-1.7-8.4-2.2-10.1c-0.7-2.1-3.9-11.2-3.7-13.3c0-0.1,0-0.8-0.3-1.5c-0.2-0.5-0.7-0.9-1.2-0.9
						c-0.3,0-0.5,0.1-0.7,0.2c-1.2,0.7-2.8,5.1-2.9,5.5c-0.1,1.1,0,2.3,0.1,3.7C577.7,571.7,578.1,573.4,578.6,574.8z"/>
				</g>
				<g>
					<path class="st42" d="M765.8,656.9c22.1,47.3,27.5,92,28.6,138.1c-2-3.4-10.8-8.8-27.6-0.9"/>
					<g>
						<g>
							<path d="M742.8,968.5c1.9,1.4,3.7,6,1.3,8.8c-2.4,2.8-39.7,11.6-49,12.1c-4.8,0.2-9.9-1.2-12.5-4.3c-1.4-1.7-0.9-4.2,1.1-5.2
								c5.4-2.8,17.1-7.1,18.3-7.4C703.5,972.1,742.8,968.5,742.8,968.5z"/>
							<path class="st40" d="M740.5,962.8c2.2,4.4,1.9,7.3,1.4,9c-0.8,2.6-3.3,7.2-44.7,12.8c-3.2,0.4-6.4,0.1-9.4-0.9
								c-1.8-0.6-3.6-1.1-4.4-2.7c-0.5-1.1-0.3-2.1-0.3-2.4c0.3-1.2,1.1-2.3,2.3-2.9c0.6-0.3,1.3-0.7,1.9-1.1c0.4-0.2,0.8-0.4,1-0.6
								c2.8-1.7,5.7-3.3,8.5-5c3.1-1.9,6.2-4,9.1-6.4c3.3-2.8,5.5-4.8,7-7.8c2.2-4.6,1.5-9.2,1.1-11.2c-3.7-23.7-6-47.6-9.3-71.4
								c-0.9-6.6-2-16.3-2.6-28.3c9.8,0,19.6,0,29.4,0c1.1,3.2,2.5,7.7,3.8,13.2c3.6,15,4.1,28,3.9,36.7
								c-0.4,16.2-3.5,33.4-3.8,47.9c-0.1,4.7,0.3,7.9,1.2,11.5C737.9,957.5,739.4,960.8,740.5,962.8z"/>
							<path d="M709.6,985.8c-0.8-1.8-4.4-9.3-12.4-12c-2.4-0.8-4.7-1-6.5-1c1-1,2.2-2,3.6-2.9c3-2.2,5.9-3.6,8.3-4.5
								c2.3,0.4,5.2,1.3,8.3,3c7.4,4.1,10.9,10.7,12.1,13.5C718.6,983.2,714.1,984.5,709.6,985.8z"/>
						</g>
						<g>
							<path d="M785.4,972.1c1.9,1.4,3.7,6,1.3,8.8c-2.4,2.8-39.7,11.6-49,12.1c-4.8,0.2-9.9-1.2-12.5-4.3c-1.4-1.7-0.9-4.2,1.1-5.2
								c5.4-2.8,17.1-7.1,18.3-7.4C746.1,975.8,785.4,972.1,785.4,972.1z"/>
							<path class="st40" d="M783.2,966.5c2.2,4.4,1.9,7.3,1.4,9c-0.8,2.6-3.3,7.2-44.7,12.8c-3.2,0.4-6.4,0.1-9.4-0.9
								c-1.8-0.6-3.6-1.1-4.4-2.7c-0.5-1.1-0.3-2.1-0.3-2.4c0.3-1.2,1.1-2.3,2.3-2.9c0.6-0.3,1.3-0.7,1.9-1.1c0.4-0.2,0.8-0.4,1-0.6
								c2.8-1.7,5.7-3.3,8.5-5c3.1-1.9,6.2-4,9.1-6.4c3.3-2.8,5.5-4.8,7-7.8c2.2-4.6,1.5-9.2,1.1-11.2c-3.7-23.7-6-47.6-9.3-71.4
								c-0.9-6.6-2-16.3-2.6-28.3c9.8,0,19.6,0,29.4,0c1.1,3.2,2.5,7.7,3.8,13.2c3.6,15,4.1,28,3.9,36.7
								c-0.4,16.2-3.5,33.4-3.8,47.9c-0.1,4.7,0.3,7.9,1.2,11.5C780.6,961.1,782.1,964.4,783.2,966.5z"/>
							<path d="M752.3,989.5c-0.8-1.8-4.4-9.3-12.4-12c-2.4-0.8-4.7-1-6.5-1c1-1,2.2-2,3.6-2.9c3-2.2,5.9-3.6,8.3-4.5
								c2.3,0.4,5.2,1.3,8.3,3c7.4,4.1,10.9,10.7,12.1,13.5C761.2,986.8,756.8,988.1,752.3,989.5z"/>
						</g>
						<path class="st21" d="M683.3,748.3c-0.3,27.5,0.5,49.3,1.4,64.4c0,0,0.6,10.2,4.6,36.7c1,6.8,2.2,13.9,6.2,22.4
							c2.6,5.5,5.3,11.1,10.4,15c12.5,9.7,31.3,3,34,2c0.1-2.1,0.3-4.3,0.3-6.6c0.2-6.7,0-13-0.4-18.9c2.6,8.7,5.3,17.4,7.9,26.1
							c1.9,0.8,16.2,6.8,29.4-0.7c5.4-3.1,8.7-7.4,10.5-10.2c3.5-17.6,6.3-38.9,6.5-63.1c0.3-36.8-5.6-67.8-11.9-90.8
							c-14.2-0.1-33.2,1.1-54.7,6.7C709.4,736.1,694.6,742.5,683.3,748.3z"/>
						<g>
							<path class="st20" d="M739.8,840.3c5.1,3.7,9.8,7.3,15.1,10.5c5.3,3.2,10.7,5.6,16.4,8.3
								C758.4,860.3,744.8,852.2,739.8,840.3L739.8,840.3z"/>
						</g>
						<g>
							<path class="st20" d="M737.8,846.7c3.8,5.1,7.2,9.9,11.4,14.4c4.2,4.6,8.6,8.5,13.3,12.7
								C749.9,871.2,739.2,859.6,737.8,846.7L737.8,846.7z"/>
						</g>
						<g>
							<path class="st20" d="M743.1,828.4c6.1,5,12,9.5,19.2,12.7c2.3,1.1,4.7,2,7.3,3.1C758.6,847,746,839.3,743.1,828.4
								L743.1,828.4z"/>
						</g>
						<g>
							<path class="st20" d="M727.5,846.4c0.4,10.7-11.2,19.3-21.4,17.7c4.2-2.6,8.1-4.7,11.8-7.6
								C721.6,853.5,724.5,850.3,727.5,846.4L727.5,846.4z"/>
						</g>
						<g>
							<path class="st20" d="M722.4,837.6c1.1,9.9-9.2,18.1-18.4,18.3C710.5,849.8,717.4,845.2,722.4,837.6L722.4,837.6z"/>
						</g>
						<g>
							<path class="st20" d="M731.8,851.6c2.7,9.8-6.6,19.7-15.8,21.6C721.5,865.9,728,860.2,731.8,851.6L731.8,851.6z"/>
						</g>
						<path class="st43" d="M739.6,747.3c1.2,32.3,2.4,64.6,3.6,96.9c-0.6,1.3-2.7,5.6-7,7.1c-5.1,1.8-11.1-0.9-15-7
							c-4.4-23.4-7.6-51.1-7.1-82c0.1-8,0.5-15.7,1-23.1C723.4,742,731.5,744.7,739.6,747.3z"/>
					</g>
					<g>
						<path class="st44" d="M643.6,623c11.6,6,23.2,12.1,34.9,18.1c9.3-20.4,18.7-40.8,28-61.2c-1.8-3.6-5.8-10.3-13.5-15.6
							c-5.2-3.6-10.1-5.3-13.5-6.1c-0.3,0.3-0.6,0.6-0.8,1c-0.4,0.5-0.7,1-1,1.4c-5,9.5-10.1,19-15.3,28.6
							C656.1,600.6,649.9,611.9,643.6,623z"/>
						<path class="st42" d="M646.6,611.9c4.9,2.7,10.1,5.5,15.6,8.2c9,4.3,17.6,7.8,25.6,10.7c-3.1,4.6-6.2,9.2-9.3,13.8
							c-7.4-3.1-15.1-6.4-23-10.1c-5.8-2.8-11.5-5.5-16.9-8.3C641.3,621.4,643.9,616.7,646.6,611.9z"/>
					</g>
					<path class="st40" d="M696.7,567.3c1.2,18.1,19.9,30.7,37.3,29.5c17.9-1.3,34.5-17.3,32.6-34.6c-1.7-16.1-18.7-24.4-19.9-24.9
						c-3.1-1.6-12.9-5.9-24.3-3C708.4,537.9,695.7,551.6,696.7,567.3z"/>
					<path class="st44" d="M782.2,702c2.8,14.5,5.4,30,7.5,46.4c2.1,16.3,3.6,31.9,4.6,46.6c0.5,0,1.5,0.1,2.6-0.5
						c1.3-0.6,1.9-1.5,2.1-1.9c-5.9-37.5-11.7-75-17.6-112.5"/>
					<path class="st44" d="M680,796.6c11.6,3.6,30.3,7.9,46.5,8.7c26.5,1.3,48-4.4,61.6-9.3c-1-14.6-2.2-27.3-3.3-37.7
						c-3.6-34.5-7.3-55.6-8.4-61.4c-0.8-4.3-1.5-7.9-1.9-10.3c-1.4-6.3-3.2-12.5-4.4-18.8c-1.5-7.5-1.2-14.9,0.3-22
						c1.6-7.8,4.8-15.4,8.6-22.7c5.7-10.7,7.3-15.4,7.8-18.6c0.6-3.3,0.8-5.9,0.9-7.3c0.1-1.3,0.1-2.6,0.2-4
						c0.6-13.4,0.7-29.8,0.8-36.7c-0.2-1.4-0.6-3.4-1.9-5.4c-2.3-3.8-6.5-7-26.7-11.8c-3.3-0.8-7.7-1.8-13.1-2.8
						c-0.9-0.4-1.9-0.8-2.9-1.3c-1.5-0.7-2.9-1.5-4.1-2.2c-0.1,1.1-0.3,2.6-0.7,4.3c0,0-1.3,5-4.5,9.6c-5.6,8-15.6,11.5-17.2,12
						c-1.1,3.9-2.2,8.2-2.9,13c-0.4,2.7-0.7,5.3-0.9,7.8c-0.8-6.5-1.7-12.9-2.5-19.4c-1.2-1-2.8-2.7-3.9-5c-3.1-6.4-0.2-12.7,0.3-14
						c-6,4.3-11.5,7.1-15.1,9.1c-5.3,2.9-10.2,5-12.8,7.7c-1.2,1.2-2,2.5-2.1,4.1c-0.1,0.8,0.1,1.4,0.2,1.8c2.9,27,5,49.6,6.5,66.1
						c3,34.4,3.3,40.1,2.8,45.8c-2.2,25.4-3.8,37.7-5.4,56.1c-1,11.8-1.5,17.7-1.9,25.1c-0.1,1.2-0.1,2.5-0.1,3.7
						C679.1,774.6,679.4,786.7,680,796.6z"/>
					<g>
						<path class="st42" d="M711.1,560.4c4.1,18.5,5.3,37.6,4.4,56.5c0,0,0,0.5,0,0.5l-0.5,0c-2.8-0.2-5.6-0.4-8.4-0.6
							c2.8-0.2,5.6-0.2,8.5-0.4l-0.5,0.5C714.1,598.3,712.7,578.9,711.1,560.4L711.1,560.4z"/>
					</g>
					<path class="st42" d="M709.5,607.2c-0.2,0.5-0.2,1.1,0,1.5c0.4,0.7,1.2,1,1.8,0.7c0.5-0.2,0.9-0.7,0.9-1.4
						c0-0.8-0.6-1.4-1.2-1.6C710.5,606.4,709.8,606.6,709.5,607.2z"/>
					<path class="st42" d="M708.7,592.7c-0.2,0.5-0.2,1.1,0,1.5c0.4,0.7,1.2,1,1.8,0.7c0.5-0.2,0.9-0.7,0.9-1.4
						c0-0.8-0.6-1.4-1.2-1.6C709.7,591.8,709,592,708.7,592.7z"/>
					<path class="st42" d="M708.1,577.6c-0.2,0.5-0.2,1.1,0,1.5c0.4,0.7,1.2,1,1.8,0.7c0.5-0.2,0.9-0.7,0.9-1.4
						c0-0.8-0.6-1.4-1.2-1.6C709,576.7,708.4,577,708.1,577.6z"/>
					<path class="st45" d="M689,554.4c0.4-5.5,4.3-6,5.6-5.6c1.2-2.6,3.2-3.8,5.5-2.9c0.4-1.9,3.9-3.3,4.9-2.5
						c0,8.9,3.2,94.4,12.9,125.8c0.5,2.9-16.4,12.2-22.8,6.9C694.2,672.1,684.9,579,689,554.4z"/>
					<path class="st40" d="M789,725.1c-0.8,3-1.6,6-2.4,9c0.6,2.4,1.3,5.8,1.2,10c0,2.4,0.4,5.5-1.1,8.8c-2.4,5.4-3.2,8.9-7,10.7
						c-0.5,0.6-1.4,1.6-2.7,2.4c-1.8,1-3.5,1.3-4.4,1.3c-7.2,1.4-9.2,0.9-9.6,0c-0.3-0.7,0.3-2,1.1-2.7c0.7-0.7,1.5-0.8,2.3-1.1
						c2-0.8,3.2-2.5,3.9-3.6c2.1-3,1.8-6.5,1.6-7.6c-0.1-0.7-0.5-4.8-1.9-5c-0.3,0-0.8,0.1-1.6,1.3c-0.3,1.4-0.7,3.1-1.5,5
						c-0.5,1.3-1.1,2.3-1.7,3.3c-0.3,0.3-3.8,3.4-5.2,3.4c-0.3,0-0.5,0-0.8-0.1c-0.5-0.2-0.7-0.8-0.6-1.3c0-0.8,0.4-1.4,0.4-1.5
						c1.1-1.7,2.7-11.3,3.1-13.5c0.7-3.6,2.8-8.7,9-15.3c0-3.2,0.1-6.3,0.1-9.5C777.2,721,783.1,723.1,789,725.1z"/>
					<path class="st40" d="M758.2,575.7c-3.5,19.8,4.2,48.5,5.3,52.2c2.1,7.3,5.3,17.5,10.2,29.5c-0.7,10.1-1.3,20.4-1.7,31
						c-0.5,13.8-0.8,27.2-0.8,40.2c2.6,1,5.2,1.9,7.9,2.9c2.5,0.9,5,1.8,7.5,2.7c3.3-11.4,7.6-27.4,11.1-46.8
						c2.6-14.1,4.1-21.9,4.8-32.8c0.7-10.4-5.7-29.5-7.9-68.4c0,0-2.9-22.2-13.9-30.5c-2.2-1.7-4.4-1.7-4.4-1.7
						c-1.6,0-3.2,0.7-4.9,2C768.8,557.7,760.7,561.7,758.2,575.7z"/>
					<path class="st44" d="M806,640.8c-5.1,2-11.1,3.9-17.9,5.4c-9.6,2.1-18.2,2.9-25.3,3c-4.7-16.6-8-30.8-10.3-41.7
						c-3.8-18.3-4.5-25.8-2.7-34.8c0.7-3.7,5-23.3,15.7-25.5c3.9-0.8,10,0.4,12.8,1c3.5,0.7,6.3,1.7,8.2,2.4
						c1.3,3.7,3.4,9.6,5.5,17.1c3.9,13.9,5.1,22.8,9.4,47.6C802.4,621,804,629.8,806,640.8z"/>
					<path class="st42" d="M805.5,628.7c-6.4,1.4-13.2,2.8-20.3,4c-9,1.5-17.7,2.7-25.8,3.5c1.3,5.2,2.6,10.4,3.9,15.5
						c6.4,0.4,14.7,0.3,24.4-1.6c8.5-1.6,15.6-4.2,21-6.5C807.6,638.7,806.5,633.7,805.5,628.7z"/>
					<path class="st42" d="M711.1,560.4c-1.2-1.2-3.5-3.7-4.6-7.7c-1.6-5.5,0.4-9.9,1-11.3c-0.8,0.5-1.9,1-2.7,1.6
						c-1,0.4-1.3,4-1.5,5.2c-0.6,3.7,0.1,4.8,1,14.4c0.3,2.8,0.4,5,1.1,5.1c0.4,0.1,0.6-1.4,2.2-3.3c0.6-0.7,0.9-1.1,1.4-1.5
						c0.8-0.7,1.5-0.9,1.9-1.8C711.1,560.8,711.1,560.5,711.1,560.4z"/>
					<g>
						<path class="st40" d="M706.7,547.9c10.5,8.2,36.4-11.8,35.4-12.4c-6.5-4.2-6.3-15.3-5.2-24.9c0.4-3.8,1-7.3,1.3-10.1
							c-6.5-2-23.5-1.2-30.1,11.2c-2.5,4.7-3.5,11-2,19.4c0.8,1.5,1.2,3,1.4,4.4c0,0,0,0.1,0,0.1C708.5,541.6,706,546.7,706.7,547.9
							z"/>
						<path class="st46" d="M706.2,531.2c0.8,1.5,1.2,3,1.4,4.4c0,0,0,0.1,0,0.1c1.1-0.3,2.6-0.8,4.3-1.4c1.3-0.5,3.4-1.3,5.8-2.6
							c3.2-1.7,5.8-3.2,7.8-6.1c0.9-1.4,1.3-2.5,2-4.5c0.8-2.3,1.7-5.8,2-10.2c-6.6-4.4-14.7-4.5-19.8-0.5c-0.6,0.4-1.1,0.9-1.5,1.4
							C705.7,516.5,704.6,522.8,706.2,531.2z"/>
						<path class="st40" d="M687.1,493.5c0,0.1,0,0.3,0,0.4c0.1,0.7,0.3,1.4,0.7,2c0,0,0.2,0.5,1,2.4c0.4,1,0.8,6.2,0.9,13.3
							c0,1.2,0.2,3,0.7,5.3c0.6,2.8,1.5,7.4,4.9,11.9c0.8,1.1,2,2.5,3.8,4c0.7,0.6,1.6,0.9,2.5,0.8c0.8-0.1,1.8-0.2,2.8-0.4
							c0.2,0,0.5-0.1,0.9-0.2c2.7-0.6,5.8-1.4,9.1-2.6c2-0.7,4.5-1.6,6.2-2.4c3.8-1.8,6.5-5.4,7.4-9.6c0.7-2.6,0.8-5.1,1.5-7.6
							c0.2-1.6,0.5-3.2,0.7-4.8c0.1-0.1,0.1-0.2,0.1-0.2c0.3-0.2,0.5-0.1,1-0.2c4.8-0.8,7.9-7,8.7-8.7c3.5-7.1,4.8-22-4.8-30.5
							c-6.2-5.4-13.7-5.4-17.8-5.5c-6-0.2-31,3.5-29.9,24.8c0.1,1.7,0.1,3.4-0.2,5.1c0,0.2-0.1,0.4-0.1,0.7c0,0.1,0,0.2,0,0.3
							C687.1,492.4,687,493,687.1,493.5z"/>
						<path d="M731.5,495.5c-1.7,1.3-0.9,3.1-0.9,3.7c-0.5,0.4-2.2,1-2.7,1.4c0-1.5-0.1-3.1-0.1-4.6c-0.2-1.9-0.8-3.1-1.4-3.9
							c-0.7-1-1.4-1.2-2.9-2.7c0,0-1.2-1.1-2.4-2.6c-2.9-3.8-4.2-7.9-4.6-9.3c-0.2-0.9-0.4-1.6-0.5-2.1c-1.1,0-2.7,0-4.7,0.2
							c-2.9,0.3-5,0.7-5.7,0.9c-8,1.6-12.8-1.7-16.1,0.9c-1.3,1-2.6,3.2-2.2,8.3c-3-7.5-1.8-12.6-1.1-14.7
							c4.6-13.6,27-19.7,40.8-12.5c3.9,2,6.4,4.8,7.9,6.6c3.9,0.9,6.1,2.6,7.2,3.8c5.5,5.4,5,14.5,4.6,22.7
							c-0.1,1.3-0.2,2.5-0.2,2.5c-0.4,2.5-1,4.2-1.2,4.7c-1.5,4.3-3.8,16.8-5.5,21.1c-0.2,0.5-0.6,1.5-1.6,2
							c-0.7,0.4-1.4,0.4-1.8,0.3c-0.7-6.5-0.3-11,0.2-14c0,0,0-0.1,0-0.1c0.1-0.9,0.6-4,0.9-6.8c0.3-3.6,0.5-5.4-0.1-6
							C736.1,493.8,733.3,494.1,731.5,495.5z"/>
						<path id="XMLID_00000115492734274067191560000010110026376636275891_" class="st45" d="M749,483.2
							c-35.5-17.7-55.2-15.7-61.9-15.1c-1.1,0.2-2.9,2.3-2.6,5.9c-1.5,2-2.1,5.1-0.4,6.4c0,0,0,0.1-0.1,0.2
							c-0.2,0.8,0.6,1.6,1.5,1.7c7.3,0.7,25.1-4.8,58.6,14c0.8,0.5,1.9,0.4,2.4-0.2c0.6-0.7,1.1-1.8,1.1-3.6c2-1.1,2.1-4.6,1.5-5.6
							C749.5,485,749.6,483.5,749,483.2z"/>
						<path class="st40" d="M730.4,496.1c0.4-5.7,3-6.9,3-6.9c2-0.8,4.6,0,6,1.8c1.1,1.4,1,3,0.9,4.2c-0.1,2.1-1,3.6-2.2,5.7
							c-0.9,1.5-1.3,2.3-2.2,3.1c-1.7,1.4-3.7,1.7-4.7,1.8c-0.1-0.1-0.4-0.2-0.6-0.4c-1-1.1-0.5-2.9-0.4-8
							C730.2,497.3,730.4,496.7,730.4,496.1z"/>
					</g>
					<path class="st41" d="M695.1,521.7c-0.1-1.3,2.1-2.5,3.8-2.9c3-0.6,6.5,1,6.5,2.5c0,1.4-3,2.9-5.6,2.8
						C697.8,524.1,695.2,523.1,695.1,521.7z"/>
					<g>
						<path class="st21" d="M696.3,499.7c-1.7-2.9-4.5-3.7-5.8-2.8c-0.9,0.6-1.1,2.2-0.9,3.7C691.1,503.7,694.1,503.1,696.3,499.7z"
							/>
						
							<ellipse transform="matrix(0.9615 -0.2747 0.2747 0.9615 -110.6687 209.3689)" class="st47" cx="692.1" cy="499.8" rx="1.8" ry="2.8"/>
						<ellipse transform="matrix(0.9615 -0.2747 0.2747 0.9615 -110.7132 209.2638)" cx="691.7" cy="499.9" rx="1" ry="1.5"/>
						
							<ellipse transform="matrix(0.9615 -0.2747 0.2747 0.9615 -110.4126 209.3646)" class="st21" cx="692.2" cy="498.9" rx="0.3" ry="0.4"/>
						<path class="st48" d="M689.6,500.6c-0.2-1.3,0.2-2.6,1.2-3.2c1.4-0.9,3.3,0.2,3.8,0.5c0.9,0.6,1.5,1.3,1.7,1.8
							c-0.2-0.5-0.7-1.5-1.8-2.3c-0.2-0.2-2.7-1.9-4.2-0.6C689.3,497.5,689,499.1,689.6,500.6z"/>
					</g>
					<path class="st41" d="M695.6,514.1c-0.1,0.2,0.9,1.4,2.4,1.7c2.4,0.4,4.5-1.9,4.4-2.1c-0.1-0.2-1.7,1.2-4,1.1
						C696.7,514.6,695.7,513.9,695.6,514.1z"/>
					<g>
						<path d="M715.2,491.2c-0.9-0.7-2.1-1.4-3.7-1.9c0,0,0,0,0,0c-0.9-0.3-1.8-0.3-2.7,0c-2.2,0.7-4.3,1.4-6.5,2
							c-0.1,0.2-0.3,0.6-0.3,1.2c0,0.4,0.1,0.8,0.2,1c2.5-0.8,5.1-1.6,7.6-2.4c0.6-0.2,1.2-0.2,1.7-0.2
							C712.7,491,714,491.1,715.2,491.2z"/>
					</g>
					<g>
						<path d="M687.1,492.2c0.3,0,0.4,0.1,0.7,0.1l7.3,2c0.1-0.2,0.2-0.6,0.1-1c0-0.5-0.2-0.9-0.3-1.2c-2.1-0.6-4.2-1.1-6.3-1.7
							c-0.4-0.1-1-0.2-1.3-0.2c-0.1,0.3-0.1,0.6-0.1,0.9C687.1,491.6,687.1,491.9,687.1,492.2z"/>
					</g>
					<g>
						<path class="st21" d="M703.5,499.4c0.3,0.2,0.7,0.5,1.3,0.8c1.4,0.6,2.6,0.4,3.3,0.3c2.4-0.4,4-1.9,4.6-2.5
							c-0.4-0.6-1.8-2.5-4.2-3c-0.7-0.1-1.9-0.4-3.1,0.3C703.5,496.4,703.5,499.2,703.5,499.4z"/>
						<g>
							<path class="st47" d="M705.2,498.3c0.3,1.4,1.5,2.3,2.7,2c1.1-0.3,1.8-1.6,1.5-3c-0.3-1.4-1.5-2.3-2.7-2
								C705.5,495.6,704.9,496.9,705.2,498.3z"/>
							<path d="M705.8,498.2c0.2,0.7,0.8,1.1,1.3,1c0.6-0.1,0.9-0.8,0.7-1.5c-0.2-0.7-0.8-1.1-1.3-1
								C705.9,496.9,705.6,497.5,705.8,498.2z"/>
							<path class="st21" d="M707,497c0,0.2,0.2,0.4,0.4,0.3c0.2,0,0.3-0.2,0.3-0.5c0-0.2-0.2-0.4-0.4-0.3
								C707.1,496.6,707,496.8,707,497z"/>
							<path d="M703.5,499.4c0.1-0.4,0.5-2.5,2.3-3.6c2-1.1,5.1-0.4,7,2.2C712.5,496.3,704.7,489.5,703.5,499.4z"/>
						</g>
					</g>
					<g>
						<path d="M732.6,508.4c0.7,0,1-1.5,0.9-2.9l-0.5,0.1c0.1,1.5-0.2,2.2-0.4,2.2c-0.2,0-0.6-0.7-0.7-2.2c-0.1-1.5,0.2-2.3,0.4-2.3
							c0.1-0.1,0.1-0.3,0-0.5c-0.7,0-1,1.5-0.9,2.8C731.4,507,731.8,508.4,732.6,508.4z"/>
					</g>
					<path class="st42" d="M740.8,532.8c-0.6-0.3-1.3,0-1.4,0.6c-0.9,4.5-3.8,14.6-13,21.2c-3.1,2.2-6.2,3.5-8.9,4.3
						c1.6,3.8,2.5,6.9,3.2,9.2c0.5,1.6,0.7,2.6,1.5,2.9c1.7,0.6,4.4-2.7,6.9-5.8c3-3.7,6.9-8.7,11.5-14.7c1.3-2,2.6-4.3,3.8-6.8
						c1.3-2.5,2.3-5,3.2-7.2c-1.4-0.8-2.8-1.5-4.2-2.3C742.5,533.8,741.7,533.3,740.8,532.8z"/>
					<g>
						<path d="M716.7,554.8c5.6-0.2,9.8-4.4,13.3-8.1c2.7-2.8,6.4-7.3,9.5-13.7c-0.1-0.2-0.2-0.3-0.3-0.5c-0.2-0.3-0.4-0.5-0.5-0.7
							c-3.7,8-8.6,13-11.6,15.9c-4.2,3.9-8.7,6.9-13,5.5c-3.7-1.2-6.2-6-6.5-11.8c-0.1,0.2-0.3,0.5-0.4,0.8
							c-0.1,0.3-0.2,0.6-0.3,0.9c0.1,1,1.2,9.3,6.7,11.3C714.9,554.8,716,554.8,716.7,554.8z"/>
					</g>
				</g>
			</g>
			<g>
				<path class="st40" d="M335.5,632.8c4.9-2.1,9.2-4.3,13-6.5c0.8,1.2,1.5,2.4,2.3,3.6c7.9-4.2,16.3-9.2,25-15.1
					c8.8-5.9,16.7-11.8,23.7-17.5c2.1,1.6,4.3,3.3,6.5,5.1c2,1.7,4,3.4,5.8,5.1c-9.3,10.2-17.8,19.2-25.5,27.4
					c-2.2,2.3-12,12.8-22.3,20.7c-0.3,0.2-0.9,0.7-1.8,1.3c-6.8,5.1-12.8,9-17.6,11.9c-2.8,1.7-6.5,1-8.5-1.7
					c-3.6-4.9-6.3-7.8-12-18.1c-1.8-3.2-3.9-6.7-6.5-10.5C322.8,637.5,328.9,635.6,335.5,632.8z"/>
				<g>
					<g>
						<path class="st40" d="M399.9,596.7c0,0,3-4.2,4.1-7.6c0.3-0.9,0.5-1.9,0.5-1.9c0.4-1.4,0.6-2.6,0.7-3.5
							c1.6-0.5,3.4-1.2,5.4-2.2c2.4-1.3,4.3-2.7,5.7-3.9l2-1.1c19.2-13.1,24.6-14.5,25.8-13.3c0.1,0.1,0.7,0.8,0.8,1.7
							c0.1,1.7-1.8,3.1-3.9,4.5c-4.8,3.2-9.1,5.9-10.4,6.7c1.1-0.5,2.4-0.4,3.3,0.2c1.2,0.9,1.6,2.6,0.9,4c0.2,0.1,1.3,0.7,1.7,1.9
							c0.6,1.5-0.1,2.8-0.2,3c0.4,0.7,1,2,1,3.7c-0.1,3.8-3.5,5.9-3.8,6.1c-2.8,3-7.4,7.1-13.9,10.1c-2.8,1.3-5.5,2.1-7.8,2.7
							c-2.9,2.6-5.7,5.1-8.6,7.7c-3.7-3.5-7.3-7-11-10.5C394.7,602.1,397.3,599.4,399.9,596.7z"/>
						<g>
							<path class="st41" d="M428.3,594.8c-1.3-1.2-0.9-3.9-0.7-3.9c0.2,0,0.4,0.4,0.4,1.2c0,0.3,0.2,1.1,0.8,1.8
								c1.1,1.3,2.7,1.1,2.9,1.1c-0.2,0.1-0.4,0.3-0.8,0.4C429.9,595.7,428.9,595.4,428.3,594.8z"/>
							<path class="st41" d="M426.1,590.7c-1.1-0.7-2.1-4.2-0.4-4.5c0.8,0.8-1,2.5,1.4,4c1.6,0.9,3.4-0.2,4.6-1.1
								c0.7-0.6,1.4-1.2,2.1-1.8c-1.6,2.9-4,4.5-6.1,4.2C427.3,591.4,426.7,591.2,426.1,590.7z"/>
							<path class="st41" d="M423.2,586.2c-0.6-0.7-0.6-1.4-0.7-1.8c-0.1-2.1,1.4-3.6,1.8-4c0.5-0.5,1.2-1,2.2-1.4
								c0.2-0.1,0.7-0.3,0.7-0.2c0.1,0.1-1.6,0.9-2.7,2.4c-0.3,0.5-1.7,2.4-1,3.8c0.5,0.9,1.8,1.2,2.5,1.2c0.3,0,0.9-0.1,1.5-0.5
								c0,0,0,0,0,0c1-0.8,4.2-3.5,4.3-3.4c0.1,0.1-1.8,2.6-4.4,4.2c-0.4,0.3-1.1,0.7-2,0.7C425.1,587.1,424,587.1,423.2,586.2z"/>
							<path class="st41" d="M413,594.7c1.3-2,3.6-6.1,3.8-11.5c0.1-2.2-0.2-4.1-0.5-5.6c0.2-0.1,0.4-0.2,0.6-0.4
								c0.5,1.6,1.8,6.1,0,11.2C415.8,591.4,414.1,593.5,413,594.7z"/>
						</g>
					</g>
					<path class="st40" d="M414.8,574.8c0,0.2-0.2,1.5,0.7,2.3c0.3,0.2,0.5,0.3,0.8,0.4c-1.8,1.4-3.6,2.9-5.6,4.3
						c-2,1.5-3.9,2.9-5.8,4.2c0.1-2.7,1.7-8.4,2.2-10.1c0.7-2.1,3.9-11.2,3.7-13.3c0-0.1,0-0.8,0.3-1.5c0.2-0.5,0.7-0.9,1.2-0.9
						c0.3,0,0.5,0.1,0.7,0.2c1.2,0.7,2.8,5.1,2.9,5.5c0.1,1.1,0,2.3-0.1,3.7C415.7,571.7,415.2,573.4,414.8,574.8z"/>
				</g>
				<g>
					<path class="st42" d="M227.6,656.9c-22.1,47.3-27.5,92-28.6,138.1c2-3.4,10.8-8.8,27.6-0.9"/>
					<g>
						<g>
							<path d="M250.6,968.5c-1.9,1.4-3.7,6-1.3,8.8c2.4,2.8,39.7,11.6,49,12.1c4.8,0.2,9.9-1.2,12.5-4.3c1.4-1.7,0.9-4.2-1.1-5.2
								c-5.4-2.8-17.1-7.1-18.3-7.4C289.9,972.1,250.6,968.5,250.6,968.5z"/>
							<path class="st40" d="M252.9,962.8c-2.2,4.4-1.9,7.3-1.4,9c0.8,2.6,3.3,7.2,44.7,12.8c3.2,0.4,6.4,0.1,9.4-0.9
								c1.8-0.6,3.6-1.1,4.4-2.7c0.5-1.1,0.3-2.1,0.3-2.4c-0.3-1.2-1.1-2.3-2.3-2.9c-0.6-0.3-1.3-0.7-1.9-1.1
								c-0.4-0.2-0.8-0.4-1-0.6c-2.8-1.7-5.7-3.3-8.5-5c-3.1-1.9-6.2-4-9.1-6.4c-3.3-2.8-5.5-4.8-7-7.8c-2.2-4.6-1.5-9.2-1.1-11.2
								c3.7-23.7,6-47.6,9.3-71.4c0.9-6.6,2-16.3,2.6-28.3c-9.8,0-19.6,0-29.4,0c-1.1,3.2-2.5,7.7-3.8,13.2c-3.6,15-4.1,28-3.9,36.7
								c0.4,16.2,3.5,33.4,3.8,47.9c0.1,4.7-0.3,7.9-1.2,11.5C255.4,957.5,253.9,960.8,252.9,962.8z"/>
							<path d="M283.7,985.8c0.8-1.8,4.4-9.3,12.4-12c2.4-0.8,4.7-1,6.5-1c-1-1-2.2-2-3.6-2.9c-3-2.2-5.9-3.6-8.3-4.5
								c-2.3,0.4-5.2,1.3-8.3,3c-7.4,4.1-10.9,10.7-12.1,13.5C274.8,983.2,279.3,984.5,283.7,985.8z"/>
						</g>
						<g>
							<path d="M207.9,972.1c-1.9,1.4-3.7,6-1.3,8.8c2.4,2.8,39.7,11.6,49,12.1c4.8,0.2,9.9-1.2,12.5-4.3c1.4-1.7,0.9-4.2-1.1-5.2
								c-5.4-2.8-17.1-7.1-18.3-7.4C247.2,975.8,207.9,972.1,207.9,972.1z"/>
							<path class="st40" d="M210.2,966.5c-2.2,4.4-1.9,7.3-1.4,9c0.8,2.6,3.3,7.2,44.7,12.8c3.2,0.4,6.4,0.1,9.4-0.9
								c1.8-0.6,3.6-1.1,4.4-2.7c0.5-1.1,0.3-2.1,0.3-2.4c-0.3-1.2-1.1-2.3-2.3-2.9c-0.6-0.3-1.3-0.7-1.9-1.1
								c-0.4-0.2-0.8-0.4-1-0.6c-2.8-1.7-5.7-3.3-8.5-5c-3.1-1.9-6.2-4-9.1-6.4c-3.3-2.8-5.5-4.8-7-7.8c-2.2-4.6-1.5-9.2-1.1-11.2
								c3.7-23.7,6-47.6,9.3-71.4c0.9-6.6,2-16.3,2.6-28.3c-9.8,0-19.6,0-29.4,0c-1.1,3.2-2.5,7.7-3.8,13.2c-3.6,15-4.1,28-3.9,36.7
								c0.4,16.2,3.5,33.4,3.8,47.9c0.1,4.7-0.3,7.9-1.2,11.5C212.8,961.1,211.3,964.4,210.2,966.5z"/>
							<path d="M241.1,989.5c0.8-1.8,4.4-9.3,12.4-12c2.4-0.8,4.7-1,6.5-1c-1-1-2.2-2-3.6-2.9c-3-2.2-5.9-3.6-8.3-4.5
								c-2.3,0.4-5.2,1.3-8.3,3c-7.4,4.1-10.9,10.7-12.1,13.5C232.1,986.8,236.6,988.1,241.1,989.5z"/>
						</g>
						<path class="st21" d="M310,748.3c0.3,27.5-0.5,49.3-1.4,64.4c0,0-0.6,10.2-4.6,36.7c-1,6.8-2.2,13.9-6.2,22.4
							c-2.6,5.5-5.3,11.1-10.4,15c-12.5,9.7-31.3,3-34,2c-0.1-2.1-0.3-4.3-0.3-6.6c-0.2-6.7,0-13,0.4-18.9
							c-2.6,8.7-5.3,17.4-7.9,26.1c-1.9,0.8-16.2,6.8-29.4-0.7c-5.4-3.1-8.7-7.4-10.5-10.2c-3.5-17.6-6.3-38.9-6.5-63.1
							c-0.3-36.8,5.6-67.8,11.9-90.8c14.2-0.1,33.2,1.1,54.7,6.7C284,736.1,298.7,742.5,310,748.3z"/>
						<g>
							<path class="st20" d="M253.6,840.3c-5.1,12-18.7,20-31.6,18.8c5.7-2.7,11.1-5.1,16.4-8.3C243.8,847.6,248.5,844,253.6,840.3
								L253.6,840.3z"/>
						</g>
						<g>
							<path class="st20" d="M255.5,846.7c-1.4,12.9-12,24.6-24.7,27.1c4.7-4.3,9.1-8.1,13.3-12.7
								C248.3,856.5,251.7,851.7,255.5,846.7L255.5,846.7z"/>
						</g>
						<g>
							<path class="st20" d="M250.2,828.4c-2.9,10.9-15.5,18.6-26.5,15.9c5-2.1,9.5-3.9,14-6.7C242.2,834.9,246,831.8,250.2,828.4
								L250.2,828.4z"/>
						</g>
						<g>
							<path class="st20" d="M265.9,846.4c3,3.9,5.8,7.1,9.6,10c3.7,2.9,7.6,5.1,11.8,7.6C277.1,865.7,265.5,857.1,265.9,846.4
								L265.9,846.4z"/>
						</g>
						<g>
							<path class="st20" d="M270.9,837.6c5,7.6,11.9,12.2,18.4,18.3C280.1,855.8,269.8,847.5,270.9,837.6L270.9,837.6z"/>
						</g>
						<g>
							<path class="st20" d="M261.6,851.6c3.7,8.6,10.3,14.3,15.8,21.6C268.2,871.3,258.9,861.4,261.6,851.6L261.6,851.6z"/>
						</g>
						<path class="st43" d="M253.7,747.3c-1.2,32.3-2.4,64.6-3.6,96.9c0.6,1.3,2.7,5.6,7,7.1c5.1,1.8,11.1-0.9,15-7
							c4.4-23.4,7.6-51.1,7.1-82c-0.1-8-0.5-15.7-1-23.1C270,742,261.9,744.7,253.7,747.3z"/>
					</g>
					<g>
						<path class="st44" d="M349.7,623c-11.6,6-23.2,12.1-34.9,18.1c-9.3-20.4-18.7-40.8-28-61.2c1.8-3.6,5.8-10.3,13.5-15.6
							c5.2-3.6,10.1-5.3,13.5-6.1c0.3,0.3,0.6,0.6,0.8,1c0.4,0.5,0.7,1,1,1.4c5,9.5,10.1,19,15.3,28.6
							C337.3,600.6,343.5,611.9,349.7,623z"/>
						<path class="st42" d="M346.8,611.9c-4.9,2.7-10.1,5.5-15.6,8.2c-9,4.3-17.6,7.8-25.6,10.7c3.1,4.6,6.2,9.2,9.3,13.8
							c7.4-3.1,15.1-6.4,23-10.1c5.8-2.8,11.5-5.5,16.9-8.3C352.1,621.4,349.5,616.7,346.8,611.9z"/>
					</g>
					<path class="st40" d="M296.6,567.3c-1.2,18.1-19.9,30.7-37.3,29.5c-17.9-1.3-34.5-17.3-32.6-34.6c1.7-16.1,18.7-24.4,19.9-24.9
						c3.1-1.6,12.9-5.9,24.3-3C285,537.9,297.7,551.6,296.6,567.3z"/>
					<path class="st44" d="M211.2,702c-2.8,14.5-5.4,30-7.5,46.4c-2.1,16.3-3.6,31.9-4.6,46.6c-0.5,0-1.5,0.1-2.6-0.5
						c-1.3-0.6-1.9-1.5-2.1-1.9c5.9-37.5,11.7-75,17.6-112.5"/>
					<path class="st44" d="M313.3,796.6c-11.6,3.6-30.3,7.9-46.5,8.7c-26.5,1.3-48-4.4-61.6-9.3c1-14.6,2.2-27.3,3.3-37.7
						c3.6-34.5,7.3-55.6,8.4-61.4c0.8-4.3,1.5-7.9,1.9-10.3c1.4-6.3,3.2-12.5,4.4-18.8c1.5-7.5,1.2-14.9-0.3-22
						c-1.6-7.8-4.8-15.4-8.6-22.7c-5.7-10.7-7.3-15.4-7.8-18.6c-0.6-3.3-0.8-5.9-0.9-7.3c-0.1-1.3-0.1-2.6-0.2-4
						c-0.6-13.4-0.7-29.8-0.8-36.7c0.2-1.4,0.6-3.4,1.9-5.4c2.3-3.8,6.5-7,26.7-11.8c3.3-0.8,7.7-1.8,13.1-2.8
						c0.9-0.4,1.9-0.8,2.9-1.3c1.5-0.7,2.9-1.5,4.1-2.2c0.1,1.1,0.3,2.6,0.7,4.3c0,0,1.3,5,4.5,9.6c5.6,8,15.6,11.5,17.2,12
						c1.1,3.9,2.2,8.2,2.9,13c0.4,2.7,0.7,5.3,0.9,7.8c0.8-6.5,1.7-12.9,2.5-19.4c1.2-1,2.8-2.7,3.9-5c3.1-6.4,0.2-12.7-0.3-14
						c6,4.3,11.5,7.1,15.1,9.1c5.3,2.9,10.2,5,12.8,7.7c1.2,1.2,2,2.5,2.1,4.1c0.1,0.8-0.1,1.4-0.2,1.8c-2.9,27-5,49.6-6.5,66.1
						c-3,34.4-3.3,40.1-2.8,45.8c2.2,25.4,3.8,37.7,5.4,56.1c1,11.8,1.5,17.7,1.9,25.1c0.1,1.2,0.1,2.5,0.1,3.7
						C314.3,774.6,313.9,786.7,313.3,796.6z"/>
					<g>
						<path class="st42" d="M282.2,560.4c-1.6,18.6-2.9,37.9-3.4,56.5c0,0-0.5-0.5-0.5-0.5c2.8,0.1,5.6,0.2,8.5,0.4
							c-2.8,0.3-5.6,0.4-8.4,0.6c0,0-0.5,0-0.5,0l0-0.5C276.9,598,278.2,578.9,282.2,560.4L282.2,560.4z"/>
					</g>
					<path class="st42" d="M283.8,607.2c0.2,0.5,0.2,1.1,0,1.5c-0.4,0.7-1.2,1-1.8,0.7c-0.5-0.2-0.9-0.7-0.9-1.4
						c0-0.8,0.6-1.4,1.2-1.6C282.9,606.4,283.5,606.6,283.8,607.2z"/>
					<path class="st42" d="M284.7,592.7c0.2,0.5,0.2,1.1,0,1.5c-0.4,0.7-1.2,1-1.8,0.7c-0.5-0.2-0.9-0.7-0.9-1.4
						c0-0.8,0.6-1.4,1.2-1.6C283.7,591.8,284.4,592,284.7,592.7z"/>
					<path class="st42" d="M285.3,577.6c0.2,0.5,0.2,1.1,0,1.5c-0.4,0.7-1.2,1-1.8,0.7c-0.5-0.2-0.9-0.7-0.9-1.4
						c0-0.8,0.6-1.4,1.2-1.6C284.3,576.7,285,577,285.3,577.6z"/>
					<path class="st45" d="M304.4,554.4c-0.4-5.5-4.3-6-5.6-5.6c-1.2-2.6-3.2-3.8-5.5-2.9c-0.4-1.9-3.9-3.3-4.9-2.5
						c0,8.9-3.2,94.4-12.9,125.8c-0.5,2.9,16.4,12.2,22.8,6.9C299.1,672.1,308.5,579,304.4,554.4z"/>
					<path class="st40" d="M204.4,725.1c0.8,3,1.6,6,2.4,9c-0.6,2.4-1.3,5.8-1.2,10c0,2.4-0.4,5.5,1.1,8.8c2.4,5.4,3.2,8.9,7,10.7
						c0.5,0.6,1.4,1.6,2.7,2.4c1.8,1,3.5,1.3,4.4,1.3c7.2,1.4,9.2,0.9,9.6,0c0.3-0.7-0.3-2-1.1-2.7c-0.7-0.7-1.5-0.8-2.3-1.1
						c-2-0.8-3.2-2.5-3.9-3.6c-2.1-3-1.8-6.5-1.6-7.6c0.1-0.7,0.5-4.8,1.9-5c0.3,0,0.8,0.1,1.6,1.3c0.3,1.4,0.7,3.1,1.5,5
						c0.5,1.3,1.1,2.3,1.7,3.3c0.3,0.3,3.8,3.4,5.2,3.4c0.3,0,0.5,0,0.8-0.1c0.5-0.2,0.7-0.8,0.6-1.3c0-0.8-0.4-1.4-0.4-1.5
						c-1.1-1.7-2.7-11.3-3.1-13.5c-0.7-3.6-2.8-8.7-9-15.3c0-3.2-0.1-6.3-0.1-9.5C216.2,721,210.3,723.1,204.4,725.1z"/>
					<path class="st40" d="M235.2,575.7c3.5,19.8-4.2,48.5-5.3,52.2c-2.1,7.3-5.3,17.5-10.2,29.5c0.7,10.1,1.3,20.4,1.7,31
						c0.5,13.8,0.8,27.2,0.8,40.2c-2.6,1-5.2,1.9-7.9,2.9c-2.5,0.9-5,1.8-7.5,2.7c-3.3-11.4-7.6-27.4-11.1-46.8
						c-2.6-14.1-4.1-21.9-4.8-32.8c-0.7-10.4,5.7-29.5,7.9-68.4c0,0,2.9-22.2,13.9-30.5c2.2-1.7,4.4-1.7,4.4-1.7
						c1.6,0,3.2,0.7,4.9,2C224.6,557.7,232.7,561.7,235.2,575.7z"/>
					<path class="st44" d="M187.4,640.8c5.1,2,11.1,3.9,17.9,5.4c9.6,2.1,18.2,2.9,25.3,3c4.7-16.6,8-30.8,10.3-41.7
						c3.8-18.3,4.5-25.8,2.7-34.8c-0.7-3.7-5-23.3-15.7-25.5c-3.9-0.8-10,0.4-12.8,1c-3.5,0.7-6.3,1.7-8.2,2.4
						c-1.3,3.7-3.4,9.6-5.5,17.1c-3.9,13.9-5.1,22.8-9.4,47.6C190.9,621,189.4,629.8,187.4,640.8z"/>
					<path class="st42" d="M187.9,628.7c6.4,1.4,13.2,2.8,20.3,4c9,1.5,17.7,2.7,25.8,3.5c-1.3,5.2-2.6,10.4-3.9,15.5
						c-6.4,0.4-14.7,0.3-24.4-1.6c-8.5-1.6-15.6-4.2-21-6.5C185.8,638.7,186.8,633.7,187.9,628.7z"/>
					<path class="st42" d="M282.2,560.4c1.2-1.2,3.5-3.7,4.6-7.7c1.6-5.5-0.4-9.9-1-11.3c0.8,0.5,1.9,1,2.7,1.6c1,0.4,1.3,4,1.5,5.2
						c0.6,3.7-0.1,4.8-1,14.4c-0.3,2.8-0.4,5-1.1,5.1c-0.4,0.1-0.6-1.4-2.2-3.3c-0.6-0.7-0.9-1.1-1.4-1.5c-0.8-0.7-1.5-0.9-1.9-1.8
						C282.3,560.8,282.2,560.5,282.2,560.4z"/>
					<g>
						<path class="st40" d="M286.6,547.9c-10.5,8.2-36.4-11.8-35.4-12.4c6.5-4.2,6.3-15.3,5.2-24.9c-0.4-3.8-1-7.3-1.3-10.1
							c6.5-2,23.5-1.2,30.1,11.2c2.5,4.7,3.5,11,2,19.4c-0.8,1.5-1.2,3-1.4,4.4c0,0,0,0.1,0,0.1
							C284.9,541.6,287.4,546.7,286.6,547.9z"/>
						<path class="st46" d="M287.2,531.2c-0.8,1.5-1.2,3-1.4,4.4c0,0,0,0.1,0,0.1c-1.1-0.3-2.6-0.8-4.3-1.4
							c-1.3-0.5-3.4-1.3-5.8-2.6c-3.2-1.7-5.8-3.2-7.8-6.1c-0.9-1.4-1.3-2.5-2-4.5c-0.8-2.3-1.7-5.8-2-10.2
							c6.6-4.4,14.7-4.5,19.8-0.5c0.6,0.4,1.1,0.9,1.5,1.4C287.7,516.5,288.7,522.8,287.2,531.2z"/>
						<path class="st40" d="M306.3,493.5c0,0.1,0,0.3,0,0.4c-0.1,0.7-0.3,1.4-0.7,2c0,0-0.2,0.5-1,2.4c-0.4,1-0.8,6.2-0.9,13.3
							c0,1.2-0.2,3-0.7,5.3c-0.6,2.8-1.5,7.4-4.9,11.9c-0.8,1.1-2,2.5-3.8,4c-0.7,0.6-1.6,0.9-2.5,0.8c-0.8-0.1-1.8-0.2-2.8-0.4
							c-0.2,0-0.5-0.1-0.9-0.2c-2.7-0.6-5.8-1.4-9.1-2.6c-2-0.7-4.5-1.6-6.2-2.4c-3.8-1.8-6.5-5.4-7.4-9.6c-0.7-2.6-0.8-5.1-1.5-7.6
							c-0.2-1.6-0.5-3.2-0.7-4.8c-0.1-0.1-0.1-0.2-0.1-0.2c-0.3-0.2-0.5-0.1-1-0.2c-4.8-0.8-7.9-7-8.7-8.7c-3.5-7.1-4.8-22,4.8-30.5
							c6.2-5.4,13.7-5.4,17.8-5.5c6-0.2,31,3.5,29.9,24.8c-0.1,1.7-0.1,3.4,0.2,5.1c0,0.2,0.1,0.4,0.1,0.7c0,0.1,0,0.2,0,0.3
							C306.3,492.4,306.3,493,306.3,493.5z"/>
						<path d="M261.9,495.5c1.7,1.3,0.9,3.1,0.9,3.7c0.5,0.4,2.2,1,2.7,1.4c0-1.5,0.1-3.1,0.1-4.6c0.2-1.9,0.8-3.1,1.4-3.9
							c0.7-1,1.4-1.2,2.9-2.7c0,0,1.2-1.1,2.4-2.6c2.9-3.8,4.2-7.9,4.6-9.3c0.2-0.9,0.4-1.6,0.5-2.1c1.1,0,2.7,0,4.7,0.2
							c2.9,0.3,5,0.7,5.7,0.9c8,1.6,12.8-1.7,16.1,0.9c1.3,1,2.6,3.2,2.2,8.3c3-7.5,1.8-12.6,1.1-14.7c-4.6-13.6-27-19.7-40.8-12.5
							c-3.9,2-6.4,4.8-7.9,6.6c-3.9,0.9-6.1,2.6-7.2,3.8c-5.5,5.4-5,14.5-4.6,22.7c0.1,1.3,0.2,2.5,0.2,2.5c0.4,2.5,1,4.2,1.2,4.7
							c1.5,4.3,3.8,16.8,5.5,21.1c0.2,0.5,0.6,1.5,1.6,2c0.7,0.4,1.4,0.4,1.8,0.3c0.7-6.5,0.3-11-0.2-14c0,0,0-0.1,0-0.1
							c-0.1-0.9-0.6-4-0.9-6.8c-0.3-3.6-0.5-5.4,0.1-6C257.2,493.8,260.1,494.1,261.9,495.5z"/>
						<path id="XMLID_00000167378195107576952990000012376014234319193758_" class="st45" d="M244.3,483.2
							c35.5-17.7,55.2-15.7,61.9-15.1c1.1,0.2,2.9,2.3,2.6,5.9c1.5,2,2.1,5.1,0.4,6.4c0,0,0,0.1,0.1,0.2c0.2,0.8-0.6,1.6-1.5,1.7
							c-7.3,0.7-25.1-4.8-58.6,14c-0.8,0.5-1.9,0.4-2.4-0.2c-0.6-0.7-1.1-1.8-1.1-3.6c-2-1.1-2.1-4.6-1.5-5.6
							C243.9,485,243.7,483.5,244.3,483.2z"/>
						<path class="st40" d="M263,496.1c-0.4-5.7-3-6.9-3-6.9c-2-0.8-4.6,0-6,1.8c-1.1,1.4-1,3-0.9,4.2c0.1,2.1,1,3.6,2.2,5.7
							c0.9,1.5,1.3,2.3,2.2,3.1c1.7,1.4,3.7,1.7,4.7,1.8c0.1-0.1,0.4-0.2,0.6-0.4c1-1.1,0.5-2.9,0.4-8
							C263.1,497.3,263,496.7,263,496.1z"/>
					</g>
					<path class="st41" d="M298.3,521.7c0.1-1.3-2.1-2.5-3.8-2.9c-3-0.6-6.5,1-6.5,2.5c0,1.4,3,2.9,5.6,2.8
						C295.6,524.1,298.2,523.1,298.3,521.7z"/>
					<g>
						<path class="st21" d="M297.1,499.7c1.7-2.9,4.5-3.7,5.8-2.8c0.9,0.6,1.1,2.2,0.9,3.7C302.2,503.7,299.3,503.1,297.1,499.7z"/>
						
							<ellipse transform="matrix(0.2747 -0.9615 0.9615 0.2747 -262.0751 652.1209)" class="st47" cx="301.2" cy="499.8" rx="2.8" ry="1.8"/>
						<ellipse transform="matrix(0.2747 -0.9615 0.9615 0.2747 -261.8893 652.58)" cx="301.6" cy="499.9" rx="1.5" ry="1"/>
						
							<ellipse transform="matrix(0.2747 -0.9615 0.9615 0.2747 -261.2762 651.3479)" class="st21" cx="301.1" cy="498.9" rx="0.4" ry="0.3"/>
						<path class="st48" d="M303.7,500.6c0.2-1.3-0.2-2.6-1.2-3.2c-1.4-0.9-3.3,0.2-3.8,0.5c-0.9,0.6-1.5,1.3-1.7,1.8
							c0.2-0.5,0.7-1.5,1.8-2.3c0.2-0.2,2.7-1.9,4.2-0.6C304,497.5,304.3,499.1,303.7,500.6z"/>
					</g>
					<path class="st41" d="M297.8,514.1c0.1,0.2-0.9,1.4-2.4,1.7c-2.4,0.4-4.5-1.9-4.4-2.1c0.1-0.2,1.7,1.2,4,1.1
						C296.6,514.6,297.7,513.9,297.8,514.1z"/>
					<g>
						<path d="M278.1,491.2c0.9-0.7,2.1-1.4,3.7-1.9c0,0,0,0,0,0c0.9-0.3,1.8-0.3,2.7,0c2.2,0.7,4.3,1.4,6.5,2
							c0.1,0.2,0.3,0.6,0.3,1.2c0,0.4-0.1,0.8-0.2,1c-2.5-0.8-5.1-1.6-7.6-2.4c-0.6-0.2-1.2-0.2-1.7-0.2
							C280.6,491,279.4,491.1,278.1,491.2z"/>
					</g>
					<g>
						<path d="M306.3,492.2c-0.3,0-0.4,0.1-0.7,0.1l-7.3,2c-0.1-0.2-0.2-0.6-0.1-1c0-0.5,0.2-0.9,0.3-1.2c2.1-0.6,4.2-1.1,6.3-1.7
							c0.4-0.1,1-0.2,1.3-0.2c0.1,0.3,0.1,0.6,0.1,0.9C306.3,491.6,306.2,491.9,306.3,492.2z"/>
					</g>
					<g>
						<path class="st21" d="M289.8,499.4c-0.3,0.2-0.7,0.5-1.3,0.8c-1.4,0.6-2.6,0.4-3.3,0.3c-2.4-0.4-4-1.9-4.6-2.5
							c0.4-0.6,1.8-2.5,4.2-3c0.7-0.1,1.9-0.4,3.1,0.3C289.9,496.4,289.8,499.2,289.8,499.4z"/>
						<g>
							<path class="st47" d="M288.2,498.3c-0.3,1.4-1.5,2.3-2.7,2c-1.1-0.3-1.8-1.6-1.5-3c0.3-1.4,1.5-2.3,2.7-2
								S288.5,496.9,288.2,498.3z"/>
							<path d="M287.6,498.2c-0.2,0.7-0.8,1.1-1.3,1c-0.6-0.1-0.9-0.8-0.7-1.5c0.2-0.7,0.8-1.1,1.3-1S287.7,497.5,287.6,498.2z"/>
							<path class="st21" d="M286.4,497c0,0.2-0.2,0.4-0.4,0.3c-0.2,0-0.3-0.2-0.3-0.5s0.2-0.4,0.4-0.3
								C286.3,496.6,286.4,496.8,286.4,497z"/>
							<path d="M289.8,499.4c-0.1-0.4-0.5-2.5-2.3-3.6c-2-1.1-5.1-0.4-7,2.2C280.8,496.3,288.7,489.5,289.8,499.4z"/>
						</g>
					</g>
					<g>
						<path d="M260.8,508.4c-0.7,0-1-1.5-0.9-2.9l0.5,0.1c-0.1,1.5,0.2,2.2,0.4,2.2c0.2,0,0.6-0.7,0.7-2.2c0.1-1.5-0.2-2.3-0.4-2.3
							c-0.1-0.1-0.1-0.3,0-0.5c0.7,0,1,1.5,0.9,2.8C261.9,507,261.5,508.4,260.8,508.4z"/>
					</g>
					<path class="st42" d="M252.5,532.8c0.6-0.3,1.3,0,1.4,0.6c0.9,4.5,3.8,14.6,13,21.2c3.1,2.2,6.2,3.5,8.9,4.3
						c-1.6,3.8-2.5,6.9-3.2,9.2c-0.5,1.6-0.7,2.6-1.5,2.9c-1.7,0.6-4.4-2.7-6.9-5.8c-3-3.7-6.9-8.7-11.5-14.7
						c-1.3-2-2.6-4.3-3.8-6.8c-1.3-2.5-2.3-5-3.2-7.2c1.4-0.8,2.8-1.5,4.2-2.3C250.9,533.8,251.7,533.3,252.5,532.8z"/>
					<g>
						<path d="M276.6,554.8c-5.6-0.2-9.8-4.4-13.3-8.1c-2.7-2.8-6.4-7.3-9.5-13.7c0.1-0.2,0.2-0.3,0.3-0.5c0.2-0.3,0.4-0.5,0.5-0.7
							c3.7,8,8.6,13,11.6,15.9c4.2,3.9,8.7,6.9,13,5.5c3.7-1.2,6.2-6,6.5-11.8c0.1,0.2,0.3,0.5,0.4,0.8c0.1,0.3,0.2,0.6,0.3,0.9
							c-0.1,1-1.2,9.3-6.7,11.3C278.4,554.8,277.4,554.8,276.6,554.8z"/>
					</g>
				</g>
			</g>
		</g>
	</g>
</g>
</svg>
