<?xml version="1.0" encoding="utf-8"?>
<!-- Generator: Adobe Illustrator 26.0.1, SVG Export Plug-In . SVG Version: 6.00 Build 0)  -->
<svg version="1.1" id="Layer_1" xmlns="http://www.w3.org/2000/svg" xmlns:xlink="http://www.w3.org/1999/xlink" x="0px" y="0px"
	 viewBox="0 0 1000 1000" style="enable-background:new 0 0 1000 1000;" xml:space="preserve">
<style type="text/css">
	.st0{clip-path:url(#SVGID_00000111899254536359842290000004676282037094208182_);fill:#BDDEEF;}
	.st1{opacity:0.11;clip-path:url(#SVGID_00000111899254536359842290000004676282037094208182_);}
	.st2{clip-path:url(#SVGID_00000111899254536359842290000004676282037094208182_);fill:#99CCE0;}
	.st3{clip-path:url(#SVGID_00000111899254536359842290000004676282037094208182_);fill:#E3F4FF;}
	.st4{clip-path:url(#SVGID_00000111899254536359842290000004676282037094208182_);fill:#2782AA;}
	.st5{clip-path:url(#SVGID_00000111899254536359842290000004676282037094208182_);fill:#52A7C1;}
	.st6{clip-path:url(#SVGID_00000111899254536359842290000004676282037094208182_);}
	.st7{fill:#2782AA;}
	.st8{fill:#52A7C1;}
	.st9{fill:#99CCE0;}
	.st10{fill:#E5A031;}
	.st11{fill-rule:evenodd;clip-rule:evenodd;fill:#713727;}
	.st12{fill:#FFBC39;}
	.st13{fill:#FCFCFC;}
	.st14{fill:#BD8328;}
	.st15{fill:#FFD993;}
	.st16{fill:#845E34;}
	.st17{fill:#FFFFFF;}
	.st18{fill:#7E3E2B;}
	.st19{fill:#FFBD5E;}
	.st20{fill:#DE9F7E;}
	.st21{fill:#D38A6A;}
	.st22{fill:#FCB856;}
	.st23{fill:#CE8065;}
	.st24{fill:#6B3628;}
	.st25{fill:#211E1F;}
	.st26{fill:#B7303D;}
	.st27{fill:#D3D3D3;}
	.st28{fill:#FFFFFF;stroke:#D3D3D3;stroke-width:1.5909;stroke-miterlimit:10;}
	.st29{fill:#D34047;}
	.st30{fill:#A82639;}
	.st31{opacity:0.41;fill:#D38A6A;}
	.st32{fill:#BB6C31;}
	.st33{opacity:0.19;}
</style>
<g>
	<g>
		<g>
			<g>
				<defs>
					<path id="SVGID_1_" d="M917.3,615.6c-0.3,1-0.5,1.7-0.6,2.4c0,0-9,32.8-32.1,64.9c-12,16.6-40.5,50-83.7,76.6
						c-95.9,59-223.9,60-264.3,59.1c-129.1-2.9-239.7-44.9-298.4-92.8c-30.8-25.1-51.8-54.9-51.8-54.9
						c-9.6-13.6-27.8-48.3-42.4-95.2c-15.7-50.3-19.2-102.7,14.7-135c81.5-77.6,159.1-8.4,174.7-92.1
						c14.3-77.2,68.8-152.1,168.1-128c127.4,31,113.3,118.8,175.9,112.3c62.5-6.6,169.5-55.7,188.9,37.4
						c19.3,93.1-71.3,172.9-13.6,166.3C891.8,532,942,522,917.3,615.6z"/>
				</defs>
				<clipPath id="SVGID_00000015324120995390380210000004893725038192734880_">
					<use xlink:href="#SVGID_1_"  style="overflow:visible;"/>
				</clipPath>
				<path style="clip-path:url(#SVGID_00000015324120995390380210000004893725038192734880_);fill:#BDDEEF;" d="M917.3,615.6
					c-0.2,0.8-0.4,1.6-0.6,2.4c-8.9,32.6-20,57.5-28.4,73.6c-7.3,14-12.6,21.4-12.6,21.4c-40.7,28.8-163.8,107.8-339.2,105.6
					c-166.5-2.1-283-76.3-324.4-105.6c-6.6-9.9-15.8-24.2-25.8-42.1c-14.3-25.5-31.3-59.8-42.4-95.2c-15.7-50.3-19.2-102.7,14.7-135
					c81.5-77.6,159.1-8.4,174.7-92.1c14.3-77.2,68.8-152.1,168.1-128c127.4,31,113.3,118.8,175.9,112.3
					c62.5-6.6,169.5-55.7,188.9,37.4c19.3,93.1-71.3,172.9-13.6,166.3C891.8,532,942,522,917.3,615.6z"/>
				<path style="opacity:0.11;clip-path:url(#SVGID_00000015324120995390380210000004893725038192734880_);" d="M507.5,693.6
					l-9.3-13.7l9.5,12.7C507.5,692.8,507.4,693.1,507.5,693.6z"/>
				<path style="clip-path:url(#SVGID_00000015324120995390380210000004893725038192734880_);fill:#99CCE0;" d="M1120.5,655.3
					c-16.5,28.6-39.3,53.2-64.8,74c-52.7,42.6-115.5,70.9-179.7,91.5c0.8-0.2,1.6-0.5,2.4-0.8c-205.2,0.1-413.1,0.2-608.1,0.1
					c0.3,0.1,0.5,0.2,0.8,0.3c-86.5-30.8-174.8-84.2-210.7-172.7C191,646.4,878,613.1,1120.5,655.3z"/>
				<path style="clip-path:url(#SVGID_00000015324120995390380210000004893725038192734880_);fill:#E3F4FF;" d="M1114.4,665.2
					c-15.9,24.5-36.3,45.7-58.8,64.1c-50.2,40.7-109.8,68.2-170.8,88.6c-206.2,6.2-417.9,0.3-614.7,2.3c-3.9-1.4-7.9-2.9-11.8-4.4
					c-26.1-9.9-51.6-21.8-75.6-36c-13.1-7.8-25.9-16.3-38-25.6C431.1,681.9,959,667.8,1114.4,665.2z"/>
				<path style="clip-path:url(#SVGID_00000015324120995390380210000004893725038192734880_);fill:#2782AA;" d="M521.5,669.2
					c0,0-239.5,26.3-399.3,66.1c-13.3-12.3-25-25.4-35.1-39.2C163.2,687.6,383.1,664.9,521.5,669.2z"/>
				<path style="clip-path:url(#SVGID_00000015324120995390380210000004893725038192734880_);fill:#52A7C1;" d="M440.4,765.3
					c15.3-12.5,33.3-7.1,53.5-4.2c10.9,1.1,17.3-0.2,16.2,4.2C509.1,769.7,431.3,770.4,440.4,765.3z"/>
				<g style="clip-path:url(#SVGID_00000015324120995390380210000004893725038192734880_);">
					<g>
						<path class="st7" d="M240.9,417.2c3.8-6,4.1-14.2,3-24c-0.9-7.3-3.4-12.2-3.5-12.4l-1.5,0.6c0.1,0.2,7.4,21-0.9,34
							L240.9,417.2z"/>
					</g>
					<g>
						<path class="st7" d="M243.3,397.5l0.3-3.5c-9.1-0.7-17.6-4-22.6-11c-3.7-5.2-5.4-10.5-5.4-10.5l-1.5,0.3
							c0,0.2,1.2,5.8,5.4,11.7C223.4,389.9,230.7,396.6,243.3,397.5z"/>
					</g>
					<g>
						<path class="st7" d="M300.2,403.9c7.1-5.8,10.7-15.7,13.2-28c1.9-9.2,0.8-16.2,0.8-16.5l-2.1,0.1c0,0.3,0.6,28.5-14.7,41
							L300.2,403.9z"/>
					</g>
					<g>
						<path class="st7" d="M306.6,398.9l-1.1-4.3c11.4-2.8,21.4-8.8,26.2-18.7c3.6-7.4,4.5-14.4,4.5-14.5l2,0.1
							c0,0.3-0.3,7.6-4.3,15.9C330.2,385,322.4,395,306.6,398.9z"/>
					</g>
					<path class="st8" d="M175.6,433.5c-0.5-0.1-38.4,12.6-38.4,32.2c0,19.6,35.3,27.5,53.9,22.5c18.5-5,45-2.5,58.6,6.7
						c13.5,9.2,33.4-21.4,73.1-13.1c39.7,8.3,56.8,0.4,79.9-12.2c23.1-12.7,38.1,9.9,58.4,5.6c20.4-4.3,31.6-35.5,2.9-45.6
						c-28.6-10.1-139.1-22.2-159.5-20.2C284.1,411.4,175.6,433.5,175.6,433.5z"/>
					<g>
						<path class="st7" d="M284.3,638.7c0,0,11.4-33.9,13.9-61.8c2.8-30.9-5.3-63.7,0.4-83c6.7-22.7-2.8-60.1-6.8-84.4
							c0,0,24.8,64.7,19.4,80c-5,14.4,0.2,57.6,5.1,84.4c4.8,26.8-5.4,48.2,0,64.9C316.3,638.7,292.4,646.7,284.3,638.7z"/>
						<g>
							<path class="st7" d="M305.1,532.7l-3-2.5c0.2-0.2,4.4-5.1,12.3-10.5c7.3-5,19.3-11.3,34.9-13.3c28.4-3.6,68-31.4,69.6-55
								l3.9,0.3c-0.8,11.9-10.2,25.7-26,37.7c-14.7,11.3-32.3,19.1-47.1,21C321.4,513.8,308.7,539.7,305.1,532.7z"/>
						</g>
						<g>
							<path class="st7" d="M309.6,473.5l-0.9-3.8c0.2,0,9-2.2,19.7-8.5c9.9-5.8,24.6-15.8,33.2-33.4l2.4,1.2
								c-9.1,18.5-23.3,29.7-33.7,35.8C319,471.2,310,473.4,309.6,473.5z M309.2,471.5l-0.5-1.9c0,0,0,0,0,0L309.2,471.5z"/>
						</g>
						<g>
							<path class="st7" d="M332.7,461.3c-6-5.4-8.8-14.3-10.5-25.3c-1.3-8.2,0-14.3,0-14.6l1.9,0.1c0,0.3-1.7,25.1,11.2,36.7
								L332.7,461.3z"/>
						</g>
						<g>
							<path class="st7" d="M348.9,451.8c-0.8,0-1.6,0-2.5,0l0.1-3.9c18.2,0.5,30.1-5.1,37-10c7.4-5.3,10.6-10.7,10.6-10.8l1.7,1
								c-0.1,0.2-2.3,7-10.3,12.8C378.5,445.8,366.9,451.8,348.9,451.8z"/>
						</g>
						<g>
							<path class="st7" d="M292.1,499.1c-48.2,0-92.6-44.1-110.2-59.9c-3.1-2.8-6.1-5.5-6.9-5.8c0,0,0.2,0.1,0.5,0.1v-3.9
								c1.4,0,2.6,1.1,9,6.7c17.9,16,69.1,58.2,117.5,55.3l-2.8,7.5C297.6,499.2,293.8,499.1,292.1,499.1z"/>
						</g>
						<g>
							<path class="st7" d="M197.4,480.4c-12.1,0-21.7-2.9-28.9-5.1c-13.9-4.3-19.7-11.9-20-12.2l1.1-1.3c0.1,0.1,7,5.8,20.2,9.8
								c12.2,3.7,32.4,6.7,59.3-0.3l4.5,5.4C221.4,479.9,206.9,480.4,197.4,480.4z"/>
						</g>
						<g>
							<path class="st7" d="M250.3,481.4l-3.6-1.6c11.6-25.5-2.2-51.6-2.3-51.9l1.5-0.9c0.2,0.3,4.3,6.8,6.9,16.8
								C255.3,453,256.8,467,250.3,481.4z"/>
						</g>
						<g>
							<path class="st7" d="M251.1,451.8c-10.2,0-18.5-10.9-23.3-16.3c-1.2-1.3-2.9-4-3.4-3.4c0,0-0.9-1-0.5-1l1.2,0.2
								c1.2,1,2.1,0.7,4.8,3.8c4.5,5.1,13.3,13.4,22.1,12.7l0.3,3.9C251.9,451.7,251.5,451.8,251.1,451.8z"/>
						</g>
						<g>
							<path class="st7" d="M298.3,449.8c-15.8-2.2-24.7-9.6-29.4-15.4c-5.1-6.4-6.5-12.2-6.5-12.4l3.8-0.9c0,0.1,1.3,5.3,5.9,11
								c6.2,7.6,15.2,12.2,26.8,13.8L298.3,449.8z"/>
						</g>
						<g>
							<path class="st7" d="M324.1,440.7l-1.3-3.7c9.7-3.5,18-9.7,21.3-18.8c2.5-6.9,2.7-13.1,2.7-13.1l1.8-0.1
								c0,0.3,0.4,6.7-2.3,14.3C343.5,426.4,337.6,435.8,324.1,440.7z"/>
						</g>
						<g>
							<path class="st7" d="M401.3,491.4c-2,0-4.8-0.2-6.8-0.3l1.4-5.8c12.1,0.6,23-0.7,32.5-3.8c7.5-2.5,14.2-6.2,19.7-11
								c4.9-4.3,8.1-8.6,9.9-11.5c1.9-3.2,2.7-5.3,2.7-5.4l3.7,1.3c-0.1,0.4-3.4,9.6-13.6,18.4c-5.9,5.2-13,9.2-21.1,11.9
								C421.4,488,411.6,491.4,401.3,491.4z"/>
						</g>
					</g>
					<path class="st9" d="M87.2,449.8c0,0,13.6,10.5,32.8,7.5c19.2-3,33.1-9.6,51.1-3.2c18,6.4,59,10.2,90.5-2.6
						c31.6-12.8,63.8-23.3,98.6-12.2c34.8,11.1,53.5,18.9,79.2,10.4c25.8-8.4,40.3,18.1,69.7,4.3c29.5-13.8,10.1-34.7-12.8-39
						c-22.8-4.3-58.2-32.2-99.5-25.7c-41.2,6.4-78.9-11.2-118.3-2.7c-39.4,8.5-60.1,21.4-100.1,18.2
						C138.6,401.7,57.1,426.1,87.2,449.8z"/>
					<path class="st9" d="M301.4,366.2c10.2-2.3,27.4,7.3,44.4,15.4c16.9,8.1,52,2.4,37.9-21.2c-14.1-23.6-24.8-38.9-58.5-35.7
						c-33.7,3.2-67.5,6.4-77.4,16.4C237.9,351.1,273.7,372.5,301.4,366.2z"/>
				</g>
				<path style="clip-path:url(#SVGID_00000015324120995390380210000004893725038192734880_);fill:#2782AA;" d="M230.5,651.7
					c0,0,7.4-22.2,31.3-23.1c23.9-0.9,24.3,12.2,39.9,9.1c15.6-3,23.9-5.6,35.2,0.4s49.1,5.4,49.4,11
					C386.5,654.7,221.6,659.5,230.5,651.7z"/>
				<g style="clip-path:url(#SVGID_00000015324120995390380210000004893725038192734880_);">
					<g>
						<path class="st7" d="M615.4,407.2c3.8-6,4.1-14.2,3-24c-0.9-7.3-3.4-12.2-3.5-12.4l-1.5,0.6c0.1,0.2,7.4,21-0.9,34
							L615.4,407.2z"/>
					</g>
					<g>
						<path class="st7" d="M617.9,387.6l0.3-3.5c-9.1-0.7-17.6-4-22.6-11c-3.7-5.2-5.4-10.5-5.4-10.5l-1.5,0.3
							c0,0.2,1.2,5.8,5.4,11.7C597.9,380,605.2,386.6,617.9,387.6z"/>
					</g>
					<g>
						<path class="st7" d="M674.7,393.9c7.1-5.8,10.7-15.7,13.2-28c1.9-9.2,0.8-16.2,0.8-16.5l-2.1,0.1c0,0.3,0.6,28.5-14.7,41
							L674.7,393.9z"/>
					</g>
					<g>
						<path class="st7" d="M681.1,388.9l-1.1-4.3c11.4-2.8,21.4-8.8,26.2-18.7c3.6-7.4,4.5-14.4,4.5-14.5l2,0.1
							c0,0.3-0.3,7.6-4.3,15.9C704.7,375,696.9,385,681.1,388.9z"/>
					</g>
					<path class="st8" d="M550.2,423.5c-0.5-0.1-38.4,12.6-38.4,32.2c0,19.6,35.3,27.5,53.9,22.5c18.5-5,45-2.5,58.6,6.7
						c13.5,9.2,33.4-21.4,73.1-13.1c39.7,8.3,56.8,0.4,79.9-12.2c23.1-12.7,38.1,9.9,58.4,5.6c20.4-4.3,31.6-35.5,2.9-45.6
						c-28.6-10.1-139.1-22.2-159.5-20.2C658.7,401.4,550.2,423.5,550.2,423.5z"/>
					<g>
						<path class="st7" d="M658.8,628.7c0,0,11.4-33.9,13.9-61.8c2.8-30.9-5.3-63.7,0.4-83c6.7-22.7-2.8-60.1-6.8-84.4
							c0,0,24.8,64.7,19.4,80c-5,14.4,0.2,57.6,5.1,84.4c4.8,26.8-5.4,48.2,0,64.9C690.9,628.7,667,636.7,658.8,628.7z"/>
						<g>
							<path class="st7" d="M679.6,522.8l-3-2.5c0.2-0.2,4.4-5.1,12.3-10.5c7.3-5,19.3-11.3,34.9-13.3c28.4-3.6,68-31.4,69.6-55
								l3.9,0.3c-0.8,11.9-10.2,25.7-26,37.7c-14.7,11.3-32.3,19.1-47.1,21C695.9,503.9,683.3,529.7,679.6,522.8z"/>
						</g>
						<g>
							<path class="st7" d="M684.2,463.5l-0.9-3.8c0.2,0,9-2.2,19.7-8.5c9.9-5.8,24.6-15.8,33.2-33.4l2.4,1.2
								c-9.1,18.5-23.3,29.7-33.7,35.8C693.6,461.2,684.5,463.4,684.2,463.5z M683.7,461.6l-0.5-1.9c0,0,0,0,0,0L683.7,461.6z"/>
						</g>
						<g>
							<path class="st7" d="M707.3,451.4c-6-5.4-8.8-14.3-10.5-25.3c-1.3-8.2,0-14.3,0-14.6l1.9,0.1c0,0.3-1.7,25.1,11.2,36.7
								L707.3,451.4z"/>
						</g>
						<g>
							<path class="st7" d="M723.4,441.8c-0.8,0-1.6,0-2.5,0l0.1-3.9c18.2,0.5,30.1-5.1,37-10c7.4-5.3,10.6-10.7,10.6-10.8l1.7,1
								c-0.1,0.2-2.3,7-10.3,12.8C753,435.8,741.5,441.8,723.4,441.8z"/>
						</g>
						<g>
							<path class="st7" d="M666.7,489.1c-48.2,0-92.6-44.1-110.2-59.9c-3.1-2.8-6.1-5.5-6.9-5.8c0,0,0.2,0.1,0.5,0.1v-3.9
								c1.4,0,2.6,1.1,9,6.7c17.9,16,69.1,58.2,117.5,55.3l-2.8,7.5C672.2,489.2,668.4,489.1,666.7,489.1z"/>
						</g>
						<g>
							<path class="st7" d="M572,470.5c-12.1,0-21.7-2.9-28.9-5.1c-13.9-4.3-19.7-11.9-20-12.2l1.1-1.3c0.1,0.1,7,5.8,20.2,9.8
								c12.2,3.7,32.4,6.7,59.3-0.3l4.5,5.4C596,469.9,581.4,470.5,572,470.5z"/>
						</g>
						<g>
							<path class="st7" d="M624.9,471.4l-3.6-1.6c11.6-25.5-2.2-51.6-2.3-51.9l1.5-0.9c0.2,0.3,4.3,6.8,6.9,16.8
								C629.8,443,631.4,457,624.9,471.4z"/>
						</g>
						<g>
							<path class="st7" d="M625.6,441.8c-10.2,0-18.5-10.9-23.3-16.3c-1.2-1.3-2.9-4-3.4-3.4c0,0-0.9-1-0.5-1l1.2,0.2
								c1.2,1,2.1,0.7,4.8,3.8c4.5,5.1,13.3,13.4,22.1,12.7l0.3,3.9C626.4,441.8,626,441.8,625.6,441.8z"/>
						</g>
						<g>
							<path class="st7" d="M672.9,439.9c-15.8-2.2-24.7-9.6-29.4-15.4c-5.1-6.4-6.5-12.2-6.5-12.4l3.8-0.9c0,0.1,1.3,5.3,5.9,11
								c6.2,7.6,15.2,12.2,26.8,13.8L672.9,439.9z"/>
						</g>
						<g>
							<path class="st7" d="M698.6,430.8l-1.3-3.7c9.7-3.5,18-9.7,21.3-18.8c2.5-6.9,2.7-13.1,2.7-13.1l1.8-0.1
								c0,0.3,0.4,6.7-2.3,14.3C718.1,416.4,712.2,425.9,698.6,430.8z"/>
						</g>
						<g>
							<path class="st7" d="M775.9,481.5c-2,0-4.8-0.2-6.8-0.3l1.4-5.8c12.1,0.6,23-0.7,32.5-3.8c7.5-2.5,14.2-6.2,19.7-11
								c4.9-4.3,8.1-8.6,9.9-11.5c1.9-3.2,2.7-5.3,2.7-5.4l3.7,1.3c-0.1,0.4-3.4,9.6-13.6,18.4c-5.9,5.2-13,9.2-21.1,11.9
								C796,478,786.1,481.5,775.9,481.5z"/>
						</g>
					</g>
					<path class="st9" d="M459.8,439.9c0,0,13.6,10.5,32.8,7.5c19.2-3,33.1-9.6,51.1-3.2c18,6.4,59,10.2,90.5-2.6
						c31.6-12.8,63.8-23.3,98.6-12.2c34.8,11.1,53.5,18.9,79.2,10.4c25.8-8.4,40.3,18.1,69.7,4.3c29.5-13.8,10.1-34.7-12.8-39
						c-22.8-4.3-58.2-32.2-99.5-25.7c-41.2,6.4-78.9-11.2-118.3-2.7c-39.4,8.5-60.1,21.4-100.1,18.2
						C511.1,391.8,429.6,416.1,459.8,439.9z"/>
					<path class="st9" d="M614.7,378.4c0,0-24.3,2.5-38.1,7.5c-13.8,5-45.4,2-33.4-13.5c12-15.5,21-25.5,47.9-22.5
						c26.9,3,53.8,6,61.4,13C660,370,625.3,379.9,614.7,378.4z"/>
					<path class="st9" d="M673.9,356.2c10.2-2.3,27.4,7.3,44.4,15.4c16.9,8.1,52,2.4,37.9-21.2c-14.1-23.6-24.8-38.9-58.5-35.7
						c-33.7,3.2-67.5,6.4-77.4,16.4C610.4,341.2,646.2,362.6,673.9,356.2z"/>
				</g>
				<path style="clip-path:url(#SVGID_00000015324120995390380210000004893725038192734880_);fill:#2782AA;" d="M605,641.8
					c0,0,7.4-22.2,31.3-23.1c23.9-0.9,24.3,12.2,39.9,9.1c15.6-3,23.9-5.6,35.2,0.4c11.3,6.1,49.1,5.4,49.4,11
					C761.1,644.8,596.1,649.5,605,641.8z"/>
				
					<ellipse style="clip-path:url(#SVGID_00000015324120995390380210000004893725038192734880_);fill:#52A7C1;" cx="396.3" cy="735.4" rx="100.7" ry="12.3"/>
				
					<ellipse transform="matrix(0.9992 -4.011748e-02 4.011748e-02 0.9992 -26.9532 28.853)" style="clip-path:url(#SVGID_00000015324120995390380210000004893725038192734880_);fill:#52A7C1;" cx="705.4" cy="686" rx="116.6" ry="14.2"/>
			</g>
		</g>
		<g>
			<path class="st10" d="M728.8,598.4c-1.4,3.4-3.1,9.4-1.6,16.2c1.3,6.1,4.7,10.3,8.1,14.6c2.8,3.5,4.2,5.3,6.3,6.7
				c2.9,1.8,4.5,3,7.6,5.4c0.4,0.3,1.1,0.9,1.4,1.9c0.4,1.5-0.5,3-1,3.6c-1.5,2.4-2.1,5.3-3.5,7.8c-1.5,2.7-3,7.3-2.7,16.2
				c-2.9,0.3-5.1,1.2-6.5,1.9c-0.7,0.3-5.2,2.7-6.7,6.3c-0.4,1.1-0.4,1.8-0.3,2.4c0.2,1.3,1.2,2.2,1.6,2.5c3.6,3.2,11,1.9,11.7,1.7
				c2.5-0.5,4.3-0.8,6-2.2c2.5-2,3-4.7,4-8.1c0.6-2.2,2.3-8.2,4.6-12.8c2.8-5.5,6.6-9.4,12-14.9c1.6-1.6,2.9-2.8,3.8-3.6
				c-0.6-1.1-1.3-2.7-1.9-4.6c-1.5-4.8-1.4-8.8-1.3-10.9c0.2-4.2,1.1-7.7,2.1-10.3c-3.8-6.4-7.6-12.9-11.4-19.3
				C750.4,598.6,739.6,598.5,728.8,598.4z"/>
			<g>
				<path class="st10" d="M853.2,598.1c-8.6,1.1-16.2-1.3-18.4-2.1c-7.2-2.6-10.9-6.5-22.8-19.4l-0.8-0.8
					c-7.2-7.8-14.5-15.7-21.8-23.4l6.3-5.9c7.2,7.7,14.6,15.6,21.8,23.4l0.8,0.8c11.9,12.8,14.3,15.3,19.4,17.1
					c1.6,0.6,16.2,5.4,25.9-3.5c7.6-7.1,7-17.9,6.8-20l8.6-0.8c0.3,2.8,1,17.3-9.6,27.1C864.4,595.4,858.6,597.4,853.2,598.1z"/>
			</g>
			<g>
				<path class="st11" d="M881.6,546.5c0.7,1.3,3.8,7.5,1.6,13c-2.2,5.6-9.2,8.8-12.6,6.5c-1.1-0.7-1.6-1.9-2-2.9
					c-0.5-1.6-1.2-4.1-1-7c0.3-5.2,2.8-8.4,3.9-9.6c-0.3,3.3-0.5,6.5-0.8,9.8l0,0c0.6-1.8,1.2-4,1.5-6.6c0.7-5.5,0.1-10.4-0.7-13.9
					c0,0,0,0,0,0c1.1,0.6,5.4,3.2,7.9,8.4c2.8,5.8,1.4,10.6,1.1,11.6c0.4-0.8,0.9-2,1.2-3.4C882.2,550,881.9,547.9,881.6,546.5z"/>
			</g>
			<path class="st12" d="M649.3,521.1c12.7-0.1,22.3,2.2,28.8,4.4c9.7,3.3,12.6,6.3,22.9,8.4c7.7,1.6,13.9,1.5,22,1.4
				c10.7-0.2,13-1.3,24.1-1.9c14-0.8,21-1.2,27.5,0.6c3.1,0.9,19.9,6,28.3,22.8c1.4,2.7,7.7,15.3,3.7,28.1c-2.1,6.7-5.4,8.3-7,17.1
				c-0.6,3.2-1.6,9.1,0.2,16c1.5,5.6,5,12.6,5.7,13.9c1,1.9,1.7,4,2.7,5.9c1,2,1.8,3.2,1.6,4.8c-0.1,1.4-0.8,2.4-1.5,3.4
				c-0.2,0.3-1.3,2.7-3.5,7.5c-1.6,3.4-4,8.9-4.9,15.5c-0.4,3.7-0.7,5.5-0.3,7.2c0.3,1.3,0.8,2.7,0.3,4.3c-0.4,1.4-1.3,2.3-1.8,2.7
				c-2.2,2.1-5.1,2.4-7.3,2.6c-8.8,0.8-13.2,1.2-14.3-0.4c-1.7-2.6,0.9-7.1,2.5-9.2c2.8-3.5,6.6-4.6,7.9-4.9
				c-0.1-4.3,0.1-9.6,1.3-15.5c0.7-3.8,1.7-7.1,2.7-10c-6-3.7-10.8-7.2-14.3-9.8c-8.6-6.6-11.8-10.6-12.7-11.7
				c-4.8-6-6-10.2-6.3-11.4c-1-3.7-1-7-0.8-9.2c-9.8-1.9-17.9-1.6-23.4-1.1c-5.8,0.6-10.2,1.6-11.2,1.9c-7.8,2-10.4,4-16.2,5.7
				c-4,1.2-10.1,2.4-18.2,1.9c0.3,4.4,0.4,11.1-1,19.2c-1.2,6.6-2,6.2-5.7,20.3c-3.4,13-5.1,19.4-5.1,21.1c0.1,2.3,0.5,6.2-1.9,8.7
				c-1.1,1.1-3.3,2.5-5.4,3.3c-0.3,0.1-1.2,0.5-2.4,0.8c-2.5,0.7-11.8,3.1-14.1-0.3c-1.5-2.3,0.4-6.4,2.5-8.7c3.7-4,9.2-3.3,9.8-3.2
				c1-5.1,2.1-12.6,2.7-21.9c0.4-6.5,0.6-9.8,0-13.9c-0.7-4.8-2.8-13.1-10.6-22.5c-3.2-0.4-6.6-1.3-10-2.9
				c-16.8-7.9-21.1-27.6-21.9-31.2C633,561.2,641.1,541.2,649.3,521.1z"/>
			<path class="st10" d="M637,593.2c0.2,12.5,1.8,22.3,3.2,29.1c1.1,5.4,1.7,6.7,2.5,12c2.1,13.3,1.1,22.7,0.8,25.3
				c-0.5,4.8-1.4,8.8-2.1,11.6c-1.3,0.1-3.9,0.5-6.1,2.4c-1.4,1.2-2.2,2.6-2.7,3.7c-1.2,2.2-1.6,4.3-1.8,5.6
				c3.9,1.3,7.3,1.5,9.4,1.5c3.8-0.1,7.3-0.1,9.4-2.5c0.9-1.1,1.3-2.7,2.1-5.8c0.7-3,1-5.3,1.1-5.6c0.8-6.4,3.6-11.1,6.2-20
				c1.3-4.4,1.9-7.5,3-13.7c1.3-7.4,2.1-14.4,2.5-20.7C655.3,608.6,646.2,600.9,637,593.2z"/>
			<g>
				<g>
					<g>
						<g>
							<g>
								<g>
									<path class="st13" d="M551.6,559.1c-0.1,0-0.2,0-0.2-0.1c-2.5-2.6-4.5-5.4-5.9-8.3l-0.1-0.2l17.3-5.9l10.1,6.2l-6.2,1.9
										c-0.1,0-0.2,0-0.2,0c-0.3,0-0.5-0.1-0.7-0.4l-1.6-2.5l-2,3c-0.2,0.2-0.4,0.3-0.7,0.3c-0.3,0-0.6-0.1-0.7-0.4l-1.7-2.9
										l-1.9,3.5c-0.1,0.3-0.4,0.4-0.7,0.4c-0.3,0-0.5-0.1-0.6-0.3l-2.9-3.7c-0.7,3.1-1,6.1-0.8,9c0,0.1,0,0.2-0.1,0.2
										C551.7,559.1,551.6,559.1,551.6,559.1z"/>
									<path d="M562.6,544.8l9.7,6l-5.9,1.8c-0.1,0-0.1,0-0.2,0c-0.2,0-0.4-0.1-0.6-0.3l-1.7-2.7l-2.2,3.1
										c-0.1,0.2-0.3,0.3-0.5,0.3c-0.2,0-0.4-0.1-0.6-0.3l-1.9-3.2l-2,3.8c-0.1,0.2-0.4,0.3-0.6,0.3c-0.2,0-0.4-0.1-0.5-0.3
										l-3.1-3.9c-0.8,3.2-1.1,6.3-0.9,9.4c0,0.1-0.1,0.2-0.2,0.2c0,0-0.1,0-0.1,0c-2.5-2.5-4.5-5.2-5.9-8.3L562.6,544.8
										 M562.6,544.4l-0.1,0l-17,5.9l-0.3,0.1l0.1,0.3c1.4,3,3.4,5.8,6,8.4c0.1,0.1,0.2,0.1,0.3,0.1c0.1,0,0.2-0.1,0.3-0.1
										c0.1-0.1,0.1-0.2,0.1-0.3c-0.2-2.8,0.1-5.7,0.8-8.7l2.7,3.4c0.2,0.2,0.5,0.4,0.8,0.4c0.4,0,0.7-0.2,0.8-0.5l1.8-3.3
										l1.6,2.7c0.2,0.3,0.5,0.5,0.8,0.5c0.3,0,0.6-0.2,0.8-0.4l1.9-2.8l1.5,2.3c0.2,0.3,0.5,0.5,0.8,0.5c0.1,0,0.2,0,0.3,0
										l5.9-1.8l0.6-0.2l-0.6-0.4l-9.7-6L562.6,544.4L562.6,544.4z"/>
								</g>
							</g>
							<g>
								<g>
									<path class="st13" d="M572.7,580.4c-2.7-2.8-4.7-5.4-6.1-8c-0.1-0.1-0.1-0.2,0-0.3c0.1-0.1,0.2-0.2,0.3-0.2
										c0,0,0.1,0,0.1,0c2.6,0.9,5.5,1.5,8.7,1.9l-2.6-3.8c-0.2-0.2-0.2-0.5-0.1-0.8c0.1-0.3,0.3-0.4,0.6-0.5l3.9-0.8l-2.3-2.5
										c-0.2-0.2-0.3-0.5-0.2-0.8c0.1-0.3,0.3-0.5,0.5-0.6l3.4-1.1l-2-2.3c-0.2-0.3-0.3-0.7-0.1-1l3.6-5.4l2.9,11.5l-10.8,14.7
										L572.7,580.4z"/>
									<path d="M580.6,554.7l2.8,11.1l-10.7,14.5c-2.5-2.6-4.6-5.2-6.1-8c-0.1-0.1,0-0.3,0.2-0.3c0,0,0,0,0.1,0
										c2.8,1,5.9,1.6,9.1,1.9l-2.8-4.1c-0.3-0.4-0.1-0.9,0.4-1l4.2-0.8l-2.5-2.7c-0.3-0.4-0.2-0.9,0.3-1.1l3.6-1.1l-2.1-2.4
										c-0.2-0.2-0.2-0.6,0-0.8L580.6,554.7 M580.8,554l-0.4,0.6l-3.5,5.1c-0.2,0.4-0.2,0.8,0.1,1.2l1.8,2.1l-3.2,1
										c-0.3,0.1-0.6,0.3-0.6,0.7c-0.1,0.3,0,0.7,0.2,0.9l2.1,2.3l-3.7,0.7c-0.3,0.1-0.6,0.3-0.7,0.6c-0.1,0.3-0.1,0.6,0.1,0.9
										l2.5,3.5c-3.1-0.4-5.9-1-8.4-1.8c-0.1,0-0.1,0-0.2,0c-0.2,0-0.3,0.1-0.4,0.2c-0.1,0.2-0.1,0.3,0,0.5
										c1.4,2.6,3.4,5.3,6.1,8.1l0.2,0.3l0.2-0.3l10.7-14.5l0.1-0.1l0-0.1l-2.8-11.1L580.8,554L580.8,554z"/>
								</g>
							</g>
						</g>
						<path class="st14" d="M579.1,555.9c0,0,4.3,12.5-4.8,20.4c0,0,10.6-1.5,11.4-7.4C586.5,563,579.1,555.9,579.1,555.9z"/>
						<path class="st12" d="M611.4,540.3l-7.9,13.9c0,0-7.4,3.9-12.6,17.4c-0.1,0.3-0.2,0.5-0.3,0.8c-5.2,14.2-15.3,11.5-17.1,10.7
							c-1.8-0.8-2.9-1.1-0.7-6.4c2.2-5.3,17.5-3.1,5.8-18.3c-4.6-5.9-10.8-8.1-16.7-8.5c-6.3,2.1-10.2,1.8-14.5,1.7
							c-2,0.6-4.2-0.3-5.3-2.1c-0.5-1-1-1.9-1.4-2.9c-1.1-2.6-1.7-4.9-2-6.5c-0.3-1.3,0.2-2.6,1.3-3.4c2-1.5,4.5-2.7,7.2-3.5
							c6.8-2.2,14.3-2.5,14.3-2.5c0.5-0.4,1-0.8,1.5-1.2c8.3-7.2,9.6-19.6,9.6-19.6l26.5-7L611.4,540.3z"/>
						<path class="st15" d="M591,571.7c-4.6,14.3-15.3,12.7-17.4,11.5c-1.8-0.8-2.9-1.1-0.7-6.4c2.2-5.3,17.5-3.1,5.8-18.3
							c-4.6-5.9-10.8-8.1-16.7-8.5c-6.3,2.1-10.2,1.8-14.5,1.7c-2,0.6-4.2-0.3-5.3-2.1c-0.8-1.3-1.5-3-2.1-4.7
							c5.8-2.7,27.7-11.6,40.2,1.3C586.8,554.1,591.7,563.1,591,571.7z"/>
						<path class="st14" d="M562,550.1c4,0.5,7.9,1.7,11.1,3.9c1.6,1.1,3.1,2.4,4.4,3.9c1.2,1.5,2.4,3.2,3.4,4.9
							c0.5,0.9,0.9,1.7,1.2,2.6c0.3,0.9,0.5,1.8,0.3,2.7c0,0.4-0.2,0.9-0.4,1.3c-0.2,0.4-0.5,0.8-0.8,1.1c-0.6,0.6-1.5,1.2-2.3,1.6
							c-0.9,0.5-1.8,0.9-2.7,1.4c-0.9,0.5-1.8,1-2.6,1.7c-0.4,0.4-0.7,0.8-0.9,1.3c-0.2,0.5-0.3,1-0.5,1.4c-0.3,1-0.6,2-0.6,3
							c0.1-1,0.5-1.9,0.9-2.9c0.2-0.4,0.4-0.9,0.6-1.3c0.2-0.4,0.5-0.8,0.9-1.1c1.5-1.2,3.4-1.8,5.3-2.7c0.9-0.5,1.8-1,2.6-1.7
							c0.4-0.4,0.7-0.8,1-1.3c0.3-0.5,0.5-1.1,0.5-1.6c0.1-1.1-0.1-2.2-0.4-3.2c-0.3-1-0.8-1.9-1.3-2.8c-1-1.8-2.2-3.4-3.6-5
							c-1.3-1.6-3-2.9-4.7-4c-3.5-2.2-7.6-3.2-11.6-3.4L562,550.1z"/>
						<path class="st16" d="M543.4,545c0,0,1.2-2.1,3.3-4.7l-3.5-3.1l-3.4,4L543.4,545z"/>
						<path class="st14" d="M538.7,540.2c0.3,1.6,1,4,2,6.5c1.1-0.6,2.1-1.3,2.9-1.9c0.6-0.5,0.9-1.3,0.8-2
							c-0.2-1.1-1.2-0.9-2.4-1.3c-1.7-0.5-1.3-2,1.1-2.5c1.3-0.2,1.8,0.2,1.8,2.7c0,0.6,1.1,0.4,1.2-0.1c1-2.8,1.7-5.1,1-8.4
							c-2.7,0.9-5.2,2-7.2,3.5C538.9,537.6,538.4,538.9,538.7,540.2z"/>
						<path class="st17" d="M577.2,526.8c-0.8,0.5-1.8,0.4-2.5-0.1c-0.3-0.2-0.6-0.5-0.8-0.8c-0.3-0.6-0.4-1.2-0.3-1.8
							c0.1-0.3,0.2-0.5,0.4-0.8c0,0,0,0,0,0c0.2,0,0.5,0,0.7,0c0.1,0,0.2,0,0.3,0c0.6-0.1,1.2-0.3,1.8-0.6c0.1,0,0.1-0.1,0.2-0.1
							c0.3,0.1,0.6,0.4,0.9,0.7c0.1,0.1,0.1,0.2,0.2,0.3C578.8,524.7,578.4,526.1,577.2,526.8z"/>
						<path d="M574.7,526.8c-0.3-0.2-0.6-0.5-0.8-0.8c-0.3-0.6-0.4-1.2-0.3-1.8c0.1-0.3,0.2-0.5,0.4-0.8c0,0,0,0,0,0
							c0.2,0,0.5,0,0.7,0c0.1,0,0.2,0,0.3,0c0,0,0.1,0.1,0.1,0.1c0.1,0.1,0.1,0.2,0.2,0.3C575.9,524.7,575.6,526,574.7,526.8z"/>
						<path d="M581,520.3c-0.5,0.7-1.1,1.3-1.7,1.8c-0.4,0.4-0.9,0.8-1.4,1.1c-0.2,0.1-0.4,0.2-0.6,0.4c-0.4,0.2-0.8,0.4-1.2,0.5
							c-0.4,0.2-0.9,0.3-1.3,0.3c-0.4,0-0.8-0.1-1.1-0.3c-0.1-0.1-0.2-0.1-0.3-0.2c-0.4-0.3-0.6-0.8-0.6-1.2c0.3,0.3,0.6,0.5,1,0.6
							c0.1,0,0.2,0,0.2,0.1c0,0,0,0,0,0c0.2,0,0.5,0,0.7,0c0.7-0.1,1.4-0.3,2.1-0.7c0.1,0,0.1-0.1,0.2-0.1c0.6-0.3,1.3-0.7,1.9-1
							L581,520.3z"/>
					</g>
				</g>
				<path class="st18" d="M672.5,516.4c1.4-0.4,3.8-0.8,6.8-0.4c3.2,0.5,5.5,1.7,6.8,2.5c-0.2-1.1-1.7-6.9-7.4-10.3
					c-4.7-2.9-9.4-2.3-10.8-2.1c3.7-0.7,7.3-1.4,11-2.1c-3.5,0.3-7.8,0.4-12.7-0.4c-12.2-2.1-20.6-8.4-24.7-12
					c5.3-0.3,10.7-0.6,16-0.8c-5.8-1.8-13.7-3.6-23.2-4c-4.7-0.2-9.1,0-13,0.5c-10.7-0.9-19.2,1.6-19.2,1.6c1.2-5.1,3.8-7.6,3.8-7.6
					c-14.6,3.1-22.9,9.5-27.5,15.6l0,0c-11.9,5.5-5.8,13.3-5.8,13.3s12.8-0.9,17.5,6.8c4.7,7.7-2.8,14.1,1.5,21.2
					c2.7,4.4,5,2.4,7.6,7.6c1.6,3.2,1.8,6.4,1.8,9.5c-15.5,15.9-11.5,33.6-3,40.4c6.7,5.3,7.7,11,7.8,13.5c-0.6,1.5-1.2,2.8-1.9,4
					c4.2-3.2,8.3-6.3,12.5-9.5c1.4,5.9,3.9,9.3,5.9,11.4c2.3,2.4,4.7,3.6,7.6,7.4c1.5,1.9,2.6,3.8,3.4,5.5c2.6-2.1,6.8-6,9.9-12
					c4.2-8.1,4.4-15.6,4.2-19.2c0.9,0.3,2,0.7,3.4,0.8c3,0.4,5.4-0.3,6.8-0.8c-0.7-1.4-2-3.9-4.6-6.1c-2.5-2.2-5.1-3.1-6.5-3.6
					c1.9-0.3,5.3-0.6,9.3,0.4c3.9,1,6.7,2.8,8.2,4c-0.1-1.8-0.3-4.1-1.1-6.5c-1.5-5.1-4.1-8.7-5.9-10.8c2.2,1,4.8,1.9,7.6,2.7
					c1.2,0.3,2.3,0.6,3.4,0.8c0.4-1.1,2.4-7.2-0.8-13.5c-2.4-4.6-6.2-6.7-7.6-7.4c2.6,0,8.3,0.3,13.9,4c3,1.9,5,4.2,6.3,5.9
					c0.6-4.4,1-11.5-1.1-19.8c-1.8-7.5-4.9-13.1-7.2-16.7c1.7-0.3,4.3-0.5,7.4,0.2c2.1,0.5,3.8,1.2,5.1,1.9c0.3-1,1.3-4.9-0.6-8.9
					C681.3,519.2,677.2,516.6,672.5,516.4z"/>
			</g>
			<path class="st19" d="M597.5,517.9c-2.1-2.5-2.3-6.1-0.5-8.8c3.9-5.9,8.5-8.9,11.3-7.9c4.2,1.5,6.5,12.6,1.3,18.3
				c0,0-0.1,0.1-0.1,0.1c-2.9,3.1-8,2.9-10.8-0.3L597.5,517.9z"/>
			<path class="st15" d="M598.9,517.6c-1.3-1.2-1.7-3-1.1-4.6c0.9-2.6,2.6-5.9,6-7.7c1-0.5,2.8-1.6,4.3-0.9c2.2,1,2.4,5.3,1.7,8
				c-0.8,3-2.9,5-4.7,6.3c-1.7,1.1-3.9,1-5.4-0.4L598.9,517.6z"/>
		</g>
	</g>
	<g>
		<g>
			<g>
				<g>
					<path class="st20" d="M414,473.5c-6.3,5.1-22.3-6.9-21.7-7.2c3.9-2.6,3.7-9.4,3-15.2c-0.3-2.3-0.7-4.4-0.9-6.1
						c3.9-1.3,14.3-0.9,18.4,6.6c1.6,2.8,2.3,6.7,1.4,11.8c-0.4,0.9-0.7,1.8-0.8,2.7c0,0,0,0,0,0.1
						C412.9,469.6,414.5,472.7,414,473.5z"/>
					<path class="st21" d="M414.2,463.3c-0.4,0.9-0.7,1.8-0.8,2.7c0,0,0,0,0,0.1c-0.7-0.2-1.6-0.4-2.6-0.8c-0.8-0.3-2.1-0.8-3.6-1.5
						c-1.9-1-3.6-1.9-4.8-3.7c-0.6-0.8-0.8-1.5-1.3-2.7c-0.5-1.4-1.1-3.5-1.3-6.2c4-2.7,8.9-2.9,12.1-0.5c0.4,0.3,0.7,0.6,1,0.9
						C414.4,454.3,415.1,458.1,414.2,463.3z"/>
					<path class="st20" d="M425.5,440.1c0,0.1,0,0.2,0,0.2c-0.1,0.4-0.2,0.8-0.4,1.2c0,0-0.1,0.3-0.6,1.5c-0.3,0.6-0.5,3.8-0.5,8.1
						c0,0.7-0.1,1.8-0.4,3.3c-0.3,1.7-0.9,4.5-2.9,7.3c-0.5,0.6-1.2,1.5-2.3,2.5c-0.4,0.4-0.9,0.5-1.5,0.5c-0.5,0-1.1-0.1-1.7-0.2
						c-0.1,0-0.3-0.1-0.6-0.1c-1.7-0.3-3.5-0.8-5.5-1.5c-1.2-0.4-2.7-0.9-3.8-1.4c-2.4-1.1-4-3.2-4.6-5.8c-0.4-1.5-0.5-3.1-1-4.6
						c-0.2-1-0.3-1.9-0.5-2.9c0-0.1-0.1-0.1-0.1-0.1c-0.2-0.1-0.3,0-0.6-0.1c-2.9-0.4-4.9-4.2-5.4-5.2c-2.2-4.3-3.1-13.4,2.7-18.6
						c3.7-3.4,8.3-3.4,10.8-3.5c3.6-0.2,18.9,1.9,18.4,14.8c0,0.9,0,1.8,0.1,2.7c0,0.1,0,0.3,0.1,0.4c0,0.1,0,0.3,0.1,0.4
						c0,0.1,0,0.1,0,0.2s0,0.1,0,0.2C425.5,439.6,425.5,439.9,425.5,440.1z"/>
					<path d="M398.5,441.7c1,0.8,0.5,1.9,0.6,2.2c0.3,0.3,1.3,0.6,1.6,0.8c0-0.9,0-1.9,0-2.8c0.1-1.2,0.5-1.9,0.8-2.4
						c0.4-0.6,0.8-0.8,1.7-1.7c0,0,0.7-0.7,1.4-1.6c1.8-2.3,2.5-4.8,2.7-5.7c0.1-0.6,0.2-1,0.3-1.3c0.7,0,1.6,0,2.8,0.1
						c1.8,0.1,3,0.4,3.5,0.5c4.9,0.9,7.8-1.2,9.8,0.4c0.8,0.6,1.6,1.9,1.4,5c1.8-4.6,1-7.7,0.5-9c-2.9-8.2-16.6-11.8-25-7.3
						c-2.3,1.3-3.9,3-4.7,4.1c-2.4,0.6-3.7,1.7-4.4,2.4c-3.3,3.3-2.9,8.9-2.6,13.9c0.1,0.8,0.2,1.5,0.2,1.5c0.2,1.5,0.7,2.6,0.8,2.9
						c1,2.6,2.5,10.2,3.6,12.8c0.1,0.3,0.4,0.9,1,1.2c0.4,0.2,0.8,0.2,1.1,0.2c0.3-3.9,0.1-6.7-0.2-8.5c0,0,0,0,0-0.1
						c-0.1-0.6-0.4-2.5-0.6-4.1c-0.2-2.2-0.3-3.3,0-3.7C395.7,440.8,397.4,440.9,398.5,441.7z"/>
					<path id="XMLID_00000085965820729433909760000013461252956047951794_" class="st22" d="M387.7,434.4
						c21.5-11.1,33.5-10.1,37.6-9.8c0.7,0.1,1.8,1.4,1.6,3.6c1,1.2,1.3,3.1,0.3,3.9c0,0,0,0.1,0,0.1c0.1,0.5-0.3,1-0.9,1.1
						c-4.5,0.5-15.3-2.7-35.5,9c-0.5,0.3-1.1,0.3-1.5-0.1c-0.4-0.4-0.7-1.1-0.7-2.2c-1.2-0.6-1.3-2.8-1-3.4
						C387.4,435.5,387.3,434.6,387.7,434.4z"/>
					<path class="st20" d="M399.2,442.1c-0.3-3.4-1.9-4.2-1.9-4.2c-1.2-0.5-2.8,0.1-3.6,1.2c-0.6,0.9-0.6,1.9-0.5,2.5
						c0.1,1.3,0.6,2.2,1.4,3.5c0.6,0.9,0.8,1.4,1.4,1.8c1.1,0.9,2.3,1,2.9,1c0.1,0,0.2-0.1,0.4-0.3c0.6-0.7,0.3-1.7,0.1-4.9
						C399.3,442.8,399.2,442.5,399.2,442.1z"/>
				</g>
				<path class="st23" d="M414.3,458c-0.1-0.5,2.8-2.3,5.3-1.4c1,0.4,2,1.2,1.9,1.5c-0.1,0.3-0.9,0.2-2.4,0.1
					C415.4,457.9,414.3,458.3,414.3,458z"/>
				<g>
					<path class="st17" d="M420,444c1-1.8,2.7-2.3,3.5-1.8c0.6,0.4,0.7,1.3,0.6,2.2C423.2,446.3,421.3,446,420,444z"/>
					
						<ellipse transform="matrix(0.1982 -0.9802 0.9802 0.1982 -96.2593 769.8878)" class="st24" cx="422.5" cy="443.8" rx="1.7" ry="1.1"/>
					<ellipse transform="matrix(0.1982 -0.9802 0.9802 0.1982 -96.1064 770.1658)" cx="422.7" cy="443.8" rx="0.9" ry="0.6"/>
					
						<ellipse transform="matrix(0.1982 -0.9802 0.9802 0.1982 -95.8544 769.3596)" class="st17" cx="422.3" cy="443.3" rx="0.3" ry="0.2"/>
					<path class="st25" d="M424,444.4c0.1-0.8-0.2-1.6-0.7-2c-0.9-0.5-2,0.2-2.3,0.4c-0.6,0.4-0.9,0.8-1,1.1
						c0.1-0.3,0.4-0.9,1.1-1.4c0.1-0.1,1.6-1.2,2.6-0.4C424.2,442.6,424.4,443.5,424,444.4z"/>
				</g>
				<path class="st23" d="M420.5,452.7c0.1,0.1-0.6,0.9-1.4,1c-1.4,0.3-2.8-1.1-2.7-1.2c0.1-0.1,1,0.7,2.5,0.6
					C419.8,453.1,420.5,452.6,420.5,452.7z"/>
				<g>
					<path d="M408.9,438.6c0.6-0.4,1.3-0.8,2.3-1.1c0,0,0,0,0,0c0.5-0.2,1.1-0.1,1.7,0.1c1.3,0.5,2.6,1,3.9,1.4
						c0.1,0.1,0.2,0.4,0.1,0.7c0,0.3-0.1,0.5-0.1,0.6c-1.5-0.6-3-1.1-4.5-1.7c-0.3-0.1-0.7-0.2-1-0.2
						C410.4,438.6,409.7,438.6,408.9,438.6z"/>
				</g>
				<g>
					<path d="M425.5,439.3L425.5,439.3l-4.4,1.6c-0.1-0.1-0.1-0.3-0.1-0.6c0-0.3,0.1-0.6,0.1-0.7c1.1-0.5,2.4-1,3.7-1.3
						c0.2,0,0.3-0.1,0.5-0.1c0,0.1,0,0.3,0.1,0.4c0,0.1,0,0.3,0.1,0.4c0,0.1,0,0.1,0,0.2S425.5,439.3,425.5,439.3z"/>
				</g>
				<g>
					<path class="st17" d="M415.5,443.8c-0.2,0.1-0.4,0.3-0.8,0.5c-0.8,0.3-1.6,0.3-2,0.2c-1.5-0.2-2.5-1.1-2.8-1.5
						c0.2-0.4,1.1-1.5,2.5-1.8c0.4-0.1,1.2-0.3,1.9,0.1C415.6,442.1,415.5,443.7,415.5,443.8z"/>
					<g>
						<path class="st24" d="M414.5,443.1c-0.2,0.9-0.9,1.4-1.6,1.3c-0.7-0.1-1.2-0.9-1-1.8c0.2-0.9,0.9-1.4,1.6-1.3
							C414.2,441.4,414.7,442.2,414.5,443.1z"/>
						<path d="M414.2,443c-0.1,0.4-0.4,0.7-0.8,0.7c-0.4-0.1-0.6-0.5-0.5-0.9s0.4-0.7,0.8-0.7C414,442.2,414.3,442.6,414.2,443z"/>
						<path class="st17" d="M414.2,442.6c0,0.1-0.1,0.2-0.2,0.2s-0.2-0.1-0.2-0.3c0-0.1,0.1-0.2,0.2-0.2
							C414.2,442.3,414.3,442.4,414.2,442.6z"/>
						<path d="M415.5,443.8c0-0.2-0.3-1.5-1.4-2.1c-1.3-0.7-3.1-0.2-4.2,1.4C410,442,414.8,437.8,415.5,443.8z"/>
					</g>
				</g>
				<g>
					<path d="M398,449.6c-0.4,0-0.6-0.9-0.6-1.7l0.3,0.1c0,0.9,0.2,1.3,0.3,1.4c0.1,0,0.4-0.5,0.4-1.4c0-0.9-0.2-1.4-0.3-1.4
						c-0.1-0.1-0.1-0.2,0-0.3c0.4,0,0.6,0.9,0.6,1.7S398.4,449.6,398,449.6z"/>
				</g>
			</g>
			<path class="st26" d="M379.1,540.3c-13,29-15.9,56.3-16.1,84.4c1.2-2.1,6.5-5.5,16.8-0.8"/>
			<g>
				<g>
					<path d="M396,729.9c-1.1,0.9-2.2,3.7-0.7,5.4c1.5,1.7,24.3,6.7,30,6.9c2.9,0.1,6-0.8,7.6-2.7c0.8-1,0.5-2.6-0.7-3.2
						c-3.3-1.6-10.5-4.1-11.2-4.3C419.9,731.8,396,729.9,396,729.9z"/>
					<path class="st20" d="M397.3,726.5c-1.3,2.7-1.1,4.5-0.8,5.5c0.5,1.6,2.1,4.3,27.3,7.4c1.9,0.2,3.9,0,5.7-0.6
						c1.1-0.4,2.2-0.7,2.6-1.7c0.3-0.7,0.2-1.3,0.1-1.5c-0.2-0.7-0.7-1.4-1.5-1.7c-0.4-0.2-0.8-0.4-1.2-0.6
						c-0.2-0.1-0.5-0.2-0.6-0.3c-1.7-1-3.5-2-5.2-3c-1.9-1.2-3.8-2.4-5.6-3.8c-2.1-1.7-3.4-2.8-4.3-4.7c-1.4-2.8-1-5.6-0.8-6.8
						c2-14.5,3.2-29.1,5-43.6c0.5-4,1.1-9.9,1.3-17.3c-6,0.1-12,0.2-17.9,0.3c-0.6,1.9-1.4,4.7-2.2,8.1c-2,9.2-2.2,17.1-2,22.4
						c0.4,9.9,2.4,20.3,2.8,29.1c0.1,2.9-0.1,4.8-0.6,7C398.8,723.2,397.9,725.2,397.3,726.5z"/>
					<path d="M416.3,740.2c0.5-1.1,2.6-5.7,7.5-7.4c1.5-0.5,2.8-0.7,3.9-0.6c-0.6-0.6-1.4-1.2-2.2-1.8c-1.8-1.3-3.6-2.1-5.1-2.7
						c-1.4,0.3-3.2,0.8-5,1.9c-4.5,2.6-6.5,6.6-7.3,8.3C410.8,738.7,413.6,739.4,416.3,740.2z"/>
				</g>
				<g>
					<path d="M344.3,720c-1.4,0.3-3.6,2.3-3.1,4.5c0.6,2.2,18.6,17,23.6,19.7c2.5,1.4,5.7,2,8,1c1.2-0.5,1.6-2.1,0.8-3.1
						c-2.2-3-7.4-8.4-8-8.9C364.8,732.5,344.3,720,344.3,720z"/>
					<path class="st20" d="M347,717.5c-2.4,1.8-3,3.5-3.2,4.6c-0.3,1.6-0.1,4.8,21,19c1.6,1.1,3.5,1.8,5.4,2
						c1.1,0.2,2.3,0.4,3.1-0.3c0.6-0.4,0.7-1.1,0.8-1.2c0.2-0.7,0-1.5-0.5-2.2c-0.3-0.4-0.5-0.7-0.8-1.1c-0.1-0.2-0.3-0.4-0.4-0.6
						c-1.1-1.7-2.2-3.3-3.3-5c-1.2-1.9-2.3-3.9-3.2-5.9c-1.1-2.4-1.7-4.1-1.7-6.1c0-3.1,1.6-5.4,2.4-6.5c8.4-12,16-24.4,24.2-36.5
						c2.3-3.3,5.5-8.4,9-14.8c-5.4-2.6-10.7-5.3-16.1-7.9c-1.4,1.4-3.4,3.5-5.6,6.2c-6,7.3-9.7,14.2-12,19c-4.2,9-7,19.2-10.8,27.2
						c-1.2,2.6-2.3,4.2-3.8,6C349.9,715.3,348.2,716.7,347,717.5z"/>
					<path d="M357.8,738.4c0.9-0.8,4.9-3.9,10-3.2c1.5,0.2,2.8,0.7,3.8,1.2c-0.3-0.8-0.7-1.7-1.2-2.6c-1.1-2-2.3-3.5-3.3-4.7
						c-1.4-0.4-3.2-0.7-5.4-0.6c-5.2,0.3-8.8,2.9-10.2,4.1C353.6,734.5,355.7,736.5,357.8,738.4z"/>
				</g>
				<path class="st17" d="M430.2,595.3c0.4,16.7,0.1,30-0.2,39.2c0,0-0.3,6.2-2.4,22.4c-0.6,4.1-1.2,8.5-3.6,13.7
					c-1.5,3.4-3.1,6.8-6.2,9.3c-7.5,6-19,2.1-20.7,1.5c-0.1-1.3-0.2-2.6-0.3-4c-0.1-2.4-0.2-4.8-0.3-7.1c-1.1,4-2.2,8-3.3,12
					c-2.1,0.7-10.2,3.3-18.8-0.6c-4.4-2-7.3-4.9-8.8-6.8c-1.4-11.1-2.4-23.8-2.2-37.7c0.2-21.5,3-40.2,6.4-55.4
					c8.7-0.2,20.2,0.4,33.4,3.6C414.2,588.1,423.2,591.8,430.2,595.3z"/>
				<g>
					<path class="st27" d="M396.6,651.8c-3,7.3-11.2,12.4-19.1,11.7C384.5,660.3,390.7,656.6,396.6,651.8L396.6,651.8z"/>
				</g>
				<g>
					<path class="st27" d="M397.9,655.7c-0.7,7.9-7.1,15.1-14.8,16.8C388.8,667.4,393.6,662,397.9,655.7L397.9,655.7z"/>
				</g>
				<g>
					<path class="st27" d="M394.5,644.6c-1.7,6.7-9.3,11.5-16,9.9C384.5,652.1,389.6,648.9,394.5,644.6L394.5,644.6z"/>
				</g>
				<g>
					<path class="st27" d="M404.2,655.4c3.5,4.8,8.1,7.7,13.2,10.6C411.2,667.1,404,662,404.2,655.4L404.2,655.4z"/>
				</g>
				<g>
					<path class="st27" d="M407.2,650c3.1,4.6,7.4,7.3,11.4,11C412.9,661,406.6,656.1,407.2,650L407.2,650z"/>
				</g>
				<g>
					<path class="st27" d="M401.6,658.6c2.4,5.2,6.4,8.6,9.8,13C405.8,670.5,400.1,664.7,401.6,658.6L401.6,658.6z"/>
				</g>
				<path class="st28" d="M395.8,595.2c-0.4,19.7-0.9,39.3-1.3,59c0.4,0.8,1.7,3.4,4.3,4.3c3.1,1.1,6.7-0.7,9.1-4.4
					c2.5-14.3,4.2-31.2,3.6-50c-0.2-4.9-0.4-9.6-0.8-14.1C405.7,591.8,400.8,593.5,395.8,595.2z"/>
			</g>
			<g>
				<path class="st20" d="M458.3,579.7c0.4,0.4,0.8,0.9,1.2,1.4c1.1,1.3,2.1,2.5,2.9,4c1.6,2.7,3,5.7,3.9,8.7c0.2,0.8-1.5,6.3-2,7.1
					c-0.5,0.8-2.5,2.3-3.4,2c-0.1,0.3-1.8,1.5-1.8-0.8c-0.5-0.2-1.8-0.4,0.7-4.4l-0.1,0c-0.5-0.8-0.9-1.9-1.1-2.5
					c-0.6-1.4-1.2-3-2.2-4.1c-1.7-1.8-3-4.3-3.8-7.9c-0.3-1,2.1-5.3,3.2-5.4c0.2,0.2,0.5,0.3,0.7,0.4
					C457.2,578.5,457.8,579.1,458.3,579.7z"/>
				<path class="st21" d="M459.7,597.7c0.3,0.4,0.6,0.7,1,0.8c0.3,0.1,0.5,0,0.7-0.1c0.3-0.2,0.5-0.4,0.6-0.7
					c0.2-0.4,0.2-0.8,0.2-1.2c0-2.2-0.8-4.4-1.6-6.4c0,0-0.1-0.1-0.1-0.1s-0.1,0.1-0.1,0.1c0.7,2,1.6,4.2,1.5,6.4
					c0,0.4,0,0.8-0.2,1.1c-0.1,0.2-0.3,0.5-0.5,0.6c-0.2,0.1-0.4,0.2-0.6,0.1c-0.3-0.1-0.6-0.3-0.9-0.7c0,0-0.1-0.1-0.1,0
					S459.7,597.6,459.7,597.7L459.7,597.7z"/>
			</g>
			<g>
				<path class="st20" d="M444.9,557.5c-3.7-6.1-7.4-11.9-11-17.5c-0.5-1.7-1-3.4-1.5-5c-1.5,0.7-3.1,1.3-4.6,2
					c-3.1,1.4-6.2,2.9-9.2,4.5c-0.8,0.4-1.6,0.9-2.3,1.3c0.9,1.8,2.4,4.4,4.5,7.4c2.1,3.1,5.9,8.3,17.2,18.8c3.7,3.4,8.7,8,14.9,13
					c1.4-1.1,2.9-2.2,4.3-3.4C453.3,571.8,449.2,564.7,444.9,557.5z"/>
				<path class="st29" d="M434.6,538.4c-5.6-0.6-11.2-1.2-16.9-1.8c-0.6-14-1.2-28.1-1.7-42.1c0.2-1.1,1.7-7.9,8-11.4
					c3.1-1.8,6.2-2,7.8-2c2.3,7.6,4.7,18.1,5,30.6C437.2,522.3,436.1,531.4,434.6,538.4z"/>
				<path class="st26" d="M437,530.6c-3.7-0.2-7.6-0.4-11.7-0.8c-6.2-0.6-12.2-1.4-17.7-2.3c0.3,2.7,0.6,5.5,0.9,8.2
					c4.3,1.3,9.4,2.4,15.4,3c4.3,0.4,8.2,0.5,11.7,0.3C436,536.2,436.5,533.4,437,530.6z"/>
			</g>
			<path class="st20" d="M420.3,485.2c-0.6,11-11.9,18.9-22.4,18.3c-10.9-0.6-21.2-10.2-20.2-20.7c0.9-9.8,11.1-15,11.9-15.4
				c1.9-1,7.8-3.7,14.8-2C412.9,467.4,420.8,475.6,420.3,485.2z"/>
			<path class="st29" d="M369.5,568c-1.6,8.9-3,18.3-4.2,28.3c-1.1,9.9-1.9,19.4-2.4,28.4c-0.3,0-0.9,0-1.6-0.3
				c-0.8-0.4-1.2-0.9-1.3-1.2c3.7-27.7,7.5-55.4,11.2-83.1c0.1,6.8,0.2,13.6,0.4,20.4C371,563.1,370.2,565.5,369.5,568z"/>
			<path class="st29" d="M432.6,624.7c-7,2.3-18.4,5.1-28.2,5.7c-16.1,1.1-29.3-2.3-37.6-5.1c0.4-5.6,1-13.5,1.7-23
				c1.3-18.7,2.4-34.9,2.6-37.6c0.7-11,0.9-29.8-2.2-62.1c0,0,0,0,0,0c-0.8-4.7-1.4-8.7-1.7-11.6c-0.5-4.2-0.5-5.6-0.3-7
				c0.5-4.2,2.3-7.3,3.7-9.2c3.8-1.9,7.9-3.7,12.4-5.4c2.2-0.9,4.4-1.6,6.5-2.4c0.6-0.2,1.2-0.5,1.8-0.8c0.9-0.5,1.8-0.9,2.5-1.4
				c0.1,0.7,0.2,1.6,0.5,2.6c0,0,0.8,3,2.8,5.8c3.5,4.8,9.6,6.9,10.6,7.2c0.7,2.4,1.4,5,1.9,7.9c0.3,1.6,0.5,3.2,0.6,4.7
				c0.4-3.9,0.9-7.9,1.3-11.8c0.7-0.6,1.7-1.7,2.3-3.1c1.8-3.9,0-7.7-0.3-8.5c3.7,2.6,7.1,4.2,9.3,5.4c3.3,1.7,6.2,3,7.9,4.6
				c0.8,0.7,1.2,1.5,1.3,2.4c0,0.5,0,0.9-0.1,1.1c-1.5,16.5-2.6,30.2-3.3,40.3c-1.5,21-1.7,24.5-1.3,27.9
				c1.6,15.5,2.7,22.9,3.8,34.1c0.9,9.3,1.2,12.6,1.4,15.3C433,610.7,432.9,619,432.6,624.7z"/>
			<g>
				<path class="st26" d="M411.5,481.1c-0.2,5.7-0.8,11.5-1,17.2c-0.3,5.7-0.4,11.5-0.5,17.2c0,0-0.3-0.3-0.3-0.3
					c1.7,0,3.4,0.1,5.2,0.1c-1.7,0.2-3.4,0.3-5.1,0.5c0,0-0.3,0-0.3,0l0-0.3C408.5,504,409.3,492.4,411.5,481.1L411.5,481.1z"/>
			</g>
			<path class="st26" d="M412.9,509.6c0.1,0.3,0.1,0.7,0,0.9c-0.2,0.4-0.7,0.6-1.1,0.5c-0.3-0.1-0.5-0.4-0.6-0.8
				c0-0.5,0.3-0.9,0.7-1C412.3,509.1,412.7,509.2,412.9,509.6z"/>
			<path class="st26" d="M413.3,500.7c0.1,0.3,0.1,0.7,0,0.9c-0.2,0.4-0.7,0.6-1.1,0.5c-0.3-0.1-0.5-0.4-0.6-0.8
				c0-0.5,0.3-0.9,0.7-1C412.7,500.2,413.1,500.3,413.3,500.7z"/>
			<path class="st26" d="M413.5,491.5c0.1,0.3,0.1,0.7,0,0.9c-0.2,0.4-0.7,0.6-1.1,0.5c-0.3-0.1-0.5-0.4-0.6-0.8
				c0-0.5,0.3-0.9,0.7-1C412.9,491,413.3,491.1,413.5,491.5z"/>
			<path class="st22" d="M424.9,477.2c-0.3-3.3-2.7-3.6-3.5-3.3c-0.7-1.6-2-2.3-3.3-1.7c-0.2-1.1-2.4-2-3-1.4
				c0.1,5.4-1.1,57.5-6.7,76.7c-0.3,1.7,10.1,7.3,13.9,4C422.8,548.9,427.7,492.1,424.9,477.2z"/>
			<path class="st20" d="M395.3,539.7c2.1-1.8,2.3-1.8,4.7-3.6c2.1-1.6,2.3-2.2,4.2-3.8c1.1-0.9,2.1-1.5,2.7-1.9
				c-1.9-3.5-3.9-7.1-5.8-10.6c-2.5,1.8-6,3.9-10.5,5.5c-3.3,1.2-6.2,1.8-8.7,2.1c1.9,3.3,3.8,6.7,5.7,10.3c1.1,2.2,2.5,4.7,3.5,6.8
				C392.8,542.4,394.1,540.6,395.3,539.7z"/>
			<path class="st20" d="M418.6,524.7c-4.3,2-8.2,3.7-13.2,6.1c-7,3.4-12.8,6.6-16.9,8.8c1.4,2.7,2.8,5.5,4.2,8.2
				c1.3,1.8,2.7,2.7,3.8,3.1c3.8,1.5,7.9-0.5,13.1-3c1.8-0.9,3.4-1.8,6.6-3.7c2.3-1.4,4.7-2.9,7.7-4.9c10.1-6.5,18.2-12.5,23.9-17
				c-1.1-1.2-2.1-2.4-3.2-3.6c-1.1-1.3-2.3-2.5-3.4-3.8C433.8,518,426.3,521.3,418.6,524.7z"/>
			<path class="st26" d="M407.1,525.2c-3.7,2.3-8.3,4.7-14,6.7c-4,1.4-7.7,2.4-11,3c-2.5-6.3-4.6-11.3-6-14.6
				c-3.5-8.3-5.7-13.4-7.4-17.9c0,0,0,0,0,0c-0.6-5.9-1.2-12.2-2-19c-0.5-3.9,1.5-7.9,5.1-9.6c0.2-0.1,0.4-0.2,0.6-0.3
				c0.1-0.1,0.3-0.1,0.4-0.1c6.2-1.8,14.4,6.5,16,8.1c3.8,4,5.9,8.1,10,18.8C401.2,506.8,404.1,515.2,407.1,525.2z"/>
			<path class="st30" d="M379.3,528.1c3.8-1.4,7.7-2.9,11.8-4.6c5.4-2.3,10.5-4.6,15.2-7c0.8,3.2,1.6,6.4,2.3,9.6
				c-3.1,2.3-7.5,5-13,7.2c-4.9,1.9-9.4,3-12.9,3.5C381.5,533.9,380.4,531,379.3,528.1z"/>
			<path class="st26" d="M411.5,481.1c0.7-0.7,2.1-2.3,2.7-4.7c0.9-3.3-0.4-6-0.7-6.9c0.5,0.3,1.2,0.6,1.6,0.9
				c0.6,0.2,0.8,2.4,0.9,3.2c0.4,2.2,0,2.9-0.5,8.8c-0.1,1.7-0.2,3-0.6,3.1c-0.3,0-0.4-0.8-1.4-2c-0.4-0.4-0.6-0.7-0.8-0.9
				c-0.5-0.4-0.9-0.6-1.2-1.1C411.5,481.3,411.5,481.2,411.5,481.1z"/>
			<path class="st26" d="M393.1,464.6c0.3-0.2,0.8,0,0.9,0.4c0.6,2.7,2.4,8.8,8.1,12.8c1.9,1.3,3.8,2.1,5.4,2.6
				c-0.9,2.3-1.5,4.2-1.8,5.6c-0.3,1-0.4,1.6-0.9,1.8c-1,0.4-2.7-1.6-4.3-3.4c-1.9-2.2-4.3-5.2-7.1-8.8c-0.8-1.2-1.6-2.6-2.4-4.1
				c-0.8-1.5-1.5-3-2-4.4c0.8-0.5,1.7-1,2.5-1.5C392.1,465.1,392.6,464.8,393.1,464.6z"/>
			<g>
				<path d="M408,477.7c-3.4,0-6-2.6-8.2-4.8c-1.7-1.7-3.9-4.4-5.9-8.3c0-0.1,0.1-0.2,0.2-0.3c0.1-0.2,0.2-0.3,0.3-0.4
					c2.3,4.8,5.3,7.9,7.2,9.6c2.6,2.3,5.4,4.1,7.9,3.2c2.3-0.8,3.7-3.7,3.9-7.2c0.1,0.1,0.2,0.3,0.2,0.5c0.1,0.2,0.1,0.4,0.2,0.5
					c-0.1,0.6-0.6,5.7-4,7C409.1,477.7,408.5,477.7,408,477.7z"/>
			</g>
		</g>
		<g>
			<g>
				<g>
					<g>
						<path class="st20" d="M461.5,515.1C461.5,515.1,461.5,515.1,461.5,515.1c-0.1,0.4-0.4,0.9-0.7,1.2c-1.1,1-4.2,2.8-6,3.8
							c-1.8,1-4.8,1.6-5.8,2.2c-0.2,0.1-0.8,0.3-1.4,0.6c-0.8,0.3-1.7,0.7-2.2,1c0,0-4.6-8.4-4.4-8.5c0.9-0.6,2-1.7,2.9-2.7
							c0.6-0.7,1.1-1.4,1.3-1.9c0.4-1,0.6-3,1.5-4.4c1.1-1.8,2.6-2.7,4.4-2.9l5.1-0.7c1.2-0.2,2.2-0.5,3.1,0.8
							c0.2,0.2,0.3,0.5,0.3,0.8c0,0.3,0,0.6-0.1,0.8c0,0.1-0.1,0.2-0.2,0.3c0.1,0,0.3,0,0.4,0c0.6,0.1,1.3,0.4,1.6,1.3
							c0.3,0.9,0,1.6-0.5,2c-0.1,0.1-0.1,0.1-0.1,0.2c0,0.1,0,0.2,0,0.2c0,0.1,0,0.1,0,0.2c0.1,0.1,0.1,0.2,0.3,0.3
							c0.3,0.1,0.6,0.3,0.9,0.8c0.6,1.3-0.2,2-0.7,2.3c-0.1,0-0.1,0.1-0.2,0.1c-0.1,0-0.1,0.1,0,0.2c0,0,0.1,0,0.1,0.1c0,0,0,0,0,0
							c0,0,0,0,0,0c0,0,0,0,0.1,0c0,0,0,0,0,0c0,0,0.1,0.1,0.1,0.1c0,0,0.1,0.1,0.1,0.1c0,0,0.1,0.1,0.1,0.2c0,0.1,0.1,0.2,0.1,0.2
							c0,0.1,0,0.2,0,0.3c0,0.1,0,0.2,0,0.3C461.6,514.6,461.6,514.9,461.5,515.1z"/>
						<path class="st31" d="M461,513.1c-0.2,0-0.4,0.1-0.6,0.2c-0.5,0.3-1,0.6-1.4,1c0.1,0.2,0.4,0.2,0.5,0.2c0.1,0,0.5-0.3,0.9-0.2
							c0.4,0.1,0.6,0.7,1,0.9C461.8,514.3,461.6,513.4,461,513.1z"/>
						<g>
							<path class="st21" d="M461.1,512.8l-2,1.2c-0.1,0.1-0.1,0.2-0.1,0.3c0.1,0.1,0.2,0.1,0.3,0.1l1.9-1.1
								c-0.1-0.1-0.2-0.1-0.3-0.2c-0.1,0-0.1-0.1,0-0.2C461,512.8,461,512.8,461.1,512.8z"/>
						</g>
						<g>
							<g>
								<path class="st21" d="M459.5,505.1l-2.6,1.5c-0.1,0.1-0.1,0.2-0.1,0.3c0.1,0.1,0.2,0.1,0.3,0.1l2.6-1.5c-0.1,0-0.2,0-0.4,0
									C459.3,505.3,459.4,505.2,459.5,505.1z"/>
							</g>
						</g>
						<g>
							<g>
								<g>
									<path class="st21" d="M460.7,508.9l-2.1,1.2c-0.1,0.1-0.1,0.2-0.1,0.3c0.1,0.1,0.2,0.1,0.3,0.1l1.9-1.1
										C460.7,509.2,460.6,509.1,460.7,508.9z"/>
								</g>
							</g>
						</g>
					</g>
				</g>
				<g>
					<path class="st32" d="M454.7,501.5l0.6,1.4c-0.6,0.2-1.2,0.4-1.7,0.7c-1.2,0.5-2.2,1.1-3.5,1.9l-0.4-1.1l-8.4-22.9l-4.3-2.1
						l0.1-2.6l2.9,1l-8.1-22.1c-0.1-0.2-0.1-0.4-0.1-0.6c0.1-0.4,0.3-0.9,0.8-1c0.3-0.1,0.6-0.1,0.8,0c0,0,0.1,0,0.1,0c0,0,0,0,0,0
						c0.1,0.1,0.3,0.2,0.4,0.3c0,0,0,0,0.1,0.1c0.1,0.1,0.1,0.2,0.2,0.3l13.3,30.4l0,0l1.4,3.2c0,0,0,0,0,0l1.6,3.7l0.2-0.4l0.1-0.2
						l1.7-3l2,2.9l-1,5.3l0,0.1l-0.3,1.4L454.7,501.5z"/>
					<path class="st32" d="M467.7,532.8c0,0,0,0.1,0,0.1c0,0.1,0,0.1,0,0.2c0,0.1,0,0.1-0.1,0.2c0,0,0,0.1,0,0.1c0,0,0,0,0,0
						c0,0,0,0.1,0,0.1c0,0,0,0,0,0c0,0.1-0.1,0.2-0.1,0.3c0,0,0,0,0,0c0,0-0.1,0.1-0.1,0.1c0,0-0.1,0.1-0.1,0.1
						c-0.1,0.1-0.1,0.2-0.2,0.3c0,0-0.1,0.1-0.1,0.1c-0.1,0.1-0.1,0.2-0.2,0.2c0,0,0,0,0,0c0,0,0,0,0,0c-0.4,0.4-0.9,0.7-1.4,0.9
						c-1.9,0.7-4.1-0.4-4.8-2.3l-5-13.6l-0.7-1.9l3.7-2.9l1.6-1.3l1,2.3l6.4,14.5c0.1,0.1,0.1,0.2,0.1,0.4c0,0,0,0.1,0,0.1
						c0,0,0,0.1,0,0.1s0,0.1,0,0.1c0,0,0,0.1,0,0.1c0,0,0,0.1,0,0.1c0,0,0,0.1,0,0.1c0,0,0,0,0,0c0,0,0,0.1,0,0.1c0,0,0,0,0,0
						c0,0,0,0.1,0,0.1c0,0,0,0.1,0,0.1c0,0,0,0.1,0,0.1C467.7,532.3,467.7,532.6,467.7,532.8z"/>
					<path class="st33" d="M454.7,501.5l0.6,1.4c-0.6,0.2-1.2,0.4-1.7,0.7l-0.4-0.8l-11.5-27.7l-1.9-4.7l-6.9-16.5
						c0.1,0,0.3,0,0.4,0.1c0,0,0.1,0,0.1,0c0,0,0,0,0,0c0.1,0.1,0.3,0.2,0.4,0.3c0,0,0,0,0.1,0.1c0.1,0.1,0.1,0.2,0.2,0.3l13.3,30.4
						l0,0l1.4,3.2c0,0,0,0,0,0l1.6,3.7l0.2-0.4l0.1-0.2l1.7-3l2,2.9l-1,5.3l0,0.1l-0.3,1.4L454.7,501.5z"/>
					<path class="st33" d="M467.7,532.8c0,0,0,0.1,0,0.1c0,0.1,0,0.1,0,0.2c0,0.1,0,0.1-0.1,0.2c0,0,0,0.1,0,0.1c0,0,0,0,0,0
						c0,0,0,0.1,0,0.1c0,0,0,0,0,0c0,0.1-0.1,0.2-0.1,0.3c0,0,0,0,0,0c0,0-0.1,0.1-0.1,0.1c0,0-0.1,0.1-0.1,0.1
						c-0.1,0.1-0.1,0.2-0.2,0.3c0,0-0.1,0.1-0.1,0.1c-0.1,0.1-0.2,0.2-0.2,0.2c0-0.3-0.1-0.5-0.2-0.8l-6.9-16.7l-1-2.4l1.6-1.3
						l1,2.3l6.4,14.5c0.1,0.1,0.1,0.2,0.1,0.4c0,0,0,0.1,0,0.1c0,0,0,0.1,0,0.1s0,0.1,0,0.1c0,0,0,0.1,0,0.1c0,0,0,0,0,0.1
						c0,0,0,0,0,0.1c0,0,0,0.1,0,0.1c0,0,0,0,0,0c0,0,0,0.1,0,0.1c0,0,0,0,0,0c0,0,0,0.1,0,0.1c0,0,0,0.1,0,0.1c0,0,0,0.1,0,0.1
						C467.7,532.3,467.7,532.6,467.7,532.8z"/>
				</g>
				<path class="st20" d="M461.1,516c-0.1,0.1-0.2,0.2-0.3,0.3c-0.3,0.3-0.8,0.7-1.4,1c-1.2,0.8-2.8,1.7-4,2.4
					c-0.2,0.1-0.4,0.2-0.6,0.3c-1.8,1-4.8,1.6-5.8,2.2l5.3-4.8l4-2.8l1.8-0.9l0.9-0.7C461.8,513.4,461.9,515,461.1,516z"/>
			</g>
		</g>
	</g>
</g>
</svg>
