<?xml version="1.0" encoding="utf-8"?>
<!-- Generator: Adobe Illustrator 26.0.1, SVG Export Plug-In . SVG Version: 6.00 Build 0)  -->
<svg version="1.1" id="Layer_1" xmlns="http://www.w3.org/2000/svg" xmlns:xlink="http://www.w3.org/1999/xlink" x="0px" y="0px"
	 viewBox="0 0 874 824" style="enable-background:new 0 0 874 824;" xml:space="preserve">
<style type="text/css">
	.st0{fill:#BDDEEF;}
	.st1{clip-path:url(#SVGID_00000026131794653270480350000011056246186874764962_);}
	.st2{fill:#AF1919;}
	.st3{fill:#DE9F7E;}
	.st4{fill:#D38A6A;}
	.st5{fill:#D34047;}
	.st6{fill:#CE8065;}
	.st7{fill:#FFFFFF;}
	.st8{fill:#6B3628;}
	.st9{fill:#FCB856;}
	.st10{fill:#B7303D;}
</style>
<g>
	<path class="st0" d="M730.8,412c0,136.6-93.3,251.5-219.6,284.4c-2.5,0.7-5,1.3-7.5,1.8c-21.4,5-43.7,7.6-66.7,7.6
		c-21.2,0-42-2.2-61.9-6.5c-2.3-0.5-4.5-1-6.8-1.5C239.2,666.8,143.2,550.6,143.2,412c0-162.3,131.5-293.8,293.8-293.8
		C599.3,118.2,730.8,249.7,730.8,412z"/>
	<g>
		<defs>
			<path id="SVGID_1_" d="M730.8,412c0,136.6-93.3,251.5-219.6,284.4c-2.5,0.7-5,1.3-7.5,1.8c-21.4,5-43.7,7.6-66.7,7.6
				c-21.2,0-42-2.2-61.9-6.5c-2.3-0.5-4.5-1-6.8-1.5C239.2,666.8,143.2,550.6,143.2,412c0-162.3,131.5-293.8,293.8-293.8
				C599.3,118.2,730.8,249.7,730.8,412z"/>
		</defs>
		<clipPath id="SVGID_00000151528935350769379930000001494623688588998577_">
			<use xlink:href="#SVGID_1_"  style="overflow:visible;"/>
		</clipPath>
		<g style="clip-path:url(#SVGID_00000151528935350769379930000001494623688588998577_);">
			<g>
				<path class="st2" d="M158.5,657.8c-0.4,2-0.6,3.9-0.9,5.9l0.3-4.1L158.5,657.8z"/>
			</g>
			<g>
				<g>
					<g>
						<path class="st3" d="M717.2,705.8c0.2-10.1-0.2-20.4-3.4-28.5c-53.4-9.7-118.3-58.6-159.1-80.6c-2.1-1.1-4.2-3.5-6.1-6
							c-8-14.3-11.3-33.3-12.3-52.5c-0.3-5.8-0.4-11.7-0.3-17.4c0.1-7.9,0.5-15.5,1-22.7c-28.9,9.4-59.6,13.5-89.8,13.5
							c-33.2,0-70.3-4.2-100.1-20.6c0.8,11.2,1.4,23.6,1.4,36c0,5.7-0.1,11.4-0.5,16.9c-0.9,13.9-3,26.9-7.2,36.8
							c0,0-110.9,84.8-175.4,96.5c-8.2,3-9.7,18.1-10.2,28.5H717.2z"/>
						<path class="st4" d="M536,520.9c0,3.7,0,7.3,0.1,10.8c-6.6,7.8-16.8,18.5-31.1,29c-17.5,12.8-35.9,26.2-61.5,27.3
							c-24.6,1.1-43.5-9.7-57.4-17.7c-18.1-10.4-30.4-22.7-37.8-31.2c0.1-3.9,0.2-7.8,0.2-11.8c0.1-12.6-0.5-24.7-1.4-36
							c29.7,16.3,66.9,20.6,100.1,20.6c30.2,0,61-4.2,89.8-13.5C536.4,505.4,536.1,512.9,536,520.9z"/>
						<path class="st3" d="M312.8,357.7c-3-10.9,3.1-14.1-8.9-19.3c-9.9-4.3-18.7,15-20.9,28.6c-2.2,13.6,11.8,61.5,19.6,68.2
							c7.8,6.7,18,9,20.9-2.7L312.8,357.7z"/>
						<path class="st3" d="M568.8,318.3c5.8,57.2,11,115.8-20.5,171c-2.7,4.7-12.7,21.9-30.8,39.8c-15.3,15.2-37.3,32.9-68.8,39.5
							c-6,1.3-12.2,1.3-18.2,0c-46.5-9.8-85.2-53.6-96.4-72.6c0,0,0,0,0-0.1c-1.5-2-2.9-4.4-4.4-7.2c-1.6-3-2.6-5.8-3.5-8.3
							c0,0,0,0,0-0.1c-10.9-29.8-13.8-113.7-15.7-162c-4.9-66.5,36.1-123.5,103.9-143.4c8.1-2.4,16.6-3.5,25.1-3.6h0.1
							c0.7,0,1.4,0,2.1,0c7.4,0.1,14.8,1.1,102.9,54.4C568.7,240.3,564.1,272,568.8,318.3z"/>
					</g>
					<g>
						<path class="st5" d="M263.7,705.8l-57.4-49.1c-26.2,7.3-44.8,9.3-71.7,13.9c-26.7,4.6-42.8,17.1-53.7,35.2H263.7z"/>
					</g>
					<g>
						<path class="st5" d="M793.1,705.8c-10.7-15.5-26.3-26-50.9-30.3c-26.9-4.6-45.9-8.1-72.1-15.4l-21.2,45.7H793.1z"/>
					</g>
					<path class="st5" d="M351.2,705.8c-35.1-33.2-29.1-82.3-7.5-131.8c0,0-12.4,0.2-17.7,3.2c-8.6,4.9-12.1,14.8-12.9,16.7
						c-4.6,11.9-49.6,35-198.3,82.1c0.2,10.3,0.5,20.2,0.9,29.8H351.2z"/>
					<path class="st5" d="M524.6,705.8h238c0-2.9,0-5.8,0-8.7c-0.1-6.9-0.2-12.5-0.3-16c-17.8-6.8-35.8-13.9-54-21.4
						c-19.3-7.9-70.7-31.3-139-64c-0.6-1.9-1.7-4.5-3.5-7.3c-3.7-5.9-8.2-9.3-10.3-10.7c-5.7-3.8-11.1-5-14.2-5.4
						C556.1,616.4,563,670.4,524.6,705.8z"/>
					<g>
						<path d="M439.6,647.6c-7.7-0.2-54.6-1.4-80.6-36.6c-6-8.2-9.4-16.1-11.2-21.4c-2.4-6.9-3.8-12.9-4.6-17.3
							c-0.1-0.1-0.1-0.4-0.2-0.6c-0.3-0.8-1.8-5.8,0.8-10.2c0.5-0.8,1.3-1.9,2.8-3c0.3,2.6,0.9,6.3,1.9,10.6c0,0,4.5,19.5,15.3,35.5
							c15,22.3,74.6,51.7,125.4,25.3c36-18.7,47.9-55.2,50.5-64.3c0.8,0.5,2,3.3,3,6.2c0.6,1.8,0.6,5.4,0.5,6.3
							c-4.2,9.7-14.3,40.4-51,58.2C486.1,639.2,466.5,648.3,439.6,647.6z"/>
					</g>
					<g>
						<path d="M309.5,451.4c-3.9,0-5.7-8-5.7-15.1l2.7,1.8c0,7.9,2.1,10.7,3,10.7c0.9,0,3.1-4.3,3.1-12.2c0-7.9-2.2-12.2-3.1-12.2
							c-0.7-0.7-0.8-1.6,0-2.7c3.9,0,5.7,7.7,5.7,14.8C315.2,443.7,313.4,451.4,309.5,451.4z"/>
					</g>
					<path class="st3" d="M564,358.2c3-10.9,1.3-15.9,11.4-19.8c10.1-3.8,18.7,15,20.9,28.6c2.2,13.6-11.8,61.5-19.6,68.2
						c-7.8,6.7-18,9-20.9-2.7L564,358.2z"/>
					<g>
						<path d="M569.8,451.4c3.9,0,5.7-8,5.7-15.1l-2.7,1.8c0,7.9-2.1,10.7-3,10.7s-3.1-4.3-3.1-12.2c0-7.9,2.2-12.2,3.1-12.2
							c0.7-0.7,0.8-1.6,0-2.7c-3.9,0-5.7,7.7-5.7,14.8C564,443.7,565.8,451.4,569.8,451.4z"/>
					</g>
					<path d="M558.1,386c1.2-2.2,2.5-4.4,3.7-6.5c2-11.7,3.9-23.5,5.9-35.2c4.7-12.7,9.6-29.3,12.1-49.1
						c3.5-28.2,4.3-55.9-11.1-76.9c-11.8-16.2-29.8-13.1-31.5-14.4c-67.1-110.4-206.4-10.4-222.5,26.9c-6.1,15.5-13.9,42.2-11,75.1
						c1.4,15.2,4.7,28.2,8.3,38.6c1.3,2.2,2.7,4.7,3.8,7.4c5.2,11.7,5.8,22.9,5.4,30.6c0.6,2.3,1.3,4.6,1.9,6.9
						c0.4-4.1,1.1-11.3,1.8-20.3c4-50,2.6-65.3,14.1-79.5c3-3.7,8.3-9.1,17.6-13.7c64.8,16,178.7-33.8,181.5-20.3
						c-0.5,6.5-0.7,16.3,1.2,27.9c2.7,16.4,8.3,27.6,10.7,32.9C555.9,329.9,561.5,351.4,558.1,386z"/>
					<g>
						<path class="st6" d="M402.9,489.4c-0.8,3.9,18.9,13.9,40.1,13.8c19.7-0.1,38-8.9,37.4-12.5c-0.1-0.6-1-2.3-30.8-3
							C418.8,487,403.5,486.6,402.9,489.4z"/>
					</g>
					<g>
						<path class="st6" d="M423.3,453.1c-0.5,1.2,8.3,9.3,19.1,9.3c10.3,0,18.7-7.5,18.3-8.7c-0.4-1-7,3-18,3.1
							C430.9,456.7,423.7,452,423.3,453.1z"/>
					</g>
					<g>
						<path d="M342.7,354.7c3.8-4.5,9.2-9.8,16.5-14.3c0,0,0,0,0.1,0c4.1-2.6,9-3.5,13.8-3c11.6,1.2,23.2,2.5,34.9,3.7
							c0.8,1.1,2.1,3.1,2.8,5.9c0.5,2.3,0.4,4.2,0.2,5.5c-13.6-1.4-27.2-2.9-40.8-4.3c-3-0.3-6.1,0-9,0.9
							C355,350.9,348.8,352.8,342.7,354.7z"/>
					</g>
					<g>
						<path d="M539.2,354.7c-3.8-4.5-9.2-9.8-16.5-14.3c0,0,0,0-0.1,0c-4.1-2.6-9-3.5-13.8-3c-11.6,1.2-23.2,2.5-34.9,3.7
							c-0.8,1.1-2.1,3.1-2.8,5.9c-0.5,2.3-0.4,4.2-0.2,5.5c13.6-1.4,27.2-2.9,40.8-4.3c3-0.3,6.1,0,9,0.9
							C526.9,350.9,533.1,352.8,539.2,354.7z"/>
					</g>
				</g>
				<g>
					<path class="st7" d="M409.1,386.8c-0.8-1.8-6-13.5-18.3-16.9c-12.5-3.5-27.1,3.1-34.6,16.6c2.5,2.2,11.8,9.6,25.7,9.9
						C396.7,396.7,406.7,388.8,409.1,386.8z"/>
					<path class="st8" d="M396.5,381.8c0.8,6.6-3.8,12.6-10.4,13.4c-6.6,0.8-12.6-3.8-13.4-10.4c-0.8-6.6,3.8-12.6,10.4-13.4
						C389.7,370.6,395.7,375.2,396.5,381.8z"/>
					<path d="M409.1,386.8c-8.8-15.3-26.3-20.7-41.3-10.9c-4.6,2.9-8.6,6.8-11.9,11.4c1-2.7,2.4-5.2,4-7.6
						C373.6,360.7,402.4,363.4,409.1,386.8L409.1,386.8z"/>
					<path d="M390.6,382.9c0.4,3.2-1.9,6.2-5.1,6.6c-3.3,0.4-6.2-1.9-6.6-5.1c-0.4-3.3,1.9-6.2,5.1-6.6
						C387.2,377.4,390.2,379.7,390.6,382.9z"/>
					<path class="st7" d="M381.8,379.6c0.2,1.4-0.8,2.6-2.2,2.8c-1.4,0.2-2.6-0.8-2.8-2.2c-0.2-1.4,0.8-2.6,2.2-2.8
						C380.4,377.2,381.6,378.2,381.8,379.6z"/>
				</g>
				<g>
					<path class="st7" d="M472.8,387.5c0.7-1.8,5.7-13.7,17.9-17.4c12.4-3.8,27.2,2.4,35,15.7c-2.5,2.2-11.5,9.9-25.5,10.6
						C485.4,397,475.3,389.4,472.8,387.5z"/>
					<path class="st8" d="M485.3,382.2c-0.7,6.6,4.1,12.5,10.7,13.1c6.6,0.7,12.5-4.1,13.1-10.7c0.7-6.6-4.1-12.5-10.7-13.1
						C491.8,370.8,485.9,375.6,485.3,382.2z"/>
					<path d="M472.8,387.5c8.4-15.5,25.8-21.4,41-12c4.6,2.8,8.8,6.6,12.2,11.1c-1-2.7-2.5-5.1-4.2-7.5
						C507.7,360.5,478.9,364,472.8,387.5L472.8,387.5z"/>
					<path d="M491.2,383.2c-0.3,3.3,2,6.2,5.3,6.5c3.3,0.3,6.2-2,6.5-5.3c0.3-3.3-2-6.2-5.3-6.5
						C494.5,377.5,491.6,379.9,491.2,383.2z"/>
					<path class="st7" d="M499.9,379.6c-0.1,1.4,0.9,2.6,2.3,2.8c1.4,0.1,2.6-0.9,2.8-2.3c0.1-1.4-0.9-2.6-2.3-2.8
						C501.3,377.2,500.1,378.2,499.9,379.6z"/>
				</g>
				<path id="XMLID_00000153684907355322365440000008118092449444732346_" class="st9" d="M296.8,262.9
					c60.1-48.9,254.7-41.8,283.9-34c5,2.1,11.3,13.9,8,32.1c5.6,11.6,6.3,27.6-2.1,33.4c0.1,0.2,0.1,0.5,0.1,0.9
					c0.3,4.4-3.5,8-7.9,7.8c-32.9-1.8-186.4-19.3-268.4,30.5c-3.7,2.2-8.5,0.9-10.6-2.8c-2.2-4-3.9-10.2-2.7-19.2
					c-8.2-6.9-6.4-25.2-3.4-29.8C293.5,272.3,294.3,264.9,296.8,262.9z"/>
				<path class="st9" d="M585.7,705.8H706c-1.6-14.5-3.6-27.2-6-37.7c-3.6-31.2-31.3-33.8-40-31.1c-8.6-14.9-22.9-21.5-38.6-15.7
					c-2.9-10.7-27.9-18.4-34.8-13.4C587,619.8,586.9,655.6,585.7,705.8z"/>
				<path class="st10" d="M355.9,705.8c-11.9-12-23.2-28.8-27.9-51.3c-8.6-41.7,11.9-73.9,16.1-80.2c-2.1-0.3-11.2-1.5-19.9,4.4
					c-7.9,5.3-10.5,13-11.2,15.3c-3.9,13.2-8.3,32.2-9,55.4c-0.7,22.6,2.3,41.4,5.9,56.5H355.9z"/>
				<path class="st10" d="M510.9,705.8H567c4-14,7.4-30.9,8.1-51c0.6-16.9-0.9-31.8-2.9-43.8c-1-5.7-1.9-10-2.4-12.1
					c-1.2-5.2-2.4-9.9-3.7-12.8c-4.2-9-16.4-12.4-24.7-13.8c4.8,11.9,8.8,27,8.8,44.4C549.9,655.6,529.4,686.1,510.9,705.8z"/>
			</g>
		</g>
	</g>
</g>
</svg>
