<?xml version="1.0" encoding="utf-8"?>
<!-- Generator: Adobe Illustrator 26.0.1, SVG Export Plug-In . SVG Version: 6.00 Build 0)  -->
<svg version="1.1" id="Layer_1" xmlns="http://www.w3.org/2000/svg" xmlns:xlink="http://www.w3.org/1999/xlink" x="0px" y="0px"
	 viewBox="0 0 756 810" style="enable-background:new 0 0 756 810;" xml:space="preserve">
<style type="text/css">
	.st0{clip-path:url(#SVGID_00000124868951780224018340000009926679080922996405_);fill:#BDDEEF;}
	.st1{clip-path:url(#SVGID_00000124868951780224018340000009926679080922996405_);fill:#52A7C1;}
	.st2{clip-path:url(#SVGID_00000124868951780224018340000009926679080922996405_);}
	.st3{fill:#BDDEEF;}
	.st4{fill:#52A7C1;}
	.st5{fill:#5D5D5D;}
	.st6{fill:#6D3A23;}
	.st7{fill:#E6E6E6;}
	.st8{fill:#FCB99B;}
	.st9{fill:#006293;}
	.st10{fill:#CCCCCC;}
	.st11{fill:#431230;}
	.st12{fill:#580000;}
	.st13{fill:#990000;}
	.st14{fill:#F76467;}
	.st15{fill:url(#SVGID_00000044159967353686243690000009273931459096967097_);}
	.st16{fill:#EA906C;}
	.st17{fill:url(#SVGID_00000023967082280494376210000013715432777762728326_);}
	.st18{fill:#FFFFFF;}
	.st19{fill:#6B3628;}
	.st20{fill:#E7372E;}
	.st21{fill:#C21111;}
	.st22{fill:#FFCC00;}
	.st23{fill:#3E8ACE;}
	.st24{fill:#CD070C;}
	.st25{fill:#E5060B;}
	.st26{fill:#0066A5;}
	.st27{fill:#576B7D;}
	.st28{fill:#5E7389;}
	.st29{fill:#EA4E5A;}
	.st30{fill:#EE252A;}
	.st31{fill:#D7B26B;}
	.st32{fill:#FAD899;}
	.st33{fill:#FF8752;}
</style>
<g>
	<g>
		<defs>
			<path id="SVGID_1_" d="M702.6,247.4c-14-25-30.5-47-47.4-65.7c-0.2,0.3-0.4,0.6-0.5,0.9c0.2-0.3,0.4-0.6,0.5-0.9
				c-3.1-3.4-62.4-53.4-62.4-53.4l0,0c-1.7-1.3-3.3-2.6-4.9-4C540.6,84.7,504.6,12.7,373.1,23.7c-61.3,5.1-101.4,30-130,63.5
				c-8.6,10-16.3,21-23.2,32.6c-21,35.2-35.1,75.7-49.3,111.1c-18.9,46.7-86.4,54-110.7,108.2c-22.2,25.5-33.7,65.8-39.6,95.1
				c-4.2,21-5.4,36.3-5.4,36.3C8.4,617.4,140.5,730.1,276.8,770.9c30.5,9.1,61.2,14.7,90.6,16.2c13.9,0.7,27.5,0.5,40.6-0.6
				c2.7-0.2,5.4-0.5,8.1-0.8c1.9-0.2,3.7-0.4,5.6-0.7c1.6-0.2,3.2-0.4,4.7-0.6c0.9-0.1,1.7-0.2,2.6-0.4c0.8-0.1,1.7-0.2,2.5-0.4
				c44.2-6.8,93.6-22.2,139-45.9c0.2-0.1,0.4-0.2,0.7-0.4c73.2-38.4,135.6-98.3,147.5-178.5c1.7-11.2,16-45.3,20.7-94.4
				C748.5,368.2,721.8,290.6,702.6,247.4z M600.8,189.9c0,0,0.1,0.1,0.1,0.1C600.9,190,600.8,190,600.8,189.9z"/>
		</defs>
		<clipPath id="SVGID_00000046326000706566035800000003389104038991830941_">
			<use xlink:href="#SVGID_1_"  style="overflow:visible;"/>
		</clipPath>
		<path style="clip-path:url(#SVGID_00000046326000706566035800000003389104038991830941_);fill:#BDDEEF;" d="M702.6,247.4
			c-14-25-30.5-47-47.4-65.7c-3.1-3.4-62.4-53.4-62.4-53.4c-1.7-1.3-3.3-2.6-4.9-4C540.6,84.7,504.6,12.7,373.1,23.7
			c-61.3,5.1-101.4,30-130,63.5c-8.6,10-16.3,21-23.2,32.6c-21,35.2-35.1,75.7-49.3,111.1c-18.9,46.7-86.4,54-110.7,108.2
			c-22.2,25.5-33.7,65.8-39.6,95.1c-4.2,21-5.4,36.3-5.4,36.3C8.4,617.4,140.5,730.1,276.8,770.9c30.5,9.1,61.2,14.7,90.6,16.2
			c13.9,0.7,27.5,0.5,40.6-0.6c2.7-0.2,5.4-0.5,8.1-0.8c1.9-0.2,3.7-0.4,5.6-0.7c1.6-0.2,3.2-0.4,4.7-0.6c0.9-0.1,1.7-0.2,2.6-0.4
			c0.8-0.1,1.7-0.2,2.5-0.4c44.2-6.8,93.6-22.2,139-45.9c0.2-0.1,0.4-0.2,0.7-0.4c73.2-38.4,135.6-98.3,147.5-178.5
			c10.6-52.5,25.1-83,25.1-161.3C746.4,345.7,702.6,247.4,702.6,247.4z"/>
		<path style="clip-path:url(#SVGID_00000046326000706566035800000003389104038991830941_);fill:#52A7C1;" d="M-22.4,598.8h825.8
			v18.5L559.6,817.1c0,0-360.2-5.9-381.5-14.7s-185.8-191-185.8-191"/>
		<g style="clip-path:url(#SVGID_00000046326000706566035800000003389104038991830941_);">
			<rect x="308.3" y="122.2" class="st3" width="171.6" height="106.3"/>
			<g>
				<path class="st4" d="M482.6,231.1H305.7V119.6h176.8V231.1z M310.9,225.9h166.4V124.8H310.9V225.9z"/>
			</g>
			<g>
				<polygon class="st4" points="373.7,184.5 373.7,183.7 368.1,185 368.1,185.8 				"/>
				<path class="st4" d="M368.1,181.3L368.1,181.3l0,3.7l1-0.2v-3.4h0c0,0,0.1,0,0.1-0.1c0,0,0-0.1-0.1-0.1c0-0.3-0.2-0.4-0.3-0.5
					c-0.2-0.1-0.2-0.3-0.2-0.3s-0.1,0.2-0.2,0.3c-0.2,0.1-0.3,0.1-0.3,0.5C368.1,181.2,368,181.2,368.1,181.3
					C368,181.3,368.1,181.3,368.1,181.3z"/>
				<path class="st4" d="M373.7,179.9L373.7,179.9l0,3.9l0.5-0.1v0.8h9.2v-0.8h-1v-1.6c0-0.6,0.2-0.9,0.3-1.1
					c0.2-0.3,0.3-0.6,0.3-0.6v-0.9h0.9v-0.7h-0.7c0-2.2-1.1-2.7-2.2-3.2c-1.1-0.5-1.6-1.7-1.6-1.7s-0.6,1.2-1.6,1.7
					c-1.1,0.5-2.2,1-2.2,3.2h-0.7v0.7h0.9v0.9c0,0,0.1,0.2,0.4,0.6c0.2,0.2,0.4,0.4,0.4,1.1v1.6h-2v-3.8h0c0,0,0.1,0,0.1-0.1
					c0,0,0-0.1-0.1-0.1c0-0.3-0.2-0.4-0.3-0.5c-0.2-0.1-0.2-0.3-0.2-0.3s-0.1,0.2-0.2,0.3c-0.2,0.1-0.3,0.1-0.3,0.5
					C373.7,179.8,373.7,179.8,373.7,179.9C373.7,179.9,373.7,179.9,373.7,179.9z M379.9,183.7v-1.6c0-0.6,0.3-0.9,0.5-1.1
					c0.3-0.3,0.5-0.6,0.5-0.6s0.1,0.2,0.5,0.6c0.2,0.2,0.5,0.4,0.5,1.1v1.6H379.9z M377.4,182.1c0-0.6,0.3-0.9,0.5-1.1
					c0.3-0.3,0.5-0.6,0.5-0.6s0.1,0.2,0.5,0.6c0.2,0.2,0.5,0.4,0.5,1.1v1.6h-1.9V182.1z"/>
				<polygon class="st4" points="414.6,184.5 420.1,185.8 420.1,185 414.6,183.7 				"/>
				<path class="st4" d="M419.1,181.3L419.1,181.3l0,3.4l1,0.2v-3.7h0c0,0,0.1,0,0.1-0.1c0,0,0-0.1-0.1-0.1c0-0.3-0.2-0.4-0.3-0.5
					c-0.2-0.1-0.2-0.3-0.2-0.3s-0.1,0.2-0.2,0.3c-0.2,0.1-0.3,0.1-0.3,0.5C419,181.2,419,181.2,419.1,181.3
					C419,181.3,419,181.3,419.1,181.3z"/>
				<path class="st4" d="M404.2,178.9v0.7h0.9v0.9c0,0,0.1,0.2,0.3,0.6c0.1,0.2,0.3,0.4,0.3,1.1v1.6h-1v0.8h9.2v-0.8l0.5,0.1v-3.9h0
					c0,0,0.1,0,0.1-0.1c0,0,0-0.1-0.1-0.1c0-0.3-0.2-0.4-0.3-0.5c-0.2-0.1-0.2-0.3-0.2-0.3s-0.1,0.2-0.2,0.3
					c-0.2,0.1-0.3,0.1-0.3,0.5c0,0-0.1,0-0.1,0.1c0,0,0,0.1,0.1,0.1h0v3.8h-2v-1.6c0-0.6,0.2-0.9,0.4-1.1c0.3-0.3,0.4-0.6,0.4-0.6
					v-0.9h0.9v-0.7h-0.7c0-2.2-1.1-2.7-2.2-3.2c-1.1-0.5-1.6-1.7-1.6-1.7s-0.6,1.2-1.6,1.7c-1.1,0.5-2.2,1-2.2,3.2H404.2z
					 M406.4,183.7v-1.6c0-0.6,0.3-0.9,0.5-1.1c0.3-0.3,0.5-0.6,0.5-0.6s0.1,0.2,0.5,0.6c0.2,0.2,0.5,0.4,0.5,1.1v1.6H406.4z
					 M409,183.7v-1.6c0-0.6,0.3-0.9,0.5-1.1c0.3-0.3,0.5-0.6,0.5-0.6s0.1,0.2,0.5,0.6c0.2,0.2,0.5,0.4,0.5,1.1v1.6H409z"/>
				<path class="st4" d="M444.5,203.6l-0.4-10.4h0.3v-0.4h0c0.2,0,0.3-0.1,0.3-0.3c0-0.1-0.1-0.3-0.3-0.3h-0.3l-0.4-10h0.2v0.4h0.3
					v-0.4h0c0.1,0,0.3-0.1,0.3-0.3c0-0.1-0.1-0.3-0.3-0.3h-0.5l-0.4-10.9h0.1v-0.4h0.3v0.4h0.3v-0.4h0c0.2,0,0.3-0.1,0.3-0.3
					c0-0.2-0.1-0.3-0.3-0.3h-0.7v-0.5h-0.4c0,0,0-1.3,0-1.6c0-0.4,0.1-0.5,0.2-0.6c0.1-0.2,0.2-0.3,0.2-0.3v-0.5h0.7
					c0.2,0,0.3-0.1,0.3-0.3c0-0.2-0.1-0.3-0.3-0.3h-0.6c0-1.2-0.6-1.5-1.2-1.7c-0.6-0.3-0.9-0.9-0.9-0.9s-0.3,0.7-0.9,0.9
					c-0.6,0.3-1.2,0.5-1.2,1.7h-0.6c-0.1,0-0.3,0.1-0.3,0.3c0,0.1,0.1,0.3,0.3,0.3h0.7v0.5c0,0,0,0.1,0.2,0.3
					c0.1,0.1,0.2,0.2,0.2,0.6c0,0.3,0,1.6,0,1.6h-0.4v0.5h-0.7c-0.1,0-0.3,0.1-0.3,0.3c0,0.1,0.1,0.3,0.3,0.3h0v0.4h0.3v-0.4h0.3
					v0.4h0.1l-0.4,10.9h-0.5c-0.1,0-0.3,0.1-0.3,0.3c0,0.1,0.1,0.3,0.3,0.3h0v0.4h0.3v-0.4h0.2l-0.4,10H438c-0.2,0-0.3,0.1-0.3,0.3
					c0,0.2,0.1,0.3,0.3,0.3v0.4h0.3v-0.4h0.1l-0.4,10.8h-0.8h-7.7l-0.3-7.9h0.2v-0.3h0c0.1,0,0.2-0.1,0.2-0.2c0-0.1-0.1-0.2-0.2-0.2
					h-0.2l-0.3-7.6h0.2v0.3h0.2v-0.3h0c0.1,0,0.2-0.1,0.2-0.2c0-0.1-0.1-0.2-0.2-0.2h-0.4l-0.3-8.3h0.1v-0.3h0.2v0.3h0.2v-0.3h0
					c0.1,0,0.2-0.1,0.2-0.2c0-0.1-0.1-0.2-0.2-0.2h-0.5v-0.4h-0.3c0,0,0-1,0-1.2c0-0.3,0.1-0.4,0.2-0.4c0.1-0.1,0.2-0.2,0.2-0.2
					v-0.4h0.5c0.1,0,0.2-0.1,0.2-0.2c0-0.1-0.1-0.2-0.2-0.2h-0.4c0-0.9-0.5-1.1-0.9-1.3c-0.4-0.2-0.7-0.7-0.7-0.7s-0.2,0.5-0.7,0.7
					c-0.4,0.2-0.9,0.4-0.9,1.3h-0.4c-0.1,0-0.2,0.1-0.2,0.2c0,0.1,0.1,0.2,0.2,0.2h0.5v0.4c0,0,0,0.1,0.1,0.2
					c0.1,0.1,0.1,0.2,0.1,0.4c0,0.3,0,1.2,0,1.2h-0.3v0.4h-0.5c-0.1,0-0.2,0.1-0.2,0.2c0,0.1,0.1,0.2,0.2,0.2h0v0.3h0.2v-0.3h0.2
					v0.3h0.1l-0.3,8.3h-0.4c-0.1,0-0.2,0.1-0.2,0.2c0,0.1,0.1,0.2,0.2,0.2h0v0.3h0.2v-0.3h0.1l-0.3,7.6h-0.3c-0.1,0-0.2,0.1-0.2,0.2
					c0,0.1,0.1,0.2,0.2,0.2v0.3h0.2v-0.3h0.1l-0.3,8.2h-4.3v-17.1l-5.6-1.3v18.4H414v-18.4h-9.2v18.4h-0.4v-23.3h-1v-2.8
					c0,0-0.7-0.9-9.2-0.9c-8.4,0-9.2,0.9-9.2,0.9v2.8h-1v23.3h-0.4v-18.4h-9.2v18.4h-0.6v-18.4l-5.6,1.3v17.1h-4.3l-0.3-8.2h0.1v0.3
					h0.2v-0.3c0.1,0,0.2-0.1,0.2-0.2c0-0.1-0.1-0.2-0.2-0.2h-0.3l-0.3-7.6h0.1v0.3h0.2v-0.3h0c0.1,0,0.2-0.1,0.2-0.2
					c0-0.1-0.1-0.2-0.2-0.2h-0.4l-0.3-8.3h0.1v-0.3h0.2v0.3h0.2v-0.3h0c0.1,0,0.2-0.1,0.2-0.2c0-0.1-0.1-0.2-0.2-0.2h-0.5v-0.4h-0.3
					c0,0,0-1,0-1.2c0-0.3,0.1-0.4,0.1-0.4c0.1-0.1,0.1-0.2,0.1-0.2v-0.4h0.5c0.1,0,0.2-0.1,0.2-0.2c0-0.1-0.1-0.2-0.2-0.2h-0.4
					c0-0.9-0.5-1.1-0.9-1.3c-0.4-0.2-0.7-0.7-0.7-0.7s-0.2,0.5-0.7,0.7c-0.4,0.2-0.9,0.4-0.9,1.3h-0.4c-0.1,0-0.2,0.1-0.2,0.2
					c0,0.1,0.1,0.2,0.2,0.2h0.5v0.4c0,0,0,0.1,0.1,0.2c0.1,0.1,0.2,0.2,0.2,0.4c0,0.3,0,1.2,0,1.2h-0.3v0.4h-0.5
					c-0.1,0-0.2,0.1-0.2,0.2c0,0.1,0.1,0.2,0.2,0.2h0v0.3h0.2v-0.3h0.2v0.3h0.1l-0.3,8.3h-0.4c-0.1,0-0.2,0.1-0.2,0.2
					c0,0.1,0.1,0.2,0.2,0.2h0v0.3h0.2v-0.3h0.2l-0.3,7.6H359c-0.1,0-0.2,0.1-0.2,0.2c0,0.1,0.1,0.2,0.2,0.2h0v0.3h0.2l-0.3,7.9h-7.7
					h-0.8l-0.4-10.8h0.1v0.4h0.3v-0.4c0.1,0,0.3-0.1,0.3-0.3c0-0.1-0.1-0.3-0.3-0.3h-0.4l-0.4-10h0.2v0.4h0.3v-0.4h0
					c0.1,0,0.3-0.1,0.3-0.3c0-0.1-0.1-0.3-0.3-0.3h-0.5l-0.4-10.9h0.1v-0.4h0.3v0.4h0.3v-0.4h0c0.2,0,0.3-0.1,0.3-0.3
					c0-0.2-0.1-0.3-0.3-0.3H349v-0.5h-0.4c0,0,0-1.3,0-1.6c0-0.4,0.1-0.5,0.2-0.6c0.1-0.2,0.2-0.3,0.2-0.3v-0.5h0.7
					c0.2,0,0.3-0.1,0.3-0.3c0-0.2-0.1-0.3-0.3-0.3h-0.6c0-1.2-0.6-1.5-1.2-1.7c-0.6-0.3-0.9-0.9-0.9-0.9s-0.3,0.7-0.9,0.9
					c-0.6,0.3-1.2,0.5-1.2,1.7h-0.6c-0.2,0-0.3,0.1-0.3,0.3c0,0.1,0.1,0.3,0.3,0.3h0.7v0.5c0,0,0.1,0.1,0.2,0.3
					c0.1,0.1,0.2,0.2,0.2,0.6c0,0.3,0,1.6,0,1.6h-0.4v0.5h-0.7c-0.2,0-0.3,0.1-0.3,0.3c0,0.1,0.1,0.3,0.3,0.3h0v0.4h0.3v-0.4h0.3
					v0.4h0.1l-0.4,10.9h-0.5c-0.1,0-0.3,0.1-0.3,0.3c0,0.1,0.1,0.3,0.3,0.3h0v0.4h0.3v-0.4h0.2l-0.4,10h-0.3c-0.1,0-0.3,0.1-0.3,0.3
					c0,0.2,0.1,0.3,0.3,0.3h0v0.4h0.3l-0.4,10.4h-0.9v0.6v0.4v5.3h8.3h86h8.3v-5.3v-0.4v-0.6H444.5z M440.1,169.5c0,0,0-1.3,0-1.6
					c0-0.4,0.1-0.5,0.3-0.6c0.2-0.2,0.3-0.3,0.3-0.3s0.1,0.1,0.3,0.3c0.1,0.1,0.3,0.2,0.3,0.6c0,0.3,0,1.6,0,1.6H440.1z
					 M441.4,169.5c0,0,0-1.3,0-1.6c0-0.4,0.1-0.5,0.3-0.6c0.2-0.2,0.3-0.3,0.3-0.3s0.1,0.1,0.3,0.3c0.1,0.1,0.3,0.2,0.3,0.6
					c0,0.3,0,1.6,0,1.6H441.4z M426,177.6c0,0,0-1,0-1.2c0-0.3,0.1-0.4,0.2-0.4c0.1-0.1,0.2-0.2,0.2-0.2s0.1,0.1,0.2,0.2
					c0.1,0.1,0.2,0.2,0.2,0.4c0,0.3,0,1.2,0,1.2H426z M427,177.6c0,0,0-1,0-1.2c0-0.3,0.1-0.4,0.2-0.4c0.1-0.1,0.2-0.2,0.2-0.2
					s0.1,0.1,0.2,0.2c0.1,0.1,0.2,0.2,0.2,0.4c0,0.3,0,1.2,0,1.2H427z M360.4,177.6c0,0,0-1,0-1.2c0-0.3,0.1-0.4,0.2-0.4
					c0.1-0.1,0.2-0.2,0.2-0.2s0.1,0.1,0.2,0.2c0.1,0.1,0.2,0.2,0.2,0.4c0,0.3,0,1.2,0,1.2H360.4z M361.5,177.6c0,0,0-1,0-1.2
					c0-0.3,0.1-0.4,0.2-0.4c0.1-0.1,0.2-0.2,0.2-0.2s0.1,0.1,0.2,0.2c0.1,0.1,0.2,0.2,0.2,0.4c0,0.3,0,1.2,0,1.2H361.5z
					 M345.8,169.5c0,0,0-1.3,0-1.6c0-0.4,0.1-0.5,0.3-0.6c0.2-0.2,0.3-0.3,0.3-0.3s0.1,0.1,0.3,0.3c0.1,0.1,0.3,0.2,0.3,0.6
					c0,0.3,0,1.6,0,1.6H345.8z M347.2,169.5c0,0,0-1.3,0-1.6c0-0.4,0.1-0.5,0.3-0.6c0.2-0.2,0.3-0.3,0.3-0.3s0.1,0.1,0.3,0.3
					c0.1,0.1,0.3,0.2,0.3,0.6c0,0.3,0,1.6,0,1.6H347.2z M394.1,191.1c0.8,0,1.4,0.6,1.4,1.4v2.3h-2.9v-2.3
					C392.7,191.7,393.3,191.1,394.1,191.1z M394.1,198.5c0.8,0,1.4,0.6,1.4,1.4v3.7h-2.9v-3.7C392.7,199.1,393.3,198.5,394.1,198.5z
					 M415.8,190.7c0-2.3,0.5-2.6,0.9-2.9c0.4-0.3,0.7-0.7,0.7-0.7s0.3,0.5,0.7,0.7c0.4,0.3,0.9,0.6,0.9,2.9c0,2.3,0,3.7,0,3.7h-1.6
					h-1.6C415.8,194.5,415.8,193,415.8,190.7z M415.8,199.9c0-2.3,0.5-2.6,0.9-2.9c0.4-0.3,0.7-0.7,0.7-0.7s0.3,0.5,0.7,0.7
					c0.4,0.3,0.9,0.6,0.9,2.9c0,2.3,0,3.7,0,3.7h-3.2C415.8,203.6,415.8,202.2,415.8,199.9z M406.6,190.7c0-2.3,0.9-2.6,1.5-2.9
					c0.6-0.3,1.2-0.7,1.2-0.7s0.6,0.5,1.2,0.7c0.6,0.3,1.5,0.6,1.5,2.9c0,2.3,0,3.7,0,3.7h-1.8v-2.1c0-0.4-0.4-0.8-0.8-0.8
					c-0.4,0-0.8,0.4-0.8,0.8v2.1h-1.8C406.6,194.5,406.6,193,406.6,190.7z M406.6,199.9c0-2.3,0.9-2.6,1.5-2.9
					c0.6-0.3,1.2-0.7,1.2-0.7s0.6,0.5,1.2,0.7c0.6,0.3,1.5,0.6,1.5,2.9c0,2.3,0,3.7,0,3.7h-1.8v-2.1c0-0.4-0.4-0.8-0.8-0.8
					c-0.4,0-0.8,0.4-0.8,0.8v2.1h-1.8C406.6,203.6,406.6,202.2,406.6,199.9z M387.2,183.7h13.9v19.9H400c0,0,0-8,0-10.8
					c0-5.2-4.6-4.7-5.8-6.9c-1.2,2.2-5.8,1.6-5.8,6.9c0,2.7,0,10.8,0,10.8h-1.1V183.7z M376.4,190.7c0-2.3,0.9-2.6,1.5-2.9
					c0.6-0.3,1.2-0.7,1.2-0.7s0.6,0.5,1.2,0.7c0.6,0.3,1.5,0.6,1.5,2.9c0,2.3,0,3.7,0,3.7h-1.8v-2.1c0-0.4-0.4-0.8-0.8-0.8
					c-0.4,0-0.8,0.4-0.8,0.8v2.1h-1.8C376.4,194.5,376.4,193,376.4,190.7z M376.4,199.9c0-2.3,0.9-2.6,1.5-2.9
					c0.6-0.3,1.2-0.7,1.2-0.7s0.6,0.5,1.2,0.7c0.6,0.3,1.5,0.6,1.5,2.9c0,2.3,0,3.7,0,3.7h-1.8v-2.1c0-0.4-0.4-0.8-0.8-0.8
					c-0.4,0-0.8,0.4-0.8,0.8v2.1h-1.8C376.4,203.6,376.4,202.2,376.4,199.9z M369.3,190.7c0-2.3,0.5-2.6,0.9-2.9
					c0.4-0.3,0.7-0.7,0.7-0.7s0.3,0.5,0.7,0.7c0.4,0.3,0.9,0.6,0.9,2.9c0,2.3,0,3.7,0,3.7h-1.6h-1.6
					C369.3,194.5,369.3,193,369.3,190.7z M369.3,199.9c0-2.3,0.5-2.6,0.9-2.9c0.4-0.3,0.7-0.7,0.7-0.7s0.3,0.5,0.7,0.7
					c0.4,0.3,0.9,0.6,0.9,2.9c0,2.3,0,3.7,0,3.7h-3.2C369.3,203.6,369.3,202.2,369.3,199.9z"/>
				<path class="st4" d="M384.9,175.1c0,0,0.6-0.9,9.2-0.9c8.6,0,9.2,0.9,9.2,0.9s3.5-3.1,0.7-7.6c-2.7-4.4-7.2-6-9.7-8.8
					c0,0,0,0,0,0c0.3-0.1,0.6-0.4,0.6-0.8c0-0.3-0.2-0.6-0.5-0.7c0.2-0.1,0.3-0.3,0.3-0.5c0-0.3-0.3-0.6-0.6-0.6c0,0,0,0,0,0
					c0.1,0,0.2,0,0.2,0v-0.8c-0.1,0-0.2,0-0.2,0c0,0,0,0,0,0c0.3,0,0.6-0.3,0.6-0.6c0-0.3-0.3-0.6-0.6-0.6c0,0,0,0,0,0
					c0.1,0,0.2,0,0.2,0v-1.6c0,0,0-0.2-0.2-0.2c-0.2,0-0.2,0.2-0.2,0.2v1.6c-0.2,0.1-0.4,0.3-0.4,0.6c0,0.3,0.2,0.5,0.4,0.6v0.8
					c-0.2,0.1-0.4,0.3-0.4,0.6c0,0.2,0.1,0.4,0.3,0.5c-0.3,0.1-0.5,0.4-0.5,0.7c0,0.4,0.2,0.7,0.6,0.8c-2.4,2.8-6.9,4.4-9.7,8.8
					C381.5,172,384.9,175.1,384.9,175.1z M394.1,158.8C394.1,158.8,394.1,158.8,394.1,158.8C394.1,158.8,394.1,158.8,394.1,158.8
					C394.1,158.8,394.1,158.8,394.1,158.8z M394.2,158.8C394.2,158.8,394.3,158.8,394.2,158.8C394.3,158.8,394.2,158.8,394.2,158.8z
					 M394,158.8C394,158.8,394,158.8,394,158.8C394,158.8,394,158.8,394,158.8z"/>
			</g>
			<rect x="309.9" y="207.8" class="st4" width="168.5" height="18.1"/>
		</g>
	</g>
	<g>
		<g>
			<path class="st5" d="M282.8,521.9c-0.6-1.1-14.5-26.6-10.1-42.4l6.4,0.8c-3.1,11.2,6,31.1,9.8,38L282.8,521.9z"/>
			<path class="st5" d="M345.5,505.9c-0.6-1.1-15.1-25.8-11.4-41.1l6.2,0.8c-2.6,10.8,7,30.2,10.9,36.8L345.5,505.9z"/>
			<path class="st5" d="M382.4,706.2c4.5-80.3,8.7-155.9-20.6-168.7l-3.3,7.6c24.9,10.9,20.2,87.4,15.7,161.3L382.4,706.2z"/>
			<path class="st5" d="M461.5,677c-2.6,0.3-5.2,0.5-7.9,0.8c0.5-10.7,0.7-21.8,0.5-33.2c-0.9-52.6-10.1-99-21.7-137.6l2.8-6.6
				c13.8,39.5,25.3,88.1,26.6,144C462.2,655.6,462,666.5,461.5,677z"/>
			<path class="st5" d="M317.4,674.4l8.3-0.9c0.6-18,0.3-36.9,0-56.5c-0.9-57-1.8-117,23.5-128.7l-2.8-5.7
				c-29.9,13.7-29.3,73.4-28.6,135.6C317.9,637.7,318.1,656.6,317.4,674.4z"/>
			<path class="st5" d="M256.3,692c2.2-73.2,4.4-149.1,31-163.4l-2.6-7.1c-31.5,16.9-34.1,92.1-36.8,171.9L256.3,692z"/>
			<path class="st6" d="M327.1,356.3c-18.4-0.1-54.8,9-65,25.4c-10.5,16.8-3.6,100.8,6.6,106.9c10.3,6.1,71.5-12.3,84.4-32.9
				C365.6,435.6,364.4,356.5,327.1,356.3z"/>
			<path class="st6" d="M342,504.3c-24.2,5.1-81.6,16.9-70.6,25.5c11.1,8.7,99.9,27,128.4,23.4c28.1-3.5,83.7-23.2,85.8-27.2
				C494.8,507.4,370.9,498.3,342,504.3z"/>
			<path class="st7" d="M456.2,510.2c-36.2-7.3-95.4-9.8-114.2-5.8c-5,1-11.3,2.4-18.1,3.9l0.3,0.2c-12.1,3.7-38.9,11.2-13.2,17.2
				c25.7,6,72,16.1,108.6,8.5C455.3,526.8,476.2,519.1,456.2,510.2z"/>
			<path class="st7" d="M353.1,455.6c11.6-18.5,11.5-88-18.2-98c-8.7,0.7-41.5,4.5-56,22.8c-8.1,10.2-10.2,79.9,5,90.8
				c15.3,11,44.5,1.6,58.2-4.8C346.9,462.9,350.7,459.3,353.1,455.6z"/>
		</g>
		<g>
			<g>
				<path class="st8" d="M432.5,397c-3.7-0.9-7.3-1.9-10.8-2.9c-3.6-10.4-7.2-20.7-10.7-31.1l-24.5,8.8c5.2,13.7,10.4,27.3,15.5,41
					c1.2,1.9,3.1,4.2,5.7,6.4c1.1,0.9,2.3,1.7,3.3,2.4c3.9,0.1,7.8,0.2,11.7,0.3C425.5,413.4,428.8,405.1,432.5,397z"/>
			</g>
			<g>
				<g id="a1_acton_3_Layer1_0_MEMBER_3_MEMBER_0_FILL_00000078008989982359980500000017674636035483912082_">
					<path class="st9" d="M413.2,356c-2.9-10.2-6.2-21.2-15.3-30.2c-2.1-2.1-4.1-3.6-5.3-4.4c-1.6,5.9-3,12.7-4,20.3
						c-1.3,10-1.4,19-1.1,26.6c1.1,3.5,2.2,7.1,3.3,10.6l25.2-10.7C415.1,363,414,358.8,413.2,356z"/>
				</g>
			</g>
			<g>
				<g>
					<g transform="matrix( 0.9983978271484375, -0.05657958984375, 0.0879364013671875, 0.996612548828125, -63.2,4.35) ">
						<g>
							<g transform="matrix( 1, 0, 0, 1, 0,0) ">
								<g>
									<g id="Cloth_1Lad1y_R_leg_0_Layer2_0_FILL_00000158708295946620110590000016150524394838350764_">
										<path class="st8" d="M453.8,677c0,0.2,0.1,0.3,0.1,0.5c0.7,2,1.4,4,2.1,5.9c0.8,2,1.5,3.9,2.3,5.9
											c0.1,0.3,0.2,0.5,0.3,0.8c2.9,7.1,5.3,12.6,7.2,16.5c1.2,3,2.3,5,3.4,6.1c1,1.1,1.7,1.7,1.9,2c0.5,0.8,1.1,1.7,1.8,2.8
											c0.2,0.3,0.4,0.7,0.6,1c0.7,2,0.9,3.6,0.6,4.7c-0.5,2.2-2.7,2.8-6.6,2c-2.8-0.6-6.4-2-10.9-4.2c-2.5-1.6-4.8-3.7-6.8-6.2
											c-2.2-5.2-4.9-9.6-8.1-13.1c-1.1-1.2-2.2-2.3-3.4-3.4c-1.9-2.3-2.8-4.6-2.9-6.8l0-0.1c0,0,0-0.1,0-0.2
											c0-0.2,0.1-0.4,0-0.5l0,0.1c0,0,0,0.1,0,0.2c0-0.3,0-0.6,0-0.9c0-0.4,0.4-1.4,1.1-3.2c0.3-0.8,0.6-1.4,0.8-1.9
											c0-0.1,0.1-0.1,0.1-0.2c0.4-0.7,0.6-2.3,0.5-4.9c0,0,0,0,0-0.1l0.2-3.1c1.2,0.3,2,0.4,2.4,0.5c3.3,0.7,7.9,0.7,13.7,0.2
											C453.9,677.4,453.9,677.2,453.8,677z"/>
									</g>
								</g>
							</g>
							<g transform="matrix( 1, 0, 0, 1, 0,0) ">
								<g>
									<g id="Cloth_1Lad1y_R_leg_0_Layer1_0_MEMBER_0_FILL_00000116210542849138879360000012606473592991983232_">
										<path class="st10" d="M456.2,722.1L456.2,722.1l0.1,0L456.2,722.1z"/>
									</g>
								</g>
							</g>
							<g transform="matrix( 1, 0, 0, 1, -34.5,0) ">
								<g transform="matrix( 1, 0, 0, 1, 0,0) ">
									<g>
										<g id="Hands_1s1hoe_rht_0_Layer1_0_FILL_00000101801978452900383730000004043932341327300482_">
											<path class="st11" d="M473.1,702.1L473.1,702.1L473.1,702.1L473.1,702.1 M514,735.5l0.1,0.1c0.3-0.2,0.6-0.5,0.8-0.8
												C514.7,735,514.4,735.2,514,735.5z"/>
											<path class="st12" d="M514.1,735.5l-0.1-0.1c-1.9,1.2-6.4,0.6-13.6-1.6c-7.1-2.2-11.9-4.6-14.4-7.2
												c-1.6-1.8-2.9-3.5-3.7-5c-0.3-0.7-0.6-1.3-0.8-2c-2.4-9.3-4.4-14.8-5.9-16.5l0-0.1l-0.1,0l-0.1-0.1l-0.1,0l0-0.1l-0.1,0
												l0-0.1l-1.9-1.5c-0.1,0.2-0.2,0.4-0.3,0.6l0.1,0.1c-0.4,0.9-0.8,1.9-1.2,2.9c-1.4,4-2.4,8.8-3,14.5
												c0.8,0.1,1.4-0.1,2-0.6c0-0.2,0.1-0.4,0.1-0.6c0.2-4.9,1-8.6,2.4-11.2l1.8-3.2c0.1,0,0.2,0.1,0.3,0.2
												c1.5,1.7,3.5,7.2,5.9,16.4c0.2,0.7,0.4,1.3,0.8,2c0.8,1.5,2,3.2,3.6,4.9c2.4,2.5,7.2,4.9,14.2,7.1
												c7.1,2.2,11.5,2.6,13.4,1.5C513.7,735.9,513.9,735.7,514.1,735.5 M475.1,703.7L475.1,703.7L475.1,703.7
												C475.2,703.7,475.1,703.7,475.1,703.7z"/>
											<path class="st13" d="M507.4,717.6c-0.7-1.1-1.3-2-1.8-2.8c0.3,0.3,0.8,0.9,1.5,1.8c0.4,0.5,0.9,1.1,1.5,1.9
												c0.7,1,1.6,2.1,2.6,3.5c3,4,4.7,7.1,4.8,9.2c0.1,1.4-0.2,2.6-1.1,3.6c-0.3,0.2-0.6,0.5-1,0.7c-1.9,1.2-6.4,0.6-13.6-1.6
												c-7.1-2.2-11.9-4.6-14.4-7.2c-1.6-1.8-2.9-3.5-3.7-5c-0.3-0.7-0.6-1.3-0.8-2c-2.4-9.3-4.4-14.8-5.9-16.5l0-0.1l-0.1,0
												l-0.1-0.1l-0.1,0l0-0.1l-0.1,0l0-0.1l-1.9-1.5c-0.1,0.2-0.2,0.4-0.3,0.6l0,0.1l0.1,0c-0.4,0.9-0.8,1.9-1.2,2.9
												c-1.4,4-2.4,8.8-3,14.5c0.8,0.1,1.4-0.1,2-0.6c0,0.5,0,0.9,0,1.4c0,0.1,0,0.3,0,0.4c-0.8,0.4-1.6,0.6-2.5,0.5
												c-0.8-0.1-1.3-0.3-1.5-0.5c0.2-0.7,0.4-1.4,0.5-2.1c1.2-5.2,1.2-9.8,0.1-13.7c-0.9-2.3-0.9-5.2-0.2-8.6
												c0-0.1,0-0.3,0.1-0.4c0.6-2.7,1.4-5,2.5-6.9c0.1-0.2,0.2-0.4,0.3-0.5c-0.3,0.7-0.4,1.5-0.5,2.2c0,0.3,0,0.6-0.1,0.9
												c0.1,2.2,1.1,4.5,2.9,6.8c1.2,1,2.3,2.1,3.4,3.4c3.2,3.5,5.9,7.9,8.1,13.1c2,2.5,4.2,4.6,6.8,6.2
												c14.2,6.8,19.8,5.9,16.9-2.6C507.8,718.2,507.6,717.9,507.4,717.6z"/>
										</g>
									</g>
								</g>
							</g>
						</g>
						<g>
							<g transform="matrix( 1, 0, 0, 1, 0,0) ">
								<g>
									<g id="Cloth_1Lad1y_R_leg_0_Layer2_0_FILL_00000172415706724024744100000003357685836892828554_">
										<path class="st8" d="M424.6,682c0,0.2,0.1,0.3,0.1,0.5c0.7,2,1.4,4,2.1,5.9c0.8,2,1.5,3.9,2.3,5.9
											c0.1,0.3,0.2,0.5,0.3,0.8c2.9,7.1,5.3,12.6,7.2,16.5c1.2,3,2.3,5,3.4,6.1c1,1.1,1.7,1.7,1.9,2c0.5,0.8,1.1,1.7,1.8,2.8
											c0.2,0.3,0.4,0.7,0.6,1c0.7,2,0.9,3.6,0.6,4.7c-0.5,2.2-2.7,2.8-6.6,2c-2.8-0.6-6.4-2-10.9-4.2c-2.5-1.6-4.8-3.7-6.8-6.2
											c-2.2-5.2-4.9-9.6-8.1-13.1c-1.1-1.2-2.2-2.3-3.4-3.4c-1.9-2.3-2.8-4.6-2.9-6.8l0-0.1c0,0,0-0.1,0-0.2
											c0-0.2,0.1-0.4,0-0.5l0,0.1c0,0,0,0.1,0,0.2c0-0.3,0-0.6,0-0.9c0-0.4,0.4-1.4,1.1-3.2c0.3-0.8,0.6-1.4,0.8-1.9
											c0-0.1,0.1-0.1,0.1-0.2c0.4-0.7,0.6-2.3,0.5-4.9c0,0,0,0,0-0.1l0.2-3.1c1.2,0.3,2,0.4,2.4,0.5c3.3,0.7,7.9,0.7,13.7,0.2
											C424.7,682.4,424.6,682.2,424.6,682z"/>
									</g>
								</g>
							</g>
							<g transform="matrix( 1, 0, 0, 1, 0,0) ">
								<g>
									<g id="Cloth_1Lad1y_R_leg_0_Layer1_0_MEMBER_0_FILL_00000030473430792284726760000005010620625145041576_">
										<path class="st10" d="M426.9,727.1L426.9,727.1l0.1,0L426.9,727.1z"/>
									</g>
								</g>
							</g>
							<g transform="matrix( 1, 0, 0, 1, -34.5,0) ">
								<g transform="matrix( 1, 0, 0, 1, 0,0) ">
									<g>
										<g id="Hands_1s1hoe_rht_0_Layer1_0_FILL_00000086693757721423401850000004690444812531173293_">
											<path class="st11" d="M443.8,707.1L443.8,707.1L443.8,707.1L443.8,707.1 M484.7,740.5l0.1,0.1c0.3-0.2,0.6-0.5,0.8-0.8
												C485.4,740,485.1,740.2,484.7,740.5z"/>
											<path class="st12" d="M484.9,740.5l-0.1-0.1c-1.9,1.2-6.4,0.6-13.6-1.6c-7.1-2.2-11.9-4.6-14.4-7.2
												c-1.6-1.8-2.9-3.5-3.7-5c-0.3-0.7-0.6-1.3-0.8-2c-2.4-9.3-4.4-14.8-5.9-16.5l0-0.1l-0.1,0l-0.1-0.1l-0.1,0l0-0.1l-0.1,0
												l0-0.1l-1.9-1.5c-0.1,0.2-0.2,0.4-0.3,0.6l0.1,0.1c-0.4,0.9-0.8,1.9-1.2,2.9c-1.4,4-2.4,8.8-3,14.5
												c0.8,0.1,1.4-0.1,2-0.6c0-0.2,0.1-0.4,0.1-0.6c0.2-4.9,1-8.6,2.4-11.2l1.8-3.2c0.1,0,0.2,0.1,0.3,0.2
												c1.5,1.7,3.5,7.2,5.9,16.4c0.2,0.7,0.4,1.3,0.8,2c0.8,1.5,2,3.2,3.6,4.9c2.4,2.5,7.2,4.9,14.2,7.1
												c7.1,2.2,11.5,2.6,13.4,1.5C484.4,740.9,484.7,740.7,484.9,740.5 M445.8,708.7L445.8,708.7L445.8,708.7
												C445.9,708.7,445.9,708.7,445.8,708.7z"/>
											<path class="st13" d="M478.1,722.6c-0.7-1.1-1.3-2-1.8-2.8c0.3,0.3,0.8,0.9,1.5,1.8c0.4,0.5,0.9,1.1,1.5,1.9
												c0.7,1,1.6,2.1,2.6,3.5c3,4,4.7,7.1,4.8,9.2c0.1,1.4-0.2,2.6-1.1,3.6c-0.3,0.2-0.6,0.5-1,0.7c-1.9,1.2-6.4,0.6-13.6-1.6
												c-7.1-2.2-11.9-4.6-14.4-7.2c-1.6-1.8-2.9-3.5-3.7-5c-0.3-0.7-0.6-1.3-0.8-2c-2.4-9.3-4.4-14.8-5.9-16.5l0-0.1l-0.1,0
												l-0.1-0.1l-0.1,0l0-0.1l-0.1,0l0-0.1l-1.9-1.5c-0.1,0.2-0.2,0.4-0.3,0.6l0,0.1l0.1,0c-0.4,0.9-0.8,1.9-1.2,2.9
												c-1.4,4-2.4,8.8-3,14.5c0.8,0.1,1.4-0.1,2-0.6c0,0.5,0,0.9,0,1.4c0,0.1,0,0.3,0,0.4c-0.8,0.4-1.6,0.6-2.5,0.5
												c-0.8-0.1-1.3-0.3-1.5-0.5c0.2-0.7,0.4-1.4,0.5-2.1c1.2-5.2,1.2-9.8,0.1-13.7c-0.9-2.3-0.9-5.2-0.2-8.6
												c0-0.1,0-0.3,0.1-0.4c0.6-2.7,1.4-5,2.5-6.9c0.1-0.2,0.2-0.4,0.3-0.5c-0.3,0.7-0.4,1.5-0.5,2.2c0,0.3,0,0.6-0.1,0.9
												c0.1,2.2,1.1,4.5,2.9,6.8c1.2,1,2.3,2.1,3.4,3.4c3.2,3.5,5.9,7.9,8.1,13.1c2,2.5,4.2,4.6,6.8,6.2
												c14.2,6.8,19.8,5.9,16.9-2.6C478.5,723.3,478.3,722.9,478.1,722.6z"/>
										</g>
									</g>
								</g>
								<g transform="matrix( 1, 0, 0, 1, 0,0) ">
									<g>
										<g id="Hands_1s1hoe_rht_0_Layer1_1_FILL_00000048485537000302159880000005033561311928034438_">
											<path class="st14" d="M439.8,698.3c0.9,3.3,1.7,5.3,2.5,6.1c-0.7,2.4-1.5,5.2-2.4,8.2l-0.8-5.8"/>
										</g>
									</g>
								</g>
							</g>
						</g>
					</g>
					<g>
						<g>
							<g transform="matrix( 1.0998382568359375, 0.017730712890625, -0.017730712890625, 1.0998382568359375, -2.05,-472) ">
								<g transform="matrix( 1, 0, 0, 1, 0,0) ">
									<g>
										<g id="Hair_1c2h_hair_ul_0_Layer0_0_MEMBER_0_FILL_00000038412448400126814360000015209911345742918800_">
											<path d="M340,643.2c0.2,0.2,0.4,0.3,0.7,0.5c0.8,0.7,1.5,1.4,2.2,2.2c4.2,4.3,7.4,9.2,9.6,14.6
												c2.2,5.4,3.3,11.2,3.3,17.3c0,6.1-0.6,11.6-2,16.4c-1.4,4.8-3.6,8.3-6.6,10.4c-3,2.1-6.1,3.5-9.2,4.2
												c-3,0.7-6.1,0.5-9.5-0.7c-2.9-0.9-5.8-2.5-8.7-4.6c-4-2.9-7.6-6.4-10.7-10.3c-0.6-0.8-1.3-1.7-1.9-2.5
												c-2-2.9-3.7-5.9-5.1-9.1c-0.4-0.9-0.7-1.7-1.1-2.6c-0.1-0.1-0.1-0.3-0.1-0.4c-2.5-6.5-3.3-12.9-2.5-19.3
												c0.9-7.1,3.7-12.6,8.4-16.5c3.2-2.6,6.9-4.4,11.3-5.1c4.2-0.7,8.4-0.5,12.6,0.7C333.9,639.4,337.1,641,340,643.2z"/>
										</g>
									</g>
								</g>
							</g>
							<g transform="matrix( 0.9995880126953125, 0.0284576416015625, -0.0284576416015625, 0.9995880126953125, -8.95,-341.75) ">
								<g transform="matrix( 1, 0, 0, 1, 0,0) ">
									<g>
										<g id="Body_1la3dy_body_0_Layer2_0_FILL_00000176732135450853402900000006430189380762661032_">
											
												<linearGradient id="SVGID_00000067941817943263244920000002037088445566780858_" gradientUnits="userSpaceOnUse" x1="-598.2546" y1="1531.9156" x2="-527.0918" y2="1492.9567" gradientTransform="matrix(-1.3173 3.750317e-02 -3.750317e-02 -1.3173 -328.5469 2661.6899)">
												<stop  offset="5.490200e-02" style="stop-color:#DA776A"/>
												<stop  offset="0.4078" style="stop-color:#EB9A90"/>
												<stop  offset="1" style="stop-color:#FA9A90"/>
											</linearGradient>
											<path style="fill:url(#SVGID_00000067941817943263244920000002037088445566780858_);" d="M336.5,666.9l-3.6,0.1
												c-0.1-3.1,0.5-5.9,2-8.5C334.8,661.4,335.3,664.2,336.5,666.9z"/>
											<path class="st8" d="M334.9,658.5c0.1-0.2,0.5-0.8,1.1-1.6c0.6-0.8,2.3-2.2,4.9-4.1c2.6-1.9,6.3-3.6,11.1-5.2
												c13.3-2.9,22.8-6.4,28.4-10.6c13.1,4,21.4,6.9,24.9,8.5l0,0c5.6,1.4,8.7,4.2,11.9,5.9c3.7,1.9,6.2,4.2,6.7,6.5
												c0.7,3.1,2.2,4.3,2.6,6.4l-90.1,2.5C335.3,664.2,334.8,661.4,334.9,658.5z"/>
										</g>
									</g>
								</g>
								<path class="st8" d="M353.8,650.2c2.6,1.3,6.3,4.7,10.9,10.2c4.6,5.5,12.3,7.2,22.9,5c10.6-2.2,17.3-5.1,20-8.7l0.2-0.2
									c1.3-1.6,2-3.5,2.1-5.5c0-0.2,0-0.5,0-0.7c0-1.6-0.5-2.9-1.4-3.8l0,0c-7.6-2.8-12.7-5.4-15.4-7.7c-0.1-0.2-0.2-0.4-0.2-0.6
									c-0.6-1.5-1-2.9-1.2-4.4c-0.1-0.4-0.1-0.8-0.2-1.2c0-0.3,0-0.6,0-0.9c0-0.2,0-0.5,0-0.7c0-0.1,0-0.2,0-0.2
									c0-1.9,0.3-3.8,0.9-5.7c0.4-6.1-1.1-10.2-4.6-12.2c-3.4-2.1-8.8-2.1-16.1-0.1c0,0-0.1,0-0.1,0.1c0,0,0,0,0,0
									c0.2,2,0.2,3.9,0,5.9c0,0.2,0,0.5-0.1,0.7c-0.1,1.3-0.3,2.2-0.4,2.8l0,0c-0.3,1.3-0.6,2.6-1,4c-0.4,1.3-0.8,2.6-1.4,3.9
									c-0.1,0.3-0.3,0.7-0.4,1c-0.4,0.7-0.8,1.5-1.2,2.3c-1.4,2.5-3,5-5,7.4l0,0c-1.8,1.9-3.9,3.6-6.5,4.9
									c-0.8,0.5-1.5,0.9-2.3,1.1c-1.4,0.5-2.4,0.9-2.9,1.1C350,648.2,351.2,648.9,353.8,650.2z"/>
								<g transform="matrix( 1, 0, 0, 1, 0,0) ">
									<g>
										<g id="Cloth_1ch_head_0_Layer3_0_MEMBER_0_FILL_00000172402830100733420730000008220264689683589762_">
											<path class="st16" d="M370,626.3c1.4,1,3.8,2.5,8.2,4.7c5.6,2.8,8.1,3.1,9.8,3.1c1.3,0.1,2.5-0.1,3.6-0.4
												c-0.1-0.4-0.1-0.8-0.2-1.2c0-0.3,0-0.6,0-0.9c0-0.2,0-0.5,0-0.7c0-0.1,0-0.2,0-0.2c0-1.9,0.3-3.8,0.9-5.7
												c0.4-6.1-1.1-10.2-4.6-12.2c-3.4-2.1-8.8-2.1-16.1-0.1c0,0-0.1,0-0.1,0.1c0,0,0,0,0,0c0.2,2,0.2,3.9,0,5.9
												c0,0.2,0,0.5-0.1,0.7c-0.1,1.3-0.3,2.2-0.4,2.8l0,0C370.8,623.6,370.4,624.9,370,626.3z"/>
										</g>
									</g>
								</g>
							</g>
							<g transform="matrix( 1.0998382568359375, 0.017730712890625, -0.017730712890625, 1.0998382568359375, -2.05,-472) ">
								<g transform="matrix( 1, 0, 0, 1, 0,0) ">
									<g>
										<g id="Cloth_1ch_head_0_Layer3_0_MEMBER_0_FILL_00000071532243024695060970000012226802684789430156_">
											<path class="st8" d="M310.3,634.9c4.2-6.3,10.6-10.2,19.2-11.7c7.8-1.4,14.4-0.3,19.7,3.4c0.1,0,0.1,0.1,0.1,0.1
												c0.5,0.3,0.9,0.6,1.4,1c0,0,0,0,0,0c5.6,4.5,8.6,9.6,9.1,15.5c0.5,5.8,0.4,10.2-0.2,13.4l0,0.3l-0.3,6.7
												c-0.1,1.9-0.4,4.9-1,8.7c-0.7,5.2-2.1,9.6-4.2,13.1l-3.5,5.7c-1.8,4.3-5,6.3-9.5,6.1c-1.5-0.1-3.8-0.3-8.9-3
												c-4.6-2.4-6.7-3.8-7.9-4.8c-5.8-4.8-7.8-11.9-8.6-15.8c-0.2,0.2-0.4,0.5-0.8,0.7c-1.2,0.7-1.3,0.3-1.5,0.3
												c-0.6-0.2-1.4-0.6-2.2-1.8c-4-6.1-4.4-18-4.4-18c-0.4-6.7,0.2-9.4,0.5-10.8c0.5-2.1-0.1-4.1,1-6.1
												C309,636.9,309.6,635.9,310.3,634.9z"/>
										</g>
									</g>
								</g>
								<g transform="matrix( 0.9879913330078125, 0, 0, 0.7599945068359375, -0.1,-13.1) ">
									<g>
										<g id="Cloth_1ch_head_0_Layer3_0_MEMBER_1_FILL_00000132807790951121953540000007417396739424491953_">
											
												<linearGradient id="SVGID_00000170989540743697587740000017163459425506376350_" gradientUnits="userSpaceOnUse" x1="-1826.6022" y1="1911.1848" x2="-1825.0851" y2="1911.1848" gradientTransform="matrix(-1.4318 3.695291e-02 -9.595884e-03 -1.1017 -440.9483 2975.2666)">
												<stop  offset="0" style="stop-color:#FF4145"/>
												<stop  offset="1" style="stop-color:#EE252A"/>
											</linearGradient>
											<path style="fill:url(#SVGID_00000170989540743697587740000017163459425506376350_);" d="M346.6,878.2
												c0-0.6,0.1-1.1,0.4-1.6c0.3-0.4,0.6-0.6,1-0.7c0.4,0,0.8,0.2,1.1,0.6c0.3,0.4,0.4,0.9,0.4,1.5c0,0.6-0.1,1.1-0.4,1.5
												c-0.3,0.4-0.6,0.7-1,0.7c-0.4,0-0.8-0.2-1-0.6C346.8,879.3,346.6,878.8,346.6,878.2z"/>
										</g>
									</g>
								</g>
								<g transform="matrix( 1, 0, 0, 1, 0,0) ">
									<g>
										<g id="Cloth_1ch_head_0_Layer0_0_FILL_00000050621598480461653450000011141353364477420219_">
											<path class="st18" d="M348.3,665.3c0.9,0.4,1.8,0.7,2.8,0.9c1.1,0.3,2.3,0.3,3.4,0.1c1.2-0.2,2.4-0.7,3.4-1.5
												c1-0.6,1.6-1.4,2-2.3c-0.2-0.4-0.7-0.8-1.4-1.3c-2.4-1.3-4.9-1.3-7.3,0.1C349.7,662.4,348.7,663.7,348.3,665.3
												 M328.7,666.4c1,0.5,2,0.8,3.1,0.9c0.3,0,0.5,0,0.8,0c1.2,0.1,2.5-0.1,3.8-0.5c1-0.3,2-0.7,2.9-1.1
												c-0.5-1.5-1.7-2.6-3.5-3.4c-1.5-0.5-3-0.7-4.5-0.5c-1.2,0.2-2.4,0.6-3.6,1.3c-0.8,0.5-1.3,0.9-1.6,1.4
												C326.8,665.2,327.6,665.9,328.7,666.4z"/>
										</g>
									</g>
								</g>
								<g transform="matrix( -0.7544708251953125, -0.016265869140625, -0.018157958984375, 0.8441314697265625, 11.15,-37.15) ">
									<g transform="matrix( 1, 0, 0, 1, 0,0) ">
										<g>
											<g id="ch3eye_ball__0_Layer0_0_FILL_00000020395603175883157610000012893775179654732711_">
												<path class="st19" d="M-446.6,818.7c1,0.1,1.9,0.5,2.6,1.3c0.7,0.8,1,1.8,0.9,2.8c-0.1,1-0.5,1.9-1.3,2.6
													c-0.8,0.7-1.8,1.1-2.8,1c-1.1-0.1-1.9-0.5-2.6-1.3c-0.7-0.8-1-1.7-0.9-2.7c0.1-1.1,0.6-2,1.4-2.7
													C-448.6,818.9-447.6,818.6-446.6,818.7z"/>
											</g>
										</g>
									</g>
									<g transform="matrix( 1.2004852294921875, 0, 0, 1.2004852294921875, -269.35,-88.45) ">
										<g>
											<g id="ch3eye_ball__0_Layer0_0_MEMBER_0_MEMBER_0_FILL_00000065787061387399895330000015321829821218923919_">
												<path d="M-148.3,757.3c0.9,0.1,1.5,1.1,1.4,1.9c-0.1,0.7-0.8,1.4-1.6,1.4c-0.9-0.1-1.4-0.9-1.4-1.7
													C-149.9,758-149.1,757.2-148.3,757.3z"/>
											</g>
										</g>
									</g>
									<g transform="matrix( 1.5006103515625, 0, 0, 1.5006103515625, -7.85,7.4) ">
										<g>
											<g id="ch3eye_ball__0_Layer0_0_MEMBER_0_MEMBER_1_FILL_00000109017706119523335880000012307557274287727285_">
												<path class="st18" d="M-292.7,542.7c-0.1-0.1-0.2-0.2-0.1-0.4c0-0.1,0.1-0.3,0.2-0.4c0.1-0.1,0.2-0.2,0.4-0.1
													c0.1,0,0.3,0.1,0.4,0.2c0.1,0.1,0.2,0.3,0.1,0.4c0,0.2-0.1,0.3-0.2,0.4c-0.1,0.1-0.3,0.2-0.4,0.1
													C-292.5,542.9-292.6,542.9-292.7,542.7z"/>
											</g>
										</g>
									</g>
								</g>
								<g transform="matrix( -0.7393646240234375, -0.01593017578125, -0.017791748046875, 0.827239990234375, -13.95,-37.4) ">
									<g transform="matrix( 1, 0, 0, 1, 0,0) ">
										<g>
											<g id="ch3eye_ball__0_Layer0_0_FILL_00000092423835084665820640000013690193072777350075_">
												<path class="st19" d="M-518.1,833.3c1,0.1,1.8,0.5,2.4,1.3c0.6,0.8,0.9,1.8,0.8,2.8c-0.1,1-0.5,1.9-1.3,2.6
													c-0.8,0.7-1.7,1.1-2.6,1c-1-0.1-1.8-0.5-2.4-1.3c-0.7-0.8-1-1.7-0.9-2.7c0.1-1.1,0.5-2,1.3-2.7
													C-520,833.5-519.1,833.2-518.1,833.3z"/>
											</g>
										</g>
									</g>
									<g transform="matrix( 1.2004852294921875, 0, 0, 1.2004852294921875, -269.35,-88.45) ">
										<g>
											<g id="ch3eye_ball__0_Layer0_0_MEMBER_0_MEMBER_0_FILL_00000026129698737795872840000001647105162525229216_">
												<path d="M-207.5,769.5c0.9,0.1,1.5,1.2,1.2,2.1c-0.2,0.5-0.8,1.1-1.5,1.1c-0.8-0.1-1.4-0.9-1.3-1.6
													C-209.1,770.2-208.3,769.4-207.5,769.5z"/>
											</g>
										</g>
									</g>
									<g transform="matrix( 1.5006103515625, 0, 0, 1.5006103515625, -7.85,7.4) ">
										<g>
											<g id="ch3eye_ball__0_Layer0_0_MEMBER_0_MEMBER_1_FILL_00000011030791904498463820000016925548259719428792_">
												<path class="st18" d="M-340,552.7c-0.1-0.1-0.2-0.2-0.1-0.4c0-0.1,0.1-0.3,0.2-0.4c0.1-0.1,0.2-0.2,0.4-0.1
													c0.1,0,0.3,0.1,0.4,0.2c0.1,0.1,0.2,0.3,0.1,0.4c0,0.2-0.1,0.3-0.2,0.4c-0.1,0.1-0.3,0.2-0.4,0.1
													C-339.8,552.9-339.9,552.8-340,552.7z"/>
											</g>
										</g>
									</g>
								</g>
								<g transform="matrix( -0.7544708251953125, -0.016265869140625, -0.018157958984375, 0.8441314697265625, -0.95,-38.3) ">
									<g>
										<g id="Cloth_1ch_head_0_Layer0_0_MEMBER_2_FILL_00000159460409212761291580000012180246393700229036_">
											<path d="M-499.8,819.8c0.4,0.9,1.9,3.7,5.5,5.3c5.4,2.4,10.8-0.1,11.3-0.4c0.3,0,0.5,0.1,0.8,0.1c0,0,0.2-0.1,0.3-0.3
												c0.1-0.2-0.1-0.4-0.1-0.4c-2.5-4.8-7.2-7.5-11-6.8c-0.8,0.1-2.4,0.6-4,2.2C-497.9,819.7-498.9,819.7-499.8,819.8z
												 M-482.8,824.1c-4.2,1.6-13.1,2.4-14-2.9c1.1-3.5,7.7-3.3,10.4-0.6C-485.1,821.4-483.9,822.6-482.8,824.1z"/>
										</g>
									</g>
								</g>
								<g transform="matrix( -0.7544708251953125, -0.016265869140625, -0.018157958984375, 0.8441314697265625, -0.95,-38.3) ">
									<g>
										<g id="Cloth_1ch_head_0_Layer0_0_MEMBER_3_FILL_00000173130522836402734640000013968588489883664039_">
											<path d="M-471.1,824.7C-471.1,824.7-471.1,824.8-471.1,824.7c0,0.1,0,0.1-0.1,0.1l0,0l0,0c-0.3,0.5,0.1,0.7,0.6,0.6
												c1.4,0.8,3.8,1.8,6.8,2.1c7.5,0.6,12.9-4.1,13.7-4.9c-0.9,0-1.9,0.1-2.8,0.1c-1.3-1-3.9-2.8-7.7-3.2
												c-1.2-0.1-3-0.3-5.1,0.4C-469.2,821.2-470.7,823.9-471.1,824.7z M-453.8,823.7c-4.1,4.3-11.5,3.8-16.6,1.1
												c1.2-3.2,6.6-4.9,10.3-4.3C-458.2,820.9-454.9,822.1-453.8,823.7z"/>
										</g>
									</g>
								</g>
								<g transform="matrix( -0.7544708251953125, -0.016265869140625, -0.018157958984375, 0.8441314697265625, -0.95,-38.3) ">
									<g>
										<g id="Cloth_1ch_head_0_Layer0_0_MEMBER_4_FILL_00000140704275254114933310000018101176995393338034_">
											<path d="M-493.1,810.5c-0.8,0-2.4,0-3.4,1c-0.9,0.8-1,1.8-1.1,1.8c-0.1,0,0-2.6,1.9-4c0.7-0.5,1.5-0.7,2.5-0.8
												c2.7-0.2,6.1,1,10.2,3.8c0,0.2,0,0.4,0,0.7c-0.1,0.4-0.2,0.8-0.3,1.2C-484.2,813.5-488.9,810.4-493.1,810.5z"/>
										</g>
									</g>
								</g>
								<g transform="matrix( -0.7544708251953125, -0.016265869140625, -0.018157958984375, 0.8441314697265625, -0.95,-38.3) ">
									<g>
										<g id="Cloth_1ch_head_0_Layer0_0_MEMBER_5_FILL_00000089544782304390613700000003215482653416305338_">
											<path d="M-469.5,814.2c-0.1-0.2-0.3-0.6-0.3-1.1c0-0.3,0.1-0.5,0.1-0.7c6.3-2.1,11.1-2.8,14.4-2.2c3.3,0.6,6,2,7.9,4.2
												c-1.9-0.6-4.2-1.2-6.8-1.5C-460.7,812.1-466.2,813.2-469.5,814.2z"/>
										</g>
									</g>
								</g>
							</g>
							<g transform="matrix( 1.0998382568359375, 0.017730712890625, -0.017730712890625, 1.0998382568359375, -2.05,-472) ">
								<path d="M295.5,675.6c0.1,1.1,0.4,2.7,1.4,4.3c1.8,2.8,4.9,3.7,6.1,4c-3.8-3.5-3.5-6.1-3.4-6.8c0.4-2.6,3.4-4.3,9.2-7.8
									c2.3-1.4,2.1-1.1,4.3-2.4c3-1.8,6.7-3.9,10.1-7.4c1.8-1.8,4.4-4.7,6.5-9.1l0,0c0.3-0.5,1.6-3.1,1.8-3.6
									c2-6.4,6.7-13.3,13.8-13.4l-0.5-16.2c-0.1,0-0.2,0-0.3,0.1c-0.1-0.1-0.1-0.2-0.1-0.3c0,0-0.1-0.1-0.1-0.1
									c-10.3-4.5-20.8-1.7-29,4.5c-11.2,8.4-14.7,21-15.5,24.5c-1.3,5.4-0.2,6.1-2,13.2C296.7,663.7,294.8,669.3,295.5,675.6z"/>
								<path d="M370.1,650.5c-0.1-1.7-0.3-3.4-0.5-5c-0.6-3.9-1.5-7.4-2.7-10.5c-1-2.6-2.2-4.9-3.6-7.1c-1.5-2.3-3.2-4.3-5.1-6
									c-2.5-2.2-5.1-3.7-7.8-4.4c-1.5-0.4-3-0.5-4.5-0.3l-0.1,0c-0.3,0-0.6,0.1-0.9,0.1c-0.1,0-0.1,0-0.2,0l0.5,16.2l0,0
									c0.4,0,0.8,0,1.1,0.1c0.2,0,0.3,0,0.5,0.1c0.3,0,0.6,0,0.9,0.1c0.9,0.2,1.8,0.7,2.7,1.4c1.9,1.6,3.5,3.5,4.9,5.8
									c1.3,2.2,2.2,4.5,2.9,7c0.6,2.5,1,4.5,1.1,6.1c0.2,1.5,0.2,3.3,0,5.3l-0.2,4.4c-0.1,1.8-0.4,4.6-0.9,8.3
									c0,0.2,0,0.4-0.1,0.6c-0.7,4.6-2,8.6-3.9,11.7l-3.7,6.8l0.1,3.5c0.5,1.2,1,2.3,1.6,3.3c0.1-0.3,0.3-0.6,0.4-0.9
									c0.8-1.6,1.8-3.3,3.2-5.1c0.5-0.7,1-1.4,1.6-2.1c1.2-1.5,2.1-2.7,2.7-3.4c-1.2,3-1.6,5.6-1.7,7.4c-0.1,2.9,0.3,7,0.3,7
									c0,0,0,0.3,0,0.3c0,0,1-5.7,2.5-10.4c1.5-4.7,2.8-6.4,4.4-10.1c1.5-3.3,3.2-8.1,4.1-14.6c0.1-0.9,0.3-1.7,0.3-2.6
									C370.6,659.4,370.6,655.1,370.1,650.5z"/>
							</g>
							<g transform="matrix( 1, 0, 0, 1, 0,0) ">
								<g>
									<g id="Layer5_48_MEMBER_2_FILL_00000076589382393540733290000016119584040123069352_">
										<path class="st20" d="M364.4,285.6c4.7-0.1,6.3-0.5,6.4-0.1c0.2,0.6-2.8,2.5-6.2,2.8c-4.1,0.3-7.8-1.9-7.7-2.5
											C357.1,285.4,358.9,285.8,364.4,285.6z"/>
									</g>
								</g>
							</g>
							<g transform="matrix( 0.3377532958984375, 0, 0, 0.3377532958984375, 3216.95,368.4) ">
								<g>
									<g id="Layer4_0_MEMBER_8_FILL_00000145741581376142197050000017505519154721259445_">
										<path class="st16" d="M-8440.7-262c-0.6,0.2-2.3,0.7-4.6,0.3c-4.5-0.7-7.8-4.4-7.5-5c0.4-0.6,3.6,2.1,9,2
											c4.8-0.1,7.7-2.3,8.1-1.6C-8435.3-265.6-8437.6-263-8440.7-262z"/>
									</g>
								</g>
							</g>
							<g>
								<path class="st21" d="M330.9,277.9c0,0.7,0.2,1.1,0.4,1.4c0.6,0.6,1.5,0.5,1.9-0.2c0.2-0.3,0.3-0.7,0.3-1.2
									c0-0.1,0-0.2,0-0.4c-0.2-1.3-0.6-2.5-1.3-3.8c0,0,0,0,0,0c-0.7,1.2-1.1,2.5-1.3,3.7C330.9,277.6,330.9,277.7,330.9,277.9z"
									/>
								<path class="st22" d="M330.2,278.8c0,1.7,0.7,2.6,2.1,2.6c1.7,0,2.4-1.4,1.9-4.2c0-0.2-0.1-0.3-0.1-0.5
									c-0.4-1.7-1-3.3-1.8-4.7c-0.7,1.3-1.3,2.8-1.7,4.3c-0.1,0.3-0.1,0.5-0.2,0.8C330.2,277.8,330.2,278.3,330.2,278.8z
									 M330.9,277.9c0-0.2,0-0.3,0.1-0.5c0.2-1.2,0.6-2.5,1.3-3.7c0,0,0,0,0,0v-0.2l0,0.3c0.7,1.3,1.1,2.5,1.3,3.8
									c0,0.1,0,0.2,0,0.4c0,0.2,0,0.7-0.3,1.2c0,0,0,0,0,0c-0.5,0.8-1.5,0.8-2,0C331,278.8,330.9,278.4,330.9,277.9z"/>
							</g>
						</g>
						<g transform="matrix( 0.351959228515625, 0, 0, 0.351959228515625, 4965.5,580.6) ">
							<g transform="matrix( 1, 0, 0, 1, 0,0) ">
								<g>
									<g id="Seragu_0_Layer0_0_FILL_00000086651284861311903960000007886235529736446138_">
										<path class="st23" d="M-13238.6-739.5c18.5-4.3,38.5-7.2,60-8.7c5.8,193.8,11.6,387.6,17.4,581.4
											c52.5-0.1,104.9-0.2,157.4-0.3c-2.5,4.9-6.7,11.8-13.8,17.9c-41.8,35.8-128.3-4.6-142.7-11.3
											C-13298.4-225-13241.4-717.1-13238.6-739.5z"/>
										<path class="st24" d="M-13243.6-740.9c1.7,0.4,3.3,0.9,5,1.3v0.1c-13.8,89.9-21.6,206.5-4.3,339.9
											c8,61.8,20.2,117.7,33.9,167c6.3,12.5,20,35.4,46.4,53.2c45,30.4,93.1,23.5,104.8,21.6c7.9,6.8,15.8,13.6,23.7,20.4
											c-16.6,5.3-42.3,10.8-72.7,6.6c-75.2-10.4-116.5-71.3-124-82.6c-9.1-28.5-17.5-58.7-24.7-90.5
											c-21.2-93.5-24.3-167.1-26.4-224.7c-2.8-72.8,1-115.4,2.9-133.8c2.7-26.6,6.3-48.9,9.3-65
											C-13261-731.9-13252.3-736.4-13243.6-740.9z"/>
										<path class="st25" d="M-13247.6-733.5c6.4-2,13-3.9,19.8-5.5L-13247.6-733.5z"/>
									</g>
								</g>
							</g>
						</g>
						<g transform="matrix( 1, 0, 0, 1, 0,0) ">
							<g>
								<g id="a1_acton_3_Layer11_0_MEMBER_3_MEMBER_0_FILL_00000154384123822512800370000002433281581231511485_">
									<path class="st26" d="M387.9,319.4c17.6,7.4,19.9,25.2,17.2,48.9l-26.5,3.7l-4.1-31.4C381.3,331.3,381.1,321.7,387.9,319.4
										z"/>
								</g>
							</g>
						</g>
						<g transform="matrix( 1, 0, 0, 1, 0,0) ">
							<g>
								<g id="Cloth_1lady11_top_0_Layer1_0_MEMBER_1_FILL_00000134944798446083254110000001086354064848948386_">
									<path class="st26" d="M316.8,315.4c0.7,12.7,2.2,22.9,3.5,30c2.4,13.1,5.2,22.6,7,39.7c0.4,4.5,0.7,8.2,0.8,10.6
										c-2.2,8.7-4.4,17.5-6.6,26.2c0.3,0.8,0.7,1.6,1.1,2.3c10.2,15.6,61.5-1.5,74.1-5.9c0.1-4.5,0.4-11.5,1.6-19.9
										c2.2-14.4,6-17.4,7.4-34.2c1.4-16.2-1-24-2-26.8c-0.1-0.3-0.2-0.5-0.3-0.7c-3.4-8.3-7.7-12.8-10.7-15.3
										c-4.8-3.1-10.1-6.2-16-9.3c-3.9-2-7.6-3.7-11.2-5.2c-0.2,0.6,1.7,3.2,4.1,6.1c3.1,7.2,14.9,18.8-1.6,20.2
										c-17.3,5.1-30.7-10.5-30.9-27.2C330.2,309.1,323.5,312.3,316.8,315.4z M377,355.6c0,0,0-0.1,0-0.1
										C377,355.6,377,355.6,377,355.6L377,355.6z"/>
									<path class="st27" d="M376.9,355.5c0,0.1,0,0.1,0,0.1l0,0C377,355.6,376.9,355.6,376.9,355.5z"/>
									<path class="st28" d="M337.1,305.6L337.1,305.6c0-0.1,0-0.1,0-0.2C337.1,305.4,337.1,305.5,337.1,305.6z"/>
								</g>
							</g>
						</g>
						<g transform="matrix( 1, 0, 0, 1, 0,0) ">
							<g>
								<g id="Cloth_1lady11_top_0_Layer1_1_FILL_00000011752327177840126060000007839513252479442080_">
									<path class="st26" d="M476.5,492.2c-16.8,6.6-92.9,35.9-120.7,33.5c-4.1-0.4-8-1.5-8-1.5c-17.3-3.6-30.8-17.3-34.1-34.6
										c-1.6-8.3-2.4-17.7-1.7-28.2c1.2-17.7,6.4-31.5,10.5-40.3c0.3,0,1.9,0.2,2.1,0.9c0,0,0,0.1,0,0.1c0,0.1,0,0.1,0,0.1
										c2.4,8.5,12.6,13.1,30.6,13.7l0.4,0c0.3,0,0.6,0,0.9,0c0.8,0,1.7,0,2.6,0c0.2,0,0.4,0,0.6,0c0.3-0.2,0.6-0.4,0.8-0.4
										c0.3-0.1,0.6-0.1,0.8,0c0.2,0.1,0.3,0.2,0.5,0.3c0.6-0.5,1.1-0.5,1.6-0.1c0.1,0.1,0.1,0.1,0.2,0.2c0.8-0.5,1.5-0.7,2.1-0.7
										c0.1,0,0.2,0.1,0.3,0.1c0.1,0,0.1,0.1,0.2,0.1c0.8-0.5,1.6-0.5,2.5,0c0,0,0.1-0.1,0.1-0.1c0.9-0.6,1.8-0.5,2.8,0.1
										c0.1-0.1,0.2-0.1,0.3-0.2c0.6-0.4,1.5-0.4,2.5,0c0.1,0.1,0.2,0.1,0.4,0.2c7.1-0.2,13.7-0.9,19.9-1.9
										c0.9-0.1,1.7-0.3,2.6-0.5c0,0.1,0,0.1,0.1,0.2c0,0.1,0.1,0.2,0.1,0.3c0,0.1,0,0.2,0.1,0.3c0.1,0.3,0.1,0.4,0.2,0.9
										c0.1,0.3,0.8,4.2,2.6,14.7c8.6,2,18.6,5.1,29.3,10C451.2,469.3,466.6,482.3,476.5,492.2z"/>
								</g>
							</g>
							<path class="st26" d="M490.9,668.9c-5.3,4.5-22.4,6.6-41.3,6.9c-8.9,0.1-18.3-0.1-27-0.7h0c-0.2,0-0.3,0-0.5,0h0
								c-0.3,0-0.6,0-0.9-0.1c-0.1,0-0.2,0-0.3,0c-2.4-0.2-4.8-0.4-7.1-0.6c-6.5-0.7-12.3-1.5-17-2.6c-1.8-0.4-3.4-0.8-4.8-1.3
								c-0.5-0.2-1.1-0.3-1.6-0.5h0c-2.7-1-4.6-2.1-5.2-3.3c-2.2,0.2-4.7,0.2-7.1-0.1c-7.8-0.9-15.5-4.2-17.6-6.9
								c5.4-30.9,11.3-62.2,17.8-93.9c0.2-1.1,0.5-2.4,0.5-2.4c1.7-8.2,3-14.2,4.9-21.7c0.4-1.6,0.4-1.6,0.4-1.7
								c0.5-8.1-24.8-16.2-51.2-22.6c28.5-16.5,56.9-32.9,85.4-49.4c7-0.5,19.7-0.5,33.5,5.7c25,11.2,36.4,33.6,37.8,41.2
								c2.5,13.6,4.5,28.4,5.8,44.1C498.9,602.4,495.6,639.8,490.9,668.9z"/>
						</g>
						<g transform="matrix( 1, 0, 0, 1, 0,0) ">
							<g>
								<g id="Cloth_1lady11_top_0_Layer1_1_MEMBER_6_FILL_00000126290105051624426250000012811520249729767095_">
									<path class="st29" d="M321.4,421.6c1.2-4.8,2.4-9.5,3.7-14.3c4.6,4,18.9,15.4,40.3,16.4c14.4,0.7,25.6-3.7,31.3-6.4
										c0.4,6,0.7,11.9,1.1,17.9c-5.2,3.1-20.3,11.2-39.5,8.6c-5.4-0.7-18-2.6-28.9-12.6C325.6,427.8,323,424.2,321.4,421.6z"/>
								</g>
							</g>
						</g>
						<g transform="matrix( 1, 0, 0, 1, 0,0) ">
							<g>
								<g id="Cloth_1lady11_top_0_Layer1_2_FILL_00000152263622037350926030000009925143309177035158_">
									<path class="st24" d="M317,313c1-0.4,2.1-0.8,3.2-1.2c26.4,28.6,52.9,57.2,79.3,85.8c0.4-1.1,0.9-2.2,1.2-3.4
										c1.8-5.5,2.3-10.6,2.3-14.8c-4.1-9.6-10.7-21.9-21.2-34.4c-18.5-21.9-39.8-33-52.2-38.2C324.4,309.2,320.1,311.3,317,313z"
										/>
									<path class="st24" d="M342.9,389.5c13.6,28.6,13.5,35.8,25.9,55.9c0,0,7.9,12.9,16.3,23.1c28.7,34.9,84.1,45.1,104.6,48.1
										c-0.1-1.2-0.2-2.5-0.5-3.9c-0.8-4.2-2.4-7.5-3.8-9.8c-45.4-7.2-69.8-24.9-83.8-39.9c-24.1-25.9-24.8-52.2-59.4-107.7
										c-11.1-17.9-21.4-31.8-28.3-40.7c-5.3,2.8-10.6,5.6-16,8.4c5.3,5.2,12.5,12.9,20,23C329.3,361.1,335.4,373.8,342.9,389.5z"
										/>
									<path class="st23" d="M333.8,341.5L333.8,341.5c6.6,11.8,16.4,29.9,27.1,52.5c16.1,33.9,17.7,45.1,25.3,57.6
										c11.7,19.2,37.2,41.7,99.2,51.4c-3.2-4.4-8.1-10.4-14.9-16.8c-11-10.3-21.2-15.9-31.8-21.7c-7.5-4-17.3-8.8-29.3-13.3
										c-5.9-2.2-10.3-7.1-11.6-13.3c0-0.1,0-0.1,0-0.2c-2-9.7-1.6-18.2-0.7-24.4c0.9-5.5,1.9-10.9,2.8-16.4
										c-3.2-7.6-7.3-15.6-12.5-23.8c-20.7-32.8-48.4-51.7-67.3-61.9c-0.7,0.4-1.5,0.7-2.2,1.1c-1.9,1-3.6,2-5.3,3
										C319.1,323.4,326.1,332,333.8,341.5z"/>
								</g>
							</g>
						</g>
						<g transform="matrix( 1, 0, 0, 1, 0,0) ">
							<g>
								<g id="Cloth_1lady11_top_0_Layer1_2_MEMBER_0_FILL_00000018198963294485471900000001526351669910811306_">
									<path class="st30" d="M363.1,385.8l0.2,0.4c0,0-0.1,0-0.1,0L363.1,385.8z"/>
								</g>
							</g>
						</g>
						<path d="M321.3,289.7c1.4,3,3.2,7.5,4.9,13.1c4.3,15.1,1.9,21,3.5,34.5c2.2,18.3,8.1,19.6,14.7,48.2
							c1.7,7.4,2.7,13.5,3.3,17.2c3-8.2,5.7-19.3,3.6-31.8c-1.6-9.5-5.3-17.2-5.2-17c2.5,5.1,4.9,11.2,6.7,18.4
							c0.6,2.3,1,4.6,1.3,6.7c1-7.7,1.6-16.9,0.8-27.3c-1.7-22.1-8.7-39.5-14.4-50.7C334.1,297.3,327.7,293.5,321.3,289.7z"/>
						<path class="st24" d="M441.7,655.6c4.7,1.9,14.2,4.8,26.2,3.7c11.6-1.1,20-5.4,24.4-8c0.8,9.1,1.6,18.2,2.4,27.3
							c-3.8,2.4-9.4,5.4-16.8,7.5c-7.8,2.1-14.1,2.3-16.9,2.3c-9.5-0.1-17.1-2.4-21.8-4.4c-6,1.6-18.1,4-32.7,0.6
							c-11.7-2.8-20-8.1-24.7-11.6c-2,0-7.4-0.1-12.7-3.7c-7-4.7-8.7-12-9.1-13.6c2-6.7,4-13.4,6-20c1.6,2.2,4.4,5.2,8.5,7.7
							c7.4,4.5,14.8,4.5,17.8,4.3c3.7,2.9,12.4,8.9,25.2,10.6C428.5,659.7,437.3,657.2,441.7,655.6z"/>
					</g>
				</g>
			</g>
			<g>
				<g>
					<path class="st8" d="M440.2,434c-32.9-1.7-65.8-3.4-98.7-5.1c-5.5-0.3-11.8-4.7-13.9-9.8l-15.7-37.4l24.5-8.8
						c3.6,10.4,7.2,20.7,10.7,31.1c12.2,3.4,25.3,6.5,39.3,9.2c20.9,4.1,40.5,6.5,58.3,7.9c-1.1,2.4-2.2,5.1-3.2,8.1
						C441.1,430.8,440.6,432.4,440.2,434z"/>
				</g>
				<g>
					<g id="a1_acton_3_Layer1_0_MEMBER_3_MEMBER_0_FILL_00000072252008016543758980000016673404259228054414_">
						<path class="st9" d="M306.5,370.3c-3-7.7-7.7-20.1-4.1-33.6c0.8-3.2,1.9-5.6,2.6-6.9c4.5,4.3,9.2,9.2,13.9,14.8
							c7.6,9.1,13.5,17.9,18,25.8c0.3,2.1,0.6,4.2,1,6.3c-8.7,1.6-17.3,3.3-26,4.9C309.3,377.1,307.6,373.2,306.5,370.3z"/>
					</g>
				</g>
			</g>
		</g>
		<path class="st31" d="M476.8,405c18.7-24.2,37.3-48.5,56-72.7c-4.7,14.4-9.3,28.9-14,43.3C504.8,385.4,490.8,395.2,476.8,405z"/>
		<path class="st32" d="M540.6,336.9c-5.6,12.4-11.1,24.8-16.7,37.2c-15.7,10.3-31.4,20.6-47.1,30.9
			C498.1,382.3,519.3,359.6,540.6,336.9z"/>
		<path class="st31" d="M545.5,345.9c-18.9,35.6-37.7,71.3-56.6,106.9c-16.5,17.5-33.1,35-49.6,52.5c12.5-33.4,25-66.9,37.5-100.3
			C499.7,385.3,522.6,365.6,545.5,345.9z"/>
		<path class="st33" d="M412.2,431.2l-6.1,1.9l-21.4-69.5c0.2-0.4,0.8-1.5,2.2-2.1c1.9-0.8,3.6,0.1,3.9,0.2
			C397.9,384.9,405.1,408.1,412.2,431.2z"/>
		<path class="st32" d="M476.8,405c-12.5,33.4-25,66.9-37.5,100.3c-6-6-20-18.2-41.9-23.9c-18.8-4.8-34.5-2.5-42.6-0.7
			c-7-38.5-14-76.9-20.9-115.3c22.6,1.2,51.5,5,83.8,15.1C441,387.6,460.8,396.5,476.8,405z"/>
		<path class="st8" d="M472.8,440.5c-0.2-1,4.8-4.1,9.2-3.1c3.2,0.7,3.5,4.3,8.5,6.7c1,0.5,1.9,0.8,2.5,1c0.5-1,1.1-2,1.6-3
			c0.8,0.5,2.5,1.5,3,3.4c0.2,0.9,0.2,1.6-0.2,3.2c-0.9,4.1-1.6,6.1-2.1,7.2c-2.9,5.3-12.5,5.3-22.2,5.3c0,0-9.9,0-10.8-2.4
			c-0.1-0.3,0-0.6,0-0.6c0.3-0.7,1.8-0.8,2.6-0.9c3.5-0.1,7,0.1,7,0c0-0.1-3.7-0.6-7.8-1.9c-2.5-0.8-7.2-2.2-7.1-4.1
			c0-0.4,0.2-0.7,0.3-0.8c1-1.3,4-0.4,7.5,0.4c5.2,1.3,9,1.7,9,1.6c0-0.1-6.7-2.3-11.9-4c-3.9-1.3-7.9-2.6-8.4-5
			c-0.1-0.4,0-0.6,0-0.7c0.6-1.1,3.7-0.6,10.8,1.2c6.9,1.8,12.5,3.6,12.5,3.6c0,0-4.1-1.4-7.6-2.7c-11.1-4-12.1-5.2-12.1-6
			c0-0.3,0.2-0.6,0.7-0.9c0.8-0.6,1.9-0.7,2.8-0.5c10.3,2.7,21.6,5.6,21.6,5.6c0,0-0.1,0-0.3-0.1c-2.9-0.8-4.5-1.3-6.5-1.9
			C473.1,440.7,472.8,440.7,472.8,440.5z"/>
	</g>
</g>
</svg>
