<?xml version="1.0" encoding="utf-8"?>
<!-- Generator: Adobe Illustrator 26.0.1, SVG Export Plug-In . SVG Version: 6.00 Build 0)  -->
<svg version="1.1" id="Layer_1" xmlns="http://www.w3.org/2000/svg" xmlns:xlink="http://www.w3.org/1999/xlink" x="0px" y="0px"
	 viewBox="0 0 666.1 723.1" style="enable-background:new 0 0 666.1 723.1;" xml:space="preserve">
<style type="text/css">
	.st0{clip-path:url(#SVGID_00000147194140288811175040000014241356138199980191_);}
	.st1{fill:#BDDEEF;}
	.st2{fill:#D5B792;}
	.st3{clip-path:url(#SVGID_00000147194140288811175040000014241356138199980191_);fill:#52A7C1;}
	.st4{fill:#FCB99B;}
	.st5{fill:#0066A5;}
	.st6{fill:#CD070C;}
	.st7{fill:#3E8ACE;}
	.st8{fill:#1E1E1E;}
	.st9{fill:#990000;}
	.st10{fill:#526672;}
	.st11{fill:#5E271B;}
	.st12{fill:#EA906C;}
	.st13{fill:#FFFFFF;}
	.st14{fill:#6B3628;}
	.st15{fill:#1D1818;}
	.st16{fill:#250A01;}
	.st17{fill:#EF865F;}
	.st18{fill:#531CBF;}
	.st19{fill:#EA4E5A;}
	.st20{fill:#EE252A;}
	.st21{fill:#353535;}
	.st22{fill:#DB2818;}
	.st23{fill:#C21111;}
	.st24{fill:#FFCC00;}
	.st25{fill:#E7372E;}
	.st26{fill:#D1D1D1;}
	.st27{fill:#EFECE6;}
	.st28{fill:#383838;}
</style>
<g>
	<g>
		<defs>
			<path id="SVGID_1_" d="M601.4,230.7c-11.6-20.8-25.3-39-39.4-54.5c-2.6-2.9-51.8-44.4-51.8-44.4c-1.4-1.1-2.7-2.2-4.1-3.3
				C466.9,95.6,437.1,35.9,327.9,45C277,49.2,243.7,69.9,220,97.7c-7.2,8.3-13.5,17.5-19.2,27c-17.5,29.3-29.1,62.9-40.9,92.2
				c-15.7,38.7-71.7,44.8-91.9,89.8c-18.4,21.1-28,54.6-32.8,78.9c-3.5,17.4-4.5,30.2-4.5,30.2c-5.5,122.1,104.2,215.6,217.4,249.5
				c25.3,7.6,50.8,12.2,75.2,13.4c11.5,0.6,22.8,0.4,33.7-0.5c2.2-0.2,4.4-0.4,6.7-0.7c1.5-0.2,3.1-0.4,4.6-0.6
				c1.3-0.2,2.6-0.3,3.9-0.5c0.7-0.1,1.4-0.2,2.2-0.3c0.7-0.1,1.4-0.2,2.1-0.3c36.7-5.6,77.7-18.4,115.4-38.1
				c0.2-0.1,0.4-0.2,0.6-0.3c60.8-31.9,112.6-81.6,122.5-148.1c8.8-43.5,20.9-68.9,20.9-133.9C637.8,312.3,601.4,230.7,601.4,230.7z
				"/>
		</defs>
		<clipPath id="SVGID_00000171679425492566146790000001574028021474659006_">
			<use xlink:href="#SVGID_1_"  style="overflow:visible;"/>
		</clipPath>
		<g style="clip-path:url(#SVGID_00000171679425492566146790000001574028021474659006_);">
			<rect x="-113.9" y="44.1" class="st1" width="874.8" height="690.2"/>
			<g>
				<path class="st2" d="M529.7,369.8c0-0.3-0.2-0.5-0.5-0.5c-0.3,0-0.5,0.2-0.5,0.5s0.2,0.5,0.5,0.5
					C529.5,370.2,529.7,370,529.7,369.8z"/>
			</g>
		</g>
		<path style="clip-path:url(#SVGID_00000171679425492566146790000001574028021474659006_);fill:#52A7C1;" d="M630.8,515.6
			c-198.9,3.3-397.9,6.6-596.8,9.8c18.5,31.6,58.9,90.7,132.8,132.8c22.7,13,161.7,88.7,306.6,21.3
			C574.3,632.6,618.1,544.1,630.8,515.6z"/>
	</g>
	<g>
		<g>
			<path class="st4" d="M316.7,235.2l-1.6,5.3l0.2-0.6l-1,2.9c0-0.1,0.1-0.2,0.1-0.3l-1.5,5.2c-0.3,0.8-0.5,1.5-0.8,2.3
				c-0.4,1.1-1.3,3.8-2.8,8l-2.7,9.1l-9.5,31.9c-0.6,2.2-1,4.6-1.3,7c-1.5,0.5-3,0.9-4.7,1c-0.3,0-0.7,0.1-1.1,0.1l-6.3-8.1
				c-0.7-0.2-1.3-0.4-1.9-0.6c-0.5,0.9-0.8,1.3-0.9,1.2c-0.1-0.1-0.1-0.3-0.1-0.7c0,0,0,0,0,0c0.1-0.8,0.3-2.4,0.6-4.7
				c0.1-1,0.2-1.9,0.3-2.8c1.7-13.8,3.3-25,4.7-33.6c0.3-1.9,0.6-3.7,0.8-5.4c1.5-9.6,2.4-16.6,2.8-20.7c0-2.3,0.2-5,0.6-8
				c1.8-9.9,5.5-16.3,11.2-19c-1.1,2.8-0.8,5.8,1,8.9c0.8,1.4,0.7,1.4-0.2-0.2c1.2,3,4.5,6.7,9.8,11c1.7,1.5,3.1,2.5,4.1,3.2l0,0
				C317.3,229.8,317.3,232.2,316.7,235.2z"/>
			<g transform="matrix( -1.1695404052734375, 0.6071929931640625, 0.6146087646484375, 1.1432952880859375, 5173.75,644.15) ">
				<g transform="matrix( 1, 0, 0, 1, 0,0) ">
					<g>
						<g id="Symbol_1g_0_Layer0_0_FILL_00000057109628941080261120000005463913486269023935_">
							<path class="st5" d="M3112-2023.7c-1.4-2-2.8-3.4-3.9-4.4c-1.7-1.5-2.8-2.5-4.5-3.1c-2.2-0.7-4.3-0.3-5.6,0.1
								c-1.1,4.1-2.1,8.1-3.2,12.2c-0.2,1.2-0.3,1.9-0.2,1.9c-0.2,4.2-0.3,7.3-0.2,9.3l23.9,22.7c4-2.9,7.5-6.7,10.7-11.3
								c0.7-1,1.1-1.5,1.1-1.6L3112-2023.7z"/>
						</g>
					</g>
				</g>
			</g>
			<g transform="matrix( 0.3377532958984375, 0, 0, 0.3377532958984375, 5280.4,571.5) ">
				<g transform="matrix( 1, 0, 0, 1, 0,0) ">
					<g>
						<g id="Seragu_0_Layer0_0_FILL_00000023270344867141432240000007265865794341680019_">
							<path class="st6" d="M-14549.1-359.6l-1.3,54.4c44.7,7.8,89.4,6.5,134.1-3.9l-3.3-66
								C-14462.8-366.4-14506-361.2-14549.1-359.6z"/>
							<path class="st7" d="M-14465-1088.1c-19.1-4.4-39.7-7.4-62-9l-22.1,737.6c43.1-1.7,86.3-6.8,129.5-15.5L-14465-1088.1z"/>
							<path class="st6" d="M-14468.7-1090.2c16.3,238.4,32.7,476.8,49,715.1l3.3,66c13.4-3.6,19.5-3.9,27.5-16.2
								c-18.8-253.3-37.6-506.5-56.5-759.8C-14453.1-1086.8-14460.9-1088.5-14468.7-1090.2z"/>
						</g>
					</g>
				</g>
			</g>
			<path class="st4" d="M406.7,300.2c-0.6,0.1-1.2,0.3-1.9,0.4l-8.5,9.3c-1.4-0.2-2.8-0.7-4-1.5c0-3.1-0.3-6.1-0.8-9l-6-28.5
				l-2.8-13.4c-1.1-4.3-1.8-7.1-2.1-8.2c-0.2-0.8-0.4-1.6-0.6-2.4l-1.1-5.3c0,0.1,0.1,0.2,0.1,0.3l-0.7-3l0.2,0.6l-1.2-5.4
				c-0.3-3-0.2-5.4,0.6-7.4l0,0c1.1-0.6,2.5-1.6,4.4-2.9c5.6-3.9,9.2-7.3,10.6-10.2c-1,1.5-1.1,1.6-0.2,0.2c2-3,2.6-5.9,1.7-8.8
				c5.4,3.1,8.7,9.7,9.6,19.8c0.2,3.1,0.2,5.7,0,8c0,4.2,0.4,11.1,1.1,20.9c0.1,1.7,0.2,3.6,0.4,5.5c0.8,9.3,1.5,21.6,2.1,36.7
				l0,0.3C407.8,301.5,407.8,302.8,406.7,300.2z"/>
			<g transform="matrix( -1.1695404052734375, 0.6071929931640625, 0.6146087646484375, 1.1432952880859375, 5173.75,644.15) ">
				<g transform="matrix( 1, 0, 0, 1, 0,0) ">
					<g>
						<g id="Symbol_1g_0_Layer0_0_FILL_00000159451290585153898700000006348321512762626229_">
							<path class="st5" d="M3036.3-1982.5c-1-2.2-1.6-4.2-1.9-5.6c-0.5-2.2-0.8-3.7-0.4-5.5c0.5-2.3,1.8-3.9,2.8-4.9
								c4,1.1,8.1,2.1,12.1,3.2c1.2,0.4,1.8,0.7,1.8,0.8c3.7,1.8,6.5,3.3,8.2,4.4l7.9,32.1c-4.5,2-9.5,3.3-15.1,3.9
								c-1.2,0.1-1.9,0.2-1.9,0.2L3036.3-1982.5z"/>
						</g>
					</g>
				</g>
			</g>
			<g transform="matrix( 0.3377532958984375, 0, 0, 0.3377532958984375, 3290.05,391.6) ">
				<g>
					<g id="Layer4_0_MEMBER_3_FILL_00000072973777465638575080000006006975859676845745_">
						<path class="st4" d="M-8780.5,520.9v7.4c-1.6,4.8-3.7,9.5-6.2,14.2c-4,9.7-7.3,17.8-10,24.2c-2,4.2-3.6,8.4-5,12.7
							c-0.5,1-0.9,2-1.2,3.1c0,0.6,0,1.2-0.1,1.8c-0.6,4.4-1,16.8,4.7,24.8c7.7,10.9,24.6,10,27.4,9.8c14-1.1,23.1-10.3,25.8-13.3
							c1.5-1.7,2.6-3.3,3.4-4.4c0.3-3.5,0.6-7.9,0.9-12.9c0.2-4,0.7-11.9,0.6-21.9c-0.1-9.2-0.4-18.1-0.8-26.7
							c-0.2-6.3-0.4-9.9-0.4-11v-0.1h-0.1c0.2-2.9,0.2-5.9,0.1-9C-8749,508.9-8762,509.3-8780.5,520.9z"/>
					</g>
				</g>
			</g>
			<g transform="matrix( 1.2063140869140625, 0.1528778076171875, -0.1528778076171875, 1.2063140869140625, 5202.45,1176.9) ">
				<g transform="matrix( 1, 0, 0, 1, 0,0) ">
					<g>
						<g id="Duplicate_Items_Folder_1s1hoe_lft_0_Layer0_0_FILL_00000036240121617390882400000015708322180587641499_">
							<path class="st8" d="M-4044.5,43.4c1.5,1.5,3.9,1.8,7,0.7c1.8-0.7,3.2-1.8,4.3-3.4c1.1-1.6,1.8-3.1,2.3-4.6
								c1.1-3.3,1.6-5.8,1.6-7.5c-0.1,1.7-0.6,4-1.6,6.9c-0.5,1.5-1.3,3-2.3,4.6c-1.1,1.6-2.5,2.7-4.3,3.4c-3.1,1.1-5.5,0.9-7-0.7
								c-1.8-2-2.9-4.6-3.2-7.9C-4047.5,38.5-4046.4,41.4-4044.5,43.4z"/>
							<path class="st9" d="M-4046.7,25.4l-0.1,0c-0.2,1.1-0.4,2.7-0.7,4.8c-0.1,0.5-0.1,1.1-0.1,1.7c0,0.5,0,1,0,1.6l0,1.5
								c0.3,3.3,1.3,6,3.2,7.9c1.5,1.5,3.9,1.8,7,0.7c1.8-0.7,3.2-1.8,4.3-3.4c1.1-1.6,1.8-3.1,2.3-4.6c1-2.9,1.5-5.2,1.6-6.9
								c0-0.2,0-0.5-0.1-0.7c-0.2,0.3-0.4,0.7-0.6,1c-2.1,2.9-4.7,4.5-7.6,4.8c-0.7,0.1-1.4,0.1-2,0.1
								C-4044.5,33.7-4046.8,30.9-4046.7,25.4z"/>
							<path class="st10" d="M-4046.7,25.4c0-0.1,0-0.3,0-0.4c0,0.1-0.1,0.2-0.1,0.4L-4046.7,25.4z"/>
						</g>
					</g>
				</g>
			</g>
			<g transform="matrix( 0.337738037109375, 0, 0, 0.337738037109375, 3216.95,391.6) ">
				<g>
					<g id="Layer4_0_MEMBER_4_MEMBER_0_FILL_00000170966121894151644780000015951556658803862413_">
						<path class="st4" d="M-8493,524.7v0.1c0,1.1-0.1,4.7-0.4,11c-0.5,8.6-0.8,17.5-0.8,26.7c-0.1,9.2,0.1,16.5,0.6,21.9
							c0.6,5.3,0.8,8.2,0.8,8.6c0.2,0.6,0.3,1.3,0.4,2.1c0.1,0.1,0.1,0.1,0.1,0.2c0,0.2,0,0.5,0,0.7c0,0.3,0,0.6,0,1
							c0.3,0.4,0.7,0.8,1,1.2c0,0,0.9,1.1,1.8,2.1c16.5,18,36.8,15.5,36.8,15.5c4-0.5,12.5-1.6,18.3-8.6c6.2-7.5,5.3-17.2,5.2-19.4
							c-0.4-3.9-1.5-7.1-2.4-9.2c-0.3-1-0.7-2.1-1.2-3.1c-1.4-4.3-3.1-8.5-5-12.7c-2.7-6.4-6-14.5-10-24.2
							c-2.5-4.6-4.6-9.4-6.2-14.2V517c-18.5-11.6-31.5-12-38.9-1.4c0,1.5,0,3,0,4.6C-8493,521.8-8493,523.2-8493,524.7z"/>
					</g>
				</g>
			</g>
			<g transform="matrix( -1.2062835693359375, 0.152862548828125, 0.152862548828125, 1.2062835693359375, 5292.25,1175.25) ">
				<g transform="matrix( 1, 0, 0, 1, 0,0) ">
					<g>
						<g id="Duplicate_Items_Folder_1s1hoe_lft_0_Layer0_0_FILL_00000093136144433434537940000004378972801891938225_">
							<path class="st8" d="M3957.8-970.3c1.5,1.5,3.9,1.8,7,0.7c1.8-0.7,3.2-1.8,4.3-3.4c1.1-1.6,1.8-3.1,2.3-4.6
								c1.1-3.3,1.6-5.8,1.6-7.5c-0.1,1.7-0.6,4-1.6,6.9c-0.5,1.5-1.3,3-2.3,4.6c-1.1,1.6-2.5,2.7-4.3,3.4c-3.1,1.1-5.5,0.9-7-0.7
								c-1.8-2-2.9-4.6-3.2-7.9C3954.9-975.1,3955.9-972.3,3957.8-970.3z"/>
							<path class="st9" d="M3955.6-988.2l-0.1,0c-0.2,1.1-0.4,2.7-0.7,4.8c-0.1,0.5-0.1,1.1-0.1,1.7c0,0.5,0,1,0,1.6l0,1.5
								c0.3,3.3,1.3,6,3.2,7.9c1.5,1.5,3.9,1.8,7,0.7c1.8-0.7,3.2-1.8,4.3-3.4c1.1-1.6,1.8-3.1,2.3-4.6c1-2.9,1.5-5.2,1.6-6.9
								c0-0.2,0-0.5-0.1-0.7c-0.2,0.3-0.4,0.7-0.6,1c-2.1,2.9-4.7,4.5-7.6,4.8c-0.7,0.1-1.4,0.1-2,0.1
								C3957.9-980,3955.5-982.8,3955.6-988.2z"/>
							<path class="st10" d="M3955.6-988.2c0-0.1,0-0.3,0-0.4c0,0.1-0.1,0.2-0.1,0.4L3955.6-988.2z"/>
						</g>
					</g>
				</g>
			</g>
			<g transform="matrix( 0.337738037109375, 0, 0, 0.337738037109375, 3216.95,391.6) ">
				<g transform="matrix( 2.9608612060546875, 0, 0, 2.9608612060546875, -9524.95,-1159.45) ">
					<path class="st11" d="M-8401.3-128.8c-0.1,0-0.1,0-0.1-0.1l0-0.5c0-0.1,0-0.1,0.1-0.1h0c0.1,0,0.1,0,0.1,0.1l0,0.5
						C-8401.2-128.8-8401.2-128.8-8401.3-128.8L-8401.3-128.8z"/>
				</g>
			</g>
			<g transform="matrix( 1.428558349609375, 0.0227203369140625, -0.0227203369140625, 1.428558349609375, 5228.6,548.25) ">
				<g transform="matrix( 0.2199859619140625, 0, 0, 0.2199859619140625, -228.9,-225.1) ">
					<g>
						<g id="Duplicate_Items_Folder_1c2h_hair_ul_0_Layer0_0_MEMBER_0_FILL_00000168796459214597452800000016800851481342990745_">
							<path d="M-14443.4,114.8C-14443.4,114.8-14443.4,114.7-14443.4,114.8C-14443.4,114.7-14443.4,114.7-14443.4,114.8
								c2.6-3.9,5.1-8.1,7.4-12.6c13-25.1,16.2-49.7,16.4-68.2c0.1-3.5,0.2-38.4-24.7-57.4c-13.7-10.5-31.2-13.2-32.3-13.4
								c-11.9-1.6-23.7-0.6-35.3,3.2c-9.7,3.2-18.6,7.9-26.7,14.4c-0.6,0.5-1.2,1-1.8,1.5c-2.1,2-4.2,4.2-6.2,6.4
								c-11.4,12.6-20,26.6-25.6,42.2c-5.7,15.6-8.1,31.8-7.4,48.8c0.7,17,4.6,33,11.5,48c4.5,9.7,10,17.9,16.5,24.4
								c7.5,7.5,15.8,12.1,24.8,13.8c8.4,1.6,17.3,0.7,26.8-2.8c9.5-3.5,11.4-9.1,24.1-13.9c8.2-3.1,7.5-1.1,10.9-3.3
								C-14453.6,138.5-14443.4,114.8-14443.4,114.8z"/>
						</g>
					</g>
				</g>
			</g>
			<g transform="matrix( 0.3377532958984375, 0, 0, 0.3377532958984375, 3216.95,368.4) ">
				<g>
					<g id="Layer4_0_MEMBER_6_FILL_00000182491499225209193570000007446585603313205661_">
						<path class="st4" d="M-8383.3-456.9c-14.9,8.3-36.1,18.4-62.8,25.6c-46.2,12.5-83.9,9.9-98.3,8.4
							c-45.9-4.6-80.9-20.2-101.4-31.4c0.9-7.4,2.8-14.2,5.8-20.3c0.6-1,1.1-1.9,1.6-2.8c3.6-5.8,11-10.4,22.1-13.9
							c2.2-0.7,4.6-1.4,7.1-2c0.1-0.1,0.2-0.1,0.4-0.1h0.3c0.5-0.2,8.7-4,24.4-11.4c13.4-6.4,22.5-17.6,27.1-33.6l1.3-9.6l0.4-41.5
							l74.9,1.2v37.3c0.6,3.6,1.4,7,2.5,10.2c7.3,22.7,26,38.4,56,47c0.5,0.1,1,0.3,1.5,0.5h0.4c0.1,0,0.3,0,0.4,0.1
							c15.1,3.7,24.9,9,29.2,15.9c0.5,0.9,1,1.9,1.5,2.8C-8386.2-469.2-8384.3-463.3-8383.3-456.9z"/>
						<path class="st12" d="M-8478.3-542.3c-1-3.2-1.4-5.1-2-8.7v-37.3l-74.9-1.2l-0.4,41.5l-0.7,5.3c14.9,11.7,25.5,20.6,39.6,22.2
							C-8501.8-521.8-8491.2-532.5-8478.3-542.3z"/>
					</g>
				</g>
			</g>
			<g transform="matrix( -0.3599700927734375, 0, 0, 0.3599700927734375, 7402.85,360) ">
				<g>
					<g id="Layer4_0_MEMBER_7_MEMBER_0_MEMBER_0_FILL_00000031206098093043648880000002275271677849694880_">
						<path class="st4" d="M19685.4-578.3c-3.3-0.6-6.6,1.2-9.7,5.2c-3.1,4-5.2,9.2-6.2,15.5c-1.1,6.3-0.8,11.8,0.8,16.7
							c1.6,4.8,4.1,7.5,7.5,8.1c3.4,0.6,6.6-1.1,9.7-5.1c3.1-4,5.3-9.2,6.3-15.5c1.1-6.3,0.8-11.8-0.8-16.7
							C19691.3-575.1,19688.8-577.8,19685.4-578.3z"/>
					</g>
				</g>
			</g>
			<g transform="matrix( 0.3599700927734375, 0, 0, 0.3599700927734375, 3083.15,360.9) ">
				<g>
					<g id="Layer4_0_MEMBER_7_MEMBER_1_MEMBER_0_MEMBER_0_FILL_00000139987681899753879380000017759345989452479156_">
						<path class="st4" d="M-7558.1-579.3c-3.3-0.6-6.6,1.2-9.7,5.2c-3.1,4-5.2,9.2-6.2,15.5c-1.1,6.3-0.8,11.8,0.8,16.7
							c1.6,4.8,4.1,7.5,7.5,8.1c3.4,0.6,6.6-1.1,9.7-5.1c3.1-4,5.3-9.2,6.3-15.5c1.1-6.3,0.8-11.8-0.8-16.7
							C-7552.2-576-7554.7-578.7-7558.1-579.3z"/>
					</g>
				</g>
			</g>
			<g transform="matrix( 0.337738037109375, 0, 0, 0.337738037109375, 3216.95,368.4) ">
				<g>
					<g id="Layer4_0_MEMBER_7_MEMBER_2_FILL_00000141413077391253739840000017260687647600746881_">
						<path class="st4" d="M-8560.9-738.8c-27.5,21.5-37.3,64.1-21.7,104.5c4.6,38.7,12.5,63.2,23.7,73.5
							c11.1,10.3,20.1,17.5,27,21.6c1.7,1,4.6,3.8,9.1,4.8c2.7,0.6,5.5,0.6,6.6,0.6c2.6,0,4.8-0.3,6.4-0.6c2.6-1.2,5.6-2.8,9-4.8
							c6.9-4.1,16-11.3,27.1-21.6c11.1-10.3,19.2-35,24.5-74c13.8-40.5,7.8-81.2-16.2-102.7c-12.9-11.5-28.4-15.2-32.4-16
							C-8522.7-758.8-8546.4-750.1-8560.9-738.8z"/>
					</g>
				</g>
				<g>
					<g transform="matrix( 0.3377532958984375, 0, 0, 0.3377532958984375, 3216.95,368.4) ">
						<g>
							<g id="Layer4_0_MEMBER_10_FILL_00000115486254604220819030000006021088262948976571_">
								<path class="st13" d="M-34838.4-2947.9c2.4,0.4,4.7,0.7,6.8,0.9c6.8,0.6,13.8,0.5,20.9-0.5c4.2-0.4,8.5-1.1,12.8-2.1
									c9.1-1.9,17.8-4.6,26-7.9c-4-11.6-13.8-21-29.4-28.1c-2.9-1.1-5.9-2.2-8.8-3.1c-10-2.9-20.1-4-30.2-3.3
									c-10.5,0.9-21.1,3.9-31.8,8.9c-7.4,3.2-12.1,6.7-14,10.3c4.8,6,11.9,11.4,21.2,16.3
									C-34856.5-2952.4-34847.6-2949.4-34838.4-2947.9z"/>
							</g>
						</g>
					</g>
					<g>
						<g transform="matrix( 1.0824432373046875, -0.0170745849609375, 0.0170745849609375, 1.0824432373046875, 5226.3,494.1) ">
							<g transform="matrix( 1, 0, 0, 1, 0,0) ">
								<g>
									<g id="Duplicate_Items_Folder_ch3eye_ball_0_Layer0_0_FILL_00000088126009880697032090000002241888206660202914_">
										<path class="st14" d="M-12696-1243.5c0,2.1-0.9,4-2.5,5.4c-1.6,1.6-3.5,2.4-5.7,2.3c-2.2,0-4-0.9-5.6-2.5
											c-1.5-1.5-2.3-3.4-2.2-5.5c0-2.2,0.8-4.1,2.4-5.7c0.8-0.7,1.6-1.3,2.5-1.7l0.3,0c2.6,0.1,5.3,0.5,7.9,1.4c0,0,0,0,0,0
											c0.2,0.1,0.3,0.3,0.5,0.5C-12696.8-1247.7-12696-1245.7-12696-1243.5z"/>
									</g>
								</g>
							</g>
							<g transform="matrix( 1.2004852294921875, 0, 0, 1.2004852294921875, -268.9,-88.45) ">
								<g>
									
										<g id="Duplicate_Items_Folder_ch3eye_ball_0_Layer0_0_MEMBER_0_MEMBER_0_FILL_00000129911081121323254930000006952770704950628789_">
										<path class="st15" d="M-10358.4-965.7c-1,0-1.8,0.3-2.5,0.9c-0.6,0.7-0.9,1.5-0.9,2.4s0.3,1.7,0.9,2.3
											c0.7,0.7,1.5,1.1,2.4,1.1c1,0,1.7-0.3,2.3-1c0.7-0.6,1.1-1.4,1.1-2.3c0-1-0.3-1.8-1-2.5
											C-10356.7-965.4-10357.4-965.7-10358.4-965.7z"/>
									</g>
								</g>
							</g>
							<g transform="matrix( 1.5006103515625, 0, 0, 1.5006103515625, -7.4,7.4) ">
								<g>
									
										<g id="Duplicate_Items_Folder_ch3eye_ball_0_Layer0_0_MEMBER_0_MEMBER_1_FILL_00000044175460841759648830000017329947107780688003_">
										<path class="st13" d="M-8458-834.4c0.2-0.2,0.4-0.4,0.4-0.8c0-0.3-0.1-0.6-0.3-0.8c-0.2-0.2-0.4-0.4-0.8-0.4
											c-0.3,0-0.6,0.1-0.8,0.3c-0.2,0.2-0.4,0.5-0.4,0.8c0,0.4,0.1,0.6,0.3,0.8c0.2,0.2,0.5,0.4,0.8,0.4
											C-8458.5-834-8458.2-834.1-8458-834.4z"/>
									</g>
								</g>
							</g>
						</g>
						<path class="st16" d="M-8574-637.1c2.3,2.3,13.4,12.9,29.6,12.2c6.9-0.3,12.3-2.5,15.7-4.3c1,0.3,2.2,0,1.5-1.2l0-0.1l-0.1,0
							c-0.1-0.1-0.1-0.2-0.1-0.3c-1.8-4.7-4.5-7.5-6.1-8.9c-7.2-6.4-18.7-7.9-27-3.1c-3.1,1.8-5.2,4.1-6.4,5.7c0,0-0.1,0-0.1,0
							C-8569.2-636.9-8571.6-636.8-8574-637.1z M-8563.5-634.8c0.8-0.9,7.5-7.7,17.7-6.8c11,1,16.4,10.1,16.8,10.9
							c-2,1.2-9.7,5.6-19.8,3.7C-8556.7-628.4-8561.7-632.9-8563.5-634.8z"/>
					</g>
				</g>
				<g>
					<g transform="matrix( 0.3377532958984375, 0, 0, 0.3377532958984375, 3216.95,368.4) ">
						<g>
							<g id="Layer4_0_MEMBER_10_FILL_00000080205460547287938600000012835497781249111957_">
								<path class="st13" d="M-34648.9-2945c-2.5,0.3-4.7,0.6-6.8,0.7c-6.8,0.4-13.8,0.1-20.9-1.1c-4.2-0.5-8.4-1.4-12.8-2.5
									c-9-2.2-17.6-5.1-25.8-8.7c4.4-11.5,14.4-20.5,30.2-27.2c2.9-1,5.9-2,8.9-2.8c10.1-2.6,20.2-3.4,30.3-2.4
									c10.4,1.2,20.9,4.5,31.5,9.9c7.3,3.5,11.9,7,13.7,10.7c-5,5.8-12.2,11-21.6,15.6
									C-34630.7-2948.9-34639.6-2946.2-34648.9-2945z"/>
							</g>
						</g>
					</g>
					<g>
						<g transform="matrix( 1.0824432373046875, -0.0170745849609375, 0.0170745849609375, 1.0824432373046875, 5226.3,494.1) ">
							<g transform="matrix( 1, 0, 0, 1, 0,0) ">
								<g>
									<g id="Duplicate_Items_Folder_ch3eye_ball_0_Layer0_0_FILL_00000061429281392686588350000003333031567397600915_">
										<path class="st14" d="M-12659.1-1242.4c-0.1,2.1,0.6,4,2.2,5.6c1.5,1.7,3.3,2.6,5.5,2.7c2.2,0.1,4.1-0.6,5.8-2.1
											c1.6-1.4,2.5-3.2,2.6-5.4c0.1-2.2-0.6-4.1-2.1-5.8c-0.7-0.8-1.6-1.4-2.4-1.8l-0.3,0c-2.6-0.1-5.3,0.2-8,0.9c0,0,0,0,0,0
											c-0.2,0.1-0.4,0.3-0.5,0.4C-12658.2-1246.4-12659-1244.6-12659.1-1242.4z"/>
									</g>
								</g>
							</g>
							<g transform="matrix( 1.2004852294921875, 0, 0, 1.2004852294921875, -268.9,-88.45) ">
								<g>
									
										<g id="Duplicate_Items_Folder_ch3eye_ball_0_Layer0_0_MEMBER_0_MEMBER_0_FILL_00000107556454272720912280000010587887893363929234_">
										<path class="st15" d="M-10314.2-964.3c0.9,0,1.8,0.4,2.4,1c0.6,0.7,0.8,1.6,0.8,2.5c0,0.9-0.4,1.7-1,2.3
											c-0.7,0.7-1.6,1-2.5,0.9c-0.9,0-1.7-0.4-2.3-1.1c-0.7-0.6-1-1.4-0.9-2.4c0-0.9,0.4-1.8,1.2-2.4
											C-10315.9-964.1-10315.2-964.4-10314.2-964.3z"/>
									</g>
								</g>
							</g>
							<g transform="matrix( 1.5006103515625, 0, 0, 1.5006103515625, -7.4,7.4) ">
								<g>
									
										<g id="Duplicate_Items_Folder_ch3eye_ball_0_Layer0_0_MEMBER_0_MEMBER_1_FILL_00000140701239392319017720000006495648512722167229_">
										<path class="st13" d="M-8428.7-833.5c-0.2-0.2-0.3-0.5-0.3-0.8c0-0.3,0.1-0.6,0.4-0.8c0.2-0.2,0.5-0.3,0.8-0.3
											c0.3,0,0.6,0.1,0.8,0.4s0.3,0.5,0.3,0.8c0,0.4-0.1,0.6-0.4,0.8c-0.2,0.2-0.5,0.3-0.8,0.3
											C-8428.2-833.1-8428.5-833.2-8428.7-833.5z"/>
									</g>
								</g>
							</g>
						</g>
						<path class="st16" d="M-8468.3-635.6C-8468.3-635.7-8468.3-635.7-8468.3-635.6c-1.3-1.7-3.2-4.1-6.3-5.9
							c-8.2-5-19.7-3.9-27.1,2.3c-1.7,1.4-4.4,4.1-6.4,8.7c0,0.1,0,0.2-0.1,0.3l-0.1,0l0,0.1c-0.7,1.2,0.4,1.6,1.5,1.3
							c3.3,1.9,8.7,4.3,15.5,4.8c16.2,1.2,27.6-9.1,29.9-11.3C-8463.8-635.1-8466.1-635.3-8468.3-635.6z M-8486.8-626
							c-10.2,1.6-17.8-3-19.7-4.3c0.5-0.8,6.2-9.7,17.2-10.4c10.2-0.6,16.7,6.4,17.5,7.3C-8473.8-631.6-8478.9-627.2-8486.8-626z"/>
					</g>
				</g>
			</g>
			<g transform="matrix( 0.3377532958984375, 0, 0, 0.3377532958984375, 3216.95,368.4) ">
				<g>
					<g id="Layer4_0_MEMBER_8_FILL_00000052096259251993085480000002912345119552913040_">
						<path class="st12" d="M-8518.4-591.8c0.5,0.2,2.2,0.7,4.3,0.5c4.3-0.5,7.6-3.9,7.2-4.5c-0.3-0.6-3.5,1.9-8.6,1.6
							c-4.5-0.2-7.2-2.4-7.6-1.8C-8523.5-595.4-8521.3-592.9-8518.4-591.8z"/>
					</g>
				</g>
			</g>
			<g transform="matrix( 0.337677001953125, 0, 0, 0.337677001953125, 3216.95,368.4) ">
				<g>
					<g id="Layer4_0_MEMBER_10_MEMBER_1_FILL_00000045590755791645066550000015066016617370963110_">
						<path class="st17" d="M-8528.8-630.7L-8528.8-630.7l-0.1-0.1v0.1c0,0.1,0,0.1,0.1,0.2
							C-8528.8-630.6-8528.8-630.6-8528.8-630.7z"/>
					</g>
				</g>
			</g>
			<g transform="matrix( 1.1208038330078125, -0.013397216796875, 0.0169830322265625, 1.078460693359375, 4974.4,418.95) ">
				<g>
					<g id="Layer4_0_MEMBER_10_MEMBER_2_FILL_00000097487867363057855850000004899123807117384886_">
						<path d="M-4133.3-302.3c0,0,0.5-0.5,0.4-1.1c0-0.2-0.1-0.3-0.2-0.4c-2.2-1.1-4.1-1.6-5.5-1.9c-1.3-0.2-2.6-0.5-4.3-0.2
							c-2.4,0.4-4.2,1.6-5.3,2.5c1.3-0.4,2.9-0.7,4.7-0.8C-4139.1-304.5-4135.5-303.3-4133.3-302.3z"/>
					</g>
				</g>
			</g>
			<g transform="matrix( 1.1208038330078125, -0.013397216796875, 0.0169830322265625, 1.078460693359375, 4974.4,418.95) ">
				<g>
					<g id="Layer4_0_MEMBER_10_MEMBER_2_FILL_00000163045465076729111620000015177258051701843096_">
						<path d="M-4126.6-302.2c0,0-0.5-0.5-0.3-1.1c0-0.2,0.1-0.3,0.2-0.4c2.2-1.1,4.2-1.5,5.5-1.7c1.3-0.2,2.6-0.4,4.3-0.1
							c2.4,0.4,4.1,1.7,5.2,2.6c-1.3-0.4-2.9-0.8-4.7-0.9C-4120.8-304.2-4124.4-303.1-4126.6-302.2z"/>
					</g>
				</g>
			</g>
			<g transform="matrix( 0.337677001953125, 0, 0, 0.3437042236328125, 3216.95,364.85) ">
				<g>
					<g id="Layer4_0_MEMBER_13_MEMBER_0_FILL_00000009574535572108070270000010935280662038271126_">
						<path class="st18" d="M-8643.5-355.4c-0.4-0.6-0.8-1.2-1.1-1.7c5.1,10.3,11.2,21.2,18.3,32.7c1.6,3.6,3.2,7.3,4.7,10.9
							c15.3,25,46.8,32.7,94.5,23.1c51.1,16.6,89.2,9.7,114.3-20.5c1.7-4.5,3.6-9,5.5-13.6c4.3-6.9,8.3-13.6,11.8-20.1
							c-0.5,0.6-1,1.2-1.6,1.8c-9,9.5-19.9,15.9-32.5,19.2c-13.8,3.7-32.5,3.5-56-0.6c-20.3-3-28.8-4.3-25.5-4.1
							c-7.5-0.7-18.4-0.8-32.8-0.4c-14.6,0.4-26.9,1.1-36.9,2.1c-9.9,1-19.3,0.2-27.9-2.2C-8623-332.6-8634.6-341.5-8643.5-355.4
							 M-8517.3-329.5c-0.2,0-0.3,0-0.3,0l0.1,0c0.6,0.1,1.3,0.1,2,0.2c0.1,0,0.3,0,0.5,0c-0.5-0.1-1-0.2-1.6-0.3
							c-0.1,0-0.2,0-0.2,0C-8517-329.5-8517.1-329.5-8517.3-329.5z"/>
						<path class="st5" d="M-8440.7-486.1c-0.4-0.2-1-0.6-1.9-1c-4.4-2.3-7.7-3.8-8.5-4.2c-2.6-1.2-7.4-3.7-16.8-9.1
							c1.5,8.5,3.5,26.4-4.8,46.2c-4.2,10-9.7,17.5-14.2,22.7c-6.3,2.7-19.7,7.4-36.8,5.5c-11.8-1.3-20.9-5.3-26.3-8.3
							c-4.6-6.5-10.4-15.7-14.3-27.6c-3.5-10.5-5.6-22.4-6.5-35.6c-5.8,2.2-11.6,4.9-17.3,7.9c2.6-1.1-15.1,7.5-25.4,12.4
							c-4,1.9-8.1,3.5-12.4,4.6c-11.5,3.1-24.8,8.4-28.6,15c-16.8,29.1,0.7,73.9,10.9,102c16.3,44.7,29.2,111.5,12.7,207.1
							c13.1,6.7,62.5,30,125.3,16.1c58.2-12.9,91.6-49.8,101.4-61.6c-10.4-45.7-6.7-80.1-1.3-103.2c5.9-25.2,12.9-33,24.4-77.6
							c15.5-60.1,10.2-75,2.6-82.8c-3.3-3.3-13.4-7.6-33.4-16C-8421.7-477.6-8431.3-481.1-8440.7-486.1z M-8517.6-329.5
							c0.8,0,1.8,0.1,2.6,0.3C-8515.9-329.3-8516.8-329.3-8517.6-329.5z"/>
					</g>
				</g>
			</g>
			<g transform="matrix( 0.337677001953125, 0, 0, 0.3437042236328125, 3216.95,364.85) ">
				<g>
					<g id="Layer4_0_MEMBER_13_MEMBER_1_FILL_00000112597446807697830850000018285859647692944543_">
						<path class="st5" d="M-8350.8,573.3c-5.5,2.6-13.3,6.3-22.9,10.3c-24.1,10.1-57.1,23.9-95.4,29.1c-14,1.9-61.9,7.1-118.5-12.1
							c-36.7-12.4-63.2-30.4-79.5-43.3c1.6-8.1,22.7-114.9,33.4-181.3c3-18.9,5-33.1,7.1-56.9c1.1-12.9,2-30.3,1.6-51.4
							c32.7-50,67.1-108.9,99.4-176.9c32.5-68.3,56.7-132.3,74.8-189.2c13.9,101.4,27.8,202.8,41.7,304.2
							C-8389.7,328.3-8370.3,450.8-8350.8,573.3z"/>
						<path class="st19" d="M-8389.2-150.1c-2.3-8.4-5-17.1-7.9-26.1c-2.6-7.7-5.2-15.2-7.9-22.3c-7.8,5.3-15.5,10.7-23.3,16
							c-7.1,26.6-14.2,53.1-21.2,79.7C-8429.5-118.5-8409.3-134.3-8389.2-150.1z"/>
						<g>
							<path class="st20" d="M-8426.3-480.5c0.3-0.6,0.6-1.2,1-1.8v0c0-0.1,0.1-0.2,0.1-0.3c0,0,0,0,0-0.1l0,0
								c-0.7,1-1.5,1.9-2.2,2.9c0.6-0.8,1.3-1.6,1.9-2.3C-8425.7-481.6-8426-481.1-8426.3-480.5z"/>
							<path class="st5" d="M-8389.2-150.1c-22,17.1-44,34.2-66,51.2c18,123.5,36.1,246.9,54.1,370.4c8.2-35.2,15.2-73.4,20.1-114.4
								C-8366.8,38.1-8374.9-66.8-8389.2-150.1z"/>
						</g>
					</g>
				</g>
			</g>
			<g transform="matrix( 0.3376007080078125, 0, 0, 0.3436279296875, 3216.95,364.85) ">
				<g>
					<g id="Layer4_0_MEMBER_13_MEMBER_1_MEMBER_4_FILL_00000094587113864122483940000001307600054232162696_">
						<path class="st6" d="M-8339.7-465.1c-19.6-4.4-39.3-8.8-58.9-13.2c-17.8,49.1-35.6,98.2-53.5,147.2
							c-62.2,170.8-124.8,341.3-188,511.7c4.3,29,8.6,58,13,87c53.9-49.9,96.5-119.3,127.8-208.2
							C-8446.1-115.4-8392.9-290.2-8339.7-465.1z"/>
						<path class="st7" d="M-8427-487.9c-35.8,28.4-71.8,57.5-108.1,87.3c-35,28.8-69.4,57.4-103.1,86l10.7,41.9l2.4,9.5
							c-18.7,86.6-32.4,193.5-27.2,315.3c2,46.1,6.4,89.2,12.4,129.2c63.1-170.6,125.7-341.4,187.9-512.3
							c17.9-49.1,35.7-98.2,53.5-147.2C-8408-481.5-8417.5-484.7-8427-487.9z"/>
						<path class="st6" d="M-8427.9-483l-11.7-1.4c-89.8,41.3-158.2,81.7-205.1,121.2l6.6,48.6
							C-8570.8-373.2-8500.7-429.3-8427.9-483z"/>
					</g>
				</g>
			</g>
			<g>
				<path d="M375.3,156.9c0.1-6.2-0.5-20.2-9.8-32.8c-3.6-4.8-9.7-12.5-20.1-14.6c-3.8-0.8-9.4-0.5-13.2,1.6c0,0-0.1,0.1-0.1,0.1
					c0,0.1-0.1,0.2-0.1,0.3c-0.4-0.1-0.9-0.1-1.3-0.2c0,0,0,0-0.1,0c-7.2-0.5-13.4,5.2-17.1,11.3c-8.9,14.9-8.8,44.7,3.4,56.4
					c0,0,0.1,0.1,0.2,0.1c3.7,4.6,5,5.6,8.4,10.8c0.6-1.3,1.3-3.1,1.6-5.3c0.3-1.9,0.3-3.5,0.2-4.8c-4-3.2-6-8.7-6.6-12.4
					c-0.1,0-0.3-0.1-0.5-0.2c-0.3-0.2-0.6-0.4-0.9-0.7c-1.7-1.7-2.9-4.1-3.8-7.2c-0.1-0.6-0.3-1.1-0.3-1.6c0.2-0.3,0.5-0.6,0.8-0.9
					c2-1.4,3.5-4,2.8-6.6c-0.3-5.2,0.7-10.3,3.1-14.8c1.3-2.3,2.8-4.3,4.7-6c0.8-0.7,1.7-1.2,2.6-1.5c0.3-0.1,0.6-0.1,0.9-0.1
					c6.7-1.4,11.9,4.1,14.8,9.8l1.1,2.9c0.1,0.4,1.6,3.1,1.8,3.5l0,0l0,0.1l0.5,0.7c0.4,0.6,0.7,1.1,1,1.5l1.2,1.6
					c2.4,3.8,5.9,7.3,9.5,9c1,0.5,2.6,1.1,3.9,1.6l3.3,1.3c0.3,0.1,0.6,0.2,0.8,0.3l1.6,0.4h0c0.1,0,0.2,0.1,0.2,0.1
					c2.3,1.2,3.9,2.4,4.1,2.6c1.6,1.3,1.3,6.3-0.6,11.9c1-0.8,3.4-3.1,4.4-6.8C379.5,162.4,375.8,157.6,375.3,156.9z"/>
			</g>
			<g>
				<g transform="matrix( 0.3376922607421875, 0, 0, 0.3376922607421875, 3216.95,368.4) ">
					<g>
						<g id="Layer4_0_MEMBER_14_MEMBER_0_MEMBER_2_FILL_00000156547979744360838460000007649052433223450001_">
							<path class="st21" d="M-8495.4-695.5c3.1,24.3,19.1,48.3,41.9,62.5C-8474-649.3-8489.2-671.7-8495.4-695.5
								C-8495.4-695.6-8495.4-695.6-8495.4-695.5z"/>
						</g>
					</g>
				</g>
			</g>
			<g transform="matrix( 0.3377532958984375, 0, 0, 0.3377532958984375, 3217.2,368.05) ">
				<g>
					<g id="Layer4_0_MEMBER_15_FILL_00000096061309536705187040000017679064430942682557_">
						<path class="st22" d="M-8520.7-661.2c-0.8,0.8-1.2,1.8-1.2,3s0.4,2.2,1.2,3c0.8,0.8,1.8,1.2,3,1.2s2.2-0.4,3-1.2
							c0.8-0.8,1.2-1.8,1.2-3s-0.4-2.2-1.2-3c-0.8-0.8-1.8-1.2-3-1.2S-8519.8-662-8520.7-661.2z"/>
					</g>
				</g>
			</g>
			<g>
				<path class="st23" d="M320.4,169c0,0.6-0.2,1-0.5,1.3c-0.6,0.6-1.7,0.5-2.2-0.2c-0.2-0.3-0.3-0.7-0.3-1.1c0-0.1,0-0.2,0-0.3
					c0.2-1.2,0.7-2.4,1.5-3.6c0,0,0,0,0,0c0.8,1.2,1.3,2.3,1.5,3.5C320.4,168.7,320.4,168.9,320.4,169z"/>
				<path class="st24" d="M321.1,168.4c-0.1-0.3-0.1-0.5-0.2-0.8c-0.5-1.5-1.1-2.9-2-4.1c-0.9,1.4-1.6,2.8-2.1,4.5
					c0,0.1-0.1,0.3-0.1,0.4c-0.5,2.6,0.2,4,2.2,4c1.6,0,2.4-0.8,2.4-2.5C321.3,169.4,321.2,168.9,321.1,168.4z M320.1,170.2
					c-0.6,0.7-1.8,0.8-2.3,0c0,0,0,0,0,0c-0.4-0.5-0.4-1-0.4-1.2c0-0.1,0-0.2,0-0.3c0.2-1.2,0.7-2.4,1.5-3.6l0-0.2v0.2c0,0,0,0,0,0
					c0.8,1.2,1.3,2.3,1.5,3.5c0,0.1,0.1,0.3,0.1,0.4C320.4,169.5,320.3,169.9,320.1,170.2z"/>
			</g>
			<g>
				<path class="st23" d="M362.6,171.9c0,0.6-0.2,1-0.5,1.3c-0.6,0.6-1.7,0.5-2.2-0.2c-0.2-0.3-0.3-0.7-0.3-1.1c0-0.1,0-0.2,0-0.3
					c0.2-1.2,0.7-2.4,1.5-3.6c0,0,0,0,0,0c0.8,1.2,1.3,2.3,1.5,3.5C362.6,171.6,362.6,171.7,362.6,171.9z"/>
				<path class="st24" d="M363.3,171.2c-0.1-0.3-0.1-0.5-0.2-0.8c-0.5-1.5-1.1-2.9-2-4.1c-0.9,1.4-1.6,2.8-2.1,4.5
					c0,0.1-0.1,0.3-0.1,0.4c-0.5,2.6,0.2,4,2.2,4c1.6,0,2.4-0.8,2.4-2.5C363.4,172.2,363.4,171.8,363.3,171.2z M362.3,173
					c-0.6,0.7-1.8,0.8-2.3,0c0,0,0,0,0,0c-0.4-0.5-0.4-1-0.4-1.2c0-0.1,0-0.2,0-0.3c0.2-1.2,0.7-2.4,1.5-3.6l0-0.2v0.2c0,0,0,0,0,0
					c0.8,1.2,1.3,2.3,1.5,3.5c0,0.1,0.1,0.3,0.1,0.4C362.6,172.3,362.5,172.7,362.3,173z"/>
			</g>
			<path d="M369.5,181.4c2.3,10.2,4.2,22.5,4.5,36.5c0.6,26.3-4.7,48-9.7,62.8c-2-4-4.6-10.6-5.3-19.1c-0.6-7,0.4-12.8,1.3-16.8
				c-1.3,5.2-2.3,11.4-2.5,18.4c0,2.3,0,4.4,0.1,6.5c-2.6-6.6-5.1-15.1-6.3-25.1c-2.7-24.1,4.3-43.4,8.8-53.3
				C363.6,188,366.5,184.7,369.5,181.4z"/>
			<path class="st6" d="M331.5,564.8c-4.1,1-12.3,2.5-22.1,0.3c-9.4-2.1-16-6.6-19.3-9.2c-1.6,7.4-3.3,14.9-4.9,22.3
				c2.9,2.4,7.2,5.5,13.1,8c6.2,2.6,11.4,3.4,13.7,3.7c7.9,0.9,14.4-0.2,18.5-1.2c4.8,2,14.5,5.3,27,4c10-1,17.5-4.5,21.7-6.9
				c1.7,0.3,6.1,0.7,10.9-1.7c6.3-3.2,8.5-9,9-10.3c-0.9-5.7-1.9-11.5-2.8-17.2c-1.6,1.6-4.2,3.8-7.8,5.4
				c-6.6,2.9-12.7,2.1-15.2,1.6c-3.4,2-11.3,6-22,6.1C342,569.6,335,566.6,331.5,564.8z"/>
			<g transform="matrix( 1, 0, 0, 1, 0,0) ">
				<g>
					<g id="Layer5_48_MEMBER_2_FILL_00000101097704803377624920000015501696072383028897_">
						<path class="st25" d="M340.9,174.1c-6.6,0-6.9,0.2-7,0.4c-0.1,0.6,3.2,2.2,6.7,2.2c3.6,0,6.9-1.7,6.8-2.3
							C347.4,174.2,347,174.1,340.9,174.1z"/>
					</g>
				</g>
			</g>
			<path class="st21" d="M333.5,122.3c2.4,0.7,5.7,2,8.6,4.8c3.1,3,3.1,5.1,5.9,10.9c2.8,5.7,6.4,12.9,13.3,17
				c3.6,2.2,7.5,3.1,7.6,2.7c0.2-0.3-3.6-1.5-7-4.8c-3.1-3-3.3-5.4-7.3-14.7c-2.6-6-3.8-9-5.1-10.4
				C347.7,125.8,343.3,122.3,333.5,122.3z"/>
		</g>
	</g>
	<g>
		<g>
			<g>
				<path class="st26" d="M481.5,553c-11-0.4-21.9-0.9-32.9-1.3c5.4-10.7,12.4-26.8,16.2-47.5c3.8-20.5,9.1-48.2-1.2-67.9
					c-5.7-10.9-15-17-26.2-20.8c0,0-0.1,0-0.1,0c-5.4-1.8-11.2-3.1-17.3-4.2c-28.7-4.9-63.3-4.2-84.3-26.8
					c-16.2-17.4-28.6-53.1-2.3-135.3h27.3c0,0-27.6,74.8-5.6,116.3C377.1,407,439.4,400.1,474,422c4,2.5,7.1,6.1,9.6,10.6
					C502.8,467.4,481.5,553,481.5,553z"/>
				<path class="st4" d="M326.1,252.7c2.1-1.8,4.1-3.7,6.2-5.5c0,0,0.4-4.1,1.7-5.5c1.3-1.4,2.2-2,2.2-2l9.6,9.9l-10.7,10.7
					C332.1,257.8,329.1,255.2,326.1,252.7z"/>
				<path class="st4" d="M338.8,256.8c-19.8,26.8-28,37-31.4,40.7c-0.1,0.1-0.2,0.2-0.3,0.3c-1.9,2.1-5.9,6.3-11.3,8.3
					c-1.5,0.5-3,0.9-4.7,1c-0.3,0-0.7,0.1-1.1,0.1c-1.8,0.1-4.4-0.1-6.4-1.9c-1.7-1.5-2.4-3.6-2.7-5.5c0-0.2-0.1-0.5-0.1-0.7
					c0,0,0,0,0,0c-0.1-1.1-0.1-2.1,0-2.7v0c0-0.6,0.1-1.2,0.2-1.8v0c0.2-1,0.4-2,0.8-2.9c2.5-6.8,9.2-12.2,14.5-16.3
					c3.2-2.5,5.4-4.3,8.4-6.6c0.7-0.6,1.4-1.1,1.9-1.5c1.7-1.3,2.9-2.3,4.8-3.7c3.7-2.9,9.9-7.7,20.8-16.2c0.5,1.3,1.2,2.7,2.1,4.2
					C335.9,253.8,337.5,255.5,338.8,256.8z"/>
				<path class="st4" d="M407.8,299.8c0,2.2-0.4,5-2.4,7.2c-3.1,3.4-8,3.1-8.4,3c-0.2,0-0.5-0.1-0.7-0.1c-1.4-0.2-2.8-0.7-4-1.5
					c-1.3-0.7-2.6-1.7-3.8-2.8c-2.5-2.3-4.5-5.1-6.2-7.3c-0.9-1.1-1.9-2.4-3.1-3.9c-6-7.6-15.9-20-27.9-35.8c1.4-0.1,5-0.4,8.4-3
					c2-1.5,3.1-3.2,3.8-4.4c4.8,4.2,9.2,8.1,13.4,11.8c3.1,2.8,5.9,5.4,8.6,7.8c8.7,8,14.9,14.2,18,17.7c0.9,1.1,3.2,3.8,4.1,7.7
					c0,0.1,0.1,0.3,0.1,0.4c0,0,0,0,0,0C407.6,297.4,407.8,298.5,407.8,299.8C407.8,299.8,407.8,299.8,407.8,299.8z"/>
				<path class="st27" d="M372.1,260.3l-29.8,4.3c3.2-8.9,2.2-17.4-2.8-21.4c-1-0.8-2.6-1.7-4.9-2.2c0.1-0.8,0.4-1.9,1.1-3
					c0.9-1.3,2.5-2.8,6.4-3.6c7.6-1.7,18.3-0.1,21.4,1.6S374.2,248.4,372.1,260.3z"/>
				<path class="st4" d="M333.1,243.4c0.3-1.4,1-3.6,2.8-5.8c1.9-2.3,4.9-4.3,5.7-3.7c0.5,0.4,0,1.7-0.1,1.9
					c-0.5,1.4-1.6,1.7-2.4,2.7c-0.5,0.7-1,2.1-0.4,4.5c-0.5-0.2-1.7-0.7-3.3-0.5C334.3,242.6,333.5,243.1,333.1,243.4z"/>
			</g>
			<g>
				<path class="st28" d="M345.8,256.8c-0.1,0-0.2-0.1-0.3-0.2c-0.1-0.1,0-0.3,0.1-0.4c3.8-1.9,7.8-3.1,12-3.4
					c3.4-0.3,6.7,0,10.1,0.7c0.2,0,0.3,0.2,0.2,0.4s-0.2,0.3-0.4,0.2c-3.2-0.8-6.6-1-9.9-0.7c-4.1,0.3-8.1,1.5-11.7,3.4
					C345.9,256.8,345.9,256.8,345.8,256.8z"/>
			</g>
			<g>
				<path class="st28" d="M345.8,249.5c-0.1,0-0.2-0.1-0.3-0.2c-0.1-0.1,0-0.3,0.1-0.4c3.4-1.6,6.9-2.7,10.7-3.2
					c3.8-0.5,7.6-0.3,11.4,0.5c0.2,0,0.3,0.2,0.2,0.3c0,0.2-0.2,0.3-0.3,0.2c-3.7-0.8-7.4-0.9-11.2-0.5c-3.6,0.5-7.2,1.5-10.5,3.1
					C345.9,249.5,345.9,249.5,345.8,249.5z"/>
			</g>
			<g>
				<path class="st28" d="M343.2,243.3c-0.1,0-0.2-0.1-0.3-0.2c-0.1-0.2,0-0.3,0.2-0.4c3.1-1.1,6.3-1.8,9.6-2.3
					c4.1-0.6,8.2-0.7,12.3-0.4c0.2,0,0.3,0.2,0.3,0.3c0,0.2-0.2,0.3-0.3,0.3c-4.1-0.3-8.2-0.2-12.2,0.4
					C349.6,241.4,346.4,242.2,343.2,243.3C343.3,243.3,343.3,243.3,343.2,243.3z"/>
			</g>
			<g>
				<path class="st28" d="M339.2,239c-0.1,0-0.2-0.1-0.3-0.2c-0.1-0.2,0-0.3,0.2-0.4c2.9-1.1,6-1.9,9.1-2.4
					c4.2-0.7,8.6-0.8,12.9-0.2c0.2,0,0.3,0.2,0.3,0.3c0,0.2-0.2,0.3-0.3,0.3c-4.2-0.5-8.5-0.4-12.7,0.2c-3.1,0.5-6.1,1.3-9,2.4
					C339.3,239,339.2,239,339.2,239z"/>
			</g>
			<path class="st27" d="M481.5,553c-11-0.4-21.9-0.9-32.9-1.3c5.4-10.7,12.4-26.8,16.2-47.5c3.8-20.5,9.1-48.2-1.2-67.9
				c-5.7-10.9-15-17-26.2-20.8c11.6,2,38,5.5,46.1,17.2C502.8,467.4,481.5,553,481.5,553z"/>
			<g>
				<g>
					<path class="st28" d="M483.3,440.9c-0.1,0-0.1,0-0.2-0.1c-5.2-4-16.1-7.2-16.6-7.3c-0.2-0.1-0.3-0.2-0.2-0.4
						c0.1-0.2,0.2-0.3,0.4-0.2c0.5,0.1,11.5,3.4,16.8,7.4c0.2,0.1,0.2,0.3,0.1,0.5C483.5,440.8,483.4,440.9,483.3,440.9z"/>
				</g>
			</g>
			<g>
				<g>
					<path class="st28" d="M458.8,541.7c-0.2,0-0.3-0.1-0.3-0.3c0-0.2,0.1-0.4,0.3-0.4c0.5-0.1,12.6-2.1,18.9-0.7
						c0.2,0,0.3,0.2,0.3,0.4c0,0.2-0.2,0.3-0.4,0.3C471.3,539.6,459.3,541.6,458.8,541.7C458.8,541.7,458.8,541.7,458.8,541.7z"/>
				</g>
			</g>
			<g>
				<g>
					<path class="st28" d="M462.5,529.9c-0.2,0-0.3-0.1-0.3-0.3c0-0.2,0.1-0.4,0.3-0.4c2.6-0.6,15.9-3.6,18.5-1.6
						c0.2,0.1,0.2,0.3,0.1,0.5c-0.1,0.2-0.3,0.2-0.5,0.1C478.6,526.6,468.3,528.5,462.5,529.9C462.6,529.8,462.5,529.9,462.5,529.9z
						"/>
				</g>
			</g>
			<g>
				<g>
					<path class="st28" d="M482,512.3c-0.1,0-0.1,0-0.2,0c-1.8-1-9.4-0.5-13.6,0l-0.1-0.7c1.9-0.2,11.7-1.2,14,0.1
						c0.2,0.1,0.2,0.3,0.1,0.5C482.2,512.2,482.1,512.3,482,512.3z M468.1,511.9L468.1,511.9L468.1,511.9z"/>
				</g>
			</g>
			<g>
				<g>
					<path class="st28" d="M485.2,493.8c0,0-0.1,0-0.1,0c-1.7-0.7-10.3-0.3-14.6,0c-0.2,0-0.4-0.1-0.4-0.3c0-0.2,0.1-0.4,0.3-0.4
						c1.3-0.1,12.6-0.9,14.9,0.1c0.2,0.1,0.3,0.3,0.2,0.4C485.5,493.7,485.4,493.8,485.2,493.8z"/>
				</g>
			</g>
			<g>
				<g>
					<path class="st28" d="M486.9,458.7c-0.1,0-0.1,0-0.2-0.1c-5.1-4-14.7-6.5-15.1-6.6c-0.2,0-0.3-0.2-0.2-0.4
						c0-0.2,0.2-0.3,0.4-0.2c0.4,0.1,10.2,2.7,15.3,6.8c0.1,0.1,0.2,0.3,0.1,0.5C487.1,458.6,487,458.7,486.9,458.7z"/>
				</g>
			</g>
			<g>
				<g>
					<path class="st28" d="M485.3,480c-0.1,0-0.1,0-0.2-0.1c-3.6-2.4-11.8-2.7-12.1-2.7c-0.2,0-0.3-0.2-0.3-0.4
						c0-0.2,0.2-0.3,0.4-0.3c0.4,0,8.8,0.3,12.5,2.9c0.2,0.1,0.2,0.3,0.1,0.5C485.5,480,485.4,480,485.3,480z"/>
				</g>
			</g>
			<g>
				<g>
					<path class="st28" d="M486,467c-0.1,0-0.1,0-0.2-0.1c-3.6-2.4-11.5-4.4-11.8-4.5c-0.2,0-0.3-0.2-0.3-0.4c0-0.2,0.2-0.3,0.4-0.3
						c0.3,0.1,8.4,2.1,12.1,4.6c0.2,0.1,0.2,0.3,0.1,0.5C486.3,467,486.1,467,486,467z"/>
				</g>
			</g>
		</g>
	</g>
</g>
</svg>
