<?xml version="1.0" encoding="utf-8"?>
<!-- Generator: Adobe Illustrator 26.0.1, SVG Export Plug-In . SVG Version: 6.00 Build 0)  -->
<svg version="1.1" id="Layer_1" xmlns="http://www.w3.org/2000/svg" xmlns:xlink="http://www.w3.org/1999/xlink" x="0px" y="0px"
	 viewBox="0 0 1000 762.1" style="enable-background:new 0 0 1000 762.1;" xml:space="preserve">
<style type="text/css">
	.st0{fill:#BDDEEF;}
	.st1{opacity:0.2;fill:none;stroke:#272828;stroke-width:7.3704;stroke-miterlimit:10;}
	.st2{opacity:0.2;}
	.st3{fill:#272828;}
	.st4{fill:#99CCE0;}
	.st5{fill:#52A7C1;}
	.st6{fill:#FCB99B;}
	.st7{fill:#D8AE73;}
	.st8{fill:#B58D54;}
	.st9{fill:#E09A61;}
	.st10{opacity:0.6;fill:url(#SVGID_1_);}
	.st11{opacity:0.6;fill:url(#SVGID_00000041283636394984669030000007893489202405032637_);}
	.st12{opacity:0.6;fill:url(#SVGID_00000171699265868645108160000008584527805425162914_);}
	.st13{opacity:0.5;fill:url(#SVGID_00000075877815913346273190000004067235703464358032_);}
	.st14{opacity:0.5;fill:url(#SVGID_00000183247041831787942310000015618460175980855440_);}
	.st15{fill:#FF5257;}
	.st16{fill:#0066A5;}
	.st17{fill:#5E271B;}
	.st18{fill:#EA906C;}
	.st19{fill:#FFFFFF;}
	.st20{fill:#6B3628;}
	.st21{fill:#1D1818;}
	.st22{fill:#250A01;}
	.st23{fill:#EF865F;}
	.st24{fill:#531CBF;}
	.st25{fill:#EA4E5A;}
	.st26{fill:#EE252A;}
	.st27{fill:#CD070C;}
	.st28{fill:#3E8ACE;}
	.st29{fill:#353535;}
	.st30{fill:#DB2818;}
	.st31{fill:#C21111;}
	.st32{fill:#FFCC00;}
	.st33{fill:#E7372E;}
	.st34{fill:url(#SVGID_00000147941301755213140290000002087306656475625910_);}
	.st35{fill:#1E1E1E;}
	.st36{fill:#990000;}
	.st37{fill:#AD000D;}
</style>
<g>
	<g>
		<g>
			<g>
				<rect x="150.6" y="151.9" class="st0" width="706.3" height="457.6"/>
				<path class="st1" d="M366.8,688.9l14.6-79.3c-4.9-139.7-9.7-279.4-14.6-419"/>
				<g class="st2">
					<polygon class="st3" points="218.3,688.9 211,687.5 225.6,608.6 211,189.9 218.3,189.7 233,609.1 232.9,609.5 					"/>
				</g>
				<rect x="609.8" y="282.8" class="st4" width="162.8" height="326.7"/>
				<circle class="st5" cx="628.4" cy="456.4" r="10.2"/>
				<g>
					<path class="st6" d="M230.8,314.8c-1.7-2.5-3.4-5-5.1-7.6c0-1-0.1-2.4-0.5-4c-1.3-5.7-5.3-10.5-6.3-10c-0.3,0.1-0.5,0.7,0,2.8
						c0.6,1.8,1.2,3.6,1.7,5.4c-1.8-2-3.6-4.1-5.5-6.1c-0.4,5.2-0.7,10.5-1.1,15.7c0.3,0.7,1.3,2.8,3.6,4c1.2,0.6,2.2,0.8,3,0.9
						c1.2,1.6,2.3,3.2,3.5,4.7C226.3,318.7,228.5,316.8,230.8,314.8z"/>
					<g>
						<rect x="211" y="187.7" class="st7" width="7.4" height="501.2"/>
					</g>
					<g>
						<rect x="363.1" y="187.7" class="st7" width="7.4" height="501.2"/>
					</g>
					<g>
						<rect x="362.9" y="392.8" class="st8" width="7.7" height="13.1"/>
					</g>
					<g>
						<rect x="213.2" y="245.2" class="st7" width="153.4" height="7"/>
					</g>
					<g>
						
							<rect x="288.2" y="245.7" transform="matrix(2.073958e-03 -1 1 2.073958e-03 -33.1168 615.2174)" class="st7" width="7" height="157"/>
					</g>
					<g>
						<rect x="213.2" y="395.8" class="st7" width="157" height="7.1"/>
					</g>
					<g>
						<rect x="213.2" y="471.1" class="st7" width="153.4" height="7"/>
					</g>
					<g>
						<rect x="213.2" y="546.4" class="st7" width="153.4" height="7"/>
					</g>
					<g>
						<rect x="213.2" y="621.7" class="st7" width="153.4" height="7"/>
					</g>
				</g>
				<circle class="st8" cx="366.8" cy="399.7" r="1.5"/>
			</g>
			<g>
				<g>
					<g>
						<path class="st6" d="M347.3,401.2c0-0.1,0-0.2,0-0.3c0,0,0,0,0,0C347.2,401,347.3,401.1,347.3,401.2z"/>
					</g>
					<g>
						<path class="st6" d="M347.3,401.2c0-0.1,0-0.2,0-0.3c0,0,0,0,0,0C347.2,401,347.3,401.1,347.3,401.2z"/>
					</g>
					<path class="st6" d="M357.5,403.6c-0.2,0.5-0.8,0.8-1.3,0.8c-0.6,0-1-0.5-1.1-0.6c-0.4-1.9-0.7-3.8-1.1-5.7c0,0,0,0,0,0v0
						c0.3,3,0.6,6,0.9,9c-0.3,1-1.2,1.6-1.9,1.4c-0.5-0.1-0.9-0.6-1-1.2c-0.2-1.3-0.5-2.6-0.7-4c0.1,2.2,0.2,4.3,0.3,6.5
						c0,1.2-0.9,1.9-1.5,1.8c-0.5-0.1-1-0.7-1.1-1.5c-0.6-3-1.1-6.1-1.7-9.1c0-0.1,0-0.2,0-0.3c0,0,0,0,0,0c0,0.1,0,0.2,0,0.3
						c0.2,2.3,0.4,4.6,0.7,6.9c0.3,1.2-0.3,2.3-0.9,2.4c-0.6,0.1-1.5-0.6-1.6-1.8c-0.3-1.6-0.6-3.2-0.9-4.7c0,0,0,0,0,0
						c-0.4-0.9-0.9-2.1-1-3.6c-0.1-1.3,0.3-2.4,0.7-4.2c0.2-0.7,0.4-1.3,0.5-1.7c-0.2-1-0.4-2.1-0.6-3.3c-0.2-1.7-0.3-3.2-0.3-4.6
						c1.4,0.1,2.9,0.2,4.4,0.3c1.7,0.2,3.2,0.4,4.7,0.7c0.3,0.8,0.5,1.8,0.7,2.9c0.1,0.7,0.2,1.3,0.2,1.9c0.3,0.7,0.7,1,0.9,1.2
						c0.2,0.2,0.4,0.2,0.7,0.4c0.4,0.3,0.6,0.6,0.8,0.8c0.2,0.4,0.5,1,0.6,1.9c0,0.3,0,0.5,0.1,1c0.1,0.7,0.1,1.4,0.2,2L357.5,403.6
						z"/>
				</g>
			</g>
			<g>
				<path class="st6" d="M210.5,291.6c0,0,0.1-0.1,0.2-0.1c0.1,0,0.2,0,0.3,0c0,0.1,0,0.2,0,0.3c0,0,0,0,0,0.1c0,0,0.7,0.4,0.8,0.4
					c0.1,0,1.1,0.7,1.2,0.7c0.1,0.1,1.5,1.7,0.9,3.5c-0.2,0.6-0.6,1-0.9,1.3c-0.8-0.3-1.6-0.6-2.4-0.9c-0.2-0.6-0.5-1.5-0.5-2.7
					C210,293.1,210.3,292.1,210.5,291.6z"/>
				<path class="st6" d="M212.9,300c-0.7-0.4-1.3-0.7-2-1.1c0-0.1,0-0.3,0-0.4c0,0-0.1,0-0.2,0.1c-0.1,0-0.1,0.1-0.2,0.1
					c-0.2,0.4-0.6,1.2-0.7,2.3c0,1.2,0.4,2.1,0.7,2.5c0.8,0.2,1.6,0.3,2.4,0.5c0.2-0.3,0.4-0.8,0.5-1.5
					C213.6,301.3,213.1,300.4,212.9,300z"/>
				<path class="st6" d="M211.7,304.8c0.1,0.4,0.3,0.9,0.3,1.6c0,0.8-0.2,1.4-0.3,1.8c-0.4-0.1-0.8-0.3-1.2-0.4
					c-0.2-0.2-0.7-1-0.6-2c0.1-0.8,0.4-1.4,0.6-1.6c0,0,0.1-0.1,0.2-0.1c0.1,0,0.1,0,0.1,0c0,0.1,0,0.2,0,0.3c0,0,0,0,0,0.1
					c0,0,0.2,0.1,0.2,0.1C211.2,304.4,211.7,304.8,211.7,304.8z"/>
				<path class="st6" d="M211.5,308.8c0.2,0.3,0.4,0.9,0.4,1.6c0,0.4-0.1,0.7-0.2,1c-0.4,0-0.8,0-1.2,0c-0.1-0.1-0.8-1-0.5-2.1
					c0.1-0.4,0.3-0.7,0.4-0.9c0,0,0.1-0.1,0.3-0.2c0.1,0,0.2,0,0.2,0c0,0.1,0,0.3,0,0.4C211.1,308.7,211.3,308.8,211.5,308.8z"/>
			</g>
		</g>
		<g>
			<path class="st9" d="M266.6,285.8L266.6,285.8C266.6,285.8,266.6,285.8,266.6,285.8C266.6,285.8,266.6,285.8,266.6,285.8z"/>
			<path class="st9" d="M337.5,287.4c-0.8-0.5-1.6-0.9-2.5-1.2c0,0,0,0,0,0C335.9,286.5,336.7,286.9,337.5,287.4z"/>
		</g>
	</g>
	<g>
		<g>
			<g>
				<linearGradient id="SVGID_1_" gradientUnits="userSpaceOnUse" x1="325.6062" y1="328.4239" x2="400.0097" y2="516.8479">
					<stop  offset="0" style="stop-color:#FFEADB"/>
					<stop  offset="0.9944" style="stop-color:#B060F4"/>
				</linearGradient>
				<path class="st10" d="M332.3,324.5l-2.1,3l-0.4,16.1c1.9,6.8,2.1,15.7,2.8,23.5C332.9,355.2,333.3,335.1,332.3,324.5z"/>
			</g>
			<g>
				
					<linearGradient id="SVGID_00000096749286678512229410000002790024665467506364_" gradientUnits="userSpaceOnUse" x1="265.2648" y1="265.9442" x2="362.0622" y2="303.5876">
					<stop  offset="0" style="stop-color:#FFEADB"/>
					<stop  offset="0.9944" style="stop-color:#B060F4"/>
				</linearGradient>
				<path style="opacity:0.6;fill:url(#SVGID_00000096749286678512229410000002790024665467506364_);" d="M305.1,287.8
					c1.7-1.3,7-4.4,19.9-5.2c0.3,0,0.6,0.3,0.6,0.6l0,0c0,0.3-0.3,0.6-0.6,0.6c-6.6-0.2-16.9,3.3-19.8,4.3
					C305.1,288.2,304.9,287.9,305.1,287.8z"/>
				
					<linearGradient id="SVGID_00000119838591982452474580000000990674589672581783_" gradientUnits="userSpaceOnUse" x1="236.2807" y1="266.9901" x2="334.3037" y2="305.1102">
					<stop  offset="0" style="stop-color:#FFEADB"/>
					<stop  offset="0.9944" style="stop-color:#B060F4"/>
				</linearGradient>
				<path style="opacity:0.6;fill:url(#SVGID_00000119838591982452474580000000990674589672581783_);" d="M293.9,287.8
					c-1.7-1.3-7-4.4-19.9-5.2c-0.3,0-0.6,0.3-0.6,0.6l0,0c0,0.3,0.3,0.6,0.6,0.6c6.6-0.2,16.9,3.3,19.8,4.3
					C293.9,288.2,294,287.9,293.9,287.8z"/>
			</g>
			
				<linearGradient id="SVGID_00000165222882694538568380000017271214383483095958_" gradientUnits="userSpaceOnUse" x1="265.4742" y1="310.4056" x2="267.7192" y2="310.4056">
				<stop  offset="1.117320e-02" style="stop-color:#A96885"/>
				<stop  offset="1" style="stop-color:#93A3B7"/>
			</linearGradient>
			<path style="opacity:0.5;fill:url(#SVGID_00000165222882694538568380000017271214383483095958_);" d="M265.5,316.6
				c1.1-4.5,1.9-8.1,2.1-9c0.2-0.9,0.1-3.3-0.7-3.3c-0.8,0-1.5,4.4-1.5,9.9C265.5,314.4,265.5,316.5,265.5,316.6z"/>
			
				<linearGradient id="SVGID_00000168114296493311862310000004027220684771805579_" gradientUnits="userSpaceOnUse" x1="330.2635" y1="310.1914" x2="332.5086" y2="310.1914">
				<stop  offset="1.117320e-02" style="stop-color:#A96885"/>
				<stop  offset="1" style="stop-color:#93A3B7"/>
			</linearGradient>
			<path style="opacity:0.5;fill:url(#SVGID_00000168114296493311862310000004027220684771805579_);" d="M332.5,316.3
				c-1.1-4.5-1.9-8.1-2.1-9s-0.1-3.3,0.7-3.3c0.8,0,1.5,4.4,1.5,9.9C332.5,314.2,332.5,316.3,332.5,316.3z"/>
		</g>
		<g>
			<g>
				<g>
					<path class="st15" d="M350.1,444c0,0.1-0.1,0.2-0.2,0.5L350.1,444z"/>
				</g>
			</g>
		</g>
		<g>
			<g>
				<g>
					<path class="st6" d="M277.2,298l-1.3,4.1l0.2-0.5l-0.7,2.3c0-0.1,0.1-0.1,0.1-0.2l-1.2,4c-0.2,0.6-0.4,1.2-0.6,1.8
						c-0.3,0.9-1,3-2.2,6.3l-2.1,7.1l-7.4,24.9c-0.5,1.7-2.5,9.1-7.1,10c-4.1,0.8-8-3.9-11.6-8.4c-5.8-7.4-13.8-18.3-22.6-33.4
						c2.9-1,5.9-2.1,8.8-3.1c4.1,4.9,8.2,9.8,12.3,14.8c2.2,2.6,4.3,5.1,6.5,7.7c3.1-8.4,4.6-15.1,5.4-19.6c0.1-0.8,0.3-1.9,0.7-4.2
						c1.2-7.5,1.9-12.9,2.2-16.2c0-1.8,0.1-3.9,0.5-6.2c1.4-7.8,4.3-12.7,8.7-14.8c-0.9,2.2-0.6,4.5,0.8,6.9
						c0.6,1.1,0.6,1.1-0.1-0.2c1,2.3,3.5,5.2,7.6,8.6c1.4,1.1,2.4,2,3.2,2.5l0,0C277.7,293.7,277.7,295.7,277.2,298z"/>
					<g transform="matrix( -1.1695404052734375, 0.6071929931640625, 0.6146087646484375, 1.1432952880859375, 5173.75,644.15) ">
						<g transform="matrix( 1, 0, 0, 1, 0,0) ">
							<g>
								<g id="Symbol_1g_0_Layer0_0_FILL_00000124861283690072343790000010700427810251370889_">
									<path class="st16" d="M3158.3-1990.5c-1.1-1.5-2.2-2.7-3.1-3.4c-1.3-1.2-2.2-2-3.5-2.4c-1.7-0.6-3.4-0.2-4.4,0.1
										c-0.8,3.2-1.7,6.3-2.5,9.5c-0.2,1-0.2,1.5-0.1,1.5c-0.2,3.3-0.2,5.7-0.2,7.3l18.6,17.7c3.1-2.3,5.9-5.2,8.4-8.8
										c0.6-0.8,0.8-1.2,0.9-1.2L3158.3-1990.5z"/>
								</g>
							</g>
						</g>
					</g>
					<path class="st6" d="M353.5,389.7c-3.1,0.9-6.2,1.8-9.2,2.7c-1-6-2-10.9-2.7-14.2c-2.1-9.6-4.1-15.7-5.6-26.6
						c-0.2-1.4-0.4-2.6-0.5-3.4l-4.7-22.2l-2.2-10.5c-0.9-3.4-1.4-5.5-1.7-6.4c-0.1-0.6-0.3-1.2-0.5-1.8l-0.9-4.1
						c0,0.1,0,0.1,0.1,0.2l-0.6-2.3l0.1,0.5l-0.9-4.2c-0.3-2.3-0.1-4.3,0.4-5.8l0,0c0.8-0.5,2-1.2,3.4-2.2c4.4-3.1,7.2-5.7,8.3-8
						c-0.8,1.2-0.8,1.2-0.1,0.2c1.6-2.3,2-4.6,1.3-6.9c4.3,2.5,6.8,7.6,7.5,15.5c0.2,2.4,0.2,4.5,0,6.3c0,3.3,0.3,8.7,0.9,16.3
						c0.1,1.4,0.2,2.8,0.3,4.3c0.6,7.3,1.2,16.8,1.6,28.7l0,0.3c1.7,9.4,3.1,19.4,4.2,29.9C352.7,380.4,353.1,385.1,353.5,389.7z"/>
					<g transform="matrix( -1.1695404052734375, 0.6071929931640625, 0.6146087646484375, 1.1432952880859375, 5173.75,644.15) ">
						<g transform="matrix( 1, 0, 0, 1, 0,0) ">
							<g>
								<g id="Symbol_1g_0_Layer0_0_FILL_00000083069182882449741670000011166376822016176314_">
									<path class="st16" d="M3099.2-1958.3c-0.8-1.7-1.2-3.3-1.5-4.4c-0.4-1.8-0.6-2.9-0.3-4.3c0.4-1.8,1.4-3.1,2.2-3.8
										c3.2,0.8,6.3,1.6,9.5,2.5c0.9,0.3,1.4,0.5,1.4,0.6c2.9,1.4,5,2.6,6.4,3.4l6.1,25c-3.5,1.6-7.4,2.6-11.7,3
										c-1,0.1-1.5,0.2-1.5,0.2L3099.2-1958.3z"/>
								</g>
							</g>
						</g>
					</g>
					<g transform="matrix( 0.337738037109375, 0, 0, 0.337738037109375, 3216.95,391.6) ">
						<g transform="matrix( 2.9608612060546875, 0, 0, 2.9608612060546875, -9524.95,-1159.45) ">
							<path class="st17" d="M-8559.1-16.4C-8559.2-16.4-8559.2-16.4-8559.1-16.4l-0.1-0.5c0,0,0-0.1,0.1-0.1h0c0,0,0.1,0,0.1,0.1
								L-8559.1-16.4C-8559-16.4-8559.1-16.4-8559.1-16.4L-8559.1-16.4z"/>
						</g>
					</g>
					<g transform="matrix( 1.428558349609375, 0.0227203369140625, -0.0227203369140625, 1.428558349609375, 5228.6,548.25) ">
						<g transform="matrix( 0.2199859619140625, 0, 0, 0.2199859619140625, -228.9,-225.1) ">
							<g>
								
									<g id="Duplicate_Items_Folder_1c2h_hair_ul_0_Layer0_0_MEMBER_0_FILL_00000175282547869737664560000012397167780664365710_">
									<path d="M-14600.6,351.9C-14600.6,351.9-14600.6,351.8-14600.6,351.9C-14600.6,351.8-14600.6,351.8-14600.6,351.9
										c2-3.1,4-6.3,5.8-9.9c10.1-19.6,12.6-38.8,12.8-53.2c0-2.7,0.1-30-19.3-44.8c-10.7-8.2-24.3-10.3-25.2-10.4
										c-9.3-1.3-18.5-0.5-27.6,2.5c-7.5,2.5-14.5,6.2-20.9,11.2c-0.5,0.4-0.9,0.8-1.4,1.1c-1.7,1.6-3.3,3.3-4.8,5
										c-8.9,9.8-15.6,20.8-20,33c-4.4,12.1-6.4,24.8-5.8,38.1c0.6,13.2,3.6,25.7,9,37.4c3.5,7.6,7.8,13.9,12.9,19
										c5.9,5.8,12.3,9.5,19.3,10.8c6.5,1.3,13.5,0.5,20.9-2.2c7.4-2.8,8.9-7.1,18.8-10.9c6.4-2.4,5.8-0.8,8.5-2.5
										C-14608.6,370.3-14600.6,351.9-14600.6,351.9z"/>
								</g>
							</g>
						</g>
					</g>
					<g transform="matrix( 0.3377532958984375, 0, 0, 0.3377532958984375, 3216.95,368.4) ">
						<g>
							<g id="Layer4_0_MEMBER_6_FILL_00000127747969922637476580000010693619846759372210_">
								<path class="st6" d="M-8545-257.3c-11.6,6.5-28.2,14.3-49,20c-36,9.8-65.5,7.7-76.7,6.6c-35.8-3.6-63.1-15.8-79.1-24.5
									c0.7-5.8,2.2-11.1,4.5-15.8c0.4-0.7,0.8-1.5,1.2-2.2c2.8-4.5,8.6-8.1,17.3-10.8c1.7-0.6,3.6-1.1,5.6-1.5
									c0.1,0,0.2-0.1,0.3-0.1h0.2c0.4-0.2,6.8-3.1,19-8.9c10.5-5,17.5-13.7,21.2-26.2l1-7.5l0.3-32.4l58.5,0.9v29.1
									c0.5,2.8,1.1,5.5,1.9,8c5.7,17.7,20.3,29.9,43.7,36.6c0.4,0.1,0.8,0.2,1.1,0.4h0.3c0.1,0,0.2,0,0.3,0.1
									c11.8,2.9,19.4,7,22.8,12.4c0.4,0.7,0.8,1.5,1.2,2.2C-8547.3-266.9-8545.8-262.3-8545-257.3z"/>
								<path class="st18" d="M-8619.2-324c-0.8-2.5-1.1-4-1.6-6.8v-29.1l-58.5-0.9l-0.3,32.4l-0.6,4.1
									c11.6,9.1,19.9,16.1,30.9,17.3C-8637.5-308-8629.2-316.3-8619.2-324z"/>
							</g>
						</g>
					</g>
					<g transform="matrix( -0.3599700927734375, 0, 0, 0.3599700927734375, 7402.85,360) ">
						<g>
							<g id="Layer4_0_MEMBER_7_MEMBER_0_MEMBER_0_FILL_00000182511528645286590200000010406017576651968898_">
								<path class="st6" d="M19795.2-353.1c-2.6-0.4-5.1,0.9-7.6,4c-2.4,3.1-4,7.2-4.9,12.1c-0.8,4.9-0.6,9.2,0.6,13
									c1.3,3.8,3.2,5.9,5.8,6.3c2.6,0.5,5.1-0.9,7.6-4c2.5-3.1,4.1-7.2,4.9-12.1s0.6-9.2-0.7-13
									C19799.7-350.5,19797.8-352.6,19795.2-353.1z"/>
							</g>
						</g>
					</g>
					<g transform="matrix( 0.3599700927734375, 0, 0, 0.3599700927734375, 3083.15,360.9) ">
						<g>
							<g id="Layer4_0_MEMBER_7_MEMBER_1_MEMBER_0_MEMBER_0_FILL_00000014593384822094914660000007325939002560074385_">
								<path class="st6" d="M-7695.8-354.4c-2.6-0.4-5.1,0.9-7.6,4c-2.4,3.1-4,7.2-4.9,12.1s-0.6,9.2,0.6,13
									c1.3,3.8,3.2,5.9,5.8,6.3c2.6,0.5,5.1-0.9,7.6-4c2.5-3.1,4.1-7.2,4.9-12.1s0.6-9.2-0.7-13
									C-7691.2-351.8-7693.2-353.9-7695.8-354.4z"/>
							</g>
						</g>
					</g>
					<g transform="matrix( 0.337738037109375, 0, 0, 0.337738037109375, 3216.95,368.4) ">
						<g>
							<g id="Layer4_0_MEMBER_7_MEMBER_2_FILL_00000111872195246747066790000001258850004146179204_">
								<path class="st6" d="M-8683.7-477.3c-21.5,16.7-29.1,50.1-17,81.5c3.6,30.2,9.8,49.3,18.5,57.4c8.7,8,15.7,13.7,21.1,16.9
									c1.4,0.8,3.6,3,7.1,3.8c2.1,0.5,4.3,0.5,5.2,0.5c2,0,3.8-0.2,5-0.5c2-0.9,4.4-2.2,7-3.8c5.4-3.2,12.5-8.8,21.1-16.9
									c8.6-8,15-27.3,19.1-57.7c10.8-31.6,6.1-63.4-12.6-80.1c-10.1-9-22.2-11.8-25.3-12.5
									C-8653.9-492.9-8672.4-486.1-8683.7-477.3z"/>
							</g>
						</g>
						<g>
							<g transform="matrix( 0.3377532958984375, 0, 0, 0.3377532958984375, 3216.95,368.4) ">
								<g>
									<g id="Layer4_0_MEMBER_10_FILL_00000129201591489285532840000010790122121760038072_">
										<path class="st19" d="M-35209.1-2246.1c1.9,0.3,3.7,0.5,5.3,0.7c5.3,0.5,10.7,0.4,16.3-0.4c3.3-0.3,6.6-0.9,10-1.7
											c7.1-1.5,13.9-3.6,20.3-6.2c-3.1-9-10.8-16.4-22.9-22c-2.3-0.9-4.6-1.7-6.9-2.4c-7.8-2.3-15.7-3.1-23.6-2.6
											c-8.2,0.7-16.4,3-24.8,7c-5.8,2.5-9.4,5.2-11,8c3.7,4.7,9.2,8.9,16.5,12.7C-35223.2-2249.6-35216.3-2247.3-35209.1-2246.1
											z"/>
									</g>
								</g>
							</g>
							<g>
								<g transform="matrix( 1.0824432373046875, -0.0170745849609375, 0.0170745849609375, 1.0824432373046875, 5226.3,494.1) ">
									<g transform="matrix( 1, 0, 0, 1, 0,0) ">
										<g>
											<g id="Duplicate_Items_Folder_ch3eye_ball_0_Layer0_0_FILL_00000010270324001619113220000017117624859372969134_">
												<path class="st20" d="M-12817.6-1024.9c0,1.7-0.7,3.1-2,4.2c-1.2,1.2-2.7,1.8-4.4,1.8c-1.7,0-3.1-0.7-4.4-1.9
													c-1.2-1.2-1.8-2.6-1.8-4.3c0-1.7,0.7-3.2,1.9-4.4c0.6-0.6,1.3-1,2-1.3l0.2,0c2.1,0.1,4.1,0.4,6.2,1.1c0,0,0,0,0,0
													c0.1,0.1,0.3,0.2,0.4,0.4C-12818.2-1028.1-12817.6-1026.6-12817.6-1024.9z"/>
											</g>
										</g>
									</g>
									<g transform="matrix( 1.2004852294921875, 0, 0, 1.2004852294921875, -268.9,-88.45) ">
										<g>
											
												<g id="Duplicate_Items_Folder_ch3eye_ball_0_Layer0_0_MEMBER_0_MEMBER_0_FILL_00000033361542635690653460000012139316981909162914_">
												<path class="st21" d="M-10458.2-782.8c-0.7,0-1.4,0.2-1.9,0.7c-0.5,0.5-0.7,1.2-0.7,1.9c0,0.7,0.2,1.4,0.7,1.8
													c0.5,0.5,1.2,0.8,1.9,0.8c0.7,0,1.4-0.2,1.8-0.8c0.5-0.5,0.8-1.1,0.8-1.8c0-0.7-0.2-1.4-0.8-1.9
													C-10456.9-782.5-10457.5-782.8-10458.2-782.8z"/>
											</g>
										</g>
									</g>
									<g transform="matrix( 1.5006103515625, 0, 0, 1.5006103515625, -7.4,7.4) ">
										<g>
											
												<g id="Duplicate_Items_Folder_ch3eye_ball_0_Layer0_0_MEMBER_0_MEMBER_1_FILL_00000130640426767164581220000018012903726035913089_">
												<path class="st19" d="M-8538.5-688.5c0.2-0.1,0.3-0.3,0.3-0.6c0-0.2-0.1-0.4-0.3-0.6c-0.1-0.2-0.3-0.3-0.6-0.3
													c-0.2,0-0.4,0.1-0.6,0.3c-0.2,0.2-0.3,0.4-0.3,0.6c0,0.3,0.1,0.5,0.3,0.6c0.2,0.2,0.4,0.3,0.6,0.3
													C-8538.9-688.2-8538.7-688.3-8538.5-688.5z"/>
											</g>
										</g>
									</g>
								</g>
								<path class="st22" d="M-8693.9-397.9c1.8,1.8,10.4,10,23.1,9.5c5.3-0.2,9.6-1.9,12.2-3.3c0.8,0.2,1.7,0,1.2-1l0-0.1l-0.1,0
									c-0.1-0.1-0.1-0.1-0.1-0.2c-1.4-3.7-3.5-5.8-4.8-7c-5.6-5-14.6-6.1-21.1-2.5c-2.4,1.4-4,3.2-5,4.5c0,0,0,0-0.1,0
									C-8690.2-397.7-8692-397.7-8693.9-397.9z M-8685.7-396.1c0.6-0.7,5.8-6,13.8-5.3c8.6,0.8,12.8,7.8,13.1,8.5
									c-1.5,0.9-7.6,4.3-15.5,2.9C-8680.4-391.2-8684.3-394.7-8685.7-396.1z"/>
							</g>
						</g>
						<g>
							<g transform="matrix( 0.3377532958984375, 0, 0, 0.3377532958984375, 3216.95,368.4) ">
								<g>
									<g id="Layer4_0_MEMBER_10_FILL_00000123438616456386779280000001614775427246620808_">
										<path class="st19" d="M-35061.3-2243.9c-1.9,0.2-3.7,0.4-5.3,0.5c-5.3,0.3-10.7,0-16.3-0.9c-3.3-0.4-6.6-1.1-10-2
											c-7.1-1.7-13.8-4-20.1-6.8c3.4-8.9,11.3-16,23.6-21.2c2.3-0.8,4.6-1.5,7-2.2c7.9-2,15.8-2.6,23.7-1.9
											c8.1,1,16.3,3.5,24.6,7.7c5.7,2.7,9.3,5.5,10.7,8.3c-3.9,4.6-9.5,8.6-16.9,12.2
											C-35047.1-2246.9-35054-2244.8-35061.3-2243.9z"/>
									</g>
								</g>
							</g>
							<g>
								<g transform="matrix( 1.0824432373046875, -0.0170745849609375, 0.0170745849609375, 1.0824432373046875, 5226.3,494.1) ">
									<g transform="matrix( 1, 0, 0, 1, 0,0) ">
										<g>
											<g id="Duplicate_Items_Folder_ch3eye_ball_0_Layer0_0_FILL_00000072261725283188473280000015290005362561416122_">
												<path class="st20" d="M-12788.8-1024c-0.1,1.7,0.5,3.1,1.7,4.3c1.1,1.3,2.6,2,4.3,2.1c1.7,0.1,3.2-0.5,4.5-1.7
													c1.3-1.1,1.9-2.5,2-4.2c0.1-1.7-0.5-3.2-1.6-4.6c-0.6-0.6-1.2-1.1-1.9-1.4l-0.2,0c-2.1-0.1-4.1,0.2-6.3,0.7c0,0,0,0,0,0
													c-0.1,0.1-0.3,0.2-0.4,0.3C-12788.1-1027.1-12788.8-1025.7-12788.8-1024z"/>
											</g>
										</g>
									</g>
									<g transform="matrix( 1.2004852294921875, 0, 0, 1.2004852294921875, -268.9,-88.45) ">
										<g>
											
												<g id="Duplicate_Items_Folder_ch3eye_ball_0_Layer0_0_MEMBER_0_MEMBER_0_FILL_00000098939235545979237360000010828982472005214124_">
												<path class="st21" d="M-10423.7-781.7c0.7,0,1.4,0.3,1.9,0.8c0.4,0.6,0.7,1.2,0.6,2c0,0.7-0.3,1.3-0.8,1.8
													c-0.6,0.5-1.2,0.8-2,0.7c-0.7,0-1.3-0.3-1.8-0.9c-0.5-0.5-0.8-1.1-0.7-1.9c0-0.7,0.3-1.4,0.9-1.9
													C-10425.1-781.5-10424.5-781.7-10423.7-781.7z"/>
											</g>
										</g>
									</g>
									<g transform="matrix( 1.5006103515625, 0, 0, 1.5006103515625, -7.4,7.4) ">
										<g>
											
												<g id="Duplicate_Items_Folder_ch3eye_ball_0_Layer0_0_MEMBER_0_MEMBER_1_FILL_00000024702016433028467420000010914401325310058143_">
												<path class="st19" d="M-8515.6-687.8c-0.2-0.1-0.3-0.4-0.2-0.6c0-0.2,0.1-0.4,0.3-0.6c0.1-0.2,0.4-0.3,0.6-0.2
													c0.2,0,0.4,0.1,0.6,0.3c0.2,0.2,0.3,0.4,0.2,0.6c0,0.3-0.1,0.5-0.3,0.6c-0.2,0.2-0.4,0.3-0.6,0.2
													C-8515.3-687.5-8515.5-687.6-8515.6-687.8z"/>
											</g>
										</g>
									</g>
								</g>
								<path class="st22" d="M-8611.4-396.8C-8611.4-396.8-8611.5-396.8-8611.4-396.8c-1-1.3-2.5-3.2-4.9-4.6
									c-6.4-3.9-15.3-3-21.1,1.8c-1.3,1.1-3.4,3.2-5,6.8c0,0.1,0,0.1-0.1,0.2l-0.1,0l0,0.1c-0.6,1,0.3,1.2,1.2,1
									c2.6,1.5,6.8,3.3,12.1,3.7c12.6,0.9,21.5-7.1,23.4-8.8C-8607.9-396.4-8609.7-396.5-8611.4-396.8z M-8625.8-389.3
									c-7.9,1.2-13.9-2.4-15.4-3.3c0.4-0.6,4.8-7.6,13.4-8.1c8-0.5,13,5,13.6,5.7C-8615.7-393.6-8619.7-390.2-8625.8-389.3z"/>
							</g>
						</g>
					</g>
					<g transform="matrix( 0.3377532958984375, 0, 0, 0.3377532958984375, 3216.95,368.4) ">
						<g>
							<g id="Layer4_0_MEMBER_8_FILL_00000014623549875979499620000008807400951876845963_">
								<path class="st18" d="M-8650.5-362.6c0.4,0.2,1.7,0.6,3.4,0.4c3.3-0.4,5.9-3,5.6-3.5c-0.3-0.5-2.7,1.5-6.7,1.3
									c-3.5-0.2-5.6-1.9-6-1.4C-8654.4-365.4-8652.7-363.4-8650.5-362.6z"/>
							</g>
						</g>
					</g>
					<g transform="matrix( 0.337677001953125, 0, 0, 0.337677001953125, 3216.95,368.4) ">
						<g>
							<g id="Layer4_0_MEMBER_10_MEMBER_1_FILL_00000126290842517635152860000004155380986349584812_">
								<path class="st23" d="M-8659-392.9L-8659-392.9L-8659-392.9L-8659-392.9c-0.1,0-0.1,0.1,0,0.1
									C-8659-392.8-8659-392.8-8659-392.9z"/>
							</g>
						</g>
					</g>
					<g transform="matrix( 1.1208038330078125, -0.013397216796875, 0.0169830322265625, 1.078460693359375, 4974.4,418.95) ">
						<g>
							<g id="Layer4_0_MEMBER_10_MEMBER_2_FILL_00000168824917895549926300000008339576549588538043_">
								<path d="M-4173.6-226.9c0,0,0.4-0.4,0.3-0.9c0-0.1-0.1-0.2-0.2-0.3c-1.7-0.9-3.2-1.3-4.3-1.5c-1-0.2-2-0.4-3.4-0.1
									c-1.9,0.3-3.3,1.2-4.1,1.9c1-0.3,2.3-0.5,3.7-0.6C-4178.1-228.6-4175.3-227.6-4173.6-226.9z"/>
							</g>
						</g>
					</g>
					<g transform="matrix( 1.1208038330078125, -0.013397216796875, 0.0169830322265625, 1.078460693359375, 4974.4,418.95) ">
						<g>
							<g id="Layer4_0_MEMBER_10_MEMBER_2_FILL_00000164511220392763746760000011151219556943231872_">
								<path d="M-4168.4-226.8c0,0-0.4-0.4-0.2-0.9c0-0.1,0.1-0.2,0.2-0.3c1.7-0.8,3.2-1.2,4.3-1.4c1-0.2,2.1-0.3,3.4-0.1
									c1.9,0.3,3.2,1.3,4.1,2c-1-0.3-2.3-0.6-3.7-0.7C-4163.8-228.4-4166.6-227.5-4168.4-226.8z"/>
							</g>
						</g>
					</g>
					<g transform="matrix( 0.337677001953125, 0, 0, 0.3437042236328125, 3216.95,364.85) ">
						<g>
							<g id="Layer4_0_MEMBER_13_MEMBER_0_FILL_00000178909735094748109440000004920712125252307878_">
								<path class="st24" d="M-8748.5-177.6c-0.3-0.5-0.6-0.9-0.8-1.3c4,8.1,8.7,16.6,14.3,25.5c1.3,2.8,2.5,5.7,3.6,8.5
									c12,19.5,36.5,25.5,73.7,18.1c39.9,12.9,69.6,7.6,89.2-16c1.3-3.5,2.8-7,4.3-10.6c3.4-5.4,6.4-10.6,9.2-15.7
									c-0.4,0.5-0.8,0.9-1.3,1.4c-7.1,7.4-15.5,12.4-25.4,15c-10.8,2.9-25.4,2.7-43.7-0.5c-15.8-2.3-22.4-3.4-19.9-3.2
									c-5.8-0.5-14.3-0.6-25.6-0.3c-11.4,0.3-21,0.9-28.8,1.6c-7.8,0.8-15,0.2-21.8-1.7C-8732.5-159.8-8741.5-166.7-8748.5-177.6
									 M-8650-157.3c-0.1,0-0.2,0-0.3,0l0.1,0c0.5,0.1,1,0.1,1.6,0.2c0.1,0,0.2,0,0.4,0c-0.4-0.1-0.8-0.2-1.2-0.2
									c-0.1,0-0.1,0-0.2,0C-8649.8-157.3-8649.9-157.3-8650-157.3z"/>
								<path class="st16" d="M-8590.2-279.5c-0.3-0.2-0.8-0.4-1.5-0.8c-3.4-1.8-6-3-6.6-3.2c-2.1-1-5.8-2.9-13.1-7.1
									c1.2,6.6,2.7,20.6-3.7,36c-3.3,7.8-7.6,13.7-11.1,17.7c-4.9,2.1-15.4,5.8-28.7,4.3c-9.2-1-16.3-4.1-20.5-6.5
									c-3.6-5.1-8.1-12.2-11.1-21.5c-2.7-8.2-4.4-17.5-5-27.7c-4.5,1.7-9,3.8-13.5,6.2c2-0.8-11.8,5.8-19.8,9.7
									c-3.1,1.5-6.3,2.7-9.6,3.6c-9,2.4-19.4,6.6-22.3,11.7c-13.1,22.7,0.5,57.7,8.5,79.6c12.7,34.9,22.8,87,9.9,161.6
									c10.2,5.2,48.8,23.4,97.7,12.5c45.4-10.1,80.5-35.8,88.2-45c-8.2-35.7-5.2-66.4-1-84.4c4.6-19.6,1.1-24.9,10-59.7
									c12.1-46.9,8-58.6,2-64.6c-2.6-2.6-10.4-5.9-26.1-12.5C-8575.4-272.9-8582.9-275.6-8590.2-279.5z M-8650.3-157.3
									c0.6,0,1.4,0.1,2,0.2C-8649-157.2-8649.7-157.2-8650.3-157.3z"/>
							</g>
						</g>
					</g>
					<g transform="matrix( 0.337677001953125, 0, 0, 0.3437042236328125, 3216.95,364.85) ">
						<g>
							<g id="Layer4_0_MEMBER_13_MEMBER_1_FILL_00000176044434999032709390000010294394659499554207_">
								<path class="st25" d="M-8550.1-17.4c-1.8-6.6-3.9-13.3-6.2-20.3c-2-6-4.1-11.8-6.2-17.4c-6.1,4.2-12.1,8.3-18.2,12.5
									c-5.5,20.7-11,41.5-16.6,62.2C-8581.5,7.3-8565.8-5.1-8550.1-17.4z"/>
								<g>
									<path class="st26" d="M-8579-275.2c0.2-0.5,0.5-0.9,0.8-1.4v0c0-0.1,0.1-0.1,0.1-0.2c0,0,0,0,0-0.1l0,0
										c-0.6,0.7-1.2,1.5-1.7,2.2c0.5-0.6,1-1.2,1.5-1.8C-8578.6-276-8578.8-275.6-8579-275.2z"/>
								</g>
							</g>
						</g>
					</g>
					<g transform="matrix( 0.3376007080078125, 0, 0, 0.3436279296875, 3216.95,364.85) ">
						<g>
							<g id="Layer4_0_MEMBER_13_MEMBER_1_MEMBER_4_FILL_00000075879498829261244190000002235308745096716975_">
								<path class="st27" d="M-8583.3-28.2c23.8-78.3,47.6-156.6,71.5-234.9l-45.9-10.3c-13.9,38.3-27.8,76.6-41.7,114.9
									c-15.9,43.6-31.8,87.1-47.8,130.7C-8626-27.4-8604.7-27.6-8583.3-28.2z"/>
								<path class="st28" d="M-8734.6-105.7c0.1,10.5-0.7,23.4-3.6,37.9c-2.3,11-5.3,20.6-8.4,28.7c33.8,1.8,67.6,3.9,101.5,5.2
									c15.2-41.5,30.4-83.1,45.5-124.6c13.9-38.3,27.8-76.6,41.7-114.9c-7.4-2.5-14.8-5-22.2-7.5c-27.9,22.2-56,44.9-84.3,68.1
									c-27.3,22.4-54.1,44.8-80.4,67.1l8.3,32.7L-8734.6-105.7z"/>
								<path class="st27" d="M-8580.7-277.1l-9.1-1.1c-70.1,32.3-123.4,63.8-160.1,94.6l5.1,37.9
									C-8692.2-191.4-8637.5-235.2-8580.7-277.1z"/>
							</g>
						</g>
					</g>
					<g>
						<path d="M322.9,236.9c0.1-4.8-0.4-15.7-7.7-25.6c-2.8-3.8-7.6-9.7-15.7-11.4c-3-0.6-7.4-0.4-10.3,1.2c0,0,0,0.1-0.1,0.1
							c0,0.1,0,0.1-0.1,0.2c-0.3-0.1-0.7-0.1-1-0.1c0,0,0,0,0,0c-5.6-0.4-10.5,4.1-13.4,8.8c-7,11.6-6.9,34.9,2.7,44
							c0,0,0.1,0.1,0.1,0.1c2.9,3.6,3.9,4.4,6.5,8.4c0.5-1,1-2.4,1.3-4.2c0.2-1.5,0.2-2.8,0.1-3.7c-3.1-2.5-4.7-6.8-5.1-9.6
							c-0.1,0-0.2-0.1-0.4-0.1c-0.2-0.1-0.4-0.3-0.7-0.6c-1.3-1.4-2.3-3.2-3-5.6c-0.1-0.4-0.2-0.9-0.3-1.3c0.2-0.2,0.4-0.5,0.7-0.7
							c1.6-1.1,2.7-3.1,2.2-5.1c-0.2-4.1,0.5-8,2.4-11.5c1-1.8,2.2-3.4,3.7-4.7c0.7-0.6,1.3-1,2-1.2c0.3-0.1,0.5-0.1,0.7-0.1
							c5.2-1.1,9.2,3.2,11.5,7.7l0.9,2.2c0.1,0.3,1.3,2.4,1.4,2.7l0,0l0,0l0.4,0.6c0.3,0.5,0.6,0.8,0.8,1.2l1,1.3
							c1.9,3,4.6,5.7,7.4,7.1c0.8,0.4,2,0.9,3,1.2l2.6,1c0.2,0.1,0.5,0.1,0.7,0.2l1.3,0.3h0c0.1,0,0.1,0.1,0.2,0.1
							c1.8,0.9,3,1.9,3.2,2c1.2,1,1,4.9-0.5,9.3c0.8-0.6,2.7-2.4,3.4-5.3C326.2,241.2,323.3,237.4,322.9,236.9z"/>
					</g>
					<g>
						<g transform="matrix( 0.3376922607421875, 0, 0, 0.3376922607421875, 3216.95,368.4) ">
							<g>
								<g id="Layer4_0_MEMBER_14_MEMBER_0_MEMBER_2_FILL_00000062151035587908079720000009334677827015585191_">
									<path class="st29" d="M-8632.8-443.5c2.5,18.9,14.9,37.7,32.7,48.8C-8616.2-407.4-8628-424.9-8632.8-443.5
										C-8632.9-443.5-8632.9-443.5-8632.8-443.5z"/>
								</g>
							</g>
						</g>
					</g>
					<g transform="matrix( 0.3377532958984375, 0, 0, 0.3377532958984375, 3217.2,368.05) ">
						<g>
							<g id="Layer4_0_MEMBER_15_FILL_00000116231774470911344700000008171355249296722826_">
								<path class="st30" d="M-8652.4-416.5c-0.6,0.6-1,1.4-1,2.3c0,0.9,0.3,1.7,1,2.3c0.6,0.6,1.4,1,2.3,1s1.7-0.3,2.3-1
									c0.6-0.6,1-1.4,1-2.3c0-0.9-0.3-1.7-1-2.3c-0.6-0.6-1.4-1-2.3-1S-8651.7-417.1-8652.4-416.5z"/>
							</g>
						</g>
					</g>
					<g>
						<path class="st31" d="M280.1,246.3c0,0.5-0.2,0.8-0.4,1c-0.5,0.5-1.3,0.4-1.7-0.1c-0.2-0.2-0.3-0.5-0.3-0.9c0-0.1,0-0.2,0-0.3
							c0.2-0.9,0.5-1.9,1.2-2.8c0,0,0,0,0,0c0.6,0.9,1,1.8,1.1,2.7C280.1,246.1,280.1,246.2,280.1,246.3z"/>
						<path class="st32" d="M280.6,245.8c0-0.2-0.1-0.4-0.2-0.6c-0.4-1.2-0.9-2.2-1.5-3.2c-0.7,1.1-1.3,2.2-1.6,3.5
							c0,0.1-0.1,0.2-0.1,0.3c-0.4,2.1,0.2,3.1,1.7,3.1c1.2,0,1.8-0.7,1.8-1.9C280.7,246.6,280.7,246.3,280.6,245.8z M279.8,247.2
							c-0.5,0.6-1.4,0.6-1.8,0c0,0,0,0,0,0c-0.3-0.4-0.3-0.7-0.3-0.9c0-0.1,0-0.2,0-0.3c0.2-0.9,0.5-1.9,1.2-2.8l0-0.2v0.2
							c0,0,0,0,0,0c0.6,0.9,1,1.8,1.1,2.7c0,0.1,0,0.2,0.1,0.3C280.1,246.7,280,247,279.8,247.2z"/>
					</g>
					<g>
						<path class="st31" d="M313,248.5c0,0.5-0.2,0.8-0.4,1c-0.5,0.5-1.3,0.4-1.7-0.1c-0.2-0.2-0.3-0.5-0.3-0.9c0-0.1,0-0.2,0-0.3
							c0.2-0.9,0.5-1.9,1.2-2.8c0,0,0,0,0,0c0.6,0.9,1,1.8,1.1,2.7C313,248.3,313,248.4,313,248.5z"/>
						<path class="st32" d="M313.5,248c0-0.2-0.1-0.4-0.2-0.6c-0.4-1.2-0.9-2.2-1.5-3.2c-0.7,1.1-1.3,2.2-1.6,3.5
							c0,0.1-0.1,0.2-0.1,0.3c-0.4,2.1,0.2,3.1,1.7,3.1c1.2,0,1.8-0.7,1.8-1.9C313.7,248.8,313.6,248.5,313.5,248z M312.7,249.4
							c-0.5,0.6-1.4,0.6-1.8,0c0,0,0,0,0,0c-0.3-0.4-0.3-0.7-0.3-0.9c0-0.1,0-0.2,0-0.3c0.2-0.9,0.5-1.9,1.2-2.8l0-0.2v0.2
							c0,0,0,0,0,0c0.6,0.9,1,1.8,1.1,2.7c0,0.1,0,0.2,0.1,0.3C313,248.9,312.9,249.2,312.7,249.4z"/>
					</g>
					<path d="M318.4,256c1.8,7.9,3.3,17.6,3.5,28.5c0.4,20.5-3.7,37.4-7.6,49c-1.5-3.1-3.6-8.3-4.1-14.9c-0.4-5.5,0.3-10,1.1-13.1
						c-1,4.1-1.8,8.9-1.9,14.3c0,1.8,0,3.5,0.1,5.1c-2-5.2-4-11.8-4.9-19.6c-2.1-18.8,3.4-33.9,6.9-41.6
						C313.8,261.1,316.1,258.6,318.4,256z"/>
					<g transform="matrix( 1, 0, 0, 1, 0,0) ">
						<g>
							<g id="Layer5_48_MEMBER_2_FILL_00000036959834588448068410000000619115202310579889_">
								<path class="st33" d="M296.1,250.3c-5.2,0-5.4,0.1-5.4,0.3c-0.1,0.5,2.5,1.7,5.2,1.7c2.8,0,5.4-1.3,5.3-1.8
									C301.1,250.4,300.8,250.3,296.1,250.3z"/>
							</g>
						</g>
					</g>
					<path class="st29" d="M290.3,209.9c1.9,0.5,4.5,1.6,6.7,3.7c2.4,2.3,2.4,4,4.6,8.5c2.2,4.4,5,10.1,10.4,13.3
						c2.8,1.7,5.8,2.4,6,2.1c0.1-0.3-2.8-1.2-5.5-3.7c-2.4-2.3-2.6-4.2-5.7-11.5c-2-4.7-3-7-4-8.1
						C301.3,212.6,297.9,209.9,290.3,209.9z"/>
				</g>
			</g>
		</g>
		
			<linearGradient id="SVGID_00000071540319606110101670000008523480722495213242_" gradientUnits="userSpaceOnUse" x1="276.0884" y1="254.7967" x2="276.0884" y2="254.7967">
			<stop  offset="0" style="stop-color:#E66C42"/>
			<stop  offset="0.9944" style="stop-color:#AD2545"/>
		</linearGradient>
		<path style="fill:url(#SVGID_00000071540319606110101670000008523480722495213242_);" d="M276.1,254.8"/>
		<g>
			<g>
				<g transform="matrix( 0.3377532958984375, 0, 0, 0.3377532958984375, 3290.05,391.6) ">
					<g>
						<g id="Layer4_0_MEMBER_3_FILL_00000046299118628009181810000009707827988726161810_">
							<path class="st6" d="M-8898.9,170.7v6.1c-1.3,3.9-3,7.8-5.1,11.6c-3.3,8-6,14.6-8.2,19.8c-1.6,3.4-3,6.9-4.1,10.4
								c-0.4,0.8-0.7,1.6-1,2.5c0,0.5,0,1-0.1,1.5c-0.5,3.6-0.8,13.8,3.8,20.3c6.3,8.9,20.1,8.2,22.5,8c11.5-0.9,18.9-8.4,21.1-10.9
								c1.3-1.4,2.2-2.7,2.7-3.6c0.2-2.9,0.5-6.4,0.7-10.6c0.2-3.3,0.6-9.8,0.5-17.9c-0.1-7.5-0.3-14.8-0.7-21.8
								c-0.2-5.1-0.3-8.1-0.3-9V177h-0.1c0.1-2.3,0.2-4.8,0.1-7.4C-8873.2,160.9-8883.8,161.2-8898.9,170.7z"/>
						</g>
					</g>
				</g>
				<path class="st35" d="M278.2,484.8c1.3,1.7,3.6,2.2,6.8,1.5c1.8-0.5,3.4-1.4,4.7-2.9c1.3-1.5,2.2-2.9,2.9-4.3
					c1.5-3.1,2.3-5.5,2.5-7.2c-0.3,1.7-1.1,3.9-2.4,6.6c-0.7,1.4-1.6,2.8-2.9,4.3c-1.3,1.4-2.8,2.4-4.7,2.9
					c-3.2,0.7-5.5,0.2-6.8-1.5c-1.6-2.2-2.3-4.9-2.1-8.2C275.9,479.6,276.6,482.5,278.2,484.8z"/>
				<path class="st36" d="M278.3,466.8L278.3,466.8c-0.4,1.1-0.9,2.6-1.4,4.6c-0.1,0.5-0.3,1.1-0.3,1.7c-0.1,0.5-0.2,1-0.2,1.5
					l-0.1,1.4c-0.1,3.3,0.6,6,2.1,8.2c1.3,1.7,3.6,2.2,6.8,1.5c1.8-0.5,3.4-1.4,4.7-2.9c1.3-1.5,2.2-2.9,2.9-4.3
					c1.3-2.8,2.1-5,2.4-6.6c0-0.2,0-0.5,0-0.7c-0.2,0.3-0.5,0.6-0.8,0.9c-2.4,2.6-5.2,3.9-8.2,3.8c-0.7,0-1.4-0.1-2-0.2
					C279.5,475.2,277.5,472.1,278.3,466.8z"/>
				<g transform="matrix( 0.337738037109375, 0, 0, 0.337738037109375, 3216.95,391.6) ">
					<g>
						<g id="Layer4_0_MEMBER_4_MEMBER_0_FILL_00000059993118109974286510000000372334439084332720_">
							<path class="st6" d="M-8624.4,173.8L-8624.4,173.8c0,1-0.1,4-0.3,9.1c-0.4,7-0.6,14.3-0.7,21.8c-0.1,7.5,0.1,13.5,0.5,17.9
								c0.5,4.3,0.7,6.7,0.7,7c0.1,0.5,0.2,1.1,0.3,1.7c0.1,0.1,0.1,0.1,0.1,0.2c0,0.2,0,0.4,0,0.6c0,0.3,0,0.5,0,0.8
								c0.3,0.3,0.5,0.7,0.8,1c0,0,0.7,0.9,1.5,1.7c13.5,14.7,30.1,12.7,30.1,12.7c3.3-0.4,10.2-1.3,15-7c5.1-6.2,4.4-14.1,4.2-15.9
								c-0.3-3.2-1.2-5.8-1.9-7.5c-0.3-0.9-0.6-1.7-1-2.5c-1.1-3.5-2.5-7-4.1-10.4c-2.2-5.3-4.9-11.9-8.2-19.8
								c-2.1-3.8-3.8-7.7-5.1-11.6v-6.1c-15.2-9.5-25.8-9.8-31.8-1.1c0,1.2,0,2.5,0,3.8C-8624.4,171.4-8624.4,172.6-8624.4,173.8z"
								/>
						</g>
					</g>
				</g>
				<path class="st35" d="M321.5,483.9c-1.3,1.7-3.6,2.2-6.8,1.5c-1.8-0.5-3.4-1.4-4.7-2.9c-1.3-1.5-2.2-2.9-2.9-4.3
					c-1.5-3.1-2.3-5.5-2.5-7.2c0.3,1.7,1.1,3.9,2.4,6.6c0.7,1.4,1.6,2.8,2.9,4.3c1.3,1.4,2.8,2.4,4.7,2.9c3.2,0.7,5.5,0.2,6.8-1.5
					c1.6-2.2,2.3-4.9,2.1-8.2C323.8,478.7,323.1,481.6,321.5,483.9z"/>
				<path class="st36" d="M321.4,465.9L321.4,465.9c0.4,1.1,0.9,2.6,1.4,4.6c0.1,0.5,0.3,1.1,0.3,1.7c0.1,0.5,0.2,1,0.2,1.5l0.1,1.4
					c0.1,3.3-0.6,6-2.1,8.2c-1.3,1.7-3.6,2.2-6.8,1.5c-1.8-0.5-3.4-1.4-4.7-2.9c-1.3-1.5-2.2-2.9-2.9-4.3c-1.3-2.8-2.1-5-2.4-6.6
					c0-0.2,0-0.5,0-0.7c0.2,0.3,0.5,0.6,0.8,0.9c2.4,2.6,5.2,3.9,8.2,3.8c0.7,0,1.4-0.1,2-0.2C320.2,474.3,322.2,471.2,321.4,465.9z
					"/>
			</g>
			<path class="st16" d="M346.8,456.8c-0.6,0.2-1.4,0.5-2.4,0.7c-1.1,0.2-1.9,0.3-2.5,0.4c-3,0.3-7.1,0.5-7.8,0.5
				c0,0.5,2.4,4.2-34,4.7c-12.2,0.2-25.1-0.2-34.4-1.2c-0.9-0.1-2-0.5-3-1.1c-1.5-0.8-2.8-2-3.1-2.8c-1.5-0.2-3.1-0.5-4.8-1
				c-4.2-1.1-7.7-2.6-10.4-4.1c7.2-36.5,8.9-63.3,9-82.3c0-7.8-0.2-20,8.4-27.9c8-7.3,19.5-7.1,35.8-6.9c16.2,0.2,28.2,0.4,36.3,8.2
				c7.9,7.7,8,18.7,8.1,25.2C342.2,392,343.7,419.7,346.8,456.8z"/>
		</g>
	</g>
	<path class="st27" d="M290.2,447c-3.7,1.1-15.8,4.1-28.7-1.8c-6.9-3.1-11.4-7.6-14-10.6c-1.3,6.1-2.3,12-3.6,18.1
		c3.4,3.2,9.8,8.5,19.2,11.7c11.6,4,21.6,2.9,26.4,2c2.6,1.4,10.7,5.2,20.9,3.5c7.1-1.2,12.1-4.6,14.5-6.5c1.9,0.5,7.3,1.6,13.4-0.8
		c4.5-1.8,7.2-4.7,8.5-6.2c-0.5-6-0.9-12-1.4-18c-1.4,1.6-4.2,4.4-8.5,6.2c-6.3,2.6-11.9,1.7-14,1.2c-2.4,1.6-8.2,4.9-16.4,5.1
		C298.6,451.2,292.7,448.4,290.2,447z"/>
	<path class="st28" d="M288.3,335.8c-6.2,10.4-11.3,19.5-15.3,26.7c-11.9,21.5-19.5,37.1-21.2,40.6c-2.8,5.8-5.1,10.6-6.6,13.9
		c-0.1-6.5-0.1-12.9-0.2-19.4c0.7-10.4,1.6-19.2,2.5-26c1.4-11.2,2.4-15.2,4.9-19.5c1.2-2.1,4.7-8.1,12-12.5
		C274.7,333.5,285.2,335.2,288.3,335.8z"/>
	<path class="st27" d="M299,336c-2.8,2.4-6.9,6.2-11.1,11.4c-3.7,4.5-7.2,9.8-16.9,30c-7.6,15.8-8.6,19.1-13.4,25.7
		c-4.6,6.3-9.2,10.9-12.4,13.8c-0.1-6.5-0.1-12.9-0.2-19.4c8.2-8.8,13.3-16.8,16.4-22.6c1.6-3,1.2-2.6,5.5-11
		c6.9-13.3,9.5-17.5,13.3-21.5c2.9-3.1,5.7-5.3,7.4-6.5C291.4,336,295.2,336,299,336z"/>
	<path class="st37" d="M245.2,417c0.3,0.4,0.7,0.9,1,1.3c1.3,1.7,2.3,3.4,3.2,5.1c0.3-2.3,0.6-4.7,0.9-7.1c0.2-1.6,0.4-3.3,0.6-4.9
		C249,413.2,247.1,415.1,245.2,417z"/>
</g>
</svg>
