<?xml version="1.0" encoding="utf-8"?>
<!-- Generator: Adobe Illustrator 16.0.0, SVG Export Plug-In . SVG Version: 6.00 Build 0)  -->
<!DOCTYPE svg PUBLIC "-//W3C//DTD SVG 1.1//EN" "http://www.w3.org/Graphics/SVG/1.1/DTD/svg11.dtd">
<svg version="1.1" xmlns="http://www.w3.org/2000/svg" xmlns:xlink="http://www.w3.org/1999/xlink" x="0px" y="0px" width="500px"
	 height="500px" viewBox="0 0 500 500" enable-background="new 0 0 500 500" xml:space="preserve">
<g id="BACKGROUND">
	<rect fill="#FFF4E1" width="500" height="500"/>
	<g>
		<g>
			<g>
				<g>
					<g>
						<circle fill="#F2DCBD" cx="462.813" cy="20.251" r="3.049"/>
						<rect x="454.779" y="16.206" fill="#F2DCBD" width="2.099" height="8.092"/>
						<rect x="448.582" y="16.206" fill="#F2DCBD" width="4.799" height="8.092"/>
						<circle fill="#F2DCBD" cx="441.531" cy="20.251" r="3.049"/>
						<rect x="433.498" y="16.206" fill="#F2DCBD" width="2.098" height="8.092"/>
						<rect x="427.301" y="16.206" fill="#F2DCBD" width="4.799" height="8.092"/>
						<circle fill="#F2DCBD" cx="420.25" cy="20.251" r="3.049"/>
						<rect x="412.217" y="16.206" fill="#F2DCBD" width="2.099" height="8.092"/>
						<rect x="406.02" y="16.206" fill="#F2DCBD" width="4.799" height="8.092"/>
						<circle fill="#F2DCBD" cx="398.969" cy="20.251" r="3.049"/>
						<rect x="390.936" y="16.206" fill="#F2DCBD" width="2.099" height="8.092"/>
						<rect x="384.738" y="16.206" fill="#F2DCBD" width="4.799" height="8.092"/>
						<circle fill="#F2DCBD" cx="377.688" cy="20.251" r="3.049"/>
						<rect x="369.654" y="16.206" fill="#F2DCBD" width="2.099" height="8.092"/>
						<rect x="363.457" y="16.206" fill="#F2DCBD" width="4.799" height="8.092"/>
						<circle fill="#F2DCBD" cx="356.406" cy="20.251" r="3.049"/>
						<rect x="348.373" y="16.206" fill="#F2DCBD" width="2.099" height="8.092"/>
						<rect x="342.176" y="16.206" fill="#F2DCBD" width="4.799" height="8.092"/>
						<circle fill="#F2DCBD" cx="335.125" cy="20.251" r="3.049"/>
						<rect x="327.092" y="16.206" fill="#F2DCBD" width="2.099" height="8.092"/>
						<rect x="320.895" y="16.206" fill="#F2DCBD" width="4.799" height="8.092"/>
						<circle fill="#F2DCBD" cx="313.844" cy="20.251" r="3.049"/>
						<rect x="305.811" y="16.206" fill="#F2DCBD" width="2.099" height="8.092"/>
						<rect x="299.613" y="16.206" fill="#F2DCBD" width="4.799" height="8.092"/>
						<circle fill="#F2DCBD" cx="292.563" cy="20.251" r="3.049"/>
						<rect x="284.529" y="16.206" fill="#F2DCBD" width="2.099" height="8.092"/>
						<rect x="278.332" y="16.206" fill="#F2DCBD" width="4.799" height="8.092"/>
						<circle fill="#F2DCBD" cx="271.281" cy="20.251" r="3.049"/>
						<rect x="263.248" y="16.206" fill="#F2DCBD" width="2.099" height="8.092"/>
						<rect x="257.051" y="16.206" fill="#F2DCBD" width="4.799" height="8.092"/>
						<circle fill="#F2DCBD" cx="250" cy="20.251" r="3.049"/>
						<rect x="241.967" y="16.206" fill="#F2DCBD" width="2.098" height="8.092"/>
						<rect x="235.77" y="16.206" fill="#F2DCBD" width="4.799" height="8.092"/>
						<circle fill="#F2DCBD" cx="228.719" cy="20.251" r="3.049"/>
						<rect x="220.686" y="16.206" fill="#F2DCBD" width="2.098" height="8.092"/>
						<rect x="214.488" y="16.206" fill="#F2DCBD" width="4.799" height="8.092"/>
						<circle fill="#F2DCBD" cx="207.438" cy="20.251" r="3.049"/>
						<rect x="199.405" y="16.206" fill="#F2DCBD" width="2.098" height="8.092"/>
						<rect x="193.207" y="16.206" fill="#F2DCBD" width="4.799" height="8.092"/>
						<circle fill="#F2DCBD" cx="186.156" cy="20.251" r="3.049"/>
						<rect x="178.124" y="16.206" fill="#F2DCBD" width="2.098" height="8.092"/>
						<rect x="171.926" y="16.206" fill="#F2DCBD" width="4.799" height="8.092"/>
						<circle fill="#F2DCBD" cx="164.875" cy="20.251" r="3.049"/>
						<rect x="156.842" y="16.206" fill="#F2DCBD" width="2.098" height="8.092"/>
						<rect x="150.645" y="16.206" fill="#F2DCBD" width="4.799" height="8.092"/>
						<circle fill="#F2DCBD" cx="143.594" cy="20.251" r="3.049"/>
						<rect x="135.561" y="16.206" fill="#F2DCBD" width="2.098" height="8.092"/>
						<rect x="129.363" y="16.206" fill="#F2DCBD" width="4.799" height="8.092"/>
						<circle fill="#F2DCBD" cx="122.313" cy="20.251" r="3.049"/>
						<rect x="114.28" y="16.206" fill="#F2DCBD" width="2.098" height="8.092"/>
						<rect x="108.082" y="16.206" fill="#F2DCBD" width="4.799" height="8.092"/>
						<circle fill="#F2DCBD" cx="101.031" cy="20.251" r="3.049"/>
						<rect x="92.999" y="16.206" fill="#F2DCBD" width="2.098" height="8.092"/>
						<rect x="86.801" y="16.206" fill="#F2DCBD" width="4.799" height="8.092"/>
						<circle fill="#F2DCBD" cx="79.75" cy="20.251" r="3.049"/>
						<rect x="71.717" y="16.206" fill="#F2DCBD" width="2.098" height="8.092"/>
						<rect x="65.52" y="16.206" fill="#F2DCBD" width="4.799" height="8.092"/>
						<circle fill="#F2DCBD" cx="58.469" cy="20.251" r="3.049"/>
						<rect x="50.436" y="16.206" fill="#F2DCBD" width="2.098" height="8.092"/>
						<rect x="44.238" y="16.206" fill="#F2DCBD" width="4.799" height="8.092"/>
						<circle fill="#F2DCBD" cx="37.188" cy="20.251" r="3.049"/>
					</g>
				</g>
				<g>
					<g>
						<path fill="#F2DCBD" d="M480.935,19.681c0,0,1.1,6.617-2.303,10.02c-3.403,3.403-10.021,2.303-10.021,2.303
							s-1.101-6.618,2.303-10.021S480.935,19.681,480.935,19.681z"/>
						<path fill="#FFF4E1" d="M477.344,23.271c0,0,0.459,2.761-0.961,4.181c-1.42,1.419-4.181,0.96-4.181,0.96
							s-0.459-2.761,0.961-4.18C474.583,22.813,477.344,23.271,477.344,23.271z"/>
					</g>
					<g>
						<path fill="#F2DCBD" d="M19.066,19.681c0,0-1.101,6.617,2.303,10.02c3.403,3.403,10.02,2.303,10.02,2.303
							s1.1-6.618-2.303-10.021S19.066,19.681,19.066,19.681z"/>
						<path fill="#FFF4E1" d="M22.657,23.271c0,0-0.459,2.761,0.96,4.181c1.42,1.419,4.181,0.96,4.181,0.96s0.459-2.761-0.961-4.18
							C25.417,22.813,22.657,23.271,22.657,23.271z"/>
					</g>
				</g>
			</g>
			<g>
				<g>
					<g>
						<circle fill="#F2DCBD" cx="462.813" cy="479.749" r="3.049"/>
						<rect x="454.779" y="475.702" fill="#F2DCBD" width="2.099" height="8.093"/>
						<rect x="448.582" y="475.702" fill="#F2DCBD" width="4.799" height="8.093"/>
						<circle fill="#F2DCBD" cx="441.531" cy="479.749" r="3.049"/>
						<rect x="433.498" y="475.702" fill="#F2DCBD" width="2.098" height="8.093"/>
						<rect x="427.301" y="475.702" fill="#F2DCBD" width="4.799" height="8.093"/>
						<circle fill="#F2DCBD" cx="420.25" cy="479.749" r="3.049"/>
						<rect x="412.217" y="475.702" fill="#F2DCBD" width="2.099" height="8.093"/>
						<rect x="406.02" y="475.702" fill="#F2DCBD" width="4.799" height="8.093"/>
						<circle fill="#F2DCBD" cx="398.969" cy="479.749" r="3.049"/>
						<rect x="390.936" y="475.702" fill="#F2DCBD" width="2.099" height="8.093"/>
						<rect x="384.738" y="475.702" fill="#F2DCBD" width="4.799" height="8.093"/>
						<circle fill="#F2DCBD" cx="377.688" cy="479.749" r="3.049"/>
						<rect x="369.654" y="475.702" fill="#F2DCBD" width="2.099" height="8.093"/>
						<rect x="363.457" y="475.702" fill="#F2DCBD" width="4.799" height="8.093"/>
						<circle fill="#F2DCBD" cx="356.406" cy="479.749" r="3.049"/>
						<rect x="348.373" y="475.702" fill="#F2DCBD" width="2.099" height="8.093"/>
						<rect x="342.176" y="475.702" fill="#F2DCBD" width="4.799" height="8.093"/>
						<circle fill="#F2DCBD" cx="335.125" cy="479.749" r="3.049"/>
						<rect x="327.092" y="475.702" fill="#F2DCBD" width="2.099" height="8.093"/>
						<rect x="320.895" y="475.702" fill="#F2DCBD" width="4.799" height="8.093"/>
						<circle fill="#F2DCBD" cx="313.844" cy="479.749" r="3.049"/>
						<rect x="305.811" y="475.702" fill="#F2DCBD" width="2.099" height="8.093"/>
						<rect x="299.613" y="475.702" fill="#F2DCBD" width="4.799" height="8.093"/>
						<circle fill="#F2DCBD" cx="292.563" cy="479.749" r="3.049"/>
						<rect x="284.529" y="475.702" fill="#F2DCBD" width="2.099" height="8.093"/>
						<rect x="278.332" y="475.702" fill="#F2DCBD" width="4.799" height="8.093"/>
						<circle fill="#F2DCBD" cx="271.281" cy="479.749" r="3.049"/>
						<rect x="263.248" y="475.702" fill="#F2DCBD" width="2.099" height="8.093"/>
						<rect x="257.051" y="475.702" fill="#F2DCBD" width="4.799" height="8.093"/>
						<circle fill="#F2DCBD" cx="250" cy="479.749" r="3.049"/>
						<rect x="241.967" y="475.702" fill="#F2DCBD" width="2.098" height="8.093"/>
						<rect x="235.77" y="475.702" fill="#F2DCBD" width="4.799" height="8.093"/>
						<circle fill="#F2DCBD" cx="228.719" cy="479.749" r="3.049"/>
						<rect x="220.686" y="475.702" fill="#F2DCBD" width="2.098" height="8.093"/>
						<rect x="214.488" y="475.702" fill="#F2DCBD" width="4.799" height="8.093"/>
						<circle fill="#F2DCBD" cx="207.438" cy="479.749" r="3.049"/>
						<rect x="199.405" y="475.702" fill="#F2DCBD" width="2.098" height="8.093"/>
						<rect x="193.207" y="475.702" fill="#F2DCBD" width="4.799" height="8.093"/>
						<circle fill="#F2DCBD" cx="186.156" cy="479.749" r="3.049"/>
						<rect x="178.124" y="475.702" fill="#F2DCBD" width="2.098" height="8.093"/>
						<rect x="171.926" y="475.702" fill="#F2DCBD" width="4.799" height="8.093"/>
						<circle fill="#F2DCBD" cx="164.875" cy="479.749" r="3.049"/>
						<rect x="156.842" y="475.702" fill="#F2DCBD" width="2.098" height="8.093"/>
						<rect x="150.645" y="475.702" fill="#F2DCBD" width="4.799" height="8.093"/>
						<circle fill="#F2DCBD" cx="143.594" cy="479.749" r="3.049"/>
						<rect x="135.561" y="475.702" fill="#F2DCBD" width="2.098" height="8.093"/>
						<rect x="129.363" y="475.702" fill="#F2DCBD" width="4.799" height="8.093"/>
						<circle fill="#F2DCBD" cx="122.313" cy="479.749" r="3.049"/>
						<rect x="114.28" y="475.702" fill="#F2DCBD" width="2.098" height="8.093"/>
						<rect x="108.082" y="475.702" fill="#F2DCBD" width="4.799" height="8.093"/>
						<circle fill="#F2DCBD" cx="101.031" cy="479.749" r="3.049"/>
						<rect x="92.999" y="475.702" fill="#F2DCBD" width="2.098" height="8.093"/>
						<rect x="86.801" y="475.702" fill="#F2DCBD" width="4.799" height="8.093"/>
						<circle fill="#F2DCBD" cx="79.75" cy="479.749" r="3.049"/>
						<rect x="71.717" y="475.702" fill="#F2DCBD" width="2.098" height="8.093"/>
						<rect x="65.52" y="475.702" fill="#F2DCBD" width="4.799" height="8.093"/>
						<circle fill="#F2DCBD" cx="58.469" cy="479.749" r="3.049"/>
						<rect x="50.436" y="475.702" fill="#F2DCBD" width="2.098" height="8.093"/>
						<rect x="44.238" y="475.702" fill="#F2DCBD" width="4.799" height="8.093"/>
						<circle fill="#F2DCBD" cx="37.188" cy="479.749" r="3.049"/>
					</g>
				</g>
				<g>
					<g>
						<path fill="#F2DCBD" d="M480.935,480.319c0,0,1.1-6.617-2.303-10.021c-3.403-3.402-10.021-2.303-10.021-2.303
							s-1.101,6.617,2.303,10.021S480.935,480.319,480.935,480.319z"/>
						<path fill="#FFF4E1" d="M477.344,476.729c0,0,0.459-2.761-0.961-4.181s-4.181-0.961-4.181-0.961s-0.459,2.761,0.961,4.181
							S477.344,476.729,477.344,476.729z"/>
					</g>
					<g>
						<path fill="#F2DCBD" d="M19.066,480.319c0,0-1.101-6.617,2.303-10.021c3.403-3.402,10.02-2.303,10.02-2.303
							s1.1,6.617-2.303,10.021S19.066,480.319,19.066,480.319z"/>
						<path fill="#FFF4E1" d="M22.657,476.729c0,0-0.459-2.761,0.96-4.181c1.42-1.42,4.181-0.961,4.181-0.961
							s0.459,2.761-0.961,4.181C25.417,477.188,22.657,476.729,22.657,476.729z"/>
					</g>
				</g>
			</g>
		</g>
		<g>
			<g>
				<g>
					<g>
						<circle fill="#F2DCBD" cx="479.749" cy="462.813" r="3.049"/>
						<rect x="475.702" y="454.779" fill="#F2DCBD" width="8.093" height="2.099"/>
						<rect x="475.702" y="448.582" fill="#F2DCBD" width="8.093" height="4.799"/>
						<circle fill="#F2DCBD" cx="479.749" cy="441.531" r="3.049"/>
						<rect x="475.702" y="433.498" fill="#F2DCBD" width="8.093" height="2.098"/>
						<rect x="475.702" y="427.301" fill="#F2DCBD" width="8.093" height="4.799"/>
						<circle fill="#F2DCBD" cx="479.749" cy="420.25" r="3.049"/>
						<rect x="475.702" y="412.217" fill="#F2DCBD" width="8.093" height="2.099"/>
						<rect x="475.702" y="406.02" fill="#F2DCBD" width="8.093" height="4.799"/>
						<circle fill="#F2DCBD" cx="479.749" cy="398.969" r="3.049"/>
						<rect x="475.702" y="390.936" fill="#F2DCBD" width="8.093" height="2.099"/>
						<rect x="475.702" y="384.738" fill="#F2DCBD" width="8.093" height="4.799"/>
						<circle fill="#F2DCBD" cx="479.749" cy="377.688" r="3.049"/>
						<rect x="475.702" y="369.654" fill="#F2DCBD" width="8.093" height="2.099"/>
						<rect x="475.702" y="363.457" fill="#F2DCBD" width="8.093" height="4.799"/>
						<circle fill="#F2DCBD" cx="479.749" cy="356.406" r="3.049"/>
						<rect x="475.702" y="348.373" fill="#F2DCBD" width="8.093" height="2.099"/>
						<rect x="475.702" y="342.176" fill="#F2DCBD" width="8.093" height="4.799"/>
						<circle fill="#F2DCBD" cx="479.749" cy="335.125" r="3.049"/>
						<rect x="475.702" y="327.092" fill="#F2DCBD" width="8.093" height="2.099"/>
						<rect x="475.702" y="320.895" fill="#F2DCBD" width="8.093" height="4.799"/>
						<circle fill="#F2DCBD" cx="479.749" cy="313.844" r="3.049"/>
						<rect x="475.702" y="305.811" fill="#F2DCBD" width="8.093" height="2.099"/>
						<rect x="475.702" y="299.613" fill="#F2DCBD" width="8.093" height="4.799"/>
						<circle fill="#F2DCBD" cx="479.749" cy="292.563" r="3.049"/>
						<rect x="475.702" y="284.529" fill="#F2DCBD" width="8.093" height="2.099"/>
						<rect x="475.702" y="278.332" fill="#F2DCBD" width="8.093" height="4.799"/>
						<circle fill="#F2DCBD" cx="479.749" cy="271.281" r="3.049"/>
						<rect x="475.702" y="263.248" fill="#F2DCBD" width="8.093" height="2.099"/>
						<rect x="475.702" y="257.051" fill="#F2DCBD" width="8.093" height="4.799"/>
						<circle fill="#F2DCBD" cx="479.749" cy="250" r="3.049"/>
						<rect x="475.702" y="241.967" fill="#F2DCBD" width="8.093" height="2.098"/>
						<rect x="475.702" y="235.77" fill="#F2DCBD" width="8.093" height="4.799"/>
						<circle fill="#F2DCBD" cx="479.749" cy="228.719" r="3.049"/>
						<rect x="475.702" y="220.686" fill="#F2DCBD" width="8.093" height="2.098"/>
						<rect x="475.702" y="214.488" fill="#F2DCBD" width="8.093" height="4.799"/>
						<circle fill="#F2DCBD" cx="479.749" cy="207.438" r="3.049"/>
						<rect x="475.702" y="199.405" fill="#F2DCBD" width="8.093" height="2.098"/>
						<rect x="475.702" y="193.207" fill="#F2DCBD" width="8.093" height="4.799"/>
						<circle fill="#F2DCBD" cx="479.749" cy="186.156" r="3.049"/>
						<rect x="475.702" y="178.124" fill="#F2DCBD" width="8.093" height="2.098"/>
						<rect x="475.702" y="171.926" fill="#F2DCBD" width="8.093" height="4.799"/>
						<circle fill="#F2DCBD" cx="479.749" cy="164.875" r="3.049"/>
						<rect x="475.702" y="156.842" fill="#F2DCBD" width="8.093" height="2.098"/>
						<rect x="475.702" y="150.645" fill="#F2DCBD" width="8.093" height="4.799"/>
						<circle fill="#F2DCBD" cx="479.749" cy="143.594" r="3.049"/>
						<rect x="475.702" y="135.561" fill="#F2DCBD" width="8.093" height="2.098"/>
						<rect x="475.702" y="129.363" fill="#F2DCBD" width="8.093" height="4.799"/>
						<circle fill="#F2DCBD" cx="479.749" cy="122.313" r="3.049"/>
						<rect x="475.702" y="114.28" fill="#F2DCBD" width="8.093" height="2.098"/>
						<rect x="475.702" y="108.082" fill="#F2DCBD" width="8.093" height="4.799"/>
						<circle fill="#F2DCBD" cx="479.749" cy="101.031" r="3.049"/>
						<rect x="475.702" y="92.999" fill="#F2DCBD" width="8.093" height="2.098"/>
						<rect x="475.702" y="86.801" fill="#F2DCBD" width="8.093" height="4.799"/>
						<circle fill="#F2DCBD" cx="479.749" cy="79.75" r="3.049"/>
						<rect x="475.702" y="71.717" fill="#F2DCBD" width="8.093" height="2.098"/>
						<rect x="475.702" y="65.52" fill="#F2DCBD" width="8.093" height="4.799"/>
						<circle fill="#F2DCBD" cx="479.749" cy="58.469" r="3.049"/>
						<rect x="475.702" y="50.436" fill="#F2DCBD" width="8.093" height="2.098"/>
						<rect x="475.702" y="44.238" fill="#F2DCBD" width="8.093" height="4.799"/>
						<circle fill="#F2DCBD" cx="479.749" cy="37.188" r="3.049"/>
					</g>
				</g>
			</g>
			<g>
				<g>
					<g>
						<circle fill="#F2DCBD" cx="20.251" cy="462.813" r="3.049"/>
						<rect x="16.206" y="454.779" fill="#F2DCBD" width="8.092" height="2.099"/>
						<rect x="16.206" y="448.582" fill="#F2DCBD" width="8.092" height="4.799"/>
						<circle fill="#F2DCBD" cx="20.251" cy="441.531" r="3.049"/>
						<rect x="16.206" y="433.498" fill="#F2DCBD" width="8.092" height="2.098"/>
						<rect x="16.206" y="427.301" fill="#F2DCBD" width="8.092" height="4.799"/>
						<circle fill="#F2DCBD" cx="20.251" cy="420.25" r="3.049"/>
						<rect x="16.206" y="412.217" fill="#F2DCBD" width="8.092" height="2.099"/>
						<rect x="16.206" y="406.02" fill="#F2DCBD" width="8.092" height="4.799"/>
						<circle fill="#F2DCBD" cx="20.251" cy="398.969" r="3.049"/>
						<rect x="16.206" y="390.936" fill="#F2DCBD" width="8.092" height="2.099"/>
						<rect x="16.206" y="384.738" fill="#F2DCBD" width="8.092" height="4.799"/>
						<circle fill="#F2DCBD" cx="20.251" cy="377.688" r="3.049"/>
						<rect x="16.206" y="369.654" fill="#F2DCBD" width="8.092" height="2.099"/>
						<rect x="16.206" y="363.457" fill="#F2DCBD" width="8.092" height="4.799"/>
						<circle fill="#F2DCBD" cx="20.251" cy="356.406" r="3.049"/>
						<rect x="16.206" y="348.373" fill="#F2DCBD" width="8.092" height="2.099"/>
						<rect x="16.206" y="342.176" fill="#F2DCBD" width="8.092" height="4.799"/>
						<circle fill="#F2DCBD" cx="20.251" cy="335.125" r="3.049"/>
						<rect x="16.206" y="327.092" fill="#F2DCBD" width="8.092" height="2.099"/>
						<rect x="16.206" y="320.895" fill="#F2DCBD" width="8.092" height="4.799"/>
						<circle fill="#F2DCBD" cx="20.251" cy="313.844" r="3.049"/>
						<rect x="16.206" y="305.811" fill="#F2DCBD" width="8.092" height="2.099"/>
						<rect x="16.206" y="299.613" fill="#F2DCBD" width="8.092" height="4.799"/>
						<circle fill="#F2DCBD" cx="20.251" cy="292.563" r="3.049"/>
						<rect x="16.206" y="284.529" fill="#F2DCBD" width="8.092" height="2.099"/>
						<rect x="16.206" y="278.332" fill="#F2DCBD" width="8.092" height="4.799"/>
						<circle fill="#F2DCBD" cx="20.251" cy="271.281" r="3.049"/>
						<rect x="16.206" y="263.248" fill="#F2DCBD" width="8.092" height="2.099"/>
						<rect x="16.206" y="257.051" fill="#F2DCBD" width="8.092" height="4.799"/>
						<circle fill="#F2DCBD" cx="20.251" cy="250" r="3.049"/>
						<rect x="16.206" y="241.967" fill="#F2DCBD" width="8.092" height="2.098"/>
						<rect x="16.206" y="235.77" fill="#F2DCBD" width="8.092" height="4.799"/>
						<circle fill="#F2DCBD" cx="20.251" cy="228.719" r="3.049"/>
						<rect x="16.206" y="220.686" fill="#F2DCBD" width="8.092" height="2.098"/>
						<rect x="16.206" y="214.488" fill="#F2DCBD" width="8.092" height="4.799"/>
						<circle fill="#F2DCBD" cx="20.251" cy="207.438" r="3.049"/>
						<rect x="16.206" y="199.405" fill="#F2DCBD" width="8.092" height="2.098"/>
						<rect x="16.206" y="193.207" fill="#F2DCBD" width="8.092" height="4.799"/>
						<circle fill="#F2DCBD" cx="20.251" cy="186.156" r="3.049"/>
						<rect x="16.206" y="178.124" fill="#F2DCBD" width="8.092" height="2.098"/>
						<rect x="16.206" y="171.926" fill="#F2DCBD" width="8.092" height="4.799"/>
						<circle fill="#F2DCBD" cx="20.251" cy="164.875" r="3.049"/>
						<rect x="16.206" y="156.842" fill="#F2DCBD" width="8.092" height="2.098"/>
						<rect x="16.206" y="150.645" fill="#F2DCBD" width="8.092" height="4.799"/>
						<circle fill="#F2DCBD" cx="20.251" cy="143.594" r="3.049"/>
						<rect x="16.206" y="135.561" fill="#F2DCBD" width="8.092" height="2.098"/>
						<rect x="16.206" y="129.363" fill="#F2DCBD" width="8.092" height="4.799"/>
						<circle fill="#F2DCBD" cx="20.251" cy="122.313" r="3.049"/>
						<rect x="16.206" y="114.28" fill="#F2DCBD" width="8.092" height="2.098"/>
						<rect x="16.206" y="108.082" fill="#F2DCBD" width="8.092" height="4.799"/>
						<circle fill="#F2DCBD" cx="20.251" cy="101.031" r="3.049"/>
						<rect x="16.206" y="92.999" fill="#F2DCBD" width="8.092" height="2.098"/>
						<rect x="16.206" y="86.801" fill="#F2DCBD" width="8.092" height="4.799"/>
						<circle fill="#F2DCBD" cx="20.251" cy="79.75" r="3.049"/>
						<rect x="16.206" y="71.717" fill="#F2DCBD" width="8.092" height="2.098"/>
						<rect x="16.206" y="65.52" fill="#F2DCBD" width="8.092" height="4.799"/>
						<circle fill="#F2DCBD" cx="20.251" cy="58.469" r="3.049"/>
						<rect x="16.206" y="50.436" fill="#F2DCBD" width="8.092" height="2.098"/>
						<rect x="16.206" y="44.238" fill="#F2DCBD" width="8.092" height="4.799"/>
						<circle fill="#F2DCBD" cx="20.251" cy="37.188" r="3.049"/>
					</g>
				</g>
			</g>
		</g>
	</g>
</g>
<g id="OBJECTS">
	<g>
		<g>
			<defs>
				<circle id="SVGID_1_" cx="250" cy="250" r="174.362"/>
			</defs>
			<clipPath id="SVGID_2_">
				<use xlink:href="#SVGID_1_"  overflow="visible"/>
			</clipPath>
			<path clip-path="url(#SVGID_2_)" fill="#C0E1F2" d="M432.668,250c0.934,158.777-193.909,243.332-309.222,131.714
				c0,0-0.013,0-0.013-0.013C87.792,347.629,67.149,299.484,67.333,250C71.004,9.984,429.124,10.197,432.668,250z"/>
			<rect x="109.936" y="330.25" clip-path="url(#SVGID_2_)" fill="#D8B480" width="280.129" height="103.207"/>
			<path clip-path="url(#SVGID_2_)" fill="#B1CE82" d="M390.063,330.258c-16.006-0.102-32.034-0.008-48.047-0.008
				c-34.224,0-68.447,0-102.67,0c-32.271,0-64.542,0-96.813,0c-10.865,0-21.73-0.021-32.595,0c0.416,0-0.486-13.135-0.387-13.994
				c0.739-6.399,6.826-11.54,11.96-14.915c14.915-9.804,33.761-11.725,51.544-10.2s35.154,6.177,52.861,8.414
				c18.777,2.373,37.929,2.003,56.531-1.483c14.338-2.687,28.466-7.225,43.052-7.421c10.897-0.147,21.67,2.142,32.276,4.647
				c8.98,2.121,25.595,4.596,31.232,12.904C392.715,313.665,390.073,324.046,390.063,330.258z"/>
			<g clip-path="url(#SVGID_2_)">
				<g>
					<path fill="#4A8BD1" d="M177.216,410.767c-18.933,15.494-43.478,23.971-67.934,23.469c-12.097-0.25-24.122-2.621-35.593-6.481
						c-0.693-0.233-1.387-0.468-2.086-0.715c-28.944-10.246-54.356-30.265-71.092-56.026c-14.135-21.76-22.133-48.494-17.152-73.962
						c3.548-18.111,14.404-34.938,29.906-45.069c11.495-7.511,25.045-10.498,35.268-19.949c8.491-7.854,16.336-15.672,26.033-22.144
						c41.278-27.567,94.241-36.979,142.491-25.313c-25.163,2.736-49.462,13.033-68.939,29.212
						c16.862-8.21,37.893-7.171,53.862,2.657c-23.078-1.438-46.546,4.385-66.271,16.435c20.153-4.451,42.513,3.315,55.576,19.306
						c-14.783-3.696-30.955-0.876-43.949,7.084c-1.838,1.126-3.611,2.355-5.314,3.671c-10.328,7.973-18.089,19.248-22.118,31.687
						c-3.88,11.958-4.416,24.78-3.284,37.304c1.131,12.523,3.956,25.048,9.822,36.176
						C136.95,388.056,156.464,401.955,177.216,410.767z"/>
					<path fill="#4A8BD1" d="M144.952,171.872c0,0,33.555-28.671,49.085-11.257S144.952,171.872,144.952,171.872z"/>
					<path fill="#4A8BD1" d="M148.208,156.879c0,0,11.388-22.708,23.518-16.943C183.856,145.701,148.208,156.879,148.208,156.879z"
						/>
					<path fill="#4A8BD1" d="M194.179,201.949c0,0,25.187-11.248,31.415,1.939C231.82,217.075,194.179,201.949,194.179,201.949z"/>
					<path fill="#4A8BD1" d="M180.015,229.623c0,0,27.584,0.04,27.873,14.62C208.176,258.824,180.015,229.623,180.015,229.623z"/>
				</g>
				<path fill="#2E6FAA" d="M177.216,410.767c-18.933,15.494-43.478,23.971-67.934,23.469c-12.097-0.25-24.122-2.621-35.593-6.481
					c-0.693-0.233-1.387-0.468-2.086-0.715c-28.166-55.83,17.316-134.669,70.425-164.378c-0.002,0.09-0.006,0.189-0.008,0.279
					c-10.328,7.973-18.089,19.248-22.118,31.687c-3.88,11.958-4.416,24.78-3.284,37.304c1.131,12.523,3.956,25.048,9.822,36.176
					C136.95,388.056,156.464,401.955,177.216,410.767z"/>
			</g>
			<g clip-path="url(#SVGID_2_)">
				<g>
					<path fill="#4A8BD1" d="M322.784,410.767c18.934,15.494,43.478,23.971,67.934,23.469c12.097-0.25,24.122-2.621,35.593-6.481
						c0.693-0.233,1.387-0.468,2.086-0.715c28.944-10.246,54.356-30.265,71.093-56.026c14.135-21.76,22.133-48.494,17.152-73.962
						c-3.549-18.111-14.405-34.938-29.907-45.069c-11.495-7.511-25.045-10.498-35.268-19.949
						c-8.491-7.854-16.336-15.672-26.033-22.144c-41.278-27.567-94.241-36.979-142.491-25.313
						c25.163,2.736,49.462,13.033,68.939,29.212c-16.861-8.21-37.893-7.171-53.862,2.657c23.078-1.438,46.547,4.385,66.272,16.435
						c-20.153-4.451-42.514,3.315-55.576,19.306c14.783-3.696,30.955-0.876,43.949,7.084c1.838,1.126,3.611,2.355,5.314,3.671
						c10.327,7.973,18.089,19.248,22.118,31.687c3.88,11.958,4.416,24.78,3.284,37.304s-3.956,25.048-9.822,36.176
						C363.051,388.056,343.536,401.955,322.784,410.767z"/>
					<path fill="#4A8BD1" d="M355.048,171.872c0,0-33.555-28.671-49.085-11.257C290.432,178.029,355.048,171.872,355.048,171.872z"
						/>
					<path fill="#4A8BD1" d="M351.792,156.879c0,0-11.388-22.708-23.518-16.943C316.144,145.701,351.792,156.879,351.792,156.879z"
						/>
					<path fill="#4A8BD1" d="M305.821,201.949c0,0-25.187-11.248-31.414,1.939C268.18,217.075,305.821,201.949,305.821,201.949z"/>
					<path fill="#4A8BD1" d="M319.985,229.623c0,0-27.585,0.04-27.873,14.62C291.824,258.824,319.985,229.623,319.985,229.623z"/>
				</g>
				<path fill="#2E6FAA" d="M322.784,410.767c18.934,15.494,43.478,23.971,67.934,23.469c12.097-0.25,24.122-2.621,35.593-6.481
					c0.693-0.233,1.387-0.468,2.086-0.715c28.166-55.83-17.315-134.669-70.425-164.378c0.002,0.09,0.007,0.189,0.008,0.279
					c10.327,7.973,18.089,19.248,22.118,31.687c3.88,11.958,4.416,24.78,3.284,37.304s-3.956,25.048-9.822,36.176
					C363.051,388.056,343.536,401.955,322.784,410.767z"/>
			</g>
		</g>
		<circle fill="#F5FCFF" cx="191.351" cy="127.722" r="16.712"/>
	</g>
	<g>
		<defs>
			<rect id="SVGID_3_" x="98.083" y="92.468" width="340.398" height="407.532"/>
		</defs>
		<clipPath id="SVGID_4_">
			<use xlink:href="#SVGID_3_"  overflow="visible"/>
		</clipPath>
		<g clip-path="url(#SVGID_4_)">
			<path fill="#F2C09E" d="M250,271.703c-62.68,0-41.16-81.12-41.16-81.12L250,173.947l41.16,16.636
				C291.16,190.583,312.68,271.703,250,271.703z"/>
			<g>
				<path fill="#E8E6E6" d="M315.16,320.97c0,0-6.521-3.989-14-9.35c-9.62-6.91-20.82-16.11-21.73-22.08
					c-0.91-6.06,3.04-19.37,6.601-29.67c2.66-7.73,5.109-13.76,5.109-13.76l2.28-17.92l-1.27-21.32l-6.24-13.71l-5.28-3.6
					c0,0-18.63-0.5-30.63-12.31c-12,11.81-30.63,12.31-30.63,12.31l-5.28,3.6l-6.24,13.71l-1.27,21.32l2.28,17.92
					c0,0,2.45,6.03,5.11,13.76c3.56,10.3,7.51,23.61,6.6,29.67c-0.91,5.97-12.11,15.17-21.73,22.08c-7.48,5.36-14,9.35-14,9.35
					c-14.12-5.81-18.12-26.319-10.51-38.63c7.6-12.31,19.11-16.22,21.31-31.53c2.21-15.31-11-28.32-5.1-41.83
					c5.91-13.51,0.4-21.32,11.11-45.64c10.71-24.32,48.35-19.22,48.35-19.22s37.64-5.1,48.35,19.22
					c10.71,24.32,5.2,32.13,11.11,45.64c5.9,13.51-7.31,26.52-5.1,41.83c2.199,15.31,13.71,19.22,21.31,31.53
					C333.28,294.65,329.28,315.16,315.16,320.97z"/>
				<path fill="#D3D3D3" d="M220.57,289.54c-0.91,5.97-12.11,15.17-21.73,22.08c-5.67-5.58-9.12-13.48-9.54-21.49
					c-0.41-7.81,2.18-14.24,5.28-21.17c3.17-7.05,7.25-13.7,12.11-19.7c2.04,3.771,4.45,7.391,7.28,10.61
					C217.53,270.17,221.48,283.48,220.57,289.54z"/>
				<path fill="#D3D3D3" d="M279.43,289.54c0.91,5.97,12.11,15.17,21.73,22.08c5.67-5.58,9.12-13.48,9.54-21.49
					c0.41-7.81-2.181-14.24-5.28-21.17c-3.17-7.05-7.25-13.7-12.11-19.7c-2.04,3.771-4.449,7.391-7.279,10.61
					C282.47,270.17,278.52,283.48,279.43,289.54z"/>
			</g>
			<g>
				<path fill="#DDBB78" d="M174.33,524.57c0,0,11.96-59.53,8.78-96.21c-3.18-36.69-6.39-102.67-6.39-102.67l33.31-24.46l5.66-4.16
					l24.88-4.511l9.43,18.23l9.43-18.23l24.011,4.351l0.52,19.54l5.58,208.12H174.33z"/>
				<path fill="#FCEFD9" d="M283.96,316.45c-4.15,4.3-10.24,9.63-16.63,11.899L250,352.2l-17.33-23.851
					c-10.81-3.84-20.75-16.43-21.92-17.949l-1.45-1.891l0.73-7.279l5.66-4.16l24.88-4.511l9.43,18.23l9.43-18.23l24.011,4.351
					L283.96,316.45z"/>
				<path fill="#F2C09E" d="M284.49,306.74c0,0-10.91,14.18-20.82,16.439L250,341.99l-13.67-18.811
					c-9.91-2.26-20.82-16.439-20.82-16.439l1.07-10.75L250,286.68l33.42,9.311L284.49,306.74z"/>
				<path fill="#C44141" d="M216.58,295.99l-6.64,248.2h-39.41c0,0,13.9-96.471,9.69-123.94l-10.98,102.83h-49.98
					c0,0,18.71-150.9,43.99-184.91c13.2-17.77,27.17-28.479,37.49-34.66c2.4-1.439,4.6-2.63,6.55-3.6
					C213.02,297.03,216.58,295.99,216.58,295.99z"/>
				<path fill="#C44141" d="M397.21,406.02c-27.17,33.82-63.78,42.9-77.69,45.2c2.131,38.721,9.95,92.971,9.95,92.971h-39.41
					l-0.52-19.62l-6.1-227.66l-0.021-0.92c0,0,3.561,1.04,9.29,3.92c1.95,0.97,4.15,2.16,6.55,3.6
					c10.32,6.181,24.29,16.891,37.49,34.66c0,0,11.15,15.91,16.61,42.57c0,0,12.06-13.69,25.109-31.32h0.011
					c2.479-3.35,4.989-6.84,7.47-10.41c9.51-13.7,18.43-28.51,22.47-40.649c0,0,2.68,7.58,4.85,19.27
					c0.841,4.53,1.601,9.68,2.11,15.24C417.36,354.98,415.2,383.62,397.21,406.02z"/>
				<path fill="#EAA04E" d="M305.54,544.19h-7.83l-5-244.28c1.95,0.97,4.15,2.16,6.55,3.6L305.54,544.19z"/>
				<path fill="#EAA04E" d="M207.29,299.91l-5,244.28h-7.83l6.28-240.681C203.14,302.07,205.34,300.88,207.29,299.91z"/>
				<polygon fill="#5B3A2F" points="325.701,489.557 323.7,467.72 176.315,467.72 174.314,489.557 238.241,489.557 222.822,544.107 
					239.292,544.107 248.959,489.557 251.057,489.557 260.725,544.107 277.193,544.107 261.774,489.557 				"/>
				<path fill="#845447" d="M261.487,492.287h-22.959c-1.886,0-3.415-1.528-3.415-3.415v-19.618c0-1.886,1.529-3.415,3.415-3.415
					h22.959c1.886,0,3.415,1.529,3.415,3.415v19.618C264.902,490.759,263.373,492.287,261.487,492.287z"/>
				<path fill="#5B3A2F" d="M415.38,332.87c-6.8,4.75-20.22,12.87-36.899,16.55c2.479-3.35,4.989-6.84,7.47-10.41
					c6.85-3.29,17.1-9.649,27.319-21.38C414.11,322.16,414.87,327.31,415.38,332.87z"/>
			</g>
			<g>
				<g>
					<ellipse cx="227.651" cy="219.622" rx="3.985" ry="4.628"/>
				</g>
				<g>
					<ellipse cx="272.349" cy="219.622" rx="3.985" ry="4.628"/>
				</g>
				<path fill="#E8E6E6" d="M266.696,204.507c2.354-4.416,9.945-3.98,11.764,0.688C274.536,203.584,270.78,203.353,266.696,204.507
					L266.696,204.507z"/>
				<path fill="#E8E6E6" d="M233.304,204.507c-2.354-4.416-9.946-3.98-11.764,0.688C225.464,203.584,229.22,203.353,233.304,204.507
					L233.304,204.507z"/>
			</g>
			<g opacity="0.7">
				<ellipse opacity="0.3" fill="#FF8080" cx="277.592" cy="238.157" rx="12.472" ry="5.588"/>
				<ellipse opacity="0.3" fill="#FF8080" cx="222.408" cy="238.157" rx="12.472" ry="5.588"/>
			</g>
			<path fill="#E8E6E6" d="M295.65,268.13c8.779,14.48-12.41,24.12-12.41,24.12c2.7,12.71-15.92,15.21-15.92,15.21
				c-2.5,13.11-17.32,12.11-17.32,12.11s-14.82,1-17.32-12.11c0,0-18.62-2.5-15.92-15.21c0,0-21.19-9.64-12.41-24.12
				c0,0-6.4-14.72-3-22.02c3.4-7.31,4.66-16.4,3.98-22.71c-0.68-6.32-4.18-30.04-4.18-30.04l18.22-3.8c0,0-5.71,20.82-10.11,28.18
				c-4.41,7.35,0.71,23.97,7.5,26.81c6.8,2.84,33.24-2.85,33.24-2.85s26.44,5.69,33.24,2.85c6.79-2.84,11.91-19.46,7.5-26.81
				c-4.4-7.36-10.11-28.18-10.11-28.18l18.22,3.8c0,0-3.5,23.72-4.18,30.04c-0.68,6.31,0.58,15.4,3.98,22.71
				C302.05,253.41,295.65,268.13,295.65,268.13z"/>
			<path fill="#E5A980" d="M202.97,242.04c-3.84-1.79-6.58-6.38-6.58-11.75c0-6.12,3.56-11.22,8.26-12.33
				c0.3,2.28,0.55,4.2,0.68,5.44C205.89,228.58,205.14,235.64,202.97,242.04z"/>
			<path fill="#E5A980" d="M297.03,242.04c3.84-1.79,6.58-6.38,6.58-11.75c0-6.12-3.561-11.22-8.261-12.33
				c-0.3,2.28-0.55,4.2-0.68,5.44C294.11,228.58,294.86,235.64,297.03,242.04z"/>
			<g>
				<path d="M263.982,250.386c-6.164,9.21-21.806,9.221-27.965,0C244.322,256.347,255.682,256.358,263.982,250.386L263.982,250.386z
					"/>
			</g>
			<path fill="#F2F2F2" d="M274.889,246.504c-3.275-2.059-6.063-4.82-9.316-6.913c-1.813-1.167-3.767-2.113-5.802-2.823
				c-6.157-2.149-13.387-2.148-19.541,0c-2.035,0.71-3.988,1.657-5.801,2.823c-3.254,2.093-6.041,4.854-9.317,6.913
				c-3.276,2.059-7.338,3.39-11.019,2.198c4.507,3.232,9.993,5.079,15.538,5.23c5.543,0.151,11.123-1.395,15.799-4.376
				c1.713-1.092,3.326-2.408,4.572-3.999c1.246,1.59,2.859,2.906,4.572,3.999c4.676,2.981,10.255,4.527,15.799,4.376
				s11.03-1.998,15.537-5.23C282.227,249.894,278.165,248.563,274.889,246.504z"/>
			<path fill="#F2C09E" d="M366.246,274.247c-1.41,2.332-2.12,5.034-2.405,7.744c-0.445,4.229,0.18,8.727,2.626,12.205
				c0.543,0.771,1.178,1.492,1.962,2.015c1.801,1.198,4.25,1.186,6.197,0.243s3.414-2.709,4.307-4.68s1.254-4.143,1.411-6.3
				c0.306-4.188-0.142-8.596-2.073-12.382c-1.563-3.065-4.065-5.072-7.402-3.311C368.946,270.797,367.365,272.394,366.246,274.247z"
				/>
			<ellipse fill="#E5A980" cx="250" cy="228.768" rx="8.109" ry="7.688"/>
			<ellipse fill="#F2C09E" cx="250" cy="226.363" rx="10.106" ry="7.688"/>
			<g>
				<path fill="#BF7B4C" d="M393.82,173.95c-5.601,17.88-9.08,27.55-9.08,27.55v320.57h-12.99V199.4c0,0-5.15-9.08-7.36-21.35
					c-0.739-4.1-1.149-8.57-0.93-13.17c0,0-0.03-0.02-0.1-0.05c-1.091-0.59-10.851-6.34-3.9-21.16
					c7.35-15.67,18.4-21.33,18.23-35.59c0,0,12.75-0.44,15.34,11.18c2.6,11.63-2.09,27.38-2.09,27.38s0.01,0.01,0.029,0.04
					c0.32,0.36,2.98,3.61,4.181,9.57C396.04,160.68,396.12,166.6,393.82,173.95z"/>
				<path fill="#9E5E32" d="M380.55,150.77c-3.51,10.06-9.33,19.03-16.16,27.28c-0.739-4.1-1.149-8.57-0.93-13.17
					c0,0-0.03-0.02-0.1-0.05C369.71,160.98,375.51,156.23,380.55,150.77z"/>
				<path fill="#9E5E32" d="M395.15,156.25c-1.36,2.06-2.811,4.07-4.28,6.05c-3.79,5.09-7.851,10.1-12.95,13.89
					c-0.46,0.34-1.04,0.69-1.57,0.47c3.771-4.44,6.87-9.46,9.141-14.82c2.1-4.94,3.5-10.16,5.479-15.16
					C391.29,147.04,393.95,150.29,395.15,156.25z"/>
			</g>
			<path fill="#F2C09E" d="M408.46,295.843c-0.24-3.339-0.687-6.679-1.134-9.976c-0.808-5.948-2.026-11.865-4.086-17.522
				c-1.014-2.784-2.113-5.356-3.904-7.723c-1.784-2.355-3.887-4.455-5.987-6.533c-4.48-4.433-9.416-9.041-15.671-10.1
				c-1.377-0.233-3.039-0.17-3.844,0.955c-0.555,0.775-0.509,1.827-0.251,2.741c0.572,2.024,2.035,3.696,3.671,5.042
				s3.475,2.435,5.137,3.75c4.182,3.313,7.107,8.105,8.223,13.273c-0.599-0.354-1.207-0.693-1.84-1.001
				c-3.521-1.712-8.239-2.004-12.12-1.892c-1.588,0.046-3.278,0.24-4.51,1.23c-1.159,0.931-1.714,2.428-1.872,3.893
				c-0.243,2.26,0.361,4.598,1.672,6.467c0.426,0.606,0.948,1.246,0.884,1.98c-0.038,0.426-0.272,0.806-0.469,1.187
				c-1.597,3.087-0.719,7.218,2.001,9.413c0.611,0.493,1.349,0.965,1.526,1.724c0.181,0.772-0.291,1.526-0.517,2.287
				c-0.628,2.122,0.73,4.358,2.451,5.775c0.407,0.334,0.871,0.701,0.927,1.221c0.033,0.308-0.089,0.607-0.183,0.902
				c-0.583,1.839-0.098,3.878,0.862,5.558c1.728,3.022,4.772,4.902,6.473,7.984c3.653,6.62,2.323,14.332,0.313,21.213
				c-0.07,0.241-0.115,1.185-0.262,1.318c2.603-2.381,4.995-4.146,7.531-6.65c4.899-4.839,9.308-10.271,12.166-16.5
				C408.588,309.453,408.95,302.652,408.46,295.843z"/>
		</g>
	</g>
</g>
</svg>
