<?xml version="1.0" encoding="utf-8"?>
<!-- Generator: Adobe Illustrator 16.0.0, SVG Export Plug-In . SVG Version: 6.00 Build 0)  -->
<!DOCTYPE svg PUBLIC "-//W3C//DTD SVG 1.1//EN" "http://www.w3.org/Graphics/SVG/1.1/DTD/svg11.dtd">
<svg version="1.1" id="Layer_1" xmlns="http://www.w3.org/2000/svg" xmlns:xlink="http://www.w3.org/1999/xlink" x="0px" y="0px"
	 width="664px" height="598px" viewBox="0 0 664 598" enable-background="new 0 0 664 598" xml:space="preserve">
<g>
	<defs>
		<rect id="SVGID_1_" x="-40.914" y="-42" width="735.572" height="735.572"/>
	</defs>
	<clipPath id="SVGID_2_">
		<use xlink:href="#SVGID_1_"  overflow="visible"/>
	</clipPath>
	<path clip-path="url(#SVGID_2_)" fill="#E3F4FF" d="M581.107,302.842c0,53.619-9.957,74.501-17.192,110.399
		c-8.166,54.831-50.871,95.87-100.973,122.143c-0.151,0.088-0.305,0.168-0.456,0.241c-31.053,16.217-64.912,26.766-95.133,31.413
		c-0.573,0.088-1.145,0.177-1.709,0.25c-0.601,0.098-1.2,0.188-1.792,0.26c-1.092,0.151-2.167,0.296-3.25,0.43
		c-1.281,0.16-2.551,0.313-3.824,0.456c-1.853,0.216-3.698,0.395-5.516,0.555c-8.991,0.771-18.294,0.896-27.794,0.404
		c-20.131-1.03-41.156-4.81-62.028-11.06c-93.298-27.91-183.739-105.01-179.217-205.668c20.829-15.626,26.058,3.939,45.05-10.495
		c14.05-12.124,38.263-19.109,38.263-19.109c-15.097-12.008-46.599-27.813-74.43,3.653c23.864-47.772,30.132-15.375,56.584-32.111
		c7.844-8.882,12.125-10.235,26.917-7.728c31.1,6.708,17.98-36.552,45.122-32.344c0,0-5.543-6.518-20.336-6.618
		c-14.792-0.098-17.38,14.543-33.857,10.353c-10.674-2.724-25.466-2.141-40.089,1.073c-4.2,0.923-8.391,2.06-12.465,3.404
		c16.664-37.063,62.87-42.095,75.801-74.036c9.733-24.186,19.359-51.892,33.758-76.016c4.71-7.897,9.939-15.41,15.85-22.288
		c19.592-22.923,47.03-39.956,88.973-43.465c90.01-7.513,114.6,41.736,147.014,68.887c1.111,0.932,2.232,1.835,3.368,2.713
		c-2.463,4.979-3.886,10.863-3.886,17.166c0,17.982,11.56,32.559,25.825,32.559c8.488,0,16.027-5.167,20.739-13.146
		c11.614,12.742,22.868,27.813,32.469,44.934c-0.171,0.037-0.341,0.081-0.512,0.135c-14.104,4.065-20.083,20.604-27.347,28.207
		c-7.243,7.603-20.962,10.057-20.962,10.057s9.08,14.408,28.61,16.243c9.177,0.86,17.058-2.57,23.827-6.734
		c-5.266,9.564-3.842,16.154-11.04,24.715c-8.41,10.012-20.945,13.495-31.691,30.884c-10.754,17.39-8.633,35.836-8.633,35.836
		c2.964-3.009,7.218-7.03,12.717-11.319c4.817-3.77,14.211-11.005,26.693-15.992c10.826-4.316,19.548-5.176,22.369-5.588
		c4.279-0.626,9.097-2.274,14.165-4.764C581.099,302.099,581.107,302.475,581.107,302.842"/>
	<path clip-path="url(#SVGID_2_)" fill="#FFFFFF" d="M520.422,155.119c-4.71,7.979-12.249,13.146-20.737,13.146
		c-14.266,0-25.825-14.579-25.825-32.559c0-6.304,1.423-12.188,3.886-17.166C477.745,118.539,518.301,152.763,520.422,155.119"/>
	<path clip-path="url(#SVGID_2_)" fill="#FFFFFF" d="M219.729,254.532c-27.141-4.208-14.023,39.05-45.122,32.343
		c-14.792-2.507-19.073-1.155-26.917,7.728c-26.452,16.737-32.72-15.662-56.583,32.111c27.83-31.466,59.333-15.661,74.429-3.653
		c0,0-24.212,6.985-38.262,19.109c-18.992,14.435-24.222-5.131-45.051,10.494c0,0,0.824-10.476,3.681-24.856
		c3.985-20.024,11.909-47.63,27.079-65.065c4.075-1.343,8.265-2.48,12.464-3.403c14.624-3.214,29.417-3.795,40.089-1.075
		c16.477,4.191,19.065-10.449,33.858-10.35C214.187,248.013,219.729,254.532,219.729,254.532"/>
	<path clip-path="url(#SVGID_2_)" fill="#FFFFFF" d="M581.107,302.842c0-0.367-0.009-0.743-0.018-1.11
		c-5.068,2.49-9.886,4.137-14.165,4.764c-2.821,0.412-11.543,1.271-22.369,5.588c-12.482,4.987-21.876,12.223-26.693,15.992
		c-5.499,4.29-9.753,8.31-12.717,11.319c0,0-2.121-18.446,8.633-35.836c10.746-17.389,23.281-20.873,31.691-30.884
		c7.198-8.561,5.774-15.15,11.04-24.715c-6.77,4.164-14.65,7.594-23.827,6.734c-19.53-1.835-28.61-16.243-28.61-16.243
		s13.719-2.454,20.962-10.057c7.264-7.603,13.243-24.142,27.347-28.207c0.171-0.054,0.341-0.098,0.512-0.135
		C552.893,200.052,582.855,267.31,581.107,302.842"/>
	<path clip-path="url(#SVGID_2_)" fill="#BDDEEF" d="M145.518,479.222c19.192-8.028,40.182,12.359,40.182,12.359
		s-17.994-18.588-18.37-44.979c-0.273-18.797,16.311-46.109,22.137-47.044c5.829-0.935,21.765,16.63,25.62,50.045
		c1.799,15.594-6.012,39.032-6.012,39.032s13.811-31.836,43.327-32.437c2.271,7.797-5.764,24.923-11.783,35.085
		c-5.224,8.821-18.334,24.292-46.724,20.867C158.94,507.934,145.083,479.403,145.518,479.222"/>
	<path clip-path="url(#SVGID_2_)" fill="#FFFFFF" d="M182.806,412.958c2.371,5.175,4.813,10.201,7.792,15.04
		c-0.263-7.956-0.669-16.09-0.056-23.98c0.056-0.713,1.055-0.713,1.11,0c0.37,4.756,0.351,9.573,0.287,14.389
		c0.542-1.016,1.016-2.067,1.381-3.176c0.56-1.713,0.377-3.459,0.586-5.211l0.373-0.052c1.287,3.149-0.335,6.927-2.354,9.54
		c-0.046,3.302-0.103,6.596-0.054,9.867c0.119,8.162,0.438,16.317,1,24.464c3.042-8.911,6.902-17.358,9.433-26.478l0.384,0.047
		c-1.22,9.366-5.583,18.63-9.61,27.099l-0.158,0.091l0.031,0.522c0.752,10.45,2.009,20.933,4.125,31.218
		c5.744-9.688,9.604-19.465,13.025-30.191c0.079-0.246,0.421-0.143,0.377,0.105c-1.79,10.452-6.544,22.391-13.212,30.704
		l-0.058,0.03c1.427,6.818,3.231,13.548,5.534,20.124c0.112,0.317-0.384,0.449-0.501,0.139
		c-5.785-15.763-8.632-32.253-10.136-48.923c-0.822-9.093-1.183-18.223-1.42-27.346c-0.015-0.681-0.039-1.372-0.063-2.057
		c-3.502-4.647-6.664-10.211-8.035-15.873L182.806,412.958z"/>
	<path clip-path="url(#SVGID_2_)" fill="#FFFFFF" d="M151.676,479.915c3.368,2.336,6.344,5.183,9.725,7.527
		c2.549,1.769,5.216,3.361,7.923,4.885c-2.364-2.222-4.605-4.69-6.571-7.249l0.288-0.22c2.757,2.171,4.895,5.161,7.217,7.777
		l0.022,0.233c1.138,0.629,2.283,1.251,3.432,1.864c5.197,2.771,10.591,5.232,15.845,7.929c-3.212-2.725-5.977-5.935-9.364-8.49
		c-0.221-0.169-0.037-0.497,0.221-0.376c4.404,2.037,7.436,6.317,10.863,9.605l0.071,0.181c1.999,1.059,3.974,2.158,5.899,3.336
		c0.34,0.207,0.044,0.683-0.304,0.521c-8.438-3.936-16.896-7.963-25.119-12.336c-7.004-3.72-15.788-8.207-20.583-14.753
		C151.056,480.095,151.421,479.738,151.676,479.915"/>
	<path clip-path="url(#SVGID_2_)" fill="#FFFFFF" d="M205.989,504.603c1.175-0.763,2.332-1.543,3.492-2.325l0.002-0.02
		c1.776-3.413,4.268-6.475,6.069-9.927c2.012-3.852,3.666-7.977,4.769-12.187l0.324,0.091c-0.662,4.427-2.425,8.519-4.358,12.53
		c-1.241,2.562-2.7,5.714-4.691,8.063c4.234-2.928,8.342-5.997,12.255-9.322c2.762-7.403,5.641-14.769,8.411-22.17
		c0.1-0.268,0.518-0.167,0.435,0.116c-2.125,7.169-4.519,14.546-7.904,21.257c2.143-1.856,4.227-3.783,6.241-5.814
		c2.185-2.199,4.222-4.527,6.146-6.952l-0.092-0.203c1.249-4.815,3.066-9.732,4.839-14.384l0.299,0.082
		c-1.51,4.347-2.208,9.42-4.316,13.557c1.331-1.729,2.62-3.491,3.821-5.313c2.764-4.195,4.166-8.982,6.703-13.228
		c0.131-0.223,0.549-0.146,0.52,0.145c-0.425,4.359-3.244,8.825-5.469,12.496c-2.977,4.919-6.714,9.374-10.65,13.545
		c-5.685,6.032-12.278,11.598-19.372,16.13c2.558-0.218,5.072-0.296,7.638-0.957c3.347-0.862,6.452-2.586,9.473-4.217
		c0.245-0.134,0.452,0.223,0.218,0.376c-5.243,3.379-12.132,6.772-18.583,5.559c-1.974,1.218-3.976,2.378-6.016,3.429
		C205.959,505.077,205.768,504.749,205.989,504.603"/>
	<path clip-path="url(#SVGID_2_)" fill="#FFFFFF" d="M174.482,453.096c3.684,5.416,6.219,11.735,9.392,17.472
		c3.662,6.624,7.886,12.698,12.726,18.515l-0.208,0.209c-5.027-4.951-8.898-10.942-12.456-16.998
		c-3.551-6.045-7.328-12.48-9.825-19.037C174.022,453.027,174.358,452.919,174.482,453.096"/>
	<path clip-path="url(#SVGID_2_)" fill="#FFFFFF" d="M176.274,426.713c5.353,10.213,9.479,20.755,15.57,30.603l-0.266,0.205
		c-7.137-8.745-11.419-20.31-15.663-30.656L176.274,426.713z"/>
	<path clip-path="url(#SVGID_2_)" fill="#FFFFFF" d="M167.133,496.295c2.232,0.42,4.392,1.221,6.532,1.969
		c2.4,0.838,4.869,1.383,7.284,2.146l-0.043,0.348c-4.552-0.085-9.667-2.569-13.82-4.284L167.133,496.295z"/>
	<path clip-path="url(#SVGID_2_)" fill="#FFFFFF" d="M152.159,484.219c1.345,0.506,2.535,1.378,3.812,2.037
		c1.364,0.704,2.738,1.349,4.046,2.149c0.197,0.119,0.069,0.474-0.163,0.385c-2.559-0.987-6.102-2.076-7.865-4.277L152.159,484.219z
		"/>
	<path clip-path="url(#SVGID_2_)" fill="#FFFFFF" d="M233.003,484.856c2.308-1.595,4.851-2.792,7.15-4.416
		c2.612-1.848,4.951-4.109,7.152-6.417c0.216-0.229,0.533,0.104,0.338,0.335c-3.651,4.368-8.853,9.299-14.521,10.778
		L233.003,484.856z"/>
	<path clip-path="url(#SVGID_2_)" fill="#BDDEEF" d="M300.107,492.486c-15.375-6.432-32.191,9.903-32.191,9.903
		s14.416-14.894,14.718-36.035c0.218-15.061-13.067-36.94-17.736-37.688c-4.669-0.75-17.437,13.323-20.525,40.093
		c-1.441,12.491,4.817,31.27,4.817,31.27s-11.064-25.506-34.71-25.985c-1.82,6.246,4.617,19.965,9.439,28.107
		c4.185,7.066,14.688,19.461,37.432,16.717C289.355,515.488,300.456,492.631,300.107,492.486"/>
	<path clip-path="url(#SVGID_2_)" fill="#FFFFFF" d="M270.234,439.401c-1.899,4.146-3.855,8.171-6.242,12.049
		c0.211-6.374,0.536-12.89,0.044-19.211c-0.044-0.572-0.846-0.572-0.89,0c-0.296,3.81-0.281,7.67-0.23,11.526
		c-0.434-0.814-0.813-1.655-1.106-2.543c-0.449-1.372-0.303-2.771-0.47-4.176l-0.298-0.041c-1.031,2.522,0.269,5.548,1.886,7.643
		c0.037,2.645,0.082,5.285,0.043,7.905c-0.096,6.537-0.351,13.072-0.802,19.6c-2.437-7.141-5.529-13.907-7.557-21.214l-0.308,0.039
		c0.979,7.503,4.473,14.925,7.7,21.706l0.126,0.075l-0.025,0.419c-0.603,8.372-1.61,16.77-3.305,25.012
		c-4.602-7.763-7.694-15.597-10.435-24.19c-0.063-0.194-0.337-0.114-0.302,0.084c1.435,8.374,5.243,17.938,10.585,24.601
		l0.046,0.024c-1.143,5.461-2.588,10.852-4.433,16.12c-0.09,0.255,0.307,0.361,0.4,0.11c4.635-12.627,6.917-25.838,8.121-39.193
		c0.658-7.283,0.948-14.599,1.138-21.907c0.011-0.546,0.031-1.1,0.051-1.648c2.805-3.722,5.338-8.179,6.437-12.714L270.234,439.401z
		"/>
	<path clip-path="url(#SVGID_2_)" fill="#FFFFFF" d="M295.175,493.044c-2.698,1.869-5.083,4.15-7.792,6.029
		c-2.042,1.418-4.179,2.692-6.347,3.913c1.894-1.78,3.689-3.757,5.264-5.808l-0.23-0.177c-2.209,1.739-3.922,4.137-5.782,6.23
		l-0.017,0.188c-0.912,0.504-1.83,1.003-2.749,1.493c-4.163,2.224-8.485,4.191-12.695,6.352c2.573-2.182,4.789-4.753,7.502-6.801
		c0.177-0.134,0.03-0.397-0.177-0.303c-3.528,1.634-5.957,5.063-8.702,7.695l-0.058,0.147c-1.601,0.849-3.183,1.729-4.726,2.67
		c-0.272,0.166-0.036,0.549,0.244,0.419c6.76-3.154,13.536-6.38,20.123-9.884c5.61-2.979,12.648-6.574,16.489-11.819
		C295.671,493.187,295.379,492.901,295.175,493.044"/>
	<path clip-path="url(#SVGID_2_)" fill="#FFFFFF" d="M251.662,512.82c-0.94-0.611-1.869-1.238-2.798-1.862l-0.001-0.015
		c-1.422-2.733-3.418-5.188-4.863-7.955c-1.612-3.085-2.936-6.389-3.821-9.763l-0.258,0.073c0.529,3.545,1.941,6.825,3.491,10.037
		c0.993,2.055,2.163,4.578,3.758,6.46c-3.393-2.347-6.683-4.803-9.817-7.467c-2.213-5.933-4.52-11.832-6.739-17.763
		c-0.081-0.214-0.415-0.132-0.349,0.093c1.703,5.745,3.62,11.655,6.332,17.03c-1.717-1.486-3.386-3.03-4.999-4.657
		c-1.75-1.761-3.382-3.628-4.923-5.569l0.073-0.162c-1.001-3.858-2.457-7.797-3.877-11.523l-0.239,0.064
		c1.209,3.482,1.769,7.546,3.458,10.862c-1.066-1.385-2.099-2.8-3.061-4.258c-2.214-3.359-3.337-7.196-5.37-10.597
		c-0.105-0.18-0.439-0.117-0.417,0.116c0.341,3.493,2.6,7.069,4.382,10.01c2.385,3.94,5.379,7.509,8.532,10.852
		c4.555,4.832,9.836,9.292,15.52,12.923c-2.05-0.177-4.063-0.237-6.119-0.769c-2.681-0.689-5.168-2.07-7.588-3.377
		c-0.197-0.108-0.363,0.18-0.175,0.303c4.2,2.704,9.72,5.425,14.886,4.452c1.582,0.977,3.186,1.905,4.82,2.746
		C251.685,513.2,251.839,512.937,251.662,512.82"/>
	<path clip-path="url(#SVGID_2_)" fill="#FFFFFF" d="M276.903,471.557c-2.951,4.34-4.982,9.402-7.523,13.997
		c-2.934,5.306-6.319,10.171-10.195,14.833l0.166,0.167c4.028-3.967,7.129-8.767,9.98-13.617c2.844-4.842,5.87-9.998,7.871-15.252
		C277.271,471.503,277.003,471.416,276.903,471.557"/>
	<path clip-path="url(#SVGID_2_)" fill="#FFFFFF" d="M275.468,450.422c-4.289,8.181-7.595,16.626-12.473,24.516l0.213,0.164
		c5.719-7.006,9.149-16.271,12.549-24.56L275.468,450.422z"/>
	<path clip-path="url(#SVGID_2_)" fill="#FFFFFF" d="M282.792,506.164c-1.789,0.337-3.519,0.979-5.233,1.579
		c-1.922,0.67-3.901,1.106-5.834,1.718l0.035,0.278c3.647-0.066,7.744-2.059,11.072-3.433L282.792,506.164z"/>
	<path clip-path="url(#SVGID_2_)" fill="#FFFFFF" d="M294.787,496.49c-1.078,0.405-2.031,1.104-3.053,1.633
		c-1.093,0.563-2.195,1.078-3.243,1.722c-0.158,0.096-0.055,0.378,0.131,0.31c2.049-0.793,4.888-1.666,6.301-3.429L294.787,496.49z"
		/>
	<path clip-path="url(#SVGID_2_)" fill="#FFFFFF" d="M230.021,497c-1.849-1.277-3.887-2.236-5.728-3.539
		c-2.093-1.478-3.967-3.288-5.73-5.138c-0.173-0.184-0.427,0.085-0.271,0.269c2.925,3.499,7.092,7.448,11.633,8.635L230.021,497z"/>
	<path clip-path="url(#SVGID_2_)" fill="#BDDEEF" d="M499.678,479.222c-19.193-8.028-40.184,12.359-40.184,12.359
		s17.994-18.588,18.37-44.979c0.274-18.797-16.309-46.109-22.136-47.044c-5.828-0.935-21.766,16.63-25.62,50.045
		c-1.8,15.594,6.011,39.032,6.011,39.032s-13.81-31.836-43.327-32.437c-2.271,7.797,5.765,24.923,11.783,35.085
		c5.224,8.821,18.335,24.292,46.725,20.867C486.255,507.934,500.112,479.403,499.678,479.222"/>
	<path clip-path="url(#SVGID_2_)" fill="#FFFFFF" d="M462.39,412.958c-2.372,5.175-4.813,10.201-7.793,15.04
		c0.264-7.956,0.67-16.09,0.057-23.98c-0.057-0.713-1.055-0.713-1.11,0c-0.37,4.756-0.353,9.573-0.288,14.389
		c-0.542-1.016-1.018-2.067-1.38-3.176c-0.56-1.713-0.379-3.459-0.588-5.211l-0.372-0.052c-1.287,3.149,0.335,6.927,2.355,9.54
		c0.045,3.302,0.102,6.596,0.054,9.867c-0.121,8.162-0.438,16.317-1,24.464c-3.042-8.911-6.902-17.358-9.435-26.478l-0.385,0.047
		c1.221,9.366,5.585,18.63,9.611,27.099l0.158,0.091l-0.032,0.522c-0.75,10.45-2.007,20.933-4.122,31.218
		c-5.745-9.688-9.605-19.465-13.027-30.191c-0.078-0.246-0.421-0.143-0.376,0.105c1.789,10.452,6.544,22.391,13.213,30.704
		l0.057,0.03c-1.426,6.818-3.23,13.548-5.533,20.124c-0.112,0.317,0.383,0.449,0.501,0.139c5.786-15.763,8.633-32.253,10.135-48.923
		c0.823-9.093,1.184-18.223,1.419-27.346c0.016-0.681,0.041-1.372,0.065-2.057c3.502-4.647,6.662-10.211,8.034-15.873
		L462.39,412.958z"/>
	<path clip-path="url(#SVGID_2_)" fill="#FFFFFF" d="M493.521,479.915c-3.37,2.336-6.345,5.183-9.726,7.527
		c-2.55,1.769-5.218,3.361-7.923,4.885c2.364-2.222,4.604-4.69,6.57-7.249l-0.288-0.22c-2.756,2.171-4.895,5.161-7.218,7.777
		l-0.021,0.233c-1.139,0.629-2.283,1.251-3.431,1.864c-5.197,2.771-10.592,5.232-15.847,7.929c3.213-2.725,5.979-5.935,9.366-8.49
		c0.22-0.169,0.036-0.497-0.221-0.376c-4.405,2.037-7.438,6.317-10.865,9.605l-0.071,0.181c-1.998,1.059-3.973,2.158-5.897,3.336
		c-0.342,0.207-0.045,0.683,0.303,0.521c8.438-3.936,16.896-7.963,25.119-12.336c7.004-3.72,15.788-8.207,20.584-14.753
		C494.141,480.095,493.775,479.738,493.521,479.915"/>
	<path clip-path="url(#SVGID_2_)" fill="#FFFFFF" d="M439.206,504.603c-1.175-0.763-2.333-1.543-3.493-2.325l-0.002-0.02
		c-1.776-3.413-4.268-6.475-6.068-9.927c-2.012-3.852-3.667-7.977-4.771-12.187l-0.322,0.091c0.659,4.427,2.424,8.519,4.357,12.53
		c1.24,2.562,2.698,5.714,4.69,8.063c-4.234-2.928-8.342-5.997-12.254-9.322c-2.764-7.403-5.643-14.769-8.412-22.17
		c-0.1-0.268-0.518-0.167-0.436,0.116c2.125,7.169,4.52,14.546,7.904,21.257c-2.142-1.856-4.226-3.783-6.24-5.814
		c-2.185-2.199-4.222-4.527-6.146-6.952l0.092-0.203c-1.249-4.815-3.066-9.732-4.839-14.384l-0.298,0.082
		c1.51,4.347,2.207,9.42,4.316,13.557c-1.332-1.729-2.619-3.491-3.82-5.313c-2.765-4.195-4.166-8.982-6.704-13.228
		c-0.129-0.223-0.549-0.146-0.52,0.145c0.425,4.359,3.244,8.825,5.469,12.496c2.977,4.919,6.715,9.374,10.649,13.545
		c5.685,6.032,12.278,11.598,19.373,16.13c-2.558-0.218-5.073-0.296-7.64-0.957c-3.346-0.862-6.451-2.586-9.473-4.217
		c-0.244-0.134-0.453,0.223-0.218,0.376c5.243,3.379,12.132,6.772,18.581,5.559c1.975,1.218,3.977,2.378,6.017,3.429
		C439.236,505.077,439.426,504.749,439.206,504.603"/>
	<path clip-path="url(#SVGID_2_)" fill="#FFFFFF" d="M470.713,453.096c-3.683,5.416-6.217,11.735-9.391,17.472
		c-3.664,6.624-7.888,12.698-12.728,18.515l0.21,0.209c5.027-4.951,8.896-10.942,12.455-16.998
		c3.552-6.045,7.328-12.48,9.825-19.037C471.174,453.027,470.839,452.919,470.713,453.096"/>
	<path clip-path="url(#SVGID_2_)" fill="#FFFFFF" d="M468.92,426.713c-5.351,10.213-9.478,20.755-15.567,30.603l0.266,0.205
		c7.136-8.745,11.42-20.31,15.663-30.656L468.92,426.713z"/>
	<path clip-path="url(#SVGID_2_)" fill="#FFFFFF" d="M478.063,496.295c-2.233,0.42-4.392,1.221-6.532,1.969
		c-2.4,0.838-4.868,1.383-7.283,2.146l0.043,0.348c4.553-0.085,9.668-2.569,13.82-4.284L478.063,496.295z"/>
	<path clip-path="url(#SVGID_2_)" fill="#FFFFFF" d="M493.034,484.219c-1.344,0.506-2.534,1.378-3.809,2.037
		c-1.365,0.704-2.739,1.349-4.046,2.149c-0.199,0.119-0.069,0.474,0.162,0.385c2.558-0.987,6.101-2.076,7.863-4.277L493.034,484.219
		z"/>
	<path clip-path="url(#SVGID_2_)" fill="#FFFFFF" d="M412.191,484.856c-2.307-1.595-4.851-2.792-7.148-4.416
		c-2.612-1.848-4.952-4.109-7.152-6.417c-0.216-0.229-0.534,0.104-0.338,0.335c3.65,4.368,8.852,9.299,14.52,10.778L412.191,484.856
		z"/>
	<path clip-path="url(#SVGID_2_)" fill="#BDDEEF" d="M345.088,492.486c15.375-6.432,32.191,9.903,32.191,9.903
		s-14.416-14.894-14.717-36.035c-0.218-15.061,13.066-36.94,17.735-37.688c4.67-0.75,17.437,13.323,20.525,40.093
		c1.441,12.491-4.817,31.27-4.817,31.27s11.064-25.506,34.711-25.985c1.819,6.246-4.616,19.965-9.438,28.107
		c-4.186,7.066-14.689,19.461-37.433,16.717C355.84,515.488,344.739,492.631,345.088,492.486"/>
	<path clip-path="url(#SVGID_2_)" fill="#FFFFFF" d="M374.96,439.401c1.899,4.146,3.856,8.171,6.243,12.049
		c-0.21-6.374-0.537-12.89-0.045-19.211c0.045-0.572,0.846-0.572,0.89,0c0.296,3.81,0.281,7.67,0.23,11.526
		c0.434-0.814,0.814-1.655,1.107-2.543c0.448-1.372,0.301-2.771,0.469-4.176l0.298-0.041c1.031,2.522-0.269,5.548-1.886,7.643
		c-0.037,2.645-0.081,5.285-0.042,7.905c0.095,6.537,0.351,13.072,0.8,19.6c2.437-7.141,5.529-13.907,7.558-21.214l0.307,0.039
		c-0.979,7.503-4.473,14.925-7.699,21.706l-0.126,0.075l0.023,0.419c0.603,8.372,1.61,16.77,3.305,25.012
		c4.602-7.763,7.694-15.597,10.436-24.19c0.063-0.194,0.337-0.114,0.301,0.084c-1.433,8.374-5.243,17.938-10.584,24.601
		l-0.047,0.024c1.144,5.461,2.589,10.852,4.434,16.12c0.089,0.255-0.307,0.361-0.401,0.11c-4.634-12.627-6.916-25.838-8.121-39.193
		c-0.658-7.283-0.947-14.599-1.137-21.907c-0.011-0.546-0.032-1.1-0.05-1.648c-2.805-3.722-5.339-8.179-6.437-12.714L374.96,439.401
		z"/>
	<path clip-path="url(#SVGID_2_)" fill="#FFFFFF" d="M350.021,493.044c2.697,1.869,5.083,4.15,7.791,6.029
		c2.042,1.418,4.179,2.692,6.348,3.913c-1.894-1.78-3.69-3.757-5.265-5.808l0.23-0.177c2.209,1.739,3.922,4.137,5.782,6.23
		l0.019,0.188c0.912,0.504,1.829,1.003,2.748,1.493c4.163,2.224,8.485,4.191,12.694,6.352c-2.573-2.182-4.789-4.753-7.502-6.801
		c-0.177-0.134-0.029-0.397,0.177-0.303c3.529,1.634,5.957,5.063,8.702,7.695l0.058,0.147c1.601,0.849,3.183,1.729,4.727,2.67
		c0.272,0.166,0.034,0.549-0.244,0.419c-6.76-3.154-13.536-6.38-20.123-9.884c-5.612-2.979-12.648-6.574-16.491-11.819
		C349.524,493.187,349.817,492.901,350.021,493.044"/>
	<path clip-path="url(#SVGID_2_)" fill="#FFFFFF" d="M393.533,512.82c0.941-0.611,1.869-1.238,2.798-1.862l0.002-0.015
		c1.421-2.733,3.417-5.188,4.862-7.955c1.612-3.085,2.936-6.389,3.821-9.763l0.258,0.073c-0.529,3.545-1.941,6.825-3.49,10.037
		c-0.994,2.055-2.163,4.578-3.758,6.46c3.392-2.347,6.682-4.803,9.816-7.467c2.214-5.933,4.521-11.832,6.739-17.763
		c0.08-0.214,0.415-0.132,0.348,0.093c-1.702,5.745-3.619,11.655-6.33,17.03c1.716-1.486,3.385-3.03,4.998-4.657
		c1.75-1.761,3.383-3.628,4.925-5.569l-0.075-0.162c1.002-3.858,2.456-7.797,3.877-11.523l0.24,0.064
		c-1.21,3.482-1.77,7.546-3.459,10.862c1.065-1.385,2.098-2.8,3.062-4.258c2.214-3.359,3.335-7.196,5.368-10.597
		c0.106-0.18,0.441-0.117,0.418,0.116c-0.342,3.493-2.6,7.069-4.382,10.01c-2.386,3.94-5.38,7.509-8.532,10.852
		c-4.554,4.832-9.835,9.292-15.519,12.923c2.05-0.177,4.064-0.237,6.12-0.769c2.681-0.689,5.169-2.07,7.588-3.377
		c0.196-0.108,0.363,0.18,0.177,0.303c-4.201,2.704-9.721,5.425-14.888,4.452c-1.582,0.977-3.186,1.905-4.819,2.746
		C393.509,513.2,393.355,512.937,393.533,512.82"/>
	<path clip-path="url(#SVGID_2_)" fill="#FFFFFF" d="M368.292,471.557c2.951,4.34,4.982,9.402,7.525,13.997
		c2.934,5.306,6.318,10.171,10.193,14.833l-0.166,0.167c-4.028-3.967-7.129-8.767-9.98-13.617
		c-2.844-4.842-5.869-9.998-7.871-15.252C367.923,471.503,368.192,471.416,368.292,471.557"/>
	<path clip-path="url(#SVGID_2_)" fill="#FFFFFF" d="M369.727,450.422c4.289,8.181,7.595,16.626,12.473,24.516l-0.213,0.164
		c-5.719-7.006-9.148-16.271-12.547-24.56L369.727,450.422z"/>
	<path clip-path="url(#SVGID_2_)" fill="#FFFFFF" d="M362.404,506.164c1.788,0.337,3.519,0.979,5.232,1.579
		c1.923,0.67,3.901,1.106,5.835,1.718l-0.036,0.278c-3.647-0.066-7.744-2.059-11.071-3.433L362.404,506.164z"/>
	<path clip-path="url(#SVGID_2_)" fill="#FFFFFF" d="M350.409,496.49c1.077,0.405,2.03,1.104,3.052,1.633
		c1.093,0.563,2.195,1.078,3.243,1.722c0.158,0.096,0.055,0.378-0.131,0.31c-2.049-0.793-4.888-1.666-6.301-3.429L350.409,496.49z"
		/>
	<path clip-path="url(#SVGID_2_)" fill="#FFFFFF" d="M415.174,497c1.85-1.277,3.887-2.236,5.727-3.539
		c2.094-1.478,3.969-3.288,5.732-5.138c0.172-0.184,0.426,0.085,0.27,0.269c-2.923,3.499-7.09,7.448-11.632,8.635L415.174,497z"/>
	<path clip-path="url(#SVGID_2_)" fill="#BDDEEF" d="M287.667,309.121c0,24.273-15.612,43.95-34.872,43.95
		c-19.259,0-34.872-19.677-34.872-43.95c0-24.273,15.613-43.95,34.872-43.95C272.056,265.171,287.667,284.848,287.667,309.121"/>
	<path clip-path="url(#SVGID_2_)" fill="#BDDEEF" d="M484.248,239.952c0,8.812-5.669,15.956-12.66,15.956
		c-6.993,0-12.662-7.144-12.662-15.956c0-8.813,5.669-15.957,12.662-15.957C478.579,223.995,484.248,231.139,484.248,239.952"/>
	<path clip-path="url(#SVGID_2_)" fill="#99CCE0" d="M486.825,520.947c-41.473,28.2-89.462,42.969-130.047,47.486
		c-3.324,0.369-6.654,0.585-9.997,0.654c-8.401,0.175-16.882,0.281-25.44,0.322c-4.451,0.021-8.9-0.21-13.32-0.737
		c-41.602-4.953-94.296-24.414-138.339-56.367c16.16-7.434,33.98-14.12,53.469-19.37
		C335.448,462.692,436.317,498.225,486.825,520.947"/>
	<path clip-path="url(#SVGID_2_)" fill="#BDDEEF" d="M202.07,199.588c0,1.319-0.848,2.388-1.895,2.388
		c-1.046,0-1.894-1.069-1.894-2.388s0.848-2.388,1.894-2.388C201.223,197.201,202.07,198.27,202.07,199.588"/>
	<path clip-path="url(#SVGID_2_)" fill="#BDDEEF" d="M217.974,204.102c0,1.319-0.849,2.388-1.895,2.388
		c-1.046,0-1.895-1.069-1.895-2.388c0-1.319,0.849-2.388,1.895-2.388C217.125,201.714,217.974,202.782,217.974,204.102"/>
	<path clip-path="url(#SVGID_2_)" fill="#53A59B" d="M271.125,132.77c0,1.319-0.848,2.388-1.896,2.388
		c-1.045,0-1.894-1.069-1.894-2.388s0.848-2.388,1.894-2.388C270.276,130.382,271.125,131.451,271.125,132.77"/>
	<path clip-path="url(#SVGID_2_)" fill="#99CCE0" d="M519.091,344.489c0,1.319-0.847,2.387-1.895,2.387
		c-1.046,0-1.895-1.068-1.895-2.387c0-1.319,0.849-2.388,1.895-2.388C518.244,342.101,519.091,343.17,519.091,344.489"/>
	<path clip-path="url(#SVGID_2_)" fill="#99CCE0" d="M525.542,338.021c0,1.319-0.847,2.389-1.895,2.389
		c-1.046,0-1.895-1.069-1.895-2.389c0-1.319,0.849-2.387,1.895-2.387C524.695,335.633,525.542,336.702,525.542,338.021"/>
	<path clip-path="url(#SVGID_2_)" fill="#BDDEEF" d="M214.185,191.84c0,2.123-1.366,3.846-3.051,3.846
		c-1.685,0-3.051-1.723-3.051-3.846c0-2.124,1.366-3.845,3.051-3.845C212.819,187.995,214.185,189.716,214.185,191.84"/>
	
		<ellipse clip-path="url(#SVGID_2_)" fill="none" stroke="#FFFFFF" stroke-width="1.844" stroke-miterlimit="10" cx="204.129" cy="333.536" rx="3.953" ry="4.982"/>
	
		<ellipse clip-path="url(#SVGID_2_)" fill="none" stroke="#FFFFFF" stroke-width="1.844" stroke-miterlimit="10" cx="427.583" cy="121.049" rx="3.954" ry="4.983"/>
	
		<ellipse clip-path="url(#SVGID_2_)" fill="none" stroke="#FFFFFF" stroke-width="1.844" stroke-miterlimit="10" cx="233.611" cy="105.106" rx="12.605" ry="15.887"/>
	
		<ellipse clip-path="url(#SVGID_2_)" fill="none" stroke="#FFFFFF" stroke-width="1.844" stroke-miterlimit="10" cx="130.224" cy="388.628" rx="25.828" ry="32.553"/>
	<path clip-path="url(#SVGID_2_)" fill="#F0D097" d="M167.611,444.199c-1.03,1.271-2.534,3.2-4.208,5.654
		c-1.163,1.704-5.706,8.367-4.806,9.153c0.801,0.7,5.41-3.707,5.849-3.251c0.349,0.364-2.521,3.201-5.486,7.736
		c-2.639,4.037-5.274,9.298-4.444,9.92c0.509,0.383,1.854-1.322,4.96-3.203c4.93-2.984,10.293-3.984,10.614-3.284
		c0.339,0.734-4.884,3.322-4.538,4.117c0.382,0.88,7.162-1.285,12.465-2.938c5.251-1.636,12.902-3.967,22.435-6.683
		c6.409-9.717,9.464-20.26,5.597-25.153C201.268,430.22,184.719,431.3,167.611,444.199"/>
	<path clip-path="url(#SVGID_2_)" fill="#C96818" d="M376.247,422.438c-2.214,2.316-4.97,5.676-7.392,10.172
		c-2.208,4.098-3.462,7.89-4.201,10.832c4.774,7.592,9.548,15.186,14.32,22.777c3.267-5.812,6.531-11.626,9.795-17.439
		C384.596,440,380.422,431.218,376.247,422.438"/>
	<path clip-path="url(#SVGID_2_)" fill="#7A3D0B" d="M399.297,512.045c7.367,0.229,14.73,0.456,22.096,0.683
		c-0.091-0.791-0.298-1.903-0.819-3.137c-0.986-2.342-2.506-3.716-3.545-4.639c-2.457-2.174-5.072-3.188-6.82-3.682
		c-1.409-13.502-2.818-27.005-4.227-40.507c-7.639-2.092-15.276-4.183-22.915-6.274C388.477,473.674,393.888,492.86,399.297,512.045
		"/>
	<path clip-path="url(#SVGID_2_)" fill="#7A3D0B" d="M274.91,508.771c7.365,0.227,14.73,0.454,22.096,0.683
		c-0.091-0.79-0.298-1.903-0.819-3.139c-0.986-2.34-2.505-3.714-3.546-4.637c-2.455-2.173-5.072-3.188-6.819-3.681
		c-1.878-6.758-3.757-13.516-5.635-20.273c-0.785-2.151-1.727-5.239-2.275-9.052c-0.295-2.055-0.627-4.36-0.409-7.091
		c0.184-2.312,0.892-6.589,4.092-11.457c-8.365,1.5-16.73,3.001-25.097,4.501c-0.166,1.396-0.351,3.536-0.272,6.138
		c0.291,9.497,3.824,15.982,7.899,24.273C266.73,490.342,270.512,498.328,274.91,508.771"/>
	<path clip-path="url(#SVGID_2_)" fill="#7A3D0B" d="M348.424,510.682c7.957,0.317,15.912,0.635,23.868,0.955
		c-0.089-0.791-0.298-1.901-0.819-3.138c-0.986-2.342-2.504-3.716-3.546-4.638c-2.455-2.174-5.071-3.189-6.818-3.682
		c6.046-11.456,12.093-22.913,18.14-34.372c-4.865-7.455-9.73-14.911-14.593-22.366c-4.865,18.64-9.73,37.279-14.594,55.92
		C349.516,503.133,348.97,506.907,348.424,510.682"/>
	<path clip-path="url(#SVGID_2_)" fill="#7A3D0B" d="M225.128,508.499c1.787,0.071,3.575,0.143,5.363,0.214
		c6.168,0.247,12.337,0.495,18.505,0.741c-0.09-0.79-0.298-1.903-0.818-3.139c-0.987-2.34-2.505-3.714-3.547-4.637
		c-2.456-2.173-5.072-3.188-6.819-3.681c1.455-6.211,3.716-13.574,7.32-21.505c2.536-5.582,5.274-10.431,7.911-14.548
		c-5.396-1.729-10.79-3.455-16.186-5.183c-0.892,1.225-2.315,2.991-4.364,4.819c-1.404,1.251-2.162,1.691-2.729,2.182
		c-2.826,2.439-1.968,6.985-1.909,13.82c0.021,2.392-0.501,8.173-1.545,19.731c-0.32,3.543-0.67,6.738-0.717,7.163
		C225.409,506.157,225.244,507.545,225.128,508.499"/>
	<path clip-path="url(#SVGID_2_)" fill="#C96818" d="M251.042,382.475c-2.821,7.164-4.045,13.215-4.637,17.458
		c-1.229,8.799-0.912,18.182-0.819,20.459c0.174,4.271,0.527,7.514,0,12.819c-0.21,2.115-0.558,5.472-1.637,9.274
		c-1.025,3.612-3.245,9.51-8.457,15.82c5.729,1.456,11.458,2.91,17.186,4.366c3.451-4.396,6.69-9.732,9.002-16.095
		C272.509,416.771,254.486,387.804,251.042,382.475"/>
	<path clip-path="url(#SVGID_2_)" fill="#FF9034" d="M308.326,392.295c4.354,12.24-0.54,24.707-2.728,30.279
		c0,0-5.867,14.943-27.278,30.277c-1.208,0.864-3.901,2.781-7.896,3.924c-1.17,0.335-2.349,0.568-3.563,0.715
		c-4.458,0.536-8.158-0.363-10.366-1.093c-0.029-2.912-0.141-7.274-0.544-12.546c-1.322-17.281-4.481-27.498-5.729-34.918
		c-1.626-9.664-1.575-23.896,6.547-43.098C281.568,364.779,302.455,375.791,308.326,392.295"/>
	<path clip-path="url(#SVGID_2_)" fill="#FF9034" d="M268.5,357.924c-6.258,2.204-14.875,5.679-24.515,11.08
		c-26.589,14.895-45.482,35.76-44.316,37.244c0.466,0.594,4.247-2.055,4.715-1.413c0.794,1.089-9.174,9.192-18.623,18.62
		c-8.218,8.201-14.248,15.615-18.151,20.744c2.179-0.148,5.372-0.46,9.194-1.18c4.746-0.892,7.242-1.81,7.778-0.941
		c0.553,0.893-1.576,2.896-4.007,5.892c-3.302,4.072-5.396,7.792-6.634,10.253c1.804-0.797,4.566-1.925,8.048-2.944
		c4.451-1.306,9.839-2.865,10.843-1.415c0.515,0.743-0.23,2.873-6.835,9.43c4.309-0.013,10.596-0.49,17.679-2.83
		c19.452-6.427,29.859-21.935,32.765-26.4c13.278-20.398,5.417-32.933,19.8-58.694C260.728,367.335,265.45,361.436,268.5,357.924"/>
	<path clip-path="url(#SVGID_2_)" fill="#FF9034" d="M406.526,338.284c-4.085,2.342-10.289,5.477-18.276,7.911
		c-8.24,2.512-14.611,3.132-27.278,4.365c-6.563,0.639-13.533,1.317-22.915,1.364c-12.938,0.065-14.508-1.15-29.459-1.364
		c-11.694-0.166-17.678-0.218-24.277,1.364c-6.707,1.608-15.595,3.738-22.914,11.457c-1.665,1.755-11.619,12.253-9.274,24.822
		c0.589,3.161,2.435,9.018,11.729,16.641c6.939,5.688,15.544,10.324,49.102,17.458c31.846,6.769,42.827,6.574,48.555,6.273
		c5.726-0.302,10.909-1.11,21.276-2.729c25.092-3.915,37.637-5.872,42.008-10.365c12.908-13.27,5.676-42.372-3.82-59.193
		C416.29,347.973,410.72,342.084,406.526,338.284"/>
	<path clip-path="url(#SVGID_2_)" fill="#F0D097" d="M380.521,416.845c-3.981,0.972-9.575,1.89-16.185,1.456
		c-13.266-0.875-24.058-6.769-24.914-5.094c-0.459,0.898,2.468,3.123,2.182,3.456c-0.319,0.372-4.002-2.312-9.457-5.817
		c-1.625-1.047-7.406-4.736-8.001-4.002c-0.248,0.307,0.632,1.104,0.728,2.908c0.038,0.711,0.09,1.695-0.364,2.003
		c-1.091,0.731-4.775-2.696-6.91-5.095c-1.663-1.864-3.809-4.699-5.638-8.729c0.254,3.455,0.201,8.545-1.455,14.367
		c-1.06,3.725-2.499,6.773-3.818,9.094c2.978,1.006,7.358,2.406,12.729,3.816c9.144,2.407,19.877,5.229,33.279,5.458
		c5.737,0.097,13.957-0.246,23.823-2.366C377.854,424.481,379.188,420.664,380.521,416.845"/>
	<path clip-path="url(#SVGID_2_)" fill="#F0D097" d="M464.684,360.098c-0.212,0.548-0.527,1.391-0.893,2.417
		c-1.082,2.992-1.799,5.262-2.443,7.341c-0.389,1.257-0.745,2.452-1.145,3.688c0,0-0.064,0.196-0.205,0.612
		c-0.365,1.087-1.264,3.694-2.937,8.184c-5.359,14.366-17.998,37.927-19.073,37.415c-0.395-0.184,0.879-3.412,0.367-3.638
		c-0.621-0.268-2.889,4.3-7.638,8.549c-0.767,0.683-2.009,1.729-2.368,1.454c-0.514-0.387,1.158-3.104,0.906-3.273
		c-0.379-0.252-4.665,5.922-8.184,10.361c-4.588,5.812-12.168,15.406-15.273,14.192c-1.153-0.458-3.589-3.148,1.089-25.458
		c2.205-2.137,5.029-5.305,7.461-9.646c3.533-6.303,4.713-12.373,5.814-12.183c0.857,0.147,0.443,4.277,1.089,4.37
		c0.814,0.113,2.944-6.218,3.759-13.354c0.275-2.382,1.146-11.346-1.909-22.839c-0.324-1.215-0.914-3.4-1.912-6.077
		c-0.216-0.583-0.456-1.194-0.718-1.819c-2.035-4.896-6.285-13.123-15.327-21.336c9.274,3.338,18.597,6.668,27.975,9.983
		c1.835,0.646,3.659,1.293,5.485,1.939C447.331,354.049,456.014,357.091,464.684,360.098"/>
	<path clip-path="url(#SVGID_2_)" fill="#C4A36E" d="M461.348,369.855c-0.387,1.257-0.745,2.452-1.146,3.688
		c0,0-0.063,0.197-0.203,0.611c-5.731,0.169-15.175-0.329-25.711-4.643c-5.264-2.157-9.618-4.778-13.097-7.3
		c-2.668-1.939-4.812-3.814-6.464-5.388c-1.803-1.588-4.494-4.341-6.63-8.479c-1.897-3.66-2.636-7.018-2.951-9.288
		c0-1.116,1.462-1.987,2.431-1.813c11.303,2.059,20.971,8.382,31.031,13.735c7.059,3.758,14.317,7.04,22.473,8.037
		C461.361,361.812,461.564,365.514,461.348,369.855"/>
	<path clip-path="url(#SVGID_2_)" fill="#FF9034" d="M382.794,410.299c-0.253,2.57-0.951,6.422-3.001,10.638
		c-1.558,3.204-3.409,5.612-4.91,7.273c3.001,9.67,6.002,19.338,9.001,29.006c2.943,1.899,7.057,4.115,12.275,5.729
		c3.803,1.175,7.254,1.739,10.093,2.001c2.01-7.661,3.826-17.5,4.092-29.006c0.188-8.153-0.441-15.417-1.363-21.55
		C400.252,413.025,391.523,411.662,382.794,410.299"/>
	<path clip-path="url(#SVGID_2_)" fill="#CC6817" d="M380.703,411.208c0.454,0.044,0.912,3.614,0.092,7.274
		c-0.905,4.031-5.763,10.205-5.763,10.205s-2.202,0.447-2.335,0.363c-0.281-0.173,3.376-3.057,5.096-7.84
		C379.98,415.131,380.221,411.16,380.703,411.208"/>
	<path clip-path="url(#SVGID_2_)" fill="#CC6817" d="M311.198,390.037c-0.447-0.016,0.407,9.357-3.273,21.64
		c-3.49,11.647-9.292,20.017-12.548,24.188c-7.638,9.782-15.946,15.257-15.638,15.638c0.226,0.28,4.784-2.591,9.273-6.365
		c4.43-3.72,16.411-13.604,21.096-30.006C313.906,401.832,311.703,390.054,311.198,390.037"/>
	<path clip-path="url(#SVGID_2_)" fill="#CC6817" d="M199.727,461.608c0.211,0.458,8.121-1.541,16.443-6.724
		c3.033-1.888,14.388-9.683,22.629-25.143c8.132-15.257,8.508-29.466,8.172-29.543c-0.334-0.08-1.693,13.699-11,29.543
		c-1.834,3.122-5.171,8.713-10.687,14.457C213.23,456.756,199.445,460.994,199.727,461.608"/>
	<path clip-path="url(#SVGID_2_)" fill="#AB5C32" d="M486.914,363.374c-0.132,0.039-0.264,0.078-0.393,0.112
		c0.019-0.006,0.032-0.012,0.052-0.017C486.686,363.436,486.8,363.408,486.914,363.374"/>
	<path clip-path="url(#SVGID_2_)" fill="#FF9034" d="M463.99,310.075c0,0,15.633-21.501,38.047-28.397
		c0,0,2.365,22.078-14.907,54.569C487.13,336.247,466.961,330.269,463.99,310.075"/>
	<path clip-path="url(#SVGID_2_)" fill="#F0D097" d="M472.17,316.937c0,0,16.512-21.932,26.832-28.517
		c1.396,7.881-10.433,35.514-14.64,43.816L472.17,316.937z"/>
	<path clip-path="url(#SVGID_2_)" fill="#FF9034" d="M449.537,308.026c0,0-3.844,0.558-10.502-5.683
		c-10.476-9.818-26.049-25.004-30.399-27.732c0,0-10.689,24.195,3.234,60.205C411.87,334.816,440.612,327.138,449.537,308.026"/>
	<path clip-path="url(#SVGID_2_)" fill="#F0D097" d="M434.334,317.554c0,0-12.882-14.973-21.778-32.889
		c-3.19-6.428-8.243,15.753,2.268,44.997L434.334,317.554z"/>
	<path clip-path="url(#SVGID_2_)" fill="#FF9034" d="M495.947,333.596c2.117-8.276-11.634-18.334-15.657-21.45
		c-2.201-1.706-14.282-10.766-30.044-10.345c-18.846,0.501-36.559,14.382-44.759,34.987c9.265,3.698,24.735,8.666,44.281,9.017
		C454.357,345.887,492.693,346.313,495.947,333.596"/>
	<path clip-path="url(#SVGID_2_)" fill="#F0D097" d="M463.113,341.215c4.651-0.84,9.486-2.188,9.486-2.188
		c6.87-1.915,12.477-4.21,16.549-6.097c0,0,14.386-8.012,5.204,4.775c1.562-0.193,3.24-0.144,3.856,0.873
		c2.365,3.908-10.597,22.689-27.425,29.542c-30.532,12.432-62.374-19.067-63.217-21.709c-0.271-0.85,0.003-1.217,0.003-1.217
		c0.695-0.95,3.758,0.651,3.758,0.651s-6.498-4.219-5.786-9.443c0.076-0.551,0.273-0.836,0.365-0.961
		c1.648-2.257,7.784,0.601,8.31,0.852C435.76,341.803,453.392,342.972,463.113,341.215"/>
	<path clip-path="url(#SVGID_2_)" fill="#FF9034" d="M494.595,359.053c-0.519,1.166-1.937,2.335-5.114,3.125
		c-0.432,0.106-0.898,0.22-1.399,0.332c-9.497,2.145-30.751,4.761-43.766-13.016l6.28-5.976
		c-0.164-12.829,5.976-29.442,5.976-29.442c0.149,2.338,4.937,13.552,8.312,18.132c2.071,2.811,8.596,15.939,24.646,21.603
		c0.603,0.212,1.219,0.412,1.852,0.603C493.613,355.434,494.674,357.201,494.595,359.053"/>
	<path clip-path="url(#SVGID_2_)" fill="#F0D097" d="M489.286,362.62c-0.767,0.265-1.527,0.505-2.274,0.727
		c-0.033,0.013-0.065,0.021-0.098,0.027c-0.132,0.039-0.264,0.079-0.391,0.112c-11.491,3.274-20.813,1.64-28.097-1.88
		c-13.675-6.609-20.132-19.89-20.132-19.89l14.937-0.167c12.275,11.564,31.252,18.755,31.252,18.755l4.352,2.096L489.286,362.62z"/>
	<path clip-path="url(#SVGID_2_)" fill="#AB5C32" d="M486.521,363.486c-3.213,1.335-12.229,4.561-22.652,1.438
		c-4.523-1.352-7.952-3.497-10.274-5.266c1.687,0.775,3.296,1.421,4.832,1.949C465.71,365.126,475.032,366.761,486.521,363.486"/>
	<path clip-path="url(#SVGID_2_)" fill="#614B47" d="M494.595,359.053c-0.007,0.136-0.02,0.269-0.035,0.406
		c-0.268,2.005-3.368,3.563-6.479,3.05c-0.449-0.074-0.903-0.19-1.349-0.359c-3.938-1.49-5.126-3.68-4.459-6.032
		c0.428-1.495,3.455-3.13,7.255-2.307c0.043,0.005,0.082,0.016,0.123,0.027c0.64,0.148,1.216,0.343,1.729,0.576
		C493.613,355.434,494.674,357.201,494.595,359.053"/>
	<path clip-path="url(#SVGID_2_)" fill="#7A3E0D" d="M468.227,330.877c0.745-0.87,1.718-1.121,2.076-1.209
		c1.631-0.397,3.853,0.048,4.671,1.52c0.098,0.175,0.389,0.716,0.305,1.393c-0.177,1.426-1.862,2.136-2.228,2.291
		c-0.136,0.056-2.187,0.883-4.019-0.24c-0.376-0.23-1.495-0.917-1.553-2.034C467.438,331.798,467.963,331.187,468.227,330.877"/>
	<path clip-path="url(#SVGID_2_)" fill="#FEFEFE" d="M472.938,331.854c-0.039,0.526-0.499,0.919-1.024,0.879
		c-0.524-0.041-0.918-0.5-0.879-1.025c0.041-0.526,0.499-0.919,1.024-0.879C472.586,330.87,472.979,331.328,472.938,331.854"/>
	<path clip-path="url(#SVGID_2_)" fill="#7A3E0D" d="M448.195,334.857c-0.603-0.975-1.525-1.37-1.866-1.511
		c-1.552-0.642-3.815-0.54-4.849,0.791c-0.123,0.158-0.492,0.647-0.512,1.329c-0.041,1.438,1.515,2.396,1.852,2.604
		c0.125,0.077,2.026,1.207,4.006,0.376c0.408-0.171,1.62-0.68,1.847-1.774C448.837,335.887,448.411,335.203,448.195,334.857"/>
	<path clip-path="url(#SVGID_2_)" fill="#FEFEFE" d="M443.799,335.134c-0.041,0.527,0.353,0.986,0.88,1.025
		c0.524,0.04,0.982-0.354,1.023-0.879c0.039-0.525-0.354-0.984-0.879-1.024C444.298,334.215,443.838,334.609,443.799,335.134"/>
</g>
</svg>
