<?xml version="1.0" encoding="utf-8"?>
<!-- Generator: Adobe Illustrator 26.0.1, SVG Export Plug-In . SVG Version: 6.00 Build 0)  -->
<svg version="1.1" id="Layer_1" xmlns="http://www.w3.org/2000/svg" xmlns:xlink="http://www.w3.org/1999/xlink" x="0px" y="0px"
	 viewBox="0 0 826 742" style="enable-background:new 0 0 826 742;" xml:space="preserve">
<style type="text/css">
	.st0{clip-path:url(#SVGID_00000172401272260137006610000016804967195136297146_);fill:#BDDEEF;}
	.st1{clip-path:url(#SVGID_00000172401272260137006610000016804967195136297146_);fill:#52A7C1;}
	.st2{clip-path:url(#SVGID_00000172401272260137006610000016804967195136297146_);}
	.st3{fill:#52A7C1;}
	.st4{clip-path:url(#SVGID_00000172401272260137006610000016804967195136297146_);fill:#9B795A;}
	
		.st5{clip-path:url(#SVGID_00000172401272260137006610000016804967195136297146_);fill:url(#SVGID_00000024689825793804358710000011779306222199280027_);}
	.st6{fill:#B7303D;}
	.st7{fill:#DE9F7E;}
	.st8{fill:#D38A6A;}
	.st9{fill:#D34047;}
	.st10{fill:#F8AC8B;}
	.st11{fill:#FCB856;}
	.st12{fill:#CE8065;}
	.st13{fill:#FFFFFF;}
	.st14{fill:#6B3628;}
	.st15{fill:#232323;}
	.st16{fill:#282828;}
	.st17{fill:#E5E5E5;}
	.st18{fill:#F4A671;}
	.st19{fill:#E5935C;}
	.st20{fill:#1E1A14;}
	.st21{fill:#96753B;}
	.st22{fill:#140408;}
	.st23{fill:#666666;}
	.st24{fill:#3770ED;}
	.st25{fill:#2554D8;}
	.st26{fill:#E09A61;}
	.st27{fill:#C47947;}
	.st28{fill:#17140C;}
	.st29{fill:#513328;}
	.st30{fill:#3B2314;}
	.st31{fill:#0A338E;}
</style>
<g>
	<g>
		<defs>
			<path id="SVGID_1_" d="M793.2,516.4c-0.8,2.8-1.6,5.7-2.6,8.8c-1.6,4.9-3.2,9.5-4.9,13.9c-0.2,0.4-0.3,0.8-0.5,1.2
				c-13.9,35.8-53.5,60.1-98.2,60.1c0,0-333,0-484.5,0c-48.9,0-93.5-23.6-114.7-60.7c-0.2-0.3-0.4-0.7-0.6-1
				c-4.2-7.4-8.3-15.2-12.2-23.3c-22-46.1-34.5-99.8,3.7-130.5c76.5-61.4,149.4-6.7,164-72.9c13.4-61.1,64.6-120.4,157.8-101.3
				c119.6,24.6,106.4,94,165.1,88.8c58.7-5.2,159.2-44.1,177.4,29.6c18.2,73.7-66.9,136.8-12.8,131.6
				C766,457.3,811.3,449.8,793.2,516.4z"/>
		</defs>
		<clipPath id="SVGID_00000082334698485731820810000017695972645670057873_">
			<use xlink:href="#SVGID_1_"  style="overflow:visible;"/>
		</clipPath>
		<path style="clip-path:url(#SVGID_00000082334698485731820810000017695972645670057873_);fill:#BDDEEF;" d="M808,514.7
			c-0.8,2.9-1.7,5.8-2.7,9c-1.6,5-3.3,9.7-5.1,14.2c-0.2,0.4-0.3,0.8-0.5,1.2c-14.4,36.5-55.7,61.3-102.2,61.3c0,0-346.5,0-504.1,0
			c-50.9,0-97.3-24-119.3-61.9c-0.2-0.4-0.4-0.7-0.6-1.1c-4.4-7.6-8.7-15.5-12.7-23.7c-22.9-47-35.9-101.8,3.8-133
			c79.6-62.6,155.5-6.8,170.6-74.3c14-62.3,67.3-122.8,164.2-103.3c124.5,25,110.7,95.9,171.8,90.6c61.1-5.3,165.6-45,184.5,30.1
			c18.9,75.1-69.7,139.5-13.3,134.2C779.8,454.5,826.9,446.8,808,514.7z"/>
		<path style="clip-path:url(#SVGID_00000082334698485731820810000017695972645670057873_);fill:#52A7C1;" d="M268.3,336.5
			c-9-8.2-20-11.6-31.1-11.2c-1.2-5.1-3.8-9.9-6.9-12.7c-2.8-2.5-6.4-4.2-10.2-4.9c0-26.2-19.8-52-43.2-61.6
			c-23.2-9.5-47.7-5.1-65.8,9.3c-4.5-2.6-9.8-3.5-15.2-3.1c0,0,0,0,0,0c0,0,0,0,0,0c-1.9,0.1-3.9,0.4-5.8,0.8c0,0,0,0,0,0
			c-1.9,0.4-3.7,0.9-5.5,1.5c-0.2,0.1-0.3,0.1-0.5,0.2c-0.9,0.3-1.8,0.7-2.7,1.1c-0.2,0.1-0.5,0.2-0.7,0.3c-0.4,0.2-0.8,0.4-1.3,0.6
			c-0.4,0.2-0.8,0.4-1.2,0.6c-0.4,0.2-0.7,0.4-1.1,0.6c-0.6,0.3-1.2,0.7-1.8,1.1c-0.3,0.2-0.5,0.3-0.8,0.5c-0.6,0.4-1.1,0.7-1.7,1.1
			c-0.1,0.1-0.2,0.2-0.3,0.2c-0.6,0.5-1.3,1-1.9,1.5c-0.2,0.1-0.3,0.3-0.5,0.4c-0.6,0.5-1.2,1-1.7,1.6c-1.1,1.1-2.2,2.3-3.1,3.6
			c-2.4,3.2-4.4,6.9-5.7,10.8c-1.4,3.9-2.2,8.1-2.3,12.2c0,0.8,0,1.7,0,2.5c0.1,2.5,0.4,4.9,1,7.3c-4.1-0.9-8.5,0.7-11.2,4.6
			c-1.5,2.2-2.3,5.1-2.3,8c-1.4-0.2-2.9-0.4-4.3-0.4c-15.7-0.2-30.5,12.7-39.2,27c-0.8,1.3-1.5,2.6-2.2,3.9c-0.7,1.3-1.3,2.6-1.9,4
			c-1.2,2.6-2.1,5.2-2.8,7.7c-0.9,3.5-1.4,7.2-1.5,11c-0.1,16.4,8.2,34.1,23.9,38.9c2.9,11.8,12.1,22.9,22.5,27.6
			c0.5,0.2,1.1,0.5,1.7,0.7c2.9,1,6.3,1.5,10,1.4c5.8-0.1,12-1.5,17.1-4.1c1.3-0.7,2.5-1.4,3.6-2.2c0.3,0.6,0.7,1.2,1.2,1.8
			c0.2,0.3,0.4,0.6,0.7,0.9c1.8,2.3,4.2,4.1,6.9,5.1c1.7,0.6,3.5,0.8,5.3,0.6c2.3-0.3,5.3-1.8,7.2-3.9c2.6,1.9,5.5,3.5,8.5,4.9
			c3,1.4,6.1,2.5,9.2,3.5c4.2,1.4,8.8,2.4,13.7,3c-0.6,13.1-3.6,26.6-5.5,38.4c-3.2,20.6-7.8,40.9-12,61.3c-1.8,8.6-3.3,17.3-4.5,26
			c-0.8,6.1-2.8,15.2-1.5,22h31.5h15.9c1.4-7.9-1.9-16.8-2.6-24.8c-0.9-9.5-1-19.1-0.9-28.6c0.2-19.9,1.5-39.8,0.7-59.8
			c-0.1-3.4-0.3-6.8-0.5-10.2c0.3-3.1,0.6-6.3,1-9.5c0-0.1,0-0.1,0-0.2c0.8-5.6,2.4-11,4.6-16.2c0.8-0.2,1.7-0.5,2.5-0.8
			c1.3,1,2.6,2,4,2.7c0.4,0.2,0.9,0.4,1.3,0.6c1.7,0.7,3.5,1,5.3,0.9c3.1-0.1,6.1-1.4,8.7-3.3c1.5-1.1,2.9-2.4,4.1-3.9
			c2.5,1.9,5.3,3.3,8.3,4.1c1.5,0.4,3.1,0.7,4.7,0.7c1.6,0.1,3.3,0,5.1-0.3c8-1.4,13.9-5.7,18.2-11.4c1.9-2.6,3.6-5.5,4.9-8.6
			c1.1,0.2,2.2,0.3,3.2,0.4c0.2,0,0.5,0,0.7,0.1c1.1,0.1,2.1,0.1,3.2,0.2c0.2,0,0.3,0,0.5,0c1,0,2,0,2.9-0.1c0.2,0,0.4,0,0.6,0
			c1.1-0.1,2.1-0.2,3.2-0.3c0.2,0,0.4-0.1,0.6-0.1c1-0.1,2-0.3,3-0.5c0.1,0,0.2,0,0.3-0.1c1.1-0.2,2.2-0.5,3.3-0.8
			c0.2-0.1,0.4-0.1,0.6-0.2c2.2-0.6,4.4-1.4,6.5-2.3c0.2-0.1,0.3-0.1,0.5-0.2c1.1-0.5,2.1-1,3.2-1.5c0.1,0,0.1-0.1,0.2-0.1
			c1-0.5,2.1-1.1,3.1-1.7c0.1,0,0.1-0.1,0.2-0.1c1-0.6,2.1-1.3,3.1-1.9c0.1-0.1,0.2-0.1,0.2-0.2c2-1.4,4-2.9,5.8-4.5
			c0.1-0.1,0.1-0.1,0.2-0.2c1.9-1.6,3.6-3.4,5.3-5.2c0,0,0.1-0.1,0.1-0.1c0.8-0.9,1.6-1.9,2.4-2.9c0,0,0,0,0,0v0
			c3.4-4.4,6.2-9.2,8.3-14.4C285.8,369.2,282.8,349.6,268.3,336.5z"/>
		<g style="clip-path:url(#SVGID_00000082334698485731820810000017695972645670057873_);">
			<path class="st3" d="M14,628.9c-6.1-9.2-7-20.9-0.6-30.3c6.4-9.3,20.5-15.5,33.6-13.5c13.1,2,23.1,13,20,23.2
				c-3.1-19.7,14.8-40.5,39.4-45.7c24.7-5.2,52.7,5.9,61.7,24.5c-2.8-12.7,12.3-25.2,28.7-26.7c16.4-1.5,32.3,5.7,42.7,15.7
				c10.4,9.9,16.2,22.2,21.9,34.3c3.5-20.8,26.8-38.8,53.3-41.1c26.5-2.3,53.5,11.3,61.7,31c-1.3-18.9,13.6-38.1,35.6-46.2
				c22.1-8,49.9-4.4,67,8.8c3.8-16.2,29.5-23.4,50.3-21.5c31,2.9,58.8,19.9,69.9,42.7c5.6-19.3,28.3-34.9,53.2-36.8
				c25-1.9,50.3,10.1,59.6,28.2c12.4-16.2,30.1-30.6,52.5-37.4c22.4-6.8,49.8-4.5,66.6,8.5c16.8,13,18.7,37.3,1.2,50.3
				c-14,10.4-34.9,11.4-53.8,14.2c-55.7,8.2-110.1,36.7-164.6,25.9c-17.9-3.6-34.8-11.3-53.3-11.1c-26,0.4-52.3,16.3-75.9,8.2
				c-9-3.1-16.1-9.4-25.7-10.9c-12.6-1.9-24.4,5-35.8,9.7c-31.6,13.2-72.3,10.8-100.4-5.8c-43.4,17.2-92,25.8-140.2,25
				c-36.3-0.6-72.3-6.5-108.7-5.5c-13.1,0.4-26.4,1.7-39.2-0.5s-25.2-8.8-28.2-18.7"/>
		</g>
		<polygon style="clip-path:url(#SVGID_00000082334698485731820810000017695972645670057873_);fill:#9B795A;" points="785.2,605.8 
			146.5,605.8 210.7,575.3 721,575.3 		"/>
		
			<linearGradient id="SVGID_00000065787036440794909340000005732342925416162720_" gradientUnits="userSpaceOnUse" x1="737.6328" y1="739.6083" x2="737.6328" y2="739.6083">
			<stop  offset="0.4118" style="stop-color:#E3F4FF"/>
			<stop  offset="0.6431" style="stop-color:#E0F3FF"/>
			<stop  offset="0.8143" style="stop-color:#D7EEFF"/>
			<stop  offset="0.966" style="stop-color:#C7E7FF"/>
			<stop  offset="0.9706" style="stop-color:#C6E7FF"/>
		</linearGradient>
		
			<path style="clip-path:url(#SVGID_00000082334698485731820810000017695972645670057873_);fill:url(#SVGID_00000065787036440794909340000005732342925416162720_);" d="
			M737.6,739.6"/>
		<g style="clip-path:url(#SVGID_00000082334698485731820810000017695972645670057873_);">
			<path class="st6" d="M366.3,560.3c-3.1,42.7,5.8,78.6,18.5,114.3c0.5-3.2,5.7-9.9,20.9-8.8"/>
			<g>
				<path class="st7" d="M469.6,608.6c0.4,0.7,0.7,1.4,1.1,2.1c1,2,2,4,2.7,6.1c1.3,4,2.3,8.3,2.5,12.6c0.1,1.2-3.8,7.8-4.7,8.7
					c-0.9,0.9-3.9,2.3-5,1.6c-0.2,0.4-2.8,1.4-2.1-1.6c-0.6-0.3-2.2-1,2.3-5.5l-0.1,0c-0.5-1.2-0.6-2.8-0.7-3.7
					c-0.4-2-0.6-4.3-1.7-6c-1.8-2.8-2.6-6.5-2.6-11.6c-0.1-1.5,4.3-6.4,5.7-6.1c0.2,0.3,0.5,0.5,0.8,0.8
					C468.4,606.7,469,607.6,469.6,608.6z"/>
				<path class="st8" d="M466.1,632.6c0.2,0.6,0.6,1.1,1.1,1.3c0.3,0.1,0.7,0.1,1,0c0.4-0.1,0.8-0.4,1-0.7c0.3-0.5,0.5-1,0.6-1.5
					c0.7-2.9,0.2-6.1-0.1-8.9c0-0.1-0.1-0.1-0.1-0.1c-0.1,0-0.1,0.1-0.1,0.1c0.4,2.8,0.8,6,0.1,8.8c-0.1,0.5-0.3,1-0.6,1.5
					c-0.2,0.3-0.5,0.5-0.9,0.6c-0.3,0.1-0.6,0.1-0.8,0c-0.4-0.2-0.7-0.6-0.9-1.2c0-0.1-0.1-0.1-0.2-0.1S466,632.5,466.1,632.6
					L466.1,632.6z"/>
			</g>
			<g>
				<path class="st7" d="M431.2,478c12.4,26.9,15.6,46.3,15.6,46.3c0.9,5.9,2,14.3,2.6,24.7c3.1,8.8,6.1,17.7,9.1,26.8
					c3.5,10.5,6.8,20.8,9.9,31.1c-2.4,1.7-4.8,3.5-7.3,5.2c-3.3-5.4-8.3-13.4-14.2-23.2c-11.2-18.5-16.8-27.7-17.9-30.2
					c-11.4-25.3-6.1-31-13.1-55c-1.9-6.4-3.7-14-3.7-20.7c0-4.1,1.5-7.5,3.8-10.9c0.9-1.4,1.9-2.2,3.1-2.7c1.8-0.6,3.4-0.1,4.2,0.1
					C428,471.2,430.8,477.2,431.2,478z"/>
				<path class="st9" d="M450.2,547c-7.6-0.5-15.2-1-22.8-1.5c-1.6-18.8-3.2-37.7-4.8-56.5c0.2-1.5,1.8-10.7,10.1-15.8
					c4.1-2.6,8.2-3.1,10.4-3.2c3.6,10.1,7.3,24,8.6,40.8C452.7,525.1,451.7,537.4,450.2,547z"/>
				<path class="st6" d="M452.8,536.3c-5.1,0-10.3-0.1-15.7-0.4c-8.4-0.4-16.4-1.1-24-2.1c0.6,3.7,1.2,7.3,1.7,11
					c5.8,1.4,12.8,2.7,20.9,3.2c5.8,0.3,11.1,0.2,15.7-0.2C451.9,543.9,452.4,540.1,452.8,536.3z"/>
			</g>
			<path class="st7" d="M427.8,476.1c-0.1,14.9-14.9,26.1-29.2,25.9c-14.7-0.2-29.1-12.5-28.4-26.8c0.7-13.3,14.1-20.8,15.1-21.4
				c2.5-1.4,10.3-5.5,19.8-3.6C416.9,452.6,427.9,463.1,427.8,476.1z"/>
			<path class="st10" d="M385.6,617.7c3.4,2.6,6.3,7.7,7.2,10.6c0.9,2.9,0.8,11.5,3.9,13.9c-0.2,0.6-4.6,4.4-8.2-3.4"/>
			<path class="st9" d="M366.9,599.8c2.1,12,4.7,24.6,7.8,37.8c3.1,13.1,6.5,25.5,10.1,37.1c-0.3,0.2-1.1,0.5-2.1,0.4
				c-1.1-0.1-1.9-0.6-2.2-0.9c-6.5-30.5-12.9-60.9-19.4-91.4"/>
			<path class="st9" d="M396.2,653.8c-8.8-20-17.5-40-26.3-60.1c-0.2-22.3-0.4-44.6-0.5-66.9c-7.8-6.4-12.8-12.6-13.6-16
				c0-0.2-0.7-2.6-1.1-6c-0.1-1.1-0.2-2.2-0.4-3.3c-1.1-11-2-24.4-2.4-30c0.1-1.1,0.4-2.8,1.3-4.5c1.7-3.2,5-6,21.3-10.9
				c2.6-0.8,6.2-1.8,10.6-2.9c0.8-0.4,1.5-0.8,2.3-1.2c1.2-0.7,2.3-1.4,3.3-2c0.1,0.9,0.4,2.1,0.8,3.5c0,0,1.3,4.1,4.1,7.7
				c5,6.3,13.4,8.7,14.7,9.1c1.1,3.1,2.2,6.6,3,10.5c0.5,2.2,0.9,4.3,1.1,6.3c0.4-5.3,0.7-10.7,1.1-16c0.9-0.9,2.1-2.3,2.9-4.3
				c2.2-5.4-0.4-10.4-0.9-11.4c5.1,3.2,9.8,5.3,12.8,6.8c4.5,2.1,8.6,3.6,10.9,5.7c1.1,0.9,1.8,2,1.9,3.2c0.1,0.6,0,1.2,0,1.5
				c-1.3,17-2.1,35.2-2.2,54.5c-0.1,16.5,0.4,32.3,1.3,47.2c14.3,18,28.6,35.9,42.9,53.9C455.7,636.6,425.9,645.2,396.2,653.8z"/>
			<g>
				<path class="st6" d="M415.7,471.1c0.1,5.8-0.2,11.6-0.4,17.4c-0.1,9.6,0,19.4,0.3,29c0,0-0.4-0.4-0.4-0.4c2.3,0,4.6-0.1,6.9-0.1
					c-2.3,0.4-4.6,0.6-6.9,0.9l-0.4,0.1l0-0.4C413,502.1,413.4,486.5,415.7,471.1L415.7,471.1z"/>
			</g>
			<path class="st6" d="M419.2,509.4c0.2,0.4,0.2,0.9,0.1,1.3c-0.3,0.6-0.9,0.9-1.4,0.7c-0.4-0.1-0.8-0.6-0.8-1.1
				c0-0.6,0.4-1.2,0.9-1.4C418.4,508.7,419,508.9,419.2,509.4z"/>
			<path class="st6" d="M419.2,497.4c0.2,0.4,0.2,0.9,0.1,1.3c-0.3,0.6-0.9,0.9-1.4,0.7c-0.4-0.1-0.8-0.6-0.8-1.1
				c0-0.6,0.4-1.2,0.9-1.4C418.4,496.8,418.9,496.9,419.2,497.4z"/>
			<path class="st6" d="M419,485.1c0.2,0.4,0.2,0.9,0.1,1.3c-0.3,0.6-0.9,0.9-1.4,0.7c-0.4-0.1-0.8-0.6-0.8-1.1
				c0-0.6,0.4-1.2,0.9-1.4C418.2,484.4,418.7,484.6,419,485.1z"/>
			<path class="st11" d="M433.6,465.1c-0.6-4.5-3.8-4.7-4.8-4.3c-1.1-2.1-2.8-3-4.6-2.1c-0.4-1.5-3.4-2.5-4.1-1.8
				c0.5,7.3,1.9,77.5-4.6,103.7c-0.3,2.4,14,9.2,19,4.6C434.8,561.8,438.1,485.1,433.6,465.1z"/>
			<path class="st7" d="M371,615c1.4,2.3,2.8,4.6,4.2,7c-0.2,1.9-0.4,4.9,0.4,8.4c0.3,1.4,0.6,4.2,2.6,6.8c3,3.8,4.3,6.4,7.7,7.2
				c0.5,0.4,1.4,1,2.7,1.3c1.6,0.5,3.1,0.3,3.8,0.2c6-0.3,7.5-1.1,7.6-1.9c0.1-0.6-0.7-1.5-1.4-2c-0.7-0.4-1.4-0.4-2.1-0.5
				c-1.8-0.2-3-1.3-3.8-2.1c-2.3-2-2.7-4.8-2.8-5.7c-0.1-0.6-0.5-3.9,0.5-4.3c0.2-0.1,0.6-0.1,1.5,0.8c0.5,1.1,1.2,2.4,2.2,3.7
				c0.7,0.9,1.4,1.6,2,2.3c0.3,0.2,3.7,2,4.8,1.7c0.2-0.1,0.4-0.1,0.6-0.3c0.3-0.3,0.4-0.8,0.2-1.2c-0.2-0.6-0.6-1-0.6-1.1
				c-1.2-1.2-4.4-8.5-5.2-10.1c-1.3-2.7-4-6.5-10.6-10.9c-0.8-2.2-1.5-4.4-2.3-6.6C379,610.1,375,612.5,371,615z"/>
			<path class="st7" d="M371,486.5c6.3,16.8,3.4,42.9,3.4,42.9c-0.7,6.2-2.1,15-4.9,25.4c2.4,8,4.7,16.3,7,24.6
				c3.2,11.8,6.2,23.4,8.9,34.7c-2,1.8-4.3,3.6-6.7,5.4c-1.1,0.8-2.1,1.6-3.2,2.3c-5.7-8.9-11.7-19.4-17.3-31.6
				c-6.5-14.3-11-27.5-14-39c0.1-6.3,0.4-15.3,1.4-26.1c2-20.7,7.1-53.7,13.3-53.8c0.8,0,2.1,1.4,4.6,4.2
				C364.8,477.1,369,481.2,371,486.5z"/>
			<path class="st9" d="M341.8,541.5c4.3,1.4,9.3,2.7,14.9,3.6c8,1.3,15,1.5,20.9,1.2c3.1-13.8,5.1-25.6,6.4-34.7
				c2.3-15.2,2.5-21.4,0.6-28.6c-0.8-3-5.2-18.9-14-20.2c-3.3-0.5-8.2,0.8-10.5,1.4c-2.8,0.8-5.1,1.7-6.6,2.4
				c-0.9,3.1-2.3,8.1-3.7,14.3c-2.5,11.6-3.1,18.9-5.4,39.5C343.8,525.1,342.9,532.4,341.8,541.5z"/>
			<path class="st6" d="M341.6,531.5c5.4,0.9,11,1.7,16.8,2.3c7.9,0.9,15.3,1.4,22.4,1.7c-1.2,4.3-2.4,8.6-3.6,12.9
				c-5.2,0.6-12.1,0.9-20-0.1c-7.1-0.9-13-2.7-17.5-4.4C340.4,539.8,341,535.7,341.6,531.5z"/>
			<path class="st6" d="M415.7,471.1c0.9-1,2.7-3.2,3.4-6.5c1-4.5-0.8-8.1-1.4-9.2c0.7,0.4,1.6,0.8,2.3,1.2c0.9,0.3,1.2,3.2,1.4,4.2
				c0.7,3,0.2,3.9-0.1,11.8c-0.1,2.3-0.1,4.1-0.6,4.2c-0.3,0.1-0.5-1.1-1.9-2.6c-0.5-0.6-0.8-0.8-1.2-1.1c-0.7-0.5-1.3-0.7-1.6-1.4
				C415.8,471.4,415.7,471.2,415.7,471.1z"/>
			<g>
				<path class="st7" d="M418.7,460.7c-8.2,7.2-30.4-7.9-29.6-8.5c5.2-3.7,4.5-12.8,3.1-20.6c-0.5-3.1-1.2-5.9-1.6-8.2
					c5.2-1.9,19.2-2.1,25.2,7.8c2.3,3.7,3.4,8.8,2.6,15.8c-0.5,1.2-0.8,2.5-1,3.7c0,0,0,0.1,0,0.1
					C417,455.6,419.3,459.6,418.7,460.7z"/>
				<path class="st8" d="M418.4,447c-0.5,1.2-0.8,2.5-1,3.7c0,0,0,0.1,0,0.1c-0.9-0.2-2.2-0.5-3.6-0.9c-1.1-0.3-2.9-0.9-4.9-1.9
					c-2.7-1.3-4.9-2.3-6.7-4.7c-0.8-1.1-1.2-2-1.8-3.6c-0.8-1.9-1.7-4.7-2.1-8.3c5.2-3.9,11.8-4.4,16.2-1.3c0.5,0.3,0.9,0.7,1.3,1.1
					C418.1,434.9,419.3,440,418.4,447z"/>
				<path class="st7" d="M430.3,416.9c0,0.1,0,0.2,0,0.3c0,0.5-0.2,1.1-0.4,1.6c0,0-0.2,0.4-0.7,1.9c-0.3,0.8-0.4,4.8-0.1,10.4
					c0,0.9,0,2.3-0.3,4.2c-0.3,2.2-0.9,5.8-3.3,9.5c-0.6,0.9-1.4,2-2.7,3.3c-0.5,0.5-1.2,0.7-1.9,0.7c-0.6,0-1.4-0.1-2.2-0.2
					c-0.1,0-0.4-0.1-0.8-0.2c-2.1-0.3-4.6-0.8-7.2-1.6c-1.6-0.5-3.5-1-4.9-1.6c-3.1-1.3-5.3-3.9-6.2-7.1c-0.6-2-0.8-3.9-1.5-5.9
					c-0.3-1.2-0.5-2.4-0.7-3.7c0-0.1-0.1-0.1-0.1-0.2c-0.3-0.1-0.4,0-0.8-0.1c-3.8-0.4-6.5-5.1-7.2-6.4c-3.1-5.4-4.7-16.9,2.4-23.9
					c4.6-4.5,10.4-4.8,13.6-5.1c4.6-0.4,24.3,1.4,24.4,17.9c0,1.3,0.1,2.7,0.4,4c0,0.2,0.1,0.3,0.1,0.5c0,0.1,0,0.2,0,0.3
					C430.3,416,430.3,416.4,430.3,416.9z"/>
				<path d="M395.9,420.4c1.4,0.9,0.8,2.4,0.9,2.8c0.4,0.3,1.7,0.7,2.1,1c0-1.2-0.1-2.4-0.1-3.6c0.1-1.5,0.5-2.5,0.9-3.1
					c0.5-0.8,1-1,2.1-2.2c0,0,0.9-0.9,1.7-2.1c2.1-3.1,2.9-6.3,3.1-7.5c0.1-0.7,0.2-1.3,0.3-1.7c0.8-0.1,2.1-0.1,3.6-0.1
					c2.3,0.1,3.9,0.3,4.5,0.4c6.3,0.9,9.9-1.9,12.6,0c1,0.7,2.2,2.3,2.1,6.4c2-6,0.8-9.9,0.2-11.5c-4.2-10.3-21.9-14.1-32.3-7.9
					c-2.9,1.8-4.8,4-5.8,5.5c-3,0.9-4.6,2.3-5.4,3.3c-4,4.4-3.2,11.5-2.5,17.9c0.1,1,0.3,1.9,0.3,1.9c0.4,1.9,1,3.2,1.1,3.6
					c1.4,3.3,3.7,12.9,5.3,16.1c0.2,0.4,0.6,1.1,1.3,1.5c0.5,0.2,1.1,0.2,1.4,0.2c0.2-5.1-0.3-8.6-0.8-10.9c0,0,0,0,0-0.1
					c-0.2-0.7-0.7-3.1-1-5.3c-0.4-2.8-0.6-4.2-0.2-4.7C392.2,419.3,394.4,419.4,395.9,420.4z"/>
				<path id="XMLID_00000000198447264227632260000002881398225682537653_" class="st11" d="M381.7,411.6
					c26.8-15.3,42.3-14.7,47.5-14.5c0.9,0.1,2.3,1.7,2.3,4.4c1.3,1.5,1.9,3.9,0.6,5c0,0,0,0.1,0.1,0.1c0.2,0.6-0.4,1.3-1.1,1.4
					c-5.7,0.8-19.7-2.6-44.9,13.5c-0.6,0.5-1.4,0.4-1.9-0.1c-0.5-0.5-1-1.4-1-2.7c-1.6-0.7-1.8-3.5-1.4-4.3
					C381.4,413.1,381.2,411.9,381.7,411.6z"/>
				<path class="st7" d="M396.7,420.8c-0.6-4.4-2.7-5.2-2.7-5.2c-1.6-0.6-3.6,0.2-4.6,1.7c-0.8,1.2-0.6,2.4-0.5,3.3
					c0.2,1.6,0.9,2.8,1.9,4.3c0.8,1.2,1.1,1.7,1.9,2.3c1.4,1,3,1.2,3.8,1.2c0.1-0.1,0.3-0.2,0.5-0.4c0.8-0.9,0.3-2.2-0.1-6.2
					C396.9,421.7,396.8,421.3,396.7,420.8z"/>
			</g>
			<path class="st12" d="M417,438.6c-0.1,0.5,3,2.7,5.8,1.8c1.1-0.4,2.2-1.2,2.1-1.6c-0.1-0.3-1-0.1-2.3,0
				C418.9,439,417.1,438.3,417,438.6z"/>
			<g>
				<path class="st13" d="M423.4,422.1c1.2-2.3,3.3-3.1,4.4-2.4c0.7,0.4,1,1.6,0.8,2.8C427.5,424.7,425.1,424.1,423.4,422.1z"/>
				
					<ellipse transform="matrix(0.1562 -0.9877 0.9877 0.1562 -56.3645 777.4481)" class="st14" cx="426.9" cy="421.7" rx="2.1" ry="1.6"/>
				<ellipse transform="matrix(0.1562 -0.9877 0.9877 0.1562 -56.2425 777.6794)" cx="427.1" cy="421.8" rx="1.1" ry="0.9"/>
				
					<ellipse transform="matrix(0.3213 -0.947 0.947 0.3213 -109.2968 689.6568)" class="st13" cx="426.5" cy="421.1" rx="0.3" ry="0.3"/>
				<path d="M428.6,422.5c0.1-1.1-0.3-2-1-2.5c-1.2-0.7-2.5,0.3-2.9,0.6c-0.7,0.5-1.1,1.1-1.3,1.5c0.1-0.4,0.5-1.2,1.3-1.9
					c0.2-0.1,2-1.6,3.3-0.7C428.8,420.1,429,421.3,428.6,422.5z"/>
			</g>
			<path class="st12" d="M424.6,433.2c0.1,0.2-0.7,1.1-1.8,1.4c-1.8,0.5-3.6-1.3-3.5-1.4c0.1-0.1,1.4,0.9,3.2,0.6
				C423.8,433.7,424.5,433.1,424.6,433.2z"/>
			<g>
				<path d="M408.2,417.4c0.5-0.7,1.3-1.5,2.4-2.2c0,0,0,0,0,0c0.6-0.4,1.3-0.6,2.1-0.6c1.8,0.1,3.5,0.2,5.3,0.2
					c0.1,0.1,0.3,0.4,0.5,0.8c0.1,0.3,0.1,0.6,0.1,0.8c-2.1-0.1-4.1-0.2-6.2-0.3c-0.5,0-0.9,0-1.3,0.2
					C410.1,416.7,409.2,417,408.2,417.4z"/>
			</g>
			<g>
				<path d="M430.3,416.9c-0.2,0-0.4-0.1-0.6-0.1l-5.9,0.2c0-0.2,0-0.5,0.1-0.8c0.1-0.4,0.3-0.7,0.5-0.8c1.7,0,3.4-0.1,5.1-0.1
					c0.3,0,0.6,0,0.9,0.1c0,0.1,0,0.2,0,0.3C430.3,416,430.3,416.4,430.3,416.9z"/>
			</g>
			<g>
				<path class="st13" d="M417.8,422.1c-0.2,0.2-0.6,0.5-1,0.7c-1,0.5-2,0.4-2.5,0.4c-1.9-0.2-3.2-1.3-3.7-1.7
					c0.3-0.5,1.3-2,3.1-2.5c0.5-0.1,1.5-0.4,2.4,0.1C417.7,419.9,417.8,422.1,417.8,422.1z"/>
				<g>
					<path class="st14" d="M416.5,421.4c-0.1,1.1-1,1.9-1.9,1.8c-0.9-0.1-1.6-1.1-1.4-2.2c0.1-1.1,1-1.9,1.9-1.8
						C416,419.3,416.6,420.3,416.5,421.4z"/>
					<path d="M416.1,421.3c-0.1,0.5-0.5,0.9-1,0.9c-0.5-0.1-0.8-0.6-0.7-1.1c0.1-0.5,0.5-0.9,1-0.9S416.1,420.8,416.1,421.3z"/>
					<path class="st13" d="M414.9,420.6c0,0.2-0.2,0.3-0.3,0.3c-0.1,0-0.2-0.2-0.2-0.4c0-0.2,0.2-0.3,0.3-0.3
						C414.8,420.2,414.9,420.4,414.9,420.6z"/>
					<path d="M417.8,422.1c-0.1,0-0.4-2-1.7-2.7c-1.5-0.7-3.7,0.6-5.5,2c1.3-2.7,4.1-3.7,5.6-2.9
						C417.7,419.5,417.9,422.1,417.8,422.1z"/>
				</g>
			</g>
			<g>
				<path d="M395.6,430.5c-0.6,0-0.8-1.2-0.8-2.2l0.4,0.1c0,1.1,0.3,1.7,0.4,1.7c0.1,0,0.4-0.6,0.5-1.7c0-1.1-0.3-1.8-0.4-1.8
					c-0.1-0.1-0.1-0.2,0-0.4c0.6,0,0.8,1.1,0.8,2.1S396.2,430.5,395.6,430.5z"/>
			</g>
			<path class="st6" d="M390,449.9c0.5-0.3,1.1-0.1,1.2,0.5c1,3.6,3.8,11.8,11.7,16.7c2.7,1.7,5.3,2.6,7.5,3.1
				c-1.1,3.2-1.7,5.8-2.2,7.7c-0.3,1.4-0.4,2.2-1.1,2.5c-1.4,0.6-3.8-2-5.9-4.4c-2.6-2.9-6.1-6.8-10.1-11.5
				c-1.1-1.6-2.3-3.4-3.5-5.4c-1.2-2-2.1-4-2.9-5.8c1.1-0.7,2.2-1.4,3.3-2.1C388.7,450.8,389.4,450.3,390,449.9z"/>
			<g>
				<path d="M410.8,466.8c-4.6,0.1-8.3-3.2-11.3-6c-2.3-2.2-5.6-5.7-8.4-10.8c0.1-0.1,0.1-0.3,0.2-0.4c0.1-0.2,0.3-0.4,0.4-0.6
					c3.4,6.4,7.6,10.3,10.3,12.5c3.6,3,7.5,5.3,10.9,3.9c3-1.2,4.8-5.2,4.8-10c0.1,0.2,0.2,0.4,0.4,0.7c0.1,0.3,0.2,0.5,0.3,0.7
					c0,0.8-0.5,7.7-5,9.6C412.3,466.7,411.5,466.7,410.8,466.8z"/>
			</g>
		</g>
		<g style="clip-path:url(#SVGID_00000082334698485731820810000017695972645670057873_);">
			<g>
				<g>
					<g>
						<path class="st13" d="M268.9,636.6c1.7-0.2,3.1,0.2,4.8,0c-0.8-27.6-1.2-48-0.8-59.8c0.1-3.8,0.5-12.9-2.8-24
							c-1-3.4-2.1-6-2.8-7.7C267.8,575.6,268.3,606.1,268.9,636.6z"/>
						<path class="st15" d="M269.6,704.4c0-0.4,0-0.7,0-1c0.3-7.9,0.8-26.7,1.2-77c-0.3-0.6-0.6-1.3-1-1.9c-3.6,0-7.2,0.2-10.7,0.7
							c-4.6,0.6-9.3,1.5-14,2.2c-0.5,3.4-0.5,6.8-0.7,10.1c0,0.3-0.1,1.4-0.2,3c0,0.1,0,0.2,0,0.2c-0.2,7.9-2.8,57.6-2.8,57.6
							c-0.4,7.5-0.9,18.6-1.4,32.1c9.5-0.4,18.9-0.8,28.4-1.2c0.7-16.8,1-23.5,1.1-24.1C269.6,705.1,269.6,704.7,269.6,704.4z"/>
						<path class="st16" d="M243.1,703.4c0-0.4,0-0.7,0-1c0.3-7.9,0.8-26.7,1.2-77c-0.3-0.6-0.6-1.3-1-1.9c-3.6,0-7.2,0.2-10.7,0.7
							c-4.6,0.6-9.3,1.5-14,2.2c-0.5,3.4-0.5,6.8-0.7,10.1c0,0.3-0.1,1.4-0.2,3c0,0.1,0,0.2,0,0.2c-0.2,7.9-2.8,57.6-2.8,57.6
							c-0.4,7.5-0.9,18.6-1.4,32.1c9.5-0.4,18.9-0.8,28.4-1.2c0.7-16.8,1-23.5,1.1-24.1C243.1,704.1,243.1,703.7,243.1,703.4z"/>
						<path class="st17" d="M216.4,543.6c-0.1,0.2-0.4,0.7-0.7,1.3c-2,4.2-1.2,8.3-1.4,12.2c0,0.3,0,1.3,0,2.7c0,0.1,0,0.1,0,0.2
							c0.1,1.9,0,36.6,0.4,51.9c0.2,5.5,0.5,13.5,1.5,23.3c19.1,0.5,38.3,0.9,57.4,1.4c0.3-13.9,0.4-19.4,0.4-19.8c0,0,0-0.3,0-0.6
							c0-0.3,0-0.6,0-0.9c-0.2-7.1-1.2-24-6-69.3c-3.7-2.8-7.4-5.6-11-8.3c-5.8-1.4-11.7-2.7-17.5-4.1
							C231.8,536.8,224.1,540.2,216.4,543.6z"/>
					</g>
					<g>
						<g>
							<g>
								<g>
									<g>
										<g>
											<g>
												<g>
													<path class="st18" d="M240.4,521.6c5.8,0.8,11.7,1.5,17.5,2.3c-0.7,5.1-1.3,10.1-2,15.2c-0.4,0.5-1.4,1.7-3.1,1.9
														c-0.3,0-0.6,0-0.9,0c-0.4,0.8-0.8,1.6-1.1,2.5c-1.1-1.4-2.2-2.7-3.3-4.1c-2.9-2-5.9-4-8.8-6
														C239.2,529.5,239.8,525.5,240.4,521.6z"/>
													<path class="st19" d="M256.7,533.4c0.4-2.8,0.7-5.6,1.1-8.4c-5.6-2.4-11.3-4.7-16.9-7.1c-0.4,2.8-0.7,5.6-1.1,8.5
														c1.6,1.4,4,3.1,7.1,4.6C250.8,532.7,254.3,533.2,256.7,533.4z"/>
													<path class="st20" d="M251.1,456.7c2.9,0.3,7.4,0.9,12.1,3.7c11.5,7,14.4,22.2,13.2,32.6c-0.3,2.6-0.9,4.7-1.3,6.1
														c0,0,0,0.1-0.1,0.1c-0.6,0.9-1.2,1.8-1.9,2.8c-2.2,3-4.5,5.7-6.7,8c-9-6.8-32.2,6.4-32.2,6.4c-1.2-0.4-2.9-1-4.6-2.1
														c-11.3-7.2-11.1-24.6-11-28.6c0.1-5.1,0.2-10.6,3.8-16.4c3.6-5.7,8.5-8.4,10.3-9.4
														C240.4,455.6,247.9,456.4,251.1,456.7z"/>
													<path class="st18" d="M275.4,502.1c0-11,1-12,0.6-18.2c-0.2-3-0.8-7.3-2.8-12.5c0-0.1,0.1-0.4,0-0.9
														c-0.7-5.2-17.3-9.9-30.9-6.2c-3.2,0.9-8.6,2.8-14.3,7.9c-1.3,3-2.9,7.5-3.4,13.1c-1.2,12.8,3.7,22.3,6.1,26.8
														c3.2,6.1,6.6,12.4,13.9,15.6c4.3,1.9,8.4,2.1,11.1,1.9c0.9-0.1,2.6-0.2,4.6-0.9c6.3-2,9.7-6.8,10.8-8.5
														c2.8-4.1,3.6-8,3.9-10.1C275.6,507.5,275.4,506.1,275.4,502.1z"/>
													<g>
														<path d="M252.3,495.8c-4.2-1.7-8.4-0.9-12.5,1c3.1-3.8,8.9-4.6,13.2-2.8C253,493.9,252.3,495.8,252.3,495.8
															L252.3,495.8z"/>
													</g>
													<g>
														<path d="M263.8,493.9c3-2.1,7.6-2,10.1,0.8c-3-1.3-6.3-1.1-8.9,0.8C264.9,495.5,263.8,493.9,263.8,493.9L263.8,493.9z
															"/>
													</g>
													<path class="st20" d="M236.7,480.2c0.6,1.7,1.3,4.2,1.2,7.3c-0.1,3.1-1,5-1.8,7.5c-0.9,2.7-1.8,6.7-2,11.9
														c-2-0.7-5.9-2.4-8.9-6.3c-0.8-1.1-2.2-4-3.6-9.6c-0.6-2.6-2.5-13.1,3.1-22.1c8-12.8,27.2-16.2,39.2-9.8
														c2.5,1.3,4.3,2.9,5.4,4.1c11.9,12.1,6.8,32.6,6,35.9c0.1-2,0.1-4.3-0.2-6.9c-0.5-4-1.6-7.3-2.6-9.8
														c-0.4,0.2-1.1,0.5-2,0.8c-3.8,1.4-15.4,4.9-27.6,0.1C241.4,482.8,239.2,481.8,236.7,480.2z"/>
													<g>
														<g>
															<path class="st19" d="M260.6,509.2c0,1.1-1,2-2,1.9c-0.8-0.1-1.6-0.8-1.6-1.8c0.1,0.1,0.9,0.7,1.9,0.6
																C259.9,509.8,260.4,509.3,260.6,509.2z"/>
														</g>
													</g>
													<g>
														<path class="st18" d="M232.1,499.7c-0.8-2.5-3.6-4.4-5.8-2.8c-3.2,2.4-3,8.2-1.2,11.5c1.1,2,3.6,4.4,5.5,3.1
															C233,509.7,233.6,504.6,232.1,499.7z"/>
													</g>
													<g>
														<path class="st19" d="M251.2,516.9c-0.2,1,3.1,2.9,6.4,2.9c4.1,0,7.7-3.1,7.4-4.1c-0.2-0.5-1.8-0.4-5.1-0.3
															C254.8,515.7,251.3,515.9,251.2,516.9z"/>
													</g>
												</g>
												<g>
													<g>
														<path class="st13" d="M252.2,500.1c-0.4,0.6-1.1,1.5-2.3,2c-2,0.8-4.5,0.2-6.4-1.6c0.5-0.5,1.4-1.3,2.7-1.8
															c0.8-0.3,1.9-0.7,3.3-0.4C251,498.6,251.9,499.7,252.2,500.1z"/>
														<path class="st21" d="M250.3,499c0.3,0.8,0.2,1.7-0.3,2.3c-0.3,0.4-0.9,0.7-1.4,0.8c0,0,0,0,0,0c0,0-0.6,0.1-1.2-0.1
															c-0.6-0.2-1.8-0.9-1.8-2.1c0-0.6,0.3-1.1,0.3-1.2c0.7-1.1,2.5-1.3,3.6-0.6C249.9,498.4,250.2,498.8,250.3,499z"/>
														<path class="st22" d="M249.8,499.6c0.3,0.7-0.2,1.3-0.2,1.3c-0.3,0.4-0.7,0.5-0.7,0.5c0,0,0,0,0,0c0,0-0.3,0.1-0.7,0
															c-0.2,0-0.8-0.2-1-0.8c0-0.1-0.3-0.7,0-1.2c0.4-0.7,1.4-0.8,2.1-0.5C249.2,499,249.6,499.2,249.8,499.6z"/>
														<path class="st13" d="M248,499.5c0.1,0.2,0,0.3,0,0.3c-0.1,0.1-0.2,0.1-0.2,0.1c0,0,0,0,0,0c0,0-0.1,0-0.2,0
															c0,0-0.2-0.1-0.2-0.2c0,0-0.1-0.2,0-0.3c0.1-0.2,0.3-0.2,0.5-0.1C247.8,499.4,247.9,499.4,248,499.5z"/>
														<path class="st22" d="M252.2,500.1c-0.2-0.3-1.3-2.3-3.5-2.7c-3.2-0.5-5.4,2.8-5.3,3c0.1,0.2,2.1-1.9,4.9-1.9
															C249.9,498.6,251.2,499.4,252.2,500.1z"/>
													</g>
												</g>
												<g>
													<g>
														<path class="st13" d="M272.7,499.5c-0.3,0.6-1,1.5-2.2,2c-1.9,0.8-4.3,0.2-6.1-1.6c0.4-0.5,1.3-1.3,2.6-1.8
															c0.8-0.3,1.8-0.7,3.1-0.4C271.6,498.1,272.4,499.1,272.7,499.5z"/>
														<path class="st21" d="M270.9,498.4c0.3,0.9,0.2,1.8-0.3,2.4c-0.3,0.4-0.8,0.7-1.3,0.8c0,0,0,0,0,0
															c0,0-0.6,0.1-1.2-0.1c-0.6-0.2-1.5-0.9-1.6-2c0-0.2-0.1-0.7,0.3-1.3c0.7-1,2.3-1.2,3.4-0.6
															C270.6,497.9,270.8,498.2,270.9,498.4z"/>
														<path class="st22" d="M270.4,499.1c0.3,0.7-0.1,1.3-0.2,1.3c-0.3,0.4-0.6,0.5-0.7,0.5c0,0,0,0,0,0c0,0-0.3,0.1-0.7,0
															c-0.2,0-0.7-0.2-1-0.8c0-0.1-0.3-0.7,0-1.2c0.3-0.7,1.3-0.9,1.9-0.5C269.9,498.5,270.2,498.7,270.4,499.1z"/>
														<path class="st13" d="M270,498.8c0.1,0.2,0,0.3,0,0.3c-0.1,0.1-0.1,0.1-0.2,0.1c0,0,0,0,0,0c0,0-0.1,0-0.2,0
															c0,0-0.2-0.1-0.2-0.2c0,0-0.1-0.2,0-0.3c0.1-0.2,0.3-0.2,0.4-0.1C269.9,498.6,269.9,498.7,270,498.8z"/>
														<path class="st22" d="M272.7,499.5c-0.1-0.3-1.2-2.3-3.3-2.6c-3-0.5-5.1,2.8-5,3c0.1,0.2,1.9-1.9,4.6-1.9
															C270.5,498.1,271.8,498.8,272.7,499.5z"/>
													</g>
												</g>
											</g>
										</g>
									</g>
								</g>
							</g>
						</g>
						<g>
							<path class="st23" d="M256.3,536.6c-0.2,0.6-0.5,1.3-1.1,2.1c-1.1,1.4-2.6,2-3.2,2.3c0.5,0.5,1.2,1.2,1.8,2.2
								c1,1.7,1.1,3.4,1.1,4.3c0.2-0.2,2.6-2.6,3.4-5.1c0.4-1.3,0.5-2.6,0.5-2.6c0-0.5,0-1-0.1-1.3
								C257.8,537.9,257,537.2,256.3,536.6z"/>
							<path class="st23" d="M247.4,539.4c-1.3-0.8-2.6-1.7-3.9-2.7c-1.8-1.3-3.3-2.6-4.7-3.9c-1.2,0.5-2.4,1-3.6,1.6
								c0.4,0.9,1,2.3,1.9,3.9c0.5,1.1,1,1.9,1.2,2.2c2.2,3.5,5.2,5.3,6.7,6.1c-0.1-1.1,0-3,1-5
								C246.4,540.6,246.9,539.9,247.4,539.4z"/>
							<g>
								<path class="st23" d="M247.4,539.4c1.2,1.3,2.4,2.7,3.6,4c0,0,0,0.1,0,0.1l0.7,8.1c0.3,2.7,0.7,5.4,1,8.1
									c0.5,5.5,0.8,11.1,0.8,16.7c-1.9-0.1-3.7-0.2-5.6-0.3c1.8-0.1,3.5-0.2,5.3-0.3l-0.3,0.3c-0.2-2.7-0.4-5.4-0.7-8.1
									c-0.4-5.4-1.1-10.8-1.6-16.3c-0.1-2.5-0.3-6.3-0.1-8C249.5,542.2,248.4,540.8,247.4,539.4L247.4,539.4z"/>
							</g>
						</g>
					</g>
				</g>
			</g>
			<path class="st13" d="M217.5,542.1c-3.1,0.7-5.8,4.2-6.2,8.7c-1.4,26.3-2.9,52.6-4.3,78.9c-0.1,4.6-0.3,9.2-0.4,13.8
				c5.2-0.9,10.4-1.8,15.7-2.6c-0.1-15.9,1.5-28.7,2.9-37.6c3.8-23.5,3.5-35.3,2.7-51.1C227.5,545.3,221.7,541.2,217.5,542.1z"/>
		</g>
		<g style="clip-path:url(#SVGID_00000082334698485731820810000017695972645670057873_);">
			<g>
				<g>
					<g>
						<g>
							<path class="st24" d="M519.8,623.4c0.1,0.3,2,6.1,8.1,7.6c6,1.5,10.3-2.7,10.6-2.9c8.1-17.4,16.3-34.8,24.4-52.2
								c1.6-37.9,3.2-64,5.1-72.1c0.4-1.9,2.3-9-0.8-16.1c-0.6-1.4-1.3-2.5-1.7-3.2c-0.4-0.3-4.6-3.5-9.9-1.9
								c-4.5,1.3-6.4,5.1-6.7,5.7c-1.9,10.7-3.6,22.1-4.9,34.1c-1.8,15.9-2.8,31-3.2,45C533.7,586,526.8,604.7,519.8,623.4z"/>
						</g>
						<path class="st25" d="M545.3,605.4c30.3,0.4,60.5,0.8,90.8,1.2c1.1-42.2,2.1-84.4,3.2-126.7c-10.6-3.7-21.1-7.4-31.7-11.2
							c-4.6-0.7-10.6-1.2-17.5-0.4c-4,0.5-7.6,1.3-10.6,2.1c-4.2,2.1-8.4,4.2-12.7,6.3c-4.2,2.1-8.4,4.2-12.7,6.3c0,0.1,0,5.1,0,5.1
							c-0.1,20.8-0.5,80.3-0.6,101.1C550.8,594.7,548,600.1,545.3,605.4z"/>
						<path class="st26" d="M604.8,468.1c-1.3,1.3-3.2,2.9-5.8,4.3c-1.6,0.8-3,1.4-4.3,1.8c-1.4,2.4-2.7,4.8-4.1,7.2
							c-0.5-2.3-1-4.6-1.5-6.9c-0.5,0.1-1.2,0.2-2.1,0c-2.6-0.6-3.6-3.3-3.8-3.6c0-1.2,0-2.4,0-3.5l-0.2-21.8l21.5-0.3l0.2,18.4
							C604.8,465.2,604.8,466.7,604.8,468.1z"/>
						<path class="st27" d="M604.8,463.8c-2.1,1.7-4,2.7-5.4,3.4c-4.1,2-7.6,2.4-9.4,2.4c-2,0.1-3.1-0.1-4-0.5
							c-1.2-0.4-2-1.1-2.7-1.7l-0.2-21.8l21.5-0.3L604.8,463.8z"/>
						<g>
							<path class="st24" d="M613.1,626.3c5.1,1.9,10.9,3.6,17.3,4.9c2.3,0.5,4.5,0.8,6.6,1.1c7.4-20.6,11-38.5,13-51.4
								c4.8-32.2,1.7-51.6-3.2-82.1c-1.5-9.4-3.3-17.7-8-18.9c-5.9-1.4-14.8,8.8-17.8,19.2c-2.5,8.4-0.8,15.6-0.1,19.2
								c2.4,11.3,4.6,27.9,3.7,51C620.8,588.4,617,607.4,613.1,626.3z"/>
						</g>
					</g>
					<g>
						<g>
							<path class="st26" d="M592.3,468.2c-1.5,0.4-2.5,0.6-3.9,0.4c-3.4-0.5-5.5-3.1-8.6-7c-1.7-2.1-3.4-4.4-5.1-7.9
								c-1.9-4.2-2.4-7.6-3.1-11.8c-0.7-4.1-0.9-7.8-0.8-11c0,0-0.8-7.5-1-9.5c-0.2-2,4.8-11.5,5.5-12.9c7.2-6.1,22.9-7.6,33.4,0.6
								c6.4,5.7,8.3,11.6,8.8,14.1c1.3,5.8,0.3,10.5-0.7,15.2c-0.6,2.8-1.9,7.6-5,12.9c-1.2,2-3.4,5.8-7.4,9.7
								C598.6,466.5,593.5,467.9,592.3,468.2z"/>
							<path class="st28" d="M615.7,404.1c-1.2-1.5-3.2-3.6-6.2-5.2c-5.6-3-11-2.4-16-1.7c-7,0.9-15.4,2-20.4,8.7
								c-2.9,3.9-3.5,8.3-4.1,12c-0.3,2.3-0.9,6.8,0.6,12c0.4,1.5,1,2.7,1.3,3.6c-0.2-2-0.2-4.7,0.4-7.8c0.5-2.8,1.3-5.1,2-6.9
								c2,0.4,4.1,0.8,6.3,1c12.3,1.4,23-1.1,30.7-3.9c-1.2,1.2-3.3,3.7-3.9,7.3c-0.2,1-0.4,2.7,0.3,4.4c0.7,1.7,1.7,2.4,2.3,3.1
								c1.2,1.5,1.8,4.6-1.4,11.8c1,0,3,0,3.4,0.3c2.6,1.5,2.5,4-0.4,10.3c-0.7,1.4-1.5,2.4-2.1,3.1c-0.3,0.4-0.8,1-1.7,2.1
								c-0.6,0.8-1.4,1.4-1.7,1.9c0.7,0,1.2-0.3,2.2-0.7c2.4-0.9,3.8-3.3,4.1-3.9c2.6-5.2,4.7-8.7,7.2-15.3
								c5-13.3,5.4-15.4,5.5-23.1c0.1-5.4-0.8-8.6-3.1-10.7C619.3,404.8,617.1,404.3,615.7,404.1z"/>
						</g>
						<path class="st26" d="M614.2,434.7c3-0.4,2.5,4.6,1.6,6.6c-0.8,1.9-2.1,6.5-4.1,8c-0.8,0.6-1.9,0-2-1
							C609.5,444.1,609.8,435.6,614.2,434.7z"/>
						<path class="st27" d="M585,449.8c0.6,0.1,1.3,0.1,2,0.1c1,0,1.9-0.1,2.6-0.2c-0.6,1-1.7,1.6-2.7,1.5
							C585.7,451,585.1,450,585,449.8z"/>
						<path class="st27" d="M585.6,459.3c0-0.1,0.7,0.1,2,0.1c1.7,0,2.6-0.4,2.6-0.2c0,0.2-1.2,0.9-2.6,0.9
							C586.5,460,585.6,459.4,585.6,459.3z"/>
						<path class="st27" d="M581.5,455c0.1-0.4,1.4-0.3,5-0.3c6.3-0.1,7.8-0.5,7.9-0.2c0.1,0.6-3.9,2.9-8.3,2.4
							C583.7,456.5,581.4,455.4,581.5,455z"/>
						<path class="st28" d="M580.1,431.8c-3-0.2-3.6-0.5-4.8-0.2c-2.1,0.5-3.1,1.9-3.3,1.7c-0.2-0.2,0.8-2.1,2.7-3.1
							c0.7-0.3,1.4-0.5,2.9-0.6c1.4-0.1,3.4-0.1,5.9,0.3c0.1,0.3,0.3,0.8,0.1,1.4c-0.1,0.3-0.2,0.5-0.3,0.7
							C582.5,431.9,581.4,431.9,580.1,431.8z"/>
						<path class="st28" d="M594.5,431.8c3-0.2,3.6-0.5,4.8-0.2c2.1,0.5,3.1,1.9,3.3,1.7c0.2-0.2-0.8-2.1-2.7-3.1
							c-0.7-0.3-1.4-0.5-2.9-0.6c-1.4-0.1-3.4-0.1-5.9,0.3c-0.1,0.3-0.3,0.8-0.1,1.4c0.1,0.3,0.2,0.5,0.3,0.7
							C592.1,431.9,593.2,431.9,594.5,431.8z"/>
						<g>
							<path class="st13" d="M591.3,437.4c0.6,0.5,1.9,1.3,3.6,1.6c2.9,0.4,5.1-1,5.7-1.4c-1-1.1-2.1-1.9-3.3-2.3
								c-0.5-0.2-1.2-0.4-2-0.4C593.1,435,591.6,436.9,591.3,437.4z"/>
							<path class="st29" d="M592.6,436.5c0,1.3,1.3,2.4,2.5,2.4c1.3,0,2.6-1.1,2.5-2.5c0-0.4-0.2-0.8-0.5-1.2
								c-0.4-0.1-0.8-0.2-1.2-0.3c-0.5,0-0.9,0.1-1.4,0.2c-0.3,0.1-0.5,0.2-0.7,0.3c-0.5,0.2-0.9,0.5-1.2,0.8
								C592.6,436.3,592.6,436.4,592.6,436.5z"/>
							<path d="M596.3,436.7c-0.1,0.8-0.7,1.3-1.4,1.2c-0.7-0.1-1.2-0.8-1.2-1.5c0.1-0.8,0.7-1.3,1.4-1.3
								C595.9,435.2,596.4,435.9,596.3,436.7z"/>
							<path class="st13" d="M596.9,436.2c0,0.3-0.3,0.5-0.6,0.5c-0.3,0-0.5-0.3-0.5-0.6c0-0.3,0.3-0.5,0.6-0.5
								C596.7,435.7,596.9,435.9,596.9,436.2z"/>
							<path class="st30" d="M591.3,437.4c0.4-0.4,1.7-1.7,3.8-2c3.2-0.4,5.4,1.9,5.6,2.2c-1.8-2.6-4.7-3.7-6.8-2.8
								C592.3,435.4,591.5,436.8,591.3,437.4z"/>
						</g>
						<g>
							<path class="st13" d="M583.7,437.4c-0.5,0.4-3.2,2.4-6.4,1.4c-0.9-0.3-1.7-0.8-2.2-1.3c0.7-1,1.6-1.8,2.6-2.2
								c1-0.4,2.1-0.5,3.2-0.2c0.4,0.1,0.6,0.2,0.7,0.3C582.7,435.9,583.3,436.9,583.7,437.4z"/>
							<path class="st29" d="M581.4,436.7c0.1,1.4-1.1,2.4-2.3,2.4c-1.2-0.1-2.5-1-2.4-2.6c0-0.4,0.1-0.8,0.4-1.1
								c1-0.4,2.1-0.5,3.2-0.2c0.2,0.1,0.5,0.2,0.7,0.3C581.2,435.8,581.3,436.2,581.4,436.7z"/>
							<path d="M577.4,436.9c0.1,0.8,0.7,1.4,1.4,1.3c0.7-0.1,1.1-0.8,1-1.6c-0.1-0.8-0.7-1.4-1.4-1.3
								C577.8,435.4,577.3,436.1,577.4,436.9z"/>
							<path class="st13" d="M579,436.3c0,0.3,0.3,0.5,0.5,0.5c0.3,0,0.4-0.3,0.4-0.6c0-0.3-0.3-0.5-0.5-0.5S579,436,579,436.3z"/>
							<path class="st30" d="M583.7,437.4c-0.2-0.2-2.1-2.4-4.9-2.1c-2.1,0.2-3.4,1.8-3.7,2.1c0.2-0.5,0.9-2.2,2.5-2.8
								C579.6,433.9,582.1,434.9,583.7,437.4z"/>
						</g>
					</g>
				</g>
			</g>
			<path class="st31" d="M604.8,465.6c-0.7,1.3-2,3.2-3.9,4.9c-2.3,2.1-4.6,3.1-6.1,3.7c1.1,0.8,3.6,3,4.8,6.7
				c0.7,2.2,0.7,4,0.6,5.3c1.9-2.3,4.1-5.4,5.9-9.6c1.2-2.8,2-5.3,2.4-7.5c-0.5-0.6-1.1-1.2-1.7-1.8
				C606,466.6,605.4,466,604.8,465.6z"/>
			<path class="st31" d="M583.3,466.9c-0.6,0.3-1.2,0.7-1.8,1.2c-1.2,0.9-2.1,1.9-2.8,2.8c0.5,1.8,1.1,3.6,1.8,5.5
				c1.2,3.3,2.5,6.4,3.8,9.1c0.7-2,1.5-4.2,2.5-6.4c0.8-1.6,1.5-3.1,2.3-4.5c-0.7-0.3-4.3-1.6-5.5-5.2
				C583.4,468.5,583.3,467.7,583.3,466.9z"/>
			<path class="st31" d="M589.1,474.5l0.7,3.6c0.1,0.6,0.3,1.2,0.5,1.8l0.5,1.8L590,480c-0.2-0.6-0.5-1.1-0.7-1.7l-1.2-3.5
				L589.1,474.5z"/>
			<path class="st31" d="M594.8,474.2c-1.2,2.6-2.5,5.2-3.8,7.7l0-0.1c-0.3,4.3-0.6,8.6-0.8,12.9c-0.3,4.3-0.5,8.6-0.7,12.9
				c-0.5,8.6-0.6,17.2-0.8,25.7l-0.2-0.2c2.5,0.1,5,0.2,7.4,0.4c-2.5,0.1-5,0.1-7.4,0.1l-0.2,0l0-0.2c-0.1-4.3-0.1-8.6-0.1-12.9
				c0.1-4.3,0.2-8.6,0.3-12.9c0.2-4.3,0.5-8.6,0.8-12.9c0.3-4.3,0.8-8.6,1.2-12.8l0-0.1l0,0C591.9,479.1,593.3,476.6,594.8,474.2z"
				/>
		</g>
	</g>
</g>
</svg>
