<?xml version="1.0" encoding="utf-8"?>
<!-- Generator: Adobe Illustrator 26.0.1, SVG Export Plug-In . SVG Version: 6.00 Build 0)  -->
<svg version="1.1" id="Layer_1" xmlns="http://www.w3.org/2000/svg" xmlns:xlink="http://www.w3.org/1999/xlink" x="0px" y="0px"
	 viewBox="0 0 854 544" style="enable-background:new 0 0 854 544;" xml:space="preserve">
<style type="text/css">
	.st0{fill:#A5E0DC;}
	.st1{fill:#BDDEEF;}
	.st2{fill:#EDA48A;}
	.st3{fill:#006293;}
	.st4{fill:#52A7C1;}
	.st5{fill:#E3F4FF;}
	.st6{fill:#21263D;}
	.st7{fill:#99CCE0;}
	.st8{fill:#B1D8FC;}
	.st9{fill:#46738C;}
	.st10{fill:#0F131C;}
	.st11{fill:#19232D;}
	.st12{fill:#9BC2E0;}
	.st13{fill:#6B95AF;}
	.st14{fill:#FCB99B;}
	.st15{fill:#CCCCCC;}
	.st16{fill:#431230;}
	.st17{fill:#580000;}
	.st18{fill:#990000;}
	.st19{fill:#F76467;}
	.st20{fill:url(#SVGID_1_);}
	.st21{fill:#F38D82;}
	.st22{fill:#EA906C;}
	.st23{fill:url(#SVGID_00000062174169182889123100000013584818030369204871_);}
	.st24{fill:#FFFFFF;}
	.st25{fill:#6B3628;}
	.st26{fill:#E7372E;}
	.st27{fill:#C21111;}
	.st28{fill:#FFCC00;}
	.st29{fill:#3E8ACE;}
	.st30{fill:#CD070C;}
	.st31{fill:#E5060B;}
	.st32{fill:#0066A5;}
	.st33{fill:#576B7D;}
	.st34{fill:#5E7389;}
	.st35{fill:#EA4E5A;}
	.st36{fill:#EE252A;}
	.st37{opacity:0.6;fill:#EA906C;}
	.st38{fill:#A0A0A0;}
	.st39{fill:#777777;}
	.st40{fill:#EFEFEF;}
	.st41{fill:#E0E0E0;}
	.st42{fill:#FCFCFC;}
	.st43{fill:#FF335A;}
	.st44{fill:#103C89;}
	.st45{fill:#754026;}
	.st46{fill:#E5E5E5;}
	.st47{fill:#111111;}
	.st48{fill:#EAA77A;}
</style>
<path class="st0" d="M833.1,428.3c-9.9,36.3-22.4,63.5-31.4,80.3c-6.9,12.9-11.8,19.7-11.8,19.7H91.6c0,0-7.1-10.2-17.2-27
	c-35-58.4-105.8-196-39.2-259.4C121,160.2,202.7,233,219,145c15.2-81.4,72.5-160.3,177-134.9c134,32.7,119.2,125.1,185.1,118.2
	c65.8-6.9,178.4-58.7,198.8,39.3c20.4,97.9-75,182-14.3,175C807.3,337.8,860.7,327.2,833.1,428.3z"/>
<g>
	<path class="st1" d="M832.6,431.8c-9.9,36.3-22.3,63.5-31.2,80.3c-6.9,12.9-11.7,19.7-11.7,19.7H95.3c0,0-7.1-10.2-17.1-27
		c-34.8-58.4-105.2-196-39-259.4c85.3-81.7,166.5-8.9,182.8-96.9c15-81.2,72-160.1,175.9-134.7c133.3,32.6,118.6,125.1,184,118.1
		c65.5-6.9,177.4-58.7,197.7,39.3c20.2,97.9-74.6,182-14.2,175C806.9,341.4,860,330.7,832.6,431.8z"/>
	<g>
		<g>
			<path class="st2" d="M527,257.9c-29.6-0.7-59.1-1.4-88.7-2.2c-0.9-0.6-1.9-1.2-2.8-2c-2.2-1.9-3.8-3.9-4.8-5.5
				c-4.4-11.7-8.9-23.3-13.3-35l20.9-7.5c3,8.8,6.1,17.7,9.2,26.6c10.4,2.9,21.6,5.6,33.6,7.9c17.9,3.5,34.6,5.5,49.8,6.7
				c-1,1.8-2,4.1-2.8,6.7C527.6,255.1,527.3,256.5,527,257.9z"/>
		</g>
		<g>
			<g id="a1_acton_3_Layer1_0_MEMBER_3_MEMBER_0_FILL_00000125581748890143353700000001929492426083529899_">
				<path class="st3" d="M440.3,199.7c-2.8-10-5.5-19.1-13.1-25.8c-2.1-1.8-4-3-5.1-3.7c-1.1,5.2-2.1,10.9-2.8,17.2
					c-0.9,8.3-1.1,16-0.9,22.7c0.9,3,1.9,6.1,2.8,9.1l21.6-9.1C441.8,205.6,440.9,202,440.3,199.7z"/>
			</g>
		</g>
		<g>
			<g>
				<g>
					<path class="st4" d="M800.4,514.4c-6.9,12.8-11.7,19.4-11.7,19.4H96.5c0,0-7-10.1-17-26.7c84.3-5.6,196-9,318.6-9
						C567.6,498.1,716.3,504.6,800.4,514.4z"/>
					<g>
						<g>
							<g>
								<path class="st5" d="M128.3,455.7c2.8-31.7-18.2-78.1-55-80c-7.8-0.4-13.7,0.8-12.2,9.5c1,6,4.4,11.7,8,16.6
									c9.6,13,21.3,20.7,33.5,31.1c5.5,4.7,10.6,9.1,16.2,13.4c1.9,1.5,3.3,3.1,4.8,5c1,1.2,4.2,5.8,4,4.8L128.3,455.7z"/>
							</g>
							<g>
								<path class="st6" d="M132.8,488.7c-0.2,0-0.5-0.2-0.5-0.4c0-0.3,0-0.7-0.1-1.2c-0.2-3.8-0.8-15.3-5.1-30.7
									c-8.2-29-22.8-45.7-45.4-64.8c-0.2-0.2-0.2-0.5-0.1-0.7c0.2-0.2,0.5-0.2,0.7-0.1c22.7,19.2,37.4,36,45.7,65.3
									c4.4,15.5,4.9,27.1,5.1,30.9c0,0.6,0,1,0.1,1.2C133.3,488.4,133.1,488.6,132.8,488.7C132.8,488.7,132.8,488.7,132.8,488.7z"
									/>
							</g>
						</g>
						<g>
							<g>
								<path class="st7" d="M121.3,271.9c4.1,7.6-2.3,15.6-1.8,23.4c1.3,21.8,38.7,18.7,34.5,41.8c-0.8,4.7-3.7,8.8-6.8,12.2
									c-2.5,2.8-7.3,5.7-8,9.8c-1.4,7.7,10,12.5,14.1,17.4c6,7.1,7.9,17,1.9,24.8c-5.8,7.5-6.5,6.2-5.7,16.7
									c0.7,9.3-1.3,28.6-7.8,36.8c-8.1-41.1-21.1-35.8-36.9-37.2c-8.7-0.8-19.7-7.4-17.4-16.3c2.3-9.3,2.9-11.6,7.9-19
									c6.7-10-4.2-15.4-12.4-17.5c-10.5-2.7-12.2-5.6-15.3-17.7c-1.3-5.2-0.4-10.5,2.3-15.2c3-5.1,9.1-7.5,12.2-12.2
									c5.7-9-8.6-12.3-14.1-16c-6-4.1-7.9-9.4-5.2-16.1c1.3-3.1,3.1-5.9,6-7.6c2.1-1.2,6.5-1.3,7.9-3.5c1.1-1.7-0.6-5.8-0.4-8
									c0.3-2.7,1.3-5.4,3.4-7.3c6.1-5.5,13.8,1.9,20.4,2.7C107.8,264.8,116.8,263.7,121.3,271.9z"/>
							</g>
							<g>
								<path class="st6" d="M136.7,487.5c0,0-0.1,0-0.1,0c-0.3-0.1-0.4-0.3-0.3-0.6c5.1-18.8,5.5-42,5.3-49.3
									c-0.7-21.8-5.2-44.5-13.3-67.5c-8.9-25.5-18-50.2-30.3-71c-0.1-0.2-0.1-0.5,0.2-0.7c0.2-0.1,0.5-0.1,0.7,0.2
									c12.3,20.9,21.4,45.6,30.3,71.2c8.1,23.2,12.6,46,13.3,67.8c0.3,7.4-0.2,30.7-5.3,49.6C137.1,487.3,136.9,487.5,136.7,487.5
									z"/>
							</g>
							<g>
								<path class="st6" d="M108.2,318c0,0-0.1,0-0.1,0c-0.3-0.1-0.4-0.3-0.4-0.6c1-4.3,1.8-10.3,2.5-17.2c0-0.3,0.3-0.5,0.5-0.4
									c0.3,0,0.5,0.3,0.4,0.5c-0.7,7-1.6,13-2.5,17.3C108.6,317.8,108.4,318,108.2,318z"/>
							</g>
							<g>
								<path class="st6" d="M113.8,331.5c-0.1,0-0.2,0-0.2-0.1c-3-1.7-5.4-3.2-7.7-4.6c-3.6-2.2-6.6-4.1-10.7-5.9
									c-0.2-0.1-0.4-0.4-0.3-0.6c0.1-0.2,0.4-0.4,0.6-0.3c4.1,1.8,7.2,3.7,10.8,5.9c2.3,1.4,4.7,2.9,7.7,4.6
									c0.2,0.1,0.3,0.4,0.2,0.7C114.1,331.4,114,331.5,113.8,331.5z"/>
							</g>
							<g>
								<path class="st6" d="M122.4,352.6c0,0-0.1,0-0.1,0c-0.3-0.1-0.4-0.3-0.4-0.6c0.5-2.4,1.3-5.4,2.1-8.7
									c0.8-3.3,1.6-6.7,2.2-9.5c0.1-0.3,0.3-0.4,0.6-0.4c0.3,0.1,0.4,0.3,0.4,0.6c-0.6,2.8-1.5,6.2-2.2,9.5
									c-0.8,3.3-1.5,6.3-2.1,8.7C122.8,352.5,122.6,352.6,122.4,352.6z"/>
							</g>
							<g>
								<path class="st6" d="M124.6,358.8c-0.1,0-0.2,0-0.3-0.1c-2.1-1.3-5.3-2.7-8.7-4.2c-3.6-1.6-7.3-3.2-10.5-4.9
									c-0.2-0.1-0.3-0.4-0.2-0.7c0.1-0.2,0.4-0.3,0.7-0.2c3.1,1.8,6.8,3.4,10.4,4.9c3.4,1.5,6.7,2.9,8.9,4.2
									c0.2,0.1,0.3,0.4,0.2,0.7C125,358.7,124.8,358.8,124.6,358.8z"/>
							</g>
							<g>
								<path class="st6" d="M133,382.8c-0.1,0-0.1,0-0.2,0c-0.3-0.1-0.4-0.4-0.3-0.6c2-5.3,3.1-7.9,5.2-12.6l1.1-2.6
									c0.1-0.2,0.4-0.4,0.6-0.3c0.2,0.1,0.4,0.4,0.3,0.6l-1.1,2.6c-2.1,4.7-3.2,7.3-5.2,12.6C133.4,382.7,133.2,382.8,133,382.8z"
									/>
							</g>
							<g>
								<path class="st6" d="M136.1,395.7c-0.1,0-0.2,0-0.3-0.1c-3.5-2.3-6.2-4-8.6-5.5c-4.1-2.5-7-4.4-10.3-6.9
									c-0.2-0.2-0.2-0.5-0.1-0.7c0.2-0.2,0.5-0.2,0.7-0.1c3.2,2.5,6.1,4.4,10.2,6.9c2.4,1.5,5.2,3.2,8.6,5.5
									c0.2,0.1,0.3,0.4,0.1,0.7C136.5,395.6,136.3,395.7,136.1,395.7z"/>
							</g>
							<g>
								<path class="st6" d="M139.8,414.4c-0.1,0-0.1,0-0.2,0c-0.2-0.1-0.4-0.4-0.3-0.6c1.4-3.4,3.5-7,5.3-10.2
									c1.2-2.1,2.3-4,3.1-5.6c0.1-0.2,0.4-0.3,0.6-0.2c0.2,0.1,0.3,0.4,0.2,0.6c-0.8,1.6-1.9,3.6-3.1,5.7
									c-1.8,3.2-3.9,6.8-5.2,10.1C140.2,414.3,140,414.4,139.8,414.4z"/>
							</g>
						</g>
						<g>
							<g>
								<path class="st5" d="M144.8,455.7c-2.8-31.7,18.2-78.1,55-80c7.8-0.4,13.7,0.8,12.2,9.5c-1,6-4.4,11.7-8,16.6
									c-9.6,13-21.3,20.7-33.5,31.1c-5.5,4.7-10.6,9.1-16.2,13.4c-1.9,1.5-3.3,3.1-4.8,5c-1,1.2-4.2,5.8-4,4.8L144.8,455.7z"/>
							</g>
							<g>
								<path class="st6" d="M140.3,488.7c0.2,0,0.5-0.2,0.5-0.4c0-0.3,0-0.7,0.1-1.2c0.2-3.8,0.8-15.3,5.1-30.7
									c8.2-29,22.8-45.7,45.4-64.8c0.2-0.2,0.2-0.5,0.1-0.7c-0.2-0.2-0.5-0.2-0.7-0.1c-22.7,19.2-37.4,36-45.7,65.3
									c-4.4,15.5-4.9,27.1-5.1,30.9c0,0.6,0,1-0.1,1.2C139.8,488.4,140,488.6,140.3,488.7C140.2,488.7,140.3,488.7,140.3,488.7z"
									/>
							</g>
						</g>
						<polygon class="st7" points="153.2,518 120.6,518 108.2,468.6 165.6,468.6 						"/>
					</g>
				</g>
				<g>
					<g>
						<g>
							<g>
								<g>
									<rect x="400.5" y="382.4" class="st8" width="18.9" height="34"/>
								</g>
								<g>
									<rect x="397.2" y="379.2" class="st9" width="25.6" height="8.8"/>
								</g>
								<g>
									<rect x="399.1" y="408.4" class="st9" width="21.9" height="62.9"/>
								</g>
							</g>
							<g>
								<g>
									<path class="st10" d="M519.7,497.7c0,5.3-4.3,9.6-9.6,9.6c-5.3,0-9.6-4.3-9.6-9.6c0-5.3,4.3-9.6,9.6-9.6
										C515.4,488.1,519.7,492.4,519.7,497.7z"/>
								</g>
								<g>
									<g>
										<path class="st9" d="M514.3,495.1c-0.5,0-1,0-1.5-0.2l-104.3-20.6c-4.3-0.8-7.1-5-6.2-9.3c0.8-4.3,5-7.1,9.3-6.2
											l104.3,20.6c4.3,0.8,7.1,5,6.2,9.3C521.3,492.5,518,495.1,514.3,495.1z"/>
									</g>
								</g>
							</g>
							<g>
								<g>
									<path class="st10" d="M297.6,499.1c0,3.9,3.2,7.1,7.1,7.1c3.9,0,7.1-3.2,7.1-7.1c0-3.9-3.2-7.1-7.1-7.1
										C300.8,492,297.6,495.2,297.6,499.1z"/>
								</g>
								<g>
									<g>
										<path class="st9" d="M306.3,495.1c0.5,0,1,0,1.5-0.2l104.3-20.6c4.3-0.8,7.1-5,6.2-9.3c-0.8-4.3-5-7.1-9.3-6.2
											l-104.3,20.6c-4.3,0.8-7.1,5-6.2,9.3C299.3,492.5,302.6,495.1,306.3,495.1z"/>
									</g>
								</g>
							</g>
							<g>
								<g>
									<path class="st10" d="M400.4,505.3c0,5.3,4.3,9.6,9.6,9.6c5.3,0,9.6-4.3,9.6-9.6c0-5.3-4.3-9.6-9.6-9.6
										C404.7,495.7,400.4,500,400.4,505.3z"/>
								</g>
							</g>
							<g>
								<g>
									<path class="st9" d="M410.3,501.1c4.4,0,7.9-3.5,7.9-7.9V466c0-4.4-3.5-7.9-7.9-7.9c-4.4,0-7.9,3.5-7.9,7.9v27.2
										C402.4,497.6,406,501.1,410.3,501.1z"/>
								</g>
							</g>
						</g>
						<g>
							<g>
								<g>
									<g>
										<path class="st9" d="M464.3,375.8c-1.2,0-2.3-0.3-3.4-1c-2.9-1.9-3.8-5.8-2-8.7c0.2-0.2,15.6-24.6,24.3-42.5
											c3.3-6.7,3.7-12.8,1.2-16.9c-2.1-3.4-6.3-5.3-11.7-5.3h-58.3c-3.5,0-6.3-2.8-6.3-6.3s2.8-6.3,6.3-6.3h58.3
											c9.8,0,17.9,4.1,22.4,11.2c4.9,7.9,4.7,18.3-0.6,29.1c-9.1,18.4-24.4,42.6-25,43.6C468.4,374.7,466.4,375.8,464.3,375.8z"
											/>
									</g>
								</g>
								<g>
									<g>
										<path class="st8" d="M492.4,324.5c-0.1,0-0.2,0-0.3-0.1c-0.3-0.2-0.4-0.5-0.3-0.8c3.5-7.1,3.2-14.8-0.7-21
											c-3.7-5.9-10.1-9.6-16.7-9.6h-22.2c-0.3,0-0.6-0.3-0.6-0.6c0-0.3,0.3-0.6,0.6-0.6h22.2c7.1,0,13.9,3.9,17.8,10.2
											c4.1,6.6,4.4,14.8,0.7,22.3C492.9,324.3,492.6,324.5,492.4,324.5z"/>
									</g>
								</g>
							</g>
							<g>
								<g>
									<path class="st11" d="M515.9,380.7h-65.9c-15.3,0-26.8-4.9-34.2-14.6c-7.1-9.3-10.4-22.5-10.4-41.6V187.1
										c0-5.2,4.2-9.5,9.5-9.5c5.2,0,9.5,4.2,9.5,9.5v137.3c0,34.4,12.1,37.3,25.6,37.3h65.9c5.2,0,9.5,4.2,9.5,9.5
										C525.4,376.4,521.1,380.7,515.9,380.7z"/>
								</g>
							</g>
							<g>
								<polygon class="st12" points="410.3,374 324.1,374 304.2,348.2 304.2,177.7 410.3,177.7 								"/>
							</g>
							<g>
								<path class="st13" d="M400.8,324.5V187.1c0-5.2,4.2-9.5,9.5-9.5c5.2,0,9.5,4.2,9.5,9.5v137.3c0,34.4,12.1,37.3,25.6,37.3
									h-37C403.3,352.8,400.8,340.8,400.8,324.5z"/>
							</g>
							<g>
								<path class="st9" d="M495.8,351.6c-5.1,0-182.4,0-182.4,0s8,12.6,17.3,12.6c9.3,0,184.3,0,184.3,0S509.3,351.6,495.8,351.6z
									"/>
							</g>
							<g>
								<path class="st9" d="M425.1,361.7h68.4h18.7c5.2,0,9.5,4.2,9.5,9.5c0,5.2-4.2,9.5-9.5,9.5h-87.1
									c-15.3,0-15.8-17.4-16.7-18.9H425.1z"/>
							</g>
							<g>
								<g>
									<path class="st9" d="M432.7,380.7h-93.4c-15.3,0-26.8-4.9-34.2-14.6c-7.1-9.3-10.4-22.5-10.4-41.6V187.1
										c0-5.2,4.2-9.5,9.5-9.5c5.2,0,9.5,4.2,9.5,9.5v137.3c0,34.4,12.1,37.3,25.6,37.3h93.4c5.2,0,9.5,4.2,9.5,9.5
										C442.2,376.4,438,380.7,432.7,380.7z"/>
								</g>
							</g>
							<g>
								<g>
									<path class="st9" d="M411.9,244.6h-89.2c-1,0-1.9-0.8-1.9-1.9c0-1,0.8-1.9,1.9-1.9h89.2c1,0,1.9,0.8,1.9,1.9
										C413.8,243.7,412.9,244.6,411.9,244.6z"/>
								</g>
							</g>
						</g>
						<g>
							<g transform="matrix( 0.9983978271484375, -0.05657958984375, 0.0879364013671875, 0.996612548828125, -63.2,4.35) ">
								<g>
									<g transform="matrix( 1, 0, 0, 1, 0,0) ">
										<g>
											<g id="Cloth_1Lad1y_R_leg_0_Layer2_0_FILL_00000035512243729607070970000001658623467863615157_">
												<path class="st14" d="M495,489c0,0.1,0.1,0.3,0.1,0.4c0.6,1.7,1.2,3.5,1.9,5.2c0.7,1.7,1.3,3.4,2,5.2
													c0.1,0.2,0.2,0.5,0.3,0.7c2.5,6.2,4.6,11.1,6.3,14.5c1.1,2.6,2,4.4,3,5.4c0.9,0.9,1.5,1.5,1.6,1.8
													c0.4,0.7,0.9,1.5,1.6,2.5c0.2,0.3,0.4,0.6,0.5,0.9c0.6,1.7,0.8,3.1,0.6,4.2c-0.4,1.9-2.4,2.5-5.8,1.8
													c-2.4-0.5-5.6-1.7-9.6-3.7c-2.2-1.4-4.2-3.3-5.9-5.5c-2-4.6-4.3-8.5-7.1-11.5c-1-1.1-2-2.1-3-3c-1.6-2.1-2.5-4-2.6-6
													l0,0c0,0,0-0.1,0-0.1c0-0.2,0-0.3,0-0.5l0,0c0,0,0,0.1,0,0.1c0-0.3,0-0.5,0-0.8c0-0.3,0.3-1.2,1-2.8
													c0.3-0.7,0.5-1.3,0.7-1.6c0-0.1,0.1-0.1,0.1-0.2c0.4-0.6,0.5-2,0.5-4.3c0,0,0,0,0,0l0.1-2.7c1.1,0.2,1.8,0.4,2.1,0.4
													c2.9,0.6,6.9,0.6,12,0.2C495.1,489.4,495.1,489.2,495,489z"/>
											</g>
										</g>
									</g>
									<g transform="matrix( 1, 0, 0, 1, 0,0) ">
										<g>
											<g id="Cloth_1Lad1y_R_leg_0_Layer1_0_MEMBER_0_FILL_00000049919744911363569430000001427958059281680570_">
												<path class="st15" d="M497.1,528.7L497.1,528.7L497.1,528.7L497.1,528.7z"/>
											</g>
										</g>
									</g>
									<g transform="matrix( 1, 0, 0, 1, -34.5,0) ">
										<g transform="matrix( 1, 0, 0, 1, 0,0) ">
											<g>
												<g id="Hands_1s1hoe_rht_0_Layer1_0_FILL_00000097501700707434909110000007158926511436243108_">
													<path class="st16" d="M516.2,511.1L516.2,511.1L516.2,511.1L516.2,511.1 M552.1,540.4l0.1,0.1c0.3-0.2,0.5-0.4,0.7-0.7
														C552.7,539.9,552.4,540.2,552.1,540.4z"/>
													<path class="st17" d="M552.2,540.4l-0.1-0.1c-1.7,1-5.6,0.6-11.9-1.4c-6.2-2-10.5-4.1-12.6-6.3
														c-1.4-1.6-2.5-3.1-3.2-4.4c-0.3-0.6-0.5-1.2-0.7-1.8c-2.1-8.1-3.9-13-5.2-14.5l0-0.1l-0.1,0l-0.1-0.1l0,0l0-0.1l0,0
														l0,0l-1.7-1.3c-0.1,0.2-0.1,0.3-0.2,0.5l0.1,0.1c-0.4,0.8-0.7,1.6-1,2.5c-1.2,3.5-2.1,7.8-2.6,12.7
														c0.7,0.1,1.3-0.1,1.8-0.5c0-0.2,0-0.4,0.1-0.6c0.2-4.3,0.9-7.5,2.1-9.8l1.6-2.8c0.1,0,0.2,0.1,0.2,0.2
														c1.4,1.5,3.1,6.3,5.1,14.4c0.1,0.6,0.4,1.2,0.7,1.8c0.7,1.3,1.8,2.8,3.2,4.3c2.1,2.2,6.3,4.3,12.5,6.2
														c6.2,1.9,10.1,2.3,11.8,1.3C551.8,540.8,552,540.6,552.2,540.4 M517.9,512.5L517.9,512.5L517.9,512.5
														C518,512.5,518,512.5,517.9,512.5z"/>
													<path class="st18" d="M546.3,524.7c-0.6-1-1.2-1.8-1.6-2.5c0.3,0.2,0.7,0.8,1.3,1.5c0.4,0.4,0.8,1,1.3,1.6
														c0.7,0.9,1.4,1.9,2.3,3.1c2.7,3.5,4.1,6.2,4.3,8.1c0.1,1.3-0.2,2.3-0.9,3.2c-0.3,0.2-0.5,0.4-0.9,0.6
														c-1.7,1-5.6,0.6-11.9-1.4c-6.2-2-10.5-4.1-12.6-6.3c-1.4-1.6-2.5-3.1-3.2-4.4c-0.3-0.6-0.5-1.2-0.7-1.8
														c-2.1-8.1-3.9-13-5.2-14.5l0-0.1l-0.1,0l-0.1-0.1l0,0l0-0.1l0,0l0,0l-1.7-1.3c-0.1,0.2-0.1,0.3-0.2,0.5l0,0l0.1,0
														c-0.4,0.8-0.7,1.6-1,2.5c-1.2,3.5-2.1,7.8-2.6,12.7c0.7,0.1,1.3-0.1,1.8-0.5c0,0.4,0,0.8,0,1.2c0,0.1,0,0.3,0,0.4
														c-0.7,0.4-1.4,0.5-2.2,0.4c-0.7-0.1-1.1-0.2-1.3-0.5c0.2-0.6,0.3-1.2,0.5-1.8c1.1-4.6,1.1-8.6,0.1-12.1
														c-0.8-2-0.8-4.6-0.2-7.5c0-0.1,0-0.2,0.1-0.3c0.5-2.4,1.2-4.4,2.2-6c0.1-0.2,0.2-0.3,0.3-0.5c-0.2,0.6-0.4,1.3-0.4,2
														c0,0.2,0,0.5,0,0.8c0.1,1.9,1,3.9,2.6,6c1.1,0.9,2.1,1.9,3,3c2.8,3.1,5.2,6.9,7.1,11.5c1.8,2.2,3.7,4,5.9,5.5
														c12.5,6,17.4,5.2,14.9-2.3C546.6,525.3,546.5,525,546.3,524.7z"/>
												</g>
											</g>
										</g>
									</g>
								</g>
								<g>
									<g transform="matrix( 1, 0, 0, 1, 0,0) ">
										<g>
											<g id="Cloth_1Lad1y_R_leg_0_Layer2_0_FILL_00000092415167143123101120000006239768627966538428_">
												<path class="st14" d="M469.3,493.4c0,0.1,0.1,0.3,0.1,0.4c0.6,1.7,1.2,3.5,1.9,5.2c0.7,1.7,1.3,3.4,2,5.2
													c0.1,0.2,0.2,0.5,0.3,0.7c2.5,6.2,4.6,11.1,6.3,14.5c1.1,2.6,2,4.4,3,5.4c0.9,0.9,1.5,1.5,1.6,1.8
													c0.4,0.7,0.9,1.5,1.6,2.5c0.2,0.3,0.4,0.6,0.5,0.9c0.6,1.7,0.8,3.1,0.6,4.2c-0.4,1.9-2.4,2.5-5.8,1.8
													c-2.4-0.5-5.6-1.7-9.6-3.7c-2.2-1.4-4.2-3.3-5.9-5.5c-2-4.6-4.3-8.5-7.1-11.5c-1-1.1-2-2.1-3-3c-1.6-2.1-2.5-4-2.6-6
													l0,0c0,0,0-0.1,0-0.1c0-0.2,0-0.3,0-0.5l0,0c0,0,0,0.1,0,0.1c0-0.3,0-0.5,0-0.8c0-0.3,0.3-1.2,1-2.8
													c0.3-0.7,0.5-1.3,0.7-1.6c0-0.1,0.1-0.1,0.1-0.2c0.4-0.6,0.5-2,0.5-4.3c0,0,0,0,0,0l0.1-2.7c1.1,0.2,1.8,0.4,2.1,0.4
													c2.9,0.6,6.9,0.6,12,0.2C469.4,493.8,469.4,493.6,469.3,493.4z"/>
											</g>
										</g>
									</g>
									<g transform="matrix( 1, 0, 0, 1, 0,0) ">
										<g>
											<g id="Cloth_1Lad1y_R_leg_0_Layer1_0_MEMBER_0_FILL_00000018953482725289234350000018251944268912495769_">
												<path class="st15" d="M471.4,533.1L471.4,533.1L471.4,533.1L471.4,533.1z"/>
											</g>
										</g>
									</g>
									<g transform="matrix( 1, 0, 0, 1, -34.5,0) ">
										<g transform="matrix( 1, 0, 0, 1, 0,0) ">
											<g>
												<g id="Hands_1s1hoe_rht_0_Layer1_0_FILL_00000134954763229311208590000001960439447692432302_">
													<path class="st16" d="M490.5,515.5L490.5,515.5L490.5,515.5L490.5,515.5 M526.4,544.8l0.1,0.1c0.3-0.2,0.5-0.4,0.7-0.7
														C527,544.3,526.7,544.6,526.4,544.8z"/>
													<path class="st17" d="M526.5,544.8l-0.1-0.1c-1.7,1-5.6,0.6-11.9-1.4c-6.2-2-10.5-4.1-12.6-6.3
														c-1.4-1.6-2.5-3.1-3.2-4.4c-0.3-0.6-0.5-1.2-0.7-1.8c-2.1-8.1-3.9-13-5.2-14.5l0-0.1l-0.1,0l-0.1-0.1l0,0l0-0.1l0,0
														l0,0l-1.7-1.3c-0.1,0.2-0.1,0.3-0.2,0.5l0.1,0.1c-0.4,0.8-0.7,1.6-1,2.5c-1.2,3.5-2.1,7.8-2.6,12.7
														c0.7,0.1,1.3-0.1,1.8-0.5c0-0.2,0-0.4,0.1-0.6c0.2-4.3,0.9-7.5,2.1-9.8l1.6-2.8c0.1,0,0.2,0.1,0.2,0.2
														c1.4,1.5,3.1,6.3,5.1,14.4c0.1,0.6,0.4,1.2,0.7,1.8c0.7,1.3,1.8,2.8,3.2,4.3c2.1,2.2,6.3,4.3,12.5,6.2
														c6.2,1.9,10.1,2.3,11.8,1.3C526.1,545.1,526.3,545,526.5,544.8 M492.2,516.9L492.2,516.9L492.2,516.9
														C492.3,516.9,492.3,516.9,492.2,516.9z"/>
													<path class="st18" d="M520.6,529c-0.6-1-1.2-1.8-1.6-2.5c0.3,0.2,0.7,0.8,1.3,1.5c0.4,0.4,0.8,1,1.3,1.6
														c0.7,0.9,1.4,1.9,2.3,3.1c2.7,3.5,4.1,6.2,4.3,8.1c0.1,1.3-0.2,2.3-0.9,3.2c-0.3,0.2-0.5,0.4-0.9,0.6
														c-1.7,1-5.6,0.6-11.9-1.4c-6.2-2-10.5-4.1-12.6-6.3c-1.4-1.6-2.5-3.1-3.2-4.4c-0.3-0.6-0.5-1.2-0.7-1.8
														c-2.1-8.1-3.9-13-5.2-14.5l0-0.1l-0.1,0l-0.1-0.1l0,0l0-0.1l0,0l0,0l-1.7-1.3c-0.1,0.2-0.1,0.3-0.2,0.5l0,0l0.1,0
														c-0.4,0.8-0.7,1.6-1,2.5c-1.2,3.5-2.1,7.8-2.6,12.7c0.7,0.1,1.3-0.1,1.8-0.5c0,0.4,0,0.8,0,1.2c0,0.1,0,0.3,0,0.4
														c-0.7,0.4-1.4,0.5-2.2,0.4c-0.7-0.1-1.1-0.2-1.3-0.5c0.2-0.6,0.3-1.2,0.5-1.8c1.1-4.6,1.1-8.6,0.1-12.1
														c-0.8-2-0.8-4.6-0.2-7.5c0-0.1,0-0.2,0.1-0.3c0.5-2.4,1.2-4.4,2.2-6c0.1-0.2,0.2-0.3,0.3-0.5c-0.2,0.6-0.4,1.3-0.4,2
														c0,0.2,0,0.5,0,0.8c0.1,1.9,1,3.9,2.6,6c1.1,0.9,2.1,1.9,3,3c2.8,3.1,5.2,6.9,7.1,11.5c1.8,2.2,3.7,4,5.9,5.5
														c12.5,6,17.4,5.2,14.9-2.3C520.9,529.6,520.8,529.4,520.6,529z"/>
												</g>
											</g>
										</g>
										<g transform="matrix( 1, 0, 0, 1, 0,0) ">
											<g>
												<g id="Hands_1s1hoe_rht_0_Layer1_1_FILL_00000022527325267256944600000003231212372304713092_">
													<path class="st19" d="M486.9,507.8c0.8,2.9,1.5,4.7,2.2,5.3c-0.6,2.1-1.3,4.5-2.1,7.2l-0.7-5.1"/>
												</g>
											</g>
										</g>
									</g>
								</g>
							</g>
							<g>
								<g>
									<g transform="matrix( 1.0998382568359375, 0.017730712890625, -0.017730712890625, 1.0998382568359375, -2.05,-472) ">
										<g transform="matrix( 1, 0, 0, 1, 0,0) ">
											<g>
												<g id="Hair_1c2h_hair_ul_0_Layer0_0_MEMBER_0_FILL_00000015319821405912483130000003716672489050883499_">
													<path d="M370.2,516c0.2,0.1,0.4,0.3,0.6,0.4c0.7,0.6,1.3,1.3,2,1.9c3.7,3.8,6.5,8.1,8.4,12.9c1.9,4.8,2.9,9.8,2.9,15.2
														c0,5.4-0.6,10.2-1.8,14.4c-1.2,4.2-3.2,7.3-5.8,9.1c-2.6,1.9-5.3,3.1-8.1,3.7c-2.6,0.6-5.4,0.4-8.4-0.6
														c-2.5-0.8-5.1-2.2-7.7-4.1c-3.5-2.6-6.7-5.6-9.4-9.1c-0.6-0.7-1.1-1.5-1.7-2.2c-1.8-2.5-3.3-5.2-4.5-8
														c-0.3-0.8-0.7-1.5-1-2.3c-0.1-0.1-0.1-0.2-0.1-0.3c-2.2-5.7-2.9-11.3-2.2-16.9c0.8-6.2,3.2-11.1,7.3-14.5
														c2.8-2.3,6.1-3.8,9.9-4.5c3.7-0.6,7.4-0.4,11,0.6C364.8,512.7,367.6,514.1,370.2,516z"/>
												</g>
											</g>
										</g>
									</g>
									
										<g transform="matrix( 0.9995880126953125, 0.0284576416015625, -0.0284576416015625, 0.9995880126953125, -8.95,-341.75) ">
										<g transform="matrix( 1, 0, 0, 1, 0,0) ">
											<g>
												<g id="Body_1la3dy_body_0_Layer2_0_FILL_00000106830578692241964450000007206846926159554467_">
													
														<linearGradient id="SVGID_1_" gradientUnits="userSpaceOnUse" x1="-541.4177" y1="1406.9436" x2="-478.9468" y2="1372.743" gradientTransform="matrix(-1.3173 3.750317e-02 -3.750317e-02 -1.3173 -228.8531 2348.6855)">
														<stop  offset="5.490200e-02" style="stop-color:#DA776A"/>
														<stop  offset="0.4078" style="stop-color:#EB9A90"/>
														<stop  offset="1" style="stop-color:#FA9A90"/>
													</linearGradient>
													<path class="st20" d="M374,515.1l-3.1,0.1c-0.1-2.7,0.5-5.2,1.7-7.5C372.5,510.3,373,512.7,374,515.1z"/>
													<path class="st14" d="M372.6,507.7c0.1-0.2,0.4-0.7,1-1.4c0.6-0.7,2-1.9,4.3-3.6c2.3-1.7,5.5-3.2,9.7-4.6
														c11.7-2.5,20-5.6,25-9.3c11.5,3.5,18.8,6,21.9,7.4l0,0c4.9,1.2,7.6,3.7,10.4,5.2c3.2,1.7,5.4,3.7,5.9,5.7
														c0.6,2.8,1.9,3.8,2.2,5.6l-79.1,2.2C373,512.7,372.5,510.3,372.6,507.7z"/>
													<path class="st21" d="M412.6,488.6C412.6,488.6,412.6,488.6,412.6,488.6c11.6,3.6,18.9,6,22,7.5l0,0
														c4.9,1.2,8.7,2.6,11.5,4.2c-2.8-1.5-6.7-2.8-11.6-4l0,0c-3.1-1.4-10.4-3.9-21.9-7.4c-4.9,3.7-13.3,6.8-25,9.3
														c-4.2,1.4-7.5,2.9-9.7,4.6c-2.3,1.7-3.7,2.9-4.3,3.6c-0.6,0.8-0.9,1.2-1,1.4c-1.3,2.3-1.8,4.7-1.7,7.5l-0.2,0
														c-0.1-3,0.6-5.7,2.1-8.1c0.8-1.4,2.1-2.5,3.7-3.5c2.7-2.1,6.4-4,11.1-5.6C399.3,495.4,407.6,492.3,412.6,488.6
														L412.6,488.6z"/>
												</g>
											</g>
										</g>
										<path class="st14" d="M389.2,500.4c2.3,1.1,5.5,4.1,9.6,8.9c4.1,4.9,10.8,6.3,20.1,4.4c9.3-1.9,15.2-4.5,17.6-7.6l0.2-0.2
											c1.1-1.4,1.7-3,1.8-4.8c0-0.2,0-0.4,0-0.6c0-1.4-0.4-2.5-1.2-3.3l0,0c-6.7-2.5-11.2-4.7-13.6-6.7
											c-0.1-0.2-0.1-0.4-0.2-0.5c-0.5-1.3-0.9-2.6-1.1-3.9c-0.1-0.3-0.1-0.7-0.2-1.1c0-0.3,0-0.5,0-0.8c0-0.2,0-0.4,0-0.6
											c0-0.1,0-0.1,0-0.2c0-1.7,0.3-3.4,0.8-5c0.4-5.4-1-8.9-4.1-10.7c-3-1.8-7.7-1.8-14.1-0.1c0,0-0.1,0-0.1,0.1c0,0,0,0,0,0
											c0.2,1.7,0.2,3.4,0,5.2c0,0.2,0,0.4-0.1,0.6c-0.1,1.1-0.3,2-0.4,2.5l0,0c-0.2,1.1-0.5,2.3-0.9,3.5
											c-0.3,1.1-0.7,2.3-1.2,3.4c-0.1,0.3-0.3,0.6-0.4,0.9c-0.3,0.7-0.7,1.3-1,2c-1.2,2.2-2.7,4.4-4.4,6.5l0,0
											c-1.5,1.7-3.4,3.1-5.7,4.3c-0.7,0.4-1.4,0.7-2,1c-1.2,0.4-2.1,0.8-2.6,1C385.9,498.7,386.9,499.3,389.2,500.4z"/>
										<g transform="matrix( 1, 0, 0, 1, 0,0) ">
											<g>
												<g id="Cloth_1ch_head_0_Layer3_0_MEMBER_0_FILL_00000137099320070857591660000001520693407173451184_">
													<path class="st22" d="M403.4,479.4c1.2,0.9,3.3,2.2,7.2,4.1c4.9,2.5,7.1,2.7,8.6,2.8c1.2,0.1,2.2-0.1,3.2-0.3
														c-0.1-0.3-0.1-0.7-0.2-1.1c0-0.3,0-0.5,0-0.8c0-0.2,0-0.4,0-0.6c0-0.1,0-0.1,0-0.2c0-1.7,0.3-3.4,0.8-5
														c0.4-5.4-1-8.9-4.1-10.7c-3-1.8-7.7-1.8-14.1-0.1c0,0-0.1,0-0.1,0.1c0,0,0,0,0,0c0.2,1.7,0.2,3.4,0,5.2
														c0,0.2,0,0.4-0.1,0.6c-0.1,1.1-0.3,2-0.4,2.5l0,0C404.1,477,403.8,478.2,403.4,479.4z"/>
												</g>
											</g>
										</g>
									</g>
									<g transform="matrix( 1.0998382568359375, 0.017730712890625, -0.017730712890625, 1.0998382568359375, -2.05,-472) ">
										<g transform="matrix( 1, 0, 0, 1, 0,0) ">
											<g>
												<g id="Cloth_1ch_head_0_Layer3_0_MEMBER_0_FILL_00000094618138405331277010000015327065496747592848_">
													<path class="st14" d="M344.1,508.7c3.7-5.5,9.3-9,16.9-10.3c6.8-1.2,12.6-0.3,17.3,2.9c0.1,0,0.1,0.1,0.1,0.1
														c0.4,0.3,0.8,0.6,1.2,0.9c0,0,0,0,0,0c4.9,3.9,7.6,8.5,8,13.6c0.4,5.1,0.4,9-0.2,11.7l0,0.2l-0.2,5.9
														c-0.1,1.7-0.4,4.3-0.9,7.7c-0.6,4.6-1.9,8.4-3.7,11.5l-3.1,5c-1.6,3.8-4.3,5.6-8.3,5.3c-1.4-0.1-3.3-0.3-7.8-2.6
														c-4-2.1-5.9-3.4-6.9-4.2c-5.1-4.2-6.9-10.5-7.5-13.8c-0.1,0.2-0.4,0.4-0.7,0.6c-1,0.6-1.2,0.3-1.3,0.2
														c-0.5-0.1-1.2-0.5-1.9-1.6c-3.5-5.4-3.9-15.8-3.9-15.8c-0.3-5.9,0.1-8.2,0.5-9.5c0.5-1.8,0-3.6,0.9-5.4
														C343,510.5,343.5,509.6,344.1,508.7z"/>
												</g>
											</g>
										</g>
										<g transform="matrix( 0.9879913330078125, 0, 0, 0.7599945068359375, -0.1,-13.1) ">
											<g>
												<g id="Cloth_1ch_head_0_Layer3_0_MEMBER_1_FILL_00000128461951491751915700000018175403098138398360_">
													
														<linearGradient id="SVGID_00000114069842601215394000000000337317970919659940_" gradientUnits="userSpaceOnUse" x1="-1620.2067" y1="1756.4847" x2="-1618.875" y2="1756.4847" gradientTransform="matrix(-1.4318 3.695291e-02 -9.595884e-03 -1.1017 -337.6498 2637.3665)">
														<stop  offset="0" style="stop-color:#FF4145"/>
														<stop  offset="1" style="stop-color:#EE252A"/>
													</linearGradient>
													<path style="fill:url(#SVGID_00000114069842601215394000000000337317970919659940_);" d="M376.9,709.1
														c0-0.5,0.1-1,0.4-1.4c0.2-0.4,0.5-0.6,0.9-0.6c0.4,0,0.7,0.1,0.9,0.5c0.2,0.4,0.4,0.8,0.4,1.4c0,0.5-0.1,1-0.3,1.3
														c-0.2,0.4-0.6,0.6-0.9,0.6c-0.4,0-0.7-0.2-0.9-0.5C377,710,376.9,709.6,376.9,709.1z"/>
												</g>
											</g>
										</g>
										<g transform="matrix( 1, 0, 0, 1, 0,0) ">
											<g>
												<g id="Cloth_1ch_head_0_Layer0_0_FILL_00000030446668459196595860000014930860939075976895_">
													<path class="st24" d="M377.5,535.4c0.8,0.4,1.6,0.6,2.4,0.8c1,0.2,2,0.3,3,0.1c1.1-0.2,2.1-0.6,3-1.3
														c0.8-0.6,1.4-1.2,1.8-2c-0.2-0.3-0.6-0.7-1.3-1.1c-2.1-1.1-4.3-1.1-6.4,0.1C378.7,532.9,377.9,534.1,377.5,535.4
														 M360.3,536.4c0.9,0.4,1.8,0.7,2.7,0.8c0.2,0,0.5,0,0.7,0c1.1,0.1,2.2-0.1,3.3-0.5c0.9-0.3,1.8-0.6,2.6-1
														c-0.5-1.3-1.5-2.3-3.1-3c-1.3-0.5-2.6-0.6-3.9-0.5c-1.1,0.2-2.1,0.5-3.1,1.1c-0.7,0.4-1.2,0.8-1.4,1.2
														C358.6,535.3,359.3,535.9,360.3,536.4z"/>
												</g>
											</g>
										</g>
										
											<g transform="matrix( -0.7544708251953125, -0.016265869140625, -0.018157958984375, 0.8441314697265625, 11.15,-37.15) ">
											<g transform="matrix( 1, 0, 0, 1, 0,0) ">
												<g>
													<g id="ch3eye_ball__0_Layer0_0_FILL_00000109013840185949676390000014115090933502000522_">
														<path class="st25" d="M-484,664.7c0.9,0.1,1.7,0.4,2.3,1.1c0.6,0.7,0.9,1.6,0.8,2.5c-0.1,0.9-0.5,1.7-1.2,2.2
															c-0.7,0.6-1.6,0.9-2.5,0.9c-0.9-0.1-1.7-0.5-2.3-1.2c-0.6-0.7-0.9-1.5-0.8-2.4c0.1-0.9,0.5-1.7,1.2-2.4
															C-485.7,664.9-484.9,664.6-484,664.7z"/>
													</g>
												</g>
											</g>
											<g transform="matrix( 1.2004852294921875, 0, 0, 1.2004852294921875, -269.35,-88.45) ">
												<g>
													<g id="ch3eye_ball__0_Layer0_0_MEMBER_0_MEMBER_0_FILL_00000026862279211771272360000017310713727523785096_">
														<path d="M-179.4,628.8c0.8,0,1.3,0.9,1.2,1.7c-0.1,0.6-0.7,1.3-1.4,1.2c-0.8-0.1-1.2-0.8-1.2-1.5
															C-180.8,629.5-180.1,628.8-179.4,628.8z"/>
													</g>
												</g>
											</g>
											<g transform="matrix( 1.5006103515625, 0, 0, 1.5006103515625, -7.85,7.4) ">
												<g>
													<g id="ch3eye_ball__0_Layer0_0_MEMBER_0_MEMBER_1_FILL_00000148645892270281124160000003578737367039591353_">
														<path class="st24" d="M-317.6,439.9c-0.1-0.1-0.1-0.2-0.1-0.4c0-0.1,0.1-0.2,0.2-0.3c0.1-0.1,0.2-0.1,0.4-0.1
															c0.1,0,0.2,0.1,0.3,0.2c0.1,0.1,0.1,0.2,0.1,0.4c0,0.2-0.1,0.3-0.2,0.3c-0.1,0.1-0.2,0.1-0.4,0.1
															C-317.4,440-317.5,440-317.6,439.9z"/>
													</g>
												</g>
											</g>
										</g>
										<g transform="matrix( -0.7393646240234375, -0.01593017578125, -0.017791748046875, 0.827239990234375, -13.95,-37.4) ">
											<g transform="matrix( 1, 0, 0, 1, 0,0) ">
												<g>
													<g id="ch3eye_ball__0_Layer0_0_FILL_00000062903630273389620010000016685344813706623133_">
														<path class="st25" d="M-552.8,676.4c0.8,0.1,1.6,0.4,2.1,1.1c0.6,0.7,0.8,1.6,0.7,2.5c-0.1,0.9-0.4,1.7-1.1,2.2
															c-0.7,0.6-1.5,0.9-2.3,0.9c-0.9-0.1-1.6-0.5-2.1-1.2c-0.6-0.7-0.8-1.5-0.8-2.4c0.1-0.9,0.5-1.7,1.2-2.4
															C-554.5,676.6-553.7,676.3-552.8,676.4z"/>
													</g>
												</g>
											</g>
											<g transform="matrix( 1.2004852294921875, 0, 0, 1.2004852294921875, -269.35,-88.45) ">
												<g>
													<g id="ch3eye_ball__0_Layer0_0_MEMBER_0_MEMBER_0_FILL_00000055686657852396090910000000304437863881612468_">
														<path d="M-236.4,638.6c0.8,0.1,1.4,1.1,1.1,1.8c-0.2,0.5-0.7,1-1.3,0.9c-0.7,0-1.2-0.8-1.2-1.4
															C-237.7,639.2-237.1,638.5-236.4,638.6z"/>
													</g>
												</g>
											</g>
											<g transform="matrix( 1.5006103515625, 0, 0, 1.5006103515625, -7.85,7.4) ">
												<g>
													<g id="ch3eye_ball__0_Layer0_0_MEMBER_0_MEMBER_1_FILL_00000145025181711025602970000009110080021382682271_">
														<path class="st24" d="M-363.1,447.9c-0.1-0.1-0.1-0.2-0.1-0.4c0-0.1,0.1-0.2,0.2-0.3c0.1-0.1,0.2-0.1,0.4-0.1
															c0.1,0,0.2,0.1,0.3,0.2c0.1,0.1,0.1,0.2,0.1,0.4c0,0.2-0.1,0.3-0.2,0.3c-0.1,0.1-0.2,0.1-0.4,0.1
															C-363,448-363.1,448-363.1,447.9z"/>
													</g>
												</g>
											</g>
										</g>
										<g transform="matrix( -0.7544708251953125, -0.016265869140625, -0.018157958984375, 0.8441314697265625, -0.95,-38.3) ">
											<g>
												<g id="Cloth_1ch_head_0_Layer0_0_MEMBER_2_FILL_00000082335960708225276930000006839350875889201822_">
													<path d="M-532.7,665.8c0.4,0.8,1.7,3.2,4.8,4.6c4.8,2.1,9.5-0.1,9.9-0.3c0.2,0,0.5,0.1,0.7,0.1c0,0,0.2-0.1,0.3-0.2
														c0.1-0.2-0.1-0.3-0.1-0.3c-2.2-4.2-6.3-6.6-9.7-5.9c-0.7,0.1-2.1,0.5-3.5,2C-531.1,665.7-531.9,665.7-532.7,665.8z
														 M-517.8,669.6c-3.7,1.4-11.5,2.1-12.3-2.6c0.9-3.1,6.7-2.9,9.2-0.5C-519.8,667.2-518.8,668.3-517.8,669.6z"/>
												</g>
											</g>
										</g>
										<g transform="matrix( -0.7544708251953125, -0.016265869140625, -0.018157958984375, 0.8441314697265625, -0.95,-38.3) ">
											<g>
												<g id="Cloth_1ch_head_0_Layer0_0_MEMBER_3_FILL_00000137125288595315735660000006722325174151881630_">
													<path d="M-507.5,670.1C-507.5,670.2-507.5,670.2-507.5,670.1c0,0.1,0,0.1,0,0.1l0,0l0,0c-0.3,0.5,0.1,0.6,0.6,0.5
														c1.3,0.7,3.3,1.6,6,1.8c6.6,0.6,11.3-3.6,12.1-4.3c-0.8,0-1.6,0.1-2.4,0.1c-1.1-0.9-3.5-2.5-6.8-2.8
														c-1-0.1-2.7-0.3-4.5,0.4C-505.8,667.1-507.2,669.5-507.5,670.1z M-492.3,669.3c-3.6,3.8-10.1,3.4-14.6,1
														c1.1-2.8,5.8-4.3,9-3.7C-496.2,666.8-493.3,667.9-492.3,669.3z"/>
												</g>
											</g>
										</g>
										<g transform="matrix( -0.7544708251953125, -0.016265869140625, -0.018157958984375, 0.8441314697265625, -0.95,-38.3) ">
											<g>
												<g id="Cloth_1ch_head_0_Layer0_0_MEMBER_4_FILL_00000160882322730827812550000008235897501986352777_">
													<path d="M-526.8,657.6c-0.7,0-2.1,0-3,0.8c-0.8,0.7-0.9,1.6-0.9,1.6c-0.1,0,0-2.3,1.7-3.5c0.6-0.4,1.3-0.7,2.2-0.7
														c2.4-0.2,5.3,0.9,8.9,3.3c0,0.2,0,0.4,0,0.6c0,0.4-0.1,0.7-0.2,1C-519,660.2-523.1,657.6-526.8,657.6z"/>
												</g>
											</g>
										</g>
										<g transform="matrix( -0.7544708251953125, -0.016265869140625, -0.018157958984375, 0.8441314697265625, -0.95,-38.3) ">
											<g>
												<g id="Cloth_1ch_head_0_Layer0_0_MEMBER_5_FILL_00000154404797232496526520000007089868902913125806_">
													<path d="M-506.1,660.9c-0.1-0.2-0.2-0.5-0.2-0.9c0-0.3,0.1-0.5,0.1-0.6c5.5-1.8,9.7-2.5,12.7-2
														c2.9,0.5,5.2,1.7,6.9,3.7c-1.7-0.5-3.7-1-6-1.3C-498.4,659-503.2,660-506.1,660.9z"/>
												</g>
											</g>
										</g>
									</g>
									<g transform="matrix( 1.0998382568359375, 0.017730712890625, -0.017730712890625, 1.0998382568359375, -2.05,-472) ">
										<path d="M331.1,544.5c0.1,1,0.3,2.4,1.3,3.8c1.6,2.4,4.3,3.3,5.4,3.5c-3.3-3.1-3.1-5.4-3-5.9c0.4-2.2,2.9-3.8,8.1-6.8
											c2-1.2,1.9-1,3.8-2.1c2.6-1.5,5.9-3.5,8.9-6.5c1.6-1.6,3.8-4.2,5.7-8l0,0c0.2-0.4,1.4-2.7,1.5-3.1
											c1.7-5.6,5.9-11.7,12.1-11.8l-0.5-14.2c-0.1,0-0.1,0-0.2,0c-0.1-0.1-0.1-0.2-0.1-0.3c0,0-0.1-0.1-0.1-0.1
											c-9.1-3.9-18.2-1.5-25.4,3.9c-9.8,7.3-12.9,18.4-13.6,21.5c-1.1,4.8-0.2,5.3-1.8,11.6C332.2,534,330.5,539,331.1,544.5z"
											/>
										<path d="M396.7,522.5c-0.1-1.5-0.3-3-0.5-4.4c-0.5-3.4-1.3-6.5-2.4-9.2c-0.9-2.3-1.9-4.3-3.1-6.2c-1.3-2-2.8-3.8-4.5-5.3
											c-2.2-2-4.5-3.2-6.9-3.8c-1.3-0.3-2.6-0.4-3.9-0.3l-0.1,0c-0.3,0-0.5,0.1-0.8,0.1c-0.1,0-0.1,0-0.1,0l0.5,14.2l0,0
											c0.3,0,0.7,0,1,0.1c0.2,0,0.3,0,0.5,0.1c0.3,0,0.5,0,0.8,0.1c0.8,0.2,1.6,0.6,2.3,1.3c1.7,1.4,3.1,3.1,4.3,5.1
											c1.1,1.9,2,4,2.5,6.2c0.5,2.2,0.9,4,1,5.3c0.1,1.3,0.2,2.9,0,4.7l-0.1,3.8c-0.1,1.6-0.4,4-0.8,7.3c0,0.2,0,0.3-0.1,0.5
											c-0.6,4.1-1.8,7.5-3.4,10.3l-3.3,5.9l0.1,3c0.4,1.1,0.9,2,1.4,2.9c0.1-0.3,0.2-0.5,0.3-0.8c0.7-1.4,1.6-2.9,2.8-4.5
											c0.4-0.6,0.9-1.2,1.4-1.9c1-1.3,1.8-2.3,2.3-3c-1.1,2.7-1.4,4.9-1.5,6.5c-0.1,2.6,0.3,6.2,0.3,6.2c0,0,0,0.3,0,0.3
											c0,0,0.9-5,2.2-9.1c1.3-4.1,2.4-5.6,3.9-8.9c1.3-2.9,2.8-7.1,3.6-12.8c0.1-0.8,0.2-1.5,0.3-2.3
											C397,530.3,397,526.5,396.7,522.5z"/>
									</g>
									<g transform="matrix( 1, 0, 0, 1, 0,0) ">
										<g>
											<g id="Layer5_48_MEMBER_2_FILL_00000046320268181879086180000001597125104554930601_">
												<path class="st26" d="M399.4,140.9c4.1-0.1,5.5-0.5,5.6-0.1c0.2,0.5-2.5,2.2-5.5,2.4c-3.6,0.3-6.9-1.6-6.7-2.2
													C393,140.7,394.6,141,399.4,140.9z"/>
											</g>
										</g>
									</g>
									<g transform="matrix( 0.3377532958984375, 0, 0, 0.3377532958984375, 3216.95,368.4) ">
										<g>
											<g id="Layer4_0_MEMBER_8_FILL_00000100361329977781674790000005198517757128520328_">
												<path class="st22" d="M-8337.7-688.4c-0.5,0.2-2,0.6-4,0.3c-3.9-0.6-6.9-3.8-6.5-4.4c0.3-0.5,3.2,1.9,7.9,1.8
													c4.2-0.1,6.8-2,7.1-1.4C-8333-691.6-8335-689.3-8337.7-688.4z"/>
											</g>
										</g>
									</g>
									<g>
										<path class="st27" d="M370,134.1c0,0.6,0.2,1,0.4,1.2c0.5,0.6,1.3,0.5,1.7-0.2c0.2-0.3,0.3-0.6,0.3-1c0-0.1,0-0.2,0-0.3
											c-0.2-1.1-0.5-2.2-1.1-3.3c0,0,0,0,0,0c-0.6,1.1-1,2.2-1.1,3.2C370,133.8,370,134,370,134.1z"/>
										<path class="st28" d="M369.3,134.9c0,1.5,0.6,2.3,1.8,2.3c1.5,0,2.1-1.2,1.7-3.7c0-0.1-0.1-0.3-0.1-0.4
											c-0.4-1.5-0.9-2.9-1.6-4.1c-0.6,1.2-1.1,2.4-1.5,3.8c-0.1,0.2-0.1,0.5-0.2,0.7C369.4,134,369.3,134.5,369.3,134.9z
											 M370,134.1c0-0.1,0-0.3,0-0.4c0.2-1.1,0.5-2.2,1.1-3.2c0,0,0,0,0,0v-0.2l0,0.2c0.6,1.1,1,2.2,1.1,3.3c0,0.1,0,0.2,0,0.3
											c0,0.2,0,0.6-0.3,1.1c0,0,0,0,0,0c-0.5,0.7-1.3,0.7-1.8,0C370,134.9,370,134.6,370,134.1z"/>
									</g>
								</g>
								<g transform="matrix( 0.351959228515625, 0, 0, 0.351959228515625, 4965.5,580.6) ">
									<g transform="matrix( 1, 0, 0, 1, 0,0) ">
										<g>
											<g id="Seragu_0_Layer0_0_FILL_00000052817647709592832270000003662236448257100939_">
												<path class="st29" d="M-13119-1162.8c16.2-3.8,33.8-6.3,52.7-7.7c5.1,170.1,10.2,340.3,15.3,510.4
													c46.1-0.1,92.1-0.2,138.2-0.2c-2.2,4.3-5.8,10.4-12.1,15.7c-36.7,31.4-112.6-4-125.3-9.9
													C-13171.5-711.1-13121.4-1143.1-13119-1162.8z"/>
												<path class="st30" d="M-13123.4-1164c1.5,0.4,2.9,0.8,4.4,1.1v0.1c-12.1,79-18.9,181.2-3.7,298.4
													c7,54.2,17.7,103.3,29.7,146.6c5.5,11,17.6,31.1,40.8,46.7c39.5,26.7,81.7,20.7,92,18.9c6.9,6,13.9,11.9,20.8,17.9
													c-14.6,4.6-37.1,9.5-63.8,5.8c-66-9.1-102.3-62.6-108.8-72.5c-8-25.1-15.4-51.5-21.7-79.4
													c-18.6-82.1-21.3-146.7-23.2-197.2c-2.4-64,0.8-101.3,2.5-117.5c2.4-23.4,5.6-42.9,8.2-57.1
													C-13138.6-1156.1-13131-1160-13123.4-1164z"/>
												<path class="st31" d="M-13126.8-1157.4c5.6-1.8,11.4-3.4,17.4-4.8L-13126.8-1157.4z"/>
											</g>
										</g>
									</g>
								</g>
								<g transform="matrix( 1, 0, 0, 1, 0,0) ">
									<g>
										<g id="a1_acton_3_Layer11_0_MEMBER_3_MEMBER_0_FILL_00000169521411199397108980000018087359455994755755_">
											<path class="st32" d="M420,170.5c15.5,6.5,17.4,22.2,15.1,43l-23.2,3.2l-3.6-27.6C414.3,181,414,172.6,420,170.5z"/>
										</g>
									</g>
								</g>
								<g transform="matrix( 1, 0, 0, 1, 0,0) ">
									<g>
										<g id="Cloth_1lady11_top_0_Layer1_0_MEMBER_1_FILL_00000121971539366304177300000008968935643913284495_">
											<path class="st32" d="M357.6,167.1c0.6,11.2,1.9,20.1,3.1,26.3c2.1,11.5,4.6,19.9,6.1,34.8c0.4,3.9,0.6,7.2,0.7,9.3
												c-1.9,7.7-3.9,15.3-5.8,23c0.3,0.7,0.6,1.4,1,2c9,13.7,54-1.3,65-5.2c0-3.9,0.3-10.1,1.4-17.4c1.9-12.6,5.2-15.3,6.5-30
												c1.3-15.6-1.3-22.3-2-24.1c-3.6-8.8-9.9-14.2-13.7-17c-0.9-0.5-18.6-8.7-19.6-9.2c-0.1,0.5,1.5,2.8,3.6,5.3
												c2.7,6.3,13.1,16.5-1.4,17.7c-15.2,4.5-27-9.2-27.1-23.9C369.4,161.5,363.5,164.3,357.6,167.1z M410.4,202.4
												c0,0,0-0.1,0-0.1C410.4,202.3,410.4,202.3,410.4,202.4L410.4,202.4z"/>
											<path class="st33" d="M410.4,202.2c0,0,0,0.1,0,0.1l0,0C410.4,202.3,410.4,202.3,410.4,202.2z"/>
											<path class="st34" d="M375.4,158.4L375.4,158.4c0-0.1,0-0.1,0-0.2C375.4,158.3,375.4,158.3,375.4,158.4z"/>
										</g>
									</g>
								</g>
								<g transform="matrix( 1, 0, 0, 1, 0,0) ">
									<g>
										<g id="Cloth_1lady11_top_0_Layer1_1_FILL_00000042713383907169705120000000191786494280106928_">
											<path class="st32" d="M497.8,322.3c-14.8,5.8-81.5,31.5-106,29.4c-3.6-0.3-7.1-1.3-7.1-1.3c-15.2-3.1-27-15.1-29.9-30.4
												c-1.4-7.2-2.1-15.6-1.5-24.7c1.1-15.5,5.6-27.7,9.2-35.3c0.2,0,1.7,0.1,1.8,0.7c0,0,0,0.1,0,0.1c0,0,0,0.1,0,0.1
												c2.1,7.5,11.1,11.5,26.9,12l0.4,0c0.3,0,0.6,0,0.8,0c0.7,0,1.5,0,2.3,0c0.2,0,0.4,0,0.6,0c0.2-0.2,0.5-0.3,0.7-0.4
												c0.3-0.1,0.5-0.1,0.7,0c0.1,0.1,0.3,0.2,0.4,0.3c0.5-0.4,1-0.5,1.4-0.1c0,0.1,0.1,0.1,0.2,0.2c0.7-0.5,1.3-0.7,1.8-0.6
												c0.1,0,0.2,0,0.2,0.1c0.1,0,0.1,0,0.2,0.1c0.7-0.5,1.4-0.5,2.2,0c0,0,0.1,0,0.1-0.1c0.8-0.5,1.6-0.5,2.4,0
												c0.1-0.1,0.2-0.1,0.2-0.2c0.6-0.3,1.3-0.3,2.2,0c0.1,0,0.2,0.1,0.3,0.1c6.2-0.2,12-0.8,17.4-1.7c0.8-0.1,1.5-0.3,2.3-0.4
												c0,0.1,0,0.1,0.1,0.2c0,0.1,0.1,0.2,0.1,0.3c0,0.1,0,0.2,0.1,0.3c0.1,0.2,0.1,0.3,0.2,0.8c0.1,0.3,0.7,3.7,2.3,12.9
												c7.6,1.8,16.4,4.5,25.7,8.8C475.6,302.1,489.1,313.5,497.8,322.3z"/>
										</g>
									</g>
									<path class="st32" d="M510.4,477.4c-4.6,3.9-19.6,5.8-36.3,6.1c-7.8,0.1-16-0.1-23.7-0.6h0c-0.2,0-0.3,0-0.5,0h0
										c-0.3,0-0.5,0-0.8-0.1c-0.1,0-0.2,0-0.3,0c-2.1-0.2-4.2-0.3-6.2-0.5c-5.7-0.6-10.8-1.3-15-2.3c-1.6-0.3-3-0.7-4.2-1.1
										c-0.5-0.2-0.9-0.3-1.4-0.5h0c-2.4-0.9-4-1.8-4.6-2.9c-2,0.2-4.1,0.1-6.2-0.1c-6.8-0.8-13.6-3.7-15.4-6
										c4.7-27.1,9.9-54.6,15.7-82.4c0.2-1,0.4-2.1,0.4-2.1c1.5-7.2,2.6-12.4,4.3-19.1c0.4-1.4,0.4-1.4,0.4-1.5
										c0.4-7.1-21.7-14.2-45-19.8c25-14.5,50-28.9,74.9-43.4c6.1-0.4,17.3-0.4,29.4,5c21.9,9.8,32,29.5,33.2,36.2
										c2.2,12,4,24.9,5.1,38.7C517.4,419,514.6,451.8,510.4,477.4z"/>
								</g>
								<g transform="matrix( 1, 0, 0, 1, 0,0) ">
									<g>
										<g id="Cloth_1lady11_top_0_Layer1_1_MEMBER_6_FILL_00000036213901467217325700000007778451261602407074_">
											<path class="st35" d="M361.7,260.3c1.1-4.2,2.1-8.4,3.2-12.5c4,3.5,16.6,13.5,35.4,14.4c12.7,0.6,22.5-3.2,27.5-5.6
												c0.3,5.2,0.7,10.5,1,15.7c-4.6,2.7-17.8,9.8-34.7,7.5c-4.7-0.6-15.8-2.3-25.3-11C365.3,265.7,363.1,262.5,361.7,260.3z"
												/>
										</g>
									</g>
								</g>
								<g transform="matrix( 1, 0, 0, 1, 0,0) ">
									<g>
										<g id="Cloth_1lady11_top_0_Layer1_2_FILL_00000094616963818839334540000011737795895973816509_">
											<path class="st30" d="M357.8,164.9c0.9-0.3,1.9-0.7,2.8-1c23.2,25.1,46.4,50.2,69.6,75.3c0.4-0.9,0.7-1.9,1.1-3
												c1.5-4.8,2-9.3,2.1-13c-3.6-8.4-9.4-19.2-18.6-30.2c-16.3-19.2-34.9-28.9-45.9-33.5C364.2,161.6,360.5,163.4,357.8,164.9
												z"/>
											<path class="st30" d="M380.5,232.1c12,25.1,11.9,31.4,22.7,49.1c0,0,6.9,11.3,14.3,20.3c25.2,30.6,73.9,39.6,91.8,42.2
												c-0.1-1.1-0.2-2.2-0.4-3.4c-0.7-3.7-2.1-6.6-3.3-8.6c-39.8-6.3-61.3-21.9-73.5-35c-21.2-22.7-21.8-45.8-52.1-94.5
												c-9.8-15.7-18.8-27.9-24.8-35.7c-4.7,2.5-9.3,4.9-14,7.4c4.6,4.5,11,11.3,17.6,20.2C368.6,207.2,373.9,218.3,380.5,232.1
												z"/>
											<path class="st29" d="M372.5,189.9L372.5,189.9c5.8,10.4,14.4,26.2,23.8,46.1c14.1,29.8,15.5,39.6,22.2,50.6
												c10.3,16.8,32.7,36.6,87.1,45.1c-2.8-3.9-7.1-9.2-13-14.7c-9.7-9.1-18.6-14-27.9-19c-6.6-3.6-15.2-7.7-25.7-11.7
												c-5.1-1.9-9-6.3-10.1-11.6c0-0.1,0-0.1,0-0.2c-1.7-8.5-1.4-16-0.6-21.4c0.8-4.8,1.6-9.6,2.5-14.4
												c-2.8-6.6-6.4-13.7-10.9-20.9c-18.1-28.8-42.5-45.4-59.1-54.4c-0.6,0.3-1.3,0.7-1.9,1c-1.6,0.9-3.2,1.7-4.6,2.6
												C359.6,174,365.7,181.6,372.5,189.9z"/>
										</g>
									</g>
								</g>
								<g transform="matrix( 1, 0, 0, 1, 0,0) ">
									<g>
										<g id="Cloth_1lady11_top_0_Layer1_2_MEMBER_0_FILL_00000096754093110848016720000010019746020092651146_">
											<path class="st36" d="M398.3,228.8l0.2,0.3c0,0-0.1,0-0.1,0L398.3,228.8z"/>
										</g>
									</g>
								</g>
								<path d="M361.6,144.5c1.2,2.6,2.8,6.6,4.3,11.5c3.8,13.2,1.6,18.4,3.1,30.3c1.9,16.1,7.1,17.2,12.9,42.3
									c1.5,6.5,2.4,11.8,2.9,15.1c2.7-7.2,5-17,3.1-28c-1.4-8.3-4.6-15.1-4.5-14.9c2.2,4.5,4.3,9.8,5.8,16.1c0.5,2,0.9,4,1.2,5.9
									c0.9-6.8,1.4-14.9,0.7-23.9c-1.5-19.4-7.6-34.7-12.6-44.5C372.8,151.1,367.2,147.8,361.6,144.5z"/>
								<path class="st30" d="M467.3,465.7c4.2,1.6,12.5,4.2,23,3.3c10.1-0.9,17.6-4.7,21.4-7c0.7,8,1.4,16,2.1,24
									c-3.3,2.1-8.3,4.8-14.8,6.6c-6.8,1.9-12.4,2-14.8,2c-8.3-0.1-15-2.1-19.2-3.8c-5.2,1.4-15.9,3.5-28.7,0.5
									c-10.3-2.4-17.6-7.1-21.7-10.2c-1.8,0-6.5-0.1-11.2-3.2c-6.1-4.2-7.7-10.5-8-12c1.8-5.9,3.5-11.7,5.3-17.6
									c1.4,1.9,3.8,4.5,7.4,6.7c6.5,3.9,13,3.9,15.7,3.8c3.3,2.6,10.9,7.8,22.1,9.3C455.6,469.3,463.4,467.1,467.3,465.7z"/>
							</g>
						</g>
					</g>
					<g>
						<g>
							<path class="st22" d="M459.5,263.4c0,0,2,1.4,6,0.3c2.6-0.7,8.5-3.5,13.8-4.4c1.9-0.3,0.3-3.4-3.5-2.8
								c-1.8,0.3-5.1,0.4-5.9,0.5c-2.3,0.1-4.5-3.4-4.5-3.4L459.5,263.4z"/>
						</g>
						<g>
							<path class="st14" d="M456.6,263.3c3,0.8,5.5,1.9,9.4-1.3c2.7-2.2,5.2-4.5,7.3-6.5c2.6,0.4,6.1,0.9,6.7,1.6
								c0.8,1,3,4.1,4.2,5.8c1.2,1.7,3,0.9,2.5-0.4c-0.5-1.3-2.4-5.9-3.5-6.9c-1-1-2.9-2.2-2.9-2.2s4.5,1.1,5.9,1.8
								c1.4,0.7,5.6,4.7,6.5,5.3c0.9,0.6,2.8-0.6,1.8-2.3c1.6,0.8,2.9-1.5,1.8-2.6c-1.1-1.2-4.5-5.3-6.2-6.3c-0.9-0.6-3.7-1.1-5-1.6
								c-0.9-0.4-0.6-0.6-0.1-0.5c2.8,0.1,4.7,0.6,8.3,0.5c2.9-0.1,3.9-2.3,1.2-2.7c-1.3-0.2-6.7-1.1-10.7-1.5
								c-2.3-0.2-5.7,1.8-8.7,3.2c-5.1,2.3-12.6,5.7-13.7,5.8c-7,0.5-13,0-13,0l-1.3,10.1C447.1,262.5,454.5,262.7,456.6,263.3z"/>
						</g>
						<g>
							<g>
								<path class="st37" d="M481.8,249.9c0,0,1.6,0.4,3.3,0.8l0,0c1.7,0.5,3.6,1,4.2,1.5l0,0c1.1,0.8,5.3,5.7,5.3,5.7l0,0l0,0
									c0.1,0.1,0.1,0.3,0,0.4l0,0c-0.1,0.1-0.3,0.1-0.4,0l0,0c0,0-1-1.2-2.2-2.5l0,0c-1.2-1.3-2.5-2.7-3-3.1l0,0
									c-0.4-0.3-2.3-0.9-4-1.4l0,0c-1.7-0.5-3.3-0.8-3.3-0.8l0,0c-0.1,0-0.2-0.2-0.2-0.3l0,0c0-0.1,0.1-0.2,0.2-0.2l0,0
									C481.7,249.9,481.7,249.9,481.8,249.9L481.8,249.9z"/>
							</g>
						</g>
					</g>
					<g>
						<g>
							<rect x="501.4" y="261.6" class="st38" width="107.4" height="5.5"/>
						</g>
						<g>
							<rect x="461.2" y="261.6" class="st39" width="40.1" height="5.5"/>
						</g>
						<g>
							<g>
								<path class="st38" d="M516.8,192.7h21.1l-10.1,71.4h-21.1c-3.2,0-5.4-2.6-4.9-5.8l8.5-59.9
									C510.7,195.3,513.6,192.7,516.8,192.7z"/>
							</g>
							<g>
								<path class="st40" d="M610.3,258.3c-0.5,3.2-3.4,5.8-6.6,5.8h-95.2c-3.2,0-5.4-2.6-4.9-5.8l8.5-59.9
									c0.5-3.2,3.4-5.8,6.6-5.8h95.2c3.2,0,5.4,2.6,4.9,5.8L610.3,258.3z"/>
							</g>
							<g>
								<path class="st41" d="M618.8,199l-8.4,59.4c-0.5,3.2-3.4,5.8-6.6,5.8h-95.2c-0.1,0-0.3,0-0.4,0
									C547.4,210.8,609.1,200.3,618.8,199z"/>
							</g>
							<g>
								<path class="st42" d="M554.1,223.4c-0.7,5.2,2.9,9.4,8,9.4c5.2,0,10-4.2,10.7-9.4c0.7-5.2-2.9-9.4-8-9.4
									C559.6,214,554.8,218.2,554.1,223.4z"/>
							</g>
						</g>
						<g>
							<polygon class="st38" points="461.2,263.5 503.4,263.6 501.4,261.6 461.2,261.6 							"/>
						</g>
					</g>
					<g>
						<path class="st14" d="M457.4,263.5c-28.1-1.5-56.2-2.9-84.3-4.4c-4.7-0.2-10.1-4-11.9-8.4l-13.4-32l20.9-7.5
							c3,8.8,6.1,17.7,9.2,26.6c10.4,2.9,21.6,5.6,33.6,7.9c17.9,3.5,34.6,5.5,49.8,6.7c-1,2-1.9,4.3-2.7,6.9
							C458.1,260.8,457.7,262.1,457.4,263.5z"/>
					</g>
					<g>
						<g>
							<g>
								<path class="st9" d="M345.4,375.8c-1.2,0-2.3-0.3-3.4-1c-2.9-1.9-3.8-5.8-2-8.7c0.2-0.2,15.6-24.6,24.4-42.5
									c3.3-6.7,3.7-12.8,1.2-16.9c-2.1-3.4-6.3-5.3-11.7-5.3h-58.3c-3.5,0-6.3-2.8-6.3-6.3s2.8-6.3,6.3-6.3H354
									c9.8,0,17.9,4.1,22.4,11.2c4.9,7.9,4.7,18.3-0.6,29.1c-9.1,18.4-24.4,42.6-25,43.6C349.6,374.7,347.5,375.8,345.4,375.8z"/>
							</g>
						</g>
						<g>
							<g>
								<path class="st8" d="M374.5,324.5c-0.1,0-0.2,0-0.3-0.1c-0.3-0.2-0.4-0.5-0.3-0.8c3.5-7.1,3.2-14.8-0.7-21
									c-3.7-5.9-10.1-9.6-16.8-9.6h-22.2c-0.3,0-0.6-0.3-0.6-0.6c0-0.3,0.3-0.6,0.6-0.6h22.2c7.1,0,13.9,3.9,17.8,10.2
									c4.1,6.6,4.4,14.8,0.7,22.3C374.9,324.3,374.7,324.5,374.5,324.5z"/>
							</g>
						</g>
					</g>
				</g>
				<g>
					<g>
						<path class="st43" d="M263.2,251.3l-75.9,0c-4.4,0-7.9,3.5-7.9,7.9v0c0,4.4,3.5,7.9,7.9,7.9l75.9,0
							C260,261.5,259.4,256.1,263.2,251.3z"/>
					</g>
					<g>
						<g>
							<path class="st24" d="M260.8,264.8h-73.4c-3,0-5.5-2.5-5.5-5.5c0-3.1,2.5-5.6,5.5-5.6h73.1
								C259.1,257.1,259.2,260.8,260.8,264.8z"/>
						</g>
					</g>
					<g>
						<path class="st44" d="M272.8,235.5l-75.9,0c-4.4,0-7.9,3.5-7.9,7.9v0c0,4.4,3.5,7.9,7.9,7.9l75.9,0
							C269.5,245.6,268.9,240.3,272.8,235.5z"/>
					</g>
					<g>
						<g>
							<path class="st24" d="M270.3,249h-73.4c-3,0-5.5-2.5-5.5-5.5c0-3.1,2.5-5.6,5.5-5.6h73.1C268.6,241.2,268.7,244.9,270.3,249z
								"/>
						</g>
					</g>
				</g>
				<g>
					<rect x="161.9" y="488.1" class="st45" width="524.4" height="7.6"/>
				</g>
				<g>
					<g>
						<path class="st46" d="M668.9,263.1l-25.2,0.5c-1,0-1.7,0.8-1.7,1.8c0,1,0.8,1.7,1.8,1.7l25.2-0.5c1,0,1.7-0.8,1.7-1.8
							C670.6,263.9,669.8,263.1,668.9,263.1z"/>
					</g>
					<g>
						<path class="st47" d="M674.7,262.6l-8.4,0.2c-0.3,0-0.6,1-0.5,2.2c0,1.2,0.3,2.1,0.6,2.1l8.4-0.2c0.3,0,0.6-1,0.5-2.2
							S675,262.6,674.7,262.6z"/>
					</g>
					<g>
						<path class="st47" d="M643.4,263.8l-2.4,0c-0.1,0-0.1,0.7-0.1,1.6c0,0.9,0.1,1.6,0.2,1.6l2.4,0c0.1,0,0.1-0.7,0.1-1.6
							C643.6,264.5,643.5,263.8,643.4,263.8z"/>
					</g>
					<g>
						<path class="st47" d="M641.8,264.4l-1.5,0c-0.1,0-0.1,0.5-0.1,1s0.1,1,0.1,1l1.5,0c0.1,0,0.1-0.5,0.1-1
							C641.9,264.9,641.9,264.4,641.8,264.4z"/>
					</g>
				</g>
			</g>
			<g>
				<rect x="161.9" y="279.2" class="st48" width="15.4" height="252.4"/>
			</g>
			<g>
				<rect x="670.9" y="279.2" class="st48" width="15.4" height="252.4"/>
			</g>
			<g>
				<g>
					<path class="st45" d="M155.1,284.9h554c4.9,0,8.9-4,8.9-8.9l0,0c0-4.9-4-8.9-8.9-8.9h-554c-4.9,0-8.9,4-8.9,8.9l0,0
						C146.2,280.9,150.2,284.9,155.1,284.9z"/>
				</g>
			</g>
			<g>
				<rect x="46.4" y="528" class="st4" width="771.3" height="7.1"/>
			</g>
		</g>
		<g>
			<g id="a1_acton_3_Layer1_0_MEMBER_3_MEMBER_0_FILL_00000147910221286631099000000018226156720760645808_">
				<path class="st3" d="M343.1,208.1c-2.5-6.6-6.6-17.2-3.5-28.7c0.7-2.7,1.7-4.8,2.2-5.9c3.8,3.7,7.9,7.9,11.9,12.7
					c6.5,7.8,11.5,15.3,15.4,22c0.3,1.8,0.6,3.6,0.8,5.4c-7.4,1.4-14.8,2.8-22.2,4.2C345.5,213.9,344.1,210.5,343.1,208.1z"/>
			</g>
		</g>
	</g>
</g>
</svg>
