<?xml version="1.0" encoding="utf-8"?>
<!-- Generator: Adobe Illustrator 26.0.1, SVG Export Plug-In . SVG Version: 6.00 Build 0)  -->
<svg version="1.1" id="Layer_1" xmlns="http://www.w3.org/2000/svg" xmlns:xlink="http://www.w3.org/1999/xlink" x="0px" y="0px"
	 viewBox="0 0 1202 824" style="enable-background:new 0 0 1202 824;" xml:space="preserve">
<style type="text/css">
	.st0{clip-path:url(#SVGID_00000094606513179841467450000004599684568006256563_);}
	.st1{fill:#FFD7DC;}
	.st2{fill:#F7B7C1;}
	.st3{fill:#D8989D;}
	.st4{fill:#9B9B9B;}
	.st5{fill:#FAD4AF;}
	.st6{fill:#E09D6C;}
	.st7{fill:#7F7F7F;}
	.st8{fill:#BC956B;}
	.st9{fill:#BFAF3C;}
	.st10{fill:#EFB78E;}
	.st11{fill:#191513;}
	.st12{fill:#E08373;}
	.st13{fill:none;stroke:#7F7F7F;stroke-miterlimit:10;}
	.st14{fill:#987957;}
	.st15{fill:#F9C295;}
	.st16{fill:#9F0102;}
	.st17{fill:#84030A;}
	.st18{fill:none;stroke:#F8AE38;stroke-miterlimit:10;}
	.st19{fill:#AFABAC;}
	.st20{fill:#A8A8A8;}
	.st21{fill:#D1CBCD;}
	.st22{fill:#DCD3C4;}
	.st23{fill:#F7F4F0;}
	.st24{fill:#717677;}
	.st25{fill:#682C1E;}
	.st26{fill:#FFFFFF;}
	.st27{fill:#6C7072;}
	.st28{fill:#2B1808;}
	.st29{fill:#3A3A3A;}
	.st30{fill:#F8AE38;}
	.st31{fill:#2D2D2D;}
	.st32{clip-path:url(#SVGID_00000094606513179841467450000004599684568006256563_);fill:#FAD4AF;}
	.st33{clip-path:url(#SVGID_00000094606513179841467450000004599684568006256563_);fill:#9B9B9B;}
	.st34{clip-path:url(#SVGID_00000094606513179841467450000004599684568006256563_);fill:#7F7F7F;}
</style>
<g>
	<defs>
		<path id="SVGID_1_" d="M1168.4,544.1c-3.9,17.8-9,41.2-21.3,65.9c-5.4,10.9-12.2,22-21,33c-27.6,34.7-60.5,50.9-77.4,58.9
			c-276.5,132-602.9,57-602.9,57c-112.2-25.8-212.9-48.9-291-117.8c-15.8-13.9-30.6-29.7-44.5-47.7C45,508.4,2.9,374,51.3,321.4
			c50.5-54.9,163.7-8.7,236.7-75.6c9.5-8.7,16.5-21.3,20.6-40.2c21.1-97,101.4-191.1,247.7-160.8c187.7,39,167,149.3,259.1,141.1
			s249.8-70,278.3,46.9c28.5,117-105.1,217.3-20,209c34.7-3.4,75.1-9.2,94.2,11.8C1183.2,470.4,1177.7,501.5,1168.4,544.1z"/>
	</defs>
	<clipPath id="SVGID_00000088114687974786654460000016480826995995162766_">
		<use xlink:href="#SVGID_1_"  style="overflow:visible;"/>
	</clipPath>
	<g style="clip-path:url(#SVGID_00000088114687974786654460000016480826995995162766_);">
		<path class="st1" d="M1168.4,544.1c-3.9,17.8-9,41.2-21.3,65.9c-5.4,10.9-12.2,22-21,33c-27.6,34.7-60.5,50.9-77.4,58.9
			c-276.5,132-602.9,57-602.9,57c-112.2-25.8-212.9-48.9-291-117.8c-15.8-13.9-30.6-29.7-44.5-47.7C45,508.4,2.9,374,51.3,321.4
			c50.5-54.9,163.7-8.7,236.7-75.6c9.5-8.7,16.5-21.3,20.6-40.2c21.1-97,101.4-191.1,247.7-160.8c187.7,39,167,149.3,259.1,141.1
			s249.8-70,278.3,46.9c28.5,117-105.1,217.3-20,209c34.7-3.4,75.1-9.2,94.2,11.8C1183.2,470.4,1177.7,501.5,1168.4,544.1z"/>
		<g>
			<path class="st2" d="M54.5,507.8c36.5-35.8,51.1-41.6,96.2-32c24.6,5.3,56.2,2.9,74.3-16.7c12.4-13.5,10.8-33.5,28.2-40.7
				c21.8-9.1,54.9,6.1,74.4,15.9c24.1,12.1,50,26.8,77,14.9c37.1-16.5,37.3-64.6,82.2-67.8c28.9-2.1,52.6,12.7,76.2,28
				c11.3,7.3,24.3,22.1,38.6,21.7c29.9-0.7,46.4-43.8,74.8-51.2c51.3-13.4,95.2,20.2,136.7,45.9c11.7,7.2,27.9,18.3,42.4,17.4
				c22.1-1.4,28-26.4,45-36.7c39.2-23.7,67.5,12,101.1,23.5c27.1,9.3,47.9-10,70.6-21.8c34.8-18,76.9-20.8,114.5-8.4
				c28.1,9.2,38.7,36.1,40.5,63.5c1.8,27.4-5.7,54.1-11.5,80.6c-6.3,29-8.3,57.7-11.7,87.1c-1.8,15.4-0.5,23.3-13.9,30.9
				c-14.9,8.4-41,8-57.3,5.6c-32-4.7-62.3-14.4-94.8-16.9c-33.9-2.7-67.9-2.3-101.8-4.8c-48.8-3.6-96.8-13-145.8-15.9
				c-43.4-2.6-86.8-3.8-130.2-7.1c-54.6-4-110.6-2.7-165.2-1.1c-71.6,2.1-142.5,3.4-213.3,16.7c-53.1,10-119.7,40.4-174.2,16.4
				c-15.8-7-24.7-18.1-29.7-34.3C71.3,600,66,577.3,61.4,556.2c-2.7-12.4,1.2-46.1-8.4-54.3"/>
		</g>
		<path class="st3" d="M1147.1,610c-5.4,10.9-12.2,22-21,33c-27.6,34.7-60.5,50.9-77.4,58.9c-276.5,132-602.9,57-602.9,57
			c-112.2-25.8-212.9-48.9-291-117.8c58.9-44.4,316.4-76.3,536.1-76.3C854.6,564.8,1039.2,582.6,1147.1,610z"/>
		<g>
			<path class="st4" d="M343.1,488c-7.1,3.5-14.4,7.1-21.9,10.5c-5.8,2.7-11.4,5.2-17,7.6c-1.3-5.8-2.8-11.7-4.3-17.6
				c-2.2-8.7-4.6-17.1-7-25.2c2.9,1.7,6.1,3.5,9.6,5.2c3,1.4,5.9,2.7,8.6,3.8c0.7,4.7,1.4,9.5,2.1,14.2c4.1-2,8.3-4,12.4-6.1
				c3.2-1.6,6.3-3.1,9.5-4.7C337.8,479.8,340.5,483.9,343.1,488z"/>
			<g>
				<g>
					<path class="st5" d="M292.2,647.8c0.1,1.7,0.1,2.5,0.1,2.8c0.3,1.5,1.9,2.3,5,4c4.5,2.4,7.4,3.9,10.4,4c0.8,0,1.7-0.1,2.1-0.7
						c0.5-0.7,0.3-1.6,0-2.4c-0.9-2.2-2.5-4-4.1-5.7c0,0,0,0,0,0l-0.2-0.2c-1.7-1.7-3.6-3.4-4.9-5.5c-1.3-2.1-2-4.7-1.3-7.1l0.2-0.4
						c-2,0.3-3.9,0.6-5.9,0.8c-0.3,0.1-0.7,0.1-0.9,0.3c-0.4,0.3-0.4,0.9-0.4,1.4c0,1.8-0.1,3.7-0.1,5.5
						C292.1,646,292.1,646.2,292.2,647.8z"/>
					<path class="st6" d="M299.9,642.7c-0.8-1.8-1.1-3.8-0.6-5.7l0.1-0.4c-2,0.3-3.9,0.5-5.9,0.8c-0.3,0-0.7,0.1-0.9,0.3
						c-0.4,0.3-0.4,0.9-0.4,1.4c0,1.2,0,2.4-0.1,3.6c1.2,0.1,2.5,0.2,3.9,0.2C297.5,642.9,298.7,642.8,299.9,642.7z"/>
					<path d="M292.2,647.8c-0.2,0.8-0.3,2.1,0.3,3.4c0.6,1.3,1.5,2,4.8,3.7c3.6,1.9,7.1,3.5,10.4,3.6c0.8,0,1.6-0.1,2.1-0.7
						c0.5-0.7,0.3-1.6,0-2.4c-0.9-2.2-2.5-4-4.1-5.7c0.1,0.1,1.5,2.5,0.6,3.5c-0.4,0.4-1.1,0.6-2.8,0.3
						C299.5,652.9,295,649.9,292.2,647.8z"/>
					<path class="st5" d="M273,647.8c-0.1,1.7-0.1,2.5-0.1,2.8c-0.3,1.5-1.9,2.3-5,4c-4.5,2.4-7.4,3.9-10.4,4
						c-0.8,0-1.7-0.1-2.1-0.7c-0.5-0.7-0.3-1.6,0-2.4c0.9-2.2,2.5-4,4.1-5.7c0,0,0,0,0,0l0.2-0.2c1.7-1.7,3.6-3.4,4.9-5.5
						c1.3-2.1,2-4.7,1.3-7.1l-0.2-0.4c2,0.3,3.9,0.6,5.9,0.8c0.3,0.1,0.7,0.1,0.9,0.3c0.4,0.3,0.4,0.9,0.4,1.4
						c0,1.8,0.1,3.7,0.1,5.5C273.1,646,273,646.2,273,647.8z"/>
					<path class="st6" d="M265.3,642.7c0.8-1.8,1.1-3.8,0.6-5.7l-0.1-0.4c2,0.3,3.9,0.5,5.9,0.8c0.3,0,0.7,0.1,0.9,0.3
						c0.4,0.3,0.4,0.9,0.4,1.4c0,1.2,0,2.4,0.1,3.6c-1.2,0.1-2.5,0.2-3.9,0.2C267.7,642.9,266.4,642.8,265.3,642.7z"/>
					<path class="st4" d="M307.3,551c0,2.3,0,4.5,0,6.8c-0.1,10.1-0.2,20.3-0.5,30.7c-0.5,18.1-1.2,35.8-2.2,53.1
						c-2.8,0-5.6-0.1-8.6-0.2c-3.5-0.2-6.9-0.4-10.2-0.7c0.1-30.1,0.2-60.2,0.3-90.3c0-1.7,0-3.5,0-5.2c3.4,0.5,7.2,1.3,11.3,2.5
						C301.1,548.7,304.4,549.8,307.3,551z"/>
					<path class="st4" d="M286.2,544.3c-0.2,2-0.3,3.9-0.5,5.9c-2.5,30.1-5.1,60.2-7.6,90.2c-2.9,0.1-6,0.1-9.2,0.1
						c-3.3,0-6.6-0.2-9.7-0.3c0-8.9,0.1-32.8,0.1-41.6c0-11,0.1-32,0.1-45.6c0-2,0-3.9,0-5.6c3-1.1,6.7-2.3,11.1-2.9
						C276.9,543.5,282.2,543.8,286.2,544.3z"/>
					<path class="st7" d="M286.2,544.3c-0.1,1-0.2,2-0.2,3c-0.1,0.9-0.1,1.8-0.2,2.7c-8.7,1.1-17.5,2.3-26.2,3.4c0-0.8,0-2.5,0-3.3
						c0-0.6,0-2.1,0-2.6c3-1.1,6.7-2.3,11.1-2.9C276.9,543.5,282.2,543.8,286.2,544.3z"/>
					<path class="st7" d="M307.3,551c0,2.3,0,4.5,0,6.8c-3.5-1.2-7-2.4-10.6-3.8c-3.6-1.3-7.1-2.7-10.6-4c0-0.2,0-2.2,0-2.3
						c0-0.2,0-2.4,0-2.6c3.4,0.5,7.2,1.3,11.3,2.5C301.1,548.7,304.4,549.8,307.3,551z"/>
					<path class="st4" d="M308.5,555.2c-7.4-2.8-14.9-5.5-22.3-8.3c-9.6,1.6-19.1,3.1-28.7,4.7c2.8-28.1,5.5-56.3,8.3-84.4
						c4.5-1.6,8.9-3.2,13.4-4.8c2.8,1,5.1,1.4,6.9,1.7c1.5,0.2,2.9,0.7,4.6,0.3c1-0.3,1.8-0.7,2.3-1c1.9,2.1,4.5,4.6,7.8,6.9
						c2.2,1.5,4.3,2.7,6.1,3.6C307.5,501,308,528.1,308.5,555.2z"/>
					<path class="st5" d="M293,463.3c-0.9,0.4-2,1-3.1,1.8c-1.7,1.2-2.9,2.5-3.7,3.6c-0.6-0.9-1.4-2-2.5-3.1c-1.4-1.5-2.9-2.6-4-3.3
						c0.2-0.6,0.3-0.9,0.4-1c0,0,0.1-0.2,0.2-0.4c0,0,0,0,0,0c0,0,0-0.1,0.1-0.1c0,0,0-0.1,0-0.1c0.3-0.6,0.4-1.7,0.5-2.7
						c0-0.7,0.1-1.4,0.1-2c0-1-0.1-1.8-0.1-1.8l12,0.4c0,0-0.1,1.5-0.3,3.7c-0.1,0.6-0.1,1.3-0.2,2c0,0.3,0,0.6,0,0.8
						c0,0,0,0.3,0,0.5C292.5,462.3,292.9,463.1,293,463.3z"/>
					<path class="st7" d="M280.3,461c0.7,0.6,1.3,1.1,2,1.7c1.2,1,2.4,2.1,3.5,3.1c0.2,0.9,0.3,1.9,0.5,2.8
						c-1.4-1.4-2.9-2.9-4.6-4.4c-0.8-0.7-1.6-1.3-2.4-1.9C279.6,461.9,279.9,461.5,280.3,461z"/>
					<path class="st7" d="M292.5,462.1c-0.7,0.2-1.5,0.5-2.3,0.9c-1.8,1-3,2.2-3.7,3.1c-0.1,0.9-0.2,1.8-0.3,2.7
						c1.1-1.2,2.4-2.5,4.1-3.7c0.9-0.7,1.8-1.3,2.6-1.8C292.8,462.9,292.7,462.5,292.5,462.1z"/>
					<path class="st8" d="M241,443"/>
					<g>
						<path class="st9" d="M285.6,487.7c-0.2,0.2-0.4,0.4-0.6,0.6"/>
					</g>
					<g>
						<g>
							<g>
								<path class="st5" d="M301.2,443.8c0.6-1.2,2.5-2.2,3.2-1.6c0.7,0.5,0.9,2.7,0.5,4.1c-0.5,1.3-2,3.7-2.5,4.1
									c-0.5,0.4-2.2,1.3-3.2,0.9L301.2,443.8z"/>
								<path class="st10" d="M301.7,443.1c-0.2,0.2-0.4,0.5-0.5,0.7l-2,7.4c0.6,0.2,1.6,0,2.3-0.3L301.7,443.1z"/>
								<path class="st5" d="M274.7,441.1c-0.3-1.3-2-2.6-2.8-2.3c-0.8,0.4-1.4,2.5-1.3,3.9c0.2,1.4,1.2,4,1.6,4.5
									c0.4,0.5,1.9,1.7,3,1.5L274.7,441.1z"/>
								<path class="st10" d="M274.3,440.3c0.2,0.3,0.3,0.5,0.4,0.8l0.5,7.7c-0.7,0.1-1.5-0.3-2.2-0.8L274.3,440.3z"/>
							</g>
							<path class="st10" d="M292.7,456.4c-0.1,1.5-0.2,2.9-0.3,4.4c-0.4,0.4-3,2.9-6.4,2.4c-1.8-0.2-3.4-1.3-3.9-1.7
								c-0.7-0.5-1.2-1-1.5-1.4c0.1-0.7,0.2-1.4,0.3-2.3c0.1-0.7,0.1-1.4,0.1-2l0.1-0.6C284.9,455.7,288.8,456.1,292.7,456.4z"/>
							<path class="st5" d="M290.4,418.8c-12.8-1.3-15.6,7.1-16.1,12.1c-0.5,5-0.6,9.7,0.5,16.6c1,6.4,3.9,8.9,6,11.1
								c1.1,1.2,1.8,2.2,3.2,2.5c0.6,0.2,1.4,0.2,2,0.3c0.8,0.1,1.8,0.1,2.6,0c1.2-0.2,2-0.9,2.9-1.7c4.5-3.7,4.1-3,4.8-3.8
								c1.2-1.4,2.4-3.2,3.4-5.8c2.5-6.5,3.4-11.2,3.9-16.2C304.2,429,303.2,420.1,290.4,418.8z"/>
							<path class="st11" d="M290.6,416.7c1.6-0.8,3.4-0.9,4.9-0.6c1.4,0.3,6.7,3.4,8.6,5.4c1.9,2.1,3.2,6.2,2.8,10.4
								c-0.4,4.2-2.7,9.8-2.9,10c-0.2,0.2-2,1.5-2,1.5s0.1-2.2,0.1-2.4c0-0.2-0.7-1.8-0.9-2c-0.2-0.2,0.2-1.2,0.2-1.5
								c0-0.3-0.1-1.4-0.5-2.3c-0.8,1.6-1.8,2.9-2.1,2.8c-0.2,0-0.7-1-1.1-2.1c-0.9-2.1-1.1-2.9-1.6-3.7c0,0.4-1.4,3.5-1.8,3.4
								c-0.4,0-0.7-2.4-1-4.1c-0.3-1.7-1.3-4.3-1.6-4.3c-0.2,0-2.3,1.1-2.3,1.1s-1.8-1.5-2-1.6c-0.2-0.1-1.7,2.3-2.4,3.9
								c-0.7,1.6-1.4,3.8-1.8,3.8c-0.4-0.1-1.1-3.3-1.1-3.7c-0.6,0.7-0.9,1.4-2.3,3.3c-0.7,1-1.3,1.8-1.5,1.8c-0.3,0-1-1.5-1.5-3.2
								c-0.6,0.7-0.9,1.8-1,2.1c-0.1,0.3,0.1,1.3-0.2,1.5c-0.2,0.2-1.2,1.6-1.2,1.8c-0.1,0.2-0.4,2.4-0.4,2.4s-1.5-1.7-1.6-1.9
								c-0.1-0.2-1.2-6.2-0.8-10.4c0.5-4.2,2.5-8,4.8-9.6c2.3-1.6,8-3.6,9.5-3.6C287.4,415.2,289.2,415.6,290.6,416.7z"/>
							<g>
								<path d="M279.1,442.9c1.7,1,3.2,1.1,5.1,0.5C283.1,445.2,279.9,444.9,279.1,442.9L279.1,442.9z"/>
							</g>
							<g>
								<path d="M291.9,444.5c1.7,1,3.2,1.1,5.1,0.5C295.8,446.8,292.6,446.5,291.9,444.5L291.9,444.5z"/>
							</g>
						</g>
						<g>
							<g>
								<path d="M278.1,441.5c1.6-2.8,6.1-2.7,7.7,0.1c0,0-0.7,0.4-0.7,0.4C283.5,439.5,280.1,439.4,278.1,441.5L278.1,441.5z"/>
							</g>
						</g>
						<g>
							<g>
								<path d="M298.1,444.3c-1.3-2.6-4.8-3.2-6.8-1.2c0,0-0.6-0.6-0.6-0.6C293,440.1,297.5,441.2,298.1,444.3L298.1,444.3z"/>
							</g>
						</g>
						<path class="st6" d="M283.2,454.5c0,0.3,2.1,0.8,3.6,0.9c1.8,0.2,4.2,0.3,4.3-0.1c0-0.3-2.1-1-4.2-1.2
							C285.2,454,283.3,454.2,283.2,454.5z"/>
						<g>
							<path class="st6" d="M285.4,451c1.1-0.4,2.2-0.3,3.2,0.3C287.6,451.7,286.5,451.6,285.4,451L285.4,451z"/>
						</g>
					</g>
				</g>
				<path class="st12" d="M283,629.3"/>
				<path class="st13" d="M286.2,467.8c0,26.4,0,52.8,0,79.1"/>
				<g>
					<path class="st13" d="M282.1,481.6c1.3,0.1,2.5,0.1,3.8,0.2c1.3,0.1,2.6,0.1,3.8,0.2"/>
					<path class="st13" d="M282.2,495.3c1.3,0.1,2.5,0.1,3.8,0.2c1.3,0.1,2.6,0.1,3.8,0.2"/>
					<path class="st13" d="M282.2,512.8c1.3,0.1,2.5,0.1,3.8,0.2c1.3,0.1,2.6,0.1,3.8,0.2"/>
					<path class="st13" d="M282,529.6c1.3,0.1,2.5,0.1,3.8,0.2c1.3,0.1,2.6,0.1,3.8,0.2"/>
				</g>
				<path d="M273,647.8c0.2,0.8,0.3,2.1-0.3,3.4c-0.6,1.3-1.5,2-4.8,3.7c-3.6,1.9-7.1,3.5-10.4,3.6c-0.8,0-1.6-0.1-2.1-0.7
					c-0.5-0.7-0.3-1.6,0-2.4c0.9-2.2,2.5-4,4.1-5.7c-0.1,0.1-1.5,2.5-0.6,3.5c0.4,0.4,1.1,0.6,2.8,0.3
					C265.7,652.9,270.1,649.9,273,647.8z"/>
			</g>
			<g>
				<g>
					<g>
						<g>
							<g>
								<path class="st14" d="M295,496.4c-3.2-0.6-2.9-0.6-6.1,0c0.7-0.5,1.9-0.8,2.8-0.8C292.8,495.8,294.1,496.1,295,496.4z"/>
								<path class="st15" d="M295.8,495.5c-1.4-0.2-3.1-0.7-4.5-0.8c-0.9,0.1-1.9,0.2-2.7,0.3c0.8-0.4,2-0.6,3-0.6
									C292.9,494.7,294.5,495.1,295.8,495.5z"/>
								<path class="st15" d="M296,494.7c-1.4-0.3-3.1-0.7-4.4-1c-1.2,0-2.3,0.2-3.5,0.1c1-0.3,2.3-0.4,3.4-0.4
									C293,493.7,294.7,494.2,296,494.7z"/>
							</g>
						</g>
					</g>
				</g>
			</g>
			<path class="st7" d="M343.1,488c-13.1,6.4-26.3,12.7-39.4,19.1c-3.5-13.2-5.1-19.8-4.8-19.8c0.2-0.1,2.1,5.5,5.5,16.7
				C317.3,498.6,330.2,493.3,343.1,488z"/>
		</g>
		<path class="st6" d="M337.9,476.6c0,0.1,0.5,0.3,0.6,0.6c0.3,1.4-5.8,3.9-5.7,4.1c0.1,0.2,4.3-1.4,9.1-3.2
			C340.1,477.4,338,476.5,337.9,476.6z"/>
		<g>
			<path class="st12" d="M531.7,589.4"/>
			<g>
				<g>
					<g>
						<path class="st5" d="M539.3,608.4c0.1,1.7,0.1,2.5,0.1,2.8c0.3,1.5,1.9,2.3,5,4c4.5,2.4,7.4,3.9,10.4,4c0.8,0,1.7-0.1,2.1-0.7
							c0.5-0.7,0.3-1.6,0-2.4c-0.9-2.2-2.5-4-4.1-5.7c0,0,0,0,0,0l-0.2-0.2c-1.7-1.7-3.6-3.4-4.9-5.5c-1.3-2.1-2-4.7-1.3-7.1
							l0.2-0.4c-2,0.3-3.9,0.6-5.9,0.8c-0.3,0.1-0.7,0.1-0.9,0.3c-0.4,0.3-0.4,0.9-0.4,1.4c0,1.8-0.1,3.7-0.1,5.5
							C539.2,606.6,539.2,606.7,539.3,608.4z"/>
						<path class="st6" d="M547,603.2c-0.8-1.8-1.1-3.8-0.6-5.7l0.1-0.4c-2,0.3-3.9,0.5-5.9,0.8c-0.3,0-0.7,0.1-0.9,0.3
							c-0.4,0.3-0.4,0.9-0.4,1.4c0,1.2,0,2.4-0.1,3.6c1.2,0.1,2.5,0.2,3.9,0.2C544.5,603.5,545.8,603.4,547,603.2z"/>
						<path d="M539.3,608.4c-0.2,0.8-0.3,2.1,0.3,3.4c0.6,1.3,1.5,2,4.8,3.7c3.6,1.9,7.1,3.5,10.4,3.6c0.8,0,1.6-0.1,2.1-0.7
							c0.5-0.7,0.3-1.6,0-2.4c-0.9-2.2-2.5-4-4.1-5.7c0.1,0.1,1.5,2.5,0.6,3.5c-0.4,0.4-1.1,0.6-2.8,0.3
							C546.5,613.4,542.1,610.5,539.3,608.4z"/>
						<path class="st5" d="M520.1,608.4c-0.1,1.7-0.1,2.5-0.1,2.8c-0.3,1.5-1.9,2.3-5,4c-4.5,2.4-7.4,3.9-10.4,4
							c-0.8,0-1.7-0.1-2.1-0.7c-0.5-0.7-0.3-1.6,0-2.4c0.9-2.2,2.5-4,4.1-5.7c0,0,0,0,0,0l0.2-0.2c1.7-1.7,3.6-3.4,4.9-5.5
							c1.3-2.1,2-4.7,1.3-7.1l-0.2-0.4c2,0.3,3.9,0.6,5.9,0.8c0.3,0.1,0.7,0.1,0.9,0.3c0.4,0.3,0.4,0.9,0.4,1.4
							c0,1.8,0.1,3.7,0.1,5.5C520.1,606.6,520.1,606.7,520.1,608.4z"/>
						<path class="st6" d="M512.4,603.2c0.8-1.8,1.1-3.8,0.6-5.7l-0.1-0.4c2,0.3,3.9,0.5,5.9,0.8c0.3,0,0.7,0.1,0.9,0.3
							c0.4,0.3,0.4,0.9,0.4,1.4c0,1.2,0,2.4,0.1,3.6c-1.2,0.1-2.5,0.2-3.9,0.2C514.8,603.5,513.5,603.4,512.4,603.2z"/>
						<path class="st16" d="M554.4,511.5c0,2.3,0,4.5,0,6.8c-0.1,10.1-0.2,20.3-0.5,30.7c-0.5,18.1-1.2,35.8-2.2,53.1
							c-2.8,0-5.6-0.1-8.6-0.2c-3.5-0.2-6.9-0.4-10.2-0.7c0.1-30.1,0.2-60.2,0.3-90.3c0-1.7,0-3.5,0-5.2c3.4,0.5,7.2,1.3,11.3,2.5
							C548.2,509.2,551.5,510.4,554.4,511.5z"/>
						<path class="st16" d="M533.3,504.8c-0.2,2-0.3,3.9-0.5,5.9c-2.5,30.1-5.1,60.2-7.6,90.2c-2.9,0.1-6,0.1-9.2,0.1
							c-3.3,0-6.6-0.2-9.7-0.3c0-8.9,0.1-32.8,0.1-41.6c0-11,0.1-32,0.1-45.6c0-2,0-3.9,0-5.6c3-1.1,6.7-2.3,11.1-2.9
							C523.9,504,529.3,504.3,533.3,504.8z"/>
						<path class="st17" d="M533.3,504.8c-0.1,1-0.2,2-0.2,3c-0.1,0.9-0.1,1.8-0.2,2.7c-8.7,1.1-17.5,2.3-26.2,3.4
							c0-0.8,0-2.5,0-3.3c0-0.6,0-2.1,0-2.6c3-1.1,6.7-2.3,11.1-2.9C523.9,504,529.3,504.3,533.3,504.8z"/>
						<path class="st17" d="M554.4,511.5c0,2.3,0,4.5,0,6.8c-3.5-1.2-7-2.4-10.6-3.8c-3.6-1.3-7.1-2.7-10.6-4c0-0.2,0-2.2,0-2.3
							c0-0.2,0-2.4,0-2.6c3.4,0.5,7.2,1.3,11.3,2.5C548.2,509.2,551.5,510.4,554.4,511.5z"/>
						<path class="st16" d="M555.6,515.8c-7.4-2.8-14.9-5.5-22.3-8.3c-9.6,1.6-19.1,3.1-28.7,4.7c0.9-26.3,1.8-52.6,2.7-78.9
							c6.3-3.4,12.7-6.8,19-10.2c2.8,1,5.1,1.4,6.9,1.7c1.5,0.2,2.9,0.7,4.6,0.3c1-0.3,1.8-0.7,2.3-1c1.9,2.1,4.5,4.6,7.8,6.9
							c2.2,1.5,4.3,2.7,6.1,3.6C554.5,461.5,555.1,488.7,555.6,515.8z"/>
						<path class="st8" d="M488.1,403.5"/>
						<g>
							<path class="st9" d="M532.6,448.3c-0.2,0.2-0.4,0.4-0.6,0.6"/>
						</g>
					</g>
					<path class="st12" d="M530.1,589.8"/>
					<path class="st18" d="M533.3,428.3c0,26.4,0,52.8,0,79.1"/>
					<g>
						<path class="st18" d="M529.1,442.1c1.3,0.1,2.5,0.1,3.8,0.2c1.3,0.1,2.6,0.1,3.8,0.2"/>
						<path class="st18" d="M529.2,455.9c1.3,0.1,2.5,0.1,3.8,0.2c1.3,0.1,2.6,0.1,3.8,0.2"/>
						<path class="st18" d="M529.2,473.3c1.3,0.1,2.5,0.1,3.8,0.2c1.3,0.1,2.6,0.1,3.8,0.2"/>
						<path class="st18" d="M529,490.1c1.3,0.1,2.5,0.1,3.8,0.2c1.3,0.1,2.6,0.1,3.8,0.2"/>
					</g>
					<path d="M520.1,608.4c0.2,0.8,0.3,2.1-0.3,3.4c-0.6,1.3-1.5,2-4.8,3.7c-3.6,1.9-7.1,3.5-10.4,3.6c-0.8,0-1.6-0.1-2.1-0.7
						c-0.5-0.7-0.3-1.6,0-2.4c0.9-2.2,2.5-4,4.1-5.7c-0.1,0.1-1.5,2.5-0.6,3.5c0.4,0.4,1.1,0.6,2.8,0.3
						C512.8,613.4,517.2,610.5,520.1,608.4z"/>
				</g>
			</g>
		</g>
		<g>
			<g>
				<g>
					<g>
						<path class="st19" d="M609.5,389.6c-27.4,36.9-9.9,234.9-28.9,235.7c-7.7,0.3-17.1,1.6-25.6,1.3c0,0-0.1,0-0.1,0
							c-3.3-0.1-6.4-0.5-9.2-1.2c-1.8-0.5-3.4-1.1-4.9-1.9c-4.7-2.5-7.8-6.9-8.2-14.2c0-0.2,0-0.4,0-0.7c0-0.8,0-1.6,0-2.4
							c1.7-37.3-0.5-68-0.9-75.2c-0.2-4.4-1.4-9.8-3.1-17c-4.2-17.2-9.4-25.4-19.8-49.9c-5.4-12.7-8.1-19.1-9.3-23.5
							c-5.8-20-4.4-37.9-2.3-49.9C526.1,368.6,576.3,384.5,609.5,389.6z"/>
						<g>
							<path class="st20" d="M561.4,624.5c0,0.6-0.1,1.2-0.1,1.8c-2.1,0.1-4.3,0.3-6.4,0.3c0,0-0.1,0-0.1,0
								c-3.3-0.1-6.4-0.5-9.2-1.2c0-0.3,0-0.6,0-0.9c0-5.5,3.5-10,7.9-10C557.9,614.5,561.4,619,561.4,624.5z"/>
							<path class="st20" d="M541.9,620.6c-0.3,1.1-0.7,2-1.2,2.9c-4.7-2.5-7.8-6.9-8.2-14.2c0-0.2,0-0.4,0-0.7
								c1.8,0,3.7,0.1,4.5,0.3C541.2,610.1,543.4,615.3,541.9,620.6z"/>
							<path class="st20" d="M581.5,624.5c-0.1-5.4-3.6-9.8-7.9-9.8c-4.4,0-7.9,4.5-7.9,10c0,0.6,0.1,1.1,0.1,1.7
								c4.6-0.3,9.1-0.8,13.1-0.9C579.8,625.4,580.7,625.1,581.5,624.5z"/>
						</g>
					</g>
					<g>
						<path class="st19" d="M663.7,481.8c0,0,22,46.7,23.1,124.5c-1.2,26.7,29.1,20.5,48.1,19c20.2-1.6-1.7-126.1,25.7-163.1
							C742.7,447,663.7,481.8,663.7,481.8z"/>
						<g>
							<path class="st20" d="M720.2,626.3c0.1-0.6,0.1-1.2,0.1-1.8c0-5.5-3.5-10-7.9-10c-4.4,0-7.9,4.5-7.9,10
								c0,0.6,0.1,1.2,0.1,1.7C709.6,626.8,714.9,626.6,720.2,626.3z"/>
							<path class="st20" d="M696.5,608.8c-3.5-1-6.4,2.8-8.4,6.6c2.1,5.8,6.8,8.7,12.7,10.1c0.7-1,1.2-2.1,1.5-3.4
								C703.7,616.8,700.7,610,696.5,608.8z"/>
							<path class="st20" d="M737.5,624.3c-0.1-5.4-3.6-9.8-7.9-9.8c-4.4,0-7.9,4.5-7.9,10c0,0.6,0.1,1.1,0.1,1.7
								c4.6-0.3,9.1-0.8,13.1-0.9C735.8,625.2,736.7,624.8,737.5,624.3z"/>
						</g>
					</g>
					<g>
						<path class="st21" d="M853.4,430.3c-5.6,39.4-19.4,50.2-25.7,91.3c-2.1,13.8-13,85.8-12.8,94.8c0.1,2.9-1.6,5.8-4.1,7.4
							c-0.8,0.6-1.7,1-2.7,1.2c-3.6,0.8-8.1,1.7-12.8,2.2c-0.9,0.1-1.7,0.2-2.6,0.3c-0.5,0.1-0.9,0.1-1.4,0.1c-0.2,0-0.5,0-0.7,0
							c-1.8,0.1-3.7,0.2-5.5,0.2c0,0,0,0-0.1,0c0,0-0.1,0-0.1,0c0,0,0,0,0,0c-2.7,0-5.3-0.2-7.8-0.6c-1.1-0.2-2.2-0.4-3.3-0.7
							c-4.5-1.2-8.3-3.3-10.9-6.7c-0.8-1-1.4-2.1-1.9-3.1c-1.8-4-1.8-8.1-1.8-10.5c0.1-33.3,0.2-81.9-17.7-110.2
							c-3.5-5.6-7.2-20.2-6.1-35.1c0.3-3.8,3.6-26.8,12.1-39.6c0,0,103.5-54.7,106.7-31.6C855.3,397.9,855.2,417.8,853.4,430.3z"/>
						<g>
							<path class="st20" d="M792.9,625.8c0,0.6-0.1,1.2-0.1,1.8c0,0,0,0,0,0c-0.5,0-0.9,0.1-1.4,0.1c-0.2,0-0.5,0-0.7,0
								c-1.9,0.1-3.7,0.2-5.5,0.2c0,0,0,0-0.1,0c0,0-0.1,0-0.1,0c0,0,0,0,0,0c-2.7,0-5.3-0.2-7.8-0.6c-0.1-0.5-0.1-1-0.1-1.5
								c0-5.5,3.5-10,7.9-10C789.3,615.9,792.9,620.3,792.9,625.8z"/>
							<path class="st20" d="M774.7,624.3c-0.2,0.8-0.5,1.6-0.9,2.3c-4.5-1.2-8.3-3.3-10.9-6.7c-0.8-1-1.4-2.1-1.9-3.1
								c2.1-3.2,5.5-5,8.7-4.1C774,613.8,776.2,619,774.7,624.3z"/>
							<path class="st20" d="M810.9,623.9c-0.8,0.6-1.7,1-2.7,1.2c-3.6,0.8-8.1,1.7-12.8,2.2c-0.1-0.4-0.1-0.8-0.1-1.3
								c0-5.5,3.5-10,7.9-10C806.9,616.1,810.1,619.4,810.9,623.9z"/>
						</g>
					</g>
					<path class="st21" d="M854.2,393.3c0,91.6-121.3,99.2-121.3,99.2s-41.1,10.6-91.6,7.2c-1.4-0.1-2.9-0.2-4.3-0.3
						c-21.5-1.8-46.3-2.7-66.7-15.1c-45.5-27.6-44.6-53.1-48.2-85c-0.1-0.7-0.2-1.5-0.3-2.2c-0.1-0.9-0.2-1.8-0.3-2.6
						c-4.8-35.4-1.2-65.5,3.5-76c0.3-0.8,0.7-1.4,1-2c0.1-0.1,0.1-0.2,0.2-0.3c0.3-0.4,0.5-0.7,0.8-0.9c0.1-0.1,0.1-0.1,0.2-0.2
						c10.4-8.7,57.8-56.5,57.8-56.5s5.6,4,18.1,8.2c12.4,4.2,31.6,8.6,58.8,9.5c55.6,1.9,75.4,10.4,98.1,12.9
						c20.1,2.3,56.7,11.4,78.4,48.3c5.7,9.7,10.1,20.9,12.4,33.8C851.9,377.8,854.2,385.9,854.2,393.3z"/>
					<path class="st19" d="M609.5,304.8c0,55.5-52.6,83.2-87.4,94.4c-0.1-0.7-0.2-1.5-0.3-2.2c-0.1-0.9-0.2-1.8-0.3-2.6
						c-4.8-35.4-1.2-65.5,3.5-76c0.3-0.8,0.7-1.4,1-2c0.1-0.1,0.1-0.2,0.2-0.3c0.3-0.4,0.5-0.7,0.8-0.9c0.1-0.1,0.1-0.1,0.2-0.2
						c10.4-8.7,57.8-56.5,57.8-56.5s5.6,4,18.1,8.2C607.1,277.8,609.5,290.5,609.5,304.8z"/>
					<g>
						<path class="st21" d="M545.6,464.4c0,0,29.6,35.2,24.4,141.8c-1.3,26.7,29,19.8,48.1,19c7.5-0.3,7.2-11.8,8.6-22.6
							c4.6-37.2-3-44.4,0.2-69.1c2.9-22.4,10.1-24,16.3-59.8c1.8-10.1,2.7-18.6,3.2-24.2C612.7,454.4,579.1,459.4,545.6,464.4z"/>
						<g>
							<path class="st20" d="M603.4,626.3c0.1-0.6,0.1-1.2,0.1-1.8c0-5.5-3.5-10-7.9-10c-4.4,0-7.9,4.5-7.9,10
								c0,0.6,0.1,1.2,0.1,1.7C592.7,626.8,598.1,626.6,603.4,626.3z"/>
							<path class="st20" d="M580.3,610.5c-3.5-1-7.2,1.2-9.2,5c2.1,5.8,6.8,8.7,12.7,10.1c0.7-1,1.2-2.1,1.5-3.4
								C586.8,616.9,584.5,611.6,580.3,610.5z"/>
							<path class="st20" d="M620.6,624.3c-0.1-5.4-3.6-9.8-7.9-9.8c-4.4,0-7.9,4.5-7.9,10c0,0.6,0.1,1.1,0.1,1.7
								c4.6-0.3,9.1-0.8,13.1-0.9C619,625.2,619.8,624.8,620.6,624.3z"/>
						</g>
					</g>
				</g>
			</g>
			<g>
				<path class="st19" d="M415.3,201.5c-21.3,4-31.7,24-41.6,43.2c-5.2,10-18.4,35.7-10.4,62.8c2.5,8.3,5.3,11.2,12.6,23.1
					c30.8,50.1,39,93.5,48.8,91.7c0.7-0.1,1.3-0.3,2.2-1.3c14.3-15.4,27.1-60.6,27.1-60.6l16.4-131.9
					C456.2,209.1,434.8,197.8,415.3,201.5z"/>
				<path class="st22" d="M462,352.2c0.8,4.9-96.9,106.9-105.7,109c2.7-3.9,5.6-8,8.7-12.3c27.9-38.9,69.8-91.8,74.1-103.7
					c1-2.9,2.6-4.6,4.5-5.4C450.4,337,460.9,345.5,462,352.2z"/>
				<path class="st23" d="M455.6,352.2c0.6,3.9-60.8,69-90.6,96.7c27.9-38.9,69.8-91.8,74.1-103.7c1-2.9,2.6-4.6,4.5-5.4
					C449.2,341.7,454.8,347.4,455.6,352.2z"/>
				<g>
					<path class="st21" d="M575.1,297.8c-3.4,46.3-45.3,109.2-86,106.2c-40.4-3-58.3-81.3-61.5-117.1c-3.5-38.4,14.9-82,36.1-84.9
						c14.3-2,22,15.6,43.9,13.6c15.1-1.4,17.8-10.2,30.8-9.5c20.4,1.2,33.9,24,35.4,26.6C588.2,257.8,576.1,285.5,575.1,297.8z"/>
					<path class="st19" d="M497,394.7c-24.3,18-45.7,29.9-60.6,37.4c-46.2,23.2-72.7,25.4-105.9,51.9
						c-16.8,13.4-28.1,27.3-34.9,36.8c1.2,2.9,2.8,8.4,0.3,12.6c-4,6.7-17.2,6.7-24.7,3.7c-3.1-1.2-5.2-2.9-5.4-4.8
						c-0.5-5.3,9-11.3,9-11.3c0.3-1,0.9-2.7,1.6-4.7c22.2-60.4,88.5-72.1,133.6-109.6c21.7-18,47.2-49.3,61.7-107.1
						c0.7-2.7,1.3-5.4,1.9-8.2C481.3,325.8,489.1,360.3,497,394.7z"/>
					<path class="st21" d="M497,390.7c-3.5,2.6-7,5.1-10.6,7.6l-2,1.4c-14.3,9.8-28.3,18.3-39.7,24.6l-2.1,1.2
						c-3.8,2.1-7.3,3.9-10.4,5.5c-7.7,3.9-14.9,7.2-21.7,10.1c-0.8,0.3-1.5,0.7-2.3,1c-10.2,4.3-19.4,7.8-28.1,11.3l-2.3,0.9h0
						c-7.8,3.1-15.1,6.2-22.4,9.9c-0.7,0.4-1.5,0.8-2.2,1.1c-5.1,2.6-10.1,5.6-15.3,9c-0.7,0.5-1.5,1-2.2,1.5
						c-3.1,2.2-6.3,4.5-9.5,7.1c-2.4,1.9-4.7,3.9-6.9,5.8c-0.7,0.6-1.4,1.2-2,1.8c-5.1,4.6-9.6,9.2-13.4,13.5
						c-0.6,0.6-1.1,1.3-1.7,1.9c-4.5,5.1-8.1,9.8-10.9,13.7c1.2,2.9,2.8,8.4,0.3,12.6c-3.4,5.6-13.1,6.5-20.6,4.9
						c-3.1-1.2-5.2-2.9-5.4-4.8c-0.5-5.3,9-11.3,9-11.3c0.3-1,0.9-2.7,1.6-4.7c1.5-4.1,3.2-8,5.1-11.7c0.4-0.9,0.9-1.7,1.4-2.6
						c2.2-4,4.6-7.7,7.3-11.3c0.8-1.1,1.6-2.1,2.5-3.2c4.6-5.7,9.7-10.9,15.1-15.6c1.1-1,2.3-1.9,3.4-2.9c4.7-3.8,9.6-7.4,14.7-10.7
						c0,0,0,0,0,0c1.8-1.2,3.5-2.3,5.3-3.4c0,0,0,0,0,0c1.7-1.1,3.4-2.1,5.1-3.1c0.3-0.2,0.6-0.4,0.9-0.6c5.2-3.1,10.5-6.1,15.9-9
						c0,0,0,0,0,0h0c1.4-0.8,2.7-1.5,4.1-2.2h0c1.1-0.6,2.2-1.2,3.3-1.8c0.2-0.1,0.5-0.3,0.7-0.4c0,0,0,0,0,0c5.4-3,10.9-6,16.2-9.1
						c1.5-0.8,2.9-1.7,4.4-2.6c8-4.8,15.8-9.8,23.2-15.5c0,0,0,0,0,0c1.2-0.9,2.3-1.8,3.4-2.7l0,0c0.5-0.4,0.9-0.8,1.4-1.1
						c5.5-4.6,11.3-10.6,17.3-18.1c0.9-1.1,1.8-2.3,2.7-3.5c4.6-6,9.1-12.8,13.6-20.4v0c0.6-1.1,1.3-2.2,1.9-3.4
						c11.2-19.7,21.5-44.2,28.5-72.4c5.3,23.3,11.5,51,17.3,76.6v0l0.7,3C493.7,376.2,495.4,383.7,497,390.7z"/>
					<g>
						<g>
							<path class="st19" d="M304,503.9c-0.6,0.6-1.1,1.3-1.7,1.9c-8.6-2.3-15.8-2.1-20.9-1.2c0.4-0.9,0.9-1.7,1.4-2.6
								C288.2,501.4,295.4,501.5,304,503.9z"/>
						</g>
						<g>
							<path class="st19" d="M319.5,488.6c-0.7,0.6-1.4,1.2-2,1.8c-13.3-3.5-23.1-1.2-27.4,0.4c0.8-1.1,1.6-2.1,2.5-3.2
								C298.2,486.1,307.5,485,319.5,488.6z"/>
						</g>
						<g>
							<path class="st19" d="M338.1,474.2c-0.7,0.5-1.5,1-2.2,1.5c-12-5.5-21.7-5.2-28.3-3.7c1.1-1,2.3-1.9,3.4-2.9
								C318,468.2,327.3,468.9,338.1,474.2z"/>
						</g>
						<g>
							<path class="st19" d="M355.6,464c-0.7,0.4-1.5,0.8-2.2,1.1c-7.2-5.6-14.2-8.3-21-8c-2.4,0.1-4.6,0.6-6.5,1.2
								c1.8-1.2,3.5-2.3,5.3-3.4c0,0,0,0,0,0c0.3,0,0.7,0,1-0.1C339.9,454.6,347.7,457.6,355.6,464z"/>
						</g>
						<g>
							<path class="st24" d="M336.3,451.8c0.3-0.2,0.6-0.4,0.9-0.6c-0.4,0.5-0.6,0.8-0.6,0.8L336.3,451.8z"/>
							<path class="st19" d="M380.2,453.2l-2.3,0.9h0c-8.1-8.3-16-12.3-23.7-12c-0.4,0-0.7,0-1.1,0.1c1.4-0.8,2.7-1.5,4.1-2.2h0
								C364.8,440.7,372.5,445.1,380.2,453.2z"/>
						</g>
						<g>
							<path class="st24" d="M360.5,438.1l0.7-0.4c0,0,0,0,0,0c0,0,0,0,0,0c-0.3,0.3-0.5,0.6-0.5,0.6L360.5,438.1z"/>
							<path class="st19" d="M410.5,441c-0.8,0.3-1.5,0.7-2.3,1c-9.6-9.4-19-13.9-28.1-13.6c-0.9,0-1.9,0.1-2.7,0.3
								c-0.1,0-0.2,0-0.2,0l4.6-2.6C391.2,426.3,400.9,431.3,410.5,441z"/>
						</g>
						<g>
							<path class="st19" d="M444.7,424.3l-2.1,1.2c-11.4-10.6-22.7-15.7-33.5-15.3c-1.4,0.1-2.8,0.2-4.1,0.4
								c1.2-0.9,2.3-1.8,3.4-2.7l0,0c0.2,0,0.4,0,0.5,0C420.6,407.4,432.6,412.9,444.7,424.3z"/>
						</g>
						<g>
							<path class="st19" d="M486.4,398.3l-2,1.4c-16.3-12.1-32.8-16.9-47.9-14c-3.6,0.7-6.7,1.8-9.4,3c0.9-1.1,1.8-2.3,2.7-3.5
								c1.9-0.7,4-1.2,6.2-1.7C447.4,381.3,465,382.2,486.4,398.3z"/>
						</g>
						<g>
							<path class="st19" d="M491.9,368.6c-12.9-7.2-25.7-9.7-37.6-7.4c-4.3,0.8-7.9,2.2-10.9,3.6c0.6-1.1,1.3-2.2,1.9-3.4
								c2.5-1,5.3-1.9,8.4-2.5c8.9-1.8,21.8-1.6,37.5,6.6v0L491.9,368.6z"/>
						</g>
					</g>
				</g>
				<path class="st19" d="M619.5,211.9c-7.6-2.1-16-1-16-1c-4.4,0.5-8.1,1.7-11.7,3.4c-4.9,2.2-8.1,4.3-11.1,6.2
					c-4.3,2.7-10.7,6.3-19.3,9.8c5.8,11.4,12.4,28.2,13.7,49c3.7,56.2-33.2,96-41.3,104.2c13.7,9.9,29.6,23.1,45.4,40.5
					c11.8,13,21.3,25.6,28.8,37c-1.2-5.6-2.5-13.2-3.4-22.3c0,0-1.3-12.8-1.1-25c0.5-28,36.7-58.9,47.4-99.2
					C665.3,260.3,626.9,214,619.5,211.9z"/>
			</g>
			<g>
				<path class="st25" d="M509.2,301.3c0,6.8-2.7,12.3-6.1,12.3c-3.4,0-6.1-5.5-6.1-12.3c0-6.8,2.7-12.3,6.1-12.3
					C506.5,289,509.2,294.5,509.2,301.3z"/>
				<path class="st26" d="M511.4,292.4c0,2.8-2.3,5.1-5.1,5.1c-2.8,0-5.1-2.3-5.1-5.1c0-2.8,2.3-5.1,5.1-5.1
					C509.1,287.2,511.4,289.5,511.4,292.4z"/>
			</g>
			<g>
				<path class="st25" d="M444.4,293.3c0,6.8-2.7,12.3-6.1,12.3c-3.4,0-6.1-5.5-6.1-12.3c0-6.8,2.7-12.3,6.1-12.3
					C441.6,281,444.4,286.5,444.4,293.3z"/>
				<path class="st26" d="M446.5,284.3c0,2.8-2.3,5.1-5.1,5.1c-2.8,0-5.1-2.3-5.1-5.1c0-2.8,2.3-5.1,5.1-5.1
					C444.2,279.2,446.5,281.5,446.5,284.3z"/>
			</g>
			<path class="st19" d="M739.5,491.7c0,0-3.6,1-7.6,1c-1.8-13.6-2.3-26.5-1.2-36.3c0.8-7.8,1.9-19.9,10.3-32.7
				C741,423.8,727.1,463.1,739.5,491.7z"/>
			<path class="st27" d="M641.3,499.6c-1.4-0.1-2.9-0.2-4.3-0.3c1.9-5.2,6.6-18.4,8.2-25.4c3.4-15.3,0.6-25.4,0.5-25.8
				C646,448.6,654.4,463.5,641.3,499.6z"/>
		</g>
		<path class="st19" d="M518.3,379.1c0,5.8-8.1,7.9-15.2,7.9c-7.1,0-12.9-4.7-12.9-10.6c0-5.8,5.8-10.6,12.9-10.6
			C510.2,365.8,518.3,373.2,518.3,379.1z"/>
		<path class="st22" d="M516.2,380.1c1,4.8-92.4,110.8-101.1,113.3c2.2-3.5,4.6-7.2,7.1-11c26.3-40.1,67.1-96.1,70.9-108.3
			c1-3.3,2.8-5.1,5-5.8C504.8,366,514.9,373.8,516.2,380.1z"/>
		<path class="st23" d="M510.7,380.1c0.8,3.9-60.7,74.6-88.4,102.3c26.3-40.1,67.1-96.1,70.9-108.3c1-3.3,2.8-5.1,5-5.8
			C503.8,369.8,509.7,375.4,510.7,380.1z"/>
		<path class="st5" d="M346.9,477.7c-0.2,0.9-1.6,1.6-4.2,3c-0.5,0.3-1.5,0.8-2.9,1.4c-0.8,0.3-1.3,0.6-1.8,0.8c0,0,0,0,0,0
			c-0.4,0.1-1.5,0.2-2.7-0.5c-0.6-0.3-1-0.7-1.3-1.1c0.4-0.4,1-0.8,1.7-1.2c1.2-0.7,2.4-1,3.2-1.1c-0.5-0.1-1.2-0.2-2-0.5
			c-0.2-0.1-0.4-0.2-0.6-0.3c-0.2-0.1-0.3-0.3-0.3-0.5c0-0.1,0.1-0.2,0.2-0.3c0.2-0.2,0.5-0.3,0.7-0.2c0.7,0.2,1.4,0.4,2.2,0.6
			c-0.5-0.4-0.9-0.6-1.2-0.8c-0.3-0.2-0.6-0.3-0.6-0.6c0-0.2,0.1-0.4,0.1-0.4c0.2-0.4,0.9-0.5,1.2-0.4c0.6,0.2,1.5,0.6,2.1,0.8
			c-0.5-0.5-0.9-0.8-1.2-1c-0.6-0.4-1-0.6-1.1-0.9c-0.1-0.3,0.1-0.5,0.2-0.7c0.2-0.1,0.5-0.2,0.7-0.3c0.3,0,0.7,0,1.2,0.2
			c1.3,0.4,2.1,1.4,2.3,1.8c-0.4-0.7-0.8-1.3-1.2-2c-0.4-0.7,0.3-1.5,1-1.1C345.4,474,347.3,476.1,346.9,477.7z"/>
		<g>
			<path class="st4" d="M854.9,480.2c-7.1,3.5-14.4,7.1-21.9,10.5c-5.8,2.7-11.4,5.2-17,7.6c-1.3-5.8-2.7-11.6-4.3-17.6
				c-2.2-8.6-4.6-16.9-7-25c3.2,1.8,6.4,3.6,9.6,5.5c2.4,1.4,4.8,2.8,7.3,4.1c1.1,4.4,2.3,8.9,3.4,13.3c4.1-2,8.3-4,12.4-6.1
				c3.2-1.6,6.3-3.1,9.5-4.7C849.6,472,852.3,476.1,854.9,480.2z"/>
			<path class="st6" d="M851,465.7c0,0.1,0.6,0.3,0.7,0.7c0.4,1.5-6.3,4-6.1,4.4c0,0.1,0.6,0.1,2.9-0.5c2.3-1,4.5-1.9,6.8-2.9
				C853.3,466.6,851.1,465.6,851,465.7z"/>
			<g>
				<g>
					<path class="st5" d="M804,640c0.1,1.7,0.1,2.5,0.1,2.8c0.3,1.5,1.9,2.3,5,4c4.5,2.4,7.4,3.9,10.4,4c0.8,0,1.7-0.1,2.1-0.7
						c0.5-0.7,0.3-1.6,0-2.4c-0.9-2.2-2.5-4-4.1-5.7c0,0,0,0,0,0l-0.2-0.2c-1.7-1.7-3.6-3.4-4.9-5.5c-1.3-2.1-2-4.7-1.3-7.1l0.2-0.4
						c-2,0.3-3.9,0.6-5.9,0.8c-0.3,0.1-0.7,0.1-0.9,0.3c-0.4,0.3-0.4,0.9-0.4,1.4c0,1.8-0.1,3.7-0.1,5.5
						C803.9,638.2,803.9,638.4,804,640z"/>
					<path class="st6" d="M811.7,634.9c-0.8-1.8-1.1-3.8-0.6-5.7l0.1-0.4c-2,0.3-3.9,0.5-5.9,0.8c-0.3,0-0.7,0.1-0.9,0.3
						c-0.4,0.3-0.4,0.9-0.4,1.4c0,1.2,0,2.4-0.1,3.6c1.2,0.1,2.5,0.2,3.9,0.2C809.3,635.1,810.5,635,811.7,634.9z"/>
					<path d="M804,640c-0.2,0.8-0.3,2.1,0.3,3.4c0.6,1.3,1.5,2,4.8,3.7c3.6,1.9,7.1,3.5,10.4,3.6c0.8,0,1.6-0.1,2.1-0.7
						c0.5-0.7,0.3-1.6,0-2.4c-0.9-2.2-2.5-4-4.1-5.7c0.1,0.1,1.5,2.5,0.6,3.5c-0.4,0.4-1.1,0.6-2.8,0.3
						C811.3,645.1,806.8,642.1,804,640z"/>
					<path class="st5" d="M784.8,640c-0.1,1.7-0.1,2.5-0.1,2.8c-0.3,1.5-1.9,2.3-5,4c-4.5,2.4-7.4,3.9-10.4,4
						c-0.8,0-1.7-0.1-2.1-0.7c-0.5-0.7-0.3-1.6,0-2.4c0.9-2.2,2.5-4,4.1-5.7c0,0,0,0,0,0l0.2-0.2c1.7-1.7,3.6-3.4,4.9-5.5
						c1.3-2.1,2-4.7,1.3-7.1l-0.2-0.4c2,0.3,3.9,0.6,5.9,0.8c0.3,0.1,0.7,0.1,0.9,0.3c0.4,0.3,0.4,0.9,0.4,1.4
						c0,1.8,0.1,3.7,0.1,5.5C784.9,638.2,784.8,638.4,784.8,640z"/>
					<path class="st6" d="M777.1,634.9c0.8-1.8,1.1-3.8,0.6-5.7l-0.1-0.4c2,0.3,3.9,0.5,5.9,0.8c0.3,0,0.7,0.1,0.9,0.3
						c0.4,0.3,0.4,0.9,0.4,1.4c0,1.2,0,2.4,0.1,3.6c-1.2,0.1-2.5,0.2-3.9,0.2C779.5,635.1,778.2,635,777.1,634.9z"/>
					<path class="st4" d="M819.1,543.2c0,2.3,0,4.5,0,6.8c-0.1,10.1-0.2,20.3-0.5,30.7c-0.5,18.1-1.2,35.8-2.2,53.1
						c-2.8,0-5.6-0.1-8.6-0.2c-3.5-0.2-6.9-0.4-10.2-0.7c0.1-30.1,0.2-60.2,0.3-90.3c0-1.7,0-3.5,0-5.2c3.4,0.5,7.2,1.3,11.3,2.5
						C812.9,540.9,816.2,542,819.1,543.2z"/>
					<path class="st4" d="M798,536.5c-0.2,2-0.3,3.9-0.5,5.9c-2.5,30.1-5.1,60.2-7.6,90.2c-2.9,0.1-6,0.1-9.2,0.1
						c-3.3,0-6.6-0.2-9.7-0.3c0-8.9,0.1-32.8,0.1-41.6c0-11,0.1-32,0.1-45.6c0-2,0-3.9,0-5.6c3-1.1,6.7-2.3,11.1-2.9
						C788.7,535.7,794,536,798,536.5z"/>
					<path class="st7" d="M798,536.5c-0.1,1-0.2,2-0.2,3c-0.1,0.9-0.1,1.8-0.2,2.7c-8.7,1.1-17.5,2.3-26.2,3.4c0-0.8,0-2.5,0-3.3
						c0-0.6,0-2.1,0-2.6c3-1.1,6.7-2.3,11.1-2.9C788.7,535.7,794,536,798,536.5z"/>
					<path class="st7" d="M819.1,543.2c0,2.3,0,4.5,0,6.8c-3.5-1.2-7-2.4-10.6-3.8c-3.6-1.3-7.1-2.7-10.6-4c0-0.2,0-2.2,0-2.3
						c0-0.2,0-2.4,0-2.6c3.4,0.5,7.2,1.3,11.3,2.5C812.9,540.9,816.2,542,819.1,543.2z"/>
					<path class="st4" d="M820.3,547.4c-7.4-2.8-14.9-5.5-22.3-8.3c-9.6,1.6-19.1,3.1-28.7,4.7c2.9-28.5,5.8-56.9,8.6-85.4
						c4.4-1.3,8.7-2.5,13.1-3.8c2.8,1,5.1,1.4,6.9,1.7c1.5,0.2,2.9,0.7,4.6,0.3c1-0.3,1.8-0.7,2.3-1c1.9,2.1,4.5,4.6,7.8,6.9
						c2.2,1.5,4.3,2.7,6.1,3.6C819.3,493.2,819.8,520.3,820.3,547.4z"/>
					<path class="st28" d="M818.3,421.3c-0.3-1.4-1.5-5.9-5.4-8.1c-1-0.5-1.8-0.8-2.4-0.9c-0.3-0.4-0.8-1.1-1.5-1.6
						c-1.4-1.1-3.5-1.8-7.6-1.3c-2.9,0.4-13.3,1.8-16.2,8.7c-0.9,2.2-1.2,5.3-1.8,10.6c-0.1,1-0.2,1.8-0.2,2.3c0.5,0,2,3.2,2.2,7.2
						c0,0.6,0.2,1.3,0.3,2.1c0.4,1.3,0.9,2.8,1.6,4.3c0.7,1.7,1.4,3.2,2.2,4.6c0-0.3,0-0.6-0.1-0.9c0,0,1.4,2,3.8,4.6
						c0,0-0.2-1.7-0.2-2.1c0-0.2,0-0.2,0.1,0c0.2,0.8,4.4,4.5,5.3,5.2c0,0,0.1,0,0.1,0.1c0,0,0.1,0,0.1-0.1c0.8-0.5,3.9-2.4,5.3-3.6
						c0.4-0.3,0.7-0.6,0.8-0.8c0.2-0.4,0.1,0-0.1,0.6c-0.2,0.6-0.4,1.5-0.4,1.5c0.9-1,1.8-1.9,2.7-2.9c0.4-0.5,0.9-1,1.3-1.4
						c-0.1,0.6-0.2,1.1-0.3,1.7c1.4-1.4,2.5-2.7,3.2-3.7c1.2-1.7,1.9-3.2,2.4-4.1c0.6-1.3,1-2.5,1.4-3.4
						C817.7,432.4,819.8,427,818.3,421.3z"/>
					<path class="st5" d="M804.7,455.5c-0.9,0.4-2,1-3.1,1.8c-1.7,1.2-2.9,2.5-3.7,3.6c-0.6-0.9-1.4-2-2.5-3.1
						c-1.4-1.5-2.9-2.6-4.1-3.3c0.2-0.6,0.4-0.9,0.4-0.9c0,0,0.1-0.2,0.2-0.4c0,0,0,0,0,0c0,0,0-0.1,0.1-0.1
						c0.3-0.6,0.4-1.7,0.5-2.8c0.1-1.9,0-3.8,0-3.8l12,0.4c0,0-0.1,1.5-0.3,3.7c0,0.6-0.1,1.3-0.2,2c0,0.3,0,0.6,0,0.8
						c0,0,0,0.3,0,0.5C804.3,454.5,804.7,455.3,804.7,455.5z"/>
					<path class="st15" d="M804.2,452.4c0,0.5,0,0.9,0,1.3c-1.1,0.9-2.2,1.2-2.8,1.4c-1,0.2-2,0.1-3.9-0.1c-1.3-0.1-1.9-0.2-2.5-0.4
						c-1.3-0.5-2.2-1.3-2.7-1.9c0.2-1,0.3-1.9,0.4-2.6c0,0,0-3.8,0-3.8l0,0l12,0.4c0,0-0.1,1.5-0.3,3.7
						C804.3,451,804.3,451.7,804.2,452.4z"/>
					<path class="st7" d="M792.1,453.2c0.7,0.6,1.3,1.1,2,1.7c1.2,1,2.4,2.1,3.5,3.1c0.2,0.9,0.3,1.9,0.5,2.8
						c-1.4-1.4-2.9-2.9-4.6-4.4c-0.8-0.7-1.6-1.3-2.4-1.9C791.4,454.1,791.7,453.7,792.1,453.2z"/>
					<path class="st7" d="M804.3,454.3c-0.7,0.2-1.5,0.5-2.3,0.9c-1.8,1-3,2.2-3.7,3.1c-0.1,0.9-0.2,1.8-0.3,2.7
						c1.1-1.2,2.4-2.5,4.1-3.7c0.9-0.7,1.8-1.3,2.6-1.8C804.6,455.1,804.5,454.7,804.3,454.3z"/>
					<g>
						<path class="st5" d="M787.7,433.4c-0.4-1.2-0.9-2.1-1.3-2.6c-0.4-0.6-0.9-1.1-1.6-1.4c-0.2-0.1-0.9-0.3-1.5,0
							c-0.5,0.3-0.6,0.9-0.7,1.5c-0.2,1.3-0.1,2.7,0.5,5c0.6,2.3,1,3,1.5,3.5c0.7,0.8,1.3,1,1.7,1c0.2,0,0.6,0.1,1-0.1
							c0.8-0.4,0.9-1.5,0.9-1.6C788,436.9,787.8,435.2,787.7,433.4z"/>
						<path class="st5" d="M811.7,442.5c0.2,0.2,0.5,0.5,0.9,0.6c0.2,0,0.8,0.1,1.8-0.6c2.2-1.7,2.6-4.8,2.8-6.1
							c0.1-0.6,0.2-1.6-0.4-2.4c-0.1-0.2-0.4-0.7-0.9-0.8c-0.4-0.1-0.7,0.1-1,0.2c-0.9,0.5-1.3,1.4-1.4,1.8
							C813.5,435.2,811.2,441.2,811.7,442.5z"/>
						<path class="st5" d="M814.2,425.9c-0.3-1.7-0.5-3.4-1.6-5.2c-3-4.9-9.8-5.8-14.1-5.2c-1.9,0.2-5.1,0.6-7.7,3.1
							c-2.8,2.7-3.3,6.3-3.8,10.6c-0.2,1.9-0.6,6.3,0.7,11.6c0.4,1.4,1.2,4.3,3.2,7.4c2.5,4,4.6,5.1,5.4,5.2c0.1,0,0.7,0.1,1.8,0.4
							c0.9,0.2,1.3,0.3,1.3,0.3c1.2,0.2,3.2-0.6,4.8-1.8c3.8-2.8,6.7-8.2,7.3-9.1C811.5,443,815.5,431.2,814.2,425.9z"/>
						<path class="st28" d="M785.9,429.3c0.3,2.8,0.9,6.7,1.8,11.3c-0.5-5.9,0.5-8.9,1.5-10.5c0.3-0.4,1.1-1.6,2-3.4
							c0.7-1.6,1.2-2.9,1.4-3.9c0.1,0.6,0.2,1.6-0.1,2.7c-0.4,1.6-1.2,2.7-1.7,3.2c1.3-0.4,3.6-1.3,5.7-3.4c1.4-1.4,2.3-2.8,2.8-3.9
							c0,0.6,0,1.8-0.8,3.1c-0.8,1.6-2.1,2.4-2.7,2.6c1.4-0.2,3.2-0.5,5.1-1.3c2.7-1.1,4.7-2.5,6-3.6c-0.6,0.8-1.4,1.8-2.4,2.7
							c-0.9,0.9-1.8,1.5-2.5,2.1c1-0.3,2.3-0.8,3.6-1.5c1.6-0.9,2.8-1.8,3.6-2.6c0,1.2,0.2,2.8,0.8,4.7c0.5,1.6,1.3,2.8,1.9,3.7
							c-0.2-0.5-0.6-2,0.1-3.6c0.2-0.6,0.6-1,0.9-1.3c-0.3,0.7-0.6,1.9-0.6,3.2c0.1,1.7,0.7,2.8,1,3.7c0.5,1.5,0.8,3.7-0.5,7.2
							c0.9-1.8,2.1-4.4,2.9-7.8c0.9-3.7,1.5-6.3,0.6-9.4c-1.8-6-7.4-8.8-8.4-9.2c-3.3-1.5-6.3-1.4-7.5-1.4c-1.5,0.1-6.3,0.3-10.4,4
							c-1,0.9-3.6,3.2-4.3,6.9C785.5,425.3,785.6,426.6,785.9,429.3z"/>
					</g>
					<path class="st8" d="M752.8,435.2"/>
					<g>
						<g>
							<g>
								<g>
									<path class="st6" d="M795.7,446.2c0.1-0.2,1.5,0.4,4.4,0.7c2.3,0.2,3.5,0.1,3.6,0.2c0,0.2-1.7,0.7-3.7,0.6
										C797.5,447.6,795.6,446.4,795.7,446.2z"/>
								</g>
							</g>
						</g>
					</g>
					<g>
						<g>
							<g>
								<g>
									<path class="st6" d="M802.1,441.6c-0.2,0.1-0.8,0.5-1.7,0.4c-0.7-0.1-1.2-0.4-1.4-0.5c0.5,0.1,0.9,0.1,1.5,0.1
										C801,441.6,801.6,441.6,802.1,441.6z"/>
								</g>
							</g>
						</g>
					</g>
					<g>
						<path class="st9" d="M797.4,479.9c-0.2,0.2-0.4,0.4-0.6,0.6"/>
					</g>
					<g>
						<g>
							<path d="M804.9,433.1c2.4-0.2,4.8,0.5,6.6,2c-2-1.2-4.3-1.5-6.4-1C804.4,434.3,804.2,433.2,804.9,433.1L804.9,433.1z"/>
						</g>
						<g>
							<path d="M798.3,432.4c-1.8-1.1-4.2-1.4-6.4-0.9c2.1-0.9,4.6-0.9,6.9,0C799.4,431.7,798.9,432.7,798.3,432.4L798.3,432.4z"/>
						</g>
						<g>
							<path d="M797.5,434.8c-1.3,1.7-4.4,0.6-4.5-1.5C794.4,434.6,795.6,435.1,797.5,434.8L797.5,434.8z"/>
						</g>
						<g>
							<path d="M804.9,436.1c1.6,1,2.9,1.1,4.7,0.5C808.6,438.5,805.4,438.2,804.9,436.1L804.9,436.1z"/>
						</g>
					</g>
				</g>
				<path class="st12" d="M794.8,621.4"/>
				<path class="st13" d="M798,460c0,26.4,0,52.8,0,79.1"/>
				<g>
					<path class="st13" d="M793.9,473.8c1.3,0.1,2.5,0.1,3.8,0.2c1.3,0.1,2.6,0.1,3.8,0.2"/>
					<path class="st13" d="M794,487.5c1.3,0.1,2.5,0.1,3.8,0.2c1.3,0.1,2.6,0.1,3.8,0.2"/>
					<path class="st13" d="M794,505c1.3,0.1,2.5,0.1,3.8,0.2c1.3,0.1,2.6,0.1,3.8,0.2"/>
					<path class="st13" d="M793.8,521.7c1.3,0.1,2.5,0.1,3.8,0.2c1.3,0.1,2.6,0.1,3.8,0.2"/>
				</g>
				<path d="M784.8,640c0.2,0.8,0.3,2.1-0.3,3.4c-0.6,1.3-1.5,2-4.8,3.7c-3.6,1.9-7.1,3.5-10.4,3.6c-0.8,0-1.6-0.1-2.1-0.7
					c-0.5-0.7-0.3-1.6,0-2.4c0.9-2.2,2.5-4,4.1-5.7c-0.1,0.1-1.5,2.5-0.6,3.5c0.4,0.4,1.1,0.6,2.8,0.3
					C777.5,645.1,781.9,642.1,784.8,640z"/>
			</g>
			<g>
				<g>
					<path class="st5" d="M786.8,488.3c0,0,5.6,0.5,6.5,0.5c0,0,0.5,0,1.3-0.4c0,0,2.6-1.7,3.2-2.2c0.6-0.5,1.5-1.3,2-1.4
						c0.6-0.1,3.4-0.1,3.8,0c0.4,0.1,4.2,1.1,4.4,1.4s-0.2,0.6-0.2,0.6s0.4,0.2,0.4,0.4c0,0.2-0.7,0.5-0.7,0.5s-0.2,0.9-0.8,0.9
						c0,0-0.1,0.6-0.8,0.7s-1.9-0.1-1.9-0.1s-1.4,0.3-1.9,0.3c0,0-0.5,0.7-1.2,1.3c-0.7,0.6-2.1,2.1-3.1,3c-1,0.9-1.7,0.9-3,0.9
						c-1.3,0-4,0.2-5.7,0.7c-4.9,1.3-4.6,0.4-5-2.8C783.7,489,786.8,488.3,786.8,488.3z"/>
					<g>
						<g>
							<g>
								<path class="st14" d="M806.8,488.6c-3.2-0.6-2.9-0.6-6.1,0c0.7-0.5,1.9-0.8,2.8-0.8C804.6,488,805.8,488.3,806.8,488.6z"/>
								<path class="st15" d="M807.6,487.7c-1.4-0.2-3.1-0.7-4.5-0.8c-0.9,0.1-1.9,0.2-2.7,0.3c0.8-0.4,2-0.6,3-0.6
									C804.7,486.9,806.3,487.3,807.6,487.7z"/>
								<path class="st15" d="M807.8,486.8c-1.4-0.3-3.1-0.7-4.4-1c-1.2,0-2.3,0.2-3.5,0.1c1-0.3,2.3-0.4,3.4-0.4
									C804.8,485.9,806.5,486.3,807.8,486.8z"/>
							</g>
						</g>
					</g>
				</g>
			</g>
			<path class="st4" d="M791.9,487.9c-0.6,1.4-1.1,3.3-1.5,5.4c-0.4,2.5-0.4,4.8-0.2,6.5c-6.4,0-13-0.1-19.8-0.4
				c-3.9-0.1-7.7-0.3-11.4-0.6c0.9-5.5,2.2-11.4,3.8-17.5c2-7.7,4.2-14.7,6.6-21c6.7-1.5,13.3-3.1,20-4.6c-0.5,1-1.7,3.3-1.2,6.3
				c0.2,1.1,0.5,2,0.8,2.7c-4,8.7-8.3,14.4-13.2,22.2c2.5,0.3,5.1,0.5,7.9,0.7C786.4,487.8,789.2,487.8,791.9,487.9z"/>
			<path class="st7" d="M776.1,487.2c5.3,0.2,10.5,0.4,15.8,0.6c-6,0.2-12,0.4-18,0.6c1.5-4.1,3-8.3,4.4-12.4
				C777.6,479.8,776.8,483.5,776.1,487.2z"/>
			<path class="st7" d="M854.9,480.2c-13.1,6.4-26.3,12.7-39.4,19.1c-2.2-8.6-3.1-12.9-2.8-12.9c0.2-0.1,1.4,3.2,3.6,9.8
				C829.1,490.8,842,485.5,854.9,480.2z"/>
		</g>
		<path class="st19" d="M880.8,443.7c-7,10.1-15.2,15.9-20.6,19.4c-33.6,22-83.4,39.1-99.9,44.6c0.7-0.4,1.8-1,3.1-1.8
			c12.6-7.1,29.3-15.6,67.2-31.6c15.5-6.6,20.2-8.3,27.2-13.5c7.3-5.4,14.8-11,18.8-20.6c6.4-15.4,0.6-33.4-8.5-44.9
			c-4.5-5.7-9.8-9.6-14.9-12.4c-0.8-4.1-1.7-8.2-2.4-11.7c-2.3-12.9-6.7-24.1-12.4-33.8c-5.2-8.9-11.3-16.1-17.8-22.1v0
			c13.8,8.5,47.8,31,64.3,62.4c4.8,9.1,6.3,16.4,7.5,23C894.4,411.7,891.1,428.9,880.8,443.7z"/>
		<path class="st29" d="M771.1,501.6c-0.6-0.2-1.6-0.5-2.8-0.8c-1.8-0.4-7.5-1.6-13.1,1.6c-5.7,3.2-7.5,8.9-7.9,10.2
			c1.6-1.2,3.1-2.5,4.7-3.7c-1.8,2-3.5,4-5.3,6c4.9-3.3,7.5-4.8,7.8-4.6c0.2,0.3-2.5,2.9-8.2,7.9c3.9-1.7,7.9-3.5,11.8-5.2
			c-4.2,3.5-6.3,5.4-6.1,5.6c0.2,0.3,3.7-1.9,10.4-6.4c-1.7,2.3-3.4,4.6-5.1,6.9c1.6-0.2,5.6-1.1,9.2-4.4c4.7-4.4,5.4-9.9,5.5-11.3
			C771.7,502.8,771.4,502.2,771.1,501.6z"/>
		<path class="st5" d="M859.2,467.5c-0.3,1.5-1.9,2.4-3.7,3.4c-1.1,0.6-2,0.9-2.7,1.2c-0.5,0.8-1,1.5-1.5,2.3
			c-0.9-1.4-1.8-2.7-2.7-4.1c1-0.5,2-1.1,3.1-1.6c-0.7-0.5-1.2-0.6-1.6-0.6c-0.1,0-0.4,0-0.7-0.2c-0.1,0-0.5-0.3-0.4-0.6
			c0,0,0-0.1,0.2-0.3c0.3-0.3,0.7-0.3,0.8-0.3c0.9-0.1,2.2,0.6,2.3,0.7c-0.6-0.4-1-0.7-1.3-0.9c-0.3-0.2-0.6-0.3-0.7-0.6
			c0-0.2,0.1-0.4,0.1-0.4c0.2-0.4,1-0.5,1.3-0.4c0.7,0.3,1.7,0.6,2.3,0.8c-0.5-0.5-0.9-0.9-1.3-1.1c-0.7-0.4-1.1-0.6-1.1-1
			c0-0.3,0.2-0.6,0.4-0.7c0.2-0.1,0.4-0.2,0.6-0.3c0.4,0,0.8,0,1.3,0.2c1.6,0.5,2.5,1.9,2.5,1.9c0.1,0-1.4-2.1-1.4-2.1
			c0,0-0.1-0.1-0.1-0.3c0,0,0-0.3,0.5-0.5C855.9,461.8,859.8,464.8,859.2,467.5z"/>
	</g>
	<g style="clip-path:url(#SVGID_00000088114687974786654460000016480826995995162766_);">
		<g>
			<path class="st5" d="M679.8,645.2c-0.9,1.8-3.3,2.3-5,2.3c-2.4-0.1-5-1.6-5.2-3.4c0-0.3-0.1-0.2,0.6-2.9c0-0.1,0-0.2,0.1-0.2
				c0.2-0.7,0.3-1.3,0.3-1.9c0.1-1,0.1-1.8,0.1-2.5c2.9,0,5.7-0.1,8.6-0.1c0,0.3-0.1,0.8-0.1,1.2c0,0.6,0,1,0.2,1.4
				c0.2,0.5,0.4,0.8,0.5,1.6c0,0.1,0,0.2,0,0.2l0,0C680.2,642.5,680.4,644,679.8,645.2z"/>
			<path class="st6" d="M679.4,639c-0.2,0-0.5,0.1-0.9,0.1c-0.1,0-1.6,0.1-2.9,0.1c-1.9,0-3.5-0.1-5-0.3c0.1-1,0.1-1.8,0.1-2.5
				c2.9,0,5.7-0.1,8.6-0.1c0,0.4-0.1,0.8-0.1,1.2C679.2,638.1,679.3,638.6,679.4,639z"/>
			<path d="M680.3,645.2c-0.4,0.4-2.3,2.3-5.5,2.3c-2.9,0-4.8-1.7-5.2-2.1c-0.1-0.5-0.1-1.1,0-1.7c0.1-1.1,0.3-1.9,0.6-2.6
				c0.5,0.1,1.2,0.2,2.1,0.3c0.2,0,1.7,0.2,2.7,0.2c2,0,3.7-0.4,4.9-0.8l0,0c0.2,0.6,0.5,1.6,0.5,2.7
				C680.4,644.1,680.4,644.7,680.3,645.2z"/>
		</g>
		<g>
			<path class="st5" d="M652.5,645.2c-0.9,1.8-3.3,2.3-5,2.3c-2.4-0.1-5-1.6-5.2-3.4c0-0.3-0.1-0.2,0.6-2.9c0-0.1,0-0.2,0.1-0.2
				c0.2-0.7,0.3-1.3,0.3-1.9c0.1-1,0.1-1.8,0.1-2.5c2.9,0,5.7-0.1,8.6-0.1c0,0.3-0.1,0.8-0.1,1.2c0,0.6,0,1,0.2,1.4
				c0.2,0.5,0.4,0.8,0.5,1.6c0,0.1,0,0.2,0,0.2l0,0C652.9,642.5,653.1,644,652.5,645.2z"/>
			<path class="st6" d="M652.1,639c-0.2,0-0.5,0.1-0.9,0.1c-0.1,0-1.6,0.1-2.9,0.1c-1.9,0-3.5-0.1-5-0.3c0.1-1,0.1-1.8,0.1-2.5
				c2.9,0,5.7-0.1,8.6-0.1c0,0.4-0.1,0.8-0.1,1.2C651.9,638.1,652,638.6,652.1,639z"/>
			<path d="M653,645.2c-0.4,0.4-2.3,2.3-5.5,2.3c-2.9,0-4.8-1.7-5.2-2.1c-0.1-0.5-0.1-1.1,0-1.7c0.1-1.1,0.3-1.9,0.6-2.6
				c0.5,0.1,1.2,0.2,2.1,0.3c0.2,0,1.7,0.2,2.7,0.2c2,0,3.7-0.4,4.9-0.8l0,0c0.2,0.6,0.5,1.6,0.5,2.7
				C653.1,644.1,653.1,644.7,653,645.2z"/>
		</g>
		<path class="st5" d="M609.5,458.7c-1.7,1.3-3.5,2.5-5.2,3.8c-0.2-0.6-0.5-1.3-0.8-1.9c-0.6-1.3-1.3-2.3-1.9-3.2
			c-0.4-0.2-0.8-0.5-1.4-0.9c-0.2-0.1-1-0.8-1.7-1.9c-0.6-0.9-1-1.8-1.2-2.5c-4.1-4.7-4.1-5.9-3.8-6.2c0.1-0.1,0.2-0.2,0.4-0.2
			c0.6-0.1,1.2,0.7,2.4,2c0.8,0.9,1.6,1.6,1.6,1.5c0,0-0.9-1.2-2-2.5c-1.2-1.3-1.9-2.1-2.2-3.3c-0.1-0.3-0.2-1,0.1-1.2
			c0.3-0.2,0.8,0,0.9,0.1c1.4,1.6,2.8,3.3,4.3,4.9c-1.5-2-3-4.1-4.5-6.1c0,0-0.2-0.5,0.1-0.9c0.2-0.3,0.7-0.4,1.1-0.2
			c1.7,2.1,3.4,4.2,5.2,6.3c-1-1.4-1.9-2.5-2.5-3.2c-0.8-0.9-1.5-1.7-1.2-2.3c0.1-0.3,0.5-0.4,0.6-0.4c0.7-0.2,1.7,0.5,4.4,4.1
			c0.8,1,1.8,2.4,2.9,4.1c0-1.2,0.1-4.3,0.8-4.4c0.6-0.1,1.6,2.1,2,4c0.5,2.2,0.1,4.1-0.2,5.3L609.5,458.7z"/>
		<g>
			<path class="st16" d="M597.9,462.1c8.6,13.3,17.2,26.7,25.8,40c8.9-6,17.7-12,26.6-18.1c2.5-7.5,4.9-15,7.4-22.5
				c-6.5,2.5-13,5-19.5,7.5c-3.2,2.3-6.5,4.5-9.7,6.8c-6-7.8-12.1-15.6-18.1-23.3C606.2,455.7,602,458.9,597.9,462.1z"/>
			<g>
				<g>
					<path class="st16" d="M661.8,542.6c-0.2,3.4-0.3,6.9-0.5,10.3c-1.4,28-2.9,56-4.3,84.1c-3.3,0.2-6.7,0.3-10.2,0.4
						c-2.9,0-5.8,0-8.5-0.1c-0.4-17.3-0.5-35-0.3-53.1c0.1-10.4,0.3-20.6,0.6-30.7c0-0.4,0-0.8,0-1.2c0.1-1.9,0.1-3.8,0.2-5.6
						c3-1.1,6.3-2.1,10-3c2.8-0.7,4.2-1.1,5.9-1.3C657.7,542.1,660.2,542.3,661.8,542.6z"/>
					<path class="st17" d="M661.8,542.6c-0.2,3.4-0.3,6.9-0.5,10.3c-7.6-0.2-15.1-0.4-22.7-0.6c0.1-1.9,0.1-3.8,0.2-5.6
						c3-1.1,6.3-2.1,10-3c2.8-0.7,4.2-1.1,5.9-1.3C657.7,542.1,660.2,542.3,661.8,542.6z"/>
					<path class="st16" d="M686.7,544.8c0,1.7-0.1,3.5-0.2,5.6c0,1-0.1,2.1-0.1,3.2c-0.5,13.5-1.1,32.2-1.5,42.4
						c-0.3,8.8-1.1,32.8-1.4,41.6c-3.1,0.1-6.3,0.1-9.7,0c-3.2-0.1-6.2-0.2-9.2-0.4c-0.7-28.1-1.5-56.1-2.2-84.2
						c-0.1-2.6-0.1-5.1-0.2-7.7c1.7-1.2,6.6-4.1,13.3-3.8C681,541.6,684.9,543.7,686.7,544.8z"/>
					<path class="st17" d="M686.7,544.8c0,1.7-0.1,3.5-0.2,5.6c0,1-0.1,2.1-0.1,3.2c-8-0.2-15.9-0.4-23.9-0.6
						c-0.1-2.6-0.1-5.1-0.2-7.7c1.7-1.2,6.6-4.1,13.3-3.8C681,541.6,684.9,543.7,686.7,544.8z"/>
					<path class="st16" d="M636.7,548.7c8.2,0.6,16.8,1,25.7,1.3c8.8,0.2,17.2,0.3,25.4,0.1c0-28,0-56,0-84c-5-2.2-10-4.4-15-6.6
						c-1.6-0.7-3.9-1.4-6.7-1.5c-2.1-0.1-3.8,0.3-4.3,0.4c-1.2,0.3-2.1,0.6-2.8,1c-0.7,0.6-1.3,1.2-2,1.8
						c-5.3,2.3-10.5,4.6-15.8,6.9C639.9,495,638.3,521.9,636.7,548.7z"/>
					<path class="st5" d="M659.1,459.4c4.4,0,8.9-0.1,13.3-0.1c-0.2-0.6-0.3-0.9-0.3-1c0,0-0.1-0.2-0.2-0.4c0,0,0,0,0,0
						c0,0,0-0.1-0.1-0.1c-0.3-0.6-0.3-1.7-0.3-2.9c0-1.9,0.3-3.8,0.3-3.8l-12-0.5c0,0,0,1.5,0,3.7c0,0.6,0,1.3,0,2
						c0,0.3,0,0.6,0,0.8c0,0,0,0.3-0.1,0.5C659.6,458.5,659.2,459.3,659.1,459.4z"/>
					<path class="st14" d="M659.3,451.2c0,0,0.1,1.5,0.3,3.7c1.4,0.8,3,1.1,4.6,1.2c1.8,0.1,3.6,0,5.3-0.7c0.6-0.3,1.2-0.6,1.7-1
						c-0.1-1.9-0.1-3.8-0.1-3.8L659.3,451.2z"/>
					<g>
						<path class="st5" d="M677.8,438.7c0.4-1.2,1.1-2,1.5-2.5c0.5-0.5,0.9-1.1,1.7-1.3c0.2-0.1,1-0.2,1.5,0.2
							c0.4,0.3,0.6,0.9,0.6,1.5c0.1,1.4-0.1,2.7-0.9,4.9c-0.8,2.2-1.3,2.9-1.8,3.4c-0.8,0.8-1.4,0.9-1.7,0.9c-0.2,0-0.6,0-1-0.2
							c-0.8-0.5-0.8-1.6-0.8-1.7C677.2,442.2,677.5,440.4,677.8,438.7z"/>
						<path class="st5" d="M653.2,446c-0.2,0.2-0.5,0.4-1,0.5c-0.2,0-0.8,0.1-1.7-0.7c-2.1-1.8-2.2-5-2.3-6.3c0-0.6,0-1.6,0.5-2.4
							c0.2-0.2,0.5-0.6,1-0.7c0.4-0.1,0.7,0.1,0.9,0.3c0.9,0.5,1.2,1.5,1.3,1.9C651.9,438.6,653.7,444.7,653.2,446z"/>
						<path class="st28" d="M678.4,446.6c-0.5,1.4-1.5,4.1-3.5,7v-0.3c0,0-1.5,1.8-4.1,4.3c0,0,0.3-1.6,0.3-2.1c0-0.2,0-0.2-0.1,0
							c-0.2,0.7-3.8,3.4-5.2,4.5c-0.4,0-0.7,0.1-0.9,0.1c0,0,0,0,0,0c-1-0.8-3.5-2.6-4.7-3.7c-0.4-0.4-0.7-0.6-0.7-0.8
							c-0.1-0.4-0.1,0,0,0.6c0.1,0.7,0.3,1.5,0.3,1.5c-2.6-2.4-4.1-4.2-4.1-4.2v0.1c-1.9-2.8-3.1-5.5-3.5-6.2c0,0-3.4-13.4-1.6-19
							c0.4-1.9,0.9-3.7,2.2-5.6c3.7-5.1,11.2-5.5,15.9-4.6c2,0.4,5.5,1.1,8.2,4.1c2.9,3.2,3.1,7.2,3.3,11.9
							C680.2,436.1,680.3,440.9,678.4,446.6z"/>
					</g>
					<path class="st8" d="M712.4,443"/>
				</g>
				<path class="st12" d="M656.7,625.7"/>
			</g>
			<path class="st16" d="M669.6,492.7c0.4,1.5,0.9,3.3,1.1,5.5c0.2,2.6,0,4.8-0.3,6.5c7.7,1.4,14.2,2.2,19,2.6
				c6.3,0.6,9.4,0.5,10.9-1.5c0.5-0.6,1.1-1.8,0.2-9c-0.7-5.5-1.4-8.5-1.4-8.5c-1.3-7.5-3-14.3-4.4-19.5c-6.7-2.7-13.4-5.3-20.1-8
				c0.5,1,1.4,3.4,0.7,6.4c-0.2,1.1-0.7,2-1,2.7c3.4,8.9,7.2,15,11.5,23.1c-2.5,0.1-5.2,0.1-7.9,0.1
				C675,493,672.2,492.9,669.6,492.7z"/>
		</g>
		<path class="st28" d="M682.4,436.6c-0.5,0-2.2,3-2.7,7c-0.1,0.6-0.2,1.3-0.5,2.1c-0.3,1.3-0.7,2.8-1.4,4.5
			c-0.9,2.2-1.9,3.9-2.9,5.1c0-0.6,0-1.2,0-1.7v-0.3c0,0-1.5,1.8-4.1,4.3c0,0,0.3-1.6,0.3-2.1c0-0.2,0-0.2-0.1,0
			c-0.2,0.7-3.8,3.4-5.2,4.5c-0.2,0.1-0.3,0.3-0.5,0.3c0,0-0.1,0-0.1,0.1c0,0-0.1,0-0.1-0.1c-0.1-0.1-0.2-0.1-0.3-0.2c0,0,0,0,0,0
			c-1-0.8-3.5-2.6-4.7-3.7c-0.4-0.4-0.7-0.6-0.7-0.8c-0.1-0.4-0.1,0,0,0.6c0.1,0.7,0.3,1.5,0.3,1.5c-2.6-2.4-4.1-4.2-4.1-4.2v0.1
			l0,2c-0.9-1.3-1.8-2.9-2.7-4.7c-0.7-1.6-1.3-3-1.7-4.3c-0.3-0.8-0.7-2-1.1-3.5c-2.2-7.5-3.9-13-2-18.7c0.4-1.3,1.9-5.8,6-7.7
			c1-0.5,1.9-0.6,2.5-0.7c0.3-0.4,0.9-1,1.6-1.5c1.5-1,3.6-1.5,7.7-0.7c2.9,0.6,13.1,2.8,15.5,9.9c0.7,2.2,0.8,5.3,1,10.7
			C682.4,435.3,682.4,436.1,682.4,436.6z"/>
		<path class="st30" d="M658.2,458.5c1.8,0.5,4.2,0.9,7.2,0.9c3.3,0,6-0.7,7.9-1.3c0.3,0.7,0.6,1.4,0.9,2.1c-2.1,0.6-5,1.2-8.3,1.4
			c-3.3,0.2-6.2-0.1-8.4-0.6C657.7,460.2,658,459.4,658.2,458.5z"/>
		<path class="st30" d="M597.9,462.1c4.1-3.2,8.3-6.4,12.4-9.6c0.7,0.9,1.4,1.7,2,2.6c-4.2,3.2-8.4,6.5-12.7,9.7
			C599.1,463.9,598.5,463,597.9,462.1z"/>
	</g>
	<g style="clip-path:url(#SVGID_00000088114687974786654460000016480826995995162766_);">
		<g>
			<path class="st5" d="M449.1,659.9c-0.9,1.8-3.3,2.3-5,2.3c-2.4-0.1-5-1.6-5.2-3.4c0-0.3-0.1-0.2,0.6-2.9c0-0.1,0-0.2,0.1-0.2
				c0.2-0.7,0.3-1.3,0.3-1.9c0.1-1,0.1-1.8,0.1-2.5c2.9,0,5.7-0.1,8.6-0.1c0,0.3-0.1,0.8-0.1,1.2c0,0.6,0,1,0.2,1.4
				c0.2,0.5,0.4,0.8,0.5,1.6c0,0.1,0,0.2,0,0.2l0,0C449.6,657.3,449.7,658.8,449.1,659.9z"/>
			<path class="st6" d="M448.7,653.8c-0.2,0-0.5,0.1-0.9,0.1c-0.1,0-1.6,0.1-2.9,0.1c-1.9,0-3.5-0.1-5-0.3c0.1-1,0.1-1.8,0.1-2.5
				c2.9,0,5.7-0.1,8.6-0.1c0,0.4-0.1,0.8-0.1,1.2C448.6,652.9,448.6,653.4,448.7,653.8z"/>
			<path d="M449.6,659.9c-0.4,0.4-2.3,2.3-5.5,2.3c-2.9,0-4.8-1.7-5.2-2.1c-0.1-0.5-0.1-1.1,0-1.7c0.1-1.1,0.3-1.9,0.6-2.6
				c0.5,0.1,1.2,0.2,2.1,0.3c0.2,0,1.7,0.2,2.7,0.2c2,0,3.7-0.4,4.9-0.8l0,0c0.2,0.6,0.5,1.6,0.5,2.7
				C449.8,658.9,449.7,659.5,449.6,659.9z"/>
		</g>
		<g>
			<path class="st5" d="M421.8,659.9c-0.9,1.8-3.3,2.3-5,2.3c-2.4-0.1-5-1.6-5.2-3.4c0-0.3-0.1-0.2,0.6-2.9c0-0.1,0-0.2,0.1-0.2
				c0.2-0.7,0.3-1.3,0.3-1.9c0.1-1,0.1-1.8,0.1-2.5c2.9,0,5.7-0.1,8.6-0.1c0,0.3-0.1,0.8-0.1,1.2c0,0.6,0,1,0.2,1.4
				c0.2,0.5,0.4,0.8,0.5,1.6c0,0.1,0,0.2,0,0.2l0,0C422.3,657.3,422.4,658.8,421.8,659.9z"/>
			<path class="st6" d="M421.4,653.8c-0.2,0-0.5,0.1-0.9,0.1c-0.1,0-1.6,0.1-2.9,0.1c-1.9,0-3.5-0.1-5-0.3c0.1-1,0.1-1.8,0.1-2.5
				c2.9,0,5.7-0.1,8.6-0.1c0,0.4-0.1,0.8-0.1,1.2C421.3,652.9,421.3,653.4,421.4,653.8z"/>
			<path d="M422.3,659.9c-0.4,0.4-2.3,2.3-5.5,2.3c-2.9,0-4.8-1.7-5.2-2.1c-0.1-0.5-0.1-1.1,0-1.7c0.1-1.1,0.3-1.9,0.6-2.6
				c0.5,0.1,1.2,0.2,2.1,0.3c0.2,0,1.7,0.2,2.7,0.2c2,0,3.7-0.4,4.9-0.8l0,0c0.2,0.6,0.5,1.6,0.5,2.7
				C422.5,658.9,422.4,659.5,422.3,659.9z"/>
		</g>
		<path class="st5" d="M378.8,473.5c-1.7,1.3-3.5,2.5-5.2,3.8c-0.2-0.6-0.5-1.3-0.8-1.9c-0.6-1.3-1.3-2.3-1.9-3.2
			c-0.4-0.2-0.8-0.5-1.4-0.9c-0.2-0.1-1-0.8-1.7-1.9c-0.6-0.9-1-1.8-1.2-2.5c-4.1-4.7-4.1-5.9-3.8-6.2c0.1-0.1,0.2-0.2,0.4-0.2
			c0.6-0.1,1.2,0.7,2.4,2c0.8,0.9,1.6,1.6,1.6,1.5c0,0-0.9-1.2-2-2.5c-1.2-1.3-1.9-2.1-2.2-3.3c-0.1-0.3-0.2-1,0.1-1.2
			c0.3-0.2,0.8,0,0.9,0.1c1.4,1.6,2.8,3.3,4.3,4.9c-1.5-2-3-4.1-4.5-6.1c0,0-0.2-0.5,0.1-0.9c0.2-0.3,0.7-0.4,1.1-0.2
			c1.7,2.1,3.4,4.2,5.2,6.3c-1-1.4-1.9-2.5-2.5-3.2c-0.8-0.9-1.5-1.7-1.2-2.3c0.1-0.3,0.5-0.4,0.6-0.4c0.7-0.2,1.7,0.5,4.4,4.1
			c0.8,1,1.8,2.4,2.9,4.1c0-1.2,0.1-4.3,0.8-4.4c0.6-0.1,1.6,2.1,2,4c0.5,2.2,0.1,4.1-0.2,5.3L378.8,473.5z"/>
		<g>
			<path class="st5" d="M462.5,553.5c0,0-0.1,0.3,0,0.9c0,0,0.6,1.9,0.8,2.4c0.2,0.5,0.6,1.2,0.5,1.5c0,0.4-0.6,2.1-0.7,2.4
				c-0.1,0.3-1.5,2.4-1.7,2.5s-0.3-0.2-0.3-0.2s-0.2,0.2-0.3,0.2c-0.1,0-0.2-0.5-0.2-0.5s-0.5-0.3-0.4-0.7c0,0-0.4-0.2-0.3-0.6
				s0.4-1.2,0.4-1.2s0-0.9,0.1-1.3c-0.1-0.2-0.4-0.6-0.6-1c-0.7-1.3-1.1-1.9-1.2-2.7c-0.1-0.6,0-1,0.1-1.7c0.1-1,0.2-2.4-0.1-4.2
				c0.4-0.2,1-0.3,1.7-0.4c0.9,0,1.6,0.2,2.1,0.4C462.4,550.8,462.5,552.2,462.5,553.5z"/>
			<path class="st31" d="M367.3,476.8c8.6,13.3,17.2,26.7,25.8,40c8.9-6,17.7-12,26.6-18.1c2.5-7.5,4.9-15,7.4-22.5
				c-6.5,2.5-13,5-19.5,7.5c-3.2,2.3-6.5,4.5-9.7,6.8c-6-7.8-12.1-15.6-18.1-23.3C375.5,470.4,371.4,473.6,367.3,476.8z"/>
			<g>
				<g>
					<path class="st31" d="M431.2,557.3c-0.2,3.4-0.3,6.9-0.5,10.3c-1.4,28-2.9,56-4.3,84.1c-3.3,0.2-6.7,0.3-10.2,0.4
						c-2.9,0-5.8,0-8.5-0.1c-0.4-17.3-0.5-35-0.3-53.1c0.1-10.4,0.3-20.6,0.6-30.7c0-0.4,0-0.8,0-1.2c0.1-1.9,0.1-3.8,0.2-5.6
						c3-1.1,6.3-2.1,10-3c2.8-0.7,4.2-1.1,5.9-1.3C427,556.8,429.5,557.1,431.2,557.3z"/>
					<path d="M431.2,557.3c-0.2,3.4-0.3,6.9-0.5,10.3c-7.6-0.2-15.1-0.4-22.7-0.6c0.1-1.9,0.1-3.8,0.2-5.6c3-1.1,6.3-2.1,10-3
						c2.8-0.7,4.2-1.1,5.9-1.3C427,556.8,429.5,557.1,431.2,557.3z"/>
					<path class="st31" d="M456.1,559.5c0,1.7-0.1,3.5-0.2,5.6c0,1-0.1,2.1-0.1,3.2c-0.5,13.5-1.1,32.2-1.5,42.4
						c-0.3,8.8-1.1,32.8-1.4,41.6c-3.1,0.1-6.3,0.1-9.7,0c-3.2-0.1-6.2-0.2-9.2-0.4c-0.7-28.1-1.5-56.1-2.2-84.2
						c-0.1-2.6-0.1-5.1-0.2-7.7c1.7-1.2,6.6-4.1,13.3-3.8C450.4,556.4,454.3,558.4,456.1,559.5z"/>
					<path d="M456.1,559.5c0,1.7-0.1,3.5-0.2,5.6c0,1-0.1,2.1-0.1,3.2c-8-0.2-15.9-0.4-23.9-0.6c-0.1-2.6-0.1-5.1-0.2-7.7
						c1.7-1.2,6.6-4.1,13.3-3.8C450.4,556.4,454.3,558.4,456.1,559.5z"/>
					<path class="st31" d="M406.1,563.5c8.2,0.6,16.8,1,25.7,1.3c8.8,0.2,17.2,0.3,25.4,0.1c0.1-27.6,0.2-55.3,0.4-82.9
						c-4.7-2.3-9.3-4.7-14-7c-1.5-0.7-4.4-2-8-2.1c-2.2-0.1-4,0.4-4.3,0.4c-1.2,0.3-2.1,0.6-2.8,1c-0.7,0.6-1.3,1.2-2,1.8
						c-5.3,2.3-10.5,4.6-15.8,6.9C409.2,509.8,407.7,536.6,406.1,563.5z"/>
					<path class="st5" d="M428.5,474.2c4.4,0,8.9-0.1,13.3-0.1c-0.2-0.6-0.3-0.9-0.3-1c0,0-0.1-0.2-0.2-0.4c0,0,0,0,0,0
						c0,0,0-0.1-0.1-0.1c-0.3-0.6-0.3-1.7-0.3-2.9c0-1.9,0.3-3.8,0.3-3.8l-12-0.5c0,0,0,1.5,0,3.7c0,0.6,0,1.3,0,2
						c0,0.3,0,0.6,0,0.8c0,0,0,0.3-0.1,0.5C429,473.2,428.6,474,428.5,474.2z"/>
					<path class="st14" d="M428.6,465.9c0,0,0.1,1.5,0.3,3.7c1.4,0.8,3,1.1,4.6,1.2c1.8,0.1,3.6,0,5.3-0.7c0.6-0.3,1.2-0.6,1.7-1
						c-0.1-1.9-0.1-3.8-0.1-3.8L428.6,465.9z"/>
					<g>
						<path class="st5" d="M447.1,453.4c0.4-1.2,1.1-2,1.5-2.5c0.5-0.5,0.9-1.1,1.7-1.3c0.2-0.1,1-0.2,1.5,0.2
							c0.4,0.3,0.6,0.9,0.6,1.5c0.1,1.4-0.1,2.7-0.9,4.9c-0.8,2.2-1.3,2.9-1.8,3.4c-0.8,0.8-1.4,0.9-1.7,0.9c-0.2,0-0.6,0-1-0.2
							c-0.8-0.5-0.8-1.6-0.8-1.7C446.6,456.9,446.8,455.2,447.1,453.4z"/>
						<path class="st5" d="M422.5,460.8c-0.2,0.2-0.5,0.4-1,0.5c-0.2,0-0.8,0.1-1.7-0.7c-2.1-1.8-2.2-5-2.3-6.3c0-0.6,0-1.6,0.5-2.4
							c0.2-0.2,0.5-0.6,1-0.7c0.4-0.1,0.7,0.1,0.9,0.3c0.9,0.5,1.2,1.5,1.3,1.9C421.2,453.3,423.1,459.4,422.5,460.8z"/>
						<path class="st28" d="M447.7,461.4c-0.5,1.4-1.5,4.1-3.5,7v-0.3c0,0-1.5,1.8-4.1,4.3c0,0,0.3-1.6,0.3-2.1c0-0.2,0-0.2-0.1,0
							c-0.2,0.7-3.8,3.4-5.2,4.5c-0.4,0-0.7,0.1-0.9,0.1c0,0,0,0,0,0c-1-0.8-3.5-2.6-4.7-3.7c-0.4-0.4-0.7-0.6-0.7-0.8
							c-0.1-0.4-0.1,0,0,0.6c0.1,0.7,0.3,1.5,0.3,1.5c-2.6-2.4-4.1-4.2-4.1-4.2v0.1c-1.9-2.8-3.1-5.5-3.5-6.2c0,0-3.4-13.4-1.6-19
							c0.4-1.9,0.9-3.7,2.2-5.6c3.7-5.1,11.2-5.5,15.9-4.6c2,0.4,5.5,1.1,8.2,4.1c2.9,3.2,3.1,7.2,3.3,11.9
							C449.6,450.8,449.7,455.7,447.7,461.4z"/>
					</g>
					<path class="st8" d="M481.8,457.8"/>
				</g>
				<path class="st12" d="M426,640.4"/>
			</g>
			<path class="st31" d="M453.9,550.9c3.6,0.2,7.3,0.4,10.9,0.6c1.3-9.5,2.3-20.4,2.3-32.4c0.1-12.6-0.9-23.9-2.2-33.7
				c-7-3.3-14-6.5-21-9.8c0.5,1,1.4,3.4,0.7,6.4c-0.2,1.1-0.7,2-1,2.7c1.5,2.5,3.7,6.6,5.4,11.9c1.6,4.9,2,8.9,2.3,11.3
				C452.9,523.2,453.8,548.8,453.9,550.9z"/>
			<path d="M465.3,547.7c-0.2,1.3-0.3,2.5-0.5,3.8c-2.5-0.1-5-0.2-7.5-0.3c0-1.3,0-2.7-0.1-4C459.9,547.3,462.6,547.5,465.3,547.7z"
				/>
		</g>
		<path class="st28" d="M451.7,451.4c-0.5,0-2.2,3-2.7,7c-0.1,0.6-0.2,1.3-0.5,2.1c-0.3,1.3-0.7,2.8-1.4,4.5
			c-0.9,2.2-1.9,3.9-2.9,5.1c0-0.6,0-1.2,0-1.7v-0.3c0,0-1.5,1.8-4.1,4.3c0,0,0.3-1.6,0.3-2.1c0-0.2,0-0.2-0.1,0
			c-0.2,0.7-3.8,3.4-5.2,4.5c-0.2,0.1-0.3,0.3-0.5,0.3c0,0-0.1,0-0.1,0.1c0,0-0.1,0-0.1-0.1c-0.1-0.1-0.2-0.1-0.3-0.2c0,0,0,0,0,0
			c-1-0.8-3.5-2.6-4.7-3.7c-0.4-0.4-0.7-0.6-0.7-0.8c-0.1-0.4-0.1,0,0,0.6c0.1,0.7,0.3,1.5,0.3,1.5c-2.6-2.4-4.1-4.2-4.1-4.2v0.1
			l0,2c-0.9-1.3-1.8-2.9-2.7-4.7c-0.7-1.6-1.3-3-1.7-4.3c-0.3-0.8-0.7-2-1.1-3.5c-2.2-7.5-3.9-13-2-18.7c0.4-1.3,1.9-5.8,6-7.7
			c1-0.5,1.9-0.6,2.5-0.7c0.3-0.4,0.9-1,1.6-1.5c1.5-1,3.6-1.5,7.7-0.7c2.9,0.6,13.1,2.8,15.5,9.9c0.7,2.2,0.8,5.3,1,10.7
			C451.7,450,451.7,450.8,451.7,451.4z"/>
		<path d="M427.6,473.3c1.8,0.5,4.2,0.9,7.2,0.9c3.3,0,6-0.7,7.9-1.3c0.3,0.7,0.6,1.4,0.9,2.1c-2.1,0.6-5,1.2-8.3,1.4
			c-3.3,0.2-6.2-0.1-8.4-0.6C427.1,474.9,427.3,474.1,427.6,473.3z"/>
		<path d="M367.3,476.8c4.1-3.2,8.3-6.4,12.4-9.6c0.7,0.9,1.4,1.7,2,2.6c-4.2,3.2-8.4,6.5-12.7,9.7
			C368.4,478.7,367.8,477.8,367.3,476.8z"/>
	</g>
	<path style="clip-path:url(#SVGID_00000088114687974786654460000016480826995995162766_);fill:#FAD4AF;" d="M275,496.2
		c0,0,5.6,0.5,6.5,0.5c0,0,0.5,0,1.3-0.4c0,0,2.6-1.7,3.2-2.2c0.6-0.5,1.5-1.3,2-1.4c0.6-0.1,3.4-0.1,3.8,0s4.2,1.1,4.4,1.4
		c0.2,0.2-0.2,0.6-0.2,0.6s0.4,0.2,0.4,0.4c0,0.2-0.7,0.5-0.7,0.5s-0.2,0.9-0.8,0.9c0,0-0.1,0.6-0.8,0.7s-1.9-0.1-1.9-0.1
		s-1.4,0.3-1.9,0.3c0,0-0.5,0.7-1.2,1.3c-0.7,0.6-2.1,2.1-3.1,3c-1,0.9-1.7,0.9-3,0.9c-1.3,0-4,0.2-5.7,0.7c-4.9,1.3-4.6,0.4-5-2.8
		C271.9,496.8,275,496.2,275,496.2z"/>
	<path style="clip-path:url(#SVGID_00000088114687974786654460000016480826995995162766_);fill:#9B9B9B;" d="M278.6,501.1
		c-0.4,2.3-0.4,4.3-0.3,5.9c0,0,0,0,0,0c0,0.2,0,0.4,0,0.5c-6.5,0-13.1-0.1-19.8-0.4c-2.7-0.1-5.4-0.2-8-0.4
		c0.4-2.7,0.9-5.5,1.3-8.2c0,0,0,0,0,0c1.5-9.5,3-19,4.5-28.5c7.6-2.6,15.2-5.2,22.8-7.8c-0.5,0.5-3.4,3.5-3,7.4
		c0.1,1.1,0.5,2,0.8,2.7c-4,8.7-8.3,14.4-13.2,22.2c2.5,0.3,5.1,0.5,7.9,0.7c2.9,0.2,5.7,0.2,8.3,0.3
		C279.5,497.1,278.9,498.9,278.6,501.1z"/>
	<path style="clip-path:url(#SVGID_00000088114687974786654460000016480826995995162766_);fill:#7F7F7F;" d="M265.1,494.6
		c5,0.4,10,0.7,15,1.1c-5.5,0-11.1,0-16.6,0c0.9-4.1,1.9-8.2,2.8-12.4C265.9,487.1,265.5,490.8,265.1,494.6z"/>
	<path style="clip-path:url(#SVGID_00000088114687974786654460000016480826995995162766_);fill:#7F7F7F;" d="M278.4,507.6
		c-6.5,0-13.1-0.1-19.8-0.4c-2.7-0.1-5.4-0.2-8-0.4c0.4-2.7,0.9-5.5,1.3-8.2c-0.2,2.3-0.3,4.7-0.5,7c9,0.5,17.9,0.9,26.9,1.4
		c0,0,0,0,0,0C278.4,507.2,278.4,507.4,278.4,507.6z"/>
	<path style="clip-path:url(#SVGID_00000088114687974786654460000016480826995995162766_);fill:#7F7F7F;" d="M280.1,495.7
		c-0.5,1.4-1.1,3.1-1.4,5.2c-0.4,2.7-0.4,5-0.3,6.7c-0.8,0-1.6,0-2.4,0c-0.1-1.8-0.1-4,0.2-6.5c0.3-2.1,0.7-4,1.2-5.6
		C278.3,495.5,279.2,495.6,280.1,495.7z"/>
	<g style="clip-path:url(#SVGID_00000088114687974786654460000016480826995995162766_);">
		<path class="st5" d="M702.7,277.7c-1.7-0.2-3.4-0.4-5.1-0.6c-0.3,2.2-0.6,4.5-0.8,6.7c2.1,0.2,4.1,0.4,6.2,0.6
			C702.8,282.2,702.7,280,702.7,277.7z"/>
		<path class="st5" d="M685.4,266.6c-0.2,0.4,0.5,0.8,0.3,1.3c-0.5,1.5-6.5-0.7-10.1,1.4c-5,2.9-5.7,15.1-1.2,18.2
			c3.1,2.2,8.8,0.1,10.8,3.3c0.5,0.8,0.4,1.5,1.2,2c2.3,1.6,7.2-1.3,7-2.1c-0.1-0.4-1.4-0.1-1.5-0.6c-0.3-1,5.6-2.3,7.5-6.6
			c1.3-2.8,0.3-5.7,0.2-5.9c-1.6-4.3-6.9-6-6.4-7.3c0.2-0.5,1.2-0.3,1.3-0.7C694.6,268.5,686.1,265.4,685.4,266.6z"/>
		<g>
			<path class="st5" d="M821.7,319.9c2.2,0.2,2.9,0.9,3.2,1.4c0.6,1.3-0.8,2.5-0.8,5.4c0,1.2,0.2,3.2,1,3.4c0.5,0.1,1-0.6,2.3-2.7
				c3.8-6.1,3.6-7.1,3.4-7.5c-0.4-0.9-1.2-1.4-3-2.4c-1.9-1.1-3.7-1.6-4.9-1.8C822.5,317.1,822.1,318.5,821.7,319.9z"/>
			<path class="st16" d="M826.6,315.8c-0.7,1.2-1.5,2.5-2.2,3.8c-0.9,1.5-1.7,3-2.5,4.4c-14.1-6.9-28.2-13.8-42.3-20.8
				c-1.1-0.6-2.3-1.1-3.4-1.7c0.4-5.5,0.8-11.1,1.2-16.6c0-0.3,0-0.6,0.1-0.9c0.1,0.1,0.2,0.2,0.4,0.2c1.9,1.2,3.7,2.4,5.6,3.6
				C797.8,297.2,812.2,306.5,826.6,315.8z"/>
			<path class="st17" d="M783.4,287.9c-1.3,5.1-2.5,10.2-3.8,15.3c-1.1-0.6-2.3-1.1-3.4-1.7c0.4-5.5,0.8-11.1,1.2-16.6
				c0.1-0.2,0.3-0.4,0.4-0.6C779.7,285.5,781.5,286.7,783.4,287.9z"/>
		</g>
		<path class="st5" d="M709,342.8c-0.5,1.1-0.9,2.3-1.4,3.4c-0.5,0.3-2.2,1.3-3.2,3.4c-1,2.2-0.6,4.1-0.4,4.7
			c0.6,0.7,1.1-1.9,1.6-2.9c-0.6,2.7-1.1,5.3-1.7,8c-0.2,1,0.8,0.8,1,0.2c0.8-2,2.1-5.5,2.1-5.5c0.3,0.1-1.2,4.3-2.1,6.6
			c0,0,0,0.2,0,0.2c-0.1,0.8,0.8,1.1,1.2,0.3c0,0,0.6-1.5,0.6-1.5c0.1-0.4,1.6-4.8,1.7-4.6c-0.5,1.7-0.7,2.8-1.3,4.5
			c-0.3,0.9,0.7,1.2,1,0.5c0,0,1.1-3.2,1.9-5c-0.4,1.3-0.8,2.1-1.2,3.4c-0.3,1,0.3,1.2,0.8,0.5c0.4-1.1,1.3-2.3,1.9-4
			c0.9-2.4,1.2-3.3,1.3-4.5c0.1-1.3,0-2.4-0.1-3.1c0.4-1.2,0.7-2.4,1.1-3.7C712.3,343.3,710.6,343,709,342.8z"/>
		<path class="st16" d="M704.7,342.6c0.1-7.9,0-16-0.2-24.2c-0.2-8.6-0.5-17-0.9-25.2c-0.7-0.8-1.5-1.8-2.1-3.1
			c-1.8-3.8-1.3-7.4-1-8.9c0-2.1,0.3-5.1,2.2-7.6c6.7-8.9,27.6-3.3,34.7-1.5c0.2,0,0.8,0.2,1.7,0.5c5.3,1.4,9.2,2.2,10,2.3
			c3,0.6,11.2,2.7,33.2,9.4c-1.5,6.3-2.9,12.6-4.4,18.9c-8.5-1.5-17.2-2.9-26.3-4.2c-8.4-1.2-16.7-2.2-24.7-3.1
			c-0.9,7.6-2,15.5-3.2,23.5c-1.4,9.3-3,18.3-4.7,27c-2,0-4.6-0.2-7.6-1C708.6,344.5,706.4,343.5,704.7,342.6z"/>
		<path class="st28" d="M683.4,266.6c-4.3-0.6-10.5,0.9-12.3,5c-0.5,1.2-0.6,2.3-0.6,2.9c-0.6,0.9-1.2,2.3-1.5,4
			c-0.7,4.3,1.1,9.1,4.7,11.5c1.1,0.7,2,1,3.5,1.4c7.4,2.1,14.2-0.2,18.4-2.3c0.8-0.4,2.3-1.3,3.5-2.9c1.6-2.1,2-4.2,2.2-5.2
			c-0.2-1.4-0.6-3.5-2.1-5.4c-0.4-0.5-0.8-1-1.5-1.6c-1.6-1.4-4.4-4-9-5.9C688.2,268,685.6,267,683.4,266.6z"/>
		<path class="st30" d="M704.7,338.7c2.3,0.8,4.9,1.6,7.7,2.3c2.6,0.6,5,1.2,7.4,1.6c-0.2,1.3-0.5,2.5-0.7,3.8
			c-1.8,0-3.9-0.2-6.3-0.7c-3.3-0.7-6-1.9-8-2.9C704.7,341.3,704.7,340,704.7,338.7z"/>
	</g>
</g>
</svg>
