<?xml version="1.0" encoding="utf-8"?>
<!-- Generator: Adobe Illustrator 26.0.1, SVG Export Plug-In . SVG Version: 6.00 Build 0)  -->
<svg version="1.1" id="Layer_1" xmlns="http://www.w3.org/2000/svg" xmlns:xlink="http://www.w3.org/1999/xlink" x="0px" y="0px"
	 viewBox="0 0 636 662" style="enable-background:new 0 0 636 662;" xml:space="preserve">
<style type="text/css">
	.st0{fill:#FFD7DC;}
	.st1{fill:#F7B7C1;}
	.st2{fill:#D8989D;}
	.st3{fill:#A3A3A3;}
	.st4{fill:#E5E1CA;}
	.st5{fill:#5F7BB7;}
	.st6{fill:#652B28;}
	.st7{fill:#987957;}
	.st8{fill:#B26426;}
	.st9{fill:#FAD4AF;}
	.st10{fill:#EFB78E;}
	.st11{fill:#191513;}
	.st12{fill:none;stroke:#F8AE38;stroke-width:1.3207;stroke-miterlimit:10;}
	.st13{fill:#9F0102;}
	.st14{fill:#F8AE38;}
	.st15{fill:#E09D6C;}
	.st16{fill:#F2B069;}
	.st17{opacity:0.16;fill:#6A5D55;}
	.st18{fill:none;}
	.st19{fill:#999999;}
	.st20{fill:#38393A;}
	.st21{fill:#262728;}
	.st22{fill:#828282;}
	.st23{fill:#EF6A0F;}
	.st24{opacity:0.23;fill:#262728;}
	.st25{fill:#4F5051;}
	.st26{fill:#393A3B;}
	.st27{fill:#65657C;}
	.st28{fill:#272829;}
	.st29{fill:#4D4D62;}
	.st30{fill:#19191A;}
	.st31{fill:#242463;}
	.st32{fill:#37374A;}
	.st33{fill:#F4EAC1;}
	.st34{fill:#1C1C65;}
	.st35{fill:#EBDA9B;}
	.st36{fill:#CFBCA9;}
	.st37{fill:#BFA892;}
	.st38{fill:#35357D;}
	.st39{fill:#C7B29E;}
	.st40{fill:#2F3031;}
	.st41{opacity:0.35;fill:#7F7F7D;}
	.st42{opacity:0.25;fill:url(#SVGID_1_);}
</style>
<g>
	<g>
		<path class="st0" d="M595,402.6c-1.6,10.6-6.7,27.3-19,41.9c-2.1,2.5-4.4,4.9-6.7,7.2c-8.7,8.5-19,15.4-29.8,20.4
			c-0.1,0.2-0.2,0.4-0.3,0.7c-2.7,5.7-5.7,11.2-8.8,16.7c-4.9,8.4-10.2,16.4-16,24.1c-45,59.7-116.3,95.7-192.5,94.8
			c-72.2-0.9-139.3-34.8-183.3-90.2c-11-13.8-20.5-29-28.4-45.4c-0.1-0.2-0.2-0.4-0.3-0.7c-0.3-0.1-0.6-0.2-0.9-0.3
			c-1.9-0.7-4.1-1.5-6.6-2.6c-4.8-2.1-10.3-5.1-16.1-9.2c-7.2-5.1-13.5-11.3-18.8-19c-32.4-40.8-33.9-75.6-33.4-89.7
			c2.1-58.9,41.9-117.5,85-129.6c2.8-0.8,11.5-3,44.1-11.8c25.7-6.9,38.7-10.5,45.2-19.9c7.1-10.3,4.3-21.1,4-32.8
			c-1-40.9,30.9-81.3,63.3-103.4c1.9-1.3,41.4-27.1,81.1-14.4c39.8,12.7,35.2,49.9,83,76.9c8.9,5,16.6,8,23.5,9.7
			c21.8,5.6,30.4,2.5,43.4,7c23.2,8,33.9,33.9,34.8,36.3c13.9,34.9-21.9,52.6-20.7,94.2C522.7,325.4,603.2,347.3,595,402.6z"/>
		<g>
			<path class="st1" d="M569.2,451.8c-8.7,8.5-19,15.4-29.8,20.4c-0.1,0.2-0.2,0.4-0.3,0.7c-2.7,5.7-5.7,11.2-8.8,16.7
				c-4.9,8.4-10.2,16.4-16,24.1c-17.4,2.9-35.5,3.1-53.2,3.2c-107.5,0.5-215,0.9-322.6,1.4c-11-13.8-20.5-29-28.4-45.4
				c-0.1-0.2-0.2-0.4-0.3-0.7c-0.3-0.1-0.6-0.2-0.9-0.3c-1.9-0.7-4.1-1.5-6.6-2.6c1.6-3.7,4.2-6.9,7.5-9.1c7-4.7,17-4.7,24,0.1
				c-1.2-6.5,3.5-13.6,10-15c6.5-1.4,13.7,3.2,15.2,9.7c4.9-11.7,17.7-19.5,30.3-18.5c12.6,1,24,10.8,26.9,23.1
				c-1.9-14,10.1-28.1,24.2-29c14.1-0.9,27.6,11.1,28.8,25.2c4.1-10.4,13.7-18.4,24.6-20.5c10.9-2.1,22.9,1.7,30.5,9.8
				c2.6-11.8,12.8-21.5,24.6-23.7s24.8,3.3,31.5,13.3c4.3-12.8,17.7-21.9,31.2-21.3c13.5,0.6,26,10.9,29.1,24.1
				c7.6-9.6,20.6-14.6,32.6-12.6s22.7,10.9,26.8,22.4c5.6-7.9,15.3-12.7,25-12.3c9.7,0.4,19,5.9,24,14.1
				C555.5,445.5,563.7,447.1,569.2,451.8z"/>
		</g>
		<g>
			<path class="st2" d="M539.1,472.8c-2.7,5.7-5.7,11.2-8.8,16.7c-42.8,73.9-122.5,119.9-208.5,118.9
				c-90.2-1.1-172.5-53.8-211.6-135.5H539.1z"/>
		</g>
		<g>
			<g>
				<path class="st3" d="M119.5,464.1c0.2,0.3,0.3,0.6,0.5,0.9c-0.1,0-0.2,0-0.3,0L119.5,464.1z"/>
			</g>
			<g>
				<g>
					<path class="st4" d="M191.1,366.9c0.7-7.8-9.3-11.6-15.8-22.1c-3.2-5.3-6.5-13.6-5.6-26.6c-8.5-12.4-7.8-30.4,1.7-42.1
						c9.5-11.7,27-16,40.9-10.2c-1.3-19.3-1.1-42,14.3-53.8c5.4-4.1,12.2-6.3,17.8-10.2c9.6-6.7,15.1-17.7,23.5-25.9
						c10.6-10.2,25.9-15.4,40.5-13.6s28.2,10.5,36,23c31.4-6.8,44.4-1.6,50.2,5.4c4.9,5.9,2.6,10.8,8.3,16.9
						c11.1,11.9,26.9,1.3,41.9,10.6c15.2,9.4,20.9,33.6,17.7,51c-3.3,17.6-14.3,20.4-12.6,33.8c1.8,13.7,13.8,14.1,19,32.2
						c0.7,2.4,5.9,21.5-3.7,32c-5.5,6.1-10.5,3.3-17.3,9.6c-8.9,8.4-5.4,18.1-10.9,27.1c-8.5,13.9-31.3,13.8-45.3,14.8
						c-26.5,1.9-51.5-12.3-78-15c-13.4-1.4-26.9,0.3-40.4-0.1c-10.6-0.3-32.3-5.8-75.1-16.4c-3.4-0.8-12-3.1-13-8.1
						C184.4,375,190.6,372.8,191.1,366.9z"/>
				</g>
				<g>
					<rect x="200.6" y="370.5" class="st5" width="243" height="73.8"/>
					<path class="st5" d="M200.7,297.7v73.8h40.5v-73.8H200.7z M206.1,301.7h29.6v65.7h-29.6V301.7z"/>
					<path class="st5" d="M241.2,297.7v73.8h40.5v-73.8H241.2z M246.6,301.7h29.6v65.7h-29.6V301.7z"/>
					<path class="st5" d="M321.5,341.1c-0.2,0-0.4,0-0.6,0c-0.2,0-0.4,0-0.6,0c-1.4-0.1-2.6-0.3-3.6-0.5v11.6c0.3,0.1,0.7,0.2,1,0.3
						c0.3,0.1,0.7,0.2,1,0.2c0.2,0.1,0.5,0.1,0.7,0.1c0.2,0,0.4,0.1,0.6,0.1c0.4,0.1,0.9,0.1,1.4,0.1c0.2,0,0.5,0,0.7,0v-11.9
						C322,341.1,321.7,341.1,321.5,341.1z M316.7,357v10.4h-12.3c0,0,0,0.1,0,0.1c0.1,0.3,0.2,0.6,0.2,0.9c0.1,0.3,0.2,0.6,0.2,0.9
						c0.1,0.3,0.1,0.6,0.2,0.9c0,0.1,0,0.1,0,0.2c0.1,0.3,0.1,0.6,0.2,1h9.8l0.2-1h4.2c0.1,0.3,0.1,0.6,0.2,1h2
						c0.1-0.3,0.2-0.7,0.3-1h0.1V357L316.7,357z M321.5,341.1c-0.2,0-0.4,0-0.6,0c-0.2,0-0.4,0-0.6,0c-1.4-0.1-2.6-0.3-3.6-0.5v27
						h-12.3c0,0,0,0.1,0,0.1c0.1,0.3,0.2,0.6,0.2,0.9c0.1,0.3,0.2,0.6,0.2,0.9c0.1,0.3,0.1,0.6,0.2,0.9c0,0.1,0,0.1,0,0.2
						c0.1,0.3,0.1,0.6,0.2,1h9.8l0.2-1h4.2c0.1,0.3,0.1,0.6,0.2,1h2c0.1-0.3,0.2-0.7,0.3-1h0.1v-29.4
						C322,341.1,321.7,341.1,321.5,341.1z M281.7,297.7v73.8h40.5v-73.8H281.7z M316.7,367.5h-29.6v-65.7h29.6V367.5z"/>
					<path class="st5" d="M327.4,306.1L327.4,306.1c-0.1-0.1-0.1-0.2-0.2-0.3c-0.1-0.1-0.1-0.2-0.1-0.3c0-0.1,0-0.1-0.1-0.2
						c0-0.1,0-0.1-0.1-0.2c0,0.1,0,0.3-0.1,0.4c0,0.1-0.1,0.3-0.2,0.4c0,0.1-0.1,0.1-0.2,0.2c0,0.1-0.1,0.1-0.1,0.1
						c-0.3,0.3-0.7,0.5-1.2,0.5c-0.9-0.1-1.7-0.9-1.9-1.8c-0.2,0.2-0.4,0.4-0.7,0.6c-0.2,0.1-0.3,0.3-0.5,0.4v51l5.4,0v-50.7
						C327.5,306.2,327.4,306.1,327.4,306.1z M327.4,306.1L327.4,306.1c-0.1-0.1-0.1-0.2-0.2-0.3c-0.1-0.1-0.1-0.2-0.1-0.3
						c0-0.1,0-0.1-0.1-0.2c0-0.1,0-0.1-0.1-0.2c0,0.1,0,0.3-0.1,0.4c0,0.1-0.1,0.3-0.2,0.4c0,0.1-0.1,0.1-0.2,0.2
						c0,0.1-0.1,0.1-0.1,0.1c-0.3,0.3-0.7,0.5-1.2,0.5c-0.9-0.1-1.7-0.9-1.9-1.8c-0.2,0.2-0.4,0.4-0.7,0.6c-0.2,0.1-0.3,0.3-0.5,0.4
						v51l5.4,0v-50.7C327.5,306.2,327.4,306.1,327.4,306.1z M322.2,297.7v73.8h40.5v-73.8H322.2z M327.6,301.7h29.6v65.7h-29.6
						V301.7z"/>
					<path class="st5" d="M362.7,297.7v73.8h40.5v-73.8H362.7z M368.1,301.7h29.6v65.7h-29.6V301.7z"/>
					<path class="st5" d="M403.1,297.7v73.8h40.5v-73.8H403.1z M408.6,301.7h29.6v65.7h-29.6V301.7z"/>
				</g>
				<g>
					<g>
						<path class="st6" d="M314.5,340c2,0.6,9.2,2.4,14-0.2c0,0,0-0.1,0-0.1C327.2,340,322.3,341,314.5,340
							C314.5,339.9,314.4,339.9,314.5,340z"/>
						<path class="st7" d="M318.2,342.7c0.8,0.3,3.4,1.2,5.1,0.4c0,0,0.1,0,0.1,0.1C322.8,343.6,320.9,345.1,318.2,342.7
							C318.1,342.7,318.2,342.6,318.2,342.7z"/>
					</g>
					<g>
						<path class="st8" d="M275.2,315.6c13.9,0.8,28.8,1.2,44.6,1c16.9-0.3,32.7-1.3,47.4-2.7c-7.6-4.1-21.8-10.3-40.4-11.1
							C301.6,301.8,282.9,311.1,275.2,315.6z"/>
						<polygon class="st9" points="329.7,359.1 313.2,359.1 314.2,345.8 314.7,339.8 328.2,339.8 328.6,345.5 						"/>
						<g>
							<g>
								<path class="st9" d="M336.9,323.9c0.5-1.5,2.7-2.8,3.6-2.3c0.9,0.5,1.4,3.1,1,4.7c-0.4,1.6-1.9,4.5-2.4,5.1
									c-0.5,0.6-2.5,1.7-3.7,1.4L336.9,323.9z"/>
								<path class="st10" d="M337.5,323c-0.2,0.3-0.4,0.6-0.5,0.9l-1.5,8.9c0.8,0.2,1.9-0.2,2.7-0.7L337.5,323z"/>
								<path class="st9" d="M305.5,323.9c-0.5-1.5-2.7-2.8-3.6-2.3c-0.9,0.5-1.4,3.1-1,4.7c0.4,1.6,1.9,4.5,2.4,5.1
									c0.5,0.6,2.5,1.7,3.7,1.4L305.5,323.9z"/>
								<path class="st10" d="M305,323c0.2,0.3,0.4,0.6,0.5,0.9l1.5,8.9c-0.8,0.2-1.9-0.2-2.7-0.7L305,323z"/>
							</g>
							<path class="st10" d="M328.6,345.5c-1.6,1.6-4,3.4-7.2,3.4c-2.7,0-5-1.5-5.7-1.9c-0.6-0.4-1.1-0.8-1.6-1.2l0.5-6.1h13.5
								L328.6,345.5z"/>
							<path class="st9" d="M321.2,295.8c-15.1,0-17.5,10.3-17.5,16.2c0,5.9,0.5,11.5,2.6,19.4c1.9,7.3,5.7,10,8.4,12.3
								c2.8,2.3,4.7,3.1,6.4,3.1c1.7,0,3.6-0.7,6.4-3.1c2.8-2.3,6.5-5,8.4-12.3c2.1-8,2.6-13.6,2.6-19.4
								C338.7,306.1,336.3,295.8,321.2,295.8z"/>
							<path class="st11" d="M321.2,293.4c1.8-1.1,3.9-1.4,5.6-1.2c1.7,0.2,8.3,3.1,10.7,5.3c2.5,2.2,4.4,6.8,4.5,11.9
								c0,5-2,11.9-2.2,12.1c-0.2,0.3-2.1,2-2.1,2s-0.1-2.6-0.2-2.8c-0.1-0.2-1-2-1.3-2.2c-0.3-0.2,0-1.4,0-1.8
								c0-0.3-0.2-1.6-0.9-2.6c-0.7,1.9-1.7,3.6-2.1,3.6c-0.2,0-0.9-1.1-1.6-2.3c-1.3-2.4-1.7-3.2-2.3-4.1c0,0.4-1.2,4.2-1.7,4.2
								c-0.5,0-1.1-2.7-1.7-4.6c-0.6-1.9-2.1-4.9-2.3-4.8c-0.2,0.1-2.6,1.6-2.6,1.6s-2.3-1.5-2.6-1.6c-0.2,0-1.7,2.9-2.3,4.8
								c-0.6,1.9-1.2,4.7-1.7,4.6c-0.5,0-1.7-3.8-1.7-4.2c-0.6,0.9-0.9,1.7-2.3,4.1c-0.7,1.2-1.4,2.3-1.6,2.3
								c-0.4,0.1-1.4-1.6-2.1-3.6c-0.6,0.9-0.8,2.2-0.9,2.6c0,0.3,0.3,1.5,0,1.8c-0.3,0.2-1.2,2-1.3,2.2c-0.1,0.2-0.2,2.8-0.2,2.8
								s-1.9-1.8-2.1-2c-0.2-0.3-2.2-7.1-2.2-12.1c0-5,2-9.6,4.5-11.9c2.5-2.2,9-5.2,10.7-5.3C317.3,292,319.4,292.3,321.2,293.4z"
								/>
						</g>
						<path class="st12" d="M310.1,351"/>
						<g>
							<path class="st13" d="M356.8,417.6c-3.5,0.9-6.9-1.7-7.9-2.5c0.1,5.7,0.2,11.4,0.4,17.1h-53.4c0.6-3.1,1-6.3,1.5-9.8
								c0.5-3.7,0.8-7.2,1-10.6c-2.4,1.6-9.1,5.8-13.3,3.4c-5-2.9-5-14.4-5-22.2c0,0,0,0,0,0c0.5-5.8,1.5-12.1,2.5-18.5
								c0.4-2.7,1.2-7,4.5-10.9c0.8-1,1.7-1.8,2.5-2.5c0.6-0.5,1.3-1,1.9-1.4c1.6-1,3.1-1.6,4.2-2l14.3-4v-5.2
								c8.6-0.1,10.8,3.5,11.4,4.8c0.5-1.3,2.8-4.9,11.4-4.8v5.2l14.3,4c6.8,1.9,11.6,7.9,12,14.8c0,0.6,0.1,1.2,0.1,1.8
								c1.4,11.6,2.6,25.9,4,37.5C363.4,413.9,361,416.5,356.8,417.6z"/>
							<line class="st12" x1="321.4" y1="353.3" x2="321.4" y2="432.2"/>
							<line class="st12" x1="315.9" y1="366" x2="326.9" y2="366"/>
							<line class="st12" x1="315.9" y1="393" x2="326.9" y2="393"/>
							<line class="st12" x1="315.9" y1="416.1" x2="326.9" y2="416.1"/>
							<path class="st14" d="M321.4,354.2c0,0-3.9-5.4-11.4-3.3v-2.4c0,0,9.1-0.5,11.4,4.8V354.2z"/>
							<path class="st14" d="M321.4,354.2c0,0,3.9-5.4,11.4-3.3v-2.4c0,0-9.1-0.5-11.4,4.8V354.2z"/>
						</g>
						<g>
							<g>
								<path d="M310.2,323.9c1.5-3.5,6.8-3.9,9-0.8c0,0-0.8,0.6-0.8,0.6C316.3,320.9,312.3,321.2,310.2,323.9L310.2,323.9z"/>
							</g>
						</g>
						<g>
							<g>
								<path d="M332.7,324.5c-1.8-2.9-6-3.2-8.2-0.6c0,0-0.7-0.6-0.7-0.6C326.1,320.2,331.6,320.9,332.7,324.5L332.7,324.5z"/>
							</g>
						</g>
						<path class="st15" d="M317.6,339c-0.1,0.4,1.8,1.1,3.6,1.1c2,0,3.8-0.9,3.8-1.2c-0.1-0.4-1.9-0.3-3.8-0.3
							C319.3,338.6,317.6,338.7,317.6,339z"/>
						<g>
							<path class="st15" d="M319.3,334.2c1.3-0.6,2.6-0.6,3.8,0C321.9,334.7,320.6,334.7,319.3,334.2L319.3,334.2z"/>
						</g>
						<path id="XMLID_00000022560207909779308950000012378496468264451772_" class="st16" d="M275.2,315.6c0,0,16.4-7,38.7-7.7
							c34.6-1,53.3,6,53.3,6l-46.8-27.6L275.2,315.6z"/>
						<path id="XMLID_00000144312738576399395580000006201206067068536452_" class="st17" d="M321.5,289.1
							c6.2,5.9,11.5,12.3,15.9,19.4c19.5,1.6,29.8,5.4,29.8,5.4l-46.8-27.6l-1.4,0.9C319.8,287.9,320.7,288.5,321.5,289.1z"/>
						<g>
							<path d="M325.4,327.5C325.4,327.5,325.3,327.5,325.4,327.5c-0.2-0.1-0.3-0.1-0.4-0.2c0.1-0.2,0.2-0.4,0.4-0.6
								c0,0,0.3-0.3,0.5-0.4c0.3-0.2,0.6-0.2,1.5-0.3c1.2-0.1,1.3-0.1,1.6,0c0.4,0.1,0.9,0.5,0.9,0.8c0,0.1-0.1,0.2-0.2,0.3
								c-0.4,0.4-0.8,0.4-0.8,0.5c0,0.1,0.6,0.1,1.2-0.2c0.3-0.2,0.5-0.5,0.6-0.7c0.2,0,0.5,0.1,0.8,0.1c0.4,0.1,0.6,0.1,0.6,0.1
								c0-0.1-0.7-0.5-1.4-0.7c-0.3-0.1-0.7-0.3-1.3-0.3c-0.2,0-0.6-0.1-1.6,0c-0.5,0-1.2,0.1-1.9,0.2c-0.3,0.2-0.7,0.4-1.1,0.8
								c-0.5,0.5-0.8,1-0.8,1.1c0,0,0.2-0.1,0.5-0.2c0.1,0,0.1,0,0.3,0C325.1,327.7,325.4,327.6,325.4,327.5z"/>
							<path d="M328.7,325.9c0.1,0.1,0.1,0.3,0.1,0.6c0,0.6-0.4,0.9-0.5,1c-0.4,0.3-0.8,0.3-1.1,0.3c-0.2,0-0.5,0-0.8-0.2
								c-0.2-0.1-0.4-0.3-0.5-0.6c-0.1-0.4,0.1-0.7,0.1-0.8c0.3-0.1,0.7-0.1,1.1-0.1C327.7,325.9,328.2,325.9,328.7,325.9z"/>
						</g>
						<g>
							<path d="M317.2,327.6C317.2,327.5,317.2,327.5,317.2,327.6c0.2-0.1,0.3-0.1,0.4-0.2c-0.1-0.2-0.2-0.4-0.4-0.6
								c0,0-0.3-0.3-0.5-0.4c-0.3-0.2-0.6-0.2-1.5-0.3c-1.2-0.1-1.3-0.1-1.6,0c-0.4,0.1-0.9,0.5-0.9,0.8c0,0.1,0.1,0.2,0.2,0.3
								c0.4,0.4,0.8,0.4,0.8,0.5c0,0.1-0.6,0.1-1.2-0.2c-0.3-0.2-0.5-0.5-0.6-0.7c-0.2,0-0.5,0.1-0.8,0.1c-0.4,0.1-0.6,0.1-0.6,0.1
								c0-0.1,0.7-0.5,1.4-0.7c0.3-0.1,0.7-0.3,1.3-0.3c0.2,0,0.6-0.1,1.6,0c0.5,0,1.2,0.1,1.9,0.2c0.3,0.2,0.7,0.4,1.1,0.8
								c0.5,0.5,0.8,1,0.8,1.1c0,0-0.2-0.1-0.5-0.2c-0.1,0-0.1,0-0.3,0C317.5,327.7,317.2,327.6,317.2,327.6z"/>
							<path d="M313.8,325.9c-0.1,0.1-0.1,0.3-0.1,0.6c0,0.6,0.4,0.9,0.5,1c0.4,0.3,0.8,0.3,1.1,0.3c0.2,0,0.5,0,0.8-0.2
								c0.2-0.1,0.4-0.3,0.5-0.6c0.1-0.4-0.1-0.7-0.1-0.8c-0.3-0.1-0.7-0.1-1.1-0.1C314.9,325.9,314.3,325.9,313.8,325.9z"/>
						</g>
						<polyline class="st18" points="313.4,346.5 313.4,346.3 313.4,345.7 313.4,345.4 313.4,345.2 						"/>
					</g>
				</g>
				<g>
					<path class="st19" d="M384.4,331.8L384.4,331.8l0.7-1.8L384.4,331.8z"/>
					<polygon class="st19" points="405.9,295.3 404,300.1 397.3,298.9 404,300.1 405.9,295.3 405.9,295.3 					"/>
					<path class="st18" d="M356.6,386.3c-0.2,0-0.3,0.1-0.5,0.1C356.3,386.4,356.4,386.3,356.6,386.3
						C356.6,386.3,356.6,386.3,356.6,386.3"/>
					<path class="st20" d="M284.8,506.3c-0.1,1.9-0.2,3.9-0.3,5.8c-0.2,3.2-0.5,6.3-0.8,9.5c-0.3,3.6-0.8,7.3-1.2,10.9
						c-0.5,4.1-3.4,7.3-7.1,8.4h0c-0.9,0.3-1.8,0.4-2.8,0.4h-35.4c-2.7,0-5.2-1.1-7.1-2.9c-0.6-0.6-1.1-1.3-1.6-2
						c-0.3-0.5-0.5-1-0.8-1.6c-0.2-0.6-0.4-1.1-0.5-1.7c-3.6-20.6-6.4-41.1-8.2-61.4c0-0.4-0.1-0.9-0.1-1.3
						c-0.8-8.7-1.4-17.4-1.8-26.1c-0.4-8.4-0.6-16.8-0.7-25.1c0-5.5,4.5-10,10-10h37.5c4.4,0,8.3,2.9,9.6,7.1c0,0.1,0,0.2,0.1,0.2h0
						v0c0.1,0.2,0.1,0.5,0.2,0.7c0.1,0.3,0.2,0.7,0.3,1v0h0c0.6,1.9,1.2,3.8,1.7,5.7l0,0c0.5,1.9,1,3.7,1.5,5.6c0,0,0,0.1,0,0.1
						c0.4,1.6,0.8,3.1,1.2,4.7c0.1,0.5,0.2,0.9,0.3,1.4c0,0,0,0,0,0c0.6,2.8,1.2,5.7,1.8,8.5c0.9,4.7,1.6,9.5,2.3,14.3v0
						c0.5,4.2,1,8.3,1.3,12.6c0,0.2,0,0.3,0,0.5C285.2,483.1,285.3,494.6,284.8,506.3z"/>
					<path class="st20" d="M424,419.2c0,8.3-0.3,16.7-0.7,25.1c-0.4,8.3-1,16.6-1.7,25l-0.2,2.4c-0.2,1.8-0.3,3.6-0.5,5.4
						c0,0.3-0.1,0.6-0.1,0.9c-0.3,3.1-0.6,6.3-1,9.4c-0.2,1.5-0.3,3-0.5,4.6c-0.1,1.1-0.3,2.2-0.4,3.4c-0.2,1.4-0.4,2.8-0.5,4.2
						c-0.5,4.1-1.1,8.1-1.7,12.2c-0.3,2.3-0.7,4.7-1.1,7c-0.4,2.4-0.8,4.8-1.2,7.2c0,0.1,0,0.3-0.1,0.4c-0.4,2.3-0.8,4.5-1.2,6.8v0
						c-0.1,0.3-0.1,0.5-0.2,0.8c0,0,0,0.1,0,0.1c-0.1,0.3-0.2,0.5-0.3,0.8c0,0,0,0,0,0c-0.1,0.2-0.2,0.4-0.3,0.6
						c0,0.1-0.1,0.2-0.1,0.3c-0.1,0.2-0.2,0.4-0.4,0.7c-0.1,0.2-0.3,0.5-0.5,0.7c-0.2,0.2-0.3,0.5-0.5,0.7c0,0,0,0,0,0
						c-0.2,0.2-0.3,0.4-0.5,0.6c-0.1,0.1-0.1,0.1-0.2,0.2c-0.1,0.2-0.3,0.3-0.5,0.4c-0.4,0.3-0.8,0.6-1.2,0.8
						c-0.3,0.2-0.7,0.4-1,0.6c-0.1,0.1-0.2,0.1-0.4,0.2c-0.5,0.2-1.1,0.4-1.7,0.5c-0.1,0-0.2,0.1-0.3,0.1c-0.2,0-0.3,0.1-0.5,0.1
						c-0.2,0-0.4,0.1-0.6,0.1c-0.2,0-0.5,0-0.7,0h-35.4c-2.5,0-4.8-0.9-6.6-2.5c-0.4-0.4-0.8-0.8-1.1-1.2c-1.2-1.4-2-3.2-2.2-5.2
						c-0.2-1.9-0.5-3.9-0.7-5.8c-0.2-1.7-0.4-3.4-0.5-5.1c-0.2-1.6-0.3-3.2-0.4-4.8c-0.1-1.6-0.2-3.2-0.4-4.8
						c-0.3-4.5-0.5-9-0.6-13.4c0-1.3,0-2.5,0-3.8c-0.1-7.8,0.2-15.6,0.8-23.2c0-0.4,0.1-0.8,0.1-1.2c0.2-2.1,0.4-4.1,0.6-6.2
						c0.2-1.8,0.4-3.6,0.6-5.5v0c0.6-4.9,1.4-9.8,2.3-14.6c0-0.1,0-0.3,0.1-0.4c0.3-1.5,0.6-3,0.9-4.5c0.4-2.1,0.9-4.3,1.4-6.4
						c0.7-3,1.5-5.9,2.3-8.9c0.6-2.2,1.3-4.5,2-6.7c0.1-0.2,0.2-0.5,0.2-0.8c0,0,0,0,0,0c0-0.1,0.1-0.3,0.1-0.4
						c0.3-1,0.8-1.9,1.4-2.8c1.8-2.6,4.9-4.3,8.2-4.3h37.5c3.9,0,7.3,2.2,8.9,5.4C423.6,416,424,417.6,424,419.2z"/>
					<path class="st19" d="M259,409.2h-6.2c0,0,0,0,0,0L259,409.2C259,409.2,259,409.2,259,409.2L259,409.2z"/>
					<path class="st21" d="M259,409.2h-6.2c1.4,19.1,0.7,38.8-1.9,59c-0.6,5-4.9,8.8-10,8.8h-21.4c1.8,18.6,4.4,37.3,7.7,56.1
						c0.8,4.8,5,8.3,9.9,8.3h11.5c-1.4-13.3-2.1-26.5-2.2-39.6c0-3.5,2.9-6.4,6.4-6.4h23.2c-4.4-21.9-9.7-51.6-9.2-65.4
						c0-0.4,0.1-0.8,0.1-1.1c0.3-1.6,1.3-3,2.6-3.9l4.7-6.8c-0.2-0.6-0.4-1.1-0.5-1.7C272.9,416.1,267.3,412.7,259,409.2L259,409.2z
						"/>
					<path class="st19" d="M383.2,409.2C383.2,409.2,383.2,409.2,383.2,409.2l9.7,0c0,0,0,0,0,0H383.2z"/>
					<path class="st22" d="M414.3,526.4c-0.4,2.3-0.8,4.5-1.2,6.8c-0.5,2.9-2.2,5.3-4.6,6.8c2.4-1.5,4.1-3.9,4.6-6.7
						C413.6,530.9,413.9,528.7,414.3,526.4L414.3,526.4L414.3,526.4z"/>
					<path class="st21" d="M392.8,409.2h-9.7c-5.8,2.4-10.2,4.8-12.7,6.2l11.6,9.4c2.2,1,3.7,3.2,3.7,5.8c-0.1,8-2,25.9-11,64.9
						h23.7c3.5,0,6.4,2.9,6.4,6.4c-0.1,13.1-0.8,26.3-2.2,39.6h0.6c1.9,0,3.8-0.5,5.3-1.5c2.4-1.5,4.1-3.9,4.6-6.8
						c0.4-2.3,0.8-4.5,1.2-6.8c0.2-1.2,0.4-2.3,0.6-3.5c2.5-15.3,4.5-30.6,6-45.8h-16.1c-5.1,0-9.3-3.8-10-8.8
						C392.2,448.1,391.5,428.4,392.8,409.2L392.8,409.2z"/>
					<path class="st23" d="M368.4,416.6c0,0,22.7-14.4,47.5-14.8c3.1-0.1,4.4-4,1.8-5.8c-2.5-1.7-6-3.4-10.9-4.2
						c-13.1-2.1-40.5,7.4-46.9,19.8C353.4,424,368.4,416.6,368.4,416.6L368.4,416.6z"/>
					<path class="st24" d="M415.3,397.8c-19,0-35.2,6.1-35.2,6.1s-3.1,0.8-5.8,0.8c-2.5,0-4.7-0.7-4.1-3.1c-2.3,1.5-4.4,3.1-6.2,4.7
						l-1.1,3l7.6,6.1c6.1-3.5,25.1-13.3,45.4-13.6c2.2,0,3.5-2.1,3.1-3.9C417.8,397.8,416.5,397.8,415.3,397.8L415.3,397.8z"/>
					<path class="st23" d="M273.7,416.6c0,0-22.7-14.4-47.5-14.8c-3.1-0.1-4.4-4-1.8-5.8c2.5-1.7,6-3.4,10.9-4.2
						c13.1-2.1,40.5,7.4,46.9,19.8C288.7,424,273.7,416.6,273.7,416.6L273.7,416.6z"/>
					<path class="st19" d="M223.1,398c-0.2,1.2,0.3,2.6,1.5,3.3C223.4,400.6,222.9,399.2,223.1,398L223.1,398z"/>
					<path class="st24" d="M225.5,397.8c-0.8,0-1.6,0-2.4,0c0,0,0,0.1,0,0.1c-0.2,1.2,0.3,2.6,1.5,3.3c0.5,0.3,1,0.5,1.7,0.5
						c24.8,0.4,47.5,14.8,47.5,14.8s0.5,0.2,1.2,0.6l5.6-8.2c-1.5-1.9-3.4-3.7-5.6-5.3c0.9,2.8-1,3.6-3.4,3.6
						c-2.9,0-6.5-1.1-6.5-1.1S246.5,397.8,225.5,397.8L225.5,397.8z"/>
					<path class="st25" d="M391.7,580H369c-3.3,0-6-2.4-6.4-5.7c-3.4-26.3-1.7-51.2,5.7-74.4c0.9-2.7,3.3-4.5,6.1-4.5h24
						c3.5,0,6.4,2.9,6.4,6.4c-0.1,24-2.6,48.3-6.9,72.9C397.5,577.8,394.8,580,391.7,580L391.7,580z"/>
					<path class="st25" d="M259.6,580h22.6c3.3,0,6-2.4,6.4-5.7c3.4-26.3,1.7-51.2-5.7-74.4c-0.9-2.7-3.3-4.5-6.1-4.5h-24
						c-3.5,0-6.4,2.9-6.4,6.4c0.1,24,2.6,48.3,6.9,72.9C253.8,577.8,256.5,580,259.6,580L259.6,580z"/>
					<path class="st22" d="M361.1,541.4L361.1,541.4c-0.3,6.2-0.2,12.5,0.2,18.8C360.9,553.9,360.9,547.6,361.1,541.4L361.1,541.4z"
						/>
					<path class="st22" d="M398,574.8c0,0.1,0,0.2-0.1,0.3C398,574.9,398,574.9,398,574.8c0.4-2.4,0.8-4.9,1.2-7.3
						C398.8,569.9,398.4,572.3,398,574.8z M397.8,575.4C397.8,575.4,397.9,575.4,397.8,575.4C397.9,575.4,397.8,575.4,397.8,575.4
						C397.8,575.5,397.8,575.5,397.8,575.4z"/>
					<path class="st26" d="M387.1,495.5h-12.3c-0.2,1-0.5,2.1-0.7,3.2c-1,4.3-2.1,8.7-3.2,13.5h2.2c2.9,0,5.1,2.7,4.5,5.6l-1.9,9.1
						h0l-2.3,11h0l0,0l0,0c0,0.2-0.1,0.3-0.1,0.5c-0.3,1-1,1.8-1.8,2.4c0,0,0,0,0,0c0,0,0,0,0,0c-0.7,0.5-1.6,0.8-2.5,0.8h-7.6
						c-0.3,6.2-0.2,12.5,0.2,18.8c0.3,4.7,0.7,9.4,1.3,14.1c0,0.4,0.1,0.7,0.2,1.1c0.4,1.4,1.3,2.6,2.5,3.4c1.1,0.7,2.3,1.2,3.7,1.2
						h22.6c1.2,0,2.3-0.3,3.3-0.9c1.6-0.9,2.7-2.5,3-4.4c0.5-3,1-6.1,1.5-9.1c0.1-0.6,0.2-1.1,0.3-1.7H391c-3.3,0-6-2.4-6.4-5.7
						C381.8,536.3,382.5,515.3,387.1,495.5L387.1,495.5z"/>
					<path class="st26" d="M275.9,495.5h-10.1c1.2,6.2,2.1,12.5,2.6,18.9c0.8-1.3,2.2-2.2,3.9-2.2h7.1
						C278.4,507.7,277.2,501.9,275.9,495.5L275.9,495.5z"/>
					<path class="st22" d="M286.2,578.7C286.2,578.7,286.2,578.7,286.2,578.7C286.2,578.7,286.2,578.7,286.2,578.7
						C286.2,578.7,286.2,578.6,286.2,578.7C286.2,578.6,286.2,578.7,286.2,578.7z M288.6,574.4c0,0.2-0.1,0.3-0.1,0.5
						C288.6,574.7,288.6,574.5,288.6,574.4c0.1-0.8,0.2-1.6,0.3-2.4C288.8,572.8,288.7,573.6,288.6,574.4z M288.4,575.3
						c0-0.1,0.1-0.2,0.1-0.3c0,0,0-0.1,0-0.1C288.5,575,288.5,575.1,288.4,575.3C288.4,575.2,288.4,575.3,288.4,575.3z"/>
					<path class="st26" d="M268.8,521.6c0.3,10.2-0.2,20.7-1.6,31.4c-0.4,3.2-3.1,5.7-6.4,5.7h-10.1c0.8,5.4,1.6,10.7,2.6,16.1
						c0.2,1,0.6,1.9,1.1,2.6c0.3,0.5,0.7,0.9,1.2,1.2c1.1,0.9,2.5,1.4,4.1,1.4h22.7c0.7,0,1.3-0.1,1.9-0.3c2.3-0.7,4.1-2.8,4.4-5.4
						c1.4-11.2,2-22.2,1.5-32.9h-12.9c-1.2,0-2.3-0.4-3.1-1.2c0,0,0,0,0,0c0,0,0,0,0,0c-0.7-0.6-1.1-1.4-1.4-2.3l-2-8.3L268.8,521.6
						L268.8,521.6z"/>
					<path class="st27" d="M368.8,541.4h-91.5c-2.1,0-4-1.4-4.5-3.5l-4.9-20.1c-0.7-2.9,1.5-5.7,4.5-5.7H373c2.9,0,5.1,2.7,4.5,5.5
						l-4.3,20.1C372.8,539.9,370.9,541.4,368.8,541.4L368.8,541.4z"/>
					<path class="st28" d="M373,512.1h-2.2c0,0,0,0,0,0L373,512.1c2.9,0,5.1,2.7,4.5,5.6l-1.9,9.1h0l1.9-9.1
						C378.1,514.8,375.9,512.1,373,512.1L373,512.1z"/>
					<path class="st26" d="M268.4,514.4c-0.1,0.2-0.2,0.3-0.3,0.5C268.2,514.7,268.3,514.5,268.4,514.4L268.4,514.4L268.4,514.4z"/>
					<path class="st18" d="M371.3,540.7C371.3,540.7,371.3,540.7,371.3,540.7C371.3,540.7,371.3,540.7,371.3,540.7
						c-0.1,0.1-0.2,0.1-0.3,0.2c-0.1,0-0.1,0.1-0.2,0.1c-0.1,0.1-0.3,0.1-0.4,0.2 M371.4,540.6c0.1-0.1,0.2-0.2,0.3-0.2l0.5-0.5
						c0,0,0,0,0,0l0,0l0.2-0.2l0,0l0,0l0.2-0.2l0.1-0.1c0,0,0-0.1,0-0.1l0,0l0-0.1v0c0.1-0.1,0.1-0.2,0.2-0.3c0-0.1,0.1-0.2,0.1-0.3
						 M373.1,538.3L373.1,538.3c0,0.1-0.1,0.2-0.1,0.4c-0.1,0.1-0.1,0.2-0.2,0.3v0l0,0.1l0,0c0,0,0,0,0,0c0,0,0,0,0,0.1l-0.1,0.1
						l-0.2,0.2l0,0l0,0l-0.2,0.2l0,0c0,0,0,0,0,0l-0.5,0.5c-0.1,0.1-0.2,0.2-0.3,0.2c0,0,0,0,0,0 M373.3,537.8L373.3,537.8
						L373.3,537.8L373.3,537.8L373.3,537.8L373.3,537.8 M373.3,537.8L373.3,537.8L373.3,537.8"/>
					<path class="st18" d="M274.7,540.7C274.7,540.7,274.7,540.7,274.7,540.7c-0.1,0-0.1-0.1-0.1-0.1c-0.1,0-0.1-0.1-0.2-0.1
						c-0.1-0.1-0.2-0.1-0.3-0.2c0,0,0,0,0,0 M273.7,539.8C273.7,539.7,273.6,539.7,273.7,539.8C273.6,539.7,273.6,539.7,273.7,539.8
						C273.7,539.8,273.7,539.8,273.7,539.8C273.7,539.8,273.7,539.8,273.7,539.8z M269.6,513.1C269.5,513.1,269.5,513.1,269.6,513.1
						L269.6,513.1c-0.1,0-0.1,0.1-0.1,0.1c0,0,0,0,0,0l0,0c0,0,0,0,0,0C269.4,513.2,269.4,513.2,269.6,513.1c0,0,0,0,0.1-0.1
						C269.6,513,269.6,513,269.6,513.1z M269.3,513.2L269.3,513.2C269.3,513.2,269.4,513.2,269.3,513.2
						C269.4,513.2,269.4,513.2,269.3,513.2C269.3,513.2,269.3,513.2,269.3,513.2z M271.4,512.2L271.4,512.2c0.1,0,0.1,0,0.2,0
						L271.4,512.2z M272.3,512.1c-0.1,0-0.2,0-0.3,0c-0.1,0-0.1,0-0.2,0c0,0,0,0-0.1,0c0.1,0,0.1,0,0.2,0
						C272.1,512.1,272.2,512.1,272.3,512.1l7.1,0v0H272.3z"/>
					<path class="st29" d="M373,512.1h-2.2c-0.8,3.1-1.5,6.2-2.4,9.5h-87c0,0,0,0,0,0h0c0,0-0.8-3.6-2.1-9.5h-5.8
						c-1.7,0-3.1,0.9-3.9,2.2c-0.1,0.2-0.2,0.3-0.3,0.5c-0.4,0.9-0.5,1.9-0.3,3l2.9,11.8l2,8.3c0.2,0.9,0.7,1.7,1.4,2.3
						c0,0-1.2,0-1.2,0c0,0,1.2,0,1.2,0c0.8,0.8,1.9,1.2,3.1,1.2h90.3c0.9,0,1.8-0.3,2.5-0.8c0,0,0,0,0,0c0,0,0,0,0,0
						c0.8-0.6,1.5-1.4,1.8-2.4c0.1-0.2,0.1-0.3,0.1-0.5l0,0l0,0h-77.9c-2.1,0-4-0.5-4.5-1.3l-4.9-7.5c-0.7-1.1,1.5-2.1,4.5-2.1h85.1
						l1.9-9.1C378.1,514.8,375.9,512.1,373,512.1L373,512.1z"/>
					<path class="st20" d="M358.4,405.9c-2.7-18.4-18.5-32.5-37.6-32.5c-19.1,0-34.9,14.1-37.6,32.5c-0.3,1.8-0.4,3.7-0.4,5.6
						c0,9,3.1,17.2,8.3,23.7l14.2,0.9c-8.2-5.2-13.6-14.2-13.6-24.6c0-1.9,0.2-3.8,0.5-5.6c2.6-13.4,14.4-23.5,28.5-23.5
						c14.1,0,25.9,10.1,28.5,23.5c0.4,1.8,0.5,3.7,0.5,5.6c0,11.6-6.8,21.7-16.7,26.3l14.2,0.9c7.1-6.9,11.5-16.5,11.5-27.2
						C358.8,409.5,358.7,407.7,358.4,405.9L358.4,405.9z"/>
					<polygon class="st23" points="384.1,426.3 380.4,440.7 347.4,438.6 333.1,437.8 305.3,436.1 291.1,435.2 271.7,434 
						266.9,428.7 282.7,405.9 358.7,405.9 384.1,426.3 					"/>
					<path class="st24" d="M300.5,405.9h-8.2h-9.1h-0.5l-2.1,3.1l-5.6,8.2l-5.4,7.9c0.8-0.6,1.8-0.9,2.9-1c0.2,0,0.4,0,0.6,0
						c0,0,0,0,0,0l106.6,0.2c0.9,0,1.8,0.2,2.6,0.5l-10-8h-16.3c-0.1,0-0.2,0-0.3,0c-0.1,0-0.2,0-0.3,0h-59.8L300.5,405.9
						L300.5,405.9z"/>
					<path class="st23" d="M273,424l106.6,0.2c3.5,0,6.3,2.9,6.3,6.4c-0.1,9.6-2.9,33.4-17.4,91.1h-87c0,0-15.5-68.4-14.8-91.6
						C266.8,426.7,269.6,424,273,424L273,424z"/>
					<path class="st30" d="M269.5,425c-1.3,0.9-2.3,2.3-2.6,3.9C267.2,427.3,268.2,425.9,269.5,425L269.5,425L269.5,425z"/>
					<path class="st31" d="M272.4,424c-1.1,0.1-2,0.5-2.9,1l0,0C270.3,424.5,271.3,424.1,272.4,424L272.4,424z"/>
					<path class="st28" d="M374.1,498.6c-1,4.3-2.1,8.7-3.2,13.5h0C372,507.4,373.1,502.9,374.1,498.6L374.1,498.6z"/>
					<polyline class="st18" points="370.8,512.1 370.8,512.1 370.8,512.1 370.8,512.1 370.8,512.1 					"/>
					<path class="st32" d="M370.8,512.1L370.8,512.1c-0.8,3.1-1.5,6.2-2.4,9.5h-87c0,0,0,0,0,0h87
						C369.3,518.4,370.1,515.2,370.8,512.1L370.8,512.1z"/>
					<path class="st24" d="M369.9,497.4c-3.4-0.2-6.7-0.6-9.9-1.3c-1.4-0.3-2.8-0.6-4.1-1c-0.2-0.1-0.4-0.1-0.6-0.2
						c-1-0.3-1.9-0.6-2.9-0.9c-1.4-0.5-2.8-1-4.2-1.5c-1.4-0.6-2.8-1.2-4.2-1.8c-1.5-0.7-2.9-1.4-4.3-2.2c-1.7-1-3.4-2-5.1-3.2
						c-1.5-1.1-3-2.2-4.5-3.3c-1.4-1.1-2.8-2.3-4.1-3.5c-1.7-1.6-3.3-3.3-4.9-5c-0.5-0.6-1-1.1-1.5-1.7c-0.2-0.2-0.4-0.4-0.5-0.7
						c-0.8-1-1.5-2-2.3-3v0c-0.9-1.2-1.7-2.5-2.5-3.8c-3.8-6.1-6.7-12.8-8.5-20c-0.5-2-0.9-4.1-1.3-6.3c-0.1-0.7-0.2-1.4-0.3-2.1
						c0-0.2-0.1-0.5-0.1-0.7v0c-0.3-1.9-0.6-3.8-0.8-5.6c-0.3-1.9-0.5-3.8-0.7-5.6l-6.8,0l-1.2,0h-1.7l-8,0l-7.8,0h-1.2l-2.9,0h0
						c-0.1,0-0.2,0-0.3,0c-0.1,0-0.2,0-0.3,0c-0.2,0-0.3,0-0.5,0.1c0,0,0,0-0.1,0c-0.1,0-0.2,0-0.2,0.1c-0.1,0-0.2,0.1-0.3,0.1
						c0,0-0.1,0-0.1,0c-0.2,0.1-0.4,0.1-0.6,0.2c-0.1,0-0.2,0.1-0.3,0.1c0,0-0.1,0-0.1,0.1c0,0-0.1,0-0.1,0.1c0,0-0.1,0-0.1,0.1
						c0,0,0,0,0,0c0,0,0,0-0.1,0c0,0,0,0,0,0c0,0-0.1,0.1-0.1,0.1c0,0-0.1,0.1-0.1,0.1c0,0,0,0,0,0c0,0,0,0,0,0c0,0,0,0,0,0
						c-0.1,0-0.2,0.1-0.2,0.2c-0.1,0-0.1,0.1-0.2,0.1l-0.4,0.4c0,0,0,0-0.1,0.1c-0.1,0.1-0.1,0.1-0.2,0.2c0,0,0,0.1-0.1,0.1
						c0,0,0,0,0,0c0,0,0,0,0,0c0,0,0,0,0,0c0,0,0,0,0,0c0,0,0,0,0,0v0l-0.3,0.4l-0.3,0.5c0,0,0,0,0,0c0,0,0,0,0,0.1v0l-0.1,0.3
						l-0.1,0.1c0,0.1-0.1,0.2-0.1,0.3c0,0,0,0,0,0.1c0,0,0,0,0,0c0,0,0,0,0,0.1c0,0,0,0,0,0c0,0.1-0.1,0.1-0.1,0.2v0l0,0
						c0,0.1-0.1,0.2-0.1,0.3c0,0,0,0,0,0c0,0.1,0,0.2-0.1,0.3c-0.1,0.4-0.1,0.7-0.1,1.1c0,1,0,2.2,0,3.4c0,0.1,0,0.3,0,0.4
						c0,0.1,0,0.2,0,0.3s0,0.2,0,0.4c0,0.3,0,0.6,0,0.8v0.1c0,0,0,0,0,0c0,0,0,0,0,0v0c0,0.2,0,0.4,0,0.6v0c0,0.3,0,0.5,0,0.8
						c0,0.4,0.1,0.9,0.1,1.3c0,0.1,0,0.2,0,0.4c0,0.3,0,0.6,0.1,0.9c0,0.1,0,0.1,0,0.2c0,0.2,0,0.4,0,0.6v0.1c0,0.3,0.1,0.6,0.1,0.9
						c0,0.2,0,0.4,0,0.5c0,0.3,0.1,0.7,0.1,1c0,0.3,0.1,0.5,0.1,0.8c0,0.2,0,0.5,0.1,0.8v0.1c0,0.1,0,0.1,0,0.2
						c0,0.2,0.1,0.5,0.1,0.7c0,0.1,0,0.3,0,0.4c0,0.1,0,0.1,0,0.2c0,0,0,0,0,0.1c0.1,0.5,0.1,1.1,0.2,1.6c0.1,0.6,0.1,1.1,0.2,1.7
						c0,0,0,0.1,0,0.1c0,0.1,0,0.3,0,0.5c0,0.3,0.1,0.6,0.1,0.9c0,0.1,0,0.3,0,0.4c0,0.2,0.1,0.5,0.1,0.8c0,0.3,0.1,0.7,0.1,1
						c0,0.3,0.1,0.7,0.1,1c0,0.3,0.1,0.5,0.1,0.8c0,0.2,0,0.3,0.1,0.5c0,0.2,0.1,0.3,0.1,0.5c0,0.2,0.1,0.4,0.1,0.6c0,0,0,0.1,0,0.1
						c0,0.2,0.1,0.4,0.1,0.6c0.1,0.7,0.2,1.4,0.3,2.1c0,0.1,0,0.2,0.1,0.4c0,0.2,0,0.3,0.1,0.5c0.1,0.3,0.1,0.6,0.1,0.9l0.1,1
						c0.1,0.9,0.3,1.8,0.4,2.7c0,0.3,0.1,0.6,0.1,0.9c0,0,0,0.1,0,0.1c0,0,0,0,0,0.1c0.1,0.5,0.2,1.1,0.3,1.6c0,0.2,0.1,0.4,0.1,0.5
						c0,0.2,0.1,0.4,0.1,0.6c0.1,0.3,0.1,0.6,0.2,0.9c0.1,0.7,0.2,1.4,0.3,2c0,0.2,0.1,0.3,0.1,0.5c0.2,1,0.3,1.9,0.5,2.9
						c0,0.1,0,0.1,0,0.2c0.2,0.9,0.3,1.8,0.5,2.8c0.1,0.3,0.1,0.7,0.2,1c0.1,0.4,0.2,0.9,0.2,1.3c0,0.1,0.1,0.3,0.1,0.4
						c0,0.2,0.1,0.4,0.1,0.6c0.1,0.5,0.2,1,0.3,1.4c0.2,1,0.4,1.9,0.5,2.9c0.1,0.7,0.3,1.4,0.4,2.1c0,0.2,0.1,0.3,0.1,0.5
						c0.1,0.3,0.1,0.6,0.2,0.9c0.1,0.2,0.1,0.5,0.1,0.7c0,0.2,0.1,0.4,0.1,0.7c0,0.2,0.1,0.3,0.1,0.5c0.1,0.3,0.1,0.5,0.2,0.8
						c0,0,0,0.1,0,0.1c0,0.2,0.1,0.4,0.1,0.5c0,0.1,0,0.2,0,0.2c0.2,0.8,0.3,1.6,0.5,2.3c0,0.3,0.1,0.6,0.2,0.8c0,0,0,0.1,0,0.1
						c0.1,0.5,0.2,1.1,0.3,1.6c0.1,0.3,0.1,0.5,0.2,0.8c0,0.1,0,0.2,0,0.3c0,0.2,0.1,0.4,0.1,0.6c0.1,0.3,0.1,0.5,0.2,0.8
						c0,0.1,0,0.1,0,0.2c0,0.1,0.1,0.3,0.1,0.4c0,0,0,0.1,0,0.1c0,0.1,0,0.1,0.1,0.2c0.2,0.8,0.3,1.7,0.5,2.5c0,0.2,0.1,0.3,0.1,0.5
						c0,0.1,0.1,0.3,0.1,0.4c0.1,0.2,0.1,0.4,0.1,0.6c0,0.1,0,0.2,0.1,0.3c0.1,0.6,0.2,1.2,0.4,1.8c0,0.2,0.1,0.4,0.1,0.6
						c0,0.1,0.1,0.3,0.1,0.5c0,0,0,0.1,0,0.1c0,0,0,0.1,0,0.1c0,0.1,0,0.1,0,0.2c0,0.1,0,0.1,0,0.2c0.1,0.3,0.1,0.6,0.2,0.9
						c0,0,0,0.1,0,0.1c0,0.1,0,0.1,0,0.2c0,0.1,0,0.2,0.1,0.3c0.1,0.3,0.1,0.5,0.2,0.8c0,0.1,0.1,0.3,0.1,0.5c0,0.1,0,0.1,0,0.2
						c0,0.1,0,0.1,0,0.2c0,0.1,0,0.1,0,0.2c0,0.1,0.1,0.3,0.1,0.4v0h0c0,0.2,0.1,0.3,0.1,0.5c0.1,0.4,0.1,0.7,0.2,1
						c0.1,0.4,0.2,0.9,0.3,1.3c0.1,0.3,0.1,0.5,0.2,0.8c0,0.1,0,0.1,0,0.2c0,0.2,0.1,0.3,0.1,0.5c0.1,0.2,0.1,0.5,0.2,0.7
						c0,0.1,0.1,0.3,0.1,0.4c0,0.1,0,0.1,0,0.2c0,0.2,0.1,0.4,0.1,0.6c0,0.1,0,0.1,0,0.2c0,0.1,0,0.2,0,0.2c0,0.1,0,0.2,0.1,0.2
						s0,0.2,0,0.2c0,0.1,0,0.1,0.1,0.2c0,0.1,0,0.2,0.1,0.3c0,0,0,0.1,0,0.1c0,0.1,0,0.1,0,0.2c0,0.1,0,0.2,0.1,0.2
						c0.1,0.3,0.1,0.5,0.1,0.7c0,0.1,0,0.1,0,0.1c0,0,0,0,0,0c0,0,0,0,0,0.1c0,0,0,0.1,0,0.1c0,0,0,0,0,0.1c0,0.1,0.1,0.2,0.1,0.3
						c0,0,0,0,0,0c0,0,0,0,0,0v0c0,0,0,0,0,0c0,0,0,0,0,0c0,0,0,0,0,0h87c0.2-0.8,0.4-1.6,0.6-2.4c0.2-1,0.5-1.9,0.7-2.9
						c0.2-0.6,0.3-1.3,0.5-1.9c0.1-0.2,0.1-0.5,0.2-0.7c0-0.1,0.1-0.3,0.1-0.4c0.1-0.4,0.2-0.8,0.3-1.2v0c0.1-0.3,0.1-0.6,0.2-0.9
						c0.1-0.3,0.1-0.6,0.2-0.9c0.1-0.3,0.2-0.7,0.2-1c0-0.2,0.1-0.4,0.1-0.6c0-0.1,0-0.1,0-0.2c0.1-0.6,0.3-1.1,0.4-1.7
						c0-0.2,0.1-0.4,0.1-0.6c0.4-1.5,0.7-3,1.1-4.5c0.3-1.1,0.5-2.2,0.8-3.2c0.1-0.4,0.2-0.7,0.3-1.1
						C372.8,497.5,371.4,497.5,369.9,497.4z M293.6,433.8c0.4,0.1,0.8,0.3,1.2,0.4c0.2,0.1,0.5,0.2,0.7,0.3c0.6,0.3,1.3,0.6,1.9,1h0
						c0,0,0.1,0,0.1,0.1c0.2,0.1,0.3,0.2,0.5,0.3c0.2,0.1,0.4,0.3,0.6,0.4c0.4,0.3,0.7,0.6,1.1,0.9c1.2,1.1,2.2,2.4,2.9,3.8
						c0.2,0.4,0.4,0.8,0.5,1.2c0.1,0.2,0.1,0.4,0.2,0.7c0.1,0.2,0.1,0.4,0.2,0.7s0.1,0.4,0.1,0.7c0,0.2,0.1,0.3,0.1,0.5
						c0,0.1,0,0.2,0,0.3c0,0.1,0,0.3,0,0.4c0,0.2,0,0.5,0,0.8c0,0.5,0,1-0.1,1.4c0,0.1,0,0.1,0,0.2c0,0.1,0,0.3-0.1,0.4
						c0,0.2-0.1,0.3-0.1,0.5c-0.1,0.3-0.1,0.6-0.2,0.8c-0.1,0.2-0.1,0.4-0.2,0.6c0,0,0,0,0,0.1c-0.1,0.2-0.1,0.4-0.2,0.6
						c-0.1,0.2-0.2,0.4-0.3,0.6c0,0.1-0.1,0.2-0.1,0.3c0,0.1-0.1,0.2-0.1,0.3c-0.1,0.2-0.2,0.4-0.3,0.5c0,0,0,0,0,0c0,0,0,0-0.1,0.1
						c0,0.1-0.1,0.1-0.1,0.2c-0.1,0.1-0.2,0.3-0.3,0.4c-0.1,0.1-0.2,0.3-0.3,0.4c-0.1,0.1-0.1,0.2-0.2,0.3c-0.1,0.1-0.2,0.2-0.3,0.3
						c-0.1,0.1-0.2,0.2-0.2,0.3c0,0,0,0,0,0c0,0,0,0-0.1,0c0,0-0.1,0.1-0.1,0.1c-0.1,0.1-0.2,0.2-0.3,0.3c-0.1,0.1-0.2,0.2-0.3,0.3
						c-0.2,0.2-0.4,0.4-0.6,0.6c0,0-0.1,0.1-0.1,0.1c-0.1,0.1-0.1,0.1-0.2,0.2c0,0-0.1,0.1-0.2,0.1c-0.4,0.3-0.8,0.6-1.3,0.9
						c-0.2,0.1-0.4,0.2-0.6,0.4c-0.1,0.1-0.2,0.1-0.4,0.2c-0.1,0-0.1,0.1-0.2,0.1c-0.1,0.1-0.2,0.1-0.3,0.2
						c-0.2,0.1-0.4,0.2-0.6,0.3c-0.1,0-0.1,0-0.1,0.1c0,0,0,0,0,0c0,0,0,0-0.1,0c0,0-0.1,0-0.1,0c-0.2,0.1-0.3,0.1-0.5,0.2
						c-0.1,0.1-0.3,0.1-0.4,0.1c-0.1,0-0.2,0.1-0.3,0.1c0,0,0,0,0,0c0,0,0,0-0.1,0c-0.1,0-0.2,0.1-0.3,0.1v0c0,0,0,0,0,0
						c-0.1,0-0.2,0.1-0.3,0.1c-0.2,0.1-0.5,0.1-0.7,0.2c-0.1,0-0.2,0-0.3,0.1c0,0,0,0-0.1,0c0,0,0,0-0.1,0c-0.1,0-0.1,0-0.2,0
						c-0.1,0-0.2,0-0.2,0c-0.1,0-0.3,0.1-0.4,0.1c-0.1,0-0.2,0-0.3,0c-0.2,0-0.4,0-0.6,0.1c0,0-0.1,0-0.1,0c-0.1,0-0.1,0-0.2,0h-0.1
						c-0.1,0-0.2,0-0.3,0h-0.1c0,0,0,0,0,0c-0.1,0-0.1,0-0.2,0h-0.1c-0.2,0-0.3,0-0.5,0c-0.3,0-0.7,0-1,0c-0.1,0-0.1,0-0.2,0
						c-0.1,0-0.2,0-0.3,0h0c-0.1,0-0.1,0-0.2,0h-0.1c0,0,0,0-0.1,0c0,0-0.1,0-0.1,0c-0.1,0-0.2,0-0.3,0c-0.2,0-0.4-0.1-0.6-0.1h0
						c0,0,0,0,0,0c0,0,0,0-0.1,0c-0.2-0.1-0.5-0.1-0.7-0.1c-0.2,0-0.3-0.1-0.5-0.1c-0.2-0.1-0.5-0.1-0.7-0.2c-0.1,0-0.2-0.1-0.3-0.1
						v0c-0.1,0-0.3-0.1-0.4-0.1c-0.1,0-0.2-0.1-0.3-0.1c-0.2-0.1-0.3-0.1-0.5-0.2c0,0-0.1,0-0.1-0.1c0,0-0.1,0-0.1-0.1
						c-0.1,0-0.2-0.1-0.3-0.1c-0.1,0-0.1-0.1-0.2-0.1c-0.1,0-0.2-0.1-0.2-0.1c-0.1,0-0.3-0.1-0.4-0.2c0,0,0,0,0,0v0c0,0,0,0,0,0
						c0,0-0.1,0-0.1-0.1c-0.2-0.1-0.4-0.2-0.7-0.4c-0.1,0-0.1-0.1-0.2-0.1c0,0,0,0,0,0c-0.2-0.1-0.5-0.3-0.7-0.4
						c-0.5-0.3-0.9-0.7-1.3-1c-0.2-0.2-0.4-0.4-0.6-0.6c-0.2-0.2-0.4-0.4-0.6-0.6c-0.1-0.2-0.3-0.3-0.4-0.5
						c-0.2-0.2-0.4-0.5-0.6-0.7c0,0,0,0,0,0c-0.1-0.2-0.3-0.4-0.4-0.6c-0.1-0.2-0.2-0.3-0.3-0.5c0-0.1-0.1-0.2-0.1-0.2
						c0,0,0-0.1-0.1-0.1c-0.1-0.2-0.2-0.4-0.3-0.7c0-0.1-0.1-0.2-0.1-0.3c-0.1-0.1-0.1-0.3-0.1-0.4c0,0,0,0,0,0
						c-0.1-0.2-0.1-0.4-0.2-0.7c0-0.1,0-0.1-0.1-0.2c0-0.1-0.1-0.3-0.1-0.5c0-0.1-0.1-0.2-0.1-0.3c0-0.2-0.1-0.3-0.1-0.5
						c-0.1-0.6-0.1-1.1-0.1-1.7c0-0.1,0-0.2,0-0.3c0-0.1,0-0.2,0-0.3c0-0.2,0-0.4,0-0.5c0-0.1,0-0.1,0-0.2c0-0.1,0-0.2,0.1-0.3
						c0-0.1,0-0.2,0-0.4c0,0,0-0.1,0-0.1c0-0.2,0.1-0.4,0.1-0.6c0,0,0-0.1,0-0.1c0.1-0.3,0.1-0.5,0.2-0.8c0,0,0-0.1,0-0.1
						c0-0.1,0-0.1,0.1-0.2c0-0.1,0-0.1,0.1-0.2c0.1-0.3,0.2-0.6,0.3-0.8c0,0,0-0.1,0-0.1c0-0.1,0.1-0.2,0.2-0.3
						c0.1-0.2,0.2-0.4,0.3-0.6c0.1-0.1,0.2-0.3,0.3-0.4c0.1-0.1,0.2-0.3,0.3-0.4c0.1-0.1,0.2-0.3,0.3-0.4c0,0,0-0.1,0.1-0.1
						c0,0,0.1-0.1,0.1-0.1c0.1-0.1,0.1-0.1,0.2-0.2c0-0.1,0.1-0.1,0.1-0.2c0.3-0.4,0.6-0.7,0.9-1c0.2-0.2,0.3-0.3,0.5-0.5
						c0.2-0.1,0.3-0.3,0.5-0.4c0,0,0,0,0,0c0.2-0.1,0.3-0.3,0.5-0.4c0.1-0.1,0.1-0.1,0.2-0.1c0.1-0.1,0.2-0.1,0.3-0.2l0,0
						c0,0,0,0,0.1,0c0.2-0.1,0.4-0.2,0.5-0.4c0.1-0.1,0.2-0.1,0.3-0.2c0.3-0.2,0.5-0.3,0.8-0.4c0.1,0,0.1,0,0.2-0.1
						c0.1-0.1,0.2-0.1,0.2-0.1c0.1,0,0.1-0.1,0.2-0.1h0c0.2-0.1,0.4-0.2,0.6-0.3c0.1,0,0.1-0.1,0.2-0.1c0,0,0.1,0,0.1,0
						c0.3-0.1,0.5-0.2,0.8-0.3c0.4-0.1,0.8-0.3,1.3-0.4c0.3-0.1,0.6-0.1,0.9-0.2c0.2,0,0.3-0.1,0.5-0.1c0.2,0,0.5-0.1,0.7-0.1
						c0.4-0.1,0.9-0.1,1.4-0.1c0.3,0,0.5,0,0.8,0c0.3,0,0.5,0,0.8,0c0.2,0,0.3,0,0.5,0c0.7,0.1,1.3,0.1,2,0.2c0.1,0,0.3,0.1,0.4,0.1
						c0.2,0,0.5,0.1,0.7,0.2C293,433.7,293.3,433.7,293.6,433.8z"/>
					<path class="st33" d="M303.6,446.3c0,7.3-6.9,13.2-15.4,13.2c-8.5,0-15.4-5.9-15.4-13.2c0-7.3,6.9-13.2,15.4-13.2
						C296.8,433,303.6,439,303.6,446.3L303.6,446.3z"/>
					<path class="st33" d="M377.3,446.3c0,7.3-6.9,13.2-15.4,13.2c-8.5,0-15.4-5.9-15.4-13.2c0-7.3,6.9-13.2,15.4-13.2
						C370.4,433,377.3,439,377.3,446.3L377.3,446.3z"/>
					<path class="st34" d="M303.5,447.9C303.5,447.9,303.5,447.9,303.5,447.9c-0.9,6.5-7.4,11.6-15.3,11.6c-3.3,0-6.4-0.9-9-2.5
						c2.5,1.6,5.6,2.5,9,2.5C296.1,459.5,302.6,454.4,303.5,447.9L303.5,447.9z"/>
					<path class="st35" d="M282.8,433.9c-5.8,1.9-9.9,6.7-9.9,12.3c0,4.4,2.5,8.3,6.4,10.7c2.5,1.6,5.6,2.5,9,2.5
						c7.9,0,14.3-5.1,15.3-11.6c-1.7,0.6-3.6,0.9-5.5,0.9c-8.5,0-15.4-5.9-15.4-13.2C282.7,435,282.7,434.4,282.8,433.9L282.8,433.9
						z"/>
					<path class="st18" d="M372.7,455.6L372.7,455.6L372.7,455.6C372.7,455.6,372.7,455.6,372.7,455.6
						C372.7,455.6,372.8,455.6,372.7,455.6c0.2-0.2,0.4-0.4,0.6-0.5c0,0,0.1-0.1,0.1-0.1c0.2-0.2,0.4-0.4,0.6-0.7c0,0,0,0,0,0
						c0,0,0,0,0,0c0,0,0.1-0.1,0.1-0.1c0.1-0.1,0.1-0.2,0.2-0.3c0,0,0,0,0-0.1c0.1-0.1,0.2-0.2,0.2-0.3c0,0,0,0,0,0c0,0,0,0,0,0
						c0.2-0.2,0.3-0.5,0.5-0.7c0,0,0,0,0,0c0,0,0,0,0,0c0,0,0,0,0,0c0,0,0,0,0-0.1c0.1-0.2,0.3-0.5,0.4-0.7 M350.6,455.2
						c0.1,0.1,0.1,0.1,0.2,0.2c0.1,0,0.1,0.1,0.2,0.1c0.3,0.3,0.6,0.5,0.9,0.8c0.1,0.1,0.1,0.1,0.2,0.1c0.2,0.1,0.4,0.3,0.6,0.4
						c0.1,0,0.1,0.1,0.2,0.1c0.3,0.2,0.6,0.4,1,0.6c0,0,0,0,0,0c0.1,0,0.2,0.1,0.3,0.1c0.1,0,0.2,0.1,0.2,0.1c0.1,0,0.1,0.1,0.2,0.1
						c0.2,0.1,0.4,0.2,0.5,0.2c0.5,0.2,0.9,0.4,1.4,0.5c0.1,0,0.2,0.1,0.3,0.1c0.1,0,0.1,0,0.2,0.1c0,0,0,0,0.1,0c0,0,0,0,0,0
						c0,0,0.1,0,0.1,0c0,0,0,0,0.1,0c0,0,0,0,0,0c0,0,0,0,0,0c0,0,0.1,0,0.1,0c0.1,0,0.3,0.1,0.4,0.1c0,0,0,0,0,0
						c0.2,0.1,0.5,0.1,0.7,0.1c0.1,0,0.2,0,0.3,0c0,0,0,0,0,0c0.1,0,0.2,0,0.3,0.1c0.2,0,0.3,0,0.5,0.1c0,0,0,0,0,0
						c0.1,0,0.2,0,0.3,0c0.6,0.1,1.1,0.1,1.7,0.1c0.2,0,0.3,0,0.5,0c0,0,0,0,0,0c0.1,0,0.2,0,0.2,0c0.3,0,0.5,0,0.8,0
						c0,0,0.1,0,0.1,0c0,0,0,0,0,0c0,0,0,0,0,0c0.3,0,0.6-0.1,0.9-0.1c0.2,0,0.3-0.1,0.5-0.1c0.2,0,0.4-0.1,0.6-0.1
						c0.2,0,0.5-0.1,0.7-0.2c0,0,0.1,0,0.1,0c0,0,0,0,0,0c0,0,0,0,0,0c0,0,0.1,0,0.1,0c0.2-0.1,0.4-0.1,0.6-0.2
						c0.2-0.1,0.5-0.2,0.7-0.2c0,0,0,0,0,0c0,0,0,0,0.1,0c0,0,0.1,0,0.1,0c0.1,0,0.2-0.1,0.3-0.1c0.2-0.1,0.3-0.1,0.5-0.2
						c0,0,0.1,0,0.1-0.1c0.1,0,0.1-0.1,0.2-0.1c0.1,0,0.2-0.1,0.3-0.1c0.1,0,0.2-0.1,0.3-0.2c0,0,0.1,0,0.1-0.1
						c0.2-0.1,0.3-0.2,0.5-0.3c0.2-0.1,0.4-0.2,0.6-0.4c0.1,0,0.2-0.1,0.3-0.2c0.1-0.1,0.3-0.2,0.5-0.3c0,0,0.1,0,0.1-0.1
						c0.1,0,0.1-0.1,0.2-0.1c0.1,0,0.1-0.1,0.2-0.1c0.1,0,0.1-0.1,0.2-0.1c0.1-0.1,0.2-0.2,0.3-0.2 M372.7,455.6L372.7,455.6
						L372.7,455.6c-0.1,0.1-0.2,0.2-0.3,0.2c0,0.1-0.1,0.1-0.2,0.1c0,0-0.1,0.1-0.2,0.1c-0.1,0-0.1,0.1-0.2,0.1c0,0-0.1,0.1-0.1,0.1
						c-0.1,0.1-0.3,0.2-0.5,0.3c-0.1,0.1-0.2,0.1-0.3,0.2c-0.2,0.1-0.4,0.2-0.6,0.4c-0.2,0.1-0.3,0.2-0.5,0.3c0,0-0.1,0-0.1,0.1
						c-0.1,0-0.1,0.1-0.2,0.1c0,0-0.1,0-0.1,0.1c-0.1,0-0.2,0.1-0.3,0.1c-0.1,0-0.1,0.1-0.2,0.1c-0.1,0-0.1,0-0.1,0.1
						c-0.2,0.1-0.3,0.1-0.5,0.2c-0.1,0-0.2,0.1-0.3,0.1c0,0-0.1,0-0.1,0c0,0-0.1,0-0.1,0c0,0,0,0,0,0c-0.2,0.1-0.5,0.2-0.7,0.2
						c-0.2,0.1-0.4,0.1-0.6,0.2c0,0-0.1,0-0.1,0c0,0,0,0,0,0c0,0-0.1,0-0.1,0c-0.2,0.1-0.4,0.1-0.7,0.2c-0.2,0-0.4,0.1-0.6,0.1
						c-0.2,0-0.3,0.1-0.5,0.1c-0.2,0-0.4,0-0.6,0.1c-0.1,0-0.2,0-0.3,0c0,0,0,0,0,0c0,0,0,0,0,0c0,0,0,0,0,0c0,0,0,0-0.1,0
						c-0.1,0-0.2,0-0.3,0c-0.1,0-0.2,0-0.4,0c-0.1,0-0.1,0-0.1,0c0,0-0.1,0-0.1,0c0,0-0.1,0-0.1,0c0,0,0,0,0,0c-0.2,0-0.3,0-0.5,0
						c-0.5,0-1.1,0-1.6-0.1c-0.1,0-0.1,0-0.1,0c-0.1,0-0.2,0-0.3,0c0,0,0,0,0,0c-0.2,0-0.3,0-0.5-0.1c-0.1,0-0.1,0-0.2,0
						c0,0,0,0-0.1,0c-0.1,0-0.2,0-0.3,0c-0.1,0-0.2,0-0.3,0c0,0-0.1,0-0.1,0c-0.1,0-0.2,0-0.3-0.1c0,0,0,0,0,0
						c-0.1,0-0.3-0.1-0.4-0.1c0,0-0.1,0-0.1,0c0,0,0,0,0,0c0,0,0,0,0,0c0,0,0,0-0.1,0c0,0-0.1,0-0.1,0c0,0,0,0,0,0c0,0,0,0-0.1,0
						c-0.1,0-0.3-0.1-0.4-0.1c0,0,0,0-0.1,0c-0.5-0.1-1-0.3-1.4-0.5c-0.1,0-0.1-0.1-0.2-0.1c-0.1-0.1-0.3-0.1-0.4-0.2c0,0,0,0-0.1,0
						c-0.1,0-0.2-0.1-0.2-0.1c0,0-0.1-0.1-0.1-0.1c0,0-0.1,0-0.1-0.1c0,0,0,0,0,0c-0.4-0.2-0.7-0.4-1-0.6c-0.1,0-0.2-0.1-0.2-0.1
						c-0.2-0.1-0.4-0.2-0.6-0.4c-0.1,0-0.1-0.1-0.2-0.1c-0.3-0.2-0.6-0.5-0.9-0.8c-0.1,0-0.1-0.1-0.2-0.1c-0.1-0.1-0.1-0.1-0.2-0.2
						c-0.1-0.1-0.2-0.2-0.3-0.3c-0.1-0.1-0.2-0.2-0.2-0.3 M375.8,451.9C375.8,451.9,375.8,452,375.8,451.9c-0.2,0.3-0.3,0.5-0.4,0.8
						c0,0,0,0-0.1,0.1c0,0,0,0,0,0c0,0,0,0,0,0c0,0,0,0,0,0c-0.2,0.2-0.3,0.5-0.5,0.7c0,0,0,0,0,0c0,0,0,0,0,0
						c-0.1,0.1-0.2,0.2-0.2,0.3c0,0,0,0,0,0.1c-0.1,0.1-0.2,0.2-0.3,0.4c0,0,0,0,0,0.1c-0.2,0.2-0.4,0.4-0.6,0.7
						c0,0-0.1,0.1-0.1,0.1c-0.2,0.2-0.4,0.4-0.6,0.5c0,0,0,0-0.1,0v0c0,0,0,0,0,0 M375.8,451.9C375.8,451.9,375.8,451.9,375.8,451.9
						"/>
					<path class="st35" d="M356.4,433.9c-5.8,1.9-9.9,6.7-9.9,12.3c0,3.3,1.4,6.3,3.8,8.7c2.8,2.8,7,4.6,11.6,4.6
						c6.1,0,11.4-3.1,13.9-7.6c0,0,0,0,0,0c0,0,0,0,0,0c0.7-1.3,1.2-2.6,1.4-4c-1.7,0.6-3.6,0.9-5.5,0.9c-8.5,0-15.4-5.9-15.4-13.2
						C356.3,435,356.3,434.4,356.4,433.9L356.4,433.9z"/>
					<polygon class="st33" points="365.4,464.4 356.5,516.9 299.8,516.9 290.8,464.3 301.7,464.3 306.7,464.3 311.7,464.3 
						316.7,464.3 320.9,464.3 325.9,464.3 335.3,464.3 341.1,464.4 346.2,464.4 351.2,464.4 360.4,464.4 					"/>
					<polygon class="st20" points="325.9,464.3 326.4,516.9 322.6,516.9 320.9,464.3 					"/>
					<polygon class="st20" points="316.7,464.3 319.4,516.9 315.6,516.9 311.7,464.3 					"/>
					<polygon class="st20" points="306.7,464.3 311.8,516.9 308,516.9 301.7,464.3 					"/>
					<polygon class="st20" points="295.8,464.3 303.6,516.9 299.8,516.9 290.8,464.3 					"/>
					<polygon class="st20" points="365.4,464.4 356.5,516.9 352.6,516.9 360.4,464.4 					"/>
					<polygon class="st20" points="356.2,464.4 349.5,516.9 345.7,516.9 351.2,464.4 					"/>
					<polygon class="st20" points="346.2,464.4 341.8,516.9 338,516.9 341.1,464.4 					"/>
					<polygon class="st20" points="335.3,464.3 333.6,516.9 329.8,516.9 330.3,464.3 					"/>
					<polyline class="st18" points="376.8,327.9 376.8,327.9 376.8,327.9 376.8,327.9 376.8,327.9 					"/>
					<polygon class="st36" points="359.1,378.1 358.4,380.9 358.4,380.9 359.1,378.1 359.1,378.1 					"/>
					<polygon class="st37" points="358.4,380.9 357.6,384.3 358.4,380.9 358.4,380.9 					"/>
					<path class="st38" d="M350.6,414.5L350.6,414.5c0.1,0.1,0.2,0.2,0.3,0.3C350.8,414.7,350.7,414.6,350.6,414.5z M354.5,416.6
						C354.5,416.6,354.5,416.6,354.5,416.6c0.1,0,0.1,0,0.1,0C354.5,416.6,354.5,416.6,354.5,416.6z M356.1,416.7
						C356.1,416.7,356.1,416.7,356.1,416.7C356.1,416.7,356.1,416.7,356.1,416.7C356.1,416.7,356.1,416.7,356.1,416.7z M358.2,416.3
						c-0.1,0-0.3,0.1-0.4,0.1C357.9,416.4,358,416.3,358.2,416.3C358.2,416.3,358.2,416.3,358.2,416.3L358.2,416.3
						C358.3,416.3,358.2,416.3,358.2,416.3z M358.5,416.2C358.5,416.2,358.5,416.2,358.5,416.2L358.5,416.2
						C358.5,416.2,358.5,416.2,358.5,416.2z M358.6,416.2C358.6,416.2,358.6,416.2,358.6,416.2C358.6,416.2,358.6,416.2,358.6,416.2
						c0,0,0.1,0,0.2-0.1C358.8,416.1,358.7,416.1,358.6,416.2z M359.7,415.7C359.7,415.7,359.7,415.7,359.7,415.7
						C359.8,415.7,359.8,415.7,359.7,415.7C359.8,415.7,359.7,415.7,359.7,415.7z M360,415.6C359.9,415.6,359.9,415.6,360,415.6
						C359.9,415.6,359.9,415.6,360,415.6c0.1,0,0.2-0.1,0.2-0.1C360.1,415.6,360,415.6,360,415.6z M360.8,415.2
						C360.8,415.2,360.8,415.2,360.8,415.2l0.4-1.2L360.8,415.2z"/>
					<path class="st31" d="M355.9,416.7L355.9,416.7c-0.1,0-0.2,0-0.3,0c-0.1,0-0.2,0-0.3,0h0c0.1,0,0.2,0,0.3,0
						C355.6,416.7,355.7,416.7,355.9,416.7L355.9,416.7z"/>
					<polyline class="st18" points="302.3,382.3 302.3,382.3 302.3,382.3 					"/>
					<path class="st39" d="M303.6,388L303.6,388c0,0.1-0.1,0.3-0.1,0.4C303.5,388.3,303.6,388.1,303.6,388L303.6,388z"/>
					<path class="st40" d="M302.3,382.3c0.5,1.1,0.9,2.3,1.1,3.1c0.2,1.2,0.3,1.9,0.2,2.5l0,0c0.1-0.6,0-1.3-0.2-2.5
						C303.2,384.6,302.9,383.5,302.3,382.3L302.3,382.3z"/>
					<path class="st18" d="M301.5,390.8c0.1-0.1,0.3-0.2,0.4-0.4 M303.5,388.4C303.5,388.4,303.5,388.4,303.5,388.4
						c-0.1,0.2-0.2,0.4-0.3,0.6c0,0,0,0.1-0.1,0.1c-0.1,0.1-0.1,0.2-0.2,0.2 M281.5,386.2c0,0.1,0,0.2,0,0.3L281.5,386.2
						L281.5,386.2z M281.6,387.9c0-0.1,0-0.2,0-0.3c0,0.2,0,0.4,0.1,0.6C281.6,388.1,281.6,388,281.6,387.9z"/>
					<path class="st18" d="M283.3,393.6C283.3,393.6,283.3,393.6,283.3,393.6C283.3,393.6,283.3,393.6,283.3,393.6
						C283.3,393.6,283.3,393.6,283.3,393.6C283.3,393.6,283.3,393.6,283.3,393.6"/>
					<path class="st18" d="M334.2,385.2L334.2,385.2"/>
					<polyline class="st18" points="356,386.5 356,386.5 356,386.5 356,386.5 356,386.5 					"/>
					<path class="st18" d="M356,386.2C356,386.2,356,386.2,356,386.2c0,0.1,0,0.2,0,0.3c0,0,0,0,0,0C356,386.4,356,386.3,356,386.2"
						/>
					<path class="st40" d="M354.4,393.5c-0.4,0.5-1.2,1-2,1.4C353.2,394.5,353.9,394,354.4,393.5
						C354.4,393.5,354.4,393.5,354.4,393.5L354.4,393.5z"/>
					<g>
						<path class="st9" d="M353.7,387.6c0,0,0.1,4.1-1.2,6c-1.3,1.8-6.8,2.9-7.7,1.1c-3.6,0.4-4.1-1.2-4.1-1.2s-3,0.2-2.7-1.9
							c-1.9-1.7-1.9-2-1.5-4.2c0.4-2.2,2.6-6.2,4.8-7.3c2.3-1.2,5.1-1.9,9,2.2C353.8,385.7,353.7,387.6,353.7,387.6L353.7,387.6z"/>
						<path class="st10" d="M344.8,394.7c0.4-0.7,1-1.5,1.8-2.3c0.9-0.9,1.9-1.5,2.6-1.9c-0.5,0.7-1.1,1.5-2,2.4
							C346.4,393.7,345.5,394.3,344.8,394.7z"/>
						<path class="st10" d="M347,387.4c-1.2,1-2.4,2-3.6,3.2c-1,1-1.9,2-2.7,2.9c0.3-0.9,1-2.2,2.3-3.6
							C344.5,388.4,346.1,387.7,347,387.4z"/>
						<path class="st10" d="M344.2,383.8c-1.1,0.9-2.5,2.1-3.8,3.8c-1.1,1.5-1.9,2.9-2.5,4c0.2-0.9,0.6-2.7,2-4.5
							C341.5,385.1,343.3,384.2,344.2,383.8z"/>
					</g>
					<g>
						<path class="st9" d="M286.4,387.6c0,0-0.1,4.1,1.2,6c1.3,1.8,6.8,2.9,7.7,1.1c3.6,0.4,4.1-1.2,4.1-1.2s3,0.2,2.7-1.9
							c1.9-1.7,1.9-2,1.5-4.2c-0.4-2.2-2.6-6.2-4.8-7.3c-2.3-1.2-5.1-1.9-9,2.2C286.3,385.7,286.4,387.6,286.4,387.6L286.4,387.6z"
							/>
						<path class="st10" d="M295.3,394.7c-0.5-0.7-1.2-1.5-2.1-2.3c-0.8-0.8-1.6-1.4-2.3-1.9c0.5,0.7,1.2,1.6,2.1,2.4
							C293.8,393.7,294.6,394.3,295.3,394.7z"/>
						<path class="st10" d="M293.1,387.4c0.9,1.3,2,2.3,3,3.2l1.6,1.4c0.5,0.5,1.1,0.9,1.6,1.5c-0.3-0.5-0.7-1.1-1.2-1.9
							c-0.6-0.7-1.1-1.1-1.7-1.6C295.6,389.4,294.5,388.4,293.1,387.4z"/>
						<path class="st10" d="M295.9,383.8c1,1.5,2.2,2.7,3.3,3.9c0.6,0.6,1.1,1.2,1.6,1.8c0.5,0.6,1,1.3,1.4,2.1
							c-0.4-1.1-1-2.5-2.1-3.9C298.6,385.7,297,384.5,295.9,383.8z"/>
					</g>
				</g>
			</g>
			<g>
				<path class="st41" d="M408.7,287.2c0,0,10.2,8.1,21-6.4c10.8-14.4,4.8-46.9,5.3-66.6s19.4-54,19.4-54s-16.5,26.2-16.8,64.6
					s2.2,49.4-3.7,59.5S410.1,291.5,408.7,287.2z"/>
				<path class="st41" d="M430.4,205.4c0,0,6.4,24.7-1.5,48.7c-7.9,24-16.5,26.8-16.5,26.8s11.8,7.1,15.8-8.4
					C432.3,256.9,437.6,226.5,430.4,205.4z"/>
				<path class="st41" d="M441.8,225.7c-1.7,24.5-2,52.8-5,63.1c-2.9,10.3-16.9,5.6-16.9,5.6s18.9,18.3,23.7-4.7
					C448.4,266.7,441.8,225.7,441.8,225.7z"/>
			</g>
			<path class="st3" d="M239.7,276.7c-2.6-20.9,12.9-37.1,33.8-35.8c6.2,0.4,12.3,2.4,17.6,5.7c-5.6-2.5-11.6-4-17.7-4.1
				C253.1,242.2,239.8,256.5,239.7,276.7L239.7,276.7z"/>
			<path class="st3" d="M371.3,232.6c12.5,7.7,16.9,24.2,8.4,36.5c-2.6,3.8-6.2,7-10.3,9c5.6-4.2,10-9.9,11.8-16.6
				C384.1,250.7,379.4,239.9,371.3,232.6L371.3,232.6z"/>
		</g>
		<linearGradient id="SVGID_1_" gradientUnits="userSpaceOnUse" x1="246.6001" y1="326.4238" x2="391.0229" y2="326.4238">
			<stop  offset="0.4118" style="stop-color:#E3F4FF"/>
			<stop  offset="0.7063" style="stop-color:#E1F3FF"/>
			<stop  offset="0.8516" style="stop-color:#D9F0FF"/>
			<stop  offset="0.9639" style="stop-color:#CCEAFF"/>
			<stop  offset="1" style="stop-color:#C6E7FF"/>
		</linearGradient>
		<path class="st42" d="M391,398c-9.5,3.6-18.9,7.3-28.4,10.9c-0.2-0.1-0.4-0.1-0.5-0.2c-1.9-0.7-3.6-1.7-4.9-2.8
			c-11.9,0-23.8,0-35.8,0c-12.9,0-25.8,0-38.7,0c-0.7,1-1.4,2.1-2.1,3.1c-11.3-3.6-22.6-7.3-34-10.9c0-51.4,0-102.7,0-154.1H391V398
			z"/>
		<g>
			<path class="st23" d="M242.6,398V243.9v-2.2c4.2-1.9,8.7-3.8,13-5.1c36.3-10.9,80.6-11.8,117.3-2.8c6.1,1.6,12.2,3.4,18.1,6.1
				c0,0,4,1.8,4,1.8s0,2.2,0,2.2s0,154.1,0,154.1s-8,0-8,0V243.9c0,0,4,4,4,4c-5.8,2.7-11.9,4.4-18.1,6.1
				c-29.6,7.3-60.2,7.6-90.3,3.4c-12.2-1.9-24.6-4.6-36.1-9.4c0,0,4-4,4-4V398H242.6L242.6,398z"/>
		</g>
		<g>
			<polygon class="st20" points="375.6,331.8 387.3,293.6 408.7,288.2 404,300.1 397.3,298.9 383.5,334.2 375.6,331.8 			"/>
			<polygon class="st21" points="392,292.4 387.3,293.6 381.3,313.1 376.8,327.9 378.7,328.9 378.7,328.9 384.4,331.8 385.5,328.9 
				381.2,327.6 392,292.4 			"/>
			<polygon class="st21" points="398.9,294.8 397.3,298.9 404,300.1 405.9,295.3 398.9,294.8 			"/>
			<path class="st20" d="M350.3,414.2l21.4-88.9l18.1,9.3l-29.1,80.5C360.8,415.2,354.4,419.2,350.3,414.2L350.3,414.2z"/>
			<path class="st21" d="M371.8,325.3l-12.7,52.8l-0.7,2.8l-0.8,3.4l-7.2,29.9c1.5,1.8,3.2,2.4,4.9,2.5c0.1,0,0.2,0,0.3,0
				c0.1,0,0.2,0,0.3,0c2.7-0.1,5-1.5,5-1.5l0.7-2c-0.9-0.4-1.9-1-2.7-2l19.9-82.3l-1.9-1l0,0L371.8,325.3L371.8,325.3z"/>
		</g>
	</g>
	<g>
		<path class="st3" d="M281.3,195.8c9.3,11.2,22.7,18.8,37.2,20.1c4.8,0.5,9.7,0.4,14.5-0.3C314,221.7,291.3,213,281.3,195.8
			L281.3,195.8z"/>
		<path class="st3" d="M201.9,286.2c-11.8,8.4-15.7,22.5-9.2,35.6C183.2,310.1,188.1,292,201.9,286.2L201.9,286.2z"/>
	</g>
</g>
</svg>
