<?xml version="1.0" encoding="utf-8"?>
<!-- Generator: Adobe Illustrator 26.0.1, SVG Export Plug-In . SVG Version: 6.00 Build 0)  -->
<svg version="1.1" id="Layer_1" xmlns="http://www.w3.org/2000/svg" xmlns:xlink="http://www.w3.org/1999/xlink" x="0px" y="0px"
	 viewBox="0 0 700 634" style="enable-background:new 0 0 700 634;" xml:space="preserve">
<style type="text/css">
	.st0{fill:#FFD7DC;}
	.st1{fill:#FFEEF1;}
	.st2{fill:#D8989D;}
	.st3{fill:#FFFFFF;}
	.st4{fill:#63010B;}
	.st5{fill:#B26426;}
	.st6{fill:#FAD4AF;}
	.st7{fill:#EFB78E;}
	.st8{fill:#191513;}
	.st9{fill:none;stroke:#F8AE38;stroke-width:2.1813;stroke-miterlimit:10;}
	.st10{fill:#9F0102;}
	.st11{fill:#F8AE38;}
	.st12{fill:#E09D6C;}
	.st13{fill:#F2B069;}
	.st14{opacity:0.16;fill:#6A5D55;}
	.st15{fill:none;}
	.st16{fill:#FFAD42;}
	.st17{fill:#FB8E21;}
	.st18{fill:#4F352D;}
	.st19{opacity:0.15;}
	.st20{fill:#F7BAB0;}
	.st21{fill:#BC956B;}
	.st22{fill:#84030A;}
	.st23{fill:#141312;}
	.st24{fill:#060534;}
</style>
<g>
	<g>
		<path class="st0" d="M500.4,84.4c8.8,9.4,17.1,20.4,22.6,31.6c11.5,23.5,12.4,57,9,82.6c-2.4,17.7-12.8,42.3-7.7,60.2
			c6.9,24.3,43.3,23.3,61,29.4c16.3,5.6,31.8,19.3,40.1,36.1c25.5,51.3-5.2,78.8-20.5,101.8c-17.4,26.1,20.6,57.6-1.3,83.7
			c-22.8,27.2-50.3,38.5-96,38.5c-90.4,0-110.7,7.9-236-2c-23.7-1.9-55.4-7.9-79-10.7C156.9,531.3,68.8,497,91.8,432
			c17-48.1,106.3-40.7,76.4-106.4c-19.6-43-56.4-102.6-10.6-140.6c33.2-27.6,54.5-43.4,73.8-85.1c21.1-45.6,50.7-70.4,97.4-74.7
			c25.2-2.4,50.8-2.1,75.6,4.1c30.3,7.6,60.2,22.1,84.4,43.7C492.7,76.6,496.6,80.4,500.4,84.4z"/>
		<g>
			<path class="st1" d="M186.9,382.7c-0.4-4.9-0.5-9.7,0.4-14.6c1.8-10.1,6.5-19.8,12.7-27.9c5.8-7.7,11.3-12.2,19.3-17.8
				c10.9-7.6,24.8-9.3,37.8-10.1c10.1-0.6,20.4-0.5,30.5,0c3.9,0.2,7.7,0.5,11.6,0.7c1.7,0.1,3.3-0.3,4.9,0.4
				c-2,0.9-3.9,2.8-5.7,4.3c-4.5,4.1-7.9,9.9-11.5,14.8c-4.4,6.1-8.2,12.5-13,18.5c-8.4,10.4-20.9,19.2-34.4,21.3
				c-12.3,1.9-26.3-1.2-37.7,4.8c0,0-11.4,6.1-13.2,27L186.9,382.7z"/>
			<path class="st1" d="M164.7,322c-12.8-13.8-33.3-16.1-49.9-23.3c-10.9-4.8-22.6-12-29.9-21.7c2.5,13.1,0.7,27.2,2.3,40.6
				c1.4,12.3,6.6,23.3,15.6,31.9c17.1,16.5,45,11,60.8,29.2c7.2,8.3,9.8,21.1,12.4,30.7c0.1-10.3,1.2-22.4,1.4-26.1
				C177.4,383.3,182.6,341.2,164.7,322z"/>
			<path class="st2" d="M185.4,347c2.9-11.2,12.6-24.4,21-32.1c9-8.2,19.9-10.1,30.2-15.6c5.5-2.9,10-6.9,11.8-13.1
				c4.9-17.1-0.6-35.4-1.6-52.6c-0.6-9.7-1.2-18.8,2.1-27.7c-0.5,1.4-7.3,4.4-8.7,5.4c-2.7,1.8-5.2,3.8-7.9,5.6
				c-12.7,8.4-27,13.8-37,25.8c-8.7,10.2-14.4,23.4-17.4,36.4c-1.6,7.1-2.6,14.5-2.8,21.7c-0.3,9.7,0.8,20.3,3.2,29.7
				c2.2,8.7,2,21.7,3.7,30.4L185.4,347z"/>
			<path class="st3" d="M210.9,267.4c-5.3,12.1-10.8,25.2-15.4,37.8c-4.5,12.6-8.1,24.6-9.5,34.6l0,0c-2.9,17.9-2.9,37.4-2.9,56.2
				c0,7.2,0.7,120.2,0.7,126.8c0,0.8-0.6,1.4-1.4,1.4c-0.8,0-1.4-0.6-1.4-1.4c0-6.5-0.7-119.5-0.7-126.8c0-18.8,0-38.4,2.9-56.7
				l1.4,0.2l-1.4-0.2c1.5-10.3,5.1-22.5,9.6-35.1c4.6-12.7,10.1-25.8,15.4-37.9c0.3-0.7,1.1-1,1.8-0.7
				C210.9,265.9,211.2,266.7,210.9,267.4z"/>
			<path class="st3" d="M251.3,334.1c-10.3,1.6-21.6,4.4-31.5,9.2c-9.9,4.8-18.3,11.7-23,21.6c-3,6.3-5.3,14.1-6.1,21
				c-0.1,1.2-0.3,4.1-0.4,8.1c-0.3,12-0.4,34.7-0.4,57.6c0,32.3,0.2,65.3,0.2,70.8c0,0.8-0.6,1.4-1.4,1.4c-0.8,0-1.4-0.6-1.4-1.4
				c0-5.5-0.2-38.6-0.2-70.8c0-15.3,0-30.5,0.2-42.5c0.1-6,0.1-11.2,0.2-15.2c0.1-4,0.2-6.9,0.4-8.3c0.9-7.3,3.3-15.3,6.4-21.9
				c5-10.6,14-17.9,24.3-22.8c10.3-5,21.8-7.8,32.3-9.4c0.7-0.1,1.4,0.4,1.6,1.1C252.6,333.3,252.1,334,251.3,334.1L251.3,334.1z"/>
			<path class="st3" d="M174.7,522.7c0-4.2,0-15.9,0-31.1c0-20-0.1-46-0.4-68.3c-0.2-11.2-0.4-21.4-0.8-29.5
				c-0.2-4.1-0.4-7.6-0.6-10.4c-0.2-2.8-0.5-5-0.7-6.2c-3.2-14.9-10.4-28.5-21.6-39.2c-11.2-10.7-26.5-18.7-46-22.2
				c-0.7-0.1-1.2-0.8-1.1-1.6c0.1-0.7,0.9-1.2,1.6-1.1c19.9,3.7,35.8,11.8,47.4,23c11.6,11.1,19.1,25.2,22.4,40.6
				c0.3,1.5,0.6,3.7,0.8,6.6c0.8,10.1,1.3,28.4,1.5,48.6c0.3,20.2,0.3,42.3,0.3,59.8c0,15.2,0,26.9,0,31.1c0,0.8-0.6,1.4-1.4,1.4
				C175.3,524.1,174.7,523.5,174.7,522.7z"/>
		</g>
		<g>
			<g>
				<path class="st1" d="M237.9,497c-4.7-0.4-9.4,1.3-8.9,6.7c-11.2-4.1-18.7,6-18.7,13.4h270.5c10.7-12.6-7.5-36.4-20.7-29.8
					c2.3-8.3-5.7-13.6-10.9-11.3c0.7,0.5-2.8-11.2-13.7-6.7c0.3-11.5-9.2-14.7-18-9.1c-1.2-9.5-14.6-18.1-20.8-7.4
					c0.2-14.4-18.8-16.7-21.5-2.2c-3.9-4.2-9.3-1-9.9,4.2c-3.5-4.7-7.5-4.2-10.7,0.2c9.4-23.7-26.6-30.9-28.1-9.1
					c-5.6-9.2-17.7-3.5-15.4,5.5c-5.1-4.6-13.2-2.4-12.3,5.6c-7.2-7.6-25.4-8-26.6,8c-4.2-4.7-9.9-3.3-11.1,3.2
					c-6.3-0.8-11.3,1.9-10,8.9c-2.9,0.2-7-0.1-8.1,7.1C243,484.2,233.3,486.5,237.9,497z"/>
				<path class="st1" d="M595.3,517.2c4.8-18.4-23.1-28.7-30.6-10.6c0.4-6.7,2.7-14.3-5.6-18.2c-8.2-3.9-14.3,2.9-17.8,8.7
					c9.4-15.8,5.2-35.4-16.3-40.7c-23-5.7-34.3,6.1-34.8,29.9c-1.6-10.9-21.7-13.3-22.8,2.2c-8.4-2.9-9.7-11.2-21.5-10.2
					c-10.4,1-15.3,7.6-19.3,16.9c0,0-23.9,0.8-18.4,21.8H595.3z"/>
			</g>
		</g>
		<path class="st2" d="M111.6,531.1c0,17.3,115.6,31.3,258.2,31.3c142.6,0,258.2-14,258.2-31.3c0-17.3-115.6-31.3-258.2-31.3
			C227.2,499.8,111.6,513.8,111.6,531.1z"/>
		<g>
			<g>
				<g>
					<g>
						<path class="st2" d="M322.5,82.4c0,0,0,0,0,0.1l0,0c0,0,0,0.1,0,0.1L322.5,82.4z"/>
					</g>
				</g>
			</g>
		</g>
	</g>
	<g>
		<g>
			<g>
				<path class="st4" d="M465.4,486.9c4.9-6.7,5.9-15.4,2.4-22.4c-4.3-8.8-14.9-13.7-25.4-11.1c-17.8,4.8-39.9,9.1-65.3,10.6
					c-35.9,2.1-66.5-2-89.2-6.9c-14.3-1.3-25.9,7-27.7,16.9c-1.5,8.6,4.7,15.8,5.8,17c20.2,6.4,46.6,12.5,77.8,14.1
					C396.4,507.7,438.9,496.4,465.4,486.9z"/>
				<g>
					<g>
						<g>
							<path class="st5" d="M269.9,290.7c22.9-1.2,47.5-3.3,73.4-6.7c27.7-3.6,53.5-8.1,77.3-13.2c-13.3-5.3-37.7-12.9-68.4-10.7
								C310.7,263.1,281.8,281.9,269.9,290.7z"/>
							<polygon class="st6" points="367.4,352 340.4,355 339.6,333.1 339.2,323.1 361.4,320.6 363.2,329.9 							"/>
							<g>
								<g>
									<path class="st6" d="M372.8,292.9c0.6-2.5,3.8-5.2,5.4-4.5c1.6,0.7,2.9,4.8,2.5,7.5c-0.3,2.7-2.2,7.8-3,8.8
										c-0.8,1-3.7,3.3-5.8,3L372.8,292.9z"/>
									<path class="st7" d="M373.5,291.3c-0.3,0.5-0.6,1-0.7,1.6l-0.8,14.9c1.3,0.2,3-0.7,4.2-1.6L373.5,291.3z"/>
									<path class="st6" d="M321.2,298.7c-1.1-2.3-4.9-4.2-6.3-3.1c-1.4,1-1.7,5.3-0.8,7.9c0.9,2.6,3.9,7.1,4.9,7.9
										c1,0.8,4.4,2.4,6.3,1.7L321.2,298.7z"/>
									<path class="st7" d="M320.2,297.3c0.4,0.4,0.8,0.9,1,1.4l4.1,14.4c-1.2,0.5-3.1,0-4.5-0.6L320.2,297.3z"/>
								</g>
								<path class="st7" d="M363.2,329.9c-2.3,2.9-6,6.4-11.1,6.9c-4.5,0.5-8.4-1.5-9.7-2.1c-1-0.5-1.9-1.1-2.8-1.6l-0.4-10
									l22.2-2.5L363.2,329.9z"/>
								<path class="st6" d="M341.8,249.7c-24.8,2.8-26.8,20.1-25.7,29.7c0.4,4,1,7.9,1.9,11.9c1.1,5.3,2.5,11.8,6,19.5
									c1.9,4.3,3,6.8,5.5,9.8c1.7,2.1,4.7,4.4,10.7,8.9c2.4,1.8,4.3,3.1,7,3.5c1.8,0.3,3.7,0,4.3-0.1c0.7-0.1,2.6-0.3,4.3-1.1
									c2.5-1.1,3.8-2.8,5.4-4.7c0.5-0.6,1.7-1.9,5.8-7.1c1.4-1.8,2.1-2.7,2.3-2.9c2.6-3.7,3.1-7.6,3.5-11.8
									c1-9.9,1.6-14.9,1.5-20.3c-0.1-4.2-0.3-8.1-0.8-12.1C372.4,263.4,366.6,246.9,341.8,249.7z"/>
								<path class="st8" d="M341.4,245.8c2.7-2.2,6.2-3.1,9-3.1c2.9,0,14.1,3.6,18.6,6.8c4.5,3.2,8.6,10.4,9.6,18.6
									c1,8.2-1.1,19.8-1.3,20.3c-0.3,0.5-3.1,3.8-3.1,3.8s-0.6-4.3-0.8-4.6c-0.2-0.3-2-3.1-2.5-3.4c-0.5-0.3-0.2-2.3-0.3-2.9
									c-0.1-0.5-0.7-2.7-1.9-4.1c-0.8,3.3-2.2,6.2-2.8,6.2c-0.4,0-1.6-1.6-3-3.5c-2.6-3.6-3.3-5-4.5-6.3c0.1,0.7-1.2,7.2-2,7.3
									c-0.8,0.1-2.3-4.3-3.6-7.3c-1.3-3-4.3-7.6-4.7-7.5c-0.4,0.1-3.9,3.1-3.9,3.1s-4.1-2.1-4.5-2.1c-0.4,0-2.3,5.2-2.9,8.4
									c-0.6,3.2-1.1,7.9-1.9,7.9c-0.8,0.1-3.5-5.9-3.5-6.7c-0.8,1.6-1.2,3-3,7.2c-0.9,2.2-1.8,4-2.2,4.1c-0.6,0.2-2.6-2.4-4.1-5.4
									c-0.9,1.7-1,3.8-1,4.4c0,0.6,0.7,2.5,0.3,2.9c-0.4,0.4-1.6,3.5-1.6,3.9c-0.1,0.4,0.2,4.7,0.2,4.7s-3.5-2.6-3.9-3
									c-0.4-0.4-4.9-11.2-5.8-19.5c-0.9-8.2,1.5-16.2,5.2-20.3c3.6-4.1,13.8-10.1,16.6-10.8C334.7,244.2,338.2,244.2,341.4,245.8z
									"/>
							</g>
							<path class="st9" d="M333.8,334.5"/>
							<g>
								<path class="st10" d="M425.9,427.5c-1.7,1.2-5.4,1.5-14.9-4.9c-1.7-5.8-3.5-11.5-5.2-17.3c0.6,19.6,1.3,39.2,1.9,58.9
									c-10.6,2.6-23.4,4.9-37.9,5.7c-21.2,1.2-39.4-1.2-53.2-4c0.6-9.2,0.9-18.9,0.9-29.2c0-9.8-0.4-19.1-0.9-27.9
									c-1.9,0.9-13.5,6.2-21.2,3.3c-1.7-0.6-8.7-2.2-8.8-5.1c0,0,0-1.4,0-1.4c0.3-9.5,3.1-19.1,4.2-29.7
									c0.4-4.4,1.3-11.6,6.4-18.4c1.2-1.6,2.6-3.1,3.9-4.3c1-0.9,2-1.7,3-2.4c2.6-1.8,5-3,6.8-3.7l23.9-8l-1.1-8.5
									c12.9-0.1,18.2,4.8,19.2,6.9c0.8-2.2,4.1-8.3,18.3-8.9l1.5,8.9l22.9,5c11.3,2.5,19.8,11.9,21,23.4c0.2,1.4,0.3,2.3,0.4,3
									C418.8,394,432.5,422.6,425.9,427.5z"/>
								<line class="st9" x1="352.8" y1="337.4" x2="359.8" y2="467.5"/>
								<line class="st9" x1="345.8" y1="368.3" x2="363.9" y2="367.4"/>
								<line class="st9" x1="347.2" y1="403.3" x2="365.3" y2="402.3"/>
								<line class="st9" x1="349.3" y1="441.3" x2="367.4" y2="440.3"/>
								<path class="st11" d="M352.8,338.9c-1.3-1.2-3.9-3.3-7.8-4.4c-5-1.4-9.2-0.4-10.9,0.1l-0.5-4.1c0,0,15-1.6,19.2,6.9
									L352.8,338.9z"/>
								<path class="st11" d="M352.8,338.9c0,0,6-9.3,18.4-6.4l-0.2-4c0,0-15.1,0-18.3,8.9L352.8,338.9z"/>
							</g>
							<g>
								<g>
									<path d="M327.8,298c1.9-6.1,10.4-7.7,14.6-3c0,0-1.1,1.1-1.1,1.1C337,291.9,330.9,293.3,327.8,298L327.8,298z"/>
								</g>
							</g>
							<g>
								<g>
									<path d="M367.1,295.1c-3.4-4.3-10.5-4.2-13.5,0.5c0,0-1.3-0.9-1.3-0.9c2.4-3.9,8.1-5.2,12-2.7
										C365.5,292.7,366.5,293.8,367.1,295.1C367.2,295,367.1,295.1,367.1,295.1L367.1,295.1z"/>
								</g>
							</g>
							<path class="st12" d="M346,320.3c0.2,0.9,3.1,0.7,4.2,0.6c0.8-0.1,3.2-0.4,3.3-1.2c0.1-0.8-1.7-2-3.5-2
								C347.9,317.7,345.8,319.5,346,320.3z"/>
							<g>
								<path class="st12" d="M345.8,313c1.9-1.2,4.2-1.5,6.3-0.8C350.2,313.4,347.9,313.7,345.8,313L345.8,313z"/>
							</g>
							<path id="XMLID_00000070815543487633435930000006464177381943694993_" class="st13" d="M269.9,290.7c0,0,25.7-14.6,62.1-19.8
								c56.6-8.1,88.5,0,88.5,0l-81.9-36.6L269.9,290.7z"/>
							<path id="XMLID_00000152957595572751597910000001439900333252436651_" class="st14" d="M341.1,238.7
								c11.3,8.5,21.1,18.1,29.6,28.8c32.3-1,49.9,3.4,49.9,3.4l-81.9-36.6l-2.2,1.8C338,236.9,339.5,237.8,341.1,238.7z"/>
							<g>
								<path d="M355.7,301.5C355.6,301.5,355.6,301.5,355.7,301.5c-0.3-0.1-0.5-0.2-0.7-0.2c0.1-0.3,0.3-0.7,0.6-1.1
									c0.1-0.1,0.4-0.5,0.8-0.8c0.5-0.4,1-0.5,2.5-0.8c2-0.4,2.1-0.5,2.7-0.4c0.7,0.2,1.6,0.6,1.6,1.1c0,0.2-0.1,0.3-0.3,0.5
									c-0.5,0.7-1.3,0.9-1.3,0.9c0,0.1,1.1,0.1,1.9-0.6c0.5-0.4,0.7-1,0.8-1.3c0.3,0,0.8,0,1.3,0c0.7,0,0.9,0.1,1,0
									c0-0.1-1.2-0.6-2.4-1c-0.5-0.1-1.2-0.3-2.2-0.3c-0.4,0-1,0-2.6,0.3c-0.8,0.1-1.9,0.4-3.2,0.7c-0.4,0.3-1.1,0.8-1.7,1.6
									c-0.7,0.9-1.2,1.8-1.1,1.9c0.1,0.1,0.3-0.3,0.8-0.4c0.2-0.1,0.2,0,0.6-0.1C355.2,301.8,355.7,301.6,355.7,301.5z"/>
								<path d="M360.9,298.2c0.1,0.2,0.3,0.5,0.3,0.9c0.1,0.9-0.5,1.6-0.6,1.7c-0.6,0.6-1.3,0.6-1.7,0.7c-0.3,0-0.8,0.1-1.4-0.2
									c-0.3-0.1-0.8-0.4-1-1c-0.2-0.6,0-1.2,0-1.3c0.5-0.2,1.1-0.3,1.7-0.4C359.2,298.4,360.1,298.3,360.9,298.2z"/>
							</g>
							<g>
								<path d="M339.9,302.8C339.9,302.7,339.9,302.7,339.9,302.8c0.3-0.2,0.4-0.3,0.6-0.4c-0.2-0.3-0.4-0.6-0.8-0.9
									c-0.1-0.1-0.5-0.4-1-0.6c-0.6-0.3-1.1-0.2-2.6-0.2c-2,0.1-2.2,0-2.7,0.2c-0.6,0.3-1.4,0.9-1.3,1.5c0,0.2,0.2,0.3,0.4,0.4
									c0.7,0.6,1.5,0.5,1.5,0.6c0,0.1-1,0.3-2-0.1c-0.6-0.3-0.9-0.8-1.1-1.1c-0.3,0.1-0.7,0.2-1.3,0.3c-0.7,0.2-0.9,0.3-0.9,0.2
									c-0.1-0.1,1-0.9,2.1-1.5c0.4-0.2,1.1-0.6,2.1-0.8c0.4-0.1,1-0.2,2.6-0.3c0.8,0,1.9-0.1,3.2,0c0.5,0.2,1.2,0.6,2,1.2
									c0.9,0.7,1.6,1.5,1.5,1.6c-0.1,0.1-0.3-0.2-0.9-0.2c-0.2,0-0.2,0-0.6,0.1C340.4,302.9,339.9,302.8,339.9,302.8z"/>
								<path d="M334.1,300.7c-0.1,0.2-0.2,0.5-0.1,1c0.1,0.9,0.9,1.4,1,1.5c0.7,0.4,1.4,0.3,1.8,0.3c0.3,0,0.8-0.1,1.3-0.5
									c0.2-0.2,0.7-0.5,0.8-1.1c0.1-0.6-0.2-1.1-0.3-1.2c-0.6,0-1.2,0-1.8,0C335.8,300.5,334.9,300.5,334.1,300.7z"/>
							</g>
							<polyline class="st15" points="338.9,326.9 338.9,326.4 338.8,325.5 338.8,325 338.8,324.6 							"/>
						</g>
					</g>
					<g>
						<g>
							<polygon class="st16" points="422.9,316.3 359.9,324.1 359.3,319.3 422.3,311.5 							"/>
							<polygon class="st17" points="426.4,315.9 422.9,316.3 422.8,315.4 422.3,311.5 425.9,311.1 							"/>
							<path class="st17" d="M341.5,323l8.7,0l0.4,0.7c1.4,1.6,4.2,1,6.3,0.7l3.1-0.4l-0.6-4.8l-17.9,2.2L341.5,323z"/>
							<path class="st18" d="M369.2,319.4c0,0.3-0.9,0.7-2.1,0.9c-1.2,0.1-2.2,0-2.2-0.3c0-0.3,0.9-0.7,2.1-0.9
								C368.1,318.9,369.2,319,369.2,319.4z"/>
							<path class="st18" d="M378.8,318.2c0,0.3-0.9,0.7-2.1,0.9c-1.2,0.1-2.2,0-2.2-0.3c0-0.3,0.9-0.7,2.1-0.9
								C377.7,317.7,378.7,317.9,378.8,318.2z"/>
							<path class="st18" d="M388.3,317c0,0.3-0.9,0.7-2.1,0.9c-1.2,0.1-2.2,0-2.2-0.3c0-0.3,0.9-0.7,2.1-0.9
								C387.3,316.5,388.3,316.7,388.3,317z"/>
							<path class="st18" d="M397.9,315.8c0,0.3-0.9,0.7-2.1,0.9c-1.2,0.1-2.2,0-2.2-0.3c0-0.3,0.9-0.7,2.1-0.9
								C396.9,315.3,397.9,315.5,397.9,315.8z"/>
							<path class="st18" d="M407.5,314.7c0,0.3-0.9,0.7-2.1,0.9c-1.2,0.1-2.2,0-2.2-0.3c0-0.3,0.9-0.7,2.1-0.9
								C406.4,314.2,407.5,314.3,407.5,314.7z"/>
							<path class="st18" d="M417.1,313.5c0,0.3-0.9,0.7-2.1,0.9c-1.2,0.1-2.2,0-2.2-0.3c0-0.3,0.9-0.7,2.1-0.9
								C416,313,417,313.1,417.1,313.5z"/>
							<path class="st19" d="M426.4,315.9l-3.6,0.4l-63,7.7l-3.1,0.4c-2.1,0.3-4.9,0.9-6.3-0.7l-0.4-0.7l0.9-0.1l8.7,0.2l62.9-7.7
								l3.6-0.4L426.4,315.9z"/>
						</g>
						<g>
							<path class="st6" d="M428.2,319.1c-0.2,0.8-1.2,1.2-2,1.5c-0.2,0.1-0.5,0.2-0.7,0.3c-1.9,0.8-3.1,2.6-4,4.6c0,0,0,0,0,0
								c-0.3,0.7-0.6,1.4-0.8,2.1l-0.1,0.3l0,0.1c-0.7,2.2-2.4,3.9-4.1,5.4c-0.1,0.1-0.2,0.2-0.4,0.3c-0.2,0.1-0.6,0.5-0.6,0.6
								c0,0,0,0,0,0c0,0,0,0.1,0,0.2c0,0,0,0,0,0.1c0,0.3,0.1,0.9,0.1,1.5c0.1,1.7,0.3,4.2,0.4,5.3c0,0,0,0.1,0,0.1
								c0,0.3,0.1,0.7,0.2,1c0,0,0,0,0,0c0,0.6,0,1.2,0,1.5c0,1,0.4,1.9,0.7,2.7l-13.4,6l-0.1-5.8l0-4.5c0,0,0,0,0,0
								c-0.1-1.4-0.5-2.6-1-3.8c-0.3-0.7-0.6-1.4-1-2.1c-0.1-0.2-0.2-0.4-0.3-0.6c-0.2-0.3-0.3-0.7-0.5-1c-0.2-0.5-0.4-0.9-0.6-1.4
								c-1.5-3.7-3-7.6-2.7-11.5c0-0.1,0-0.1-0.1-0.2c-0.7-0.5-1.4-1.6-1.9-2.4c-0.1-0.2-0.2-0.3-0.3-0.5c-0.5-0.8-0.7-2.1-0.1-2.9
								c0.3-0.4,0.7-0.7,1.2-0.9c0,0,0.1,0,0.1,0c0,0,0,0,0.1,0c0.1,0,0.1-0.1,0.2-0.1c0.2-0.1,0.3-0.3,0.4-0.6c0,0,0-0.1,0-0.1
								c0,0,0,0,0,0c0-0.1,0-0.3,0-0.4c0.4-1.3,2.5-1.7,2.9-1.8c0.9-0.1,1.3-0.1,2.4,0.3c0,0,0,0,0.1,0c0,0,0.1,0,0.2,0
								c0.4,0,0.7-0.2,0.8-0.6c0-0.1,0.1-0.5,0.1-0.7c0.1-0.1,0.1-0.2,0.2-0.3c0.5-0.6,1.6-0.6,2-0.5c0.4,0,0.9,0.1,1.3,0.1
								c0.1,0,0.4-0.1,0.5-0.1c0.2-0.1,0.3-0.2,0.4-0.4c0-0.1,0.1-0.2,0-0.3c0,0,0-0.1,0-0.1c0,0,0,0,0,0c0-0.2,0-0.5,0-0.7
								c0.2-0.6,0.8-0.9,1.4-1.1c0.2-0.1,0.5-0.1,0.7-0.1c3.2-0.3,5.9,2.4,7,5.2c1.2,3,1,6.4,0.8,9.4c0,0.1,0.1,0.2,0.2,0.2
								c0.1,0,0.2,0,0.2-0.1c0.9-2.5,3.3-4.4,6.5-5.3c1.1-0.3,1.9-0.3,2.6,0C427.8,317.4,428.4,318.3,428.2,319.1z"/>
							<path class="st7" d="M417,346.8l-13.4,6l-0.1-5.8l0.1-2.7c0-0.6-0.1-1.2-0.2-1.8c0,0,0,0,0,0c-0.2-2.2-0.1-1.9-1-3.8
								c3.5,0,7.4-1.9,13.1-4.1c0,0.3,0.1,0.9,0.1,1.5c0.1,1.7,0.3,4.2,0.4,5.3c0,0,0,0.1,0,0.1c0,0.3,0.1,0.7,0.2,1c0,0,0,0,0,0
								c0,0.6,0,1.2,0,1.5C416.3,345.1,416.7,346,417,346.8z"/>
							<g>
								<path class="st7" d="M411.2,312.3c0.3,0.2,1.5,1,1.7,0.7c0.2-0.2-0.9-1.3-1.1-1.5c-1.4-0.9-4-1.4-4-1.3
									c-0.1,0.2-0.2,0.3-0.4,0.4C407.3,310.7,410,311.6,411.2,312.3z"/>
							</g>
							<g>
								<path class="st7" d="M404.3,313.9c0.3,0.2,0.6,0.3,0.9,0.5c0.3,0.2,0.6,0.4,0.9,0.5c0.6,0.3,1.5,0.8,1.7,0.7
									c0.3-0.2-0.7-1-0.9-1.3c-0.6-0.6-3.6-2.2-3.7-2.1c-0.1,0.4-0.5,0.6-0.8,0.6C402.3,312.7,403.6,313.5,404.3,313.9z"/>
							</g>
							<g>
								<path class="st7" d="M400.6,317.3c0.4,0.3,1.5,1.1,1.7,0.8c0.2-0.3-0.8-1.4-1.1-1.6c-1.2-1.1-4.4-1.8-4.4-1.8
									c0,0.2-0.2,0.4-0.4,0.6C396.4,315.2,399.4,316.4,400.6,317.3z"/>
							</g>
						</g>
					</g>
					<g>
						<path class="st6" d="M389.7,320.1c0-0.1-0.1-0.2-0.1-0.3c-0.1-0.2-0.2-0.4-0.3-0.6c-1-1.6-2.3-2-4-2.6
							c0.4-0.3,0.4-0.6,0.2-0.9c-0.7-1-4-1.9-4-1.9c-2.5-0.5-6.1-0.7-9.9-0.1c-2,0.3-3.9,0.8-5.8,1.7c-0.8,0.4-1.7,1.6-2.5,3.1
							c-0.1,0.3-0.3,0.5-0.4,0.8c-0.2,0.3-0.3,0.7-0.5,1c-0.1,0.3-0.3,0.7-0.4,1c-0.2,0.5-0.4,0.9-0.6,1.4c-0.1,0.3-0.3,0.7-0.4,1
							c-0.3,0.7-0.5,1.3-0.7,1.8c-0.7,2.2-1.9,4.3-3.3,6.1c0,0,0,0.1-0.1,0.1c-1.3,1.7-2.8,3.2-4.4,4.6c0,0,0,0,0,0
							c-2,1.8-4.1,3.3-6,4.7c-1.3,0.9-2.5,1.8-3.5,2.6c1.4-1.1,8-0.5,12.5,2.5c0.8,0.5,1.5,1.1,2.1,1.7c0.6,0.7,1.2,1.5,1.5,2.3
							c0.2,0.6,0.4,1.1,0.5,1.8c0.6-1.1,1.2-3.1,1.9-5.3c0,0,0,0,0,0c0,0,0,0,0,0c1.3-3.8,2.7-8.1,4-9.1c0.8-0.2,1.5-0.5,2.2-0.8
							c1-0.5,1.9-1.2,2.7-1.9c0,0,0.1-0.1,0.1-0.1c0.1-0.1,0.2-0.2,0.3-0.4c1.5-1.5,2.6-3.3,3.9-4.7c0.8-0.9,1.6-1.6,2.7-2.1
							c2.9-1.1,4.7,1,7.7,0.6c0.9,0,1.8-0.5,1.9-0.9c0-0.1-0.3-0.7-0.4-0.9c-0.4-0.6-1.2-1.5-2.2-1.9c3.8,1.5,7,1.3,3.3-3
							C388.9,321.9,390,321.1,389.7,320.1z M376.6,316.8c0.2-0.1,0.5-0.2,0.7-0.2c0.5-0.2,2.7-0.6,4.7-0.4c0.5,0,0.9,0.1,1.3,0.2
							c-1.1-0.1-2-0.1-3,0c0,0-0.1,0-0.1,0c-0.5,0-1.1,0.1-1.7,0.2c0,0,0,0,0,0c-0.9,0.1-1.9,0.4-3,0.7
							C375.7,317.2,376.1,317,376.6,316.8z M380,323.5c1.5-0.1,2.7,0.3,3.4,0.5C382.5,323.8,381.3,323.7,380,323.5z M382.2,319.4
							c-3-0.4-5.5,0.3-6.8,0.8c1.8-1.3,6.5-1.4,8.2-0.7C382.9,319.4,382.4,319.4,382.2,319.4z"/>
						<path class="st20" d="M383.4,324c-0.9-0.2-2-0.3-3.4-0.5C381.5,323.4,382.6,323.8,383.4,324z"/>
						<path class="st21" d="M383.6,319.6c-0.7-0.1-1.2-0.1-1.4-0.2c-3-0.4-5.5,0.3-6.8,0.8C377.3,319,381.9,318.8,383.6,319.6z"/>
						<path class="st7" d="M383.3,316.4c-1.1-0.1-2-0.1-3,0c0,0-0.1,0-0.1,0c-0.5,0-1.1,0.1-1.7,0.2c0,0,0,0,0,0
							c-0.9,0.1-1.9,0.4-3,0.7c0.3-0.1,0.7-0.3,1.1-0.5c0.2-0.1,0.5-0.2,0.7-0.2c0.5-0.2,2.7-0.6,4.7-0.4
							C382.5,316.2,382.9,316.3,383.3,316.4z"/>
						<path class="st7" d="M386.9,327.8C386.9,327.8,386.9,327.8,386.9,327.8c-2.3,1.4-4.8-0.1-7.3,0.1c-2.2,0.1-3.5,1.2-4.6,2.7
							c-1.2,1.5-2.3,3.5-4.2,5c0,0-0.1,0-0.1,0.1c0,0,0,0,0,0.1c-1.3,1.2-2.8,2.2-4.9,2.7c-2,1.6-4.4,11.4-5.9,14.5
							c-0.1-0.6-0.3-1.2-0.5-1.8c-0.2-1.5-0.5-3.4-1.1-4.1c1.2-2.3,5.1-9.8,6.4-10.4c2.3-1.6,3.6-0.9,5.6-2.9
							c2.8-4.6,7.1-8.4,13.3-6.3c0.7,0.3,2.4,0.7,3.3-0.1c0,0,0.1-0.1,0.1-0.1C387.1,327.4,387.1,327.5,386.9,327.8z"/>
					</g>
					<g>
						<g>
							<g>
								<path class="st22" d="M440.7,415.6c-0.2,0.6-3.6,9.4-13.1,11.6c-9.3,2.1-16.1-4.1-16.6-4.6c-2.8-10.7-5.5-22.3-7.8-34.5
									c-4-21.1-5.3-32.3-5.8-38c-0.3-3.6-0.5-6.6-0.6-8.6c3.1-0.4,6.9-1.1,11-2.5c4.6-1.5,8.4-3.5,11.3-5.2
									c0.7,2.1,1.9,5.8,3.5,10.4c7.3,21.5,9.7,26.9,12.4,38.2C437.9,394.4,439.6,405.6,440.7,415.6z"/>
							</g>
						</g>
					</g>
					<g>
						<g>
							<path class="st11" d="M421.9,342.6c-3.7,1.3-7.7,2.6-11.7,3.9c-4.4,1.4-8.7,2.6-12.8,3.7c-0.4-3-0.8-6-1.2-9
								c3.4-0.5,7.3-1.4,11.7-2.9c4.6-1.5,8.5-3.4,11.6-5.1C420.2,336.3,421.1,339.5,421.9,342.6z"/>
						</g>
					</g>
					<g>
						<path class="st22" d="M365.1,350.3c-1.7,2-3.3,4-4.9,5.9c-0.2,0.2-0.3,0.3-0.3,0.4c0,0-0.1,0.1-0.1,0.1
							c-2.8,2.9-6.6,9.2-11.8,15.5c-20.9,25.3-28.1,43.6-38.2,48.8c-1.8,0.9-16.5,1.7-21.6-7.1c-4.1-7-1-22.4,8.9-32.5
							c14.1-14.3,34.9-32,44.5-40.2c0,0,0.1-0.1,0.1-0.1c2.1-1.9,4.1-3.8,6.2-5.8c3.4,3.1,6.9,6.3,10.6,9.5
							C360.8,346.7,362.9,348.6,365.1,350.3z"/>
					</g>
					<path class="st11" d="M365.5,350.5c-1.7,2.1-3.4,4.1-5.1,6.1c-0.1,0.2-0.3,0.3-0.4,0.5c-6.2-5.4-12.4-10.7-18.6-16.1
						c2.2-1.9,4.4-3.7,6.6-5.6c2.7,2.4,5.4,4.9,8.3,7.3C359.3,345.4,362.4,348,365.5,350.5z"/>
				</g>
				<path class="st23" d="M383.3,526.5c-3.9,4.3-2.3,12.3,3,14.7c13.2,6,27.6,9.4,42,9.8c4.5,0.1,8.1-4.5,7.9-9
					c-0.2-4.5-3.5-8.4-7.4-10.5c-3.9-2.2-8.4-3-12.9-3.6c-4.4-0.6-9-1.2-13.1-3C396.5,522,387.7,521.7,383.3,526.5L383.3,526.5z"/>
				<path class="st6" d="M373.1,534.5c38.6,15.1,46.7,12,48.7,9c1.3-2,0.6-4.9,0.5-5.2c-1.7-6.4-12.4-8.9-25.2-12
					c-4.7-1.1-4.9-1.6-9.1-2c-3.1-0.3-6.2-0.7-9.1-1.8c-2.6-1.1-5.7,1.3-6.4,4C371.8,529.2,372.7,532.1,373.1,534.5z"/>
				<path class="st22" d="M385.7,513.9c-2,5.4-4,11-6.2,16.6c-1.5,3.9-3.1,7.8-4.7,11.6c-22.5-10.4-41.3-16.6-54.7-20.4
					c-1.5-0.4-32.9-9.3-51.7-23.6c-2.8-2.2-7.7-6.2-9.8-13.1c-0.3-1-2.6-8.9,1-16.3c4.4-8.8,15.9-13.9,28.3-11.7
					c21,13.2,43,26.4,66.1,39.5C364.7,502.5,375.2,508.3,385.7,513.9z"/>
				<path class="st23" d="M347,522.9c3.9,4.3,2.3,12.3-3,14.7c-13.2,6-27.6,9.4-42,9.8c-4.5,0.1-8.1-4.5-7.9-9
					c0.2-4.5,3.5-8.4,7.4-10.5c3.9-2.2,8.4-3,12.9-3.6c4.4-0.6,9-1.2,13.1-3C333.8,518.4,342.6,518.1,347,522.9L347,522.9z"/>
				<path class="st6" d="M357.2,530.9c-6.2,2.8-36.2,15.7-42.6,7.4c-1-1.2-1.7-3.3-1.3-5.3c1.2-5.6,11.4-8.2,19.9-10.4
					c4.4-1.1,4.5-1.5,9.1-2c3.1-0.3,6.2-0.7,9.1-1.8c2.6-1.1,5.7,1.3,6.4,4C358.5,525.5,357.7,528.4,357.2,530.9z"/>
				<path class="st22" d="M471.3,482.4c-2.4,6.6-7.3,10.4-9.4,12c-10.8,8.1-51.2,26.5-107.2,48.2c-1-4.9-2.2-10.2-3.8-15.7
					c-1.7-5.8-3.5-11.1-5.4-15.9c32.3-19.2,64.6-38.4,96.9-57.6c12.3-2.3,23.9,2.8,28.3,11.7C474.6,473,471.6,481.5,471.3,482.4z"/>
				<g>
					<g>
						<path class="st10" d="M439.1,483.6c4.4,3,11.8,6.4,23.9,6.2c-11.7,6.9-28.5,15-49.8,20.1c-14.9,3.5-28.3,4.7-39.1,4.8
							c-3.5-11.9-7-23.9-10.6-35.8c-5.2,6.5-10.9,14.8-15.8,24.9c-2.1,4.3-3.7,8.4-5.1,12.3c-8-0.2-17.7-1.1-28.4-3.8
							c-23.3-5.9-40-17.4-49.7-25.4c10.4-0.3,17.1-3.3,21.2-6c8.2-5.3,11.3-12.4,20.6-14.8c4.1-1,7.8-0.7,10.1-0.3
							c2.7-0.2,6.8-0.6,11.9-1c30-2.2,52.1-1.7,57.9-1.6c5.2,0.1,12.5,0.4,21.3,0.9c4.1,0.8,10.2,2.5,16.6,6.6
							C431.5,475.5,433.3,479.6,439.1,483.6z"/>
					</g>
				</g>
				<path class="st22" d="M316.5,465.9c10.6,3.1,25.9,6.4,44.5,6.2c19.8-0.2,35.9-4.2,46.7-7.8c-13.1,2.6-29.2,4.8-47.6,4.9
					C343.4,469.4,328.7,467.9,316.5,465.9z"/>
				<path class="st9" d="M359.6,463.4c0,1,0,2.4,0.2,4.1c0.6,4.5,8.8,27,14.3,47.3"/>
				<path class="st9" d="M353.1,476.8c2.7,0.1,5.8,0.1,9.2-0.3c3.3-0.4,6.2-0.9,8.8-1.6"/>
			</g>
			<path class="st7" d="M383.4,324c-1.2,0-2.3-0.1-3.4-0.5C381.1,323.4,382.3,323.5,383.4,324L383.4,324z"/>
			<path class="st7" d="M375.4,320.2c2.1-1.5,5.9-1.7,8.2-0.7c-1.4-0.3-2.8-0.3-4.1-0.2C378.1,319.5,376.7,319.6,375.4,320.2
				L375.4,320.2z"/>
			<path class="st7" d="M377.3,316.6c1.4-0.7,3.2-0.8,4.7-0.4C380.4,316.4,378.8,316.4,377.3,316.6L377.3,316.6z"/>
			<g>
				<path class="st24" d="M465.3,285.2L465.3,285.2l-3.6-24.5c-0.1-0.8-0.7-1.4-1.5-1.4l-17-2l-0.4,0.1l-0.2,0l0,0l-0.2,0l-0.4,0.1
					l-0.2,0l-0.3,0.3l-0.1,0.3c0,0.1-0.1,0.2-0.1,0.3l0,0c0,0.1,0,0.2,0,0.2c0,0.1,0,0.1,0,0.2l3.5,23.7c-0.9,0.3-1.8,0.7-2.6,1.3
					c-2.3,1.9-3.3,4.5-2.1,5.9c1.2,1.4,3.9,1,6.2-0.9c2.3-1.9,3.3-4.5,2.1-5.9l0,0L446,266l13.5,1.6l2.5,16.9
					c-0.9,0.3-1.8,0.7-2.6,1.3c-2.3,1.9-3.3,4.5-2.1,5.9c1.2,1.4,3.9,1,6.3-0.9C465.8,288.9,466.4,286.6,465.3,285.2z"/>
			</g>
			<path class="st24" d="M527,248L527,248l-1.4-21.7c0-0.7-0.5-1.2-1.2-1.4l-14.7-2.9l-0.4,0l-0.2,0l0,0l-0.2,0l-0.3,0l-0.2,0
				l-0.2,0.2l-0.1,0.2c0,0.1-0.1,0.2-0.1,0.3l0,0c0,0.1,0,0.1,0,0.2c0,0.1,0,0.1,0,0.2l1.4,20.9c-0.8,0.2-1.6,0.5-2.4,1
				c-2.2,1.5-3.2,3.7-2.3,5c1,1.3,3.4,1.2,5.5-0.4c2.2-1.5,3.2-3.7,2.3-5l0,0l-1-14.9l11.7,2.3l1,14.9c-0.8,0.2-1.6,0.5-2.4,1
				c-2.2,1.5-3.2,3.7-2.3,5c1,1.3,3.4,1.2,5.5-0.4C527.1,251.2,527.8,249.3,527,248z"/>
			<path class="st24" d="M468.6,228.9c-0.7-0.6-1.8-0.5-2.4,0.3c-0.4,0.5-0.5,1.2-0.2,1.8l10.2,21.7c-0.8,0.5-1.5,1.2-2.1,2
				c-1.7,2.5-1.9,5.3-0.3,6.3c1.6,1,4-0.1,5.7-2.7c1.7-2.5,1.9-5.3,0.3-6.3l0,0l-8.1-17.3c1.3,0.6,9.3,4.1,10.5,6.8
				c0.5,0.8,1.5,1.1,2.3,0.6c0.8-0.5,1.1-1.5,0.7-2.3c0,0,0,0,0,0C483.5,236.3,471,230.7,468.6,228.9z"/>
			<path class="st24" d="M567.1,183.7c-0.7-0.6-1.8-0.5-2.4,0.3c-0.4,0.5-0.5,1.2-0.2,1.8l10.2,21.7c-0.8,0.5-1.5,1.2-2.1,2
				c-1.7,2.5-1.9,5.3-0.3,6.3c1.6,1,4-0.1,5.7-2.7c1.7-2.5,1.9-5.3,0.3-6.3l0,0l-8.1-17.3c1.3,0.6,9.3,4.1,10.5,6.8
				c0.5,0.8,1.5,1.1,2.3,0.6c0.8-0.5,1.1-1.5,0.7-2.3c0,0,0,0,0,0C582,191.1,569.4,185.6,567.1,183.7z"/>
			<path class="st24" d="M495,189.1c0-0.9-0.8-1.7-1.7-1.7c-0.7,0-1.3,0.4-1.5,1L481.4,210c-0.9-0.3-1.9-0.4-2.9-0.3
				c-3,0.2-5.3,1.9-5.1,3.7c0.2,1.8,2.7,3,5.7,2.7c3-0.3,5.3-1.9,5.1-3.7l0,0l8.2-17.2c0.4,1.4,2.8,9.8,1.4,12.4
				c-0.3,0.9,0.1,1.8,1,2.2c0.9,0.3,1.9-0.1,2.2-1c0,0,0,0,0,0C498.7,205.3,495,192.1,495,189.1z"/>
			<path class="st24" d="M563.4,232.2c0-0.9-0.8-1.7-1.7-1.7c-0.7,0-1.3,0.4-1.5,1l-10.3,21.6c-0.9-0.3-1.9-0.4-2.9-0.3
				c-3,0.2-5.3,1.9-5.1,3.7c0.2,1.8,2.7,3,5.7,2.7c3-0.3,5.3-1.9,5.1-3.7l0,0l8.2-17.2c0.4,1.4,2.8,9.8,1.4,12.4
				c-0.3,0.9,0.1,1.8,1,2.2c0.9,0.3,1.9-0.1,2.2-1c0,0,0,0,0,0C567.1,248.5,563.5,235.2,563.4,232.2z"/>
			<g>
				<path class="st24" d="M534.8,191.3L534.8,191.3l9.2-23c0.3-0.7,0.1-1.5-0.6-2l-13.7-10.2l-0.4-0.2l-0.2-0.1l0,0l-0.2-0.1
					l-0.4-0.1l-0.2-0.1l-0.4,0.1l-0.3,0.2c-0.1,0.1-0.2,0.1-0.2,0.2l0,0c0,0.1-0.1,0.1-0.1,0.2c0,0.1-0.1,0.1-0.1,0.2l-8.9,22.2
					c-1-0.2-2-0.3-2.9-0.1c-3,0.4-5.2,2.2-4.8,4c0.3,1.8,2.9,2.9,5.9,2.3c3-0.5,5.2-2.2,4.8-4l0,0l6.3-15.8l10.9,8.1l-6.3,15.8
					c-1-0.2-2-0.3-2.9-0.1c-3,0.4-5.2,2.2-4.8,4c0.3,1.8,2.9,2.9,5.9,2.3S535,193.1,534.8,191.3z"/>
			</g>
		</g>
	</g>
</g>
</svg>
