<?xml version="1.0" encoding="utf-8"?>
<!-- Generator: Adobe Illustrator 26.0.1, SVG Export Plug-In . SVG Version: 6.00 Build 0)  -->
<svg version="1.1" id="Layer_1" xmlns="http://www.w3.org/2000/svg" xmlns:xlink="http://www.w3.org/1999/xlink" x="0px" y="0px"
	 viewBox="0 0 465 468" style="enable-background:new 0 0 465 468;" xml:space="preserve">
<style type="text/css">
	.st0{clip-path:url(#SVGID_00000140703973585907280510000015784098898007017911_);}
	.st1{fill:#FFD7DC;}
	.st2{fill:#D8989D;}
	.st3{fill:#CE8E96;}
	.st4{fill:#A86772;}
	.st5{fill:#C6838B;}
	.st6{fill:none;stroke:#003D74;stroke-miterlimit:10;}
	.st7{fill:#FAD4AF;}
	.st8{fill:#EFB78E;}
	.st9{fill:#F6AF9A;}
	.st10{fill:#4C6580;}
	.st11{fill:#212121;}
	.st12{fill:#9F0102;}
	.st13{fill:#84030A;}
	.st14{fill:#191513;}
	.st15{fill:none;stroke:#F8AE38;stroke-width:0.6112;stroke-miterlimit:10;}
	.st16{fill:#F8AE38;}
	.st17{fill:#E09D6C;}
	.st18{fill:#E08373;}
</style>
<g>
	<defs>
		<path id="SVGID_1_" d="M49.5,322.5c8.4-8.8,24.7-16.3,32-36.9c1.6-4.6,3.2-9.1,2.7-15c-2-23.9-35.5-38.7-50.3-55.6
			c-8.8-10.6-12.7-27.6-3-37.4c8.3-8.3,21.9-7.2,32.8-11.5c19.6-7.8,27-31.7,28.2-52.7C90.2,69.6,98.7,20.5,153,23
			c18.6,2,34.7,13.5,52.6,18.7c35,10.1,74.2-4.7,108.3,9.9c16.8,7.2,31,23.4,30.3,41.7c-0.7,18.8-16.4,36.1-11.6,54.3
			c13.2,37.7,66.6,21.2,89.8,48.7c39.1,47-40.6,57.8,5.4,108.5c3.1,5.4,24.5,61.4,1.8,100.3c-24.4,41.7-92.6,42.8-113.4,38.1
			c-7.7-1.7-17.4-4.4-17.4-4.4c-10.9-3-19.4-6-36-11.1c0,0-10.6-3.4-30.4-9c-48.5-13.9-135.2,39.1-164,1.3
			C48,393.4,28.2,344.8,49.5,322.5z"/>
	</defs>
	<clipPath id="SVGID_00000049179531566483987960000013675262958533996216_">
		<use xlink:href="#SVGID_1_"  style="overflow:visible;"/>
	</clipPath>
	<g style="clip-path:url(#SVGID_00000049179531566483987960000013675262958533996216_);">
		<path class="st1" d="M49.5,322.5c8.4-8.8,24.7-16.3,32-36.9c1.6-4.6,3.2-9.1,2.7-15c-2-23.9-35.5-38.7-50.3-55.6
			c-8.8-10.6-12.7-27.6-3-37.4c8.3-8.3,21.9-7.2,32.8-11.5c19.6-7.8,27-31.7,28.2-52.7C90.2,69.6,98.7,20.5,153,23
			c18.6,2,34.7,13.5,52.6,18.7c35,10.1,74.2-4.7,108.3,9.9c16.8,7.2,31,23.4,30.3,41.7c-0.7,18.8-16.4,36.1-11.6,54.3
			c13.2,37.7,66.6,21.2,89.8,48.7c39.1,47-40.6,57.8,5.4,108.5c3.1,5.4,24.5,61.4,1.8,100.3c-24.4,41.7-92.6,42.8-113.4,38.1
			c-7.7-1.7-17.4-4.4-17.4-4.4c-10.9-3-19.4-6-36-11.1c0,0-10.6-3.4-30.4-9c-48.5-13.9-135.2,39.1-164,1.3
			C48,393.4,28.2,344.8,49.5,322.5z"/>
	</g>
	<g style="clip-path:url(#SVGID_00000049179531566483987960000013675262958533996216_);">
		<g>
			<g>
				<path class="st2" d="M260.7,183c-0.7,0.3-0.7,1.1-0.2,1.3c0,0,0.7,0.2,0.8-0.3c0.2-0.5-0.6-0.7-0.8-0.4c0,0,0-0.4,0.5-0.4
					c0.6,0,1.1,1.1-0.5,1.4l0.3,0.4c-5-0.6-10.6-3.9-15.3-7.5l0.2-9.2l2.4,0l0-1.7l-2.4,0l0-1.4l2.4,0l0-1.7l-2.4,0l0-1.1
					c0.5,0.1,1,0.1,1.4,0.1c1.7,0,3.1-0.4,4-0.7l0,0.6l1.8,0l0-1.2c1.5-0.2,2.6-0.8,3.2-1.4c0.8-0.8,1.1-1.6,1.1-1.6
					c0-0.1,0-0.2,0-0.3c0-0.1-0.1-0.1-0.2-0.1c0,0,0,0,0,0c0.2-0.2,0.3-0.4,0.4-0.7c0.2-0.7-0.6-1.3-1.2-1c-0.6,0.2-0.6,0.9-0.1,1.1
					c0,0,0.6,0.2,0.7-0.2c0.2-0.4-0.5-0.6-0.7-0.3c0,0,0-0.3,0.4-0.3c0.5,0,0.9,0.9-0.4,1.2l0.2,0.3c-4.1-0.5-8.6-3.1-12.5-6
					l0.2-8.7l2.1,0l0-1.5l-2.1,0l0-1.2l2.1,0l0-1.5l-2.1,0l0-1c0.4,0.1,0.8,0.1,1.2,0.1c1.5,0,2.8-0.3,3.5-0.6l0,0.5l1.6,0l0-1.1
					c1.3-0.2,2.2-0.7,2.8-1.2c0.7-0.7,1-1.4,1-1.4c0-0.1,0-0.2,0-0.2c0-0.1-0.1-0.1-0.2-0.1l0,0c0.1-0.1,0.3-0.3,0.3-0.6
					c0.2-0.6-0.5-1.1-1-0.9c-0.5,0.2-0.5,0.8-0.1,1c0,0,0.5,0.2,0.6-0.2c0.1-0.4-0.4-0.5-0.6-0.3c0,0,0-0.3,0.3-0.3
					c0.4,0,0.8,0.8-0.3,1l0.2,0.3c-3.7-0.4-7.8-2.9-11.3-5.6l0.2-7.9l1.8,0l0-1.3l-1.8,0l0-1l1.8,0l0-1.3l-1.8,0l0-0.8
					c0.4,0.1,0.7,0.1,1,0.1c1.3,0,2.3-0.3,3-0.5l0,0.4l1.4,0l0-0.9c1.1-0.1,1.9-0.6,2.3-1c0.6-0.6,0.8-1.2,0.8-1.2
					c0-0.1,0-0.1,0-0.2c0-0.1-0.1-0.1-0.2-0.1c0,0,0,0,0,0c0.1-0.1,0.2-0.3,0.3-0.5c0.1-0.5-0.4-0.9-0.9-0.8
					c-0.4,0.2-0.4,0.7-0.1,0.8c0,0,0.4,0.1,0.5-0.2c0.1-0.3-0.4-0.5-0.5-0.2c0,0,0-0.2,0.3-0.2c0.4,0,0.7,0.7-0.3,0.9l0.2,0.2
					c-3.1-0.4-6.6-2.4-9.5-4.7l0.1-7.2l1.5,0l0-1.1l-1.5,0l0-0.9l1.5,0l0-1.1l-1.5,0l0-0.7c0.3,0.1,0.6,0.1,0.9,0.1
					c1.1,0,2-0.2,2.5-0.5l0,0.4l1.1,0l0-0.8c1-0.1,1.6-0.5,2-0.9c0.5-0.5,0.7-1,0.7-1c0-0.1,0-0.1,0-0.2c0,0-0.1-0.1-0.1-0.1
					c0,0,0,0,0,0c0.1-0.1,0.2-0.2,0.2-0.4c0.1-0.4-0.4-0.8-0.7-0.7c-0.4,0.1-0.4,0.6-0.1,0.7c0,0,0.4,0.1,0.4-0.1
					c0.1-0.3-0.3-0.4-0.4-0.2c0,0,0-0.2,0.2-0.2c0.3,0,0.6,0.6-0.2,0.7l0.1,0.2c-5.9-0.7-13.3-8.6-13.7-9.1v-0.1h0.2v-0.2h-0.2v0
					c0.1-0.2,0.2-0.4,0.2-0.6c0-0.5-0.4-0.9-0.9-0.9c-0.5,0-0.9,0.4-0.9,0.9c0,0.2,0.1,0.4,0.2,0.6v0h-0.2v0.2h0.2v0.7
					c-2,1.8-8.3,7.5-13.4,8c0-0.2,0-0.4-0.3-0.5c-0.4-0.1-0.8,0.2-0.7,0.7c0.1,0.4,0.5,0.6,0.5,0.6l0,0c0.1,0.2,0.2,0.4,0.4,0.6
					c0.4,0.4,1.1,0.9,2.2,1l0,0.7l1.1,0l0-0.3c0.6,0.2,1.3,0.4,2.3,0.5c0.4,0,0.8,0,1.2-0.1l0,0.7l-1.6,0l0,1.1l1.6,0l0,0.9l-1.6,0
					l0,1.1l1.6,0l-0.1,7.5c-2.9,2-6.2,3.7-9.2,4c0.1-0.2,0-0.5-0.3-0.6c-0.4-0.2-1,0.2-0.9,0.8c0.1,0.5,0.6,0.7,0.6,0.7l0-0.1
					c0.1,0.2,0.3,0.4,0.5,0.7c0.5,0.5,1.3,1.1,2.6,1.2l0,0.9l1.4,0l0-0.3c0.7,0.3,1.6,0.5,2.7,0.5c0.5,0,0.9,0,1.4-0.1l0,0.9l-1.9,0
					l0,1.3l1.9,0l0,1l-1.9,0l0,1.3l1.9,0l-0.2,8.1c-3.4,2.4-7.4,4.5-10.9,4.8c0.1-0.2-0.1-0.5-0.4-0.7c-0.5-0.2-1.2,0.3-1,0.9
					c0.2,0.6,0.7,0.9,0.7,0.9l0.1-0.1c0.1,0.2,0.3,0.5,0.6,0.8c0.6,0.6,1.6,1.2,3.1,1.4l0,1l1.6,0l0-0.4c0.8,0.3,1.9,0.6,3.2,0.6
					c0.5,0,1.1,0,1.7-0.1l0,1l-2.2,0l0,1.5l2.2,0l0,1.2l-2.2,0l0,1.5l2.2,0l-0.2,8.9c-3.8,2.6-8.2,4.9-12.1,5.3
					c0.1-0.3-0.1-0.6-0.4-0.8c-0.6-0.2-1.3,0.3-1.2,1c0.2,0.7,0.8,1,0.8,1l0.1-0.1c0.2,0.3,0.4,0.6,0.7,0.9c0.7,0.7,1.8,1.4,3.6,1.6
					l0,1.2l1.8,0l0-0.5c0.9,0.3,2.2,0.7,3.6,0.7c0.6,0,1.3,0,2-0.2l0,1.2l-2.5,0l0,1.7l2.5,0l0,1.4l-2.5,0l0,1.7l2.5,0l-0.2,9.5
					c-4.7,3.2-10.1,6.1-14.9,6.6c0.1-0.3-0.1-0.7-0.5-0.9c-0.7-0.3-1.6,0.4-1.4,1.2c0.2,0.9,0.9,1.2,0.9,1.2l0.1-0.1
					c0.2,0.3,0.5,0.7,0.8,1.1c0.8,0.8,2.1,1.7,4.3,1.9l0,1.4l2.2,0l0-0.6c1,0.4,2.6,0.8,4.3,0.9c0.7,0,1.5,0,2.3-0.2l0,1.4l-3-0.1
					l0,2l3,0.1l0,1.7l-3-0.1l0,2l3,0.1l-0.3,13.9l-3-0.1l0,2l3,0.1l0,1.7l-3-0.1l0,2l3,0.1l0,1l-2.6,0l-0.1,4.2l33.5,0.6l0.1-4.2
					l-2.5,0l0-1l2.9,0.1l0-2l-2.9-0.1l0-1.7l2.9,0.1l0-2l-2.9-0.1l0.3-13.9l2.9,0.1l0-2l-2.9-0.1l0-1.7l2.9,0.1l0-2l-2.9-0.1l0-1.3
					c0.6,0.1,1.1,0.1,1.7,0.2c2,0,3.7-0.5,4.8-0.9l0,0.7l2.2,0l0-1.4c1.8-0.2,3-1,3.8-1.7c1-0.9,1.3-1.9,1.4-1.9c0-0.1,0-0.2,0-0.3
					c-0.1-0.1-0.2-0.1-0.3-0.2c0,0,0,0,0,0c0.2-0.2,0.4-0.5,0.5-0.8C262.3,183.3,261.4,182.7,260.7,183z M242.8,175.3
					c-3.8-3.2-6.7-6.1-7.8-7.3v0l7.9,0.2L242.8,175.3z M243,166.5l-7.9-0.2l0-1.4l7.9,0.2L243,166.5z M235.1,163.2l0-1
					c0.2,0.1,0.5,0.2,0.7,0.3c0.5,0.1,1.1,0.2,1.8,0.3c1.2,0,2.6-0.2,4.3-1l0,0.5l1.1,0l0,1.2L235.1,163.2z M241.7,149.9
					c-3.3-2.7-5.9-5.3-6.8-6.3l0-0.7l6.9,0.1L241.7,149.9z M241.8,141.5l-6.9-0.1l0-1.2l6.9,0.1L241.8,141.5z M234.9,138.6l0-0.9
					c0.2,0.1,0.4,0.2,0.6,0.2c0.4,0.1,1,0.2,1.6,0.2c1,0,2.3-0.2,3.7-0.9l0,0.4l1,0l0,1.1L234.9,138.6z M240.3,126.7
					c-2.8-2.3-5-4.5-5.7-5.3l0-1.1l5.8,0.1L240.3,126.7z M240.5,119.1l-5.8-0.1l0-1l5.8,0.1L240.5,119.1z M234.7,116.7l0-0.8
					c0.2,0.1,0.3,0.1,0.5,0.2c0.4,0.1,0.8,0.2,1.3,0.2c0.9,0,1.9-0.2,3.2-0.8l0,0.3l0.8,0l0,0.9L234.7,116.7z M239.3,106.6
					c-2.4-2-4.2-3.8-4.9-4.5l0-0.4h0v-0.1l0-0.7c0,0,0-0.1,0-0.1c0,0,0-0.1,0-0.1l0,0l4.9,0.1L239.3,106.6z M239.4,99.6l-4.9-0.1
					l0-0.9l4.9,0.1L239.4,99.6z M234.5,97.6l0-0.6c0.1,0.1,0.3,0.1,0.5,0.2c0.3,0.1,0.7,0.2,1.1,0.2c0.7,0,1.6-0.1,2.7-0.6l0,0.3
					l0.7,0l0,0.8L234.5,97.6z M218.9,93.3c0.2,0,0.2,0.2,0.2,0.2c-0.1-0.2-0.5-0.1-0.4,0.2c0,0,0,0-0.1,0.1c0,0,0,0,0,0
					C218.5,93.5,218.7,93.3,218.9,93.3z M227.9,96.7l0.5,0l0-0.2c0.9,0.5,1.8,0.7,2.5,0.7c0.8,0,1.5-0.2,2-0.4l0,0.8l-4.9-0.1
					L227.9,96.7z M227.8,98.5l4.9,0.1l0,0.9l-4.9-0.1L227.8,98.5z M227.8,100.5l4.6,0.1c0,0.1,0,0.1,0,0.2c0,0.3,0.1,0.5,0.3,0.7v0
					h-0.2v0.3h0.2v0.8c-0.9,0.9-2.7,2.5-4.9,4.2L227.8,100.5z M216.3,111.5c0.3,0,0.3,0.2,0.3,0.2c-0.1-0.2-0.6-0.1-0.5,0.2
					c0,0-0.1,0-0.1,0.1c0,0,0,0,0,0C215.8,111.8,216,111.5,216.3,111.5z M226.9,115.6l0.6,0l0-0.3c1.1,0.6,2.1,0.8,2.9,0.8
					c1,0,1.8-0.2,2.3-0.5l0,0.9l-5.8-0.1L226.9,115.6z M226.8,117.8l5.8,0.1l0,0.8c-0.1,0.1-0.2,0.2-0.3,0.2l-5.6-0.1L226.8,117.8z
					 M226.8,120.1l5.5,0.1c0.1,0.1,0.1,0.2,0.2,0.3v0h-0.3v0.3h0.3v1c-1.1,1-3.2,3-5.8,4.9L226.8,120.1z M213.1,132.5
					c0.3,0,0.3,0.3,0.3,0.3c-0.2-0.3-0.7-0.1-0.6,0.3c0,0-0.1,0-0.1,0.1c0,0,0,0,0,0C212.5,132.9,212.8,132.5,213.1,132.5z
					 M225.6,137.4l0.7,0l0-0.3c1.3,0.7,2.5,0.9,3.5,0.9c1.2,0,2.1-0.3,2.7-0.6l0,1.1l-6.9-0.1L225.6,137.4z M225.6,139.9l6.9,0.1
					l0,0.4c-0.3,0.2-0.5,0.5-0.5,0.8l-6.4-0.1L225.6,139.9z M225.5,142.7l6.5,0.1v0.1h0.3v1.1c-1.3,1.2-3.8,3.5-6.9,5.8L225.5,142.7
					z M210.2,156.3c0.4,0,0.4,0.3,0.4,0.3c-0.2-0.3-0.8-0.1-0.7,0.3c0,0-0.1,0.1-0.1,0.1c0,0,0,0,0,0
					C209.6,156.7,209.8,156.3,210.2,156.3z M224.5,161.8l0.8,0l0-0.3c1.5,0.8,2.8,1.1,4,1.1c1.3,0,2.4-0.3,3.1-0.6l0,1.3l-7.9-0.2
					L224.5,161.8z M224.5,164.7l7.5,0.1c-0.2,0.3-0.3,0.6-0.3,0.9c0,0.2,0,0.3,0.1,0.5l-7.3-0.1L224.5,164.7z M224.4,167.8l7.7,0.1
					v0.7c-1.5,1.4-4.3,4-7.8,6.6L224.4,167.8z M205.8,183.2c0.4,0,0.5,0.4,0.5,0.4c-0.2-0.4-0.9-0.2-0.8,0.4c0,0-0.1,0.1-0.1,0.1
					c0,0,0,0,0,0C205.1,183.7,205.4,183.2,205.8,183.2z M222.9,189.8l1,0l0-0.4c1.8,0.9,3.4,1.3,4.7,1.3c1.6,0,2.8-0.3,3.7-0.8
					l0,1.5l-9.4-0.2L222.9,189.8z M222.8,193.3l9.4,0.2l0,1.7l-9.4-0.2L222.8,193.3z M222.7,197l9.4,0.2l-0.3,13.9l-9.4-0.2
					L222.7,197z M222.4,212.9l9.4,0.2l0,1.7l-9.4-0.2L222.4,212.9z M222.4,216.6l9.4,0.2l0,1l-9.4-0.2L222.4,216.6z M244.4,218
					l-9.4-0.2l0-1l9.4,0.2L244.4,218z M244.4,215l-9.4-0.2l0-1.7l9.4,0.2L244.4,215z M244.5,211.3l-9.4-0.2l0.3-13.9l9.4,0.2
					L244.5,211.3z M244.8,195.4l-9.4-0.2l0-1.7l9.4,0.2L244.8,195.4z M235.5,191.5l0-1.2c0.3,0.1,0.6,0.2,0.9,0.3
					c0.6,0.2,1.3,0.3,2.1,0.3c1.4,0,3.1-0.3,5.1-1.2l0,0.5l1.3,0l0,1.5L235.5,191.5z"/>
				<path class="st2" d="M41.7,280.8c25.5-22.7,56.9-49.4,91.5-75.8c12.9-9.8,25.1-18.8,41.7-19.1c19-0.3,22.2,11,43.8,13.2
					c26.3,2.7,28.7-13.2,50.2-8.8c23,4.7,22.2,23.4,48.5,33.9c15.2,6.1,19.1,1.2,59,0.7c0,0,13.7-0.2,44.7,1.5
					c20.8,1.1,64.7,12.9,153.6,88.6c-176,157.6-319.4,180.6-410.2,176.6c-22-1-190.3-10.1-197.8-88.3
					C-37.4,362.5,3.5,315.8,41.7,280.8z"/>
				<path class="st3" d="M-29.2,354.5c25.5-22.7,56.9-49.4,91.5-75.8c12.9-9.8,25.1-18.8,41.7-19.1c19-0.3,22.2,11,43.8,13.2
					c26.3,2.7,28.7-13.2,50.2-8.8c23,4.7,22.2,23.4,48.5,33.9c15.2,6.1,19.1,1.2,59,0.7c0,0,13.7-0.2,44.7,1.5
					c20.8,1.1,64.7,12.9,153.6,88.6c-176,157.6-319.4,180.6-410.2,176.6c-22-1-190.3-10.1-197.8-88.3
					C-108.3,436.2-67.4,389.5-29.2,354.5z"/>
			</g>
		</g>
		<g>
			<path class="st2" d="M205.2,184.5c0,0-0.1,0-0.2,0.1c0-0.1,0-0.1-0.1-0.2c0-0.2,0.1-0.2,0.2-0.4c0.3-0.4-0.3-0.4-0.6-0.3
				c-0.4,0.2-0.4,0.5-0.3,0.8c0,0.1,0,0.1,0,0.2c-0.2,0-0.4,0.1-0.6,0.2c0-0.1-0.1-0.1-0.1-0.2c0-0.2,0.1-0.2,0.2-0.4
				c0.3-0.4-0.3-0.4-0.6-0.3c-0.3,0.2-0.4,0.5-0.3,0.9c0,0.1,0,0.1,0,0.2c-0.2,0-0.4,0.1-0.7,0.1c0-0.1,0-0.1-0.1-0.2
				c0-0.2,0.1-0.2,0.2-0.4c0.3-0.4-0.3-0.4-0.6-0.3c-0.4,0.2-0.4,0.5-0.3,0.8c0,0,0,0.1,0,0.1c-1.4,0.2-2.8,0.4-3.5,0.1
				c-1.5-0.5-2.2-3.4-2.4-4.1c2.1-1,3.4-2.2,3.4-2.2c0.2-0.5-0.3-0.6-0.3-0.6s-0.2,0.1-0.5,0.3c0.1-0.3,0.1-0.8,0.1-0.8
				c-0.3-0.2-0.4,0.6-0.7,1.1c-0.1,0-0.2,0.1-0.3,0.1c0.1-0.3,0.1-0.8,0.1-0.8c-0.3-0.2-0.4,0.6-0.7,1.1c-0.1,0-0.2,0.1-0.3,0.1
				c0.1-0.3,0.1-0.7,0.1-0.8c-0.3-0.2-0.4,0.5-0.6,1c-0.9,0.3-1.9,0.4-2.8,0.3c-0.8-0.2-1.4-1.5-1.6-2.4c0.1-0.3,0.3-0.6,0.7-0.7
				c0-0.2-0.3-0.3-0.5-0.4c1-0.5-0.4-1.3-0.4-0.7c0.2,0.2-0.3,0.5-0.4,0.1c0-0.2,0.3-0.3,0.3-0.5c-0.4,0-1,0.3-0.9,0.8
				c0,0.2,0.3,0.2,0.2,0.5c0,0-0.1,0-0.1,0h-9.4h0c-0.2,0-0.5,0-0.6-0.1c-0.1-0.3,0.2-0.3,0.2-0.5c0.1-0.5-0.5-0.8-0.9-0.8
				c0,0.2,0.4,0.3,0.3,0.5c-0.1,0.4-0.6,0.1-0.4-0.1c0-0.6-1.4,0.3-0.4,0.7c-0.2,0-0.5,0.1-0.5,0.4c0.7,0.2,0.8,0.6,0.8,1.3
				c-0.3,0.9-0.9,1.9-1.6,2.1c-0.6,0.2-1.7-0.1-2.8-0.5c-0.2-0.5-0.4-1.4-0.7-1.1c-0.1,0.1,0,0.6,0.1,0.9c-0.1,0-0.2-0.1-0.3-0.1
				c-0.3-0.5-0.4-1.4-0.7-1.2c-0.1,0.1,0,0.6,0.1,0.9c-0.1,0-0.2-0.1-0.3-0.1c-0.2-0.5-0.4-1.4-0.7-1.2c-0.1,0.1,0,0.6,0.1,0.9
				c-0.3-0.1-0.4-0.2-0.4-0.2s-0.5,0.1-0.3,0.6c0,0,1.3,1.2,3.4,2.2c-0.1,0.5-1.1,3.9-2.7,4.4c-0.5,0.2-1.2,0.2-2,0.1
				c0-0.1,0-0.2,0-0.2c0.1-0.4,0-0.7-0.3-0.8c-0.3-0.1-0.9-0.1-0.6,0.3c0.1,0.2,0.2,0.1,0.2,0.4c0,0.1-0.1,0.2-0.1,0.3
				c-0.2,0-0.4-0.1-0.6-0.1c0-0.1,0-0.2,0.1-0.4c0.1-0.4,0.1-0.7-0.3-0.9c-0.3-0.1-0.9-0.2-0.6,0.3c0.1,0.2,0.2,0.1,0.2,0.4
				c0,0.1-0.1,0.3-0.2,0.4c-0.2,0-0.4-0.1-0.6-0.1c0-0.1,0-0.2,0-0.3c0.1-0.4,0-0.7-0.3-0.8c-0.3-0.1-0.9-0.1-0.6,0.3
				c0.1,0.2,0.2,0.1,0.2,0.4c0,0.1-0.1,0.2-0.1,0.3c-0.4-0.1-0.7-0.2-0.7-0.2s-0.7,0.2-0.4,0.9c0,0,2.6,2.9,8.9,3.4v10.2h1.1v-6.9
				l1.3,0.3v6.6h0.9v-7.6h14.7v7.6h0.9V193l1.1-0.2v6.7h1.6v-10.3c5.8-0.7,8.6-3.7,8.6-3.7C205.9,184.7,205.2,184.5,205.2,184.5z
				 M194.3,190.2v-0.9h1.1v0.9H194.3z M176.4,190.2v-0.9h1.3v0.9H176.4z M178.6,190.2v-0.9h14.7v0.9H178.6z"/>
			<path class="st2" d="M192.1,159.2c-0.1-0.2-0.4-0.1-0.6-0.2c0-0.1,0.1-0.3,0.1-0.3c-0.5-0.1-0.5-0.3-0.8-0.6
				c-0.3-0.3-0.8-0.3-1.1-0.4c-0.4,0-1.2-0.2-1.5,0.1c-0.3-0.1-0.6-0.3-0.9-0.2c0.1,0.1,0.1,0.2,0.2,0.3c-0.1,0-0.3,0-0.4,0
				c0.1,0.1,0.2,0.2,0.3,0.3c-0.5,0.1-1.5-0.2-1.8,0.4c0.1,0,0.1,0.1,0.2,0.1c-0.1,0-0.1,0.1-0.2,0.1c-0.1-0.1-0.1-0.1-0.2-0.2
				c-0.7-0.6-1.7-0.6-2.5-0.6c-0.7,0-2.2-0.2-2.9,0.2c0,0,0,0,0,0c0.4-0.1,0.9-0.4,0.6-0.9c-0.2-0.4-0.8-0.2-1.2-0.2
				c0.1-0.1,0.1-0.5,0.1-0.6c-1.1-0.2-1-0.5-1.8-1c-0.7-0.5-1.5-0.5-2.3-0.5c-0.8,0-2.5-0.3-3,0.5c-0.6-0.2-1.2-0.5-1.8-0.3
				c0.1,0.1,0.2,0.3,0.4,0.5c-0.3,0-0.6,0.1-0.8,0.1c0.2,0.2,0.4,0.4,0.6,0.6c-1,0.3-3-0.1-3.6,1.1c0.1,0,0.3,0.1,0.4,0.2
				c-0.9,0.7-2,2.2-0.2,2.3c1.2,0.1,2.5-0.4,3.8-0.5c1.7-0.1,3.4-0.2,5.1,0c0.4,0,0.8,0.1,1.3,0.2c-1.2,0.2-2.9-0.1-3.5,1
				c0.1,0,0.3,0.2,0.4,0.2c-1,0.8-2.2,2.3-0.3,2.5c0.6,0.1,1.1,0,1.7-0.1c0.4,0.8,0.9,1.7,1.7,2.3c-0.1,0.1-0.2,0.2-0.3,0.2
				c-1.6,1-3.7,0.6-5.5,1.2c0,0,0,0,0,0c-2.4,0.4-5.8,1.7-5.6,6.6c0,0,0.1,0.6,0.1,1.6c-2.5,0-5.5-0.4-7.1-2.5
				c0.5-0.6,0.8-1.4,1-2.1c0.1-0.6,0.2-1.4,0.2-2.1c0.8,0.2,1.7,0.3,2.4,0.3c-0.1-0.3-0.2-0.5-0.5-0.7c0.2,0,0.5-0.1,0.8,0
				c-0.2-0.3-0.4-0.6-0.6-0.9c0.4-0.1,0.8-0.4,0.6-0.8c-0.2-0.4-0.8-0.2-1.1-0.2c0.1-0.1,0.1-0.5,0.1-0.6c-0.6-0.1-0.8-0.3-1.1-0.5
				c1.1,0,2.1,0.1,3.2,0.3c1,0.2,2,0.6,3,0.6c-0.1-0.2-0.1-0.4-0.3-0.5c0.2,0,0.4,0,0.6,0c-0.1-0.2-0.3-0.5-0.4-0.7
				c0.3-0.1,0.6-0.3,0.5-0.6c-0.1-0.3-0.6-0.2-0.9-0.2c0.1-0.1,0.1-0.4,0.1-0.4c-0.7-0.2-0.7-0.4-1.2-0.9c-0.4-0.4-1.1-0.5-1.6-0.5
				c-0.5,0-1.4-0.3-2,0c0,0,0,0,0,0c-0.1-0.4-0.8-0.3-1.2-0.3c0.1-0.1,0.1-0.5,0.2-0.6c-1-0.2-1-0.6-1.7-1.2
				c-0.6-0.5-1.5-0.7-2.3-0.7c-0.8-0.1-2.5-0.5-3,0.2c-0.6-0.3-1.1-0.6-1.8-0.4c0.1,0.2,0.1,0.4,0.4,0.5c-0.3,0-0.6,0.1-0.8,0.1
				c0.2,0.2,0.3,0.5,0.5,0.6c-1,0.2-3-0.3-3.7,0.8c0.1,0.1,0.2,0.2,0.4,0.2c-0.6,0.4-1.3,1.1-1.3,1.6c-0.2,0-0.4-0.1-0.5,0
				c0.1,0.1,0.1,0.3,0.3,0.4c-0.2,0-0.4,0-0.6,0c0.1,0.1,0.2,0.3,0.4,0.5c-0.7,0.2-2.1-0.2-2.6,0.6c0.1,0,0.2,0.1,0.3,0.2
				c-0.7,0.5-1.6,1.4-0.3,1.7c0.9,0.1,1.8-0.1,2.7-0.1c1.1,0,2.1,0.1,3.2,0.2c0,0-0.1,0.1-0.1,0.1c0.1,0,0.2,0.1,0.4,0.2
				c-0.9,0.7-1.9,2-0.2,2.2c0.7,0.1,1.3,0,2-0.2c0.9,0.6,1.5,1.4,2.3,2.1c0.7,0.7,1.7,0.7,2.6,0.9c0.3,0.9,0.7,1.7,1.2,2.5
				c0.8,1.1,2.1,1.6,3.3,1.9c1.4,0.4,2.8,0.5,4.3,0.5c-0.3,2-1.4,4.6-4.8,5.7c-2.9,0.9-4.4,3.1-5,5.5c-0.3-0.2-0.6-0.4-0.9-0.6
				c-1-0.5-2.1-0.8-3-1.6c-1.2-1-1-2.7-0.8-4.1c0.2,0,0.4,0.1,0.7,0.1c1.4,0.3,3,1.1,4.4,1.2c-0.1-0.3-0.2-0.6-0.5-0.8
				c0.3,0.1,0.6,0,0.9,0.1c-0.1-0.3-0.4-0.7-0.6-1.1c0.4-0.1,1-0.3,0.8-0.9c-0.1-0.4-0.8-0.4-1.3-0.4c0.1-0.1,0.2-0.5,0.2-0.7
				c-1.1-0.3-1-0.7-1.7-1.4c-0.6-0.6-1.6-0.8-2.4-0.9c-0.9-0.1-2.7-0.7-3.3,0c-0.6-0.3-1.2-0.7-1.9-0.6c0.1,0.2,0.1,0.4,0.4,0.6
				c-0.3-0.1-0.6,0-0.9,0c0.2,0.2,0.3,0.5,0.5,0.7c-1.1,0.2-3.2-0.5-4,0.6c0.1,0.1,0.3,0.2,0.4,0.3c-0.6,0.4-1.4,1-1.5,1.6
				c-0.5,0-1.1-0.1-1.6,0v5.5c0.4,0,0.8,0,1.3,0c0,0.2,0,0.4,0,0.6c0,0.3-0.2,0.6-0.4,0.8c-0.3-0.3-0.5-0.6-0.8-0.9v1.2
				c0.2,0.2,0.4,0.5,0.6,0.7c-0.2-0.1-0.4-0.1-0.6-0.1v0.4c0.4,0.1,0.9,0.2,1.2,0.5c0,0,0.1,0,0.1,0c2.4,2.4,6.3,5,11.6,5.1
				c0,0,2.6,0.5,4.7,1.5c0,0,0,0,0,0c1.1,1.4,2.5,2.8,3.6,4.6c-1.7,0.7-5.2,3.7-6.9,3.3c-1.2-0.3-2.1-1.1-2.6-1.6c0.7,0,1.4,0,2.1,0
				c1,0.1,2.1,0.4,3,0.3c-0.1-0.2-0.2-0.4-0.4-0.5c0.2,0,0.4-0.1,0.6-0.1c-0.1-0.2-0.3-0.4-0.5-0.7c0.3-0.1,0.6-0.3,0.5-0.7
				c-0.1-0.3-0.6-0.1-0.9-0.2c0.1-0.1,0-0.4,0.1-0.5c-0.8-0.1-0.7-0.3-1.3-0.7c-0.5-0.4-1.1-0.4-1.7-0.4c-0.6,0-1.8-0.2-2.2,0.3
				c-0.4-0.1-0.9-0.3-1.3-0.2c0.1,0.1,0.1,0.3,0.3,0.3c-0.2,0-0.4,0.1-0.6,0.1c0.1,0.1,0.3,0.3,0.4,0.4c-0.7,0.2-2.2,0-2.6,0.8
				c0.1,0,0.2,0.1,0.3,0.1c-0.6,0.5-1.4,1.6-0.1,1.7c0.4,0,0.9,0,1.3-0.1c0.5,0.5,0.8,1.1,1.4,1.5c0.8,0.6,1.9-0.1,2.8,0.3
				c0,0,0,0,0.1,0c0.4,0.2,0.8,0.4,1.3,0.4c1.7,0.1,5-2.2,7.5-3.2c1.2,2.3,1.8,5,0.8,8.3c0,0,1.9,1.3,4-1.4c0,0,0.6-8.1-4.1-11.3
				c-4.7-3.2-4.6-11.2,1.9-13.4c0,0,2.7-1.1,3.1-5.1l1.9,0.3c1.9,0.2,3.9-1.3,5.4-2.8c0.7,0.1,3.3,0,5.7-2.1
				c0.7,0.2,1.4,0.4,2.1,0.4c-0.1-0.2-0.1-0.4-0.3-0.5c0.2,0,0.4,0,0.6,0c-0.1-0.2-0.3-0.5-0.4-0.7c0.3-0.1,0.6-0.3,0.5-0.6
				c-0.1-0.3-0.6-0.2-0.9-0.2c0.1-0.1,0.1-0.4,0.1-0.4c-0.7-0.2-0.7-0.4-1.2-0.9c-0.4-0.4-1.1-0.5-1.6-0.5c-0.6,0-1.8-0.3-2.2,0.1
				c-0.4-0.2-0.8-0.4-1.3-0.3c0.1,0.1,0.1,0.3,0.3,0.4c-0.2,0-0.4,0-0.6,0c0.1,0.1,0.2,0.3,0.4,0.5c-0.7,0.2-2.1-0.2-2.6,0.6
				c0.1,0,0.2,0.1,0.3,0.2c-0.7,0.5-1.6,1.4-0.3,1.7c0.4,0.1,0.8,0,1.2,0c0,0.2,0,0.4,0,0.7c0,0.3,0.2,0.5,0.5,0.7
				c-3.4,3.2-6.3,2.9-7.4,2.6c0-0.7-0.1-1.5-0.2-2.3c0,0-0.8-6.7,6.3-6.7c0,0,0,0,0.1,0c0.3,0,0.5,0,0.8,0c0.3,0,0.6,0.1,0.9,0.1
				l-0.3-0.2c1.5-0.2,2.8-0.9,3.9-2c1.7,0,3.6-1.1,4.6-2.5c0,0,0,0,0.1,0c1.5,0.1,3.1,0.7,4.5,0.6c-0.1-0.3-0.3-0.6-0.6-0.8
				c0.3,0,0.6-0.1,0.9-0.1c-0.2-0.3-0.5-0.7-0.7-1c0.4-0.1,0.9-0.5,0.7-1c-0.2-0.4-0.9-0.2-1.3-0.3c0.1-0.1,0.1-0.6,0.1-0.7
				c-0.1,0-0.2,0-0.2,0c0.1,0,0.3,0,0.4,0c0.9,0,1.7,0.1,2.5,0.2c0.7,0.1,1.4,0.4,2.1,0.4c0-0.1-0.1-0.3-0.2-0.4c0.1,0,0.3,0,0.4,0
				c-0.1-0.2-0.2-0.3-0.3-0.5C191.9,159.6,192.2,159.5,192.1,159.2z M152.8,164.6c0.1-0.1,0.1-0.3,0.1-0.4c-0.7-0.2-0.7-0.4-1.2-0.9
				c0,0-0.1-0.1-0.1-0.1c0.1,0,0.1,0,0.2,0c1.7,0.1,3.4,0.1,5,0.4c0.1,0,0.2,0,0.4,0.1c-0.1,0.1-0.1,0.1-0.2,0.2
				c-0.8,0-1.8-0.1-2.1,0.4c-0.6-0.2-1.1-0.5-1.8-0.3c0.1,0.1,0.1,0.3,0.4,0.5C153.2,164.5,153,164.5,152.8,164.6z M154.6,169.9
				c-0.6-0.5-1.1-1.1-1.6-1.7c0.2,0,0.4,0,0.6,0c0.5,0,1,0,1.4,0c0.8,0.7,1.2,1.6,1.6,2.5C155.8,170.5,155.2,170.4,154.6,169.9z
				 M158.5,172.4c-0.8-1.3-1.1-3-1.9-4.3c0.6,0,1.2,0.1,1.8,0.1c0.3,0,0.6,0.1,0.9,0.1c0.1,0.5,0.1,1.1,0,1.6
				C159.2,170.7,159.1,171.9,158.5,172.4z M150.7,181.2c-0.1,0.7-0.2,1.5-0.2,2.2c-0.9-0.5-1.2-1.5-1.5-2.5
				C149.5,181,150.1,181.1,150.7,181.2z M144.6,185.6c0,0.7,0.1,1.3,0.2,1.9c-0.9-0.4-1.2-1.3-1.5-2.1
				C143.7,185.4,144.1,185.5,144.6,185.6z M140.6,186.6c0.2-0.2,0.4-0.5,0.5-0.8c0.1-0.2,0.1-0.4,0.1-0.7c0.6,0,1.1,0.1,1.7,0.1
				c0.4,1.1,0.7,2.2,1.9,2.6c0,0,0,0,0,0c0.2,1.1,0.6,1.9,0.9,2.4C144.1,189.6,142.4,188.5,140.6,186.6z M152.1,191.2
				c-1.3,0.2-3,0.3-4.9-0.3c-1.4-1.5-1.8-3.9-2-5.1c1.1,0.2,2.2,0.5,3.1,0.4c-0.1-0.4-0.3-0.7-0.6-0.9c0.3,0,0.7-0.1,1,0
				c-0.2-0.4-0.5-0.8-0.8-1.2c0.5-0.1,1.1-0.5,0.8-1.1c-0.2-0.5-1-0.3-1.5-0.3c0.1-0.2,0.1-0.6,0.2-0.8c-1.2-0.2-1.2-0.6-2-1.2
				c0.3,0,0.5,0,0.8,0c0.7,0.1,1.3,0.1,2,0.2c0.5,1.4,0.6,2.9,2.2,3.4c0,0,0,0,0,0c0.1,0.5,0.3,1,0.6,1.4c0.7,0.9,1.9,1.2,2.9,1.7
				c0.5,0.2,1,0.5,1.4,0.9c0,0,0.1,0.1,0.1,0.1c-0.1,1.2-0.1,2.5,0.2,3.6C155,191.5,153.6,191,152.1,191.2z M150.2,202.8
				c-0.6-0.2-0.9-0.8-1.4-1.3c0.3-0.1,0.7-0.1,1-0.2c0.3,0,0.5,0,0.8-0.1c0.3,0.5,0.8,1.1,1.3,1.6
				C151.4,202.8,150.8,203,150.2,202.8z M179.4,172.7c0.2,0,0.3,0.1,0.5,0.1c-0.8,0.6-2.5,1.5-4.6,1.4c0.6-0.7,1.1-1.3,1.5-1.8
				C177.6,172.5,178.5,172.6,179.4,172.7z M174.5,173c0-0.1-0.1-0.3,0-0.5c0.4,0,0.9-0.1,1.3-0.1c0.1,0,0.2,0,0.4,0
				c-0.4,0.4-0.8,0.8-1.1,1.2C174.7,173.5,174.5,173.2,174.5,173z M177.7,165.1c-0.7-0.5-1.2-1.2-1.6-1.9c0.6-0.1,1.1-0.2,1.7-0.2
				c0.5,0,1.1,0,1.6,0C179,163.7,178.4,164.4,177.7,165.1z M179.3,164.9c0.5-0.6,1-1.3,1.3-2c0.8,0,1.6,0,2.4,0.1
				C182.1,164,180.6,164.8,179.3,164.9z"/>
		</g>
		<g>
			<path class="st2" d="M314,174.7c0,0-1.6,4.6-6.4,5.4c-0.9,0.2-1.8,0-2.9-0.3c2.7-2.2,2.6-6.3,2.6-6.3l-1.1-0.4
				c-0.7,3.7-3.7,4.7-5.2,5c-2.1-1.2-4.2-2.8-6-4.3v-8.7c0-1,0.7-1.6,0.9-1.6c0.2,0.2,0.4,0.2,0.7,0.2c0.5,0,1-0.4,1-1
				c0-0.3-0.1-0.6-0.4-0.8c-0.1-0.4,0.1-0.8,0.2-0.9c0,0,0,0,0.1,0c3.3-0.3,4.4-3.3,4.5-3.9c0.1-0.7-0.7-0.7-0.7-0.7s-0.9,2.5-3.6,3
				c-0.5,0.1-1,0-1.6-0.2c1.5-1.2,1.5-3.5,1.5-3.5l-0.6-0.2c-0.4,2.1-2.1,2.6-2.9,2.8c-2.2-1.3-4.5-3.4-5.4-4.2
				c-0.5-0.5-1.1-0.8-1.7-0.9c-0.1-0.7-0.5-1.3-1.1-1.6c0.4-1.1,0.6-2.7,0.6-3.1c0-0.7-0.5-1.2-1.2-1.2s-1.2,0.6-1.2,1.3
				c0,0.4,0.2,1.7,0.5,3h-0.3c-1.1,0-2,0.7-2,1.9v0.1c0,0,0,0.1,0,0.1c-0.3,0.2-0.5,0.3-0.8,0.5c-0.9,0.8-3.2,3-5.5,4.3
				c-0.8-0.2-2.3-0.8-2.6-2.8l-0.6,0.2c0,0-0.1,2.2,1.3,3.5c-0.6,0.2-1.1,0.2-1.5,0.2c-2.6-0.5-3.5-3-3.5-3s-0.7,0-0.7,0.7
				c0.1,0.7,1.2,3.6,4.4,3.9c0.2,0,0.3,0,0.5,0c0.1,0.2,0.3,0.6,0.2,0.9c-0.2,0.2-0.4,0.5-0.4,0.8c0,0.5,0.5,1,1,1
				c0.3,0,0.5-0.1,0.7-0.2c0.1,0,0.7,0.6,0.7,1.6l0-0.1v7.9c-1.8,1.7-4.4,3.7-6.9,5.2c-1.4-0.3-4-1.4-4.7-5l-1,0.4
				c0,0-0.1,4,2.3,6.2c-1,0.3-1.9,0.4-2.7,0.3c-4.7-0.9-6.3-5.4-6.3-5.4s-1.3,0-1.2,1.2c0.1,1.2,2.1,6.2,7.6,7
				c-0.1,0.1-0.2,0.2-0.3,0.3l0.4,0.4h1.3c0.2,0.6,0.3,0.8,0.2,1.2c-0.4,0.3-0.7,0.8-0.7,1.4c0,1,0.8,1.7,1.8,1.7
				c0.5,0,0.6-0.2,0.9-0.5c0.1,0,0.6,0.3,0.6,0.9v23.7c-0.6,0.7-0.2,2.1-0.1,2.3c-0.4,0.2-0.7,0.8-0.8,2.1c0,0-4.6,0.8-4.4,5.7
				l47.9-0.1c0.1-5-4.5-5.7-4.5-5.7c-0.1-1.3-0.4-1.8-0.8-2.1c0-1.1-0.4-1.5-0.4-1.7v-23.7c0-0.9,0.8-1.4,1-1.4
				c0.3,0.3,0.7,0.4,1.1,0.4c1,0,1.7-0.8,1.7-1.8c0-0.6-0.3-1.1-0.7-1.4c-0.2-0.6,0.2-1.4,0.4-1.7c0,0,0.1,0,0.1,0
				c5.8-0.6,7.9-5.9,8.1-7C315.3,174.7,314,174.7,314,174.7z M275.9,214.1l-4.1,0c0.1-1.7-0.8-2.2-0.8-2.3v-3.9l4.9-0.5V214.1z
				 M275.9,206.6L271,207v-1l4.9-0.5V206.6z M275.9,204.8l-4.9,0.4v-18h4.9V204.8z M288.8,214.8h-8.6v-10.1c0,0,0-3.4,3.7-3.6
				c4.3,0.2,4.9,3.6,4.9,3.6V214.8z M299.2,212.3c-0.6,0.2-0.9,1-0.8,1.7l-5.3,0v-6.3l6.1,1.1V212.3z M299.2,207.9l-6.1-1v-1.1
				l6.1,1.1V207.9z M299.2,206l-6.1-0.9v-17.9h6.1V206z"/>
			<path class="st2" d="M283.9,201.1C283.8,201.1,283.9,201.1,283.9,201.1C283.9,201.1,284,201.1,283.9,201.1z"/>
		</g>
	</g>
	<g style="clip-path:url(#SVGID_00000049179531566483987960000013675262958533996216_);">
		<path class="st1" d="M123.1,331.8C123.1,331.8,123,331.8,123.1,331.8c-3.5,1.6-7.4,3.4-10.8,4.9c-0.4,0-1.2,0.2-1.8,0.3
			c0,0,0.1-0.1,0.1-0.1c-9.7,0.7-19.4,1.4-29.1,2.1c-9.1,0.7-18.2,1.3-27.3,2c2,1.8,3.9,3.6,5.9,5.3c-0.2,0-0.4,0.1-0.6,0.1
			c-8.5,2-16.9,4-25.4,5.9c0.1-10.3,0.2-20.6,0.3-30.9c2.8,1.2,6.9,2.9,12.2,4.2c5.8,1.4,9.9,1.6,25.5,2.2
			c9.8,0.4,15.1,0.5,20.1,0.7c9.1,0.4,16.5,0.8,21.2,1C116.7,330.3,119.9,331,123.1,331.8z"/>
		<g>
			<path class="st4" d="M358.9,331.9c2.2,3.2,4.4,6.4,6.6,9.6c8.5,6.3,16.9,12.6,25.4,18.9c-6.5-7.8-13.1-15.6-19.6-23.4
				c-0.6-0.1-1.3-0.2-1.8-0.3C366.2,335.2,362.3,333.4,358.9,331.9z"/>
			<path class="st1" d="M358.8,331.8C358.8,331.8,358.8,331.8,358.8,331.8c3.5,1.6,7.4,3.4,10.8,4.9c0.4,0,1.2,0.2,1.8,0.3
				c0,0-0.1-0.1-0.1-0.1c9.7,0.7,19.4,1.4,29.1,2.1c9.1,0.7,18.2,1.3,27.3,2c-2,1.8-3.9,3.6-5.9,5.3c0.2,0,0.4,0.1,0.6,0.1
				c8.5,2,16.9,4,25.4,5.9c-0.1-10.3-0.2-20.6-0.3-30.9c-2.8,1.2-6.9,2.9-12.2,4.2c-5.8,1.4-9.9,1.6-25.5,2.2
				c-9.8,0.4-15.1,0.5-20.1,0.7c-9.1,0.4-16.5,0.8-21.2,1C365.2,330.3,362,331,358.8,331.8z"/>
			<path class="st5" d="M371.2,336.8c6.6,7.8,13.1,15.7,19.7,23.5c2.2,1.6,4.4,3.3,6.6,4.9c4.4,12.1,8.7,24.1,13.1,36.2
				c-1.1-15.3-2.2-30.7-3.3-46c-2.3-5.5-4.6-11-6.9-16.5C390.6,338.2,380.9,337.5,371.2,336.8z"/>
			<path class="st4" d="M410.6,401.4c0.5,1.4,1,2.8,1.5,4.2c-0.8,7.1-1.5,14.3-2.3,21.4h30.3c-1-19.3-2.1-38.7-3.1-58
				c-4.9-7.5-9.8-15.1-14.6-22.6c-0.2,0-0.4-0.1-0.6-0.1c1.9-1.8,3.9-3.5,5.9-5.3c-9.1-0.7-18.2-1.3-27.3-2c2.3,5.5,4.6,11,6.9,16.5
				C408.3,370.7,409.4,386.1,410.6,401.4z"/>
			<path class="st5" d="M421.7,346.2c2.6,3.7,5.3,7.5,7.9,11.5c2.6,3.8,5,7.6,7.3,11.3c1,19.3,2,38.7,3.1,58h8.5
				c-0.3-24.9-0.5-49.8-0.8-74.7c-4.2-1-8.5-2-12.7-3C430.6,348.3,426.2,347.3,421.7,346.2z"/>
		</g>
		<g>
			<path class="st4" d="M403.3,300.8L403.3,300.8c1.8,0.8,3.7,1.6,5.5,2.3c2-0.2,3.9-0.5,5.9-0.7c-1-0.9-2.1-1.8-3.1-2.6
				C408.8,300.1,406,300.4,403.3,300.8z"/>
			<path class="st5" d="M403.3,300.8c1.6,11.6,3.2,23.2,4.9,34.8c1.4,0,2.9-0.1,4.3-0.1c0.8-11,1.5-22,2.3-33.1c0,0,0,0-0.1,0
				c-2,0.2-3.9,0.5-5.9,0.7C406.9,302.3,405.1,301.6,403.3,300.8z"/>
		</g>
		<path class="st5" d="M87.1,300.8c-1.6,11.6-3.2,23.2-4.9,34.8c-1.4,0-2.9-0.1-4.3-0.1c-0.8-11-1.5-22-2.3-33.1c0,0,0,0,0.1,0
			c2,0.2,3.9,0.5,5.9,0.7C83.5,302.3,85.3,301.6,87.1,300.8z"/>
		<g>
			<g>
				<g>
					<path class="st4" d="M81.2,324.1c-1.1,0-2.7-0.2-4.1-1.3c-0.4-0.3-1.4-1.2-1.1-2.3c0.2-0.6,0.7-1,1.6-1.2L78,321
						c0-0.1,0-0.2,0-0.2c0,0.1,0.1,0.2,0.5,0.5c1.3,1.1,3.5,0.8,3.5,0.8c1.2-0.2,2.2-0.7,2.8-1.2l0.1-1.8c0.6,0,2,0.1,2.3,1.2
						c0.1,0.3,0.1,0.7-0.2,1.3c-0.7,1.1-2.8,2.2-4.6,2.5C82.1,324,81.8,324.1,81.2,324.1z"/>
				</g>
			</g>
		</g>
		<g>
			<g>
				<g>
					<path class="st4" d="M80.6,312.1c-2.7,0-5.5-0.6-6.2-1.3c-0.2-0.2-0.4-0.6-0.3-0.9c0.1-1,1.3-1.2,2.1-1.3l0.1,0.9
						c1,0.3,3.1,0.7,5.4,0.5c1.6-0.1,3.1-0.4,3.9-0.7l0.1-1.2c0.8,0.1,2.2,0.3,2.3,1.4c0,0.3-0.1,0.6-0.3,0.9
						c-0.9,1-4.3,1.5-5.9,1.6C81.4,312.1,81,312.1,80.6,312.1z"/>
				</g>
			</g>
		</g>
		<g>
			<g>
				<path class="st4" d="M236.6,337.7c-1.6,0-3.2,0-4.7,0c-28.7-0.3-52.2-3.3-66.2-5.2c-36.9-4.8-58.2-8.6-71-10.9
					c-6.2-1.1-10.6-1.9-13.9-2.3l-0.1,0c-4.7-0.5-5.7-0.9-5.7-2.1c0-1,1.2-1.2,1.6-1.4l0.2,0.8c0.3,0.1,1.3,0.4,4.1,0.7l0.1,0
					c3.4,0.4,7.8,1.2,14,2.3c12.7,2.3,34.1,6.1,70.9,10.8c14,1.8,37.4,4.8,66,5.1c54.2,0.6,113-9,144.5-14.2
					c13.7-2.2,22.8-3.7,25.6-3.5c1.4,0.1,4-0.2,9.1-0.9c1-0.1,1.6-0.3,1.9-0.4l1.2-1.5c0.8,0.6,1.1,1.2,1,1.9
					c-0.2,1.4-2.1,1.8-3.9,2c-5.2,0.7-7.9,1.1-9.5,0.9c-2.6-0.2-12,1.3-25.1,3.5C346,328.5,289.6,337.7,236.6,337.7z M76.7,316.8
					l0.2,0.7c0,0,0-0.1,0-0.2C76.9,317.1,76.8,316.9,76.7,316.8z"/>
			</g>
		</g>
		<g>
			<path class="st4" d="M123,331.9c-2.2,3.2-4.4,6.4-6.6,9.6c-8.5,6.3-16.9,12.6-25.4,18.9c6.5-7.8,13.1-15.6,19.6-23.4
				c0.6-0.1,1.3-0.2,1.8-0.3C115.7,335.2,119.6,333.4,123,331.9z"/>
			<path class="st2" d="M110.7,336.8c-6.6,7.8-13.1,15.7-19.7,23.5c-2.2,1.6-4.4,3.3-6.6,4.9c-4.4,12.1-8.7,24.1-13.1,36.2
				c1.1-15.3,2.2-30.7,3.3-46c2.3-5.5,4.6-11,6.9-16.5C91.2,338.2,101,337.5,110.7,336.8z"/>
			<path class="st4" d="M71.3,401.4c-0.5,1.4-1,2.8-1.5,4.2c0.8,7.1,1.5,14.3,2.3,21.4H41.8c1-19.3,2.1-38.7,3.1-58
				c4.9-7.5,9.8-15.1,14.6-22.6c0.2,0,0.4-0.1,0.6-0.1c-1.9-1.8-3.9-3.5-5.9-5.3c9.1-0.7,18.2-1.3,27.3-2c-2.3,5.5-4.6,11-6.9,16.5
				C73.5,370.7,72.4,386.1,71.3,401.4z"/>
			<path class="st2" d="M59.5,346.4c-4.9,7.5-9.8,15.1-14.6,22.6c-1,19.3-2,38.7-3.1,58h-8.5c0.3-24.9,0.5-49.8,0.8-74.7
				C42.6,350.3,51.1,348.4,59.5,346.4z"/>
			<path class="st6" d="M59.7,346.1c-0.1,0.1-0.1,0.1-0.2,0.2"/>
		</g>
		<g>
			<g>
				<g>
					<path class="st4" d="M87.1,300.8L87.1,300.8c-1.8,0.8-3.7,1.6-5.5,2.3c-2-0.2-3.9-0.5-5.9-0.7c1-0.9,2.1-1.8,3.1-2.6
						C81.6,300.1,84.4,300.4,87.1,300.8z"/>
				</g>
			</g>
		</g>
		<g>
			<g>
				<g>
					<path class="st4" d="M409.8,326.2c-1.1,0-2.7-0.2-4.1-1.3c-0.4-0.3-1.4-1.2-1.1-2.3c0.2-0.6,0.7-1,1.6-1.2l0.4,1.7
						c0-0.1,0-0.2,0-0.2c0,0.1,0.1,0.2,0.5,0.5c1.3,1.1,3.5,0.8,3.5,0.8c1.2-0.2,2.2-0.7,2.8-1.2l0.1-1.8c0.6,0,2,0.1,2.3,1.2
						c0.1,0.3,0.1,0.7-0.2,1.3c-0.7,1.1-2.8,2.2-4.6,2.5C410.7,326.2,410.4,326.2,409.8,326.2z"/>
				</g>
			</g>
		</g>
		<g>
			<g>
				<g>
					<path class="st4" d="M409.2,314.2c-2.7,0-5.5-0.6-6.2-1.3c-0.2-0.2-0.4-0.6-0.3-0.9c0.1-1,1.3-1.2,2.1-1.3l0.1,0.9
						c1,0.3,3.1,0.7,5.4,0.5c1.6-0.1,3.1-0.4,3.9-0.7l0.1-1.2c0.8,0.1,2.2,0.3,2.3,1.4c0,0.3-0.1,0.6-0.3,0.9
						c-0.9,1-4.3,1.5-5.9,1.6C410,314.2,409.6,314.2,409.2,314.2z"/>
				</g>
			</g>
		</g>
		<g>
			<g>
				<g>
					<g>
						<g>
							<g>
								<g>
									<path class="st7" d="M191.2,243.3c0,0-2.4,0.1-5.2-0.4c0,0-0.8-0.1-1.8-0.4c0,0-2.1-0.6-2.6-0.8c-0.5-0.2-1.3-0.3-1.7-0.2
										c-0.4,0.1-2.2,0.4-2.4,0.5c-0.3,0.1-2.7,1.1-2.9,1.3c-0.1,0.2,0.2,0.4,0.2,0.4s0.6,0.1,0.7,0.1c0.6,0.2,2.4,0,3,0
										c0.1,0,0.2,0,0.4,0l1.1,0.3c0,0-1,0.1-0.7,0.7c0.3,0.2,0.6,0.4,1.1,0.6c0.8,0.4,1.7,0.9,2.6,1.1c0.5,0.1,0.7,0.1,3,0
										c2.1-0.1,3.2-0.1,3.4-0.1c2.3,0.1,3.1,0.5,3.4,0.3c0.3-0.3,0.1-0.9-0.1-1.4C192.4,244.2,191.6,243.6,191.2,243.3z"/>
								</g>
							</g>
							<path class="st8" d="M179.3,244.9c0,0-0.1,0-0.1-0.3c0-0.2,0.4-0.5,1.1-0.5c0.8,0,1.4,0,1.9,0c0.5,0,0.7,0.1,1.1,0.1
								s0.6,0,0.6,0s-0.1,0.3-1.2,0.1s-2.2-0.2-2.6-0.1S179.2,244.5,179.3,244.9z"/>
						</g>
						<g>
							<g>
								<path class="st8" d="M187.9,243.2c0.2,0.8,0.3,2,0,3.3c0.9,0,1.4-0.1,1.6,0c2.3,0.1,3.1,0.5,3.4,0.3
									c0.3-0.3,0.1-0.9-0.1-1.4c-0.4-1.1-1.2-1.8-1.6-2.1C191.2,243.3,189.8,243.3,187.9,243.2z"/>
							</g>
						</g>
						<path class="st9" d="M215.6,227.1"/>
					</g>
				</g>
				<g>
					<g>
						<g>
							<path class="st7" d="M280,242.7c0,0,2.4,0.1,5.2-0.4c0,0,0.8-0.1,1.8-0.4c0,0,2.1-0.6,2.6-0.8c0.5-0.2,1.3-0.3,1.7-0.2
								c0.4,0.1,2.2,0.4,2.4,0.5s2.7,1.1,2.9,1.3c0.1,0.2-0.2,0.4-0.2,0.4s-0.6,0.1-0.7,0.1c-0.6,0.2-2.4,0-3,0c-0.1,0-0.2,0-0.4,0
								l-1.1,0.3c0,0,1,0.1,0.7,0.7c-0.3,0.2-0.6,0.4-1.1,0.6c-0.8,0.4-1.7,0.9-2.6,1.1c-0.5,0.1-0.7,0.1-3,0
								c-2.1-0.1-3.2-0.1-3.4-0.1c-2.3,0.1-3.1,0.5-3.4,0.3c-0.3-0.3-0.1-0.9,0.1-1.4C278.7,243.7,279.6,243,280,242.7z"/>
						</g>
					</g>
					<path class="st8" d="M291.9,244.3c0,0,0.1,0,0.1-0.3c0-0.2-0.4-0.5-1.1-0.5c-0.8,0-1.4,0-1.9,0c-0.5,0-0.7,0.1-1.1,0.1
						s-0.6,0-0.6,0s0.1,0.3,1.2,0.1c1.1-0.2,2.2-0.2,2.6-0.1C291.5,243.9,291.9,243.9,291.9,244.3z"/>
				</g>
				<g>
					<g>
						<path class="st8" d="M283.2,242.6c-0.2,0.8-0.3,2,0,3.3c-0.9,0-1.4-0.1-1.6,0c-2.3,0.1-3.1,0.5-3.4,0.3
							c-0.3-0.3-0.1-0.9,0.1-1.4c0.4-1.1,1.2-1.8,1.6-2.1C279.9,242.7,281.3,242.8,283.2,242.6z"/>
					</g>
				</g>
			</g>
			<ellipse class="st10" cx="236.4" cy="255.2" rx="0.4" ry="0.5"/>
			<ellipse class="st10" cx="236.4" cy="252.7" rx="0.4" ry="0.5"/>
			<ellipse class="st10" cx="236.8" cy="250.4" rx="0.4" ry="0.5"/>
			<ellipse class="st10" cx="237.1" cy="247.9" rx="0.4" ry="0.5"/>
			<ellipse class="st10" cx="235.4" cy="244.2" rx="0.4" ry="0.5"/>
			<g>
				<g>
					<g>
						<g>
							<g>
								<g>
									<path class="st7" d="M231.2,332.7c0,0.2,0,0.5-0.1,0.8c-0.1,0.7-0.3,1.5-0.5,2c-0.5,1-1.5,1.2-2.5,1.7
										c-1.7,0.9-3.5,1.6-5.4,1.6c-0.1,0-0.3,0-0.4,0c-0.4,0-0.9-0.1-1.1-0.4c-0.2-0.2-0.2-0.5-0.1-0.8c0,0,0,0,0,0
										c0-0.1,0.1-0.3,0.2-0.4c0.3-0.6,0.7-1.2,1.2-1.7c0.3-0.3,0.5-0.6,0.8-0.8c0.3-0.2,0.4-0.4,0.5-0.5c0.4-0.4,1.6-1.4,3.6-3.2
										c0-0.1,0-0.3,0-0.5c0-0.5,0-1.1,0-1.6c0-0.7,0-1.4,0-2.1c1.2,0,2.4,0,3.6,0c0,0.7,0,1.4,0,2.1c0,0.5,0,1.1,0,1.6
										C231.2,331.2,231.2,332,231.2,332.7z"/>
									<path class="st11" d="M231.2,332.7c0.1,0.2,0.1,0.6,0.2,0.9c0.1,0.7,0,1.2,0,1.3c-0.1,0.5-0.5,1-3.2,2.3
										c0,0-3.1,1.5-5.4,1.6c-0.1,0-0.3,0-0.4,0c-0.4,0-0.9-0.1-1.1-0.4c-0.2-0.2-0.2-0.5-0.1-0.8c0,0,0,0,0,0
										c0-0.1,0.1-0.3,0.2-0.4c0.3-0.6,0.7-1.2,1.2-1.7c0.3-0.3,0.5-0.6,0.8-0.8c-0.3,0.3-0.9,1.1-0.6,1.5c0.3,0.6,2,0.3,2.6,0.2
										C226.6,336,228.8,335.3,231.2,332.7z"/>
								</g>
								<path class="st8" d="M231.1,330.5h-3.7c0-0.5,0-1.1,0-1.6h3.6C231.1,329.4,231.1,329.9,231.1,330.5z"/>
							</g>
							<g>
								<g>
									<path class="st7" d="M249.7,338.4c-0.2,0.3-0.7,0.4-1.1,0.4c-0.1,0-0.3,0-0.4,0c-1.9,0-3.8-0.7-5.4-1.6
										c-1-0.6-1.9-0.7-2.5-1.7c-0.2-0.4-0.4-1.3-0.5-2c0-0.3-0.1-0.6-0.1-0.8c0-0.8,0-1.5,0.1-2.3c0-0.5,0-1.1,0-1.6
										c0-0.7,0-1.4,0-2.1c1.2,0,2.4,0,3.6,0c0,0.7,0,1.4,0,2.1c0,0.5,0,1.1,0,1.6c0,0.1,0,0.3,0,0.5c2,1.8,3.2,2.8,3.6,3.2
										c0.1,0.1,0.3,0.2,0.5,0.5c0.3,0.3,0.6,0.6,0.8,0.8c0.5,0.5,0.9,1.1,1.2,1.7c0.1,0.1,0.1,0.3,0.2,0.4c0,0,0,0,0,0
										C249.9,337.9,249.9,338.2,249.7,338.4z"/>
									<path class="st11" d="M239.7,332.7c-0.1,0.2-0.1,0.6-0.2,0.9c-0.1,0.7,0,1.2,0,1.3c0.1,0.5,0.5,1,3.2,2.3
										c0,0,3.1,1.5,5.4,1.6c0.1,0,0.3,0,0.4,0c0.4,0,0.9-0.1,1.1-0.4c0.2-0.2,0.2-0.5,0.1-0.8c0,0,0,0,0,0c0-0.1-0.1-0.3-0.2-0.4
										c-0.3-0.6-0.7-1.2-1.2-1.7c-0.3-0.3-0.5-0.6-0.8-0.8c0.3,0.3,0.9,1.1,0.6,1.5c-0.3,0.6-2,0.3-2.6,0.2
										C244.3,336,242.1,335.3,239.7,332.7z"/>
								</g>
								<path class="st8" d="M243.5,330.5h-3.7c0-0.5,0-1.1,0-1.6h3.6C243.4,329.4,243.5,329.9,243.5,330.5z"/>
							</g>
							<g>
								<g>
									<path class="st12" d="M247.1,279.8l-0.1,4.4l0,2.8l-0.5,41.9h-10.3c-0.2-15-0.4-30.1-0.6-45.1c-0.2,15-0.4,30.1-0.6,45.1
										H225l-0.5-41.9l0-2.8l-0.1-4.4H247.1z"/>
								</g>
								<g>
									<path class="st13" d="M235.8,287.8c-3.7,0.4-7.5,0.7-11.2,1.1l0-2.8h10.8C235.5,286.6,235.6,287.2,235.8,287.8z"/>
								</g>
								<g>
									<path class="st13" d="M247.1,286.1l0,2.8c-3.8-0.4-7.5-0.7-11.3-1.1c0.1-0.6,0.2-1.1,0.3-1.7H247.1z"/>
								</g>
								<g>
									<path class="st13" d="M235.8,283.6c-0.2,13.8-0.4,27.6-0.6,41.4h-0.7l-0.2-41.5C234.8,283.6,235.3,283.6,235.8,283.6z"/>
								</g>
								<g>
									<path class="st13" d="M237.2,283.6l-0.2,41.5l-0.7,0c-0.2-13.8-0.4-27.6-0.6-41.5C236.2,283.6,236.7,283.6,237.2,283.6z"/>
								</g>
								<polygon class="st7" points="239.5,243.8 231.9,243.8 232.3,237.7 232.4,237.3 232.6,234.9 238.8,234.9 239,237 239,237.6 
																	"/>
								<g>
									<g>
										<path class="st7" d="M242.4,227.5c0.2-0.7,1.2-1.3,1.6-1.1c0.4,0.2,0.6,1.4,0.5,2.2c-0.2,0.7-0.9,2.1-1.1,2.4
											c-0.2,0.3-1.1,0.8-1.7,0.7L242.4,227.5z"/>
										<path class="st8" d="M242.6,227.1c-0.1,0.1-0.2,0.3-0.2,0.4l-0.7,4.1c0.4,0.1,0.9-0.1,1.2-0.3L242.6,227.1z"/>
										<path class="st7" d="M228.8,227.5c-0.2-0.7-1.2-1.3-1.6-1.1c-0.4,0.2-0.6,1.4-0.5,2.2c0.2,0.7,0.9,2.1,1.1,2.4
											c0.2,0.3,1.1,0.8,1.7,0.7L228.8,227.5z"/>
										<path class="st8" d="M228.5,227.1c0.1,0.1,0.2,0.3,0.2,0.4l0.7,4.1c-0.4,0.1-0.9-0.1-1.2-0.3L228.5,227.1z"/>
									</g>
									<path class="st8" d="M239,237c-0.3,0.3-0.6,0.6-0.8,0.8c-0.6,0.5-0.9,0.8-1.4,0.9c-0.3,0.1-0.3,0-1.2,0
										c-1.1,0-1.1,0.1-1.4,0c-0.3-0.1-0.6-0.4-1.2-0.9c-0.2-0.2-0.4-0.3-0.5-0.5l0.2-2.4h6.3L239,237z"/>
									<path class="st7" d="M242.9,224.7c-0.1,1.4-0.3,2.1-0.6,4.3c-0.1,0.9-0.3,1.7-0.3,2.6c0,0.2,0,0.5-0.1,0.8
										c0,0.2-0.1,0.3-0.1,0.5c-0.1,0.4-0.3,0.7-0.5,0.9c-0.6,0.9-1.2,1.8-2.3,2.6c-0.4,0.4-0.7,0.5-1.4,1
										c-0.3,0.3-0.4,0.4-0.6,0.5c-0.4,0.2-0.9,0.3-1.3,0.3c-0.3,0-0.5,0-0.8,0c-0.4,0-0.8,0-1.3-0.3c-0.2-0.1-0.3-0.2-0.6-0.5
										c-0.7-0.6-0.9-0.7-1.4-1c-1.1-0.8-1.7-1.7-2.3-2.6c-0.2-0.3-0.4-0.5-0.5-0.9c-0.2-0.6-0.2-1-0.2-1.3v0
										c0-0.9-0.2-1.7-0.3-2.6c-0.2-2.2-0.4-3-0.6-4.3c-0.2-2.4-0.4-4.4,0.4-6c1.5-2.9,5.8-3.5,7-3.6c0,0,0.1,0,0.1,0
										c0,0,0.1,0,0.1,0c1.2,0.1,5.5,0.6,7,3.6C243.4,220.2,243.2,222.2,242.9,224.7z"/>
									<path class="st14" d="M235.6,213.4c0.8-0.5,1.8-0.7,2.6-0.6c0.8,0.1,3.8,1.5,5,2.5c2.1,1.9,2,4.5,2.1,5.5
										c0.1,2.8-1,4.9-1.5,5.6c-0.2,0.1-0.4,0.3-0.6,0.5c-0.6,0.8-0.6,1.7-0.7,1.7c-0.1,0-0.2-1.5,0.1-3.2c0-0.2,0.1-0.7,0.1-1.2
										c-0.1-0.5-0.3-0.9-0.4-1.2c-0.3,0.9-0.8,1.7-1,1.6c-0.1,0-0.4-0.5-0.7-1.1c-0.6-1.1-0.8-1.5-1.1-1.9c0,0.2-0.6,2-0.8,2
										c-0.2,0-0.5-1.3-0.8-2.1c-0.3-0.9-1-2.3-1.1-2.2c-0.1,0-1.2,0.7-1.2,0.7s-1.1-0.7-1.2-0.7c-0.1,0-0.8,1.4-1.1,2.2
										c-0.3,0.9-0.6,2.2-0.8,2.1c-0.2,0-0.8-1.8-0.8-2c-0.3,0.4-0.4,0.8-1.1,1.9c-0.3,0.6-0.6,1-0.7,1.1c-0.2,0-0.6-0.8-1-1.6
										c-0.3,0.4-0.4,1-0.4,1.2c0,0.1,0,0.1,0,0.2c0,0.3,0,0.6,0,0.7c0.1,0.8,0.2,1.4,0.1,2.2c0,0.5-0.2,0.8-0.2,0.8
										c-0.1,0,0-0.8-0.4-1.3c-0.2-0.2-0.5-0.3-0.7-0.3c-0.5-0.8-1.6-2.8-1.5-5.6c0-1,0-3.6,2.1-5.5c1.1-1,4.2-2.4,5-2.5
										C233.8,212.8,234.8,212.9,235.6,213.4z"/>
								</g>
								<path class="st15" d="M230.4,240.1"/>
								<g>
									<g>
										<path class="st12" d="M248.7,287.6c-2.2-0.3-4.5-0.6-6.9-0.8c-2.1-0.2-4.2-0.3-6.1-0.4c-4.3,0.3-8.5,0.6-12.8,1
											c0-14.9-0.1-29.7-0.1-44.6c2.6-0.5,5.1-1,7.7-1.4v-2.4c4-0.1,5,1.6,5.3,2.2c0.2-0.6,1.3-2.3,5.3-2.2v2.4
											c2.6,0.5,5.1,1,7.7,1.4C248.6,257.7,248.6,272.7,248.7,287.6z"/>
									</g>
									<line class="st15" x1="235.7" y1="241.2" x2="235.7" y2="286.4"/>
									<line class="st15" x1="233.1" y1="247" x2="238.2" y2="247"/>
									<line class="st15" x1="233.1" y1="259.5" x2="238.2" y2="259.5"/>
									<line class="st15" x1="233.1" y1="270.2" x2="238.2" y2="270.2"/>
									<line class="st15" x1="233.1" y1="280.8" x2="238.2" y2="280.8"/>
									<path class="st16" d="M235.7,241.6c0,0-1.8-2.5-5.3-1.5v-1.1c0,0,4.2-0.2,5.3,2.2V241.6z"/>
									<path class="st16" d="M235.7,241.6c0,0,1.8-2.5,5.3-1.5v-1.1c0,0-4.2-0.2-5.3,2.2V241.6z"/>
								</g>
								<g>
									<g>
										<path d="M240.8,226.8c-1.2-0.6-2.7-0.5-3.8,0.2c0,0-0.3-0.4-0.3-0.4C238,225.8,239.8,225.8,240.8,226.8L240.8,226.8z"/>
									</g>
								</g>
								<g>
									<g>
										<path d="M230.4,226.6c1.3-0.7,2.9-0.7,4.3,0.1l-0.2,0.4C233.2,226.3,231.7,226.3,230.4,226.6L230.4,226.6z"/>
									</g>
								</g>
								<path class="st17" d="M233.5,234.5c-0.1,0.3,1,1.2,2.2,1.2c1.1,0,2.1-1,2-1.2c-0.1-0.2-0.7,0.1-2.1,0.1
									C234.1,234.6,233.5,234.4,233.5,234.5z"/>
								<g>
									<path class="st17" d="M234.7,232.3c0.6-0.3,1.2-0.3,1.8,0C235.9,232.5,235.3,232.6,234.7,232.3L234.7,232.3z"/>
								</g>
								<g>
									<path d="M237.5,229.2C237.5,229.2,237.5,229.2,237.5,229.2c-0.1,0-0.1-0.1-0.2-0.1c0-0.1,0.1-0.2,0.2-0.3
										c0,0,0.1-0.1,0.2-0.2c0.2-0.1,0.3-0.1,0.7-0.1c0.6,0,0.6-0.1,0.8,0c0.2,0.1,0.4,0.2,0.4,0.4c0,0.1,0,0.1-0.1,0.1
										c-0.2,0.2-0.4,0.2-0.4,0.2c0,0,0.3,0.1,0.5-0.1c0.2-0.1,0.2-0.2,0.3-0.3c0.1,0,0.2,0,0.4,0.1c0.2,0,0.3,0.1,0.3,0
										c0,0-0.3-0.2-0.6-0.3c-0.1,0-0.3-0.1-0.6-0.2c-0.1,0-0.3,0-0.7,0c-0.2,0-0.5,0-0.9,0.1c-0.1,0.1-0.3,0.2-0.5,0.4
										c-0.2,0.2-0.4,0.5-0.4,0.5c0,0,0.1-0.1,0.2-0.1c0.1,0,0.1,0,0.2,0C237.4,229.3,237.5,229.2,237.5,229.2z"/>
									<path d="M239,228.4c0,0.1,0.1,0.1,0.1,0.3c0,0.3-0.2,0.4-0.2,0.5c-0.2,0.1-0.4,0.1-0.5,0.1c-0.1,0-0.2,0-0.4-0.1
										c-0.1,0-0.2-0.1-0.2-0.3c0-0.2,0-0.3,0.1-0.4c0.2,0,0.3,0,0.5-0.1C238.6,228.4,238.8,228.4,239,228.4z"/>
								</g>
								<g>
									<path d="M233.7,229.2C233.7,229.2,233.7,229.2,233.7,229.2c0.1,0,0.1-0.1,0.2-0.1c0-0.1-0.1-0.2-0.2-0.3
										c0,0-0.1-0.1-0.2-0.2c-0.2-0.1-0.3-0.1-0.7-0.1c-0.6,0-0.6-0.1-0.8,0c-0.2,0.1-0.4,0.2-0.4,0.4c0,0.1,0,0.1,0.1,0.1
										c0.2,0.2,0.4,0.2,0.4,0.2c0,0-0.3,0.1-0.5-0.1c-0.2-0.1-0.2-0.2-0.3-0.3c-0.1,0-0.2,0-0.4,0.1c-0.2,0-0.3,0.1-0.3,0
										c0,0,0.3-0.2,0.6-0.3c0.1,0,0.3-0.1,0.6-0.2c0.1,0,0.3,0,0.7,0c0.2,0,0.5,0,0.9,0.1c0.1,0.1,0.3,0.2,0.5,0.4
										c0.2,0.2,0.4,0.5,0.4,0.5c0,0-0.1-0.1-0.2-0.1c-0.1,0-0.1,0-0.2,0C233.8,229.3,233.7,229.2,233.7,229.2z"/>
									<path d="M232.2,228.4c0,0.1-0.1,0.1-0.1,0.3c0,0.3,0.2,0.4,0.2,0.5c0.2,0.1,0.4,0.1,0.5,0.1c0.1,0,0.2,0,0.4-0.1
										c0.1,0,0.2-0.1,0.2-0.3c0-0.2,0-0.3-0.1-0.4c-0.2,0-0.3,0-0.5-0.1C232.6,228.4,232.4,228.4,232.2,228.4z"/>
								</g>
								<rect x="224.7" y="325" class="st16" width="10.5" height="4.3"/>
								<rect x="236.2" y="325" class="st16" width="10.6" height="4.3"/>
							</g>
						</g>
					</g>
				</g>
				<path class="st18" d="M234.7,321.5"/>
			</g>
			<path class="st12" d="M190,241.8c7,0.7,14.7,1.2,23,1.2c4.3,0,8.4-0.2,12.3-0.4c0,3.3,0,6.6,0,10c-6.8,1.7-16.7,3.1-28,0.9
				c-3-0.6-5.7-1.4-8.2-2.2C189.4,248.1,189.7,245,190,241.8z"/>
			<path class="st12" d="M282,241.8c-7,0.7-14.7,1.2-23,1.2c-4.3,0-8.4-0.2-12.3-0.4c0,3.3,0,6.6,0,10c6.8,1.7,16.7,3.1,28,0.9
				c3-0.6,5.7-1.4,8.2-2.2C282.6,248.1,282.3,245,282,241.8z"/>
			<path class="st16" d="M190,241.7c-0.3,3.2-0.6,6.5-0.9,9.7c0.9,0.3,1.7,0.6,2.6,0.8c0.2-3.4,0.5-6.9,0.7-10.3
				C191.6,241.8,190.8,241.8,190,241.7z"/>
			<path class="st16" d="M282.1,241.7c0.3,3.2,0.6,6.5,0.9,9.7c-0.9,0.3-1.7,0.6-2.6,0.8c-0.2-3.4-0.5-6.9-0.7-10.3
				C280.5,241.9,281.3,241.8,282.1,241.7z"/>
		</g>
	</g>
</g>
</svg>
