<?xml version="1.0" encoding="utf-8"?>
<!-- Generator: Adobe Illustrator 26.0.1, SVG Export Plug-In . SVG Version: 6.00 Build 0)  -->
<svg version="1.1" id="Layer_1" xmlns="http://www.w3.org/2000/svg" xmlns:xlink="http://www.w3.org/1999/xlink" x="0px" y="0px"
	 viewBox="0 0 876.1 612.1" style="enable-background:new 0 0 876.1 612.1;" xml:space="preserve">
<style type="text/css">
	.st0{fill:#FFD7DC;}
	.st1{fill:#FFEEF1;}
	.st2{fill:#D8989D;}
	.st3{fill:#FFFFFF;}
	.st4{fill:#63010B;}
	.st5{fill:#B26426;}
	.st6{fill:#FAD4AF;}
	.st7{fill:#EFB78E;}
	.st8{fill:#191513;}
	.st9{fill:none;stroke:#F8AE38;stroke-width:2.0637;stroke-miterlimit:10;}
	.st10{fill:#9F0102;}
	.st11{fill:#F8AE38;}
	.st12{fill:#E09D6C;}
	.st13{fill:#F2B069;}
	.st14{opacity:0.16;fill:#6A5D55;}
	.st15{fill:none;}
	.st16{fill:#141312;}
	.st17{fill:#84030A;}
</style>
<g>
	<g>
		<path class="st0" d="M573.7,104c8.4,8.9,16.2,19.3,21.4,29.9c10.8,22.2,11.7,53.9,8.5,78.2c-2.3,16.8-12.1,40-7.2,57
			c6.5,23,40.9,22,57.7,27.8c15.4,5.3,30,18.3,37.9,34.1c24.1,48.5-4.9,74.6-19.4,96.3c-16.5,24.7,19.5,54.5-1.2,79.2
			c-21.6,25.8-47.6,36.4-90.8,36.4c-85.5,0-104.7,7.4-223.2-1.9c-22.5-1.8-52.4-7.4-74.8-10.1c-33.8-4-117.1-36.5-95.4-98
			c16.1-45.5,100.6-38.5,72.3-100.6c-18.5-40.6-53.3-97.1-10-133c31.4-26.1,51.6-41.1,69.8-80.5c20-43.2,48-66.6,92.1-70.7
			c23.9-2.2,48.1-2,71.6,3.9c28.6,7.2,56.9,20.9,79.9,41.3C566.4,96.5,570.1,100.1,573.7,104z"/>
		<g>
			<path class="st1" d="M277,386.2c-0.4-4.6-0.5-9.2,0.3-13.8c1.7-9.6,6.2-18.7,12-26.4c5.5-7.3,10.7-11.6,18.2-16.8
				c10.3-7.2,23.5-8.8,35.8-9.6c9.6-0.6,19.3-0.4,28.9,0c3.7,0.2,7.3,0.5,11,0.7c1.6,0.1,3.2-0.3,4.7,0.3c-1.9,0.9-3.7,2.6-5.4,4.1
				c-4.3,3.8-7.5,9.4-10.9,14c-4.2,5.8-7.8,11.9-12.3,17.5c-7.9,9.8-19.8,18.1-32.5,20.1c-11.6,1.8-24.9-1.2-35.7,4.5
				c0,0-10.8,5.7-12.5,25.5L277,386.2z"/>
			<path class="st1" d="M256.1,328.7c-12.1-13-31.5-15.2-47.2-22.1c-10.4-4.5-21.4-11.4-28.3-20.5c2.4,12.4,0.7,25.8,2.2,38.5
				c1.4,11.7,6.3,22,14.8,30.2c16.2,15.6,42.6,10.4,57.5,27.6c6.8,7.9,9.3,19.9,11.7,29.1c0-9.7,1.2-21.2,1.3-24.7
				C268.1,386.7,273,346.9,256.1,328.7z"/>
			<path class="st2" d="M275.7,352.4c2.8-10.6,11.9-23.1,19.8-30.4c8.5-7.8,18.8-9.5,28.6-14.8c5.2-2.8,9.5-6.5,11.1-12.4
				c4.6-16.2-0.6-33.5-1.6-49.8c-0.5-9.1-1.2-17.7,2-26.2c-0.5,1.3-6.9,4.1-8.2,5.1c-2.5,1.7-5,3.6-7.5,5.3
				c-12,7.9-25.5,13.1-35,24.4c-8.2,9.7-13.6,22.2-16.4,34.4c-1.5,6.7-2.4,13.7-2.7,20.5c-0.3,9.2,0.8,19.2,3,28.1
				c2.1,8.3,1.9,20.5,3.5,28.8L275.7,352.4z"/>
			<path class="st3" d="M299.8,277c-5,11.5-10.3,23.8-14.5,35.7c-4.3,11.9-7.6,23.3-9,32.7l0,0c-2.7,17-2.7,35.4-2.7,53.2
				c0,6.8,0.7,113.8,0.7,119.9c0,0.7-0.6,1.3-1.3,1.3s-1.3-0.6-1.3-1.3c0-6.1-0.7-113.1-0.7-119.9c0-17.8,0-36.3,2.8-53.6l1.3,0.2
				l-1.3-0.2c1.4-9.7,4.8-21.3,9.1-33.2c4.3-12,9.5-24.4,14.6-35.9c0.3-0.7,1.1-1,1.7-0.7C299.8,275.6,300.1,276.4,299.8,277z"/>
			<path class="st3" d="M338,340.2c-9.7,1.5-20.4,4.1-29.8,8.7c-9.4,4.6-17.3,11-21.8,20.4c-2.8,6-5,13.3-5.8,19.9
				c-0.1,1.1-0.3,3.8-0.4,7.6c-0.3,11.4-0.4,32.8-0.4,54.5c0,30.5,0.2,61.8,0.2,67c0,0.7-0.6,1.3-1.3,1.3c-0.7,0-1.3-0.6-1.3-1.3
				c0-5.2-0.2-36.5-0.2-67c0-14.5,0-28.8,0.2-40.2c0.1-5.7,0.1-10.6,0.2-14.4c0.1-3.8,0.2-6.5,0.4-7.9c0.8-6.9,3.1-14.4,6-20.7
				c4.8-10,13.3-16.9,23-21.6c9.7-4.7,20.7-7.3,30.5-8.9c0.7-0.1,1.4,0.4,1.5,1.1C339.2,339.4,338.7,340.1,338,340.2L338,340.2z"/>
			<path class="st3" d="M265.5,518.6c0-4,0-15.1,0-29.4c0-18.9-0.1-43.5-0.4-64.6c-0.2-10.5-0.4-20.2-0.7-27.9
				c-0.2-3.8-0.4-7.2-0.6-9.8c-0.2-2.7-0.5-4.7-0.7-5.9c-3-14.1-9.8-26.9-20.4-37.1c-10.6-10.2-25.1-17.7-43.5-21
				c-0.7-0.1-1.2-0.8-1-1.5c0.1-0.7,0.8-1.2,1.5-1c18.9,3.5,33.8,11.2,44.9,21.7c11,10.5,18.1,23.9,21.2,38.4
				c0.3,1.4,0.5,3.5,0.8,6.2c0.8,9.5,1.2,26.9,1.4,46c0.2,19.1,0.3,40,0.3,56.6c0,14.3,0,25.5,0,29.4c0,0.7-0.6,1.3-1.3,1.3
				C266.1,519.9,265.5,519.3,265.5,518.6z"/>
		</g>
		<g>
			<g>
				<path class="st1" d="M325.3,494.3c-4.5-0.4-8.9,1.2-8.4,6.3c-10.5-3.9-17.6,5.7-17.6,12.7h255.9c10.1-11.9-7.1-34.5-19.6-28.2
					c2.1-7.8-5.4-12.9-10.3-10.7c0.6,0.4-2.7-10.6-13-6.4c0.3-10.8-8.7-13.9-17-8.6c-1.1-9-13.8-17.1-19.7-7
					c0.2-13.7-17.8-15.8-20.4-2.1c-3.7-4-8.8-1-9.4,3.9c-3.3-4.5-7.1-3.9-10.2,0.2c8.9-22.4-25.1-29.3-26.6-8.6
					c-5.3-8.7-16.7-3.3-14.6,5.2c-4.9-4.4-12.4-2.2-11.6,5.3c-6.8-7.2-24-7.5-25.2,7.6c-4-4.4-9.4-3.2-10.5,3.1
					c-6-0.8-10.7,1.8-9.4,8.4c-2.8,0.2-6.7-0.1-7.7,6.7C330.2,482.1,320.9,484.4,325.3,494.3z"/>
				<path class="st1" d="M663.5,513.4c4.6-17.4-21.8-27.2-28.9-10c0.3-6.4,2.5-13.6-5.3-17.2c-7.8-3.6-13.6,2.8-16.8,8.2
					c8.8-14.9,5-33.5-15.4-38.5c-21.7-5.4-32.4,5.8-33,28.3c-1.5-10.3-20.5-12.6-21.6,2.1c-8-2.7-9.2-10.6-20.4-9.6
					c-9.9,0.9-14.5,7.2-18.3,16c0,0-22.6,0.8-17.4,20.7H663.5z"/>
			</g>
		</g>
		<path class="st2" d="M205.8,526.6c0,16.4,109.4,29.7,244.3,29.7c134.9,0,244.3-13.3,244.3-29.7c0-16.4-109.4-29.7-244.3-29.7
			C315.2,496.9,205.8,510.2,205.8,526.6z"/>
		<g>
			<g>
				<g>
					<g>
						<path class="st2" d="M405.4,102c0,0,0,0,0,0.1l0,0c0,0,0,0.1,0,0.1L405.4,102z"/>
					</g>
				</g>
			</g>
		</g>
	</g>
	<g>
		<g>
			<g>
				<g>
					<path class="st4" d="M549.4,480.7c4.6-6.3,5.6-14.6,2.3-21.2c-4.1-8.3-14.1-12.9-24.1-10.5c-16.9,4.5-37.7,8.6-61.8,10
						c-34,2-62.9-1.9-84.4-6.5c-13.5-1.3-24.5,6.6-26.2,16c-1.4,8.1,4.5,14.9,5.5,16.1c19.1,6.1,44.1,11.8,73.6,13.3
						C484.1,500.4,524.3,489.7,549.4,480.7z"/>
					<g>
						<g>
							<g>
								<path class="st5" d="M380,292.3c21.7,1.5,45,2.2,69.7,2c26.4-0.2,51.2-1.6,74.1-3.7c-11.9-6.5-33.9-16.3-63.1-17.8
									C421.4,270.9,392.2,285.4,380,292.3z"/>
								<polygon class="st6" points="464.7,360.8 438.9,360.6 440.7,340 441.5,330.5 462.6,330.7 463.2,339.6 								"/>
								<g>
									<g>
										<path class="st6" d="M476.4,305.9c0.8-2.3,4.2-4.4,5.6-3.6c1.4,0.8,2.1,4.8,1.5,7.4c-0.6,2.5-3,7.1-3.8,8
											c-0.8,0.9-3.9,2.7-5.7,2.2L476.4,305.9z"/>
										<path class="st7" d="M477.2,304.5c-0.4,0.4-0.7,0.9-0.8,1.4l-2.4,13.9c1.2,0.3,2.9-0.3,4.2-1L477.2,304.5z"/>
										<path class="st6" d="M427.3,305.6c-0.8-2.3-4.1-4.5-5.5-3.7c-1.4,0.8-2.2,4.8-1.6,7.3c0.6,2.5,2.9,7.1,3.7,8
											c0.8,0.9,3.8,2.8,5.7,2.3L427.3,305.6z"/>
										<path class="st7" d="M426.5,304.2c0.4,0.4,0.6,0.9,0.8,1.4l2.2,14c-1.2,0.3-2.9-0.3-4.2-1.1L426.5,304.2z"/>
									</g>
									<path class="st7" d="M463.2,339.6c-2.5,2.5-6.3,5.3-11.2,5.2c-4.3-0.1-7.8-2.3-8.9-3.1c-0.9-0.6-1.7-1.2-2.4-1.8l0.8-9.5
										l21.1,0.2L463.2,339.6z"/>
									<path class="st6" d="M452.2,261.9c-23.6-0.2-27.4,15.9-27.5,25c-0.1,9.2,0.7,17.9,3.9,30.4c2.9,11.5,8.7,15.6,13.1,19.3
										c1.5,1.3,2.7,2.5,4.7,3.4c2.4,1,4.5,1,5.5,1c1.1,0,3.2,0,5.5-1.1c2-0.9,3.1-2,4.3-3.1c7.7-7.6,7.1-6.5,8.1-7.9
										c2-2.7,3.9-6.3,5.2-11.2c3.4-12.4,4.2-21.2,4.3-30.3C479.3,278.2,475.8,262.1,452.2,261.9z"/>
									<path class="st8" d="M452.2,258.1c2.8-1.7,6.1-2.2,8.8-1.9c2.7,0.3,12.9,5,16.7,8.5c3.8,3.5,6.9,10.7,6.9,18.6
										c0,7.8-3.2,18.5-3.5,18.9c-0.3,0.4-3.3,3.2-3.3,3.2s-0.1-4.1-0.2-4.4c-0.1-0.3-1.5-3.1-1.9-3.5c-0.4-0.4,0.1-2.2,0-2.7
										c-0.1-0.5-0.4-2.6-1.3-4c-1.1,3-2.8,5.6-3.3,5.5c-0.4-0.1-1.4-1.7-2.4-3.6c-2.1-3.7-2.6-5-3.5-6.5c0,0.7-1.9,6.6-2.7,6.6
										c-0.7,0-1.7-4.3-2.6-7.3c-0.9-3-3.2-7.7-3.6-7.6c-0.4,0.1-4,2.5-4,2.5s-3.6-2.4-4-2.5c-0.4-0.1-2.8,4.6-3.7,7.5
										c-1,3-2,7.3-2.7,7.2c-0.7,0-2.6-5.9-2.6-6.6c-0.9,1.4-1.5,2.7-3.6,6.4c-1.1,1.9-2.1,3.5-2.5,3.6c-0.6,0.1-2.2-2.6-3.3-5.6
										c-1,1.5-1.3,3.5-1.4,4c-0.1,0.5,0.4,2.4,0,2.7c-0.4,0.3-1.9,3.1-2,3.4c-0.1,0.3-0.3,4.4-0.3,4.4s-3-2.8-3.3-3.2
										c-0.3-0.4-3.4-11.1-3.3-18.9c0.1-7.8,3.3-15.1,7.1-18.5c3.9-3.4,14.1-8,16.8-8.2C446.1,255.9,449.4,256.3,452.2,258.1z"/>
								</g>
								<path class="st9" d="M432.4,343.9"/>
								<g>
									<g>
										<path class="st10" d="M488.4,352.4l-19.9-5.5v-7.3c-11.9-0.2-15,4.8-15.7,6.6c-0.7-1.8-3.8-6.8-15.7-6.6v7.3l-19.9,5.5
											c-9.8,2.7-16.6,11.6-16.6,21.8v55c0,2.5,1.3,4.8,3.3,6.2l9.5,6.2c-0.2,13.8-0.4,18.1-0.5,31.9c13.3-0.7,26.6-1.4,39.9-2
											c13.8,1.2,27.5,2.4,41.3,3.7c-0.7-14.4-1.3-19.2-2-33.6l9.5-6.2c2.1-1.4,3.3-3.7,3.3-6.2v-55
											C504.9,364,498.2,355.1,488.4,352.4z"/>
									</g>
									<path class="st9" d="M452.8,346c-0.2,41.7-0.4,83.4-0.6,125.1"/>
									<line class="st9" x1="444.3" y1="376.4" x2="461.4" y2="376.2"/>
									<line class="st9" x1="443.6" y1="409.5" x2="460.8" y2="409.3"/>
									<line class="st9" x1="442.9" y1="452.8" x2="460.1" y2="452.6"/>
									<path class="st11" d="M452.8,347.3c-0.9-1-3-3.2-6.5-4.4c-4.4-1.4-8.1-0.3-9.3,0.1c0-1.1,0-2.3,0-3.4
										c0,0,12.6-0.9,15.8,6.4L452.8,347.3z"/>
									<path class="st11" d="M452.8,347.3c0,0,5.3-7.5,15.7-4.7c0-1.1,0-2.2,0.1-3.4c-2.1-0.2-9.3-0.5-14,4.5
										c-0.6,0.6-1.2,1.4-1.8,2.4L452.8,347.3z"/>
								</g>
								<g>
									<g>
										<path d="M432.1,303.8c4.4-3.8,11.5-3.6,15.5,0.7c0,0-1.1,1.1-1.1,1.1C442.4,301.5,437,301.3,432.1,303.8L432.1,303.8z"/>
									</g>
								</g>
								<path class="st12" d="M447.6,329.4c-0.1,0.4,2.1,1.7,4.5,1.8c2.5,0.1,4.9-1.1,4.8-1.6c0-0.2-0.4-0.2-4.6-0.3
									C448,329.2,447.6,329.2,447.6,329.4z"/>
								<g>
									<path class="st12" d="M448.7,321.8c1.9-0.9,4.1-0.9,6,0C452.9,322.7,450.6,322.7,448.7,321.8L448.7,321.8z"/>
								</g>
								<path id="XMLID_00000098918290135300744210000012271710217744441754_" class="st13" d="M380,292.3c0,0,25.8-10.8,60.6-11.6
									c54.1-1.2,83.1,10,83.1,10L450.9,247L380,292.3z"/>
								<path id="XMLID_00000005950187250489751930000010769087406477386884_" class="st14" d="M452.7,251.4
									c9.6,9.3,17.8,19.4,24.6,30.4c30.4,2.7,46.4,8.8,46.4,8.8L450.9,247l-2.2,1.4C450,249.4,451.4,250.4,452.7,251.4z"/>
								<polyline class="st15" points="440.7,334.1 440.7,333.6 440.8,332.7 440.8,332.3 440.9,331.9 								"/>
							</g>
						</g>
					</g>
					<path class="st16" d="M471.8,518.2c-3.7,4.1-2.1,11.6,2.9,13.9c12.5,5.7,26.1,8.9,39.8,9.3c4.2,0.1,7.7-4.3,7.5-8.5
						c-0.2-4.2-3.3-7.9-7-10c-3.7-2.1-8-2.8-12.2-3.4c-4.2-0.6-8.5-1.1-12.3-2.9C484.2,514,475.9,513.7,471.8,518.2L471.8,518.2z"/>
					<path class="st6" d="M462.1,525.8c36.5,14.3,44.2,11.4,46.1,8.5c1.3-1.9,0.6-4.6,0.5-4.9c-1.6-6-11.7-8.5-23.9-11.4
						c-4.5-1.1-4.7-1.5-8.6-1.9c-2.9-0.3-5.9-0.6-8.6-1.7c-2.5-1-5.4,1.2-6.1,3.8C460.9,520.7,461.7,523.5,462.1,525.8z"/>
					<path class="st17" d="M474,506.3c-1.9,5.1-3.8,10.4-5.9,15.7c-1.5,3.7-2.9,7.4-4.4,11c-21.3-9.9-39-15.7-51.7-19.3
						c-1.4-0.4-31.2-8.8-48.9-22.4c-2.7-2-7.3-5.9-9.3-12.4c-0.3-1-2.5-8.4,0.9-15.4c4.1-8.4,15-13.1,26.8-11.1
						c19.8,12.5,40.7,25,62.5,37.4C454.1,495.5,464.1,501,474,506.3z"/>
					<path class="st16" d="M437.4,514.8c3.7,4.1,2.1,11.6-2.9,13.9c-12.5,5.7-26.1,8.9-39.8,9.3c-4.2,0.1-7.7-4.3-7.5-8.5
						c0.2-4.2,3.3-7.9,7-10c3.7-2.1,8-2.8,12.2-3.4c4.2-0.6,8.5-1.1,12.3-2.9C424.9,510.5,433.3,510.2,437.4,514.8L437.4,514.8z"/>
					<path class="st6" d="M447.1,522.3c-5.9,2.6-34.3,14.9-40.3,7c-0.9-1.2-1.6-3.2-1.2-5c1.1-5.3,10.8-7.8,18.8-9.8
						c4.2-1.1,4.2-1.4,8.6-1.9c2.9-0.3,5.9-0.6,8.6-1.7c2.5-1,5.4,1.2,6.1,3.8C448.3,517.3,447.5,520,447.1,522.3z"/>
					<path class="st17" d="M555,476.5c-2.3,6.3-6.9,9.8-8.9,11.3c-10.2,7.6-48.4,25-101.4,45.6c-0.9-4.6-2.1-9.6-3.6-14.9
						c-1.6-5.5-3.3-10.5-5.1-15c30.6-18.2,61.1-36.3,91.7-54.5c11.7-2.2,22.6,2.7,26.8,11.1C558.1,467.6,555.3,475.7,555,476.5z"/>
					<g>
						<g>
							<path class="st10" d="M524.6,477.6c4.2,2.9,11.1,6.1,22.6,5.9c-11.1,6.5-26.9,14.2-47.1,19c-14.1,3.4-26.8,4.4-37,4.6
								c-3.3-11.3-6.7-22.6-10-33.9c-4.9,6.1-10.3,14-14.9,23.6c-1.9,4-3.5,7.9-4.9,11.6c-7.6-0.1-16.8-1-26.8-3.6
								c-22-5.6-37.8-16.4-47-24c9.9-0.3,16.2-3.1,20.1-5.7c7.8-5,10.7-11.7,19.5-14c3.9-1,7.4-0.7,9.6-0.3
								c2.5-0.2,6.5-0.6,11.2-0.9c28.4-2,49.3-1.6,54.8-1.5c4.9,0.1,11.8,0.3,20.2,0.9c3.8,0.7,9.7,2.3,15.7,6.2
								C517.4,469.9,519.1,473.8,524.6,477.6z"/>
						</g>
					</g>
					<path class="st17" d="M408.5,460.9c10,3,24.5,6,42.1,5.9c18.7-0.2,33.9-4,44.2-7.4c-12.4,2.5-27.6,4.5-45.1,4.7
						C434,464.1,420.1,462.7,408.5,460.9z"/>
					<path class="st9" d="M449.7,458.2c0,0.9,0,1.9,0,2.8c0,2,0.3,3.9,0.9,5.8c4.1,13.4,8.3,26.8,12.4,40.3"/>
					<path class="st9" d="M443.1,471.2c2.5,0.1,5.5,0.1,8.7-0.3c3.1-0.3,5.9-0.9,8.3-1.5"/>
				</g>
			</g>
			<path class="st6" d="M451.9,390.8c-0.7,1.1-1.5,2.6-2.3,4.5c-2.3,5.8-2.1,11.4-2.1,15.5c0,3.9,0.1,8.2,0,13.2
				c0,2.1-1.7,3.8-3.8,3.8h-4.6v9.7h8.9c0.2,0,0.3,0,0.4-0.1c2.2-0.2,3.6-2,3.6-4.3c0-14,0.3-28.1,0.4-42.1
				C452.5,390.7,452.1,390.5,451.9,390.8z"/>
			<path class="st6" d="M461.3,427.8c-2.1,0-3.8-1.7-3.8-3.8c0-5,0-9.3,0-13.2c0.1-4.1,0.2-9.8-2.1-15.5c-0.7-1.9-1.6-3.4-2.3-4.5
				c-0.2-0.3-0.7-0.2-0.7,0.2c0,14,0.4,28.1,0.4,42.1c0,2.3,1.5,4.2,3.8,4.3l0,0c0.1,0,0.2,0,0.3,0h8.8v-9.7H461.3z"/>
			<path class="st17" d="M431.4,448.1c-4-0.8-9.4-2.3-15.2-5.1c-6.6-3.2-11.4-7-14.6-10c3.8,2.5,8.4,5.2,13.8,7.6
				c5.9,2.7,11.4,4.4,16,5.6C431.4,446.8,431.4,447.4,431.4,448.1z"/>
			<path class="st17" d="M431.4,414.9c-2.1-0.1-4.3-0.3-6.6-0.5c-4.3-0.5-8.3-1.1-12-1.9c2.5,0.9,5.2,1.8,7.9,2.6
				c3.7,1.1,7.3,2.1,10.6,2.9C431.4,417,431.4,416,431.4,414.9z"/>
			<path class="st17" d="M475.2,448.1c3.9-0.7,9.3-2.1,15.2-5.1c6.4-3.3,11-7.3,13.8-10.3c-3.4,2.5-7.7,5.3-13,7.8
				c-6,2.9-11.6,4.5-16,5.6C475.2,446.8,475.2,447.4,475.2,448.1z"/>
			<path class="st17" d="M475.2,414.9c2.1-0.1,4.3-0.3,6.6-0.5c4.3-0.5,8.3-1.1,12-1.9c-2.5,0.9-5.2,1.8-7.9,2.6
				c-3.7,1.1-7.3,2.1-10.6,2.9C475.2,417,475.2,416,475.2,414.9z"/>
			<path class="st11" d="M431.4,414.9l11.5,0.3v31.9c0,0-6.5,1.5-11.5,0.9V414.9z"/>
			<path class="st11" d="M475.2,414.9l-11.5,0.3v31.9c0,0,6.5,1.5,11.5,0.9V414.9z"/>
		</g>
		<path d="M433.4,309.2c-0.1,0.2,2.4,2.3,5.8,2.7c3.9,0.4,7.1-1.8,7-2c-0.1-0.2-2.7,1.4-6.6,1.1C435.9,310.8,433.5,309,433.4,309.2z
			"/>
		<g>
			<g>
				<path d="M470,303.8c-4.6-2.7-10.6-2.1-14.4,1.7c0,0-1.1-1.1-1.1-1.1C458.4,300.2,466.1,299.9,470,303.8L470,303.8z"/>
			</g>
		</g>
		<path d="M468.7,309.2c0.1,0.2-2.4,2.3-5.8,2.7c-3.9,0.4-7.1-1.8-7-2c0.1-0.2,2.7,1.4,6.6,1.1C466.2,310.8,468.6,309,468.7,309.2z"
			/>
	</g>
	<path class="st17" d="M418.1,380c-0.3,11.2-0.5,22.4-0.8,33.6c0.5,0.2,0.9,0.3,1.4,0.5C418.5,402.7,418.3,391.4,418.1,380z"/>
	<path class="st17" d="M488.4,380c-0.3,11.2-0.5,22.4-0.8,33.6c0.5,0.2,0.9,0.3,1.4,0.5C488.8,402.7,488.6,391.4,488.4,380z"/>
</g>
</svg>
