<?xml version="1.0" encoding="utf-8"?>
<!-- Generator: Adobe Illustrator 26.0.1, SVG Export Plug-In . SVG Version: 6.00 Build 0)  -->
<svg version="1.1" id="Layer_1" xmlns="http://www.w3.org/2000/svg" xmlns:xlink="http://www.w3.org/1999/xlink" x="0px" y="0px"
	 viewBox="0 0 852.1 570.1" style="enable-background:new 0 0 852.1 570.1;" xml:space="preserve">
<style type="text/css">
	.st0{fill:#FFD7DC;}
	.st1{opacity:0.5;}
	.st2{fill:none;stroke:#FF9F00;stroke-width:1.1437;stroke-linecap:round;stroke-miterlimit:10;}
	.st3{fill:#FF9F00;}
	.st4{fill:none;stroke:#FF002D;stroke-width:1.1437;stroke-miterlimit:10;}
	.st5{fill:#FF002D;}
	.st6{fill:#E88291;}
	.st7{fill:#D8989D;}
	.st8{fill:#FFFFFF;}
	.st9{fill:#FAD4AF;}
	.st10{fill:#F2B186;}
	.st11{fill:#2E77CE;}
	.st12{fill:#CFE5E1;}
	.st13{fill:#195193;}
	.st14{fill:#E5E5E5;}
	.st15{fill:#FF3C00;}
	.st16{fill:#2163A5;}
	.st17{fill:#BC2800;}
	.st18{fill:#FF9017;}
	.st19{fill:#444951;}
	.st20{fill:#89909B;}
	.st21{fill:#42A3D3;}
	.st22{fill:#2296C4;}
	.st23{fill:#AD2D43;}
	.st24{fill:#338AB5;}
	.st25{fill:#462F2E;}
	.st26{fill:#26211D;}
	.st27{fill:#4271C6;}
	.st28{fill:#E5804E;}
	.st29{fill:none;stroke:#136B8E;stroke-miterlimit:10;}
	.st30{fill:#754026;}
	.st31{fill:#004345;}
	.st32{fill:#006370;}
	.st33{fill:#E5B19C;}
	.st34{fill:#A5A5A5;}
	.st35{fill:#BECCCA;}
	.st36{fill:#686B6B;}
	.st37{fill:#0D726E;}
	.st38{fill:#E6E6FF;}
	.st39{fill:#BFAD45;}
	.st40{fill:#6F7F87;}
	.st41{fill:#11B7AE;}
	.st42{fill:#D1DEE5;}
	.st43{fill:#576C7C;}
	.st44{fill:#C66371;}
	.st45{fill:#D3D3D3;}
	.st46{fill:none;}
	.st47{fill:url(#SVGID_1_);}
</style>
<g>
	<path class="st0" d="M113.2,525.4c0,0-133.4-192.2-52.9-268.9c80.5-76.6,157.2-8.3,172.5-91c14.1-76.2,68-150.3,166-126.4
		c125.8,30.6,111.9,117.4,173.7,110.9c61.8-6.5,167.4-55,186.6,36.9c19.1,91.9-70.4,170.8-13.4,164.3c39.2-4.5,89.3-14.5,63.4,80.4
		c-16.5,60.4-40.5,93.8-40.5,93.8H113.2z"/>
	<g class="st1">
		<line class="st2" x1="376" y1="51.3" x2="376" y2="35.3"/>
		<g>
			<path class="st2" d="M380.1,91.7c-8.3-15.3-8.8-29.8-3.8-41"/>
			<path class="st2" d="M376.3,50.7c3.8,13.7,2.4,27.3-4.1,41"/>
			<path class="st3" d="M393.9,103.9H358l-2.9-12c13.9-4.1,27.8-4.1,41.6,0L393.9,103.9z"/>
			<g>
				<path class="st3" d="M385.8,98.1c-7.7-0.9-11.3-0.6-18.4-0.3c-4.9,0.2-9-0.8-11.2-1.4l1.8,7.6h35.9l1.5-6.2
					C393,98.4,389.1,98.4,385.8,98.1z"/>
			</g>
			<path class="st3" d="M395.3,174.7c-12.9,2.3-25.7,2.3-38.6,0v-9.9h38.6V174.7z"/>
			<g>
				<path class="st3" d="M395.3,171.8v-7h-38.6v9.9c1.1,0.2,2.2,0.4,3.3,0.5c3.1-2.2,10-5.9,22.7-6.1
					C388.3,169.1,392.3,170.2,395.3,171.8z"/>
			</g>
			<path class="st4" d="M376,176.4c0,7.1,0,14.4,0.6,21.4"/>
			<path class="st5" d="M380.9,196.6l-9.9,0.9c-0.2,10.5,2.9,20.5,9,30.1l12.6-0.7C386.6,218,382.7,207.9,380.9,196.6z"/>
			<g>
				<path class="st6" d="M372,207.8c1.3,6.8,4.1,13.4,8.1,19.8l12.6-0.7c-1.2-1.7-2.2-3.5-3.2-5.3
					C381.1,217.5,375.2,211.7,372,207.8z"/>
			</g>
			<path class="st5" d="M376,98.6c-18.9,0-52.5,5.9-52.5,36.2s31.9,32.2,52.5,32.2c20.6,0,52.5-1.9,52.5-32.2S394.8,98.6,376,98.6z"
				/>
			<g>
				<path class="st6" d="M377.1,102.7c5.5-1.9,11.1-1.6,16.9,1.3c3.2-1.6,8.8-0.5,15.4,1.5c-10.8-5.3-23.9-6.8-33.4-6.8
					c-9.5,0-22.7,1.5-33.5,6.9c7.1-2.2,13.5-3.4,18.3-2.8C366.8,100.8,372.3,100.6,377.1,102.7z"/>
			</g>
			<path class="st6" d="M403.1,148.4c-8,7.7-17.5,9.1-28.3,4.7c-6.2,5.4-13.9,6-23.5,0c-10.2,4.1-22.9-0.8-26.9-9.8
				c5.4,22.3,33,23.8,51.5,23.8c19.8,0,50.2-1.8,52.3-29.1C422.2,149.3,413.5,151.8,403.1,148.4z"/>
			<g>
				<path class="st3" d="M361.8,166.5c0,0-18.5-13.1-18.5-31.7c0-19.4,19.3-35.2,19.3-35.2l1.3-0.2c0,0-18.3,18.1-18.3,35.4
					c0,17.2,17.4,31.8,17.4,31.8L361.8,166.5z"/>
				<path class="st3" d="M390.1,166.5c0,0,18.5-13.1,18.5-31.7c0-19.4-19.3-35.2-19.3-35.2l-1.3-0.2c0,0,18.3,18.1,18.3,35.4
					c0,17.2-17.4,31.8-17.4,31.8L390.1,166.5z"/>
			</g>
			<g>
				<path class="st3" d="M376.3,167.1c0,0,0.8-14.3,0.8-32.1c0-17.7-0.7-36.3-0.7-36.3h-0.8c0,0-0.7,18.6-0.7,36.3
					c0,17.7,0.8,32.1,0.8,32.1H376.3z"/>
			</g>
			<path class="st3" d="M378.8,51.6c0,1.6-1.3,2.9-2.9,2.9c-1.6,0-2.9-1.3-2.9-2.9c0-1.6,1.3-2.9,2.9-2.9
				C377.5,48.7,378.8,50,378.8,51.6z"/>
			<g>
				<path class="st3" d="M373.1,51c0,0.2-0.1,0.4-0.1,0.6c0,1.6,1.3,2.9,2.9,2.9c1,0,1.9-0.5,2.4-1.3
					C375.8,53.6,374.1,52.8,373.1,51z"/>
			</g>
			<path class="st3" d="M378.8,187.1c0,1.6-1.3,2.9-2.9,2.9c-1.6,0-2.9-1.3-2.9-2.9c0-1.6,1.3-2.9,2.9-2.9
				C377.5,184.2,378.8,185.5,378.8,187.1z"/>
		</g>
	</g>
	<g>
		<path class="st7" d="M96.8,471.9c23.9-10,50.1,15.4,50.1,15.4s-22.4-23.2-22.9-56.1c-0.3-23.4,20.3-57.5,27.6-58.7
			c7.3-1.2,27.1,20.7,32,62.4c2.2,19.5-7.5,48.7-7.5,48.7s17.2-39.7,54-40.5c2.8,9.7-7.2,31.1-14.7,43.8c-6.5,11-22.9,30.3-58.3,26
			C113.5,507.7,96.3,472.1,96.8,471.9z"/>
		<path class="st8" d="M143.3,389.2c3,6.5,6,12.7,9.7,18.8c-0.3-9.9-0.8-20.1-0.1-29.9c0.1-0.9,1.3-0.9,1.4,0
			c0.5,5.9,0.4,11.9,0.4,17.9c0.7-1.3,1.3-2.6,1.7-4c0.7-2.1,0.5-4.3,0.7-6.5l0.5-0.1c1.6,3.9-0.4,8.6-2.9,11.9
			c-0.1,4.1-0.1,8.2-0.1,12.3c0.1,10.2,0.5,20.4,1.2,30.5c3.8-11.1,8.6-21.7,11.8-33l0.5,0.1c-1.5,11.7-7,23.2-12,33.8l-0.2,0.1
			l0,0.7c0.9,13,2.5,26.1,5.1,38.9c7.2-12.1,12-24.3,16.2-37.7c0.1-0.3,0.5-0.2,0.5,0.1c-2.2,13-8.2,27.9-16.5,38.3l-0.1,0
			c1.8,8.5,4,16.9,6.9,25.1c0.1,0.4-0.5,0.6-0.6,0.2c-7.2-19.7-10.8-40.2-12.6-61c-1-11.3-1.5-22.7-1.8-34.1c0-0.8,0-1.7-0.1-2.6
			c-4.4-5.8-8.3-12.7-10-19.8L143.3,389.2z"/>
		<path class="st8" d="M104.5,472.7c4.2,2.9,7.9,6.5,12.1,9.4c3.2,2.2,6.5,4.2,9.9,6.1c-2.9-2.8-5.7-5.8-8.2-9l0.4-0.3
			c3.4,2.7,6.1,6.4,9,9.7l0,0.3c1.4,0.8,2.8,1.6,4.3,2.3c6.5,3.5,13.2,6.5,19.8,9.9c-4-3.4-7.5-7.4-11.7-10.6
			c-0.3-0.2,0-0.6,0.3-0.5c5.5,2.5,9.3,7.9,13.6,12l0.1,0.2c2.5,1.3,5,2.7,7.4,4.2c0.4,0.3,0.1,0.9-0.4,0.6
			c-10.5-4.9-21.1-9.9-31.3-15.4c-8.7-4.6-19.7-10.2-25.7-18.4C103.7,473,104.2,472.5,104.5,472.7z"/>
		<path class="st8" d="M172.2,503.5c1.5-1,2.9-1.9,4.4-2.9l0,0c2.2-4.3,5.3-8.1,7.6-12.4c2.5-4.8,4.6-9.9,5.9-15.2l0.4,0.1
			c-0.8,5.5-3,10.6-5.4,15.6c-1.5,3.2-3.4,7.1-5.9,10.1c5.3-3.7,10.4-7.5,15.3-11.6c3.4-9.2,7-18.4,10.5-27.7
			c0.1-0.3,0.6-0.2,0.5,0.1c-2.7,8.9-5.6,18.1-9.9,26.5c2.7-2.3,5.3-4.7,7.8-7.3c2.7-2.7,5.3-5.6,7.7-8.7L211,470
			c1.6-6,3.8-12.1,6-17.9l0.4,0.1c-1.9,5.4-2.8,11.7-5.4,16.9c1.7-2.2,3.3-4.4,4.8-6.6c3.4-5.2,5.2-11.2,8.4-16.5
			c0.2-0.3,0.7-0.2,0.6,0.2c-0.5,5.4-4,11-6.8,15.6c-3.7,6.1-8.4,11.7-13.3,16.9c-7.1,7.5-15.3,14.5-24.2,20.1
			c3.2-0.3,6.3-0.4,9.5-1.2c4.2-1.1,8-3.2,11.8-5.3c0.3-0.2,0.6,0.3,0.3,0.5c-6.5,4.2-15.1,8.4-23.2,6.9c-2.5,1.5-5,3-7.5,4.3
			C172.2,504.1,172,503.7,172.2,503.5z"/>
		<path class="st8" d="M132.9,439.3c4.6,6.8,7.8,14.6,11.7,21.8c4.6,8.3,9.8,15.8,15.9,23.1l-0.3,0.3c-6.3-6.2-11.1-13.7-15.5-21.2
			c-4.4-7.5-9.1-15.6-12.3-23.7C132.4,439.2,132.8,439.1,132.9,439.3z"/>
		<path class="st8" d="M135.2,406.4c6.7,12.7,11.8,25.9,19.4,38.2l-0.3,0.3c-8.9-10.9-14.2-25.3-19.5-38.2L135.2,406.4z"/>
		<path class="st8" d="M123.8,493.2c2.8,0.5,5.5,1.5,8.1,2.5c3,1,6.1,1.7,9.1,2.7l-0.1,0.4c-5.7-0.1-12.1-3.2-17.2-5.3L123.8,493.2z
			"/>
		<path class="st8" d="M105.1,478.1c1.7,0.6,3.2,1.7,4.8,2.5c1.7,0.9,3.4,1.7,5,2.7c0.2,0.1,0.1,0.6-0.2,0.5
			c-3.2-1.2-7.6-2.6-9.8-5.3L105.1,478.1z"/>
		<path class="st8" d="M205.9,478.9c2.9-2,6.1-3.5,8.9-5.5c3.3-2.3,6.2-5.1,8.9-8c0.3-0.3,0.7,0.1,0.4,0.4
			c-4.6,5.4-11,11.6-18.1,13.4L205.9,478.9z"/>
	</g>
	<g>
		<path class="st9" d="M692.6,314l-24.4,2.4l-2.9-13.3l-1.9-8.6l23.5-3.2c0,0,0,0,0,0l1.1,4.5l0.8,3.3L692.6,314z"/>
		<path class="st10" d="M686.9,291.4C686.9,291.3,686.9,291.3,686.9,291.4l-23.6,3.1l1.9,8.6c1.6,0.8,3.7,1.5,6,1.6
			c8.9,0.6,15.3-7,16.8-8.9L686.9,291.4z"/>
	</g>
	<g>
		<path class="st8" d="M139.9,535.4c-0.2,0-0.3-0.1-0.4-0.2c-0.2-0.2-0.2-0.6,0.1-0.8l11.5-9.7c0.2-0.2,0.6-0.2,0.8,0.1
			c0.2,0.2,0.2,0.6-0.1,0.8l-11.5,9.7C140.2,535.4,140.1,535.4,139.9,535.4z"/>
	</g>
	<g>
		<path class="st11" d="M767,527.8c-36.2,0.4-72.4,0.8-108.6,1.1c-0.1-19.5-0.4-36.9-0.7-48.9v0c-0.3-10.5-0.5-16.8-0.5-16.8
			s3.8-2.5,8.9-5.6c7.3-4.4,17.3-10.1,22.1-11c1.3-0.2,3.9,0.6,7.3,2.1c0.5,0.2,1.1,0.5,1.7,0.8c6.5,3.1,15.3,8.3,24,13.6
			c7.7,2,15.8,5.6,19.5,6.7c2,0.6,3.1,0.5,3.7,0.1c2.3-1.6-2.9-8.6,1.1-5.4c4.4,3.7,7.4,8.1,9.4,13.2c0.1,0.2,0.2,0.4,0.2,0.7
			c0.1,0.1,0.1,0.3,0.2,0.4c0.7-0.3,1.3-0.6,1.9-0.9c0,0,0,0,0,0c1.8-0.9,3-1.8,3.3-2c0,0,0,0,0.1,0c0,0,0,0.2,0,0.6
			c0,0,0,0.5,0,1.1C760.6,478.2,763.2,499.2,767,527.8z"/>
		<path class="st12" d="M714.4,465c0,0-12.3,1.1-24.2,0c-7.9-0.7-14.8-2.5-14.8-2.5s8.4-12.5,17.9-12.5C701,450,714.4,465,714.4,465
			L714.4,465z"/>
		<path class="st13" d="M708.8,528.9H696c1.9-19.1,3.4-36.3,3.4-36.3s0.2,3.1,0.5,7.4v0c0.5,7.6,1.3,18.6,2,21.3
			C702.6,524.7,706,527.2,708.8,528.9z"/>
		<g>
			<path class="st13" d="M710.6,472.8c8.4,0,15.7-1.2,15.8-1.2c0.4-0.1,0.7-0.4,0.6-0.9c-0.1-0.4-0.5-0.7-0.9-0.6
				c-0.1,0-10.1,1.7-20,1.1c-0.4,0-0.8,0.3-0.8,0.7c0,0.4,0.3,0.8,0.7,0.8C707.6,472.8,709.1,472.8,710.6,472.8z"/>
		</g>
		<g>
			<path class="st13" d="M690.1,461.7l-0.5,0h0l-0.7-0.1l0,0.9c0,0,0,0,0,0l0,0.5l0,1.9l-0.2,9.2l18.1,1.7l0.1-3.1l0-1.5l0.1-5.8
				l0-2.5L690.1,461.7z M705.5,467.9l0,1.5l0,2.5v0l0,2.2l-15.2-1.5l0.1-7.7l0-1.9l15.2,1.1l0,1.2L705.5,467.9z"/>
		</g>
		<g>
			<path class="st13" d="M683.2,471.6c0.3,0,0.6-0.2,0.7-0.6c0.1-0.4-0.2-0.8-0.6-0.9c0,0-4.8-1-7.6-2.1c-2.7-1.1-5-3.6-5.1-3.6
				c-0.3-0.3-0.7-0.3-1,0c-0.3,0.3-0.3,0.7,0,1c0.1,0.1,2.6,2.7,5.6,3.9c2.9,1.2,7.6,2.2,7.8,2.2
				C683.1,471.6,683.1,471.6,683.2,471.6z"/>
		</g>
		<g>
			<path class="st13" d="M706.1,469.4c0.4,0,0.7-0.3,0.7-0.7c0-0.4-0.3-0.8-0.7-0.8l-11.8-0.8c-0.4,0-0.8,0.3-0.8,0.7
				c0,0.4,0.3,0.8,0.7,0.8L706.1,469.4C706.1,469.4,706.1,469.4,706.1,469.4z"/>
		</g>
		<g>
			<path class="st13" d="M763.3,497.1c0,0,0,0.3,0.1,0.6c0,0.1,0,0.2,0,0.2c0,0.1,0,0.1,0,0.2c0.5,3.6,2.1,15.8,4,31.1l-1.5,0.3
				c-2.4-18.1-4.1-31.9-4.2-32.3c-0.1-0.4,0.2-0.8,0.6-0.8c0.3,0,0.6,0.1,0.8,0.4C763.2,496.9,763.2,497,763.3,497.1z"/>
		</g>
		<g>
			<path class="st13" d="M709.9,528.9h-2.5c-2-1.6-4.2-3.7-5.6-6.2c-1.7-3.1-2-13.9-2-22.7v0c0-6.5,0.3-12,0.3-12.5
				c0-0.4,0.4-0.8,0.8-0.7c0.4,0,0.7,0.4,0.7,0.8c-0.5,10.1-0.8,30.3,1.5,34.4C704.7,524.9,707.7,527.4,709.9,528.9z"/>
		</g>
		<g>
			<path class="st13" d="M750.7,490.1l-28.3-9.3c-0.2-0.1-0.5,0-0.7,0.1c-0.2,0.1-0.3,0.4-0.3,0.6v3.9c0,0.3,0.2,0.6,0.5,0.7
				l28.3,10.1c0.1,0,0.2,0.1,0.2,0.1c0.1,0,0.3-0.1,0.4-0.1c0.2-0.1,0.3-0.4,0.3-0.6v-4.8C751.2,490.5,751,490.2,750.7,490.1z
				 M749.7,494.5l-26.8-9.6v-2.4l26.8,8.8V494.5z"/>
		</g>
		<g>
			<path class="st11" d="M765.2,471.7c-7.2,12.4-26.4,7.5-46.4-9.2c-24.1-20.1-52.3,7-52.3,7s-1.5-64-12.5-83
				c-11-19-14.5-60.6-8.6-70.9c1.5-2.6,6.8-5.2,14-6.8c0.8-0.2,1.6,0.1,2.5-0.1c0.1,0,0.2,0,0.2,0c0.8-0.1,3.4,0.6,9.6,3.2
				c4.6-0.5,9.3-1,13.9-1.5c4.5-1.8,9-3.5,13.5-5.3c4.3-0.3,9.3-0.5,14.8-0.1c4.5,0.3,8.6,0.8,12.2,1.5c0,0,0,0,0,0
				c0.9,0.2,1.7,0.4,2.4,0.7c3.7,1.4,16.6,11.8,22,22c3.1,5.9,3.6,11.8-1.9,15.7c-0.4,0.3-0.9,0.6-1.4,0.9c-9.9,5.5-8,17.9-8.2,22.7
				c0,0.6,0,1.2,0,1.8c0.4,22.4,24,69.3,27.6,87.2C768.1,465.3,767.6,467.4,765.2,471.7z"/>
			<path class="st14" d="M699,305.1l-15.6,66.6l-0.9,3.7L662,308.7c0.6-0.2,1.2-0.3,1.9-0.3c4.3-0.4,7.6,2.2,8.9,3.3
				c4.2-0.4,8.4-0.8,12.7-1.2c2.2-1.6,4.4-3.3,6.6-4.9C694.4,305.3,696.7,305.2,699,305.1z"/>
			<path class="st8" d="M699,305.1l-15.6,66.6l-19.4-63.3c1.8-0.3,3.7-0.6,5.5-0.9c1.6,1.2,3.2,2.5,4.8,3.7
				c3.5-0.4,6.9-0.7,10.4-1.1c1.7-1.5,3.3-3.1,5-4.6C692.8,305.3,695.9,305.2,699,305.1z"/>
			<path class="st14" d="M685.4,309.5c0.3,16.6,0.5,33.1,0.8,49.7c-3.5-15.9-7-31.8-10.6-47.7c1.4,0.3,4.4,0.7,7.5-0.7
				C684.1,310.5,684.9,310,685.4,309.5z"/>
			<path class="st15" d="M672.4,311.3l6.7,8.9c0,0,5.7-9.4,5.6-10.1C684.5,309.1,672.4,311.3,672.4,311.3z"/>
			<polygon class="st15" points="677,311.3 676.6,357.9 682.7,378.1 687,357.7 679.8,310.3 			"/>
			<path class="st11" d="M753.3,478.7c-0.7,0.1-1.5,0.2-2.3,0.2c-13.1,0-36.6-14.3-47.1-20.8c-3-1.9-8.4-2.4-11,0.1
				c-7.9,7.7-23.4,29.7-33.7,23.1c-17.2-10.9-7.7-68-8.8-79.5c-0.5-5.3-1-12.2-2.1-18.7c-1.9-12.2-2.5-23.6-12.8-21.6
				c-1.6,0.3-2.9,0.2-3.6,0.3c-4.5,1.1,2.2-14.6,4.4-24.2c2.7-11.6,5.6-22.6,5.7-23.1c0,0,0,0,0,0s4.8-2.7,13.9-5.1
				c3.4-0.9,3.5-0.7,3.5-0.7l23.8,77.5l4.6-22c0,0,3.8,46.8,21.3,65.6c17.4,18.6,32.1,36.2,37.8,43.2
				C748.8,475.3,750.9,477.1,753.3,478.7z"/>
			<g>
				<path class="st16" d="M698.2,456.7C698.2,456.7,698.2,456.7,698.2,456.7c0.4-0.1,0.7-0.5,0.6-0.9l-14.9-60.7l20.6-38l-5.8-8.3
					l8.6-0.1l8.3-42.6c0.1-0.4-0.2-0.8-0.6-0.9c-0.4-0.1-0.8,0.2-0.9,0.6l-8.1,41.4l-10.2,0.1l6.9,9.8l-20.4,37.7l0.1,0.3l15,61
					C697.4,456.6,697.8,456.8,698.2,456.7z"/>
			</g>
			<path class="st16" d="M647.6,315.4l7.1,33.5l8.3-1.7l-3.9,8.4l26.3,38.1L664.2,355l2.3-11.6l-8.5-1.1
				c-2.2-10.5-4.5-20.9-6.7-31.4c-0.5,0.2-1.5,0.6-2.4,1.7C647.9,313.7,647.7,314.9,647.6,315.4z"/>
			<g>
				<path class="st13" d="M756.6,479c3.4-0.7,6.1-2.2,7.9-4.4c3.3-3.8,2.9-8.4,2.9-8.6c0.1-0.5,0.1-3.9-0.2-3.9
					c-0.4,0-0.6,3.7-0.7,4.1c0,1.2-0.4,4.1-3.2,7.4c-2.2,2.5-5.6,4-10.1,4.3c-11.2,0.8-31.7-10.8-44-17.7c-3.2-1.8-5.7-3.2-7.3-4
					c-6.9-3.4-12.8,4-17.9,10.4c-1.3,1.6-2.5,3.2-3.7,4.5c-5.6,6.2-13.2,9.7-13.3,9.8c-0.4,0.2-0.5,0.6-0.4,1c0.2,0.4,0.6,0.5,1,0.4
					c0.3-0.1,7.9-3.7,13.7-10.1c1.2-1.4,2.5-2.9,3.8-4.6c5-6.3,10.2-12.9,16.1-10c1.6,0.8,4.1,2.2,7.3,4c12.4,7,33.1,18.7,44.8,17.9
					C754.5,479.4,755.5,479.2,756.6,479z"/>
			</g>
			<g>
				<path class="st13" d="M749,432.7c0.4-0.1,0.6-0.4,0.6-0.8c-0.1-0.4-0.4-0.7-0.8-0.6l-24,3.1c-0.4,0.1-0.7,0.4-0.6,0.8
					c0.1,0.4,0.4,0.7,0.8,0.6L749,432.7C748.9,432.7,748.9,432.7,749,432.7z"/>
			</g>
			<g>
				<path class="st13" d="M675.6,437.7c0.4-0.2,0.6-0.6,0.4-1c-0.2-0.4-0.6-0.5-1-0.4l-13.2,5.3c-0.4,0.2-0.6,0.6-0.4,1
					c0.1,0.3,0.5,0.5,0.8,0.4c0,0,0.1,0,0.1,0L675.6,437.7z"/>
			</g>
			<polygon class="st17" points="682,315.3 679.1,317.9 675.5,315.6 677.7,318.7 681.1,318.3 			"/>
			<g>
				<path class="st11" d="M766.4,339c-6.9,2.7-12.8,4.5-18,5.8c-7.9,2-13.9,2.5-18.3,2.2c-9.4-0.5-11.8-4.2-11.8-4.2
					c2.2-10.6,2.2-18.1,1.5-23.4c-0.2-1.3-0.4-2.5-0.7-3.6c-0.4-1.5-0.7-5,0.5-8.5c0.2-0.7-2-1.5-1.8-1.8c3.4,0.2,14.2-0.3,16.8-0.9
					c11.1-2.2,27.8-6.4,36.9-10.3c0.1,0,0.1-0.1,0.2-0.1c3.9-1.7,6.3-3.1,6.4-4v0c0,0,0-0.1,0-0.1c0-0.7-0.2-1.5-0.5-2.4
					c-4.1-14-32.1-45.3-32.1-45.3l2.2-1.8l0,0l10.2-8.3c0,0,25.6,21.2,43.1,40.2c8.5,9.2,15.1,18,16,23.6
					C820.8,318,796.5,327.4,766.4,339z"/>
				<path class="st16" d="M766.4,339c-6.1,2.4-11.5,4.1-16.3,5.3c-1.1,0.3-2.1,0.7-3,1.3c0,0,0,0,0,0c-9.9,5.5-8,17.9-8.2,22.7
					c0,0.6,0,1.2,0,1.8c-6.4-5.5-8.3-16.5-8.7-23.1c-0.2-2.9,0-4.9,0.2-5.5c2.1-5.4,9.7-9,20-12.4c15.3-5.1,36.3-9.9,53-19.7
					c9.7-5.6,2.8-25.1-2.1-37.1c8.5,9.2,15.1,18,16,23.6C820.8,318,796.5,327.4,766.4,339z"/>
				<path class="st16" d="M797.2,296.9c-4,0.9-15.9-4.1-15.9-4.1s11.3,10.1,8.8,10.5c-2.5,0.4-12.8-9.5-12.8-9.5l4.5,12.7l-9.7-4.6
					c0,0-25.8,1-37.3,2.6c11.1-2.2,27.8-6.4,36.9-10.3c0.1,0,0.1-0.1,0.2-0.1c3.9-1.6,6.4-3,6.4-4v0c0,0,0-0.1,0-0.1
					c0.3-0.6,0.2-1.4-0.3-2.1l-0.2-0.3l-32.4-45.5l2.6-1.6l0,0c0,0,33.5,41.8,36,45.3c2.5,3.5-1.7,4.9-1.7,4.9
					S801.2,296,797.2,296.9z"/>
				<path class="st8" d="M745.6,242.3l-1.8-2.9l11.4-10l2.9,2.7C758.1,232.1,748.6,240.4,745.6,242.3z"/>
				<path class="st9" d="M746.3,237c0,0-6.3-1.4-10.9-3.1c-4.7-1.6-8.2-4.3-7.1-5.3c1.1-1,8.4,0.4,7.7-0.4c-0.7-0.8-6.7-3.4-8.8-3.1
					c-2.1,0.3-3.3,1.2-3.8,0.2c-0.5-1,4.1-5.5,5.3-5.5c1.3-0.1,0.5-3.1,2.8-3.3c2.3-0.1,1.6-0.4,3.4-2c1.9-1.6,3.3,0.2,4.1-1.2
					s2.7-1.1,4-0.8c1.3,0.4,8.3,9.2,10.3,12.2c2,3,2.4,3.9,2.4,3.9L746.3,237z"/>
			</g>
			<g>
				
					<rect x="725.7" y="197.8" transform="matrix(-0.5061 -0.8625 0.8625 -0.5061 933.8981 1020.0058)" class="st15" width="66.5" height="89.5"/>
				<polygon class="st18" points="777.2,196.3 780.7,198.1 807.6,248.1 740.2,291.4 736.4,289.8 706,238.1 				"/>
			</g>
			<path class="st9" d="M743.1,212.6c1.2,0.2,7.3,5.4,6.6,7.7c-0.7,2.3-5.6-2.6-5.6-2.6s4.7,6,3.3,8c-1.4,2-8.7-5.2-8.7-5.2
				s8.2,7.8,5.7,10.2c-2.4,2.2-11.1-7.7-11.1-7.7s8.3,8.7,5.8,9.7c-3,1.2-7.7-3.6-9.7-5.8c-0.3-0.4-0.9-0.1-0.9,0.3
				c0,2.4-0.3,6.7-2.9,4.5c-4.4-3.8-3.4-10,5.2-11.6C732.3,219.8,738.3,211.7,743.1,212.6z"/>
			<g>
				<path class="st11" d="M649.5,311.7c-2.6,1.4-4.7,6.1-5.2,33.4c-0.1,9.2-3,16.3-6.2,15.4c0,0-2.4,0.6-6.3,1.4
					c-14.6,2.9-50,8.6-57.3-2.8c-10.5-16.5-16.3-39.4-17.1-82.1c0-0.8,0-1.5,0-1.9c4.4-0.3,8.8-0.7,13.2-1
					c0.7,7.2,2.2,17.1,5.2,28.5c5.4,20.7,8.1,31.1,15,33.6c10.6,3.9,32.6-13.1,51.2-21.5C644.6,313.4,647.1,312.4,649.5,311.7z"/>
				<path class="st16" d="M650.5,382.6c-0.3,3.6-0.7,6.7-1.1,9c-0.4-2.8-0.7-5.7-1.1-8.5c-1.9-12.2-2.4-23.2-12.8-21.6
					c-1.9,0.3-3.3,0.3-3.6,0.3c-14.6,2.9-50,8.6-57.3-2.8c-15.8-24.9-17.1-85.3-17.1-85.3l4.1-0.1c0,0,2.2,39,3.3,44.1
					c2.4,12.2,8.7,30.6,17.8,36.4c15.1,9.6,39.4-10.2,50.8-16.4c2.6-1.4,8.2-2,10.5,0.6c2.1,2.4,2.7,5.3,3.1,9
					C648.9,368.3,651.5,369.3,650.5,382.6z"/>
				<g>
					<path class="st9" d="M570,269.4c0.2,2.5,0.5,4.9,0.7,7.4c-4.1,0.4-8.3,0.9-12.4,1.3c-0.3-1.7-0.7-3.3-1-5
						c-1.3-2.2-4-7-6.2-11.7c-0.5-1-0.9-2-1.3-2.9c-1.6-3.8-2.6-7.1-1.9-8.5c0.1-0.3,0.5-1.1,1.2-1.2c1.7-0.4,3.7,3.2,4,3.7
						c-0.1-0.4-1.1-3,0.7-5.4c1.8-2.5,3.9,0.8,4.1,1.2c0-0.2-0.3-2.3,1.7-4.6c1.2-1.4,2.3,0.2,3,1.8c0-1,0.5-2,2.3-2.6
						c3.5-1.1,3.2,5.7,4,6.1c1.4,0.8,2.3,1.7,2.9,2.9c0.5,1,0.6,1.8,0.6,2.2C572.6,256.4,571.8,262.1,570,269.4z"/>
					<path class="st10" d="M565.5,260.5c-0.7,0.4-1.5,0.2-1.8,0.1c-1-0.3-1.7-1-2.2-1.8c0.3,1.9,0.3,4-1.3,4.5
						c-1,0.2-2.1-0.5-2.6-1.2c-0.3-0.4-0.6-0.8-0.9-1.2c0,0.4-0.1,0.8-0.2,1.2c-0.2,0.5-0.5,1.6-1.4,1.9c-1.1,0.3-2.2-0.8-3.1-1.7
						c-0.3-0.2-0.6-0.6-0.9-1c-0.5-1-0.9-2-1.3-2.9c0.6,0.8,2,2.9,3.8,4.2c0.3,0.2,0.8,0.5,1.3,0.4c0.6-0.2,0.8-1.1,0.9-1.5
						c0.2-0.9,0-1.7-0.2-2.2c-0.1-0.5-0.2-1.1-0.4-1.9c-0.2-0.7-0.4-1.2-0.4-1.2c0.1-0.1,1,1.4,1.8,2.9c0.8,1.4,1.1,1.9,1.7,2.4
						c0.5,0.4,1,0.6,1.4,0.8c0.2,0.1,0.5,0,0.7-0.2c0.6-0.7,0.4-2,0.4-2.9c-0.1-1.4-0.4-3-0.9-4.4c-0.1-0.3-0.2-0.6-0.3-1
						c-0.2-0.6-0.3-0.8-0.2-0.8c0.1,0,0.5,0.6,1.9,3.2c0.4,0.7,0.8,1.3,1.2,1.8c0.1,0.1,0.4,0.5,0.8,0.8c0.5,0.5,0.9,0.8,1.3,0.7
						c0.3,0,0.7-0.2,0.8-0.5c0.1-0.2,0.1-0.5,0-0.9c-0.3-1-1.2-1.9-1.7-2.3c0.1-0.2,0.3-0.4,0.6-0.5c0.1-0.1,0.2-0.1,0.3-0.1
						c0.7,0.7,1.3,1.6,1.7,2.6C566.4,258,566.6,259.8,565.5,260.5z"/>
					<path class="st10" d="M568.6,248.7c-2-1.2-3.7-1.6-4.7-1.7c-1.8-0.2-2.4,0.3-2.6,0.5c-0.5,0.5-0.5,1.3-0.5,1.6
						c0,2.7,3.2,5.5,3.9,6.1c0.6,1.1,1.1,2.2,1.7,3.3c-0.6-0.5-7.7-7.1-6.1-10.7c0.1-0.2,0.3-0.8,1-1.2
						C562.8,245.6,565.7,246.4,568.6,248.7z"/>
				</g>
				<polygon class="st8" points="571.1,273.2 556.7,274.6 557.1,278.7 571.1,277.3 				"/>
			</g>
		</g>
	</g>
	<g>
		<g>
			<path class="st19" d="M440.1,385.4l-1.1,17.3l0,0.1l-1.7,27.9l-0.1,2.1l-0.5,8l-0.3,5.2l-0.4,5.8l-2.3,37.4l-0.2,3.3l-0.9,14.2v0
				l-0.1,1.5l-0.3,4.4l-0.2,2.8l-0.5,8.5l-0.3,4.9h-99.7l-0.3-4.9l-0.3-5l-0.4-6.2l-0.1-1.8l-0.3-4.1l0-0.1v0l-0.4-6.3l-1.5-23.3
				l-0.4-6.4l-1.7-25.3l0-0.2l-0.2-3.5l-0.6-9l-0.1-0.8l0,0l-0.4-5.7l-0.1-1l-1.8-27.2l0-0.3l-0.8-12.5
				c-0.7-10.3,5.8-19.1,14.1-19.1h89.8C434.2,366.4,440.7,375.1,440.1,385.4z"/>
			<polygon class="st19" points="331,511.3 331,519.1 330.9,519.1 318.3,514 318.3,528.9 312.9,528.9 312.9,505.6 316.8,506.8 
				316.8,506.9 317.3,507 330.4,511.1 			"/>
			<polygon class="st19" points="441.2,505.6 441.2,528.9 435.8,528.9 435.8,514 432.1,515.5 423.1,519.1 423.1,511.3 432.5,508.3 
				437.3,506.8 437.4,506.8 			"/>
			<path class="st20" d="M369,366.4c0,0,35.2,2,48.8,40.2c13.5,38.2,15.1,81.9,15.1,81.9l8.5-102.9c0.8-10.2-5.6-19.1-13.9-19.1H369
				z"/>
			<g>
				<g>
					<path class="st21" d="M439.7,433.3c-0.2,0.6-0.5,1.2-0.7,1.8c-0.8,2-1.5,3.8-2.2,5.4c0,0.1-0.1,0.2-0.2,0.4
						c-0.1,0.2-0.1,0.4-0.2,0.6c-0.8,2.1-1.5,4.1-2.2,6.3c-0.7,2-1.3,4.1-1.9,6.2c-0.7,2.4-1.4,4.9-2,7.4c-0.1,0.3-0.2,0.6-0.2,0.8
						c-1.6,6-3.1,12.4-4.6,19.2c-1.1,4.7-2.2,9.6-3.5,14.7c0,0.2-0.1,0.4-0.1,0.6c-0.5,2.1-1.2,5.8-1.9,10.3
						c-0.3,1.9-0.6,3.9-0.9,5.9c-0.6,3.6-1.1,7.5-1.5,11.2c-0.2,1.7-0.4,3.3-0.5,4.9h-77.4c-0.1-1.6-0.2-3.3-0.3-4.9
						c-0.3-4-0.8-7.8-1.3-11.1c-0.3-2.2-0.7-4.2-1-5.9c0,0,0-0.1,0-0.1c0,0,0,0,0,0c-0.4-1.9-0.8-3.5-1.1-4.8
						c-0.1-0.2-0.1-0.4-0.2-0.6c-0.1-0.3-0.2-0.6-0.3-0.9c-2.2-7-4.3-15.8-6.4-24.7c-0.4-1.7-0.8-3.3-1.2-5c-0.6-2.3-1.1-4.7-1.7-7
						c-0.5-2-1-4-1.5-5.9c0,0,0-0.1,0-0.1c-0.6-2.1-1.1-4.2-1.7-6.2c-0.9-3.2-1.8-6.2-2.8-8.9c-0.2-0.6-0.4-1.2-0.7-1.9
						c-0.6-1.7-1.5-3.7-2.5-5.8c-0.2-0.5-0.5-1-0.8-1.6c-0.3-0.8-0.7-1.5-1.1-2.3c-4.5-9.8-9.2-21.6-1.4-27.8c0,0,0,0,0,0
						c2.9-2.4,6-4.1,9.3-5.5c6.2-2.7,11.1-3.8,17.9-5c4.2-0.8,9.9-1.6,16.8-1.9c2.6,2.4,5.2,4.9,7.8,7.3l0.6,0.3l9,5.3l3.4,2
						l3.8-2.1l9.1-4.9l0,0l7.3-3.9l0.5-0.3l1.2-0.6l5.1-2.8l0.8-0.4c1.5,0.4,2.9,0.7,4.3,1.1c1.1,0.2,2.1,0.5,3.2,0.7
						c8.6,1.8,15.9,3.2,24.2,9.4c0.4,0.3,0.8,0.6,1.2,0.9c0.2,0.1,0.3,0.2,0.5,0.4c0.1,0.1,0.3,0.2,0.4,0.3
						C447.5,410.2,443.6,423.2,439.7,433.3z"/>
					<path class="st22" d="M432.4,453.9c-0.7,2.4-1.4,4.9-2,7.4c-0.1,0.3-0.2,0.6-0.2,0.8c-1.6,6-3.1,12.4-4.6,19.2
						c-1.1,4.7-2.2,9.6-3.5,14.7c0,0.2-0.1,0.4-0.1,0.6c-0.4,2-1,5.7-1.6,10.3c-0.2,1.9-0.5,3.9-0.8,5.9c-0.4,3.6-0.9,7.5-1.3,11.2
						c-0.2,1.7-0.3,3.3-0.5,4.9h-79.2c-0.1-1.6-0.2-3.3-0.3-4.9c-0.2-3.9-0.6-7.7-0.9-11.1c-0.2-2.2-0.4-4.2-0.7-5.9
						c0,0,0-0.1,0-0.1l0,0c-0.3-2-0.6-3.7-0.9-4.8c-0.1-0.2-0.1-0.4-0.2-0.6c-0.1-0.3-0.2-0.6-0.3-0.9c-2.2-7-4.3-15.8-6.4-24.7
						c-0.4-1.7-0.8-3.3-1.2-5c-0.6-2.3-1.1-4.7-1.7-7c-0.5-2-1-4-1.5-5.9l1.5-12.4l0-0.1l0.7-5.8l0.2-1.9c0.1,0.2,0.3,0.4,0.4,0.6
						c3.6,3.8,13.9-13.4,17-7.5c1.2,2.3,1.2,5.7,0.6,9.6c-2.2,13.9-12.3,34.7-7.5,39.1c6.2,5.7,17,5.6,24.9,6
						c3.9,0.2,7.8,0.3,11.8,0.3c3.4,0,6.8,0,10.3-0.2c1,0,2-0.1,3-0.1c7.8-0.4,23.8-0.9,30.1-6c2.2-1.8-1.4-14.4-4.9-26.6
						c-2.6-9.1-5.2-17.9-5.2-21.8c0-0.8,0.1-1.4,0.3-1.8c0.4-0.6,1.1-0.4,2.2,0.4c4.4,3.3,13.6,16.8,18.7,22.2
						c0.1,0.1,0.2,0.2,0.3,0.3c0,0,0,0,0,0C430.7,454.1,432,454.8,432.4,453.9z"/>
				</g>
				<g>
					<g>
						<path class="st9" d="M389,415.4c-3.5,4.2-7.7,6.4-10.4,7.6c-2-0.8-4.2-2-6.5-3.7c-6.5-4.8-9.7-10.9-11.1-14.4
							c0.8-3.4,1.5-6.4,2.1-9c0.1-0.5,0.1-0.6,0.2-0.8c0.8-3.7,0.9-6.9,0.7-9.2c3.3,0.9,8.8,1.9,15.5,1.1c4.9-0.6,8.9-2,11.9-3.3
							c0,0,0.1,0,0.1,0c0.7-0.3,1.3-0.6,1.9-0.9c-0.3,2.9-0.3,6.8,0.6,11.3c0.4,2,0.6,2.1,0.9,3.4
							C396.5,406.1,389.7,414.4,389,415.4z"/>
						<path class="st10" d="M376.8,397.6c-0.2,0-2.9,0.1-3.6,0.1c-1.3,0-4.7-0.7-9.5-8c0-1.3,0-2.6,0-3.8c3.3,0.9,8.8,1.9,15.5,1.1
							c4.8-0.4,8.8-1.8,11.9-3.3c0,0,0.1,0,0.1,0c0.7-0.3,1.3-0.6,1.9-0.9c0,2.3,0,4.6,0,6.9c-2.8,2.9-7.5,7.3-11.4,7.7
							C381.4,397.3,379.4,397.5,376.8,397.6z"/>
					</g>
					<g>
						<path class="st23" d="M382.1,422.4l-7.1,0.4c-1.4,1.8-3.4,4.4-3.3,6c0.2,2.2,3.9,4.8,6.4,5.8c4.2,1.7,6.8-2.9,8.5-5.2
							C388,427.4,384.6,423.6,382.1,422.4z"/>
					</g>
					<path class="st24" d="M363.9,390.3c-2.1,0.2-4.2,0.5-6.3,0.7c0,2.5,0,6.2,0.3,10.7c0.2,3.8,0.4,5.9,0.5,7.2
						c0.2,4.1-0.3,10-4.1,18c4-4.5,7.1-5.3,9.3-5.2c4.2,0.2,6.9,3.7,11.4,3c1.1-0.2,2.3-0.7,3.5-1.8c-7.4-11.4-12.2-20.2-13.4-23.5
						c-1.3-3.3-1.3-6.4-1.3-6.4C363.7,391.9,363.8,390.9,363.9,390.3z"/>
					<path class="st24" d="M393.2,389.6c1.2,0.1,2.5,0.1,3.7,0.2c4.4,0.4,8.4,1,12.1,1.8c-1.5,3-3.3,7.4-4.1,13
						c-1.3,9.9,1.5,17.7,3.1,21.4c-2.6-3-5-4-6.6-4.3c-6.1-1.3-10.2,4-17.8,2.9c-2.3-0.3-4.1-1.1-5.2-1.7
						c3.2-4.8,6.7-10.2,10.3-16.4c2.2-3.8,4.5-7.8,4.6-13.3C393.5,391.7,393.3,390.4,393.2,389.6z"/>
					<path class="st23" d="M370.6,506.6c0.2-2,0.4-4,0.6-5.9c0,0,0,0,0-0.1c0.7-6.8,1.3-14,2-20.9c1.9-20.4,3.4-39.5,3.5-45.9
						c0-1.1,0-1.8-0.1-2.1l5.3-2.8c0,0.1,0.1,0.2,0.1,0.3c0.1,0.3,0.2,2.1,0.3,5.1c0.3,8.5,0.7,26.4,1.1,45.3
						c0.2,7,0.4,14.2,0.6,21.1c0,0,0,0,0,0c0.4,1.8,0.5,3.8,0.2,5.9C379.6,506.6,375.1,506.6,370.6,506.6z"/>
					<g>
						<g>
							<path class="st9" d="M350.7,355.6c0.7,6.5,2.3,11.8,3.7,15.5c1.5,3.9,4.8,11.6,11.5,19.4c1,1.2,2,2.2,2.8,3
								c0.8,0.8,1.8,1.5,2.8,1.9c0.8,0.3,1.6,0.5,2.2,0.5c0.8,0.1,0.9,0,3.6,0c3.2,0,3.4,0.1,4.2-0.1c1.8-0.3,3-1.1,3.8-1.7
								c8-6.2,12.6-14.8,12.6-14.8c2.2-4.1,5.1-10.6,6.7-19.1c0.7-1.8,4.1-11.6-0.9-21.8c-0.8-1.7-3.9-7.8-10.6-11.2
								c-12.7-6.6-31.5,0.1-38.9,13.1C351,346.1,350.6,351.9,350.7,355.6z"/>
							<path class="st10" d="M373.1,375.1c2.1,0.7,3.7,0.6,5.8-0.3C377.9,376.9,374.3,377.1,373.1,375.1z"/>
							<g>
								<path class="st25" d="M382.6,354.2c4.9,1.4,10.4,0.4,14.5-2.6c-1.9,1.7-4.3,3-6.9,3.7c-2.6,0.7-5.3,0.9-8,0.4
									c-0.4-0.1-0.7-0.5-0.6-0.9C381.8,354.3,382.2,354.1,382.6,354.2L382.6,354.2z"/>
							</g>
							<g>
								<path class="st25" d="M368.4,356.7c-5.3,1-10.9-0.6-14.8-4.1c2.1,1.5,4.5,2.6,7,3c2.5,0.4,5.1,0.3,7.5-0.4
									C369,354.9,369.4,356.5,368.4,356.7L368.4,356.7z"/>
							</g>
							<g>
								<path class="st25" d="M358.7,362.5c2.7,1.7,5.9,1.5,8.5-0.3C365.3,364.9,360.7,365.2,358.7,362.5L358.7,362.5z"/>
							</g>
							<g>
								<path class="st25" d="M383.7,361.4c2.8,2.1,6.2,1.8,8.9-0.2C390.7,364.1,385.8,364.4,383.7,361.4L383.7,361.4z"/>
							</g>
							<path class="st26" d="M396.7,333.7c-1.7,0.7-4.2,1.8-6.9,3.5c-2.5,1.6-7.9,5.1-12.4,11.8c-3.9,5.9-5.2,11.6-5.8,15.1
								c0-2.6,0.2-6.1,1.2-10c1-4,2.5-7.3,3.7-9.6c-1.3,1-3.2,2.6-4.7,5.1c-3.1,5.2-2.5,10.6-2.2,12.3c-0.5-2.3-1-6.6,0.5-11.5
								c0.8-2.7,1.9-4.7,2.9-6.2c-1.3,1-3.1,2.5-4.6,4.9c-2.7,4.1-3.2,8.2-3.2,10.2c-0.8-5.8,0.5-9.5,2-11.8
								c1.2-1.8,2.7-3.1,2.6-3.1c-1.6,1-4.6,3.4-6.7,7.4c-2.7,5.1-2.4,9.9-2.2,11.8c-0.5-2-1.3-6.5,0.4-11.8
								c1.4-4.5,3.9-7.4,5.3-8.9c0-0.7,0.3-10.1,8-15c6.5-4.1,15.5-3.3,21.8,2.3C396.7,331.4,396.7,332.6,396.7,333.7z"/>
							<path class="st26" d="M396.7,333.7c-2.5,1.1-6,3-9.2,6.3c-1.6,1.6-5,5.2-6.9,11c-1.1,3.4-1.2,6.4-1.2,8.4
								c-0.5-1.9-1.3-6,0-10.7c0.8-3,2.2-5.1,3.2-6.5c0.4-0.9,2.8-6.4,8.6-8.1C393.5,333.4,395.4,333.5,396.7,333.7z"/>
							<path class="st9" d="M354.1,361.3c-0.8-2.1-0.6-2.7-1.5-4.7c-1.1-2.4-1.9-2.8-2.2-2.9c-1-0.4-2.4-0.1-3.3,0.6
								c-2.2,1.9-1,6.5-0.1,9.8c0.7,2.5,1.5,5.4,4,7.6c1,0.9,2.5,2.2,4.2,1.9c1.7-0.3,3.2-2,3.3-3.6c0.1-1.1-0.7-1.4-2.3-4.2
								C355.7,364.8,354.8,363.3,354.1,361.3z"/>
							<path class="st9" d="M401.6,361.3c0.8-2.1,0.6-2.7,1.5-4.7c1.1-2.4,1.9-2.8,2.2-2.9c1-0.4,2.4-0.1,3.3,0.6
								c2.2,1.9,1,6.5,0.1,9.8c-0.7,2.5-1.5,5.4-4,7.6c-1,0.9-2.5,2.2-4.2,1.9c-1.7-0.3-3.2-2-3.3-3.6c-0.1-1.1,0.7-1.4,2.3-4.2
								C400,364.8,400.9,363.3,401.6,361.3z"/>
							<path class="st26" d="M395.4,330.6c-9.1,2.5-19,5.3-25.2,9.7c-2.8,2-9.2,7.4-12.4,20.6c0.1-3.1,0.6-8.1,3.2-13.5
								c1.3-2.6,2.7-4.7,4.1-6.4c-1.7,1.3-3.8,3.4-5.8,6.2c-3.4,5.1-4.2,10.2-4.5,12.9c-0.2-2-0.3-5.3,0.8-9.2
								c0.9-3,2.2-5.3,3.3-6.8c-1.1,1-2.5,2.5-3.8,4.7c-1.9,3.2-2.4,6.3-2.5,8.1c-0.3-1.4-0.5-3.6,0-6.1c0.3-2,0.9-3.6,1.5-4.8
								c-0.7,1.2-1.4,2.7-2,4.4c-1.5,5-0.9,9.4-0.3,11.8c0,0,0,0,0,0c0.2,1.1,0.2,1.4,0.3,1.5c-0.5-1.3-0.9-2.5-1.4-3.8
								c-0.5-1.3-1-3.4-1-6c0-2.5,0.5-4.6,1-5.9c-0.4,0.6-0.8,1.4-1.1,2.3c-0.6,1.8-0.5,3.3-0.4,4.3c-0.3-1-0.5-2.4-0.5-3.9
								c0-2,0.4-3.6,0.7-4.7c-0.4,0.6-1.2,1.8-1.4,3.6c-0.1,1.4,0.1,2.5,0.3,3.1c-0.4-0.8-1-2.2-1.2-3.9c-0.2-1.6,0-3,0.2-3.9
								c-0.3,0.6-1.1,2.1-0.8,4.1c0.1,1.1,0.5,1.9,0.9,2.4c-0.8-1.2-1.8-3.1-2.6-5.6c-3.5-11.4,3.6-21.9,5-24.1
								c1.5-2.3,8.1-12,20.7-14.2c8.1-1.4,14.6,1,17.4,2.3c-1.7-1.2-6-3.8-12.2-4c-5.6-0.1-9.7,1.8-11.5,2.8
								c3.2-1.5,9.7-3.9,17.9-3.2c3.2,0.3,10.7,1,17.5,6.4c1.9,1.5,3.3,3,4.2,4.1c0.3,0.4,1,1.6,1,3.2c-0.1,2.8-2.5,4.3-2.7,4.5
								c0.7-0.6,2.1-1.6,4-1.9c4.1-0.7,7.2,2.2,7.6,2.6c-0.7-0.5-1.9-1.3-3.6-1.6c-2.4-0.5-4.3,0.2-5.1,0.5c1.3,0.6,3.3,1.7,4.7,3.8
								c1.4,2.2,1.5,4.5,1.2,9.2c-0.3,3.5-0.8,8.1-2,13.5c-1,3-2,6.1-3,9.3c-1.4,4.5-1.8,7.4-2.2,7.3c-0.5-0.1,0.1-5-0.2-13.5
								c-0.1-1.4-0.1-2.6-0.2-3.4c-0.7-0.6-1.6-1.5-2.6-2.7c-2.2-3-2.8-5.9-3.4-8.8c-0.4-1.9-0.8-4.6-0.7-7.8
								C396.4,330.3,396,330.4,395.4,330.6z"/>
						</g>
						<path class="st10" d="M369.5,384.9c0.2-0.4,0.5-0.4,0.8-0.6c0.9-0.5,1.7-0.8,2.7-1.2c3.5-1.2,7.4-1.1,10.2,1.5
							c0.9,0.8,0.7,1.1-0.3,0.4c-3.7-2.2-8.4-1.3-12.4-0.3C370.1,384.9,369.9,385,369.5,384.9L369.5,384.9z"/>
					</g>
				</g>
				<g>
					<path class="st21" d="M340,393.4c-2.5,12.8-5,25.5-7.5,38.3c-7.5,6.7-9.6,19.1-11.5,28.5c-2.7,13.5-8.8,34.1-21.7,41.3
						c-4.7,2.7-10.6,2.4-14.4-1.4c-1.7-1.7-2.8-3.6-3.5-5.1c-2.3-5.1-2.1-9.9-2-11.8c0.4-7.2,4.7-24.2,13.2-45.9
						c3.2-16.8,10.9-25.4,15-29.2c0.5-0.5,2-1.8,4.2-3.4C321.9,397.3,332.3,394.5,340,393.4z"/>
					<path class="st27" d="M336.5,411.3l-24.2,46.4c-5.9,5.1-10.7,11.9-15.7,18.1c-2.7,3.3-9.2,17.4-15,19.1
						c-1.5-3.5-1.7-7.4-1.1-11.5c1.7-12.5,5.1-20.3,8.6-27.9C296.2,449.4,323.2,430.9,336.5,411.3z"/>
				</g>
				<g>
					<path class="st21" d="M419.9,394.6l0.5,36.9c7.1,7.1,8.3,19.7,9.6,29.2c1.8,13.6-0.4,31.2,12,39.3c4.6,3,16.4,4.2,20.4,0.6
						c1.7-1.5,2.2-1.2,3.1-2.9c0.6-1.2,3.2-7.3,3.6-11.1c0.8-9.5-9.2-37.9-12.8-48.9c-6.3-19.5-5.2-23.6-11.4-30.4
						C437,398.8,426.7,395.8,419.9,394.6z"/>
				</g>
				<g>
					<g>
						<g>
							<g>
								<path class="st9" d="M349.9,378.4l-3.1,13.7c-2.1-9.3-1.7-16.5-1.1-21.3c0.9-6.1,2.6-10.7,3.4-10.6c0.3,0,1,0.7,1.3,1.4
									c0.1,0.1,0.1,0.3,0.2,0.4c0.3,0.7,0.4,1.6,0.5,2.5c0.3,3.1-0.4,6.9-0.8,9.6C350.2,375.5,350.1,377.7,349.9,378.4z"/>
								<path class="st10" d="M347.2,382c-0.5-1.5-1-3.7-0.7-6.3c0.2-1.8,0.6-3,1-4.2c0.8-2.2,1.8-5.5,2.9-9.8
									c0.1,0.1,0.1,0.3,0.2,0.4c0.3,0.7,0.4,1.6,0.5,2.5c-0.6,1.5-1.2,2.9-1.7,4.3C347.9,372.8,347.3,377.7,347.2,382z"/>
							</g>
							<path class="st9" d="M361.6,404.2c0.1-3.1-0.9-3.8-1.8-10.6c-0.1-0.5-0.2-1.2-0.2-1.8c-0.2-2-0.4-4.1-0.7-6.2
								c-0.1-0.7-0.1-1.3-0.1-2c0-0.3,0-0.7,0-1c0-0.4,0.1-0.8,0.1-1.2c0,0,0,0,0,0c0-0.4,0.1-0.8,0.2-1.2c0-0.2,0.1-0.5,0.1-0.7
								c0-0.3,0.1-0.5,0.1-0.8c0-0.3,0.1-0.5,0.2-0.8c0.1-0.6,0.2-1.1,0.4-1.7c0-0.2,0.1-0.5,0.2-0.8c0.1-0.3,0.2-0.6,0.3-0.9
								c0.1-0.3,0.2-0.5,0.3-0.9c0.1-0.2,0.1-0.4,0.2-0.6c0.1-0.3,0.2-0.6,0.3-0.9c0.1-0.2,0.1-0.5,0.2-0.7c0,0,0-0.1,0-0.1
								c0.1-0.2,0.1-0.5,0.2-0.7c0-0.1,0-0.3,0.1-0.4c0-0.2,0.1-0.4,0.1-0.5c0.1-0.5,0-1,0-1.4c-0.1-0.2-0.1-0.7-0.4-0.9
								c-0.8-0.5-2.6,1.1-4,2.6c-0.2,0.2-0.4,0.5-0.6,0.7c-0.1,0.2-0.3,0.3-0.4,0.5c0,0-0.1,0.1-0.1,0.1c-1,1.3-2.5,3.6-3.3,7.3
								c-0.2,1-0.4,2.2-0.4,3.5c0,0.5-0.1,0.9-0.1,1.3c0,0.1,0,0.1,0,0.2c0-0.1,0-0.1,0-0.2c-0.1-0.9-0.2-1.8-0.1-2.8
								c0-0.3,0-0.6,0.1-0.8c0-0.2,0-0.4,0.1-0.6c0-0.2,0.1-0.5,0.1-0.7c0,0,0,0,0-0.1c0.2-1.5,0.5-2.9,0.6-4.1
								c0.2-1.2,0.4-2.4,0.6-3.5c0.2-0.9,0.4-1.8,0.5-2.7c0.1-0.4,0.2-0.9,0.3-1.3c0.1-0.6,0.2-1.3,0.3-1.9c0-0.2,0.1-0.4,0.1-0.6v0
								c0-0.1,0-0.1,0-0.2c0-0.1,0-0.2,0.1-0.4c0-0.1,0-0.2,0-0.2c0,0,0-0.1,0-0.2c0.1-0.3,0.1-0.6,0.2-0.9c0-0.2,0.1-0.4,0.1-0.6
								c0-0.2,0.1-0.5,0.1-0.7c0,0,0-0.1,0-0.1c0-0.2,0.1-0.5,0.1-0.7c0-0.1,0-0.3,0-0.4c0-0.2,0-0.5,0-0.7c0-1.3-0.1-2.6-0.6-3.1
								c-0.1-0.1-0.2-0.2-0.3-0.2c0,0,0,0,0,0c-0.1,0-0.3-0.1-0.6-0.1c-0.8,0.1-1.6,1.6-2.3,3.3c-0.1,0.2-0.2,0.4-0.2,0.6
								c-0.3,0.9-0.6,1.7-0.8,2.4v0c-0.2,0.8-0.4,1.4-0.4,1.4c-0.7,2.9-1.3,5.3-1.8,7.2c-0.1,0.2-0.1,0.4-0.2,0.6
								c-0.9,3.3-1.4,5.3-1.7,6.7v0c0,0,0,0,0,0c-0.4,1.6-0.5,2.4-0.5,3.7c-0.1,2-0.2,3.9-0.2,5.5v0c0,1.4,0.1,2.6,0.4,3.6
								c0.3,1.2,0.6,2.3,0.9,3.4c0.4,1.8,0.6,3.6,0.4,5.6c-0.4,4-1.7,7.2-3,10.4c-0.7,1.6-1.4,3.2-2.1,4.8v0c0,0,0,0,0,0
								c-0.2,0.6-0.5,1.2-0.7,1.8c0.1,0.1,0.2,0.3,0.3,0.4c2,2.8,2.7,4.7,4.5,7.9c0.2,0.2,0.3,0.5,0.4,0.8c2.4-1.6,4.6-4.6,6.6-6.6
								c0.2-0.2,0.4-0.4,0.5-0.5c0.2-0.2,0.3-0.3,0.5-0.5c0.2-0.2,0.4-0.4,0.6-0.7c0.2-0.3,0.5-0.5,0.7-0.8c0.2-0.3,0.4-0.5,0.6-0.8
								c0.4-0.5,0.6-0.8,0.6-0.8C361.5,410.2,361.6,404.2,361.6,404.2z"/>
							<path class="st10" d="M353.6,419.4c-1.5,1.8-3,3.2-3.2,3.4c-1.1,1.2-2.2,2.3-3.4,3.1c-0.1-0.3-0.3-0.5-0.4-0.8
								c3.1-5.4,6.3-8.7,8.7-10.8c8.1-9.2,2.2-27.6,2.1-30.4c-0.1-5.4,2.3-10.6,4.1-15.6c0.5,2.2-1.3,6.4-1.6,8
								c-0.3,1.4-0.5,2.7-0.7,3.9c0,0-0.3,2.6-0.3,5.4c0.2,9.1,4.9,17.5,1.4,24.8C359.1,413.1,356.5,416.1,353.6,419.4z"/>
							<path class="st10" d="M354.9,364.1c-0.6,3.4-1.4,6.8-1.9,10.2c-0.4,2.6-1.2,6.3-0.7,9.1c-0.1-1.1-0.2-2.7-0.2-4.6
								c0-4.4,0.8-7.6,1.2-9.8c0.6-3,1.3-7.3,1.7-12.9C356.2,357.5,355.1,362.8,354.9,364.1z"/>
						</g>
						<path class="st24" d="M337,409.6c-1.1,1.4-3,3.7-5.4,6.6c-30.2,36.2-49.4,48.9-51.3,69.6c-0.3,3.9,0.1,8,2.5,11.5
							c4.3,6.3,13.1,8.8,21.8,5.3c10.4-4.2,16.8-13.1,21.6-22.1c8.1-14.9,18.7-35.7,29.8-62.3C349.7,415.4,343.3,412.5,337,409.6z"
							/>
					</g>
					<g>
						<g>
							<g>
								<path class="st9" d="M408.6,375.7l2.2,12.7c2.2-7.6,2.4-13.8,2.1-18.1c-0.4-6.4-1.9-11.4-2.7-11.4c-0.3,0-0.9,0.6-1.3,1.2
									c-0.1,0.1-0.1,0.2-0.2,0.4c-0.3,0.7-0.5,1.4-0.6,2.3c-0.4,2.8,0.1,6.4,0.2,8.8C408.5,373,408.5,375,408.6,375.7z"/>
								<path class="st10" d="M410.9,379.1c1.3-3.3,0.5-10-0.4-13.5c-0.5-1.9-0.4-3.4-1.6-5.4c-0.1,0.1-0.1,0.2-0.2,0.4
									c-0.3,0.7-0.5,1.4-0.6,2.3c0.4,1.4,1,2.7,1.4,4C410.8,370.7,411.1,375.2,410.9,379.1z"/>
							</g>
							<path class="st9" d="M412.5,407.9c-1.1-2.4-2.3-4.8-3.4-7.2c-0.3-4.2,0.3-7,0.9-8.8c0.2-0.6,0.6-2.3,1.3-4.5
								c0.3-0.9,0.5-2,0.5-3.2c0,0,0,0,0,0c0.1-1.5,0.1-3.2,0.1-5.1c0-1.1-0.1-2.3-0.3-3.7v0c0,0,0,0,0,0c-0.2-1.2-0.4-2.5-0.7-4v0
								c-0.1-0.4-0.2-0.9-0.2-1.3c-0.2-1-0.4-2.2-0.7-3.5c0,0-0.4-2.2-1.1-4.7v0c-0.1-0.4-0.2-0.8-0.3-1.1c0-0.1-0.1-0.2-0.1-0.4
								c-0.8-2.7-1.7-5.4-2.6-5.6c0,0,0,0-0.1,0c-0.3,0-0.5,0.1-0.5,0.1c-0.1,0.1-0.2,0.1-0.3,0.2c-1.3,1.2-0.5,6.2-0.4,7.3
								c0,0.4,0.1,0.7,0.1,1.1c0,0.3,0.1,0.5,0.1,0.8c0.1,0.4,0.1,0.8,0.2,1.3c0.1,0.9,0.3,1.9,0.4,2.8c0.1,0.5,0.2,1.1,0.2,1.6
								c0,0.1,0,0.1,0,0.2c0,0.2,0.1,0.4,0.1,0.6c0.1,0.4,0.1,0.8,0.1,1.2c0.2,1.8,0.5,4.1,0.5,6.2c0,0.1,0,0.2,0,0.2
								c0,0.2,0,0.4,0,0.7c0,0.2,0,0.4-0.1,0.6c0,0.1,0,0.1,0,0.2c0,0.2,0,0.3-0.1,0.4c0,0.1,0,0.1-0.1,0.2c0-0.1,0-0.1,0-0.2
								c0-0.4,0-0.8,0-1.2v0c0-0.3,0-0.6,0-0.8c-0.1-1.8-0.7-3.1-1-4.1c-0.4-1-0.7-1.8-1-2.5c-0.2-0.6-0.4-1.1-0.6-1.5
								c0,0,0-0.1-0.1-0.1c-0.3-0.8-0.5-1.2-0.6-1.3c-1.1-1.7-3.1-3.9-4-3.5c-0.2,0.1-0.3,0.3-0.4,0.5v0c0,0.1-0.1,0.2-0.1,0.3
								c0,0.1-0.1,0.2-0.1,0.3c0,0,0,0,0,0.1c-0.1,0.3-0.1,0.7,0,1.1c0,0.1,0,0.2,0,0.4c0,0.1,0,0.2,0,0.2c0,0.1,0,0.2,0,0.3
								c0,0.1,0,0.3,0.1,0.4c0.1,0.4,0.2,0.8,0.2,1.2c0,0.2,0.1,0.4,0.1,0.5c0.1,0.3,0.1,0.6,0.2,0.8c0.1,0.2,0.1,0.4,0.2,0.5
								c0.1,0.2,0.1,0.4,0.1,0.6c0.1,0.3,0.2,0.6,0.2,0.8c0.5,2.8,0.9,5.7,0.4,8.6c0,0.2-0.1,0.4-0.1,0.6c-0.1,0.5-0.2,1-0.2,1.4v0
								c-0.3,2-0.6,3.9-1,5.8c-0.2,1.3-0.5,2.6-0.8,3.8c-0.4,1.8-0.9,2.6-1.2,4.3c-0.2,1.1-0.2,1.9-0.3,2.5c0.2,1.1,0.7,4.4,1.5,5.8
								c0.1,0.1,0.2,0.2,0.3,0.4l0.4,0.5c0.1,0.2,0.2,0.3,0.3,0.4c0.4,0.5,0.7,0.9,1,1.4c0.4,0.5,0.7,1,1.1,1.5
								c0.2,0.3,0.4,0.5,0.6,0.8c0.2,0.3,0.4,0.5,0.6,0.8c0.3,0.4,0.7,0.8,1.1,1.2c1.2,1.3,2.4,2.9,3.7,4.4c0.4,0.4,0.7,0.8,1.1,1.2
								c0.1,0.1,0.2,0.2,0.3,0.3c0.2,0.2,0.4,0.3,0.6,0.5c0.1-0.2,0.3-0.5,0.4-0.7c1.9-2.9,2.7-4.7,4.8-7.3
								C413.7,410.3,413.1,409.1,412.5,407.9z"/>
							<path class="st10" d="M398.1,406.6c1.6,2.6,3,4.3,5.1,6.6c1.8,1.9,3.7,4.7,5.8,6.4c0.1-0.2,0.3-0.5,0.4-0.7
								c-5.4-6.4-11.5-13.9-10.8-22.2c0.2-2.9,0.4-5.7,1-8.3c0.6-2.5,1.6-5.3,1.8-7.9c0.4-4.9-2.3-7.4-3-14.5c-0.5,2,0.9,6,1.1,7.4
								c0.5,2.8,0.9,5.7,0.4,8.6c-0.9,5.5-3.4,12.2-3.8,17.6C396.1,401.5,396.7,404.3,398.1,406.6z"/>
							<path class="st28" d="M408.8,377.2c-0.1,0.5-0.1,1.1-0.2,1.6c0.1,0,0.2-0.1,0.3-0.2C408.9,378.1,408.9,377.7,408.8,377.2z"/>
							<path class="st10" d="M404.8,362.3c0.3,3.2,0.9,6.3,1.3,9.5c0.3,2.4,0.8,5.9,0.2,8.4c1.2-1.8,0.6-10.8,0-13.7
								c-0.7-3.7-1.4-7.7-1.2-11.5C403.9,356.2,404.6,361.2,404.8,362.3z"/>
						</g>
						<path class="st24" d="M417.7,407.4c12.4,21.7,49.8,53.3,51.4,78.5c1,15.3-10,21-25.1,15.5c-11.3-4.1-16.6-15.2-20.4-23.2
							c-7.1-15.1-16.4-36.4-25.8-63.9C404.4,412,411.1,409.7,417.7,407.4z"/>
						<path class="st29" d="M402.7,428.2c3.1-0.3,6.8-1,11-2.3c5-1.7,9-3.8,11.9-5.7"/>
					</g>
				</g>
			</g>
		</g>
		<g>
			<g>
				<rect x="84.8" y="506.8" class="st30" width="539.6" height="17.2"/>
			</g>
			<g>
				<rect x="587.5" y="417.5" class="st18" width="23.1" height="83.1"/>
				<polygon class="st15" points="587.5,417.5 610.6,500.6 587.5,500.6 				"/>
				<g>
					<path class="st15" d="M592.8,476.3c0-4.4,3.3-8,7.5-8.6c-0.4-0.1-0.8-0.1-1.2-0.1c-4.8,0-8.7,3.9-8.7,8.7
						c0,4.8,3.9,8.7,8.7,8.7c0.4,0,0.8-0.1,1.2-0.1C596.1,484.3,592.8,480.7,592.8,476.3z"/>
					<path class="st31" d="M607.9,476.3c0-4.4-3.3-8-7.5-8.6c-4.2,0.6-7.5,4.2-7.5,8.6c0,4.4,3.3,8,7.5,8.6
						C604.6,484.3,607.9,480.7,607.9,476.3z"/>
				</g>
				<rect x="591.6" y="432.6" class="st8" width="13.9" height="21.6"/>
				<rect x="591.6" y="456.9" class="st8" width="13.9" height="5.6"/>
				<g>
					<path class="st32" d="M602.9,437.3h-8.9c-0.4,0-0.8-0.4-0.8-0.8s0.4-0.8,0.8-0.8h8.9c0.4,0,0.8,0.4,0.8,0.8
						S603.3,437.3,602.9,437.3z"/>
				</g>
				<g>
					<path class="st32" d="M602.9,441h-8.9c-0.4,0-0.8-0.4-0.8-0.8s0.4-0.8,0.8-0.8h8.9c0.4,0,0.8,0.4,0.8,0.8S603.3,441,602.9,441z
						"/>
				</g>
				<g>
					<path class="st32" d="M602.9,444.7h-8.9c-0.4,0-0.8-0.4-0.8-0.8s0.4-0.8,0.8-0.8h8.9c0.4,0,0.8,0.4,0.8,0.8
						S603.3,444.7,602.9,444.7z"/>
				</g>
				<g>
					<path class="st32" d="M602.9,448.4h-8.9c-0.4,0-0.8-0.4-0.8-0.8s0.4-0.8,0.8-0.8h8.9c0.4,0,0.8,0.4,0.8,0.8
						S603.3,448.4,602.9,448.4z"/>
				</g>
				<g>
					<path class="st32" d="M602.9,452.1h-8.9c-0.4,0-0.8-0.4-0.8-0.8s0.4-0.8,0.8-0.8h8.9c0.4,0,0.8,0.4,0.8,0.8
						S603.3,452.1,602.9,452.1z"/>
				</g>
			</g>
			<g>
				
					<rect x="559.5" y="415.5" transform="matrix(0.9876 0.1569 -0.1569 0.9876 78.7639 -83.9116)" class="st15" width="23.1" height="83.1"/>
				<g>
					<path class="st15" d="M562.2,473.2c0.7-4.4,4.5-7.4,8.8-7.3c-0.4-0.1-0.7-0.2-1.1-0.3c-4.7-0.8-9.2,2.5-9.9,7.2
						c-0.8,4.7,2.5,9.2,7.2,9.9c0.4,0.1,0.8,0.1,1.2,0.1C564.2,481.6,561.5,477.5,562.2,473.2z"/>
					<path class="st31" d="M577.1,475.5c0.7-4.4-2-8.4-6.1-9.7c-4.3-0.1-8.1,2.9-8.8,7.3c-0.7,4.4,2,8.4,6.1,9.7
						C572.6,482.9,576.4,479.9,577.1,475.5z"/>
				</g>
				
					<rect x="566.1" y="430.8" transform="matrix(0.9876 0.1568 -0.1568 0.9876 76.3487 -84.4178)" class="st8" width="13.9" height="21.6"/>
				
					<rect x="563.6" y="454.8" transform="matrix(0.9876 0.1568 -0.1568 0.9876 78.8373 -83.8203)" class="st8" width="13.9" height="5.6"/>
				<g>
					<path class="st32" d="M578.4,436.2c0,0-0.1,0-0.1,0l-8.8-1.4c-0.4-0.1-0.7-0.5-0.7-0.9c0.1-0.4,0.5-0.7,0.9-0.7l8.8,1.4
						c0.4,0.1,0.7,0.5,0.7,0.9C579.1,435.9,578.8,436.2,578.4,436.2z"/>
				</g>
				<g>
					<path class="st32" d="M577.8,439.8c0,0-0.1,0-0.1,0l-8.8-1.4c-0.4-0.1-0.7-0.5-0.7-0.9c0.1-0.4,0.5-0.7,0.9-0.7l8.8,1.4
						c0.4,0.1,0.7,0.5,0.7,0.9C578.5,439.6,578.2,439.8,577.8,439.8z"/>
				</g>
				<g>
					<path class="st32" d="M577.2,443.5c0,0-0.1,0-0.1,0l-8.8-1.4c-0.4-0.1-0.7-0.5-0.7-0.9c0.1-0.4,0.5-0.7,0.9-0.7l8.8,1.4
						c0.4,0.1,0.7,0.5,0.7,0.9C577.9,443.2,577.6,443.5,577.2,443.5z"/>
				</g>
				<g>
					<path class="st32" d="M576.6,447.1c0,0-0.1,0-0.1,0l-8.8-1.4c-0.4-0.1-0.7-0.5-0.7-0.9c0.1-0.4,0.5-0.7,0.9-0.7l8.8,1.4
						c0.4,0.1,0.7,0.5,0.7,0.9C577.4,446.9,577,447.1,576.6,447.1z"/>
				</g>
				<g>
					<path class="st32" d="M576.1,450.8c0,0-0.1,0-0.1,0l-8.8-1.4c-0.4-0.1-0.7-0.5-0.7-0.9c0.1-0.4,0.5-0.7,0.9-0.7l8.8,1.4
						c0.4,0.1,0.7,0.5,0.7,0.9C576.8,450.5,576.4,450.8,576.1,450.8z"/>
				</g>
			</g>
			<polygon class="st31" points="528.1,503.6 528.1,452.7 531.6,452.7 531.6,500.3 610,500.3 610,452.7 613.2,452.7 613.2,503.6 			
				"/>
			<polygon class="st33" points="624.4,512.5 84.8,513.2 84.8,507.3 624.4,506.6 			"/>
			<g>
				<g>
					<path class="st34" d="M323,501.2H219.8c-1.7,0-3-1.3-3-3v-63.9c0-1.7,1.3-3,3-3H323c1.7,0,3,1.3,3,3v63.9
						C326,499.8,324.7,501.2,323,501.2z"/>
					<path class="st35" d="M321.5,501.2H218.3c-1.7,0-3-1.3-3-3v-63.9c0-1.7,1.3-3,3-3h103.2c1.7,0,3,1.3,3,3v63.9
						C324.5,499.8,323.1,501.2,321.5,501.2z"/>
					<path class="st8" d="M279.2,468.7c0,4.8-4.2,8.7-9.3,8.7s-9.3-3.9-9.3-8.7s4.2-8.7,9.3-8.7S279.2,463.9,279.2,468.7z"/>
					<polygon class="st35" points="223.6,500.6 224.1,506.9 362.9,506.9 362.9,500.6 					"/>
					<polygon class="st36" points="323.3,500.6 323.6,506.9 370.5,506.9 370.5,500.6 					"/>
				</g>
				<polygon class="st36" points="223.7,506.9 320.3,500.6 223.6,501.2 				"/>
			</g>
		</g>
		<g>
			<g>
				<polygon class="st31" points="191.2,508.4 99.9,508.4 101.4,489.3 191.8,488.9 				"/>
				<polygon class="st37" points="191.2,508.4 136.3,508.4 101.1,492.8 101.4,489.3 191.8,488.9 				"/>
				<polygon class="st38" points="177.7,492.9 177.5,504.5 149.9,504.5 149.9,493.3 				"/>
				<polygon class="st38" points="147.4,493.3 147.6,504.5 143.2,504.5 142.7,493.3 				"/>
			</g>
			<g>
				<g>
					<polygon class="st39" points="187.4,488.9 189.7,471.2 184.5,471.7 94.9,480.7 95.1,482.3 185.9,474.3 183.9,487.2 95.4,487.3 
						95.3,488.7 					"/>
					<path class="st40" d="M185,479.7c0,0-3.5-6.3-6.7-4.8c-3.2,1.6-3.5,5.2-3.5,5.2l0.9,0.6c0,0,0.8-5,3.5-4.9
						c2.7,0,4.3,4.9,4.3,4.9s0.6,3.3-2.1,4.9c-2.7,1.6-4.4,0.2-4.8-0.5c-0.4-0.7-0.7-2.8-0.7-2.8l-1,0.1c0,0,0.1,3,1.2,4
						c1.2,1,3.5,1.5,5.5,0.6c1.4-0.6,2.9-2.5,2.9-2.5L185,479.7z"/>
				</g>
			</g>
		</g>
		<g>
			<g>
				<g>
					<polygon class="st41" points="489.6,479.9 490,482.2 493,483.9 490.7,483.7 541.5,503.7 544.2,502.9 545.5,496.1 					"/>
					<polygon class="st15" points="520.6,416.7 489.6,479.9 539.7,500.3 578.6,423.6 					"/>
					<polygon class="st17" points="578.6,423.6 547.4,437.4 537.8,499.6 509,487.1 489.6,479.9 520.6,416.7 					"/>
					<path class="st8" d="M578.6,423.6l1.8,1.8l-0.9,1.8l2.2-1.7l0.8,1.8c0,0-37.8,75.5-38.2,75.5c-0.4,0-2-0.1-2-0.1l1.5-2.3
						l-2.5,2.3l-1.6-2.4L578.6,423.6z"/>
				</g>
				<polygon class="st42" points="570.1,444.2 580.6,424.6 583.2,423.7 				"/>
				<polygon class="st42" points="552.8,479.7 570.1,446.3 570.1,451 				"/>
			</g>
			<g>
				<path class="st8" d="M457,495.3l16-0.1c8.2-6.5,25-46.1,25-46.1l57.3-2c0,0-21.8,50.6-29,56c-7.2,5.4-26.3-8.1-26.3-8.1
					L457,495.3z"/>
				<g>
					<polygon class="st43" points="532.1,450.9 549.7,450.2 549,451.1 531.5,451.7 					"/>
					<polygon class="st43" points="530.3,454.1 548.6,453.4 548,454.3 529.8,454.9 					"/>
					<polygon class="st43" points="534.5,457.2 547.6,456.7 546.9,457.6 534,458 					"/>
					<polygon class="st43" points="509.2,461.1 527.6,460.4 527,461.3 508.6,461.9 					"/>
					<polygon class="st43" points="496.5,464.6 544.6,463.1 543.9,464 495.9,465.4 					"/>
					<polygon class="st43" points="494.7,467.8 542.8,466.4 542.2,467.3 494.2,468.6 					"/>
					<polygon class="st43" points="492.9,471.1 541,469.6 540.4,470.5 492.4,471.8 					"/>
					<polygon class="st43" points="491.6,474.3 539.7,472.8 539.1,473.7 491.1,475.1 					"/>
					<polygon class="st43" points="490.4,477.5 538.5,476.1 537.8,477 489.8,478.3 					"/>
					<polygon class="st43" points="488.9,480.8 537,479.3 536.3,480.2 488.3,481.5 					"/>
					<polygon class="st43" points="486.9,484 535,482.5 534.3,483.4 486.3,484.8 					"/>
					<polygon class="st43" points="485,487.2 533.1,485.8 532.5,486.7 484.5,488 					"/>
					<polygon class="st43" points="483.3,490.5 531.4,489 530.7,489.9 482.7,491.3 					"/>
					<polygon class="st43" points="480.5,493.7 528.6,492.3 528,493.2 480,494.5 					"/>
					<polygon class="st43" points="478.8,497 526.9,495.5 526.2,496.4 478.2,497.7 					"/>
					<polygon class="st43" points="477,500.2 525.1,498.7 524.5,499.6 476.5,501 					"/>
					<polygon class="st43" points="475.2,503.4 523.3,502 522.7,502.9 474.7,504.2 					"/>
				</g>
				<path class="st41" d="M457,495.3c0,0,3.6,5.4,9.3,7.9c5.7,2.5,9.8,2.3,9.8,2.3l45.9-0.6c0,0-8.8-1.8-14.3-5.1
					c-5.6-3.2-7.8-4.8-7.8-4.8L457,495.3z"/>
			</g>
		</g>
	</g>
	<g>
		<path class="st26" d="M642,271.9c-0.5-0.7-1.1-1.7-1.8-3c-0.4-0.9-1-2.2-2.1-5.9c-1.1-3.7-1.6-5.5-1.7-7.3c-0.1-2.1,0.1-3.9,0.4-5
			c0.8-0.2,1.6-0.4,2.4-0.5c2,3.2,6.2,11,3.8,19.2C642.7,270.2,642.4,271,642,271.9z"/>
		<g>
			<path class="st9" d="M638,257.4c1.4,6.1,4.5,18.1,10.7,29.4c4.8,8.7,9.2,12.9,14.4,15.1c0.2,0.1,0.4,0.2,0.6,0.2
				c0,0,5.7,2.1,11.7,0.8c8-1.7,13-10.7,13.9-12.3c4.4-7.9,3.6-17.2,2.7-26.6c-0.9-9.5-2.7-15.9-3.6-18.8c-1.7-5.3-2.5-8-3.9-9.7
				c-7.9-9.9-34-10.4-43.5,3.9C637,245.8,637.4,253.1,638,257.4z"/>
			<path class="st44" d="M662.4,295.6c-0.5-0.6-1.6-2.2-1.4-4c0.4-3.4,5.4-5.1,7.4-4.6c0.4,0.1,2.5,0.5,3.4,2.4
				c0.5,1.1,0.4,2.2,0.3,2.7c-0.3-0.1-1-0.2-1.8-0.3c-1.3,0-2.4,0.3-3,0.5C664.9,293.2,663.2,294.9,662.4,295.6z"/>
			<g>
				<path class="st26" d="M655,271.4c-1.5-0.2-3.8-0.4-6.5,0.2c-2,0.4-3.5,1.2-4.7,1.8c0.7-0.7,2.2-2,4.5-2.6
					C651.5,269.9,654.2,271,655,271.4z"/>
			</g>
		</g>
		<g>
			<path class="st26" d="M661.6,264.3c3.5-4.2,8.5-7.1,13.8-8.1c-2.6,0.7-5.1,1.8-7.3,3.3c-2.2,1.5-4.2,3.3-5.7,5.5
				C662,265.4,661.2,264.8,661.6,264.3L661.6,264.3z"/>
		</g>
		<g>
			<path class="st26" d="M653.3,268c-3.7-1.6-7.9-1.8-11.8-0.6c3.8-1.5,8.2-1.7,12.2-0.3C654.3,267.3,654,268.2,653.3,268L653.3,268
				z"/>
		</g>
		<path class="st26" d="M646,272.1c0,0.1,0,1,0.6,1.5c0.7,0.6,1.9,0.6,2.6-0.2c0.5-0.6,0.6-1.6,0.1-2.4c-0.5,0.1-1.1,0.2-1.9,0.4
			C646.9,271.6,646.4,271.8,646,272.1z"/>
		<g>
			<path class="st26" d="M676.8,264.7c-1.6-0.1-3.9,0-6.6,0.8c-2,0.6-3.5,1.5-4.6,2.2c0.6-0.8,2.1-2.2,4.4-3
				C673.1,263.5,675.9,264.4,676.8,264.7z"/>
		</g>
		<path class="st26" d="M667.6,266.2c0,0.1,0.1,1,0.8,1.4c0.8,0.5,2,0.4,2.6-0.4c0.5-0.7,0.5-1.7-0.1-2.4c-0.5,0.1-1.2,0.3-1.9,0.6
			C668.4,265.6,668,265.9,667.6,266.2z"/>
	</g>
	<path class="st45" d="M690.5,312.7l4.2-7.6c-2.5-4.4-5.2-3.8-5.2-3.8L683,307l3.5,12.1L690.5,312.7z"/>
	<path class="st45" d="M675.5,310.7l-10.1-6.5c-2.1,1.1-2.2,3-2.3,4.3l10.4,10L675.5,310.7z"/>
	<g>
		<rect x="51.4" y="522.2" class="st7" width="764.9" height="8.2"/>
	</g>
	<polyline class="st46" points="817.6,528.9 758.9,528.9 758.8,528.9 757.3,528.9 709.9,528.9 708.8,528.9 707.4,528.9 696,528.9 
		658.4,528.9 441.2,528.9 435.8,528.9 431.3,528.9 417.7,528.9 416.9,528.9 385.9,528.9 370,528.9 339.5,528.9 338.5,528.9 
		331.5,528.9 318.3,528.9 312.9,528.9 75.2,528.9 	"/>
	<path class="st26" d="M678.6,228.1c0.5,0.7,0.6,1.4,0.6,2c-0.5,3.7-1.8,9.7-6.2,15.3c0,0-8,10.3-26.7,11.7c-0.5,0-1.7,0.1-2.6-0.6
		c-0.9-0.7-1.2-1.9-1.3-2.5c-0.7,0.7-2.2,2.4-2.8,5.1c-0.4,2-0.2,3.7,0.1,4.6c-1-2.2-2-4.3-3-6.5c-0.9-3.6-1.3-8.4,0.5-13.2
		C643.6,226.9,674.3,221.7,678.6,228.1z"/>
	<path class="st9" d="M694.6,258.2c-0.8,0.5-1.6,1.3-2.3,2.3c-2.8,4-0.9,9.1-0.7,9.8c-0.2-0.1-0.4-0.1-0.5-0.1
		c-1.5-0.2-2.8,0.7-3.2,1.2c0-0.6-0.1-1.5-0.3-2.6c-0.4-2.3-0.9-3.7-1.6-6c-2-6-1.5-5.8-2.3-7.1c-0.6-1-1.9-3-4.3-4.2
		c-1.6-0.8-2.1-0.4-3.1-1.1c-0.9-0.7-1.4-1.6-2.1-6.3c-1-6.9-0.4-8.3,0.2-9.1c0.2-0.3,0.9-1.4,2.2-2.1c2.8-1.4,6.8-0.2,10.2,2.9
		c0,0,5.1,5.3,7.2,13.5c0.8,3.2,0.8,6.2,0.8,6.2C694.8,256.5,694.7,257.5,694.6,258.2z"/>
	<linearGradient id="SVGID_1_" gradientUnits="userSpaceOnUse" x1="697.024" y1="264.334" x2="682.9537" y2="247.0825">
		<stop  offset="8.379889e-03" style="stop-color:#575350;stop-opacity:0.7"/>
		<stop  offset="0.1523" style="stop-color:#4A4643;stop-opacity:0.7435"/>
		<stop  offset="0.4429" style="stop-color:#36322E;stop-opacity:0.8315"/>
		<stop  offset="0.7283" style="stop-color:#2A2521;stop-opacity:0.9178"/>
		<stop  offset="1" style="stop-color:#26211D"/>
	</linearGradient>
	<path class="st47" d="M694.6,258.2c-0.8,0.5-1.6,1.3-2.3,2.3c-2.8,4-0.9,9.1-0.7,9.8c-0.2-0.1-0.4-0.1-0.5-0.1
		c-1.5-0.2-2.8,0.7-3.2,1.2c0-0.6-0.1-1.5-0.3-2.6c-0.4-2.3-0.9-3.7-1.6-6c-2-6-1.5-5.8-2.3-7.1c-0.6-1-1.9-3-4.3-4.2
		c-1.5-0.7-2-0.5-3.1-1.1c-1.2-0.7-2.7-2.2-3.4-5.9c-0.6-2.5-1.3-7,0.7-11.4c0.7-1.5,1.3-2.5,2.4-3.1c3.9-2.1,10,2.9,10.4,3.3
		c4.6,3.9,6,9.4,7.7,15.9c0.7,2.9,0.8,5.1,0.8,6.2C694.8,256.5,694.7,257.5,694.6,258.2z"/>
	<path class="st9" d="M688.6,266.5c-0.6-3.8-0.5-7.1,1.5-8.8c2.9-2.3,7.2,0.3,8.5,3.3c1,2.4,0.3,5.6-2.2,11.6
		c-1.5,3.5-3,3.4-3.9,3.2C690.5,275.6,689.2,270.5,688.6,266.5z"/>
	<rect x="135.5" y="274.9" class="st7" width="110.2" height="10.2"/>
	<rect x="182" y="305.6" class="st7" width="110.2" height="10.2"/>
</g>
</svg>
