<?xml version="1.0" encoding="utf-8"?>
<!-- Generator: Adobe Illustrator 26.0.1, SVG Export Plug-In . SVG Version: 6.00 Build 0)  -->
<svg version="1.1" id="Layer_1" xmlns="http://www.w3.org/2000/svg" xmlns:xlink="http://www.w3.org/1999/xlink" x="0px" y="0px"
	 viewBox="0 0 642 598" style="enable-background:new 0 0 642 598;" xml:space="preserve">
<style type="text/css">
	.st0{clip-path:url(#SVGID_00000035506444395983858730000001478989790018943655_);fill:#FFD7DC;}
	.st1{clip-path:url(#SVGID_00000035506444395983858730000001478989790018943655_);}
	.st2{fill:#D8989D;}
	.st3{clip-path:url(#SVGID_00000035506444395983858730000001478989790018943655_);fill:#A04B2A;}
	.st4{fill:#A04B2A;}
	.st5{fill:#FFFFFF;}
	.st6{fill:#592819;}
	.st7{fill:#3C6828;}
	.st8{fill:#FFA41F;}
	.st9{fill:#2B0000;}
	.st10{fill:#FE8462;}
	.st11{fill:#8CC1D1;}
	.st12{clip-path:url(#SVGID_00000035506444395983858730000001478989790018943655_);fill:#3C6828;}
	.st13{fill:#AA6148;}
	.st14{fill:#FAD4AF;}
	.st15{clip-path:url(#SVGID_00000035506444395983858730000001478989790018943655_);fill:#FAD4AF;}
	.st16{fill:#F9C295;}
	.st17{fill:#E09D6C;}
	.st18{fill:#CE0D28;}
	.st19{fill:#D10F42;}
	.st20{fill:#FFCA19;}
	.st21{fill:#E01440;}
	.st22{fill:none;stroke:#FFCA19;stroke-width:1.2381;stroke-miterlimit:10;}
	.st23{fill-rule:evenodd;clip-rule:evenodd;fill:#CE0D28;}
	.st24{fill:#910337;}
	
		.st25{clip-path:url(#SVGID_00000035506444395983858730000001478989790018943655_);fill:none;stroke:#FFCA19;stroke-width:2;stroke-miterlimit:10;}
</style>
<g>
	<defs>
		<path id="SVGID_1_" d="M98.2,520.1c42.6,13.6,87.3,17.4,140.6,15.7c17.1-0.6,30.9-1.6,39.6-2.3c43.3-1.2,80.2-1.8,106.3-4.2
			c43.5-3.9,63.4-7.4,83.5-12.9c34-9.3,74.5-20.4,78.8-43.1c3.9-20.8-26.3-30.5-23.6-54c2.7-23.4,34-22.7,57.1-57.4
			c2.2-3.3,27.4-42.4,13-80.2c-6.6-17.5-19.3-28.1-32.6-39.3c-29.2-24.6-42.4-18.5-55.1-32.9c-29-32.8,21.2-85.8-3.1-129.7
			c-16.8-30.2-62.3-44.2-97-41.7c-73.3,5.4-82.6,83.7-158.6,94.6c-56.9,8.2-75.8-32.2-124.1-14.7c-43.6,15.7-77.8,66.5-70.5,104.7
			c4,20.7,16.5,19.4,34.2,58.2c10.2,22.5,21,46.3,15.9,74.5C97.2,385.1,80,406.1,80,406.1c-13.8,20.2-20.1,27.9-23.8,37
			c-1.4,3.4-2.5,6.9-3.3,11.8c-0.2,1.1-3.9,26.3,11.3,45.3C72.4,510.5,83.3,515.3,98.2,520.1z"/>
	</defs>
	<clipPath id="SVGID_00000110445898226616368450000008223844593217373119_">
		<use xlink:href="#SVGID_1_"  style="overflow:visible;"/>
	</clipPath>
	
		<rect x="-10.4" y="37.8" style="clip-path:url(#SVGID_00000110445898226616368450000008223844593217373119_);fill:#FFD7DC;" width="633.2" height="531.1"/>
	<g style="clip-path:url(#SVGID_00000110445898226616368450000008223844593217373119_);">
		<g>
			<path class="st2" d="M178.7,142.9h224.9v143.4H178.7V142.9z M399.5,147.1H182.9v135h216.6V147.1z"/>
		</g>
		<g>
			<path class="st2" d="M273.1,225.4c0,0,5.4,5.7,16.6,7.1v19.8h3v-12.8l2.1,0.5v12.3h1.7v-14.6h28.3v14.6h1.7v-12.6l2.6-0.6v13.2
				h2.1v-19.6c12-1,17-6.6,17-6.6c0.5-1.4-0.8-1.7-0.8-1.7s-0.5,0.2-1.3,0.4c-0.1-0.2-0.2-0.4-0.3-0.7c-0.1-0.5,0.1-0.4,0.4-0.7
				c0.6-0.8-0.6-0.8-1.1-0.5c-0.7,0.4-0.8,0.9-0.6,1.6c0,0.2,0.1,0.4,0.1,0.7c-0.3,0.1-0.7,0.2-1.1,0.3c-0.1-0.3-0.3-0.5-0.3-0.8
				c-0.1-0.5,0.1-0.4,0.3-0.7c0.6-0.8-0.6-0.8-1.1-0.5c-0.7,0.4-0.7,1-0.6,1.6c0.1,0.2,0.1,0.5,0.1,0.7c-0.4,0.1-0.8,0.1-1.2,0.2
				c-0.1-0.2-0.2-0.4-0.2-0.6c-0.1-0.5,0.1-0.4,0.4-0.7c0.6-0.8-0.6-0.8-1.1-0.5c-0.7,0.4-0.8,0.9-0.6,1.6c0,0.1,0.1,0.3,0.1,0.4
				c-1.5,0.2-2.9,0.2-3.8-0.2c-3-1-4.8-7.5-5.1-8.4c4-1.9,6.5-4.2,6.5-4.2c0.4-1-0.6-1.2-0.6-1.2s-0.3,0.2-0.8,0.4
				c0.1-0.5,0.3-1.5,0.2-1.6c-0.6-0.5-0.9,1.3-1.3,2.2c-0.2,0.1-0.4,0.2-0.5,0.3c0.1-0.5,0.3-1.6,0.2-1.7c-0.6-0.5-0.9,1.3-1.4,2.2
				c-0.2,0.1-0.3,0.1-0.5,0.2c0.1-0.5,0.3-1.6,0.2-1.7c-0.6-0.5-0.9,1.2-1.3,2.2c-2.1,0.8-4.2,1.4-5.3,1c-1.3-0.5-2.3-2.5-3-4.1
				c0.1-1.2,0.2-2.1,1.5-2.4c-0.1-0.4-0.7-0.6-1.1-0.7c1.9-0.9-0.7-2.4-0.8-1.4c0.5,0.5-0.6,0.9-0.7,0.2c-0.1-0.5,0.5-0.6,0.6-1
				c-0.8,0-1.8,0.5-1.7,1.5c0.1,0.4,0.7,0.5,0.4,1c-0.2,0.3-0.8,0.3-1.1,0.3h0h-18.1c-0.1,0-0.1,0-0.2-0.1c-0.3-0.5,0.3-0.5,0.4-0.9
				c0.2-1-0.9-1.5-1.6-1.5c0.1,0.4,0.7,0.5,0.6,1c-0.1,0.7-1.2,0.3-0.7-0.2c0-1.1-2.6,0.5-0.8,1.4c-0.4,0-1,0.3-1,0.7
				c0.9,0.2,1.2,0.7,1.4,1.3c-0.5,1.7-1.6,4.3-3.1,4.6c-1.7,0.3-3.6,0-5.3-0.5c-0.4-1-0.6-2.3-1.2-1.9c-0.1,0.1,0,1,0.1,1.5
				c-0.2-0.1-0.4-0.1-0.6-0.2c-0.4-1-0.7-2.6-1.3-2.1c-0.1,0.1,0,1.1,0.1,1.6c-0.2-0.1-0.4-0.2-0.6-0.3c-0.5-0.9-0.7-2.6-1.3-2.1
				c-0.1,0.1,0,1,0.1,1.6c-0.6-0.3-0.9-0.5-0.9-0.5s-0.9,0.2-0.6,1.2c0,0,2.5,2.3,6.6,4.1c-0.3,1.3-1.8,6.9-4.6,7.9
				c-1.4,0.5-4.1,0.2-6.7-0.3c0-0.1,0-0.1,0-0.2c0.1-0.7,0.1-1.3-0.6-1.6c-0.5-0.3-1.6-0.3-1.1,0.5c0.2,0.3,0.4,0.3,0.4,0.7
				c0,0.1-0.1,0.2-0.1,0.3c-0.4-0.1-0.8-0.2-1.2-0.3c0-0.1,0-0.2,0.1-0.3c0.2-0.7,0.1-1.3-0.6-1.6c-0.5-0.3-1.6-0.3-1.1,0.5
				c0.2,0.3,0.4,0.3,0.3,0.7c0,0.2-0.1,0.3-0.2,0.4c-0.4-0.1-0.8-0.2-1.2-0.3c0-0.1,0-0.2,0.1-0.3c0.1-0.7,0.1-1.3-0.6-1.6
				c-0.5-0.3-1.6-0.3-1.1,0.5c0.2,0.3,0.4,0.3,0.4,0.7c0,0.1-0.1,0.2-0.1,0.3c-0.3-0.1-0.4-0.1-0.4-0.1S272.6,224.1,273.1,225.4z
				 M292.7,234.7V233h2.1v1.7H292.7z M326.5,234.7V233h2.6v1.7H326.5z M296.5,234.7V233h28.3v1.7H296.5z"/>
			<path class="st2" d="M299.7,176.1c-0.2,0.3-0.4,0.6-0.5,0.9c0.2,0,0.6,0,0.8,0c-0.3,0.2-0.4,0.4-0.5,0.7c1.2,0,2.7-0.6,4-0.8
				c1.6-0.3,3.2-0.4,4.9-0.4c0.3,0,0.6,0,0.8,0c-0.1,0-0.3,0.1-0.4,0.1c0.1,0.2,0.1,1,0.3,1.3c-0.8,0.1-2.2-0.2-2.5,0.5
				c-0.4,1,0.6,1.6,1.4,1.9c-0.4,0.7-1,1.3-1.3,1.9c0.5-0.1,1.2,0.2,1.7,0.1c-0.6,0.4-0.9,0.9-1.1,1.5c2.7,0.2,5.8-0.9,8.7-1.2
				c0,0,0.1,0,0.1,0c2,2.8,5.6,4.9,8.9,4.9c2.1,2,4.6,3.3,7.4,3.7l-0.6,0.3c0.6-0.1,1.2-0.1,1.8-0.2c0.5,0,1,0,1.5,0
				c0,0,0.1,0,0.1-0.1c13.6,0,12.1,12.8,12.1,12.8c-0.3,1.6-0.4,3.1-0.4,4.4c-2.1,0.5-7.7,1-14.2-5c0.4-0.4,0.8-0.8,0.9-1.4
				c0.1-0.4,0.1-0.8,0-1.3c0.8,0.1,1.6,0.1,2.3,0c2.4-0.4,0.8-2.3-0.5-3.2c0.2-0.1,0.3-0.3,0.5-0.3c-1-1.5-3.6-0.8-5.1-1.1
				c0.3-0.2,0.5-0.6,0.7-0.9c-0.4,0-0.8-0.1-1.1-0.1c0.3-0.2,0.3-0.5,0.5-0.7c-0.9-0.2-1.7,0.3-2.5,0.6c-0.8-0.9-3.1-0.3-4.2-0.3
				c-1.1,0.1-2.3,0.2-3.2,1c-1,0.9-0.9,1.3-2.3,1.7c0.1,0.2,0.1,0.7,0.2,0.8c-0.5,0.1-1.5-0.1-1.6,0.5c-0.2,0.7,0.5,1.1,1,1.2
				c-0.2,0.5-0.6,0.9-0.8,1.3c0.3-0.1,0.8,0.1,1.1,0c-0.4,0.3-0.6,0.6-0.7,1c1.3,0,2.6-0.4,4-0.8c4.6,4.2,9.5,4.2,10.9,4.1
				c2.9,2.9,6.7,5.7,10.4,5.4l3.7-0.5c0.8,7.7,5.9,9.8,5.9,9.8c3.4,1.1,5.8,3.1,7.5,5.4c4.4,6.2-1.7,16.4-3.8,20.2
				c-3.2,5.8-5.7,6.9-7.2,12.3c-1.1,4.1-0.9,7.7-0.6,10.3c1,0.4,2.6,0.8,4.5,0.8c1,0,1.9-0.2,2.6-0.3c-0.4-1.6-0.8-3.9-0.5-6.7
				c0.3-3.6,1.6-6.3,2.5-7.9c4.8,1.9,11.2,6.3,14.4,6.2c0.9,0,1.7-0.3,2.5-0.8c0,0,0.1,0,0.1,0c1.7-0.8,3.7,0.5,5.3-0.6
				c1.1-0.8,1.7-1.9,2.6-2.9c0.9,0.2,1.7,0.3,2.5,0.3c2.5-0.2,1-2.2-0.2-3.2c0.2-0.1,0.3-0.2,0.5-0.3c-0.8-1.6-3.6-1.1-4.9-1.6
				c0.3-0.2,0.6-0.6,0.8-0.8c-0.4,0-0.8-0.2-1.1-0.2c0.4-0.2,0.4-0.5,0.6-0.7c-0.9-0.2-1.7,0.1-2.6,0.4c-0.7-1-3.1-0.6-4.2-0.7
				c-1.1,0-2.3,0-3.2,0.7c-1,0.8-1,1.2-2.4,1.4c0.1,0.2,0.1,0.7,0.2,0.9c-0.5,0-1.4-0.2-1.7,0.3c-0.3,0.6,0.4,1.1,0.9,1.3
				c-0.3,0.4-0.7,0.8-0.9,1.3c0.4,0,0.8,0.1,1.1,0.1c-0.4,0.2-0.6,0.6-0.8,1c1.8,0.2,3.9-0.5,5.8-0.6c1.4-0.1,2.7-0.1,4,0
				c-0.9,1-2.7,2.5-5,3c-3.2,0.7-9.8-4.9-13.2-6.3c2.1-3.3,4.7-6.1,6.9-8.8c0,0,0,0,0,0c4.1-2,9.1-3,9.1-3
				c10.1-0.2,17.5-5.2,22.2-9.7c0.1,0.1,0.2,0.1,0.2,0.1c0.7-0.6,1.5-0.8,2.3-1v-0.7c-0.4,0-0.8,0.1-1.2,0.2
				c0.4-0.5,0.8-0.9,1.2-1.3V226c-0.5,0.6-1,1.1-1.5,1.7c-0.4-0.4-0.8-0.9-0.8-1.5c-0.1-0.4-0.1-0.7-0.1-1.1c0.8,0,1.6-0.1,2.4-0.1
				v-10.5c-0.9-0.1-2-0.1-3,0c-0.2-1.1-1.6-2.3-2.9-3c0.2-0.1,0.5-0.4,0.7-0.5c-1.6-2.2-5.6-0.8-7.7-1.2c0.4-0.4,0.7-1,1-1.4
				c-0.6,0.1-1.2-0.1-1.7,0c0.5-0.4,0.5-0.8,0.7-1.1c-1.4-0.2-2.5,0.5-3.7,1.1c-1.3-1.3-4.7-0.2-6.4,0c-1.6,0.2-3.4,0.6-4.7,1.8
				c-1.4,1.4-1.2,2.1-3.3,2.7c0.2,0.2,0.3,1,0.4,1.3c-0.8,0.2-2.2,0-2.4,0.9c-0.3,1,0.8,1.6,1.6,1.7c-0.3,0.7-0.8,1.4-1.1,2.1
				c0.5-0.1,1.2,0,1.7-0.1c-0.6,0.4-0.8,1-0.9,1.6c2.7-0.2,5.7-1.7,8.4-2.3c0.4-0.1,0.8-0.2,1.2-0.3c0.4,2.8,0.6,6.1-1.6,7.9
				c-1.6,1.4-3.9,2-5.7,3c-0.6,0.3-1.2,0.7-1.7,1.1c-1-4.7-4-9-9.5-10.6c-6.6-2-8.7-7-9.3-10.9c2.8,0,5.5-0.2,8.2-0.9
				c2.4-0.6,4.8-1.7,6.4-3.7c1.1-1.4,1.7-3.1,2.3-4.7c1.8-0.3,3.6-0.3,5-1.7c1.4-1.4,2.7-3,4.3-4.1c1.3,0.2,2.6,0.4,3.8,0.3
				c3.2-0.3,1.2-3-0.4-4.2c0.2-0.1,0.5-0.3,0.7-0.4c-0.1-0.1-0.1-0.2-0.2-0.3c2-0.3,4.1-0.4,6.2-0.5c1.7-0.1,3.5,0.4,5.2,0.2
				c2.4-0.4,0.8-2.3-0.5-3.2c0.2-0.1,0.3-0.3,0.5-0.3c-1-1.5-3.6-0.8-5.1-1.1c0.3-0.2,0.5-0.6,0.7-0.9c-0.4,0-0.8-0.1-1.1-0.1
				c0.3-0.2,0.3-0.5,0.5-0.7c-0.4-0.1-0.7,0-1,0c-0.1-1-1.3-2.3-2.5-3c0.2-0.1,0.5-0.3,0.7-0.4c-1.3-2.1-5-1.1-7-1.5
				c0.4-0.3,0.7-0.9,1-1.2c-0.5,0-1.1-0.2-1.6-0.1c0.5-0.3,0.5-0.7,0.7-1c-1.3-0.2-2.4,0.4-3.5,0.9c-1.1-1.3-4.3-0.5-5.8-0.3
				c-1.5,0.1-3.2,0.3-4.4,1.4c-1.3,1.2-1.2,1.8-3.2,2.3c0.1,0.2,0.2,0.9,0.3,1.2c-0.7,0.1-2-0.1-2.3,0.7c0,0,0,0,0,0
				c-1-0.4-2.8,0-3.8,0.1c-1.1,0.1-2.3,0.2-3.2,1c-1,0.9-0.9,1.3-2.3,1.7c0.1,0.2,0.1,0.7,0.2,0.8c-0.5,0.1-1.5-0.1-1.6,0.5
				c-0.2,0.7,0.5,1.1,1,1.2c-0.2,0.5-0.6,0.9-0.8,1.3c0.3-0.1,0.8,0.1,1.1,0c-0.4,0.3-0.6,0.6-0.7,1c1.8,0,3.8-0.9,5.7-1.2
				c2-0.3,4-0.5,6.1-0.6c-0.5,0.5-0.9,0.8-2.1,1c0.1,0.2,0.1,0.9,0.2,1.1c-0.7,0.1-1.9-0.2-2.2,0.5c-0.4,0.8,0.5,1.4,1.2,1.6
				c-0.4,0.6-0.8,1.1-1.2,1.7c0.5,0,1.1,0.1,1.5,0.1c-0.5,0.3-0.8,0.8-1,1.3c1.5,0.1,3.1-0.2,4.7-0.6c-0.1,1.4,0.1,2.8,0.4,4
				c0.3,1.4,0.8,3,1.9,4.1c-2.9,4-8.8,4.7-13.5,4.7c-0.1-1.8,0.2-3,0.2-3c0.3-9.3-6.3-11.9-10.8-12.6c0,0,0,0,0,0
				c-3.4-1.2-7.4-0.3-10.5-2.3c-0.2-0.1-0.4-0.3-0.6-0.4c1.4-1.1,2.4-2.8,3.2-4.4c1.1,0.2,2.2,0.3,3.2,0.2c3.7-0.4,1.4-3.4-0.5-4.8
				c0.3-0.1,0.5-0.3,0.8-0.4c-1.1-2.2-4.6-1.7-6.8-2c0.8-0.1,1.6-0.3,2.4-0.3c3.3-0.3,6.4-0.1,9.7,0c2.4,0.1,4.8,1.1,7.2,0.9
				c3.4-0.3,1.4-3.1-0.4-4.4c0.2-0.1,0.5-0.3,0.7-0.4c-1.1-2.2-4.9-1.5-6.9-2.1c0.4-0.3,0.8-0.8,1.1-1.1c-0.5,0-1-0.3-1.6-0.2
				c0.5-0.3,0.5-0.7,0.8-0.9c-1.3-0.3-2.4,0.1-3.5,0.5c-1-1.3-4.3-0.8-5.8-0.9c-1.5,0-3.2,0-4.5,1c-1.4,1.1-1.3,1.7-3.4,2
				c0.1,0.2,0.1,1,0.2,1.2c-0.8,0-2-0.3-2.3,0.4c-0.4,0.9,0.5,1.5,1.2,1.7c0,0,0,0-0.1,0.1c-1.5-0.7-4.2-0.3-5.6-0.3
				c-1.7,0-3.5,0.1-4.8,1.2c-0.1,0.1-0.3,0.2-0.4,0.3c-0.1-0.1-0.2-0.2-0.4-0.3c0.1-0.1,0.2-0.2,0.3-0.2c-0.7-1.1-2.5-0.5-3.5-0.7
				c0.2-0.2,0.3-0.4,0.5-0.6c-0.3,0-0.5-0.1-0.8-0.1c0.2-0.2,0.2-0.4,0.4-0.5c-0.6-0.1-1.2,0.2-1.8,0.4c-0.6-0.6-2.2-0.2-2.9-0.2
				c-0.8,0.1-1.6,0.2-2.2,0.7c-0.7,0.6-0.6,0.9-1.6,1.2c0.1,0.1,0.1,0.5,0.2,0.6c-0.4,0.1-1,0-1.1,0.3
				C298.8,175.7,299.3,176,299.7,176.1z M373.1,185.3c0.5-0.3,0.5-0.6,0.8-0.9c-1.2-0.3-2.3,0.2-3.4,0.6c-0.7-0.9-2.6-0.9-4.1-0.8
				c-0.1-0.1-0.3-0.3-0.4-0.4c0.2,0,0.5-0.1,0.7-0.1c3.2-0.5,6.4-0.7,9.7-0.8c0.1,0,0.2,0,0.4,0c-0.1,0.1-0.2,0.1-0.2,0.2
				c-1,0.9-0.9,1.3-2.3,1.7c0.1,0.1,0.1,0.6,0.2,0.8C374,185.5,373.5,185.3,373.1,185.3z M367.3,197.1c0.7-1.8,1.5-3.5,3-4.8
				c0.9,0,1.8,0,2.8,0.1c0.4,0,0.7,0,1.1,0.1c-1.1,1-2,2.2-3.2,3.2C369.8,196.6,368.6,196.9,367.3,197.1z M361.9,195.8
				c-0.1-1-0.1-2,0-3c0.6-0.1,1.2-0.2,1.8-0.3c1.2-0.1,2.3-0.2,3.4-0.2c-1.5,2.5-2.1,5.7-3.7,8.2C362.2,199.7,362,197.2,361.9,195.8
				z M381.7,216.8c-0.6,1.9-1.1,3.8-2.8,4.8c0-1.4-0.2-2.9-0.4-4.3C379.5,217.1,380.6,217,381.7,216.8z M392.7,225.4
				c-0.6,1.6-1.2,3.3-2.9,4.1c0.2-1.1,0.3-2.3,0.3-3.6C391,225.6,391.8,225.5,392.7,225.4z M388,234.9c0.6-1.1,1.3-2.6,1.7-4.7
				c0,0,0,0,0,0c2.4-0.7,2.9-2.9,3.7-4.9c1.1-0.1,2.1-0.2,3.2-0.2c0,0.4,0.1,0.9,0.2,1.3c0.2,0.6,0.6,1.1,1,1.5
				C394.2,231.4,390.9,233.6,388,234.9z M368.5,238c0.5-2.2,0.7-4.5,0.4-6.9c0.1-0.1,0.1-0.2,0.2-0.2c0.8-0.8,1.8-1.2,2.8-1.7
				c1.9-0.9,4.2-1.6,5.6-3.3c0.6-0.8,1-1.7,1.2-2.7c0,0,0,0,0.1,0c3.1-1,3.3-4,4.3-6.6c1.3-0.1,2.5-0.3,3.8-0.4c0.5,0,1-0.1,1.5-0.1
				c-1.4,1.2-1.5,2-3.8,2.4c0.1,0.3,0.2,1.2,0.3,1.5c-0.9,0.1-2.5-0.2-2.9,0.7c-0.5,1.1,0.7,1.9,1.6,2.1c-0.5,0.8-1.1,1.5-1.5,2.2
				c0.6-0.1,1.4,0.2,2,0.1c-0.7,0.4-1,1-1.2,1.7c1.9,0.1,4-0.4,6-0.8c-0.2,2.5-1.1,7-3.8,9.9c-3.7,1-6.8,0.9-9.3,0.6
				C372.8,236.2,370.2,237.1,368.5,238z M375.9,258.9c1.1-1,2-2.2,2.6-3.1c0.5,0,1,0.1,1.5,0.1c0.6,0,1.3,0.2,1.9,0.3
				c-0.8,1-1.5,2.2-2.6,2.6C378.2,259.2,377,258.9,375.9,258.9z M328.5,200.7c0.7,0.9,1.6,2.2,2.8,3.5c-4.1,0-7.3-1.7-8.9-2.8
				c0.3-0.1,0.7-0.2,1-0.2C325.1,200.9,326.8,200.7,328.5,200.7z M331.9,202.9c-0.7-0.7-1.4-1.5-2.2-2.3c0.2,0,0.5,0,0.7,0
				c0.8,0,1.7,0.1,2.5,0.2c0,0.3,0,0.6-0.1,0.9C332.7,202.1,332.3,202.6,331.9,202.9z M323.3,182.3c1,0,2.1,0,3.1,0.1
				c1.1,0,2.1,0.2,3.2,0.4c-0.8,1.4-1.7,2.8-3,3.7C325.3,185.3,324.2,183.8,323.3,182.3z M316.6,182.5c1.5-0.1,3-0.2,4.5-0.2
				c0.7,1.4,1.5,2.7,2.5,3.8C321.1,185.9,318.1,184.5,316.6,182.5z"/>
			<path class="st2" d="M228.9,222.5c-0.1-0.2-0.4-0.1-0.5-0.2c0-0.1,0-0.2,0.1-0.3c-0.5-0.1-0.4-0.3-0.7-0.5
				c-0.3-0.2-0.7-0.3-1-0.3c-0.4,0-1.1-0.2-1.3,0.1c-0.3-0.1-0.5-0.2-0.8-0.2c0.1,0.1,0.1,0.2,0.2,0.2c-0.1,0-0.2,0-0.4,0
				c0.1,0.1,0.1,0.2,0.2,0.3c-0.5,0.1-1.3-0.1-1.6,0.3c0.1,0,0.1,0.1,0.2,0.1c-0.1,0-0.1,0.1-0.2,0.1c-0.1,0-0.1-0.1-0.2-0.2
				c-0.6-0.5-1.5-0.5-2.2-0.5c-0.6,0-1.9-0.2-2.6,0.1c0,0,0,0,0,0c0.3-0.1,0.7-0.4,0.6-0.8c-0.1-0.3-0.7-0.2-1.1-0.2
				c0.1-0.1,0.1-0.4,0.1-0.6c-0.9-0.1-0.9-0.4-1.5-0.9c-0.6-0.4-1.4-0.5-2-0.5c-0.7,0-2.2-0.2-2.6,0.4c-0.5-0.2-1-0.4-1.6-0.2
				c0.1,0.1,0.1,0.3,0.4,0.4c-0.2,0-0.5,0.1-0.7,0.1c0.2,0.1,0.3,0.4,0.5,0.5c-0.9,0.3-2.6-0.1-3.1,1c0.1,0,0.2,0.1,0.3,0.2
				c-0.8,0.6-1.7,1.9-0.2,2c1.1,0.1,2.2-0.3,3.3-0.4c1.5-0.1,2.9-0.1,4.4,0c0.4,0,0.7,0.1,1.1,0.2c-1,0.1-2.6-0.1-3.1,0.9
				c0.1,0,0.2,0.1,0.4,0.2c-0.9,0.7-1.9,2-0.2,2.2c0.5,0,1,0,1.5-0.1c0.4,0.7,0.8,1.5,1.5,2c-0.1,0.1-0.2,0.1-0.3,0.2
				c-1.4,0.9-3.3,0.5-4.8,1.1c0,0,0,0,0,0c-2.1,0.3-5.1,1.5-5,5.8c0,0,0.1,0.6,0.1,1.4c-2.2,0-4.9-0.3-6.2-2.2
				c0.5-0.5,0.7-1.2,0.8-1.9c0.1-0.6,0.2-1.2,0.2-1.8c0.7,0.1,1.5,0.3,2.1,0.3c-0.1-0.2-0.2-0.4-0.4-0.6c0.2,0,0.5-0.1,0.7,0
				c-0.1-0.3-0.4-0.5-0.5-0.8c0.3-0.1,0.7-0.4,0.5-0.7c-0.1-0.3-0.7-0.2-1-0.2c0.1-0.1,0.1-0.4,0.1-0.5c-0.6-0.1-0.7-0.2-1-0.5
				c0.9,0,1.8,0.1,2.8,0.3c0.8,0.1,1.8,0.5,2.6,0.5c0-0.2-0.1-0.3-0.3-0.5c0.2,0,0.4,0,0.5,0c-0.1-0.2-0.3-0.4-0.4-0.6
				c0.2,0,0.6-0.2,0.5-0.5c-0.1-0.2-0.5-0.2-0.8-0.2c0.1-0.1,0.1-0.3,0.1-0.4c-0.7-0.2-0.6-0.4-1.1-0.8c-0.4-0.3-0.9-0.4-1.4-0.5
				c-0.4,0-1.3-0.2-1.7,0c0,0,0,0,0,0c-0.1-0.3-0.7-0.2-1-0.3c0.1-0.1,0.1-0.4,0.2-0.5c-0.9-0.2-0.8-0.5-1.5-1
				c-0.5-0.5-1.3-0.6-2-0.6c-0.7-0.1-2.2-0.4-2.7,0.2c-0.5-0.2-1-0.5-1.6-0.4c0.1,0.1,0.1,0.3,0.3,0.5c-0.2,0-0.5,0.1-0.7,0
				c0.2,0.2,0.3,0.4,0.5,0.6c-0.9,0.2-2.6-0.3-3.2,0.7c0.1,0,0.2,0.1,0.3,0.2c-0.5,0.3-1.1,0.9-1.1,1.4c-0.2,0-0.3,0-0.5,0
				c0.1,0.1,0.1,0.2,0.2,0.3c-0.2,0-0.4,0-0.5,0c0.1,0.1,0.2,0.3,0.3,0.4c-0.7,0.1-1.9-0.2-2.3,0.5c0.1,0,0.2,0.1,0.2,0.1
				c-0.6,0.4-1.4,1.3-0.2,1.5c0.8,0.1,1.6-0.1,2.4-0.1c1,0,1.9,0.1,2.8,0.2c0,0-0.1,0.1-0.1,0.1c0.1,0,0.2,0.1,0.3,0.2
				c-0.8,0.6-1.7,1.8-0.2,1.9c0.6,0.1,1.2,0,1.7-0.1c0.8,0.5,1.3,1.2,2,1.9c0.7,0.6,1.5,0.7,2.3,0.8c0.3,0.8,0.6,1.5,1.1,2.2
				c0.7,0.9,1.8,1.4,2.9,1.7c1.2,0.3,2.5,0.4,3.8,0.4c-0.3,1.8-1.2,4.1-4.3,5c-2.5,0.8-3.9,2.7-4.4,4.9c-0.2-0.2-0.5-0.3-0.8-0.5
				c-0.9-0.5-1.9-0.7-2.6-1.4c-1-0.8-0.9-2.3-0.7-3.6c0.2,0,0.4,0.1,0.6,0.1c1.3,0.3,2.6,1,3.9,1c-0.1-0.3-0.2-0.5-0.4-0.7
				c0.2,0.1,0.6,0,0.8,0.1c-0.1-0.3-0.3-0.6-0.5-1c0.4-0.1,0.9-0.3,0.7-0.8c-0.1-0.4-0.7-0.3-1.1-0.4c0.1-0.1,0.1-0.5,0.2-0.6
				c-1-0.3-0.9-0.6-1.5-1.2c-0.6-0.6-1.4-0.7-2.1-0.8c-0.8-0.1-2.3-0.6-2.9,0c-0.5-0.3-1.1-0.6-1.7-0.5c0.1,0.2,0.1,0.4,0.3,0.5
				c-0.3,0-0.5,0-0.8,0c0.2,0.2,0.3,0.5,0.5,0.6c-1,0.2-2.8-0.5-3.5,0.5c0.1,0.1,0.2,0.2,0.3,0.2c-0.6,0.3-1.2,0.9-1.3,1.4
				c-0.5,0-1,0-1.4,0v4.8c0.4,0,0.7,0,1.1,0c0,0.2,0,0.3,0,0.5c0,0.3-0.2,0.5-0.4,0.7c-0.2-0.2-0.5-0.5-0.7-0.8v1.1
				c0.2,0.2,0.3,0.4,0.5,0.6c-0.2,0-0.4-0.1-0.5-0.1v0.3c0.4,0.1,0.8,0.2,1.1,0.4c0,0,0.1,0,0.1,0c2.1,2.1,5.5,4.4,10.2,4.5
				c0,0,2.3,0.5,4.2,1.4c0,0,0,0,0,0c1,1.2,2.2,2.5,3.1,4c-1.5,0.6-4.6,3.2-6,2.9c-1.1-0.2-1.9-0.9-2.3-1.4c0.6,0,1.2,0,1.9,0
				c0.9,0.1,1.8,0.4,2.6,0.3c-0.1-0.2-0.2-0.3-0.3-0.4c0.2,0,0.4-0.1,0.5,0c-0.1-0.2-0.3-0.4-0.4-0.6c0.2-0.1,0.5-0.3,0.4-0.6
				c-0.1-0.2-0.5-0.1-0.8-0.1c0-0.1,0-0.3,0.1-0.4c-0.7-0.1-0.6-0.3-1.1-0.6c-0.4-0.3-1-0.3-1.5-0.3c-0.5,0-1.6-0.1-1.9,0.3
				c-0.4-0.1-0.8-0.3-1.2-0.2c0.1,0.1,0.1,0.2,0.3,0.3c-0.2,0-0.3,0.1-0.5,0.1c0.1,0.1,0.2,0.3,0.4,0.4c-0.6,0.2-1.9,0-2.3,0.7
				c0.1,0,0.2,0.1,0.2,0.1c-0.6,0.5-1.2,1.4-0.1,1.5c0.4,0,0.8,0,1.2-0.1c0.4,0.4,0.7,1,1.2,1.3c0.7,0.5,1.6-0.1,2.4,0.3
				c0,0,0,0,0.1,0c0.3,0.2,0.7,0.3,1.1,0.4c1.4,0.1,4.4-2,6.6-2.8c0.4,0.7,1,2,1.1,3.6c0.1,1.3,0,2.4-0.2,3.1
				c0.3,0.1,0.7,0.1,1.2,0.1c0.9,0,1.6-0.2,2.1-0.4c0.2-1.2,0.3-2.8-0.3-4.7c-0.7-2.5-1.8-3-3.3-5.6c-1-1.8-3.8-6.4-1.7-9.3
				c0.8-1.1,1.9-2,3.4-2.5c0,0,2.3-1,2.7-4.5l1.7,0.2c1.7,0.1,3.4-1.1,4.7-2.5c0.6,0,2.9,0,5-1.9c0.6,0.2,1.2,0.4,1.8,0.4
				c0-0.2-0.1-0.3-0.3-0.5c0.2,0,0.4,0,0.5,0c-0.1-0.2-0.3-0.4-0.4-0.6c0.2,0,0.6-0.2,0.5-0.5c-0.1-0.2-0.5-0.2-0.8-0.2
				c0.1-0.1,0.1-0.3,0.1-0.4c-0.7-0.2-0.6-0.4-1.1-0.8c-0.4-0.3-0.9-0.4-1.4-0.5c-0.5,0-1.6-0.3-1.9,0.1c-0.4-0.2-0.7-0.4-1.2-0.3
				c0.1,0.1,0.1,0.2,0.2,0.3c-0.2,0-0.4,0-0.5,0c0.1,0.1,0.2,0.3,0.3,0.4c-0.7,0.1-1.9-0.2-2.3,0.5c0.1,0,0.2,0.1,0.2,0.1
				c-0.6,0.4-1.4,1.3-0.2,1.5c0.3,0.1,0.7,0,1.1,0c0,0.2,0,0.4,0,0.6c0,0.2,0.2,0.5,0.4,0.6c-3,2.8-5.5,2.5-6.5,2.3
				c0-0.6-0.1-1.3-0.2-2c0,0-0.7-5.9,5.5-5.9c0,0,0,0,0,0c0.2,0,0.5,0,0.7,0c0.3,0,0.5,0,0.8,0.1l-0.3-0.1c1.3-0.2,2.4-0.8,3.4-1.7
				c1.5,0,3.2-1,4.1-2.2c0,0,0,0,0.1,0c1.3,0.1,2.7,0.6,4,0.6c-0.1-0.3-0.2-0.5-0.5-0.7c0.2,0,0.5-0.1,0.8,0
				c-0.2-0.3-0.4-0.6-0.6-0.9c0.4-0.1,0.8-0.4,0.6-0.8c-0.2-0.4-0.8-0.2-1.2-0.2c0.1-0.1,0.1-0.5,0.1-0.6c-0.1,0-0.1,0-0.2,0
				c0.1,0,0.3,0,0.4,0c0.8,0,1.5,0.1,2.2,0.2c0.6,0.1,1.2,0.4,1.8,0.4c0-0.1-0.1-0.2-0.2-0.3c0.1,0,0.3,0,0.4,0
				c-0.1-0.1-0.2-0.3-0.3-0.4C228.7,222.9,229,222.7,228.9,222.5z M194.4,227.2c0-0.1,0.1-0.3,0.1-0.4c-0.7-0.2-0.6-0.4-1.1-0.8
				c0,0-0.1-0.1-0.1-0.1c0.1,0,0.1,0,0.2,0c1.5,0,2.9,0.1,4.4,0.4c0.1,0,0.2,0,0.3,0.1c-0.1,0.1-0.1,0.1-0.2,0.2
				c-0.7,0-1.6-0.1-1.9,0.4c-0.5-0.2-1-0.4-1.5-0.3c0.1,0.1,0.1,0.3,0.3,0.4C194.8,227.1,194.6,227.2,194.4,227.2z M196,231.9
				c-0.5-0.5-0.9-1-1.4-1.4c0.2,0,0.3,0,0.5,0c0.4,0,0.8,0,1.3,0c0.7,0.6,1,1.4,1.4,2.2C197,232.5,196.5,232.3,196,231.9z
				 M199.4,234.1c-0.7-1.2-1-2.6-1.7-3.8c0.5,0,1,0,1.6,0.1c0.3,0,0.5,0.1,0.8,0.1c0.1,0.5,0,0.9,0,1.4
				C200.1,232.6,199.9,233.7,199.4,234.1z M192.6,241.8c-0.1,0.6-0.2,1.3-0.2,2c-0.8-0.5-1-1.3-1.3-2.2
				C191.6,241.6,192.1,241.7,192.6,241.8z M187.2,245.7c0,0.6,0.1,1.2,0.1,1.7c-0.8-0.4-1-1.1-1.3-1.9
				C186.4,245.5,186.8,245.6,187.2,245.7z M183.7,246.6c0.2-0.2,0.3-0.4,0.4-0.7c0.1-0.2,0.1-0.4,0.1-0.6c0.5,0,1,0.1,1.5,0.1
				c0.4,0.9,0.6,1.9,1.7,2.3c0,0,0,0,0,0c0.2,1,0.5,1.7,0.8,2.1C186.8,249.2,185.3,248.2,183.7,246.6z M193.8,250.6
				c-1.2,0.1-2.6,0.2-4.3-0.3c-1.2-1.3-1.6-3.4-1.7-4.5c0.9,0.2,1.9,0.4,2.7,0.4c-0.1-0.3-0.2-0.6-0.6-0.8c0.3,0,0.6-0.1,0.9,0
				c-0.2-0.3-0.5-0.7-0.7-1c0.4-0.1,0.9-0.4,0.7-1c-0.2-0.4-0.9-0.3-1.3-0.3c0.1-0.1,0.1-0.6,0.2-0.7c-1.1-0.2-1.1-0.5-1.7-1.1
				c0.2,0,0.5,0,0.7,0c0.6,0.1,1.2,0.1,1.7,0.2c0.4,1.2,0.5,2.6,2,3c0,0,0,0,0,0c0.1,0.4,0.3,0.9,0.5,1.2c0.6,0.8,1.7,1.1,2.6,1.5
				c0.4,0.2,0.9,0.4,1.3,0.8c0,0,0.1,0.1,0.1,0.1c-0.1,1.1-0.1,2.2,0.2,3.1C196.3,250.8,195.1,250.4,193.8,250.6z M192.2,260.8
				c-0.5-0.2-0.8-0.7-1.2-1.2c0.3-0.1,0.6-0.1,0.9-0.1c0.2,0,0.5,0,0.7,0c0.3,0.4,0.7,1,1.2,1.4C193.2,260.8,192.7,261,192.2,260.8z
				 M217.7,234.4c0.1,0,0.3,0.1,0.4,0.1c-0.7,0.5-2.2,1.3-4.1,1.3c0.5-0.6,1-1.2,1.3-1.6C216.2,234.2,216.9,234.3,217.7,234.4z
				 M213.4,234.6c0-0.1,0-0.3,0-0.4c0.4,0,0.8-0.1,1.1-0.1c0.1,0,0.2,0,0.3,0c-0.3,0.4-0.7,0.7-1,1.1
				C213.7,235,213.5,234.9,213.4,234.6z M216.3,227.7c-0.6-0.4-1-1-1.4-1.7c0.5-0.1,1-0.2,1.5-0.2c0.5,0,0.9,0,1.4,0
				C217.4,226.5,216.9,227.1,216.3,227.7z M217.6,227.5c0.5-0.5,0.8-1.1,1.1-1.8c0.7,0,1.4,0,2.1,0.1
				C220.1,226.8,218.8,227.4,217.6,227.5z"/>
		</g>
		<path class="st2" d="M399.5,282.1c-4.4-2.1-11.2-5.1-19.7-8.1c-2.8-1-7.2-2.4-15.8-5.1c-17.6-5.5-22.2-6.8-26.5-11.7
			c-2.3-2.7-2.3-3.8-4.7-5.5c-4.5-3.1-9.3-2.1-18.5-1.1c-13.1,1.4-19.9,2-27.3,0.4c-5.4-1.2-4.5-2-12.4-4.4
			c-8.5-2.6-16.4-4.9-24.5-4c-10.1,1.2-9.8,6.3-27.9,14.5c-10.7,4.8-12.5,3.8-19.9,8c-9.4,5.4-15.6,12.2-19.3,17
			C255.1,282.1,327.3,282.1,399.5,282.1z"/>
	</g>
	<path style="clip-path:url(#SVGID_00000110445898226616368450000008223844593217373119_);fill:#A04B2A;" d="M129.2,172.9
		c16.9,78.9,33.9,157.8,50.8,236.7C169,485.3,157.9,561,146.8,636.8c6.8-1.5,13.6-3.1,20.4-4.6c10.9-72,21.8-144,32.7-216
		c36.8,58.9,73.5,117.8,110.3,176.7c6.1-5.1,12.3-10.2,18.4-15.3c-40-59.7-80-119.5-120-179.2c-20.1-76.1-40.2-152.2-60.3-228.3
		C142,171,135.6,171.9,129.2,172.9z"/>
	<g style="clip-path:url(#SVGID_00000110445898226616368450000008223844593217373119_);">
		<path class="st4" d="M85.5,209.2c40.6-6.4,81.2-12.7,121.9-19.1c35,153.6,51.8,230.6,50.3,230.9c0,0,0,0-0.1,0l-116.4,38.1
			C133.8,422,96.5,253.8,85.5,209.2z"/>
	</g>
	<g style="clip-path:url(#SVGID_00000110445898226616368450000008223844593217373119_);">
		<g>
			<path class="st5" d="M148.9,455.5c-8.9-41.4-18.1-83.3-27.4-124.6c-8.9-39.6-26.7-116.8-29-126.7l119.9-18.8
				c8.6,39.3,47.7,217.2,51.3,232.5L148.9,455.5z"/>
			<path class="st6" d="M211.6,186.6c17.9,81.5,46.7,212.5,50.9,230.7l-93.7,30.6l-19.2,6.3c-8.8-41-18-82.5-27.2-123.5
				c-8.6-38.4-25.6-112.3-28.7-125.7L211.6,186.6 M213.1,184.3L91.3,203.4c0,0,19.6,85.1,29.2,127.8c9.4,41.8,18.6,83.7,27.6,125.6
				c38.9-12.7,77.8-25.4,116.8-38.2C264.4,417.5,213.1,184.3,213.1,184.3L213.1,184.3z"/>
		</g>
		<g>
			<g>
				<g>
					<g>
						<path class="st7" d="M176.1,300.8c-0.4-0.7-0.8-1.5-0.9-2.3c-0.5-2.7,1.3-5.4,1.3-8.1c0-0.6-0.1-1.2,0-1.7
							c0.1-0.6,0.6-1.1,1.1-1.2c0.4,0,0.7,0.1,1,0.3c0.9,0.5,1.9,1,2.2,2c0.3,1-0.1,2.1-0.1,3.1c0.1,2.7,3.2,4.3,3.8,7
							c0.4,1.8-0.6,3.6-1.1,5.4c-0.5,1.7-1.5,6.6-4.1,3.7c-0.8-0.9-0.5-2.6-0.9-3.7C177.9,303.7,176.9,302.3,176.1,300.8z"/>
					</g>
				</g>
				<g>
					<g>
						<path class="st7" d="M199.5,384.2c-5.2-3.9-7.6-10.5-9.6-16.8c-4.8-15.4-8.7-31.2-11.4-47.1c0.1-0.2,0.1-0.4,0-0.6
							c0,0,0-0.1-0.1-0.1c-0.1-0.5-0.2-1-0.3-1.5c0.1-0.7,0.3-1.4,0.5-2.1c1-3.1,1.5-6.3,1.7-9.5c0-0.3-0.2-0.6-0.5-0.6
							c-0.3,0-0.6,0.2-0.6,0.5c-0.2,3.1-0.7,6.1-1.6,9c-0.3-1.2-0.6-2.4-1.1-3.5c-1.2-3.1-3.2-5.9-5.1-8.6c-1.1-1.6-2.3-3.3-3.7-4.8
							c-2.1-2.3-4.6-4.2-7.1-6c-3.5-2.6-6.8-5.1-9-8.7c-0.2-0.3-0.5-0.3-0.8-0.2c-0.3,0.2-0.3,0.5-0.2,0.8c2.3,3.7,5.9,6.4,9.3,9
							c2.4,1.8,4.9,3.7,6.9,5.9c1.3,1.4,2.5,3.1,3.6,4.7c1.9,2.6,3.8,5.3,5,8.3c0.3,0.8,0.6,1.7,0.8,2.6l-9-5.1
							c-1.7-1-3.5-2-4.8-3.5c-0.2-0.2-0.6-0.3-0.8-0.1c-0.2,0.2-0.3,0.6-0.1,0.8c1.4,1.6,3.4,2.7,5.1,3.7l9.9,5.6
							c0.1,0.5,0.2,1.1,0.3,1.7c0,0.6,0,1.3,0.3,1.8l0,0.3c0.7,4.1,1.5,8.2,2.3,12.3c-0.3-0.4-0.6-0.8-0.9-1.2
							c-0.5-0.6-1-1.1-1.4-1.7c-0.6-0.8-1-1.7-1.5-2.5c-1.3-2.2-3-4.1-4.7-5.9c-0.4-0.4-0.8-0.9-1.3-1.2c-0.7-0.4-1.6-0.5-2.4-0.2
							c-0.2,0.1-0.4,0.1-0.5,0.3c-0.2,0.2-0.2,0.5-0.2,0.8c0.2,2.2,3.1,3.5,3,5.7c0,0.7-0.4,1.4-0.4,2.1c0,0.9,0.8,1.7,1.4,2.3
							c2.3,2.2,4.9,4.2,8,4.8c0.6,0.1,1.1,0.2,1.6,0.5c2.3,10.6,5.1,21.1,8.3,31.4c2,6.5,4.5,13.3,10,17.4c0.2,0.2,0.6,0.1,0.8-0.1
							c0,0,0,0,0,0C199.8,384.7,199.8,384.3,199.5,384.2z"/>
					</g>
				</g>
				<g>
					<g>
						<path class="st8" d="M151.2,291.4c-1.8,1-3.5,2.2-5.5,2.6c-2,0.4-4.4-0.4-5.2-2.3c-0.3-0.8-0.3-1.7-0.5-2.5
							c-0.4-1.6-1.4-2.8-2.3-4.2c-0.8-1.4-1.5-3-0.9-4.5c1.2-3,6.3-2.7,7.7-5.6c0.6-1.2,0.5-2.8,1.5-3.7c1.5-1.2,3.6,0.3,5.5,0.3
							c1.5,0,2.8-1,4.2-1.4c2.1-0.6,4.5,0,6,1.6c1.5,1.6,1.9,4.1,1,6.1c-0.4,0.9-1.1,1.7-1.5,2.6c-0.5,1.4-0.3,3-0.4,4.5
							C160.2,291.5,155.4,289,151.2,291.4z"/>
					</g>
				</g>
				<g>
					<g>
						<path class="st9" d="M150.4,278.7c-0.8,0.2-1.4,0.9-1.6,1.7l-0.2-0.1c-1,0.8-0.2,2.7,1,2.9c1.3,0.2,2.5-0.8,2.9-2
							c0.2-0.5,0.3-1.2,0-1.7C152.2,278.8,151.2,278.4,150.4,278.7z"/>
					</g>
				</g>
				<g>
					<g>
						<path class="st8" d="M148.9,303.7c-1.4,1-2,3.2-0.8,4.5c0.6,0.6,1.5,0.9,2,1.6c0.6,0.8,0.6,1.9,0.9,2.9
							c0.4,1.5,1.5,2.7,2.9,3.2c1.4,0.5,3.1,0,4.1-1.1c0.3-0.4,0.5-0.9,0.8-1.2c0.9-1,2.4-1.2,3.8-1.5c1.4-0.3,2.9-1.1,3-2.5
							c0-0.7-0.3-1.3-0.3-2c0-0.9,0.6-1.6,1.1-2.4c1.4-2.2,1.8-5.4-0.1-7.2c-0.4-0.4-0.9-0.6-1.4-0.7c-1.3,0-2,1.5-3.1,2.2
							c-0.7,0.4-1.5,0.5-2.2,0.6c-2.1,0.4-3.5,1.8-5.3,2.4C152.4,303.1,150.6,302.6,148.9,303.7z"/>
					</g>
				</g>
				<g>
					<g>
						<path class="st9" d="M159.3,304.8c-0.8,0.1-1.4,0.7-1.9,1.2l0.3,0.2c-0.6-0.1-1,0.8-0.7,1.3c0.3,0.6,0.9,0.8,1.4,1.1
							c0.2,0.1,0.4,0.2,0.6,0.1c0.1-0.1,0.2-0.2,0.3-0.3c0.4-0.5,0.7-1.1,1.1-1.6c0.2-0.2,0.3-0.5,0.4-0.8
							C161,305.3,160.1,304.7,159.3,304.8z"/>
					</g>
				</g>
			</g>
		</g>
		<g>
			<g>
				<g>
					<path class="st7" d="M206.8,321.7l-0.7-0.4c1.8-3.4,3.6-6.9,4.5-10.6c1-4.1,0.8-8-0.7-11.1c-1-2-2.5-3.8-4-5.5
						c-2.2-2.6-4.5-5.2-4.9-8.7c-0.5-3.8,1.6-7.3,3.5-10.7c2-3.5,3.9-6.7,3.4-10.3l0.8-0.1c0.6,3.9-1.5,7.4-3.5,10.8
						c-1.9,3.3-3.9,6.6-3.4,10.2c0.4,3.2,2.5,5.6,4.7,8.2c1.5,1.8,3.1,3.6,4.1,5.7c2,4.1,1.5,8.6,0.7,11.6
						C210.4,314.8,208.5,318.3,206.8,321.7z"/>
				</g>
			</g>
			<g>
				<g>
					<path class="st7" d="M201.2,286.1c-1.2-0.3-2.4-2.3-2.3-3.4c0-0.7,0.2-1.3,0.4-1.9c0.1-0.4,0.2-0.8,0.3-1.2
						c0.4-2.3-0.7-4.3-1.9-6.6c-1.1-2.1-2.3-4.3-2.1-6.6l0.8,0.1c-0.2,2.1,0.9,4.2,2,6.2c1.2,2.2,2.4,4.5,2,7.1
						c-0.1,0.4-0.2,0.9-0.3,1.3c-0.2,0.6-0.3,1.1-0.4,1.7c0,0.9,1,2.6,1.8,2.7l-0.1,0.8C201.3,286.2,201.3,286.2,201.2,286.1z"/>
				</g>
			</g>
			<g>
				<g>
					<path class="st7" d="M203.4,290.6c-0.1-1.1-0.1-2.5,0.4-3.6c0.7-1.5,2.1-2.3,3.4-3.1c1.2-0.7,2.4-1.4,3-2.5
						c0.3-0.5,0.5-1.1,0.7-1.7c0.4-1.2,0.8-2.5,2.1-3.1l0.3,0.7c-0.9,0.4-1.3,1.5-1.6,2.6c-0.2,0.6-0.4,1.3-0.8,1.9
						c-0.7,1.3-2,2-3.3,2.8c-1.3,0.8-2.5,1.5-3.1,2.7c-0.5,1-0.4,2.2-0.3,3.3L203.4,290.6z"/>
				</g>
			</g>
			<g>
				<g>
					<path class="st10" d="M192.3,263.3c0.5-0.5,1.3-0.4,1.9-0.2c0.6,0.2,1.3,0.6,2,0.3c0.5-0.2,0.8-0.6,1.2-0.8
						c0.7-0.4,1.7-0.2,2.3,0.4c0.6,0.6,0.9,1.4,1.1,2.2c0.1,0.9,0,1.9-0.7,2.4C198.2,269.2,190.4,265.6,192.3,263.3z"/>
				</g>
			</g>
			<g>
				<g>
					<path class="st9" d="M198.3,264.9c-0.2-0.4-0.7-0.4-1.1-0.3c-0.4,0-0.7,0.1-1.1,0.1c-0.1,0-0.3,0-0.4,0.1
						c-0.3,0.2-0.2,0.7,0.1,0.9c0.3,0.2,0.7,0.3,1,0.3l0.1-0.2c0.3,0,0.7,0,1-0.1C198.3,265.6,198.5,265.2,198.3,264.9z"/>
				</g>
			</g>
			<g>
				<g>
					<g>
						<path class="st10" d="M200.5,269.4c-0.8,0.5-1,1.6-1.8,2c-0.3,0.2-0.7,0.2-1,0.4c-0.8,0.4-0.8,1.8,0,2.4
							c0.2,0.2,0.5,0.3,0.8,0.3c0.6,0,1-0.7,1.5-1.1c0.9-0.6,2-0.4,3.1-0.2c1.9,0.3,4.4-1.1,2-2.7
							C204.1,269.8,201.5,268.7,200.5,269.4z"/>
					</g>
				</g>
				<g>
					<g>
						<path class="st9" d="M203.2,271.6c0-0.1-0.1-0.2-0.1-0.2c-0.3-0.4-0.9-0.7-1.4-0.7l0,0.2c-0.3,0-0.5,0.1-0.7,0.2
							c-0.3,0.2-0.6,0.4-1,0.6c-0.1,0.1-0.2,0.1-0.2,0.3c0,0.1,0.1,0.2,0.2,0.3c0.4,0.2,0.8,0,1.2-0.1c0.4,0,0.7,0.1,1.1,0.1
							c0.4,0,0.8,0,1-0.3C203.2,271.8,203.2,271.7,203.2,271.6z"/>
					</g>
				</g>
			</g>
			<g>
				<g>
					<path class="st8" d="M204.1,264.3c-0.3-0.5-0.5-1.2-0.2-1.7c0.4-0.6,1.2-0.6,1.8-0.4c0.6,0.2,1.3,0.5,1.9,0.5
						c0.9-0.1,1.7-0.8,2.7-0.7c0.5,0.1,1,0.5,1.4,0.8c0.7,0.5,1.5,1,2,1.7c0.5,0.7,0.7,1.7,0.1,2.4c-1.1,1.2-3.6,0.1-5-0.1
						C206.9,266.5,205.1,266,204.1,264.3z"/>
				</g>
			</g>
			<g>
				<g>
					<path class="st9" d="M211.1,265.4c0-0.3-0.3-0.6-0.6-0.7c-0.5-0.2-1-0.5-1.4-0.7l0,0.2c-0.4-0.3-0.9-0.4-1.4-0.4
						c-0.3,0-0.5,0.1-0.7,0.2c-0.2,0.2-0.2,0.5-0.1,0.7c0.1,0.1,0.2,0.1,0.3,0.2c0.9,0.3,1.8,0.6,2.7,0.9c0.2,0.1,0.5,0.1,0.7,0.1
						C210.9,265.8,211.1,265.7,211.1,265.4z"/>
				</g>
			</g>
			<g>
				<g>
					<path class="st8" d="M208.9,275.6c-0.4-0.5-0.7-1.2-0.3-1.7c0.2-0.3,0.6-0.3,0.9-0.4c0.3,0,0.6-0.1,1,0
						c0.6,0.1,1.1,0.7,1.7,0.6c0.2,0,0.4-0.1,0.6-0.2c0.3-0.1,0.6,0,0.9,0.1c0.4,0.1,0.9,0.3,1.3,0.4c0.1,0,0.2,0.1,0.3,0.2
						c0.1,0.1,0.1,0.3,0.2,0.4c0.2,0.4,0.7,0.6,1,1c0.4,0.4,0.6,1.1,0.2,1.6c-0.4,0.5-1.1,0.6-1.8,0.6
						C212.9,278,210.3,277.3,208.9,275.6z"/>
				</g>
			</g>
			<g>
				<g>
					<g>
						<path class="st9" d="M212.9,274.9c0.1,0.1,0.2,0.2,0.3,0.3c0,0,0,0,0,0L212.9,274.9z"/>
					</g>
				</g>
				<g>
					<g>
						<path class="st9" d="M214.4,276c-0.1-0.1-0.3-0.2-0.5-0.3c-0.2-0.1-0.5-0.3-0.7-0.5c-0.6-0.3-1.4-0.4-2.1-0.2
							c-0.1,0-0.2,0.1-0.3,0.1c-0.2,0.1-0.1,0.4-0.1,0.6c0,0.2,0.1,0.5,0.3,0.6c0.2,0.1,0.5,0,0.8,0c0.4,0,0.8,0.2,1.2,0.3
							c0.4,0.2,0.8,0.3,1.2,0.1c0.1,0,0.2-0.1,0.3-0.2C214.6,276.4,214.5,276.2,214.4,276z"/>
					</g>
				</g>
			</g>
			<g>
				<g>
					<path class="st7" d="M209.7,283.2l-0.5-0.5c1.1-1,3.2-1.5,4.7-1.5c1.2-0.1,2.4-0.7,3.3-1.2c0.9-0.5,2.2-1.4,2.5-2.7
						c0.2-0.7,0-1.5-0.2-2.3c0-0.2-0.1-0.4-0.1-0.6c-0.3-1.5-0.1-2.6,0.7-3.4l0.5,0.6c-0.7,0.7-0.6,1.8-0.4,2.6
						c0,0.2,0.1,0.4,0.1,0.6c0.2,0.9,0.4,1.8,0.2,2.7c-0.4,1.6-1.8,2.6-2.8,3.2c-1,0.6-2.3,1.2-3.7,1.3
						C212.4,281.9,210.5,282.4,209.7,283.2z"/>
				</g>
			</g>
			<g>
				<g>
					<g>
						<path class="st10" d="M215.7,271.9c-0.7-0.3-1.4-0.8-1.5-1.5c-0.2-0.7,0.2-1.6,1-1.8c0.9-0.2,1.8,0.7,2.7,0.4
							c0.2-0.1,0.4-0.2,0.6-0.3c0.8-0.4,1.7-0.5,2.6-0.3c0.9,0.2,1.6,0.7,2.3,1.3c0.6,0.6,1.2,1.2,1.4,2c0.2,0.8,0,1.8-0.7,2.2
							c-0.5,0.4-1.2,0.4-1.8,0.3c-0.6-0.1-1.2-0.4-1.7-0.7c-0.8-0.4-1.7-1-2.6-1.3C217.3,272.1,216.5,272.1,215.7,271.9z"/>
					</g>
				</g>
				<g>
					<g>
						<path class="st9" d="M219.2,269.9c-0.3,0.1-0.6,0.1-0.9,0.2c-0.2,0-0.4,0.1-0.6,0.2c-0.1,0.1-0.1,0.1-0.2,0.2
							c-0.1,0.2,0.1,0.4,0.4,0.5c0.2,0,0.4,0,0.6,0c0.7,0,1.2,0.5,1.8,0.8c0.2,0.1,0.4,0.2,0.6,0.3c0.1,0,0.3,0.1,0.4,0
							c0.3-0.1,0.4-0.5,0.3-0.8c-0.1-0.3-0.3-0.5-0.6-0.7C220.4,270.1,220,269.7,219.2,269.9z"/>
					</g>
				</g>
			</g>
			<g>
				<g>
					<path class="st7" d="M199.6,281.4c-0.2-0.1-0.3-0.3-0.3-0.9c-0.1-0.5-0.3-2-0.5-2.3c-0.3-0.2-0.6-0.3-0.9-0.5
						c-0.1-0.1-0.3-0.1-0.4-0.2c-0.8-0.4-1.4-0.9-2.1-1.4l-2.1-1.6c-0.3-0.3-0.7-0.6-1-1c-0.2-0.3-0.4-0.7-0.5-1
						c-0.2-0.4-0.3-0.7-0.5-1c-0.2-0.2-0.5-0.4-0.7-0.6c-0.5-0.4-1.1-0.8-1.2-1.5l0.8-0.1c0.1,0.4,0.5,0.7,0.9,1
						c0.3,0.2,0.6,0.4,0.9,0.7c0.3,0.4,0.5,0.8,0.7,1.2c0.1,0.3,0.3,0.6,0.4,0.9c0.2,0.3,0.6,0.6,0.9,0.8l2.1,1.6
						c0.6,0.5,1.3,1,2,1.3c0.1,0.1,0.3,0.1,0.4,0.2c0.4,0.2,0.7,0.3,1.1,0.6c0.3,0.2,0.5,0.9,0.7,2.8c0,0.2,0.1,0.4,0.1,0.5l0,0
						c0,0.1,0,0.5-0.4,0.5C199.7,281.4,199.6,281.4,199.6,281.4z M199.8,280.6c0,0-0.1,0-0.1,0c-0.2,0-0.3,0.1-0.3,0.2l0.7,0
						C200,280.7,199.9,280.7,199.8,280.6z M198.8,278.2L198.8,278.2L198.8,278.2z"/>
				</g>
			</g>
			<g>
				<g>
					<g>
						<path class="st8" d="M187.1,267.8c-0.7,0.6-1.1,1.6-1,2.6c0.1,0.6,0.5,1.3,1,1.2c0.1,0,0.3-0.1,0.4-0.1c1.4-0.6,3,0.5,4.5,0.6
							c0.5,0,1.1-0.1,1.5-0.4c0.4-0.4,0.5-1.1,0.1-1.4c-0.4-0.3-1.1-0.3-1.2-0.8c-0.1-0.2,0-0.5,0-0.7
							C192.5,266.2,188.2,266.8,187.1,267.8z"/>
					</g>
				</g>
				<g>
					<g>
						<path class="st9" d="M190.8,269.4c0-0.3-0.1-0.5-0.3-0.6c-0.2-0.2-0.4-0.3-0.6-0.5l-0.1,0c-0.6-0.1-1.3,0.3-1.5,0.9
							c-0.1,0.1-0.1,0.3,0,0.4c0.2,0.3,0.5,0.2,0.8,0.2c0.3,0,0.6,0.1,1,0.1C190.4,269.9,190.7,269.7,190.8,269.4z"/>
					</g>
				</g>
			</g>
		</g>
	</g>
	<g style="clip-path:url(#SVGID_00000110445898226616368450000008223844593217373119_);">
		<g>
			<path class="st11" d="M338.1,414.6c-3.5-1.9-7-3.4-9.5-4.3c-7.6-2.9-15.1-4.4-22.7-0.4c-8.8,4.6-10.9,13.9-5,21.9
				c3.2,4.4,8.5,6.8,13.7,8.2c10.3,2.8,25.2,8.1,34.7-0.3C360.6,429.7,348.9,420.3,338.1,414.6z"/>
		</g>
		<path class="st10" d="M310.3,413.5c0.4-0.3,2.7-2.4,5.7-1.9c3,0.5,5.1,3.4,4.7,4.1c-0.5,0.9-4.1-1.4-6.5,0.4
			c-0.8,0.6-1,1.2-2.1,1.7c-0.9,0.4-2.4,0.5-3.1-0.2C308.4,416.8,308.7,415,310.3,413.5z"/>
		<path class="st9" d="M328.6,413.5c0.5,0.1,3.6,0.7,5,3.4c1.4,2.7,0.4,6.1-0.4,6.3c-1,0.1-1.4-4.1-4.3-4.9c-0.9-0.3-1.6,0-2.6-0.7
			c-0.8-0.5-1.9-1.6-1.7-2.5C324.8,414.1,326.4,413.2,328.6,413.5z"/>
		<path class="st8" d="M307.9,420.6c-1.1-0.2-2.1,0.3-2.7,1.3c-0.3,0.5-0.6,1.1-0.7,1.9c-0.4,3.3,3,5.4,3.1,5.5
			c3.4,2.1,8.1,0.3,8.1-0.6c0-0.7-3.4-0.5-6.1-3.3c-0.4-0.4-1.9-1.9-1.5-3.2c0.2-0.5,0.6-0.8,0.4-1.1
			C308.5,420.8,308.3,420.7,307.9,420.6z"/>
	</g>
	<path style="clip-path:url(#SVGID_00000110445898226616368450000008223844593217373119_);fill:#3C6828;" d="M328.6,438.5
		c0.4,0.6,1.7,2.3,3.9,2.9c0.7,0.2,3.6,1.1,5-0.6c1-1.2,1-3.3,0.1-4.1c-0.9-0.8-2.1,0.4-4.3-0.3c-1.3-0.4-1.4-1-2.9-1.3
		c-0.7-0.2-2.2-0.6-2.8,0.1C327.2,435.9,327.6,437.2,328.6,438.5z"/>
	<g style="clip-path:url(#SVGID_00000110445898226616368450000008223844593217373119_);">
		<g>
			<g>
				<path class="st13" d="M201.4,294.7c0,0,81.1,26.3,80.9,28.1c-0.2,1.8-81.2-25.2-81.2-25.2L201.4,294.7z"/>
			</g>
			<g>
				<path class="st9" d="M201,297.7c0,0-10.9-0.3-13.1-4.8c-1.5-3-2.5-6.1-3-7.9c-0.1-0.5,0.4-0.9,0.8-0.6l15.7,10.3L201,297.7z"/>
			</g>
		</g>
		<g>
			<path class="st14" d="M303.5,349.1c-16.3-10.7-32.6-21.4-49-32c-0.4-9.2-4.6-16.9-11.1-19.6c-3.6-1.5-10-2.2-13.7,1.2
				c-1.5,1.4-2.7,3.7-2,4.7c1.2,1.6,6.2-2.7,10.5-0.7c4.3,2,6.3,9.5,5.1,10.3c-0.2,0.1-0.4,0.1-0.5,0.1c-3.4-0.7-8.2-5.6-13.6-7
				c-1.4-0.4-3.1-0.8-3.6-0.2c-1.6,2.2,13.4,15.4,20.4,21.5c12.6,11,31.6,27.3,57.5,48.4C303.5,366.8,303.5,357.9,303.5,349.1z"/>
		</g>
	</g>
	<path style="clip-path:url(#SVGID_00000110445898226616368450000008223844593217373119_);fill:#FAD4AF;" d="M231.6,304.7
		c0.4-0.4,3.6-3.4,8.2-2.8c5.4,0.6,7.8,5.6,8,5.9c-1.2,0.1-2.5,0.3-3.7,0.4c-2.4-1.4-4.3-1.8-5.7-1.8c-1.1,0-2,0.1-3.4-0.2
		C233.5,305.8,232.4,305.2,231.6,304.7z"/>
	<polygon style="clip-path:url(#SVGID_00000110445898226616368450000008223844593217373119_);fill:#A04B2A;" points="90,213.7 
		85.5,209.2 91.3,203.4 93.3,212 	"/>
	<path style="clip-path:url(#SVGID_00000110445898226616368450000008223844593217373119_);fill:#3C6828;" d="M192.1,288.4
		c-2.3,2.8-2.4,4.2-2.2,5.4c0,0.4,0.2,1.5-0.2,1.7c-0.2,0.1-0.6-0.1-0.9-0.4c-1.8-1.5-2.5-3.8-2.5-3.8c-0.8-2.7-1.5-5.1-1.9-6.9
		c-0.1-0.4,0.3-0.7,0.7-0.5C187.5,285.2,189.6,287,192.1,288.4z"/>
	<g style="clip-path:url(#SVGID_00000110445898226616368450000008223844593217373119_);">
		<g>
			<g>
				<path class="st14" d="M379.2,273.6c2.6,0.8,5.8,1.5,9.5,1.5c12.8-0.1,21.5-8.6,24-11.1c-0.2-3.6-0.2-7.6-0.1-11.7
					c0-0.6,0-1.2,0.1-1.8c0.1-1.5,0.2-3,0.3-4.5c0-0.6,0.1-1.1,0.1-1.7c-0.4,0.1-0.7,0.2-1.1,0.3c-10.2,2.8-20.3,5.7-30.5,8.5
					c0.2,2.8,0.2,6.1-0.2,9.8c-0.1,0.9-0.2,1.7-0.3,2.5C380.6,268.6,379.9,271.3,379.2,273.6z"/>
				<path class="st16" d="M381,265.5c4-1.1,8.5-2.7,13.1-4.7c7.4-3.2,13.6-6.9,18.5-10.3c0.1-1.5,0.2-3,0.3-4.5
					c-0.3-0.5-0.6-0.9-1-1.4c-10.2,2.8-20.3,5.7-30.5,8.5c0.2,2.8,0.2,6.1-0.2,9.8C381.3,263.8,381.2,264.7,381,265.5z"/>
				<path class="st14" d="M347,181.1c-1.2,7.9-1.8,18.3,0.1,30.3c3.3,20.9,12.6,36.6,19.8,46.1c2.9,3.9,7.7,5.8,12.5,5.2
					c6.9-0.9,16-3.2,25.4-8.9c19.5-11.7,26.8-29.7,28.8-35.4c-0.4-3.6-3.4-26.3-24.3-41.1c-20.8-14.8-43.1-10.2-46.6-9.5L347,181.1z
					"/>
				<g>
					<path d="M346.1,190.6c1.1,0.4,3.1-10.7,11.6-13.7c4.7-1.6,8.1-2.5,14.1-2.8c6.4-0.4,15.9-1.1,27.9-2.6
						c-1.3,4.5-1.6,8.2-1.6,10.8c-0.1,3.6-0.1,5.6,1.2,7.3c1.9,2.5,4.6,1.5,8.5,3.3c6.1,2.8,8.5,10,9.1,11.7c2.2,6.8-0.6,9.8,2,15.9
						c1.6,3.7,4.2,6.2,6,7.6c-4.1,7.1-8.2,15-6.9,16c1.6,1.2,12.2-8,19-19c9.1-14.7,19.1-46,0.6-69.1c-5.3-6.6-12.3-11.7-20-15
						c0,0-0.1,0-0.1,0c-0.1,0-0.1-0.1-0.2-0.1c-11.7-3.5-34.4-6.7-54.9,13c-1.1,1.1-3.6,1.3-5.9,2.8c-2.9,2-5,4.4-6.5,7.1
						c0,0,0,0,0,0C344.3,177,344.9,190.2,346.1,190.6z"/>
				</g>
				<g>
					<g>
						<path d="M396.8,207.5c-4.2-4.5-9-2.9-14-1.1c0,0-0.1-0.1-0.1-0.1c2.5-3.6,7.8-3.9,11.3-1.7c1.2,0.7,2.1,1.7,2.9,2.8
							C396.9,207.4,396.8,207.5,396.8,207.5L396.8,207.5z"/>
					</g>
					<g>
						<path d="M394.7,212.4c-4.1-1.5-7.9-0.6-12,0.9C385.5,209.7,391.7,208.7,394.7,212.4L394.7,212.4z"/>
					</g>
					<path d="M385.4,212c0.2,1.3,1.5,2.1,2.8,1.9s2.1-1.5,1.9-2.8C389.8,209.9,385.2,210.7,385.4,212z"/>
				</g>
				<g>
					<g>
						<path d="M350.3,204.6c3.2-3.8,10.6-4.5,12.3,1.1c0,0-0.1,0.1-0.1,0.1c-4-3.2-7.6-4.3-12-1.1
							C350.4,204.7,350.3,204.6,350.3,204.6L350.3,204.6z"/>
					</g>
					<g>
						<path d="M362.5,212.5c-3.1-2.8-7.2-3.3-10.9-1.7C354.4,207,361.1,208,362.5,212.5L362.5,212.5z"/>
					</g>
					<path d="M354.2,210.4c0,1.3,0.9,2.3,2,2.2s2-1.2,2-2.5C358.3,208.9,354.2,209.1,354.2,210.4z"/>
				</g>
				<g>
					<path class="st17" d="M369.7,232.4c1.7-1,3.8-0.8,5.4,0.5C373.3,233.8,371.2,233.6,369.7,232.4L369.7,232.4z"/>
				</g>
				<path class="st18" d="M381.8,243c-0.8,1-1.9,2-3.5,2.7c-3.7,1.6-8.3,0.5-12-2.6c2.4,0.7,5.9,1.4,10.2,1
					C378.5,243.9,380.3,243.5,381.8,243z"/>
				<path d="M344.2,201c4.6-1.7,9.9-3.3,15.9-4.5c11.7-2.4,22-2.4,30-1.7c0.1-3.1,0.6-8.1,3.2-13.6c2-4.4,4.6-7.6,6.5-9.6
					c-6.3-4.3-10.2-11-9.2-17.1c1.3-9,13.2-17,26.9-13.5c0,0-0.1-0.1-0.2-0.1c-13.8-5.8-31.9-4.3-45.5,4.8c-2.5,1.7-5.9,4.3-9.3,8.2
					c-1.5,0.5-3.6,1.4-5.9,2.8c0,0-6.9,4.2-11.3,12.1C337.5,182.3,343.6,199.4,344.2,201z"/>
				<path d="M421.5,147.1c1-2.8,2.7-6.7,5.6-10.7c1.9-2.6,10.1-14,22.9-16.4c0,0,11.3-2.1,24.5,6c20.4,12.5,26.2,58.7,16.7,115.6
					c-4.1,2-10.9,4.6-19.6,4.9c-16.1,0.5-27.7-7.4-31.5-10.2c5.7-11.3,9.9-21,12.8-28.2c10-25,12.2-38.7,8.9-50.8
					c-1.1-4.2-2.7-7.2-5.3-8.3c-4.8-1.9-12.1,2.5-19,11.3C432.2,155.8,426.9,151.4,421.5,147.1z"/>
				<path class="st14" d="M420.7,207.6c0.3-0.7,2-5.3,6-6.2c2.2-0.5,5.1,0.1,6.7,1.9c4.4,4.7-1,15.4-3.8,19.7
					c-1.8,2.8-4.5,7-8.8,7.3c-0.6,0-3.2,0.3-4.5-1.3c-1.8-2.1-0.3-6.4,1.3-11.1c0.8-2.2,1.4-3.3,2.1-6
					C420.4,209.2,420.2,209,420.7,207.6z"/>
				<circle cx="432" cy="151.8" r="23.1"/>
			</g>
		</g>
		<g>
			<path class="st14" d="M346.1,338.8c-12.9,11.2-24.4,23.9-37.1,35.4c-2.1,1.9-5.3,2-7.5,0.1c-18.1-15.3-37.6-32-55.5-47.1
				c2.8-3.4,5.6-6.8,8.5-10.2c15,9.8,29.9,19.6,44.9,29.4c2.3,1.5,5.5,1.1,7.3-0.9c7.8-8.7,15.7-17.4,23.5-26
				C335.5,325.9,340.8,332.3,346.1,338.8z"/>
			<path class="st19" d="M319.6,327.4c0.5,2.4,2.4,10.4,10,16.8c7.5,6.3,15.6,6.9,18.1,6.9c0.2-0.2,0.4-0.3,0.6-0.5
				c0.4-1.6,0.6-2,0.9-2.5c7.6-14.7,15.2-29.3,22.8-44c-3.3-4.4-6.7-8.9-10.1-13.6c-1.3-1.7-2.5-3.5-3.7-5.2
				c-2.8-4-8.8-3.9-11.6,0.2c-3.6,5.4-6.6,9.9-8.9,13.5c-4.8,7.4-12.7,19.8-14.1,22.1c-0.6,0.9-1.2,1.9-1.8,2.8
				C321,325.2,320.3,326.3,319.6,327.4z"/>
			<g>
				<path class="st20" d="M321.8,324c1.6,5.3,5.1,12.7,12.6,18.2c4.3,3.2,9.2,5.4,14.6,6.4c0,0,0.1,0,0.1,0l0.1-0.4l0.4-2
					c-5.1-0.9-9.7-2.9-13.7-5.9c-7.9-5.9-11-14.2-12.3-19C322.9,322.2,322.3,323.1,321.8,324z"/>
			</g>
		</g>
		<g>
			<path class="st21" d="M459.1,572.2c-39.9,0.7-79.8,1.5-119.8,2.2c4-52.7,7.9-105.4,11.9-158.1c0,0,2.9-25.5-0.3-34.2
				c-3.2-8.6-11.1-21.6-11.7-30.5c-0.6-9,1.9-26.1,1.9-26.1s2.1-13.1,5.9-39.5c0.2-1.1,0.8-2,1.8-2.5c4.7-2.1,9.6-4.2,14.9-6.2
				c4.8-1.9,9.5-3.5,14-5c0.8-0.2,1.5-0.5,2.3-0.7c0-0.2-0.1-0.6-0.1-1c0-0.9,0.1-2.1,0.9-2.6c1.4-1,4.6,0.4,7.7,3.9
				c13.8-10.8,21.9-15.2,24.3-13.1c0.5,0.5,0.8,1.2,0.7,2.3c0,0.7-0.1,1.5-0.4,2.4c0,0.2-0.1,0.4-0.1,0.6c12.1,4.3,24.3,8.6,36.4,13
				c2.3,16.5,4.7,38.5,6,64.6c1.1,22.2,0.4,28.2,0.3,45.4c0,7.5,0,12.7,0.1,20.1C455.9,423.8,457.2,486.6,459.1,572.2z"/>
			<circle class="st20" cx="414.7" cy="305.6" r="2.1"/>
		</g>
		<g>
			<path class="st14" d="M359,422.4c3.1,6.6,2.1,4.4,5.2,11.1c28.8-9.9,58.4-21.5,88.4-35.3c2.9-1.3,5.8-2.7,8.7-4
				c2.7-1.3,4.5-4.1,4.4-7.1l-0.5-51.9c-3.1,2.2-8.7,5.5-16.4,6.9c-5.7,1.1-10.5,0.8-13.9,0.4c0.8,5.7,1.6,11.5,2.5,17.4
				c0.6,4.1,1.3,8.2,1.9,12.2c0.5,3.3-1.1,6.6-4.2,8.1c-11.7,5.8-23.7,12.1-35.9,18.8C385.1,406.8,371.7,414.6,359,422.4z"/>
			<g>
				<path class="st19" d="M426.4,351.4C426.4,351.4,426.4,351.4,426.4,351.4c0.1,0,0.2,0,0.3,0.1c5.1,0.9,11.1,1.4,17.8,1.1
					c0.5,0,0.9-0.1,1.4-0.1c0.5,0,1-0.1,1.5-0.1c5.8-0.5,11.1-1.5,15.6-2.8c1.7-0.5,3.2-1,4.7-1.5c0-0.7,0-1.4,0-2
					c-0.1-17-1.2-35.4-4.5-48.7c-3-12.1-7.5-17.9-12.3-19.9c-2.3-0.9-5-0.9-7.9-0.1c-10.3,2.8-22.3,14.5-22.8,21.8
					c-0.8,13.1,4.6,18.3,6.3,49.1C426.3,349.6,426.4,350.7,426.4,351.4z"/>
			</g>
		</g>
		<g>
			<path class="st20" d="M464,346.8c-2.6,0.6-5.2,1.1-7.8,1.5c-9.9,1.5-20,1.8-30,0.7l0.3-2.5c9.9,1,19.7,0.8,29.4-0.7
				c3.8-0.6,7.7-1.4,11.4-2.4l0.6,2.4C466.5,346.2,465.3,346.5,464,346.8z"/>
		</g>
		<g>
			<path class="st20" d="M387.7,276l1.5,2c0.4-0.3,0.8-0.6,1.2-0.9c5-3.9,9.6-7.2,13.3-10l0.7-0.5c1.9-1.4,4.8-3.5,8.4-3.2
				c0.1,0,0.2,0,0.2,0c0.2-0.9,0.4-1.7,0.4-2.4c-0.1,0-0.3,0-0.4,0c-4.5-0.4-8,2.2-10,3.7l-0.7,0.5c-3.8,2.8-8.5,6.3-13.7,10.3
				C388.2,275.6,387.9,275.8,387.7,276z"/>
		</g>
		<g>
			<path class="st20" d="M377.5,272.4c0.7,0.2,1.3,0.4,2,0.6c3.9,1.4,6.6,3.6,9,5.7c3.5,3.1,6.9,7.1,10.2,11.7
				c2.7,3.9,4.9,6.9,6.9,11.5c1.6,3.7,2.7,7.6,3.3,11.6l2.5-0.4c-0.6-4.2-1.8-8.3-3.4-12.2c-2.1-4.8-4.3-8-7.1-11.9
				c-3.3-4.7-6.8-8.7-10.3-11.9c-0.1-0.1-0.1-0.1-0.2-0.2c-0.5-0.5-1.1-1-1.7-1.5c-2.2-1.8-4.8-3.6-8.2-4.7
				c-0.2-0.1-0.4-0.1-0.6-0.2c0,0.4,0,0.8,0.1,1c-0.8,0.2-1.5,0.5-2.3,0.7L377.5,272.4z"/>
		</g>
		<path class="st22" d="M402,283.1c-3.3,2.4-6.7,4.9-10,7.3"/>
		<path class="st22" d="M409,292.8c-3.3,2.1-6.5,4.2-9.8,6.4"/>
		<path class="st22" d="M414.1,306c-3.8,0.9-7.5,1.8-11.3,2.7"/>
		<circle class="st20" cx="402" cy="282.8" r="2.1"/>
		<circle class="st20" cx="391.9" cy="290.3" r="2.1"/>
		<circle class="st20" cx="409.1" cy="292.2" r="2.1"/>
		<circle class="st20" cx="399.2" cy="299.2" r="2.1"/>
		<circle class="st20" cx="403.2" cy="308.8" r="2.1"/>
		<path class="st23" d="M373.6,243.9c-0.3-0.2-0.7-0.5-1.2-0.7c-0.1,0-0.4-0.2-0.8-0.2c-1.4-0.2-2.2,0.3-3.6,0.3
			c-0.4,0-0.9,0-1.6-0.2c0.6,0.7,2.2,2.2,4.7,3c2.4,0.7,4.4,0.4,5.3,0.2c1.8-1.1,3.6-2.2,5.4-3.3c-1.2,0.3-2.2,0.3-2.8,0.2
			c-1-0.1-1.5-0.3-2.8-0.3c-0.3,0-1,0.1-1.8,0.5C374,243.6,373.8,243.7,373.6,243.9z"/>
		<path class="st24" d="M452.7,454.3c0.7,39.3,1.4,78.6,2.2,117.9c0.8,0,1.5,0,2.3,0c-0.8-39.5-1.7-79-2.5-118.5
			C454,453.9,453.3,454.1,452.7,454.3z"/>
	</g>
	<g style="clip-path:url(#SVGID_00000110445898226616368450000008223844593217373119_);">
		<path class="st14" d="M368.4,432c-2.3,1.1-4.1,1.9-5,2.4c-0.2,0.1-0.5,0.3-1,0.6c-0.9,0.6-1.5,1.3-1.5,1.4
			c-1.5,1.8-33,12.4-38.7,3.6c-4.4-6.8,24-11.6,24.3-12.9c0,0,0-0.1,0-0.1c-0.2-0.8-4.8,0.4-10.4-0.6c-1.7-0.3-3.3-0.5-3.3-1.1
			c-0.1-1.1,6.5-2.8,12.4-3.1c2.2-0.1,5,0.8,9.2,0.6c0.8,0,1.9-0.1,3.3-0.4c2.2-0.5,3.9-1.4,5-2.1c0.9,2.1,1.9,4.3,3.1,6.6
			C366.6,428.6,367.5,430.3,368.4,432z"/>
	</g>
	
		<path style="clip-path:url(#SVGID_00000110445898226616368450000008223844593217373119_);fill:none;stroke:#FFCA19;stroke-width:2;stroke-miterlimit:10;" d="
		M348.2,456.4c2,0.2,4,0.5,6.1,0.7c-2.2,39.1-4.4,78.1-6.6,117.2"/>
	
		<path style="clip-path:url(#SVGID_00000110445898226616368450000008223844593217373119_);fill:none;stroke:#FFCA19;stroke-width:2;stroke-miterlimit:10;" d="
		M456.5,453.6c-2.3,0.4-4.6,0.9-7,1.3c0.7,39.1,1.5,78.3,2.2,117.4"/>
	<path style="clip-path:url(#SVGID_00000110445898226616368450000008223844593217373119_);" d="M349,208.7c1,0.1,2.1,0.1,3.3,0.1
		c1.4,0,2.6-0.2,3.7-0.4c-1.4,0.8-2.9,1.5-4.3,2.3C350.7,210.1,349.8,209.4,349,208.7z"/>
	<path style="clip-path:url(#SVGID_00000110445898226616368450000008223844593217373119_);" d="M394.7,212.4c0.4,0,1.1,0,1.9-0.3
		c0.8-0.3,1.3-0.6,1.7-0.9c-1.1-0.1-2.2-0.2-3.5-0.4c-1.1-0.2-2.2-0.4-3.2-0.6C392.7,211,393.7,211.7,394.7,212.4z"/>
</g>
</svg>
