<?xml version="1.0" encoding="utf-8"?>
<!-- Generator: Adobe Illustrator 26.0.1, SVG Export Plug-In . SVG Version: 6.00 Build 0)  -->
<svg version="1.1" id="Layer_1" xmlns="http://www.w3.org/2000/svg" xmlns:xlink="http://www.w3.org/1999/xlink" x="0px" y="0px"
	 viewBox="0 0 1000 1000" style="enable-background:new 0 0 1000 1000;" xml:space="preserve">
<style type="text/css">
	.st0{clip-path:url(#SVGID_00000151519882517597211870000011024720740994186646_);fill:#FFD7DC;}
	.st1{opacity:0.11;clip-path:url(#SVGID_00000151519882517597211870000011024720740994186646_);}
	.st2{clip-path:url(#SVGID_00000151519882517597211870000011024720740994186646_);fill:#F7B7C1;}
	.st3{clip-path:url(#SVGID_00000151519882517597211870000011024720740994186646_);fill:#FFEEF1;}
	.st4{clip-path:url(#SVGID_00000151519882517597211870000011024720740994186646_);fill:#C6838B;}
	.st5{clip-path:url(#SVGID_00000151519882517597211870000011024720740994186646_);}
	.st6{fill:#C6838B;}
	.st7{fill:#D8989D;}
	.st8{fill:#F7B7C1;}
	.st9{fill:#E5A031;}
	.st10{fill-rule:evenodd;clip-rule:evenodd;fill:#713727;}
	.st11{fill:#FFBC39;}
	.st12{fill:#FCFCFC;}
	.st13{fill:#BD8328;}
	.st14{fill:#FFD993;}
	.st15{fill:#845E34;}
	.st16{fill:#FFFFFF;}
	.st17{fill:#7E3E2B;}
	.st18{fill:#FFBD5E;}
	.st19{fill:#FAD4AF;}
	.st20{fill:#E09D6C;}
	.st21{fill:#9F0102;}
	.st22{fill:#84030A;}
	.st23{fill:#F8AE38;}
	.st24{fill:none;stroke:#F8AE38;stroke-width:1.3772;stroke-miterlimit:10;}
	.st25{fill:none;}
	.st26{fill:#191513;}
	.st27{opacity:0.41;fill:#E09D6C;}
	.st28{fill:#BB6C31;}
	.st29{opacity:0.19;}
</style>
<g>
	<defs>
		<path id="SVGID_1_" d="M911.2,614.9c-0.3,1-0.5,1.7-0.6,2.4c0,0-9,32.8-32.1,64.9c-12,16.6-40.5,50-83.7,76.6
			c-95.9,59-223.9,60-264.3,59.1C401.2,815,290.6,773,231.9,725.1c-30.8-25.1-51.8-54.9-51.8-54.9c-9.6-13.6-27.8-48.3-42.4-95.2
			c-15.7-50.3-19.2-102.7,14.7-135c81.5-77.6,159.1-8.4,174.7-92.1c14.3-77.2,68.8-152.1,168.1-128C622.5,251,608.5,338.8,671,332.2
			c62.5-6.6,169.5-55.7,188.9,37.4c19.3,93.1-71.3,172.9-13.6,166.3C885.7,531.4,935.9,521.4,911.2,614.9z"/>
	</defs>
	<clipPath id="SVGID_00000078006351587337110800000002522541336426021761_">
		<use xlink:href="#SVGID_1_"  style="overflow:visible;"/>
	</clipPath>
	<path style="clip-path:url(#SVGID_00000078006351587337110800000002522541336426021761_);fill:#FFD7DC;" d="M911.2,614.9
		c-0.2,0.8-0.4,1.6-0.6,2.4c-8.9,32.6-20,57.5-28.4,73.6c-7.3,14-12.6,21.4-12.6,21.4c-40.7,28.8-163.8,107.8-339.2,105.6
		c-166.5-2.1-283-76.3-324.4-105.6c-6.6-9.9-15.8-24.2-25.8-42.1c-14.3-25.5-31.3-59.8-42.4-95.2c-15.7-50.3-19.2-102.7,14.7-135
		c81.5-77.6,159.1-8.4,174.7-92.1c14.3-77.2,68.8-152.1,168.1-128C622.5,251,608.5,338.8,671,332.2c62.5-6.6,169.5-55.7,188.9,37.4
		c19.3,93.1-71.3,172.9-13.6,166.3C885.7,531.4,935.9,521.4,911.2,614.9z"/>
	<path style="opacity:0.11;clip-path:url(#SVGID_00000078006351587337110800000002522541336426021761_);" d="M501.3,693l-9.3-13.7
		l9.5,12.7C501.4,692.2,501.3,692.5,501.3,693z"/>
	<path style="clip-path:url(#SVGID_00000078006351587337110800000002522541336426021761_);fill:#F7B7C1;" d="M1114.3,654.7
		c-16.5,28.6-39.3,53.2-64.8,74c-52.7,42.6-115.5,70.9-179.7,91.5c0.8-0.2,1.6-0.5,2.4-0.8c-205.2,0.1-413.1,0.2-608.1,0.1
		c0.3,0.1,0.5,0.2,0.8,0.3C178.3,789,90,735.7,54.1,647.1C184.9,645.8,871.9,612.5,1114.3,654.7z"/>
	<path style="clip-path:url(#SVGID_00000078006351587337110800000002522541336426021761_);fill:#FFEEF1;" d="M1108.3,664.6
		c-15.9,24.5-36.3,45.7-58.8,64.1c-50.2,40.7-109.8,68.2-170.8,88.6c-206.2,6.2-417.9,0.3-614.7,2.3c-3.9-1.4-7.9-2.9-11.8-4.4
		c-26.1-9.9-51.6-21.8-75.6-36c-13.1-7.8-25.9-16.3-38-25.6C425,681.3,952.8,667.2,1108.3,664.6z"/>
	<path style="clip-path:url(#SVGID_00000078006351587337110800000002522541336426021761_);fill:#C6838B;" d="M515.4,668.6
		c0,0-239.5,26.3-399.3,66.1c-13.3-12.3-25-25.4-35.1-39.2C157.1,687,377,664.3,515.4,668.6z"/>
	<path style="clip-path:url(#SVGID_00000078006351587337110800000002522541336426021761_);fill:#C6838B;" d="M434.3,764.7
		c15.3-12.5,33.3-7.1,53.5-4.2c10.9,1.1,17.3-0.2,16.2,4.2C503,769.1,425.1,769.8,434.3,764.7z"/>
	<g style="clip-path:url(#SVGID_00000078006351587337110800000002522541336426021761_);">
		<g>
			<path class="st6" d="M234.7,416.6c3.8-6,4.1-14.2,3-24c-0.9-7.3-3.4-12.2-3.5-12.4l-1.5,0.6c0.1,0.2,7.4,21-0.9,34L234.7,416.6z"
				/>
		</g>
		<g>
			<path class="st6" d="M237.2,396.9l0.3-3.5c-9.1-0.7-17.6-4-22.6-11c-3.7-5.2-5.4-10.5-5.4-10.5l-1.5,0.3c0,0.2,1.2,5.8,5.4,11.7
				C217.3,389.3,224.5,396,237.2,396.9z"/>
		</g>
		<g>
			<path class="st6" d="M294.1,403.3c7.1-5.8,10.7-15.7,13.2-28c1.9-9.2,0.8-16.2,0.8-16.5l-2.1,0.1c0,0.3,0.6,28.5-14.7,41
				L294.1,403.3z"/>
		</g>
		<g>
			<path class="st6" d="M300.4,398.3l-1.1-4.3c11.4-2.8,21.4-8.8,26.2-18.7c3.6-7.4,4.5-14.4,4.5-14.5l2,0.1c0,0.3-0.3,7.6-4.3,15.9
				C324,384.4,316.3,394.4,300.4,398.3z"/>
		</g>
		<path class="st7" d="M169.5,432.9c-0.5-0.1-38.4,12.6-38.4,32.2c0,19.6,35.3,27.5,53.9,22.5c18.5-5,45-2.5,58.6,6.7
			c13.5,9.2,33.4-21.4,73.1-13.1c39.7,8.3,56.8,0.4,79.9-12.2c23.1-12.7,38.1,9.9,58.4,5.6c20.4-4.3,31.6-35.5,2.9-45.6
			c-28.6-10.1-139.1-22.2-159.5-20.2C278,410.8,169.5,432.9,169.5,432.9z"/>
		<g>
			<path class="st6" d="M278.2,638.1c0,0,11.4-33.9,13.9-61.8c2.8-30.9-5.3-63.7,0.4-83c6.7-22.7-2.8-60.1-6.8-84.4
				c0,0,24.8,64.7,19.4,80c-5,14.4,0.2,57.6,5.1,84.4c4.8,26.8-5.4,48.2,0,64.9C310.2,638.1,286.3,646.1,278.2,638.1z"/>
			<g>
				<path class="st6" d="M299,532.1l-3-2.5c0.2-0.2,4.4-5.1,12.3-10.5c7.3-5,19.3-11.3,34.9-13.3c28.4-3.6,68-31.4,69.6-55l3.9,0.3
					c-0.8,11.9-10.2,25.7-26,37.7c-14.7,11.3-32.3,19.1-47.1,21C315.3,513.2,302.6,539.1,299,532.1z"/>
			</g>
			<g>
				<path class="st6" d="M303.5,472.9l-0.9-3.8c0.2,0,9-2.2,19.7-8.5c9.9-5.8,24.6-15.8,33.2-33.4l2.4,1.2
					c-9.1,18.5-23.3,29.7-33.7,35.8C312.9,470.6,303.9,472.8,303.5,472.9z M303,470.9l-0.5-1.9c0,0,0,0,0,0L303,470.9z"/>
			</g>
			<g>
				<path class="st6" d="M326.6,460.7c-6-5.4-8.8-14.3-10.5-25.3c-1.3-8.2,0-14.3,0-14.6l1.9,0.1c0,0.3-1.7,25.1,11.2,36.7
					L326.6,460.7z"/>
			</g>
			<g>
				<path class="st6" d="M342.8,451.2c-0.8,0-1.6,0-2.5,0l0.1-3.9c18.2,0.5,30.1-5.1,37-10c7.4-5.3,10.6-10.7,10.6-10.8l1.7,1
					c-0.1,0.2-2.3,7-10.3,12.8C372.4,445.2,360.8,451.2,342.8,451.2z"/>
			</g>
			<g>
				<path class="st6" d="M286,498.5c-48.2,0-92.6-44.1-110.2-59.9c-3.1-2.8-6.1-5.5-6.9-5.8c0,0,0.2,0.1,0.5,0.1V429
					c1.4,0,2.6,1.1,9,6.7c17.9,16,69.1,58.2,117.5,55.3l-2.8,7.5C291.5,498.6,287.7,498.5,286,498.5z"/>
			</g>
			<g>
				<path class="st6" d="M191.3,479.8c-12.1,0-21.7-2.9-28.9-5.1c-13.9-4.3-19.7-11.9-20-12.2l1.1-1.3c0.1,0.1,7,5.8,20.2,9.8
					c12.2,3.7,32.4,6.7,59.3-0.3l4.5,5.4C215.3,479.3,200.8,479.8,191.3,479.8z"/>
			</g>
			<g>
				<path class="st6" d="M244.2,480.7l-3.6-1.6c11.6-25.5-2.2-51.6-2.3-51.9l1.5-0.9c0.2,0.3,4.3,6.8,6.9,16.8
					C249.2,452.4,250.7,466.4,244.2,480.7z"/>
			</g>
			<g>
				<path class="st6" d="M245,451.2c-10.2,0-18.5-10.9-23.3-16.3c-1.2-1.3-2.9-4-3.4-3.4c0,0-0.9-1-0.5-1l1.2,0.2
					c1.2,1,2.1,0.7,4.8,3.8c4.5,5.1,13.3,13.4,22.1,12.7l0.3,3.9C245.8,451.1,245.4,451.2,245,451.2z"/>
			</g>
			<g>
				<path class="st6" d="M292.2,449.2c-15.8-2.2-24.7-9.6-29.4-15.4c-5.1-6.4-6.5-12.2-6.5-12.4l3.8-0.9c0,0.1,1.3,5.3,5.9,11
					c6.2,7.6,15.2,12.2,26.8,13.8L292.2,449.2z"/>
			</g>
			<g>
				<path class="st6" d="M318,440.1l-1.3-3.7c9.7-3.5,18-9.7,21.3-18.8c2.5-6.9,2.7-13.1,2.7-13.1l1.8-0.1c0,0.3,0.4,6.7-2.3,14.3
					C337.4,425.8,331.5,435.2,318,440.1z"/>
			</g>
			<g>
				<path class="st6" d="M395.2,490.8c-2,0-4.8-0.2-6.8-0.3l1.4-5.8c12.1,0.6,23-0.7,32.5-3.8c7.5-2.5,14.2-6.2,19.7-11
					c4.9-4.3,8.1-8.6,9.9-11.5c1.9-3.2,2.7-5.3,2.7-5.4l3.7,1.3c-0.1,0.4-3.4,9.6-13.6,18.4c-5.9,5.2-13,9.2-21.1,11.9
					C415.3,487.4,405.5,490.8,395.2,490.8z"/>
			</g>
		</g>
		<path class="st8" d="M79.1,449.2c0,0,13.6,10.5,32.8,7.5c19.2-3,33.1-9.6,51.1-3.2c18,6.4,59,10.2,90.5-2.6s63.8-23.3,98.6-12.2
			c34.8,11.1,53.5,18.9,79.2,10.4c25.8-8.4,40.3,18.1,69.7,4.3c29.5-13.8,10.1-34.7-12.8-39c-22.8-4.3-58.2-32.2-99.5-25.7
			c-41.2,6.4-78.9-11.2-118.3-2.7c-39.4,8.5-60.1,21.4-100.1,18.2C130.5,401.1,49,425.5,79.1,449.2z"/>
		<path class="st6" d="M234.1,387.8c0,0-24.3,2.5-38.1,7.5c-13.8,5-45.4,2-33.4-13.5c12-15.5,21-25.5,47.9-22.5
			c26.9,3,53.8,6,61.4,13C279.4,379.3,244.6,389.3,234.1,387.8z"/>
		<path class="st8" d="M293.3,365.6c10.2-2.3,27.4,7.3,44.4,15.4c16.9,8.1,52,2.4,37.9-21.2c-14.1-23.6-24.8-38.9-58.5-35.7
			c-33.7,3.2-67.5,6.4-77.4,16.4S265.6,371.9,293.3,365.6z"/>
	</g>
	<path style="clip-path:url(#SVGID_00000078006351587337110800000002522541336426021761_);fill:#C6838B;" d="M224.3,651.1
		c0,0,7.4-22.2,31.3-23.1c23.9-0.9,24.3,12.2,39.9,9.1c15.6-3,23.9-5.6,35.2,0.4s49.1,5.4,49.4,11
		C380.4,654.1,215.4,658.9,224.3,651.1z"/>
	<g style="clip-path:url(#SVGID_00000078006351587337110800000002522541336426021761_);">
		<g>
			<path class="st6" d="M609.3,406.6c3.8-6,4.1-14.2,3-24c-0.9-7.3-3.4-12.2-3.5-12.4l-1.5,0.6c0.1,0.2,7.4,21-0.9,34L609.3,406.6z"
				/>
		</g>
		<g>
			<path class="st6" d="M611.8,387l0.3-3.5c-9.1-0.7-17.6-4-22.6-11c-3.7-5.2-5.4-10.5-5.4-10.5l-1.5,0.3c0,0.2,1.2,5.8,5.4,11.7
				C591.8,379.4,599.1,386,611.8,387z"/>
		</g>
		<g>
			<path class="st6" d="M668.6,393.3c7.1-5.8,10.7-15.7,13.2-28c1.9-9.2,0.8-16.2,0.8-16.5l-2.1,0.1c0,0.3,0.6,28.5-14.7,41
				L668.6,393.3z"/>
		</g>
		<g>
			<path class="st6" d="M675,388.3l-1.1-4.3c11.4-2.8,21.4-8.8,26.2-18.7c3.6-7.4,4.5-14.4,4.5-14.5l2,0.1c0,0.3-0.3,7.6-4.3,15.9
				C698.6,374.4,690.8,384.4,675,388.3z"/>
		</g>
		<path class="st7" d="M544.1,422.9c-0.5-0.1-38.4,12.6-38.4,32.2c0,19.6,35.3,27.5,53.9,22.5c18.5-5,45-2.5,58.6,6.7
			c13.5,9.2,33.4-21.4,73.1-13.1s56.8,0.4,79.9-12.2c23.1-12.7,38.1,9.9,58.4,5.6c20.4-4.3,31.6-35.5,2.9-45.6
			c-28.6-10.1-139.1-22.2-159.5-20.2C652.6,400.8,544.1,422.9,544.1,422.9z"/>
		<g>
			<path class="st6" d="M652.7,628.1c0,0,11.4-33.9,13.9-61.8c2.8-30.9-5.3-63.7,0.4-83c6.7-22.7-2.8-60.1-6.8-84.4
				c0,0,24.8,64.7,19.4,80c-5,14.4,0.2,57.6,5.1,84.4c4.8,26.8-5.4,48.2,0,64.9C684.8,628.1,660.9,636.1,652.7,628.1z"/>
			<g>
				<path class="st6" d="M673.5,522.2l-3-2.5c0.2-0.2,4.4-5.1,12.3-10.5c7.3-5,19.3-11.3,34.9-13.3c28.4-3.6,68-31.4,69.6-55
					l3.9,0.3c-0.8,11.9-10.2,25.7-26,37.7c-14.7,11.3-32.3,19.1-47.1,21C689.8,503.3,677.1,529.1,673.5,522.2z"/>
			</g>
			<g>
				<path class="st6" d="M678.1,462.9l-0.9-3.8c0.2,0,9-2.2,19.7-8.5c9.9-5.8,24.6-15.8,33.2-33.4l2.4,1.2
					c-9.1,18.5-23.3,29.7-33.7,35.8C687.5,460.6,678.4,462.8,678.1,462.9z M677.6,461l-0.5-1.9c0,0,0,0,0,0L677.6,461z"/>
			</g>
			<g>
				<path class="st6" d="M701.2,450.8c-6-5.4-8.8-14.3-10.5-25.3c-1.3-8.2,0-14.3,0-14.6l1.9,0.1c0,0.3-1.7,25.1,11.2,36.7
					L701.2,450.8z"/>
			</g>
			<g>
				<path class="st6" d="M717.3,441.2c-0.8,0-1.6,0-2.5,0l0.1-3.9c18.2,0.5,30.1-5.1,37-10c7.4-5.3,10.6-10.7,10.6-10.8l1.7,1
					c-0.1,0.2-2.3,7-10.3,12.8C746.9,435.2,735.4,441.2,717.3,441.2z"/>
			</g>
			<g>
				<path class="st6" d="M660.6,488.5c-48.2,0-92.6-44.1-110.2-59.9c-3.1-2.8-6.1-5.5-6.9-5.8c0,0,0.2,0.1,0.5,0.1V419
					c1.4,0,2.6,1.1,9,6.7c17.9,16,69.1,58.2,117.5,55.3l-2.8,7.5C666.1,488.6,662.2,488.5,660.6,488.5z"/>
			</g>
			<g>
				<path class="st6" d="M565.9,469.9c-12.1,0-21.7-2.9-28.9-5.1c-13.9-4.3-19.7-11.9-20-12.2l1.1-1.3c0.1,0.1,7,5.8,20.2,9.8
					c12.2,3.7,32.4,6.7,59.3-0.3l4.5,5.4C589.9,469.3,575.3,469.9,565.9,469.9z"/>
			</g>
			<g>
				<path class="st6" d="M618.8,470.8l-3.6-1.6c11.6-25.5-2.2-51.6-2.3-51.9l1.5-0.9c0.2,0.3,4.3,6.8,6.9,16.8
					C623.7,442.4,625.3,456.4,618.8,470.8z"/>
			</g>
			<g>
				<path class="st6" d="M619.5,441.2c-10.2,0-18.5-10.9-23.3-16.3c-1.2-1.3-2.9-4-3.4-3.4c0,0-0.9-1-0.5-1l1.2,0.2
					c1.2,1,2.1,0.7,4.8,3.8c4.5,5.1,13.3,13.4,22.1,12.7l0.3,3.9C620.3,441.2,619.9,441.2,619.5,441.2z"/>
			</g>
			<g>
				<path class="st6" d="M666.7,439.3c-15.8-2.2-24.7-9.6-29.4-15.4c-5.1-6.4-6.5-12.2-6.5-12.4l3.8-0.9c0,0.1,1.3,5.3,5.9,11
					c6.2,7.6,15.2,12.2,26.8,13.8L666.7,439.3z"/>
			</g>
			<g>
				<path class="st6" d="M692.5,430.2l-1.3-3.7c9.7-3.5,18-9.7,21.3-18.8c2.5-6.9,2.7-13.1,2.7-13.1l1.8-0.1c0,0.3,0.4,6.7-2.3,14.3
					C712,415.8,706.1,425.3,692.5,430.2z"/>
			</g>
			<g>
				<path class="st6" d="M769.8,480.9c-2,0-4.8-0.2-6.8-0.3l1.4-5.8c12.1,0.6,23-0.7,32.5-3.8c7.5-2.5,14.2-6.2,19.7-11
					c4.9-4.3,8.1-8.6,9.9-11.5c1.9-3.2,2.7-5.3,2.7-5.4l3.7,1.3c-0.1,0.4-3.4,9.6-13.6,18.4c-5.9,5.2-13,9.2-21.1,11.9
					C789.9,477.4,780,480.9,769.8,480.9z"/>
			</g>
		</g>
		<path class="st8" d="M453.6,439.3c0,0,13.6,10.5,32.8,7.5c19.2-3,33.1-9.6,51.1-3.2c18,6.4,59,10.2,90.5-2.6
			c31.6-12.8,63.8-23.3,98.6-12.2c34.8,11.1,53.5,18.9,79.2,10.4c25.8-8.4,40.3,18.1,69.7,4.3c29.5-13.8,10.1-34.7-12.8-39
			c-22.8-4.3-58.2-32.2-99.5-25.7c-41.2,6.4-78.9-11.2-118.3-2.7c-39.4,8.5-60.1,21.4-100.1,18.2C505,391.2,423.5,415.5,453.6,439.3
			z"/>
		<path class="st8" d="M608.6,377.8c0,0-24.3,2.5-38.1,7.5c-13.8,5-45.4,2-33.4-13.5c12-15.5,21-25.5,47.9-22.5
			c26.9,3,53.8,6,61.4,13C653.9,369.4,619.2,379.3,608.6,377.8z"/>
		<path class="st8" d="M667.8,355.6c10.2-2.3,27.4,7.3,44.4,15.4c16.9,8.1,52,2.4,37.9-21.2c-14.1-23.6-24.8-38.9-58.5-35.7
			c-33.7,3.2-67.5,6.4-77.4,16.4C604.3,340.6,640.1,362,667.8,355.6z"/>
	</g>
	<path style="clip-path:url(#SVGID_00000078006351587337110800000002522541336426021761_);fill:#C6838B;" d="M598.9,641.2
		c0,0,7.4-22.2,31.3-23.1c23.9-0.9,24.3,12.2,39.9,9.1c15.6-3,23.9-5.6,35.2,0.4s49.1,5.4,49.4,11C755,644.2,590,648.9,598.9,641.2z
		"/>
	
		<ellipse style="clip-path:url(#SVGID_00000078006351587337110800000002522541336426021761_);fill:#C6838B;" cx="389.9" cy="730.6" rx="100.7" ry="12.3"/>
	
		<ellipse transform="matrix(0.9992 -4.011748e-02 4.011748e-02 0.9992 -26.9339 28.6075)" style="clip-path:url(#SVGID_00000078006351587337110800000002522541336426021761_);fill:#C6838B;" cx="699.3" cy="685.4" rx="116.6" ry="14.2"/>
	<g style="clip-path:url(#SVGID_00000078006351587337110800000002522541336426021761_);">
		<path class="st9" d="M722.7,597.8c-1.4,3.4-3.1,9.4-1.6,16.2c1.3,6.1,4.7,10.3,8.1,14.6c2.8,3.5,4.2,5.3,6.3,6.7
			c2.9,1.8,4.5,3,7.6,5.4c0.4,0.3,1.1,0.9,1.4,1.9c0.4,1.5-0.5,3-1,3.6c-1.5,2.4-2.1,5.3-3.5,7.8c-1.5,2.7-3,7.3-2.7,16.2
			c-2.9,0.3-5.1,1.2-6.5,1.9c-0.7,0.3-5.2,2.7-6.7,6.3c-0.4,1.1-0.4,1.8-0.3,2.4c0.2,1.3,1.2,2.2,1.6,2.5c3.6,3.2,11,1.9,11.7,1.7
			c2.5-0.5,4.3-0.8,6-2.2c2.5-2,3-4.7,4-8.1c0.6-2.2,2.3-8.2,4.6-12.8c2.8-5.5,6.6-9.4,12-14.9c1.6-1.6,2.9-2.8,3.8-3.6
			c-0.6-1.1-1.3-2.7-1.9-4.6c-1.5-4.8-1.4-8.8-1.3-10.9c0.2-4.2,1.1-7.7,2.1-10.3c-3.8-6.4-7.6-12.9-11.4-19.3
			C744.3,598,733.5,597.9,722.7,597.8z"/>
		<g>
			<path class="st9" d="M847.1,597.5c-8.6,1.1-16.2-1.3-18.4-2.1c-7.2-2.6-10.9-6.5-22.8-19.4l-0.8-0.8
				c-7.2-7.8-14.5-15.7-21.8-23.4l6.3-5.9c7.2,7.7,14.6,15.6,21.8,23.4l0.8,0.8c11.9,12.8,14.3,15.3,19.4,17.1
				c1.6,0.6,16.2,5.4,25.9-3.5c7.6-7.1,7-17.9,6.8-20l8.6-0.8c0.3,2.8,1,17.3-9.6,27.1C858.3,594.8,852.5,596.8,847.1,597.5z"/>
		</g>
		<g>
			<path class="st10" d="M875.5,545.9c0.7,1.3,3.8,7.5,1.6,13c-2.2,5.6-9.2,8.8-12.6,6.5c-1.1-0.7-1.6-1.9-2-2.9
				c-0.5-1.6-1.2-4.1-1-7c0.3-5.2,2.8-8.4,3.9-9.6c-0.3,3.3-0.5,6.5-0.8,9.8l0,0c0.6-1.8,1.2-4,1.5-6.6c0.7-5.5,0.1-10.4-0.7-13.9
				c0,0,0,0,0,0c1.1,0.6,5.4,3.2,7.9,8.4c2.8,5.8,1.4,10.6,1.1,11.6c0.4-0.8,0.9-2,1.2-3.4C876.1,549.4,875.8,547.3,875.5,545.9z"/>
		</g>
		<path class="st11" d="M643.2,520.5c12.7-0.1,22.3,2.2,28.8,4.4c9.7,3.3,12.6,6.3,22.9,8.4c7.7,1.6,13.9,1.5,22,1.4
			c10.7-0.2,13-1.3,24.1-1.9c14-0.8,21-1.2,27.5,0.6c3.1,0.9,19.9,6,28.3,22.8c1.4,2.7,7.7,15.3,3.7,28.1c-2.1,6.7-5.4,8.3-7,17.1
			c-0.6,3.2-1.6,9.1,0.2,16c1.5,5.6,5,12.6,5.7,13.9c1,1.9,1.7,4,2.7,5.9c1,2,1.8,3.2,1.6,4.8c-0.1,1.4-0.8,2.4-1.5,3.4
			c-0.2,0.3-1.3,2.7-3.5,7.5c-1.6,3.4-4,8.9-4.9,15.5c-0.4,3.7-0.7,5.5-0.3,7.2c0.3,1.3,0.8,2.7,0.3,4.3c-0.4,1.4-1.3,2.3-1.8,2.7
			c-2.2,2.1-5.1,2.4-7.3,2.6c-8.8,0.8-13.2,1.2-14.3-0.4c-1.7-2.6,0.9-7.1,2.5-9.2c2.8-3.5,6.6-4.6,7.9-4.9
			c-0.1-4.3,0.1-9.6,1.3-15.5c0.7-3.8,1.7-7.1,2.7-10c-6-3.7-10.8-7.2-14.3-9.8c-8.6-6.6-11.8-10.6-12.7-11.7
			c-4.8-6-6-10.2-6.3-11.4c-1-3.7-1-7-0.8-9.2c-9.8-1.9-17.9-1.6-23.4-1.1c-5.8,0.6-10.2,1.6-11.2,1.9c-7.8,2-10.4,4-16.2,5.7
			c-4,1.2-10.1,2.4-18.2,1.9c0.3,4.4,0.4,11.1-1,19.2c-1.2,6.6-2,6.2-5.7,20.3c-3.4,13-5.1,19.4-5.1,21.1c0.1,2.3,0.5,6.2-1.9,8.7
			c-1.1,1.1-3.3,2.5-5.4,3.3c-0.3,0.1-1.2,0.5-2.4,0.8c-2.5,0.7-11.8,3.1-14.1-0.3c-1.5-2.3,0.4-6.4,2.5-8.7c3.7-4,9.2-3.3,9.8-3.2
			c1-5.1,2.1-12.6,2.7-21.9c0.4-6.5,0.6-9.8,0-13.9c-0.7-4.8-2.8-13.1-10.6-22.5c-3.2-0.4-6.6-1.3-10-2.9
			c-16.8-7.9-21.1-27.6-21.9-31.2C626.9,560.6,635,540.6,643.2,520.5z"/>
		<path class="st9" d="M630.9,592.6c0.2,12.5,1.8,22.3,3.2,29.1c1.1,5.4,1.7,6.7,2.5,12c2.1,13.3,1.1,22.7,0.8,25.3
			c-0.5,4.8-1.4,8.8-2.1,11.6c-1.3,0.1-3.9,0.5-6.1,2.4c-1.4,1.2-2.2,2.6-2.7,3.7c-1.2,2.2-1.6,4.3-1.8,5.6c3.9,1.3,7.3,1.5,9.4,1.5
			c3.8-0.1,7.3-0.1,9.4-2.5c0.9-1.1,1.3-2.7,2.1-5.8c0.7-3,1-5.3,1.1-5.6c0.8-6.4,3.6-11.1,6.2-20c1.3-4.4,1.9-7.5,3-13.7
			c1.3-7.4,2.1-14.4,2.5-20.7C649.2,608,640.1,600.3,630.9,592.6z"/>
		<g>
			<g>
				<g>
					<g>
						<g>
							<g>
								<path class="st12" d="M545.4,558.5c-0.1,0-0.2,0-0.2-0.1c-2.5-2.6-4.5-5.4-5.9-8.3l-0.1-0.2l17.3-5.9l10.1,6.2l-6.2,1.9
									c-0.1,0-0.2,0-0.2,0c-0.3,0-0.5-0.1-0.7-0.4l-1.6-2.5l-2,3c-0.2,0.2-0.4,0.3-0.7,0.3c-0.3,0-0.6-0.1-0.7-0.4l-1.7-2.9
									l-1.9,3.5c-0.1,0.3-0.4,0.4-0.7,0.4c-0.3,0-0.5-0.1-0.6-0.3l-2.9-3.7c-0.7,3.1-1,6.1-0.8,9c0,0.1,0,0.2-0.1,0.2
									C545.6,558.5,545.5,558.5,545.4,558.5z"/>
								<path d="M556.5,544.2l9.7,6l-5.9,1.8c-0.1,0-0.1,0-0.2,0c-0.2,0-0.4-0.1-0.6-0.3l-1.7-2.7l-2.2,3.1
									c-0.1,0.2-0.3,0.3-0.5,0.3c-0.2,0-0.4-0.1-0.6-0.3l-1.9-3.2l-2,3.8c-0.1,0.2-0.4,0.3-0.6,0.3c-0.2,0-0.4-0.1-0.5-0.3
									l-3.1-3.9c-0.8,3.2-1.1,6.3-0.9,9.4c0,0.1-0.1,0.2-0.2,0.2c0,0-0.1,0-0.1,0c-2.5-2.5-4.5-5.2-5.9-8.3L556.5,544.2
									 M556.5,543.8l-0.1,0l-17,5.9l-0.3,0.1l0.1,0.3c1.4,3,3.4,5.8,6,8.4c0.1,0.1,0.2,0.1,0.3,0.1c0.1,0,0.2-0.1,0.3-0.1
									c0.1-0.1,0.1-0.2,0.1-0.3c-0.2-2.8,0.1-5.7,0.8-8.7l2.7,3.4c0.2,0.2,0.5,0.4,0.8,0.4c0.4,0,0.7-0.2,0.8-0.5l1.8-3.3l1.6,2.7
									c0.2,0.3,0.5,0.5,0.8,0.5c0.3,0,0.6-0.2,0.8-0.4l1.9-2.8l1.5,2.3c0.2,0.3,0.5,0.5,0.8,0.5c0.1,0,0.2,0,0.3,0l5.9-1.8
									l0.6-0.2l-0.6-0.4l-9.7-6L556.5,543.8L556.5,543.8z"/>
							</g>
						</g>
						<g>
							<g>
								<path class="st12" d="M566.6,579.8c-2.7-2.8-4.7-5.4-6.1-8c-0.1-0.1-0.1-0.2,0-0.3c0.1-0.1,0.2-0.2,0.3-0.2c0,0,0.1,0,0.1,0
									c2.6,0.9,5.5,1.5,8.7,1.9l-2.6-3.8c-0.2-0.2-0.2-0.5-0.1-0.8c0.1-0.3,0.3-0.4,0.6-0.5l3.9-0.8l-2.3-2.5
									c-0.2-0.2-0.3-0.5-0.2-0.8c0.1-0.3,0.3-0.5,0.5-0.6l3.4-1.1l-2-2.3c-0.2-0.3-0.3-0.7-0.1-1l3.6-5.4l2.9,11.5l-10.8,14.7
									L566.6,579.8z"/>
								<path d="M574.5,554.1l2.8,11.1l-10.7,14.5c-2.5-2.6-4.6-5.2-6.1-8c-0.1-0.1,0-0.3,0.2-0.3c0,0,0,0,0.1,0
									c2.8,1,5.9,1.6,9.1,1.9l-2.8-4.1c-0.3-0.4-0.1-0.9,0.4-1l4.2-0.8l-2.5-2.7c-0.3-0.4-0.2-0.9,0.3-1.1l3.6-1.1l-2.1-2.4
									c-0.2-0.2-0.2-0.6,0-0.8L574.5,554.1 M574.7,553.4l-0.4,0.6l-3.5,5.1c-0.2,0.4-0.2,0.8,0.1,1.2l1.8,2.1l-3.2,1
									c-0.3,0.1-0.6,0.3-0.6,0.7c-0.1,0.3,0,0.7,0.2,0.9l2.1,2.3l-3.7,0.7c-0.3,0.1-0.6,0.3-0.7,0.6s-0.1,0.6,0.1,0.9l2.5,3.5
									c-3.1-0.4-5.9-1-8.4-1.8c-0.1,0-0.1,0-0.2,0c-0.2,0-0.3,0.1-0.4,0.2c-0.1,0.2-0.1,0.3,0,0.5c1.4,2.6,3.4,5.3,6.1,8.1
									l0.2,0.3l0.2-0.3l10.7-14.5l0.1-0.1l0-0.1l-2.8-11.1L574.7,553.4L574.7,553.4z"/>
							</g>
						</g>
					</g>
					<path class="st13" d="M573,555.3c0,0,4.3,12.5-4.8,20.4c0,0,10.6-1.5,11.4-7.4C580.4,562.4,573,555.3,573,555.3z"/>
					<path class="st11" d="M605.3,539.7l-7.9,13.9c0,0-7.4,3.9-12.6,17.4c-0.1,0.3-0.2,0.5-0.3,0.8c-5.2,14.2-15.3,11.5-17.1,10.7
						c-1.8-0.8-2.9-1.1-0.7-6.4c2.2-5.3,17.5-3.1,5.8-18.3c-4.6-5.9-10.8-8.1-16.7-8.5c-6.3,2.1-10.2,1.8-14.5,1.7
						c-2,0.6-4.2-0.3-5.3-2.1c-0.5-1-1-1.9-1.4-2.9c-1.1-2.6-1.7-4.9-2-6.5c-0.3-1.3,0.2-2.6,1.3-3.4c2-1.5,4.5-2.7,7.2-3.5
						c6.8-2.2,14.3-2.5,14.3-2.5c0.5-0.4,1-0.8,1.5-1.2c8.3-7.2,9.6-19.6,9.6-19.6l26.5-7L605.3,539.7z"/>
					<path class="st14" d="M584.9,571.1c-4.6,14.3-15.3,12.7-17.4,11.5c-1.8-0.8-2.9-1.1-0.7-6.4c2.2-5.3,17.5-3.1,5.8-18.3
						c-4.6-5.9-10.8-8.1-16.7-8.5c-6.3,2.1-10.2,1.8-14.5,1.7c-2,0.6-4.2-0.3-5.3-2.1c-0.8-1.3-1.5-3-2.1-4.7
						c5.8-2.7,27.7-11.6,40.2,1.3C580.7,553.5,585.6,562.5,584.9,571.1z"/>
					<path class="st13" d="M555.8,549.5c4,0.5,7.9,1.7,11.1,3.9c1.6,1.1,3.1,2.4,4.4,3.9c1.2,1.5,2.4,3.2,3.4,4.9
						c0.5,0.9,0.9,1.7,1.2,2.6c0.3,0.9,0.5,1.8,0.3,2.7c0,0.4-0.2,0.9-0.4,1.3c-0.2,0.4-0.5,0.8-0.8,1.1c-0.6,0.6-1.5,1.2-2.3,1.6
						c-0.9,0.5-1.8,0.9-2.7,1.4c-0.9,0.5-1.8,1-2.6,1.7c-0.4,0.4-0.7,0.8-0.9,1.3c-0.2,0.5-0.3,1-0.5,1.4c-0.3,1-0.6,2-0.6,3
						c0.1-1,0.5-1.9,0.9-2.9c0.2-0.4,0.4-0.9,0.6-1.3c0.2-0.4,0.5-0.8,0.9-1.1c1.5-1.2,3.4-1.8,5.3-2.7c0.9-0.5,1.8-1,2.6-1.7
						c0.4-0.4,0.7-0.8,1-1.3c0.3-0.5,0.5-1.1,0.5-1.6c0.1-1.1-0.1-2.2-0.4-3.2c-0.3-1-0.8-1.9-1.3-2.8c-1-1.8-2.2-3.4-3.6-5
						c-1.3-1.6-3-2.9-4.7-4c-3.5-2.2-7.6-3.2-11.6-3.4L555.8,549.5z"/>
					<path class="st15" d="M537.3,544.4c0,0,1.2-2.1,3.3-4.7l-3.5-3.1l-3.4,4L537.3,544.4z"/>
					<path class="st13" d="M532.6,539.6c0.3,1.6,1,4,2,6.5c1.1-0.6,2.1-1.3,2.9-1.9c0.6-0.5,0.9-1.3,0.8-2c-0.2-1.1-1.2-0.9-2.4-1.3
						c-1.7-0.5-1.3-2,1.1-2.5c1.3-0.2,1.8,0.2,1.8,2.7c0,0.6,1.1,0.4,1.2-0.1c1-2.8,1.7-5.1,1-8.4c-2.7,0.9-5.2,2-7.2,3.5
						C532.8,537,532.3,538.3,532.6,539.6z"/>
					<path class="st16" d="M571.1,526.2c-0.8,0.5-1.8,0.4-2.5-0.1c-0.3-0.2-0.6-0.5-0.8-0.8c-0.3-0.6-0.4-1.2-0.3-1.8
						c0.1-0.3,0.2-0.5,0.4-0.8c0,0,0,0,0,0c0.2,0,0.5,0,0.7,0c0.1,0,0.2,0,0.3,0c0.6-0.1,1.2-0.3,1.8-0.6c0.1,0,0.1-0.1,0.2-0.1
						c0.3,0.1,0.6,0.4,0.9,0.7c0.1,0.1,0.1,0.2,0.2,0.3C572.6,524.1,572.3,525.5,571.1,526.2z"/>
					<path d="M568.6,526.2c-0.3-0.2-0.6-0.5-0.8-0.8c-0.3-0.6-0.4-1.2-0.3-1.8c0.1-0.3,0.2-0.5,0.4-0.8c0,0,0,0,0,0
						c0.2,0,0.5,0,0.7,0c0.1,0,0.2,0,0.3,0c0,0,0.1,0.1,0.1,0.1c0.1,0.1,0.1,0.2,0.2,0.3C569.8,524.1,569.5,525.4,568.6,526.2z"/>
					<path d="M574.9,519.7c-0.5,0.7-1.1,1.3-1.7,1.8c-0.4,0.4-0.9,0.8-1.4,1.1c-0.2,0.1-0.4,0.2-0.6,0.4c-0.4,0.2-0.8,0.4-1.2,0.5
						s-0.9,0.3-1.3,0.3c-0.4,0-0.8-0.1-1.1-0.3c-0.1-0.1-0.2-0.1-0.3-0.2c-0.4-0.3-0.6-0.8-0.6-1.2c0.3,0.3,0.6,0.5,1,0.6
						c0.1,0,0.2,0,0.2,0.1c0,0,0,0,0,0c0.2,0,0.5,0,0.7,0c0.7-0.1,1.4-0.3,2.1-0.7c0.1,0,0.1-0.1,0.2-0.1c0.6-0.3,1.3-0.7,1.9-1
						L574.9,519.7z"/>
				</g>
			</g>
			<path class="st17" d="M666.4,515.8c1.4-0.4,3.8-0.8,6.8-0.4c3.2,0.5,5.5,1.7,6.8,2.5c-0.2-1.1-1.7-6.9-7.4-10.3
				c-4.7-2.9-9.4-2.3-10.8-2.1c3.7-0.7,7.3-1.4,11-2.1c-3.5,0.3-7.8,0.4-12.7-0.4c-12.2-2.1-20.6-8.4-24.7-12
				c5.3-0.3,10.7-0.6,16-0.8c-5.8-1.8-13.7-3.6-23.2-4c-4.7-0.2-9.1,0-13,0.5c-10.7-0.9-19.2,1.6-19.2,1.6c1.2-5.1,3.8-7.6,3.8-7.6
				c-14.6,3.1-22.9,9.5-27.5,15.6l0,0c-11.9,5.5-5.8,13.3-5.8,13.3s12.8-0.9,17.5,6.8c4.7,7.7-2.8,14.1,1.5,21.2
				c2.7,4.4,5,2.4,7.6,7.6c1.6,3.2,1.8,6.4,1.8,9.5c-15.5,15.9-11.5,33.6-3,40.4c6.7,5.3,7.7,11,7.8,13.5c-0.6,1.5-1.2,2.8-1.9,4
				c4.2-3.2,8.3-6.3,12.5-9.5c1.4,5.9,3.9,9.3,5.9,11.4c2.3,2.4,4.7,3.6,7.6,7.4c1.5,1.9,2.6,3.8,3.4,5.5c2.6-2.1,6.8-6,9.9-12
				c4.2-8.1,4.4-15.6,4.2-19.2c0.9,0.3,2,0.7,3.4,0.8c3,0.4,5.4-0.3,6.8-0.8c-0.7-1.4-2-3.9-4.6-6.1c-2.5-2.2-5.1-3.1-6.5-3.6
				c1.9-0.3,5.3-0.6,9.3,0.4c3.9,1,6.7,2.8,8.2,4c-0.1-1.8-0.3-4.1-1.1-6.5c-1.5-5.1-4.1-8.7-5.9-10.8c2.2,1,4.8,1.9,7.6,2.7
				c1.2,0.3,2.3,0.6,3.4,0.8c0.4-1.1,2.4-7.2-0.8-13.5c-2.4-4.6-6.2-6.7-7.6-7.4c2.6,0,8.3,0.3,13.9,4c3,1.9,5,4.2,6.3,5.9
				c0.6-4.4,1-11.5-1.1-19.8c-1.8-7.5-4.9-13.1-7.2-16.7c1.7-0.3,4.3-0.5,7.4,0.2c2.1,0.5,3.8,1.2,5.1,1.9c0.3-1,1.3-4.9-0.6-8.9
				C675.2,518.6,671.1,516,666.4,515.8z"/>
		</g>
		<path class="st18" d="M591.4,517.3c-2.1-2.5-2.3-6.1-0.5-8.8c3.9-5.9,8.5-8.9,11.3-7.9c4.2,1.5,6.5,12.6,1.3,18.3
			c0,0-0.1,0.1-0.1,0.1c-2.9,3.1-8,2.9-10.8-0.3L591.4,517.3z"/>
		<path class="st14" d="M592.8,516.9c-1.3-1.2-1.7-3-1.1-4.6c0.9-2.6,2.6-5.9,6-7.7c1-0.5,2.8-1.6,4.3-0.9c2.2,1,2.4,5.3,1.7,8
			c-0.8,3-2.9,5-4.7,6.3c-1.7,1.1-3.9,1-5.4-0.4L592.8,516.9z"/>
	</g>
	<g style="clip-path:url(#SVGID_00000078006351587337110800000002522541336426021761_);">
		<g>
			<path class="st19" d="M440.5,596.8c-0.2-0.2-7.4,6.2-7.4,6.2c0.3,0.3,0.6,0.7,0.9,1.1c0.4,0.5,0.8,1.1,1,1.5l0,0
				c0.2,0.3,0.3,0.5,0.4,0.6c0.8,0.9,2,3.7,3.4,5.2s3.7,4.2,5,5c1.2,0.8,3,0.4,3.2-0.6c0-0.1,0.1-0.1,0.1-0.1
				c0.4,0.4,1.4,1.3,2.6,0.4c0.4-0.3,0.5-0.6,0.6-1c0.1-0.4,0.5-0.6,0.8-0.4c0.5,0.3,1.3,0.5,2.1,0c0.9-0.6,1-1.5,0.9-2.2
				c0.3,0.1,0.7,0.2,1.2,0c0.3-0.1,0.5-0.3,0.7-0.5c0.8-0.8,0.7-2,0.1-3.3c-0.2-0.5-0.5-1.1-0.9-1.6c0.1,0,0.2,0,0.2,0
				c0.1,0,0.2,0,0.3,0c1.6,0.2,2.5-1.8,1.2-2.8c-2-1.7-5.1-3.5-6.4-4c-1.5-0.5-3.6-0.3-4.6-0.5c-0.1,0-0.2,0-0.3-0.1c0,0,0,0,0,0
				c-0.3-0.1-0.6-0.2-0.9-0.4c-0.1,0-0.1-0.1-0.2-0.1c-0.6-0.3-1.3-0.7-1.9-1.1C441.7,597.8,440.9,597.2,440.5,596.8z"/>
			<path class="st20" d="M442.5,598.3c-0.2-0.1-0.4-0.2-0.5-0.4c-0.7-0.5-1.3-1.1-1.8-1.6c-3.2,0.5-4.3,6.3-6.1,7.7
				c0.1,0.2,0.9,1.3,1,1.5c0,0,0,0,0,0c1.7-1,4.3-2.7,6.3-5.5C441.6,599.7,442,599.1,442.5,598.3z"/>
			<g>
				<g>
					<path class="st20" d="M443.4,614.9C443.4,614.9,443.4,615,443.4,614.9c0.1,0,0.1,0,0.1,0c0.1,0,0.2-0.1,0.1-0.2
						c0-0.1-0.1-0.6,0.2-1c0.2-0.2,0.5-0.5,1.2-0.4c0.1,0,0.7,0.1,1,0.4c0.1,0.1,0.1,0.1,0.3,0.6c0.4,0.8,0.5,1.2,0.6,1.2
						c0,0,0,0,0-0.2c-0.1-0.5-0.2-0.8-0.3-0.8c-0.1-0.1-0.2-0.4-0.4-1.1c-0.3-0.7-0.4-1.1-0.3-1.4c0.1-0.4,0.3-0.7,0.6-0.9
						c0.5-0.3,1.3-0.1,1.8,0.6c0,0,0,0,0.1,0c1.1,1.1,2,2.6,2.1,2.5c0,0,0-0.1-0.2-0.5c-0.7-1.3-1.2-1.6-1.6-2.5
						c-0.1-0.3-0.3-0.9-0.1-1.4c0-0.1,0.2-0.5,0.6-0.7c0.3-0.1,0.8,0,1.2,0.3c0.1,0.1,0.1,0.1,0.1,0.1c0.3,0.3,1,0.9,2.7,2.1
						c-1.6-1.6-2.2-2.2-2.5-2.4c0,0-0.1-0.1-0.1-0.1c-0.3-0.3-0.5-0.6-0.5-1c0-0.4,0.1-0.8,0.3-1c0.4-0.4,1.2-0.5,1.8-0.2
						c0.1,0,0.2,0,0.2-0.1c0-0.1,0-0.2-0.1-0.2c-0.7-0.4-1.7-0.3-2.2,0.3c-0.3,0.3-0.5,0.8-0.4,1.3c0,0.2,0.1,0.4,0.2,0.6
						c-0.3-0.1-0.6-0.1-0.9,0c-0.4,0.1-0.7,0.4-0.9,0.9c-0.2,0.4-0.2,0.7-0.1,1.1c-0.5-0.4-1.2-0.5-1.8-0.2
						c-0.4,0.2-0.7,0.6-0.8,1.1c-0.1,0.4-0.1,0.7,0.1,1.1c-0.2-0.1-0.4-0.1-0.6-0.2c-0.2,0-1,0-1.5,0.6
						C443.1,614.1,443.3,614.9,443.4,614.9z"/>
				</g>
				<g>
					<path class="st20" d="M444.2,607.9C444.2,607.9,444.3,607.9,444.2,607.9c0.2,0,0.3,0,0.3-0.1c0.1-0.5,0.1-0.9,0-1.4
						c-0.1-0.3-0.1-0.5-0.2-0.7c0.4,0.2,0.9,0.4,1.5,0.6c0.9,0.2,1.9,0.3,2.8,0.1c0.1,0,0.2-0.1,0.1-0.2c0-0.1-0.1-0.2-0.2-0.1
						c-0.9,0.2-1.8,0.1-2.7-0.1c-0.8-0.2-1.5-0.5-2-0.9c-0.4-0.6-1-1-1.3-1.1c-0.1,0-0.2,0-0.2,0c-0.1,0.1-0.1,0.2,0,0.2
						c0.3,0.3,0.7,0.7,1.2,1.1c0.2,0.3,0.4,0.7,0.5,1.2c0.1,0.4,0.1,0.8,0,1.3C444.1,607.8,444.2,607.8,444.2,607.9z"/>
				</g>
			</g>
		</g>
		<g>
			<g>
				<path class="st19" d="M344.2,718.5c0,0-7.4-2.6-12.5-6.6c-5.1-4.1-4.4-5.7-3.4-7c0.6-0.7,3-3.8,5-6c1.7-1.9,3.4-3.3,3.4-3.3
					l10.2,1.2c-3.2,3.7-4.9,7.1-4.9,9.9c0,0.4,0,0.8,0.1,1.1C342.8,710.7,344.2,718.5,344.2,718.5z"/>
				<path class="st20" d="M342.1,706.6c-1.3-1-2.5-2-3.8-3.2c-1.8-1.5-3.4-3.1-4.9-4.5c1.8-1.7,3.4-3.3,3.4-3.3l10.2,1.2
					C343.7,700.5,342.1,703.8,342.1,706.6z"/>
				<path d="M343.1,712.7c4.8,7.1,9.9,15.7,8,17.4c-0.4,0.4-1.2,0.4-3.3-0.3c-6.4-2.2-8.4-5.5-14.5-10c-5.9-4.4-8.8-5.3-9.5-8.3
					c-0.3-1.5,0.3-3.3,1.6-4.5c2.6-2.4,4.7-5.5,5.3-5c0.4,0.3-0.4,1.3-0.4,2.8c-0.1,4.9,7.3,10.7,11.3,9.1
					C342.3,713.5,342.8,713.1,343.1,712.7z"/>
			</g>
			<g>
				<path class="st19" d="M411.6,725.9c0,0-7.8,1.1-14.1-0.3c-6.4-1.3-6.5-3-6.2-4.7c0.2-0.9,0.9-4.7,1.8-7.6
					c0.7-2.4,1.5-4.5,1.5-4.5l9.7-3.6c-1.2,4.8-1.2,8.5,0.1,11c0.2,0.3,0.4,0.7,0.6,0.9C406.8,719.6,411.6,725.9,411.6,725.9z"/>
				<path class="st20" d="M404.3,716.2c-1.7-0.3-3.4-0.7-5.1-1.2c-2.2-0.5-4.2-1.1-6.2-1.7c0.9-2.4,1.5-4.5,1.5-4.5l9.7-3.6
					C403,710,403,713.8,404.3,716.2z"/>
				<path d="M408,721.2c7.5,4.2,15.9,9.5,15,11.8c-0.2,0.5-0.9,0.9-3.1,1.2c-6.7,1-10-1.1-17.5-2.4c-7.3-1.2-10.3-0.7-12.2-3.1
					c-1-1.2-1.2-3.1-0.6-4.8c1.2-3.3,1.7-7,2.5-6.9c0.5,0.1,0.3,1.3,0.9,2.7c2.1,4.4,11.4,6.3,14.2,3
					C407.7,722.3,407.9,721.7,408,721.2z"/>
			</g>
			<g>
				<path class="st21" d="M399.3,602.3c-0.2,0.5-0.3,0.9-0.5,1.4c-0.1,0.2-0.2,0.5-0.2,0.8c-0.8,2.3-1.5,4.7-2.3,7.1
					c-1.2,3.9-2.3,7.8-3.3,12c-0.5,2.1-1,4.3-1.5,6.3c0,0-0.5,2.1-0.9,4.3c-0.8,3.7-1.9,9.4-2.9,15c-1.5,8-2.9,15.7-3.1,16.8
					c-13,13.9-25.9,27.8-38.9,41.7c-5-4-10-8.1-15-12.1c9.6-13.2,19.1-26.4,28.7-39.6c0.4-11.7,0.9-23.3,1.3-35
					c0.1-4.1,0.3-8.2,0.4-12.2l0,0c0-0.6,0-1.2,0.1-1.8c0.2,0.1,0.4,0.1,0.6,0.2c3.4,1,8.8,2.1,15.3,1.8c0.9,0,1.9-0.1,2.9-0.2
					c6.3-0.7,11.5-2.6,15.2-4.3c0.6-0.3,1.2-0.6,1.8-0.9h0C397.9,603.1,398.6,602.7,399.3,602.3z"/>
				<g>
					<path class="st21" d="M440.1,600c-3.4,4.7-7.7,7.1-10.3,8.2c-0.7,0.3-1.3,0.5-1.7,0.7c-1.4-1.4-2.7-2.8-4.1-4.3
						c-14.3-15-28.6-30-42.9-44.9c0.5-9.7,0.8-19.8,0.9-30.2c0.1-11.6,0-22.9-0.4-33.7c9,6.5,17.3,13.2,26.3,19.7
						c-1.4,5.5-2.1,11.3-3.3,17.5c-1.3,6.6-2.3,12.9-3.1,18.9c12.8,10.9,25.5,21.9,38.3,32.9c1.6,1.3,3.1,2.7,4.7,4
						c0,0.4-0.1,0.8-0.2,1.3C443.8,592.4,442.8,596.2,440.1,600z"/>
					<path class="st22" d="M383.1,558.5c15.5,16.5,31.1,33.1,46.6,49.6c-0.7,0.3-1.3,0.5-1.7,0.7c-15.7-16.4-31.3-32.8-47-49.2
						c0-42.6,0.2-63.9,0.5-63.9C381.9,495.7,382.4,516.6,383.1,558.5z"/>
					<path class="st22" d="M398.7,552.9c6.1-25.1,9.2-37.2,9.6-37.1c0.4,0.1-1.7,11.9-6.8,36.1c14.3,12.3,28.6,24.6,42.9,36.9
						c0,0.4-0.1,0.8-0.2,1.3c-7-6.1-14.3-12.3-21.9-18.6C414.3,564.9,406.4,558.7,398.7,552.9z"/>
					<path class="st23" d="M440.1,600c-3.4,4.7-7.7,7.1-10.3,8.2c-0.7,0.3-1.3,0.5-1.7,0.7c-1.4-1.4-2.7-2.8-4.1-4.3
						c2.3-1.6,4.9-3.7,7.6-6.5c4.5-4.9,6.9-9.9,8.2-13.3c1.6,1.3,3.1,2.7,4.7,4c0,0.4-0.1,0.8-0.2,1.3
						C443.8,592.4,442.8,596.2,440.1,600z"/>
				</g>
				<path class="st21" d="M422.6,674.4c-4.7,13.9-9.3,27.8-14,41.7c-6.6-1.5-13.1-3.1-19.7-4.6c1.8-12.4,3.7-24.7,5.5-37.1
					c-2.2-8.2-4.4-16.4-6.5-24.6l-0.2-0.6c-1.9-7-2.5-9.2-3.4-12.8c-1.3-5.1-3.1-11.9-5.3-20.2c-0.6-2.3-1.2-4.7-1.9-7.2
					c0-0.1,0-0.2-0.1-0.2c2.2-1.4,6.6-3.8,12.5-4.8c2.1-0.4,4.4-0.6,6.9-0.5c0.2,0,0.4,0,0.6,0h0c0.6,0,1.2,0.1,1.7,0.1
					c1.5,0.2,2.9,0.4,4.2,0.7c1.7,0.4,3.2,0.9,4.5,1.4c0.7,3.2,1.4,6.3,2.1,9.5C413.9,635.1,418.3,654.7,422.6,674.4z"/>
				<path class="st22" d="M409.6,615.4c-3.2-0.6-6.4-1.1-9.6-1.7c-13.1,2.5-26.1,5-39.2,7.4c0.1-4.1,0.3-8.2,0.4-12.2l0,0
					c0.2-0.5,0.4-1.1,0.6-1.6c3.4,1,8.8,2.1,15.3,1.8c0-0.1,0-0.2-0.1-0.2c2.2-1.4,6.6-3.8,12.5-4.8c0,0.2,0,0.3,0,0.5
					c2.3,0,4.2,0,4.2,0s0.6,0,1.5,0c0.9,0,2,0,3.3,0c1.4,0,3,0,4.5,0c1.7,0.4,3.2,0.9,4.5,1.4C408.2,609,408.9,612.2,409.6,615.4z"
					/>
				<path class="st23" d="M381.4,495.3c1.6,0.2,3.4,0.5,5.4,1.1c1.6,0.5,3.1,1,4.4,1.5c-0.2,0.7-0.3,1.4-0.5,2.1c-3-0.5-6-1.1-9-1.6
					C381.6,497.4,381.5,496.3,381.4,495.3z"/>
				<path class="st21" d="M355.7,520.3c0.2,8.7,2,77.4,2.5,99c13.9-2.5,27.8-5,41.7-7.6c4.1,1,8.1,1.9,12.2,2.9
					c-0.7-20.2-1.4-37.9-2.2-57v-0.1c0-11.9-0.3-22.3-0.1-35.7c0.1-3.2-1.2-6.4-3.4-8.7c-3.4-3.5-6.5-6.7-10.2-10.5
					c-2-1.3-5.1-3-9.2-3.8c-2-0.4-3.8-0.5-5.4-0.5c-7.3,4.7-14.6,9.4-21.9,14.1C357.2,514.2,355.7,517.2,355.7,520.3z"/>
				<path class="st24" d="M396.6,506.6c1.4,8.8,2.6,18.5,3.2,29c0.8,13,0.6,24.9-0.1,35.4c0.3,13.6,0.6,27.3,0.8,40.9"/>
				<path class="st24" d="M393.3,523.5c3-0.1,6.1-0.2,9.1-0.2"/>
				<path class="st24" d="M395.7,549.1c3-0.2,5.9-0.4,8.9-0.6"/>
				<path class="st24" d="M394.5,571.8c3.4,0,6.7,0.1,10.1,0.1"/>
				<path class="st24" d="M395.2,604.7c3.4,0,6.7,0,10.1-0.1"/>
				<path class="st23" d="M385.8,493.6c1.4,0.2,4,0.9,6.5,3c4.3,3.6,4.9,8.8,4.9,9.9c-0.2,0-0.5,0-0.7,0.1c-0.2-1.3-1-4.5-3.9-7.4
					c-3.6-3.6-7.9-4-9.1-4.1C384.4,494.6,385.1,494.1,385.8,493.6z"/>
				<g>
					<path class="st25" d="M397.1,512"/>
				</g>
				<g>
					<path class="st26" d="M377.7,491.1c0.4,0.4,1,1,2,1.5c0.3,0.1,0.7,0.4,1.3,0.6c1.1,0.3,2,0.3,2.8,0.2c-0.1-1.2-0.5-3.9-2.5-6.6
						c-1.8-2.5-4-3.8-5.1-4.3C376.7,485.3,377.2,488.2,377.7,491.1z"/>
					<g>
						<path class="st19" d="M396.6,507.1c-0.7-1-1.5-2-2.4-3c-0.8-1-1.6-1.8-2.4-2.7c-0.4-0.3-0.8-0.6-1.2-1c-0.3-0.2-0.7-0.5-1-0.7
							c-1.2-0.8-2.3-1.3-3.4-1.7c-1.4-0.5-2.6-0.8-3.7-1c0.1-0.6,0.2-1.3,0.2-2.1c0-0.3,0-0.7-0.1-1.1l0,0c0-0.1,0-0.1,0-0.2
							c-0.1-0.5-0.1-0.9-0.2-1.3c-0.1-0.2-0.1-0.4-0.2-0.7c3.6,0.7,7.2,1.3,10.8,2c1,0.2,2.1,0.4,3.1,0.6l0,0l0,0
							c0,0.4-0.1,0.9-0.1,1.3c-0.1,1.5-0.2,3-0.3,4.6l0,0.1c0,0.3,0,0.6-0.1,0.9c0,0.7-0.1,1.4-0.1,2c0.2,0.3,0.3,0.7,0.5,1.1
							C396.5,505.4,396.6,506.4,396.6,507.1z"/>
						<path class="st20" d="M396.1,494.4c0,0.4-0.1,0.9-0.1,1.3c-0.1,1.5-0.2,3-0.3,4.6l0,0.1c-0.4,0-1,0-1.4,0
							c-1.3-0.1-2.5-0.3-3.6-0.8c-1.8-0.6-3.2-1.6-4.4-2.5c-0.4-0.3-0.7-0.6-1.4-1.1c-0.9-0.8-1.7-1.5-2.2-2l0,0c0-0.1,0-0.1,0-0.2
							c-0.1-0.5-0.1-0.9-0.2-1.3c-0.1-0.2-0.1-0.4-0.2-0.7c3.6,0.7,7.2,1.3,10.8,2C394,494,395,494.2,396.1,494.4z"/>
						<path class="st19" d="M392.5,447c-15.8-0.4-18.5,10.2-18.6,16.4c-0.1,2.7-0.1,4.7,0.2,7.6c0.3,3.3,0.7,7.6,2.7,12.5
							c1.4,3.6,3.4,8.5,8.3,12.1c2.7,2,4.8,2.9,5.7,3.1c2.2,0.7,3.9,0.7,4.4,0.7c0.9,0,2.1,0,3.2-0.4c2.1-0.8,2.6-2.8,5.1-7.1
							c1.3-2.2,2.7-4.3,3.6-7.4c2.4-8.3,3.1-14.1,3.2-20.2C410.5,458.2,408.3,447.4,392.5,447z"/>
						<path class="st26" d="M395.2,445.8c4.5-0.9,7.6,0.3,8.9,0.9c6.8,3.1,9.1,11.5,8.8,17.1c-0.3,5.1-2.8,9.3-3.2,9.2
							c-0.2-0.1,0.3-1.6-0.1-4.2c-0.2-1.3-0.5-2.3-0.7-2.9c-0.4-1-0.8-1.9-1.2-2.6c-0.6,3.5-1,4.3-1.3,4.3c-0.4,0-0.2-2.1-1.1-4.8
							c-0.9-2.7-2.6-5.3-3.4-5.1c-0.9,0.2-0.5,3.8-1.1,3.8c-0.3,0-0.5-1-1.5-2.2c-0.5-0.6-1.3-1.5-2.1-1.4c-0.9,0.1-1.3,1.3-2.7,4.7
							c-1.6,4-2,4.7-2.4,4.7c-0.4,0-1-0.8-1.6-4.5c-0.6,0.9-1,1.8-2.5,4.2c-0.8,1.3-1.5,2.3-1.7,2.4c-0.4,0-1.4-1.7-2.1-3.8
							c-0.4,0.6-0.8,1.5-1,2.7c-0.2,1.2,0.1,1.5,0.1,2.5c-0.1,1.9-1.3,2.3-2.4,4.9c-1.1,2.5-0.8,3.8-1.4,4c-1,0.3-2.6-2.5-3.3-3.7
							c3,11.4,3.3,15,2.5,15.3c-1,0.4-4.4-4.6-6.3-9.6c-0.1-0.1-0.2-0.6-0.4-1.1c-1.3-3.8-4.5-14.8,0.7-24.8c1.6-3,3.4-4.9,4.3-5.8
							c1.8-1.8,5.5-5.4,11-5.8C389,444.1,391.8,444.2,395.2,445.8z"/>
					</g>
					<path class="st24" d="M378.6,504.1"/>
					<g>
						<g>
							<path d="M385.5,473.6c2.3-2.4,6.7-2.4,8.7,0.5c0,0-0.8,0.6-0.8,0.6C391.4,472.1,388.3,472.1,385.5,473.6L385.5,473.6z"/>
						</g>
					</g>
					<g>
						<g>
							<path d="M408.4,475.6c-1.6-2.6-5.2-3.1-7.2-0.8c0,0-0.7-0.6-0.7-0.6C402.8,471.4,407.4,472.3,408.4,475.6L408.4,475.6z"/>
						</g>
					</g>
					<path class="st20" d="M391.8,492.5c0.2,0.4,1.6-0.4,4.1-0.1c2.4,0.3,3.6,1.4,3.9,1c0.4-0.5-1.1-3.1-3.4-3.5
						C393.9,489.6,391.5,492,391.8,492.5z"/>
					<g>
						<path class="st20" d="M394.8,486.2c1.3-0.6,2.7-0.6,4,0.1C397.5,486.9,396.1,486.9,394.8,486.2L394.8,486.2z"/>
					</g>
					<g>
						<path d="M401.8,478.5C401.8,478.5,401.8,478.5,401.8,478.5c-0.1-0.1-0.2-0.2-0.3-0.2c0.1-0.2,0.2-0.4,0.4-0.6
							c0,0,0.3-0.3,0.5-0.4c0.3-0.2,0.6-0.2,1.4-0.2c1.1,0,1.2,0,1.4,0.1c0.3,0.2,0.8,0.6,0.7,0.9c0,0.1-0.1,0.2-0.2,0.3
							c-0.4,0.4-0.8,0.4-0.8,0.4c0,0.1,0.5,0.2,1-0.1c0.3-0.2,0.5-0.5,0.6-0.7c0.2,0,0.4,0.1,0.7,0.2c0.4,0.1,0.5,0.2,0.5,0.1
							c0-0.1-0.5-0.5-1.1-0.9c-0.2-0.1-0.6-0.3-1.1-0.5c-0.2-0.1-0.5-0.1-1.4-0.1c-0.4,0-1,0-1.7,0.1c-0.3,0.1-0.7,0.4-1.1,0.8
							c-0.5,0.5-0.8,1-0.8,1.1c0,0,0.2-0.1,0.5-0.2c0.1,0,0.1,0,0.3,0C401.5,478.6,401.8,478.5,401.8,478.5z"/>
						<path d="M405.4,477c0,0.1,0.1,0.3,0.1,0.6c-0.1,0.6-0.5,0.9-0.5,1c-0.4,0.3-0.8,0.2-1,0.2c-0.2,0-0.4-0.1-0.7-0.3
							c-0.1-0.1-0.4-0.3-0.4-0.7c-0.1-0.4,0.1-0.7,0.2-0.8c0.3,0,0.6-0.1,1-0.1C404.5,476.9,404.9,476.9,405.4,477z"/>
					</g>
					<g>
						<path d="M391.9,478.3C391.9,478.3,391.9,478.3,391.9,478.3c0.2-0.1,0.3-0.1,0.4-0.2c-0.1-0.2-0.2-0.4-0.5-0.6
							c0,0-0.3-0.3-0.5-0.5c-0.4-0.2-0.6-0.2-1.6-0.3c-1.3-0.1-1.4-0.2-1.7-0.1c-0.4,0.1-1,0.5-0.9,0.8c0,0.1,0.1,0.2,0.2,0.3
							c0.4,0.4,0.9,0.5,0.9,0.5c0,0.1-0.7,0.1-1.2-0.2c-0.3-0.2-0.5-0.6-0.6-0.7c-0.2,0-0.5,0.1-0.8,0.1c-0.4,0.1-0.6,0.1-0.6,0.1
							c0-0.1,0.7-0.5,1.4-0.7c0.3-0.1,0.7-0.3,1.4-0.3c0.3,0,0.6-0.1,1.7,0c0.5,0,1.2,0.1,2,0.2c0.3,0.2,0.7,0.5,1.2,0.9
							c0.5,0.5,0.9,1.1,0.8,1.1c0,0-0.2-0.1-0.5-0.2c-0.1,0-0.1,0-0.4,0C392.2,478.4,391.9,478.4,391.9,478.3z"/>
						<path d="M388.9,476.5c-0.1,0.1-0.1,0.3-0.2,0.6c0,0.6,0.4,1,0.5,1c0.4,0.3,0.9,0.3,1.1,0.3c0.2,0,0.5,0,0.9-0.2
							c0.2-0.1,0.5-0.3,0.6-0.7c0-0.3-0.2-0.6-0.3-0.7c-0.2-0.2-0.5-0.3-0.9-0.3C390.2,476.6,389.6,476.5,388.9,476.5z"/>
					</g>
					<polyline class="st25" points="382.1,499.5 382.2,499.2 382.2,498.6 382.2,498.3 382.2,498.1 					"/>
					<path class="st19" d="M377.4,472.8c-0.5-1.5-2.7-3-3.7-2.5c-0.9,0.5-1.5,3.2-1.1,4.9c0.2,0.9,0.4,3.5,2.4,5.4
						c1.1,1,3,2.1,3.8,1.5c0.4-0.3,0.5-0.9,0-3.7C378.3,476.2,377.8,474.3,377.4,472.8z"/>
				</g>
				<path class="st23" d="M381.4,495.3c2.7,0.8,7.7,2.6,11.9,7.2c1.5,1.6,2.6,3.3,3.4,4.8c-0.2,0.2-0.3,0.4-0.5,0.6
					c-1.8-2.3-5.7-6.6-11.8-8.2c-1.2-0.3-2.4-0.5-3.5-0.6C381,497.9,381.2,496.6,381.4,495.3z"/>
			</g>
			<g>
				<path class="st21" d="M366.8,537.5c12.3,12.9,24.6,25.8,37,38.8c16.7-8.5,30.2-15.1,47-23.6c1.8-0.9,3.5-1.8,5.3-2.7
					c-0.7-2.7-1.9-6.5-4.5-10.5c-3.3-5.1-7.1-8.2-9.6-9.9c-1.6,1-3.3,2.1-4.9,3.1c-10.6,6.6-21.2,13.3-31.7,19.9
					c-9.3-10.2-18.5-20.3-27.8-30.5C373.8,527.3,370.3,532.4,366.8,537.5z"/>
				<g>
					<g>
						<g>
							<g>
								<path class="st19" d="M467,536.3C467,536.4,467,536.4,467,536.3c-0.1,0.5-0.4,0.9-0.7,1.2c-1.1,1.1-4.3,2.9-6.1,4
									c-1.8,1-4.9,1.7-5.9,2.3c-0.2,0.1-0.8,0.3-1.5,0.6c-0.8,0.3-1.7,0.7-2.3,1.1c0,0-4.9-8.6-4.7-8.7c0.9-0.6,2.1-1.7,3-2.8
									c0.6-0.8,1.1-1.5,1.3-2c0.4-1,0.6-3.1,1.5-4.6c1.1-1.9,2.7-2.8,4.4-3.1l5.3-0.8c1.2-0.2,2.3-0.5,3.2,0.8
									c0.2,0.2,0.3,0.5,0.3,0.8c0,0.3,0,0.6-0.1,0.8c0,0.1-0.1,0.2-0.2,0.3c0.1,0,0.3,0,0.4,0c0.7,0.1,1.3,0.4,1.7,1.3
									c0.3,0.9,0,1.6-0.4,2.1c-0.1,0.1-0.1,0.1-0.1,0.2c0,0.1,0,0.2,0,0.2c0,0.1,0,0.1,0.1,0.2c0.1,0.1,0.1,0.2,0.3,0.3
									c0.4,0.1,0.7,0.3,0.9,0.8c0.6,1.3-0.2,2-0.7,2.4c-0.1,0-0.1,0.1-0.2,0.1c-0.1,0-0.1,0.1,0,0.2c0,0,0.1,0,0.1,0.1
									c0,0,0,0,0,0c0,0,0,0,0,0c0,0,0,0,0.1,0c0,0,0,0,0,0c0,0,0.1,0.1,0.1,0.1c0,0,0.1,0.1,0.1,0.2c0,0,0.1,0.1,0.1,0.2
									c0,0.1,0.1,0.2,0.1,0.2c0,0.1,0,0.2,0.1,0.3c0,0.1,0,0.2,0,0.3C467.1,535.8,467.1,536.1,467,536.3z"/>
								<path class="st20" d="M453.2,544.3c-0.5,0.2-1.1,0.4-1.7,0.7c-0.4,0.2-0.7,0.4-1,0.5c0,0-4.9-8.6-4.7-8.7
									c0.9-0.6,2.1-1.7,3-2.8c0.4,1.7,0.9,3.2,1.3,4.3c0.4,1.1,0.9,2.3,1.7,3.8C452.3,543,452.8,543.8,453.2,544.3z"/>
								<path class="st27" d="M466.5,534.2c-0.2,0.1-0.4,0.1-0.6,0.2c-0.5,0.3-1,0.6-1.5,1c0.1,0.2,0.4,0.2,0.6,0.2
									c0.1,0,0.5-0.3,0.9-0.2c0.4,0.1,0.6,0.7,1,0.9C467.2,535.5,467.1,534.6,466.5,534.2z"/>
								<g>
									<path class="st20" d="M466.5,533.9l-2.1,1.3c-0.1,0.1-0.1,0.2-0.1,0.3c0.1,0.1,0.2,0.1,0.3,0.1l2-1.2
										c-0.1-0.1-0.2-0.1-0.3-0.2c-0.1,0-0.1-0.1,0-0.2C466.4,534,466.5,534,466.5,533.9z"/>
								</g>
								<g>
									<path class="st20" d="M464.7,526l-2.7,1.6c-0.1,0.1-0.1,0.2-0.1,0.3c0.1,0.1,0.2,0.1,0.3,0.1l2.7-1.6c-0.1,0-0.3,0-0.4,0
										C464.6,526.3,464.7,526.2,464.7,526z"/>
								</g>
								<g>
									<path class="st20" d="M466.1,530l-2.2,1.3c-0.1,0.1-0.1,0.2-0.1,0.3s0.2,0.1,0.3,0.1l2-1.2C466,530.3,466,530.1,466.1,530z
										"/>
								</g>
							</g>
						</g>
						<g>
							<path class="st28" d="M459.8,522.5l0.6,1.4c-0.6,0.2-1.2,0.5-1.7,0.7c-1.3,0.6-2.3,1.2-3.6,2l-0.4-1.1l-9-23.4l-4.5-2.1
								l0-2.7l3,0.9l-8.7-22.6c-0.1-0.2-0.1-0.4-0.1-0.6c0-0.5,0.3-0.9,0.8-1.1c0.3-0.1,0.6-0.1,0.8,0c0,0,0.1,0,0.1,0c0,0,0,0,0,0
								c0.2,0.1,0.3,0.2,0.4,0.3c0,0,0,0,0.1,0.1c0.1,0.1,0.1,0.2,0.2,0.3l14.1,31.1l0,0l1.5,3.3c0,0,0,0,0,0l1.7,3.8l0.2-0.4
								l0.1-0.2l1.7-3.1l2.1,3l-1,5.4l0,0.1l-0.3,1.5L459.8,522.5z"/>
							<path class="st28" d="M473.6,554.5c0,0,0,0.1,0,0.1c0,0.1,0,0.1,0,0.2c0,0.1,0,0.1,0,0.2c0,0,0,0.1,0,0.1c0,0,0,0,0,0
								c0,0,0,0.1,0,0.1c0,0,0,0,0,0c0,0.1-0.1,0.2-0.1,0.3c0,0,0,0,0,0c0,0-0.1,0.1-0.1,0.1c0,0-0.1,0.1-0.1,0.1
								c-0.1,0.1-0.1,0.2-0.2,0.3c0,0-0.1,0.1-0.1,0.1c-0.1,0.1-0.1,0.2-0.2,0.2c0,0,0,0,0,0c0,0,0,0,0,0c-0.4,0.4-0.9,0.7-1.4,0.9
								c-2,0.7-4.2-0.3-4.9-2.3l-5.3-14l-0.7-1.9l3.8-3l1.7-1.3l1.1,2.4l6.8,14.9c0.1,0.1,0.1,0.2,0.1,0.4c0,0,0,0.1,0,0.1
								c0,0,0,0.1,0,0.1c0,0,0,0.1,0,0.1c0,0,0,0.1,0,0.1c0,0,0,0.1,0,0.1c0,0,0,0.1,0,0.1c0,0,0,0,0,0c0,0,0,0.1,0,0.1c0,0,0,0,0,0
								c0,0,0,0.1,0,0.1c0,0,0,0.1,0,0.1c0,0,0,0.1,0,0.1C473.7,554,473.7,554.2,473.6,554.5z"/>
							<path class="st29" d="M459.8,522.5l0.6,1.4c-0.6,0.2-1.2,0.5-1.7,0.7l-0.4-0.9l-12.3-28.3l-2.1-4.8l-7.3-16.8
								c0.2,0,0.3,0,0.5,0c0,0,0.1,0,0.1,0c0,0,0,0,0,0c0.2,0.1,0.3,0.2,0.4,0.3c0,0,0,0,0.1,0.1c0.1,0.1,0.1,0.2,0.2,0.3l14.1,31.1
								l0,0l1.5,3.3c0,0,0,0,0,0l1.7,3.8l0.2-0.4l0.1-0.2l1.7-3.1l2.1,3l-1,5.4l0,0.1l-0.3,1.5L459.8,522.5z"/>
							<path class="st29" d="M473.6,554.5c0,0,0,0.1,0,0.1c0,0.1,0,0.1,0,0.2c0,0.1,0,0.1,0,0.2c0,0,0,0.1,0,0.1c0,0,0,0,0,0
								c0,0,0,0.1,0,0.1c0,0,0,0,0,0c0,0.1-0.1,0.2-0.1,0.3c0,0,0,0,0,0c0,0-0.1,0.1-0.1,0.1c0,0-0.1,0.1-0.1,0.1
								c-0.1,0.1-0.1,0.2-0.2,0.3c0,0-0.1,0.1-0.1,0.1c-0.1,0.1-0.2,0.2-0.2,0.3c-0.1-0.3-0.1-0.6-0.3-0.8l-7.4-17l-1-2.4l1.7-1.3
								l1.1,2.4l6.8,14.9c0.1,0.1,0.1,0.2,0.1,0.4c0,0,0,0.1,0,0.1c0,0,0,0.1,0,0.1c0,0,0,0.1,0,0.1c0,0,0,0.1,0,0.1c0,0,0,0,0,0.1
								c0,0,0,0,0,0.1c0,0,0,0.1,0,0.1c0,0,0,0,0,0c0,0,0,0.1,0,0.1c0,0,0,0,0,0c0,0,0,0.1,0,0.1c0,0,0,0.1,0,0.1c0,0,0,0.1,0,0.1
								C473.7,554,473.7,554.2,473.6,554.5z"/>
						</g>
						<path class="st19" d="M466.6,537.3c-0.1,0.1-0.2,0.2-0.3,0.3c-0.3,0.3-0.8,0.7-1.4,1.1c-1.2,0.8-2.8,1.8-4.1,2.5
							c-0.2,0.1-0.4,0.2-0.6,0.3c-1.8,1.1-4.9,1.7-5.9,2.3l5.4-5l4.1-3l1.8-0.9l0.9-0.7C467.3,534.5,467.4,536.2,466.6,537.3z"/>
					</g>
				</g>
				<path class="st22" d="M403.3,574c10.2-5,17.2-8.2,27.4-13.2c8.3-4.1,16.6-8.1,24.9-12.2c0.1,0.5,0.3,1,0.4,1.5
					c-8.3,4.3-16.6,8.6-25,12.8c-10.2,5.2-17.2,8.4-27.2,13.4c-32.1-32.8-48.1-49.2-47.9-49.4C356,526.7,371.8,542.4,403.3,574z"/>
				<path class="st22" d="M404.2,554.2c-21.2-23.9-31.7-36-31.4-36.3c0.3-0.3,10.8,10.6,31.5,32.7c6.7-3.1,15.2-7.3,21.8-11.2
					c0.6-0.4,2.6-1.6,5.1-3.1c3.5-2.1,6.3-3.9,10.6-6.6c0.4,0.3,0.8,0.6,1.2,0.8c-6.3,3.8-9.5,5.8-15.9,9.8c-6.3,3.9-6.2,3.9-7.9,5
					C415.8,547.4,410.7,550.5,404.2,554.2z"/>
				<path class="st23" d="M436.8,532.7c2.8,2.3,6.8,5.9,10,11.4c1.9,3.2,3.1,6.2,3.9,8.7c1.9-0.9,3.7-1.8,5.6-2.7
					c-0.7-2.7-2-6.6-4.6-10.6c-3.3-5.1-7.2-8.3-9.7-10C440.2,530.5,438.5,531.6,436.8,532.7z"/>
			</g>
		</g>
	</g>
</g>
</svg>
