<?xml version="1.0" encoding="utf-8"?>
<!-- Generator: Adobe Illustrator 26.0.1, SVG Export Plug-In . SVG Version: 6.00 Build 0)  -->
<svg version="1.1" id="Layer_1" xmlns="http://www.w3.org/2000/svg" xmlns:xlink="http://www.w3.org/1999/xlink" x="0px" y="0px"
	 viewBox="0 0 1000 1000" style="enable-background:new 0 0 1000 1000;" xml:space="preserve">
<style type="text/css">
	.st0{clip-path:url(#SVGID_00000178887470986087077510000016452251450391947678_);}
	.st1{clip-path:url(#SVGID_00000018208623711931558690000018427596397482067123_);fill:#FFD7DC;}
	.st2{clip-path:url(#SVGID_00000018208623711931558690000018427596397482067123_);}
	.st3{fill:#D8989D;}
	.st4{fill:none;stroke:#FFFFFF;stroke-width:1.8183;stroke-miterlimit:10;}
	.st5{clip-path:url(#SVGID_00000018208623711931558690000018427596397482067123_);fill:#FFEEF1;}
	.st6{fill:#FAD4AF;}
	.st7{fill:#212121;}
	.st8{fill:#EFB78E;}
	.st9{fill:#9F0102;}
	.st10{fill:#84030A;}
	.st11{fill:#191513;}
	.st12{fill:none;stroke:#F8AE38;stroke-width:5.5608;stroke-miterlimit:10;}
	.st13{fill:#F8AE38;}
	.st14{fill:#E09D6C;}
	.st15{fill:#BC956B;}
	.st16{fill:#E08373;}
</style>
<g>
	<g>
		<g>
			<defs>
				<path id="SVGID_1_" d="M794.4,365.2c-12.7-22.7-27.6-42.7-43-59.6c-2.8-3.1-56.6-48.5-56.6-48.5c-1.5-1.2-3-2.4-4.5-3.6
					c-43-36-75.6-101.3-194.9-91.3c-55.6,4.7-92,27.2-117.9,57.6c0,0,0,0,0,0c-2-1-4.1-1.6-6.3-1.6c-9.2,0-16.7,9.4-16.7,21.1
					c0,3.6,0.7,7.1,2,10.1c-19.1,32-31.8,68.7-44.7,100.8c-17.1,42.3-78.4,49-100.5,98.1c-20.1,23.1-30.6,59.7-35.9,86.2
					c-3.8,19.1-4.9,32.9-4.9,32.9c-6,133.4,113.9,235.6,237.6,272.6c0.1,0,0.2,0.1,0.3,0.1c21.5,6.8,42.4,11.3,61.5,13.6
					c5.9,0.7,11.8,1,17.7,1c0.9,0,1.9,0,2.8,0c0,0,0,0,0,0c12.6,0.7,24.9,0.5,36.8-0.5c2.4-0.2,4.9-0.5,7.3-0.7c0.2,0,0.3,0,0.5-0.1
					c43.8-4.9,94.1-18.9,140.9-44.1c66.1-34.8,122.4-89.1,133.1-161.5c9.6-47.6,22.8-75.3,22.8-146.3
					C834.1,454.4,794.4,365.2,794.4,365.2z"/>
			</defs>
			<clipPath id="SVGID_00000176741030111314603450000016337945562959376825_">
				<use xlink:href="#SVGID_1_"  style="overflow:visible;"/>
			</clipPath>
			<g style="clip-path:url(#SVGID_00000176741030111314603450000016337945562959376825_);">
				<defs>
					<path id="SVGID_00000175322456383004447300000009982969471187601540_" d="M798.9,368.5c-12.9-23-28-43.2-43.5-60.2
						c-0.2,0.3-0.3,0.5-0.5,0.8c0.2-0.3,0.3-0.5,0.5-0.8c-2.8-3.2-57.2-49-57.2-49l0,0c-1.5-1.2-3-2.4-4.5-3.6
						c-43.5-36.4-76.4-102.4-197.1-92.3c-56.2,4.7-93,27.5-119.3,58.3c-7.9,9.2-14.9,19.3-21.2,29.9
						c-19.3,32.3-32.2,69.5-45.3,101.9c-17.3,42.8-79.3,49.6-101.6,99.2c-20.3,23.4-31,60.4-36.3,87.2c-3.8,19.3-4.9,33.3-4.9,33.3
						C161.9,708,283.1,811.4,408.2,848.8c28,8.4,56.2,13.4,83.1,14.8c12.7,0.7,25.2,0.5,37.3-0.5c2.4-0.2,4.9-0.5,7.4-0.7
						c1.7-0.2,3.4-0.4,5.1-0.6c1.5-0.2,2.9-0.4,4.4-0.6c0.8-0.1,1.6-0.2,2.4-0.3c0.8-0.1,1.5-0.2,2.3-0.3
						c40.5-6.2,85.9-20.4,127.5-42.1c0.2-0.1,0.4-0.2,0.6-0.3c67.2-35.2,124.4-90.2,135.4-163.7c1.5-10.3,14.7-41.6,19-86.6
						C841,479.4,816.4,408.2,798.9,368.5z M705.4,315.8c0,0,0.1,0.1,0.1,0.1C705.5,315.9,705.4,315.9,705.4,315.8z"/>
				</defs>
				<clipPath id="SVGID_00000072966929312160647360000010120403885559505554_">
					<use xlink:href="#SVGID_00000175322456383004447300000009982969471187601540_"  style="overflow:visible;"/>
				</clipPath>
				<path style="clip-path:url(#SVGID_00000072966929312160647360000010120403885559505554_);fill:#FFD7DC;" d="M798.9,368.5
					c-12.9-23-28-43.2-43.5-60.2c-2.8-3.2-57.2-49-57.2-49c-1.5-1.2-3-2.4-4.5-3.6c-43.5-36.4-76.4-102.4-197.1-92.3
					c-56.2,4.7-93,27.5-119.3,58.3c-7.9,9.2-14.9,19.3-21.2,29.9c-19.3,32.3-32.2,69.5-45.3,101.9c-17.3,42.8-79.3,49.6-101.6,99.2
					c-20.3,23.4-31,60.4-36.3,87.2c-3.8,19.3-4.9,33.3-4.9,33.3C161.9,708,283.1,811.4,408.2,848.8c28,8.4,56.2,13.4,83.1,14.8
					c12.7,0.7,25.2,0.5,37.3-0.5c2.4-0.2,4.9-0.5,7.4-0.7c1.7-0.2,3.4-0.4,5.1-0.6c1.5-0.2,2.9-0.4,4.4-0.6c0.8-0.1,1.6-0.2,2.4-0.3
					c0.8-0.1,1.5-0.2,2.3-0.3c40.5-6.2,85.9-20.4,127.5-42.1c0.2-0.1,0.4-0.2,0.6-0.3c67.2-35.2,124.4-90.2,135.4-163.7
					c9.7-48.1,23-76.1,23-148C839,458.7,798.9,368.5,798.9,368.5z"/>
				<g style="clip-path:url(#SVGID_00000072966929312160647360000010120403885559505554_);">
					<path class="st3" d="M328.6,367.9c0,1.8-1.1,3.2-2.5,3.2s-2.5-1.4-2.5-3.2c0-1.8,1.1-3.2,2.5-3.2S328.6,366.2,328.6,367.9z"/>
					<path class="st3" d="M349.9,374c0,1.8-1.1,3.2-2.5,3.2s-2.5-1.4-2.5-3.2c0-1.8,1.1-3.2,2.5-3.2S349.9,372.2,349.9,374z"/>
					<path class="st3" d="M421.1,278.3c0,1.8-1.1,3.2-2.5,3.2s-2.5-1.4-2.5-3.2c0-1.8,1.1-3.2,2.5-3.2S421.1,276.6,421.1,278.3z"/>
					<path class="st3" d="M753.5,562.2c0,1.8-1.1,3.2-2.5,3.2s-2.5-1.4-2.5-3.2c0-1.8,1.1-3.2,2.5-3.2S753.5,560.4,753.5,562.2z"/>
					<path class="st3" d="M762.2,553.5c0,1.8-1.1,3.2-2.5,3.2s-2.5-1.4-2.5-3.2s1.1-3.2,2.5-3.2S762.2,551.7,762.2,553.5z"/>
					<ellipse class="st3" cx="340.7" cy="357.5" rx="4.1" ry="5.2"/>
					<path class="st3" d="M336.6,547.5c0,3.7-2.4,6.7-5.3,6.7c-2.9,0-5.3-3-5.3-6.7c0-3.7,2.4-6.7,5.3-6.7
						C334.3,540.8,336.6,543.8,336.6,547.5z"/>
					<ellipse class="st4" cx="370.9" cy="241.3" rx="16.9" ry="21.3"/>
				</g>
				<path style="clip-path:url(#SVGID_00000072966929312160647360000010120403885559505554_);fill:#FFEEF1;" d="M419.4,362.1
					c13,6.5,28.7,12.7,41.3,5.6c4.6-2.6,9.6-6.9,14.4-5.5c0.4-1,0.9-2,1.5-2.9c3.6-5.6,10.1-9.2,16.8-9.2c4,0,8.3,1.5,10.5,4.9
					c2.2,3.4,1.3,8.8-2.4,10.3c1.3-2.9-0.8-6.5-3.8-7.4c-3-0.9-6.4,0.5-8.4,3c-2,2.5-2.6,5.8-2.5,8.9c0.2,5.2,2.5,10.3,6.2,14
					c8.3,4.1,19.1,3.6,26-2.7c2.2,7.2,12.3,10.4,18.3,5.8c0.6,9.4,8.7,17.1,17.8,19.4c9.1,2.2,18.9-0.3,27-5
					c8.1-4.7,15-11.3,21.7-17.8c5.1,4.3,12.9,5.3,18.9,2.3c6-3,10-9.7,9.7-16.4c5.5-8.6,17.1-10.7,27.2-10
					c10.1,0.7,20.4,3.5,30.3,1.4c9-1.8,16.8-7.4,25.3-10.9c8.5-3.5,19.4-4.6,26.1,1.7c-8.5-8.6-21.5-12.4-33.4-9.8
					c-9.8,2.1-20.5,8.1-28.9,2.6c-7.2-4.7-7.6-15.1-12.3-22.4c-3.7-5.8-10.4-9.6-17.3-9.7c-6.9-0.1-13.8,3.4-17.7,9.1
					c-10.5-8.7-28.1-7-36.7,3.6c-2-2.1-4.1-4.1-6.1-6.2c5.7-8.4,3.4-21.3-4.9-27.1c-6.2-4.4-14.9-4.3-21.4-0.7
					c2.1,3.6,3.2,7.7,3,11.9c-0.3,7.4-4.8,14.6-11.5,17.8c-6.7,3.2-15.3,2.1-20.8-2.9c-2.6-2.4-4.4-5.6-4.7-9.1
					c-0.2-3.5,1.3-7.2,4.3-9c3-1.8,7.3-1.4,9.5,1.3c2.2,2.7,1.6,7.4-1.5,9c2.3-1.5,2.2-5.4,0-7.1c-2.2-1.7-5.6-1.2-7.5,0.8
					c-1.9,2-2.2,5.2-1.2,7.7c1,2.6,3.2,4.5,5.7,5.7c4,1.8,8.8,1.7,12.7-0.3c3.9-2,6.8-5.9,7.6-10.2c0.7-3.7-0.1-7.5-1.9-10.9
					c-8.1-9.9-23.8-12.6-34.7-5.8c-11,6.8-15.6,22.3-10.2,34c-5.1-5.7-13.6-8.1-20.9-5.9c-7.3,2.2-13.1,8.9-14.3,16.4
					c-6.1-3-13.4,0.8-18.2,5.7c-4.7,4.9-8.5,11.1-14.5,14.2c-6.9,3.6-15.3,2.4-22.7,0c-7.4-2.4-14.4-6.1-22.1-7.3
					c-7.7-1.2-16.6,0.7-20.9,7.1C391.4,348.6,406.4,355.6,419.4,362.1z"/>
			</g>
			<g style="clip-path:url(#SVGID_00000176741030111314603450000016337945562959376825_);">
				<g>
					<g>
						<g>
							<g>
								<g>
									<g>
										<path class="st6" d="M462,1439.4c-0.1,1.8-0.3,4.3-0.7,7.4c-0.9,6.3-2.5,14-4.7,18.1c-4.8,9.3-13.2,10.6-22.4,15.8
											c-15.1,8.4-32,14.2-49.3,14.6c-1.2,0.1-2.3,0-3.5,0c-3.8-0.1-8.2-0.8-10.4-3.9c-1.5-2.2-1.5-4.9-0.8-7.5c0,0,0-0.1,0-0.1
											c0.3-1.4,0.8-2.7,1.5-4c2.7-5.8,6.6-11,10.9-15.7c2.4-2.6,4.9-5.2,7.6-7.6c2.3-2.1,4.1-3.7,4.6-4.2
											c4.1-3.6,14.3-12.6,32.9-29.3c0-1.4,0-2.7,0.1-4.1c0.1-4.8,0.1-9.6,0.2-14.5c0.1-6.3,0.2-12.5,0.3-18.8
											c10.8,0,21.6-0.1,32.4-0.1c0.1,6.3,0.3,12.6,0.4,18.9c0.1,4.8,0.2,9.6,0.3,14.5C461.7,1425.6,461.8,1432.5,462,1439.4z"/>
										<path class="st7" d="M462,1439.4c0.6,2.1,1.3,5,1.6,8.6c0.6,6.2-0.1,11.1-0.3,12.1c-0.8,4.3-4.6,9.2-29.1,20.5
											c0,0-27.8,13.5-49.3,14.6c-1.2,0.1-2.3,0-3.5,0c-3.8-0.1-8.2-0.8-10.4-3.9c-1.5-2.2-1.5-4.9-0.8-7.5c0,0,0-0.1,0-0.1
											c0.4-1.2,0.9-2.5,1.5-4c2.7-5.8,6.6-11,10.9-15.7c2.4-2.7,4.9-5.2,7.6-7.6c-2.4,2.9-7.7,9.9-5.5,14.1
											c3.1,5.7,18.3,2.5,23.7,1.4C420.1,1469.3,440.2,1462.5,462,1439.4z"/>
									</g>
									<path class="st8" d="M461.5,1418.7h-33.7c0.1-4.8,0.1-9.6,0.2-14.5h33.1C461.3,1409,461.4,1413.8,461.5,1418.7z"/>
								</g>
								<g>
									<g>
										<path class="st6" d="M630.4,1491.2c-2.2,3.1-6.6,3.9-10.4,3.9c-1.2,0.1-2.3,0.1-3.5,0c-17.3-0.4-34.2-6.2-49.3-14.6
											c-9.2-5.1-17.5-6.4-22.4-15.8c-2.1-4.1-3.8-11.7-4.7-18.1c-0.4-3-0.6-5.6-0.7-7.4c0.2-6.9,0.3-13.8,0.5-20.7
											c0.1-4.8,0.2-9.6,0.3-14.5c0.1-6.3,0.3-12.6,0.4-18.9c10.8,0.1,21.6,0.1,32.3,0.1c0.1,6.3,0.2,12.6,0.3,18.8
											c0.1,4.8,0.2,9.7,0.2,14.5c0,1.4,0,2.7,0.1,4.1c18.6,16.7,28.8,25.8,32.9,29.3c0.6,0.5,2.3,2.1,4.6,4.2
											c2.6,2.5,5.2,5,7.6,7.6c4.3,4.7,8.2,9.9,10.9,15.7c0.6,1.3,1.2,2.6,1.5,4c0.1,0,0.1,0.1,0.1,0.1
											C631.9,1486.3,631.9,1489,630.4,1491.2z"/>
										<path class="st7" d="M539.5,1439.4c-0.6,2.1-1.3,5-1.6,8.6c-0.6,6.2,0.1,11.1,0.3,12.1c0.8,4.3,4.6,9.2,29.1,20.5
											c0,0,27.8,13.5,49.3,14.6c1.2,0.1,2.3,0,3.5,0c3.8-0.1,8.2-0.8,10.4-3.9c1.5-2.2,1.5-4.9,0.8-7.5c0,0,0-0.1,0-0.1
											c-0.4-1.2-0.9-2.5-1.5-4c-2.7-5.8-6.6-11-10.9-15.7c-2.4-2.7-4.9-5.2-7.6-7.6c2.4,2.9,7.7,9.9,5.5,14.1
											c-3.1,5.7-18.3,2.5-23.7,1.4C581.4,1469.3,561.3,1462.5,539.5,1439.4z"/>
									</g>
									<path class="st8" d="M573.7,1418.7H540c0.1-4.8,0.2-9.6,0.3-14.5h33.1C573.5,1409,573.6,1413.9,573.7,1418.7z"/>
								</g>
								<g>
									<g>
										<path class="st9" d="M607,958.1l-0.5,40.5l-0.3,25.2l-4.3,381.4h-93.3c-1.8-136.7-3.7-273.4-5.5-410.1
											c-1.8,136.7-3.7,273.4-5.5,410.1H406l-4.3-381.3l-0.3-25.3l-0.5-40.5H607z"/>
									</g>
									<g>
										<path class="st10" d="M503.7,1030.3c-34,3.3-67.9,6.7-101.9,10l-0.3-25.3h98.4C501.2,1020.1,502.4,1025.2,503.7,1030.3z"
											/>
									</g>
									<g>
										<path class="st10" d="M606.5,1015l-0.3,25.2c-34.2-3.3-68.3-6.6-102.5-9.9c0.8-5.1,1.7-10.2,2.5-15.3H606.5z"/>
									</g>
									<g>
										<path class="st10" d="M503.7,992.8c-1.9,125.6-3.9,251.2-5.8,376.8h-6.1l-1.6-377.1C494.7,992.7,499.2,992.7,503.7,992.8z
											"/>
									</g>
									<g>
										<path class="st10" d="M516.2,992.6l-1.6,377.4l-6.2-0.4c-1.9-125.7-3.8-251.4-5.7-377.2
											C507.2,992.5,511.7,992.5,516.2,992.6z"/>
									</g>
									<polygon class="st6" points="537.5,630.5 468.1,630.5 472.4,574.8 472.7,570.9 474.4,549.3 531.3,549.3 532.7,568.1 
										533.2,573.5 									"/>
									<g>
										<g>
											<path class="st6" d="M563.8,482.4c2.2-6.2,11.2-12,15-9.8c3.8,2.2,5.9,13,4.3,19.8c-1.6,6.8-7.9,19.1-10.1,21.5
												c-2.2,2.4-10.4,7.3-15.4,6L563.8,482.4z"/>
											<path class="st8" d="M566,478.6c-1,1.2-1.7,2.5-2.2,3.8l-6.2,37.6c3.3,0.9,7.8-0.9,11.2-2.9L566,478.6z"/>
											<path class="st6" d="M439.8,482.4c-2.2-6.2-11.2-12-15-9.8c-3.8,2.2-5.9,13-4.3,19.8c1.6,6.8,7.9,19.1,10.1,21.5
												c2.2,2.4,10.4,7.3,15.4,6L439.8,482.4z"/>
											<path class="st8" d="M437.6,478.6c1,1.2,1.7,2.5,2.2,3.8L446,520c-3.3,0.9-7.8-0.9-11.2-2.9L437.6,478.6z"/>
										</g>
										<path class="st8" d="M532.7,568.1c-2.9,3.1-5.6,5.5-7.6,7.3c-5.5,4.6-8.4,7-12.9,7.9c-2.8,0.6-2.7-0.1-10.6-0.2
											c-9.7,0-9.8,1-12.9,0c-2.5-0.8-5.4-3.2-11.2-8.1c-2-1.6-3.6-3.1-4.9-4.2l1.7-21.7h56.9L532.7,568.1z"/>
										<path class="st6" d="M568.7,456.2c-1.2,12.5-3.2,19-5.2,39.4c-0.8,8-2.8,15.9-2.8,23.9c0,1.5,0,4.1-0.6,7.4
											c-0.3,1.4-0.6,2.9-1.2,4.5c-1.2,3.6-2.8,6.1-4.4,8.4c-5.4,8-10.9,16.2-20.5,23.8c-4,3.2-6.2,4.3-12.5,9.5
											c-3,2.5-3.8,3.4-5.6,4.4c-3.7,2.1-7.8,2.6-11.4,2.5c-2.3-0.1-4.6-0.1-7,0c-3.6,0.2-7.7-0.3-11.4-2.5
											c-1.8-1-2.6-1.9-5.6-4.4c-6.2-5.2-8.4-6.3-12.5-9.5c-9.7-7.7-15.1-15.8-20.5-23.8c-1.6-2.3-3.2-4.9-4.4-8.4
											c-1.8-5.2-1.8-9.5-1.8-11.6v-0.3c0-8-2-15.9-2.8-23.9c-2.1-20.4-4-27-5.2-39.4c-2.2-22.2-3.9-40.3,3.3-54.8
											c13.3-26.7,52.4-31.5,63.8-32.5c0.3,0,0.5,0,0.7-0.1c0.2,0,0.5,0,0.7,0.1c11.4,1,50.5,5.8,63.8,32.5
											C572.6,415.8,570.8,434,568.7,456.2z"/>
										<path class="st11" d="M501.8,354c7.5-4.7,16.5-6,23.7-5.2c7.2,0.8,34.8,13.2,45.2,22.5c19.1,17,18.5,41.3,18.9,49.9
											c1.1,25.5-9.5,44.2-14,51.2c-1.6,1-3.7,2.6-5.5,4.8c-5.8,7-5.7,15.2-6.3,15.2c-0.7-0.1-1.7-13.8,1.2-28.9
											c0.4-2.2,1.3-6.2,0.6-11.3c-0.7-4.7-2.3-8.4-3.7-10.9c-3,8.1-7.3,15.2-8.9,15c-1-0.1-3.7-4.5-6.6-9.7
											c-5.6-10-7.1-13.5-9.6-17.3c0.1,1.9-5.1,17.8-7.1,17.9c-2,0.1-4.6-11.5-7.1-19.5c-2.5-8-8.8-20.6-9.9-20.4
											c-1,0.2-10.9,6.7-10.9,6.7s-9.8-6.5-10.9-6.7c-1-0.2-7.4,12.4-9.9,20.4c-2.5,8-5.1,19.6-7.1,19.5c-2-0.1-7.2-16-7.1-17.9
											c-2.5,3.8-3.9,7.3-9.6,17.3c-2.9,5.2-5.7,9.5-6.6,9.7c-1.6,0.2-5.9-6.8-8.9-15c-2.7,3.9-3.5,9.4-3.7,10.9
											c-0.1,0.6-0.1,1-0.1,1.4c-0.1,2.9,0,5,0.1,6c0.7,7.5,2,13,1.3,20c-0.4,4.3-1.4,7.4-2,7.4c-0.9-0.1,0.4-7.6-3.9-11.8
											c-2.1-2-4.6-2.7-6.2-2.9c-4.5-7.3-14.5-25.9-13.3-51c0.4-8.9,0-33,18.9-49.9c10.4-9.3,37.9-21.7,45.2-22.5
											C485.4,348,494.4,349.3,501.8,354z"/>
									</g>
									<path class="st12" d="M454.9,596.3"/>
									<g>
										<g>
											<path class="st9" d="M620.9,1029.1c-19.8-2.8-40.6-5.2-62.3-7.1c-19.3-1.7-37.9-2.9-55.8-3.7
												c-38.8,2.9-77.7,5.8-116.5,8.8c-0.9-132.6-1.7-265.3-2.6-397.9c6.2-2.5,12.7-5,19.4-7.3c18.4-6.3,35.9-10.6,51.8-13.6
												c0-7.4,0-14.7,0-22.1c36.2-0.5,45.6,14.6,47.8,20.1c2.2-5.5,11.6-20.6,47.8-20.1v22.1c14.5,1.9,31.6,5.6,50,12.7
												c6.6,2.6,12.8,5.3,18.5,8.1C619.6,762.4,620.3,895.7,620.9,1029.1z"/>
										</g>
										<line class="st12" x1="502.7" y1="606.2" x2="502.7" y2="1018.2"/>
										<line class="st12" x1="479.6" y1="659.8" x2="525.8" y2="659.8"/>
										<line class="st12" x1="479.6" y1="773.4" x2="525.8" y2="773.4"/>
										<line class="st12" x1="479.6" y1="870.4" x2="525.8" y2="870.4"/>
										<line class="st12" x1="479.6" y1="967.4" x2="525.8" y2="967.4"/>
										<path class="st13" d="M502.7,610.1c0,0-16.5-22.7-47.8-13.8v-10.2c0,0,38.4-2.1,47.8,20.1V610.1z"/>
										<path class="st13" d="M502.7,610.1c0,0,16.5-22.7,47.8-13.8v-10.2c0,0-38.4-2.1-47.8,20.1V610.1z"/>
									</g>
									<g>
										<g>
											<path d="M549.7,475.5c-11.2-5.8-25.3-4.5-35.2,3.3c0,0-2.5-3.2-2.5-3.2c8-6.6,19.4-8.5,29.1-5.1c3.2,1.1,6.1,2.7,8.7,4.7
												L549.7,475.5L549.7,475.5z"/>
										</g>
									</g>
									<g>
										<g>
											<path d="M454.6,473.7c11.7-8.1,28.5-7.8,40,0.7c0,0-2.3,3.3-2.3,3.3c-8.1-5.5-18.1-8.1-27.8-6.5
												c-3.3,0.5-6.5,1.5-9.7,2.8L454.6,473.7L454.6,473.7z"/>
										</g>
									</g>
									<path class="st14" d="M486.6,549.7c-0.4,1.1,6.9,6.7,15.6,6.6c8.8-0.1,16.1-5.9,15.7-6.9c-0.3-0.9-5.9,1.9-15.6,2
										C492.6,551.4,487,548.8,486.6,549.7z"/>
									<g>
										<path class="st14" d="M493.8,525.7c5-2.5,11-2.6,16.1-0.2C504.9,528,498.9,528,493.8,525.7L493.8,525.7z"/>
									</g>
									<g>
										<path d="M519.3,497.7c0,0,0-0.1-0.2-0.1c-0.5-0.2-1-0.4-1.4-0.6c0.4-0.7,1-1.6,1.9-2.5c0.1-0.2,1.1-1.2,2.2-1.9
											c1.5-0.9,2.6-0.9,6.4-1.2c5.1-0.4,5.6-0.6,6.8-0.2c1.7,0.6,3.8,2,3.7,3.3c0,0.5-0.3,0.8-0.8,1.2c-1.6,1.6-3.6,1.8-3.5,2
											c0,0.2,2.7,0.6,4.9-0.9c1.4-0.9,2.1-2.2,2.4-3c0.8,0.1,1.9,0.2,3.3,0.5c1.8,0.3,2.4,0.5,2.4,0.3c0.1-0.3-2.7-2-5.8-3.1
											c-1.2-0.4-3-1.1-5.5-1.5c-1-0.1-2.5-0.3-6.8,0c-2.1,0.1-4.9,0.4-8.2,0.9c-1.2,0.7-3,1.8-4.8,3.6c-2.1,2.1-3.5,4.3-3.3,4.6
											c0.2,0.2,0.8-0.6,2.2-0.8c0.6-0.1,0.6,0,1.5,0C518.1,498.2,519.3,497.9,519.3,497.7z"/>
										<path d="M533.5,490.3c0.2,0.5,0.6,1.3,0.6,2.4c0,2.4-1.8,3.9-2,4.1c-1.6,1.3-3.5,1.3-4.6,1.2c-0.8,0-2.2-0.1-3.5-1
											c-0.6-0.4-1.8-1.2-2.2-2.7c-0.4-1.6,0.3-2.9,0.5-3.2c1.4-0.2,2.9-0.4,4.5-0.6C529.1,490.3,531.4,490.2,533.5,490.3z"/>
									</g>
									<g>
										<path d="M484.9,497.7c0,0,0-0.1,0.2-0.1c0.5-0.2,1-0.4,1.4-0.6c-0.4-0.7-1-1.6-1.9-2.5c-0.1-0.2-1.1-1.2-2.2-1.9
											c-1.5-0.9-2.6-0.9-6.4-1.2c-5.1-0.4-5.6-0.6-6.8-0.2c-1.7,0.6-3.8,2-3.7,3.3c0,0.5,0.3,0.8,0.8,1.2c1.6,1.6,3.6,1.8,3.5,2
											c0,0.2-2.7,0.6-4.9-0.9c-1.4-0.9-2.1-2.2-2.4-3c-0.8,0.1-1.9,0.2-3.3,0.5c-1.8,0.3-2.4,0.5-2.4,0.3
											c-0.1-0.3,2.7-2,5.8-3.1c1.2-0.4,3-1.1,5.5-1.5c1-0.1,2.5-0.3,6.8,0c2.1,0.1,4.9,0.4,8.2,0.9c1.2,0.7,3,1.8,4.8,3.6
											c2.1,2.1,3.5,4.3,3.3,4.6c-0.2,0.2-0.8-0.6-2.2-0.8c-0.6-0.1-0.6,0-1.5,0C486.1,498.2,484.9,497.9,484.9,497.7z"/>
										<path d="M470.7,490.3c-0.2,0.5-0.6,1.3-0.6,2.4c0,2.4,1.8,3.9,2,4.1c1.6,1.3,3.5,1.3,4.6,1.2c0.8,0,2.2-0.1,3.5-1
											c0.6-0.4,1.8-1.2,2.2-2.7c0.4-1.6-0.3-2.9-0.5-3.2c-1.4-0.2-2.9-0.4-4.5-0.6C475.1,490.3,472.8,490.2,470.7,490.3z"/>
									</g>
									<rect x="402.7" y="1369" class="st13" width="95.5" height="39.2"/>
									<rect x="507.8" y="1369" class="st13" width="96.8" height="39.2"/>
								</g>
							</g>
						</g>
					</g>
					<path class="st15" d="M287.9,441.4"/>
					<path class="st16" d="M494,1337.2"/>
					<g>
						<path class="st11" d="M445.9,381.5c0.5,2.2-1.3,6.8-2.9,7.7c-0.9,7.4-2.8,16.7-6.7,26.9c-5.6,14.8-13.2,25.7-19.1,32.9
							c-1.2-4.8-5.5-23.8,5-43.4C429.7,391.5,440.9,384.3,445.9,381.5z"/>
					</g>
					<path class="st9" d="M587,748.3c2.2,36.8,4,74.5,5.2,113.1c0.8,24.3,1.1,42.2,1.2,46.8c0.4,43.5-1.2,79.1-2.8,103.6
						c19.3,3.4,38.7,6.8,58,10.2c0.1-84.5,0.2-169,0.3-253.5c-0.4-31.7-0.8-63.5-1.2-95.2c-0.7-5.3-2.6-15-9.2-25.2
						c-6.7-10.4-14.9-16.2-19.4-19c-8.2,12.3-18.8,31.5-25.7,56.9C586.4,711.5,586.1,733.6,587,748.3z"/>
					<path class="st9" d="M415.7,748.3c-3.1,51.5-5.3,104.9-6.4,159.9c-0.7,37.2-0.9,73.6-0.6,109.2c-18.2,1.5-36.4,3-54.6,4.5
						c-0.1-84.5-0.2-169-0.3-253.5c0.4-31.7,0.8-63.5,1.2-95.2c0.7-5.3,2.6-15,9.2-25.2c6.7-10.4,14.9-16.2,19.4-19
						c8.2,12.3,18.8,31.5,25.7,56.9C416.2,711.5,416.6,733.6,415.7,748.3z"/>
					<g>
						<path class="st11" d="M559.5,380.1c-0.5,2.2,1.3,6.8,2.9,7.7c7.3,10,10.2,18.9,11.5,25.3c3,15.5,4,20.2,8.4,27.2
							c1.8,2.8,3.5,4.9,4.7,6.1c1.2-4.9,5-22.1-3.8-40.7C575.9,390.6,564.2,382.9,559.5,380.1z"/>
					</g>
					<g>
						<g>
							<g>
								<path class="st6" d="M643.4,1008.6c0,0-3.1,15.3-3.5,34.1c0,0-0.3,5.4,0.4,12c0,0,1.6,14.1,2.3,17.5s0.4,8.6-0.4,11.1
									c-0.8,2.5-4.8,13.5-6,15.1s-10.3,16.5-11.7,16.9c-1.4,0.5-2-1.9-2-1.9s0.2-3.6,0.1-4.6c-0.5-3.8,2.6-15.6,3.6-19.3
									c0.2-0.8,0.3-1.6,0.2-2.3l-0.9-7.2c0,0-1.8,6.5-5.3,3.8c0,0-1.9-3.7-2.8-7.9c-1-4.2-4.1-13.1-5.7-18.8s1.8-13.8,4.8-18.9
									c2.9-5.1,3.8-13.9,4.7-22.1C623.6,992,643.4,1008.6,643.4,1008.6z"/>
							</g>
						</g>
						<path class="st8" d="M620,1083.6c0,0,0.1,0.5,1.6,0.8c1.6,0.3,3.4-1.9,4.3-6.8c0.9-5,1.7-8.8,1.9-12.1c0.3-3.3,0-4.7,0.2-7.1
							s0.7-4.1,0.7-4.1s-2,0.2-2.1,7.8c-0.1,7.6-1.4,14.3-2.4,17C623.2,1081.9,622.5,1084.6,620,1083.6z"/>
					</g>
					<g>
						<g>
							<g>
								<path class="st6" d="M365.8,1008.8c0,0,3.4,15.2,4.1,34c0,0,0.4,5.4-0.2,12c0,0-1.4,14.1-2,17.5c-0.6,3.4-0.3,8.6,0.6,11.1
									c0.9,2.5,5,13.4,6.3,15c1.3,1.6,10.5,16.3,12,16.7c1.4,0.4,2-1.9,2-1.9s-0.3-3.6-0.1-4.6c0.5-3.8-2.9-15.6-4-19.3
									c-0.2-0.8-0.3-1.6-0.2-2.3l0.8-7.2c0,0,1.9,6.4,5.4,3.8c0,0,1.8-3.8,2.7-8c0.9-4.2,3.9-13.1,5.4-18.9
									c1.4-5.7-2-13.8-5.1-18.8c-3-5.1-4-13.8-5-22C385.3,991.9,365.8,1008.8,365.8,1008.8z"/>
							</g>
						</g>
						<path class="st8" d="M390.4,1083.5c0,0-0.1,0.5-1.6,0.8c-1.5,0.3-3.4-1.8-4.4-6.8c-1-5-1.8-8.7-2.1-12
							c-0.3-3.3-0.1-4.7-0.4-7.1s-0.7-4.1-0.7-4.1s2,0.2,2.2,7.8c0.2,7.6,1.6,14.2,2.7,17C387.1,1081.8,387.9,1084.5,390.4,1083.5z"
							/>
					</g>
				</g>
				<path class="st13" d="M354.1,1022c11.4-0.9,22.9-1.9,34.3-2.8c6.3-0.5,14-1.2,20.3-1.7c0-7.1-0.1-14.3-0.1-21.4
					c-5.2-0.6-11-1-17.3-0.8c-15.6,0.5-28.5,4.1-37.8,7.6C353.7,1009.2,353.9,1015.6,354.1,1022z"/>
				<path class="st13" d="M648.5,1022c-11.4-0.9-23.5-1.9-34.9-2.8c-6.3-0.5-14-1.2-20.3-1.7c0-7.1,0.1-14.3,0.1-21.4
					c5.2-0.6,11-1,17.3-0.8c15.6,0.5,28.5,4.1,37.8,7.6C648.3,1009.2,648.7,1015.6,648.5,1022z"/>
			</g>
		</g>
	</g>
	<g>
		<path class="st3" d="M642,348.6c-6.2,0-11.3-4.8-11.8-10.9l-0.1-1.4c-2.8-25.5,5.7-53.4,29.3-81.8c21.3-25.1,33.1-43.5,33.1-64.8
			c0-24.1-15.1-40.2-44.9-40.7c-11.2,0-23.2,2.4-33.4,6.7c-8.3,3.4-17.7-0.7-20.9-9.1v0c-3-7.8,0.6-16.7,8.2-20.2
			c15.4-7.1,35.6-11.4,54.6-11.4c54.4,0,79,33.6,79,69.5c0,32.2-18,55.3-40.7,82.3c-20.8,24.6-28.4,45.4-27,69.5l0,0
			c0.3,6.7-5.1,12.3-11.8,12.3H642z M620.8,411.8c1.3-15.9,12.7-26.7,28.3-26.7c16.6,0,27.9,12.3,27.9,29.8c0,14.1-7.9,25.4-21,28.5
			C634.5,448.3,619,433.7,620.8,411.8z"/>
	</g>
</g>
</svg>
