<?xml version="1.0" encoding="utf-8"?>
<!-- Generator: Adobe Illustrator 26.0.1, SVG Export Plug-In . SVG Version: 6.00 Build 0)  -->
<svg version="1.1" id="Layer_1" xmlns="http://www.w3.org/2000/svg" xmlns:xlink="http://www.w3.org/1999/xlink" x="0px" y="0px"
	 viewBox="0 0 874 824" style="enable-background:new 0 0 874 824;" xml:space="preserve">
<style type="text/css">
	.st0{fill:#FFD7DC;}
	.st1{fill:#BC956B;}
	.st2{fill:#987957;}
	.st3{fill:#FAD4AF;}
	.st4{fill:#EFB78E;}
	.st5{fill:#191513;}
	.st6{fill:#E09D6C;}
</style>
<g>
	<path class="st0" d="M734.4,412c0,136.6-93.3,251.5-219.6,284.4c-2.5,0.7-5,1.3-7.5,1.8c-21.4,5-43.7,7.6-66.7,7.6
		c-21.2,0-42-2.2-61.9-6.5c-2.3-0.5-4.5-1-6.8-1.5C242.8,666.8,146.8,550.6,146.8,412c0-162.3,131.5-293.8,293.8-293.8
		C602.9,118.2,734.4,249.7,734.4,412z"/>
	<path class="st1" d="M507.3,698.2c-21.4,5-43.7,7.6-66.7,7.6c-21.2,0-42-2.2-61.9-6.5l8.6-29l9-30.2l87.7,0l11.1,25.5L507.3,698.2z
		"/>
	<path class="st2" d="M495.1,665.6c-15.2,5.5-34.8,12.6-55,12.9c-20,0.3-37.8-3.3-52.8-8.2l9-30.2l87.7,0L495.1,665.6z"/>
	<g>
		<g>
			<g>
				<g>
					<path class="st3" d="M514.8,696.4c-2.5,0.7-5,1.3-7.5,1.8c-21.4,5-43.7,7.6-66.7,7.6c-21.2,0-42-2.2-61.9-6.5
						c-2.3-0.5-4.5-1-6.8-1.5l3.4-29.1l0.7-8.6l0.6-7.8l3.1-40.7h127.3l2.7,34.9l0.6,7.3l0.9,12L514.8,696.4z"/>
					<g>
						<g>
							<path class="st3" d="M579.7,462c4.9-13.8,25.1-26.8,33.6-21.8c8.4,4.9,13.1,29.1,9.6,44.4c-3.5,15.3-17.6,42.7-22.5,48.1
								c-4.9,5.4-23.2,16.4-34.5,13.4L579.7,462z"/>
							<path class="st4" d="M584.7,453.6c-2.1,2.7-3.9,5.6-4.9,8.5l-13.8,84c7.3,2,17.5-1.9,25.1-6.4L584.7,453.6z"/>
							<path class="st3" d="M302.4,462c-4.9-13.8-25.1-26.8-33.6-21.8c-8.4,4.9-13.2,29.1-9.6,44.4c3.5,15.3,17.6,42.7,22.5,48.1
								c4.9,5.4,23.2,16.4,34.5,13.4L302.4,462z"/>
							<path class="st4" d="M297.5,453.6c2.1,2.7,3.9,5.6,4.9,8.5l13.8,84c-7.3,2-17.5-1.9-25.1-6.4L297.5,453.6z"/>
						</g>
						<path class="st4" d="M510.3,653.8c-6.5,7-12.5,12.4-17.1,16.3c-12.3,10.2-18.7,15.6-28.8,17.7c-6.3,1.3-6-0.3-23.8-0.4
							c-21.8-0.1-22,2.2-28.8,0c-5.7-1.9-12.1-7.2-25-18c-4.4-3.7-8.1-6.9-10.9-9.4l3.7-48.4h127.3L510.3,653.8z"/>
						<path class="st3" d="M590.8,403.4c-2.7,27.9-7.1,42.5-11.7,88.2c-1.8,17.9-6.3,35.5-6.3,53.4c0,3.3,0.1,9.2-1.3,16.5
							c-0.6,3.1-1.4,6.5-2.6,10.1c-2.7,8-6.3,13.6-9.9,18.9c-12.1,17.9-24.4,36.1-46,53.3c-9,7.2-14,9.7-27.9,21.3
							c-6.7,5.6-8.6,7.6-12.6,9.8c-8.4,4.8-17.4,5.9-25.6,5.5c-5.2-0.3-10.4-0.3-15.6,0c-8.1,0.4-17.2-0.8-25.6-5.5
							c-4-2.2-5.9-4.2-12.6-9.8c-14-11.7-18.9-14.1-27.9-21.3c-21.6-17.2-33.9-35.4-46-53.3c-3.6-5.2-7.1-10.9-9.9-18.9
							c-4-11.5-3.9-21.1-3.9-26.1v-0.6c0-17.9-4.5-35.6-6.3-53.4c-4.6-45.7-9-60.4-11.7-88.2c-4.9-49.7-8.8-90.3,7.3-122.6
							c29.7-59.7,117.1-70.5,142.6-72.7c0.6-0.1,1.1-0.1,1.6-0.2c0.5,0.1,1.1,0.1,1.7,0.2c25.4,2.2,112.9,13,142.6,72.7
							C599.5,313.1,595.6,353.7,590.8,403.4z"/>
						<path class="st5" d="M441.2,174.8c16.7-10.6,36.8-13.4,53-11.6c16.2,1.8,77.8,29.6,101.1,50.3c42.7,38.1,41.4,92.5,42.2,111.6
							c2.5,57-21.3,98.8-31.4,114.5c-3.7,2.3-8.2,5.8-12.3,10.8c-13,15.6-12.7,34.1-14,33.9c-1.6-0.2-3.9-30.9,2.6-64.6
							c1-5,2.8-13.8,1.3-25.2c-1.5-10.5-5.2-18.8-8.3-24.3c-6.7,18.1-16.4,34-19.9,33.5c-2.1-0.3-8.3-10.1-14.9-21.7
							c-12.6-22.4-15.8-30.3-21.4-38.7c0.2,4.2-11.4,39.8-15.8,40c-4.4,0.2-10.2-25.7-15.8-43.7c-5.6-18-19.7-46.1-22.1-45.7
							c-2.3,0.5-24.3,15-24.3,15s-22-14.6-24.3-15c-2.3-0.5-16.4,27.7-22.1,45.7c-5.6,18-11.4,43.8-15.8,43.7
							c-4.4-0.2-16-35.7-15.8-40c-5.6,8.5-8.8,16.4-21.4,38.7c-6.5,11.6-12.7,21.3-14.9,21.7c-3.5,0.5-13.2-15.3-19.9-33.5
							c-6,8.8-7.9,21.1-8.3,24.3c-0.1,1.2-0.2,2.2-0.3,3.1c-0.3,6.4,0,11.2,0.3,13.4c1.6,16.7,4.6,29,3,44.7
							c-0.9,9.7-3.2,16.5-4.5,16.4c-2-0.1,0.9-17-8.8-26.5c-4.6-4.5-10.3-6-13.9-6.6c-10.1-16.4-32.4-58-29.7-114
							c1-20-0.1-73.8,42.3-111.6c23.2-20.8,84.9-48.6,101-50.3C404.4,161.4,424.5,164.3,441.2,174.8z"/>
					</g>
					<g>
						<g>
							<path d="M548.3,446.6c-11.5-8.1-24.7-13.3-38.7-14.5c-13.5-1.1-27.1,1.5-39.5,6.8c0,0-3.8-8.2-3.8-8.2
								c20.4-9.9,45.5-9.1,65.2,2c6.5,3.6,12.3,8.1,17.2,13.4L548.3,446.6L548.3,446.6z"/>
						</g>
					</g>
					<g>
						<g>
							<path d="M335.4,442.5c5-5.2,11-9.7,17.5-13c3.3-1.7,6.7-3.1,10.3-4.3c3.5-1.2,7.2-2.1,10.9-2.6c1.9-0.3,3.7-0.5,5.6-0.7
								c0.9-0.1,1.9-0.1,2.8-0.1l1.4-0.1l1.4,0c3.8,0,7.6,0.4,11.3,1c7.5,1.3,14.8,3.8,21.4,7.6l-4.3,8c-6-3-12.3-5.4-18.9-6.9
								c-3.3-0.8-6.6-1.3-10-1.6l-1.3-0.1l-1.3-0.1c-0.8,0-1.7-0.1-2.5-0.1c-1.7,0-3.4-0.1-5.1,0.1c-6.8,0.3-13.6,1.6-20.2,3.9
								c-6.6,2.3-12.9,5.4-18.9,9.5L335.4,442.5z"/>
						</g>
					</g>
					<path class="st6" d="M485.3,603.9c-1-1.9-17.6,5.6-45.4,5.1c-24.9-0.5-39.7-7.1-40.6-5.1c-1.1,2.2,17.2,14.8,40,15.7
						C465,620.6,486.4,606.2,485.3,603.9z"/>
					<g>
						<path class="st6" d="M423.2,558.8c10.3-5.5,25.7-5.7,36.1-0.4C449,563.9,433.6,564,423.2,558.8L423.2,558.8z"/>
					</g>
					<g>
						<path d="M480.3,496.3c0-0.1-0.1-0.2-0.5-0.2c-1.1-0.5-2.1-1-3.2-1.4c0.9-1.5,2.2-3.6,4.2-5.6c0.3-0.3,2.5-2.6,5-4.2
							c3.3-2,5.9-2,14.4-2.7c11.5-0.9,12.5-1.4,15.3-0.4c3.8,1.3,8.6,4.5,8.3,7.5c-0.1,1-0.8,1.7-1.8,2.8c-3.5,3.7-8,4-7.9,4.4
							c0.1,0.5,6,1.2,11-2.1c3.1-2.1,4.7-5,5.5-6.7c1.7,0.2,4.3,0.5,7.5,1.1c3.9,0.7,5.3,1.1,5.4,0.8c0.3-0.7-6.1-4.4-12.9-6.9
							c-2.6-1-6.7-2.5-12.3-3.3c-2.3-0.3-5.6-0.6-15.1,0c-4.6,0.3-10.9,0.9-18.3,1.9c-2.7,1.5-6.6,4-10.7,8
							c-4.8,4.7-7.9,9.7-7.3,10.3c0.4,0.3,1.8-1.3,4.9-1.8c1.3-0.2,1.3,0.1,3.2-0.1C477.6,497.4,480.3,496.7,480.3,496.3z"/>
						<path d="M512,479.6c0.5,1,1.3,2.9,1.3,5.4c0,5.4-4,8.8-4.5,9.2c-3.6,3-7.8,2.8-10.3,2.7c-1.8-0.1-4.8-0.2-7.9-2.2
							c-1.4-0.9-4.1-2.6-5-6c-0.9-3.5,0.7-6.5,1.1-7.3c3.1-0.5,6.5-1,10.1-1.3C502.2,479.6,507.3,479.5,512,479.6z"/>
					</g>
					<g>
						<path d="M403.3,496.3c0-0.1,0.1-0.2,0.5-0.2c1.1-0.5,2.1-1,3.2-1.4c-0.9-1.5-2.2-3.6-4.2-5.6c-0.3-0.3-2.5-2.6-5-4.2
							c-3.3-2-5.9-2-14.4-2.7c-11.5-0.9-12.5-1.4-15.3-0.4c-3.8,1.3-8.6,4.5-8.3,7.5c0.1,1,0.8,1.7,1.8,2.8c3.5,3.7,8,4,7.9,4.4
							c-0.1,0.5-6,1.2-11-2.1c-3.1-2.1-4.7-5-5.5-6.7c-1.7,0.2-4.3,0.5-7.5,1.1c-3.9,0.7-5.3,1.1-5.4,0.8c-0.3-0.7,6.1-4.4,12.9-6.9
							c2.6-1,6.7-2.5,12.3-3.3c2.3-0.3,5.6-0.6,15.1,0c4.6,0.3,10.9,0.9,18.3,1.9c2.7,1.5,6.6,4,10.7,8c4.8,4.7,7.9,9.7,7.3,10.3
							c-0.4,0.3-1.8-1.3-4.9-1.8c-1.3-0.2-1.3,0.1-3.2-0.1C406,497.5,403.2,496.7,403.3,496.3z"/>
						<path d="M371.6,479.6c-0.5,1-1.3,2.9-1.3,5.4c0,5.4,4,8.8,4.5,9.2c3.6,3,7.8,2.8,10.3,2.7c1.8-0.1,4.8-0.2,7.9-2.2
							c1.4-0.9,4.1-2.6,5-6c0.9-3.5-0.7-6.5-1.1-7.3c-3.1-0.5-6.5-1-10.1-1.3C381.4,479.6,376.2,479.5,371.6,479.6z"/>
					</g>
				</g>
			</g>
		</g>
	</g>
</g>
</svg>
