<?xml version="1.0" encoding="utf-8"?>
<!-- Generator: Adobe Illustrator 26.0.1, SVG Export Plug-In . SVG Version: 6.00 Build 0)  -->
<svg version="1.1" id="Layer_1" xmlns="http://www.w3.org/2000/svg" xmlns:xlink="http://www.w3.org/1999/xlink" x="0px" y="0px"
	 viewBox="0 0 712.5 667.5" style="enable-background:new 0 0 712.5 667.5;" xml:space="preserve">
<style type="text/css">
	.st0{clip-path:url(#SVGID_00000105426694372515327830000008681455578667371664_);}
	.st1{fill:#FFD7DC;}
	.st2{fill:#D8989D;}
	.st3{fill:#C6838B;}
	.st4{fill:#FFEEF1;}
	.st5{fill:#B26426;}
	.st6{fill:#FAD4AF;}
	.st7{fill:#EFB78E;}
	.st8{fill:#191513;}
	.st9{fill:none;stroke:#F8AE38;stroke-width:3.1794;stroke-miterlimit:10;}
	.st10{fill:#9F0102;}
	.st11{fill:#F8AE38;}
	.st12{fill:#E09D6C;}
	.st13{fill:#F2B069;}
	.st14{opacity:0.16;fill:#6A5D55;}
	.st15{fill:#96511D;}
	.st16{fill:#CC9315;}
	.st17{fill:#F7C238;}
	.st18{fill:#84030A;}
	.st19{fill:none;stroke:#F7DB63;stroke-width:0.5112;stroke-miterlimit:10;}
	.st20{fill:none;}
	.st21{fill:#F7A87E;}
	.st22{fill:#C1AFA8;}
	.st23{fill:#2B1309;}
</style>
<g>
	<g>
		<defs>
			<path id="SVGID_1_" d="M185.9,106.8c-10.8,10-21,21.6-27.7,33.4c-14.1,24.8-15.2,60.3-11,87.4c2.9,18.7,15.6,44.7,9.4,63.7
				c-8.5,25.7-53.1,24.6-74.8,31.1c-20,5.9-39,20.4-49.2,38.1c-31.3,54.3,6.3,83.4,25.2,107.7c21.4,27.6-25.2,61,1.6,88.5
				c28,28.8,61.7,40.8,117.7,40.8c110.9,0,135.8,8.3,289.5-2.1c29.1-2,67.9-8.3,97-11.3c43.8-4.5,151.9-40.8,123.7-109.5
				c-20.9-50.8-130.5-43-93.7-112.5c24-45.5,69.2-108.6,13-148.7c-40.8-29.2-66.9-45.9-90.5-90c-25.9-48.3-62.3-74.4-119.5-79
				c-31-2.5-62.4-2.3-92.8,4.3c-37.1,8-73.8,23.4-103.6,46.2C195.4,98.5,190.6,102.5,185.9,106.8z"/>
		</defs>
		<clipPath id="SVGID_00000041976263182012975410000000732595642207307670_">
			<use xlink:href="#SVGID_1_"  style="overflow:visible;"/>
		</clipPath>
		<g style="clip-path:url(#SVGID_00000041976263182012975410000000732595642207307670_);">
			<path class="st1" d="M168.5,81.9c-12,10.5-23.2,22.7-30.6,35.1c-15.5,26.1-16.8,63.3-12.1,91.8c3.2,19.7,17.2,47,10.4,66.9
				c-9.3,27-58.5,25.9-82.5,32.6c-22,6.2-43,21.5-54.2,40.1c-34.5,57,7,87.6,27.7,113.1c23.6,29-27.8,64.1,1.7,93
				c30.9,30.2,68.1,42.8,129.8,42.8c122.3,0,149.7,8.7,319.1-2.2c32.1-2.1,74.9-8.7,106.9-11.9c48.3-4.7,167.5-42.9,136.4-115.1
				c-23-53.4-143.8-45.2-103.3-118.2c26.5-47.8,76.3-114,14.4-156.2c-44.9-30.6-73.7-48.2-99.8-94.6c-28.6-50.7-68.6-78.2-131.7-83
				c-34.1-2.6-68.8-2.4-102.3,4.6c-40.9,8.4-81.4,24.6-114.2,48.6C179,73.1,173.6,77.4,168.5,81.9z"/>
			<g>
				<path class="st2" d="M592,431.8c-4.7-51.5,56.6-56.1,50.8-7.4c13.5-32.5,51.3-0.6,40.9,36.2c11-2.9,19.8,10.1,24,23.8
					c5.1,16.9,1.3,29-6.5,42.8c10.6-0.2,21.7,13.2,22.4,28.9c1,22.8-1.5,29.6-10,41.7c11.7,1.7,15.3,22.2,14.9,37.4
					c-0.5,23.3-8.5,28.5-22.6,32.3c-16.6,4.5-30.4,4.7-47.2,1.7c-14.1-2.5-29.2-9.8-43.8-9.6c-23.9,0.3-47.6-3.9-71.2-8.8
					c-15.9-3.3-38.3-1.3-48.6-21.9c-8.4-16.7-11.4-38-5.8-57.2c3-10.5,18.6-39.2,27.7-20.7c-12.9-15.1-13-29.9-9-47.3
					c4-17.4,18-32.7,30.1-23.7c-8.1-22.6-1-46.7,13.4-61.1C551.2,418.9,576.9,394.2,592,431.8z"/>
				<path class="st2" d="M154.3,414.4c-4.7-51.5,56.6-56.1,50.8-7.4c13.5-32.5,51.3-0.6,40.9,36.2c11-2.9,19.8,10.1,24,23.8
					c5.1,16.9,1.3,29-6.5,42.8c10.6-0.2,21.7,13.2,22.4,28.9c1,22.8-1.5,29.6-10,41.7c11.7,1.7,15.3,22.2,14.9,37.4
					c-0.5,23.3-8.5,28.5-22.6,32.3c-16.6,4.5-30.4,4.7-47.2,1.7c-14.1-2.5-29.2-9.8-43.8-9.6c-23.9,0.3-47.6-3.9-71.2-8.8
					c-15.9-3.3-38.3-1.3-48.6-21.9c-8.4-16.7-11.4-38-5.8-57.2c3-10.5,18.6-39.2,27.7-20.7c-12.9-15.1-13-29.9-9-47.3
					c4-17.4,18-32.7,30.1-23.7c-8.1-22.6-1-46.7,13.4-61.1C113.6,401.6,139.3,376.9,154.3,414.4z"/>
				<path class="st2" d="M352.4,477.2c-21.7-34.8,12.7-82.6,36.1-54.9c-19.5-55.8,48.8-87.3,51.3-28.4
					c17.2-31.6,56.4-14.8,47.7,28.9c33.1-14.3,49.1,48.6,29.1,71.8c17.3,6,20.3,43.5,7.8,57.9c-11.3,13-39.3,9.9-54,9.9
					c-19.5,0-39.2-1.7-58.2-4c-21.5-2.6-55.3,7-73.1-15.9c-7.9-10.1-16.8-19.3-12.8-47.9C327.8,483.5,345,459.2,352.4,477.2z"/>
			</g>
			<path class="st3" d="M740.7,608c0,35.3-173.4,63.9-387.4,63.9c-213.9,0-387.4-28.6-387.4-63.9c0-35.3,173.4-63.9,387.4-63.9
				C567.3,544,740.7,572.7,740.7,608z"/>
			<path class="st4" d="M307.1,212.8c11.2,5.7,24.8,11,35.8,4.8c4-2.2,8.3-6,12.5-4.7c0.4-0.9,0.8-1.7,1.3-2.5
				c3.1-4.9,8.8-8,14.5-7.9c3.5,0,7.2,1.3,9.1,4.2c1.9,2.9,1.1,7.6-2.1,9c1.1-2.5-0.7-5.6-3.3-6.4c-2.6-0.8-5.6,0.5-7.2,2.6
				c-1.7,2.1-2.3,5-2.2,7.7c0.1,4.5,2.2,8.9,5.4,12.1c7.2,3.5,16.5,3.1,22.5-2.4c1.9,6.2,10.7,9,15.8,5c0.6,8.1,7.5,14.8,15.4,16.8
				c7.9,1.9,16.3-0.3,23.4-4.3c7.1-4,13-9.8,18.8-15.4c4.4,3.7,11.1,4.6,16.3,2c5.2-2.6,8.6-8.4,8.4-14.2c4.7-7.4,14.8-9.3,23.6-8.7
				c8.8,0.6,17.6,3,26.3,1.2c7.8-1.6,14.6-6.4,21.9-9.5c7.4-3,16.8-4,22.6,1.5c-7.4-7.4-18.7-10.7-28.9-8.5c-8.5,1.8-17.8,7-25,2.3
				c-6.3-4.1-6.6-13.1-10.6-19.4c-3.2-5-9-8.3-15-8.4c-6-0.1-11.9,3-15.3,7.9c-9.1-7.5-24.3-6-31.8,3.1c-1.8-1.8-3.5-3.6-5.3-5.3
				c4.9-7.3,2.9-18.4-4.3-23.5c-5.3-3.8-12.9-3.7-18.5-0.6c1.8,3.1,2.8,6.7,2.6,10.3c-0.3,6.4-4.2,12.6-9.9,15.4
				c-5.8,2.8-13.3,1.8-18-2.5c-2.2-2-3.8-4.8-4.1-7.9c-0.2-3,1.1-6.2,3.7-7.8c2.6-1.6,6.3-1.2,8.2,1.1c1.9,2.3,1.3,6.4-1.3,7.8
				c2-1.3,1.9-4.7,0-6.1c-1.9-1.5-4.8-1-6.5,0.7c-1.6,1.8-1.9,4.5-1,6.7c0.9,2.2,2.8,3.9,5,4.9c3.4,1.6,7.6,1.5,11-0.2
				c3.4-1.7,5.9-5.1,6.6-8.8c0.6-3.2-0.1-6.5-1.6-9.5c-7-8.6-20.6-10.9-30.1-5.1c-9.5,5.9-13.5,19.3-8.8,29.5
				c-4.4-4.9-11.8-7-18.1-5.1c-6.3,1.9-11.4,7.7-12.4,14.2c-5.3-2.6-11.6,0.7-15.7,5c-4.1,4.2-7.3,9.6-12.6,12.3
				c-6,3.1-13.3,2.1-19.7,0c-6.4-2.1-12.5-5.3-19.2-6.3c-6.7-1-14.3,0.6-18.1,6.2C282.9,201.1,295.9,207.2,307.1,212.8z"/>
			<path class="st4" d="M-28.1,127.6c11.2,5.7,24.8,11,35.8,4.8c4-2.2,8.3-6,12.5-4.7c0.4-0.9,0.8-1.7,1.3-2.5
				c3.1-4.9,8.8-8,14.5-7.9c3.5,0,7.2,1.3,9.1,4.2c1.9,2.9,1.1,7.6-2.1,9c1.1-2.5-0.7-5.6-3.3-6.4c-2.6-0.8-5.6,0.5-7.2,2.6
				c-1.7,2.1-2.3,5-2.2,7.7c0.1,4.5,2.2,8.9,5.4,12.1c7.2,3.5,16.5,3.1,22.5-2.4c1.9,6.2,10.7,9,15.8,5c0.6,8.1,7.5,14.8,15.4,16.8
				c7.9,1.9,16.3-0.3,23.4-4.3c7.1-4,13-9.8,18.8-15.4c4.4,3.7,11.1,4.6,16.3,2c5.2-2.6,8.6-8.4,8.4-14.2c4.7-7.4,14.8-9.3,23.6-8.7
				c8.8,0.6,17.6,3,26.3,1.2c7.8-1.6,14.6-6.4,21.9-9.5c7.4-3,16.8-4,22.6,1.5c-7.4-7.4-18.7-10.7-28.9-8.5c-8.5,1.8-17.8,7-25,2.3
				c-6.3-4.1-6.6-13.1-10.6-19.4c-3.2-5-9-8.3-15-8.4c-6-0.1-11.9,3-15.3,7.9c-9.1-7.5-24.3-6-31.8,3.1c-1.8-1.8-3.5-3.6-5.3-5.3
				c4.9-7.3,2.9-18.4-4.3-23.5c-5.3-3.8-12.9-3.7-18.5-0.6c1.8,3.1,2.8,6.7,2.6,10.3c-0.3,6.4-4.2,12.6-9.9,15.4
				c-5.8,2.8-13.3,1.8-18-2.5c-2.2-2-3.8-4.8-4.1-7.9c-0.2-3,1.1-6.2,3.7-7.8c2.6-1.6,6.3-1.2,8.2,1.1c1.9,2.3,1.3,6.4-1.3,7.8
				c2-1.3,1.9-4.7,0-6.1c-1.9-1.5-4.8-1-6.5,0.7c-1.6,1.8-1.9,4.5-1,6.7c0.9,2.2,2.8,3.9,5,4.9c3.4,1.6,7.6,1.5,11-0.2
				c3.4-1.7,5.9-5.1,6.6-8.8c0.6-3.2-0.1-6.5-1.6-9.5c-7-8.6-20.6-10.9-30.1-5.1c-9.5,5.9-13.5,19.3-8.8,29.5
				c-4.4-4.9-11.8-7-18.1-5.1c-6.3,1.9-11.4,7.7-12.4,14.2c-5.3-2.6-11.6,0.7-15.7,5c-4.1,4.2-7.3,9.6-12.6,12.3
				c-6,3.1-13.3,2.1-19.7,0c-6.4-2.1-12.5-5.3-19.2-6.3c-6.7-1-14.3,0.6-18.1,6.2C-52.3,115.9-39.3,122-28.1,127.6z"/>
		</g>
		<g style="clip-path:url(#SVGID_00000041976263182012975410000000732595642207307670_);">
			<path class="st5" d="M248.1,311.7c33.4,2,69.3,3,107.4,2.4c40.7-0.7,78.8-3,114.1-6.5c-18.4-9.8-52.4-24.8-97.4-26.7
				C311.8,278.3,266.8,300.9,248.1,311.7z"/>
			<polygon class="st6" points="379.4,416.3 339.7,416.3 342.1,384.4 343.3,369.8 375.8,369.8 376.9,383.7 			"/>
			<g>
				<g>
					<path class="st6" d="M396.8,331.6c1.3-3.5,6.4-6.8,8.6-5.6c2.2,1.3,3.4,7.4,2.5,11.3c-0.9,3.9-4.5,10.9-5.8,12.3
						c-1.3,1.4-5.9,4.2-8.8,3.4L396.8,331.6z"/>
					<path class="st7" d="M398.1,329.4c-0.5,0.7-1,1.4-1.3,2.2l-3.5,21.5c1.9,0.5,4.5-0.5,6.4-1.6L398.1,329.4z"/>
					<path class="st6" d="M321.1,331.6c-1.3-3.5-6.4-6.8-8.6-5.6c-2.2,1.3-3.4,7.4-2.5,11.3c0.9,3.9,4.5,10.9,5.8,12.3
						c1.3,1.4,5.9,4.2,8.8,3.4L321.1,331.6z"/>
					<path class="st7" d="M319.9,329.4c0.5,0.7,1,1.4,1.3,2.2l3.5,21.5c-1.9,0.5-4.5-0.5-6.4-1.6L319.9,329.4z"/>
				</g>
				<path class="st7" d="M376.9,383.7c-3.8,3.9-9.7,8.2-17.2,8.2c-6.6-0.1-12-3.5-13.8-4.6c-1.4-0.9-2.6-1.8-3.7-2.8l1.1-14.6h32.5
					L376.9,383.7z"/>
				<path class="st6" d="M359,264.1c-36.4,0-42,24.7-42,38.9c0,14.2,1.3,27.6,6.3,46.8c4.6,17.7,13.6,24,20.3,29.6
					c6.7,5.6,11.4,7.4,15.4,7.4c4,0,8.7-1.8,15.4-7.4c6.7-5.6,15.7-12,20.3-29.6c5-19.2,6.3-32.6,6.3-46.8
					C401,288.8,395.4,264.1,359,264.1z"/>
				<path class="st8" d="M359,258.2c4.3-2.7,9.4-3.4,13.6-3c4.1,0.4,19.9,7.6,25.8,12.9c5.9,5.3,10.7,16.5,10.8,28.5
					c0.1,12.1-4.8,28.5-5.2,29.1c-0.5,0.6-5.1,4.9-5.1,4.9s-0.2-6.3-0.4-6.8c-0.2-0.5-2.4-4.8-3-5.3c-0.6-0.5,0.1-3.4,0-4.2
					c-0.1-0.8-0.6-4-2.1-6.2c-1.7,4.6-4.2,8.7-5.1,8.6c-0.5-0.1-2.1-2.6-3.8-5.5c-3.2-5.7-4-7.7-5.5-9.9c0,1.1-2.9,10.2-4,10.2
					c-1.1,0-2.6-6.6-4.1-11.2c-1.4-4.6-5-11.8-5.6-11.7c-0.6,0.1-6.2,3.8-6.2,3.8s-5.6-3.7-6.2-3.8c-0.6-0.1-4.2,7.1-5.6,11.7
					c-1.4,4.6-2.9,11.2-4,11.2c-1.1,0-4.1-9.1-4.1-10.2c-1.4,2.2-2.3,4.2-5.5,9.9c-1.7,3-3.3,5.5-3.8,5.5c-0.9,0.1-3.4-3.9-5.1-8.6
					c-1.5,2.3-2,5.4-2.1,6.2c-0.1,0.8,0.6,3.7,0,4.2c-0.6,0.5-2.8,4.8-3,5.3c-0.2,0.5-0.4,6.8-0.4,6.8s-4.6-4.3-5.1-4.9
					c-0.5-0.6-5.3-17.1-5.2-29.1c0.1-12.1,4.9-23.2,10.8-28.5c5.9-5.3,21.7-12.4,25.8-12.9C349.6,254.8,354.7,255.5,359,258.2z"/>
			</g>
			<path class="st9" d="M332.1,396.7"/>
			<g>
				<path class="st10" d="M444.7,557.1c-8.4,2.2-16.6-4.1-18.9-6c0.3,13.7,0.6,27.5,0.9,41.2H298.1c1.3-7.4,2.5-15.3,3.5-23.5
					c1.1-8.9,1.9-17.4,2.4-25.5c-5.8,3.9-21.9,13.9-31.9,8.2c-12.1-6.9-12.1-34.7-12.1-53.4c0,0,0,0,0,0c1.2-13.9,3.6-29.2,6-44.6
					c1-6.4,2.8-16.8,10.8-26.3c1.9-2.3,4-4.3,6.1-5.9c1.5-1.3,3.1-2.4,4.6-3.3c3.9-2.4,7.5-3.9,10.1-4.9l34.5-9.5v-12.6
					c20.7-0.3,26.1,8.4,27.3,11.5c1.3-3.1,6.6-11.8,27.3-11.5v12.6l34.5,9.5c16.3,4.5,27.8,18.9,28.8,35.7c0.1,1.5,0.1,2.9,0.3,4.4
					c3.3,27.9,6.4,62.3,9.6,90.2C460.6,548.3,454.8,554.5,444.7,557.1z"/>
				<line class="st9" x1="359.5" y1="402.4" x2="359.5" y2="592.3"/>
				<line class="st9" x1="346.3" y1="433" x2="372.7" y2="433"/>
				<line class="st9" x1="346.3" y1="498" x2="372.7" y2="498"/>
				<line class="st9" x1="346.3" y1="553.4" x2="372.7" y2="553.4"/>
				<path class="st11" d="M359.5,404.6c0,0-9.4-13-27.3-7.9v-5.8c0,0,22-1.2,27.3,11.5V404.6z"/>
				<path class="st11" d="M359.5,404.6c0,0,9.4-13,27.3-7.9v-5.8c0,0-22-1.2-27.3,11.5V404.6z"/>
			</g>
			<g>
				<g>
					<path d="M332.5,331.5c3.9-8.5,16.2-9.5,21.7-2c0,0-1.8,1.4-1.8,1.4c-3.5-4.5-10.2-6-15.3-3.3c-1.7,0.9-3.3,2.2-4.5,3.9
						C332.7,331.6,332.5,331.5,332.5,331.5L332.5,331.5z"/>
				</g>
			</g>
			<g>
				<g>
					<path d="M386.6,332.9c-4.3-6.9-14.4-7.8-19.7-1.5c0,0-1.8-1.5-1.8-1.5c4.2-5.3,12.6-6.2,17.8-2c1.7,1.3,3,3,3.8,4.9
						C386.8,332.8,386.6,332.9,386.6,332.9L386.6,332.9z"/>
				</g>
			</g>
			<path class="st12" d="M350.3,367.9c0.2,1.7,5.2,2.8,8.8,2.8c3.8,0,9-1.2,9.1-2.9c0.1-1.7-4.3-3.8-8.4-3.9
				C355.1,363.7,350.1,366.2,350.3,367.9z"/>
			<g>
				<path class="st12" d="M354.4,356.3c2.9-1.4,6.3-1.5,9.2-0.1C360.7,357.7,357.3,357.7,354.4,356.3L354.4,356.3z"/>
			</g>
			<path id="XMLID_00000027597634160506436220000008404428498122006949_" class="st13" d="M248.1,311.7c0,0,39.6-17,93.2-18.5
				c83.3-2.4,128.2,14.4,128.2,14.4l-112.7-66.5L248.1,311.7z"/>
			<path id="XMLID_00000127732604679116063760000005471920835474022836_" class="st14" d="M359.7,247.9
				c14.9,14.2,27.6,29.7,38.2,46.6c46.9,3.8,71.6,13.1,71.6,13.1l-112.7-66.5l-3.4,2.2C355.6,244.8,357.6,246.4,359.7,247.9z"/>
			<g>
				<path d="M369,340.4c0,0,0,0-0.1-0.1c-0.3-0.1-0.5-0.2-0.8-0.4c0.2-0.4,0.6-0.9,1.1-1.4c0.1-0.1,0.6-0.7,1.3-1.1
					c0.8-0.5,1.5-0.5,3.7-0.7c2.9-0.2,3.2-0.4,3.9-0.1c1,0.3,2.2,1.1,2.1,1.9c0,0.3-0.2,0.4-0.4,0.7c-0.9,0.9-2,1-2,1.1
					c0,0.1,1.5,0.3,2.8-0.5c0.8-0.5,1.2-1.3,1.4-1.7c0.4,0,1.1,0.1,1.9,0.3c1,0.2,1.3,0.3,1.4,0.2c0.1-0.2-1.6-1.1-3.3-1.8
					c-0.7-0.3-1.7-0.6-3.1-0.8c-0.6-0.1-1.4-0.2-3.9,0c-1.2,0.1-2.8,0.2-4.7,0.5c-0.7,0.4-1.7,1-2.7,2c-1.2,1.2-2,2.5-1.9,2.6
					c0.1,0.1,0.5-0.3,1.3-0.5c0.3,0,0.3,0,0.8,0C368.3,340.7,369,340.5,369,340.4z"/>
				<path d="M377.1,336.4c0.1,0.3,0.3,0.8,0.3,1.4c0,1.4-1,2.2-1.2,2.4c-0.9,0.8-2,0.7-2.6,0.7c-0.5,0-1.2-0.1-2-0.6
					c-0.4-0.2-1-0.7-1.3-1.5c-0.2-0.9,0.2-1.7,0.3-1.9c0.8-0.1,1.7-0.3,2.6-0.3C374.6,336.4,375.9,336.3,377.1,336.4z"/>
			</g>
			<g>
				<path d="M349.3,340.4c0,0,0,0,0.1-0.1c0.3-0.1,0.5-0.2,0.8-0.4c-0.2-0.4-0.6-0.9-1.1-1.4c-0.1-0.1-0.6-0.7-1.3-1.1
					c-0.8-0.5-1.5-0.5-3.7-0.7c-2.9-0.2-3.2-0.4-3.9-0.1c-1,0.3-2.2,1.1-2.1,1.9c0,0.3,0.2,0.4,0.4,0.7c0.9,0.9,2,1,2,1.1
					c0,0.1-1.5,0.3-2.8-0.5c-0.8-0.5-1.2-1.3-1.4-1.7c-0.4,0-1.1,0.1-1.9,0.3c-1,0.2-1.3,0.3-1.4,0.2c-0.1-0.2,1.6-1.1,3.3-1.8
					c0.7-0.3,1.7-0.6,3.1-0.8c0.6-0.1,1.4-0.2,3.9,0c1.2,0.1,2.8,0.2,4.7,0.5c0.7,0.4,1.7,1,2.7,2c1.2,1.2,2,2.5,1.9,2.6
					c-0.1,0.1-0.5-0.3-1.3-0.5c-0.3,0-0.3,0-0.8,0C350,340.7,349.3,340.5,349.3,340.4z"/>
				<path d="M341.2,336.4c-0.1,0.3-0.3,0.8-0.3,1.4c0,1.4,1,2.2,1.2,2.4c0.9,0.8,2,0.7,2.6,0.7c0.5,0,1.2-0.1,2-0.6
					c0.4-0.2,1-0.7,1.3-1.5c0.2-0.9-0.2-1.7-0.3-1.9c-0.8-0.1-1.7-0.3-2.6-0.3C343.7,336.4,342.4,336.4,341.2,336.4z"/>
			</g>
			<path class="st15" d="M531.6,606.7l-33.5-37.1c-3.7-4.1-13.2-6.9-23.7-6.9h-240c-10.5,0-20,2.7-23.7,6.9l-33.5,37.1
				c-2.3,2.5-1.7,5.1,0.9,7.2h352.7C533.3,611.8,533.8,609.2,531.6,606.7z"/>
			<g>
				<g>
					<path class="st12" d="M316.5,382.7c0.3-2.2,0.3-4.4-0.1-6.6c-0.2-1.2-0.5-2.4-1.6-3c-0.4-0.2-0.8-0.3-1.3-0.3
						c-1.1-0.1-2.3,0.2-2.9,1.1c-0.4,0.6-0.6,1.4-0.6,2.1c-0.3,2.7-0.5,5.4-0.5,8.1c2-0.1,4.2-0.3,6.1-0.4
						C316.2,383.5,316,382.8,316.5,382.7z"/>
					<g>
						<path class="st16" d="M351.9,382.6l-76.2-14.4l0.3-0.6c0.6-1,1.1-1.6,2.3-1.4l72.8,15.7C351.6,382,351.9,382.3,351.9,382.6z"
							/>
						<path class="st17" d="M351.9,382.6c0,0.1,0,0.2,0,0.3c-0.1,0.5-0.5,0.8-1,0.8l-74-12.1c-1-0.2-1.7-1.1-1.4-2.1l0.3-1.2
							L351.9,382.6z"/>
					</g>
					<g>
						<path class="st16" d="M270.3,381.4c0.4-0.5,1.1-0.8,1.8-0.8l74.8,3c0.4,0,0.7,0.2,0.8,0.6l-77.5-1.4L270.3,381.4z"/>
						<path class="st17" d="M347.8,384.1c0,0.1,0.1,0.2,0.1,0.3c0,0.5-0.4,0.9-0.9,0.9l-75.1,0.5c-0.9,0-1.7-0.8-1.6-1.7l0.1-1.4
							L347.8,384.1z"/>
					</g>
					<path class="st12" d="M307.8,409.5c2.8-2.1,4.8-5.2,5.6-8.6c0.8-3.4,0.4-7.1-1.1-10.2c-2.7,0.2-5.2,1.6-6.6,3.9
						c-1.4,2.3-1.7,5.1-1.3,7.7C304.8,405,306.4,407.2,307.8,409.5z"/>
					<path class="st6" d="M292.6,420.9c0.9-9.2-1.3-18.7-6.1-26.7c-0.6-0.9-1.2-1.9-1.2-2.9c-0.1-1.7,1-3.2,2.1-4.5
						c0.7-4.3,4.2-7.3,7.5-10.1c2-1.8,4.1-3.6,6.4-5c1.4-0.9,2.9-1.6,4.4-2.3c2.4-1.2,4.7-2.3,7.1-3.5c0.8-0.4,1.8-0.8,2.6-0.4
						c0.9,0.4,1.1,1.6,0.8,2.6s-1.1,1.6-1.8,2.3c-2,1.8-4,3.6-6.4,5c4.4,1.3,8.6,3.4,12.4,6.2c0.6,0.5,1.3,1,1.5,1.7s-0.2,1.7-1,1.8
						c1,0.9,1.4,2.2,2.1,3.3c0.6,1,1.1,2.1,0.8,3.2c-0.2,0.8-0.9,1.5-1.7,1.7c-0.8,0.2-1.7-0.1-2.3-0.7c0.5,0.8,0.8,1.6,1,2.5
						c0.1,0.5,0.2,1,0,1.4c-0.3,0.6-0.9,0.8-1.5,0.8c-0.6,0-1.2-0.3-1.7-0.5c-0.7-0.4-1.4-0.8-2-1.3c-0.2-0.2-0.5-0.4-0.7-0.4
						c-0.5-0.1-1,0.3-1.4,0.6c-1.3,1.1-2.8,2-4.3,2.8c-0.1,1.6-0.2,2.8-0.1,4.4c2.3,2.7,3.7,6.4,4,10c0.2,3.6-0.8,7.2-2.8,10.2
						C304,422.2,298.6,421.7,292.6,420.9z"/>
				</g>
				<path class="st18" d="M317.4,420.2c-0.3,3.8-0.5,7.5-0.8,11.2c0,0.4,0,0.6-0.1,0.8c0,0.1,0,0.1,0,0.1c-0.8,5.8-2,15.5-2.8,27.4
					c-3.1,47.8-2.2,68.9-9.8,83.7c-1.2,2.4-9.7,9.5-21,10c-3.2,0.1-7,0.1-10.9-1.8c-12.8-6.5-14.4-27.3-12.1-53.4c0,0,0,0,0,0
					c7.3-22.9,14.6-45.8,21.9-68.7c0-0.1,0-0.2,0-0.2c0.8-4,1.6-8.1,2.4-12.1c6.7,0.8,13.6,1.6,20.7,2.2
					C309.2,419.6,313.3,420,317.4,420.2z"/>
			</g>
			<g>
				<path class="st19" d="M333.7,438.1c0.4-3.4,1-7.6,2-12.4c1-5.2,1.5-7.8,2.6-10.6c2.7-6.8,4.9-6.1,6.4-11.1
					c0.8-2.7,0.3-3.2,0.4-16.3c0.1-5.5,0.2-6.9,1-7.3c2-0.9,7.2,3.7,9.4,9.4c3.9,10.2-5.1,15.6-2,27.1c1.9,7.1,6.3,8.4,6.5,15.4
					c0.2,5.2-2,9.5-3.9,12.3"/>
				<path class="st19" d="M337.7,438.9c2.9-8,4.2-14.9,4.9-19.9c0.5-4,0.9-6.9,0.7-11c-0.3-6.9-1.8-8.9-1.2-14.4
					c0.1-0.6,1-9.9,4.2-10.4c2.4-0.3,4.9,4.6,6.7,8c2.4,4.7,5.1,10,4.5,16.7c-0.8,8.2-5.7,9.4-4.5,15.7c0.7,3.6,2.6,5.2,2.9,10.2
					c0.1,2.7-0.3,4.9-0.7,6.4"/>
				<path class="st19" d="M338.5,438.1c-1.2-4-2.3-9.6-2.6-16.2c-0.1-1.7-0.3-8.2,1.6-17.6c1.4-7.3,4.5-23,9-23.1
					c3.9-0.1,7.7,11,9,18.4c1.1,6.1,0.2,8.8,0.7,18.3c0.3,7,1.1,12.7,1.7,16.4"/>
			</g>
			<g>
				<path class="st16" d="M347.8,384.2l-7.7-0.1v-0.7l6.9,0.2C347.4,383.6,347.7,383.8,347.8,384.2z"/>
				<path class="st17" d="M347.9,384.4c0,0.5-0.4,0.9-0.9,0.9l-6.9,0V384l7.7,0.1C347.8,384.2,347.9,384.3,347.9,384.4z"/>
			</g>
			<polyline class="st20" points="340.1,386.1 340.1,385.4 340.1,384 340.1,383.3 340.1,382.8 			"/>
			<path class="st11" d="M317.9,420.1c-0.3,3.9-0.5,7.8-0.8,11.5c0,0.3,0,0.6-0.1,0.9c-11.9-1.1-23.8-2.1-35.7-3.2
				c1-4.1,2-8.2,3-12.2c5.2,0.6,10.6,1.1,16,1.6C306.3,419.2,312.2,419.7,317.9,420.1z"/>
			<g>
				<path class="st21" d="M387.4,493.5c-4-6.3-7.9-12.5-11.9-18.8c-1.9-0.2-5.1-0.5-9-0.8c-10-0.6-13.6,0.1-19.1-1.7
					c-2-0.7-5.1-2-8.6-4.7c-0.6-0.4-0.8-1.2-0.5-1.8c0.3-0.6,1.2-0.9,1.9-0.5c2.3,0.8,5.8,1.7,10,2.5c5.9,1.1,14.6,2.5,24.9,0.1
					c3.6-0.8,8.9-2.5,14.8-6.2c4.7,6.3,9.3,12.6,14,18.9C398.4,484.9,392.9,489.2,387.4,493.5z"/>
				<path class="st18" d="M372.8,484.9c1.5,2.5,3,4.9,4.4,7.2c0.1,0.2,0.2,0.4,0.3,0.5c0,0.1,0,0.1,0,0.1c2.5,3.6,6.6,9.7,11.6,17.3
					c21.9,32.9,28.5,44.7,41.8,49.2c3,1,10,3.2,17.7,0.7c1-0.3,6.7-2.3,9.4-6.1c5.4-7.5,0-23.8-15.3-38.4c-12-13-23.4-26.4-34.3-40
					c0,0-0.1-0.1-0.1-0.1c-0.1-0.2-0.3-0.4-0.4-0.6c-1.2-1.7-2.2-3.1-3.1-4.4c-0.6-0.9-1.1-1.7-1.6-2.3c-1.3,0.7-2.5,1.4-3.8,2.1
					L372.8,484.9z"/>
				<path class="st11" d="M371.2,484.4c2.2,3.4,4.3,6.7,6.4,9.9c0.2,0.3,0.3,0.5,0.5,0.8c10.2-6.7,20.4-13.4,30.7-20.1
					c-0.2-0.3-0.4-0.6-0.6-0.8c-2.9-4-5.2-7.2-6.5-9.2C391.5,471.5,381.4,477.9,371.2,484.4z"/>
			</g>
			<g>
				<path class="st22" d="M398.7,448c0,2.5-16.2,4.5-36.1,4.5c-19.9,0-36.1-2-36.1-4.5c0-2.5,16.2-4.5,36.1-4.5
					C382.5,443.6,398.7,445.6,398.7,448z"/>
				<path class="st19" d="M331.5,452.8c1.2-1.7,2.5-2.7,3.8-3.2c4-1.6,6.7,1.6,10.5-0.1c2.3-1,2.9-2.9,4.9-2.7
					c1.5,0.2,2.4,1.4,2.7,1.8c1.7,2.1,1.8,5.7,0.5,6.4c-1.6,0.9-5.8-2.8-5.3-4.2c0.4-1.1,3.6,0.2,9.3-1c3.9-0.8,5.5-2.2,6-1.6
					c0.9,1.1-3.4,7.4-5.6,6.7c-1.7-0.5-2.5-5.3-0.8-6.7c2.3-1.9,9.5,3.3,10.7,1.7c0.2-0.3,0-0.5,0.3-0.8c0.9-1.2,4.4-1.2,5.7,0.7
					c1.2,1.8,0,4.6-1.6,5.7c-2.9,1.8-8.1-1.1-8.2-3.8c-0.1-1.6,1.6-3.3,3.3-3.9c1.6-0.5,2.3,0.3,4.8,0.3c2.3,0.1,2.6-0.5,5.3-0.9
					c2.7-0.3,6.3-0.7,7.9,1.2c1.8,2.2,0.6,6.7-0.7,6.9c-0.7,0.1-1.1-1-4.2-4.1c-1.2-1.2-1.8-1.8-2.3-2c-2.6-0.8-4.1,2.9-7,2.8
					c-3.9-0.1-5.8-6.9-8.2-6.3c-1.6,0.4-0.9,3.3-2.8,4.4c-3.6,2.1-10-5.9-13.5-4c-3,1.6-0.4,8.5-3.5,10.2c-2.5,1.3-7.6-0.9-8.2-4.3
					c-0.3-1.7,0.6-4.1,2.2-4.6c2.8-0.8,4.8,5.3,11.4,8.3c3.6,1.6,6.8,1.5,10.9,1.3c4.9-0.2,6.8-1.3,17.7-4
					c9.1-2.3,11.3-2.4,12.2-1.2c1.1,1.5-0.2,4.5-1.6,6.9"/>
				<path class="st19" d="M332.2,455.3c1.2-1.7,2.5-2.7,3.8-3.2c4-1.6,6.7,1.6,10.5-0.1c2.3-1,2.9-2.9,4.9-2.7
					c1.5,0.2,2.4,1.4,2.7,1.8c1.7,2.1,1.8,5.7,0.5,6.4c-1.6,0.9-5.8-2.8-5.3-4.2c0.4-1.1,3.6,0.2,9.3-1c3.9-0.8,5.5-2.2,6-1.6
					c0.9,1.1-3.4,7.4-5.6,6.7c-1.7-0.5-2.5-5.3-0.8-6.7c2.3-1.9,9.5,3.3,10.7,1.7c0.2-0.3,0-0.5,0.3-0.8c0.9-1.2,4.4-1.2,5.7,0.7
					c1.2,1.8,0,4.6-1.6,5.7c-2.9,1.8-8.1-1.1-8.2-3.8c-0.1-2,2.8-3.6,3.3-3.9c2-1.1,3.4-0.8,10.1-0.5c5.9,0.3,7,0.2,7.9,1.2
					c1.8,2.2,0.6,6.7-0.7,6.9c-0.7,0.1-1.1-1-4.2-4.1c-1.2-1.2-1.8-1.8-2.3-2c-2.6-0.8-4.1,2.9-7,2.8c-3.9-0.1-5.8-6.9-8.2-6.3
					c-1.6,0.4-0.9,3.3-2.8,4.4c-3.6,2.1-10-5.9-13.5-4c-3,1.6-0.4,8.5-3.5,10.2c-2.5,1.3-7.6-0.9-8.2-4.3c-0.3-1.7,0.6-4.1,2.2-4.6
					c2.8-0.8,4.8,5.3,11.4,8.3c3.6,1.6,6.8,1.5,10.9,1.3c4.9-0.2,6.8-1.3,17.7-4c9.1-2.3,11.3-2.4,12.2-1.2c1.1,1.5-0.2,4.5-1.6,6.9
					"/>
				<path class="st19" d="M329.7,452c-0.1-1.1,0.2-1.6,0.4-1.9c1.7-2,6.2,1.8,10.5-0.1c2.3-1,2.9-2.9,4.9-2.7
					c1.5,0.2,2.4,1.4,2.7,1.8c1.7,2.1,1.8,5.7,0.5,6.4c-1.6,0.9-5.8-2.8-5.3-4.2c0.4-1.1,3.6,0.2,9.3-1c3.9-0.8,5.5-2.2,6-1.6
					c0.9,1.1-3.4,7.4-5.6,6.7c-1.7-0.5-2.5-5.3-0.8-6.7c2.3-1.9,9.5,3.3,10.7,1.7c0.2-0.3,0-0.5,0.3-0.8c0.9-1.2,4.4-1.2,5.7,0.7
					c1.2,1.8,0,4.6-1.6,5.7c-2.9,1.8-8.1-1.1-8.2-3.8c-0.1-1.6,1.9-2.9,3.3-3.9c3.5-2.3,8.7-3.1,9.9-1.3c0.1,0.2,0.1,0.2,0.2,0.5
					c1.2,2,5.9-0.2,7.9,1.6c1.9,1.7,0.7,6.7-0.7,6.9c-0.7,0.1-1.1-1-4.2-4.1c-1.2-1.2-1.8-1.8-2.3-2c-2.6-0.8-4.1,2.9-7,2.8
					c-3.9-0.1-5.8-6.9-8.2-6.3c-1.6,0.4-0.9,3.3-2.8,4.4c-3.6,2.1-10-5.9-13.5-4c-3,1.6-0.4,8.5-3.5,10.2c-2.5,1.3-7.6-0.9-8.2-4.3
					c-0.3-1.7,0.6-4.1,2.2-4.6c2.8-0.8,4.8,5.3,11.4,8.3c3.6,1.6,6.8,1.5,10.9,1.3c4.9-0.2,6.8-1.3,17.7-4
					c9.1-2.3,11.3-2.4,12.2-1.2c1.1,1.5-0.2,4.5-1.6,6.9"/>
				<path class="st19" d="M395.6,453.3c-1.2-1.7-2.5-2.7-3.8-3.2c-4-1.6-6.7,1.6-10.5-0.1c-2.3-1-2.9-2.9-4.9-2.7
					c-1.5,0.2-2.4,1.4-2.7,1.8c-1.7,2.1-1.8,5.7-0.5,6.4c1.6,0.9,5.8-2.8,5.3-4.2c-0.4-1.1-3.6,0.2-9.3-1c-3.9-0.8-5.5-2.2-6-1.6
					c-0.9,1.1,3.4,7.4,5.6,6.7c1.7-0.5,2.5-5.3,0.8-6.7c-2.3-1.9-9.5,3.3-10.7,1.7c-0.2-0.3,0-0.5-0.3-0.8c-0.9-1.2-4.4-1.2-5.7,0.7
					c-1.2,1.8,0,4.6,1.6,5.7c2.9,1.8,8.1-1.1,8.2-3.8c0.1-2-2.8-3.6-3.3-3.9c-2-1.1-3.4-0.8-10.1-0.5c-5.9,0.3-7,0.2-7.9,1.2
					c-1.8,2.2-0.6,6.7,0.7,6.9c0.7,0.1,1.1-1,4.2-4.1c1.2-1.2,1.8-1.8,2.3-2c2.6-0.8,4.1,2.9,7,2.8c3.9-0.1,5.8-6.9,8.2-6.3
					c1.6,0.4,0.9,3.3,2.8,4.4c3.6,2.1,10-5.9,13.5-4c3,1.6,0.4,8.5,3.5,10.2c2.5,1.3,7.6-0.9,8.2-4.3c0.3-1.7-0.6-4.1-2.2-4.6
					c-2.8-0.8-4.8,5.3-11.4,8.3c-3.6,1.6-6.8,1.5-10.9,1.3c-4.9-0.2-6.8-1.3-17.7-4c-9.1-2.3-11.3-2.4-12.2-1.2
					c-1.1,1.5,0.2,4.5,1.6,6.9"/>
				<path class="st23" d="M398.7,448c0,13.9-16.2,25.1-36.1,25.1c-19.9,0-36.1-11.3-36.1-25.1c0,2.5,16.2,4.5,36.1,4.5
					C382.5,452.5,398.7,450.5,398.7,448z"/>
			</g>
		</g>
	</g>
</g>
</svg>
