<?xml version="1.0" encoding="utf-8"?>
<!-- Generator: Adobe Illustrator 26.0.1, SVG Export Plug-In . SVG Version: 6.00 Build 0)  -->
<svg version="1.1" id="Layer_1" xmlns="http://www.w3.org/2000/svg" xmlns:xlink="http://www.w3.org/1999/xlink" x="0px" y="0px"
	 viewBox="0 0 756 810" style="enable-background:new 0 0 756 810;" xml:space="preserve">
<style type="text/css">
	.st0{clip-path:url(#SVGID_00000049197925284140397580000003375521640054423705_);fill:#FFD7DC;}
	.st1{clip-path:url(#SVGID_00000049197925284140397580000003375521640054423705_);fill:#D8989D;}
	.st2{clip-path:url(#SVGID_00000049197925284140397580000003375521640054423705_);}
	.st3{fill:#D8989D;}
	.st4{fill:none;stroke:#FFFFFF;stroke-width:1.948;stroke-miterlimit:10;}
	.st5{fill:#5D5D5D;}
	.st6{fill:#23426F;}
	.st7{fill:#E6E6E6;}
	.st8{fill:#FAD4AF;}
	.st9{fill:#F9C295;}
	.st10{fill:#E09D6C;}
	.st11{fill:#CE0D28;}
	.st12{fill:#D10F42;}
	.st13{fill:#FFCA19;}
	.st14{fill:#211511;}
	.st15{opacity:0.22;}
	.st16{fill:#E01440;}
	.st17{fill:none;stroke:#FFCA19;stroke-width:2.2497;stroke-miterlimit:10;}
	.st18{fill:none;stroke:#FFCA19;stroke-width:1.1248;stroke-miterlimit:10;}
	.st19{fill:#A04575;}
	.st20{fill:#B5598D;}
	.st21{fill:#F8AE38;}
	.st22{fill:#D7B26B;}
	.st23{fill:#FAD899;}
</style>
<g>
	<g>
		<g>
			<defs>
				<path id="SVGID_1_" d="M693.5,243.2c-13.8-24.6-30-46.2-46.6-64.5c-0.2,0.3-0.4,0.6-0.5,0.8c0.2-0.3,0.4-0.6,0.5-0.8
					c-3-3.4-61.3-52.5-61.3-52.5l0,0c-1.6-1.3-3.2-2.6-4.8-3.9c-46.6-39-81.9-109.7-211.1-98.9c-60.2,5-99.6,29.5-127.8,62.4
					c-8.5,9.9-16,20.7-22.8,32c-20.7,34.6-34.5,74.4-48.5,109.2C152,272.7,85.7,280,61.7,333.2c-21.8,25-33.2,64.7-38.9,93.4
					c-4.1,20.7-5.3,35.7-5.3,35.7c-6.5,144.6,123.4,255.3,257.4,295.4c30,9,60.2,14.4,89.1,15.9c13.6,0.7,27,0.5,39.9-0.6
					c2.6-0.2,5.3-0.5,7.9-0.8c1.8-0.2,3.7-0.4,5.5-0.7c1.6-0.2,3.1-0.4,4.7-0.6c0.8-0.1,1.7-0.2,2.6-0.4c0.8-0.1,1.6-0.2,2.5-0.4
					c43.4-6.7,92-21.8,136.6-45.1c0.2-0.1,0.4-0.2,0.7-0.3c71.9-37.7,133.3-96.7,145-175.4c1.6-11,15.8-44.6,20.3-92.8
					C738.6,361.9,712.3,285.6,693.5,243.2z M593.4,186.7c0,0,0.1,0.1,0.1,0.1C593.4,186.8,593.4,186.7,593.4,186.7z"/>
			</defs>
			<clipPath id="SVGID_00000018239298574092739740000003346739672978256022_">
				<use xlink:href="#SVGID_1_"  style="overflow:visible;"/>
			</clipPath>
			<path style="clip-path:url(#SVGID_00000018239298574092739740000003346739672978256022_);fill:#FFD7DC;" d="M693.5,243.2
				c-13.8-24.6-30-46.2-46.6-64.5c-3-3.4-61.3-52.5-61.3-52.5c-1.6-1.3-3.2-2.6-4.8-3.9c-46.6-39-81.9-109.7-211.1-98.9
				c-60.2,5-99.6,29.5-127.8,62.4c-8.5,9.9-16,20.7-22.8,32c-20.7,34.6-34.5,74.4-48.5,109.2C152,272.7,85.7,280,61.7,333.2
				c-21.8,25-33.2,64.7-38.9,93.4c-4.1,20.7-5.3,35.7-5.3,35.7c-6.5,144.6,123.4,255.3,257.4,295.4c30,9,60.2,14.4,89.1,15.9
				c13.6,0.7,27,0.5,39.9-0.6c2.6-0.2,5.3-0.5,7.9-0.8c1.8-0.2,3.7-0.4,5.5-0.7c1.6-0.2,3.1-0.4,4.7-0.6c0.8-0.1,1.7-0.2,2.6-0.4
				c0.8-0.1,1.6-0.2,2.5-0.4c43.4-6.7,92-21.8,136.6-45.1c0.2-0.1,0.4-0.2,0.7-0.3c71.9-37.7,133.3-96.7,145-175.4
				c10.4-51.6,24.7-81.5,24.7-158.5C736.5,339.8,693.5,243.2,693.5,243.2z"/>
			<path style="clip-path:url(#SVGID_00000018239298574092739740000003346739672978256022_);fill:#D8989D;" d="M705.6,579.5
				c-17.4,70.3-75,123.4-141.6,158.4c-0.2,0.1-0.4,0.2-0.7,0.4c-44.6,23.3-93.2,38.4-136.6,45.1c-0.8,0.1-1.6,0.3-2.5,0.4
				c-0.9,0.1-1.7,0.3-2.6,0.4c-1.6,0.2-3.1,0.4-4.7,0.6c-1.8,0.2-3.7,0.4-5.5,0.7c-2.7,0.3-5.3,0.6-7.9,0.8
				c-12.9,1.1-26.3,1.3-39.9,0.6c-28.9-1.5-59.1-6.9-89.1-15.9c-93.6-28-185.3-90.5-229.8-175c95.2-21.8,217-40.9,358.9-41.9
				C518.6,553.2,620.4,564.4,705.6,579.5z"/>
			<g style="clip-path:url(#SVGID_00000018239298574092739740000003346739672978256022_);">
				<path class="st3" d="M189.7,242.5c0,1.9-1.2,3.4-2.7,3.4c-1.5,0-2.7-1.5-2.7-3.4c0-1.9,1.2-3.4,2.7-3.4
					C188.5,239.1,189.7,240.6,189.7,242.5z"/>
				<path class="st3" d="M212.5,249c0,1.9-1.2,3.4-2.7,3.4c-1.5,0-2.7-1.5-2.7-3.4c0-1.9,1.2-3.4,2.7-3.4
					C211.3,245.6,212.5,247.1,212.5,249z"/>
				<path class="st3" d="M288.8,146.5c0,1.9-1.2,3.4-2.7,3.4c-1.5,0-2.7-1.5-2.7-3.4c0-1.9,1.2-3.4,2.7-3.4
					C287.6,143.1,288.8,144.7,288.8,146.5z"/>
				<path class="st3" d="M644.9,450.6c0,1.9-1.2,3.4-2.7,3.4s-2.7-1.5-2.7-3.4s1.2-3.4,2.7-3.4S644.9,448.7,644.9,450.6z"/>
				<path class="st3" d="M654.2,441.3c0,1.9-1.2,3.4-2.7,3.4s-2.7-1.5-2.7-3.4s1.2-3.4,2.7-3.4S654.2,439.4,654.2,441.3z"/>
				<ellipse class="st3" cx="202.7" cy="231.4" rx="4.4" ry="5.5"/>
				<path class="st3" d="M198.3,434.9c0,4-2.5,7.2-5.7,7.2c-3.1,0-5.7-3.2-5.7-7.2c0-4,2.5-7.2,5.7-7.2
					C195.8,427.7,198.3,430.9,198.3,434.9z"/>
				<path class="st3" d="M235.1,327.4c0,18.1-15.6,32.7-34.8,32.7c-19.2,0-34.8-14.7-34.8-32.7c0-18.1,15.6-32.7,34.8-32.7
					C219.5,294.7,235.1,309.4,235.1,327.4z"/>
				<path class="st3" d="M587.6,87.6c0,29-25,52.6-55.9,52.6c-30.9,0-56-23.5-56-52.6c0-29,25-52.6,56-52.6
					C562.5,35,587.6,58.5,587.6,87.6z"/>
				<ellipse class="st4" cx="235" cy="106.8" rx="18.1" ry="22.8"/>
			</g>
		</g>
	</g>
	<g>
		<g>
			<path class="st5" d="M280.3,490.8c-0.6-1.2-15.5-28.5-10.8-45.4l6.8,0.8c-3.3,11.9,6.4,33.3,10.4,40.7L280.3,490.8z"/>
			<path class="st5" d="M347.5,473.7c-0.7-1.1-16.1-27.7-12.2-44l6.7,0.8c-2.7,11.6,7.5,32.4,11.7,39.5L347.5,473.7z"/>
			<path class="st5" d="M387,688.3c4.8-86.1,9.4-167-22.1-180.7l-3.5,8.2c26.7,11.7,21.7,93.6,16.9,172.8L387,688.3z"/>
			<path class="st5" d="M471.7,657c-2.8,0.3-5.6,0.6-8.4,0.8c0.6-11.4,0.8-23.3,0.6-35.6c-1-56.4-10.8-106.1-23.3-147.4l3-7.1
				c14.8,42.3,27.1,94.4,28.5,154.3C472.4,634.1,472.3,645.8,471.7,657z"/>
			<path class="st5" d="M317.4,654.3l8.9-1c0.6-19.3,0.3-39.6,0-60.5c-0.9-61-1.9-125.4,25.1-137.9l-3-6.1
				c-32.1,14.7-31.4,78.6-30.7,145.2C317.9,614.9,318.1,635.1,317.4,654.3z"/>
			<path class="st5" d="M251.9,673.1c2.3-78.4,4.7-159.7,33.2-175.1l-2.8-7.6c-33.8,18.1-36.5,98.7-39.5,184.2L251.9,673.1z"/>
			<path class="st6" d="M327.7,313.4c-19.7-0.1-58.7,9.7-69.7,27.2c-11.2,18-3.9,107.9,7.1,114.5c11,6.6,76.6-13.2,90.5-35.3
				C369,398.4,367.8,313.7,327.7,313.4z"/>
			<path class="st6" d="M343.7,472c-25.9,5.4-87.5,18.1-75.6,27.3c11.9,9.3,107,28.9,137.6,25.1c30.1-3.8,89.7-24.8,91.9-29.2
				C507.4,475.4,374.6,465.5,343.7,472z"/>
			<path class="st7" d="M466,478.3c-38.7-7.8-102.2-10.5-122.4-6.3c-5.3,1.1-12.1,2.5-19.4,4.1l0.3,0.2c-13,3.9-41.6,12-14.1,18.4
				c27.5,6.5,77.1,17.2,116.3,9.2C465.1,496.1,487.5,487.8,466,478.3z"/>
			<path class="st7" d="M355.6,419.8c12.4-19.8,12.3-94.3-19.5-105c-9.3,0.7-44.4,4.9-60,24.5c-8.7,10.9-10.9,85.6,5.4,97.3
				c16.4,11.7,47.7,1.7,62.3-5.2C348.9,427.7,353.1,423.8,355.6,419.8z"/>
		</g>
		<g>
			<g>
				<g>
					<g>
						<g>
							<path class="st8" d="M376.3,280.7c-2.3,1-5.1,1.8-8.5,2.1c-11.6,1-20.2-6-22.6-8c-0.1-3.3-0.4-6.9-0.9-10.6
								c-0.1-0.5-0.1-1.1-0.2-1.6c-0.2-1.4-0.4-2.7-0.6-4c-0.1-0.5-0.2-1-0.3-1.5c0.3,0.1,0.7,0.1,1,0.2c9.4,1.7,18.9,3.4,28.3,5.2
								c0.1,2.5,0.3,5.5,1,8.8c0.1,0.8,0.3,1.5,0.5,2.3C374.6,276.2,375.5,278.6,376.3,280.7z"/>
							<path class="st9" d="M374.6,276.8c-3.1-0.5-6.5-1.4-10.1-2.6c-9.1-3.2-15.9-7.8-20.5-11.6c-0.2-1.4-0.4-2.7-0.6-4
								c0.2-0.5,0.5-0.9,0.8-1.3c9.4,1.7,18.9,3.4,28.3,5.2c0.2,2.7,0.5,5.6,1,8.8C373.8,273.2,374.2,275.1,374.6,276.8z"/>
							<path class="st8" d="M409,203.7c0.5,7.2,0.2,16.7-2.3,27.4c-4.5,18.7-14.1,32.2-21.3,40.3c-2.9,3.3-7.4,4.7-11.7,3.8
								c-6.2-1.4-14.3-4.1-22.4-9.9c-16.7-12-22-28.9-23.5-34.2c0.6-3.2,5-23.6,25-35.4c19.9-11.8,39.8-6.1,42.9-5.1L409,203.7z"/>
							<g>
								<path d="M409.2,212.5c-1,0.3-2-9.9-9.5-13.3c-4.1-1.8-7.2-2.9-12.5-3.6c-5.8-0.8-14.3-2.2-25.1-4.4c0.8,4.1,0.8,7.5,0.6,9.9
									c-0.2,3.3-0.4,5.1-1.7,6.5c-1.9,2.1-4.3,1-7.9,2.3c-5.8,2.1-8.5,8.5-9.1,9.9c-2.5,6-0.1,8.9-3,14.2c-1.7,3.2-4.2,5.3-6,6.4
									c3.2,6.7,6.3,14.2,5.1,15c-1.6,1-10.4-8.2-15.8-18.6c-7.1-14-13.9-43.1,4.6-62.6c5.3-5.6,12-9.7,19.3-12.1c0,0,0.1,0,0.1,0
									c0.1,0,0.1-0.1,0.2-0.1c10.9-2.3,31.6-3.5,48.7,15.9c0.9,1.1,3.2,1.4,5.1,3c2.5,2,4.2,4.4,5.4,6.9c0,0,0,0,0,0
									C411.8,200.2,410.3,212.2,409.2,212.5z"/>
							</g>
							<g>
								<g>
									<path d="M359.1,223.9c2.9-4.1,10.3-4.6,12.9,0c0,0-0.1,0.1-0.1,0.1c-4.4-2-8.7-3.8-12.7,0
										C359.2,224,359.1,223.9,359.1,223.9L359.1,223.9z"/>
								</g>
								<g>
									<path d="M358.7,230.2c2.7-4.8,10.3-4.8,12.8,0C367.6,227.3,362.6,227.4,358.7,230.2L358.7,230.2z"/>
								</g>
								<path d="M369.2,228.9c-0.3,1.1-1.5,1.8-2.6,1.5c-1.1-0.3-1.8-1.5-1.5-2.6C365.4,226.6,369.5,227.8,369.2,228.9z"/>
							</g>
							<g>
								<g>
									<path d="M404.1,228c-2.7-4.2-6.2-4.4-10.6-2.9c0,0-0.1-0.1-0.1-0.1c2.2-3.1,6.8-2.4,9,0.2c0.7,0.8,1.4,1.7,1.8,2.7
										L404.1,228L404.1,228z"/>
								</g>
								<g>
									<path d="M391.3,230.8c2.8-3.3,8.7-2.1,10.2,1.9C398.4,230.2,395.1,229.4,391.3,230.8L391.3,230.8z"/>
								</g>
								<path d="M399,231.6c-0.4,1.1-1.5,1.7-2.5,1.3c-0.9-0.4-1.4-1.6-1-2.7S399.4,230.5,399,231.6z"/>
							</g>
							<g>
								<path class="st10" d="M384.7,248.5c-1.5,1-3.4,1-4.9,0C381.3,247.5,383.2,247.5,384.7,248.5L384.7,248.5z"/>
							</g>
							<path class="st11" d="M373,257.2c0.6,0.9,1.6,2,3,2.7c3.2,1.7,7.5,1.1,11.1-1.5c-2.2,0.5-5.5,0.8-9.3,0.1
								C375.9,258.3,374.3,257.7,373,257.2z"/>
							<path d="M410.1,221.9c-4-1.9-8.7-3.8-14.1-5.3c-10.4-3-19.8-3.8-27-3.8c0.2-2.8,0-7.4-1.8-12.6c-1.5-4.1-3.6-7.2-5.1-9.1
								c6-3.4,10-9.2,9.6-14.8c-0.6-8.2-10.6-16.4-23.4-14.2c0,0,0.1,0,0.2-0.1c12.9-4.3,29.2-1.5,40.9,7.7c2.1,1.7,5,4.3,7.9,8.1
								c1.3,0.6,3.2,1.5,5.1,3c0,0,5.9,4.4,9.3,11.8C417.6,205.5,410.8,220.6,410.1,221.9z"/>
							<path d="M344.1,167.4c-0.7-2.6-2-6.2-4.3-10.1c-1.5-2.5-8.1-13.5-19.6-16.6c0,0-10.1-2.7-22.6,3.6
								c-19.4,9.8-28.1,51.2-23.7,103.4c3.6,2.1,9.6,5,17.4,5.9c14.6,1.7,25.6-4.6,29.3-6.9c-4.3-10.7-7.4-19.8-9.5-26.5
								c-7.2-23.4-8.1-35.9-4.3-46.7c1.3-3.7,2.9-6.3,5.5-7.1c4.5-1.4,10.8,3.2,16.4,11.6C333.8,174.5,338.9,170.9,344.1,167.4z"/>
							<path class="st8" d="M340.4,222.3c-0.2-0.7-1.4-4.9-5-6c-1.9-0.6-4.6-0.3-6.3,1.2c-4.3,3.9-0.2,14,1.9,18.1
								c1.4,2.7,3.6,6.6,7.4,7.3c0.5,0.1,2.8,0.5,4.2-0.9c1.8-1.8,0.8-5.8-0.4-10.1c-0.5-2-1-3.1-1.4-5.6
								C340.5,223.7,340.8,223.6,340.4,222.3z"/>
							<circle cx="334.3" cy="170.9" r="21"/>
						</g>
					</g>
					<g>
						<g>
							<path class="st9" d="M413.1,348.8c8,13,16,26.1,23.9,39.1c21.5,7.8,43.1,15.6,64.6,23.4c4.4-0.1,8.7-0.2,13.1-0.3
								c-21.3-12.5-42.6-25-63.9-37.5c-7.1-13.4-14.1-26.7-21.2-40.1C424.1,338.5,418.6,343.6,413.1,348.8z"/>
							<path class="st12" d="M434.1,334.2c-0.5,2.2-2.5,9.4-9.5,15c-6.9,5.5-14.4,5.8-16.6,5.8c-0.4-0.8-0.8-1.6-1.1-2.4
								c-0.1-0.1-0.1-0.2-0.2-0.3c-6.5-13.5-13-27.1-19.5-40.6c3.2-3.9,6.3-7.9,9.5-12c3.1-4,6.1-8,9-12c5.5,8.5,9.7,15.4,12.7,20.4
								c4.1,6.8,11,18.4,12.2,20.4c0.5,0.9,1,1.7,1.5,2.6C432.8,332,433.5,333.1,434.1,334.2z"/>
							<g>
								<path class="st13" d="M432.2,331c-1.6,4.7-5,11.4-11.9,16.2c-4,2.8-8.5,4.6-13.4,5.4c0,0-0.1,0-0.1,0l-0.1-0.4l-0.3-1.8
									c4.6-0.7,8.9-2.4,12.6-5c7.3-5.2,10.4-12.6,11.6-17C431.2,329.3,431.7,330.1,432.2,331z"/>
							</g>
						</g>
						<g>
							<g>
								<path class="st8" d="M515.4,658.2c0,0-13.4-5.9-14.2-17.5L480,640c-0.3,3.1-2.3,7.4-3,9.9c0,0,17.2,12.8,29.7,16.7
									C519.2,670.5,522.1,663.3,515.4,658.2z"/>
							</g>
							<g>
								<path class="st9" d="M479.2,643.5c0,0,1.9-12,3.1-22.6l19.2,2.1c0,0-1.6,19.3,0.6,22.8L479.2,643.5z"/>
							</g>
							<g>
								<path class="st14" d="M476.7,648.8c0,0-3.4,8.1-0.1,12.7c3.3,4.6,12.4,4.6,16,7.2c10.9,7.9,13.5,9.5,21.9,10
									c11,0.7,18.3-2.1,12.2-11.4c-2.2-3.3-11.3-9.1-11.3-9.1c4.2,4.2-7.9,9.5-18.9,3.1C484.9,654.5,476.7,648.8,476.7,648.8z"/>
							</g>
						</g>
						<g>
							<path class="st12" d="M528.3,516.1c0.5,11.5-3.6,36.6-8.5,61.8c-5.2,26.7-11.2,53.6-13.6,64.6c-10.1-1.8-23.2-4.2-33.3-6.1
								c0.8-21.6,2.3-44.4,4.7-68.3c0.1-0.8,0.2-1.7,0.2-2.5c2.1-20.9,4.7-40.9,7.7-59.9c-1-0.3-3-0.6-5.7-1.1
								c-22.4-3.7-95.9-13.8-104.6-28.9c-5.8-10-7.1-28.3-7.2-41.4l0,0c0-2.3,0-4.5,0.1-6.5c0.1-5.5,0.4-9.2,0.4-9.2l49.3,0.3
								l0.8,1.5l9.7,18.1c27.4,19.1,50.4,26.7,66.7,30c10.8,2.2,23.3,3.5,30.4,13.4C531.3,490.3,527.6,499.9,528.3,516.1z"/>
						</g>
						<g>
							<g>
								<path class="st8" d="M463,670.7c0,0-13.4-5.9-14.2-17.5l-21.1-0.8c-0.3,3.1-2.3,7.4-3,9.9c4.3,4.8,8.6,7.9,11.6,9.8
									c8.6,5.4,15.8,6.6,18.1,6.9c3,0.4,5.5,0.3,7.5-1.3c1.2-1,3.1-3.2,2.4-5.3C464.1,671.6,463.5,671,463,670.7z"/>
							</g>
							<g>
								<path class="st9" d="M427.2,657c0,0,1.7-13.1,2.9-23.7l19.2,2.1c0,0-1.6,19.3,0.6,22.8L427.2,657z"/>
							</g>
							<g>
								<path class="st14" d="M425.3,660.3c-3.4,5.5-3.2,8.9-2.4,10.9c1.8,4.7,7.1,3.3,17.3,9.9c6.1,3.9,8,6.7,14.4,8.8
									c2.2,0.7,4.5,1,7.5,1.2c11,0.7,18.3-2.1,12.2-11.4c-2.2-3.3-11.3-9.1-11.3-9.1c0.6,0.6,0.8,1.2,0.8,1.7
									c0.1,2.6-11.5,3.5-19.7,1.3C440.8,672.9,432.7,670.1,425.3,660.3z"/>
							</g>
						</g>
						<g>
							<path class="st12" d="M480.9,528.9c-0.1,0.9-0.2,1.8-0.3,2.8c0,0.1,0,0.1,0,0.2c-1.2,9.1-3.3,21.1-5.9,34.5
								c-0.1,0.5-0.2,1-0.3,1.5c-5.4,27.6-12.8,60.4-18.7,84.3l-36.8-6.5c2.6-22,4.7-44.9,6.4-68.7c0.2-2.3,0.3-4.5,0.5-6.8
								c1-15.7,1.8-31.1,2.3-46.1c-3.4-3.3-6.1-5.6-6.6-5.7c-0.4-0.1-0.7-0.2-0.7-0.2c-0.2-0.1-0.5-0.1-0.7-0.2
								c-0.3-0.1-0.5-0.1-0.8-0.2c-2.3-0.5-4.8-1.1-7.5-1.7c-0.3-0.1-0.6-0.1-0.9-0.2c-0.9-0.2-1.8-0.4-2.8-0.7
								c-0.3-0.1-0.6-0.2-1-0.2c-16.8-4-38.7-9.7-55.6-16.1c-0.6-0.2-1.3-0.5-1.9-0.7c-1.3-0.5-2.5-1-3.7-1.5
								c-0.6-0.2-1.2-0.5-1.8-0.8c-0.3-0.1-0.6-0.3-0.9-0.4c-0.6-0.3-1.1-0.5-1.7-0.8c-1.1-0.5-2.2-1-3.2-1.5
								c-0.5-0.3-1-0.5-1.5-0.8c-1.4-0.8-2.8-1.6-4-2.3c-0.4-0.3-0.8-0.5-1.2-0.8c-0.2-0.1-0.4-0.3-0.5-0.4c-0.5-0.4-1-0.8-1.5-1.2
								c-1.4-1.2-2.5-2.4-3.2-3.6c-4.2-7.2-5.1-18.8-4.7-29.6c0-0.3,0-0.6,0-1c0-0.6,0.1-1.2,0.1-1.7c0-0.9,0.1-1.7,0.2-2.6
								c0-0.5,0.1-1,0.1-1.5c0.1-0.6,0.1-1.3,0.2-1.9c0-0.5,0.1-0.9,0.1-1.4l0.1-1.1c0.1-1.2,0.3-2.4,0.4-3.5
								c0.1-0.6,0.2-1.2,0.2-1.7c0.1-0.7,0.2-1.3,0.3-1.9c0.1-0.8,0.2-1.6,0.3-2.3c0-0.1,0-0.2,0-0.3c0-0.2,0.1-0.4,0.1-0.6
								c0.1-0.6,0.2-1.2,0.3-1.7c0-0.1,0-0.2,0-0.3c0-0.2,0.1-0.4,0.1-0.6c0.1-0.6,0.2-1.1,0.3-1.6c0.1-0.3,0.1-0.6,0.2-0.8
								c0-0.2,0.1-0.4,0.1-0.6c0-0.1,0-0.2,0.1-0.3c0-0.1,0-0.1,0-0.1c0,0,0-0.1,0-0.1l22.2,0.8l19.4,0.7l0.4,0l0,0l1.2,5.9l0,0
								l3.9,19.5c0,0,36.3,6.9,72,22c1.9,0.8,3.6,1.6,5.3,2.3c0.6,0.3,1.2,0.6,1.8,0.8c0,0,0.1,0,0.1,0c0.6,0.3,1.1,0.6,1.7,0.8
								c1,0.5,2,1,2.9,1.5c14.1,7.3,21.1,14.4,24.1,23.3C482.1,511.5,482,519.2,480.9,528.9z"/>
							<path class="st15" d="M528.3,516.1c0.5,11.5-3.6,36.6-8.5,61.8c-11.5-4.1-25.7-8-42.2-9.8c0.1-0.8,0.2-1.7,0.2-2.5
								c2.1-20.9,4.7-40.9,7.7-59.9c-1-0.3-3-0.6-5.7-1.1c2.2,6.8,2.1,14.5,1,24.2c-0.1,0.9-0.2,1.8-0.3,2.8c0,0.1,0,0.1,0,0.2
								c-1.2,9.1-3.3,21.1-5.9,34.5c-0.1,0.5-0.2,1-0.3,1.5c-6.7-0.6-13.8-0.9-21.2-0.7c-10,0.3-19.2,1.4-27.5,3
								c1-15.7,1.8-31.1,2.3-46.1c-3.4-3.3-6.1-5.6-6.6-5.7c-0.4-0.1-0.7-0.2-0.7-0.2c-0.2-0.1-0.5-0.1-0.7-0.2
								c-0.3-0.1-0.5-0.1-0.8-0.2c-2.3-0.5-4.8-1.1-7.5-1.7c-0.3-0.1-0.6-0.1-0.9-0.2c-0.9-0.2-1.8-0.4-2.8-0.7
								c-0.3-0.1-0.6-0.2-1-0.2c-16.8-4-38.7-9.7-55.6-16.1c-0.6-0.2-1.3-0.5-1.9-0.7c-1.3-0.5-2.5-1-3.7-1.5
								c-0.6-0.2-1.2-0.5-1.8-0.8c-0.3-0.1-0.6-0.3-0.9-0.4c-0.6-0.3-1.1-0.5-1.7-0.8c-1.1-0.5-2.2-1-3.2-1.5
								c-0.5-0.3-1-0.5-1.5-0.8c-1.4-0.8-2.8-1.6-4-2.3c-0.4-0.3-0.8-0.5-1.2-0.8c-0.2-0.1-0.4-0.3-0.5-0.4c-0.5-0.4-1-0.8-1.5-1.2
								c-1.4-1.2-2.5-2.4-3.2-3.6c-4.2-7.2-5.1-18.8-4.7-29.6c8.8-7.8,19.6-15.4,32.6-21.3c4-1.8,8.1-3.4,12.3-4.8
								c0.5-0.2,1.1-0.4,1.6-0.5c15.9-5.2,33.2-7.5,50.5-7.3l9.7,18.1c27.4,19.1,50.4,26.7,66.7,30c10.8,2.2,23.3,3.5,30.4,13.4
								C531.3,490.3,527.6,499.9,528.3,516.1z"/>
						</g>
						<g>
							<path class="st16" d="M535.3,538.6c-0.6,4.4-1.2,8.3-2.3,16.3c-0.8,5.4-1.6,10.8-2.4,16.1c-10-2-20.7-3.8-31.9-5.2
								c-21.4-2.7-41.2-3.8-59.2-3.8c0.3-3.5,0.4-6.9,0.4-10.2c0-3.9-0.1-7-0.3-9.6c-0.5-8.5-1.9-22.1-2.7-30.1
								c-0.4-4-2.9-7.5-6.6-9.1c-19.6-8.8-39.3-17.5-58.9-26.3l-3.7-1.5c-9.2-3.7-18.4-7.5-27.3-11.3l-2.2,5.2
								c8.9,3.8,18.1,7.6,27.4,11.3c20.2,9.4,40.4,18.8,60.6,28.2c2.2,1,3.8,3,4.3,5.4c1.7,8.4,3,18,3.5,28.7
								c0.3,7.4,0.2,14.3-0.2,20.6c-2.5,0.9-5,1.7-7.6,2.6c-3-12.5-6.1-24.9-9.1-37.4c-0.9-3.9-3.8-7-7.5-8.3
								c-9.5-3.4-22.4-7.7-37.6-12.1c-32.5-9.2-34.6-7.2-40.6-12.5c-12.7-11.1-8.5-25.4-13-87.7c-2.3-31.8-3.9-32.9-5-59.3
								c-1-23.7-0.6-43.9,0.1-59c0.2-0.1,15.7-7.3,15.9-7.4c0.2-0.1,14.7-6.8,14.9-6.9c-0.2-0.7-0.4-1.8-0.1-3.1
								c0.1-0.7,0.3-1.7,0.9-2.2c1.2-1.2,4-0.3,5.7,0.3c6.2,2.3,14,7.3,17.4,9.6c2.9-3.3,5.6-4.8,6.6-4.2c0.7,0.4,0.9,1.5,1,2.3
								c0,0.4,0,0.7,0,0.9c0.7,0.2,1.4,0.3,2.1,0.5c4.2,1,8.6,2.1,13.1,3.4c4.9,1.4,9.6,2.9,14,4.4c0.9,0.3,1.6,1.1,1.9,2.1
								c5.6,23.6,8.6,35.2,8.6,35.2s3.7,15.3,3.9,23.5c0.2,8.1-5.9,20.5-8.1,28.6c-2.2,8.1,2.6,30.9,2.6,30.9l-1.2,0
								c3,6.7,19.8,26.5,27.7,30.5c0,0,0,0,0,0c0.9,0.5,2.9,1.5,5.4,2.8c20.7,10.3,63.8,28.8,83,36.5c1.1,0.4,4,1.6,6.5,4.4
								c3.6,4,4.1,8.9,4.4,11.5C540.4,506.2,537.9,520,535.3,538.6z"/>
							<path class="st17" d="M424.4,423.8c-0.7,0.4-2.2,1.5-3.2,3.4c-0.1,0.1-0.1,0.2-0.1,0.3c0,0-0.8,1.8,1.2,4.8
								c11.6,17.7,78.4,41.3,96.6,49.8c3.7,1.7,5.7,2.7,7.8,4.9c6.8,7.2,5.3,18.1,3.1,35.1c-2.4,18.3-3.8,28.7-5.5,41.2
								c-12.5-2.4-26.6-4.5-42.1-5.6c-13.2-1-25.4-1.1-36.6-0.8c0-8.8-0.1-17.8-0.3-26.9c-0.2-9.1-0.5-18-0.8-26.7
								c-16-10.2-35.5-21.1-58.7-30.7c-16.9-7-32.8-12.3-47.1-16.1c-1.7,6-3.3,11.9-5,17.9c15.4,6.4,31,13,46.7,20
								c14,6.2,27.7,12.4,41.1,18.6c0.6,2,1.2,4.1,1.7,6.2c4.1,16.1,6,31.4,6.6,45.6"/>
							<circle class="st13" cx="346.9" cy="312.6" r="1.9"/>
							<g>
								<path class="st13" d="M368.8,283.6l-1.2,1.9c-0.4-0.2-0.8-0.5-1.1-0.7c-4.9-3.1-9.2-5.7-12.8-7.9l-0.6-0.4
									c-1.9-1.1-4.6-2.2-7.8-2.2c-0.4,0-0.9,0-1.3,0.1c0-0.3-0.1-0.7,0-1.1c0-0.5,0.1-0.9,0.2-1.2c0.4-0.1,0.9-0.1,1.3-0.1
									c3.8-0.2,6.9,1.4,8.9,2.7l0.6,0.4c3.7,2.2,8.2,5,13.2,8.2C368.3,283.2,368.6,283.4,368.8,283.6z"/>
							</g>
							<g>
								<path class="st13" d="M377.7,279.4c-0.6,0.2-1.2,0.4-1.8,0.7c-3.4,1.6-5.7,3.8-7.7,5.9c-2.9,3.1-5.6,7-8.2,11.4
									c-2.2,3.7-3.9,6.6-5.3,10.9c-1.1,3.5-1.8,7.1-2,10.8l-2.2-0.1c0.2-3.9,0.9-7.7,2.1-11.4c1.5-4.5,3.2-7.6,5.4-11.4
									c2.6-4.5,5.4-8.4,8.4-11.6c0.1-0.1,0.1-0.1,0.2-0.2c0.5-0.5,0.9-1,1.4-1.5c1.8-1.8,4-3.6,7-5c0.2-0.1,0.3-0.1,0.5-0.2
									c0,0.4,0,0.7,0,0.9c0.7,0.2,1.4,0.3,2.1,0.5L377.7,279.4z"/>
							</g>
							<path class="st18" d="M356.5,291.1c3.2,1.9,6.4,3.8,9.7,5.8"/>
							<path class="st18" d="M350.9,300.5c3.1,1.6,6.3,3.3,9.4,4.9"/>
							<path class="st18" d="M347.4,312.9c3.5,0.5,6.9,1,10.4,1.5"/>
							<circle class="st13" cx="356.5" cy="290.8" r="1.9"/>
							<circle class="st13" cx="366.2" cy="296.8" r="1.9"/>
							<circle class="st13" cx="350.8" cy="300" r="1.9"/>
							<circle class="st13" cx="360.3" cy="305.5" r="1.9"/>
							<circle class="st13" cx="357.5" cy="314.4" r="1.9"/>
						</g>
						<g>
							<path class="st19" d="M317.1,288.9c-2.7,0.1-5.1,0.8-6.8,2.3C312.2,289.5,314.6,288.8,317.1,288.9z"/>
						</g>
						<g>
							<path class="st8" d="M381.1,396.5c0.4,5.8,0.8,11.5,1.2,17.3c-20.7-2.7-41.5-5.4-62.2-8c-3-16.8-6-33.7-9-50.5
								c3.3,1,9.1,2.2,16.1,1.2c5.2-0.7,9.3-2.4,12-3.7c1.6,11.3,3.2,22.6,4.8,33.9C356.4,389.9,368.7,393.2,381.1,396.5z"/>
							<path class="st12" d="M342.2,353.4C342.2,353.4,342.2,353.5,342.2,353.4c-0.1,0-0.2,0.1-0.2,0.1c-4.4,1.5-9.8,2.7-15.8,3.3
								c-0.4,0-0.8,0.1-1.2,0.1c-0.4,0-0.9,0.1-1.3,0.1c-5.3,0.3-10.2,0.1-14.4-0.5c-1.6-0.2-3-0.4-4.4-0.7l-0.3-1.8
								c-0.1-0.7-0.2-1.5-0.3-2.2c-0.1-0.8-0.2-1.5-0.3-2.3c-1.8-14-2.8-28.7-1.7-39.9c1.1-11.2,4.4-17.1,8.5-19.5
								c1.9-1.1,4.4-1.4,7.1-1.1c9.6,1.2,22,10.1,23.3,16.7c2.3,11.2-1.4,16.6,0.5,41.6c0.1,0.7,0.1,1.5,0.2,2.3
								c0,0.3,0.1,0.7,0.1,1C342,351.8,342.1,352.8,342.2,353.4z"/>
							<path class="st20" d="M351.9,348.3c-1.6,1-6.5,3.7-15,6C342.8,352.7,347.8,350.5,351.9,348.3z"/>
						</g>
					</g>
				</g>
			</g>
			<g>
				<path class="st21" d="M341.8,349.6c-7.9,2.2-15.9,3.3-24,3.3h-0.5c-4.4,0-8.8-0.4-13.1-1.1c-0.1-0.8-0.2-1.5-0.3-2.3
					c4.4,0.7,9,1.1,13.5,1.1c8.2,0,16.3-1.1,24.2-3.4C341.7,348,341.8,348.8,341.8,349.6z"/>
			</g>
		</g>
		<path class="st22" d="M488.1,365.6c20-26,40-51.9,60-77.9c-5,15.5-10,31-15,46.4C518.1,344.6,503.1,355.1,488.1,365.6z"/>
		<path class="st23" d="M556.5,292.7c-5.9,13.3-11.9,26.6-17.8,39.9c-16.8,11-33.7,22-50.5,33.1C510.9,341.3,533.7,317,556.5,292.7z
			"/>
		<path class="st22" d="M561.7,302.3c-20.2,38.2-40.4,76.3-60.6,114.5c-17.7,18.8-35.4,37.5-53.1,56.3
			c13.4-35.8,26.8-71.6,40.1-107.4C512.6,344.5,537.2,323.4,561.7,302.3z"/>
		<path d="M418.9,393.7l-6.6,2l-22.9-74.5c0.2-0.4,0.9-1.6,2.4-2.2c2-0.9,3.9,0.1,4.2,0.2C403.6,344.1,411.3,368.9,418.9,393.7z"/>
		<path class="st23" d="M488.1,365.6c-13.4,35.8-26.8,71.6-40.1,107.4c-6.4-6.4-21.4-19.5-44.9-25.6c-20.1-5.2-36.9-2.7-45.6-0.8
			c-7.5-41.2-15-82.4-22.4-123.6c24.2,1.3,55.2,5.4,89.7,16.1C449.7,347,470.9,356.5,488.1,365.6z"/>
		<path class="st8" d="M483.8,403.7c-0.2-1.1,5.1-4.4,9.9-3.3c4.3,0.9,3.9,4.5,9.1,7.2c5.8,3,9.3,0.4,12,3.4
			c2.5,2.8,2.5,8.5,0.1,10.8c-2.1,2-4.9,0.4-11.8,2.9c-2.1,0.7-1.7,0.9-3.5,1.4c-3.6,1.2-6.3,1.1-15.4,0.5
			c-7.7-0.5-11.5-0.8-11.9-2.4c-0.1-0.3-0.1-1,0.3-1.5c0.6-0.9,1.9-0.9,2.8-0.9c2.4,0,4.8,0,7.5,0c-3.8-0.4-6.9-0.9-9.2-1.4
			c-5.6-1.1-7.4-1.8-7.9-3.3c-0.3-0.7-0.3-1.8,0.3-2.6c1.1-1.4,3.8-0.7,9.2,0.5c6.7,1.4,9.7,1.8,9.7,1.8c0,0-0.7-0.4-13.5-3.9
			c-4.3-1.2-7.7-2.2-8.4-4.6c-0.1-0.3-0.3-1.2,0.1-1.8c0.9-1.3,3.9-1.1,11.2,0.9c7.6,2,13.7,4.2,13.7,4.2c0,0-3-1.5-8.4-3.3
			c-8.2-2.9-12.8-3.7-13.1-6.1c0-0.1-0.1-0.9,0.4-1.6c1.2-1.5,4.7-0.9,17.5,3.4c0,0,9.4,3,9.5,2.8c0,0-0.2,0-0.3-0.1
			c-3.1-0.9-4.8-1.4-7-2C484.1,403.9,483.8,403.9,483.8,403.7z"/>
	</g>
</g>
</svg>
