<?xml version="1.0" encoding="utf-8"?>
<!-- Generator: Adobe Illustrator 26.0.1, SVG Export Plug-In . SVG Version: 6.00 Build 0)  -->
<svg version="1.1" id="Layer_1" xmlns="http://www.w3.org/2000/svg" xmlns:xlink="http://www.w3.org/1999/xlink" x="0px" y="0px"
	 viewBox="0 0 1000 762.1" style="enable-background:new 0 0 1000 762.1;" xml:space="preserve">
<style type="text/css">
	.st0{fill:#D8989D;}
	.st1{opacity:0.2;fill:none;stroke:#272828;stroke-width:7.0078;stroke-miterlimit:10;}
	.st2{fill:#FFD7DC;}
	.st3{fill:#FAD4AF;}
	.st4{fill:#F7B7C1;}
	.st5{fill:#C6838B;}
	.st6{fill:#AA0531;}
	.st7{fill:#F9C295;}
	.st8{fill:#E01440;}
	.st9{fill:none;stroke:#F8AE38;stroke-width:1.6114;stroke-miterlimit:10;}
	.st10{fill:#F8AE38;}
	.st11{fill:#E09D6C;}
	.st12{fill:#CE0D28;}
	.st13{fill:#CC0036;}
</style>
<g>
	<g>
		<g>
			<rect x="152.8" y="160.5" class="st0" width="671.6" height="435.1"/>
			<path class="st1" d="M358.3,671.1l13.9-75.4c-4.6-132.8-9.3-265.6-13.9-398.4"/>
			<path class="st1" d="M221.4,671.1l13.9-75.4c-4.6-132.8-9.3-265.6-13.9-398.4"/>
			<rect x="589.3" y="285" class="st2" width="154.8" height="310.6"/>
			<circle class="st0" cx="607.1" cy="450" r="9.7"/>
			<g>
				<path class="st3" d="M235,316.4c-1.1-2.7-2.2-5.5-3.2-8.2c0-0.9-0.1-2.3-0.5-3.8c-1.3-5.4-5.1-9.9-6-9.5c-0.3,0.1-0.4,0.7,0,2.7
					c0.5,1.7,1.1,3.4,1.6,5.2c-1.7-1.9-3.5-3.9-5.2-5.8c-0.4,5-0.7,9.9-1.1,14.9c0.3,0.7,1.3,2.6,3.5,3.8c1.1,0.6,2.1,0.8,2.8,0.8
					c0.9,1.5,1.9,3.1,2.8,4.6C231.5,319.6,233.3,318,235,316.4z"/>
				<g>
					<g>
						<rect x="217.8" y="194.6" class="st4" width="7" height="476.5"/>
					</g>
				</g>
				<g>
					<g>
						<rect x="354.8" y="194.6" class="st4" width="7" height="476.5"/>
					</g>
				</g>
				<g>
					<g>
						<rect x="354.7" y="389.6" class="st5" width="7.3" height="12.4"/>
					</g>
				</g>
				<g>
					<g>
						<rect x="221.4" y="249.3" class="st4" width="137" height="6.7"/>
					</g>
				</g>
				<g>
					<g>
						
							<rect x="288.1" y="254.2" transform="matrix(2.208268e-03 -1 1 2.208268e-03 -33.5064 615.0796)" class="st4" width="6.7" height="140.2"/>
					</g>
				</g>
				<g>
					<g>
						<rect x="221.4" y="392.4" class="st4" width="140.2" height="6.7"/>
					</g>
				</g>
				<g>
					<g>
						<rect x="221.4" y="464" class="st4" width="137" height="6.7"/>
					</g>
				</g>
				<g>
					<g>
						<rect x="221.4" y="535.6" class="st4" width="137" height="6.7"/>
					</g>
				</g>
				<g>
					<g>
						<rect x="221.4" y="607.2" class="st4" width="137" height="6.7"/>
					</g>
				</g>
			</g>
			<circle class="st5" cx="358.3" cy="396.1" r="1.4"/>
		</g>
		<g>
			<g>
				<path class="st6" d="M253.4,433.5c1.7-11.6,3.5-35.9,5.2-47.5c27-1.7,52.1,6.1,79.2,4.4c0.6,3.1,1.2,5.9,1.6,8.4
					c0.2,0.9,0.8,4.4,1.1,6.8c0.5,3.4,0.9,21.4,0.6,28.2C311.8,433.7,282.6,433.6,253.4,433.5z"/>
				<g>
					<g>
						<g>
							<g>
								<g>
									<g>
										<path class="st3" d="M231.8,308.2c6.8,12.4,13.7,24.7,20.5,37.1c1.2-5.4,2.4-10.8,3.6-16.1c0.7-3.2,2.8-5.7,5.5-6.4
											c1.3-0.3,2.6-0.1,3.4,0.1l5.4,1.5c-1,5.8-2.3,12.2-4.1,18.9c-1.7,6.4-3.6,12.3-5.5,17.6c-1.5,1.9-3.1,2.7-4.5,2.9
											c-11.1,1.5-24.5-34.1-29.2-47.3C228.6,313.7,230.2,311,231.8,308.2z"/>
									</g>
									<g>
										<path class="st3" d="M347.1,364.8c-1.3-14.4-3.4-27.8-5.8-39.9l-13.4,1.9c3.1,13.5,6.1,27.2,9,41c1.7,8.1,3.4,16.1,5,24.1
											c-0.4,0.6-0.8,1.2-1.2,1.8c3.2-0.5,6.3-1,9.5-1.5c-0.5-0.6-1.1-1.3-1.6-1.9C348.4,382.3,347.9,373.7,347.1,364.8z"/>
									</g>
									<path class="st3" d="M320.1,298.3c-7.3,1-14.6,2-21.9,3c-7.3-1-14.6-2-21.9-3c3.5-0.9,7-1.8,10.5-2.7
										c1.3-2.8,2.3-4.9,3-6.4c0.1-0.3,0.4-0.8,0.7-1.6c0.4-1.1,0.6-2.2,0.7-3.2c0.4-3-0.2-5.4-0.6-6.6c2.5,0,5.1-0.1,7.6-0.1
										c2.5,0,5.1,0.1,7.6,0.1c-0.4,1.3-1.1,4.2-0.4,7.8c0.1,0.3,0.4,1.7,1.2,3.5c0.7,1.6,2.2,4.2,5.2,6.8
										C314.6,296.8,317.4,297.6,320.1,298.3z"/>
									<path class="st7" d="M305.4,285.7c-1.3,0.9-2.6,1.6-4.3,1.9c-2.5,0.5-4.5-0.1-5.5-0.4c-1.8-0.6-3.2-1.5-4.4-2.7
										c0.4-3-0.2-5.4-0.6-6.6c2.5,0,5.1-0.1,7.6-0.1c2.5,0,5.1,0.1,7.6,0.1C305.4,279.1,304.7,282.1,305.4,285.7z"/>
									<path class="st3" d="M277.6,265.2c3.6,5.7,6.9,10.1,9.5,13.4c2.2,2.7,4.1,5.1,7.5,6.1c1,0.3,3.2,0.9,5.7,0.4
										c2.8-0.5,4.5-1.9,6.8-3.7c0.8-0.7,4.8-3.9,8.1-9.9c1.3-2.5,2.1-4.4,2.3-5c0.9-2.6,2.3-6.4,1.8-11.1
										c-0.2-1.7-0.8-7.4-5.4-12c-4.3-4.2-9.5-4.9-11.9-5.2c-8.2-1-18,2.4-22.8,10c-0.9,1.4-4.1,6.5-3,12.7
										C276.4,262.7,277,264.2,277.6,265.2z"/>
									<g>
										<path d="M318.1,227.9c0,3.5-0.9,6.8-2.5,9.6h-33.9c-1.6-2.8-2.5-6.1-2.5-9.6c0-10.7,8.7-19.5,19.5-19.5
											C309.4,208.4,318.1,217.1,318.1,227.9z"/>
										<path d="M282.5,273.2c0.1-0.1-2.1-2.6-3.5-6.8c-0.6-1.7-1.3-4-0.9-6.9c0.2-1.3,0.5-3.6,2-5.4c1.9-2.2,3.6-1.6,8.6-3.5
											c2.1-0.8,6-2.4,9.2-5.8c1.5-1.6,2.5-3.2,3.1-4.3c0.3,0.6,0.8,1.6,1.7,2.4c2,2,4.4,2,6.5,2.7c0,0,4,1.3,7.1,5.9
											c4.7,7-1.2,17.9-0.2,18.3c0.8,0.3,4.3-5.3,5.9-12.6c0.8-3.9,2.4-11.3-1.6-17.8c-1.5-2.3-3.1-3.7-4.3-4.7
											c-7-5.6-17.9-7.8-27.7-4.5c-3,1-9.6,3.3-13.5,9.8c-6.2,10.4-0.1,22.5,0.8,24.3C278.3,269.7,282.3,273.3,282.5,273.2z"/>
									</g>
									<g>
										<path class="st8" d="M327.5,328.5l7.3,84.5h-68.7l4-84.5c-0.3,2-0.6,4.1-0.8,6.1c-4.9-0.9-10.2-1.8-15.1-2.7
											c0.2-2.1,0.7-4.3,0.9-6.4c0-1.5,0.2-3.1,0.4-4.8c1.5-8.7,6.6-18.5,13.5-20.6l16.7-5.1v-6.7c9.5-0.1,12.3,4.1,13.1,5.9
											c0.8-1.8,3.6-6,13.1-5.9v6.7l16.7,5.1c8.2,2.5,13.9,16,13.9,25.4c0.2,2.3,0.5,4.6,0.7,6.9c-4.7,1-9.5,1.9-14.2,2.9
											C328.5,333,328,330.7,327.5,328.5z"/>
										<path class="st9" d="M275.8,413c0-3.9,0-7.7,0-11.4c0.2-33.4,1.4-56.5,2.9-65.3c2.7-15.7,11-25.5,11-25.5
											c2.9-2.7,5.8-5.3,8.7-8c0.1-2.9,0.2-5.7,0.3-8.6"/>
										<path class="st10" d="M269.8,334.4l-0.3,4.6l-2-0.4l-15-3c0-1.5,0.1-3.1,0.4-4.8L269.8,334.4z"/>
										<path class="st10" d="M327.6,334.3l0.5,4.5l15.8-3.1c-0.1-1.5-0.3-3.1-0.4-4.8L327.6,334.3z"/>
										<line class="st9" x1="273.9" y1="347.7" x2="283.8" y2="347.7"/>
										<line class="st9" x1="272.8" y1="401.6" x2="282.7" y2="401.6"/>
										<path class="st10" d="M298.8,294.1c-2.6-6.8-13.2-6.1-13.2-6.1v3.1c8.6-2.7,13.2,4.2,13.2,4.2s4.6-6.9,13.2-4.2V288
											C312,288,301.4,287.3,298.8,294.1z"/>
									</g>
									<g>
										<g>
											<g>
												<path d="M312.1,259.9c-2.2-3.2-7.1-3.4-9.4-0.4c0,0-0.9-0.7-0.9-0.7C304.4,255.3,310.7,255.9,312.1,259.9L312.1,259.9z"
													/>
											</g>
											<g>
												<path d="M311.6,262.5c-0.1,0.3-0.4,0.6-0.7,0.9c-0.6,0.6-1.3,0.8-1.6,0.9c0.1-0.1,0.3-0.3,0.4-0.6
													c0-0.1,0.1-0.2,0.1-0.3c-0.3,0-0.6-0.1-1.1-0.2c-0.4-0.1-1.1-0.1-1.9-0.1c-0.5,0-1,0-1.6,0.2c-0.3,0.1-0.8,0.2-1.2,0.3
													c-0.5,0.2-1,0.4-1.5,0.7c0.3-0.3,0.8-0.8,1.4-1.1c0.2-0.1,0.4-0.2,0.6-0.3c0.7-0.3,1.3-0.3,2.1-0.3c0.3,0,0.5,0,0.9,0
													c1.2,0,1.6,0.2,2.7,0.1C310.8,262.8,311.3,262.6,311.6,262.5z"/>
												<path d="M307.5,263.5c-0.1,0.7-0.8,1.2-1.6,1.1c-0.7-0.1-1.2-0.5-1.3-1.1c0-0.1,0-0.2,0-0.3l0-0.1
													c0.2-0.1,0.4-0.1,0.6-0.2c0.7-0.2,1.4-0.2,2.1-0.1c0.1,0.1,0.1,0.3,0.1,0.5C307.5,263.3,307.5,263.4,307.5,263.5z"/>
											</g>
										</g>
										<g>
											<g>
												<path d="M284.7,259.9c1.7-4,7.8-4.6,10.3-1c0,0-0.9,0.7-0.9,0.7C291.6,256.4,287.1,256.8,284.7,259.9L284.7,259.9z"/>
											</g>
											<g>
												<path d="M285.2,262.5c0.1,0.3,0.4,0.6,0.7,0.9c0.6,0.6,1.3,0.8,1.6,0.9c-0.1-0.1-0.3-0.3-0.4-0.6c0-0.1-0.1-0.2-0.1-0.3
													c0.3,0,0.6-0.1,1.1-0.2c0.4-0.1,1.1-0.1,1.9-0.1c0.5,0,1,0,1.6,0.2c0.3,0.1,0.8,0.2,1.2,0.3c0.5,0.2,1,0.4,1.5,0.7
													c-0.3-0.3-0.8-0.8-1.4-1.1c-0.2-0.1-0.4-0.2-0.6-0.3c-0.7-0.3-1.3-0.3-2.1-0.3c-0.3,0-0.5,0-0.9,0
													c-1.2,0-1.6,0.2-2.7,0.1C286,262.8,285.5,262.6,285.2,262.5z"/>
												<path d="M289.5,263.4c0.1,0.7,0.8,1.2,1.6,1.1c0.7-0.1,1.2-0.6,1.3-1.1c0-0.1,0-0.2,0-0.3l0-0.1
													c-0.2-0.1-0.4-0.1-0.6-0.2c-0.7-0.2-1.4-0.2-2.1-0.1c-0.1,0.1-0.1,0.3-0.1,0.5C289.5,263.3,289.5,263.4,289.5,263.4z"/>
											</g>
										</g>
									</g>
									<g>
										<path class="st11" d="M296.8,272.2c1.5-0.2,2.3-0.3,3.8,0C299.6,273.3,297.7,273.3,296.8,272.2L296.8,272.2z"/>
									</g>
									<path class="st12" d="M298.6,278.1c-2.6-0.1-4-2.1-4.1-2.3c0.9,0.3,2.2,0.7,3.9,0.7c2.1,0,3.8-0.6,4.7-1
										C302.2,277.2,300.4,278.2,298.6,278.1z"/>
								</g>
								<path class="st12" d="M298.8,276.6c0-0.1,0-0.3,0.1-0.5c0.2-0.2,0.5-0.2,1.1-0.3c1.2,0,1.6,0,2.1,0c0.4-0.1,0.8-0.1,0.9-0.2
									c-0.5,0.3-1.2,0.5-2.1,0.7C300.2,276.5,299.4,276.6,298.8,276.6z"/>
								<path class="st12" d="M298.8,276.6c0-0.3-0.1-0.5-0.2-0.5c-0.2-0.2-0.4-0.2-1-0.2c-0.2,0-0.4,0-0.7,0c-0.2,0-0.3,0-0.5,0.1
									c-0.9,0.1-1.9-0.2-2-0.1c0,0.1,1.1,0.6,2.5,0.8C297.7,276.7,298.4,276.6,298.8,276.6z"/>
							</g>
						</g>
					</g>
				</g>
			</g>
			<g>
				<g>
					<g>
						<path class="st3" d="M275.6,448.4c1,3.1,0,6.4-1.7,9.2c-1.7,2.7-4.1,4.9-6.4,7.1s-4.5,4.7-5.7,7.6c-0.4,1-0.7,2.2,0,3.1
							c0.6,0.8,4.9,0.9,6,0.9c4.9-0.2,6.3-3.4,10.4-6c2.4-1.5,5.3-2.7,6.6-4.4c1.5-2,0.4-5,0.4-7.6c0-2.4-0.1-4.7-0.1-7.1
							c0-0.6-0.1-1.3-0.5-1.8c-0.3-0.3-0.8-0.4-1.2-0.4c-2.6-0.4-5.2-0.7-7.8-1.1L275.6,448.4z"/>
						<path class="st8" d="M293.3,377v0.2c-0.2,11.1-0.4,22.3-0.6,33.4c0,1.3,0,2.6-0.1,3.9c-0.1,5.8-0.2,11.5-0.3,17.2
							c-0.1,6.8-0.2,13.5-0.3,20.3c-7.6,0-15.1-0.1-22.7-0.1c-0.3-6.7-0.5-13.5-0.8-20.2c-0.2-5.7-0.4-11.5-0.7-17.2
							c-0.1-2.6-0.2-5.3-0.3-7.9c-0.4-9.2-0.7-18.4-1.1-27.5l24.1-1.9L293.3,377z"/>
					</g>
					<g>
						<path class="st3" d="M321.3,448.4c-1,3,0,6.4,1.7,9.1c1.7,2.7,4.1,4.9,6.4,7.1c2.3,2.2,4.5,4.7,5.7,7.6c0.4,1,0.7,2.2,0,3.1
							c-0.6,0.8-1.8,0.8-2.8,0.9c-6.8,0.7-9.7-2.7-13.8-5.3c-2.3-1.5-5.6-3.2-6-4.2c-1-2.3-0.6-5.9-0.6-8.5c0-2.4,0.1-4.7,0.1-7.1
							c0-0.6,0.1-1.3,0.5-1.8c0.3-0.3,0.8-0.4,1.2-0.4c2.6-0.4,5.2-0.7,7.8-1.1L321.3,448.4z"/>
						<path class="st8" d="M331.6,376.8c-0.4,9.5-0.9,18.9-1.3,28.4c-0.1,3.1-0.3,6.2-0.4,9.3c-0.3,5.7-0.5,11.5-0.8,17.2
							c-0.3,6.6-0.6,13.2-0.9,19.8c-7.8-0.1-15.5-0.2-23.3-0.2c-0.1-6.5-0.2-13-0.3-19.6c-0.1-5.7-0.2-11.5-0.3-17.2
							c0-1.4,0-2.7-0.1-4.1c-0.2-10.9-0.4-21.7-0.5-32.6L331.6,376.8z"/>
					</g>
					<path d="M285.9,465.3c-2,1.4-4.1,2.9-6.1,4.5c-2.4,1.8-4.7,3.6-6.8,5.4c-4.4,2.9-8.7,4-10.7,2.4c-0.3-0.3-0.8-0.8-1.2-1.6
						c-0.9-2.2,0.6-4.6,1.2-5.6c0.4-0.7,1.3-1.9,2.7-3c-0.5,0.7-1.1,1.8-0.7,2.7c0.6,1.7,3.9,2.1,6,1.8c1.9-0.2,3.5-0.9,8.8-5
						c1.6-1.3,3.9-3,6.5-5.3c0.1,0.4,0.2,0.7,0.3,1.2C285.9,463.8,285.9,464.6,285.9,465.3z"/>
					<path d="M311.4,466.4c2,1.4,4.1,2.9,6.1,4.5c2.4,1.8,4.7,3.6,6.8,5.4c4.4,2.9,8.7,4,10.7,2.4c0.3-0.3,0.8-0.8,1.2-1.6
						c0.9-2.2-0.6-4.6-1.2-5.6c-0.4-0.7-1.3-1.9-2.7-3c0.5,0.7,1.1,1.8,0.7,2.7c-0.6,1.7-3.9,2.1-6,1.8c-1.9-0.2-3.5-0.9-8.8-5
						c-1.6-1.3-3.9-3-6.5-5.3c-0.1,0.4-0.2,0.7-0.3,1.2C311.4,464.9,311.4,465.8,311.4,466.4z"/>
					<path class="st6" d="M292.7,414.5c-0.1,5.8-0.2,11.5-0.3,17.2h-23.8c-0.2-5.7-0.4-11.5-0.7-17.2H292.7z"/>
					<path class="st6" d="M329.8,414.5c-0.3,5.7-0.5,11.5-0.8,17.2h-24.5c-0.1-5.7-0.2-11.5-0.3-17.2H329.8z"/>
				</g>
				<path class="st13" d="M338.3,429.8c-27.8-0.2-55.6-0.5-83.4-0.7c0.1-2.4,0.3-31.5,0.4-32.8c0.1-0.5,0.1-1,0.2-1.5
					c0.8-6.3,1.2-9.7,2-12c1.5-4.7,5.4-7.4,7.3-8.8c9.7-6.8,17.9,1.5,40.7-0.5c6.2-0.5,11-1.9,18.2-0.1c3,0.7,13,1.6,13.9,8.6
					c0.1,1.1,1.4,2.7,1.8,13.1c0.3,7.2,0.1,12.9-0.1,16.3C339.1,416,338.8,422.3,338.3,429.8z"/>
			</g>
			<g>
				<g>
					<path class="st3" d="M343.8,403.8c0.3,1-0.3,1.9-0.8,2c-0.5,0.1-1.2-0.5-1.4-1.5c-0.4-2.2-0.9-4.4-1.3-6.6
						c0.9-0.3,1.9-0.6,2.8-0.9C343.3,399,343.6,401.4,343.8,403.8z"/>
				</g>
				<g>
					<path class="st3" d="M346.8,405.3c0,1-0.7,1.6-1.3,1.5c-0.4-0.1-0.8-0.6-0.9-1.2c-0.5-2.9-1.1-5.8-1.6-8.7
						c0.3,0.1,0.9,0.2,1.6,0c0.9-0.2,1.5-0.8,1.7-1C346.5,399,346.6,402.2,346.8,405.3z"/>
				</g>
				<g>
					<path class="st3" d="M349.5,403.1c-0.2,0.9-1,1.3-1.6,1.2c-0.4-0.1-0.7-0.5-0.8-1c-0.4-2.4-0.9-4.8-1.3-7.2
						c0.5-0.2,1-0.3,1.5-0.5c0.5-0.1,1-0.3,1.4-0.4C349,397.8,349.3,400.4,349.5,403.1z"/>
				</g>
				<g>
					<path class="st3" d="M351.7,400c-0.2,0.4-0.6,0.7-1.1,0.7c-0.5,0-0.9-0.4-0.9-0.5c-0.3-1.7-0.7-3.4-1-5.1
						c0.8-0.1,1.6-0.1,2.4-0.2L351.7,400z"/>
				</g>
				<path class="st3" d="M340,397.3c-0.1-1.1-0.2-2.7,0.7-3.6c0,0,0.2-0.2,0.5-0.3c0.7-0.4,1.5-0.2,3.7-0.8c2.4-0.7,2.9-1.4,4.2-1
					c0.8,0.2,1.3,0.8,1.6,1.2c0.2,0.3,0.4,0.9,0.5,1.5c0,0.2,0,0.4,0.1,0.8c0,0.6,0.1,1.1,0.1,1.7c-0.4-0.4-0.9-0.6-1.1-0.7
					c-0.4-0.2-0.7-0.2-1-0.5c-0.2-0.3-0.3-0.6-0.3-0.8c0,0.2,0,0.5-0.2,0.7c-0.3,0.3-0.7,0.2-1.4,0.4c-0.8,0.3-1.2,0.9-1.4,0.7
					c-0.2-0.1-0.1-0.6-0.2-0.6c-0.1,0-0.1,0.3-0.2,0.5c-0.2,0.7-1,1.3-1.8,1.3c-0.1,0-0.8,0-1.1-0.4c-0.2-0.3-0.2-0.6-0.3-0.6
					c0,0,0.1,0.5,0,1.1c0,0,0,0.1,0,0.2c-0.2,0.7-1.4,2-1.5,2.2C340.3,399,340.1,398,340,397.3z"/>
			</g>
		</g>
		<g>
			<path class="st3" d="M217.3,293.3c0,0,0.1-0.1,0.1-0.1c0.1,0,0.2,0,0.3,0c0,0.1,0,0.2,0,0.3c0,0,0,0,0,0.1c0,0,0.7,0.4,0.7,0.4
				c0.1,0,1.1,0.6,1.2,0.7c0.1,0.1,1.4,1.7,0.8,3.4c-0.2,0.6-0.6,1-0.8,1.2c-0.8-0.3-1.5-0.6-2.3-0.8c-0.2-0.5-0.5-1.4-0.5-2.5
				C216.9,294.7,217.1,293.8,217.3,293.3z"/>
			<path class="st3" d="M219.7,301.4c-0.6-0.4-1.3-0.7-1.9-1.1c0-0.1,0-0.3,0-0.4c0,0-0.1,0-0.2,0.1c-0.1,0-0.1,0.1-0.2,0.1
				c-0.2,0.4-0.6,1.1-0.6,2.2c0,1.2,0.4,2,0.6,2.4c0.8,0.2,1.5,0.3,2.3,0.5c0.2-0.3,0.4-0.8,0.5-1.4
				C220.3,302.6,219.8,301.7,219.7,301.4z"/>
			<path class="st3" d="M218.5,305.8c0.1,0.3,0.3,0.9,0.3,1.5c0,0.7-0.1,1.3-0.3,1.7c-0.4-0.1-0.8-0.3-1.1-0.4
				c-0.1-0.2-0.6-0.9-0.6-1.9c0.1-0.8,0.4-1.3,0.6-1.5c0,0,0.1-0.1,0.2-0.1c0.1,0,0.1,0,0.1,0c0,0.1,0,0.2,0,0.3c0,0,0,0,0,0.1
				c0,0,0.2,0.1,0.2,0.1C218,305.5,218.5,305.8,218.5,305.8z"/>
			<path class="st3" d="M218.2,309.7c0.1,0.3,0.4,0.8,0.4,1.5c0,0.4-0.1,0.7-0.2,0.9c-0.4,0-0.7,0-1.1,0c-0.1-0.1-0.7-1-0.5-2
				c0.1-0.4,0.3-0.7,0.4-0.8c0,0,0.1-0.1,0.2-0.2c0.1,0,0.2,0,0.2,0c0,0.1,0,0.3,0,0.4C217.9,309.6,218.1,309.6,218.2,309.7z"/>
		</g>
	</g>
	<path class="st9" d="M276.4,371.4c-0.8,0.8-1.9,2-3,3.6c-5.1,7.6-4.5,15.8-4.2,23.6c0.3,6.9,0.5,16.7,0.3,29.9"/>
	<line class="st9" x1="266.6" y1="376.8" x2="276.5" y2="376.8"/>
</g>
</svg>
