<?xml version="1.0" encoding="utf-8"?>
<!-- Generator: Adobe Illustrator 26.0.1, SVG Export Plug-In . SVG Version: 6.00 Build 0)  -->
<svg version="1.1" id="Layer_1" xmlns="http://www.w3.org/2000/svg" xmlns:xlink="http://www.w3.org/1999/xlink" x="0px" y="0px"
	 viewBox="0 0 666.1 723.1" style="enable-background:new 0 0 666.1 723.1;" xml:space="preserve">
<style type="text/css">
	.st0{clip-path:url(#SVGID_00000117651282041466445080000003319756281638916232_);fill:#FFD7DC;}
	.st1{clip-path:url(#SVGID_00000117651282041466445080000003319756281638916232_);}
	.st2{fill:#D8989D;}
	.st3{fill:none;stroke:#FFFFFF;stroke-width:1.6373;stroke-miterlimit:10;}
	.st4{fill:#F27070;}
	.st5{fill:#FAD4AF;}
	.st6{fill:#F9C295;}
	.st7{fill:#212121;}
	.st8{fill:#DD8964;}
	.st9{fill:#E01440;}
	.st10{opacity:0.22;}
	.st11{fill:none;stroke:#F8AE38;stroke-width:2.6727;stroke-miterlimit:10;}
	.st12{fill:#F8AE38;}
	.st13{fill:none;}
	.st14{fill:#E09D6C;}
	.st15{fill:#CE0D28;}
	.st16{fill:#D1D1D1;}
	.st17{fill:#EFECE6;}
	.st18{fill:#383838;}
</style>
<g>
	<g>
		<defs>
			<path id="SVGID_1_" d="M595.9,237.2c-11.6-20.7-25.2-38.9-39.2-54.2c-0.1,0.2-0.3,0.5-0.4,0.7c0.1-0.2,0.3-0.5,0.4-0.7
				c-2.6-2.8-51.5-44.2-51.5-44.2l0,0c-1.4-1.1-2.7-2.2-4.1-3.3c-39.1-32.8-68.8-92.2-177.5-83.1c-50.6,4.2-83.7,24.8-107.4,52.5
				c-7.1,8.3-13.4,17.4-19.1,26.9c-17.4,29.1-29,62.6-40.7,91.8C140.8,262,85,268.1,64.9,312.8c-18.3,21-27.9,54.4-32.7,78.5
				c-3.4,17.4-4.4,30-4.4,30c-5.5,121.5,103.7,214.6,216.3,248.2c25.2,7.5,50.6,12.1,74.9,13.3c11.5,0.6,22.7,0.4,33.5-0.5
				c2.2-0.2,4.4-0.4,6.7-0.7c1.5-0.2,3.1-0.4,4.6-0.6c1.3-0.2,2.6-0.3,3.9-0.5c0.7-0.1,1.4-0.2,2.2-0.3c0.7-0.1,1.4-0.2,2.1-0.3
				c36.5-5.6,77.3-18.3,114.8-37.9c0.2-0.1,0.4-0.2,0.6-0.3c60.5-31.7,112-81.2,121.9-147.4c1.4-9.3,13.3-37.5,17.1-78
				C633.8,336.9,611.7,272.8,595.9,237.2z M511.7,189.7c0,0,0.1,0.1,0.1,0.1C511.8,189.8,511.8,189.7,511.7,189.7z"/>
		</defs>
		<clipPath id="SVGID_00000088835428050448745810000004570209773046283933_">
			<use xlink:href="#SVGID_1_"  style="overflow:visible;"/>
		</clipPath>
		<path style="clip-path:url(#SVGID_00000088835428050448745810000004570209773046283933_);fill:#FFD7DC;" d="M595.9,237.2
			c-11.6-20.7-25.2-38.9-39.2-54.2c-2.6-2.8-51.5-44.2-51.5-44.2c-1.4-1.1-2.7-2.2-4.1-3.3c-39.1-32.8-68.8-92.2-177.5-83.1
			c-50.6,4.2-83.7,24.8-107.4,52.5c-7.1,8.3-13.4,17.4-19.1,26.9c-17.4,29.1-29,62.6-40.7,91.8C140.8,262,85,268.1,64.9,312.8
			c-18.3,21-27.9,54.4-32.7,78.5c-3.4,17.4-4.4,30-4.4,30c-5.5,121.5,103.7,214.6,216.3,248.2c25.2,7.5,50.6,12.1,74.9,13.3
			c11.5,0.6,22.7,0.4,33.5-0.5c2.2-0.2,4.4-0.4,6.7-0.7c1.5-0.2,3.1-0.4,4.6-0.6c1.3-0.2,2.6-0.3,3.9-0.5c0.7-0.1,1.4-0.2,2.2-0.3
			c0.7-0.1,1.4-0.2,2.1-0.3c36.5-5.6,77.3-18.3,114.8-37.9c0.2-0.1,0.4-0.2,0.6-0.3c60.5-31.7,112-81.2,121.9-147.4
			c8.7-43.3,20.8-68.5,20.8-133.3C632,318.3,595.9,237.2,595.9,237.2z"/>
		<g style="clip-path:url(#SVGID_00000088835428050448745810000004570209773046283933_);">
			<path class="st2" d="M516.1,624.5c-50.1,34-108,51.9-157,57.3c-4,0.4-8,0.7-12.1,0.8c-10.1,0.2-20.4,0.3-30.7,0.4
				c-5.4,0-10.7-0.3-16.1-0.9c-50.2-6-113.8-29.5-167-68c19.5-9,41-17,64.5-23.4C333.4,554.2,455.2,597.1,516.1,624.5z"/>
			<path class="st2" d="M172.4,236.6c0,1.6-1,2.9-2.3,2.9s-2.3-1.3-2.3-2.9s1-2.9,2.3-2.9S172.4,235,172.4,236.6z"/>
			<path class="st2" d="M191.6,242.1c0,1.6-1,2.9-2.3,2.9s-2.3-1.3-2.3-2.9s1-2.9,2.3-2.9S191.6,240.5,191.6,242.1z"/>
			<path class="st2" d="M255.8,156c0,1.6-1,2.9-2.3,2.9s-2.3-1.3-2.3-2.9c0-1.6,1-2.9,2.3-2.9S255.8,154.4,255.8,156z"/>
			<path class="st2" d="M555.1,411.5c0,1.6-1,2.9-2.3,2.9s-2.3-1.3-2.3-2.9s1-2.9,2.3-2.9S555.1,409.9,555.1,411.5z"/>
			<path class="st2" d="M562.9,403.7c0,1.6-1,2.9-2.3,2.9s-2.3-1.3-2.3-2.9s1-2.9,2.3-2.9S562.9,402.1,562.9,403.7z"/>
			<ellipse class="st2" cx="183.4" cy="227.3" rx="3.7" ry="4.6"/>
			<path class="st2" d="M179.7,398.3c0,3.3-2.1,6-4.8,6c-2.6,0-4.8-2.7-4.8-6c0-3.3,2.1-6,4.8-6C177.5,392.3,179.7,395,179.7,398.3z
				"/>
			<path class="st2" d="M449.4,141.8c0,3.3-2.1,6-4.8,6c-2.6,0-4.8-2.7-4.8-6c0-3.3,2.1-6,4.8-6
				C447.3,135.8,449.4,138.5,449.4,141.8z"/>
			<ellipse class="st3" cx="210.5" cy="122.6" rx="15.2" ry="19.2"/>
			<ellipse class="st2" cx="27.6" cy="461.6" rx="31.2" ry="39.3"/>
			<g>
				<g>
					<path class="st2" d="M267.1,156h231.2v147.4H267.1V156z M494,160.3H271.3v138.8H494V160.3z"/>
				</g>
				<g>
					<path class="st2" d="M364.1,240.9c0,0,5.6,5.8,17,7.3v20.4h3.1v-13.2l2.2,0.5v12.7h1.8v-15h29.1v15h1.8v-13l2.6-0.6v13.5h2.2
						v-20.2c12.3-1,17.5-6.8,17.5-6.8c0.6-1.4-0.8-1.7-0.8-1.7s-0.5,0.2-1.3,0.4c-0.1-0.2-0.2-0.4-0.3-0.7c-0.1-0.5,0.1-0.4,0.4-0.8
						c0.6-0.8-0.6-0.8-1.1-0.5c-0.7,0.4-0.8,1-0.6,1.7c0.1,0.2,0.1,0.5,0.1,0.7c-0.4,0.1-0.7,0.2-1.1,0.3c-0.1-0.3-0.3-0.5-0.3-0.8
						c-0.1-0.5,0.1-0.4,0.4-0.8c0.6-0.8-0.6-0.8-1.1-0.5c-0.7,0.4-0.8,1-0.6,1.7c0.1,0.2,0.1,0.5,0.1,0.7c-0.4,0.1-0.8,0.1-1.2,0.2
						c-0.1-0.2-0.2-0.4-0.2-0.6c-0.1-0.5,0.1-0.4,0.4-0.8c0.6-0.8-0.6-0.8-1.1-0.5c-0.7,0.4-0.8,1-0.6,1.7c0,0.1,0.1,0.3,0.1,0.4
						c-1.5,0.2-3,0.2-3.9-0.2c-3.1-1-5-7.7-5.2-8.7c4.1-1.9,6.6-4.3,6.6-4.3c0.4-1-0.6-1.2-0.6-1.2s-0.3,0.2-0.8,0.4
						c0.1-0.6,0.3-1.6,0.2-1.7c-0.6-0.5-0.9,1.3-1.4,2.3c-0.2,0.1-0.4,0.2-0.6,0.3c0.1-0.5,0.3-1.6,0.2-1.8
						c-0.6-0.5-0.9,1.4-1.4,2.3c-0.2,0.1-0.4,0.2-0.5,0.2c0.1-0.5,0.3-1.6,0.2-1.8c-0.6-0.5-0.9,1.3-1.4,2.2c-2.1,0.8-4.3,1.4-5.5,1
						c-1.3-0.5-2.4-2.5-3.1-4.2c0.1-1.2,0.2-2.2,1.6-2.5c-0.1-0.4-0.7-0.7-1.1-0.7c1.9-0.9-0.8-2.5-0.8-1.4c0.5,0.5-0.6,0.9-0.7,0.2
						c-0.1-0.5,0.6-0.7,0.6-1c-0.8,0-1.9,0.6-1.7,1.5c0.1,0.4,0.7,0.5,0.4,1c-0.2,0.3-0.8,0.3-1.1,0.3h0h-18.6c-0.1,0-0.1,0-0.2-0.1
						c-0.3-0.5,0.3-0.5,0.4-1c0.2-1-0.9-1.6-1.7-1.6c0.1,0.4,0.7,0.6,0.6,1c-0.1,0.7-1.2,0.3-0.7-0.2c0-1.1-2.7,0.5-0.8,1.4
						c-0.4,0-1,0.3-1.1,0.7c0.9,0.2,1.3,0.7,1.4,1.4c-0.5,1.8-1.6,4.5-3.2,4.8c-1.7,0.3-3.7,0-5.5-0.5c-0.4-1-0.7-2.4-1.2-1.9
						c-0.1,0.1,0,1,0.1,1.6c-0.2-0.1-0.4-0.1-0.6-0.2c-0.4-1-0.7-2.6-1.3-2.2c-0.1,0.1,0,1.1,0.2,1.7c-0.2-0.1-0.4-0.2-0.6-0.3
						c-0.5-1-0.7-2.7-1.3-2.2c-0.1,0.1,0,1,0.1,1.6c-0.6-0.3-1-0.5-1-0.5s-1,0.2-0.6,1.2c0,0,2.6,2.4,6.8,4.2
						c-0.3,1.4-1.9,7.1-4.8,8.1c-1.4,0.5-4.2,0.2-6.9-0.3c0-0.1,0-0.1,0-0.2c0.2-0.7,0.1-1.3-0.6-1.7c-0.5-0.3-1.7-0.3-1.1,0.5
						c0.2,0.3,0.4,0.3,0.4,0.8c0,0.1-0.1,0.2-0.1,0.3c-0.4-0.1-0.9-0.2-1.3-0.3c0-0.1,0-0.2,0.1-0.4c0.2-0.7,0.1-1.3-0.6-1.7
						c-0.5-0.3-1.7-0.3-1.1,0.5c0.2,0.3,0.4,0.3,0.3,0.8c0,0.2-0.1,0.3-0.2,0.4c-0.4-0.1-0.8-0.2-1.2-0.3c0-0.1,0-0.2,0.1-0.3
						c0.2-0.7,0.1-1.3-0.6-1.7c-0.5-0.3-1.7-0.3-1.1,0.5c0.2,0.3,0.4,0.3,0.4,0.8c0,0.1-0.1,0.2-0.1,0.3c-0.3-0.1-0.4-0.1-0.4-0.1
						S363.5,239.5,364.1,240.9z M384.2,250.4v-1.8h2.2v1.8H384.2z M419,250.4v-1.8h2.6v1.8H419z M388.2,250.4v-1.8h29.1v1.8H388.2z"
						/>
					<path class="st2" d="M391.4,190.1c-0.2,0.3-0.4,0.7-0.6,1c0.2,0,0.6,0,0.8,0c-0.3,0.2-0.4,0.4-0.5,0.7c1.3,0,2.7-0.6,4.1-0.9
						c1.7-0.3,3.3-0.4,5-0.4c0.3,0,0.6,0,0.9,0c-0.1,0-0.3,0.1-0.4,0.1c0.1,0.2,0.1,1.1,0.3,1.3c-0.8,0.1-2.2-0.2-2.6,0.6
						c-0.4,1,0.6,1.7,1.4,1.9c-0.4,0.7-1,1.3-1.4,2c0.5-0.1,1.2,0.2,1.8,0.1c-0.6,0.4-0.9,0.9-1.1,1.5c2.8,0.2,6-1,8.9-1.2
						c0,0,0.1,0,0.1,0c2,2.8,5.8,5.1,9.2,5c2.1,2,4.7,3.4,7.6,3.9l-0.6,0.3c0.6-0.1,1.2-0.1,1.8-0.2c0.5,0,1,0,1.6,0
						c0,0,0.1,0,0.1-0.1c13.9,0,12.4,13.2,12.4,13.2c-0.3,1.7-0.4,3.2-0.4,4.5c-2.2,0.5-7.9,1.1-14.6-5.2c0.4-0.4,0.8-0.9,0.9-1.4
						c0.1-0.4,0.1-0.9,0-1.3c0.8,0.1,1.6,0.1,2.4,0c2.5-0.4,0.8-2.4-0.5-3.3c0.2-0.1,0.3-0.3,0.5-0.3c-1-1.6-3.7-0.8-5.2-1.1
						c0.3-0.2,0.5-0.6,0.8-0.9c-0.4,0-0.8-0.1-1.2-0.1c0.4-0.2,0.4-0.5,0.5-0.7c-0.9-0.2-1.8,0.3-2.6,0.6c-0.8-0.9-3.2-0.3-4.3-0.3
						c-1.1,0.1-2.4,0.2-3.2,1c-1,0.9-0.9,1.4-2.4,1.7c0.1,0.2,0.1,0.7,0.3,0.9c-0.6,0.1-1.5-0.1-1.7,0.5c-0.2,0.7,0.5,1.1,1,1.2
						c-0.2,0.5-0.6,0.9-0.8,1.4c0.4-0.1,0.8,0.1,1.2,0c-0.4,0.3-0.6,0.6-0.7,1c1.3,0,2.7-0.5,4.1-0.8c4.8,4.3,9.8,4.3,11.2,4.2
						c3,3,6.9,5.9,10.7,5.5l3.8-0.5c0.8,7.9,6.1,10.1,6.1,10.1c3.5,1.2,6,3.1,7.7,5.6c4.5,6.4-1.7,16.9-3.9,20.8
						c-3.3,6-5.8,7.1-7.4,12.7c-1.2,4.2-1,8-0.6,10.6c1.1,0.4,2.7,0.8,4.6,0.8c1,0,2-0.2,2.7-0.3c-0.4-1.6-0.8-4-0.5-6.9
						c0.4-3.7,1.6-6.5,2.5-8.1c4.9,2,11.6,6.5,14.8,6.4c0.9,0,1.8-0.3,2.5-0.8c0,0,0.1,0,0.1,0c1.7-0.8,3.8,0.5,5.4-0.6
						c1.1-0.8,1.8-2,2.7-2.9c0.9,0.2,1.7,0.3,2.6,0.3c2.5-0.2,1-2.3-0.2-3.3c0.2-0.1,0.4-0.2,0.5-0.3c-0.8-1.7-3.7-1.2-5.1-1.6
						c0.3-0.2,0.6-0.6,0.8-0.8c-0.4,0-0.8-0.2-1.2-0.2c0.4-0.2,0.4-0.5,0.6-0.7c-0.9-0.3-1.8,0.1-2.6,0.4c-0.7-1-3.2-0.7-4.3-0.7
						c-1.1,0-2.4,0-3.3,0.7c-1.1,0.8-1,1.3-2.5,1.5c0.1,0.2,0.1,0.7,0.2,0.9c-0.6,0-1.5-0.2-1.7,0.3c-0.3,0.7,0.4,1.1,0.9,1.3
						c-0.3,0.5-0.7,0.9-0.9,1.3c0.4,0,0.8,0.1,1.2,0.1c-0.4,0.2-0.6,0.6-0.8,1c1.8,0.2,4-0.5,5.9-0.6c1.4-0.1,2.8-0.1,4.2,0
						c-1,1-2.8,2.6-5.2,3.1c-3.3,0.7-10.1-5.1-13.5-6.5c2.1-3.4,4.8-6.3,7.1-9c0,0,0,0,0,0c4.2-2,9.3-3,9.3-3
						c10.4-0.2,18-5.3,22.8-10c0.1,0.1,0.2,0.1,0.2,0.1c0.7-0.7,1.5-0.9,2.4-1V245c-0.4,0-0.8,0.1-1.2,0.2c0.4-0.5,0.8-0.9,1.2-1.4
						v-2.4c-0.5,0.6-1.1,1.2-1.6,1.7c-0.4-0.4-0.8-0.9-0.9-1.5c-0.1-0.4-0.1-0.8-0.1-1.1c0.8,0,1.7-0.1,2.5-0.1v-10.8
						c-1-0.1-2.1-0.1-3.1,0c-0.2-1.1-1.7-2.4-2.9-3.1c0.3-0.1,0.5-0.4,0.7-0.5c-1.6-2.3-5.7-0.9-7.9-1.2c0.4-0.4,0.7-1,1.1-1.4
						c-0.6,0.1-1.2-0.1-1.8,0c0.5-0.4,0.5-0.8,0.8-1.2c-1.4-0.2-2.6,0.6-3.8,1.2c-1.3-1.3-4.9-0.2-6.6,0c-1.7,0.2-3.5,0.6-4.8,1.8
						c-1.4,1.4-1.2,2.1-3.4,2.8c0.2,0.2,0.3,1,0.5,1.3c-0.8,0.2-2.3,0-2.5,0.9c-0.3,1,0.8,1.6,1.6,1.7c-0.3,0.7-0.8,1.5-1.1,2.1
						c0.5-0.1,1.3,0,1.8-0.1c-0.6,0.4-0.8,1-0.9,1.6c2.8-0.2,5.8-1.7,8.7-2.3c0.4-0.1,0.9-0.2,1.3-0.3c0.4,2.9,0.6,6.2-1.6,8.1
						c-1.7,1.4-4,2-5.9,3.1c-0.6,0.3-1.2,0.7-1.7,1.1c-1.1-4.8-4.1-9.2-9.8-10.9c-6.8-2-9-7.2-9.6-11.2c2.9,0,5.7-0.2,8.5-0.9
						c2.5-0.7,5-1.7,6.6-3.8c1.1-1.5,1.8-3.2,2.4-4.9c1.9-0.3,3.7-0.3,5.2-1.7c1.5-1.4,2.7-3.1,4.4-4.2c1.3,0.2,2.6,0.4,3.9,0.3
						c3.3-0.3,1.3-3-0.4-4.3c0.2-0.1,0.5-0.3,0.7-0.4c-0.1-0.1-0.1-0.2-0.2-0.3c2.1-0.3,4.2-0.4,6.3-0.5c1.8-0.1,3.6,0.5,5.4,0.2
						c2.5-0.4,0.8-2.4-0.6-3.3c0.2-0.1,0.3-0.3,0.5-0.3c-1-1.6-3.7-0.8-5.2-1.1c0.3-0.2,0.5-0.6,0.8-0.9c-0.4,0-0.8-0.1-1.2-0.1
						c0.4-0.2,0.4-0.5,0.5-0.7c-0.4-0.1-0.7,0-1.1,0c-0.1-1-1.4-2.3-2.5-3.1c0.2-0.1,0.5-0.4,0.7-0.5c-1.4-2.2-5.2-1.1-7.2-1.5
						c0.4-0.3,0.7-0.9,1.1-1.3c-0.5,0-1.1-0.2-1.6-0.1c0.5-0.3,0.5-0.7,0.8-1c-1.3-0.2-2.4,0.4-3.6,0.9c-1.1-1.3-4.4-0.5-6-0.4
						c-1.6,0.1-3.3,0.3-4.5,1.4c-1.4,1.2-1.2,1.9-3.3,2.4c0.1,0.2,0.2,1,0.3,1.2c-0.8,0.1-2.1-0.1-2.3,0.7c0,0,0,0,0,0
						c-1-0.4-2.9,0-3.9,0.1c-1.1,0.1-2.4,0.2-3.2,1c-1,0.9-0.9,1.4-2.4,1.7c0.1,0.2,0.1,0.7,0.3,0.9c-0.6,0.1-1.5-0.1-1.7,0.5
						c-0.2,0.7,0.5,1.1,1,1.2c-0.2,0.5-0.6,0.9-0.8,1.4c0.4-0.1,0.8,0.1,1.2,0c-0.4,0.3-0.6,0.6-0.7,1c1.8,0,3.9-0.9,5.8-1.2
						c2.1-0.4,4.1-0.5,6.2-0.6c-0.5,0.5-0.9,0.8-2.2,1c0.1,0.2,0.1,0.9,0.3,1.2c-0.7,0.1-2-0.2-2.3,0.5c-0.4,0.9,0.5,1.5,1.2,1.7
						c-0.4,0.6-0.9,1.2-1.2,1.7c0.5,0,1.1,0.1,1.6,0.1c-0.6,0.3-0.8,0.8-1,1.3c1.5,0.1,3.2-0.3,4.8-0.6c-0.1,1.4,0.1,2.9,0.4,4.1
						c0.3,1.4,0.8,3.1,1.9,4.2c-3,4.1-9,4.8-13.9,4.8c-0.1-1.8,0.2-3.1,0.2-3.1c0.3-9.5-6.5-12.2-11.1-13c0,0,0,0,0,0
						c-3.5-1.3-7.6-0.4-10.8-2.4c-0.2-0.1-0.4-0.3-0.7-0.5c1.4-1.1,2.4-2.9,3.3-4.5c1.1,0.2,2.2,0.3,3.3,0.2c3.8-0.4,1.5-3.5-0.5-5
						c0.3-0.1,0.5-0.4,0.8-0.4c-1.2-2.2-4.7-1.7-7-2c0.8-0.2,1.7-0.3,2.5-0.3c3.4-0.3,6.6-0.2,10,0c2.4,0.1,5,1.1,7.4,0.9
						c3.5-0.3,1.4-3.2-0.4-4.6c0.2-0.1,0.5-0.3,0.7-0.4c-1.2-2.3-5.1-1.5-7.1-2.2c0.5-0.3,0.8-0.8,1.2-1.2c-0.5,0-1.1-0.3-1.6-0.2
						c0.5-0.3,0.6-0.7,0.8-1c-1.3-0.3-2.4,0.2-3.6,0.6c-1-1.4-4.4-0.9-6-0.9c-1.6,0-3.3,0-4.6,1c-1.5,1.1-1.4,1.8-3.5,2.1
						c0.1,0.2,0.1,1,0.2,1.2c-0.8,0-2.1-0.3-2.4,0.5c-0.4,0.9,0.5,1.6,1.3,1.8c0,0,0,0.1-0.1,0.1c-1.5-0.8-4.4-0.3-5.8-0.3
						c-1.7,0-3.6,0.1-5,1.2c-0.2,0.1-0.3,0.2-0.4,0.3c-0.1-0.1-0.3-0.2-0.4-0.3c0.1-0.1,0.2-0.2,0.4-0.2c-0.7-1.1-2.6-0.5-3.6-0.8
						c0.2-0.2,0.4-0.4,0.5-0.6c-0.3,0-0.5-0.1-0.8-0.1c0.3-0.2,0.3-0.4,0.4-0.5c-0.7-0.1-1.2,0.2-1.8,0.4c-0.6-0.6-2.2-0.2-3-0.2
						c-0.8,0.1-1.7,0.2-2.3,0.7c-0.7,0.6-0.6,0.9-1.6,1.2c0.1,0.1,0.1,0.5,0.2,0.6c-0.4,0.1-1,0-1.2,0.3
						C390.5,189.7,391,190,391.4,190.1z M466.9,199.6c0.5-0.3,0.5-0.6,0.8-0.9c-1.2-0.3-2.3,0.2-3.5,0.6c-0.7-1-2.7-0.9-4.2-0.8
						c-0.1-0.1-0.3-0.3-0.4-0.4c0.2-0.1,0.5-0.1,0.7-0.1c3.3-0.6,6.6-0.7,9.9-0.8c0.1,0,0.2,0,0.4,0c-0.1,0.1-0.2,0.1-0.2,0.2
						c-1,0.9-0.9,1.4-2.4,1.7c0.1,0.1,0.1,0.6,0.2,0.8C467.8,199.8,467.3,199.6,466.9,199.6z M460.9,211.8c0.7-1.8,1.6-3.6,3.1-4.9
						c0.9,0,1.9,0,2.8,0.1c0.4,0,0.7,0,1.1,0.1c-1.1,1-2.1,2.2-3.2,3.3C463.5,211.3,462.2,211.6,460.9,211.8z M455.4,210.4
						c-0.1-1-0.1-2.1,0-3.1c0.6-0.1,1.3-0.2,1.9-0.3c1.2-0.1,2.4-0.2,3.5-0.2c-1.6,2.6-2.1,5.8-3.8,8.5
						C455.7,214.4,455.5,211.8,455.4,210.4z M475.7,232c-0.6,2-1.1,3.9-2.9,5c0-1.5-0.2-3-0.4-4.4
						C473.5,232.4,474.6,232.2,475.7,232z M487,240.8c-0.6,1.7-1.2,3.4-2.9,4.2c0.2-1.1,0.3-2.3,0.3-3.7
						C485.3,241.1,486.2,240.9,487,240.8z M482.2,250.6c0.7-1.1,1.3-2.6,1.7-4.8c0,0,0,0,0,0c2.4-0.8,2.9-3,3.8-5.1
						c1.1-0.1,2.2-0.2,3.3-0.3c0,0.5,0.1,0.9,0.2,1.3c0.2,0.6,0.6,1.1,1,1.6C488.6,247,485.2,249.3,482.2,250.6z M462.1,253.8
						c0.6-2.2,0.7-4.7,0.4-7.1c0.1-0.1,0.1-0.2,0.2-0.2c0.8-0.8,1.8-1.3,2.8-1.8c2-0.9,4.4-1.6,5.8-3.4c0.7-0.8,1-1.7,1.2-2.7
						c0,0,0,0,0.1,0c3.2-1,3.4-4.1,4.4-6.8c1.3-0.2,2.6-0.3,3.9-0.4c0.5,0,1-0.1,1.5-0.1c-1.5,1.3-1.5,2-3.9,2.5
						c0.1,0.3,0.2,1.2,0.4,1.5c-1,0.1-2.6-0.2-3,0.7c-0.5,1.2,0.7,1.9,1.6,2.2c-0.5,0.8-1.1,1.6-1.5,2.3c0.6-0.1,1.4,0.2,2,0.1
						c-0.7,0.4-1,1.1-1.3,1.8c1.9,0.1,4.1-0.4,6.2-0.9c-0.3,2.5-1.1,7.1-3.9,10.1c-3.8,1.1-7,0.9-9.6,0.6
						C466.5,251.9,463.9,252.9,462.1,253.8z M469.7,275.3c1.2-1,2.1-2.3,2.6-3.2c0.5,0,1.1,0.1,1.6,0.1c0.6,0,1.3,0.2,1.9,0.3
						c-0.8,1-1.5,2.2-2.7,2.7C472.1,275.6,470.9,275.3,469.7,275.3z M421,215.4c0.7,1,1.7,2.2,2.9,3.6c-4.2,0-7.5-1.7-9.1-2.9
						c0.3-0.1,0.7-0.2,1-0.2C417.6,215.6,419.3,215.5,421,215.4z M424.5,217.7c-0.7-0.7-1.5-1.5-2.2-2.4c0.2,0,0.5,0,0.7,0
						c0.8,0,1.7,0.1,2.6,0.2c0,0.3,0,0.6-0.1,0.9C425.3,216.9,424.9,217.4,424.5,217.7z M415.7,196.5c1.1,0,2.1,0,3.2,0.1
						c1.1,0,2.2,0.2,3.3,0.4c-0.8,1.5-1.7,2.8-3.1,3.8C417.7,199.6,416.6,198.1,415.7,196.5z M408.8,196.7c1.6-0.1,3.1-0.2,4.6-0.2
						c0.7,1.4,1.6,2.7,2.6,3.9C413.4,200.3,410.4,198.8,408.8,196.7z"/>
					<path class="st2" d="M318.6,237.9c-0.1-0.2-0.4-0.1-0.5-0.2c0-0.1,0.1-0.2,0.1-0.3c-0.5-0.1-0.4-0.3-0.8-0.5
						c-0.3-0.3-0.7-0.3-1-0.3c-0.4,0-1.1-0.2-1.4,0.1c-0.3-0.1-0.5-0.3-0.8-0.2c0.1,0.1,0.1,0.2,0.2,0.2c-0.1,0-0.3,0-0.4,0
						c0.1,0.1,0.1,0.2,0.2,0.3c-0.5,0.1-1.4-0.2-1.7,0.4c0.1,0,0.1,0.1,0.2,0.1c-0.1,0-0.1,0.1-0.2,0.1c-0.1,0-0.1-0.1-0.2-0.2
						c-0.6-0.5-1.5-0.6-2.3-0.6c-0.7,0-2-0.2-2.7,0.1c0,0,0,0,0,0c0.3-0.1,0.8-0.4,0.6-0.8c-0.2-0.3-0.7-0.2-1.1-0.2
						c0.1-0.1,0.1-0.5,0.1-0.6c-0.9-0.1-0.9-0.4-1.6-0.9c-0.6-0.4-1.4-0.5-2.1-0.5c-0.7,0-2.3-0.2-2.7,0.4c-0.5-0.2-1.1-0.4-1.7-0.3
						c0.1,0.1,0.1,0.3,0.4,0.4c-0.2,0-0.5,0.1-0.7,0.1c0.2,0.2,0.3,0.4,0.5,0.5c-0.9,0.3-2.7-0.1-3.2,1c0.1,0,0.2,0.1,0.3,0.2
						c-0.8,0.6-1.8,2-0.2,2.1c1.1,0.1,2.3-0.3,3.4-0.4c1.5-0.1,3-0.1,4.6,0c0.4,0,0.8,0.1,1.1,0.2c-1,0.1-2.7-0.1-3.2,0.9
						c0.1,0,0.2,0.1,0.4,0.2c-0.9,0.7-2,2.1-0.2,2.3c0.5,0,1,0,1.5-0.1c0.4,0.8,0.8,1.5,1.5,2.1c-0.1,0.1-0.2,0.1-0.3,0.2
						c-1.5,0.9-3.4,0.5-4.9,1.1c0,0,0,0,0,0c-2.1,0.3-5.2,1.6-5.1,5.9c0,0,0.1,0.6,0.1,1.4c-2.2,0-5-0.3-6.4-2.2
						c0.5-0.5,0.7-1.3,0.9-1.9c0.1-0.6,0.2-1.2,0.2-1.9c0.8,0.2,1.5,0.3,2.2,0.3c-0.1-0.2-0.2-0.5-0.5-0.6c0.2,0,0.5-0.1,0.7,0
						c-0.1-0.3-0.4-0.5-0.5-0.8c0.3-0.1,0.7-0.4,0.6-0.8c-0.1-0.3-0.7-0.2-1-0.2c0.1-0.1,0.1-0.4,0.1-0.5c-0.6-0.1-0.8-0.2-1-0.5
						c1,0,1.9,0.1,2.9,0.3c0.9,0.1,1.8,0.6,2.7,0.6c0-0.2-0.1-0.4-0.3-0.5c0.2,0,0.4,0,0.5,0c-0.1-0.2-0.3-0.4-0.4-0.6
						c0.2,0,0.6-0.2,0.5-0.5c-0.1-0.2-0.5-0.2-0.8-0.2c0.1-0.1,0.1-0.3,0.1-0.4c-0.7-0.2-0.6-0.4-1.1-0.8c-0.4-0.4-1-0.4-1.5-0.5
						c-0.4,0-1.3-0.2-1.8,0c0,0,0,0,0,0c-0.1-0.3-0.7-0.3-1.1-0.3c0.1-0.1,0.1-0.5,0.2-0.6c-0.9-0.2-0.9-0.5-1.5-1.1
						c-0.6-0.5-1.3-0.6-2.1-0.6c-0.7-0.1-2.2-0.4-2.7,0.2c-0.5-0.2-1-0.5-1.6-0.4c0.1,0.1,0.1,0.3,0.3,0.5c-0.2,0-0.5,0.1-0.7,0
						c0.2,0.2,0.3,0.4,0.5,0.6c-0.9,0.2-2.7-0.3-3.3,0.7c0.1,0,0.2,0.2,0.3,0.2c-0.5,0.3-1.1,0.9-1.2,1.4c-0.2,0-0.3-0.1-0.5,0
						c0.1,0.1,0.1,0.2,0.2,0.3c-0.2,0-0.4,0-0.5,0c0.1,0.1,0.2,0.3,0.3,0.4c-0.7,0.1-1.9-0.2-2.4,0.5c0.1,0,0.2,0.1,0.2,0.2
						c-0.6,0.4-1.4,1.3-0.3,1.5c0.8,0.1,1.6-0.1,2.5-0.1c1,0,1.9,0.1,2.9,0.2c0,0-0.1,0.1-0.1,0.1c0.1,0,0.2,0.1,0.3,0.2
						c-0.8,0.6-1.7,1.8-0.2,2c0.6,0.1,1.2,0,1.8-0.1c0.8,0.5,1.4,1.3,2,1.9c0.7,0.6,1.5,0.7,2.4,0.8c0.3,0.8,0.6,1.6,1.1,2.2
						c0.7,1,1.9,1.4,3,1.7c1.3,0.3,2.6,0.4,3.9,0.4c-0.3,1.8-1.3,4.2-4.4,5.1c-2.6,0.8-4,2.8-4.5,5c-0.2-0.2-0.5-0.4-0.8-0.5
						c-0.9-0.5-1.9-0.8-2.7-1.4c-1-0.9-0.9-2.4-0.7-3.7c0.2,0,0.4,0.1,0.6,0.1c1.3,0.3,2.7,1,4,1.1c-0.1-0.3-0.2-0.5-0.4-0.8
						c0.2,0.1,0.6,0,0.8,0.1c-0.1-0.3-0.4-0.6-0.5-1c0.4-0.1,0.9-0.3,0.7-0.8c-0.1-0.4-0.8-0.3-1.1-0.4c0.1-0.1,0.1-0.5,0.2-0.6
						c-1-0.3-0.9-0.6-1.6-1.3c-0.6-0.6-1.4-0.7-2.2-0.8c-0.8-0.1-2.4-0.6-3,0c-0.6-0.3-1.1-0.6-1.8-0.5c0.1,0.2,0.1,0.4,0.3,0.5
						c-0.3,0-0.6,0-0.8,0c0.2,0.2,0.3,0.5,0.5,0.7c-1,0.2-2.9-0.5-3.6,0.6c0.1,0.1,0.2,0.2,0.3,0.2c-0.6,0.3-1.2,0.9-1.3,1.4
						c-0.5,0-1,0-1.4,0v5c0.4,0,0.8,0,1.1,0c0,0.2,0,0.4,0,0.5c0,0.3-0.2,0.5-0.4,0.7c-0.2-0.2-0.5-0.5-0.7-0.8v1.1
						c0.2,0.2,0.4,0.4,0.6,0.6c-0.2,0-0.4-0.1-0.6-0.1v0.3c0.4,0.1,0.8,0.2,1.1,0.5c0,0,0.1,0,0.1,0c2.2,2.1,5.7,4.5,10.4,4.6
						c0,0,2.3,0.5,4.3,1.4c0,0,0,0,0,0c1,1.2,2.3,2.6,3.2,4.1c-1.6,0.6-4.7,3.3-6.2,3c-1.1-0.3-1.9-1-2.4-1.4c0.6,0,1.3,0,1.9,0
						c0.9,0.1,1.9,0.4,2.7,0.3c-0.1-0.2-0.2-0.3-0.4-0.4c0.2,0,0.4-0.1,0.5,0c-0.1-0.2-0.3-0.4-0.4-0.6c0.2-0.1,0.5-0.3,0.4-0.6
						c-0.1-0.2-0.5-0.1-0.8-0.1c0-0.1,0-0.3,0.1-0.4c-0.7-0.1-0.7-0.3-1.2-0.7c-0.4-0.3-1-0.3-1.5-0.3c-0.5,0-1.6-0.1-2,0.3
						c-0.4-0.1-0.8-0.3-1.2-0.2c0.1,0.1,0.1,0.2,0.3,0.3c-0.2,0-0.4,0.1-0.5,0.1c0.1,0.1,0.2,0.3,0.4,0.4c-0.7,0.2-1.9,0-2.3,0.7
						c0.1,0,0.2,0.1,0.2,0.1c-0.6,0.5-1.3,1.4-0.1,1.5c0.4,0,0.8,0,1.2-0.1c0.4,0.4,0.7,1,1.2,1.3c0.7,0.5,1.7-0.1,2.5,0.3
						c0,0,0,0,0.1,0c0.4,0.2,0.7,0.3,1.2,0.4c1.5,0.1,4.5-2,6.8-2.9c0.4,0.7,1,2,1.2,3.7c0.1,1.3,0,2.4-0.2,3.2
						c0.3,0.1,0.8,0.1,1.2,0.2c0.9,0,1.6-0.2,2.1-0.4c0.2-1.2,0.3-2.9-0.3-4.8c-0.7-2.5-1.9-3.1-3.4-5.8c-1-1.8-3.9-6.6-1.8-9.5
						c0.8-1.1,1.9-2,3.5-2.5c0,0,2.4-1,2.8-4.6l1.7,0.3c1.7,0.1,3.5-1.1,4.9-2.5c0.7,0,3,0,5.1-1.9c0.6,0.2,1.3,0.4,1.9,0.4
						c0-0.2-0.1-0.4-0.3-0.5c0.2,0,0.4,0,0.5,0c-0.1-0.2-0.3-0.4-0.4-0.6c0.2,0,0.6-0.2,0.5-0.5c-0.1-0.2-0.5-0.2-0.8-0.2
						c0.1-0.1,0.1-0.3,0.1-0.4c-0.7-0.2-0.6-0.4-1.1-0.8c-0.4-0.4-1-0.4-1.5-0.5c-0.5,0-1.6-0.3-2,0.1c-0.4-0.2-0.7-0.4-1.2-0.3
						c0.1,0.1,0.1,0.2,0.2,0.3c-0.2,0-0.4,0-0.5,0c0.1,0.1,0.2,0.3,0.3,0.4c-0.7,0.1-1.9-0.2-2.4,0.5c0.1,0,0.2,0.1,0.2,0.2
						c-0.6,0.4-1.4,1.3-0.3,1.5c0.4,0.1,0.7,0,1.1,0c0,0.2,0,0.4,0,0.6c0,0.3,0.2,0.5,0.4,0.7c-3.1,2.8-5.7,2.6-6.7,2.4
						c0-0.6-0.1-1.3-0.2-2.1c0,0-0.7-6,5.7-6c0,0,0,0,0,0c0.2,0,0.5,0,0.7,0c0.3,0,0.5,0,0.8,0.1l-0.3-0.1c1.3-0.2,2.5-0.8,3.5-1.8
						c1.6,0,3.3-1,4.2-2.3c0,0,0,0,0.1,0c1.3,0.1,2.8,0.6,4.1,0.6c-0.1-0.3-0.2-0.5-0.5-0.7c0.2,0,0.6-0.1,0.8,0
						c-0.2-0.3-0.4-0.6-0.6-0.9c0.4-0.1,0.8-0.4,0.6-0.9c-0.2-0.4-0.8-0.2-1.2-0.3c0.1-0.1,0.1-0.5,0.1-0.6c-0.1,0-0.1,0-0.2,0
						c0.1,0,0.3,0,0.4,0c0.8,0,1.5,0.1,2.3,0.2c0.6,0.1,1.3,0.4,1.9,0.4c0-0.1-0.1-0.2-0.2-0.3c0.1,0,0.3,0,0.4,0
						c-0.1-0.1-0.2-0.3-0.3-0.4C318.5,238.2,318.7,238.1,318.6,237.9z M283.2,242.7c0-0.1,0.1-0.3,0.1-0.4c-0.7-0.2-0.6-0.4-1.1-0.8
						c0,0-0.1-0.1-0.1-0.1c0.1,0,0.1,0,0.2,0c1.5,0,3,0.1,4.6,0.4c0.1,0,0.2,0,0.3,0.1c-0.1,0.1-0.1,0.1-0.2,0.2
						c-0.7,0-1.6-0.1-1.9,0.4c-0.5-0.2-1-0.4-1.6-0.3c0.1,0.1,0.1,0.3,0.4,0.4C283.6,242.6,283.4,242.7,283.2,242.7z M284.8,247.5
						c-0.5-0.5-1-1-1.5-1.5c0.2,0,0.3,0,0.5,0c0.4,0,0.9,0,1.3,0c0.7,0.6,1.1,1.4,1.4,2.3C285.9,248.1,285.3,248,284.8,247.5z
						 M288.3,249.8c-0.8-1.2-1-2.7-1.7-3.9c0.5,0,1.1,0,1.6,0.1c0.3,0,0.6,0.1,0.9,0.1c0.1,0.5,0.1,1,0,1.4
						C289,248.2,288.9,249.4,288.3,249.8z M281.3,257.7c-0.1,0.6-0.2,1.3-0.2,2c-0.8-0.5-1.1-1.4-1.3-2.3
						C280.2,257.5,280.8,257.6,281.3,257.7z M275.8,261.7c0,0.6,0.1,1.2,0.2,1.7c-0.8-0.4-1.1-1.1-1.3-1.9
						C274.9,261.5,275.3,261.6,275.8,261.7z M272.2,262.6c0.2-0.2,0.4-0.4,0.5-0.7c0.1-0.2,0.1-0.4,0.1-0.6c0.5,0,1,0.1,1.5,0.1
						c0.4,1,0.6,2,1.7,2.3c0,0,0,0,0,0c0.2,1,0.5,1.7,0.8,2.2C275.4,265.3,273.8,264.3,272.2,262.6z M282.5,266.7
						c-1.2,0.1-2.7,0.2-4.4-0.3c-1.3-1.4-1.7-3.5-1.8-4.6c1,0.2,1.9,0.4,2.8,0.4c-0.1-0.3-0.2-0.6-0.6-0.8c0.3,0,0.6-0.1,0.9,0
						c-0.2-0.3-0.5-0.7-0.7-1.1c0.4-0.1,1-0.5,0.8-1c-0.2-0.4-0.9-0.3-1.4-0.3c0.1-0.1,0.1-0.6,0.2-0.7c-1.1-0.2-1.1-0.5-1.8-1.1
						c0.2,0,0.5,0,0.7,0c0.6,0.1,1.2,0.1,1.8,0.2c0.5,1.2,0.6,2.6,2,3.1c0,0,0,0,0,0c0.1,0.5,0.3,0.9,0.6,1.3
						c0.7,0.8,1.8,1.1,2.6,1.5c0.5,0.2,0.9,0.4,1.3,0.8c0,0,0.1,0.1,0.1,0.1c-0.1,1.1-0.1,2.2,0.2,3.2
						C285.1,267,283.9,266.6,282.5,266.7z M280.9,277.2c-0.5-0.2-0.9-0.7-1.2-1.2c0.3-0.1,0.6-0.1,0.9-0.1c0.2,0,0.5,0,0.7,0
						c0.3,0.4,0.7,1,1.2,1.5C281.9,277.3,281.4,277.4,280.9,277.2z M307.1,250.1c0.2,0,0.3,0.1,0.5,0.1c-0.7,0.5-2.2,1.3-4.2,1.3
						c0.5-0.6,1-1.2,1.3-1.6C305.5,249.9,306.3,250,307.1,250.1z M302.7,250.3c0-0.1,0-0.3,0-0.4c0.4,0,0.8-0.1,1.2-0.1
						c0.1,0,0.2,0,0.3,0c-0.3,0.4-0.7,0.8-1,1.1C303,250.7,302.8,250.6,302.7,250.3z M305.6,243.2c-0.6-0.4-1-1.1-1.4-1.7
						c0.5-0.1,1-0.2,1.5-0.2c0.5,0,1,0,1.5,0C306.8,241.9,306.2,242.6,305.6,243.2z M307,243c0.5-0.5,0.9-1.2,1.2-1.8
						c0.7,0,1.4,0,2.1,0.1C309.6,242.3,308.2,242.9,307,243z"/>
				</g>
				<path class="st2" d="M494,299.2c-4.5-2.1-11.5-5.2-20.3-8.3c-2.9-1-7.4-2.4-16.3-5.2c-18.1-5.7-22.9-7-27.3-12.1
					c-2.4-2.8-2.3-3.9-4.8-5.6c-4.7-3.2-9.6-2.2-19.1-1.2c-13.5,1.4-20.4,2.1-28.1,0.4c-5.5-1.2-4.7-2.1-12.8-4.5
					c-8.8-2.6-16.9-5.1-25.2-4.1c-10.4,1.2-10,6.5-28.7,14.9c-11,5-12.9,3.9-20.4,8.3c-9.7,5.5-16,12.6-19.8,17.5
					C345.6,299.2,419.8,299.2,494,299.2z"/>
			</g>
		</g>
	</g>
	<g>
		<g>
			<g>
				<path class="st4" d="M241.4,636.3c-0.4-0.3-0.7-0.6-0.9-1C240.7,635.6,241,636,241.4,636.3z"/>
				<g>
					<g>
						<g>
							<path class="st5" d="M228.5,335.1c-3.1-0.1-5.3-3-4.7-6C227,313,231,297.2,234,281c1.4-7.4,7.6-12.5,14.8-10.4l9,2.4
								c-4,21-9.5,41.6-13.5,62.6C239.1,335.4,233.8,335.3,228.5,335.1z"/>
						</g>
						<g>
							<path class="st5" d="M381.8,331.7c-2-19.2-4-38.5-6-57.7l-22.2,3.2c2.8,20.2,5.6,40.3,8.3,60.5c5.1-0.2,10.1-0.4,15.2-0.6
								C380,336.8,382.1,334.4,381.8,331.7z"/>
						</g>
						<path class="st5" d="M340.7,229.9c-12.1,1.6-24.2,3.3-36.4,4.9c-12.1-1.6-24.2-3.3-36.4-4.9c5.8-1.5,11.6-3,17.4-4.5
							c2.1-4.6,3.7-8.1,5-10.7c0.2-0.5,0.7-1.4,1.1-2.7c0.6-1.8,1-3.6,1.2-5.2c0.6-5-0.4-9-1-10.9c4.2,0,8.4-0.1,12.6-0.1
							c4.2,0.1,8.4,0.1,12.6,0.1c-0.6,2.1-1.8,7-0.6,12.9c0.1,0.5,0.6,2.9,2,5.9c1.2,2.6,3.7,7,8.7,11.3
							C331.5,227.3,336.1,228.6,340.7,229.9z"/>
						<path class="st6" d="M316.3,208.9c-2.2,1.5-4.3,2.6-7.2,3.1c-4.1,0.7-7.5-0.1-9.2-0.6c-3-1-5.3-2.6-7.4-4.5
							c0.6-5-0.4-9-1-10.9c4.2,0,8.4-0.1,12.6-0.1c4.2,0.1,8.4,0.1,12.6,0.1C316.3,198,315.1,203,316.3,208.9z"/>
						<path class="st5" d="M270.1,174.9c5.9,9.4,11.4,16.8,15.7,22.3c3.6,4.5,6.9,8.4,12.4,10.2c1.7,0.5,5.2,1.4,9.5,0.7
							c4.6-0.8,7.5-3.1,11.2-6.1c1.4-1.1,7.9-6.5,13.4-16.5c2.2-4.1,3.4-7.4,3.8-8.4c1.5-4.3,3.7-10.7,3-18.4
							c-0.3-2.9-1.3-12.3-8.9-19.9c-7.1-7-15.8-8.2-19.8-8.7c-13.6-1.6-29.8,3.9-37.8,16.6c-1.5,2.4-6.9,10.7-5,21
							C268.1,170.8,269.2,173.2,270.1,174.9z"/>
						<g>
							<path d="M337.4,113c0,5.8-1.5,11.2-4.2,15.9H277c-2.7-4.7-4.2-10.1-4.2-15.9c0-17.8,14.5-32.3,32.3-32.3
								C322.9,80.7,337.4,95.1,337.4,113z"/>
							<path d="M278.3,188.1c0.2-0.2-3.5-4.3-5.8-11.3c-0.9-2.8-2.1-6.6-1.5-11.5c0.3-2.1,0.8-5.9,3.4-9c3.1-3.7,6-2.6,14.2-5.8
								c3.5-1.4,9.9-4,15.2-9.7c2.5-2.7,4.1-5.3,5.1-7.1c0.5,1,1.3,2.6,2.8,4c3.4,3.3,7.3,3.4,10.7,4.5c0,0,6.6,2.2,11.8,9.8
								c7.8,11.6-2,29.7-0.3,30.3c1.2,0.5,7.2-8.8,9.8-20.9c1.4-6.4,4.1-18.7-2.7-29.5c-2.4-3.9-5.2-6.2-7.2-7.7
								c-11.6-9.3-29.7-13-45.9-7.4c-5,1.7-16,5.5-22.4,16.3c-10.2,17.2-0.1,37.4,1.3,40.3C271.3,182.4,278,188.3,278.3,188.1z"/>
						</g>
						<g>
							<g>
								<g>
									<g>
										<path class="st5" d="M374.4,654.5c-1.3,1.6-10.1,1.9-12.2,1.8c-6.8-0.2-11.6-4.9-21.4-12.4c-2.4-1.8-5.2-4.8-11-10.8
											c-0.7-0.7-4.2-4.5-3.9-7.7c0-0.2,0.1-0.7,0.2-1.6c0-0.4,0.1-0.8,0.1-1.1c0.1-1.1,0.2-2.2,0.3-3.3
											c0.1-4.8,0.2-9.5,0.2-14.3v-0.3c0-1,0.1-2,0.5-2.9c0.2-0.3,0.3-0.5,0.6-0.8c0.7-0.6,1.6-0.8,2.6-0.9
											c5.3-0.7,10.7-1.5,16-2.2l-0.4,1c-0.3,1-0.5,1.9-0.6,2.9c-0.1,1-0.2,2.1-0.1,3.1c0.2,4.5,1.8,8.9,4.2,12.8
											c1.3,2.1,2.8,4,4.5,5.9c2.7,3.1,5.7,5.9,8.6,8.8c1.2,1.1,2.3,2.3,3.4,3.5c3.4,3.7,6.4,7.6,8.3,12.2
											C375.2,650.2,375.7,652.7,374.4,654.5z"/>
										<g>
											<path class="st7" d="M325.1,626.7c0,0.4,0,0.9,0,1.3c0.4,2.9,3.1,5.7,3.6,6.2c3.9,3.9,9.7,7.9,11.1,9
												c4.9,3.7,13.4,10.9,16.7,12.5c2.4,1.1,4.9,1.5,4.9,1.5s0.2,0,0.4,0.1c10.2,1.3,12.9-2.8,12.9-2.8
												c1.1-1.6,0.8-3.4,0.6-5.1c-1-7.2-7.1-11.8-9.4-13.4c0.3,0.6,0.7,1.2,1,1.8c0.3,0.6,0.8,2.3,0.2,3.7c0,0-0.5,1-1.7,1.7
												c-2.8,1.6-11.1,0-21.2-6.6c-2.2-1.4-4.5-3.2-9-6.7c-3.8-3-6.9-5.5-9-7.3C325.8,623.6,325.2,625,325.1,626.7z"/>
										</g>
									</g>
									<g>
										<path class="st5" d="M291.5,633.1c-5.7,6-8.6,8.9-11,10.8c-9.8,7.5-14.5,12.2-21.4,12.4c-2.1,0.1-11-0.2-12.2-1.8
											c-1.3-1.7-0.8-4.3,0-6.3c1.9-4.6,4.9-8.5,8.3-12.2c1.1-1.2,2.3-2.3,3.4-3.5c2.9-2.9,5.9-5.7,8.6-8.8
											c1.6-1.9,3.2-3.8,4.5-5.9c2.6-4.1,4.3-8.9,4.3-13.6c0-1.1-0.1-2.2-0.3-3.3c-0.1-0.6-0.3-1.3-0.5-1.9l-0.4-1
											c5.3,0.7,10.7,1.4,16,2.2c0.8,0.1,1.7,0.3,2.4,0.8c0.1,0,0.1,0.1,0.2,0.1c0.6,0.5,0.8,1.2,1,1.9c0.1,0.6,0.1,1.1,0.1,1.7
											c0.1,4.8,0.2,9.7,0.3,14.6c0,1.1,0.1,2.2,0.3,3.3c0,0.4,0.1,0.8,0.1,1.1c0.1,1,0.2,1.4,0.2,1.6
											C295.7,628.6,292.2,632.4,291.5,633.1z"/>
										<g>
											<path class="st7" d="M296.2,626.7c0,0.4,0,0.9,0,1.3c-0.4,2.9-3.1,5.7-3.6,6.2c-3.9,3.9-9.7,7.9-11.1,9
												c-4.9,3.7-13.4,10.9-16.7,12.5c-2.4,1.1-4.9,1.5-4.9,1.5s-0.2,0-0.4,0.1c-10,1.3-12.9-2.8-12.9-2.8
												c-1.3-1.8-1-3.9-0.8-5.4c0.9-7.5,7.8-12,9.6-13.1c-0.3,0.6-0.7,1.2-1,1.8c-0.3,0.6-0.8,2.3-0.2,3.7c0,0,0.5,1,1.7,1.7
												c2.8,1.6,11.1,0,21.2-6.6c2.2-1.4,4.5-3.2,9-6.7c3.8-3,6.9-5.5,9-7.3C295.5,623.6,296.1,625,296.2,626.7z"/>
										</g>
									</g>
								</g>
								<path class="st8" d="M345.4,602c-3-0.2-6.2-0.3-9.5-0.3c-3,0-5.9,0.1-8.6,0.2c-0.4,0.8-0.5,1.9-0.5,2.9v0.3
									c1.6,0.3,3.3,0.6,5.1,0.8c5.3,0.5,9.8,0,13.4-0.8L345.4,602z"/>
								<path class="st8" d="M294.4,605.1c-3.9,0.6-8.6,1-14,0.4c-1.5-0.2-3-0.4-4.3-0.7c0-1.1-0.1-2.2-0.3-3.3
									c2.8-0.2,5.7-0.2,8.7-0.2c3.1,0,6,0.1,8.8,0.3c0.4,0,0.7,0,1,0.1c0,0.7,0.1,1.3,0.1,2C294.4,604.1,294.4,604.6,294.4,605.1z
									"/>
							</g>
							<path class="st9" d="M262.7,565.4c-0.1,12.4,0,26,0,38.4c14.8,0.1,29.7,0.2,44.5,0.2c0.4-12.6,0.8-25.2,1.2-37.7
								C293.2,566.3,277.9,565.3,262.7,565.4z"/>
							<path class="st9" d="M310.8,563.1c-0.2,12.4-0.4,28.2-0.6,40.7c14.2,0.1,28.4,0.2,42.6,0.2c0.4-12.6,0.8-26.4,1.2-38.9
								C339.5,565.1,325.2,563,310.8,563.1z"/>
							<path class="st10" d="M262.9,534.6c-0.1,12.4-0.1,24.8-0.2,37.2c15.2,0.1,30.3,0.2,45.5,0.2c0.4-12.6,0.8-25.2,1.2-37.7
								C293.9,534.4,278.4,534.5,262.9,534.6z"/>
							<path class="st10" d="M311.3,534.5c-0.2,12.4-0.4,24.8-0.6,37.3c14.4,0.1,28.8,0.2,43.2,0.2c0.4-12.6,0.8-25.2,1.2-37.7
								C340.4,534.4,325.9,534.5,311.3,534.5z"/>
							<path class="st9" d="M352.9,279.8l24.9,286.4H244.2l13.5-286.4c-0.5,3.4-0.9,6.8-1.4,10.2c-8.2-1.5-16.9-3-25-4.5
								c0.3-3.6,1.2-7.1,1.5-10.6c0-2.5,0.2-5.2,0.7-8c2.4-14.4,10.9-30.7,22.4-34.2l27.7-8.4v-11.2c15.8-0.2,20.5,6.7,21.7,9.8
								c1.3-3,5.9-10,21.7-9.8v11.2l27.7,8.4c13.6,4.1,23.1,26.6,23.1,42.2c0.4,3.8,0.8,7.7,1.2,11.5c-7.9,1.6-15.7,3.2-23.6,4.8
								C354.5,287.4,353.7,283.6,352.9,279.8z"/>
							<path class="st11" d="M305.3,222.9c-0.2,4.8-0.3,9.5-0.5,14.3c-4.8,4.4-9.7,8.8-14.5,13.3c0,0-13.7,16.2-18.2,42.2
								c-4.7,26.6-7,131.4-2.5,273.8"/>
							<path class="st12" d="M257.2,289.6l-0.5,7.7l-3.2-0.6l-24.9-4.9c0-2.5,0.2-5.2,0.7-8L257.2,289.6z"/>
							<path class="st12" d="M353.1,289.5l0.9,7.5l26.3-5.2c-0.1-2.5-0.5-5.2-0.7-8L353.1,289.5z"/>
							<line class="st11" x1="264.1" y1="311.7" x2="280.4" y2="311.7"/>
							<line class="st11" x1="262.3" y1="401.1" x2="278.6" y2="401.1"/>
							<line class="st11" x1="262.3" y1="433.1" x2="278.6" y2="433.1"/>
							<line class="st11" x1="261.5" y1="465.2" x2="277.8" y2="465.2"/>
							<line class="st11" x1="261.5" y1="497.1" x2="277.8" y2="497.1"/>
							<path class="st12" d="M305.3,222.8c-4.3-11.2-21.9-10.2-21.9-10.2v5.1c14.3-4.5,21.9,7,21.9,7s7.6-11.5,21.9-7v-5.1
								C327.2,212.6,309.6,211.6,305.3,222.8z"/>
							<path class="st13" d="M233.5,328.5c-0.7,0.3-1.4,0.7-2,1"/>
							<path class="st13" d="M260.4,315.5c-0.9,0.4-1.7,0.8-2.6,1.2"/>
						</g>
						<g>
							<g>
								<g>
									<path d="M327.4,166.1c-3.6-5.3-11.7-5.7-15.6-0.6c0,0-1.4-1.1-1.4-1.1c3.1-4.3,9.8-5.3,14-2.1c1.4,1,2.5,2.3,3.1,3.8
										L327.4,166.1L327.4,166.1z"/>
								</g>
								<g>
									<path d="M326.6,170.5c-0.2,0.4-0.6,0.9-1.2,1.4c-1,0.9-2.1,1.3-2.7,1.5c0.2-0.2,0.5-0.5,0.7-1c0.1-0.2,0.2-0.3,0.2-0.5
										c-0.4-0.1-1-0.2-1.8-0.3c-0.7-0.1-1.8-0.2-3.2-0.2c-0.8,0-1.7,0.1-2.6,0.3c-0.6,0.2-1.3,0.3-2,0.6
										c-0.8,0.3-1.6,0.7-2.5,1.2c0.5-0.6,1.3-1.3,2.4-1.9c0.3-0.2,0.6-0.3,1-0.4c1.2-0.4,2.2-0.5,3.5-0.5c0.5,0,0.9,0,1.4,0
										c2,0.1,2.7,0.4,4.5,0.2C325.3,170.8,326.1,170.6,326.6,170.5z"/>
									<path d="M319.7,172.7c-0.1,1.2-1.3,2-2.6,1.9c-1.1-0.1-2-0.9-2.1-1.9c0-0.2,0-0.4,0-0.5l0-0.2c0.3-0.1,0.6-0.2,1-0.3
										c1.2-0.3,2.3-0.3,3.5-0.1c0.1,0.2,0.2,0.5,0.2,0.8C319.8,172.5,319.8,172.6,319.7,172.7z"/>
								</g>
							</g>
							<g>
								<g>
									<path d="M281.9,166.1c3-6.7,12.8-7.6,17.1-1.7c0,0-1.4,1.1-1.4,1.1c-2.8-3.6-8.1-4.7-12.1-2.5c-1.4,0.7-2.6,1.8-3.5,3.1
										C282,166.1,281.9,166.1,281.9,166.1L281.9,166.1z"/>
								</g>
								<g>
									<path d="M282.8,170.5c0.2,0.4,0.6,0.9,1.2,1.4c1,0.9,2.1,1.3,2.7,1.5c-0.2-0.2-0.5-0.5-0.7-1c-0.1-0.2-0.2-0.3-0.2-0.5
										c0.4-0.1,1-0.2,1.8-0.3c0.7-0.1,1.8-0.2,3.2-0.2c0.8,0,1.7,0.1,2.6,0.3c0.6,0.2,1.3,0.3,2,0.6c0.8,0.3,1.6,0.7,2.5,1.2
										c-0.5-0.6-1.3-1.3-2.4-1.9c-0.3-0.2-0.6-0.3-1-0.4c-1.2-0.4-2.2-0.5-3.5-0.5c-0.5,0-0.9,0-1.4,0c-2,0.1-2.7,0.4-4.5,0.2
										C284.1,170.8,283.3,170.6,282.8,170.5z"/>
									<path d="M289.9,172.7c0.1,1.2,1.3,2,2.6,1.9c1.1-0.1,1.9-0.9,2.1-1.9c0-0.2,0-0.4,0-0.5l0-0.2c-0.3-0.1-0.6-0.2-1-0.3
										c-1.2-0.3-2.3-0.2-3.5-0.1c-0.1,0.2-0.2,0.5-0.2,0.8C289.9,172.4,289.9,172.6,289.9,172.7z"/>
								</g>
							</g>
						</g>
						<g>
							<path class="st14" d="M301.9,186.6c2.2-0.4,4.1-0.4,6.3-0.1C306.7,188.4,303.5,188.4,301.9,186.6L301.9,186.6z"/>
						</g>
						<path class="st15" d="M304.9,196.4c-4.2-0.1-6.6-3.5-6.8-3.8c1.4,0.5,3.7,1.2,6.5,1.2c3.6,0,6.3-1,7.8-1.7
							C310.9,194.8,308,196.5,304.9,196.4z"/>
					</g>
					<path class="st15" d="M305.4,193.8c0-0.3,0-0.8,0.3-1.1c0.3-0.4,0.7-0.4,1.8-0.4c1.4,0,2.9-0.1,3.5-0.1c0.7,0,1.2,0,1.6-0.1
						c-0.7,0.5-1.9,1.1-3.5,1.5C307.5,193.9,306.2,193.9,305.4,193.8z"/>
					<path class="st15" d="M305.4,193.8c0.1-0.8-0.2-1.1-0.3-1.1c-0.3-0.3-0.7-0.3-1.6-0.3c-0.4,0-0.7,0-1.2,0.1
						c-0.5,0-0.8,0.1-0.9,0.1c-0.7,0.1-3.1-0.1-3.2,0.1c0,0.2,1.8,0.9,4.1,1.1C303.5,193.9,304.6,193.8,305.4,193.8z"/>
				</g>
			</g>
		</g>
	</g>
	<g>
		<g>
			<path class="st16" d="M476.1,657.1c-14-0.6-28-1.1-42-1.7c7-13.6,15.8-34.3,20.8-60.7c4.9-26.2,11.6-61.7-1.6-86.8
				c-7.3-13.9-19.1-21.7-33.4-26.5c0,0-0.1,0-0.1,0c-6.9-2.3-14.3-4-22.1-5.3c-36.7-6.3-80.8-5.3-107.7-34.2
				c-20.7-22.2-36.5-67.8-3-172.9h34.9c0,0-35.2,95.6-7.2,148.6c28,53,107.6,44.2,151.8,72.2c5.1,3.2,9.1,7.9,12.2,13.6
				C503.3,547.9,476.1,657.1,476.1,657.1z"/>
			<path class="st5" d="M277.5,273.4c2.6-2.3,5.3-4.7,7.9-7c0,0,0.5-5.2,2.2-7.1c1.7-1.8,2.8-2.6,2.8-2.6l12.3,12.7l-13.6,13.7
				C285.2,279.9,281.4,276.7,277.5,273.4z"/>
			<path class="st5" d="M285.6,266.5c0.6,1.6,1.4,3.4,2.5,5.3c1.8,3,3.9,5.2,5.5,6.7c-3.5,5.2-23.6,35-40.3,52.6
				c-3.1,3.3-9.5,10-18,10c-1.5,0-6.9,0.2-9.9-3.4c-2.5-3-2-7-1.8-8.9c1.5-11.9,13.3-21.2,16.2-23.4
				C252.5,295.4,267.1,282.9,285.6,266.5z"/>
			<path class="st5" d="M325.3,275.5c-0.8,1.5-2.3,3.7-4.9,5.6c-4.3,3.3-8.9,3.7-10.7,3.8c18.4,24.1,32.8,41.9,39.6,50.7
				c0,0,9,11.6,17.7,12c0.3,0,0.5,0,0.5,0c4.5,0,8.1-2.1,9.4-3.2c4.7-3.6,5.1-9.9,5.1-11.2c0-0.1,0-0.1,0-0.2c0-4.6-4.6-7.8-5.8-8.7
				C371.9,320.9,352.4,302,325.3,275.5z"/>
			<path class="st17" d="M336.2,283.2l-38.1,5.6c4.1-11.4,2.8-22.3-3.5-27.3c-1.3-1-3.3-2.2-6.3-2.8c0.2-1,0.5-2.4,1.4-3.8
				c1.1-1.7,3.2-3.5,8.2-4.6c9.8-2.1,23.4-0.2,27.4,2C329.3,254.3,338.9,268,336.2,283.2z"/>
			<path class="st5" d="M286.4,261.5c0.4-1.8,1.3-4.6,3.6-7.4c2.4-2.9,6.3-5.5,7.3-4.7c0.6,0.5-0.1,2.2-0.1,2.4
				c-0.7,1.8-2.1,2.2-3,3.4c-0.7,1-1.3,2.6-0.5,5.8c-0.7-0.3-2.2-0.9-4.2-0.6C288,260.6,287,261.1,286.4,261.5z"/>
		</g>
		<g>
			<path class="st18" d="M302.7,278.7c-0.1,0-0.3-0.1-0.3-0.2c-0.1-0.2,0-0.4,0.2-0.5c4.8-2.5,10-3.9,15.3-4.4
				c4.3-0.4,8.6,0,12.8,0.9c0.2,0,0.3,0.2,0.3,0.5s-0.3,0.3-0.5,0.3c-4.1-1-8.4-1.3-12.6-0.9c-5.2,0.4-10.3,1.9-15,4.3
				C302.8,278.6,302.8,278.7,302.7,278.7z"/>
		</g>
		<g>
			<path class="st18" d="M302.7,269.4c-0.1,0-0.3-0.1-0.3-0.2c-0.1-0.2,0-0.4,0.2-0.5c4.3-2.1,8.9-3.4,13.6-4
				c4.8-0.6,9.7-0.4,14.5,0.6c0.2,0,0.3,0.2,0.3,0.4c0,0.2-0.2,0.3-0.4,0.3c-4.7-1-9.5-1.2-14.3-0.6c-4.7,0.6-9.2,1.9-13.4,4
				C302.8,269.4,302.8,269.4,302.7,269.4z"/>
		</g>
		<g>
			<path class="st18" d="M299.4,261.4c-0.2,0-0.3-0.1-0.4-0.3c-0.1-0.2,0-0.4,0.2-0.5c4-1.4,8.1-2.3,12.3-3
				c5.2-0.8,10.5-0.9,15.8-0.5c0.2,0,0.4,0.2,0.3,0.4c0,0.2-0.2,0.4-0.4,0.3c-5.2-0.4-10.5-0.3-15.6,0.5c-4.1,0.6-8.2,1.6-12.1,2.9
				C299.5,261.4,299.5,261.4,299.4,261.4z"/>
		</g>
		<g>
			<path class="st18" d="M294.3,255.9c-0.2,0-0.3-0.1-0.4-0.2c-0.1-0.2,0-0.4,0.2-0.5c3.8-1.4,7.7-2.5,11.6-3.1
				c5.4-0.9,11-1,16.4-0.3c0.2,0,0.4,0.2,0.3,0.4c0,0.2-0.2,0.3-0.4,0.3c-5.4-0.6-10.9-0.5-16.2,0.3c-3.9,0.6-7.8,1.7-11.5,3.1
				C294.4,255.9,294.3,255.9,294.3,255.9z"/>
		</g>
		<path class="st17" d="M476.1,657.1c-14-0.6-28-1.1-42-1.7c7-13.6,15.8-34.3,20.8-60.7c4.9-26.2,11.6-61.7-1.6-86.8
			c-7.3-13.9-19.1-21.7-33.4-26.5c14.8,2.6,48.5,7.1,58.9,22C503.3,547.9,476.1,657.1,476.1,657.1z"/>
		<g>
			<g>
				<path class="st18" d="M478.3,513.9c-0.1,0-0.2,0-0.3-0.1c-6.7-5.1-20.6-9.2-21.1-9.3c-0.2-0.1-0.4-0.3-0.3-0.5
					c0.1-0.2,0.3-0.4,0.5-0.3c0.6,0.2,14.7,4.3,21.4,9.5c0.2,0.1,0.2,0.4,0.1,0.6C478.6,513.9,478.5,513.9,478.3,513.9z"/>
			</g>
		</g>
		<g>
			<g>
				<path class="st18" d="M447.1,642.7c-0.2,0-0.4-0.2-0.4-0.4c0-0.2,0.1-0.5,0.4-0.5c0.7-0.1,16.1-2.6,24.2-0.9
					c0.2,0,0.4,0.3,0.3,0.5c-0.1,0.2-0.3,0.4-0.5,0.3C463.1,640.1,447.8,642.6,447.1,642.7C447.1,642.7,447.1,642.7,447.1,642.7z"/>
			</g>
		</g>
		<g>
			<g>
				<path class="st18" d="M451.8,627.6c-0.2,0-0.4-0.1-0.4-0.3c-0.1-0.2,0.1-0.5,0.3-0.5c3.4-0.8,20.3-4.6,23.6-2
					c0.2,0.1,0.2,0.4,0.1,0.6c-0.1,0.2-0.4,0.2-0.6,0.1c-2.5-1.9-15.6,0.5-22.9,2.2C451.9,627.6,451.9,627.6,451.8,627.6z"/>
			</g>
		</g>
		<g>
			<g>
				<path class="st18" d="M476.7,605.2c-0.1,0-0.1,0-0.2-0.1c-2.3-1.3-12-0.6-17.4,0l-0.1-0.9c2.5-0.3,14.9-1.6,17.9,0.1
					c0.2,0.1,0.3,0.4,0.2,0.6C477,605.1,476.8,605.2,476.7,605.2z M459,604.7L459,604.7L459,604.7z"/>
			</g>
		</g>
		<g>
			<g>
				<path class="st18" d="M480.9,581.6c-0.1,0-0.1,0-0.2,0c-2.2-0.9-13.2-0.4-18.6,0c-0.3,0-0.5-0.2-0.5-0.4c0-0.2,0.2-0.5,0.4-0.5
					c1.6-0.1,16.1-1.1,19,0.1c0.2,0.1,0.3,0.3,0.2,0.6C481.2,581.5,481,581.6,480.9,581.6z"/>
			</g>
		</g>
		<g>
			<g>
				<path class="st18" d="M482.9,536.7c-0.1,0-0.2,0-0.3-0.1c-6.5-5.1-18.8-8.4-19.3-8.5c-0.2-0.1-0.4-0.3-0.3-0.5
					c0.1-0.2,0.3-0.4,0.5-0.3c0.5,0.1,13,3.4,19.6,8.6c0.2,0.2,0.2,0.4,0.1,0.6C483.2,536.6,483.1,536.7,482.9,536.7z"/>
			</g>
		</g>
		<g>
			<g>
				<path class="st18" d="M481,563.9c-0.1,0-0.2,0-0.2-0.1c-4.6-3.1-15.1-3.5-15.5-3.5c-0.2,0-0.4-0.2-0.4-0.5
					c0-0.2,0.2-0.4,0.5-0.4c0.5,0,11.2,0.4,16,3.7c0.2,0.1,0.3,0.4,0.1,0.6C481.2,563.9,481.1,563.9,481,563.9z"/>
			</g>
		</g>
		<g>
			<g>
				<path class="st18" d="M481.9,547.3c-0.1,0-0.2,0-0.2-0.1c-4.5-3.1-14.7-5.6-15.1-5.7c-0.2-0.1-0.4-0.3-0.3-0.5
					c0.1-0.2,0.3-0.4,0.5-0.3c0.4,0.1,10.7,2.7,15.4,5.8c0.2,0.1,0.3,0.4,0.1,0.6C482.2,547.3,482,547.3,481.9,547.3z"/>
			</g>
		</g>
	</g>
</g>
</svg>
