<?xml version="1.0" encoding="utf-8"?>
<!-- Generator: Adobe Illustrator 26.0.1, SVG Export Plug-In . SVG Version: 6.00 Build 0)  -->
<svg version="1.1" id="Layer_1" xmlns="http://www.w3.org/2000/svg" xmlns:xlink="http://www.w3.org/1999/xlink" x="0px" y="0px"
	 viewBox="0 0 664 598" style="enable-background:new 0 0 664 598;" xml:space="preserve">
<style type="text/css">
	.st0{clip-path:url(#SVGID_00000105424785483451715980000011825750534896546740_);}
	.st1{clip-path:url(#SVGID_00000040538938008468714500000010298828129076098474_);fill:#FFD7DC;}
	.st2{clip-path:url(#SVGID_00000040538938008468714500000010298828129076098474_);}
	.st3{fill:#D8989D;}
	.st4{fill:none;stroke:#FFFFFF;stroke-width:1.5925;stroke-miterlimit:10;}
	.st5{fill:#F4CCAB;}
	.st6{fill:#4080A0;}
	.st7{fill:#84030A;}
	.st8{fill:#F8AE38;}
	.st9{fill:#9F0102;}
	.st10{fill:none;stroke:#F8AE38;stroke-width:3.4104;stroke-miterlimit:10;}
	.st11{fill:none;}
	.st12{fill:#191513;}
	.st13{fill:#FAD4AF;}
	.st14{fill:#E09D6C;}
	.st15{fill:none;stroke:#F8AE38;stroke-width:3.0584;stroke-miterlimit:10;}
	.st16{fill:#E89C2D;}
	.st17{fill:#DDB597;}
	.st18{fill:#1E1A14;}
	.st19{fill:#140408;}
</style>
<g>
	<g>
		<defs>
			<path id="SVGID_1_" d="M27.8,432.7c33.1,26.8,128.1,96.7,268.9,105.8c163.4,10.6,279.1-67.6,311.1-90.8
				c3.4-7,75.3-161.4-18-301.5C521.7,43.7,400.5,1.9,303.3,16.1C146.4,39.1,11.9,214.1,27.8,432.7z"/>
		</defs>
		<clipPath id="SVGID_00000093151934614892519710000008309683525217138824_">
			<use xlink:href="#SVGID_1_"  style="overflow:visible;"/>
		</clipPath>
		<g style="clip-path:url(#SVGID_00000093151934614892519710000008309683525217138824_);">
			<g>
				<defs>
					<path id="SVGID_00000051359959756177035630000005166487722236833711_" d="M584.4,236.2c-11.3-20.1-24.5-37.8-38.1-52.8
						c-0.1,0.2-0.3,0.5-0.4,0.7c0.1-0.2,0.3-0.5,0.4-0.7c-2.5-2.8-50.1-42.9-50.1-42.9l0,0c-1.3-1-2.6-2.1-4-3.2
						c-38.1-31.9-66.9-89.7-172.6-80.9c-49.2,4.1-81.5,24.1-104.5,51c-6.9,8.1-13.1,16.9-18.6,26.2c-16.9,28.3-28.2,60.8-39.6,89.2
						c-15.2,37.5-69.4,43.4-89,86.9c-17.8,20.5-27.1,52.9-31.8,76.4c-3.4,16.9-4.3,29.2-4.3,29.2C26.5,533.5,132.7,624,242.2,656.8
						c24.5,7.3,49.2,11.8,72.8,13c11.2,0.6,22.1,0.4,32.6-0.5c2.1-0.2,4.3-0.4,6.5-0.7c1.5-0.2,3-0.3,4.5-0.5
						c1.3-0.2,2.5-0.3,3.8-0.5c0.7-0.1,1.4-0.2,2.1-0.3c0.7-0.1,1.3-0.2,2-0.3c35.5-5.5,75.2-17.8,111.7-36.9
						c0.2-0.1,0.4-0.2,0.5-0.3c58.8-30.8,109-79,118.5-143.4c1.3-9,12.9-36.4,16.6-75.9C621.2,333.2,599.7,270.9,584.4,236.2z
						 M502.5,190c0,0,0.1,0.1,0.1,0.1C502.6,190.1,502.5,190,502.5,190z"/>
				</defs>
				<clipPath id="SVGID_00000113315177145479990420000001669577241670634136_">
					<use xlink:href="#SVGID_00000051359959756177035630000005166487722236833711_"  style="overflow:visible;"/>
				</clipPath>
				<path style="clip-path:url(#SVGID_00000113315177145479990420000001669577241670634136_);fill:#FFD7DC;" d="M584.4,236.2
					c-11.3-20.1-24.5-37.8-38.1-52.8c-2.5-2.8-50.1-42.9-50.1-42.9c-1.3-1-2.6-2.1-4-3.2c-38.1-31.9-66.9-89.7-172.6-80.9
					c-49.2,4.1-81.5,24.1-104.5,51c-6.9,8.1-13.1,16.9-18.6,26.2c-16.9,28.3-28.2,60.8-39.6,89.2c-15.2,37.5-69.4,43.4-89,86.9
					c-17.8,20.5-27.1,52.9-31.8,76.4c-3.4,16.9-4.3,29.2-4.3,29.2C26.5,533.5,132.7,624,242.2,656.8c24.5,7.3,49.2,11.8,72.8,13
					c11.2,0.6,22.1,0.4,32.6-0.5c2.1-0.2,4.3-0.4,6.5-0.7c1.5-0.2,3-0.3,4.5-0.5c1.3-0.2,2.5-0.3,3.8-0.5c0.7-0.1,1.4-0.2,2.1-0.3
					c0.7-0.1,1.3-0.2,2-0.3c35.5-5.5,75.2-17.8,111.7-36.9c0.2-0.1,0.4-0.2,0.5-0.3c58.8-30.8,109-79,118.5-143.4
					c8.5-42.1,20.2-66.7,20.2-129.6C619.5,315.1,584.4,236.2,584.4,236.2z"/>
				<g style="clip-path:url(#SVGID_00000113315177145479990420000001669577241670634136_);">
					<path class="st3" d="M506.8,612.9c-48.7,33.1-105,50.4-152.7,55.7c-3.9,0.4-7.8,0.7-11.7,0.8c-9.9,0.2-19.8,0.3-29.9,0.4
						c-5.2,0-10.4-0.2-15.6-0.9c-48.8-5.8-110.7-28.7-162.4-66.2c19-8.7,39.9-16.6,62.8-22.7C329.1,544.5,447.5,586.2,506.8,612.9z"
						/>
					<path class="st3" d="M172.5,235.6c0,1.5-1,2.8-2.2,2.8c-1.2,0-2.2-1.3-2.2-2.8c0-1.5,1-2.8,2.2-2.8
						C171.5,232.8,172.5,234.1,172.5,235.6z"/>
					<path class="st3" d="M191.2,240.9c0,1.5-1,2.8-2.2,2.8s-2.2-1.3-2.2-2.8c0-1.5,1-2.8,2.2-2.8S191.2,239.4,191.2,240.9z"/>
					<path class="st3" d="M253.6,157.2c0,1.5-1,2.8-2.2,2.8c-1.2,0-2.2-1.3-2.2-2.8c0-1.5,1-2.8,2.2-2.8
						C252.6,154.4,253.6,155.6,253.6,157.2z"/>
					<path class="st3" d="M544.7,405.7c0,1.5-1,2.8-2.2,2.8c-1.2,0-2.2-1.3-2.2-2.8c0-1.5,1-2.8,2.2-2.8
						C543.7,402.9,544.7,404.2,544.7,405.7z"/>
					<path class="st3" d="M552.3,398.1c0,1.5-1,2.8-2.2,2.8s-2.2-1.3-2.2-2.8s1-2.8,2.2-2.8S552.3,396.6,552.3,398.1z"/>
					<ellipse class="st3" cx="183.1" cy="226.5" rx="3.6" ry="4.5"/>
					<path class="st3" d="M179.6,392.9c0,3.2-2.1,5.8-4.6,5.8c-2.6,0-4.6-2.6-4.6-5.8c0-3.2,2.1-5.8,4.6-5.8
						C177.5,387,179.6,389.6,179.6,392.9z"/>
					<path class="st3" d="M441.9,143.4c0,3.2-2.1,5.8-4.6,5.8c-2.6,0-4.6-2.6-4.6-5.8s2.1-5.8,4.6-5.8
						C439.8,137.6,441.9,140.2,441.9,143.4z"/>
					<ellipse class="st4" cx="209.5" cy="124.7" rx="14.8" ry="18.7"/>
					<ellipse class="st3" cx="31.6" cy="454.5" rx="30.3" ry="38.2"/>
					<g>
						<g>
							<path class="st3" d="M224.3,198.5h224.9v143.4H224.3V198.5z M445.1,202.6H228.5v135h216.6V202.6z"/>
						</g>
						<g>
							<path class="st3" d="M318.7,281c0,0,5.4,5.7,16.6,7.1v19.8h3V295l2.1,0.5v12.3h1.7v-14.6h28.3v14.6h1.7v-12.6l2.6-0.6v13.2
								h2.1v-19.6c12-1,17-6.6,17-6.6c0.5-1.4-0.8-1.7-0.8-1.7s-0.5,0.2-1.3,0.4c-0.1-0.2-0.2-0.4-0.3-0.7c-0.1-0.5,0.1-0.4,0.4-0.7
								c0.6-0.8-0.6-0.8-1.1-0.5c-0.7,0.4-0.8,0.9-0.6,1.6c0,0.2,0.1,0.4,0.1,0.7c-0.3,0.1-0.7,0.2-1.1,0.3
								c-0.1-0.3-0.3-0.5-0.3-0.8c-0.1-0.5,0.1-0.4,0.3-0.7c0.6-0.8-0.6-0.8-1.1-0.5c-0.7,0.4-0.7,1-0.6,1.6
								c0.1,0.2,0.1,0.5,0.1,0.7c-0.4,0.1-0.8,0.1-1.2,0.2c-0.1-0.2-0.2-0.4-0.2-0.6c-0.1-0.5,0.1-0.4,0.4-0.7
								c0.6-0.8-0.6-0.8-1.1-0.5c-0.7,0.4-0.8,0.9-0.6,1.6c0,0.1,0.1,0.3,0.1,0.4c-1.5,0.2-2.9,0.2-3.8-0.2c-3-1-4.8-7.5-5.1-8.4
								c4-1.9,6.5-4.2,6.5-4.2c0.4-1-0.6-1.2-0.6-1.2s-0.3,0.2-0.8,0.4c0.1-0.5,0.3-1.5,0.2-1.6c-0.6-0.5-0.9,1.3-1.3,2.2
								c-0.2,0.1-0.4,0.2-0.5,0.3c0.1-0.5,0.3-1.6,0.2-1.7c-0.6-0.5-0.9,1.3-1.4,2.2c-0.2,0.1-0.3,0.1-0.5,0.2
								c0.1-0.5,0.3-1.6,0.2-1.7c-0.6-0.5-0.9,1.2-1.3,2.2c-2.1,0.8-4.2,1.4-5.3,1c-1.3-0.5-2.3-2.5-3-4.1c0.1-1.2,0.2-2.1,1.5-2.4
								c-0.1-0.4-0.7-0.6-1.1-0.7c1.9-0.9-0.7-2.4-0.8-1.4c0.5,0.5-0.6,0.9-0.7,0.2c-0.1-0.5,0.5-0.6,0.6-1c-0.8,0-1.8,0.5-1.7,1.5
								c0.1,0.4,0.7,0.5,0.4,1c-0.2,0.3-0.8,0.3-1.1,0.3h0h-18.1c-0.1,0-0.1,0-0.2-0.1c-0.3-0.5,0.3-0.5,0.4-0.9
								c0.2-1-0.9-1.5-1.6-1.5c0.1,0.4,0.7,0.5,0.6,1c-0.1,0.7-1.2,0.3-0.7-0.2c0-1.1-2.6,0.5-0.8,1.4c-0.4,0-1,0.3-1,0.7
								c0.9,0.2,1.2,0.7,1.4,1.3c-0.5,1.7-1.6,4.3-3.1,4.6c-1.7,0.3-3.6,0-5.3-0.5c-0.4-1-0.6-2.3-1.2-1.9c-0.1,0.1,0,1,0.1,1.5
								c-0.2-0.1-0.4-0.1-0.6-0.2c-0.4-1-0.7-2.6-1.3-2.1c-0.1,0.1,0,1.1,0.1,1.6c-0.2-0.1-0.4-0.2-0.6-0.3
								c-0.5-0.9-0.7-2.6-1.3-2.1c-0.1,0.1,0,1,0.1,1.6c-0.6-0.3-0.9-0.5-0.9-0.5s-0.9,0.2-0.6,1.2c0,0,2.5,2.3,6.6,4.1
								c-0.3,1.3-1.8,6.9-4.6,7.9c-1.4,0.5-4.1,0.2-6.7-0.3c0-0.1,0-0.1,0-0.2c0.1-0.7,0.1-1.3-0.6-1.6c-0.5-0.3-1.6-0.3-1.1,0.5
								c0.2,0.3,0.4,0.3,0.4,0.7c0,0.1-0.1,0.2-0.1,0.3c-0.4-0.1-0.8-0.2-1.2-0.3c0-0.1,0-0.2,0.1-0.3c0.2-0.7,0.1-1.3-0.6-1.6
								c-0.5-0.3-1.6-0.3-1.1,0.5c0.2,0.3,0.4,0.3,0.3,0.7c0,0.2-0.1,0.3-0.2,0.4c-0.4-0.1-0.8-0.2-1.2-0.3c0-0.1,0-0.2,0.1-0.3
								c0.1-0.7,0.1-1.3-0.6-1.6c-0.5-0.3-1.6-0.3-1.1,0.5c0.2,0.3,0.4,0.3,0.4,0.7c0,0.1-0.1,0.2-0.1,0.3c-0.3-0.1-0.4-0.1-0.4-0.1
								S318.2,279.6,318.7,281z M338.3,290.3v-1.7h2.1v1.7H338.3z M372.1,290.3v-1.7h2.6v1.7H372.1z M342.1,290.3v-1.7h28.3v1.7
								H342.1z"/>
							<path class="st3" d="M345.3,231.6c-0.2,0.3-0.4,0.6-0.5,0.9c0.2,0,0.6,0,0.8,0c-0.3,0.2-0.4,0.4-0.5,0.7c1.2,0,2.7-0.6,4-0.8
								c1.6-0.3,3.2-0.4,4.9-0.4c0.3,0,0.6,0,0.8,0c-0.1,0-0.3,0.1-0.4,0.1c0.1,0.2,0.1,1,0.3,1.3c-0.8,0.1-2.2-0.2-2.5,0.5
								c-0.4,1,0.6,1.6,1.4,1.9c-0.4,0.7-1,1.3-1.3,1.9c0.5-0.1,1.2,0.2,1.7,0.1c-0.6,0.4-0.9,0.9-1.1,1.5c2.7,0.2,5.8-0.9,8.7-1.2
								c0,0,0.1,0,0.1,0c2,2.8,5.6,4.9,8.9,4.9c2.1,2,4.6,3.3,7.4,3.7l-0.6,0.3c0.6-0.1,1.2-0.1,1.8-0.2c0.5,0,1,0,1.5,0
								c0,0,0.1,0,0.1-0.1c13.6,0,12.1,12.8,12.1,12.8c-0.3,1.6-0.4,3.1-0.4,4.4c-2.1,0.5-7.7,1-14.2-5c0.4-0.4,0.8-0.8,0.9-1.4
								c0.1-0.4,0.1-0.8,0-1.3c0.8,0.1,1.6,0.1,2.3,0c2.4-0.4,0.8-2.3-0.5-3.2c0.2-0.1,0.3-0.3,0.5-0.3c-1-1.5-3.6-0.8-5.1-1.1
								c0.3-0.2,0.5-0.6,0.7-0.9c-0.4,0-0.8-0.1-1.1-0.1c0.3-0.2,0.3-0.5,0.5-0.7c-0.9-0.2-1.7,0.3-2.5,0.6
								c-0.8-0.9-3.1-0.3-4.2-0.3c-1.1,0.1-2.3,0.2-3.2,1c-1,0.9-0.9,1.3-2.3,1.7c0.1,0.2,0.1,0.7,0.2,0.8c-0.5,0.1-1.5-0.1-1.6,0.5
								c-0.2,0.7,0.5,1.1,1,1.2c-0.2,0.5-0.6,0.9-0.8,1.3c0.3-0.1,0.8,0.1,1.1,0c-0.4,0.3-0.6,0.6-0.7,1c1.3,0,2.6-0.4,4-0.8
								c4.6,4.2,9.5,4.2,10.9,4.1c2.9,2.9,6.7,5.7,10.4,5.4l3.7-0.5c0.8,7.7,5.9,9.8,5.9,9.8c3.4,1.1,5.8,3.1,7.5,5.4
								c4.4,6.2-1.7,16.4-3.8,20.2c-3.2,5.8-5.7,6.9-7.2,12.3c-1.1,4.1-0.9,7.7-0.6,10.3c1,0.4,2.6,0.8,4.5,0.8c1,0,1.9-0.2,2.6-0.3
								c-0.4-1.6-0.8-3.9-0.5-6.7c0.3-3.6,1.6-6.3,2.5-7.9c4.8,1.9,11.2,6.3,14.4,6.2c0.9,0,1.7-0.3,2.5-0.8c0,0,0.1,0,0.1,0
								c1.7-0.8,3.7,0.5,5.3-0.6c1.1-0.8,1.7-1.9,2.6-2.9c0.9,0.2,1.7,0.3,2.5,0.3c2.5-0.2,1-2.2-0.2-3.2c0.2-0.1,0.3-0.2,0.5-0.3
								c-0.8-1.6-3.6-1.1-4.9-1.6c0.3-0.2,0.6-0.6,0.8-0.8c-0.4,0-0.8-0.2-1.1-0.2c0.4-0.2,0.4-0.5,0.6-0.7
								c-0.9-0.2-1.7,0.1-2.6,0.4c-0.7-1-3.1-0.6-4.2-0.7c-1.1,0-2.3,0-3.2,0.7c-1,0.8-1,1.2-2.4,1.4c0.1,0.2,0.1,0.7,0.2,0.9
								c-0.5,0-1.4-0.2-1.7,0.3c-0.3,0.6,0.4,1.1,0.9,1.3c-0.3,0.4-0.7,0.8-0.9,1.3c0.4,0,0.8,0.1,1.1,0.1c-0.4,0.2-0.6,0.6-0.8,1
								c1.8,0.2,3.9-0.5,5.8-0.6c1.4-0.1,2.7-0.1,4,0c-0.9,1-2.7,2.5-5,3c-3.2,0.7-9.8-4.9-13.2-6.3c2.1-3.3,4.7-6.1,6.9-8.8
								c0,0,0,0,0,0c4.1-2,9.1-3,9.1-3c10.1-0.2,17.5-5.2,22.2-9.7c0.1,0.1,0.2,0.1,0.2,0.1c0.7-0.6,1.5-0.8,2.3-1V285
								c-0.4,0-0.8,0.1-1.2,0.2c0.4-0.5,0.8-0.9,1.2-1.3v-2.4c-0.5,0.6-1,1.1-1.5,1.7c-0.4-0.4-0.8-0.9-0.8-1.5
								c-0.1-0.4-0.1-0.7-0.1-1.1c0.8,0,1.6-0.1,2.4-0.1V270c-0.9-0.1-2-0.1-3,0c-0.2-1.1-1.6-2.3-2.9-3c0.2-0.1,0.5-0.4,0.7-0.5
								c-1.6-2.2-5.6-0.8-7.7-1.2c0.4-0.4,0.7-1,1-1.4c-0.6,0.1-1.2-0.1-1.7,0c0.5-0.4,0.5-0.8,0.7-1.1c-1.4-0.2-2.5,0.5-3.7,1.1
								c-1.3-1.3-4.7-0.2-6.4,0c-1.6,0.2-3.4,0.6-4.7,1.8c-1.4,1.4-1.2,2.1-3.3,2.7c0.2,0.2,0.3,1,0.4,1.3c-0.8,0.2-2.2,0-2.4,0.9
								c-0.3,1,0.8,1.6,1.6,1.7c-0.3,0.7-0.8,1.4-1.1,2.1c0.5-0.1,1.2,0,1.7-0.1c-0.6,0.4-0.8,1-0.9,1.6c2.7-0.2,5.7-1.7,8.4-2.3
								c0.4-0.1,0.8-0.2,1.2-0.3c0.4,2.8,0.6,6.1-1.6,7.9c-1.6,1.4-3.9,2-5.7,3c-0.6,0.3-1.2,0.7-1.7,1.1c-1-4.7-4-9-9.5-10.6
								c-6.6-2-8.7-7-9.3-10.9c2.8,0,5.5-0.2,8.2-0.9c2.4-0.6,4.8-1.7,6.4-3.7c1.1-1.4,1.7-3.1,2.3-4.7c1.8-0.3,3.6-0.3,5-1.7
								c1.4-1.4,2.7-3,4.3-4.1c1.3,0.2,2.6,0.4,3.8,0.3c3.2-0.3,1.2-3-0.4-4.2c0.2-0.1,0.5-0.3,0.7-0.4c-0.1-0.1-0.1-0.2-0.2-0.3
								c2-0.3,4.1-0.4,6.2-0.5c1.7-0.1,3.5,0.4,5.2,0.2c2.4-0.4,0.8-2.3-0.5-3.2c0.2-0.1,0.3-0.3,0.5-0.3c-1-1.5-3.6-0.8-5.1-1.1
								c0.3-0.2,0.5-0.6,0.7-0.9c-0.4,0-0.8-0.1-1.1-0.1c0.3-0.2,0.3-0.5,0.5-0.7c-0.4-0.1-0.7,0-1,0c-0.1-1-1.3-2.3-2.5-3
								c0.2-0.1,0.5-0.3,0.7-0.4c-1.3-2.1-5-1.1-7-1.5c0.4-0.3,0.7-0.9,1-1.2c-0.5,0-1.1-0.2-1.6-0.1c0.5-0.3,0.5-0.7,0.7-1
								c-1.3-0.2-2.4,0.4-3.5,0.9c-1.1-1.3-4.3-0.5-5.8-0.3c-1.5,0.1-3.2,0.3-4.4,1.4c-1.3,1.2-1.2,1.8-3.2,2.3
								c0.1,0.2,0.2,0.9,0.3,1.2c-0.7,0.1-2-0.1-2.3,0.7c0,0,0,0,0,0c-1-0.4-2.8,0-3.8,0.1c-1.1,0.1-2.3,0.2-3.2,1
								c-1,0.9-0.9,1.3-2.3,1.7c0.1,0.2,0.1,0.7,0.2,0.8c-0.5,0.1-1.5-0.1-1.6,0.5c-0.2,0.7,0.5,1.1,1,1.2c-0.2,0.5-0.6,0.9-0.8,1.3
								c0.3-0.1,0.8,0.1,1.1,0c-0.4,0.3-0.6,0.6-0.7,1c1.8,0,3.8-0.9,5.7-1.2c2-0.3,4-0.5,6.1-0.6c-0.5,0.5-0.9,0.8-2.1,1
								c0.1,0.2,0.1,0.9,0.2,1.1c-0.7,0.1-1.9-0.2-2.2,0.5c-0.4,0.8,0.5,1.4,1.2,1.6c-0.4,0.6-0.8,1.1-1.2,1.7
								c0.5,0,1.1,0.1,1.5,0.1c-0.5,0.3-0.8,0.8-1,1.3c1.5,0.1,3.1-0.2,4.7-0.6c-0.1,1.4,0.1,2.8,0.4,4c0.3,1.4,0.8,3,1.9,4.1
								c-2.9,4-8.8,4.7-13.5,4.7c-0.1-1.8,0.2-3,0.2-3c0.3-9.3-6.3-11.9-10.8-12.6c0,0,0,0,0,0c-3.4-1.2-7.4-0.3-10.5-2.3
								c-0.2-0.1-0.4-0.3-0.6-0.4c1.4-1.1,2.4-2.8,3.2-4.4c1.1,0.2,2.2,0.3,3.2,0.2c3.7-0.4,1.4-3.4-0.5-4.8
								c0.3-0.1,0.5-0.3,0.8-0.4c-1.1-2.2-4.6-1.7-6.8-2c0.8-0.1,1.6-0.3,2.4-0.3c3.3-0.3,6.4-0.1,9.7,0c2.4,0.1,4.8,1.1,7.2,0.9
								c3.4-0.3,1.4-3.1-0.4-4.4c0.2-0.1,0.5-0.3,0.7-0.4c-1.1-2.2-4.9-1.5-6.9-2.1c0.4-0.3,0.8-0.8,1.1-1.1c-0.5,0-1-0.3-1.6-0.2
								c0.5-0.3,0.5-0.7,0.8-0.9c-1.3-0.3-2.4,0.1-3.5,0.5c-1-1.3-4.3-0.8-5.8-0.9c-1.5,0-3.2,0-4.5,1c-1.4,1.1-1.3,1.7-3.4,2
								c0.1,0.2,0.1,1,0.2,1.2c-0.8,0-2-0.3-2.3,0.4c-0.4,0.9,0.5,1.5,1.2,1.7c0,0,0,0-0.1,0.1c-1.5-0.7-4.2-0.3-5.6-0.3
								c-1.7,0-3.5,0.1-4.8,1.2c-0.1,0.1-0.3,0.2-0.4,0.3c-0.1-0.1-0.2-0.2-0.4-0.3c0.1-0.1,0.2-0.2,0.3-0.2
								c-0.7-1.1-2.5-0.5-3.5-0.7c0.2-0.2,0.3-0.4,0.5-0.6c-0.3,0-0.5-0.1-0.8-0.1c0.2-0.2,0.2-0.4,0.4-0.5
								c-0.6-0.1-1.2,0.2-1.8,0.4c-0.6-0.6-2.2-0.2-2.9-0.2c-0.8,0.1-1.6,0.2-2.2,0.7c-0.7,0.6-0.6,0.9-1.6,1.2
								c0.1,0.1,0.1,0.5,0.2,0.6c-0.4,0.1-1,0-1.1,0.3C344.4,231.3,344.9,231.5,345.3,231.6z M418.7,240.9c0.5-0.3,0.5-0.6,0.8-0.9
								c-1.2-0.3-2.3,0.2-3.4,0.6c-0.7-0.9-2.6-0.9-4.1-0.8c-0.1-0.1-0.3-0.3-0.4-0.4c0.2,0,0.5-0.1,0.7-0.1
								c3.2-0.5,6.4-0.7,9.7-0.8c0.1,0,0.2,0,0.4,0c-0.1,0.1-0.2,0.1-0.2,0.2c-1,0.9-0.9,1.3-2.3,1.7c0.1,0.1,0.1,0.6,0.2,0.8
								C419.5,241,419.1,240.9,418.7,240.9z M412.9,252.7c0.7-1.8,1.5-3.5,3-4.8c0.9,0,1.8,0,2.8,0.1c0.4,0,0.7,0,1.1,0.1
								c-1.1,1-2,2.2-3.2,3.2C415.4,252.2,414.2,252.5,412.9,252.7z M407.5,251.4c-0.1-1-0.1-2,0-3c0.6-0.1,1.2-0.2,1.8-0.3
								c1.2-0.1,2.3-0.2,3.4-0.2c-1.5,2.5-2.1,5.7-3.7,8.2C407.8,255.2,407.6,252.8,407.5,251.4z M427.3,272.4
								c-0.6,1.9-1.1,3.8-2.8,4.8c0-1.4-0.2-2.9-0.4-4.3C425.1,272.7,426.2,272.5,427.3,272.4z M438.2,280.9
								c-0.6,1.6-1.2,3.3-2.9,4.1c0.2-1.1,0.3-2.3,0.3-3.6C436.6,281.2,437.4,281,438.2,280.9z M433.5,290.5
								c0.6-1.1,1.3-2.6,1.7-4.7c0,0,0,0,0,0c2.4-0.7,2.9-2.9,3.7-4.9c1.1-0.1,2.1-0.2,3.2-0.2c0,0.4,0.1,0.9,0.2,1.3
								c0.2,0.6,0.6,1.1,1,1.5C439.8,287,436.5,289.1,433.5,290.5z M414,293.6c0.5-2.2,0.7-4.5,0.4-6.9c0.1-0.1,0.1-0.2,0.2-0.2
								c0.8-0.8,1.8-1.2,2.8-1.7c1.9-0.9,4.2-1.6,5.6-3.3c0.6-0.8,1-1.7,1.2-2.7c0,0,0,0,0.1,0c3.1-1,3.3-4,4.3-6.6
								c1.3-0.1,2.5-0.3,3.8-0.4c0.5,0,1-0.1,1.5-0.1c-1.4,1.2-1.5,2-3.8,2.4c0.1,0.3,0.2,1.2,0.3,1.5c-0.9,0.1-2.5-0.2-2.9,0.7
								c-0.5,1.1,0.7,1.9,1.6,2.1c-0.5,0.8-1.1,1.5-1.5,2.2c0.6-0.1,1.4,0.2,2,0.1c-0.7,0.4-1,1-1.2,1.7c1.9,0.1,4-0.4,6-0.8
								c-0.2,2.5-1.1,7-3.8,9.9c-3.7,1-6.8,0.9-9.3,0.6C418.3,291.7,415.8,292.6,414,293.6z M421.5,314.5c1.1-1,2-2.2,2.6-3.1
								c0.5,0,1,0.1,1.5,0.1c0.6,0,1.3,0.2,1.9,0.3c-0.8,1-1.5,2.2-2.6,2.6C423.7,314.8,422.6,314.5,421.5,314.5z M374.1,256.2
								c0.7,0.9,1.6,2.2,2.8,3.5c-4.1,0-7.3-1.7-8.9-2.8c0.3-0.1,0.7-0.2,1-0.2C370.7,256.5,372.4,256.3,374.1,256.2z M377.5,258.5
								c-0.7-0.7-1.4-1.5-2.2-2.3c0.2,0,0.5,0,0.7,0c0.8,0,1.7,0.1,2.5,0.2c0,0.3,0,0.6-0.1,0.9
								C378.2,257.7,377.9,258.1,377.5,258.5z M368.9,237.9c1,0,2.1,0,3.1,0.1c1.1,0,2.1,0.2,3.2,0.4c-0.8,1.4-1.7,2.8-3,3.7
								C370.9,240.8,369.8,239.4,368.9,237.9z M362.2,238.1c1.5-0.1,3-0.2,4.5-0.2c0.7,1.4,1.5,2.7,2.5,3.8
								C366.6,241.5,363.7,240.1,362.2,238.1z"/>
							<path class="st3" d="M274.5,278.1c-0.1-0.2-0.4-0.1-0.5-0.2c0-0.1,0-0.2,0.1-0.3c-0.5-0.1-0.4-0.3-0.7-0.5
								c-0.3-0.2-0.7-0.3-1-0.3c-0.4,0-1.1-0.2-1.3,0.1c-0.3-0.1-0.5-0.2-0.8-0.2c0.1,0.1,0.1,0.2,0.2,0.2c-0.1,0-0.2,0-0.4,0
								c0.1,0.1,0.1,0.2,0.2,0.3c-0.5,0.1-1.3-0.1-1.6,0.3c0.1,0,0.1,0.1,0.2,0.1c-0.1,0-0.1,0.1-0.2,0.1c-0.1,0-0.1-0.1-0.2-0.2
								c-0.6-0.5-1.5-0.5-2.2-0.5c-0.6,0-1.9-0.2-2.6,0.1c0,0,0,0,0,0c0.3-0.1,0.7-0.4,0.6-0.8c-0.1-0.3-0.7-0.2-1.1-0.2
								c0.1-0.1,0.1-0.4,0.1-0.6c-0.9-0.1-0.9-0.4-1.5-0.9c-0.6-0.4-1.4-0.5-2-0.5c-0.7,0-2.2-0.2-2.6,0.4c-0.5-0.2-1-0.4-1.6-0.2
								c0.1,0.1,0.1,0.3,0.4,0.4c-0.2,0-0.5,0.1-0.7,0.1c0.2,0.1,0.3,0.4,0.5,0.5c-0.9,0.3-2.6-0.1-3.1,1c0.1,0,0.2,0.1,0.3,0.2
								c-0.8,0.6-1.7,1.9-0.2,2c1.1,0.1,2.2-0.3,3.3-0.4c1.5-0.1,2.9-0.1,4.4,0c0.4,0,0.7,0.1,1.1,0.2c-1,0.1-2.6-0.1-3.1,0.9
								c0.1,0,0.2,0.1,0.4,0.2c-0.9,0.7-1.9,2-0.2,2.2c0.5,0,1,0,1.5-0.1c0.4,0.7,0.8,1.5,1.5,2c-0.1,0.1-0.2,0.1-0.3,0.2
								c-1.4,0.9-3.3,0.5-4.8,1.1c0,0,0,0,0,0c-2.1,0.3-5.1,1.5-5,5.8c0,0,0.1,0.6,0.1,1.4c-2.2,0-4.9-0.3-6.2-2.2
								c0.5-0.5,0.7-1.2,0.8-1.9c0.1-0.6,0.2-1.2,0.2-1.8c0.7,0.1,1.5,0.3,2.1,0.3c-0.1-0.2-0.2-0.4-0.4-0.6c0.2,0,0.5-0.1,0.7,0
								c-0.1-0.3-0.4-0.5-0.5-0.8c0.3-0.1,0.7-0.4,0.5-0.7c-0.1-0.3-0.7-0.2-1-0.2c0.1-0.1,0.1-0.4,0.1-0.5c-0.6-0.1-0.7-0.2-1-0.5
								c0.9,0,1.8,0.1,2.8,0.3c0.8,0.1,1.8,0.5,2.6,0.5c0-0.2-0.1-0.3-0.3-0.5c0.2,0,0.4,0,0.5,0c-0.1-0.2-0.3-0.4-0.4-0.6
								c0.2,0,0.6-0.2,0.5-0.5c-0.1-0.2-0.5-0.2-0.8-0.2c0.1-0.1,0.1-0.3,0.1-0.4c-0.7-0.2-0.6-0.4-1.1-0.8
								c-0.4-0.3-0.9-0.4-1.4-0.5c-0.4,0-1.3-0.2-1.7,0c0,0,0,0,0,0c-0.1-0.3-0.7-0.2-1-0.3c0.1-0.1,0.1-0.4,0.2-0.5
								c-0.9-0.2-0.8-0.5-1.5-1c-0.5-0.5-1.3-0.6-2-0.6c-0.7-0.1-2.2-0.4-2.7,0.2c-0.5-0.2-1-0.5-1.6-0.4c0.1,0.1,0.1,0.3,0.3,0.5
								c-0.2,0-0.5,0.1-0.7,0c0.2,0.2,0.3,0.4,0.5,0.6c-0.9,0.2-2.6-0.3-3.2,0.7c0.1,0,0.2,0.1,0.3,0.2c-0.5,0.3-1.1,0.9-1.1,1.4
								c-0.2,0-0.3,0-0.5,0c0.1,0.1,0.1,0.2,0.2,0.3c-0.2,0-0.4,0-0.5,0c0.1,0.1,0.2,0.3,0.3,0.4c-0.7,0.1-1.9-0.2-2.3,0.5
								c0.1,0,0.2,0.1,0.2,0.1c-0.6,0.4-1.4,1.3-0.2,1.5c0.8,0.1,1.6-0.1,2.4-0.1c1,0,1.9,0.1,2.8,0.2c0,0-0.1,0.1-0.1,0.1
								c0.1,0,0.2,0.1,0.3,0.2c-0.8,0.6-1.7,1.8-0.2,1.9c0.6,0.1,1.2,0,1.7-0.1c0.8,0.5,1.3,1.2,2,1.9c0.7,0.6,1.5,0.7,2.3,0.8
								c0.3,0.8,0.6,1.5,1.1,2.2c0.7,0.9,1.8,1.4,2.9,1.7c1.2,0.3,2.5,0.4,3.8,0.4c-0.3,1.8-1.2,4.1-4.3,5c-2.5,0.8-3.9,2.7-4.4,4.9
								c-0.2-0.2-0.5-0.3-0.8-0.5c-0.9-0.5-1.9-0.7-2.6-1.4c-1-0.8-0.9-2.3-0.7-3.6c0.2,0,0.4,0.1,0.6,0.1c1.3,0.3,2.6,1,3.9,1
								c-0.1-0.3-0.2-0.5-0.4-0.7c0.2,0.1,0.6,0,0.8,0.1c-0.1-0.3-0.3-0.6-0.5-1c0.4-0.1,0.9-0.3,0.7-0.8c-0.1-0.4-0.7-0.3-1.1-0.4
								c0.1-0.1,0.1-0.5,0.2-0.6c-1-0.3-0.9-0.6-1.5-1.2c-0.6-0.6-1.4-0.7-2.1-0.8c-0.8-0.1-2.3-0.6-2.9,0c-0.5-0.3-1.1-0.6-1.7-0.5
								c0.1,0.2,0.1,0.4,0.3,0.5c-0.3,0-0.5,0-0.8,0c0.2,0.2,0.3,0.5,0.5,0.6c-1,0.2-2.8-0.5-3.5,0.5c0.1,0.1,0.2,0.2,0.3,0.2
								c-0.6,0.3-1.2,0.9-1.3,1.4c-0.5,0-1,0-1.4,0v4.8c0.4,0,0.7,0,1.1,0c0,0.2,0,0.3,0,0.5c0,0.3-0.2,0.5-0.4,0.7
								c-0.2-0.2-0.5-0.5-0.7-0.8v1.1c0.2,0.2,0.3,0.4,0.5,0.6c-0.2,0-0.4-0.1-0.5-0.1v0.3c0.4,0.1,0.8,0.2,1.1,0.4c0,0,0.1,0,0.1,0
								c2.1,2.1,5.5,4.4,10.2,4.5c0,0,2.3,0.5,4.2,1.4c0,0,0,0,0,0c1,1.2,2.2,2.5,3.1,4c-1.5,0.6-4.6,3.2-6,2.9
								c-1.1-0.2-1.9-0.9-2.3-1.4c0.6,0,1.2,0,1.9,0c0.9,0.1,1.8,0.4,2.6,0.3c-0.1-0.2-0.2-0.3-0.3-0.4c0.2,0,0.4-0.1,0.5,0
								c-0.1-0.2-0.3-0.4-0.4-0.6c0.2-0.1,0.5-0.3,0.4-0.6c-0.1-0.2-0.5-0.1-0.8-0.1c0-0.1,0-0.3,0.1-0.4c-0.7-0.1-0.6-0.3-1.1-0.6
								c-0.4-0.3-1-0.3-1.5-0.3c-0.5,0-1.6-0.1-1.9,0.3c-0.4-0.1-0.8-0.3-1.2-0.2c0.1,0.1,0.1,0.2,0.3,0.3c-0.2,0-0.3,0.1-0.5,0.1
								c0.1,0.1,0.2,0.3,0.4,0.4c-0.6,0.2-1.9,0-2.3,0.7c0.1,0,0.2,0.1,0.2,0.1c-0.6,0.5-1.2,1.4-0.1,1.5c0.4,0,0.8,0,1.2-0.1
								c0.4,0.4,0.7,1,1.2,1.3c0.7,0.5,1.6-0.1,2.4,0.3c0,0,0,0,0.1,0c0.3,0.2,0.7,0.3,1.1,0.4c1.4,0.1,4.4-2,6.6-2.8
								c0.4,0.7,1,2,1.1,3.6c0.1,1.3,0,2.4-0.2,3.1c0.3,0.1,0.7,0.1,1.2,0.1c0.9,0,1.6-0.2,2.1-0.4c0.2-1.2,0.3-2.8-0.3-4.7
								c-0.7-2.5-1.8-3-3.3-5.6c-1-1.8-3.8-6.4-1.7-9.3c0.8-1.1,1.9-2,3.4-2.5c0,0,2.3-1,2.7-4.5l1.7,0.2c1.7,0.1,3.4-1.1,4.7-2.5
								c0.6,0,2.9,0,5-1.9c0.6,0.2,1.2,0.4,1.8,0.4c0-0.2-0.1-0.3-0.3-0.5c0.2,0,0.4,0,0.5,0c-0.1-0.2-0.3-0.4-0.4-0.6
								c0.2,0,0.6-0.2,0.5-0.5c-0.1-0.2-0.5-0.2-0.8-0.2c0.1-0.1,0.1-0.3,0.1-0.4c-0.7-0.2-0.6-0.4-1.1-0.8
								c-0.4-0.3-0.9-0.4-1.4-0.5c-0.5,0-1.6-0.3-1.9,0.1c-0.4-0.2-0.7-0.4-1.2-0.3c0.1,0.1,0.1,0.2,0.2,0.3c-0.2,0-0.4,0-0.5,0
								c0.1,0.1,0.2,0.3,0.3,0.4c-0.7,0.1-1.9-0.2-2.3,0.5c0.1,0,0.2,0.1,0.2,0.1c-0.6,0.4-1.4,1.3-0.2,1.5c0.3,0.1,0.7,0,1.1,0
								c0,0.2,0,0.4,0,0.6c0,0.2,0.2,0.5,0.4,0.6c-3,2.8-5.5,2.5-6.5,2.3c0-0.6-0.1-1.3-0.2-2c0,0-0.7-5.9,5.5-5.9c0,0,0,0,0,0
								c0.2,0,0.5,0,0.7,0c0.3,0,0.5,0,0.8,0.1l-0.3-0.1c1.3-0.2,2.4-0.8,3.4-1.7c1.5,0,3.2-1,4.1-2.2c0,0,0,0,0.1,0
								c1.3,0.1,2.7,0.6,4,0.6c-0.1-0.3-0.2-0.5-0.5-0.7c0.2,0,0.5-0.1,0.8,0c-0.2-0.3-0.4-0.6-0.6-0.9c0.4-0.1,0.8-0.4,0.6-0.8
								c-0.2-0.4-0.8-0.2-1.2-0.2c0.1-0.1,0.1-0.5,0.1-0.6c-0.1,0-0.1,0-0.2,0c0.1,0,0.3,0,0.4,0c0.8,0,1.5,0.1,2.2,0.2
								c0.6,0.1,1.2,0.4,1.8,0.4c0-0.1-0.1-0.2-0.2-0.3c0.1,0,0.3,0,0.4,0c-0.1-0.1-0.2-0.3-0.3-0.4
								C274.3,278.4,274.6,278.3,274.5,278.1z M240,282.8c0-0.1,0.1-0.3,0.1-0.4c-0.7-0.2-0.6-0.4-1.1-0.8c0,0-0.1-0.1-0.1-0.1
								c0.1,0,0.1,0,0.2,0c1.5,0,2.9,0.1,4.4,0.4c0.1,0,0.2,0,0.3,0.1c-0.1,0.1-0.1,0.1-0.2,0.2c-0.7,0-1.6-0.1-1.9,0.4
								c-0.5-0.2-1-0.4-1.5-0.3c0.1,0.1,0.1,0.3,0.3,0.4C240.4,282.7,240.2,282.8,240,282.8z M241.6,287.4c-0.5-0.5-0.9-1-1.4-1.4
								c0.2,0,0.3,0,0.5,0c0.4,0,0.8,0,1.3,0c0.7,0.6,1,1.4,1.4,2.2C242.6,288,242.1,287.9,241.6,287.4z M245,289.7
								c-0.7-1.2-1-2.6-1.7-3.8c0.5,0,1,0,1.6,0.1c0.3,0,0.5,0.1,0.8,0.1c0.1,0.5,0,0.9,0,1.4C245.6,288.1,245.5,289.3,245,289.7z
								 M238.1,297.4c-0.1,0.6-0.2,1.3-0.2,2c-0.8-0.5-1-1.3-1.3-2.2C237.1,297.2,237.6,297.3,238.1,297.4z M232.8,301.2
								c0,0.6,0.1,1.2,0.1,1.7c-0.8-0.4-1-1.1-1.3-1.9C232,301.1,232.4,301.2,232.8,301.2z M229.3,302.2c0.2-0.2,0.3-0.4,0.4-0.7
								c0.1-0.2,0.1-0.4,0.1-0.6c0.5,0,1,0.1,1.5,0.1c0.4,0.9,0.6,1.9,1.7,2.3c0,0,0,0,0,0c0.2,1,0.5,1.7,0.8,2.1
								C232.4,304.8,230.9,303.8,229.3,302.2z M239.4,306.1c-1.2,0.1-2.6,0.2-4.3-0.3c-1.2-1.3-1.6-3.4-1.7-4.5
								c0.9,0.2,1.9,0.4,2.7,0.4c-0.1-0.3-0.2-0.6-0.6-0.8c0.3,0,0.6-0.1,0.9,0c-0.2-0.3-0.5-0.7-0.7-1c0.4-0.1,0.9-0.4,0.7-1
								c-0.2-0.4-0.9-0.3-1.3-0.3c0.1-0.1,0.1-0.6,0.2-0.7c-1.1-0.2-1.1-0.5-1.7-1.1c0.2,0,0.5,0,0.7,0c0.6,0.1,1.2,0.1,1.7,0.2
								c0.4,1.2,0.5,2.6,2,3c0,0,0,0,0,0c0.1,0.4,0.3,0.9,0.5,1.2c0.6,0.8,1.7,1.1,2.6,1.5c0.4,0.2,0.9,0.4,1.3,0.8
								c0,0,0.1,0.1,0.1,0.1c-0.1,1.1-0.1,2.2,0.2,3.1C241.9,306.4,240.7,306,239.4,306.1z M237.7,316.3c-0.5-0.2-0.8-0.7-1.2-1.2
								c0.3-0.1,0.6-0.1,0.9-0.1c0.2,0,0.5,0,0.7,0c0.3,0.4,0.7,1,1.2,1.4C238.8,316.4,238.3,316.5,237.7,316.3z M263.3,290
								c0.1,0,0.3,0.1,0.4,0.1c-0.7,0.5-2.2,1.3-4.1,1.3c0.5-0.6,1-1.2,1.3-1.6C261.7,289.8,262.5,289.8,263.3,290z M259,290.2
								c0-0.1,0-0.3,0-0.4c0.4,0,0.8-0.1,1.1-0.1c0.1,0,0.2,0,0.3,0c-0.3,0.4-0.7,0.7-1,1.1C259.2,290.6,259.1,290.4,259,290.2z
								 M261.8,283.2c-0.6-0.4-1-1-1.4-1.7c0.5-0.1,1-0.2,1.5-0.2c0.5,0,0.9,0,1.4,0C263,282,262.4,282.7,261.8,283.2z M263.2,283.1
								c0.5-0.5,0.8-1.1,1.1-1.8c0.7,0,1.4,0,2.1,0.1C265.7,282.3,264.4,283,263.2,283.1z"/>
						</g>
						<path class="st3" d="M445.1,337.7c-4.4-2.1-11.2-5.1-19.7-8.1c-2.8-1-7.2-2.4-15.8-5.1c-17.6-5.5-22.2-6.8-26.5-11.7
							c-2.3-2.7-2.3-3.8-4.7-5.5c-4.5-3.1-9.3-2.1-18.5-1.1c-13.1,1.4-19.9,2-27.3,0.4c-5.4-1.2-4.5-2-12.4-4.4
							c-8.5-2.6-16.4-4.9-24.5-4c-10.1,1.2-9.8,6.3-27.9,14.5c-10.7,4.8-12.5,3.8-19.9,8c-9.4,5.4-15.6,12.2-19.3,17
							C300.7,337.7,372.9,337.7,445.1,337.7z"/>
					</g>
				</g>
			</g>
			<path class="st5" d="M320.1,431.9c3.7-0.1,7.4-0.3,11.1-0.4c1.7,1.3,4,2.6,6.9,3.6c7.5,2.7,14.1,1.4,17.2,0.6
				c1-1.2,1.9-2.6,2.8-4.2c4.3-8.5,1.6-17.4,0.5-20.5c7.3-0.1,14.5-1.5,21.8-2c1.7-0.1,3-1.5,3.1-3.1c0,0,0,0,0-0.1
				c0.1-1.8-1.3-3.4-3.1-3.4c-12.7-0.4-25.4,0.3-38.2-0.4c4.8-0.1,9.6-0.1,14.5-0.2c-1.4-0.7-2.8-1.4-4.1-2.1
				c-4.9,0.5-10.3,1-15.2,1.4l-7.7,5.9c-4.6,2.2-9.2,4.4-13.9,6.6C318.1,423.8,317.6,421.8,320.1,431.9z"/>
			<g>
				<path class="st6" d="M288.7,479.1c-5.8,0-11.6,0-17.3,0c-0.3-10.6-0.5-20.6-0.5-20.6c0,0,0.1,4.2,0.1,4.2c0,0,0.2-2.2-0.3-5
					c-0.1-0.4-0.1-0.7-0.1-0.8c-0.8-5.3-1.9-13.6-2.8-23.9c-0.4-4.7-0.6-7.9-0.7-9.8c-1.1-17.8-4.4-34.7-5.3-40.4
					c-1.4-9.1-3.7-23.4-9.6-39.9c-3.7-10.4-9.4-23-18.1-36.4c1,0.7,1.9,1.5,3,2.3c3.9,3.1,8.3,7.2,12.8,12.4
					c1.4,1.6,6.1,7.2,11.1,15.8c6.8,11.6,10.2,21.9,12,28c1.9,6.5,3.1,11.9,3.8,16.6c2.2,14,2.6,19.7,4.6,38.5
					c0.4,3.8,2.3,18.5,6,47.9C287.6,471,288.3,476.4,288.7,479.1z"/>
				<g>
					<g>
						<g>
							<g>
								<path class="st7" d="M261.8,488.4c-2.2-60.5-9.7-115.1-19.5-162.9c1.6-8.2,3.1-16.4,4.7-24.7c4.5,3,9.2,6.4,14.1,10.2
									c3.9,3.1,7.6,6.2,10.9,9.2c2.8,1.7,5.6,3.4,8.4,5.1c1.4,3,2.7,5.9,4.1,8.9c0.1,3.9,0.2,9.8,0.4,16.9
									c1.4,52.4,5,85.8,7.3,116.4c1.7,22.8,3.5,55.7,3.5,96.5c-11.3-1.5-22.5-2.9-33.8-4.4C262.6,537,262.7,513.2,261.8,488.4z"/>
								<path class="st8" d="M198.9,273.4c4,0.3,8.6,1,13.6,2.2c4.1,1,7.8,2.2,11,3.4c-0.3,1.7-0.7,3.5-1,5.2
									c-7.5-1-15-2.1-22.5-3.1C199.6,278.5,199.2,275.9,198.9,273.4z"/>
								<path class="st9" d="M138.1,566.4c-1.4-129.3-1.7-223.7-1.1-232.8c0.1-2.3,0.5-8.6,4.8-13.7c1.3-1.6,2.9-2.9,4.6-4.1
									c17.8-11.6,35.7-23.2,53.5-34.8c3.8-0.2,8.3-0.1,13.4,0.7c10.2,1.6,18,5.4,23.1,8.4c14.6,11.7,29.3,23.5,43.9,35.2
									c-0.8,16.9-1.5,33.9-2,51c-2.2,65.6-2.8,129.7-2,192"/>
								<path class="st10" d="M237.5,299.8c4.4,21.6,8.3,45.4,10.9,71.3c2.9,28.5,2.8,48,3.1,91.3c0.2,24.1,0.6,60.8,1.2,106.9"/>
								<path class="st10" d="M231.1,342c7.5-0.5,15-1,22.5-1.5"/>
								<path class="st10" d="M238.3,405.4c7.3-0.8,14.6-1.6,21.9-2.3"/>
								<path class="st10" d="M238.8,518.3c8.9-0.8,17.8-1.7,26.7-2.5"/>
								<path class="st8" d="M209.5,268.8c3.8,0.7,10,2.5,16.4,6.8c5.3,3.6,8.8,7.7,10.9,10.6c0.8,4.5,1.5,8.9,2.3,13.4
									c-0.6,0.1-1.1,0.1-1.7,0.2c-0.7-3.1-3-11.1-10.3-17.9c-9.2-8.5-20-9.1-22.8-9.1C206.1,271.4,207.8,270.1,209.5,268.8z"/>
								<g>
									<path class="st11" d="M239.4,313.3"/>
								</g>
								<g>
									<path class="st12" d="M189.1,260.9c1,1.1,2.5,2.5,4.8,3.8c0.6,0.3,1.7,1,3.3,1.5c2.6,0.8,5.1,0.8,6.9,0.5
										c-0.2-3-1.1-9.7-5.8-16.5c-4.3-6.3-9.7-9.5-12.4-10.9C187,246.5,188,253.7,189.1,260.9z"/>
									<g>
										<path class="st13" d="M237.6,301.2c-1.9-2.3-4-4.7-6.3-7.1c-2.1-2.3-4.2-4.4-6.3-6.4c-0.9-0.8-1.9-1.5-3-2.3
											c-0.8-0.6-1.7-1.1-2.6-1.6c-3-1.7-5.9-3-8.6-4c-3.4-1.2-6.6-1.7-9.2-2.1c0.2-1.5,0.4-3.3,0.3-5.1c0-0.8-0.1-1.7-0.3-2.6
											l0,0c0-0.2,0-0.3-0.1-0.4c-0.2-1.2-0.4-2.3-0.7-3.3c-0.2-0.6-0.3-1.1-0.5-1.6c8.9,1.3,17.9,2.5,26.8,3.8
											c2.6,0.4,5.1,0.7,7.7,1.1l0.1,0l0,0.1c0,1.1,0,2.2-0.1,3.3c-0.1,3.8-0.1,7.5-0.2,11.3l0,0.2c0,0.7,0,1.5,0,2.2
											c0,1.7-0.1,3.4-0.1,5c0.5,0.8,0.9,1.6,1.3,2.6C237.1,296.8,237.5,299.3,237.6,301.2z"/>
										<path class="st14" d="M235,269.6c0,1.1,0,2.2-0.1,3.3c-0.1,3.8-0.1,7.5-0.2,11.3l0,0.2c-1.1,0.1-2.4,0.1-3.5,0.1
											c-3.3-0.1-6.3-0.6-9.1-1.5c-4.5-1.4-8.2-3.7-11.1-5.7c-0.9-0.7-1.8-1.4-3.6-2.7c-2.3-1.8-4.3-3.4-5.7-4.6l0,0
											c0-0.2,0-0.3-0.1-0.4c-0.2-1.2-0.4-2.3-0.7-3.3c-0.2-0.6-0.3-1.1-0.5-1.6c8.9,1.3,17.9,2.5,26.8,3.8
											C229.9,268.8,232.4,269.2,235,269.6z"/>
										<path class="st13" d="M227.9,152.6c-39-1.8-46.2,24.5-46.9,39.6c-0.3,6.8-0.5,11.7,0,18.9c0.6,8.2,1.5,18.9,6,31
											c3.3,8.9,7.9,21.2,19.9,30.5c6,4.6,11,7,13,7.7c6.2,2.3,11,2.4,12.1,2.4c2.4,0,5.1,0,7.7-1c5.2-1.9,6.8-7,13-17.4
											c3.2-5.4,6.9-10.4,9.3-18.2c6.3-20.3,8.3-34.7,9-49.8C271.8,181.1,267,154.3,227.9,152.6z"/>
										<path class="st12" d="M234.5,149.7c11.2-1.9,18.7,1,21.9,2.6c16.8,8.1,22,28.9,20.8,42.9c-1,12.7-7.4,23-8.3,22.7
											c-0.5-0.2,0.8-4-0.1-10.4c-0.4-3.1-1.1-5.7-1.7-7.3c-0.9-2.6-1.9-4.8-2.9-6.5c-1.7,8.6-2.7,10.6-3.3,10.5
											c-0.9-0.1-0.5-5.1-2.6-11.9c-2.1-6.7-6.1-13.3-8.2-12.8c-2.2,0.6-1.4,9.3-3,9.4c-0.8,0.1-1.1-2.5-3.6-5.4
											c-1.2-1.5-3.2-3.7-5.2-3.6c-2.1,0.2-3.2,3.1-6.9,11.6c-4.2,9.8-5.1,11.5-6.1,11.4c-1,0-2.4-2-3.8-11.1
											c-1.6,2.2-2.6,4.4-6.3,10.3c-1.9,3.1-3.8,5.7-4.3,5.7c-1,0.1-3.4-4.4-5-9.4c-0.9,1.5-2.1,3.7-2.6,6.6
											c-0.5,2.9,0.2,3.7,0,6.1c-0.3,4.8-3.2,5.6-6.2,12.1c-2.8,6.1-2.1,9.4-3.8,9.9c-2.5,0.6-6.3-6.3-7.9-9.4
											c6.8,28.3,7.4,37.4,5.5,38c-2.5,0.8-10.6-11.6-15.2-24.1c-0.1-0.3-0.5-1.4-0.9-2.7c-3.1-9.6-10.4-36.9,3-61.4
											c4-7.3,8.6-12,10.8-14.2c4.6-4.4,13.8-13.1,27.4-13.7C219.3,145.2,226.3,145.4,234.5,149.7z"/>
									</g>
									<path class="st10" d="M190.7,293.2"/>
									<g>
										<g>
											<path d="M207.8,214.2c7.8-2.5,16.8-1.2,23.4,3.6c0,0-1.4,2-1.4,2c-4.8-3.2-10.3-5.3-16.1-5.6c-1.9-0.1-3.9-0.1-5.9,0.1
												L207.8,214.2L207.8,214.2z"/>
										</g>
									</g>
									<g>
										<g>
											<path d="M266.8,223.6c-6-3.1-13.4-2.4-18.9,1.3c0,0-1.2-1.9-1.2-1.9c4.5-3.1,10.5-4,15.6-2.2c1.7,0.6,3.3,1.5,4.6,2.6
												L266.8,223.6L266.8,223.6z"/>
										</g>
									</g>
									<path class="st14" d="M223.9,262.5c0,2.4,6.7,4.6,12,4.5c1.6,0,5.7-0.1,6.4-2.1c0.7-1.8-1.8-4.6-4.2-5.9
										C232.5,256.2,223.9,259.9,223.9,262.5z"/>
									<g>
										<path class="st14" d="M231.6,249.7c3.2-1.4,6.8-1.2,9.9,0.4C238.3,251.5,234.6,251.3,231.6,249.7L231.6,249.7z"/>
									</g>
									<g>
										<path d="M248.9,233.8C248.9,233.8,248.9,233.7,248.9,233.8c-0.3-0.3-0.5-0.5-0.7-0.6c0.3-0.4,0.7-0.8,1.2-1.3
											c0.1-0.1,0.7-0.6,1.3-0.9c0.8-0.4,1.3-0.2,3.2,0c2.4,0.3,2.7,0.2,3.2,0.6c0.7,0.5,1.5,1.6,1.2,2.4
											c-0.1,0.3-0.3,0.4-0.5,0.7c-1,0.8-1.9,0.7-1.9,0.8c0,0.1,1.2,0.6,2.4,0c0.8-0.4,1.3-1.1,1.6-1.5c0.3,0.1,0.9,0.4,1.5,0.6
											c0.8,0.4,1,0.5,1.1,0.5c0.1-0.2-1-1.5-2.2-2.5c-0.5-0.4-1.2-1-2.3-1.5c-0.5-0.2-1.1-0.4-3.1-0.7c-1-0.1-2.3-0.3-3.9-0.4
											c-0.6,0.3-1.6,0.7-2.7,1.6c-1.3,1-2.3,2.2-2.2,2.4c0.1,0.1,0.5-0.3,1.1-0.2c0.3,0,0.3,0.1,0.7,0.1
											C248.3,234,248.9,233.9,248.9,233.8z"/>
										<path d="M256.6,231.3c0.2,0.3,0.4,0.8,0.5,1.4c0,0.8-0.3,1.8-1.1,2.3c-0.3,0.2-0.6,0.3-0.8,0.3c-0.6,0.1-1,0-1.4-0.1
											c-0.3-0.1-0.9-0.3-1.4-0.9c-0.2-0.3-0.6-0.8-0.6-1.7c0-0.9,0.5-1.6,0.6-1.7c0.6,0,1.3,0.1,2,0.1c0.6,0.1,1.2,0.2,1.4,0.2
											C256.2,231.2,256.4,231.3,256.6,231.3z"/>
									</g>
									<g>
										<path d="M226.5,229.7c0,0,0,0,0.2,0c0.3-0.1,0.6-0.2,0.9-0.3c-0.2-0.4-0.5-1.1-0.9-1.7c-0.1-0.1-0.6-0.8-1.2-1.3
											c-0.8-0.7-1.5-0.8-3.8-1.3c-3.1-0.7-3.3-0.9-4.1-0.7c-1.1,0.2-2.5,0.9-2.5,1.7c0,0.3,0.1,0.5,0.4,0.8c0.8,1.1,2,1.4,2,1.5
											c0,0.1-1.7,0.1-2.9-1c-0.8-0.7-1.1-1.5-1.2-2c-0.5,0-1.2,0-2.1,0c-1.1,0-1.5,0.1-1.5,0c-0.1-0.2,1.8-1,3.8-1.4
											c0.8-0.2,1.9-0.4,3.5-0.4c0.6,0,1.6,0,4.1,0.6c1.2,0.3,2.9,0.7,4.9,1.2c0.7,0.5,1.6,1.3,2.6,2.6c1.1,1.5,1.8,2.9,1.6,3.1
											c-0.1,0.1-0.4-0.4-1.3-0.7c-0.3-0.1-0.4,0-0.9-0.1C227.2,230.1,226.4,229.8,226.5,229.7z"/>
										<path d="M219.7,224.5c-0.2,0.3-0.5,0.8-0.6,1.4c-0.2,1.5,0.8,2.5,0.9,2.7c0.9,0.9,2,1.1,2.7,1.1c0.5,0,1.3,0.1,2.2-0.3
											c0.4-0.2,1.2-0.6,1.6-1.4c0.4-0.9,0.1-1.8,0-2c-0.8-0.3-1.7-0.5-2.7-0.7C222.4,224.8,221,224.6,219.7,224.5z"/>
									</g>
									<polyline class="st11" points="199.6,282.1 199.7,281.3 199.7,279.8 199.7,279.1 199.8,278.5 									"/>
									<path class="st13" d="M189.1,215.6c-1.2-3.8-6.6-7.6-9-6.3c-2.4,1.3-3.9,7.9-3,12.1c0.4,2.2,0.8,8.6,5.7,13.4
										c2.6,2.5,7.3,5.4,9.3,4c0.9-0.7,1.2-2.2,0.1-9.1C191.3,224.1,190.2,219.4,189.1,215.6z"/>
								</g>
								<path class="st8" d="M198.9,273.4c10,4.4,20.1,8.8,30.1,13.1c2.9,5,5.9,10,8.8,15c-0.4,0.5-0.8,1-1.2,1.5
									c-3.3-3.6-8.6-8.6-16.2-12.8c-9-5-17.4-6.7-22.7-7.3C198.1,279.8,198.5,276.6,198.9,273.4z"/>
							</g>
							<path class="st9" d="M142,354.3c19.3,39.1,38.6,78.2,57.9,117.4c44.1-1.3,88.2-2.6,132.3-3.9c-4.2-22-8.5-43.9-12.7-65.9
								c-33,5.2-66,10.4-98.9,15.7c-6-17.6-12.1-35.3-18.1-52.9"/>
							<g>
								<path class="st7" d="M138,347.2c20.6,38.5,43.8,83.6,63.7,122.6c0,0-2.3-1.4-2.3-1.4c43-1.4,89.8-2.7,132.7-3.7
									c0,0-2.8,3.6-2.8,3.6l-7-32.7l-6.9-32.7l2.9,2.1c-30.4,3.5-66.7,7.4-97.1,10.6c0,0-1.2,0.1-1.2,0.1l-0.4-1.1l-11.1-31.3
									c-2.7-7.8-8.3-23.6-10.9-31.4c7.1,17.1,18,44.3,24.9,61.7c0,0-1.6-1-1.6-1c21.6-3,51.1-6.9,72.6-9.7
									c0.8-0.1,26.5-3.4,26.6-3.4c4.3,19.1,11.6,52,15.8,71.2c-44.7,1.2-93.1,2.1-137.9,2.8C178.6,433.4,156.5,387.4,138,347.2
									L138,347.2z"/>
							</g>
							<path class="st8" d="M294.9,401.8c3.7,23.5,7.4,47,11.1,70.5c10.3-0.7,20.6-1.3,30.9-2c-5.3-24.1-10.5-48.3-15.8-72.4
								C312.4,399.2,303.6,400.5,294.9,401.8z"/>
						</g>
					</g>
				</g>
			</g>
			<g>
				<g>
					<g>
						<path class="st7" d="M458.4,544.9c-4.2,2.6-8.5,5.3-12.7,7.9c0.5-18.5,0.9-37,1.2-55.8c0.4-25,0.7-49.8,0.9-74.3
							c2-4.4,4.1-8.8,6.1-13.1C455.4,454.6,456.9,499.7,458.4,544.9z"/>
						<path class="st9" d="M532.4,396.1c1.3,0.9,2.7,2.1,4.2,3.5c0,0,0.1,0.1,0.1,0.1c5.3,5.4,5.7,16.1,5.7,16.1
							c0.2,7.2,2.4,80.7,4.6,181.9c-33.8,2.1-67.6,4.1-101.3,6.2c0.8-8.7,1.4-16,1.9-21.1c0,0,3.8-43.4,4.4-68.7
							c0.1-3.4,0.2-7.1,0.2-11.2c0-5.1,0-8.8,0-9.4c-0.1-5.6,0.3-26.4,1.9-83.8c3.7-7.9,8.3-13.2,11.4-16.3
							c7.5-7.4,15.5-11.4,20.5-12.4c2-0.4,3.8-0.7,5.8-0.7c2.9,0,5.3,0.4,7.2,0.9C520,386.4,532.4,396.1,532.4,396.1z"/>
						<path class="st15" d="M474.1,602.1c0-7.3-0.1-76.4,0.5-113.8c0.1-4.8,0.2-13.2,0.8-24.2c0.9-16.2,2.3-29.5,3.4-38.7"/>
						<g>
							<path class="st8" d="M484.2,571.1c-4.7,3.1-11.7,2.4-15.7-1.5C473.9,569.4,478.9,569.9,484.2,571.1L484.2,571.1z"/>
						</g>
						<g>
							<path class="st8" d="M484.3,525.4c-4.5,3.4-11.5,3.2-15.8-0.5C473.9,524.4,478.9,524.6,484.3,525.4L484.3,525.4z"/>
						</g>
						<g>
							<path class="st8" d="M485.4,435.8c-4.3,3.7-11.3,3.9-15.8,0.5C475,435.5,480,435.4,485.4,435.8L485.4,435.8z"/>
						</g>
						<g>
							<g>
								<path class="st7" d="M521.2,417.2c-9.2,5.5-15.6,15.1-17.8,25.5c0-0.2,0.2,16.3,0.2,16.3c0.6,36.1,1.5,78.2,1.8,114.2
									c0,0-2.5-2.2-2.5-2.2c10.7-1.3,27.1-3.3,37.7-4.5c0,0-2,2.3-2,2.3c-0.3-22.6-0.2-55.4,0-78.4c0-13.7,0.3-45.5,0.2-58.8
									c0.1-6.4-0.2-13.4,0-19.5C532.6,412.4,526.5,414.1,521.2,417.2L521.2,417.2z M521.2,417.2c5.3-3.1,11.6-5.1,17.6-5.1
									c0.1,6.5,0.3,13.1,0.4,19.6c0.3,13,1.4,45.2,1.8,58.7c0.7,23,1.9,55.6,2.1,78.3c0,0,0,2,0,2l-2,0.2
									c-10.5,1.3-27.1,3.2-37.7,4.4c0,0-2.5,0.3-2.5,0.3l0-2.5c0.2-30,1.1-67.8,1.6-97.9c0.2-8.1,0.4-24.5,0.5-32.6
									C505.5,432.3,511.8,422.7,521.2,417.2L521.2,417.2z"/>
							</g>
						</g>
					</g>
					<path class="st16" d="M501.1,376.6c0,0-18.1,1.2-23.4,4.4l-0.6,3.3l26.1-2L501.1,376.6z"/>
					<g>
						<path class="st5" d="M499.6,369.1l-21.5,0.7l-0.2,19.5c0.4,10.6,0.8,21.2,1.3,31.9c1.6-9.3,3.3-18.6,4.9-27.9
							c0.5-0.7,1.1-1.4,1.8-2.2c0.8-0.8,1.5-1.6,2.2-2.2c4.1-2.3,8.2-4.5,12.3-6.8C500.2,377.7,499.9,373.4,499.6,369.1z"/>
						<path class="st17" d="M477.9,382.1l0.1-10.6c7.1-2.4,14.3-4.7,21.4-7.1c0.1,3.6,0.2,7.2,0.3,10.8
							C494.4,378.9,487,382.3,477.9,382.1z"/>
						<path class="st18" d="M495.3,275.3c-3.5,0-10.4-0.1-17.6,3.1c-22.5,9.9-28.3,42-23.4,52.1c0.2,0.4,1,2.2,2.3,4.4
							c1.9,3.4,4.1,6.5,8,12.4c13.8-7.9,44.1,14.6,44.1,14.6s22.8-1.4,30.3-40.6c0.7-3.4,1.2-11.2-2.3-20
							c-4.3-10.6-12.4-16.1-16.1-18.5C518.8,281.6,509.2,275.5,495.3,275.3z"/>
						<path class="st5" d="M453.2,334.7c0.3-10.9,0.8-17.6,2.3-25.6c0.8-4.2,2.4-10.1,6-17.1c0-0.1,0-0.6,0.1-1.2
							c1.9-7.2,26.1-10.9,44.5-3.4c4.3,1.8,11.5,5.5,18.7,13.6c1.3,4.4,2.7,11,2.5,19c-0.2,5.9-2,21.4-13.2,36.6
							c-4.9,6.7-9.4,13-18.2,16.6c-2.9,1.2-10.9,4.4-20.5,1.7c-12.7-3.6-18.3-14.8-19.6-17.7c-1.9-4.3-2.6-8.2-2.8-10.8
							C453.1,343.7,453.1,339.6,453.2,334.7z"/>
						<g>
							<path d="M485.3,326.6c6.5-0.8,13.2,0,19.2,2.2c-6.2-1.6-12.8-1.6-18.9-0.2C484.3,328.9,484,326.8,485.3,326.6L485.3,326.6z"
								/>
						</g>
						<g>
							<path d="M469.9,326.7c-3.4-2.5-7.6-4-11.9-4.2c4.3-0.5,8.9,0.3,13,2.5C472.2,325.7,471,327.5,469.9,326.7L469.9,326.7z"/>
						</g>
						<path class="st18" d="M509,319.3c-1.1,3-2.4,7.8-2.2,13.8c0.1,7,2.2,12.5,3.6,15.5c2.9-0.6,8.7-2.3,13.6-7.3
							c1.3-1.4,3.7-5.2,6.7-12.8c1.3-3.5,5.8-18-0.5-31.5c-7.8-16.7-31.5-29.4-53.3-20.5c-20.4,8.4-31,32.4-23,54.1
							c0.2-2.8,0.6-6.1,1.5-9.6c1-4.1,2.2-7.6,3.4-10.4c-0.2,1.2-0.5,3.6,0.4,6.3c1.2,3.6,3.7,5.6,4.6,6.3c-0.6-0.7-3.5-4.3-2.9-9.2
							c0.3-2.1,1.1-3.7,1.7-4.6c0,2.8,0.5,7,2.6,11.4c3.4,7,9,10.6,9.3,10.4c0.3-0.3-6.3-5.1-6.8-12.4c-0.2-3.1,0.8-5.9,1.9-8
							c0.5,2.3,1.2,5,2.2,7.8c2.2,5.9,5.2,10.4,7.8,13.5c-1.1-2.7-2.1-6-2.9-10c-0.7-4-1-7.5-1-10.5c1.3,3.5,3.3,7.8,6.4,12.4
							c3.4,5.1,7,8.8,10,11.4c-1.6-2.1-4-5.8-5.5-10.8c-1.5-5.1-1.4-9.5-1.2-12.1c0.6,2.6,1.6,6,3.4,9.7c2,4.1,4.4,7.1,6.3,9.2
							c-1-2.3-2.3-5.8-2.6-10.4c-0.2-3.2,0.2-5.9,0.6-7.9c0.7,4.4,1.9,9.7,4.2,15.5c1.7,4.5,3.7,8.4,5.6,11.5
							c-0.5-1.5-2.3-7.3,0.4-13.6C505,322.7,507.6,320.4,509,319.3z"/>
						<g>
							<g>
								<path class="st19" d="M490.1,335.7c0,0.2-0.2,1.3,0.6,2.3c0.6,0.6,1.3,0.8,1.4,0.8c0.4,0.1,0.9,0,1.3-0.1
									c0.9-0.4,1.4-1.3,1.5-2c0.1-0.6,0-1-0.1-1.3c-0.7-0.1-1.6-0.1-2.7,0C491.4,335.4,490.7,335.6,490.1,335.7z"/>
								<path class="st17" d="M472.9,347.2c-0.3,1.6,0.8,3,2.1,3.1c1.1,0.1,2.3-0.8,2.5-2.1c-0.2,0.1-1.3,0.8-2.7,0.4
									C473.6,348.2,473,347.4,472.9,347.2z"/>
								<path class="st19" d="M499.9,339.5c-1.7-3.1-4.8-5-7.9-4.8c-2.3,0.1-4,1.4-4.7,1.9c1.1-0.4,3.9-1.1,7.2-0.2
									C497.2,337.2,499,338.7,499.9,339.5z"/>
							</g>
						</g>
						<g>
							<g>
								<path class="st19" d="M460,331.2c-0.1,0.1-0.5,1.2,0,2.3c0.4,0.8,1.1,1.1,1.2,1.1c0.4,0.2,0.8,0.2,1.3,0.2
									c1-0.1,1.7-0.9,2-1.6c0.2-0.5,0.2-1,0.2-1.3c-0.7-0.2-1.6-0.5-2.6-0.6C461.2,331.2,460.6,331.1,460,331.2z"/>
								<path class="st19" d="M457.3,331.9c1.1-0.5,4.1-1.8,7.2-0.6c2.8,1,4.6,3.6,4.4,3.8c-0.2,0.2-2-1.6-5-2.6
									C461.4,331.6,459,331.7,457.3,331.9z"/>
							</g>
						</g>
						<g>
							<path class="st5" d="M513.8,338.4c1.9-3.7,7.1-6,10.2-3.4c4.7,4,2.9,12.7-0.9,17.4c-2.3,2.8-7.1,6.1-9.8,3.8
								C509.9,353.2,510.3,345.4,513.8,338.4z"/>
						</g>
						<g>
							<path class="st17" d="M474.4,357c6,0.5,10.7,4.1,10.5,4.7c-0.2,0.5-3.4-1-10.2-1.9c-6.2-0.8-9.5-0.3-9.5-0.9
								C465.1,358.3,469.6,356.6,474.4,357z"/>
						</g>
					</g>
					<path class="st8" d="M501.1,376.6c-2.3,1-4.8,2.3-7.4,4c-4.8,3.1-8.4,6.6-10.9,9.5c-0.4,2.5-0.8,5-1.1,7.4
						c1.9-2.4,4.6-5.3,8.2-8c5-3.8,9.9-6,13.4-7.2C502.5,380.4,501.8,378.5,501.1,376.6z"/>
					<path class="st8" d="M479,384.8c0.5,1.6,0.9,3,1.1,4.4c-0.4,2.4-0.7,4.8-1.1,7.3c-0.3-1.2-0.6-2.3-0.8-3.5
						c-0.5-2.4-1.1-4.8-1.5-7.1c0.3-1.5,0.6-3,1-4.5C478.1,382.4,478.6,383.6,479,384.8z"/>
					<path class="st8" d="M486.2,392.6c-0.7,0.3-1.8,0.9-2.8,2c-1.1,1.2-1.6,2.3-1.8,3c-0.8,7.1-1.6,14.1-2.4,21.2
						c0.1-8.3,0.2-16.6,0.3-24.9c-0.6-0.8-1.1-1.7-1.7-2.5c-0.2,12.3-0.4,24.6-0.5,36.9c0.9-0.1,1.8-0.1,2.7-0.2
						C482.1,416.3,484.2,404.4,486.2,392.6z"/>
				</g>
			</g>
		</g>
	</g>
</g>
</svg>
