<?xml version="1.0" encoding="utf-8"?>
<!-- Generator: Adobe Illustrator 26.0.1, SVG Export Plug-In . SVG Version: 6.00 Build 0)  -->
<svg version="1.1" id="Layer_1" xmlns="http://www.w3.org/2000/svg" xmlns:xlink="http://www.w3.org/1999/xlink" x="0px" y="0px"
	 viewBox="0 0 664 598" style="enable-background:new 0 0 664 598;" xml:space="preserve">
<style type="text/css">
	.st0{clip-path:url(#SVGID_00000084531249449827074780000000516185404894407565_);}
	.st1{clip-path:url(#SVGID_00000172406271826246113870000002281394696543990445_);fill:#FFD7DC;}
	.st2{clip-path:url(#SVGID_00000172406271826246113870000002281394696543990445_);}
	.st3{fill:#D8989D;}
	.st4{fill:none;stroke:#FFFFFF;stroke-width:1.5925;stroke-miterlimit:10;}
	.st5{fill:#84030A;}
	.st6{fill:#F8AE38;}
	.st7{fill:#9F0102;}
	.st8{fill:none;stroke:#F8AE38;stroke-width:3.4104;stroke-miterlimit:10;}
	.st9{fill:none;}
	.st10{fill:#191513;}
	.st11{fill:#FAD4AF;}
	.st12{fill:#E09D6C;}
	.st13{fill:#EAC2A0;}
	.st14{fill:#F2CBAF;}
	.st15{fill:#828282;}
	.st16{fill:#CECECE;}
	.st17{fill:#A5A5A5;}
	.st18{fill:#F2B186;}
	.st19{fill:#462F2E;}
	.st20{fill:#26211D;}
</style>
<g>
	<defs>
		<path id="SVGID_1_" d="M47.4,459.9c22.6,77.9,187.9,104,297.4,102.4c110.7-1.6,224.1-3.3,277.9-84.8c64.7-98,1-247.9-76.8-326.8
			C481.1,85,362.6,24,283.6,64c-37.6,19-78.2,66.9-101.4,110.2c-13.5,25.3-14.1,36-31.6,60.2c-29.5,40.7-48.5,38.7-74.2,76.4
			c-22.9,33.6-29.4,66.7-31.6,82.3C41.3,418.6,43,444.8,47.4,459.9z"/>
	</defs>
	<clipPath id="SVGID_00000070076888928650714360000000698424557896860324_">
		<use xlink:href="#SVGID_1_"  style="overflow:visible;"/>
	</clipPath>
	<g style="clip-path:url(#SVGID_00000070076888928650714360000000698424557896860324_);">
		<g>
			<defs>
				<path id="SVGID_00000163772376641231993420000011025569904983408803_" d="M604.8,251.5c-11.3-20.1-24.5-37.8-38.1-52.8
					c-0.1,0.2-0.3,0.5-0.4,0.7c0.1-0.2,0.3-0.5,0.4-0.7c-2.5-2.8-50.1-42.9-50.1-42.9l0,0c-1.3-1-2.6-2.1-4-3.2
					C474.6,120.8,445.7,63,340,71.8c-49.2,4.1-81.5,24.1-104.5,51c-6.9,8.1-13.1,16.9-18.6,26.2c-16.9,28.3-28.2,60.8-39.6,89.2
					c-15.2,37.5-69.4,43.4-89,86.9c-17.8,20.5-27.1,52.9-31.8,76.4c-3.4,16.9-4.3,29.2-4.3,29.2c-5.3,118.2,100.9,208.7,210.4,241.5
					c24.5,7.3,49.2,11.8,72.8,13c11.2,0.6,22.1,0.4,32.6-0.5c2.1-0.2,4.3-0.4,6.5-0.7c1.5-0.2,3-0.3,4.5-0.5
					c1.3-0.2,2.5-0.3,3.8-0.5c0.7-0.1,1.4-0.2,2.1-0.3c0.7-0.1,1.3-0.2,2-0.3c35.5-5.5,75.2-17.8,111.7-36.9
					c0.2-0.1,0.4-0.2,0.5-0.3c58.8-30.8,109-79,118.5-143.4c1.3-9,12.9-36.4,16.6-75.9C641.7,348.6,620.2,286.3,604.8,251.5z
					 M523,205.4c0,0,0.1,0.1,0.1,0.1C523,205.5,523,205.4,523,205.4z"/>
			</defs>
			<clipPath id="SVGID_00000104701308068322884870000009401254039734676666_">
				<use xlink:href="#SVGID_00000163772376641231993420000011025569904983408803_"  style="overflow:visible;"/>
			</clipPath>
			<path style="clip-path:url(#SVGID_00000104701308068322884870000009401254039734676666_);fill:#FFD7DC;" d="M604.8,251.5
				c-11.3-20.1-24.5-37.8-38.1-52.8c-2.5-2.8-50.1-42.9-50.1-42.9c-1.3-1-2.6-2.1-4-3.2C474.6,120.8,445.7,63,340,71.8
				c-49.2,4.1-81.5,24.1-104.5,51c-6.9,8.1-13.1,16.9-18.6,26.2c-16.9,28.3-28.2,60.8-39.6,89.2c-15.2,37.5-69.4,43.4-89,86.9
				c-17.8,20.5-27.1,52.9-31.8,76.4c-3.4,16.9-4.3,29.2-4.3,29.2c-5.3,118.2,100.9,208.7,210.4,241.5c24.5,7.3,49.2,11.8,72.8,13
				c11.2,0.6,22.1,0.4,32.6-0.5c2.1-0.2,4.3-0.4,6.5-0.7c1.5-0.2,3-0.3,4.5-0.5c1.3-0.2,2.5-0.3,3.8-0.5c0.7-0.1,1.4-0.2,2.1-0.3
				c0.7-0.1,1.3-0.2,2-0.3c35.5-5.5,75.2-17.8,111.7-36.9c0.2-0.1,0.4-0.2,0.5-0.3c58.8-30.8,109-79,118.5-143.4
				c8.5-42.1,20.2-66.7,20.2-129.6C640,330.5,604.8,251.5,604.8,251.5z"/>
			<g style="clip-path:url(#SVGID_00000104701308068322884870000009401254039734676666_);">
				<path class="st3" d="M192.9,251c0,1.5-1,2.8-2.2,2.8s-2.2-1.3-2.2-2.8c0-1.5,1-2.8,2.2-2.8S192.9,249.5,192.9,251z"/>
				<path class="st3" d="M211.6,256.3c0,1.5-1,2.8-2.2,2.8c-1.2,0-2.2-1.3-2.2-2.8c0-1.5,1-2.8,2.2-2.8
					C210.6,253.5,211.6,254.8,211.6,256.3z"/>
				<path class="st3" d="M274,172.6c0,1.5-1,2.8-2.2,2.8c-1.2,0-2.2-1.3-2.2-2.8c0-1.5,1-2.8,2.2-2.8C273,169.8,274,171,274,172.6z"
					/>
				<path class="st3" d="M565.1,421.1c0,1.5-1,2.8-2.2,2.8s-2.2-1.3-2.2-2.8c0-1.5,1-2.8,2.2-2.8S565.1,419.6,565.1,421.1z"/>
				<path class="st3" d="M572.7,413.5c0,1.5-1,2.8-2.2,2.8c-1.2,0-2.2-1.3-2.2-2.8s1-2.8,2.2-2.8C571.7,410.7,572.7,412,572.7,413.5
					z"/>
				<ellipse class="st3" cx="203.6" cy="241.9" rx="3.6" ry="4.5"/>
				<path class="st3" d="M200,408.3c0,3.2-2.1,5.8-4.6,5.8c-2.6,0-4.6-2.6-4.6-5.8c0-3.2,2.1-5.8,4.6-5.8
					C197.9,402.4,200,405,200,408.3z"/>
				<path class="st3" d="M462.3,158.8c0,3.2-2.1,5.8-4.6,5.8c-2.6,0-4.6-2.6-4.6-5.8s2.1-5.8,4.6-5.8
					C460.3,152.9,462.3,155.6,462.3,158.8z"/>
				<ellipse class="st4" cx="230" cy="140.1" rx="14.8" ry="18.7"/>
				<ellipse class="st3" cx="52.1" cy="469.8" rx="30.3" ry="38.2"/>
				<g>
					<g>
						<path class="st3" d="M244.8,213.9h224.9v143.4H244.8V213.9z M465.5,218H248.9v135h216.6V218z"/>
					</g>
					<g>
						<path class="st3" d="M339.2,296.4c0,0,5.4,5.7,16.6,7.1v19.8h3v-12.8l2.1,0.5v12.3h1.7v-14.6h28.3v14.6h1.7v-12.6l2.6-0.6
							v13.2h2.1v-19.6c12-1,17-6.6,17-6.6c0.5-1.4-0.8-1.7-0.8-1.7s-0.5,0.2-1.3,0.4c-0.1-0.2-0.2-0.4-0.3-0.7
							c-0.1-0.5,0.1-0.4,0.4-0.7c0.6-0.8-0.6-0.8-1.1-0.5c-0.7,0.4-0.8,0.9-0.6,1.6c0,0.2,0.1,0.4,0.1,0.7c-0.3,0.1-0.7,0.2-1.1,0.3
							c-0.1-0.3-0.3-0.5-0.3-0.8c-0.1-0.5,0.1-0.4,0.3-0.7c0.6-0.8-0.6-0.8-1.1-0.5c-0.7,0.4-0.7,1-0.6,1.6c0.1,0.2,0.1,0.5,0.1,0.7
							c-0.4,0.1-0.8,0.1-1.2,0.2c-0.1-0.2-0.2-0.4-0.2-0.6c-0.1-0.5,0.1-0.4,0.4-0.7c0.6-0.8-0.6-0.8-1.1-0.5
							c-0.7,0.4-0.8,0.9-0.6,1.6c0,0.1,0.1,0.3,0.1,0.4c-1.5,0.2-2.9,0.2-3.8-0.2c-3-1-4.8-7.5-5.1-8.4c4-1.9,6.5-4.2,6.5-4.2
							c0.4-1-0.6-1.2-0.6-1.2s-0.3,0.2-0.8,0.4c0.1-0.5,0.3-1.5,0.2-1.6c-0.6-0.5-0.9,1.3-1.3,2.2c-0.2,0.1-0.4,0.2-0.5,0.3
							c0.1-0.5,0.3-1.6,0.2-1.7c-0.6-0.5-0.9,1.3-1.4,2.2c-0.2,0.1-0.3,0.1-0.5,0.2c0.1-0.5,0.3-1.6,0.2-1.7
							c-0.6-0.5-0.9,1.2-1.3,2.2c-2.1,0.8-4.2,1.4-5.3,1c-1.3-0.5-2.3-2.5-3-4.1c0.1-1.2,0.2-2.1,1.5-2.4c-0.1-0.4-0.7-0.6-1.1-0.7
							c1.9-0.9-0.7-2.4-0.8-1.4c0.5,0.5-0.6,0.9-0.7,0.2c-0.1-0.5,0.5-0.6,0.6-1c-0.8,0-1.8,0.5-1.7,1.5c0.1,0.4,0.7,0.5,0.4,1
							c-0.2,0.3-0.8,0.3-1.1,0.3h0H368c-0.1,0-0.1,0-0.2-0.1c-0.3-0.5,0.3-0.5,0.4-0.9c0.2-1-0.9-1.5-1.6-1.5c0.1,0.4,0.7,0.5,0.6,1
							c-0.1,0.7-1.2,0.3-0.7-0.2c0-1.1-2.6,0.5-0.8,1.4c-0.4,0-1,0.3-1,0.7c0.9,0.2,1.2,0.7,1.4,1.3c-0.5,1.7-1.6,4.3-3.1,4.6
							c-1.7,0.3-3.6,0-5.3-0.5c-0.4-1-0.6-2.3-1.2-1.9c-0.1,0.1,0,1,0.1,1.5c-0.2-0.1-0.4-0.1-0.6-0.2c-0.4-1-0.7-2.6-1.3-2.1
							c-0.1,0.1,0,1.1,0.1,1.6c-0.2-0.1-0.4-0.2-0.6-0.3c-0.5-0.9-0.7-2.6-1.3-2.1c-0.1,0.1,0,1,0.1,1.6c-0.6-0.3-0.9-0.5-0.9-0.5
							s-0.9,0.2-0.6,1.2c0,0,2.5,2.3,6.6,4.1c-0.3,1.3-1.8,6.9-4.6,7.9c-1.4,0.5-4.1,0.2-6.7-0.3c0-0.1,0-0.1,0-0.2
							c0.1-0.7,0.1-1.3-0.6-1.6c-0.5-0.3-1.6-0.3-1.1,0.5c0.2,0.3,0.4,0.3,0.4,0.7c0,0.1-0.1,0.2-0.1,0.3c-0.4-0.1-0.8-0.2-1.2-0.3
							c0-0.1,0-0.2,0.1-0.3c0.2-0.7,0.1-1.3-0.6-1.6c-0.5-0.3-1.6-0.3-1.1,0.5c0.2,0.3,0.4,0.3,0.3,0.7c0,0.2-0.1,0.3-0.2,0.4
							c-0.4-0.1-0.8-0.2-1.2-0.3c0-0.1,0-0.2,0.1-0.3c0.1-0.7,0.1-1.3-0.6-1.6c-0.5-0.3-1.6-0.3-1.1,0.5c0.2,0.3,0.4,0.3,0.4,0.7
							c0,0.1-0.1,0.2-0.1,0.3c-0.3-0.1-0.4-0.1-0.4-0.1S338.6,295,339.2,296.4z M358.7,305.7v-1.7h2.1v1.7H358.7z M392.6,305.7v-1.7
							h2.6v1.7H392.6z M362.6,305.7v-1.7h28.3v1.7H362.6z"/>
						<path class="st3" d="M365.7,247c-0.2,0.3-0.4,0.6-0.5,0.9c0.2,0,0.6,0,0.8,0c-0.3,0.2-0.4,0.4-0.5,0.7c1.2,0,2.7-0.6,4-0.8
							c1.6-0.3,3.2-0.4,4.9-0.4c0.3,0,0.6,0,0.8,0c-0.1,0-0.3,0.1-0.4,0.1c0.1,0.2,0.1,1,0.3,1.3c-0.8,0.1-2.2-0.2-2.5,0.5
							c-0.4,1,0.6,1.6,1.4,1.9c-0.4,0.7-1,1.3-1.3,1.9c0.5-0.1,1.2,0.2,1.7,0.1c-0.6,0.4-0.9,0.9-1.1,1.5c2.7,0.2,5.8-0.9,8.7-1.2
							c0,0,0.1,0,0.1,0c2,2.8,5.6,4.9,8.9,4.9c2.1,2,4.6,3.3,7.4,3.7l-0.6,0.3c0.6-0.1,1.2-0.1,1.8-0.2c0.5,0,1,0,1.5,0
							c0,0,0.1,0,0.1-0.1c13.6,0,12.1,12.8,12.1,12.8c-0.3,1.6-0.4,3.1-0.4,4.4c-2.1,0.5-7.7,1-14.2-5c0.4-0.4,0.8-0.8,0.9-1.4
							c0.1-0.4,0.1-0.8,0-1.3c0.8,0.1,1.6,0.1,2.3,0c2.4-0.4,0.8-2.3-0.5-3.2c0.2-0.1,0.3-0.3,0.5-0.3c-1-1.5-3.6-0.8-5.1-1.1
							c0.3-0.2,0.5-0.6,0.7-0.9c-0.4,0-0.8-0.1-1.1-0.1c0.3-0.2,0.3-0.5,0.5-0.7c-0.9-0.2-1.7,0.3-2.5,0.6c-0.8-0.9-3.1-0.3-4.2-0.3
							c-1.1,0.1-2.3,0.2-3.2,1c-1,0.9-0.9,1.3-2.3,1.7c0.1,0.2,0.1,0.7,0.2,0.8c-0.5,0.1-1.5-0.1-1.6,0.5c-0.2,0.7,0.5,1.1,1,1.2
							c-0.2,0.5-0.6,0.9-0.8,1.3c0.3-0.1,0.8,0.1,1.1,0c-0.4,0.3-0.6,0.6-0.7,1c1.3,0,2.6-0.4,4-0.8c4.6,4.2,9.5,4.2,10.9,4.1
							c2.9,2.9,6.7,5.7,10.4,5.4l3.7-0.5c0.8,7.7,5.9,9.8,5.9,9.8c3.4,1.1,5.8,3.1,7.5,5.4c4.4,6.2-1.7,16.4-3.8,20.2
							c-3.2,5.8-5.7,6.9-7.2,12.3c-1.1,4.1-0.9,7.7-0.6,10.3c1,0.4,2.6,0.8,4.5,0.8c1,0,1.9-0.2,2.6-0.3c-0.4-1.6-0.8-3.9-0.5-6.7
							c0.3-3.6,1.6-6.3,2.5-7.9c4.8,1.9,11.2,6.3,14.4,6.2c0.9,0,1.7-0.3,2.5-0.8c0,0,0.1,0,0.1,0c1.7-0.8,3.7,0.5,5.3-0.6
							c1.1-0.8,1.7-1.9,2.6-2.9c0.9,0.2,1.7,0.3,2.5,0.3c2.5-0.2,1-2.2-0.2-3.2c0.2-0.1,0.3-0.2,0.5-0.3c-0.8-1.6-3.6-1.1-4.9-1.6
							c0.3-0.2,0.6-0.6,0.8-0.8c-0.4,0-0.8-0.2-1.1-0.2c0.4-0.2,0.4-0.5,0.6-0.7c-0.9-0.2-1.7,0.1-2.6,0.4c-0.7-1-3.1-0.6-4.2-0.7
							c-1.1,0-2.3,0-3.2,0.7c-1,0.8-1,1.2-2.4,1.4c0.1,0.2,0.1,0.7,0.2,0.9c-0.5,0-1.4-0.2-1.7,0.3c-0.3,0.6,0.4,1.1,0.9,1.3
							c-0.3,0.4-0.7,0.8-0.9,1.3c0.4,0,0.8,0.1,1.1,0.1c-0.4,0.2-0.6,0.6-0.8,1c1.8,0.2,3.9-0.5,5.8-0.6c1.4-0.1,2.7-0.1,4,0
							c-0.9,1-2.7,2.5-5,3c-3.2,0.7-9.8-4.9-13.2-6.3c2.1-3.3,4.7-6.1,6.9-8.8c0,0,0,0,0,0c4.1-2,9.1-3,9.1-3
							c10.1-0.2,17.5-5.2,22.2-9.7c0.1,0.1,0.2,0.1,0.2,0.1c0.7-0.6,1.5-0.8,2.3-1v-0.7c-0.4,0-0.8,0.1-1.2,0.2
							c0.4-0.5,0.8-0.9,1.2-1.3v-2.4c-0.5,0.6-1,1.1-1.5,1.7c-0.4-0.4-0.8-0.9-0.8-1.5c-0.1-0.4-0.1-0.7-0.1-1.1
							c0.8,0,1.6-0.1,2.4-0.1v-10.5c-0.9-0.1-2-0.1-3,0c-0.2-1.1-1.6-2.3-2.9-3c0.2-0.1,0.5-0.4,0.7-0.5c-1.6-2.2-5.6-0.8-7.7-1.2
							c0.4-0.4,0.7-1,1-1.4c-0.6,0.1-1.2-0.1-1.7,0c0.5-0.4,0.5-0.8,0.7-1.1c-1.4-0.2-2.5,0.5-3.7,1.1c-1.3-1.3-4.7-0.2-6.4,0
							c-1.6,0.2-3.4,0.6-4.7,1.8c-1.4,1.4-1.2,2.1-3.3,2.7c0.2,0.2,0.3,1,0.4,1.3c-0.8,0.2-2.2,0-2.4,0.9c-0.3,1,0.8,1.6,1.6,1.7
							c-0.3,0.7-0.8,1.4-1.1,2.1c0.5-0.1,1.2,0,1.7-0.1c-0.6,0.4-0.8,1-0.9,1.6c2.7-0.2,5.7-1.7,8.4-2.3c0.4-0.1,0.8-0.2,1.2-0.3
							c0.4,2.8,0.6,6.1-1.6,7.9c-1.6,1.4-3.9,2-5.7,3c-0.6,0.3-1.2,0.7-1.7,1.1c-1-4.7-4-9-9.5-10.6c-6.6-2-8.7-7-9.3-10.9
							c2.8,0,5.5-0.2,8.2-0.9c2.4-0.6,4.8-1.7,6.4-3.7c1.1-1.4,1.7-3.1,2.3-4.7c1.8-0.3,3.6-0.3,5-1.7c1.4-1.4,2.7-3,4.3-4.1
							c1.3,0.2,2.6,0.4,3.8,0.3c3.2-0.3,1.2-3-0.4-4.2c0.2-0.1,0.5-0.3,0.7-0.4c-0.1-0.1-0.1-0.2-0.2-0.3c2-0.3,4.1-0.4,6.2-0.5
							c1.7-0.1,3.5,0.4,5.2,0.2c2.4-0.4,0.8-2.3-0.5-3.2c0.2-0.1,0.3-0.3,0.5-0.3c-1-1.5-3.6-0.8-5.1-1.1c0.3-0.2,0.5-0.6,0.7-0.9
							c-0.4,0-0.8-0.1-1.1-0.1c0.3-0.2,0.3-0.5,0.5-0.7c-0.4-0.1-0.7,0-1,0c-0.1-1-1.3-2.3-2.5-3c0.2-0.1,0.5-0.3,0.7-0.4
							c-1.3-2.1-5-1.1-7-1.5c0.4-0.3,0.7-0.9,1-1.2c-0.5,0-1.1-0.2-1.6-0.1c0.5-0.3,0.5-0.7,0.7-1c-1.3-0.2-2.4,0.4-3.5,0.9
							c-1.1-1.3-4.3-0.5-5.8-0.3c-1.5,0.1-3.2,0.3-4.4,1.4c-1.3,1.2-1.2,1.8-3.2,2.3c0.1,0.2,0.2,0.9,0.3,1.2
							c-0.7,0.1-2-0.1-2.3,0.7c0,0,0,0,0,0c-1-0.4-2.8,0-3.8,0.1c-1.1,0.1-2.3,0.2-3.2,1c-1,0.9-0.9,1.3-2.3,1.7
							c0.1,0.2,0.1,0.7,0.2,0.8c-0.5,0.1-1.5-0.1-1.6,0.5c-0.2,0.7,0.5,1.1,1,1.2c-0.2,0.5-0.6,0.9-0.8,1.3c0.3-0.1,0.8,0.1,1.1,0
							c-0.4,0.3-0.6,0.6-0.7,1c1.8,0,3.8-0.9,5.7-1.2c2-0.3,4-0.5,6.1-0.6c-0.5,0.5-0.9,0.8-2.1,1c0.1,0.2,0.1,0.9,0.2,1.1
							c-0.7,0.1-1.9-0.2-2.2,0.5c-0.4,0.8,0.5,1.4,1.2,1.6c-0.4,0.6-0.8,1.1-1.2,1.7c0.5,0,1.1,0.1,1.5,0.1c-0.5,0.3-0.8,0.8-1,1.3
							c1.5,0.1,3.1-0.2,4.7-0.6c-0.1,1.4,0.1,2.8,0.4,4c0.3,1.4,0.8,3,1.9,4.1c-2.9,4-8.8,4.7-13.5,4.7c-0.1-1.8,0.2-3,0.2-3
							c0.3-9.3-6.3-11.9-10.8-12.6c0,0,0,0,0,0c-3.4-1.2-7.4-0.3-10.5-2.3c-0.2-0.1-0.4-0.3-0.6-0.4c1.4-1.1,2.4-2.8,3.2-4.4
							c1.1,0.2,2.2,0.3,3.2,0.2c3.7-0.4,1.4-3.4-0.5-4.8c0.3-0.1,0.5-0.3,0.8-0.4c-1.1-2.2-4.6-1.7-6.8-2c0.8-0.1,1.6-0.3,2.4-0.3
							c3.3-0.3,6.4-0.1,9.7,0c2.4,0.1,4.8,1.1,7.2,0.9c3.4-0.3,1.4-3.1-0.4-4.4c0.2-0.1,0.5-0.3,0.7-0.4c-1.1-2.2-4.9-1.5-6.9-2.1
							c0.4-0.3,0.8-0.8,1.1-1.1c-0.5,0-1-0.3-1.6-0.2c0.5-0.3,0.5-0.7,0.8-0.9c-1.3-0.3-2.4,0.1-3.5,0.5c-1-1.3-4.3-0.8-5.8-0.9
							c-1.5,0-3.2,0-4.5,1c-1.4,1.1-1.3,1.7-3.4,2c0.1,0.2,0.1,1,0.2,1.2c-0.8,0-2-0.3-2.3,0.4c-0.4,0.9,0.5,1.5,1.2,1.7
							c0,0,0,0-0.1,0.1c-1.5-0.7-4.2-0.3-5.6-0.3c-1.7,0-3.5,0.1-4.8,1.2c-0.1,0.1-0.3,0.2-0.4,0.3c-0.1-0.1-0.2-0.2-0.4-0.3
							c0.1-0.1,0.2-0.2,0.3-0.2c-0.7-1.1-2.5-0.5-3.5-0.7c0.2-0.2,0.3-0.4,0.5-0.6c-0.3,0-0.5-0.1-0.8-0.1c0.2-0.2,0.2-0.4,0.4-0.5
							c-0.6-0.1-1.2,0.2-1.8,0.4c-0.6-0.6-2.2-0.2-2.9-0.2c-0.8,0.1-1.6,0.2-2.2,0.7c-0.7,0.6-0.6,0.9-1.6,1.2
							c0.1,0.1,0.1,0.5,0.2,0.6c-0.4,0.1-1,0-1.1,0.3C364.9,246.6,365.4,246.9,365.7,247z M439.1,256.3c0.5-0.3,0.5-0.6,0.8-0.9
							c-1.2-0.3-2.3,0.2-3.4,0.6c-0.7-0.9-2.6-0.9-4.1-0.8c-0.1-0.1-0.3-0.3-0.4-0.4c0.2,0,0.5-0.1,0.7-0.1c3.2-0.5,6.4-0.7,9.7-0.8
							c0.1,0,0.2,0,0.4,0c-0.1,0.1-0.2,0.1-0.2,0.2c-1,0.9-0.9,1.3-2.3,1.7c0.1,0.1,0.1,0.6,0.2,0.8
							C440,256.4,439.6,256.3,439.1,256.3z M433.3,268.1c0.7-1.8,1.5-3.5,3-4.8c0.9,0,1.8,0,2.8,0.1c0.4,0,0.7,0,1.1,0.1
							c-1.1,1-2,2.2-3.2,3.2C435.8,267.6,434.6,267.9,433.3,268.1z M427.9,266.8c-0.1-1-0.1-2,0-3c0.6-0.1,1.2-0.2,1.8-0.3
							c1.2-0.1,2.3-0.2,3.4-0.2c-1.5,2.5-2.1,5.7-3.7,8.2C428.3,270.6,428,268.1,427.9,266.8z M447.7,287.8
							c-0.6,1.9-1.1,3.8-2.8,4.8c0-1.4-0.2-2.9-0.4-4.3C445.5,288.1,446.6,287.9,447.7,287.8z M458.7,296.3
							c-0.6,1.6-1.2,3.3-2.9,4.1c0.2-1.1,0.3-2.3,0.3-3.6C457,296.6,457.9,296.4,458.7,296.3z M454,305.8c0.6-1.1,1.3-2.6,1.7-4.7
							c0,0,0,0,0,0c2.4-0.7,2.9-2.9,3.7-4.9c1.1-0.1,2.1-0.2,3.2-0.2c0,0.4,0.1,0.9,0.2,1.3c0.2,0.6,0.6,1.1,1,1.5
							C460.3,302.3,457,304.5,454,305.8z M434.5,309c0.5-2.2,0.7-4.5,0.4-6.9c0.1-0.1,0.1-0.2,0.2-0.2c0.8-0.8,1.8-1.2,2.8-1.7
							c1.9-0.9,4.2-1.6,5.6-3.3c0.6-0.8,1-1.7,1.2-2.7c0,0,0,0,0.1,0c3.1-1,3.3-4,4.3-6.6c1.3-0.1,2.5-0.3,3.8-0.4
							c0.5,0,1-0.1,1.5-0.1c-1.4,1.2-1.5,2-3.8,2.4c0.1,0.3,0.2,1.2,0.3,1.5c-0.9,0.1-2.5-0.2-2.9,0.7c-0.5,1.1,0.7,1.9,1.6,2.1
							c-0.5,0.8-1.1,1.5-1.5,2.2c0.6-0.1,1.4,0.2,2,0.1c-0.7,0.4-1,1-1.2,1.7c1.9,0.1,4-0.4,6-0.8c-0.2,2.5-1.1,7-3.8,9.9
							c-3.7,1-6.8,0.9-9.3,0.6C438.8,307.1,436.2,308,434.5,309z M441.9,329.8c1.1-1,2-2.2,2.6-3.1c0.5,0,1,0.1,1.5,0.1
							c0.6,0,1.3,0.2,1.9,0.3c-0.8,1-1.5,2.2-2.6,2.6C444.2,330.2,443,329.8,441.9,329.8z M394.5,271.6c0.7,0.9,1.6,2.2,2.8,3.5
							c-4.1,0-7.3-1.7-8.9-2.8c0.3-0.1,0.7-0.2,1-0.2C391.2,271.8,392.8,271.7,394.5,271.6z M397.9,273.9c-0.7-0.7-1.4-1.5-2.2-2.3
							c0.2,0,0.5,0,0.7,0c0.8,0,1.7,0.1,2.5,0.2c0,0.3,0,0.6-0.1,0.9C398.7,273.1,398.3,273.5,397.9,273.9z M389.3,253.3
							c1,0,2.1,0,3.1,0.1c1.1,0,2.1,0.2,3.2,0.4c-0.8,1.4-1.7,2.8-3,3.7C391.3,256.2,390.2,254.8,389.3,253.3z M382.6,253.4
							c1.5-0.1,3-0.2,4.5-0.2c0.7,1.4,1.5,2.7,2.5,3.8C387.1,256.9,384.2,255.4,382.6,253.4z"/>
						<path class="st3" d="M294.9,293.5c-0.1-0.2-0.4-0.1-0.5-0.2c0-0.1,0-0.2,0.1-0.3c-0.5-0.1-0.4-0.3-0.7-0.5
							c-0.3-0.2-0.7-0.3-1-0.3c-0.4,0-1.1-0.2-1.3,0.1c-0.3-0.1-0.5-0.2-0.8-0.2c0.1,0.1,0.1,0.2,0.2,0.2c-0.1,0-0.2,0-0.4,0
							c0.1,0.1,0.1,0.2,0.2,0.3c-0.5,0.1-1.3-0.1-1.6,0.3c0.1,0,0.1,0.1,0.2,0.1c-0.1,0-0.1,0.1-0.2,0.1c-0.1,0-0.1-0.1-0.2-0.2
							c-0.6-0.5-1.5-0.5-2.2-0.5c-0.6,0-1.9-0.2-2.6,0.1c0,0,0,0,0,0c0.3-0.1,0.7-0.4,0.6-0.8c-0.1-0.3-0.7-0.2-1.1-0.2
							c0.1-0.1,0.1-0.4,0.1-0.6c-0.9-0.1-0.9-0.4-1.5-0.9c-0.6-0.4-1.4-0.5-2-0.5c-0.7,0-2.2-0.2-2.6,0.4c-0.5-0.2-1-0.4-1.6-0.2
							c0.1,0.1,0.1,0.3,0.4,0.4c-0.2,0-0.5,0.1-0.7,0.1c0.2,0.1,0.3,0.4,0.5,0.5c-0.9,0.3-2.6-0.1-3.1,1c0.1,0,0.2,0.1,0.3,0.2
							c-0.8,0.6-1.7,1.9-0.2,2c1.1,0.1,2.2-0.3,3.3-0.4c1.5-0.1,2.9-0.1,4.4,0c0.4,0,0.7,0.1,1.1,0.2c-1,0.1-2.6-0.1-3.1,0.9
							c0.1,0,0.2,0.1,0.4,0.2c-0.9,0.7-1.9,2-0.2,2.2c0.5,0,1,0,1.5-0.1c0.4,0.7,0.8,1.5,1.5,2c-0.1,0.1-0.2,0.1-0.3,0.2
							c-1.4,0.9-3.3,0.5-4.8,1.1c0,0,0,0,0,0c-2.1,0.3-5.1,1.5-5,5.8c0,0,0.1,0.6,0.1,1.4c-2.2,0-4.9-0.3-6.2-2.2
							c0.5-0.5,0.7-1.2,0.8-1.9c0.1-0.6,0.2-1.2,0.2-1.8c0.7,0.1,1.5,0.3,2.1,0.3c-0.1-0.2-0.2-0.4-0.4-0.6c0.2,0,0.5-0.1,0.7,0
							c-0.1-0.3-0.4-0.5-0.5-0.8c0.3-0.1,0.7-0.4,0.5-0.7c-0.1-0.3-0.7-0.2-1-0.2c0.1-0.1,0.1-0.4,0.1-0.5c-0.6-0.1-0.7-0.2-1-0.5
							c0.9,0,1.8,0.1,2.8,0.3c0.8,0.1,1.8,0.5,2.6,0.5c0-0.2-0.1-0.3-0.3-0.5c0.2,0,0.4,0,0.5,0c-0.1-0.2-0.3-0.4-0.4-0.6
							c0.2,0,0.6-0.2,0.5-0.5c-0.1-0.2-0.5-0.2-0.8-0.2c0.1-0.1,0.1-0.3,0.1-0.4c-0.7-0.2-0.6-0.4-1.1-0.8c-0.4-0.3-0.9-0.4-1.4-0.5
							c-0.4,0-1.3-0.2-1.7,0c0,0,0,0,0,0c-0.1-0.3-0.7-0.2-1-0.3c0.1-0.1,0.1-0.4,0.2-0.5c-0.9-0.2-0.8-0.5-1.5-1
							c-0.5-0.5-1.3-0.6-2-0.6c-0.7-0.1-2.2-0.4-2.7,0.2c-0.5-0.2-1-0.5-1.6-0.4c0.1,0.1,0.1,0.3,0.3,0.5c-0.2,0-0.5,0.1-0.7,0
							c0.2,0.2,0.3,0.4,0.5,0.6c-0.9,0.2-2.6-0.3-3.2,0.7c0.1,0,0.2,0.1,0.3,0.2c-0.5,0.3-1.1,0.9-1.1,1.4c-0.2,0-0.3,0-0.5,0
							c0.1,0.1,0.1,0.2,0.2,0.3c-0.2,0-0.4,0-0.5,0c0.1,0.1,0.2,0.3,0.3,0.4c-0.7,0.1-1.9-0.2-2.3,0.5c0.1,0,0.2,0.1,0.2,0.1
							c-0.6,0.4-1.4,1.3-0.2,1.5c0.8,0.1,1.6-0.1,2.4-0.1c1,0,1.9,0.1,2.8,0.2c0,0-0.1,0.1-0.1,0.1c0.1,0,0.2,0.1,0.3,0.2
							c-0.8,0.6-1.7,1.8-0.2,1.9c0.6,0.1,1.2,0,1.7-0.1c0.8,0.5,1.3,1.2,2,1.9c0.7,0.6,1.5,0.7,2.3,0.8c0.3,0.8,0.6,1.5,1.1,2.2
							c0.7,0.9,1.8,1.4,2.9,1.7c1.2,0.3,2.5,0.4,3.8,0.4c-0.3,1.8-1.2,4.1-4.3,5c-2.5,0.8-3.9,2.7-4.4,4.9c-0.2-0.2-0.5-0.3-0.8-0.5
							c-0.9-0.5-1.9-0.7-2.6-1.4c-1-0.8-0.9-2.3-0.7-3.6c0.2,0,0.4,0.1,0.6,0.1c1.3,0.3,2.6,1,3.9,1c-0.1-0.3-0.2-0.5-0.4-0.7
							c0.2,0.1,0.6,0,0.8,0.1c-0.1-0.3-0.3-0.6-0.5-1c0.4-0.1,0.9-0.3,0.7-0.8c-0.1-0.4-0.7-0.3-1.1-0.4c0.1-0.1,0.1-0.5,0.2-0.6
							c-1-0.3-0.9-0.6-1.5-1.2c-0.6-0.6-1.4-0.7-2.1-0.8c-0.8-0.1-2.3-0.6-2.9,0c-0.5-0.3-1.1-0.6-1.7-0.5c0.1,0.2,0.1,0.4,0.3,0.5
							c-0.3,0-0.5,0-0.8,0c0.2,0.2,0.3,0.5,0.5,0.6c-1,0.2-2.8-0.5-3.5,0.5c0.1,0.1,0.2,0.2,0.3,0.2c-0.6,0.3-1.2,0.9-1.3,1.4
							c-0.5,0-1,0-1.4,0v4.8c0.4,0,0.7,0,1.1,0c0,0.2,0,0.3,0,0.5c0,0.3-0.2,0.5-0.4,0.7c-0.2-0.2-0.5-0.5-0.7-0.8v1.1
							c0.2,0.2,0.3,0.4,0.5,0.6c-0.2,0-0.4-0.1-0.5-0.1v0.3c0.4,0.1,0.8,0.2,1.1,0.4c0,0,0.1,0,0.1,0c2.1,2.1,5.5,4.4,10.2,4.5
							c0,0,2.3,0.5,4.2,1.4c0,0,0,0,0,0c1,1.2,2.2,2.5,3.1,4c-1.5,0.6-4.6,3.2-6,2.9c-1.1-0.2-1.9-0.9-2.3-1.4c0.6,0,1.2,0,1.9,0
							c0.9,0.1,1.8,0.4,2.6,0.3c-0.1-0.2-0.2-0.3-0.3-0.4c0.2,0,0.4-0.1,0.5,0c-0.1-0.2-0.3-0.4-0.4-0.6c0.2-0.1,0.5-0.3,0.4-0.6
							c-0.1-0.2-0.5-0.1-0.8-0.1c0-0.1,0-0.3,0.1-0.4c-0.7-0.1-0.6-0.3-1.1-0.6c-0.4-0.3-1-0.3-1.5-0.3c-0.5,0-1.6-0.1-1.9,0.3
							c-0.4-0.1-0.8-0.3-1.2-0.2c0.1,0.1,0.1,0.2,0.3,0.3c-0.2,0-0.3,0.1-0.5,0.1c0.1,0.1,0.2,0.3,0.4,0.4c-0.6,0.2-1.9,0-2.3,0.7
							c0.1,0,0.2,0.1,0.2,0.1c-0.6,0.5-1.2,1.4-0.1,1.5c0.4,0,0.8,0,1.2-0.1c0.4,0.4,0.7,1,1.2,1.3c0.7,0.5,1.6-0.1,2.4,0.3
							c0,0,0,0,0.1,0c0.3,0.2,0.7,0.3,1.1,0.4c1.4,0.1,4.4-2,6.6-2.8c0.4,0.7,1,2,1.1,3.6c0.1,1.3,0,2.4-0.2,3.1
							c0.3,0.1,0.7,0.1,1.2,0.1c0.9,0,1.6-0.2,2.1-0.4c0.2-1.2,0.3-2.8-0.3-4.7c-0.7-2.5-1.8-3-3.3-5.6c-1-1.8-3.8-6.4-1.7-9.3
							c0.8-1.1,1.9-2,3.4-2.5c0,0,2.3-1,2.7-4.5l1.7,0.2c1.7,0.1,3.4-1.1,4.7-2.5c0.6,0,2.9,0,5-1.9c0.6,0.2,1.2,0.4,1.8,0.4
							c0-0.2-0.1-0.3-0.3-0.5c0.2,0,0.4,0,0.5,0c-0.1-0.2-0.3-0.4-0.4-0.6c0.2,0,0.6-0.2,0.5-0.5c-0.1-0.2-0.5-0.2-0.8-0.2
							c0.1-0.1,0.1-0.3,0.1-0.4c-0.7-0.2-0.6-0.4-1.1-0.8c-0.4-0.3-0.9-0.4-1.4-0.5c-0.5,0-1.6-0.3-1.9,0.1
							c-0.4-0.2-0.7-0.4-1.2-0.3c0.1,0.1,0.1,0.2,0.2,0.3c-0.2,0-0.4,0-0.5,0c0.1,0.1,0.2,0.3,0.3,0.4c-0.7,0.1-1.9-0.2-2.3,0.5
							c0.1,0,0.2,0.1,0.2,0.1c-0.6,0.4-1.4,1.3-0.2,1.5c0.3,0.1,0.7,0,1.1,0c0,0.2,0,0.4,0,0.6c0,0.2,0.2,0.5,0.4,0.6
							c-3,2.8-5.5,2.5-6.5,2.3c0-0.6-0.1-1.3-0.2-2c0,0-0.7-5.9,5.5-5.9c0,0,0,0,0,0c0.2,0,0.5,0,0.7,0c0.3,0,0.5,0,0.8,0.1
							l-0.3-0.1c1.3-0.2,2.4-0.8,3.4-1.7c1.5,0,3.2-1,4.1-2.2c0,0,0,0,0.1,0c1.3,0.1,2.7,0.6,4,0.6c-0.1-0.3-0.2-0.5-0.5-0.7
							c0.2,0,0.5-0.1,0.8,0c-0.2-0.3-0.4-0.6-0.6-0.9c0.4-0.1,0.8-0.4,0.6-0.8c-0.2-0.4-0.8-0.2-1.2-0.2c0.1-0.1,0.1-0.5,0.1-0.6
							c-0.1,0-0.1,0-0.2,0c0.1,0,0.3,0,0.4,0c0.8,0,1.5,0.1,2.2,0.2c0.6,0.1,1.2,0.4,1.8,0.4c0-0.1-0.1-0.2-0.2-0.3
							c0.1,0,0.3,0,0.4,0c-0.1-0.1-0.2-0.3-0.3-0.4C294.8,293.8,295,293.7,294.9,293.5z M260.4,298.2c0-0.1,0.1-0.3,0.1-0.4
							c-0.7-0.2-0.6-0.4-1.1-0.8c0,0-0.1-0.1-0.1-0.1c0.1,0,0.1,0,0.2,0c1.5,0,2.9,0.1,4.4,0.4c0.1,0,0.2,0,0.3,0.1
							c-0.1,0.1-0.1,0.1-0.2,0.2c-0.7,0-1.6-0.1-1.9,0.4c-0.5-0.2-1-0.4-1.5-0.3c0.1,0.1,0.1,0.3,0.3,0.4
							C260.8,298.1,260.6,298.2,260.4,298.2z M262,302.8c-0.5-0.5-0.9-1-1.4-1.4c0.2,0,0.3,0,0.5,0c0.4,0,0.8,0,1.3,0
							c0.7,0.6,1,1.4,1.4,2.2C263.1,303.4,262.5,303.3,262,302.8z M265.4,305.1c-0.7-1.2-1-2.6-1.7-3.8c0.5,0,1,0,1.6,0.1
							c0.3,0,0.5,0.1,0.8,0.1c0.1,0.5,0,0.9,0,1.4C266.1,303.5,266,304.7,265.4,305.1z M258.6,312.7c-0.1,0.6-0.2,1.3-0.2,2
							c-0.8-0.5-1-1.3-1.3-2.2C257.6,312.6,258.1,312.7,258.6,312.7z M253.2,316.6c0,0.6,0.1,1.2,0.1,1.7c-0.8-0.4-1-1.1-1.3-1.9
							C252.4,316.5,252.8,316.5,253.2,316.6z M249.7,317.5c0.2-0.2,0.3-0.4,0.4-0.7c0.1-0.2,0.1-0.4,0.1-0.6c0.5,0,1,0.1,1.5,0.1
							c0.4,0.9,0.6,1.9,1.7,2.3c0,0,0,0,0,0c0.2,1,0.5,1.7,0.8,2.1C252.8,320.2,251.3,319.2,249.7,317.5z M259.8,321.5
							c-1.2,0.1-2.6,0.2-4.3-0.3c-1.2-1.3-1.6-3.4-1.7-4.5c0.9,0.2,1.9,0.4,2.7,0.4c-0.1-0.3-0.2-0.6-0.6-0.8c0.3,0,0.6-0.1,0.9,0
							c-0.2-0.3-0.5-0.7-0.7-1c0.4-0.1,0.9-0.4,0.7-1c-0.2-0.4-0.9-0.3-1.3-0.3c0.1-0.1,0.1-0.6,0.2-0.7c-1.1-0.2-1.1-0.5-1.7-1.1
							c0.2,0,0.5,0,0.7,0c0.6,0.1,1.2,0.1,1.7,0.2c0.4,1.2,0.5,2.6,2,3c0,0,0,0,0,0c0.1,0.4,0.3,0.9,0.5,1.2
							c0.6,0.8,1.7,1.1,2.6,1.5c0.4,0.2,0.9,0.4,1.3,0.8c0,0,0.1,0.1,0.1,0.1c-0.1,1.1-0.1,2.2,0.2,3.1
							C262.3,321.8,261.2,321.4,259.8,321.5z M258.2,331.7c-0.5-0.2-0.8-0.7-1.2-1.2c0.3-0.1,0.6-0.1,0.9-0.1c0.2,0,0.5,0,0.7,0
							c0.3,0.4,0.7,1,1.2,1.4C259.2,331.8,258.7,331.9,258.2,331.7z M283.7,305.3c0.1,0,0.3,0.1,0.4,0.1c-0.7,0.5-2.2,1.3-4.1,1.3
							c0.5-0.6,1-1.2,1.3-1.6C282.2,305.2,283,305.2,283.7,305.3z M279.4,305.6c0-0.1,0-0.3,0-0.4c0.4,0,0.8-0.1,1.1-0.1
							c0.1,0,0.2,0,0.3,0c-0.3,0.4-0.7,0.7-1,1.1C279.7,306,279.5,305.8,279.4,305.6z M282.3,298.6c-0.6-0.4-1-1-1.4-1.7
							c0.5-0.1,1-0.2,1.5-0.2c0.5,0,0.9,0,1.4,0C283.4,297.4,282.9,298.1,282.3,298.6z M283.7,298.5c0.5-0.5,0.8-1.1,1.1-1.8
							c0.7,0,1.4,0,2.1,0.1C286.2,297.7,284.8,298.4,283.7,298.5z"/>
					</g>
					<path class="st3" d="M465.5,353.1c-4.4-2.1-11.2-5.1-19.7-8.1c-2.8-1-7.2-2.4-15.8-5.1c-17.6-5.5-22.2-6.8-26.5-11.7
						c-2.3-2.7-2.3-3.8-4.7-5.5c-4.5-3.1-9.3-2.1-18.5-1.1c-13.1,1.4-19.9,2-27.3,0.4c-5.4-1.2-4.5-2-12.4-4.4
						c-8.5-2.6-16.4-4.9-24.5-4c-10.1,1.2-9.8,6.3-27.9,14.5c-10.7,4.8-12.5,3.8-19.9,8c-9.4,5.4-15.6,12.2-19.3,17
						C321.1,353.1,393.3,353.1,465.5,353.1z"/>
				</g>
			</g>
		</g>
	</g>
	<g style="clip-path:url(#SVGID_00000070076888928650714360000000698424557896860324_);">
		<g>
			<g>
				<g>
					<g>
						<path class="st5" d="M256.5,570.4c-2.2-60.5-9.7-115.1-19.5-162.9c1.6-8.2,3.1-16.4,4.7-24.7c4.5,3,9.2,6.4,14.1,10.2
							c3.9,3.1,7.6,6.2,10.9,9.2c2.8,1.7,5.6,3.4,8.4,5.1c1.4,3,2.7,5.9,4.1,8.9c0.1,3.9,0.2,9.8,0.4,16.9
							c1.4,52.4,5,85.8,7.3,116.4c1.7,22.8,3.5,55.7,3.5,96.5c-11.3-1.5-22.5-2.9-33.8-4.4C257.3,619,257.4,595.2,256.5,570.4z"/>
						<path class="st6" d="M193.5,355.4c4,0.3,8.6,1,13.6,2.2c4.1,1,7.8,2.2,11,3.4c-0.3,1.7-0.7,3.5-1,5.2c-7.5-1-15-2.1-22.5-3.1
							C194.3,360.5,193.9,358,193.5,355.4z"/>
						<path class="st7" d="M132.8,648.5c-1.4-129.3-1.7-223.7-1.1-232.8c0.1-2.3,0.5-8.6,4.8-13.7c1.3-1.6,2.9-2.9,4.6-4.1
							c17.8-11.6,35.7-23.2,53.5-34.8c3.8-0.2,8.3-0.1,13.4,0.7c10.2,1.6,18,5.4,23.1,8.4c14.6,11.7,29.3,23.5,43.9,35.2
							c-0.8,16.9-1.5,33.9-2,51c-2.2,65.6-2.8,129.7-2,192"/>
						<path class="st8" d="M232.2,381.8c4.4,21.6,8.3,45.4,10.9,71.3c2.9,28.5,2.8,48,3.1,91.3c0.2,24.1,0.6,60.8,1.2,106.9"/>
						<path class="st8" d="M225.8,424c7.5-0.5,15-1,22.5-1.5"/>
						<path class="st8" d="M233,487.4c7.3-0.8,14.6-1.6,21.9-2.3"/>
						<path class="st8" d="M233.5,600.4c8.9-0.8,17.8-1.7,26.7-2.5"/>
						<path class="st6" d="M204.2,350.8c3.8,0.7,10,2.5,16.4,6.8c5.3,3.6,8.8,7.7,10.9,10.6c0.8,4.5,1.5,8.9,2.3,13.4
							c-0.6,0.1-1.1,0.1-1.7,0.2c-0.7-3.1-3-11.1-10.3-17.9c-9.2-8.5-20-9.1-22.8-9.1C200.8,353.5,202.5,352.1,204.2,350.8z"/>
						<g>
							<path class="st9" d="M234.1,395.3"/>
						</g>
						<g>
							<path class="st10" d="M184,345.4c1,1,2.7,2.4,5,3.5c0.6,0.3,1.8,0.9,3.4,1.3c2.7,0.6,5.1,0.5,6.9,0.1
								c-0.4-3-1.7-9.6-6.8-16.1c-4.7-6.1-10.3-8.9-13.1-10.2C181,331.1,182.5,338.2,184,345.4z"/>
							<g>
								<path class="st11" d="M232.3,383.2c-1.9-2.3-4-4.7-6.3-7.1c-2.1-2.3-4.2-4.4-6.3-6.4c-0.9-0.8-1.9-1.5-3-2.3
									c-0.8-0.6-1.7-1.1-2.6-1.6c-3-1.7-5.9-3-8.6-4c-3.4-1.2-6.6-1.7-9.2-2.1c0.2-1.5,0.4-3.3,0.3-5.1c0-0.8-0.1-1.7-0.3-2.6l0,0
									c0-0.2,0-0.3-0.1-0.4c-0.2-1.2-0.4-2.3-0.7-3.3c-0.2-0.6-0.3-1.1-0.5-1.6c8.9,1.3,17.9,2.5,26.8,3.8
									c2.6,0.4,5.1,0.7,7.7,1.1l0.1,0l0,0.1c0,1.1,0,2.2-0.1,3.3c-0.1,3.8-0.1,7.5-0.2,11.3l0,0.2c0,0.7,0,1.5,0,2.2
									c0,1.7-0.1,3.4-0.1,5c0.5,0.8,0.9,1.6,1.3,2.6C231.8,378.9,232.2,381.3,232.3,383.2z"/>
								<path class="st12" d="M229.7,351.7c0,1.1,0,2.2-0.1,3.3c-0.1,3.8-0.1,7.5-0.2,11.3l0,0.2c-1.1,0.1-2.4,0.1-3.5,0.1
									c-3.3-0.1-6.3-0.6-9.1-1.5c-4.5-1.4-8.2-3.7-11.1-5.7c-0.9-0.7-1.8-1.4-3.6-2.7c-2.3-1.8-4.3-3.4-5.7-4.6l0,0
									c0-0.2,0-0.3-0.1-0.4c-0.2-1.2-0.4-2.3-0.7-3.3c-0.2-0.6-0.3-1.1-0.5-1.6c8.9,1.3,17.9,2.5,26.8,3.8
									C224.6,350.9,227.1,351.3,229.7,351.7z"/>
								<path class="st11" d="M216.3,234.9c-39.1,0.6-44.7,27.2-44.5,42.4c0.1,6.8,0.2,11.7,1.2,18.9c1.1,8.2,2.6,18.8,7.8,30.6
									c3.8,8.7,9.1,20.7,21.7,29.2c6.3,4.3,11.4,6.3,13.5,6.9c6.4,1.9,11.2,1.7,12.2,1.7c2.3-0.1,5.1-0.3,7.6-1.4
									c5.1-2.2,6.4-7.4,12-18.1c2.9-5.6,6.2-10.8,8.2-18.8c5.1-20.7,6.3-35.1,6-50.3C261.8,260.8,255.4,234.4,216.3,234.9z"/>
								<path class="st10" d="M222.8,231.7c11-2.6,18.7-0.1,22,1.3c17.3,7.1,23.6,27.6,23.4,41.5c-0.2,12.8-6.1,23.4-7,23.2
									c-0.5-0.1,0.5-4-0.7-10.4c-0.6-3.1-1.5-5.6-2.1-7.2c-1-2.5-2.2-4.6-3.3-6.3c-1.2,8.7-2.1,10.7-2.7,10.7
									c-0.9,0-0.8-5.1-3.3-11.7c-2.5-6.5-6.9-12.9-8.9-12.3c-2.2,0.7-0.9,9.3-2.4,9.6c-0.8,0.1-1.2-2.4-3.9-5.2
									c-1.3-1.4-3.4-3.5-5.4-3.3c-2.1,0.3-3,3.3-6.2,12c-3.6,10-4.4,11.8-5.4,11.8c-1,0-2.6-1.8-4.5-10.9
									c-1.5,2.3-2.3,4.5-5.7,10.7c-1.7,3.2-3.4,5.9-4,6c-1,0.2-3.7-4.1-5.6-9.1c-0.8,1.5-1.9,3.8-2.2,6.7
									c-0.3,2.9,0.4,3.7,0.4,6.1c0,4.8-2.9,5.8-5.5,12.4c-2.4,6.2-1.5,9.5-3.2,10.1c-2.5,0.8-6.7-5.9-8.5-8.9
									c8.5,27.9,9.6,36.8,7.7,37.6c-2.4,1-11.3-10.9-16.6-23.2c-0.1-0.3-0.6-1.4-1.1-2.6c-3.7-9.4-12.6-36.2-0.6-61.5
									c3.6-7.5,7.8-12.5,10-14.8c4.4-4.7,13-13.9,26.5-15.3C207.3,228.1,214.3,227.9,222.8,231.7z"/>
							</g>
							<path class="st8" d="M187.6,377.5"/>
							<g>
								<g>
									<path d="M199.9,297.6c7.6-3,16.7-2.2,23.6,2.2c0,0-1.3,2.1-1.3,2.1c-4.9-2.9-10.6-4.6-16.4-4.6c-1.9,0-3.9,0.2-5.9,0.5
										L199.9,297.6L199.9,297.6z"/>
								</g>
							</g>
							<g>
								<g>
									<path d="M259.4,303.5c-6.2-2.8-13.5-1.6-18.8,2.4c0,0-1.4-1.8-1.4-1.8c4.3-3.4,10.2-4.7,15.5-3.1c1.7,0.5,3.3,1.3,4.8,2.3
										C259.5,303.3,259.4,303.5,259.4,303.5L259.4,303.5z"/>
								</g>
							</g>
							<path class="st12" d="M218.8,344.9c-0.2,0.6,5.6,4.5,12.3,3.8c4.7-0.5,8.6-3.1,8.4-3.7c-0.2-0.5-3.6,1-9.2,1.2
								C223.2,346.5,219,344.4,218.8,344.9z"/>
							<g>
								<path class="st12" d="M225.8,331.7c3.1-1.6,6.8-1.6,9.9-0.2C232.6,333,228.9,333.1,225.8,331.7L225.8,331.7z"/>
							</g>
							<g>
								<path d="M242.1,314.7c0,0,0,0-0.1-0.1c-0.2-0.2-0.4-0.3-0.6-0.5c0.3-0.4,0.6-0.9,1.1-1.4c0.1-0.1,0.7-0.6,1.3-0.9
									c0.8-0.4,1.3-0.3,3.2-0.2c2.5,0.2,2.7,0.1,3.2,0.5c0.7,0.5,1.6,1.5,1.4,2.3c-0.1,0.3-0.2,0.4-0.5,0.7
									c-0.9,0.9-1.9,0.8-1.9,0.9c0,0.1,1.2,0.6,2.4-0.2c0.8-0.4,1.2-1.2,1.5-1.6c0.4,0.1,0.9,0.3,1.5,0.6c0.8,0.3,1.1,0.5,1.1,0.4
									c0.1-0.2-1.1-1.4-2.4-2.3c-0.5-0.4-1.3-0.9-2.4-1.3c-0.5-0.2-1.1-0.4-3.2-0.5c-1-0.1-2.3-0.2-3.9-0.1
									c-0.6,0.3-1.6,0.8-2.6,1.8c-1.2,1.1-2.1,2.3-2,2.5c0.1,0.1,0.4-0.3,1.1-0.3c0.3,0,0.3,0.1,0.7,0.1
									C241.5,314.9,242.1,314.8,242.1,314.7z"/>
								<path d="M249.6,311.8c0.2,0.3,0.5,0.8,0.5,1.4c0.1,0.8-0.2,1.8-0.9,2.3c-0.3,0.2-0.6,0.3-0.7,0.4c-0.6,0.1-1,0-1.4,0
									c-0.3-0.1-0.9-0.2-1.4-0.8c-0.2-0.3-0.7-0.8-0.7-1.7c0-0.9,0.4-1.6,0.5-1.8c0.6,0,1.3,0,2,0c0.6,0,1.2,0.1,1.5,0.1
									C249.2,311.7,249.4,311.8,249.6,311.8z"/>
							</g>
							<g>
								<path d="M219.5,312c0,0,0,0,0.2-0.1c0.3-0.1,0.6-0.2,0.9-0.3c-0.2-0.4-0.5-1-1-1.6c-0.1-0.1-0.6-0.8-1.3-1.3
									c-0.9-0.6-1.6-0.7-3.9-1.1c-3.1-0.5-3.4-0.7-4.2-0.4c-1.1,0.3-2.4,1-2.4,1.9c0,0.3,0.2,0.5,0.4,0.8c0.9,1.1,2.1,1.3,2.1,1.4
									c0,0.1-1.7,0.2-3-0.8c-0.8-0.6-1.2-1.5-1.3-1.9c-0.5,0-1.2,0-2.1,0.1c-1.1,0.1-1.5,0.2-1.5,0.1c-0.1-0.2,1.8-1.1,3.7-1.6
									c0.7-0.2,1.9-0.5,3.4-0.6c0.6,0,1.6,0,4.1,0.3c1.3,0.2,3,0.5,5,0.9c0.7,0.5,1.7,1.2,2.7,2.4c1.2,1.4,2,2.8,1.8,3
									c-0.1,0.1-0.5-0.4-1.3-0.6c-0.4-0.1-0.4,0-0.9-0.1C220.2,312.4,219.4,312.1,219.5,312z"/>
								<path d="M212.4,307.2c-0.2,0.3-0.4,0.8-0.5,1.4c-0.1,1.5,0.9,2.5,1,2.6c0.9,0.9,2.1,0.9,2.8,1c0.5,0,1.3,0,2.2-0.4
									c0.4-0.2,1.2-0.6,1.5-1.5c0.3-0.9,0-1.8-0.1-2c-0.8-0.2-1.8-0.4-2.7-0.6C215.1,307.4,213.7,307.2,212.4,307.2z"/>
							</g>
							<polyline class="st9" points="195.8,365.8 195.8,365.1 195.7,363.6 195.7,362.9 195.7,362.3 							"/>
							<path class="st11" d="M181.3,300.2c-1.5-3.8-7.1-7.1-9.4-5.7c-2.3,1.4-3.4,8.1-2.3,12.2c0.6,2.2,1.3,8.6,6.5,13
								c2.7,2.3,7.6,5,9.6,3.4c0.9-0.7,1.1-2.3-0.5-9.1C184.1,308.5,182.6,303.8,181.3,300.2z"/>
						</g>
						<path class="st6" d="M193.5,355.4c10,4.4,20.1,8.8,30.1,13.1c2.9,5,5.9,10,8.8,15c-0.4,0.5-0.8,1-1.2,1.5
							c-3.3-3.6-8.6-8.6-16.2-12.8c-9-5-17.4-6.7-22.7-7.3C192.8,361.8,193.2,358.6,193.5,355.4z"/>
					</g>
					<path class="st7" d="M136.7,436.3c20.6,37,41.3,73.9,61.9,110.9c34-37.3,68-74.6,102-111.9c-20.1-11-40.1-22-60.2-33
						c-12.9,20.2-25.8,40.4-38.7,60.7c-4.9-8.1-9.7-16.2-14.6-24.3"/>
					<g>
						<g>
							<path class="st13" d="M264.4,394.6c2.3-8.4,12.4-24.8,13.6-26.4c0.6-0.7,1.2-1.6,1.9-2.9c0,0,3.6-6.3,8.7-11.1
								c0.1-0.1,0.3-0.2,0.5-0.3c0.6-0.4,1.4-0.2,1.8,0.5c0.3,0.5,0.4,0.9,0.6,1.4c1.2,4-1.7,9.1-6.9,13c-0.1,0.1-0.2,0.1-0.2,0.2
								C277.7,377.5,271.1,386,264.4,394.6z"/>
							<path class="st14" d="M268.9,386.7c-0.7-0.7,4.2-7.2,13.3-19.2c0.1-0.2,2.5-3,7.2-8.7c2.6-3.2,5-6,9.1-8.5
								c0.1-0.1,0.3-0.2,0.4-0.2c0.7-0.4,1.6-0.2,2,0.5c0.2,0.4,0.4,0.9,0.5,1.2c1.2,4.1-1.7,9.2-7,13.1c0,0-0.1,0.1-0.1,0.1
								C274.9,383.5,269.6,387.4,268.9,386.7z"/>
							<path class="st11" d="M248,420.1c2.6-2,6.5-5.3,9.8-10.4c5.1-7.6,4.3-12.2,8.7-20.6c4-7.8,9.1-12.5,13-16.1
								c4.4-4.1,11.7-10.7,23.1-13.9c1-0.3,2-0.5,2.9-0.7c1.8-0.4,3.1,1.7,2.1,3.1c-0.8,1.1-1.9,2.3-3.1,3.3
								c-3.4,2.7-5.3,2.2-9.5,5.3c-1.5,1.1-4.2,3.2-6.3,6.9c-0.7,1.2-2.4,4.5-2.4,9c0,1.4,0.2,2.7,0.4,3.5c3.3-2.6,5.6-5,7-6.7
								c1.5-1.7,2.2-3.3,4.5-5.9c2.4-2.8,4.1-4.8,5.1-4.4c1.2,0.5,1.2,4.3,0.2,7.5c-1.1,3.4-2.8,4.1-5.9,9c-0.6,0.9-1.4,2.4-3,5.5
								c-4.9,9.2-5,10.3-6.9,12.6c-1.6,1.9-4.2,4.4-8.8,6.3c-0.8,0.9-1.6,1.9-2.4,2.9c-4.8,6.3-7.8,12.8-9.7,18.6
								C260.4,429.9,254.2,425,248,420.1z"/>
						</g>
					</g>
					<g>
						<path class="st5" d="M132.7,429.2c22,36.7,46.8,79.5,68,116.7c0,0-4-0.5-4-0.5c23.7-26.3,52.9-58.1,76.9-84.2
							c0,0,25.8-27.9,25.8-27.9s0.7,4.5,0.7,4.5c-20.1-11.5-40.1-23-60.1-34.6c0,0,3.2-0.8,3.2-0.8c-11.9,18.1-28.5,43.4-40.4,61.1
							c0,0-1.2,1.8-1.2,1.8l-1-1.8c-7.6-13.3-18.5-32.1-25.8-45.3c8.2,12.6,19.9,31.1,28.1,44c0,0-2.2,0-2.2,0
							c11-18.1,27.2-44,38.5-62.3c0,0,1.2-1.9,1.2-1.9c10.8,5.9,21.6,11.9,32.4,17.9c11.2,6.2,22.4,12.4,33.5,18.7
							c-14,15.3-39.8,43.4-53.9,58.6c-15.9,17.3-38,40.8-54.2,58.2c0,0-1.6-3-1.6-3C175.9,510.7,152.4,467.2,132.7,429.2
							L132.7,429.2z"/>
					</g>
					<path class="st6" d="M227.3,419.1c20.6,11.4,41.2,22.8,61.7,34.3c5.7-6.3,11.5-12.5,17.2-18.8c-22-12.6-43.9-25.3-65.9-37.9
						C236,404.2,231.7,411.7,227.3,419.1z"/>
				</g>
			</g>
		</g>
		<g>
			<g>
				<g>
					<g>
						<path class="st15" d="M520.2,392.2c-1.3-0.9-5.1-3.6-10.6-3.4c-8.2,0.3-12.9,6.8-13.5,7.6c0.6,2.9,1.3,5.7,1.9,8.6
							c7.8-1.3,15.6-2.6,23.5-3.9C521,398.1,520.6,395.1,520.2,392.2z"/>
						<path class="st16" d="M430.2,686.2c45,0.7,90,1.4,135,2.1c0.9-31.9,2-60.3,3.1-84.5c0.5-10.9,0.9-19.1,2.1-28.1
							c0.6-4.6,1.2-7.8,1.5-9.5c3-14.1,5.6-29.7,7.2-46.7c3-31.2,2-59-0.5-82.3c-17.8-14-35.9-25.8-54.1-35.8
							c-0.4-0.2-0.9-0.5-1.3-0.7c-0.6-0.3-1.2-0.5-1.8-0.7c-0.7-0.3-1.5-0.5-2.3-0.8l0,0c0,0,0,0-0.1,0c-0.9,0.9-1.9,1.7-2.7,2.5
							c-7.2,6.3-12.7,9.9-17,11.8c-4.2,1.8-7.1,1.9-9.2,1.1c-0.1,0-0.2-0.1-0.3-0.1c-0.3-0.1-0.6-0.3-0.9-0.5
							c-0.3-0.2-0.5-0.4-0.7-0.6c-1.1-1-1.9-2.3-2.4-3.7c-1-3-0.9-6.2-0.8-6.9v0c0,0-0.1,0-0.1,0.1c-0.1,0.1-0.2,0.1-0.3,0.2
							c0,0,0,0,0,0c-2,1.4-3.9,3-5.8,4.8c-0.3,0.3-0.5,0.5-0.8,0.8c-1,1-1.6,1.7-1.7,1.7c-0.7,0.7-8,7.6-28.9,26.8
							c-4,40.4-6.5,59.6-8,69.6l-3.2,20.3c-0.6,4.7-1.2,12.8-1.7,22.4c-0.4,8.4-0.8,17.9-1.1,27.2c0,0.4,0,0.8,0,1.2
							c-0.1,3.1-0.2,7.3-0.3,11.3c-0.1,2.1-0.1,3.6-0.1,3.8C432.9,597.9,432.1,624.1,430.2,686.2z"/>
						<path class="st17" d="M513.4,654.2c5.4,1.6,12.8,3,21.4,2.5c22.2-1.3,37.2-14.3,42.2-19.1c3.6-38.9,5.6-81.6,4.9-127.3
							c-0.4-25.5-1.6-49.8-3.4-73c-10.4,0-38.9,1.2-52.9,20.9c-5.9,8.3-7,16.8-8.1,27.2c-5.3,51.5-4,79.2-4,79.2
							C514.5,586,515.2,616.4,513.4,654.2z"/>
						<path class="st11" d="M519.6,383.5c-0.1,3.6-0.4,6.7-0.9,9.4c-4.5,22.2-24.3,17.4-39.8,53.8c2.2-15.4,3.4-25.8,3.9-32.9
							c0.2-3.2,0.4-5.8,0.4-7.8c0-2.1-0.1-3.6-0.2-4.7c-0.1-1-0.8-5.4-0.4-11.2c0.2-3.2,0.7-5.6,0.9-6.2c1.6-6.5,16.3-12,35.4-14.2
							C519.4,375.1,519.7,379.6,519.6,383.5z"/>
						<path class="st18" d="M519.6,383.5c-0.1,3.6-0.4,6.7-0.9,9.4c-3.5,3.9-8,8.3-13.4,12c-1.4,1-3.6,2.2-6.6,2.6
							c-1.4,0.2-1.8,0-7.1-0.2c-3.7-0.1-3.4,0.2-5.4-0.2c-1.1-0.2-2.2-0.6-3.2-1.1c0-2.1-0.1-3.6-0.2-4.7c-0.1-1-0.8-5.4-0.4-11.2
							c0.2-3.2,0.7-5.6,0.9-6.2c1.6-6.5,16.3-12,35.4-14.2C519.4,375.1,519.7,379.6,519.6,383.5z"/>
					</g>
				</g>
				<path class="st17" d="M421.3,640.5c3.9-1.3,7.7-2.7,11.6-4c0.3-11.2,0.6-59.6,0.5-59.6c0,0-0.1,4.4-0.1,4.4c0,0-0.2-2.3,0.3-5.2
					c0.1-0.4,0.1-0.7,0.2-0.8c0.9-5.6,2.1-14.4,3-25.2c0.4-4.6,0.5-6.9,0.7-10.3c0.6-9.9,3.1-37.2,9.9-102.4c-2.2,5-4.5,10-6.7,15
					c-9.2,33.7-17.3,75-19.8,122.3C419.8,598.4,420.1,620.4,421.3,640.5z"/>
			</g>
			<path class="st15" d="M527.2,403.3c-3.2,2.7-7.6,6.6-12.5,11.6c-5.7,5.8-28.3,29.9-41.4,67.8c-7.2,20.8-8.3,48.4-10.3,102.9
				c-0.7,18.7-0.9,34-1,44.1c-4.4,0.3-8.8,0.7-13.2,1c0.4-14.8,1.1-34.7,2-58.3c2.6-68.4,3.9-77.4,7.9-89.5
				c10.6-32.7,29.7-56.3,37.3-65.6c9-10.9,17.6-19.3,24.2-25.2C522.5,395.9,524.8,399.6,527.2,403.3z"/>
			<path class="st15" d="M483.2,404.3c0.4,3.9,0.6,8.1,0.6,12.5c0.1,9.7-0.7,18.6-1.8,26.3c-3.5,3.8-7,7.6-10.5,11.4
				c1.5-5.6,2.9-12.8,3.3-21.1c0.4-8-0.2-15-1.1-20.6c1.2-1.5,2.7-3.4,4.9-5.2C480.2,406.2,481.8,405.1,483.2,404.3z"/>
			<g>
				<path class="st11" d="M450.3,335.9c0.7,11,3,19.9,5,26.3c0,0,6.2,19.8,17.7,33.5c1.7,2.1,3.5,3.6,4.2,4.3
					c3.1,2.7,5.6,4.9,9.2,5.6c2,0.4,1.6,0.1,5.3,0.2c5.3,0.2,5.7,0.4,7.1,0.2c3-0.4,5.1-1.6,6.6-2.6c14-9.8,22.3-23.7,22.3-23.7
					c4-6.8,9.4-17.3,12.7-31.6c1.3-3,7.8-19.2,0.3-36.6c-1.3-2.9-6-13.4-16.8-19.7c-20.9-12.1-52.9-2.3-66.4,18.8
					C451.5,320,450.4,329.7,450.3,335.9z"/>
				<g>
					<g>
						<path class="st19" d="M472.3,339.6c-6.6-3.1-14.4-3.5-21.4-1.2c3.4-1.5,7.1-2.4,10.9-2.6c3.8-0.2,7.7,0.3,11.3,1.6
							c0.6,0.2,1,0.9,0.8,1.5C473.7,339.5,473,339.9,472.3,339.6L472.3,339.6z"/>
					</g>
					<g>
						<path class="st19" d="M456.2,346.9c3.7-3.5,10.5-2.6,13.2,1.7C465.5,345.6,460.8,345,456.2,346.9L456.2,346.9z"/>
					</g>
					
						<ellipse transform="matrix(0.1671 -0.9859 0.9859 0.1671 42.5236 743.5972)" class="st19" cx="461.4" cy="346.6" rx="1.8" ry="1.6"/>
				</g>
				<g>
					<g>
						<path class="st19" d="M492.3,335.6c8.1-1.5,16.6-0.1,23.6,3.9c-3.7-1.6-7.6-2.5-11.5-2.7c-3.9-0.2-7.8,0.2-11.5,1.3
							C491.2,338.5,490.6,335.9,492.3,335.6L492.3,335.6z"/>
					</g>
					<g>
						<path class="st19" d="M509.1,347.3c-4.6-2.5-9.7-2.4-14.3,0.1C498.3,343.4,505.4,343.3,509.1,347.3L509.1,347.3z"/>
					</g>
					<circle class="st19" cx="500.3" cy="346.5" r="1.8"/>
				</g>
				<path class="st20" d="M484.2,313.5c-15.4,12-20.8,27.7-22.4,33.5c0.4-5.3,1.7-13.6,6.4-22.4c2.3-4.3,5-7.7,7.3-10.4
					c-2.9,2.1-6.7,5.3-10.2,10c-6.1,8.3-7.9,16.8-8.5,21.3c-0.2-3.4-0.1-9,2.1-15.3c1.7-4.9,4.1-8.6,6-11.1
					c-1.9,1.6-4.4,4.1-6.7,7.5c-3.4,5.3-4.5,10.4-4.9,13.4c-0.3-2.4-0.5-6,0.4-10.2c0.7-3.4,1.9-6,2.9-7.9c-1.3,2-2.6,4.4-3.7,7.3
					c-3,8.2-2.2,15.7-1.4,19.8c0,0,0,0,0,0c0.2,1.8,0.3,2.4,0.3,2.6c-0.7-2.1-1.4-4.3-2-6.4c-0.7-2.3-1.4-5.8-1.2-10.2
					c0.2-4.2,1.2-7.6,2.1-9.8c-0.7,1-1.4,2.2-2,3.8c-1.1,2.9-1.1,5.5-1,7.2c-0.3-1.7-0.6-4-0.5-6.7c0.2-3.3,0.9-5.9,1.6-7.8
					c-0.7,0.9-2.2,3-2.6,6c-0.4,2.3,0,4.2,0.3,5.3c-0.7-1.4-1.5-3.7-1.7-6.7c-0.2-2.8,0.2-5,0.6-6.5c-0.6,0.9-2,3.4-1.7,6.8
					c0.2,1.8,0.8,3.2,1.2,4.1c-1.2-2.1-2.8-5.4-3.9-9.5c-4.9-19.3,7.9-36.5,10.4-39.9c2.7-3.7,14.5-19.6,35.9-22.2
					c13.7-1.7,24.5,3,29,5.2c-2.7-2.1-9.8-6.9-20.2-7.7c-9.3-0.7-16.4,2.3-19.5,3.8c5.5-2.2,16.6-5.7,30.4-3.9
					c5.3,0.7,17.8,2.5,28.8,12.1c3,2.7,5.2,5.3,6.7,7.2c0.5,0.8,1.6,2.8,1.4,5.4c-0.4,4.7-4.5,7.1-4.9,7.3c1.2-0.9,3.6-2.5,6.9-2.8
					c7-0.8,11.9,4.3,12.5,5c-1.1-0.9-3.1-2.3-6-3c-3.9-1-7.2-0.1-8.5,0.4c2.2,1.3,5.1,3.4,7.5,6.8c1.9,2.7,5.2,8.6,3.7,23.7
					c-0.6,6.2-2.4,18-10.4,34.8c-6.6,14-14.3,24.5-15.1,24.1c-0.7-0.4,2.8-12.6,9-24.7c1.7-3.3,4.6-8.6,3.3-14.5
					c-0.3-1.2-1-4.3-3.3-5.1c-2.6-0.9-5.4,1.8-5.9,2.2c-1.7,1.6-2.2,3.2-3.4,6.8c-2.2,6.2-3.5,10-4.1,9.9c-0.5-0.1-0.2-3.2-0.1-9.1
					c0.2-11.1-0.6-13.2-1.5-14.7c-1.9-3.1-4.2-3.1-6.8-5.2c-3.3-2.7-6.5-8.5-5.3-22.1C505.9,302.1,495,305.1,484.2,313.5z"/>
				<path class="st18" d="M478.9,368.1c3.5,1.3,6.2,1.2,9.6-0.2C486.8,371.5,480.8,371.6,478.9,368.1z"/>
				<path class="st18" d="M474.7,383.8c0.1-0.4,0.9-0.7,8.1-0.6c10.3,0.2,15.5,0.3,15.6,1.3c0.2,1.4-6.4,4.7-13.3,4.1
					C479.5,388.1,474.4,385,474.7,383.8z"/>
				<path class="st20" d="M510,305.3c-0.6,0.8-1.4,2-2.1,3.5c-3.6,7.8-0.4,16.1,0.9,19.3c3,7.7,8.3,12.3,11.1,14.4
					c-1.9-1.8-4.4-4.7-6.5-8.7c-3.6-6.9-4-13.6-3.7-13.7c0.3-0.1,0.8,5.1,4.8,9.2c2.3,2.3,5,3.5,7.1,4.1c-1.6-1.1-5.6-4.1-7.7-9.6
					c-1.5-3.8-1.4-7.2-1.3-9.1c1.8-5.5,3.6-11,5.4-16.4c-4.6,0.4-13.4,1.8-22.4,7.5c-12.4,7.9-17.5,19.2-19.2,23.5
					c2.7-4.6,8.7-13.4,19.8-19.2C501.5,307.3,506.3,306,510,305.3z"/>
				<path class="st11" d="M525.2,354.3c0.5-3.6,1.6-6.5,3.9-12.4c1.9-4.9,2.9-6.8,5-8.4c0.9-0.7,2.6-1.9,4.5-1.6
					c3,0.5,4.4,4.5,4.7,5.3c2.8,7.8-3.7,17.6-9.9,22.5c-1.5,1.2-5.5,4.4-7.5,3.1C524.1,361.7,524.7,358,525.2,354.3z"/>
			</g>
		</g>
	</g>
</g>
</svg>
