<?xml version="1.0" encoding="utf-8"?>
<!-- Generator: Adobe Illustrator 26.0.1, SVG Export Plug-In . SVG Version: 6.00 Build 0)  -->
<svg version="1.1" id="Layer_1" xmlns="http://www.w3.org/2000/svg" xmlns:xlink="http://www.w3.org/1999/xlink" x="0px" y="0px"
	 viewBox="0 0 826 742" style="enable-background:new 0 0 826 742;" xml:space="preserve">
<style type="text/css">
	.st0{clip-path:url(#SVGID_00000106143847358176982410000009554626709101361322_);fill:#FFD7DC;}
	.st1{clip-path:url(#SVGID_00000106143847358176982410000009554626709101361322_);fill:#D8989D;}
	.st2{clip-path:url(#SVGID_00000106143847358176982410000009554626709101361322_);fill:#FFEEF1;}
	.st3{clip-path:url(#SVGID_00000106143847358176982410000009554626709101361322_);}
	.st4{fill:#BDDEEF;}
	.st5{fill:#F7B7C1;}
	.st6{clip-path:url(#SVGID_00000106143847358176982410000009554626709101361322_);fill:#7C4431;}
	
		.st7{clip-path:url(#SVGID_00000106143847358176982410000009554626709101361322_);fill:url(#SVGID_00000059298572448618573250000012273763420645863845_);}
	.st8{fill:#84030A;}
	.st9{fill:#F8AE38;}
	.st10{fill:#9F0102;}
	.st11{fill:none;stroke:#F8AE38;stroke-width:2.1407;stroke-miterlimit:10;}
	.st12{fill:none;}
	.st13{fill:#191513;}
	.st14{fill:#FAD4AF;}
	.st15{fill:#E09D6C;}
	.st16{fill:#828282;}
	.st17{fill:#CECECE;}
	.st18{fill:#A5A5A5;}
	.st19{fill:#F2B186;}
	.st20{fill:#462F2E;}
	.st21{fill:#26211D;}
	.st22{fill:none;stroke:#F8AE38;stroke-width:2.1518;stroke-miterlimit:10;}
	.st23{fill:#E89C2D;}
	.st24{fill:#F4CCAB;}
	.st25{fill:#DDB597;}
	.st26{fill:#1E1A14;}
	.st27{fill:#140408;}
	.st28{fill:#921F33;}
	.st29{fill:#CD3735;}
	.st30{fill:#FFFFFF;}
</style>
<g>
	<defs>
		<path id="SVGID_1_" d="M793.1,511.5c-0.8,2.8-1.7,5.8-2.7,9c-1.6,4.9-3.3,9.7-5,14.2c-0.2,0.4-0.3,0.8-0.5,1.2
			c-14.1,36.5-54.5,61.2-100,61.2c0,0-339,0-493.3,0c-49.8,0-95.2-24-116.8-61.8c-0.2-0.4-0.4-0.7-0.6-1.1
			c-4.3-7.6-8.5-15.5-12.4-23.7c-22.5-47-35.1-101.6,3.8-132.8c77.9-62.5,152.1-6.8,167-74.2c13.7-62.2,65.8-122.6,160.7-103.1
			c121.8,25,108.3,95.8,168.1,90.5c59.8-5.3,162.1-44.9,180.6,30.1c18.5,75-68.2,139.3-13,134C765.5,451.3,811.6,443.7,793.1,511.5z
			"/>
	</defs>
	<clipPath id="SVGID_00000047756292145138585740000003711609901995959198_">
		<use xlink:href="#SVGID_1_"  style="overflow:visible;"/>
	</clipPath>
	<path style="clip-path:url(#SVGID_00000047756292145138585740000003711609901995959198_);fill:#FFD7DC;" d="M814.9,511.8
		c-0.8,3-1.8,6-2.8,9.3c-1.7,5.1-3.5,10-5.3,14.7c-0.2,0.4-0.3,0.8-0.5,1.2c-14.9,37.8-57.7,63.4-105.8,63.4c0,0-358.8,0-522.1,0
		c-52.7,0-100.7-24.9-123.6-64.1c-0.2-0.4-0.4-0.7-0.6-1.1c-4.5-7.8-9-16.1-13.1-24.6c-23.8-48.7-37.2-105.4,4-137.8
		c82.4-64.9,161-7,176.7-77c14.5-64.5,69.7-127.1,170.1-107c128.9,25.9,114.7,99.3,177.9,93.8c63.3-5.5,171.5-46.6,191.1,31.2
		c19.6,77.8-72.1,144.5-13.7,139C785.7,449.4,834.5,441.4,814.9,511.8z"/>
	<path style="clip-path:url(#SVGID_00000047756292145138585740000003711609901995959198_);fill:#D8989D;" d="M344.5,396.9
		c-0.3-0.8-1.7-0.6-2.5-0.7c0.2-0.3,0.2-1.1,0.4-1.3c-2.2-0.5-2-1.2-3.5-2.5c-1.3-1.2-3.1-1.4-4.8-1.5c-1.7-0.1-5.2-1-6.4,0.4
		c-1.2-0.5-2.4-1.2-3.8-0.9c0.3,0.3,0.3,0.8,0.8,1.1c-0.6-0.1-1.2,0.1-1.7,0.1c0.4,0.4,0.7,1,1.1,1.3c-2.2,0.5-6.2-0.7-7.7,1.6
		c0.3,0.1,0.5,0.4,0.8,0.5c-0.3,0.2-0.5,0.4-0.8,0.6c-0.3-0.2-0.5-0.5-0.9-0.7c-3-2.3-7-2.6-10.5-2.6c-3.1,0-9-1-12.3,0.6
		c0-0.1-0.1-0.1-0.1-0.2c1.5-0.4,3.5-1.8,2.7-3.8c-0.7-1.5-3.4-0.9-5-1c0.3-0.5,0.3-2.1,0.5-2.6c-4.4-0.6-4.2-2-7.3-4.4
		c-2.7-2.1-6.4-2.2-9.7-2.2c-3.3,0.1-10.4-1.1-12.6,1.9c-2.5-0.9-5-1.9-7.7-1.2c0.6,0.6,0.7,1.5,1.8,2c-1.1,0-2.3,0.5-3.4,0.5
		c0.8,0.7,1.5,1.8,2.4,2.4c-4.2,1.3-12.5-0.3-15,4.6c0.5,0.2,1.1,0.6,1.6,0.8c-3.8,3-8.2,9.1-0.8,9.7c5.1,0.4,10.5-1.6,15.6-1.9
		c7.1-0.4,14-0.7,21.1-0.1c1.7,0.1,3.5,0.4,5.3,0.7c-4.8,0.7-12.3-0.4-14.8,4.3c0.6,0.2,1.1,0.7,1.7,0.9c-4.1,3.1-9.1,9.7-1.1,10.5
		c2.3,0.2,4.7,0,7.1-0.4c1.8,3.5,3.9,7.2,7,9.6c-0.5,0.3-0.9,0.7-1.4,1c-6.7,4.3-15.5,2.4-22.8,5.1c0,0,0,0-0.1,0
		c-9.9,1.5-24.3,7.2-23.5,27.4c0,0,0.5,2.7,0.3,6.6c-10.3,0-23.1-1.6-29.4-10.2c2.2-2.3,3.4-5.9,4-8.9c0.6-2.6,1-5.7,0.9-8.7
		c3.5,0.7,7,1.4,10.1,1.2c-0.4-1.1-0.9-2.1-2.1-2.8c1,0.1,2.3-0.3,3.3-0.2c-0.7-1.2-1.7-2.4-2.5-3.7c1.5-0.4,3.4-1.7,2.6-3.5
		c-0.6-1.5-3.2-0.9-4.8-1c0.3-0.5,0.3-2,0.5-2.5c-2.6-0.4-3.5-1.1-4.6-2.1c4.4,0.2,8.8,0.5,13.2,1.2c4,0.7,8.4,2.6,12.3,2.6
		c-0.2-0.9-0.6-1.6-1.4-2.2c0.7,0.1,1.7-0.1,2.5,0c-0.4-0.9-1.2-1.9-1.7-2.9c1.1-0.2,2.7-1.1,2.1-2.5c-0.4-1.2-2.4-0.9-3.6-1
		c0.2-0.4,0.3-1.5,0.5-1.8c-3.1-0.7-2.9-1.7-5-3.6c-1.8-1.7-4.5-2-6.9-2.2c-2-0.1-6-1.1-8.2-0.1c0,0,0-0.1,0-0.1
		c-0.6-1.6-3.3-1.2-4.9-1.4c0.3-0.5,0.5-2.1,0.7-2.6c-4.3-1-4-2.4-6.9-5c-2.6-2.3-6.2-2.8-9.5-3c-3.3-0.2-10.3-2-12.7,0.8
		c-2.4-1.1-4.8-2.3-7.6-1.9c0.5,0.7,0.5,1.5,1.6,2.2c-1.1-0.1-2.3,0.3-3.4,0.2c0.7,0.8,1.3,1.9,2.2,2.7c-4.3,0.9-12.4-1.4-15.3,3.2
		c0.5,0.2,1,0.7,1.5,1c-2.4,1.6-5.3,4.4-5.4,6.6c-0.7-0.2-1.5-0.2-2.3-0.1c0.4,0.5,0.4,1.1,1.1,1.6c-0.8-0.1-1.7,0.2-2.5,0.2
		c0.5,0.6,1,1.4,1.6,1.9c-3.1,0.7-9-1-11,2.3c0.4,0.2,0.7,0.5,1.1,0.7c-2.9,1.9-6.5,6-1.2,6.9c3.7,0.6,7.6-0.5,11.4-0.4
		c4.5,0.1,8.9,0.4,13.4,1c-0.1,0.2-0.3,0.4-0.4,0.6c0.5,0.2,1,0.6,1.5,0.8c-3.6,2.7-8,8.5-0.9,9.2c2.7,0.3,5.5-0.2,8.3-0.6
		c3.6,2.4,6.3,5.9,9.4,8.9c3.1,3,7,3.1,10.9,3.7c1.4,3.6,2.7,7.2,5.1,10.3c3.3,4.4,8.7,6.7,13.9,8.1c5.8,1.6,11.9,2.1,17.9,2
		c-1.2,8.5-5.8,19.4-20.2,23.7c-11.9,3.6-18.4,12.8-20.7,23.1c-1.1-0.9-2.3-1.6-3.7-2.3c-4.1-2.2-8.9-3.5-12.5-6.5
		c-4.8-4-4.4-11.1-3.5-17.2c0.9,0.2,1.8,0.4,2.7,0.6c6,1.4,12.5,4.6,18.3,5c-0.3-1.3-0.7-2.5-2-3.5c1.1,0.3,2.6,0,3.8,0.2
		c-0.6-1.5-1.6-3-2.3-4.5c1.7-0.2,4.1-1.4,3.4-3.6c-0.5-1.8-3.5-1.5-5.3-1.9c0.4-0.5,0.6-2.2,1-2.7c-4.6-1.4-4.2-2.8-7.2-5.9
		c-2.6-2.7-6.6-3.4-10.1-3.9c-3.6-0.5-11.1-2.8-13.9,0c-2.6-1.3-5.1-2.8-8.1-2.5c0.5,0.8,0.5,1.7,1.6,2.5c-1.2-0.2-2.6,0.2-3.8,0
		c0.8,0.9,1.3,2.2,2.3,3c-4.7,0.8-13.4-2.3-16.8,2.6c0.6,0.3,1,0.8,1.6,1.1c-2.6,1.5-5.7,4.2-6.2,6.5c-2.2-0.2-4.5-0.2-6.5,0.1V505
		c1.8,0,3.5,0.1,5.3,0.2c0,0.8,0,1.6-0.1,2.4c-0.2,1.3-1,2.3-1.8,3.2c-1.1-1.1-2.2-2.3-3.3-3.6v5.1c0.8,0.9,1.6,1.9,2.6,2.9
		c-0.8-0.2-1.7-0.3-2.6-0.4v1.5c1.9,0.2,3.6,0.7,5.1,2.1c0.1,0.1,0.3,0,0.4-0.1c10.2,9.9,26.3,20.8,48.3,21.2c0,0,10.9,2.1,19.7,6.4
		c0,0,0,0,0,0c4.8,5.7,10.4,11.9,14.9,19c-7.2,3-21.7,15.2-28.6,13.7c-5.1-1.2-8.9-4.4-10.9-6.6c2.9-0.1,5.8-0.1,8.8,0.1
		c4,0.3,8.6,1.7,12.5,1.3c-0.3-0.8-0.7-1.6-1.6-2.1c0.8,0.1,1.7-0.3,2.5-0.2c-0.5-0.9-1.4-1.8-2-2.7c1.1-0.3,2.5-1.4,1.9-2.7
		c-0.5-1.1-2.5-0.6-3.7-0.7c0.2-0.4,0.2-1.5,0.3-1.9c-3.2-0.4-3.1-1.4-5.3-3.1c-2-1.5-4.7-1.5-7-1.5c-2.4,0.1-7.5-0.7-9.1,1.5
		c-1.8-0.6-3.6-1.3-5.6-0.8c0.4,0.4,0.5,1,1.3,1.5c-0.8,0-1.7,0.4-2.5,0.4c0.6,0.5,1.1,1.3,1.8,1.7c-3,1-9-0.1-10.7,3.4
		c0.4,0.1,0.8,0.4,1.2,0.6c-2.7,2.2-5.8,6.6-0.5,7c1.8,0.1,3.7-0.2,5.5-0.5c1.9,2,3.4,4.6,5.7,6.2c3.4,2.4,7.8-0.4,11.5,1.3
		c0.1,0,0.2,0,0.3,0c1.6,1,3.4,1.6,5.3,1.7c6.9,0.3,20.9-9.3,31.3-13.5c5.1,9.6,7.6,20.9,3.5,34.7c0,0,8,5.4,16.5-5.9
		c0,0,2.7-33.8-17.1-47.2c-19.7-13.4-19.2-46.7,8-55.8c0,0,11.2-4.6,12.9-21.4l8.1,1.2c8.1,0.7,16.2-5.3,22.5-11.7
		c3,0.2,13.7,0.2,23.8-8.9c2.9,0.8,5.9,1.7,8.7,1.7c-0.2-0.9-0.6-1.6-1.4-2.2c0.7,0.1,1.7-0.1,2.5,0c-0.4-0.9-1.2-1.9-1.7-2.9
		c1.1-0.2,2.7-1.1,2.1-2.5c-0.4-1.2-2.4-0.9-3.6-1c0.3-0.4,0.3-1.5,0.5-1.8c-3.1-0.7-2.9-1.7-5-3.6c-1.8-1.7-4.5-2-6.9-2.2
		c-2.4-0.2-7.4-1.4-9.2,0.5c-1.8-0.8-3.5-1.7-5.5-1.3c0.4,0.5,0.4,1.1,1.1,1.6c-0.8-0.1-1.7,0.2-2.5,0.2c0.5,0.6,1,1.4,1.6,1.9
		c-3.1,0.7-9-1-11,2.3c0.4,0.2,0.7,0.5,1.1,0.7c-2.9,1.9-6.5,6-1.2,6.9c1.6,0.3,3.3,0.2,5,0.1c-0.1,0.9-0.1,1.8,0.1,2.7
		c0.2,1.2,1,2.2,1.9,3c-14.3,13.2-26.3,12-31,10.9c0-2.9-0.3-6.1-0.8-9.6c0,0-3.2-27.9,26.3-27.9c0,0.1,0.1,0.1,0.2,0.1
		c1.1,0.1,2.2,0.1,3.3,0c1.2,0.1,2.5,0.2,3.8,0.4l-1.4-0.6c6.2-0.9,11.6-3.9,16.1-8.1c7.2,0.1,15.1-4.6,19.4-10.6c0.1,0,0.2,0,0.3,0
		c6.1,0.6,13,3,18.8,2.6c-0.4-1.3-1-2.4-2.4-3.2c1.1,0.1,2.6-0.3,3.8-0.2c-0.8-1.4-2-2.7-2.9-4.2c1.7-0.5,3.9-1.9,3-4
		c-0.7-1.7-3.7-1-5.5-1.2c0.3-0.6,0.3-2.3,0.6-2.8c-0.3-0.1-0.6-0.1-0.9-0.2c0.6,0,1.2-0.1,1.8-0.1c3.6,0.1,7,0.3,10.6,0.9
		c2.8,0.5,5.9,1.8,8.6,1.8c-0.2-0.6-0.4-1.1-1-1.5c0.5,0.1,1.2-0.1,1.7,0c-0.3-0.7-0.8-1.3-1.2-2
		C343.8,398.5,344.8,397.9,344.5,396.9z M180.6,419.2c0.2-0.4,0.3-1.4,0.5-1.7c-3.1-0.7-2.9-1.7-5-3.6c-0.2-0.1-0.3-0.3-0.5-0.4
		c0.3,0,0.5,0,0.8,0c7.1,0.2,14,0.6,21,1.8c0.5,0.1,1,0.2,1.5,0.3c-0.3,0.3-0.6,0.6-0.9,0.9c-3.3-0.2-7.4-0.3-9,1.7
		c-2.4-0.9-4.7-1.9-7.3-1.3c0.6,0.6,0.6,1.4,1.7,2C182.4,418.8,181.5,419.1,180.6,419.2z M188.1,441.3c-2.5-2.2-4.5-4.7-6.9-6.9
		c0.8-0.1,1.6-0.2,2.3-0.2c2-0.1,4-0.1,6-0.2c3.2,2.8,4.9,6.6,6.5,10.5C193.2,444.1,190.5,443.4,188.1,441.3z M204.2,452
		c-3.5-5.6-4.7-12.4-8-17.9c2.5,0.1,4.9,0.2,7.4,0.5c1.3,0.1,2.6,0.3,3.9,0.6c0.3,2.2,0.2,4.4,0.1,6.5
		C207.5,444.6,207,450,204.2,452z M171.8,488.5c-0.5,3-1,6.2-0.9,9.3c-3.8-2.2-4.9-6.3-6.2-10.5C167.1,487.7,169.5,488,171.8,488.5z
		 M146.4,506.9c0.1,2.9,0.3,5.5,0.7,7.9c-3.6-1.7-4.9-5.2-6.2-8.8C142.6,506.1,144.5,506.5,146.4,506.9z M129.8,511.3
		c0.9-1,1.6-2,2.1-3.3c0.3-0.9,0.4-1.8,0.5-2.8c2.3,0.1,4.6,0.3,7,0.5c1.8,4.4,2.9,9.2,8,10.8c0,0,0.1,0,0.1,0
		c0.9,4.6,2.3,7.8,3.7,10.1C144.6,523.8,137.4,519,129.8,511.3z M177.6,530.1c-5.5,0.6-12.3,1-20.3-1.2c-5.9-6.3-7.7-16.1-8.2-21.5
		c4.5,1,9,2,13.1,1.8c-0.5-1.5-1.2-2.8-2.7-3.7c1.3,0.2,3-0.3,4.3-0.2c-0.9-1.6-2.2-3.2-3.2-4.9c1.9-0.5,4.5-2.1,3.5-4.6
		c-0.8-2-4.2-1.3-6.3-1.5c0.4-0.7,0.4-2.6,0.8-3.2c-5.1-0.9-5.2-2.5-8.3-5.2c1.1,0,2.2,0,3.3,0.1c2.8,0.2,5.6,0.5,8.3,0.8
		c2.1,5.7,2.6,12.2,9.3,14.4c0,0,0.1,0,0.1,0c0.4,2.1,1.2,4.1,2.6,5.8c3,3.7,8.1,5.1,12.2,7.1c2.1,1,4.3,2.1,6,3.7
		c0.2,0.2,0.3,0.3,0.5,0.5c-0.6,5.1-0.3,10.2,0.9,14.9C189.7,531.4,184.1,529.4,177.6,530.1z M170,578.6c-2.4-0.9-4-3.5-5.7-5.6
		c1.4-0.3,2.7-0.5,4.1-0.6c1.1-0.1,2.2-0.1,3.3-0.2c1.2,1.9,3.1,4.6,5.6,6.7C174.9,578.8,172.4,579.5,170,578.6z M291.4,453.3
		c0.7,0.1,1.4,0.3,2.1,0.5c-3.5,2.4-10.3,6.1-19.2,6c2.5-2.9,4.6-5.6,6.1-7.6C284,452.4,287.7,452.7,291.4,453.3z M271,454.3
		c-0.2-0.6-0.2-1.2-0.2-1.9c1.8-0.2,3.7-0.4,5.4-0.3c0.5,0,1,0,1.5,0c-1.6,1.9-3.2,3.5-4.7,5C272.1,456.3,271.3,455.4,271,454.3z
		 M284.5,421.3c-2.8-1.9-4.8-4.9-6.5-7.9c2.3-0.4,4.7-0.8,7-0.9c2.3-0.1,4.5-0.2,6.7-0.2C289.7,415.6,287.3,418.7,284.5,421.3z
		 M291,420.6c2.1-2.5,4-5.3,5.5-8.3c3.3,0,6.5,0.2,9.8,0.4C302.9,417,296.5,420.2,291,420.6z"/>
	<path style="clip-path:url(#SVGID_00000047756292145138585740000003711609901995959198_);fill:#D8989D;" d="M622.4,470.1
		c-0.3-0.8-1.7-0.6-2.5-0.7c0.2-0.3,0.2-1.1,0.4-1.3c-2.2-0.5-2-1.2-3.5-2.5c-1.3-1.2-3.1-1.4-4.8-1.5c-1.7-0.1-5.2-1-6.4,0.4
		c-1.2-0.5-2.4-1.2-3.8-0.9c0.3,0.3,0.3,0.8,0.8,1.1c-0.6-0.1-1.2,0.1-1.7,0.1c0.4,0.4,0.7,1,1.1,1.3c-2.2,0.5-6.2-0.7-7.7,1.6
		c0.3,0.1,0.5,0.4,0.8,0.5c-0.3,0.2-0.5,0.4-0.8,0.6c-0.3-0.2-0.5-0.5-0.9-0.7c-3-2.3-7-2.6-10.5-2.6c-3.1,0-9-1-12.3,0.6
		c0-0.1-0.1-0.1-0.1-0.2c1.5-0.4,3.5-1.8,2.7-3.8c-0.7-1.5-3.4-0.9-5-1c0.3-0.5,0.3-2.1,0.5-2.6c-4.4-0.6-4.2-2-7.3-4.4
		c-2.7-2.1-6.4-2.2-9.7-2.2c-3.3,0.1-10.4-1.1-12.6,1.9c-2.5-0.9-5-1.9-7.7-1.2c0.6,0.6,0.7,1.5,1.8,2c-1.1,0-2.3,0.5-3.4,0.5
		c0.8,0.7,1.5,1.8,2.4,2.4c-4.2,1.3-12.5-0.3-15,4.6c0.5,0.2,1.1,0.6,1.6,0.8c-3.8,3-8.2,9.1-0.8,9.7c5.1,0.4,10.5-1.6,15.6-1.9
		c7.1-0.4,14-0.7,21.1-0.1c1.7,0.1,3.5,0.4,5.3,0.7c-4.8,0.7-12.3-0.4-14.8,4.3c0.6,0.2,1.1,0.7,1.7,0.9c-4.1,3.1-9.1,9.7-1.1,10.5
		c2.3,0.2,4.7,0,7.1-0.4c1.8,3.5,3.9,7.2,7,9.6c-0.5,0.3-0.9,0.7-1.4,1c-6.7,4.3-15.5,2.4-22.8,5.1c0,0,0,0-0.1,0
		c-9.9,1.5-24.3,7.2-23.5,27.4c0,0,0.5,2.7,0.3,6.6c-10.3,0-23.1-1.6-29.4-10.2c2.2-2.3,3.4-5.9,4-8.9c0.6-2.6,1-5.7,0.9-8.7
		c3.5,0.7,7,1.4,10.1,1.2c-0.4-1.1-0.9-2.1-2.1-2.8c1,0.1,2.3-0.3,3.3-0.2c-0.7-1.2-1.7-2.4-2.5-3.7c1.5-0.4,3.4-1.7,2.6-3.5
		c-0.6-1.5-3.2-0.9-4.8-1c0.3-0.5,0.3-2,0.5-2.5c-2.6-0.4-3.5-1.1-4.6-2.1c4.4,0.2,8.8,0.5,13.2,1.2c4,0.7,8.4,2.6,12.3,2.6
		c-0.2-0.9-0.6-1.6-1.4-2.2c0.7,0.1,1.7-0.1,2.5,0c-0.4-0.9-1.2-1.9-1.7-2.9c1.1-0.2,2.7-1.1,2.1-2.5c-0.4-1.2-2.4-0.9-3.6-1
		c0.2-0.4,0.3-1.5,0.5-1.8c-3.1-0.7-2.9-1.7-5-3.6c-1.8-1.7-4.5-2-6.9-2.2c-2-0.1-6-1.1-8.2-0.1c0,0,0-0.1,0-0.1
		c-0.6-1.6-3.3-1.2-4.9-1.4c0.3-0.5,0.5-2.1,0.7-2.6c-4.3-1-4-2.4-6.9-5c-2.6-2.3-6.2-2.8-9.5-3c-3.3-0.2-10.3-2-12.7,0.8
		c-2.4-1.1-4.8-2.3-7.6-1.9c0.5,0.7,0.5,1.5,1.6,2.2c-1.1-0.1-2.3,0.3-3.4,0.2c0.7,0.8,1.3,1.9,2.2,2.7c-4.3,0.9-12.4-1.4-15.3,3.2
		c0.5,0.2,1,0.7,1.5,1c-2.4,1.6-5.3,4.4-5.4,6.6c-0.7-0.2-1.5-0.2-2.3-0.1c0.4,0.5,0.4,1.1,1.1,1.6c-0.8-0.1-1.7,0.2-2.5,0.2
		c0.5,0.6,1,1.4,1.6,1.9c-3.1,0.7-9-1-11,2.3c0.4,0.2,0.7,0.5,1.1,0.7c-2.9,1.9-6.5,6-1.2,6.9c3.7,0.6,7.6-0.5,11.4-0.4
		c4.5,0.1,8.9,0.4,13.4,1c-0.1,0.2-0.3,0.4-0.4,0.6c0.5,0.2,1,0.6,1.5,0.8c-3.6,2.7-8,8.5-0.9,9.2c2.7,0.3,5.5-0.2,8.3-0.6
		c3.6,2.4,6.3,5.9,9.4,8.9c3.1,3,7,3.1,10.9,3.7c1.4,3.6,2.7,7.2,5.1,10.3c3.3,4.4,8.7,6.7,13.9,8.1c5.8,1.6,11.9,2.1,17.9,2
		c-1.2,8.5-5.8,19.4-20.2,23.7c-11.9,3.6-18.4,12.8-20.7,23.1c-1.1-0.9-2.3-1.6-3.7-2.3c-4.1-2.2-8.9-3.5-12.5-6.5
		c-4.8-4-4.4-11.1-3.5-17.2c0.9,0.2,1.8,0.4,2.7,0.6c6,1.4,12.5,4.6,18.3,5c-0.3-1.3-0.7-2.5-2-3.5c1.1,0.3,2.6,0,3.8,0.2
		c-0.6-1.5-1.6-3-2.3-4.5c1.7-0.2,4.1-1.4,3.4-3.6c-0.5-1.8-3.5-1.5-5.3-1.9c0.4-0.5,0.6-2.2,1-2.7c-4.6-1.4-4.2-2.8-7.2-5.9
		c-2.6-2.7-6.6-3.4-10.1-3.9c-3.6-0.5-11.1-2.8-13.9,0c-2.6-1.3-5.1-2.8-8.1-2.5c0.5,0.8,0.5,1.7,1.6,2.5c-1.2-0.2-2.6,0.2-3.8,0
		c0.8,0.9,1.3,2.2,2.3,3c-4.7,0.8-13.4-2.3-16.8,2.6c0.6,0.3,1,0.8,1.6,1.1c-2.6,1.5-5.7,4.2-6.2,6.5c-2.2-0.2-4.5-0.2-6.5,0.1v22.9
		c1.8,0,3.5,0.1,5.3,0.2c0,0.8,0,1.6-0.1,2.4c-0.2,1.3-1,2.3-1.8,3.2c-1.1-1.1-2.2-2.3-3.3-3.6v5.1c0.8,0.9,1.6,1.9,2.6,2.9
		c-0.8-0.2-1.7-0.3-2.6-0.4v1.5c1.9,0.2,3.6,0.7,5.1,2.1c0.1,0.1,0.3,0,0.4-0.1c10.2,9.9,26.3,20.8,48.3,21.2c0,0,10.9,2.1,19.7,6.4
		c0,0,0,0,0,0c4.8,5.7,10.4,11.9,14.9,19c-7.2,3-21.7,15.2-28.6,13.7c-5.1-1.2-8.9-4.4-10.9-6.6c2.9-0.1,5.8-0.1,8.8,0.1
		c4,0.3,8.6,1.7,12.5,1.3c-0.3-0.8-0.7-1.6-1.6-2.1c0.8,0.1,1.7-0.3,2.5-0.2c-0.5-0.9-1.4-1.8-2-2.7c1.1-0.3,2.5-1.4,1.9-2.7
		c-0.5-1.1-2.5-0.6-3.7-0.7c0.2-0.4,0.2-1.5,0.3-1.9c-3.2-0.4-3.1-1.4-5.3-3.1c-2-1.5-4.7-1.5-7-1.5c-2.4,0.1-7.5-0.7-9.1,1.5
		c-1.8-0.6-3.6-1.3-5.6-0.8c0.4,0.4,0.5,1,1.3,1.5c-0.8,0-1.7,0.4-2.5,0.4c0.6,0.5,1.1,1.3,1.8,1.7c-3,1-9-0.1-10.7,3.4
		c0.4,0.1,0.8,0.4,1.2,0.6c-2.7,2.2-5.8,6.6-0.5,7c1.8,0.1,3.7-0.2,5.5-0.5c1.9,2,3.4,4.6,5.7,6.2c3.4,2.4,7.8-0.4,11.5,1.3
		c0.1,0,0.2,0,0.3,0c1.6,1,3.4,1.6,5.3,1.7c6.9,0.3,20.9-9.3,31.3-13.5c5.1,9.6,7.6,20.9,3.5,34.7c0,0,8,5.4,16.5-5.9
		c0,0,2.7-33.8-17.1-47.2c-19.7-13.4-19.2-46.7,8-55.8c0,0,11.2-4.6,12.9-21.4l8.1,1.2c8.1,0.7,16.2-5.3,22.5-11.7
		c3,0.2,13.7,0.2,23.8-8.9c2.9,0.8,5.9,1.7,8.7,1.7c-0.2-0.9-0.6-1.6-1.4-2.2c0.7,0.1,1.7-0.1,2.5,0c-0.4-0.9-1.2-1.9-1.7-2.9
		c1.1-0.2,2.7-1.1,2.1-2.5c-0.4-1.2-2.4-0.9-3.6-1c0.3-0.4,0.3-1.5,0.5-1.8c-3.1-0.7-2.9-1.7-5-3.6c-1.8-1.7-4.5-2-6.9-2.2
		c-2.4-0.2-7.4-1.4-9.2,0.5c-1.8-0.8-3.5-1.7-5.5-1.3c0.4,0.5,0.4,1.1,1.1,1.6c-0.8-0.1-1.7,0.2-2.5,0.2c0.5,0.6,1,1.4,1.6,1.9
		c-3.1,0.7-9-1-11,2.3c0.4,0.2,0.7,0.5,1.1,0.7c-2.9,1.9-6.5,6-1.2,6.9c1.6,0.3,3.3,0.2,5,0.1c-0.1,0.9-0.1,1.8,0.1,2.7
		c0.2,1.2,1,2.2,1.9,3c-14.3,13.2-26.3,12-31,10.9c0-2.9-0.3-6.1-0.8-9.6c0,0-3.2-27.9,26.3-27.9c0,0.1,0.1,0.1,0.2,0.1
		c1.1,0.1,2.2,0.1,3.3,0c1.2,0.1,2.5,0.2,3.8,0.4l-1.4-0.6c6.2-0.9,11.6-3.9,16.1-8.1c7.2,0.1,15.1-4.6,19.4-10.6c0.1,0,0.2,0,0.3,0
		c6.1,0.6,13,3,18.8,2.6c-0.4-1.3-1-2.4-2.4-3.2c1.1,0.1,2.6-0.3,3.8-0.2c-0.8-1.4-2-2.7-2.9-4.2c1.7-0.5,3.9-1.9,3-4
		c-0.7-1.7-3.7-1-5.5-1.2c0.3-0.6,0.3-2.3,0.6-2.8c-0.3-0.1-0.6-0.1-0.9-0.2c0.6,0,1.2-0.1,1.8-0.1c3.6,0.1,7,0.3,10.6,0.9
		c2.8,0.5,5.9,1.8,8.6,1.8c-0.2-0.6-0.4-1.1-1-1.5c0.5,0.1,1.2-0.1,1.7,0c-0.3-0.7-0.8-1.3-1.2-2
		C621.7,471.7,622.8,471.1,622.4,470.1z M458.5,492.4c0.2-0.4,0.3-1.4,0.5-1.7c-3.1-0.7-2.9-1.7-5-3.6c-0.2-0.1-0.3-0.3-0.5-0.4
		c0.3,0,0.5,0,0.8,0c7.1,0.2,14,0.6,21,1.8c0.5,0.1,1,0.2,1.5,0.3c-0.3,0.3-0.6,0.6-0.9,0.9c-3.3-0.2-7.4-0.3-9,1.7
		c-2.4-0.9-4.7-1.9-7.3-1.3c0.6,0.6,0.6,1.4,1.7,2C460.4,492,459.4,492.3,458.5,492.4z M466,514.5c-2.5-2.2-4.5-4.7-6.9-6.9
		c0.8-0.1,1.6-0.2,2.3-0.2c2-0.1,4-0.1,6-0.2c3.2,2.8,4.9,6.6,6.5,10.5C471.1,517.3,468.5,516.6,466,514.5z M482.2,525.2
		c-3.5-5.6-4.7-12.4-8-17.9c2.5,0.1,4.9,0.2,7.4,0.5c1.3,0.1,2.6,0.3,3.9,0.6c0.3,2.2,0.2,4.4,0.1,6.5
		C485.4,517.8,484.9,523.2,482.2,525.2z M449.8,561.7c-0.5,3-1,6.2-0.9,9.3c-3.8-2.2-4.9-6.3-6.2-10.5
		C445,560.9,447.4,561.2,449.8,561.7z M424.3,580.1c0.1,2.9,0.3,5.5,0.7,7.9c-3.6-1.7-4.9-5.2-6.2-8.8
		C420.6,579.3,422.4,579.7,424.3,580.1z M407.7,584.5c0.9-1,1.6-2,2.1-3.3c0.3-0.9,0.4-1.8,0.5-2.8c2.3,0.1,4.6,0.3,7,0.5
		c1.8,4.4,2.9,9.2,8,10.8c0,0,0.1,0,0.1,0c0.9,4.6,2.3,7.8,3.7,10.1C422.5,597,415.4,592.2,407.7,584.5z M455.5,603.3
		c-5.5,0.6-12.3,1-20.3-1.2c-5.9-6.3-7.7-16.1-8.2-21.5c4.5,1,9,2,13.1,1.8c-0.5-1.5-1.2-2.8-2.7-3.7c1.3,0.2,3-0.3,4.3-0.2
		c-0.9-1.6-2.2-3.2-3.2-4.9c1.9-0.5,4.5-2.1,3.5-4.6c-0.8-2-4.2-1.3-6.3-1.5c0.4-0.7,0.4-2.6,0.8-3.2c-5.1-0.9-5.2-2.5-8.3-5.2
		c1.1,0,2.2,0,3.3,0.1c2.8,0.2,5.6,0.5,8.3,0.8c2.1,5.7,2.6,12.2,9.3,14.4c0,0,0.1,0,0.1,0c0.4,2.1,1.2,4.1,2.6,5.8
		c3,3.7,8.1,5.1,12.2,7.1c2.1,1,4.3,2.1,6,3.7c0.2,0.2,0.3,0.3,0.5,0.5c-0.6,5.1-0.3,10.2,0.9,14.9
		C467.6,604.6,462.1,602.6,455.5,603.3z M447.9,651.8c-2.4-0.9-4-3.5-5.7-5.6c1.4-0.3,2.7-0.5,4.1-0.6c1.1-0.1,2.2-0.1,3.3-0.2
		c1.2,1.9,3.1,4.6,5.6,6.7C452.8,652,450.3,652.7,447.9,651.8z M569.3,526.5c0.7,0.1,1.4,0.3,2.1,0.5c-3.5,2.4-10.3,6.1-19.2,6
		c2.5-2.9,4.6-5.6,6.1-7.6C562,525.6,565.6,525.9,569.3,526.5z M548.9,527.5c-0.2-0.6-0.2-1.2-0.2-1.9c1.8-0.2,3.7-0.4,5.4-0.3
		c0.5,0,1,0,1.5,0c-1.6,1.9-3.2,3.5-4.7,5C550,529.5,549.3,528.6,548.9,527.5z M562.4,494.5c-2.8-1.9-4.8-4.9-6.5-7.9
		c2.3-0.4,4.7-0.8,7-0.9c2.3-0.1,4.5-0.2,6.7-0.2C567.7,488.8,565.2,491.9,562.4,494.5z M568.9,493.8c2.1-2.5,4-5.3,5.5-8.3
		c3.3,0,6.5,0.2,9.8,0.4C580.9,490.2,574.5,493.4,568.9,493.8z"/>
	<path style="clip-path:url(#SVGID_00000047756292145138585740000003711609901995959198_);fill:#FFEEF1;" d="M200.2,335.2
		c9.7,4.9,21.5,9.5,31,4.2c3.5-1.9,7.2-5.2,10.8-4.1c0.3-0.8,0.7-1.5,1.1-2.2c2.7-4.2,7.6-6.9,12.6-6.9c3,0,6.2,1.1,7.9,3.7
		c1.7,2.5,1,6.6-1.8,7.8c0.9-2.2-0.6-4.9-2.9-5.6c-2.3-0.7-4.8,0.4-6.3,2.3c-1.5,1.8-2,4.3-1.9,6.7c0.1,3.9,1.9,7.7,4.7,10.5
		c6.2,3,14.3,2.7,19.5-2.1c1.7,5.4,9.2,7.8,13.7,4.4c0.5,7,6.5,12.9,13.4,14.5c6.8,1.7,14.1-0.3,20.3-3.7
		c6.1-3.5,11.2-8.5,16.3-13.4c3.8,3.2,9.6,3.9,14.2,1.7c4.5-2.2,7.5-7.3,7.2-12.3c4.1-6.4,12.8-8,20.4-7.5
		c7.6,0.5,15.3,2.6,22.7,1.1c6.8-1.4,12.6-5.6,19-8.2c6.4-2.6,14.5-3.4,19.6,1.3c-6.4-6.4-16.1-9.3-25-7.4c-7.3,1.6-15.4,6.1-21.7,2
		c-5.4-3.5-5.7-11.3-9.2-16.8c-2.8-4.4-7.8-7.2-13-7.3c-5.2-0.1-10.3,2.6-13.2,6.8c-7.9-6.5-21-5.2-27.5,2.7
		c-1.5-1.5-3.1-3.1-4.6-4.6c4.3-6.3,2.5-15.9-3.7-20.3c-4.6-3.3-11.1-3.2-16-0.5c1.5,2.7,2.4,5.8,2.3,8.9
		c-0.2,5.6-3.6,10.9-8.6,13.3c-5,2.4-11.5,1.6-15.6-2.2c-1.9-1.8-3.3-4.2-3.5-6.8c-0.2-2.6,1-5.4,3.2-6.7c2.2-1.4,5.5-1,7.1,1
		c1.7,2,1.2,5.5-1.1,6.8c1.7-1.2,1.6-4,0-5.3c-1.6-1.3-4.2-0.9-5.6,0.6c-1.4,1.5-1.6,3.9-0.9,5.8c0.8,1.9,2.4,3.4,4.3,4.2
		c3,1.4,6.6,1.3,9.5-0.2c2.9-1.5,5.1-4.4,5.7-7.6c0.5-2.8-0.1-5.7-1.4-8.2c-6.1-7.4-17.9-9.4-26-4.4c-8.3,5.1-11.7,16.7-7.6,25.5
		c-3.8-4.3-10.2-6.1-15.7-4.4c-5.5,1.6-9.8,6.6-10.7,12.3c-4.6-2.3-10.1,0.6-13.6,4.3c-3.5,3.7-6.3,8.3-10.9,10.6
		c-5.2,2.7-11.5,1.8-17,0c-5.5-1.8-10.8-4.6-16.6-5.5c-5.8-0.9-12.4,0.5-15.7,5.3C179.2,325.1,190.5,330.4,200.2,335.2z"/>
	<path style="clip-path:url(#SVGID_00000047756292145138585740000003711609901995959198_);fill:#FFEEF1;" d="M479.3,359.1
		c9.7,4.9,21.5,9.5,31,4.2c3.5-1.9,7.2-5.2,10.8-4.1c0.3-0.8,0.7-1.5,1.1-2.2c2.7-4.2,7.6-6.9,12.6-6.9c3,0,6.2,1.1,7.9,3.7
		c1.7,2.5,1,6.6-1.8,7.8c0.9-2.2-0.6-4.9-2.9-5.6c-2.3-0.7-4.8,0.4-6.3,2.3c-1.5,1.8-2,4.3-1.9,6.7c0.1,3.9,1.9,7.7,4.7,10.5
		c6.2,3,14.3,2.7,19.5-2.1c1.7,5.4,9.2,7.8,13.7,4.4c0.5,7,6.5,12.9,13.4,14.5c6.8,1.7,14.1-0.3,20.3-3.7
		c6.1-3.5,11.2-8.5,16.3-13.4c3.8,3.2,9.6,3.9,14.2,1.7c4.5-2.2,7.5-7.3,7.2-12.3c4.1-6.4,12.8-8,20.4-7.5
		c7.6,0.5,15.3,2.6,22.7,1.1c6.8-1.4,12.6-5.6,19-8.2c6.4-2.6,14.5-3.4,19.6,1.3c-6.4-6.4-16.2-9.3-25-7.4c-7.3,1.6-15.4,6.1-21.7,2
		c-5.4-3.5-5.7-11.3-9.2-16.8c-2.8-4.4-7.8-7.2-13-7.3c-5.2-0.1-10.3,2.6-13.2,6.8c-7.9-6.5-21-5.2-27.5,2.7
		c-1.5-1.5-3.1-3.1-4.6-4.6c4.3-6.3,2.5-15.9-3.7-20.3c-4.6-3.3-11.1-3.2-16-0.5c1.5,2.7,2.4,5.8,2.3,8.9
		c-0.2,5.6-3.6,10.9-8.6,13.3c-5,2.4-11.5,1.6-15.6-2.2c-1.9-1.8-3.3-4.2-3.5-6.8c-0.2-2.6,1-5.4,3.2-6.7c2.2-1.4,5.5-1,7.1,1
		s1.2,5.5-1.1,6.8c1.7-1.2,1.6-4,0-5.3c-1.6-1.3-4.2-0.9-5.6,0.6c-1.4,1.5-1.6,3.9-0.9,5.8c0.8,1.9,2.4,3.4,4.3,4.2
		c3,1.4,6.6,1.3,9.5-0.2c2.9-1.5,5.1-4.4,5.7-7.6c0.5-2.8-0.1-5.7-1.4-8.2c-6.1-7.4-17.9-9.4-26-4.4c-8.3,5.1-11.7,16.7-7.6,25.5
		c-3.8-4.3-10.2-6.1-15.7-4.4c-5.5,1.6-9.8,6.6-10.7,12.3c-4.6-2.3-10.1,0.6-13.6,4.3c-3.5,3.7-6.3,8.3-10.9,10.6
		c-5.2,2.7-11.5,1.8-17,0c-5.5-1.8-10.8-4.6-16.6-5.5c-5.8-0.9-12.4,0.5-15.7,5.3C458.3,348.9,469.6,354.2,479.3,359.1z"/>
	<g style="clip-path:url(#SVGID_00000047756292145138585740000003711609901995959198_);">
		<rect x="404" y="441.3" class="st4" width="15.6" height="195.9"/>
	</g>
	<g style="clip-path:url(#SVGID_00000047756292145138585740000003711609901995959198_);">
		<path class="st5" d="M-0.2,626c-6.3-9.4-7.1-21.3-0.6-30.8s20.9-15.8,34.2-13.7c13.3,2.1,23.5,13.2,20.3,23.6
			c-3.2-20.1,15.1-41.3,40.2-46.6s53.7,6,62.8,24.9c-2.9-13,12.5-25.7,29.2-27.2s32.9,5.8,43.5,15.9c10.6,10.1,16.5,22.6,22.3,35
			c3.5-21.2,27.3-39.5,54.3-41.8c27-2.4,54.5,11.5,62.8,31.6c-1.3-19.3,13.8-38.8,36.3-47c22.5-8.2,50.9-4.4,68.2,9
			c3.9-16.5,30.1-23.9,51.2-21.9c31.5,3,59.9,20.3,71.2,43.5c5.7-19.6,28.8-35.6,54.2-37.5c25.4-1.9,51.2,10.3,60.7,28.8
			c12.6-16.5,30.6-31.2,53.4-38.1c22.8-6.9,50.7-4.6,67.8,8.6s19.1,38,1.2,51.2c-14.3,10.6-35.6,11.6-54.8,14.5
			c-56.7,8.4-112.1,37.3-167.6,26.3c-18.2-3.6-35.4-11.5-54.3-11.3c-26.4,0.4-53.3,16.6-77.3,8.3c-9.1-3.1-16.4-9.6-26.2-11.1
			c-12.8-1.9-24.8,5.1-36.4,9.9c-32.2,13.4-73.6,11-102.2-5.9c-44.2,17.5-93.7,26.3-142.8,25.5c-37-0.6-73.6-6.7-110.7-5.6
			c-13.3,0.4-26.9,1.7-39.9-0.5s-25.7-8.9-28.7-19.1"/>
	</g>
	<polygon style="clip-path:url(#SVGID_00000047756292145138585740000003711609901995959198_);fill:#7C4431;" points="785,602.5 
		134.7,602.5 200,571.4 719.6,571.4 	"/>
	
		<linearGradient id="SVGID_00000002359172815620033410000016818014796585521806_" gradientUnits="userSpaceOnUse" x1="736.5754" y1="738.7335" x2="736.5754" y2="738.7335">
		<stop  offset="0.4118" style="stop-color:#E3F4FF"/>
		<stop  offset="0.6431" style="stop-color:#E0F3FF"/>
		<stop  offset="0.8143" style="stop-color:#D7EEFF"/>
		<stop  offset="0.966" style="stop-color:#C7E7FF"/>
		<stop  offset="0.9706" style="stop-color:#C6E7FF"/>
	</linearGradient>
	
		<path style="clip-path:url(#SVGID_00000047756292145138585740000003711609901995959198_);fill:url(#SVGID_00000002359172815620033410000016818014796585521806_);" d="
		M736.6,738.7"/>
	<g style="clip-path:url(#SVGID_00000047756292145138585740000003711609901995959198_);">
		<g>
			<g>
				<g>
					<g>
						<path class="st8" d="M434.1,549.2c-1.4-38-6.1-72.3-12.2-102.2c1-5.2,2-10.3,3-15.5c2.8,1.9,5.8,4,8.8,6.4
							c2.5,2,4.7,3.9,6.8,5.8c1.7,1.1,3.5,2.1,5.2,3.2c0.5,0.6,1.2,1.5,1.8,2.7c0.5,1.1,0.7,2.1,0.8,2.8c0,2.4,0.1,6.1,0.2,10.6
							c0.9,32.9,3.2,53.9,4.6,73.1c1.1,14.3,2.2,35,2.2,60.6c-7.1-0.9-14.1-1.8-21.2-2.8C434.6,579.7,434.6,564.8,434.1,549.2z"/>
						<path class="st9" d="M394.6,414.3c2.5,0.2,5.4,0.6,8.5,1.3c2.6,0.6,4.9,1.4,6.9,2.1c-0.2,1.1-0.4,2.2-0.6,3.3
							c-4.7-0.6-9.4-1.3-14.1-1.9C395,417.5,394.8,415.9,394.6,414.3z"/>
						<path class="st10" d="M362,579.4c-4.2-70.2-6.7-121.6-6.3-127.3c0.3-5.4,3-8.6,3-8.6c0.8-1,1.8-1.8,2.9-2.6
							c11.2-7.3,22.4-14.5,33.6-21.8c2.4-0.1,5.2-0.1,8.4,0.4c6.4,1,11.3,3.4,14.5,5.3c9.2,7.4,18.4,14.7,27.6,22.1
							c-0.4,10.8-0.6,21.9-0.7,33.1c-0.2,22.2,0,43.8,0.7,64.7c16.4,19.3,32.8,38.6,49.2,57.9c-35,0.3-70.1,0.5-105.1,0.8
							c-8.4-5.6-16.9-11.2-25.3-16.9c-0.5-0.7-1.2-1.7-1.7-3C362,581.8,362,580.3,362,579.4z"/>
						<path class="st11" d="M418.8,430.8c2.8,13.5,5.2,28.5,6.8,44.8c2.3,23.4,2.1,41.8,2,57.3c-0.2,14.2-0.8,26.1-1.3,34.8
							c15.9,13.6,31.8,27.1,47.6,40.7"/>
						<path class="st11" d="M414.8,457.3c4.7-0.3,9.4-0.6,14.1-0.9"/>
						<path class="st11" d="M419.3,497.2c4.6-0.5,9.2-1,13.8-1.5"/>
						<path class="st11" d="M418.6,554.4c5.6-0.5,11.2-1,16.7-1.6"/>
						<path class="st9" d="M401.3,411.4c2.4,0.5,6.3,1.6,10.3,4.3c3.3,2.3,5.5,4.8,6.9,6.6c0.5,2.8,0.9,5.6,1.4,8.4
							c-0.4,0-0.7,0.1-1.1,0.1c-0.4-2-1.9-7-6.4-11.2c-5.8-5.3-12.6-5.7-14.3-5.7C399.1,413.1,400.2,412.2,401.3,411.4z"/>
						<g>
							<path class="st12" d="M420,439.3"/>
						</g>
						<g>
							<path class="st13" d="M388.6,408c0.6,0.6,1.7,1.5,3.1,2.2c0.4,0.2,1.1,0.6,2.1,0.8c1.7,0.4,3.2,0.3,4.4,0.1
								c-0.3-1.9-1.1-6.1-4.2-10.1c-3-3.8-6.4-5.6-8.2-6.4C386.7,399,387.6,403.5,388.6,408z"/>
							<g>
								<path class="st14" d="M418.9,431.7c-1.2-1.5-2.5-3-3.9-4.5c-1.3-1.4-2.6-2.8-3.9-4c-0.6-0.5-1.2-0.9-1.9-1.4
									c-0.5-0.3-1-0.7-1.6-1c-1.9-1.1-3.7-1.9-5.4-2.5c-2.2-0.7-4.1-1.1-5.7-1.3c0.1-1,0.2-2,0.2-3.2c0-0.5-0.1-1.1-0.2-1.6l0,0
									c0-0.1,0-0.2,0-0.3c-0.1-0.7-0.3-1.4-0.5-2c-0.1-0.4-0.2-0.7-0.3-1c5.6,0.8,11.2,1.6,16.8,2.4c1.6,0.2,3.2,0.5,4.8,0.7l0,0
									l0,0.1c0,0.7,0,1.4,0,2c0,2.4-0.1,4.7-0.1,7.1l0,0.1c0,0.5,0,0.9,0,1.4c0,1,0,2.1-0.1,3.2c0.3,0.5,0.6,1,0.8,1.6
									C418.6,429,418.8,430.5,418.9,431.7z"/>
								<path class="st15" d="M417.3,411.9c0,0.7,0,1.4,0,2c0,2.4-0.1,4.7-0.1,7.1l0,0.1c-0.7,0.1-1.5,0.1-2.2,0.1
									c-2.1,0-4-0.4-5.7-0.9c-2.8-0.9-5.1-2.3-7-3.6c-0.6-0.4-1.1-0.9-2.2-1.7c-1.5-1.2-2.7-2.1-3.6-2.9l0,0c0-0.1,0-0.2,0-0.3
									c-0.1-0.7-0.3-1.4-0.5-2c-0.1-0.4-0.2-0.7-0.3-1c5.6,0.8,11.2,1.6,16.8,2.4C414,411.4,415.6,411.7,417.3,411.9z"/>
								<path class="st14" d="M408.9,338.6c-24.5,0.4-28.1,17.1-27.9,26.6c0.1,4.3,0.1,7.4,0.7,11.9c0.7,5.1,1.6,11.8,4.9,19.2
									c2.4,5.4,5.7,13,13.6,18.3c3.9,2.7,7.1,3.9,8.4,4.3c4,1.2,7,1.1,7.7,1c1.5-0.1,3.2-0.2,4.8-0.9c3.2-1.4,4-4.6,7.5-11.4
									c1.8-3.5,3.9-6.8,5.2-11.8c3.2-13,3.9-22,3.8-31.6C437.4,354.9,433.4,338.3,408.9,338.6z"/>
								<path class="st13" d="M412.9,336.6c6.9-1.6,11.8,0,13.8,0.8c10.8,4.5,14.8,17.3,14.7,26.1c-0.2,8-3.8,14.7-4.4,14.5
									c-0.3-0.1,0.3-2.5-0.4-6.5c-0.4-1.9-0.9-3.5-1.3-4.5c-0.7-1.6-1.4-2.9-2.1-4c-0.8,5.5-1.3,6.7-1.7,6.7
									c-0.6,0-0.5-3.2-2.1-7.3c-1.6-4.1-4.4-8.1-5.6-7.7c-1.4,0.4-0.5,5.9-1.5,6c-0.5,0.1-0.8-1.5-2.4-3.3c-0.8-0.9-2.1-2.2-3.4-2
									c-1.3,0.2-1.9,2.1-3.9,7.5c-2.3,6.3-2.8,7.4-3.4,7.4c-0.7,0-1.6-1.2-2.8-6.8c-0.9,1.5-1.5,2.8-3.6,6.7
									c-1.1,2-2.1,3.7-2.5,3.8c-0.6,0.1-2.3-2.6-3.5-5.7c-0.5,0.9-1.2,2.4-1.4,4.2c-0.2,1.8,0.3,2.3,0.3,3.8c0,3-1.8,3.6-3.4,7.8
									c-1.5,3.9-0.9,6-2,6.3c-1.6,0.5-4.2-3.7-5.3-5.6c5.3,17.5,6,23.1,4.8,23.6c-1.5,0.6-7.1-6.8-10.4-14.5
									c-0.1-0.2-0.4-0.9-0.7-1.7c-2.3-5.9-7.9-22.7-0.4-38.6c2.2-4.7,4.9-7.8,6.3-9.3c2.7-2.9,8.2-8.7,16.7-9.6
									C403.2,334.4,407.6,334.2,412.9,336.6z"/>
							</g>
							<path class="st11" d="M390.8,428.1"/>
							<g>
								<g>
									<path d="M398.5,378c4.7-1.9,10.5-1.4,14.8,1.4c0,0-0.8,1.3-0.8,1.3c-3.1-1.8-6.6-2.9-10.3-2.9c-1.2,0-2.5,0.1-3.7,0.3
										L398.5,378L398.5,378z"/>
								</g>
							</g>
							<g>
								<g>
									<path d="M435.9,381.7c-3.9-1.8-8.5-1-11.8,1.5c0,0-0.9-1.1-0.9-1.1C426.6,379.3,432.6,378.8,435.9,381.7L435.9,381.7z"/>
								</g>
							</g>
							<path class="st15" d="M410.8,407.2c-0.4,0.8,3,4.3,6.9,4.1c3.2-0.2,6-2.8,5.7-3.6c-0.2-0.6-2,0.1-5.8,0.1
								C413.1,407.7,411.1,406.7,410.8,407.2z"/>
							<g>
								<path class="st15" d="M414.8,399.4c1.9-1,4.2-1,6.2-0.1C419.1,400.2,416.8,400.3,414.8,399.4L414.8,399.4z"/>
							</g>
							<g>
								<path d="M425,388.7C425,388.7,425,388.7,425,388.7c-0.2-0.2-0.3-0.3-0.4-0.4c0.2-0.2,0.4-0.6,0.7-0.9
									c0.1-0.1,0.4-0.4,0.8-0.6c0.5-0.3,0.8-0.2,2-0.1c1.5,0.1,1.7,0.1,2,0.3c0.5,0.3,1,1,0.9,1.5c0,0.2-0.2,0.3-0.3,0.4
									c-0.6,0.5-1.2,0.5-1.2,0.6c0,0.1,0.8,0.3,1.5-0.1c0.5-0.3,0.8-0.7,0.9-1c0.2,0.1,0.6,0.2,1,0.4c0.5,0.2,0.7,0.3,0.7,0.3
									c0.1-0.1-0.7-0.9-1.5-1.5c-0.3-0.2-0.8-0.6-1.5-0.8c-0.3-0.1-0.7-0.2-2-0.3c-0.6-0.1-1.5-0.1-2.5-0.1
									c-0.4,0.2-1,0.5-1.6,1.1c-0.8,0.7-1.3,1.5-1.3,1.6c0,0.1,0.3-0.2,0.7-0.2c0.2,0,0.2,0,0.4,0.1
									C424.7,388.9,425,388.8,425,388.7z"/>
								<path d="M429.8,386.9c0.1,0.2,0.3,0.5,0.3,0.9c0,0.5-0.1,1.1-0.6,1.5c-0.2,0.1-0.4,0.2-0.5,0.2c-0.3,0.1-0.7,0-0.9,0
									c-0.2,0-0.6-0.1-0.9-0.5c-0.1-0.2-0.4-0.5-0.4-1.1c0-0.6,0.3-1,0.3-1.1c0.4,0,0.8,0,1.3,0c0.4,0,0.7,0.1,0.9,0.1
									C429.5,386.9,429.6,386.9,429.8,386.9z"/>
							</g>
							<g>
								<path d="M410.8,387C410.8,387,410.8,387,410.8,387c0.3-0.1,0.5-0.2,0.7-0.2c-0.1-0.3-0.3-0.6-0.6-1
									c-0.1-0.1-0.4-0.5-0.8-0.8c-0.5-0.4-1-0.4-2.4-0.7c-2-0.3-2.1-0.4-2.6-0.3c-0.7,0.2-1.5,0.6-1.5,1.2c0,0.2,0.1,0.3,0.3,0.5
									c0.6,0.7,1.3,0.8,1.3,0.9c0,0.1-1,0.1-1.9-0.5c-0.5-0.4-0.7-0.9-0.8-1.2c-0.3,0-0.8,0-1.3,0.1c-0.7,0.1-0.9,0.1-0.9,0.1
									c0-0.1,1.1-0.7,2.3-1c0.5-0.1,1.2-0.3,2.2-0.4c0.4,0,1,0,2.6,0.2c0.8,0.1,1.9,0.3,3.1,0.6c0.4,0.3,1.1,0.8,1.7,1.5
									c0.8,0.9,1.2,1.8,1.1,1.9c-0.1,0.1-0.3-0.3-0.8-0.4c-0.2-0.1-0.2,0-0.6-0.1C411.3,387.3,410.8,387.1,410.8,387z"/>
								<path d="M406.4,384c-0.1,0.2-0.3,0.5-0.3,0.9c-0.1,0.9,0.6,1.6,0.7,1.6c0.6,0.6,1.3,0.6,1.7,0.6c0.3,0,0.8,0,1.4-0.3
									c0.3-0.1,0.7-0.4,0.9-1c0.2-0.6,0-1.1-0.1-1.3c-0.5-0.1-1.1-0.3-1.7-0.4C408.1,384.1,407.2,384,406.4,384z"/>
							</g>
							<polyline class="st12" points="396,420.8 396,420.4 395.9,419.4 395.9,419 395.9,418.6 							"/>
							<path class="st14" d="M386.9,379.6c-0.9-2.4-4.4-4.5-5.9-3.6c-1.4,0.9-2.1,5.1-1.5,7.7c0.4,1.4,0.8,5.4,4.1,8.2
								c1.7,1.5,4.8,3.1,6,2.1c0.6-0.5,0.7-1.4-0.3-5.7C388.6,384.8,387.7,381.9,386.9,379.6z"/>
						</g>
						<path class="st9" d="M394.6,414.3c6.3,2.8,12.6,5.5,18.9,8.3c1.8,3.1,3.7,6.3,5.6,9.4c-0.3,0.3-0.5,0.6-0.8,1
							c-2.1-2.3-5.4-5.4-10.2-8c-5.7-3.1-10.9-4.2-14.2-4.6C394.1,418.3,394.3,416.3,394.6,414.3z"/>
					</g>
					<path class="st10" d="M358.6,448.1c3,32.5,5.9,65.1,8.9,97.6c22.2,19.3,44.4,38.6,66.5,58c11.3-1.7,22.6-3.5,33.9-5.2
						c-24.7-28.2-49.4-56.4-74.1-84.7c-2.3-17.2-4.6-34.3-6.9-51.5"/>
					<g>
						<path class="st8" d="M357.3,450c3.6,26.9,8.4,68.3,11.6,95.6c0,0-0.5-0.9-0.5-0.9c17.1,15.6,41.5,38.1,58.6,54.1
							c0,0-2.3-0.2-2.3-0.2l28-19c0,0-0.3,2.7-0.3,2.7s-14.9-16.8-14.9-16.8c-13.4-15.1-31.5-35.8-44.8-51.1
							c-1.9-15.6-4.1-34.6-5.8-50.2c-0.6-5.5-1.2-11.1-1.8-16.6c1.5,9.4,3.6,23.4,5.1,33.1c1.5,9.5,3.5,23.4,4.9,33.1
							c0,0-0.3-0.6-0.3-0.6c19.6,21.4,42.5,46.7,61.9,68.3c0,0-1.7,1.2-1.7,1.2l-27.9,19.1c0,0-1.2,0.8-1.2,0.8s-1.1-1-1.1-1
							c-17.4-16.3-41.6-38.8-58.5-55C363.4,518.7,359.4,477.4,357.3,450L357.3,450z"/>
					</g>
					<path class="st14" d="M445.1,583.8c6.4,6.6,12.7,13.2,19.1,19.9c-5.9,3.4-11.7,6.7-17.6,10.1c-5.1-5.6-10.3-11.2-15.4-16.8
						C435.8,592.6,440.5,588.2,445.1,583.8z"/>
					
						<rect x="433.8" y="571.7" transform="matrix(0.6483 0.7614 -0.7614 0.6483 604.5296 -127.4421)" class="st9" width="12.8" height="38"/>
				</g>
			</g>
		</g>
		<g>
			<g>
				<g>
					<g>
						<path class="st16" d="M614.4,423.5c-0.8-0.6-3.3-2.3-6.7-2.2c-5.2,0.2-8.2,4.3-8.5,4.8c0.4,1.8,0.8,3.6,1.2,5.4
							c5-0.8,9.9-1.6,14.9-2.5C615,427.3,614.7,425.4,614.4,423.5z"/>
						<path class="st17" d="M528.1,609.6c31.9-0.1,66.6,2,98.5,2c7.3-6.2,12.8-13.9,19.4-20.6c2.7-2.7,4.4-6.4,4.5-10.2
							c0.9-25.2,1.9-50.4,2.8-75.5c0.4-10.1,0.4-18.6,0.2-24.9c-0.3-11.1-0.9-15-2.1-18.8c-1.2-4-1.9-11.1-7.9-15.3
							c-8.7-6.3-17.6-11.9-26.5-16.7c-0.3-0.2-0.6-0.3-0.8-0.5c-0.4-0.2-0.7-0.3-1.1-0.4c-0.5-0.2-1-0.3-1.4-0.5l0,0c0,0,0,0,0,0
							c-0.6,0.6-1.2,1.1-1.7,1.6c-4.6,4-8.1,6.3-10.8,7.5c-2.6,1.1-4.5,1.2-5.8,0.7c-0.1,0-0.1-0.1-0.2-0.1
							c-0.2-0.1-0.4-0.2-0.5-0.3c-0.2-0.1-0.3-0.2-0.5-0.4c-0.7-0.6-1.2-1.5-1.5-2.4c-0.6-1.9-0.5-3.9-0.5-4.4v0c0,0,0,0,0,0
							c-0.1,0-0.1,0.1-0.2,0.1c0,0,0,0,0,0c-1.3,0.9-2.5,1.9-3.7,3c-0.2,0.2-0.3,0.3-0.5,0.5c-0.6,0.6-1,1.1-1.1,1.1
							c-0.4,0.5-5.1,4.8-18.3,17c-2.5,25.6-4.1,37.8-5.1,44.1l-2,12.9c-0.4,3-0.8,8.1-1.1,14.2c-0.3,5.3-0.5,11.3-0.7,17.3
							c0,0.3,0,0.5,0,0.8c-0.1,2-0.1,4.6-0.2,7.2c0,0,0,1,0,1.9c-0.1,4.4,0,13.6,0.1,17.8C548.9,582.1,538.5,595.8,528.1,609.6z"/>
						<path class="st18" d="M581,599.3c14,0.2,27.9,0.4,41.9,0.5c7.2-10.8,14.3-21.7,21.5-32.5c4.6-18.7,8.6-42,9.3-68.9
							c0.4-14.3-0.3-27.5-1.4-39.4c-0.4-4-3.9-6.9-7.9-6.5c-8.3,0.9-19.8,3.7-26.3,12.9c-3.7,5.3-4.4,10.7-5.1,17.2
							c-3.4,32.6-2.6,50.2-2.6,50.2l-1.7,20.3C599.4,568.5,590.2,583.9,581,599.3z"/>
						<path class="st14" d="M614.1,418c0,2.3-0.2,4.2-0.6,5.9c-2.8,14.1-15.4,11-25.3,34.1c1.4-9.7,2.1-16.4,2.5-20.8
							c0.2-2,0.2-3.7,0.2-4.9c0-1.3,0-2.3-0.1-3c-0.1-0.6-0.5-3.4-0.2-7.1c0.2-2,0.5-3.6,0.5-3.9c1-4.1,10.4-7.6,22.5-9
							C614,412.7,614.1,415.6,614.1,418z"/>
						<path class="st19" d="M614.1,418c0,2.3-0.2,4.2-0.6,5.9c-2.2,2.5-5.1,5.2-8.5,7.6c-0.9,0.6-2.3,1.4-4.2,1.6
							c-0.9,0.1-1.1,0-4.5-0.1c-2.3-0.1-2.1,0.1-3.4-0.1c-0.7-0.1-1.4-0.4-2-0.7c0-1.3,0-2.3-0.1-3c-0.1-0.6-0.5-3.4-0.2-7.1
							c0.2-2,0.5-3.6,0.5-3.9c1-4.1,10.4-7.6,22.5-9C614,412.7,614.1,415.6,614.1,418z"/>
					</g>
				</g>
				<path class="st18" d="M550.3,580.2c3-4,6-7.9,9-11.9c3-38.7,6-77.4,9.1-116.1c-1.4,3.2-2.8,6.4-4.2,9.5
					c-1.1,3.8-2.7,9.7-4.2,16.9c-4.3,20.1-4.6,33.7-6.4,60C552.9,548.2,551.8,562.5,550.3,580.2z"/>
			</g>
			<path class="st16" d="M618.9,430.6c-2,1.7-4.8,4.2-7.9,7.4c-3.6,3.7-17.9,18.9-26.2,43c-4.6,13.2-5.3,30.7-6.5,65.2
				c-0.4,11.8-0.6,21.6-0.6,28c-5,9.2-10,18.3-15,27.5c-3.6-0.4-7.2-0.8-10.9-1.2c5.8-8.6,11.7-17.1,17.5-25.7
				c1.2-15.7,0.9-28.4,1.2-37c1.6-43.4,3.6-49.5,5.6-56.6c5.9-21,18.2-35.8,23.1-41.7c5.7-6.9,11.1-12.2,15.4-16
				C615.9,425.9,617.4,428.3,618.9,430.6z"/>
			<path class="st16" d="M591,431.2c0.2,2.5,0.4,5.1,0.4,7.9c0.1,6.2-0.4,11.8-1.2,16.7c-2.2,2.4-4.4,4.8-6.6,7.2
				c0.9-3.6,1.8-8.1,2.1-13.4c0.3-5.1-0.1-9.5-0.7-13.1c0.7-1,1.7-2.1,3.1-3.3C589.1,432.4,590.1,431.7,591,431.2z"/>
			<g>
				<path class="st14" d="M570.1,387.1c0.5,7,1.9,12.6,3.2,16.7c0,0,3.9,12.6,11.2,21.2c1.1,1.3,2.2,2.3,2.7,2.7
					c2,1.7,3.1,3.3,5.4,3.7c1.3,0.2,1.4-0.1,3.8,0c3.4,0.1,3.6,0.2,4.5,0.1c1.9-0.3,3.3-1,4.2-1.6c8.9-6.2,14.1-15.1,14.1-15.1
					c2.6-4.3,5.9-11,8.1-20c0.8-1.9,5-12.1,0.2-23.2c-0.8-1.8-3.8-8.5-10.7-12.5c-13.2-7.7-33.5-1.5-42.1,11.9
					C570.9,377,570.2,383.1,570.1,387.1z"/>
				<g>
					<g>
						<path class="st20" d="M584.1,389.4c-4.2-1.9-9.1-2.2-13.6-0.8c2.2-1,4.5-1.5,6.9-1.7c2.4-0.1,4.9,0.2,7.2,1
							c0.4,0.1,0.6,0.6,0.5,1C585,389.4,584.5,389.6,584.1,389.4L584.1,389.4z"/>
					</g>
					<g>
						<path class="st20" d="M573.9,394.1c2.3-2.2,6.7-1.7,8.4,1.1C579.8,393.2,576.8,392.9,573.9,394.1L573.9,394.1z"/>
					</g>
					
						<ellipse transform="matrix(0.1671 -0.9859 0.9859 0.1671 92.3767 897.1469)" class="st20" cx="577.2" cy="393.9" rx="1.1" ry="1"/>
				</g>
				<g>
					<g>
						<path class="st20" d="M596.8,386.9c5.2-1,10.6,0,15,2.5c-4.7-2-9.9-2.3-14.6-0.9C596.1,388.7,595.7,387.1,596.8,386.9
							L596.8,386.9z"/>
					</g>
					<g>
						<path class="st20" d="M607.4,394.3c-2.9-1.6-6.2-1.5-9.1,0C600.6,391.8,605.1,391.8,607.4,394.3L607.4,394.3z"/>
					</g>
					<circle class="st20" cx="601.9" cy="393.8" r="1.1"/>
				</g>
				<path class="st21" d="M591.6,372.9c-9.8,7.6-13.2,17.5-14.2,21.2c0.2-3.3,1.1-8.6,4.1-14.2c1.5-2.7,3.2-4.9,4.6-6.6
					c-1.9,1.3-4.3,3.4-6.4,6.3c-3.9,5.3-5,10.6-5.4,13.5c-0.1-2.2-0.1-5.7,1.4-9.7c1.1-3.1,2.6-5.5,3.8-7c-1.2,1-2.8,2.6-4.2,4.8
					c-2.1,3.3-2.8,6.6-3.1,8.5c-0.2-1.5-0.3-3.8,0.3-6.5c0.5-2.1,1.2-3.8,1.8-5c-0.8,1.2-1.6,2.8-2.3,4.6c-1.9,5.2-1.4,10-0.9,12.5
					c0,0,0,0,0,0c0.1,1.1,0.2,1.5,0.2,1.6c-0.4-1.4-0.9-2.7-1.3-4.1c-0.4-1.4-0.9-3.7-0.8-6.5c0.1-2.7,0.8-4.8,1.3-6.2
					c-0.4,0.6-0.9,1.4-1.3,2.4c-0.7,1.9-0.7,3.5-0.6,4.5c-0.2-1.1-0.4-2.5-0.3-4.2c0.1-2.1,0.6-3.8,1-4.9c-0.5,0.6-1.4,1.9-1.7,3.8
					c-0.2,1.5,0,2.7,0.2,3.3c-0.4-0.9-1-2.4-1.1-4.2c-0.1-1.8,0.1-3.2,0.4-4.1c-0.4,0.6-1.3,2.2-1.1,4.3c0.1,1.1,0.5,2,0.8,2.6
					c-0.8-1.3-1.8-3.4-2.5-6c-3.1-12.3,5-23.1,6.6-25.3c1.7-2.3,9.2-12.4,22.7-14c8.7-1.1,15.5,1.9,18.4,3.3
					c-1.7-1.3-6.2-4.4-12.8-4.9c-5.9-0.4-10.4,1.4-12.4,2.4c3.5-1.4,10.5-3.6,19.3-2.5c3.4,0.4,11.3,1.6,18.3,7.7
					c1.9,1.7,3.3,3.3,4.2,4.6c0.3,0.5,1,1.7,0.9,3.4c-0.2,3-2.9,4.5-3.1,4.6c0.8-0.6,2.3-1.6,4.4-1.8c4.4-0.5,7.5,2.7,7.9,3.1
					c-0.7-0.6-2-1.5-3.8-1.9c-2.5-0.6-4.6,0-5.4,0.3c1.4,0.8,3.2,2.1,4.8,4.3c1.2,1.7,3.3,5.5,2.3,15c-0.4,3.9-1.5,11.4-6.6,22.1
					c-4.2,8.8-9.1,15.6-9.6,15.3c-0.5-0.3,1.8-8,5.7-15.6c1.1-2.1,2.9-5.5,2.1-9.2c-0.2-0.8-0.6-2.7-2.1-3.2
					c-1.6-0.6-3.4,1.1-3.7,1.4c-1.1,1-1.4,2-2.2,4.3c-1.4,4-2.2,6.3-2.6,6.3c-0.3-0.1-0.1-2-0.1-5.8c0.1-7.1-0.4-8.4-1-9.3
					c-1.2-1.9-2.6-1.9-4.3-3.3c-2.1-1.7-4.1-5.4-3.3-14C605.4,365.7,598.5,367.5,591.6,372.9z"/>
				<path class="st19" d="M588.3,407.5c2.2,0.8,3.9,0.8,6.1-0.1C593.3,409.7,589.5,409.7,588.3,407.5z"/>
				<path class="st19" d="M585.6,417.5c0.1-0.3,0.6-0.4,5.1-0.3c6.5,0.1,9.8,0.2,9.9,0.8c0.1,0.9-4.1,3-8.4,2.6
					C588.7,420.2,585.4,418.2,585.6,417.5z"/>
				<path class="st21" d="M608,367.7c-0.4,0.5-0.9,1.2-1.3,2.2c-2.3,5-0.2,10.2,0.5,12.2c1.9,4.9,5.3,7.8,7.1,9.1
					c-1.2-1.2-2.8-3-4.1-5.5c-2.3-4.4-2.5-8.6-2.3-8.7c0.2-0.1,0.5,3.3,3.1,5.8c1.5,1.5,3.2,2.2,4.5,2.6c-1-0.7-3.5-2.6-4.9-6.1
					c-0.9-2.4-0.9-4.6-0.8-5.8c1.2-3.5,2.3-6.9,3.5-10.4c-2.9,0.2-8.5,1.1-14.2,4.8c-7.9,5-11.1,12.2-12.2,14.9
					c1.7-2.9,5.5-8.5,12.6-12.2C602.6,369,605.7,368.1,608,367.7z"/>
				<path class="st14" d="M617.6,398.7c0.3-2.3,1-4.1,2.5-7.8c1.2-3.1,1.9-4.3,3.2-5.3c0.6-0.5,1.7-1.2,2.9-1c1.9,0.3,2.8,2.9,3,3.3
					c1.8,5-2.4,11.1-6.3,14.3c-0.9,0.7-3.5,2.8-4.8,2C617,403.5,617.3,401.1,617.6,398.7z"/>
			</g>
		</g>
	</g>
	<g style="clip-path:url(#SVGID_00000047756292145138585740000003711609901995959198_);">
		<g>
			<g>
				<path class="st8" d="M284.6,630.6c1.8-0.2,3.7-0.5,5.5-0.7c0.7-16.1,1.7-29,2.4-37.6c1.3-15.1,2.3-22.7,0.9-34.1
					c-1.2-9.9-3.8-17.8-5.7-22.8C286.7,567.1,285.7,598.9,284.6,630.6z"/>
				<path class="st10" d="M292.8,662.2c-0.1-0.9-0.3-2.7-0.5-4.9c0,0-2.5-24.7-3.1-48.3c-0.1-4.1-0.2-8.5-0.1-14.5
					c0.4-32.5,4.9-47.8-2.6-61.4c-2.6-4.7-6.1-8.2-6.8-9c-2.7-2.7-7.3-7.3-14.4-8.7c-2.9-0.6-5.1-0.8-9.2,0.1
					c-5,1.2-20.5,3.8-25,10.2c-1.1,1.6-1.6,3.2-2.7,6.5c-2.5,7.8-2.4,14.4-2.3,16.8c0.9,28.5,4.7,51.9,4.7,51.9
					c2.1,13.1,1.9,33.9-8.5,66.9C245.9,665.9,269.4,664,292.8,662.2z"/>
				<path class="st22" d="M272,663.4c0.1-26.7,2.1-64.3,0.7-89.6c-0.7-11.5-1.7-21-2.4-27.2"/>
				<g>
					<path class="st9" d="M266.5,649c3.7-0.8,7.2-1.2,11.1-1.1C274.7,650.8,269.8,651.2,266.5,649L266.5,649z"/>
				</g>
				<g>
					<path class="st9" d="M266.4,616.9c3.8-0.6,7.3-0.7,11.1-0.4C274.5,619.1,269.6,619.3,266.4,616.9L266.4,616.9z"/>
				</g>
				<g>
					<path class="st9" d="M265.6,553.9c3.8-0.3,7.3-0.2,11.1,0.4C273.5,556.6,268.6,556.5,265.6,553.9L265.6,553.9z"/>
				</g>
				<g>
					<path class="st8" d="M248,542.3c5,25.9,9,54.5,12.3,80.7c0,0,0.2,1.3,0.2,1.3s-1.2,0.4-1.2,0.4l-21.1,6.6c0,0-1.9,0.6-1.9,0.6
						l-0.2-2c-1.8-23.7-3.9-49.8-5.1-73.4c-0.2-8.2-0.6-16.3-0.7-24.5c0.8,8.1,1.5,16.3,2.2,24.4c2.3,22.7,4.9,50.5,6.7,73.2
						c0,0-2.1-1.4-2.1-1.4l21.1-6.5l-1.1,1.7l-2.3-20.3C252.9,583.4,250.1,561.9,248,542.3L248,542.3z"/>
				</g>
			</g>
			<path class="st23" d="M254.6,512.2c0,0,12.8,0.9,16.4,3.1l0.5,2.3l-18.4-1.4L254.6,512.2z"/>
			<g>
				<path class="st24" d="M255.7,507l15.1,0.5l0.1,13.7c-0.3,7.5-0.6,14.9-0.9,22.4c-1.2-5.9-2.4-11.8-3.6-17.7
					c-0.6-0.8-1.6-2-3-3.1c0,0-8.5-4.6-8.5-4.6l0,0L255.7,507z"/>
				<path class="st25" d="M270.9,516.1l-0.1-7.5c-5-1.7-10.1-3.3-15.1-5c-0.1,2.5-0.2,5.1-0.2,7.6
					C259.3,513.9,264.5,516.2,270.9,516.1z"/>
				<path class="st26" d="M263.7,439.4c2.5,0.2,7.3,0.7,12.1,3.4c15,8.6,16.8,31.4,12.6,38.2c-0.1,0.2-0.9,1.4-1.9,2.9
					c-1.6,2.3-3.3,4.3-6.5,8.1c-9.1-6.5-31.9,7-31.9,7s-15.8-2.6-18.3-30.6c-0.2-2.5-0.1-7.9,3-13.8c3.8-7.1,9.9-10.4,12.6-11.8
					C246.7,442.1,253.9,438.5,263.7,439.4z"/>
				<path class="st24" d="M288.8,484c-0.9-8,0.9-10.5,0.2-18.1c-0.3-3-1-7.2-3-12.4c0-0.1,0.1-0.4,0-0.9c-0.8-5.1-17.4-9.5-30.9-5.6
					c-3.1,0.9-8.5,3-14.1,8.2c-1.2,3-2.7,7.5-3.1,13.2c-0.9,12.7,4.2,22.1,6.6,26.5c3.4,6,6.8,12.2,14.2,15.3
					c4.4,1.8,8.4,1.9,11.1,1.7c1-0.3,13.1-3.5,17.3-12.5c1.7-3.6,2.1-7.6,2.1-7.6C289.7,488.5,289.1,486.3,288.8,484z"/>
				<g>
					<path d="M266.6,477.3c-4.2-1.4-8.8-1.9-13.2-1.2c4.4-1.1,9.1-1.2,13.6-0.1C267.9,476.2,267.5,477.6,266.6,477.3L266.6,477.3z"
						/>
				</g>
				<g>
					<path d="M277.1,475.9c3-1.2,6.3-1.5,9.3-0.8c-3.1-0.2-6.1,0.6-8.6,2.1C276.9,477.6,276.2,476.3,277.1,475.9L277.1,475.9z"/>
				</g>
				<path class="st26" d="M250.9,469.2c0.1,2.7,0.1,5.9-0.4,9.4c-0.6,4.4-1.6,8.1-2.7,11c-2-0.6-5.9-2.2-9-6.1
					c-0.8-1.1-2.2-3.9-3.8-9.4c-0.7-2.5-2.8-13,2.6-22c6.7-11.1,24.2-18.4,38.8-10.5c13.7,7.3,19.4,24.9,12.2,39.5
					c0.1-2,0-4.3-0.3-6.9c-0.4-2.9-1-5.5-1.6-7.5c-0.2,0.8-0.5,2-1.4,3.4c-0.8,1.2-1.7,2-2.4,2.5c0.5-0.9,1.1-2.4,1.3-4.2
					c0.1-1.1,0-2-0.1-2.7c-0.6,1.8-1.8,4.4-3.9,7c-3.3,4.1-7.1,6-9.2,6.9c1.3-0.7,5.6-3.3,7.4-8.4c0.6-1.9,0.7-3.6,0.7-4.9
					c-0.3,1.4-0.9,3.3-2.1,5.3c-2.1,3.4-5,5.3-6.5,6.1c0.8-0.9,1.9-2.2,2.8-4c1.4-3,1.5-5.8,1.4-7.2c-0.9,2.1-2.5,5.2-5.3,8.2
					c-3.4,3.6-6.9,5.4-9.1,6.4c1.2-0.7,4-2.6,6-6.3c1.9-3.6,1.8-7,1.7-8.4c-0.5,1.8-1.4,4.1-3.1,6.5c-2.6,3.9-5.7,6.1-7.6,7.3
					c1.2-1,4.1-3.8,5.1-8.4c0.5-2.3,0.3-4.2,0.1-5.5c-0.5,2.5-1.5,6.4-4,10.6c-2.3,3.9-5.1,6.6-7,8.2c0.7-1.5,2.1-4.9,1.6-9.2
					C252.6,472.6,251.6,470.5,250.9,469.2z"/>
				<g>
					<g>
						<path class="st27" d="M263.3,482.3c0,0.1,0,1-0.6,1.5c-0.5,0.4-1,0.4-1.1,0.4c-0.3,0-0.6-0.1-0.9-0.2c-0.6-0.3-0.9-1-0.8-1.6
							c0-0.4,0.1-0.7,0.2-0.9c0.5,0,1.2,0.1,1.8,0.3C262.5,482,263,482.1,263.3,482.3z"/>
						<path class="st25" d="M274.2,491.2c0.1,1.1-0.8,2-1.7,2c-0.8,0-1.5-0.7-1.6-1.7c0.1,0.1,0.8,0.6,1.8,0.5
							C273.6,491.9,274.1,491.4,274.2,491.2z"/>
						<path class="st27" d="M255.8,483.7c1.5-2,3.9-2.9,6-2.5c1.6,0.3,2.6,1.4,3,1.9c-0.7-0.4-2.6-1.2-5-0.9
							C257.9,482.4,256.5,483.2,255.8,483.7z"/>
					</g>
				</g>
				<g>
					<g>
						<path class="st27" d="M284.6,481.1c0,0.1,0.3,0.9-0.2,1.6c-0.3,0.5-0.8,0.7-0.9,0.7c-0.3,0.1-0.6,0.1-0.9,0
							c-0.7-0.2-1.1-0.7-1.3-1.3c-0.1-0.4-0.1-0.7,0-0.9c0.5-0.1,1.1-0.2,1.9-0.2C283.7,481,284.2,481.1,284.6,481.1z"/>
						<path class="st27" d="M286.2,481.7c-0.7-0.4-2.7-1.5-5-1c-2,0.5-3.4,2.2-3.3,2.3c0.1,0.2,1.5-1,3.7-1.5
							C283.4,481.2,285,481.4,286.2,481.7z"/>
					</g>
				</g>
				<g>
					<path class="st24" d="M246.1,482.2c-1-2.7-4.5-4.7-6.9-3.1c-3.6,2.5-2.9,8.7-0.6,12.2c1.4,2.1,4.5,4.8,6.6,3.4
						C247.8,492.8,248.1,487.4,246.1,482.2z"/>
				</g>
				<g>
					<path class="st28" d="M272.2,497.6c-3.4,0-6.6-0.9-7.5,0.9c-0.6,1.3,1,6.3,7.1,6.2c4.3-0.1,7.1-3.8,6.7-6.2
						C278.2,496.7,275.6,497.6,272.2,497.6z"/>
					<path class="st29" d="M264.7,500.1c0.5,2,2.5,4.8,7.1,4.7c2.1-0.1,3.8-1,5-2.2C274,499.1,268.9,498,264.7,500.1z"/>
					<path class="st30" d="M264.7,498.6c-0.1,0.1-0.1,0.3-0.1,0.5c4.8,2.9,11.3,2.3,12.6-1.6c-1.1-0.2-3,0.2-5.1,0.2
						C268.8,497.7,265.5,496.8,264.7,498.6z"/>
				</g>
			</g>
			<path class="st9" d="M254.6,512.2c1,2.4,2.3,3.9,3.2,4.8c2.8,2.8,5.3,2.9,7.9,5.8c1.4,1.5,2.2,3.1,2.6,4.2
				c-1.6-0.1-3.8-0.4-6.1-1.4c-5.8-2.6-8.3-7.6-9.1-9.3C253.6,514.9,254.1,513.6,254.6,512.2z"/>
			<path class="st9" d="M270.8,518.2c0,0.2-0.1,0.6-0.2,1.1c-0.2,0.8-0.6,1.4-0.7,1.5c-0.4,0.6-0.6,2,0.2,5.4c0,0,2.2-2.7,2.1-4.9
				c-0.1-2.1-1.3-5.4-1.3-5.4L270.8,518.2z"/>
			<path class="st9" d="M265.7,526.6c0.9,0.1,1.8,0.2,2.6,0.3c0.6,5,1.1,9.9,1.7,14.9c-0.1-5.8-0.2-11.7-0.2-17.5
				c0.6-0.2,1.2-0.3,1.7-0.5c-0.1,8.2-0.1,16.5-0.2,24.7c-0.6,0-1.3-0.1-1.9-0.1C268.2,541.2,266.9,533.9,265.7,526.6z"/>
		</g>
	</g>
</g>
</svg>
