<?xml version="1.0" encoding="utf-8"?>
<!-- Generator: Adobe Illustrator 26.0.1, SVG Export Plug-In . SVG Version: 6.00 Build 0)  -->
<svg version="1.1" id="Layer_1" xmlns="http://www.w3.org/2000/svg" xmlns:xlink="http://www.w3.org/1999/xlink" x="0px" y="0px"
	 viewBox="0 0 826 742" style="enable-background:new 0 0 826 742;" xml:space="preserve">
<style type="text/css">
	.st0{clip-path:url(#SVGID_00000057861042013424013980000008016866374664911035_);}
	.st1{fill:#FFD7DC;}
	.st2{fill:#F7B7C1;}
	.st3{fill:#C6838B;}
	.st4{fill:#EF303E;}
	.st5{fill:#C4233E;}
	.st6{fill:#414042;}
	.st7{fill:#58595B;}
	.st8{fill:#F24C4C;}
	.st9{fill:#395E99;}
	.st10{fill:#FFFFFF;}
	.st11{fill:#D1D1D1;}
	.st12{fill:#F4CCAB;}
	.st13{clip-path:url(#SVGID_00000164512236052372580270000009400959740261318028_);}
	.st14{fill:#211511;}
	.st15{fill:#84030A;}
	.st16{fill:#9F0102;}
	.st17{fill:none;stroke:#F8AE38;stroke-width:1.6471;stroke-miterlimit:10;}
	.st18{fill:#F8AE38;}
	.st19{fill:#E89C2D;}
	.st20{fill:#DDB597;}
	.st21{fill:#1E1A14;}
	.st22{fill:#140408;}
	.st23{fill:#921F33;}
	.st24{fill:#CD3735;}
	.st25{fill:#89513A;}
	.st26{fill:#B5794D;}
	.st27{fill:#FAD4AF;}
	.st28{fill:#F9C295;}
	.st29{fill:#E09D6C;}
	.st30{fill:#CE0D28;}
	.st31{fill:#D10F42;}
	.st32{fill:#FFCA19;}
	.st33{opacity:0.22;}
	.st34{fill:#E01440;}
	.st35{fill:none;stroke:#FFCA19;stroke-width:1.586;stroke-miterlimit:10;}
	.st36{fill:none;stroke:#FFCA19;stroke-width:0.793;stroke-miterlimit:10;}
	.st37{fill:#A04575;}
	.st38{fill:#F5B4B8;}
	.st39{fill:#FCE9ED;}
	.st40{fill:#282125;}
	.st41{fill:#1F1A1C;}
	.st42{fill:#FFF7EF;}
	.st43{fill:#E59B9D;}
	.st44{fill:#F5EFEC;}
	.st45{fill:none;stroke:#2E2A2B;stroke-width:0.1458;stroke-linecap:round;stroke-linejoin:round;stroke-miterlimit:10;}
	.st46{fill:#443E42;}
	.st47{fill:#2E2A2B;}
	.st48{fill:#524A50;}
	.st49{fill:#F4D3BB;}
	.st50{fill:#096633;}
	.st51{fill:#262626;}
	.st52{fill:#157A45;}
	.st53{fill:#DDB99E;}
	.st54{fill:#ED0A30;}
	.st55{fill:#EF6F7B;}
</style>
<g>
	<defs>
		<path id="SVGID_1_" d="M760.2,527.6C655.3,723.5,235.9,739.3,86.8,549.2c-21.4-27.3-27.9-51.9-30.6-79
			C47.7,387.9,88.7,327.9,158,298.8c-0.1-1.6,112.1-24.4,113-40.1c9-13.1,5.4-26.7,5.1-41.5c3.3-78.1,81.4-171.1,182.8-149.1
			c51.3,15.8,61.9,94.1,134.8,109.6c27.6,7.1,38.4,3.2,54.9,8.8c29.4,10.1,42.9,42.9,44.1,45.9c17.5,44.2-27.7,66.6-26.2,119.2
			c1.5,50.9,45.2,80.4,72.6,114.1C753.8,483.9,763.8,503.2,760.2,527.6z"/>
	</defs>
	<clipPath id="SVGID_00000003787005097937104860000000278509918272156088_">
		<use xlink:href="#SVGID_1_"  style="overflow:visible;"/>
	</clipPath>
	<g style="clip-path:url(#SVGID_00000003787005097937104860000000278509918272156088_);">
		<path class="st1" d="M764.5,533.9C659.6,729.8,176.8,703.1,85.7,564.8c-77.2-117.1-15.4-221,76.6-259.7
			c-0.1-1.6,112.1-24.4,113-40.1c9-13.1,5.4-26.7,5.1-41.5c3.3-78.1,81.4-171.1,182.8-149.1c51.3,15.8,61.9,94.1,134.8,109.6
			c27.6,7.1,38.4,3.2,54.9,8.8c29.4,10.1,42.9,42.9,44.1,45.9c17.5,44.2-27.7,66.6-26.2,119.2C673.1,436.2,774.9,463.9,764.5,533.9z
			"/>
		<path class="st2" d="M790.5,536c-2.5,10.1-8.3,27.7-22.9,45.9C654.8,722.8,168.1,717.7,52,561.7c-20.6-27.7-25.9-55.3-27.4-73.5
			c132.1-5.6,271-8.8,416.1-8.9c112.8,0,221.8,1.8,326.8,5.3C783.6,499.6,794.5,515.7,790.5,536z"/>
		<ellipse class="st3" cx="402.2" cy="564" rx="258.2" ry="77.1"/>
	</g>
	<g style="clip-path:url(#SVGID_00000003787005097937104860000000278509918272156088_);">
		<g>
			<g>
				<g id="_x35__00000070113421343540402770000006981051978375931532_">
					<g>
						<path class="st4" d="M369.4,528.1C369.4,528.1,369.4,528.1,369.4,528.1c1.6-1.9,4-3,6.4-3.1c0.9,0,1.7,0.1,2.3,0.2
							c1.1,0.3,1.9,1.4,1.8,2.6l0,0c0,0-8.2,5.1-9.8,4c-0.3-0.2-0.5-0.4-0.7-0.6C368.6,530.3,368.6,529,369.4,528.1z"/>
						<path class="st5" d="M369.9,528.6C369.9,528.5,369.9,528.5,369.9,528.6c1.6-1.6,3.7-2.7,5.9-2.9c0.8-0.1,1.5,0,2,0.1
							c1,0.2,1.6,1,1.5,2l0,0c0,0-7.7,4.6-9.1,3.9c-0.2-0.1-0.4-0.3-0.6-0.4C369.1,530.4,369.2,529.3,369.9,528.6z"/>
					</g>
					<g>
						
							<rect x="381.7" y="527.7" transform="matrix(-0.8899 0.4561 -0.4561 -0.8899 965.8243 823.1278)" class="st6" width="3.7" height="0.9"/>
						<g>
							<g>
								
									<rect x="380.7" y="528.1" transform="matrix(0.8899 -0.4561 0.4561 0.8899 -199.233 232.4501)" class="st4" width="2.4" height="1.8"/>
							</g>
							<path class="st7" d="M354,537.3c0-0.5,0.1-1,0.3-1.3l0.4,0.8L354,537.3z"/>
							<path class="st8" d="M351,536.9c2.2-1.2,5.1-2.7,8.1-4.4c0.3-0.1,0.5-0.3,0.8-0.4c1.4-0.7,2.7-1.5,4.1-2.2l1.4,0.5l-15.5,7.9
								C350,537.8,350.4,537.2,351,536.9z"/>
							<path class="st4" d="M350.1,539.9c-0.1-0.2-0.2-0.4-0.2-0.6c-0.1-0.3-0.1-0.6,0-0.9l15.5-7.9l0.8,0.3l0.3,3.3l0.2,1.8
								l0.1-0.7l11.1-5.7l0.1,0.1l0.6,0.9l0.6,1L352.7,545L350.1,539.9z"/>
							<polygon class="st5" points="379.3,531.4 379.5,531.7 378.5,532.1 377.8,532.5 376.9,533 375.1,534 374.1,534.5 373.4,534.8 
								372.9,535.1 371.8,537.4 361,543 359.1,542.3 358.8,542.5 358.4,542.6 354.5,544.7 354,544.9 353.4,545.3 353,545.5 
								352.7,545 							"/>
							<polygon class="st9" points="361.8,535.1 363.3,535.6 366.5,534 366.7,535.1 366.8,535.1 366.9,536.1 356.7,541.2 
								355.3,540.5 355.2,538.5 							"/>
							<g>
								<path class="st6" d="M370.3,535.9c1.6,3,5.3,4.2,8.3,2.7c3-1.6,4.2-5.3,2.7-8.3c-1.6-3-5.3-4.2-8.3-2.7
									C369.9,529.2,368.7,532.9,370.3,535.9z"/>
								<g>
									<path class="st6" d="M373.2,526.9l1.3-0.7c0.3-0.2,0.7,0,0.8,0.4l0.2,1.1l-2.4,0.5l-0.3-0.5
										C372.8,527.4,373,527.1,373.2,526.9z"/>
									<path class="st6" d="M378.3,528.4l-2.3-0.8l0-0.6c0-0.3,0.3-0.5,0.6-0.5l1.5,0.1c0.4,0,0.6,0.4,0.5,0.7L378.3,528.4z"/>
									<path class="st6" d="M380.4,530.3l-1.6-1.8l0.3-0.5c0.2-0.3,0.5-0.3,0.8-0.2l1.3,0.8c0.3,0.2,0.3,0.6,0.1,0.9L380.4,530.3z
										"/>
									<path class="st6" d="M380.7,530.6l0.5-0.3c0.3-0.1,0.6,0,0.8,0.2l0.7,1.3c0.2,0.3,0,0.7-0.4,0.8l-1.1,0.2L380.7,530.6z"/>
									<path class="st6" d="M381.3,533.4l0.6,0c0.3,0,0.5,0.3,0.5,0.6l-0.1,1.5c0,0.4-0.4,0.6-0.7,0.5l-1.1-0.4L381.3,533.4z"/>
									<path class="st6" d="M380.9,536.4c0.3,0.2,0.3,0.5,0.2,0.8l-0.8,1.3c-0.2,0.3-0.6,0.3-0.9,0.1l-0.8-0.9l1.8-1.6
										L380.9,536.4z"/>
									<path class="st6" d="M375.9,538.5l2.4-0.5l0.3,0.5c0.1,0.3,0,0.6-0.2,0.8L377,540c-0.3,0.2-0.7,0-0.8-0.4L375.9,538.5z"/>
									<path class="st6" d="M373.2,537.9l2.3,0.8l0,0.6c0,0.3-0.3,0.5-0.6,0.5l-1.5-0.1c-0.4,0-0.6-0.4-0.5-0.7L373.2,537.9z"/>
									<path class="st6" d="M370.4,536.7l0.9-0.8l1.6,1.8l-0.3,0.5c-0.2,0.3-0.5,0.3-0.8,0.2l-1.3-0.8
										C370.1,537.4,370.1,537,370.4,536.7z"/>
									<path class="st6" d="M370.9,535.6l-0.5,0.3c-0.3,0.1-0.6,0-0.8-0.2l-0.7-1.3c-0.2-0.3,0-0.7,0.4-0.8l1.1-0.2L370.9,535.6z"
										/>
									<path class="st6" d="M370.3,532.8l-0.6,0c-0.3,0-0.5-0.3-0.5-0.6l0.1-1.5c0-0.4,0.4-0.6,0.7-0.5l1.1,0.4L370.3,532.8z"/>
									<path class="st6" d="M370.6,529.8c-0.3-0.2-0.3-0.5-0.2-0.8l0.8-1.3c0.2-0.3,0.6-0.3,0.9-0.1l0.8,0.9l-1.8,1.6L370.6,529.8
										z"/>
								</g>
								<path class="st10" d="M372.2,534.9c-1-2-0.2-4.4,1.7-5.4c0.9-0.5,1.9-0.5,2.8-0.3l-2.4,7.6
									C373.5,536.5,372.7,535.8,372.2,534.9z"/>
								<path class="st11" d="M376.8,529.3c1.1,0.3,2,1,2.5,2c1,2,0.2,4.4-1.7,5.4c-1.1,0.5-2.2,0.6-3.3,0.2L376.8,529.3z"/>
								<path class="st6" d="M373.9,534.1c0.5,1,1.8,1.5,2.9,0.9c1-0.5,1.5-1.8,0.9-2.9c-0.5-1-1.8-1.5-2.9-0.9
									C373.8,531.8,373.3,533,373.9,534.1z"/>
								<g>
									<path class="st6" d="M375.6,529.5c0.2-0.1,0.5,0,0.6,0.2c0.1,0.2,0,0.5-0.2,0.6c-0.2,0.1-0.5,0-0.6-0.2
										C375.3,529.8,375.4,529.6,375.6,529.5z"/>
									<path class="st6" d="M378,530.2c0.2,0.1,0.4,0.3,0.3,0.5c-0.1,0.2-0.3,0.4-0.5,0.3c-0.2-0.1-0.4-0.3-0.3-0.5
										C377.5,530.3,377.7,530.1,378,530.2z"/>
									<path class="st6" d="M378.7,532.1c0.2-0.1,0.5-0.1,0.6,0.1c0.1,0.2,0.1,0.5-0.1,0.6c-0.2,0.1-0.5,0.1-0.6-0.1
										C378.5,532.5,378.5,532.3,378.7,532.1z"/>
									<path class="st6" d="M378.6,534.2c0.2,0,0.4,0.2,0.4,0.5c0,0.2-0.2,0.4-0.5,0.4c-0.2,0-0.4-0.2-0.4-0.5
										C378.2,534.4,378.4,534.2,378.6,534.2z"/>
									<path class="st6" d="M376.6,535.8c0.2-0.2,0.4-0.2,0.6,0c0.2,0.2,0.2,0.4,0,0.6c-0.2,0.2-0.4,0.2-0.6,0
										C376.5,536.2,376.5,535.9,376.6,535.8z"/>
									<path class="st6" d="M374.7,535.7c0.2,0,0.5,0.1,0.5,0.4c0,0.2-0.1,0.5-0.4,0.5c-0.2,0-0.5-0.1-0.5-0.4
										C374.3,535.9,374.5,535.7,374.7,535.7z"/>
									<path class="st6" d="M372.7,534.5c0.1-0.2,0.4-0.3,0.6-0.1c0.2,0.1,0.3,0.4,0.1,0.6c-0.1,0.2-0.4,0.3-0.6,0.1
										C372.6,534.9,372.6,534.7,372.7,534.5z"/>
									<path class="st6" d="M372.8,533c-0.2,0.1-0.5-0.1-0.5-0.3c-0.1-0.2,0.1-0.5,0.3-0.5c0.2-0.1,0.5,0.1,0.5,0.3
										C373.1,532.6,373,532.9,372.8,533z"/>
									<path class="st6" d="M373.9,530.2c0.2,0.1,0.3,0.3,0.2,0.6c-0.1,0.2-0.3,0.3-0.6,0.2c-0.2-0.1-0.3-0.3-0.2-0.6
										C373.4,530.2,373.7,530.1,373.9,530.2z"/>
								</g>
								<path class="st4" d="M374.8,533.6c0.3,0.5,1,0.8,1.5,0.5c0.5-0.3,0.8-1,0.5-1.5c-0.3-0.5-1-0.8-1.5-0.5
									C374.7,532.4,374.5,533.1,374.8,533.6z"/>
							</g>
							<g>
								<path class="st6" d="M352.6,547.3c1.2,2.4,4.1,3.3,6.5,2.1c2.4-1.2,3.3-4.1,2.1-6.5c-1.2-2.4-4.1-3.3-6.5-2.1
									S351.4,544.9,352.6,547.3z"/>
								<path class="st10" d="M353.7,546.7c-0.9-1.7-0.2-3.9,1.5-4.8c0.9-0.5,1.9-0.5,2.8-0.2l-2.2,6.7
									C355,548.2,354.2,547.6,353.7,546.7z"/>
								<path class="st11" d="M358.1,541.8c0.8,0.3,1.5,0.9,2,1.7c0.9,1.7,0.2,3.9-1.5,4.8c-0.8,0.4-1.8,0.5-2.6,0.2L358.1,541.8z"
									/>
								<path class="st6" d="M355.8,545.6c0.3,0.6,1,0.8,1.6,0.5s0.8-1,0.5-1.6c-0.3-0.6-1-0.8-1.6-0.5
									C355.7,544.3,355.5,545.1,355.8,545.6z"/>
								<g>
									<circle class="st6" cx="356.9" cy="542.2" r="0.4"/>
									<path class="st6" d="M358.8,542.5c0.2,0,0.3,0.3,0.3,0.5c0,0.2-0.3,0.3-0.5,0.3s-0.3-0.3-0.3-0.5
										C358.4,542.5,358.6,542.4,358.8,542.5z"/>
									<path class="st6" d="M359.5,544.2c0.2-0.1,0.4-0.1,0.5,0.1c0.1,0.2,0.1,0.4-0.1,0.5c-0.2,0.1-0.4,0.1-0.5-0.1
										C359.3,544.6,359.3,544.3,359.5,544.2z"/>
									<path class="st6" d="M359.4,546.1c0.2,0,0.4,0.2,0.4,0.4c0,0.2-0.2,0.4-0.4,0.4c-0.2,0-0.4-0.2-0.4-0.4
										C359,546.2,359.2,546,359.4,546.1z"/>
									<path class="st6" d="M357.6,547.4c0.1-0.2,0.4-0.2,0.5,0c0.2,0.1,0.2,0.4,0,0.5c-0.1,0.2-0.4,0.2-0.5,0
										C357.5,547.8,357.5,547.6,357.6,547.4z"/>
									<path class="st6" d="M355.9,547.3c0.2,0,0.4,0.1,0.4,0.3c0,0.2-0.1,0.4-0.3,0.4c-0.2,0-0.4-0.1-0.4-0.3
										C355.6,547.6,355.7,547.4,355.9,547.3z"/>
									<path class="st6" d="M354.1,546.3c0.1-0.2,0.4-0.2,0.5-0.1c0.2,0.1,0.2,0.4,0.1,0.5c-0.1,0.2-0.4,0.2-0.5,0.1
										C354.1,546.7,354,546.5,354.1,546.3z"/>
									<path class="st6" d="M354.2,544.9c-0.2,0.1-0.4-0.1-0.5-0.3c-0.1-0.2,0.1-0.4,0.3-0.5c0.2-0.1,0.4,0.1,0.5,0.3
										C354.5,544.7,354.4,544.9,354.2,544.9z"/>
									<path class="st6" d="M355.2,542.5c0.2,0.1,0.3,0.3,0.2,0.5c-0.1,0.2-0.3,0.3-0.5,0.2c-0.2-0.1-0.3-0.3-0.2-0.5
										C354.8,542.5,355,542.4,355.2,542.5z"/>
								</g>
							</g>
							<g>
								<path class="st6" d="M350.1,539.9l0.1,0.1l0.9-0.5c0.1,0,0.2-0.1,0.2-0.2c0-0.1,0-0.2,0-0.3c-0.1-0.2-0.3-0.3-0.5-0.2
									l-0.9,0.4C349.9,539.5,350,539.7,350.1,539.9z"/>
								<path class="st6" d="M350.3,540.3l0.3,0.7l0.9-0.5c0.1,0,0.2-0.1,0.2-0.2c0-0.1,0-0.2,0-0.3c-0.1-0.2-0.3-0.3-0.5-0.2
									L350.3,540.3z"/>
								<path class="st6" d="M350.8,541.3l0.3,0.7l0.9-0.5c0.1,0,0.2-0.1,0.2-0.2c0-0.1,0-0.2,0-0.3c-0.1-0.2-0.3-0.3-0.5-0.2
									L350.8,541.3z"/>
								<path class="st6" d="M351.3,542.2l0.3,0.7l0.9-0.5c0.1,0,0.2-0.1,0.2-0.2c0-0.1,0-0.2,0-0.3c-0.1-0.2-0.3-0.3-0.5-0.2
									L351.3,542.2z"/>
								
									<rect x="361" y="531.8" transform="matrix(0.8899 -0.4561 0.4561 0.8899 -202.7525 223.909)" class="st6" width="3" height="0.4"/>
								
									<rect x="361.3" y="532.5" transform="matrix(0.8899 -0.4561 0.4561 0.8899 -203.0192 224.1385)" class="st6" width="3" height="0.4"/>
								
									<rect x="361.7" y="533.1" transform="matrix(0.8899 -0.4561 0.4561 0.8899 -203.286 224.368)" class="st6" width="3" height="0.4"/>
							</g>
							<path class="st6" d="M363.9,529.7c0.3,0.1,0.6,0.3,0.9,0.3l-0.1,0.2l0.7,0.5l0.1-0.6c0.6,0,1.2-0.1,1.6-0.3l0,0
								c0.3-0.2,0.5-0.4,0.5-0.7c0-0.6-0.9-1.2-2.1-1.3c-0.7-0.1-1.3,0-1.8,0.3c-0.3,0.2-0.5,0.4-0.5,0.7
								C363.2,529.1,363.4,529.4,363.9,529.7z M367.1,528.6l-1.5,1.1l-0.5-0.1l-1-1.3c0.4-0.1,0.9-0.2,1.4-0.2
								C366.2,528.2,366.8,528.4,367.1,528.6z M367.1,529.6c-0.3,0.2-0.8,0.3-1.3,0.3l1.6-1.1c0.1,0.1,0.2,0.3,0.2,0.4
								C367.5,529.3,367.3,529.5,367.1,529.6L367.1,529.6z M363.5,528.8c0-0.2,0.2-0.3,0.4-0.5c0,0,0,0,0,0l0.9,1.3l0,0.1
								c-0.3-0.1-0.6-0.2-0.8-0.3C363.6,529.3,363.5,529.1,363.5,528.8z"/>
						</g>
					</g>
				</g>
				<g>
					<path class="st12" d="M382.4,525.7c2.2,2,1.6,5.7-1.1,6.9c-0.3,0.1-0.6,0.2-0.9,0.3c-1.9,0.3-3.5,0.5-3.5,0.5s-3.4,2.6-4.6,2.7
						c-1.4,0.2-2.2-0.4-2.2-0.9c0-0.6,2.6-2.3,3.4-2.9c0.8-0.7,2.6-2,2.6-2l-3.8-1.7c0,0-5.6,3.4-6.6,3.2c-1-0.2-1.2-0.5-1.2-0.5
						s-2.5,1.3-3.4-0.3c4.4-3.8,6.9-5.1,8.2-5.7C370.6,524.7,381.2,524.6,382.4,525.7C382.4,525.7,382.4,525.7,382.4,525.7z"/>
					<path class="st12" d="M383.2,529.6c0,0-3,0.3-4.7-0.3c-1.8-0.6-7.3-3.6-7.3-3.6s-3.5,1.8-4.3,2.4c-0.9,0.6-2.6,2.3-3.7,2.5
						c-1.1,0.2-1.9-0.2-1.8-0.6c0.2-0.4,3.3-3.7,3.8-4.2c0.5-0.5,4.4-2.9,5.6-3.3c1.2-0.4,6.6,0.4,9.6,1.6
						C383.2,525.2,383.5,528.9,383.2,529.6z"/>
				</g>
				<path class="st12" d="M382.7,527.9c0.6,1,0.3,2.2,0.8,2.3c0.4,0.1,0.6-0.4,1.6-0.8c0.5-0.2,0.8-0.2,1.4-0.3
					c0.7-0.1,1.9-0.3,3.4-0.4c-0.3-2.1-0.5-4.1-0.8-6.2c-1.6,0.7-3,0.9-3.9,1c-2.4,0.2-5.4-0.3-5.6-0.4c-1.4-0.2-2.9-0.2-2.9-0.2
					s0.5,1.5,0.6,1.6C379,526.9,381.7,526.1,382.7,527.9z"/>
				<g>
					<defs>
						<path id="SVGID_00000120559637955186874940000002796173946543811992_" d="M370.9,526.7c1.1,0,2.4-0.1,3.5,0.7
							c1.1,0.8,1.5,2,1.7,2.8c-1.7,1-4.3,2.3-7.8,2.9c-3.2,0.6-9.9,1.1-10.8-1.4c-0.7-1.7,1.5-4.8,4.1-5.9
							C364.3,524.8,365.1,526.8,370.9,526.7z"/>
					</defs>
					<clipPath id="SVGID_00000165192458766672041430000010564946780285055647_">
						<use xlink:href="#SVGID_00000120559637955186874940000002796173946543811992_"  style="overflow:visible;"/>
					</clipPath>
					
						<g id="_x35__00000136400149210391355520000015175504893657934210_" style="clip-path:url(#SVGID_00000165192458766672041430000010564946780285055647_);">
						<g>
							<path class="st4" d="M369.4,528.1C369.4,528.1,369.4,528.1,369.4,528.1c1.6-1.9,4-3,6.4-3.1c0.9,0,1.7,0.1,2.3,0.2
								c1.1,0.3,1.9,1.4,1.8,2.6l0,0c0,0-8.2,5.1-9.8,4c-0.3-0.2-0.5-0.4-0.7-0.6C368.6,530.3,368.6,529,369.4,528.1z"/>
							<path class="st5" d="M369.9,528.6C369.9,528.5,369.9,528.5,369.9,528.6c1.6-1.6,3.7-2.7,5.9-2.9c0.8-0.1,1.5,0,2,0.1
								c1,0.2,1.6,1,1.5,2l0,0c0,0-7.7,4.6-9.1,3.9c-0.2-0.1-0.4-0.3-0.6-0.4C369.1,530.4,369.2,529.3,369.9,528.6z"/>
						</g>
						<g>
							
								<rect x="381.7" y="527.7" transform="matrix(-0.8899 0.4561 -0.4561 -0.8899 965.8243 823.1278)" class="st6" width="3.7" height="0.9"/>
							<g>
								<g>
									
										<rect x="380.7" y="528.1" transform="matrix(0.8899 -0.4561 0.4561 0.8899 -199.233 232.4501)" class="st4" width="2.4" height="1.8"/>
								</g>
								<path class="st7" d="M354,537.3c0-0.5,0.1-1,0.3-1.3l0.4,0.8L354,537.3z"/>
								<path class="st8" d="M351,536.9c2.2-1.2,5.1-2.7,8.1-4.4c0.3-0.1,0.5-0.3,0.8-0.4c1.4-0.7,2.7-1.5,4.1-2.2l1.4,0.5
									l-15.5,7.9C350,537.8,350.4,537.2,351,536.9z"/>
								<path class="st4" d="M350.1,539.9c-0.1-0.2-0.2-0.4-0.2-0.6c-0.1-0.3-0.1-0.6,0-0.9l15.5-7.9l0.8,0.3l0.3,3.3l0.2,1.8
									l0.1-0.7l11.1-5.7l0.1,0.1l0.6,0.9l0.6,1L352.7,545L350.1,539.9z"/>
								<polygon class="st5" points="379.3,531.4 379.5,531.7 378.5,532.1 377.8,532.5 376.9,533 375.1,534 374.1,534.5 
									373.4,534.8 372.9,535.1 371.8,537.4 361,543 359.1,542.3 358.8,542.5 358.4,542.6 354.5,544.7 354,544.9 353.4,545.3 
									353,545.5 352.7,545 								"/>
								<polygon class="st9" points="361.8,535.1 363.3,535.6 366.5,534 366.7,535.1 366.8,535.1 366.9,536.1 356.7,541.2 
									355.3,540.5 355.2,538.5 								"/>
								<g>
									<path class="st6" d="M370.3,535.9c1.6,3,5.3,4.2,8.3,2.7c3-1.6,4.2-5.3,2.7-8.3c-1.6-3-5.3-4.2-8.3-2.7
										C369.9,529.2,368.7,532.9,370.3,535.9z"/>
									<g>
										<path class="st6" d="M373.2,526.9l1.3-0.7c0.3-0.2,0.7,0,0.8,0.4l0.2,1.1l-2.4,0.5l-0.3-0.5
											C372.8,527.4,373,527.1,373.2,526.9z"/>
										<path class="st6" d="M378.3,528.4l-2.3-0.8l0-0.6c0-0.3,0.3-0.5,0.6-0.5l1.5,0.1c0.4,0,0.6,0.4,0.5,0.7L378.3,528.4z"/>
										<path class="st6" d="M380.4,530.3l-1.6-1.8l0.3-0.5c0.2-0.3,0.5-0.3,0.8-0.2l1.3,0.8c0.3,0.2,0.3,0.6,0.1,0.9L380.4,530.3
											z"/>
										<path class="st6" d="M380.7,530.6l0.5-0.3c0.3-0.1,0.6,0,0.8,0.2l0.7,1.3c0.2,0.3,0,0.7-0.4,0.8l-1.1,0.2L380.7,530.6z"/>
										<path class="st6" d="M381.3,533.4l0.6,0c0.3,0,0.5,0.3,0.5,0.6l-0.1,1.5c0,0.4-0.4,0.6-0.7,0.5l-1.1-0.4L381.3,533.4z"/>
										<path class="st6" d="M380.9,536.4c0.3,0.2,0.3,0.5,0.2,0.8l-0.8,1.3c-0.2,0.3-0.6,0.3-0.9,0.1l-0.8-0.9l1.8-1.6
											L380.9,536.4z"/>
										<path class="st6" d="M375.9,538.5l2.4-0.5l0.3,0.5c0.1,0.3,0,0.6-0.2,0.8L377,540c-0.3,0.2-0.7,0-0.8-0.4L375.9,538.5z"/>
										<path class="st6" d="M373.2,537.9l2.3,0.8l0,0.6c0,0.3-0.3,0.5-0.6,0.5l-1.5-0.1c-0.4,0-0.6-0.4-0.5-0.7L373.2,537.9z"/>
										<path class="st6" d="M370.4,536.7l0.9-0.8l1.6,1.8l-0.3,0.5c-0.2,0.3-0.5,0.3-0.8,0.2l-1.3-0.8
											C370.1,537.4,370.1,537,370.4,536.7z"/>
										<path class="st6" d="M370.9,535.6l-0.5,0.3c-0.3,0.1-0.6,0-0.8-0.2l-0.7-1.3c-0.2-0.3,0-0.7,0.4-0.8l1.1-0.2L370.9,535.6z
											"/>
										<path class="st6" d="M370.3,532.8l-0.6,0c-0.3,0-0.5-0.3-0.5-0.6l0.1-1.5c0-0.4,0.4-0.6,0.7-0.5l1.1,0.4L370.3,532.8z"/>
										<path class="st6" d="M370.6,529.8c-0.3-0.2-0.3-0.5-0.2-0.8l0.8-1.3c0.2-0.3,0.6-0.3,0.9-0.1l0.8,0.9l-1.8,1.6
											L370.6,529.8z"/>
									</g>
									<path class="st10" d="M372.2,534.9c-1-2-0.2-4.4,1.7-5.4c0.9-0.5,1.9-0.5,2.8-0.3l-2.4,7.6
										C373.5,536.5,372.7,535.8,372.2,534.9z"/>
									<path class="st11" d="M376.8,529.3c1.1,0.3,2,1,2.5,2c1,2,0.2,4.4-1.7,5.4c-1.1,0.5-2.2,0.6-3.3,0.2L376.8,529.3z"/>
									<path class="st6" d="M373.9,534.1c0.5,1,1.8,1.5,2.9,0.9c1-0.5,1.5-1.8,0.9-2.9c-0.5-1-1.8-1.5-2.9-0.9
										C373.8,531.8,373.3,533,373.9,534.1z"/>
									<g>
										<path class="st6" d="M375.6,529.5c0.2-0.1,0.5,0,0.6,0.2c0.1,0.2,0,0.5-0.2,0.6c-0.2,0.1-0.5,0-0.6-0.2
											C375.3,529.8,375.4,529.6,375.6,529.5z"/>
										<path class="st6" d="M378,530.2c0.2,0.1,0.4,0.3,0.3,0.5c-0.1,0.2-0.3,0.4-0.5,0.3c-0.2-0.1-0.4-0.3-0.3-0.5
											C377.5,530.3,377.7,530.1,378,530.2z"/>
										<path class="st6" d="M378.7,532.1c0.2-0.1,0.5-0.1,0.6,0.1c0.1,0.2,0.1,0.5-0.1,0.6c-0.2,0.1-0.5,0.1-0.6-0.1
											C378.5,532.5,378.5,532.3,378.7,532.1z"/>
										<path class="st6" d="M378.6,534.2c0.2,0,0.4,0.2,0.4,0.5c0,0.2-0.2,0.4-0.5,0.4c-0.2,0-0.4-0.2-0.4-0.5
											C378.2,534.4,378.4,534.2,378.6,534.2z"/>
										<path class="st6" d="M376.6,535.8c0.2-0.2,0.4-0.2,0.6,0c0.2,0.2,0.2,0.4,0,0.6c-0.2,0.2-0.4,0.2-0.6,0
											C376.5,536.2,376.5,535.9,376.6,535.8z"/>
										<path class="st6" d="M374.7,535.7c0.2,0,0.5,0.1,0.5,0.4c0,0.2-0.1,0.5-0.4,0.5c-0.2,0-0.5-0.1-0.5-0.4
											C374.3,535.9,374.5,535.7,374.7,535.7z"/>
										<path class="st6" d="M372.7,534.5c0.1-0.2,0.4-0.3,0.6-0.1c0.2,0.1,0.3,0.4,0.1,0.6c-0.1,0.2-0.4,0.3-0.6,0.1
											C372.6,534.9,372.6,534.7,372.7,534.5z"/>
										<path class="st6" d="M372.8,533c-0.2,0.1-0.5-0.1-0.5-0.3c-0.1-0.2,0.1-0.5,0.3-0.5c0.2-0.1,0.5,0.1,0.5,0.3
											C373.1,532.6,373,532.9,372.8,533z"/>
										<path class="st6" d="M373.9,530.2c0.2,0.1,0.3,0.3,0.2,0.6c-0.1,0.2-0.3,0.3-0.6,0.2c-0.2-0.1-0.3-0.3-0.2-0.6
											C373.4,530.2,373.7,530.1,373.9,530.2z"/>
									</g>
									<path class="st4" d="M374.8,533.6c0.3,0.5,1,0.8,1.5,0.5c0.5-0.3,0.8-1,0.5-1.5c-0.3-0.5-1-0.8-1.5-0.5
										C374.7,532.4,374.5,533.1,374.8,533.6z"/>
								</g>
								<g>
									<path class="st6" d="M352.6,547.3c1.2,2.4,4.1,3.3,6.5,2.1c2.4-1.2,3.3-4.1,2.1-6.5c-1.2-2.4-4.1-3.3-6.5-2.1
										S351.4,544.9,352.6,547.3z"/>
									<path class="st10" d="M353.7,546.7c-0.9-1.7-0.2-3.9,1.5-4.8c0.9-0.5,1.9-0.5,2.8-0.2l-2.2,6.7
										C355,548.2,354.2,547.6,353.7,546.7z"/>
									<path class="st11" d="M358.1,541.8c0.8,0.3,1.5,0.9,2,1.7c0.9,1.7,0.2,3.9-1.5,4.8c-0.8,0.4-1.8,0.5-2.6,0.2L358.1,541.8z"
										/>
									<path class="st6" d="M355.8,545.6c0.3,0.6,1,0.8,1.6,0.5s0.8-1,0.5-1.6c-0.3-0.6-1-0.8-1.6-0.5
										C355.7,544.3,355.5,545.1,355.8,545.6z"/>
									<g>
										<circle class="st6" cx="356.9" cy="542.2" r="0.4"/>
										<path class="st6" d="M358.8,542.5c0.2,0,0.3,0.3,0.3,0.5c0,0.2-0.3,0.3-0.5,0.3s-0.3-0.3-0.3-0.5
											C358.4,542.5,358.6,542.4,358.8,542.5z"/>
										<path class="st6" d="M359.5,544.2c0.2-0.1,0.4-0.1,0.5,0.1c0.1,0.2,0.1,0.4-0.1,0.5c-0.2,0.1-0.4,0.1-0.5-0.1
											C359.3,544.6,359.3,544.3,359.5,544.2z"/>
										<path class="st6" d="M359.4,546.1c0.2,0,0.4,0.2,0.4,0.4c0,0.2-0.2,0.4-0.4,0.4c-0.2,0-0.4-0.2-0.4-0.4
											C359,546.2,359.2,546,359.4,546.1z"/>
										<path class="st6" d="M357.6,547.4c0.1-0.2,0.4-0.2,0.5,0c0.2,0.1,0.2,0.4,0,0.5c-0.1,0.2-0.4,0.2-0.5,0
											C357.5,547.8,357.5,547.6,357.6,547.4z"/>
										<path class="st6" d="M355.9,547.3c0.2,0,0.4,0.1,0.4,0.3c0,0.2-0.1,0.4-0.3,0.4c-0.2,0-0.4-0.1-0.4-0.3
											C355.6,547.6,355.7,547.4,355.9,547.3z"/>
										<path class="st6" d="M354.1,546.3c0.1-0.2,0.4-0.2,0.5-0.1c0.2,0.1,0.2,0.4,0.1,0.5c-0.1,0.2-0.4,0.2-0.5,0.1
											C354.1,546.7,354,546.5,354.1,546.3z"/>
										<path class="st6" d="M354.2,544.9c-0.2,0.1-0.4-0.1-0.5-0.3c-0.1-0.2,0.1-0.4,0.3-0.5c0.2-0.1,0.4,0.1,0.5,0.3
											C354.5,544.7,354.4,544.9,354.2,544.9z"/>
										<path class="st6" d="M355.2,542.5c0.2,0.1,0.3,0.3,0.2,0.5c-0.1,0.2-0.3,0.3-0.5,0.2c-0.2-0.1-0.3-0.3-0.2-0.5
											C354.8,542.5,355,542.4,355.2,542.5z"/>
									</g>
								</g>
								<g>
									<path class="st6" d="M350.1,539.9l0.1,0.1l0.9-0.5c0.1,0,0.2-0.1,0.2-0.2c0-0.1,0-0.2,0-0.3c-0.1-0.2-0.3-0.3-0.5-0.2
										l-0.9,0.4C349.9,539.5,350,539.7,350.1,539.9z"/>
									<path class="st6" d="M350.3,540.3l0.3,0.7l0.9-0.5c0.1,0,0.2-0.1,0.2-0.2c0-0.1,0-0.2,0-0.3c-0.1-0.2-0.3-0.3-0.5-0.2
										L350.3,540.3z"/>
									<path class="st6" d="M350.8,541.3l0.3,0.7l0.9-0.5c0.1,0,0.2-0.1,0.2-0.2c0-0.1,0-0.2,0-0.3c-0.1-0.2-0.3-0.3-0.5-0.2
										L350.8,541.3z"/>
									<path class="st6" d="M351.3,542.2l0.3,0.7l0.9-0.5c0.1,0,0.2-0.1,0.2-0.2c0-0.1,0-0.2,0-0.3c-0.1-0.2-0.3-0.3-0.5-0.2
										L351.3,542.2z"/>
									
										<rect x="361" y="531.8" transform="matrix(0.8899 -0.4561 0.4561 0.8899 -202.7525 223.909)" class="st6" width="3" height="0.4"/>
									
										<rect x="361.3" y="532.5" transform="matrix(0.8899 -0.4561 0.4561 0.8899 -203.0192 224.1385)" class="st6" width="3" height="0.4"/>
									
										<rect x="361.7" y="533.1" transform="matrix(0.8899 -0.4561 0.4561 0.8899 -203.286 224.368)" class="st6" width="3" height="0.4"/>
								</g>
								<path class="st6" d="M363.9,529.7c0.3,0.1,0.6,0.3,0.9,0.3l-0.1,0.2l0.7,0.5l0.1-0.6c0.6,0,1.2-0.1,1.6-0.3l0,0
									c0.3-0.2,0.5-0.4,0.5-0.7c0-0.6-0.9-1.2-2.1-1.3c-0.7-0.1-1.3,0-1.8,0.3c-0.3,0.2-0.5,0.4-0.5,0.7
									C363.2,529.1,363.4,529.4,363.9,529.7z M367.1,528.6l-1.5,1.1l-0.5-0.1l-1-1.3c0.4-0.1,0.9-0.2,1.4-0.2
									C366.2,528.2,366.8,528.4,367.1,528.6z M367.1,529.6c-0.3,0.2-0.8,0.3-1.3,0.3l1.6-1.1c0.1,0.1,0.2,0.3,0.2,0.4
									C367.5,529.3,367.3,529.5,367.1,529.6L367.1,529.6z M363.5,528.8c0-0.2,0.2-0.3,0.4-0.5c0,0,0,0,0,0l0.9,1.3l0,0.1
									c-0.3-0.1-0.6-0.2-0.8-0.3C363.6,529.3,363.5,529.1,363.5,528.8z"/>
							</g>
						</g>
					</g>
				</g>
			</g>
			<g>
				<g>
					<path class="st12" d="M460.1,564.7c4.3-1.1,8.6-2.1,12.9-3.2c0,3.2,0,6.3,0.1,9.5c-4.3,0.8-8.6,1.6-12.9,2.4
						C460.1,570.5,460.1,567.6,460.1,564.7z"/>
					<path class="st14" d="M472.4,562.1c0,5.4-0.1,11-0.4,16.8c-0.1,3-0.3,5.9-0.5,8.9c0.3,0.7,0.8,1.7,1.9,2.4
						c2.3,1.4,5.6,0.2,7.4-1.5c2.1-2.1,1.9-4.9,1.5-13.2c-0.1-3-0.3-7.7-0.5-13.6c-1.4-2.2-3.9-3.3-6.1-2.6
						C473.5,559.7,472.6,561.7,472.4,562.1z"/>
				</g>
				<path class="st15" d="M452.6,547c0.3,2.2,0.3,4.9-0.7,7.8c-3.6,9.6-16.3,11.4-17.8,11.6c-4.1,0.5-7.5-0.1-9.7-0.7
					c14.1-2.8,28.1-5.6,42.2-8.5c0,7.4,0.1,14.8,0.1,22.2c-24.6,3.7-49.2,7.5-73.8,11.2c-1.6-0.3-11.1-2.4-15.4-10.9
					c-1.4-2.8-1.9-5.5-2-7.6c-1.2-0.1-2.9-0.5-4.6-1.6c-5.5-3.4-5.8-10.4-5.8-11.1c-0.2-5.5,3.1-10.8,8.3-13.9
					C399.6,546.1,426.1,546.5,452.6,547z"/>
				<g>
					<g>
						<g>
							<path class="st15" d="M410.1,525.1c-8.1,2.8-16.1,5.6-24.2,8.5c-2.7-5.1-5.4-10.3-8.2-15.4c6.8-2.6,13.5-5.1,20.3-7.7
								c4.6-9.7,9.3-19.3,13.9-29C411.3,496.1,410.7,510.6,410.1,525.1z"/>
							<path class="st16" d="M362.9,544.2c14.9-3.7,29.8-7.5,44.8-11.2c0.6-5.5,1.1-11,1.6-16.6c1.1-11.8,1.9-23.4,2.6-34.8
								c1.8-3.2,3.7-5.4,5.2-6.9c3.8-3.8,8-6.1,11-6.7c2.2-0.4,3.9-0.6,7,0.1c3.8,0.9,15.7,2.9,19.1,7.8c0.9,1.2,1.3,2.5,2.1,5
								c1.4,4.3,1.7,8.1,1.8,10.6c0,0.1,0,1.2,0,2.3c-0.2,6.7-3.6,45.2-4.6,56.2c-22.6,5.4-45.3,10.9-67.9,16.3
								C378,558.9,370.4,551.5,362.9,544.2z"/>
							<path class="st17" d="M374.8,555.1c15.7-4.5,31.4-9.1,47-13.6c-0.1-9,0.1-18.6,0.7-28.7c0.4-7.3,1.1-14.2,1.9-20.9"/>
							<g>
								<path class="st18" d="M426.4,536.9c-2.5,1.7-6.3,1.3-8.5-0.8C420.9,536,423.5,536.3,426.4,536.9L426.4,536.9z"/>
							</g>
							<g>
								<path class="st18" d="M426.4,516.6c-2.4,1.8-6.2,1.7-8.5-0.3C420.8,516.1,423.5,516.2,426.4,516.6L426.4,516.6z"/>
							</g>
							<g>
								<path class="st18" d="M428,497.5c-2.3,2-6.1,2.1-8.5,0.3C422.4,497.4,425.1,497.3,428,497.5L428,497.5z"/>
							</g>
							<path class="st16" d="M441.4,488.7c-1,9.6-2,19.2-3.1,28.9c-0.4,3.4-0.8,6.9-1.2,10.3c-13.4,3.4-26.7,6.9-40.1,10.3
								c0.8,0.2,5.8,1.4,8.5,6.3c3.2,5.8,0.4,11.6,0.1,12.1c15.5-6.3,31-12.5,46.5-18.8c1.2-11.6,2.4-23.4,3.5-35.2
								c0.4-4.6,0.8-9.2,1.2-13.8"/>
						</g>
						<path class="st19" d="M436.4,465.7c0,0-9.8,0.7-12.6,2.4l-0.3,1.8l14.1-1.1L436.4,465.7z"/>
						<g>
							<path class="st12" d="M435.6,461.6L424,462l-0.1,10.5c0.2,5.7,0.5,11.4,0.7,17.2c0.9-4.5,1.8-9,2.8-13.5
								c0.5-0.6,1.2-1.5,2.3-2.4c0,0,6.5-3.5,6.5-3.5l0,0L435.6,461.6z"/>
							<path class="st20" d="M423.9,468.6l0.1-5.7c3.8-1.3,7.7-2.5,11.5-3.8c0.1,1.9,0.1,3.9,0.2,5.8
								C432.8,466.9,428.8,468.7,423.9,468.6z"/>
							<path class="st21" d="M429.5,409.9c-1.9,0.2-5.6,0.5-9.3,2.6c-11.5,6.5-12.8,24-9.7,29.2c0.1,0.2,0.7,1.1,1.5,2.2
								c1.2,1.7,2.5,3.3,5,6.2c7-5,24.5,5.4,24.5,5.4s12.1-2,14-23.4c0.2-1.9,0.1-6.1-2.3-10.6c-2.9-5.5-7.5-8-9.6-9
								C442.4,412,436.9,409.2,429.5,409.9z"/>
							<path class="st12" d="M410.2,444c0.7-6.1-0.7-8.1-0.2-13.9c0.2-2.3,0.7-5.5,2.3-9.5c0-0.1-0.1-0.3,0-0.7
								c0.6-3.9,13.4-7.3,23.6-4.2c2.4,0.7,6.5,2.3,10.8,6.3c0.9,2.3,2.1,5.7,2.4,10.1c0.7,9.7-3.2,16.9-5.1,20.3
								c-2.6,4.6-5.2,9.3-10.8,11.7c-3.3,1.4-6.5,1.5-8.5,1.3c-0.8-0.2-10-2.7-13.3-9.5c-1.3-2.7-1.6-5.8-1.6-5.8
								C409.6,447.5,410,445.8,410.2,444z"/>
							<g>
								<path d="M426.9,437.9c3.5-0.8,7.1-0.7,10.4,0.1c-3.4-0.5-6.9-0.2-10.1,0.9C426.5,439.2,426.2,438.1,426.9,437.9L426.9,437.9
									z"/>
							</g>
							<g>
								<path d="M418.7,438.8c-1.9-1.1-4.3-1.7-6.6-1.6c2.3-0.5,4.8-0.3,7.1,0.6c0.3,0.1,0.4,0.4,0.3,0.7
									C419.3,438.8,419,439,418.7,438.8L418.7,438.8z"/>
							</g>
							<path class="st21" d="M439.2,432.7c-0.1,2-0.1,4.5,0.3,7.2c0.4,3.4,1.2,6.2,2,8.4c1.5-0.5,4.5-1.7,6.9-4.7
								c0.6-0.8,1.7-3,2.9-7.2c0.5-1.9,2.1-10-2-16.9c-5.1-8.5-18.5-14-29.7-8.1c-10.5,5.6-14.8,19.1-9.3,30.3c0-1.5,0-3.3,0.3-5.2
								c0.3-2.2,0.8-4.2,1.3-5.8c0.1,0.6,0.4,1.6,1.1,2.6c0.6,0.9,1.3,1.5,1.8,1.9c-0.4-0.7-0.9-1.8-1-3.3c-0.1-0.8,0-1.5,0.1-2.1
								c0.5,1.4,1.4,3.4,2.9,5.3c2.5,3.1,5.4,4.6,7,5.3c-1-0.5-4.3-2.5-5.6-6.5c-0.5-1.5-0.6-2.8-0.5-3.8c0.2,1,0.7,2.5,1.6,4
								c1.6,2.6,3.8,4,4.9,4.6c-0.6-0.7-1.5-1.7-2.1-3c-1.1-2.3-1.1-4.4-1.1-5.5c0.7,1.6,1.9,3.9,4.1,6.3c2.6,2.7,5.3,4.2,7,4.9
								c-0.9-0.5-3.1-2-4.6-4.8c-1.4-2.8-1.4-5.4-1.3-6.4c0.4,1.4,1.1,3.1,2.3,5c2,2.9,4.3,4.7,5.8,5.6c-0.9-0.8-3.1-2.9-3.9-6.5
								c-0.4-1.7-0.3-3.2-0.1-4.2c0.4,1.9,1.2,4.9,3.1,8.1c1.8,3,3.9,5,5.4,6.2c-0.5-1.1-1.6-3.7-1.2-7.1
								C437.9,435.3,438.7,433.7,439.2,432.7z"/>
							<g>
								<g>
									<path class="st22" d="M429.7,442.8c0,0.1,0,0.7,0.5,1.2c0.4,0.3,0.8,0.3,0.8,0.3c0.2,0,0.5,0,0.7-0.2
										c0.5-0.3,0.7-0.8,0.6-1.2c0-0.3-0.1-0.5-0.2-0.7c-0.4,0-0.9,0.1-1.4,0.2C430.3,442.5,430,442.6,429.7,442.8z"/>
									<path class="st20" d="M421.4,449.6c-0.1,0.9,0.6,1.6,1.3,1.5c0.6,0,1.2-0.5,1.2-1.3c-0.1,0.1-0.6,0.5-1.4,0.4
										C421.9,450.1,421.5,449.7,421.4,449.6z"/>
									<path class="st22" d="M435.5,443.8c-1.2-1.5-3-2.2-4.6-1.9c-1.2,0.3-2,1.1-2.3,1.4c0.6-0.3,2-0.9,3.8-0.7
										C433.9,442.8,435,443.5,435.5,443.8z"/>
								</g>
							</g>
							<g>
								<g>
									<path class="st22" d="M413.4,441.8c0,0.1-0.2,0.7,0.1,1.2c0.3,0.4,0.6,0.5,0.7,0.5c0.2,0.1,0.5,0.1,0.7,0
										c0.5-0.1,0.8-0.6,1-1c0.1-0.3,0-0.6,0-0.7c-0.4-0.1-0.9-0.2-1.4-0.2C414.1,441.8,413.7,441.8,413.4,441.8z"/>
									<path class="st22" d="M412.2,442.3c0.6-0.3,2.1-1.2,3.8-0.7c1.6,0.4,2.6,1.7,2.6,1.8c-0.1,0.1-1.1-0.8-2.8-1.1
										C414.4,441.9,413.1,442.1,412.2,442.3z"/>
								</g>
							</g>
							<g>
								<path class="st12" d="M442.9,442.6c0.8-2.1,3.5-3.6,5.3-2.4c2.7,1.9,2.2,6.6,0.5,9.4c-1.1,1.6-3.5,3.6-5,2.6
									C441.6,450.8,441.4,446.6,442.9,442.6z"/>
							</g>
							<g>
								<path class="st23" d="M423,454.5c2.6,0,5.1-0.7,5.7,0.7c0.5,1-0.8,4.9-5.5,4.7c-3.3-0.1-5.4-2.9-5.1-4.8
									C418.4,453.8,420.3,454.5,423,454.5z"/>
								<path class="st24" d="M428.7,456.4c-0.4,1.5-1.9,3.7-5.5,3.6c-1.6,0-2.9-0.8-3.9-1.7C421.5,455.6,425.5,454.7,428.7,456.4z"
									/>
								<path class="st10" d="M428.7,455.2c0,0.1,0.1,0.2,0.1,0.4c-3.7,2.3-8.7,1.8-9.7-1.2c0.9-0.1,2.3,0.1,3.9,0.2
									C425.6,454.5,428,453.8,428.7,455.2z"/>
							</g>
						</g>
						<path class="st18" d="M436.4,465.7c-0.8,1.8-1.7,3-2.5,3.7c-2.2,2.1-4,2.2-6.1,4.4c-1.1,1.2-1.7,2.4-2,3.2
							c1.2-0.1,2.9-0.3,4.7-1.1c4.4-2,6.4-5.8,6.9-7.1C437.2,467.7,436.8,466.7,436.4,465.7z"/>
						<path class="st18" d="M424,470.2c0,0.2,0.1,0.5,0.2,0.8c0.2,0.6,0.5,1.1,0.5,1.2c0.3,0.5,0.4,1.5-0.1,4.1c0,0-1.7-2.1-1.6-3.7
							c0.1-1.6,1-4.2,1-4.2L424,470.2z"/>
						<path class="st18" d="M427.9,476.7c-0.7,0.1-1.3,0.2-2,0.2c-0.4,3.8-0.9,7.6-1.3,11.4c0.1-4.5,0.1-8.9,0.2-13.4
							c-0.4-0.1-0.9-0.2-1.3-0.4c0.1,6.3,0.1,12.6,0.2,18.9c0.5,0,1-0.1,1.5-0.1C426,487.8,427,482.2,427.9,476.7z"/>
					</g>
					<path class="st12" d="M404.4,542.4c-1.4,0.4-2.7,0.8-4.1,1.1c-2.4,0-4.5,0.3-6.3,0.6c-2.3,0.4-5.9,1.3-5.8,2.1
						c0,0.2,0.4,0.4,1,0.6c0.8,0.3,1.6,0.4,2,0.4c-1.4,0.7-2.7,1.3-4.1,2c-2.5,1.2-5,2.4-7.6,3.5c-0.5,0.2-0.7,0.7-0.6,1
						c0.1,0.4,0.7,0.6,1.3,0.3c2.7-0.8,5.4-1.6,8.1-2.4c-2.9,1.2-5.7,2.4-8.6,3.6c-0.4,0.3-0.6,0.8-0.4,1.2c0.2,0.5,0.8,0.7,1.3,0.5
						c6.6-2.7,10.1-3.8,10-3.8c-2.8,1.4-5.7,2.7-8.5,4.1c-0.3,0.3-0.4,0.7-0.2,1.1c0.2,0.4,0.7,0.6,1.1,0.4c3.2-1.3,6.4-2.7,9.6-4
						c-2.1,1.1-4.1,2.2-6.2,3.4c-0.2,0.3-0.2,0.6,0,0.9c0.2,0.3,0.6,0.5,1,0.4c2.8-1,5.7-2,8.5-3c1.1-0.2,3.3-0.7,5.4-2.5
						c1.5-1.3,2.3-2.6,2.8-3.5c1.4-0.6,2.8-1.1,4.3-1.7C407.2,546.4,405.8,544.4,404.4,542.4z"/>
				</g>
				<g>
					<path class="st15" d="M441.4,488.7c-1,12.9-2.2,26.4-3.6,39.3c0,0-0.1,0.5-0.1,0.5l-0.5,0.1c-9.9,2.7-30,8.1-40,10.7
						c0,0,0-2.3,0-2.3c2.1,0.5,4.1,1.3,5.8,2.7c3.4,2.6,5.2,7,5.1,11.3c-0.1,2.1-0.5,4.2-1.4,6.1l-1.6-1.6
						c13.7-5.5,33-13.2,46.6-18.5c0,0-0.6,0.9-0.6,0.9c0.8-13.3,1.9-26.6,4.1-39.7c0.7-4.4,1.4-8.8,2.1-13.1
						c-0.9,8.7-2.1,17.7-2.8,26.4c-0.8,9-1.3,18-1.6,27.1c-7.9,3.3-15.8,6.6-23.8,9.8c-1.6,0.7-25,10.2-26,10.6c0,0,1.2-2.8,1.2-2.8
						c2.2-4.8,1.4-11.2-2.9-14.6c-1.4-1.1-3.1-1.8-4.8-2.2l-4.8-1.1c2.9-0.7,21.5-5.4,24.9-6.2c0,0,20.1-4.9,20.1-4.9
						s-0.6,0.7-0.6,0.7C437.8,516.3,439.9,500,441.4,488.7L441.4,488.7z"/>
				</g>
			</g>
		</g>
		<g>
			<g>
				<polygon class="st25" points="586,470.9 620.1,579.7 629.9,579.7 594.9,468.1 				"/>
				<polygon class="st25" points="562.9,470.9 597,579.7 606.7,579.7 571.7,468.1 				"/>
				<polygon class="st25" points="475.3,579.7 485,579.7 519.2,470.9 510.3,468.1 				"/>
				<polygon class="st25" points="501.7,579.7 511.5,579.7 545.6,470.9 536.7,468.1 				"/>
			</g>
			<ellipse class="st26" cx="555" cy="465.8" rx="54.1" ry="8.4"/>
		</g>
		<g>
			<g>
				<g>
					<path class="st27" d="M543.6,307.1c1.6,0.5,3.7,1,6.1,0.9c8.2-0.1,13.8-5.5,15.4-7.1c-0.1-2.3-0.2-4.8-0.1-7.5
						c0-0.4,0-0.8,0-1.1c0.1-1,0.1-1.9,0.2-2.9c0-0.4,0.1-0.7,0.1-1.1c-0.2,0.1-0.5,0.1-0.7,0.2c-6.5,1.8-13,3.6-19.5,5.5
						c0.1,1.8,0.1,3.9-0.1,6.2c-0.1,0.6-0.1,1.1-0.2,1.6C544.4,303.8,544,305.6,543.6,307.1z"/>
					<path class="st28" d="M544.7,301.8c2.6-0.7,5.4-1.7,8.4-3c4.8-2.1,8.7-4.4,11.9-6.6c0.1-1,0.1-1.9,0.2-2.9
						c-0.2-0.3-0.4-0.6-0.6-0.9c-6.5,1.8-13,3.6-19.5,5.5c0.1,1.8,0.1,3.9-0.1,6.2C544.9,300.8,544.8,301.3,544.7,301.8z"/>
					<path class="st27" d="M522.9,247.8c-0.7,5.1-1.1,11.7,0.1,19.4c2.1,13.4,8,23.4,12.7,29.6c1.9,2.5,4.9,3.7,8,3.3
						c4.4-0.6,10.3-2.1,16.3-5.7c12.5-7.5,17.1-19,18.5-22.6c-0.3-2.3-2.2-16.8-15.5-26.3c-13.3-9.5-27.6-6.6-29.8-6.1L522.9,247.8z
						"/>
					<g>
						<path d="M522.3,253.9c0.7,0.2,2-6.9,7.4-8.8c3-1,5.2-1.6,9-1.8c4.1-0.2,10.2-0.7,17.9-1.7c-0.8,2.9-1,5.3-1,6.9
							c0,2.3,0,3.6,0.8,4.7c1.2,1.6,3,1,5.4,2.1c3.9,1.8,5.5,6.4,5.8,7.5c1.4,4.3-0.4,6.3,1.3,10.2c1,2.4,2.7,3.9,3.8,4.9
							c-2.6,4.6-5.3,9.6-4.4,10.2c1,0.8,7.8-5.1,12.2-12.2c5.8-9.4,12.2-29.5,0.4-44.2c-3.4-4.3-7.9-7.5-12.8-9.6c0,0,0,0-0.1,0
							c0,0-0.1,0-0.1-0.1c-7.5-2.2-22-4.3-35.1,8.3c-0.7,0.7-2.3,0.8-3.8,1.8c-1.8,1.3-3.2,2.8-4.2,4.5c0,0,0,0,0,0
							C521.2,245.1,521.6,253.7,522.3,253.9z"/>
					</g>
					<g>
						<g>
							<path d="M554.8,264.7c-2.6-2.8-5.9-1.9-8.9-0.7c0,0-0.1-0.1-0.1-0.1c1.6-2.3,5-2.5,7.3-1.1
								C553.8,263.3,554.4,263.9,554.8,264.7L554.8,264.7L554.8,264.7z"/>
						</g>
						<g>
							<path d="M554.8,269.1c-2.7-2.3-5.9-2.2-9-0.7C548,265.5,553.3,265.6,554.8,269.1L554.8,269.1z"/>
						</g>
						<path d="M547.5,267.6c0.2,0.8,0.9,1.4,1.8,1.2c0.8-0.2,1.4-0.9,1.2-1.8C550.3,266.2,547.4,266.8,547.5,267.6z"/>
					</g>
					<g>
						<g>
							<path d="M525,262.8c2-2.4,6.8-2.9,7.9,0.7c0,0-0.1,0.1-0.1,0.1c-1.7-1.3-3.6-2.5-5.8-1.7C526.3,262.1,525.7,262.4,525,262.8
								C525.1,262.9,525,262.8,525,262.8L525,262.8z"/>
						</g>
						<g>
							<path d="M532.9,267.9c-2.4-2.2-5.2-2.1-7.8-0.4C526.8,264.5,531.6,264.6,532.9,267.9L532.9,267.9z"/>
						</g>
						<path d="M527.6,266.5c0,0.8,0.6,1.5,1.3,1.4s1.3-0.7,1.3-1.6C530.2,265.6,527.6,265.7,527.6,266.5z"/>
					</g>
					<g>
						<path class="st29" d="M537.4,280.6c1.2-0.6,2.4-0.5,3.4,0.3C539.7,281.6,538.5,281.5,537.4,280.6L537.4,280.6z"/>
					</g>
					<path class="st30" d="M545.2,287.4c-0.5,0.6-1.2,1.3-2.2,1.7c-2.4,1-5.3,0.3-7.7-1.7c1.5,0.4,3.8,0.9,6.5,0.6
						C543.1,288,544.2,287.7,545.2,287.4z"/>
					<path d="M521.1,260.5c2.9-1.1,6.4-2.1,10.2-2.9c7.5-1.5,14.1-1.5,19.2-1.1c0-2,0.4-5.2,2-8.7c1.3-2.8,2.9-4.8,4.1-6.1
						c-4-2.8-6.5-7.1-5.9-11c0.9-5.7,8.4-10.9,17.2-8.7c0,0-0.1,0-0.1-0.1c-8.8-3.7-20.4-2.7-29.2,3.1c-1.6,1.1-3.8,2.7-6,5.3
						c-1,0.3-2.3,0.9-3.8,1.8c0,0-4.4,2.7-7.2,7.7C516.8,248.6,520.7,259.5,521.1,260.5z"/>
					<path d="M570.7,226c0.7-1.8,1.7-4.3,3.6-6.8c1.2-1.7,6.4-9,14.7-10.5c0,0,7.2-1.3,15.7,3.9c13.1,8,16.8,37.6,10.7,74
						c-2.7,1.3-7,3-12.6,3.1c-10.3,0.3-17.7-4.7-20.2-6.6c3.7-7.2,6.3-13.5,8.2-18.1c6.4-16,7.8-24.8,5.7-32.5
						c-0.7-2.7-1.7-4.6-3.4-5.3c-3.1-1.2-7.8,1.6-12.2,7.2C577.5,231.6,574.1,228.8,570.7,226z"/>
					<path class="st27" d="M570.1,264.8c0.2-0.5,1.3-3.4,3.8-4c1.4-0.3,3.2,0,4.3,1.2c2.8,3-0.7,9.9-2.4,12.6
						c-1.1,1.8-2.9,4.5-5.6,4.7c-0.4,0-2,0.2-2.9-0.8c-1.2-1.4-0.2-4.1,0.8-7.1c0.5-1.4,0.9-2.1,1.3-3.8
						C570,265.8,569.8,265.7,570.1,264.8z"/>
					<circle cx="577.4" cy="229" r="14.8"/>
				</g>
			</g>
			<g>
				<g>
					<path class="st27" d="M522.1,357.2c-7,13.6-13.9,27.2-20.9,40.8c-14.1,4.9-28.3,9.8-42.4,14.7c-0.9-2.5-1.7-5-2.6-7.4
						c11.2-5.7,22.4-11.3,33.6-17c6.5-13.6,13.1-27.3,19.6-40.9C513.7,350.7,517.9,354,522.1,357.2z"/>
					<path class="st31" d="M506.4,348.3c0.5,1.5,2.4,6.5,7.6,9.9c5.2,3.4,10.5,3.2,12,3c0.2-0.6,0.4-1.2,0.7-1.7
						c0-0.1,0.1-0.2,0.1-0.3c3.7-9.9,7.4-19.8,11.1-29.8c-2.5-2.5-5-5.1-7.5-7.8c-2.4-2.6-4.8-5.2-7.1-7.8
						c-3.3,6.3-5.8,11.4-7.6,15.1c-2.5,5.1-6.6,13.6-7.3,15.1c-0.3,0.6-0.6,1.3-0.9,1.9C507.2,346.8,506.8,347.6,506.4,348.3z"/>
					<g>
						<path class="st32" d="M507.5,346c1.4,3.2,4.3,7.7,9.4,10.6c3,1.7,6.3,2.7,9.8,2.9c0,0,0.1,0,0.1,0l0-0.3l0.1-1.3
							c-3.3-0.2-6.4-1.1-9.2-2.7c-5.5-3.2-8.1-8.2-9.3-11.2C508.2,344.7,507.8,345.3,507.5,346z"/>
					</g>
				</g>
				<g>
					<g>
						<path class="st27" d="M470.3,581.1c0,0,9-5,8.8-13.2l14.8-1.9c0.4,2.2,2.1,5,2.7,6.8c0,0-11.3,10.1-19.7,13.6
							C468.4,589.9,465.9,585.1,470.3,581.1z"/>
					</g>
					<g>
						<path class="st28" d="M494.7,568.4c0,0-2.1-8.3-3.7-15.7l-13.4,2.7c0,0,2.3,13.4,1.1,16L494.7,568.4z"/>
					</g>
					<g>
						<path class="st14" d="M496.8,572c0,0,2.9,5.4,0.9,8.9c-2,3.4-8.4,4-10.8,6.1c-7.1,6.2-8.9,7.5-14.7,8.5
							c-7.7,1.2-13-0.3-9.3-7.2c1.3-2.5,7.4-7.1,7.4-7.1c-2.7,3.2,6.2,6.2,13.5,0.9C491.4,576.5,496.8,572,496.8,572z"/>
					</g>
				</g>
				<g>
					<path class="st31" d="M452,482.1c0.4,8.1,4.9,25.5,10,42.8c5.4,18.4,11.3,36.9,13.7,44.5c7-1.9,16-4.5,23-6.4
						c-2-15.1-4.5-31-7.7-47.6c-0.1-0.6-0.2-1.2-0.3-1.7c-2.8-14.5-6-28.4-9.3-41.5c0.7-0.2,2-0.6,3.9-1.1c15.5-4,66.4-15.9,71.6-27
						c3.4-7.4,3.2-20.3,2.4-29.5v0c-0.1-1.6-0.3-3.2-0.5-4.6c-0.4-3.9-0.9-6.4-0.9-6.4l-34.6,3.4l-0.5,1.1l-5.6,13.3
						c-18,15.2-33.7,22-44.9,25.4c-7.4,2.2-16.1,4-20.5,11.4C448.3,464.2,451.5,470.7,452,482.1z"/>
				</g>
				<g>
					<g>
						<path class="st27" d="M507.8,586.4c0,0,9-5,8.8-13.2l14.8-1.9c0.4,2.2,2.1,5,2.7,6.8c-2.7,3.7-5.5,6.1-7.5,7.6
							c-5.7,4.3-10.7,5.6-12.2,6c-2.1,0.5-3.9,0.6-5.4-0.4c-0.9-0.6-2.4-2.1-2-3.6C507.1,587.2,507.5,586.7,507.8,586.4z"/>
					</g>
					<g>
						<path class="st28" d="M532.1,574.5c0,0-2-9.1-3.6-16.5l-13.4,2.7c0,0,2.3,13.4,1.1,16L532.1,574.5z"/>
					</g>
					<g>
						<path class="st14" d="M533.6,576.7c2.8,3.7,2.8,6,2.4,7.5c-1,3.4-4.8,2.8-11.5,8.1c-4,3.2-5.2,5.2-9.5,7.1
							c-1.5,0.6-3.1,1-5.2,1.4c-7.7,1.2-13-0.3-9.3-7.2c1.3-2.5,7.4-7.1,7.4-7.1c-0.4,0.4-0.5,0.9-0.5,1.3c0.1,1.8,8.3,1.7,13.9-0.3
							C523.6,586.5,529.1,584.1,533.6,576.7z"/>
					</g>
				</g>
				<g>
					<path class="st31" d="M486.1,488.1c0.1,0.6,0.3,1.3,0.4,1.9c0,0,0,0.1,0,0.1c1.4,6.3,3.7,14.6,6.3,23.8c0.1,0.3,0.2,0.7,0.3,1
						c5.6,19,12.9,41.6,18.6,58l25.4-6.9c-3.2-15.3-6.2-31.2-8.9-47.8c-0.3-1.6-0.5-3.2-0.8-4.7c-1.7-11-3.3-21.7-4.6-32.3
						c2.2-2.5,3.9-4.3,4.3-4.4c0.3-0.1,0.5-0.2,0.5-0.2c0.2-0.1,0.3-0.1,0.5-0.2c0.2-0.1,0.3-0.1,0.5-0.2c1.6-0.5,3.3-1.1,5.2-1.7
						c0.2-0.1,0.4-0.1,0.6-0.2c0.6-0.2,1.3-0.4,1.9-0.6c0.2-0.1,0.4-0.2,0.7-0.2c11.5-3.9,26.6-9.3,38-14.9c0.4-0.2,0.9-0.4,1.3-0.6
						c0.9-0.4,1.7-0.9,2.5-1.3c0.4-0.2,0.8-0.4,1.2-0.6c0.2-0.1,0.4-0.2,0.6-0.3c0.4-0.2,0.8-0.4,1.1-0.6c0.7-0.4,1.5-0.9,2.1-1.3
						c0.3-0.2,0.7-0.4,1-0.6c1-0.6,1.8-1.3,2.6-1.9c0.3-0.2,0.5-0.4,0.8-0.6c0.1-0.1,0.2-0.2,0.4-0.3c0.3-0.3,0.7-0.6,1-0.9
						c0.9-0.9,1.6-1.8,2-2.7c2.5-5.4,2.3-13.5,1.4-21.1c0-0.2-0.1-0.4-0.1-0.7c-0.1-0.4-0.1-0.8-0.2-1.2c-0.1-0.6-0.2-1.2-0.3-1.8
						c-0.1-0.4-0.1-0.7-0.2-1.1c-0.1-0.5-0.2-0.9-0.2-1.3c-0.1-0.3-0.1-0.6-0.2-0.9l-0.1-0.7c-0.2-0.8-0.3-1.7-0.5-2.4
						c-0.1-0.4-0.2-0.8-0.3-1.2c-0.1-0.5-0.2-0.9-0.3-1.3c-0.1-0.6-0.3-1.1-0.4-1.6c0-0.1,0-0.1,0-0.2c0-0.1-0.1-0.3-0.1-0.4
						c-0.1-0.4-0.2-0.8-0.3-1.2c0-0.1,0-0.1,0-0.2c0-0.1-0.1-0.3-0.1-0.4c-0.1-0.4-0.2-0.8-0.3-1.1c-0.1-0.2-0.1-0.4-0.2-0.5
						c0-0.2-0.1-0.3-0.1-0.4c0-0.1,0-0.2-0.1-0.2c0,0,0-0.1,0-0.1c0,0,0,0,0-0.1l-15.6,2l-13.6,1.7l-0.2,0v0l-0.5,4.3v0l-1.5,13.9
						c0,0-25,7.2-49.1,20.1c-1.3,0.7-2.4,1.3-3.6,2c-0.4,0.2-0.8,0.5-1.2,0.7c0,0,0,0-0.1,0c-0.4,0.2-0.8,0.5-1.1,0.7
						c-0.7,0.4-1.3,0.8-1.9,1.2c-9.4,6.1-13.9,11.5-15.4,17.9C484.2,475.9,484.7,481.4,486.1,488.1z"/>
					<path class="st33" d="M452,482.1c0.4,8.1,4.9,25.5,10,42.8c7.8-3.6,17.5-7.3,29-9.6c-0.1-0.6-0.2-1.2-0.3-1.7
						c-2.8-14.5-6-28.4-9.3-41.5c0.7-0.2,2-0.6,3.9-1.1c-1.1,4.9-0.6,10.3,0.8,17c0.1,0.6,0.3,1.3,0.4,1.9c0,0,0,0.1,0,0.1
						c1.4,6.3,3.7,14.6,6.3,23.8c0.1,0.3,0.2,0.7,0.3,1c4.7-0.9,9.7-1.5,14.9-1.8c7.1-0.4,13.6-0.2,19.5,0.3
						c-1.7-11-3.3-21.7-4.6-32.3c2.2-2.5,3.9-4.3,4.3-4.4c0.3-0.1,0.5-0.2,0.5-0.2c0.2-0.1,0.3-0.1,0.5-0.2c0.2-0.1,0.3-0.1,0.5-0.2
						c1.6-0.5,3.3-1.1,5.2-1.7c0.2-0.1,0.4-0.1,0.6-0.2c0.6-0.2,1.3-0.4,1.9-0.6c0.2-0.1,0.4-0.2,0.7-0.2c11.5-3.9,26.6-9.3,38-14.9
						c0.4-0.2,0.9-0.4,1.3-0.6c0.9-0.4,1.7-0.9,2.5-1.3c0.4-0.2,0.8-0.4,1.2-0.6c0.2-0.1,0.4-0.2,0.6-0.3c0.4-0.2,0.8-0.4,1.1-0.6
						c0.7-0.4,1.5-0.9,2.1-1.3c0.3-0.2,0.7-0.4,1-0.6c1-0.6,1.8-1.3,2.6-1.9c0.3-0.2,0.5-0.4,0.8-0.6c0.1-0.1,0.2-0.2,0.4-0.3
						c0.3-0.3,0.7-0.6,1-0.9c0.9-0.9,1.6-1.8,2-2.7c2.5-5.4,2.3-13.5,1.4-21.1c-6.7-4.9-14.7-9.6-24.2-12.9c-2.9-1-5.9-1.9-8.9-2.6
						c-0.4-0.1-0.8-0.2-1.2-0.3c-11.5-2.6-23.8-3.1-35.9-1.9l-5.6,13.3c-18,15.2-33.7,22-44.9,25.4c-7.4,2.2-16.1,4-20.5,11.4
						C448.3,464.2,451.5,470.7,452,482.1z"/>
				</g>
				<g>
					<path class="st34" d="M448.6,498.4c0.7,3.1,1.3,5.7,2.7,11.3c0.9,3.7,1.8,7.5,2.7,11.1c6.9-2.1,14.3-4,22-5.7
						c14.8-3.3,28.7-5.3,41.3-6.5c-0.4-2.4-0.7-4.8-0.9-7.1c-0.3-2.7-0.3-4.9-0.4-6.7c-0.2-6-0.1-15.6-0.1-21.3c0-2.8,1.6-5.4,4-6.8
						c13.2-7.4,26.4-14.8,39.6-22.3l2.5-1.3c6.2-3.2,12.4-6.4,18.4-9.7l1.9,3.5c-6,3.3-12.2,6.5-18.5,9.7
						c-13.6,7.9-27.1,15.8-40.7,23.7c-1.5,0.9-2.5,2.4-2.7,4.1c-0.6,6-1,12.8-0.6,20.4c0.2,5.2,0.8,10,1.5,14.4
						c1.8,0.4,3.6,0.9,5.5,1.3c1.3-8.9,2.7-17.9,4-26.8c0.4-2.8,2.2-5.2,4.7-6.3c6.5-3,15.2-6.9,25.6-10.9
						c22.2-8.6,23.8-7.3,27.7-11.4c8.2-8.6,4.3-18.4,3.5-62.4c-0.4-22.5,0.6-23.3-0.3-42c-0.8-16.7-2.4-30.8-3.9-41.4
						c-7.8-2.8-15.5-5.5-23.3-8.3c0-0.1,0.1-0.2,0.1-0.4c0.2-0.6,0.2-1.1,0.3-1.6c0-0.7-0.1-1.2-0.5-1.5c-1.5-1.3-6.7,1.5-15.5,8.4
						c-2-2.3-4-3.1-4.9-2.5c-0.5,0.3-0.6,1.1-0.6,1.7c0,0.3,0,0.5,0,0.6c-0.5,0.2-1,0.3-1.5,0.5c-2.9,1-5.9,2-8.9,3.2
						c-3.4,1.3-6.5,2.6-9.5,4c-0.6,0.3-1.1,0.9-1.2,1.6c-2.4,16.9-3.8,25.3-3.8,25.3s-1.6,11-1.2,16.7c0.4,5.7,5.4,14,7.5,19.6
						c2.1,5.5,0.2,21.9,0.2,21.9l0.8,0c-1.7,4.9-12.2,19.8-17.5,23.2c0,0,0,0,0,0c-0.6,0.4-1.9,1.3-3.6,2.3
						c-13.9,8.6-42.9,24.4-55.9,31c-0.8,0.4-2.7,1.4-4.3,3.5c-2.2,3-2.3,6.5-2.3,8.4C442.9,476,445.5,485.5,448.6,498.4z"/>
					<path class="st35" d="M517.2,413.5c1.3,1,2.6,2,3.9,2.9c-5.2,4.3-9.7,7.6-12.6,9.6c-28.6,19.9-52,31.6-52,31.6
						c-1.3,0.6-3.4,1.7-5.2,3.9c-4.3,5.5-2.6,13,0.1,24.8c2.9,12.7,4.5,19.9,6.5,28.6c8.6-2.5,18.4-4.9,29.2-6.7
						c9.2-1.5,17.8-2.4,25.6-2.9c-0.6-6-1.2-12.3-1.6-18.9c-0.3-5.9-0.5-11.7-0.6-17.2c-0.1-0.7-0.1-1.7,0.2-2.9
						c0.4-1.6,1.2-2.7,1.7-3.3c10.9-6.9,23.1-14,36.7-20.8c11.2-5.6,21.9-10.3,32-14.4c1.6,4.1,3.1,8.2,4.7,12.2
						c-10.4,5.5-20.9,11.2-31.5,17.1c-9.4,5.2-18.6,10.5-27.7,15.7c-0.4,0.3-1.4,0.9-1.9,2.2c-0.3,0.6-0.3,1.2-0.4,1.6
						c-0.1,10.9-0.7,18.2-0.8,29.1c1.3,0.2,2.6,0.3,3.9,0.5"/>
					<circle class="st32" cx="566.3" cy="327.5" r="1.4"/>
					<g>
						<path class="st32" d="M549,308.6l1,1.3c0.3-0.2,0.5-0.4,0.8-0.6c3.2-2.5,6.1-4.6,8.5-6.4l0.4-0.3c1.2-0.9,3.1-2.3,5.4-2.1
							c0,0,0.1,0,0.2,0c0.2-0.6,0.2-1.1,0.3-1.6c-0.1,0-0.2,0-0.3,0c-2.9-0.2-5.1,1.4-6.4,2.4l-0.4,0.3c-2.4,1.8-5.4,4-8.8,6.6
							C549.3,308.3,549.1,308.5,549,308.6z"/>
					</g>
					<g>
						<path class="st32" d="M542.4,306.3c0.4,0.1,0.9,0.2,1.3,0.4c2.5,0.9,4.2,2.3,5.8,3.7c2.2,2,4.4,4.5,6.5,7.5
							c1.8,2.5,3.1,4.4,4.4,7.3c1,2.4,1.7,4.9,2.1,7.5l1.6-0.2c-0.4-2.7-1.1-5.3-2.2-7.8c-1.3-3.1-2.7-5.1-4.6-7.6
							c-2.1-3-4.4-5.6-6.6-7.6c0,0-0.1-0.1-0.1-0.1c-0.3-0.3-0.7-0.6-1.1-1c-1.4-1.2-3-2.3-5.2-3c-0.1,0-0.2-0.1-0.4-0.1
							c0,0.3,0,0.5,0,0.6c-0.5,0.2-1,0.3-1.5,0.5L542.4,306.3z"/>
					</g>
					<path class="st36" d="M558.1,313.1c-2.1,1.6-4.3,3.1-6.4,4.7"/>
					<path class="st36" d="M562.6,319.4c-2.1,1.4-4.2,2.7-6.3,4.1"/>
					<path class="st36" d="M565.9,327.8c-2.4,0.6-4.8,1.2-7.2,1.7"/>
					<circle class="st32" cx="558.1" cy="312.9" r="1.4"/>
					<circle class="st32" cx="551.7" cy="317.8" r="1.4"/>
					<circle class="st32" cx="562.7" cy="319" r="1.4"/>
					<circle class="st32" cx="556.4" cy="323.4" r="1.4"/>
					<circle class="st32" cx="558.9" cy="329.6" r="1.4"/>
				</g>
				<g>
					<g>
						<path class="st27" d="M450.8,416.3c0,0-1.1,1.5-4.3,1.8c-2.1,0.2-7.2-0.4-11.3,0.3c-1.5,0.2-1.1-2.4,1.8-3
							c1.4-0.3,3.8-1,4.5-1.2c1.7-0.5,2.5-3.6,2.5-3.6L450.8,416.3z"/>
					</g>
					<g>
						<path class="st27" d="M452.9,415.5c-2,1.3-3.6,2.8-7.2,1.4c-2.6-0.9-5-2-7-3c-1.8,0.9-4.2,2.2-4.5,2.9c-0.4,1-1.2,3.8-1.6,5.4
							c-0.5,1.6-2,1.4-1.9,0.3c0-1.1,0.3-5,0.8-6c0.5-1,1.6-2.4,1.6-2.4s-3,2-3.9,2.8c-0.8,0.8-2.9,4.9-3.5,5.6
							c-0.5,0.7-2.2,0.3-1.9-1.3c-1,1-2.5-0.3-2-1.5c0.5-1.1,2-5,2.9-6.2c0.6-0.7,2.4-1.7,3.2-2.4c0.6-0.5,0.3-0.6,0-0.4
							c-2,0.8-3.3,1.6-6,2.5c-2.2,0.7-3.5-0.7-1.6-1.6c0.9-0.5,4.7-2.5,7.5-3.8c1.6-0.7,4.7-0.1,7.2,0.1c4.4,0.4,10.7,1,11.6,0.8
							c5.3-1.4,9.5-3.3,9.5-3.3l3.5,7.1C459.7,412.5,454.3,414.5,452.9,415.5z"/>
					</g>
					<g>
						<g>
							<path class="st28" d="M431,412c0,0-1.1,0.7-2.2,1.5l0,0c-1.2,0.8-2.4,1.7-2.7,2.1l0,0c-0.6,0.9-2.4,5.5-2.4,5.6l0,0l0,0
								c0,0.1,0,0.2,0.1,0.3l0,0c0.1,0,0.2,0,0.3-0.1l0,0c0,0,0.5-1.2,1-2.4l0,0c0.5-1.3,1.1-2.7,1.4-3l0,0c0.2-0.3,1.5-1.3,2.6-2
								l0,0c1.1-0.8,2.2-1.5,2.2-1.5l0,0c0.1-0.1,0.1-0.2,0.1-0.3l0,0c0-0.1-0.1-0.1-0.2-0.1l0,0C431,412,431,412,431,412L431,412z"
								/>
						</g>
					</g>
				</g>
				<g>
					<path class="st37" d="M585.6,309c1.9-0.1,3.6,0.3,4.9,1.2C589.1,309.1,587.4,308.8,585.6,309z"/>
				</g>
				<g>
					<path class="st27" d="M568.8,401.3c-15.5,13.7-31,27.4-46.4,41c3.5,4.6,2.1,2.8,5.6,7.4l56.1-36.6c1.5-1,2.5-2.5,2.7-4.3
						c2.2-19.2,4.3-38.3,6.5-57.5c-3-0.6-6.7-1.1-10.9-1.2c-3.4,0-6.5,0.3-9.1,0.7c-0.8,15.5-1.7,30.9-2.5,46.4
						C570.7,398.7,570,400.2,568.8,401.3z"/>
					<path class="st31" d="M570.2,355.5C570.2,355.5,570.2,355.6,570.2,355.5c0.1,0,0.1,0,0.2,0c3.2,0.8,7,1.5,11.3,1.7
						c0.3,0,0.6,0,0.9,0c0.3,0,0.6,0,0.9,0c3.8,0,7.1-0.4,10.1-1c1.1-0.2,2.1-0.5,3.1-0.7c0-0.4,0.1-0.9,0.1-1.3
						c0.8-10.9,1.1-22.7-0.3-31.3c-1.3-7.9-3.9-11.8-6.8-13.3c-1.4-0.7-3.2-0.8-5.1-0.5c-6.7,1.2-15,8.1-15.7,12.7
						c-1.2,8.3,2,11.9,1.4,31.7C570.2,354.4,570.2,355.1,570.2,355.5z"/>
				</g>
			</g>
		</g>
		<path class="st27" d="M526.1,439.2c-1.8,1.4-3.6,2.8-5.4,4.2c-1,0.7-2.1,1.3-3.1,2c-1.1,0.7-2.1,1.3-3.6,1.9c-1,0.5-1.8,0.7-2.7,1
			c-0.9,0.3-2.1,0.9-3.7,1.6c-0.3,0.1-0.6,0.3-0.8,0.6c-0.5,0.6-1,1.2-1.3,2.1c-0.2,0.5-0.3,0.9-0.5,1.3c0,0.5,0,1.2,0.2,1.9
			c0.1,0.4,0.2,0.7,0.3,1c0.2-0.3,0.4-0.6,0.6-0.8c0.2-0.2,0.3-0.4,0.3-0.4c0,0,0,0,0,0c-1.2,1.6-4.4,6.2-4.7,6.7
			c-0.4,0.5-0.3,1.1-0.1,1.3c0.4,0.4,0.9-0.2,1.1-0.4c0.7-1,4.6-4.6,4.6-4.6c0,0,0,0.1-2.6,3.6c-1.1,1.5-1.7,2.3-1.4,2.7
			c0.2,0.3,0.8,0.3,1.1,0.2c0.6-0.1,1-0.6,1-0.7c3.2-3.4,4.3-4.5,4.3-4.4c0.1,0.1-4.2,4.4-3.5,5.4c0.2,0.3,0.8,0.3,0.9,0.3
			c0.9,0,1.5-0.9,1.6-1.1c1.6-1.8,3.6-3.9,3.5-3.8c-0.2,0.2-2.1,1.9-1.8,2.6c0,0.1,0.2,0.2,0.2,0.2c0.7,0.4,2.4-1,4.6-3
			c4.3-3.9,6.3-5.9,6.3-5.9c0.7-0.8,1.7-1.6,2.8-2.4c0.9-0.6,1.7-1.1,2.5-1.5c2.3-1.7,4.6-3.3,6.9-5
			C531.2,443.8,528.7,441.5,526.1,439.2z"/>
	</g>
	<g style="clip-path:url(#SVGID_00000003787005097937104860000000278509918272156088_);">
		<g>
			<g>
				<path class="st38" d="M320.3,538c7-3.5,9-9.5,9-9.5l-0.7-1.6l-0.7-1.6c0,0-5.8-2.6-13.1,0.1c-7.4,2.7-3.6,9-3.6,9
					S313.3,541.5,320.3,538z"/>
				<path class="st39" d="M319.2,535.9c5-2.2,10.1-7.7,10.1-7.7l-0.6-1.4l-0.6-1.4c0,0-7.4,0-12.5,2.1c-3.8,1.6-5.1,3.8-3.8,6.6
					C313,537.1,315.5,537.6,319.2,535.9z"/>
				<g>
					<g>
						<path class="st38" d="M327.8,524.9c0.2,0.7-0.6,0.5-1.4,0.3c-5.3-1.6-9.5-1.6-10.3-1.4c-1.7,0.3-3.5,1.1-4.1-0.9
							c-0.7-2.5,3.5-3.1,7-2.3C322.4,521.3,327.4,523.5,327.8,524.9z"/>
					</g>
					<g>
						<path class="st38" d="M329.5,528.8c-0.4-0.6-0.8,0.1-1.1,0.8c-2.4,5-5.4,8-5.9,8.5c-1.4,1-3.2,1.8-2.1,3.6
							c1.3,2.2,4.6-0.4,6.5-3.6C328.5,535.3,330.3,530.1,329.5,528.8z"/>
					</g>
				</g>
				<path class="st38" d="M312.8,531.3c-1.6,0.9-2.7,0.9-3.6,0c-1.1-1.1-0.7-3.1,0.2-4.7c1.4-2.5,5-2.5,6.1-0.4
					C316.7,528.2,314.4,530.4,312.8,531.3z"/>
				<path class="st39" d="M312.7,530.3c-0.7,0.9-1.9,1-2.7,0.4c-0.8-0.7-0.8-1.9-0.1-2.7c0.7-0.9,1.9-1,2.7-0.4
					C313.3,528.2,313.4,529.5,312.7,530.3z"/>
				<path class="st39" d="M315,527.8c-0.4,0.5-1,0.6-1.4,0.3c-0.4-0.3-0.4-1,0-1.4c0.4-0.5,1-0.6,1.4-0.3
					C315.4,526.7,315.4,527.3,315,527.8z"/>
				<path class="st39" d="M313.5,526.6c-0.3,0.4-0.7,0.6-1.1,0.4c-0.3-0.2-0.4-0.7-0.2-1.2c0.3-0.4,0.7-0.6,1.1-0.4
					C313.7,525.6,313.7,526.1,313.5,526.6z"/>
				<path class="st39" d="M311.8,526.4c-0.1,0.4-0.5,0.6-0.8,0.5c-0.3-0.1-0.5-0.5-0.3-0.9c0.1-0.4,0.5-0.6,0.8-0.5
					C311.8,525.6,311.9,526,311.8,526.4z"/>
				<path class="st38" d="M314.7,535.7c-1.7,0.5-2.5,1.4-2.5,2.6c0,1.6,1.8,2.6,3.6,3c2.8,0.6,5.2-2,4.5-4.2
					C319.6,535,316.5,535.1,314.7,535.7z"/>
				<path class="st39" d="M315.3,536.5c-1.1-0.1-2.1,0.7-2.1,1.7c-0.1,1,0.8,1.9,1.9,1.9c1.1,0.1,2.1-0.7,2.1-1.7
					C317.3,537.4,316.5,536.5,315.3,536.5z"/>
				<path class="st39" d="M318.8,536.5c-0.6,0-1.1,0.3-1.2,0.8c0,0.5,0.4,0.9,1.1,1c0.6,0,1.1-0.3,1.2-0.8
					C319.9,536.9,319.4,536.5,318.8,536.5z"/>
				<path class="st39" d="M318.6,538.4c-0.5-0.1-0.9,0.1-1,0.5c-0.1,0.4,0.2,0.8,0.7,0.9c0.5,0.1,0.9-0.1,1-0.5
					C319.5,538.9,319.1,538.5,318.6,538.4z"/>
				<path class="st39" d="M317.6,539.8c-0.4-0.2-0.8,0-0.9,0.3c-0.1,0.3,0.1,0.7,0.5,0.9c0.4,0.2,0.8,0,0.9-0.3
					C318.2,540.3,318,540,317.6,539.8z"/>
			</g>
			<g>
				<path class="st38" d="M339.4,531.2c1.3-1.8,1.8-3.1,1.7-5.3c-0.2-4.8-3.3-9.9-9.4-11.2c-2.6-0.5-4.1,0.4-5.4,3.4
					c-1.3,3-2.4,6.3-1.1,9.4c1.1,2.5,4.3,4.9,7.1,5.7C336.5,534.3,337.8,533.4,339.4,531.2z"/>
				<path class="st39" d="M341.1,525.8c-0.2-3.4-1.8-7-4.9-9.3c-1,1.6-2.5,3.9-3.7,5.2c-2.5,2.6-6.4,3.5-5.7,4.9
					c0.6,1.4,5.3-0.7,7.4-0.7c2.5,0,5.4,0.5,6.9,0.8C341.1,526.5,341.1,526.2,341.1,525.8z"/>
				<g>
					<g>
						<path class="st40" d="M328.7,522.5c-0.7,0.3-1.4,0-1.7-0.7c-0.3-0.7,0-1.4,0.7-1.7c0.7-0.3,1.4,0,1.7,0.7
							C329.7,521.5,329.4,522.2,328.7,522.5z"/>
						<path class="st41" d="M328.3,522.2c-0.3,0.1-0.7,0-0.9-0.3c-0.1-0.3,0-0.7,0.3-0.9c0.3-0.1,0.7,0,0.9,0.3
							C328.8,521.6,328.6,522,328.3,522.2z"/>
						<path class="st42" d="M327.6,520.6c0.5-0.2,1.2,0,1.4,0.6c0.2,0.4,0.1,0.9-0.3,1.2c0.5-0.3,0.6-0.9,0.4-1.4
							c-0.3-0.6-0.9-0.8-1.5-0.6c-0.4,0.2-0.7,0.6-0.7,1.1C327,521.1,327.3,520.7,327.6,520.6z"/>
						<path class="st42" d="M328.5,521.3c-0.1,0.1-0.3,0-0.4-0.1c-0.1-0.1,0-0.3,0.1-0.4s0.3,0,0.4,0.1
							C328.7,521.1,328.7,521.2,328.5,521.3z"/>
						<path class="st42" d="M328,521.2c-0.1,0-0.2,0-0.2-0.1c0-0.1,0-0.2,0.1-0.2c0.1,0,0.2,0,0.2,0.1
							C328.1,521,328,521.1,328,521.2z"/>
					</g>
					<g>
						<path class="st40" d="M331.2,528.3c-0.7,0.3-1,1.1-0.7,1.7c0.3,0.7,1.1,1,1.7,0.7c0.7-0.3,1-1.1,0.7-1.7
							C332.7,528.3,331.9,528,331.2,528.3z"/>
						<path class="st41" d="M331.2,528.8c-0.3,0.1-0.5,0.5-0.3,0.9c0.1,0.3,0.5,0.5,0.9,0.3c0.3-0.1,0.5-0.5,0.3-0.9
							C331.9,528.8,331.5,528.7,331.2,528.8z"/>
						<path class="st42" d="M331.9,530.4c0.5-0.2,0.8-0.9,0.6-1.4c-0.2-0.4-0.6-0.7-1.1-0.6c0.5-0.1,1.1,0.1,1.3,0.7
							c0.3,0.6,0,1.2-0.6,1.5c-0.4,0.2-0.9,0.1-1.3-0.2C331.1,530.5,331.5,530.5,331.9,530.4z"/>
						<path class="st42" d="M332,529.2c-0.1,0.1-0.2,0.2-0.1,0.4c0.1,0.1,0.2,0.2,0.4,0.1c0.1-0.1,0.2-0.2,0.1-0.4
							C332.3,529.2,332.1,529.2,332,529.2z"/>
						<path class="st42" d="M331.7,529.8c-0.1,0-0.1,0.2-0.1,0.2c0,0.1,0.2,0.1,0.2,0.1c0.1,0,0.1-0.2,0.1-0.2
							C331.9,529.8,331.8,529.7,331.7,529.8z"/>
					</g>
				</g>
				<g>
					<g>
						<path class="st38" d="M354,533.8c0.9-0.3,3-1.2,0.8-3.7c-1.6-1.9-3.5-2.9-5.1-3.4c-3.7-1.5-7.2-2.4-10.3-1.2
							c0,0-0.7,2.6-0.2,3c0,0,4.8,3.6,7,4.4C348.9,534,351.6,534.6,354,533.8z"/>
					</g>
					<g>
						<path class="st39" d="M350.6,531.8c4.1-0.6-2.1-3.8-3.4-4.2c-2.9-1.1-6.8-1.4-7.9-1.6c0,0-0.7,1-0.4,2.1c0,0,4.1,2,5.8,2.6
							C346.8,531.4,348.7,532.1,350.6,531.8z"/>
					</g>
				</g>
				<g>
					<g>
						<path class="st43" d="M340.5,509.6c-1-0.4-2-0.8-3.1-1.3c-0.3-0.1-0.6-0.3-0.9-0.4c-0.1,0.2-0.2,0.3-0.2,0.5
							c-1.3,2.6-2.2,8.2-2.2,8.2c0,0.3,2.3,2.1,2.3,2.1c2.9-1.9,4.7-4.4,6.4-7.5C342,510.7,341.4,509.9,340.5,509.6z"/>
					</g>
					<g>
						<path class="st39" d="M341.5,510.4c0,0-3.8-0.8-4.5,0.6c-1,2-2.6,6-2.6,6c0,0.2,1.8,1.5,1.8,1.5
							C336.9,517.3,339.8,513.6,341.5,510.4z"/>
					</g>
					<g>
						<path class="st38" d="M339.8,506.9c-0.8-0.7-2.6-0.5-4.5-0.2c-1.2,0.1-5.8,2-5.5,2.8c0.3,0.8,7.6,2.6,8.9,2.5
							C341.2,511.8,346,512.6,339.8,506.9z"/>
					</g>
				</g>
				<path class="st44" d="M326.6,529.4c1.1,0.2,1.8-2.7,1.5-3.4c-0.3-0.6-1-0.7-2.2-1.3c-0.7-0.3-1-0.1-1.3,0.2
					c0,0.8,0.2,1.6,0.6,2.4C325.6,528,326,528.7,326.6,529.4z"/>
				<g>
					<g>
						<path class="st45" d="M326.5,526.8c0,0-0.5,0.2-0.8,0.3c-0.3,0.1-0.8-0.2-0.3-0.9"/>
					</g>
					<g>
						<path class="st45" d="M326.4,526.8c0,0-0.5,0.2-0.8,0.3c-0.3,0.1-0.4,0.7,0.4,0.8"/>
					</g>
				</g>
				<g>
					<path class="st46" d="M327.2,527.7c-0.3-0.1-0.7-0.2-0.9-0.5c-0.1-0.1-0.3-0.5-0.3-0.7c0-0.4,0.1-0.8,0.3-1
						c0.1-0.2,0.7-0.7,1.3,0.8C328.2,527.7,327.4,527.8,327.2,527.7z"/>
					<g>
						<g>
							<path class="st47" d="M326,526.5c0.1,0,0.2,0,0.3,0c0.2-0.1,0.3-0.3,0.1-0.7c0-0.1-0.1-0.2-0.1-0.3
								C326.1,525.8,326,526.1,326,526.5z"/>
							<path class="st47" d="M327.2,527.7c0-0.1,0-0.2-0.1-0.3c-0.2-0.4-0.4-0.5-0.6-0.4c-0.1,0-0.2,0.1-0.2,0.2
								C326.6,527.5,326.9,527.7,327.2,527.7z"/>
						</g>
					</g>
					<path class="st48" d="M327.6,527c0,0,0.1-0.4-0.4-1.1c-0.5-0.6-0.8-0.4-0.8-0.4c0,0.1,0.3,0.4,0.2,0.8
						C326.5,526.7,326.8,525.6,327.6,527z"/>
				</g>
				<g>
					<path class="st49" d="M325.7,525.9c-0.2,0.1-0.5,0-0.6-0.3c-0.1-0.2,0-0.5,0.3-0.6c0.2-0.1,0.5,0,0.6,0.3
						C326.1,525.5,326,525.8,325.7,525.9z"/>
					<path class="st49" d="M326.9,528.7c-0.2,0.1-0.5,0-0.6-0.3c-0.1-0.2,0-0.5,0.3-0.6c0.2-0.1,0.5,0,0.6,0.3
						C327.3,528.3,327.2,528.6,326.9,528.7z"/>
				</g>
			</g>
		</g>
		<path class="st12" d="M321.2,504c0.3,1,0.7,2.4,1.4,4.1c2.3,5.6,4.2,6.7,5.5,10.1c2.1,5.7,0.6,11.6-0.3,11.5
			c-1.2-0.1-0.2-6.2-0.6-6.2c-0.4,0-0.1,7.7-1.4,7.7c-1.2,0-0.9-2.3-1.5-8.1c0.3,6.2,0.3,7.5-0.2,7.6c-0.8,0.2-0.8-1.2-2-7.2
			c-0.1,3,0,3.7-0.6,3.7c-0.6,0-0.6-1.7-1.9-4.8c-1.2-3-1.7-3.1-2.3-5.4c0,0-0.2-0.6-0.3-1.2c-0.3-1.4-0.2-2.9-0.2-3
			c0-1.1-0.3-2.8-1.9-5.7C317,506.1,319.1,505,321.2,504z"/>
		<path class="st50" d="M324.6,505.8c-1.5,1-3.3,2.2-5.5,3.2c-1.9,0.9-3.8,1.6-5.3,2.1c0-0.3-0.1-0.7-0.3-1.2
			c-0.1-0.3-0.2-0.6-0.3-0.9v0c-0.2-0.5-0.4-1.1-0.6-1.8c-0.1-0.3-0.2-0.6-0.3-0.9c-3.5-9.7-12.1-29-14.9-33c-2-4-6.9-14.7-2.3-23.3
			c0.3-0.6,0.7-1.2,1.1-1.8c1.2,0.4,3.2,1.2,5.4,2.6c0.3,0.2,0.7,0.5,1.2,0.8c7,5.5,15.7,35.5,15.7,35.5c1,3.3,2.3,8,4.2,13.5
			c0.1,0.3,0.2,0.6,0.3,1c0.2,0.6,0.4,1.2,0.7,1.8l0.3,1C324.2,504.8,324.4,505.3,324.6,505.8z"/>
		<g>
			<g>
				<path class="st12" d="M286,540.8c0.7,10.9,1.3,21.9,2,32.8c-0.1,0.7-0.4,1.8-0.8,3.1c-1.2,4.1-2.9,9.8-7.6,13.5
					c-0.8,0.6-4.3,3.3-6.1,2.2c-1.4-0.9-1.1-3.8-0.9-5.8c0.3-3,1.2-4.6,2.7-8.8c0.8-2.4,1.5-4.4,1.9-5.8c-1.6-8.6-3.2-17.2-4.8-25.7
					C276.9,544.4,281.4,542.6,286,540.8z"/>
				<path class="st51" d="M274,588.3c0.6,0.8,1.6,1.2,2,1.3c2.9,0.7,7.6-5.7,10.1-11.8c1.1-2.6,1.6-4.9,1.8-6.2
					c0.1,0.4,0.3,1.1,0.5,1.9c0.2,0.6,0.3,1.1,0.4,1.3c0.2,0.7,0.5,1.8,0.6,3.3c-1.5,4.5-3.4,7.9-4.7,10.2c-2.9,4.8-5.5,8.8-9.5,9.2
					c-0.8,0.1-2.2,0.2-3.3-0.7c-3.6-2.7-0.8-12.4,2.1-18.3c0.8-1.6,1.5-2.8,2.1-3.6c-0.3,2.5-0.9,4.4-1.5,5.7
					c-0.7,1.8-1.5,3.4-1.4,5.5C273.4,587,273.6,587.7,274,588.3z"/>
				<path class="st12" d="M256.8,558.4c-2,5.5-4.6,11.7-8,18.3c-2.7,5.2-5.5,9.8-8.2,13.9c-1.1,1.6-2.2,3.2-3.3,4.7
					c0.1,2.2,0.3,4.3,0.4,6.5c0.1,1-0.5,2-1.4,2.5c-1.2,0.6-2.5,1.4-3.8,2.5c-3.4,2.9-3.5,5.3-6.1,8.3c-3.9,4.6-10.5,7.3-12.4,5.6
					c-1.6-1.3-0.1-5.4,0.7-7.8c3.2-9,8.3-10.9,12.9-19.3c0.8-1.4,1.5-3.3,2.5-6.2c0.6-1.8,1.3-3.9,2.1-6.5
					c2.8-8.6,4.6-15.9,5.9-21.2C244.3,559.2,250.5,558.8,256.8,558.4z"/>
				<path class="st50" d="M225.4,591.2c5.8,0.6,11.6,1.3,17.3,1.9c6.8-12.8,13.7-25.6,20.5-38.5c-10-0.5-20.1-1-30.1-1.5
					C230.5,565.8,227.9,578.5,225.4,591.2z"/>
				<path class="st50" d="M271.7,571.8c6.7-1.5,13.5-2.9,20.2-4.4c-1.2-8.4-2.3-16.9-3.5-25.3c-6.6,1.9-13.1,3.9-19.7,5.8
					C269.7,555.9,270.7,563.8,271.7,571.8z"/>
			</g>
			<path class="st52" d="M305.8,542.3c-1.3,0.8-2.9,0.9-7.5,2.8c-1.1,0.5-2.4,1.1-3.9,2.1c-5.8,4-9,9.5-10.7,13.5
				c-8.1,0.3-17,1-26.5,2.4c-14,2-26.4,5.1-36.9,8.4c0.4-6.6,2.1-22.4,13.4-37.8c8.1-11.1,17.7-17.2,23.4-20.2
				c0.5-9.4,0.8-17.3,0.9-23.4c0.3-11.9,0-13.7-1-16c-3.3-7.9-10.8-12.1-9.2-15.8c0.3-0.6,1.3-1.6,3.3-3.6c1.4-1.4,2.7-2.5,3.6-3.2
				c0,0,4.1-2.1,9.4-3.7c0.2-0.1,0.4-0.1,0.6-0.2c0.5-0.2,1-0.3,1.6-0.5c0.2,0,0.3-0.1,0.5-0.1c0.2,0,0.4-0.1,0.5-0.1
				c4-1,9.8-1.6,16.8-1.3h0c0.1,0,0.1,0,0.2,0c0.5,0,1,0.1,1.4,0.1c0.2,0,0.4,0,0.6,0c3.2,0.3,6.8,1,10.7,2.6c0.9,0.3,1.9,0.8,3,1.4
				c1.4,0.8,2.6,1.6,3.6,2.4c-2.4,7.1-5,17.7-4.2,30.4c0,0.3,0,0.6,0.1,0.9c0.9,11.7,2.7,20.2,3.8,25.5
				C308.5,535.3,308.5,540.7,305.8,542.3z"/>
			<path class="st50" d="M304.1,524.5c-5.6-5.2-12.2-9.2-19.6-11.1c-7.3-2-15.1-2-22.5-0.6c3.6-1.3,7.5-2,11.4-2.1
				C285,510.1,297,515.3,304.1,524.5L304.1,524.5z"/>
			<path class="st12" d="M256.6,503.6c0.8,0.6,2.1,1.5,3.7,2.4c5.3,3,7.4,2.7,10.5,4.7c5.1,3.3,7.6,8.8,6.8,9.3
				c-1,0.7-4-4.8-4.3-4.6c-0.4,0.3,4.6,6.2,3.6,6.9c-1,0.7-2.1-1.2-6.1-5.5c4,4.8,4.8,5.7,4.5,6.1c-0.5,0.6-1.4-0.4-6-4.5
				c1.7,2.4,2.3,2.9,1.7,3.3c-0.4,0.3-1.6-1-4.4-2.7c-2.8-1.6-3.2-1.5-5.1-2.8c-1.5-1.1-1.6-1.6-3.2-2.8c-1.7-1.4-3.5-2.4-4.9-3
				C254.3,508.2,255.4,505.9,256.6,503.6z"/>
			<path class="st50" d="M260.8,503.6c-2.2,3.4-4.5,6.7-6.7,10.1c-0.5-0.3-1-0.6-1.5-1c-0.3-0.2-0.5-0.3-0.8-0.5
				c-0.5-0.3-1-0.7-1.6-1c-0.3-0.2-0.6-0.4-0.8-0.5c-3.4-2.2-6.2-4.1-8.4-5.7c-1.7-1.1-4.4-3-6-6.5c-0.1-0.2-0.2-0.4-0.2-0.6
				c-1.2-3.2-0.6-6.4,0.1-10c0.4-2.3,0.9-4,2.2-7.7c4.3-12.3,6.7-16.9,8.5-19.9c1.1-1.8,2.1-3.3,3.6-4.8c2.6-2.6,5.4-4,7.2-4.8
				c1.3,5.9,2.5,11.8,3.8,17.7c-2.8,4.6-5.7,10-8.2,16.3c-1.3,3.2-2.3,6.2-3.2,9.1c1.5,1.3,3,2.6,4.6,4c0.9,0.8,1.9,1.6,2.8,2.3
				c0.3,0.2,0.5,0.4,0.8,0.6c0.5,0.4,1,0.8,1.5,1.2c0.3,0.2,0.5,0.4,0.8,0.6C259.8,502.9,260.3,503.2,260.8,503.6z"/>
			<path class="st50" d="M267.1,529.2c4.1-8,14.8-8.7,21-2.7C280.7,522.7,273.1,522.9,267.1,529.2L267.1,529.2z"/>
			<path class="st50" d="M262.6,532.6c-0.1,10.4-7.7,20.3-17.7,23.1C254,550.9,260.3,542.6,262.6,532.6L262.6,532.6z"/>
			<g>
				<path class="st18" d="M259.3,502.5c-1.1,1.1-2.1,2.3-3,3.6c-1.5,2.1-2.7,4.3-3.7,6.7c-0.3-0.2-0.5-0.3-0.8-0.5
					c1-2.4,2.2-4.6,3.7-6.7c0.9-1.3,1.9-2.5,3-3.6C258.8,502.1,259,502.3,259.3,502.5z"/>
			</g>
			<g>
				<path class="st18" d="M257,500.7c-1.1,1.1-2.1,2.3-3,3.6c-1.5,2.1-2.8,4.5-3.8,6.9c-0.3-0.2-0.6-0.4-0.8-0.5
					c1-2.5,2.3-4.8,3.8-6.9c0.9-1.3,1.9-2.5,3-3.6C256.5,500.3,256.8,500.5,257,500.7z"/>
			</g>
		</g>
		<g>
			<polygon class="st12" points="282,447 282,433.7 269.5,433.7 268.7,447 282,454.5 			"/>
			<path class="st53" d="M281.9,443.3c0.2-4.4,0.3-8.9,0.5-13.3h-12.5c-0.3,3.6-0.6,7.1-0.9,10.7c0.9,1.1,2.7,3.1,5.5,4.5
				c3.1,1.6,5.9,1.8,7.4,1.8C281.9,445.8,281.9,444.5,281.9,443.3z"/>
			<g>
				<circle cx="282" cy="396.7" r="10"/>
				<path class="st12" d="M295.9,405.8c0,4.3,1.8,14-0.1,22.8c-1.8,8.6-7.5,18-15.1,15.8c-12.5-3.5-13.9-9.9-15.6-19.7
					c-1.3-8-2-16.2-1.9-20.5L295.9,405.8z"/>
				<path class="st21" d="M256.8,410.4c0,4.8-0.1,19,8,23.1c0.6,0.3,1.5,0.7,2.9,0.9c-0.9-2.5-1.8-5.3-2.6-8.4
					c-0.5-1.8-0.8-3.5-1.1-5.2c2.7,1.1,3.7,2.4,4,3.4c0.2,0.7,0.2,1.1,0.7,4.1c0.3,2,0.4,2.2,0.5,2.2c0.5,0-0.5-5.6,3-10.1
					c0.6-0.8,1.7-2.1,2.4-4.2c0.6-1.8,0.5-3.5,0.4-4.6c1.2,0.3,1.9,0.9,2.2,1.2c1.6,1.7,1.6,4.7,0.1,7.4c2.4-0.8,6.4-1.9,11.3-1.6
					c3.9,0.2,7.1,1.2,9.2,2.1c0.5-1.7,2.4-8.9-1.4-16.2c-5.7-10.7-18.3-11.2-19-11.2c-0.9,0-12.2-0.1-17.6,8.3
					C257.5,404.8,256.8,407.5,256.8,410.4z"/>
				<path class="st54" d="M262.4,406.4c-0.8,1.1-1.7,2.3-2.7,3.5c-1,1.2-2,2.3-2.9,3.3c0.6,0,1.2,0,1.9-0.1c0.1,1.1,0.3,2.3,0.4,3.4
					c1.9-3.3,3.8-6.6,5.8-10C264,406.5,263.2,406.5,262.4,406.4z"/>
				<path class="st54" d="M264.9,407.4c0.2,1.3,0.5,2.8,0.9,4.3c0.4,1.5,0.8,2.9,1.2,4.3c-0.5-0.3-1.1-0.6-1.6-0.9
					c-0.6,1-1.2,1.9-1.8,2.9c-0.3-3.8-0.6-7.7-0.9-11.5C263.4,406.7,264.2,407,264.9,407.4z"/>
				<g>
					<path class="st55" d="M287.8,436.7c-0.6,0.1-1.2,0.3-1.8,0.3c-0.6,0.1-1.1,0.1-1.7,0.1c-1.1,0-2.3-0.1-3.5-0.3
						c0.5,0.4,1.1,0.7,1.7,0.9c0.6,0.2,1.2,0.3,1.9,0.3c0.6,0,1.3-0.1,1.9-0.3C286.8,437.5,287.4,437.1,287.8,436.7z"/>
					<path class="st53" d="M287.1,433.2c-0.3,0.2-0.8,0.4-1.3,0.5c-0.9,0.1-1.5-0.3-1.5-0.2c0,0.1,1.2,1.2,2.1,0.7
						C286.9,433.9,287.1,433.4,287.1,433.2z"/>
					<path d="M288.9,421.6c0.9-0.4,2.3-0.9,4-0.8c1.2,0,2.2,0.3,2.9,0.6c-0.6-0.4-1.6-0.9-2.8-1.1c-1.9-0.4-3.4,0-4.2,0.3
						c0,0.1-0.1,0.3-0.1,0.5C288.8,421.3,288.9,421.5,288.9,421.6z"/>
					<path d="M282,422c-0.9-0.4-2.5-1-4.5-1.1c-1.4,0-2.5,0.2-3.4,0.4c0.7-0.4,1.8-0.8,3.2-0.9c2.1-0.2,3.8,0.2,4.8,0.6
						c0,0.1,0.1,0.3,0.1,0.5C282.2,421.7,282.1,421.9,282,422z"/>
					<path d="M275.2,426.2c0-0.1,2.6-2.5,5.1-1.5c1,0.4,1.5,1.2,1.8,1.7c-0.5-0.5-1.3-1-2.3-1.2
						C277.4,424.6,275.3,426.3,275.2,426.2z"/>
					<path d="M278.5,425.5c0-0.1,0-0.2,0.1-0.4c0.2-0.4,1.1-0.3,1.6-0.1c0.3,0.1,0.5,0.2,0.6,0.3c0.1,0.7-0.4,1.3-1.1,1.3
						C279,426.6,278.6,425.9,278.5,425.5z"/>
					<path d="M288.5,426.2c0-0.1,2.3-2.5,4.4-1.5c0.8,0.4,1.3,1.2,1.6,1.7c-0.5-0.5-1.1-1-1.9-1.2
						C290.4,424.6,288.5,426.3,288.5,426.2z"/>
					<path d="M291.4,425.4c0-0.1,0-0.2,0-0.4c0.2-0.4,1-0.3,1.4-0.1c0.2,0.1,0.4,0.2,0.5,0.3c0.1,0.7-0.4,1.3-0.9,1.3
						C291.8,426.6,291.4,425.9,291.4,425.4z"/>
				</g>
				<ellipse class="st12" cx="264.9" cy="424.3" rx="3.6" ry="4.8"/>
				<circle cx="260.8" cy="399.1" r="10"/>
			</g>
		</g>
		<path class="st18" d="M267.2,444.1c4.6,2.1,9.3,4.1,13.9,6.2c0.2,1.8,0.5,3.5,0.7,5.3c-4.9-2.9-9.8-5.8-14.7-8.6
			C267.2,446,267.2,445.1,267.2,444.1z"/>
		<path class="st18" d="M284.1,449.3c-0.7,1.7-1.4,3.5-2.1,5.2c0-3,0-5.9,0-8.9C282.7,446.8,283.4,448,284.1,449.3z"/>
		<path class="st51" d="M238.1,601.4c0.1,1.1-0.5,2.2-1.5,2.6c-1.2,0.6-2.5,1.4-3.9,2.6c-3.5,3-3.7,5.4-6.3,8.6
			c-4,4.7-10.8,7.5-12.8,5.8c-1.6-1.4-0.1-5.6,0.7-8.1c1.5-4.2,3.4-6.9,5.4-9.4c-1.9,2.8-3.3,5.7-2.3,7.3c0.3,0.5,1.2,1.4,2.4,1.5
			c1.6,0.1,6-2.9,14.9-11.6c0.8-0.8,1.9-1.9,3.1-3.1C237.9,598.9,238,600.1,238.1,601.4z"/>
		<path class="st18" d="M281.9,455.6c0.5,7.8,1.1,15.7,1.6,23.5c-0.3-8.7-0.6-17.5-0.9-26.2c-0.2,0.5-0.4,1-0.6,1.5
			c-0.2-0.1-0.4-0.1-0.6-0.2C281.5,454.7,281.7,455.2,281.9,455.6z"/>
		<g>
			<path class="st18" d="M323.1,501.6c-2,1.6-4.2,2.9-6.5,4c-1.3,0.6-2.6,1.1-4,1.6c-0.1-0.3-0.2-0.6-0.3-0.9
				c1.3-0.4,2.6-0.9,3.9-1.5c2.3-1.1,4.5-2.5,6.6-4.1C322.8,501,322.9,501.3,323.1,501.6z"/>
		</g>
		<g>
			<path class="st18" d="M324,504.4c-2,1.5-4.1,2.8-6.4,3.9c-1.4,0.6-2.8,1.2-4.2,1.6c-0.1-0.3-0.2-0.6-0.3-0.9v0
				c1.4-0.4,2.8-1,4.1-1.6c2.3-1.1,4.4-2.4,6.4-4L324,504.4z"/>
		</g>
	</g>
</g>
</svg>
