<?xml version="1.0" encoding="utf-8"?>
<!-- Generator: Adobe Illustrator 26.0.1, SVG Export Plug-In . SVG Version: 6.00 Build 0)  -->
<svg version="1.1" id="Layer_1" xmlns="http://www.w3.org/2000/svg" xmlns:xlink="http://www.w3.org/1999/xlink" x="0px" y="0px"
	 viewBox="0 0 1000 1000" style="enable-background:new 0 0 1000 1000;" xml:space="preserve">
<style type="text/css">
	.st0{clip-path:url(#SVGID_00000070824296667230369500000012958267672588564665_);fill:#FFD7DC;}
	.st1{clip-path:url(#SVGID_00000070824296667230369500000012958267672588564665_);}
	.st2{fill:#F7B7C1;}
	.st3{fill:#FFFFFF;}
	.st4{fill:#D8989D;}
	.st5{fill:#FFD7DC;}
	.st6{clip-path:url(#SVGID_00000070824296667230369500000012958267672588564665_);fill:#F7B7C1;}
	.st7{fill:#415CA0;}
	.st8{fill:#345389;}
	.st9{fill:#EBC9AF;}
	.st10{fill:#E09C6E;}
	.st11{fill:#030202;}
	.st12{fill:#BBDAE6;}
	.st13{fill:#E8C3AA;}
	.st14{fill:#E0925C;}
	.st15{fill:#3D3D3D;}
	.st16{fill:#A34F2E;}
	.st17{fill:#7C3A25;}
	.st18{fill:#E80F2E;}
	.st19{fill:#1021B5;}
	.st20{fill:#4F4E4E;}
	.st21{fill:#3A3A3A;}
	.st22{fill:#BCA18C;}
	.st23{opacity:0.7;}
	.st24{fill:url(#SVGID_00000140713527413588358940000004457021649193288578_);}
	.st25{fill:#9C1C3E;}
	.st26{fill:#785136;}
	.st27{fill:url(#SVGID_00000073710038417883704320000002939047859755572638_);}
	.st28{fill:url(#SVGID_00000083800556772456453520000001935372372831229614_);}
	.st29{fill:url(#SVGID_00000069381215761658753730000012024938731262075062_);}
	.st30{fill:url(#SVGID_00000000191340244692985570000007277674622024039350_);}
	.st31{fill:#FFD280;}
	.st32{fill:#84030A;}
	.st33{fill:#F8AE38;}
	.st34{fill:#F7B89F;}
	.st35{fill:#D19182;}
	.st36{fill:#726562;}
	.st37{fill:#CCA279;}
	.st38{fill:#3F3F3F;}
	.st39{fill:#910209;}
	.st40{fill:#515151;}
	.st41{fill:#9F0102;}
	.st42{fill:none;stroke:#F8AE38;stroke-width:1.9339;stroke-miterlimit:10;}
	.st43{fill:#FAD4AF;}
	.st44{fill:none;}
	.st45{fill:#191513;}
	.st46{fill:#E09D6C;}
	.st47{fill:#847977;}
	.st48{fill:#EFB78E;}
</style>
<g>
	<g>
		<g>
			<defs>
				<path id="SVGID_1_" d="M172.9,738.8c-42.8-53.9-44.8-100-44.2-118.7c2.8-79.4,69.8-135.6,112.4-171.3
					c65.8-55.2,84.4-37.9,123.4-85.2c48.7-59,34-103,83.8-136.7c2.5-1.7,54.7-35.9,107.3-19.1c52.7,16.8,46.6,66,109.7,101.7
					c51.8,29.3,73.4,4.9,106,33.3c45.6,39.6,33.1,116.6,48.9,177.5c14.8,57.3,57.9,108.7,50.2,167.6c-6,45.4-42.4,80.6-82.4,95.6
					s-83.5,13.9-125.8,12.5c-95.7-3.1-192.4-9.1-287.6-5.3C312.8,793.3,215.9,800.9,172.9,738.8z"/>
			</defs>
			<clipPath id="SVGID_00000153684340301128508240000011862633524597025414_">
				<use xlink:href="#SVGID_1_"  style="overflow:visible;"/>
			</clipPath>
			<path style="clip-path:url(#SVGID_00000153684340301128508240000011862633524597025414_);fill:#FFD7DC;" d="M870.4,687.9
				c-6,45.4-42.4,80.6-82.4,95.6c-40,15.1-83.5,13.9-125.8,12.5c-95.7-3.1-192.4-9.1-287.6-5.3c-53.1,2.1-131.9,8-180.4-29.5
				c-8-6.2-15.2-13.6-21.3-22.5c-42.8-53.9-44.8-100-44.2-118.7c1.9-53.2,32.6-96,65.5-129.2c16.2-16.3,32.9-30.3,46.9-42.1
				c65.8-55.2,84.4-37.9,123.4-85.2c48.7-59,34-103,83.8-136.7c2.5-1.7,54.7-35.9,107.3-19.1c52.7,16.8,46.6,66,109.7,101.7
				c51.8,29.3,73.4,4.9,106,33.3c45.6,39.6,33.1,116.6,48.9,177.5C835.1,577.6,878.2,629,870.4,687.9z"/>
			<g style="clip-path:url(#SVGID_00000153684340301128508240000011862633524597025414_);">
				<path class="st2" d="M221.3,801.4c-5.7-12.2-14-34.1-14.9-62.5c-0.9-28.6,6.1-51,11.1-63.6c8.7,10.5,20.9,27.9,29.2,51.9
					c9.8,28.3,9.8,53,8.7,67.5C244,796.9,232.7,799.2,221.3,801.4z"/>
				<path class="st3" d="M237.8,798.3c-4.7-9.4-7.2-19.7-9.4-29.9c-6.3-30.7-9.1-61.9-11-93.1c2.1,31.2,5.2,62.4,11.8,93
					c2.3,10.1,4.9,20.3,9.6,29.5C238.8,797.8,237.8,798.3,237.8,798.3L237.8,798.3z"/>
			</g>
			<g style="clip-path:url(#SVGID_00000153684340301128508240000011862633524597025414_);">
				<path class="st4" d="M274.1,795.1c3.9-19.1,8.9-52.8,5.7-94.6c-3.3-42-13.5-73.3-20.2-90.6c-7.1,17.3-16.6,45.2-21.3,82.2
					c-5.6,43.5-2,79.6,1.3,100.6C251,793.5,262.6,794.3,274.1,795.1z"/>
				<path class="st3" d="M256.2,793.7c3.4-14.9,4.4-30.3,5.2-45.6c2-46,0.6-92.2-1.8-138.2c3,53.7,5.7,107.6,1.4,161.3
					c-0.7,7.7-1.7,15.3-3.4,22.9L256.2,793.7L256.2,793.7z"/>
			</g>
			<g style="clip-path:url(#SVGID_00000153684340301128508240000011862633524597025414_);">
				<path class="st5" d="M294.8,795.1c2.3-11.1,5.2-30.7,3.3-55c-1.9-24.4-7.8-42.6-11.8-52.7c-4.1,10.1-9.7,26.3-12.4,47.8
					c-3.2,25.3-1.1,46.3,0.7,58.5C281.4,794.2,288.1,794.6,294.8,795.1z"/>
				<path class="st3" d="M284.3,794.3c1.4-6.3,2.2-13.4,2.6-19.9c1.8-29,0.8-58.1-0.7-87c1.7,29,2.9,58.1,1.3,87.1
					c-0.4,6.5-1.2,13.6-2.5,20C285.1,794.5,284.3,794.3,284.3,794.3L284.3,794.3z"/>
			</g>
			<path style="clip-path:url(#SVGID_00000153684340301128508240000011862633524597025414_);fill:#F7B7C1;" d="M194.2,490.9v270.3
				c-8-6.2-15.2-13.6-21.3-22.5c-42.8-53.9-44.8-100-44.2-118.7C130.6,566.9,161.4,524.1,194.2,490.9z"/>
			<g style="clip-path:url(#SVGID_00000153684340301128508240000011862633524597025414_);">
				<g>
					<g>
						<g>
							<path class="st7" d="M682,599.3c-1,11.2-4.5,19.8-7.1,24.9c0,6.9,0,13.7,0.1,20.6c-11.9-0.2-24.3-0.1-37.2,0.4
								c-13.9,0.5-27.2,1.3-39.8,2.4c0.1-2.3,0.1-4.6,0.1-6.9c0-2.2,0-4.4,0-6.6c-6.3-0.2-12.7-0.4-19-0.6c-1.5,0-2.8-0.8-3.7-1.8
								c-0.7-0.8-1.1-1.8-1.1-2.9c0-0.4-0.1-1,0-1.5c0.8-10.7,2.4-19.6,3.8-26.5c0,0,3.2-16.6,10.2-28.8c1-1.7,1.7-3,3.1-3.8
								c5.7-3.2,10.9-5.6,15.2-7.4c0,0,6.5-2.9,16-5.7c1-0.3,1.9-0.5,2.8-0.8c1.8-0.5,4.4-1.2,7.7-1.4c4.4-0.2,7.7,0.6,14.2,2.6
								c0.2,0.1,0.3,0.1,0.5,0.1c0,0,0,0,0,0c0.7,0.2,1.1,0.3,1.1,0.3c4.7,1.5,11.4,4.7,11.4,4.7c2,0.8,4.1,1.8,6.2,3
								c4.9,2.7,8.8,5.6,12,8.4c0.2,0.1,0.3,0.3,0.3,0.5C680.7,578.1,683,587.5,682,599.3z"/>
							<path class="st8" d="M629.6,579c1.2-1.3,3.1-3.2,5.9-4.8c3.4-1.9,6.5-2.4,8.4-2.6c-1.5,2.3-3.1,4.6-4.6,6.9
								C636.1,578.7,632.9,578.8,629.6,579z"/>
							<path class="st8" d="M603.7,592.2c-1.6,8.4-3.2,16.9-4.8,25.3c1.5,0.5,2.9,1,4.4,1.5C603.4,610,603.5,601.1,603.7,592.2z"/>
							<path class="st8" d="M659.1,629.6c-13,2.3-27.8,4.2-44.2,4.9c-12.4,0.5-23.9,0.3-34.3-0.4c-1.6-0.2-2.7-0.7-3.4-1.1
								c-0.7-0.4-1.3-0.7-1.9-1.4c-0.7-0.8-1.1-1.8-1.1-2.9c11.6,1.9,25.7,3.3,41.7,3c12.4-0.3,23.6-1.6,33.1-3.3
								c-0.7-1-1.5-2.2-2.3-3.5c-0.8-1.4-1.5-2.8-2-4c-6.9,0.4-14.5,0.4-22.7,0c-6.8-0.4-13-1-18.8-1.9c-1.4-1.2-2.7-2.5-4.1-3.7
								c9.5,1.3,20,2.3,31.3,2.7c7.8,0.3,15.3,0.2,22.3-0.1c0.7,1.1,1.3,2.2,2,3.3C656.5,624.1,657.9,626.9,659.1,629.6z"/>
							<path class="st9" d="M647.3,555.8c-2.5,1.6-6.1,4.3-9.4,8.6c-3,3.9-4.7,7.7-5.6,10.4c-0.3-2.4-1-5.9-2.8-9.8
								c-2.2-4.5-5-7.6-6.9-9.3c0-0.1,0-0.2,0-0.3c1-0.3,1.9-0.6,2.8-0.9c1.8-0.7,4.5-1.4,7.8-1.7
								C637.5,552.5,640.7,553.4,647.3,555.8z"/>
							<g>
								<path class="st9" d="M646.2,543.1v20.5c-7.9,0-15.9,0-23.8-0.1v-20.4H646.2z"/>
							</g>
							<g>
								<path class="st10" d="M646.2,543.1v9.4c-1.9,1.5-6.1,4-12.1,4c-5.6,0-9.7-2.3-11.7-3.8v-9.7H646.2z"/>
							</g>
							<g>
								<path class="st9" d="M651.7,525c0.4-2.8,1.4-4.8,2.1-6.1c1.1-1.9,2.8-4.8,5.3-4.8c0.1,0,1.3,0,2.2,0.8
									c1.7,1.6,0.7,5-0.9,10.7c0,0-0.6,2.3-2.6,5.7c-0.5,0.9-1.1,1.8-2.1,2.2c-0.1,0-1.4,0.5-2.6,0c-1.5-0.7-2.4-2.6-2-4.7
									C651.3,527.5,651.5,526.2,651.7,525z"/>
								<path class="st9" d="M613,531.3c0,0-0.2,0.4-0.4,0.8c-0.1,0.2-0.3,0.4-0.4,0.6c-0.1,0.1-0.1,0.1-0.2,0.2
									c-0.2,0.2-0.4,0.3-0.7,0.5c0,0,0,0,0,0c-0.2,0.1-0.4,0.1-0.5,0.2c-0.1,0-0.2,0-0.3,0c-0.2,0-0.5,0-0.8-0.1
									c0,0-0.1,0-0.1-0.1c-0.1,0-0.2-0.1-0.4-0.2c-0.4-0.2-0.9-0.5-1.4-1c-0.2-0.1-0.4-0.4-0.7-0.7c-0.7-0.9-1.8-2.6-2.5-6.2
									c-1-4.8-0.6-6.8-0.3-7.4c0.3-0.7,0.8-1.8,1.8-2.1c1.4-0.4,3.4,1.2,4.9,4.1c0.2,1.3,0.5,2.5,0.7,3.8c0.1,0.8,0.3,1.5,0.4,2.3
									c0.1,0.3,0.1,0.7,0.2,1c0.1,0.7,0.3,1.4,0.4,2.1C612.8,529.9,612.9,530.6,613,531.3z"/>
								<path class="st10" d="M613,531.3c0,0-0.2,0.4-0.4,0.8c-0.1,0.2-0.3,0.4-0.4,0.6c-0.1,0.1-0.1,0.1-0.2,0.2
									c-0.2,0.2-0.4,0.4-0.7,0.5c0,0,0,0,0,0c-0.2,0.1-0.3,0.2-0.5,0.2c-0.1,0-0.2,0-0.3,0c-0.2,0-0.5,0-0.8-0.1
									c0.1-0.3,0.2-0.6,0.3-0.9c1.1-3.7,1-7.4,0.3-10.4c0.9,2,1.8,4.3,2.4,7C612.8,529.9,612.9,530.6,613,531.3z"/>
								<path class="st10" d="M652.2,531.3c0.1,0.2,1,2.1,2.6,2.3c0,0,0.2,0,0.3,0c0,0,0.1,0,0.2,0c0.1,0,0.3-0.1,0.5-0.2
									c0.1,0,0.2-0.1,0.4-0.2c-0.3-1,0.1-2.8-0.8-5.1c0,0-0.7-1.8-1.8-2.1c-0.1,0-0.2,0-0.3,0
									C652.9,527.8,652.6,529.6,652.2,531.3z"/>
								<path class="st9" d="M610.2,502.1c-1.6,13.2-1.2,16.4-0.5,23.8c0,0.5,0.1,1,0.1,1.1c0,0,0,0,0,0.1
									c1.2,9.6,6.2,17.1,6.2,17.1c2.1,3.1,3.7,5.6,7.1,7.7c1.6,1,5.9,3.4,11,3.1c0,0,12.7-0.7,20.6-20.7c1.5-3.8,1.8-9.2,1.8-9.3
									c0-0.2,0-0.4,0-0.5c0,0,0-0.1,0-0.1c-0.3-6.9-0.4-9.7-0.6-23.3c-2.6-2-10.4-7.2-21.6-7.4
									C621.4,493.5,612.6,500.2,610.2,502.1z"/>
								<g>
									<path class="st11" d="M657.2,520.3c-0.2,0-0.4,0.1-0.7,0.1c-0.2,0-0.4,0-0.6,0l0,0c-1-0.1-1.6-0.5-2-0.7c0,0-1.9-1.2-3-1.8
										c-0.6-0.3-1.3-0.6-1.9-0.7c-2-0.6-3.7-0.5-4.4-0.5c-0.3,0-0.8,0.1-1.4,0.1l0,0c-0.9,0.1-2,0.4-3.3,1
										c-1.2,0.5-2.1,1.1-2.7,1.6c-0.3,0.3-0.8,0.4-1.2,0.3c-0.4-0.1-0.6-0.5-0.7-0.7c-0.1-0.1-0.2-0.2-0.3-0.2l-4.9-0.1
										c-0.1,0-0.3,0.1-0.3,0.2c-0.1,0.2-0.3,0.5-0.8,0.6c-0.4,0.1-0.9,0-1.2-0.3c-0.6-0.5-1.5-1.1-2.6-1.7c-1-0.5-1.9-0.8-2.7-1
										l0,0c-0.8-0.2-1.5-0.3-1.9-0.3c-0.4,0-1.1-0.1-2.1,0c-1.2,0.1-2.7,0.3-4.2,1c-1.1,0.6-3.1,1.7-3.1,1.7
										c-0.2,0.1-0.4,0.2-0.6,0.3c-0.2,0.1-0.5,0.2-0.8,0.2c-0.2,0-0.4,0.1-0.6,0.1c-0.2,0-0.5,0-0.6,0c-0.3,0-0.5-0.1-0.7-0.1
										c0,0.2,0,0.3,0,0.5l0,0c-0.1,0.8-0.1,1.6-0.2,2.4c0.3,0,0.7,0,1.1,0.1c0.1,0,0.2,0.1,0.3,0.1c0.2,0.1,0.3,0.1,0.4,0.3
										c0.2,0.3,0.2,0.6,0.2,0.7c0,0.2,0,0.4,0.1,0.7c0.1,0.8,0.3,1.7,0.6,2.7c0,0,0,0,0,0c0.2,0.7,0.6,1.5,1,2.3
										c0.3,0.6,0.7,1.2,1.2,1.9c0.5,0.6,1.1,1.2,1.9,1.8c2.8,1.9,5.7,1.7,6.5,1.6c0.7-0.1,3.2-0.4,5.3-2.3
										c1.6-1.4,2.2-3.1,2.7-4.5c0.7-1.9,0.9-3.5,1-4.7c0-0.1,0-0.1,0-0.2c-0.1-0.3-0.5-1.1-0.1-1.7c0.3-0.4,0.7-0.5,1.2-0.7
										c0.5-0.1,2.8-0.1,3.3,0.1c0.5,0.2,0.9,0.3,1.2,0.7c0.4,0.6,0,1.5-0.1,1.7c0,0.1,0,0.1,0,0.2c0,1.1,0.2,2.8,0.8,4.7
										c0.5,1.5,1.1,3.1,2.6,4.6c2,2,4.4,2.4,5.2,2.5c0.8,0.1,3.8,0.4,6.6-1.4c1.7-1.1,2.6-2.5,3.2-3.6c1.4-2.3,1.7-4.4,1.9-5.7
										c0-0.1,0-0.5,0.2-0.7c0.1-0.1,0.2-0.2,0.4-0.2c0,0,0.1,0,0.2,0c0.2,0,0.3-0.1,0.5-0.1c0.3,0,0.5,0,0.8,0
										C657.3,522.2,657.3,521.3,657.2,520.3z M628,525c-0.2,2.9-1.8,4.8-2.3,5.4c-0.6,0.6-1.6,1.9-3.4,2.5
										c-3.6,1.3-6.8-0.7-7.2-0.9s-2.1-1.4-3.2-3.5c-0.3-0.7-0.6-1.4-0.8-2.3c-0.1-0.8-0.1-1.6,0-2.3c0.1-1,0.4-1.7,0.5-2.2
										c0.2-0.5,1-2.4,3-3.5c1.2-0.7,2.3-0.9,3.6-0.9c0.5,0,1,0,1.5,0l0.1,0c1.5,0.1,3.3,0.1,5.2,1.4c0.6,0.4,1.7,1.1,2.4,2.4
										C628.1,522.8,628,524.2,628,525z M653.6,526.9c-0.7,3.6-3.5,5.3-4.1,5.6c-0.4,0.2-3.7,2.1-7.3,0.7c-1.8-0.7-2.8-2-3.3-2.6
										c-0.5-0.6-2.1-2.6-2.2-5.5c0-0.9-0.1-2.3,0.8-3.8c0.8-1.3,1.8-2,2.4-2.3c2-1.2,3.9-1.2,5.3-1.2c0.4,0,0.9,0,1.3,0l0,0
										c0.9,0,1.7,0.1,2.5,0.4c0.4,0.1,0.8,0.3,1.3,0.6c1.9,1.2,2.7,3,2.9,3.6C653.5,523.3,654,524.9,653.6,526.9z"/>
								</g>
								<path class="st10" d="M624.7,543.7c0-0.2,2.4-0.2,7.3-0.2c5.2,0,7.7,0,7.7,0.2c0,0.3-3.7,1.2-7.7,1.2
									C628.2,544.8,624.7,544,624.7,543.7z"/>
							</g>
							<path class="st12" d="M646.2,554.7c-1.1,1.4-2.3,2.9-3.6,4.3c-1.8,2-3.5,3.9-5.3,5.7c3.4,1.5,6.9,2.9,10.3,4.4
								c0.7-4.3,1.6-8.8,2.3-13.2C648.7,555.5,647.5,555.1,646.2,554.7z"/>
							<path class="st12" d="M622.5,554.9c-1.7,0.5-3.4,1.1-5.1,1.6c0.6,2.8,1.1,5.7,1.7,8.4c0.5,2.3,1,4.5,1.5,6.8
								c3.3-2.3,6.6-4.5,9.9-6.8c-1.3-1.1-2.8-2.5-4.3-4.3C624.5,558.6,623.4,556.5,622.5,554.9z"/>
							<g>
								<g>
									<path class="st13" d="M639.8,571.6c-0.2-0.5-0.4-0.9-0.5-1.1c0-0.1-0.1-0.1-0.1-0.2c0,0,0,0,0,0c0,0,0.2-0.4,0.3-0.6
										c0.1-0.1,0.1-0.2,0.2-0.3c0.8-1.5,1.6-3.1,1.5-4.9v-0.1l0-0.2c0-0.6,0-1.1,0-1.7c0,0,0,0,0,0c0.1-1.6,0.5-3.2,1.7-4.3
										c0.1-0.1,0.3-0.3,0.4-0.4c0.5-0.5,1.1-0.9,1.1-1.6c0-0.6-0.7-1.1-1.3-1.1c-0.6,0-1.2,0.2-1.8,0.7c-2.1,1.5-3.3,3.4-3.3,5.4
										c0,0.1-0.1,0.1-0.1,0.1c-0.1,0-0.1,0-0.2-0.1c-0.6-2.2-1.4-4.6-2.9-6.5c-1.5-1.7-4.1-2.9-6.3-1.9c-0.2,0.1-0.3,0.2-0.5,0.3
										c-0.4,0.3-0.7,0.7-0.7,1.1c0,0.2,0.1,0.4,0.2,0.5c0,0,0,0,0,0c0,0,0,0.1,0,0.1c0,0.1,0,0.1,0,0.2c0,0.2-0.1,0.3-0.2,0.4
										c0,0-0.1,0.1-0.1,0.1c-0.1,0.1-0.1,0.1-0.2,0.1c-0.3,0.1-0.6,0.1-1,0.2c-0.4,0.1-1.1,0.4-1.3,0.9c0,0.1,0,0.2-0.1,0.3
										c0,0.1,0,0.2,0.1,0.4v0c0,0.1,0,0.1,0,0.1c0,0.3-0.2,0.5-0.4,0.6c0,0-0.1,0-0.1,0h0c0,0,0,0,0,0c-0.9,0-1.2,0.1-1.7,0.4
										c-0.3,0.1-1.6,1-1.6,2c0,0.1,0,0.2,0.1,0.3c0,0,0,0,0,0c0,0,0,0.1,0,0.1c0,0.2,0,0.3-0.1,0.5c0,0-0.1,0.1-0.1,0.1
										c0,0,0,0,0,0c0,0,0,0-0.1,0c-0.3,0.2-0.5,0.6-0.6,0.9c-0.3,0.8,0.2,1.6,0.8,2.1c0.1,0.1,0.2,0.2,0.3,0.3
										c0.6,0.5,1.3,1.1,2,1.2c0,0,0.1,0.1,0.1,0.1c0.8,2.8,2.9,5.2,4.8,7.5c0.3,0.3,0.5,0.6,0.8,0.8c0.2,0.2,0.4,0.4,0.6,0.6
										c0.2,0.2,0.4,0.3,0.4,0.4c0.3,0.3,0.9,0.9,2.2,2.4c1.1-0.1,2.7-0.5,4.5-1.4c2-1.1,3.4-2.5,4.1-3.3
										C640.3,572.6,640,572.1,639.8,571.6z"/>
									<path class="st10" d="M632.7,579.2l1.2,3.2l1.5,4.1l8.1-7.7c-0.4-0.5-0.9-1.1-1.2-1.8c-0.1-0.3-0.2-0.6-0.4-1.1
										c0,0,0,0,0,0c-0.1-0.2-0.3-0.4-0.4-0.7c-0.2-0.4-0.6-1.3-1-2.1c-0.9,0.8-1.9,1.6-3.3,2.4c-2,1.2-3.8,1.9-5.3,2.3
										C632.2,578.4,632.5,578.8,632.7,579.2z"/>
								</g>
								<g>
									<path class="st10" d="M627.3,555.6c1.5-0.5,3.1-0.2,4.6,0.2c-1.5-0.4-3.1-1.1-4.4-0.9C627.7,555.1,627.6,555.4,627.3,555.6
										z"/>
								</g>
								<g>
									<path class="st10" d="M624.3,558.2c0.7,0,1.7,0,2.8,0.2c1,0.1,1.7,0.3,1.7,0.3c0,0-0.7-0.3-4-1.2
										C625,557.8,624.7,558.2,624.3,558.2z"/>
								</g>
								<g>
									<path class="st10" d="M620.9,561.5c0.6,0,1.4,0,2.2,0c1.1,0.1,2,0.3,2.7,0.5c-0.6-0.3-1.4-0.7-2.4-0.9
										c-1-0.2-1.8-0.3-2.4-0.3c0,0.1,0.1,0.2,0,0.4C621,561.4,620.9,561.5,620.9,561.5z"/>
								</g>
							</g>
							<path class="st8" d="M629.6,579c1.7-0.2,4.3-0.6,7.1-1.9c3.6-1.7,6-4,7.3-5.5c6.4,11.1,12.9,22.2,19.3,33.3
								c0.1-6.5,0.2-13,0.3-19.4c0.5,7.3,0.9,14.5,1.4,21.8c3,4.5,6.1,9,9.1,13.5c3.1-5.8,4.7-11,5.6-14.7c0,0,4.1-17.2-0.8-33.7
								c0-0.1-0.1-0.2,0-0.1c0.7,2,1.4,4.3,2,7c1.1,5,1.6,11.1,1.6,12.2c0.1,1.3,0.4,5.8,0.3,10.4c-0.1,9.3-0.5,32.6-10.8,36.4
								c-2,0.8-3.9,0.5-4.7,0.4C650.7,636.4,632.5,587,629.6,579z"/>
						</g>
						<g>
							<g>
								<path d="M649.2,524.3c0-0.1-0.6-0.7-1.3-1.1c-0.6-0.3-1.1-0.5-1.5-0.6c-0.9-0.1-1.6-0.2-2.2-0.2c-1.6-0.1-2.1,0.1-2.3,0.2
									c-0.8,0.2-1.3,0.6-1.5,0.7c-0.5,0.4-0.8,0.8-1,1.1c0.4-0.1,0.8-0.2,1.2-0.3c0.3,0.2,0.8,0.4,1.4,0.5c0.4,0.1,0.7,0.1,0.9,0
									c-0.5-0.2-1.1-0.4-1.6-0.6c0.4-0.3,0.8-0.6,1.2-0.9c0.4-0.1,0.9-0.2,1.5-0.2c0.9-0.1,1.6,0,2.2,0.2c0.4,0.1,0.9,0.3,1.5,0.6
									C648.7,524,649.2,524.4,649.2,524.3z"/>
								<path d="M645.4,522.8c0.1,0.1,0.2,0.3,0.2,0.5c0.1,0.6-0.2,1-0.3,1.1c-0.4,0.5-1.3,0.6-1.8,0.3c-0.1-0.1-0.6-0.3-0.8-0.8
									c-0.2-0.5,0.1-0.9,0.1-1C643.7,522.7,644.6,522.7,645.4,522.8z"/>
							</g>
							<path d="M625.7,515.4c0.1,0.3,0.2,0.7-0.1,1.3c-1.2-0.2-3-0.6-5.2-0.8c-3.6-0.4-6-0.2-6-0.5c0-0.2,2.8-0.6,4.6-0.7
								C622.4,514.5,625.1,514.2,625.7,515.4z"/>
							<g>
								<path d="M615.8,524c0-0.1,0.6-0.6,1.4-1.1c0.6-0.3,1.1-0.5,1.5-0.6c0.9-0.1,1.6-0.1,2.2-0.1c1.6,0,2.1,0.1,2.3,0.2
									c0.8,0.3,1.3,0.7,1.4,0.8c0.5,0.4,0.8,0.8,0.9,1.1c-0.4-0.1-0.8-0.2-1.2-0.4c-0.3,0.2-0.8,0.4-1.4,0.5c-0.4,0-0.7,0-0.9,0
									c0.5-0.2,1.1-0.4,1.6-0.6c-0.4-0.3-0.8-0.6-1.2-0.9c-0.4-0.1-0.9-0.2-1.5-0.3c-0.9-0.1-1.6,0-2.2,0.1
									c-0.4,0.1-0.9,0.3-1.6,0.6C616.3,523.8,615.9,524.1,615.8,524z"/>
								<path d="M618.9,522.6c-0.1,0.1-0.2,0.3-0.2,0.5c-0.1,0.6,0.2,1,0.3,1.1c0.4,0.5,1.3,0.6,1.8,0.3c0.1-0.1,0.6-0.3,0.8-0.8
									c0.2-0.5,0-0.9-0.1-1C620.6,522.6,619.8,522.6,618.9,522.6z"/>
							</g>
							<path d="M639.3,515.4c-0.1,0.3-0.2,0.7,0.1,1.3c1.2-0.2,3-0.6,5.2-0.8c3.6-0.4,6-0.2,6-0.5c0-0.2-2.8-0.6-4.6-0.7
								C642.6,514.5,639.9,514.2,639.3,515.4z"/>
							<path d="M632.6,500.8c-2.9-0.3-5.4-0.8-7.5-1.5c-1,0.8-2.1,1.7-3.2,3c-3.1,3.7-4,7.8-4.3,10c-0.1-3.1,0.3-5.4,0.6-6.6
								c0.3-1.3,0.7-2.4,1.1-3.3c-0.7,1-1.5,2.3-2.1,4.1c-0.8,2.2-0.9,4.2-0.9,5.5c-0.4-0.8-0.8-1.9-0.9-3.4c-0.1-1,0-1.8,0.1-2.5
								c-1.3,2.1-2.8,4.9-3.8,8.3c-2.3,7.4-1.5,13.9-0.8,17.4c-0.8-1.2-1.6-2.8-2.4-4.9c-0.6-1.7-0.9-3.3-1-4.5
								c-0.1,0.8-0.2,1.9,0,3.4c0.2,1.4,0.7,2.4,1,3.1c-0.6-0.7-1.5-1.9-2.1-3.7c-0.7-2.2-0.6-4-0.5-5c-0.3,1-0.5,2.5-0.3,4.3
								c0.2,1.4,0.5,2.5,0.5,2.5c-0.1,0-1.8-4.4-2.5-6.8c-2-6.9-1.9-17.5,3.3-26.4c8.5-14.7,24.6-15.2,26.3-15.2
								c8.9-0.1,15.6,4,18.3,6c0.3,0.4,0.6,1,0.9,1.8c0.4,1.5,0,2.8-0.1,3.3c1-0.1,2.4-0.1,3.9,0.5c3.1,1.4,5.1,5.1,5.4,9.5
								c-0.1-0.9-0.4-2.1-1.2-3.4c-1.3-2.4-3.2-3.5-4.1-3.9c0.9,1,2.2,2.5,3.3,4.6c3.2,6,2.7,12,2.2,17.4c-0.3,4-0.6,7.4-2.6,11.2
								c-1.4,2.7-3.1,4.5-4.2,5.6c0.4-0.6,0.8-1.6,1.1-2.8c0.3-1.4,0.3-2.7,0.2-3.4c0,1.2-0.1,3.1-1.3,4.8c-0.2,0.3-0.3,0.5-0.5,0.7
								c0.5-2.1,0.7-3.9,0.8-5.3c0.2-3,0.6-8.6-2-13.6c-0.8-1.5-1.4-2.2-1.9-3.2c-0.2-0.5-0.3-1-0.4-1.3c-0.6-2.5-1.3-6.7-1.5-8
								C645.6,500.1,639.7,501.5,632.6,500.8z"/>
						</g>
						<g>
							<path class="st14" d="M629.9,537.1c1.7,0,2.4-0.1,4.1-0.1C633.3,538.5,630.7,538.6,629.9,537.1L629.9,537.1z"/>
						</g>
					</g>
				</g>
				<g>
					
						<rect x="385.6" y="727" transform="matrix(-1.836970e-16 1 -1 -1.836970e-16 1211.339 254.6687)" class="st15" width="185.6" height="12.1"/>
					
						<rect x="569.5" y="554.6" transform="matrix(-1.836970e-16 1 -1 -1.836970e-16 1366.3569 70.675)" class="st16" width="156.6" height="327.8"/>
					
						<rect x="725" y="727" transform="matrix(-1.836970e-16 1 -1 -1.836970e-16 1550.7722 -84.7646)" class="st15" width="185.6" height="12.1"/>
				</g>
				<rect x="425" y="635.8" class="st17" width="447.7" height="17"/>
				<g>
					<path class="st3" d="M828.2,635.3c0.7-1.2,1.4-3.1,1.4-5.5c-0.1-2.2-0.8-3.9-1.4-5h56.3c0.8,1.5,1.2,3.1,1.3,4.7
						c0.1,2.5-0.6,4.5-1.3,5.8H828.2z"/>
					<path class="st18" d="M884.2,625.2c0.7,1.3,1.1,2.8,1.1,4.2c0.1,2.2-0.5,4.1-1.1,5.3H829c0.6-1.3,1.1-3,1.1-5.1
						c0-1.8-0.5-3.3-1.1-4.5H884.2 M884.8,624.2c-19.2,0-38.4,0-57.5,0c0.5,0.8,1.7,2.7,1.8,5.5c0.1,3.1-1.3,5.3-1.8,6h57.5
						c0.5-0.9,1.7-3.3,1.5-6.4C886.2,627,885.3,625.1,884.8,624.2L884.8,624.2z"/>
				</g>
				<g>
					<path class="st3" d="M831.8,623.7c0.7-1.2,1.4-3.1,1.4-5.5c-0.1-2.2-0.8-3.9-1.4-5h56.3c0.8,1.5,1.2,3.1,1.3,4.7
						c0.1,2.5-0.6,4.5-1.3,5.8H831.8z"/>
					<path class="st19" d="M887.9,613.7c0.7,1.3,1.1,2.8,1.1,4.2c0.1,2.2-0.5,4.1-1.1,5.3h-55.2c0.6-1.3,1.1-3,1.1-5.1
						c0-1.8-0.5-3.3-1.1-4.5H887.9 M888.5,612.7c-19.2,0-38.4,0-57.5,0c0.5,0.8,1.7,2.7,1.8,5.5c0.1,3.1-1.3,5.3-1.8,6h57.5
						c0.5-0.9,1.7-3.3,1.5-6.4C889.9,615.4,889,613.6,888.5,612.7L888.5,612.7z"/>
				</g>
				<rect x="723" y="579.2" class="st20" width="96.8" height="50.8"/>
				<polygon class="st21" points="819.7,635.8 722.9,635.8 722.9,630 819.8,630 				"/>
				<polygon class="st21" points="723,635.8 713.9,635.8 713.9,631.1 723,630 				"/>
				<path class="st22" d="M434,292.1"/>
				<g class="st23">
					
						<linearGradient id="SVGID_00000011746887048242778080000000902389967127726012_" gradientUnits="userSpaceOnUse" x1="514.9534" y1="498.3451" x2="534.2209" y2="498.3451">
						<stop  offset="0" style="stop-color:#FA564D"/>
						<stop  offset="0.2142" style="stop-color:#F5534C"/>
						<stop  offset="0.4624" style="stop-color:#E74948"/>
						<stop  offset="0.7274" style="stop-color:#D03843"/>
						<stop  offset="1" style="stop-color:#B0213B"/>
					</linearGradient>
					<path style="fill:url(#SVGID_00000011746887048242778080000000902389967127726012_);" d="M533.9,529.8
						c-5.5,0.8-11.5,0.7-16.9-0.7c-2-15.2-2.6-30.5-1.7-45.8c0.3-4.9,0.7-9.8,1.3-14.6c0,0,0-0.1,0-0.1c4.2-2,8.6-2.7,13.2-2.1
						c2.3,11.4,3.5,23.4,4,35.3C534.3,511.3,534.3,520.7,533.9,529.8z"/>
					<path class="st25" d="M533.9,501.9c-0.6,6.8-1.7,13.5-3.3,20.2c-1.4-14.4-2.8-28.8-4.2-43.2c-0.5,15.8-1,31.6-1.5,47.4
						c-3.1-16.2-5.1-32.8-4.6-49.2c-1.4,2.4-3.2,4.2-5,6.2c0.3-4.9,0.7-9.8,1.3-14.6c0,0,0-0.1,0-0.1c4.2-2,8.6-2.7,13.2-2.1
						C532.3,477.9,533.5,489.9,533.9,501.9z"/>
					<path class="st26" d="M524.3,418.4c0.4,0.5,0.8,1.1,0.9,1.4c0.3,1.3-0.2,3.1-0.2,4.5c0.1,3.5,0.2,7,0.3,10.5
						c0.2,7.2,0.4,14.5,0.6,21.7c0,0.9,0,2-0.9,2.7c-3.7,3.1-2.9-4.7-2.9-5.5c-0.1-12.2,0.7-24.4,1.4-36.6
						C523.4,417.3,523.9,417.8,524.3,418.4z"/>
					<g>
						<path class="st25" d="M583.8,358.2c-2.3-0.9-4.6-1.3-7-1.1c0.3-2.2-1.2-4.2-3.1-5.3c-1.9-1.1-4.7-1.6-6.9-1.9
							c1.5-3.4,0.7-7.6-1.9-10.2c-2.6-2.6-7-4-10.4-2.4c0.9-3-0.1-6.5-2.6-8.5c-2.4-2-6.8-3-9.5-1.4c0.5-2.5-0.5-5.3-2.5-6.9
							c-2-1.6-5.6-2.4-8-1.4c0-3.5-0.9-7-2.5-10.1c-0.1-0.5-0.3-1.1-0.6-1.6c-0.8-1.7-2.5-3.1-4.4-3.2c-0.2,0-0.3,0-0.5,0
							c-0.2,0-0.3,0-0.5,0c-1.9,0-3.6,1.5-4.4,3.2c-0.2,0.5-0.4,1-0.6,1.6c-1.7,3.1-2.6,6.6-2.5,10.1c-2.4-1-6-0.2-8,1.4
							c-2,1.6-3,4.4-2.5,6.9c-2.7-1.5-7.1-0.5-9.5,1.4c-2.4,2-3.5,5.5-2.6,8.5c-3.3-1.6-7.8-0.2-10.4,2.4c-2.6,2.6-3.4,6.8-1.9,10.2
							c-2.1,0.3-5,0.9-6.9,1.9c-1.9,1.1-3.4,3.1-3.1,5.3c-2.4-0.2-4.8,0.3-7,1.1c-2.2,0.9-4.2,3-4,5.4c0.2,2.3,2.3,4,4.5,4.9
							c2.2,0.9,4.5,1.3,6.6,2.5c-0.7,0.5-0.4,1.3-0.3,2.1c0.1,0.9,0.6,1.6,1.2,2.3c2.3,2.6,6,3.8,9.4,3c-0.7,1.1-0.1,2.5,0.1,3.8
							c0.4,2.8,1.8,5.4,3.9,7.3c2.1,1.9,4.9,2.9,7.7,2.9c0,3.7,1.6,8.1,4.2,10.7c2.6,2.6,6.3,4,10,4c0.6,5.4,5,10.9,10.4,11.7
							c-1.1,0.6,0,2.1,0.5,3.2c0.7,1.8,1.3,3.6,2,5.3c0.5,1.4,1.2,2.9,2.7,3.1c0.3,0.1,0.7,0,1-0.1c0.3,0.1,0.7,0.2,1,0.1
							c1.4-0.2,2.2-1.8,2.7-3.1c0.7-1.8,1.3-3.6,2-5.3c0.4-1.1,1.5-2.7,0.5-3.2c5.3-0.8,9.8-6.3,10.4-11.7c3.7,0.1,7.3-1.4,10-4
							c2.6-2.6,4.2-7,4.2-10.7c2.8,0,5.6-1.1,7.7-2.9s3.5-4.5,3.9-7.3c0.2-1.3,0.8-2.7,0.1-3.8c3.4,0.8,7.1-0.4,9.4-3
							c0.6-0.6,1.1-1.4,1.2-2.3c0.1-0.9,0.5-1.6-0.3-2.1c2-1.2,4.4-1.6,6.6-2.5c2.2-0.9,4.3-2.6,4.5-4.9
							C588,361.2,586.1,359,583.8,358.2z"/>
						
							<linearGradient id="SVGID_00000119802095852422889980000016899026571029132166_" gradientUnits="userSpaceOnUse" x1="509.5096" y1="264.2845" x2="536.9666" y2="465.4847">
							<stop  offset="0" style="stop-color:#FA564D"/>
							<stop  offset="0.2142" style="stop-color:#F5534C"/>
							<stop  offset="0.4624" style="stop-color:#E74948"/>
							<stop  offset="0.7274" style="stop-color:#D03843"/>
							<stop  offset="1" style="stop-color:#B0213B"/>
						</linearGradient>
						<polygon style="fill:url(#SVGID_00000119802095852422889980000016899026571029132166_);" points="522.2,418 470.9,362.6 
							522.2,316.7 574.9,361.9 						"/>
						
							<linearGradient id="SVGID_00000067920878206615868350000009099882946648493986_" gradientUnits="userSpaceOnUse" x1="503.5583" y1="303.3859" x2="544.0685" y2="443.8216">
							<stop  offset="0" style="stop-color:#FBA746"/>
							<stop  offset="1" style="stop-color:#DE731F"/>
						</linearGradient>
						<path style="fill:url(#SVGID_00000067920878206615868350000009099882946648493986_);" d="M493.3,382.8
							c-6-6.2-11.9-12.4-17.9-18.6c5.4-5.7,11.2-11,17.4-15.9C493.1,359.3,493,371.7,493.3,382.8z M522.6,320.7
							c-6,5.7-11.9,11.5-17.9,17.2c10.5-1.6,21.5-1.9,32.1-2.2C532.1,330.4,527.3,326,522.6,320.7z M565.7,360.5
							c-7.3-6-15-11.7-22.3-17.7c2.7,12.2,4.6,24.5,5.8,36.9C554.2,373.2,560,366.5,565.7,360.5z M543.2,388.3
							c-14.5-0.8-28.9-1-43.3-0.6c7.6,7.1,14.7,14.6,21.3,22.6C528.1,402.5,535.3,395.1,543.2,388.3z"/>
						
							<linearGradient id="SVGID_00000104686316120663118640000004092916075108212616_" gradientUnits="userSpaceOnUse" x1="516.5672" y1="348.9537" x2="526.1436" y2="382.1517">
							<stop  offset="0" style="stop-color:#FBA746"/>
							<stop  offset="1" style="stop-color:#DE731F"/>
						</linearGradient>
						<path style="fill:url(#SVGID_00000104686316120663118640000004092916075108212616_);" d="M538,373.9c-1.8-1-3.5-2-5.3-3
							c-0.8-0.5-1.7-1-2.5-1.4c-0.5-0.3-1.1-0.5-1.4-1c-0.5-0.9,0-2.6,0-3.6c0-0.5-0.1-0.9-0.2-1.4c1.7-0.9,3.5-1.9,4.5-3.4
							c1.4-2,0.6-5-0.2-7.1c-2.3-5.6-9.3-5.1-14.2-4.2c-4.5,0.8-9.4,1.7-12.9,4.8c-2.1,1.9-2.8,4.1-1,6.5c1.4,1.9,3.4,3.1,5.4,4.4
							c2,1.2,4.6,2.7,5.1,5.2c0.5,3-2.1,3.7-4.6,3.6c-1.3-0.1-1.4,1.8-0.3,2.2c1.8,0.6,4,1,5.7,0c1.5-0.9,2.4-2.5,2.7-4.2
							c0.6-4.2-2.4-7.3-5.6-9.6c-1.6-1.1-3.3-2.1-4.6-3.7c-0.1-0.2-0.3-0.5-0.5-0.7c0.3-0.3,0.5-0.5,0.8-0.8c0.7-0.6,1.6-1,2.4-1.4
							c1.8-0.8,3.8-1.2,5.8-1.5c2.3-0.4,4.6-0.8,6.9-0.7c1.1,0,2.7,0.1,3.6,0.9c0.7,0.6,0.8,1.6,1,2.4c0,0.2,0.1,0.5,0.1,0.7
							c0,0.1,0,0.2,0,0.3c-0.2,0-1,0.5-1.2,0.7c-1.2,0.7-2.4,1.3-3.7,1.9c-1.7,0.7-1.5,3-0.5,4.2c0.5,0.6,0,2.5,0,3.2
							c-0.1,1.7,0.3,3.5,1.4,4.9c1.3,1.5,3.3,2.4,5,3.4c1.8,1.1,3.7,2.1,5.5,3.2C538.3,380.4,541.1,375.7,538,373.9z"/>
					</g>
					
						<linearGradient id="SVGID_00000110470513777526184710000010022657125169962646_" gradientUnits="userSpaceOnUse" x1="515.28" y1="462.8767" x2="531.9226" y2="462.8767">
						<stop  offset="0" style="stop-color:#FBA746"/>
						<stop  offset="1" style="stop-color:#DE731F"/>
					</linearGradient>
					<path style="fill:url(#SVGID_00000110470513777526184710000010022657125169962646_);" d="M531.1,470.8c0.4-2.3,0.9-4.6,0.8-7
						c0-2.4-0.5-4.8-1.8-6.6c-1.1-1.5-2.6-2.4-4.1-2.8c-2.5-0.8-5.4-0.5-7.4,1.5c-1.7,1.7-2.7,4.3-3.1,7c-0.4,2.7-0.2,5.5,0,8.2
						C521.3,472.1,525.3,471.9,531.1,470.8z"/>
					<path class="st31" d="M520.4,456.6c1.4-1,2.8-1.1,3.7,1.1c0.6,1.5,0.1,3.2-0.5,4.7c-0.7,1.6-1.9,3.2-3.6,3.2
						c-1.7,0-2.9-1.9-2.8-3.6C517.2,460.5,518.7,457.9,520.4,456.6z"/>
				</g>
			</g>
			<g style="clip-path:url(#SVGID_00000153684340301128508240000011862633524597025414_);">
				<g>
					<g>
						<path class="st32" d="M419.7,712.4c-14.3-0.7-69.5-5.1-91.8-43.7c-2-3.5-3.8-7.3-5.3-11.6c-8.1-22.1-4.9-40.9-3.5-48.5
							c2.1-11.3,5.1-16.2,6.8-18.3c0.2-0.3,0.4-0.5,0.6-0.7c3.3-4,8.4-8.9,16.4-13.7c2.9,3.2,5.8,6.3,8.8,9.5
							c2.5,2.6,4.2,5.9,4.8,9.4c4,24.3,8,48.7,12.1,73C385.6,682.7,402.7,697.5,419.7,712.4z"/>
						<path class="st33" d="M316.1,559.7c2.3,0.2,4.8,0.7,7.7,1.4c2.3,0.6,4.4,1.3,6.2,2.1c-0.2,1-0.4,2-0.7,3
							c-4.2-0.7-8.5-1.4-12.7-2.1C316.5,562.6,316.3,561.1,316.1,559.7z"/>
						<g id="_x36__00000068649652414943013850000005374339549486418317_">
							<path class="st34" d="M286.2,864.6c3.1,0,5.7-2.2,5.7-4.9V741.2c0-2.7-2.6-4.9-5.7-4.9c-3.1,0-5.7,2.2-5.7,4.9v118.5
								C280.5,862.4,283,864.6,286.2,864.6z"/>
							<path class="st35" d="M300.2,864.6c3.1,0,5.7-2.2,5.7-4.9V741.2c0-2.7-2.6-4.9-5.7-4.9c-3.1,0-5.7,2.2-5.7,4.9v118.5
								C294.5,862.4,297,864.6,300.2,864.6z"/>
							<path class="st34" d="M353.3,864.6c3.1,0,5.7-2.2,5.7-4.9V741.2c0-2.7-2.6-4.9-5.7-4.9c-3.1,0-5.7,2.2-5.7,4.9v118.5
								C347.6,862.4,350.2,864.6,353.3,864.6z"/>
							<path class="st35" d="M366.3,864.6c3.1,0,5.7-2.2,5.7-4.9V741.2c0-2.7-2.6-4.9-5.7-4.9c-3.1,0-5.7,2.2-5.7,4.9v118.5
								C360.6,862.4,363.2,864.6,366.3,864.6z"/>
							<path class="st36" d="M297.5,590.6c-11.6,48.3-2.7,72.6,8.7,85.9c20.5,24,65.1,25.5,74.3,53.9c2.4,7.3,3.5,22.2,2.6,24.3
								c-0.9,2-2.8,3.6-5.2,3.5c-3,0.5-6.3-4.2-8.2-5.8c-5.8-5.8-13.6-9-21.8-9c0,0-51.8,0-51.8,0c-6.1,0.1-14.8-0.8-22.5-6
								c-15.7-10.7-16.8-32.2-20.2-77.5c-1.1-14.4-3-40.2-5.9-74.4c7.1-0.6,15.9-0.8,25.9,0.3C282.8,586.7,290.9,588.6,297.5,590.6z
								"/>
						</g>
						<path class="st37" d="M461.7,865.3h-44.3c-2.1,0-3.9-1.8-3.7-4c0.4-4.6,1.5-11.5,1.2-14.6c0.2-2.7-3.7-37.3-4-40.8h27.8
							l-4.5,35.7c-0.5,4.2,2,8.2,6,9.6c5.4,1.8,11.6,2.6,15.7,3.6c3.6,0.9,6.8,2.1,8.7,4.6C466.5,861.8,464.7,865.3,461.7,865.3z"/>
						<path class="st38" d="M412.2,860.6c0,0.7,0.2,1.3,0.4,2.1c0.4,1.5,1.8,2.6,3.4,2.6H462c0.6-0.2,3.5-1.1,3.9-3
							c0.5-2.2-2.3-5.5-7.5-6.8c1.8,0.8,2.6,1.5,2.5,2c-0.4,2.1-16.2,1.6-47.6-1.6C412.3,858,412.2,859.7,412.2,860.6z"/>
						<path class="st39" d="M442.6,834c-15.6,5.7-36.3,0-36.3,0c-2-31-4-52.1-6-83.1c-31.9-8.8-63.8-17.6-95.7-26.4
							c-2.9-12.3-5.8-24.7-8.7-37c23-2.1,45.9-4.1,68.9-6.2l75.5,45.8C441,766,441.8,795.1,442.6,834z"/>
						<path class="st32" d="M424.7,724.1c4,0.3,8,0.6,12.1,0.9c-2.2-1.5-4.5-3-6.7-4.5c-4.5,0.1-9,0.2-13.5,0.2
							C419.2,721.9,422,723,424.7,724.1z"/>
						<path class="st37" d="M452.4,865.3H408c-2.1,0-3.9-1.8-3.7-4c0.4-4.6,1.5-11.5,1.2-14.6c0.2-2.7-3.7-37.3-4-40.8h27.8
							l-4.5,35.7c-0.5,4.2,2,8.2,6,9.6c5.4,1.8,11.6,2.6,15.7,3.6c3.6,0.9,6.8,2.1,8.7,4.6C457.2,861.8,455.4,865.3,452.4,865.3z"/>
						<path class="st40" d="M403,861.8c0.1,1,0.5,1.8,0.5,1.8c0.4,0.8,1,1.3,1.3,1.5c0.2,0.1,0.3,0.1,0.5,0.2h47.3
							c0.8-0.2,4.4-1.1,4.8-3c0.5-2.8-5.9-5.8-6.5-6c-1.3-0.6-2.5-1-3.4-1.2c1.1,0.8,1.6,1.4,1.5,2c-0.6,2.5-15.2,1.8-44-2.2
							C403.5,857.7,402.9,860.3,403,861.8z"/>
						<path class="st41" d="M433.2,834c-15.6,5.7-36.3,0-36.3,0c-1.6-28.1-3.1-46.5-4.7-74.6c-0.1-2-0.2-3.9-0.3-5.9
							c0,0-0.1,0-0.1,0c-32.2-9.7-64.4-19.3-96.6-29l-8.7-37.1c25.4-2.3,50.9-4.5,76.3-6.8c19,13.8,38,27.7,56.9,41.6
							c2.6,1.9,5.1,3.8,7.7,5.6c0.8,0.6,1.6,1.2,2.4,1.7c0.7,0.5,1.1,1.2,1.1,2C431.7,769,432.5,796.6,433.2,834z"/>
						<path class="st32" d="M392,753.5c-2.9-0.4-5.7-0.8-8.6-1.2c12.5-10.8,24.9-21.5,37.4-32.3c1.3,1.3,2.6,2.7,3.9,4
							C413.8,733.9,402.9,743.7,392,753.5z"/>
						<path class="st41" d="M360.8,669.6c-3.1,6.1-9,15.6-19.8,23.2c-24.7,17.3-53.4,9.5-57.9,8.3c0,0-0.6-7.7-1.2-17.5
							c-0.1-1.2-0.8-14.3-1.3-29.3c-0.6-22.6-0.4-44.6-0.1-56.4c0-2.5,1.2-4.9,3.1-6.5l32.9-27.3c2.2-0.1,4.7,0.1,7.6,0.6
							c5.7,1.1,10.1,3.3,13,5.1c3.5,3.7,7,7.5,10.5,11.2c3.3,3.5,5.4,8.1,5.9,12.9L360.8,669.6z"/>
						<path class="st41" d="M423.2,721.2c4.4,0.6,8.8,1.1,13.2,1.7c-25.2-17.8-50.4-35.5-75.5-53.3c-1.2-8.4-2.4-16.7-3.5-25.1
							c-25.2,11.5-50.4,23.1-75.6,34.6c-0.2,5.4,0,13,1.5,21.9c1.9,11.6,3.4,20.6,7.9,26.5c10.3,13.2,30.4,3.4,60.1,11.9
							c15.1,4.4,26.2,11.6,33.1,16.9C397.2,744.6,410.2,732.9,423.2,721.2z"/>
						<path class="st42" d="M337.6,575.2c2.2,12.3,4,25.9,5.1,40.6c1.4,19,1.3,36.4,0.4,51.8c26.6,17.7,53.2,35.4,79.8,53.1
							c0.1,0.2,0.2,0.4,0.3,0.6"/>
						<path class="st42" d="M333.3,599c4.3-0.2,8.5-0.3,12.8-0.5"/>
						<path class="st42" d="M336.5,635.1c4.2-0.3,8.3-0.7,12.5-1"/>
						<path class="st42" d="M335.9,667.4c5.1-0.7,10.1-1.4,15.2-2.2"/>
						<path class="st41" d="M391,710.3c-3.1,7.5-8.2,12.2-11.5,14.6c-0.9,0.6-1.6,1.1-2.1,1.5c-2.3-1.5-4.6-3-6.9-4.5
							c-24.4-15.8-48.8-31.7-73.2-47.5c-5.1-24.7-10.2-49.4-15.3-74c-0.8-3.7,2-7.3,5.8-7.4c4.1-0.1,9.4,0.5,14.9,3
							c5.8,2.7,9.5,6.4,11.6,8.8c2.8,17.4,5.6,34.8,8.4,52.2c21,10.8,42,21.7,62.9,32.5c2.6,1.3,5.1,2.6,7.7,4
							c0.1,0.5,0.1,1.1,0.2,1.8C393.7,698.8,393.5,704.3,391,710.3z"/>
						<g>
							<path class="st43" d="M414,712.8C414,712.8,414,712.8,414,712.8c2.1,1.7,3.7,3,4.6,3.8c2.1,1.7,3.5,2.9,3.2,3.7
								c-0.1,0.4-0.6,0.6-0.7,0.6c-0.7,0.2-1.3-0.2-2.5-1c-1.2-0.9-1.9-1.3-2.4-1.8c-0.9-0.8-2.3-1.9-4.3-3c1.6,1,2.8,1.9,3.7,2.6
								c2.2,1.7,2.6,2.2,2.5,2.5c-0.1,0.2-0.5,0.3-1,0.3c-2.9,0-5.9-2.2-8.1-3.4c-1.3-0.7-3.3-1.8-5.9-2.6c-1.4,0-4.1-0.2-7.1-1.7
								c-2.6-1.3-4.2-3.1-5.1-4.1c-0.3-0.1-0.5-0.3-0.8-0.4c0.4-1.5,0.8-3.3,1-5.4c0.2-2,0.2-3.7,0.1-5.2c0.8,0.5,1.6,0.9,2.4,1.4
								c0.7,0,1.6,0,2.8,0.1c0,0,2.8,0.3,5.6,1.5c6.1,2.7,21.9,14.4,20.7,16.1c-0.1,0.1-0.3,0.2-0.4,0.2c-1,0.2-1.7-1.6-4-3.5
								c-1.1-0.9-2-1.4-2-1.4c1,0.7,1.8,1.3,2.4,1.7c3.4,2.5,4,3.5,4.1,4.5c0,0.2,0.1,0.8-0.2,1c-0.7,0.4-2.6-1.5-3.5-2.4
								c-0.6-0.5-1.3-1-1.9-1.6C416,714.4,415,713.6,414,712.8z"/>
						</g>
						<path class="st33" d="M322.3,557.2c2,0.3,5.7,1.2,9.2,4.1c6.1,5,7,12.2,7.1,13.8c-0.3,0-0.6,0.1-1,0.1
							c-0.4-1.8-1.5-6.4-5.6-10.3c-5.1-4.9-11.2-5.4-12.8-5.5C320.3,558.7,321.3,557.9,322.3,557.2z"/>
						<g>
							<path class="st44" d="M338.5,582.9"/>
						</g>
						<g>
							<path class="st45" d="M310.9,553.8c0.6,0.6,1.5,1.4,2.8,2.1c0.4,0.2,1,0.5,1.9,0.8c1.5,0.4,2.9,0.3,3.9,0.2
								c-0.2-1.7-0.8-5.5-3.6-9.3c-2.6-3.5-5.7-5.2-7.2-6C309.4,545.7,310.1,549.8,310.9,553.8z"/>
							<g>
								<path class="st43" d="M337.7,576c-1.1-1.3-2.2-2.7-3.5-4.1c-1.2-1.3-2.3-2.6-3.4-3.7c-0.5-0.4-1.1-0.9-1.7-1.3
									c-0.4-0.3-0.9-0.6-1.4-1c-1.7-1-3.3-1.8-4.8-2.4c-1.9-0.7-3.7-1.1-5.2-1.3c0.1-0.9,0.3-1.8,0.3-2.9c0-0.5,0-1-0.1-1.5v0
									c0-0.1,0-0.1,0-0.2c-0.1-0.7-0.2-1.3-0.4-1.9c-0.1-0.3-0.2-0.6-0.3-0.9c5,0.9,10.1,1.7,15.2,2.6c1.4,0.3,2.9,0.5,4.3,0.7h0
									v0.1c0,0.6-0.1,1.2-0.1,1.8c-0.1,2.1-0.2,4.3-0.3,6.4v0.1c0,0.4,0,0.8-0.1,1.3c0,0.9-0.1,1.9-0.1,2.8
									c0.2,0.4,0.5,0.9,0.7,1.5C337.4,573.5,337.6,574.9,337.7,576z"/>
								<path class="st46" d="M336.7,558.1c0,0.6-0.1,1.2-0.1,1.8c-0.1,2.1-0.2,4.3-0.3,6.4v0.1c-0.6,0-1.4,0-2,0
									c-1.9-0.1-3.6-0.4-5.1-1c-2.5-0.9-4.6-2.2-6.2-3.4c-0.5-0.4-1-0.8-2-1.6c-1.3-1.1-2.4-2-3.2-2.7v0c0-0.1,0-0.1,0-0.2
									c-0.1-0.7-0.2-1.3-0.4-1.9c-0.1-0.3-0.2-0.6-0.3-0.9c5,0.9,10.1,1.7,15.2,2.6C333.8,557.6,335.2,557.8,336.7,558.1z"/>
								<path class="st43" d="M330.9,491.7c-22.1-0.3-25.8,14.7-25.9,23.3c0,3.8-0.1,6.7,0.4,10.7c0.5,4.7,1.2,10.7,4,17.5
									c2,5,4.9,11.8,11.8,16.9c3.5,2.5,6.4,3.7,7.5,4.1c3.6,1.2,6.3,1.1,6.9,1.1c1.3,0,2.9-0.1,4.4-0.7c2.9-1.2,3.7-4.1,7.1-10.1
									c1.7-3.1,3.7-6,4.9-10.5c3.2-11.6,4.1-19.8,4.2-28.4C356.2,507.1,353,492,330.9,491.7z"/>
								<path class="st45" d="M334.6,490c6.3-1.3,10.6,0.2,12.4,1.1c9.7,4.3,13,16,12.6,23.9c-0.3,7.2-3.8,13.2-4.3,13
									c-0.3-0.1,0.4-2.3-0.2-5.9c-0.3-1.8-0.7-3.2-1.1-4.1c-0.6-1.5-1.2-2.7-1.8-3.6c-0.8,4.9-1.3,6-1.7,6c-0.5,0-0.4-2.9-1.7-6.7
									c-1.3-3.7-3.7-7.4-4.9-7.1c-1.2,0.4-0.6,5.3-1.5,5.4c-0.5,0.1-0.7-1.4-2.1-3c-0.7-0.8-1.9-2.1-3-1.9
									c-1.2,0.1-1.8,1.8-3.7,6.7c-2.2,5.6-2.7,6.6-3.3,6.6c-0.6,0-1.4-1.1-2.4-6.2c-0.9,1.3-1.4,2.5-3.4,6c-1,1.8-2,3.3-2.4,3.3
									c-0.5,0.1-2-2.4-3-5.2c-0.5,0.8-1.1,2.1-1.3,3.8c-0.2,1.6,0.2,2.1,0.1,3.4c-0.1,2.7-1.7,3.3-3.3,7c-1.5,3.5-1,5.4-2,5.7
									c-1.4,0.4-3.7-3.4-4.7-5.2c4.4,15.9,4.9,21,3.8,21.4c-1.4,0.5-6.2-6.4-9-13.4c-0.1-0.2-0.3-0.8-0.6-1.5
									c-2-5.4-6.6-20.7,0.6-34.9c2.1-4.2,4.6-7,5.9-8.2c2.6-2.6,7.6-7.7,15.3-8.3C325.9,487.7,329.8,487.7,334.6,490z"/>
							</g>
							<path class="st42" d="M312.4,572.1"/>
							<g>
								<g>
									<path d="M318.8,528.4c3.8-2.8,9.8-1.9,13,1.4c0,0-1,0.9-1,0.9C327.8,527.7,322.6,526.8,318.8,528.4L318.8,528.4z"/>
								</g>
							</g>
							<g>
								<g>
									<path d="M354.2,529.5c-3.1-2.3-7.9-1.6-10.7,0.7c0,0-0.9-1-0.9-1C345.4,526.5,351.9,526.2,354.2,529.5L354.2,529.5z"/>
								</g>
							</g>
							<path class="st46" d="M331.4,555.6c0.1,0.4,2.1-0.5,5.8-0.5c3.3,0,5,0.8,5.1,0.4c0.2-0.4-2.2-2.3-5.1-2.4
								C334,553,331.3,555.1,331.4,555.6z"/>
							<g>
								<path class="st46" d="M334.8,546.7c1.9-0.8,3.8-0.8,5.6,0C338.5,547.6,336.6,547.5,334.8,546.7L334.8,546.7z"/>
							</g>
							<g>
								<path d="M344.4,535.7C344.4,535.7,344.4,535.7,344.4,535.7c-0.2-0.1-0.3-0.2-0.5-0.3c0.1-0.2,0.3-0.5,0.6-0.8
									c0,0,0.4-0.4,0.7-0.6c0.5-0.3,0.8-0.3,1.9-0.3c1.5,0,1.7-0.1,2,0.1c0.5,0.2,1.1,0.8,1,1.2c0,0.2-0.1,0.3-0.3,0.4
									c-0.5,0.5-1.1,0.5-1.1,0.6c0,0.1,0.8,0.3,1.5-0.2c0.4-0.3,0.7-0.7,0.8-1c0.2,0,0.6,0.1,1,0.2c0.5,0.1,0.7,0.2,0.7,0.2
									c0-0.1-0.8-0.7-1.6-1.2c-0.3-0.2-0.9-0.5-1.6-0.6c-0.3-0.1-0.7-0.2-2-0.2c-0.6,0-1.4,0-2.4,0.1c-0.4,0.2-0.9,0.6-1.5,1.1
									c-0.7,0.7-1.1,1.4-1.1,1.5c0,0.1,0.3-0.2,0.7-0.2c0.2,0,0.2,0,0.4,0C344.1,535.9,344.4,535.8,344.4,535.7z"/>
								<path d="M349.1,533.7c0.1,0.2,0.1,0.5,0.1,0.9c-0.1,0.8-0.6,1.3-0.7,1.4c-0.5,0.4-1.1,0.4-1.4,0.3c-0.2,0-0.6-0.1-1-0.4
									c-0.2-0.2-0.5-0.4-0.6-1c-0.1-0.6,0.2-1,0.2-1.1c0.4-0.1,0.9-0.1,1.3-0.1C347.8,533.6,348.5,533.6,349.1,533.7z"/>
							</g>
							<g>
								<path d="M330.5,535.6C330.5,535.6,330.5,535.6,330.5,535.6c0.2-0.1,0.4-0.2,0.6-0.3c-0.1-0.2-0.3-0.6-0.6-0.9
									c-0.1-0.1-0.4-0.4-0.8-0.6c-0.5-0.3-0.9-0.3-2.2-0.4c-1.8-0.1-1.9-0.2-2.4-0.1c-0.6,0.2-1.3,0.7-1.3,1.2
									c0,0.2,0.1,0.3,0.3,0.4c0.5,0.6,1.2,0.6,1.2,0.7c0,0.1-0.9,0.2-1.7-0.3c-0.5-0.3-0.7-0.8-0.9-1c-0.3,0-0.7,0.1-1.2,0.2
									c-0.6,0.1-0.8,0.2-0.8,0.1c0-0.1,1-0.7,2-1.1c0.4-0.2,1-0.4,1.9-0.5c0.4,0,0.9-0.1,2.3,0c0.7,0.1,1.7,0.1,2.8,0.3
									c0.4,0.2,1,0.6,1.7,1.2c0.7,0.7,1.2,1.5,1.1,1.6c-0.1,0.1-0.3-0.2-0.8-0.3c-0.2,0-0.2,0-0.5,0
									C330.9,535.8,330.5,535.7,330.5,535.6z"/>
								<path d="M326.3,533.2c-0.1,0.2-0.2,0.5-0.2,0.8c0,0.8,0.6,1.4,0.7,1.4c0.6,0.5,1.2,0.4,1.6,0.4c0.3,0,0.7,0,1.2-0.3
									c0.2-0.1,0.6-0.4,0.8-0.9c0.1-0.6-0.1-1-0.2-1.1c-0.5-0.1-1-0.2-1.6-0.2C327.8,533.2,327,533.2,326.3,533.2z"/>
							</g>
							<polyline class="st44" points="317.2,565.6 317.2,565.2 317.2,564.3 317.2,563.9 317.2,563.6 							"/>
							<path class="st43" d="M310,528.1c-0.8-2.2-3.9-4.2-5.2-3.4c-1.3,0.8-2,4.5-1.5,6.9c0.3,1.2,0.6,4.9,3.5,7.5
								c1.5,1.4,4.2,2.9,5.4,2.1c0.5-0.4,0.7-1.3-0.1-5.2C311.5,532.9,310.7,530.3,310,528.1z"/>
						</g>
					</g>
					<path class="st47" d="M247,585.3c3.6,0.6,8.9,2,14.6,5.3c10.9,6.4,15.9,15.8,17.7,19.2c3.7,7.2,4.2,12.7,4.3,43.5
						c0,7.8,0.1,18.7,1.3,40.4c0.2,4.8,0.5,9.1,0.8,13c0.4,6.4,5.2,11.6,11.6,12.5c19,2.7,44,6.6,54.6,9.8c0.3,0.1,1.4,0.4,2.8,0.9
						c15.1,5.6,19.6,13.3,21,16.2c2.2,4.5,3.2,10,1.8,10.9c-1.8,1-5.7-6.7-14.6-11.3c-4-2.1-7.7-2.9-19-3.5
						c-13.9-0.8-25.1-0.7-30.2-0.5c-18.9,0.4-23.9,1.2-32-1.6c-5.6-1.9-9.8-4.5-12.5-6.4c-1.6-1.5-3.6-3.5-5.5-6.2
						c-2.4-3.4-3.7-6.7-4.5-9.2l-3.1-18.3C253,661.7,250,623.5,247,585.3z"/>
					<path class="st33" d="M316.1,559.7c3.8,1,10.9,3.5,16.9,9.9c2.1,2.3,3.7,4.6,4.8,6.6c-0.2,0.3-0.5,0.6-0.7,0.9
						c-1.8-2.1-4.7-5-9-7.5c-5-3-9.8-4-12.7-4.5C315.6,563.3,315.9,561.5,316.1,559.7z"/>
					<path class="st32" d="M299.8,672.2c26.6,17.6,53.2,35.1,79.8,52.7c-0.9,0.6-1.6,1.1-2.1,1.5c-26.7-17.3-53.4-34.7-80.2-52
						c-5-25.9-10-51.7-15.1-77.6C288.1,621.9,294,647.1,299.8,672.2z"/>
					<path class="st32" d="M321.5,658.8c-0.8-30-1.1-44.9-0.9-44.9c0.2,0,0.9,14.4,2.1,43.2c23.5,12.1,47.1,24.3,70.6,36.5
						c0.1,0.5,0.1,1.1,0.2,1.8C369.5,683.2,345.5,671,321.5,658.8z"/>
					<g>
						<path class="st48" d="M417.1,718.7c-1.8-1.3-3.7-2.4-5.4-3.9C413.7,715.8,415.6,717.1,417.1,718.7L417.1,718.7z"/>
					</g>
					<g>
						<path class="st48" d="M420.7,715.2c-1.8-1.3-3.7-2.4-5.4-3.9C417.3,712.4,419.2,713.6,420.7,715.2L420.7,715.2z"/>
					</g>
					<g>
						<path class="st48" d="M420.7,718.4c-2.3-1.7-4.3-3.5-6.4-5.3C416.7,714.4,418.8,716.3,420.7,718.4L420.7,718.4z"/>
					</g>
					<path class="st32" d="M349.8,597.5c-0.4,0.1,3.3,24.1,11,72.1c-0.3-6.2-0.6-12.3-0.9-18.5C353.5,615.3,350.2,597.4,349.8,597.5
						z"/>
					<path class="st33" d="M391,710.3c-3.1,7.5-8.2,12.2-11.5,14.6c-0.9,0.6-1.6,1.1-2.1,1.5c-2.3-1.5-4.6-3-6.9-4.5
						c2.6-2.9,5.6-6.6,8.2-11.4c4.5-8.1,6.2-15.7,6.9-20.9c2.6,1.3,5.1,2.6,7.7,4c0.1,0.5,0.1,1.1,0.2,1.8
						C393.7,698.8,393.5,704.3,391,710.3z"/>
				</g>
			</g>
		</g>
	</g>
</g>
</svg>
