<?xml version="1.0" encoding="utf-8"?>
<!-- Generator: Adobe Illustrator 26.0.1, SVG Export Plug-In . SVG Version: 6.00 Build 0)  -->
<svg version="1.1" id="Layer_1" xmlns="http://www.w3.org/2000/svg" xmlns:xlink="http://www.w3.org/1999/xlink" x="0px" y="0px"
	 viewBox="0 0 597 571.5" style="enable-background:new 0 0 597 571.5;" xml:space="preserve">
<style type="text/css">
	.st0{clip-path:url(#SVGID_00000109738582702970821670000013557928699020268423_);fill:#FFD7DC;}
	.st1{clip-path:url(#SVGID_00000109738582702970821670000013557928699020268423_);}
	.st2{fill:#D8989D;}
	.st3{fill:none;stroke:#FFFFFF;stroke-width:1.399;stroke-miterlimit:10;}
	.st4{clip-path:url(#SVGID_00000109738582702970821670000013557928699020268423_);fill:#FFEEF1;}
	.st5{fill:#84030A;}
	.st6{fill:#FAD4AF;}
	.st7{fill:#66020C;}
	.st8{fill:#9F0102;}
	.st9{fill:#F8AE38;}
	.st10{fill:#191513;}
	.st11{fill:#E09D6C;}
	.st12{fill:none;stroke:#F8AE38;stroke-width:2.3953;stroke-miterlimit:10;}
	.st13{fill:none;}
	.st14{fill:none;stroke:#F8AE38;stroke-width:1.9667;stroke-miterlimit:10;}
	.st15{fill:#F4CAA6;}
	.st16{fill:#E5B48F;}
	.st17{fill:#969696;}
	.st18{fill:url(#SVGID_00000048503181900828563510000012066332188206458755_);}
	.st19{fill:url(#SVGID_00000048461423938229981400000006839934961495620535_);}
	.st20{fill:url(#SVGID_00000042731764877688467760000008544940779013683094_);}
</style>
<g>
	<g>
		<defs>
			<path id="SVGID_1_" d="M531.5,175.7c-9.9-17.7-21.5-33.2-33.5-46.3c-0.1,0.2-0.3,0.4-0.4,0.6c0.1-0.2,0.3-0.4,0.4-0.6
				c-2.2-2.4-44-37.7-44-37.7l0,0c-1.2-0.9-2.3-1.8-3.5-2.8c-33.4-28-58.8-78.8-151.6-71c-43.3,3.6-71.6,21.2-91.8,44.8
				c-6.1,7.1-11.5,14.8-16.3,23C175.9,110.4,166,139,155.9,164c-13.3,32.9-61,38.1-78.2,76.4c-15.6,18-23.8,46.5-27.9,67.1
				c-2.9,14.8-3.8,25.6-3.8,25.6c-4.7,103.8,88.6,183.3,184.8,212.1c21.5,6.4,43.2,10.3,64,11.4c9.8,0.5,19.4,0.4,28.7-0.4
				c1.9-0.2,3.8-0.4,5.7-0.6c1.3-0.1,2.6-0.3,3.9-0.5c1.1-0.1,2.2-0.3,3.4-0.4c0.6-0.1,1.2-0.2,1.8-0.3c0.6-0.1,1.2-0.2,1.8-0.3
				c31.2-4.8,66.1-15.7,98.1-32.4c0.2-0.1,0.3-0.2,0.5-0.2c51.7-27.1,95.7-69.4,104.1-126c1.2-7.9,11.3-32,14.6-66.6
				C563.9,260.9,545,206.2,531.5,175.7z M459.6,135.1C459.6,135.1,459.6,135.2,459.6,135.1C459.6,135.2,459.6,135.1,459.6,135.1z"/>
		</defs>
		<clipPath id="SVGID_00000080198396213441061120000011592923092498845314_">
			<use xlink:href="#SVGID_1_"  style="overflow:visible;"/>
		</clipPath>
		<path style="clip-path:url(#SVGID_00000080198396213441061120000011592923092498845314_);fill:#FFD7DC;" d="M531.5,175.7
			c-9.9-17.7-21.5-33.2-33.5-46.3c-2.2-2.4-44-37.7-44-37.7c-1.2-0.9-2.3-1.8-3.5-2.8c-33.4-28-58.8-78.8-151.6-71
			c-43.3,3.6-71.6,21.2-91.8,44.8c-6.1,7.1-11.5,14.8-16.3,23C175.9,110.4,166,139,155.9,164c-13.3,32.9-61,38.1-78.2,76.4
			c-15.6,18-23.8,46.5-27.9,67.1c-2.9,14.8-3.8,25.6-3.8,25.6c-4.7,103.8,88.6,183.3,184.8,212.1c21.5,6.4,43.2,10.3,64,11.4
			c9.8,0.5,19.4,0.4,28.7-0.4c1.9-0.2,3.8-0.4,5.7-0.6c1.3-0.1,2.6-0.3,3.9-0.5c1.1-0.1,2.2-0.3,3.4-0.4c0.6-0.1,1.2-0.2,1.8-0.3
			c0.6-0.1,1.2-0.2,1.8-0.3c31.2-4.8,66.1-15.7,98.1-32.4c0.2-0.1,0.3-0.2,0.5-0.2c51.7-27.1,95.7-69.4,104.1-126
			c7.5-37,17.7-58.6,17.7-113.9C562.4,245,531.5,175.7,531.5,175.7z"/>
		<g style="clip-path:url(#SVGID_00000080198396213441061120000011592923092498845314_);">
			<g>
				<path class="st2" d="M293.1,431.2c0,0-0.2,0.1-0.6,0.2c-0.1-0.2-0.1-0.3-0.2-0.5c-0.1-0.7,0.2-0.7,0.5-1.1
					c0.9-1.2-0.9-1.2-1.6-0.8c-1,0.6-1.1,1.5-0.9,2.5c0,0.1,0.1,0.3,0.1,0.4c-0.6,0.1-1.2,0.3-1.8,0.4c-0.1-0.2-0.2-0.4-0.2-0.7
					c-0.1-0.7,0.2-0.7,0.5-1.1c0.9-1.2-0.9-1.2-1.7-0.8c-1,0.6-1.1,1.5-0.9,2.5c0,0.2,0.1,0.4,0.1,0.5c-0.6,0.1-1.3,0.3-1.9,0.4
					c-0.1-0.2-0.1-0.3-0.1-0.5c-0.1-0.7,0.2-0.7,0.5-1.1c0.9-1.2-0.9-1.2-1.6-0.8c-1,0.6-1.1,1.5-0.9,2.5c0,0.1,0,0.2,0.1,0.3
					c-4.1,0.7-8.3,1.2-10.4,0.4c-4.4-1.5-6.7-10.1-7.2-12.2c6.4-2.9,10.2-6.4,10.2-6.4c0.6-1.5-0.9-1.8-0.9-1.8s-0.5,0.3-1.5,0.8
					c0.2-0.9,0.4-2.3,0.2-2.4c-0.9-0.7-1.3,1.8-2,3.3c-0.3,0.1-0.6,0.3-0.9,0.4c0.2-0.8,0.4-2.4,0.2-2.5c-0.9-0.7-1.3,1.8-2,3.2
					c-0.3,0.1-0.6,0.2-0.9,0.3c0.2-0.9,0.4-2.2,0.2-2.4c-0.9-0.7-1.3,1.4-1.9,2.9c-2.7,0.8-5.6,1.3-8.2,0.7c-2.4-0.5-4-4.5-4.8-7.2
					c0.2-1,0.8-1.8,2.2-2.1c-0.1-0.6-1-1-1.6-1c2.9-1.4-1.1-3.8-1.2-2.1c0.7,0.7-0.9,1.4-1.1,0.3c-0.1-0.7,0.8-1,1-1.6
					c-1.2,0-2.8,0.9-2.6,2.4c0.1,0.6,1,0.6,0.6,1.4c-0.1,0.1-0.2,0.1-0.3,0.1h-28h0c-0.5,0-1.5,0.1-1.7-0.4
					c-0.4-0.8,0.5-0.9,0.6-1.5c0.3-1.5-1.4-2.4-2.6-2.3c0.1,0.6,1.1,0.8,1,1.6c-0.2,1.1-1.8,0.4-1.1-0.3c-0.1-1.7-4.1,0.7-1.2,2.1
					c-0.6,0-1.5,0.4-1.6,1c2.1,0.5,2.3,1.9,2.4,3.8c-1,2.6-2.6,5.6-4.6,6.4c-1.7,0.6-5-0.3-8.2-1.5c-0.7-1.5-1.1-4.1-2-3.4
					c-0.2,0.2,0.1,1.8,0.3,2.6c-0.3-0.1-0.5-0.2-0.8-0.3c-0.8-1.4-1.1-4.2-2.1-3.5c-0.2,0.2,0.1,1.8,0.3,2.6
					c-0.3-0.1-0.6-0.3-0.8-0.4c-0.7-1.4-1.1-4.2-2.1-3.4c-0.2,0.2,0.1,1.7,0.2,2.5c-0.8-0.4-1.2-0.6-1.2-0.6s-1.5,0.3-0.9,1.8
					c0,0,3.8,3.5,10,6.4c-0.4,1.5-3.2,11.5-7.9,13.1c-1.5,0.5-3.6,0.5-5.9,0.2c0-0.2,0.1-0.4,0.1-0.7c0.2-1,0.1-2-0.9-2.5
					c-0.8-0.4-2.6-0.4-1.7,0.8c0.4,0.5,0.6,0.4,0.6,1.1c0,0.3-0.2,0.6-0.4,0.9c-0.6-0.1-1.2-0.2-1.8-0.3c0-0.4,0.1-0.7,0.2-1.1
					c0.3-1,0.2-2-0.9-2.5c-0.8-0.4-2.6-0.5-1.7,0.8c0.4,0.5,0.6,0.4,0.5,1.1c-0.1,0.4-0.3,0.8-0.5,1.2c-0.6-0.1-1.2-0.3-1.7-0.4
					c0-0.3,0.1-0.7,0.1-1c0.2-1,0.1-2-0.9-2.5c-0.8-0.4-2.6-0.4-1.7,0.8c0.4,0.5,0.7,0.4,0.6,1.1c0,0.4-0.2,0.7-0.4,1
					c-1.2-0.3-2-0.6-2-0.6s-2,0.5-1.2,2.6c0,0,7.7,8.7,26.3,10.2v30.4h3.3V455l4,0.9v19.6h2.7v-22.6h43.9v22.6h2.7v-19.1l3.3-0.7
					v19.9h4.7v-30.7c17.3-2.2,25.7-10.9,25.7-10.9C295.1,431.7,293.1,431.2,293.1,431.2z M260.6,448.2v-2.7h3.3v2.7H260.6z
					 M207.4,448.2v-2.7h4v2.7H207.4z M214.1,448.2v-2.7h43.9v2.7H214.1z"/>
				<path class="st2" d="M254.1,356c-0.2-0.6-1.2-0.4-1.8-0.5c0.1-0.2,0.2-0.8,0.3-0.9c-1.6-0.4-1.4-0.9-2.5-1.8
					c-0.9-0.8-2.2-1-3.4-1.1c-1.2-0.1-3.7-0.7-4.6,0.3c-0.9-0.4-1.7-0.8-2.7-0.7c0.2,0.2,0.2,0.5,0.6,0.8c-0.4,0-0.8,0.1-1.2,0.1
					c0.3,0.3,0.5,0.7,0.8,1c-1.5,0.3-4.5-0.5-5.5,1.2c0.2,0.1,0.4,0.3,0.5,0.3c-0.2,0.1-0.4,0.3-0.6,0.4c-0.2-0.2-0.4-0.3-0.6-0.5
					c-2.1-1.6-5-1.8-7.5-1.8c-2.2,0-6.4-0.7-8.8,0.4c0,0-0.1-0.1-0.1-0.1c1.1-0.3,2.5-1.3,1.9-2.7c-0.5-1.1-2.4-0.6-3.6-0.7
					c0.2-0.4,0.2-1.5,0.4-1.9c-3.1-0.5-3-1.4-5.2-3.1c-2-1.5-4.6-1.6-6.9-1.5c-2.4,0-7.4-0.8-9,1.3c-1.8-0.6-3.5-1.3-5.5-0.8
					c0.4,0.4,0.5,1,1.3,1.5c-0.8,0-1.6,0.3-2.4,0.4c0.6,0.5,1.1,1.3,1.7,1.7c-3,0.9-8.9-0.2-10.7,3.3c0.4,0.1,0.8,0.4,1.1,0.6
					c-2.7,2.1-5.9,6.5-0.6,6.9c3.7,0.3,7.5-1.1,11.2-1.4c5.1-0.3,10-0.5,15.1-0.1c1.2,0.1,2.5,0.3,3.8,0.5
					c-3.5,0.5-8.8-0.3-10.5,3.1c0.4,0.1,0.8,0.5,1.2,0.7c-3,2.2-6.5,6.9-0.7,7.5c1.7,0.2,3.3,0,5-0.3c1.3,2.5,2.8,5.1,5,6.8
					c-0.3,0.2-0.7,0.5-1,0.7c-4.8,3.1-11.1,1.7-16.3,3.6c0,0,0,0,0,0c-7,1.1-17.3,5.2-16.8,19.5c0,0,0.3,1.9,0.2,4.7
					c-7.4,0-16.5-1.1-21-7.3c1.6-1.7,2.4-4.2,2.9-6.3c0.4-1.9,0.7-4.1,0.6-6.2c2.5,0.5,5,1,7.2,0.9c-0.3-0.8-0.7-1.5-1.5-2
					c0.7,0.1,1.6-0.2,2.3-0.1c-0.5-0.9-1.2-1.7-1.8-2.6c1.1-0.3,2.4-1.2,1.9-2.5c-0.5-1.1-2.3-0.7-3.4-0.7c0.2-0.4,0.2-1.4,0.4-1.8
					c-1.9-0.3-2.5-0.8-3.3-1.5c3.2,0.1,6.2,0.3,9.4,0.9c2.9,0.5,6,1.8,8.8,1.8c-0.2-0.6-0.4-1.2-1-1.6c0.5,0.1,1.2-0.1,1.8,0
					c-0.3-0.7-0.9-1.4-1.2-2.1c0.8-0.2,1.9-0.8,1.5-1.8c-0.3-0.8-1.7-0.6-2.5-0.7c0.2-0.3,0.2-1.1,0.4-1.3c-2.2-0.5-2.1-1.2-3.6-2.6
					c-1.3-1.2-3.2-1.4-4.9-1.5c-1.4-0.1-4.2-0.8-5.8-0.1c0,0,0,0,0-0.1c-0.4-1.1-2.4-0.8-3.5-1c0.2-0.4,0.3-1.5,0.5-1.8
					c-3.1-0.7-2.9-1.7-4.9-3.6c-1.8-1.6-4.4-2-6.8-2.1c-2.4-0.2-7.3-1.4-9.1,0.5c-1.7-0.8-3.4-1.7-5.4-1.3c0.4,0.5,0.4,1.1,1.1,1.6
					c-0.8-0.1-1.7,0.2-2.5,0.2c0.5,0.6,0.9,1.4,1.6,1.9c-3.1,0.7-8.9-1-10.9,2.3c0.4,0.2,0.7,0.5,1.1,0.7c-1.7,1.1-3.7,3.1-3.8,4.7
					c-0.5-0.1-1-0.2-1.6-0.1c0.3,0.3,0.3,0.8,0.8,1.1c-0.6-0.1-1.2,0.1-1.8,0.1c0.4,0.4,0.7,1,1.2,1.4c-2.2,0.5-6.4-0.7-7.9,1.7
					c0.3,0.1,0.5,0.4,0.8,0.5c-2.1,1.3-4.6,4.3-0.8,4.9c2.6,0.4,5.4-0.3,8.1-0.3c3.2,0.1,6.4,0.3,9.5,0.7c-0.1,0.1-0.2,0.3-0.3,0.4
					c0.4,0.1,0.7,0.4,1.1,0.6c-2.6,2-5.7,6.1-0.7,6.5c1.9,0.2,3.9-0.1,5.9-0.5c2.6,1.7,4.5,4.2,6.7,6.3c2.2,2.1,5,2.2,7.8,2.6
					c1,2.6,2,5.2,3.6,7.4c2.4,3.2,6.2,4.8,9.9,5.7c4.2,1.1,8.5,1.5,12.8,1.4c-0.9,6-4.1,13.8-14.4,16.9c-8.5,2.5-13.1,9.2-14.7,16.5
					c-0.8-0.7-1.7-1.2-2.6-1.7c-2.9-1.5-6.4-2.5-8.9-4.6c-3.4-2.8-3.1-7.9-2.5-12.3c0.6,0.1,1.3,0.3,1.9,0.4c4.3,1,8.9,3.3,13.1,3.5
					c-0.2-0.9-0.5-1.8-1.4-2.5c0.8,0.2,1.9,0,2.7,0.2c-0.4-1-1.2-2.1-1.7-3.2c1.2-0.2,2.9-1,2.5-2.6c-0.4-1.3-2.5-1.1-3.8-1.3
					c0.3-0.4,0.4-1.6,0.7-2c-3.3-1-3-2-5.2-4.2c-1.9-1.9-4.7-2.4-7.2-2.8c-2.6-0.3-7.9-2-9.9,0c-1.8-0.9-3.6-2-5.8-1.8
					c0.4,0.5,0.4,1.2,1.1,1.8c-0.9-0.2-1.8,0.1-2.7,0c0.5,0.6,0.9,1.6,1.6,2.2c-3.4,0.5-9.6-1.6-12,1.8c0.4,0.2,0.7,0.6,1.1,0.8
					c-1.9,1.1-4.1,3-4.4,4.6c-1.6-0.1-3.2-0.2-4.7,0.1V433c1.3,0,2.5,0.1,3.8,0.1c0,0.6,0,1.2-0.1,1.7c-0.1,0.9-0.7,1.6-1.3,2.3
					c-0.8-0.8-1.6-1.7-2.4-2.6v3.7c0.6,0.7,1.2,1.4,1.8,2.1c-0.6-0.2-1.2-0.2-1.8-0.3v1.1c1.3,0.2,2.6,0.5,3.6,1.5
					c0.1,0.1,0.2,0,0.3-0.1c7.2,7.1,18.7,14.8,34.4,15.1c0,0,7.7,1.5,14.1,4.6c0,0,0,0,0,0c3.4,4,7.4,8.5,10.6,13.6
					c-5.2,2.1-15.5,10.9-20.4,9.8c-3.6-0.8-6.3-3.2-7.8-4.7c2.1-0.1,4.2-0.1,6.3,0.1c2.9,0.2,6.2,1.2,8.9,1
					c-0.2-0.6-0.5-1.1-1.2-1.5c0.5,0,1.2-0.2,1.8-0.2c-0.4-0.6-1-1.3-1.4-1.9c0.8-0.2,1.8-1,1.3-1.9c-0.4-0.8-1.8-0.4-2.6-0.5
					c0.2-0.3,0.1-1.1,0.2-1.4c-2.3-0.3-2.2-1-3.8-2.2c-1.4-1-3.3-1.1-5-1.1c-1.7,0-5.4-0.5-6.5,1c-1.3-0.4-2.6-0.9-4-0.6
					c0.3,0.3,0.4,0.7,0.9,1c-0.6,0-1.2,0.3-1.8,0.3c0.4,0.4,0.8,0.9,1.3,1.2c-2.2,0.7-6.4-0.1-7.7,2.4c0.3,0.1,0.6,0.3,0.8,0.4
					c-1.9,1.5-4.2,4.7-0.3,5c1.3,0.1,2.6-0.1,3.9-0.4c1.4,1.5,2.4,3.3,4.1,4.4c2.4,1.7,5.6-0.3,8.2,1c0.1,0,0.1,0,0.2,0
					c1.2,0.7,2.4,1.1,3.8,1.2c4.9,0.2,14.9-6.6,22.3-9.6c3.6,6.8,5.5,14.9,2.5,24.8c0,0,5.7,3.8,11.8-4.2c0,0,1.9-24.1-12.2-33.7
					c-14.1-9.6-13.7-33.3,5.7-39.8c0,0,8-3.3,9.2-15.2l5.8,0.8c5.7,0.5,11.6-3.8,16.1-8.4c2.2,0.2,9.8,0.1,17-6.3
					c2.1,0.6,4.2,1.2,6.2,1.2c-0.2-0.6-0.4-1.2-1-1.6c0.5,0.1,1.2-0.1,1.8,0c-0.3-0.7-0.8-1.4-1.2-2.1c0.8-0.2,1.9-0.8,1.5-1.8
					c-0.3-0.8-1.7-0.6-2.5-0.7c0.2-0.3,0.2-1.1,0.4-1.3c-2.2-0.5-2.1-1.2-3.6-2.6c-1.3-1.2-3.2-1.4-4.9-1.5c-1.7-0.1-5.3-1-6.5,0.4
					c-1.3-0.6-2.5-1.2-3.9-1c0.3,0.3,0.3,0.8,0.8,1.1c-0.6-0.1-1.2,0.1-1.8,0.1c0.4,0.4,0.7,1,1.2,1.4c-2.2,0.5-6.4-0.7-7.9,1.7
					c0.3,0.1,0.5,0.4,0.8,0.5c-2.1,1.3-4.6,4.3-0.8,4.9c1.2,0.2,2.4,0.1,3.6,0c-0.1,0.7-0.1,1.3,0,2c0.1,0.8,0.7,1.5,1.4,2.1
					c-10.2,9.4-18.8,8.6-22.1,7.8c0-2.1-0.2-4.3-0.6-6.8c0,0-2.3-19.9,18.7-19.9c0,0,0.1,0.1,0.2,0.1c0.8,0.1,1.6,0.1,2.3,0
					c0.9,0.1,1.8,0.2,2.7,0.3l-1-0.5c4.4-0.6,8.3-2.8,11.5-5.8c5.1,0.1,10.8-3.3,13.8-7.6c0.1,0,0.1,0,0.2,0
					c4.3,0.4,9.2,2.1,13.4,1.9c-0.3-0.9-0.7-1.7-1.7-2.3c0.8,0.1,1.9-0.2,2.7-0.2c-0.5-1-1.4-1.9-2-3c1.2-0.3,2.8-1.4,2.1-2.9
					c-0.5-1.2-2.6-0.7-3.9-0.8c0.2-0.4,0.2-1.6,0.4-2c-0.2,0-0.5-0.1-0.7-0.1c0.4,0,0.9-0.1,1.3,0c2.6,0.1,5,0.2,7.6,0.6
					c2,0.3,4.2,1.3,6.1,1.3c-0.1-0.4-0.3-0.8-0.7-1.1c0.4,0.1,0.9-0.1,1.2,0c-0.2-0.5-0.6-0.9-0.9-1.5
					C253.6,357.1,254.4,356.7,254.1,356z M137.2,371.9c0.2-0.3,0.2-1,0.3-1.2c-2.2-0.5-2.1-1.2-3.6-2.6c-0.1-0.1-0.2-0.2-0.4-0.3
					c0.2,0,0.4,0,0.6,0c5.1,0.1,10,0.4,15,1.3c0.4,0.1,0.7,0.1,1.1,0.2c-0.2,0.2-0.4,0.4-0.6,0.6c-2.4-0.1-5.3-0.2-6.4,1.2
					c-1.7-0.6-3.4-1.4-5.2-0.9c0.4,0.4,0.4,1,1.2,1.4C138.5,371.6,137.9,371.8,137.2,371.9z M142.6,387.6c-1.8-1.5-3.2-3.4-4.9-4.9
					c0.6-0.1,1.1-0.1,1.7-0.1c1.4-0.1,2.9-0.1,4.3-0.1c2.3,2,3.5,4.7,4.6,7.5C146.2,389.6,144.3,389.2,142.6,387.6z M154.1,395.2
					c-2.5-4-3.3-8.8-5.7-12.8c1.8,0,3.5,0.2,5.3,0.3c0.9,0.1,1.9,0.2,2.8,0.4c0.2,1.5,0.2,3.2,0.1,4.7
					C156.4,390,156,393.8,154.1,395.2z M131,421.3c-0.4,2.1-0.7,4.4-0.7,6.7c-2.7-1.6-3.5-4.5-4.4-7.5
					C127.6,420.7,129.3,420.9,131,421.3z M112.8,434.4c0.1,2.1,0.2,4,0.5,5.6c-2.6-1.2-3.5-3.7-4.4-6.3
					C110.1,433.9,111.5,434.1,112.8,434.4z M101,437.5c0.6-0.7,1.2-1.5,1.5-2.3c0.2-0.6,0.3-1.3,0.3-2c1.6,0.1,3.3,0.2,5,0.4
					c1.3,3.2,2.1,6.5,5.7,7.7c0,0,0,0,0.1,0c0.7,3.3,1.6,5.6,2.6,7.2C111.5,446.5,106.4,443.1,101,437.5z M135.1,451
					c-3.9,0.4-8.8,0.7-14.5-0.9c-4.2-4.5-5.5-11.5-5.9-15.3c3.2,0.7,6.4,1.4,9.3,1.3c-0.3-1-0.8-2-1.9-2.6c0.9,0.1,2.1-0.2,3.1-0.1
					c-0.6-1.1-1.6-2.3-2.3-3.5c1.4-0.4,3.2-1.5,2.5-3.3c-0.6-1.4-3-0.9-4.5-1c0.3-0.5,0.3-1.9,0.5-2.3c-3.6-0.7-3.7-1.8-5.9-3.7
					c0.8,0,1.6,0,2.3,0.1c2,0.2,4,0.4,5.9,0.6c1.5,4.1,1.9,8.7,6.6,10.3c0,0,0.1,0,0.1,0c0.3,1.5,0.9,2.9,1.8,4.1
					c2.2,2.6,5.8,3.7,8.7,5.1c1.5,0.7,3.1,1.5,4.3,2.6c0.1,0.1,0.2,0.2,0.3,0.4c-0.4,3.6-0.2,7.3,0.6,10.7
					C143.7,451.9,139.7,450.5,135.1,451z M129.6,485.5c-1.7-0.7-2.8-2.5-4-4c1-0.2,2-0.4,2.9-0.4c0.8-0.1,1.6-0.1,2.4-0.2
					c0.9,1.4,2.2,3.3,4,4.8C133.1,485.7,131.4,486.2,129.6,485.5z M216.2,396.2c0.5,0.1,1,0.2,1.5,0.3c-2.5,1.7-7.4,4.4-13.7,4.3
					c1.8-2,3.3-4,4.3-5.4C211,395.5,213.6,395.7,216.2,396.2z M201.7,396.9c-0.1-0.4-0.2-0.9-0.1-1.4c1.3-0.1,2.6-0.3,3.9-0.2
					c0.4,0,0.7,0,1.1,0c-1.1,1.3-2.3,2.5-3.4,3.6C202.5,398.3,201.9,397.7,201.7,396.9z M211.3,373.3c-2-1.4-3.5-3.5-4.7-5.7
					c1.7-0.3,3.3-0.6,5-0.6c1.6-0.1,3.2-0.1,4.8-0.1C215.1,369.3,213.3,371.5,211.3,373.3z M216,372.8c1.5-1.8,2.8-3.8,3.9-5.9
					c2.3,0,4.7,0.1,7,0.3C224.5,370.3,219.9,372.5,216,372.8z"/>
			</g>
			<g>
				<path class="st2" d="M527.8,408.9c0,0-4.9,13.5-19.1,16.2c-2.5,0.5-5.4,0.1-8.5-0.9c8.1-6.5,7.7-18.8,7.7-18.8l-3.3-1.3
					c-2.1,11-11.1,14.1-15.6,14.9c-6.2-3.6-12.4-8.4-17.8-12.7v-25.8c0-2.9,2.2-4.6,2.5-4.7c0.5,0.5,1.3,0.7,2,0.7
					c1.6,0,3-1.3,3-2.9c0-0.9-0.4-1.8-1.1-2.3c-0.2-1.1,0.4-2.3,0.7-2.8c0.1,0,0.1,0,0.2,0c9.7-1,13.2-9.8,13.4-11.7
					c0.2-1.9-2-1.9-2-1.9s-2.7,7.6-10.7,9c-1.4,0.3-3,0-4.8-0.5c4.5-3.6,4.3-10.5,4.3-10.5l-1.9-0.7c-1.2,6.1-6.1,7.9-8.6,8.3
					c-6.6-3.9-13.4-10.1-16.2-12.5c-1.6-1.4-3.4-2.2-5.2-2.8c-0.2-2.1-1.5-3.9-3.3-4.8c1-3.1,1.7-7.9,1.7-9.2c0-2-1.6-3.6-3.6-3.6
					c-2,0-3.6,1.8-3.6,3.8c0,1.2,0.6,5.2,1.5,8.8h-0.8c-3.3,0-6,2.2-6,5.5v0.3c0,0.1,0,0.2,0,0.4c-0.8,0.5-1.6,1-2.3,1.6
					c-2.8,2.5-9.7,8.8-16.3,12.7c-2.3-0.5-6.8-2.3-7.9-8.3l-1.7,0.7c0,0-0.2,6.6,3.8,10.3c-1.6,0.5-3.2,0.7-4.5,0.5
					c-7.8-1.5-10.5-9-10.5-9s-2.2,0-2,1.9c0.2,2,3.7,10.7,13.2,11.7c0.5,0,1,0,1.5,0c0.3,0.5,1,1.7,0.7,2.8
					c-0.7,0.5-1.2,1.4-1.2,2.3c0,1.6,1.4,2.9,3,2.9c0.8,0,1.5-0.3,2-0.7c0.4,0,2,1.8,2.1,4.9l-0.1-0.4V404
					c-5.5,5-13.1,11.1-20.5,15.5c-4.1-0.9-12-4-13.9-14.9l-3,1.3c0,0-0.2,11.8,6.8,18.4c-2.9,0.9-5.7,1.3-8.1,0.8
					c-14-2.6-18.8-16.2-18.8-16.2s-3.9,0-3.5,3.5c0.4,3.4,6.3,18.5,22.5,20.8c-0.3,0.2-0.6,0.6-0.9,0.7l1.3,1.1h4
					c0.5,1.8,0.9,2.3,0.6,3.5c-1.3,1-2.1,2.3-2.1,4c0,2.9,2.4,5.2,5.4,5.2c1.4,0,1.8-0.5,2.8-1.3c0.4,0,1.8,1,1.8,2.7v70.4
					c-1.8,2.1-0.6,6.1-0.4,6.9c-1.3,0.7-2.2,2.4-2.3,6.2c0,0-13.5,2.2-13.2,17.1l142.4-0.4c0.4-14.8-13.5-17.1-13.5-17.1
					c-0.2-3.8-1.2-5.5-2.5-6.2c-0.1-3.1-1.3-4.5-1.3-5v-70.6c0-2.6,2.5-4,2.9-4c0.9,0.8,2,1.3,3.3,1.3c2.9,0,5.1-2.3,5.1-5.2
					c0-1.7-0.8-3.2-2.1-4.1c-0.5-1.9,0.6-4.1,1.2-5c0.1,0,0.2,0,0.3,0c17.3-1.7,23.6-17.5,24-21
					C531.8,408.9,527.8,408.9,527.8,408.9z M414.7,526l-12.3,0.1c0.3-5.1-2.3-6.6-2.3-7v-11.5l14.6-1.3V526z M414.7,503.7l-14.6,1.3
					v-3l14.6-1.4V503.7z M414.7,498.4l-14.6,1.1V446h14.6V498.4z M452.9,528h-25.5v-29.9c0,0,0-10.1,10.9-10.8
					c12.8,0.7,14.6,10.8,14.6,10.8V528z M483.9,520.7c-1.8,0.5-2.6,3-2.4,4.9l-15.9,0.1v-18.6l18.2,3.2V520.7z M483.9,507.6l-18.2-3
					v-3.2l18.2,3.2V507.6z M483.9,502l-18.2-2.7V446h18.2V502z"/>
				<path class="st2" d="M435.6,452.2C435.4,452.2,435.6,452.2,435.6,452.2C435.6,452.2,435.8,452.2,435.6,452.2z"/>
			</g>
			<ellipse class="st2" cx="447.6" cy="216.8" rx="13.1" ry="16.5"/>
			<path class="st2" d="M463.3,506.6c-42.8,29.1-92.3,44.3-134.1,49c-3.4,0.4-6.9,0.6-10.3,0.7c-8.7,0.2-17.4,0.3-26.2,0.3
				c-4.6,0-9.2-0.2-13.7-0.8c-42.9-5.1-97.3-25.2-142.7-58.1c16.7-7.7,35-14.6,55.1-20C307.2,446.5,411.2,483.2,463.3,506.6z"/>
			<path class="st2" d="M169.6,175.2c0,1.4-0.9,2.5-2,2.5s-2-1.1-2-2.5c0-1.4,0.9-2.5,2-2.5S169.6,173.8,169.6,175.2z"/>
			<path class="st2" d="M186,179.8c0,1.4-0.9,2.5-2,2.5s-2-1.1-2-2.5s0.9-2.5,2-2.5S186,178.5,186,179.8z"/>
			<path class="st2" d="M240.9,106.3c0,1.4-0.9,2.5-2,2.5s-2-1.1-2-2.5c0-1.4,0.9-2.5,2-2.5S240.9,104.9,240.9,106.3z"/>
			<path class="st2" d="M496.6,324.6c0,1.4-0.9,2.5-2,2.5c-1.1,0-2-1.1-2-2.5c0-1.4,0.9-2.5,2-2.5
				C495.7,322.2,496.6,323.3,496.6,324.6z"/>
			<path class="st2" d="M503.3,318c0,1.4-0.9,2.5-2,2.5c-1.1,0-2-1.1-2-2.5c0-1.4,0.9-2.5,2-2.5C502.4,315.5,503.3,316.6,503.3,318z
				"/>
			<ellipse class="st2" cx="179" cy="167.2" rx="3.1" ry="4"/>
			<path class="st2" d="M175.8,313.3c0,2.8-1.8,5.1-4.1,5.1c-2.3,0-4.1-2.3-4.1-5.1c0-2.8,1.8-5.1,4.1-5.1
				C174,308.2,175.8,310.5,175.8,313.3z"/>
			<path class="st2" d="M406.3,94.2c0,2.8-1.8,5.1-4.1,5.1c-2.3,0-4.1-2.3-4.1-5.1c0-2.8,1.8-5.1,4.1-5.1
				C404.5,89,406.3,91.3,406.3,94.2z"/>
			<ellipse class="st3" cx="202.2" cy="77.7" rx="13" ry="16.4"/>
			<ellipse class="st2" cx="45.9" cy="367.4" rx="26.6" ry="33.6"/>
		</g>
		<path style="clip-path:url(#SVGID_00000080198396213441061120000011592923092498845314_);fill:#FFEEF1;" d="M239.5,170.7
			c10,5,22.1,9.8,31.8,4.3c3.6-2,7.4-5.3,11.1-4.2c0.3-0.8,0.7-1.5,1.1-2.3c2.8-4.3,7.8-7.1,12.9-7.1c3.1,0,6.4,1.2,8.1,3.8
			c1.7,2.6,1,6.7-1.8,8c1-2.2-0.6-5-2.9-5.7c-2.3-0.7-4.9,0.4-6.4,2.3c-1.5,1.9-2,4.4-1.9,6.8c0.1,4,1.9,7.9,4.8,10.8
			c6.4,3.1,14.7,2.8,20-2.1c1.7,5.5,9.5,8,14,4.5c0.5,7.2,6.7,13.2,13.7,14.9c7,1.7,14.5-0.3,20.8-3.8c6.3-3.6,11.5-8.7,16.7-13.7
			c3.9,3.3,9.9,4,14.5,1.8c4.6-2.3,7.7-7.4,7.4-12.6c4.2-6.6,13.1-8.3,20.9-7.7c7.8,0.5,15.7,2.7,23.3,1.1c7-1.4,12.9-5.7,19.5-8.4
			c6.6-2.7,14.9-3.5,20.1,1.3c-6.6-6.6-16.6-9.5-25.7-7.6c-7.5,1.6-15.8,6.2-22.2,2c-5.6-3.6-5.9-11.6-9.4-17.2
			c-2.8-4.5-8-7.4-13.3-7.5c-5.3-0.1-10.6,2.6-13.6,7c-8.1-6.7-21.6-5.4-28.2,2.8c-1.6-1.6-3.2-3.2-4.7-4.7
			c4.4-6.5,2.6-16.4-3.8-20.9c-4.8-3.4-11.4-3.3-16.5-0.5c1.6,2.8,2.5,6,2.3,9.2c-0.2,5.7-3.7,11.2-8.8,13.7
			c-5.2,2.5-11.8,1.6-16-2.3c-2-1.8-3.4-4.3-3.6-7c-0.2-2.7,1-5.5,3.3-6.9c2.3-1.4,5.6-1.1,7.3,1c1.7,2.1,1.2,5.7-1.2,6.9
			c1.8-1.2,1.7-4.1,0-5.5c-1.7-1.3-4.3-0.9-5.7,0.6c-1.4,1.6-1.7,4-0.9,6c0.8,2,2.5,3.5,4.4,4.4c3.1,1.4,6.8,1.3,9.8-0.2
			c3-1.5,5.2-4.5,5.9-7.8c0.6-2.9-0.1-5.8-1.5-8.4c-6.2-7.6-18.3-9.7-26.7-4.5c-8.5,5.2-12,17.2-7.8,26.2
			c-3.9-4.4-10.5-6.2-16.1-4.5c-5.6,1.7-10.1,6.8-11,12.6c-4.7-2.3-10.3,0.7-14,4.4c-3.6,3.8-6.5,8.5-11.2,10.9
			c-5.3,2.8-11.8,1.9-17.5,0c-5.7-1.9-11.1-4.7-17-5.6c-5.9-0.9-12.7,0.5-16.1,5.5C218,160.3,229.6,165.7,239.5,170.7z"/>
	</g>
	<g>
		<g>
			<g>
				<path class="st5" d="M249.1,461.9c8.4,4.7,21.9,10.9,39.6,13.1c28.9,3.5,51.4-5.9,61-10.6c6.6-16.1,13.2-32.3,19.8-48.4
					c-4.7-3.6-27.7-20.3-57.8-15.4C281.7,405.4,257,429.6,249.1,461.9z"/>
				<g>
					<g>
						<path class="st6" d="M235.9,512.4c0.9,1.6,3.4,1.7,5,1.9c3.5,0.5,6.6-0.5,9.6-2.1c9.3-4.7,19.7-14.1,21.7-15.9
							c-2.5-6.7-5-13.5-7.5-20.2c-6,0.5-11.9,1.1-17.9,1.6c2.1,5.3,4.2,10.6,6.3,15.9c-2.2,1.7-4.5,3.5-6.8,5.3
							c-2.6,2.1-5,4.1-7.3,6.2c0,0,0,0,0,0C236.2,507.6,235,510.6,235.9,512.4z"/>
						<path d="M228.9,519.2c0.7,2.3,3.7,3.2,5.3,3.7c5.4,1.7,10.8,0.3,16.9-2.3c5.7-2.4,14-6.8,23-14.8c0.3-0.6,0.6-1.3,0.8-1.9
							c-0.2-1.3-0.5-2.9-1.2-4.6c-0.4-1.1-0.9-2.1-1.3-2.9c-2,1.9-12.4,11.3-21.7,15.9c-3.1,1.5-6.1,2.6-9.6,2.1
							c-1.6-0.3-4.2-0.3-5-1.9c-0.9-1.7,0.2-4.7,3.2-7.2c0,0,0,0,0,0c-0.6,0.5-1.4,1.2-2.3,2C232.9,510.9,227.9,515.7,228.9,519.2z"
							/>
					</g>
					<path class="st7" d="M244.7,491.6c-13.7-26-27.3-52-41-78c12.3-3,24.5-6.1,36.8-9.1c11.3,24.7,22.6,49.3,33.9,74
						C264.6,482.8,254.7,487.2,244.7,491.6z"/>
				</g>
				<g>
					<g>
						<path class="st6" d="M363.2,512.4c-0.9,1.6-3.4,1.7-5,1.9c-3.5,0.5-6.6-0.5-9.6-2.1c-9.3-4.7-19.7-14.1-21.7-15.9
							c2.5-6.7,5-13.5,7.5-20.2c6,0.5,11.9,1.1,17.9,1.6c-2.1,5.3-4.2,10.6-6.3,15.9c2.2,1.7,4.5,3.5,6.8,5.3c2.6,2.1,5,4.1,7.3,6.2
							c0,0,0,0,0,0C363,507.6,364.1,510.6,363.2,512.4z"/>
						<path d="M370.2,519.2c-0.7,2.3-3.7,3.2-5.3,3.7c-5.4,1.7-10.8,0.3-16.9-2.3c-5.7-2.4-14-6.8-23-14.8c-0.3-0.6-0.6-1.3-0.8-1.9
							c0.2-1.3,0.5-2.9,1.2-4.6c0.4-1.1,0.9-2.1,1.3-2.9c2,1.9,12.4,11.3,21.7,15.9c3.1,1.5,6.1,2.6,9.6,2.1c1.6-0.3,4.2-0.3,5-1.9
							c0.9-1.7-0.2-4.7-3.2-7.2c0,0,0,0,0,0c0.6,0.5,1.4,1.2,2.3,2C366.2,510.9,371.3,515.7,370.2,519.2z"/>
					</g>
					<path class="st7" d="M356,488.8c13.1-25.1,26.2-50.1,39.3-75.2c-12.3-3-24.5-6.1-36.8-9.1c-11.6,25.3-23.2,50.6-34.8,76
						C334.5,483.2,345.3,486,356,488.8z"/>
				</g>
				<path class="st8" d="M210.1,370.3c3.5-9.4,7-18.9,10.5-28.7c5.2-14.8,10.1-29.3,14.6-43.5c3.6-2.6,9-6.1,15.8-9.3
					c9.8-4.6,17.8-6.3,28.5-8.6c12.6-2.7,18.9-4,25.7-3.9c12.1,0.3,21.2,3.6,29.5,6.5c7.5,2.7,13.5,5.5,17.6,7.7
					c0.3,14.1,0.8,28.8,1.8,43.9c0.8,14,1.9,27.6,3.2,40.7c-0.3,3.1-0.6,10.5,4.2,16.3c1.2,1.5,4.6,5.2,16.2,7.7
					c17.9,3.9,22.6-2.1,30.5,2.8c9.6,5.9,11.1,19.8,11.5,23.5c1,9.2-1.6,16.5-3.2,20.2c-24.9,2.4-49.7,4.8-74.6,7.2
					c0.3-4.2,0.4-14.7-6.2-24.3c-0.6-0.9-3.6-5-8.9-8.9c-6.6-4.8-15-7.2-18.7-7.8c-0.1,4.8-5.7,10-7.7,19.4
					c-2.9,13.3,1.9,24,3.6,27.3c-32.8,0.3-65.7,0.6-98.5,0.9c-8-10.4-9.1-19.6-9.2-23.7c-0.1-4.1-1.3-19.7,10.7-30.6
					c13-11.9,30.3-8.1,31.9-7.7C229.2,388.3,219.7,379.3,210.1,370.3z"/>
				<g>
					<path class="st9" d="M309.4,305.6c0.3-1.7,0.7-3.3,1-5c-1.5-2.1-3-4.2-4.6-6.3c0,1.5,0.1,3,0.1,4.5
						C307.2,301.1,308.3,303.4,309.4,305.6z"/>
					<g>
						<path class="st10" d="M276.3,278.7c0.7,0.7,1.8,1.7,3.4,2.6c0.4,0.2,1.2,0.7,2.3,1c1.9,0.5,3.6,0.4,4.9,0.2
							c-0.2-2.1-1-6.8-4.4-11.5c-3.2-4.3-7-6.5-9-7.4C274.5,268.6,275.4,273.7,276.3,278.7z"/>
						<g>
							<path class="st6" d="M309.5,306.2c-1.3-1.7-2.7-3.4-4.3-5.1c-1.4-1.6-2.9-3.2-4.3-4.6c-0.6-0.5-1.3-1.1-2.1-1.6
								c-0.5-0.4-1.2-0.8-1.8-1.2c-2-1.3-4.1-2.2-6-2.9c-2.4-0.9-4.6-1.4-6.4-1.6c0.2-1.1,0.3-2.3,0.3-3.6c0-0.6-0.1-1.2-0.1-1.8v0
								c0-0.1,0-0.2,0-0.3c-0.1-0.8-0.3-1.6-0.5-2.3c-0.1-0.4-0.2-0.8-0.3-1.1c6.2,1.1,12.5,2.1,18.8,3.2c1.8,0.3,3.6,0.6,5.4,0.9
								h0.1v0.1c0,0.8-0.1,1.5-0.1,2.3c-0.1,2.6-0.2,5.3-0.3,7.9v0.1c0,0.5-0.1,1-0.1,1.6c-0.1,1.2-0.1,2.4-0.2,3.5
								c0.3,0.5,0.6,1.1,0.9,1.8C309.2,303.1,309.4,304.8,309.5,306.2z"/>
							<path class="st11" d="M308.3,284c0,0.8-0.1,1.5-0.1,2.3c-0.1,2.6-0.2,5.3-0.3,7.9v0.1c-0.8,0.1-1.7,0.1-2.5,0
								c-2.3-0.1-4.4-0.5-6.4-1.2c-3.1-1.1-5.7-2.7-7.7-4.2c-0.6-0.5-1.2-1-2.4-2c-1.6-1.3-3-2.5-3.9-3.3v0c0-0.1,0-0.2,0-0.3
								c-0.1-0.8-0.3-1.6-0.5-2.3c-0.1-0.4-0.2-0.8-0.3-1.1c6.2,1.1,12.5,2.1,18.8,3.2C304.6,283.3,306.4,283.7,308.3,284z"/>
							<path class="st6" d="M301,201.7c-27.4-0.3-31.9,18.2-32,28.9c-0.1,4.8-0.1,8.2,0.5,13.3c0.6,5.8,1.5,13.3,4.9,21.6
								c2.5,6.2,6,14.7,14.7,20.9c4.3,3.1,7.9,4.6,9.3,5.1c4.4,1.5,7.8,1.4,8.5,1.4c1.7-0.1,3.6-0.1,5.4-0.8
								c3.6-1.5,4.6-5.1,8.7-12.5c2.1-3.9,4.6-7.5,6.1-13c4-14.4,5.1-24.5,5.2-35.2C332.5,220.8,328.5,202.1,301,201.7z"/>
							<path class="st10" d="M305.6,199.6c7.8-1.6,13.1,0.3,15.4,1.3c12,5.3,16.1,19.8,15.6,29.6c-0.4,8.9-4.7,16.3-5.3,16.1
								c-0.4-0.1,0.4-2.8-0.3-7.3c-0.3-2.2-0.9-3.9-1.4-5.1c-0.7-1.8-1.5-3.3-2.2-4.5c-1,6.1-1.7,7.5-2.1,7.5
								c-0.7,0-0.5-3.6-2.1-8.3c-1.6-4.6-4.6-9.2-6-8.8c-1.5,0.4-0.8,6.5-1.9,6.7c-0.6,0.1-0.8-1.7-2.6-3.7c-0.9-1-2.3-2.6-3.7-2.4
								c-1.5,0.2-2.2,2.2-4.6,8.3c-2.7,7-3.3,8.2-4,8.2c-0.7,0-1.8-1.3-3-7.7c-1.1,1.6-1.7,3.1-4.2,7.4c-1.3,2.2-2.5,4.1-2.9,4.1
								c-0.7,0.1-2.5-3-3.8-6.5c-0.6,1-1.4,2.6-1.7,4.7c-0.3,2,0.2,2.6,0.2,4.3c-0.1,3.4-2.1,4-4.1,8.6c-1.8,4.3-1.2,6.7-2.4,7
								c-1.8,0.5-4.6-4.3-5.8-6.4c5.5,19.7,6,26.1,4.7,26.6c-1.7,0.7-7.7-7.9-11.2-16.6c-0.1-0.2-0.4-1-0.7-1.9
								c-2.4-6.7-8.2-25.7,0.7-43.2c2.6-5.2,5.7-8.6,7.3-10.2c3.2-3.2,9.4-9.5,18.9-10.3C294.8,196.8,299.8,196.8,305.6,199.6z"/>
						</g>
						<path class="st12" d="M278.2,301.3"/>
						<g>
							<g>
								<path d="M286.1,247.2c4.6-3.4,12.2-2.4,16.1,1.7c0,0-1.3,1.2-1.3,1.2C297.2,246.3,290.8,245.3,286.1,247.2L286.1,247.2z"/>
							</g>
						</g>
						<g>
							<g>
								<path d="M329.9,248.6c-3.8-2.8-9.7-2.1-13.3,0.9c0,0-1.1-1.2-1.1-1.2C319,244.9,327.1,244.5,329.9,248.6L329.9,248.6z"/>
							</g>
						</g>
						<path class="st11" d="M301.2,279.8c0,0.6,4.1,1.4,7.5,1.6c2.8,0.2,6.4,0,6.5-0.6c0-0.5-3.3-1.4-6.3-1.7
							C305.3,278.8,301.3,279.2,301.2,279.8z"/>
						<g>
							<path class="st11" d="M305.9,269.8c2.2-1,4.8-1,6.9,0C310.6,270.9,308,270.9,305.9,269.8L305.9,269.8z"/>
						</g>
						<g>
							<path d="M317.9,256.3C317.9,256.2,317.8,256.2,317.9,256.3c-0.3-0.2-0.4-0.3-0.6-0.4c0.2-0.3,0.4-0.7,0.8-1
								c0.1-0.1,0.4-0.5,0.9-0.7c0.6-0.4,1-0.3,2.4-0.3c1.9,0,2-0.1,2.5,0.1c0.6,0.3,1.3,1,1.2,1.5c0,0.2-0.1,0.3-0.3,0.5
								c-0.6,0.7-1.3,0.7-1.3,0.7c0,0.1,1,0.3,1.8-0.3c0.5-0.4,0.8-0.9,1-1.2c0.3,0.1,0.7,0.2,1.2,0.3c0.6,0.2,0.8,0.3,0.9,0.2
								c0.1-0.1-0.9-0.9-2-1.5c-0.4-0.2-1.1-0.6-2-0.8c-0.4-0.1-0.9-0.2-2.5-0.2c-0.8,0-1.8,0-3,0.1c-0.5,0.3-1.1,0.7-1.8,1.4
								c-0.8,0.8-1.4,1.8-1.3,1.9c0.1,0.1,0.3-0.2,0.8-0.3c0.2,0,0.2,0,0.5,0C317.4,256.4,317.9,256.3,317.9,256.3z"/>
							<path d="M323.6,253.7c0.1,0.2,0.2,0.6,0.1,1.1c-0.1,1-0.8,1.6-0.9,1.7c-0.6,0.5-1.3,0.4-1.7,0.4c-0.3,0-0.8-0.1-1.3-0.5
								c-0.2-0.2-0.6-0.6-0.7-1.2c-0.1-0.7,0.2-1.2,0.3-1.4c0.5-0.1,1.1-0.1,1.7-0.1C322,253.6,322.8,253.6,323.6,253.7z"/>
						</g>
						<g>
							<path d="M300.6,256.2c0,0,0,0,0.1,0c0.2-0.1,0.4-0.2,0.6-0.3c-0.2-0.3-0.4-0.7-0.8-1.1c-0.1-0.1-0.5-0.5-1-0.8
								c-0.6-0.4-1.1-0.4-2.8-0.5c-2.2-0.2-2.4-0.3-2.9-0.1c-0.7,0.3-1.6,0.9-1.6,1.4c0,0.2,0.1,0.3,0.3,0.5
								c0.7,0.7,1.5,0.8,1.5,0.9c0,0.1-1.2,0.2-2.1-0.4c-0.6-0.4-0.9-1-1.1-1.3c-0.3,0-0.8,0.1-1.4,0.2c-0.8,0.1-1,0.2-1,0.1
								c-0.1-0.1,1.2-0.8,2.5-1.3c0.5-0.2,1.3-0.5,2.4-0.6c0.4-0.1,1.1-0.1,2.9,0c0.9,0.1,2.1,0.2,3.5,0.4c0.5,0.3,1.3,0.8,2.1,1.5
								c0.9,0.9,1.5,1.9,1.4,2c-0.1,0.1-0.3-0.3-0.9-0.3c-0.3,0-0.3,0-0.6,0C301.1,256.4,300.6,256.2,300.6,256.2z"/>
							<path d="M295.4,253.1c-0.1,0.2-0.3,0.6-0.2,1c0,1,0.8,1.7,0.9,1.8c0.7,0.6,1.5,0.5,2,0.5c0.3,0,0.9,0,1.5-0.4
								c0.3-0.2,0.8-0.5,1-1.2c0.2-0.7-0.1-1.3-0.2-1.4c-0.6-0.1-1.3-0.2-1.9-0.3C297.3,253.1,296.3,253.1,295.4,253.1z"/>
						</g>
						<polyline class="st13" points="284.2,293.3 284.2,292.8 284.2,291.7 284.2,291.2 284.2,290.8 						"/>
						<path class="st6" d="M275.3,246.9c-0.9-2.7-4.8-5.2-6.5-4.2c-1.6,0.9-2.5,5.6-1.9,8.5c0.4,1.5,0.7,6,4.3,9.3
							c1.9,1.7,5.2,3.6,6.6,2.6c0.6-0.5,0.8-1.6-0.1-6.4C277,252.8,276.1,249.5,275.3,246.9z"/>
					</g>
					<path class="st9" d="M282.9,287.3c2,0.3,4.1,0.8,6.2,1.6c11.2,3.9,17.5,12.7,20.3,17.3c0,0.7-0.1,1.5-0.1,2.2
						c-3.2-3.2-8.4-7.7-15.9-11c-4.4-1.9-8.5-2.9-11.8-3.5C282.1,291.7,282.5,289.5,282.9,287.3z"/>
				</g>
				<path class="st7" d="M324.6,420.4c1,3.4,3.5,10.6,10.4,16.6c1.3,1.2,11.6,9.9,26.1,8.3c5.8-0.6,10.2-2.7,12.8-4.2
					c0.3-3.7,0.1-8.9-2.7-13.9c-6.3-11.7-22.3-15.5-34.1-12.8C331.3,415.7,327.1,418.4,324.6,420.4z"/>
				<path class="st6" d="M345.2,413.1c-1.2,2-2.5,4-3.7,6.1c-2.2,3.6-4.4,7.2-6.6,10.8c-2.4,2.1-4.8,4.4-7.2,6.9l0,0
					c-0.7,0.7-1.2,1.6-1.5,2.6c-0.8,2.6-1.5,5.4-2.2,8.4c-0.5,2.2-0.9,4.3-1.2,6.4c-0.3,1.6-0.1,3.2,0.4,4.7
					c1.3,3.8,2.5,7.5,3.8,11.3c0.5,0.7,1.4,0.9,2.2,0.7c0.9-0.3,1.5-1.2,1.4-2.1c-0.5-3-1-6-1.4-9.1c0.4-2.9,0.9-5.8,1.3-8.8
					c-0.2,3.1-0.4,6.2-0.6,9.3c1.4,2.7,2.7,5.4,4.1,8.1c0.2,0.2,0.8,0.8,1.8,1c0.2,0,1.5,0.2,2.2-0.7c0.4-0.5,0.3-1.1,0.3-1.3
					c-0.7-2.1-1.5-4.2-2.2-6.3c0.2-2.7,0.4-5.5,0.6-8.2c0.1,2.4,0.2,4.8,0.3,7.2c1.4,1.8,2.8,3.5,4.2,5.3c0.2,0,1.2,0.2,2.1-0.6
					c0.7-0.6,0.8-1.5,0.8-1.7c-0.9-1.6-1.7-3.1-2.6-4.7c0.3-2.8,0.6-5.7,1-8.5c0.2,2.7,0.4,5.3,0.6,8c0.9,1.2,1.7,2.4,2.6,3.6
					c0.7,0.6,1.6,0.8,2.3,0.4c1-0.4,1.5-1.7,1-2.9c-0.6-2.1-1.2-4.1-1.8-6.2c0.2-1.2,0.6-3.2,1.4-5.6c1.7-5.4,3.3-7.4,4.1-12
					c0.2-1.3,0.5-3.3,0.4-5.8c2.4-4.2,4.9-8.4,7.3-12.5C355.2,415.6,350.2,414.4,345.2,413.1z"/>
				<path class="st5" d="M352.3,290.5c7.3,11.5,14.5,23.6,21.8,36c10.3,17.9,19.8,35.3,28.5,52.2c-9.6,20.8-19.2,41.5-28.8,62.3
					c-4.2-4.2-11.5-10.4-22.1-15c-11.2-4.8-21.1-5.7-27.1-5.8c12.2-15.4,24.3-30.9,36.5-46.3c-5.4-5.7-10.8-11.4-16.3-17.1
					c-2.3-7.6-5.5-21.7-2.4-39C344.5,305.9,348.9,296.5,352.3,290.5z"/>
				<path class="st14" d="M303.9,458.5c-1.8-3.6-4.7-10.5-4.4-19.6c0.2-10,4.1-17.7,7.3-22.3c2.4-3.6,1.5-8.5-2.1-10.8
					c0,0-0.1,0-0.1-0.1c-3.4-2.2-6.8-2.1-7.9-2c1.4-5.6,3.2-13.5,4.7-22.9c3.6-21.3,4-37.8,4.4-51c0.3-10.8,0.2-24.6-0.8-40.8"/>
				<path class="st9" d="M324.6,420.4c5.9,0.1,14.7,1.1,24.6,4.9c12,4.6,20.1,11.4,24.7,15.9c1.8-3.9,3.6-7.9,5.5-11.8
					c-4.9-3.9-12.5-9.1-22.9-12.9c-9.9-3.7-18.6-4.8-24.7-5.1C329.3,414.3,327,417.3,324.6,420.4z"/>
				<g>
					<path class="st15" d="M316.7,297.8l-1.8,5.6c-0.2,0.6-0.8,1.1-1.5,1.1c-0.1,0-0.2,0-0.4,0c-0.6-0.1-1.2,0.1-1.6,0.6l-1.4,2
						c-0.5,0.8-1.6,0.9-2.3,0.2l-0.4-0.4c-0.5-0.5-0.6-1.1-0.3-1.7l1.9-4.1c0.2-0.4,0.2-0.9,0-1.3l-0.6-1.4
						c-0.2-0.6-0.8-0.9-1.5-0.9l-1.8,0.1c-0.5,0-1,0.3-1.2,0.7l-8.4,14c-0.2,0.3-0.5,0.6-0.9,0.7l-4.1,1.1c-0.4,0.1-0.7,0.4-0.9,0.7
						l-6.7,11.5c-0.6,1-1.9,1-2.6,0.1l-9.5-13.8c-0.4-0.6-0.3-1.3,0.1-1.8l7.5-8.9c0.1-0.1,0.2-0.3,0.2-0.4l8.1-19
						c1-2.3,2.8-4.1,5.1-5.1l11.1-4.7c0.8-0.3,1.7-0.4,2.5-0.3c3.5,0.5,5,1.1,8,3.2c1.1,2.1,2.2,4.3,3.3,6.4c0.2,0.4,0.2,0.9,0,1.3
						l-0.1,0.1c-0.5,1.1-1.9,1.2-2.6,0.3l-1.2-1.6l-0.6,1.2c-0.2,0.5-0.2,1.1,0.1,1.6l2.8,3.9c0.2,0.2,0.3,0.5,0.3,0.8l0.1,2.7
						l0,1.2c0,0.1,0,0.3,0.1,0.4l1.1,3.1C316.8,297.1,316.8,297.5,316.7,297.8z"/>
					<path class="st16" d="M312.4,282.4c-1.8-4.3-7.7-5.6-11.8-4.1c2.1-0.9,4.5-1.4,6.9-1c2.4,0.4,5.2,2.8,6.5,6.2
						c0,0-1.3-1.7-1.3-1.7L312.4,282.4z"/>
					<path class="st16" d="M315.5,293.3l0.5,1.5l-2.8-3.4l-8.6-3.8l9.3,2.7c0.1,0,0.2,0.1,0.3,0.2l1.4,1.5L315.5,293.3z"/>
					<path class="st17" d="M303.6,286.9c-1.9,1.1-4.6-0.2-5.4-2.3c-0.5-1.3-0.3-3,0.9-4c1.6-1.4,4.6-0.8,5.7,1.3
						C305.7,283.6,305.2,286,303.6,286.9z"/>
					<path d="M312.4,281.9c-0.1,0.7-0.3,1.3-0.4,2c-2.8,1-5.6,2-8.3,3c1.4-1.1,2-2.9,1.5-4.3c-0.6-1.9-3.2-3.2-5.6-2.3
						c2.4-0.9,4.7-1.9,7.1-2.8c0.6,0.1,2.1,0.3,3.6,1.4C311.6,280,312.2,281.3,312.4,281.9z"/>
					<path class="st5" d="M274.8,299.6c1.9,7.9,4.4,13.9,6.3,17.9c1.9,3.8,3.7,6.8,7.3,12.8c3.2,5.2,5.9,9.4,7.8,12.3
						c-6.3,6.8-18.7,20.2-36.1,38.6c-13.2,14-19.9,21-29.4,20.8c-7.1-0.1-16-4.2-20.2-12.6c-4.4-8.9-1-17.7-0.4-19.3
						c9.3-9.9,18.7-20,28-30.2C250.6,326.5,262.8,313,274.8,299.6z"/>
					<path class="st9" d="M266.8,308.5c3.4,7.8,7.5,16.2,12.6,25c3.3,5.7,6.6,11,9.9,15.8c2.3-2.2,4.6-4.4,7-6.7
						c-3.9-5.3-8.2-11.8-12.1-19.6c-4.4-8.7-7.3-16.7-9.3-23.5C272.1,302.6,269.5,305.6,266.8,308.5z"/>
				</g>
			</g>
			<path class="st14" d="M296.7,338.6c2.5,0.3,5.3,0.6,8.4,0.7c2.7,0.1,5.3,0.1,7.7-0.1"/>
			<path class="st14" d="M293.6,365.1c2.5,0.3,5.3,0.6,8.4,0.7c2.7,0.1,5.3,0.1,7.7-0.1"/>
			<path class="st14" d="M289.8,397.7c2.5,0.3,5.3,0.6,8.4,0.7c2.7,0.1,5.3,0.1,7.7-0.1"/>
		</g>
	</g>
	
		<linearGradient id="SVGID_00000103949863041848332930000011182171303554676895_" gradientUnits="userSpaceOnUse" x1="302.0088" y1="260.5979" x2="301.3333" y2="279.8108">
		<stop  offset="0.2179" style="stop-color:#969696;stop-opacity:0"/>
		<stop  offset="1" style="stop-color:#969696;stop-opacity:0.5"/>
	</linearGradient>
	<path style="fill:url(#SVGID_00000103949863041848332930000011182171303554676895_);" d="M301.4,278.7c7.1-3.7-1.2-6.6-2.5-10.9
		c-1.1-2.9,0.6-6.1,2.7-8c-2.5,3.1-3.5,6.8-0.5,10c1.2,1.5,2.9,2.7,3.6,4.6C305.5,276.6,303.2,278.2,301.4,278.7L301.4,278.7z"/>
	
		<linearGradient id="SVGID_00000127724548405802154620000015673630853479068829_" gradientUnits="userSpaceOnUse" x1="507.8055" y1="1161.0387" x2="507.1301" y2="1180.2516" gradientTransform="matrix(0.9554 -0.2953 0.2953 0.9554 -530.9809 -697.6445)">
		<stop  offset="0.2179" style="stop-color:#969696;stop-opacity:0"/>
		<stop  offset="1" style="stop-color:#969696;stop-opacity:0.5"/>
	</linearGradient>
	<path style="fill:url(#SVGID_00000127724548405802154620000015673630853479068829_);" d="M302.6,277.8c0-0.9-0.2-1.7-0.7-2.4
		c-0.5-0.7-1.2-1.1-1.9-1.6c-0.4-0.2-0.7-0.5-1.1-0.8c-0.3-0.3-0.5-0.8-0.6-1.2c-0.1-0.9,0.2-1.8,0.6-2.5c-0.3,0.8-0.5,1.7-0.3,2.5
		c0.1,0.4,0.3,0.8,0.6,1.1c0.3,0.3,0.6,0.5,1,0.7c0.7,0.4,1.5,0.9,2,1.7C302.6,276,302.7,276.9,302.6,277.8z"/>
	
		<linearGradient id="SVGID_00000027566836584305060840000003921352299251343509_" gradientUnits="userSpaceOnUse" x1="-76.4525" y1="-431.9482" x2="-77.128" y2="-412.7353" gradientTransform="matrix(0.9673 0.2535 -0.2535 0.9673 273.0314 697.7369)">
		<stop  offset="0.2179" style="stop-color:#969696;stop-opacity:0"/>
		<stop  offset="1" style="stop-color:#969696;stop-opacity:0.5"/>
	</linearGradient>
	<path style="fill:url(#SVGID_00000027566836584305060840000003921352299251343509_);" d="M304.8,277.1c0.4-0.7,0.7-1.6,0.7-2.4
		c0-0.8-0.4-1.6-0.8-2.3c-0.2-0.4-0.4-0.8-0.5-1.3c-0.1-0.4,0-0.9,0.1-1.3c0.4-0.8,1.1-1.4,1.8-1.8c-0.7,0.5-1.3,1.2-1.6,1.9
		c-0.1,0.4-0.2,0.8-0.1,1.2c0.1,0.4,0.3,0.8,0.5,1.2c0.4,0.8,0.8,1.6,0.8,2.5C305.7,275.6,305.3,276.5,304.8,277.1z"/>
</g>
</svg>
