<?xml version="1.0" encoding="utf-8"?>
<!-- Generator: Adobe Illustrator 26.0.1, SVG Export Plug-In . SVG Version: 6.00 Build 0)  -->
<svg version="1.1" id="Layer_1" xmlns="http://www.w3.org/2000/svg" xmlns:xlink="http://www.w3.org/1999/xlink" x="0px" y="0px"
	 viewBox="0 0 1000 1000" style="enable-background:new 0 0 1000 1000;" xml:space="preserve">
<style type="text/css">
	.st0{clip-path:url(#SVGID_00000028293565318222098480000008539396492903151551_);fill:#FFD7DC;}
	.st1{clip-path:url(#SVGID_00000028293565318222098480000008539396492903151551_);}
	.st2{fill:#F7B7C1;}
	.st3{fill:#FFFFFF;}
	.st4{fill:#D8989D;}
	.st5{fill:#FFD7DC;}
	.st6{clip-path:url(#SVGID_00000028293565318222098480000008539396492903151551_);fill:#F7B7C1;}
	.st7{fill:#415CA0;}
	.st8{fill:#345389;}
	.st9{fill:#EBC9AF;}
	.st10{fill:#E09C6E;}
	.st11{fill:#030202;}
	.st12{fill:#BBDAE6;}
	.st13{fill:#E8C3AA;}
	.st14{fill:#E0925C;}
	.st15{fill:#3D3D3D;}
	.st16{fill:#A34F2E;}
	.st17{fill:#7C3A25;}
	.st18{fill:#E80F2E;}
	.st19{fill:#1021B5;}
	.st20{fill:#4F4E4E;}
	.st21{fill:#3A3A3A;}
	.st22{fill:#BCA18C;}
	.st23{opacity:0.7;}
	.st24{fill:url(#SVGID_00000080922651748167173890000014142917078435275396_);}
	.st25{fill:#9C1C3E;}
	.st26{fill:#785136;}
	.st27{fill:url(#SVGID_00000114771433417510918200000005621966792862417552_);}
	.st28{fill:url(#SVGID_00000094607105460360773070000010984508937371573427_);}
	.st29{fill:url(#SVGID_00000178182834123078744910000002158077335532258703_);}
	.st30{fill:url(#SVGID_00000030483690806992363190000009393787875146247572_);}
	.st31{fill:#FFD280;}
	.st32{fill:#84030A;}
	.st33{fill:#F8AE38;}
	.st34{fill:#F7B89F;}
	.st35{fill:#D19182;}
	.st36{fill:#726562;}
	.st37{fill:#CCA279;}
	.st38{fill:#3F3F3F;}
	.st39{fill:#910209;}
	.st40{fill:#515151;}
	.st41{fill:#9F0102;}
	.st42{fill:none;stroke:#F8AE38;stroke-width:1.9339;stroke-miterlimit:10;}
	.st43{fill:#FAD4AF;}
	.st44{fill:none;}
	.st45{fill:#191513;}
	.st46{fill:#E09D6C;}
	.st47{fill:#847977;}
	.st48{fill:#EFB78E;}
</style>
<g>
	<g>
		<g>
			<defs>
				<path id="SVGID_1_" d="M172.9,694.3c-42.8-53.9-44.8-100-44.2-118.7c2.8-79.4,69.8-135.6,112.4-171.3
					c65.8-55.2,84.4-37.9,123.4-85.2c48.7-59,34-103,83.8-136.7c2.5-1.7,54.7-35.9,107.3-19.1c52.7,16.8,46.6,66,109.7,101.7
					c51.8,29.3,73.4,4.9,106,33.3c45.6,39.6,33.1,116.6,48.9,177.5c14.8,57.3,57.9,108.7,50.2,167.6c-6,45.4-42.4,80.6-82.4,95.6
					s-83.5,13.9-125.8,12.5c-95.7-3.1-192.4-9.1-287.6-5.3C312.8,748.8,215.9,756.4,172.9,694.3z"/>
			</defs>
			<clipPath id="SVGID_00000074436797302913468260000000737300994025393569_">
				<use xlink:href="#SVGID_1_"  style="overflow:visible;"/>
			</clipPath>
			<path style="clip-path:url(#SVGID_00000074436797302913468260000000737300994025393569_);fill:#FFD7DC;" d="M870.4,643.4
				c-6,45.4-42.4,80.6-82.4,95.6c-40,15.1-83.5,13.9-125.8,12.5c-95.7-3.1-192.4-9.1-287.6-5.3c-53.1,2.1-131.9,8-180.4-29.5
				c-8-6.2-15.2-13.6-21.3-22.5c-42.8-53.9-44.8-100-44.2-118.7c1.9-53.2,32.6-96,65.5-129.2c16.2-16.3,32.9-30.3,46.9-42.1
				c65.8-55.2,84.4-37.9,123.4-85.2c48.7-59,34-103,83.8-136.7c2.5-1.7,54.7-35.9,107.3-19.1c52.7,16.8,46.6,66,109.7,101.7
				c51.8,29.3,73.4,4.9,106,33.3c45.6,39.6,33.1,116.6,48.9,177.5C835.1,533.1,878.2,584.5,870.4,643.4z"/>
			<g style="clip-path:url(#SVGID_00000074436797302913468260000000737300994025393569_);">
				<path class="st2" d="M221.3,756.9c-5.7-12.2-14-34.1-14.9-62.5c-0.9-28.6,6.1-51,11.1-63.6c8.7,10.5,20.9,27.9,29.2,51.9
					c9.8,28.3,9.8,53,8.7,67.5C244,752.5,232.7,754.7,221.3,756.9z"/>
				<path class="st3" d="M237.8,753.8c-4.7-9.4-7.2-19.7-9.4-29.9c-6.3-30.7-9.1-61.9-11-93.1c2.1,31.2,5.2,62.4,11.8,93
					c2.3,10.1,4.9,20.3,9.6,29.5C238.8,753.3,237.8,753.8,237.8,753.8L237.8,753.8z"/>
			</g>
			<g style="clip-path:url(#SVGID_00000074436797302913468260000000737300994025393569_);">
				<path class="st4" d="M274.1,750.6c3.9-19.1,8.9-52.8,5.7-94.6c-3.3-42-13.5-73.3-20.2-90.6c-7.1,17.3-16.6,45.2-21.3,82.2
					c-5.6,43.5-2,79.6,1.3,100.6C251,749,262.6,749.8,274.1,750.6z"/>
				<path class="st3" d="M256.2,749.3c3.4-14.9,4.4-30.3,5.2-45.6c2-46,0.6-92.2-1.8-138.2c3,53.7,5.7,107.6,1.4,161.3
					c-0.7,7.7-1.7,15.3-3.4,22.9L256.2,749.3L256.2,749.3z"/>
			</g>
			<g style="clip-path:url(#SVGID_00000074436797302913468260000000737300994025393569_);">
				<path class="st5" d="M294.8,750.6c2.3-11.1,5.2-30.7,3.3-55c-1.9-24.4-7.8-42.6-11.8-52.7c-4.1,10.1-9.7,26.3-12.4,47.8
					c-3.2,25.3-1.1,46.3,0.7,58.5C281.4,749.7,288.1,750.2,294.8,750.6z"/>
				<path class="st3" d="M284.3,749.9c1.4-6.3,2.2-13.4,2.6-19.9c1.8-29,0.8-58.1-0.7-87c1.7,29,2.9,58.1,1.3,87.1
					c-0.4,6.5-1.2,13.6-2.5,20C285.1,750,284.3,749.9,284.3,749.9L284.3,749.9z"/>
			</g>
			<path style="clip-path:url(#SVGID_00000074436797302913468260000000737300994025393569_);fill:#F7B7C1;" d="M194.2,446.4v270.3
				c-8-6.2-15.2-13.6-21.3-22.5c-42.8-53.9-44.8-100-44.2-118.7C130.6,522.4,161.4,479.6,194.2,446.4z"/>
			<g style="clip-path:url(#SVGID_00000074436797302913468260000000737300994025393569_);">
				<g>
					<g>
						<g>
							<path class="st7" d="M682,554.8c-1,11.2-4.5,19.8-7.1,24.9c0,6.9,0,13.7,0.1,20.6c-11.9-0.2-24.3-0.1-37.2,0.4
								c-13.9,0.5-27.2,1.3-39.8,2.4c0.1-2.3,0.1-4.6,0.1-6.9c0-2.2,0-4.4,0-6.6c-6.3-0.2-12.7-0.4-19-0.6c-1.5,0-2.8-0.8-3.7-1.8
								c-0.7-0.8-1.1-1.8-1.1-2.9c0-0.4-0.1-1,0-1.5c0.8-10.7,2.4-19.6,3.8-26.5c0,0,3.2-16.6,10.2-28.8c1-1.7,1.7-3,3.1-3.8
								c5.7-3.2,10.9-5.6,15.2-7.4c0,0,6.5-2.9,16-5.7c1-0.3,1.9-0.5,2.8-0.8c1.8-0.5,4.4-1.2,7.7-1.4c4.4-0.2,7.7,0.6,14.2,2.6
								c0.2,0.1,0.3,0.1,0.5,0.1c0,0,0,0,0,0c0.7,0.2,1.1,0.3,1.1,0.3c4.7,1.5,11.4,4.7,11.4,4.7c2,0.8,4.1,1.8,6.2,3
								c4.9,2.7,8.8,5.6,12,8.4c0.2,0.1,0.3,0.3,0.3,0.5C680.7,533.6,683,543.1,682,554.8z"/>
							<path class="st8" d="M629.6,534.5c1.2-1.3,3.1-3.2,5.9-4.8c3.4-1.9,6.5-2.4,8.4-2.6c-1.5,2.3-3.1,4.6-4.6,6.9
								C636.1,534.2,632.9,534.4,629.6,534.5z"/>
							<path class="st8" d="M603.7,547.7c-1.6,8.4-3.2,16.9-4.8,25.3c1.5,0.5,2.9,1,4.4,1.5C603.4,565.5,603.5,556.6,603.7,547.7z"
								/>
							<path class="st8" d="M659.1,585.2c-13,2.3-27.8,4.2-44.2,4.9c-12.4,0.5-23.9,0.3-34.3-0.4c-1.6-0.2-2.7-0.7-3.4-1.1
								c-0.7-0.4-1.3-0.7-1.9-1.4c-0.7-0.8-1.1-1.8-1.1-2.9c11.6,1.9,25.7,3.3,41.7,3c12.4-0.3,23.6-1.6,33.1-3.3
								c-0.7-1-1.5-2.2-2.3-3.5c-0.8-1.4-1.5-2.8-2-4c-6.9,0.4-14.5,0.4-22.7,0c-6.8-0.4-13-1-18.8-1.9c-1.4-1.2-2.7-2.5-4.1-3.7
								c9.5,1.3,20,2.3,31.3,2.7c7.8,0.3,15.3,0.2,22.3-0.1c0.7,1.1,1.3,2.2,2,3.3C656.5,579.6,657.9,582.4,659.1,585.2z"/>
							<path class="st9" d="M647.3,511.3c-2.5,1.6-6.1,4.3-9.4,8.6c-3,3.9-4.7,7.7-5.6,10.4c-0.3-2.4-1-5.9-2.8-9.8
								c-2.2-4.5-5-7.6-6.9-9.3c0-0.1,0-0.2,0-0.3c1-0.3,1.9-0.6,2.8-0.9c1.8-0.7,4.5-1.4,7.8-1.7
								C637.5,508.1,640.7,509,647.3,511.3z"/>
							<g>
								<path class="st9" d="M646.2,498.6v20.5c-7.9,0-15.9,0-23.8-0.1v-20.4H646.2z"/>
							</g>
							<g>
								<path class="st10" d="M646.2,498.6v9.4c-1.9,1.5-6.1,4-12.1,4c-5.6,0-9.7-2.3-11.7-3.8v-9.7H646.2z"/>
							</g>
							<g>
								<path class="st9" d="M651.7,480.5c0.4-2.8,1.4-4.8,2.1-6.1c1.1-1.9,2.8-4.8,5.3-4.8c0.1,0,1.3,0,2.2,0.8
									c1.7,1.6,0.7,5-0.9,10.7c0,0-0.6,2.3-2.6,5.7c-0.5,0.9-1.1,1.8-2.1,2.2c-0.1,0-1.4,0.5-2.6,0c-1.5-0.7-2.4-2.6-2-4.7
									C651.3,483,651.5,481.8,651.7,480.5z"/>
								<path class="st9" d="M613,486.9c0,0-0.2,0.4-0.4,0.8c-0.1,0.2-0.3,0.4-0.4,0.6c-0.1,0.1-0.1,0.1-0.2,0.2
									c-0.2,0.2-0.4,0.3-0.7,0.5c0,0,0,0,0,0c-0.2,0.1-0.4,0.1-0.5,0.2c-0.1,0-0.2,0-0.3,0c-0.2,0-0.5,0-0.8-0.1
									c0,0-0.1,0-0.1-0.1c-0.1,0-0.2-0.1-0.4-0.2c-0.4-0.2-0.9-0.5-1.4-1c-0.2-0.1-0.4-0.4-0.7-0.7c-0.7-0.9-1.8-2.6-2.5-6.2
									c-1-4.8-0.6-6.8-0.3-7.4c0.3-0.7,0.8-1.8,1.8-2.1c1.4-0.4,3.4,1.2,4.9,4.1c0.2,1.3,0.5,2.5,0.7,3.8c0.1,0.8,0.3,1.5,0.4,2.3
									c0.1,0.3,0.1,0.7,0.2,1c0.1,0.7,0.3,1.4,0.4,2.1C612.8,485.4,612.9,486.1,613,486.9z"/>
								<path class="st10" d="M613,486.9c0,0-0.2,0.4-0.4,0.8c-0.1,0.2-0.3,0.4-0.4,0.6c-0.1,0.1-0.1,0.1-0.2,0.2
									c-0.2,0.2-0.4,0.4-0.7,0.5c0,0,0,0,0,0c-0.2,0.1-0.3,0.2-0.5,0.2c-0.1,0-0.2,0-0.3,0c-0.2,0-0.5,0-0.8-0.1
									c0.1-0.3,0.2-0.6,0.3-0.9c1.1-3.7,1-7.4,0.3-10.4c0.9,2,1.8,4.3,2.4,7C612.8,485.4,612.9,486.1,613,486.9z"/>
								<path class="st10" d="M652.2,486.9c0.1,0.2,1,2.1,2.6,2.3c0,0,0.2,0,0.3,0c0,0,0.1,0,0.2,0c0.1,0,0.3-0.1,0.5-0.2
									c0.1,0,0.2-0.1,0.4-0.2c-0.3-1,0.1-2.8-0.8-5.1c0,0-0.7-1.8-1.8-2.1c-0.1,0-0.2,0-0.3,0
									C652.9,483.4,652.6,485.1,652.2,486.9z"/>
								<path class="st9" d="M610.2,457.6c-1.6,13.2-1.2,16.4-0.5,23.8c0,0.5,0.1,1,0.1,1.1c0,0,0,0,0,0.1
									c1.2,9.6,6.2,17.1,6.2,17.1c2.1,3.1,3.7,5.6,7.1,7.7c1.6,1,5.9,3.4,11,3.1c0,0,12.7-0.7,20.6-20.7c1.5-3.8,1.8-9.2,1.8-9.3
									c0-0.2,0-0.4,0-0.5c0,0,0-0.1,0-0.1c-0.3-6.9-0.4-9.7-0.6-23.3c-2.6-2-10.4-7.2-21.6-7.4
									C621.4,449.1,612.6,455.7,610.2,457.6z"/>
								<g>
									<path class="st11" d="M657.2,475.8c-0.2,0-0.4,0.1-0.7,0.1c-0.2,0-0.4,0-0.6,0l0,0c-1-0.1-1.6-0.5-2-0.7c0,0-1.9-1.2-3-1.8
										c-0.6-0.3-1.3-0.6-1.9-0.7c-2-0.6-3.7-0.5-4.4-0.5c-0.3,0-0.8,0.1-1.4,0.1l0,0c-0.9,0.1-2,0.4-3.3,1
										c-1.2,0.5-2.1,1.1-2.7,1.6c-0.3,0.3-0.8,0.4-1.2,0.3c-0.4-0.1-0.6-0.5-0.7-0.7c-0.1-0.1-0.2-0.2-0.3-0.2l-4.9-0.1
										c-0.1,0-0.3,0.1-0.3,0.2c-0.1,0.2-0.3,0.5-0.8,0.6c-0.4,0.1-0.9,0-1.2-0.3c-0.6-0.5-1.5-1.1-2.6-1.7c-1-0.5-1.9-0.8-2.7-1
										l0,0c-0.8-0.2-1.5-0.3-1.9-0.3c-0.4,0-1.1-0.1-2.1,0c-1.2,0.1-2.7,0.3-4.2,1c-1.1,0.6-3.1,1.7-3.1,1.7
										c-0.2,0.1-0.4,0.2-0.6,0.3c-0.2,0.1-0.5,0.2-0.8,0.2c-0.2,0-0.4,0.1-0.6,0.1c-0.2,0-0.5,0-0.6,0c-0.3,0-0.5-0.1-0.7-0.1
										c0,0.2,0,0.3,0,0.5l0,0c-0.1,0.8-0.1,1.6-0.2,2.4c0.3,0,0.7,0,1.1,0.1c0.1,0,0.2,0.1,0.3,0.1c0.2,0.1,0.3,0.1,0.4,0.3
										c0.2,0.3,0.2,0.6,0.2,0.7c0,0.2,0,0.4,0.1,0.7c0.1,0.8,0.3,1.7,0.6,2.7c0,0,0,0,0,0c0.2,0.7,0.6,1.5,1,2.3
										c0.3,0.6,0.7,1.2,1.2,1.9c0.5,0.6,1.1,1.2,1.9,1.8c2.8,1.9,5.7,1.7,6.5,1.6c0.7-0.1,3.2-0.4,5.3-2.3
										c1.6-1.4,2.2-3.1,2.7-4.5c0.7-1.9,0.9-3.5,1-4.7c0-0.1,0-0.1,0-0.2c-0.1-0.3-0.5-1.1-0.1-1.7c0.3-0.4,0.7-0.5,1.2-0.7
										c0.5-0.1,2.8-0.1,3.3,0.1c0.5,0.2,0.9,0.3,1.2,0.7c0.4,0.6,0,1.5-0.1,1.7c0,0.1,0,0.1,0,0.2c0,1.1,0.2,2.8,0.8,4.7
										c0.5,1.5,1.1,3.1,2.6,4.6c2,2,4.4,2.4,5.2,2.5c0.8,0.1,3.8,0.4,6.6-1.4c1.7-1.1,2.6-2.5,3.2-3.6c1.4-2.3,1.7-4.4,1.9-5.7
										c0-0.1,0-0.5,0.2-0.7c0.1-0.1,0.2-0.2,0.4-0.2c0,0,0.1,0,0.2,0c0.2,0,0.3-0.1,0.5-0.1c0.3,0,0.5,0,0.8,0
										C657.3,477.8,657.3,476.8,657.2,475.8z M628,480.6c-0.2,2.9-1.8,4.8-2.3,5.4c-0.6,0.6-1.6,1.9-3.4,2.5
										c-3.6,1.3-6.8-0.7-7.2-0.9c-0.4-0.3-2.1-1.4-3.2-3.5c-0.3-0.7-0.6-1.4-0.8-2.3c-0.1-0.8-0.1-1.6,0-2.3
										c0.1-1,0.4-1.7,0.5-2.2c0.2-0.5,1-2.4,3-3.5c1.2-0.7,2.3-0.9,3.6-0.9c0.5,0,1,0,1.5,0l0.1,0c1.5,0.1,3.3,0.1,5.2,1.4
										c0.6,0.4,1.7,1.1,2.4,2.4C628.1,478.3,628,479.7,628,480.6z M653.6,482.5c-0.7,3.6-3.5,5.3-4.1,5.6
										c-0.4,0.2-3.7,2.1-7.3,0.7c-1.8-0.7-2.8-2-3.3-2.6c-0.5-0.6-2.1-2.6-2.2-5.5c0-0.9-0.1-2.3,0.8-3.8c0.8-1.3,1.8-2,2.4-2.3
										c2-1.2,3.9-1.2,5.3-1.2c0.4,0,0.9,0,1.3,0l0,0c0.9,0,1.7,0.1,2.5,0.4c0.4,0.1,0.8,0.3,1.3,0.6c1.9,1.2,2.7,3,2.9,3.6
										C653.5,478.8,654,480.5,653.6,482.5z"/>
								</g>
								<path class="st10" d="M624.7,499.2c0-0.2,2.4-0.2,7.3-0.2c5.2,0,7.7,0,7.7,0.2c0,0.3-3.7,1.2-7.7,1.2
									C628.2,500.3,624.7,499.5,624.7,499.2z"/>
							</g>
							<path class="st12" d="M646.2,510.2c-1.1,1.4-2.3,2.9-3.6,4.3c-1.8,2-3.5,3.9-5.3,5.7c3.4,1.5,6.9,2.9,10.3,4.4
								c0.7-4.3,1.6-8.8,2.3-13.2C648.7,511.1,647.5,510.6,646.2,510.2z"/>
							<path class="st12" d="M622.5,510.4c-1.7,0.5-3.4,1.1-5.1,1.6c0.6,2.8,1.1,5.7,1.7,8.4c0.5,2.3,1,4.5,1.5,6.8
								c3.3-2.3,6.6-4.5,9.9-6.8c-1.3-1.1-2.8-2.5-4.3-4.3C624.5,514.1,623.4,512,622.5,510.4z"/>
							<g>
								<g>
									<path class="st13" d="M639.8,527.1c-0.2-0.5-0.4-0.9-0.5-1.1c0-0.1-0.1-0.1-0.1-0.2c0,0,0,0,0,0c0,0,0.2-0.4,0.3-0.6
										c0.1-0.1,0.1-0.2,0.2-0.3c0.8-1.5,1.6-3.1,1.5-4.9V520l0-0.2c0-0.6,0-1.1,0-1.7c0,0,0,0,0,0c0.1-1.6,0.5-3.2,1.7-4.3
										c0.1-0.1,0.3-0.3,0.4-0.4c0.5-0.5,1.1-0.9,1.1-1.6c0-0.6-0.7-1.1-1.3-1.1c-0.6,0-1.2,0.2-1.8,0.7c-2.1,1.5-3.3,3.4-3.3,5.4
										c0,0.1-0.1,0.1-0.1,0.1c-0.1,0-0.1,0-0.2-0.1c-0.6-2.2-1.4-4.6-2.9-6.5c-1.5-1.7-4.1-2.9-6.3-1.9c-0.2,0.1-0.3,0.2-0.5,0.3
										c-0.4,0.3-0.7,0.7-0.7,1.1c0,0.2,0.1,0.4,0.2,0.5c0,0,0,0,0,0c0,0,0,0.1,0,0.1c0,0.1,0,0.1,0,0.2c0,0.2-0.1,0.3-0.2,0.4
										c0,0-0.1,0.1-0.1,0.1c-0.1,0.1-0.1,0.1-0.2,0.1c-0.3,0.1-0.6,0.1-1,0.2c-0.4,0.1-1.1,0.4-1.3,0.9c0,0.1,0,0.2-0.1,0.3
										c0,0.1,0,0.2,0.1,0.4v0c0,0.1,0,0.1,0,0.1c0,0.3-0.2,0.5-0.4,0.6c0,0-0.1,0-0.1,0h0c0,0,0,0,0,0c-0.9,0-1.2,0.1-1.7,0.4
										c-0.3,0.1-1.6,1-1.6,2c0,0.1,0,0.2,0.1,0.3c0,0,0,0,0,0c0,0,0,0.1,0,0.1c0,0.2,0,0.3-0.1,0.5c0,0-0.1,0.1-0.1,0.1
										c0,0,0,0,0,0c0,0,0,0-0.1,0c-0.3,0.2-0.5,0.6-0.6,0.9c-0.3,0.8,0.2,1.6,0.8,2.1c0.1,0.1,0.2,0.2,0.3,0.3
										c0.6,0.5,1.3,1.1,2,1.2c0,0,0.1,0.1,0.1,0.1c0.8,2.8,2.9,5.2,4.8,7.5c0.3,0.3,0.5,0.6,0.8,0.8c0.2,0.2,0.4,0.4,0.6,0.6
										c0.2,0.2,0.4,0.3,0.4,0.4c0.3,0.3,0.9,0.9,2.2,2.4c1.1-0.1,2.7-0.5,4.5-1.4c2-1.1,3.4-2.5,4.1-3.3
										C640.3,528.2,640,527.6,639.8,527.1z"/>
									<path class="st10" d="M632.7,534.8l1.2,3.2l1.5,4.1l8.1-7.7c-0.4-0.5-0.9-1.1-1.2-1.8c-0.1-0.3-0.2-0.6-0.4-1.1
										c0,0,0,0,0,0c-0.1-0.2-0.3-0.4-0.4-0.7c-0.2-0.4-0.6-1.3-1-2.1c-0.9,0.8-1.9,1.6-3.3,2.4c-2,1.2-3.8,1.9-5.3,2.3
										C632.2,533.9,632.5,534.3,632.7,534.8z"/>
								</g>
								<g>
									<path class="st10" d="M627.3,511.1c1.5-0.5,3.1-0.2,4.6,0.2c-1.5-0.4-3.1-1.1-4.4-0.9C627.7,510.7,627.6,511,627.3,511.1z"
										/>
								</g>
								<g>
									<path class="st10" d="M624.3,513.8c0.7,0,1.7,0,2.8,0.2c1,0.1,1.7,0.3,1.7,0.3c0,0-0.7-0.3-4-1.2
										C625,513.3,624.7,513.8,624.3,513.8z"/>
								</g>
								<g>
									<path class="st10" d="M620.9,517c0.6,0,1.4,0,2.2,0c1.1,0.1,2,0.3,2.7,0.5c-0.6-0.3-1.4-0.7-2.4-0.9
										c-1-0.2-1.8-0.3-2.4-0.3c0,0.1,0.1,0.2,0,0.4C621,516.9,620.9,517,620.9,517z"/>
								</g>
							</g>
							<path class="st8" d="M629.6,534.5c1.7-0.2,4.3-0.6,7.1-1.9c3.6-1.7,6-4,7.3-5.5c6.4,11.1,12.9,22.2,19.3,33.3
								c0.1-6.5,0.2-13,0.3-19.4c0.5,7.3,0.9,14.5,1.4,21.8c3,4.5,6.1,9,9.1,13.5c3.1-5.8,4.7-11,5.6-14.7c0,0,4.1-17.2-0.8-33.7
								c0-0.1-0.1-0.2,0-0.1c0.7,2,1.4,4.3,2,7c1.1,5,1.6,11.1,1.6,12.2c0.1,1.3,0.4,5.8,0.3,10.4c-0.1,9.3-0.5,32.6-10.8,36.4
								c-2,0.8-3.9,0.5-4.7,0.4C650.7,591.9,632.5,542.5,629.6,534.5z"/>
						</g>
						<g>
							<g>
								<path d="M649.2,479.9c0-0.1-0.6-0.7-1.3-1.1c-0.6-0.3-1.1-0.5-1.5-0.6c-0.9-0.1-1.6-0.2-2.2-0.2c-1.6-0.1-2.1,0.1-2.3,0.2
									c-0.8,0.2-1.3,0.6-1.5,0.7c-0.5,0.4-0.8,0.8-1,1.1c0.4-0.1,0.8-0.2,1.2-0.3c0.3,0.2,0.8,0.4,1.4,0.5c0.4,0.1,0.7,0.1,0.9,0
									c-0.5-0.2-1.1-0.4-1.6-0.6c0.4-0.3,0.8-0.6,1.2-0.9c0.4-0.1,0.9-0.2,1.5-0.2c0.9-0.1,1.6,0,2.2,0.2c0.4,0.1,0.9,0.3,1.5,0.6
									C648.7,479.6,649.2,479.9,649.2,479.9z"/>
								<path d="M645.4,478.3c0.1,0.1,0.2,0.3,0.2,0.5c0.1,0.6-0.2,1-0.3,1.1c-0.4,0.5-1.3,0.6-1.8,0.3c-0.1-0.1-0.6-0.3-0.8-0.8
									c-0.2-0.5,0.1-0.9,0.1-1C643.7,478.3,644.6,478.3,645.4,478.3z"/>
							</g>
							<path d="M625.7,471c0.1,0.3,0.2,0.7-0.1,1.3c-1.2-0.2-3-0.6-5.2-0.8c-3.6-0.4-6-0.2-6-0.5c0-0.2,2.8-0.6,4.6-0.7
								C622.4,470,625.1,469.8,625.7,471z"/>
							<g>
								<path d="M615.8,479.6c0-0.1,0.6-0.6,1.4-1.1c0.6-0.3,1.1-0.5,1.5-0.6c0.9-0.1,1.6-0.1,2.2-0.1c1.6,0,2.1,0.1,2.3,0.2
									c0.8,0.3,1.3,0.7,1.4,0.8c0.5,0.4,0.8,0.8,0.9,1.1c-0.4-0.1-0.8-0.2-1.2-0.4c-0.3,0.2-0.8,0.4-1.4,0.5c-0.4,0-0.7,0-0.9,0
									c0.5-0.2,1.1-0.4,1.6-0.6c-0.4-0.3-0.8-0.6-1.2-0.9c-0.4-0.1-0.9-0.2-1.5-0.3c-0.9-0.1-1.6,0-2.2,0.1
									c-0.4,0.1-0.9,0.3-1.6,0.6C616.3,479.3,615.9,479.6,615.8,479.6z"/>
								<path d="M618.9,478.2c-0.1,0.1-0.2,0.3-0.2,0.5c-0.1,0.6,0.2,1,0.3,1.1c0.4,0.5,1.3,0.6,1.8,0.3c0.1-0.1,0.6-0.3,0.8-0.8
									c0.2-0.5,0-0.9-0.1-1C620.6,478.2,619.8,478.2,618.9,478.2z"/>
							</g>
							<path d="M639.3,471c-0.1,0.3-0.2,0.7,0.1,1.3c1.2-0.2,3-0.6,5.2-0.8c3.6-0.4,6-0.2,6-0.5c0-0.2-2.8-0.6-4.6-0.7
								C642.6,470,639.9,469.8,639.3,471z"/>
							<path d="M632.6,456.3c-2.9-0.3-5.4-0.8-7.5-1.5c-1,0.8-2.1,1.7-3.2,3c-3.1,3.7-4,7.8-4.3,10c-0.1-3.1,0.3-5.4,0.6-6.6
								c0.3-1.3,0.7-2.4,1.1-3.3c-0.7,1-1.5,2.3-2.1,4.1c-0.8,2.2-0.9,4.2-0.9,5.5c-0.4-0.8-0.8-1.9-0.9-3.4c-0.1-1,0-1.8,0.1-2.5
								c-1.3,2.1-2.8,4.9-3.8,8.3c-2.3,7.4-1.5,13.9-0.8,17.4c-0.8-1.2-1.6-2.8-2.4-4.9c-0.6-1.7-0.9-3.3-1-4.5
								c-0.1,0.8-0.2,1.9,0,3.4c0.2,1.4,0.7,2.4,1,3.1c-0.6-0.7-1.5-1.9-2.1-3.7c-0.7-2.2-0.6-4-0.5-5c-0.3,1-0.5,2.5-0.3,4.3
								c0.2,1.4,0.5,2.5,0.5,2.5c-0.1,0-1.8-4.4-2.5-6.8c-2-6.9-1.9-17.5,3.3-26.4c8.5-14.7,24.6-15.2,26.3-15.2
								c8.9-0.1,15.6,4,18.3,6c0.3,0.4,0.6,1,0.9,1.8c0.4,1.5,0,2.8-0.1,3.3c1-0.1,2.4-0.1,3.9,0.5c3.1,1.4,5.1,5.1,5.4,9.5
								c-0.1-0.9-0.4-2.1-1.2-3.4c-1.3-2.4-3.2-3.5-4.1-3.9c0.9,1,2.2,2.5,3.3,4.6c3.2,6,2.7,12,2.2,17.4c-0.3,4-0.6,7.4-2.6,11.2
								c-1.4,2.7-3.1,4.5-4.2,5.6c0.4-0.6,0.8-1.6,1.1-2.8c0.3-1.4,0.3-2.7,0.2-3.4c0,1.2-0.1,3.1-1.3,4.8c-0.2,0.3-0.3,0.5-0.5,0.7
								c0.5-2.1,0.7-3.9,0.8-5.3c0.2-3,0.6-8.6-2-13.6c-0.8-1.5-1.4-2.2-1.9-3.2c-0.2-0.5-0.3-1-0.4-1.3c-0.6-2.5-1.3-6.7-1.5-8
								C645.6,455.6,639.7,457,632.6,456.3z"/>
						</g>
						<g>
							<path class="st14" d="M629.9,492.6c1.7,0,2.4-0.1,4.1-0.1C633.3,494.1,630.7,494.1,629.9,492.6L629.9,492.6z"/>
						</g>
					</g>
				</g>
				<g>
					
						<rect x="385.6" y="682.5" transform="matrix(-1.836970e-16 1 -1 -1.836970e-16 1166.875 210.2047)" class="st15" width="185.6" height="12.1"/>
					
						<rect x="569.5" y="510.2" transform="matrix(-1.836970e-16 1 -1 -1.836970e-16 1321.8929 26.211)" class="st16" width="156.6" height="327.8"/>
					
						<rect x="725" y="682.5" transform="matrix(-1.836970e-16 1 -1 -1.836970e-16 1506.3082 -129.2286)" class="st15" width="185.6" height="12.1"/>
				</g>
				<rect x="425" y="591.3" class="st17" width="447.7" height="17"/>
				<g>
					<path class="st3" d="M828.2,590.8c0.7-1.2,1.4-3.1,1.4-5.5c-0.1-2.2-0.8-3.9-1.4-5h56.3c0.8,1.5,1.2,3.1,1.3,4.7
						c0.1,2.5-0.6,4.5-1.3,5.8H828.2z"/>
					<path class="st18" d="M884.2,580.8c0.7,1.3,1.1,2.8,1.1,4.2c0.1,2.2-0.5,4.1-1.1,5.3H829c0.6-1.3,1.1-3,1.1-5.1
						c0-1.8-0.5-3.3-1.1-4.5H884.2 M884.8,579.8c-19.2,0-38.4,0-57.5,0c0.5,0.8,1.7,2.7,1.8,5.5c0.1,3.1-1.3,5.3-1.8,6h57.5
						c0.5-0.9,1.7-3.3,1.5-6.4C886.2,582.5,885.3,580.7,884.8,579.8L884.8,579.8z"/>
				</g>
				<g>
					<path class="st3" d="M831.8,579.3c0.7-1.2,1.4-3.1,1.4-5.5c-0.1-2.2-0.8-3.9-1.4-5h56.3c0.8,1.5,1.2,3.1,1.3,4.7
						c0.1,2.5-0.6,4.5-1.3,5.8H831.8z"/>
					<path class="st19" d="M887.9,569.2c0.7,1.3,1.1,2.8,1.1,4.2c0.1,2.2-0.5,4.1-1.1,5.3h-55.2c0.6-1.3,1.1-3,1.1-5.1
						c0-1.8-0.5-3.3-1.1-4.5H887.9 M888.5,568.2c-19.2,0-38.4,0-57.5,0c0.5,0.8,1.7,2.7,1.8,5.5c0.1,3.1-1.3,5.3-1.8,6h57.5
						c0.5-0.9,1.7-3.3,1.5-6.4C889.9,570.9,889,569.1,888.5,568.2L888.5,568.2z"/>
				</g>
				<rect x="723" y="534.7" class="st20" width="96.8" height="50.8"/>
				<polygon class="st21" points="819.7,591.3 722.9,591.3 722.9,585.6 819.8,585.6 				"/>
				<polygon class="st21" points="723,591.3 713.9,591.3 713.9,586.6 723,585.6 				"/>
				<path class="st22" d="M434,247.6"/>
				<g class="st23">
					
						<linearGradient id="SVGID_00000029766995303508088240000007825092582054023859_" gradientUnits="userSpaceOnUse" x1="514.9534" y1="453.8811" x2="534.2209" y2="453.8811">
						<stop  offset="0" style="stop-color:#FA564D"/>
						<stop  offset="0.2142" style="stop-color:#F5534C"/>
						<stop  offset="0.4624" style="stop-color:#E74948"/>
						<stop  offset="0.7274" style="stop-color:#D03843"/>
						<stop  offset="1" style="stop-color:#B0213B"/>
					</linearGradient>
					<path style="fill:url(#SVGID_00000029766995303508088240000007825092582054023859_);" d="M533.9,485.3
						c-5.5,0.8-11.5,0.7-16.9-0.7c-2-15.2-2.6-30.5-1.7-45.8c0.3-4.9,0.7-9.8,1.3-14.6c0,0,0-0.1,0-0.1c4.2-2,8.6-2.7,13.2-2.1
						c2.3,11.4,3.5,23.4,4,35.3C534.3,466.8,534.3,476.2,533.9,485.3z"/>
					<path class="st25" d="M533.9,457.4c-0.6,6.8-1.7,13.5-3.3,20.2c-1.4-14.4-2.8-28.8-4.2-43.2c-0.5,15.8-1,31.6-1.5,47.4
						c-3.1-16.2-5.1-32.8-4.6-49.2c-1.4,2.4-3.2,4.2-5,6.2c0.3-4.9,0.7-9.8,1.3-14.6c0,0,0-0.1,0-0.1c4.2-2,8.6-2.7,13.2-2.1
						C532.3,433.5,533.5,445.5,533.9,457.4z"/>
					<path class="st26" d="M524.3,374c0.4,0.5,0.8,1.1,0.9,1.4c0.3,1.3-0.2,3.1-0.2,4.5c0.1,3.5,0.2,7,0.3,10.5
						c0.2,7.2,0.4,14.5,0.6,21.7c0,0.9,0,2-0.9,2.7c-3.7,3.1-2.9-4.7-2.9-5.5c-0.1-12.2,0.7-24.4,1.4-36.6
						C523.4,372.8,523.9,373.4,524.3,374z"/>
					<g>
						<path class="st25" d="M583.8,313.7c-2.3-0.9-4.6-1.3-7-1.1c0.3-2.2-1.2-4.2-3.1-5.3c-1.9-1.1-4.7-1.6-6.9-1.9
							c1.5-3.4,0.7-7.6-1.9-10.2c-2.6-2.6-7-4-10.4-2.4c0.9-3-0.1-6.5-2.6-8.5c-2.4-2-6.8-3-9.5-1.4c0.5-2.5-0.5-5.3-2.5-6.9
							c-2-1.6-5.6-2.4-8-1.4c0-3.5-0.9-7-2.5-10.1c-0.1-0.5-0.3-1.1-0.6-1.6c-0.8-1.7-2.5-3.1-4.4-3.2c-0.2,0-0.3,0-0.5,0
							c-0.2,0-0.3,0-0.5,0c-1.9,0-3.6,1.5-4.4,3.2c-0.2,0.5-0.4,1-0.6,1.6c-1.7,3.1-2.6,6.6-2.5,10.1c-2.4-1-6-0.2-8,1.4
							c-2,1.6-3,4.4-2.5,6.9c-2.7-1.5-7.1-0.5-9.5,1.4c-2.4,2-3.5,5.5-2.6,8.5c-3.3-1.6-7.8-0.2-10.4,2.4c-2.6,2.6-3.4,6.8-1.9,10.2
							c-2.1,0.3-5,0.9-6.9,1.9c-1.9,1.1-3.4,3.1-3.1,5.3c-2.4-0.2-4.8,0.3-7,1.1c-2.2,0.9-4.2,3-4,5.4c0.2,2.3,2.3,4,4.5,4.9
							c2.2,0.9,4.5,1.3,6.6,2.5c-0.7,0.5-0.4,1.3-0.3,2.1c0.1,0.9,0.6,1.6,1.2,2.3c2.3,2.6,6,3.8,9.4,3c-0.7,1.1-0.1,2.5,0.1,3.8
							c0.4,2.8,1.8,5.4,3.9,7.3c2.1,1.9,4.9,2.9,7.7,2.9c0,3.7,1.6,8.1,4.2,10.7c2.6,2.6,6.3,4,10,4c0.6,5.4,5,10.9,10.4,11.7
							c-1.1,0.6,0,2.1,0.5,3.2c0.7,1.8,1.3,3.6,2,5.3c0.5,1.4,1.2,2.9,2.7,3.1c0.3,0.1,0.7,0,1-0.1c0.3,0.1,0.7,0.2,1,0.1
							c1.4-0.2,2.2-1.8,2.7-3.1c0.7-1.8,1.3-3.6,2-5.3c0.4-1.1,1.5-2.7,0.5-3.2c5.3-0.8,9.8-6.3,10.4-11.7c3.7,0.1,7.3-1.4,10-4
							c2.6-2.6,4.2-7,4.2-10.7c2.8,0,5.6-1.1,7.7-2.9s3.5-4.5,3.9-7.3c0.2-1.3,0.8-2.7,0.1-3.8c3.4,0.8,7.1-0.4,9.4-3
							c0.6-0.6,1.1-1.4,1.2-2.3c0.1-0.9,0.5-1.6-0.3-2.1c2-1.2,4.4-1.6,6.6-2.5c2.2-0.9,4.3-2.6,4.5-4.9
							C588,316.7,586.1,314.5,583.8,313.7z"/>
						
							<linearGradient id="SVGID_00000083782279199943997410000008216545786490247605_" gradientUnits="userSpaceOnUse" x1="509.5096" y1="219.8205" x2="536.9666" y2="421.0208">
							<stop  offset="0" style="stop-color:#FA564D"/>
							<stop  offset="0.2142" style="stop-color:#F5534C"/>
							<stop  offset="0.4624" style="stop-color:#E74948"/>
							<stop  offset="0.7274" style="stop-color:#D03843"/>
							<stop  offset="1" style="stop-color:#B0213B"/>
						</linearGradient>
						<polygon style="fill:url(#SVGID_00000083782279199943997410000008216545786490247605_);" points="522.2,373.5 470.9,318.2 
							522.2,272.2 574.9,317.5 						"/>
						
							<linearGradient id="SVGID_00000143579684134830604850000000744050402673206916_" gradientUnits="userSpaceOnUse" x1="503.5583" y1="258.9219" x2="544.0685" y2="399.3576">
							<stop  offset="0" style="stop-color:#FBA746"/>
							<stop  offset="1" style="stop-color:#DE731F"/>
						</linearGradient>
						<path style="fill:url(#SVGID_00000143579684134830604850000000744050402673206916_);" d="M493.3,338.3
							c-6-6.2-11.9-12.4-17.9-18.6c5.4-5.7,11.2-11,17.4-15.9C493.1,314.9,493,327.3,493.3,338.3z M522.6,276.2
							c-6,5.7-11.9,11.5-17.9,17.2c10.5-1.6,21.5-1.9,32.1-2.2C532.1,285.9,527.3,281.5,522.6,276.2z M565.7,316.1
							c-7.3-6-15-11.7-22.3-17.7c2.7,12.2,4.6,24.5,5.8,36.9C554.2,328.7,560,322.1,565.7,316.1z M543.2,343.8
							c-14.5-0.8-28.9-1-43.3-0.6c7.6,7.1,14.7,14.6,21.3,22.6C528.1,358.1,535.3,350.6,543.2,343.8z"/>
						
							<linearGradient id="SVGID_00000160897283050096368140000003905261250665310857_" gradientUnits="userSpaceOnUse" x1="516.5672" y1="304.4897" x2="526.1436" y2="337.6877">
							<stop  offset="0" style="stop-color:#FBA746"/>
							<stop  offset="1" style="stop-color:#DE731F"/>
						</linearGradient>
						<path style="fill:url(#SVGID_00000160897283050096368140000003905261250665310857_);" d="M538,329.5c-1.8-1-3.5-2-5.3-3
							c-0.8-0.5-1.7-1-2.5-1.4c-0.5-0.3-1.1-0.5-1.4-1c-0.5-0.9,0-2.6,0-3.6c0-0.5-0.1-0.9-0.2-1.4c1.7-0.9,3.5-1.9,4.5-3.4
							c1.4-2,0.6-5-0.2-7.1c-2.3-5.6-9.3-5.1-14.2-4.2c-4.5,0.8-9.4,1.7-12.9,4.8c-2.1,1.9-2.8,4.1-1,6.5c1.4,1.9,3.4,3.1,5.4,4.4
							c2,1.2,4.6,2.7,5.1,5.2c0.5,3-2.1,3.7-4.6,3.6c-1.3-0.1-1.4,1.8-0.3,2.2c1.8,0.6,4,1,5.7,0c1.5-0.9,2.4-2.5,2.7-4.2
							c0.6-4.2-2.4-7.3-5.6-9.6c-1.6-1.1-3.3-2.1-4.6-3.7c-0.1-0.2-0.3-0.5-0.5-0.7c0.3-0.3,0.5-0.5,0.8-0.8c0.7-0.6,1.6-1,2.4-1.4
							c1.8-0.8,3.8-1.2,5.8-1.5c2.3-0.4,4.6-0.8,6.9-0.7c1.1,0,2.7,0.1,3.6,0.9c0.7,0.6,0.8,1.6,1,2.4c0,0.2,0.1,0.5,0.1,0.7
							c0,0.1,0,0.2,0,0.3c-0.2,0-1,0.5-1.2,0.7c-1.2,0.7-2.4,1.3-3.7,1.9c-1.7,0.7-1.5,3-0.5,4.2c0.5,0.6,0,2.5,0,3.2
							c-0.1,1.7,0.3,3.5,1.4,4.9c1.3,1.5,3.3,2.4,5,3.4c1.8,1.1,3.7,2.1,5.5,3.2C538.3,335.9,541.1,331.2,538,329.5z"/>
					</g>
					
						<linearGradient id="SVGID_00000044858771090363961590000014712984981304789396_" gradientUnits="userSpaceOnUse" x1="515.28" y1="418.4128" x2="531.9226" y2="418.4128">
						<stop  offset="0" style="stop-color:#FBA746"/>
						<stop  offset="1" style="stop-color:#DE731F"/>
					</linearGradient>
					<path style="fill:url(#SVGID_00000044858771090363961590000014712984981304789396_);" d="M531.1,426.3c0.4-2.3,0.9-4.6,0.8-7
						c0-2.4-0.5-4.8-1.8-6.6c-1.1-1.5-2.6-2.4-4.1-2.8c-2.5-0.8-5.4-0.5-7.4,1.5c-1.7,1.7-2.7,4.3-3.1,7c-0.4,2.7-0.2,5.5,0,8.2
						C521.3,427.6,525.3,427.5,531.1,426.3z"/>
					<path class="st31" d="M520.4,412.2c1.4-1,2.8-1.1,3.7,1.1c0.6,1.5,0.1,3.2-0.5,4.7c-0.7,1.6-1.9,3.2-3.6,3.2
						c-1.7,0-2.9-1.9-2.8-3.6C517.2,416,518.7,413.4,520.4,412.2z"/>
				</g>
			</g>
			<g style="clip-path:url(#SVGID_00000074436797302913468260000000737300994025393569_);">
				<g>
					<g>
						<path class="st32" d="M419.7,667.9c-14.3-0.7-69.5-5.1-91.8-43.7c-2-3.5-3.8-7.3-5.3-11.6c-8.1-22.1-4.9-40.9-3.5-48.5
							c2.1-11.3,5.1-16.2,6.8-18.3c0.2-0.3,0.4-0.5,0.6-0.7c3.3-4,8.4-8.9,16.4-13.7c2.9,3.2,5.8,6.3,8.8,9.5
							c2.5,2.6,4.2,5.9,4.8,9.4c4,24.3,8,48.7,12.1,73C385.6,638.2,402.7,653.1,419.7,667.9z"/>
						<path class="st33" d="M316.1,515.2c2.3,0.2,4.8,0.7,7.7,1.4c2.3,0.6,4.4,1.3,6.2,2.1c-0.2,1-0.4,2-0.7,3
							c-4.2-0.7-8.5-1.4-12.7-2.1C316.5,518.1,316.3,516.6,316.1,515.2z"/>
						<g id="_x36__00000068649652414943013850000005374339549486418317_">
							<path class="st34" d="M286.2,820.1c3.1,0,5.7-2.2,5.7-4.9V696.7c0-2.7-2.6-4.9-5.7-4.9c-3.1,0-5.7,2.2-5.7,4.9v118.5
								C280.5,817.9,283,820.1,286.2,820.1z"/>
							<path class="st35" d="M300.2,820.1c3.1,0,5.7-2.2,5.7-4.9V696.7c0-2.7-2.6-4.9-5.7-4.9c-3.1,0-5.7,2.2-5.7,4.9v118.5
								C294.5,817.9,297,820.1,300.2,820.1z"/>
							<path class="st34" d="M353.3,820.1c3.1,0,5.7-2.2,5.7-4.9V696.7c0-2.7-2.6-4.9-5.7-4.9c-3.1,0-5.7,2.2-5.7,4.9v118.5
								C347.6,817.9,350.2,820.1,353.3,820.1z"/>
							<path class="st35" d="M366.3,820.1c3.1,0,5.7-2.2,5.7-4.9V696.7c0-2.7-2.6-4.9-5.7-4.9c-3.1,0-5.7,2.2-5.7,4.9v118.5
								C360.6,817.9,363.2,820.1,366.3,820.1z"/>
							<path class="st36" d="M297.5,546.1c-11.6,48.3-2.7,72.6,8.7,85.9c20.5,24,65.1,25.5,74.3,53.9c2.4,7.3,3.5,22.2,2.6,24.3
								c-0.9,2-2.8,3.6-5.2,3.5c-3,0.5-6.3-4.2-8.2-5.8c-5.8-5.8-13.6-9-21.8-9c0,0-51.8,0-51.8,0c-6.1,0.1-14.8-0.8-22.5-6
								c-15.7-10.7-16.8-32.2-20.2-77.5c-1.1-14.4-3-40.2-5.9-74.4c7.1-0.6,15.9-0.8,25.9,0.3C282.8,542.3,290.9,544.1,297.5,546.1z
								"/>
						</g>
						<path class="st37" d="M461.7,820.8h-44.3c-2.1,0-3.9-1.8-3.7-4c0.4-4.6,1.5-11.5,1.2-14.6c0.2-2.7-3.7-37.3-4-40.8h27.8
							l-4.5,35.7c-0.5,4.2,2,8.2,6,9.6c5.4,1.8,11.6,2.6,15.7,3.6c3.6,0.9,6.8,2.1,8.7,4.6C466.5,817.3,464.7,820.8,461.7,820.8z"/>
						<path class="st38" d="M412.2,816.1c0,0.7,0.2,1.3,0.4,2.1c0.4,1.5,1.8,2.6,3.4,2.6H462c0.6-0.2,3.5-1.1,3.9-3
							c0.5-2.2-2.3-5.5-7.5-6.8c1.8,0.8,2.6,1.5,2.5,2c-0.4,2.1-16.2,1.6-47.6-1.6C412.3,813.5,412.2,815.2,412.2,816.1z"/>
						<path class="st39" d="M442.6,789.6c-15.6,5.7-36.3,0-36.3,0c-2-31-4-52.1-6-83.1c-31.9-8.8-63.8-17.6-95.7-26.4
							c-2.9-12.3-5.8-24.7-8.7-37c23-2.1,45.9-4.1,68.9-6.2l75.5,45.8C441,721.5,441.8,750.7,442.6,789.6z"/>
						<path class="st32" d="M424.7,679.6c4,0.3,8,0.6,12.1,0.9c-2.2-1.5-4.5-3-6.7-4.5c-4.5,0.1-9,0.2-13.5,0.2
							C419.2,677.4,422,678.5,424.7,679.6z"/>
						<path class="st37" d="M452.4,820.8H408c-2.1,0-3.9-1.8-3.7-4c0.4-4.6,1.5-11.5,1.2-14.6c0.2-2.7-3.7-37.3-4-40.8h27.8
							l-4.5,35.7c-0.5,4.2,2,8.2,6,9.6c5.4,1.8,11.6,2.6,15.7,3.6c3.6,0.9,6.8,2.1,8.7,4.6C457.2,817.3,455.4,820.8,452.4,820.8z"/>
						<path class="st40" d="M403,817.3c0.1,1,0.5,1.8,0.5,1.8c0.4,0.8,1,1.3,1.3,1.5c0.2,0.1,0.3,0.1,0.5,0.2h47.3
							c0.8-0.2,4.4-1.1,4.8-3c0.5-2.8-5.9-5.8-6.5-6c-1.3-0.6-2.5-1-3.4-1.2c1.1,0.8,1.6,1.4,1.5,2c-0.6,2.5-15.2,1.8-44-2.2
							C403.5,813.2,402.9,815.8,403,817.3z"/>
						<path class="st41" d="M433.2,789.6c-15.6,5.7-36.3,0-36.3,0c-1.6-28.1-3.1-46.5-4.7-74.6c-0.1-2-0.2-3.9-0.3-5.9
							c0,0-0.1,0-0.1,0c-32.2-9.7-64.4-19.3-96.6-29l-8.7-37.1c25.4-2.3,50.9-4.5,76.3-6.8c19,13.8,38,27.7,56.9,41.6
							c2.6,1.9,5.1,3.8,7.7,5.6c0.8,0.6,1.6,1.2,2.4,1.7c0.7,0.5,1.1,1.2,1.1,2C431.7,724.6,432.5,752.2,433.2,789.6z"/>
						<path class="st32" d="M392,709c-2.9-0.4-5.7-0.8-8.6-1.2c12.5-10.8,24.9-21.5,37.4-32.3c1.3,1.3,2.6,2.7,3.9,4
							C413.8,689.4,402.9,699.2,392,709z"/>
						<path class="st41" d="M360.8,625.1c-3.1,6.1-9,15.6-19.8,23.2c-24.7,17.3-53.4,9.5-57.9,8.3c0,0-0.6-7.7-1.2-17.5
							c-0.1-1.2-0.8-14.3-1.3-29.3c-0.6-22.6-0.4-44.6-0.1-56.4c0-2.5,1.2-4.9,3.1-6.5l32.9-27.3c2.2-0.1,4.7,0.1,7.6,0.6
							c5.7,1.1,10.1,3.3,13,5.1c3.5,3.7,7,7.5,10.5,11.2c3.3,3.5,5.4,8.1,5.9,12.9L360.8,625.1z"/>
						<path class="st41" d="M423.2,676.8c4.4,0.6,8.8,1.1,13.2,1.7c-25.2-17.8-50.4-35.5-75.5-53.3c-1.2-8.4-2.4-16.7-3.5-25.1
							c-25.2,11.5-50.4,23.1-75.6,34.6c-0.2,5.4,0,13,1.5,21.9c1.9,11.6,3.4,20.6,7.9,26.5c10.3,13.2,30.4,3.4,60.1,11.9
							c15.1,4.4,26.2,11.6,33.1,16.9C397.2,700.1,410.2,688.5,423.2,676.8z"/>
						<path class="st42" d="M337.6,530.7c2.2,12.3,4,25.9,5.1,40.6c1.4,19,1.3,36.4,0.4,51.8c26.6,17.7,53.2,35.4,79.8,53.1
							c0.1,0.2,0.2,0.4,0.3,0.6"/>
						<path class="st42" d="M333.3,554.6c4.3-0.2,8.5-0.3,12.8-0.5"/>
						<path class="st42" d="M336.5,590.6c4.2-0.3,8.3-0.7,12.5-1"/>
						<path class="st42" d="M335.9,623c5.1-0.7,10.1-1.4,15.2-2.2"/>
						<path class="st41" d="M391,665.9c-3.1,7.5-8.2,12.2-11.5,14.6c-0.9,0.6-1.6,1.1-2.1,1.5c-2.3-1.5-4.6-3-6.9-4.5
							c-24.4-15.8-48.8-31.7-73.2-47.5c-5.1-24.7-10.2-49.4-15.3-74c-0.8-3.7,2-7.3,5.8-7.4c4.1-0.1,9.4,0.5,14.9,3
							c5.8,2.7,9.5,6.4,11.6,8.8c2.8,17.4,5.6,34.8,8.4,52.2c21,10.8,42,21.7,62.9,32.5c2.6,1.3,5.1,2.6,7.7,4
							c0.1,0.5,0.1,1.1,0.2,1.8C393.7,654.4,393.5,659.9,391,665.9z"/>
						<g>
							<path class="st43" d="M414,668.3C414,668.3,414,668.3,414,668.3c2.1,1.7,3.7,3,4.6,3.8c2.1,1.7,3.5,2.9,3.2,3.7
								c-0.1,0.4-0.6,0.6-0.7,0.6c-0.7,0.2-1.3-0.2-2.5-1c-1.2-0.9-1.9-1.3-2.4-1.8c-0.9-0.8-2.3-1.9-4.3-3c1.6,1,2.8,1.9,3.7,2.6
								c2.2,1.7,2.6,2.2,2.5,2.5c-0.1,0.2-0.5,0.3-1,0.3c-2.9,0-5.9-2.2-8.1-3.4c-1.3-0.7-3.3-1.8-5.9-2.6c-1.4,0-4.1-0.2-7.1-1.7
								c-2.6-1.3-4.2-3.1-5.1-4.1c-0.3-0.1-0.5-0.3-0.8-0.4c0.4-1.5,0.8-3.3,1-5.4c0.2-2,0.2-3.7,0.1-5.2c0.8,0.5,1.6,0.9,2.4,1.4
								c0.7,0,1.6,0,2.8,0.1c0,0,2.8,0.3,5.6,1.5c6.1,2.7,21.9,14.4,20.7,16.1c-0.1,0.1-0.3,0.2-0.4,0.2c-1,0.2-1.7-1.6-4-3.5
								c-1.1-0.9-2-1.4-2-1.4c1,0.7,1.8,1.3,2.4,1.7c3.4,2.5,4,3.5,4.1,4.5c0,0.2,0.1,0.8-0.2,1c-0.7,0.4-2.6-1.5-3.5-2.4
								c-0.6-0.5-1.3-1-1.9-1.6C416,669.9,415,669.1,414,668.3z"/>
						</g>
						<path class="st33" d="M322.3,512.7c2,0.3,5.7,1.2,9.2,4.1c6.1,5,7,12.2,7.1,13.8c-0.3,0-0.6,0.1-1,0.1
							c-0.4-1.8-1.5-6.4-5.6-10.3c-5.1-4.9-11.2-5.4-12.8-5.5C320.3,514.2,321.3,513.5,322.3,512.7z"/>
						<g>
							<path class="st44" d="M338.5,538.4"/>
						</g>
						<g>
							<path class="st45" d="M310.9,509.4c0.6,0.6,1.5,1.4,2.8,2.1c0.4,0.2,1,0.5,1.9,0.8c1.5,0.4,2.9,0.3,3.9,0.2
								c-0.2-1.7-0.8-5.5-3.6-9.3c-2.6-3.5-5.7-5.2-7.2-6C309.4,501.2,310.1,505.3,310.9,509.4z"/>
							<g>
								<path class="st43" d="M337.7,531.5c-1.1-1.3-2.2-2.7-3.5-4.1c-1.2-1.3-2.3-2.6-3.4-3.7c-0.5-0.4-1.1-0.9-1.7-1.3
									c-0.4-0.3-0.9-0.6-1.4-1c-1.7-1-3.3-1.8-4.8-2.4c-1.9-0.7-3.7-1.1-5.2-1.3c0.1-0.9,0.3-1.8,0.3-2.9c0-0.5,0-1-0.1-1.5v0
									c0-0.1,0-0.1,0-0.2c-0.1-0.7-0.2-1.3-0.4-1.9c-0.1-0.3-0.2-0.6-0.3-0.9c5,0.9,10.1,1.7,15.2,2.6c1.4,0.3,2.9,0.5,4.3,0.7h0
									v0.1c0,0.6-0.1,1.2-0.1,1.8c-0.1,2.1-0.2,4.3-0.3,6.4v0.1c0,0.4,0,0.8-0.1,1.3c0,0.9-0.1,1.9-0.1,2.8
									c0.2,0.4,0.5,0.9,0.7,1.5C337.4,529.1,337.6,530.5,337.7,531.5z"/>
								<path class="st46" d="M336.7,513.6c0,0.6-0.1,1.2-0.1,1.8c-0.1,2.1-0.2,4.3-0.3,6.4v0.1c-0.6,0-1.4,0-2,0
									c-1.9-0.1-3.6-0.4-5.1-1c-2.5-0.9-4.6-2.2-6.2-3.4c-0.5-0.4-1-0.8-2-1.6c-1.3-1.1-2.4-2-3.2-2.7v0c0-0.1,0-0.1,0-0.2
									c-0.1-0.7-0.2-1.3-0.4-1.9c-0.1-0.3-0.2-0.6-0.3-0.9c5,0.9,10.1,1.7,15.2,2.6C333.8,513.1,335.2,513.4,336.7,513.6z"/>
								<path class="st43" d="M330.9,447.2c-22.1-0.3-25.8,14.7-25.9,23.3c0,3.8-0.1,6.7,0.4,10.7c0.5,4.7,1.2,10.7,4,17.5
									c2,5,4.9,11.8,11.8,16.9c3.5,2.5,6.4,3.7,7.5,4.1c3.6,1.2,6.3,1.1,6.9,1.1c1.3,0,2.9-0.1,4.4-0.7c2.9-1.2,3.7-4.1,7.1-10.1
									c1.7-3.1,3.7-6,4.9-10.5c3.2-11.6,4.1-19.8,4.2-28.4C356.2,462.6,353,447.5,330.9,447.2z"/>
								<path class="st45" d="M334.6,445.5c6.3-1.3,10.6,0.2,12.4,1.1c9.7,4.3,13,16,12.6,23.9c-0.3,7.2-3.8,13.2-4.3,13
									c-0.3-0.1,0.4-2.3-0.2-5.9c-0.3-1.8-0.7-3.2-1.1-4.1c-0.6-1.5-1.2-2.7-1.8-3.6c-0.8,4.9-1.3,6-1.7,6c-0.5,0-0.4-2.9-1.7-6.7
									c-1.3-3.7-3.7-7.4-4.9-7.1c-1.2,0.4-0.6,5.3-1.5,5.4c-0.5,0.1-0.7-1.4-2.1-3c-0.7-0.8-1.9-2.1-3-1.9
									c-1.2,0.1-1.8,1.8-3.7,6.7c-2.2,5.6-2.7,6.6-3.3,6.6c-0.6,0-1.4-1.1-2.4-6.2c-0.9,1.3-1.4,2.5-3.4,6c-1,1.8-2,3.3-2.4,3.3
									c-0.5,0.1-2-2.4-3-5.2c-0.5,0.8-1.1,2.1-1.3,3.8c-0.2,1.6,0.2,2.1,0.1,3.4c-0.1,2.7-1.7,3.3-3.3,7c-1.5,3.5-1,5.4-2,5.7
									c-1.4,0.4-3.7-3.4-4.7-5.2c4.4,15.9,4.9,21,3.8,21.4c-1.4,0.5-6.2-6.4-9-13.4c-0.1-0.2-0.3-0.8-0.6-1.5
									c-2-5.4-6.6-20.7,0.6-34.9c2.1-4.2,4.6-7,5.9-8.2c2.6-2.6,7.6-7.7,15.3-8.3C325.9,443.2,329.8,443.2,334.6,445.5z"/>
							</g>
							<path class="st42" d="M312.4,527.6"/>
							<g>
								<g>
									<path d="M318.8,483.9c3.8-2.8,9.8-1.9,13,1.4c0,0-1,0.9-1,0.9C327.8,483.3,322.6,482.4,318.8,483.9L318.8,483.9z"/>
								</g>
							</g>
							<g>
								<g>
									<path d="M354.2,485.1c-3.1-2.3-7.9-1.6-10.7,0.7c0,0-0.9-1-0.9-1C345.4,482,351.9,481.8,354.2,485.1L354.2,485.1z"/>
								</g>
							</g>
							<path class="st46" d="M331.4,511.1c0.1,0.4,2.1-0.5,5.8-0.5c3.3,0,5,0.8,5.1,0.4c0.2-0.4-2.2-2.3-5.1-2.4
								C334,508.5,331.3,510.7,331.4,511.1z"/>
							<g>
								<path class="st46" d="M334.8,502.2c1.9-0.8,3.8-0.8,5.6,0C338.5,503.1,336.6,503.1,334.8,502.2L334.8,502.2z"/>
							</g>
							<g>
								<path d="M344.4,491.2C344.4,491.2,344.4,491.2,344.4,491.2c-0.2-0.1-0.3-0.2-0.5-0.3c0.1-0.2,0.3-0.5,0.6-0.8
									c0,0,0.4-0.4,0.7-0.6c0.5-0.3,0.8-0.3,1.9-0.3c1.5,0,1.7-0.1,2,0.1c0.5,0.2,1.1,0.8,1,1.2c0,0.2-0.1,0.3-0.3,0.4
									c-0.5,0.5-1.1,0.5-1.1,0.6c0,0.1,0.8,0.3,1.5-0.2c0.4-0.3,0.7-0.7,0.8-1c0.2,0,0.6,0.1,1,0.2c0.5,0.1,0.7,0.2,0.7,0.2
									c0-0.1-0.8-0.7-1.6-1.2c-0.3-0.2-0.9-0.5-1.6-0.6c-0.3-0.1-0.7-0.2-2-0.2c-0.6,0-1.4,0-2.4,0.1c-0.4,0.2-0.9,0.6-1.5,1.1
									c-0.7,0.7-1.1,1.4-1.1,1.5c0,0.1,0.3-0.2,0.7-0.2c0.2,0,0.2,0,0.4,0C344.1,491.4,344.4,491.3,344.4,491.2z"/>
								<path d="M349.1,489.2c0.1,0.2,0.1,0.5,0.1,0.9c-0.1,0.8-0.6,1.3-0.7,1.4c-0.5,0.4-1.1,0.4-1.4,0.3c-0.2,0-0.6-0.1-1-0.4
									c-0.2-0.2-0.5-0.4-0.6-1c-0.1-0.6,0.2-1,0.2-1.1c0.4-0.1,0.9-0.1,1.3-0.1C347.8,489.1,348.5,489.1,349.1,489.2z"/>
							</g>
							<g>
								<path d="M330.5,491.2C330.5,491.2,330.5,491.1,330.5,491.2c0.2-0.1,0.4-0.2,0.6-0.3c-0.1-0.2-0.3-0.6-0.6-0.9
									c-0.1-0.1-0.4-0.4-0.8-0.6c-0.5-0.3-0.9-0.3-2.2-0.4c-1.8-0.1-1.9-0.2-2.4-0.1c-0.6,0.2-1.3,0.7-1.3,1.2
									c0,0.2,0.1,0.3,0.3,0.4c0.5,0.6,1.2,0.6,1.2,0.7c0,0.1-0.9,0.2-1.7-0.3c-0.5-0.3-0.7-0.8-0.9-1c-0.3,0-0.7,0.1-1.2,0.2
									c-0.6,0.1-0.8,0.2-0.8,0.1c0-0.1,1-0.7,2-1.1c0.4-0.2,1-0.4,1.9-0.5c0.4,0,0.9-0.1,2.3,0c0.7,0.1,1.7,0.1,2.8,0.3
									c0.4,0.2,1,0.6,1.7,1.2c0.7,0.7,1.2,1.5,1.1,1.6c-0.1,0.1-0.3-0.2-0.8-0.3c-0.2,0-0.2,0-0.5,0
									C330.9,491.3,330.5,491.2,330.5,491.2z"/>
								<path d="M326.3,488.7c-0.1,0.2-0.2,0.5-0.2,0.8c0,0.8,0.6,1.4,0.7,1.4c0.6,0.5,1.2,0.4,1.6,0.4c0.3,0,0.7,0,1.2-0.3
									c0.2-0.1,0.6-0.4,0.8-0.9c0.1-0.6-0.1-1-0.2-1.1c-0.5-0.1-1-0.2-1.6-0.2C327.8,488.7,327,488.7,326.3,488.7z"/>
							</g>
							<polyline class="st44" points="317.2,521.1 317.2,520.7 317.2,519.9 317.2,519.5 317.2,519.1 							"/>
							<path class="st43" d="M310,483.7c-0.8-2.2-3.9-4.2-5.2-3.4c-1.3,0.8-2,4.5-1.5,6.9c0.3,1.2,0.6,4.9,3.5,7.5
								c1.5,1.4,4.2,2.9,5.4,2.1c0.5-0.4,0.7-1.3-0.1-5.2C311.5,488.5,310.7,485.8,310,483.7z"/>
						</g>
					</g>
					<path class="st47" d="M247,540.9c3.6,0.6,8.9,2,14.6,5.3c10.9,6.4,15.9,15.8,17.7,19.2c3.7,7.2,4.2,12.7,4.3,43.5
						c0,7.8,0.1,18.7,1.3,40.4c0.2,4.8,0.5,9.1,0.8,13c0.4,6.4,5.2,11.6,11.6,12.5c19,2.7,44,6.6,54.6,9.8c0.3,0.1,1.4,0.4,2.8,0.9
						c15.1,5.6,19.6,13.3,21,16.2c2.2,4.5,3.2,10,1.8,10.9c-1.8,1-5.7-6.7-14.6-11.3c-4-2.1-7.7-2.9-19-3.5
						c-13.9-0.8-25.1-0.7-30.2-0.5c-18.9,0.4-23.9,1.2-32-1.6c-5.6-1.9-9.8-4.5-12.5-6.4c-1.6-1.5-3.6-3.5-5.5-6.2
						c-2.4-3.4-3.7-6.7-4.5-9.2l-3.1-18.3C253,617.3,250,579.1,247,540.9z"/>
					<path class="st33" d="M316.1,515.2c3.8,1,10.9,3.5,16.9,9.9c2.1,2.3,3.7,4.6,4.8,6.6c-0.2,0.3-0.5,0.6-0.7,0.9
						c-1.8-2.1-4.7-5-9-7.5c-5-3-9.8-4-12.7-4.5C315.6,518.8,315.9,517,316.1,515.2z"/>
					<path class="st32" d="M299.8,627.8c26.6,17.6,53.2,35.1,79.8,52.7c-0.9,0.6-1.6,1.1-2.1,1.5c-26.7-17.3-53.4-34.7-80.2-52
						c-5-25.9-10-51.7-15.1-77.6C288.1,577.5,294,602.6,299.8,627.8z"/>
					<path class="st32" d="M321.5,614.4c-0.8-30-1.1-44.9-0.9-44.9c0.2,0,0.9,14.4,2.1,43.2c23.5,12.1,47.1,24.3,70.6,36.5
						c0.1,0.5,0.1,1.1,0.2,1.8C369.5,638.7,345.5,626.6,321.5,614.4z"/>
					<g>
						<path class="st48" d="M417.1,674.2c-1.8-1.3-3.7-2.4-5.4-3.9C413.7,671.4,415.6,672.6,417.1,674.2L417.1,674.2z"/>
					</g>
					<g>
						<path class="st48" d="M420.7,670.8c-1.8-1.3-3.7-2.4-5.4-3.9C417.3,667.9,419.2,669.1,420.7,670.8L420.7,670.8z"/>
					</g>
					<g>
						<path class="st48" d="M420.7,673.9c-2.3-1.7-4.3-3.5-6.4-5.3C416.7,670,418.8,671.9,420.7,673.9L420.7,673.9z"/>
					</g>
					<path class="st32" d="M349.8,553c-0.4,0.1,3.3,24.1,11,72.1c-0.3-6.2-0.6-12.3-0.9-18.5C353.5,570.8,350.2,552.9,349.8,553z"/>
					<path class="st33" d="M391,665.9c-3.1,7.5-8.2,12.2-11.5,14.6c-0.9,0.6-1.6,1.1-2.1,1.5c-2.3-1.5-4.6-3-6.9-4.5
						c2.6-2.9,5.6-6.6,8.2-11.4c4.5-8.1,6.2-15.7,6.9-20.9c2.6,1.3,5.1,2.6,7.7,4c0.1,0.5,0.1,1.1,0.2,1.8
						C393.7,654.4,393.5,659.9,391,665.9z"/>
				</g>
			</g>
		</g>
	</g>
</g>
</svg>
