<?xml version="1.0" encoding="utf-8"?>
<!-- Generator: Adobe Illustrator 26.0.1, SVG Export Plug-In . SVG Version: 6.00 Build 0)  -->
<svg version="1.1" id="Layer_1" xmlns="http://www.w3.org/2000/svg" xmlns:xlink="http://www.w3.org/1999/xlink" x="0px" y="0px"
	 viewBox="0 0 1000 1000" style="enable-background:new 0 0 1000 1000;" xml:space="preserve">
<style type="text/css">
	.st0{clip-path:url(#SVGID_00000176765875698575443360000007616792233510971795_);fill:#FFD7DC;}
	.st1{clip-path:url(#SVGID_00000176765875698575443360000007616792233510971795_);}
	.st2{fill:#D8989D;}
	.st3{fill:none;stroke:#FFFFFF;stroke-width:1.5148;stroke-miterlimit:10;}
	.st4{clip-path:url(#SVGID_00000176765875698575443360000007616792233510971795_);fill:#FFEEF1;}
	.st5{fill:#FAD4AF;}
	.st6{fill:#212121;}
	.st7{fill:#EFB78E;}
	.st8{fill:#9F0102;}
	.st9{fill:#84030A;}
	.st10{fill:#191513;}
	.st11{fill:none;stroke:#F8AE38;stroke-width:2.4066;stroke-miterlimit:10;}
	.st12{fill:#F8AE38;}
	.st13{fill:#E09D6C;}
	.st14{fill:#BC956B;}
	.st15{fill:#E08373;}
</style>
<g>
	<g>
		<defs>
			<path id="SVGID_1_" d="M736.7,396.7c-10.7-19.1-23.3-35.9-36.3-50.2c-0.1,0.2-0.3,0.4-0.4,0.7c0.1-0.2,0.3-0.4,0.4-0.7
				c-2.4-2.6-47.7-40.9-47.7-40.9l0,0c-1.3-1-2.5-2-3.8-3c-36.2-30.3-63.7-85.3-164.2-76.9c-46.8,3.9-77.5,22.9-99.4,48.5
				c-6.6,7.7-12.4,16.1-17.7,24.9C351.7,326.1,341,357,330.1,384c-14.4,35.7-66,41.3-84.6,82.7c-16.9,19.5-25.8,50.3-30.2,72.7
				c-3.2,16.1-4.1,27.8-4.1,27.8C206,679.5,307,765.6,411.2,796.8c23.3,7,46.8,11.2,69.3,12.3c10.6,0.6,21,0.4,31-0.4
				c2-0.2,4.1-0.4,6.2-0.6c1.4-0.2,2.8-0.3,4.3-0.5c1.2-0.2,2.4-0.3,3.6-0.5c0.7-0.1,1.3-0.2,2-0.3c0.6-0.1,1.3-0.2,1.9-0.3
				c33.8-5.2,71.6-17,106.2-35.1c0.2-0.1,0.3-0.2,0.5-0.3C692.2,741.8,739.9,696,749,634.8c1.3-8.6,12.3-34.7,15.8-72.2
				C771.8,489,751.3,429.7,736.7,396.7z M658.8,352.8c0,0,0.1,0.1,0.1,0.1C658.9,352.9,658.9,352.8,658.8,352.8z"/>
		</defs>
		<clipPath id="SVGID_00000165217588590383679760000002109984820730222993_">
			<use xlink:href="#SVGID_1_"  style="overflow:visible;"/>
		</clipPath>
		<path style="clip-path:url(#SVGID_00000165217588590383679760000002109984820730222993_);fill:#FFD7DC;" d="M736.7,396.7
			c-10.7-19.1-23.3-36-36.3-50.2c-2.4-2.6-47.7-40.9-47.7-40.9c-1.3-1-2.5-2-3.8-3c-36.2-30.3-63.7-85.3-164.2-76.9
			c-46.8,3.9-77.5,22.9-99.4,48.5c-6.6,7.7-12.4,16.1-17.7,24.9C351.7,326.1,341,357,330.1,384c-14.4,35.7-66,41.3-84.6,82.7
			c-16.9,19.5-25.8,50.3-30.2,72.7c-3.2,16.1-4.1,27.8-4.1,27.8C206,679.5,307,765.6,411.2,796.8c23.3,7,46.8,11.2,69.3,12.3
			c10.6,0.6,21,0.4,31-0.4c2-0.2,4.1-0.4,6.2-0.6c1.4-0.2,2.8-0.3,4.3-0.5c1.2-0.2,2.4-0.3,3.6-0.5c0.7-0.1,1.3-0.2,2-0.3
			c0.6-0.1,1.3-0.2,1.9-0.3c33.8-5.2,71.6-17,106.2-35.1c0.2-0.1,0.3-0.2,0.5-0.3C692.2,741.8,739.9,696,749,634.8
			c8.1-40.1,19.2-63.4,19.2-123.3C770.2,471.8,736.7,396.7,736.7,396.7z"/>
		<g style="clip-path:url(#SVGID_00000165217588590383679760000002109984820730222993_);">
			<g>
				<path class="st2" d="M478.6,673.4c0,0-0.3,0.1-0.7,0.2c-0.1-0.2-0.1-0.3-0.2-0.5c-0.1-0.8,0.2-0.7,0.6-1.2
					c1-1.3-0.9-1.3-1.8-0.9c-1.1,0.6-1.2,1.6-1,2.7c0,0.2,0.1,0.3,0.1,0.5c-0.6,0.2-1.3,0.3-2,0.5c-0.1-0.2-0.2-0.5-0.3-0.7
					c-0.1-0.8,0.2-0.7,0.6-1.2c0.9-1.3-1-1.3-1.8-0.8c-1.1,0.6-1.2,1.6-0.9,2.7c0,0.2,0.1,0.4,0.1,0.6c-0.7,0.1-1.4,0.3-2.1,0.4
					c-0.1-0.2-0.1-0.3-0.2-0.5c-0.1-0.8,0.2-0.7,0.6-1.2c1-1.3-0.9-1.3-1.8-0.9c-1.1,0.6-1.2,1.6-1,2.7c0,0.1,0,0.2,0.1,0.3
					c-4.4,0.8-8.9,1.2-11.3,0.5c-4.7-1.6-7.2-11-7.8-13.3c6.9-3.1,11.1-6.9,11.1-6.9c0.6-1.6-0.9-2-0.9-2s-0.6,0.4-1.6,0.9
					c0.2-0.9,0.4-2.4,0.2-2.6c-1-0.8-1.4,2-2.2,3.6c-0.3,0.1-0.6,0.3-0.9,0.4c0.2-0.9,0.5-2.6,0.3-2.7c-1-0.8-1.4,1.9-2.2,3.5
					c-0.3,0.1-0.6,0.2-0.9,0.4c0.2-0.9,0.4-2.4,0.2-2.6c-0.9-0.7-1.4,1.5-2,3.2c-2.9,0.9-6.1,1.4-8.9,0.8c-2.6-0.5-4.4-4.9-5.2-7.8
					c0.3-1.1,0.8-1.9,2.3-2.3c-0.1-0.7-1.1-1.1-1.8-1.1c3.1-1.5-1.2-4.1-1.3-2.3c0.8,0.8-1,1.6-1.2,0.3c-0.1-0.8,0.9-1.1,1.1-1.7
					c-1.3,0-3.1,0.9-2.8,2.5c0.1,0.7,1.1,0.7,0.7,1.6c-0.1,0.1-0.2,0.1-0.3,0.1h-30.3h0c-0.5,0-1.6,0.1-1.9-0.4
					c-0.4-0.9,0.5-1,0.7-1.7c0.3-1.6-1.5-2.5-2.8-2.5c0.1,0.6,1.2,0.9,1.1,1.7c-0.2,1.2-2,0.4-1.2-0.3c-0.1-1.8-4.4,0.8-1.3,2.3
					c-0.7,0.1-1.7,0.4-1.8,1.1c2.3,0.5,2.5,2.1,2.6,4.1c-1.1,2.8-2.9,6.1-5,6.9c-1.8,0.7-5.4-0.3-8.9-1.6c-0.8-1.6-1.2-4.4-2.2-3.6
					c-0.2,0.2,0.1,2,0.3,2.9c-0.3-0.1-0.6-0.2-0.9-0.4c-0.8-1.5-1.2-4.6-2.3-3.8c-0.2,0.2,0.1,2,0.3,2.9c-0.3-0.1-0.6-0.3-0.9-0.4
					c-0.8-1.6-1.2-4.5-2.3-3.7c-0.2,0.2,0.1,1.8,0.3,2.7c-0.8-0.4-1.3-0.7-1.3-0.7s-1.6,0.4-1,2c0,0,4.1,3.8,10.8,7
					c-0.4,1.6-3.5,12.5-8.6,14.2c-1.6,0.5-3.9,0.5-6.4,0.3c0-0.2,0.1-0.5,0.1-0.7c0.3-1.1,0.1-2.1-1-2.7c-0.9-0.4-2.8-0.4-1.8,0.9
					c0.4,0.5,0.7,0.5,0.6,1.2c0,0.4-0.2,0.7-0.4,1c-0.7-0.1-1.3-0.2-2-0.3c0-0.4,0.1-0.8,0.2-1.2c0.3-1.1,0.2-2.1-1-2.7
					c-0.8-0.5-2.8-0.5-1.8,0.8c0.4,0.5,0.7,0.5,0.6,1.2c-0.1,0.5-0.4,0.9-0.5,1.3c-0.6-0.1-1.3-0.3-1.8-0.4c0-0.4,0.1-0.7,0.1-1.1
					c0.3-1.1,0.1-2.1-1-2.7c-0.9-0.4-2.8-0.4-1.8,0.9c0.4,0.5,0.7,0.5,0.6,1.2c-0.1,0.4-0.3,0.7-0.4,1.1c-1.3-0.4-2.1-0.6-2.1-0.6
					s-2.2,0.5-1.3,2.8c0,0,8.4,9.4,28.5,11.1v32.9h3.6v-22.1l4.3,0.9v21.2h2.9v-24.5h47.5v24.5h2.9v-20.7l3.6-0.8v21.5h5v-33.2
					c18.7-2.4,27.8-11.9,27.8-11.9C480.8,673.9,478.6,673.4,478.6,673.4z M443.4,691.8v-2.9h3.6v2.9H443.4z M385.8,691.8v-2.9h4.3
					v2.9H385.8z M393,691.8v-2.9h47.5v2.9H393z"/>
				<path class="st2" d="M436.4,591.9c-0.2-0.6-1.3-0.5-1.9-0.6c0.1-0.2,0.2-0.8,0.3-1c-1.7-0.4-1.6-0.9-2.7-1.9
					c-1-0.9-2.4-1.1-3.7-1.2c-1.3-0.1-4-0.8-4.9,0.3c-0.9-0.4-1.9-0.9-2.9-0.7c0.2,0.3,0.2,0.6,0.6,0.8c-0.4-0.1-0.9,0.1-1.3,0.1
					c0.3,0.3,0.5,0.8,0.9,1c-1.7,0.4-4.8-0.5-5.9,1.3c0.2,0.1,0.4,0.3,0.6,0.4c-0.2,0.1-0.4,0.3-0.6,0.5c-0.2-0.2-0.4-0.4-0.7-0.6
					c-2.3-1.8-5.4-2-8.1-2c-2.4,0-7-0.8-9.5,0.5c0,0-0.1-0.1-0.1-0.1c1.2-0.3,2.7-1.4,2.1-2.9c-0.5-1.2-2.6-0.7-3.9-0.8
					c0.2-0.4,0.2-1.6,0.4-2c-3.4-0.5-3.2-1.6-5.6-3.4c-2.1-1.6-5-1.7-7.5-1.7c-2.6,0-8-0.8-9.7,1.4c-2-0.7-3.8-1.5-5.9-0.9
					c0.5,0.5,0.5,1.1,1.4,1.6c-0.9,0-1.8,0.4-2.6,0.4c0.6,0.5,1.1,1.4,1.9,1.9c-3.2,1-9.6-0.2-11.5,3.5c0.4,0.1,0.8,0.5,1.2,0.6
					c-2.9,2.3-6.4,7-0.6,7.5c4,0.3,8.1-1.2,12.1-1.5c5.5-0.3,10.8-0.5,16.3-0.1c1.3,0.1,2.7,0.3,4.1,0.6c-3.7,0.5-9.5-0.3-11.4,3.3
					c0.4,0.1,0.9,0.5,1.3,0.7c-3.2,2.4-7,7.5-0.8,8.1c1.8,0.2,3.6,0,5.5-0.3c1.4,2.7,3,5.5,5.4,7.4c-0.4,0.3-0.7,0.5-1.1,0.7
					c-5.2,3.3-12,1.9-17.6,3.9c0,0,0,0,0,0c-7.6,1.2-18.7,5.6-18.2,21.2c0,0,0.4,2.1,0.3,5.1c-8,0-17.8-1.2-22.7-7.9
					c1.7-1.8,2.6-4.5,3.1-6.9c0.4-2,0.8-4.4,0.7-6.7c2.7,0.5,5.4,1.1,7.8,1c-0.3-0.9-0.7-1.6-1.6-2.2c0.8,0.1,1.8-0.2,2.5-0.1
					c-0.5-0.9-1.3-1.8-1.9-2.8c1.1-0.3,2.6-1.3,2-2.7c-0.5-1.1-2.5-0.7-3.7-0.8c0.2-0.4,0.2-1.6,0.4-1.9c-2-0.3-2.7-0.9-3.5-1.7
					c3.4,0.1,6.8,0.4,10.2,0.9c3.1,0.5,6.5,2,9.5,2c-0.2-0.7-0.5-1.3-1.1-1.7c0.6,0.1,1.3-0.1,1.9,0c-0.3-0.7-0.9-1.5-1.3-2.2
					c0.9-0.2,2.1-0.8,1.7-2c-0.3-0.9-1.9-0.7-2.8-0.8c0.2-0.3,0.3-1.2,0.4-1.4c-2.4-0.6-2.2-1.3-3.9-2.8c-1.4-1.3-3.5-1.5-5.3-1.7
					c-1.6-0.1-4.6-0.8-6.3-0.1c0,0,0-0.1,0-0.1c-0.4-1.2-2.6-0.9-3.8-1.1c0.3-0.4,0.4-1.6,0.6-2c-3.3-0.8-3.1-1.8-5.3-3.9
					c-2-1.8-4.8-2.1-7.3-2.3c-2.6-0.2-7.9-1.5-9.8,0.6c-1.9-0.8-3.7-1.8-5.8-1.4c0.4,0.5,0.4,1.2,1.2,1.7c-0.9-0.1-1.8,0.2-2.7,0.2
					c0.6,0.6,1,1.5,1.7,2.1c-3.3,0.7-9.6-1.1-11.8,2.5c0.4,0.2,0.8,0.5,1.2,0.7c-1.9,1.2-4.1,3.4-4.2,5.1c-0.6-0.1-1.1-0.2-1.8-0.1
					c0.3,0.4,0.3,0.8,0.9,1.2c-0.6-0.1-1.3,0.2-1.9,0.1c0.4,0.4,0.7,1.1,1.2,1.5c-2.4,0.5-6.9-0.8-8.5,1.8c0.3,0.1,0.6,0.4,0.8,0.5
					c-2.2,1.5-5,4.7-0.9,5.3c2.8,0.5,5.9-0.4,8.8-0.3c3.5,0.1,6.9,0.3,10.3,0.8c-0.1,0.1-0.2,0.3-0.3,0.5c0.4,0.1,0.8,0.5,1.2,0.6
					c-2.8,2.1-6.2,6.6-0.7,7.1c2.1,0.2,4.2-0.1,6.4-0.5c2.8,1.8,4.8,4.6,7.2,6.9c2.4,2.3,5.4,2.4,8.4,2.9c1,2.8,2.1,5.6,3.9,8
					c2.6,3.4,6.7,5.2,10.7,6.2c4.5,1.2,9.2,1.6,13.8,1.5c-1,6.5-4.5,15-15.6,18.3c-9.2,2.8-14.2,9.9-16,17.8
					c-0.9-0.7-1.8-1.3-2.8-1.8c-3.1-1.7-6.9-2.7-9.6-5c-3.7-3.1-3.4-8.6-2.7-13.3c0.7,0.1,1.4,0.3,2.1,0.4c4.6,1,9.6,3.5,14.2,3.8
					c-0.2-1-0.6-2-1.5-2.7c0.9,0.2,2,0,2.9,0.2c-0.5-1.1-1.3-2.3-1.8-3.5c1.3-0.2,3.2-1.1,2.7-2.8c-0.4-1.4-2.7-1.2-4.1-1.4
					c0.3-0.4,0.5-1.7,0.7-2.1c-3.6-1.1-3.3-2.2-5.6-4.5c-2-2-5.1-2.6-7.8-3c-2.8-0.4-8.5-2.1-10.7,0c-2-1-3.9-2.2-6.3-1.9
					c0.4,0.6,0.4,1.3,1.2,1.9c-0.9-0.2-2,0.1-2.9,0c0.6,0.7,1,1.7,1.8,2.3c-3.7,0.6-10.4-1.8-13,2c0.4,0.2,0.8,0.6,1.2,0.9
					c-2,1.2-4.4,3.2-4.8,5c-1.7-0.1-3.5-0.2-5.1,0.1v17.7c1.4,0,2.7,0.1,4.1,0.1c0,0.6,0,1.3-0.1,1.9c-0.1,1-0.7,1.8-1.4,2.5
					c-0.8-0.9-1.7-1.8-2.6-2.8v4c0.6,0.7,1.3,1.5,2,2.2c-0.6-0.2-1.3-0.3-2-0.3v1.2c1.4,0.2,2.8,0.6,3.9,1.6c0.1,0.1,0.2,0,0.3-0.1
					c7.8,7.6,20.3,16.1,37.3,16.4c0,0,8.4,1.7,15.2,5c0,0,0,0,0,0c3.7,4.4,8.1,9.2,11.5,14.7c-5.6,2.3-16.8,11.8-22.1,10.6
					c-3.9-0.9-6.9-3.4-8.4-5.1c2.3-0.1,4.5-0.1,6.8,0.1c3.1,0.2,6.7,1.3,9.7,1c-0.2-0.6-0.6-1.2-1.3-1.6c0.6,0.1,1.3-0.2,1.9-0.2
					c-0.4-0.7-1.1-1.4-1.5-2.1c0.9-0.3,2-1,1.5-2.1c-0.4-0.9-1.9-0.5-2.8-0.5c0.2-0.3,0.1-1.2,0.3-1.5c-2.5-0.3-2.4-1.1-4.1-2.4
					c-1.5-1.1-3.6-1.2-5.4-1.1c-1.9,0.1-5.8-0.5-7,1.1c-1.4-0.5-2.8-1-4.3-0.6c0.3,0.3,0.4,0.8,1,1.1c-0.6,0-1.3,0.3-1.9,0.3
					c0.5,0.4,0.8,1,1.4,1.4c-2.3,0.8-7-0.1-8.3,2.6c0.3,0.1,0.6,0.3,0.9,0.5c-2.1,1.7-4.5,5.1-0.4,5.4c1.4,0.1,2.8-0.1,4.3-0.4
					c1.5,1.6,2.6,3.5,4.4,4.8c2.6,1.9,6-0.3,8.9,1c0.1,0,0.1,0,0.2,0c1.3,0.7,2.6,1.2,4.1,1.3c5.3,0.2,16.1-7.2,24.2-10.4
					c3.9,7.4,5.9,16.1,2.7,26.8c0,0,6.2,4.1,12.8-4.6c0,0,2.1-26.1-13.2-36.4c-15.2-10.4-14.8-36,6.2-43.1c0,0,8.6-3.5,10-16.5
					l6.2,0.9c6.2,0.5,12.5-4.1,17.4-9c2.4,0.2,10.6,0.1,18.4-6.8c2.3,0.6,4.6,1.3,6.7,1.3c-0.2-0.7-0.5-1.3-1.1-1.7
					c0.6,0.1,1.3-0.1,1.9,0c-0.3-0.7-0.9-1.5-1.3-2.3c0.9-0.2,2.1-0.8,1.7-2c-0.3-0.9-1.9-0.7-2.8-0.8c0.2-0.3,0.3-1.2,0.4-1.4
					c-2.4-0.6-2.2-1.3-3.9-2.8c-1.4-1.3-3.5-1.5-5.3-1.7c-1.8-0.1-5.7-1.1-7.1,0.4c-1.4-0.6-2.7-1.3-4.2-1c0.3,0.4,0.3,0.8,0.9,1.2
					c-0.6-0.1-1.3,0.2-1.9,0.1c0.4,0.4,0.7,1.1,1.2,1.5c-2.4,0.5-6.9-0.8-8.5,1.8c0.3,0.1,0.6,0.4,0.8,0.5c-2.2,1.5-5,4.7-0.9,5.3
					c1.3,0.2,2.6,0.2,3.9,0c-0.1,0.7-0.1,1.4,0,2.1c0.2,0.9,0.8,1.7,1.5,2.3c-11,10.2-20.4,9.3-23.9,8.4c0-2.2-0.2-4.7-0.7-7.4
					c0,0-2.5-21.6,20.3-21.5c0,0,0.1,0.1,0.2,0.1c0.9,0.1,1.7,0.1,2.5,0c1,0.1,1.9,0.2,3,0.3l-1.1-0.5c4.8-0.7,9-3,12.4-6.3
					c5.6,0.1,11.7-3.6,15-8.2c0.1,0,0.1,0,0.2,0c4.7,0.5,10,2.3,14.5,2c-0.3-1-0.8-1.9-1.8-2.5c0.9,0.1,2-0.3,2.9-0.2
					c-0.6-1.1-1.5-2.1-2.2-3.3c1.3-0.4,3-1.5,2.3-3.1c-0.6-1.3-2.9-0.8-4.2-0.9c0.3-0.4,0.3-1.8,0.5-2.2c-0.3,0-0.5-0.1-0.7-0.1
					c0.5,0,0.9-0.1,1.4,0c2.8,0.1,5.4,0.2,8.2,0.7c2.2,0.4,4.5,1.4,6.6,1.4c-0.1-0.5-0.3-0.9-0.8-1.2c0.4,0.1,0.9-0.1,1.3,0
					c-0.2-0.5-0.6-1-0.9-1.6C435.9,593.2,436.7,592.7,436.4,591.9z M309.8,609.2c0.2-0.3,0.2-1.1,0.4-1.4c-2.4-0.6-2.2-1.3-3.9-2.8
					c-0.1-0.1-0.3-0.2-0.4-0.3c0.2,0,0.4,0,0.6,0c5.5,0.2,10.8,0.4,16.2,1.4c0.4,0.1,0.8,0.1,1.2,0.2c-0.2,0.2-0.5,0.4-0.7,0.7
					c-2.6-0.2-5.7-0.3-6.9,1.3c-1.8-0.7-3.6-1.5-5.6-1c0.4,0.5,0.5,1.1,1.3,1.5C311.2,608.8,310.5,609.1,309.8,609.2z M315.6,626.2
					c-1.9-1.7-3.5-3.6-5.3-5.3c0.6-0.1,1.2-0.1,1.8-0.1c1.6-0.1,3.1-0.1,4.6-0.1c2.4,2.2,3.8,5.1,5,8.1
					C319.5,628.4,317.5,627.9,315.6,626.2z M328.1,634.5c-2.7-4.3-3.6-9.6-6.2-13.8c1.9,0.1,3.8,0.2,5.7,0.4c1,0.1,2,0.3,3,0.5
					c0.3,1.7,0.2,3.4,0.1,5C330.6,628.8,330.2,632.9,328.1,634.5z M303.1,662.6c-0.4,2.3-0.8,4.8-0.7,7.2c-3-1.7-3.8-4.9-4.8-8.1
					C299.4,662,301.2,662.3,303.1,662.6z M283.4,676.9c0.1,2.3,0.3,4.3,0.5,6.1c-2.8-1.3-3.8-4-4.8-6.8
					C280.5,676.3,281.9,676.6,283.4,676.9z M270.6,680.3c0.7-0.8,1.3-1.6,1.6-2.5c0.2-0.7,0.3-1.4,0.4-2.1c1.8,0.1,3.6,0.2,5.4,0.4
					c1.4,3.4,2.2,7.1,6.2,8.3c0,0,0,0,0.1,0c0.7,3.5,1.8,6.1,2.8,7.8C282,689.9,276.5,686.2,270.6,680.3z M307.5,694.8
					c-4.2,0.5-9.5,0.8-15.7-0.9c-4.6-4.9-5.9-12.5-6.4-16.6c3.5,0.8,6.9,1.5,10.1,1.4c-0.4-1.1-0.9-2.2-2.1-2.9
					c1,0.1,2.3-0.3,3.3-0.1c-0.7-1.2-1.7-2.4-2.5-3.8c1.5-0.4,3.5-1.6,2.7-3.5c-0.6-1.5-3.3-1-4.8-1.1c0.3-0.5,0.3-2,0.6-2.5
					c-3.9-0.7-4-1.9-6.4-4c0.8,0,1.7,0,2.5,0.1c2.2,0.2,4.3,0.4,6.4,0.6c1.6,4.4,2,9.4,7.2,11.1c0,0,0.1,0,0.1,0
					c0.3,1.6,0.9,3.2,2,4.5c2.3,2.8,6.3,4,9.5,5.5c1.6,0.8,3.3,1.6,4.6,2.9c0.1,0.1,0.2,0.3,0.4,0.4c-0.5,3.9-0.2,7.9,0.7,11.5
					C316.8,695.8,312.5,694.2,307.5,694.8z M301.6,732.2c-1.9-0.7-3.1-2.7-4.4-4.3c1.1-0.2,2.1-0.4,3.2-0.5c0.9-0.1,1.7-0.1,2.6-0.2
					c0.9,1.5,2.4,3.5,4.3,5.2C305.4,732.4,303.5,733,301.6,732.2z M395.4,635.5c0.5,0.1,1.1,0.2,1.7,0.4c-2.7,1.8-8,4.7-14.9,4.7
					c2-2.2,3.6-4.3,4.7-5.9C389.7,634.8,392.5,635,395.4,635.5z M379.6,636.2c-0.1-0.5-0.2-1-0.2-1.5c1.4-0.1,2.8-0.3,4.2-0.3
					c0.4,0,0.8,0,1.1,0c-1.2,1.4-2.4,2.7-3.6,3.9C380.5,637.8,379.9,637.1,379.6,636.2z M390.1,610.8c-2.2-1.5-3.7-3.8-5-6.1
					c1.8-0.3,3.6-0.6,5.4-0.7c1.7-0.1,3.5-0.1,5.2-0.1C394.1,606.3,392.2,608.8,390.1,610.8z M395.1,610.2c1.7-1.9,3.1-4.1,4.2-6.4
					c2.5,0,5,0.1,7.6,0.3C404.3,607.5,399.4,609.9,395.1,610.2z"/>
			</g>
			<g>
				<path class="st2" d="M729.8,611.4c0,0-5.3,14.7-20.7,17.5c-2.7,0.5-5.9,0.1-9.2-1c8.8-7,8.4-20.3,8.4-20.3l-3.6-1.4
					c-2.3,11.9-12,15.2-16.9,16.2c-6.7-4-13.4-9.1-19.3-13.7v-27.9c0-3.1,2.4-5,2.8-5c0.6,0.5,1.4,0.8,2.2,0.8
					c1.8,0,3.2-1.4,3.2-3.2c0-1-0.5-1.9-1.2-2.5c-0.3-1.1,0.4-2.5,0.7-3c0.1,0,0.1,0,0.2,0c10.5-1.1,14.3-10.6,14.5-12.7
					c0.3-2.1-2.2-2.1-2.2-2.1s-2.9,8.2-11.6,9.8c-1.5,0.3-3.3,0-5.2-0.5c4.9-3.9,4.7-11.4,4.7-11.4l-2-0.8c-1.3,6.6-6.6,8.5-9.3,9
					c-7.2-4.2-14.5-10.9-17.5-13.5c-1.7-1.5-3.7-2.4-5.6-3c-0.2-2.3-1.6-4.2-3.6-5.2c1.1-3.4,1.9-8.6,1.9-10c0-2.1-1.7-3.9-3.9-3.9
					s-3.9,2-3.9,4.1c0,1.3,0.7,5.6,1.7,9.6h-0.8c-3.6,0-6.5,2.4-6.5,6v0.3c0,0.1,0,0.3,0,0.4c-0.9,0.5-1.7,1.1-2.5,1.7
					c-3,2.7-10.4,9.5-17.6,13.8c-2.5-0.5-7.4-2.5-8.5-9l-1.9,0.8c0,0-0.2,7.1,4.1,11.1c-1.8,0.5-3.4,0.8-4.9,0.5
					c-8.5-1.6-11.4-9.8-11.4-9.8s-2.4,0-2.1,2.1c0.3,2.1,4,11.6,14.3,12.7c0.5,0.1,1.1,0,1.6,0c0.3,0.6,1,1.9,0.8,3
					c-0.8,0.6-1.3,1.5-1.3,2.5c0,1.8,1.5,3.2,3.3,3.2c0.8,0,1.6-0.3,2.2-0.8c0.4,0,2.2,2,2.3,5.3l-0.1-0.4v25.5
					c-5.9,5.4-14.1,12-22.2,16.7c-4.5-1-13-4.4-15-16.1l-3.2,1.4c0,0-0.2,12.8,7.4,19.9c-3.2,1-6.1,1.4-8.8,0.9
					c-15.1-2.8-20.3-17.5-20.3-17.5s-4.2,0-3.8,3.8c0.5,3.7,6.8,20,24.4,22.5c-0.3,0.2-0.6,0.6-1,0.8l1.4,1.2h4.3
					c0.5,2,1,2.5,0.6,3.8c-1.4,1-2.3,2.5-2.3,4.4c0,3.1,2.6,5.6,5.9,5.6c1.5,0,2-0.6,3-1.5c0.4,0,1.9,1.1,1.9,2.9v76.3
					c-2,2.2-0.6,6.6-0.4,7.5c-1.4,0.8-2.3,2.6-2.5,6.7c0,0-14.7,2.4-14.2,18.5l154.2-0.5c0.4-16.1-14.6-18.5-14.6-18.5
					c-0.2-4.1-1.3-5.9-2.7-6.7c-0.1-3.4-1.4-4.8-1.4-5.4v-76.4c0-2.8,2.7-4.4,3.1-4.4c1,0.9,2.1,1.4,3.6,1.4c3.1,0,5.6-2.5,5.6-5.6
					c0-1.8-0.9-3.4-2.2-4.5c-0.5-2,0.7-4.4,1.3-5.4c0.1,0,0.2,0,0.3,0c18.8-1.9,25.5-18.9,26-22.7
					C734.1,611.4,729.8,611.4,729.8,611.4z M607.2,738.1l-13.3,0.1c0.3-5.6-2.5-7.1-2.5-7.5v-12.5l15.8-1.5V738.1z M607.2,714
					l-15.8,1.4v-3.3l15.8-1.5V714z M607.2,708.3l-15.8,1.2v-58h15.8V708.3z M648.7,740.3h-27.6v-32.4c0,0,0-10.9,11.8-11.7
					c13.8,0.8,15.8,11.7,15.8,11.7V740.3z M682.2,732.5c-2,0.5-2.8,3.3-2.6,5.3l-17.2,0.1v-20.2l19.7,3.5V732.5z M682.2,718.2
					l-19.7-3.2v-3.5l19.7,3.5V718.2z M682.2,712.1l-19.7-2.9v-57.6h19.7V712.1z"/>
				<path class="st2" d="M632.9,696.2C632.7,696.2,632.9,696.2,632.9,696.2C632.9,696.2,633.1,696.2,632.9,696.2z"/>
			</g>
			<ellipse class="st2" cx="645.9" cy="441.3" rx="14.1" ry="17.8"/>
			<path class="st2" d="M662.9,755.1c-46.3,31.5-99.9,48-145.2,53c-3.7,0.4-7.4,0.7-11.2,0.7c-9.4,0.2-18.9,0.3-28.4,0.4
				c-5,0-9.9-0.2-14.9-0.8c-46.5-5.5-105.3-27.3-154.5-62.9c18-8.3,37.9-15.8,59.7-21.6C493.9,690,606.5,729.7,662.9,755.1z"/>
			<path class="st2" d="M344.9,396.2c0,1.5-0.9,2.7-2.1,2.7s-2.1-1.2-2.1-2.7s0.9-2.7,2.1-2.7S344.9,394.7,344.9,396.2z"/>
			<path class="st2" d="M362.7,401.2c0,1.5-0.9,2.7-2.1,2.7c-1.2,0-2.1-1.2-2.1-2.7s0.9-2.7,2.1-2.7
				C361.7,398.6,362.7,399.8,362.7,401.2z"/>
			<path class="st2" d="M422,321.6c0,1.5-0.9,2.7-2.1,2.7s-2.1-1.2-2.1-2.7s0.9-2.7,2.1-2.7S422,320.1,422,321.6z"/>
			<path class="st2" d="M699,558c0,1.5-0.9,2.7-2.1,2.7c-1.2,0-2.1-1.2-2.1-2.7c0-1.5,0.9-2.7,2.1-2.7C698,555.3,699,556.5,699,558z
				"/>
			<path class="st2" d="M706.2,550.8c0,1.5-0.9,2.7-2.1,2.7c-1.2,0-2.1-1.2-2.1-2.7c0-1.5,0.9-2.7,2.1-2.7
				C705.2,548.1,706.2,549.3,706.2,550.8z"/>
			<ellipse class="st2" cx="355" cy="387.5" rx="3.4" ry="4.3"/>
			<path class="st2" d="M351.6,545.8c0,3.1-2,5.6-4.4,5.6c-2.4,0-4.4-2.5-4.4-5.6c0-3.1,2-5.6,4.4-5.6
				C349.7,540.2,351.6,542.7,351.6,545.8z"/>
			<path class="st2" d="M601.2,308.5c0,3.1-2,5.6-4.4,5.6c-2.4,0-4.4-2.5-4.4-5.6s2-5.6,4.4-5.6
				C599.2,302.9,601.2,305.4,601.2,308.5z"/>
			<ellipse class="st3" cx="380.1" cy="290.7" rx="14.1" ry="17.7"/>
			<ellipse class="st2" cx="210.9" cy="604.4" rx="28.8" ry="36.4"/>
		</g>
		<path style="clip-path:url(#SVGID_00000165217588590383679760000002109984820730222993_);fill:#FFEEF1;" d="M420.6,391.3
			c10.8,5.4,23.9,10.6,34.4,4.7c3.8-2.2,8-5.8,12-4.5c0.4-0.8,0.7-1.7,1.2-2.4c3-4.7,8.5-7.7,14-7.6c3.4,0,6.9,1.3,8.8,4.1
			c1.8,2.8,1.1,7.3-2,8.6c1.1-2.4-0.7-5.4-3.2-6.2c-2.5-0.8-5.3,0.4-7,2.5c-1.6,2.1-2.2,4.8-2.1,7.4c0.1,4.4,2.1,8.6,5.2,11.7
			c6.9,3.4,15.9,3,21.7-2.3c1.8,6,10.3,8.7,15.2,4.8c0.5,7.8,7.2,14.3,14.8,16.1c7.6,1.8,15.7-0.3,22.5-4.2
			c6.8-3.9,12.5-9.4,18.1-14.8c4.3,3.6,10.7,4.4,15.7,1.9c5-2.5,8.3-8.1,8.1-13.6c4.5-7.1,14.2-8.9,22.7-8.3
			c8.4,0.6,17,2.9,25.3,1.2c7.5-1.5,14-6.2,21.1-9.1c7.1-2.9,16.1-3.8,21.8,1.4c-7.1-7.1-18-10.3-27.8-8.2
			c-8.1,1.8-17.1,6.7-24.1,2.2c-6-3.9-6.4-12.6-10.2-18.7c-3.1-4.8-8.7-8-14.4-8.1c-5.7-0.1-11.5,2.8-14.7,7.6
			c-8.8-7.2-23.4-5.8-30.6,3c-1.7-1.7-3.4-3.4-5.1-5.1c4.8-7,2.8-17.7-4.1-22.6c-5.1-3.6-12.4-3.6-17.8-0.6c1.7,3,2.7,6.5,2.5,9.9
			c-0.2,6.2-4,12.2-9.6,14.8c-5.6,2.7-12.8,1.7-17.3-2.4c-2.1-2-3.7-4.7-3.9-7.6c-0.2-2.9,1.1-6,3.6-7.5c2.5-1.5,6.1-1.1,7.9,1.1
			c1.8,2.2,1.3,6.2-1.3,7.5c1.9-1.3,1.8-4.5,0-5.9c-1.8-1.4-4.7-1-6.2,0.7c-1.6,1.7-1.8,4.3-1,6.4c0.9,2.1,2.7,3.8,4.8,4.7
			c3.3,1.5,7.3,1.4,10.6-0.2c3.2-1.7,5.7-4.9,6.3-8.5c0.6-3.1-0.1-6.3-1.6-9.1c-6.8-8.3-19.8-10.5-28.9-4.9
			c-9.2,5.7-13,18.6-8.5,28.4c-4.3-4.7-11.3-6.7-17.4-4.9c-6.1,1.8-10.9,7.4-11.9,13.7c-5.1-2.5-11.2,0.7-15.1,4.8
			c-3.9,4.1-7.1,9.2-12.1,11.8c-5.8,3-12.8,2-18.9,0c-6.2-2-12-5.1-18.4-6.1c-6.4-1-13.8,0.6-17.4,5.9
			C397.3,380.1,409.8,385.9,420.6,391.3z"/>
	</g>
	<g>
		<g>
			<g>
				<g>
					<g>
						<g>
							<g>
								<path class="st5" d="M468.7,763.4c0,0.8-0.1,1.9-0.3,3.2c-0.4,2.7-1.1,6.1-2,7.8c-2.1,4-5.7,4.6-9.7,6.8
									c-6.5,3.6-13.9,6.2-21.3,6.3c-0.5,0-1,0-1.5,0c-1.7,0-3.5-0.3-4.5-1.7c-0.6-1-0.7-2.1-0.4-3.3c0,0,0,0,0,0
									c0.1-0.6,0.4-1.2,0.6-1.7c1.2-2.5,2.8-4.8,4.7-6.8c1-1.1,2.1-2.2,3.3-3.3c1-0.9,1.8-1.6,2-1.8c1.8-1.5,6.2-5.5,14.2-12.7
									c0-0.6,0-1.2,0-1.8c0-2.1,0.1-4.2,0.1-6.3c0-2.7,0.1-5.4,0.1-8.1c4.7,0,9.3,0,14-0.1c0.1,2.7,0.1,5.5,0.2,8.2
									c0,2.1,0.1,4.2,0.1,6.3C468.6,757.4,468.7,760.4,468.7,763.4z"/>
								<path class="st6" d="M468.7,763.4c0.3,0.9,0.5,2.2,0.7,3.7c0.3,2.7,0,4.8-0.1,5.2c-0.3,1.9-2,4-12.6,8.9
									c0,0-12,5.8-21.4,6.3c-0.5,0-1,0-1.5,0c-1.7,0-3.5-0.3-4.5-1.7c-0.6-0.9-0.6-2.1-0.4-3.2c0,0,0,0,0-0.1
									c0.2-0.5,0.4-1.1,0.6-1.7c1.2-2.5,2.8-4.8,4.7-6.8c1-1.2,2.1-2.2,3.3-3.3c-1,1.2-3.4,4.3-2.4,6.1c1.3,2.5,7.9,1.1,10.3,0.6
									C450.6,776.4,459.3,773.4,468.7,763.4z"/>
							</g>
							<path class="st7" d="M468.5,754.5H454c0-2.1,0.1-4.2,0.1-6.3h14.3C468.4,750.3,468.5,752.4,468.5,754.5z"/>
						</g>
						<g>
							<g>
								<path class="st5" d="M541.6,785.9c-1,1.4-2.8,1.7-4.5,1.7c-0.5,0-1,0-1.5,0c-7.5-0.2-14.8-2.7-21.3-6.3
									c-4-2.2-7.6-2.8-9.7-6.8c-0.9-1.8-1.6-5.1-2-7.8c-0.2-1.3-0.3-2.4-0.3-3.2c0.1-3,0.1-6,0.2-9c0-2.1,0.1-4.2,0.1-6.3
									c0.1-2.7,0.1-5.5,0.2-8.2c4.7,0,9.3,0,14,0.1c0,2.7,0.1,5.4,0.1,8.1c0,2.1,0.1,4.2,0.1,6.3c0,0.6,0,1.2,0,1.8
									c8.1,7.2,12.5,11.2,14.2,12.7c0.3,0.2,1,0.9,2,1.8c1.1,1.1,2.3,2.2,3.3,3.3c1.9,2.1,3.5,4.3,4.7,6.8
									c0.3,0.5,0.5,1.1,0.6,1.7c0,0,0,0,0,0C542.3,783.7,542.2,784.9,541.6,785.9z"/>
								<path class="st6" d="M502.3,763.4c-0.3,0.9-0.5,2.2-0.7,3.7c-0.3,2.7,0,4.8,0.1,5.2c0.3,1.9,2,4,12.6,8.9
									c0,0,12,5.8,21.4,6.3c0.5,0,1,0,1.5,0c1.7,0,3.5-0.3,4.5-1.7c0.6-0.9,0.6-2.1,0.4-3.2c0,0,0,0,0-0.1
									c-0.2-0.5-0.4-1.1-0.6-1.7c-1.2-2.5-2.8-4.8-4.7-6.8c-1-1.2-2.1-2.2-3.3-3.3c1,1.2,3.4,4.3,2.4,6.1
									c-1.3,2.5-7.9,1.1-10.3,0.6C520.4,776.4,511.7,773.4,502.3,763.4z"/>
							</g>
							<path class="st7" d="M517.1,754.5h-14.6c0-2.1,0.1-4.2,0.1-6.3H517C517,750.3,517,752.4,517.1,754.5z"/>
						</g>
						<g>
							<g>
								<path class="st8" d="M531.5,555.1l-0.2,17.5l-0.1,10.9l-1.8,165.1h-40.4c-0.8-59.2-1.6-118.3-2.4-177.5
									c-0.8,59.2-1.6,118.3-2.4,177.5h-39.6l-1.8-165l-0.1-11l-0.2-17.5H531.5z"/>
							</g>
							<g>
								<path class="st9" d="M486.8,586.4c-14.7,1.4-29.4,2.9-44.1,4.3l-0.1-11h42.6C485.7,582,486.2,584.2,486.8,586.4z"/>
							</g>
							<g>
								<path class="st9" d="M531.3,579.8l-0.1,10.9c-14.8-1.4-29.6-2.9-44.4-4.3c0.4-2.2,0.7-4.4,1.1-6.6H531.3z"/>
							</g>
							<g>
								<path class="st9" d="M486.8,570.2c-0.8,54.4-1.7,108.7-2.5,163.1h-2.6l-0.7-163.2C482.9,570.1,484.8,570.1,486.8,570.2z"/>
							</g>
							<g>
								<path class="st9" d="M492.2,570.1l-0.7,163.3l-2.7-0.2c-0.8-54.4-1.7-108.8-2.5-163.2C488.3,570,490.2,570,492.2,570.1z"/>
							</g>
							<polygon class="st5" points="501.4,413.4 471.4,413.4 473.2,389.2 473.4,387.6 474.1,378.2 498.7,378.2 499.3,386.4 
								499.5,388.7 							"/>
							<g>
								<g>
									<path class="st5" d="M512.8,349.3c1-2.7,4.9-5.2,6.5-4.2c1.6,1,2.5,5.6,1.9,8.6c-0.7,3-3.4,8.3-4.4,9.3
										c-1,1-4.5,3.2-6.7,2.6L512.8,349.3z"/>
									<path class="st7" d="M513.7,347.6c-0.4,0.5-0.8,1.1-1,1.6l-2.7,16.3c1.4,0.4,3.4-0.4,4.9-1.2L513.7,347.6z"/>
									<path class="st5" d="M459.1,349.3c-1-2.7-4.9-5.2-6.5-4.2c-1.6,1-2.5,5.6-1.9,8.6c0.7,3,3.4,8.3,4.4,9.3
										c1,1,4.5,3.2,6.7,2.6L459.1,349.3z"/>
									<path class="st7" d="M458.2,347.6c0.4,0.5,0.8,1.1,1,1.6l2.7,16.3c-1.4,0.4-3.4-0.4-4.9-1.2L458.2,347.6z"/>
								</g>
								<path class="st7" d="M499.3,386.4c-1.3,1.4-2.4,2.4-3.3,3.2c-2.4,2-3.6,3-5.6,3.4c-1.2,0.2-1.2,0-4.6-0.1
									c-4.2,0-4.2,0.4-5.6,0c-1.1-0.4-2.3-1.4-4.8-3.5c-0.9-0.7-1.6-1.3-2.1-1.8l0.7-9.4h24.6L499.3,386.4z"/>
								<path class="st5" d="M514.9,337.9c-0.5,5.4-1.4,8.2-2.3,17.1c-0.3,3.5-1.2,6.9-1.2,10.3c0,0.6,0,1.8-0.2,3.2
									c-0.1,0.6-0.3,1.3-0.5,1.9c-0.5,1.5-1.2,2.6-1.9,3.7c-2.3,3.5-4.7,7-8.9,10.3c-1.8,1.4-2.7,1.9-5.4,4.1
									c-1.3,1.1-1.7,1.5-2.4,1.9c-1.6,0.9-3.4,1.1-4.9,1.1c-1,0-2,0-3,0c-1.6,0.1-3.3-0.1-4.9-1.1c-0.8-0.4-1.1-0.8-2.4-1.9
									c-2.7-2.3-3.6-2.7-5.4-4.1c-4.2-3.3-6.6-6.8-8.9-10.3c-0.7-1-1.4-2.1-1.9-3.7c-0.8-2.2-0.8-4.1-0.8-5v-0.1
									c0-3.5-0.9-6.9-1.2-10.3c-0.9-8.8-1.7-11.7-2.3-17.1c-0.9-9.6-1.7-17.5,1.4-23.7c5.7-11.5,22.7-13.6,27.6-14.1
									c0.1,0,0.2,0,0.3,0c0.1,0,0.2,0,0.3,0c4.9,0.4,21.9,2.5,27.6,14.1C516.6,320.5,515.8,328.3,514.9,337.9z"/>
								<path class="st10" d="M486,293.7c3.2-2,7.1-2.6,10.3-2.2c3.1,0.3,15.1,5.7,19.6,9.7c8.3,7.4,8,17.9,8.2,21.6
									c0.5,11-4.1,19.1-6.1,22.2c-0.7,0.5-1.6,1.1-2.4,2.1c-2.5,3-2.5,6.6-2.7,6.6c-0.3,0-0.7-6,0.5-12.5c0.2-1,0.5-2.7,0.2-4.9
									c-0.3-2-1-3.6-1.6-4.7c-1.3,3.5-3.2,6.6-3.9,6.5c-0.4-0.1-1.6-1.9-2.9-4.2c-2.4-4.3-3.1-5.9-4.1-7.5c0,0.8-2.2,7.7-3.1,7.7
									c-0.9,0-2-5-3.1-8.4c-1.1-3.5-3.8-8.9-4.3-8.8c-0.5,0.1-4.7,2.9-4.7,2.9s-4.2-2.8-4.7-2.9c-0.5-0.1-3.2,5.4-4.3,8.8
									c-1.1,3.5-2.2,8.5-3.1,8.4c-0.9,0-3.1-6.9-3.1-7.7c-1.1,1.6-1.7,3.2-4.1,7.5c-1.3,2.2-2.5,4.1-2.9,4.2
									c-0.7,0.1-2.6-3-3.8-6.5c-1.2,1.7-1.5,4.1-1.6,4.7c0,0.2,0,0.4,0,0.6c-0.1,1.2,0,2.2,0,2.6c0.3,3.2,0.9,5.6,0.6,8.7
									c-0.2,1.9-0.6,3.2-0.9,3.2c-0.4,0,0.2-3.3-1.7-5.1c-0.9-0.9-2-1.2-2.7-1.3c-1.9-3.2-6.3-11.2-5.8-22.1
									c0.2-3.9,0-14.3,8.2-21.6c4.5-4,16.4-9.4,19.5-9.7C478.8,291.1,482.7,291.7,486,293.7z"/>
							</g>
							<path class="st11" d="M465.7,398.6"/>
							<g>
								<g>
									<path class="st8" d="M537.5,585.9c-8.6-1.2-17.6-2.3-27-3.1c-8.3-0.7-16.4-1.3-24.2-1.6c-16.8,1.3-33.6,2.5-50.4,3.8
										c-0.2-58.5-0.4-117.1-0.6-175.6c10.1-1.9,20.2-3.8,30.3-5.7v-9.6c15.7-0.2,19.7,6.3,20.7,8.7c1-2.4,5-8.9,20.7-8.7v9.6
										c10.1,1.9,20.2,3.8,30.3,5.7C537.4,468.2,537.4,527,537.5,585.9z"/>
								</g>
								<line class="st11" x1="486.4" y1="402.8" x2="486.4" y2="581.2"/>
								<line class="st11" x1="476.4" y1="426" x2="496.4" y2="426"/>
								<line class="st11" x1="476.4" y1="475.2" x2="496.4" y2="475.2"/>
								<line class="st11" x1="476.4" y1="517.2" x2="496.4" y2="517.2"/>
								<line class="st11" x1="476.4" y1="559.1" x2="496.4" y2="559.1"/>
								<path class="st12" d="M486.4,404.5c0,0-7.1-9.8-20.7-6v-4.4c0,0,16.6-0.9,20.7,8.7V404.5z"/>
								<path class="st12" d="M486.4,404.5c0,0,7.1-9.8,20.7-6v-4.4c0,0-16.6-0.9-20.7,8.7V404.5z"/>
							</g>
							<g>
								<g>
									<path d="M506.8,346.3c-4.6,3.4-12.3,2.4-16.2-1.7c0,0,1.3-1.2,1.3-1.2C495.6,347.1,502,348.2,506.8,346.3L506.8,346.3z"/>
								</g>
							</g>
							<g>
								<g>
									<path d="M465.6,345.5c4.7,2.5,11,1.1,14.9-2.2c0,0,1.2,1.3,1.2,1.3C478.1,348.3,469.1,349.4,465.6,345.5L465.6,345.5z"/>
								</g>
							</g>
							<path class="st13" d="M479.4,378.4c0.2,0.4,2.6-0.7,7.2-0.7c4.1,0,6.2,0.9,6.4,0.5c0.2-0.5-2.8-2.8-6.3-3
								C482.6,375.1,479.2,377.8,479.4,378.4z"/>
							<g>
								<path class="st13" d="M482.5,368c2.2-1.1,4.8-1.1,7-0.1C487.3,369,484.7,369,482.5,368L482.5,368z"/>
							</g>
							<g>
								<path d="M493.5,355.9c0,0,0,0-0.1,0c-0.2-0.1-0.4-0.2-0.6-0.3c0.2-0.3,0.4-0.7,0.8-1.1c0.1-0.1,0.5-0.5,1-0.8
									c0.6-0.4,1.1-0.4,2.8-0.5c2.2-0.2,2.4-0.3,3-0.1c0.7,0.3,1.7,0.9,1.6,1.4c0,0.2-0.1,0.3-0.3,0.5c-0.7,0.7-1.5,0.8-1.5,0.9
									c0,0.1,1.2,0.2,2.1-0.4c0.6-0.4,0.9-1,1.1-1.3c0.3,0,0.8,0.1,1.4,0.2c0.8,0.1,1,0.2,1,0.1c0.1-0.1-1.2-0.8-2.5-1.3
									c-0.5-0.2-1.3-0.5-2.4-0.6c-0.4-0.1-1.1-0.1-2.9,0c-0.9,0.1-2.1,0.2-3.5,0.4c-0.5,0.3-1.3,0.8-2.1,1.5
									c-0.9,0.9-1.5,1.9-1.4,2c0.1,0.1,0.3-0.3,1-0.3c0.3,0,0.3,0,0.6,0C493,356.1,493.5,356,493.5,355.9z"/>
								<path d="M499.7,352.7c0.1,0.2,0.3,0.6,0.2,1c0,1-0.8,1.7-0.9,1.8c-0.7,0.6-1.5,0.5-2,0.5c-0.3,0-0.9,0-1.5-0.4
									c-0.3-0.2-0.8-0.5-1-1.2c-0.2-0.7,0.1-1.3,0.2-1.4c0.6-0.1,1.3-0.2,1.9-0.3C497.8,352.7,498.8,352.6,499.7,352.7z"/>
							</g>
							<g>
								<path d="M478.6,355.9c0,0,0,0,0.1,0c0.2-0.1,0.4-0.2,0.6-0.3c-0.2-0.3-0.4-0.7-0.8-1.1c-0.1-0.1-0.5-0.5-1-0.8
									c-0.6-0.4-1.1-0.4-2.8-0.5c-2.2-0.2-2.4-0.3-3-0.1c-0.7,0.3-1.7,0.9-1.6,1.4c0,0.2,0.1,0.3,0.3,0.5c0.7,0.7,1.5,0.8,1.5,0.9
									c0,0.1-1.2,0.2-2.1-0.4c-0.6-0.4-0.9-1-1.1-1.3c-0.3,0-0.8,0.1-1.4,0.2c-0.8,0.1-1,0.2-1,0.1c-0.1-0.1,1.2-0.8,2.5-1.3
									c0.5-0.2,1.3-0.5,2.4-0.6c0.4-0.1,1.1-0.1,2.9,0c0.9,0.1,2.1,0.2,3.5,0.4c0.5,0.3,1.3,0.8,2.1,1.5c0.9,0.9,1.5,1.9,1.4,2
									c-0.1,0.1-0.3-0.3-1-0.3c-0.3,0-0.3,0-0.6,0C479.2,356.1,478.6,356,478.6,355.9z"/>
								<path d="M472.5,352.7c-0.1,0.2-0.3,0.6-0.2,1c0,1,0.8,1.7,0.9,1.8c0.7,0.6,1.5,0.5,2,0.5c0.3,0,0.9,0,1.5-0.4
									c0.3-0.2,0.8-0.5,1-1.2c0.2-0.7-0.1-1.3-0.2-1.4c-0.6-0.1-1.3-0.2-1.9-0.3C474.4,352.7,473.4,352.6,472.5,352.7z"/>
							</g>
							<rect x="443.1" y="733" class="st12" width="41.3" height="17"/>
							<rect x="488.6" y="733" class="st12" width="41.9" height="17"/>
						</g>
					</g>
				</g>
			</g>
			<path class="st14" d="M393.4,331.5"/>
			<path class="st15" d="M482.6,719.2"/>
			<path class="st8" d="M435.4,409.3l-32.5-35.7c-6.2,4.6-12.4,9.2-18.6,13.8c-1.5,1.1-2.2,3.1-1.6,4.9c2.8,8.9,6.8,18.8,12.3,29.2
				c12.9,24.5,29.1,41.4,41.4,52.2C436,452.6,435.7,430.5,435.4,409.3z"/>
			<g>
				<g>
					<g>
						<path class="st5" d="M425.1,337.9c0,0,9.8-7.9,11.2-9.2c0,0,0.7-0.7,1.6-2.6c0,0,1.4-6.6,1.6-8.3c0.2-1.6,0.3-4.3,1-5.3
							c0.8-1,5.3-5.3,6.1-5.8c0.8-0.5,8.4-4.7,9.2-4.7c0.7,0,0.6,1.2,0.6,1.2s0.9-0.3,1.3,0c0.4,0.3-0.3,1.8-0.3,1.8s1.1,1.6,0,2.6
							c0,0,0.8,1.2-0.2,2.2c-0.9,1-3.3,2.7-3.3,2.7s-1.7,2.6-2.5,3.5c0,0,0.3,1.9,0.1,3.9c-0.2,2-0.1,6.5-0.2,9.4
							c-0.2,2.8-1.3,4.1-3.4,5.9c-2.1,1.9-6,6.5-8,9.9c-5.7,9.6-6.7,7.6-12.4,3.3C421.2,343.6,425.1,337.9,425.1,337.9z"/>
						<g>
							<g>
								<g>
									<path class="st7" d="M457.4,307.6c-6.1,4.1-5.4,3.5-9.7,9.4c0.4-1.9,1.8-4.1,3.3-5.6C453.1,310,455.5,308.5,457.4,307.6z"
										/>
									<path class="st7" d="M457.4,305c-2.6,1.8-6.1,3.5-8.4,5.6c-1.3,1.5-2.6,3.2-3.9,4.6c0.7-1.9,2.2-4.1,3.8-5.5
										C451.6,308.1,454.7,306.2,457.4,305z"/>
									<path class="st7" d="M456.4,303.2c-2.6,1.6-6,3.6-8.6,5.3c-1.8,1.8-3.5,3.9-5.4,5.6c1.1-2,3-4.2,4.8-5.9
										C450.2,306.4,453.5,304.5,456.4,303.2z"/>
								</g>
							</g>
						</g>
					</g>
				</g>
				<path class="st10" d="M461.8,305.6c0.2,1-0.6,2.9-1.3,3.3c-0.4,3.2-1.2,7.2-2.9,11.6c-2.4,6.4-5.7,11.1-8.3,14.2
					c-0.5-2.1-2.4-10.3,2.2-18.8C454.7,309.9,459.6,306.8,461.8,305.6z"/>
			</g>
			<path class="st8" d="M537.3,409.3c10.8-11.9,21.7-23.8,32.5-35.7c6.6,5.9,13.3,11.7,19.9,17.6c-2.9,9.5-7,20.4-13.2,32
				c-12.6,23.6-28.2,40.1-40.1,50.5C536.7,452.6,537,430.5,537.3,409.3z"/>
			<g>
				<g>
					<g>
						<path class="st5" d="M547.6,337.9c0,0-9.8-7.9-11.2-9.2c0,0-0.7-0.7-1.6-2.6c0,0-1.4-6.6-1.6-8.3c-0.2-1.6-0.3-4.3-1-5.3
							c-0.8-1-5.3-5.3-6.1-5.8c-0.8-0.5-8.4-4.7-9.2-4.7c-0.7,0-0.6,1.2-0.6,1.2s-0.9-0.3-1.3,0c-0.4,0.3,0.3,1.8,0.3,1.8
							s-1.1,1.6,0,2.6c0,0-0.8,1.2,0.2,2.2c0.9,1,3.3,2.7,3.3,2.7s1.7,2.6,2.5,3.5c0,0-0.3,1.9-0.1,3.9c0.2,2,0.1,6.5,0.2,9.4
							c0.2,2.8,1.3,4.1,3.4,5.9c2.1,1.9,6,6.5,8,9.9c5.7,9.6,6.7,7.6,12.4,3.3C551.5,343.6,547.6,337.9,547.6,337.9z"/>
						<g>
							<g>
								<g>
									<path class="st7" d="M515.2,307.6c6.1,4.1,5.4,3.5,9.7,9.4c-0.4-1.9-1.8-4.1-3.3-5.6C519.6,310,517.2,308.5,515.2,307.6z"
										/>
									<path class="st7" d="M515.3,305c2.6,1.8,6.1,3.5,8.4,5.6c1.3,1.5,2.6,3.2,3.9,4.6c-0.7-1.9-2.2-4.1-3.8-5.5
										C521.1,308.1,518,306.2,515.3,305z"/>
									<path class="st7" d="M516.3,303.2c2.6,1.6,6,3.6,8.6,5.3c1.8,1.8,3.5,3.9,5.4,5.6c-1.1-2-3-4.2-4.8-5.9
										C522.5,306.4,519.2,304.5,516.3,303.2z"/>
								</g>
							</g>
						</g>
					</g>
				</g>
				<path class="st10" d="M510.9,305c-0.2,1,0.6,2.9,1.3,3.3c3.2,4.3,4.4,8.2,5,11c1.3,6.7,1.7,8.8,3.6,11.8c0.8,1.2,1.5,2.1,2,2.6
					c0.5-2.1,2.2-9.6-1.7-17.6C518,309.5,513,306.2,510.9,305z"/>
				<path class="st8" d="M522.8,358.3c1.4,5.2,7.7,26.8,27.6,36.6c12.3,6.1,27.3,6.4,34.2,1.8c1.3-0.9,5.5-3.4,5.2-6.8
					c-0.2-2.3-1.5-4-2-4.6c-3.8-4.4-21.3-26.5-45.5-57.1c-2.7,6.1-6.4,13.1-11.6,20.3C528.1,352.2,525.4,355.4,522.8,358.3z"/>
				<path class="st12" d="M522.6,358.3c0.6,2.2,1.4,4.6,2.4,7.2c1,2.5,2,4.7,3.1,6.7c4.5-4.9,9.6-11.3,14.4-19.4
					c3.3-5.6,5.7-10.9,7.5-15.6c-2.6-3.3-5.1-6.5-7.7-9.8c-2.9,6.3-6.8,13.4-11.9,20.7C527.8,351.9,525.1,355.3,522.6,358.3z"/>
				<path class="st8" d="M449.5,358.3c-1.4,5.2-7.7,26.8-27.6,36.6c-12.3,6.1-27.3,6.4-34.2,1.8c-1.3-0.9-5.5-3.4-5.2-6.8
					c0.2-2.3,1.5-4,2-4.6c3.8-4.4,21.3-26.5,45.5-57.1c2.7,6.1,6.4,13.1,11.6,20.3C444.2,352.2,446.9,355.4,449.5,358.3z"/>
				<path class="st12" d="M449.7,358.3c-0.6,2.2-1.4,4.6-2.4,7.2c-1,2.5-2,4.7-3.1,6.7c-4.5-4.9-9.6-11.3-14.4-19.4
					c-3.3-5.6-5.7-10.9-7.5-15.6c2.6-3.3,5.1-6.5,7.7-9.8c2.9,6.3,6.8,13.4,11.9,20.7C444.5,351.9,447.1,355.3,449.7,358.3z"/>
			</g>
		</g>
	</g>
</g>
</svg>
