<?xml version="1.0" encoding="utf-8"?>
<!-- Generator: Adobe Illustrator 26.0.1, SVG Export Plug-In . SVG Version: 6.00 Build 0)  -->
<svg version="1.1" id="Layer_1" xmlns="http://www.w3.org/2000/svg" xmlns:xlink="http://www.w3.org/1999/xlink" x="0px" y="0px"
	 viewBox="0 0 818 734" style="enable-background:new 0 0 818 734;" xml:space="preserve">
<style type="text/css">
	.st0{fill:#FFD7DC;}
	.st1{fill:#FFEEF1;}
	.st2{fill:#D8989D;}
	.st3{fill:#FFFFFF;}
	.st4{fill:#B6DB97;}
	.st5{fill:#4A8755;}
	.st6{fill:#EBE356;}
	.st7{fill:#FAD4AF;}
	.st8{fill:#212121;}
	.st9{fill:#EFB78E;}
	.st10{fill:#9F0102;}
	.st11{fill:#84030A;}
	.st12{fill:#191513;}
	.st13{fill:#E09D6C;}
	.st14{fill:none;stroke:#F8AE38;stroke-width:2.2167;stroke-miterlimit:10;}
	.st15{fill:#F8AE38;}
	.st16{fill:#BC956B;}
	.st17{fill:#E08373;}
	.st18{fill:#F7CAA6;}
</style>
<g>
	<path class="st0" d="M271.7,181.4c-8.6,9.2-16.8,19.9-22.1,30.9c-11.2,23-12.1,55.7-8.8,80.8c2.3,17.3,12.5,41.4,7.5,58.9
		c-6.7,23.7-42.3,22.8-59.6,28.7c-15.9,5.5-31.1,18.9-39.2,35.3c-24.9,50.2,5.1,77.1,20.1,99.5c17.1,25.5-20.1,56.4,1.2,81.8
		c22.3,26.6,49.2,37.7,93.8,37.7c88.4,0,108.2,7.7,230.7-1.9c23.2-1.8,54.1-7.7,77.3-10.4c34.9-4.2,121.1-37.7,98.6-101.2
		c-16.6-47-104-39.8-74.7-104c19.1-42,55.1-100.3,10.4-137.5c-32.5-27-53.3-42.4-72.2-83.2c-20.7-44.6-49.6-68.8-95.2-73
		c-24.7-2.3-49.7-2.1-74,4c-29.6,7.4-58.8,21.6-82.5,42.7C279.3,173.6,275.5,177.4,271.7,181.4z"/>
	<g>
		<path class="st1" d="M578.3,473c0.4-4.8,0.5-9.5-0.3-14.2c-1.7-9.9-6.4-19.4-12.4-27.3c-5.7-7.5-11-12-18.8-17.4
			c-10.7-7.4-24.3-9.1-37-9.9c-9.9-0.6-19.9-0.5-29.8,0c-3.8,0.2-7.6,0.5-11.3,0.7c-1.7,0.1-3.3-0.3-4.8,0.4c2,0.9,3.9,2.7,5.5,4.2
			c4.4,4,7.8,9.7,11.2,14.5c4.3,6,8.1,12.3,12.7,18.1c8.2,10.1,20.5,18.8,33.6,20.8c12,1.9,25.7-1.2,36.9,4.7
			c0,0,11.1,5.9,12.9,26.4L578.3,473z"/>
		<path class="st1" d="M600,413.6c12.5-13.5,32.6-15.7,48.8-22.8c10.7-4.7,22.1-11.7,29.2-21.2c-2.5,12.8-0.7,26.6-2.3,39.7
			c-1.4,12.1-6.5,22.7-15.3,31.2c-16.7,16.1-44,10.7-59.4,28.5c-7.1,8.1-9.6,20.6-12.1,30c0-10.1-1.2-21.9-1.3-25.5
			C587.6,473.6,582.5,432.5,600,413.6z"/>
		<path class="st2" d="M579.7,438.1c-2.9-10.9-12.3-23.9-20.5-31.4c-8.8-8-19.4-9.9-29.6-15.3c-5.3-2.9-9.8-6.7-11.5-12.8
			c-4.8-16.7,0.6-34.6,1.6-51.5c0.5-9.4,1.2-18.3-2-27.1c0.5,1.3,7.1,4.3,8.5,5.2c2.6,1.8,5.1,3.7,7.8,5.5
			c12.4,8.2,26.4,13.5,36.2,25.2c8.5,10,14.1,22.9,17,35.6c1.6,6.9,2.5,14.1,2.8,21.2c0.3,9.5-0.8,19.8-3.1,29
			c-2.1,8.5-2,21.2-3.6,29.7L579.7,438.1z"/>
		<path class="st3" d="M554.8,360.2c5.2,11.8,10.6,24.6,15,36.9c4.4,12.3,7.9,24.1,9.3,33.8l0,0c2.8,17.5,2.8,36.6,2.8,55
			c0,7.1-0.7,117.6-0.7,124c0,0.7,0.6,1.3,1.3,1.3c0.7,0,1.3-0.6,1.3-1.3c0-6.4,0.7-116.9,0.7-124c0-18.4,0-37.6-2.8-55.4l-1.3,0.2
			l1.3-0.2c-1.4-10.1-5-22-9.4-34.4c-4.5-12.4-9.9-25.2-15.1-37.1c-0.3-0.7-1.1-1-1.8-0.7C554.8,358.8,554.5,359.5,554.8,360.2z"/>
		<path class="st3" d="M515.3,425.5c10,1.6,21.1,4.3,30.8,9c9.7,4.7,17.9,11.4,22.5,21.1c2.9,6.2,5.2,13.8,6,20.5
			c0.1,1.2,0.3,4,0.4,7.9c0.3,11.8,0.4,33.9,0.4,56.3c0,31.6-0.2,63.8-0.2,69.3c0,0.7,0.6,1.3,1.3,1.3c0.7,0,1.3-0.6,1.3-1.3
			c0-5.4,0.2-37.7,0.2-69.3c0-15,0-29.8-0.2-41.5c-0.1-5.9-0.1-10.9-0.2-14.9c-0.1-4-0.2-6.7-0.4-8.1c-0.9-7.1-3.2-14.9-6.2-21.4
			c-4.9-10.4-13.7-17.5-23.8-22.3c-10-4.9-21.4-7.6-31.5-9.2c-0.7-0.1-1.4,0.4-1.5,1.1C514.1,424.7,514.6,425.4,515.3,425.5
			L515.3,425.5z"/>
		<path class="st3" d="M590.3,609.9c0-4.1,0-15.6,0-30.4c0-19.6,0.1-45,0.4-66.8c0.2-10.9,0.4-20.9,0.8-28.8c0.2-4,0.4-7.4,0.6-10.2
			c0.2-2.8,0.5-4.9,0.7-6.1c3.1-14.6,10.1-27.8,21.1-38.3c11-10.5,25.9-18.3,45-21.8c0.7-0.1,1.2-0.8,1.1-1.6
			c-0.1-0.7-0.8-1.2-1.6-1.1c-19.5,3.6-35,11.6-46.4,22.5c-11.4,10.9-18.7,24.7-21.9,39.7c-0.3,1.4-0.6,3.6-0.8,6.4
			c-0.8,9.9-1.2,27.8-1.5,47.5c-0.3,19.8-0.3,41.3-0.3,58.5c0,14.8,0,26.3,0,30.4c0,0.7,0.6,1.3,1.3,1.3
			C589.7,611.3,590.3,610.7,590.3,609.9z"/>
	</g>
	<g>
		<g>
			<path class="st1" d="M528.5,584.8c4.6-0.4,9.2,1.3,8.7,6.6c10.9-4,18.2,5.9,18.2,13.1H290.9c-10.4-12.3,7.3-35.6,20.2-29.2
				c-2.2-8.1,5.6-13.3,10.7-11c-0.6,0.4,2.8-11,13.4-6.6c-0.3-11.2,9-14.4,17.6-8.9c1.1-9.3,14.3-17.7,20.3-7.3
				c-0.2-14.1,18.4-16.3,21.1-2.2c3.8-4.1,9.1-1,9.7,4.1c3.4-4.6,7.3-4.1,10.5,0.2c-9.2-23.2,26-30.2,27.5-8.9
				c5.4-9,17.3-3.4,15.1,5.3c5-4.5,12.9-2.3,12,5.5c7-7.4,24.9-7.8,26,7.9c4.2-4.5,9.7-3.3,10.8,3.2c6.2-0.8,11.1,1.9,9.7,8.7
				c2.9,0.2,6.9-0.1,7.9,6.9C523.4,572.2,533,574.5,528.5,584.8z"/>
			<path class="st1" d="M178.9,604.5c-4.7-18,22.6-28.1,29.9-10.3c-0.4-6.6-2.6-14,5.5-17.8c8-3.8,14,2.9,17.4,8.5
				c-9.1-15.4-5.1-34.6,16-39.8c22.5-5.5,33.5,6,34.1,29.2c1.6-10.7,21.2-13,22.3,2.2c8.2-2.8,9.5-11,21.1-9.9
				c10.2,0.9,15,7.5,18.9,16.5c0,0,23.4,0.8,18,21.4H178.9z"/>
		</g>
	</g>
	<path class="st2" d="M652,618.2c0,16.9-113.1,30.7-252.5,30.7C260,648.8,147,635.1,147,618.2c0-16.9,113.1-30.7,252.5-30.7
		C538.9,587.5,652,601.2,652,618.2z"/>
	<g>
		<g>
			<g>
				<g>
					<path class="st2" d="M647.5,101.9l0,0.2l-1.1,5.5c-0.2,0.9-0.6,1.8-0.9,2.7l-0.9,2.7c-0.3,0.9-0.8,1.7-1.2,2.6l-1.2,2.5
						c-0.4,0.8-1,1.6-1.5,2.4l-1.5,2.4c-0.5,0.8-1.2,1.5-1.8,2.2l-1.8,2.2c-0.6,0.7-1.3,1.3-2,2l-2,2c-1.5,1.2-3,2.3-4.5,3.4l-3.4,2
						l0.1,2c0.1,1.3-0.1,2.2-0.1,3.4l-0.1,0.8l0,0.4l0,0.2l0,0.3l0,0.1l-0.3,1.7c-0.2,1.2-0.4,2.3-0.7,3.4c-0.6,2.3-1.4,4.5-2.3,6.6
						l-1.6,3.1c-0.6,1-1.3,2-1.9,3c-1.4,1.9-2.8,3.8-4.5,5.4c-0.8,0.9-1.7,1.7-2.6,2.4c-0.9,0.8-1.8,1.6-2.8,2.2
						c-1.9,1.4-4,2.6-6.1,3.6c-1.1,0.5-2.1,1-3.2,1.4l-3.4,1.1c-2.3,0.6-4.6,1.1-6.9,1.3c-1.1,0.2-2.4,0.2-3.6,0.2l-1.8,0l-1.6-0.1
						l-1.6-0.1l-0.4,0l-0.4,0l-0.2-0.1l-0.9-0.2l-3.5-0.7c-1.1-0.2-2.2-0.7-3.3-1.1c-1.1-0.4-2.2-0.7-3.3-1.3l-3.2-1.5l-3-1.9
						c-1-0.6-1.9-1.3-2.8-2.1c-0.9-0.8-1.8-1.5-2.6-2.3c-1.6-1.7-3.2-3.4-4.5-5.4c-0.9-1.1-1.6-2.2-2.2-3.5
						c-0.7,0.4-1.5,0.9-2.3,1.2l-2.5,1.2c-0.8,0.3-1.7,0.6-2.6,1c-1.7,0.7-3.5,1.1-5.2,1.6c-1.8,0.4-3.6,0.7-5.4,1
						c-1.8,0.1-3.6,0.4-5.5,0.3l-2.8,0c-0.9,0-1.7-0.1-2.6-0.2l-1.3-0.1l-0.7-0.1l-0.3,0l-0.5-0.1l-2.7-0.5
						c-1.8-0.4-3.6-0.7-5.3-1.3c-1.7-0.5-3.4-1.1-5.2-1.8c-1.7-0.8-3.3-1.5-4.9-2.4c-1.6-0.9-3.1-1.8-4.6-2.9
						c-1.5-1-2.9-2.2-4.3-3.4c-1.3-1.2-2.7-2.5-3.9-3.9c-0.6-0.7-1.2-1.4-1.8-2.1c-0.6-0.7-1.1-1.4-1.6-2.2c-1.1-1.5-2-3.1-2.8-4.8
						c-0.5-1-0.9-2-1.3-3l-0.9,0l-0.9-0.1l-2-0.2l-2.1-0.4c-1.4-0.3-2.7-0.7-4-1.3c-1.3-0.5-2.5-1.2-3.7-1.9l-1.7-1.2l-1.6-1.3
						c-1-0.9-2-1.9-2.9-3c-0.5-0.5-0.9-1.1-1.3-1.7c-0.4-0.6-0.8-1.1-1.1-1.8c-0.7-1.2-1.3-2.5-1.8-3.8c-0.4-1.3-0.8-2.6-1.1-4
						c-0.2-0.7-0.2-1.4-0.3-2.1c-0.1-0.7-0.2-1.4-0.1-2.1c0-0.7,0-1.5,0.1-2.1l0.2-2c0.3-1.4,0.5-2.7,1-4c0.4-1.3,1-2.6,1.6-3.8
						l1-1.8c0.4-0.6,0.8-1.1,1.2-1.7c0.4-0.6,0.9-1.1,1.3-1.6c0.4-0.5,0.9-1,1.4-1.5c0.6-0.5,1.2-1.1,1.8-1.5c-0.4-1-0.8-2-1-3
						c-0.3-1.6-0.8-3.2-0.9-5c-0.1-0.9-0.2-1.7-0.2-2.6l0.1-2.3l0.1-1.1l0-0.3l0-0.3l0-0.2l0.1-0.6l0.4-2.5c0.4-1.6,0.7-3.3,1.4-4.8
						c0.5-1.6,1.3-3.1,2.1-4.6c0.9-1.4,1.7-2.9,2.8-4.2c1-1.4,2.2-2.6,3.4-3.7c1.3-1.1,2.5-2.3,4-3.1c1.4-1,2.9-1.8,4.3-2.6
						c1.6-0.7,3.1-1.4,4.7-1.8c1.6-0.5,3.2-0.8,4.9-1.1c1.7-0.1,3.3-0.4,5.1-0.3c1.8,0,3.2,0.2,4.8,0.4c1.9,0.4,3.3,0.8,5,1.2
						c0.7,0.2,1.3,0.5,1.9,0.8l0.4-1.3c0.4-1.3,1-2.6,1.5-3.9c0.5-1.3,1.2-2.5,1.8-3.8c0.6-1.3,1.4-2.5,2.1-3.6l1.1-1.8l1.3-1.7
						c0.9-1.1,1.7-2.3,2.7-3.3c1.8-2.1,4-4,6.1-5.9c1.1-0.8,2.2-1.7,3.4-2.5l3.6-2.2l3.8-1.9c1.3-0.6,2.6-1.1,4-1.6
						c2.7-0.9,5.4-1.7,8.3-2.2c1.4-0.3,2.8-0.5,4.3-0.6l2.1-0.2c0.7,0,1.5,0,2.2,0c1.4,0,3-0.1,4.3,0.1l2,0.2l1,0.1l0.7,0.1l0.5,0.1
						c2.8,0.4,5.6,1,8.3,1.9c1.3,0.5,2.7,0.9,4,1.5l2,0.8l1.9,1c2.6,1.3,5,2.8,7.3,4.5c1.1,0.8,2.2,1.8,3.3,2.7c1,1,2.1,1.9,3.1,2.9
						c1.9,2.1,3.8,4.2,5.4,6.6c0.8,1.2,1.6,2.4,2.2,3.6c0.7,1.2,1.3,2.5,1.9,3.7c0.7,1.3,1.1,2.6,1.6,3.9c0.3,0.7,0.5,1.4,0.7,2.1
						l2.6,0.2l0.5,0.1l0.3,0.1l0.6,0.1l1.2,0.2l2.4,0.5c1.6,0.5,3.2,0.9,4.7,1.4c1.5,0.6,3.1,1.2,4.6,1.9c1.4,0.8,2.9,1.5,4.3,2.4
						c1.3,0.9,2.8,1.7,4.1,2.8c1.3,1,2.6,2,3.7,3.2c1.2,1.1,2.4,2.3,3.4,3.6l1.6,1.9l1.4,2c1,1.3,1.8,2.8,2.6,4.2
						c0.9,1.4,1.5,2.9,2.1,4.5c0.7,1.5,1.1,3.1,1.6,4.6c0.5,1.6,0.8,3.2,1.1,4.8c0.3,1.6,0.4,3.3,0.6,4.9c0.1,1.7,0.1,3.4,0.1,5.1
						L647.5,101.9z"/>
					<path class="st2" d="M478,157l0,0.1c0,0,0,0.3-0.2,1c-0.1,0.6-0.5,2-1.1,3.2c-0.7,1.3-1.6,2.7-3.1,4c-1.4,1.3-3.3,2.5-5.5,3.4
						c-2.2,0.8-4.8,1.3-7.4,1.2c-0.7-0.1-1.3-0.1-2.1-0.2c-0.6-0.1-1.1-0.2-1.9-0.4c-1.5-0.3-2.8-0.8-4.1-1.5
						c-2.6-1.4-5.1-3.3-6.9-6c-1.8-2.7-2.7-6-2.1-9.6c0.2-1.2,0.8-3.2,1.6-4.5c0.8-1.4,1.9-2.6,3.1-3.6c2.4-2,5.3-3.1,8.1-3.7
						c2.8-0.5,5.7-0.3,8.1,0.2c2.7,0.7,4.8,1.7,6.7,3c1.9,1.3,3.4,2.8,4.5,4.4c1.1,1.6,1.7,3.2,2.1,4.5c0.3,1.4,0.4,2.5,0.3,3.3
						C478.1,156.5,478,157,478,157z"/>
					<path class="st2" d="M449,179.4c0-0.4,0-1-0.3-1.7c-0.2-0.7-0.6-1.5-1.1-2.3c-0.6-0.8-1.3-1.6-2.3-2.2c-0.5-0.3-1-0.7-1.6-0.9
						c-0.3-0.1-0.6-0.3-0.9-0.4c-0.3-0.1-0.5-0.1-0.8-0.2c-1.3-0.4-2.7-0.4-4.1-0.3c-1.4,0.2-3,0.6-4.3,1.7
						c-0.3,0.2-0.6,0.6-0.9,0.9c-0.3,0.3-0.6,0.6-0.9,1.1l-0.4,0.7c-0.1,0.3-0.2,0.5-0.2,0.6l-0.2,0.5l-0.1,0.2l0,0.1l0,0.1l0,0
						l-0.1,0.3c-0.3,1.9,0.3,3.9,1.3,5.3c1,1.5,2.3,2.4,3.8,3.1c0.7,0.3,1.7,0.7,2.2,0.7l0.9,0.2l0.4,0.1l0.3,0l0.5,0
						c1.4,0,2.7-0.3,3.8-0.7c1.1-0.4,2.1-1.1,2.8-1.8c0.7-0.7,1.3-1.4,1.7-2.3c0.4-0.9,0.4-1.2,0.5-1.5c0.1-0.3,0.1-0.5,0.1-0.5
						l0-0.2C449,180,449,179.8,449,179.4z M445.6,179.5C445.6,179.5,445.6,179.5,445.6,179.5L445.6,179.5c0-0.2,0-0.2,0-0.2
						L445.6,179.5z"/>
				</g>
				<g>
					<g>
						<path class="st4" d="M529.4,114.3c-1.5,0.6-2.6,1.8-3,3.4c-6.2-0.3-12.4-1.6-18.6-0.9c-6.2,0.7-12.2,2.6-18,4.6
							c-0.7-1.3-2.1-2.2-3.6-2.2c-0.6-5-1.2-10-1.8-15c1.4-1.1,2.5-2.8,2.9-4.6c5.8-2,11.7-3.9,17.9-4.6c6.2-0.7,12.4,0.6,18.6,0.9
							c0.8,1.5,2.2,2.9,3.8,3.4C528.1,104.4,528.7,109.4,529.4,114.3z"/>
						<g>
							<path class="st5" d="M513.6,105.9c0.5,4-1.7,8.4-6,8.8c-4.3,0.5-7.6-3.5-8-7.4c-0.4-3.8,1.5-9.4,5.9-10
								C509.9,96.6,513.1,102.1,513.6,105.9z"/>
							<g>
								<path class="st4" d="M509.5,109.4c-0.4,0.5-1,0.8-1.8,1c0.1,0.6,0.1,0.8,0.2,1.4c-0.5,0-0.8,0.1-1.3,0.1
									c-0.1-0.5-0.1-0.8-0.2-1.4c-0.6,0-1.1,0-1.6-0.1c-0.5-0.1-0.9-0.3-1.3-0.5c0.2-0.5,0.2-0.8,0.4-1.3c0.8,0.4,1.6,0.6,2.5,0.6
									c-0.1-1-0.2-1.6-0.3-2.6c-0.6-0.1-1.1-0.2-1.5-0.3c-0.4-0.1-0.8-0.3-1-0.6c-0.3-0.3-0.5-0.7-0.5-1.2c-0.1-0.4,0-0.9,0.2-1.3
									c0.2-0.4,0.5-0.8,0.8-1.1c0.4-0.3,0.8-0.5,1.3-0.7c-0.1-0.6-0.1-0.8-0.2-1.4c0.5-0.1,0.8-0.1,1.3-0.1
									c0.1,0.5,0.1,0.8,0.2,1.4c0.5,0,1,0.1,1.4,0.3c0.4,0.2,0.8,0.4,1.2,0.6c-0.2,0.5-0.2,0.7-0.4,1.2c-0.7-0.5-1.4-0.7-2.1-0.8
									c0.1,1.1,0.2,1.6,0.3,2.7c0.6,0.1,1.1,0.2,1.4,0.4c0.4,0.1,0.7,0.4,1,0.7c0.3,0.3,0.5,0.7,0.5,1.3
									C510.1,108.4,510,108.9,509.5,109.4z M505,104.9c0.2,0.1,0.5,0.3,0.9,0.3c-0.1-1-0.2-1.4-0.3-2.4c-0.3,0.1-0.6,0.3-0.8,0.6
									c-0.2,0.2-0.2,0.5-0.2,0.9C504.7,104.5,504.8,104.7,505,104.9z M508.3,108.6c0.2-0.2,0.2-0.5,0.2-0.8c0-0.3-0.1-0.5-0.4-0.6
									c-0.2-0.1-0.5-0.3-0.9-0.3c0.1,0.9,0.2,1.3,0.3,2.2C507.8,109,508.1,108.8,508.3,108.6z"/>
							</g>
							<path class="st5" d="M523.1,94.1c-6.1-0.4-12.1-1.6-18.2-0.9c-6,0.7-11.9,2.5-17.5,4.5c-1.8,0.6-3.7,1.3-5.5,2
								c0.2,1.9,0.5,3.8,0.7,5.6c0.6,4.8,1.2,9.5,1.8,14.3c0.2,1.9,0.5,3.7,0.7,5.6c0,0,0,0,0,0c1.8-0.7,3.5-1.4,5.3-2c0,0,0,0,0,0
								c5.7-2,11.6-3.8,17.7-4.5c6.1-0.7,12.2,0.5,18.2,0.9c1.9,0.1,3.8,0.1,5.7-0.2c-0.2-1.9-0.5-3.8-0.7-5.6
								c-0.6-4.8-1.2-9.5-1.8-14.3c-0.2-1.9-0.5-3.8-0.7-5.6C526.9,94.1,525,94.2,523.1,94.1z M529.4,114.3c-1.5,0.6-2.6,1.8-3,3.4
								c-6.2-0.3-12.4-1.6-18.6-0.9c-6.2,0.7-12.2,2.6-18,4.6c-0.7-1.3-2.1-2.2-3.6-2.2c-0.6-5-1.2-10-1.8-15
								c1.4-1.1,2.5-2.8,2.9-4.6c5.8-2,11.7-3.9,17.9-4.6c6.2-0.7,12.4,0.6,18.6,0.9c0.8,1.5,2.2,2.9,3.8,3.4
								C528.1,104.4,528.7,109.4,529.4,114.3z"/>
						</g>
					</g>
				</g>
				<path class="st6" d="M586.5,60.3c-0.1,0.2-0.2,0.3-0.4,0.4c-0.5,0.5-1.1,1-1.9,1.4c-1.6,0.7-3,0.8-4.7,0.1
					c-0.6-0.3-1.2-0.6-1.7-1l4.4-1.9l-0.9-2.1l-5,2.2c-0.1-0.2-0.3-0.5-0.4-0.7c-0.1-0.3-0.2-0.6-0.3-0.9l4.9-2.2l-0.9-2.1l-4.3,1.9
					c0-0.6,0.2-1.3,0.4-1.9c0.6-1.7,1.6-2.7,3.2-3.4c0.6-0.3,1.3-0.4,2.1-0.5l0-2.5c-1.1,0-2,0.1-3,0.6c-2.6,1.1-4.2,2.9-4.9,5.6
					c-0.3,1.1-0.4,2.2-0.3,3.2l-2,0.9l0.9,2.1l1.6-0.7c0.1,0.3,0.2,0.6,0.4,0.9c0.1,0.2,0.2,0.5,0.3,0.7l-1.5,0.7l0.9,2.1l2-0.9
					c0.9,1,2,1.8,3.3,2.3c2.3,0.9,4.4,0.8,6.6-0.2c1.1-0.5,2-1.1,2.8-2L586.5,60.3z"/>
				<path class="st6" d="M553.6,133.4c-0.1,0.2-0.2,0.3-0.4,0.4c-0.5,0.5-1.1,1-1.9,1.4c-1.6,0.7-3,0.8-4.7,0.1
					c-0.6-0.3-1.2-0.6-1.7-1l4.4-1.9l-0.9-2.1l-5,2.2c-0.1-0.2-0.3-0.5-0.4-0.7c-0.1-0.3-0.2-0.6-0.3-0.9l4.9-2.2l-0.9-2.1l-4.3,1.9
					c0-0.6,0.2-1.3,0.4-1.9c0.6-1.7,1.6-2.7,3.2-3.4c0.6-0.3,1.3-0.4,2.1-0.5l0-2.5c-1.1,0-2,0.1-3,0.6c-2.6,1.1-4.2,2.9-4.9,5.6
					c-0.3,1.1-0.4,2.2-0.3,3.2l-2,0.9l0.9,2.1l1.6-0.7c0.1,0.3,0.2,0.6,0.4,0.9c0.1,0.2,0.2,0.5,0.3,0.7l-1.5,0.7l0.9,2.1l2-0.9
					c0.9,1,2,1.8,3.3,2.3c2.3,0.9,4.4,0.8,6.6-0.2c1.1-0.5,2-1.1,2.8-2L553.6,133.4z"/>
				<g>
					<g>
						<path class="st5" d="M538.7,75.5c-2.3,0.9-4.9,1-7.9,0.2l-2,4.8l-4.4-1.9l2-4.7c-1.9-1-3.5-2.1-4.9-3.4
							c-1.4-1.3-2.5-2.8-3.3-4.3l3.6-3.3c1.7,3,3.9,5.3,6.8,6.7l3.8-9c-1.7-1.3-3.1-2.6-4.2-3.7c-1.1-1.2-1.8-2.5-2.2-4.1
							c-0.4-1.6-0.2-3.3,0.6-5.2c0.7-1.6,1.7-2.8,3-3.8c1.3-1,2.9-1.6,4.6-1.8c1.8-0.3,3.6-0.1,5.5,0.4l2-4.8l4.4,1.9l-2,4.8
							c1.6,0.9,3,2,4.2,3.2c1.2,1.2,2.1,2.5,2.8,3.9l-3.6,3.3c-1.4-2.6-3.2-4.6-5.5-6l-4,9.4c1.7,1.3,3.1,2.5,4.2,3.6
							c1,1.1,1.7,2.4,2.1,3.9c0.4,1.5,0.2,3.2-0.6,5C542.7,72.9,541,74.6,538.7,75.5z M532.3,52.6c0.4,0.9,1.2,1.9,2.3,2.8l3.6-8.4
							c-1.4-0.3-2.6-0.2-3.6,0.3c-1,0.5-1.8,1.2-2.3,2.4C531.8,50.7,531.8,51.7,532.3,52.6z M535.8,70.7c0.9-0.4,1.6-1.2,2.1-2.4
							c0.4-0.9,0.4-1.8,0-2.6c-0.4-0.8-1.1-1.7-2.2-2.6l-3.3,7.8C533.8,71.3,534.9,71.2,535.8,70.7z"/>
					</g>
				</g>
				<g>
					<g>
						<path class="st5" d="M610.9,106.4c-1.5,0.6-3.1,0.6-5,0.1l-1.3,3l-2.8-1.2l1.3-3c-1.2-0.6-2.2-1.3-3.1-2.2
							c-0.9-0.8-1.6-1.7-2.1-2.7l2.3-2.1c1.1,1.9,2.5,3.3,4.3,4.2l2.4-5.7c-1.1-0.8-2-1.6-2.7-2.3c-0.7-0.7-1.1-1.6-1.4-2.6
							c-0.3-1-0.1-2.1,0.4-3.2c0.4-1,1-1.8,1.9-2.4c0.8-0.6,1.8-1,2.9-1.1c1.1-0.2,2.3-0.1,3.5,0.3l1.3-3l2.8,1.2l-1.3,3
							c1,0.6,1.9,1.3,2.7,2c0.8,0.8,1.3,1.6,1.7,2.4l-2.3,2.1c-0.9-1.7-2-2.9-3.5-3.8l-2.5,5.9c1.1,0.8,2,1.6,2.6,2.3
							c0.7,0.7,1.1,1.5,1.3,2.5c0.2,0.9,0.1,2-0.4,3.1C613.4,104.8,612.3,105.8,610.9,106.4z M606.8,92c0.3,0.6,0.8,1.2,1.4,1.8
							l2.2-5.3c-0.9-0.2-1.6-0.1-2.3,0.2c-0.6,0.3-1.1,0.8-1.4,1.5C606.5,90.8,606.5,91.4,606.8,92z M609.1,103.4
							c0.6-0.3,1-0.8,1.3-1.5c0.2-0.6,0.2-1.1,0-1.6c-0.3-0.5-0.7-1.1-1.4-1.6l-2.1,4.9C607.8,103.7,608.5,103.7,609.1,103.4z"/>
					</g>
				</g>
				<path class="st3" d="M568.4,96.3l-0.6,4.3L552,98.5l0.4-2.8c1.9-0.5,4.3-2.2,4.6-4.6c0.1-0.5,0.1-0.9,0.1-1.4l-3.4-0.5l0.5-3.6
					l2.8,0.4c-0.1-0.9,0-1.9,0.1-2.9c0.6-4.4,4.2-6.8,8.8-6.2c1.9,0.3,3.3,0.9,4,1.4l-1.4,3.9c-0.6-0.5-1.6-0.8-2.8-1
					c-2.5-0.3-3.4,1.2-3.7,2.8c-0.1,0.9-0.1,1.8,0,2.6l4.8,0.6l-0.5,3.6l-4.3-0.6c-0.1,0.9-0.3,1.7-0.6,2.4c-0.4,0.8-1.1,1.6-2,2.2
					l0,0.1L568.4,96.3z"/>
				<path class="st3" d="M600,155.5l-0.4,2.9l-10.7-1.4l0.3-1.9c1.3-0.4,2.9-1.5,3.1-3.1c0-0.3,0.1-0.6,0.1-0.9l-2.3-0.3l0.3-2.4
					l1.9,0.3c0-0.6,0-1.3,0.1-1.9c0.4-3,2.8-4.6,6-4.2c1.3,0.2,2.2,0.6,2.7,0.9L600,146c-0.4-0.3-1-0.6-1.9-0.7
					c-1.7-0.2-2.3,0.8-2.5,1.9c-0.1,0.6-0.1,1.2,0,1.8l3.2,0.4l-0.3,2.4l-2.9-0.4c-0.1,0.6-0.2,1.1-0.4,1.6
					c-0.3,0.6-0.7,1.1-1.4,1.5l0,0L600,155.5z"/>
				<g>
					<path class="st5" d="M577,138.9c-0.7-0.1-1.2-0.7-1.2-1.4l0-0.2c0.1-3,1.5-6,4.6-8.9c2.8-2.5,4.4-4.5,4.8-6.9
						c0.4-2.8-1.1-4.8-4.5-5.3c-1.3-0.2-2.7-0.1-3.9,0.2c-1,0.3-2-0.3-2.3-1.4v0c-0.2-0.9,0.3-1.9,1.3-2.2c1.9-0.6,4.2-0.8,6.4-0.5
						c6.2,0.8,8.5,5,8,9.1c-0.5,3.7-2.9,6-5.9,8.8c-2.7,2.5-3.9,4.7-4.1,7.5l0,0c-0.1,0.8-0.8,1.3-1.5,1.2L577,138.9z M573.7,145.5
						c0.5-1.6,1.9-2.6,3.6-2.4c1.9,0.3,3,1.8,2.7,3.8c-0.2,1.6-1.2,2.7-2.7,2.9C574.9,150.2,573,147.8,573.7,145.5z"/>
				</g>
				<g>
					<path class="st5" d="M490.8,78.6c-0.3,0-0.5-0.3-0.5-0.6l0-0.1c0-1.2,0.6-2.4,1.8-3.5c1.1-1,1.8-1.8,1.9-2.7
						c0.1-1.1-0.4-1.9-1.8-2.1c-0.5-0.1-1.1,0-1.5,0.1c-0.4,0.1-0.8-0.1-0.9-0.5v0c-0.1-0.4,0.1-0.8,0.5-0.9
						c0.7-0.2,1.7-0.3,2.5-0.2c2.5,0.3,3.4,2,3.1,3.6c-0.2,1.5-1.1,2.4-2.3,3.5c-1.1,1-1.6,1.9-1.6,3l0,0c0,0.3-0.3,0.5-0.6,0.5
						L490.8,78.6z M489.5,81.3c0.2-0.6,0.7-1,1.4-0.9c0.7,0.1,1.2,0.7,1.1,1.5c-0.1,0.6-0.5,1.1-1.1,1.2
						C490,83.1,489.2,82.2,489.5,81.3z"/>
				</g>
			</g>
		</g>
	</g>
</g>
<g>
	<g>
		<g>
			<g>
				<g>
					<g>
						<g>
							<path class="st7" d="M380.7,609.9c0,0.7-0.1,1.7-0.3,2.9c-0.4,2.5-1,5.6-1.9,7.2c-1.9,3.7-5.3,4.2-8.9,6.3
								c-6,3.4-12.8,5.7-19.7,5.8c-0.5,0-0.9,0-1.4,0c-1.5,0-3.3-0.3-4.1-1.6c-0.6-0.9-0.6-1.9-0.3-3c0,0,0,0,0,0
								c0.1-0.5,0.3-1.1,0.6-1.6c1.1-2.3,2.6-4.4,4.3-6.3c0.9-1.1,2-2.1,3-3c0.9-0.8,1.6-1.5,1.8-1.7c1.6-1.4,5.7-5,13.1-11.7
								c0-0.5,0-1.1,0-1.6c0-1.9,0.1-3.8,0.1-5.8c0-2.5,0.1-5,0.1-7.5c4.3,0,8.6,0,12.9-0.1c0.1,2.5,0.1,5,0.2,7.6
								c0,1.9,0.1,3.8,0.1,5.8C380.6,604.4,380.7,607.2,380.7,609.9z"/>
							<path class="st8" d="M380.7,609.9c0.2,0.8,0.5,2,0.6,3.4c0.2,2.5,0,4.4-0.1,4.8c-0.3,1.7-1.8,3.7-11.6,8.2
								c0,0-11.1,5.4-19.7,5.8c-0.5,0-0.9,0-1.4,0c-1.5,0-3.3-0.3-4.1-1.6c-0.6-0.9-0.6-1.9-0.3-3c0,0,0,0,0,0
								c0.2-0.5,0.4-1,0.6-1.6c1.1-2.3,2.6-4.4,4.3-6.3c0.9-1.1,2-2.1,3-3c-0.9,1.1-3.1,3.9-2.2,5.6c1.2,2.3,7.3,1,9.5,0.6
								C364,621.8,372,619.1,380.7,609.9z"/>
						</g>
						<path class="st9" d="M380.5,601.7h-13.4c0-1.9,0.1-3.8,0.1-5.8h13.2C380.4,597.8,380.5,599.7,380.5,601.7z"/>
					</g>
					<g>
						<g>
							<path class="st7" d="M447.9,630.6c-0.9,1.3-2.6,1.5-4.1,1.6c-0.5,0-0.9,0-1.4,0c-6.9-0.1-13.6-2.5-19.7-5.8
								c-3.7-2.1-7-2.6-8.9-6.3c-0.8-1.6-1.5-4.7-1.9-7.2c-0.2-1.2-0.2-2.2-0.3-2.9c0.1-2.8,0.1-5.5,0.2-8.3c0-1.9,0.1-3.8,0.1-5.8
								c0.1-2.5,0.1-5,0.2-7.6c4.3,0,8.6,0,12.9,0.1c0,2.5,0.1,5,0.1,7.5c0,1.9,0.1,3.9,0.1,5.8c0,0.5,0,1.1,0,1.6
								c7.4,6.7,11.5,10.3,13.1,11.7c0.2,0.2,0.9,0.8,1.8,1.7c1.1,1,2.1,2,3,3c1.7,1.9,3.3,4,4.3,6.3c0.2,0.5,0.5,1,0.6,1.6
								c0,0,0,0,0,0C448.5,628.6,448.4,629.7,447.9,630.6z"/>
							<path class="st8" d="M411.6,609.9c-0.2,0.8-0.5,2-0.6,3.4c-0.2,2.5,0,4.4,0.1,4.8c0.3,1.7,1.8,3.7,11.6,8.2
								c0,0,11.1,5.4,19.7,5.8c0.5,0,0.9,0,1.4,0c1.5,0,3.3-0.3,4.1-1.6c0.6-0.9,0.6-1.9,0.3-3c0,0,0,0,0,0c-0.2-0.5-0.4-1-0.6-1.6
								c-1.1-2.3-2.6-4.4-4.3-6.3c-0.9-1.1-2-2.1-3-3c0.9,1.1,3.1,3.9,2.2,5.6c-1.2,2.3-7.3,1-9.5,0.6
								C428.3,621.8,420.3,619.1,411.6,609.9z"/>
						</g>
						<path class="st9" d="M425.2,601.7h-13.4c0-1.9,0.1-3.8,0.1-5.8h13.2C425.2,597.8,425.2,599.7,425.2,601.7z"/>
					</g>
					<g>
						<g>
							<path class="st10" d="M438.5,418.1l-0.2,16.1l-0.1,10l-1.7,152.1h-37.2c-0.7-54.5-1.5-109-2.2-163.5
								c-0.7,54.5-1.5,109-2.2,163.5h-36.5l-1.7-152l-0.1-10.1l-0.2-16.1H438.5z"/>
						</g>
						<g>
							<path class="st11" d="M397.3,446.8c-13.5,1.3-27.1,2.7-40.6,4l-0.1-10.1h39.2C396.3,442.8,396.8,444.8,397.3,446.8z"/>
						</g>
						<g>
							<path class="st11" d="M438.3,440.7l-0.1,10c-13.6-1.3-27.2-2.6-40.9-3.9c0.3-2,0.7-4.1,1-6.1H438.3z"/>
						</g>
						<g>
							<path class="st11" d="M397.3,431.9c-0.8,50.1-1.6,100.1-2.3,150.2h-2.4l-0.6-150.3C393.7,431.8,395.5,431.9,397.3,431.9z"/>
						</g>
						<g>
							<path class="st11" d="M402.3,431.8l-0.6,150.4l-2.5-0.1c-0.8-50.1-1.5-100.2-2.3-150.3C398.8,431.8,400.5,431.8,402.3,431.8z
								"/>
						</g>
						<g>
							<path class="st12" d="M419.3,248.3c-1.3,2.4-3.3,5.4-6.7,7.7c-0.6,0.4-1.1,0.7-1.7,1c-0.2-1.7-0.7-7.1,2.6-12.6
								c2.7-4.5,6.4-6.7,8-7.6C420.9,240.6,420.1,244.5,419.3,248.3z"/>
							<g>
								<path class="st7" d="M384.8,280.6c8.7-0.9,17.4-1.8,26.1-2.7c-0.3-3.6-0.5-7.5-0.6-11.5c-0.1-4.2,0-8.2,0.2-11.9
									c-4.6,1.7-10.8,3.4-18.1,3.9c-2.9,0.2-5.7,0.1-8.1-0.1c0.2,2.6,0.4,5.2,0.5,7.9C384.9,271.2,384.9,276,384.8,280.6z"/>
								<path class="st9" d="M384.2,258.2c0.2,2.6,0.3,5.3,0.5,7.9c0.8,0.9,2,2.2,4,3c1.2,0.5,3.5,1.2,8.3,0.1
									c5.7-1.3,10.2-4.2,13.2-6.6c0-2.5-0.1-5.1-0.1-7.6c-4.7,1.5-10.7,2.9-17.8,3.3C389.4,258.4,386.7,258.4,384.2,258.2z"/>
								<path class="st7" d="M391.7,179.9c26-2,31.4,15.3,32.1,25.4c0.4,4.5,0.6,7.8,0.4,12.6c-0.3,5.5-0.6,12.7-3.3,20.8
									c-2,6-4.8,14.3-12.6,20.7c-2.4,2-13.4,10.3-21.7,6.8c-2.5-1.1-4.7-4.5-9.1-11.3c-2.3-3.5-6.5-7.6-8.3-12.7
									c-4.7-13.4-4.6-22.2-5.4-32.3C363.1,199.9,365.7,181.9,391.7,179.9z"/>
								<path class="st12" d="M387.2,178.1c-3-0.4-8.8-0.7-14.5,2.2c-14.4,7.4-13.8,27.7-13.8,29c0.4,10.5,5.6,18.7,6.4,18.5
									c0.5-0.1-0.5-4,0.2-10.5c0.1-1.3,0.4-2.9,1-4.9c0.5-1.8,1.2-3.2,1.8-4.4c1.3,5.7,2,7,2.4,6.9c0.6-0.1,0.2-3.4,1.5-8
									c1.3-4.5,3.8-9,5.2-8.7c1.5,0.3,1.1,6.1,2.2,6.2c0.5,0,0.7-1.7,2.3-3.7c0.8-1,2.1-2.6,3.4-2.5c1.4,0.1,2.2,2,4.8,7.6
									c3,6.4,3.7,7.5,4.3,7.5c0.7-0.1,1.6-1.4,2.3-7.5c1.1,1.5,1.8,2.9,4.5,6.8c1.4,2,2.6,3.7,3,3.7c0.6,0,2.2-3,3.2-6.4
									c0.7,1,1.5,2.4,1.9,4.3c0.4,1.9,0,2.5,0.1,4.1c0.3,3.2,2.3,3.7,4.4,7.9c2,4,1.6,6.2,2.7,6.5c1.7,0.4,4.9-4.1,5.1-6.5
									c0.1-1.1-0.1,8.4-1.7,15.5c-1.4,6.6-2.5,8.9-2.2,9c0.7,0.3,12-14.5,12.5-33.6c0.1-3.7,0.6-21.8-12.2-33.7
									c-2.6-2.5-9.1-8.4-18.6-8.6C397.3,174.8,392.6,175.1,387.2,178.1z"/>
							</g>
							<g>
								<g>
									<path d="M405.9,224.9c-4.9-3.4-10.7-5.5-16.6-6.3c0,0,0.2-1.6,0.2-1.6C395.5,217.6,401.9,220.5,405.9,224.9L405.9,224.9z"
										/>
								</g>
							</g>
							<g>
								<g>
									<path d="M368.8,227.7c2.4-4.2,6.1-7.7,10.6-9.6c0,0,0.6,1.4,0.6,1.4c-3.1,1.5-6.1,3.3-8.7,5.7
										C370.5,226,369.7,226.9,368.8,227.7C368.9,227.8,368.8,227.7,368.8,227.7L368.8,227.7z"/>
								</g>
							</g>
							<path class="st13" d="M400.1,253.7c-0.1,0.4-3.9-0.6-9.8,0.5c-4.2,0.8-6.7,2.2-6.9,1.8c-0.2-0.4,2.6-2.9,6.3-3.8
								C395.1,250.9,400.2,253.2,400.1,253.7z"/>
							<g>
								<path class="st13" d="M391.4,244.8c-2,1.1-4.4,1.3-6.6,0.5C386.8,244.1,389.2,243.9,391.4,244.8L391.4,244.8z"/>
							</g>
							<g>
								<path d="M379.1,232.6C379.1,232.6,379.2,232.6,379.1,232.6c0.2-0.2,0.4-0.3,0.5-0.4c-0.2-0.3-0.4-0.6-0.8-0.9
									c-0.1-0.1-0.5-0.4-0.9-0.6c-0.6-0.3-1-0.2-2.3-0.2c-1.8,0.1-1.9,0-2.4,0.3c-0.5,0.3-1.2,1-1.1,1.5c0,0.2,0.2,0.3,0.3,0.5
									c0.6,0.6,1.3,0.5,1.3,0.6c0,0.1-0.9,0.4-1.7-0.1c-0.5-0.3-0.8-0.8-1-1.1c-0.3,0.1-0.7,0.2-1.1,0.4c-0.6,0.2-0.8,0.3-0.8,0.3
									c-0.1-0.1,0.8-0.9,1.8-1.5c0.4-0.2,1-0.6,1.8-0.9c0.3-0.1,0.8-0.2,2.3-0.3c0.7,0,1.7-0.1,2.9-0.1c0.4,0.2,1.1,0.6,1.8,1.2
									c0.8,0.7,1.5,1.6,1.4,1.7c0,0.1-0.3-0.2-0.8-0.2c-0.2,0-0.2,0-0.5,0.1C379.6,232.8,379.2,232.7,379.1,232.6z"/>
								<path d="M373.1,230.4c-0.1,0.2-0.1,0.6-0.1,1c0.1,1,0.8,1.5,0.9,1.6c0.6,0.5,1.3,0.3,1.6,0.3c0.3-0.1,0.7-0.1,1.2-0.6
									c0.2-0.2,0.6-0.6,0.6-1.2c0.1-0.7-0.3-1.2-0.3-1.3c-0.5,0-1,0-1.6,0C374.6,230.2,373.8,230.3,373.1,230.4z"/>
							</g>
							<g>
								<path d="M395.5,231.4c0,0,0,0-0.1,0c-0.2-0.1-0.4-0.2-0.6-0.2c0.1-0.3,0.4-0.7,0.7-1.1c0.1-0.1,0.4-0.5,0.9-0.8
									c0.6-0.4,1-0.4,2.6-0.7c2.1-0.3,2.3-0.4,2.8-0.3c0.7,0.2,1.6,0.7,1.6,1.3c0,0.2-0.1,0.3-0.3,0.5c-0.6,0.7-1.4,0.8-1.4,0.9
									c0,0.1,1.1,0.2,2-0.5c0.5-0.4,0.8-1,0.9-1.3c0.3,0,0.8,0,1.4,0.1c0.7,0.1,1,0.1,1,0.1c0-0.1-1.2-0.7-2.4-1.1
									c-0.5-0.1-1.3-0.4-2.3-0.5c-0.4,0-1,0-2.8,0.2c-0.8,0.1-2,0.3-3.3,0.6c-0.5,0.3-1.2,0.8-1.9,1.6c-0.8,0.9-1.3,1.9-1.2,2
									c0.1,0.1,0.3-0.3,0.9-0.4c0.2,0,0.2,0,0.6-0.1C395,231.7,395.5,231.5,395.5,231.4z"/>
								<path d="M399.5,228.3c0.1,0.2,0.2,0.5,0.3,1c0.1,1-0.5,1.6-0.6,1.7c-0.5,0.6-1.2,0.6-1.6,0.6c-0.3,0-0.8,0-1.3-0.3
									c-0.3-0.2-0.8-0.5-0.9-1c-0.1-0.6,0.3-1,0.3-1.1c0.3-0.4,0.7-0.5,1.3-0.6C397.7,228.5,398.5,228.4,399.5,228.3z"/>
							</g>
							<path class="st7" d="M419,221.1c0.7-2.6,4.3-5.2,5.9-4.4c1.6,0.8,2.7,5.2,2.3,8c-0.2,1.5-0.3,5.8-3.5,9.1
								c-1.7,1.7-4.7,3.8-6.1,2.9c-0.6-0.4-0.9-1.5-0.3-6.1C417.7,226.8,418.3,223.6,419,221.1z"/>
						</g>
						<path class="st14" d="M377.9,273.8"/>
						<g>
							<g>
								<path class="st10" d="M444.1,446.4c-7.9-1.1-16.2-2.1-24.8-2.8c-7.7-0.7-15.1-1.2-22.3-1.5c-15.5,1.2-31,2.3-46.5,3.5
									c-1.1-51.4-2.2-102.7-3.3-154.1c11-4,21.9-8,32.9-12c0.2-3.2,0.4-6.4,0.5-9.6c1.6-0.2,7-0.5,11.9,3.1
									c2.2,1.6,3.6,3.5,4.4,4.9c0.9-2.2,4.6-8.2,19.1-8c0.4,3.4,0.9,6.8,1.3,10.2c7.8,0.1,15.6,0.3,23.3,0.4
									C441.8,335.7,442.9,391,444.1,446.4z"/>
							</g>
							<line class="st14" x1="397" y1="277.8" x2="397" y2="442"/>
							<line class="st14" x1="387.8" y1="299.1" x2="406.2" y2="299.1"/>
							<line class="st14" x1="387.8" y1="344.4" x2="406.2" y2="344.4"/>
							<line class="st14" x1="387.8" y1="383.1" x2="406.2" y2="383.1"/>
							<line class="st14" x1="387.8" y1="421.8" x2="406.2" y2="421.8"/>
							<path class="st15" d="M397,279.3c-0.7-1-3.5-4.6-8.6-5.7c-3.6-0.8-6.6,0.1-7.9,0.5c0.1-1.5,0.2-2.9,0.3-4.4
								c1.6-0.2,3.7-0.2,6.2,0.5c5.9,1.6,9.1,6.1,10.1,7.5V279.3z"/>
							<path class="st15" d="M397,279.3c1-1.2,3.8-4.3,8.6-5.7c5.2-1.5,9.5-0.1,10.9,0.4c-0.2-1.4-0.4-2.8-0.5-4.3
								c0,0-15.3-0.8-19.1,8V279.3z"/>
						</g>
						<rect x="357.1" y="581.8" class="st15" width="38.1" height="15.6"/>
						<rect x="399" y="581.8" class="st15" width="38.6" height="15.6"/>
					</g>
				</g>
			</g>
		</g>
		<path class="st16" d="M311.3,212.1"/>
		<path class="st17" d="M393.5,569.2"/>
		<g>
			<path class="st12" d="M374.3,188.2c0.2,0.9-0.5,2.7-1.2,3.1c-0.4,3-1.1,6.7-2.7,10.7c-2.2,5.9-5.3,10.2-7.6,13.1
				c-0.5-1.9-2.2-9.5,2-17.3C367.8,192.2,372.3,189.3,374.3,188.2z"/>
		</g>
		<path class="st10" d="M440.7,280.4c11.1-9.8,22.1-19.7,33.2-29.5c6.1,5.4,12.2,10.8,18.3,16.2c-2.5,8.6-6.3,18.8-12.1,29.5
			c-12.4,22.6-28.4,37.3-39.6,45.8c-1-8.6-1.7-18.2-1.8-28.6C438.6,301.4,439.4,290.2,440.7,280.4z"/>
		<g>
			<g>
				<g>
					<path class="st7" d="M447.3,231c-5.2,4-6.2,5.8-11.4-3c-0.2-0.3-0.4-0.6-0.6-0.9c-1.9-3-5.1-6.7-6.8-8.3
						c-1.9-1.7-3-2.9-3.1-5.5c-0.1-2.6,0-6.8-0.2-8.6c-0.2-1.9,0.1-3.6,0.1-3.6c-0.8-0.8-2.3-3.2-2.3-3.2s-2.1-1.5-3-2.5
						c-0.9-0.9-0.2-2.1-0.2-2.1c-1-0.9,0-2.4,0-2.4s-0.6-1.4-0.3-1.6c0.3-0.3,1.2,0,1.2,0s-0.1-1.1,0.6-1.1c0.7,0,7.7,3.8,8.4,4.3
						c0.7,0.5,4.9,4.4,5.6,5.4c0.7,0.9,0.7,3.4,0.9,4.9c0.2,1.5,1.5,7.6,1.5,7.6c0.8,1.8,1.5,2.4,1.5,2.4c0.5,0.4,2,1.7,3.7,3.1
						c3,2.5,6.6,5.4,6.6,5.4S453.2,226.5,447.3,231z"/>
					<path class="st9" d="M447.3,231c-5.2,4-6.2,5.8-11.4-3c-0.2-0.3-0.4-0.6-0.6-0.9c0.2-0.2,0.4-0.5,0.6-0.7
						c2.4-2.7,5.5-7.4,6.6-9.8c0.1-0.2,0.2-0.5,0.3-0.7c3,2.5,6.6,5.4,6.6,5.4S453.2,226.5,447.3,231z"/>
					<g>
						<g>
							<g>
								<path class="st9" d="M419.8,193.3c5.6,3.7,5,3.2,8.9,8.6c-0.4-1.7-1.7-3.8-3.1-5.1C423.8,195.6,421.6,194.2,419.8,193.3z"/>
								<path class="st9" d="M419.8,190.9c2.4,1.7,5.6,3.3,7.8,5.1c1.2,1.3,2.4,3,3.6,4.3c-0.6-1.7-2-3.7-3.5-5.1
									C425.2,193.8,422.3,192.1,419.8,190.9z"/>
								<path class="st9" d="M420.7,189.3c2.4,1.5,5.5,3.3,7.9,4.9c1.7,1.7,3.2,3.5,5,5.1c-1-1.9-2.7-3.9-4.4-5.5
									C426.5,192.3,423.4,190.5,420.7,189.3z"/>
							</g>
						</g>
					</g>
				</g>
			</g>
			<path class="st12" d="M421.1,186.6c-1.6-0.8-3.1-1.6-4.7-2.4c0.3,3.1,0.5,6.2,0.8,9.3c1.1,1.6,2.7,4.1,3.9,7.4
				c2,5.2,1.5,7.9,3.4,12.5c0.9,2.1,2.4,5,5.4,8.2c0.9-3.9,2.4-13.1-1.7-23.3C426.3,193,423.4,189.1,421.1,186.6z"/>
			<path class="st10" d="M430.5,236.8c1.3,4.8,7.1,24.7,25.5,33.7c11.4,5.6,25.2,5.9,31.5,1.6c1.2-0.8,5-3.1,4.8-6.3
				c-0.2-2.1-1.4-3.7-1.8-4.3c-3.5-4-19.7-24.4-41.9-52.6c-2.5,5.6-5.9,12.1-10.7,18.7C435.4,231.1,432.9,234.1,430.5,236.8z"/>
			<path class="st15" d="M430.3,236.8c0.6,2,1.3,4.3,2.2,6.6c0.9,2.3,1.9,4.3,2.8,6.2c4.2-4.5,8.9-10.4,13.2-17.9
				c3-5.1,5.2-10,6.9-14.3c-2.4-3-4.7-6-7.1-9c-2.7,5.8-6.2,12.3-10.9,19.1C435.1,230.9,432.7,234,430.3,236.8z"/>
		</g>
	</g>
	<path class="st10" d="M336.3,350.1c0.6,1.1,3.6,5.6,9.5,7.2c5.4,1.5,10.4-0.2,13.7-2.6c0,0,2.7-2,4.6-5.3c6.4-11,2.9-42.6,2.7-44.6
		c-6.5-4.5-13-9-19.5-13.4c-2.6,5.4-5.2,11.8-7.2,19.1C335.6,326.3,335.5,340.2,336.3,350.1z"/>
	<path class="st11" d="M409.7,294.5c-13.6,25.7-25.6,44.6-32.4,52.7c-1.1,1.3-4.7,5.5-10.4,9.5c-6.7,4.7-11.3,5.8-13.4,6.1
		c-2.5,0.4-4.7,0.8-7.2,0.1c-7.3-2.1-9.7-11.5-10-12.8c0.6-2.9,1.7-7.1,4-11.7c6.1-12.4,15.4-16.8,25-25.9
		c5.4-5.1,12.4-13,18.6-24.9c2.1,1.3,4.7,2.6,7.6,3.8C398.7,294,405.2,294.6,409.7,294.5z"/>
	<g>
		<path class="st18" d="M412.3,275.6c-0.1,0.1-0.2,0.2-0.4,0.3c-0.7,0.5-1.5,1.2-2.2,1.4c-0.1,0-0.1,0.1-0.1,0.1
			c-0.9,3.2-3.2,5.9-5.5,8.4c-0.3,0.3-0.6,0.7-0.9,1c-0.4,0.4-0.7,0.7-0.7,0.7c-0.5,0.5-2.4,3.9-6.7,12.9l-9.1-8.7
			c0.5-0.6,1-1.2,1.3-2c0.1-0.3,0.3-0.7,0.5-1.2c0,0,0,0,0,0c0.1-0.2,0.3-0.4,0.4-0.7c0,0,0-0.1,0-0.1c0.4-0.8,1.3-2.9,1.9-4.2
			c0.2-0.6,0.5-1,0.6-1.2c0-0.1,0.1-0.2,0.1-0.2c0,0,0,0,0,0c0-0.1-0.2-0.5-0.3-0.7c-0.1-0.1-0.1-0.2-0.2-0.4
			c-0.9-1.6-1.8-3.6-1.7-5.5v-0.1l0-0.2c0-0.6,0-1.3,0-1.9c0,0,0,0,0,0c-0.1-1.8-0.6-3.6-1.9-4.8c-0.2-0.1-0.3-0.3-0.5-0.4
			c-0.6-0.5-1.3-1.1-1.2-1.8c0-0.7,0.8-1.2,1.5-1.3c0.6,0,1.3,0.2,2.1,0.8c2.4,1.7,3.7,3.9,3.7,6.1c0,0.1,0.1,0.1,0.1,0.2
			c0.1,0,0.2,0,0.2-0.1c0.7-2.5,1.5-5.2,3.3-7.3c1.6-1.9,4.6-3.3,7.1-2.2c0.2,0.1,0.4,0.2,0.5,0.3c0.4,0.3,0.8,0.8,0.8,1.3
			c0,0.2-0.1,0.4-0.2,0.6c0,0,0,0,0,0c0,0,0,0.1,0,0.1c0,0.1-0.1,0.2,0,0.2c0,0.2,0.1,0.3,0.2,0.5c0,0,0.1,0.1,0.1,0.1
			c0.1,0.1,0.2,0.1,0.3,0.1c0.4,0.1,0.7,0.2,1.1,0.3c0.4,0.1,1.3,0.4,1.5,1c0,0.1,0.1,0.2,0.1,0.3c0,0.1,0,0.3-0.1,0.4v0
			c0,0.1,0,0.1,0,0.2c0,0.3,0.2,0.6,0.5,0.7c0,0,0.1,0,0.2,0c0,0,0,0,0,0c1,0,1.3,0.1,2,0.4c0.3,0.1,1.8,1.1,1.8,2.2
			c0,0.1,0,0.2-0.1,0.3c0,0,0,0,0,0c0,0,0,0.1,0,0.1c0,0.2,0,0.4,0.1,0.5c0,0.1,0.1,0.1,0.1,0.1c0,0,0,0,0.1,0c0,0,0,0,0.1,0
			c0.4,0.3,0.6,0.7,0.7,1.1C413.5,274.2,412.9,275.1,412.3,275.6z"/>
		<path class="st9" d="M399.8,292.3c-1.3,2.7-2.7,5.4-4,8l-9.1-8.7c0.3-0.8,0.7-1.6,1.3-2.5c0.2-0.3,0.3-0.5,0.5-0.8
			c1.6,0.7,3.3,1.5,5.3,2.2C395.9,291.3,398,291.9,399.8,292.3z"/>
		<g>
			<path class="st9" d="M404.9,265.4c-0.2,0-0.5-0.1-0.7-0.1c-1.1-0.2-1.9,0-3,0.2c-0.3,0.1-1.5,0.4-1.6,0.1
				c-0.1-0.2,1.1-0.8,1.3-0.9c1.4-0.4,2.4-0.3,3.6-0.2c0,0.1-0.1,0.2,0,0.2c0,0.2,0.1,0.3,0.2,0.5
				C404.8,265.3,404.9,265.4,404.9,265.4z"/>
		</g>
		<g>
			<path class="st9" d="M408.4,268.4c0,0-0.1,0.1-0.1,0.1c-0.6,0.1-1.3,0.2-1.9,0.3c-0.3,0.1-0.6,0.1-0.9,0.1
				c-0.3,0.1-0.6,0.1-0.8,0.2c-0.6,0.1-1.4,0.2-1.5,0.1c-0.2-0.2,0.8-0.6,1.1-0.8c0.7-0.3,1.2-0.4,1.8-0.5c0.6-0.1,1.2-0.2,1.8-0.3
				c0,0.1,0,0.1,0,0.2c0,0.3,0.2,0.6,0.5,0.7C408.3,268.4,408.3,268.4,408.4,268.4z"/>
		</g>
		<g>
			<path class="st9" d="M412.4,272.2c-0.1,0.1-0.2,0.2-0.3,0.1c-1.3-0.1-2.5-0.2-3.8,0.2c-0.4,0.1-1.5,0.4-1.6,0.2
				c-0.1-0.3,1.1-0.9,1.3-1c1.3-0.5,2.7-0.4,4-0.3c0,0,0.1,0,0.1,0c0,0,0,0,0,0c0,0,0,0.1,0,0.1c0,0.2,0,0.4,0.1,0.5
				C412.2,272.1,412.3,272.1,412.4,272.2C412.4,272.2,412.4,272.2,412.4,272.2z"/>
		</g>
	</g>
	<path class="st15" d="M383.4,286.2c2.7,1.9,6.8,4.3,12.2,6c6,1.9,11.2,2.1,14.7,2c-1.5,3-3,5.9-4.5,8.9c-3.3,0-8.2-0.3-13.7-2
		c-5.9-1.8-10.2-4.5-13-6.6C380.5,291.7,382,289,383.4,286.2z"/>
</g>
</svg>
