<?xml version="1.0" encoding="utf-8"?>
<!-- Generator: Adobe Illustrator 26.0.1, SVG Export Plug-In . SVG Version: 6.00 Build 0)  -->
<svg version="1.1" id="Layer_1" xmlns="http://www.w3.org/2000/svg" xmlns:xlink="http://www.w3.org/1999/xlink" x="0px" y="0px"
	 viewBox="0 0 165 119" style="enable-background:new 0 0 165 119;" xml:space="preserve">
<style type="text/css">
	.st0{fill:#FDF9E7;}
	.st1{fill:#F05D48;}
	.st2{fill:#E7DFC2;}
	.st3{fill:#FEDEA6;}
	.st4{fill:#F7F4E3;}
	.st5{fill:#FDFDFD;}
	.st6{fill:#D2CDB8;}
	.st7{fill:#CCC6AD;}
	.st8{fill:#C1B894;}
	.st9{fill:#FAC978;}
	.st10{fill:#536969;}
	.st11{fill:#405050;}
	.st12{opacity:0.5;fill:#54C1BB;enable-background:new    ;}
	.st13{fill:#54C1BB;}
	.st14{fill:#8DD1CD;}
	.st15{clip-path:url(#SVGID_00000076592673611819081000000014612754007512207003_);fill:#DDBB8F;}
	.st16{clip-path:url(#SVGID_00000076592673611819081000000014612754007512207003_);}
	.st17{fill:#FAD4AF;}
	.st18{fill:#F9C295;}
	.st19{fill:#353535;}
	.st20{fill:#E09D6C;}
	.st21{fill:#CE0D28;}
	.st22{fill:#757575;}
	.st23{fill:#474747;}
	.st24{fill:#919191;}
	.st25{fill:#FDBCA0;}
	.st26{fill:#576E6E;}
	.st27{fill:#EBB254;}
	.st28{fill:#F5E2D5;}
</style>
<path class="st0" d="M39.7,108c0,0.6-3.3,1-7.4,1c-4,0-7.3-0.4-7.3-1c0-0.5,3.3-1,7.3-1C36.4,107,39.7,107.5,39.7,108z"/>
<path class="st1" d="M56.2,118.1c14.4,0,26-1.6,26-3.6s-11.6-3.6-26-3.6s-26.1,1.6-26.1,3.6s11.7,3.6,26,3.6H56.2z M123.7,116.9
	c17.1,0,31-2,31-4.3c0-2.4-13.9-4.3-31-4.3c-17.2,0-31,2-31,4.3C92.7,115,106.5,116.9,123.7,116.9z"/>
<path class="st1" d="M83.9,109.7c19,0,34.6-2.2,34.6-4.8c0-2.7-15.5-4.8-34.6-4.8c-19.2,0-34.7,2.1-34.7,4.8
	C49.2,107.5,64.7,109.7,83.9,109.7z M162.7,103.8c0,1.3-7.2,2.2-16,2.2c-8.9,0-16-1-16-2.2s7.1-2.2,16-2.2
	C155.5,101.6,162.7,102.6,162.7,103.8z M24.4,97.1c-8.59-2.29-15.83-8.05-20-15.9C0.12,73.64-1.1,64.73,1,56.3
	c2.35-8.42,9.02-14.95,17.5-17.1C28.7,37,39,42.7,46.7,49.6c3.2,2.8,6.2,6,9.9,8.1C60.4,60,65,61,68.9,59.3c4.7-2,7.1-7.1,9.4-11.7
	c5.39-11.42,13.12-21.58,22.7-29.8c9.7-8,22-13.2,34.5-13.1c7.8,0,16,2.3,21.4,8c7,7,8.2,18.2,6.1,28c-2,9.7-6.9,18.6-10.7,27.8
	c-4.44,8.98-6.07,19.08-4.7,29L24.3,97.1H24.4z"/>
<path class="st1" d="M76.7,37c2.51-3.86,4.34-8.12,5.4-12.6c1.2-6,0.2-12.2-3.9-16.8c-6.64-6.79-16.56-9.24-25.6-6.3
	c-3.45,1.28-6.06,4.15-7,7.7c-1.3,6,3.2,11,6,15.8c1.5,2.6,2.6,5.5,2.8,8.5c0,2.9-1.7,5.5-1.3,8.4c0.27,1.67,1.16,3.17,2.5,4.2
	c2.7,2.3,6.6,3.1,10,2.2c5.4-1.4,8.5-6.7,11.1-11V37z"/>
<path class="st2" d="M64.5,19.2H5.3c0,0-0.2,0-0.2,0.2v46.7l0.2,0.2h59.2c0.1,0,0.2,0,0.2-0.2V19.4C64.7,19.3,64.7,19.2,64.5,19.2z
	 M46.5,42.6h-5.4v-5.4h5.5v5.4H46.5z M47,37.2h5.5v5.4H47V37.2z M34.7,43v5.4h-5.5V43H34.7z M29.2,42.6v-5.4h5.5v5.4H29.2z M35.2,43
	h5.4v5.4h-5.5V43H35.2z M35.2,42.6v-5.4h5.4v5.4h-5.5H35.2z M41.1,36.7v-5.3h5.5v5.3H41H41.1z M40.6,36.7h-5.5v-5.3h5.5V36.7z
	 M34.7,36.7h-5.5v-5.3h5.5V36.7z M28.7,36.7h-5.4v-5.3h5.5v5.3H28.7z M28.7,37.2v5.4h-5.4v-5.4h5.5H28.7z M23,42.6h-5.5v-5.4H23
	V42.6z M17,42.6h-5.5v-5.4H17V42.6z M17,43v5.4h-5.5V43H17z M17.5,43H23v5.4h-5.5V43z M23.4,43h5.5v5.4h-5.5V43z M28.9,48.8v5.4
	h-5.5v-5.4H28.9z M29.3,48.8h5.5v5.4h-5.5V48.8z M35.3,48.8h5.4v5.4h-5.5v-5.4H35.3z M41.2,48.8h5.5v5.4H41v-5.4H41.2z M41.2,48.4
	V43h5.5v5.4H41L41.2,48.4z M47,43h5.5v5.4H47V43z M53,43h5.4v5.4H53V43z M53,42.6v-5.4h5.4v5.4H53z M53,36.7v-5.3h5.4v5.3H53z
	 M52.5,36.7H47v-5.3h5.5V36.7z M47,31v-5.3h5.5V31H47z M46.6,31H41v-5.3h5.5V31H46.6z M40.6,31h-5.5v-5.3h5.5V31z M34.7,31h-5.5
	v-5.3h5.5V31z M28.7,31h-5.4v-5.3h5.5V31H28.7z M23,31h-5.5v-5.3H23V31z M23,31.5v5.3h-5.5v-5.3H23z M17,36.8h-5.5v-5.3H17V36.8z
	 M11.1,36.8H5.5v-5.3H11v5.3H11.1z M11.1,37.3v5.4H5.5v-5.4H11H11.1z M11.1,43.1v5.4H5.5V43H11L11.1,43.1z M11.1,48.9v5.4H5.5v-5.4
	H11H11.1z M11.5,48.9H17v5.4h-5.5V48.9z M17.5,48.9H23v5.4h-5.5V48.9z M23,54.7V60h-5.5v-5.4H23V54.7z M23.4,54.7h5.5V60h-5.5v-5.4
	V54.7z M29.4,54.7h5.4V60h-5.5v-5.4L29.4,54.7z M35.2,54.7h5.5V60h-5.5v-5.4V54.7z M41.2,54.7h5.5V60H41v-5.4L41.2,54.7z M47.1,54.7
	h5.5V60H47v-5.4L47.1,54.7z M47.1,54.3v-5.4h5.5v5.4H47H47.1z M53.1,48.9h5.4v5.4H53v-5.4H53.1z M58.9,48.9h5.5v5.4h-5.5V48.9z
	 M58.9,48.5V43h5.5v5.4h-5.5V48.5z M58.9,42.7v-5.4h5.5v5.4H58.9z M58.9,36.8v-5.3h5.5v5.3H58.9z M58.9,31v-5.3h5.5V31
	C64.4,31,58.9,31,58.9,31z M58.5,31H53v-5.3h5.5C58.5,25.7,58.5,31,58.5,31z M53,25.1v-5.5h5.5v5.5H53z M52.6,25.1H47v-5.5h5.5v5.5
	H52.6z M46.6,25.1h-5.4v-5.5h5.5v5.5H46.6z M40.7,25.1h-5.5v-5.5h5.5V25.1z M34.8,25.1h-5.5v-5.5h5.5V25.1z M28.8,25.1h-5.4v-5.5
	h5.5v5.5H28.8z M23,25.1h-5.5v-5.5H23C23,19.6,23,25.1,23,25.1z M17,25.1h-5.5v-5.5H17C17,19.6,17,25.1,17,25.1z M17,25.6v5.3h-5.5
	v-5.3C11.5,25.6,17,25.6,17,25.6z M11,30.9H5.5v-5.3H11C11,25.6,11,30.9,11,30.9z M5.5,54.6H11V60H5.5V54.6z M11.5,54.6h5.4V60h-5.5
	v-5.4H11.5z M16.9,60.4v5.5h-5.5v-5.5H17L16.9,60.4z M17.4,60.4h5.5v5.5h-5.5C17.4,65.9,17.4,60.4,17.4,60.4z M23.3,60.4h5.5v5.5
	h-5.5C23.3,65.9,23.3,60.4,23.3,60.4z M29.3,60.4h5.4v5.5h-5.5v-5.5L29.3,60.4z M35.1,60.4h5.5v5.5h-5.5
	C35.1,65.9,35.1,60.4,35.1,60.4z M41.1,60.4h5.5v5.5H41v-5.5L41.1,60.4z M47,60.4h5.5v5.5H47C47,65.9,47,60.4,47,60.4z M53,60.4h5.4
	v5.5H53C53,65.9,53,60.4,53,60.4z M53,60v-5.4h5.4V60C58.4,60,53,60,53,60z M58.8,54.6h5.5V60h-5.5C58.8,60,58.8,54.6,58.8,54.6z
	 M64.3,25h-5.5v-5.5h5.5V25z M11,19.6v5.5H5.5v-5.5H11z M5.5,60.4H11v5.5H5.5V60.4z M58.8,65.9v-5.5h5.5v5.5
	C64.3,65.9,58.8,65.9,58.8,65.9z"/>
<path class="st3" d="M29.5,32.6c0,0,1.4,11.8,8,13.9l12-3.4c0,0-7.2-3.3-8-10.5H29.5z"/>
<path class="st4" d="M23.3,43.5c0,0-1,13.5-6,15.9L8,55.5c0,0,5.5-3.8,6-12h9.2H23.3z M54.3,23.1l-8,2.3l2.8,9.7l8-2.4
	C57.1,32.7,54.3,23.1,54.3,23.1z"/>
<path class="st5" d="M54,24l-7,2l1.8,6.2l6.8-2l-1.8-6.1L54,24z"/>
<path class="st6" d="M31.5,52.3l-6.2-1.7l-2,7.4l6.2,1.7L31.5,52.3z"/>
<path class="st2" d="M30.8,52.7l-5.2-1.4l-1.3,4.8l5.2,1.4L30.8,52.7z"/>
<path class="st7" d="M128.6,48.6h-2.7c-0.4,0-0.8,0.3-0.8,0.8c0,0.4,0.4,0.8,0.8,0.8h2.7c0.4,0,0.8-0.4,0.8-0.8
	C129.4,48.9,129,48.6,128.6,48.6z"/>
<path class="st7" d="M154.5,70.7L130,48.9c-1.2-1-3,0.7-1.7,1.8l24.3,21.8c1.2,1,3-0.7,1.8-1.8H154.5z M158.1,101.5h-2.3
	c-2.2-0.6-5.6-1-9.5-1c-3.8,0-7.2,0.4-9.4,1h-2.3v1.5c0,1.4,5.2,2.5,11.7,2.5s11.8-1.1,11.8-2.5C158.3,102,158.1,101.5,158.1,101.5z
	"/>
<path class="st2" d="M158.1,101.5c0,1.4-5.2,2.5-11.7,2.5c-6.6,0-11.8-1.1-11.8-2.5s5.3-2.6,11.8-2.6c0.87,0.01,1.73,0.04,2.6,0.1
	C154.2,99.3,158.1,100.3,158.1,101.5L158.1,101.5z"/>
<path class="st2" d="M149,99l-1.2,2.1V99H149z"/>
<path class="st2" d="M152.7,71.2l-7.4,29.3c-0.3,1.5,2,2.2,2.4,0.7l7.4-29.3C155.5,70.3,153.1,69.7,152.7,71.2z"/>
<path class="st2" d="M155,70.1l-24.3-21.7c-1.2-1-3,0.7-1.8,1.7L153.3,72c1.1,1,3-0.7,1.7-1.8V70.1z M105.5,48.6
	c0,0,7.1-11.7,16.3-6.1c9.2,5.5,2.4,17.3,2.4,17.3L105.5,48.6z"/>
<path class="st8" d="M124.2,59.8c-0.6,0.8-3.8-0.1-7.8-2.2c-1.83-0.96-3.6-2.03-5.3-3.2c-3.7-2.6-6.1-5-5.6-5.8s3.3,0,7,1.8
	c2.37,1.15,4.65,2.48,6.8,4C122.6,56.8,124.6,59,124.2,59.8z"/>
<path class="st9" d="M119.3,54.5c-0.5,2.26-2.74,3.7-5.01,3.19c-1.96-0.43-3.34-2.19-3.29-4.19c0.01-1.21,0.56-2.35,1.5-3.1
	c2.37,1.15,4.65,2.48,6.8,4V54.5z"/>
<path class="st2" d="M129.3,47.2c-2.7,0-2.7,4.2,0,4.2S132,47.2,129.3,47.2z"/>
<path class="st2" d="M129.3,48.5c-1.1,0-1.1,1.7,0,1.7C130.3,50.2,130.3,48.5,129.3,48.5z M153.7,68.8c-3.5,0-3.5,5.3,0,5.3
	C157.1,74.1,157.1,68.8,153.7,68.8z"/>
<path class="st2" d="M153.7,70.4c-1.4,0-1.4,2.1,0,2.1S155.1,70.4,153.7,70.4z"/>
<path class="st10" d="M39.7,95.8H25c0,0-0.4,8.8,4,12c0.4,0.2,0.8,0.4,1.3,0.4h4.1c0.5,0,1-0.2,1.3-0.4
	C40.1,104.6,39.7,95.8,39.7,95.8z"/>
<path class="st11" d="M39.7,95.8c0,0.3-2.4,0.5-5.6,0.6c-3.04-0.01-6.08-0.21-9.1-0.6c3.06-0.32,6.13-0.48,9.2-0.5
	C37.3,95.3,39.7,95.5,39.7,95.8z"/>
<path class="st10" d="M41.8,98.4c-0.8-1-2-1.1-3.2-1c-1,0-1,1.6,0,1.6c0.8,0,1.7,0,2.2,0.8c0.4,0.8,0.3,1.8,0,2.5
	c-1,1.9-3.2,2.4-5,2.1c-0.5,0-0.9,0.4-0.9,0.9s0.4,0.7,0.9,0.8c2,0.3,4.2-0.3,5.6-1.9C42.8,102.6,43.2,100.1,41.8,98.4z"/>
<path class="st12" d="M36.5,90.8c-1.1,1.1-2.3,2.4-2.4,4v1.6c-1.07,0.02-2.13,0.02-3.2,0c-0.3-0.2-0.6-0.6-0.8-1l-0.5-1.2
	c-0.2-0.7-0.2-1.5,0-2.2c0.5-1.8,2.1-3.3,2-5.2c0-1.2-0.7-2.3-1.5-3.2c-0.8-0.9-1.8-1.7-2.4-2.8c-1-1.8-1-4.2,0.4-5.8
	c1.32-1.63,3.51-2.27,5.5-1.6c2,0.8,3.3,3,3,5c-0.3,1.3-1.1,2.7-0.6,4c0.3,0.6,1,1.1,1.4,1.6c0.8,0.8,1.3,1.8,1.4,2.8
	C38.8,88.4,37.6,89.7,36.5,90.8z"/>
<path class="st13" d="M47,97.7c0,0-9.3-37.2-5-41.7c4.2-4.6,39-6.6,42.9-3.1c3.8,3.4,3.5,44.8,3.5,44.8H47z"/>
<path class="st14" d="M84.8,52.9l-0.5-0.4c-11.5-0.7-32.2,1.3-35.4,4.8c-3.7,4,3.2,33.8,4.8,40.4h34.6
	C88.3,97.7,88.6,56.3,84.8,52.9z"/>
<g>
	<defs>
		<rect id="SVGID_1_" x="29.01" y="-10.68" width="78.58" height="108.38"/>
	</defs>
	<clipPath id="SVGID_00000116215439610540068220000003175197487565836730_">
		<use xlink:href="#SVGID_1_"  style="overflow:visible;"/>
	</clipPath>
	<path style="clip-path:url(#SVGID_00000116215439610540068220000003175197487565836730_);fill:#DDBB8F;" d="M88.23,67.83
		c2.13,7.3,4.25,14.61,6.38,21.91c7.84,1.93,15.69,3.86,23.53,5.79l0,0l-1.17,4.76c-4.64-0.67-9.3-1.35-13.96-2.03
		c-5.28-0.78-10.55-1.56-15.8-2.35c-1.57-6.61-3.14-13.23-4.7-19.84C84.41,73.33,86.32,70.58,88.23,67.83z"/>
	<g style="clip-path:url(#SVGID_00000116215439610540068220000003175197487565836730_);">
		<g>
			<g>
				<path class="st17" d="M75.89,53.33c-0.74,0.2-1.68,0.36-2.74,0.3c-3.65-0.19-6.04-2.72-6.7-3.46c0.1-1.04,0.17-2.15,0.18-3.34
					c0-0.17,0-0.34,0-0.51c0-0.44-0.01-0.86-0.03-1.28c-0.01-0.16-0.01-0.32-0.02-0.48c0.1,0.03,0.21,0.07,0.31,0.1
					c2.86,0.94,5.73,1.88,8.59,2.82c-0.08,0.79-0.13,1.73-0.06,2.79c0.01,0.25,0.03,0.49,0.06,0.73
					C75.57,51.87,75.72,52.66,75.89,53.33z"/>
				<path class="st18" d="M75.48,50.98c-1.14-0.38-2.38-0.86-3.69-1.5c-2.08-1.01-3.79-2.13-5.16-3.17c0-0.44-0.01-0.86-0.03-1.28
					c0.09-0.13,0.19-0.26,0.29-0.38c2.86,0.94,5.73,1.88,8.59,2.82c-0.08,0.79-0.13,1.73-0.06,2.79
					C75.43,50.5,75.45,50.75,75.48,50.98z"/>
				<path class="st17" d="M86.25,27.32c0.23,2.27,0.27,5.25-0.41,8.64c-1.2,5.93-4.05,10.27-6.23,12.91
					c-0.88,1.07-2.28,1.57-3.65,1.32c-1.96-0.35-4.54-1.13-7.14-2.85c-5.4-3.57-7.26-8.82-7.77-10.45c0.16-1.01,1.3-7.46,7.45-11.43
					c6.11-3.95,12.42-2.38,13.41-2.11L86.25,27.32z"/>
				<g>
					<path class="st19" d="M86.4,30.07c-0.32,0.09-0.74-3.1-3.14-4.06c-1.31-0.53-2.28-0.81-3.97-0.99
						c-1.83-0.19-4.53-0.52-7.94-1.09c0.3,1.29,0.34,2.36,0.32,3.1c-0.03,1.03-0.05,1.59-0.45,2.07c-0.57,0.69-1.33,0.37-2.45,0.83
						c-1.79,0.73-2.56,2.76-2.73,3.22c-0.72,1.9,0.06,2.8-0.76,4.51c-0.5,1.04-1.27,1.71-1.81,2.09c1.07,2.08,2.15,4.39,1.76,4.65
						c-0.48,0.32-3.37-2.44-5.17-5.67c-2.41-4.31-4.87-13.37,0.7-19.71c1.6-1.83,3.66-3.18,5.9-4.04c0.01,0,0.02,0,0.03-0.01
						c0.02-0.01,0.04-0.02,0.06-0.02c3.38-0.84,9.89-1.49,15.49,4.4c0.31,0.32,1.02,0.41,1.65,0.88c0.8,0.6,1.36,1.33,1.77,2.1
						c0,0,0,0,0,0C87.09,26.19,86.73,29.97,86.4,30.07z"/>
				</g>
				<g>
					<g>
						<path d="M71.54,34.23c0.92-1.29,3.26-1.63,4.21-0.17c0,0-0.03,0.03-0.03,0.03c-0.71-0.28-1.36-0.54-2.11-0.62
							C72.8,33.42,72.16,33.84,71.54,34.23L71.54,34.23z"/>
					</g>
					<path d="M73.08,35.14c-0.42,0.09-0.88,0.16-1.37,0.22c-0.39,0.04-0.75,0.06-1.09,0.07c0.19,0.1,0.4,0.21,0.64,0.31
						c0.23,0.1,0.45,0.18,0.66,0.24"/>
					<path d="M84.2,35.33c0.2,0.09,0.46,0.18,0.77,0.23c0.2,0.03,0.38,0.04,0.54,0.03c-0.2,0.16-0.4,0.32-0.6,0.47"/>
					<g>
						<path d="M71.91,35.97c0.79-1.33,2.92-1.12,3.73,0.1C74.39,35.45,73.17,35.22,71.91,35.97L71.91,35.97z"/>
					</g>
					<path d="M74.91,35.67c-0.08,0.36-0.45,0.59-0.81,0.5c-0.36-0.08-0.59-0.45-0.5-0.81S74.99,35.31,74.91,35.67z"/>
				</g>
				<g>
					<g>
						<path d="M85,34.02c-1.1-0.97-2.39-0.68-3.45,0.16c0,0-0.03-0.03-0.03-0.03C82.01,32.58,84.35,32.87,85,34.02L85,34.02z"/>
					</g>
					<g>
						<path d="M81.43,36.1c0.61-1.45,2.8-1.37,3.49-0.03C83.76,35.27,82.53,35.17,81.43,36.1L81.43,36.1z"/>
					</g>
					<path d="M83.82,35.59c-0.02,0.37-0.29,0.65-0.61,0.61c-0.32-0.03-0.57-0.36-0.55-0.73C82.67,35.11,83.84,35.22,83.82,35.59z"/>
				</g>
				<g>
					<path class="st20" d="M79.13,41.68c-0.49,0.34-1.02,0.36-1.53,0.07C78.09,41.4,78.62,41.38,79.13,41.68L79.13,41.68z"/>
				</g>
				<path class="st21" d="M75.55,44.56c0.21,0.29,0.52,0.6,0.97,0.82c1.03,0.5,2.36,0.25,3.46-0.59c-0.68,0.17-1.71,0.33-2.93,0.15
					C76.47,44.85,75.96,44.71,75.55,44.56z"/>
				<path class="st19" d="M86.81,33.04c-1.29-0.55-2.79-1.08-4.48-1.5c-3.31-0.83-6.26-0.96-8.53-0.88
					c0.02-0.87-0.07-2.31-0.73-3.92c-0.52-1.28-1.21-2.22-1.72-2.81c1.85-1.15,3.04-3.02,2.85-4.76c-0.27-2.57-3.54-5.02-7.5-4.2
					c0.01-0.01,0.04-0.01,0.06-0.02c4.01-1.49,9.15-0.82,12.93,1.94c0.69,0.5,1.62,1.29,2.56,2.46c0.43,0.17,1.02,0.45,1.65,0.88
					c0,0,1.91,1.3,3.06,3.59C88.96,27.8,86.99,32.61,86.81,33.04z"/>
				<path class="st19" d="M65.42,16.68c-0.25-0.81-0.69-1.93-1.47-3.12c-0.51-0.78-2.69-4.13-6.34-4.97c0,0-3.19-0.74-7.07,1.41
					c-5.98,3.3-8.23,16.42-6.23,32.76c1.16,0.63,3.06,1.46,5.53,1.65c4.59,0.35,7.99-1.75,9.11-2.53c-1.49-3.3-2.56-6.13-3.29-8.21
					c-2.54-7.26-2.98-11.19-1.9-14.61c0.38-1.19,0.85-2.03,1.63-2.31c1.39-0.5,3.43,0.87,5.28,3.46
					C62.26,19.03,63.84,17.86,65.42,16.68z"/>
				<path class="st17" d="M64.9,33.96c-0.07-0.2-0.5-1.53-1.63-1.84c-0.62-0.17-1.44-0.04-1.95,0.45c-1.31,1.27,0.1,4.41,0.82,5.66
					c0.47,0.82,1.2,2.04,2.42,2.2c0.16,0.02,0.9,0.12,1.3-0.32c0.55-0.59,0.18-1.82-0.23-3.17c-0.19-0.64-0.35-0.95-0.51-1.74
					C64.95,34.41,65.03,34.37,64.9,33.96z"/>
				<circle class="st19" cx="62.37" cy="17.9" r="6.59"/>
			</g>
		</g>
		<g>
			<path class="st22" d="M91.62,72.45c-0.25,0.65-1.18,2.83-3.6,4.26c-2.4,1.42-4.72,1.2-5.41,1.11c-0.08-0.26-0.17-0.53-0.26-0.79
				c-0.01-0.04-0.02-0.08-0.04-0.11c-1.45-4.49-2.9-8.98-4.36-13.47c1.15-1.08,2.31-2.19,3.48-3.34c1.14-1.12,2.25-2.24,3.32-3.34
				c1.34,2.87,2.37,5.2,3.1,6.88c1,2.3,2.65,6.19,2.94,6.88c0.12,0.29,0.25,0.58,0.37,0.87C91.32,71.74,91.47,72.09,91.62,72.45z"/>
			<g>
				<path class="st23" d="M91.16,71.38c-0.71,1.41-2.04,3.33-4.39,4.54c-1.36,0.7-2.84,1.08-4.42,1.1c-0.01,0-0.02,0-0.04,0l0-0.12
					l-0.01-0.59c1.48-0.02,2.87-0.37,4.14-1.03c2.5-1.3,3.78-3.47,4.35-4.79C90.92,70.8,91.04,71.09,91.16,71.38z"/>
			</g>
		</g>
		<g>
			<path class="st24" d="M114.42,140.43c-0.39,1.35-0.71,2.53-1.42,4.97c-0.48,1.65-0.96,3.28-1.44,4.91
				c-3.04-1.05-6.28-2.06-9.71-2.99c-6.54-1.77-12.68-2.94-18.27-3.72c0.23-1.07,0.42-2.12,0.56-3.15c0.17-1.2,0.25-2.17,0.31-2.99
				c0.19-2.66,0.36-6.96,0.45-9.5c0.04-1.26-0.59-2.46-1.66-3.12c-5.74-3.57-11.48-7.14-17.22-10.71l-1.09-0.62
				c-2.71-1.54-5.4-3.11-8.01-4.68L56,110.35c2.61,1.57,5.32,3.15,8.05,4.7c5.89,3.78,11.78,7.57,17.66,11.35
				c0.64,0.41,1.05,1.11,1.1,1.87c0.17,2.69,0.18,5.74-0.13,9.08c-0.21,2.32-0.55,4.46-0.94,6.39c-0.82,0.16-1.64,0.32-2.47,0.48
				c-0.42-4.01-0.83-8.02-1.25-12.03c-0.13-1.24-0.87-2.34-1.98-2.92c-2.83-1.47-6.64-3.36-11.21-5.36
				c-9.71-4.26-10.45-3.72-12.1-5.61c-3.49-3.98-1.55-8.27-0.32-27.86c0.63-10.02,0.18-10.41,0.96-18.69
				c0.7-7.43,1.68-13.68,2.54-18.36c3.52-1.08,7.03-2.15,10.55-3.23c-0.02-0.06-0.03-0.11-0.04-0.16c-0.06-0.27-0.09-0.5-0.08-0.7
				c0-0.3,0.08-0.52,0.23-0.64c0.7-0.56,2.95,0.79,6.76,4.05c0.93-0.96,1.86-1.32,2.24-1.03c0.21,0.16,0.23,0.5,0.22,0.76
				c-0.01,0.12-0.02,0.23-0.03,0.28c0.21,0.08,0.42,0.16,0.64,0.24c1.26,0.48,2.57,1.01,3.92,1.61c1.47,0.65,2.86,1.31,4.16,1.97
				c0.28,0.14,0.46,0.42,0.49,0.73c0.73,7.59,1.17,11.34,1.17,11.34s0.5,4.93,0.2,7.47c-0.3,2.54-2.7,6.14-3.74,8.56
				c-1.03,2.42-0.52,9.74-0.52,9.74l-0.37-0.04c0.65,2.21,5.05,9.08,7.32,10.68c0.01,0,0.01,0,0.01,0c0.26,0.19,0.84,0.6,1.57,1.1
				c6,4.1,18.64,11.7,24.28,14.92c0.33,0.19,1.18,0.67,1.83,1.64c0.94,1.39,0.91,2.96,0.87,3.77
				C117.4,130.57,116.04,134.76,114.42,140.43z"/>
			<g>
				<circle class="st23" cx="65.37" cy="62.01" r="0.61"/>
			</g>
			<g>
				<g>
					<path class="st23" d="M73.45,53.91l-0.46,0.54c-0.11-0.09-0.22-0.18-0.32-0.27c-1.38-1.17-2.64-2.18-3.66-3.01l-0.18-0.15
						c-0.53-0.43-1.32-1.07-2.35-1.03c-0.02,0-0.05,0-0.07,0c-0.06-0.27-0.09-0.5-0.08-0.7c0.04-0.01,0.08-0.01,0.12-0.01
						c1.29-0.05,2.25,0.72,2.82,1.18l0.18,0.15c1.05,0.85,2.34,1.89,3.78,3.11C73.31,53.79,73.38,53.85,73.45,53.91z"/>
				</g>
			</g>
			<g>
				<g>
					<path class="st23" d="M76.4,53.01c-0.19,0.04-0.39,0.09-0.58,0.14c-1.13,0.34-1.93,0.93-2.64,1.52
						c-1.03,0.85-2.05,1.93-3.05,3.21c-0.83,1.06-1.49,1.9-2.1,3.18c-0.5,1.04-0.86,2.14-1.08,3.28l-0.69-0.14
						c0.23-1.2,0.61-2.36,1.14-3.45c0.65-1.35,1.32-2.22,2.18-3.32c1.01-1.29,2.05-2.39,3.1-3.27c0.02-0.02,0.04-0.03,0.06-0.05
						c0.16-0.13,0.33-0.27,0.51-0.4c0.65-0.49,1.4-0.95,2.39-1.25c0.05-0.02,0.11-0.03,0.16-0.04c-0.01,0.12-0.02,0.23-0.03,0.28
						c0.21,0.08,0.42,0.16,0.64,0.24L76.4,53.01z"/>
				</g>
			</g>
			<g>
				
					<rect x="70.49" y="55.06" transform="matrix(0.6235 -0.7818 0.7818 0.6235 -17.8243 76.6501)" class="st23" width="0.35" height="3.53"/>
			</g>
			<g>
				
					<rect x="68.33" y="57.73" transform="matrix(0.5823 -0.8129 0.8129 0.5823 -19.6768 80.5015)" class="st23" width="0.35" height="3.33"/>
			</g>
			<g>
				
					<rect x="66.94" y="60.94" transform="matrix(0.2784 -0.9605 0.9605 0.2784 -11.6843 109.6269)" class="st23" width="0.35" height="3.31"/>
			</g>
			<g>
				<circle class="st23" cx="69.29" cy="55.65" r="0.61"/>
			</g>
			<g>
				<circle class="st23" cx="72.05" cy="57.93" r="0.61"/>
			</g>
			<g>
				<circle class="st23" cx="67.13" cy="58.26" r="0.61"/>
			</g>
			<g>
				<circle class="st23" cx="69.86" cy="60.37" r="0.61"/>
			</g>
			<g>
				<circle class="st23" cx="68.61" cy="63.05" r="0.61"/>
			</g>
		</g>
		<g>
			<path class="st22" d="M63.25,73.4c0.01,0.38,0.01,0.69,0.02,0.9c-0.01,0-0.01,0-0.02,0c-0.02,0-0.03,0.01-0.06,0.02
				c-1.42,0.33-3.12,0.59-5.04,0.62h-0.39c-0.14-0.01-0.28-0.01-0.43-0.01c-1.67-0.04-3.18-0.26-4.48-0.54
				c-0.48-0.11-0.94-0.23-1.36-0.35c-0.01-0.2-0.02-0.39-0.03-0.58c-0.02-0.39-0.04-0.78-0.05-1.18c-0.01-0.22-0.02-0.44-0.03-0.67
				c-0.16-4.31-0.08-8.75,0.54-12.12c0.65-3.5,1.84-5.24,3.19-5.88c0.64-0.31,1.42-0.33,2.26-0.16c2.97,0.62,6.61,3.76,6.85,5.85
				c0.42,3.46-0.81,5.08-0.96,12.43c0,0.31-0.01,0.64-0.01,0.97V73.4z"/>
		</g>
		<g>
			<path class="st23" d="M63.26,71.82c0,0.13,0,0.26,0,0.39c0,0.16,0,0.33-0.01,0.49c-1.3,0.46-3.5,1.05-6.25,0.9
				c-2.45-0.13-4.38-0.8-5.59-1.32c-0.01-0.22-0.02-0.44-0.03-0.67c1.15,0.52,3.09,1.23,5.6,1.33
				C59.82,73.05,62.04,72.32,63.26,71.82z"/>
		</g>
	</g>
</g>
<path class="st10" d="M111.1,90.4c-1,1-1.6,2.2-2,3.5c-0.3,1.3-0.3,2.6-0.3,4l-0.3,0.3h-0.9l-0.3,0.3l-0.6-0.1
	c-0.3-0.2-0.8-0.1-1.2-0.2c-0.4,0-0.9-0.1-1-0.4c-0.3-0.3-0.3-0.6-0.3-0.8c-0.1-1.4-0.2-2.7,0.4-4l1.4-2l0.5-1.2
	c0.2-0.3,0.6-0.6,1-0.5c0.4,0,0.6,0.4,1,0.5l1-0.1C110.11,89.68,110.7,89.93,111.1,90.4z"/>
<path class="st25" d="M53.42,74.51c0.07,8.11,0.14,16.22,0.21,24.33c8.36,2.32,16.71,4.64,25.07,6.96c0.41-1.83,0.83-3.66,1.24-5.48
	c-3.04-0.88-6.34-1.98-9.82-3.38c-3.14-1.26-6-2.58-8.59-3.9c0.15-6.16,0.3-12.31,0.45-18.47c-1.27,0.23-2.84,0.4-4.65,0.36
	C55.84,74.9,54.53,74.72,53.42,74.51z"/>
<path class="st25" d="M78.7,105.8c3.57,1.64,7.33,2.82,11.2,3.5c0.5-0.9-4.6-2.6-4.6-2.6s7.1,1.5,7.3,0.7c0.2-0.7-6.7-2.5-6.7-2.5
	s8.2,1.5,8.3,0.6c0-0.8-7.2-2.4-7.2-2.4s6.9,0.4,6.9-0.3c0-1-14.1-2.5-14.1-2.5L78.7,105.8L78.7,105.8z"/>
<path class="st25" d="M80.8,100.5c0,0,5.5-2,6-1.6c0.6,0.4-2.4,2.6-2.4,2.6L80.8,100.5z"/>
<path class="st2" d="M64.7,94.6H36.5c-0.3,0-0.5,0.3-0.4,0.6l4.9,18c0,0.2,0.4,0.5,0.7,0.5h28.2c0.3,0,0.5-0.3,0.4-0.6l-4.9-18
	C65.4,94.9,65,94.6,64.7,94.6z"/>
<path class="st4" d="M68.2,113.4L64,98.2c0-0.3-0.3-0.5-0.6-0.5h-24c-0.2,0-0.3,0.2-0.3,0.5l4.2,15.2v0.2h25
	C68.3,113.6,68.2,113.4,68.2,113.4z"/>
<path class="st11" d="M38.5,96c0,0.3-0.3,0.6-0.6,0.6c-0.36-0.14-0.53-0.55-0.39-0.91c0.07-0.18,0.21-0.32,0.39-0.39
	C38.2,95.3,38.5,95.6,38.5,96z"/>
<path class="st26" d="M38.2,96l-0.3,0.3c-0.19,0-0.35-0.16-0.35-0.35s0.16-0.35,0.35-0.35C38,95.6,38.2,95.8,38.2,96z"/>
<path class="st27" d="M63,98H39c-0.3,0-0.5,0.2-0.4,0.4l4.2,15.2l0.1,0.5h24.9l-0.1-0.5l-4.2-15.2c0-0.2-0.3-0.5-0.6-0.5L63,98z"/>
<path class="st3" d="M67.7,113.6l-2.7-9.8H40l2.7,9.8l0.1,0.5h24.9l-0.1-0.5H67.7z"/>
<path class="st27" d="M63,116.5H38l5-2.4h24.8C67.8,114.1,63,116.5,63,116.5z"/>
<path class="st3" d="M94.7,69l50.7-8.5c0.8-0.2,1.6,0.5,1.6,1.3l-0.3,32.4c0,0.6-0.4,1.2-1,1.3l-49.5,10.3c-1.2,0.3-2.7-0.5-2.7-2.3
	V70.3c0-0.7,0.5-1.3,1.2-1.4V69z"/>
<path class="st9" d="M97,68.8l48.4-8c0.8-0.2,1.6,0.5,1.6,1.3l-0.2,32.1c0,0.7-0.5,1.2-1.1,1.4l-48.2,10c-0.9,0-1.7-0.6-1.7-1.4v-34
	C95.8,69.5,96.3,68.9,97,68.8z"/>
<path class="st27" d="M118.9,85.7l-2.9,16l15.3-3.2L118.9,85.7z M118.2,115l-6.7-2.3c-1-0.4-1-2,0.1-2.2l11.4-2.9h0.6l6.6,2
	c1,0.3,1,1.9,0,2.2l-11.3,3.2C118.9,115,118.2,115,118.2,115z"/>
<path class="st3" d="M128.2,84.1c-0.08-0.55-0.59-0.92-1.14-0.84c-0.05,0.01-0.11,0.02-0.16,0.04l-7.1,1.3c-0.55,0-1,0.45-1,1
	l-0.2,29.5l15.3-4.4L128.2,84.1z M126.4,107c-2.1,0.2-4.1-2.1-4.5-5.2c-0.3-3.1,1.2-5.8,3.4-6c2.1-0.3,4.1,2,4.4,5.2
	C130,104,128.6,106.8,126.4,107z"/>
<path class="st28" d="M124.2,31.4c-7.32,0-13.25-5.93-13.25-13.25S116.88,4.9,124.2,4.9c7.32,0,13.25,5.93,13.25,13.25
	S131.52,31.4,124.2,31.4L124.2,31.4z M124.2,8.6c-5.25,0-9.5,4.25-9.5,9.5s4.25,9.5,9.5,9.5s9.5-4.25,9.5-9.5S129.45,8.6,124.2,8.6z
	"/>
<path class="st28" d="M119.3,21.5l-0.6-1.1l5-2.7l2-8l1.3,0.4l-2.3,8.5C124.7,18.6,119.3,21.5,119.3,21.5z"/>
</svg>
