<?xml version="1.0" encoding="utf-8"?>
<!-- Generator: Adobe Illustrator 16.0.0, SVG Export Plug-In . SVG Version: 6.00 Build 0)  -->
<!DOCTYPE svg PUBLIC "-//W3C//DTD SVG 1.1//EN" "http://www.w3.org/Graphics/SVG/1.1/DTD/svg11.dtd">
<svg version="1.1" id="Layer_2" xmlns="http://www.w3.org/2000/svg" xmlns:xlink="http://www.w3.org/1999/xlink" x="0px" y="0px"
	 width="182px" height="191px" viewBox="0 0 182 191" enable-background="new 0 0 182 191" xml:space="preserve">
<g>
	<g>
		<path fill="#FFD7DC" d="M135.125,22.189c2.607,2.896,5.102,6.237,6.729,9.691c3.366,7.129,3.691,17.377,2.714,25.285
			c-0.761,5.458-3.798,12.921-2.277,18.379c2.061,7.462,12.916,7.128,18.125,9.023c4.885,1.67,9.445,5.902,11.94,11.025
			c7.599,15.707-1.519,24.063-6.08,31.08c-5.209,8.02,6.08,17.597-0.323,25.618c-6.839,8.354-14.979,11.808-28.547,11.808
			c-26.919,0-32.999,2.451-70.229-0.557c-7.055-0.559-16.498-2.453-23.554-3.23c-10.637-1.336-36.904-11.807-30.067-31.634
			c5.102-14.706,31.695-12.477,22.795-32.526c-5.97-13.366-16.933-31.633-3.257-43.219c9.878-8.465,16.282-13.255,21.926-25.953
			C61.316,12.944,70.109,5.37,84.002,4.034c7.489-0.669,15.087-0.669,22.576,1.224c9.01,2.34,17.91,6.795,25.183,13.367
			C132.848,19.739,134.042,20.853,135.125,22.189z"/>
		<g>
			<path fill="#FFEEF1" d="M36.731,115.739c-0.108-1.409-0.108-2.926,0.108-4.336c0.542-3.034,1.951-5.854,3.794-8.348
				c1.734-2.273,3.36-3.684,5.745-5.31c3.252-2.277,7.371-2.71,11.273-3.036c3.035-0.216,6.07-0.108,9.105,0
				c1.192,0,2.276,0.11,3.469,0.217c0.542,0,0.976-0.106,1.518,0.109c-0.651,0.325-1.193,0.866-1.735,1.3
				c-1.301,1.192-2.385,2.927-3.469,4.446c-1.3,1.839-2.493,3.684-3.902,5.528c-2.493,3.034-6.178,5.744-10.189,6.285
				c-3.686,0.542-7.805-0.325-11.165,1.408c0,0-3.36,1.844-3.903,8.022L36.731,115.739z"/>
			<path fill="#FFEEF1" d="M30.119,97.637c-3.794-4.118-9.864-4.77-14.85-6.937c-3.252-1.41-6.721-3.578-8.889-6.396
				c0.759,3.902,0.217,8.128,0.65,12.14c0.434,3.686,1.951,6.938,4.661,9.539c5.095,4.879,13.333,3.253,18.103,8.673
				c2.168,2.493,2.926,6.285,3.685,9.104c0-3.034,0.325-6.722,0.434-7.805C33.913,115.956,35.431,103.382,30.119,97.637z"/>
			<path fill="#D8989D" d="M36.298,105.116c0.867-3.358,3.793-7.262,6.287-9.539c2.709-2.491,5.961-3.034,8.997-4.66
				c1.625-0.867,3.035-2.06,3.469-3.902c1.409-5.095-0.217-10.515-0.542-15.61c-0.217-2.818-0.325-5.528,0.65-8.237
				c-0.108,0.433-2.168,1.3-2.601,1.625c-0.759,0.542-1.518,1.083-2.386,1.626c-3.793,2.493-8.021,4.12-11.056,7.696
				c-2.602,3.036-4.227,6.938-5.203,10.839c-0.434,2.061-0.759,4.336-0.867,6.505c-0.109,2.927,0.216,6.069,0.975,8.78
				c0.651,2.601,0.651,6.394,1.084,8.997L36.298,105.116z"/>
			<path fill="#FFFFFF" d="M43.886,81.378c-1.626,3.576-3.252,7.479-4.553,11.273c-1.3,3.685-2.385,7.37-2.818,10.298l0,0
				c-0.867,5.312-0.867,11.164-0.867,16.693c0,2.168,0.216,35.771,0.216,37.722c0,0.218-0.216,0.433-0.433,0.433
				c-0.217,0-0.434-0.215-0.434-0.433c0-1.951-0.217-35.554-0.217-37.722c0-5.639,0-11.382,0.867-16.803l0.434,0.109l-0.434-0.109
				c0.434-3.035,1.518-6.722,2.818-10.407c1.41-3.793,3.035-7.695,4.553-11.271c0.108-0.217,0.325-0.326,0.542-0.217
				C43.886,80.944,43.995,81.27,43.886,81.378z"/>
			<path fill="#FFFFFF" d="M55.918,101.323c-3.035,0.435-6.395,1.298-9.322,2.708c-2.926,1.41-5.419,3.471-6.829,6.396
				c-0.867,1.843-1.625,4.229-1.842,6.289c0,0.322-0.109,1.19-0.109,2.384c-0.108,3.577-0.108,10.296-0.108,17.126
				c0,9.646,0,19.403,0,21.027c0,0.219-0.217,0.435-0.433,0.435c-0.217,0-0.434-0.216-0.434-0.435c0-1.624,0-11.488,0-21.027
				c0-4.553,0-9.105,0-12.574c0-1.734,0-3.36,0.108-4.552c0-1.193,0.109-2.062,0.109-2.494c0.217-2.167,0.976-4.552,1.951-6.505
				c1.518-3.143,4.228-5.31,7.262-6.827c3.035-1.519,6.504-2.277,9.539-2.818c0.217,0,0.434,0.108,0.434,0.326
				C56.243,100.997,56.135,101.215,55.918,101.323L55.918,101.323z"/>
			<path fill="#FFFFFF" d="M33.046,157.364c0-1.193,0-4.769,0-9.213c0-5.963,0-13.659-0.109-20.271
				c-0.108-3.362-0.108-6.397-0.217-8.78c0-1.193-0.108-2.277-0.217-3.145c-0.108-0.867-0.108-1.517-0.217-1.843
				c-0.975-4.444-3.035-8.456-6.396-11.706c-3.36-3.145-7.913-5.528-13.658-6.612c-0.217,0-0.325-0.218-0.325-0.434
				c0-0.219,0.217-0.325,0.434-0.325c5.962,1.082,10.623,3.468,14.092,6.83c3.469,3.36,5.637,7.479,6.612,12.03
				c0.108,0.434,0.216,1.084,0.216,1.951c0.217,3.034,0.325,8.456,0.434,14.418c0.108,5.961,0.108,12.572,0.108,17.775
				c0,4.555,0,8.023,0,9.213c0,0.219-0.217,0.435-0.434,0.435S33.046,157.582,33.046,157.364z"/>
		</g>
		<g>
			<g>
				<path fill="#FFEEF1" d="M47.468,148.385c-1.654-0.125-3.307,0.51-3.053,2.291c-3.943-1.4-6.486,2.162-6.486,4.703h94.376
					c3.689-4.449-2.671-12.717-7.249-10.428c0.763-2.926-2.036-4.707-3.817-3.943c0.254,0.129-1.016-3.941-4.832-2.287
					c0.127-3.945-3.18-5.09-6.231-3.182c-0.383-3.307-5.088-6.359-7.252-2.543c0.128-5.088-6.614-5.852-7.505-0.764
					c-1.397-1.527-3.307-0.383-3.434,1.398c-1.271-1.654-2.67-1.398-3.688,0.127c3.307-8.266-9.285-10.811-9.793-3.178
					c-1.909-3.182-6.106-1.273-5.342,1.906c-1.782-1.654-4.58-0.891-4.325,1.906c-2.544-2.668-8.904-2.797-9.285,2.801
					c-1.527-1.654-3.434-1.145-3.816,1.145c-2.162-0.254-3.943,0.635-3.435,3.053c-1.017,0.125-2.417,0-2.798,2.414
					C49.248,143.805,45.814,144.697,47.468,148.385z"/>
				<path fill="#FFEEF1" d="M172.243,155.379c1.655-6.484-8.013-10.045-10.684-3.686c0.127-2.418,0.89-4.963-1.907-6.359
					c-2.926-1.4-4.961,1.016-6.233,3.051c3.308-5.467,1.78-12.336-5.723-14.244c-8.015-2.035-11.956,2.162-12.211,10.43
					c-0.51-3.816-7.505-4.58-8.014,0.764c-2.926-1.02-3.434-3.943-7.504-3.563c-3.689,0.381-5.342,2.67-6.741,5.852
					c0,0-8.394,0.254-6.488,7.631h65.505V155.379z"/>
			</g>
		</g>
		<path fill="#D8989D" d="M12.167,161.639c0,6.899,36.37,12.36,81.345,12.36c44.86,0,81.345-5.606,81.345-12.36
			c0-6.9-36.37-12.363-81.345-12.363C48.652,149.275,12.167,154.882,12.167,161.639z"/>
		<g>
			<g>
				<g>
					<g>
						<path fill="#D8989D" d="M76.977,3.641L76.977,3.641L76.977,3.641L76.977,3.641L76.977,3.641z"/>
					</g>
				</g>
			</g>
		</g>
	</g>
	<g>
		<g>
			<g>
				<g>
					<path fill="#63010B" d="M138.711,143.144c2.04-2.825,2.51-6.59,1.097-9.727c-1.881-3.764-6.43-5.959-10.979-4.706
						c-7.686,2.04-17.095,3.921-28.077,4.55c-15.529,0.941-28.548-0.783-38.429-2.979c-6.119-0.628-11.137,2.979-11.921,7.216
						c-0.628,3.762,2.04,6.742,2.51,7.371c8.783,2.823,20.077,5.332,33.568,6.115C109.064,152.081,127.26,147.219,138.711,143.144z"
						/>
					<g>
						<g>
							<g>
								<path fill="#B26426" d="M61.694,57.499c9.882,0.627,20.391,1.099,31.687,0.941c12.077-0.157,23.213-0.783,33.724-1.727
									c-5.491-2.979-15.37-7.372-28.704-8.155C80.517,47.774,67.186,54.363,61.694,57.499z"/>
								<polygon fill="#FAD4AF" points="100.125,88.713 88.518,88.556 89.302,79.146 89.615,74.909 99.184,74.909 99.496,78.987 
																	"/>
								<g>
									<g>
										<path fill="#FAD4AF" d="M105.458,63.615c0.313-1.096,1.882-2.038,2.509-1.568c0.628,0.313,0.943,2.196,0.628,3.295
											c-0.313,1.096-1.412,3.136-1.725,3.606c-0.314,0.472-1.727,1.257-2.668,0.944L105.458,63.615z"/>
										<path fill="#EFB78E" d="M105.929,62.989c-0.158,0.156-0.314,0.472-0.314,0.626l-1.097,6.277
											c0.47,0.154,1.253-0.159,1.881-0.472L105.929,62.989z"/>
										<path fill="#FAD4AF" d="M83.185,63.461c-0.313-1.101-1.883-2.04-2.511-1.727c-0.628,0.313-0.941,2.197-0.783,3.295
											c0.313,1.096,1.254,3.293,1.725,3.606c0.314,0.472,1.726,1.257,2.667,1.099L83.185,63.461z"/>
										<path fill="#EFB78E" d="M82.714,62.833c0.158,0.157,0.314,0.472,0.314,0.628l0.939,6.272
											c-0.626,0.159-1.253-0.157-1.882-0.47L82.714,62.833z"/>
									</g>
									<path fill="#EFB78E" d="M99.496,78.987c-1.096,1.1-2.82,2.356-5.175,2.356c-1.883,0-3.608-1.101-4.079-1.415
										c-0.47-0.313-0.784-0.626-1.098-0.782l0.314-4.237h9.57L99.496,78.987z"/>
									<path fill="#FAD4AF" d="M94.477,43.695c-10.822,0-12.391,7.217-12.547,11.453c0,4.233,0.313,8.157,1.725,13.8
										c1.412,5.178,3.921,7.06,5.96,8.787c0.627,0.623,1.256,1.096,2.196,1.567c1.1,0.467,2.041,0.467,2.511,0.467
										c0.472,0,1.412,0,2.509-0.467c0.943-0.471,1.413-0.944,1.883-1.412c3.45-3.451,3.294-2.981,3.766-3.608
										c0.938-1.257,1.724-2.825,2.354-5.176c1.566-5.646,1.881-9.569,2.038-13.804C106.87,51.069,105.144,43.695,94.477,43.695z"
										/>
									<path fill="#191513" d="M94.477,41.969c1.257-0.783,2.823-0.94,4.079-0.783c1.257,0.156,5.804,2.197,7.53,3.921
										c1.727,1.57,3.138,4.862,3.138,8.471c0,3.608-1.411,8.469-1.571,8.625c-0.153,0.157-1.566,1.412-1.566,1.412
										s0-1.881-0.157-2.038c0-0.157-0.628-1.412-0.941-1.568c-0.155-0.158,0-0.943,0-1.257c0-0.313-0.155-1.096-0.628-1.882
										c-0.471,1.413-1.254,2.51-1.568,2.51c-0.156,0-0.628-0.783-1.097-1.567c-0.942-1.727-1.101-2.354-1.569-2.98
										c0,0.315-0.941,2.98-1.255,2.98c-0.314,0-0.785-1.883-1.097-3.294c-0.474-1.412-1.412-3.45-1.57-3.45
										c-0.156,0-1.882,1.097-1.882,1.097s-1.726-1.097-1.883-1.097c-0.156,0-1.254,2.038-1.726,3.45
										c-0.471,1.412-0.94,3.294-1.254,3.294s-1.255-2.666-1.097-2.98c-0.471,0.627-0.628,1.254-1.569,2.98
										c-0.47,0.939-0.94,1.567-1.098,1.567c-0.315,0-0.942-1.097-1.412-2.51c-0.471,0.628-0.627,1.569-0.627,1.882
										c0,0.314,0.156,1.099,0,1.257c-0.157,0.156-0.783,1.411-0.941,1.568c0,0.156-0.158,2.038-0.158,2.038
										s-1.411-1.255-1.567-1.412c-0.156-0.156-1.568-5.018-1.412-8.625c0-3.608,1.412-6.901,3.295-8.471
										c1.724-1.569,6.43-3.607,7.685-3.765C91.653,40.873,93.223,41.186,94.477,41.969z"/>
								</g>
								<path fill="none" stroke="#F8AE38" stroke-width="0.5985" stroke-miterlimit="10" d="M85.537,81.027"/>
								<g>
									<g>
										<path fill="#9F0102" d="M110.947,84.792l-9.097-2.51v-3.295c-5.489,0-6.9,2.194-7.216,2.979
											c-0.313-0.785-1.725-3.135-7.216-2.979v3.295l-9.097,2.51c-4.391,1.255-7.529,5.335-7.529,9.88v24.941
											c0,1.099,0.626,2.196,1.569,2.822l4.392,2.826c-0.158,6.272-0.158,8.312-0.315,14.587
											c6.117-0.313,12.079-0.629,18.196-0.941c6.273,0.628,12.548,1.098,18.823,1.727c-0.313-6.588-0.627-8.784-0.94-15.215
											l4.39-2.823c0.943-0.629,1.569-1.725,1.569-2.826V94.831C118.477,90.127,115.34,86.047,110.947,84.792z"/>
									</g>
									<path fill="none" stroke="#F8AE38" stroke-width="0.5985" stroke-miterlimit="10" d="M94.793,81.966
										c-0.158,18.982-0.158,37.96-0.316,56.941"/>
									
										<line fill="none" stroke="#F8AE38" stroke-width="0.5985" stroke-miterlimit="10" x1="90.871" y1="95.773" x2="98.713" y2="95.613"/>
									
										<line fill="none" stroke="#F8AE38" stroke-width="0.5985" stroke-miterlimit="10" x1="90.556" y1="110.832" x2="98.4" y2="110.673"/>
									
										<line fill="none" stroke="#F8AE38" stroke-width="0.5985" stroke-miterlimit="10" x1="90.242" y1="130.438" x2="98.085" y2="130.438"/>
									<path fill="#F8AE38" d="M94.793,82.439c-0.472-0.473-1.412-1.412-2.982-2.041c-2.038-0.628-3.764-0.156-4.234,0
										c0-0.469,0-1.096,0-1.567c0,0,5.805-0.473,7.217,2.979V82.439z"/>
									<path fill="#F8AE38" d="M94.793,82.439c0,0,2.351-3.452,7.058-2.197c0-0.473,0-0.94,0-1.568
										c-0.942,0-4.235-0.153-6.431,2.04c-0.314,0.313-0.47,0.629-0.785,1.097L94.793,82.439z"/>
								</g>
								<g>
									<g>
										<path d="M85.379,62.676c1.884-1.727,5.177-1.568,7.06,0.313l-0.47,0.472C90.242,61.734,87.419,61.578,85.379,62.676
											L85.379,62.676z"/>
									</g>
								</g>
								<path fill="#E09D6C" d="M92.438,74.283c0,0.157,0.942,0.785,2.038,0.785c1.098,0,2.199-0.472,2.199-0.785
									c0-0.156-0.159-0.156-2.041-0.156C92.596,74.283,92.438,74.283,92.438,74.283z"/>
								<g>
									<path fill="#E09D6C" d="M92.91,70.832c0.941-0.472,1.883-0.472,2.664,0C94.793,71.304,93.852,71.304,92.91,70.832
										L92.91,70.832z"/>
								</g>
								<path id="XMLID_00000098918290135300744210000012271710217744441754_" fill="#F2B069" d="M61.694,57.499
									c0,0,11.765-4.862,27.607-5.333c24.627-0.47,37.803,4.548,37.803,4.548L93.852,36.794L61.694,57.499z"/>
								
									<path id="XMLID_00000005950187250489751930000010769087406477386884_" opacity="0.16" fill="#6A5D55" enable-background="new    " d="
									M94.793,38.833c4.391,4.236,8.154,8.784,11.136,13.804c13.804,1.254,21.176,4.077,21.176,4.077L93.852,36.794l-0.941,0.627
									C93.537,37.892,94.164,38.363,94.793,38.833z"/>
								<polyline fill="none" points="89.302,76.479 89.302,76.32 89.302,75.851 89.302,75.697 89.302,75.537 								"/>
							</g>
						</g>
					</g>
					<path fill="#141312" d="M103.417,160.237c-1.723,1.884-0.938,5.337,1.258,6.274c5.646,2.51,11.919,4.08,18.037,4.239
						c1.882,0,3.451-1.886,3.451-3.926c-0.158-1.879-1.569-3.606-3.139-4.548c-1.724-0.939-3.606-1.255-5.489-1.565
						c-1.882-0.315-3.921-0.475-5.646-1.258C109.064,158.358,105.301,158.199,103.417,160.237L103.417,160.237z"/>
					<path fill="#FAD4AF" d="M99.028,163.688c16.625,6.435,20.075,5.177,21.019,3.924c0.626-0.942,0.313-2.038,0.153-2.198
						c-0.782-2.664-5.331-3.919-10.821-5.177c-2.039-0.468-2.039-0.626-3.921-0.939c-1.256-0.156-2.667-0.313-3.923-0.782
						c-1.096-0.475-2.507,0.469-2.822,1.722C98.4,161.338,98.87,162.593,99.028,163.688z"/>
					<path fill="#84030A" d="M104.359,154.75c-0.783,2.354-1.725,4.704-2.665,7.058c-0.628,1.728-1.413,3.296-2.041,5.018
						c-9.725-4.548-17.724-7.214-23.528-8.784c-0.627-0.154-14.118-4.076-22.273-10.194c-1.255-0.94-3.294-2.666-4.235-5.646
						c-0.157-0.472-1.098-3.765,0.469-7.06c1.884-3.765,6.904-5.961,12.236-5.02c9.097,5.646,18.509,11.451,28.39,16.943
						C95.42,149.885,99.969,152.397,104.359,154.75z"/>
					<path fill="#141312" d="M87.733,158.669c1.725,1.884,0.941,5.335-1.254,6.277c-5.647,2.507-11.922,4.075-18.039,4.234
						c-1.883,0-3.452-1.884-3.452-3.922c0.157-1.881,1.569-3.608,3.137-4.547c1.725-0.942,3.608-1.258,5.49-1.57
						c1.883-0.315,3.922-0.473,5.647-1.255C82.085,156.788,85.852,156.632,87.733,158.669L87.733,158.669z"/>
					<path fill="#FAD4AF" d="M92.127,162.121c-2.668,1.257-15.531,6.744-18.354,3.138c-0.47-0.47-0.784-1.413-0.47-2.353
						c0.47-2.354,4.862-3.608,8.626-4.391c1.881-0.475,1.881-0.629,3.922-0.942c1.254-0.159,2.666-0.315,3.921-0.785
						c1.099-0.47,2.51,0.47,2.823,1.728C92.752,159.77,92.282,161.022,92.127,162.121z"/>
					<path fill="#84030A" d="M141.221,141.259c-1.098,2.826-3.138,4.549-4.079,5.177c-4.704,3.449-21.96,11.451-46.114,20.705
						c-0.471-2.037-0.941-4.391-1.726-6.744c-0.784-2.51-1.568-4.707-2.352-6.9c13.958-8.315,27.763-16.471,41.721-24.785
						c5.336-0.942,10.353,1.257,12.237,5.02C142.632,137.182,141.377,140.944,141.221,141.259z"/>
					<g>
						<g>
							<path fill="#9F0102" d="M127.418,141.729c1.882,1.255,5.02,2.823,10.352,2.666c-5.019,2.98-12.233,6.432-21.49,8.628
								c-6.432,1.568-12.232,2.041-16.783,2.041c-1.568-5.18-2.979-10.353-4.546-15.372c-2.198,2.824-4.708,6.273-6.747,10.667
								c-0.94,1.881-1.568,3.605-2.195,5.33c-3.452,0-7.686-0.47-12.235-1.565c-10.039-2.512-17.254-7.531-21.332-10.98
								c4.549-0.159,7.372-1.414,9.098-2.513c3.607-2.351,4.862-5.33,8.94-6.429c1.725-0.472,3.294-0.313,4.393-0.156
								c1.097-0.156,2.98-0.315,5.174-0.473c12.864-0.941,22.433-0.785,24.941-0.628c2.195,0,5.333,0.159,9.254,0.472
								c1.726,0.313,4.395,1.099,7.217,2.823C124.124,138.28,124.908,140.005,127.418,141.729z"/>
						</g>
					</g>
					<path fill="#84030A" d="M74.557,134.202c4.55,1.411,11.137,2.823,19.136,2.667c8.47-0.157,15.371-1.884,20.077-3.296
						c-5.646,1.1-12.549,2.04-20.548,2.195C86.165,135.613,79.891,134.985,74.557,134.202z"/>
					<path fill="none" stroke="#F8AE38" stroke-width="0.5985" stroke-miterlimit="10" d="M93.381,132.945c0,0.472,0,0.785,0,1.257
						c0,0.939,0.156,1.725,0.471,2.667c1.882,6.115,3.764,12.233,5.645,18.351"/>
					<path fill="none" stroke="#F8AE38" stroke-width="0.5985" stroke-miterlimit="10" d="M90.399,138.907
						c1.099,0,2.511,0,3.922-0.159c1.412-0.155,2.665-0.468,3.764-0.624"/>
				</g>
			</g>
			<path fill="#FAD4AF" d="M94.321,102.36c-0.314,0.467-0.628,1.255-1.099,2.04c-1.096,2.664-0.94,5.174-0.94,7.058
				c0,1.724,0,3.765,0,5.962c0,0.938-0.784,1.724-1.726,1.724h-2.039v4.392h4.078h0.156c0.941-0.157,1.569-0.939,1.725-1.881
				c0-6.432,0.158-12.707,0.158-19.138C94.635,102.204,94.477,102.204,94.321,102.36z"/>
			<path fill="#FAD4AF" d="M98.556,119.144c-0.94,0-1.726-0.785-1.726-1.724c0-2.197,0-4.238,0-5.962c0-1.884,0-4.394-0.943-7.058
				c-0.313-0.943-0.781-1.573-1.094-2.04c-0.158-0.156-0.316,0-0.316,0.156c0,6.431,0.158,12.706,0.158,19.138
				c0,1.096,0.627,1.881,1.727,1.881l0,0h0.155h4.077v-4.392H98.556L98.556,119.144z"/>
			<path fill="#84030A" d="M85.066,128.397c-1.882-0.313-4.234-1.098-6.901-2.351c-2.98-1.413-5.176-3.141-6.588-4.552
				c1.727,1.101,3.765,2.355,6.275,3.451c2.666,1.255,5.177,2.037,7.371,2.512C85.066,127.769,85.066,128.085,85.066,128.397z"/>
			<path fill="#84030A" d="M85.066,113.182c-0.941,0-1.882-0.155-2.981-0.315c-1.881-0.153-3.764-0.466-5.49-0.782
				c1.099,0.472,2.353,0.782,3.608,1.255c1.726,0.473,3.294,0.94,4.862,1.255C85.066,114.124,85.066,113.654,85.066,113.182z"/>
			<path fill="#84030A" d="M104.987,128.397c1.726-0.313,4.236-0.939,6.901-2.351c2.98-1.57,5.019-3.297,6.274-4.709
				c-1.569,1.098-3.45,2.354-5.961,3.608c-2.667,1.255-5.332,2.037-7.37,2.512C104.987,127.769,104.987,128.085,104.987,128.397z"/>
			<path fill="#84030A" d="M104.987,113.182c0.941,0,1.883-0.155,2.979-0.315c1.881-0.153,3.768-0.466,5.491-0.782
				c-1.1,0.472-2.353,0.782-3.61,1.255c-1.724,0.473-3.292,0.94-4.86,1.255C104.987,114.124,104.987,113.654,104.987,113.182z"/>
			<path fill="#F8AE38" d="M85.066,113.182l5.176,0.157v14.43c0,0-2.979,0.629-5.176,0.473V113.182z"/>
			<path fill="#F8AE38" d="M104.987,113.182l-5.175,0.157v14.43c0,0,2.979,0.629,5.175,0.473V113.182z"/>
		</g>
		<path d="M85.852,65.186c0,0.157,1.098,1.099,2.666,1.253c1.725,0.159,3.293-0.783,3.136-0.939c0,0-1.254,0.625-2.979,0.469
			C87.106,65.812,86.008,65.029,85.852,65.186z"/>
		<g>
			<g>
				<path d="M102.635,62.676c-2.041-1.255-4.861-0.942-6.588,0.785l-0.473-0.472C97.3,61.108,100.752,60.949,102.635,62.676
					L102.635,62.676z"/>
			</g>
		</g>
		<path d="M102.007,65.186c0,0.157-1.099,1.099-2.666,1.253c-1.726,0.159-3.294-0.783-3.138-0.939c0,0,1.256,0.625,2.98,0.469
			S102.007,65.029,102.007,65.186z"/>
	</g>
	<path fill="#84030A" d="M81.682,106.158c-0.126,4.07-0.126,8.268-0.254,12.338c0.127,0,0.382,0.127,0.509,0.127
		C81.811,114.551,81.811,110.355,81.682,106.158z"/>
	<path fill="#84030A" d="M107.629,106.158c-0.126,4.07-0.126,8.268-0.254,12.338c0.128,0,0.383,0.127,0.51,0.127
		C107.758,114.551,107.758,110.355,107.629,106.158z"/>
</g>
</svg>
