<?xml version="1.0" encoding="utf-8"?>
<!-- Generator: Adobe Illustrator 26.0.1, SVG Export Plug-In . SVG Version: 6.00 Build 0)  -->
<svg version="1.1" id="Layer_1" xmlns="http://www.w3.org/2000/svg" xmlns:xlink="http://www.w3.org/1999/xlink" x="0px" y="0px"
	 viewBox="0 0 634.5 447" style="enable-background:new 0 0 634.5 447;" xml:space="preserve">
<style type="text/css">
	.st0{clip-path:url(#SVGID_00000013170255666648588780000015765117175384948159_);fill:#FFD7DC;}
	.st1{clip-path:url(#SVGID_00000013170255666648588780000015765117175384948159_);fill:#D8989D;}
	.st2{clip-path:url(#SVGID_00000013170255666648588780000015765117175384948159_);}
	.st3{opacity:0.15;}
	.st4{clip-path:url(#SVGID_00000098192895880119061700000015931434759804135303_);fill:#281010;}
	.st5{clip-path:url(#SVGID_00000069388353336312775610000004533211867609525169_);fill:#281010;}
	.st6{fill:#7A574E;}
	.st7{fill:#7B889B;}
	.st8{fill:#6B7B8E;}
	.st9{fill:#BDD8FF;}
	.st10{fill:#ACCFF9;}
	.st11{fill:#D7E9FF;}
	.st12{fill:#8897AA;}
	.st13{fill:#CE4A4A;}
	.st14{fill:#BF3D3D;}
	.st15{fill:#E55757;}
	.st16{fill:#381B19;}
	.st17{fill:#442221;}
	.st18{fill:#F2C9A0;}
	.st19{fill:#DBAC89;}
	.st20{fill:#D3D3D3;}
	.st21{fill:#FFFFFF;}
	.st22{fill:#E4C77B;}
	.st23{fill:#292937;}
	.st24{fill:#1E1E29;}
	.st25{fill:#232330;}
	.st26{fill:#7C7C7C;}
	.st27{opacity:0.41;}
	.st28{fill:#E8DCD6;}
	.st29{fill:#42210B;}
	.st30{fill:#9F0102;}
	.st31{fill:#F8AE38;}
	.st32{fill:#7C5342;}
	.st33{fill:#724A3B;}
	.st34{fill:#FFCB7E;}
	.st35{fill:#6B4337;}
	.st36{fill:#7F5546;}
	.st37{fill:#543730;}
	.st38{fill:#8E695C;}
	.st39{fill:#FAD4AF;}
	.st40{fill:#EFB78E;}
	.st41{fill:#84030A;}
	.st42{fill:none;stroke:#F8AE38;stroke-width:1.7609;stroke-miterlimit:10;}
	.st43{fill:none;}
	.st44{fill:#191513;}
	.st45{fill:#E09D6C;}
</style>
<g>
	<defs>
		<path id="SVGID_1_" d="M33.5,281.3c-2.6-25.1,9.6-53.6,28.7-70.7c32-28.5,71.7-14.3,106.5-52.9c2.1-2.3,5.8-7.7,13.3-18.4
			c44.9-64.5,42.6-83.9,65.6-93.1c16.8-6.7,36.9-8.4,60.3-2.7c95.4,23.2,84.9,89,131.7,84.1c46.8-4.9,127-41.7,141.4,28
			c14.5,69.7-53.4,129.5-10.2,124.5c4.7,0.4,26.3,2.6,30,13.9c3.6,11.4-13.2,25.7-20.7,32c-93.6,79.2-274.8,77.9-274.8,77.9
			c-106-0.8-159-24.2-173.4-30.9C98.7,357.5,38.6,329.9,33.5,281.3z"/>
	</defs>
	<clipPath id="SVGID_00000045607493886955535200000002128115498914589610_">
		<use xlink:href="#SVGID_1_"  style="overflow:visible;"/>
	</clipPath>
	<path style="clip-path:url(#SVGID_00000045607493886955535200000002128115498914589610_);fill:#FFD7DC;" d="M608.7,349.7
		c-2.8,10.5-7.6,20.2-14,28.6c-15.5,20.5-40.2,33.8-67.8,33.8H188.6c-34.5,0-66.9-11.2-93.3-30.4C84,373.4,73.8,363.6,65,352.6
		c-16-20.2-27.2-44.4-31.5-71.3c-4.5-27.9,5.9-56,17.7-73c27.4-39.5,65.2-16.6,110.1-51.3c52.8-40.8,32-96.6,84.5-122
		c35-16.9,74.3-6.5,79.3-5.1c22.5,6.2,37.9,18.1,54.4,30.9c34,26.3,28.4,35.2,47.8,47c48.4,29.6,102.6-14.7,137.1,16.9
		c11,10,14.8,22.5,16.6,30.8c14.5,69.7-53.4,129.5-10.2,124.5c30,3.4,39.9,22.8,40.6,45.8C611.7,334.1,610.8,342.1,608.7,349.7z"/>
	<path style="clip-path:url(#SVGID_00000045607493886955535200000002128115498914589610_);fill:#D8989D;" d="M729.4,283.6
		c0,0-11.4,52.3-21.1,74.3c-23.3,53.1-60.5,87.6-102.2,87.6H96.7c-52,0-100.8-29-140.4-78.9C-60.7,345-89.3,291-89.3,291
		L729.4,283.6z"/>
	<g style="clip-path:url(#SVGID_00000045607493886955535200000002128115498914589610_);">
		<g>
			<g>
				<g class="st3">
					<g>
						<g>
							<defs>
								<rect id="SVGID_00000044891761244063005080000001806293763656128649_" x="163.7" y="279.1" width="15.9" height="98"/>
							</defs>
							<clipPath id="SVGID_00000085938726176977044970000015565017825765944201_">
								<use xlink:href="#SVGID_00000044891761244063005080000001806293763656128649_"  style="overflow:visible;"/>
							</clipPath>
							
								<rect x="163.7" y="279.1" style="clip-path:url(#SVGID_00000085938726176977044970000015565017825765944201_);fill:#281010;" width="15.9" height="98"/>
						</g>
					</g>
				</g>
			</g>
			<g>
				<g class="st3">
					<g>
						<g>
							<defs>
								<rect id="SVGID_00000084520972113774146950000001115079598406983836_" x="446.4" y="279.1" width="15.9" height="98"/>
							</defs>
							<clipPath id="SVGID_00000099636279488494469800000012318882663696624818_">
								<use xlink:href="#SVGID_00000084520972113774146950000001115079598406983836_"  style="overflow:visible;"/>
							</clipPath>
							
								<rect x="446.4" y="279.1" style="clip-path:url(#SVGID_00000099636279488494469800000012318882663696624818_);fill:#281010;" width="15.9" height="98"/>
						</g>
					</g>
				</g>
			</g>
			<g>
				<rect x="220.3" y="150.2" class="st6" width="2" height="131.3"/>
			</g>
			<g>
				<path class="st6" d="M220.3,156.5v4.4l2-0.8v-8.6C222.3,151.4,221.8,154.3,220.3,156.5"/>
			</g>
			<g>
				<path class="st6" d="M222.3,151.4c0,0-1,4.2-8.5,16.2c-7.5,12-19.2,35.1-7.2,59.7c3.3,7.2,9.5,30.6-5.9,49.5h23.8
					c0,0,12.3-29.4,3.3-61.8C218.9,182.6,224.4,158.6,222.3,151.4"/>
			</g>
			<g>
				<path class="st6" d="M220.4,144.5l-1.1,3.1c-0.5,1.4,0.5,2.8,2,2.8c1.4,0,2.4-1.4,2-2.8l-1.1-3.1
					C221.9,143.7,220.7,143.7,220.4,144.5"/>
			</g>
			<g>
				<rect x="222.2" y="150.2" class="st7" width="2" height="131.3"/>
			</g>
			<g>
				<path class="st8" d="M222.2,156.5v4.4l2-0.8v-8.6C224.2,151.4,223.7,154.3,222.2,156.5"/>
			</g>
			<g>
				<rect x="222.2" y="150.2" class="st8" width="2" height="1"/>
			</g>
			<g>
				<path class="st9" d="M224.2,151.4c0,0,0.2,4.2-7.3,16.2c-7.5,12-14.4,35.1-2.4,59.7c3.3,7.2,8.4,30.6-6.9,49.5h18.9
					c0,0,12.3-29.4,3.3-61.8S226.3,158.6,224.2,151.4"/>
			</g>
			<g>
				<path class="st10" d="M214.5,227.3c-0.5-0.9-0.9-1.9-1.3-2.8c1.3,1.8,4.9,7,6.8,9.8c2.2,3.3,14.3,22.2-3.3,42.5h-9.2
					C222.9,257.9,217.8,234.5,214.5,227.3"/>
			</g>
			<g>
				<path class="st11" d="M232.7,231.2c-4.7-7.4-12.2-11.4-16.1-17.3c-6.6-9.9-3.9-25.2,1.7-37c4-8.5,5.7-17.4,6.4-21.8
					c0.4,9.9-2.7,31.7,5.1,59.9C231.4,220.5,232.3,226,232.7,231.2"/>
			</g>
			<g>
				<path class="st7" d="M222.3,144.5l-1.1,3.1c-0.5,1.4,0.5,2.8,2,2.8c1.4,0,2.4-1.4,2-2.8l-1.1-3.1
					C223.8,143.7,222.6,143.7,222.3,144.5"/>
			</g>
			<g>
				<path class="st12" d="M221,148.4c3.3-0.1,2.6-3.8,2.3-5c-0.3,0-0.6,0.1-0.8,0.5l-1.5,4.3C221,148.3,221,148.4,221,148.4"/>
			</g>
			<g>
				<rect x="404.9" y="150.2" class="st6" width="2" height="131.3"/>
			</g>
			<g>
				<path class="st6" d="M406.9,156.5v4.4l-2-0.8v-8.6C404.9,151.4,405.5,154.3,406.9,156.5"/>
			</g>
			<g>
				<path class="st6" d="M404.9,151.4c0,0,1,4.2,8.5,16.2c7.5,12,19.2,35.1,7.2,59.7c-3.3,7.2-9.5,30.6,5.9,49.5h-23.8
					c0,0-12.3-29.4-3.3-61.8C408.3,182.6,402.8,158.6,404.9,151.4"/>
			</g>
			<g>
				<path class="st6" d="M406.8,144.5l1.1,3.1c0.5,1.4-0.5,2.8-2,2.8c-1.4,0-2.4-1.4-2-2.8l1.1-3.1
					C405.3,143.7,406.5,143.7,406.8,144.5"/>
			</g>
			<g>
				<rect x="403" y="150.2" class="st7" width="2" height="131.3"/>
			</g>
			<g>
				<path class="st8" d="M405,156.5v4.4l-2-0.8v-8.6C403,151.4,403.5,154.3,405,156.5"/>
			</g>
			<g>
				<rect x="403" y="150.2" class="st8" width="2" height="1"/>
			</g>
			<g>
				<path class="st13" d="M403,151.4c0,0-0.2,4.2,7.3,16.2c7.5,12,14.4,35.1,2.4,59.7c-3.3,7.2-8.4,30.6,6.9,49.5h-18.9
					c0,0-12.3-29.4-3.3-61.8C406.4,182.6,400.9,158.6,403,151.4"/>
			</g>
			<g>
				<path class="st14" d="M412.7,227.3c0.5-0.9,0.9-1.9,1.3-2.8c-1.3,1.8-4.9,7-6.8,9.8c-2.2,3.3-14.3,22.2,3.3,42.5h9.2
					C404.3,257.9,409.4,234.5,412.7,227.3"/>
			</g>
			<g>
				<path class="st15" d="M394.5,231.2c4.7-7.4,12.2-11.4,16.1-17.3c6.6-9.9,3.9-25.2-1.7-37c-4-8.5-5.7-17.4-6.4-21.8
					c-0.4,9.9,2.7,31.7-5.1,59.9C395.9,220.5,394.9,226,394.5,231.2"/>
			</g>
			<g>
				<path class="st7" d="M404.9,144.5l1.1,3.1c0.5,1.4-0.5,2.8-2,2.8c-1.4,0-2.4-1.4-2-2.8l1.1-3.1
					C403.4,143.7,404.6,143.7,404.9,144.5"/>
			</g>
			<g>
				<path class="st12" d="M406.3,148.4c-3.3-0.1-2.6-3.8-2.3-5c0.3,0,0.6,0.1,0.8,0.5l1.5,4.3C406.2,148.3,406.2,148.4,406.3,148.4"
					/>
			</g>
			<path class="st16" d="M350.6,281.3h-77.1l-3.8-54.8c-0.8-11.8,8.6-21.9,20.4-21.9h43.7c11.9,0,21.2,10,20.4,21.9L350.6,281.3z"/>
			<g>
				<path class="st17" d="M270,228.9c1.4-9.8,9.9-17.5,20.3-17.5h43.7c10.4,0,18.8,7.7,20.3,17.5l0.2-2.4
					c0.8-11.8-8.6-21.9-20.4-21.9h-43.7c-11.9,0-21.2,10-20.4,21.9L270,228.9z"/>
				<g>
					<g>
						<g>
							<g id="XMLID_00000140695016903795514440000007187974054270309291_">
								<path class="st18" d="M330.6,218c0,4.8-7.1,8.6-15.8,8.6c-8.7,0-15.5-3.1-15.5-7.9c0-2.8,4.3-5.2,8.6-6.6v-14.3h13.8v14.3
									C326,213.5,330.6,215.2,330.6,218z"/>
								<path class="st19" d="M321.7,197.9v12.3c-1.4,0.6-4.1,1.5-7.6,1.2c-2.8-0.2-4.9-1.1-6.2-1.7v-11.8H321.7z"/>
								<path class="st20" d="M315,268.8c0,0-20.5-41.3-17.4-49.9c1-3.7,7.1-5.9,7.1-5.9s4.7,2.6,10.4,2.6c5.6,0,10.4-2.6,10.4-2.6
									s5.6,3.7,6.6,7.3C335,228.9,315,268.8,315,268.8z"/>
								<g>
									<polygon class="st21" points="322.3,210 315,215.6 319.9,223.2 325.3,213 									"/>
									<polygon class="st21" points="307.7,210 315,215.6 310.1,223.2 304.6,213 									"/>
								</g>
								<path class="st22" d="M316.6,283.9c0,0.9-0.7,1.6-1.6,1.6c-0.9,0-1.6-0.7-1.6-1.6c0-0.9,0.7-1.6,1.6-1.6
									C315.9,282.3,316.6,283.1,316.6,283.9z"/>
								<path class="st22" d="M316.6,300.5c0,0.9-0.7,1.6-1.6,1.6c-0.9,0-1.6-0.7-1.6-1.6c0-0.9,0.7-1.6,1.6-1.6
									C315.9,298.9,316.6,299.6,316.6,300.5z"/>
								<g>
									<g>
										<g>
											<path class="st23" d="M342.5,219.2c2.7,0,5.4,0.6,7.2,2.1c1.7,1.5,2.6,3.4,3.4,5.2c5.9,13,11.8,26.1,17.7,39.1
												c-1.1,0.7-2.4,1.3-3.8,1.7c0.2,0.5,0.4,1.1,0.5,1.6c-2.3,0.8-3.5,1.4-7.1,2.2c-1.6,0.4-4.2,0.3-5.9,0.4l0.1,0.7
												c-3.3,0.2-6.6,0.1-9.9-0.1c0,0-4.4-31.9-7.1-38.9C334.9,226.1,339.8,219.2,342.5,219.2z"/>
											<path class="st24" d="M354.6,271.4c0.3,0,0.7,0,1,0c-0.7-1.4-2.3-4-2.3-4S354.3,270.1,354.6,271.4z"/>
											<path class="st24" d="M368.2,266.9c-1.5-1.7-4.6-4.9-4.6-4.9s2.4,3.7,3.4,5.5c0-0.1-0.1-0.2-0.1-0.2
												C367.4,267.2,367.8,267.1,368.2,266.9z"/>
											<path class="st24" d="M341.3,238.2c-0.4-2.4,0.6-6.5,0.8-7.6c0.4-2.6-2.9-3.5-4.9-4.9c-0.6,2.2-0.6,4.8,0.4,7.4
												c2.7,7,7.1,38.9,7.1,38.9c1.7,0.1,3.4,0.2,5.1,0.2c-0.7-0.7-1.3-1.6-1.6-2.7C344.9,258.5,341.7,240.6,341.3,238.2z"/>
										</g>
									</g>
									<g>
										<g>
											<path class="st23" d="M287.5,219.2c-2.7,0-5.4,0.6-7.2,2.1s-2.6,3.4-3.4,5.2c-5.9,13-11.8,26.1-17.7,39.1
												c1.1,0.7,2.4,1.3,3.8,1.7c-0.2,0.5-0.4,1.1-0.5,1.6c2.3,0.8,3.5,1.4,7.1,2.2c1.6,0.4,4.2,0.3,5.9,0.4l-0.1,0.7
												c3.3,0.2,6.6,0.1,9.9-0.1c0,0,4.4-31.9,7.1-38.9C295.1,226.1,290.1,219.2,287.5,219.2z"/>
											<path class="st24" d="M275.4,271.4c-0.3,0-0.7,0-1,0c0.7-1.4,2.3-4,2.3-4S275.6,270.1,275.4,271.4z"/>
											<path class="st24" d="M261.8,266.9c1.5-1.7,4.6-4.9,4.6-4.9s-2.4,3.7-3.4,5.5c0-0.1,0.1-0.2,0.1-0.2
												C262.6,267.2,262.2,267.1,261.8,266.9z"/>
											<path class="st24" d="M288.6,238.2c0.4-2.4-0.6-6.5-0.8-7.6c-0.4-2.6,2.9-3.5,4.9-4.9c0.6,2.2,0.6,4.8-0.4,7.4
												c-2.7,7-7.1,38.9-7.1,38.9c-1.7,0.1-3.4,0.2-5.1,0.2c0.7-0.7,1.3-1.6,1.6-2.7C285.1,258.5,288.2,240.6,288.6,238.2z"/>
										</g>
									</g>
									<g>
										<g>
											<path class="st23" d="M347.4,317.1c-0.5-0.7-4.4-74.4-4.3-80.8c0-2.9,5.5-13.1,3.4-15.7c-2-2.6-17.3-6-19.8-6.6
												c-0.2,0,0,5.7,0,13.1c0,5.7-9.9,10.5-12.4,10.5S302,233,302,227.2c0-7.3,0.2-13,0-12.9c-2.1,0.6-16.8,4.1-18.6,6.3
												c-2,2.6,3.4,12.8,3.4,15.7c0,6.4-3.8,80.1-4.3,80.8c-1.2,1.8,3.8,2.6,7.5,2.7c0,0,15.5,1.4,24.2,1.4s25.9-1.4,25.9-1.4
												C343.6,319.8,348.6,318.9,347.4,317.1z"/>
										</g>
										<g>
											<path class="st25" d="M319.1,235.9h24c0.5-3.4,5.3-12.8,3.4-15.3c-2-2.6-17.3-6-19.8-6.6c-0.2,0,0,5.7,0,13.1
												C326.7,230.7,322.7,234,319.1,235.9z"/>
											<path class="st25" d="M309.4,235.9c-3.5-1.8-7.4-5-7.4-8.7c0-7.3,0.2-13,0-12.9c-2.1,0.6-16.8,4.1-18.6,6.3
												c-1.9,2.5,2.9,11.9,3.4,15.3H309.4z"/>
										</g>
										<polygon class="st24" points="314.8,321.2 314.7,237.6 313.8,237.6 314.4,321.2 										"/>
										<polygon class="st24" points="304.4,235.9 305.3,235.9 304.2,311.8 										"/>
										<polygon class="st24" points="293.5,235.9 294.4,235.9 293.4,302.6 										"/>
										<polygon class="st24" points="335.7,235.9 336.6,235.9 335.6,305.7 										"/>
										<polygon class="st24" points="324.9,235.9 325.8,235.9 324.7,302.6 										"/>
									</g>
								</g>
							</g>
							<g id="XMLID_00000052790844229303375290000003922980163036260533_">
								<g>
									<g>
										<path class="st18" d="M337.1,189.5c-0.5,2.7-4.7,6.6-6,6.3c-1.3-0.3-0.3-4.2,0.2-6.9s1-4.1,2.1-4.9
											C335,183,338.1,184.1,337.1,189.5z"/>
										<path class="st18" d="M292.2,188.5c0.5,2.6,3.2,6.3,4.5,6.1c1.2-0.2,1.6-4.1,1.1-6.6c-0.5-2.6-1-4-2-4.7
											C294.2,182.2,291.2,183.2,292.2,188.5z"/>
									</g>
									<path class="st18" d="M314.1,209.9c-2.1,0-3.7-0.6-4.2-0.8c-2.6-0.9-4.1-2.5-6.4-4.8c-0.4-0.4-2.8-2.9-4.2-5.3
										c-4.6-7.5-3.1-18.2-2.9-19.8c0.7-8.2,4.2-11.3,5.7-12.4c2.1-1.5,3.4-1.2,12.4-2.9c9.5-1.7,10.5-2.5,12.4-1.7
										c5.8,2.4,6.5,12.9,6.7,17c-0.6,10.1-3.2,17.9-5.7,21.6c-1.5,2.2-3.2,4-3.4,4.3c-1.7,1.7-3.3,3.3-5.9,4.2
										C318.2,209.4,316.4,210,314.1,209.9z"/>
								</g>
							</g>
						</g>
						<path class="st26" d="M330.9,190.6c-0.5-0.1,1.9-4.9,0-10c-0.7-2-1.5-2.4-2.2-4.8c-0.8-2.6-0.6-5-0.4-6.6
							c-1.1,1.8-2.3,3-3.2,3.7c-6.8,5.5-16.7,2.8-18.5,2.3c-2.3-0.6-4-1.5-5-2c0.4,1.3,0.2,2.3,0.1,2.8c-0.2,0.8-0.6,1.5-1,2.2
							c-0.4,0.7-0.7,1.1-0.7,1.2c-1.6,2.3-1.2,11.2-1.5,11.2c-0.1,0-0.1-0.3-0.4-1.3c-0.2-0.9-0.5-1.6-0.5-1.9
							c-0.1-1.2-1-1.5-1.4-2.7c-0.2-0.5-0.3-0.9-0.4-1.4c0,0-0.4-1.5-0.5-3.3c-0.1-1.7,0.2-5.3,1.1-10c0.2-1.1,0.7-3,2-4.8
							c1.1-1.4,2.3-2.1,4.7-3.5c2.3-1.3,4.8-2.4,6.5-2.9c0.3-0.1,1-0.2,2-0.6c1.5-0.5,1.9-0.8,4.4-1.2c2.4-0.3,4.9-0.7,7.5,0.5
							c2.4,1.2,3.8,3.2,4.5,4.5c1.5,0.5,5,1.8,6.6,5.2c1.1,2.4,0.9,5,0.6,7.5c0,0.4-0.3,2-0.8,5.2c-0.4,2.2-0.5,3.3-0.6,3.5
							C332.9,187.3,331.3,190.7,330.9,190.6z"/>
					</g>
					<path class="st26" d="M308.6,184.8c0.5-0.1,1,0,1.2,0.3c0,0,0.2,0.2,0.1,0.4c-0.1,0.4-0.6,0.6-1,0.6c-1.3,0.1-2.7,0.2-4.3,0.4
						c-2.2,0.3-4.6,0.6-5.2,1.1c0.5-0.3,1.1-0.7,1.8-1C304,185.4,306.6,184.9,308.6,184.8z"/>
					<path class="st26" d="M317.8,184.6c-0.5-0.1-1,0-1.2,0.3c0,0-0.2,0.2-0.1,0.4c0.1,0.4,0.6,0.6,1,0.6c1.3,0.1,2.7,0.2,4.3,0.4
						c2.2,0.3,4.6,0.6,5.2,1.1c-0.5-0.3-1.1-0.7-1.8-1C322.4,185.2,319.8,184.7,317.8,184.6z"/>
					<g>
						<path d="M324.2,190.8c-1.5-0.8-2.9-0.8-4.4,0C320.7,189.2,323.3,189.3,324.2,190.8L324.2,190.8z"/>
					</g>
					<g>
						<path d="M322.5,189.9c-0.1-0.3-0.5-0.3-0.8-0.2c-0.3,0.1-0.5,0.3-0.4,0.6c0,0,0.2,0.3,0.6,0.3c0.1,0,0.4,0,0.5-0.2
							C322.6,190.2,322.5,189.9,322.5,189.9z"/>
					</g>
					<g>
						<path d="M307.3,191.3c-1.5-0.8-3-0.8-4.5,0C303.7,189.7,306.3,189.7,307.3,191.3L307.3,191.3z"/>
					</g>
					<g>
						<path d="M305.6,190.4c-0.1-0.3-0.5-0.3-0.9-0.1c-0.3,0.1-0.5,0.3-0.3,0.6c0,0,0.2,0.3,0.6,0.3c0.1,0,0.4,0,0.6-0.2
							C305.7,190.7,305.6,190.4,305.6,190.4z"/>
					</g>
					<g>
						<g>
							<g>
								<g class="st27">
									<polygon class="st28" points="309.9,194.9 300.9,194.9 299.9,189 310.9,189 310.6,191.1 310.5,191.4 									"/>
								</g>
								<g>
									<path class="st29" d="M310.2,195.1h-9.4l-1.1-6.4h11.6L310.2,195.1z M301.1,194.7h8.6l0.9-5.4h-10.4L301.1,194.7z"/>
								</g>
							</g>
							<g>
								<g class="st27">
									<polygon class="st28" points="325.7,194.4 316.7,194.4 315.7,188.5 326.7,188.5 									"/>
								</g>
								<g>
									<path class="st29" d="M326,194.7h-9.4l-1.1-6.4H327L326,194.7z M316.9,194.2h8.6l0.9-5.4H316L316.9,194.2z"/>
								</g>
							</g>
						</g>
						<g>
							<g>
								<path class="st29" d="M310.7,191.6l-0.2-0.4c0,0,2.7-2.9,5.7-0.3l-0.2,0.5C313.3,189.1,310.8,191.5,310.7,191.6z"/>
							</g>
						</g>
						<g>
							<polygon class="st29" points="300.2,191.8 296.1,184.4 295.8,183.1 300.6,191.6 							"/>
						</g>
						<g>
							<polygon class="st29" points="326.6,191.3 326.3,190.9 333.8,183.2 333.6,183.9 							"/>
						</g>
					</g>
					<path class="st19" d="M310.7,202.3c0,0,2.9,2.9,7.5,0c-1.3,0.1-2.8,0.2-4.3,0.2C312.8,202.5,311.7,202.4,310.7,202.3z"/>
					<g>
						<path class="st19" d="M314.2,200.4c-0.9,0-1.7-0.6-1.7-0.8c0-0.1,0.6,0.1,1.8,0.1c1.1,0,1.7-0.3,1.7-0.2
							C316,199.7,315.2,200.5,314.2,200.4z"/>
					</g>
					<path class="st30" d="M310.8,222.2c0,12.7,0.1,25.4,0.1,38.1c3,0,6,0,9,0c-0.2-12.6-0.4-25.2-0.5-37.8
						c-1.5-2.3-2.9-4.6-4.4-6.9C313.6,217.8,312.2,220,310.8,222.2z"/>
					<path class="st31" d="M313.7,225.7c0,0,0,0.4-0.3,0.7c-0.3,0.4-0.6,0.5-0.6,0.5s0.2,0,0.3,0.1c0.1,0,0.4,0.1,0.5,0.3
						c0.2,0.2,0,0.6,0.1,0.6c0,0,0-0.5,0.4-0.8c0.3-0.3,0.6-0.3,0.6-0.4c0-0.1-0.1-0.1-0.2-0.1C314.3,226.5,314,226.3,313.7,225.7z"
						/>
					<path class="st31" d="M316.9,231.3c0,0,0,0.4-0.3,0.7s-0.6,0.5-0.6,0.5s0.2,0,0.3,0.1c0.1,0,0.4,0.1,0.5,0.3
						c0.2,0.2,0,0.6,0.1,0.6c0,0,0-0.5,0.4-0.8c0.3-0.3,0.6-0.3,0.6-0.4c0-0.1-0.1-0.1-0.2-0.1C317.5,232.1,317.2,231.9,316.9,231.3
						z"/>
					<path class="st31" d="M313,236.7c0,0,0,0.4-0.3,0.7c-0.3,0.4-0.6,0.5-0.6,0.5s0.2,0,0.3,0.1c0.1,0,0.4,0.1,0.5,0.3
						c0.2,0.2,0,0.6,0.1,0.6c0,0,0-0.5,0.4-0.8c0.3-0.3,0.6-0.3,0.6-0.4c0-0.1-0.1-0.1-0.2-0.1C313.6,237.5,313.3,237.3,313,236.7z"
						/>
					<path class="st31" d="M316.4,241.5c0,0,0,0.4-0.3,0.7c-0.3,0.4-0.6,0.5-0.6,0.5s0.2,0,0.3,0.1c0.1,0,0.4,0.1,0.5,0.3
						c0.2,0.2,0,0.6,0.1,0.6c0,0,0-0.5,0.4-0.8c0.3-0.3,0.6-0.3,0.6-0.4c0-0.1-0.1-0.1-0.2-0.1C317,242.3,316.7,242.1,316.4,241.5z"
						/>
					<path class="st31" d="M312.7,247.7c0,0,0,0.4-0.3,0.7c-0.3,0.4-0.6,0.5-0.6,0.5s0.2,0,0.3,0.1c0.1,0,0.4,0.1,0.5,0.3
						c0.2,0.2,0,0.6,0.1,0.6c0,0,0-0.5,0.4-0.8c0.3-0.3,0.6-0.3,0.6-0.4c0-0.1-0.1-0.1-0.2-0.1C313.3,248.5,313,248.3,312.7,247.7z"
						/>
					<path class="st31" d="M317,253.4c0,0,0,0.4-0.3,0.7s-0.6,0.5-0.6,0.5s0.2,0,0.3,0.1c0.1,0,0.4,0.1,0.5,0.3
						c0.2,0.2,0,0.6,0.1,0.6c0,0,0-0.5,0.4-0.8c0.3-0.3,0.6-0.3,0.6-0.4c0-0.1-0.1-0.1-0.2-0.1C317.6,254.2,317.3,254,317,253.4z"/>
				</g>
			</g>
			<g>
				<path class="st22" d="M313.3,278.9c0,0.7-0.6,1.2-1.2,1.2s-1.2-0.6-1.2-1.2c0-0.7,0.6-1.2,1.2-1.2
					C312.8,277.7,313.3,278.2,313.3,278.9"/>
			</g>
			<g>
				<path class="st22" d="M313.3,291.6c0,0.7-0.6,1.2-1.2,1.2s-1.2-0.6-1.2-1.2s0.6-1.2,1.2-1.2
					C312.8,290.4,313.3,290.9,313.3,291.6"/>
			</g>
			<g>
				<path class="st24" d="M342.5,269.3c0.2,0,0.5,0,0.8,0c-0.5-1-1.7-3-1.7-3S342.3,268.3,342.5,269.3"/>
			</g>
			<g>
				<path class="st24" d="M352.9,265.8c-1.1-1.3-3.5-3.8-3.5-3.8s1.8,2.8,2.6,4.2c0-0.1,0-0.1-0.1-0.2
					C352.3,266.1,352.6,266,352.9,265.8"/>
			</g>
			<g>
				<path class="st24" d="M281.7,269.3c-0.2,0-0.5,0-0.8,0c0.5-1,1.7-3,1.7-3S281.9,268.3,281.7,269.3"/>
			</g>
			<g>
				<path class="st24" d="M271.3,265.8c1.1-1.3,3.5-3.8,3.5-3.8s-1.8,2.8-2.6,4.2c0-0.1,0-0.1,0.1-0.2
					C271.9,266.1,271.6,266,271.3,265.8"/>
			</g>
			<g>
				<rect x="171.3" y="265.1" class="st32" width="284.6" height="112"/>
			</g>
			<g>
				<rect x="171.3" y="265.1" class="st33" width="284.6" height="13.1"/>
			</g>
			<g>
				<path class="st34" d="M306.8,282.5H181.4c-1.5,0-2.8,1.2-2.8,2.8v83.1c0,1.5,1.2,2.8,2.8,2.8h125.4c1.5,0,2.8-1.2,2.8-2.8v-83.1
					C309.5,283.7,308.3,282.5,306.8,282.5"/>
			</g>
			<g>
				<path class="st33" d="M303.5,285.6h-119c-1.5,0-2.8,1.2-2.8,2.8v76.9c0,1.5,1.2,2.8,2.8,2.8h119c1.5,0,2.8-1.2,2.8-2.8v-76.9
					C306.2,286.8,305,285.6,303.5,285.6"/>
			</g>
			<path class="st34" d="M317.8,285.3v83.1c0,1.5,1.2,2.8,2.8,2.8h125.4c1.5,0,2.8-1.2,2.8-2.8v-83.1c0-1.5-1.2-2.8-2.8-2.8H320.6
				C319,282.5,317.8,283.7,317.8,285.3"/>
			<g>
				<path class="st33" d="M321.3,288.4v76.9c0,1.5,1.2,2.8,2.8,2.8h118.8c1.5,0,2.8-1.2,2.8-2.8v-76.9c0-1.5-1.2-2.8-2.8-2.8H324.1
					C322.5,285.6,321.3,286.8,321.3,288.4"/>
			</g>
			<g>
				<path class="st35" d="M169.1,269.9v2.9c0,1.6,1.3,2.9,2.9,2.9h283.3c1.6,0,2.9-1.3,2.9-2.9v-2.9H169.1z"/>
			</g>
			<g>
				<path class="st35" d="M299.3,290.5H191.5c-1.4,0-2.5,1.1-2.5,2.5v69.7c0,1.4,1.1,2.5,2.5,2.5h107.8c1.4,0,2.5-1.1,2.5-2.5V293
					C301.8,291.6,300.7,290.5,299.3,290.5"/>
			</g>
			<path class="st32" d="M297.9,289.5H190.1c-1.4,0-2.5,1.1-2.5,2.5v69.7c0,1.4,1.1,2.5,2.5,2.5h107.8c1.4,0,2.5-1.1,2.5-2.5V292
				C300.4,290.6,299.3,289.5,297.9,289.5"/>
			<g>
				<path class="st36" d="M267.7,289.5h-77.6c-1.4,0-2.5,1.1-2.5,2.5v44.2C258,335.9,266.7,301,267.7,289.5"/>
			</g>
			<g>
				<path class="st35" d="M438.8,290.5H331c-1.4,0-2.5,1.1-2.5,2.5v69.7c0,1.4,1.1,2.5,2.5,2.5h107.8c1.4,0,2.5-1.1,2.5-2.5V293
					C441.3,291.6,440.2,290.5,438.8,290.5"/>
			</g>
			<path class="st32" d="M437.4,289.5H329.6c-1.4,0-2.5,1.1-2.5,2.5v69.7c0,1.4,1.1,2.5,2.5,2.5h107.8c1.4,0,2.5-1.1,2.5-2.5V292
				C439.9,290.6,438.7,289.5,437.4,289.5"/>
			<g>
				<path class="st36" d="M407.1,289.5h-77.6c-1.4,0-2.5,1.1-2.5,2.5v44.2C397.5,335.9,406.2,301,407.1,289.5"/>
			</g>
			<g>
				<path class="st37" d="M344.1,303h-60.8c-5.2,0-9.4-4.2-9.4-9.4c0-5.2,4.2-9.4,9.4-9.4h60.8c5.2,0,9.4,4.2,9.4,9.4
					C353.5,298.8,349.3,303,344.1,303"/>
			</g>
			<path class="st38" d="M351.5,293.6c0,4.2-3.4,7.6-7.6,7.6h-60.4c-3.5,0-6.4-2.3-7.3-5.5c-0.2-0.5-0.3-1.1-0.3-1.7
				c0-0.1,0-0.3,0-0.4c0-0.1,0-0.3,0-0.4c0.2-4,3.5-7.2,7.6-7.2h60.4C348.1,286,351.5,289.4,351.5,293.6z"/>
			<g>
				<path class="st37" d="M297.2,298.5v-1.2c0.1,0,0.3,0,0.5,0c0.2,0,0.4-0.1,0.6-0.2c0.1-0.1,0.2-0.3,0.2-0.6v-6.6h1.4v6.5
					c0,1.4-0.6,2.2-1.9,2.2C297.5,298.5,297.3,298.5,297.2,298.5"/>
			</g>
			<g>
				<path class="st37" d="M302.8,296.4v-6.6h1.4v6.6c0,0.6,0.2,0.8,0.7,0.8c0.5,0,0.7-0.3,0.7-0.8v-6.6h1.4v6.6
					c0,0.7-0.2,1.2-0.5,1.6c-0.4,0.4-0.9,0.6-1.5,0.6c-0.7,0-1.2-0.2-1.5-0.6C303,297.7,302.8,297.1,302.8,296.4"/>
			</g>
			<g>
				<path class="st37" d="M309.9,298.5v-8.6h2.1c0.7,0,1.2,0.2,1.5,0.5c0.3,0.4,0.5,0.9,0.5,1.6v4.4c0,0.7-0.2,1.2-0.5,1.6
					s-0.8,0.5-1.5,0.5H309.9z M311.3,297.2h0.8c0.2,0,0.4-0.1,0.5-0.2c0.1-0.1,0.2-0.3,0.2-0.6v-4.5c0-0.3-0.1-0.5-0.2-0.6
					c-0.1-0.1-0.3-0.2-0.5-0.2h-0.8V297.2z"/>
			</g>
			<g>
				<path class="st37" d="M317,296.4v-4.5c0-0.7,0.2-1.2,0.5-1.6c0.3-0.4,0.8-0.6,1.5-0.6c0.7,0,1.2,0.2,1.5,0.6
					c0.4,0.4,0.5,0.9,0.5,1.6v0.8h-1.4v-0.9c0-0.6-0.2-0.8-0.6-0.8c-0.5,0-0.8,0.3-0.8,0.8v4.7c0,0.6,0.3,0.8,0.8,0.8
					c0.4,0,0.6-0.3,0.6-0.8v-1.6h-0.5v-1.2h1.9v2.7c0,0.7-0.2,1.2-0.5,1.6c-0.4,0.4-0.9,0.6-1.5,0.6c-0.7,0-1.2-0.2-1.5-0.6
					C317.2,297.6,317,297.1,317,296.4"/>
			</g>
			<g>
				<polygon class="st37" points="324.1,298.5 324.1,289.9 327.8,289.9 327.8,291.1 325.4,291.1 325.4,293.5 327.3,293.5 
					327.3,294.7 325.4,294.7 325.4,297.2 327.8,297.2 327.8,298.5 				"/>
			</g>
		</g>
		<g>
			<g>
				<path class="st39" d="M324,265.6c-4.8,0.9-5.9-6.2-0.7-3.9l-0.1,0C325.7,261.2,326.5,265.1,324,265.6z"/>
				<path class="st39" d="M324.2,262.8c-6.5-0.6-3.5-7.6-0.3-4.1c0,0-0.1,0,0,0c0.1,0,0.2,0.1,0.4,0.1c0,0,0.1,0,0,0
					C326.8,258.8,326.8,262.9,324.2,262.8z"/>
				<path class="st39" d="M324.4,259.5l-1.9-0.7c-2.4-0.8-1.1-4.6,1.3-3.7c0,0,1.9,0.7,1.9,0.7C328.1,256.6,326.7,260.4,324.4,259.5
					z"/>
				<path class="st39" d="M345.6,263.5c-1-0.8-2.4-2-3.7-4c-1.4-2.2-1.4-3.6-2.1-4.8c-1.1-1.8-4.8,1.9-13.2-2.2l-3.9,12.5
					c0,0,7.6,7.5,18.4,7.9c1.7,1.1,3.3,2.3,5,3.4c1.9-3,3.7-6,5.6-9C349.6,266,347.6,264.7,345.6,263.5z"/>
				<path class="st39" d="M333.9,255c-1.9-2-20.9-8-20.9-3.8c-0.1,1.7,1.9,1.6,3,1.8c4.3,0.7,8.6,2.1,12.4,4.3
					c2,0.8,3.9,3.9,6.2,1.9C335.9,258,335.5,255.8,333.9,255z"/>
				<path class="st39" d="M329,245.4c2.2,5,4.4,10.1,6.3,15.2c1.6,4.3,7.2,1.6,5.7-2.8c-2.5-7.4-5.2-9.7-9.2-14.1
					C330.5,242.2,328.1,243.6,329,245.4z"/>
				<path class="st40" d="M325.4,265c0.6-1-0.1-2.5-0.2-2.5c-0.1,0-0.2,0.3,0,0.8c0,0.2,0.1,0.7-0.2,1.2c-0.5,0.9-1.5,1.1-1.6,1.1
					c0.1,0,0.3,0.1,0.5,0.1C324.6,265.8,325.1,265.4,325.4,265z"/>
				<path class="st40" d="M326.1,262.1c0.6-0.6,0.6-2.9-0.5-2.8c-0.4,0.6,1,1.4-0.2,2.7c-0.8,0.8-2.1,0.4-3,0
					c-0.5-0.3-1.1-0.5-1.6-0.8c1.4,1.5,3.1,2.1,4.4,1.6C325.5,262.7,325.8,262.5,326.1,262.1z"/>
				<path class="st40" d="M326.8,259c0.9-1.2,0.3-3-1.1-3.5l0,0c-1.7-0.5-2.2-0.5-2.2-0.5c0,0.1,0.4,0.3,2,1c2,0.7,0.9,3.9-1.1,3.2
					c0,0,0,0,0,0c-0.8-0.3-3.1-1.4-3.1-1.4c-0.1,0.1,2.2,2.5,4.2,2C325.7,259.8,326.4,259.6,326.8,259z"/>
				<path class="st40" d="M337.5,264.2c-1.1-1-3.1-3.1-4.1-6.5c-0.4-1.3-0.5-2.5-0.6-3.5c-0.1,0-0.3-0.1-0.4-0.1
					c-0.1,1-0.1,4,1.7,6.8C335.3,262.7,336.6,263.7,337.5,264.2z"/>
			</g>
			<g>
				<path class="st30" d="M474.6,292.5c-21.4,8.3-42.8,16.6-64.2,24.8c-21.8-9.9-43.6-19.8-65.4-29.7c-2.3-1-4.6-2.1-6.9-3.1
					c0.7-3.4,2.1-8.4,5.2-13.6c3.9-6.7,8.7-10.9,11.8-13.2c2.2,1.2,4.3,2.4,6.5,3.6c16.5,9.4,33.1,18.7,49.6,28.1
					c11.3-7.1,22.7-14.1,34-21.2c1,0.1,14.5,1.4,22.6,6.3c3.8,2.3,6.8,5.4,7.7,6.7c0.9,1.2,1.4,2.3,2,3.2
					C479.2,287.3,477.9,291.2,474.6,292.5z"/>
				<path class="st41" d="M410.8,314.3c-13.3-5.8-26.6-11.7-39.8-17.5c-10.8-4.8-21.6-9.5-32.4-14.3c-0.1,0.6-0.3,1.3-0.4,1.9
					c10.8,5,21.7,10,32.6,15c13.3,6.1,26.5,12,39.7,17.8c22.3-8.9,44.5-17.8,66.8-26.8C455.1,298.5,433,306.4,410.8,314.3z"/>
				<path class="st41" d="M410.4,291.1c23.2-15.2,34.8-22.8,34.7-23c-0.1-0.2-11.4,6.9-34,21.2c-10.3-6-20.7-12-31.4-18
					c-8.3-4.7-16.5-9.2-24.7-13.7c-0.5,0.4-1,0.7-1.4,1.1c8.3,4.5,16.6,9.1,25,13.9C389.5,278.8,400.1,285,410.4,291.1z"/>
				<path class="st31" d="M361.7,261.2c-3.5,3-8.3,8-12.2,15.2c-2.2,4.1-3.6,8-4.5,11.3c-2.4-1.1-4.8-2.1-7.2-3.2
					c0.7-3.5,2.2-8.5,5.3-13.8c3.9-6.7,8.7-11,11.8-13.3C357.2,258.6,359.4,259.9,361.7,261.2z"/>
			</g>
			<path class="st31" d="M473,241.2c-2,0.5-4.3,1.2-6.7,2.2c-2,0.8-3.8,1.7-5.3,2.6c0.3,0.9,0.6,1.7,1,2.6c3.7-1.1,7.5-2.3,11.2-3.4
				C473,243.8,473,242.5,473,241.2z"/>
			<path class="st30" d="M449.1,346.6c23.6,6.1,47.1,12.1,70.7,18.2c0,0-0.4-7.1-1-15.9c0,0-1.1-14.6-2.4-26.6
				c-2.8-25.3-10-58.3-11.2-63.8c-10.7-4.5-21.4-8.9-32.2-13.4c-1.9,0.2-4.3,0.6-6.8,1.5c-5.1,1.7-8.7,4.2-11.1,6.2
				c-4.5,5.9-9,11.9-13.6,17.8C444.1,295.9,446.6,321.3,449.1,346.6z"/>
			<path class="st30" d="M444.5,304.1c24.6,13.6,49.3,27.1,73.9,40.7c0.2,1.2,0.4,2.6,0.6,4.1c0.2,1.4,1,8.3,0.7,15.9
				c-0.3,10.9-2.7,20.4-4,24.8c-20.3,4.6-40.5,9.1-60.8,13.7C451.5,370.2,448,337.2,444.5,304.1z"/>
			<path class="st42" d="M455.4,257.8c-0.5,11.4-0.5,23.8,0.3,37.3c1,17.3,3.2,33,5.9,46.8c2.1,19.5,4.2,39,6.4,58.5"/>
			<path class="st42" d="M462.2,278.8c-3.9,0.4-7.7,0.7-11.6,1.1"/>
			<path class="st42" d="M463.1,311.7c-3.8,0.2-7.6,0.4-11.4,0.7"/>
			<path class="st42" d="M468.1,340.3c-4.2,0.6-8.5,1.1-12.7,1.7"/>
			<path class="st42" d="M472.2,382.2c-4.3,0.5-8.5,1-12.8,1.5"/>
			<path class="st31" d="M467.1,239.7c-1.7,0.5-5,1.8-7.8,4.8c-4.9,5.3-4.8,11.9-4.8,13.3c0.3,0,0.6,0,0.9,0c0.1-1.6,0.6-5.9,3.8-10
				c4-5.1,9.5-6.3,10.9-6.5C469.1,240.8,468.1,240.2,467.1,239.7z"/>
			<g>
				<path class="st43" d="M455.6,264.8"/>
			</g>
			<g>
				<path class="st44" d="M477,235.3c-0.4,0.6-1.2,1.4-2.3,2.2c-0.3,0.2-0.8,0.6-1.6,0.9c-1.3,0.5-2.6,0.7-3.5,0.6
					c0-1.6,0.1-5.1,2.1-8.8c1.9-3.5,4.5-5.4,5.8-6.3C477.3,227.7,477.2,231.5,477,235.3z"/>
				<g>
					<path class="st39" d="M455.5,258.5c0.8-1.3,1.7-2.7,2.6-4.2c0.9-1.3,1.8-2.6,2.7-3.8c0.4-0.5,0.9-0.9,1.4-1.4
						c0.4-0.3,0.8-0.7,1.2-1.1c1.4-1.1,2.8-2,4.1-2.7c1.7-0.9,3.2-1.4,4.5-1.8c-0.2-0.8-0.5-1.6-0.6-2.6c0-0.4-0.1-0.9-0.1-1.4l0,0
						c0-0.1,0-0.1,0-0.2c0-0.6,0-1.2,0.1-1.7c0-0.3,0.1-0.6,0.1-0.9c-4.4,1.4-8.9,2.8-13.4,4.1c-1.3,0.4-2.5,0.8-3.8,1.2l0,0l0,0.1
						c0.1,0.6,0.2,1.1,0.3,1.7c0.3,1.9,0.7,3.8,1,5.8l0,0.1c0.1,0.4,0.1,0.8,0.2,1.1c0.2,0.8,0.3,1.7,0.5,2.6
						c-0.2,0.4-0.3,0.9-0.5,1.4C455.4,256.3,455.4,257.6,455.5,258.5z"/>
					<path class="st45" d="M454.2,242.2c0.1,0.6,0.2,1.1,0.3,1.7c0.3,1.9,0.7,3.8,1,5.8l0,0.1c0.6,0,1.2-0.1,1.8-0.2
						c1.7-0.3,3.2-0.8,4.5-1.5c2.2-1.1,3.9-2.5,5.2-3.8c0.4-0.4,0.8-0.8,1.6-1.7c1-1.1,1.9-2.1,2.5-2.8l0,0c0-0.1,0-0.1,0-0.2
						c0-0.6,0-1.2,0.1-1.7c0-0.3,0.1-0.6,0.1-0.9c-4.4,1.4-8.9,2.8-13.4,4.1C456.8,241.4,455.5,241.8,454.2,242.2z"/>
					<path class="st39" d="M451.4,181.6c20-2.9,25,10.2,26.2,17.9c0.5,3.5,0.9,6,1,9.7c0.1,4.3,0.2,9.8-1.5,16.2
						c-1.2,4.7-3,11.3-8.6,16.7c-3.1,2.9-5.7,4.4-6.7,4.9c-2.7,1.2-4.9,1.5-5.5,1.6c-1.1,0.1-2.7,0.3-4.2,0
						c-2.7-0.7-3.8-3.1-7.6-8.3c-1.9-2.6-4.1-5-5.7-8.9c-4.3-10.1-6.1-17.4-7.2-25.1C430.4,198.5,431.5,184.5,451.4,181.6z"/>
					<path class="st44" d="M447.9,180.5c-5.8-0.4-9.5,1.5-11.1,2.5c-8.2,5-9.8,16-8.5,23.1c1.2,6.5,5,11.4,5.5,11.2
						c0.3-0.1-0.6-2-0.5-5.4c0-1.6,0.3-3,0.5-3.9c0.3-1.4,0.8-2.6,1.2-3.5c1.3,4.3,1.9,5.3,2.2,5.2c0.5-0.1,0-2.7,0.7-6.2
						c0.7-3.5,2.5-7.2,3.5-7c1.2,0.2,1.2,4.7,2,4.7c0.4,0,0.4-1.3,1.6-3c0.6-0.8,1.5-2.1,2.5-2.1c1.1,0,1.8,1.4,4.1,5.6
						c2.7,4.8,3.2,5.6,3.7,5.6c0.5-0.1,1.2-1.1,1.4-5.9c1,1.1,1.6,2.1,3.8,5c1.2,1.5,2.2,2.7,2.5,2.7c0.5,0,1.5-2.4,2.1-5.1
						c0.6,0.7,1.3,1.8,1.7,3.2c0.4,1.4,0.1,1.9,0.3,3.1c0.4,2.4,2,2.7,3.8,5.9c1.7,3,1.5,4.7,2.5,4.9c1.3,0.2,2.9-3.5,3.6-5.3
						c-2,14.9-1.8,19.6-0.8,19.8c1.3,0.3,4.8-6.5,6.5-13.2c0-0.2,0.2-0.8,0.3-1.4c1.1-5.1,3.4-19.5-4.7-31.4c-2.4-3.5-5-5.7-6.3-6.7
						c-2.6-2-7.8-6-14.8-5.6C455.5,177.4,451.9,177.9,447.9,180.5z"/>
				</g>
				<path class="st42" d="M477.8,251.9"/>
				<g>
					<g>
						<path d="M463.7,213.3c-3.7-1-8.1,1-10.3,4c0,0-1.1-0.7-1.1-0.7C454.4,213.3,460.4,211.2,463.7,213.3L463.7,213.3z"/>
					</g>
				</g>
				<g>
					<g>
						<path d="M435.2,217.4c2.8-2.7,8-2.1,10.6,0.7c0,0-0.9,0.8-0.9,0.8C442.5,216.4,438.2,215.7,435.2,217.4L435.2,217.4z"/>
					</g>
				</g>
				<path class="st45" d="M458.7,238.8c-0.1,0.2-2.4-1-5.3-0.3c-2.8,0.7-4.2,2.5-4.4,2.3c-0.2-0.2,1.3-2.9,3.9-3.6
					C455.9,236.5,458.8,238.5,458.7,238.8z"/>
				<g>
					<path class="st45" d="M454.6,231.7c-1.6,1-3.3,1.2-5.1,0.7C451.1,231.4,452.8,231.2,454.6,231.7L454.6,231.7z"/>
				</g>
				<g>
					<path d="M444.5,223C444.5,223,444.5,223,444.5,223c0.2-0.1,0.3-0.2,0.4-0.3c-0.1-0.2-0.4-0.4-0.6-0.7c0,0-0.4-0.3-0.7-0.5
						c-0.4-0.2-0.7-0.1-1.8,0c-1.4,0.2-1.5,0.1-1.8,0.3c-0.4,0.3-0.9,0.8-0.8,1.2c0,0.1,0.1,0.2,0.3,0.3c0.5,0.4,1,0.4,1.1,0.4
						c0,0.1-0.7,0.3-1.3,0c-0.4-0.2-0.7-0.6-0.8-0.8c-0.2,0.1-0.5,0.2-0.8,0.3c-0.4,0.2-0.6,0.3-0.6,0.2c-0.1-0.1,0.6-0.8,1.3-1.3
						c0.3-0.2,0.7-0.5,1.3-0.8c0.3-0.1,0.6-0.2,1.8-0.4c0.6-0.1,1.3-0.2,2.2-0.2c0.4,0.1,0.9,0.4,1.5,0.8c0.7,0.5,1.2,1.1,1.2,1.2
						c0,0.1-0.2-0.1-0.6-0.1c-0.2,0-0.2,0-0.4,0.1C444.9,223.1,444.5,223,444.5,223z"/>
					<path d="M439.7,221.6c0,0.2-0.1,0.4,0,0.8c0.2,0.7,0.7,1.1,0.8,1.2c0.5,0.3,1,0.2,1.3,0.1c0.2-0.1,0.6-0.2,0.9-0.5
						c0.1-0.2,0.4-0.5,0.4-1c0-0.5-0.3-0.9-0.3-1c-0.4,0-0.8,0-1.2,0.1C440.9,221.3,440.3,221.4,439.7,221.6z"/>
				</g>
				<g>
					<path d="M457.1,221.2C457.1,221.2,457,221.2,457.1,221.2c-0.2-0.1-0.4-0.1-0.6-0.2c0.1-0.2,0.2-0.5,0.5-0.9
						c0-0.1,0.3-0.4,0.6-0.7c0.4-0.3,0.8-0.4,2-0.6c1.6-0.3,1.7-0.4,2.1-0.3c0.6,0.1,1.3,0.5,1.3,0.9c0,0.1-0.1,0.3-0.2,0.4
						c-0.4,0.6-1,0.7-1,0.8c0,0.1,0.9,0.1,1.5-0.5c0.4-0.3,0.6-0.8,0.6-1c0.2,0,0.6,0,1.1,0c0.6,0,0.8,0.1,0.8,0
						c0-0.1-0.9-0.5-1.9-0.7c-0.4-0.1-1-0.2-1.8-0.2c-0.3,0-0.8,0-2.1,0.3c-0.6,0.1-1.5,0.3-2.5,0.6c-0.3,0.3-0.9,0.7-1.3,1.3
						c-0.6,0.7-0.9,1.5-0.8,1.6c0.1,0,0.2-0.2,0.7-0.3c0.2-0.1,0.2,0,0.5-0.1C456.7,221.4,457.1,221.3,457.1,221.2z"/>
					<path d="M460.6,218.5c0.1,0.1,0.2,0.4,0.3,0.7c0.1,0.8-0.4,1.3-0.5,1.4c-0.5,0.5-1,0.5-1.4,0.6c-0.2,0-0.7,0.1-1.2-0.2
						c-0.3-0.1-0.7-0.3-0.8-0.8c-0.1-0.4,0.2-0.8,0.3-0.9c0.3-0.3,0.6-0.4,1.1-0.5C459,218.7,459.7,218.6,460.6,218.5z"/>
				</g>
				<polyline class="st43" points="472.7,246.7 472.6,246.3 472.5,245.5 472.5,245.2 472.4,244.8 				"/>
				<path class="st39" d="M474.6,212c0.4-2,3-4.2,4.3-3.7c1.3,0.5,2.4,3.8,2.2,6c-0.1,1.2,0.1,4.5-2.3,7.2c-1.2,1.4-3.5,3.2-4.6,2.5
					c-0.5-0.3-0.8-1.1-0.5-4.7C473.9,216.5,474.3,214,474.6,212z"/>
			</g>
			<path class="st31" d="M473,241.2c-3.3,1.4-9.4,4.5-14,11c-1.6,2.3-2.8,4.6-3.5,6.6c0.2,0.2,0.5,0.5,0.7,0.7
				c1.9-3.2,6.2-9.2,13.8-12.2c1.5-0.6,3-1,4.4-1.3C473.8,244.4,473.4,242.8,473,241.2z"/>
			<g>
				<path class="st30" d="M516.3,411c6.9,2.6,13.2,2.2,16.8,1.5c1-0.2,1.7-0.3,2.3-0.5c0.4-2.5,0.9-4.9,1.3-7.4
					c4.7-26.1,9.4-52.2,14.1-78.2c-7.4-10-14.8-20.6-22.2-31.6c-8.3-12.3-16.1-24.4-23.4-36.2c-5,13.3-9.9,26.6-14.9,39.9
					c5.4,4.9,10.9,10.2,16.6,15.9c6,6.1,11.6,12.2,16.6,18c-5.9,20.7-11.7,41.4-17.6,62c-0.7,2.5-1.4,5-2.2,7.6
					c0.3,0.4,0.7,0.8,1.1,1.2C507,405.6,510.8,408.9,516.3,411z"/>
				<path class="st41" d="M547.8,326.7c-4.9,28.6-9.8,57.2-14.7,85.8c1-0.2,1.7-0.3,2.3-0.5c5.1-28.5,10.3-57.1,15.4-85.6
					c-30.1-45.5-45.3-68.1-45.6-67.8C504.8,258.8,519,281.5,547.8,326.7z"/>
				<path class="st41" d="M527.2,331.6c-22-20.4-33.2-30.4-33.6-30.1c-0.4,0.4,9.6,10.7,29.9,30.9c-6.6,23.2-13.2,46.4-19.8,69.6
					c0.3,0.4,0.7,0.8,1.1,1.2c3.1-11.5,6.6-23.2,10.3-35.3C519.1,355.4,523.1,343.3,527.2,331.6z"/>
				<path class="st31" d="M516.3,411c6.9,2.6,13.2,2.2,16.8,1.5c1-0.2,1.7-0.3,2.3-0.5c0.4-2.5,0.9-4.9,1.3-7.4
					c-3.5,0-7.9-0.4-12.7-1.6c-8.2-2.1-14.3-5.7-18.2-8.4c-0.7,2.5-1.4,5-2.2,7.6c0.3,0.4,0.7,0.8,1.1,1.2
					C507,405.6,510.8,408.9,516.3,411z"/>
			</g>
		</g>
		<g>
			<g>
				<path class="st39" d="M292.6,265.6c4.8,0.9,5.9-6.2,0.7-3.9l0.1,0C290.9,261.2,290.1,265.1,292.6,265.6z"/>
				<path class="st39" d="M292.4,262.8c6.5-0.6,3.5-7.6,0.3-4.1c0,0,0.1,0,0,0c-0.1,0-0.2,0.1-0.4,0.1c0,0-0.1,0,0,0
					C289.7,258.8,289.8,262.9,292.4,262.8z"/>
				<path class="st39" d="M292.2,259.5l1.9-0.7c2.4-0.8,1.1-4.6-1.3-3.7c0,0-1.9,0.7-1.9,0.7C288.5,256.6,289.8,260.4,292.2,259.5z"
					/>
				<path class="st39" d="M271,263.5c1-0.8,2.4-2,3.7-4c1.4-2.2,1.4-3.6,2.1-4.8c1.1-1.8,4.8,1.9,13.2-2.2l3.9,12.5
					c0,0-7.6,7.5-18.4,7.9c-1.7,1.1-3.3,2.3-5,3.4c-1.9-3-3.7-6-5.6-9C267,266,269,264.7,271,263.5z"/>
				<path class="st39" d="M282.7,255c1.9-2,20.9-8,20.9-3.8c0.1,1.7-1.9,1.6-3,1.8c-4.3,0.7-8.6,2.1-12.4,4.3
					c-2,0.8-3.9,3.9-6.2,1.9C280.7,258,281.1,255.8,282.7,255z"/>
				<path class="st39" d="M287.6,245.4c-2.2,5-4.4,10.1-6.3,15.2c-1.6,4.3-7.2,1.6-5.7-2.8c2.5-7.4,5.2-9.7,9.2-14.1
					C286.1,242.2,288.5,243.6,287.6,245.4z"/>
				<path class="st40" d="M291.2,265c-0.6-1,0.1-2.5,0.2-2.5c0.1,0,0.2,0.3,0,0.8c0,0.2-0.1,0.7,0.2,1.2c0.5,0.9,1.5,1.1,1.6,1.1
					c-0.1,0-0.3,0.1-0.5,0.1C292,265.8,291.4,265.4,291.2,265z"/>
				<path class="st40" d="M290.5,262.1c-0.6-0.6-0.6-2.9,0.5-2.8c0.4,0.6-1,1.4,0.2,2.7c0.8,0.8,2.1,0.4,3,0
					c0.5-0.3,1.1-0.5,1.6-0.8c-1.4,1.5-3.1,2.1-4.4,1.6C291.1,262.7,290.8,262.5,290.5,262.1z"/>
				<path class="st40" d="M289.8,259c-0.9-1.2-0.3-3,1.1-3.5l0,0c1.7-0.5,2.2-0.5,2.2-0.5c0,0.1-0.4,0.3-2,1c-2,0.7-0.9,3.9,1.1,3.2
					c0,0,0,0,0,0c0.8-0.3,3.1-1.4,3.1-1.4c0.1,0.1-2.2,2.5-4.2,2C290.9,259.8,290.2,259.6,289.8,259z"/>
				<path class="st40" d="M279.1,264.2c1.1-1,3.1-3.1,4.1-6.5c0.4-1.3,0.5-2.5,0.6-3.5c0.1,0,0.3-0.1,0.4-0.1c0.1,1,0.1,4-1.7,6.8
					C281.3,262.7,279.9,263.7,279.1,264.2z"/>
			</g>
			<g>
				<path class="st30" d="M142,292.5c21.4,8.3,42.8,16.6,64.2,24.8c21.8-9.9,43.6-19.8,65.4-29.7c2.3-1,4.6-2.1,6.9-3.1
					c-0.7-3.4-2.1-8.4-5.2-13.6c-3.9-6.7-8.7-10.9-11.8-13.2c-2.2,1.2-4.3,2.4-6.5,3.6c-16.5,9.4-33.1,18.7-49.6,28.1
					c-11.3-7.1-22.7-14.1-34-21.2c-1,0.1-14.5,1.4-22.6,6.3c-3.8,2.3-6.8,5.4-7.7,6.7c-0.9,1.2-1.4,2.3-2,3.2
					C137.4,287.3,138.7,291.2,142,292.5z"/>
				<path class="st41" d="M205.7,314.3c13.3-5.8,26.6-11.7,39.8-17.5c10.8-4.8,21.6-9.5,32.4-14.3c0.1,0.6,0.3,1.3,0.4,1.9
					c-10.8,5-21.7,10-32.6,15c-13.3,6.1-26.5,12-39.7,17.8c-22.3-8.9-44.5-17.8-66.8-26.8C161.5,298.5,183.6,306.4,205.7,314.3z"/>
				<path class="st41" d="M206.2,291.1c-23.2-15.2-34.8-22.8-34.7-23c0.1-0.2,11.4,6.9,34,21.2c10.3-6,20.7-12,31.4-18
					c8.3-4.7,16.5-9.2,24.7-13.7c0.5,0.4,1,0.7,1.4,1.1c-8.3,4.5-16.6,9.1-25,13.9C227.1,278.8,216.5,285,206.2,291.1z"/>
				<path class="st31" d="M254.9,261.2c3.5,3,8.3,8,12.2,15.2c2.2,4.1,3.6,8,4.5,11.3c2.4-1.1,4.8-2.1,7.2-3.2
					c-0.7-3.5-2.2-8.5-5.3-13.8c-3.9-6.7-8.7-11-11.8-13.3C259.4,258.6,257.2,259.9,254.9,261.2z"/>
			</g>
			<path class="st31" d="M143.6,241.2c2,0.5,4.3,1.2,6.7,2.2c2,0.8,3.8,1.7,5.3,2.6c-0.3,0.9-0.6,1.7-1,2.6
				c-3.7-1.1-7.5-2.3-11.2-3.4C143.6,243.8,143.6,242.5,143.6,241.2z"/>
			<path class="st30" d="M167.5,346.6c-23.6,6.1-47.1,12.1-70.7,18.2c0,0,0.4-7.1,1-15.9c0,0,1.1-14.6,2.4-26.6
				c2.8-25.3,10-58.3,11.2-63.8c10.7-4.5,21.4-8.9,32.2-13.4c1.9,0.2,4.3,0.6,6.8,1.5c5.1,1.7,8.7,4.2,11.1,6.2
				c4.5,5.9,9,11.9,13.6,17.8C172.4,295.9,170,321.3,167.5,346.6z"/>
			<path class="st30" d="M172.1,304.1c-24.6,13.6-49.3,27.1-73.9,40.7c-0.2,1.2-0.4,2.6-0.6,4.1c-0.2,1.4-1,8.3-0.7,15.9
				c0.3,10.9,2.7,20.4,4,24.8c20.3,4.6,40.5,9.1,60.8,13.7C165,370.2,168.5,337.2,172.1,304.1z"/>
			<path class="st42" d="M161.1,257.8c0.5,11.4,0.5,23.8-0.3,37.3c-1,17.3-3.2,33-5.9,46.8c-2.1,19.5-4.2,39-6.4,58.5"/>
			<path class="st42" d="M154.4,278.8c3.9,0.4,7.7,0.7,11.6,1.1"/>
			<path class="st42" d="M153.5,311.7c3.8,0.2,7.6,0.4,11.4,0.7"/>
			<path class="st42" d="M148.5,340.3c4.2,0.6,8.5,1.1,12.7,1.7"/>
			<path class="st42" d="M144.4,382.2c4.3,0.5,8.5,1,12.8,1.5"/>
			<path class="st31" d="M149.5,239.7c1.7,0.5,5,1.8,7.8,4.8c4.9,5.3,4.8,11.9,4.8,13.3c-0.3,0-0.6,0-0.9,0c-0.1-1.6-0.6-5.9-3.8-10
				c-4-5.1-9.5-6.3-10.9-6.5C147.5,240.8,148.5,240.2,149.5,239.7z"/>
			<g>
				<path class="st43" d="M161,264.8"/>
			</g>
			<g>
				<path class="st44" d="M139.6,235.3c0.4,0.6,1.2,1.4,2.3,2.2c0.3,0.2,0.8,0.6,1.6,0.9c1.3,0.5,2.6,0.7,3.5,0.6
					c0-1.6-0.1-5.1-2.1-8.8c-1.9-3.5-4.5-5.4-5.8-6.3C139.2,227.7,139.4,231.5,139.6,235.3z"/>
				<g>
					<path class="st39" d="M161.1,258.5c-0.8-1.3-1.7-2.7-2.6-4.2c-0.9-1.3-1.8-2.6-2.7-3.8c-0.4-0.5-0.9-0.9-1.4-1.4
						c-0.4-0.3-0.8-0.7-1.2-1.1c-1.4-1.1-2.8-2-4.1-2.7c-1.7-0.9-3.2-1.4-4.5-1.8c0.2-0.8,0.5-1.6,0.6-2.6c0-0.4,0.1-0.9,0.1-1.4
						l0,0c0-0.1,0-0.1,0-0.2c0-0.6,0-1.2-0.1-1.7c0-0.3-0.1-0.6-0.1-0.9c4.4,1.4,8.9,2.8,13.4,4.1c1.3,0.4,2.5,0.8,3.8,1.2l0,0
						l0,0.1c-0.1,0.6-0.2,1.1-0.3,1.7c-0.3,1.9-0.7,3.8-1,5.8l0,0.1c-0.1,0.4-0.1,0.8-0.2,1.1c-0.2,0.8-0.3,1.7-0.5,2.6
						c0.2,0.4,0.3,0.9,0.5,1.4C161.2,256.3,161.2,257.6,161.1,258.5z"/>
					<path class="st45" d="M162.4,242.2c-0.1,0.6-0.2,1.1-0.3,1.7c-0.3,1.9-0.7,3.8-1,5.8l0,0.1c-0.6,0-1.2-0.1-1.8-0.2
						c-1.7-0.3-3.2-0.8-4.5-1.5c-2.2-1.1-3.9-2.5-5.2-3.8c-0.4-0.4-0.8-0.8-1.6-1.7c-1-1.1-1.9-2.1-2.5-2.8l0,0c0-0.1,0-0.1,0-0.2
						c0-0.6,0-1.2-0.1-1.7c0-0.3-0.1-0.6-0.1-0.9c4.4,1.4,8.9,2.8,13.4,4.1C159.8,241.4,161.1,241.8,162.4,242.2z"/>
					<path class="st39" d="M165.2,181.6c-20-2.9-25,10.2-26.2,17.9c-0.5,3.5-0.9,6-1,9.7c-0.1,4.3-0.2,9.8,1.5,16.2
						c1.2,4.7,3,11.3,8.6,16.7c3.1,2.9,5.7,4.4,6.7,4.9c2.7,1.2,4.9,1.5,5.5,1.6c1.1,0.1,2.7,0.3,4.2,0c2.7-0.7,3.8-3.1,7.6-8.3
						c1.9-2.6,4.1-5,5.7-8.9c4.3-10.1,6.1-17.4,7.2-25.1C186.2,198.5,185.1,184.5,165.2,181.6z"/>
					<path class="st44" d="M168.7,180.5c5.8-0.4,9.5,1.5,11.1,2.5c8.2,5,9.8,16,8.5,23.1c-1.2,6.5-5,11.4-5.5,11.2
						c-0.3-0.1,0.6-2,0.5-5.4c0-1.6-0.3-3-0.5-3.9c-0.3-1.4-0.8-2.6-1.2-3.5c-1.3,4.3-1.9,5.3-2.2,5.2c-0.5-0.1,0-2.7-0.7-6.2
						c-0.7-3.5-2.5-7.2-3.5-7c-1.2,0.2-1.2,4.7-2,4.7c-0.4,0-0.4-1.3-1.6-3c-0.6-0.8-1.5-2.1-2.5-2.1c-1.1,0-1.8,1.4-4.1,5.6
						c-2.7,4.8-3.2,5.6-3.7,5.6c-0.5-0.1-1.2-1.1-1.4-5.9c-1,1.1-1.6,2.1-3.8,5c-1.2,1.5-2.2,2.7-2.5,2.7c-0.5,0-1.5-2.4-2.1-5.1
						c-0.6,0.7-1.3,1.8-1.7,3.2c-0.4,1.4-0.1,1.9-0.3,3.1c-0.4,2.4-2,2.7-3.8,5.9c-1.7,3-1.5,4.7-2.5,4.9c-1.3,0.2-2.9-3.5-3.6-5.3
						c2,14.9,1.8,19.6,0.8,19.8c-1.3,0.3-4.8-6.5-6.5-13.2c0-0.2-0.2-0.8-0.3-1.4c-1.1-5.1-3.4-19.5,4.7-31.4c2.4-3.5,5-5.7,6.3-6.7
						c2.6-2,7.8-6,14.8-5.6C161.1,177.4,164.7,177.9,168.7,180.5z"/>
				</g>
				<path class="st42" d="M138.8,251.9"/>
				<g>
					<g>
						<path d="M152.9,213.2c3.8-1.8,9.1-0.1,11.4,3.4c0,0-1.1,0.7-1.1,0.7C161,214.2,156.5,212.5,152.9,213.2L152.9,213.2z"/>
					</g>
				</g>
				<g>
					<g>
						<path d="M181.3,217.4c-3-1.9-7.3-0.9-9.7,1.4c0,0-0.9-0.8-0.9-0.8C173.2,215.3,179,214.6,181.3,217.4L181.3,217.4z"/>
					</g>
				</g>
				<path class="st45" d="M157.9,238.8c0.1,0.2,2.4-1,5.3-0.3c2.8,0.7,4.2,2.5,4.4,2.3c0.2-0.2-1.3-2.9-3.9-3.6
					C160.7,236.5,157.8,238.5,157.9,238.8z"/>
				<g>
					<path class="st45" d="M162,231.7c1.8-0.5,3.5-0.3,5.1,0.7C165.3,233,163.6,232.7,162,231.7L162,231.7z"/>
				</g>
				<g>
					<path d="M172.1,223C172.1,223,172.1,223,172.1,223c-0.2-0.1-0.3-0.2-0.4-0.3c0.1-0.2,0.4-0.4,0.6-0.7c0,0,0.4-0.3,0.7-0.5
						c0.4-0.2,0.7-0.1,1.8,0c1.4,0.2,1.5,0.1,1.8,0.3c0.4,0.3,0.9,0.8,0.8,1.2c0,0.1-0.1,0.2-0.3,0.3c-0.5,0.4-1,0.4-1.1,0.4
						c0,0.1,0.7,0.3,1.3,0c0.4-0.2,0.7-0.6,0.8-0.8c0.2,0.1,0.5,0.2,0.8,0.3c0.4,0.2,0.6,0.3,0.6,0.2c0.1-0.1-0.6-0.8-1.3-1.3
						c-0.3-0.2-0.7-0.5-1.3-0.8c-0.3-0.1-0.6-0.2-1.8-0.4c-0.6-0.1-1.3-0.2-2.2-0.2c-0.4,0.1-0.9,0.4-1.5,0.8
						c-0.7,0.5-1.2,1.1-1.2,1.2c0,0.1,0.2-0.1,0.6-0.1c0.2,0,0.2,0,0.4,0.1C171.7,223.1,172.1,223,172.1,223z"/>
					<path d="M176.9,221.6c0,0.2,0.1,0.4,0,0.8c-0.2,0.7-0.7,1.1-0.8,1.2c-0.5,0.3-1,0.2-1.3,0.1c-0.2-0.1-0.6-0.2-0.9-0.5
						c-0.1-0.2-0.4-0.5-0.4-1c0-0.5,0.3-0.9,0.3-1c0.4,0,0.8,0,1.2,0.1C175.7,221.3,176.3,221.4,176.9,221.6z"/>
				</g>
				<g>
					<path d="M159.5,221.2C159.5,221.2,159.5,221.2,159.5,221.2c0.2-0.1,0.4-0.1,0.6-0.2c-0.1-0.2-0.2-0.5-0.5-0.9
						c0-0.1-0.3-0.4-0.6-0.7c-0.4-0.3-0.8-0.4-2-0.6c-1.6-0.3-1.7-0.4-2.1-0.3c-0.6,0.1-1.3,0.5-1.3,0.9c0,0.1,0.1,0.3,0.2,0.4
						c0.4,0.6,1,0.7,1,0.8c0,0.1-0.9,0.1-1.5-0.5c-0.4-0.3-0.6-0.8-0.6-1c-0.2,0-0.6,0-1.1,0c-0.6,0-0.8,0.1-0.8,0
						c0-0.1,0.9-0.5,1.9-0.7c0.4-0.1,1-0.2,1.8-0.2c0.3,0,0.8,0,2.1,0.3c0.6,0.1,1.5,0.3,2.5,0.6c0.3,0.3,0.9,0.7,1.3,1.3
						c0.6,0.7,0.9,1.5,0.8,1.6c-0.1,0-0.2-0.2-0.7-0.3c-0.2-0.1-0.2,0-0.5-0.1C159.9,221.4,159.5,221.3,159.5,221.2z"/>
					<path d="M156,218.5c-0.1,0.1-0.2,0.4-0.3,0.7c-0.1,0.8,0.4,1.3,0.5,1.4c0.5,0.5,1,0.5,1.4,0.6c0.2,0,0.7,0.1,1.2-0.2
						c0.3-0.1,0.7-0.3,0.8-0.8c0.1-0.4-0.2-0.8-0.3-0.9c-0.3-0.3-0.6-0.4-1.1-0.5C157.6,218.7,156.9,218.6,156,218.5z"/>
				</g>
				<polyline class="st43" points="143.9,246.7 144,246.3 144.1,245.5 144.1,245.2 144.2,244.8 				"/>
				<path class="st39" d="M142,212c-0.4-2-3-4.2-4.3-3.7c-1.3,0.5-2.4,3.8-2.2,6c0.1,1.2-0.1,4.5,2.3,7.2c1.2,1.4,3.5,3.2,4.6,2.5
					c0.5-0.3,0.8-1.1,0.5-4.7C142.7,216.5,142.3,214,142,212z"/>
			</g>
			<path class="st31" d="M143.6,241.2c3.3,1.4,9.4,4.5,14,11c1.6,2.3,2.8,4.6,3.5,6.6c-0.2,0.2-0.5,0.5-0.7,0.7
				c-1.9-3.2-6.2-9.2-13.8-12.2c-1.5-0.6-3-1-4.4-1.3C142.7,244.4,143.2,242.8,143.6,241.2z"/>
			<g>
				<path class="st30" d="M100.3,411c-6.9,2.6-13.2,2.2-16.8,1.5c-1-0.2-1.7-0.3-2.3-0.5c-0.4-2.5-0.9-4.9-1.3-7.4
					c-4.7-26.1-9.4-52.2-14.1-78.2c7.4-10,14.8-20.6,22.2-31.6c8.3-12.3,16.1-24.4,23.4-36.2c5,13.3,9.9,26.6,14.9,39.9
					c-5.4,4.9-10.9,10.2-16.6,15.9c-6,6.1-11.6,12.2-16.6,18c5.9,20.7,11.7,41.4,17.6,62c0.7,2.5,1.4,5,2.2,7.6
					c-0.3,0.4-0.7,0.8-1.1,1.2C109.6,405.6,105.8,408.9,100.3,411z"/>
				<path class="st41" d="M68.8,326.7c4.9,28.6,9.8,57.2,14.7,85.8c-1-0.2-1.7-0.3-2.3-0.5c-5.1-28.5-10.3-57.1-15.4-85.6
					c30.1-45.5,45.3-68.1,45.6-67.8C111.8,258.8,97.6,281.5,68.8,326.7z"/>
				<path class="st41" d="M89.4,331.6c22-20.4,33.2-30.4,33.6-30.1c0.4,0.4-9.6,10.7-29.9,30.9c6.6,23.2,13.2,46.4,19.8,69.6
					c-0.3,0.4-0.7,0.8-1.1,1.2c-3.1-11.5-6.6-23.2-10.3-35.3C97.5,355.4,93.5,343.3,89.4,331.6z"/>
				<path class="st31" d="M100.3,411c-6.9,2.6-13.2,2.2-16.8,1.5c-1-0.2-1.7-0.3-2.3-0.5c-0.4-2.5-0.9-4.9-1.3-7.4
					c3.5,0,7.9-0.4,12.7-1.6c8.2-2.1,14.3-5.7,18.2-8.4c0.7,2.5,1.4,5,2.2,7.6c-0.3,0.4-0.7,0.8-1.1,1.2
					C109.6,405.6,105.8,408.9,100.3,411z"/>
			</g>
		</g>
	</g>
</g>
</svg>
