<?xml version="1.0" encoding="utf-8"?>
<!-- Generator: Adobe Illustrator 16.0.0, SVG Export Plug-In . SVG Version: 6.00 Build 0)  -->
<!DOCTYPE svg PUBLIC "-//W3C//DTD SVG 1.1//EN" "http://www.w3.org/Graphics/SVG/1.1/DTD/svg11.dtd">
<svg version="1.1" id="Layer_2_1_" xmlns="http://www.w3.org/2000/svg" xmlns:xlink="http://www.w3.org/1999/xlink" x="0px" y="0px"
	 width="1050px" height="719px" viewBox="0 0 1050 719" enable-background="new 0 0 1050 719" xml:space="preserve">
<g>
	<g>
		<defs>
			<path id="SVGID_1_" d="M10.385,451.533c-4.719-45.552,17.422-97.272,52.084-128.304c58.073-51.721,130.12-25.952,193.273-96.002
				c3.812-4.174,10.526-13.974,24.136-33.392c81.484-117.053,77.31-152.26,119.05-168.955c30.488-12.159,66.965-15.244,109.431-4.9
				c173.129,42.103,154.075,161.515,239.005,152.622c84.932-8.892,230.477-75.676,256.61,50.814
				c26.313,126.489-96.909,235.013-18.512,225.939c8.529,0.726,47.729,4.718,54.443,25.226
				c6.533,20.688-23.955,46.639-37.565,58.072C832.478,676.384,503.64,674.024,503.64,674.024
				c-192.366-1.452-288.549-43.918-314.682-56.077C128.708,589.818,19.64,539.731,10.385,451.533z"/>
		</defs>
		<clipPath id="SVGID_2_">
			<use xlink:href="#SVGID_1_"  overflow="visible"/>
		</clipPath>
		<path clip-path="url(#SVGID_2_)" fill="#FFD7DC" d="M1054.243,575.664c-5.081,19.055-13.792,36.658-25.406,51.902
			c-28.13,37.202-72.954,61.339-123.042,61.339H291.856c-62.61,0-121.409-20.325-169.318-55.169
			c-20.507-15.063-39.018-32.848-54.988-52.81c-29.036-36.659-49.362-80.576-57.165-129.394
			C2.218,400.9,21.092,349.905,42.506,319.055c49.725-71.684,118.323-30.126,199.807-93.098
			c95.82-74.042,58.073-175.307,153.348-221.402C459.178-26.116,530.5-7.242,539.572-4.701
			c40.833,11.252,68.78,32.847,98.724,56.077c61.703,47.728,51.54,63.879,86.747,85.294c87.835,53.718,186.195-26.678,248.806,30.67
			c19.962,18.148,26.858,40.832,30.126,55.894c26.313,126.49-96.909,235.013-18.512,225.94c54.443,6.17,72.409,41.377,73.68,83.117
			C1059.688,547.353,1058.054,561.871,1054.243,575.664z"/>
	</g>
	<g>
		<defs>
			<path id="SVGID_3_" d="M10.385,451.533c-4.719-45.552,17.422-97.272,52.084-128.304c58.073-51.721,130.12-25.952,193.273-96.002
				c3.812-4.174,10.526-13.974,24.136-33.392c81.484-117.053,77.31-152.26,119.05-168.955c30.488-12.159,66.965-15.244,109.431-4.9
				c173.129,42.103,154.075,161.515,239.005,152.622c84.932-8.892,230.477-75.676,256.61,50.814
				c26.313,126.489-96.909,235.013-18.512,225.939c8.529,0.726,47.729,4.718,54.443,25.226
				c6.533,20.688-23.955,46.639-37.565,58.072C832.478,676.384,503.64,674.024,503.64,674.024
				c-192.366-1.452-288.549-43.918-314.682-56.077C128.708,589.818,19.64,539.731,10.385,451.533z"/>
		</defs>
		<clipPath id="SVGID_4_">
			<use xlink:href="#SVGID_3_"  overflow="visible"/>
		</clipPath>
		<path clip-path="url(#SVGID_4_)" fill="#D8989D" d="M1273.286,455.707c0,0-20.688,94.913-38.292,134.837
			c-42.284,96.366-109.793,158.975-185.469,158.975H125.079c-94.369,0-182.929-52.628-254.794-143.186
			c-30.852-39.199-82.754-137.196-82.754-137.196L1273.286,455.707z"/>
	</g>
	<g>
		<defs>
			<path id="SVGID_5_" d="M10.385,451.533c-4.719-45.552,17.422-97.272,52.084-128.304c58.073-51.721,130.12-25.952,193.273-96.002
				c3.812-4.174,10.526-13.974,24.136-33.392c81.484-117.053,77.31-152.26,119.05-168.955c30.488-12.159,66.965-15.244,109.431-4.9
				c173.129,42.103,154.075,161.515,239.005,152.622c84.932-8.892,230.477-75.676,256.61,50.814
				c26.313,126.489-96.909,235.013-18.512,225.939c8.529,0.726,47.729,4.718,54.443,25.226
				c6.533,20.688-23.955,46.639-37.565,58.072C832.478,676.384,503.64,674.024,503.64,674.024
				c-192.366-1.452-288.549-43.918-314.682-56.077C128.708,589.818,19.64,539.731,10.385,451.533z"/>
		</defs>
		<clipPath id="SVGID_6_">
			<use xlink:href="#SVGID_5_"  overflow="visible"/>
		</clipPath>
		<g clip-path="url(#SVGID_6_)">
			<g>
				<g>
					<g>
						<g opacity="0.15">
							<g>
								<g>
									<defs>
										<rect id="SVGID_7_" x="246.668" y="447.541" width="28.855" height="177.848"/>
									</defs>
									<clipPath id="SVGID_8_">
										<use xlink:href="#SVGID_7_"  overflow="visible"/>
									</clipPath>
									<rect x="246.668" y="447.541" clip-path="url(#SVGID_8_)" fill="#281010" width="28.855" height="177.848"/>
								</g>
							</g>
						</g>
					</g>
					<g>
						<g>
							<g opacity="0.15">
								<g>
									<g>
										<defs>
											<rect id="SVGID_9_" x="759.705" y="447.541" width="28.854" height="177.848"/>
										</defs>
										<clipPath id="SVGID_10_">
											<use xlink:href="#SVGID_9_"  overflow="visible"/>
										</clipPath>
										<rect x="759.705" y="447.541" clip-path="url(#SVGID_10_)" fill="#281010" width="28.854" height="177.848"/>
									</g>
								</g>
							</g>
						</g>
						<g>
							<rect x="349.384" y="213.616" fill="#7A574E" width="3.63" height="238.28"/>
						</g>
						<g>
							<path fill="#7A574E" d="M349.384,225.049v7.986l3.63-1.453v-15.606C353.014,215.793,352.107,221.057,349.384,225.049"/>
						</g>
						<g>
							<path fill="#7A574E" d="M353.014,215.793c0,0-1.815,7.623-15.425,29.399c-13.612,21.778-34.844,63.699-13.067,108.342
								c5.989,13.067,17.241,55.532-10.707,89.833h43.192c0,0,22.321-53.355,5.989-112.153
								C346.844,272.415,356.825,228.86,353.014,215.793"/>
						</g>
						<g>
							<path fill="#7A574E" d="M349.565,203.272l-1.996,5.625c-0.907,2.541,0.908,5.081,3.63,5.081c2.541,0,4.355-2.54,3.629-5.081
								l-1.996-5.625C352.288,201.82,350.11,201.82,349.565,203.272"/>
						</g>
						<g>
							<rect x="352.833" y="213.616" fill="#7B889B" width="3.629" height="238.28"/>
						</g>
						<g>
							<path fill="#6B7B8E" d="M352.833,225.049v7.986l3.629-1.453v-15.606C356.462,215.793,355.555,221.057,352.833,225.049"/>
						</g>
						<g>
							<rect x="352.833" y="213.616" fill="#6B7B8E" width="3.629" height="1.815"/>
						</g>
						<g>
							<path fill="#BDD8FF" d="M356.462,215.793c0,0,0.362,7.623-13.248,29.399c-13.61,21.778-26.133,63.699-4.355,108.342
								c5.989,13.067,15.244,55.532-12.522,89.833h34.3c0,0,22.321-53.355,5.988-112.153
								C350.292,272.415,360.273,228.86,356.462,215.793"/>
						</g>
						<g>
							<path fill="#ACCFF9" d="M338.859,353.535c-0.907-1.632-1.634-3.447-2.359-5.081c2.359,3.266,8.893,12.703,12.34,17.784
								c3.993,5.989,25.952,40.288-5.988,77.129h-16.697C354.103,409.066,344.848,366.602,338.859,353.535"/>
						</g>
						<g>
							<path fill="#D7E9FF" d="M371.888,360.613c-8.529-13.43-22.14-20.689-29.218-31.396c-11.977-17.966-7.077-45.732,3.085-67.146
								c7.259-15.425,10.344-31.577,11.614-39.562c0.726,17.967-4.9,57.529,9.255,108.706
								C369.528,341.195,371.162,351.176,371.888,360.613"/>
						</g>
						<g>
							<path fill="#7B889B" d="M353.014,203.272l-1.996,5.625c-0.908,2.541,0.907,5.081,3.629,5.081c2.541,0,4.355-2.54,3.63-5.081
								l-1.996-5.625C355.737,201.82,353.559,201.82,353.014,203.272"/>
						</g>
						<g>
							<path fill="#8897AA" d="M350.655,210.349c5.989-0.181,4.718-6.896,4.174-9.074c-0.544,0-1.089,0.182-1.451,0.908
								l-2.723,7.804C350.655,210.168,350.655,210.349,350.655,210.349"/>
						</g>
						<g>
							<rect x="684.392" y="213.616" fill="#7A574E" width="3.63" height="238.28"/>
						</g>
						<g>
							<path fill="#7A574E" d="M688.021,225.049v7.986l-3.63-1.453v-15.606C684.392,215.793,685.48,221.057,688.021,225.049"/>
						</g>
						<g>
							<path fill="#7A574E" d="M684.392,215.793c0,0,1.815,7.623,15.426,29.399c13.611,21.778,34.845,63.699,13.066,108.342
								c-5.988,13.067-17.239,55.532,10.707,89.833H680.4c0,0-22.322-53.355-5.989-112.153
								C690.562,272.415,680.581,228.86,684.392,215.793"/>
						</g>
						<g>
							<path fill="#7A574E" d="M687.84,203.272l1.996,5.625c0.907,2.541-0.906,5.081-3.629,5.081c-2.541,0-4.355-2.54-3.63-5.081
								l1.996-5.625C685.117,201.82,687.296,201.82,687.84,203.272"/>
						</g>
						<g>
							<rect x="680.943" y="213.616" fill="#7B889B" width="3.63" height="238.28"/>
						</g>
						<g>
							<path fill="#6B7B8E" d="M684.573,225.049v7.986l-3.63-1.453v-15.606C680.943,215.793,681.852,221.057,684.573,225.049"/>
						</g>
						<g>
							<rect x="680.943" y="213.616" fill="#6B7B8E" width="3.63" height="1.815"/>
						</g>
						<g>
							<path fill="#CE4A4A" d="M680.943,215.793c0,0-0.362,7.623,13.248,29.399c13.61,21.778,26.133,63.699,4.355,108.342
								c-5.988,13.067-15.244,55.532,12.522,89.833h-34.299c0,0-22.322-53.355-5.989-112.153
								C687.114,272.415,677.133,228.86,680.943,215.793"/>
						</g>
						<g>
							<path fill="#BF3D3D" d="M698.547,353.535c0.908-1.632,1.634-3.447,2.359-5.081c-2.359,3.266-8.892,12.703-12.34,17.784
								c-3.993,5.989-25.952,40.288,5.988,77.129h16.695C683.303,409.066,692.559,366.602,698.547,353.535"/>
						</g>
						<g>
							<path fill="#E55757" d="M665.519,360.613c8.529-13.43,22.141-20.689,29.218-31.396c11.978-17.966,7.078-45.732-3.085-67.146
								c-7.26-15.425-10.345-31.577-11.615-39.562c-0.726,17.967,4.9,57.529-9.255,108.706
								C668.059,341.195,666.244,351.176,665.519,360.613"/>
						</g>
						<g>
							<path fill="#7B889B" d="M684.392,203.272l1.996,5.625c0.908,2.541-0.907,5.081-3.63,5.081c-2.54,0-4.354-2.54-3.629-5.081
								l1.997-5.625C681.67,201.82,683.848,201.82,684.392,203.272"/>
						</g>
						<g>
							<path fill="#8897AA" d="M686.933,210.349c-5.989-0.181-4.719-6.896-4.175-9.074c0.545,0,1.09,0.182,1.453,0.908l2.722,7.804
								C686.751,210.168,686.751,210.349,686.933,210.349"/>
						</g>
						<path fill="#381B19" d="M585.85,451.533H445.931l-6.896-99.45c-1.452-21.414,15.607-39.743,37.021-39.743h79.306
							c21.597,0,38.474,18.147,37.021,39.743L585.85,451.533z"/>
						<g>
							<path fill="#442221" d="M439.579,356.438c2.541-17.784,17.967-31.758,36.84-31.758h79.306
								c18.874,0,34.118,13.974,36.84,31.758l0.363-4.355c1.451-21.414-15.607-39.743-37.022-39.743H476.6
								c-21.595,0-38.473,18.148-37.021,39.743V356.438z"/>
							<g>
								<g>
									<g>
										<g id="XMLID_00000140695016903795514440000007187974054270309291_">
											<path fill="#F2C9A0" d="M549.555,336.658c0,8.71-12.885,15.606-28.674,15.606c-15.789,0-28.128-5.625-28.128-14.336
												c0-5.083,7.802-9.438,15.606-11.978v-25.952h25.043v25.952C541.206,328.491,549.555,331.576,549.555,336.658z"/>
											<path fill="#DBAC89" d="M533.402,300.181v22.321c-2.54,1.089-7.44,2.723-13.792,2.178
												c-5.082-0.363-8.893-1.996-11.252-3.085v-21.414H533.402z"/>
											<path fill="#D3D3D3" d="M521.243,428.849c0,0-37.203-74.95-31.577-90.558c1.816-6.715,12.886-10.707,12.886-10.707
												s8.53,4.718,18.874,4.718c10.162,0,18.873-4.718,18.873-4.718s10.162,6.715,11.978,13.247
												C557.539,356.438,521.243,428.849,521.243,428.849z"/>
											<g>
												<polygon fill="#FFFFFF" points="534.491,322.14 521.243,332.302 530.137,346.095 539.936,327.584 												"/>
												<polygon fill="#FFFFFF" points="507.996,322.14 521.243,332.302 512.352,346.095 502.37,327.584 												"/>
											</g>
											<path fill="#E4C77B" d="M524.147,456.252c0,1.633-1.271,2.903-2.904,2.903c-1.632,0-2.902-1.271-2.902-2.903
												c0-1.634,1.27-2.904,2.902-2.904C522.877,453.348,524.147,454.8,524.147,456.252z"/>
											<path fill="#E4C77B" d="M524.147,486.376c0,1.634-1.271,2.904-2.904,2.904c-1.632,0-2.902-1.271-2.902-2.904
												c0-1.632,1.27-2.902,2.902-2.902C522.877,483.474,524.147,484.744,524.147,486.376z"/>
											<g>
												<g>
													<g>
														<path fill="#292937" d="M571.149,338.835c4.9,0,9.8,1.089,13.067,3.811c3.085,2.723,4.718,6.171,6.17,9.438
															c10.707,23.592,21.414,47.366,32.122,70.958c-1.997,1.271-4.356,2.359-6.897,3.085
															c0.364,0.907,0.727,1.997,0.908,2.903c-4.174,1.453-6.353,2.541-12.885,3.993c-2.903,0.726-7.622,0.545-10.707,0.726
															l0.181,1.271c-5.989,0.363-11.977,0.181-17.966-0.182c0,0-7.984-57.891-12.885-70.595
															C557.358,351.358,566.25,338.835,571.149,338.835z"/>
														<path fill="#1E1E29" d="M593.108,433.567c0.545,0,1.271,0,1.815,0c-1.271-2.542-4.175-7.26-4.175-7.26
															S592.564,431.208,593.108,433.567z"/>
														<path fill="#1E1E29" d="M617.79,425.4c-2.723-3.086-8.349-8.893-8.349-8.893s4.355,6.715,6.17,9.981
															c0-0.182-0.181-0.363-0.181-0.363C616.338,425.944,617.064,425.764,617.79,425.4z"/>
														<path fill="#1E1E29" d="M568.973,373.316c-0.727-4.355,1.088-11.797,1.451-13.792
															c0.726-4.719-5.263-6.352-8.893-8.892c-1.088,3.992-1.088,8.711,0.727,13.43c4.9,12.702,12.885,70.594,12.885,70.594
															c3.085,0.182,6.17,0.363,9.256,0.363c-1.271-1.271-2.359-2.904-2.904-4.899
															C575.505,410.156,569.698,377.672,568.973,373.316z"/>
													</g>
												</g>
												<g>
													<g>
														<path fill="#292937" d="M471.337,338.835c-4.9,0-9.8,1.089-13.066,3.811c-3.266,2.723-4.719,6.171-6.17,9.438
															c-10.708,23.592-21.414,47.366-32.122,70.958c1.996,1.271,4.355,2.359,6.896,3.085
															c-0.362,0.907-0.726,1.997-0.907,2.903c4.174,1.453,6.351,2.541,12.885,3.993c2.904,0.726,7.623,0.545,10.708,0.726
															l-0.182,1.271c5.989,0.363,11.978,0.181,17.967-0.182c0,0,7.985-57.891,12.885-70.595
															C485.13,351.358,476.056,338.835,471.337,338.835z"/>
														<path fill="#1E1E29" d="M449.378,433.567c-0.543,0-1.271,0-1.815,0c1.271-2.542,4.174-7.26,4.174-7.26
															S449.742,431.208,449.378,433.567z"/>
														<path fill="#1E1E29" d="M424.698,425.4c2.722-3.086,8.348-8.893,8.348-8.893s-4.356,6.715-6.171,9.981
															c0-0.182,0.182-0.363,0.182-0.363C426.149,425.944,425.424,425.764,424.698,425.4z"/>
														<path fill="#1E1E29" d="M473.334,373.316c0.726-4.355-1.089-11.797-1.453-13.792
															c-0.726-4.719,5.263-6.352,8.893-8.892c1.089,3.992,1.089,8.711-0.726,13.43c-4.9,12.702-12.885,70.594-12.885,70.594
															c-3.086,0.182-6.171,0.363-9.256,0.363c1.27-1.271,2.359-2.904,2.904-4.899
															C466.982,410.156,472.607,377.672,473.334,373.316z"/>
													</g>
												</g>
												<g>
													<g>
														<path fill="#292937" d="M580.043,516.502c-0.908-1.271-7.985-135.02-7.804-146.634c0-5.263,9.98-23.773,6.17-28.492
															c-3.63-4.718-31.396-10.888-35.933-11.977c-0.362,0,0,10.344,0,23.773c0,10.344-17.966,19.055-22.503,19.055
															c-4.537,0-22.321-8.349-22.321-18.874c0-13.248,0.362-23.592,0-23.41c-3.812,1.088-30.488,7.44-33.756,11.433
															c-3.629,4.719,6.17,23.229,6.17,28.492c0,11.614-6.896,145.363-7.803,146.634c-2.178,3.267,6.896,4.719,13.61,4.9
															c0,0,28.129,2.54,43.917,2.54c15.789,0,47.003-2.54,47.003-2.54C573.146,521.402,582.22,519.769,580.043,516.502z"/>
													</g>
													<g>
														<path fill="#232330" d="M528.685,369.143h43.555c0.907-6.17,9.618-23.229,6.17-27.767
															c-3.63-4.718-31.396-10.889-35.933-11.977c-0.362,0,0,10.344,0,23.773
															C542.477,359.705,535.217,365.694,528.685,369.143z"/>
														<path fill="#232330" d="M511.082,369.143c-6.353-3.267-13.429-9.074-13.429-15.789c0-13.248,0.362-23.592,0-23.41
															c-3.812,1.088-30.488,7.44-33.756,11.433c-3.448,4.537,5.263,21.597,6.17,27.767H511.082L511.082,369.143z"/>
													</g>
													<polygon fill="#1E1E29" points="520.881,523.942 520.699,372.228 519.066,372.228 520.154,523.942 													"/>
													<polygon fill="#1E1E29" points="502.007,369.143 503.64,369.143 501.644,506.884 													"/>
													<polygon fill="#1E1E29" points="482.226,369.143 483.859,369.143 482.044,490.188 													"/>
													<polygon fill="#1E1E29" points="558.81,369.143 560.443,369.143 558.629,495.813 													"/>
													<polygon fill="#1E1E29" points="539.21,369.143 540.843,369.143 538.847,490.188 													"/>
												</g>
											</g>
										</g>
										<g id="XMLID_00000052790844229303375290000003922980163036260533_">
											<g>
												<g>
													<path fill="#F2C9A0" d="M561.35,284.937c-0.906,4.9-8.529,11.977-10.889,11.433c-2.359-0.544-0.544-7.622,0.363-12.522
														c0.907-4.899,1.815-7.44,3.812-8.893C557.539,273.14,563.165,275.137,561.35,284.937z"/>
													<path fill="#F2C9A0" d="M479.866,283.122c0.908,4.719,5.808,11.434,8.167,11.07c2.177-0.364,2.904-7.44,1.996-11.978
														c-0.907-4.719-1.814-7.259-3.629-8.529C483.496,271.689,478.052,273.504,479.866,283.122z"/>
												</g>
												<path fill="#F2C9A0" d="M519.611,321.958c-3.812,0-6.715-1.088-7.623-1.451c-4.719-1.634-7.44-4.537-11.614-8.711
													c-0.726-0.726-5.081-5.263-7.622-9.618c-8.349-13.611-5.627-33.029-5.263-35.933
													c1.27-14.881,7.621-20.507,10.344-22.503c3.811-2.722,6.17-2.177,22.503-5.263c17.24-3.085,19.055-4.537,22.503-3.085
													c10.525,4.356,11.796,23.411,12.159,30.852c-1.089,18.329-5.808,32.484-10.345,39.199
													c-2.723,3.993-5.808,7.259-6.17,7.804c-3.085,3.085-5.988,5.989-10.707,7.623
													C527.051,321.051,523.784,322.14,519.611,321.958z"/>
											</g>
										</g>
									</g>
									<path fill="#7C7C7C" d="M550.099,286.933c-0.907-0.181,3.448-8.893,0-18.148c-1.27-3.63-2.723-4.355-3.992-8.711
										c-1.452-4.719-1.09-9.074-0.727-11.978c-1.995,3.267-4.174,5.444-5.808,6.714c-12.34,9.982-30.306,5.082-33.573,4.174
										c-4.174-1.089-7.259-2.722-9.074-3.63c0.727,2.359,0.363,4.174,0.182,5.081c-0.363,1.453-1.089,2.723-1.814,3.993
										c-0.727,1.271-1.271,1.996-1.271,2.178c-2.904,4.174-2.178,20.325-2.723,20.325c-0.181,0-0.181-0.544-0.726-2.359
										c-0.363-1.634-0.908-2.904-0.908-3.449c-0.181-2.177-1.813-2.722-2.541-4.899c-0.362-0.907-0.544-1.633-0.726-2.541
										c0,0-0.726-2.722-0.907-5.989c-0.182-3.085,0.362-9.617,1.996-18.147c0.363-1.997,1.27-5.444,3.629-8.711
										c1.996-2.541,4.174-3.811,8.529-6.351c4.174-2.359,8.711-4.355,11.796-5.264c0.544-0.181,1.815-0.362,3.629-1.088
										c2.723-0.908,3.448-1.452,7.985-2.178c4.355-0.544,8.893-1.27,13.612,0.907c4.355,2.178,6.896,5.808,8.166,8.167
										c2.723,0.907,9.074,3.266,11.978,9.436c1.996,4.355,1.633,9.074,1.088,13.612c0,0.726-0.543,3.629-1.451,9.436
										c-0.726,3.993-0.907,5.989-1.089,6.353C553.729,280.944,550.824,287.114,550.099,286.933z"/>
								</g>
								<path fill="#7C7C7C" d="M509.629,276.408c0.908-0.182,1.815,0,2.178,0.544c0,0,0.362,0.362,0.181,0.726
									c-0.181,0.726-1.089,1.089-1.815,1.089c-2.359,0.181-4.9,0.362-7.804,0.726c-3.992,0.544-8.347,1.089-9.436,1.996
									c0.907-0.545,1.996-1.271,3.266-1.815C501.282,277.496,506,276.589,509.629,276.408z"/>
								<path fill="#7C7C7C" d="M526.325,276.044c-0.908-0.181-1.814,0-2.178,0.545c0,0-0.363,0.363-0.181,0.726
									c0.181,0.726,1.088,1.089,1.815,1.089c2.359,0.182,4.899,0.364,7.803,0.726c3.992,0.544,8.348,1.089,9.438,1.996
									c-0.908-0.543-1.996-1.27-3.267-1.813C534.673,277.133,529.955,276.226,526.325,276.044z"/>
								<g>
									<path d="M537.94,287.296c-2.724-1.453-5.264-1.453-7.985,0C531.588,284.393,536.307,284.574,537.94,287.296L537.94,287.296
										z"/>
								</g>
								<g>
									<path d="M534.854,285.663c-0.182-0.544-0.907-0.544-1.452-0.363c-0.545,0.182-0.906,0.544-0.726,1.089
										c0,0,0.363,0.544,1.089,0.544c0.182,0,0.726,0,0.907-0.364C535.036,286.207,534.854,285.663,534.854,285.663z"/>
								</g>
								<g>
									<path d="M507.27,288.203c-2.722-1.451-5.444-1.451-8.166,0C500.737,285.299,505.455,285.299,507.27,288.203L507.27,288.203
										z"/>
								</g>
								<g>
									<path d="M504.185,286.569c-0.181-0.544-0.907-0.544-1.633-0.181c-0.544,0.181-0.908,0.544-0.544,1.089
										c0,0,0.362,0.544,1.089,0.544c0.181,0,0.726,0,1.088-0.363C504.367,287.114,504.185,286.569,504.185,286.569z"/>
								</g>
								<g>
									<g>
										<g>
											<g opacity="0.41">
												<polygon fill="#E8DCD6" points="511.988,294.737 495.655,294.737 493.84,284.029 513.803,284.029 513.259,287.841 
													513.077,288.384 												"/>
											</g>
											<g>
												<path fill="#42210B" d="M512.533,295.099h-17.059l-1.996-11.615h21.051L512.533,295.099z M496.019,294.374h15.607
													l1.633-9.8h-18.874L496.019,294.374z"/>
											</g>
										</g>
										<g>
											<g opacity="0.41">
												<polygon fill="#E8DCD6" points="540.662,293.829 524.329,293.829 522.514,283.122 542.477,283.122 												"/>
											</g>
											<g>
												<path fill="#42210B" d="M541.206,294.374h-17.059l-1.996-11.615h20.87L541.206,294.374z M524.692,293.466h15.607
													l1.633-9.799h-18.874L524.692,293.466z"/>
											</g>
										</g>
									</g>
									<g>
										<g>
											<path fill="#42210B" d="M513.441,288.748l-0.364-0.726c0,0,4.9-5.263,10.344-0.544l-0.363,0.907
												C518.158,284.211,513.622,288.566,513.441,288.748z"/>
										</g>
									</g>
									<g>
										<polygon fill="#42210B" points="494.385,289.111 486.944,275.682 486.4,273.322 495.11,288.748 										"/>
									</g>
									<g>
										<polygon fill="#42210B" points="542.295,288.203 541.751,287.478 555.361,273.504 554.999,274.774 										"/>
									</g>
								</g>
								<path fill="#DBAC89" d="M513.441,308.166c0,0,5.262,5.263,13.61,0c-2.359,0.181-5.081,0.362-7.803,0.362
									C517.251,308.528,515.254,308.347,513.441,308.166z"/>
								<g>
									<path fill="#DBAC89" d="M519.792,304.718c-1.634,0-3.085-1.089-3.085-1.452c0-0.182,1.089,0.181,3.266,0.181
										c1.997,0,3.085-0.544,3.085-0.363C523.058,303.447,521.607,304.9,519.792,304.718z"/>
								</g>
								<path fill="#9F0102" d="M513.622,344.28c0,23.047,0.181,46.095,0.181,69.143c5.444,0,10.889,0,16.333,0
									c-0.364-22.866-0.727-45.731-0.908-68.599c-2.722-4.174-5.262-8.348-7.985-12.522
									C518.703,336.295,516.163,340.288,513.622,344.28z"/>
								<path fill="#F8AE38" d="M518.884,350.632c0,0,0,0.726-0.543,1.271c-0.545,0.726-1.089,0.907-1.089,0.907
									s0.362,0,0.544,0.181c0.181,0,0.726,0.182,0.907,0.544c0.363,0.364,0,1.089,0.181,1.089c0,0,0-0.907,0.727-1.452
									c0.543-0.544,1.088-0.544,1.088-0.726c0-0.182-0.181-0.182-0.362-0.182C519.973,352.083,519.429,351.72,518.884,350.632z"/>
								<path fill="#F8AE38" d="M524.692,360.794c0,0,0,0.726-0.544,1.271c-0.545,0.544-1.089,0.908-1.089,0.908
									s0.363,0,0.544,0.181c0.182,0,0.726,0.182,0.908,0.545c0.362,0.363,0,1.089,0.181,1.089c0,0,0-0.908,0.726-1.452
									c0.544-0.544,1.089-0.544,1.089-0.727c0-0.181-0.182-0.181-0.363-0.181C525.781,362.246,525.236,361.883,524.692,360.794z"
									/>
								<path fill="#F8AE38" d="M517.614,370.594c0,0,0,0.726-0.543,1.271c-0.544,0.727-1.089,0.907-1.089,0.907
									s0.362,0,0.544,0.182c0.181,0,0.726,0.183,0.907,0.545c0.363,0.363,0,1.089,0.181,1.089c0,0,0-0.908,0.727-1.451
									c0.543-0.545,1.088-0.545,1.088-0.728c0-0.181-0.181-0.181-0.362-0.181C518.703,372.046,518.158,371.683,517.614,370.594z"
									/>
								<path fill="#F8AE38" d="M523.784,379.306c0,0,0,0.726-0.544,1.27c-0.544,0.727-1.089,0.907-1.089,0.907s0.362,0,0.544,0.183
									c0.181,0,0.726,0.181,0.907,0.543c0.364,0.363,0,1.089,0.182,1.089c0,0,0-0.906,0.727-1.451
									c0.543-0.544,1.088-0.544,1.088-0.726c0-0.183-0.181-0.183-0.362-0.183C524.873,380.757,524.329,380.394,523.784,379.306z"
									/>
								<path fill="#F8AE38" d="M517.07,390.557c0,0,0,0.726-0.544,1.271c-0.544,0.726-1.089,0.907-1.089,0.907s0.362,0,0.545,0.182
									c0.181,0,0.726,0.181,0.907,0.544c0.363,0.362,0,1.09,0.182,1.09c0,0,0-0.908,0.726-1.453
									c0.545-0.544,1.088-0.544,1.088-0.726c0-0.181-0.181-0.181-0.363-0.181C518.158,392.008,517.614,391.646,517.07,390.557z"/>
								<path fill="#F8AE38" d="M524.873,400.9c0,0,0,0.727-0.544,1.271c-0.544,0.545-1.088,0.908-1.088,0.908s0.362,0,0.544,0.181
									c0.182,0,0.727,0.182,0.908,0.545c0.363,0.362,0,1.089,0.181,1.089c0,0,0-0.908,0.726-1.452
									c0.545-0.545,1.089-0.545,1.089-0.726c0-0.182-0.181-0.182-0.362-0.182C525.962,402.353,525.417,401.99,524.873,400.9z"/>
							</g>
						</g>
						<g>
							<path fill="#E4C77B" d="M518.158,447.178c0,1.271-1.089,2.178-2.177,2.178c-1.089,0-2.178-1.089-2.178-2.178
								c0-1.271,1.089-2.179,2.178-2.179C517.251,444.999,518.158,445.907,518.158,447.178"/>
						</g>
						<g>
							<path fill="#E4C77B" d="M518.158,470.226c0,1.271-1.089,2.177-2.177,2.177c-1.089,0-2.178-1.088-2.178-2.177
								s1.089-2.179,2.178-2.179C517.251,468.047,518.158,468.955,518.158,470.226"/>
						</g>
						<g>
							<path fill="#1E1E29" d="M571.149,429.755c0.364,0,0.908,0,1.453,0c-0.908-1.814-3.085-5.444-3.085-5.444
								S570.787,427.94,571.149,429.755"/>
						</g>
						<g>
							<path fill="#1E1E29" d="M590.023,423.404c-1.996-2.359-6.352-6.896-6.352-6.896s3.267,5.081,4.718,7.622
								c0-0.182,0-0.182-0.181-0.362C588.935,423.948,589.479,423.768,590.023,423.404"/>
						</g>
						<g>
							<path fill="#1E1E29" d="M460.812,429.755c-0.363,0-0.907,0-1.451,0c0.907-1.814,3.085-5.444,3.085-5.444
								S461.175,427.94,460.812,429.755"/>
						</g>
						<g>
							<path fill="#1E1E29" d="M441.938,423.404c1.996-2.359,6.351-6.896,6.351-6.896s-3.266,5.081-4.717,7.622
								c0-0.182,0-0.182,0.181-0.362C443.027,423.948,442.482,423.768,441.938,423.404"/>
						</g>
						<g>
							<rect x="260.46" y="422.134" fill="#7C5342" width="516.485" height="203.255"/>
						</g>
						<g>
							<rect x="260.46" y="422.134" fill="#724A3B" width="516.485" height="23.773"/>
						</g>
						<g>
							<path fill="#FFCB7E" d="M506.363,453.711H278.79c-2.722,0-5.081,2.177-5.081,5.081v150.809c0,2.722,2.178,5.081,5.081,5.081
								h227.573c2.722,0,5.081-2.179,5.081-5.081V458.792C511.263,455.888,509.084,453.711,506.363,453.711"/>
						</g>
						<g>
							<path fill="#724A3B" d="M500.374,459.337H284.416c-2.723,0-5.082,2.178-5.082,5.081v139.556c0,2.723,2.178,5.082,5.082,5.082
								h215.958c2.722,0,5.081-2.178,5.081-5.082V464.418C505.273,461.515,503.096,459.337,500.374,459.337"/>
						</g>
						<path fill="#FFCB7E" d="M526.325,458.792v150.809c0,2.722,2.178,5.081,5.081,5.081h227.572c2.723,0,5.082-2.179,5.082-5.081
							V458.792c0-2.722-2.178-5.081-5.082-5.081H531.406C528.503,453.711,526.325,455.888,526.325,458.792"/>
						<g>
							<path fill="#724A3B" d="M532.677,464.418v139.556c0,2.723,2.178,5.082,5.081,5.082h215.596c2.723,0,5.082-2.178,5.082-5.082
								V464.418c0-2.722-2.179-5.081-5.082-5.081H537.758C534.854,459.337,532.677,461.515,532.677,464.418"/>
						</g>
						<g>
							<path fill="#6B4337" d="M256.468,430.845v5.263c0,2.904,2.359,5.263,5.263,5.263h514.125c2.903,0,5.263-2.358,5.263-5.263
								v-5.263H256.468z"/>
						</g>
						<g>
							<path fill="#6B4337" d="M492.752,468.229H297.119c-2.541,0-4.537,1.996-4.537,4.536v126.49c0,2.541,1.996,4.537,4.537,4.537
								h195.634c2.541,0,4.536-1.996,4.536-4.537v-126.49C497.289,470.226,495.293,468.229,492.752,468.229"/>
						</g>
						<path fill="#7C5342" d="M490.211,466.415H294.578c-2.541,0-4.537,1.995-4.537,4.536v126.49c0,2.54,1.996,4.536,4.537,4.536
							h195.633c2.542,0,4.537-1.996,4.537-4.536v-126.49C494.748,468.41,492.752,466.415,490.211,466.415"/>
						<g>
							<path fill="#7F5546" d="M435.404,466.415H294.578c-2.541,0-4.537,1.995-4.537,4.536v80.213
								C417.801,550.62,433.59,487.284,435.404,466.415"/>
						</g>
						<g>
							<path fill="#6B4337" d="M745.913,468.229H550.28c-2.541,0-4.538,1.996-4.538,4.536v126.49c0,2.541,1.997,4.537,4.538,4.537
								h195.633c2.54,0,4.536-1.996,4.536-4.537v-126.49C750.449,470.226,748.453,468.229,745.913,468.229"/>
						</g>
						<path fill="#7C5342" d="M743.372,466.415H547.739c-2.54,0-4.537,1.995-4.537,4.536v126.49c0,2.54,1.997,4.536,4.537,4.536
							h195.633c2.541,0,4.536-1.996,4.536-4.536v-126.49C747.908,468.41,745.731,466.415,743.372,466.415"/>
						<g>
							<path fill="#7F5546" d="M688.385,466.415H547.559c-2.542,0-4.537,1.995-4.537,4.536v80.213
								C670.963,550.62,686.751,487.284,688.385,466.415"/>
						</g>
						<g>
							<path fill="#543730" d="M574.054,490.914H463.715c-9.437,0-17.059-7.623-17.059-17.06s7.622-17.059,17.059-17.059h110.338
								c9.437,0,17.059,7.622,17.059,17.059S583.49,490.914,574.054,490.914"/>
						</g>
						<path fill="#8E695C" d="M587.483,473.854c0,7.622-6.171,13.793-13.793,13.793H464.078c-6.351,0-11.614-4.174-13.247-9.981
							c-0.363-0.907-0.544-1.996-0.544-3.085c0-0.182,0-0.545,0-0.727c0-0.181,0-0.544,0-0.726
							c0.362-7.259,6.352-13.066,13.792-13.066H573.69C581.313,460.063,587.483,466.232,587.483,473.854z"/>
						<g>
							<path fill="#543730" d="M488.94,482.747v-2.178c0.182,0,0.544,0,0.908,0c0.363,0,0.726-0.181,1.089-0.363
								c0.181-0.181,0.362-0.544,0.362-1.089v-11.977h2.541v11.795c0,2.541-1.088,3.993-3.447,3.993
								C489.485,482.747,489.123,482.747,488.94,482.747"/>
						</g>
						<g>
							<path fill="#543730" d="M499.104,478.936v-11.978h2.541v11.978c0,1.09,0.363,1.453,1.27,1.453
								c0.908,0,1.271-0.545,1.271-1.453v-11.978h2.541v11.978c0,1.271-0.362,2.179-0.907,2.904
								c-0.726,0.726-1.634,1.089-2.723,1.089c-1.271,0-2.177-0.363-2.722-1.089C499.467,481.295,499.104,480.206,499.104,478.936"
								/>
						</g>
						<g>
							<path fill="#543730" d="M511.988,482.747v-15.606h3.811c1.271,0,2.178,0.362,2.723,0.906
								c0.545,0.726,0.907,1.634,0.907,2.904v7.984c0,1.271-0.362,2.179-0.907,2.904c-0.544,0.726-1.451,0.907-2.723,0.907H511.988z
								 M514.529,480.389h1.453c0.362,0,0.726-0.183,0.907-0.363c0.181-0.182,0.363-0.545,0.363-1.09v-8.166
								c0-0.544-0.182-0.907-0.363-1.089c-0.181-0.181-0.544-0.363-0.907-0.363h-1.453V480.389z"/>
						</g>
						<g>
							<path fill="#543730" d="M524.873,478.936v-8.166c0-1.27,0.363-2.178,0.908-2.903c0.544-0.726,1.451-1.089,2.722-1.089
								c1.27,0,2.178,0.363,2.723,1.089c0.726,0.726,0.906,1.634,0.906,2.903v1.452h-2.54v-1.634c0-1.088-0.363-1.451-1.089-1.451
								c-0.907,0-1.452,0.544-1.452,1.451v8.529c0,1.089,0.545,1.452,1.452,1.452c0.726,0,1.089-0.544,1.089-1.452v-2.903h-0.907
								v-2.178h3.447v4.899c0,1.271-0.362,2.179-0.906,2.904c-0.726,0.726-1.634,1.089-2.723,1.089
								c-1.271,0-2.178-0.363-2.722-1.089C525.236,481.114,524.873,480.206,524.873,478.936"/>
						</g>
						<g>
							<polygon fill="#543730" points="537.758,482.747 537.758,467.141 544.473,467.141 544.473,469.317 540.117,469.317 
								540.117,473.674 543.565,473.674 543.565,475.851 540.117,475.851 540.117,480.389 544.473,480.389 544.473,482.747 							
								"/>
						</g>
					</g>
					<g>
						<g>
							<path fill="#FAD4AF" d="M537.576,423.041c-8.71,1.633-10.706-11.252-1.27-7.077h-0.182
								C540.662,415.056,542.114,422.134,537.576,423.041z"/>
							<path fill="#FAD4AF" d="M537.94,417.96c-11.797-1.09-6.353-13.793-0.545-7.44c0,0-0.182,0,0,0
								c0.181,0,0.363,0.181,0.726,0.181c0,0,0.182,0,0,0C542.657,410.7,542.657,418.141,537.94,417.96z"/>
							<path fill="#FAD4AF" d="M538.303,411.971l-3.448-1.271c-4.354-1.451-1.997-8.348,2.358-6.715l3.449,1.271
								C545.017,406.709,542.477,413.604,538.303,411.971z"/>
							<path fill="#FAD4AF" d="M576.776,419.229c-1.815-1.451-4.356-3.629-6.716-7.259c-2.54-3.992-2.54-6.533-3.811-8.711
								c-1.996-3.266-8.711,3.449-23.955-3.992l-7.078,22.685c0,0,13.793,13.611,33.393,14.337c3.085,1.996,5.989,4.174,9.074,6.17
								c3.448-5.444,6.715-10.889,10.163-16.333C584.034,423.768,580.405,421.408,576.776,419.229z"/>
							<path fill="#FAD4AF" d="M555.543,403.805c-3.448-3.63-37.929-14.519-37.929-6.896c-0.181,3.086,3.449,2.903,5.444,3.267
								c7.804,1.271,15.608,3.811,22.503,7.804c3.63,1.451,7.078,7.077,11.252,3.447
								C559.173,409.249,558.446,405.256,555.543,403.805z"/>
							<path fill="#FAD4AF" d="M546.65,386.383c3.993,9.073,7.985,18.329,11.434,27.585c2.904,7.803,13.065,2.902,10.344-5.082
								c-4.537-13.43-9.437-17.604-16.696-25.589C549.372,380.575,545.017,383.116,546.65,386.383z"/>
							<path fill="#EFB78E" d="M540.117,421.952c1.089-1.814-0.182-4.537-0.362-4.537c-0.183,0-0.363,0.545,0,1.452
								c0,0.362,0.181,1.271-0.363,2.178c-0.907,1.634-2.722,1.996-2.904,1.996c0.183,0,0.545,0.182,0.908,0.182
								C538.666,423.404,539.572,422.679,540.117,421.952z"/>
							<path fill="#EFB78E" d="M541.388,416.689c1.089-1.089,1.089-5.264-0.907-5.081c-0.726,1.088,1.814,2.54-0.363,4.899
								c-1.451,1.452-3.811,0.727-5.444,0c-0.907-0.544-1.996-0.907-2.903-1.452c2.541,2.723,5.626,3.812,7.985,2.904
								C540.299,417.778,540.843,417.415,541.388,416.689z"/>
							<path fill="#EFB78E" d="M542.657,411.063c1.634-2.178,0.545-5.444-1.995-6.352l0,0c-3.086-0.907-3.992-0.907-3.992-0.907
								c0,0.181,0.726,0.545,3.629,1.814c3.63,1.271,1.633,7.077-1.996,5.807l0,0c-1.452-0.543-5.626-2.54-5.626-2.54
								c-0.181,0.181,3.993,4.537,7.622,3.63C540.662,412.516,541.932,412.153,542.657,411.063z"/>
							<path fill="#EFB78E" d="M562.076,420.5c-1.996-1.814-5.626-5.625-7.44-11.796c-0.726-2.359-0.907-4.537-1.089-6.352
								c-0.182,0-0.545-0.182-0.727-0.182c-0.181,1.814-0.181,7.259,3.085,12.341C558.084,417.778,560.443,419.594,562.076,420.5z"
								/>
						</g>
						<g>
							<path fill="#9F0102" d="M810.882,471.859c-38.836,15.062-77.673,30.124-116.509,45.005
								c-39.562-17.966-79.124-35.933-118.686-53.898c-4.174-1.814-8.349-3.811-12.522-5.625c1.271-6.17,3.811-15.244,9.438-24.682
								c7.077-12.159,15.788-19.78,21.414-23.955c3.992,2.178,7.804,4.355,11.796,6.534c29.943,17.058,60.069,33.936,90.013,50.994
								c20.507-12.885,41.196-25.588,61.702-38.473c1.814,0.181,26.313,2.54,41.015,11.433c6.896,4.175,12.34,9.8,13.973,12.159
								c1.634,2.178,2.542,4.174,3.63,5.807C819.23,462.422,816.871,469.5,810.882,471.859z"/>
							<path fill="#84030A" d="M695.1,511.42c-24.137-10.525-48.273-21.231-72.229-31.758c-19.6-8.711-39.199-17.24-58.798-25.951
								c-0.183,1.089-0.545,2.359-0.728,3.447c19.601,9.074,39.381,18.148,59.163,27.222c24.136,11.07,48.092,21.778,72.046,32.304
								c40.47-16.151,80.757-32.304,121.228-48.637C775.494,482.747,735.388,497.084,695.1,511.42z"/>
							<path fill="#84030A" d="M694.373,469.317c42.104-27.584,63.154-41.377,62.973-41.739
								c-0.181-0.363-20.688,12.521-61.701,38.473c-18.693-10.889-37.566-21.777-56.985-32.666
								c-15.063-8.529-29.943-16.695-44.825-24.861c-0.906,0.726-1.814,1.271-2.54,1.996c15.063,8.166,30.126,16.514,45.37,25.225
								C656.444,446.996,675.682,458.247,694.373,469.317z"/>
							<path fill="#F8AE38" d="M605.993,415.056c-6.352,5.444-15.062,14.519-22.14,27.585c-3.993,7.44-6.533,14.518-8.166,20.507
								c-4.355-1.996-8.712-3.811-13.067-5.807c1.271-6.353,3.993-15.427,9.619-25.044c7.077-12.159,15.788-19.963,21.414-24.137
								C597.827,410.338,601.82,412.696,605.993,415.056z"/>
						</g>
						<path fill="#F8AE38" d="M807.979,378.761c-3.63,0.907-7.804,2.177-12.159,3.992c-3.63,1.452-6.896,3.085-9.619,4.719
							c0.545,1.634,1.09,3.085,1.815,4.719c6.715-1.996,13.61-4.175,20.326-6.171C807.979,383.479,807.979,381.12,807.979,378.761z"
							/>
						<path fill="#9F0102" d="M764.605,570.038c42.828,11.07,85.476,21.959,128.304,33.028c0,0-0.726-12.885-1.814-28.854
							c0,0-1.996-26.496-4.355-48.273c-5.081-45.913-18.148-105.801-20.325-115.782c-19.418-8.166-38.837-16.151-58.436-24.318
							c-3.449,0.363-7.804,1.089-12.341,2.723c-9.256,3.085-15.788,7.621-20.144,11.251c-8.167,10.708-16.333,21.597-24.682,32.303
							C755.531,478.029,760.067,524.124,764.605,570.038z"/>
						<path fill="#9F0102" d="M756.257,492.91c44.644,24.681,89.469,49.181,134.112,73.86c0.363,2.179,0.727,4.719,1.089,7.441
							c0.362,2.541,1.814,15.063,1.271,28.854c-0.545,19.781-4.9,37.022-7.26,45.007c-36.84,8.348-73.498,16.515-110.338,24.862
							C768.961,612.866,762.608,552.979,756.257,492.91z"/>
						<path fill="none" stroke="#F8AE38" stroke-width="1.7609" stroke-miterlimit="10" d="M776.037,408.886
							c-0.906,20.688-0.906,43.191,0.545,67.69c1.814,31.396,5.808,59.889,10.708,84.933c3.811,35.388,7.622,70.776,11.614,106.164"
							/>
						<path fill="none" stroke="#F8AE38" stroke-width="1.7609" stroke-miterlimit="10" d="M788.379,446.996
							c-7.078,0.726-13.974,1.271-21.052,1.996"/>
						<path fill="none" stroke="#F8AE38" stroke-width="1.7609" stroke-miterlimit="10" d="M790.013,506.702
							c-6.897,0.362-13.793,0.726-20.688,1.271"/>
						<path fill="none" stroke="#F8AE38" stroke-width="1.7609" stroke-miterlimit="10" d="M799.085,558.604
							c-7.621,1.09-15.425,1.996-23.048,3.085"/>
						<path fill="none" stroke="#F8AE38" stroke-width="1.7609" stroke-miterlimit="10" d="M806.525,634.645
							c-7.803,0.906-15.425,1.814-23.229,2.721"/>
						<path fill="#F8AE38" d="M797.271,376.038c-3.085,0.908-9.074,3.268-14.155,8.712c-8.892,9.617-8.71,21.595-8.71,24.136
							c0.544,0,1.089,0,1.634,0c0.181-2.904,1.088-10.707,6.896-18.148c7.259-9.255,17.24-11.432,19.78-11.795
							C800.9,378.035,799.085,376.946,797.271,376.038z"/>
						<g>
							<path fill="none" d="M776.401,421.589"/>
						</g>
						<g>
							<path fill="#191513" d="M815.237,368.053c-0.726,1.09-2.178,2.541-4.174,3.993c-0.545,0.362-1.452,1.09-2.904,1.633
								c-2.358,0.908-4.718,1.271-6.352,1.089c0-2.903,0.182-9.255,3.812-15.97c3.448-6.351,8.166-9.799,10.525-11.433
								C815.782,354.261,815.601,361.157,815.237,368.053z"/>
							<g>
								<path fill="#FAD4AF" d="M776.22,410.156c1.451-2.359,3.085-4.9,4.719-7.622c1.633-2.359,3.267-4.719,4.899-6.896
									c0.727-0.907,1.633-1.633,2.541-2.541c0.726-0.544,1.451-1.27,2.177-1.995c2.541-1.996,5.082-3.63,7.441-4.9
									c3.085-1.634,5.807-2.54,8.166-3.267c-0.362-1.452-0.907-2.903-1.089-4.718c0-0.727-0.181-1.634-0.181-2.541l0,0
									c0-0.183,0-0.183,0-0.363c0-1.089,0-2.177,0.181-3.085c0-0.545,0.182-1.089,0.182-1.634
									c-7.984,2.542-16.151,5.082-24.317,7.441c-2.359,0.726-4.537,1.451-6.896,2.177l0,0v0.182
									c0.182,1.089,0.363,1.997,0.544,3.085c0.545,3.448,1.271,6.896,1.815,10.526v0.182c0.182,0.726,0.182,1.451,0.363,1.995
									c0.362,1.453,0.544,3.086,0.906,4.719c-0.362,0.727-0.544,1.634-0.906,2.541
									C776.037,406.164,776.037,408.523,776.22,410.156z"/>
								<path fill="#E09D6C" d="M773.86,380.575c0.182,1.09,0.363,1.996,0.545,3.086c0.544,3.447,1.27,6.896,1.814,10.525v0.181
									c1.089,0,2.177-0.181,3.267-0.362c3.085-0.545,5.808-1.452,8.167-2.723c3.991-1.996,7.077-4.536,9.437-6.896
									c0.726-0.726,1.452-1.452,2.903-3.085c1.814-1.996,3.448-3.812,4.536-5.081l0,0c0-0.183,0-0.183,0-0.363
									c0-1.09,0-2.179,0.183-3.086c0-0.544,0.182-1.089,0.182-1.633c-7.985,2.54-16.152,5.082-24.318,7.44
									C778.579,379.123,776.22,379.85,773.86,380.575z"/>
								<path fill="#FAD4AF" d="M768.779,270.6c36.295-5.262,45.369,18.512,47.547,32.484c0.907,6.352,1.633,10.889,1.815,17.604
									c0.181,7.804,0.362,17.786-2.723,29.4c-2.178,8.53-5.444,20.506-15.606,30.306c-5.627,5.263-10.345,7.984-12.159,8.893
									c-4.9,2.179-8.894,2.722-9.982,2.904c-1.996,0.181-4.899,0.544-7.621,0c-4.9-1.271-6.897-5.626-13.793-15.063
									c-3.448-4.719-7.44-9.074-10.344-16.15c-7.804-18.331-11.07-31.578-13.066-45.551
									C730.669,301.27,732.665,275.863,768.779,270.6z"/>
								<path fill="#191513" d="M762.427,268.604c-10.525-0.726-17.239,2.722-20.144,4.536
									c-14.881,9.074-17.785,29.037-15.426,41.922c2.178,11.796,9.074,20.688,9.981,20.326c0.544-0.182-1.089-3.629-0.907-9.8
									c0-2.903,0.545-5.443,0.907-7.077c0.544-2.541,1.451-4.719,2.178-6.353c2.359,7.804,3.447,9.619,3.992,9.438
									c0.908-0.181,0-4.9,1.271-11.252c1.271-6.352,4.537-13.066,6.353-12.703c2.177,0.362,2.177,8.529,3.629,8.529
									c0.726,0,0.726-2.359,2.904-5.444c1.088-1.452,2.722-3.812,4.536-3.812c1.996,0,3.267,2.542,7.44,10.163
									c4.9,8.71,5.808,10.163,6.715,10.163c0.908-0.183,2.178-1.997,2.54-10.708c1.815,1.997,2.904,3.811,6.897,9.074
									c2.177,2.723,3.991,4.9,4.536,4.9c0.908,0,2.723-4.355,3.812-9.255c1.089,1.271,2.358,3.266,3.084,5.807
									c0.728,2.542,0.183,3.449,0.546,5.627c0.726,4.355,3.629,4.899,6.896,10.707c3.085,5.444,2.722,8.529,4.537,8.893
									c2.359,0.362,5.263-6.352,6.533-9.619c-3.63,27.04-3.267,35.569-1.452,35.933c2.359,0.545,8.711-11.795,11.797-23.955
									c0-0.363,0.362-1.453,0.544-2.541c1.996-9.256,6.17-35.389-8.529-56.984c-4.355-6.351-9.074-10.344-11.434-12.159
									c-4.719-3.629-14.154-10.889-26.858-10.163C776.22,262.979,769.687,263.885,762.427,268.604z"/>
							</g>
							<path fill="none" stroke="#F8AE38" stroke-width="1.7609" stroke-miterlimit="10" d="M816.688,398.179"/>
							<g>
								<g>
									<path d="M791.101,328.129c-6.715-1.815-14.699,1.814-18.691,7.259l-1.997-1.271
										C774.224,328.129,785.111,324.317,791.101,328.129L791.101,328.129z"/>
								</g>
							</g>
							<g>
								<g>
									<path d="M739.379,335.569c5.082-4.9,14.519-3.811,19.237,1.27l-1.634,1.452
										C752.627,333.754,744.823,332.484,739.379,335.569L739.379,335.569z"/>
								</g>
							</g>
							<path fill="#E09D6C" d="M782.026,374.405c-0.181,0.362-4.355-1.814-9.617-0.544c-5.082,1.27-7.623,4.536-7.985,4.174
								c-0.363-0.363,2.358-5.264,7.077-6.533C776.945,370.231,782.209,373.861,782.026,374.405z"/>
							<g>
								<path fill="#E09D6C" d="M774.586,361.52c-2.903,1.815-5.988,2.179-9.255,1.271
									C768.234,360.977,771.32,360.613,774.586,361.52L774.586,361.52z"/>
							</g>
							<g>
								<path d="M756.257,345.731L756.257,345.731c0.363-0.181,0.545-0.362,0.726-0.543c-0.181-0.363-0.726-0.727-1.089-1.27
									c0,0-0.726-0.544-1.271-0.908c-0.726-0.363-1.27-0.181-3.266,0c-2.541,0.364-2.722,0.181-3.267,0.545
									c-0.726,0.544-1.634,1.451-1.452,2.177c0,0.182,0.182,0.364,0.544,0.545c0.908,0.727,1.815,0.727,1.996,0.727
									c0,0.181-1.271,0.544-2.358,0c-0.727-0.363-1.271-1.089-1.452-1.453c-0.362,0.181-0.907,0.363-1.451,0.545
									c-0.726,0.363-1.089,0.544-1.089,0.363c-0.182-0.182,1.089-1.453,2.359-2.359c0.544-0.363,1.27-0.908,2.359-1.453
									c0.544-0.181,1.089-0.362,3.266-0.726c1.089-0.181,2.359-0.362,3.993-0.362c0.726,0.181,1.633,0.726,2.722,1.451
									c1.271,0.908,2.178,1.996,2.178,2.178c0,0.181-0.363-0.182-1.089-0.182c-0.363,0-0.363,0-0.726,0.182
									C756.982,345.913,756.257,345.731,756.257,345.731z"/>
								<path d="M747.547,343.19c0,0.364-0.182,0.727,0,1.453c0.361,1.27,1.27,1.996,1.451,2.177
									c0.907,0.544,1.814,0.363,2.359,0.182c0.363-0.182,1.089-0.363,1.634-0.908c0.181-0.362,0.726-0.907,0.726-1.815
									c0-0.907-0.545-1.634-0.545-1.815c-0.726,0-1.451,0-2.178,0.181C749.724,342.646,748.636,342.828,747.547,343.19z"/>
							</g>
							<g>
								<path d="M779.124,342.465C779.124,342.465,778.941,342.465,779.124,342.465c-0.364-0.181-0.728-0.181-1.09-0.362
									c0.182-0.363,0.362-0.908,0.907-1.634c0-0.181,0.545-0.726,1.089-1.27c0.726-0.544,1.452-0.726,3.63-1.089
									c2.904-0.544,3.085-0.726,3.811-0.544c1.089,0.181,2.359,0.908,2.359,1.634c0,0.181-0.181,0.544-0.362,0.726
									c-0.727,1.089-1.814,1.271-1.814,1.452c0,0.182,1.632,0.182,2.722-0.907c0.726-0.544,1.089-1.452,1.089-1.814
									c0.362,0,1.089,0,1.996,0c1.089,0,1.452,0.181,1.452,0s-1.634-0.908-3.448-1.271c-0.726-0.182-1.814-0.363-3.268-0.363
									c-0.543,0-1.451,0-3.811,0.544c-1.089,0.181-2.722,0.544-4.536,1.089c-0.545,0.544-1.634,1.27-2.359,2.359
									c-1.089,1.27-1.634,2.722-1.451,2.904c0.181,0,0.362-0.363,1.27-0.544c0.362-0.183,0.362,0,0.907-0.183
									C778.396,342.828,779.124,342.646,779.124,342.465z"/>
								<path d="M785.475,337.565c0.182,0.181,0.363,0.726,0.545,1.271c0.181,1.452-0.726,2.359-0.908,2.541
									c-0.906,0.908-1.814,0.908-2.54,1.089c-0.362,0-1.271,0.181-2.178-0.362c-0.544-0.182-1.27-0.544-1.452-1.452
									c-0.182-0.726,0.363-1.452,0.545-1.633c0.544-0.544,1.089-0.727,1.996-0.908
									C782.571,337.929,783.841,337.746,785.475,337.565z"/>
							</g>
							<polyline fill="none" points="807.434,388.742 807.252,388.016 807.071,386.564 807.071,386.02 806.889,385.293 							"/>
							<path fill="#FAD4AF" d="M810.882,325.77c0.726-3.63,5.444-7.623,7.803-6.715c2.359,0.907,4.356,6.896,3.993,10.889
								c-0.182,2.177,0.182,8.166-4.174,13.066c-2.178,2.541-6.352,5.808-8.349,4.538c-0.907-0.544-1.451-1.997-0.907-8.529
								C809.611,333.936,810.338,329.399,810.882,325.77z"/>
						</g>
						<path fill="#F8AE38" d="M807.979,378.761c-5.989,2.541-17.06,8.166-25.407,19.963c-2.904,4.173-5.081,8.348-6.352,11.977
							c0.362,0.363,0.907,0.908,1.271,1.271c3.448-5.807,11.251-16.695,25.044-22.14c2.722-1.089,5.444-1.815,7.984-2.359
							C809.43,384.567,808.704,381.665,807.979,378.761z"/>
						<g>
							<path fill="#9F0102" d="M886.558,686.909c12.521,4.718,23.955,3.992,30.488,2.723c1.815-0.364,3.085-0.545,4.175-0.907
								c0.726-4.537,1.633-8.893,2.359-13.431c8.529-47.364,17.059-94.73,25.587-141.914c-13.43-18.148-26.858-37.385-40.288-57.348
								c-15.062-22.321-29.218-44.28-42.465-65.694c-9.074,24.136-17.967,48.273-27.041,72.409
								c9.8,8.893,19.781,18.511,30.126,28.855c10.889,11.069,21.051,22.14,30.125,32.665
								c-10.707,37.566-21.233,75.133-31.939,112.517c-1.271,4.536-2.541,9.074-3.993,13.792c0.545,0.727,1.271,1.452,1.997,2.178
								C869.681,677.109,876.577,683.098,886.558,686.909z"/>
							<path fill="#84030A" d="M943.724,533.924c-8.893,51.903-17.786,103.806-26.678,155.708c1.815-0.364,3.085-0.545,4.175-0.907
								c9.255-51.722,18.692-103.625,27.947-155.346c-54.625-82.572-82.209-123.585-82.754-123.042
								C865.688,410.7,891.458,451.896,943.724,533.924z"/>
							<path fill="#84030A" d="M906.339,542.816c-39.925-37.021-60.25-55.169-60.977-54.625
								c-0.726,0.727,17.422,19.418,54.262,56.076c-11.977,42.104-23.955,84.206-35.933,126.309
								c0.545,0.727,1.271,1.452,1.997,2.178c5.625-20.87,11.977-42.103,18.691-64.062
								C891.639,586.008,898.898,564.049,906.339,542.816z"/>
							<path fill="#F8AE38" d="M886.558,686.909c12.521,4.718,23.955,3.992,30.488,2.723c1.815-0.364,3.085-0.545,4.175-0.907
								c0.726-4.537,1.633-8.893,2.359-13.431c-6.353,0-14.338-0.726-23.049-2.902c-14.881-3.812-25.951-10.345-33.029-15.244
								c-1.271,4.536-2.54,9.074-3.992,13.791c0.545,0.728,1.271,1.453,1.996,2.179
								C869.681,677.109,876.577,683.098,886.558,686.909z"/>
						</g>
					</g>
					<g>
						<g>
							<path fill="#FAD4AF" d="M480.593,423.041c8.71,1.633,10.707-11.252,1.27-7.077h0.181
								C477.507,415.056,476.056,422.134,480.593,423.041z"/>
							<path fill="#FAD4AF" d="M480.23,417.96c11.795-1.09,6.351-13.793,0.544-7.44c0,0,0.181,0,0,0s-0.363,0.181-0.726,0.181
								c0,0-0.183,0,0,0C475.33,410.7,475.511,418.141,480.23,417.96z"/>
							<path fill="#FAD4AF" d="M479.866,411.971l3.449-1.271c4.355-1.451,1.996-8.348-2.359-6.715l-3.447,1.271
								C473.152,406.709,475.511,413.604,479.866,411.971z"/>
							<path fill="#FAD4AF" d="M441.394,419.229c1.814-1.451,4.355-3.629,6.714-7.259c2.541-3.992,2.541-6.533,3.812-8.711
								c1.996-3.266,8.71,3.449,23.955-3.992l7.078,22.685c0,0-13.793,13.611-33.392,14.337c-3.085,1.996-5.989,4.174-9.074,6.17
								c-3.448-5.444-6.714-10.889-10.163-16.333C434.134,423.768,437.764,421.408,441.394,419.229z"/>
							<path fill="#FAD4AF" d="M462.626,403.805c3.448-3.63,37.928-14.519,37.928-6.896c0.183,3.086-3.447,2.903-5.444,3.267
								c-7.803,1.271-15.606,3.811-22.503,7.804c-3.63,1.451-7.077,7.077-11.251,3.447
								C458.997,409.249,459.723,405.256,462.626,403.805z"/>
							<path fill="#FAD4AF" d="M471.519,386.383c-3.993,9.073-7.985,18.329-11.433,27.585c-2.904,7.803-13.067,2.902-10.344-5.082
								c4.537-13.43,9.436-17.604,16.695-25.589C468.796,380.575,473.152,383.116,471.519,386.383z"/>
							<path fill="#EFB78E" d="M478.052,421.952c-1.088-1.814,0.182-4.537,0.363-4.537s0.363,0.545,0,1.452
								c0,0.362-0.181,1.271,0.363,2.178c0.907,1.634,2.722,1.996,2.903,1.996c-0.181,0-0.543,0.182-0.907,0.182
								C479.504,423.404,478.415,422.679,478.052,421.952z"/>
							<path fill="#EFB78E" d="M476.781,416.689c-1.088-1.089-1.088-5.264,0.908-5.081c0.726,1.088-1.815,2.54,0.362,4.899
								c1.452,1.452,3.812,0.727,5.444,0c0.908-0.544,1.997-0.907,2.904-1.452c-2.541,2.723-5.625,3.812-7.985,2.904
								C477.871,417.778,477.326,417.415,476.781,416.689z"/>
							<path fill="#EFB78E" d="M475.511,411.063c-1.633-2.178-0.544-5.444,1.996-6.352l0,0c3.086-0.907,3.993-0.907,3.993-0.907
								c0,0.181-0.726,0.545-3.629,1.814c-3.63,1.271-1.634,7.077,1.996,5.807l0,0c1.453-0.543,5.627-2.54,5.627-2.54
								c0.181,0.181-3.993,4.537-7.623,3.63C477.507,412.516,476.237,412.153,475.511,411.063z"/>
							<path fill="#EFB78E" d="M456.093,420.5c1.997-1.814,5.627-5.625,7.441-11.796c0.726-2.359,0.907-4.537,1.088-6.352
								c0.182,0,0.544-0.182,0.727-0.182c0.181,1.814,0.181,7.259-3.085,12.341C460.086,417.778,457.545,419.594,456.093,420.5z"/>
						</g>
						<g>
							<path fill="#9F0102" d="M207.288,471.859c38.836,15.062,77.672,30.124,116.508,45.005
								c39.563-17.966,79.125-35.933,118.687-53.898c4.174-1.814,8.348-3.811,12.522-5.625c-1.271-6.17-3.812-15.244-9.438-24.682
								c-7.078-12.159-15.789-19.78-21.414-23.955c-3.993,2.178-7.804,4.355-11.795,6.534
								c-29.945,17.058-60.07,33.936-90.013,50.994c-20.507-12.885-41.196-25.588-61.703-38.473
								c-1.815,0.181-26.314,2.54-41.014,11.433c-6.896,4.175-12.34,9.8-13.973,12.159c-1.634,2.178-2.541,4.174-3.63,5.807
								C198.939,462.422,201.299,469.5,207.288,471.859z"/>
							<path fill="#84030A" d="M322.889,511.42c24.136-10.525,48.273-21.231,72.228-31.758c19.599-8.711,39.2-17.24,58.799-25.951
								c0.181,1.089,0.544,2.359,0.726,3.447c-19.6,9.074-39.381,18.148-59.162,27.222c-24.137,11.07-48.092,21.778-72.046,32.304
								c-40.47-16.151-80.758-32.304-121.228-48.637C242.676,482.747,282.782,497.084,322.889,511.42z"/>
							<path fill="#84030A" d="M323.796,469.317c-42.103-27.584-63.154-41.377-62.972-41.739
								c0.181-0.363,20.688,12.521,61.702,38.473c18.692-10.889,37.566-21.777,56.984-32.666
								c15.062-8.529,29.943-16.695,44.824-24.861c0.908,0.726,1.815,1.271,2.541,1.996c-15.062,8.166-30.125,16.514-45.369,25.225
								C361.725,446.996,342.488,458.247,323.796,469.317z"/>
							<path fill="#F8AE38" d="M412.175,415.056c6.353,5.444,15.063,14.519,22.141,27.585c3.992,7.44,6.532,14.518,8.166,20.507
								c4.355-1.996,8.71-3.811,13.066-5.807c-1.27-6.353-3.992-15.427-9.618-25.044c-7.078-12.159-15.789-19.963-21.414-24.137
								C420.343,410.338,416.35,412.696,412.175,415.056z"/>
						</g>
						<path fill="#F8AE38" d="M210.191,378.761c3.629,0.907,7.803,2.177,12.159,3.992c3.629,1.452,6.896,3.085,9.619,4.719
							c-0.544,1.634-1.089,3.085-1.815,4.719c-6.714-1.996-13.611-4.175-20.326-6.171
							C210.191,383.479,210.191,381.12,210.191,378.761z"/>
						<path fill="#9F0102" d="M253.564,570.038c-42.829,11.07-85.476,21.959-128.304,33.028c0,0,0.726-12.885,1.814-28.854
							c0,0,1.996-26.496,4.355-48.273c5.082-45.913,18.147-105.801,20.326-115.782c19.417-8.166,38.836-16.151,58.436-24.318
							c3.448,0.363,7.803,1.089,12.34,2.723c9.255,3.085,15.789,7.621,20.144,11.251c8.167,10.708,16.333,21.597,24.681,32.303
							C262.457,478.029,258.102,524.124,253.564,570.038z"/>
						<path fill="#9F0102" d="M261.912,492.91c-44.643,24.681-89.468,49.181-134.111,73.86c-0.363,2.179-0.726,4.719-1.089,7.441
							c-0.363,2.541-1.814,15.063-1.271,28.854c0.544,19.781,4.9,37.022,7.259,45.007c36.84,8.348,73.499,16.515,110.338,24.862
							C249.027,612.866,255.379,552.979,261.912,492.91z"/>
						<path fill="none" stroke="#F8AE38" stroke-width="1.7609" stroke-miterlimit="10" d="M241.95,408.886
							c0.907,20.688,0.907,43.191-0.545,67.69c-1.814,31.396-5.807,59.889-10.707,84.933c-3.811,35.388-7.622,70.776-11.614,106.164
							"/>
						<path fill="none" stroke="#F8AE38" stroke-width="1.7609" stroke-miterlimit="10" d="M229.791,446.996
							c7.078,0.726,13.974,1.271,21.051,1.996"/>
						<path fill="none" stroke="#F8AE38" stroke-width="1.7609" stroke-miterlimit="10" d="M228.157,506.702
							c6.896,0.362,13.793,0.726,20.688,1.271"/>
						<path fill="none" stroke="#F8AE38" stroke-width="1.7609" stroke-miterlimit="10" d="M219.084,558.604
							c7.622,1.09,15.425,1.996,23.047,3.085"/>
						<path fill="none" stroke="#F8AE38" stroke-width="1.7609" stroke-miterlimit="10" d="M211.643,634.645
							c7.804,0.906,15.426,1.814,23.229,2.721"/>
						<path fill="#F8AE38" d="M220.899,376.038c3.085,0.908,9.073,3.268,14.155,8.712c8.892,9.617,8.711,21.595,8.711,24.136
							c-0.544,0-1.089,0-1.633,0c-0.181-2.904-1.089-10.707-6.896-18.148c-7.259-9.255-17.241-11.432-19.781-11.795
							C217.269,378.035,219.084,376.946,220.899,376.038z"/>
						<g>
							<path fill="none" d="M241.769,421.589"/>
						</g>
						<g>
							<path fill="#191513" d="M202.933,368.053c0.726,1.09,2.177,2.541,4.173,3.993c0.544,0.362,1.452,1.09,2.904,1.633
								c2.359,0.908,4.718,1.271,6.352,1.089c0-2.903-0.182-9.255-3.812-15.97c-3.448-6.351-8.167-9.799-10.525-11.433
								C202.206,354.261,202.569,361.157,202.933,368.053z"/>
							<g>
								<path fill="#FAD4AF" d="M241.95,410.156c-1.452-2.359-3.085-4.9-4.719-7.622c-1.633-2.359-3.266-4.719-4.9-6.896
									c-0.726-0.907-1.633-1.633-2.541-2.541c-0.726-0.544-1.452-1.27-2.178-1.995c-2.541-1.996-5.082-3.63-7.441-4.9
									c-3.085-1.634-5.807-2.54-8.166-3.267c0.363-1.452,0.907-2.903,1.089-4.718c0-0.727,0.182-1.634,0.182-2.541l0,0
									c0-0.183,0-0.183,0-0.363c0-1.089,0-2.177-0.182-3.085c0-0.545-0.182-1.089-0.182-1.634
									c7.986,2.542,16.152,5.082,24.318,7.441c2.359,0.726,4.537,1.451,6.896,2.177l0,0v0.182
									c-0.182,1.089-0.363,1.997-0.545,3.085c-0.544,3.448-1.27,6.896-1.814,10.526v0.182c-0.181,0.726-0.181,1.451-0.363,1.995
									c-0.363,1.453-0.544,3.086-0.907,4.719c0.363,0.727,0.544,1.634,0.907,2.541
									C242.131,406.164,242.131,408.523,241.95,410.156z"/>
								<path fill="#E09D6C" d="M244.31,380.575c-0.182,1.09-0.364,1.996-0.545,3.086c-0.544,3.447-1.27,6.896-1.814,10.525v0.181
									c-1.089,0-2.178-0.181-3.267-0.362c-3.085-0.545-5.807-1.452-8.167-2.723c-3.992-1.996-7.077-4.536-9.437-6.896
									c-0.726-0.726-1.452-1.452-2.903-3.085c-1.815-1.996-3.449-3.812-4.537-5.081l0,0c0-0.183,0-0.183,0-0.363
									c0-1.09,0-2.179-0.182-3.086c0-0.544-0.181-1.089-0.181-1.633c7.985,2.54,16.151,5.082,24.317,7.44
									C239.591,379.123,241.95,379.85,244.31,380.575z"/>
								<path fill="#FAD4AF" d="M249.391,270.6c-36.295-5.262-45.37,18.512-47.547,32.484c-0.907,6.352-1.633,10.889-1.815,17.604
									c-0.181,7.804-0.363,17.786,2.723,29.4c2.177,8.53,5.444,20.506,15.607,30.306c5.626,5.263,10.344,7.984,12.159,8.893
									c4.9,2.179,8.893,2.722,9.981,2.904c1.997,0.181,4.9,0.544,7.622,0c4.9-1.271,6.896-5.626,13.792-15.063
									c3.449-4.719,7.441-9.074,10.344-16.15c7.803-18.331,11.071-31.578,13.066-45.551
									C287.501,301.27,285.504,275.863,249.391,270.6z"/>
								<path fill="#191513" d="M255.742,268.604c10.526-0.726,17.241,2.722,20.145,4.536c14.881,9.074,17.785,29.037,15.425,41.922
									c-2.178,11.796-9.074,20.688-9.982,20.326c-0.543-0.182,1.089-3.629,0.908-9.8c0-2.903-0.544-5.443-0.908-7.077
									c-0.543-2.541-1.452-4.719-2.177-6.353c-2.359,7.804-3.448,9.619-3.993,9.438c-0.907-0.181,0-4.9-1.27-11.252
									c-1.271-6.352-4.537-13.066-6.352-12.703c-2.178,0.362-2.178,8.529-3.63,8.529c-0.726,0-0.726-2.359-2.904-5.444
									c-1.088-1.452-2.722-3.812-4.537-3.812c-1.996,0-3.267,2.542-7.441,10.163c-4.899,8.71-5.807,10.163-6.714,10.163
									c-0.908-0.183-2.178-1.997-2.541-10.708c-1.815,1.997-2.904,3.811-6.896,9.074c-2.178,2.723-3.992,4.9-4.537,4.9
									c-0.907,0-2.722-4.355-3.811-9.255c-1.089,1.271-2.359,3.266-3.085,5.807c-0.726,2.542-0.181,3.449-0.544,5.627
									c-0.727,4.355-3.63,4.899-6.896,10.707c-3.085,5.444-2.722,8.529-4.537,8.893c-2.359,0.362-5.263-6.352-6.533-9.619
									c3.629,27.04,3.266,35.569,1.451,35.933c-2.359,0.545-8.71-11.795-11.795-23.955c0-0.363-0.364-1.453-0.545-2.541
									c-1.996-9.256-6.17-35.389,8.53-56.984c4.355-6.351,9.074-10.344,11.433-12.159c4.719-3.629,14.156-10.889,26.859-10.163
									C241.95,262.979,248.483,263.885,255.742,268.604z"/>
							</g>
							<path fill="none" stroke="#F8AE38" stroke-width="1.7609" stroke-miterlimit="10" d="M201.48,398.179"/>
							<g>
								<g>
									<path d="M227.069,327.946c6.896-3.266,16.514-0.181,20.688,6.17l-1.997,1.271
										C241.769,329.761,233.602,326.676,227.069,327.946L227.069,327.946z"/>
								</g>
							</g>
							<g>
								<g>
									<path d="M278.608,335.569c-5.444-3.449-13.248-1.634-17.604,2.54l-1.633-1.451
										C263.909,331.758,274.434,330.488,278.608,335.569L278.608,335.569z"/>
								</g>
							</g>
							<path fill="#E09D6C" d="M236.143,374.405c0.182,0.362,4.355-1.814,9.618-0.544c5.082,1.27,7.622,4.536,7.985,4.174
								c0.363-0.363-2.359-5.264-7.078-6.533C241.224,370.231,235.961,373.861,236.143,374.405z"/>
							<g>
								<path fill="#E09D6C" d="M243.583,361.52c3.267-0.906,6.352-0.543,9.256,1.271
									C249.572,363.879,246.487,363.335,243.583,361.52L243.583,361.52z"/>
							</g>
							<g>
								<path d="M261.912,345.731L261.912,345.731c-0.363-0.181-0.544-0.362-0.726-0.543c0.182-0.363,0.726-0.727,1.089-1.27
									c0,0,0.726-0.544,1.271-0.908c0.726-0.363,1.271-0.181,3.267,0c2.541,0.364,2.722,0.181,3.267,0.545
									c0.726,0.544,1.633,1.451,1.452,2.177c0,0.182-0.182,0.364-0.544,0.545c-0.907,0.727-1.815,0.727-1.997,0.727
									c0,0.181,1.271,0.544,2.359,0c0.726-0.363,1.27-1.089,1.452-1.453c0.363,0.181,0.907,0.363,1.452,0.545
									c0.726,0.363,1.089,0.544,1.089,0.363c0.181-0.182-1.089-1.453-2.359-2.359c-0.544-0.363-1.271-0.908-2.359-1.453
									c-0.544-0.181-1.089-0.362-3.267-0.726c-1.088-0.181-2.358-0.362-3.992-0.362c-0.726,0.181-1.633,0.726-2.722,1.451
									c-1.271,0.908-2.178,1.996-2.178,2.178c0,0.181,0.363-0.182,1.089-0.182c0.363,0,0.363,0,0.726,0.182
									C261.187,345.913,261.912,345.731,261.912,345.731z"/>
								<path d="M270.624,343.19c0,0.364,0.181,0.727,0,1.453c-0.363,1.27-1.271,1.996-1.452,2.177
									c-0.907,0.544-1.815,0.363-2.359,0.182c-0.363-0.182-1.088-0.363-1.633-0.908c-0.182-0.362-0.726-0.907-0.726-1.815
									c0-0.907,0.545-1.634,0.545-1.815c0.726,0,1.451,0,2.177,0.181C268.446,342.646,269.534,342.828,270.624,343.19z"/>
							</g>
							<g>
								<path d="M239.046,342.465L239.046,342.465c0.363-0.181,0.726-0.181,1.089-0.362c-0.182-0.363-0.363-0.908-0.907-1.634
									c0-0.181-0.545-0.726-1.089-1.27c-0.726-0.544-1.452-0.726-3.629-1.089c-2.903-0.544-3.085-0.726-3.811-0.544
									c-1.089,0.181-2.359,0.908-2.359,1.634c0,0.181,0.182,0.544,0.363,0.726c0.726,1.089,1.814,1.271,1.814,1.452
									c0,0.182-1.633,0.182-2.722-0.907c-0.726-0.544-1.088-1.452-1.088-1.814c-0.363,0-1.089,0-1.997,0
									c-1.088,0-1.452,0.181-1.452,0s1.634-0.908,3.449-1.271c0.726-0.182,1.815-0.363,3.266-0.363c0.544,0,1.452,0,3.812,0.544
									c1.088,0.181,2.722,0.544,4.537,1.089c0.545,0.544,1.633,1.27,2.359,2.359c1.089,1.27,1.633,2.722,1.452,2.904
									c-0.181,0-0.363-0.363-1.271-0.544c-0.363-0.183-0.363,0-0.907-0.183C239.772,342.828,239.046,342.646,239.046,342.465z"/>
								<path d="M232.694,337.565c-0.181,0.181-0.363,0.726-0.544,1.271c-0.182,1.452,0.726,2.359,0.907,2.541
									c0.908,0.908,1.814,0.908,2.541,1.089c0.363,0,1.271,0.181,2.178-0.362c0.544-0.182,1.271-0.544,1.452-1.452
									c0.181-0.726-0.363-1.452-0.545-1.633c-0.544-0.544-1.089-0.727-1.996-0.908
									C235.598,337.929,234.328,337.746,232.694,337.565z"/>
							</g>
							<polyline fill="none" points="210.736,388.742 210.917,388.016 211.099,386.564 211.099,386.02 211.28,385.293 							"/>
							<path fill="#FAD4AF" d="M207.288,325.77c-0.726-3.63-5.444-7.623-7.804-6.715c-2.359,0.907-4.355,6.896-3.992,10.889
								c0.182,2.177-0.181,8.166,4.174,13.066c2.178,2.541,6.352,5.808,8.348,4.538c0.907-0.544,1.452-1.997,0.907-8.529
								C208.558,333.936,207.833,329.399,207.288,325.77z"/>
						</g>
						<path fill="#F8AE38" d="M210.191,378.761c5.989,2.541,17.059,8.166,25.407,19.963c2.903,4.173,5.082,8.348,6.352,11.977
							c-0.363,0.363-0.908,0.908-1.271,1.271c-3.448-5.807-11.251-16.695-25.044-22.14c-2.723-1.089-5.444-1.815-7.985-2.359
							C208.558,384.567,209.465,381.665,210.191,378.761z"/>
						<g>
							<path fill="#9F0102" d="M131.612,686.909c-12.522,4.718-23.955,3.992-30.489,2.723c-1.814-0.364-3.085-0.545-4.173-0.907
								c-0.727-4.537-1.634-8.893-2.359-13.431c-8.53-47.364-17.059-94.73-25.588-141.914
								c13.429-18.148,26.858-37.385,40.288-57.348c15.063-22.321,29.218-44.28,42.466-65.694
								c9.074,24.136,17.966,48.273,27.04,72.409c-9.799,8.893-19.78,18.511-30.125,28.855
								c-10.889,11.069-21.052,22.14-30.125,32.665c10.707,37.566,21.232,75.133,31.94,112.517
								c1.271,4.536,2.541,9.074,3.993,13.792c-0.544,0.727-1.271,1.452-1.997,2.178
								C148.489,677.109,141.593,683.098,131.612,686.909z"/>
							<path fill="#84030A" d="M74.446,533.924c8.892,51.903,17.785,103.806,26.677,155.708c-1.814-0.364-3.085-0.545-4.173-0.907
								C87.694,637.003,78.257,585.1,69.002,533.379c54.625-82.572,82.209-123.585,82.754-123.042
								C152.481,410.7,126.711,451.896,74.446,533.924z"/>
							<path fill="#84030A" d="M111.831,542.816c39.925-37.021,60.25-55.169,60.977-54.625c0.726,0.727-17.422,19.418-54.262,56.076
								c11.978,42.104,23.955,84.206,35.933,126.309c-0.544,0.727-1.271,1.452-1.997,2.178
								c-5.625-20.87-11.977-42.103-18.692-64.062C126.53,586.008,119.271,564.049,111.831,542.816z"/>
							<path fill="#F8AE38" d="M131.612,686.909c-12.522,4.718-23.955,3.992-30.489,2.723c-1.814-0.364-3.085-0.545-4.173-0.907
								c-0.727-4.537-1.634-8.893-2.359-13.431c6.352,0,14.336-0.726,23.048-2.902c14.88-3.812,25.951-10.345,33.028-15.244
								c1.271,4.536,2.541,9.074,3.993,13.791c-0.544,0.728-1.271,1.453-1.996,2.179
								C148.489,677.109,141.593,683.098,131.612,686.909z"/>
						</g>
					</g>
				</g>
			</g>
		</g>
	</g>
</g>
</svg>
