<svg width="0" height="0" class="hidden">
  <symbol version="1.1" id="balanced_activities_c" xmlns="http://www.w3.org/2000/svg" xmlns:xlink="http://www.w3.org/1999/xlink" x="0px" y="0px" enable-background="new 0 0 165 119" xml:space="preserve" viewBox="0 0 165 119">
    <g>
      <path fill="#FDF9E7" d="M41.742,108.47c0,0.585-3.22,0.975-7.221,0.975c-3.903,0-7.123-0.39-7.123-0.975
		c0-0.488,3.219-0.976,7.123-0.976C38.522,107.494,41.742,107.981,41.742,108.47z"></path>
      <path fill="#F05D48" d="M57.842,118.324c14.051,0,25.37-1.562,25.37-3.513s-11.319-3.514-25.37-3.514
		c-14.051,0-25.467,1.563-25.467,3.514s11.416,3.513,25.369,3.513H57.842z M123.704,117.153c16.686,0,30.249-1.95,30.249-4.195
		c0-2.343-13.563-4.196-30.249-4.196c-16.782,0-30.247,1.951-30.247,4.196C93.457,115.299,106.922,117.153,123.704,117.153z"></path>
      <path fill="#F05D48" d="M84.869,110.128c18.539,0,33.762-2.146,33.762-4.684c0-2.635-15.124-4.684-33.762-4.684
		c-18.733,0-33.857,2.049-33.857,4.684C51.012,107.981,66.136,110.128,84.869,110.128z M161.759,104.371
		c0,1.268-7.025,2.146-15.611,2.146c-8.685,0-15.612-0.976-15.612-2.146c0-1.172,6.928-2.146,15.612-2.146
		C154.733,102.225,161.759,103.199,161.759,104.371z M26.813,97.834C18.432,95.6,11.367,89.979,7.298,82.319
		c-4.176-7.377-5.367-16.071-3.317-24.297c2.292-8.216,8.801-14.586,17.075-16.684c9.952-2.146,20.002,3.415,27.516,10.147
		c3.122,2.732,6.049,5.855,9.659,7.903c3.708,2.244,8.197,3.221,12.001,1.562c4.587-1.952,6.928-6.928,9.173-11.416
		c5.259-11.144,12.802-21.057,22.149-29.078c9.465-7.805,21.468-12.88,33.664-12.782c7.609,0,15.61,2.245,20.881,7.807
		c6.83,6.83,8,17.758,5.952,27.321c-1.952,9.465-6.733,18.148-10.44,27.125c-4.335,8.762-5.923,18.617-4.587,28.297l-120.31-0.39
		H26.813z"></path>
      <path fill="#F05D48" d="M77.845,39.192c2.449-3.768,4.234-7.924,5.27-12.295c1.171-5.854,0.194-11.903-3.805-16.392
		C72.83,3.879,63.15,1.488,54.329,4.357c-3.366,1.248-5.913,4.049-6.83,7.513c-1.268,5.854,3.123,10.733,5.854,15.417
		c1.464,2.536,2.537,5.366,2.732,8.293c0,2.83-1.659,5.366-1.269,8.197c0.263,1.63,1.132,3.093,2.438,4.098
		c2.635,2.244,6.44,3.024,9.758,2.147c5.27-1.367,8.295-6.539,10.831-10.734V39.192z"></path>
      <path fill="#E7DFC2" d="M65.941,21.823H8.176c0,0-0.195,0-0.195,0.195v45.569l0.195,0.194h57.765c0.097,0,0.195,0,0.195-0.194
		V22.018C66.136,21.92,66.136,21.823,65.941,21.823z M48.377,44.655h-5.269v-5.268h5.367v5.268H48.377z M48.865,39.387h5.367v5.268
		h-5.367V39.387z M36.863,45.046v5.268h-5.367v-5.268H36.863z M31.497,44.655v-5.268h5.367v5.268H31.497z M37.352,45.046h5.269
		v5.268h-5.366v-5.268H37.352z M37.352,44.655v-5.268h5.269v5.268h-5.366H37.352z M43.108,38.898v-5.171h5.367v5.171h-5.464H43.108z
		 M42.62,38.898h-5.366v-5.171h5.366V38.898z M36.863,38.898h-5.367v-5.171h5.367V38.898z M31.009,38.898H25.74v-5.171h5.367v5.171
		H31.009z M31.009,39.387v5.268H25.74v-5.268h5.367H31.009z M25.447,44.655H20.08v-5.268h5.367V44.655z M19.593,44.655h-5.367
		v-5.268h5.367V44.655z M19.593,45.046v5.268h-5.367v-5.268H19.593z M20.08,45.046h5.367v5.268H20.08V45.046z M25.837,45.046h5.367
		v5.268h-5.367V45.046z M31.204,50.705v5.269h-5.367v-5.269H31.204z M31.595,50.705h5.366v5.269h-5.366V50.705z M37.449,50.705
		h5.269v5.269h-5.366v-5.269H37.449z M43.206,50.705h5.367v5.269h-5.562v-5.269H43.206z M43.206,50.314v-5.268h5.367v5.268h-5.562
		H43.206z M48.865,45.046h5.367v5.268h-5.367V45.046z M54.72,45.046h5.269v5.268H54.72V45.046z M54.72,44.655v-5.268h5.269v5.268
		H54.72z M54.72,38.898v-5.171h5.269v5.171H54.72z M54.232,38.898h-5.367v-5.171h5.367V38.898z M48.865,33.336v-5.171h5.367v5.171
		H48.865z M48.475,33.336h-5.464v-5.171h5.366v5.171H48.475z M42.62,33.336h-5.366v-5.171h5.366V33.336z M36.863,33.336h-5.367
		v-5.171h5.367V33.336z M31.009,33.336H25.74v-5.171h5.367v5.171H31.009z M25.447,33.336H20.08v-5.171h5.367V33.336z M25.447,33.824
		v5.171H20.08v-5.171H25.447z M19.593,38.996h-5.367v-5.171h5.367V38.996z M13.836,38.996H8.372v-5.171h5.367v5.171H13.836z
		 M13.836,39.483v5.27H8.372v-5.27h5.367H13.836z M13.836,45.143v5.269H8.372v-5.366h5.367L13.836,45.143z M13.836,50.802v5.269
		H8.372v-5.269h5.367H13.836z M14.227,50.802h5.367v5.269h-5.367V50.802z M20.08,50.802h5.367v5.269H20.08V50.802z M25.447,56.462
		v5.17H20.08v-5.269h5.367V56.462z M25.837,56.462h5.367v5.17h-5.367v-5.269V56.462z M31.692,56.462h5.269v5.17h-5.366v-5.269
		L31.692,56.462z M37.352,56.462h5.366v5.17h-5.366v-5.269V56.462z M43.206,56.462h5.367v5.17h-5.562v-5.269L43.206,56.462z
		 M48.963,56.462h5.366v5.17h-5.464v-5.269L48.963,56.462z M48.963,56.071v-5.269h5.366v5.269h-5.464H48.963z M54.817,50.802h5.269
		v5.269H54.72v-5.269H54.817z M60.477,50.802h5.366v5.269h-5.366V50.802z M60.477,50.412v-5.366h5.366v5.268h-5.366V50.412z
		 M60.477,44.753v-5.27h5.366v5.27H60.477z M60.477,38.996v-5.171h5.366v5.171H60.477z M60.477,33.336v-5.171h5.366v5.171H60.477z
		 M60.086,33.336H54.72v-5.171h5.366V33.336z M54.72,27.579v-5.367h5.366v5.367H54.72z M54.329,27.579h-5.464v-5.367h5.367v5.367
		H54.329z M48.475,27.579h-5.269v-5.367h5.367v5.367H48.475z M42.718,27.579h-5.366v-5.367h5.366V27.579z M36.961,27.579h-5.366
		v-5.367h5.366V27.579z M31.106,27.579h-5.269v-5.367h5.367v5.367H31.106z M25.447,27.579H20.08v-5.367h5.367V27.579z
		 M19.593,27.579h-5.367v-5.367h5.367V27.579z M19.593,28.068v5.171h-5.367v-5.171H19.593z M13.738,33.239H8.372v-5.171h5.367
		V33.239z M8.372,56.364h5.367v5.269H8.372V56.364z M14.227,56.364h5.269v5.269h-5.366v-5.269H14.227z M19.495,62.023v5.366h-5.366
		v-5.366h5.464H19.495z M19.982,62.023h5.367v5.366h-5.367V62.023z M25.74,62.023h5.367v5.366H25.74V62.023z M31.595,62.023h5.269
		v5.366h-5.367v-5.366H31.595z M37.254,62.023h5.366v5.366h-5.366V62.023z M43.108,62.023h5.367v5.366h-5.464v-5.366H43.108z
		 M48.865,62.023h5.367v5.366h-5.367V62.023z M54.72,62.023h5.269v5.366H54.72V62.023z M54.72,61.633v-5.269h5.269v5.269H54.72z
		 M60.379,56.364h5.367v5.269h-5.367V56.364z M65.746,27.482h-5.367v-5.367h5.367V27.482z M13.738,22.212v5.367H8.372v-5.367H13.738
		z M8.372,62.023h5.367v5.366H8.372V62.023z M60.379,67.39v-5.366h5.367v5.366H60.379z"></path>
      <path fill="#FEDEA6" d="M31.79,34.898c0,0,1.365,11.513,7.806,13.562l11.708-3.317c0,0-7.024-3.22-7.805-10.245H31.79z"></path>
      <path fill="#F7F4E3" d="M25.74,45.534c0,0-0.975,13.173-5.854,15.513l-9.075-3.805c0,0,5.367-3.708,5.855-11.708h8.977H25.74z
		 M55.988,25.629l-7.806,2.243l2.732,9.466l7.806-2.341L55.988,25.629z"></path>
      <path fill="#FDFDFD" d="M55.695,26.506l-6.831,1.951l1.757,6.05l6.634-1.951L55.5,26.604L55.695,26.506z"></path>
      <path fill="#D2CDB8" d="M33.741,54.12l-6.05-1.658l-1.952,7.22l6.05,1.659L33.741,54.12z"></path>
      <path fill="#E7DFC2" d="M33.058,54.51l-5.074-1.365l-1.268,4.683l5.074,1.367L33.058,54.51z"></path>
      <path fill="#CCC6AD" d="M128.486,50.51h-2.635c-0.39,0-0.78,0.292-0.78,0.78c0,0.391,0.391,0.78,0.78,0.78h2.635
		c0.391,0,0.78-0.39,0.78-0.78C129.267,50.802,128.877,50.51,128.486,50.51z"></path>
      <path fill="#CCC6AD" d="M153.758,72.073l-23.905-21.271c-1.171-0.976-2.927,0.683-1.659,1.756l23.71,21.271
		c1.173,0.976,2.928-0.683,1.757-1.756H153.758z M157.271,102.127h-2.243c-2.148-0.585-5.464-0.976-9.271-0.976
		c-3.709,0-7.025,0.391-9.172,0.976h-2.244v1.464c0,1.365,5.073,2.438,11.416,2.438s11.514-1.073,11.514-2.438
		C157.466,102.615,157.271,102.127,157.271,102.127z"></path>
      <path fill="#E7DFC2" d="M157.271,102.127c0,1.366-5.073,2.439-11.416,2.439c-6.44,0-11.514-1.073-11.514-2.439
		s5.171-2.536,11.514-2.536c0.849,0.008,1.688,0.038,2.537,0.098C153.466,99.979,157.271,100.955,157.271,102.127L157.271,102.127z"></path>
      <path fill="#E7DFC2" d="M148.392,99.688l-1.17,2.048v-2.048H148.392z"></path>
      <path fill="#E7DFC2" d="M152.002,72.562l-7.222,28.59c-0.292,1.464,1.953,2.146,2.343,0.683l7.22-28.589
		C154.733,71.684,152.392,71.098,152.002,72.562z"></path>
      <path fill="#E7DFC2" d="M154.246,71.489l-23.711-21.175c-1.17-0.976-2.928,0.684-1.757,1.66l23.81,21.368
		c1.072,0.976,2.927-0.682,1.658-1.757V71.489z M105.945,50.51c0,0,6.929-11.417,15.905-5.952
		c8.978,5.366,2.341,16.879,2.341,16.879L105.945,50.51z"></path>
      <path fill="#C1B894" d="M124.191,61.438c-0.583,0.781-3.707-0.097-7.609-2.146c-1.785-0.938-3.512-1.982-5.172-3.123
		c-3.609-2.537-5.952-4.879-5.465-5.659c0.488-0.781,3.221,0,6.831,1.756c2.313,1.122,4.538,2.42,6.636,3.903
		C122.632,58.511,124.583,60.657,124.191,61.438z"></path>
      <path fill="#FAC978" d="M119.412,56.267c-0.488,2.205-2.674,3.611-4.889,3.112c-1.912-0.419-3.259-2.137-3.21-4.088
		c0.01-1.18,0.546-2.292,1.463-3.024c2.313,1.122,4.538,2.42,6.636,3.903V56.267z"></path>
      <path fill="#E7DFC2" d="M129.169,49.143c-2.635,0-2.635,4.099,0,4.099S131.804,49.143,129.169,49.143z"></path>
      <path fill="#E7DFC2" d="M129.169,50.412c-1.074,0-1.074,1.658,0,1.658C130.145,52.07,130.145,50.412,129.169,50.412z
		 M152.977,70.221c-3.413,0-3.413,5.171,0,5.171C156.295,75.392,156.295,70.221,152.977,70.221z"></path>
      <path fill="#E7DFC2" d="M152.977,71.781c-1.364,0-1.364,2.048,0,2.048C154.343,73.829,154.343,71.781,152.977,71.781z"></path>
      <path fill="#536969" d="M41.742,96.565H27.399c0,0-0.391,8.586,3.903,11.708c0.39,0.196,0.78,0.391,1.269,0.391h4
		c0.488,0,0.976-0.194,1.269-0.391C42.132,105.151,41.742,96.565,41.742,96.565z"></path>
      <path fill="#405050" d="M41.742,96.565c0,0.292-2.342,0.487-5.464,0.586c-2.966-0.01-5.933-0.206-8.879-0.586
		c2.985-0.313,5.98-0.469,8.976-0.488C39.4,96.077,41.742,96.271,41.742,96.565z"></path>
      <path fill="#536969" d="M43.791,99.102c-0.78-0.976-1.951-1.072-3.122-0.976c-0.976,0-0.976,1.563,0,1.563
		c0.78,0,1.659,0,2.146,0.779c0.391,0.781,0.293,1.757,0,2.439c-0.976,1.854-3.122,2.343-4.878,2.049
		c-0.488,0-0.878,0.391-0.878,0.879s0.391,0.683,0.878,0.78c1.951,0.293,4.098-0.292,5.464-1.854
		C44.768,103.199,45.157,100.761,43.791,99.102z"></path>
      <path opacity="0.5" fill="#54C1BB" enable-background="new    " d="M38.62,91.687c-1.073,1.074-2.245,2.341-2.342,3.902v1.563
		c-1.044,0.019-2.079,0.019-3.123,0c-0.292-0.195-0.585-0.586-0.78-0.976l-0.488-1.172c-0.195-0.683-0.195-1.464,0-2.147
		c0.488-1.755,2.049-3.22,1.951-5.073c0-1.17-0.683-2.244-1.463-3.122s-1.757-1.658-2.342-2.733
		c-0.976-1.755-0.976-4.098,0.391-5.659c1.288-1.59,3.424-2.215,5.366-1.56c1.952,0.78,3.22,2.927,2.927,4.879
		c-0.292,1.268-1.073,2.634-0.585,3.902c0.293,0.586,0.976,1.073,1.366,1.562c0.781,0.781,1.269,1.757,1.366,2.731
		C40.864,89.344,39.693,90.612,38.62,91.687z"></path>
      <path fill="#54C1BB" d="M48.865,98.42c0,0-9.074-36.298-4.878-40.69c4.099-4.488,38.054-6.44,41.859-3.024
		c3.708,3.316,3.415,43.714,3.415,43.714H48.865z"></path>
      <path fill="#8DD1CD" d="M85.749,54.706l-0.487-0.391c-11.222-0.682-31.42,1.268-34.543,4.683
		c-3.61,3.905,3.123,32.981,4.684,39.422h33.761C89.164,98.42,89.457,58.022,85.749,54.706z"></path>
      <g>
        <g>
          <defs>
            <rect id="SVGID_1_" x="31.312" y="-7.333" width="76.675" height="105.752"></rect>
          </defs>
          <clipPath id="SVGID_2_">
            <use xlink:href="#SVGID_1_" overflow="visible"></use>
          </clipPath>
          <path clip-path="url(#SVGID_2_)" fill="#DDBB8F" d="M89.095,69.272c2.078,7.124,4.146,14.255,6.226,21.38
				c7.65,1.884,15.311,3.766,22.96,5.649l0,0l-1.142,4.644c-4.527-0.652-9.075-1.316-13.622-1.979
				c-5.152-0.762-10.294-1.522-15.416-2.293c-1.532-6.451-3.064-12.909-4.587-19.36C85.367,74.641,87.232,71.958,89.095,69.272z"></path>
        </g>
        <g>
          <defs>
            <rect id="SVGID_3_" x="31.312" y="-7.333" width="76.675" height="105.752"></rect>
          </defs>
          <clipPath id="SVGID_4_">
            <use xlink:href="#SVGID_3_" overflow="visible"></use>
          </clipPath>
          <g clip-path="url(#SVGID_4_)">
            <g>
              <g>
                <path fill="#FAD4AF" d="M77.054,55.126c-0.721,0.195-1.64,0.351-2.673,0.292c-3.563-0.185-5.894-2.655-6.538-3.376
							c0.098-1.016,0.167-2.099,0.176-3.26c0-0.165,0-0.331,0-0.497c0-0.43-0.01-0.839-0.029-1.249
							c-0.01-0.156-0.01-0.313-0.02-0.469c0.098,0.029,0.205,0.068,0.302,0.098c2.791,0.917,5.591,1.834,8.382,2.751
							c-0.078,0.771-0.126,1.688-0.059,2.722c0.01,0.244,0.029,0.479,0.059,0.713C76.742,53.7,76.889,54.471,77.054,55.126z"></path>
                <path fill="#F9C295" d="M76.654,52.832c-1.112-0.37-2.322-0.838-3.601-1.463c-2.029-0.985-3.698-2.078-5.034-3.093
							c0-0.428-0.01-0.839-0.029-1.248c0.087-0.127,0.185-0.254,0.282-0.372c2.791,0.917,5.591,1.835,8.382,2.751
							c-0.078,0.771-0.126,1.688-0.059,2.723C76.605,52.364,76.625,52.607,76.654,52.832z"></path>
                <path fill="#FAD4AF" d="M87.163,29.746c0.224,2.215,0.263,5.123-0.4,8.43c-1.171,5.787-3.952,10.022-6.078,12.597
							c-0.859,1.044-2.226,1.533-3.562,1.288c-1.912-0.341-4.43-1.103-6.967-2.781c-5.269-3.483-7.084-8.605-7.581-10.197
							c0.156-0.984,1.268-7.279,7.269-11.151c5.961-3.855,12.119-2.323,13.085-2.06L87.163,29.746z"></path>
                <g>
                  <path fill="#353535" d="M87.31,32.429c-0.313,0.088-0.722-3.025-3.063-3.961c-1.278-0.518-2.225-0.792-3.874-0.967
								c-1.786-0.186-4.42-0.507-7.747-1.063c0.292,1.258,0.332,2.302,0.312,3.025c-0.03,1.004-0.049,1.551-0.439,2.02
								c-0.556,0.672-1.298,0.36-2.391,0.81c-1.746,0.712-2.498,2.693-2.664,3.142c-0.702,1.854,0.059,2.732-0.742,4.4
								c-0.488,1.015-1.239,1.668-1.767,2.041c1.044,2.029,2.099,4.283,1.718,4.536c-0.469,0.312-3.289-2.381-5.045-5.533
								c-2.352-4.205-4.752-13.045,0.683-19.231c1.561-1.786,3.571-3.103,5.757-3.943c0.009,0,0.02,0,0.029-0.009
								c0.02-0.01,0.039-0.019,0.058-0.019c3.298-0.82,9.65-1.455,15.114,4.292c0.303,0.313,0.996,0.4,1.609,0.859
								c0.781,0.585,1.328,1.297,1.729,2.048l0,0C87.982,28.644,87.631,32.331,87.31,32.429z"></path>
                </g>
                <g>
                  <g>
                    <path d="M72.81,36.488c0.897-1.259,3.181-1.59,4.108-0.166l-0.029,0.029c-0.693-0.272-1.328-0.526-2.06-0.604
									C74.04,35.698,73.416,36.107,72.81,36.488L72.81,36.488z"></path>
                  </g>
                  <path d="M74.313,37.376c-0.409,0.088-0.858,0.156-1.336,0.215c-0.38,0.039-0.732,0.058-1.064,0.069
								c0.185,0.097,0.391,0.204,0.625,0.301c0.224,0.098,0.439,0.176,0.644,0.234"></path>
                  <path d="M85.162,37.562c0.196,0.087,0.449,0.175,0.752,0.225c0.195,0.028,0.37,0.039,0.527,0.028
								c-0.194,0.156-0.392,0.313-0.586,0.459"></path>
                  <g>
                    <path d="M73.171,38.186c0.77-1.298,2.849-1.093,3.639,0.097C75.59,37.679,74.401,37.454,73.171,38.186L73.171,38.186z"></path>
                  </g>
                  <path d="M76.099,37.894c-0.079,0.351-0.439,0.576-0.79,0.487c-0.353-0.077-0.576-0.438-0.488-0.79
								C74.908,37.239,76.176,37.542,76.099,37.894z"></path>
                </g>
                <g>
                  <g>
                    <path d="M85.943,36.282c-1.074-0.945-2.332-0.663-3.367,0.156l-0.029-0.027C83.025,34.878,85.309,35.161,85.943,36.282
									L85.943,36.282z"></path>
                  </g>
                  <g>
                    <path d="M82.46,38.313c0.595-1.415,2.732-1.336,3.405-0.029C84.733,37.504,83.533,37.406,82.46,38.313L82.46,38.313z"></path>
                  </g>
                  <path d="M84.793,37.815c-0.021,0.361-0.283,0.635-0.596,0.596c-0.313-0.03-0.557-0.351-0.536-0.711
								C83.67,37.347,84.813,37.454,84.793,37.815z"></path>
                </g>
                <g>
                  <path fill="#E09D6C" d="M80.216,43.758c-0.479,0.332-0.995,0.351-1.493,0.068C79.201,43.484,79.719,43.465,80.216,43.758
								L80.216,43.758z"></path>
                </g>
                <path fill="#CE0D28" d="M76.723,46.567c0.205,0.284,0.508,0.586,0.946,0.8c1.005,0.487,2.303,0.244,3.376-0.576
							c-0.664,0.166-1.669,0.322-2.859,0.147C77.621,46.851,77.123,46.714,76.723,46.567z"></path>
                <path fill="#353535" d="M87.709,35.327c-1.259-0.536-2.722-1.053-4.371-1.463c-3.229-0.81-6.107-0.936-8.323-0.858
							c0.021-0.85-0.067-2.253-0.711-3.826c-0.508-1.248-1.181-2.166-1.678-2.741c1.805-1.123,2.965-2.947,2.781-4.646
							c-0.264-2.508-3.455-4.897-7.318-4.098c0.01-0.01,0.039-0.01,0.058-0.019c3.914-1.455,8.929-0.8,12.616,1.892
							c0.673,0.488,1.581,1.26,2.498,2.4c0.419,0.167,0.996,0.438,1.609,0.859c0,0,1.864,1.268,2.987,3.503
							C89.809,30.214,87.886,34.907,87.709,35.327z"></path>
                <path fill="#353535" d="M66.838,19.364c-0.244-0.791-0.673-1.884-1.435-3.044c-0.498-0.762-2.625-4.031-6.186-4.85
							c0,0-3.113-0.722-6.899,1.376c-5.834,3.22-8.03,16.022-6.079,31.965c1.132,0.616,2.986,1.425,5.396,1.61
							c4.479,0.341,7.796-1.707,8.89-2.469c-1.454-3.22-2.499-5.981-3.211-8.011c-2.479-7.083-2.908-10.918-1.854-14.255
							c0.372-1.162,0.829-1.981,1.591-2.253c1.356-0.488,3.346,0.848,5.151,3.375C63.755,21.657,65.297,20.516,66.838,19.364z"></path>
                <path fill="#FAD4AF" d="M66.331,36.225c-0.068-0.195-0.488-1.493-1.591-1.795c-0.605-0.167-1.405-0.039-1.903,0.439
							c-1.277,1.239,0.099,4.303,0.801,5.522c0.458,0.8,1.171,1.991,2.361,2.147c0.156,0.019,0.878,0.118,1.269-0.312
							c0.537-0.576,0.176-1.776-0.224-3.094c-0.186-0.625-0.342-0.926-0.498-1.697C66.379,36.664,66.458,36.625,66.331,36.225z"></path>
                <circle fill="#353535" cx="63.863" cy="20.554" r="6.43"></circle>
              </g>
            </g>
            <g>
              <path fill="#757575" d="M92.402,73.781c-0.244,0.635-1.151,2.762-3.513,4.156c-2.342,1.387-4.604,1.17-5.278,1.084
						c-0.078-0.254-0.165-0.518-0.254-0.771c-0.009-0.039-0.02-0.077-0.039-0.107c-1.415-4.38-2.829-8.761-4.254-13.143
						c1.122-1.055,2.255-2.138,3.396-3.259c1.112-1.093,2.195-2.187,3.239-3.259c1.307,2.799,2.313,5.074,3.026,6.713
						c0.974,2.243,2.585,6.04,2.867,6.713c0.117,0.283,0.244,0.565,0.36,0.849C92.11,73.089,92.256,73.43,92.402,73.781z"></path>
              <g>
                <path fill="#474747" d="M91.953,72.736c-0.691,1.376-1.99,3.25-4.283,4.432c-1.326,0.683-2.771,1.052-4.313,1.073
							c-0.009,0-0.02,0-0.038,0v-0.117l-0.011-0.576c1.444-0.02,2.801-0.361,4.04-1.005c2.439-1.27,3.688-3.386,4.244-4.674
							C91.72,72.172,91.837,72.454,91.953,72.736z"></path>
              </g>
            </g>
            <g>
              <path fill="#919191" d="M114.65,140.113c-0.382,1.316-0.693,2.467-1.385,4.849c-0.469,1.61-0.938,3.201-1.406,4.791
						c-2.965-1.025-6.128-2.01-9.474-2.917c-6.382-1.728-12.374-2.869-17.827-3.631c0.224-1.044,0.409-2.068,0.545-3.072
						c0.167-1.172,0.245-2.117,0.304-2.919c0.185-2.596,0.353-6.79,0.438-9.269c0.039-1.229-0.575-2.399-1.619-3.044
						c-5.601-3.483-11.202-6.967-16.803-10.45l-1.063-0.605c-2.645-1.503-5.269-3.033-7.816-4.567l-0.898,1.484
						c2.547,1.532,5.19,3.072,7.856,4.585c5.747,3.689,11.494,7.387,17.231,11.075c0.624,0.4,1.024,1.082,1.073,1.825
						c0.165,2.625,0.176,5.601-0.128,8.86c-0.203,2.263-0.535,4.351-0.916,6.234c-0.8,0.155-1.6,0.312-2.41,0.468
						c-0.409-3.913-0.81-7.826-1.22-11.737c-0.126-1.211-0.849-2.282-1.932-2.851c-2.762-1.434-6.479-3.278-10.938-5.229
						c-9.475-4.156-10.197-3.631-11.807-5.475c-3.405-3.884-1.512-8.069-0.312-27.184c0.614-9.778,0.176-10.158,0.936-18.237
						c0.684-7.249,1.64-13.35,2.479-17.915c3.435-1.054,6.86-2.098,10.294-3.152c-0.02-0.058-0.03-0.106-0.04-0.155
						c-0.059-0.264-0.088-0.488-0.078-0.683c0-0.294,0.078-0.508,0.225-0.625c0.683-0.546,2.879,0.771,6.596,3.952
						c0.907-0.937,1.814-1.288,2.186-1.005c0.205,0.156,0.225,0.488,0.215,0.742c-0.01,0.117-0.02,0.224-0.03,0.273
						c0.206,0.078,0.41,0.156,0.625,0.234c1.229,0.469,2.507,0.986,3.825,1.571c1.434,0.635,2.791,1.279,4.06,1.923
						c0.272,0.137,0.448,0.409,0.478,0.713c0.712,7.404,1.143,11.064,1.143,11.064s0.488,4.811,0.193,7.288
						c-0.292,2.479-2.634,5.991-3.648,8.353c-1.005,2.36-0.508,9.504-0.508,9.504l-0.36-0.039c0.634,2.156,4.927,8.859,7.144,10.421
						c0.009,0,0.009,0,0.009,0c0.252,0.186,0.819,0.585,1.532,1.074c5.854,3.999,18.186,11.415,23.691,14.558
						c0.321,0.185,1.151,0.653,1.785,1.6c0.917,1.356,0.887,2.889,0.849,3.679C117.559,130.492,116.23,134.581,114.65,140.113z"></path>
              <g>
                <circle fill="#474747" cx="66.79" cy="63.594" r="0.595"></circle>
              </g>
              <g>
                <g>
                  <path fill="#474747" d="M74.673,55.691l-0.448,0.528c-0.107-0.088-0.215-0.178-0.313-0.265
								c-1.347-1.142-2.576-2.127-3.571-2.936l-0.176-0.147c-0.517-0.419-1.288-1.044-2.292-1.004c-0.02,0-0.05,0-0.068,0
								c-0.059-0.264-0.088-0.488-0.079-0.684c0.04-0.01,0.079-0.01,0.117-0.01c1.259-0.049,2.195,0.703,2.751,1.151l0.176,0.146
								c1.024,0.829,2.283,1.844,3.688,3.036C74.538,55.574,74.605,55.633,74.673,55.691z"></path>
                </g>
              </g>
              <g>
                <g>
                  <path fill="#474747" d="M77.552,54.813c-0.186,0.04-0.38,0.088-0.566,0.137c-1.103,0.332-1.884,0.908-2.576,1.483
								c-1.004,0.83-2,1.884-2.976,3.132c-0.81,1.034-1.454,1.854-2.048,3.104c-0.488,1.014-0.84,2.088-1.055,3.2l-0.673-0.138
								c0.225-1.169,0.596-2.303,1.113-3.365c0.634-1.318,1.288-2.166,2.127-3.239c0.986-1.259,2-2.332,3.025-3.191
								c0.019-0.02,0.038-0.029,0.059-0.049c0.156-0.126,0.322-0.263,0.497-0.39c0.635-0.478,1.366-0.927,2.332-1.219
								c0.048-0.02,0.107-0.03,0.156-0.039c-0.01,0.116-0.02,0.225-0.029,0.272c0.205,0.079,0.41,0.156,0.624,0.234L77.552,54.813z"></path>
                </g>
              </g>
              <g>
                <rect x="71.782" y="56.823" transform="matrix(-0.6256 0.7802 -0.7802 -0.6256 162.6391 39.0338)" fill="#474747" width="0.341" height="3.445"></rect>
              </g>
              <g>
                <rect x="69.669" y="59.423" transform="matrix(-0.5815 0.8135 -0.8135 -0.5815 160.1168 39.7295)" fill="#474747" width="0.341" height="3.249"></rect>
              </g>
              <g>
                <rect x="68.33" y="62.545" transform="matrix(-0.2808 0.9598 -0.9598 -0.2808 149.3119 16.429)" fill="#474747" width="0.341" height="3.23"></rect>
              </g>
              <g>
                <circle fill="#474747" cx="70.614" cy="57.389" r="0.595"></circle>
              </g>
              <g>
                <circle fill="#474747" cx="73.308" cy="59.613" r="0.596"></circle>
              </g>
              <g>
                <circle fill="#474747" cx="68.507" cy="59.935" r="0.595"></circle>
              </g>
              <g>
                <circle fill="#474747" cx="71.17" cy="61.994" r="0.596"></circle>
              </g>
              <g>
                <circle fill="#474747" cx="69.951" cy="64.609" r="0.596"></circle>
              </g>
            </g>
            <g>
              <path fill="#757575" d="M64.721,74.709c0.01,0.37,0.01,0.672,0.019,0.877c-0.009,0-0.009,0-0.019,0
						c-0.02,0-0.03,0.011-0.059,0.021c-1.385,0.321-3.045,0.575-4.918,0.604h-0.38c-0.136-0.01-0.273-0.01-0.42-0.01
						c-1.629-0.04-3.103-0.253-4.371-0.527c-0.468-0.107-0.917-0.225-1.327-0.341c-0.01-0.195-0.02-0.38-0.029-0.566
						c-0.019-0.38-0.039-0.761-0.048-1.151c-0.01-0.215-0.02-0.43-0.03-0.654c-0.156-4.205-0.078-8.537,0.527-11.825
						c0.634-3.415,1.795-5.114,3.112-5.738c0.625-0.302,1.386-0.321,2.205-0.154c2.899,0.604,6.45,3.668,6.684,5.707
						c0.41,3.375-0.79,4.957-0.937,12.129c0,0.301-0.01,0.624-0.01,0.946V74.709z"></path>
            </g>
            <g>
              <path fill="#474747" d="M64.731,73.166c0,0.128,0,0.255,0,0.382c0,0.155,0,0.321-0.01,0.478
						c-1.269,0.448-3.415,1.023-6.099,0.879c-2.391-0.127-4.273-0.781-5.454-1.289c-0.01-0.215-0.02-0.43-0.03-0.654
						c1.122,0.508,3.016,1.2,5.464,1.299C61.374,74.366,63.54,73.654,64.731,73.166z"></path>
            </g>
          </g>
        </g>
      </g>
      <path fill="#536969" d="M111.41,91.297c-0.976,0.976-1.562,2.146-1.951,3.414c-0.293,1.27-0.293,2.537-0.293,3.903l-0.293,0.293
		h-0.879l-0.291,0.293l-0.586-0.099c-0.293-0.194-0.78-0.097-1.172-0.194c-0.39,0-0.877-0.098-0.975-0.391
		c-0.292-0.293-0.292-0.586-0.292-0.781c-0.099-1.365-0.196-2.635,0.39-3.902l1.365-1.951l0.488-1.171
		c0.195-0.293,0.586-0.586,0.976-0.489c0.391,0,0.585,0.391,0.976,0.489l0.976-0.099C110.444,90.594,111.021,90.838,111.41,91.297z"></path>
      <path fill="#FDBCA0" d="M55.13,75.792c0.068,7.913,0.136,15.827,0.205,23.739c8.157,2.265,16.305,4.528,24.462,6.792
		c0.4-1.785,0.81-3.572,1.21-5.348c-2.967-0.859-6.187-1.932-9.583-3.299c-3.063-1.229-5.854-2.518-8.381-3.806
		c0.146-6.01,0.292-12.011,0.439-18.021c-1.24,0.226-2.771,0.391-4.538,0.352C57.49,76.172,56.212,75.997,55.13,75.792z"></path>
      <path fill="#FDBCA0" d="M79.797,106.323c3.482,1.601,7.151,2.751,10.928,3.415c0.488-0.879-4.487-2.538-4.487-2.538
		s6.926,1.464,7.122,0.683c0.194-0.683-6.537-2.438-6.537-2.438s8.001,1.464,8.098,0.585c0-0.779-7.025-2.342-7.025-2.342
		s6.732,0.392,6.732-0.294c0-0.975-13.757-2.438-13.757-2.438L79.797,106.323L79.797,106.323z"></path>
      <path fill="#FDBCA0" d="M81.846,101.151c0,0,5.365-1.951,5.854-1.561c0.586,0.389-2.341,2.536-2.341,2.536L81.846,101.151z"></path>
      <path fill="#E7DFC2" d="M66.136,95.395H38.62c-0.292,0-0.488,0.292-0.391,0.586l4.782,17.563c0,0.195,0.391,0.487,0.683,0.487
		h27.516c0.293,0,0.488-0.292,0.39-0.585l-4.78-17.563C66.819,95.687,66.429,95.395,66.136,95.395z"></path>
      <path fill="#F7F4E3" d="M69.551,113.738l-4.098-14.831c0-0.293-0.293-0.487-0.585-0.487H41.449c-0.195,0-0.292,0.194-0.292,0.487
		l4.098,14.831v0.195h24.394L69.551,113.738z"></path>
      <path fill="#405050" d="M40.571,96.76c0,0.293-0.292,0.586-0.585,0.586c-0.351-0.137-0.517-0.537-0.381-0.889
		c0.069-0.175,0.205-0.312,0.381-0.38C40.279,96.077,40.571,96.37,40.571,96.76z"></path>
      <path fill="#576E6E" d="M40.279,96.76l-0.293,0.293c-0.185,0-0.342-0.156-0.342-0.342s0.157-0.341,0.342-0.341
		C40.083,96.37,40.279,96.565,40.279,96.76z"></path>
      <path fill="#EBB254" d="M64.477,98.711H41.059c-0.292,0-0.487,0.196-0.39,0.391l4.099,14.832l0.097,0.488h24.296l-0.098-0.488
		l-4.098-14.832c0-0.194-0.293-0.487-0.585-0.487L64.477,98.711z"></path>
      <path fill="#FEDEA6" d="M69.063,113.934l-2.634-9.563H42.035l2.634,9.563l0.099,0.488h24.295l-0.098-0.488H69.063z"></path>
      <path fill="#EBB254" d="M64.477,116.763H40.083l4.879-2.341h24.199L64.477,116.763z"></path>
      <path fill="#FEDEA6" d="M95.408,70.415l49.472-8.293c0.779-0.196,1.56,0.487,1.56,1.269l-0.292,31.613
		c0,0.585-0.391,1.172-0.976,1.268l-48.301,10.052c-1.17,0.292-2.633-0.488-2.633-2.244V71.684c0-0.682,0.487-1.269,1.17-1.366
		V70.415z"></path>
      <path fill="#FAC978" d="M97.652,70.221l47.228-7.807c0.779-0.195,1.56,0.489,1.56,1.268l-0.194,31.322
		c0,0.683-0.488,1.172-1.073,1.366l-47.031,9.757c-0.877,0-1.658-0.585-1.658-1.365V71.585
		C96.482,70.902,96.97,70.317,97.652,70.221z"></path>
      <path fill="#EBB254" d="M119.022,86.71l-2.831,15.612L131.12,99.2L119.022,86.71z M118.339,115.299l-6.538-2.244
		c-0.977-0.391-0.977-1.952,0.097-2.146l11.126-2.83h0.585l6.438,1.953c0.977,0.292,0.977,1.853,0,2.146l-11.024,3.121H118.339z"></path>
      <path fill="#FEDEA6" d="M128.095,85.147c-0.077-0.534-0.574-0.896-1.111-0.818c-0.048,0.01-0.107,0.02-0.155,0.04l-6.929,1.268
		c-0.536,0-0.976,0.44-0.976,0.975l-0.196,28.786l14.93-4.295L128.095,85.147z M126.34,107.494c-2.05,0.195-4.002-2.05-4.392-5.075
		c-0.292-3.023,1.171-5.659,3.318-5.854c2.049-0.294,4,1.951,4.293,5.074C129.853,104.566,128.486,107.299,126.34,107.494z"></path>
      <path fill="#F5E2D5" d="M124.191,33.728c-7.141,0-12.927-5.787-12.927-12.929c0-7.143,5.786-12.93,12.927-12.93
		c7.144,0,12.93,5.787,12.93,12.93C137.121,27.94,131.335,33.728,124.191,33.728L124.191,33.728z M124.191,11.48
		c-5.122,0-9.269,4.146-9.269,9.269c0,5.123,4.146,9.27,9.269,9.27c5.123,0,9.271-4.147,9.271-9.27
		C133.462,15.626,129.314,11.48,124.191,11.48z"></path>
      <path fill="#F5E2D5" d="M119.412,24.067l-0.587-1.074l4.879-2.634l1.952-7.807l1.27,0.391l-2.246,8.293L119.412,24.067z"></path>
    </g>
  </symbol>
  <symbol version="1.1" id="relationships_c" xmlns="http://www.w3.org/2000/svg" xmlns:xlink="http://www.w3.org/1999/xlink" x="0px" y="0px" enable-background="new 0 0 258 208" xml:space="preserve" viewBox="0 0 258 208">
    <g>
      <path fill="#FFFFFF" d="M109.358,11.928c-15.08,0.694-29.266,7.639-39.087,19.146c-0.198-0.099-0.297-0.099-0.496-0.198
		c-0.297-0.1-0.694-0.199-0.993-0.298h-0.595c-3.076,0-5.556,3.075-5.556,6.944c0,0.298,0,0.694,0,0.992v0.297l0.1,0.397v0.099
		c0.099,0.298,0.198,0.496,0.297,0.793c0,0.298,0.099,0.496,0.199,0.793l-8.532-4.464c-13.889,4.266-25.694,13.393-33.234,25.793
		c-7.837,13.492-10.119,29.464-6.349,44.643c-1.687,1.982-3.174,4.166-4.464,6.447c-3.67,6.943-6.15,14.386-7.44,22.123
		c-1.29,6.35-1.587,10.912-1.587,10.912c0,1.488,0,2.877,0,4.365v3.77c0.199,1.785,0.397,3.572,0.694,5.356v0.694l0.199,0.794
		l0.099,0.595v0.1l0.298,1.19c0.099,0.597,0.297,1.29,0.396,1.886l0.199,0.991l0.496,1.786v0.297
		c1.588,5.655,3.77,11.111,6.647,16.171c63.491,28.868,136.308,28.868,199.798,0l0.199-0.694l0.297-0.893l0.298-0.693l0.099-0.498
		l0.299-0.99l0.297-0.992c0.397-1.29,0.694-2.68,0.994-3.968v-0.497l0.197-0.991l0.197-1.092c3.175-15.873,7.54-25,7.54-48.61
		c0.794-15.574-12.4-45.138-12.4-45.138c-1.39-2.778-3.075-5.456-4.86-7.937l-0.597-0.793c-1.188-1.885-2.479-3.77-3.968-5.457
		c-1.488-1.885-3.075-3.77-4.762-5.555c-6.646-5.853-13.395-11.607-20.237-17.262c-13.294-11.111-23.711-30.654-56.845-30.654
		L109.358,11.928z"></path>
      <path fill="#FFFFFF" d="M109.358,11.928c-15.08,0.694-29.266,7.639-39.087,19.146c-0.198-0.099-0.297-0.099-0.496-0.198
		c-0.297-0.1-0.694-0.199-0.993-0.298h-0.595c-3.076,0-5.556,3.075-5.556,6.944c0,0.298,0,0.694,0,0.992v0.297l0.1,0.397v0.099
		c0.099,0.298,0.198,0.496,0.297,0.793c0,0.298,0.099,0.496,0.199,0.793l-8.532-4.464c-13.889,4.266-25.694,13.393-33.234,25.793
		c-7.837,13.492-10.119,29.464-6.349,44.643c-1.687,1.982-3.174,4.166-4.464,6.447c-3.67,6.943-6.15,14.386-7.44,22.123
		c-1.29,6.35-1.587,10.912-1.587,10.912c0,1.488,0,2.877,0,4.365v3.77c0.199,1.785,0.397,3.572,0.694,5.356v0.694l0.199,0.794
		l0.099,0.595v0.1l0.298,1.19c0.099,0.597,0.297,1.29,0.396,1.886l0.199,0.991l0.496,1.786v0.297
		c1.588,5.655,3.77,11.111,6.647,16.171c63.491,28.868,136.308,28.868,199.798,0l0.199-0.694l0.297-0.893l0.298-0.693l0.099-0.498
		l0.299-0.99l0.297-0.992c0.397-1.29,0.694-2.68,0.994-3.968v-0.497l0.197-0.991l0.197-1.092c3.175-15.873,7.54-25,7.54-48.61
		c0.794-15.574-12.4-45.138-12.4-45.138c-1.39-2.778-3.075-5.456-4.86-7.937l-0.597-0.793c-1.188-1.885-2.479-3.77-3.968-5.457
		c-1.488-1.885-3.075-3.77-4.762-5.555c-6.646-5.853-13.395-11.607-20.237-17.262c-13.294-11.111-23.711-30.654-56.845-30.654
		L109.358,11.928z"></path>
      <path fill="#FFFFFF" d="M109.358,11.928c-15.08,0.694-29.266,7.639-39.087,19.146c-0.198-0.099-0.297-0.099-0.496-0.198
		c-0.297-0.1-0.694-0.199-0.993-0.298h-0.595c-3.076,0-5.556,3.075-5.556,6.944c0,0.298,0,0.694,0,0.992v0.297l0.1,0.397v0.099
		c0.099,0.298,0.198,0.496,0.297,0.793c0,0.298,0.099,0.496,0.199,0.793l-8.532-4.464c-13.889,4.266-25.694,13.393-33.234,25.793
		c-7.837,13.492-10.119,29.464-6.349,44.643c-1.687,1.982-3.174,4.166-4.464,6.447c-3.67,6.943-6.15,14.386-7.44,22.123
		c-1.29,6.35-1.587,10.912-1.587,10.912c0,1.488,0,2.877,0,4.365v3.77c0.199,1.785,0.397,3.572,0.694,5.356v0.694l0.199,0.794
		l0.099,0.595v0.1l0.298,1.19c0.099,0.597,0.297,1.29,0.396,1.886l0.199,0.991l0.496,1.786v0.297
		c1.588,5.655,3.77,11.111,6.647,16.171c63.491,28.868,136.308,28.868,199.798,0l0.199-0.694l0.297-0.893l0.298-0.693l0.099-0.498
		l0.299-0.99l0.297-0.992c0.397-1.29,0.694-2.68,0.994-3.968v-0.497l0.197-0.991l0.197-1.092c3.175-15.873,7.54-25,7.54-48.61
		c0.794-15.574-12.4-45.138-12.4-45.138c-1.39-2.778-3.075-5.456-4.86-7.937l-0.597-0.793c-1.188-1.885-2.479-3.77-3.968-5.457
		c-1.488-1.885-3.075-3.77-4.762-5.555c-6.646-5.853-13.395-11.607-20.237-17.262c-13.294-11.111-23.711-30.654-56.845-30.654
		L109.358,11.928z"></path>
      <path fill="#FFFFFF" d="M109.358,11.928c-15.08,0.694-29.266,7.639-39.087,19.146c-0.198-0.099-0.297-0.099-0.496-0.198
		c-0.297-0.1-0.694-0.199-0.993-0.298h-0.595c-3.076,0-5.556,3.075-5.556,6.944c0,0.298,0,0.694,0,0.992v0.297l0.1,0.397v0.099
		c0.099,0.298,0.198,0.496,0.297,0.793c0,0.298,0.099,0.496,0.199,0.793l-8.532-4.464c-13.889,4.266-25.694,13.393-33.234,25.793
		c-7.837,13.492-10.119,29.464-6.349,44.643c-1.687,1.982-3.174,4.166-4.464,6.447c-3.67,6.943-6.15,14.386-7.44,22.123
		c-1.29,6.35-1.587,10.912-1.587,10.912c0,1.488,0,2.877,0,4.365v3.77c0.199,1.785,0.397,3.572,0.694,5.356v0.694l0.199,0.794
		l0.099,0.595v0.1l0.298,1.19c0.099,0.597,0.297,1.29,0.396,1.886l0.199,0.991l0.496,1.786v0.297
		c1.588,5.655,3.77,11.111,6.647,16.171c63.491,28.868,136.308,28.868,199.798,0l0.199-0.694l0.297-0.893l0.298-0.693l0.099-0.498
		l0.299-0.99l0.297-0.992c0.397-1.29,0.694-2.68,0.994-3.968v-0.497l0.197-0.991l0.197-1.092c3.175-15.873,7.54-25,7.54-48.61
		c0.794-15.574-12.4-45.138-12.4-45.138c-1.39-2.778-3.075-5.456-4.86-7.937l-0.597-0.793c-1.188-1.885-2.479-3.77-3.968-5.457
		c-1.488-1.885-3.075-3.77-4.762-5.555c-6.646-5.853-13.395-11.607-20.237-17.262c-13.294-11.111-23.711-30.654-56.845-30.654
		L109.358,11.928z"></path>
      <path fill="#FFFFFF" d="M109.358,11.928c-15.08,0.694-29.266,7.639-39.087,19.146c-0.198-0.099-0.297-0.099-0.496-0.198
		c-0.297-0.1-0.694-0.199-0.993-0.298h-0.595c-3.076,0-5.556,3.075-5.556,6.944c0,0.298,0,0.694,0,0.992v0.297l0.1,0.397v0.099
		c0.099,0.298,0.198,0.496,0.297,0.793c0,0.298,0.099,0.496,0.199,0.793l-8.532-4.464c-13.889,4.266-25.694,13.393-33.234,25.793
		c-7.837,13.492-10.119,29.464-6.349,44.643c-1.687,1.982-3.174,4.166-4.464,6.447c-3.67,6.943-6.15,14.386-7.44,22.123
		c-1.29,6.35-1.587,10.912-1.587,10.912c0,1.488,0,2.877,0,4.365v3.77c0.199,1.785,0.397,3.572,0.694,5.356v0.694l0.199,0.794
		l0.099,0.595v0.1l0.298,1.19c0.099,0.597,0.297,1.29,0.396,1.886l0.199,0.991l0.496,1.786v0.297
		c1.588,5.655,3.77,11.111,6.647,16.171c63.491,28.868,136.308,28.868,199.798,0l0.199-0.694l0.297-0.893l0.298-0.693l0.099-0.498
		l0.299-0.99l0.297-0.992c0.397-1.29,0.694-2.68,0.994-3.968v-0.497l0.197-0.991l0.197-1.092c3.175-15.873,7.54-25,7.54-48.61
		c0.794-15.574-12.4-45.138-12.4-45.138c-1.39-2.778-3.075-5.456-4.86-7.937l-0.597-0.793c-1.188-1.885-2.479-3.77-3.968-5.457
		c-1.488-1.885-3.075-3.77-4.762-5.555c-6.646-5.853-13.395-11.607-20.237-17.262c-13.294-11.111-23.711-30.654-56.845-30.654
		L109.358,11.928z"></path>
      <path fill="#FFFFFF" d="M109.358,11.928c-15.08,0.694-29.266,7.639-39.087,19.146c-0.198-0.099-0.297-0.099-0.496-0.198
		c-0.297-0.1-0.694-0.199-0.993-0.298h-0.595c-3.076,0-5.556,3.075-5.556,6.944c0,0.298,0,0.694,0,0.992v0.297l0.1,0.397v0.099
		c0.099,0.298,0.198,0.496,0.297,0.793c0,0.298,0.099,0.496,0.199,0.793l-8.532-4.464c-13.889,4.266-25.694,13.393-33.234,25.793
		c-7.837,13.492-10.119,29.464-6.349,44.643c-1.687,1.982-3.174,4.166-4.464,6.447c-3.67,6.943-6.15,14.386-7.44,22.123
		c-1.29,6.35-1.587,10.912-1.587,10.912c0,1.488,0,2.877,0,4.365v3.77c0.199,1.785,0.397,3.572,0.694,5.356v0.694l0.199,0.794
		l0.099,0.595v0.1l0.298,1.19c0.099,0.597,0.297,1.29,0.396,1.886l0.199,0.991l0.496,1.786v0.297
		c1.588,5.655,3.77,11.111,6.647,16.171c63.491,28.868,136.308,28.868,199.798,0l0.199-0.694l0.297-0.893l0.298-0.693l0.099-0.498
		l0.299-0.99l0.297-0.992c0.397-1.29,0.694-2.68,0.994-3.968v-0.497l0.197-0.991l0.197-1.092c3.175-15.873,7.54-25,7.54-48.61
		c0.794-15.574-12.4-45.138-12.4-45.138c-1.39-2.778-3.075-5.456-4.86-7.937l-0.597-0.793c-1.188-1.885-2.479-3.77-3.968-5.457
		c-1.488-1.885-3.075-3.77-4.762-5.555c-6.646-5.853-13.395-11.607-20.237-17.262c-13.294-11.111-23.711-30.654-56.845-30.654
		L109.358,11.928z"></path>
      <path fill="#FFFFFF" d="M109.358,11.928c-15.08,0.694-29.266,7.639-39.087,19.146c-0.198-0.099-0.297-0.099-0.496-0.198
		c-0.297-0.1-0.694-0.199-0.993-0.298h-0.595c-3.076,0-5.556,3.075-5.556,6.944c0,0.298,0,0.694,0,0.992v0.297l0.1,0.397v0.099
		c0.099,0.298,0.198,0.496,0.297,0.793c0,0.298,0.099,0.496,0.199,0.793l-8.532-4.464c-13.889,4.266-25.694,13.393-33.234,25.793
		c-7.837,13.492-10.119,29.464-6.349,44.643c-1.687,1.982-3.174,4.166-4.464,6.447c-3.67,6.943-6.15,14.386-7.44,22.123
		c-1.29,6.35-1.587,10.912-1.587,10.912c0,1.488,0,2.877,0,4.365v3.77c0.199,1.785,0.397,3.572,0.694,5.356v0.694l0.199,0.794
		l0.099,0.595v0.1l0.298,1.19c0.099,0.597,0.297,1.29,0.396,1.886l0.199,0.991l0.496,1.786v0.297
		c1.588,5.655,3.77,11.111,6.647,16.171c63.491,28.868,136.308,28.868,199.798,0l0.199-0.694l0.297-0.893l0.298-0.693l0.099-0.498
		l0.299-0.99l0.297-0.992c0.397-1.29,0.694-2.68,0.994-3.968v-0.497l0.197-0.991l0.197-1.092c3.175-15.873,7.54-25,7.54-48.61
		c0.794-15.574-12.4-45.138-12.4-45.138c-1.39-2.778-3.075-5.456-4.86-7.937l-0.597-0.793c-1.188-1.885-2.479-3.77-3.968-5.457
		c-1.488-1.885-3.075-3.77-4.762-5.555c-6.646-5.853-13.395-11.607-20.237-17.262c-13.294-11.111-23.711-30.654-56.845-30.654
		L109.358,11.928z"></path>
      <path fill="#FFFFFF" d="M109.358,11.928c-15.08,0.694-29.266,7.639-39.087,19.146c-0.198-0.099-0.297-0.099-0.496-0.198
		c-0.297-0.1-0.694-0.199-0.993-0.298h-0.595c-3.076,0-5.556,3.075-5.556,6.944c0,0.298,0,0.694,0,0.992v0.297l0.1,0.397v0.099
		c0.099,0.298,0.198,0.496,0.297,0.793c0,0.298,0.099,0.496,0.199,0.793l-8.532-4.464c-13.889,4.266-25.694,13.393-33.234,25.793
		c-7.837,13.492-10.119,29.464-6.349,44.643c-1.687,1.982-3.174,4.166-4.464,6.447c-3.67,6.943-6.15,14.386-7.44,22.123
		c-1.29,6.35-1.587,10.912-1.587,10.912c0,1.488,0,2.877,0,4.365v3.77c0.199,1.785,0.397,3.572,0.694,5.356v0.694l0.199,0.794
		l0.099,0.595v0.1l0.298,1.19c0.099,0.597,0.297,1.29,0.396,1.886l0.199,0.991l0.496,1.786v0.297
		c1.588,5.655,3.77,11.111,6.647,16.171c63.491,28.868,136.308,28.868,199.798,0l0.199-0.694l0.297-0.893l0.298-0.693l0.099-0.498
		l0.299-0.99l0.297-0.992c0.397-1.29,0.694-2.68,0.994-3.968v-0.497l0.197-0.991l0.197-1.092c3.175-15.873,7.54-25,7.54-48.61
		c0.794-15.574-12.4-45.138-12.4-45.138c-1.39-2.778-3.075-5.456-4.86-7.937l-0.597-0.793c-1.188-1.885-2.479-3.77-3.968-5.457
		c-1.488-1.885-3.075-3.77-4.762-5.555c-6.646-5.853-13.395-11.607-20.237-17.262c-13.294-11.111-23.711-30.654-56.845-30.654
		L109.358,11.928z"></path>
      <path fill="#FEDEA6" d="M196.361,135.438c-10.913,1.785-19.049-1.984-22.024-7.44c-2.381-4.267,3.571-14.683,8.531-17.063
		c14.882-7.242,53.571-10.316,61.508-4.961C243.779,114.01,213.623,132.462,196.361,135.438z"></path>
      <path fill="#F5C371" d="M224.634,102.898c-14.384,0.1-28.571,2.679-42.063,7.738c-5.158,2.579-11.109,13.095-8.631,17.46
		c1.588,2.978,4.465,5.258,8.233,6.646c4.563,1.587,9.524,1.885,14.286,0.992c10.813-2.479,21.13-6.846,30.456-12.896
		c8.433-5.158,17.56-12.302,17.856-16.865v-0.099l-0.198-0.101c-3.075-2.183-10.813-2.977-19.94-2.776L224.634,102.898
		L224.634,102.898z M191.5,135.636c-8.532,0.199-14.385-3.472-16.766-7.737c-2.184-3.969,3.472-14.186,8.332-16.567
		c6.944-3.372,19.545-6.05,33.233-7.142c13.294-1.091,23.81-0.298,27.579,1.984c-0.396,3.769-7.143,9.92-17.561,16.269
		c-9.226,5.953-19.344,10.22-30.059,12.699C194.674,135.438,193.087,135.636,191.5,135.636z"></path>
      <path fill="#F5C371" d="M174.635,128.395l-0.298-0.693l69.938-21.926l0.299,0.596L174.635,128.395z"></path>
      <path fill="#F5C371" d="M222.253,103.295l-4.96,11.014l0.991,0.197l4.86-10.913l-0.99-0.298H222.253z M214.416,115.796
		l-0.895-0.198l4.168-12.005l0.793,0.198l-3.967,11.904L214.416,115.796z M218.284,127.7l-19.841-6.944l0.396-0.596l19.842,6.943
		l-0.397,0.498V127.7z M187.035,124.327l-0.893-0.101l3.969-16.07l0.893,0.1L187.035,124.327z M207.473,132.462l-17.856-8.929
		l0.495-0.596l17.856,8.93L207.473,132.462L207.473,132.462z M225.031,111.827l-0.198,0.694c1.983,0.396,7.539,1.19,13.688,1.983
		l0.101-0.596L225.031,111.827L225.031,111.827z"></path>
      <path fill="#FEDEA6" d="M194.575,145.357c-9.425-4.266-11.707-11.211-8.83-16.864c2.282-4.267,16.071-8.829,21.825-7.937
		c17.361,2.381,47.816,20.139,48.412,28.174C248.245,154.386,209.654,152.203,194.575,145.357z"></path>
      <path fill="#F5C371" d="M205.686,120.063c-6.646,0.196-18.252,4.363-20.336,8.432c-1.588,2.777-1.588,6.15-0.197,9.027
		c1.981,3.67,5.257,6.646,9.226,8.136c7.043,3.174,19.94,5.653,33.729,6.349c10.713,0.596,23.81,0.1,28.271-2.976l0.1-0.199v-0.101
		c-0.693-8.232-31.25-26.088-48.809-28.569L205.686,120.063L205.686,120.063z M238.423,151.607c-3.174,0-6.646,0-10.315-0.197
		c-11.311-0.299-22.619-2.48-33.233-6.35c-9.623-4.365-11.31-11.31-8.729-16.369c2.183-4.168,15.674-8.631,21.328-7.937
		c7.938,1.19,19.543,5.754,30.356,12.003c10.517,6.151,17.262,12.203,17.758,15.873C252.907,150.318,246.657,151.41,238.423,151.607
		L238.423,151.607z"></path>
      <path fill="#F5C371" d="M255.884,149.128l-70.237-20.138l0.299-0.596l70.236,20.139L255.884,149.128L255.884,149.128z"></path>
      <path fill="#F5C371" d="M242.789,135.339l-13.689,5.556l0.396,0.596l13.688-5.557L242.789,135.339z M225.727,140.398l-0.498-0.597
		l13.891-6.646l0.595,0.595L225.727,140.398z M217.393,151.111l-7.738-15.276l0.794-0.299l7.837,15.278L217.393,151.111z
		 M198.245,132.462l-0.595-0.496l17.658-9.722l0.496,0.495L198.245,132.462z M205.29,149.029l-4.563-15.873l0.991-0.1l4.464,15.873
		h-0.992L205.29,149.029z M236.836,142.979l-0.793,0.396c2.579,2.877,5.257,5.754,7.936,8.532l0.795-0.397
		C241.102,147.739,238.025,144.366,236.836,142.979z"></path>
      <path fill="#FEDEA6" d="M51.521,65.201c7.143,5.258,8.929,14.483,6.747,21.924C56.482,93.078,46.165,99.824,41.8,99.03
		C28.705,96.748,5.888,74.725,5.392,64.109C11.146,56.173,40.212,57.066,51.521,65.201L51.521,65.201z"></path>
      <path fill="#F5C371" d="M59.26,83.454c0.397-2.777,0.199-5.555-0.595-8.233c-1.091-4.167-3.472-7.738-6.944-10.317
		c-7.639-4.563-16.369-6.845-25.297-6.746c-8.135-0.198-18.055,1.191-21.329,5.655l-0.099,0.099v0.198
		c0.496,10.913,23.512,33.035,36.706,35.317c4.563,0.892,15.079-6.051,16.864-12.103C58.863,86.034,59.161,84.744,59.26,83.454z
		 M5.689,64.209c2.777-3.373,10.714-5.357,20.634-5.159c10.219,0.298,19.841,2.877,25,6.646c6.052,4.365,7.936,11.607,7.242,17.857
		c-0.1,1.19-0.297,2.282-0.694,3.473c-1.587,5.655-11.706,12.301-15.972,11.507c-8.731-2.678-16.568-7.539-22.817-14.186
		C11.146,76.708,6.086,69.07,5.689,64.209z"></path>
      <path fill="#F9CF88" d="M5.193,64.407l0.297-0.893L58.367,86.53l-0.297,0.893L5.193,64.407z"></path>
      <path fill="#F9CF88" d="M25.629,73.138l-0.297-0.794L15.015,80.38l0.297,0.794L25.629,73.138z M17.594,83.157l10.516-9.523
		l0.397,0.694l-10.516,9.523L17.594,83.157z M33.764,59.249l0.595-0.297l5.952,19.841l-0.694,0.396l-5.952-19.84L33.764,59.249z
		 M35.55,96.45l13.293-13.889l0.397,0.794L35.947,97.244L35.55,96.45z M42.891,61.232l0.596-0.198l3.472,20.833l-0.694,0.198
		L42.891,61.232z M20.371,70.161l-5.952-10.913l-0.596,0.496c2.778,4.861,5.06,9.226,5.953,10.912L20.371,70.161L20.371,70.161z"></path>
      <path fill="#FEDEA6" d="M44.181,65.498l-3.175-5.753C31.482,40.896,23.943,12.424,27.415,2.702
		c10.119-4.167,41.17,21.031,49.503,40.178c4.762,10.119,3.472,22.123-3.373,30.952c-0.893,1.091-1.984,2.083-3.174,2.976
		c-5.854,4.067-13.393,3.968-20.139-3.175c-1.984-1.984-3.968-4.861-5.953-8.135H44.181z"></path>
      <path fill="#F5C371" d="M79.696,59.546c0.694-5.655-0.198-11.508-2.579-16.865c-5.754-11.31-13.988-21.23-24.107-29.067
		C44.379,6.67,33.07-0.076,27.316,2.305v0.199C25.53,7.167,26.225,16.294,29.101,28c3.373,13.194,8.333,25.893,14.881,37.797
		c1.686,2.977,3.67,5.754,5.952,8.234c6.35,6.646,13.988,7.837,20.536,3.175c1.19-0.893,2.281-1.984,3.274-3.075
		C77.216,69.962,79.299,64.903,79.696,59.546L79.696,59.546z M27.712,3c4.564-1.587,14.187,2.679,24.9,11.508
		c10.02,7.639,18.155,17.46,23.81,28.67c4.662,9.921,3.472,21.626-3.175,30.357c-0.893,1.19-1.983,2.183-3.174,2.976
		c-6.25,4.464-13.69,3.373-19.841-3.075c-1.786-1.984-3.77-4.762-5.754-8.135l-3.274-5.853C32.276,41.392,24.34,13.019,27.712,3.099
		V3z"></path>
      <path fill="#F5C371" d="M27.217,3l0.496-0.595l46.032,71.13l-0.497,0.595L27.217,3z"></path>
      <path fill="#F5C371" d="M47.951,10.142l-0.596-0.099l-2.679,19.642l0.595,0.1L47.951,10.142z M47.157,33.555l3.969-20.734
		l0.595,0.198l-3.968,20.734L47.157,33.555z M36.443,49.031l21.131-0.298v0.992l-21.23,0.199v-0.992L36.443,49.031z M65.113,61.332
		l6.647-26.885l0.694,0.198L65.807,61.53L65.113,61.332z M42.494,62.225l20.833-4.464v0.895l-20.833,4.364V62.225z M40.411,22.146
		c-1.984-0.596-7.143-2.183-12.897-4.167l-0.198,0.893c5.753,1.984,10.912,3.571,12.896,4.167l0.199-0.992V22.146z"></path>
      <g>
        <path fill="#F5C371" d="M220.963,124.426c0,23.61-4.464,32.737-7.639,48.61l-0.1,0.991v0.101l-0.197,0.991v0.298l-0.1,0.101
			c-0.299,1.687-0.695,3.373-1.191,4.959v0.198l-0.396,0.993l-0.099,0.396c-0.198,0.494-0.396,1.091-0.595,1.586l-0.199,0.695
			c-63.49,28.867-136.307,28.867-199.798,0c-0.397-0.795-0.793-1.488-1.19-2.281c-2.58-5.159-4.564-10.518-5.953-16.071
			l-0.199-0.992c-0.099-0.596-0.297-1.19-0.396-1.786l-0.298-1.189v-0.694l-0.198-0.794l-0.099-0.694
			c-0.198-0.793-0.297-1.686-0.397-2.479v-0.992l-0.297-1.886c-0.198-2.678-0.298-5.455-0.1-8.135
			c9.127-6.943,11.409,1.785,19.841-4.563c6.15-5.357,16.766-8.434,16.766-8.434c-6.647-5.258-20.536-12.201-32.737,1.588
			c10.516-21.031,13.293-6.745,24.801-14.086c3.571-3.969,5.457-4.465,11.904-3.375c13.69,2.978,7.937-16.07,19.841-14.285
			c0,0-2.381-2.877-8.929-2.877c-6.548,0-7.639,6.351-14.88,4.564c-5.853-1.092-11.904-0.992-17.659,0.496
			c-1.786,0.396-3.67,0.894-5.456,1.488c7.34-16.369,27.678-18.552,33.332-32.54c4.266-10.714,8.532-22.817,14.881-33.432
			c9.126-17.162,26.686-28.174,46.13-28.869c39.483-3.373,50.297,18.254,64.482,30.258l1.488,1.19
			c-0.992,2.182-1.687,4.762-1.687,7.54c0,7.937,5.06,14.286,11.407,14.286c3.673,0,6.944-2.282,9.128-5.754
			c3.67,4.067,7.043,8.432,10.118,12.896c1.39,2.282,2.776,4.564,3.97,6.945c-6.25,1.687-8.93,8.928-12.104,12.301
			c-2.579,2.282-5.853,3.87-9.226,4.464c0,0,3.967,6.349,12.599,7.142c3.671,0.199,7.342-0.893,10.416-2.977
			c-2.281,4.266-1.687,7.144-4.763,10.915c-3.77,4.363-9.226,5.951-13.889,13.591c-4.859,7.639-3.968,15.674-3.968,15.674
			c4.96-5.06,10.912-9.026,17.36-11.904c3.175-1.389,6.547-2.183,9.92-2.479c1.886-0.299,3.97-0.991,6.15-2.184v0.496H220.963z"></path>
      </g>
      <g>
        <path fill="#FEDEA6" d="M194.277,59.546c-2.084,3.472-5.457,5.754-9.127,5.754c-6.35,0-11.408-6.449-11.408-14.286
			c0-2.778,0.693-5.357,1.688-7.54C175.43,43.475,193.285,58.455,194.277,59.546z"></path>
      </g>
      <g>
        <path fill="#FEDEA6" d="M91.898,127.204c0,10.715-6.944,19.345-15.278,19.345c-8.531,0-15.376-8.63-15.376-19.345
			c0-10.615,6.944-19.347,15.376-19.347C85.053,107.857,91.799,116.589,91.898,127.204L91.898,127.204z"></path>
      </g>
      <g>
        <path fill="#FEDEA6" d="M84.656,49.725c0,0.595-0.396,0.992-0.893,0.992c-0.397,0-0.793-0.397-0.793-0.992
			c0-0.596,0.396-0.992,0.793-0.992C84.26,48.733,84.656,49.129,84.656,49.725z"></path>
      </g>
      <g>
        <path fill="none" stroke="#FFFFFF" stroke-width="1.6" stroke-miterlimit="10" d="M55.093,140.199c0.993,0,1.786-0.992,1.786-2.28
			c0-1.19-0.694-2.185-1.687-2.185c-0.993,0-1.786,0.992-1.786,2.185C53.407,139.207,54.2,140.199,55.093,140.199L55.093,140.199z"></path>
      </g>
      <g>
        <path fill="none" stroke="#FEDEA6" stroke-width="1.6" stroke-miterlimit="10" d="M153.404,46.749
			c0.992,0,1.785-0.992,1.785-2.183s-0.793-2.183-1.785-2.183c-0.991,0-1.688,0.992-1.688,2.183S152.413,46.749,153.404,46.749z"></path>
      </g>
      <g>
        <path fill="none" stroke="#FEDEA6" stroke-width="1.6" stroke-miterlimit="10" d="M72.057,46.55c3.076,0,5.556-3.174,5.556-6.944
			c0-3.969-2.48-7.044-5.556-7.044c-2.976,0-5.456,3.075-5.456,6.944C66.601,43.475,69.082,46.451,72.057,46.55L72.057,46.55z"></path>
      </g>
      <g>
        <path fill="none" stroke="#FEDEA6" stroke-width="1.6" stroke-miterlimit="10" d="M22.654,176.508
			c6.349,0,11.409-6.447,11.409-14.285c0-7.936-5.06-14.384-11.409-14.384c-6.25,0-11.31,6.448-11.31,14.384
			C11.344,170.159,16.404,176.508,22.654,176.508z"></path>
      </g>
      <g>
        <g>
          <g>
            <defs>
              <path id="SVGID_1_" d="M-14.069,155.438c9.92,34.101,82.255,51.356,130.099,50.633c41.644-2.17,101.268-7.438,121.107-40.817
						c28.314-42.883,0.725-106.331-33.271-140.844C175.552-4.319,123.676-30.979,89.163-13.516
						C72.63-5.249,54.959,15.728,44.729,34.741c-5.89,11.057-6.2,15.707-13.847,26.351C18.068,78.866,9.698,77.936-1.565,94.469
						c-10.023,14.674-12.813,29.143-13.846,35.961C-16.858,141.59-16.032,148.823-14.069,155.438z"></path>
            </defs>
            <clipPath id="SVGID_2_">
              <use xlink:href="#SVGID_1_" overflow="visible"></use>
            </clipPath>
            <g clip-path="url(#SVGID_2_)">
              <g>
                <g>
                  <g>
                    <g>
                      <path fill="#84030A" d="M77.279,208.033c-0.93-26.453-4.236-50.323-8.577-71.301c0.723-3.616,1.343-7.131,2.066-10.851
										c1.963,1.345,4.03,2.79,6.2,4.443c1.757,1.344,3.308,2.687,4.754,4.03c1.24,0.725,2.479,1.445,3.72,2.272
										c0.619,1.345,1.136,2.583,1.756,3.927c0,1.758,0.104,4.236,0.207,7.439c0.62,22.939,2.17,37.511,3.203,50.943
										c0.724,10.024,1.55,24.389,1.55,42.265c-4.96-0.619-9.816-1.239-14.776-1.962C77.589,229.32,77.693,218.885,77.279,208.033
										z"></path>
                      <path fill="#F8AE38" d="M49.689,113.999c1.756,0.104,3.719,0.414,5.993,0.931c1.757,0.413,3.411,0.93,4.857,1.446
										c-0.103,0.724-0.31,1.55-0.414,2.272c-3.306-0.414-6.613-0.93-9.816-1.342C50.102,116.17,49.896,115.136,49.689,113.999z"></path>
                      <path fill="#9F0102" d="M23.132,242.238c-0.621-56.524-0.723-97.858-0.517-101.889c0-1.033,0.206-3.721,2.067-5.994
										c0.62-0.724,1.239-1.239,1.963-1.758c7.75-5.063,15.604-10.125,23.457-15.189c1.653-0.102,3.617,0,5.89,0.312
										c4.444,0.724,7.854,2.376,10.127,3.72c6.406,5.168,12.813,10.23,19.22,15.396c-0.31,7.439-0.62,14.882-0.827,22.321
										c-0.93,28.727-1.24,56.729-0.827,84.01"></path>
                      <path fill="none" stroke="#F8AE38" stroke-width="1.4439" stroke-miterlimit="10" d="M66.636,125.57
										c1.963,9.404,3.617,19.844,4.753,31.21c1.241,12.503,1.241,20.977,1.344,39.989c0.104,10.541,0.311,26.559,0.517,46.812"></path>
                      <path fill="none" stroke="#F8AE38" stroke-width="1.4439" stroke-miterlimit="10" d="M63.846,143.967
										c3.307-0.207,6.614-0.414,9.817-0.619"></path>
                      <path fill="none" stroke="#F8AE38" stroke-width="1.4439" stroke-miterlimit="10" d="M66.945,171.764
										c3.204-0.311,6.408-0.725,9.611-1.033"></path>
                      <path fill="none" stroke="#F8AE38" stroke-width="1.4439" stroke-miterlimit="10" d="M67.152,221.158
										c3.927-0.313,7.751-0.725,11.677-1.139"></path>
                      <path fill="#F8AE38" d="M54.338,111.934c1.654,0.31,4.341,1.137,7.131,2.996c2.273,1.551,3.823,3.409,4.753,4.649
										c0.311,1.964,0.621,3.928,1.034,5.89c-0.311,0-0.517,0-0.723,0.104c-0.311-1.342-1.344-4.854-4.548-7.853
										c-4.029-3.721-8.782-4.03-10.023-4.03C52.892,113.173,53.615,112.553,54.338,111.934z"></path>
                      <g>
                        <path fill="none" d="M67.463,131.464"></path>
                      </g>
                      <g>
                        <path fill="#191513" d="M45.556,109.557c0.414,0.413,1.137,1.033,2.17,1.549c0.31,0.104,0.827,0.414,1.446,0.621
											c1.137,0.312,2.274,0.207,2.997,0c-0.207-1.344-0.723-4.237-2.997-7.026c-2.067-2.687-4.546-3.927-5.683-4.443
											C44.212,103.355,44.936,106.456,45.556,109.557z"></path>
                        <g>
                          <path fill="#FAD4AF" d="M66.636,126.09c-0.826-1.033-1.756-2.066-2.79-3.101c-0.93-1.032-1.86-1.964-2.79-2.789
												c-0.413-0.312-0.826-0.621-1.344-1.033c-0.31-0.312-0.723-0.519-1.136-0.724c-1.344-0.725-2.584-1.344-3.72-1.758
												c-1.447-0.517-2.894-0.725-4.031-0.93c0.104-0.621,0.207-1.445,0.104-2.273c0-0.311,0-0.724-0.104-1.138l0,0
												c0-0.104,0-0.104,0-0.206c-0.103-0.517-0.206-1.033-0.31-1.445c-0.103-0.312-0.103-0.519-0.207-0.725
												c3.927,0.62,7.853,1.137,11.676,1.653c1.137,0.206,2.273,0.31,3.411,0.517l0,0l0,0c0,0.518,0,0.93,0,1.446
												c0,1.651,0,3.308-0.104,4.96v0.104c0,0.311,0,0.621,0,0.931c0,0.724,0,1.446,0,2.171
												c0.207,0.311,0.414,0.723,0.621,1.137C66.429,124.23,66.636,125.264,66.636,126.09z"></path>
                          <path fill="#E09D6C" d="M65.499,112.346c0,0.518,0,0.93,0,1.446c0,1.653,0,3.308-0.103,4.961v0.104
												c-0.517,0-1.034,0-1.551,0c-1.447,0-2.79-0.312-4.03-0.621c-1.963-0.619-3.617-1.653-4.857-2.479
												c-0.414-0.312-0.826-0.621-1.55-1.138c-1.033-0.827-1.86-1.446-2.48-1.963l0,0c0-0.104,0-0.104,0-0.207
												c-0.104-0.518-0.207-1.033-0.309-1.447c-0.104-0.309-0.104-0.516-0.207-0.723c3.926,0.619,7.853,1.137,11.677,1.652
												C63.329,112.037,64.362,112.141,65.499,112.346z"></path>
                          <path fill="#FAD4AF" d="M59.712,61.299c-17.153,0.31-19.529,11.884-19.427,18.6c0,2.997,0.104,5.167,0.517,8.267
												c0.518,3.617,1.137,8.267,3.41,13.433c1.654,3.824,4.03,9.094,9.507,12.814c2.79,1.858,4.96,2.79,5.89,2.995
												c2.79,0.826,4.856,0.725,5.373,0.725c1.034,0,2.274-0.104,3.307-0.619c2.273-0.932,2.79-3.203,5.271-7.957
												c1.24-2.48,2.687-4.755,3.616-8.267c2.274-9.094,2.79-15.397,2.583-22.01C79.552,72.562,76.762,60.988,59.712,61.299z"></path>
                          <path fill="#191513" d="M62.502,59.852c4.856-1.137,8.163,0,9.61,0.621c7.543,3.1,10.333,12.09,10.23,18.187
												c-0.104,5.581-2.687,10.23-3.1,10.127c-0.207,0,0.207-1.757-0.31-4.546c-0.311-1.344-0.621-2.48-0.93-3.1
												c-0.31-1.241-0.827-2.17-1.343-2.894c-0.517,3.824-0.931,4.65-1.137,4.65c-0.413,0-0.31-2.273-1.446-5.167
												c-1.136-2.894-2.997-5.683-3.927-5.373c-0.931,0.309-0.414,4.03-1.033,4.236c-0.311,0-0.517-1.033-1.757-2.273
												c-0.62-0.62-1.446-1.55-2.376-1.446s-1.343,1.446-2.686,5.271c-1.55,4.34-1.964,5.167-2.377,5.167
												s-1.137-0.827-1.963-4.754c-0.621,1.033-1.033,1.963-2.48,4.65c-0.724,1.448-1.447,2.583-1.756,2.583
												c-0.414,0.104-1.653-1.758-2.48-4.03c-0.31,0.62-0.826,1.653-0.93,2.896c-0.104,1.239,0.207,1.652,0.207,2.686
												c0,2.067-1.24,2.583-2.376,5.374c-1.034,2.688-0.621,4.134-1.446,4.443c-1.137,0.309-2.894-2.583-3.721-3.926
												c3.721,12.193,4.237,16.121,3.41,16.429c-1.033,0.414-4.96-4.752-7.233-10.126c0-0.103-0.31-0.621-0.516-1.135
												c-1.654-4.134-5.477-15.811-0.31-26.868c1.55-3.307,3.409-5.476,4.34-6.51c1.963-2.066,5.684-6.097,11.574-6.716
												C55.786,58.302,58.782,58.198,62.502,59.852z"></path>
                        </g>
                        <path fill="none" stroke="#F8AE38" stroke-width="1.4439" stroke-miterlimit="10" d="M47.105,123.609"></path>
                        <g>
                          <g>
                            <path d="M52.479,88.683c3.307-1.344,7.336-0.93,10.333,0.929l-0.62,0.931c-2.169-1.241-4.65-1.964-7.129-1.964
													C54.236,88.579,53.409,88.683,52.479,88.683L52.479,88.683L52.479,88.683z"></path>
                          </g>
                        </g>
                        <g>
                          <g>
                            <path d="M78.52,91.266c-2.687-1.241-5.89-0.723-8.267,1.033l-0.621-0.827c1.86-1.446,4.444-2.065,6.82-1.342
													C77.176,90.439,77.899,90.749,78.52,91.266L78.52,91.266L78.52,91.266z"></path>
                          </g>
                        </g>
                        <path fill="#E09D6C" d="M60.746,109.35c-0.104,0.31,2.479,1.965,5.374,1.652c2.066-0.206,3.72-1.344,3.72-1.652
											c-0.104-0.207-1.55,0.414-4.03,0.519C62.709,110.072,60.849,109.143,60.746,109.35z"></path>
                        <g>
                          <path fill="#E09D6C" d="M63.846,103.563c1.344-0.723,2.997-0.723,4.34-0.104
												C66.843,104.183,65.189,104.183,63.846,103.563L63.846,103.563z"></path>
                        </g>
                        <g>
                          <path d="M70.976,96.122L70.976,96.122c-0.104-0.104-0.207-0.208-0.311-0.31c0.104-0.207,0.311-0.412,0.517-0.62
												c0,0,0.31-0.31,0.62-0.413c0.311-0.207,0.621-0.104,1.447-0.104c1.136,0.104,1.136,0,1.447,0.207
												c0.31,0.207,0.723,0.621,0.62,1.032c0,0.104-0.103,0.208-0.207,0.312c-0.413,0.413-0.827,0.31-0.827,0.413
												c0,0,0.517,0.311,1.033-0.103c0.311-0.208,0.517-0.518,0.62-0.724c0.207,0,0.414,0.103,0.62,0.31
												c0.31,0.104,0.517,0.207,0.517,0.207c0-0.103-0.517-0.62-1.034-1.033c-0.206-0.207-0.62-0.414-1.033-0.62
												c-0.207-0.104-0.516-0.207-1.446-0.207c-0.414,0-1.034-0.104-1.757,0c-0.31,0.104-0.723,0.312-1.137,0.827
												c-0.516,0.516-0.93,1.033-0.826,1.137c0,0,0.207-0.104,0.517-0.104c0.104,0,0.104,0,0.31,0
												C70.666,96.226,70.976,96.226,70.976,96.122z"></path>
                          <path d="M74.283,94.882c0.103,0.104,0.207,0.31,0.207,0.621c0,0.309-0.104,0.826-0.414,1.033
												c-0.103,0.103-0.31,0.103-0.31,0.207c-0.311,0-0.414,0-0.621,0c-0.103,0-0.414-0.104-0.621-0.31
												c-0.103-0.104-0.31-0.311-0.31-0.724s0.207-0.723,0.207-0.827c0.31,0,0.62,0,0.827,0c0.31,0,0.517,0,0.62,0
												C74.076,94.882,74.179,94.882,74.283,94.882z"></path>
                        </g>
                        <g>
                          <path d="M61.056,94.986L61.056,94.986c0.207-0.104,0.311-0.104,0.517-0.207c-0.103-0.207-0.206-0.414-0.413-0.724
												c0,0-0.311-0.31-0.621-0.62c-0.414-0.31-0.723-0.31-1.757-0.517c-1.343-0.207-1.446-0.31-1.859-0.207
												c-0.517,0.104-1.034,0.414-1.034,0.827c0,0.103,0.104,0.206,0.207,0.31c0.414,0.516,0.93,0.62,0.93,0.62
												s-0.723,0.104-1.343-0.31c-0.31-0.31-0.517-0.62-0.619-0.827c-0.207,0-0.518,0-0.93,0c-0.518,0-0.62,0.104-0.62,0
												c0-0.103,0.826-0.516,1.653-0.723c0.31-0.104,0.827-0.206,1.447-0.31c0.311,0,0.723,0,1.757,0.104
												c0.62,0.103,1.343,0.206,2.17,0.414c0.31,0.206,0.723,0.516,1.137,1.033c0.517,0.62,0.827,1.24,0.827,1.343
												c0,0-0.206-0.207-0.62-0.31c-0.207,0-0.207,0-0.414,0C61.366,95.192,61.056,94.986,61.056,94.986z"></path>
                          <path d="M57.956,92.919c-0.103,0.104-0.207,0.311-0.207,0.621c0,0.62,0.413,1.136,0.413,1.136
												c0.414,0.413,0.931,0.413,1.24,0.413c0.207,0,0.621,0,0.93-0.207c0.207-0.103,0.516-0.31,0.62-0.62
												c0.103-0.414,0-0.827,0-0.827c-0.31-0.104-0.827-0.206-1.137-0.31C59.196,93.022,58.576,92.919,57.956,92.919z"></path>
                        </g>
                        <polyline fill="none" points="50.722,118.546 50.722,118.234 50.62,117.514 50.62,117.307 50.62,116.996 										"></polyline>
                        <path fill="#FAD4AF" d="M44.316,89.819c-0.621-1.654-3.101-3.101-4.133-2.48c-1.034,0.621-1.447,3.514-1.034,5.374
											c0.311,0.93,0.621,3.72,2.894,5.684c1.137,1.033,3.307,2.17,4.237,1.447c0.414-0.312,0.516-1.034-0.207-4.031
											C45.556,93.436,44.936,91.369,44.316,89.819z"></path>
                      </g>
                      <path fill="#F8AE38" d="M49.689,113.999c4.339,1.963,8.783,3.823,13.123,5.683c1.24,2.17,2.584,4.342,3.823,6.614
										c-0.207,0.208-0.31,0.413-0.516,0.62c-1.447-1.55-3.721-3.721-7.131-5.58c-3.926-2.169-7.646-2.893-9.92-3.203
										C49.378,116.789,49.585,115.343,49.689,113.999z"></path>
                    </g>
                    <path fill="#9F0102" d="M24.889,149.339c8.99,16.226,18.083,32.345,27.074,48.568c14.88-16.327,29.761-32.655,44.64-48.981
									c-8.783-4.854-17.567-9.609-26.35-14.466c-5.684,8.888-11.264,17.67-16.947,26.558c-2.17-3.515-4.237-7.131-6.406-10.644"></path>
                    <g>
                      <g>
                        <path fill="#EAC2A0" d="M80.689,131.152c1.034-3.719,5.374-10.851,5.994-11.573c0.309-0.31,0.516-0.724,0.826-1.24
											c0,0,1.55-2.789,3.824-4.854c0,0,0.103-0.104,0.207-0.104c0.31-0.206,0.619-0.104,0.826,0.207
											c0.104,0.206,0.207,0.413,0.311,0.62c0.516,1.756-0.725,4.029-2.997,5.684c0,0-0.104,0-0.104,0.104
											C86.579,123.609,83.686,127.329,80.689,131.152z"></path>
                        <path fill="#F2CBAF" d="M82.653,127.641c-0.31-0.312,1.86-3.102,5.787-8.371c0-0.103,1.136-1.344,3.1-3.822
											c1.137-1.447,2.169-2.584,4.029-3.721c0,0,0.104-0.104,0.207-0.104c0.31-0.207,0.724-0.104,0.826,0.206
											c0.104,0.208,0.207,0.413,0.207,0.517c0.517,1.758-0.723,4.03-3.1,5.685l0,0C85.339,126.296,82.963,127.95,82.653,127.641
											z"></path>
                        <path fill="#FAD4AF" d="M73.56,142.313c1.137-0.826,2.893-2.272,4.237-4.547c2.273-3.307,1.86-5.373,3.823-8.988
											c1.756-3.411,4.03-5.479,5.684-7.027c1.963-1.757,5.167-4.65,10.126-6.098c0.414-0.104,0.827-0.207,1.24-0.311
											c0.827-0.207,1.343,0.723,0.93,1.344c-0.31,0.518-0.826,1.033-1.343,1.446c-1.447,1.138-2.273,0.931-4.133,2.272
											c-0.621,0.518-1.86,1.445-2.79,2.998c-0.31,0.517-1.033,1.963-1.033,3.926c0,0.621,0.104,1.137,0.206,1.551
											c1.446-1.138,2.48-2.171,3.101-2.895c0.619-0.724,0.93-1.446,1.962-2.582c1.033-1.24,1.757-2.067,2.274-1.965
											c0.517,0.207,0.517,1.859,0.103,3.308c-0.517,1.446-1.24,1.758-2.583,3.927c-0.31,0.413-0.62,1.033-1.344,2.377
											c-2.17,4.031-2.17,4.547-2.997,5.479c-0.723,0.826-1.86,1.962-3.824,2.789c-0.31,0.412-0.723,0.826-1.033,1.24
											c-2.067,2.789-3.41,5.579-4.237,8.162C78.933,146.55,76.246,144.38,73.56,142.313z"></path>
                      </g>
                    </g>
                    <g>
                      <path fill="#84030A" d="M23.132,146.239c9.61,16.018,20.459,34.825,29.76,51.049l-1.756-0.208
										c10.333-11.471,23.147-25.42,33.688-36.786L96.086,148.1l0.31,1.963C87.613,145,78.829,140.04,70.149,134.977l1.446-0.31
										c-5.167,7.955-12.503,19.013-17.669,26.763l-0.518,0.827l-0.413-0.827c-3.307-5.787-8.061-14.053-11.263-19.84
										c3.616,5.477,8.68,13.641,12.296,19.221h-1.137c4.857-7.957,11.884-19.221,16.844-27.28l0.517-0.827
										c4.753,2.584,9.403,5.168,14.156,7.854c4.857,2.688,9.816,5.375,14.674,8.163c-6.097,6.718-17.463,19.015-23.561,25.628
										c-6.923,7.543-16.636,17.877-23.663,25.42l-0.724-1.344C42.042,181.891,31.709,162.877,23.132,146.239L23.132,146.239z"></path>
                    </g>
                    <path fill="#F8AE38" d="M64.466,141.796c8.99,4.96,17.98,10.024,26.97,14.984c2.48-2.789,5.064-5.478,7.544-8.269
									c-9.611-5.477-19.221-11.057-28.831-16.533C68.289,135.286,66.429,138.592,64.466,141.796z"></path>
                  </g>
                </g>
              </g>
              <g>
                <g>
                  <g>
                    <g>
                      <path fill="#828282" d="M182.602,130.12c-0.621-0.414-2.272-1.552-4.649-1.447c-3.617,0.104-5.685,2.997-5.892,3.308
										c0.312,1.239,0.621,2.479,0.828,3.72c3.408-0.618,6.818-1.138,10.229-1.757
										C183.014,132.702,182.809,131.359,182.602,130.12z"></path>
                      <path fill="#CECECE" d="M143.23,258.669c19.736,0.31,39.371,0.618,59.106,0.931c0.413-13.951,0.827-26.353,1.343-36.994
										c0.209-4.754,0.414-8.371,0.932-12.297c0.31-1.965,0.516-3.41,0.621-4.135c1.342-6.199,2.479-13.021,3.1-20.46
										c1.344-13.64,0.826-25.833-0.207-35.961c-7.75-6.097-15.707-11.264-23.663-15.707c-0.207-0.103-0.414-0.206-0.621-0.31
										c-0.309-0.104-0.517-0.207-0.827-0.312c-0.31-0.103-0.619-0.206-1.033-0.31l0,0l0,0c-0.412,0.412-0.826,0.724-1.135,1.137
										c-3.101,2.79-5.582,4.339-7.441,5.167c-1.859,0.827-3.1,0.827-4.029,0.517h-0.104c-0.104,0-0.312-0.104-0.414-0.207
										c-0.104-0.104-0.205-0.205-0.31-0.31c-0.519-0.414-0.827-1.033-1.034-1.653c-0.412-1.344-0.412-2.686-0.31-2.996l0,0l0,0
										c0,0-0.104,0-0.104,0.103l0,0c-0.826,0.62-1.757,1.344-2.584,2.067c-0.103,0.104-0.205,0.205-0.309,0.311
										c-0.414,0.413-0.725,0.725-0.725,0.725c-0.312,0.31-3.514,3.305-12.606,11.676c-1.757,17.67-2.894,26.041-3.515,30.483
										l-1.445,8.886c-0.311,2.068-0.518,5.582-0.725,9.818c-0.207,3.721-0.31,7.854-0.517,11.882c0,0.208,0,0.313,0,0.519
										c0,1.344-0.103,3.203-0.103,4.961c0,0.93,0,1.55,0,1.652C144.471,220.021,144.059,231.49,143.23,258.669z"></path>
                      <path fill="#A5A5A5" d="M179.707,244.718c2.377,0.724,5.58,1.343,9.402,1.138c9.715-0.621,16.226-6.305,18.498-8.371
										c1.551-17.049,2.479-35.649,2.17-55.696c-0.207-11.16-0.723-21.804-1.445-31.931c-4.547,0-17.051,0.518-23.146,9.094
										c-2.584,3.617-3.102,7.337-3.514,11.883c-2.273,22.527-1.757,34.618-1.757,34.618
										C180.121,214.854,180.432,228.184,179.707,244.718z"></path>
                      <path fill="#FAD4AF" d="M182.395,126.296c0,1.55-0.205,2.894-0.414,4.134c-1.961,9.715-10.643,7.647-17.463,23.563
										c0.931-6.719,1.447-11.266,1.758-14.364c0.103-1.448,0.207-2.584,0.207-3.411c0-0.93,0-1.549-0.104-2.066
										c0-0.412-0.31-2.377-0.206-4.855c0.104-1.447,0.311-2.48,0.413-2.688c0.724-2.895,7.131-5.271,15.5-6.2
										C182.292,122.576,182.395,124.539,182.395,126.296z"></path>
                      <path fill="#F2B186" d="M182.395,126.296c0,1.55-0.205,2.894-0.414,4.134c-1.549,1.758-3.513,3.616-5.89,5.271
										c-0.62,0.414-1.55,0.931-2.894,1.137c-0.62,0.104-0.826,0-3.1-0.104c-1.654,0-1.447,0.104-2.377-0.103
										c-0.518-0.103-0.931-0.312-1.447-0.517c0-0.932,0-1.551-0.104-2.067c0-0.413-0.311-2.376-0.206-4.856
										c0.103-1.446,0.31-2.479,0.412-2.686c0.724-2.895,7.131-5.271,15.501-6.201
										C182.292,122.576,182.395,124.539,182.395,126.296z"></path>
                    </g>
                  </g>
                  <path fill="#A5A5A5" d="M139.407,238.725c1.757-0.619,3.409-1.138,5.063-1.756c0.104-4.857,0.311-26.041,0.205-26.041v1.963
								c0,0-0.103-1.031,0.104-2.272c0-0.206,0-0.31,0.104-0.31c0.414-2.48,0.93-6.304,1.344-11.059
								c0.207-1.962,0.207-2.996,0.311-4.546c0.311-4.341,1.344-16.224,4.34-44.849c-0.93,2.17-1.963,4.34-2.895,6.613
								c-4.028,14.777-7.543,32.861-8.681,53.528C138.686,220.331,138.891,229.941,139.407,238.725z"></path>
                </g>
                <path fill="#828282" d="M185.701,134.977c-1.446,1.138-3.307,2.895-5.479,5.063c-2.479,2.582-12.398,13.124-18.082,29.655
							c-3.101,9.096-3.617,21.185-4.547,45.056c-0.312,8.163-0.414,14.88-0.414,19.323c-1.964,0.104-3.822,0.311-5.787,0.412
							c0.207-6.51,0.518-15.189,0.828-25.521c1.137-29.969,1.756-33.895,3.409-39.164c4.649-14.261,13.021-24.594,16.327-28.728
							c3.927-4.755,7.749-8.476,10.539-11.058C183.635,131.67,184.667,133.323,185.701,134.977z"></path>
                <path fill="#828282" d="M166.48,135.391c0.205,1.756,0.311,3.514,0.311,5.477c0,4.236-0.311,8.164-0.826,11.471
							c-1.551,1.654-3.101,3.307-4.547,4.96c0.62-2.479,1.239-5.579,1.446-9.196c0.206-3.514-0.104-6.613-0.517-8.99
							c0.517-0.62,1.137-1.446,2.168-2.273C165.139,136.216,165.859,135.699,166.48,135.391z"></path>
                <g>
                  <path fill="#FAD4AF" d="M152.016,105.423c0.309,4.856,1.342,8.681,2.168,11.47c0,0,2.688,8.68,7.752,14.674
								c0.723,0.932,1.549,1.551,1.858,1.859c1.345,1.137,2.479,2.17,4.03,2.48c0.826,0.207,0.724,0,2.273,0.104
								c2.272,0.104,2.479,0.206,3.1,0.104c1.344-0.207,2.273-0.724,2.894-1.138c6.099-4.236,9.714-10.334,9.714-10.334
								c1.756-2.996,4.133-7.543,5.58-13.847c0.619-1.343,3.41-8.37,0.104-16.017c-0.62-1.24-2.584-5.891-7.339-8.577
								c-9.092-5.27-23.146-1.034-29.036,8.267C152.531,98.499,152.117,102.736,152.016,105.423z"></path>
                  <g>
                    <g>
                      <path fill="#462F2E" d="M161.727,107.075c-2.893-1.343-6.303-1.55-9.402-0.517c1.445-0.621,3.101-1.033,4.754-1.137
										c1.652-0.104,3.411,0.104,4.961,0.725c0.311,0.104,0.412,0.412,0.311,0.619
										C162.243,106.973,161.936,107.18,161.727,107.075L161.727,107.075z"></path>
                    </g>
                    <g>
                      <path fill="#462F2E" d="M154.598,110.279c1.653-1.551,4.547-1.137,5.786,0.723
										C158.73,109.658,156.664,109.453,154.598,110.279L154.598,110.279z"></path>
                    </g>
                    <ellipse transform="matrix(-0.1665 0.986 -0.986 -0.1665 291.6555 -26.2283)" fill="#462F2E" cx="156.913" cy="110.153" rx="0.827" ry="0.722"></ellipse>
                  </g>
                  <g>
                    <g>
                      <path fill="#462F2E" d="M170.408,105.318c3.513-0.619,7.232,0,10.334,1.757c-1.655-0.724-3.309-1.138-5.064-1.138
										c-1.757-0.103-3.41,0.104-5.063,0.621C169.995,106.559,169.684,105.423,170.408,105.318L170.408,105.318z"></path>
                    </g>
                    <g>
                      <path fill="#462F2E" d="M177.745,110.383c-1.966-1.138-4.237-1.033-6.304,0
										C173.094,108.729,176.193,108.729,177.745,110.383L177.745,110.383z"></path>
                    </g>
                    <circle fill="#462F2E" cx="173.921" cy="110.072" r="0.827"></circle>
                  </g>
                  <path fill="#26211D" d="M166.895,95.605c-6.717,5.27-9.094,12.09-9.816,14.674c0.206-2.273,0.724-5.993,2.79-9.816
								c1.032-1.861,2.171-3.411,3.202-4.548c-1.239,0.932-2.893,2.275-4.442,4.342c-2.687,3.616-3.41,7.337-3.72,9.3
								c-0.104-1.447,0-3.928,0.93-6.717c0.725-2.171,1.758-3.721,2.584-4.857c-0.826,0.724-1.964,1.757-2.895,3.307
								c-1.445,2.273-1.963,4.546-2.17,5.89c-0.104-1.033-0.207-2.584,0.207-4.443c0.311-1.447,0.826-2.584,1.24-3.411
								c-0.621,0.827-1.138,1.964-1.654,3.205c-1.342,3.617-0.93,6.82-0.618,8.68l0,0c0.103,0.827,0.103,1.032,0.103,1.137
								c-0.311-0.931-0.619-1.859-0.826-2.791c-0.312-1.033-0.619-2.582-0.518-4.442c0.104-1.859,0.518-3.307,0.932-4.237
								c-0.312,0.414-0.621,0.93-0.828,1.654c-0.517,1.239-0.517,2.376-0.412,3.099c-0.104-0.723-0.311-1.756-0.207-2.893
								c0.104-1.447,0.414-2.584,0.723-3.411c-0.309,0.414-0.93,1.344-1.135,2.584c-0.207,1.032,0,1.859,0.103,2.273
								c-0.31-0.62-0.62-1.653-0.723-2.893c-0.104-1.241,0.103-2.17,0.309-2.893c-0.309,0.413-0.825,1.447-0.723,2.996
								c0.104,0.826,0.312,1.447,0.517,1.757c-0.517-0.931-1.24-2.377-1.756-4.134c-2.171-8.472,3.408-16.016,4.546-17.463
								c1.136-1.653,6.304-8.576,15.707-9.713c5.993-0.724,10.746,1.344,12.71,2.272c-1.136-0.929-4.236-2.996-8.887-3.409
								c-4.029-0.311-7.131,1.033-8.577,1.653c2.377-0.931,7.233-2.48,13.331-1.757c2.273,0.31,7.749,1.137,12.605,5.27
								c1.345,1.138,2.273,2.274,2.895,3.101c0.206,0.311,0.725,1.24,0.62,2.376c-0.207,2.067-1.964,3.1-2.17,3.204
								c0.517-0.414,1.55-1.137,2.997-1.241c3.099-0.31,5.166,1.86,5.477,2.171c-0.518-0.414-1.344-1.034-2.584-1.344
								c-1.757-0.414-3.1,0-3.72,0.207c0.93,0.62,2.272,1.447,3.308,2.997c0.825,1.137,2.271,3.72,1.652,10.333
								c-0.311,2.686-1.034,7.853-4.547,15.19c-2.895,6.097-6.303,10.746-6.613,10.541c-0.311-0.207,1.24-5.479,3.928-10.852
								c0.724-1.447,1.963-3.721,1.446-6.303c-0.104-0.518-0.414-1.861-1.446-2.274c-1.138-0.413-2.379,0.826-2.584,0.93
								c-0.725,0.723-0.93,1.445-1.447,2.996c-0.93,2.688-1.549,4.34-1.756,4.34s-0.104-1.446,0-4.03
								c0.104-4.856-0.312-5.786-0.621-6.406c-0.824-1.343-1.859-1.343-2.995-2.274c-1.446-1.136-2.894-3.72-2.274-9.712
								C176.4,90.646,171.646,91.989,166.895,95.605z"></path>
                  <path fill="#F2B186" d="M164.518,119.579c1.551,0.621,2.688,0.517,4.236-0.103
								C168.029,121.025,165.344,121.025,164.518,119.579z"></path>
                  <path fill="#F2B186" d="M162.762,126.398c0-0.205,0.411-0.31,3.514-0.31c4.545,0.104,6.818,0.104,6.818,0.619
								c0.104,0.62-2.789,2.067-5.785,1.757C164.827,128.259,162.555,126.916,162.762,126.398z"></path>
                  <path fill="#26211D" d="M178.158,92.092c-0.311,0.311-0.621,0.827-0.93,1.55c-1.552,3.41-0.207,7.027,0.412,8.474
								c1.344,3.411,3.616,5.373,4.855,6.303c-0.825-0.825-1.963-2.065-2.893-3.823c-1.551-2.997-1.758-5.994-1.653-5.994
								s0.31,2.273,2.067,4.03c1.031,1.034,2.17,1.55,3.1,1.757c-0.725-0.517-2.48-1.757-3.411-4.237
								c-0.62-1.654-0.62-3.101-0.62-4.03c0.828-2.376,1.551-4.856,2.378-7.13c-1.964,0.207-5.89,0.827-9.817,3.307
								c-5.373,3.41-7.646,8.37-8.369,10.231c1.137-1.963,3.822-5.891,8.681-8.371C174.438,92.919,176.505,92.403,178.158,92.092z"></path>
                  <path fill="#FAD4AF" d="M184.771,113.482c0.207-1.551,0.724-2.894,1.756-5.373c0.828-2.172,1.24-2.998,2.172-3.72
								c0.412-0.31,1.137-0.826,1.962-0.723c1.344,0.207,1.965,1.963,2.067,2.271c1.239,3.412-1.653,7.752-4.342,9.818
								c-0.619,0.516-2.376,1.963-3.306,1.344C184.357,116.686,184.564,115.136,184.771,113.482z"></path>
                </g>
              </g>
            </g>
          </g>
        </g>
      </g>
    </g>
  </symbol>
</svg>