<?xml version="1.0" encoding="utf-8"?>
<!-- Generator: Adobe Illustrator 16.0.0, SVG Export Plug-In . SVG Version: 6.00 Build 0)  -->
<!DOCTYPE svg PUBLIC "-//W3C//DTD SVG 1.1//EN" "http://www.w3.org/Graphics/SVG/1.1/DTD/svg11.dtd">
<svg version="1.1" id="Layer_2" xmlns="http://www.w3.org/2000/svg" xmlns:xlink="http://www.w3.org/1999/xlink" x="0px" y="0px"
	 width="1080px" height="1080px" viewBox="0 0 1080 1080" enable-background="new 0 0 1080 1080" xml:space="preserve">
<defs>
	<filter id="Adobe_OpacityMaskFilter" filterUnits="userSpaceOnUse" x="-151.727" y="-245.816" width="1255.675" height="930.718">
		<feColorMatrix  type="matrix" values="1 0 0 0 0  0 1 0 0 0  0 0 1 0 0  0 0 0 1 0"/>
	</filter>
</defs>
<mask maskUnits="userSpaceOnUse" x="-151.727" y="-245.816" width="1255.675" height="930.718" id="mask0_362_221_2_">
	<rect x="4.483" y="0.202" fill="#FA6E5A" filter="url(#Adobe_OpacityMaskFilter)" width="1158.72" height="750.535"/>
</mask>
<g mask="url(#mask0_362_221_2_)">
	<path fill="#808AFF" d="M88.575,233.574c-167.883,28.835-210.676-69.684-240.302-126.156v-353.234h579.359V399.38H325.587
		C270.725,329.692,256.458,204.735,88.575,233.574z"/>
	<path fill="#808AFF" d="M766.692,233.574c167.884,28.835,210.677-69.684,240.304-126.156v-353.234H427.632V399.38h102.047
		C584.542,329.692,598.809,204.735,766.692,233.574z"/>
	<g>
		<g>
			<defs>
				<rect id="SVGID_1_" x="992.03" y="289.881" width="92.169" height="111.922"/>
			</defs>
			<clipPath id="SVGID_2_">
				<use xlink:href="#SVGID_1_"  overflow="visible"/>
			</clipPath>
			<g clip-path="url(#SVGID_2_)">
				<path fill="#9BA3FF" d="M1014.326,289.881H992.03v111.922h22.296V289.881z"/>
				<path fill="#9BA3FF" d="M1049.262,327.5h-22.297v74.304h22.297V327.5z"/>
				<path fill="#9BA3FF" d="M1084.244,362.96h-22.291v38.843h22.291V362.96z"/>
			</g>
		</g>
	</g>
	<g>
		<g>
			<defs>
				<rect id="SVGID_3_" x="893.274" y="513.726" width="210.674" height="171.176"/>
			</defs>
			<clipPath id="SVGID_4_">
				<use xlink:href="#SVGID_3_"  overflow="visible"/>
			</clipPath>
			<g clip-path="url(#SVGID_4_)">
				<path fill="#3F4553" d="M1024.883,684.604l73.372-24.586l-36.781-107.976l-73.378,24.601c-2.884,0.958-4.438,4.043-3.441,6.892
					l33.271,97.635C1018.889,684.02,1022.002,685.569,1024.883,684.604z"/>
				<path fill="#DDDDE3" d="M1024.934,682.469l75.205-25.202l-35.441-104.001l-75.201,25.211c-1.858,0.609-2.856,2.603-2.239,4.48
					l33.165,97.308C1021.063,682.103,1023.076,683.087,1024.934,682.469z"/>
				<path fill="#E2E5FF" d="M1026.516,681.943l75.211-25.204l-35.439-104.001l-75.209,25.202c-1.853,0.618-2.856,2.61-2.225,4.476
					l33.144,97.316C1022.646,681.569,1024.664,682.586,1026.516,681.943z"/>
				<path fill="#4E5567" d="M1030.58,682.688l73.368-24.599l-36.781-107.942L993.79,574.74c-2.88,0.956-4.44,4.044-3.44,6.905
					l33.265,97.635C1024.587,682.129,1027.696,683.639,1030.58,682.688z"/>
				<path fill="#3F4553" d="M1063.06,551.529l-1.581,0.527l36.788,107.975l1.575-0.525L1063.06,551.529z"/>
				<path fill="#93BFA8" d="M1073.54,635.869l1.64-3.459l3.44,1.757l-26.875-78.845c-0.484-1.387-1.686-1.279-3.089-0.796
					c-1.4,0.474-2.443,1.118-1.953,2.5L1073.54,635.869z"/>
				<path fill="#3F4553" d="M908.666,580.154l49.389-58.067l-9.984-8.35l-49.384,58.07L908.666,580.154z"/>
				<path fill="#F2EDE4" d="M898.674,571.783l9.974,8.345l-14.41,7.856c-0.468,0.271-1.115-0.296-0.957-0.798L898.674,571.783z"/>
				<path fill="#3F4553" d="M894.263,588.01l3.905-2.127l-3.39-2.849l-1.453,4.152C893.145,587.688,893.788,588.255,894.263,588.01z
					"/>
				<path fill="#4E5567" d="M905.36,577.388l49.384-58.066l-3.389-2.837l-49.388,58.068L905.36,577.388z"/>
			</g>
		</g>
	</g>
	<g>
		<g>
			<defs>
				<rect id="SVGID_5_" x="248.079" y="19.953" width="230.428" height="230.427"/>
			</defs>
			<clipPath id="SVGID_6_">
				<use xlink:href="#SVGID_5_"  overflow="visible"/>
			</clipPath>
			<g clip-path="url(#SVGID_6_)">
				<path fill="#808AFF" d="M363.31,19.953c-63.663,0-115.231,51.569-115.231,115.233c0,63.624,51.569,115.227,115.231,115.227
					c63.624,0,115.226-51.57,115.226-115.227C478.506,71.522,426.934,19.953,363.31,19.953z M363.31,230.926
					c-52.877,0-95.739-42.865-95.739-95.74c0-52.878,42.862-95.739,95.739-95.739c52.882,0,95.74,42.861,95.74,95.739
					C459.05,188.066,416.192,230.926,363.31,230.926z"/>
				<path fill="#AEB4FC" d="M451.648,172.1c20.405-48.783-2.605-104.869-51.396-125.266c-48.785-20.405-104.87,2.607-125.267,51.391
					c-20.403,48.784,2.606,104.87,51.391,125.268C375.164,243.89,431.246,220.885,451.648,172.1z"/>
				<path fill="#808AFF" d="M363.496,48.015c-6.719,0-6.75,10.446,0,10.446C370.244,58.461,370.252,48.015,363.496,48.015z"/>
				<path fill="#808AFF" d="M450.443,135.366c0-6.719-10.455-6.751-10.455,0C439.989,142.113,450.443,142.113,450.443,135.366z"/>
				<path fill="#808AFF" d="M363.085,222.32c6.719,0,6.75-10.449,0-10.449C356.374,211.871,356.331,222.32,363.085,222.32z"/>
				<path fill="#808AFF" d="M276.139,134.967c0,6.718,10.454,6.75,10.454,0C286.593,128.255,276.139,128.212,276.139,134.967z"/>
				<path fill="#808AFF" d="M404.464,163.165c-0.616,0-1.237-0.145-1.777-0.506l-41.194-24.497
					c-1.052-0.613-1.707-1.777-1.707-3.014V69.311c0-1.922,1.564-3.485,3.485-3.485c1.923,0,3.482,1.563,3.482,3.485v63.882
					l39.488,23.476c1.673,0.98,2.213,3.122,1.201,4.792C406.827,162.549,405.671,163.165,404.464,163.165z"/>
			</g>
		</g>
	</g>
	<path fill="#9BA3FF" d="M133.662,371.567l-2.3-13.045l-13.331,2.272c-2.116-6.088-5.564-11.446-10.02-15.813l7.815-10.955
		l-10.943-7.594l-7.771,10.91c-5.61-2.726-11.862-4.226-18.388-4.178l-2.344-13.223l-13.204,2.267l2.298,13.181
		c-6.164,2.085-11.591,5.498-16,9.907l-11.082-7.722l-7.677,10.817l11.036,7.684c-2.759,5.542-4.271,11.724-4.233,18.175
		l-13.287,2.268l2.298,13.042l13.333-2.272c2.11,6.088,5.56,11.45,10.019,15.815l-7.814,10.947l10.942,7.592l7.766-10.911
		c5.61,2.726,11.867,4.228,18.388,4.185l2.352,13.224l13.194-2.271l-2.298-13.184c6.162-2.086,11.589-5.497,16-9.908l11.078,7.732
		l7.685-10.817l-11.037-7.682c2.759-5.546,4.274-11.729,4.235-18.18L133.662,371.567z M81.063,386.148
		c-6.761,1.182-13.193-3.318-14.392-10.001c-1.195-6.683,3.359-13.042,10.113-14.221c6.76-1.185,13.194,3.32,14.392,10
		C92.375,378.609,87.866,384.968,81.063,386.148z"/>
	<path fill="#AEB4FC" d="M259.454,345.251v-16.406h-16.78c-1.239-7.909-4.32-15.178-8.832-21.45l11.91-11.771l-11.724-11.589
		l-11.863,11.729c-6.303-4.499-13.609-7.639-21.607-8.953V270.13h-16.597v16.591c-8.001,1.231-15.401,4.273-21.703,8.722
		l-11.907-11.77l-11.726,11.586l11.861,11.726c-4.549,6.227-7.721,13.451-9.053,21.362h-16.873v16.407h16.784
		c1.237,7.908,4.324,15.182,8.827,21.449l-11.909,11.771l11.726,11.589l11.862-11.728c6.301,4.504,13.61,7.638,21.609,8.953v16.679
		h16.597v-16.591c7.999-1.225,15.361-4.272,21.7-8.721l11.91,11.768l11.724-11.585l-11.864-11.724
		c4.55-6.224,7.722-13.453,9.061-21.358h16.866V345.251z M192.004,352.063c-8.505,0-15.443-6.819-15.443-15.267
		c0-8.405,6.893-15.265,15.443-15.265c8.505,0,15.455,6.817,15.455,15.265C207.401,345.203,200.509,352.063,192.004,352.063z"/>
	<g opacity="0.3">
		<path fill="#ECECEC" d="M1038.081,223.366l-123.307-27.708c-1.209-0.263-1.976-1.469-1.692-2.678l15.528-69.128
			c0.264-1.206,1.471-1.977,2.673-1.694l123.302,27.737c1.224,0.263,1.977,1.474,1.69,2.681l-15.54,69.128
			C1040.469,222.888,1039.283,223.651,1038.081,223.366z"/>
		<path fill="#F5F4F5" d="M915.12,194.03c-0.319-0.065-0.526-0.396-0.431-0.704l15.542-69.128c0.069-0.327,0.399-0.527,0.7-0.44
			l123.309,27.735c0.327,0.067,0.514,0.396,0.438,0.705l-15.563,69.128c-0.062,0.332-0.387,0.526-0.692,0.44L915.12,194.03z"/>
		<path fill="#706F6E" d="M1037.239,145.971l-88.57-19.916l-0.359,1.605l88.57,19.914L1037.239,145.971z"/>
		<path fill="#585857" d="M940.054,135.99l-4.089-0.923c-0.502-0.113-0.834-0.61-0.721-1.138l0.631-2.877
			c0.121-0.508,0.617-0.829,1.146-0.722l4.089,0.922c0.502,0.109,0.835,0.616,0.718,1.145l-0.63,2.876
			C941.062,135.771,940.558,136.101,940.054,135.99z"/>
		<path fill="#5E5E5D" d="M936.146,134.25c-0.071-0.019-0.117-0.084-0.09-0.151l0.628-2.877c0.024-0.063,0.09-0.112,0.163-0.09
			l4.082,0.919c0.065,0.022,0.107,0.094,0.089,0.152l-0.643,2.877c-0.012,0.068-0.078,0.111-0.147,0.086L936.146,134.25z"/>
		<path fill="#585857" d="M947.539,137.655l-4.084-0.923c-0.509-0.109-0.836-0.612-0.728-1.137l0.645-2.877
			c0.107-0.508,0.618-0.83,1.146-0.724l4.073,0.922c0.5,0.109,0.842,0.61,0.721,1.138l-0.631,2.877
			C948.552,137.465,948.041,137.774,947.539,137.655z"/>
		<path fill="#5E5E5D" d="M943.627,135.943c-0.062-0.017-0.112-0.085-0.096-0.153l0.649-2.874c0.012-0.067,0.085-0.112,0.144-0.086
			l4.089,0.921c0.07,0.02,0.116,0.084,0.09,0.152l-0.644,2.876c-0.021,0.065-0.092,0.112-0.143,0.084L943.627,135.943z"/>
		<path fill="#585857" d="M955.027,139.346l-4.089-0.92c-0.494-0.111-0.829-0.613-0.727-1.138l0.648-2.88
			c0.124-0.505,0.612-0.831,1.146-0.724l4.082,0.923c0.509,0.111,0.836,0.609,0.721,1.136l-0.643,2.878
			C956.035,139.129,955.535,139.458,955.027,139.346z"/>
		<path fill="#5E5E5D" d="M951.119,137.616c-0.073-0.019-0.108-0.093-0.086-0.151l0.64-2.877c0.018-0.068,0.081-0.112,0.146-0.087
			l4.091,0.923c0.063,0.019,0.101,0.089,0.087,0.15l-0.64,2.878c-0.026,0.064-0.092,0.114-0.149,0.087L951.119,137.616z"/>
		<path fill="#585857" d="M962.519,141.021l-4.089-0.922c-0.501-0.113-0.838-0.611-0.716-1.138l0.638-2.876
			c0.115-0.51,0.616-0.837,1.144-0.728l4.077,0.922c0.51,0.113,0.847,0.621,0.726,1.145l-0.635,2.88
			C963.527,140.821,963.02,141.153,962.519,141.021z"/>
		<path fill="#5E5E5D" d="M958.608,139.3c-0.065-0.019-0.109-0.084-0.091-0.151l0.639-2.876c0.018-0.065,0.083-0.113,0.146-0.094
			l4.089,0.924c0.071,0.018,0.11,0.092,0.091,0.15l-0.642,2.877c-0.014,0.068-0.078,0.113-0.151,0.087L958.608,139.3z"/>
		<path fill="#585857" d="M969.977,142.712l-4.077-0.923c-0.507-0.109-0.836-0.61-0.727-1.138l0.637-2.877
			c0.114-0.508,0.615-0.83,1.144-0.724l4.078,0.92c0.515,0.111,0.833,0.613,0.725,1.141l-0.631,2.877
			C971.018,142.515,970.503,142.818,969.977,142.712z"/>
		<path fill="#5E5E5D" d="M966.092,140.998c-0.064-0.02-0.107-0.091-0.081-0.151l0.636-2.877c0.025-0.063,0.096-0.109,0.154-0.084
			l4.082,0.919c0.063,0.023,0.107,0.093,0.091,0.155l-0.639,2.876c-0.019,0.064-0.088,0.112-0.153,0.084L966.092,140.998z"/>
		<path fill="#585857" d="M977.473,144.396l-4.09-0.919c-0.502-0.113-0.829-0.616-0.717-1.141l0.626-2.877
			c0.124-0.505,0.626-0.836,1.159-0.724l4.081,0.922c0.496,0.113,0.838,0.617,0.714,1.145l-0.635,2.876
			C978.5,144.18,978,144.508,977.473,144.396z"/>
		<path fill="#5E5E5D" d="M973.582,142.667c-0.071-0.022-0.107-0.086-0.083-0.151l0.637-2.877c0.021-0.068,0.084-0.112,0.147-0.093
			l4.075,0.923c0.079,0.019,0.115,0.091,0.104,0.151l-0.648,2.876c-0.021,0.064-0.084,0.114-0.147,0.084L973.582,142.667z"/>
		<path fill="#585857" d="M984.957,146.071l-4.077-0.929c-0.514-0.112-0.837-0.614-0.731-1.141l0.648-2.874
			c0.109-0.508,0.623-0.832,1.139-0.726l4.081,0.922c0.51,0.113,0.837,0.611,0.713,1.139l-0.629,2.877
			C985.989,145.871,985.464,146.2,984.957,146.071z"/>
		<path fill="#5E5E5D" d="M981.074,144.357c-0.065-0.02-0.116-0.094-0.092-0.152l0.636-2.877c0.021-0.067,0.096-0.112,0.161-0.086
			l4.076,0.923c0.07,0.019,0.116,0.086,0.091,0.151l-0.631,2.876c-0.024,0.068-0.104,0.113-0.16,0.094L981.074,144.357z"/>
		<path fill="#585857" d="M992.453,147.761l-4.089-0.922c-0.503-0.113-0.835-0.617-0.727-1.138l0.635-2.876
			c0.122-0.509,0.618-0.836,1.146-0.727l4.089,0.921c0.502,0.114,0.834,0.616,0.719,1.142l-0.643,2.874
			C993.456,147.562,992.954,147.875,992.453,147.761z"/>
		<path fill="#5E5E5D" d="M988.558,146.042c-0.064-0.02-0.104-0.083-0.086-0.151l0.637-2.876c0.025-0.064,0.091-0.113,0.154-0.094
			l4.082,0.923c0.066,0.02,0.111,0.086,0.091,0.151l-0.637,2.878c-0.024,0.067-0.09,0.113-0.153,0.086L988.558,146.042z"/>
		<path fill="#585857" d="M999.937,149.446l-4.084-0.923c-0.507-0.107-0.833-0.609-0.726-1.136l0.643-2.878
			c0.109-0.508,0.619-0.83,1.146-0.723l4.074,0.923c0.501,0.11,0.843,0.611,0.734,1.137l-0.644,2.877
			C1000.954,149.228,1000.438,149.565,999.937,149.446z"/>
		<path fill="#5E5E5D" d="M996.028,147.717c-0.063-0.024-0.114-0.094-0.098-0.155l0.648-2.876c0.013-0.065,0.085-0.109,0.142-0.084
			l4.083,0.922c0.065,0.02,0.124,0.083,0.099,0.151l-0.645,2.877c-0.021,0.063-0.091,0.109-0.143,0.089L996.028,147.717z"/>
		<path fill="#585857" d="M1007.419,151.118l-4.083-0.919c-0.507-0.112-0.834-0.621-0.726-1.142l0.649-2.877
			c0.112-0.504,0.613-0.836,1.142-0.723l4.086,0.924c0.501,0.108,0.831,0.609,0.721,1.137l-0.644,2.877
			C1008.435,150.922,1007.93,151.248,1007.419,151.118z"/>
		<path fill="#5E5E5D" d="M1003.518,149.408c-0.069-0.02-0.108-0.087-0.095-0.151l0.642-2.876c0.02-0.069,0.09-0.114,0.154-0.088
			l4.089,0.923c0.065,0.019,0.101,0.084,0.078,0.151l-0.631,2.878c-0.033,0.063-0.097,0.112-0.156,0.084L1003.518,149.408z"/>
		<path fill="#585857" d="M1014.915,152.812l-4.086-0.923c-0.502-0.113-0.837-0.621-0.722-1.145l0.636-2.876
			c0.124-0.507,0.624-0.833,1.152-0.726l4.088,0.921c0.497,0.113,0.835,0.611,0.714,1.138l-0.649,2.877
			C1015.918,152.612,1015.418,152.925,1014.915,152.812z"/>
		<path fill="#5E5E5D" d="M1011.001,151.098c-0.063-0.019-0.108-0.09-0.09-0.15l0.637-2.878c0.026-0.063,0.091-0.113,0.155-0.083
			l4.089,0.919c0.063,0.02,0.108,0.086,0.083,0.151l-0.637,2.884c-0.024,0.067-0.098,0.113-0.154,0.086L1011.001,151.098z"/>
		<path fill="#585857" d="M1022.399,154.503l-4.081-0.924c-0.509-0.108-0.834-0.616-0.727-1.137l0.631-2.877
			c0.121-0.508,0.627-0.834,1.143-0.724l4.09,0.92c0.501,0.112,0.836,0.613,0.721,1.14l-0.631,2.877
			C1023.404,154.278,1022.902,154.615,1022.399,154.503z"/>
		<path fill="#5E5E5D" d="M1018.492,152.763c-0.071-0.018-0.11-0.089-0.092-0.15l0.645-2.876c0.012-0.064,0.09-0.113,0.146-0.084
			l4.09,0.918c0.064,0.02,0.109,0.089,0.083,0.152l-0.636,2.877c-0.018,0.068-0.083,0.112-0.147,0.092L1018.492,152.763z"/>
		<path fill="#585857" d="M1029.891,156.168l-4.089-0.923c-0.508-0.109-0.834-0.61-0.726-1.138l0.649-2.877
			c0.103-0.508,0.608-0.835,1.138-0.722l4.089,0.918c0.488,0.113,0.828,0.615,0.72,1.141l-0.642,2.878
			C1030.9,155.972,1030.395,156.3,1029.891,156.168z"/>
		<path fill="#5E5E5D" d="M1025.98,154.458c-0.07-0.022-0.107-0.086-0.081-0.152l0.628-2.879c0.027-0.064,0.092-0.108,0.156-0.083
			l4.074,0.923c0.077,0.019,0.116,0.084,0.091,0.151l-0.636,2.876c-0.025,0.066-0.092,0.114-0.148,0.091L1025.98,154.458z"/>
		<path fill="#585857" d="M1037.381,157.862l-4.09-0.93c-0.502-0.112-0.834-0.613-0.713-1.141l0.631-2.876
			c0.123-0.505,0.622-0.829,1.15-0.723l4.078,0.922c0.505,0.113,0.832,0.61,0.724,1.138l-0.635,2.877
			C1038.389,157.663,1037.883,157.972,1037.381,157.862z"/>
		<path fill="#5E5E5D" d="M1033.465,156.149c-0.065-0.021-0.109-0.088-0.082-0.152l0.636-2.876c0.021-0.068,0.085-0.112,0.146-0.086
			l4.091,0.922c0.07,0.019,0.107,0.086,0.091,0.151l-0.644,2.877c-0.013,0.067-0.091,0.112-0.149,0.087L1033.465,156.149z"/>
		<path fill="#585857" d="M1044.84,159.553l-4.078-0.923c-0.506-0.112-0.834-0.621-0.725-1.138l0.635-2.883
			c0.103-0.502,0.618-0.83,1.146-0.727l4.076,0.923c0.506,0.113,0.834,0.614,0.726,1.142l-0.636,2.874
			C1045.882,159.328,1045.366,159.665,1044.84,159.553z"/>
		<path fill="#5E5E5D" d="M1040.957,157.814c-0.064-0.02-0.11-0.089-0.086-0.152l0.638-2.877c0.025-0.067,0.097-0.112,0.153-0.093
			l4.081,0.921c0.065,0.02,0.112,0.088,0.087,0.152l-0.632,2.875c-0.024,0.069-0.089,0.113-0.161,0.087L1040.957,157.814z"/>
		<path fill="#585857" d="M935.875,136.054l5.058,1.141c0.576,0.132,0.948,0.697,0.805,1.295l-1.117,4.963
			c-0.129,0.566-0.694,0.942-1.287,0.817l-5.053-1.146c-0.579-0.132-0.951-0.697-0.823-1.295l1.119-4.966
			C934.711,136.297,935.283,135.927,935.875,136.054z"/>
		<path fill="#5E5E5D" d="M934.474,142.31c-0.13-0.02-0.22-0.177-0.193-0.302l1.117-4.964c0.015-0.139,0.176-0.226,0.31-0.199
			l5.054,1.137c0.143,0.024,0.22,0.18,0.198,0.312l-1.117,4.964c-0.032,0.132-0.179,0.219-0.315,0.196L934.474,142.31z"/>
		<path fill="#585857" d="M944.509,138.012l5.046,1.137c0.58,0.132,0.942,0.706,0.813,1.296l-1.121,4.966
			c-0.13,0.573-0.695,0.948-1.285,0.816l-5.062-1.14c-0.563-0.131-0.942-0.705-0.81-1.296l1.119-4.962
			C943.348,138.227,943.912,137.88,944.509,138.012z"/>
		<path fill="#5E5E5D" d="M943.101,144.264c-0.135-0.019-0.217-0.176-0.19-0.309l1.119-4.957c0.017-0.132,0.163-0.225,0.301-0.2
			l5.061,1.142c0.134,0.02,0.218,0.177,0.19,0.309l-1.126,4.962c-0.017,0.132-0.171,0.219-0.301,0.199L943.101,144.264z"/>
		<path fill="#585857" d="M953.138,139.947l5.06,1.137c0.571,0.132,0.947,0.705,0.809,1.299l-1.117,4.964
			c-0.135,0.572-0.7,0.949-1.291,0.818l-5.063-1.149c-0.562-0.138-0.943-0.704-0.81-1.294l1.12-4.963
			C951.98,140.185,952.571,139.814,953.138,139.947z"/>
		<path fill="#5E5E5D" d="M951.737,146.2c-0.138-0.02-0.229-0.172-0.203-0.31l1.12-4.957c0.026-0.131,0.174-0.225,0.31-0.195
			l5.061,1.138c0.134,0.019,0.217,0.176,0.19,0.308l-1.123,4.964c-0.026,0.132-0.167,0.219-0.309,0.199L951.737,146.2z"/>
		<path fill="#585857" d="M961.772,141.875l5.046,1.138c0.572,0.132,0.945,0.703,0.816,1.298l-1.123,4.963
			c-0.138,0.572-0.702,0.948-1.294,0.817l-5.054-1.141c-0.565-0.129-0.938-0.706-0.808-1.296l1.116-4.963
			C960.602,142.12,961.195,141.744,961.772,141.875z"/>
		<path fill="#5E5E5D" d="M960.371,148.158c-0.142-0.023-0.225-0.18-0.201-0.313l1.118-4.958c0.021-0.131,0.174-0.22,0.304-0.194
			l5.055,1.138c0.141,0.019,0.216,0.177,0.199,0.309l-1.12,4.966c-0.024,0.131-0.174,0.216-0.309,0.196L960.371,148.158z"/>
		<path fill="#585857" d="M970.4,143.83l5.055,1.141c0.564,0.129,0.943,0.705,0.807,1.295l-1.116,4.964
			c-0.138,0.565-0.701,0.949-1.292,0.816l-5.061-1.145c-0.572-0.131-0.939-0.698-0.811-1.292l1.119-4.963
			C969.257,144.048,969.828,143.698,970.4,143.83z"/>
		<path fill="#5E5E5D" d="M968.994,150.086c-0.137-0.02-0.222-0.171-0.201-0.305l1.118-4.963c0.026-0.132,0.181-0.216,0.311-0.198
			l5.06,1.145c0.133,0.02,0.22,0.17,0.186,0.306l-1.12,4.962c-0.013,0.132-0.165,0.223-0.308,0.197L968.994,150.086z"/>
		<path fill="#585857" d="M979.028,145.76l5.056,1.14c0.565,0.13,0.938,0.704,0.809,1.296l-1.12,4.963
			c-0.126,0.573-0.706,0.948-1.297,0.816l-5.046-1.138c-0.574-0.131-0.947-0.704-0.813-1.298l1.12-4.964
			C977.883,146.002,978.462,145.628,979.028,145.76z"/>
		<path fill="#5E5E5D" d="M977.628,152.021c-0.137-0.021-0.222-0.178-0.192-0.31l1.116-4.958c0.02-0.135,0.167-0.223,0.309-0.197
			l5.056,1.136c0.134,0.024,0.21,0.182,0.193,0.314l-1.12,4.957c-0.026,0.138-0.168,0.221-0.31,0.195L977.628,152.021z"/>
		<path fill="#585857" d="M987.663,147.717l5.046,1.137c0.579,0.131,0.951,0.698,0.812,1.296l-1.117,4.966
			c-0.132,0.566-0.696,0.938-1.302,0.806l-5.047-1.137c-0.57-0.132-0.938-0.705-0.805-1.295l1.12-4.968
			C986.518,147.932,987.093,147.582,987.663,147.717z"/>
		<path fill="#5E5E5D" d="M986.253,153.969c-0.126-0.02-0.216-0.169-0.198-0.301l1.125-4.964c0.013-0.132,0.178-0.219,0.31-0.2
			l5.056,1.142c0.139,0.019,0.203,0.176,0.189,0.302l-1.117,4.964c-0.028,0.132-0.175,0.224-0.309,0.197L986.253,153.969z"/>
		<path fill="#585857" d="M996.311,149.652l5.054,1.138c0.572,0.138,0.939,0.704,0.81,1.296l-1.121,4.959
			c-0.125,0.573-0.692,0.945-1.296,0.817l-5.047-1.141c-0.573-0.131-0.946-0.703-0.811-1.295l1.12-4.963
			C995.151,149.887,995.718,149.52,996.311,149.652z"/>
		<path fill="#5E5E5D" d="M994.884,155.904c-0.129-0.019-0.22-0.176-0.194-0.307l1.124-4.958c0.021-0.131,0.178-0.227,0.311-0.201
			l5.06,1.141c0.129,0.02,0.206,0.177,0.187,0.31l-1.119,4.963c-0.019,0.132-0.175,0.219-0.309,0.199L994.884,155.904z"/>
		<path fill="#585857" d="M1004.938,151.58l5.055,1.139c0.565,0.132,0.951,0.703,0.811,1.295l-1.118,4.966
			c-0.13,0.573-0.696,0.946-1.299,0.817l-5.05-1.148c-0.569-0.132-0.941-0.699-0.804-1.296l1.121-4.956
			C1003.781,151.825,1004.349,151.45,1004.938,151.58z"/>
		<path fill="#5E5E5D" d="M1003.536,157.862c-0.127-0.021-0.218-0.18-0.2-0.312l1.126-4.964c0.026-0.13,0.175-0.219,0.312-0.196
			l5.052,1.137c0.141,0.021,0.205,0.178,0.192,0.309l-1.12,4.957c-0.022,0.132-0.174,0.225-0.308,0.199L1003.536,157.862z"/>
		<path fill="#585857" d="M1013.565,153.536l5.06,1.143c0.566,0.132,0.947,0.697,0.812,1.292l-1.118,4.963
			c-0.135,0.572-0.701,0.95-1.297,0.817l-5.049-1.138c-0.582-0.135-0.944-0.707-0.81-1.3l1.119-4.964
			C1012.408,153.752,1012.975,153.404,1013.565,153.536z"/>
		<path fill="#5E5E5D" d="M1012.166,159.797c-0.129-0.022-0.22-0.18-0.193-0.306l1.123-4.963c0.021-0.132,0.176-0.224,0.312-0.196
			l5.06,1.139c0.128,0.02,0.206,0.177,0.185,0.309l-1.116,4.961c-0.026,0.135-0.177,0.218-0.312,0.201L1012.166,159.797z"/>
		<path fill="#585857" d="M1022.201,155.464l5.046,1.138c0.578,0.131,0.96,0.704,0.825,1.299l-1.119,4.963
			c-0.136,0.573-0.701,0.947-1.298,0.815l-5.035-1.143c-0.573-0.132-0.939-0.7-0.804-1.293l1.118-4.963
			C1021.043,155.708,1021.609,155.332,1022.201,155.464z"/>
		<path fill="#5E5E5D" d="M1020.8,161.726c-0.135-0.019-0.226-0.173-0.199-0.305l1.12-4.964c0.024-0.132,0.178-0.222,0.307-0.197
			l5.06,1.139c0.135,0.02,0.214,0.177,0.187,0.309l-1.143,4.964c-0.021,0.135-0.163,0.219-0.303,0.199L1020.8,161.726z"/>
		<path fill="#585857" d="M1030.835,157.419l5.055,1.147c0.571,0.132,0.951,0.697,0.817,1.295l-1.119,4.957
			c-0.135,0.573-0.708,0.947-1.299,0.815l-5.062-1.138c-0.563-0.132-0.944-0.703-0.81-1.298l1.127-4.964
			C1029.667,157.644,1030.257,157.287,1030.835,157.419z"/>
		<path fill="#5E5E5D" d="M1029.434,163.679c-0.133-0.017-0.219-0.17-0.206-0.3l1.12-4.963c0.033-0.135,0.18-0.225,0.319-0.201
			l5.05,1.139c0.135,0.02,0.217,0.18,0.198,0.312l-1.12,4.964c-0.026,0.132-0.18,0.215-0.308,0.196L1029.434,163.679z"/>
		<path fill="#585857" d="M1039.466,159.354l5.051,1.142c0.566,0.132,0.945,0.703,0.811,1.295l-1.124,4.963
			c-0.136,0.572-0.7,0.949-1.292,0.817l-5.053-1.139c-0.566-0.132-0.941-0.704-0.81-1.3l1.142-4.961
			C1038.293,159.592,1038.891,159.222,1039.466,159.354z"/>
		<path fill="#5E5E5D" d="M1038.056,165.616c-0.135-0.02-0.219-0.176-0.197-0.309l1.123-4.964c0.021-0.132,0.173-0.218,0.302-0.198
			l5.056,1.143c0.134,0.024,0.216,0.173,0.189,0.312l-1.116,4.957c-0.021,0.132-0.162,0.223-0.303,0.196L1038.056,165.616z"/>
		<path fill="#585857" d="M934.051,144.093l5.052,1.139c0.572,0.132,0.951,0.696,0.815,1.298l-1.117,4.963
			c-0.137,0.566-0.701,0.943-1.301,0.817l-5.046-1.145c-0.58-0.132-0.952-0.697-0.816-1.298l1.146-4.963
			C932.917,144.338,933.482,143.961,934.051,144.093z"/>
		<path fill="#5E5E5D" d="M932.648,150.356c-0.138-0.02-0.212-0.178-0.194-0.313l1.119-4.962c0.019-0.131,0.179-0.215,0.309-0.197
			l5.053,1.138c0.136,0.02,0.213,0.171,0.194,0.303l-1.121,4.967c-0.024,0.128-0.179,0.221-0.31,0.196L932.648,150.356z"/>
		<path fill="#585857" d="M942.71,146.042l5.046,1.147c0.584,0.132,0.952,0.699,0.81,1.297l-1.117,4.963
			c-0.129,0.565-0.688,0.941-1.279,0.81l-5.06-1.138c-0.566-0.132-0.944-0.697-0.813-1.296l1.12-4.967
			C941.546,146.266,942.117,145.916,942.71,146.042z"/>
		<path fill="#5E5E5D" d="M941.281,152.31c-0.136-0.019-0.22-0.177-0.198-0.309l1.118-4.966c0.025-0.129,0.181-0.216,0.309-0.195
			l5.059,1.147c0.136,0.02,0.222,0.171,0.188,0.309l-1.12,4.956c-0.012,0.131-0.166,0.226-0.307,0.197L941.281,152.31z"/>
		<path fill="#585857" d="M951.33,147.978l5.06,1.14c0.566,0.131,0.948,0.704,0.81,1.295l-1.118,4.963
			c-0.133,0.577-0.699,0.949-1.3,0.817l-5.045-1.137c-0.58-0.132-0.938-0.706-0.809-1.296l1.115-4.967
			C950.174,148.221,950.74,147.845,951.33,147.978z"/>
		<path fill="#5E5E5D" d="M949.931,154.239c-0.139-0.019-0.214-0.177-0.194-0.309l1.119-4.963c0.026-0.131,0.178-0.219,0.307-0.2
			l5.056,1.142c0.133,0.02,0.212,0.177,0.193,0.303l-1.12,4.963c-0.021,0.132-0.18,0.225-0.31,0.196L949.931,154.239z"/>
		<path fill="#585857" d="M959.966,149.915l5.045,1.139c0.579,0.132,0.961,0.703,0.827,1.295l-1.119,4.966
			c-0.136,0.573-0.702,0.945-1.303,0.814l-5.052-1.139c-0.573-0.132-0.945-0.706-0.812-1.294l1.119-4.964
			C958.802,150.15,959.374,149.781,959.966,149.915z"/>
		<path fill="#5E5E5D" d="M958.564,156.168c-0.135-0.019-0.224-0.176-0.2-0.308l1.117-4.963c0.026-0.132,0.182-0.22,0.311-0.199
			l5.06,1.141c0.135,0.019,0.22,0.176,0.188,0.309l-1.119,4.957c-0.026,0.138-0.167,0.225-0.31,0.197L958.564,156.168z"/>
		<path fill="#585857" d="M968.6,151.87l5.054,1.139c0.566,0.131,0.938,0.703,0.81,1.296l-1.12,4.964
			c-0.126,0.567-0.704,0.949-1.297,0.818l-5.045-1.149c-0.576-0.131-0.948-0.698-0.813-1.289l1.12-4.963
			C967.442,152.086,968.033,151.737,968.6,151.87z"/>
		<path fill="#5E5E5D" d="M967.198,158.122c-0.133-0.019-0.233-0.176-0.193-0.308l1.119-4.964c0.017-0.132,0.168-0.22,0.308-0.196
			l5.055,1.137c0.136,0.019,0.212,0.178,0.193,0.31l-1.12,4.963c-0.026,0.131-0.168,0.219-0.308,0.199L967.198,158.122z"/>
		<path fill="#585857" d="M977.229,153.8l5.053,1.136c0.566,0.132,0.951,0.704,0.811,1.298l-1.119,4.963
			c-0.128,0.566-0.694,0.948-1.298,0.811l-5.048-1.142c-0.573-0.132-0.945-0.696-0.817-1.294l1.12-4.964
			C976.063,154.042,976.655,153.668,977.229,153.8z"/>
		<path fill="#5E5E5D" d="M975.827,160.061c-0.128-0.022-0.219-0.18-0.2-0.305l1.125-4.963c0.012-0.139,0.175-0.223,0.309-0.197
			l5.055,1.138c0.141,0.02,0.204,0.177,0.192,0.309l-1.118,4.963c-0.025,0.132-0.175,0.218-0.31,0.2L975.827,160.061z"/>
		<path fill="#585857" d="M985.855,155.753l5.06,1.138c0.575,0.132,0.948,0.707,0.811,1.299l-1.119,4.961
			c-0.133,0.573-0.708,0.949-1.298,0.817l-5.061-1.137c-0.565-0.132-0.938-0.708-0.81-1.299l1.133-4.963
			C984.71,155.972,985.291,155.623,985.855,155.753z"/>
		<path fill="#5E5E5D" d="M984.456,162.015c-0.136-0.019-0.22-0.179-0.208-0.308l1.141-4.961c0.018-0.138,0.161-0.222,0.299-0.196
			l5.055,1.138c0.134,0.02,0.22,0.18,0.194,0.31l-1.12,4.966c-0.018,0.132-0.168,0.215-0.302,0.197L984.456,162.015z"/>
		<path fill="#585857" d="M994.491,157.682l5.045,1.138c0.579,0.131,0.951,0.707,0.813,1.298l-1.12,4.964
			c-0.129,0.565-0.687,0.947-1.296,0.816l-5.05-1.145c-0.563-0.131-0.943-0.696-0.81-1.299l1.119-4.956
			C993.345,157.927,993.919,157.55,994.491,157.682z"/>
		<path fill="#5E5E5D" d="M993.081,163.943c-0.127-0.018-0.216-0.173-0.198-0.302l1.119-4.966c0.034-0.132,0.182-0.222,0.315-0.196
			l5.046,1.139c0.135,0.02,0.212,0.18,0.198,0.309l-1.115,4.967c-0.026,0.131-0.176,0.215-0.316,0.196L993.081,163.943z"/>
		<path fill="#585857" d="M1003.125,159.618l5.054,1.147c0.571,0.132,0.951,0.697,0.81,1.295l-1.13,4.956
			c-0.128,0.573-0.691,0.949-1.279,0.817l-5.063-1.138c-0.563-0.132-0.943-0.697-0.81-1.299l1.12-4.964
			C1001.979,159.856,1002.546,159.485,1003.125,159.618z"/>
		<path fill="#5E5E5D" d="M1001.712,165.88c-0.131-0.02-0.222-0.171-0.195-0.303l1.12-4.963c0.034-0.135,0.181-0.218,0.314-0.2
			l5.046,1.145c0.143,0.021,0.221,0.173,0.201,0.306l-1.118,4.963c-0.021,0.131-0.18,0.215-0.315,0.196L1001.712,165.88z"/>
		<path fill="#585857" d="M1011.747,161.572l5.06,1.147c0.566,0.133,0.945,0.698,0.811,1.289l-1.125,4.964
			c-0.137,0.575-0.7,0.949-1.293,0.817l-5.052-1.138c-0.571-0.132-0.939-0.704-0.81-1.295l1.117-4.966
			C1010.608,161.791,1011.181,161.444,1011.747,161.572z"/>
		<path fill="#5E5E5D" d="M1010.347,167.828c-0.144-0.02-0.218-0.17-0.199-0.302l1.118-4.963c0.026-0.132,0.179-0.219,0.309-0.199
			l5.054,1.146c0.134,0.021,0.217,0.17,0.19,0.302l-1.116,4.963c-0.021,0.132-0.181,0.221-0.31,0.197L1010.347,167.828z"/>
		<path fill="#585857" d="M1020.406,163.504l5.056,1.144c0.57,0.131,0.95,0.698,0.81,1.296l-1.13,4.966
			c-0.132,0.566-0.696,0.941-1.288,0.807l-5.055-1.137c-0.576-0.132-0.943-0.705-0.81-1.296l1.125-4.967
			C1019.238,163.744,1019.816,163.372,1020.406,163.504z"/>
		<path fill="#5E5E5D" d="M1018.976,169.763c-0.131-0.02-0.225-0.17-0.2-0.302l1.117-4.964c0.025-0.132,0.182-0.219,0.311-0.199
			l5.059,1.148c0.135,0.02,0.217,0.171,0.2,0.303l-1.119,4.964c-0.04,0.132-0.179,0.218-0.321,0.199L1018.976,169.763z"/>
		<path fill="#585857" d="M1029.036,165.459l5.054,1.144c0.564,0.132,0.943,0.699,0.81,1.299l-1.124,4.957
			c-0.138,0.572-0.701,0.948-1.293,0.816l-5.053-1.14c-0.572-0.129-0.939-0.705-0.811-1.296l1.117-4.963
			C1027.865,165.68,1028.444,165.327,1029.036,165.459z"/>
		<path fill="#5E5E5D" d="M1027.627,171.717c-0.143-0.02-0.217-0.17-0.197-0.302l1.117-4.963c0.026-0.132,0.179-0.219,0.309-0.197
			l5.053,1.139c0.137,0.025,0.218,0.178,0.195,0.31l-1.118,4.964c-0.023,0.13-0.169,0.217-0.305,0.198L1027.627,171.717z"/>
		<path fill="#585857" d="M1037.664,167.394l5.062,1.145c0.57,0.132,0.938,0.698,0.81,1.299l-1.126,4.963
			c-0.134,0.567-0.701,0.942-1.292,0.811l-5.061-1.141c-0.565-0.13-0.94-0.695-0.811-1.296l1.119-4.964
			C1036.5,167.637,1037.073,167.263,1037.664,167.394z"/>
		<path fill="#5E5E5D" d="M1036.256,173.656c-0.129-0.022-0.211-0.18-0.199-0.312l1.118-4.964c0.026-0.132,0.18-0.215,0.311-0.196
			l5.059,1.144c0.135,0.02,0.221,0.172,0.199,0.31l-1.119,4.959c-0.025,0.129-0.177,0.223-0.321,0.198L1036.256,173.656z"/>
		<path fill="#585857" d="M932.256,152.133l5.045,1.139c0.579,0.132,0.96,0.697,0.824,1.297l-1.12,4.964
			c-0.132,0.565-0.698,0.938-1.298,0.817l-5.053-1.148c-0.573-0.132-0.945-0.698-0.811-1.296l1.118-4.963
			C931.119,152.368,931.689,152.001,932.256,152.133z"/>
		<path fill="#5E5E5D" d="M930.854,158.386c-0.136-0.019-0.224-0.176-0.207-0.308l1.124-4.963c0.025-0.132,0.177-0.219,0.311-0.199
			l5.056,1.14c0.137,0.02,0.215,0.171,0.188,0.309l-1.12,4.958c-0.023,0.132-0.163,0.225-0.306,0.198L930.854,158.386z"/>
		<path fill="#585857" d="M940.89,154.062l5.046,1.138c0.574,0.132,0.946,0.704,0.813,1.299l-1.119,4.963
			c-0.137,0.573-0.703,0.948-1.299,0.817l-5.049-1.147c-0.566-0.132-0.943-0.698-0.81-1.295l1.12-4.964
			C939.744,154.305,940.311,153.956,940.89,154.062z"/>
		<path fill="#5E5E5D" d="M939.487,160.344c-0.132-0.022-0.232-0.18-0.197-0.312l1.124-4.963c0.017-0.132,0.168-0.216,0.303-0.196
			l5.059,1.137c0.135,0.019,0.212,0.177,0.194,0.309l-1.126,4.963c-0.021,0.133-0.162,0.219-0.301,0.199L939.487,160.344z"/>
		<path fill="#585857" d="M949.511,156.018l5.06,1.138c0.567,0.132,0.945,0.707,0.812,1.298l-1.119,4.964
			c-0.134,0.572-0.7,0.948-1.299,0.815l-5.054-1.136c-0.573-0.132-0.95-0.708-0.811-1.3l1.12-4.964
			C948.373,156.26,948.945,155.885,949.511,156.018z"/>
		<path fill="#5E5E5D" d="M948.108,162.279c-0.132-0.02-0.219-0.18-0.198-0.311l1.12-4.964c0.023-0.132,0.179-0.216,0.309-0.197
			l5.06,1.138c0.134,0.019,0.211,0.176,0.185,0.308l-1.116,4.958c-0.014,0.142-0.168,0.226-0.31,0.2L948.108,162.279z"/>
		<path fill="#585857" d="M958.171,157.946l5.047,1.138c0.574,0.131,0.946,0.707,0.817,1.299l-1.118,4.963
			c-0.128,0.572-0.707,0.947-1.299,0.816l-5.055-1.138c-0.566-0.131-0.942-0.707-0.81-1.298l1.12-4.964
			C957.001,158.191,957.581,157.814,958.171,157.946z"/>
		<path fill="#5E5E5D" d="M956.744,164.207c-0.135-0.019-0.22-0.179-0.206-0.307l1.12-4.969c0.036-0.131,0.18-0.216,0.318-0.195
			l5.056,1.138c0.129,0.02,0.22,0.18,0.194,0.308l-1.119,4.968c-0.021,0.132-0.183,0.216-0.31,0.196L956.744,164.207z"/>
		<path fill="#585857" d="M966.801,159.899l5.051,1.141c0.566,0.14,0.946,0.704,0.814,1.297l-1.12,4.964
			c-0.137,0.564-0.702,0.942-1.299,0.81l-5.055-1.138c-0.574-0.132-0.937-0.705-0.812-1.3l1.12-4.964
			C965.636,160.126,966.209,159.769,966.801,159.899z"/>
		<path fill="#5E5E5D" d="M965.393,166.162c-0.135-0.018-0.22-0.177-0.2-0.307l1.119-4.963c0.026-0.132,0.179-0.221,0.308-0.2
			l5.06,1.137c0.135,0.02,0.212,0.18,0.186,0.312l-1.116,4.964c-0.012,0.131-0.163,0.216-0.297,0.197L965.393,166.162z"/>
		<path fill="#585857" d="M975.429,161.836l5.058,1.141c0.574,0.132,0.946,0.702,0.813,1.295l-1.121,4.964
			c-0.136,0.575-0.707,0.948-1.297,0.817l-5.062-1.139c-0.564-0.133-0.939-0.705-0.81-1.294l1.131-4.968
			C974.265,162.073,974.835,161.707,975.429,161.836z"/>
		<path fill="#5E5E5D" d="M974.026,168.09c-0.134-0.018-0.22-0.176-0.206-0.308l1.118-4.958c0.034-0.138,0.182-0.225,0.322-0.198
			l5.052,1.137c0.13,0.022,0.214,0.18,0.194,0.312l-1.118,4.963c-0.027,0.132-0.178,0.216-0.309,0.197L974.026,168.09z"/>
		<path fill="#585857" d="M984.063,163.764l5.046,1.142c0.58,0.131,0.953,0.704,0.812,1.295l-1.119,4.963
			c-0.13,0.575-0.705,0.949-1.299,0.816l-5.048-1.136c-0.563-0.132-0.944-0.705-0.81-1.298l1.119-4.965
			C982.898,164.008,983.469,163.662,984.063,163.764z"/>
		<path fill="#5E5E5D" d="M982.655,170.046c-0.129-0.02-0.219-0.177-0.201-0.309l1.119-4.958c0.021-0.138,0.181-0.224,0.316-0.198
			l5.045,1.142c0.139,0.017,0.214,0.175,0.199,0.306l-1.116,4.964c-0.026,0.132-0.173,0.22-0.314,0.2L982.655,170.046z"/>
		<path fill="#585857" d="M992.684,165.723l5.067,1.136c0.566,0.139,0.949,0.704,0.81,1.295l-1.132,4.961
			c-0.128,0.572-0.693,0.95-1.285,0.817l-5.055-1.143c-0.575-0.13-0.951-0.702-0.822-1.294l1.133-4.963
			C991.528,165.944,992.117,165.591,992.684,165.723z"/>
		<path fill="#5E5E5D" d="M991.282,171.98c-0.128-0.019-0.217-0.169-0.193-0.302l1.12-4.962c0.011-0.132,0.179-0.226,0.314-0.197
			l5.047,1.139c0.142,0.02,0.219,0.176,0.197,0.308l-1.116,4.963c-0.02,0.132-0.181,0.219-0.314,0.199L991.282,171.98z"/>
		<path fill="#585857" d="M1001.316,167.658l5.051,1.143c0.576,0.132,0.956,0.699,0.814,1.299l-1.126,4.958
			c-0.128,0.571-0.691,0.949-1.282,0.816l-5.061-1.142c-0.565-0.128-0.947-0.697-0.813-1.296l1.12-4.963
			C1000.155,167.895,1000.746,167.525,1001.316,167.658z"/>
		<path fill="#5E5E5D" d="M999.918,173.91c-0.144-0.02-0.227-0.171-0.2-0.304l1.119-4.963c0.018-0.13,0.165-0.219,0.303-0.194
			l5.059,1.144c0.136,0.019,0.22,0.17,0.194,0.302l-1.146,4.964c-0.021,0.131-0.169,0.219-0.302,0.199L999.918,173.91z"/>
		<path fill="#585857" d="M1009.951,169.605l5.05,1.148c0.577,0.128,0.952,0.694,0.823,1.295l-1.139,4.957
			c-0.129,0.573-0.688,0.949-1.278,0.817l-5.061-1.139c-0.565-0.132-0.945-0.703-0.811-1.297l1.119-4.964
			C1008.811,169.831,1009.376,169.473,1009.951,169.605z"/>
		<path fill="#5E5E5D" d="M1008.539,175.867c-0.131-0.019-0.219-0.151-0.192-0.306l1.117-4.964c0.025-0.132,0.172-0.214,0.31-0.194
			l5.054,1.144c0.141,0.019,0.226,0.17,0.2,0.305l-1.119,4.964c-0.033,0.132-0.181,0.216-0.317,0.196L1008.539,175.867z"/>
		<path fill="#585857" d="M1018.583,171.54l5.045,1.148c0.575,0.128,0.947,0.699,0.817,1.295l-1.12,4.964
			c-0.127,0.565-0.704,0.942-1.298,0.81l-5.047-1.138c-0.573-0.131-0.945-0.704-0.815-1.299l1.118-4.963
			C1017.438,171.785,1018.004,171.408,1018.583,171.54z"/>
		<path fill="#5E5E5D" d="M1017.168,177.803c-0.136-0.02-0.211-0.172-0.193-0.302l1.118-4.966c0.026-0.129,0.182-0.216,0.308-0.197
			l5.055,1.144c0.134,0.024,0.22,0.174,0.193,0.306l-1.118,4.964c-0.021,0.132-0.168,0.216-0.311,0.196L1017.168,177.803z"/>
		<path fill="#585857" d="M1027.208,173.476l5.056,1.14c0.578,0.133,0.945,0.698,0.811,1.297l-1.119,4.963
			c-0.135,0.565-0.699,0.941-1.293,0.816l-5.059-1.145c-0.567-0.132-0.939-0.697-0.812-1.299l1.118-4.963
			C1026.066,173.713,1026.638,173.344,1027.208,173.476z"/>
		<path fill="#5E5E5D" d="M1025.802,179.751c-0.136-0.021-0.211-0.171-0.198-0.303l1.115-4.963c0.026-0.132,0.184-0.218,0.313-0.199
			l5.059,1.141c0.133,0.025,0.225,0.178,0.193,0.309l-1.126,4.938c-0.012,0.131-0.161,0.221-0.295,0.195L1025.802,179.751z"/>
		<path fill="#585857" d="M1035.863,175.427l5.046,1.145c0.574,0.131,0.946,0.698,0.813,1.296l-1.12,4.966
			c-0.133,0.565-0.701,0.938-1.291,0.806l-5.056-1.137c-0.566-0.132-0.938-0.698-0.81-1.295l1.119-4.964
			C1034.692,175.649,1035.271,175.302,1035.863,175.427z"/>
		<path fill="#5E5E5D" d="M1034.437,181.686c-0.143-0.019-0.22-0.178-0.198-0.308l1.119-4.964c0.017-0.132,0.173-0.219,0.308-0.2
			l5.044,1.149c0.145,0.018,0.221,0.169,0.2,0.308l-1.117,4.957c-0.019,0.132-0.175,0.226-0.309,0.199L1034.437,181.686z"/>
		<path fill="#585857" d="M930.447,160.164l5.056,1.138c0.571,0.135,0.951,0.707,0.815,1.298l-1.12,4.963
			c-0.133,0.565-0.698,0.944-1.296,0.812l-5.049-1.14c-0.579-0.131-0.957-0.704-0.822-1.298l1.133-4.964
			C929.291,160.408,929.883,160.032,930.447,160.164z"/>
		<path fill="#5E5E5D" d="M929.047,166.426c-0.13-0.018-0.219-0.176-0.193-0.308l1.126-4.964c0.021-0.135,0.174-0.219,0.309-0.199
			l5.059,1.138c0.13,0.019,0.207,0.18,0.186,0.312l-1.114,4.964c-0.021,0.131-0.177,0.216-0.312,0.195L929.047,166.426z"/>
		<path fill="#585857" d="M939.082,162.099l5.06,1.148c0.565,0.132,0.946,0.697,0.811,1.29l-1.118,4.964
			c-0.135,0.57-0.7,0.948-1.296,0.816l-5.056-1.139c-0.571-0.132-0.951-0.705-0.817-1.299l1.125-4.963
			C937.926,162.343,938.517,161.968,939.082,162.099z"/>
		<path fill="#5E5E5D" d="M937.682,168.361c-0.133-0.021-0.22-0.177-0.199-0.302l1.119-4.963c0.026-0.132,0.179-0.226,0.308-0.199
			l5.06,1.144c0.134,0.023,0.212,0.173,0.188,0.305l-1.118,4.963c-0.013,0.132-0.168,0.216-0.311,0.197L937.682,168.361z"/>
		<path fill="#585857" d="M947.717,164.058l5.06,1.137c0.565,0.132,0.946,0.704,0.813,1.295l-1.12,4.966
			c-0.136,0.572-0.708,0.949-1.297,0.814l-5.064-1.139c-0.563-0.132-0.941-0.703-0.807-1.295l1.149-4.963
			C946.571,164.272,947.151,163.926,947.717,164.058z"/>
		<path fill="#5E5E5D" d="M946.315,170.31c-0.133-0.02-0.232-0.178-0.208-0.31l1.121-4.964c0.034-0.131,0.182-0.218,0.314-0.199
			l5.055,1.142c0.134,0.019,0.219,0.177,0.199,0.309l-1.119,4.956c-0.026,0.138-0.178,0.225-0.307,0.196L946.315,170.31z"/>
		<path fill="#585857" d="M956.346,165.991l5.055,1.139c0.563,0.133,0.951,0.698,0.81,1.294l-1.125,4.968
			c-0.137,0.566-0.699,0.941-1.293,0.81l-5.048-1.141c-0.572-0.132-0.944-0.704-0.815-1.297l1.117-4.964
			C955.208,166.227,955.773,165.855,956.346,165.991z"/>
		<path fill="#5E5E5D" d="M954.944,172.245c-0.129-0.019-0.223-0.17-0.2-0.303l1.117-4.963c0.021-0.131,0.183-0.225,0.317-0.198
			l5.041,1.141c0.143,0.02,0.216,0.169,0.204,0.302l-1.117,4.963c-0.032,0.132-0.173,0.219-0.316,0.201L954.944,172.245z"/>
		<path fill="#585857" d="M995.914,174.88l-30.985-6.959c-0.57-0.133-1.12,0.216-1.254,0.787l-1.21,5.344
			c-0.082,0.398,0.162,0.787,0.555,0.88l31.271,7.024c0.566,0.132,1.159-0.245,1.294-0.817l1.118-4.962
			C996.864,175.604,996.505,175.009,995.914,174.88z"/>
		<path fill="#5E5E5D" d="M963.329,174.135l1.181-5.246c0.034-0.114,0.154-0.201,0.271-0.153l30.978,6.968
			c0.142,0.02,0.219,0.17,0.207,0.302l-1.129,4.964c-0.017,0.132-0.172,0.217-0.306,0.195L963.329,174.135z"/>
		<path fill="#585857" d="M999.524,175.697l5.049,1.138c0.578,0.132,0.951,0.704,0.821,1.295l-1.137,4.967
			c-0.13,0.572-0.688,0.946-1.28,0.813l-5.059-1.144c-0.567-0.132-0.946-0.698-0.812-1.295l1.119-4.958
			C998.355,175.931,998.927,175.562,999.524,175.697z"/>
		<path fill="#5E5E5D" d="M998.11,181.95c-0.127-0.02-0.219-0.178-0.191-0.31l1.116-4.962c0.025-0.132,0.176-0.22,0.311-0.2
			l5.056,1.142c0.138,0.019,0.223,0.176,0.197,0.308l-1.128,4.964c-0.022,0.132-0.174,0.219-0.307,0.196L998.11,181.95z"/>
		<path fill="#585857" d="M1008.153,177.651l5.046,1.138c0.565,0.132,0.946,0.704,0.813,1.3l-1.12,4.963
			c-0.136,0.573-0.699,0.948-1.292,0.816l-5.055-1.146c-0.571-0.132-0.938-0.699-0.809-1.296l1.119-4.958
			C1006.982,177.868,1007.574,177.52,1008.153,177.651z"/>
		<path fill="#5E5E5D" d="M1006.738,183.903c-0.134-0.019-0.211-0.175-0.193-0.307l1.12-4.963c0.024-0.132,0.181-0.22,0.306-0.197
			l5.055,1.138c0.136,0.02,0.22,0.178,0.193,0.31l-1.119,4.963c-0.018,0.132-0.18,0.218-0.306,0.199L1006.738,183.903z"/>
		<path fill="#585857" d="M1016.775,179.58l5.045,1.139c0.588,0.132,0.959,0.704,0.825,1.298l-1.119,4.964
			c-0.135,0.573-0.7,0.948-1.293,0.816l-5.06-1.14c-0.565-0.132-0.945-0.705-0.811-1.296l1.12-4.957
			C1015.611,179.825,1016.203,179.448,1016.775,179.58z"/>
		<path fill="#5E5E5D" d="M1015.373,185.842c-0.135-0.023-0.211-0.181-0.199-0.313l1.12-4.961c0.023-0.132,0.179-0.219,0.308-0.196
			l5.06,1.136c0.135,0.02,0.219,0.178,0.192,0.31l-1.124,4.957c-0.026,0.139-0.149,0.226-0.308,0.2L1015.373,185.842z"/>
		<path fill="#585857" d="M1025.411,181.515l5.046,1.139c0.573,0.132,0.945,0.696,0.815,1.299l-1.117,4.963
			c-0.13,0.565-0.708,0.941-1.3,0.816l-5.047-1.144c-0.572-0.137-0.946-0.7-0.815-1.299l1.119-4.964
			C1024.265,181.753,1024.83,181.383,1025.411,181.515z"/>
		<path fill="#5E5E5D" d="M1023.995,187.771c-0.136-0.022-0.213-0.173-0.192-0.313l1.125-4.963c0.02-0.131,0.174-0.215,0.301-0.197
			l5.055,1.14c0.132,0.018,0.219,0.175,0.193,0.307l-1.12,4.963c-0.017,0.132-0.168,0.219-0.301,0.199L1023.995,187.771z"/>
		<path fill="#585857" d="M1034.039,183.464l5.051,1.137c0.566,0.132,0.953,0.708,0.811,1.298l-1.117,4.963
			c-0.13,0.573-0.696,0.949-1.298,0.818l-5.042-1.137c-0.578-0.132-0.95-0.705-0.821-1.3l1.116-4.962
			C1032.899,183.689,1033.473,183.332,1034.039,183.464z"/>
		<path fill="#5E5E5D" d="M1032.635,189.726c-0.127-0.02-0.219-0.18-0.191-0.308l1.119-4.967c0.014-0.132,0.174-0.216,0.309-0.197
			l5.053,1.139c0.143,0.018,0.205,0.18,0.191,0.307l-1.115,4.968c-0.026,0.132-0.174,0.216-0.311,0.194L1032.635,189.726z"/>
		<path fill="#EDEDED" d="M994.356,188.891l-25.346-5.69c-1.136-0.263-2.274,0.463-2.521,1.606l-3.054,13.551
			c-0.264,1.144,0.457,2.283,1.603,2.525l25.343,5.689c1.139,0.262,2.289-0.461,2.525-1.606l3.058-13.55
			C996.22,190.273,995.501,189.154,994.356,188.891z"/>
		<path fill="#9D9B9B" d="M994.556,188.08l-25.347-5.689c-1.582-0.354-3.156,0.639-3.508,2.218l-3.054,13.551
			c-0.347,1.581,0.636,3.159,2.218,3.516l25.337,5.687c1.583,0.35,3.169-0.637,3.519-2.218l3.054-13.551
			C997.12,190.009,996.139,188.446,994.556,188.08z M992.928,204.966c-0.257,1.145-1.382,1.868-2.526,1.606l-25.338-5.689
			c-1.144-0.263-1.863-1.382-1.601-2.525l3.049-13.551c0.264-1.138,1.38-1.864,2.525-1.601l25.346,5.69
			c1.132,0.263,1.863,1.383,1.594,2.528L992.928,204.966z"/>
		<path fill="#DFDFDE" d="M964.959,191.673l-1.496,6.677c-0.263,1.138,0.457,2.281,1.601,2.527l25.345,5.687
			c1.138,0.264,2.275-0.458,2.52-1.604l1.498-6.678L964.959,191.673z"/>
		<path fill="#D9D9DA" d="M979.584,194.953l-14.625-3.292l-1.502,6.674c-0.265,1.142,0.447,2.286,1.593,2.523l12.565,2.84
			L979.584,194.953z"/>
		<path fill="#E3E1E1" d="M1055.163,149.999l-124.42-27.98c-0.719-0.171-1.232-0.856-1.168-1.602l13.03-71.194
			c0.173-1.957,2.021-3.293,3.93-2.856l126.729,28.505c1.916,0.438,3.01,2.438,2.333,4.282l-18.685,69.896
			C1056.631,149.755,1055.909,150.179,1055.163,149.999z"/>
		<path fill="#C7C7C6" d="M935.001,115.189l12.017-60.1c0.173-1.843,1.91-3.123,3.707-2.701l116.147,26.113
			c1.796,0.395,2.83,2.305,2.193,4.041l-14.841,59.446c-0.525,1.445-2.051,2.256-3.562,1.928l-113.262-25.473
			C935.875,118.117,934.872,116.705,935.001,115.189z"/>
		<path fill="#C6E6F2" d="M935.835,115.278l12.013-60.151c0.129-1.333,1.381-2.256,2.697-1.948l116.194,26.133
			c1.284,0.283,2.056,1.67,1.592,2.922l-14.884,59.491c-0.378,1.055-1.485,1.646-2.577,1.4l-113.337-25.497
			C936.466,117.39,935.727,116.376,935.835,115.278z"/>
		<path opacity="0.24" fill="#B6E0ED" enable-background="new    " d="M937.636,109.523c2.147-3.865,5.087-7.512,8.347-10.541
			c8.427-7.841,20.173-12.166,31.246-14.537c13.038-2.81,27.651-8.564,40.909-7.4c18.407,1.581,30.854,4.391,48.291,10.39
			l1.909-5.208c0.464-1.25-0.284-2.632-1.599-2.922L950.553,53.173c-1.291-0.283-2.576,0.639-2.699,1.947l-11.811,57.979
			C936.428,111.815,937.057,110.559,937.636,109.523z"/>
		<path fill="#585857" d="M1037.136,145.958l-88.544-19.916l0.051-1.494l89.267,20.066L1037.136,145.958z"/>
		<path fill="#3C3C3B" d="M1008.308,63.061c0.136-0.546,0.687-0.899,1.235-0.767c0.546,0.138,0.897,0.683,0.759,1.23
			c-0.131,0.547-0.683,0.901-1.228,0.77C1008.521,64.181,1008.173,63.627,1008.308,63.061z"/>
		<path fill="#585857" d="M1008.59,63.129c0.096-0.395,0.484-0.641,0.874-0.546c0.405,0.093,0.644,0.485,0.554,0.881
			c-0.091,0.395-0.475,0.64-0.875,0.546C1008.745,63.917,1008.499,63.524,1008.59,63.129z"/>
		<path fill="#B6E0ED" d="M1009.01,63.236c0.039-0.155,0.198-0.264,0.345-0.22c0.148,0.045,0.265,0.197,0.222,0.347
			c-0.038,0.155-0.2,0.264-0.354,0.226C1009.074,63.543,1008.963,63.394,1009.01,63.236z"/>
	</g>
	<path fill="#FDFFFC" d="M220.479,557.42c-5.904-24.96-30.864-40.35-55.691-34.422c-24.859,5.928-40.192,30.995-34.287,55.92
		c4.159,17.516,17.71,30.313,34.017,34.328c0.942,2.494,2.686,17.622,5.8,22.476c1.408,2.18,3.186,2.56,5.906,1.98
		c2.186,7.787,11.305,14.935,18.82,14.222c5.271-0.507,9.095-4.147,10.806-9.027c1.344-3.807,2.418-8.189,3.089-12.44
		c3.62-0.103,5.364-0.47,5.201-3.869c-0.305-5.896-6.677-22.132-6.916-24.624C218.802,590.941,224.438,574.161,220.479,557.42z"/>
	<path fill="#AEB4FC" d="M196.422,555.741c-0.706-2.526-3.188-4.212-5.807-3.567c-2.449,0.564-4.291,3.297-3.556,5.823
		c0.436,1.55,1.582,2.804,2.958,3.37c-1.011,6.531-2.286,12.974-2.819,19.576c-0.508,6.142-1.005,12.127-2.35,18.093
		c-7.275-10.948-14.531-21.866-22.542-32.269c2.211-2.122,0.541-6.879-3.188-5.991c-4.391,1.041-2.784,7.908,1.647,6.865
		c0.034,0,0.067-0.038,0.099-0.064c8.322,11.818,16.472,23.808,23.255,36.62c0.736,1.377,2.746,1.077,3.217-0.345
		c2.212-6.599,2.852-13.334,3.318-20.239c0.54-7.445,1.983-14.757,2.588-22.17C195.478,560.691,197.094,558.134,196.422,555.741z"/>
	<path fill="#808AFF" d="M140.553,515.05c-9.36-4.656-18.757-9.329-28.118-14.017c-1.941-0.942-3.72,1.855-1.777,2.896
		c9.125,5.047,18.281,10.071,27.414,15.122C140.759,520.541,143.241,516.394,140.553,515.05z"/>
	<path fill="#808AFF" d="M158.17,479.338c-0.769-1.716-2.987-0.472-2.816,1.08c1.138,9.704,4.732,19.605,7.544,28.967
		c0.705,2.292,4.227,1.515,3.662-0.875C164.248,498.874,162.233,488.397,158.17,479.338z"/>
	<path fill="#808AFF" d="M201.786,476.509c-2.414,2.118-3.89,5.49-5.397,8.32c-1.577,2.964-2.988,5.999-4.329,9.06
		c-1.074,2.492,3.055,3.806,4.09,1.243c1.244-3.13,2.588-6.165,4.131-9.161c1.308-2.594,3.22-5.124,3.99-7.916
		C204.713,476.541,202.895,475.492,201.786,476.509z"/>
</g>
<path fill="#7382EF" d="M560.8,1047c125.45,0,227.136-17.68,227.136-39.503c0-21.82-101.686-39.5-227.136-39.5
	c-125.446,0-227.136,17.68-227.136,39.5C333.664,1029.32,435.354,1047,560.8,1047z"/>
<path fill="#FDFFFC" d="M827.129,53.218c2.798,23.236-13.667,50.262-42.318,64.384c-15.623,7.709-34.037,7.558-49.274-0.869
	c-21.074-11.675-34.923-32.208-36.176-54.527c-1.177-20.938,8.724-43.636,26.958-54.573
	C761.837-13.65,822.358,13.639,827.129,53.218z"/>
<path fill="#FDFFFC" d="M728.284,128.859c0.63,5.207-1.607,10.969-6.018,15.642c-9.779,10.377-26.81,9.133-34.063-3.154
	c-1.711-2.888-2.738-6.123-2.912-9.459c-0.407-7.044,2.938-14.688,9.072-18.369C706.309,106.35,726.677,115.528,728.284,128.859z"/>
<path fill="#FDFFFC" d="M693.116,161.313c0.256,2.223-0.412,4.632-1.877,6.812c-5.195,7.714-16.931,7.374-20.793-1.101
	c-0.579-1.275-0.925-2.645-0.988-4.053c-0.208-3.88,1.604-8.092,5.001-10.106C681.016,148.925,692.229,153.975,693.116,161.313z"/>
<path fill="#AEB4FC" d="M745.796,55.768c2.37,7.32,5.224,14.473,8.553,21.396c1.659,3.469,3.454,6.893,5.362,10.24
	c1.551,2.719,3.255,5.37,5.361,7.689c3.846,4.198,9.46,6.918,15.07,4.607c5.247-2.164,8.719-7.669,9.876-13.056
	c1.35-6.189,0.091-12.929-2.907-18.458c-3.099-5.704-8.152-10.063-14.192-12.406c-6.04-2.337-13.17-2.671-19.218-0.176
	c-6.527,2.694-9.742,8.794-12.081,15.09c-2.503,6.715-3.986,14.366-1.839,21.383c1.683,5.478,5.669,10.466,11.104,12.582
	c1.34,0.523,2.756,0.817,4.197,0.938c0.654,0.056,0.715-0.787,0.309-1.099c-3.381-2.565-6.75-5.134-10.121-7.696
	c0,0.344,0,0.684,0,1.03c7.678-3.299,15.252-7.863,20.063-14.895c4.088-5.982,5.413-13.784,2.835-20.651
	c-1.358-3.604-3.771-6.683-7.126-8.599c-0.255-0.145-0.688-0.086-0.816,0.206c-4.916,10.953-1.429,24.508,7.316,32.5
	c2.456,2.247,5.292,3.986,8.41,5.149c0.103-0.382,0.206-0.758,0.323-1.144c-6.084-2.154-12.18-4.295-18.246-6.446
	c-5.288-1.87-10.778-3.479-15.881-5.839c-4.097-1.897-8.301-4.713-9.492-9.337c-1.349-5.239,1.687-10.572,5.67-13.784
	c4.315-3.484,9.853-5.276,15.091-6.848c5.857-1.752,11.916-2.989,18.033-3.17c10.229-0.3,20.744,2.637,28.199,9.899
	c1.743,1.685,3.28,3.581,4.521,5.668c1.242,2.073,3.352,5.501,1.242,7.649c-1.713,1.743-4.734,2.087-6.983,2.646
	c-2.998,0.749-6.019,1.469-9.058,2.074c-10.97,2.192-22.73,2.77-32.9-2.64c-4.146-2.213-7.842-5.334-10.339-9.336
	c-1.473-2.385-2.714-5.169-2.648-8.014c0.057-2.482,1.272-4.694,3.021-6.391c6.248-6.068,17.218-6.505,24.78-2.864
	c3.675,1.777,6.841,4.7,8.227,8.62c1.583,4.461,0.657,9.29-1.689,13.312c-5.702,9.788-17.087,12.481-27.64,13.014
	c-2.795,0.14-5.579,0.158-8.363,0.172c-0.214,0-0.407,0.118-0.515,0.295c-1.962,3.457,1.357,6.946,4.017,8.838
	c3.808,2.689,7.96,4.89,12.293,6.608c4.262,1.685,8.745,2.909,13.298,3.526c4.216,0.582,8.999,0.569,12.656-1.913
	c3.299-2.247,5.518-6.406,4.225-10.39c-0.096-0.301-0.402-0.507-0.717-0.413c-2.954,0.86-5.454,2.587-7.865,4.442
	c-2.562,1.976-5.087,3.925-7.926,5.498c-5.635,3.14-12.051,5.07-18.545,4.886c-11.264-0.326-22.907-8.547-23.862-20.422
	c-0.26-3.187,0.295-6.552,2.05-9.266c1.754-2.733,4.674-4.349,7.785-5.075c6.141-1.421,12.589,0.456,17.86,3.616
	c2.712,1.62,5.207,3.587,7.482,5.78c2.085,2.013,3.834,4.469,6.174,6.208c2.561,1.921,5.368,1.917,8.354,1.029
	c3.359-1.009,6.681-2.247,9.938-3.548c6.5-2.589,12.936-5.596,18.929-9.217c2.307-1.405,4.469-3.208,5.137-5.948
	c0.656-2.669-0.179-5.428-1.39-7.821c-1.335-2.684-3.233-5.063-5.142-7.363c-1.827-2.203-3.813-4.335-6.227-5.902
	c-2.499-1.619-5.354-2.389-8.325-2.171c-3.438,0.254-6.667,1.54-9.945,2.527c-2.724,0.815-5.634,1.349-8.475,0.829
	c-1.49-0.264-7.173-2.526-3.831-4.201c1.1-0.547,2.353-0.559,3.538-0.479c1.619,0.105,3.226,0.328,4.793,0.672
	c2.868,0.605,5.647,1.565,8.28,2.858c10.854,5.298,18.364,15.781,18.981,27.944c0.328,6.124-1.046,12.352-4.167,17.665
	c-2.912,4.938-7.33,8.869-12.466,11.377c-5.061,2.482-10.857,3.58-16.464,2.864c-2.625-0.344-6.585-0.923-6.664-4.274
	c-0.052-2.513,1.827-4.912,4.168-5.66c3.458-1.121,7.2,0.209,10.473,1.369c0.727,0.254,0.997-0.851,0.315-1.147
	c-7.896-3.292-16.137-5.642-24.148-8.609c-7.843-2.912-15.682-6.486-21.86-12.248c-7.052-6.582-10.736-15.484-12.992-24.687
	c-1.808-7.37-5.356-19.823,2.997-24.603c3.613-2.068,8.105-1.568,11.938-0.434c4.449,1.308,8.499,3.677,12.396,6.12
	c4.356,2.745,8.607,5.774,12.459,9.197c1.925,1.708,3.577,3.688,3.858,6.345c0.284,2.577-0.54,5.205-1.705,7.476
	c-3.514,6.86-10.575,11.403-18.073,12.732c-3.753,0.667-7.696,0.501-11.354-0.62c-0.886-0.277-1.78-0.598-2.628-0.979
	c-0.997-0.453-1.969-1.033-3.066-1.183c-1.845-0.252-3.371,1.038-4.437,2.406c-2.188,2.799-2.437,6.629-1.525,9.957
	c1.049,3.765,3.556,6.722,6.841,8.789c3.671,2.317,7.993,3.43,12.223,4.221c5.208,0.968,10.494,1.646,15.771,2.067
	c5.28,0.414,10.757,0.769,16.027,0.254c4.411-0.427,8.025-2.349,9.85-6.528c3.201-7.381,1.247-16.528-3.471-22.792
	c-2.585-3.424-5.875-5.774-9.694-7.632c-4.077-1.973-9.763-4.6-9.841-9.927c-0.062-4.798,5.479-6.915,9.159-8.388
	c4.306-1.738,8.742-3.213,13.321-3.991c4.553-0.769,9.347-0.775,13.744,0.771c4.424,1.556,7.999,4.694,10.506,8.6
	c2.404,3.732,4,8.072,4.783,12.428c0.773,4.265,0.728,9.094-1.645,12.878c-4.886,7.847-15.881,5.822-22.897,2.476
	c-4.423-2.125-8.581-4.832-12.283-8.056c-1.804-1.563-3.549-3.241-5.093-5.078c-1.583-1.896-3.049-4.313-2.322-6.878
	c0.623-2.193,2.48-3.832,4.314-5.079c1.979-1.341,4.154-2.463,6.353-3.409c4.643-2.002,9.875-3.153,14.93-2.391
	c8.279,1.25,16.149,7.907,14.998,16.916c-0.479,3.784-2.512,7.307-5.908,9.156c-0.669,0.363-0.077,1.381,0.61,1.022
	c7.015-3.819,8.403-13.662,4.167-20.027c-5.221-7.863-15.515-9.767-24.154-7.519c-6.996,1.816-21.307,8.04-15.085,17.388
	c2.693,4.033,6.835,7.406,10.753,10.19c3.849,2.738,8.084,5.15,12.62,6.59c3.953,1.256,8.363,1.87,12.44,0.804
	c3.881-1.017,7.047-3.727,8.601-7.462c1.674-4.048,1.46-8.676,0.553-12.881c-0.964-4.44-2.687-8.85-5.298-12.563
	c-2.611-3.707-6.157-6.615-10.427-8.171c-4.347-1.573-9.067-1.646-13.6-0.987c-4.976,0.717-9.806,2.324-14.459,4.208
	c-3.561,1.44-8.003,3.153-9.444,7.085c-1.594,4.324,1.659,8.53,5.126,10.763c2.195,1.401,4.628,2.356,6.918,3.588
	c2.022,1.094,3.869,2.456,5.464,4.107c3.145,3.241,5.284,7.407,6.185,11.818c0.886,4.385,0.656,9.599-1.769,13.482
	c-3.078,4.937-9.469,4.546-14.554,4.497c-5.859-0.058-11.691-0.504-17.485-1.27c-8.768-1.163-21.601-2.501-25.265-12.145
	c-1.442-3.767-1.274-8.762,2.206-11.399c2.146-1.645,4.687,0.482,6.854,1.226c1.807,0.621,3.696,1.01,5.599,1.18
	c7.739,0.716,15.802-2.129,21.384-7.533c2.971-2.883,5.445-6.696,6.218-10.81c0.417-2.245,0.27-4.575-0.777-6.644
	c-1.09-2.114-2.984-3.68-4.779-5.167c-4.09-3.392-8.431-6.472-12.993-9.204c-3.98-2.39-8.133-4.588-12.711-5.604
	c-3.825-0.841-8.145-0.874-11.526,1.357c-3.512,2.305-5.028,6.268-5.242,10.323c-0.249,4.609,0.838,9.264,1.871,13.72
	c1.12,4.867,2.547,9.691,4.656,14.222c3.908,8.393,10.352,14.781,18.361,19.284c7.813,4.385,16.436,7.063,24.856,9.914
	c4.153,1.402,8.28,2.846,12.324,4.523c0.108-0.381,0.212-0.758,0.315-1.146c-3.252-1.144-6.803-2.322-10.287-1.572
	c-2.438,0.527-4.397,2.172-5.349,4.484c-0.824,2.013-0.694,4.45,1.017,5.95c2.081,1.853,5.702,2.086,8.37,2.218
	c11.806,0.575,23.569-6.2,28.874-16.78c5.582-11.164,4.2-25.209-3.415-35.097c-3.67-4.774-8.588-8.546-14.101-10.976
	c-2.762-1.224-5.677-2.119-8.659-2.631c-2.481-0.428-5.503-1.011-7.835,0.195c-0.851,0.435-1.596,1.18-1.693,2.173
	c-0.114,1.125,1.003,1.95,1.828,2.563c2.139,1.566,4.938,1.966,7.539,1.834c6.879-0.369,13.6-5.495,20.503-2.776
	c3.094,1.212,5.518,3.648,7.654,6.116c2.17,2.516,4.299,5.16,5.771,8.157c1.545,3.153,2.136,6.967-0.484,9.743
	c-1.148,1.225-2.62,2.067-4.061,2.89c-1.659,0.949-3.331,1.851-5.036,2.732c-6.866,3.549-14.012,6.546-21.368,8.914
	c-1.897,0.617-3.948,1.283-5.936,0.736c-1.664-0.454-3.009-1.611-4.189-2.816c-2.312-2.356-4.444-4.838-7.005-6.958
	c-4.835-3.978-10.594-7.025-16.896-7.651c-6.053-0.606-12.922,1.229-15.919,6.979c-2.726,5.233-1.991,11.72,0.663,16.816
	c2.655,5.094,7.234,9.155,12.479,11.46c12.356,5.426,26.174,0.402,36.197-7.419c2.682-2.094,5.38-4.254,8.7-5.215
	c-0.239-0.138-0.484-0.277-0.728-0.415c1.091,3.405-0.739,6.973-3.549,8.963c-3.248,2.314-7.554,2.409-11.38,1.961
	c-7.844-0.937-15.572-3.768-22.348-7.834c-2.722-1.633-9.376-5.385-7.062-9.46c-0.166,0.096-0.346,0.195-0.508,0.295
	c11.361-0.057,24.44-0.257,33.091-8.763c3.486-3.431,6.079-7.974,6.521-12.899c0.411-4.522-1.293-9-4.52-12.172
	c-6.384-6.265-17.212-7.451-25.288-4.18c-4.269,1.724-8.55,4.996-9.237,9.841c-0.726,5.188,2.708,10.583,6.193,14.131
	c7.894,8.012,19.591,10.435,30.448,9.658c6.839-0.483,13.546-2.048,20.174-3.707c2.36-0.586,5.274-1.013,7.055-2.845
	c1.864-1.905,1.241-4.443,0.229-6.622c-4.317-9.436-13.99-15.578-23.908-17.684c-12.37-2.614-25.834,0.25-37.345,5.011
	c-5.071,2.099-10.015,5.208-12.529,10.287c-2.244,4.545-2.036,9.779,1.241,13.742c3.131,3.765,7.973,5.713,12.468,7.327
	c6.568,2.369,13.166,4.654,19.752,6.984c3.258,1.161,6.523,2.306,9.789,3.464c0.714,0.257,1.016-0.88,0.312-1.144
	c-10.655-3.964-17.425-15.424-17.131-26.599c0.091-3.206,0.791-6.378,2.109-9.31c-0.275,0.068-0.54,0.139-0.815,0.213
	c6.001,3.417,8.364,10.566,7.755,17.169c-0.717,7.709-5.78,14.048-11.858,18.481c-3.605,2.625-7.58,4.694-11.666,6.444
	c-0.446,0.197-0.297,0.788,0,1.025c3.384,2.57,6.754,5.138,10.129,7.696c0.111-0.366,0.199-0.735,0.296-1.098
	c-5.747-0.474-10.425-4.607-12.933-9.618c-3.058-6.096-2.535-13.287-0.723-19.665c1.704-6.018,4.319-13.173,9.734-16.816
	c5.188-3.503,12.166-3.916,18.084-2.437c12.236,3.028,20.78,14.517,20.081,27.132c-0.304,5.496-2.805,11.312-7.484,14.459
	c-4.97,3.338-10.71,1.848-14.818-2.09c-2.295-2.198-4.104-4.864-5.71-7.588c-1.955-3.332-3.749-6.76-5.444-10.232
	c-3.486-7.138-6.457-14.538-8.907-22.088C746.711,54.742,745.58,55.051,745.796,55.768z"/>
<g>
	<g>
		<g>
			<g>
				<g>
					<g>
						<g>
							<g>
								<path fill="#FAD4AF" d="M528.883,960.033c0,1.441-0.18,3.422-0.54,5.762c-0.72,4.861-1.981,10.983-3.602,14.044
									c-3.78,7.203-10.264,8.284-17.465,12.246c-11.705,6.481-25.03,11.163-38.353,11.343c-0.9,0-1.8,0-2.701,0
									c-3.061,0-6.303-0.541-8.103-3.062c-1.081-1.8-1.26-3.779-0.72-5.943l0,0c0.179-1.078,0.72-2.16,1.08-3.06
									c2.16-4.5,5.042-8.642,8.463-12.244c1.8-1.979,3.782-3.961,5.942-5.94c1.801-1.622,3.24-2.883,3.6-3.242
									c3.242-2.701,11.165-9.903,25.57-22.867c0-1.08,0-2.161,0-3.241c0-3.78,0.179-7.563,0.179-11.344
									c0-4.861,0.181-9.723,0.181-14.586c8.463,0,16.746,0,25.208-0.181c0.18,4.863,0.18,9.905,0.36,14.767
									c0,3.78,0.179,7.563,0.179,11.344C528.703,949.229,528.883,954.633,528.883,960.033z"/>
								<path fill="#212121" d="M528.883,960.033c0.539,1.621,0.9,3.96,1.26,6.661c0.541,4.862,0,8.646-0.18,9.364
									c-0.541,3.421-3.602,7.203-22.687,16.026c0,0-21.607,10.442-38.534,11.343c-0.9,0-1.8,0-2.701,0
									c-3.062,0-6.303-0.541-8.102-3.062c-1.081-1.619-1.081-3.779-0.721-5.762c0,0,0,0,0-0.182
									c0.36-0.897,0.721-1.979,1.082-3.06c2.16-4.5,5.04-8.642,8.461-12.244c1.8-2.161,3.782-3.961,5.942-5.94
									c-1.801,2.161-6.122,7.741-4.321,10.983c2.342,4.501,14.225,1.979,18.547,1.079
									C496.292,983.441,511.957,978.04,528.883,960.033z"/>
							</g>
							<path fill="#EFB78E" d="M528.523,944.008h-26.109c0-3.781,0.179-7.562,0.179-11.345h25.749
								C528.343,936.446,528.523,940.227,528.523,944.008z"/>
						</g>
						<g>
							<g>
								<path fill="#FAD4AF" d="M660.146,1000.547c-1.8,2.521-5.041,3.062-8.101,3.062c-0.9,0-1.801,0-2.701,0
									c-13.506-0.36-26.649-4.861-38.353-11.346c-7.204-3.961-13.686-5.04-17.467-12.243c-1.62-3.241-2.88-9.183-3.603-14.044
									c-0.359-2.341-0.538-4.321-0.538-5.763c0.179-5.401,0.179-10.804,0.36-16.205c0-3.781,0.178-7.562,0.178-11.345
									c0.182-4.86,0.182-9.901,0.362-14.765c8.461,0,16.745,0,25.209,0.181c0,4.86,0.179,9.724,0.179,14.584
									c0,3.783,0.181,7.563,0.181,11.345c0,1.08,0,2.162,0,3.24c14.585,12.965,22.507,20.167,25.567,22.867
									c0.539,0.361,1.803,1.622,3.603,3.242c1.979,1.982,4.14,3.962,5.94,5.942c3.421,3.78,6.303,7.742,8.463,12.243
									c0.542,0.9,0.9,1.98,1.08,3.062l0,0C661.406,996.587,661.227,998.747,660.146,1000.547z"/>
								<path fill="#212121" d="M589.384,960.033c-0.541,1.621-0.9,3.96-1.262,6.661c-0.538,4.862,0,8.646,0.181,9.364
									c0.54,3.421,3.602,7.203,22.688,16.026c0,0,21.606,10.442,38.531,11.343c0.9,0,1.801,0,2.701,0
									c3.061,0,6.303-0.541,8.103-3.062c1.08-1.619,1.08-3.779,0.72-5.762c0,0,0,0,0-0.182c-0.358-0.897-0.72-1.979-1.078-3.06
									c-2.161-4.5-5.043-8.642-8.464-12.244c-1.801-2.161-3.781-3.961-5.943-5.94c1.801,2.161,6.124,7.741,4.323,10.983
									c-2.341,4.501-14.225,1.979-18.546,1.079C621.975,983.441,606.309,978.04,589.384,960.033z"/>
							</g>
							<path fill="#EFB78E" d="M616.031,944.008h-26.287c0-3.781,0.178-7.562,0.178-11.345h25.931
								C615.853,936.446,615.853,940.227,616.031,944.008z"/>
						</g>
						<g>
							<g>
								<path fill="#9F0102" d="M641.959,584.968l-0.358,31.512l-0.181,19.625l-3.241,297.28h-72.743
									c-1.441-106.596-2.882-213.013-4.321-319.606c-1.44,106.594-2.882,213.011-4.321,319.606h-71.305l-3.241-297.1
									l-0.179-19.806l-0.359-31.512H641.959z"/>
							</g>
							<g>
								<path fill="#84030A" d="M561.473,641.327c-26.468,2.521-52.937,5.222-79.405,7.743l-0.181-19.807h76.705
									C559.492,633.403,560.393,637.365,561.473,641.327z"/>
							</g>
							<g>
								<path fill="#84030A" d="M641.601,629.441l-0.181,19.629c-26.649-2.521-53.297-5.222-79.947-7.743
									c0.721-3.962,1.262-7.924,1.981-11.886H641.601L641.601,629.441z"/>
							</g>
							<g>
								<path fill="#84030A" d="M561.473,612.158c-1.439,97.952-3.061,195.725-4.5,293.678h-4.682l-1.26-293.859
									C554.451,611.977,557.873,611.977,561.473,612.158z"/>
							</g>
							<g>
								<path fill="#84030A" d="M571.197,611.977l-1.261,294.039l-4.861-0.361c-1.441-97.952-3.061-195.904-4.501-293.857
									C564.176,611.797,567.596,611.797,571.197,611.977z"/>
							</g>
							<polygon fill="#FAD4AF" points="587.762,329.823 533.744,329.823 536.985,286.249 537.344,283.368 538.606,266.442 
								582.9,266.442 583.982,281.208 584.341,285.349 							"/>
							<g>
								<g>
									<path fill="#FAD4AF" d="M608.289,214.405c1.801-4.862,8.822-9.364,11.703-7.563c2.882,1.8,4.502,10.083,3.424,15.485
										c-1.264,5.401-6.124,14.945-7.925,16.745c-1.799,1.801-8.102,5.762-12.063,4.682L608.289,214.405z"/>
									<path fill="#EFB78E" d="M609.909,211.344c-0.72,0.901-1.44,1.981-1.8,2.881l-4.862,29.351
										c2.522,0.719,6.123-0.721,8.823-2.161L609.909,211.344z"/>
									<path fill="#FAD4AF" d="M511.597,214.405c-1.801-4.862-8.823-9.364-11.705-7.563c-2.88,1.8-4.5,10.083-3.421,15.485
										c1.26,5.401,6.122,14.945,7.923,16.745c1.801,1.801,8.104,5.762,12.064,4.682L511.597,214.405z"/>
									<path fill="#EFB78E" d="M509.977,211.344c0.72,0.901,1.44,1.981,1.8,2.881l4.861,29.351
										c-2.521,0.719-6.122-0.721-8.822-2.161L509.977,211.344z"/>
								</g>
								<path fill="#EFB78E" d="M583.982,281.208c-2.342,2.521-4.321,4.321-5.943,5.76c-4.32,3.602-6.481,5.402-10.084,6.124
									c-2.16,0.359-2.16,0-8.281-0.181c-7.563,0-7.563,0.72-10.083,0c-1.983-0.72-4.143-2.521-8.644-6.303
									c-1.621-1.26-2.881-2.34-3.781-3.24l1.26-16.926h44.295L583.982,281.208z"/>
								<path fill="#FAD4AF" d="M612.07,193.878c-0.9,9.723-2.52,14.764-4.141,30.79c-0.54,6.303-2.16,12.425-2.16,18.546
									c0,1.08,0,3.241-0.362,5.763c-0.178,1.079-0.538,2.34-0.9,3.421c-0.899,2.701-2.161,4.681-3.421,6.662
									c-4.14,6.301-8.462,12.604-16.024,18.546c-3.24,2.521-4.862,3.421-9.724,7.382c-2.34,1.979-3.061,2.701-4.322,3.42
									c-2.88,1.62-6.121,1.981-8.822,1.981c-1.801,0-3.602,0-5.4,0c-2.882,0.179-5.943-0.181-8.823-1.981
									c-1.44-0.72-1.981-1.441-4.323-3.42c-4.86-4.143-6.48-4.862-9.723-7.382c-7.563-5.943-11.884-12.245-16.024-18.546
									c-1.262-1.801-2.522-3.782-3.422-6.662c-1.439-3.961-1.439-7.383-1.439-9.004v-0.18c0-6.302-1.621-12.424-2.16-18.546
									c-1.622-15.845-3.062-21.066-4.143-30.79c-1.62-17.287-3.061-31.51,2.521-42.675c10.264-20.707,40.875-24.489,49.698-25.388
									c0.178,0,0.359,0,0.538,0c0.182,0,0.362,0,0.541,0c8.822,0.72,39.433,4.501,49.697,25.388
									C615.131,162.547,613.692,176.592,612.07,193.878z"/>
								<path fill="#191513" d="M560.033,114.292c5.762-3.601,12.784-4.682,18.546-3.962c5.581,0.541,27.19,10.264,35.292,17.466
									c14.944,13.325,14.405,32.231,14.765,38.893c0.901,19.807-7.383,34.392-10.982,39.974c-1.262,0.9-2.883,1.98-4.323,3.781
									c-4.5,5.402-4.5,11.884-4.861,11.884c-0.539,0-1.26-10.803,0.901-22.508c0.358-1.801,0.9-4.861,0.358-8.823
									c-0.539-3.602-1.799-6.482-2.88-8.463c-2.342,6.303-5.763,11.883-7.021,11.704c-0.72-0.181-2.883-3.421-5.222-7.562
									c-4.321-7.743-5.583-10.625-7.384-13.505c0,1.44-3.959,13.865-5.581,13.865c-1.62,0-3.602-9.002-5.582-15.125
									c-1.981-6.302-6.843-16.025-7.743-15.846c-0.901,0.181-8.462,5.222-8.462,5.222s-7.563-5.041-8.463-5.222
									c-0.9-0.179-5.762,9.723-7.744,15.846c-1.979,6.302-3.961,15.305-5.58,15.125c-1.62,0-5.584-12.424-5.584-13.865
									c-1.979,2.881-3.061,5.762-7.381,13.505c-2.339,3.961-4.502,7.381-5.222,7.562c-1.26,0.179-4.681-5.401-6.841-11.704
									c-2.16,3.061-2.701,7.383-2.882,8.463c0,0.36,0,0.721,0,1.081c-0.181,2.161,0,3.961,0,4.682
									c0.541,5.762,1.621,10.083,1.082,15.665c-0.36,3.421-1.082,5.762-1.622,5.762c-0.72,0,0.36-5.941-3.061-9.183
									c-1.621-1.62-3.602-2.161-4.862-2.34c-3.421-5.763-11.344-20.167-10.443-39.793c0.36-7.022,0-25.749,14.766-38.893
									c8.102-7.203,29.53-16.927,35.111-17.466C547.068,109.61,554.093,110.69,560.033,114.292z"/>
							</g>
							<path fill="none" stroke="#F8AE38" stroke-width="2.4066" stroke-miterlimit="10" d="M523.481,303.175"/>
							<g>
								<g>
									<path fill="#9F0102" d="M652.765,640.427c-15.485-2.161-31.69-4.142-48.616-5.582c-14.946-1.261-29.53-2.34-43.574-2.88
										c-30.25,2.339-60.501,4.502-90.752,6.841c-0.36-105.334-0.72-210.85-1.08-316.185c18.187-3.422,36.373-6.843,54.558-10.263
										v-17.286c28.27-0.36,35.473,11.343,37.274,15.666c1.801-4.322,9.001-16.026,37.271-15.666v17.286
										c18.187,3.42,36.373,6.841,54.56,10.263C652.583,428.497,652.583,534.371,652.765,640.427z"/>
								</g>
								
									<line fill="none" stroke="#F8AE38" stroke-width="2.4066" stroke-miterlimit="10" x1="560.754" y1="310.737" x2="560.754" y2="631.965"/>
								
									<line fill="none" stroke="#F8AE38" stroke-width="2.4066" stroke-miterlimit="10" x1="542.747" y1="352.511" x2="578.76" y2="352.511"/>
								
									<line fill="none" stroke="#F8AE38" stroke-width="2.4066" stroke-miterlimit="10" x1="542.747" y1="441.101" x2="578.76" y2="441.101"/>
								
									<line fill="none" stroke="#F8AE38" stroke-width="2.4066" stroke-miterlimit="10" x1="542.747" y1="516.727" x2="578.76" y2="516.727"/>
								
									<line fill="none" stroke="#F8AE38" stroke-width="2.4066" stroke-miterlimit="10" x1="542.747" y1="592.171" x2="578.76" y2="592.171"/>
								<path fill="#F8AE38" d="M560.754,313.798c0,0-12.785-17.646-37.272-10.805v-7.922c0,0,29.889-1.621,37.272,15.666V313.798z"
									/>
								<path fill="#F8AE38" d="M560.754,313.798c0,0,12.785-17.646,37.271-10.805v-7.922c0,0-29.89-1.621-37.271,15.666V313.798z"
									/>
							</g>
							<g>
								<g>
									<path d="M597.485,209.003c-8.283,6.122-22.148,4.322-29.17-3.061l2.342-2.161
										C577.319,210.444,588.843,212.424,597.485,209.003L597.485,209.003z"/>
								</g>
							</g>
							<g>
								<g>
									<path d="M523.3,207.563c8.463,4.501,19.808,1.98,26.831-3.961l2.16,2.341C545.808,212.604,529.604,214.585,523.3,207.563
										L523.3,207.563z"/>
								</g>
							</g>
							<path fill="#E09D6C" d="M548.149,266.802c0.36,0.72,4.681-1.26,12.965-1.26c7.383,0,11.163,1.62,11.523,0.9
								c0.36-0.9-5.042-5.042-11.345-5.402C553.911,260.861,547.789,265.723,548.149,266.802z"/>
							<g>
								<path fill="#E09D6C" d="M553.73,248.077c3.962-1.982,8.645-1.982,12.605-0.181
									C562.375,249.876,557.692,249.876,553.73,248.077L553.73,248.077z"/>
							</g>
							<g>
								<path d="M573.539,226.289c0,0,0,0-0.182,0c-0.359-0.18-0.72-0.36-1.08-0.54c0.36-0.541,0.721-1.261,1.441-1.981
									c0.18-0.18,0.899-0.9,1.8-1.44c1.081-0.721,1.98-0.721,5.042-0.901c3.962-0.359,4.32-0.54,5.401-0.179
									c1.26,0.539,3.061,1.62,2.881,2.52c0,0.361-0.181,0.541-0.54,0.9c-1.261,1.261-2.702,1.441-2.702,1.621
									c0,0.18,2.161,0.359,3.783-0.721c1.08-0.721,1.62-1.801,1.98-2.34c0.54,0,1.441,0.18,2.52,0.36
									c1.44,0.18,1.802,0.359,1.802,0.18c0.18-0.18-2.161-1.44-4.501-2.341c-0.9-0.359-2.342-0.899-4.322-1.08
									c-0.72-0.18-1.981-0.18-5.222,0c-1.62,0.181-3.781,0.36-6.304,0.721c-0.899,0.54-2.339,1.44-3.779,2.7
									c-1.621,1.621-2.702,3.422-2.521,3.602c0.18,0.18,0.539-0.54,1.802-0.54c0.539,0,0.539,0,1.078,0
									C572.638,226.648,573.539,226.469,573.539,226.289z"/>
								<path d="M584.701,220.527c0.18,0.359,0.541,1.08,0.36,1.8c0,1.801-1.44,3.061-1.621,3.241c-1.26,1.08-2.7,0.9-3.601,0.9
									c-0.539,0-1.621,0-2.701-0.72c-0.539-0.36-1.439-0.901-1.801-2.161c-0.36-1.26,0.181-2.34,0.361-2.521
									c1.079-0.181,2.34-0.361,3.421-0.54C581.279,220.527,583.081,220.347,584.701,220.527z"/>
							</g>
							<g>
								<path d="M546.708,226.289c0,0,0,0,0.181,0c0.36-0.18,0.719-0.36,1.081-0.54c-0.362-0.541-0.721-1.261-1.44-1.981
									c-0.181-0.18-0.9-0.9-1.802-1.44c-1.081-0.721-1.98-0.721-5.042-0.901c-3.961-0.359-4.32-0.54-5.401-0.179
									c-1.261,0.539-3.062,1.62-2.88,2.52c0,0.361,0.18,0.541,0.539,0.9c1.262,1.261,2.702,1.441,2.702,1.621
									c0,0.18-2.161,0.359-3.782-0.721c-1.08-0.721-1.62-1.801-1.98-2.34c-0.54,0-1.44,0.18-2.521,0.36
									c-1.439,0.18-1.801,0.359-1.801,0.18c-0.179-0.18,2.162-1.44,4.502-2.341c0.9-0.359,2.342-0.899,4.322-1.08
									c0.72-0.18,1.98-0.18,5.222,0c1.62,0.181,3.78,0.36,6.302,0.721c0.899,0.54,2.341,1.44,3.782,2.7
									c1.62,1.621,2.7,3.422,2.519,3.602c-0.178,0.18-0.54-0.54-1.799-0.54c-0.541,0-0.541,0-1.08,0
									C547.789,226.648,546.708,226.469,546.708,226.289z"/>
								<path d="M535.725,220.527c-0.179,0.359-0.539,1.08-0.359,1.8c0,1.801,1.44,3.061,1.62,3.241c1.261,1.08,2.7,0.9,3.601,0.9
									c0.541,0,1.62,0,2.701-0.72c0.541-0.36,1.44-0.901,1.802-2.161c0.359-1.26-0.181-2.34-0.361-2.521
									c-1.081-0.181-2.341-0.361-3.419-0.54C539.146,220.527,537.344,220.347,535.725,220.527z"/>
							</g>
							<rect x="482.787" y="905.294" fill="#F8AE38" width="74.365" height="30.61"/>
							<rect x="564.715" y="905.294" fill="#F8AE38" width="75.446" height="30.61"/>
						</g>
					</g>
				</g>
			</g>
			<path fill="#BC956B" d="M393.297,182.354"/>
			<path fill="#E08373" d="M553.911,880.446"/>
			<path fill="#9F0102" d="M468.923,322.44l-58.52-64.281c-11.165,8.282-22.327,16.565-33.491,24.847
				c-2.701,1.982-3.961,5.583-2.88,8.823c5.041,16.026,12.244,33.853,22.146,52.578c23.229,44.115,52.398,74.545,74.546,93.991
				C470.003,400.406,469.462,360.614,468.923,322.44z"/>
			<g>
				<g>
					<g>
						<path fill="#FAD4AF" d="M450.377,193.878c0,0,17.646-14.226,20.166-16.566c0,0,1.261-1.261,2.88-4.682
							c0,0,2.523-11.884,2.882-14.945c0.36-2.881,0.541-7.743,1.801-9.543c1.439-1.801,9.542-9.544,10.984-10.444
							c1.44-0.899,15.125-8.462,16.564-8.462c1.262,0,1.081,2.161,1.081,2.161s1.621-0.541,2.342,0
							c0.719,0.541-0.541,3.241-0.541,3.241s1.98,2.881,0,4.682c0,0,1.441,2.161-0.36,3.961c-1.621,1.801-5.942,4.862-5.942,4.862
							s-3.061,4.682-4.502,6.302c0,0,0.541,3.42,0.181,7.021s-0.181,11.704-0.36,16.926c-0.36,5.042-2.341,7.383-6.122,10.624
							c-3.782,3.421-10.804,11.704-14.406,17.826c-10.263,17.286-12.063,13.685-22.327,5.942
							C443.355,204.142,450.377,193.878,450.377,193.878z"/>
						<g>
							<g>
								<g>
									<path fill="#EFB78E" d="M508.536,139.32c-10.983,7.382-9.723,6.303-17.467,16.925c0.722-3.42,3.242-7.382,5.943-10.083
										C500.792,143.641,505.115,140.94,508.536,139.32z"/>
									<path fill="#EFB78E" d="M508.536,134.638c-4.683,3.241-10.983,6.302-15.125,10.083c-2.342,2.701-4.681,5.762-7.022,8.283
										c1.26-3.421,3.961-7.382,6.843-9.904C498.093,140.221,503.675,136.8,508.536,134.638z"/>
									<path fill="#EFB78E" d="M506.735,131.397c-4.683,2.881-10.804,6.481-15.485,9.542c-3.241,3.242-6.302,7.023-9.723,10.083
										c1.982-3.601,5.403-7.563,8.643-10.624C495.571,137.159,501.514,133.738,506.735,131.397z"/>
								</g>
							</g>
						</g>
					</g>
				</g>
				<path fill="#191513" d="M516.459,135.718c0.36,1.801-1.081,5.222-2.341,5.942c-0.72,5.762-2.161,12.964-5.222,20.887
					c-4.321,11.524-10.264,19.987-14.945,25.569c-0.9-3.782-4.321-18.546,3.961-33.852
					C503.675,143.46,512.498,137.879,516.459,135.718z"/>
			</g>
			<path fill="#9F0102" d="M652.404,322.44c19.445-21.426,39.072-42.854,58.519-64.281c11.884,10.624,23.948,21.067,35.833,31.69
				c-5.222,17.105-12.604,36.733-23.769,57.618c-22.688,42.495-50.776,72.205-72.203,90.93
				C651.323,400.406,651.863,360.614,652.404,322.44z"/>
			<g>
				<g>
					<g>
						<path fill="#FAD4AF" d="M670.951,193.878c0,0-17.646-14.226-20.167-16.566c0,0-1.262-1.261-2.882-4.682
							c0,0-2.521-11.884-2.88-14.945c-0.361-2.881-0.541-7.743-1.8-9.543c-1.441-1.801-9.545-9.544-10.984-10.444
							c-1.441-0.899-15.127-8.462-16.566-8.462c-1.26,0-1.079,2.161-1.079,2.161s-1.622-0.541-2.342,0
							c-0.722,0.541,0.541,3.241,0.541,3.241s-1.982,2.881,0,4.682c0,0-1.441,2.161,0.359,3.961
							c1.619,1.801,5.941,4.862,5.941,4.862s3.06,4.682,4.501,6.302c0,0-0.54,3.42-0.178,7.021
							c0.358,3.601,0.178,11.704,0.358,16.926c0.361,5.042,2.341,7.383,6.122,10.624c3.781,3.421,10.804,11.704,14.404,17.826
							c10.265,17.286,12.065,13.685,22.329,5.942C677.973,204.142,670.951,193.878,670.951,193.878z"/>
						<g>
							<g>
								<g>
									<path fill="#EFB78E" d="M612.61,139.32c10.983,7.382,9.724,6.303,17.466,16.925c-0.719-3.42-3.24-7.382-5.94-10.083
										C620.533,143.641,616.213,140.94,612.61,139.32z"/>
									<path fill="#EFB78E" d="M612.792,134.638c4.681,3.241,10.982,6.302,15.124,10.083c2.341,2.701,4.682,5.762,7.021,8.283
										c-1.26-3.421-3.962-7.382-6.842-9.904C623.235,140.221,617.653,136.8,612.792,134.638z"/>
									<path fill="#EFB78E" d="M614.591,131.397c4.682,2.881,10.804,6.481,15.485,9.542c3.241,3.242,6.303,7.023,9.724,10.083
										c-1.98-3.601-5.401-7.563-8.643-10.624C625.754,137.159,619.814,133.738,614.591,131.397z"/>
								</g>
							</g>
						</g>
					</g>
				</g>
				<path fill="#191513" d="M604.869,134.638c-0.362,1.801,1.08,5.223,2.34,5.942c5.762,7.742,7.922,14.765,9.004,19.806
					c2.34,12.064,3.06,15.846,6.481,21.248c1.441,2.161,2.7,3.782,3.602,4.682c0.9-3.781,3.961-17.286-3.061-31.69
					C617.653,142.741,608.649,136.8,604.869,134.638z"/>
				<path fill="#9F0102" d="M626.296,230.609c2.52,9.364,13.865,48.257,49.695,65.903c22.148,10.984,49.157,11.524,61.582,3.24
					c2.339-1.619,9.901-6.121,9.363-12.243c-0.362-4.141-2.702-7.203-3.602-8.282c-6.844-7.923-38.353-47.716-81.929-102.814
					c-4.861,10.983-11.524,23.587-20.887,36.552C635.838,219.626,630.976,225.389,626.296,230.609z"/>
				<path fill="#F8AE38" d="M625.936,230.609c1.08,3.962,2.521,8.284,4.321,12.966c1.801,4.502,3.601,8.463,5.581,12.064
					c8.104-8.824,17.286-20.348,25.93-34.933c5.941-10.083,10.263-19.626,13.504-28.09c-4.681-5.94-9.183-11.703-13.865-17.646
					c-5.221,11.345-12.244,24.129-21.426,37.274C635.299,219.086,630.438,225.208,625.936,230.609z"/>
				<path fill="#9F0102" d="M494.312,230.609c-2.521,9.364-13.864,48.257-49.696,65.903c-22.147,10.984-49.157,11.524-61.582,3.24
					c-2.339-1.619-9.901-6.121-9.363-12.243c0.361-4.141,2.701-7.203,3.601-8.282c6.844-7.923,38.353-47.716,81.929-102.814
					c4.862,10.983,11.524,23.587,20.886,36.552C484.769,219.626,489.63,225.389,494.312,230.609z"/>
				<path fill="#F8AE38" d="M494.671,230.609c-1.08,3.962-2.52,8.284-4.321,12.966c-1.8,4.502-3.601,8.463-5.581,12.064
					c-8.104-8.824-17.286-20.348-25.93-34.933c-5.941-10.083-10.263-19.626-13.504-28.09c4.683-5.94,9.183-11.703,13.865-17.646
					c5.222,11.345,12.244,24.129,21.427,37.274C485.309,219.086,489.99,225.208,494.671,230.609z"/>
			</g>
		</g>
	</g>
</g>
</svg>
