<?xml version="1.0" encoding="utf-8"?>
<!-- Generator: Adobe Illustrator 26.0.1, SVG Export Plug-In . SVG Version: 6.00 Build 0)  -->
<svg version="1.1" id="Layer_1" xmlns="http://www.w3.org/2000/svg" xmlns:xlink="http://www.w3.org/1999/xlink" x="0px" y="0px"
	 viewBox="0 0 634.5 447" style="enable-background:new 0 0 634.5 447;" xml:space="preserve">
<style type="text/css">
	.st0{clip-path:url(#SVGID_00000141436061946607089970000003440582213269458853_);fill:#A5E0DC;}
	.st1{clip-path:url(#SVGID_00000134221182141732159770000001464770909012753045_);fill:#00747D;}
	.st2{clip-path:url(#SVGID_00000037672361953768139360000005692058600024844202_);}
	.st3{opacity:0.15;}
	.st4{clip-path:url(#SVGID_00000054266318042738955730000007632478935043206055_);fill:#281010;}
	.st5{clip-path:url(#SVGID_00000136411847461625502110000008583430730529213109_);fill:#281010;}
	.st6{fill:#D14040;}
	.st7{fill:#FFFFFF;}
	.st8{fill:#412233;}
	.st9{fill:#4F900D;}
	.st10{fill:#FBD5A2;}
	.st11{fill:#DD3E49;}
	.st12{opacity:0.39;fill:#231F20;}
	.st13{fill:#7A574E;}
	.st14{fill:#7B889B;}
	.st15{fill:#6B7B8E;}
	.st16{fill:#8897AA;}
	.st17{fill:#381B19;}
	.st18{fill:#442221;}
	.st19{fill:#DBCAA2;}
	.st20{fill:#F2C9A0;}
	.st21{fill:#DBAC89;}
	.st22{fill:#D3D3D3;}
	.st23{fill:#E4C77B;}
	.st24{fill:#292937;}
	.st25{fill:#1E1E29;}
	.st26{fill:#232330;}
	.st27{fill:#3A2317;}
	.st28{fill:#563A1F;}
	.st29{fill:#E8DCD6;}
	.st30{opacity:0.2;}
	.st31{fill:#42210B;}
	.st32{fill:#D8A188;}
	.st33{fill:#7C5342;}
	.st34{fill:#724A3B;}
	.st35{fill:#FFCB7E;}
	.st36{fill:#6B4337;}
	.st37{fill:#7F5546;}
	.st38{fill:#543730;}
	.st39{fill:#8E695C;}
	.st40{fill:#101010;}
	.st41{fill:#CC936D;}
	.st42{fill:#BA7D54;}
	.st43{fill:none;}
	.st44{fill:#C6C6C6;}
	.st45{fill:#AF1919;}
	.st46{fill:#AF7151;}
	.st47{fill:#513328;}
	.st48{fill:none;stroke:#000000;stroke-width:3.5971;stroke-linecap:round;stroke-linejoin:round;stroke-miterlimit:10;}
</style>
<g>
	<g>
		<defs>
			<path id="SVGID_1_" d="M19.7,293c-4.5-21.5-2.8-57.4,19-78.2c65.3-62.2,127.6-6.7,140.1-73.9C190.3,79,234,19,313.5,38.3
				c102.1,24.9,90.8,95.3,141,90c50.1-5.3,135.9-44.7,151.4,30c15.5,74.6-57.2,138.6-10.9,133.4c6.7,0.4,25.6,2.4,32.1,14.9
				c7.2,13.8-4.6,32.3-9.4,39.8c-31,48.7-220.1,119.8-435.6,55.9C123.3,384.8,33.3,356.9,19.7,293z"/>
		</defs>
		<clipPath id="SVGID_00000056414108470948538980000003075327569786912419_">
			<use xlink:href="#SVGID_1_"  style="overflow:visible;"/>
		</clipPath>
		<path style="clip-path:url(#SVGID_00000056414108470948538980000003075327569786912419_);fill:#A5E0DC;" d="M635.7,366.3
			c-3,11.2-8.2,21.6-15,30.7c-16.5,21.9-43,36.2-72.7,36.2H185.7c-37,0-71.7-12-99.9-32.6c-12.1-8.9-23.1-19.3-32.5-31.1
			c-17.1-21.6-29.1-47.6-33.7-76.4c-4.9-30.1-1.4-58.7,19-78.2c65.3-62.2,127.6-6.7,140.1-73.9C190.3,79.1,234,19,313.5,38.3
			c102.1,24.9,90.8,95.3,141,90c50.1-5.3,135.9-44.7,151.4,30c15.5,74.6-57.2,138.6-10.9,133.4c32.1,3.6,42.8,24.4,43.5,49
			C638.9,349.6,637.8,358.2,635.7,366.3z"/>
	</g>
	<g>
		<defs>
			<path id="SVGID_00000080202682876016210420000016970819979417339266_" d="M19.7,293c-4.5-21.5-2.8-57.4,19-78.2
				c65.3-62.2,127.6-6.7,140.1-73.9C190.3,79,234,19,313.5,38.3c102.1,24.9,90.8,95.3,141,90c50.1-5.3,135.9-44.7,151.4,30
				c15.5,74.6-57.2,138.6-10.9,133.4c6.7,0.4,25.6,2.4,32.1,14.9c7.2,13.8-4.6,32.3-9.4,39.8c-31,48.7-219.1,124.2-434.6,60.3
				C124.3,389.2,33.3,356.9,19.7,293z"/>
		</defs>
		<clipPath id="SVGID_00000127765065385546601170000008384541049994517407_">
			<use xlink:href="#SVGID_00000080202682876016210420000016970819979417339266_"  style="overflow:visible;"/>
		</clipPath>
		<path style="clip-path:url(#SVGID_00000127765065385546601170000008384541049994517407_);fill:#00747D;" d="M764.8,295.5
			c0,0-12.3,56-22.6,79.6c-24.9,56.9-64.7,93.8-109.3,93.8H87.4c-55.7,0-108-31.1-150.4-84.5c-18.3-23-48.9-80.8-48.9-80.8
			L764.8,295.5z"/>
	</g>
	<g>
		<defs>
			<path id="SVGID_00000031893929460143521710000017847057751039602835_" d="M19.7,293c0-0.3-0.1-0.4-0.1-0.6
				c-1.2-6.6-8.5-51.3,19.1-77.6c65.3-62.2,127.6-6.7,140.1-73.9C190.3,79,234,19,313.5,38.3c102.1,24.9,90.8,95.3,141,90
				c50.1-5.3,135.9-44.7,151.4,30c15.5,74.6-57.2,138.6-10.9,133.4c6.1,0.6,21.3,3,27.6,14.1c7.9,14-3.5,33.3-8.5,41.7
				c-21.7,36.5-108.7,82.4-247,82.4c0,0-182.1,6-300.7-76.2C54,345.2,25.9,325.7,19.7,293z"/>
		</defs>
		<clipPath id="SVGID_00000041999721528718787410000005789989016804403875_">
			<use xlink:href="#SVGID_00000031893929460143521710000017847057751039602835_"  style="overflow:visible;"/>
		</clipPath>
		<g style="clip-path:url(#SVGID_00000041999721528718787410000005789989016804403875_);">
			<g>
				<g>
					<g class="st3">
						<g>
							<g>
								<g>
									<defs>
										<rect id="SVGID_00000049182373487180539210000000265200479818661018_" x="159.1" y="290.7" width="17" height="104.9"/>
									</defs>
									<clipPath id="SVGID_00000169554203028510866980000012069121920606079152_">
										<use xlink:href="#SVGID_00000049182373487180539210000000265200479818661018_"  style="overflow:visible;"/>
									</clipPath>
									
										<rect x="159.1" y="290.7" style="clip-path:url(#SVGID_00000169554203028510866980000012069121920606079152_);fill:#281010;" width="17" height="104.9"/>
								</g>
							</g>
						</g>
					</g>
				</g>
				<g>
					<g class="st3">
						<g>
							<g>
								<g>
									<defs>
										<rect id="SVGID_00000122694761782087176220000000563665314763696521_" x="461.8" y="290.7" width="17" height="104.9"/>
									</defs>
									<clipPath id="SVGID_00000160902256126775377570000003800224581773936570_">
										<use xlink:href="#SVGID_00000122694761782087176220000000563665314763696521_"  style="overflow:visible;"/>
									</clipPath>
									
										<rect x="461.8" y="290.7" style="clip-path:url(#SVGID_00000160902256126775377570000003800224581773936570_);fill:#281010;" width="17" height="104.9"/>
								</g>
							</g>
						</g>
					</g>
				</g>
				<g>
					<g>
						<polygon class="st6" points="234.8,289.8 233.2,276.3 231.6,262.9 230,249.5 228.5,236.1 226.9,222.6 226.5,218.8 
							225.5,210.9 225.5,210.1 225.3,209.2 223.8,195.8 222.2,182.4 222.1,181.2 221.8,178.9 221.3,174.3 220.9,171.4 220.6,168.9 
							220.3,165.6 220.2,165.1 219.1,155.5 217.6,142.6 214.5,142.6 214.1,149.1 214,149.5 214,149.5 213.6,156.7 213.5,157.5 
							213.3,160.2 213.1,164 213.1,164.4 212.7,171 212.6,171.6 212.6,172.4 212.2,178.9 212.1,179.3 212.1,179.3 212,181.7 
							211.7,186.5 211.7,186.5 211.6,187.3 211.3,192.5 211.2,193.8 211.2,194.2 210.7,201.4 210.7,202.2 210.6,203.2 210.2,208.7 
							210.2,209.1 209.9,214 209.2,224.7 208.5,235.4 207.8,246.2 207.2,256.9 206.5,267.7 205.8,278 236.9,308.5 236.3,303.2 
													"/>
						<g>
							<polygon class="st6" points="213.3,142.6 212.4,148 212.3,148.3 212.3,148.3 213.2,149.5 213.4,149.7 216.1,153.3 
								215.9,142.6 							"/>
							<polygon class="st7" points="216.2,161.2 216.1,153.3 213.4,149.7 213.2,149.5 212.3,148.3 211.4,154.2 211.3,154.9 
								210.9,157.2 212.6,159.4 213,160 216.3,164.4 216.3,161.7 							"/>
							<polygon class="st6" points="216.5,172.7 216.4,168.9 216.4,166.5 216.3,164.4 213,160 212.6,159.4 210.9,157.2 210.4,160.3 
								210.3,160.6 209.5,166.1 209.7,166.4 210.7,167.8 214.8,173.3 215.9,174.6 216.5,175.5 216.5,174.6 							"/>
							<polygon class="st7" points="215.9,174.6 214.8,173.3 210.7,167.8 209.7,166.4 209.5,166.1 209.4,166.6 209.3,167.2 
								208.4,172.7 208.3,173 208.3,173 208,175 216.8,186.6 216.5,175.5 							"/>
							<polygon class="st6" points="208,175 207.4,178.9 207.4,178.9 207.3,179.6 206.6,183.9 207.1,184.6 208.1,186 212.3,191.5 
								213.3,192.8 217,197.8 216.8,186.6 							"/>
							<polygon class="st7" points="217,199.2 217,198.5 217,197.8 213.3,192.8 212.3,191.5 208.1,186 207.1,184.6 206.6,183.9 
								206.4,185 206.3,185.4 205.4,191.3 205.3,192 205.1,192.8 215.7,206.9 217.2,208.9 217.2,205.8 							"/>
							<polygon class="st6" points="215.7,206.9 205.1,192.8 204.4,197.4 204.3,197.7 203.7,201.7 210.6,210.9 217.5,220 
								217.2,208.9 							"/>
							<polygon class="st7" points="210.6,210.9 203.7,201.7 202.3,210.6 217.7,231.2 217.5,220 							"/>
							<polygon class="st7" points="202.3,210.6 200.8,219.5 217.9,242.3 217.7,231.2 							"/>
							<polygon class="st7" points="200.8,219.5 199.4,228.5 218.1,253.4 217.9,242.3 							"/>
							<polygon class="st8" points="199.4,228.5 197.9,237.4 218.4,264.6 218.1,253.4 							"/>
							<polygon class="st8" points="197.9,237.4 196.5,246.3 218.6,275.7 218.4,264.6 							"/>
							<polygon class="st6" points="196.5,246.3 195.1,254.8 218.7,280.1 218.6,275.7 							"/>
							<g>
								<polygon class="st9" points="217,198.5 217,197.8 216.8,186.6 216.5,175.5 216.5,174.6 216.5,172.7 216.4,168.9 
									216.4,166.5 216.3,164.4 216.3,161.7 216.2,161.2 216.1,153.3 215.9,142.6 213.3,142.6 212.4,148 212.3,148.3 212.3,148.3 
									211.4,154.2 211.3,154.9 210.9,157.2 210.4,160.3 210.3,160.6 209.5,166.1 209.4,166.6 209.3,167.2 208.4,172.7 208.3,173 
									208.3,173 208,175 207.4,178.9 207.4,178.9 207.3,179.6 206.6,183.9 206.4,185 206.3,185.4 205.4,191.3 205.3,192 
									205.1,192.8 204.4,197.4 204.3,197.7 203.7,201.7 210.6,210.9 215.7,206.9 217.2,205.8 217,199.2 								"/>
							</g>
						</g>
						<g>
							<polygon class="st6" points="214.5,142.6 214.1,149.1 214,149.5 214,149.5 215.3,150.9 215.5,151.2 219.1,155.5 217.6,142.6 
															"/>
							<polygon class="st7" points="220.2,165.1 219.1,155.5 215.5,151.2 215.3,150.9 214,149.5 213.6,156.7 213.5,157.5 
								213.3,160.2 215.6,162.9 216.2,163.6 220.6,168.9 220.3,165.6 							"/>
							<polygon class="st6" points="221.8,178.9 221.3,174.3 220.9,171.4 220.6,168.9 216.2,163.6 215.6,162.9 213.3,160.2 
								213.1,164 213.1,164.4 212.7,171 213,171.4 214.3,173 219.9,179.6 221.3,181.3 222.2,182.4 222.1,181.2 							"/>
							<polygon class="st7" points="221.3,181.3 219.9,179.6 214.3,173 213,171.4 212.7,171 212.6,171.6 212.6,172.4 212.2,178.9 
								212.1,179.3 212.1,179.3 212,181.7 223.8,195.8 222.2,182.4 							"/>
							<polygon class="st6" points="212,181.7 211.7,186.5 211.7,186.5 211.6,187.3 211.3,192.5 212,193.3 213.4,194.9 219,201.6 
								220.3,203.2 225.3,209.2 223.8,195.8 							"/>
							<polygon class="st9" points="225.5,210.9 225.5,210.1 225.3,209.2 220.3,203.2 219,201.6 213.4,194.9 212,193.3 211.3,192.5 
								211.2,193.8 211.2,194.2 210.7,201.4 210.7,202.2 210.6,203.2 224.9,220.2 226.9,222.6 226.5,218.8 							"/>
							<polygon class="st9" points="224.9,220.2 210.6,203.2 210.2,208.7 210.2,209.1 209.9,214 219.2,225 228.5,236.1 226.9,222.6 
															"/>
							<polygon class="st7" points="219.2,225 209.9,214 209.2,224.7 230,249.5 228.5,236.1 							"/>
							<polygon class="st7" points="209.2,224.7 208.5,235.4 231.6,262.9 230,249.5 							"/>
							<polygon class="st8" points="208.5,235.4 207.8,246.2 233.2,276.3 231.6,262.9 							"/>
							<polygon class="st6" points="207.8,246.2 207.2,256.9 234.8,289.8 233.2,276.3 							"/>
							<polygon class="st7" points="207.2,256.9 206.5,267.7 236.3,303.2 234.8,289.8 							"/>
							<polygon class="st6" points="206.5,267.7 205.8,278 236.9,308.5 236.3,303.2 							"/>
							<g>
								<polygon class="st9" points="225.5,210.1 225.3,209.2 223.8,195.8 222.2,182.4 222.1,181.2 221.8,178.9 221.3,174.3 
									220.9,171.4 220.6,168.9 220.3,165.6 220.2,165.1 219.1,155.5 217.6,142.6 214.5,142.6 209.9,214 219.2,225 224.9,220.2 
									226.5,218.8 225.5,210.9 								"/>
							</g>
							<polygon class="st7" points="209.9,214 210.3,207.4 227.5,227.9 228.7,237.7 							"/>
						</g>
						<path class="st10" d="M215.9,138.1h-1.1c-0.4,0-0.7,0.2-0.7,0.6l-0.8,4h4.3l-1-4C216.5,138.3,216.2,138.1,215.9,138.1z"/>
						<path class="st10" d="M215.3,132.1c-0.8,0-1.4,1.4-1.4,3c0,1.7,0.6,3,1.4,3c0.8,0,1.4-1.4,1.4-3
							C216.7,133.5,216.1,132.1,215.3,132.1z"/>
						<polygon class="st11" points="213.3,142.6 204.4,243.5 196.9,243.5 						"/>
						<path class="st12" d="M199.8,259.8l6.7,7.2c0,0,1.8-29.3,3.8-59.6c2.1-31.8,4.6-64.8,4.6-64.8c0,0-0.5,0-0.5,0L199.8,259.8z"
							/>
					</g>
				</g>
				<g>
					<g>
						<polygon class="st6" points="400.7,289.8 402.3,276.3 403.8,262.9 405.4,249.5 407,236.1 408.5,222.6 409,218.8 409.9,210.9 
							410,210.1 410.1,209.2 411.7,195.8 413.2,182.4 413.4,181.2 413.6,178.9 414.2,174.3 414.5,171.4 414.8,168.9 415.2,165.6 
							415.2,165.1 416.4,155.5 417.9,142.6 421,142.6 421.4,149.1 421.4,149.5 421.4,149.5 421.9,156.7 421.9,157.5 422.1,160.2 
							422.3,164 422.4,164.4 422.8,171 422.8,171.6 422.9,172.4 423.3,178.9 423.3,179.3 423.3,179.3 423.5,181.7 423.8,186.5 
							423.8,186.5 423.8,187.3 424.2,192.5 424.3,193.8 424.3,194.2 424.7,201.4 424.8,202.2 424.8,203.2 425.2,208.7 425.2,209.1 
							425.5,214 426.2,224.7 426.9,235.4 427.6,246.2 428.3,256.9 429,267.7 429.6,278 398.5,308.5 399.1,303.2 						"/>
						<g>
							<polygon class="st6" points="422.2,142.6 423,148 423.1,148.3 423.1,148.3 422.2,149.5 422,149.7 419.4,153.3 419.6,142.6 
															"/>
							<polygon class="st7" points="419.2,161.2 419.4,153.3 422,149.7 422.2,149.5 423.1,148.3 424.1,154.2 424.2,154.9 
								424.5,157.2 422.9,159.4 422.4,160 419.1,164.4 419.2,161.7 							"/>
							<polygon class="st6" points="419,172.7 419,168.9 419.1,166.5 419.1,164.4 422.4,160 422.9,159.4 424.5,157.2 425.1,160.3 
								425.1,160.6 426,166.1 425.7,166.4 424.7,167.8 420.6,173.3 419.6,174.6 418.9,175.5 418.9,174.6 							"/>
							<polygon class="st7" points="419.6,174.6 420.6,173.3 424.7,167.8 425.7,166.4 426,166.1 426.1,166.6 426.2,167.2 427,172.7 
								427.1,173 427.1,173 427.4,175 418.7,186.6 418.9,175.5 							"/>
							<polygon class="st6" points="427.4,175 428.1,178.9 428.1,178.9 428.2,179.6 428.9,183.9 428.3,184.6 427.3,186 423.2,191.5 
								422.2,192.8 418.4,197.8 418.7,186.6 							"/>
							<polygon class="st7" points="418.4,199.2 418.4,198.5 418.4,197.8 422.2,192.8 423.2,191.5 427.3,186 428.3,184.6 
								428.9,183.9 429.1,185 429.1,185.4 430.1,191.3 430.2,192 430.3,192.8 419.7,206.9 418.2,208.9 418.3,205.8 							"/>
							<polygon class="st6" points="419.7,206.9 430.3,192.8 431,197.4 431.1,197.7 431.8,201.7 424.9,210.9 418,220 418.2,208.9 
															"/>
							<polygon class="st7" points="424.9,210.9 431.8,201.7 433.2,210.6 417.8,231.2 418,220 							"/>
							<polygon class="st7" points="433.2,210.6 434.6,219.5 417.5,242.3 417.8,231.2 							"/>
							<polygon class="st7" points="434.6,219.5 436.1,228.5 417.3,253.4 417.5,242.3 							"/>
							<polygon class="st8" points="436.1,228.5 437.5,237.4 417.1,264.6 417.3,253.4 							"/>
							<polygon class="st8" points="437.5,237.4 439,246.3 416.8,275.7 417.1,264.6 							"/>
							<polygon class="st6" points="439,246.3 440.3,254.8 416.7,280.1 416.8,275.7 							"/>
							<g>
								<polygon class="st9" points="418.4,198.5 418.4,197.8 418.7,186.6 418.9,175.5 418.9,174.6 419,172.7 419,168.9 
									419.1,166.5 419.1,164.4 419.2,161.7 419.2,161.2 419.4,153.3 419.6,142.6 422.2,142.6 423,148 423.1,148.3 423.1,148.3 
									424.1,154.2 424.2,154.9 424.5,157.2 425.1,160.3 425.1,160.6 426,166.1 426.1,166.6 426.2,167.2 427,172.7 427.1,173 
									427.1,173 427.4,175 428.1,178.9 428.1,178.9 428.2,179.6 428.9,183.9 429.1,185 429.1,185.4 430.1,191.3 430.2,192 
									430.3,192.8 431,197.4 431.1,197.7 431.8,201.7 424.9,210.9 419.7,206.9 418.3,205.8 418.4,199.2 								"/>
							</g>
						</g>
						<g>
							<polygon class="st6" points="421,142.6 421.4,149.1 421.4,149.5 421.4,149.5 420.2,150.9 420,151.2 416.4,155.5 417.9,142.6 
															"/>
							<polygon class="st7" points="415.2,165.1 416.4,155.5 420,151.2 420.2,150.9 421.4,149.5 421.9,156.7 421.9,157.5 
								422.1,160.2 419.8,162.9 419.3,163.6 414.8,168.9 415.2,165.6 							"/>
							<polygon class="st6" points="413.6,178.9 414.2,174.3 414.5,171.4 414.8,168.9 419.3,163.6 419.8,162.9 422.1,160.2 
								422.3,164 422.4,164.4 422.8,171 422.5,171.4 421.1,173 415.5,179.6 414.2,181.3 413.2,182.4 413.4,181.2 							"/>
							<polygon class="st7" points="414.2,181.3 415.5,179.6 421.1,173 422.5,171.4 422.8,171 422.8,171.6 422.9,172.4 423.3,178.9 
								423.3,179.3 423.3,179.3 423.5,181.7 411.7,195.8 413.2,182.4 							"/>
							<polygon class="st6" points="423.5,181.7 423.8,186.5 423.8,186.5 423.8,187.3 424.2,192.5 423.4,193.3 422.1,194.9 
								416.5,201.6 415.1,203.2 410.1,209.2 411.7,195.8 							"/>
							<polygon class="st9" points="409.9,210.9 410,210.1 410.1,209.2 415.1,203.2 416.5,201.6 422.1,194.9 423.4,193.3 
								424.2,192.5 424.3,193.8 424.3,194.2 424.7,201.4 424.8,202.2 424.8,203.2 410.6,220.2 408.5,222.6 409,218.8 							"/>
							<polygon class="st9" points="410.6,220.2 424.8,203.2 425.2,208.7 425.2,209.1 425.5,214 416.3,225 407,236.1 408.5,222.6 
															"/>
							<polygon class="st7" points="416.3,225 425.5,214 426.2,224.7 405.4,249.5 407,236.1 							"/>
							<polygon class="st7" points="426.2,224.7 426.9,235.4 403.8,262.9 405.4,249.5 							"/>
							<polygon class="st8" points="426.9,235.4 427.6,246.2 402.3,276.3 403.8,262.9 							"/>
							<polygon class="st6" points="427.6,246.2 428.3,256.9 400.7,289.8 402.3,276.3 							"/>
							<polygon class="st7" points="428.3,256.9 429,267.7 399.1,303.2 400.7,289.8 							"/>
							<polygon class="st6" points="429,267.7 429.6,278 398.5,308.5 399.1,303.2 							"/>
							<g>
								<polygon class="st9" points="410,210.1 410.1,209.2 411.7,195.8 413.2,182.4 413.4,181.2 413.6,178.9 414.2,174.3 
									414.5,171.4 414.8,168.9 415.2,165.6 415.2,165.1 416.4,155.5 417.9,142.6 421,142.6 425.5,214 416.3,225 410.6,220.2 
									409,218.8 409.9,210.9 								"/>
							</g>
							<polygon class="st7" points="425.5,214 425.1,207.4 407.9,227.9 406.8,237.7 							"/>
						</g>
						<path class="st10" d="M419.6,138.1h1.1c0.4,0,0.7,0.2,0.7,0.6l0.8,4h-4.3l1-4C418.9,138.3,419.2,138.1,419.6,138.1z"/>
						<path class="st10" d="M420.1,132.1c0.8,0,1.4,1.4,1.4,3c0,1.7-0.6,3-1.4,3c-0.8,0-1.4-1.4-1.4-3
							C418.7,133.5,419.4,132.1,420.1,132.1z"/>
						<polygon class="st11" points="422.2,142.6 431.1,243.5 438.5,243.5 						"/>
						<path class="st12" d="M435.7,259.8l-6.7,7.2c0,0-1.8-29.3-3.8-59.6c-2.1-31.8-4.6-64.8-4.6-64.8c0,0,0.5,0,0.5,0L435.7,259.8z
							"/>
					</g>
				</g>
				<g>
					<rect x="417.4" y="152.7" class="st13" width="2.2" height="140.6"/>
				</g>
				<g>
					<path class="st13" d="M419.5,159.4v4.8l-2.2-0.9V154C417.4,154,418,157,419.5,159.4"/>
				</g>
				<g>
					<path class="st13" d="M419.5,146.6l1.1,3.3c0.5,1.4-0.6,3-2.1,3c-1.6,0-2.6-1.5-2.1-3l1.1-3.3
						C417.8,145.7,419.1,145.7,419.5,146.6"/>
				</g>
				<g>
					<rect x="415.4" y="152.7" class="st14" width="2.2" height="140.6"/>
				</g>
				<g>
					<path class="st15" d="M417.5,159.4v4.8l-2.2-0.9V154C415.4,154,415.9,157,417.5,159.4"/>
				</g>
				<g>
					<rect x="415.4" y="152.7" class="st15" width="2.2" height="1.1"/>
				</g>
				<g>
					<path class="st14" d="M417.4,146.6l1.1,3.3c0.5,1.4-0.6,3-2.1,3c-1.6,0-2.6-1.5-2.1-3l1.1-3.3
						C415.8,145.7,417.1,145.7,417.4,146.6"/>
				</g>
				<g>
					<path class="st16" d="M418.8,150.8c-3.6-0.1-2.8-4.1-2.5-5.4c0.4,0,0.6,0.1,0.8,0.6l1.6,4.6
						C418.8,150.6,418.8,150.7,418.8,150.8"/>
				</g>
				<path class="st17" d="M359.2,293h-82.5l-4-58.7c-0.9-12.6,9.2-23.4,21.9-23.4h46.8c12.7,0,22.7,10.7,21.9,23.4L359.2,293z"/>
				<g>
					<path class="st18" d="M272.9,236.9c1.6-10.5,10.6-18.8,21.7-18.8h46.8c11.1,0,20.2,8.2,21.7,18.8l0.1-2.6
						c0.9-12.6-9.2-23.4-21.9-23.4h-46.8c-12.7,0-22.7,10.7-21.9,23.4L272.9,236.9z"/>
					<g>
						<path class="st19" d="M348.6,218.6c0-29.4-11.1-36.3-11.1-36.3l-15.9-1.3l0-1.8l-6.6,1.3l-0.7-0.1l0,0.2l-8.6,1.7
							c0,0-11.1,6.9-11.1,36.3c0,27.5-10.1,37.4-10.4,41.8c-0.2,4,30.4,3.4,36.4,3.2l0,0.1c0,0,38.5,1.1,38.3-3.3
							C358.6,256,348.6,246,348.6,218.6z"/>
						<g>
							<g>
								<g id="XMLID_00000140695016903795514440000007187974054270309291_">
									<path class="st20" d="M337.8,225.3c0,5.1-7.6,9.2-16.9,9.2s-16.5-3.3-16.5-8.5c0-3,4.5-5.5,9.2-7v-15.3h14.8V219
										C332.9,220.5,337.8,222.3,337.8,225.3z"/>
									<path class="st21" d="M328.3,203.7v13.2c-1.5,0.6-4.4,1.6-8.2,1.3c-3-0.2-5.3-1.1-6.7-1.8v-12.6H328.3z"/>
									<path class="st22" d="M321.1,279.7c0,0-22-44.2-18.7-53.4c1.1-4,7.6-6.3,7.6-6.3s5.1,2.8,11.1,2.8c6,0,11.1-2.8,11.1-2.8
										s6,3.9,7,7.8C342.6,236.9,321.1,279.7,321.1,279.7z"/>
									<g>
										<polygon class="st7" points="328.9,216.6 321.1,222.7 326.3,230.8 332.2,219.9 										"/>
										<polygon class="st7" points="313.3,216.6 321.1,222.7 315.9,230.8 310,219.9 										"/>
									</g>
									<path class="st23" d="M322.8,295.9c0,0.9-0.8,1.7-1.7,1.7s-1.7-0.8-1.7-1.7c0-0.9,0.8-1.7,1.7-1.7
										C322.1,294.1,322.8,294.9,322.8,295.9z"/>
									<path class="st23" d="M322.8,313.6c0,0.9-0.8,1.7-1.7,1.7s-1.7-0.8-1.7-1.7c0-0.9,0.8-1.7,1.7-1.7
										C322.1,311.9,322.8,312.7,322.8,313.6z"/>
									<g>
										<g>
											<g>
												<path class="st24" d="M350.6,226.5c2.9,0,5.8,0.6,7.7,2.2c1.8,1.6,2.8,3.6,3.7,5.6c6.3,14,12.6,27.9,19,41.9
													c-1.2,0.8-2.6,1.4-4.1,1.8c0.2,0.6,0.4,1.1,0.6,1.7c-2.4,0.9-3.7,1.4-7.5,2.3c-1.8,0.4-4.5,0.3-6.3,0.4l0.1,0.8
													c-3.6,0.1-7.1,0.1-10.7-0.1c0,0-4.7-34.2-7.6-41.7C342.4,233.9,347.7,226.5,350.6,226.5z"/>
												<path class="st25" d="M363.5,282.5c0.4,0,0.7,0,1.1-0.1c-0.7-1.4-2.4-4.3-2.4-4.3S363.2,281,363.5,282.5z"/>
												<path class="st25" d="M378.1,277.6c-1.6-1.8-4.9-5.3-4.9-5.3s2.6,3.9,3.7,5.9c0-0.1-0.1-0.1-0.1-0.2
													C377.2,277.9,377.6,277.8,378.1,277.6z"/>
												<path class="st25" d="M349.3,246.9c-0.4-2.6,0.6-7,0.9-8.2c0.4-2.8-3.1-3.8-5.3-5.3c-0.6,2.4-0.7,5.2,0.4,8
													c2.9,7.5,7.6,41.7,7.6,41.7c1.8,0.1,3.7,0.2,5.5,0.2c-0.8-0.7-1.4-1.7-1.7-2.8C353.1,268.6,349.7,249.5,349.3,246.9z"/>
											</g>
										</g>
										<g>
											<g>
												<path class="st24" d="M291.7,226.5c-2.9,0-5.8,0.6-7.7,2.2c-1.8,1.6-2.8,3.6-3.7,5.6c-6.3,14-12.6,27.9-19,41.9
													c1.2,0.8,2.6,1.4,4.1,1.8c-0.2,0.6-0.4,1.1-0.6,1.7c2.4,0.9,3.7,1.4,7.5,2.3c1.8,0.4,4.5,0.3,6.3,0.4l-0.1,0.8
													c3.6,0.1,7.1,0.1,10.7-0.1c0,0,4.7-34.2,7.6-41.7C299.8,233.9,294.5,226.5,291.7,226.5z"/>
												<path class="st25" d="M278.7,282.5c-0.4,0-0.7,0-1.1-0.1c0.7-1.4,2.4-4.3,2.4-4.3S279,281,278.7,282.5z"/>
												<path class="st25" d="M264.1,277.6c1.6-1.8,4.9-5.3,4.9-5.3s-2.6,3.9-3.7,5.9c0-0.1,0.1-0.1,0.1-0.2
													C265,277.9,264.6,277.8,264.1,277.6z"/>
												<path class="st25" d="M292.9,246.9c0.4-2.6-0.6-7-0.9-8.2c-0.4-2.8,3.1-3.8,5.3-5.3c0.6,2.4,0.7,5.2-0.4,8
													c-2.9,7.5-7.6,41.7-7.6,41.7c-1.8,0.1-3.7,0.2-5.5,0.2c0.8-0.7,1.4-1.7,1.7-2.8C289.1,268.6,292.5,249.5,292.9,246.9z"
													/>
											</g>
										</g>
										<g>
											<g>
												<path class="st24" d="M355.8,331.4c-0.5-0.8-4.7-79.7-4.6-86.5c0-3.1,5.8-14.1,3.7-16.8c-2.1-2.8-18.5-6.5-21.2-7.1
													c-0.2-0.1-0.1,6-0.1,14c0,6.1-10.6,11.3-13.2,11.3c-2.7,0-13.2-4.9-13.2-11.2c0-7.8,0.2-13.9,0-13.8
													c-2.3,0.6-18,4.4-19.9,6.8c-2.2,2.8,3.7,13.8,3.7,16.8c0.1,6.9-4.1,85.8-4.6,86.5c-1.3,1.9,4.1,2.8,8,2.9
													c0,0,16.6,1.5,25.9,1.5c9.3,0,27.7-1.5,27.7-1.5C351.7,334.2,357.1,333.3,355.8,331.4z"/>
											</g>
											<g>
												<path class="st26" d="M325.5,244.4h25.7c0.5-3.6,5.7-13.7,3.6-16.3c-2.1-2.8-18.5-6.5-21.2-7.1c-0.2-0.1-0.1,6-0.1,14
													C333.6,238.9,329.3,242.4,325.5,244.4z"/>
												<path class="st26" d="M315.1,244.4c-3.8-2-8-5.4-8-9.4c0-7.8,0.2-13.9,0-13.8c-2.3,0.6-18,4.4-19.9,6.8
													c-2.1,2.6,3.1,12.8,3.6,16.3H315.1z"/>
											</g>
											<polygon class="st25" points="321,335.8 320.7,246.2 319.9,246.2 320.5,335.8 											"/>
											<polygon class="st25" points="309.7,244.4 310.7,244.4 309.6,325.7 											"/>
											<polygon class="st25" points="298.1,244.4 299.1,244.4 297.9,315.8 											"/>
											<polygon class="st25" points="343.3,244.4 344.3,244.4 343.2,319.1 											"/>
											<polygon class="st25" points="331.7,244.4 332.6,244.4 331.5,315.8 											"/>
										</g>
									</g>
								</g>
								<g id="XMLID_00000052790844229303375290000003922980163036260533_">
									<g>
										<g>
											<path class="st20" d="M343.7,192.1c0,1.1-0.3,3.1-1.7,5.4c-0.8,1.4-2.9,4.3-3.9,3.9c-0.8-0.3-0.4-2.8,0.4-7.2
												c0.6-3.1,1.1-4.5,2.3-5.2c0.2-0.1,1.2-0.7,1.9-0.3C343.8,189.1,343.7,191,343.7,192.1z"/>
											<path class="st20" d="M298.6,190.8c-0.1,0.5-0.4,1.9,1,4.7c0.2,0.5,2.8,5.7,4.4,5.2c1.5-0.5,0.8-6.2,0.7-7.3
												c-0.5-3.8-1.6-4.7-2.1-5c-0.2-0.1-1-0.5-1.9-0.3C299.1,188.5,298.6,190.5,298.6,190.8z"/>
										</g>
										<path class="st20" d="M337.9,200.9C337.9,200.9,337.9,200.9,337.9,200.9c-0.7,2.1-1.6,4.2-2.8,5.9
											c-0.9,1.2-2.3,2.9-3.8,4.4c-2.7,2.7-4,4.1-6.3,4.7c-1.8,0.5-3.8,0.4-5.1,0.4c-0.8,0-1.8-0.1-2.9-0.3
											c-3.8-0.9-6.3-3.6-7.5-5c-1.5-1.8-2.4-3.5-2.9-4.5c-2-4.1-3-8.5-3.5-12.5c-0.5-3.9-0.5-7.3-0.4-9.6c0,0,0.4-11,4.5-13.9
											c0.4-0.3,0.6-0.4,1.2-0.7c1.8-0.9,4.2-0.9,12.2-2.4c8.6-1.6,10.7-2.4,12.4-2.1c0.5,0.1,0.7,0.2,0.9,0.3
											c5,2,5.4,11.7,5.6,18.2C339.7,187.4,339.9,194.6,337.9,200.9z"/>
									</g>
								</g>
								<path class="st27" d="M339.2,194.4c-0.4,2.2-0.9,4.3-1.3,6.5c0,0,0,0,0,0c-0.7,2.1-1.6,4.1-2.8,5.9
									c-0.9,1.2-2.3,2.9-3.8,4.4c-2.7,2.7-4,4.1-6.3,4.7c-1.8,0.5-3.8,0.4-5.1,0.4c-0.8,0-1.8-0.1-2.9-0.3c-3.8-0.9-6.3-3.6-7.5-5
									c-1.5-1.8-2.4-3.5-2.9-4.5c-2-4.1-3-8.5-3.5-12.5c0.1,0.2,0.1,0.4,0.2,0.4c0.1,0,0.2-0.4,0.3-1.3c0.2,1.2,0.4,2.5,0.6,3.8
									c0.1,0.7,0.3,1.5,0.4,2.2c1.2,2.8,2.8,4.3,4,5.1c1.4,1,2.2,1,3.5,2.4c0.4,0.4,1.7,1.8,2.2,3.9c0,0,0,0.1,0,0.1
									c0.1-0.7,0.2-1.5,0.3-2.2c0-0.1,0.1-0.1,0.1-0.2c0.1,0.4,0.2,0.7,0.3,1.1c-0.1,0.8-0.1,1.7-0.2,2.5c1.1,0.1,2.1,0.2,3.2,0.3
									c0.1-0.7,0.2-1.4,0.3-2.1c0.2,0,0.4,0,0.6,0c0.2,0,0.5,0,0.8,0h0.1c0.2,0,0.4,0,0.7,0c0.3,0,0.6,0,0.9,0
									c0.1,0.7,0.3,1.4,0.4,2.1c1.2-0.1,2.5-0.2,3.7-0.3c-0.1-0.8-0.2-1.7-0.2-2.5c0.1-0.4,0.2-0.7,0.3-1.1c0,0.1,0.1,0.1,0.1,0.2
									c0.1,0.7,0.2,1.5,0.3,2.2c0,0,0,0,0,0c0.2-1,0.8-2.5,2.5-4c1.9-1.8,3.1-1.7,5.2-3.2c1.1-0.8,2.6-2.2,3.9-4.5
									c0,0,0.3-1.5,0.3-1.6c0.1-0.5,0.2-1,0.3-1.6C338.5,195.3,338.8,194.8,339.2,194.4z"/>
							</g>
							<path class="st27" d="M338.2,196c-0.5-0.1,2.1-5.3,0.1-10.7c-0.4-0.6-2.6-4.8-2.8-7c-9.5-4.3-19-2.6-28.6-0.9
								c0.8,2.8-0.6,4.7-1.8,6.6c-1.7,1.6-1.1,11.8-1.6,11.9c-0.1,0-0.1-0.1-0.4-1.2c-0.3-1.1-0.5-1.9-0.7-2.5
								c-0.2-0.9-0.3-2.2-0.3-3.9c0-4.5,1.5-6.2,2.4-10.9c1.3-6.3-0.4-7.4,1.4-9.4c2.1-2.4,4.2-1.6,9.6-3.2c4.6-1.4,5-1.7,6.5-1.6
								c5.5,1,8.7,4.6,15.9,4.2c0,0.9,0.1,2.3,0.3,3.9c0.5,5,1.7,8,2.2,10.2c0.7,2.9,0.9,7.1-1.2,13
								C338.9,194.9,338.5,195.5,338.2,196z"/>
						</g>
						<path class="st27" d="M315.6,190.3c0.1,0.1,0.2,0.3,0.3,0.6c0.1,0.5-0.1,0.9-0.2,1c-0.8-0.1-1.6-0.2-2.5-0.3
							c-0.2,0-1.5-0.1-2.7-0.2c-1.2,0-3,0-5.5,0.2c1-0.6,0.9-1.5,3.1-1.8C310.6,189.5,314.4,190,315.6,190.3z"/>
						<path class="st27" d="M330.6,190c2.2,0.3,1.8,1.1,2.8,1.7c-2.4-0.3-4.3-0.3-5.4-0.2c-1.1,0-2.4,0.1-2.6,0.2
							c-0.8,0.1-1.6,0.2-2.4,0.3c-0.1-0.1-0.2-0.5-0.2-1c0.1-0.3,0.2-0.5,0.3-0.6C324.2,189.9,328.2,189.6,330.6,190z"/>
						<g>
							<g>
								<path class="st7" d="M313.8,196.7c-0.3,0.3-1.1,0.9-2.3,1c-1.8,0.2-3.1-0.9-3.3-1.1c0-0.1,1-1.6,2.9-1.6
									C312.9,195.1,313.8,196.6,313.8,196.7z"/>
							</g>
							<g>
								<path d="M313.8,196.7c-0.3-0.2-1.3-1-2.7-1c-1.5,0-2.6,0.7-2.9,0.9c0.6-1,1.7-1.6,2.9-1.6
									C312.9,195,313.8,196.6,313.8,196.7z"/>
							</g>
							<g>
								<path class="st28" d="M311.4,195.7c-0.4,0-0.8,0-1.1,0c-0.4,0.6-0.3,1.4,0.2,1.8c0.5,0.3,1.2,0.3,1.6-0.1
									c0.4-0.4,0.4-1,0.2-1.4C312,195.8,311.7,195.7,311.4,195.7z"/>
							</g>
							<g>
								<path d="M311.2,196.1c-0.2,0-0.5,0.2-0.6,0.4c-0.1,0.3,0.1,0.6,0.3,0.8c0.3,0.2,0.8-0.1,0.9-0.5
									C311.9,196.4,311.6,196.1,311.2,196.1z"/>
							</g>
							<g>
								<path class="st29" d="M310.9,196.1c-0.1,0-0.2,0-0.2,0.1c0,0.1,0,0.2,0.1,0.2c0.1,0,0.2,0,0.3-0.1
									C311.1,196.2,311,196.1,310.9,196.1z"/>
							</g>
						</g>
						<g>
							<g>
								<path class="st7" d="M327.5,195.1c0.9,0,1.6,0.3,1.8,0.4c0.7,0.4,1.1,0.9,1.2,1.2c-0.2,0.2-1.5,1.4-3.4,1.2
									c-1.3-0.1-2.1-0.8-2.4-1.1C324.8,196.6,325.8,195.2,327.5,195.1z"/>
							</g>
							<g>
								<path d="M326.8,195.2c1.3-0.3,2.8,0.3,3.7,1.5c-0.3-0.2-1.6-1.1-3.3-0.9c-1.3,0.1-2.2,0.7-2.5,1
									C324.8,196.6,325.5,195.5,326.8,195.2z"/>
							</g>
							<g>
								<path class="st28" d="M326.3,196c-0.3,0.5-0.2,1.1,0.2,1.4c0.4,0.4,1.1,0.5,1.6,0.1c0.5-0.4,0.7-1.2,0.2-1.8
									c-0.3,0-0.6-0.1-1,0C326.9,195.8,326.3,196,326.3,196z"/>
							</g>
							<g>
								<path d="M326.8,196.9c0.1,0.3,0.5,0.5,0.8,0.4c0.2-0.1,0.4-0.4,0.3-0.7c-0.1-0.3-0.3-0.4-0.6-0.4
									C327,196.2,326.7,196.5,326.8,196.9z"/>
							</g>
							<g>
								<path class="st29" d="M327.4,196.4c0,0.1,0.2,0.2,0.3,0.1c0.1,0,0.1-0.1,0.1-0.2c0-0.1-0.1-0.1-0.2-0.1
									C327.5,196.2,327.4,196.3,327.4,196.4z"/>
							</g>
						</g>
						<g>
							<g>
								<g>
									<g class="st30">
										<polygon class="st29" points="315.7,200.5 306,200.5 305,194.2 316.8,194.2 316.4,196.5 316.3,196.8 										"/>
									</g>
									<g>
										<path class="st31" d="M315.9,200.8h-10.1l-1.1-6.9h12.4L315.9,200.8z M306.3,200.3h9.2l1-5.8h-11.2L306.3,200.3z"/>
									</g>
								</g>
								<g>
									<g class="st30">
										<polygon class="st29" points="332.6,200 323,200 321.9,193.7 333.7,193.7 										"/>
									</g>
									<g>
										<path class="st31" d="M332.8,200.3h-10.1l-1.1-6.9H334L332.8,200.3z M323.2,199.7h9.2l1-5.8h-11.2L323.2,199.7z"/>
									</g>
								</g>
							</g>
							<g>
								<g>
									<path class="st31" d="M316.6,197l-0.2-0.4c0,0,2.8-3.1,6-0.3l-0.2,0.5C319.3,194.3,316.7,196.9,316.6,197z"/>
								</g>
							</g>
							<g>
								<polygon class="st31" points="305.3,197.2 300.9,189.3 300.6,187.9 305.7,196.9 								"/>
							</g>
							<g>
								<polygon class="st31" points="333.5,196.7 333.2,196.2 341.2,188 341.1,188.8 								"/>
							</g>
						</g>
						<path class="st32" d="M316.4,209.1c0,0.2,1.5,0.5,2.4,0.6c2.5,0.3,4.9-0.3,4.9-0.6c0-0.1-0.7-0.2-1.8-0.3
							C319.4,208.7,316.4,208.8,316.4,209.1z"/>
						<g>
							<path class="st21" d="M320.3,206.5c-0.9,0-1.8-0.6-1.8-0.9c0-0.1,0.6,0.1,1.9,0.1c1.2,0,1.8-0.3,1.8-0.1
								C322.2,205.7,321.3,206.5,320.3,206.5z"/>
						</g>
						<path class="st27" d="M325.5,208.2c-0.3-0.2-0.9-0.5-1.6-0.7c-1-0.3-1.9-0.4-2.9-0.5c-0.6,0-1.4-0.1-2.4,0c0,0,0,0,0,0
							c0,0,0,0,0,0c0,0,0,0,0,0c-0.7,0-1.5,0.2-2.3,0.4c-0.6,0.2-1.1,0.5-1.6,0.7c0,0.6-0.1,1.1-0.1,1.7c0.1-0.2,0.3-0.5,0.6-0.8
							c0.5-0.4,1.1-0.5,2-0.6c0.8-0.1,1.8-0.1,2.9-0.2c1.1,0,2,0.1,2.7,0.2c1.1,0.1,1.6,0.3,2,0.7c0.3,0.2,0.5,0.5,0.6,0.7
							C325.6,209.3,325.5,208.7,325.5,208.2z"/>
					</g>
				</g>
				<g>
					<path class="st23" d="M319.3,290.5c0,0.7-0.6,1.3-1.3,1.3c-0.7,0-1.3-0.6-1.3-1.3c0-0.7,0.6-1.3,1.3-1.3
						C318.8,289.1,319.3,289.7,319.3,290.5"/>
				</g>
				<g>
					<path class="st23" d="M319.3,304.1c0,0.7-0.6,1.3-1.3,1.3c-0.7,0-1.3-0.6-1.3-1.3c0-0.8,0.6-1.3,1.3-1.3
						C318.8,302.8,319.3,303.3,319.3,304.1"/>
				</g>
				<g>
					<path class="st25" d="M350.6,280.2c0.3,0,0.6,0,0.9,0c-0.6-1.1-1.8-3.3-1.8-3.3S350.4,279.1,350.6,280.2"/>
				</g>
				<g>
					<path class="st25" d="M361.7,276.5c-1.2-1.3-3.8-4-3.8-4s2,3,2.8,4.5c0-0.1-0.1-0.1-0.1-0.2
						C361.1,276.7,361.4,276.6,361.7,276.5"/>
				</g>
				<g>
					<path class="st25" d="M285.4,280.2c-0.3,0-0.6,0-0.9,0c0.6-1.1,1.8-3.3,1.8-3.3S285.7,279.1,285.4,280.2"/>
				</g>
				<g>
					<path class="st25" d="M274.3,276.5c1.2-1.3,3.8-4,3.8-4s-2,3-2.8,4.5c0-0.1,0.1-0.1,0.1-0.2
						C274.9,276.7,274.6,276.6,274.3,276.5"/>
				</g>
				<g>
					<rect x="167.3" y="275.7" class="st33" width="304.8" height="119.9"/>
				</g>
				<g>
					<rect x="167.3" y="275.7" class="st34" width="304.8" height="14.1"/>
				</g>
				<g>
					<path class="st35" d="M312.3,294.3H178.1c-1.6,0-3,1.3-3,3v89c0,1.6,1.3,3,3,3h134.2c1.6,0,3-1.3,3-3v-89
						C315.3,295.7,313.9,294.3,312.3,294.3"/>
				</g>
				<g>
					<path class="st34" d="M308.7,297.7H181.4c-1.6,0-3,1.3-3,3V383c0,1.6,1.3,3,3,3h127.4c1.6,0,3-1.3,3-3v-82.4
						C311.7,298.9,310.4,297.7,308.7,297.7"/>
				</g>
				<path class="st35" d="M324.1,297.3v89c0,1.6,1.3,3,3,3h134.2c1.6,0,3-1.3,3-3v-89c0-1.6-1.3-3-3-3H327.1
					C325.4,294.3,324.1,295.7,324.1,297.3"/>
				<g>
					<path class="st34" d="M327.9,300.6V383c0,1.6,1.3,3,3,3H458c1.6,0,3-1.3,3-3v-82.4c0-1.6-1.3-3-3-3H330.8
						C329.2,297.7,327.9,298.9,327.9,300.6"/>
				</g>
				<g>
					<path class="st36" d="M164.9,280.8v3.1c0,1.7,1.4,3.1,3.1,3.1h303.3c1.7,0,3.1-1.4,3.1-3.1v-3.1H164.9z"/>
				</g>
				<g>
					<path class="st36" d="M304.3,302.8H188.9c-1.5,0-2.7,1.2-2.7,2.7v74.6c0,1.5,1.2,2.7,2.7,2.7h115.4c1.5,0,2.7-1.2,2.7-2.7
						v-74.6C307,304.1,305.8,302.8,304.3,302.8"/>
				</g>
				<path class="st33" d="M302.8,301.8H187.4c-1.5,0-2.7,1.2-2.7,2.7v74.6c0,1.5,1.2,2.7,2.7,2.7h115.4c1.5,0,2.7-1.2,2.7-2.7v-74.6
					C305.5,303,304.3,301.8,302.8,301.8"/>
				<g>
					<path class="st37" d="M270.5,301.8h-83.1c-1.5,0-2.7,1.2-2.7,2.7v47.3C260.1,351.6,269.4,314.1,270.5,301.8"/>
				</g>
				<g>
					<path class="st36" d="M453.7,302.8H338.3c-1.5,0-2.7,1.2-2.7,2.7v74.6c0,1.5,1.2,2.7,2.7,2.7h115.4c1.5,0,2.7-1.2,2.7-2.7
						v-74.6C456.4,304.1,455.2,302.8,453.7,302.8"/>
				</g>
				<path class="st33" d="M452.1,301.8H336.7c-1.5,0-2.7,1.2-2.7,2.7v74.6c0,1.5,1.2,2.7,2.7,2.7h115.4c1.5,0,2.7-1.2,2.7-2.7v-74.6
					C454.8,303,453.6,301.8,452.1,301.8"/>
				<g>
					<path class="st37" d="M419.8,301.8h-83.1c-1.5,0-2.7,1.2-2.7,2.7v47.3C409.5,351.6,418.8,314.1,419.8,301.8"/>
				</g>
				<g>
					<path class="st38" d="M352.3,316.3h-65.1c-5.5,0-10.1-4.5-10.1-10.1s4.5-10.1,10.1-10.1h65.1c5.6,0,10.1,4.5,10.1,10.1
						C362.4,311.8,357.8,316.3,352.3,316.3"/>
				</g>
				<path class="st39" d="M360.2,306.2c0,4.5-3.6,8.2-8.2,8.2h-64.7c-3.8,0-6.9-2.5-7.9-6c-0.1-0.6-0.3-1.2-0.3-1.8
					c0-0.1,0-0.3,0-0.4s0-0.3,0-0.4c0.2-4.3,3.8-7.7,8.2-7.7h64.7C356.5,298,360.2,301.7,360.2,306.2z"/>
				<g>
					<path class="st38" d="M302,311.4v-1.3c0.1,0,0.3,0,0.5,0c0.3,0,0.5-0.1,0.6-0.2c0.1-0.1,0.2-0.4,0.2-0.7v-7h1.4v7
						c0,1.6-0.7,2.3-2.1,2.3C302.4,311.4,302.1,311.4,302,311.4"/>
				</g>
				<g>
					<path class="st38" d="M308,309.2v-7h1.4v7.1c0,0.6,0.3,0.9,0.8,0.9c0.5,0,0.8-0.3,0.8-0.9v-7.1h1.4v7c0,0.7-0.2,1.3-0.6,1.7
						c-0.4,0.4-0.9,0.6-1.6,0.6s-1.3-0.2-1.6-0.6C308.2,310.5,308,310,308,309.2"/>
				</g>
				<g>
					<path class="st38" d="M315.7,311.4v-9.2h2.3c0.7,0,1.3,0.2,1.6,0.6s0.6,0.9,0.6,1.7v4.7c0,0.7-0.2,1.3-0.6,1.7
						s-0.9,0.6-1.6,0.6H315.7z M317.1,310.1h0.9c0.2,0,0.4-0.1,0.6-0.2c0.1-0.1,0.2-0.4,0.2-0.7v-4.8c0-0.3-0.1-0.6-0.2-0.7
						c-0.1-0.1-0.3-0.2-0.6-0.2h-0.9V310.1z"/>
				</g>
				<g>
					<path class="st38" d="M323.3,309.2v-4.8c0-0.7,0.2-1.3,0.6-1.7c0.4-0.4,0.9-0.6,1.6-0.6s1.3,0.2,1.6,0.6c0.4,0.4,0.6,1,0.6,1.7
						v0.9h-1.4v-1c0-0.6-0.2-0.9-0.7-0.9c-0.6,0-0.9,0.3-0.9,0.9v5c0,0.6,0.3,0.9,0.9,0.9c0.4,0,0.7-0.3,0.7-0.9v-1.7h-0.6v-1.3h2.1
						v2.9c0,0.7-0.2,1.3-0.6,1.7c-0.4,0.4-0.9,0.6-1.6,0.6c-0.7,0-1.3-0.2-1.6-0.6C323.4,310.5,323.3,310,323.3,309.2"/>
				</g>
				<g>
					<polygon class="st38" points="330.8,311.4 330.8,302.2 334.8,302.2 334.8,303.5 332.3,303.5 332.3,306.1 334.3,306.1 
						334.3,307.4 332.3,307.4 332.3,310.1 334.8,310.1 334.8,311.4 					"/>
				</g>
				<g>
					<path class="st7" d="M337.5,165.6c-1.5-1.5-10.4-5.9-15.8-5.9c-5.4,0-14.3,4.4-15.8,5.9c-1.5,1.5-3,10.2-3,15.2
						c0,0,7-2.1,18.8-2.1c11.7,0,18.8,2.1,18.8,2.1C340.5,175.8,339,167.1,337.5,165.6z"/>
					<g>
						<g>
							<path class="st40" d="M340.5,172c-0.1,0-0.3,0-0.4-0.1c-12.1-2.9-24.8-2.9-36.9,0c-1,0.2-2.1-0.4-2.3-1.4
								c-0.2-1,0.4-2.1,1.4-2.3c12.6-3,26-3,38.6,0c1,0.2,1.7,1.3,1.4,2.3C342.2,171.4,341.4,172,340.5,172z"/>
						</g>
					</g>
					<g>
						<g>
							<path d="M340.5,175.7c-0.1,0-0.3,0-0.4-0.1c-12.1-2.9-24.8-2.9-36.9,0c-1,0.3-2.1-0.4-2.3-1.4c-0.2-1,0.4-2.1,1.4-2.3
								c12.6-3,26-3,38.6,0c1,0.2,1.7,1.3,1.4,2.3C342.2,175.1,341.4,175.7,340.5,175.7z"/>
						</g>
					</g>
					<path class="st7" d="M351.5,221.9c-1.1-36.4-5.8-49-29.9-49v0c0,0,0,0,0,0c0,0,0,0,0,0v0c-24.1,0-28.8,12.6-29.9,49
						c-0.3,11.6-6.7,23-6.7,23c1.2-0.4,8.6,2.9,9.4,1.3c4.3-8.6,6.4-19.6,5.9-26.4c-2.5-30.6,3.4-34.5,4.7-35.6
						c3.9-3.2,10.5-1.4,16.6-1.4c6.1,0,12.6-1.7,16.6,1.4c1.3,1.1,7.2,5,4.7,35.6c-0.6,6.8,1.6,17.8,5.9,26.4
						c0.8,1.6,8.2-1.7,9.4-1.3C358.2,244.9,351.8,233.5,351.5,221.9z"/>
				</g>
			</g>
			<g>
				<g>
					<g>
						<path class="st41" d="M279.9,310.3c4.7,1.4,6.6-5.5,1.1-3.8l0.1,0C278.6,305.7,277.4,309.6,279.9,310.3z"/>
						<path class="st41" d="M279.9,307.5c6.6,0.1,4.3-7.2,0.7-4c0,0,0.1,0,0,0c-0.1,0-0.3,0.1-0.4,0.1c0,0-0.1,0,0,0
							C277.8,303.2,277.4,307.3,279.9,307.5z"/>
						<path class="st41" d="M280.2,304.2l1.9-0.5c2.5-0.6,1.6-4.5-0.9-3.9c0,0-1.9,0.5-1.9,0.5C276.8,300.9,277.7,304.8,280.2,304.2
							z"/>
						<path class="st41" d="M258.5,305.8c1.1-0.6,2.7-1.8,4.1-3.6c1.6-2.1,1.8-3.5,2.6-4.5c1.3-1.7,4.6,2.4,13.5-0.8l2.6,13
							c0,0-8.4,6.7-19.3,5.9c-1.8,1-3.6,1.9-5.3,2.9c-1.5-3.2-3.1-6.4-4.6-9.7C254.2,307.9,256.3,306.8,258.5,305.8z"/>
						<path class="st41" d="M271.1,298.6c2.1-1.8,21.8-5.7,21.4-1.5c-0.1,1.7-2.1,1.4-3.2,1.5c-4.4,0.3-8.8,1.2-12.9,2.9
							c-2.1,0.6-4.4,3.5-6.4,1.2C268.8,301.4,269.4,299.2,271.1,298.6z"/>
						<path class="st41" d="M277.1,289.5c-2.8,4.7-5.5,9.6-7.9,14.5c-2.1,4.1-7.4,0.8-5.4-3.4c3.3-7.1,6.2-9.1,10.7-13.1
							C276,286.2,278.2,287.9,277.1,289.5z"/>
						<path class="st42" d="M278.5,309.5c-0.5-1,0.3-2.5,0.4-2.5c0.1,0.1,0.1,0.3-0.1,0.8c-0.1,0.2-0.1,0.7,0.1,1.2
							c0.4,1,1.4,1.3,1.5,1.3c-0.1,0-0.3,0.1-0.5,0.1C279.3,310.4,278.7,310,278.5,309.5z"/>
						<path class="st42" d="M278.1,306.6c-0.5-0.7-0.3-3,0.8-2.7c0.3,0.6-1.2,1.3-0.1,2.7c0.7,0.9,2,0.6,3,0.4
							c0.6-0.2,1.1-0.4,1.7-0.6c-1.6,1.4-3.4,1.8-4.5,1.1C278.7,307.3,278.4,307,278.1,306.6z"/>
						<path class="st42" d="M277.7,303.4c-0.7-1.3,0-3.1,1.5-3.4l0,0c1.8-0.3,2.3-0.3,2.3-0.2c0,0.1-0.4,0.3-2.1,0.8
							c-2.1,0.5-1.3,3.8,0.8,3.3c0,0,0,0,0,0c0.8-0.3,3.3-1.1,3.3-1c0,0.1-2.5,2.3-4.4,1.6C278.8,304.3,278.1,304.1,277.7,303.4z"/>
						<path class="st42" d="M266.5,307.4c1.2-0.9,3.5-2.8,4.8-6c0.5-1.3,0.8-2.5,0.9-3.5c0.1,0,0.3-0.1,0.4-0.1c0,1.1-0.3,4-2.5,6.6
							C268.9,306.1,267.4,307,266.5,307.4z"/>
					</g>
					<line class="st43" x1="187.9" y1="352.6" x2="187.9" y2="352.6"/>
					<path class="st7" d="M190,274.7c1.5,3.1,3.1,6.2,4.7,9.3c6.4,12.5,13.1,24.4,19.8,35.9c4-1.7,8-3.4,12-5.2
						c10.1-4.5,19.8-9.1,29-13.9c3.5,6,6.9,12.1,10.4,18.1c-14.1,7.8-28.1,15.6-42.2,23.4c0,0,0,0,0,0c0,0-0.1,0-0.1,0
						c-4.1,1.9-8.6,4-13.6,6.2c-1.3,0.1-8.4,0.6-11.4-3.7c-1.7-2.3-3.1-3.9-3.6-5c-2.1-4.4-5.5-10.8-11.7-20.4
						c-1.1-9.8-1-22.7,3.6-36.8C187.9,279.8,188.9,277.1,190,274.7z"/>
					<path class="st7" d="M222,312.1"/>
				</g>
				<g>
					<g>
						<path class="st40" d="M126.2,588c0.1,0.4,0.2,1,0.2,1.7c0,0.2,0,0.4-0.1,0.6c-0.1,0.5-0.4,1-0.9,1.2c-1.1,0.5-2.8,1.1-4.8,1.4
							c-3.8,0.5-6.7-0.6-9.2-1.6c-3.6-1.3-5.6-3.1-5.9-3.3c-0.4-0.3-0.8-0.8-1.8-1.6c-1.7-1.5-2.6-2.2-3.4-2.7
							c-2.7-1.7-3.6-1.4-5-3.1c-0.9-1-0.9-1.7-0.9-2.1c0.1-0.7,0.5-1.3,0.8-1.5c0.4-0.5,0.8-0.8,1.1-1c13.5,1.5,22.5,6.3,28.5,10.9
							C125.3,587.3,125.7,587.6,126.2,588z"/>
						<g>
							<path class="st41" d="M98.1,569.9c4.2,0.3,8.4,0.6,12.6,1c1-6.1,2.1-12.2,3.1-18.4c-4.7-0.4-9.5-0.7-14.2-1.1
								C99,557.5,98.6,563.7,98.1,569.9z"/>
							<path class="st41" d="M111,568.7c-0.1,0.7-0.2,1.8,0.1,3c0.4,1.4,1.3,2.3,1.8,2.8c3.6,3.7,6.7,7.9,6.7,7.9l0,0
								c4.7,4.3,6.6,5.2,6.3,6.3c-0.4,1.5-3.7,1.8-5.3,1.9c-3.8,0.4-6.9-0.7-10.5-2c-1.1-0.4-1.8-0.6-2.5-1.1
								c-2.2-1.4-2.8-3.5-8.5-7.1c-0.9-0.5-2.3-1.4-2.7-3.1c0-0.2-0.1-0.3-0.1-0.5c0-0.9,0.3-1.5,0.6-2.3c0,0,0.5-1,0.7-2
								c0.2-0.8,0.2-1.3,0.4-2.9c0.1-0.7,0.2-1.7,0.3-2.9C102.6,567.5,106.8,568.1,111,568.7z"/>
						</g>
						<path class="st40" d="M97.1,579.4c4.4-1.3,8.8-2.8,13.4-4.5c0.8-0.3,1.7-0.6,2.5-1c0.4,0.4,0.8,0.8,1.2,1.3
							c0.5,0.7,0.9,1.3,1.2,1.9c-0.4,0.2-0.8,0.3-1.3,0.5c-4.8,1.8-9.5,3.2-14.1,4.3C99.1,581,98.1,580.2,97.1,579.4z"/>
						<path class="st40" d="M110.7,578.5c0.6,0.9,1.4,1.8,2.3,2.7c1.3,1.4,2.6,2.5,3.8,3.4c0.8-0.4,1.5-0.8,2.3-1.2
							c-1.6-2.1-3.3-4.2-4.9-6.3c-0.7,0-1.5,0-2.2,0C111.5,577.6,111.1,578.1,110.7,578.5z"/>
						<path class="st40" d="M104.7,585.8c7.8-1.4,10.9-2,11.9-2.3c0.2-0.1,1-0.3,2.2-0.6c0.7-0.1,1.2-0.2,1.6-0.3
							c0.3,0.2,0.6,0.5,0.9,0.7c0.5,0.4,1,0.9,1.4,1.3c-0.4,0.3-1.1,0.6-1.9,0.9c-1.8,0.8-3.2,1-4.2,1.2c-3.7,0.8-8.2,1.3-9,1.4
							C106.6,587.5,105.6,586.6,104.7,585.8z"/>
					</g>
					<path class="st44" d="M122,514.7c-2,17.3-4,34.7-6,52c-2.7,1-6.4,2.1-10.9,2.6c-4.6,0.5-8.5,0.2-11.4-0.3
						c2.1-18.7,4.3-37.5,6.4-56.2C107.3,513.5,114.6,514.1,122,514.7z"/>
					<path class="st45" d="M175.9,209.6c-0.3,3.4-0.6,8.6-0.2,14.9c1,16.2,5.3,23.1,6.6,36.2c0.6,6,0.7,14.7-1.9,25.6
						c-9-1.7-18-3.4-26.9-5.1c3.1-24.5,6.3-48.9,9.4-73.4C167.2,208.5,171.5,209,175.9,209.6z"/>
					<g>
						<path class="st41" d="M153.9,551.3c-0.8,5.7-1.5,11.3-2.3,17c-3.9-0.7-7.7-1.4-11.6-2.1c0.8-5.3,1.7-10.7,2.5-16
							C146.4,550.6,150.1,550.9,153.9,551.3z"/>
						<path class="st41" d="M140.5,563.3c-0.8,4-2,6.5-3,8.1c-0.3,0.5-1.2,1.9-1.6,3.9c-0.2,1.1-0.5,2.4,0.1,3.4
							c1,1.8,4.2,1.8,6,1.8c1.2,0,5.7,1,14.6,3.1c0,0,5.2,1.2,15.5,2.3c0.2,0,1,0.1,1.9-0.2c0.3-0.1,1.5-0.5,1.6-1.1
							c0.1-0.8-2-1.8-3.3-2.3c-2.9-1.3-5.7-2.9-8.7-4.1c-8.7-3.6-9.9-4.7-10.7-5.9c-1.3-2-1.5-4.1-1.4-5.5c-2.8-1.2-5.5-2.4-8.3-3.7
							C142.3,563.2,141.4,563.2,140.5,563.3z"/>
						<path class="st40" d="M135.9,578.3c-0.1,0.1-0.2,0.2-0.3,0.3c-0.1,0.3-0.2,0.6-0.2,0.9c-0.1,0.7-0.1,1.4-0.1,1.9
							c1.7,0.3,4.2,0.9,7.3,1.4c5,0.9,5.8,0.9,10.2,1.6c8.8,1.5,10,2.2,14.7,2.5c3.3,0.2,6,0,7.7-0.2c0.1-0.2,0.2-0.4,0.3-0.7
							c0.1-0.5,0.1-1,0.1-1.3c-0.3,0.5-2.8,0.3-4.9,0.2c-3.8-0.1-6.2-0.7-10.9-1.6c-4.7-0.9-4.3-0.6-8.4-1.4
							C147.6,581.2,142.3,580.1,135.9,578.3z"/>
						<g>
							<path class="st40" d="M152.4,571.3c-1.1,1.2-2.4,2.5-3.9,3.8c-2.2,1.9-4.3,3.5-6.3,4.8c2.1,0.6,4.1,1.1,6.2,1.7
								c1.1-0.5,2.6-1.5,4.1-3.1c1.5-1.5,2.3-3.1,2.8-4.2c-0.4-0.3-0.8-0.7-1.2-1.1C153.4,572.6,152.9,571.9,152.4,571.3z"/>
							<path class="st40" d="M154.5,575.8c3.1,1.4,6.2,2.7,9.3,4.1c0.3-0.5,0.6-0.9,0.9-1.4c-3.2-1.4-6.4-2.9-9.7-4.3
								C154.9,574.8,154.7,575.3,154.5,575.8z"/>
							<path class="st40" d="M164.4,578.4c-0.3,0.7-0.8,1.5-1.5,2.3c-1.3,1.6-2.8,2.5-3.8,3c1.6,0.3,3.3,0.7,4.9,1
								c0.7-0.4,2-1.3,2.9-2.8c0.4-0.6,0.6-1.3,0.8-1.8C166.6,579.5,165.5,579,164.4,578.4z"/>
						</g>
					</g>
					<path class="st44" d="M159,543.5c-0.7,7.6-1.4,15.1-2.1,22.7c-2.8,0.8-6.7,1.5-11.3,1.6c-3.9,0-7.3-0.5-9.9-1.1
						c0.5-8.1,1.1-16.3,1.6-24.4C144.6,542.6,151.8,543,159,543.5z"/>
					<path class="st7" d="M172.7,487l-0.1,0.7c-2.1,22.5-3.7,34.9-7.9,66.7c-0.1,1.1-1.1,1.8-2.2,1.6c-3.3-0.6-7.8-1.1-13-1.2
						c-2.8-0.1-5,0-7.1,0.2c-9.3,0.8-13.8,1.9-21,3c-7.5,1.1-14.3,2.1-22.4,0.9c-6-0.9-10.9-2.8-14.5-4.5c-1.5-0.7-2.3-2.3-2.1-3.9
						c3.1-23,5.5-41.8,7.3-55c4.2-32,4.9-33.2,5.9-41.6c2.3-19.7,3.2-29.7,6-48.2c0.6-3.7,0.6-4,4.2-26.1c3.5-22,5.3-33.1,5.4-33.8
						c0.9-4.7,1.1-7.9,1.5-11.9c1.1-10.5,1.5-22,1-34.2c-1.6-6.2-2.8-13.6-2.9-22.2c0-3,0.1-5.9,0.3-8.6c5.4-2.4,12-4.8,19.6-6.7
						c10.1-2.5,19.2-3.4,26.4-3.5c4.7,1.2,10.4,3,16.5,6c6.8,3.3,12.2,6.9,16.2,10.1c-0.9,29.5-3.1,45.9-5.1,55.5
						c-0.5,2.2-1.1,4.9-1.7,9.2c-1.8,12.1-0.6,16.8-2.5,30.1c-0.3,2.1-0.6,3.5-0.8,6.2c-0.5,6.5,0.1,11.5-1.6,39
						c-0.5,7.5-1.4,20.1-3.3,45.3C174.8,462.6,174.4,467.4,172.7,487z"/>
					<path class="st7" d="M81.5,406.5c1.7,1.4,6.2,4.9,13,5.7c7.2,0.9,12.6-1.7,14.5-2.7c-1-21.5-2-43-3.1-64.5
						c7.2-19.5,14.5-39.1,21.7-58.6c-1.3-10-5.8-17.4-11.6-18.4c-1.1-0.2-2.4-0.2-4,0.3c-0.4,0.2-0.9,0.5-1.5,0.9
						c-2.5,1.6-4.2,3.3-5.6,5c-3.6,4.6-5.4,11.4-5.4,11.4c-1.8,7.5-7.9,24.9-17.3,50.3C82,359.5,81.8,383,81.5,406.5z"/>
					<path class="st41" d="M175.6,265.5c-6.7,2-13.3,4.1-20,6.1c-3-1.4-6.2-3-9.5-4.9c-3.8-2.2-7.2-4.5-10.2-6.7
						c0.7,0,2.3-0.2,4-1.3c1.4-1,2.2-2.2,2.5-2.8c0.7-5.6,1.5-11.2,2.2-16.8c3.9,1.1,8.2,2.2,12.8,3.1c3.1,0.6,6.2,1.1,9.1,1.5
						c-0.4,3-0.8,6.1-1.1,9.3c0,0.6-0.1,1.5-0.2,2.6c-0.1,1.6-0.1,3,0,4c1.8,1.1,3.7,2.2,5.7,3.3
						C172.5,263.9,174.1,264.7,175.6,265.5z"/>
					<path class="st42" d="M166.5,243.8c-0.4,3-0.8,6.1-1.1,9.3c-1.4,0.8-3.2,1.5-5.5,1.5c-2.1,0-5.1-1.1-11.1-5.6
						c-1-0.7-2.4-1.8-4-3.2c0.3-1.1,0.6-2.2,0.9-3.4c0.3-1.1,0.5-2.1,0.7-3.2c3.3,1.1,7,2.1,11,3C160.6,243,163.7,243.5,166.5,243.8
						z"/>
					<path class="st44" d="M131.3,260.2c8.5,4.7,17,9.5,25.5,14.2c0.1,7.3,0,14.9-0.3,22.9c-0.2,5.2-0.5,10.2-0.9,15
						c1.3,1.1,2.6,2.3,3.9,3.4c0.4-6.1,0.7-12.4,0.9-19c0.2-9.7,0.1-18.9-0.4-27.6c-4.1-2-8.3-4.3-12.7-6.9
						c-2.5-1.5-4.9-2.9-7.2-4.4c-1.5,0.3-3.1,0.7-4.8,1.2C133.9,259.4,132.6,259.8,131.3,260.2z"/>
					<path class="st44" d="M176,265.7c-1.3,1.4-2.9,2.9-4.9,4.4c-2.4,1.8-4.7,3.2-6.7,4.1c0,6.7-0.1,13.8-0.5,21.1
						c-0.3,6.1-0.7,12-1.2,17.7c-1.1,0.9-2.2,1.8-3.3,2.7c0.2-15.5,0.3-31,0.5-46.6c1.8-0.2,5.8-0.9,8.9-4c0.7-0.7,1.3-1.5,1.8-2.2
						C172.4,263.8,174.2,264.7,176,265.7z"/>
					<path class="st41" d="M174,227.1c-1.5,8-1.1,8.9-2.5,13.9c-0.9,3.1-1.8,5.6-2.5,7.2c-0.6,0.6-2.9,2.9-5.8,3.7
						c-0.6,0.2-1.7,0.5-3.1,0.4c-0.5,0-1.1-0.1-1.8-0.3c-4.4-1.3-8.3-4.6-8.3-4.6c-1.6-1.5-3.6-3.2-4.9-5.7c-1.6-3-1.6-5.9,1.2-19.9
						c2.4-12.1,3.4-14.6,5.9-15.9c1.2-0.7,3.2-1.1,7-2.1c3.2-0.8,4.3-0.8,5.3-0.7c2.5,0.3,4.2,1.4,5.4,2.2c1.2,0.8,3.2,2.1,4.4,4.4
						c0.8,1.4,1.3,3.1,1.2,7.1C175.4,220.6,174.8,222.4,174,227.1z"/>
					<g>
						<g>
							<path class="st46" d="M166.1,241c-0.3,0.9-2.8,0.7-3.5,0.7c-2.2-0.1-5.1-0.9-5.1-1.8c0-0.9,2.6-1.4,2.8-1.4
								c0.6-0.1,2.8-0.6,4.4,0.7C165,239.3,166.3,240.3,166.1,241z"/>
						</g>
						<path class="st46" d="M165,232.8c-0.2,0.2-0.8,0.6-1.6,0.6c-1.1,0-1.7-0.9-1.8-1.1c0.6,0.1,1.3,0.2,2,0.3
							C164.1,232.6,164.6,232.7,165,232.8z"/>
						<g>
							<path class="st7" d="M159.7,225.9c-0.4-1.9-1.9-3.3-3.7-3.3c-2,0-3.1,1.8-3.2,1.9c0.2,0.3,1.4,2,3.6,2.2
								C158.1,226.9,159.4,226.1,159.7,225.9z"/>
							<g>
								<path class="st47" d="M155.5,224.5c-0.2,1,0.2,2,0.9,2.1c0.7,0.2,1.4-0.5,1.6-1.5c0.2-1-0.2-2-0.9-2.1
									C156.4,222.9,155.7,223.5,155.5,224.5z"/>
								<path d="M156.2,224.7c-0.1,0.6,0.1,1.1,0.5,1.2c0.4,0.1,0.8-0.3,0.9-0.8c0.1-0.6-0.1-1.1-0.5-1.2
									C156.7,223.8,156.3,224.2,156.2,224.7z"/>
								<path class="st7" d="M156,224.3c0,0.2,0.1,0.4,0.2,0.5c0.2,0,0.3-0.1,0.4-0.3c0-0.2-0.1-0.4-0.2-0.5S156.1,224,156,224.3z"
									/>
							</g>
							<path d="M159.7,225.9c-0.1-0.1-1.1-2.4-3.4-2.6c-1.8-0.2-3.1,1.1-3.3,1.3c-0.1,0-0.1-0.1-0.2-0.1c0,0-0.1-0.1-0.1-0.1
								c1-1.6,2.9-2.3,4.4-1.7C158.5,223.1,159.5,224.4,159.7,225.9z"/>
						</g>
						<g>
							<path class="st7" d="M165.9,227.3c1.4-1.7,3.2-2.3,4.5-1.5c1.3,0.8,1.7,2.7,1.7,3.1c-0.6,0.3-1.8,0.7-3.2,0.4
								C167.3,229,166.3,227.8,165.9,227.3z"/>
							<g>
								<path class="st47" d="M170.4,228.1c-0.3,0.9-1.2,1.4-1.9,1.1c-0.7-0.3-1-1.3-0.7-2.2c0.3-0.9,1.2-1.4,1.9-1.1
									C170.5,226.2,170.8,227.2,170.4,228.1z"/>
								<path d="M170.1,228c-0.2,0.5-0.7,0.8-1.1,0.6c-0.4-0.2-0.6-0.8-0.5-1.3c0.2-0.5,0.7-0.8,1.1-0.6
									C170.1,226.9,170.3,227.5,170.1,228z"/>
								<path class="st7" d="M169.1,227.1c-0.1,0.2-0.3,0.3-0.4,0.2s-0.2-0.3-0.2-0.5c0.1-0.2,0.3-0.3,0.4-0.2
									C169.1,226.7,169.1,226.9,169.1,227.1z"/>
							</g>
							<path d="M165.9,227.2c0.1-0.1,2.1-1.9,4.1-0.9c1.4,0.7,1.9,2.3,2,2.7c0.1,0,0.1,0,0.2,0c0,0,0.1,0,0.1,0
								c-0.2-1.9-1.3-3.4-2.7-3.6C168.2,225,166.8,225.8,165.9,227.2z"/>
						</g>
						<path d="M161.7,220.9c-0.3-0.4-1-1.5-2.5-2.7c-2-1.6-3.7-1.9-4.1-1.9c-0.5,0-1,0.1-1,0.1c-0.4,0.1-0.7,0.3-1,0.5
							c-0.4,0.3-0.9,0.6-1.5,1.1c0.1,0,0.2,0,0.3,0c0,0,0.6-0.1,1.3,0c2.4,0.3,4.8,2,4.8,2c1.6,1.1,2.6,2.4,3.3,3.4
							c0.1,0,0.5,0,0.9-0.3c0.2-0.1,0.3-0.3,0.4-0.4C162.4,222.2,162.1,221.6,161.7,220.9z"/>
						<g>
							<path d="M174.6,223.7c-0.1-0.1-0.3-0.3-0.5-0.4c-1.3-1-3.1-0.7-4.1-0.5c-1.5,0.2-2.6,0.9-3.4,1.5c-0.1-0.1-0.4-0.3-0.5-0.7
								c-0.1-0.2-0.1-0.4-0.1-0.5c0.3-0.3,0.7-0.7,1.2-1.1c0.3-0.2,1.3-0.9,2.7-1.2c0.1,0,2.3-0.5,3.5,0.2c0.4,0.2,0.6,0.5,0.6,0.5
								c0.3,0.4,0.4,0.8,0.5,1.1C174.7,222.9,174.7,223.4,174.6,223.7z"/>
						</g>
						<path d="M162.7,235.3c-1.4-0.2-5.1-0.8-7.7,1.3c-1.2,0.9-1.9,2.7-3.4,6.3c-0.8,1.8-1.3,3.4-1.7,4.5c0.5,0.5,2.4,2.3,3.6,3
							c0.1,0.1,0.3,0.2,0.3,0.2c0.4,0.3,1.2,0.7,2.2,1.1c1.6,0.6,3.4,1.1,4.5,1.2c4.2,0.3,8-4,8.5-4.6c0.3-1.2,0.6-3,0.7-5.1
							c0.1-2.1,0.2-3.1-0.2-4C168.2,236.2,163.8,235.5,162.7,235.3z M160.8,241.9c-0.3,0.3-0.8,0.8-1.6,0.9c-1.6,0.4-3-0.7-3.2-0.9
							c0,0,0,0,0,0c-0.4-0.4,0.2-2.1,1.1-3.1c1.5-1.7,3.9-1.6,4.2-1.6c0.6,0,1.5,0.2,1.6,0.2c0.7,0.1,1.2,0.2,1.7,0.4
							c1.3,0.4,2.3,1.6,2.7,2.8c0.6,1.6,0,2.9,0,2.9c0,0,0,0,0,0c0,0,0,0,0,0c0,0,0,0,0,0c-0.2,0.1-1,0.4-2-0.1
							c-0.7-0.3-1-0.9-1.1-1.1C163.1,242.1,162,242,160.8,241.9z"/>
					</g>
					<path class="st45" d="M174.7,215.7c-2.4-1.6-3.8-1.7-4.6-1.4c-0.4,0.1-1.7,0.6-3.1,0.1c0,0,0,0,0,0c-0.5-0.4-1.3-0.9-2.4-1.2
						c-0.3-0.1-0.9-0.3-1.6-0.3c-2.4-0.2-3.1,1.4-5,1.1c-1-0.1-0.8-0.5-2.3-0.9c-1-0.2-2.3-0.5-3.4,0.1c-1,0.5-1.5,1.5-1.9,2.6
						c-0.3,1-0.6,2.4-0.9,4.3c-0.7,4.2-1.2,8.6-1.4,10.4c-1.3,11.4-3.8,19.9-8.8,37c-1.7,5.7-3.3,10.5-4.5,14
						c-0.2,0.6-0.4,1.1-0.6,1.6c-0.3-0.1-3.2-1.7-5.5-2.5c-0.2-0.1-0.4-0.1-0.6-0.2c-1.5-0.4-2.7-0.4-3.5-0.4
						c-2.4,0-5.6,0.7-7.1,0.9c-1.9,0.2-4.7,0.1-8.3-1.7c1.4-8,3.6-13.8,5.5-17.7c2-4.2,3.5-6.2,6.3-11.6c0.7-1.3,3.5-7,6-14.3
						c5.1-14.5,4.1-20.5,10.3-30.8c1.2-2,2.3-3.5,3-4.4c1.7-1.6,4.6-3.9,8.9-5.2c6.6-2,12.2-0.2,14,0.4c2,0.7,5.3,1.8,8.3,5
						c1.3,1.4,4.2,4.4,4.5,9.1C176,212.4,175.3,214.5,174.7,215.7z"/>
					<g>
						<path class="st48" d="M177.3,213.7c-5.5-1.7-12.3-3.3-20.3-4.2c-7.6-0.8-14.4-0.7-19.9-0.3"/>
						<path class="st48" d="M134.5,205.9c6.2-0.5,13.7-0.6,22.1,0.3c9.4,1,17.4,2.9,23.8,4.8"/>
					</g>
				</g>
			</g>
			<g>
				<g>
					<g>
						<path class="st41" d="M361.5,315c-4.7,1.4-6.6-5.5-1.1-3.8l-0.1,0C362.7,310.3,363.9,314.2,361.5,315z"/>
						<path class="st41" d="M361.4,312.1c-6.6,0.1-4.3-7.2-0.7-4c0,0-0.1,0,0,0c0.1,0,0.3,0.1,0.4,0.1c0,0,0.1,0,0,0
							C363.6,307.9,364,311.9,361.4,312.1z"/>
						<path class="st41" d="M361.2,308.8l-1.9-0.5c-2.5-0.6-1.6-4.5,0.9-3.9c0,0,1.9,0.5,1.9,0.5
							C364.6,305.5,363.7,309.5,361.2,308.8z"/>
						<path class="st41" d="M382.9,310.5c-1.1-0.6-2.7-1.8-4.1-3.6c-1.6-2.1-1.8-3.5-2.6-4.5c-1.3-1.7-4.6,2.4-13.5-0.8l-2.6,13
							c0,0,8.4,6.7,19.3,5.9c1.8,1,3.6,1.9,5.3,2.9c1.5-3.2,3.1-6.4,4.6-9.7C387.2,312.5,385,311.5,382.9,310.5z"/>
						<path class="st41" d="M370.3,303.3c-2.1-1.8-21.8-5.7-21.4-1.5c0.1,1.7,2.1,1.4,3.2,1.5c4.4,0.3,8.8,1.2,12.9,2.9
							c2.1,0.6,4.4,3.5,6.4,1.2C372.6,306,371.9,303.9,370.3,303.3z"/>
						<path class="st41" d="M364.3,294.2c2.8,4.7,5.5,9.6,7.9,14.5c2.1,4.1,7.4,0.8,5.4-3.4c-3.3-7.1-6.2-9.1-10.7-13.1
							C365.4,290.9,363.2,292.5,364.3,294.2z"/>
						<path class="st42" d="M362.9,314.2c0.5-1-0.3-2.5-0.4-2.5c-0.1,0.1-0.1,0.3,0.1,0.8c0.1,0.2,0.1,0.7-0.1,1.2
							c-0.4,1-1.4,1.3-1.5,1.3c0.1,0,0.3,0.1,0.5,0.1C362.1,315.1,362.6,314.6,362.9,314.2z"/>
						<path class="st42" d="M363.2,311.3c0.5-0.7,0.3-3-0.8-2.7c-0.3,0.6,1.2,1.3,0.1,2.7c-0.7,0.9-2,0.6-3,0.4
							c-0.6-0.2-1.1-0.4-1.7-0.6c1.6,1.4,3.4,1.8,4.5,1.1C362.7,311.9,363,311.7,363.2,311.3z"/>
						<path class="st42" d="M363.6,308c0.7-1.3,0-3.1-1.5-3.4l0,0c-1.8-0.3-2.3-0.3-2.3-0.2s0.4,0.3,2.1,0.8
							c2.1,0.5,1.3,3.8-0.8,3.3c0,0,0,0,0,0c-0.8-0.3-3.3-1.1-3.3-1c0,0.1,2.5,2.3,4.4,1.6C362.6,309,363.2,308.7,363.6,308z"/>
						<path class="st42" d="M374.9,312.1c-1.2-0.9-3.5-2.8-4.8-6c-0.5-1.3-0.8-2.5-0.9-3.5c-0.1,0-0.3-0.1-0.4-0.1
							c0,1.1,0.3,4,2.5,6.6C372.5,310.8,374,311.7,374.9,312.1z"/>
					</g>
					<line class="st43" x1="453.5" y1="357.2" x2="453.5" y2="357.2"/>
					<path class="st7" d="M451.4,279.3c-1.5,3.1-3.1,6.2-4.7,9.3c-6.4,12.5-13.1,24.4-19.8,35.9c-4-1.7-8-3.4-12-5.2
						c-10.1-4.5-19.8-9.1-29-13.9c-3.5,6-6.9,12.1-10.4,18.1c14.1,7.8,28.1,15.6,42.2,23.4c0,0,0,0,0,0c0,0,0.1,0,0.1,0
						c4.1,1.9,8.6,4,13.6,6.2c1.3,0.1,8.4,0.6,11.4-3.7c1.7-2.3,3.1-3.9,3.6-5c2.1-4.4,5.5-10.8,11.7-20.4c1.1-9.8,1-22.7-3.6-36.8
						C453.5,284.4,452.4,281.8,451.4,279.3z"/>
					<path class="st7" d="M419.4,316.8"/>
				</g>
				<g>
					<g>
						<path class="st40" d="M515.2,592.6c-0.1,0.4-0.2,1-0.2,1.7c0,0.2,0,0.4,0.1,0.6c0.1,0.5,0.4,1,0.9,1.2
							c1.1,0.5,2.8,1.1,4.8,1.4c3.8,0.5,6.7-0.6,9.2-1.6c3.6-1.3,5.6-3.1,5.9-3.3c0.4-0.3,0.8-0.8,1.8-1.6c1.7-1.5,2.6-2.2,3.3-2.7
							c2.7-1.7,3.6-1.4,5-3.1c0.9-1,0.9-1.7,0.9-2.1c-0.1-0.7-0.5-1.3-0.8-1.5c-0.4-0.5-0.8-0.8-1.1-1c-13.5,1.5-22.5,6.3-28.5,10.9
							C516.1,591.9,515.6,592.3,515.2,592.6z"/>
						<g>
							<path class="st41" d="M543.3,574.5c-4.2,0.3-8.4,0.6-12.6,1c-1-6.1-2.1-12.2-3.1-18.4c4.7-0.4,9.5-0.7,14.2-1.1
								C542.3,562.2,542.8,568.3,543.3,574.5z"/>
							<path class="st41" d="M530.4,573.3c0.1,0.7,0.2,1.8-0.1,3c-0.4,1.4-1.3,2.3-1.8,2.8c-3.6,3.7-6.7,7.9-6.7,7.9l0,0
								c-4.7,4.3-6.6,5.2-6.3,6.3c0.4,1.5,3.7,1.8,5.3,1.9c3.8,0.4,6.9-0.7,10.5-2c1.1-0.4,1.8-0.6,2.5-1.1c2.2-1.4,2.8-3.5,8.5-7.1
								c0.9-0.5,2.3-1.4,2.7-3.1c0-0.2,0.1-0.3,0.1-0.5c0-0.9-0.3-1.5-0.6-2.3c0,0-0.5-1-0.7-2c-0.2-0.8-0.2-1.3-0.4-2.9
								c-0.1-0.7-0.2-1.7-0.3-2.9C538.8,572.1,534.6,572.7,530.4,573.3z"/>
						</g>
						<path class="st40" d="M544.2,584c-4.4-1.3-8.8-2.8-13.4-4.5c-0.8-0.3-1.7-0.6-2.5-1c-0.4,0.4-0.8,0.8-1.2,1.3
							c-0.5,0.7-0.9,1.3-1.2,1.9c0.4,0.2,0.8,0.3,1.3,0.5c4.8,1.8,9.5,3.2,14.1,4.3C542.3,585.7,543.2,584.8,544.2,584z"/>
						<path class="st40" d="M530.7,583.1c-0.6,0.9-1.4,1.8-2.3,2.7c-1.3,1.4-2.6,2.5-3.8,3.4c-0.8-0.4-1.5-0.8-2.3-1.2
							c1.6-2.1,3.3-4.2,4.9-6.3c0.7,0,1.5,0,2.2,0C529.8,582.3,530.2,582.7,530.7,583.1z"/>
						<path class="st40" d="M536.7,590.5c-7.8-1.4-10.9-2-11.9-2.3c-0.2-0.1-1-0.3-2.2-0.6c-0.7-0.1-1.2-0.2-1.6-0.3
							c-0.3,0.2-0.6,0.5-0.9,0.7c-0.5,0.4-1,0.9-1.4,1.3c0.4,0.3,1.1,0.6,1.9,0.9c1.8,0.8,3.2,1,4.2,1.2c3.7,0.8,8.2,1.3,9,1.4
							C534.8,592.1,535.7,591.3,536.7,590.5z"/>
					</g>
					<path class="st44" d="M519.4,519.4c2,17.3,4,34.7,6,52c2.7,1,6.4,2.1,10.9,2.6c4.6,0.5,8.5,0.2,11.4-0.3
						c-2.1-18.7-4.3-37.5-6.4-56.2C534,518.1,526.7,518.7,519.4,519.4z"/>
					<path class="st45" d="M465.5,214.3c0.3,3.4,0.6,8.6,0.2,14.9c-1,16.2-5.3,23.1-6.6,36.2c-0.6,6-0.7,14.7,1.9,25.6
						c9-1.7,18-3.4,26.9-5.1c-3.1-24.5-6.3-48.9-9.4-73.4C474.2,213.1,469.8,213.7,465.5,214.3z"/>
					<g>
						<path class="st41" d="M487.5,555.9c0.8,5.7,1.5,11.3,2.3,17c3.9-0.7,7.7-1.4,11.6-2.1c-0.8-5.3-1.7-10.7-2.5-16
							C495,555.2,491.2,555.6,487.5,555.9z"/>
						<path class="st41" d="M500.9,567.9c0.8,4,2,6.5,3,8.1c0.3,0.5,1.2,1.9,1.6,3.9c0.2,1.1,0.5,2.4-0.1,3.4c-1,1.8-4.2,1.8-6,1.8
							c-1.2,0-5.7,1-14.6,3.1c0,0-5.2,1.2-15.5,2.3c-0.2,0-1,0.1-1.9-0.2c-0.3-0.1-1.5-0.5-1.6-1.1c-0.1-0.8,2-1.8,3.3-2.3
							c2.9-1.3,5.7-2.9,8.7-4.1c8.7-3.6,9.9-4.7,10.7-5.9c1.3-2,1.5-4.1,1.4-5.5c2.8-1.2,5.5-2.4,8.3-3.7
							C499,567.9,499.9,567.9,500.9,567.9z"/>
						<path class="st40" d="M505.5,582.9c0.1,0.1,0.2,0.2,0.3,0.3c0.1,0.3,0.2,0.6,0.2,0.9c0.1,0.7,0.1,1.4,0.1,1.9
							c-1.7,0.3-4.2,0.9-7.3,1.4c-5,0.9-5.8,0.9-10.2,1.6c-8.8,1.5-10,2.2-14.7,2.5c-3.3,0.2-6,0-7.7-0.2c-0.1-0.2-0.2-0.4-0.3-0.7
							c-0.1-0.5-0.1-1-0.1-1.3c0.3,0.5,2.8,0.3,4.9,0.2c3.8-0.1,6.2-0.7,10.9-1.6c4.7-0.9,4.3-0.6,8.4-1.4
							C493.8,585.9,499.1,584.7,505.5,582.9z"/>
						<g>
							<path class="st40" d="M488.9,575.9c1.1,1.2,2.4,2.5,3.9,3.8c2.2,1.9,4.3,3.5,6.3,4.8c-2.1,0.6-4.1,1.1-6.2,1.7
								c-1.1-0.5-2.6-1.5-4.1-3.1c-1.5-1.5-2.3-3.1-2.8-4.2c0.4-0.3,0.8-0.7,1.2-1.1C487.9,577.2,488.5,576.6,488.9,575.9z"/>
							<path class="st40" d="M486.9,580.5c-3.1,1.4-6.2,2.7-9.3,4.1c-0.3-0.5-0.6-0.9-0.9-1.4c3.2-1.4,6.4-2.9,9.7-4.3
								C486.5,579.4,486.7,580,486.9,580.5z"/>
							<path class="st40" d="M477,583c0.3,0.7,0.8,1.5,1.5,2.3c1.3,1.6,2.8,2.5,3.8,3c-1.6,0.3-3.3,0.7-4.9,1
								c-0.7-0.4-2-1.3-2.9-2.8c-0.4-0.6-0.6-1.3-0.8-1.8C474.7,584.2,475.9,583.6,477,583z"/>
						</g>
					</g>
					<path class="st44" d="M482.3,548.1c0.7,7.6,1.4,15.1,2.1,22.7c2.8,0.8,6.7,1.5,11.3,1.6c3.9,0,7.3-0.5,9.9-1.1
						c-0.5-8.1-1.1-16.3-1.6-24.4C496.8,547.2,489.6,547.7,482.3,548.1z"/>
					<path class="st7" d="M468.6,491.7l0.1,0.7c2.1,22.5,3.7,34.9,7.9,66.7c0.1,1.1,1.1,1.8,2.2,1.6c3.3-0.6,7.8-1.1,13-1.2
						c2.8-0.1,5,0,7.1,0.2c9.3,0.8,13.8,1.9,21,3c7.5,1.1,14.3,2.1,22.4,0.9c6-0.9,10.9-2.8,14.5-4.5c1.5-0.7,2.3-2.3,2.1-3.9
						c-3.1-23-5.5-41.8-7.3-55c-4.2-32-4.9-33.2-5.9-41.6c-2.3-19.7-3.2-29.7-6-48.2c-0.6-3.7-0.6-4-4.2-26.1
						c-3.5-22-5.3-33.1-5.4-33.8c-0.9-4.7-1.1-7.9-1.5-11.9c-1.1-10.5-1.5-22-1-34.2c1.6-6.2,2.8-13.6,2.9-22.2c0-3-0.1-5.9-0.3-8.6
						c-5.4-2.4-12-4.8-19.6-6.7c-10.1-2.5-19.2-3.4-26.4-3.5c-4.7,1.2-10.4,3-16.5,6c-6.8,3.3-12.2,6.9-16.2,10.1
						c0.9,29.5,3.1,45.9,5.1,55.5c0.5,2.2,1.1,4.9,1.7,9.2c1.8,12.1,0.6,16.8,2.5,30.1c0.3,2.1,0.6,3.5,0.8,6.2
						c0.5,6.5-0.1,11.5,1.6,39c0.5,7.5,1.4,20.1,3.3,45.3C466.6,467.2,467,472.1,468.6,491.7z"/>
					<path class="st7" d="M559.9,411.2c-1.7,1.4-6.2,4.9-13,5.7c-7.2,0.9-12.6-1.7-14.5-2.7c1-21.5,2-43,3.1-64.5
						c-7.2-19.5-14.5-39.1-21.7-58.6c1.3-10,5.8-17.4,11.6-18.4c1.1-0.2,2.4-0.2,4,0.3c0.4,0.2,0.9,0.5,1.5,0.9
						c2.5,1.6,4.2,3.3,5.6,5c3.6,4.6,5.4,11.4,5.4,11.4c1.8,7.5,7.9,24.9,17.3,50.3C559.4,364.1,559.6,387.6,559.9,411.2z"/>
					<path class="st41" d="M465.8,270.1c6.7,2,13.3,4.1,20,6.1c3-1.4,6.2-3,9.5-4.9c3.8-2.2,7.2-4.5,10.2-6.7c-0.7,0-2.3-0.2-4-1.3
						c-1.4-1-2.2-2.2-2.5-2.8c-0.7-5.6-1.5-11.2-2.2-16.8c-3.9,1.1-8.2,2.2-12.8,3.1c-3.1,0.6-6.2,1.1-9.1,1.5
						c0.4,3,0.8,6.1,1.1,9.3c0,0.6,0.1,1.5,0.2,2.6c0.1,1.6,0.1,3,0,4c-1.8,1.1-3.7,2.2-5.7,3.3
						C468.9,268.6,467.3,269.4,465.8,270.1z"/>
					<path class="st42" d="M474.9,248.5c0.4,3,0.8,6.1,1.1,9.3c1.4,0.8,3.2,1.5,5.5,1.5c2.1,0,5.1-1.1,11.1-5.6c1-0.7,2.4-1.8,4-3.2
						c-0.3-1.1-0.6-2.2-0.9-3.4c-0.3-1.1-0.5-2.1-0.7-3.2c-3.3,1.1-7,2.1-11,3C480.7,247.6,477.7,248.1,474.9,248.5z"/>
					<path class="st44" d="M510,264.9c-8.5,4.7-17,9.5-25.5,14.2c-0.1,7.3,0,14.9,0.3,22.9c0.2,5.2,0.5,10.2,0.9,15
						c-1.3,1.1-2.6,2.3-3.9,3.4c-0.4-6.1-0.7-12.4-0.9-19c-0.2-9.7-0.1-18.9,0.4-27.6c4.1-2,8.3-4.3,12.7-6.9
						c2.5-1.5,4.9-2.9,7.2-4.4c1.5,0.3,3.1,0.7,4.8,1.2C507.5,264.1,508.8,264.5,510,264.9z"/>
					<path class="st44" d="M465.4,270.3c1.3,1.4,2.9,2.9,4.9,4.4c2.4,1.8,4.7,3.2,6.7,4.1c0,6.7,0.1,13.8,0.5,21.1
						c0.3,6.1,0.7,12,1.2,17.7c1.1,0.9,2.2,1.8,3.3,2.7c-0.2-15.5-0.3-31-0.5-46.6c-1.8-0.2-5.8-0.9-8.9-4c-0.7-0.7-1.3-1.5-1.8-2.2
						C469,268.4,467.2,269.4,465.4,270.3z"/>
					<path class="st41" d="M467.4,231.8c1.5,8,1.1,8.9,2.5,13.9c0.9,3.1,1.8,5.6,2.5,7.2c0.6,0.6,2.9,2.9,5.8,3.7
						c0.6,0.2,1.7,0.5,3.1,0.4c0.5,0,1.1-0.1,1.8-0.3c4.4-1.3,8.3-4.6,8.3-4.6c1.6-1.5,3.6-3.2,4.9-5.7c1.6-3,1.6-5.9-1.2-19.9
						c-2.4-12.1-3.4-14.6-5.9-15.9c-1.2-0.7-3.2-1.1-7-2.1c-3.2-0.8-4.3-0.8-5.3-0.7c-2.5,0.3-4.2,1.4-5.4,2.2
						c-1.2,0.8-3.2,2.1-4.4,4.4c-0.8,1.4-1.3,3.1-1.2,7.1C466,225.2,466.5,227.1,467.4,231.8z"/>
					<g>
						<g>
							<path class="st46" d="M475.3,245.7c0.3,0.9,2.8,0.7,3.5,0.7c2.2-0.1,5.1-0.9,5.1-1.8c0-0.9-2.6-1.4-2.8-1.4
								c-0.6-0.1-2.8-0.6-4.4,0.7C476.4,243.9,475,245,475.3,245.7z"/>
						</g>
						<path class="st46" d="M476.3,237.4c0.2,0.2,0.8,0.6,1.6,0.6c1.1,0,1.7-0.9,1.8-1.1c-0.6,0.1-1.3,0.2-2,0.3
							C477.3,237.3,476.8,237.3,476.3,237.4z"/>
						<g>
							<path class="st7" d="M481.6,230.6c0.4-1.9,1.9-3.3,3.7-3.3c2,0,3.1,1.8,3.2,1.9c-0.2,0.3-1.4,2-3.6,2.2
								C483.2,231.5,482,230.8,481.6,230.6z"/>
							<g>
								<path class="st47" d="M485.9,229.2c0.2,1-0.2,2-0.9,2.1c-0.7,0.2-1.4-0.5-1.6-1.5c-0.2-1,0.2-2,0.9-2.1
									C484.9,227.5,485.7,228.2,485.9,229.2z"/>
								<path d="M485.2,229.4c0.1,0.6-0.1,1.1-0.5,1.2c-0.4,0.1-0.8-0.3-0.9-0.8c-0.1-0.6,0.1-1.1,0.5-1.2
									C484.6,228.5,485,228.8,485.2,229.4z"/>
								<path class="st7" d="M485.3,228.9c0,0.2-0.1,0.4-0.2,0.5c-0.2,0-0.3-0.1-0.4-0.3c0-0.2,0.1-0.4,0.2-0.5
									C485.1,228.5,485.3,228.7,485.3,228.9z"/>
							</g>
							<path d="M481.6,230.6c0.1-0.1,1.1-2.4,3.4-2.6c1.8-0.2,3.1,1.1,3.3,1.3c0.1,0,0.1-0.1,0.2-0.1c0,0,0.1-0.1,0.1-0.1
								c-1-1.6-2.9-2.3-4.4-1.7C482.9,227.7,481.9,229,481.6,230.6z"/>
						</g>
						<g>
							<path class="st7" d="M475.5,231.9c-1.4-1.7-3.2-2.3-4.5-1.5c-1.3,0.8-1.7,2.7-1.7,3.1c0.6,0.3,1.8,0.7,3.2,0.4
								C474.1,233.6,475.1,232.5,475.5,231.9z"/>
							<g>
								<path class="st47" d="M470.9,232.8c0.3,0.9,1.2,1.4,1.9,1.1c0.7-0.3,1-1.3,0.7-2.2c-0.3-0.9-1.2-1.4-1.9-1.1
									C470.9,230.8,470.6,231.8,470.9,232.8z"/>
								<path d="M471.3,232.7c0.2,0.5,0.7,0.8,1.1,0.6c0.4-0.2,0.6-0.8,0.5-1.3c-0.2-0.5-0.7-0.8-1.1-0.6
									C471.3,231.6,471.1,232.2,471.3,232.7z"/>
								<path class="st7" d="M472.3,231.8c0.1,0.2,0.3,0.3,0.4,0.2c0.2-0.1,0.2-0.3,0.2-0.5c-0.1-0.2-0.3-0.3-0.4-0.2
									C472.3,231.3,472.2,231.6,472.3,231.8z"/>
							</g>
							<path d="M475.5,231.9c-0.1-0.1-2.1-1.9-4.1-0.9c-1.4,0.7-1.9,2.3-2,2.7c-0.1,0-0.1,0-0.2,0c0,0-0.1,0-0.1,0
								c0.2-1.9,1.3-3.4,2.7-3.6C473.1,229.7,474.5,230.4,475.5,231.9z"/>
						</g>
						<path d="M479.7,225.6c0.3-0.4,1-1.5,2.5-2.7c2-1.6,3.7-1.9,4.1-1.9c0.5,0,1,0.1,1,0.1c0.4,0.1,0.7,0.3,1,0.5
							c0.4,0.3,0.9,0.6,1.5,1.1c-0.1,0-0.2,0-0.3,0c0,0-0.6-0.1-1.3,0c-2.4,0.3-4.8,2-4.8,2c-1.6,1.1-2.6,2.4-3.3,3.4
							c-0.1,0-0.5,0-0.9-0.3c-0.2-0.1-0.3-0.3-0.4-0.4C479,226.8,479.3,226.2,479.7,225.6z"/>
						<g>
							<path d="M466.7,228.3c0.1-0.1,0.3-0.3,0.5-0.4c1.3-1,3.1-0.7,4.1-0.5c1.5,0.2,2.6,0.9,3.4,1.5c0.1-0.1,0.4-0.3,0.5-0.7
								c0.1-0.2,0.1-0.4,0.1-0.5c-0.3-0.3-0.7-0.7-1.2-1.1c-0.3-0.2-1.3-0.9-2.7-1.2c-0.1,0-2.3-0.5-3.5,0.2
								c-0.4,0.2-0.6,0.5-0.6,0.5c-0.3,0.4-0.4,0.8-0.5,1.1C466.7,227.6,466.7,228,466.7,228.3z"/>
						</g>
						<path d="M472,243.9c-0.4,0.9-0.3,1.9-0.2,4c0.1,2.1,0.4,3.9,0.7,5.1c0.5,0.6,4.3,4.9,8.5,4.6c1.1-0.1,2.9-0.6,4.5-1.2
							c1-0.4,1.7-0.8,2.2-1.1c0,0,0.1-0.1,0.3-0.2c1.2-0.8,3.1-2.6,3.6-3c-0.4-1.1-0.9-2.7-1.7-4.5c-1.5-3.5-2.2-5.3-3.4-6.3
							c-2.6-2.1-6.3-1.5-7.7-1.3C477.5,240.1,473.2,240.9,472,243.9z M477.2,246.9c-0.1,0.2-0.4,0.8-1.1,1.1c-0.9,0.5-1.8,0.2-2,0.1
							c0,0,0,0,0,0c0,0,0,0,0,0c0,0,0,0,0,0c0,0-0.6-1.3,0-2.9c0.5-1.2,1.5-2.3,2.7-2.8c0.5-0.2,1-0.3,1.7-0.4c0.1,0,1-0.2,1.6-0.2
							c0.2,0,2.6-0.1,4.2,1.6c0.9,1,1.5,2.7,1.1,3.1c0,0,0,0,0,0c-0.2,0.2-1.6,1.3-3.2,0.9c-0.8-0.2-1.3-0.6-1.6-0.9
							C479.4,246.7,478.3,246.8,477.2,246.9z"/>
					</g>
					<path class="st45" d="M466.7,220.4c2.4-1.6,3.8-1.7,4.6-1.4c0.4,0.1,1.7,0.6,3.1,0.1c0,0,0,0,0,0c0.5-0.4,1.3-0.9,2.4-1.2
						c0.3-0.1,0.9-0.3,1.6-0.3c2.4-0.2,3.1,1.4,5,1.1c1-0.1,0.8-0.5,2.3-0.9c1-0.2,2.3-0.5,3.4,0.1c1,0.5,1.5,1.5,1.9,2.6
						c0.3,1,0.6,2.4,0.9,4.3c0.7,4.2,1.2,8.6,1.4,10.4c1.3,11.4,3.8,19.9,8.8,37c1.7,5.7,3.3,10.5,4.5,14c0.2,0.6,0.4,1.1,0.6,1.6
						c0.3-0.1,3.2-1.7,5.5-2.5c0.2-0.1,0.4-0.1,0.6-0.2c1.5-0.4,2.7-0.4,3.5-0.4c2.4,0,5.6,0.7,7.1,0.9c1.9,0.2,4.7,0.1,8.3-1.7
						c-1.4-8-3.6-13.8-5.5-17.7c-2-4.2-3.5-6.2-6.3-11.6c-0.7-1.3-3.5-7-6-14.3c-5.1-14.5-4.1-20.5-10.3-30.8c-1.2-2-2.3-3.5-3-4.4
						c-1.7-1.6-4.6-3.9-8.9-5.2c-6.6-2-12.2-0.2-14,0.4c-2,0.7-5.3,1.8-8.3,5c-1.3,1.4-4.2,4.4-4.5,9.1
						C465.3,217,466.1,219.2,466.7,220.4z"/>
					<g>
						<path class="st48" d="M464.1,218.3c5.5-1.7,12.3-3.3,20.3-4.2c7.6-0.8,14.4-0.7,19.9-0.3"/>
						<path class="st48" d="M506.8,210.5c-6.2-0.5-13.7-0.6-22.1,0.3c-9.4,1-17.4,2.9-23.8,4.8"/>
					</g>
				</g>
			</g>
		</g>
	</g>
</g>
</svg>
