<?xml version="1.0" encoding="utf-8"?>
<!-- Generator: Adobe Illustrator 16.0.0, SVG Export Plug-In . SVG Version: 6.00 Build 0)  -->
<!DOCTYPE svg PUBLIC "-//W3C//DTD SVG 1.1//EN" "http://www.w3.org/Graphics/SVG/1.1/DTD/svg11.dtd">
<svg version="1.1" id="Layer_2" xmlns="http://www.w3.org/2000/svg" xmlns:xlink="http://www.w3.org/1999/xlink" x="0px" y="0px"
	 width="594px" height="574.5px" viewBox="0 0 594 574.5" enable-background="new 0 0 594 574.5" xml:space="preserve">
<path fill="#8892DB" d="M263.257,506.824c-123.22-18.68-223.341-135.17-205.165-264.716
	C73.558,131.743,170.466,45.78,286.556,37.646c69.894-5.122,138.885,18.98,190.401,66.48c42.38,38.964,69.896,91.184,74.916,145.916
	C565.229,395.654,416.503,530.021,263.257,506.824"/>
<path fill="#483291" d="M404.051,508.531c2.712-30.127-17.173-74.012-52.12-75.82c-7.431-0.4-13.055,0.703-11.549,9.039
	c1.004,5.723,4.118,11.047,7.633,15.766c9.038,12.352,20.186,19.684,31.733,29.424c5.122,4.418,10.042,8.637,15.365,12.754
	c1.808,1.406,3.113,3.014,4.519,4.721c1.004,1.104,4.018,5.521,3.815,4.518l0.704-0.4H404.051z"/>
<path fill="#21263D" d="M408.369,539.762c-0.201,0-0.503-0.201-0.503-0.4v-1.205c-0.2-3.615-0.703-14.461-4.819-29.123
	c-7.834-27.516-21.692-43.283-43.082-61.359c-0.201-0.201-0.201-0.502,0-0.703c0.201-0.199,0.502-0.199,0.603,0
	c21.491,18.078,35.55,34.145,43.282,61.861c2.812,9.541,4.419,19.381,4.921,29.324v1.104
	C408.771,539.561,408.67,539.762,408.369,539.762"/>
<path fill="#D9CCFF" d="M397.423,334.297c3.917,7.229-2.109,14.762-1.708,22.193c1.206,20.688,36.655,17.674,32.739,39.668
	c-0.805,4.418-3.516,8.334-6.528,11.547c-2.31,2.711-6.829,5.424-7.531,9.24c-1.306,7.33,9.439,11.949,13.355,16.469
	c5.624,6.83,7.532,16.068,1.809,23.5c-5.523,7.029-6.126,5.824-5.423,15.766c0.603,8.838-1.205,27.113-7.433,34.947
	c-7.631-38.965-20.084-33.941-35.047-35.248c-8.234-0.703-18.579-7.031-16.47-15.465c2.209-8.838,2.712-11.049,7.432-18.076
	c6.327-9.34-4.017-14.563-11.75-16.471c-10.042-2.609-11.648-5.322-14.461-16.77c-1.306-5.021-0.401-10.043,2.21-14.361
	c2.812-4.92,8.637-7.029,11.549-11.648c5.422-8.537-8.235-11.65-13.356-15.164c-5.624-4.018-7.532-8.939-5.021-15.365
	c1.204-3.014,3.012-5.523,5.723-7.129c2.009-1.205,6.227-1.307,7.532-3.314c1.005-1.607-0.703-5.424-0.401-7.533
	c0.2-2.609,1.306-5.121,3.214-7.027c5.724-5.123,13.054,1.906,19.382,2.609C384.669,327.568,393.306,326.463,397.423,334.297"/>
<path fill="#21263D" d="M412.084,538.658h-0.1c-0.302,0-0.503-0.301-0.402-0.604l0,0c4.82-17.775,5.323-39.768,5.021-46.695
	c-0.703-20.689-4.921-42.18-12.553-64.07c-7.432-23.299-17.071-45.793-28.722-67.285c-0.101-0.299,0-0.5,0.201-0.703
	c0.201-0.1,0.502,0,0.603,0.203c11.649,19.781,20.286,43.182,28.721,67.484c7.433,20.686,11.75,42.379,12.654,64.27
	c0.301,7.029-0.201,29.123-5.021,46.998C412.486,538.557,412.286,538.658,412.084,538.658"/>
<path fill="#21263D" d="M384.97,377.98c-0.301,0-0.502-0.301-0.401-0.602l0,0c1.004-4.018,1.809-9.742,2.411-16.27
	c0-0.301,0.2-0.502,0.502-0.4c0.301,0,0.4,0.199,0.4,0.502c-0.502,5.523-1.305,10.945-2.41,16.367c0,0.201-0.2,0.402-0.401,0.402
	 M390.393,390.836l-0.301-0.102l-7.33-4.418c-3.314-2.008-6.227-3.918-10.043-5.523c-0.201-0.102-0.402-0.402-0.302-0.604
	c0.101-0.301,0.402-0.402,0.604-0.301c3.614,1.607,7.028,3.516,10.243,5.723l7.33,4.318c0.201,0.201,0.201,0.504,0,0.705
	C390.594,390.635,390.493,390.734,390.393,390.836 M398.427,410.82c-0.301,0-0.503-0.303-0.401-0.604l0,0l2.008-8.234l2.01-9.039
	c0.1-0.201,0.401-0.301,0.602-0.301c0.302,0.1,0.402,0.301,0.402,0.602l-2.21,9.039l-1.908,8.133
	C398.929,410.719,398.729,410.82,398.427,410.82 M400.636,416.645l-0.2-0.102c-2.009-1.205-5.021-2.51-8.335-4.018
	c-3.415-1.404-7.03-2.912-9.941-4.619c-0.303-0.1-0.403-0.301-0.403-0.604c0.101-0.299,0.303-0.4,0.603-0.4
	c0.102,0,0.202,0.102,0.303,0.201c2.911,1.707,6.427,3.215,9.841,4.619c3.213,1.406,6.327,2.813,8.335,4.018
	c0.301,0.1,0.301,0.4,0.2,0.703L400.636,416.645 M408.57,439.34h-0.201c-0.201-0.102-0.401-0.402-0.302-0.604
	c2.009-5.021,3.013-7.43,5.021-11.951l1.004-2.41c0.101-0.299,0.401-0.4,0.603-0.299c0.302,0.1,0.401,0.4,0.302,0.602l-1.005,2.51
	c-1.808,3.916-3.515,7.934-5.021,11.951L408.57,439.34 M411.582,451.59h-0.301l-8.134-5.221c-3.917-2.41-6.729-4.117-9.741-6.629
	c-0.302-0.1-0.402-0.4-0.302-0.602c0.101-0.301,0.401-0.402,0.603-0.301c0.101,0,0.201,0.1,0.302,0.301
	c3.013,2.408,5.724,4.117,9.54,6.527c2.31,1.404,5.021,3.012,8.235,5.223c0.2,0.1,0.3,0.4,0.1,0.602L411.582,451.59
	 M415.097,469.367h-0.301c-0.201-0.102-0.302-0.402-0.201-0.604c1.306-3.215,3.314-6.73,5.021-9.742
	c1.104-2.008,2.21-3.814,2.913-5.322c0-0.201,0.401-0.301,0.602-0.201c0.201,0.102,0.302,0.402,0.201,0.604
	c-0.903,1.807-1.908,3.615-3.013,5.424c-1.606,3.012-3.615,6.426-4.921,9.539C415.398,469.266,415.197,469.367,415.097,469.367"/>
<path fill="#483291" d="M419.717,508.531c-2.712-30.127,17.272-74.012,52.221-75.82c7.33-0.4,12.954,0.703,11.447,9.039
	c-1.005,5.723-4.017,11.047-7.531,15.766c-9.039,12.352-20.286,19.684-31.734,29.424c-5.222,4.418-10.042,8.637-15.364,12.754
	c-1.808,1.406-3.214,3.014-4.619,4.721c-0.904,1.104-4.018,5.521-3.716,4.518L419.717,508.531L419.717,508.531z"/>
<path fill="#21263D" d="M415.499,539.762c0.2,0,0.401-0.201,0.401-0.4v-1.205c0.301-3.615,0.803-14.461,4.921-29.123
	c7.732-27.516,21.691-43.283,42.981-61.359c0.101-0.201,0-0.502-0.201-0.703c-0.101-0.1-0.301-0.1-0.401,0
	c-21.49,18.078-35.45,34.145-43.183,61.861c-2.912,9.941-4.619,20.084-5.021,30.428
	C414.997,539.561,415.197,539.762,415.499,539.762"/>
<path fill="#FDFFFF" d="M427.649,567.578h-30.83l-11.749-46.795h54.43L427.649,567.578z"/>
<path fill="#2A1969" d="M427.751,567.578l-30.931,0.102h-0.201l-11.95-46.797l-0.101-0.502h27.516l27.315-0.102h0.603l-0.101,0.604
	l-3.013,11.648l-3.012,11.75l-3.014,11.648l-3.214,11.648H427.751z M427.751,567.578l2.711-11.748l2.813-11.75l2.811-11.748
	l2.913-11.65l0.502,0.604h-27.215l-27.215-0.102l0.302-0.502l11.649,46.896l-0.202-0.1l30.83,0.1H427.751z"/>
<path fill="none" d="M237.648,16.658c-13.857-13.457-35.75-15.264-48.805-4.017c-4.017,3.415-6.628,7.632-8.034,12.252
	c-13.557-12.453-34.244-14.059-46.797-3.213c-3.716,3.113-6.427,7.23-7.833,11.85c-19.381-10.846-43.583-10.243-59.25,3.214
	c-16.57,14.26-17.975,38.261-4.619,57.241c-6.628,0.502-13.055,2.812-18.077,7.03c-12.653,11.047-12.05,30.529,1.507,43.684
	c4.518,4.318,9.84,7.331,15.363,9.139c-1.907,1.004-3.815,2.209-5.422,3.615c-11.75,10.042-11.046,28.119,1.406,40.27
	c12.553,12.051,32.135,13.758,43.985,3.616c2.611-2.311,4.821-5.122,6.227-8.335c22.494,17.272,53.224,18.88,71.802,2.912
	c13.356-11.448,17.071-29.123,11.85-45.994c7.733,1.507,15.666-0.1,21.391-5.021c4.017-3.414,6.527-8.234,7.029-13.456
	c11.448,1.606,22.897-1.005,31.432-8.335c15.566-13.457,14.763-37.358-1.908-53.425c-3.113-3.013-6.728-5.624-10.544-7.732
	l0.803-0.603C252.211,50.099,251.507,30.115,237.648,16.658L237.648,16.658z"/>
<radialGradient id="SVGID_1_" cx="-1531.5493" cy="-525.2378" r="55.5086" gradientTransform="matrix(2.2527 -1.9373 -3.9845 -3.8587 1494.4158 -4875.6411)" gradientUnits="userSpaceOnUse">
	<stop  offset="0" style="stop-color:#FFFFFF"/>
	<stop  offset="0.3" style="stop-color:#FBFDFE"/>
	<stop  offset="0.6" style="stop-color:#F1F8F9"/>
	<stop  offset="0.9" style="stop-color:#DEEFF2"/>
	<stop  offset="1" style="stop-color:#D3EAED"/>
</radialGradient>
<path fill="url(#SVGID_1_)" d="M211.941,14.549c-13.758-13.457-35.751-15.365-48.706-4.017c-3.816,3.213-6.627,7.431-8.135,12.151
	c-13.557-12.352-34.245-13.858-46.696-3.213c-3.716,3.213-6.527,7.331-7.934,12.051c-19.381-11.046-43.583-10.344-59.25,3.013
	c-16.57,14.36-17.976,38.361-4.619,57.342c-6.628,0.502-13.055,2.811-18.076,7.03c-12.653,11.046-12.051,30.528,1.506,43.583
	c4.519,4.318,9.842,7.431,15.365,9.239c-1.908,0.904-3.816,2.109-5.423,3.515c-11.749,10.143-11.046,28.119,1.406,40.37
	c12.553,12.051,32.236,13.758,43.985,3.615c2.711-2.209,4.82-5.021,6.327-8.235c22.494,17.172,53.224,18.88,71.903,2.912
	c13.256-11.448,17.071-29.122,11.749-46.094c7.532,1.707,15.465-0.101,21.49-5.021c3.917-3.415,6.428-8.134,6.93-13.356
	c11.147,1.808,22.596-1.205,31.433-8.334c15.465-13.558,14.662-37.559-1.908-53.626c-3.214-3.012-6.729-5.624-10.645-7.732
	l0.803-0.703c13.055-11.147,12.352-31.131-1.506-44.588V14.549z"/>
<path fill="#2A1969" d="M211.841,14.649c-1.005-1.005-2.009-2.009-3.214-2.812c-1.104-0.803-2.209-1.707-3.515-2.41l-1.807-1.105
	l-1.908-1.004l-3.917-1.607l-2.009-0.703l-2.008-0.502c-1.406-0.301-2.813-0.703-4.218-0.804l-2.008-0.301h-6.428l-2.109,0.401
	l-1.004,0.101c-0.401,0-0.703,0.2-1.004,0.301l-2.109,0.502l-2.008,0.703l-1.004,0.301l-1.005,0.402l-1.908,1.004l-1.808,1.004
	l-0.904,0.603l-0.803,0.603l-1.707,1.306l-1.406,1.607c-2.913,3.012-5.123,6.728-6.427,10.745l-0.202,0.502l-0.502-0.402
	l-3.113-2.51l-3.415-2.209l-1.708-1.004l-1.907-0.803c-1.205-0.603-2.51-1.004-3.715-1.507l-2.009-0.603l-1.908-0.502
	c-1.306-0.201-2.611-0.502-4.017-0.603l-2.009-0.201h-4.016l-2.009,0.201l-2.008,0.301l-0.903,0.101l-1.004,0.301l-1.909,0.502
	l-1.908,0.703l-0.903,0.302l-0.905,0.502l-1.807,0.804c-1.004,0.803-2.31,1.305-3.314,2.209l-1.606,1.205l-1.506,1.406
	c-1.406,1.405-2.612,3.012-3.616,4.72l-1.004,1.707l-1.406,3.716l-0.302,0.903l-0.903-0.502l-3.414-1.707l-3.615-1.607l-3.616-1.305
	L85.608,26.6c-1.205-0.402-2.51-0.602-3.716-0.803l-3.916-0.603c-2.511-0.301-5.122-0.402-7.733-0.301l-3.816,0.201l-3.916,0.603
	L58.795,26.5c-1.305,0.301-2.51,0.803-3.716,1.205l-3.616,1.406l-3.414,1.808l-3.214,2.008l-3.013,2.411l-2.912,2.711l-2.511,2.913
	l-2.209,3.112l-1.907,3.415l-1.507,3.515l-1.205,3.716l-0.803,3.816l-0.201,1.907l-0.201,2.009
	c-0.301,5.122,0.301,10.143,1.807,15.063l0.603,1.908l0.704,1.808l1.607,3.514l1.807,3.515l2.109,3.314l0.402,0.603h-0.703
	l-2.711,0.401l-2.611,0.401c-1.708,0.402-3.414,0.904-5.122,1.607l-1.205,0.602l-1.206,0.603l-1.205,0.603l-1.104,0.803
	c-0.803,0.401-1.506,1.004-2.209,1.506l-0.502,0.402l-0.502,0.502l-1.004,1.004c-0.603,0.502-1.205,1.206-1.707,2.009l-0.904,1.004
	l-0.703,1.004l-0.703,1.206c-0.301,0.301-0.401,0.803-0.603,1.205c-0.401,0.803-0.904,1.506-1.104,2.41
	c-0.703,1.607-1.104,3.415-1.406,5.121l-0.301,2.712v2.711l0.201,2.611c0,1.004,0.301,1.808,0.402,2.711
	c0.502,1.708,1.004,3.415,1.707,5.022l0.502,1.305l0.603,1.205l1.305,2.31l1.507,2.209l1.707,2.109
	c1.205,1.406,2.41,2.711,3.816,3.916l2.009,1.708l2.209,1.506c3.013,2.008,6.327,3.615,9.741,4.72l0.703,0.201l-0.703,0.401
	l-3.013,1.707l-2.611,2.109c-0.804,0.803-1.708,1.606-2.41,2.51l-1.004,1.305l-1.004,1.406l-1.507,3.013
	c-0.301,0.502-0.401,1.004-0.603,1.607l-0.502,1.607c-0.301,1.004-0.602,2.209-0.703,3.313l-0.201,1.708v1.707l0.1,1.607
	l0.202,1.707l0.301,1.708c0,0.501,0.201,1.104,0.402,1.606l1.004,3.213l0.704,1.607l0.803,1.507c1.004,2.008,2.41,3.815,3.815,5.624
	l2.31,2.51l2.611,2.209l2.711,2.008l3.013,1.707l3.013,1.406c1.004,0.402,2.108,0.904,3.213,1.205l1.607,0.401l1.707,0.402
	c1.004,0.301,2.209,0.401,3.314,0.501l0.803,0.101h0.904l1.708,0.101c1.104,0,2.209,0,3.313-0.201
	c2.311-0.301,4.519-0.603,6.628-1.406l1.607-0.603l1.506-0.703c1.004-0.402,2.008-1.004,2.913-1.607l1.305-1.005l1.305-1.004
	l1.305-1.205l0.604-0.603l0.502-0.703l1.004-1.205l1.004-1.406l0.401-0.703l0.402-0.703l0.803-1.506l0.402-1.004l0.804,0.703
	c2.209,1.406,4.317,3.013,6.628,4.318l3.415,1.908l3.615,1.707l3.615,1.506l3.716,1.306l1.908,0.502l1.909,0.502
	c1.305,0.301,2.51,0.703,3.815,0.803l3.917,0.602l3.917,0.301c2.611,0.101,5.222,0.201,7.833-0.1l2.008-0.201l1.908-0.301
	c1.306-0.301,2.612-0.402,3.816-0.804l1.908-0.502l1.909-0.502l3.616-1.406l3.514-1.707c1.206-0.603,2.21-1.305,3.314-2.008
	l0.904-0.502l0.703-0.603l1.607-1.205l1.506-1.205l1.405-1.306l1.406-1.406l1.306-1.406l1.205-1.606l1.104-1.507l1.004-1.707
	l1.005-1.606c3.213-5.724,4.921-12.151,5.021-18.679c0.101-5.222-0.702-10.444-2.31-15.465l-0.401-1.506l1.606,0.201l2.31,0.402
	l2.31,0.1h2.31c0.703,0,1.506,0,2.309-0.201l2.209-0.401l2.21-0.703l2.108-0.804l2.009-1.104l1.908-1.306l0.903-0.703l0.803-0.804
	l1.607-1.606l1.305-1.808c0.301-0.703,0.803-1.306,1.004-2.008l1.004-2.109l0.503-2.209l0.402-2.21l0.201-1.004h1.004
	c4.318,0.603,8.637,0.603,12.955,0c6.527-1.004,12.552-3.715,17.674-7.833l2.311-2.31l1.104-1.205l1.004-1.205l0.603-0.603
	l0.401-0.704l0.904-1.405l1.607-2.812l0.703-1.506l0.502-1.506l0.603-1.506l0.402-1.607l0.401-1.606l0.201-1.607l0.302-3.213
	c0.1-2.209,0-4.419-0.402-6.628l-0.603-3.214l-0.904-3.113l-1.205-3.013c-0.402-1.105-1.005-2.008-1.407-3.013l-1.707-2.912
	l-0.903-1.406l-1.004-1.305l-1.005-1.305l-1.004-1.205l-2.31-2.511l-2.41-2.209l-2.611-2.008l-2.712-2.008l-2.811-1.708
	l-0.502-0.201l0.401-0.301c0.904-0.502,1.606-1.306,2.41-2.008l2.109-2.41l0.502-0.603l0.502-0.704l0.803-1.305l0.804-1.406
	l0.703-1.406c0.503-1.004,0.803-2.009,1.105-3.013l0.802-3.013l0.402-3.213v-3.214l-0.1-1.607l-0.201-1.607l-0.301-1.506
	l-0.201-0.803l-0.202-0.804l-0.4-1.506l-0.202-0.804l-0.3-0.703l-0.603-1.506l-0.301-0.703l-0.402-0.803l-0.703-1.406l-0.803-1.406
	c-0.604-0.803-1.104-1.807-1.808-2.611l-2.008-2.51L211.841,14.649L211.841,14.649z M212.042,14.448l2.208,2.31l2.009,2.51
	l1.807,2.712l0.803,1.406l0.803,1.406l0.301,0.703l0.301,0.803l0.603,1.506l0.302,0.703l0.3,0.804l0.403,1.506l0.3,0.804
	l0.101,0.803l0.301,1.607l0.201,1.607l0.201,1.606v3.113l-0.402,3.213l-0.803,3.114l-1.004,3.012l-0.804,1.507l-0.803,1.406
	l-0.904,1.405l-0.401,0.704l-0.502,0.603c-0.704,0.804-1.306,1.707-2.109,2.41c-0.803,0.804-1.506,1.606-2.411,2.209v-0.502
	l2.813,1.708l2.812,1.908l2.712,2.008l2.51,2.31l2.31,2.41l1.005,1.306l1.104,1.305l1.004,1.305l1.004,1.407
	c0.603,1.004,1.306,1.908,1.809,2.912l1.506,3.013l1.305,3.112l1.004,3.214l0.604,3.314c0.402,2.309,0.603,4.519,0.502,6.829
	l-0.201,3.415l-0.301,1.707l-0.302,1.607l-0.401,1.707l-0.603,1.607l-0.502,1.607l-0.703,1.506
	c-0.602,1.004-1.004,2.109-1.708,3.013l-0.903,1.506l-0.402,0.703l-0.603,0.704l-1.004,1.305l-1.205,1.305l-2.41,2.411
	c-5.223,4.519-11.65,7.432-18.478,8.436c-4.519,0.703-9.039,0.803-13.658,0.1l1.205-0.903l-0.401,2.51l-0.703,2.41
	c-0.201,0.804-0.603,1.606-1.004,2.31c-0.202,0.803-0.704,1.506-1.104,2.209l-1.507,2.008c-0.603,0.704-1.104,1.406-1.707,1.908
	l-0.904,0.803l-1.005,0.804l-2.008,1.406l-2.208,1.205l-2.311,1.004l-2.41,0.602c-0.803,0.301-1.607,0.301-2.411,0.502
	c-0.903,0.201-1.707,0.201-2.511,0.201l-1.205,0.1h-1.305c-0.803,0-1.606,0-2.411-0.201l-2.51-0.301l1.205-1.405
	c1.607,5.222,2.31,10.645,2.31,16.067c-0.1,5.523-1.205,10.946-3.314,16.068l-1.807,3.615l-1.004,1.808l-1.206,1.708l-1.205,1.606
	l-1.205,1.607l-1.406,1.506l-1.507,1.507l-1.406,1.306l-1.606,1.305l-1.707,1.306l-0.804,0.603l-0.803,0.502
	c-1.205,0.703-2.31,1.506-3.515,2.109l-3.715,1.808l-3.816,1.406l-2.009,0.502l-2.008,0.502c-1.205,0.402-2.611,0.603-3.917,0.804
	l-2.008,0.301l-2.009,0.201c-2.711,0.201-5.422,0.301-8.134,0.201l-4.017-0.402l-4.017-0.603c-1.406-0.201-2.61-0.602-4.017-0.903
	l-2.008-0.502l-1.808-0.603l-3.917-1.305l-3.716-1.507c-2.41-1.205-4.82-2.31-7.13-3.815c-2.411-1.306-4.519-3.013-6.728-4.52
	l1.305-0.301l-0.803,1.606l-0.402,0.703l-0.502,0.803l-1.004,1.507l-1.205,1.406l-0.603,0.603l-0.603,0.603l-1.306,1.205
	l-1.406,1.105l-1.405,1.004c-1.004,0.703-2.008,1.306-3.114,1.808l-1.707,0.703l-1.606,0.603c-2.311,0.803-4.62,1.306-7.03,1.506
	l-3.414,0.101h-1.808l-0.904-0.101l-0.803-0.101c-1.205-0.2-2.411-0.3-3.515-0.602l-1.707-0.402l-1.708-0.502l-3.313-1.205
	l-3.114-1.506l-3.013-1.808l-2.912-2.009c-0.904-0.803-1.708-1.606-2.611-2.41l-2.41-2.611c-1.506-1.807-2.711-3.715-3.816-5.824
	l-0.803-1.506l-0.703-1.707c-0.502-1.005-0.803-2.209-1.105-3.314l-0.402-1.708l-0.301-1.707l-0.1-1.808l-0.101-1.707v-1.808
	l0.201-1.707c0.101-1.206,0.402-2.31,0.703-3.515l0.603-1.607l0.603-1.708c0.502-1.004,1.004-2.008,1.707-3.013l1.004-1.506
	l1.004-1.406c0.803-1.004,1.707-1.606,2.51-2.41l2.813-2.209l3.012-1.707v0.602c-3.515-1.104-6.729-2.711-9.841-4.72l-2.209-1.607
	l-2.008-1.707c-1.406-1.205-2.711-2.611-3.917-4.017l-1.707-2.008l-1.507-2.41c-0.502-0.703-1.004-1.506-1.306-2.31l-0.703-1.305
	l-0.502-1.205c-0.703-1.707-1.306-3.415-1.707-5.222l-0.502-2.711l-0.201-2.711v-2.812l0.301-2.711
	c0.301-1.808,0.803-3.615,1.406-5.323l1.104-2.51l0.703-1.206l0.703-1.105l0.703-1.205l1.004-1.004
	c1.707-2.109,3.716-4.017,6.025-5.523l1.105-0.804l1.205-0.703l1.205-0.603l1.306-0.603c1.708-0.703,3.414-1.306,5.222-1.707
	l2.711-0.502l2.711-0.301l-0.301,0.703l-2.209-3.314l-2.009-3.515l-1.607-3.615l-0.703-1.908l-0.603-1.908
	c-1.606-5.122-2.31-10.444-2.109-15.766c0-0.603,0-1.306,0.201-2.009l0.2-2.009c0.101-1.205,0.503-2.51,0.804-3.815l1.104-3.917
	l1.607-3.716l1.908-3.515l2.31-3.314l2.611-3.012l2.812-2.813l3.213-2.51l3.415-2.109l3.514-1.908l3.716-1.506
	c1.305-0.401,2.511-0.904,3.816-1.205l4.017-1.004l3.917-0.502c1.306,0,2.611-0.301,4.017-0.301c2.611,0,5.322,0,8.034,0.301
	l3.917,0.603l3.917,0.903l3.815,1.005l3.716,1.506l3.716,1.606l3.514,1.808l-1.205,0.502c1.305-4.017,3.616-7.733,6.528-10.746
	l1.506-1.406l1.707-1.306l0.803-0.602c0.301-0.301,0.603-0.402,1.004-0.603l1.708-1.004l2.008-1.005l0.905-0.402l1.004-0.402
	l2.008-0.602l2.008-0.502l1.004-0.301l1.005-0.101l2.008-0.301l2.109-0.101h4.116l2.109,0.201c1.406,0.1,2.711,0.502,4.018,0.703
	l2.008,0.603l2.009,0.603l3.916,1.607l1.808,0.903l1.808,1.004l3.415,2.31l3.213,2.711l-0.703,0.1
	c1.606-4.72,4.519-8.937,8.335-12.251l1.707-1.306l1.004-0.603l0.803-0.603l1.909-1.004l2.008-1.004l0.904-0.402l1.005-0.401
	l2.008-0.603l2.11-0.502l1.004-0.301l1.104-0.1l2.108-0.301L182.919,3h4.218l2.209,0.402c1.406,0,2.812,0.502,4.218,0.703
	l2.008,0.603l2.009,0.703c1.305,0.603,2.711,1.004,4.016,1.708l1.809,1.004l1.907,1.004l3.515,2.511L212.042,14.448L212.042,14.448z
	"/>
<path fill="#FFFFFF" d="M204.61,179.846c6.427,3.515,8.938,10.746,5.524,16.168c-3.416,5.423-11.349,7.03-17.776,3.514
	c-6.426-3.514-9.038-10.845-5.623-16.268C190.149,177.837,198.083,176.23,204.61,179.846 M227.406,209.37
	c-1.005,3.715-4.82,6.026-8.536,5.021c-3.816-0.703-6.326-4.418-5.523-8.234v-0.101c1.004-3.716,4.82-6.025,8.536-5.021
	c0,0,0,0,0.1,0C225.799,201.838,228.209,205.554,227.406,209.37L227.406,209.37"/>
<path fill="none" d="M179.705,572.602h245.233"/>
<path fill="none" stroke="#2A1969" stroke-width="3" stroke-miterlimit="10" d="M74.662,572.602h400.89 M484.59,572.602h33.943"/>
<g>
	<g>
		<g>
			<path fill="#CC936D" d="M247.088,743.521c-5.523-0.301-11.146-0.604-16.67-0.904c0.502-2.51,1.104-5.021,1.607-7.531
				c-0.402-5.926-0.903-11.951-1.306-17.877c5.322,0,10.545,0,15.868,0c-0.202,5.926-0.502,11.951-0.704,17.877
				C246.186,737.898,246.688,740.711,247.088,743.521z"/>
			<g>
				<path fill="#101010" d="M222.586,766.115c0,0.906,0.101,1.709,0.301,2.512c2.611,10.945,7.833,12.252,15.063,8.234
					c6.125-3.414,7.833-4.217,8.837-7.934c-3.214-2.309-7.934-4.016-13.356-4.318C229.415,764.51,225.7,765.012,222.586,766.115z"/>
				<path fill="#CC936D" d="M223.49,762.502c0,0.902-0.604,2.008-0.402,2.711c2.612,10.945,7.833,12.252,15.063,8.234
					c6.126-3.414,7.029-4.418,8.035-8.133c-3.214-2.311-7.131-3.816-12.554-4.119C229.716,760.996,226.602,761.396,223.49,762.502z"
					/>
				<path fill="#CC936D" d="M247.088,761.195c0-7.23,0-17.674,0-17.674l-16.67-0.904c0,0-4.117,7.531-6.326,15.064
					c2.812-0.805,5.925-1.205,9.339-1.004C238.955,756.977,243.875,758.686,247.088,761.195z"/>
				<path fill="#101010" d="M247.088,761.195c-3.213-2.51-8.033-4.219-13.657-4.518c-3.414-0.201-6.627,0.199-9.339,1.004
					c-0.904,2.912-1.506,5.924-1.406,8.434c3.013-1.104,6.829-1.707,10.846-1.506c5.422,0.303,10.143,1.91,13.355,4.318
					c0.201-0.703,0.302-1.305,0.302-1.906C247.088,765.916,247.088,763.707,247.088,761.195z"/>
				<path fill="#101010" d="M226.704,750.25c0,0,9.037-2.912,20.285,1.707v-8.436c-2.008-0.703-4.921-1.508-8.435-1.709
					c-3.415-0.199-6.226,0.303-8.235,0.805C229.917,743.32,229.515,744.123,226.704,750.25z"/>
				<path fill="#101010" d="M231.825,761.498c0,0,1.807-13.457,3.213-16.371l5.423,0.201l-1.305,16.771L231.825,761.498z"/>
			</g>
		</g>
		<g>
			<path fill="#CC936D" d="M308.348,743.521c5.523-0.301,11.146-0.604,16.67-0.904c-0.502-2.51-1.104-5.021-1.606-7.531
				c0.401-5.926,0.903-11.951,1.305-17.877c-5.322,0-10.544,0-15.866,0c0.2,5.926,0.502,11.951,0.703,17.877
				C309.251,737.898,308.85,740.711,308.348,743.521z"/>
			<g>
				<path fill="#101010" d="M332.851,766.115c0,0.906-0.101,1.709-0.301,2.512c-2.611,10.945-7.834,12.252-15.063,8.234
					c-6.126-3.414-7.834-4.217-8.838-7.934c3.214-2.309,7.934-4.016,13.356-4.318C326.122,764.51,329.838,765.012,332.851,766.115z"
					/>
				<path fill="#CC936D" d="M331.946,762.502c0,0.902,0.604,2.008,0.402,2.711c-2.611,10.945-7.833,12.252-15.063,8.234
					c-6.126-3.414-7.03-4.418-8.034-8.133c3.214-2.311,7.13-3.816,12.554-4.119C325.82,760.996,328.834,761.396,331.946,762.502z"/>
				<path fill="#CC936D" d="M308.348,761.195c0-7.23,0-17.674,0-17.674l16.67-0.904c0,0,4.117,7.531,6.326,15.064
					c-2.812-0.805-5.925-1.205-9.339-1.004C316.481,756.977,311.561,758.686,308.348,761.195z"/>
				<path fill="#101010" d="M308.348,761.195c3.213-2.51,8.033-4.219,13.657-4.518c3.414-0.201,6.628,0.199,9.339,1.004
					c0.904,2.912,1.507,5.924,1.406,8.434c-3.013-1.104-6.829-1.707-10.845-1.506c-5.424,0.303-10.144,1.91-13.357,4.318
					c-0.2-0.703-0.301-1.305-0.301-1.906C308.348,765.916,308.348,763.707,308.348,761.195z"/>
				<path fill="#101010" d="M328.733,750.25c0,0-9.038-2.912-20.285,1.707v-8.436c2.008-0.703,4.92-1.508,8.436-1.709
					c3.414-0.199,6.226,0.303,8.234,0.805C325.52,743.32,325.921,744.123,328.733,750.25z"/>
				<path fill="#101010" d="M323.712,761.498c0,0-1.807-13.457-3.214-16.371l-5.423,0.201l1.306,16.771L323.712,761.498z"/>
			</g>
		</g>
		<g>
			<g>
				<path fill="#C6C6C6" d="M335.863,727.756c-0.201,1.203-6.527,1.605-19.382,2.51c-12.553,0.902-18.879,1.305-19.28,0.201
					c0,0-0.101,0-0.101,0.1c-0.201-51.215-0.303-102.432-0.502-153.646c9.539,2.912,19.18,5.924,28.72,8.836
					c3.516,47.301,6.93,94.498,10.444,141.697C335.863,727.555,335.863,727.654,335.863,727.756z"/>
			</g>
		</g>
		<g>
			<g>
				<path fill="#C6C6C6" d="M258.236,576.92c-0.201,51.215-0.301,102.432-0.502,153.646c0,0,0,0-0.102-0.1
					c-0.3,1.104-6.728,0.701-19.28-0.201c-12.854-0.904-19.181-1.307-19.382-2.51c0-0.102,0-0.201,0-0.303
					c3.515-47.299,6.929-94.498,10.444-141.697C239.055,582.844,248.596,579.932,258.236,576.92z"/>
			</g>
		</g>
		<path fill="#C6C6C6" d="M251.91,227.748c8.536,7.632,17.072,15.164,25.608,22.795c9.138-7.632,18.277-15.164,27.415-22.795
			c-6.929-1.808-16.469-3.615-28.019-3.515C266.771,224.433,258.236,226.04,251.91,227.748z"/>
		<path fill="#FFFFFF" d="M278.421,246.226c-3.415-3.616-12.152-11.449-24.704-12.754c-6.126-0.603-11.549,0.603-13.457,1.004
			c-5.222,1.206-9.139,3.113-16.771,6.93c-3.515,1.707-7.633,3.916-12.353,6.627c-0.502,0.603-1.205,1.507-2.108,2.611
			c-5.825,7.733-8.737,15.867-12.152,31.834c-1.606,7.43-3.313,16.67-4.719,27.417c10.242-5.725,20.486-11.449,30.629-17.072
			c18.778,13.254,37.658,26.512,56.438,39.768C279.023,303.867,278.723,275.047,278.421,246.226z"/>
		<path fill="#FFFFFF" d="M277.216,246.226c3.414-3.616,12.151-11.449,24.705-12.754c6.125-0.603,11.548,0.603,13.456,1.004
			c5.223,1.206,9.139,3.113,16.771,6.93c3.515,1.707,7.632,3.916,12.353,6.627c0.803,0.904,1.507,1.708,2.109,2.611
			c7.229,10.143,5.823,22.695,4.519,29.323c9.54,13.255,12.954,25.81,8.234,31.232c-0.804,0.904-2.008,1.807-3.816,2.41
			c-2.31-1.305-4.72-2.912-7.13-4.619c-7.03-5.021-12.453-10.545-16.47-15.465c-17.875,11.949-35.649,23.799-53.525,35.75
			C277.919,301.658,277.518,273.942,277.216,246.226z"/>
		<g>
			<path fill="#C48B65" d="M307.443,231.061c-10.144,4.318-20.285,8.737-30.428,13.056c-10.043-3.917-20.185-7.833-30.328-11.75
				c2.51-1.004,5.021-2.108,7.631-3.314c3.213-1.506,6.327-3.013,9.239-4.519c0.201-1.506,0.401-3.615,0.401-6.126
				c0-1.104,0-2.109,0-2.912l0,0c0-0.502,0-0.904,0-1.205c-0.1-4.721-0.301-9.239-0.602-13.658c0-0.301,0-0.602-0.101-0.903
				c3.415-0.202,7.029-0.502,10.745-1.004l0,0c1.104-0.101,2.31-0.301,3.414-0.402c5.625-0.703,10.947-1.707,15.968-2.711
				c0.301-0.1,0.603-0.1,0.904-0.201c0.201,2.109,0.401,4.217,0.603,6.327c0.1,0.803,0.201,1.506,0.201,2.31
				c0.603,6.527,1.306,13.156,1.909,19.683C300.514,226.241,304.029,228.651,307.443,231.061z"/>
			<path fill="#FFFFFF" d="M249.7,229.053l-12.954,7.432c8.133,10.042,16.168,20.084,24.302,30.026
				c11.447,0.1,22.896,0.201,34.444,0.301c6.93-10.746,13.859-21.591,20.888-32.336c-3.313-1.707-6.729-3.314-10.041-5.021
				c-4.621,1.808-9.643,3.917-14.963,6.729c-4.821,2.511-9.04,5.021-12.855,7.532c-3.515-2.309-7.531-4.72-11.95-7.129
				C260.545,233.371,254.821,230.961,249.7,229.053z"/>
			<path fill="#C6C6C6" d="M316.281,234.476c-10.847,5.625-21.592,11.147-32.437,16.771v62.162l-5.423,5.021v-77.225
				c4.92-3.314,10.745-6.729,17.574-9.842c3.113-1.406,6.126-2.611,8.938-3.615C308.749,229.957,312.565,232.166,316.281,234.476z"
				/>
			<path fill="#C6C6C6" d="M239.959,234.576l33.04,16.671v62.162l5.423,5.021v-77.225c-4.921-3.314-10.745-6.729-17.575-9.842
				c-3.112-1.406-6.125-2.611-8.937-3.615C247.893,229.957,243.976,232.267,239.959,234.576z"/>
			<path fill="#BA7D54" d="M295.493,207.663c-0.1,0.101-0.201,0.201-0.3,0.301c-2.411,2.009-4.418,3.616-5.926,4.72
				c-9.339,7.13-13.858,8.837-17.172,8.737c-3.415,0-6.025-1.004-8.135-2.109l0,0c0-0.502,0-0.904,0-1.205
				c-0.1-4.72-0.301-9.239-0.602-13.658c3.414-0.502,6.929-1.105,10.645-1.808l0,0c1.104-0.101,2.31-0.301,3.414-0.402
				c5.625-0.703,10.947-1.707,15.968-2.712c0.201,0.904,0.402,1.909,0.703,2.913c0.301,1.104,0.603,2.209,0.804,3.213
				C295.091,206.357,295.292,207.06,295.493,207.663z"/>
			<path fill="#CC936D" d="M294.991,201.537c-2.009,3.816-5.021,6.527-7.532,8.837c0,0-6.024,5.121-12.854,7.13
				c-1.104,0.301-2.008,0.502-2.712,0.502c-2.209,0.101-3.916-0.402-4.819-0.603c-4.419-1.306-8.034-4.921-8.938-5.724
				c-1.105-2.511-2.611-6.427-4.017-11.247c-2.209-7.733-1.507-9.239-3.917-21.592c-0.101-0.502-0.201-1.104-0.301-1.506
				c-0.301-1.406-0.502-2.611-0.803-3.716c-0.803-3.816-1.305-6.527-1.406-10.645c-0.201-6.226,0.603-8.937,1.807-11.046
				c2.008-3.615,5.021-5.523,6.929-6.829c1.809-1.205,4.521-2.912,8.336-3.414c1.606-0.201,3.314-0.101,8.335,1.104
				c6.025,1.506,9.039,2.209,10.946,3.213c3.816,2.109,5.322,6.026,9.139,24.705C297.502,192.398,297.502,196.817,294.991,201.537z"
				/>
			<g>
				<g>
					<path fill="#AF7151" d="M262.453,200.332c0.403,0.503,2.311-1.205,5.524-1.908c4.318-0.904,7.531,0.602,7.631,0.1
						c0.101-0.401-2.008-1.707-4.418-2.209c-0.904-0.201-4.318-0.904-6.929,1.104C263.057,198.424,262.053,199.93,262.453,200.332z"
						/>
				</g>
				<path fill="#AF7151" d="M264.061,187.478c0.301,0.301,1.205,1.004,2.411,0.904c1.606-0.101,2.611-1.406,2.812-1.707
					c-1.004,0.201-2.008,0.301-3.013,0.502C265.466,187.277,264.764,187.377,264.061,187.478z"/>
				<g>
					<path fill="#FFFFFF" d="M271.793,177.134c0.603-2.31,2.31-4.017,4.62-4.52c3.313-0.803,5.724,1.708,5.824,1.808
						c-0.302,0.402-2.009,3.113-5.423,3.716C274.404,178.439,272.396,177.436,271.793,177.134z"/>
					<g>
						<path fill="#513328" d="M278.923,174.523c0.402,1.507-0.402,3.113-1.606,3.515c-1.306,0.402-2.612-0.602-3.013-2.108
							c-0.401-1.507,0.401-3.113,1.607-3.515C277.216,172.013,278.622,172.916,278.923,174.523z"/>
						<path d="M277.718,174.925c0.201,0.904-0.201,1.708-0.904,1.908c-0.703,0.201-1.406-0.301-1.606-1.205
							c-0.201-0.804,0.201-1.708,0.903-1.909C276.714,173.519,277.416,174.021,277.718,174.925z"/>
						<path fill="#FFFFFF" d="M278.019,174.121c0.102,0.301-0.099,0.703-0.4,0.804s-0.603-0.101-0.704-0.502
							c-0.1-0.401,0.102-0.703,0.403-0.803C277.618,173.519,277.919,173.719,278.019,174.121z"/>
					</g>
					<path d="M271.793,177.134c0.302-0.603,1.105-2.411,3.113-3.314c2.21-1.104,5.021-0.803,7.231,0.703
						c0.1-0.101,0.2-0.101,0.2-0.201c0.101,0,0.101-0.101,0.101-0.101c-2.209-2.209-5.523-2.812-7.833-1.406
						C272.396,174.121,271.893,176.632,271.793,177.134z"/>
				</g>
				<g>
					<path fill="#FFFFFF" d="M262.354,179.645c-2.009-2.109-5.121-2.611-7.231-1.306c-2.208,1.306-2.41,4.017-2.41,4.318
						c1.004,0.402,2.912,0.904,5.021,0.402C260.345,182.457,261.751,180.649,262.354,179.645z"/>
					<g>
						<path fill="#513328" d="M255.425,181.352c0.603,1.406,2.008,2.108,3.113,1.606s1.506-2.109,0.903-3.515
							c-0.602-1.406-2.008-2.108-3.113-1.606C255.223,178.339,254.821,179.946,255.425,181.352z"/>
						<path d="M255.926,181.151c0.301,0.803,1.104,1.104,1.809,0.803c0.703-0.301,0.903-1.206,0.602-2.009
							c-0.301-0.804-1.104-1.105-1.807-0.804C255.826,179.443,255.625,180.348,255.926,181.151z"/>
						<path fill="#FFFFFF" d="M257.433,179.645c0.099,0.301,0.401,0.502,0.703,0.402c0.201-0.101,0.301-0.502,0.201-0.803
							c-0.1-0.301-0.401-0.502-0.703-0.402C257.433,179.042,257.333,179.343,257.433,179.645z"/>
					</g>
					<path d="M262.354,179.544c-2.009-1.406-4.519-1.607-6.528-0.502c-2.108,1.105-2.711,3.214-2.812,3.716c-0.1,0-0.201,0-0.302,0
						c-0.1,0-0.1,0-0.2,0c-0.101-2.31,1.305-4.419,3.414-5.222C258.236,176.632,260.948,177.436,262.354,179.544z"/>
				</g>
				<path d="M270.89,165.083c0.903-0.201,2.61-0.603,5.624-0.201c4.016,0.402,6.226,1.908,6.627,2.41
					c0.603,0.603,1.004,1.205,1.004,1.205c0.1,0.101,0.1,0.301,0.201,0.401c0.502,1.105,0.703,2.209,0.703,3.114
					c-0.401-0.301-1.104-0.803-2.008-1.406c-3.415-2.008-7.13-2.511-7.13-2.511h0.1c0,0-2.008-0.301-4.218-0.301
					c-0.803,0-1.908,0.101-3.213,0.402c-0.401-0.301-0.703-0.803-0.703-1.305C268.078,165.786,269.885,165.384,270.89,165.083z"/>
				<g>
					<path d="M260.445,173.117c-1.506-0.201-3.615-0.101-5.825,0.602c-2.209,0.804-3.716,2.311-4.82,3.515
						c-0.301-1.406-0.502-2.611-0.803-3.716c0.803-0.803,2.209-2.008,4.419-2.711c2.008-0.603,3.816-0.401,4.519-0.401
						c1.004,0.1,1.807,0.302,2.41,0.502c0.101,0.201,0.201,0.502,0.301,0.804C260.746,172.515,260.545,173.017,260.445,173.117z"/>
				</g>
				<path d="M257.232,197.52c-0.603,1.406-0.502,2.912-0.302,6.125c0.202,3.314,0.704,6.025,1.105,7.934
					c0.703,0.903,6.628,7.632,13.255,7.129c1.708-0.1,4.519-0.903,6.93-1.908c1.506-0.602,2.711-1.305,3.314-1.707
					c0,0,0.2-0.1,0.401-0.301c1.909-1.206,4.92-4.017,5.625-4.72c-0.603-1.707-1.507-4.117-2.712-7.029
					c-2.309-5.523-3.515-8.235-5.322-9.741c-4.118-3.314-9.741-2.31-11.95-2.009C265.868,191.796,259.14,192.9,257.232,197.52z
					 M265.366,201.437c0,0.101-0.201,1.707-1.707,2.51c-0.904,0.502-2.21,0.603-3.013,0.201l0,0l0,0l0,0c0,0-1.004-2.008,0-4.519
					c0.703-1.908,2.31-3.615,4.218-4.318c0.703-0.301,1.607-0.402,2.611-0.603c0.101,0,1.607-0.301,2.51-0.301
					c0.301,0,4.118-0.101,6.428,2.511c1.406,1.606,2.41,4.218,1.707,4.82l0,0c-1.104,1.004-3.113,1.908-5.021,1.306
					c-1.808-0.502-2.511-2.008-2.71-2.31C268.68,201.035,266.972,201.235,265.366,201.437z"/>
			</g>
			<path fill="#AF1919" d="M248.094,165.083c3.716-2.511,5.824-2.611,7.129-2.209c0.603,0.201,2.712,1.004,4.72,0.201l0,0
				c0.803-0.603,2.11-1.406,3.816-1.908c0.502-0.1,1.406-0.401,2.51-0.502c3.716-0.2,4.721,2.109,7.733,1.708
				c1.506-0.201,1.305-0.803,3.616-1.406c1.506-0.301,3.514-0.803,5.322,0.101c1.606,0.803,2.41,2.309,2.913,4.017
				c0.501,1.606,1.003,3.715,1.405,6.729c1.105,6.427,1.909,13.356,2.21,16.168c2.009,17.674,5.925,30.93,13.858,57.542
				c2.61,8.938,5.122,16.369,7.029,21.691c0.301,0.904,0.603,1.708,0.903,2.41c0.402-0.201,5.022-2.611,8.637-3.917
				c0.302-0.1,0.703-0.201,1.004-0.301c2.311-0.703,4.118-0.703,5.424-0.703c3.715,0,8.736,1.104,11.047,1.305
				c3.012,0.302,7.33,0.101,12.854-2.711c-2.108-12.353-5.724-21.39-8.637-27.516c-3.112-6.528-5.523-9.541-9.74-17.976
				c-1.005-2.009-5.424-10.846-9.439-22.194c-7.935-22.395-6.428-31.935-16.169-47.801c-1.908-3.013-3.615-5.423-4.62-6.829
				c-2.61-2.41-7.23-6.025-13.757-8.034c-10.243-3.113-18.88-0.301-21.792,0.703c-3.013,1.004-8.235,2.912-12.856,7.833
				c-2.008,2.108-6.526,6.829-6.929,14.059C245.984,159.861,247.19,163.275,248.094,165.083z"/>
			<g>
				
					<path fill="none" stroke="#000000" stroke-width="5.5627" stroke-linecap="round" stroke-linejoin="round" stroke-miterlimit="10" d="
					M244.98,157.953c8.536-2.611,19.181-5.222,31.534-6.627c11.85-1.306,22.293-1.105,30.93-0.502"/>
				
					<path fill="none" stroke="#000000" stroke-width="5.5627" stroke-linecap="round" stroke-linejoin="round" stroke-miterlimit="10" d="
					M311.26,145.601c-9.642-0.703-21.29-0.904-34.346,0.502c-14.561,1.506-27.013,4.519-36.955,7.531"/>
			</g>
		</g>
		<path fill="#FFFFFF" d="M222.887,292.922c-7.332,142.902-14.762,261.904-22.093,404.807c15.666,4.318,28.419,5.422,36.755,5.824
			c34.043,1.406,41.374-9.238,70.698-4.82c5.222,0.803,11.448,2.109,19.884,2.51c2.511,0.102,4.619,0.102,6.427,0.102
			c0,0,1.707,0,3.515-0.102c6.227-0.301,15.867-1.807,16.671-1.908c-7.331-144.408-14.562-264.916-21.893-409.426
			c-17.976,12.152-35.951,24.305-54.028,36.455C260.144,315.217,241.565,304.068,222.887,292.922z"/>
		<g>
			<path fill="#AF1919" d="M215.958,239.497c-0.101,0.402-0.101,0.904-0.201,1.306l0.1-0.904L215.958,239.497z"/>
		</g>
	</g>
	<path fill="#CC936D" d="M329.536,194.005c-0.803-1.908-1.606-3.715-2.511-5.624c-0.1-2.41-0.2-4.72-0.2-7.13
		c0,0-1.104-8.637-3.515-12.553c-1.306-2.108-1.206-1.004-11.146-9.841c-0.201-0.201-1.909-1.707-4.62-3.314
		c-2.109-1.206-5.223-3.113-6.528-2.008c-0.903,0.803-0.502,2.711-0.401,2.913c0.603,2.51,3.113,3.112,6.227,5.322
		c1.205,0.803,5.725,4.017,7.833,9.038c0.903,2.31,1.908,6.227,0.401,7.331c-0.903,0.603-2.51,0.201-3.515-0.401
		c-2.41-1.506-1.707-4.018-4.82-8.134c-1.205-1.607-2.008-2.209-2.912-2.209c-0.803,0-1.607,0.603-2.009,1.205
		c-0.603,1.004-0.201,2.209,0.202,3.515c0.3,1.104,0.702,1.707,1.305,2.812c1.104,2.008,1.908,3.615,2.108,4.117
		c1.104,2.511,1.205,4.218,1.507,5.825c0.502,2.31,1.707,5.523,5.422,9.239c0.805,2.31,1.708,4.62,2.512,7.03
		C319.695,198.625,324.616,196.315,329.536,194.005z"/>
	<g>
		<g>
			<path fill="#CC936D" d="M287.158,233.371c-2.009,1.808-3.716,3.313-6.829,5.021c-1.205,0.603-3.012,1.406-5.222,2.109
				c-1.004,1.406-2.108,2.912-3.214,4.318c-2.912,3.816-5.823,7.431-8.736,10.746c-3.816-3.214-7.733-6.527-11.55-9.741
				c3.114-4.318,6.227-8.637,9.34-13.055l0,0c-1.004-4.519-0.402-7.633,0.101-10.444c0.101-0.603,0.501-2.108,0.401-4.017
				c-0.101-1.808-0.703-3.314-1.104-4.218c-0.201-0.101-1.205-1.004-1.406-2.41c-0.1-0.703,0.101-1.305,0.502-1.707
				c0.803-0.703,2.913,0.301,4.118,1.205c3.313,2.611,3.113,7.732,3.013,9.239c3.815-5.523,7.933-7.431,10.143-8.234
				c1.606-0.603,4.921-1.808,6.327-0.201c1.004,1.205,0.401,3.314,0.201,3.917c1.606,0.301,2.712,1.606,2.811,2.912
				c0.101,1.105-0.703,2.009-0.903,2.21c0.502,0.1,1.306,0.401,2.009,1.104c0.3,0.301,1.406,1.406,1.205,2.912
				c-0.201,0.904-0.703,1.507-1.004,1.707c0.301,0,0.903,0.101,1.405,0.603c0.803,0.803,0.603,2.209,0.502,2.611
				C289.066,231.563,288.162,232.467,287.158,233.371z"/>
		</g>
	</g>
	<path fill="#BA7D54" d="M282.74,216.299c-2.311,1.206-4.118,2.41-6.226,4.018C277.518,218.006,280.128,216.199,282.74,216.299
		L282.74,216.299z"/>
	<path fill="#BA7D54" d="M287.258,226.743c-2.31,1.206-4.117,2.411-6.226,4.018C282.037,228.45,284.647,226.743,287.258,226.743
		L287.258,226.743z"/>
	<path fill="#BA7D54" d="M285.049,221.22c-2.51,0.804-4.519,1.708-6.828,2.913C279.626,221.923,282.438,220.617,285.049,221.22
		L285.049,221.22z"/>
	<path fill="#EAEAEA" d="M254.119,230.861c9.239,5.924,18.478,11.95,27.716,17.875c-20.988,26.914-42.077,53.727-63.065,80.639
		c-6.326,3.717-14.36,3.314-20.084-1.104c-5.523-4.219-8.034-11.348-6.427-18.176C212.844,283.583,233.432,257.272,254.119,230.861z
		"/>
	<path fill="#FFFFFF" d="M333.152,189.285c-3.114,0.301-7.231,1.105-11.75,3.013c-5.725,2.41-9.842,5.523-12.452,7.934
		c9.139,25.307,18.277,50.713,27.415,76.021c3.816,10.544,7.934,21.992,11.649,32.537c9.239,8.234,21.39,9.539,29.123,4.018
		c0.502-0.303,0.902-0.703,0.902-0.703c0.403-0.904,1.105-2.311,1.708-4.117c5.824-16.471,0.301-33.441-13.857-61.862
		C358.057,230.559,347.412,211.078,333.152,189.285z"/>
</g>
</svg>
