<?xml version="1.0" encoding="utf-8"?>
<!-- Generator: Adobe Illustrator 16.0.0, SVG Export Plug-In . SVG Version: 6.00 Build 0)  -->
<!DOCTYPE svg PUBLIC "-//W3C//DTD SVG 1.1//EN" "http://www.w3.org/Graphics/SVG/1.1/DTD/svg11.dtd">
<svg version="1.1" xmlns="http://www.w3.org/2000/svg" xmlns:xlink="http://www.w3.org/1999/xlink" x="0px" y="0px" width="176px"
	 height="159px" viewBox="0 0 176 159" enable-background="new 0 0 176 159" xml:space="preserve">
<g id="Layer_1">
	<path fill="#7382EF" d="M84.5,159c19.055,0,34.5-2.686,34.5-6s-15.445-6-34.5-6c-19.054,0-34.5,2.686-34.5,6S65.446,159,84.5,159z"
		/>
	<path fill="#FDFFFC" d="M124.953,8.053c0.425,3.529-2.076,7.634-6.428,9.779c-2.373,1.171-5.17,1.148-7.484-0.132
		c-3.201-1.773-5.305-4.892-5.495-8.282c-0.179-3.18,1.325-6.628,4.095-8.289C115.036-2.104,124.229,2.041,124.953,8.053z"/>
	<path fill="#AEB4FC" d="M112.6,8.44c0.359,1.112,0.793,2.198,1.299,3.25c0.252,0.527,0.524,1.047,0.814,1.555
		c0.235,0.413,0.494,0.816,0.814,1.168c0.584,0.638,1.437,1.051,2.289,0.7c0.797-0.329,1.324-1.165,1.5-1.983
		c0.205-0.94,0.014-1.964-0.441-2.804c-0.471-0.866-1.238-1.528-2.156-1.884c-0.917-0.355-2-0.406-2.919-0.027
		c-0.991,0.409-1.479,1.336-1.835,2.292c-0.38,1.02-0.605,2.182-0.279,3.248c0.256,0.832,0.861,1.59,1.688,1.911
		c0.204,0.08,0.419,0.124,0.639,0.143c0.1,0.008,0.107-0.12,0.047-0.167c-0.515-0.39-1.025-0.78-1.537-1.169
		c0,0.052,0,0.104,0,0.156c1.166-0.501,2.315-1.194,3.047-2.262c0.621-0.909,0.822-2.094,0.431-3.137
		c-0.206-0.547-0.572-1.015-1.082-1.306c-0.039-0.022-0.104-0.013-0.124,0.031c-0.747,1.664-0.217,3.723,1.111,4.937
		c0.373,0.341,0.804,0.605,1.277,0.782c0.016-0.058,0.03-0.115,0.049-0.174c-0.924-0.327-1.851-0.652-2.771-0.979
		c-0.803-0.284-1.637-0.528-2.412-0.887c-0.622-0.288-1.261-0.716-1.441-1.418c-0.205-0.796,0.256-1.606,0.861-2.094
		c0.655-0.529,1.496-0.801,2.292-1.04c0.89-0.266,1.81-0.454,2.739-0.481c1.554-0.046,3.15,0.4,4.283,1.503
		c0.265,0.256,0.498,0.544,0.687,0.861c0.188,0.315,0.509,0.836,0.188,1.162c-0.26,0.265-0.719,0.317-1.061,0.402
		c-0.455,0.114-0.914,0.223-1.377,0.315c-1.666,0.333-3.451,0.421-4.996-0.401c-0.631-0.336-1.191-0.81-1.57-1.418
		c-0.225-0.362-0.412-0.785-0.402-1.217c0.009-0.377,0.193-0.713,0.459-0.971c0.949-0.922,2.615-0.988,3.764-0.435
		c0.56,0.27,1.039,0.714,1.25,1.309c0.24,0.678,0.101,1.411-0.257,2.022c-0.866,1.487-2.596,1.896-4.198,1.977
		c-0.425,0.021-0.848,0.024-1.271,0.026c-0.032,0-0.062,0.018-0.078,0.045c-0.298,0.525,0.206,1.055,0.61,1.342
		c0.578,0.409,1.209,0.743,1.867,1.004c0.646,0.256,1.328,0.442,2.02,0.536c0.641,0.088,1.367,0.086,1.923-0.291
		c0.501-0.341,0.838-0.973,0.642-1.578c-0.015-0.046-0.062-0.077-0.108-0.063c-0.448,0.131-0.828,0.393-1.194,0.675
		c-0.389,0.3-0.771,0.596-1.203,0.835c-0.855,0.477-1.83,0.77-2.816,0.742c-1.711-0.049-3.479-1.298-3.625-3.102
		c-0.039-0.484,0.045-0.995,0.312-1.407c0.267-0.415,0.71-0.661,1.183-0.771c0.934-0.216,1.912,0.069,2.714,0.549
		c0.411,0.246,0.79,0.545,1.137,0.878c0.315,0.306,0.582,0.679,0.938,0.943c0.389,0.292,0.814,0.291,1.269,0.156
		c0.511-0.153,1.015-0.341,1.51-0.539c0.987-0.393,1.966-0.85,2.875-1.4c0.351-0.213,0.679-0.487,0.78-0.903
		c0.1-0.406-0.027-0.825-0.211-1.188c-0.203-0.408-0.491-0.769-0.781-1.119c-0.277-0.334-0.579-0.658-0.945-0.896
		c-0.379-0.246-0.813-0.363-1.265-0.33c-0.522,0.039-1.013,0.234-1.511,0.384c-0.414,0.124-0.855,0.205-1.287,0.126
		c-0.227-0.04-1.09-0.384-0.582-0.638c0.167-0.083,0.357-0.085,0.537-0.073c0.246,0.016,0.49,0.05,0.729,0.102
		c0.437,0.092,0.857,0.238,1.258,0.434c1.648,0.805,2.789,2.397,2.884,4.245c0.05,0.93-0.159,1.876-0.634,2.683
		c-0.441,0.75-1.112,1.347-1.894,1.728c-0.769,0.377-1.649,0.544-2.501,0.435c-0.398-0.052-1-0.14-1.012-0.649
		c-0.008-0.382,0.277-0.746,0.633-0.86c0.525-0.17,1.094,0.032,1.591,0.208c0.11,0.039,0.151-0.129,0.048-0.174
		c-1.199-0.5-2.451-0.857-3.668-1.308c-1.191-0.442-2.382-0.985-3.32-1.86c-1.07-1-1.631-2.352-1.974-3.75
		c-0.274-1.119-0.813-3.011,0.455-3.737c0.55-0.314,1.231-0.238,1.813-0.066c0.676,0.199,1.291,0.559,1.883,0.93
		c0.662,0.417,1.309,0.877,1.893,1.397c0.293,0.259,0.543,0.56,0.586,0.963c0.043,0.392-0.082,0.791-0.259,1.136
		c-0.534,1.042-1.606,1.732-2.745,1.934c-0.57,0.101-1.169,0.076-1.725-0.094c-0.135-0.042-0.271-0.091-0.398-0.149
		c-0.152-0.069-0.3-0.157-0.467-0.18c-0.279-0.038-0.512,0.158-0.674,0.366c-0.332,0.425-0.37,1.007-0.23,1.512
		c0.158,0.572,0.539,1.021,1.039,1.335c0.557,0.352,1.213,0.521,1.855,0.641c0.791,0.147,1.594,0.25,2.396,0.314
		c0.801,0.063,1.633,0.117,2.435,0.039c0.67-0.065,1.219-0.357,1.495-0.992c0.486-1.121,0.189-2.51-0.526-3.462
		c-0.394-0.52-0.894-0.877-1.474-1.159c-0.618-0.3-1.481-0.699-1.493-1.508c-0.011-0.729,0.832-1.05,1.391-1.274
		c0.654-0.264,1.328-0.488,2.023-0.606c0.69-0.117,1.42-0.118,2.088,0.117c0.672,0.236,1.215,0.713,1.596,1.306
		c0.365,0.567,0.607,1.226,0.728,1.888c0.117,0.648,0.109,1.381-0.25,1.956c-0.742,1.192-2.412,0.884-3.479,0.376
		c-0.672-0.323-1.304-0.734-1.865-1.224c-0.273-0.237-0.539-0.492-0.773-0.771c-0.24-0.288-0.463-0.655-0.354-1.045
		c0.096-0.333,0.377-0.582,0.655-0.771c0.302-0.204,0.631-0.374,0.965-0.518c0.705-0.304,1.5-0.479,2.269-0.363
		c1.258,0.19,2.453,1.201,2.277,2.569c-0.072,0.575-0.382,1.11-0.896,1.391c-0.102,0.055-0.012,0.21,0.093,0.155
		c1.065-0.58,1.276-2.075,0.633-3.042c-0.793-1.194-2.356-1.483-3.669-1.142c-1.063,0.276-3.236,1.221-2.291,2.641
		c0.409,0.613,1.038,1.125,1.633,1.548c0.586,0.416,1.229,0.782,1.918,1.001c0.601,0.191,1.271,0.284,1.89,0.122
		c0.59-0.154,1.069-0.566,1.307-1.133c0.254-0.615,0.222-1.318,0.084-1.957c-0.146-0.674-0.407-1.344-0.805-1.908
		c-0.396-0.563-0.937-1.005-1.584-1.241c-0.66-0.239-1.377-0.25-2.065-0.15c-0.756,0.109-1.488,0.353-2.195,0.639
		c-0.541,0.219-1.217,0.479-1.436,1.076c-0.242,0.657,0.252,1.296,0.778,1.635c0.334,0.213,0.702,0.358,1.051,0.545
		c0.308,0.166,0.588,0.373,0.83,0.624c0.478,0.492,0.803,1.125,0.938,1.795c0.135,0.666,0.101,1.458-0.269,2.048
		c-0.468,0.75-1.438,0.69-2.211,0.683c-0.89-0.009-1.774-0.077-2.655-0.193c-1.332-0.177-3.281-0.38-3.838-1.845
		c-0.219-0.572-0.193-1.331,0.335-1.731c0.326-0.25,0.712,0.073,1.041,0.186c0.274,0.094,0.562,0.153,0.851,0.179
		c1.177,0.109,2.4-0.323,3.248-1.144c0.451-0.438,0.828-1.017,0.944-1.642c0.063-0.341,0.041-0.695-0.118-1.009
		c-0.164-0.321-0.453-0.559-0.726-0.785c-0.621-0.515-1.28-0.983-1.974-1.398c-0.604-0.363-1.235-0.697-1.932-0.851
		c-0.58-0.128-1.236-0.133-1.751,0.206c-0.532,0.35-0.764,0.952-0.796,1.568c-0.038,0.7,0.127,1.407,0.284,2.084
		c0.17,0.739,0.387,1.472,0.707,2.16c0.594,1.275,1.571,2.245,2.789,2.929c1.187,0.666,2.495,1.073,3.774,1.506
		c0.631,0.213,1.258,0.432,1.873,0.687c0.017-0.058,0.031-0.115,0.047-0.174c-0.494-0.174-1.033-0.353-1.563-0.239
		c-0.37,0.08-0.668,0.33-0.813,0.681c-0.125,0.306-0.105,0.676,0.153,0.904c0.316,0.281,0.866,0.317,1.271,0.337
		c1.793,0.087,3.58-0.942,4.387-2.549c0.848-1.696,0.638-3.829-0.52-5.331c-0.558-0.725-1.305-1.298-2.142-1.667
		c-0.42-0.186-0.862-0.322-1.315-0.4c-0.377-0.065-0.836-0.153-1.189,0.03c-0.129,0.066-0.242,0.179-0.257,0.33
		c-0.019,0.171,0.151,0.296,0.276,0.389c0.325,0.238,0.75,0.299,1.146,0.279c1.045-0.056,2.064-0.835,3.113-0.422
		c0.471,0.184,0.839,0.554,1.162,0.929c0.33,0.382,0.653,0.784,0.877,1.239c0.234,0.479,0.324,1.058-0.072,1.48
		c-0.176,0.186-0.398,0.314-0.617,0.439c-0.252,0.144-0.506,0.281-0.766,0.415c-1.043,0.539-2.129,0.994-3.245,1.354
		c-0.288,0.094-0.601,0.195-0.901,0.112c-0.253-0.069-0.457-0.245-0.637-0.428c-0.352-0.358-0.676-0.735-1.063-1.057
		c-0.734-0.604-1.609-1.067-2.566-1.162c-0.92-0.092-1.963,0.187-2.418,1.06c-0.414,0.795-0.303,1.78,0.101,2.554
		c0.404,0.774,1.099,1.391,1.896,1.741c1.877,0.824,3.977,0.061,5.498-1.127c0.408-0.318,0.817-0.646,1.322-0.792
		c-0.037-0.021-0.074-0.042-0.111-0.063c0.166,0.517-0.111,1.059-0.538,1.361c-0.493,0.352-1.147,0.366-1.729,0.298
		c-1.191-0.142-2.365-0.572-3.395-1.19c-0.413-0.248-1.424-0.818-1.072-1.437c-0.025,0.015-0.053,0.03-0.077,0.045
		c1.726-0.009,3.712-0.039,5.026-1.331c0.529-0.521,0.923-1.211,0.99-1.959c0.063-0.687-0.196-1.367-0.688-1.849
		c-0.97-0.952-2.613-1.132-3.841-0.635c-0.647,0.262-1.299,0.759-1.403,1.495c-0.109,0.788,0.411,1.607,0.94,2.146
		c1.198,1.217,2.976,1.585,4.625,1.467c1.039-0.073,2.058-0.311,3.063-0.563c0.358-0.089,0.801-0.154,1.071-0.432
		c0.283-0.289,0.188-0.675,0.035-1.006c-0.656-1.433-2.125-2.366-3.632-2.686c-1.879-0.397-3.924,0.038-5.672,0.761
		c-0.771,0.319-1.521,0.791-1.903,1.563c-0.341,0.69-0.31,1.485,0.188,2.087c0.476,0.572,1.211,0.868,1.894,1.113
		c0.998,0.36,2,0.707,3,1.061c0.495,0.176,0.991,0.35,1.487,0.526c0.107,0.039,0.154-0.134,0.047-0.174
		c-1.618-0.602-2.646-2.343-2.603-4.04c0.015-0.487,0.12-0.969,0.32-1.414c-0.042,0.01-0.082,0.021-0.124,0.032
		c0.911,0.519,1.271,1.605,1.178,2.608c-0.107,1.171-0.878,2.134-1.801,2.807c-0.548,0.399-1.15,0.713-1.771,0.979
		c-0.067,0.03-0.045,0.12,0,0.156c0.515,0.39,1.025,0.78,1.539,1.169c0.017-0.056,0.029-0.112,0.045-0.167
		c-0.873-0.072-1.584-0.7-1.965-1.461c-0.465-0.926-0.386-2.018-0.109-2.987c0.259-0.914,0.656-2.001,1.479-2.554
		c0.788-0.532,1.848-0.595,2.747-0.37c1.858,0.46,3.156,2.205,3.05,4.121c-0.046,0.835-0.426,1.718-1.137,2.196
		c-0.755,0.507-1.627,0.281-2.251-0.317c-0.349-0.334-0.623-0.739-0.867-1.153c-0.297-0.506-0.569-1.027-0.827-1.554
		c-0.529-1.084-0.979-2.208-1.353-3.355C112.738,8.284,112.566,8.331,112.6,8.44z"/>
	<defs>
		<filter id="Adobe_OpacityMaskFilter" filterUnits="userSpaceOnUse" x="-23.727" y="-37.368" width="190.727" height="141.368">
			<feColorMatrix  type="matrix" values="1 0 0 0 0  0 1 0 0 0  0 0 1 0 0  0 0 0 1 0"/>
		</filter>
	</defs>
	<mask maskUnits="userSpaceOnUse" x="-23.727" y="-37.368" width="190.727" height="141.368" id="mask0_362_221_1_">
		<rect fill="#FA6E5A" filter="url(#Adobe_OpacityMaskFilter)" width="176" height="114"/>
	</mask>
	<g mask="url(#mask0_362_221_1_)">
		<path fill="#808AFF" d="M12.773,35.447c-25.5,4.38-32-10.584-36.5-19.162v-53.653h88v98h-15.5
			C40.44,50.047,38.273,31.067,12.773,35.447z"/>
		<path fill="#808AFF" d="M115.773,35.447c25.5,4.38,32-10.584,36.5-19.162v-53.653h-88v98h15.5
			C88.106,50.047,90.273,31.067,115.773,35.447z"/>
		<g>
			<g>
				<g>
					<defs>
						<rect id="SVGID_1_" x="150" y="44" width="14" height="17"/>
					</defs>
					<clipPath id="SVGID_2_">
						<use xlink:href="#SVGID_1_"  overflow="visible"/>
					</clipPath>
					<g clip-path="url(#SVGID_2_)">
						<path fill="#9BA3FF" d="M153.387,44H150v17h3.387V44z"/>
						<path fill="#9BA3FF" d="M158.693,49.714h-3.387V61h3.387V49.714z"/>
						<path fill="#9BA3FF" d="M164.007,55.1h-3.386V61h3.386V55.1z"/>
					</g>
				</g>
			</g>
		</g>
		<g>
			<g>
				<g>
					<defs>
						<rect id="SVGID_3_" x="135" y="78" width="32" height="26"/>
					</defs>
					<clipPath id="SVGID_4_">
						<use xlink:href="#SVGID_3_"  overflow="visible"/>
					</clipPath>
					<g clip-path="url(#SVGID_4_)">
						<path fill="#3F4553" d="M154.99,103.955l11.145-3.734l-5.587-16.4l-11.146,3.736c-0.438,0.146-0.674,0.614-0.522,1.047
							l5.054,14.83C154.08,103.866,154.553,104.102,154.99,103.955z"/>
						<path fill="#DDDDE3" d="M154.998,103.631l11.423-3.828l-5.383-15.797l-11.423,3.829c-0.282,0.093-0.434,0.396-0.34,0.681
							l5.037,14.78C154.41,103.575,154.716,103.725,154.998,103.631z"/>
						<path fill="#E2E5FF" d="M155.238,103.551l11.424-3.828l-5.383-15.797l-11.424,3.828c-0.281,0.094-0.435,0.396-0.338,0.68
							l5.033,14.781C154.65,103.494,154.957,103.648,155.238,103.551z"/>
						<path fill="#4E5567" d="M155.855,103.664L167,99.928l-5.587-16.396l-11.146,3.735c-0.438,0.146-0.676,0.613-0.522,1.049
							l5.053,14.83C154.945,103.579,155.418,103.809,155.855,103.664z"/>
						<path fill="#3F4553" d="M160.789,83.742l-0.24,0.08l5.588,16.4l0.239-0.08L160.789,83.742z"/>
						<path fill="#93BFA8" d="M162.381,96.553l0.249-0.525l0.522,0.268l-4.082-11.977c-0.073-0.211-0.256-0.193-0.469-0.12
							c-0.213,0.071-0.371,0.17-0.297,0.38L162.381,96.553z"/>
						<path fill="#3F4553" d="M137.338,88.09l7.502-8.82l-1.517-1.268l-7.501,8.82L137.338,88.09z"/>
						<path fill="#F2EDE4" d="M135.82,86.818l1.515,1.268l-2.188,1.193c-0.07,0.041-0.17-0.045-0.146-0.121L135.82,86.818z"/>
						<path fill="#3F4553" d="M135.15,89.283l0.593-0.323l-0.515-0.433l-0.222,0.631C134.98,89.234,135.078,89.32,135.15,89.283z"/>
						<path fill="#4E5567" d="M136.836,87.67l7.501-8.82l-0.515-0.431l-7.502,8.82L136.836,87.67z"/>
					</g>
				</g>
			</g>
		</g>
		<g>
			<g>
				<g>
					<defs>
						<rect id="SVGID_5_" x="37" y="3" width="35" height="35"/>
					</defs>
					<clipPath id="SVGID_6_">
						<use xlink:href="#SVGID_5_"  overflow="visible"/>
					</clipPath>
					<g clip-path="url(#SVGID_6_)">
						<path fill="#808AFF" d="M54.503,3C44.833,3,37,10.833,37,20.503c0,9.664,7.833,17.502,17.503,17.502
							c9.664,0,17.502-7.833,17.502-17.502C72,10.833,64.167,3,54.503,3z M54.503,35.045c-8.032,0-14.542-6.511-14.542-14.542
							c0-8.032,6.51-14.542,14.542-14.542c8.032,0,14.542,6.51,14.542,14.542C69.045,28.535,62.535,35.045,54.503,35.045z"/>
						<path fill="#AEB4FC" d="M67.921,26.11c3.099-7.41-0.396-15.929-7.807-19.027c-7.41-3.099-15.929,0.396-19.027,7.806
							c-3.099,7.41,0.396,15.929,7.806,19.027S64.822,33.52,67.921,26.11z"/>
						<path fill="#808AFF" d="M54.531,7.262c-1.021,0-1.025,1.587,0,1.587C55.556,8.849,55.557,7.262,54.531,7.262z"/>
						<path fill="#808AFF" d="M67.738,20.53c0-1.021-1.588-1.025-1.588,0C66.15,21.555,67.738,21.555,67.738,20.53z"/>
						<path fill="#808AFF" d="M54.469,33.738c1.021,0,1.025-1.587,0-1.587C53.449,32.151,53.443,33.738,54.469,33.738z"/>
						<path fill="#808AFF" d="M41.262,20.47c0,1.021,1.588,1.025,1.588,0C42.85,19.45,41.262,19.444,41.262,20.47z"/>
						<path fill="#808AFF" d="M60.754,24.753c-0.094,0-0.188-0.022-0.27-0.077l-6.257-3.721c-0.16-0.093-0.259-0.27-0.259-0.458v-10
							c0-0.292,0.237-0.529,0.529-0.529s0.529,0.237,0.529,0.529V20.2l5.998,3.566c0.254,0.149,0.336,0.474,0.182,0.728
							C61.113,24.659,60.937,24.753,60.754,24.753z"/>
					</g>
				</g>
			</g>
		</g>
		<path fill="#9BA3FF" d="M19.621,56.407l-0.349-1.981l-2.025,0.345c-0.321-0.925-0.845-1.739-1.522-2.402l1.187-1.664l-1.662-1.153
			l-1.18,1.657c-0.852-0.414-1.802-0.642-2.793-0.635l-0.356-2.008L8.915,48.91l0.349,2.002c-0.936,0.317-1.76,0.835-2.43,1.505
			l-1.683-1.173l-1.166,1.643l1.676,1.167c-0.419,0.842-0.649,1.781-0.643,2.761L3,57.159l0.349,1.981l2.025-0.345
			c0.321,0.925,0.845,1.739,1.522,2.402L5.709,62.86l1.662,1.153l1.18-1.657c0.852,0.414,1.802,0.642,2.793,0.635L11.701,65
			l2.004-0.345l-0.349-2.002c0.936-0.317,1.76-0.835,2.43-1.505l1.683,1.174l1.167-1.643l-1.676-1.167
			c0.419-0.842,0.649-1.781,0.643-2.761L19.621,56.407z M11.632,58.622c-1.027,0.18-2.004-0.504-2.186-1.519
			c-0.182-1.015,0.51-1.981,1.536-2.16c1.027-0.18,2.004,0.504,2.186,1.519C13.35,57.477,12.665,58.443,11.632,58.622z"/>
		<path fill="#AEB4FC" d="M38.728,52.41v-2.492h-2.549c-0.188-1.201-0.656-2.305-1.341-3.258l1.809-1.788l-1.781-1.76l-1.802,1.781
			c-0.957-0.683-2.067-1.16-3.282-1.36V41h-2.521v2.52c-1.215,0.187-2.339,0.649-3.296,1.325l-1.809-1.788l-1.781,1.76l1.802,1.781
			c-0.691,0.946-1.173,2.043-1.375,3.245h-2.563v2.492h2.549c0.188,1.201,0.657,2.306,1.341,3.258l-1.809,1.788l1.781,1.76
			l1.802-1.781c0.957,0.684,2.067,1.16,3.282,1.36v2.533h2.521v-2.52c1.215-0.186,2.333-0.649,3.296-1.325l1.809,1.788l1.781-1.76
			l-1.802-1.781c0.691-0.945,1.173-2.043,1.376-3.244L38.728,52.41L38.728,52.41z M28.483,53.445c-1.292,0-2.346-1.036-2.346-2.319
			c0-1.277,1.047-2.319,2.346-2.319c1.292,0,2.347,1.036,2.347,2.319C30.822,52.403,29.775,53.445,28.483,53.445z"/>
		<g opacity="0.3">
			<path fill="#ECECEC" d="M156.995,33.897l-18.729-4.209c-0.184-0.04-0.3-0.223-0.257-0.407l2.358-10.5
				c0.04-0.183,0.224-0.3,0.406-0.257l18.729,4.213c0.186,0.04,0.3,0.224,0.257,0.407l-2.36,10.5
				C157.357,33.824,157.178,33.94,156.995,33.897z"/>
			<path fill="#F5F4F5" d="M138.318,29.441c-0.049-0.01-0.08-0.06-0.065-0.107l2.36-10.5c0.011-0.05,0.061-0.08,0.105-0.067
				l18.729,4.213c0.05,0.01,0.077,0.06,0.065,0.107l-2.363,10.5c-0.01,0.05-0.059,0.08-0.104,0.067L138.318,29.441z"/>
			<path fill="#706F6E" d="M156.867,22.141l-13.453-3.025l-0.055,0.244l13.453,3.025L156.867,22.141z"/>
			<path fill="#585857" d="M142.105,20.625l-0.621-0.14c-0.076-0.017-0.127-0.093-0.109-0.173l0.096-0.437
				c0.02-0.077,0.094-0.126,0.174-0.11l0.621,0.14c0.076,0.017,0.127,0.094,0.109,0.174l-0.096,0.437
				C142.259,20.592,142.182,20.642,142.105,20.625z"/>
			<path fill="#5E5E5D" d="M141.512,20.361c-0.011-0.003-0.018-0.013-0.014-0.023l0.096-0.437c0.004-0.01,0.014-0.017,0.024-0.014
				l0.62,0.14c0.01,0.003,0.017,0.014,0.014,0.023l-0.098,0.437c-0.002,0.01-0.012,0.017-0.022,0.013L141.512,20.361z"/>
			<path fill="#585857" d="M143.242,20.878l-0.62-0.14c-0.077-0.017-0.127-0.093-0.11-0.173l0.098-0.437
				c0.018-0.077,0.095-0.126,0.175-0.11l0.618,0.14c0.076,0.017,0.129,0.093,0.109,0.173l-0.096,0.437
				C143.396,20.849,143.318,20.896,143.242,20.878z"/>
			<path fill="#5E5E5D" d="M142.648,20.618c-0.01-0.003-0.019-0.013-0.016-0.023l0.1-0.437c0.002-0.01,0.013-0.017,0.021-0.013
				l0.621,0.14c0.011,0.003,0.019,0.013,0.015,0.023l-0.099,0.437c-0.003,0.01-0.015,0.017-0.021,0.013L142.648,20.618z"/>
			<path fill="#585857" d="M144.38,21.135l-0.621-0.14c-0.075-0.017-0.126-0.093-0.11-0.173l0.1-0.438
				c0.02-0.077,0.093-0.126,0.174-0.11l0.62,0.14c0.077,0.017,0.127,0.093,0.108,0.173l-0.098,0.437
				C144.533,21.102,144.457,21.152,144.38,21.135z"/>
			<path fill="#5E5E5D" d="M143.786,20.872c-0.011-0.003-0.017-0.014-0.013-0.023l0.097-0.437c0.003-0.01,0.013-0.017,0.022-0.013
				l0.621,0.14c0.01,0.003,0.016,0.014,0.014,0.023l-0.098,0.437c-0.005,0.01-0.015,0.017-0.022,0.013L143.786,20.872z"/>
			<path fill="#585857" d="M145.518,21.389l-0.621-0.14c-0.076-0.017-0.127-0.093-0.107-0.173l0.097-0.437
				c0.019-0.077,0.095-0.127,0.175-0.11l0.619,0.14c0.076,0.017,0.129,0.094,0.109,0.174l-0.098,0.438
				C145.671,21.359,145.594,21.409,145.518,21.389z"/>
			<path fill="#5E5E5D" d="M144.924,21.128c-0.01-0.003-0.017-0.013-0.014-0.023l0.097-0.437c0.003-0.01,0.013-0.017,0.022-0.014
				l0.621,0.14c0.011,0.003,0.017,0.014,0.014,0.023l-0.098,0.437c-0.002,0.01-0.012,0.017-0.022,0.013L144.924,21.128z"/>
			<path fill="#585857" d="M146.65,21.646l-0.619-0.14c-0.077-0.017-0.127-0.093-0.11-0.173l0.097-0.437
				c0.019-0.077,0.094-0.126,0.174-0.11l0.619,0.14c0.078,0.017,0.127,0.093,0.11,0.173l-0.096,0.437
				C146.809,21.616,146.73,21.662,146.65,21.646z"/>
			<path fill="#5E5E5D" d="M146.061,21.386c-0.01-0.003-0.017-0.014-0.013-0.023l0.097-0.437c0.004-0.01,0.016-0.017,0.023-0.013
				l0.62,0.14c0.01,0.003,0.017,0.014,0.014,0.023l-0.097,0.437c-0.003,0.01-0.014,0.017-0.023,0.013L146.061,21.386z"/>
			<path fill="#585857" d="M147.789,21.902l-0.621-0.14c-0.076-0.017-0.126-0.093-0.109-0.173l0.096-0.437
				c0.02-0.077,0.096-0.127,0.177-0.11l0.62,0.14c0.074,0.017,0.127,0.094,0.107,0.174l-0.097,0.437
				C147.945,21.869,147.869,21.919,147.789,21.902z"/>
			<path fill="#5E5E5D" d="M147.198,21.639c-0.011-0.003-0.017-0.013-0.013-0.023l0.097-0.437c0.003-0.01,0.013-0.017,0.022-0.014
				l0.618,0.14c0.013,0.003,0.019,0.014,0.017,0.023l-0.1,0.437c-0.003,0.01-0.013,0.017-0.021,0.013L147.198,21.639z"/>
			<path fill="#585857" d="M148.926,22.156l-0.619-0.141c-0.078-0.017-0.127-0.093-0.111-0.173l0.1-0.437
				c0.018-0.077,0.096-0.126,0.173-0.11l0.62,0.14c0.077,0.017,0.127,0.093,0.107,0.173l-0.096,0.437
				C149.083,22.126,149.003,22.176,148.926,22.156z"/>
			<path fill="#5E5E5D" d="M148.336,21.896c-0.01-0.003-0.018-0.014-0.014-0.023l0.097-0.437c0.003-0.01,0.015-0.017,0.024-0.013
				l0.619,0.14c0.011,0.003,0.018,0.013,0.014,0.023l-0.096,0.437c-0.004,0.01-0.017,0.017-0.024,0.014L148.336,21.896z"/>
			<path fill="#585857" d="M150.064,22.413l-0.621-0.14c-0.076-0.017-0.127-0.094-0.11-0.173l0.097-0.437
				c0.02-0.077,0.094-0.127,0.174-0.11l0.621,0.14c0.076,0.017,0.127,0.093,0.109,0.173l-0.098,0.437
				C150.217,22.383,150.141,22.43,150.064,22.413z"/>
			<path fill="#5E5E5D" d="M149.473,22.152c-0.01-0.003-0.016-0.013-0.013-0.023l0.097-0.437c0.004-0.01,0.014-0.017,0.023-0.014
				l0.62,0.14c0.01,0.003,0.017,0.013,0.014,0.023l-0.097,0.437c-0.004,0.01-0.014,0.017-0.023,0.013L149.473,22.152z"/>
			<path fill="#585857" d="M151.201,22.669l-0.62-0.14c-0.077-0.017-0.127-0.093-0.11-0.173l0.098-0.437
				c0.018-0.077,0.095-0.126,0.175-0.11l0.618,0.14c0.076,0.017,0.129,0.093,0.111,0.173l-0.098,0.437
				C151.355,22.636,151.277,22.687,151.201,22.669z"/>
			<path fill="#5E5E5D" d="M150.607,22.406c-0.01-0.003-0.019-0.014-0.016-0.023l0.1-0.437c0.002-0.01,0.013-0.017,0.021-0.013
				l0.62,0.14c0.01,0.003,0.02,0.013,0.016,0.023l-0.099,0.437c-0.003,0.01-0.015,0.017-0.021,0.014L150.607,22.406z"/>
			<path fill="#585857" d="M152.338,22.923l-0.62-0.14c-0.077-0.017-0.127-0.094-0.11-0.173l0.1-0.437
				c0.018-0.077,0.093-0.127,0.173-0.11l0.621,0.14c0.076,0.017,0.126,0.093,0.108,0.173l-0.098,0.437
				C152.492,22.893,152.415,22.943,152.338,22.923z"/>
			<path fill="#5E5E5D" d="M151.745,22.663c-0.011-0.003-0.017-0.013-0.015-0.023l0.098-0.437c0.003-0.01,0.014-0.017,0.023-0.013
				l0.621,0.14c0.01,0.003,0.016,0.013,0.012,0.023l-0.096,0.437c-0.006,0.01-0.016,0.017-0.023,0.013L151.745,22.663z"/>
			<path fill="#585857" d="M153.477,23.18l-0.621-0.14c-0.076-0.017-0.127-0.094-0.108-0.174l0.097-0.437
				c0.02-0.077,0.096-0.126,0.176-0.11l0.621,0.14c0.074,0.017,0.127,0.093,0.107,0.173l-0.1,0.437
				C153.629,23.15,153.553,23.197,153.477,23.18z"/>
			<path fill="#5E5E5D" d="M152.882,22.92c-0.01-0.003-0.017-0.014-0.014-0.023l0.097-0.437c0.004-0.01,0.014-0.017,0.023-0.013
				l0.621,0.14c0.01,0.003,0.017,0.013,0.013,0.023l-0.097,0.438c-0.004,0.01-0.016,0.017-0.023,0.013L152.882,22.92z"/>
			<path fill="#585857" d="M154.613,23.437l-0.62-0.14c-0.077-0.017-0.127-0.094-0.11-0.173l0.096-0.437
				c0.02-0.077,0.097-0.127,0.174-0.11l0.621,0.14c0.076,0.017,0.127,0.093,0.109,0.173l-0.096,0.437
				C154.766,23.403,154.689,23.454,154.613,23.437z"/>
			<path fill="#5E5E5D" d="M154.02,23.173c-0.011-0.003-0.017-0.014-0.014-0.023l0.098-0.437c0.002-0.01,0.015-0.017,0.022-0.013
				l0.621,0.14c0.01,0.003,0.017,0.013,0.013,0.023l-0.097,0.437c-0.003,0.01-0.013,0.017-0.022,0.014L154.02,23.173z"/>
			<path fill="#585857" d="M155.751,23.69l-0.621-0.14c-0.077-0.017-0.127-0.093-0.11-0.173l0.1-0.437
				c0.016-0.077,0.093-0.127,0.173-0.11l0.621,0.14c0.073,0.017,0.126,0.093,0.108,0.173l-0.098,0.437
				C155.904,23.66,155.827,23.71,155.751,23.69z"/>
			<path fill="#5E5E5D" d="M155.157,23.43c-0.011-0.003-0.017-0.013-0.013-0.023l0.096-0.438c0.004-0.01,0.014-0.017,0.023-0.013
				l0.618,0.14c0.013,0.003,0.019,0.013,0.015,0.023l-0.098,0.437c-0.004,0.01-0.014,0.017-0.021,0.014L155.157,23.43z"/>
			<path fill="#585857" d="M156.889,23.947l-0.621-0.141c-0.076-0.017-0.127-0.093-0.107-0.173l0.096-0.437
				c0.02-0.077,0.096-0.126,0.176-0.11l0.618,0.14c0.077,0.017,0.127,0.093,0.11,0.173l-0.098,0.437
				C157.042,23.917,156.965,23.964,156.889,23.947z"/>
			<path fill="#5E5E5D" d="M156.294,23.687c-0.01-0.003-0.017-0.013-0.013-0.023l0.097-0.437c0.003-0.01,0.013-0.017,0.022-0.013
				l0.621,0.14c0.011,0.003,0.017,0.013,0.014,0.023l-0.098,0.437c-0.002,0.01-0.015,0.017-0.022,0.013L156.294,23.687z"/>
			<path fill="#585857" d="M158.021,24.204l-0.619-0.14c-0.077-0.017-0.127-0.094-0.11-0.173l0.097-0.438
				c0.016-0.076,0.094-0.126,0.174-0.11l0.619,0.14c0.077,0.017,0.127,0.093,0.11,0.173l-0.097,0.437
				C158.18,24.17,158.102,24.221,158.021,24.204z"/>
			<path fill="#5E5E5D" d="M157.432,23.94c-0.01-0.003-0.017-0.013-0.013-0.023l0.097-0.437c0.004-0.01,0.016-0.017,0.023-0.014
				l0.62,0.14c0.01,0.003,0.017,0.013,0.013,0.023l-0.096,0.437c-0.004,0.01-0.014,0.017-0.024,0.013L157.432,23.94z"/>
			<path fill="#585857" d="M141.471,20.635l0.77,0.173c0.087,0.02,0.144,0.106,0.121,0.197l-0.17,0.754
				c-0.02,0.086-0.104,0.143-0.194,0.124l-0.769-0.174c-0.088-0.02-0.145-0.106-0.125-0.197l0.17-0.754
				C141.294,20.672,141.381,20.615,141.471,20.635z"/>
			<path fill="#5E5E5D" d="M141.258,21.585c-0.02-0.003-0.033-0.027-0.029-0.046l0.17-0.754c0.002-0.021,0.026-0.034,0.047-0.03
				l0.769,0.173c0.021,0.003,0.033,0.027,0.03,0.047l-0.17,0.754c-0.006,0.02-0.027,0.033-0.049,0.03L141.258,21.585z"/>
			<path fill="#585857" d="M142.782,20.932l0.767,0.173c0.088,0.02,0.143,0.107,0.123,0.197l-0.17,0.754
				c-0.02,0.087-0.105,0.144-0.195,0.124l-0.769-0.173c-0.086-0.02-0.144-0.107-0.123-0.197l0.17-0.754
				C142.605,20.965,142.691,20.912,142.782,20.932z"/>
			<path fill="#5E5E5D" d="M142.568,21.882c-0.021-0.003-0.033-0.027-0.029-0.047l0.17-0.753c0.003-0.02,0.025-0.034,0.046-0.03
				l0.769,0.173c0.021,0.003,0.033,0.027,0.029,0.047l-0.171,0.754c-0.003,0.02-0.026,0.033-0.046,0.03L142.568,21.882z"/>
			<path fill="#585857" d="M144.093,21.226l0.769,0.173c0.088,0.02,0.145,0.107,0.123,0.197l-0.17,0.754
				c-0.021,0.087-0.105,0.144-0.195,0.124l-0.77-0.174c-0.086-0.021-0.144-0.107-0.123-0.197l0.17-0.754
				C143.917,21.262,144.007,21.206,144.093,21.226z"/>
			<path fill="#5E5E5D" d="M143.88,22.176c-0.021-0.003-0.034-0.026-0.03-0.047l0.17-0.753c0.004-0.02,0.026-0.034,0.047-0.03
				l0.77,0.173c0.021,0.003,0.033,0.027,0.029,0.047l-0.172,0.754c-0.004,0.02-0.024,0.033-0.047,0.03L143.88,22.176z"/>
			<path fill="#585857" d="M145.404,21.519l0.767,0.173c0.087,0.02,0.144,0.107,0.124,0.197l-0.171,0.754
				c-0.021,0.087-0.106,0.144-0.196,0.124l-0.768-0.173c-0.086-0.02-0.143-0.107-0.123-0.197l0.17-0.754
				C145.227,21.556,145.316,21.499,145.404,21.519z"/>
			<path fill="#5E5E5D" d="M145.191,22.473c-0.021-0.003-0.034-0.027-0.03-0.047l0.17-0.753c0.003-0.02,0.026-0.034,0.046-0.03
				l0.768,0.173c0.021,0.003,0.033,0.027,0.03,0.047l-0.17,0.754c-0.004,0.02-0.026,0.033-0.047,0.03L145.191,22.473z"/>
			<path fill="#585857" d="M146.715,21.816l0.768,0.173c0.086,0.02,0.145,0.107,0.123,0.197l-0.17,0.754
				c-0.021,0.086-0.105,0.144-0.195,0.124l-0.77-0.174c-0.087-0.02-0.143-0.106-0.123-0.196l0.17-0.754
				C146.541,21.849,146.628,21.796,146.715,21.816z"/>
			<path fill="#5E5E5D" d="M146.501,22.766c-0.021-0.003-0.033-0.026-0.03-0.046l0.17-0.754c0.004-0.02,0.027-0.033,0.047-0.03
				l0.77,0.174c0.021,0.003,0.033,0.026,0.027,0.046l-0.17,0.754c-0.002,0.02-0.024,0.034-0.047,0.03L146.501,22.766z"/>
			<path fill="#585857" d="M148.025,22.109l0.768,0.173c0.086,0.02,0.143,0.107,0.123,0.197l-0.17,0.754
				c-0.02,0.087-0.107,0.144-0.197,0.124l-0.767-0.173c-0.087-0.02-0.144-0.107-0.123-0.197l0.17-0.754
				C147.852,22.146,147.939,22.089,148.025,22.109z"/>
			<path fill="#5E5E5D" d="M147.813,23.06c-0.021-0.003-0.033-0.027-0.028-0.047l0.17-0.753c0.003-0.021,0.024-0.034,0.047-0.03
				l0.769,0.173c0.021,0.003,0.031,0.027,0.028,0.047l-0.17,0.753c-0.004,0.021-0.024,0.034-0.047,0.03L147.813,23.06z"/>
			<path fill="#585857" d="M149.337,22.406l0.767,0.173c0.088,0.02,0.146,0.106,0.123,0.197l-0.17,0.754
				c-0.02,0.086-0.104,0.143-0.197,0.123l-0.767-0.173c-0.087-0.02-0.143-0.107-0.122-0.197l0.17-0.754
				C149.163,22.439,149.25,22.386,149.337,22.406z"/>
			<path fill="#5E5E5D" d="M149.123,23.356c-0.02-0.003-0.033-0.026-0.03-0.046l0.171-0.754c0.002-0.02,0.026-0.033,0.047-0.03
				l0.769,0.173c0.021,0.003,0.03,0.027,0.028,0.046l-0.17,0.754c-0.004,0.02-0.025,0.034-0.047,0.03L149.123,23.356z"/>
			<path fill="#585857" d="M150.65,22.7l0.768,0.173c0.087,0.021,0.143,0.107,0.123,0.197l-0.17,0.753
				c-0.02,0.087-0.105,0.144-0.197,0.124l-0.767-0.173c-0.087-0.02-0.144-0.107-0.123-0.197l0.17-0.754
				C150.475,22.736,150.561,22.68,150.65,22.7z"/>
			<path fill="#5E5E5D" d="M150.434,23.65c-0.02-0.003-0.033-0.027-0.029-0.047l0.172-0.753c0.003-0.02,0.025-0.034,0.047-0.03
				l0.77,0.173c0.02,0.003,0.03,0.027,0.027,0.047l-0.17,0.754c-0.003,0.02-0.025,0.033-0.047,0.03L150.434,23.65z"/>
			<path fill="#585857" d="M151.961,22.993l0.768,0.173c0.086,0.02,0.146,0.107,0.123,0.197l-0.17,0.754
				c-0.02,0.087-0.104,0.144-0.197,0.124l-0.767-0.174c-0.087-0.02-0.144-0.106-0.122-0.197l0.17-0.753
				C151.785,23.03,151.871,22.973,151.961,22.993z"/>
			<path fill="#5E5E5D" d="M151.748,23.947c-0.02-0.003-0.033-0.027-0.03-0.047l0.171-0.754c0.004-0.02,0.026-0.033,0.047-0.03
				l0.769,0.173c0.021,0.003,0.03,0.027,0.028,0.047l-0.17,0.753c-0.004,0.02-0.025,0.034-0.047,0.03L151.748,23.947z"/>
			<path fill="#585857" d="M153.271,23.29l0.769,0.174c0.086,0.02,0.144,0.106,0.123,0.196l-0.17,0.754
				c-0.021,0.087-0.106,0.144-0.197,0.124l-0.767-0.173c-0.088-0.021-0.145-0.107-0.123-0.197l0.17-0.754
				C153.096,23.323,153.182,23.27,153.271,23.29z"/>
			<path fill="#5E5E5D" d="M153.059,24.241c-0.02-0.003-0.033-0.027-0.029-0.046l0.172-0.754c0.003-0.02,0.025-0.034,0.047-0.03
				l0.77,0.173c0.02,0.003,0.03,0.027,0.027,0.047l-0.17,0.754c-0.004,0.021-0.025,0.033-0.047,0.03L153.059,24.241z"/>
			<path fill="#585857" d="M154.583,23.583l0.767,0.173c0.088,0.02,0.146,0.107,0.125,0.197l-0.17,0.754
				c-0.021,0.087-0.105,0.144-0.197,0.124l-0.765-0.174c-0.087-0.02-0.143-0.106-0.122-0.196l0.17-0.754
				C154.407,23.62,154.493,23.563,154.583,23.583z"/>
			<path fill="#5E5E5D" d="M154.37,24.534c-0.021-0.003-0.034-0.026-0.03-0.046l0.17-0.754c0.004-0.02,0.027-0.034,0.047-0.03
				l0.77,0.173c0.021,0.003,0.031,0.027,0.027,0.047l-0.174,0.754c-0.003,0.021-0.023,0.033-0.046,0.03L154.37,24.534z"/>
			<path fill="#585857" d="M155.895,23.88l0.769,0.174c0.087,0.02,0.146,0.106,0.124,0.197l-0.17,0.753
				c-0.021,0.087-0.107,0.144-0.197,0.124l-0.77-0.173c-0.086-0.02-0.144-0.107-0.123-0.197l0.172-0.754
				C155.717,23.914,155.807,23.86,155.895,23.88z"/>
			<path fill="#5E5E5D" d="M155.682,24.831c-0.021-0.003-0.033-0.026-0.031-0.046l0.17-0.754c0.006-0.021,0.027-0.034,0.05-0.03
				l0.767,0.173c0.021,0.003,0.033,0.027,0.03,0.047l-0.17,0.754c-0.004,0.02-0.026,0.033-0.047,0.03L155.682,24.831z"/>
			<path fill="#585857" d="M157.205,24.174l0.768,0.173c0.086,0.02,0.145,0.107,0.123,0.197l-0.171,0.754
				c-0.021,0.087-0.106,0.144-0.196,0.124l-0.768-0.173c-0.086-0.02-0.143-0.107-0.123-0.197l0.174-0.754
				C157.027,24.21,157.118,24.154,157.205,24.174z"/>
			<path fill="#5E5E5D" d="M156.991,25.125c-0.021-0.003-0.033-0.027-0.03-0.047l0.171-0.754c0.003-0.02,0.026-0.033,0.046-0.03
				l0.768,0.174c0.021,0.003,0.033,0.026,0.029,0.047l-0.17,0.753c-0.003,0.02-0.023,0.034-0.046,0.03L156.991,25.125z"/>
			<path fill="#585857" d="M141.193,21.856l0.768,0.173c0.087,0.02,0.145,0.106,0.124,0.197l-0.17,0.754
				c-0.021,0.086-0.106,0.143-0.197,0.124l-0.767-0.174c-0.088-0.02-0.145-0.106-0.124-0.197l0.174-0.754
				C141.021,21.893,141.107,21.836,141.193,21.856z"/>
			<path fill="#5E5E5D" d="M140.98,22.807c-0.021-0.003-0.032-0.027-0.029-0.047l0.17-0.754c0.003-0.02,0.027-0.033,0.047-0.03
				l0.768,0.173c0.021,0.003,0.032,0.026,0.029,0.046l-0.17,0.754c-0.004,0.02-0.027,0.034-0.047,0.03L140.98,22.807z"/>
			<path fill="#585857" d="M142.509,22.152l0.767,0.174c0.09,0.02,0.146,0.106,0.123,0.197l-0.17,0.754
				c-0.02,0.086-0.104,0.143-0.193,0.123l-0.77-0.173c-0.086-0.02-0.144-0.106-0.123-0.197l0.17-0.754
				C142.332,22.186,142.419,22.133,142.509,22.152z"/>
			<path fill="#5E5E5D" d="M142.292,23.104c-0.021-0.003-0.033-0.027-0.03-0.047l0.17-0.754c0.004-0.02,0.027-0.033,0.047-0.03
				l0.77,0.174c0.021,0.003,0.033,0.026,0.027,0.047l-0.17,0.753c-0.002,0.02-0.024,0.034-0.047,0.03L142.292,23.104z"/>
			<path fill="#585857" d="M143.818,22.446l0.769,0.173c0.086,0.02,0.144,0.107,0.123,0.197l-0.17,0.754
				c-0.021,0.087-0.106,0.144-0.197,0.124l-0.767-0.173c-0.088-0.02-0.143-0.107-0.123-0.197l0.17-0.754
				C143.643,22.483,143.729,22.426,143.818,22.446z"/>
			<path fill="#5E5E5D" d="M143.605,23.397c-0.021-0.003-0.032-0.027-0.029-0.047l0.17-0.754c0.004-0.02,0.027-0.033,0.047-0.03
				l0.768,0.173c0.021,0.003,0.032,0.027,0.029,0.046l-0.17,0.754c-0.003,0.02-0.027,0.034-0.047,0.03L143.605,23.397z"/>
			<path fill="#585857" d="M145.13,22.74l0.767,0.173c0.088,0.02,0.146,0.107,0.125,0.197l-0.17,0.754
				c-0.021,0.087-0.105,0.144-0.197,0.124l-0.768-0.173c-0.087-0.02-0.144-0.107-0.123-0.197l0.17-0.754
				C144.953,22.776,145.04,22.72,145.13,22.74z"/>
			<path fill="#5E5E5D" d="M144.917,23.69c-0.021-0.003-0.034-0.027-0.03-0.047l0.17-0.754c0.004-0.02,0.027-0.033,0.047-0.03
				l0.77,0.173c0.021,0.003,0.033,0.027,0.027,0.047l-0.17,0.753c-0.004,0.021-0.024,0.034-0.047,0.03L144.917,23.69z"/>
			<path fill="#585857" d="M146.441,23.037l0.768,0.173c0.086,0.02,0.143,0.107,0.123,0.197l-0.17,0.754
				c-0.02,0.086-0.107,0.144-0.197,0.124l-0.767-0.174c-0.087-0.02-0.144-0.106-0.123-0.196l0.17-0.754
				C146.266,23.07,146.355,23.017,146.441,23.037z"/>
			<path fill="#5E5E5D" d="M146.229,23.987c-0.021-0.003-0.035-0.027-0.028-0.047l0.17-0.754c0.003-0.02,0.024-0.033,0.047-0.03
				l0.769,0.173c0.021,0.003,0.031,0.027,0.028,0.047l-0.17,0.754c-0.004,0.02-0.024,0.033-0.047,0.03L146.229,23.987z"/>
			<path fill="#585857" d="M147.752,23.33l0.768,0.173c0.086,0.02,0.146,0.107,0.123,0.197l-0.17,0.754
				c-0.02,0.086-0.104,0.144-0.197,0.123l-0.767-0.173c-0.087-0.02-0.144-0.106-0.124-0.197l0.17-0.754
				C147.575,23.367,147.665,23.31,147.752,23.33z"/>
			<path fill="#5E5E5D" d="M147.539,24.281c-0.02-0.003-0.033-0.027-0.03-0.046l0.171-0.754c0.002-0.021,0.026-0.034,0.047-0.03
				l0.769,0.173c0.021,0.003,0.03,0.027,0.028,0.047l-0.17,0.754c-0.004,0.02-0.025,0.033-0.047,0.03L147.539,24.281z"/>
			<path fill="#585857" d="M149.063,23.627l0.77,0.173c0.087,0.02,0.145,0.107,0.123,0.197l-0.17,0.754
				c-0.021,0.087-0.107,0.144-0.197,0.124l-0.77-0.173c-0.086-0.02-0.143-0.107-0.123-0.197l0.173-0.754
				C148.889,23.66,148.977,23.607,149.063,23.627z"/>
			<path fill="#5E5E5D" d="M148.85,24.578c-0.021-0.003-0.033-0.027-0.031-0.047l0.174-0.753c0.003-0.021,0.023-0.034,0.046-0.03
				l0.769,0.173c0.021,0.003,0.032,0.027,0.028,0.047l-0.17,0.754c-0.003,0.02-0.024,0.033-0.046,0.03L148.85,24.578z"/>
			<path fill="#585857" d="M150.374,23.92l0.767,0.173c0.088,0.02,0.146,0.107,0.123,0.197l-0.17,0.754
				c-0.02,0.086-0.104,0.144-0.197,0.124l-0.767-0.174c-0.086-0.02-0.144-0.106-0.123-0.197l0.17-0.753
				C150.2,23.957,150.287,23.9,150.374,23.92z"/>
			<path fill="#5E5E5D" d="M150.16,24.871c-0.02-0.003-0.033-0.026-0.03-0.046l0.17-0.754c0.005-0.02,0.027-0.034,0.048-0.03
				l0.768,0.173c0.021,0.003,0.031,0.027,0.029,0.047l-0.17,0.754c-0.004,0.02-0.025,0.033-0.048,0.03L150.16,24.871z"/>
			<path fill="#585857" d="M151.686,24.214l0.769,0.174c0.087,0.02,0.146,0.106,0.123,0.197l-0.172,0.753
				c-0.021,0.087-0.104,0.144-0.194,0.124l-0.77-0.173c-0.086-0.02-0.144-0.106-0.123-0.197l0.171-0.754
				C151.512,24.25,151.598,24.194,151.686,24.214z"/>
			<path fill="#5E5E5D" d="M151.471,25.165c-0.02-0.003-0.033-0.026-0.029-0.046l0.17-0.754c0.006-0.021,0.027-0.033,0.049-0.03
				l0.767,0.174c0.021,0.003,0.033,0.026,0.03,0.046l-0.17,0.754c-0.003,0.02-0.027,0.033-0.049,0.03L151.471,25.165z"/>
			<path fill="#585857" d="M152.995,24.511l0.769,0.174c0.086,0.02,0.145,0.106,0.123,0.196l-0.171,0.754
				c-0.021,0.087-0.106,0.144-0.196,0.124l-0.768-0.173c-0.087-0.02-0.143-0.107-0.123-0.197l0.17-0.754
				C152.822,24.544,152.909,24.491,152.995,24.511z"/>
			<path fill="#5E5E5D" d="M152.782,25.461c-0.021-0.003-0.033-0.026-0.03-0.046l0.17-0.754c0.004-0.02,0.027-0.033,0.047-0.03
				l0.768,0.174c0.021,0.003,0.033,0.026,0.029,0.046l-0.17,0.754c-0.003,0.02-0.027,0.033-0.047,0.03L152.782,25.461z"/>
			<path fill="#585857" d="M154.311,24.804l0.769,0.174c0.087,0.02,0.146,0.106,0.123,0.197l-0.172,0.754
				c-0.021,0.086-0.105,0.143-0.195,0.123l-0.769-0.173c-0.088-0.02-0.144-0.107-0.123-0.197l0.172-0.754
				C154.133,24.841,154.221,24.784,154.311,24.804z"/>
			<path fill="#5E5E5D" d="M154.093,25.755c-0.02-0.003-0.034-0.026-0.03-0.046l0.17-0.754c0.004-0.02,0.027-0.033,0.047-0.03
				l0.77,0.174c0.021,0.003,0.033,0.026,0.03,0.046l-0.17,0.754c-0.007,0.02-0.027,0.033-0.05,0.03L154.093,25.755z"/>
			<path fill="#585857" d="M155.621,25.101l0.768,0.174c0.086,0.02,0.145,0.106,0.123,0.197l-0.171,0.753
				c-0.021,0.087-0.106,0.144-0.196,0.124l-0.768-0.173c-0.087-0.02-0.143-0.107-0.123-0.197l0.17-0.754
				C155.443,25.135,155.531,25.081,155.621,25.101z"/>
			<path fill="#5E5E5D" d="M155.407,26.052c-0.021-0.003-0.033-0.026-0.03-0.046l0.17-0.754c0.004-0.02,0.027-0.033,0.047-0.03
				l0.768,0.173c0.021,0.004,0.033,0.027,0.029,0.047l-0.17,0.754c-0.003,0.02-0.025,0.033-0.046,0.03L155.407,26.052z"/>
			<path fill="#585857" d="M156.932,25.395l0.77,0.174c0.087,0.02,0.143,0.106,0.123,0.197l-0.172,0.754
				c-0.021,0.086-0.105,0.143-0.195,0.123l-0.77-0.173c-0.086-0.02-0.143-0.104-0.123-0.197l0.17-0.754
				C156.755,25.432,156.842,25.375,156.932,25.395z"/>
			<path fill="#5E5E5D" d="M156.718,26.346c-0.02-0.003-0.032-0.027-0.03-0.047l0.17-0.754c0.004-0.02,0.027-0.033,0.047-0.03
				l0.77,0.174c0.021,0.003,0.033,0.026,0.03,0.047l-0.17,0.753c-0.005,0.02-0.027,0.034-0.05,0.03L156.718,26.346z"/>
			<path fill="#585857" d="M140.921,23.077l0.767,0.173c0.088,0.02,0.146,0.106,0.125,0.197l-0.17,0.754
				c-0.021,0.086-0.105,0.143-0.197,0.124l-0.768-0.174c-0.087-0.02-0.144-0.106-0.123-0.197l0.17-0.754
				C140.748,23.113,140.835,23.057,140.921,23.077z"/>
			<path fill="#5E5E5D" d="M140.708,24.027c-0.021-0.003-0.034-0.027-0.031-0.047l0.171-0.754c0.004-0.02,0.026-0.033,0.047-0.03
				l0.769,0.173c0.021,0.003,0.032,0.026,0.028,0.047l-0.17,0.753c-0.004,0.02-0.024,0.034-0.047,0.03L140.708,24.027z"/>
			<path fill="#585857" d="M142.232,23.37l0.767,0.173c0.087,0.02,0.144,0.107,0.123,0.197l-0.17,0.754
				c-0.021,0.087-0.106,0.144-0.197,0.124l-0.767-0.174c-0.086-0.02-0.145-0.106-0.123-0.197l0.17-0.754
				C142.059,23.407,142.145,23.354,142.232,23.37z"/>
			<path fill="#5E5E5D" d="M142.02,24.324c-0.021-0.003-0.035-0.027-0.029-0.047l0.171-0.754c0.003-0.02,0.024-0.033,0.046-0.03
				l0.77,0.173c0.021,0.003,0.031,0.027,0.028,0.047l-0.171,0.754c-0.003,0.02-0.023,0.033-0.046,0.03L142.02,24.324z"/>
			<path fill="#585857" d="M143.542,23.667l0.769,0.173c0.086,0.02,0.145,0.107,0.123,0.197l-0.17,0.754
				c-0.021,0.087-0.105,0.144-0.197,0.124l-0.768-0.173c-0.087-0.02-0.145-0.107-0.123-0.197l0.17-0.754
				C143.369,23.704,143.456,23.647,143.542,23.667z"/>
			<path fill="#5E5E5D" d="M143.329,24.618c-0.021-0.003-0.033-0.027-0.03-0.047l0.17-0.754c0.004-0.02,0.027-0.033,0.047-0.03
				l0.77,0.173c0.021,0.003,0.031,0.027,0.027,0.047l-0.17,0.753c-0.002,0.021-0.024,0.034-0.047,0.03L143.329,24.618z"/>
			<path fill="#585857" d="M144.857,23.96l0.767,0.173c0.087,0.02,0.144,0.107,0.124,0.197l-0.17,0.754
				c-0.02,0.087-0.107,0.144-0.197,0.124l-0.768-0.173c-0.086-0.02-0.145-0.107-0.123-0.197l0.17-0.754
				C144.68,23.997,144.768,23.94,144.857,23.96z"/>
			<path fill="#5E5E5D" d="M144.641,24.911c-0.021-0.003-0.033-0.027-0.031-0.047l0.17-0.754c0.007-0.02,0.027-0.033,0.05-0.03
				l0.769,0.173c0.02,0.003,0.032,0.027,0.028,0.047l-0.17,0.754c-0.003,0.02-0.026,0.033-0.047,0.03L144.641,24.911z"/>
			<path fill="#585857" d="M146.168,24.257l0.768,0.173c0.086,0.021,0.145,0.107,0.123,0.197l-0.17,0.754
				c-0.021,0.086-0.105,0.143-0.197,0.123l-0.768-0.173c-0.087-0.02-0.143-0.107-0.123-0.197l0.17-0.754
				C145.991,24.291,146.078,24.237,146.168,24.257z"/>
			<path fill="#5E5E5D" d="M145.954,25.208c-0.021-0.003-0.033-0.027-0.03-0.047l0.17-0.754c0.004-0.02,0.027-0.033,0.047-0.03
				l0.77,0.173c0.021,0.003,0.031,0.027,0.027,0.047l-0.17,0.754c-0.002,0.02-0.023,0.033-0.045,0.03L145.954,25.208z"/>
			<path fill="#585857" d="M147.479,24.551l0.77,0.173c0.087,0.02,0.145,0.107,0.123,0.197l-0.17,0.754
				c-0.021,0.087-0.107,0.144-0.197,0.124l-0.77-0.173c-0.086-0.02-0.143-0.107-0.123-0.197l0.173-0.754
				C147.302,24.587,147.389,24.531,147.479,24.551z"/>
			<path fill="#5E5E5D" d="M147.266,25.501c-0.021-0.003-0.033-0.027-0.031-0.047l0.17-0.753c0.006-0.021,0.027-0.034,0.05-0.03
				l0.769,0.173c0.02,0.003,0.031,0.027,0.028,0.047l-0.17,0.754c-0.004,0.02-0.026,0.033-0.047,0.03L147.266,25.501z"/>
			<path fill="#585857" d="M148.79,24.844l0.767,0.173c0.088,0.02,0.146,0.107,0.123,0.197l-0.17,0.754
				c-0.02,0.087-0.107,0.144-0.197,0.124l-0.767-0.173c-0.086-0.02-0.144-0.107-0.123-0.197l0.17-0.754
				C148.613,24.881,148.7,24.828,148.79,24.844z"/>
			<path fill="#5E5E5D" d="M148.576,25.798c-0.02-0.003-0.033-0.027-0.03-0.047l0.17-0.753c0.003-0.021,0.027-0.034,0.048-0.03
				l0.768,0.173c0.021,0.003,0.031,0.027,0.029,0.047l-0.17,0.754c-0.004,0.02-0.025,0.033-0.048,0.03L148.576,25.798z"/>
			<path fill="#585857" d="M150.1,25.141l0.771,0.173c0.086,0.021,0.146,0.107,0.123,0.197l-0.173,0.753
				c-0.02,0.087-0.104,0.144-0.194,0.124l-0.769-0.173c-0.088-0.02-0.145-0.107-0.125-0.197l0.172-0.754
				C149.924,25.175,150.014,25.121,150.1,25.141z"/>
			<path fill="#5E5E5D" d="M149.887,26.092c-0.02-0.003-0.033-0.026-0.029-0.046l0.17-0.754c0.002-0.02,0.027-0.034,0.049-0.03
				l0.767,0.173c0.021,0.003,0.033,0.027,0.03,0.047l-0.17,0.754c-0.003,0.02-0.027,0.033-0.049,0.03L149.887,26.092z"/>
			<path fill="#585857" d="M151.411,25.435l0.767,0.174c0.088,0.02,0.146,0.106,0.124,0.197l-0.171,0.753
				c-0.02,0.087-0.105,0.144-0.195,0.124l-0.769-0.173c-0.086-0.02-0.144-0.106-0.123-0.197l0.17-0.754
				C151.234,25.471,151.324,25.415,151.411,25.435z"/>
			<path fill="#5E5E5D" d="M151.198,26.385c-0.021-0.003-0.034-0.026-0.03-0.046l0.17-0.754c0.003-0.02,0.025-0.033,0.046-0.03
				l0.769,0.174c0.021,0.003,0.033,0.026,0.029,0.046l-0.174,0.754c-0.003,0.02-0.025,0.033-0.046,0.03L151.198,26.385z"/>
			<path fill="#585857" d="M152.723,25.731l0.768,0.174c0.088,0.02,0.145,0.104,0.125,0.197l-0.174,0.753
				c-0.02,0.087-0.104,0.144-0.193,0.124l-0.77-0.173c-0.086-0.02-0.144-0.107-0.123-0.197l0.17-0.754
				C152.549,25.765,152.635,25.711,152.723,25.731z"/>
			<path fill="#5E5E5D" d="M152.508,26.682c-0.02-0.003-0.033-0.023-0.029-0.046l0.17-0.754c0.004-0.02,0.026-0.033,0.047-0.03
				l0.769,0.174c0.021,0.003,0.034,0.026,0.03,0.046l-0.17,0.754c-0.006,0.02-0.027,0.033-0.049,0.03L152.508,26.682z"/>
			<path fill="#585857" d="M154.033,26.025l0.767,0.174c0.087,0.02,0.144,0.106,0.124,0.197l-0.17,0.754
				c-0.02,0.086-0.107,0.143-0.197,0.123L153.79,27.1c-0.087-0.02-0.144-0.107-0.124-0.197l0.17-0.754
				C153.859,26.062,153.945,26.005,154.033,26.025z"/>
			<path fill="#5E5E5D" d="M153.818,26.976c-0.021-0.003-0.032-0.026-0.029-0.046l0.17-0.754c0.004-0.02,0.027-0.033,0.047-0.03
				l0.768,0.174c0.021,0.003,0.033,0.026,0.029,0.046l-0.17,0.754c-0.003,0.02-0.025,0.033-0.047,0.03L153.818,26.976z"/>
			<path fill="#585857" d="M155.344,26.319l0.768,0.173c0.089,0.02,0.145,0.106,0.123,0.197l-0.17,0.754
				c-0.021,0.086-0.105,0.143-0.195,0.124l-0.77-0.174c-0.086-0.02-0.143-0.106-0.123-0.197l0.17-0.754
				C155.17,26.355,155.257,26.299,155.344,26.319z"/>
			<path fill="#5E5E5D" d="M155.13,27.272c-0.021-0.003-0.032-0.026-0.03-0.046l0.17-0.754c0.004-0.02,0.027-0.033,0.047-0.03
				l0.77,0.173c0.021,0.004,0.034,0.027,0.029,0.047l-0.172,0.75c-0.002,0.02-0.023,0.034-0.045,0.03L155.13,27.272z"/>
			<path fill="#585857" d="M156.658,26.615l0.767,0.174c0.087,0.02,0.144,0.106,0.123,0.197l-0.17,0.754
				c-0.021,0.086-0.106,0.143-0.196,0.123l-0.768-0.173c-0.086-0.02-0.143-0.106-0.123-0.197l0.17-0.754
				C156.48,26.649,156.568,26.596,156.658,26.615z"/>
			<path fill="#5E5E5D" d="M156.441,27.566c-0.021-0.003-0.033-0.027-0.03-0.047l0.17-0.754c0.003-0.02,0.026-0.033,0.047-0.03
				l0.767,0.174c0.021,0.003,0.033,0.026,0.03,0.047l-0.17,0.753c-0.003,0.02-0.026,0.034-0.047,0.03L156.441,27.566z"/>
			<path fill="#585857" d="M140.646,24.297l0.768,0.173c0.087,0.021,0.145,0.107,0.124,0.197l-0.17,0.754
				c-0.021,0.086-0.106,0.143-0.197,0.123l-0.767-0.173c-0.088-0.02-0.146-0.107-0.125-0.197l0.172-0.754
				C140.471,24.334,140.561,24.277,140.646,24.297z"/>
			<path fill="#5E5E5D" d="M140.434,25.248c-0.02-0.003-0.033-0.027-0.029-0.047l0.172-0.754c0.003-0.021,0.025-0.033,0.047-0.03
				l0.77,0.173c0.02,0.003,0.03,0.027,0.027,0.047l-0.17,0.754c-0.003,0.02-0.025,0.033-0.047,0.03L140.434,25.248z"/>
			<path fill="#585857" d="M141.958,24.591l0.769,0.174c0.086,0.02,0.145,0.106,0.123,0.196l-0.17,0.754
				c-0.021,0.087-0.105,0.144-0.197,0.124l-0.768-0.173c-0.087-0.02-0.145-0.107-0.124-0.197l0.171-0.754
				C141.782,24.628,141.872,24.571,141.958,24.591z"/>
			<path fill="#5E5E5D" d="M141.745,25.542c-0.021-0.003-0.033-0.027-0.03-0.046l0.17-0.754c0.004-0.02,0.027-0.034,0.047-0.03
				l0.77,0.174c0.021,0.003,0.031,0.026,0.027,0.046l-0.17,0.754c-0.002,0.02-0.024,0.033-0.047,0.03L141.745,25.542z"/>
			<path fill="#585857" d="M143.27,24.888l0.77,0.173c0.086,0.02,0.145,0.107,0.123,0.197l-0.17,0.754
				c-0.021,0.087-0.107,0.144-0.197,0.124l-0.77-0.173c-0.086-0.02-0.144-0.107-0.123-0.197l0.176-0.754
				C143.096,24.921,143.184,24.868,143.27,24.888z"/>
			<path fill="#5E5E5D" d="M143.057,25.838c-0.021-0.003-0.035-0.027-0.031-0.047l0.17-0.754c0.006-0.02,0.027-0.033,0.049-0.03
				l0.768,0.173c0.021,0.003,0.033,0.027,0.03,0.047l-0.17,0.753c-0.004,0.021-0.026,0.034-0.047,0.03L143.057,25.838z"/>
			<path fill="#585857" d="M144.58,25.182l0.768,0.173c0.086,0.02,0.146,0.106,0.123,0.197l-0.171,0.754
				c-0.021,0.086-0.106,0.143-0.196,0.123l-0.767-0.173c-0.087-0.02-0.144-0.107-0.124-0.197l0.17-0.754
				C144.407,25.218,144.493,25.161,144.58,25.182z"/>
			<path fill="#5E5E5D" d="M144.367,26.132c-0.02-0.003-0.034-0.026-0.03-0.046l0.17-0.754c0.003-0.02,0.027-0.034,0.048-0.03
				l0.766,0.173c0.021,0.003,0.033,0.026,0.031,0.046l-0.17,0.754c-0.005,0.02-0.025,0.033-0.048,0.03L144.367,26.132z"/>
			<path fill="#585857" d="M150.59,26.532l-4.706-1.057c-0.087-0.02-0.17,0.033-0.19,0.12l-0.184,0.813
				c-0.013,0.061,0.024,0.12,0.084,0.134l4.75,1.067c0.086,0.02,0.176-0.037,0.196-0.124l0.17-0.754
				C150.734,26.642,150.68,26.552,150.59,26.532z"/>
			<path fill="#5E5E5D" d="M145.641,26.419l0.18-0.797c0.006-0.017,0.023-0.03,0.041-0.023l4.705,1.058
				c0.021,0.003,0.033,0.026,0.031,0.046l-0.171,0.754c-0.003,0.02-0.026,0.033-0.047,0.03L145.641,26.419z"/>
			<path fill="#585857" d="M151.139,26.656l0.768,0.173c0.088,0.02,0.145,0.107,0.125,0.197l-0.174,0.754
				c-0.02,0.087-0.104,0.144-0.193,0.124l-0.77-0.174c-0.086-0.02-0.144-0.106-0.123-0.197l0.17-0.753
				C150.961,26.692,151.048,26.636,151.139,26.656z"/>
			<path fill="#5E5E5D" d="M150.924,27.606c-0.02-0.003-0.033-0.027-0.029-0.047l0.17-0.754c0.004-0.02,0.026-0.033,0.047-0.03
				l0.769,0.173c0.021,0.003,0.034,0.027,0.03,0.047l-0.172,0.754c-0.004,0.02-0.025,0.033-0.047,0.03L150.924,27.606z"/>
			<path fill="#585857" d="M152.449,26.953l0.767,0.173c0.086,0.02,0.144,0.107,0.123,0.197l-0.17,0.754
				c-0.021,0.087-0.106,0.144-0.196,0.124l-0.768-0.174c-0.087-0.02-0.143-0.106-0.123-0.197l0.17-0.753
				C152.271,26.986,152.361,26.933,152.449,26.953z"/>
			<path fill="#5E5E5D" d="M152.234,27.903c-0.021-0.003-0.032-0.027-0.029-0.047l0.17-0.754c0.004-0.02,0.027-0.033,0.047-0.03
				l0.768,0.173c0.021,0.003,0.033,0.027,0.029,0.047l-0.17,0.754c-0.003,0.02-0.027,0.033-0.047,0.03L152.234,27.903z"/>
			<path fill="#585857" d="M153.759,27.246l0.767,0.173c0.09,0.02,0.146,0.107,0.125,0.197l-0.17,0.754
				c-0.021,0.087-0.105,0.144-0.195,0.124l-0.77-0.173c-0.086-0.02-0.144-0.107-0.123-0.197l0.17-0.753
				C153.582,27.283,153.672,27.226,153.759,27.246z"/>
			<path fill="#5E5E5D" d="M153.546,28.197c-0.021-0.003-0.032-0.027-0.03-0.047l0.17-0.754c0.004-0.02,0.027-0.033,0.047-0.03
				l0.77,0.173c0.021,0.003,0.033,0.027,0.029,0.047l-0.172,0.753c-0.004,0.021-0.021,0.034-0.047,0.03L153.546,28.197z"/>
			<path fill="#585857" d="M155.07,27.54l0.767,0.173c0.087,0.02,0.144,0.106,0.124,0.197l-0.17,0.754
				c-0.02,0.086-0.107,0.143-0.197,0.124l-0.767-0.174c-0.087-0.021-0.144-0.106-0.124-0.197l0.17-0.754
				C154.896,27.576,154.982,27.52,155.07,27.54z"/>
			<path fill="#5E5E5D" d="M154.855,28.49c-0.021-0.003-0.032-0.026-0.029-0.047l0.171-0.754c0.003-0.02,0.026-0.033,0.046-0.03
				l0.768,0.173c0.021,0.003,0.033,0.027,0.029,0.047l-0.17,0.754c-0.003,0.02-0.025,0.033-0.046,0.03L154.855,28.49z"/>
			<path fill="#585857" d="M156.381,27.836l0.768,0.173c0.086,0.02,0.146,0.107,0.123,0.197l-0.17,0.754
				c-0.02,0.087-0.104,0.144-0.197,0.124l-0.766-0.173c-0.088-0.02-0.145-0.107-0.125-0.197l0.17-0.754
				C156.208,27.87,156.295,27.816,156.381,27.836z"/>
			<path fill="#5E5E5D" d="M156.168,28.787c-0.02-0.003-0.033-0.027-0.029-0.047l0.17-0.754c0.002-0.02,0.026-0.033,0.047-0.03
				l0.769,0.173c0.021,0.003,0.03,0.027,0.028,0.047l-0.17,0.754c-0.004,0.02-0.025,0.033-0.047,0.03L156.168,28.787z"/>
			<path fill="#EDEDED" d="M150.354,28.66l-3.85-0.864c-0.173-0.04-0.346,0.07-0.383,0.244l-0.464,2.058
				c-0.04,0.174,0.069,0.347,0.243,0.384l3.85,0.864c0.173,0.04,0.348-0.07,0.384-0.244l0.464-2.058
				C150.637,28.87,150.527,28.7,150.354,28.66z"/>
			<path fill="#9D9B9B" d="M150.384,28.537l-3.85-0.864c-0.24-0.054-0.479,0.097-0.533,0.337l-0.464,2.058
				c-0.053,0.24,0.097,0.48,0.337,0.534l3.849,0.864c0.24,0.053,0.481-0.097,0.534-0.337l0.464-2.058
				C150.773,28.83,150.624,28.593,150.384,28.537z M150.137,31.102c-0.039,0.174-0.21,0.284-0.384,0.244l-3.849-0.864
				c-0.174-0.04-0.283-0.21-0.243-0.384l0.463-2.058c0.04-0.173,0.21-0.283,0.384-0.243l3.85,0.864
				c0.172,0.04,0.283,0.21,0.242,0.384L150.137,31.102z"/>
			<path fill="#DFDFDE" d="M145.889,29.083l-0.228,1.014c-0.04,0.173,0.069,0.347,0.243,0.384l3.85,0.864
				c0.173,0.04,0.346-0.07,0.383-0.244l0.229-1.014L145.889,29.083z"/>
			<path fill="#D9D9DA" d="M148.109,29.581l-2.221-0.5l-0.229,1.014c-0.04,0.173,0.067,0.347,0.241,0.383l1.908,0.431
				L148.109,29.581z"/>
			<path fill="#E3E1E1" d="M159.59,22.753l-18.898-4.25c-0.108-0.026-0.188-0.13-0.178-0.243l1.979-10.814
				c0.026-0.297,0.307-0.5,0.597-0.434l19.249,4.33c0.291,0.066,0.457,0.37,0.354,0.65l-2.838,10.617
				C159.813,22.716,159.703,22.78,159.59,22.753z"/>
			<path fill="#C7C7C6" d="M141.338,17.466l1.825-9.129c0.026-0.28,0.29-0.474,0.563-0.41l17.642,3.966
				c0.272,0.06,0.43,0.35,0.333,0.614l-2.254,9.029c-0.08,0.22-0.313,0.343-0.541,0.293l-17.204-3.869
				C141.471,17.91,141.318,17.696,141.338,17.466z"/>
			<path fill="#C6E6F2" d="M141.465,17.479l1.824-9.136c0.02-0.203,0.21-0.343,0.41-0.296l17.648,3.969
				c0.194,0.043,0.313,0.254,0.241,0.444l-2.261,9.036c-0.059,0.16-0.227,0.25-0.393,0.213l-17.215-3.873
				C141.561,17.8,141.448,17.646,141.465,17.479z"/>
			<path opacity="0.24" fill="#B6E0ED" enable-background="new    " d="M141.738,16.605c0.326-0.587,0.771-1.141,1.268-1.601
				c1.28-1.191,3.064-1.848,4.746-2.208c1.98-0.427,4.2-1.301,6.214-1.124c2.796,0.24,4.687,0.667,7.335,1.578l0.29-0.791
				c0.07-0.19-0.043-0.4-0.243-0.444L143.7,8.046c-0.196-0.043-0.392,0.097-0.41,0.296l-1.794,8.806
				C141.555,16.953,141.65,16.762,141.738,16.605z"/>
			<path fill="#585857" d="M156.852,22.139l-13.449-3.025l0.009-0.227l13.56,3.048L156.852,22.139z"/>
			<path fill="#3C3C3B" d="M152.473,9.548c0.021-0.083,0.104-0.137,0.188-0.117c0.083,0.021,0.137,0.104,0.114,0.187
				c-0.02,0.083-0.104,0.137-0.187,0.117C152.505,9.718,152.452,9.634,152.473,9.548z"/>
			<path fill="#585857" d="M152.516,9.558c0.016-0.06,0.073-0.097,0.133-0.083c0.063,0.014,0.099,0.074,0.084,0.134
				c-0.014,0.06-0.071,0.097-0.133,0.083C152.539,9.678,152.502,9.618,152.516,9.558z"/>
			<path fill="#B6E0ED" d="M152.579,9.574c0.006-0.023,0.03-0.04,0.053-0.033s0.04,0.03,0.033,0.053
				c-0.006,0.023-0.03,0.04-0.054,0.034C152.589,9.621,152.572,9.598,152.579,9.574z"/>
		</g>
		<path fill="#FDFFFC" d="M32.808,84.637c-0.897-3.791-4.688-6.129-8.459-5.229c-3.776,0.9-6.105,4.708-5.208,8.494
			c0.632,2.66,2.69,4.604,5.167,5.214c0.143,0.379,0.408,2.677,0.881,3.414c0.214,0.331,0.484,0.389,0.897,0.301
			c0.332,1.183,1.717,2.269,2.859,2.16c0.8-0.077,1.381-0.63,1.641-1.371c0.204-0.578,0.367-1.244,0.469-1.89
			c0.55-0.017,0.815-0.071,0.79-0.588c-0.046-0.896-1.014-3.361-1.05-3.74C32.553,89.729,33.409,87.18,32.808,84.637z"/>
		<path fill="#AEB4FC" d="M29.154,84.382c-0.107-0.384-0.484-0.64-0.882-0.542c-0.372,0.086-0.652,0.501-0.54,0.885
			c0.066,0.235,0.24,0.426,0.449,0.512c-0.153,0.992-0.347,1.972-0.428,2.975c-0.077,0.934-0.153,1.842-0.357,2.748
			c-1.105-1.663-2.207-3.32-3.424-4.9c0.336-0.322,0.082-1.045-0.484-0.91c-0.667,0.158-0.423,1.201,0.25,1.043
			c0.005,0,0.01-0.006,0.015-0.01c1.264,1.795,2.502,3.615,3.532,5.563c0.112,0.209,0.417,0.163,0.489-0.053
			c0.336-1.002,0.433-2.025,0.504-3.074c0.082-1.131,0.301-2.241,0.393-3.367C29.011,85.134,29.256,84.745,29.154,84.382z"/>
		<path fill="#808AFF" d="M20.668,78.201c-1.422-0.707-2.849-1.417-4.271-2.129c-0.295-0.143-0.565,0.282-0.27,0.44
			c1.386,0.767,2.777,1.53,4.164,2.297C20.699,79.035,21.076,78.405,20.668,78.201z"/>
		<path fill="#808AFF" d="M23.344,72.777c-0.117-0.261-0.454-0.072-0.428,0.164c0.173,1.474,0.719,2.978,1.146,4.4
			c0.107,0.348,0.642,0.23,0.556-0.133C24.267,75.744,23.961,74.153,23.344,72.777z"/>
		<path fill="#808AFF" d="M29.969,72.347c-0.367,0.322-0.591,0.834-0.82,1.264c-0.24,0.45-0.454,0.911-0.658,1.376
			c-0.163,0.378,0.464,0.578,0.622,0.189c0.189-0.476,0.393-0.937,0.627-1.392c0.199-0.394,0.489-0.778,0.606-1.202
			C30.413,72.352,30.137,72.193,29.969,72.347z"/>
	</g>
</g>
<g id="Layer_2">
	<g>
		<g>
			<polygon fill="#890804" points="75.637,48.869 79.429,32.004 80.282,26.84 90.486,26.84 91.313,32.578 95.721,48.869 			"/>
			<g>
				<path fill="#CC936D" d="M79.303,145.692c-1.12-0.056-2.225-0.113-3.345-0.169c0.112-0.503,0.223-1.007,0.336-1.497
					c-0.084-1.189-0.183-2.38-0.266-3.582c1.05,0,2.112,0,3.163,0c-0.056,1.189-0.098,2.378-0.154,3.582
					C79.135,144.572,79.219,145.132,79.303,145.692z"/>
				<g>
					<path fill="#101010" d="M74.404,150.228c0,0.181,0.014,0.349,0.056,0.503c0.532,2.184,1.568,2.436,3.009,1.638
						c1.217-0.686,1.567-0.84,1.777-1.581c-0.644-0.477-1.596-0.799-2.673-0.854C75.761,149.891,75.02,150.003,74.404,150.228z"/>
					<path fill="#CC936D" d="M74.6,149.499c0,0.182-0.112,0.392-0.07,0.546c0.533,2.184,1.568,2.435,3.01,1.638
						c1.218-0.686,1.413-0.883,1.609-1.624c-0.644-0.476-1.428-0.756-2.52-0.812C75.831,149.205,75.201,149.275,74.6,149.499z"/>
					<path fill="#CC936D" d="M79.303,149.233c0-1.441,0-3.541,0-3.541l-3.345-0.169c0,0-0.826,1.498-1.274,3.01
						c0.56-0.154,1.19-0.237,1.875-0.21C77.692,148.379,78.659,148.743,79.303,149.233z"/>
					<path fill="#101010" d="M79.303,149.233c-0.644-0.49-1.611-0.84-2.744-0.91c-0.686-0.042-1.315,0.042-1.875,0.21
						c-0.182,0.587-0.294,1.176-0.28,1.694c0.616-0.225,1.357-0.337,2.155-0.295c1.078,0.056,2.03,0.378,2.673,0.854
						c0.042-0.127,0.057-0.267,0.057-0.393C79.303,150.17,79.303,149.75,79.303,149.233z"/>
					<path fill="#101010" d="M75.244,147.036c0,0,1.805-0.589,4.059,0.336v-1.68c-0.393-0.141-0.981-0.309-1.694-0.336
						c-0.687-0.028-1.246,0.07-1.638,0.167C75.888,145.665,75.804,145.817,75.244,147.036z"/>
					<path fill="#101010" d="M76.252,149.289c0,0,0.364-2.701,0.644-3.262l1.078,0.029l-0.253,3.344L76.252,149.289z"/>
				</g>
			</g>
			<g>
				<path fill="#CC936D" d="M91.563,145.692c1.121-0.056,2.227-0.113,3.346-0.169c-0.111-0.503-0.223-1.007-0.336-1.497
					c0.084-1.189,0.182-2.38,0.268-3.582c-1.051,0-2.113,0-3.164,0c0.057,1.189,0.098,2.378,0.152,3.582
					C91.732,144.572,91.648,145.132,91.563,145.692z"/>
				<g>
					<path fill="#101010" d="M96.463,150.228c0,0.181-0.014,0.349-0.057,0.503c-0.531,2.184-1.566,2.436-3.01,1.638
						c-1.217-0.686-1.568-0.84-1.775-1.581c0.643-0.477,1.594-0.799,2.67-0.854C95.105,149.891,95.846,150.003,96.463,150.228z"/>
					<path fill="#CC936D" d="M96.266,149.499c0,0.182,0.113,0.392,0.07,0.546c-0.531,2.184-1.566,2.435-3.008,1.638
						c-1.219-0.686-1.416-0.883-1.611-1.624c0.645-0.476,1.43-0.756,2.52-0.812C95.035,149.205,95.666,149.275,96.266,149.499z"/>
					<path fill="#CC936D" d="M91.563,149.233c0-1.441,0-3.541,0-3.541l3.346-0.169c0,0,0.826,1.498,1.273,3.01
						c-0.559-0.154-1.189-0.237-1.875-0.21C93.172,148.379,92.209,148.743,91.563,149.233z"/>
					<path fill="#101010" d="M91.563,149.233c0.646-0.49,1.609-0.84,2.744-0.91c0.686-0.042,1.316,0.042,1.875,0.21
						c0.184,0.587,0.295,1.176,0.281,1.694c-0.617-0.225-1.357-0.337-2.156-0.295c-1.078,0.056-2.029,0.378-2.672,0.854
						c-0.043-0.127-0.057-0.267-0.057-0.393C91.563,150.17,91.563,149.75,91.563,149.233z"/>
					<path fill="#101010" d="M95.623,147.036c0,0-1.807-0.589-4.061,0.336v-1.68c0.393-0.141,0.98-0.309,1.695-0.336
						c0.686-0.028,1.244,0.07,1.637,0.167C94.977,145.665,95.063,145.817,95.623,147.036z"/>
					<path fill="#101010" d="M94.615,149.289c0,0-0.363-2.701-0.645-3.262l-1.078,0.029l0.254,3.344L94.615,149.289z"/>
				</g>
			</g>
			<g>
				<g>
					<path fill="#C6C6C6" d="M97.063,142.543c-0.025,0.238-1.314,0.322-3.877,0.504c-2.518,0.182-3.777,0.267-3.848,0.041
						c-0.014,0-0.014,0.015-0.014,0.015c-0.029-10.23-0.057-20.475-0.098-30.706c1.916,0.588,3.82,1.175,5.736,1.764
						c0.703,9.447,1.402,18.894,2.1,28.341C97.063,142.516,97.063,142.529,97.063,142.543z"/>
				</g>
			</g>
			<g>
				<g>
					<path fill="#C6C6C6" d="M81.528,112.396c-0.027,10.231-0.056,20.476-0.098,30.706l-0.014-0.015
						c-0.07,0.211-1.344,0.127-3.848-0.041c-2.562-0.168-3.85-0.266-3.878-0.504c0-0.014,0-0.027,0-0.057
						c0.7-9.446,1.4-18.894,2.1-28.341C77.707,113.571,79.611,112.984,81.528,112.396z"/>
				</g>
			</g>
			<path fill="#C6C6C6" d="M80.269,42.584c1.707,1.525,3.414,3.038,5.122,4.563c1.833-1.526,3.654-3.038,5.486-4.563
				c-1.385-0.363-3.303-0.727-5.598-0.7C83.249,41.913,81.542,42.234,80.269,42.584z"/>
			<path fill="#FFFFFF" d="M85.573,46.28c-0.686-0.714-2.435-2.295-4.941-2.547c-1.231-0.126-2.31,0.112-2.701,0.196
				c-1.035,0.237-1.819,0.615-3.358,1.385c-0.7,0.35-1.525,0.784-2.463,1.316c-0.154,0.168-0.294,0.35-0.42,0.518
				c-1.441,2.029-1.162,4.548-0.896,5.85c-0.224,2.324-0.434,4.632-0.657,6.956c1.441-1.456,2.883-2.911,4.324-4.367
				c3.738,0.798,7.474,1.582,11.225,2.38"/>
			<path fill="#FFFFFF" d="M85.321,46.28c0.686-0.714,2.436-2.295,4.942-2.547c1.23-0.126,2.309,0.112,2.699,0.196
				c1.037,0.237,1.82,0.615,3.359,1.385c0.699,0.35,1.525,0.784,2.463,1.316c0.154,0.168,0.295,0.35,0.42,0.518
				c1.443,2.029,1.162,4.548,0.896,5.85c0.586,1.175,2.393,5.067,0.867,6.76c-0.07,0.07-0.127,0.14-0.209,0.196
				c-1.443-1.456-2.883-2.911-4.326-4.367c-3.736,0.798-7.475,1.582-11.225,2.38"/>
			<path fill="#CC936D" d="M92.041,43.341c-2.129,0.951-4.271,1.917-6.398,2.868c-2.295-0.979-4.591-1.973-6.885-2.953
				c1.049-0.335,2.113-0.686,3.163-1.022c0.335-1.413,0.671-2.827,1.007-4.24c1.805,0,3.611,0,5.416,0
				c0.252,1.399,0.504,2.798,0.756,4.198C90.08,42.584,91.061,42.963,92.041,43.341z"/>
			<path fill="#CC936D" d="M90.781,32.102c-0.016,0.281-0.127,1.162-0.324,2.911c-0.111,0.979-0.209,1.778-0.279,2.324
				c-0.406,0.826-1.287,2.31-2.913,3.218c-1.007,0.56-1.707,0.574-1.874,0.574c-0.924,0-1.595-0.377-2.071-0.686
				c-1.609-1.077-2.394-2.477-2.758-3.289c-0.056-0.406-0.14-1.008-0.223-1.735c-0.112-0.869-0.308-2.52-0.35-3.304
				c-0.098-1.469-0.294-4.338,1.582-6.13c1.483-1.413,3.414-1.469,3.821-1.469c0.406,0,2.394,0.027,3.892,1.469
				C91.115,27.763,90.877,30.619,90.781,32.102z"/>
			<path fill="#AF7151" d="M86.162,34.664c-0.084,0.07-0.309,0.237-0.645,0.266c-0.461,0.041-0.784-0.239-0.84-0.294
				c0.294,0,0.574,0.014,0.867,0.014C85.754,34.664,85.964,34.664,86.162,34.664z"/>
			<path fill="#FFFFFF" d="M79.821,42.851l-2.576,1.483c1.624,2.001,3.234,4.003,4.856,6.004c2.296,0.014,4.591,0.042,6.887,0.057
				c1.387-2.155,2.785-4.311,4.172-6.466c-0.674-0.336-1.346-0.672-2.018-1.007c-0.922,0.35-1.932,0.783-2.981,1.329
				c-0.951,0.49-1.818,1.008-2.575,1.498c-0.7-0.476-1.497-0.952-2.379-1.414C81.99,43.704,80.842,43.214,79.821,42.851z"/>
			<g>
				<g>
					<path fill="#FFFFFF" d="M84.313,32.229c-0.406-0.645-1.078-0.98-1.693-0.84c-0.63,0.14-0.953,0.7-1.021,0.825
						c0.237,0.14,0.671,0.364,1.259,0.392C83.558,32.634,84.076,32.368,84.313,32.229z"/>
					<g>
						<path fill="#513328" d="M82.438,32.074c0.028,0.321,0.294,0.545,0.616,0.531c0.323-0.027,0.546-0.294,0.533-0.616
							c-0.028-0.321-0.294-0.545-0.616-0.531C82.647,31.486,82.41,31.751,82.438,32.074z"/>
						<path d="M82.718,32.088c0.014,0.167,0.167,0.307,0.335,0.294c0.168-0.014,0.308-0.168,0.294-0.336
							c-0.015-0.167-0.167-0.308-0.336-0.294C82.83,31.751,82.703,31.906,82.718,32.088z"/>
						<path fill="#FFFFFF" d="M82.578,31.934c0,0.07,0.07,0.126,0.14,0.112c0.07-0.014,0.125-0.07,0.112-0.14
							c-0.014-0.07-0.07-0.126-0.141-0.112C82.62,31.794,82.578,31.864,82.578,31.934z"/>
					</g>
					<path d="M84.313,32.2c-0.042-0.042-0.657-0.755-1.567-0.616c-0.645,0.099-0.994,0.546-1.079,0.658
						c-0.027,0-0.042-0.014-0.069-0.028c-0.014,0-0.028-0.014-0.042-0.014c0.266-0.574,0.854-0.937,1.47-0.91
						C83.571,31.333,84.076,31.683,84.313,32.2z"/>
				</g>
				<g>
					<path fill="#FFFFFF" d="M86.567,32.229c0.42-0.63,1.105-0.953,1.722-0.798c0.629,0.154,0.938,0.728,1.006,0.854
						c-0.236,0.14-0.686,0.35-1.272,0.364C87.308,32.661,86.791,32.382,86.567,32.229z"/>
					<g>
						<path fill="#513328" d="M88.443,32.13c-0.029,0.309-0.309,0.546-0.631,0.504c-0.309-0.028-0.547-0.308-0.504-0.63
							c0.029-0.308,0.308-0.545,0.631-0.504C88.246,31.528,88.484,31.809,88.443,32.13z"/>
						<path d="M88.162,32.13c-0.014,0.168-0.168,0.294-0.35,0.28c-0.168-0.014-0.294-0.167-0.279-0.35
							c0.014-0.168,0.168-0.294,0.35-0.28C88.05,31.794,88.175,31.961,88.162,32.13z"/>
						<path fill="#FFFFFF" d="M88.302,31.976c-0.014,0.07-0.07,0.126-0.141,0.113c-0.069-0.014-0.126-0.07-0.111-0.14
							c0.014-0.07,0.07-0.126,0.14-0.112C88.259,31.85,88.316,31.906,88.302,31.976z"/>
					</g>
					<path d="M86.567,32.214c0.042-0.042,0.686-0.741,1.581-0.574c0.631,0.111,0.981,0.574,1.063,0.686
						c0.029,0,0.043-0.014,0.072-0.014c0.012,0,0.027-0.013,0.041-0.013c-0.252-0.588-0.827-0.966-1.442-0.938
						C87.322,31.36,86.818,31.696,86.567,32.214z"/>
				</g>
				<path d="M86.86,30.339c0.112,0.097,0.435,0.35,0.966,0.545c0.729,0.28,1.247,0.21,1.358,0.168
					c0.154-0.042,0.281-0.127,0.281-0.127c0.098-0.07,0.168-0.14,0.25-0.237c0.1-0.112,0.211-0.267,0.338-0.448
					c-0.029,0.014-0.059,0.028-0.098,0.042c0,0-0.184,0.07-0.379,0.112c-0.715,0.14-1.568-0.126-1.568-0.126
					c-0.546-0.167-0.966-0.448-1.245-0.671c-0.043,0.013-0.154,0.056-0.225,0.167c-0.043,0.056-0.057,0.112-0.057,0.154
					C86.552,30.059,86.693,30.199,86.86,30.339z"/>
			</g>
			<g>
				<path d="M83.74,30.353c-0.112,0.083-0.448,0.336-0.966,0.532c-0.728,0.266-1.246,0.196-1.357,0.154
					c-0.154-0.042-0.266-0.126-0.266-0.126c-0.099-0.07-0.168-0.14-0.238-0.238c-0.099-0.112-0.21-0.266-0.336-0.448
					c0.028,0.014,0.056,0.028,0.099,0.042c0,0,0.182,0.07,0.377,0.111c0.714,0.154,1.568-0.097,1.568-0.097
					c0.56-0.168,0.979-0.434,1.259-0.658c0.042,0.014,0.154,0.057,0.224,0.168c0.042,0.056,0.057,0.111,0.057,0.154
					C84.062,30.073,83.921,30.213,83.74,30.353z"/>
			</g>
			<path fill="#FFFFFF" d="M74.474,55.615c-1.47,28.565-2.938,52.357-4.422,80.924c3.135,0.854,5.682,1.091,7.362,1.161
				c6.801,0.28,8.285-1.847,14.122-0.951c1.037,0.154,2.297,0.434,3.977,0.504c0.488,0.027,0.938,0.027,1.285,0.027
				c0,0,0.352,0,0.701-0.013c1.244-0.058,3.164-0.364,3.33-0.393c-1.455-28.874-2.926-52.975-4.379-81.848
				c-4.34,0.476-9.057,0.77-14.124,0.784C79.582,55.825,76.965,55.755,74.474,55.615z"/>
			<rect x="85.237" y="35.321" fill="#C48C66" width="0.378" height="0.84"/>
			<path fill="#C6C6C6" d="M93.146,43.914c-2.172,1.12-4.326,2.24-6.496,3.346v12.428l-1.092,1.007V45.244
				c0.98-0.658,2.156-1.344,3.514-1.959c0.615-0.281,1.217-0.518,1.791-0.714C91.635,43.033,92.389,43.481,93.146,43.914z"/>
			<path fill="#C6C6C6" d="M77.889,43.942l6.592,3.331v12.429l1.091,1.007V45.258c-0.98-0.658-2.155-1.344-3.513-1.959
				c-0.616-0.28-1.218-0.518-1.791-0.714C79.471,43.033,78.672,43.494,77.889,43.942z"/>
			<path d="M85.404,35.35c-1.441,0-2.448,0.657-2.798,0.91c-0.154,0.28-0.323,0.63-0.434,1.063c-0.238,0.896-0.153,1.666-0.07,2.114
				c1.008,1.427,2.17,2.127,3.317,2.127c1.148,0,2.323-0.7,3.318-2.127c0.07-0.672,0.07-1.525-0.154-2.464
				c-0.057-0.209-0.112-0.42-0.182-0.616C88.078,36.119,86.987,35.35,85.404,35.35z M84.929,37.785
				c-0.042,0.112-0.182,0.447-0.517,0.587c0,0-0.49,0.224-1.134-0.182l0,0c-0.126-0.084-0.154-0.266-0.167-0.35
				c-0.028-0.196,0.07-0.546,0.322-0.938c0.28-0.182,0.993-0.587,1.987-0.602c1.036-0.014,1.778,0.406,2.044,0.588
				c0.225,0.392,0.308,0.741,0.279,0.937c-0.014,0.084-0.041,0.28-0.181,0.364l0,0c-0.659,0.377-1.134,0.182-1.134,0.182
				c-0.309-0.14-0.449-0.433-0.504-0.56C85.601,37.799,85.265,37.785,84.929,37.785z"/>
			<g>
				<path fill="#AF1919" d="M73.088,44.936c-0.014,0.084-0.028,0.168-0.042,0.267l0.013-0.182L73.088,44.936z"/>
			</g>
			<g>
				<path fill="#AF1919" d="M98.771,52.018c-0.055-0.097-0.154-0.237-0.295-0.377c0,0-0.055-0.043-0.139-0.112
					c-0.07-0.057-0.154-0.113-0.252-0.154c-0.951-0.462-2.449-0.224-2.449-0.224c-0.506,0.084-1.219,0.237-2.057,0.546
					c-0.408,0.154-0.854,0.335-1.316,0.56c0.014-0.197,0.014-0.378,0.014-0.56c0.057-2.197-0.084-3.988-0.236-5.263
					c-0.1-0.812-0.17-1.217-0.744-4.591c-0.502-3.051-0.768-4.562-0.768-4.632c-0.141-1.931-0.184-6.438-0.381-8.859
					c-0.014-0.252-0.055-0.617-0.32-0.854c-0.602-0.533-1.54,0.35-3.08,0.111c-0.938-0.154-0.938-0.531-1.861-0.56
					c-0.756-0.028-0.938,0.224-1.917,0.308c-1.176,0.098-1.484-0.21-1.876-0.056c-0.853,0.307-0.755,5.359-0.728,6.634
					c0.07,3.849-0.434,6.816-1.427,12.764c-0.336,1.987-0.672,3.667-0.951,4.871c-0.042,0.196-0.085,0.377-0.127,0.546
					c-0.097-0.028-1.217-0.435-2.057-0.602c-0.084-0.014-0.154-0.028-0.224-0.043c-0.545-0.084-0.965-0.027-1.246,0
					c-1.021,0.113-2.421,0.587-2.477,0.602c-0.21-2.854,0.195-5.108,0.574-6.521c0.546-2.085,1.343-3.709,1.763-4.535
					c0.49-0.966,0.951-1.75,1.33-2.337l3.093-7.222c0.868-3.569,0.7-5.725,2.744-7.292c0.336-0.266,0.7-0.462,1.05-0.63
					c0.938-0.49,1.805-0.616,2.168-0.671c0.603-0.084,1.932-0.266,3.345,0.392c0.1,0.042,0.184,0.084,0.267,0.14c0,0,0,0,0.015,0
					c0.307,0.126,0.629,0.294,0.938,0.49c2.338,1.539,2.17,4.044,3.568,8.313c1.777,5.431,4.254,8.286,5.684,12.569
					c0,0.014,0.014,0.027,0.014,0.027C99.568,48.239,99.373,50.492,98.771,52.018z"/>
				<path d="M90.738,25.161H79.975c-0.307,0-0.56-0.252-0.56-0.56l0,0c0-0.309,0.252-0.56,0.56-0.56h10.764
					c0.309,0,0.559,0.251,0.559,0.56l0,0C91.297,24.908,91.047,25.161,90.738,25.161z"/>
				<path d="M91.186,26.28H79.541c-0.308,0-0.56-0.252-0.56-0.56l0,0c0-0.309,0.251-0.56,0.56-0.56h11.645
					c0.309,0,0.561,0.251,0.561,0.56l0,0C91.732,26.028,91.48,26.28,91.186,26.28z"/>
			</g>
			<g>
				<path fill="#AF7151" d="M83.921,37.392c0.042,0.084,0.532-0.21,1.287-0.28c0.966-0.083,1.651,0.322,1.693,0.21
					c0.043-0.098-0.392-0.461-0.909-0.602c-0.602-0.168-1.134,0-1.371,0.111C84.243,37.015,83.893,37.322,83.921,37.392z"/>
			</g>
		</g>
		<path fill="#C68A6A" d="M95.537,35.461c-0.137-0.966-0.223-1.694-0.277-2.17c0,0-0.211-1.721-0.699-2.519
			c-0.254-0.42-0.24-0.196-2.24-1.974c-0.043-0.027-0.395-0.35-0.926-0.657c-0.434-0.252-1.049-0.617-1.314-0.407
			c-0.197,0.154-0.1,0.545-0.086,0.574c0.127,0.504,0.617,0.63,1.246,1.064c0.24,0.168,1.135,0.797,1.555,1.819
			c0.197,0.448,0.391,1.246,0.086,1.456c-0.184,0.125-0.506,0.027-0.701-0.084c-0.49-0.294-0.352-0.813-0.965-1.638
			c-0.24-0.321-0.406-0.447-0.588-0.447c-0.17,0-0.324,0.111-0.406,0.251c-0.127,0.21-0.043,0.434,0.027,0.7
			c0.07,0.224,0.141,0.35,0.266,0.56c0.209,0.393,0.379,0.729,0.42,0.826c0.225,0.49,0.238,0.84,0.295,1.162
			c0.098,0.462,0.35,1.106,1.092,1.848c0.068,0.28,0.152,0.56,0.223,0.854C93.551,36.259,94.545,35.854,95.537,35.461z"/>
		<path fill="#C68A6A" d="M75.244,35.35c0.182-0.854,0.294-1.568,0.364-2.072c0,0,0.237-1.763,0.7-2.519
			c0.251-0.42,0.237-0.196,2.24-1.974c0.042-0.027,0.391-0.35,0.923-0.657c0.434-0.252,1.05-0.616,1.315-0.407
			c0.196,0.154,0.099,0.547,0.084,0.574c-0.127,0.504-0.616,0.63-1.246,1.064c-0.238,0.168-1.134,0.798-1.554,1.82
			c-0.196,0.447-0.392,1.245-0.083,1.455c0.182,0.126,0.503,0.027,0.699-0.084c0.49-0.294,0.35-0.812,0.967-1.637
			c0.237-0.323,0.406-0.448,0.587-0.448c0.167,0,0.321,0.112,0.406,0.251c0.125,0.21,0.042,0.434-0.027,0.7
			c-0.071,0.224-0.14,0.35-0.267,0.56c-0.21,0.393-0.377,0.729-0.42,0.827c-0.223,0.503-0.21,0.783-0.293,1.162
			c-0.099,0.42-0.364,0.979-1.037,1.581c-0.069,0.336-0.126,0.658-0.196,0.994C77.33,36.146,76.294,35.755,75.244,35.35z"/>
		<path fill="#FFFFFF" d="M74.67,34.37c0.658,0.294,1.387,0.587,2.184,0.854c0.896,0.307,1.736,0.546,2.519,0.727
			c-3.078,8.006-6.144,16.025-9.223,24.031c-1.594,0.728-3.401,0.546-4.618-0.49c-1.19-1.008-1.357-2.436-1.385-2.785
			C67.645,49.261,71.157,41.815,74.67,34.37z"/>
		<path fill="#FFFFFF" d="M96.336,34.649c-0.658,0.294-1.385,0.587-2.184,0.854c-0.895,0.307-1.734,0.546-2.518,0.728
			c3.037,7.921,6.074,15.828,9.109,23.751c1.555,0.713,3.318,0.574,4.578-0.392c1.174-0.91,1.482-2.211,1.553-2.603
			C103.361,49.541,99.848,42.095,96.336,34.649z"/>
	</g>
</g>
</svg>
