<?xml version="1.0" encoding="utf-8"?>
<!-- Generator: Adobe Illustrator 26.0.1, SVG Export Plug-In . SVG Version: 6.00 Build 0)  -->
<svg version="1.1" id="Layer_1" xmlns="http://www.w3.org/2000/svg" xmlns:xlink="http://www.w3.org/1999/xlink" x="0px" y="0px"
	 viewBox="0 0 404 531.2" style="enable-background:new 0 0 404 531.2;" xml:space="preserve">
<style type="text/css">
	.st0{fill:#FFFFFF;}
	.st1{fill:#BDDEEF;}
	.st2{fill:none;stroke:#FFFFFF;stroke-width:1.515;stroke-miterlimit:10;}
	.st3{fill:#C098EA;}
	.st4{fill:#4C6580;}
	.st5{fill:#890804;}
	.st6{fill:#CC936D;}
	.st7{fill:#101010;}
	.st8{fill:#C6C6C6;}
	.st9{fill:#AF7151;}
	.st10{fill:#513328;}
	.st11{fill:#C48C66;}
	.st12{fill:#AF1919;}
</style>
<path class="st0" d="M407.6,106.7c-5.3,8.9-13.7,14.7-23.2,14.7c-15.9,0-28.8-16.3-28.8-36.4c0-7,1.6-13.6,4.3-19.2
	C360,65.9,405.2,104.1,407.6,106.7"/>
<path class="st0" d="M-77.6,299.6c4.4-22.4,13.3-53.2,30.2-72.7c4.5-1.5,9.2-2.8,13.9-3.8c16.3-3.6,32.8-4.2,44.8-1.2
	c18.4,4.7,21.3-11.7,37.8-11.6s22.7,7.4,22.7,7.4"/>
<path class="st0" d="M-71.8,298.4c31.1-35.1,66.3-17.5,83.1-4.1c0,0-27,7.8-42.7,21.3c-21.2,16.1-27-5.7-50.3,11.7"/>
<path class="st0" d="M71.8,217.8c-30.3-4.7-15.7,43.6-50.4,36.1c-16.5-2.8-21.3-1.3-30.1,8.6c-29.5,18.7-36.5-17.5-63.2,35.9"/>
<path class="st0" d="M475.4,271.7c0-0.4,0-0.8,0-1.2c-5.7,2.8-11,4.6-15.8,5.3c-3.1,0.5-12.9,1.4-25,6.2
	c-13.9,5.6-24.4,13.6-29.8,17.9c-6.1,4.8-10.9,9.3-14.2,12.6c0,0-2.4-20.6,9.6-40s26-23.3,35.4-34.5c8-9.6,6.5-16.9,12.3-27.6
	c-7.6,4.6-16.4,8.5-26.6,7.5c-21.8-2.1-31.9-18.1-31.9-18.1s15.3-2.7,23.4-11.2s14.8-27,30.5-31.5c0.2-0.1,0.4-0.1,0.6-0.1
	C443.9,156.9,477.3,232,475.4,271.7"/>
<path class="st0" d="M156.1,484.1c-3,2.1-5.7,4.6-8.7,6.7c-2.3,1.6-4.7,3-7.1,4.4c2.1-2,4.1-4.2,5.9-6.5l-0.3-0.2
	c-2.5,1.9-4.4,4.6-6.5,7v0.2c-1,0.6-2,1.1-3.1,1.7c-4.6,2.5-9.5,4.7-14.2,7.1c2.9-2.4,5.3-5.3,8.4-7.6c0.2-0.1,0-0.4-0.2-0.3
	c-3.9,1.8-6.7,5.7-9.7,8.6l-0.1,0.2c-1.8,0.9-3.6,1.9-5.3,3c-0.3,0.2,0,0.6,0.3,0.5c7.6-3.5,15.1-7.1,22.5-11
	c6.3-3.3,14.1-7.3,18.4-13.2C156.6,484.3,156.3,484,156.1,484.1"/>
<path class="st0" d="M135.7,460.1c-3.3,4.8-5.6,10.5-8.4,15.6c-3.3,5.9-7.1,11.4-11.4,16.6l0.2,0.2c4.5-4.4,8-9.8,11.1-15.2
	c3.2-5.4,6.6-11.2,8.8-17C136.1,460.1,135.8,460,135.7,460.1"/>
<path class="st0" d="M134.1,436.5c-4.8,9.1-8.5,18.6-13.9,27.4l0.2,0.2c6.4-7.8,10.2-18.2,14-27.4L134.1,436.5z"/>
<path class="st0" d="M142.2,498.8c-2,0.4-3.9,1.1-5.8,1.8c-2.1,0.7-4.4,1.2-6.5,1.9v0.3c4.1-0.1,8.6-2.3,12.4-3.8L142.2,498.8z"/>
<path class="st0" d="M155.6,488c-1.2,0.5-2.3,1.2-3.4,1.8c-1.2,0.6-2.4,1.2-3.6,1.9c-0.2,0.1-0.1,0.4,0.1,0.3c2.3-0.9,5.5-1.9,7-3.8
	L155.6,488z"/>
<path class="st0" d="M286.8,475c-2.6-1.8-5.4-3.1-8-4.9c-2.9-2.1-5.5-4.6-8-7.2c-0.2-0.3-0.6,0.1-0.4,0.4c4.1,4.9,9.9,10.4,16.2,12
	L286.8,475z"/>
<path class="st0" d="M245.2,424.2c2.1,4.6,4.3,9.1,7,13.5c-0.2-7.1-0.6-14.4-0.1-21.5c0.1-0.6,0.9-0.6,1,0c0.3,4.3,0.3,8.6,0.3,12.9
	c0.5-0.9,0.9-1.8,1.2-2.8c0.5-1.5,0.3-3.1,0.5-4.7h0.3c1.2,2.8-0.3,6.2-2.1,8.5c0,3-0.1,5.9,0,8.8c0.1,7.3,0.4,14.6,0.9,21.9
	c2.7-8,6.2-15.5,8.4-23.7h0.3c-1.1,8.4-5,16.7-8.6,24.2l-0.1,0.1v0.5c0.7,9.4,1.8,18.7,3.7,27.9c5.1-8.7,8.6-17.4,11.7-27
	c0.1-0.2,0.4-0.1,0.3,0.1c-1.6,9.4-5.9,20-11.8,27.5H258c1.3,6.1,2.9,12.1,5,18c0.1,0.3-0.3,0.4-0.4,0.1
	c-5.2-14.1-7.7-28.9-9.1-43.8c-0.7-8.1-1.1-16.3-1.3-24.5c0-0.6,0-1.2-0.1-1.8c-3.1-4.2-6-9.1-7.2-14.2H245.2z"/>
<path class="st0" d="M217.3,484.1c3,2.1,5.7,4.6,8.7,6.7c2.3,1.6,4.7,3,7.1,4.4c-2.1-2-4.1-4.2-5.9-6.5l0.3-0.2
	c2.5,1.9,4.4,4.6,6.5,7v0.2c1,0.6,2,1.1,3.1,1.7c4.6,2.5,9.5,4.7,14.2,7.1c-2.9-2.4-5.3-5.3-8.4-7.6c-0.2-0.1,0-0.4,0.2-0.3
	c3.9,1.8,6.7,5.7,9.7,8.6l0.1,0.2c1.8,0.9,3.6,1.9,5.3,3c0.3,0.2,0,0.6-0.3,0.5c-7.6-3.5-15.1-7.1-22.5-11
	c-6.3-3.3-14.1-7.3-18.4-13.2C216.8,484.3,217.1,484,217.3,484.1"/>
<path class="st0" d="M265.9,506.2c1.1-0.7,2.1-1.4,3.1-2.1l0,0c1.6-3.1,3.8-5.8,5.4-8.9c1.8-3.4,3.3-7.1,4.3-10.9l0.3,0.1
	c-0.6,4-2.2,7.6-3.9,11.2c-1.1,2.3-2.4,5.1-4.2,7.2c3.8-2.6,7.5-5.4,11-8.3c2.5-6.6,5-13.2,7.5-19.8c0.1-0.2,0.5-0.1,0.4,0.1
	c-1.9,6.4-4,13-7.1,19c1.9-1.7,3.8-3.4,5.6-5.2c2-2,3.8-4.1,5.5-6.2l-0.1-0.2c1.1-4.3,2.7-8.7,4.3-12.9l0.3,0.1
	c-1.4,3.9-2,8.4-3.9,12.1c1.2-1.5,2.3-3.1,3.4-4.8c2.5-3.8,3.7-8,6-11.8c0.1-0.2,0.5-0.1,0.5,0.1c-0.4,3.9-2.9,7.9-4.9,11.2
	c-2.7,4.4-6,8.4-9.5,12.1c-5.1,5.4-11,10.4-17.3,14.4c2.3-0.2,4.5-0.3,6.8-0.9c3-0.8,5.8-2.3,8.5-3.8c0.2-0.1,0.4,0.2,0.2,0.3
	c-4.7,3-10.9,6.1-16.6,5c-1.8,1.1-3.6,2.1-5.4,3.1C265.9,506.6,265.7,506.3,265.9,506.2"/>
<path class="st0" d="M237.7,460.1c3.3,4.8,5.6,10.5,8.4,15.6c3.3,5.9,7.1,11.4,11.4,16.6l-0.2,0.2c-4.5-4.4-8-9.8-11.1-15.2
	c-3.2-5.4-6.6-11.2-8.8-17C237.3,460.1,237.6,460,237.7,460.1"/>
<path class="st0" d="M239.3,436.5c4.8,9.1,8.5,18.6,13.9,27.4l-0.2,0.2c-6.4-7.8-10.2-18.2-14-27.4L239.3,436.5z"/>
<path class="st0" d="M231.2,498.8c2,0.4,3.9,1.1,5.8,1.8c2.1,0.7,4.4,1.2,6.5,1.9v0.3c-4.1-0.1-8.6-2.3-12.4-3.8L231.2,498.8z"/>
<path class="st0" d="M217.8,488c1.2,0.5,2.3,1.2,3.4,1.8c1.2,0.6,2.4,1.2,3.6,1.9c0.2,0.1,0.1,0.4-0.1,0.3c-2.3-0.9-5.5-1.9-7-3.8
	L217.8,488z"/>
<path class="st0" d="M290.1,488.5c2.1-1.4,4.3-2.5,6.4-4c2.3-1.7,4.4-3.7,6.4-5.7c0.2-0.2,0.5,0.1,0.3,0.3c-3.3,3.9-7.9,8.3-13,9.6
	L290.1,488.5z"/>
<path class="st1" d="M367.2,201.5c0,9.8-6.3,17.8-14.1,17.8s-14.1-8-14.1-17.8s6.3-17.8,14.1-17.8S367.2,191.6,367.2,201.5"/>
<path class="st1" d="M52.1,156.4c0,1.5-0.9,2.7-2.1,2.7c-1.2,0-2.1-1.2-2.1-2.7s0.9-2.7,2.1-2.7C51.2,153.7,52.1,154.9,52.1,156.4"
	/>
<path class="st1" d="M69.9,161.4c0,1.5-0.9,2.7-2.1,2.7s-2.1-1.2-2.1-2.7s0.9-2.7,2.1-2.7C68.9,158.8,69.9,160,69.9,161.4"/>
<path class="st1" d="M129.2,81.8c0,1.5-0.9,2.7-2.1,2.7c-1.2,0-2.1-1.2-2.1-2.7s0.9-2.7,2.1-2.7C128.3,79.1,129.2,80.3,129.2,81.8"
	/>
<path class="st1" d="M406.1,318.2c0,1.5-0.9,2.7-2.1,2.7s-2.1-1.2-2.1-2.7s0.9-2.7,2.1-2.7S406.1,316.7,406.1,318.2"/>
<path class="st1" d="M413.3,311c0,1.5-0.9,2.7-2.1,2.7s-2.1-1.2-2.1-2.7s0.9-2.7,2.1-2.7S413.3,309.5,413.3,311"/>
<path class="st1" d="M65.6,147.7c0,2.4-1.5,4.3-3.4,4.3s-3.4-1.9-3.4-4.3s1.5-4.3,3.4-4.3S65.6,145.4,65.6,147.7"/>
<ellipse class="st2" cx="54.4" cy="306" rx="4.4" ry="5.6"/>
<ellipse class="st2" cx="303.9" cy="68.7" rx="4.4" ry="5.6"/>
<ellipse class="st2" cx="87.3" cy="50.9" rx="14.1" ry="17.7"/>
<ellipse class="st2" cx="-28.1" cy="367.5" rx="28.8" ry="36.4"/>
<path class="st3" d="M198.2,360.2c0.5,0,1,0,1.4,0l0,0C199.2,360.2,198.7,360.2,198.2,360.2"/>
<path class="st3" d="M196.7,360.2c0.5,0,0.9,0,1.4,0C197.6,360.2,197.2,360.2,196.7,360.2L196.7,360.2z"/>
<polyline class="st4" points="516.5,49 469.3,49 469.3,-11.3 "/>
<g>
	<polygon class="st5" points="159,124.2 172.8,62.9 175.9,44.1 213,44.1 216,65 232,124.2 	"/>
	<g>
		<path class="st6" d="M172.3,493.4c-4-0.2-8.1-0.4-12.1-0.6c0.4-1.8,0.8-3.6,1.2-5.5c-0.3-4.3-0.6-8.7-1-13c3.8,0,7.7,0,11.5,0
			c-0.2,4.3-0.4,8.7-0.5,13C171.7,489.3,172,491.3,172.3,493.4z"/>
		<g>
			<path class="st7" d="M154.5,509.8c0,0.6,0.1,1.3,0.2,1.8c1.9,8,5.7,8.9,10.9,6c4.4-2.5,5.7-3.1,6.4-5.8c-2.3-1.7-5.8-2.9-9.7-3.1
				C159.5,508.6,156.8,509,154.5,509.8z"/>
			<path class="st6" d="M155.2,507.2c0,0.6-0.4,1.4-0.3,2c1.9,8,5.7,8.9,10.9,6c4.4-2.5,5.1-3.2,5.9-5.9c-2.3-1.7-5.2-2.8-9.1-3
				C159.7,506.1,157.5,506.4,155.2,507.2z"/>
			<path class="st6" d="M172.3,506.2c0-5.2,0-12.9,0-12.9l-12.1-0.6c0,0-3,5.4-4.6,10.9c2-0.6,4.3-0.9,6.8-0.7
				C166.5,503.1,170,504.4,172.3,506.2z"/>
			<path class="st7" d="M172.3,506.2c-2.3-1.8-5.9-3.1-9.9-3.3c-2.5-0.1-4.8,0.2-6.8,0.7c-0.6,2.1-1.1,4.3-1,6.1
				c2.2-0.8,4.9-1.2,7.8-1.1c3.9,0.2,7.4,1.4,9.7,3.1c0.1-0.5,0.2-1,0.2-1.4C172.3,509.6,172.3,508.1,172.3,506.2z"/>
			<path class="st7" d="M157.6,498.2c0,0,6.5-2.1,14.8,1.2v-6.1c-1.4-0.5-3.6-1.1-6.2-1.2c-2.5-0.1-4.5,0.2-6,0.6
				C159.9,493.3,159.6,493.8,157.6,498.2z"/>
			<path class="st7" d="M161.2,506.4c0,0,1.3-9.8,2.3-11.9l3.9,0.1l-0.9,12.1L161.2,506.4z"/>
		</g>
	</g>
	<g>
		<path class="st6" d="M216.9,493.4c4-0.2,8.1-0.4,12.1-0.6c-0.4-1.8-0.8-3.6-1.2-5.5c0.3-4.3,0.6-8.7,1-13c-3.8,0-7.7,0-11.5,0
			c0.2,4.3,0.4,8.7,0.5,13C217.5,489.3,217.2,491.3,216.9,493.4z"/>
		<g>
			<path class="st7" d="M234.7,509.8c0,0.6-0.1,1.3-0.2,1.8c-1.9,8-5.7,8.9-10.9,6c-4.4-2.5-5.7-3.1-6.4-5.8
				c2.3-1.7,5.8-2.9,9.7-3.1C229.7,508.6,232.4,509,234.7,509.8z"/>
			<path class="st6" d="M234,507.2c0,0.6,0.4,1.4,0.3,2c-1.9,8-5.7,8.9-10.9,6c-4.4-2.5-5.1-3.2-5.9-5.9c2.3-1.7,5.2-2.8,9.1-3
				C229.5,506.1,231.8,506.4,234,507.2z"/>
			<path class="st6" d="M216.9,506.2c0-5.2,0-12.9,0-12.9l12.1-0.6c0,0,3,5.4,4.6,10.9c-2-0.6-4.3-0.9-6.8-0.7
				C222.8,503.1,219.2,504.4,216.9,506.2z"/>
			<path class="st7" d="M216.9,506.2c2.3-1.8,5.9-3.1,9.9-3.3c2.5-0.1,4.8,0.2,6.8,0.7c0.6,2.1,1.1,4.3,1,6.1
				c-2.2-0.8-4.9-1.2-7.8-1.1c-3.9,0.2-7.4,1.4-9.7,3.1c-0.1-0.5-0.2-1-0.2-1.4C216.9,509.6,216.9,508.1,216.9,506.2z"/>
			<path class="st7" d="M231.7,498.2c0,0-6.5-2.1-14.8,1.2v-6.1c1.4-0.5,3.6-1.1,6.2-1.2c2.5-0.1,4.5,0.2,6,0.6
				C229.3,493.3,229.6,493.8,231.7,498.2z"/>
			<path class="st7" d="M228,506.4c0,0-1.3-9.8-2.3-11.9l-3.9,0.1l0.9,12.1L228,506.4z"/>
		</g>
	</g>
	<g>
		<g>
			<path class="st8" d="M236.9,481.9c-0.1,0.8-4.8,1.2-14.1,1.8c-9.2,0.6-13.7,0.9-14,0.2c0,0,0,0-0.1,0
				c-0.1-37.2-0.2-74.4-0.3-111.6c6.9,2.1,13.9,4.3,20.8,6.4c2.5,34.3,5.1,68.6,7.6,103C236.8,481.8,236.9,481.9,236.9,481.9z"/>
		</g>
	</g>
	<g>
		<g>
			<path class="st8" d="M180.4,372.4c-0.1,37.2-0.2,74.4-0.3,111.6c0,0,0,0-0.1,0c-0.3,0.8-4.9,0.5-14-0.2c-9.3-0.6-14-1-14.1-1.8
				c0-0.1,0-0.1,0-0.2c2.5-34.3,5.1-68.6,7.6-103C166.5,376.6,173.5,374.5,180.4,372.4z"/>
		</g>
	</g>
	<path class="st8" d="M175.8,101.3c6.2,5.5,12.4,11,18.6,16.6c6.6-5.5,13.3-11,19.9-16.6c-5-1.3-12-2.7-20.4-2.5
		C186.7,98.9,180.5,100.1,175.8,101.3z"/>
	<path class="st0" d="M250.5,130.9c-0.2-1.3-0.4-3.5-1.3-6.2c-0.5-1.7-1.1-3.1-1.4-3.9c-1.2-1.5-2.5-3-4.1-4.5
		c-9.8-9.3-21.9-11.6-28.8-12.2c-6.6,3.5-13.2,7-19.8,10.6c-2.5-2.6-8.8-8.3-18-9.2c-4.5-0.4-8.4,0.4-9.8,0.7
		c-3.8,0.8-6.6,2.3-12.2,5c-2.5,1.3-5.6,2.9-8.9,4.8c-3.2,3.2-3.7,6.5-4.8,23.2c-0.8,12-1.2,22.3-1.6,30.4H254
		C252.3,149.5,250.9,134.7,250.5,130.9z"/>
	<path class="st6" d="M218.8,106.8c-7.8,2.6-15.6,5.2-23.4,7.8c-8-2.5-16.1-5.1-24.1-7.6c3.5-2.3,7.1-4.6,10.6-6.8
		c1.2-5.1,2.4-10.3,3.7-15.4c6.6,0,13.1,0,19.7,0c0.9,5.1,1.8,10.2,2.7,15.3C211.6,102.2,215.2,104.5,218.8,106.8z"/>
	<path class="st6" d="M214,63.3c-0.1,1-0.4,4.2-1.2,10.6c-0.4,3.6-0.8,6.5-1,8.4c-1.5,3-4.7,8.4-10.6,11.7c-3.6,2-6.2,2.1-6.8,2.1
		c-3.3,0-5.8-1.4-7.5-2.5c-5.8-3.9-8.7-9-10-12c-0.2-1.5-0.5-3.7-0.8-6.3c-0.4-3.2-1.1-9.2-1.3-12c-0.3-5.3-1.1-15.8,5.7-22.3
		c5.4-5.1,12.4-5.3,13.9-5.4c1.5,0,8.7,0.1,14.1,5.4C215.3,47.5,214.4,57.9,214,63.3z"/>
	<g>
		<path class="st9" d="M200.1,80.8c0.1,0.5-1.2,1.1-2,1.4c-0.7,0.2-1.2,0.3-3.8,0.2c-2.5,0-2.9-0.1-3.6-0.3
			c-0.7-0.2-2.2-0.9-2.1-1.3c0.1-0.5,2.3-0.5,6.1-0.5C199.8,80.3,200.1,80.6,200.1,80.8z"/>
	</g>
	<path class="st9" d="M197.3,72.6c-0.3,0.2-1.1,0.9-2.4,1c-1.7,0.1-2.9-0.9-3.1-1.1c1,0,2.1,0,3.1,0.1
		C195.8,72.5,196.5,72.6,197.3,72.6z"/>
	<path class="st0" d="M174.2,102.3l-9.4,5.4c5.9,7.3,11.8,14.6,17.6,21.8c8.3,0.1,16.7,0.1,25,0.2c5.1-7.8,10.1-15.7,15.2-23.5
		c-2.4-1.2-4.9-2.4-7.3-3.6c-3.3,1.3-7,2.9-10.9,4.9c-3.5,1.8-6.6,3.6-9.4,5.4c-2.6-1.7-5.4-3.5-8.6-5.1
		C182.1,105.4,178,103.6,174.2,102.3z"/>
	<g>
		<g>
			<path class="st0" d="M189.3,63.5c-1.5-2.3-3.9-3.5-6.2-3c-2.3,0.5-3.5,2.6-3.7,3c0.8,0.5,2.5,1.3,4.6,1.4
				C186.5,65,188.4,64,189.3,63.5z"/>
			<g>
				<path class="st10" d="M182.5,62.9c0.1,1.1,1.1,2,2.2,1.9c1.1-0.1,2-1.1,1.9-2.2c-0.1-1.1-1.1-2-2.2-1.9
					C183.2,60.8,182.4,61.8,182.5,62.9z"/>
				<path d="M183.5,63c0.1,0.6,0.6,1.1,1.2,1.1c0.6,0,1.1-0.6,1.1-1.2c0-0.6-0.6-1.1-1.2-1.1C183.9,61.8,183.4,62.3,183.5,63z"/>
				<path class="st0" d="M183,62.4c0,0.3,0.2,0.5,0.5,0.4s0.5-0.2,0.4-0.5c0-0.3-0.2-0.5-0.5-0.4C183.1,61.9,182.9,62.2,183,62.4z"
					/>
			</g>
			<path d="M189.3,63.4c-0.1-0.2-2.4-2.7-5.7-2.2c-2.3,0.4-3.6,2-3.9,2.4c-0.1,0-0.2,0-0.2-0.1c-0.1,0-0.1,0-0.2-0.1
				c1-2.1,3.1-3.4,5.3-3.3C186.6,60.3,188.4,61.5,189.3,63.4z"/>
		</g>
		<g>
			<path class="st0" d="M199.9,63.5c1.5-2.3,4-3.4,6.2-2.9c2.3,0.6,3.4,2.6,3.6,3.1c-0.9,0.5-2.5,1.3-4.6,1.3
				C202.6,65,200.7,64,199.9,63.5z"/>
			<g>
				<path class="st10" d="M206.7,63.1c-0.1,1.1-1.1,2-2.3,1.9c-1.1-0.1-2-1.1-1.9-2.3c0.1-1.1,1.1-2,2.3-1.9
					C206,60.9,206.8,61.9,206.7,63.1z"/>
				<path d="M205.7,63.1c-0.1,0.6-0.6,1.1-1.3,1c-0.6-0.1-1.1-0.6-1-1.3c0.1-0.6,0.6-1.1,1.3-1C205.3,61.9,205.7,62.5,205.7,63.1z"
					/>
				<path class="st0" d="M206.2,62.5c0,0.3-0.3,0.4-0.5,0.4s-0.4-0.3-0.4-0.5c0-0.3,0.3-0.4,0.5-0.4S206.2,62.3,206.2,62.5z"/>
			</g>
			<path d="M199.9,63.4c0.1-0.2,2.5-2.7,5.8-2.1c2.3,0.4,3.6,2.1,3.9,2.5c0.1,0,0.2,0,0.2-0.1c0.1,0,0.1,0,0.2-0.1
				c-0.9-2.1-3-3.5-5.3-3.4C202.6,60.3,200.8,61.5,199.9,63.4z"/>
		</g>
		<path d="M188.3,56.6c-0.5-0.2-2.1-0.9-4.3-1.2c-3.1-0.3-5.1,0.4-5.5,0.7c-0.6,0.3-1,0.8-1,0.8c-0.3,0.4-0.5,0.7-0.7,1.2
			c-0.3,0.5-0.6,1.2-0.9,2.1c0.1-0.1,0.2-0.2,0.3-0.3c0,0,0.6-0.5,1.4-0.8c2.7-1.3,6.3-1.1,6.3-1.1c2.3,0.1,4.3,0.8,5.6,1.4
			c0.1-0.1,0.6-0.4,0.7-0.9c0.1-0.3,0.1-0.5,0.1-0.7C189.8,57.4,189.1,57,188.3,56.6z"/>
	</g>
	<g>
		<path d="M200.6,56.6c0.5-0.2,2.1-0.9,4.3-1.2c3.1-0.3,5.1,0.4,5.5,0.7c0.6,0.3,1,0.8,1,0.8c0.3,0.4,0.5,0.7,0.7,1.2
			c0.3,0.5,0.6,1.2,0.9,2.1c-0.1-0.1-0.2-0.2-0.3-0.3c0,0-0.6-0.5-1.4-0.8c-2.7-1.3-6.3-1.1-6.3-1.1c-2.3,0.1-4.3,0.8-5.6,1.4
			c-0.1-0.1-0.6-0.4-0.7-0.9c-0.1-0.3-0.1-0.5-0.1-0.7C199,57.4,199.7,57,200.6,56.6z"/>
	</g>
	<path class="st0" d="M154,167.4c-5.1,97.6-10.2,195.1-15.2,292.7c11.4,3.1,20.6,4,26.7,4.2c24.7,1,30.1-6.7,51.3-3.5
		c5.2,0.8,11.7,2.3,21.7,1.9c7.1-0.3,12.9-1.5,16.6-2.4c-5.5-97.6-11-195.3-16.6-292.9c-12.5-0.7-22.1-0.2-28.7,0.5
		c-3.4,0.3-7.5,0.8-13.6,0.8c-7.4,0-11.9-0.8-16.6-1.3C173.4,166.8,164.8,166.4,154,167.4z"/>
	<rect x="193.9" y="74.9" class="st11" width="1.4" height="3.1"/>
	<path class="st8" d="M222.6,106.2c-7.9,4.1-15.7,8.1-23.6,12.2v45.1l-3.9,3.7l0-56.1c3.6-2.4,7.8-4.9,12.8-7.1
		c2.2-1,4.4-1.9,6.5-2.6C217.1,102.9,219.9,104.6,222.6,106.2z"/>
	<path class="st6" d="M127.2,267.2c-0.3,1.6-0.8,4-1.1,6.7c-0.6,5.6-0.9,8.3-0.2,11c0.5,2,0.7,1.1,6.6,10.7c0.1,0.2,1.2,1.9,3,3.8
		c1.4,1.5,3.5,3.8,4.8,3.2c1-0.4,1-2.1,1.1-2.2c0.1-2.2-1.7-3.3-3.8-5.8c-0.8-0.9-3.6-4.6-4.1-9.2c-0.2-2.1-0.1-5.5,1.4-6
		c0.9-0.3,2.1,0.5,2.7,1.2c1.6,1.8,0.4,3.7,1.9,7.8c0.6,1.6,1.1,2.3,1.9,2.5c0.7,0.2,1.5-0.1,2-0.5c0.7-0.7,0.7-1.7,0.7-2.9
		c0-1-0.2-1.6-0.4-2.6c-0.4-1.8-0.6-3.4-0.7-3.9c-0.3-2.2,0.1-3.7,0.2-5.1c0.2-2,0.1-4.9-1.5-8.8H127.2z"/>
	<path class="st0" d="M146.1,116.2c-1.8,1.5-4,3.7-6,6.8c-3.3,5.4-4,10.5-4.2,12.7c-0.9,8.5-6.4,61.3-13.4,133.8
		c4,0.7,8.4,1.2,13.2,1.6c3.9,0.3,7.6,0.4,11,0.3c0.9-9.8,1.7-19.7,2.5-29.6c2-24.3,3.8-48.5,5.5-72.4
		C151.9,151.7,149,134,146.1,116.2z"/>
	<path class="st6" d="M265.5,265.9c0.3,1.6,0.8,4,1.1,6.7c0.6,5.6,0.9,8.3,0.2,11c-0.5,2-0.7,1.1-6.6,10.7c-0.1,0.2-1.2,1.9-3,3.8
		c-1.4,1.5-3.5,3.8-4.8,3.2c-1-0.4-1-2.1-1.1-2.2c-0.1-2.2,1.7-3.3,3.8-5.8c0.8-0.9,3.6-4.6,4.1-9.2c0.2-2.1,0.1-5.5-1.4-6
		c-0.9-0.3-2.1,0.5-2.7,1.2c-1.6,1.8-0.4,3.7-1.9,7.8c-0.6,1.6-1.1,2.3-1.9,2.5c-0.7,0.2-1.5-0.1-2-0.5c-0.7-0.7-0.7-1.7-0.7-2.9
		c0-1,0.2-1.6,0.4-2.6c0.4-1.8,0.6-3.4,0.7-3.9c0.3-2.2-0.1-3.7-0.2-5.1c-0.2-2-0.1-4.9,1.5-8.8H265.5z"/>
	<path class="st0" d="M243.7,116.4c2.6,1.9,4.2,3.9,5.1,5.3c0,0,2.6,3.9,4.6,12.4c0,0,0.1,0.4,0.2,0.9c0.1,0.5,0.3,1.2,0.5,2
		c0.3,1.4,0.5,2.1,0.6,2.6c1.8,7.9,8,58.8,15.4,128.6c-4,0.7-8.4,1.2-13.2,1.6c-3.9,0.3-7.6,0.4-11,0.3c-0.9-9.8-1.7-19.7-2.5-29.6
		c-2-24.3-3.8-48.5-5.5-72.4c1.6-7.7,3.1-16.3,4.1-25.5C243.1,133.2,243.6,124.4,243.7,116.4z"/>
	<path class="st8" d="M153.8,182.6c-0.6-0.1-4.1,29.6-10.5,88.9c1.1,0,2.3,0,3.4,0C146.7,271.5,146.7,271.5,153.8,182.6z"/>
	<path class="st8" d="M238.8,181.2c0.3,0,1.4,8.9,3,22.2c3.3,27,5.8,49.7,7.5,66.7c-0.5,0-1,0-1.5,0c-0.6,0-1.2,0-1.9,0
		C239.6,198.6,238.4,181.3,238.8,181.2z"/>
	<path class="st8" d="M167.2,106.3l24,12.1v45.1l3.9,3.7l0-56.1c-3.6-2.4-7.8-4.9-12.8-7.1c-2.2-1-4.4-1.9-6.5-2.6
		C172.9,103,170.1,104.6,167.2,106.3z"/>
	<path d="M194.6,74.5c0,0-0.1,0-0.1,0c-1.9,0-8.4,0.1-10.7,4.2c-0.3,0.5-0.9,1.3-1.3,3c-0.4,1.6-0.5,4.2,0.1,8.2
		c3.6,5.2,7.9,7.7,12.1,7.7c4.2,0,8.4-2.5,12.1-7.7c0.6-4,0.4-6.6,0.1-8.2c-0.4-1.6-1-2.4-1.3-3c-2.3-4.1-8.9-4.2-10.7-4.2
		C194.7,74.5,194.6,74.5,194.6,74.5z M192.8,83.9c-0.2,0.4-0.7,1.6-1.9,2.1c0,0-1.8,0.8-4.1-0.6c0,0,0,0,0,0c-1.9-1.2-2-3.6-0.3-5.1
		c0.7-0.6,1.4-0.9,1.8-1c1.7-0.6,4-0.7,6.3-0.7c2.2,0,4.6,0.2,6.3,0.7c0.4,0.1,1.1,0.4,1.8,1c1.6,1.5,1.6,4-0.3,5.1c0,0,0,0,0,0
		c-2.4,1.4-4.1,0.6-4.1,0.6c-1.1-0.5-1.6-1.6-1.8-2C195.2,83.9,194,83.9,192.8,83.9z"/>
	<g>
		<path class="st12" d="M149.8,109.9c-0.1,0.3-0.1,0.6-0.1,0.9l0-0.7L149.8,109.9z"/>
	</g>
	<g>
		<path class="st12" d="M243.1,135.6c-0.2-0.4-0.5-0.9-1.1-1.4c0,0-0.2-0.2-0.5-0.4c-0.2-0.2-0.5-0.4-0.9-0.6
			c-3.4-1.7-8.9-0.8-8.9-0.8c-1.9,0.3-4.4,0.9-7.5,2c-1.5,0.5-3.1,1.2-4.8,2.1c0-0.7,0.1-1.4,0.1-2c0.2-8-0.3-14.5-0.9-19.1
			c-0.4-3-0.6-4.4-2.7-16.7c-1.9-11.1-2.8-16.6-2.8-16.8c-0.5-7-0.6-23.4-1.3-32.2c-0.1-0.9-0.2-2.2-1.2-3.1
			c-2.2-1.9-5.6,1.3-11.2,0.4c-3.4-0.5-3.4-1.9-6.7-2c-2.7-0.1-3.4,0.8-7,1.1c-4.3,0.4-5.4-0.7-6.8-0.2c-3.1,1.1-2.7,19.5-2.6,24.1
			c0.2,14-1.6,24.8-5.2,46.4c-1.2,7.2-2.5,13.3-3.5,17.7c-0.2,0.7-0.3,1.4-0.4,2c-0.3-0.1-4.4-1.6-7.5-2.2c-0.3-0.1-0.6-0.1-0.8-0.1
			c-2-0.3-3.5-0.1-4.5,0c-3.7,0.4-8.8,2.1-9,2.2c-0.8-10.4,0.7-18.6,2.1-23.7c2-7.6,4.9-13.5,6.4-16.5c1.8-3.5,3.5-6.4,4.8-8.5
			l11.2-26.2c3.1-13,2.5-20.8,10-26.5c1.2-0.9,2.5-1.7,3.8-2.3c3.4-1.8,6.5-2.2,7.9-2.4c2.2-0.3,7-1,12.1,1.4c0.3,0.2,0.7,0.3,1,0.5
			c0,0,0,0,0,0c1.1,0.5,2.3,1.1,3.4,1.8c8.5,5.6,7.9,14.7,13,30.2c6.5,19.7,15.5,30.1,20.7,45.7c0,0.1,0,0.1,0,0.1
			C246,121.9,245.3,130.1,243.1,135.6z"/>
		<path d="M213.9,38h-39.1c-1.1,0-2-0.9-2-2l0,0c0-1.1,0.9-2,2-2h39.1c1.1,0,2,0.9,2,2l0,0C215.9,37.1,215,38,213.9,38z"/>
		<path d="M215.5,42.1h-42.3c-1.1,0-2-0.9-2-2l0,0c0-1.1,0.9-2,2-2h42.3c1.1,0,2,0.9,2,2l0,0C217.5,41.2,216.6,42.1,215.5,42.1z"/>
	</g>
</g>
</svg>
