<?xml version="1.0" encoding="utf-8"?>
<!-- Generator: Adobe Illustrator 26.0.1, SVG Export Plug-In . SVG Version: 6.00 Build 0)  -->
<svg version="1.1" id="Layer_1" xmlns="http://www.w3.org/2000/svg" xmlns:xlink="http://www.w3.org/1999/xlink" x="0px" y="0px"
	 viewBox="0 0 642 598" style="enable-background:new 0 0 642 598;" xml:space="preserve">
<style type="text/css">
	.st0{clip-path:url(#SVGID_00000163072954973859094480000010794192442155748525_);fill:#A5E0DC;}
	.st1{clip-path:url(#SVGID_00000163072954973859094480000010794192442155748525_);fill:#A04B2A;}
	.st2{clip-path:url(#SVGID_00000163072954973859094480000010794192442155748525_);}
	.st3{fill:#A04B2A;}
	.st4{fill:#FFFFFF;}
	.st5{fill:#592819;}
	.st6{fill:#3C6828;}
	.st7{fill:#FFA41F;}
	.st8{fill:#2B0000;}
	.st9{fill:#FE8462;}
	.st10{fill:#AA6148;}
	.st11{fill:#FFB886;}
	.st12{clip-path:url(#SVGID_00000163072954973859094480000010794192442155748525_);fill:#FFB886;}
	.st13{clip-path:url(#SVGID_00000163072954973859094480000010794192442155748525_);fill:#3C6828;}
	.st14{fill:#282828;}
	.st15{opacity:0.6;}
	.st16{fill:#E4887F;}
	.st17{fill:#13121C;}
	.st18{fill:#363160;}
	.st19{fill:#21151E;}
	.st20{fill:#6A66BF;}
	.st21{fill:#300B18;}
	.st22{fill:#C6093A;}
	.st23{clip-path:url(#SVGID_00000073691061311854582230000007595243745403829639_);}
	.st24{fill:#432B16;}
	.st25{clip-path:url(#SVGID_00000099655497315243868630000002169410649669039789_);}
	.st26{opacity:0.6;fill:#F58E6F;}
	.st27{fill:url(#SVGID_00000065071466561359061980000012340416062927201705_);}
	.st28{fill:#E86A54;}
	.st29{fill:#B24234;}
	.st30{fill:#8CC1D1;}
	.st31{fill:#212121;}
</style>
<g>
	<g>
		<defs>
			<path id="SVGID_1_" d="M98.2,520.1c42.6,13.6,87.3,17.4,140.6,15.7c17.1-0.6,30.9-1.6,39.6-2.3c43.3-1.2,80.2-1.8,106.3-4.2
				c43.5-3.9,63.4-7.4,83.5-12.9c34-9.3,74.5-20.4,78.8-43.1c3.9-20.8-26.3-30.5-23.6-54c2.7-23.4,34-22.7,57.1-57.4
				c2.2-3.3,27.4-42.4,13-80.2c-6.6-17.5-19.3-28.1-32.6-39.3c-29.2-24.6-42.4-18.5-55.1-32.9c-29-32.8,21.2-85.8-3.1-129.7
				c-16.8-30.2-62.3-44.2-97-41.7c-73.3,5.4-82.6,83.7-158.6,94.6c-56.9,8.2-75.8-32.2-124.1-14.7c-43.6,15.7-77.8,66.5-70.5,104.7
				c4,20.7,16.5,19.4,34.2,58.2c10.2,22.5,21,46.3,15.9,74.5C97.2,385.1,80,406.1,80,406.1c-13.8,20.2-20.1,27.9-23.8,37
				c-1.4,3.4-2.5,6.9-3.3,11.8c-0.2,1.1-3.9,26.3,11.3,45.3C72.4,510.5,83.2,515.3,98.2,520.1z"/>
		</defs>
		<clipPath id="SVGID_00000176028686517698993180000008747317449098401196_">
			<use xlink:href="#SVGID_1_"  style="overflow:visible;"/>
		</clipPath>
		
			<rect x="-10" y="38.8" style="clip-path:url(#SVGID_00000176028686517698993180000008747317449098401196_);fill:#A5E0DC;" width="633.2" height="531.1"/>
		<path style="clip-path:url(#SVGID_00000176028686517698993180000008747317449098401196_);fill:#A04B2A;" d="M129.2,172.9
			c16.9,78.9,33.9,157.8,50.8,236.7c-11.1,75.7-22.1,151.5-33.2,227.2c6.8-1.5,13.6-3.1,20.4-4.6c10.9-72,21.8-144,32.7-216
			c29.5,60.5,59,121,88.4,181.5c7.5-3.9,15-7.8,22.5-11.8c-34.1-62.5-68.2-125.1-102.3-187.6c-20.1-76.1-40.2-152.2-60.3-228.3
			C142,171,135.6,171.9,129.2,172.9z"/>
		<g style="clip-path:url(#SVGID_00000176028686517698993180000008747317449098401196_);">
			<path class="st3" d="M85.5,209.2c40.6-6.4,81.2-12.7,121.9-19.1c35,153.6,51.8,230.6,50.3,230.9c0,0,0,0-0.1,0l-116.4,38.1
				C133.8,422,96.5,253.8,85.5,209.2z"/>
		</g>
		<g style="clip-path:url(#SVGID_00000176028686517698993180000008747317449098401196_);">
			<g>
				<path class="st4" d="M148.8,455.5c-8.9-41.4-18.1-83.3-27.4-124.6c-8.9-39.6-26.7-116.8-29-126.7l119.9-18.8
					c8.6,39.3,47.7,217.2,51.3,232.5L148.8,455.5z"/>
				<path class="st5" d="M211.6,186.6c17.9,81.5,46.7,212.5,50.9,230.7l-93.7,30.6l-19.2,6.3c-8.8-41-18-82.5-27.2-123.5
					c-8.6-38.4-25.6-112.3-28.7-125.7L211.6,186.6 M213.1,184.3L91.3,203.4c0,0,19.6,85.1,29.2,127.8c9.4,41.8,18.6,83.7,27.6,125.6
					c38.9-12.7,77.8-25.4,116.8-38.2C264.4,417.5,213.1,184.3,213.1,184.3L213.1,184.3z"/>
			</g>
			<g>
				<g>
					<g>
						<g>
							<path class="st6" d="M176.1,300.8c-0.4-0.7-0.8-1.5-0.9-2.3c-0.5-2.7,1.3-5.4,1.3-8.1c0-0.6-0.1-1.2,0-1.7
								c0.1-0.6,0.6-1.1,1.1-1.2c0.4,0,0.7,0.1,1,0.3c0.9,0.5,1.9,1,2.2,2c0.3,1-0.1,2.1-0.1,3.1c0.1,2.7,3.2,4.3,3.8,7
								c0.4,1.8-0.6,3.6-1.1,5.4c-0.5,1.7-1.5,6.6-4.1,3.7c-0.8-0.9-0.5-2.6-0.9-3.7C177.9,303.7,176.9,302.3,176.1,300.8z"/>
						</g>
					</g>
					<g>
						<g>
							<path class="st6" d="M199.5,384.2c-5.2-3.9-7.6-10.5-9.6-16.8c-4.8-15.4-8.7-31.2-11.4-47.1c0.1-0.2,0.1-0.4,0-0.6
								c0,0,0-0.1-0.1-0.1c-0.1-0.5-0.2-1-0.3-1.5c0.1-0.7,0.3-1.4,0.5-2.1c1-3.1,1.5-6.3,1.7-9.5c0-0.3-0.2-0.6-0.5-0.6
								c-0.3,0-0.6,0.2-0.6,0.5c-0.2,3.1-0.7,6.1-1.6,9c-0.3-1.2-0.6-2.4-1.1-3.5c-1.2-3.1-3.2-5.9-5.1-8.6
								c-1.1-1.6-2.3-3.3-3.7-4.8c-2.1-2.3-4.6-4.2-7.1-6c-3.5-2.6-6.8-5.1-9-8.7c-0.2-0.3-0.5-0.3-0.8-0.2
								c-0.3,0.2-0.3,0.5-0.2,0.8c2.3,3.7,5.9,6.4,9.3,9c2.4,1.8,4.9,3.7,6.9,5.9c1.3,1.4,2.5,3.1,3.6,4.7c1.9,2.6,3.8,5.3,5,8.3
								c0.3,0.8,0.6,1.7,0.8,2.6l-9-5.1c-1.7-1-3.5-2-4.8-3.5c-0.2-0.2-0.6-0.3-0.8-0.1c-0.2,0.2-0.3,0.6-0.1,0.8
								c1.4,1.6,3.4,2.7,5.1,3.7l9.9,5.6c0.1,0.5,0.2,1.1,0.3,1.7c0,0.6,0,1.3,0.3,1.8l0,0.3c0.7,4.1,1.5,8.2,2.3,12.3
								c-0.3-0.4-0.6-0.8-0.9-1.2c-0.5-0.6-1-1.1-1.4-1.7c-0.6-0.8-1-1.7-1.5-2.5c-1.3-2.2-3-4.1-4.7-5.9c-0.4-0.4-0.8-0.9-1.3-1.2
								c-0.7-0.4-1.6-0.5-2.4-0.2c-0.2,0.1-0.4,0.1-0.5,0.3c-0.2,0.2-0.2,0.5-0.2,0.8c0.2,2.2,3.1,3.5,3,5.7c0,0.7-0.4,1.4-0.4,2.1
								c0,0.9,0.8,1.7,1.4,2.3c2.3,2.2,4.9,4.2,8,4.8c0.6,0.1,1.1,0.2,1.6,0.5c2.3,10.6,5.1,21.1,8.3,31.4c2,6.5,4.5,13.3,10,17.4
								c0.2,0.2,0.6,0.1,0.8-0.1c0,0,0,0,0,0C199.8,384.7,199.8,384.3,199.5,384.2z"/>
						</g>
					</g>
					<g>
						<g>
							<path class="st7" d="M151.2,291.4c-1.8,1-3.5,2.2-5.5,2.6c-2,0.4-4.4-0.4-5.2-2.3c-0.3-0.8-0.3-1.7-0.5-2.5
								c-0.4-1.6-1.4-2.8-2.3-4.2s-1.5-3-0.9-4.5c1.2-3,6.3-2.7,7.7-5.6c0.6-1.2,0.5-2.8,1.5-3.7c1.5-1.2,3.6,0.3,5.5,0.3
								c1.5,0,2.8-1,4.2-1.4c2.1-0.6,4.5,0,6,1.6c1.5,1.6,1.9,4.1,1,6.1c-0.4,0.9-1.1,1.7-1.5,2.6c-0.5,1.4-0.3,3-0.4,4.5
								C160.2,291.5,155.3,289,151.2,291.4z"/>
						</g>
					</g>
					<g>
						<g>
							<path class="st8" d="M150.4,278.7c-0.8,0.2-1.4,0.9-1.6,1.7l-0.2-0.1c-1,0.8-0.2,2.7,1,2.9c1.3,0.2,2.5-0.8,2.9-2
								c0.2-0.5,0.3-1.2,0-1.7C152.1,278.8,151.2,278.4,150.4,278.7z"/>
						</g>
					</g>
					<g>
						<g>
							<path class="st7" d="M148.9,303.7c-1.4,1-2,3.2-0.8,4.5c0.6,0.6,1.5,0.9,2,1.6c0.6,0.8,0.6,1.9,0.9,2.9
								c0.4,1.5,1.5,2.7,2.9,3.2c1.4,0.5,3.1,0,4.1-1.1c0.3-0.4,0.5-0.9,0.8-1.2c0.9-1,2.4-1.2,3.8-1.5c1.4-0.3,2.9-1.1,3-2.5
								c0-0.7-0.3-1.3-0.3-2c0-0.9,0.6-1.6,1.1-2.4c1.4-2.2,1.8-5.4-0.1-7.2c-0.4-0.4-0.9-0.6-1.4-0.7c-1.3,0-2,1.5-3.1,2.2
								c-0.7,0.4-1.5,0.5-2.2,0.6c-2.1,0.4-3.5,1.8-5.3,2.4C152.4,303.1,150.5,302.6,148.9,303.7z"/>
						</g>
					</g>
					<g>
						<g>
							<path class="st8" d="M159.3,304.8c-0.8,0.1-1.4,0.7-1.9,1.2l0.3,0.2c-0.6-0.1-1,0.8-0.7,1.3c0.3,0.6,0.9,0.8,1.4,1.1
								c0.2,0.1,0.4,0.2,0.6,0.1c0.1-0.1,0.2-0.2,0.3-0.3c0.4-0.5,0.7-1.1,1.1-1.6c0.2-0.2,0.3-0.5,0.4-0.8
								C161,305.3,160.1,304.7,159.3,304.8z"/>
						</g>
					</g>
				</g>
			</g>
			<g>
				<g>
					<g>
						<path class="st6" d="M206.7,321.7l-0.7-0.4c1.8-3.4,3.6-6.9,4.5-10.6c1-4.1,0.8-8-0.7-11.1c-1-2-2.5-3.8-4-5.5
							c-2.2-2.6-4.5-5.2-4.9-8.7c-0.5-3.8,1.6-7.3,3.5-10.7c2-3.5,3.9-6.7,3.4-10.3l0.8-0.1c0.6,3.9-1.5,7.4-3.5,10.8
							c-1.9,3.3-3.9,6.6-3.4,10.2c0.4,3.2,2.5,5.6,4.7,8.2c1.5,1.8,3.1,3.6,4.1,5.7c2,4.1,1.5,8.6,0.7,11.6
							C210.4,314.8,208.5,318.3,206.7,321.7z"/>
					</g>
				</g>
				<g>
					<g>
						<path class="st6" d="M201.2,286.1c-1.2-0.3-2.4-2.3-2.3-3.4c0-0.7,0.2-1.3,0.4-1.9c0.1-0.4,0.2-0.8,0.3-1.2
							c0.4-2.3-0.7-4.3-1.9-6.6c-1.1-2.1-2.3-4.3-2.1-6.6l0.8,0.1c-0.2,2.1,0.9,4.2,2,6.2c1.2,2.2,2.4,4.5,2,7.1
							c-0.1,0.4-0.2,0.9-0.3,1.3c-0.2,0.6-0.3,1.1-0.4,1.7c0,0.8,1,2.6,1.8,2.7l-0.1,0.8C201.3,286.2,201.2,286.2,201.2,286.1z"/>
					</g>
				</g>
				<g>
					<g>
						<path class="st6" d="M203.4,290.6c-0.1-1.1-0.1-2.5,0.4-3.6c0.7-1.5,2.1-2.3,3.4-3.1c1.2-0.7,2.4-1.4,3-2.5
							c0.3-0.5,0.5-1.1,0.7-1.7c0.4-1.2,0.8-2.5,2.1-3.1l0.3,0.7c-0.9,0.4-1.3,1.5-1.6,2.6c-0.2,0.6-0.4,1.3-0.8,1.9
							c-0.7,1.3-2,2-3.3,2.8c-1.3,0.8-2.5,1.5-3.1,2.7c-0.5,1-0.4,2.2-0.3,3.3L203.4,290.6z"/>
					</g>
				</g>
				<g>
					<g>
						<path class="st9" d="M192.3,263.3c0.5-0.5,1.3-0.4,1.9-0.2s1.3,0.6,2,0.3c0.5-0.2,0.8-0.6,1.2-0.8c0.7-0.4,1.7-0.2,2.3,0.4
							c0.6,0.6,0.9,1.4,1.1,2.2c0.1,0.9,0,1.9-0.7,2.4C198.2,269.2,190.3,265.5,192.3,263.3z"/>
					</g>
				</g>
				<g>
					<g>
						<path class="st8" d="M198.3,264.9c-0.2-0.4-0.7-0.4-1.1-0.3c-0.4,0-0.7,0.1-1.1,0.1c-0.1,0-0.3,0-0.4,0.1
							c-0.3,0.2-0.2,0.7,0.1,0.9c0.3,0.2,0.7,0.3,1,0.3l0.1-0.2c0.3,0,0.7,0,1-0.1C198.2,265.6,198.4,265.2,198.3,264.9z"/>
					</g>
				</g>
				<g>
					<g>
						<g>
							<path class="st9" d="M200.5,269.4c-0.8,0.5-1,1.6-1.8,2c-0.3,0.2-0.7,0.2-1,0.4c-0.8,0.4-0.8,1.8,0,2.4
								c0.2,0.2,0.5,0.3,0.8,0.3c0.6,0,1-0.7,1.5-1.1c0.9-0.6,2-0.4,3.1-0.2c1.9,0.3,4.4-1.1,2-2.7
								C204.1,269.8,201.5,268.7,200.5,269.4z"/>
						</g>
					</g>
					<g>
						<g>
							<path class="st8" d="M203.2,271.6c0-0.1-0.1-0.2-0.1-0.2c-0.3-0.4-0.9-0.7-1.4-0.7l0,0.2c-0.3,0-0.5,0.1-0.7,0.2
								c-0.3,0.2-0.6,0.4-1,0.6c-0.1,0.1-0.2,0.1-0.2,0.3c0,0.1,0.1,0.2,0.2,0.3c0.4,0.2,0.8,0,1.2-0.1c0.4,0,0.7,0.1,1.1,0.1
								c0.4,0,0.8,0,1-0.3C203.1,271.8,203.2,271.7,203.2,271.6z"/>
						</g>
					</g>
				</g>
				<g>
					<g>
						<path class="st7" d="M204.1,264.3c-0.3-0.5-0.5-1.2-0.2-1.7c0.4-0.6,1.2-0.6,1.8-0.4s1.3,0.5,1.9,0.5c0.9-0.1,1.7-0.8,2.7-0.7
							c0.5,0.1,1,0.5,1.4,0.8c0.7,0.5,1.5,1,2,1.7s0.7,1.7,0.1,2.4c-1.1,1.2-3.6,0.1-5-0.1C206.9,266.5,205.1,266,204.1,264.3z"/>
					</g>
				</g>
				<g>
					<g>
						<path class="st8" d="M211.1,265.4c0-0.3-0.3-0.6-0.6-0.7c-0.5-0.2-1-0.5-1.4-0.7l0,0.2c-0.4-0.3-0.9-0.4-1.4-0.4
							c-0.3,0-0.5,0.1-0.7,0.2c-0.2,0.2-0.2,0.5-0.1,0.7c0.1,0.1,0.2,0.1,0.3,0.2c0.9,0.3,1.8,0.6,2.7,0.9c0.2,0.1,0.5,0.1,0.7,0.1
							C210.9,265.8,211.1,265.7,211.1,265.4z"/>
					</g>
				</g>
				<g>
					<g>
						<path class="st7" d="M208.9,275.5c-0.4-0.5-0.7-1.2-0.3-1.7c0.2-0.3,0.6-0.3,0.9-0.4c0.3,0,0.6-0.1,1,0
							c0.6,0.1,1.1,0.7,1.7,0.6c0.2,0,0.4-0.1,0.6-0.2c0.3-0.1,0.6,0,0.9,0.1c0.4,0.1,0.9,0.3,1.3,0.4c0.1,0,0.2,0.1,0.3,0.2
							c0.1,0.1,0.1,0.3,0.2,0.4c0.2,0.4,0.7,0.6,1,1c0.4,0.4,0.6,1.1,0.2,1.6c-0.4,0.5-1.1,0.6-1.8,0.6
							C212.9,278,210.2,277.3,208.9,275.5z"/>
					</g>
				</g>
				<g>
					<g>
						<g>
							<path class="st8" d="M212.9,274.9c0.1,0.1,0.2,0.2,0.3,0.3c0,0,0,0,0,0L212.9,274.9z"/>
						</g>
					</g>
					<g>
						<g>
							<path class="st8" d="M214.3,276c-0.1-0.1-0.3-0.2-0.5-0.3c-0.2-0.1-0.5-0.3-0.7-0.5c-0.6-0.3-1.4-0.4-2.1-0.2
								c-0.1,0-0.2,0.1-0.3,0.1c-0.2,0.1-0.1,0.4-0.1,0.6c0,0.2,0.1,0.5,0.3,0.6c0.2,0.1,0.5,0,0.8,0c0.4,0,0.8,0.2,1.2,0.3
								c0.4,0.2,0.8,0.3,1.2,0.1c0.1,0,0.2-0.1,0.3-0.2C214.6,276.4,214.5,276.2,214.3,276z"/>
						</g>
					</g>
				</g>
				<g>
					<g>
						<path class="st6" d="M209.7,283.2l-0.5-0.5c1.1-1,3.2-1.5,4.7-1.5c1.2-0.1,2.4-0.7,3.3-1.2c0.9-0.5,2.2-1.4,2.5-2.7
							c0.2-0.7,0-1.5-0.2-2.3c0-0.2-0.1-0.4-0.1-0.6c-0.3-1.5-0.1-2.6,0.7-3.4l0.5,0.6c-0.7,0.7-0.6,1.8-0.4,2.6
							c0,0.2,0.1,0.4,0.1,0.6c0.2,0.9,0.4,1.8,0.2,2.7c-0.4,1.6-1.8,2.6-2.8,3.2c-1,0.6-2.3,1.2-3.7,1.3
							C212.3,281.9,210.5,282.4,209.7,283.2z"/>
					</g>
				</g>
				<g>
					<g>
						<g>
							<path class="st9" d="M215.7,271.9c-0.7-0.3-1.4-0.8-1.5-1.5c-0.2-0.7,0.2-1.6,1-1.8c0.9-0.2,1.8,0.7,2.7,0.4
								c0.2-0.1,0.4-0.2,0.6-0.3c0.8-0.4,1.7-0.5,2.6-0.3c0.9,0.2,1.6,0.7,2.3,1.3c0.6,0.6,1.2,1.2,1.4,2c0.2,0.8,0,1.8-0.7,2.2
								c-0.5,0.4-1.2,0.4-1.8,0.3c-0.6-0.1-1.2-0.4-1.7-0.7c-0.8-0.4-1.7-1-2.6-1.3C217.3,272.1,216.5,272.1,215.7,271.9z"/>
						</g>
					</g>
					<g>
						<g>
							<path class="st8" d="M219.1,269.9c-0.3,0.1-0.6,0.1-0.9,0.2c-0.2,0-0.4,0.1-0.6,0.2c-0.1,0.1-0.1,0.1-0.2,0.2
								c-0.1,0.2,0.1,0.4,0.4,0.5c0.2,0,0.4,0,0.6,0c0.7,0,1.2,0.5,1.8,0.8c0.2,0.1,0.4,0.2,0.6,0.3c0.1,0,0.3,0.1,0.4,0
								c0.3-0.1,0.4-0.5,0.3-0.8c-0.1-0.3-0.3-0.5-0.6-0.7C220.4,270.1,220,269.7,219.1,269.9z"/>
						</g>
					</g>
				</g>
				<g>
					<g>
						<path class="st6" d="M199.5,281.4c-0.2-0.1-0.3-0.3-0.3-0.9c-0.1-0.5-0.3-2-0.5-2.3c-0.3-0.2-0.6-0.3-0.9-0.5
							c-0.1-0.1-0.3-0.1-0.4-0.2c-0.8-0.4-1.4-0.9-2.1-1.4l-2.1-1.6c-0.3-0.3-0.7-0.6-1-1c-0.2-0.3-0.4-0.7-0.5-1
							c-0.2-0.4-0.3-0.7-0.5-1c-0.2-0.2-0.5-0.4-0.7-0.6c-0.5-0.4-1.1-0.8-1.2-1.5l0.8-0.1c0.1,0.4,0.5,0.7,0.9,1
							c0.3,0.2,0.6,0.4,0.9,0.7c0.3,0.4,0.5,0.8,0.7,1.2c0.1,0.3,0.3,0.6,0.4,0.9c0.2,0.3,0.6,0.6,0.9,0.8l2.1,1.6
							c0.6,0.5,1.3,1,2,1.3c0.1,0.1,0.3,0.1,0.4,0.2c0.4,0.2,0.7,0.3,1.1,0.6c0.3,0.2,0.5,0.9,0.7,2.8c0,0.2,0.1,0.4,0.1,0.5l0,0
							c0,0.1,0,0.5-0.4,0.5C199.7,281.4,199.6,281.4,199.5,281.4z M199.8,280.6c0,0-0.1,0-0.1,0c-0.2,0-0.3,0.1-0.3,0.2l0.7,0
							C200,280.7,199.9,280.7,199.8,280.6z M198.8,278.2L198.8,278.2L198.8,278.2z"/>
					</g>
				</g>
				<g>
					<g>
						<g>
							<path class="st7" d="M187.1,267.8c-0.7,0.6-1.1,1.6-1,2.6c0.1,0.6,0.5,1.3,1,1.2c0.1,0,0.3-0.1,0.4-0.1
								c1.4-0.6,3,0.5,4.5,0.6c0.5,0,1.1-0.1,1.5-0.4c0.4-0.4,0.5-1.1,0.1-1.4c-0.4-0.3-1.1-0.3-1.2-0.8c-0.1-0.2,0-0.5,0-0.7
								C192.5,266.2,188.2,266.8,187.1,267.8z"/>
						</g>
					</g>
					<g>
						<g>
							<path class="st8" d="M190.7,269.4c0-0.3-0.1-0.5-0.3-0.6c-0.2-0.2-0.4-0.3-0.6-0.5l-0.1,0c-0.6-0.1-1.3,0.3-1.5,0.9
								c-0.1,0.1-0.1,0.3,0,0.4c0.2,0.3,0.5,0.2,0.8,0.2c0.3,0,0.6,0.1,1,0.1C190.3,269.9,190.7,269.7,190.7,269.4z"/>
						</g>
					</g>
				</g>
			</g>
		</g>
		<g style="clip-path:url(#SVGID_00000176028686517698993180000008747317449098401196_);">
			<g>
				<g>
					<path class="st10" d="M201.4,294.7c0,0,81.1,26.3,80.9,28.1c-0.2,1.8-81.2-25.2-81.2-25.2L201.4,294.7z"/>
				</g>
				<g>
					<path class="st8" d="M201,297.7c0,0-10.9-0.3-13.1-4.8c-1.5-3-2.5-6.1-3-7.9c-0.1-0.5,0.4-0.9,0.8-0.6l15.7,10.3L201,297.7z"/>
				</g>
			</g>
			<g>
				<path class="st11" d="M307,343.8c-17.5-8.8-35.1-17.6-52.6-26.3c-1.6-4.8-3.3-9.5-4.9-14.3c-1.3-1.2-2.6-2.4-3.9-3.6
					c-1.2-1.1-2.3-2.1-3.5-3.1c-1.4-0.2-3.4-0.3-5.8,0.2c-3.2,0.7-5.5,2.1-6.7,3c-1.6,1.5-2.3,2.9-1.9,3.6c0.4,0.6,1.8,0.5,2.6,0.4
					c1.4-0.1,2.3-0.6,3.5-1c1-0.4,2.4-0.9,4.2-1.3c0.7,0.6,1.7,1.5,2.7,2.8c2.4,3.4,3.7,8,2.7,8.6c-0.2,0.1-0.4,0.1-0.5,0.1
					c-3.6-0.7-10.4-7.6-14.4-6.3c-0.3,0.1-0.9,0.3-1.1,0.8c-0.6,1.6,4.1,3.6,7.8,8.8c1.9,2.6,1.9,4,2.9,5.5c0,0,0.6,0.8,1.1,1.3
					c2.6,2.6,6.8,3,8.9,3.1c19,12.5,38,25,57,37.5C305.7,357.1,306.3,350.5,307,343.8z"/>
			</g>
		</g>
		<path style="clip-path:url(#SVGID_00000176028686517698993180000008747317449098401196_);fill:#FFB886;" d="M231.6,304.6
			c0.4-0.4,3.6-3.4,8.2-2.8c5.4,0.6,7.8,5.6,8,5.9c-1.2,0.1-2.5,0.3-3.7,0.4c-2.4-1.4-4.3-1.8-5.7-1.8c-1.1,0-2,0.1-3.4-0.2
			C233.5,305.8,232.3,305.2,231.6,304.6z"/>
		<polygon style="clip-path:url(#SVGID_00000176028686517698993180000008747317449098401196_);fill:#A04B2A;" points="89.9,213.7 
			85.5,209.2 91.3,203.4 93.3,212 		"/>
		<path style="clip-path:url(#SVGID_00000176028686517698993180000008747317449098401196_);fill:#3C6828;" d="M192.1,288.4
			c-2.3,2.8-2.4,4.2-2.2,5.4c0,0.4,0.2,1.5-0.2,1.7c-0.2,0.1-0.6-0.1-0.9-0.4c-1.8-1.5-2.5-3.8-2.5-3.8c-0.8-2.7-1.5-5.1-1.9-6.9
			c-0.1-0.4,0.3-0.7,0.7-0.5C187.5,285.2,189.6,287,192.1,288.4z"/>
		<g style="clip-path:url(#SVGID_00000176028686517698993180000008747317449098401196_);">
			<g>
				<g>
					<path class="st14" d="M361.1,295.7c-9,24.5-18,48.9-27,73.4c-0.4,1-2.2,5.8-7.3,8.3c-6.4,3.1-12.4,0.2-13.1-0.2
						c-21.3-13.5-42.7-26.9-64-40.4c0.2-2.2,0.9-5.6,2.7-9.2c3.3-6.2,8.3-9.4,10.5-10.6c17.2,7.8,34.4,15.7,51.7,23.5
						c3.1-8.3,6.3-16.7,9.6-25.1c5.7-14.4,11.4-28.5,17.2-42.3C348,280.8,354.6,288.3,361.1,295.7z"/>
				</g>
			</g>
			<g>
				<g>
					<g>
						<g class="st15">
							<path class="st16" d="M390.4,271.5c-0.2,0-0.4-0.1-0.5-0.2c-0.2-0.3-0.2-0.7,0.1-1c2.9-2.5,4.7-2.2,7.5-1.8
								c3.6,0.5,8.9,1.3,21.7-3.3c0.4-0.1,0.8,0.1,0.9,0.4c0.1,0.4-0.1,0.8-0.4,0.9c-13.1,4.7-18.7,3.9-22.4,3.4
								c-2.6-0.4-3.9-0.5-6.4,1.5C390.7,271.4,390.5,271.5,390.4,271.5z"/>
						</g>
						<g class="st15">
							<path class="st16" d="M375.5,271c-2.5,0-5.9-0.8-10.9-3.8c-0.3-0.2-0.4-0.6-0.2-1c0.2-0.3,0.6-0.4,1-0.2
								c8.1,4.8,11.5,3.7,14.2,2.8c2-0.6,3.8-1.2,6.6,0.9c0.3,0.2,0.4,0.7,0.1,1c-0.2,0.3-0.7,0.4-1,0.1c-2.2-1.7-3.4-1.3-5.3-0.7
								C378.7,270.6,377.4,271,375.5,271z"/>
						</g>
						<path class="st14" d="M429.1,373.3c-0.5,5.9,0.7,12.3,4,16.7c0.5,0.7,1.1,1.4,1.6,2.2c0.1,0.2,0.3,0.4,0.4,0.6
							c0.4,0.6,0.8,1.1,1.2,1.7c0.3,0.4,0.6,0.8,0.8,1.1c0.1,0.2,0.3,0.4,0.4,0.6c0.4,0.6,0.8,1.1,1.2,1.7c0.6,0.8,1.1,1.6,1.6,2.3
							c0.2,0.2,0.3,0.5,0.5,0.7c0.1,0.1,0.2,0.3,0.3,0.4c0.1,0.1,0.1,0.1,0.1,0.2c0.1,0.1,0.2,0.2,0.3,0.4c0.3,0.4,0.6,0.8,0.7,1.1
							c0.1,0.1,0.1,0.2,0.2,0.2c0.2,0.4,0.4,0.6,0.4,0.6c-0.7,0.6-1.4,1.2-2.2,1.7c-0.2,0.2-0.5,0.4-0.8,0.6
							c-0.7,0.6-1.5,1.2-2.2,1.7c-0.4,0.3-0.7,0.6-1.1,0.8c-1.9,1.5-3.8,2.9-5.7,4.2c-0.2,0.2-0.5,0.3-0.7,0.5
							c-0.3,0.2-0.6,0.4-0.8,0.6c-0.4,0.2-0.8,0.5-1.1,0.7c-0.7,0.5-1.4,0.9-2.1,1.4c-0.2,0.1-0.4,0.2-0.6,0.4
							c-0.3,0.2-0.6,0.3-0.8,0.5c-0.3,0.2-0.7,0.4-1,0.6c-0.1,0-0.1,0.1-0.1,0.1h0c-15.2,9.2-29,13.3-41.4,13.3
							c-13.3,0-23.6-6.8-24.5-7.3c-3.8-2.2-6.7-4.5-8.8-6.4c2.1-6,4.3-14.6,4.5-24.9c0.2-9.2,0.7-12.5-2.7-27.5
							c-1.7-7.6-1.3-15.9-1.1-26.3c0.5-25.5-2.1-31.1-5-35.7c-0.8-1.4-1.7-2.6-2.4-4.3c-1.3-2.6-2.4-6.3-3-12.7
							c-0.1-0.9-0.2-1.9-0.2-2.9c0-0.3,0-0.7,0-1v-0.1c0.6-11,10.4-18,17.9-20.4c3.2-1,5.9-2,8.5-3.1c1.1-0.5,2.2-1,3.2-1.5
							c4-1.9,8.1-4,10.9-6c0.8-0.6,1.5-1.2,2.1-1.8c0.9-0.9,1.5-1.8,1.5-2.6c0-3.8,0-23.8,0-23.8l33.1-8.9c0,0-1,17.9,2.4,24.7
							c3.4,6.8,4.9,8.5,13.5,14c5.9,3.8,11.8,7.4,15,9.2c1,0.4,1.9,0.8,2.7,1.2c1.9,0.9,7.9,3.8,9,4.6c18,12.1-7.8,63.4-11.8,69.7
							c-5.6,8.8-16,25.3-17.4,32.3c-0.1,0.5-0.2,1-0.3,1.5C429.3,371.5,429.2,372.4,429.1,373.3z"/>
					</g>
					<g>
						<path class="st17" d="M429.9,728.5l3.9-4.8c-3.3-1.3-14.3-1.8-23.7,0L429.9,728.5z"/>
						<polygon class="st17" points="397.2,717.4 387.6,718.7 395.5,720.9 						"/>
						<g>
							<path class="st18" d="M400.7,761.2c-1,1.9-8.5,4.3-8.5,4.3l-6.2-3c-1.6,2.1-1.7,4.5-1.8,5.2c-0.6,2.2-2.8,6.6-4.7,7.3
								c-3.3,1.3-6.3,2-9.1,2.3c-3.9,0.4-7.5,0.2-11.5-0.2c-7-0.6-8.6-3.9-8.6-3.9s0-4.7,0-5.3c0-0.2,0.1-0.4,0.3-0.5
								c0.3-0.3,0.8-0.5,0.8-0.5s-0.2-2,0.6-3.6c1.5-2.9,7.3-4.7,8.5-5.4c3.9-2.2,8.7-6.9,10.8-11.2c2.1-4.3,3.8-12.2,3.8-13.1
								c0.3-4.3,0.2-13.3,0.7-13.6c0.5-0.3,6.5-0.6,8.7-0.8c2.1-0.1,3,1.3,3.1,1.4c0,0,0,0,0,0l4.8-0.8l3-0.5l0.4-1.5l1.5-0.6
								l0.3,12.3c0,0,1.7,3.5,2.7,6.5c1,3,0.5,7.7,0.5,7.7s0,0,0,0c0,0,0.3,0.1,0.4,0.3c0.1,0.1,0.2,0.3,0.3,0.5c0,0.2,0,0.4,0,0.5
								c0,0,0,0,0,0C401.6,750.5,400.9,760.8,400.7,761.2z"/>
							<path class="st19" d="M393.6,742.9c-2,1.7-4.3,1.6-4.5-0.7c-0.2-2.4-0.2-17.8-1.7-21.4v0c0,0,0,0,0,0l7.9-1.3
								c0,0,0.2,13.3,0.3,17.1C395.8,740.3,395.6,741.2,393.6,742.9z"/>
							<path d="M400.7,761.2c-1,1.9-8.5,4.3-8.5,4.3l-6.2-3c-1.6,2.1-1.7,4.5-1.8,5.2c-0.6,2.2-2.8,6.6-4.7,7.3
								c-7.8,3-13.6,2.7-20.6,2.1c-7-0.6-8.6-3.9-8.6-3.9s0-4.7,0-5.3c0-0.2,0.1-0.4,0.3-0.5c0.5,0.8,1.6,1.6,3.7,2.2
								c6.3,1.8,15.2,1.6,20.1,0.9c4.9-0.7,6.8-1.7,9.2-7.7c2.4-6,6.2-9.3,11.8-12.9c4.9-3.2,5.7-4.2,6-5.7c0.1,0.1,0.2,0.3,0.3,0.5
								c0,0.2,0,0.4,0,0.5c0,0,0,0,0,0C401.6,750.5,400.9,760.8,400.7,761.2z"/>
							<path class="st20" d="M401.4,745.2C401.4,745.2,401.4,745.2,401.4,745.2c-0.3,1.2-0.9,1.7-3.6,3.6c-2.7,1.9-7.4,4.6-10.6,8.3
								c-3.2,3.7-4.1,8.2-5.3,9.7c-1.8,2.1-3.4,3.5-7.7,3.9c-4.3,0.4-11.9,0.9-17.8-0.4c-5.9-1.3-6.1-2.5-6.1-2.5c0-0.6,1-1.1,1-1.1
								s-0.2,0.9,0.1,1.1c0.8,0.8,4.6,2.1,9.2,2.3c8.7,0.4,16.4-0.3,19.1-2.2c2.7-1.9,3.3-6.7,6.1-10.7c2.9-4,11.1-9.1,13.4-10.9
								c2.3-1.7,1.6-2.6,1.6-2.7c0,0,0.7,0.3,0.7,0.8C401.4,744.9,401.4,745.1,401.4,745.2z"/>
						</g>
						<g>
							<path class="st18" d="M434.6,752.7c0,0-2,12.4-2.5,14.8c-0.5,2.4-3,4.1-3.2,4.3c0,0,0,0,0,0l-3.3-0.1c0,0-1.2,1.9-2,5.1
								c-1.6,6.9-6.8,9.4-14.3,9.9c-1.1,0.1-2.2,0.1-3.4,0.1c-13.6-0.1-15.9-4.4-15.9-4.4s-0.9-4.8-0.9-5.5c0-0.1,0-0.1,0-0.2
								c0.1-0.2,0.2-0.4,0.3-0.6c0.3-0.4,0.6-0.7,0.6-0.7s-0.2-0.8-0.4-2.3c-0.7-4.9,6.4-9.4,8.2-11.1
								c14.4-12.9,12.3-23.2,12.4-38.5c4.6-1,11.2,0.6,14,0.5c2.9-0.1,4,0.6,4,0.6c0.3,0,0.5,0,0.8,0c1.7-0.1,2.7-0.5,3.3-1.1
								c0.6-0.7,1.5,0.3,1.6,0c-0.1,0.5-0.5,3.6-0.6,7.8c-0.2,5.1-0.6,6.8,0.8,11.3c1.3,4.5,0.2,9,0.2,9l0.2,0.4L434.6,752.7z"/>
							<path d="M431.3,748.4c-0.8,1.7-2.3,4.6-3.9,2.4c-1.7-2.1-0.7-6.5-0.3-10.4c0.4-3.9,1.1-15.5,1.1-15.5c2.1,0,3.4-0.4,4.1-1.1
								c-0.1,3.6-0.6,14.2-0.4,17.5C432.1,745.7,432.1,746.7,431.3,748.4z"/>
							<path d="M434.6,752.7c0,0-0.7,12.4-1.3,14.8c-0.6,2.4-4.2,4.2-4.5,4.3c0,0,0,0,0,0l-3.3-0.1c0,0-1.2,1.9-2,5.1
								c-1.6,6.9-6.8,9.4-14.3,9.9c-1.1,0.1-2.2,0.1-3.4,0.1c-13.6-0.1-15.9-4.4-15.9-4.4s-0.9-4.8-0.9-5.5c0-0.1,0-0.1,0-0.2
								c0.1-0.2,0.2-0.4,0.3-0.6c1,1.4,2.3,2.6,7.1,3.6c0,0,0.1,0,0.1,0c5.3,1.1,11.9,1.6,18.6,0c3.9-0.9,6.1-3.1,7.3-6.1
								c1.2-3,5.2-11.6,9.4-17.7c1.1-1.6,2-2.7,2.7-3.6L434.6,752.7z"/>
							<path class="st20" d="M434.6,752.7c0,0-1.2,1.3-3.7,5.1c-2.4,3.8-6.4,11.2-7.6,14.4c-1.2,3.2-2.6,6.2-5.6,7.4
								c-5.6,2.1-14.1,1.9-18.5,1.3c-9.1-1.4-10.2-4.1-10.2-4.1l0,0c0.2-0.6,0.9-1.2,0.9-1.2c0.2,1.4,0.4,1.3,1,1.7
								c2.9,1.9,9,2.9,16.3,2.9c7.3,0,12.9-1.2,14.9-6.4c2.1-5.3,4.8-10.4,6.6-13.5c1.9-3.1,5.6-8.2,5.6-8.2L434.6,752.7z"/>
						</g>
					</g>
					<g>
						<path class="st14" d="M465.1,731c-2.2,2.8-10.4,6.1-18.6,6.9c-2.5,0.3-5.1,0.3-7.4,0c-0.7,1.2-2.7,2.4-5.6,3.4
							c-21.3,7.3-93.6,7.8-105.6-2.7c-1.5-46.6-1.5-86.1-1-116.3c0.6-42.2,1.1-68.7,5.1-104.3c2.9-26.3,4.4-39.5,7.4-55.8
							c3.1-16.9,6.4-29.9,8.4-51.9c1-11.3,1.3-20,1.5-26.1c0.8-26.7-1.4-29.5-1.2-51.9c0.4-43.7,8.6-59.7,12.9-66.6
							c2.2-3.6,4.6-7,7.3-10.2l6-2.1l61.3-1.9c0,0,4.6,2.8,4.6,2.8c-8.4,11-11.6,25-9.7,38.6c0.7,4.6,9.6,36.4,17.1,34.1
							c4.7-1.5,8.7-8.7,8.8-8.9c-7.4,11.7-11.9,22.2-14.6,30c-2.9,8.3-5.3,17.3-5.6,26.3c-0.3,8.5,2.1,16.5,4.9,24.4
							c3.7,10.5,5.2,21.2,6.5,32.2c1.3,11.3,2.6,22.6,3.7,33.9C454.8,496.4,460.9,596,465.1,731z"/>
					</g>
					<g>
						<g>
							<path class="st14" d="M385.2,243.5l-8.5,0.3c-7.7,0.2-14.1-5.8-14.3-13.5l-0.4-13.1l22.3-0.7L385.2,243.5z"/>
							<g>
								<polygon class="st21" points="359.2,193.1 361.6,193 363,216.6 360.9,216.6 								"/>
								<path class="st11" d="M428,188.3c-0.2,3.9-0.9,8-2.4,12.2c-0.3,1-0.7,2-1.1,2.9l-12,16c0,0-2.4,5-4.3,7
									c-1,1.1-21.5,15.4-26.1,15.7c-0.6,0-1.2,0-1.8,0l0,0c-3.4-0.1-5-1.1-5.8-2.1c-0.4-0.4-1.5-3.5-4.8-8
									c-7-9.4-8.3-20.1-8.3-26.6c0-2.1,0.1-3.8,0.2-4.9c0,0-1.7-5.5-1.8-7.9c0-0.1,0-0.2,0-0.3c0-0.7-0.1-4.3,0.6-9.1
									c1.8-11.1,8.3-28.8,32-32.9C408.2,147.5,428.9,164.6,428,188.3z"/>
								<g>
									<path class="st22" d="M376.5,224c-0.7,0.1-1.3,0.4-1.6,0.6c-0.7-0.5-1.2-0.5-1.5-0.5c-0.7,0.1-1,0.6-1.6,1
										c-0.3,0.2-0.8,0.4-1.4,0.5c0.6,0.4,1.6,1,2.9,1.4c3.3,1,6.2,0.4,8.3,0c1-0.2,2.5-0.6,4.1-1.3c-1.9,0.3-3.3,0-4.2-0.3
										C380.3,225.1,377.6,223.9,376.5,224z"/>
									<path class="st22" d="M373.2,226.7c-1-0.4-2-0.7-2.9-1.1c0.3,0.7,1.1,2.3,2.9,3.2c1.1,0.6,2,0.6,2.9,0.7
										c3.1,0.2,5.5-1.1,6.5-1.6c0.8-0.4,1.8-1.1,3-2.2c-1.2,0.3-2.5,0.7-4,0.9C378.3,227.1,375.4,227,373.2,226.7z"/>
								</g>
								<g>
									<path class="st4" d="M383.4,202.7c0.6,0.6,3,2.7,6.5,2.7c1.8,0,3.3-0.5,4.1-0.9l3.2-2c0.1-0.6,0.2-1.1,0.4-1.7
										c-0.9-0.8-2.4-1.9-4.4-2.5c-1.2-0.3-3.7-1.1-6,0.1c-0.9,0.5-1.5,1.2-1.9,1.6C384.3,201,383.7,202,383.4,202.7z"/>
									<g>
										<defs>
											<path id="SVGID_00000072981500462739594090000006347672445054337461_" d="M383.4,202.7c0.6,0.6,3,2.7,6.5,2.7
												c1.8,0,3.3-0.5,4.1-0.9l3.2-2c0.1-0.6,0.2-1.1,0.4-1.7c-0.9-0.8-2.4-1.9-4.4-2.5c-1.2-0.3-3.7-1.1-6,0.1
												c-0.9,0.5-1.5,1.2-1.9,1.6C384.3,201,383.7,202,383.4,202.7z"/>
										</defs>
										<clipPath id="SVGID_00000122679488348411024640000003085139083805233559_">
											<use xlink:href="#SVGID_00000072981500462739594090000006347672445054337461_"  style="overflow:visible;"/>
										</clipPath>
										<g style="clip-path:url(#SVGID_00000122679488348411024640000003085139083805233559_);">
											<path class="st24" d="M385.9,201.7c-0.1,2,1.4,4,3.4,4c2,0,3.5-2.1,3.4-4.1c-0.1-1.7-1.5-3.5-3.4-3.5
												C387.4,198.1,386,199.9,385.9,201.7z"/>
											<path d="M387.3,202.1c0,1.1,0.7,2,1.5,2c0.8,0,1.5-0.9,1.5-2c0-1.1-0.7-2-1.5-2C387.9,200.1,387.3,201,387.3,202.1z"/>
											<path class="st4" d="M389.3,200.8c0,0.5,0.3,0.9,0.7,0.9c0.4,0,0.7-0.4,0.7-0.9c0-0.5-0.3-0.9-0.7-0.9
												C389.6,199.9,389.3,200.3,389.3,200.8z"/>
										</g>
									</g>
									<path d="M383.4,202.7c-0.1-0.1,1-3.2,3.8-4.7c2.1-1.1,4.2-0.8,5.1-0.7c3.1,0.4,5.1,2.2,5.9,2.9c0.7,0,1.4-0.1,2-0.1
										c-0.4,0.5-1.1,1.1-1.9,1.8c-1.3,1.2-2.4,2.1-3.9,2.7c-0.7,0.3-1.7,0.6-3.1,0.7c0.6-0.1,1.2-0.3,1.9-0.6
										c2-0.9,3.3-2.3,4-3.2c-0.7-0.8-1.8-1.8-3.5-2.4c-3-1.1-6.3-0.3-8.3,1.4C384,201.5,383.5,202.7,383.4,202.7z"/>
								</g>
								<path d="M380.4,193.8c-0.1,0.2-0.4,0.9-0.1,1.5c0.4,0.7,1.8,1,3.2,0.1c0.8-0.3,2-0.7,3.5-1.1c3.3-1,5.3-1.5,7.3-1.7
									c1.6-0.1,4.6,0,8.3,2.1c-1.3-1.1-4.4-3.4-8.8-4.1C386.8,189.5,381.5,193,380.4,193.8z"/>
								<g>
									<path class="st4" d="M372.4,203.7c-0.4,0.4-2.9,2.9-6.3,2.5c-0.5-0.1-1.9-0.2-3.2-1.3c-1.6-1.3-2.1-2.9-2.2-3.5
										c0.4-0.5,1.7-2,4-2.4c2.8-0.5,4.9,1.2,5.4,1.5C371.5,201.7,372.1,203,372.4,203.7z"/>
									<g>
										<defs>
											<path id="SVGID_00000022540975496707032780000000651575347483381929_" d="M372.4,203.7c-0.3,0.4-2.4,2.7-5.6,2.6
												c-0.5,0-2.2-0.1-3.9-1.4c-0.5-0.4-1.6-2-2.2-3.5c-0.7-1.8,3.8-2.4,4-2.4c2.6-0.4,4.5,1,5.2,1.4
												C371.4,201.6,372.1,203,372.4,203.7z"/>
										</defs>
										<clipPath id="SVGID_00000057856215775321466940000008514620734314522786_">
											<use xlink:href="#SVGID_00000022540975496707032780000000651575347483381929_"  style="overflow:visible;"/>
										</clipPath>
										<g style="clip-path:url(#SVGID_00000057856215775321466940000008514620734314522786_);">
											<path class="st24" d="M363.7,203.1c0.3,2.1,1.8,3.5,3.3,3.2c1.5-0.3,2.6-2.2,2.3-4.2c-0.3-2.1-1.8-3.5-3.3-3.2
												C364.4,199.2,363.4,201.1,363.7,203.1z"/>
											<path d="M364.5,203c0.2,1.2,1,2,1.8,1.9c0.8-0.1,1.4-1.2,1.2-2.4c-0.2-1.2-1-2-1.8-1.9
												C364.9,200.8,364.3,201.8,364.5,203z"/>
											<path class="st4" d="M366.2,201.5c0.1,0.5,0.4,0.8,0.7,0.7c0.3-0.1,0.5-0.5,0.4-0.9c-0.1-0.5-0.4-0.8-0.7-0.7
												C366.3,200.6,366.1,201,366.2,201.5z"/>
										</g>
									</g>
									<path d="M368.6,199.1c-3-1.5-5.9-0.2-6.4,0.1c-0.8,0.4-1.4,0.8-1.8,1.1c-0.4,0.1-0.9,0.3-1.3,0.4c0.1,0.2,0.3,0.6,0.5,0.9
										c0.1,0.3,1.1,2,2.3,3c1.8,1.6,4.3,1.7,5.2,1.6c-0.5-0.1-2.4-0.3-4-2c-1.1-1.2-1.4-2.4-1.5-3c0.4-0.4,1.5-1.5,3.3-1.8
										c1.2-0.2,2.2,0.1,2.7,0.2c2.9,0.8,4.4,3.2,4.9,4C372.2,203.3,371.4,200.5,368.6,199.1z"/>
								</g>
								<path d="M368.8,196.5c0.8,0,1.8-0.4,1.9-1c0.1-0.4-0.3-0.7-0.6-0.9c-2.2-1.9-4-2.6-4-2.6c-2.6-0.9-5-0.9-6.7-0.8l0.1,2
									c3.9,0.6,5.9,1.6,7,2.5C366.8,195.8,367.7,196.5,368.8,196.5z"/>
								<g>
									<g>
										<path class="st26" d="M378.1,219c0,0-0.2,1-1.1,1.5c-0.4,0.2-1,0.5-1.6,0.6c-0.2,0-0.4,0.1-0.6,0c-1,0-2.2-0.7-2.4-1.7
											c0-0.1,0-0.3,0-0.5c0.1,0.1,0.3,0.3,0.6,0.4c0,0,0.5,0.3,1,0.4C374.9,219.9,376.4,219.7,378.1,219z"/>
									</g>
								</g>
							</g>
							
								<linearGradient id="SVGID_00000103255095746456326280000009989335044629499580_" gradientUnits="userSpaceOnUse" x1="2168.2502" y1="165.6048" x2="2168.2527" y2="165.6048" gradientTransform="matrix(-0.9996 2.979396e-02 2.979396e-02 0.9996 2522.3464 -39.689)">
								<stop  offset="0" style="stop-color:#6D3138"/>
								<stop  offset="1" style="stop-color:#600C31"/>
							</linearGradient>
							<path style="fill:url(#SVGID_00000103255095746456326280000009989335044629499580_);" d="M360,190.4
								C360,190.4,360,190.4,360,190.4L360,190.4L360,190.4z"/>
							<path class="st14" d="M360.9,180.1c0.2-1.1,0.5-2.6,1.3-4.3c2.8-6.4,9.1-11.7,15.7-12.1c6.1-0.3,12.7,1,17.7,5.2
								c8.6,7.2,12.8,15.9,17.2,37.1l1-22.6l-8.1-27.5l-19.3-5.2l-13.9,4.5l-6.7,6.4c-2.8,6.6-2.9,7-3.6,9.4
								c-0.7,2.4-0.8,4.9-0.8,4.9l-0.2,2.2l0,0.4C361,179,361,179.5,360.9,180.1z"/>
							<path class="st28" d="M452.3,263.5c-1.1,5.4-8.7,7.1-24.5,18.7c0,0,0,0,0,0c-16.6,8.6-33.6,16.8-51.1,17.3
								c-1,0-1.9-0.1-2.7-0.4c-9-2.8-11.6-20.4-11-25.4c0.6-4.7,3.8-9.6,4.2-11.6c1.2-7.1-2.9-7.8-1.4-11.1c1.5-3.4,2.4-5.9,1.2-9
								c-1.2-3.1-4.3-6.9-6.3-13.6c-0.7-3.6-2.2-7.7-2.7-11.6c-2-13.8,1.7-26.1,1.8-26.2c-0.1,0.9,0.8,6.1,1,14.6
								c0.3,9.3,6.6,24.9,7.7,28.3c0.8,2.3,2.7,5,6.2,6.7c0.1,0,0.7,0.9,2.3,1.4c0.3,0.1,0.8,0.2,1.5,0.3c0.8,0.1,1.9,0.2,3,0.1
								c2.2-0.1,5.1-1.5,8.4-3.5c3.3-2,7.1-4.7,11.2-7.2c8.2-5.1,8.9-11.7,9.2-13c3-12.8,1-40.1-4.9-51.3
								c-5.9-11.3-17.6-15.8-30.6-11c-11.3,4.2-13.4,21.3-13.6,22.6c0.2-3.9,0.6-9.3,2-13c2.7-6.9,8.6-12.7,17.5-15.3
								c7.8-2.3,14.4-3,20-2.6c29.6,2.3,31.7,36.8,32.6,46.2c0.7,7.5-1.8,11.5-1.8,11.5l0.4,7l0.2,3.6l-1.2,11.1l-2,4.4
								c0.1,0,2.6-1,3.3-0.1c0.2,0.2,0.6,0.6,1.1,1.3c2,2.3,5.8,7.1,7,9.2c0.2,0.4,0.4,0.8,0.6,1.1l0,0c0.1,0.2,2,5.9,4.8,9
								C448.5,255.1,453.3,258.1,452.3,263.5z"/>
							<g>
								<path class="st29" d="M366.6,240c3.2,5.9,9.3,11.9,20.1,11c0,0-9.6,3.1-14.3-0.6C367.7,246.8,366.1,239.2,366.6,240z"/>
								<path class="st29" d="M373.1,259.3c14.2,12.1,28.5,16.6,44.4,1.1c0,0-8.1,12.6-20.1,12.9
									C385.5,273.4,376.5,263.5,373.1,259.3z"/>
								<path class="st29" d="M378.5,241.9c2.1,0.9,5.2,1.7,9.2,1.7c5.8,0,10.5-4.6,10.6-4.8c-0.2,0.1-8.1,4.6-16.9,3.2l0,0
									C380.4,242,379.3,241.9,378.5,241.9z"/>
								<path class="st29" d="M415.1,195c-1.2,12.2-4,26.1-4,26.1s6.4-15.4,6.8-26.2C418.3,184.1,416.3,182.8,415.1,195z"/>
							</g>
						</g>
						<path class="st29" d="M366.5,277.1c3.3,10.9,6.9,19.4,21.1,17.2c14.3-2.2,23.5-7.9,23.5-7.9s-23,8.5-31.9,5.2
							C370.2,288.4,363.2,266.3,366.5,277.1z"/>
					</g>
				</g>
			</g>
		</g>
		<path style="clip-path:url(#SVGID_00000176028686517698993180000008747317449098401196_);fill:#FFB886;" d="M383.1,386.2
			c-1.4-1.2-3.6-2.8-6.5-4.3c-1.1-0.6-2.1-1-3.7-1.6c-1.4-0.6-3.1-1.3-5.2-2c-1.6-0.6-3.3-0.4-4.7,0.5c-0.8,0.5-1.6,1-2.5,1.5
			c-2.4,1.4-4.7,2.5-6.9,3.5c1.3,0.6,3.7,1.5,6.9,1.4c1.7,0,3.1-0.4,4.2-0.7c1,0.4,1.9,0.7,2.9,1.1c0.6,0.9,1.1,1.8,1.7,2.7
			c-1.5,0.5-3.1,1-4.9,1.4c-7.7,1.8-14.5,1.2-19.4,0.2c-0.5,0.2-2.7,1.4-3,3.6c-0.3,1.9,1,3.5,1.6,4.3c4.5,5.5,16.3,6.1,18.7,6.1
			c4.7,0.1,12.1-0.2,20.9-3.3c4.5-0.6,8.9-1.3,13.4-1.9c-0.3-4.8-0.6-9.6-1-14.4C391.4,384.8,387.2,385.5,383.1,386.2z"/>
		<g style="clip-path:url(#SVGID_00000176028686517698993180000008747317449098401196_);">
			<g>
				<path class="st30" d="M349.3,383.2c-4.6-0.3-8.9-0.4-11.9-0.3c-9.3,0-18,0.9-24.4,4.9c-7.5,4.7-5.9,10.5,3.9,13.7
					c5.3,1.8,11.9,2,18.1,1.6c12.2-0.7,30.3-1.1,36.9-8C379.7,386.8,363.2,384,349.3,383.2z"/>
			</g>
			<path class="st9" d="M319.2,388.8c0.2-0.3,1.9-2,5.4-2.4c3.5-0.4,6.9,0.8,6.8,1.3c-0.2,0.6-4.9,0.1-6.8,1.7
				c-0.6,0.5-0.5,0.9-1.6,1.4c-0.8,0.4-2.4,0.9-3.4,0.6C318.6,391.2,318.1,390,319.2,388.8z"/>
			<path class="st8" d="M338.8,384.7c0.5-0.1,4.1-0.4,6.7,0.8c2.7,1.2,3.1,3.4,2.2,3.7c-1,0.3-3.2-2-6.6-1.9
				c-1.1,0.1-1.7,0.3-3.1,0.2c-1.1-0.1-2.7-0.5-2.9-1.1C334.9,385.9,336.3,385,338.8,384.7z"/>
			<path class="st6" d="M345.6,399c-0.5,0.1-4,0.9-6.8-0.1c-2.8-0.9-3.6-3.1-2.8-3.4c0.9-0.4,3.5,1.6,6.9,1.1c1.1-0.2,1.6-0.5,3-0.6
				c1.1,0,2.8,0.2,3,0.7C349.2,397.4,347.9,398.4,345.6,399z"/>
			<path class="st7" d="M319.6,393.5c-1.2,0.1-2.1,0.7-2.4,1.3c-0.1,0.4-0.1,0.8,0.1,1.2c0.9,2,5.5,2.4,5.6,2.5
				c4.6,0.4,8.7-1.7,8.4-2.2c-0.3-0.4-3.9,0.5-7.9-0.5c-0.6-0.2-2.8-0.7-2.9-1.5c-0.1-0.3,0.3-0.6,0-0.8
				C320.4,393.4,320,393.4,319.6,393.5z"/>
		</g>
		<g style="clip-path:url(#SVGID_00000176028686517698993180000008747317449098401196_);">
			<g>
				<path class="st31" d="M466.3,284.5c-2.5,30-4.1,55.7-4.6,72c-0.5,14-0.8,25.5-9,33.6c-4.8,4.8-10.7,5.6-31.5,8.5
					c-9,1.3-21.1,3-35.5,4.9c-1-2.8-2.2-7.1-2.2-12.4c0-4,0.7-7.4,1.3-9.9c16.5-6.3,33-12.5,49.5-18.8c0.2-21.6,0.3-43.1,0.5-64.7
					c0.1-3,0.7-13,8.2-20.6c7-7.1,15.7-7.6,16.3-7.6c0.4,0,1.3,0.1,2.3,1.4C463.1,272.9,465.8,277.2,466.3,284.5z"/>
			</g>
		</g>
	</g>
	<path class="st11" d="M362.8,384.8c-0.6-1.4-1.5-2.8-2.7-4.4c0,0,0,0,0-0.1c-2.3,1.3-4.5,2.4-6.5,3.3c0,0.3,0.2,0.7,0.5,1.1
		c1.1,1.4,3.7,1.1,5.4,0.9C360.3,385.5,361.5,385.3,362.8,384.8z"/>
</g>
</svg>
