<?xml version="1.0" encoding="utf-8"?>
<!-- Generator: Adobe Illustrator 26.0.1, SVG Export Plug-In . SVG Version: 6.00 Build 0)  -->
<svg version="1.1" id="Layer_1" xmlns="http://www.w3.org/2000/svg" xmlns:xlink="http://www.w3.org/1999/xlink" x="0px" y="0px"
	 viewBox="0 0 1202 824" style="enable-background:new 0 0 1202 824;" xml:space="preserve">
<style type="text/css">
	.st0{clip-path:url(#SVGID_00000158743740626209935090000015162652484587308426_);}
	.st1{fill:#A5E0DC;}
	.st2{fill:#00747D;}
	.st3{fill:#81CCC6;}
	.st4{fill:#474747;}
	.st5{fill:#CC936D;}
	.st6{fill:#101010;}
	.st7{fill:#C6C6C6;}
	.st8{fill:#FFFFFF;}
	.st9{fill:#AF7151;}
	.st10{fill:#383838;}
	.st11{fill:#FFC229;}
	.st12{fill:#E09D6C;}
	.st13{fill:#E08373;}
	.st14{fill:#E5B589;}
	.st15{fill:#C48C66;}
	.st16{fill:#F9CA9B;}
	.st17{fill:#FFDEBD;}
	.st18{fill:#FFD8AE;}
	.st19{fill:#AFABAC;}
	.st20{fill:#A8A8A8;}
	.st21{fill:#D1CBCD;}
	.st22{fill:#DCD3C4;}
	.st23{fill:#F7F4F0;}
	.st24{fill:#717677;}
	.st25{fill:#682C1E;}
	.st26{fill:#6C7072;}
	.st27{fill:#3A3A3A;}
	.st28{fill:#F7F7F7;}
	.st29{fill:#17140C;}
	.st30{clip-path:url(#SVGID_00000158743740626209935090000015162652484587308426_);fill:#DC2428;}
	.st31{clip-path:url(#SVGID_00000158743740626209935090000015162652484587308426_);fill:#CC936D;}
</style>
<g>
	<g>
		<defs>
			<path id="SVGID_1_" d="M1168.4,544.1c-3.9,17.8-9,41.2-21.3,65.9c-5.4,10.9-12.2,22-21,33c-27.6,34.7-60.5,50.9-77.4,58.9
				c-276.5,132-602.9,57-602.9,57c-112.2-25.8-212.9-48.9-291-117.8c-15.8-13.9-30.6-29.7-44.5-47.7C45,508.4,2.9,374,51.3,321.4
				c50.5-54.9,163.7-8.7,236.7-75.6c9.5-8.7,16.5-21.3,20.6-40.2c21.1-97,101.4-191.1,247.7-160.8c187.7,39,167,149.3,259.1,141.1
				s249.8-70,278.3,46.9c28.5,117-105,217.3-20,209c34.7-3.4,75.1-9.2,94.2,11.8C1183.2,470.4,1177.7,501.5,1168.4,544.1z"/>
		</defs>
		<clipPath id="SVGID_00000029025375458423954520000012086805187060194954_">
			<use xlink:href="#SVGID_1_"  style="overflow:visible;"/>
		</clipPath>
		<g style="clip-path:url(#SVGID_00000029025375458423954520000012086805187060194954_);">
			<path class="st1" d="M1168.4,544.1c-3.9,17.8-9,41.2-21.3,65.9c-5.4,10.9-12.2,22-21,33c-27.6,34.7-60.5,50.9-77.4,58.9
				c-276.5,132-602.9,57-602.9,57c-112.2-25.8-212.9-48.9-291-117.8c-15.8-13.9-30.6-29.7-44.5-47.7C45,508.4,2.9,374,51.3,321.4
				c50.5-54.9,163.7-8.7,236.7-75.6c9.5-8.7,16.5-21.3,20.6-40.2c21.1-97,101.4-191.1,247.7-160.8c187.7,39,167,149.3,259.1,141.1
				s249.8-70,278.3,46.9c28.5,117-105,217.3-20,209c34.7-3.4,75.1-9.2,94.2,11.8C1183.2,470.4,1177.7,501.5,1168.4,544.1z"/>
			<g>
				<path class="st2" d="M54.5,507.8c36.5-35.8,51.1-41.6,96.2-32c24.6,5.3,56.2,2.9,74.3-16.7c12.4-13.5,10.8-33.5,28.2-40.7
					c21.8-9.1,54.9,6.1,74.4,15.9c24.1,12.1,50,26.8,77,14.9c37.1-16.5,37.3-64.6,82.2-67.8c28.9-2.1,52.6,12.7,76.2,28
					c11.3,7.3,24.3,22.1,38.6,21.7c29.9-0.7,46.4-43.8,74.8-51.2c51.3-13.4,95.2,20.2,136.7,45.9c11.7,7.2,27.9,18.3,42.4,17.4
					c22.1-1.4,28-26.4,45-36.7c39.2-23.7,67.5,12,101.1,23.5c27.1,9.3,47.9-10,70.6-21.8c34.8-18,76.9-20.8,114.5-8.4
					c28.1,9.2,38.7,36.1,40.5,63.5c1.8,27.4-5.7,54.1-11.5,80.6c-6.3,29-8.3,57.7-11.7,87.1c-1.8,15.4-0.5,23.3-13.9,30.9
					c-14.9,8.4-41,8-57.3,5.6c-32-4.7-62.3-14.4-94.8-16.9c-33.9-2.7-67.9-2.3-101.8-4.8c-48.8-3.6-96.8-13-145.8-15.9
					c-43.4-2.6-86.8-3.8-130.2-7.1c-54.6-4-110.6-2.7-165.2-1.1c-71.6,2.1-142.5,3.4-213.3,16.7c-53.1,10-119.7,40.4-174.2,16.4
					c-15.8-7-24.7-18.1-29.7-34.3C71.3,600,66,577.3,61.4,556.2c-2.7-12.4,1.2-46.1-8.4-54.3"/>
			</g>
			<path class="st3" d="M1147.1,610c-5.4,10.9-12.2,22-21,33c-27.6,34.7-60.5,50.9-77.4,58.9c-276.5,132-602.9,57-602.9,57
				c-112.2-25.8-212.9-48.9-291-117.8c58.9-44.4,316.4-76.3,536.1-76.3C854.6,564.8,1039.2,582.6,1147.1,610z"/>
			<g>
				<path class="st4" d="M285,430.6c-0.1,1.2-9.2,1.2-10.1,1.2c-0.9,0-10,0-10.1-1.2c-0.1-0.9,5-2.6,10.2-2.6
					C280.1,428,285.1,429.6,285,430.6z"/>
				<g>
					<g>
						<g>
							<g>
								<path class="st5" d="M263.9,650.5c-2-0.1-4.1-0.2-6.1-0.3c0.2-0.9,0.4-1.8,0.6-2.7c-0.2-2.2-0.3-4.3-0.5-6.5
									c1.9,0,3.8,0,5.8,0c-0.1,2.2-0.2,4.3-0.3,6.5C263.6,648.5,263.7,649.5,263.9,650.5z"/>
								<g>
									<path class="st6" d="M255,658.8c0,0.3,0,0.6,0.1,0.9c1,4,2.9,4.4,5.5,3c2.2-1.2,2.9-1.5,3.2-2.9c-1.2-0.9-2.9-1.4-4.9-1.6
										C257.4,658.2,256.1,658.4,255,658.8z"/>
									<path class="st5" d="M255.3,657.4c0,0.3-0.2,0.7-0.1,1c1,4,2.9,4.4,5.5,3c2.2-1.2,2.6-1.6,2.9-2.9
										c-1.2-0.9-2.6-1.4-4.6-1.5C257.5,656.9,256.4,657,255.3,657.4z"/>
									<path class="st5" d="M263.9,657c0-2.6,0-6.4,0-6.4l-6.1-0.3c0,0-1.5,2.7-2.3,5.5c1-0.3,2.2-0.4,3.4-0.4
										C260.9,655.4,262.7,656.1,263.9,657z"/>
									<path class="st6" d="M263.9,657c-1.2-0.9-2.9-1.5-5-1.6c-1.2-0.1-2.4,0.1-3.4,0.4c-0.3,1.1-0.5,2.2-0.5,3.1
										c1.1-0.4,2.5-0.6,3.9-0.5c2,0.1,3.7,0.7,4.9,1.6c0.1-0.2,0.1-0.5,0.1-0.7C263.9,658.7,263.9,657.9,263.9,657z"/>
									<path class="st6" d="M256.5,653c0,0,3.3-1.1,7.4,0.6v-3.1c-0.7-0.3-1.8-0.6-3.1-0.6c-1.2-0.1-2.3,0.1-3,0.3
										C257.6,650.5,257.5,650.8,256.5,653z"/>
									<path class="st6" d="M258.3,657.1c0,0,0.7-4.9,1.2-5.9l2,0.1l-0.5,6.1L258.3,657.1z"/>
								</g>
							</g>
							<g>
								<path class="st5" d="M286.2,650.5c2-0.1,4.1-0.2,6.1-0.3c-0.2-0.9-0.4-1.8-0.6-2.7c0.2-2.2,0.3-4.3,0.5-6.5
									c-1.9,0-3.8,0-5.8,0c0.1,2.2,0.2,4.3,0.3,6.5C286.5,648.5,286.4,649.5,286.2,650.5z"/>
								<g>
									<path class="st6" d="M295.1,658.8c0,0.3,0,0.6-0.1,0.9c-1,4-2.9,4.4-5.5,3c-2.2-1.2-2.9-1.5-3.2-2.9
										c1.2-0.9,2.9-1.4,4.9-1.6C292.7,658.2,294,658.4,295.1,658.8z"/>
									<path class="st5" d="M294.8,657.4c0,0.3,0.2,0.7,0.1,1c-1,4-2.9,4.4-5.5,3c-2.2-1.2-2.6-1.6-2.9-2.9
										c1.2-0.9,2.6-1.4,4.6-1.5C292.5,656.9,293.7,657,294.8,657.4z"/>
									<path class="st5" d="M286.2,657c0-2.6,0-6.4,0-6.4l6.1-0.3c0,0,1.5,2.7,2.3,5.5c-1-0.3-2.2-0.4-3.4-0.4
										C289.2,655.4,287.4,656.1,286.2,657z"/>
									<path class="st6" d="M286.2,657c1.2-0.9,2.9-1.5,5-1.6c1.2-0.1,2.4,0.1,3.4,0.4c0.3,1.1,0.5,2.2,0.5,3.1
										c-1.1-0.4-2.5-0.6-3.9-0.5c-2,0.1-3.7,0.7-4.9,1.6c-0.1-0.2-0.1-0.5-0.1-0.7C286.2,658.7,286.2,657.9,286.2,657z"/>
									<path class="st6" d="M293.6,653c0,0-3.3-1.1-7.4,0.6v-3.1c0.7-0.3,1.8-0.6,3.1-0.6c1.2-0.1,2.3,0.1,3,0.3
										C292.4,650.5,292.6,650.8,293.6,653z"/>
									<path class="st6" d="M291.8,657.1c0,0-0.7-4.9-1.2-5.9l-2,0.1l0.5,6.1L291.8,657.1z"/>
								</g>
							</g>
							<g>
								<g>
									<g>
										<path class="st7" d="M296.2,644.8c-0.1,0.4-2.4,0.6-7.1,0.9c-4.6,0.3-6.9,0.5-7,0.1c0,0,0,0,0,0
											c-0.1-18.6-0.1-37.3-0.2-55.9c3.5,1.1,7,2.1,10.5,3.2C293.7,610.3,294.9,627.5,296.2,644.8
											C296.2,644.7,296.2,644.8,296.2,644.8z"/>
									</g>
								</g>
								<g>
									<g>
										<path class="st7" d="M267.9,589.9c-0.1,18.6-0.1,37.3-0.2,55.9c0,0,0,0,0,0c-0.1,0.4-2.4,0.2-7-0.1
											c-4.7-0.3-7-0.5-7.1-0.9c0,0,0-0.1,0-0.1c1.3-17.2,2.5-34.4,3.8-51.6C261,592,264.4,590.9,267.9,589.9z"/>
									</g>
								</g>
								<path class="st7" d="M264.8,454.5l10.1,7.8c3.6-2.6,7.3-5.1,10.9-7.7c-3.4-0.3-7-0.4-10.9-0.5
									C271.4,454.1,268,454.3,264.8,454.5z"/>
								<path class="st8" d="M303,468.8c-0.1-2.5-0.5-3.9-1-5c0,0-0.4-0.9-1.1-1.8c-1.6-2.1-7.9-4.6-16.5-6.1
									c-3.1,1.6-6.1,3.2-9.2,4.8c-1.5-1.6-4.7-4.5-9-4.6c-0.7,0-1.7,0.3-3.9,0.6c-3.3,0.6-7,1.7-10.7,3.7
									c-0.5,0.2-0.9,0.5-1.4,0.8c-0.7,0.3-1.6,0.9-2.3,1.9c-1.7,2.5,0.4,10,0.4,10c1.3,3.9,3.3,9.2,6.2,15.3c16.7,0,33.5,0,50.2,0
									C303.7,480,303.3,473.4,303,468.8z"/>
								<path class="st5" d="M287,456.9c-3.9,1.3-7.8,2.6-11.7,3.9c-4.7-1.1-9.4-2.3-14-3.4c2.5-1.3,4.9-2.5,7.4-3.8
									c0.6-2.6,1.1-5.2,1.7-7.8c3.3,0,6.6,0,9.9,0c0.5,2.6,0.9,5.1,1.4,7.7C283.4,454.6,285.2,455.7,287,456.9z"/>
								<path class="st5" d="M284.6,435c0,0.5-0.2,2-0.6,5c0,0.1,0,0.2,0,0.3c-0.2,1.8-0.4,3.2-0.5,4.2c-0.7,1.5-2.3,4.2-5.3,5.9
									c-1.8,1-3.1,1-3.4,1c-1.7,0-2.9-0.7-3.8-1.3c-2.9-2-4.4-4.5-5-6c-0.1-0.8-0.2-1.8-0.4-3.2c-0.1-0.4-0.1-1-0.2-1.5
									c-0.2-1.6-0.4-3.4-0.5-4.5c-0.2-2.7-0.5-7.9,2.9-11.2c2.7-2.6,6.2-2.7,7-2.7c0.7,0,4.4,0,7.1,2.7
									C285.3,427.1,284.8,432.3,284.6,435z"/>
								<path d="M265.4,435.8c0.1-0.1,0.2-0.1,0.3-0.2c-0.2-1.2-0.2-2.2-0.2-2.9c0-1.5,0.2-1.9,0.4-2.1c0.5-0.5,1-0.2,1.6-0.6
									c0.6-0.4,0.8-1.2,0.9-2.1c-1,0.1-2.1,0.2-3.1,0.3c-0.1,0.5-0.2,1.2-0.3,2.1c0,0.1,0,0.1,0,0.3c-0.2,2.4-0.2,2.6-0.2,2.9
									C264.7,434.1,264.8,434.9,265.4,435.8z"/>
								<path d="M284.4,435.8c-0.1-0.1-0.2-0.1-0.3-0.2c0.2-1.2,0.2-2.2,0.2-2.9c0-1.5-0.2-1.9-0.4-2.1c-0.5-0.5-1-0.2-1.6-0.6
									c-0.6-0.4-0.8-1.2-0.9-2.1c1,0.1,2.1,0.2,3.1,0.3c0.1,0.5,0.2,1.2,0.3,2.1c0,0.1,0,0.1,0,0.3c0.2,2.4,0.2,2.6,0.2,2.9
									C285.1,434.1,285,434.9,284.4,435.8z"/>
								<path class="st9" d="M271.7,443.9c0,0.2,1.6,0.5,3.2,0.5c1.4,0,2.9-0.3,2.9-0.5c0-0.2-1.8-0.3-3.1-0.3
									C273.6,443.6,271.7,443.7,271.7,443.9z"/>
								<path class="st9" d="M276.3,439.7c-0.1,0.1-0.6,0.4-1.2,0.5c-0.8,0.1-1.4-0.4-1.5-0.5c0.5,0,1,0,1.6,0
									C275.5,439.7,275.9,439.7,276.3,439.7z"/>
								<path class="st8" d="M264.8,454.5l-4.7,2.7c2.9,3.6,5.9,7.3,8.8,10.9c4.2,0,8.4,0.1,12.5,0.1c2.5-3.8,5.1-7.6,7.6-11.4
									c-1.2-0.7-2.4-1.5-3.7-2.2c-1.7,0.6-3.5,1.4-5.4,2.4c-1.7,0.9-3.3,1.8-4.7,2.7c-1.3-0.9-2.7-1.7-4.3-2.6
									C268.8,456,266.7,455.2,264.8,454.5z"/>
								<g>
									<g>
										<path d="M278,435c0.1-0.1,1,1.1,2.4,1.2c1.5,0.1,2.6-1.1,2.6-1.1c0.1,0.1-1.1,1.7-2.7,1.6
											C278.8,436.6,277.9,435.1,278,435z"/>
									</g>
									<g>
										<path d="M267.3,435c0.1-0.1,0.9,1.2,2.4,1.3c1.5,0.1,2.6-1,2.7-0.9c0.1,0.1-1.2,1.6-2.8,1.4
											C268,436.6,267.2,435,267.3,435z"/>
									</g>
									<path d="M271.7,431.7c-0.3-0.1-1-0.5-2.2-0.6c-1.6-0.2-2.6,0.2-2.8,0.3c-0.3,0.2-0.5,0.4-0.5,0.4c-0.2,0.2-0.3,0.3-0.4,0.6
										c-0.1,0.3-0.3,0.6-0.4,1c0,0,0.1-0.1,0.2-0.1c0,0,0.3-0.2,0.7-0.4c1.3-0.6,3.2-0.6,3.2-0.6c1.2,0.1,2.1,0.4,2.8,0.7
										c0.1,0,0.3-0.2,0.4-0.4c0-0.1,0.1-0.3,0-0.3C272.5,432.1,272.2,431.9,271.7,431.7z"/>
								</g>
								<g>
									<path d="M277.9,431.7c0.3-0.1,1-0.5,2.2-0.6c1.6-0.2,2.6,0.2,2.8,0.3c0.3,0.2,0.5,0.4,0.5,0.4c0.2,0.2,0.3,0.3,0.4,0.6
										c0.1,0.3,0.3,0.6,0.4,1c0,0-0.1-0.1-0.2-0.1c0,0-0.3-0.2-0.7-0.4c-1.3-0.6-3.2-0.6-3.2-0.6c-1.2,0.1-2.1,0.4-2.8,0.7
										c-0.1,0-0.3-0.2-0.4-0.4c0-0.1-0.1-0.3,0-0.3C277.1,432.1,277.5,431.9,277.9,431.7z"/>
								</g>
								<path class="st8" d="M254.7,487.1c-2.5,48.9-5.1,97.8-7.6,146.7c5.7,1.6,10.3,2,13.4,2.1c12.4,0.5,15.1-3.4,25.7-1.7
									c2.6,0.4,5.9,1.2,10.9,0.9c3.6-0.2,6.4-0.7,8.3-1.2c-2.8-48.9-5.5-97.9-8.3-146.8c-6.3-0.3-11.1-0.1-14.4,0.2
									c-1.7,0.2-3.8,0.4-6.8,0.4c-3.7,0-6-0.4-8.3-0.6C264.4,486.8,260.1,486.6,254.7,487.1z"/>
								<path class="st7" d="M290.3,457.1c-4.3,2.2-8.5,4.4-12.8,6.6v24.5l-2.1,2l0-30.5c1.9-1.3,4.3-2.7,6.9-3.9
									c1.2-0.5,2.4-1,3.5-1.4C287.3,455.4,288.8,456.2,290.3,457.1z"/>
								<path class="st8" d="M300.9,461.9c0.6,1,1.1,1.8,1.3,2.4c0,0,1.5,3,2.3,6.2c0,0.1,0.2,0.7,0.3,1.5c0.1,0.4,0.2,0.9,0.3,1.3
									c1.3,5.2,2.8,10.2,4.5,14.9c8.4-3.4,16.8-6.7,25.1-10.1c0.9,1.1,1.7,2.3,2.6,3.6c1.1,1.6,2,3.1,2.9,4.6
									c-12.3,6.6-24.6,13.2-36.9,19.7c-2.2-6.2-4.4-12.4-6.7-18.6C298.5,479.1,299.1,470.2,300.9,461.9z"/>
								<path class="st7" d="M260.1,457.2l13,6.6v24.5l2.1,2l0-30.5c-1.9-1.3-4.3-2.7-6.9-3.9c-1.2-0.5-2.4-1-3.5-1.4
									C263.3,455.4,261.7,456.3,260.1,457.2z"/>
							</g>
							<path d="M280.7,443.5c-0.2-0.1-0.2-0.3-0.4-0.6c-1.1-2.1-4.8-2.1-5.4-2.1h-0.1c-0.9,0-4.2,0-5.4,2.1
								c-0.2,0.3-0.2,0.5-0.3,0.6c0,0,0,0-0.1,0c-0.3,0.1-2.4-3-3.6-4c0.1,0.6,0.1,1.1,0.2,1.5c0.2,1.3,0.3,2.4,0.4,3.2
								c0.7,1.5,2.1,4,5,6c0.9,0.6,2.1,1.3,3.8,1.3c0.3,0,1.6,0,3.4-1c3-1.7,4.6-4.4,5.3-5.9c0.1-1,0.3-2.4,0.5-4.2
								c0-0.1,0-0.2,0-0.3C283.2,440.3,281.6,443.8,280.7,443.5z M278.8,446.1C278.8,446.1,278.8,446.1,278.8,446.1
								c-0.6,0.4-1.5,0.7-2.1,0.3c-0.5-0.3-0.8-1.1-1.4-1.1h-0.8c-0.6,0-0.9,0.8-1.4,1.1c-0.6,0.4-1.4,0.1-2-0.3c0,0,0,0,0,0
								c-1-0.6-1-1.8-0.2-2.6c0.3-0.3,0.7-0.4,0.9-0.5c0.8-0.3,2-0.4,3.2-0.4s2.3,0.1,3.1,0.4c0.2,0.1,0.6,0.2,0.9,0.5
								C279.8,444.3,279.7,445.5,278.8,446.1z"/>
						</g>
					</g>
					<path class="st9" d="M290.7,499.3c-0.2,0.5-0.7,0.6-1.2,0.8c-0.5,0.2-0.8,0.2-1.3,0.3c-0.9,0.1-1.7,0.3-1.9,0.4
						c-1.1,0.3-1.7,0.7-2.3,1c-0.9,0.5-2.3,0.9-4.4,0.9l-0.4-1c2.7-0.7,3.5-1.5,3.7-2.2c0.1-0.3,0.2-1,0.7-1.8
						c0.3-0.4,0.5-0.7,0.7-0.8c-0.1,0.1-0.2,0.3-0.2,0.5c0,0.5,0.6,0.9,1.1,1.1c1.1,0.4,1.8-0.5,4-0.5c0.8,0,1.3,0.1,1.5,0.4
						C290.8,498.6,290.8,499,290.7,499.3z"/>
					<path class="st5" d="M284.6,432.6c0.2-0.2,0.9-0.6,1.4-0.4c0.5,0.3,0.3,1.4,0.2,2.2c-0.2,1.3-0.5,1.2-0.8,2.5
						c-0.2,1-0.1,1.7-0.6,1.9c-0.2,0.1-0.4,0.1-0.6,0C284.3,436.7,284.5,434.7,284.6,432.6z"/>
					<path class="st5" d="M265.1,432.6c-0.2-0.2-0.9-0.6-1.4-0.4c-0.5,0.3-0.3,1.4-0.2,2.2c0.2,1.3,0.5,1.2,0.8,2.5
						c0.2,1,0.1,1.7,0.6,1.9c0.2,0.1,0.4,0.1,0.6,0C265.4,436.7,265.2,434.7,265.1,432.6z"/>
				</g>
				<g>
					<g>
						<path class="st10" d="M264.9,430.6c2.1-0.8,5.2-1.7,9.1-1.9c4.8-0.2,8.7,0.9,11.1,1.8c0-0.1,0-0.3,0-0.5c0,0,0-1.7-0.2-3.1
							c-0.3-1.9-0.5-3.7-1.7-5.2c-1.5-1.9-3.7-2.2-5.9-2.6c-1.3-0.2-3.6-0.4-6.4,0.4c-0.9,0.3-1.9,0.6-2.9,1.3
							C264.4,423.6,264.8,429.6,264.9,430.6z"/>
					</g>
					<path class="st11" d="M284.9,427.8c-2.4-0.7-5.6-1.3-9.4-1.4c-4.4-0.1-8,0.7-10.7,1.4c0-0.3,0.1-0.7,0.1-1.1
						c0-0.1,0-0.3,0.1-0.4c0.4,0.2,0.8,0.4,1.2,0.6c0.5-0.4,0.9-0.8,1.4-1.2c0.5,0.2,1.1,0.4,1.6,0.5c0.4-0.3,0.8-0.6,1.2-1
						c0.5,0.2,1,0.5,1.5,0.7c0.5-0.4,1-0.7,1.6-1.1l1.5,0.9l1.6-0.9c0.4,0.3,0.9,0.7,1.3,1c0.4-0.2,0.9-0.5,1.3-0.8
						c0.4,0.3,0.8,0.7,1.2,1c0.5-0.2,1-0.3,1.4-0.5c0.4,0.3,0.8,0.6,1.2,0.8c0.6-0.1,1.2-0.2,1.8-0.3c0,0,0,0.1,0,0.1
						C284.8,426.9,284.9,427.4,284.9,427.8z"/>
				</g>
			</g>
			<path class="st12" d="M337.9,476.7c0,0.1,0.5,0.3,0.6,0.6c0.3,1.4-5.8,3.9-5.7,4.1c0.1,0.2,4.3-1.4,9.1-3.2
				C340.1,477.4,338,476.5,337.9,476.7z"/>
			<g>
				<path class="st13" d="M531.7,589.4"/>
				<g>
					<g>
						<path class="st5" d="M531.9,609.9c-1.8-0.1-3.5-0.2-5.3-0.3c0.2-0.8,0.3-1.6,0.5-2.4c-0.1-1.9-0.3-3.8-0.4-5.7
							c1.7,0,3.4,0,5,0c-0.1,1.9-0.2,3.8-0.2,5.7C531.6,608.1,531.7,609,531.9,609.9z"/>
						<g>
							<path class="st6" d="M524.1,617.1c0,0.3,0,0.6,0.1,0.8c0.8,3.5,2.5,3.9,4.8,2.6c1.9-1.1,2.5-1.3,2.8-2.5
								c-1-0.7-2.5-1.3-4.3-1.4C526.2,616.6,525.1,616.8,524.1,617.1z"/>
							<path class="st5" d="M524.4,616c0,0.3-0.2,0.6-0.1,0.9c0.8,3.5,2.5,3.9,4.8,2.6c1.9-1.1,2.2-1.4,2.6-2.6
								c-1-0.7-2.3-1.2-4-1.3C526.3,615.5,525.4,615.6,524.4,616z"/>
							<path class="st5" d="M531.9,615.5c0-2.3,0-5.6,0-5.6l-5.3-0.3c0,0-1.3,2.4-2,4.8c0.9-0.3,1.9-0.4,3-0.3
								C529.3,614.2,530.8,614.7,531.9,615.5z"/>
							<path class="st6" d="M531.9,615.5c-1-0.8-2.6-1.3-4.4-1.4c-1.1-0.1-2.1,0.1-3,0.3c-0.3,0.9-0.5,1.9-0.5,2.7
								c1-0.4,2.2-0.5,3.4-0.5c1.7,0.1,3.2,0.6,4.3,1.4c0.1-0.2,0.1-0.4,0.1-0.6C531.9,617,531.9,616.3,531.9,615.5z"/>
							<path class="st6" d="M525.4,612c0,0,2.9-0.9,6.5,0.5v-2.7c-0.6-0.2-1.6-0.5-2.7-0.5c-1.1,0-2,0.1-2.6,0.3
								C526.4,609.9,526.3,610.1,525.4,612z"/>
							<path class="st6" d="M527,615.6c0,0,0.6-4.3,1-5.2l1.7,0.1l-0.4,5.3L527,615.6z"/>
						</g>
					</g>
					<g>
						<path class="st5" d="M551.4,609.9c1.8-0.1,3.5-0.2,5.3-0.3c-0.2-0.8-0.3-1.6-0.5-2.4c0.1-1.9,0.3-3.8,0.4-5.7
							c-1.7,0-3.4,0-5,0c0.1,1.9,0.2,3.8,0.2,5.7C551.7,608.1,551.5,609,551.4,609.9z"/>
						<g>
							<path class="st6" d="M559.2,617.1c0,0.3,0,0.6-0.1,0.8c-0.8,3.5-2.5,3.9-4.8,2.6c-1.9-1.1-2.5-1.3-2.8-2.5
								c1-0.7,2.5-1.3,4.3-1.4C557,616.6,558.2,616.8,559.2,617.1z"/>
							<path class="st5" d="M558.9,616c0,0.3,0.2,0.6,0.1,0.9c-0.8,3.5-2.5,3.9-4.8,2.6c-1.9-1.1-2.2-1.4-2.6-2.6
								c1-0.7,2.3-1.2,4-1.3C556.9,615.5,557.9,615.6,558.9,616z"/>
							<path class="st5" d="M551.4,615.5c0-2.3,0-5.6,0-5.6l5.3-0.3c0,0,1.3,2.4,2,4.8c-0.9-0.3-1.9-0.4-3-0.3
								C553.9,614.2,552.4,614.7,551.4,615.5z"/>
							<path class="st6" d="M551.4,615.5c1-0.8,2.6-1.3,4.4-1.4c1.1-0.1,2.1,0.1,3,0.3c0.3,0.9,0.5,1.9,0.5,2.7
								c-1-0.4-2.2-0.5-3.4-0.5c-1.7,0.1-3.2,0.6-4.3,1.4c-0.1-0.2-0.1-0.4-0.1-0.6C551.4,617,551.4,616.3,551.4,615.5z"/>
							<path class="st6" d="M557.8,612c0,0-2.9-0.9-6.5,0.5v-2.7c0.6-0.2,1.6-0.5,2.7-0.5c1.1,0,2,0.1,2.6,0.3
								C556.8,609.9,557,610.1,557.8,612z"/>
							<path class="st6" d="M556.2,615.6c0,0-0.6-4.3-1-5.2l-1.7,0.1l0.4,5.3L556.2,615.6z"/>
						</g>
					</g>
					<g>
						<polygon class="st14" points="549.5,421.4 544.3,427.4 545,450 551.3,448.1 551.3,432.4 						"/>
						<g>
							<g>
								<path class="st7" d="M560.1,604.9c0,0.4-2.1,0.5-6.2,0.8c-4,0.3-6,0.4-6.1,0.1c0,0,0,0,0,0c0-16.3-0.1-32.6-0.1-48.9
									c3,0.9,6.1,1.9,9.1,2.8C557.9,574.8,559,589.8,560.1,604.9C560.1,604.8,560.1,604.9,560.1,604.9z"/>
							</g>
						</g>
						<g>
							<g>
								<path class="st7" d="M535.4,556.9c0,16.3-0.1,32.6-0.1,48.9c0,0,0,0,0,0c-0.1,0.3-2.1,0.2-6.1-0.1c-4.1-0.3-6.1-0.4-6.2-0.8
									c0,0,0-0.1,0-0.1c1.1-15,2.2-30.1,3.3-45.1C529.3,558.8,532.4,557.9,535.4,556.9z"/>
							</g>
						</g>
						<path class="st14" d="M531.6,425c-0.1,2.6,0,5.5,0.4,8.8c0.4,3.5,1.1,6.6,1.8,9.2c1.5,0.5,3,0.9,4.4,1.4
							c0.3-2.2,0.7-4.4,1-6.6c-0.8-4.1-1.5-8.2-2.3-12.4L531.6,425z"/>
						<path class="st7" d="M532.7,438.6l8.9,6.8l8.6-6.8c-2.7-0.2-5.6-0.3-8.6-0.3C538.4,438.3,535.5,438.5,532.7,438.6z"/>
						<path class="st8" d="M566.1,451.2c-0.1-2.2-0.4-3.4-0.8-4.3c0,0-0.4-0.8-1-1.6c-1.4-1.9-6.9-4-14.4-5.3
							c-2.7,1.4-5.3,2.8-8,4.2c-1.3-1.4-4.1-3.9-7.9-4c-0.6,0-1.5,0.3-3.4,0.5c0,0-6.8,1.3-9.4,3.5c0,0-0.7,0.6-0.7,0.6
							c-1.4,1.4-1.6,2.8-2.1,10.1c-0.3,5.2-0.5,9.8-0.7,13.3h50C566.7,460.9,566.3,455.2,566.1,451.2z"/>
						<path class="st5" d="M552.1,440.7c-3.4,1.1-6.8,2.3-10.2,3.4c-3.5-1.1-7-2.2-10.5-3.3c1.5-1,3.1-2,4.6-3
							c0.5-2.2,1.1-4.5,1.6-6.7c2.9,0,5.7,0,8.6,0c0.4,2.2,0.8,4.5,1.2,6.7C548.9,438.7,550.5,439.7,552.1,440.7z"/>
						<path class="st5" d="M550,421.7c0,0.4-0.2,1.8-0.5,4.6c-0.2,1.6-0.3,2.8-0.4,3.7c-0.6,1.3-2,3.7-4.6,5.1
							c-1.6,0.9-2.7,0.9-3,0.9c-1.5,0-2.5-0.6-3.3-1.1c-2.6-1.7-3.8-3.9-4.4-5.2c-0.1-0.7-0.2-1.6-0.4-2.8c-0.2-1.4-0.5-4-0.6-5.2
							c-0.1-2.3-0.5-6.9,2.5-9.7c2.4-2.3,5.4-2.3,6.1-2.3c0.6,0,3.8,0,6.2,2.3C550.5,414.7,550.2,419.3,550,421.7z"/>
						<path class="st9" d="M538.7,429.4c0,0.2,1.4,0.5,2.8,0.4c1.2,0,2.6-0.3,2.6-0.4c0-0.2-1.6-0.3-2.7-0.3
							C540.4,429.1,538.7,429.2,538.7,429.4z"/>
						<path class="st9" d="M542.7,425.7c-0.1,0.1-0.5,0.4-1,0.4c-0.7,0.1-1.3-0.4-1.3-0.5c0.5,0,0.9,0,1.4,0
							C542,425.7,542.3,425.7,542.7,425.7z"/>
						<path class="st8" d="M532.7,438.6l-4.1,2.4c2.6,3.2,5.1,6.4,7.7,9.6c3.6,0,7.3,0.1,10.9,0.1c2.2-3.3,4.4-6.6,6.6-9.9
							c-1.1-0.7-2.1-1.3-3.2-2c-1.5,0.6-3.1,1.3-4.8,2.1c-1.5,0.8-2.9,1.6-4.1,2.4c-1.1-0.7-2.4-1.5-3.8-2.3
							C536.1,440,534.3,439.2,532.7,438.6z"/>
						<g>
							<g>
								<path d="M544.2,421.6c0.1-0.1,0.9,1,2.1,1c1.3,0.1,2.2-1,2.3-0.9c0.1,0.1-1,1.5-2.4,1.4C544.9,423,544.1,421.7,544.2,421.6z
									"/>
							</g>
							<g>
								<path d="M534.8,421.6c0.1-0.1,0.8,1,2.1,1.1c1.3,0.1,2.3-0.9,2.3-0.8c0,0.1-1.1,1.4-2.4,1.2
									C535.5,423,534.8,421.6,534.8,421.6z"/>
							</g>
							<path d="M538.7,418.7c-0.2-0.1-0.9-0.4-1.9-0.5c-1.4-0.1-2.2,0.2-2.4,0.3c-0.2,0.1-0.4,0.3-0.4,0.3c-0.1,0.2-0.2,0.3-0.3,0.5
								c-0.1,0.2-0.2,0.5-0.4,0.9c0,0,0.1-0.1,0.1-0.1c0,0,0.3-0.2,0.6-0.4c1.2-0.6,2.8-0.5,2.8-0.5c1,0.1,1.9,0.3,2.4,0.6
								c0.1,0,0.2-0.2,0.3-0.4c0-0.1,0-0.2,0-0.3C539.4,419.1,539.1,418.9,538.7,418.7z"/>
						</g>
						<g>
							<path d="M544.1,418.7c0.2-0.1,0.9-0.4,1.9-0.5c1.4-0.1,2.2,0.2,2.4,0.3c0.2,0.1,0.4,0.3,0.4,0.3c0.1,0.2,0.2,0.3,0.3,0.5
								c0.1,0.2,0.2,0.5,0.4,0.9c0,0-0.1-0.1-0.1-0.1c0,0-0.3-0.2-0.6-0.4c-1.2-0.6-2.8-0.5-2.8-0.5c-1,0.1-1.9,0.3-2.4,0.6
								c-0.1,0-0.2-0.2-0.3-0.4c0-0.1,0-0.2,0-0.3C543.4,419.1,543.7,418.9,544.1,418.7z"/>
						</g>
						<path class="st8" d="M523.8,467.2c-2.2,42.7-4.4,85.5-6.7,128.2c5,1.4,9,1.7,11.7,1.8c10.8,0.4,13.2-2.9,22.5-1.5
							c2.3,0.3,5.1,1,9.5,0.8c3.1-0.1,5.6-0.6,7.3-1.1c-2.4-42.8-4.8-85.5-7.3-128.3c-5.5-0.3-9.7-0.1-12.6,0.2
							c-1.5,0.1-3.3,0.4-6,0.4c-3.2,0-5.2-0.3-7.3-0.6C532.3,466.9,528.6,466.7,523.8,467.2z"/>
						<rect x="541.2" y="426.8" class="st15" width="0.6" height="1.3"/>
						<path class="st16" d="M534.5,415.8c1.1-0.7,3.3-2,6.4-2.1c4.9-0.3,8.3,2.4,9.2,3.1c-0.6-2.1-1.1-4.3-1.7-6.4l-5.7-3.2
							l-6.5,1.9C535.7,411.3,535.1,413.6,534.5,415.8z"/>
						<polygon class="st14" points="549.6,456.3 550.1,459.9 554.6,453.9 554,451.2 						"/>
						<path class="st17" d="M531,411.9c0.2-1,0.9-2.9,2.5-4.8c0.5-0.6,1.5-1.6,3-2.3c4.7-2.5,9.6-0.5,9.9-0.3
							c0.6,0.3,1.6,0.7,2.7,1.8c2,1.8,2.6,4.1,2.8,5.1c-2-0.6-4.5-1.2-7.4-1.4C538.7,409.5,534,410.8,531,411.9z"/>
						<path class="st18" d="M549.5,426.6c0.5-0.4,5-4.5,4.5-10.6c-0.1-0.9-0.6-5.4-4.3-8.3c-4.2-3.2-9.3-2-11.1-1.6
							c-2,0.5-3.5,1.2-4.6,1.8c1.3,0.6,3.2,1.4,5.4,2.4c6.1,2.8,6.9,3.6,7.6,4.4c1.9,2.3,2.3,5,2.6,6.6
							C549.8,423.5,549.7,425.4,549.5,426.6z"/>
						<path class="st7" d="M554.9,440.9c-3.7,1.9-7.5,3.9-11.2,5.8v21.4l-1.9,1.7l0-26.6c1.7-1.1,3.7-2.3,6.1-3.4
							c1.1-0.5,2.1-0.9,3.1-1.2C552.3,439.4,553.6,440.2,554.9,440.9z"/>
						<path class="st16" d="M551.4,424.5l1.8,13.5c0.7,4.5,1.4,9,2,13.5c-0.9,1-2.1,2.2-3.6,3.3c-2.1,1.6-4.1,2.8-5.8,3.6
							c1.8-6.1,3.4-13.6,3.7-22.3c0.1-3.2,0.1-6.3-0.1-9.1c0.1-0.7,0.1-1.4,0.1-2.1c0-0.9,0-1.8,0-2.6
							C550.2,423.1,550.8,423.8,551.4,424.5z"/>
						<path class="st16" d="M543.2,412.2c1.1-0.4,2.3-0.9,3.8-1.2c1.6-0.4,3.1-0.6,4.4-0.7c-0.2-0.1-4.1-2.3-7.2-0.3
							c-0.8,0.5-1.4,1.2-1.7,1.8C542.7,412,543,412.1,543.2,412.2z"/>
						<path class="st18" d="M533.4,427c-0.6-0.6-4.3-3.9-4.3-9.4c0-4.3,2.3-8.5,6.1-10.6c3.8-2.1,7.7-1.3,9.1-0.9
							c4,0.9,6.5,3.2,7.6,4.3c-0.5,0-1.1,0-1.8,0c-1.1,0-4.2,0.3-7.9,1.8c-3.3,1.4-5.1,2.1-6.6,4.1c-2.8,3.7-2.3,8.8-2.2,9.9
							C533.3,426.5,533.4,426.8,533.4,427z"/>
						<path class="st16" d="M530.7,411.4c1.5-1.2,3.9-2.8,7.2-3.7c1.6-0.5,5.6-1.5,10.1,0c1.4,0.5,2.5,1.1,3.2,1.5
							c-1.3-0.7-3.6-1.6-6.6-1.9c-1.2-0.1-3.9-0.2-7.1,0.9c-4,1.4-6.5,3.8-7.6,5.1c0.1-0.4,0.3-0.7,0.5-1.1
							C530.5,411.9,530.6,411.7,530.7,411.4z"/>
						<path class="st16" d="M545.7,412.6c-0.1,0.1,3.5,1.9,5.4,6c0.8,1.6,1.1,3.2,1.2,4.3c0.1-0.2,0.2-0.4,0.3-0.6
							c-0.1-1.1-0.4-2.5-1.1-4C549.6,414.3,545.8,412.6,545.7,412.6z"/>
						<path class="st18" d="M550.4,423.2c0.6,11.9,1,16.9,1.3,19.1c0.1,0.6,0.4,2.8,0.6,5.9c0.1,1.3,0.1,2.4,0.1,3
							c0.1-0.7,0.2-1.8,0.3-3.1c0.1-2.2-0.1-3.8-0.2-4.5c-0.4-3.1-0.5-6.2-0.8-9.3c-0.3-2.5-0.6-6.2-0.8-10.7
							C550.6,423.5,550.5,423.3,550.4,423.2z"/>
						<path class="st16" d="M543.7,412.5c1.2-0.3,2.4-0.7,3.8-1c1.7-0.3,3.4-0.6,4.8-0.7c-1.5,0.3-3.1,0.6-4.8,1
							c-1.1,0.3-2.2,0.6-3.1,0.9C544.2,412.7,543.9,412.6,543.7,412.5z"/>
						<path class="st5" d="M512.1,510.9c-0.1,0.7-0.3,1.7-0.5,3c-0.3,2.4-0.4,3.6-0.1,4.8c0.2,0.9,0.3,0.5,2.9,4.7
							c0,0.1,0.5,0.8,1.3,1.7c0.6,0.7,1.5,1.6,2.1,1.4c0.4-0.2,0.5-0.9,0.5-1c0-1-0.8-1.4-1.6-2.5c-0.3-0.4-1.6-2-1.8-4
							c-0.1-0.9,0-2.4,0.6-2.6c0.4-0.1,0.9,0.2,1.2,0.5c0.7,0.8,0.2,1.6,0.8,3.4c0.2,0.7,0.5,1,0.8,1.1c0.3,0.1,0.6,0,0.9-0.2
							c0.3-0.3,0.3-0.7,0.3-1.3c0-0.4-0.1-0.7-0.2-1.1c-0.2-0.8-0.3-1.5-0.3-1.7c-0.1-1,0-1.6,0.1-2.2c0.1-0.9,0-2.2-0.7-3.9H512.1z
							"/>
						<path class="st8" d="M519.5,446.1c0,0-0.1,0.1-0.1,0.2c-1,2.1-1.3,3.8-2,6.8c-0.3,1.5-0.5,2.1-0.6,2.4
							c-0.8,3.5-3.5,25.7-6.7,56.3c1.8,0.3,3.7,0.5,5.8,0.7c1.7,0.1,3.3,0.2,4.8,0.2c0.4-4.3,0.7-8.6,1.1-13
							c0.9-10.7,1.7-21.2,2.4-31.7C522.6,460.7,521.1,453.4,519.5,446.1z"/>
						<path class="st5" d="M572.7,510.3c0.1,0.7,0.3,1.7,0.5,3c0.3,2.4,0.4,3.6,0.1,4.8c-0.2,0.9-0.3,0.5-2.9,4.7
							c0,0.1-0.5,0.8-1.3,1.7c-0.6,0.7-1.5,1.6-2.1,1.4c-0.4-0.2-0.5-0.9-0.5-1c0-1,0.8-1.4,1.6-2.5c0.3-0.4,1.6-2,1.8-4
							c0.1-0.9,0-2.4-0.6-2.6c-0.4-0.1-0.9,0.2-1.2,0.5c-0.7,0.8-0.2,1.6-0.8,3.4c-0.2,0.7-0.5,1-0.8,1.1c-0.3,0.1-0.6,0-0.9-0.2
							c-0.3-0.3-0.3-0.7-0.3-1.3c0-0.4,0.1-0.7,0.2-1.1c0.2-0.8,0.3-1.5,0.3-1.7c0.1-1,0-1.6-0.1-2.2c-0.1-0.9,0-2.2,0.7-3.9H572.7z
							"/>
						<path class="st8" d="M564.2,445.1c0.5,0.8,0.9,1.6,1.2,2.1c0,0,1.3,2.7,2,5.4c0,0.1,0.1,0.6,0.3,1.3c0.1,0.6,0.2,0.9,0.3,1.1
							c0.8,3.5,3.5,25.7,6.7,56.3c-1.8,0.3-3.7,0.5-5.8,0.7c-1.7,0.1-3.3,0.2-4.8,0.2c-0.4-4.3-0.7-8.6-1.1-13
							c-0.9-10.7-1.7-21.2-2.4-31.7C562.2,460.1,562.7,452.4,564.2,445.1z"/>
						<path class="st7" d="M523.8,473.8c-0.2,0-1.8,12.9-4.6,38.9c0.5,0,1,0,1.5,0C520.7,512.8,520.7,512.8,523.8,473.8z"/>
						<path class="st7" d="M561,473.2c0.1,0,0.6,3.9,1.3,9.7c1.5,11.8,2.5,21.8,3.3,29.2c-0.2,0-0.4,0-0.7,0c-0.3,0-0.5,0-0.8,0
							C561.3,480.8,560.8,473.2,561,473.2z"/>
						<path class="st7" d="M528.6,441l11.4,5.7v21.4l1.9,1.7l0-26.6c-1.7-1.1-3.7-2.3-6.1-3.4c-1.1-0.5-2.1-0.9-3.1-1.2
							C531.3,439.4,530,440.2,528.6,441z"/>
					</g>
					<path d="M546.6,429c-0.2-0.1-0.1-0.2-0.3-0.6c-0.9-1.8-4.2-1.8-4.8-1.8h-0.1c-0.8,0-3.7,0-4.7,1.8c-0.2,0.3-0.2,0.5-0.3,0.5
						c0,0,0,0-0.1,0c-0.3,0.1-2.1-2.6-3.2-3.5c0.1,0.5,0.1,1,0.2,1.4c0.1,1.2,0.3,2.1,0.4,2.8c0.6,1.3,1.8,3.5,4.4,5.2
						c0.7,0.5,1.8,1.1,3.3,1.1c0.3,0,1.4,0,3-0.9c2.6-1.4,4-3.8,4.6-5.1c0.1-0.9,0.3-2.1,0.4-3.7c0-0.1,0-0.2,0-0.3
						C548.8,426.3,547.4,429.3,546.6,429z M544.9,431.3C544.9,431.3,544.9,431.3,544.9,431.3c-0.6,0.3-1.3,0.6-1.8,0.3
						c-0.5-0.3-0.7-1-1.2-0.9h-0.7c-0.5,0-0.8,0.7-1.2,0.9c-0.5,0.3-1.2,0.1-1.8-0.3c0,0,0,0,0,0c-0.8-0.5-0.9-1.6-0.1-2.3
						c0.3-0.3,0.6-0.4,0.8-0.4c0.7-0.2,1.8-0.3,2.8-0.3s2,0.1,2.8,0.3c0.2,0.1,0.5,0.2,0.8,0.4C545.8,429.7,545.8,430.8,544.9,431.3
						z"/>
				</g>
			</g>
			<g>
				<g>
					<g>
						<g>
							<path class="st19" d="M609.5,389.6c-27.4,36.9-9.9,234.9-28.9,235.7c-7.7,0.3-17.1,1.6-25.6,1.3c0,0-0.1,0-0.1,0
								c-3.3-0.1-6.4-0.5-9.2-1.2c-1.8-0.5-3.4-1.1-4.9-1.9c-4.7-2.5-7.8-6.9-8.2-14.2c0-0.2,0-0.4,0-0.7c0-0.8,0-1.6,0-2.4
								c1.7-37.3-0.5-68-0.9-75.2c-0.2-4.4-1.4-9.8-3.1-17c-4.2-17.2-9.4-25.4-19.8-49.9c-5.4-12.7-8.1-19.1-9.3-23.5
								c-5.8-20-4.4-37.9-2.3-49.9C526.1,368.6,576.3,384.5,609.5,389.6z"/>
							<g>
								<path class="st20" d="M561.4,624.5c0,0.6-0.1,1.2-0.1,1.8c-2.1,0.1-4.3,0.3-6.4,0.3c0,0-0.1,0-0.1,0
									c-3.3-0.1-6.4-0.5-9.2-1.2c0-0.3,0-0.6,0-0.9c0-5.5,3.5-10,7.9-10C557.9,614.6,561.4,619,561.4,624.5z"/>
								<path class="st20" d="M541.9,620.6c-0.3,1.1-0.7,2-1.2,2.9c-4.7-2.5-7.8-6.9-8.2-14.2c0-0.2,0-0.4,0-0.7
									c1.8,0,3.7,0.1,4.5,0.3C541.2,610.1,543.4,615.3,541.9,620.6z"/>
								<path class="st20" d="M581.5,624.5c-0.1-5.4-3.6-9.8-7.9-9.8c-4.4,0-7.9,4.5-7.9,10c0,0.6,0.1,1.1,0.1,1.7
									c4.6-0.3,9.1-0.8,13.1-0.9C579.8,625.4,580.7,625.1,581.5,624.5z"/>
							</g>
						</g>
						<g>
							<path class="st19" d="M663.7,481.8c0,0,22,46.7,23.1,124.5c-1.2,26.7,29.1,20.5,48.1,19c20.2-1.6-1.7-126.1,25.7-163.1
								C742.7,447,663.7,481.8,663.7,481.8z"/>
							<g>
								<path class="st20" d="M720.2,626.3c0.1-0.6,0.1-1.2,0.1-1.8c0-5.5-3.5-10-7.9-10c-4.4,0-7.9,4.5-7.9,10
									c0,0.6,0.1,1.2,0.1,1.7C709.6,626.8,714.9,626.7,720.2,626.3z"/>
								<path class="st20" d="M696.5,608.9c-3.5-1-6.4,2.8-8.4,6.6c2.1,5.8,6.8,8.7,12.7,10.1c0.7-1,1.2-2.1,1.5-3.4
									C703.7,616.9,700.7,610,696.5,608.9z"/>
								<path class="st20" d="M737.5,624.3c-0.1-5.4-3.6-9.8-7.9-9.8c-4.4,0-7.9,4.5-7.9,10c0,0.6,0.1,1.1,0.1,1.7
									c4.6-0.3,9.1-0.8,13.1-0.9C735.8,625.2,736.7,624.9,737.5,624.3z"/>
							</g>
						</g>
						<g>
							<path class="st21" d="M853.4,430.3c-5.6,39.4-19.4,50.2-25.7,91.3c-2.1,13.8-13,85.8-12.8,94.8c0.1,2.9-1.6,5.8-4.1,7.4
								c-0.8,0.6-1.7,1-2.7,1.2c-3.6,0.8-8.1,1.7-12.8,2.2c-0.9,0.1-1.7,0.2-2.6,0.3c-0.5,0.1-0.9,0.1-1.4,0.1c-0.2,0-0.5,0-0.7,0
								c-1.8,0.1-3.7,0.2-5.5,0.2c0,0,0,0-0.1,0c0,0-0.1,0-0.1,0c0,0,0,0,0,0c-2.7,0-5.3-0.2-7.8-0.6c-1.1-0.2-2.2-0.4-3.3-0.7
								c-4.5-1.2-8.3-3.3-10.9-6.7c-0.8-1-1.4-2.1-1.9-3.1c-1.8-4-1.8-8.1-1.8-10.5c0.1-33.3,0.2-81.9-17.7-110.2
								c-3.6-5.6-7.2-20.2-6.1-35.1c0.3-3.8,3.6-26.8,12.1-39.6c0,0,103.5-54.7,106.7-31.6C855.3,398,855.2,417.8,853.4,430.3z"/>
							<g>
								<path class="st20" d="M792.9,625.8c0,0.6-0.1,1.2-0.1,1.8c0,0,0,0,0,0c-0.5,0-0.9,0.1-1.4,0.1c-0.2,0-0.5,0-0.7,0
									c-1.9,0.1-3.7,0.2-5.5,0.2c0,0,0,0-0.1,0c0,0-0.1,0-0.1,0c0,0,0,0,0,0c-2.7,0-5.3-0.2-7.8-0.6c-0.1-0.5-0.1-1-0.1-1.5
									c0-5.5,3.5-10,7.9-10C789.3,615.9,792.9,620.3,792.9,625.8z"/>
								<path class="st20" d="M774.7,624.3c-0.2,0.8-0.5,1.6-0.9,2.3c-4.5-1.2-8.3-3.3-10.9-6.7c-0.8-1-1.4-2.1-1.9-3.1
									c2.1-3.2,5.5-5,8.7-4.1C774,613.8,776.2,619,774.7,624.3z"/>
								<path class="st20" d="M810.9,623.9c-0.8,0.6-1.7,1-2.7,1.2c-3.6,0.8-8.1,1.7-12.8,2.2c-0.1-0.4-0.1-0.8-0.1-1.3
									c0-5.5,3.5-10,7.9-10C806.9,616.1,810.1,619.4,810.9,623.9z"/>
							</g>
						</g>
						<path class="st21" d="M854.2,393.3c0,91.6-121.3,99.2-121.3,99.2s-41.1,10.6-91.6,7.2c-1.4-0.1-2.9-0.2-4.3-0.3
							c-21.5-1.8-46.3-2.7-66.7-15.1c-45.5-27.6-44.6-53.1-48.2-85c-0.1-0.7-0.2-1.5-0.3-2.2c-0.1-0.9-0.2-1.8-0.3-2.6
							c-4.8-35.4-1.2-65.5,3.5-76c0.3-0.8,0.7-1.4,1-2c0.1-0.1,0.1-0.2,0.2-0.3c0.3-0.4,0.5-0.7,0.8-0.9c0.1-0.1,0.1-0.1,0.2-0.2
							c10.4-8.7,57.8-56.5,57.8-56.5s5.6,4,18.1,8.2c12.4,4.2,31.6,8.6,58.8,9.5c55.6,1.9,75.4,10.4,98.1,12.9
							c20.1,2.3,56.7,11.4,78.4,48.3c5.7,9.7,10.1,20.9,12.4,33.8C851.9,377.8,854.2,385.9,854.2,393.3z"/>
						<path class="st19" d="M609.5,304.9c0,55.5-52.6,83.2-87.4,94.4c-0.1-0.7-0.2-1.5-0.3-2.2c-0.1-0.9-0.2-1.8-0.3-2.6
							c-4.8-35.4-1.2-65.5,3.5-76c0.3-0.8,0.7-1.4,1-2c0.1-0.1,0.1-0.2,0.2-0.3c0.3-0.4,0.5-0.7,0.8-0.9c0.1-0.1,0.1-0.1,0.2-0.2
							c10.4-8.7,57.8-56.5,57.8-56.5s5.6,4,18.1,8.2C607.1,277.9,609.5,290.5,609.5,304.9z"/>
						<g>
							<path class="st21" d="M545.6,464.5c0,0,29.6,35.2,24.4,141.8c-1.3,26.7,29,19.8,48.1,19c7.5-0.3,7.2-11.8,8.6-22.6
								c4.6-37.2-3-44.4,0.2-69.1c2.9-22.4,10.1-24,16.3-59.8c1.8-10.1,2.7-18.6,3.2-24.2C612.7,454.4,579.1,459.4,545.6,464.5z"/>
							<g>
								<path class="st20" d="M603.4,626.3c0.1-0.6,0.1-1.2,0.1-1.8c0-5.5-3.5-10-7.9-10c-4.4,0-7.9,4.5-7.9,10
									c0,0.6,0.1,1.2,0.1,1.7C592.7,626.8,598.1,626.7,603.4,626.3z"/>
								<path class="st20" d="M580.3,610.5c-3.5-1-7.2,1.2-9.2,5c2.1,5.8,6.8,8.7,12.7,10.1c0.7-1,1.2-2.1,1.5-3.4
									C586.7,616.9,584.5,611.7,580.3,610.5z"/>
								<path class="st20" d="M620.6,624.3c-0.1-5.4-3.6-9.8-7.9-9.8c-4.4,0-7.9,4.5-7.9,10c0,0.6,0.1,1.1,0.1,1.7
									c4.6-0.3,9.1-0.8,13.1-0.9C619,625.2,619.8,624.9,620.6,624.3z"/>
							</g>
						</g>
					</g>
				</g>
				<g>
					<path class="st19" d="M415.3,201.5c-21.3,4-31.7,24-41.6,43.2c-5.2,10-18.4,35.7-10.4,62.8c2.5,8.3,5.3,11.2,12.6,23.1
						c30.8,50.1,39,93.5,48.8,91.7c0.7-0.1,1.3-0.3,2.2-1.3c14.3-15.4,27.1-60.6,27.1-60.6l16.4-131.9
						C456.2,209.1,434.8,197.9,415.3,201.5z"/>
					<path class="st22" d="M462,352.2c0.8,4.9-96.9,106.9-105.7,109c2.7-3.9,5.6-8,8.7-12.3c27.9-38.9,69.8-91.8,74.1-103.7
						c1-2.9,2.6-4.6,4.5-5.4C450.4,337,460.9,345.6,462,352.2z"/>
					<path class="st23" d="M455.6,352.2c0.6,3.9-60.8,69-90.6,96.7c27.9-38.9,69.8-91.8,74.1-103.7c1-2.9,2.6-4.6,4.5-5.4
						C449.2,341.7,454.8,347.5,455.6,352.2z"/>
					<g>
						<path class="st21" d="M575.1,297.9c-3.4,46.3-45.3,109.2-86,106.2c-40.4-3-58.3-81.3-61.5-117.1c-3.5-38.4,14.9-82,36.1-84.9
							c14.3-2,22,15.6,43.9,13.6c15.1-1.4,17.8-10.2,30.8-9.5c20.4,1.2,33.9,24,35.4,26.6C588.2,257.8,576.1,285.5,575.1,297.9z"/>
						<path class="st19" d="M497,394.7c-24.3,18-45.7,29.9-60.6,37.4c-46.2,23.2-72.7,25.4-105.9,51.9
							c-16.8,13.4-28.1,27.3-34.9,36.8c1.2,2.9,2.8,8.4,0.3,12.6c-4,6.7-17.2,6.7-24.7,3.7c-3.1-1.2-5.2-2.9-5.4-4.8
							c-0.5-5.3,9-11.3,9-11.3c0.3-1,0.9-2.7,1.6-4.7c22.2-60.4,88.5-72.1,133.6-109.6c21.7-18,47.2-49.3,61.7-107.1
							c0.7-2.7,1.3-5.4,1.9-8.2C481.3,325.9,489.1,360.3,497,394.7z"/>
						<path class="st21" d="M497,390.8c-3.5,2.6-7,5.1-10.6,7.6l-2,1.4c-14.3,9.8-28.3,18.3-39.7,24.6l-2.1,1.2
							c-3.8,2.1-7.3,3.9-10.4,5.5c-7.7,3.9-14.9,7.2-21.7,10.1c-0.8,0.3-1.5,0.7-2.3,1c-10.2,4.3-19.4,7.8-28.1,11.3l-2.3,0.9h0
							c-7.8,3.1-15.1,6.2-22.4,9.9c-0.7,0.4-1.5,0.8-2.2,1.1c-5.1,2.6-10.1,5.6-15.3,9c-0.7,0.5-1.5,1-2.2,1.5
							c-3.1,2.2-6.3,4.5-9.5,7.1c-2.4,1.9-4.7,3.9-6.9,5.8c-0.7,0.6-1.4,1.2-2,1.8c-5.1,4.6-9.6,9.2-13.4,13.5
							c-0.6,0.6-1.1,1.3-1.7,1.9c-4.5,5.1-8.1,9.8-10.9,13.7c1.2,2.9,2.8,8.4,0.3,12.6c-3.4,5.6-13.1,6.5-20.6,4.9
							c-3.1-1.2-5.2-2.9-5.4-4.8c-0.5-5.3,9-11.3,9-11.3c0.3-1,0.9-2.7,1.6-4.7c1.5-4.1,3.2-8,5.1-11.7c0.4-0.9,0.9-1.7,1.4-2.6
							c2.2-4,4.6-7.7,7.3-11.3c0.8-1.1,1.6-2.1,2.5-3.2c4.6-5.7,9.7-10.9,15.1-15.6c1.1-1,2.3-1.9,3.4-2.9
							c4.7-3.8,9.6-7.4,14.7-10.7c0,0,0,0,0,0c1.8-1.2,3.5-2.3,5.3-3.4c0,0,0,0,0,0c1.7-1.1,3.4-2.1,5.1-3.1
							c0.3-0.2,0.6-0.4,0.9-0.6c5.2-3.1,10.5-6.1,15.9-9c0,0,0,0,0,0h0c1.4-0.8,2.7-1.5,4.1-2.2h0c1.1-0.6,2.2-1.2,3.3-1.8
							c0.2-0.1,0.5-0.3,0.7-0.4c0,0,0,0,0,0c5.4-3,10.9-6,16.2-9.1c1.5-0.8,2.9-1.7,4.4-2.6c8-4.8,15.8-9.8,23.2-15.5c0,0,0,0,0,0
							c1.2-0.9,2.3-1.8,3.4-2.7l0,0c0.5-0.4,0.9-0.8,1.4-1.1c5.5-4.6,11.3-10.6,17.3-18.1c0.9-1.1,1.8-2.3,2.7-3.5
							c4.6-6,9.1-12.8,13.6-20.4v0c0.6-1.1,1.3-2.2,1.9-3.4c11.2-19.7,21.5-44.2,28.5-72.4c5.3,23.3,11.5,51,17.3,76.6v0l0.7,3
							C493.7,376.2,495.4,383.7,497,390.8z"/>
						<g>
							<g>
								<path class="st19" d="M304,504c-0.6,0.6-1.1,1.3-1.7,1.9c-8.6-2.3-15.8-2.1-20.9-1.2c0.4-0.9,0.9-1.7,1.4-2.6
									C288.2,501.4,295.4,501.5,304,504z"/>
							</g>
							<g>
								<path class="st19" d="M319.5,488.6c-0.7,0.6-1.4,1.2-2,1.8c-13.3-3.5-23.1-1.2-27.4,0.4c0.8-1.1,1.6-2.1,2.5-3.2
									C298.2,486.1,307.5,485.1,319.5,488.6z"/>
							</g>
							<g>
								<path class="st19" d="M338.1,474.2c-0.7,0.5-1.5,1-2.2,1.5c-12-5.5-21.7-5.2-28.3-3.7c1.1-1,2.3-1.9,3.4-2.9
									C318,468.3,327.3,469,338.1,474.2z"/>
							</g>
							<g>
								<path class="st19" d="M355.6,464c-0.7,0.4-1.5,0.8-2.2,1.1c-7.2-5.6-14.2-8.3-21-8c-2.4,0.1-4.6,0.6-6.5,1.2
									c1.8-1.2,3.5-2.3,5.3-3.4c0,0,0,0,0,0c0.3,0,0.7,0,1-0.1C339.9,454.6,347.7,457.7,355.6,464z"/>
							</g>
							<g>
								<path class="st24" d="M336.3,451.8c0.3-0.2,0.6-0.4,0.9-0.6c-0.4,0.5-0.6,0.8-0.6,0.8L336.3,451.8z"/>
								<path class="st19" d="M380.2,453.3l-2.3,0.9h0c-8.1-8.3-16-12.3-23.7-12c-0.4,0-0.7,0-1.1,0.1c1.4-0.8,2.7-1.5,4.1-2.2h0
									C364.8,440.7,372.5,445.1,380.2,453.3z"/>
							</g>
							<g>
								<path class="st24" d="M360.5,438.2l0.7-0.4c0,0,0,0,0,0c0,0,0,0,0,0c-0.3,0.3-0.5,0.6-0.5,0.6L360.5,438.2z"/>
								<path class="st19" d="M410.5,441c-0.8,0.3-1.5,0.7-2.3,1c-9.6-9.4-19-13.9-28.1-13.6c-0.9,0-1.9,0.1-2.7,0.3
									c-0.1,0-0.2,0-0.2,0l4.6-2.6C391.2,426.3,400.9,431.3,410.5,441z"/>
							</g>
							<g>
								<path class="st19" d="M444.7,424.3l-2.1,1.2c-11.4-10.6-22.7-15.7-33.5-15.3c-1.4,0.1-2.8,0.2-4.1,0.4
									c1.2-0.9,2.3-1.8,3.4-2.7l0,0c0.2,0,0.4,0,0.5,0C420.6,407.4,432.6,412.9,444.7,424.3z"/>
							</g>
							<g>
								<path class="st19" d="M486.4,398.3l-2,1.4c-16.3-12.1-32.8-16.9-47.9-14c-3.6,0.7-6.7,1.8-9.4,3c0.9-1.1,1.8-2.3,2.7-3.5
									c1.9-0.7,4-1.2,6.2-1.7C447.4,381.3,465,382.2,486.4,398.3z"/>
							</g>
							<g>
								<path class="st19" d="M491.9,368.6c-12.9-7.2-25.7-9.7-37.6-7.4c-4.3,0.8-7.9,2.2-10.9,3.6c0.6-1.1,1.3-2.2,1.9-3.4
									c2.5-1,5.3-1.9,8.4-2.5c8.9-1.8,21.8-1.6,37.5,6.6v0L491.9,368.6z"/>
							</g>
						</g>
					</g>
					<path class="st19" d="M619.5,212c-7.6-2.1-16-1-16-1c-4.4,0.5-8.1,1.7-11.7,3.4c-4.9,2.2-8.1,4.3-11.1,6.2
						c-4.3,2.7-10.7,6.3-19.3,9.8c5.8,11.4,12.4,28.2,13.7,49c3.7,56.2-33.2,96-41.3,104.2c13.7,9.9,29.6,23.1,45.4,40.5
						c11.8,13,21.3,25.6,28.8,37c-1.2-5.6-2.5-13.2-3.4-22.3c0,0-1.3-12.8-1.1-25c0.5-28,36.7-58.9,47.4-99.2
						C665.3,260.3,626.9,214,619.5,212z"/>
				</g>
				<g>
					<path class="st25" d="M509.2,301.4c0,6.8-2.7,12.3-6.1,12.3c-3.4,0-6.1-5.5-6.1-12.3c0-6.8,2.7-12.3,6.1-12.3
						C506.5,289,509.2,294.5,509.2,301.4z"/>
					<path class="st8" d="M511.4,292.4c0,2.8-2.3,5.1-5.1,5.1c-2.8,0-5.1-2.3-5.1-5.1c0-2.8,2.3-5.1,5.1-5.1
						C509.1,287.2,511.4,289.5,511.4,292.4z"/>
				</g>
				<g>
					<path class="st25" d="M444.4,293.3c0,6.8-2.7,12.3-6.1,12.3c-3.4,0-6.1-5.5-6.1-12.3c0-6.8,2.7-12.3,6.1-12.3
						C441.6,281,444.4,286.5,444.4,293.3z"/>
					<path class="st8" d="M446.5,284.4c0,2.8-2.3,5.1-5.1,5.1c-2.8,0-5.1-2.3-5.1-5.1c0-2.8,2.3-5.1,5.1-5.1
						C444.2,279.2,446.5,281.5,446.5,284.4z"/>
				</g>
				<path class="st19" d="M739.5,491.7c0,0-3.6,1-7.6,1c-1.8-13.6-2.3-26.5-1.2-36.3c0.8-7.8,1.9-19.9,10.3-32.7
					C741,423.8,727.1,463.2,739.5,491.7z"/>
				<path class="st26" d="M641.3,499.6c-1.4-0.1-2.9-0.2-4.3-0.3c1.9-5.2,6.6-18.4,8.2-25.4c3.4-15.3,0.6-25.4,0.5-25.8
					C646,448.7,654.4,463.5,641.3,499.6z"/>
			</g>
			<path class="st19" d="M518.3,379.1c0,5.8-8.1,7.9-15.2,7.9s-12.9-4.7-12.9-10.6c0-5.8,5.8-10.6,12.9-10.6
				S518.3,373.2,518.3,379.1z"/>
			<path class="st22" d="M516.2,380.2c1,4.8-92.4,110.8-101.1,113.3c2.2-3.5,4.6-7.2,7.1-11c26.3-40.1,67.1-96.1,70.9-108.3
				c1-3.3,2.8-5.1,5-5.8C504.8,366,514.9,373.8,516.2,380.2z"/>
			<path class="st23" d="M510.7,380.2c0.8,3.9-60.7,74.6-88.4,102.3c26.3-40.1,67.1-96.1,70.9-108.3c1-3.3,2.8-5.1,5-5.8
				C503.8,369.9,509.7,375.4,510.7,380.2z"/>
			<g>
				<g>
					<g>
						<path class="st5" d="M777.3,639.9c-2-0.1-4.1-0.2-6.1-0.3c0.2-0.9,0.4-1.8,0.6-2.7c-0.2-2.2-0.3-4.3-0.5-6.5
							c1.9,0,3.8,0,5.8,0c-0.1,2.2-0.2,4.3-0.3,6.5C777,637.8,777.1,638.9,777.3,639.9z"/>
						<g>
							<path class="st6" d="M768.4,648.1c0,0.3,0,0.6,0.1,0.9c1,4,2.9,4.4,5.5,3c2.2-1.2,2.9-1.5,3.2-2.9c-1.2-0.9-2.9-1.4-4.9-1.6
								C770.9,647.5,769.5,647.7,768.4,648.1z"/>
							<path class="st5" d="M768.7,646.8c0,0.3-0.2,0.7-0.1,1c1,4,2.9,4.4,5.5,3c2.2-1.2,2.6-1.6,2.9-2.9c-1.2-0.9-2.6-1.4-4.6-1.5
								C771,646.3,769.8,646.4,768.7,646.8z"/>
							<path class="st5" d="M777.3,646.3c0-2.6,0-6.4,0-6.4l-6.1-0.3c0,0-1.5,2.7-2.3,5.5c1-0.3,2.2-0.4,3.4-0.4
								C774.4,644.8,776.1,645.4,777.3,646.3z"/>
							<path class="st6" d="M777.3,646.3c-1.2-0.9-2.9-1.5-5-1.6c-1.2-0.1-2.4,0.1-3.4,0.4c-0.3,1.1-0.5,2.2-0.5,3.1
								c1.1-0.4,2.5-0.6,3.9-0.5c2,0.1,3.7,0.7,4.9,1.6c0.1-0.2,0.1-0.5,0.1-0.7C777.3,648,777.3,647.3,777.3,646.3z"/>
							<path class="st6" d="M769.9,642.3c0,0,3.3-1.1,7.4,0.6v-3.1c-0.7-0.3-1.8-0.6-3.1-0.6c-1.2-0.1-2.3,0.1-3,0.3
								C771.1,639.8,770.9,640.1,769.9,642.3z"/>
							<path class="st6" d="M771.7,646.4c0,0,0.7-4.9,1.2-5.9l2,0.1l-0.5,6.1L771.7,646.4z"/>
						</g>
					</g>
					<g>
						<path class="st5" d="M799.6,639.9c2-0.1,4.1-0.2,6.1-0.3c-0.2-0.9-0.4-1.8-0.6-2.7c0.2-2.2,0.3-4.3,0.5-6.5
							c-1.9,0-3.8,0-5.8,0c0.1,2.2,0.2,4.3,0.3,6.5C800,637.8,799.8,638.9,799.6,639.9z"/>
						<g>
							<path class="st6" d="M808.6,648.1c0,0.3,0,0.6-0.1,0.9c-1,4-2.9,4.4-5.5,3c-2.2-1.2-2.9-1.5-3.2-2.9c1.2-0.9,2.9-1.4,4.9-1.6
								C806.1,647.5,807.4,647.7,808.6,648.1z"/>
							<path class="st5" d="M808.2,646.8c0,0.3,0.2,0.7,0.1,1c-1,4-2.9,4.4-5.5,3c-2.2-1.2-2.6-1.6-2.9-2.9c1.2-0.9,2.6-1.4,4.6-1.5
								C806,646.3,807.1,646.4,808.2,646.8z"/>
							<path class="st5" d="M799.6,646.3c0-2.6,0-6.4,0-6.4l6.1-0.3c0,0,1.5,2.7,2.3,5.5c-1-0.3-2.2-0.4-3.4-0.4
								C802.6,644.8,800.8,645.4,799.6,646.3z"/>
							<path class="st6" d="M799.6,646.3c1.2-0.9,2.9-1.5,5-1.6c1.2-0.1,2.4,0.1,3.4,0.4c0.3,1.1,0.5,2.2,0.5,3.1
								c-1.1-0.4-2.5-0.6-3.9-0.5c-2,0.1-3.7,0.7-4.9,1.6c-0.1-0.2-0.1-0.5-0.1-0.7C799.6,648,799.6,647.3,799.6,646.3z"/>
							<path class="st6" d="M807,642.3c0,0-3.3-1.1-7.4,0.6v-3.1c0.7-0.3,1.8-0.6,3.1-0.6c1.2-0.1,2.3,0.1,3,0.3
								C805.9,639.8,806,640.1,807,642.3z"/>
							<path class="st6" d="M805.2,646.4c0,0-0.7-4.9-1.2-5.9l-2,0.1l0.5,6.1L805.2,646.4z"/>
						</g>
					</g>
					<g>
						<polygon class="st14" points="797.5,424.1 791.6,431 792.3,456.8 799.5,454.7 799.5,436.7 						"/>
						<g>
							<g>
								<path class="st7" d="M809.7,634.2c-0.1,0.4-2.4,0.6-7.1,0.9c-4.6,0.3-6.9,0.5-7,0.1c0,0,0,0,0,0
									c-0.1-18.6-0.1-37.3-0.2-55.9c3.5,1.1,7,2.1,10.5,3.2C807.1,599.7,808.4,616.9,809.7,634.2
									C809.6,634.1,809.7,634.1,809.7,634.2z"/>
							</g>
						</g>
						<g>
							<g>
								<path class="st7" d="M781.4,579.2c-0.1,18.6-0.1,37.3-0.2,55.9c0,0,0,0,0,0c-0.1,0.4-2.4,0.2-7-0.1c-4.7-0.3-7-0.5-7.1-0.9
									c0,0,0-0.1,0-0.1c1.3-17.2,2.5-34.4,3.8-51.6C774.4,581.4,777.9,580.3,781.4,579.2z"/>
							</g>
						</g>
						<path class="st14" d="M777,428.3c-0.1,2.9,0,6.3,0.4,10.1c0.5,4,1.2,7.6,2.1,10.6c1.7,0.5,3.4,1.1,5.1,1.6
							c0.4-2.5,0.7-5,1.1-7.5c-0.9-4.7-1.7-9.4-2.6-14.1L777,428.3z"/>
						<path class="st7" d="M778.3,443.8l10.1,7.8l9.8-7.8c-3.1-0.2-6.4-0.3-9.8-0.3C784.8,443.5,781.4,443.6,778.3,443.8z"/>
						<path class="st8" d="M816.5,458.2c-0.1-2.5-0.5-3.9-1-5c0,0-0.4-0.9-1.1-1.8c-1.6-2.1-7.9-4.6-16.5-6.1
							c-3.1,1.6-6.1,3.2-9.2,4.8c-1.5-1.6-4.7-4.5-9-4.6c-0.7,0-1.7,0.3-3.9,0.6c-3.3,0.6-7,1.7-10.7,3.7c-0.5,0.2-0.9,0.5-1.4,0.8
							c-0.7,0.3-1.6,0.9-2.3,1.9c-1.7,2.5,0.4,10,0.4,10c1.3,3.9,3.3,9.2,6.2,15.3c16.7,0,33.5,0,50.2,0
							C817.2,469.4,816.7,462.8,816.5,458.2z"/>
						<path class="st5" d="M800.4,446.2c-3.9,1.3-7.8,2.6-11.7,3.9c-4-1.3-8-2.5-12.1-3.8c1.8-1.1,3.5-2.3,5.3-3.4
							c0.6-2.6,1.2-5.1,1.8-7.7c3.3,0,6.6,0,9.9,0c0.5,2.6,0.9,5.1,1.4,7.7C796.8,443.9,798.6,445.1,800.4,446.2z"/>
						<path class="st5" d="M798.1,424.4c0,0.5-0.2,2-0.6,5c0,0.1,0,0.2,0,0.3c-0.2,1.8-0.4,3.2-0.5,4.2c-0.7,1.5-2.3,4.2-5.3,5.9
							c-1.8,1-3.1,1-3.4,1c-1.7,0-2.9-0.7-3.8-1.3c-2.9-2-4.4-4.5-5-6c-0.1-0.8-0.2-1.8-0.4-3.2c-0.1-0.4-0.1-1-0.2-1.5
							c-0.2-1.6-0.4-3.4-0.5-4.5c-0.2-2.7-0.5-7.9,2.9-11.2c2.7-2.6,6.2-2.7,7-2.7c0.7,0,4.4,0,7.1,2.7
							C798.7,416.5,798.3,421.7,798.1,424.4z"/>
						<path class="st9" d="M785.2,433.3c0,0.2,1.6,0.5,3.2,0.5c1.4,0,2.9-0.3,2.9-0.5c0-0.2-1.8-0.3-3.1-0.3
							C787,432.9,785.2,433.1,785.2,433.3z"/>
						<path class="st9" d="M789.7,429.1c-0.1,0.1-0.6,0.4-1.2,0.5c-0.8,0.1-1.4-0.4-1.5-0.5c0.5,0,1,0,1.6,0
							C788.9,429.1,789.3,429.1,789.7,429.1z"/>
						<path class="st8" d="M778.3,443.8l-4.7,2.7c2.9,3.6,5.9,7.3,8.8,10.9c4.2,0,8.4,0.1,12.5,0.1c2.5-3.8,5.1-7.6,7.6-11.4
							c-1.2-0.7-2.4-1.5-3.7-2.2c-1.7,0.6-3.5,1.4-5.4,2.4c-1.7,0.9-3.3,1.8-4.7,2.7c-1.3-0.9-2.7-1.7-4.3-2.6
							C782.2,445.4,780.1,444.5,778.3,443.8z"/>
						<g>
							<g>
								<path d="M791.4,424.3c0.1-0.1,1,1.1,2.4,1.2c1.5,0.1,2.6-1.1,2.6-1.1c0.1,0.1-1.1,1.7-2.7,1.6
									C792.3,425.9,791.3,424.4,791.4,424.3z"/>
							</g>
							<g>
								<path d="M780.7,424.3c0.1-0.1,0.9,1.2,2.4,1.3c1.5,0.1,2.6-1,2.7-0.9c0.1,0.1-1.2,1.6-2.8,1.4
									C781.5,425.9,780.6,424.4,780.7,424.3z"/>
							</g>
							<path d="M785.2,421.1c-0.3-0.1-1-0.5-2.2-0.6c-1.6-0.2-2.6,0.2-2.8,0.3c-0.3,0.2-0.5,0.4-0.5,0.4c-0.2,0.2-0.3,0.3-0.4,0.6
								c-0.1,0.3-0.3,0.6-0.4,1c0,0,0.1-0.1,0.2-0.1c0,0,0.3-0.2,0.7-0.4c1.3-0.6,3.2-0.6,3.2-0.6c1.2,0.1,2.1,0.4,2.8,0.7
								c0.1,0,0.3-0.2,0.4-0.4c0-0.1,0.1-0.3,0-0.3C785.9,421.5,785.6,421.3,785.2,421.1z"/>
						</g>
						<g>
							<path d="M791.3,421.1c0.3-0.1,1-0.5,2.2-0.6c1.6-0.2,2.6,0.2,2.8,0.3c0.3,0.2,0.5,0.4,0.5,0.4c0.2,0.2,0.3,0.3,0.4,0.6
								c0.1,0.3,0.3,0.6,0.4,1c0,0-0.1-0.1-0.2-0.1c0,0-0.3-0.2-0.7-0.4c-1.3-0.6-3.2-0.6-3.2-0.6c-1.2,0.1-2.1,0.4-2.8,0.7
								c-0.1,0-0.3-0.2-0.4-0.4c0-0.1-0.1-0.3,0-0.3C790.6,421.5,790.9,421.3,791.3,421.1z"/>
						</g>
						<path class="st8" d="M768.1,476.5c-2.5,48.9-5.1,97.8-7.6,146.7c5.7,1.6,10.3,2,13.4,2.1c12.4,0.5,15.1-3.4,25.7-1.7
							c2.6,0.4,5.9,1.2,10.9,0.9c3.6-0.2,6.4-0.7,8.3-1.2c-2.8-48.9-5.5-97.9-8.3-146.8c-6.3-0.3-11.1-0.1-14.4,0.2
							c-1.7,0.2-3.8,0.4-6.8,0.4c-3.7,0-6-0.4-8.3-0.6C777.8,476.2,773.5,476,768.1,476.5z"/>
						<rect x="788" y="430.3" class="st15" width="0.7" height="1.5"/>
						<path class="st16" d="M780.3,417.8c1.2-0.8,3.8-2.2,7.4-2.4c5.6-0.3,9.5,2.8,10.5,3.6c-0.6-2.5-1.3-4.9-1.9-7.4l-6.5-3.7
							l-7.4,2.2C781.6,412.6,781,415.2,780.3,417.8z"/>
						<polygon class="st14" points="797.6,464 798.2,468.2 803.3,461.3 802.6,458.3 						"/>
						<path class="st17" d="M776.3,413.2c0.3-1.2,1-3.4,2.9-5.4c0.6-0.7,1.7-1.8,3.4-2.7c5.4-2.8,10.9-0.5,11.4-0.3
							c0.7,0.3,1.9,0.8,3.1,2c2.3,2.1,3,4.7,3.2,5.8c-2.3-0.7-5.2-1.4-8.5-1.6C785.2,410.5,779.7,412,776.3,413.2z"/>
						<path class="st18" d="M797.4,430.1c0.6-0.5,5.7-5.1,5.1-12.2c-0.1-1-0.6-6.2-5-9.5c-4.8-3.7-10.7-2.3-12.7-1.9
							c-2.3,0.5-4.1,1.4-5.2,2.1c1.5,0.6,3.6,1.6,6.2,2.8c6.9,3.2,7.9,4.1,8.7,5.1c2.2,2.6,2.6,5.7,2.9,7.6
							C797.8,426.6,797.7,428.7,797.4,430.1z"/>
						<path class="st7" d="M803.7,446.5c-4.3,2.2-8.5,4.4-12.8,6.6v24.5l-2.1,2l0-30.5c1.9-1.3,4.3-2.7,6.9-3.9
							c1.2-0.5,2.4-1,3.5-1.4C800.7,444.7,802.2,445.6,803.7,446.5z"/>
						<path class="st16" d="M799.6,427.6l2,15.5c0.8,5.1,1.6,10.3,2.3,15.4c-1.1,1.2-2.4,2.5-4.1,3.8c-2.4,1.9-4.7,3.2-6.6,4.1
							c2.1-6.9,3.9-15.6,4.2-25.5c0.1-3.7,0.1-7.2-0.1-10.4c0.1-0.8,0.1-1.6,0.2-2.4c0-1,0.1-2,0-2.9
							C798.3,426,799,426.8,799.6,427.6z"/>
						<path class="st16" d="M790.3,413.6c1.2-0.5,2.6-1,4.3-1.4c1.9-0.5,3.6-0.7,5-0.8c-0.2-0.1-4.7-2.6-8.2-0.3
							c-0.9,0.6-1.6,1.4-2,2.1C789.7,413.3,790,413.5,790.3,413.6z"/>
						<path class="st18" d="M779.1,430.5c-0.7-0.6-4.9-4.5-4.9-10.7c0-4.9,2.6-9.8,7-12.2c4.4-2.4,8.8-1.4,10.4-1.1
							c4.6,1,7.5,3.7,8.6,4.9c-0.5,0-1.2,0-2.1,0c-1.3,0.1-4.8,0.3-9.1,2.1c-3.8,1.6-5.8,2.4-7.6,4.7c-3.2,4.2-2.6,10-2.5,11.3
							C779,429.9,779,430.3,779.1,430.5z"/>
						<path class="st16" d="M776,412.7c1.7-1.4,4.5-3.2,8.2-4.3c1.9-0.5,6.4-1.7,11.5,0c1.6,0.5,2.8,1.2,3.6,1.7
							c-1.5-0.8-4.1-1.9-7.6-2.2c-1.4-0.1-4.5-0.2-8.1,1.1c-4.5,1.6-7.4,4.4-8.7,5.9c0.2-0.4,0.3-0.8,0.5-1.3
							C775.7,413.3,775.9,413,776,412.7z"/>
						<path class="st16" d="M793.2,414.1c-0.1,0.1,4,2.2,6.2,6.9c0.9,1.9,1.2,3.6,1.4,5c0.1-0.2,0.2-0.5,0.4-0.7
							c-0.1-1.2-0.5-2.8-1.3-4.6C797.6,416,793.3,414,793.2,414.1z"/>
						<path class="st18" d="M798.5,426.1c0.7,13.6,1.2,19.3,1.5,21.9c0.1,0.6,0.5,3.2,0.6,6.8c0.1,1.5,0.1,2.7,0.1,3.5
							c0.1-0.8,0.3-2,0.3-3.5c0.1-2.5-0.1-4.4-0.2-5.2c-0.4-3.5-0.6-7.1-0.9-10.6c-0.3-2.9-0.7-7-0.9-12.3
							C798.8,426.5,798.6,426.3,798.5,426.1z"/>
						<path class="st16" d="M790.9,413.9c1.3-0.4,2.8-0.8,4.4-1.1c2-0.4,3.8-0.6,5.5-0.8c-1.7,0.3-3.6,0.7-5.5,1.2
							c-1.3,0.3-2.5,0.7-3.6,1.1C791.4,414.2,791.1,414.1,790.9,413.9z"/>
						<path class="st8" d="M814.3,451.2c0.6,1,1.1,1.8,1.3,2.4c0,0,1.5,3,2.3,6.2c0,0.1,0.2,0.7,0.3,1.5c0.1,0.4,0.2,0.9,0.3,1.3
							c1.3,5.2,2.8,10.2,4.5,14.9c8.4-3.4,16.8-6.7,25.1-10.1c0.9,1.1,1.7,2.3,2.6,3.6c1.1,1.6,2,3.1,2.9,4.6l-31.5,18
							c-2.9,1.7-6.6,0.2-7.6-2.9c-1.5-4.6-3-9.3-4.5-13.9C812,468.4,812.5,459.6,814.3,451.2z"/>
						<path class="st7" d="M773.6,446.5l13,6.6v24.5l2.1,2l0-30.5c-1.9-1.3-4.3-2.7-6.9-3.9c-1.2-0.5-2.4-1-3.5-1.4
							C776.7,444.7,775.1,445.6,773.6,446.5z"/>
					</g>
					<path d="M794.1,432.8c-0.2-0.1-0.2-0.3-0.4-0.6c-1.1-2.1-4.8-2.1-5.4-2.1h-0.1c-0.9,0-4.2,0-5.4,2.1c-0.2,0.3-0.2,0.5-0.3,0.6
						c0,0,0,0-0.1,0c-0.3,0.1-2.4-3-3.6-4c0.1,0.6,0.1,1.1,0.2,1.5c0.2,1.3,0.3,2.4,0.4,3.2c0.7,1.5,2.1,4,5,6
						c0.9,0.6,2.1,1.3,3.8,1.3c0.3,0,1.6,0,3.4-1c3-1.7,4.6-4.4,5.3-5.9c0.1-1,0.3-2.4,0.5-4.2c0-0.1,0-0.2,0-0.3
						C796.6,429.7,795,433.2,794.1,432.8z M792.2,435.5C792.2,435.5,792.2,435.5,792.2,435.5c-0.6,0.4-1.5,0.7-2.1,0.3
						c-0.5-0.3-0.8-1.1-1.4-1.1h-0.8c-0.6,0-0.9,0.8-1.4,1.1c-0.6,0.4-1.4,0.1-2-0.3c0,0,0,0,0,0c-1-0.6-1-1.8-0.2-2.6
						c0.3-0.3,0.7-0.4,0.9-0.5c0.8-0.3,2-0.4,3.2-0.4s2.3,0.1,3.1,0.4c0.2,0.1,0.6,0.2,0.9,0.5C793.2,433.7,793.2,434.9,792.2,435.5
						z"/>
				</g>
			</g>
			<path class="st9" d="M804.1,488.7c-0.2,0.5-0.7,0.6-1.2,0.8c-0.5,0.2-0.8,0.2-1.3,0.3c-0.9,0.1-1.7,0.3-1.9,0.4
				c-1.1,0.3-1.7,0.7-2.3,1c-0.9,0.5-2.3,0.9-4.4,0.9l-0.4-1c2.7-0.7,3.5-1.5,3.7-2.2c0.1-0.3,0.2-1,0.7-1.8
				c0.3-0.4,0.5-0.7,0.7-0.8c-0.1,0.1-0.2,0.3-0.2,0.5c0,0.5,0.6,0.9,1.1,1.1c1.1,0.4,1.8-0.5,4-0.5c0.8,0,1.3,0.1,1.5,0.4
				C804.2,488,804.3,488.4,804.1,488.7z"/>
			<path class="st19" d="M880.8,443.8c-7,10.1-15.2,15.9-20.6,19.4c-33.6,22-83.4,39.1-99.9,44.6c0.7-0.4,1.8-1,3.1-1.8
				c12.6-7.1,29.3-15.6,67.2-31.6c15.5-6.6,20.2-8.3,27.2-13.5c7.3-5.4,14.8-11,18.8-20.6c6.4-15.4,0.6-33.4-8.5-44.9
				c-4.5-5.7-9.8-9.6-14.9-12.4c-0.8-4.1-1.7-8.2-2.4-11.7c-2.3-12.9-6.7-24.1-12.4-33.8c-5.2-8.9-11.3-16.1-17.8-22.1v0
				c13.8,8.5,47.8,31,64.3,62.4c4.8,9.1,6.3,16.4,7.5,23C894.4,411.8,891.1,429,880.8,443.8z"/>
			<path class="st27" d="M771.1,501.7c-0.6-0.2-1.6-0.5-2.8-0.8c-1.8-0.4-7.5-1.6-13.1,1.6c-5.7,3.2-7.5,8.9-7.9,10.2
				c1.6-1.2,3.1-2.5,4.7-3.7c-1.8,2-3.5,4-5.3,6c4.9-3.3,7.5-4.8,7.8-4.6c0.2,0.3-2.5,2.9-8.2,7.9c3.9-1.7,7.9-3.5,11.8-5.2
				c-4.2,3.5-6.3,5.4-6.1,5.6c0.2,0.3,3.7-1.9,10.4-6.4c-1.7,2.3-3.4,4.6-5.1,6.9c1.6-0.2,5.6-1.1,9.2-4.4c4.7-4.4,5.4-9.9,5.5-11.3
				C771.7,502.9,771.4,502.3,771.1,501.7z"/>
			<path class="st5" d="M859.1,467.5c-0.3,1.5-1.9,2.4-3.7,3.4c-1.1,0.6-2,0.9-2.7,1.2c-0.2,0.3-0.4,0.6-0.6,0.9
				c-0.3-0.6-0.7-1.3-1.2-2c-0.4-0.6-0.9-1-1.3-1.4c0.5-0.3,0.9-0.5,1.4-0.8c-0.4-0.4-0.7-0.7-1-0.8c-0.3-0.2-0.5-0.2-0.6-0.5
				c-0.1-0.2,0-0.5,0.2-0.7c0.7-0.6,2.5,0.6,2.5,0.5c0,0-0.5-0.4-1.3-0.9c-0.3-0.2-0.6-0.3-0.7-0.6c0-0.2,0.1-0.4,0.1-0.4
				c0.2-0.4,1-0.5,1.3-0.4c0.7,0.3,1.7,0.6,2.3,0.8c-0.1-0.2-0.2-0.6-0.5-0.9c-0.4-0.5-0.8-0.5-0.8-0.8c0-0.3,0.4-0.8,0.8-0.9
				c1.2-0.3,2.7,1.8,2.9,1.7c0,0,0-0.1-1.4-2.1c0,0,0,0,0,0c0,0-0.1-0.1-0.1-0.3c0,0,0-0.3,0.5-0.5
				C855.9,461.8,859.8,464.8,859.1,467.5z"/>
			<g>
				<g>
					<path class="st5" d="M297,495.6c0,0.5-0.8,0.9-0.8,0.9c-1,0.4-1.8-0.2-3.4-0.7c-0.6-0.2-2.8-0.9-5.1-0.2
						c-0.8,0.2-1.9,0.7-2.3,1.2c0,0,0,0,0,0c-0.2,0.2-0.5,0.4-0.7,0.8c-0.5,0.8-0.6,1.5-0.7,1.8c-0.2,0.7-1.1,1.7-4.5,2.5
						c-0.5-2-0.9-4-1.4-6c0.7-0.5,1.7-1.1,3-1.7c2.5-1.3,3.7-1.9,5.1-2.1c1-0.1,0.6,0.2,6.2,1.2c0.1,0,1.1,0.2,2.3,0.7
						C295.6,494.3,297,494.9,297,495.6z"/>
				</g>
				<path class="st28" d="M257.4,468.1c2,8.7,4,17.4,5.9,26c5,0.1,10.1,0.3,15.1,0.4c0.5,0.7,1.3,2,1.6,3.9c0.4,2.2-0.2,3.9-0.5,4.7
					c-9.1,1-18.2,1.9-27.2,2.9c-2.4-10.6-4.7-21.3-7.1-31.9c-1.3-6.9,2.1-12,5.2-12.3C252.9,461.7,255.8,464.3,257.4,468.1z"/>
			</g>
			<g>
				<path class="st5" d="M809.3,485.1c0,0.5-0.8,0.9-0.8,0.9c-1,0.4-1.8-0.2-3.4-0.7c-0.6-0.2-2.8-0.9-5.1-0.2
					c-0.8,0.2-1.9,0.7-2.3,1.2c0,0,0,0,0,0c-0.2,0.2-0.5,0.4-0.7,0.8c-0.5,0.8-0.6,1.5-0.7,1.8c-0.2,0.7-1.1,1.7-4.5,2.5
					c-0.5-2-0.9-4-1.4-6c0.7-0.5,1.7-1.1,3-1.7c2.5-1.3,3.7-1.9,5.1-2.1c1-0.1,0.6,0.2,6.2,1.2c0.1,0,1.1,0.2,2.3,0.7
					C807.9,483.8,809.4,484.4,809.3,485.1z"/>
			</g>
			<path class="st28" d="M769.7,457.6c2,8.7,4,17.4,5.9,26c5,0.1,10.1,0.3,15.1,0.4c0.5,0.7,1.3,2,1.6,3.9c0.4,2.2-0.2,3.9-0.5,4.7
				c-9.1,1-18.2,1.9-27.2,2.9c-2.4-10.6-4.7-21.3-7.1-31.9c-1.3-6.9,2.1-12,5.2-12.3C765.2,451.1,768.1,453.7,769.7,457.6z"/>
		</g>
		<g style="clip-path:url(#SVGID_00000029025375458423954520000012086805187060194954_);">
			<g>
				<path class="st5" d="M609,456.6c-1.7,1.3-3.5,2.5-5.2,3.8c-0.2-0.6-0.5-1.3-0.8-1.9c-0.6-1.3-1.3-2.3-1.9-3.2
					c-0.4-0.2-0.8-0.5-1.4-0.9c-0.2-0.1-1-0.8-1.7-1.9c-0.6-0.9-1-1.8-1.2-2.5c-4.1-4.7-4.1-5.9-3.8-6.2c0.1-0.1,0.2-0.2,0.4-0.2
					c0.6-0.1,1.2,0.7,2.4,2c0.8,0.9,1.6,1.6,1.6,1.5c0,0-0.9-1.2-2-2.5c-1.2-1.3-1.9-2.1-2.2-3.3c-0.1-0.3-0.2-1,0.1-1.2
					c0.3-0.2,0.8,0,0.9,0.1c1.4,1.6,2.8,3.3,4.3,4.9c-1.5-2-3-4.1-4.5-6.1c0,0-0.2-0.5,0.1-0.9c0.2-0.3,0.7-0.4,1.1-0.2
					c1.7,2.1,3.4,4.2,5.2,6.3c-1-1.4-1.9-2.5-2.5-3.2c-0.8-0.9-1.5-1.7-1.2-2.3c0.1-0.3,0.5-0.4,0.6-0.4c0.7-0.2,1.7,0.5,4.4,4.1
					c0.8,1,1.8,2.4,2.9,4.1c0-1.2,0.1-4.3,0.8-4.4c0.6-0.1,1.6,2.1,2,4c0.5,2.2,0.1,4.1-0.2,5.3L609,456.6z"/>
			</g>
		</g>
		<g style="clip-path:url(#SVGID_00000029025375458423954520000012086805187060194954_);">
			<path class="st5" d="M703.2,277.8c-1.9-0.2-3.8-0.4-5.7-0.6c-0.3,2.2-0.6,4.5-0.8,6.7c2.3,0.2,4.6,0.4,6.8,0.6
				C703.4,282.2,703.3,280,703.2,277.8z"/>
			<path class="st5" d="M685.8,266.4c-0.2,0.2-0.3,0.7-0.1,1c0,0,0.2,0.4,0.1,0.6c0,0,0,0,0,0c0,0,0,0,0,0c0,0-7.2-0.3-10.1,1.4
				c-4.2,2.5-6.6,12.7-1.2,18.2c3.9,4.1,9.9,3.4,10.8,3.3c-0.1,0.1-0.9,1-0.6,1.6c0.1,0.1,0.2,0.3,0.6,0.5c1.3,0.5,3-0.5,6-1.4
				c1.4-0.4,2.2-0.6,2.2-0.8c0-0.3-0.8-0.5-1.5-0.6c0.6-0.2,5.7-1.7,7.5-6.6c1-2.8,0.4-5.2,0.2-5.9c-1.3-4.9-5.7-7-6.4-7.3
				c0.2-0.1,0.4-0.3,0.4-0.5c0-0.4-0.8-0.8-1.7-1.3c-1.7-0.9-3.2-1.9-4.9-2.4C686.7,266.2,686,266.1,685.8,266.4z"/>
			<g>
				<path class="st5" d="M833.8,328c2.4,0.4,3.2,1.4,3.4,2.1c0.6,1.7-1.1,3.2-1.4,7c-0.1,1.6,0,4.3,0.7,4.5c0.5,0.2,1.2-0.7,2.8-3.3
					c4.8-7.8,4.6-9,4.4-9.6c-0.3-1.3-1.2-2-3.1-3.4c-2-1.6-3.9-2.3-5.2-2.8C835,324.4,834.4,326.2,833.8,328z"/>
				<path class="st7" d="M839.6,323.7c-0.7,1.3-1.5,2.5-2.2,3.8c-0.4,0.8-0.9,1.5-1.3,2.3c-14.4-5.4-28.9-11.5-43.5-18.6
					c-1.1-0.6-2.3-1.1-3.4-1.7c0.4-5.5,0.8-11.1,1.2-16.6c0-0.3,0-0.6,0.1-0.9c1.5,0.4,3.6,1,6.2,2c7.5,2.8,13.6,6.5,27.3,17.2
					C828.3,314.4,833.6,318.7,839.6,323.7z"/>
			</g>
			<path class="st5" d="M709,342.8c-0.5,1.1-0.9,2.3-1.4,3.4c-0.5,0.3-2.2,1.3-3.2,3.4c-1,2.2-0.6,4.1-0.4,4.7
				c0.6,0.7,1.1-1.9,1.6-2.9c-0.6,2.7-1.1,5.3-1.7,8c-0.2,1,0.8,0.8,1,0.2c0.8-2,2.1-5.5,2.1-5.5c0.3,0.1-1.2,4.3-2.1,6.6
				c0,0,0,0.2,0,0.2c-0.1,0.8,0.8,1.1,1.2,0.3c0,0,0.6-1.5,0.6-1.5c0.1-0.4,1.6-4.8,1.7-4.6c-0.5,1.7-0.7,2.8-1.3,4.5
				c-0.3,0.9,0.7,1.2,1,0.5c0,0,1.1-3.2,1.9-5c-0.4,1.3-0.8,2.1-1.2,3.4c-0.3,1,0.3,1.2,0.8,0.5c0.4-1.1,1.3-2.3,1.9-4
				c0.9-2.4,1.2-3.3,1.3-4.5c0.1-1.3,0-2.4-0.1-3.1c0.4-1.2,0.7-2.4,1.1-3.7C712.3,343.3,710.6,343.1,709,342.8z"/>
			<path class="st8" d="M704.7,342.6c0.6-7,1.1-14.5,1.2-22.4c0.1-11.5-0.4-22.2-1.4-31.8c0-0.2-0.1-0.5-0.2-0.9
				c-0.4-1.5-0.9-2.6-1.2-3.1c-0.4-0.8-0.9-2.1-1.2-3.8c0-0.8,0.2-1.9,0.6-3.1c0.7-1.9,1.8-3.2,2.5-3.9c7.3-0.4,18-0.7,31,0.5
				c14.4,1.3,32.3,2.8,52.5,11.8c11,4.9,19.7,10.7,27.9,16.2c8.4,5.6,15.2,10.8,20.1,14.8c-2.4,4.5-4.8,9.1-7.1,13.6
				c-12.9-6.7-24-11.8-32.2-15.4c-17.9-7.8-29.5-12.8-45.6-16.1c-10.3-2.1-18.9-2.8-24.7-3.1c-3.3,16.9-6.6,33.8-9.9,50.6
				c-1.7-0.2-3.5-0.6-5.6-1.2C708.7,344.5,706.5,343.6,704.7,342.6z"/>
			<path class="st29" d="M683.4,266.7c-3-0.5-7.5,1.1-10.2,4.5c-1,1.3-1.6,2.6-1.9,3.4c-0.3,0.8-0.6,2.1-0.8,3.7c0,0,0,0.3-0.1,0.6
				c-0.1,1.4-0.1,6.9,3.4,9.6c1,0.8,2.2,1,4.6,1.6c4.6,1,9.6,2.1,13.7-0.1c0.9-0.5,2.3-1.4,3.3-2.1c1.4-1,2.5-1.9,3.2-2.6
				c0.4-1.1,0.8-2.6,0.9-4.4c0.2-2.2-0.1-4-0.4-5.2c-0.4-0.3-1-0.7-1.7-1.3c-3.3-2.6-3.9-3.6-5.7-4.6c-1.5-0.8-3.2-1.5-3.5-1.7
				C688.2,268.1,685,266.9,683.4,266.7z"/>
			<g>
				<g>
					<path class="st10" d="M683,291.3c-0.7-2.7-1.4-6.6-1-11.4c0.4-6,2.4-10.6,3.8-13.3c-0.1,0-0.4,0-0.6-0.1c0,0-2-0.3-3.8-0.2
						c-2.3,0.1-4.6,0.1-6.6,1.4c-2.5,1.6-3.2,4.2-4,6.9c-0.4,1.6-1,4.4-0.3,7.8c0.2,1.1,0.5,2.5,1.2,3.7
						C674.3,290.9,681.8,291.3,683,291.3z"/>
				</g>
				<path class="st11" d="M682.4,266.3c-1.2,2.8-2.4,6.7-3,11.3c-0.7,5.4-0.3,10,0.3,13.3c-0.4-0.1-0.8-0.2-1.3-0.3
					c-0.2,0-0.3-0.1-0.5-0.1c0.3-0.4,0.6-0.9,0.9-1.3c-0.4-0.6-0.8-1.2-1.2-1.9c0.3-0.6,0.6-1.2,0.9-1.9c-0.3-0.5-0.7-1.1-1-1.6
					c0.4-0.6,0.7-1.2,1.1-1.8c-0.4-0.7-0.8-1.4-1.1-2.1l1.3-1.7l-0.9-2.1c0.5-0.5,0.9-1,1.4-1.5c-0.2-0.6-0.5-1.1-0.8-1.7
					c0.5-0.4,0.9-0.9,1.4-1.3c-0.1-0.6-0.3-1.2-0.4-1.8c0.4-0.4,0.8-0.9,1.2-1.3c0-0.7-0.1-1.5-0.1-2.2c0,0,0.1,0,0.1,0
					C681.3,266.3,681.8,266.3,682.4,266.3z"/>
			</g>
		</g>
		<path style="clip-path:url(#SVGID_00000029025375458423954520000012086805187060194954_);fill:#DC2428;" d="M425.2,467
			c2.2,0.5,5,1,8.2,1c3.6,0,6.6-0.4,8.9-0.9c0.7,0.3,1.4,0.6,2.2,1c-2.4,0.8-6.1,1.6-10.6,1.6c-4.4,0-8-0.9-10.4-1.7
			C424,467.6,424.6,467.3,425.2,467z"/>
		<path style="clip-path:url(#SVGID_00000029025375458423954520000012086805187060194954_);fill:#CC936D;" d="M345.7,478.2
			c-0.3,1.5-1.9,2.4-3.7,3.4c-1.1,0.6-2,0.9-2.7,1.2c-0.2,0.3-0.4,0.6-0.6,0.9c-0.3-0.6-0.7-1.3-1.2-2c-0.4-0.6-0.9-1-1.3-1.4
			c0.5-0.3,0.9-0.5,1.4-0.8c-0.4-0.4-0.7-0.7-1-0.8c-0.3-0.2-0.5-0.2-0.6-0.5c-0.1-0.2,0-0.5,0.2-0.7c0.7-0.6,2.5,0.6,2.5,0.5
			c0,0-0.5-0.4-1.3-0.9c-0.3-0.2-0.6-0.3-0.7-0.6c0-0.2,0.1-0.4,0.1-0.4c0.2-0.4,1-0.5,1.3-0.4c0.7,0.3,1.7,0.6,2.3,0.8
			c-0.1-0.2-0.2-0.6-0.5-0.9c-0.4-0.5-0.8-0.5-0.8-0.8c0-0.3,0.4-0.8,0.8-0.9c1.2-0.3,2.7,1.8,2.9,1.7c0,0,0-0.1-1.4-2.1
			c0,0,0,0,0,0c0,0-0.1-0.1-0.1-0.3c0,0,0-0.3,0.5-0.5C342.5,472.4,346.3,475.5,345.7,478.2z"/>
		<g style="clip-path:url(#SVGID_00000029025375458423954520000012086805187060194954_);">
			<path class="st6" d="M645.6,645.1c-0.2,0.3-0.4,0.8-0.6,1.3c-0.1,0.4-0.6,2.5,0.5,3.6c0.8,0.8,1.9,0.7,3.5,0.6
				c1.3-0.1,2.9-0.2,3.5-1.2c0.3-0.6,0.3-1.3,0.3-1.9c0-0.2,0-0.6-0.1-1.2c-0.1-0.7-0.4-1.3-0.6-1.7c-0.2-0.1-2.3-1.8-4.6-1
				C646.5,644.1,645.9,644.8,645.6,645.1z"/>
			<path class="st5" d="M651.8,645.7c0,0,0.1,0.2,0.1,0.5c0.1,0.5,0.2,1,0,1.6c-0.2,0.8-0.7,1.2-0.9,1.3c-0.7,0.5-1.4,0.5-2.5,0.6
				c-0.9,0-1.7,0-2.3-0.5c-0.4-0.4-0.6-0.8-0.7-1c-0.2-0.6-0.2-1.1-0.1-1.6c0.1-0.6,0.2-1,0.2-1.1c0.2-0.7,0.3-2.9-0.2-8.5h6.3
				C651.5,643,651.6,645.2,651.8,645.7z"/>
			<path class="st6" d="M673.6,645.1c-0.2,0.3-0.4,0.8-0.6,1.3c-0.1,0.4-0.6,2.5,0.5,3.6c0.8,0.8,1.9,0.7,3.5,0.6
				c1.3-0.1,2.9-0.2,3.5-1.2c0.3-0.6,0.3-1.3,0.3-1.9c0-0.2,0-0.6-0.1-1.2c-0.1-0.7-0.4-1.3-0.6-1.7c-0.2-0.1-2.3-1.8-4.6-1
				C674.6,644.1,673.9,644.8,673.6,645.1z"/>
			<path class="st5" d="M679.9,645.7c0,0,0.1,0.2,0.1,0.5c0.1,0.5,0.2,1,0,1.6c-0.2,0.8-0.7,1.2-0.9,1.3c-0.7,0.5-1.4,0.5-2.5,0.6
				c-0.9,0-1.7,0-2.3-0.5c-0.4-0.4-0.6-0.8-0.7-1c-0.2-0.6-0.2-1.1-0.1-1.6c0.1-0.6,0.2-1,0.2-1.1c0.2-0.7,0.3-2.9-0.2-8.5h6.3
				C679.6,643,679.7,645.2,679.9,645.7z"/>
			<g>
				<polygon class="st14" points="653.4,469.9 652.8,474.1 647.7,467.2 648.4,464.2 				"/>
			</g>
			<g>
				<g>
					<g>
						<path class="st4" d="M673.2,430.2c-0.1,1.2-9.2,1.2-10.1,1.2c-0.9,0-10,0-10.1-1.2c-0.1-0.9,5-2.6,10.2-2.6
							C668.2,427.6,673.2,429.3,673.2,430.2z"/>
						<g>
							<g>
								<g>
									<g>
										<path class="st5" d="M675.2,453.7c-3.9,1.3-7.8,2.6-11.7,3.9c-4.7-1.1-9.4-2.3-14-3.4c2.5-1.3,4.9-2.5,7.4-3.8
											c0.6-2.6,1.1-5.2,1.7-7.8c3.3,0,6.6,0,9.9,0c0.5,2.6,0.9,5.1,1.4,7.7C671.6,451.4,673.4,452.5,675.2,453.7z"/>
										<path class="st5" d="M672.8,434.2c0,0.5-0.2,1.9-0.5,4.8c0,0.1,0,0.2,0,0.3c-0.1,0.6-0.2,1.2-0.2,1.8
											c0,0.3-0.1,0.6-0.1,0.9c-0.2,0.4-0.5,0.8-0.8,1.2c-1.1,1.6-1.6,2.4-2.3,3.2c-0.6,0.6-1.7,1.5-3.3,2.2
											c-0.7,0-1.5,0.1-2.2,0.1c0,0,0,0,0,0c-0.1,0-0.1,0-0.2,0c-0.1,0-0.1,0-0.2,0c0,0,0,0,0,0c-0.7,0-1.5-0.1-2.2-0.1
											c-1.6-0.7-2.6-1.6-3.3-2.2c-0.8-0.8-1.3-1.6-2.3-3.2c-0.5-0.7-0.8-1.3-1.1-1.8c0-0.1,0-0.2,0-0.3c0-0.3-0.1-0.7-0.1-1.1
											c-0.1-0.4-0.1-0.9-0.2-1.5c-0.2-1.5-0.4-3.3-0.5-4.3c-0.2-2.6-0.5-7.6,2.9-10.8c2.7-2.5,6.2-2.6,7-2.6
											c0.7,0,4.3,0,7.1,2.6C673.4,426.6,673,431.6,672.8,434.2z"/>
										<path d="M672.8,434.4c-0.3,1.3-0.2,2.4-0.5,3.8c0,0.1,0,0.2,0,0.3v0c0,0.1,0,0.1-0.1,0.2c-0.1,0.3-0.1,0.6-0.2,0.9
											c-0.6,1.8-1.4,2.8-2.2,4.1c-0.5,0.9-1.2,2.2-1.8,3.9c-3.2,0-6.5,0-9.8,0.1c-0.1-0.1-0.1-0.1-0.2-0.1c-0.7-1.7-1.4-3-2-3.9
											c-0.7-1.1-1.6-2.1-2.1-3.8c0-0.1,0-0.2-0.1-0.3c-0.1-0.4-0.2-0.8-0.2-1.2c-0.8-4.6-1.4-12.7,3.7-16.1
											c1.4-1,3.3-1.5,5.6-1.5C670.1,420.4,674.2,427.2,672.8,434.4z"/>
									</g>
								</g>
							</g>
							<path class="st5" d="M672.8,432.2c0.2-0.2,0.9-0.6,1.4-0.4c0.5,0.3,0.3,1.4,0.2,2.2c-0.2,1.3-0.5,1.2-0.8,2.5
								c-0.2,1-0.1,1.7-0.6,1.9c-0.2,0.1-0.4,0.1-0.6,0C672.5,436.4,672.6,434.3,672.8,432.2z"/>
							<path class="st5" d="M653.2,432.2c-0.2-0.2-0.9-0.6-1.4-0.4c-0.5,0.3-0.3,1.4-0.2,2.2c0.2,1.3,0.5,1.2,0.8,2.5
								c0.2,1,0.1,1.7,0.6,1.9c0.2,0.1,0.4,0.1,0.6,0C653.5,436.4,653.4,434.3,653.2,432.2z"/>
						</g>
						<g>
							<g>
								<path class="st10" d="M653,430.2c2.1-0.8,5.2-1.7,9.1-1.9c4.8-0.2,8.7,0.9,11.1,1.8c0-0.1,0-0.3,0-0.5c0,0,0-1.7-0.2-3.1
									c-0.3-1.9-0.5-3.7-1.7-5.2c-1.5-1.9-3.7-2.2-5.9-2.6c-1.3-0.2-3.6-0.4-6.4,0.4c-0.9,0.3-1.9,0.6-2.9,1.3
									C652.6,423.2,652.9,429.3,653,430.2z"/>
							</g>
							<path class="st11" d="M673.1,427.4c-2.4-0.7-5.6-1.3-9.4-1.4c-4.4-0.1-8,0.7-10.7,1.4c0-0.3,0.1-0.7,0.1-1.1
								c0-0.1,0-0.3,0.1-0.4c0.4,0.2,0.8,0.4,1.2,0.6c0.5-0.4,0.9-0.8,1.4-1.2c0.5,0.2,1.1,0.4,1.6,0.5c0.4-0.3,0.8-0.6,1.2-1
								c0.5,0.2,1,0.5,1.5,0.7c0.5-0.4,1-0.7,1.6-1.1l1.5,0.9l1.6-0.9c0.4,0.3,0.9,0.7,1.3,1c0.4-0.2,0.9-0.5,1.3-0.8
								c0.4,0.3,0.8,0.7,1.2,1c0.5-0.2,1-0.3,1.4-0.5c0.4,0.3,0.8,0.6,1.2,0.8c0.6-0.1,1.2-0.2,1.8-0.3c0,0,0,0.1,0,0.1
								C673,426.5,673,427,673.1,427.4z"/>
						</g>
					</g>
					<g>
						<g>
							<path class="st7" d="M641.4,640.1c0.1,0.4,2.4,0.6,7.1,0.9c4.6,0.3,6.9,0.5,7,0.1c0,0,0,0,0,0c0.1-18.6,0.1-37.3,0.2-55.9
								c-3.5,1.1-7,2.1-10.5,3.2C643.9,605.6,642.7,622.8,641.4,640.1C641.4,640,641.4,640,641.4,640.1z"/>
						</g>
					</g>
					<g>
						<g>
							<path class="st7" d="M669.7,585.1c0.1,18.6,0.1,37.3,0.2,55.9c0,0,0,0,0,0c0.1,0.4,2.4,0.2,7-0.1c4.7-0.3,7-0.5,7.1-0.9
								c0,0,0-0.1,0-0.1c-1.3-17.2-2.5-34.4-3.8-51.6C676.7,587.3,673.2,586.2,669.7,585.1z"/>
						</g>
					</g>
					<path class="st8" d="M634.6,464.1c-0.1-2.7,0.7-4.4,1-5c0,0,0.4-0.9,1.1-1.8c1.6-2.1,7.9-4.6,16.5-6.1
						c5.4-0.6,11.5-0.7,18.2,0.1c1.3,0.2,2.7,0.4,3.9,0.6c0,0,7.7,1.4,10.7,4c0,0,0.8,0.7,0.8,0.7c1.6,1.6,1.9,3.2,2.4,11.6
						c0.4,6,0.6,11.2,0.8,15.3c-8.6,1.3-19.5,2.1-32,1c-7.7-0.7-14.6-2-20.6-3.4C635.1,470.4,634.7,466,634.6,464.1z"/>
					<path class="st8" d="M683,482.4c2.5,48.9,5.1,97.8,7.6,146.7c-5.7,1.6-10.3,2-13.4,2.1c-12.4,0.5-15.1-3.4-25.7-1.7
						c-2.6,0.4-5.9,1.2-10.9,0.9c-3.6-0.2-6.4-0.7-8.3-1.2c2.2-49.6,4.3-99.1,6.5-148.7c7.4,1,13.1,1.7,16.3,2.1
						c1.5,0.2,3.8,0.4,6.8,0.4c3.7,0,6-0.4,8.3-0.6C673.2,482.1,677.5,481.9,683,482.4z"/>
					<path class="st8" d="M687.9,458.3c0,0.1,0.1,0.2,0.1,0.3c1.1,2.4,1.5,4.3,2.3,7.8c0.1,0.6,0.3,1.1,0.3,1.5c0,0,0.2,0.7,0.3,1.3
						c1.1,4.4,6.3,21.6,3.4,35.6c-0.3,1.3-0.7,3.2-2.3,4.4c-3.2,2.6-8.5,0.6-9.8,0c0.1-8.6,0.2-17.2,0.3-25.8
						C684.3,475,686.1,466.7,687.9,458.3z"/>
					<path class="st8" d="M636.7,457.1c-0.6,1-1.1,1.8-1.3,2.4l0,0c-1.9,3.4-3.7,6.8-5.3,10.4c-0.7,1.6-2.8,1.9-4,0.6
						c-5.6-6.6-11.1-13.1-16.7-19.7c-3.6,2.5-7.2,4.9-10.8,7.4c8.8,11.5,17.7,22.9,26.5,34.4c1.2,1.5,3.5,1.6,4.8,0.2
						c3.7-4.2,7.5-8.4,11.2-12.6c-0.8-3.2-1.6-6.6-2.3-10.2C637.9,465.4,637.2,461.2,636.7,457.1z"/>
					<path class="st7" d="M671,449.5c0.2,0.7,0.5,1.3,0.7,2c-2.8,0.2-5.9,0.2-9.1,0.1c-2.8-0.1-5.5-0.3-7.9-0.5
						c0.3-0.6,0.7-1.3,1-1.9c2.3,0.1,4.6,0.1,7,0.2C665.5,449.5,668.3,449.5,671,449.5z"/>
				</g>
			</g>
		</g>
		<g style="clip-path:url(#SVGID_00000029025375458423954520000012086805187060194954_);">
			<g>
				<path class="st5" d="M378.4,471.9c-1.7,1.3-3.5,2.5-5.2,3.8c-0.2-0.6-0.5-1.3-0.8-1.9c-0.6-1.3-1.3-2.3-1.9-3.2
					c-0.4-0.2-0.8-0.5-1.4-0.9c-0.2-0.1-1-0.8-1.7-1.9c-0.6-0.9-1-1.8-1.2-2.5c-4.1-4.7-4.1-5.9-3.8-6.2c0.1-0.1,0.2-0.2,0.4-0.2
					c0.6-0.1,1.2,0.7,2.4,2c0.8,0.9,1.6,1.6,1.6,1.5c0,0-0.9-1.2-2-2.5c-1.2-1.3-1.9-2.1-2.2-3.3c-0.1-0.3-0.2-1,0.1-1.2
					c0.3-0.2,0.8,0,0.9,0.1c1.4,1.6,2.8,3.3,4.3,4.9c-1.5-2-3-4.1-4.5-6.1c0,0-0.2-0.5,0.1-0.9c0.2-0.3,0.7-0.4,1.1-0.2
					c1.7,2.1,3.4,4.2,5.2,6.3c-1-1.4-1.9-2.5-2.5-3.2c-0.8-0.9-1.5-1.7-1.2-2.3c0.1-0.3,0.5-0.4,0.6-0.4c0.7-0.2,1.7,0.5,4.4,4.1
					c0.8,1,1.8,2.4,2.9,4.1c0-1.2,0.1-4.3,0.8-4.4c0.6-0.1,1.6,2.1,2,4c0.5,2.2,0.1,4.1-0.2,5.3L378.4,471.9z"/>
			</g>
		</g>
		<g style="clip-path:url(#SVGID_00000029025375458423954520000012086805187060194954_);">
			<path class="st6" d="M415,660.5c-0.2,0.3-0.4,0.8-0.6,1.3c-0.1,0.4-0.6,2.5,0.5,3.6c0.8,0.8,1.9,0.7,3.5,0.6
				c1.3-0.1,2.9-0.2,3.5-1.2c0.3-0.6,0.3-1.3,0.3-1.9c0-0.2,0-0.6-0.1-1.2c-0.1-0.7-0.4-1.3-0.6-1.7c-0.2-0.1-2.3-1.8-4.6-1
				C415.9,659.5,415.3,660.1,415,660.5z"/>
			<path class="st5" d="M421.2,661.1c0,0,0.1,0.2,0.1,0.5c0.1,0.5,0.2,1,0,1.6c-0.2,0.8-0.7,1.2-0.9,1.3c-0.7,0.5-1.4,0.5-2.5,0.6
				c-0.9,0-1.7,0-2.3-0.5c-0.4-0.4-0.6-0.8-0.7-1c-0.2-0.6-0.2-1.1-0.1-1.6c0.1-0.6,0.2-1,0.2-1.1c0.2-0.7,0.3-2.9-0.2-8.5h6.3
				C421,658.3,421.1,660.5,421.2,661.1z"/>
			<path class="st6" d="M443.1,660.5c-0.2,0.3-0.4,0.8-0.6,1.3c-0.1,0.4-0.6,2.5,0.5,3.6c0.8,0.8,1.9,0.7,3.5,0.6
				c1.3-0.1,2.9-0.2,3.5-1.2c0.3-0.6,0.3-1.3,0.3-1.9c0-0.2,0-0.6-0.1-1.2c-0.1-0.7-0.4-1.3-0.6-1.7c-0.2-0.1-2.3-1.8-4.6-1
				C444,659.5,443.4,660.1,443.1,660.5z"/>
			<path class="st5" d="M449.3,661.1c0,0,0.1,0.2,0.1,0.5c0.1,0.5,0.2,1,0,1.6c-0.2,0.8-0.7,1.2-0.9,1.3c-0.7,0.5-1.4,0.5-2.5,0.6
				c-0.9,0-1.7,0-2.3-0.5c-0.4-0.4-0.6-0.8-0.7-1c-0.2-0.6-0.2-1.1-0.1-1.6c0.1-0.6,0.2-1,0.2-1.1c0.2-0.7,0.3-2.9-0.2-8.5h6.3
				C449.1,658.3,449.1,660.5,449.3,661.1z"/>
			<g>
				<polygon class="st14" points="422.9,485.2 422.3,489.5 417.2,482.5 417.8,479.5 				"/>
				<path class="st16" d="M420.9,448.9l-2,15.5c-0.8,5.1-1.6,10.3-2.3,15.4c1.1,1.2,2.4,2.5,4.1,3.8c2.4,1.9,4.7,3.2,6.6,4.1
					c-2.1-6.9-3.9-15.6-4.2-25.5c-0.1-3.7-0.1-7.2,0.1-10.4c-0.1-0.8-0.1-1.6-0.2-2.4c0-1-0.1-2,0-2.9
					C422.2,447.2,421.5,448,420.9,448.9z"/>
			</g>
			<g>
				<g>
					<g>
						<g>
							<path class="st7" d="M410.8,655.4c0.1,0.4,2.4,0.6,7.1,0.9c4.6,0.3,6.9,0.5,7,0.1c0,0,0,0,0,0c0.1-18.6,0.1-37.3,0.2-55.9
								c-3.5,1.1-7,2.1-10.5,3.2C413.4,620.9,412.1,638.1,410.8,655.4C410.8,655.3,410.8,655.3,410.8,655.4z"/>
						</g>
					</g>
					<g>
						<g>
							<path class="st7" d="M439.1,600.5c0.1,18.6,0.1,37.3,0.2,55.9c0,0,0,0,0,0c0.1,0.4,2.4,0.2,7-0.1c4.7-0.3,7-0.5,7.1-0.9
								c0,0,0-0.1,0-0.1c-1.3-17.2-2.5-34.4-3.8-51.6C446.1,602.6,442.6,601.5,439.1,600.5z"/>
						</g>
					</g>
					<path class="st7" d="M442.2,465.1l-10.1,7.8l-9.8-7.8c3.1-0.2,6.4-0.3,9.8-0.3C435.7,464.7,439.1,464.9,442.2,465.1z"/>
					<path class="st8" d="M404,479.4c-0.1-2.7,0.7-4.4,1-5c0,0,0.4-0.9,1.1-1.8c1.6-2.1,7.9-4.6,16.5-6.1c5.4-0.6,11.5-0.7,18.2,0.1
						c1.3,0.2,2.7,0.4,3.9,0.6c0,0,7.7,1.4,10.7,4c0,0,0.8,0.7,0.8,0.7c1.6,1.6,1.9,3.2,2.4,11.6c0.4,6,0.6,11.2,0.8,15.3
						c-8.6,1.3-19.5,2.1-32,1c-7.7-0.7-14.6-2-20.6-3.4C404.6,485.7,404.1,481.4,404,479.4z"/>
					<path class="st8" d="M452.4,497.7c2.5,48.9,5.1,97.8,7.6,146.7c-5.7,1.6-10.3,2-13.4,2.1c-12.4,0.5-15.1-3.4-25.7-1.7
						c-2.6,0.4-5.9,1.2-10.9,0.9c-3.6-0.2-6.4-0.7-8.3-1.2c2.2-49.6,4.3-99.1,6.5-148.7c7.4,1,13.1,1.7,16.3,2.1
						c1.5,0.2,3.8,0.4,6.8,0.4c3.7,0,6-0.4,8.3-0.6C442.6,497.4,447,497.2,452.4,497.7z"/>
					<path class="st18" d="M446.4,441c0,6.2-4.2,10.1-4.9,10.7c-3.2,0.7-7.6,1.2-12.6,0.6c-2.1-0.2-4-0.6-5.7-1.1
						c-0.6-0.5-5.7-5.1-5.1-12.2c0.1-1,0.6-6.2,5-9.5c3.3-2.5,7.2-2.7,9.9-2.4c1.9,0,4.3,0.3,6.6,1.6
						C443.8,431.3,446.4,436.1,446.4,441z"/>
					<path class="st8" d="M457.3,473.6c0,0.1,0.1,0.2,0.1,0.3c1.1,2.4,1.5,4.3,2.3,7.8c0.1,0.6,0.3,1.1,0.3,1.5c0,0,0.2,0.7,0.3,1.3
						c1.1,4.4,6.3,21.6,3.4,35.6c-0.3,1.3-0.7,3.2-2.3,4.4c-3.2,2.6-8.5,0.6-9.8,0c0.1-8.6,0.2-17.2,0.3-25.8
						C453.8,490.4,455.6,482,457.3,473.6z"/>
					<path class="st8" d="M406.2,472.4c-0.6,1-1.1,1.8-1.3,2.4l0,0c-1.9,3.4-3.7,6.8-5.3,10.4c-0.7,1.6-2.8,1.9-4,0.6
						c-5.6-6.6-11.1-13.1-16.7-19.7c-3.6,2.5-7.2,4.9-10.8,7.4c8.8,11.5,17.7,22.9,26.5,34.4c1.2,1.5,3.5,1.6,4.8,0.2
						c3.7-4.2,7.5-8.4,11.2-12.6c-0.8-3.2-1.6-6.6-2.3-10.2C407.3,480.8,406.7,476.5,406.2,472.4z"/>
				</g>
			</g>
			<path class="st14" d="M421.2,449.5c2.2,1,6,2.5,11,2.7c4.5,0.2,8.2-0.8,10.3-1.6c0,4,0.2,8.4,0.6,13c0.8,8.6,2.3,16.2,4.1,22.8
				c-2.9-4.4-5.5-5.5-7.4-5.7c-6-0.6-9.7,7.6-16.3,7c-2.8-0.2-5-2-6.4-3.3c2.1-6.8,3.9-15.4,4.3-25.2
				C421.5,455.7,421.4,452.5,421.2,449.5z"/>
			<path class="st17" d="M445,435c-0.5-1.5-1.6-3.8-3.7-6c-0.7-0.7-1.7-1.8-3.4-2.7c-5.4-2.8-10.9-0.5-11.4-0.3
				c-0.5,0.2-1.8,0.8-3.1,2c-2.7,2.3-3.8,5.1-4.2,6.5c1.3-1.2,5.2-4.5,11.1-4.9C438.5,428.8,444.1,434.1,445,435z"/>
		</g>
	</g>
</g>
</svg>
