<?xml version="1.0" encoding="utf-8"?>
<!-- Generator: Adobe Illustrator 26.0.1, SVG Export Plug-In . SVG Version: 6.00 Build 0)  -->
<svg version="1.1" id="Layer_1" xmlns="http://www.w3.org/2000/svg" xmlns:xlink="http://www.w3.org/1999/xlink" x="0px" y="0px"
	 viewBox="0 0 720 792" style="enable-background:new 0 0 720 792;" xml:space="preserve">
<style type="text/css">
	.st0{fill:#A5E0DC;}
	.st1{fill:#00747D;}
	.st2{fill:#BEFCF6;}
	.st3{fill:#81CCC6;}
	.st4{fill:url(#SVGID_1_);}
	.st5{opacity:0.5;fill:url(#SVGID_00000116195936189283713020000005229676661393940133_);}
	.st6{opacity:0.5;fill:url(#SVGID_00000038386453976666210410000008102139621412527287_);}
	.st7{opacity:0.5;fill:url(#SVGID_00000183248808564022543610000011782616007407722385_);}
	.st8{opacity:0.5;fill:url(#SVGID_00000035529673756343154570000003088294493448399785_);}
	.st9{opacity:0.5;fill:url(#SVGID_00000033351479044683472590000013070486134877952685_);}
	.st10{opacity:0.6;fill:#DD6668;}
	.st11{opacity:0.5;fill:url(#SVGID_00000078731284312029952270000006873509263219508150_);}
	.st12{fill:url(#SVGID_00000116193997294085424290000008543572368080129191_);}
	.st13{opacity:0.5;fill:url(#SVGID_00000075878990361042558460000006808813852467908272_);}
	.st14{opacity:0.5;fill:url(#SVGID_00000181775904384634462060000006478101465239798460_);}
	.st15{opacity:0.5;fill:url(#SVGID_00000105387577563595669570000004743308261589786762_);}
	.st16{opacity:0.5;fill:url(#SVGID_00000180333375407912854040000011279822916926520725_);}
	.st17{opacity:0.5;fill:url(#SVGID_00000003063096553048068130000001233032935322850213_);}
	.st18{opacity:0.5;fill:url(#SVGID_00000056398168695973240640000013721710113477918613_);}
	.st19{fill:url(#SVGID_00000142877839052140131360000001729725336497709956_);}
	.st20{opacity:0.6;fill:url(#SVGID_00000143610319842680159580000017659276749588721068_);}
	.st21{opacity:0.6;fill:url(#SVGID_00000003827716055492108770000014305855050675361929_);}
	.st22{opacity:0.6;fill:url(#SVGID_00000044163816681020325360000006695953700453536180_);}
	.st23{opacity:0.5;fill:url(#SVGID_00000119096445031966889540000010527310000133557155_);}
	.st24{opacity:0.5;fill:url(#SVGID_00000045591536738651392670000016169381192077389984_);}
	.st25{fill:#363160;}
	.st26{fill:#6A66BF;}
	.st27{fill:#282828;}
	.st28{fill:#FF5257;}
	.st29{fill:#DD7A68;}
	.st30{fill:#FFB886;}
	.st31{fill:#F58E6F;}
	.st32{fill:#E86A54;}
	.st33{fill:#252140;}
	.st34{fill:#B24234;}
	.st35{fill:#59001B;}
	.st36{fill:#EAF8F8;}
	.st37{fill:#C6093A;}
	.st38{fill:#FFFFFF;}
	.st39{fill:#432B16;}
	.st40{fill-rule:evenodd;clip-rule:evenodd;fill:#6F8FA3;}
	.st41{fill-rule:evenodd;clip-rule:evenodd;fill:#426276;}
	.st42{fill-rule:evenodd;clip-rule:evenodd;fill:#5D65B2;}
	.st43{fill-rule:evenodd;clip-rule:evenodd;fill:#979DFF;}
	.st44{fill-rule:evenodd;clip-rule:evenodd;fill:#222B56;}
	.st45{fill-rule:evenodd;clip-rule:evenodd;fill:#ACDAF7;}
	.st46{fill-rule:evenodd;clip-rule:evenodd;fill:#5CA4D1;}
	.st47{fill-rule:evenodd;clip-rule:evenodd;fill:#AEC2CF;}
	.st48{fill-rule:evenodd;clip-rule:evenodd;fill:#171E3A;}
	.st49{fill-rule:evenodd;clip-rule:evenodd;fill:#444EAD;}
	.st50{fill-rule:evenodd;clip-rule:evenodd;fill:#5DA333;}
	.st51{fill-rule:evenodd;clip-rule:evenodd;fill:#AD2C5D;}
	.st52{fill:#E09A61;}
	.st53{fill:#C47947;}
</style>
<g>
	<g>
		<path class="st0" d="M700.2,584.1c-2.4,23.9-10.5,45.4-21.9,63.4c0,0.1-0.1,0.1-0.1,0.2c-1.4,2.2-17.1,25.5-43.8,43.4
			c-76,51-250.8,49.6-281.2,49.2c0,0-143.1-2.3-238.9-50.1c-14.8-7.4-25.8-17.6-25.8-17.6c-7.2-6.7-15.8-14.3-21.4-23.7
			c-1-1.6-2-3.3-2.9-5C25.2,580.6,23.4,526.6,24,504.7c2.5-93,63.7-158.9,102.5-200.8c60-64.7,76.9-44.4,112.5-99.9
			c44.4-69.2,31-120.7,76.4-160.1c2.3-2,49.9-42.1,97.8-22.4c48,19.7,42.5,77.3,100.1,119.2c47.2,34.3,66.9,5.7,96.7,39
			c41.6,46.4,30.2,136.6,44.6,208C668,454.8,707.3,515.1,700.2,584.1z"/>
		<path class="st1" d="M678.3,647.5c0,0.1-0.1,0.1-0.1,0.2c-1.4,2.2-17.1,25.5-43.8,43.4c-76,51-250.8,49.6-281.2,49.2
			c0,0-143.1-2.3-238.9-50.1c-14.8-7.4-25.8-17.6-25.8-17.6c-7.2-6.7-15.8-14.3-21.4-23.7c63.6-10,178.6-16.6,309.9-16.6
			C502.6,632.2,613.2,638.3,678.3,647.5z"/>
		<g>
			<g>
				<path class="st2" d="M167.5,612.5c-9-28.9-1.9-67.1,17.2-90.7c-1.8,13.7-5.9,31.8-8.4,45.4C173.4,582.4,171.3,597.2,167.5,612.5
					L167.5,612.5z"/>
				<path class="st2" d="M155.2,609.5c-4.1-17.2-7.3-33.8-12.6-50.4c-5.1-16.6-11.7-31.9-19.5-47.8c3.7,2.6,7.1,5.7,10.2,9
					C154,543.6,162.7,579.3,155.2,609.5L155.2,609.5z"/>
				<path class="st1" d="M157.9,626.1c-1.4-26-1.1-62.8-1.3-89.1c0.1-26.3-0.6-63.1,0.7-89.1c7.4,28.8,10,59,10.3,89.1
					C167.5,567,165.1,597.3,157.9,626.1L157.9,626.1z"/>
			</g>
			<path class="st3" d="M178.8,647.6c-5,1.1-11.5,2.1-19.1,2c-6.6-0.1-12.3-1-16.9-2c-2.8-17-5.8-35-8.9-54.1h53.9L178.8,647.6z"/>
		</g>
		<g>
			<g>
				<path class="st1" d="M484.7,371.1H288.7V239.6h196.1V371.1z M296.7,363.1h180.1V247.6H296.7V363.1z"/>
			</g>
		</g>
	</g>
	<g>
		<g>
			<g>
				<g>
					<g>
						<linearGradient id="SVGID_1_" gradientUnits="userSpaceOnUse" x1="399.343" y1="675.2805" x2="421.0056" y2="675.2805">
							<stop  offset="0" style="stop-color:#FFB886"/>
							<stop  offset="1" style="stop-color:#FFA486"/>
						</linearGradient>
						<path class="st4" d="M421,691.9c-0.1,0.7-0.8,1.7-2,1.5c-0.1,0-0.1,0-0.2,0c0,0-0.1,0.1-0.2,0.3c-0.3,0.4-1.1,1-2.5,0.1
							c0,0-0.3,0.3-0.8,0.5c0,0,0,0,0,0c-0.6,0.3-1.6,0.5-2.5-0.6c0,0,0-0.1-0.1-0.1c0,0-0.1,0.1-0.2,0.3c0,0,0,0,0,0
							c-0.3,0.3-1,0.9-2.2,0.9c-1.7,0-2.4-2.2-2.4-3.4h-0.6c0,0,0,0,0,0c0,0.1-0.4,1.9-1.4,2.8c-0.4,0.3-0.8,0.6-1.4,0.6
							c-2.2,0-3.9-1.8-4.2-2.5c-0.2-0.7,0-2.7,0-2.7s-0.1-0.1-0.2-0.2c-0.3-0.3,0.5-1.6,0.5-3.3l-1.3-3.8c0-0.5-0.3-2.5,0-4.4
							c0.3-1.9,0.9-2.7,0.9-2.7s0,0,0,0c0-0.3-0.4-5.6-0.4-7.2c0-1.6,0.5-3.2,0.9-4.3c0.3-1.2,1-7.7,1-7.7l12.3,0.1l0.8,0
							c-0.2,3.8-1.1,9.6-0.9,17.2c0,0,1.2,4.3,1.5,6.2c0,0,3.3,4.7,4.1,6.5C420.5,687.5,421.1,690.3,421,691.9z"/>
						
							<linearGradient id="SVGID_00000119819239101626715910000009979328681462056072_" gradientUnits="userSpaceOnUse" x1="402.3285" y1="690.5311" x2="406.5254" y2="690.5311">
							<stop  offset="1.117320e-02" style="stop-color:#A96885"/>
							<stop  offset="1" style="stop-color:#93A3B7"/>
						</linearGradient>
						<path style="opacity:0.5;fill:url(#SVGID_00000119819239101626715910000009979328681462056072_);" d="M402.5,692.1
							c0,0-0.5-1.6,0.2-2.6c0.7-1,3.2-0.5,3.5,0.2c0.3,0.8,0.3,2.3,0.3,2.3C405.7,691.6,403.7,691.4,402.5,692.1z"/>
						
							<linearGradient id="SVGID_00000026127771718536691060000017204317760989106827_" gradientUnits="userSpaceOnUse" x1="409.4652" y1="691.8083" x2="411.8009" y2="691.8083">
							<stop  offset="1.117320e-02" style="stop-color:#A96885"/>
							<stop  offset="1" style="stop-color:#93A3B7"/>
						</linearGradient>
						<path style="opacity:0.5;fill:url(#SVGID_00000026127771718536691060000017204317760989106827_);" d="M409.6,692.7
							c0,0-0.3-0.9,0.1-1.4c0.4-0.5,1.8-0.3,2,0.1c0.2,0.4,0.2,1.3,0.2,1.3C411.3,692.4,410.2,692.3,409.6,692.7z"/>
						
							<linearGradient id="SVGID_00000088853928568416172200000007585168755354629000_" gradientUnits="userSpaceOnUse" x1="413.8349" y1="692.1309" x2="415.7455" y2="692.1309">
							<stop  offset="1.117320e-02" style="stop-color:#A96885"/>
							<stop  offset="1" style="stop-color:#93A3B7"/>
						</linearGradient>
						<path style="opacity:0.5;fill:url(#SVGID_00000088853928568416172200000007585168755354629000_);" d="M413.9,692.8
							c0,0-0.2-0.7,0.1-1.2c0.3-0.4,1.5-0.2,1.6,0.1c0.1,0.3,0.1,1.1,0.1,1.1C415.4,692.6,414.5,692.5,413.9,692.8z"/>
						
							<linearGradient id="SVGID_00000041276548258362106730000007515892055650194861_" gradientUnits="userSpaceOnUse" x1="416.673" y1="692.2247" x2="418.3104" y2="692.2247">
							<stop  offset="1.117320e-02" style="stop-color:#A96885"/>
							<stop  offset="1" style="stop-color:#93A3B7"/>
						</linearGradient>
						<path style="opacity:0.5;fill:url(#SVGID_00000041276548258362106730000007515892055650194861_);" d="M416.7,692.8
							c0,0-0.2-0.6,0.1-1c0.3-0.4,1.3-0.2,1.4,0.1c0.1,0.3,0.1,0.9,0.1,0.9C418,692.6,417.2,692.6,416.7,692.8z"/>
						
							<linearGradient id="SVGID_00000043447347350851884180000008463975564463744924_" gradientUnits="userSpaceOnUse" x1="419.1513" y1="691.9752" x2="420.5411" y2="691.9752">
							<stop  offset="1.117320e-02" style="stop-color:#A96885"/>
							<stop  offset="1" style="stop-color:#93A3B7"/>
						</linearGradient>
						<path style="opacity:0.5;fill:url(#SVGID_00000043447347350851884180000008463975564463744924_);" d="M419.2,692.5
							c0,0-0.2-0.5,0.1-0.8c0.2-0.3,1.1-0.2,1.2,0.1c0.1,0.2,0.1,0.8,0.1,0.8C420.3,692.3,419.6,692.3,419.2,692.5z"/>
						<path class="st10" d="M415.8,693.1c0,0.7-0.5,1.1-0.5,1.1c0.5-0.2,0.8-0.5,0.8-0.5s0-3.2-0.4-4.4c-0.3-1.2-1.1-2.1-1.1-2.1
							c0,0,0.8,1.5,1,2.3C415.8,690.4,415.9,692.5,415.8,693.1z"/>
						<path class="st10" d="M412.4,691.4c0.3,1.3,0.2,2.4,0.2,2.5c0.1-0.1,0.2-0.3,0.2-0.3c0,0,0,0.1,0.1,0.1c0,0,0.1-0.1,0-1.2
							c-0.1-1.1-0.4-2-0.6-2.7c-0.2-0.7-0.4-1-0.8-1.8C412.1,689.5,412.1,690.1,412.4,691.4z"/>
						<path class="st10" d="M418.7,693.6c0.1-0.2,0.2-0.3,0.2-0.3c0.1,0,0.1,0,0.2,0c0-0.4,0-0.9-0.1-1.3c-0.2-2.2-0.4-3.2-1.4-4.9
							c0.9,1.8,1.1,2.8,1.1,4.9C418.7,692.6,418.7,693.1,418.7,693.6z"/>
						<path class="st10" d="M406,694.2c1-0.9,1.4-2.7,1.4-2.8c0,0,0,0,0,0c0.1-1.7-0.8-4.2-0.9-4.3c0.4,1.5,0.7,2.7,0.6,4.3
							C407,693,406,694.2,406,694.2z"/>
						<path class="st10" d="M400.2,689.3c0.1,0.2,0.2,0.2,0.2,0.2l0.3-1.8C400.3,688.4,400.2,689.3,400.2,689.3z"/>
						
							<linearGradient id="SVGID_00000138541389366196788140000007267493526526687110_" gradientUnits="userSpaceOnUse" x1="399.3428" y1="679.8857" x2="400.4371" y2="679.8857">
							<stop  offset="1.117320e-02" style="stop-color:#A96885"/>
							<stop  offset="1" style="stop-color:#93A3B7"/>
						</linearGradient>
						<path style="opacity:0.5;fill:url(#SVGID_00000138541389366196788140000007267493526526687110_);" d="M399.5,682.1v2.6
							c0.1-1,0.7-7.6,0.9-9.7l0,0c0,0,0,0,0,0s-0.6,0.7-0.9,2.7C399.2,679.7,399.5,681.7,399.5,682.1z"/>
					</g>
				</g>
				<g>
					<g>
						
							<linearGradient id="SVGID_00000011713224744052427710000012081101129558544512_" gradientUnits="userSpaceOnUse" x1="365.4221" y1="675.2805" x2="387.0848" y2="675.2805">
							<stop  offset="0" style="stop-color:#FFB886"/>
							<stop  offset="1" style="stop-color:#FFA486"/>
						</linearGradient>
						<path style="fill:url(#SVGID_00000011713224744052427710000012081101129558544512_);" d="M386.9,682.1l-1.3,3.7
							c0,1.7,0.8,3.2,0.5,3.5c-0.1,0.2-0.2,0.2-0.2,0.2s0.2,2,0,2.7c-0.2,0.7-1.9,2.5-4.2,2.5c-0.6,0-1-0.2-1.4-0.6
							c-1-0.9-1.4-2.7-1.4-2.8c0,0,0,0,0,0h-0.6c0,1.2-0.7,3.4-2.4,3.4c-1.2,0-1.9-0.6-2.2-0.9c0,0,0,0,0,0
							c-0.1-0.1-0.2-0.3-0.2-0.3c0,0,0,0.1-0.1,0.1c-0.9,1.1-1.9,0.9-2.5,0.6c0,0,0,0,0,0c-0.5-0.2-0.8-0.5-0.8-0.5
							c-1.5,0.9-2.2,0.3-2.5-0.1c-0.1-0.2-0.2-0.3-0.2-0.3c-0.1,0-0.1,0-0.2,0c-1.2,0.2-1.9-0.9-2-1.5c-0.1-1.6,0.4-4.3,1.2-6.2
							c0.8-1.8,4.1-6.5,4.1-6.5c0.3-1.9,1.5-6.2,1.5-6.2c0.2-6.9-0.5-12.4-0.8-16.1c0,0,0,0,0,0c0-0.3-0.1-0.7-0.1-1l12.4-0.1l0.6,0
							c0,0,0,0.1,0,0.2c0.1,1.1,0.7,6.4,1,7.5c0.3,1.2,0.8,2.7,0.9,4.3c0,1.2-0.2,4.8-0.3,6.4c0,0.5-0.1,0.8-0.1,0.8c0,0,0,0,0,0
							s0.6,0.7,0.9,2.7C387.3,679.7,386.9,681.7,386.9,682.1z"/>
						
							<linearGradient id="SVGID_00000039091927336138074680000008013144309815447938_" gradientUnits="userSpaceOnUse" x1="379.9023" y1="690.5311" x2="384.0992" y2="690.5311">
							<stop  offset="1.117320e-02" style="stop-color:#A96885"/>
							<stop  offset="1" style="stop-color:#93A3B7"/>
						</linearGradient>
						<path style="opacity:0.5;fill:url(#SVGID_00000039091927336138074680000008013144309815447938_);" d="M383.9,692.1
							c0,0,0.5-1.6-0.2-2.6c-0.7-1-3.2-0.5-3.5,0.2c-0.3,0.8-0.3,2.3-0.3,2.3C380.7,691.6,382.7,691.4,383.9,692.1z"/>
						
							<linearGradient id="SVGID_00000074413737537769586800000015020831122480131713_" gradientUnits="userSpaceOnUse" x1="374.6268" y1="691.8083" x2="376.9625" y2="691.8083">
							<stop  offset="1.117320e-02" style="stop-color:#A96885"/>
							<stop  offset="1" style="stop-color:#93A3B7"/>
						</linearGradient>
						<path style="opacity:0.5;fill:url(#SVGID_00000074413737537769586800000015020831122480131713_);" d="M376.9,692.7
							c0,0,0.3-0.9-0.1-1.4c-0.4-0.5-1.8-0.3-2,0.1c-0.2,0.4-0.2,1.3-0.2,1.3C375.1,692.4,376.2,692.3,376.9,692.7z"/>
						
							<linearGradient id="SVGID_00000029010141545763489620000001849129973356155299_" gradientUnits="userSpaceOnUse" x1="370.6822" y1="692.1309" x2="372.5928" y2="692.1309">
							<stop  offset="1.117320e-02" style="stop-color:#A96885"/>
							<stop  offset="1" style="stop-color:#93A3B7"/>
						</linearGradient>
						<path style="opacity:0.5;fill:url(#SVGID_00000029010141545763489620000001849129973356155299_);" d="M372.5,692.8
							c0,0,0.2-0.7-0.1-1.2c-0.3-0.4-1.5-0.2-1.6,0.1c-0.1,0.3-0.1,1.1-0.1,1.1C371.1,692.6,372,692.5,372.5,692.8z"/>
						
							<linearGradient id="SVGID_00000062152263239417773990000007011560134469755055_" gradientUnits="userSpaceOnUse" x1="368.1173" y1="692.2247" x2="369.7548" y2="692.2247">
							<stop  offset="1.117320e-02" style="stop-color:#A96885"/>
							<stop  offset="1" style="stop-color:#93A3B7"/>
						</linearGradient>
						<path style="opacity:0.5;fill:url(#SVGID_00000062152263239417773990000007011560134469755055_);" d="M369.7,692.8
							c0,0,0.2-0.6-0.1-1c-0.3-0.4-1.3-0.2-1.4,0.1s-0.1,0.9-0.1,0.9C368.4,692.6,369.2,692.6,369.7,692.8z"/>
						
							<linearGradient id="SVGID_00000132797080667844793030000017858750953158687678_" gradientUnits="userSpaceOnUse" x1="365.8866" y1="691.9752" x2="367.2765" y2="691.9752">
							<stop  offset="1.117320e-02" style="stop-color:#A96885"/>
							<stop  offset="1" style="stop-color:#93A3B7"/>
						</linearGradient>
						<path style="opacity:0.5;fill:url(#SVGID_00000132797080667844793030000017858750953158687678_);" d="M367.2,692.5
							c0,0,0.2-0.5-0.1-0.8c-0.2-0.3-1.1-0.2-1.2,0.1c-0.1,0.2-0.1,0.8-0.1,0.8C366.2,692.3,366.8,692.3,367.2,692.5z"/>
						<path class="st10" d="M370.6,693.1c0,0.7,0.5,1.1,0.5,1.1c-0.5-0.2-0.8-0.5-0.8-0.5s0-3.2,0.4-4.4c0.3-1.2,1.1-2.1,1.1-2.1
							c0,0-0.8,1.5-1,2.3C370.6,690.4,370.5,692.5,370.6,693.1z"/>
						<path class="st10" d="M374,691.4c-0.3,1.3-0.2,2.4-0.2,2.5c-0.1-0.1-0.2-0.3-0.2-0.3c0,0,0,0.1-0.1,0.1c0,0-0.1-0.1,0-1.2
							c0.1-1.1,0.4-2,0.6-2.7c0.2-0.7,0.4-1,0.8-1.8C374.4,689.5,374.3,690.1,374,691.4z"/>
						<path class="st10" d="M367.8,693.6c-0.1-0.2-0.2-0.3-0.2-0.3c-0.1,0-0.1,0-0.2,0c0-0.4,0-0.9,0.1-1.3c0.2-2.2,0.4-3.2,1.4-4.9
							c-0.9,1.8-1.1,2.8-1.1,4.9C367.7,692.6,367.7,693.1,367.8,693.6z"/>
						<path class="st10" d="M380.4,694.2c-1-0.9-1.4-2.7-1.4-2.8c0,0,0,0,0,0c-0.1-1.7,0.8-4.2,0.9-4.3c-0.4,1.5-0.7,2.7-0.6,4.3
							C379.4,693,380.4,694.2,380.4,694.2z"/>
						<path class="st10" d="M386.2,689.3c-0.1,0.2-0.2,0.2-0.2,0.2l-0.3-1.8C386.1,688.4,386.2,689.3,386.2,689.3z"/>
						
							<linearGradient id="SVGID_00000067936638417963191410000007292009232978835601_" gradientUnits="userSpaceOnUse" x1="385.9906" y1="679.8857" x2="387.085" y2="679.8857">
							<stop  offset="1.117320e-02" style="stop-color:#A96885"/>
							<stop  offset="1" style="stop-color:#93A3B7"/>
						</linearGradient>
						<path style="opacity:0.5;fill:url(#SVGID_00000067936638417963191410000007292009232978835601_);" d="M386.9,682.1v2.6
							c-0.1-1-0.7-7.6-0.9-9.7l0,0c0,0,0,0,0,0s0.6,0.7,0.9,2.7C387.3,679.7,386.9,681.7,386.9,682.1z"/>
					</g>
					
						<linearGradient id="SVGID_00000176763354732985435690000007014548514228102545_" gradientUnits="userSpaceOnUse" x1="365.1455" y1="626.1531" x2="365.1871" y2="626.2829">
						<stop  offset="0" style="stop-color:#FFB886"/>
						<stop  offset="1" style="stop-color:#FFA486"/>
					</linearGradient>
					<path style="fill:url(#SVGID_00000176763354732985435690000007014548514228102545_);" d="M365.2,626.3
						C365.2,626.3,365.2,626.2,365.2,626.3L365.2,626.3C365.2,626.2,365.2,626.2,365.2,626.3z"/>
				</g>
				<g>
					
						<linearGradient id="SVGID_00000163073780808233937420000001255319474328750270_" gradientUnits="userSpaceOnUse" x1="422.2868" y1="319.8876" x2="507.9321" y2="536.781">
						<stop  offset="0" style="stop-color:#FFEADB"/>
						<stop  offset="0.9944" style="stop-color:#B060F4"/>
					</linearGradient>
					<path style="opacity:0.6;fill:url(#SVGID_00000163073780808233937420000001255319474328750270_);" d="M430,315.4l-2.4,3.4
						l-0.5,18.5c2.2,7.8,2.4,18.1,3.2,27C430.7,350.7,431.1,327.6,430,315.4z"/>
				</g>
				<g>
					
						<linearGradient id="SVGID_00000075843730103403744410000007638642367208370063_" gradientUnits="userSpaceOnUse" x1="352.8283" y1="247.9678" x2="464.251" y2="291.2988">
						<stop  offset="0" style="stop-color:#FFEADB"/>
						<stop  offset="0.9944" style="stop-color:#B060F4"/>
					</linearGradient>
					<path style="opacity:0.6;fill:url(#SVGID_00000075843730103403744410000007638642367208370063_);" d="M398.7,273.1
						c1.9-1.5,8-5.1,22.9-6c0.4,0,0.7,0.3,0.7,0.7l0,0c0,0.4-0.3,0.7-0.7,0.7c-7.6-0.2-19.4,3.8-22.8,5
						C398.6,273.5,398.5,273.3,398.7,273.1z"/>
					
						<linearGradient id="SVGID_00000065061895421776746660000010197329623814569897_" gradientUnits="userSpaceOnUse" x1="319.4649" y1="249.1716" x2="432.2985" y2="293.0514">
						<stop  offset="0" style="stop-color:#FFEADB"/>
						<stop  offset="0.9944" style="stop-color:#B060F4"/>
					</linearGradient>
					<path style="opacity:0.6;fill:url(#SVGID_00000065061895421776746660000010197329623814569897_);" d="M385.8,273.1
						c-1.9-1.5-8-5.1-22.9-6c-0.4,0-0.7,0.3-0.7,0.7l0,0c0,0.4,0.3,0.7,0.7,0.7c7.6-0.2,19.4,3.8,22.8,5
						C385.8,273.5,385.9,273.3,385.8,273.1z"/>
				</g>
				
					<linearGradient id="SVGID_00000134958744052726946580000000554394170893746346_" gradientUnits="userSpaceOnUse" x1="353.0693" y1="299.1469" x2="355.6536" y2="299.1469">
					<stop  offset="1.117320e-02" style="stop-color:#A96885"/>
					<stop  offset="1" style="stop-color:#93A3B7"/>
				</linearGradient>
				<path style="opacity:0.5;fill:url(#SVGID_00000134958744052726946580000000554394170893746346_);" d="M353.1,306.2
					c1.2-5.2,2.2-9.4,2.5-10.4c0.2-1,0.2-3.8-0.8-3.8c-0.9,0-1.7,5.1-1.7,11.3C353.1,303.7,353.1,306.2,353.1,306.2z"/>
				
					<linearGradient id="SVGID_00000134251336557950291980000010894328613802985121_" gradientUnits="userSpaceOnUse" x1="427.6478" y1="298.9003" x2="430.2321" y2="298.9003">
					<stop  offset="1.117320e-02" style="stop-color:#A96885"/>
					<stop  offset="1" style="stop-color:#93A3B7"/>
				</linearGradient>
				<path style="opacity:0.5;fill:url(#SVGID_00000134251336557950291980000010894328613802985121_);" d="M430.2,306
					c-1.2-5.2-2.2-9.4-2.5-10.4c-0.2-1-0.2-3.8,0.8-3.8c0.9,0,1.7,5.1,1.7,11.3C430.2,303.5,430.2,305.9,430.2,306z"/>
			</g>
			<g>
				<path class="st25" d="M421.5,690.5v4.7c0,0-0.1,0.7-4.2,1.1c-1.5,0.1-3.5,0.2-6.2,0.2c-10.3,0-11.2-1.3-11.5-2.1v-4.6l0.2-0.4
					l0.4-0.7v-0.7l-1.4-1.5c0,0,0-7.3,0-11.4v-2.6c0-2,0.5-7.1,1.1-8.7l-0.4-13.7h1.1l1.1,2.5l1.3-3c0,0,6.5,0.4,10.3,1.1
					c1,0.2,1.8,0.4,2.3,0.6c0,0-1,12.4-0.7,16.1c0.3,3.6,2.1,9.7,3.2,12.9c1.1,3.3,2.9,5.8,2.9,7.1s0,2,0,2l0.2,0.4L421.5,690.5z"/>
				<path d="M400.2,683.4c0,1.2-0.1,4.7-0.1,4.7l-1.4-1.5c0,0,0-7.3,0-11.4l1.3,1.3C400,676.5,400.3,678,400.2,683.4z"/>
				<path d="M421.5,690.5v4.7c0,0-0.1,1.4-10.4,1.4s-11.2-1.3-11.5-2.1v-4.6l0.2-0.4l0.5,0.6c0,0,2.3,0.9,11.6,0.9
					c6.1,0,9-0.9,9-0.9l0.4-0.3L421.5,690.5z"/>
				<path class="st26" d="M421.5,690.5c0,0-0.7,0.3-2.1,0.5c-4.9,0.7-12.5,0.5-16.1,0.2c-3.6-0.2-3.7-1.4-3.7-1.4l0.6-1.1
					c0,1.9,2.5,1.9,11.4,1.9c8.9,0,9.4-1.2,9.4-1.2L421.5,690.5z"/>
			</g>
			<g>
				<path class="st25" d="M387.7,672.6v2.6c0,4.2,0,11.4,0,11.4l-1.4,1.5v0.7l0.4,0.7l0.2,0.4v4.6c-0.2,0.5-0.8,1.4-5,1.8
					c-1.6,0.2-3.7,0.3-6.5,0.3c-10.3,0-10.4-1.4-10.4-1.4v-4.7l0.3-0.6l0.2-0.4c0,0,0-0.7,0-2s1.8-3.8,2.9-7.1
					c1.1-3.3,2.9-9.3,3.2-12.9c0.3-3.6-0.7-16.1-0.7-16.1c2.3-1.1,12.5-1.8,12.5-1.8l0.8,1.8c0,0,0,0,0,0l0.5,1.2l1.1-2.5h1.1
					l-0.4,13.7C387.2,665.5,387.7,670.6,387.7,672.6z"/>
				<path d="M386.2,683.4c0,1.2,0.1,4.7,0.1,4.7l1.4-1.5c0,0,0-7.3,0-11.4l-1.3,1.3C386.4,676.5,386.1,678,386.2,683.4z"/>
				<path d="M365,690.5v4.7c0,0,0.1,1.4,10.4,1.4c10.3,0,11.2-1.3,11.5-2.1v-4.6l-0.2-0.4l-0.5,0.6c0,0-2.3,0.9-11.6,0.9
					c-6.1,0-9-0.9-9-0.9l-0.4-0.3L365,690.5z"/>
				<path class="st26" d="M365,690.5c0,0,0.7,0.3,2.1,0.5c4.9,0.7,12.5,0.5,16.1,0.2c3.6-0.2,3.7-1.4,3.7-1.4l-0.6-1.1
					c0,1.9-2.5,1.9-11.4,1.9c-8.9,0-9.4-1.2-9.4-1.2L365,690.5z"/>
			</g>
			<g>
				<path class="st27" d="M364.9,285.9c-0.1,1.2-0.2,2.4-0.4,3.7c0,0-0.2,1.9-0.5,3.8c-2,12.7-8.1,29.9-8.1,29.9
					c-3,8.5-7.1,19-12.4,31.1c-4.7,0.8-9.4,1.6-14.1,2.4c-3.8-4.2-7.6-8.4-11.4-12.6c16.1-42.8,21.6-58.9,22.2-62.3
					c0.1-0.4,0.9-3.4,2-7.5c1.3-4.5,4.2-8.2,8-10.4c3.4-2,7.4-3,11.6-2.5l2.1,0.3C363.9,261.7,366,273.2,364.9,285.9z"/>
			</g>
			<g>
				<g>
					<g>
						<path class="st28" d="M440.7,462.1l-1.3,2.6l-1.7-0.2c0,0,0,0,0,0C438.5,463.7,440,462.6,440.7,462.1
							C440.7,462.1,440.7,462.1,440.7,462.1z"/>
						<path class="st29" d="M440.9,462c0,0-3.2,0.4-3.2,2.1c0,0.7,0.8,0.9,0.8,0.9L440.9,462z"/>
						<path class="st30" d="M453.2,430.4c0,1.4,1.1,15.7,1.1,17.8c0,2.1-0.4,3.4-1.3,4.8c-0.9,1.5-4,8.4-4.6,9.1
							c-0.6,0.6-5.1,3.8-6.2,4.4c-1,0.6-2.6,0.7-2.6,0.7c-0.5,0.2-1.7,0.6-2.5,0.6l0,0c-0.4,0-0.6-0.1-0.7-0.3
							c-0.2-0.7,0-1.2,0.2-1.5c0.3-0.4,0.6-0.6,0.6-0.6l0,0c-0.1-0.2,0.1-0.5,0.4-0.8c0,0,0,0,0,0c0.7-0.8,2.3-1.9,3-2.4
							c0.2-0.1,0.4-0.2,0.4-0.2c0.7-1.7,2.9-3.8,2.9-3.8c0-2,1.4-5.3,1.4-5.3s-0.1-4.1-0.8-5.2c-0.4-0.6-1.1-0.7-1.6-0.8
							c-0.5,0-0.9,0-0.9,0s-1.9,2.9-2.3,5.4c-0.3,2.5-1,4.5-1.8,5.8c-0.8,1.3-3.3,0.7-3.5-0.5c-0.4-2.2,0.6-5,1.2-6.7
							c0.6-1.8,0.8-5.2,1-7.8c0.2-2.5,1.3-6.5,2.8-8.2c1.5-1.7,2.9-3.3,3.3-4.9c0.5-1.6,0.7-6.7,0.3-10l10.6-0.2
							C453.7,419.8,453.2,428.9,453.2,430.4z"/>
						<path class="st29" d="M447.4,460.1c0.3-0.8,2.2-5,2.9-6.6l-2.6,6.7c0,0-4.4,4.9-4.7,5.1c-0.3,0.3-2.6,1-3,1.3
							c-0.5,0.3-1.7,0.5-2.1,0.5c-0.4,0-1.1-1.2-1.1-1.2l0,0c0.3-0.4,0.6-0.6,0.6-0.6c-0.3,0.2,0.1,1.1,0.5,1.4
							c0.3,0.2,1.4,0.1,1.9-0.3c0.5-0.3,2.8-0.9,3.1-1.3C443,464.7,447.2,460.6,447.4,460.1z"/>
						<path class="st28" d="M450.5,453c0,0.1-0.1,0.3-0.2,0.5L450.5,453z"/>
						<path class="st29" d="M443.9,443.8l-1,3.1c-0.5,0-0.9,0-0.9,0L443.9,443.8z"/>
					</g>
				</g>
				<path class="st27" d="M423,329.5c0.8,13,1.6,24.1,1.6,24.1l0.2,0.7c0,0,0,0,0,0c0.2,1.7,0.3,3.3,0.5,5l1.3,5.6
					c7.6,39.3,11.2,66.8,11.2,66.8c1.1,0.4,2.2,0.7,3.2,1c11.9,3.3,14.8-2.2,14.8-2.2c-1.3-43-3.9-68.9-3.9-68.9
					c-0.8-6.5-1.3-12-1.7-15.7c-2.7-28.8-3.8-43.2-3.2-51.8c0.2-3.5,0.1-8.1-0.3-12.5c-0.7-8.6-7.5-15.4-16.1-16.1l-2.5-0.2
					c0,0-5.1,13.1-6.2,27.2C421.5,299.8,422.2,315.7,423,329.5z"/>
			</g>
			<g>
				<path class="st27" d="M444.6,668.4c-0.1,0-0.1,0-0.2,0.1c-0.7,0.3-1.9,0.5-3.5,0.6c-2.5,0.3-5.7,0.5-9,0.6c0,0.7,2.8,5-39.2,5.7
					c-14,0.2-28.8-0.2-39.5-1.4c-1.1-0.1-2.3-0.6-3.4-1.3c-1.7-1-3.2-2.4-3.6-3.4c-4.3-0.7-7.4-1.6-9-2.5
					c-0.3-66,2.3-203.5,5.5-238.8c1.2-12.5,4.1-24.9,10-39.5c1.4-7.5,2.6-16,3.1-25.4c0.7-10.8,0.5-20.7-0.2-29.3
					c-2.1-5.6-4.3-13.8-3.2-23.4c0.6-6,2.2-9.6,3.6-14.4c2.2-7.4,4.2-18.3,2.9-32.9l2.9-1.2c0,0,58.2,7.8,59.3-0.7
					c0.3,0,3.1,1.2,3.1,1.2c-1,15.1,1,26.8,3.3,35.1l0,0c0.7,2.3,3.3,11.2,3.6,17.5c0.1,2.9-0.2,9.2-4.7,17.2
					c-3.3,20-2.9,28.6-1.7,32.6c0.1,0.4,1.8,5.8,3.5,11.2c0.9,2.8,1.3,4.2,1.3,4.4c0.7,2.3,1.3,4.2,1.6,5.4c0.2,0.7,0.4,1.2,0.4,1.2
					c6.7,16.5,9.5,26.9,10.3,42.7C443.3,460.6,444.9,651,444.6,668.4z"/>
			</g>
			<g>
				<g>
					<g>
						<path class="st30" d="M416.3,213.4c-0.8,4.8-4.7,20.5-6.9,24.2c-1.2,2-5.2,5.8-8.9,8.8c-2.4,1.9-4.6,3.5-5.7,3.8
							c-2,0.6-3.3,0.6-5.5,0c-2.8-0.8-12.7-9.2-14.6-12.5c-2.1-3.7-6.1-19.6-6.9-24.2c-0.6-3.5-0.3-9.9,1.4-15.4
							c0-0.1,0.1-0.2,0.1-0.4c0.8-2.5,1.9-4.9,3.3-7.1c0,0,0.1-0.1,0.1-0.1c4.6-6.9,12.7-9.7,20.5-9.4c2.5,0.1,5,0.5,7.3,1.3
							c9.7,3,15.3,13.7,16,24.2C416.7,208.8,416.6,211.2,416.3,213.4z"/>
						<g>
							<path class="st31" d="M395.5,228.6c0,0-1.1,2.1-3.4,2.1c-2.3,0-3.4-2-3.4-2c0.6,0.3,1.8,0.7,3.2,0.7
								C393.5,229.4,394.8,228.9,395.5,228.6z"/>
						</g>
					</g>
				</g>
				<g>
					<path class="st32" d="M433,261.4c-1.4-2.1-4.1-6.5-4.1-6.5c-1.3-3.5-7-4.1-7-4.1c0-0.9-0.4-2.1-1.1-3.1v0
						c-0.2-0.3-0.4-0.6-0.7-0.8c-0.6-0.6-1.9-1.2-3.1-1.8c-1.2-0.6-2.2-1.1-2.2-1.5c0-0.7-0.1-2,0-2.2c2.4-5.4,2.8-8.6,4-23
						c1.2-14.4-1.8-27.2-8.9-34.2c-8.8-8.7-18.3-9.6-30.5-4.2c-12.2,5.4-13.6,22.5-13.6,22.5c-1.6,3.9-1.8,28.3,7.1,40.7l0.1,2.1
						c-0.3,0.2-0.5,0.4-0.8,0.6c-3.1,2.9-6.4,8.9-6.4,8.9s-1.2,0.3-3.6,1.2c-1.6,0.5-3.8,1.3-6.6,2.3c-4.2,1.5-6.1,4.8-7,7.1
						c0,0,0,0,0,0c-0.5,1.2,0,2.6,1.2,3.2c3.3,1.9,6.9,5.9,10.9,11.1c6.1,7.9,18.4,21.9,36.6,21.9c16.8,0,22.7-9.8,34-25.7
						c3.4-4.8,3.9-6.8,6-9.2C437,265,435.4,265.1,433,261.4z M408.4,237c-2.1,4-10.9,10.2-12.8,11.5c-2,1.5-5,1.1-5.9,1
						c-3.6-0.5-14.1-11.1-14.8-12.3c-0.7-1.2-1.8-4.5-2.8-8.1c0,0,0,0,0,0v0c0,0,0-0.1,0-0.1c-0.5-2-1-4-1.4-5.8c0,0,0,0,0-0.1
						c-0.2-1.1-0.4-2.1-0.5-3c-0.6-6.2-2-10.8,2-19c4-8.2,12.6-12.3,19.4-12.3c11.3,0,21.1,12.3,21.5,26.3c0.1,1.9-0.7,7-1.7,11.9
						C410.5,231.1,409.4,235.1,408.4,237z"/>
					<path class="st33" d="M372.1,228.9c0,0,0,0.1,0,0.1v0C372.1,229,372.1,228.9,372.1,228.9z"/>
					<path class="st27" d="M411.4,227c-0.4,1.5,2.6-6.4,1.7-11.9c-1.4-8.8-8.6-21.2-21.2-21.8c-11.8-0.6-21.7,9.3-22.2,15.8
						c-0.2,2.2,0.3,8.4,0.6,11c0.1,0.9,0.2,1.9,0.5,3c-7.3-36.1,13.7-41,20.1-41C405.5,182,419.4,199.5,411.4,227z"/>
					<g>
						<g>
							<path class="st34" d="M372.1,245.8c0.3-0.2,0.5-0.5,0.8-0.6l-0.1-2.1c0,0,5.7,6.3,11.8,8.3
								C384.4,251.4,377.2,250.5,372.1,245.8z"/>
							<path class="st34" d="M372.2,249.7c0,0,2.5,6.4,8.8,11.7C378.5,260.7,371.5,255.2,372.2,249.7z"/>
							<path class="st34" d="M377.1,273.9c0,0,17.6-0.8,30-12.5C403.7,266.9,397,275.8,377.1,273.9z"/>
							<path class="st34" d="M414,230c0,0-3.1,12.7-16.9,24.2C402,251.7,414,242.5,414,230z"/>
							<path class="st34" d="M373.1,285.2c0,0,11.5,10.3,24.9,11.2c13.4,0.9,19.2-10.5,19.2-10.5s-4.3,12.6-16,12.6
								C389.5,298.5,383.5,293.9,373.1,285.2z"/>
						</g>
					</g>
				</g>
			</g>
		</g>
		<g>
			<polygon class="st35" points="400.6,233.4 394.4,234.4 383.3,233.4 386.5,236.6 391.4,238.2 396.6,236.4 			"/>
			<path class="st36" d="M384.7,233.9v1.2c6,2.7,9.5,3,14,0.4V234L384.7,233.9z"/>
			<path class="st37" d="M383.3,233.4c0,0,3.5,6,8.4,6s8.9-6,8.9-6s-4.7,3.4-8.6,3.4C388,236.8,383.3,233.4,383.3,233.4z"/>
			<path class="st37" d="M396.1,232.9c-0.8-0.1-1.7-0.2-2.7,0.1c-0.7,0.2-1.1,0.5-1.5,0.7c-0.3-0.3-0.8-0.7-1.4-0.9
				c-1-0.3-1.8-0.1-2.2,0c-1,0.3-2.6,0.5-5,0.5c2.7,1.1,5,1.4,8.6,1.5c3.7,0,6-0.4,8.6-1.5C398.6,233.2,397.2,233,396.1,232.9z"/>
		</g>
		<g>
			<g>
				<path class="st38" d="M385.7,217.2c-0.4,0.3-2.5,1.9-5.4,1.7c-3.2-0.3-5-2.6-5.3-2.9c0.4-0.4,1-1.1,2-1.6
					c0.5-0.3,2.2-1.1,4.4-0.6C384.2,214.4,385.5,216.9,385.7,217.2z"/>
				<path class="st39" d="M377.7,215.9c-0.1,1.5,1,2.7,2.4,2.8c1.4,0.1,2.7-1,2.8-2.5c0.1-1.5-1-2.7-2.4-2.8
					C379.1,213.4,377.8,214.5,377.7,215.9z"/>
				<path d="M379,216.4c0,0.7,0.5,1.4,1.2,1.4c0.7,0,1.4-0.5,1.4-1.3c0.1-0.7-0.5-1.4-1.2-1.4C379.7,215.1,379.1,215.6,379,216.4z"
					/>
				<path class="st38" d="M378.7,215.7c0,0.3,0.2,0.6,0.6,0.7c0.3,0,0.6-0.2,0.7-0.6c0-0.3-0.2-0.6-0.6-0.7
					C379,215.1,378.7,215.3,378.7,215.7z"/>
				<path d="M385.7,217.2c-0.1-0.5-0.5-1.9-1.9-3.1c-1.4-1.1-2.9-1.1-3.6-1.2c-2.7-0.1-4.7,1.4-5.4,1.9c-0.5-0.1-1-0.1-1.5-0.2
					c0.5,0.4,1.1,0.8,1.6,1.2c0.2-0.2,2.9-2.7,6.4-1.9C384,214.7,385.4,216.8,385.7,217.2z"/>
				<g>
					<path d="M380.3,208.1c-7.5-1-7.8,4.9-7.8,4.9c3.2-6.1,9.2-1.3,13.3-1.4C388.6,211.5,388.8,209.3,380.3,208.1z"/>
				</g>
			</g>
			<g>
				<path class="st38" d="M397.2,216.7c0.4,0.3,2.5,1.9,5.4,1.7c3.2-0.3,5-2.6,5.3-2.9c-0.4-0.4-1-1.1-2-1.6
					c-0.5-0.3-2.2-1.1-4.4-0.6C398.7,213.9,397.4,216.4,397.2,216.7z"/>
				<path class="st39" d="M405.1,215.5c0.1,1.5-1,2.7-2.4,2.8c-1.4,0.1-2.7-1-2.8-2.5c-0.1-1.5,1-2.7,2.4-2.8
					C403.8,212.9,405,214,405.1,215.5z"/>
				<path d="M403.8,215.9c0,0.7-0.5,1.3-1.2,1.3c-0.7,0-1.3-0.5-1.3-1.2c-0.1-0.7,0.5-1.3,1.2-1.4
					C403.1,214.7,403.7,215.2,403.8,215.9z"/>
				<path class="st38" d="M404,214.9c0,0.3-0.2,0.6-0.6,0.7c-0.3,0-0.6-0.2-0.7-0.6c0-0.3,0.2-0.6,0.6-0.7
					C403.7,214.3,404,214.5,404,214.9z"/>
				<path d="M397.2,216.7c0.1-0.5,0.5-1.9,1.9-3.1c1.4-1.1,2.9-1.1,3.6-1.2c2.8-0.1,4.7,1.6,5.2,2.1c0.5-0.1,1-0.1,1.5-0.2
					c-0.5,0.4-1,0.7-1.4,1.1c-0.2-0.2-2.9-2.7-6.4-1.9C398.8,214.2,397.5,216.3,397.2,216.7z"/>
				<g>
					<path d="M402.6,207.6c7.5-1,7.8,4.9,7.8,4.9c-3.2-6.1-9.2-1.3-13.3-1.4C394.3,211,394,208.8,402.6,207.6z"/>
				</g>
			</g>
		</g>
	</g>
	<g>
		<polygon class="st40" points="477.7,707.5 477.4,707.7 471.5,713.3 465.3,706.4 460.8,701.4 456.4,696.6 456.4,696.6 377.4,608.9 
			371.7,602.5 255.9,474.1 262.1,468.3 377.4,596.2 383.1,602.5 467.8,696.6 472.2,701.4 476.7,706.4 477.4,707.2 		"/>
		<polygon class="st41" points="378.7,597.6 386,605.7 380.3,612.1 373,604 378.7,597.6 		"/>
		<polygon class="st40" points="498.8,474.1 383.1,602.5 377.4,608.9 298.3,696.6 298.3,696.6 294,701.4 289.5,706.4 283.2,713.3 
			277.4,707.8 277.1,707.5 277.4,707.1 278.1,706.4 282.6,701.4 286.9,696.6 371.7,602.5 377.4,596.2 492.7,468.3 		"/>
		<polygon class="st41" points="298.3,696.6 294,701.4 289.5,706.4 278.1,706.4 282.6,701.4 286.9,696.6 		"/>
		<polygon class="st41" points="476.7,706.4 465.3,706.4 460.8,701.4 456.4,696.6 467.8,696.6 472.2,701.4 		"/>
		<polygon class="st41" points="223.2,470.5 530,470.5 530,478.8 223.2,478.8 223.2,470.5 		"/>
		<path class="st42" d="M212.7,456.7h328.1c3.6,0,6.5,2.9,6.5,6.5v3.9c0,3.6-2.9,6.5-6.5,6.5H212.7c-3.6,0-6.5-2.9-6.5-6.5v-3.9
			C206.2,459.7,209.1,456.7,212.7,456.7L212.7,456.7z"/>
		<polygon class="st43" points="486.2,456.7 515,456.7 515,473.7 489.6,473.7 486.2,456.7 		"/>
		<polygon class="st43" points="472.7,456.7 481.6,456.7 481.6,473.7 470.9,473.7 472.7,456.7 		"/>
		<polygon class="st43" points="454.2,456.7 465.9,456.7 465.9,473.7 456,473.7 454.2,456.7 		"/>
		<polygon class="st43" points="437.4,456.7 446.3,456.7 446.3,473.7 435.5,473.7 437.4,456.7 		"/>
		<polygon class="st43" points="341.7,456.7 354.1,456.7 357.4,473.7 341.5,473.7 341.7,456.7 		"/>
		<polygon class="st43" points="368.4,456.7 381.8,456.7 379.7,473.7 368.4,473.7 368.4,456.7 		"/>
		<polygon class="st43" points="388.1,456.7 400.6,456.7 402.7,473.7 388.1,473.7 388.1,456.7 		"/>
		<polygon class="st43" points="412.7,456.7 426.1,456.7 424,473.7 412.7,473.7 412.7,456.7 		"/>
		<polygon class="st43" points="242.3,456.7 258.7,456.7 255.4,473.7 242.4,473.7 242.3,456.7 		"/>
		<polygon class="st43" points="269.2,456.7 280.2,456.7 282.3,473.7 269.2,473.7 269.2,456.7 		"/>
		<polygon class="st43" points="288.9,456.7 303.8,456.7 301.7,473.7 288.9,473.7 288.9,456.7 		"/>
		<polygon class="st43" points="313.5,456.7 324.5,456.7 326.6,473.7 313.5,473.7 313.5,456.7 		"/>
		<polygon class="st44" points="477.4,707.2 477.4,707.7 471.5,713.3 465.3,706.4 460.8,701.4 472.2,701.4 476.7,706.4 		"/>
		<polygon class="st44" points="294,701.4 289.5,706.4 283.2,713.3 277.4,707.8 277.4,707.1 278.1,706.4 282.6,701.4 		"/>
		<path class="st44" d="M377.2,599.4c1.4,0,2.5,1.2,2.5,2.8c0,1.5-1.1,2.8-2.5,2.8c-1.4,0-2.5-1.2-2.5-2.8
			C374.7,600.7,375.8,599.4,377.2,599.4L377.2,599.4z"/>
		<g>
			<path class="st44" d="M377.8,418.1c-0.8,0.7-0.8,2.3-0.6,3.5c0.2,1.2,0.6,1.9,1.6,2.3c1,0.4,2.6,0.5,3.9,0.6
				c1.3,0.1,2.5,0.1,3.1-0.1c0.7-0.2,0.9-0.5,0.9-1.3c0-0.8-0.4-2-1.3-3c-0.9-0.9-2.4-1.6-3.9-2C380,417.6,378.5,417.4,377.8,418.1
				L377.8,418.1z"/>
			<path class="st44" d="M366.9,438.2c0.9-0.5,1-1.4,1-2.1c0-0.7-0.2-1.2-1-1.5c-0.8-0.3-2.2-0.5-3.9-0.7c-1.7-0.1-3.7-0.3-5.1-0.3
				c-1.4,0-2.4,0.1-3,0.3c-0.6,0.2-0.9,0.4-1,1c-0.1,0.7-0.1,1.7-0.1,2.4c0.1,0.7,0.3,0.9,1.7,1.1c1.4,0.2,4.2,0.2,6.4,0.3
				C364.2,438.7,366,438.7,366.9,438.2L366.9,438.2z"/>
			<polygon class="st41" points="404.7,452.5 336,452.4 336,455.3 404.7,455.4 404.7,452.5 			"/>
			<path class="st45" d="M334.4,452.5c-0.1-0.3-0.1-0.8-0.4-1.4c-0.2-0.6-0.7-1.4-1.4-2.3c-0.7-0.9-1.8-1.8-2.9-2.7
				c-1.1-0.8-2.3-1.6-3.2-2c-0.9-0.4-1.4-0.5-1.7-0.5c-0.3-0.1-0.3-0.2-0.3-5.7s-0.2-16.4-0.2-21.9s0-5.4,0.1-5.7c0-0.3,0-1,0-1.8
				c1.8,0,3.5-0.1,5.3-0.1c0.3,0.7,0.6,1.4,1,2.2c4.3,0.1,8.5,0.1,13.4,0.5c4.9,0.3,10.3,0.9,15.4,1.8c5.1,0.9,9.8,2.2,14.5,4.2
				c4.7,2,9.4,4.7,13.2,7.5c3.8,2.9,6.7,5.9,9.4,9.6c2.7,3.7,5.4,8.1,7,11.4c1.7,3.3,2.5,5.4,2.8,6.5c0.3,1.1,0.2,1.1-11.8,1
				c-12-0.1-36-0.3-48-0.3C334.5,452.8,334.5,452.8,334.4,452.5L334.4,452.5z M338.7,422c-0.8,0.9-1.2,1.9-1.4,3
				c-0.2,1.1-0.1,2.3,0.3,3.5c0.4,1.2,1.2,2.5,2.4,3.5c1.2,1.1,2.8,2,5,2.7c2.2,0.7,4.9,1.3,7.5,1.7c2.6,0.4,5,0.7,7.6,0.8
				c2.6,0.2,5.2,0.2,7.4,0c2.2-0.2,3.8-0.5,5-1.2c1.2-0.7,1.9-1.6,1.9-3.2c0-1.6-0.8-3.9-2.4-5.9c-1.7-1.9-4.3-3.5-7.8-4.6
				c-3.5-1.1-7.8-1.9-11.7-2.3s-7.1-0.4-9.4-0.1C340.8,420.4,339.5,421.1,338.7,422L338.7,422z"/>
			<path class="st46" d="M374.3,432.4c1.5,0.7,2.6,1.4,4,1.9c1.6,0.6,3.7,1.1,6.2,1.6c2.5,0.5,5.5,0.9,8,1.8
				c2.4,0.9,4.3,2.2,5.3,3.6c1,1.4,1,2.8,0.5,4c-0.4,1.2-1.4,2.1-4.3,2.7s-7.8,0.8-13.5,0.8c-5.8,0-12.4-0.3-18.9-1
				c-6.5-0.7-12.7-1.7-18.2-2.9c-5.5-1.2-10.2-2.7-12.9-3.6c-2.6-0.9-3.2-1.2-3.5-1.4c-0.3-0.2-0.3-0.3-0.4-2.2c0-1.9,0-5.6,0.3-7.5
				c0.3-1.9,0.9-1.9,2.4-1.9c1.5-0.1,3.9-0.2,5.7-0.3c0.8,0,1.5-0.1,2.3-0.1c0.1,0.2,0.1,0.4,0.2,0.6c0.4,1.2,1.2,2.5,2.4,3.5
				c1.2,1.1,2.8,2,5,2.7c2.2,0.7,4.9,1.3,7.5,1.7c2.6,0.4,5,0.7,7.6,0.8c2.6,0.2,5.2,0.2,7.4,0c2.2-0.2,3.8-0.5,5-1.2
				c1.2-0.7,1.9-1.6,1.9-3.2C374.3,432.8,374.3,432.6,374.3,432.4L374.3,432.4z"/>
			<polygon class="st47" points="409,454.6 333,454.4 333,456.6 409,456.7 409,454.6 			"/>
		</g>
		<g>
			<path class="st46" d="M426.9,447.1h94c2,0,3.6,1.6,3.6,3.6v2.1c0,2-1.6,3.6-3.6,3.6h-94c-2,0-3.6-1.6-3.6-3.6v-2.1
				C423.3,448.7,424.9,447.1,426.9,447.1L426.9,447.1z"/>
			<path class="st48" d="M426.9,437.8h105c2,0,3.6,1.6,3.6,3.6v2.1c0,2-1.6,3.6-3.6,3.6h-105c-2,0-3.6-1.6-3.6-3.6v-2.1
				C423.3,439.4,424.9,437.8,426.9,437.8L426.9,437.8z"/>
			<path class="st49" d="M426.9,428.6h96.5c2,0,3.6,1.6,3.6,3.6v2.1c0,2-1.6,3.6-3.6,3.6h-96.5c-2,0-3.6-1.6-3.6-3.6v-2.1
				C423.3,430.2,424.9,428.6,426.9,428.6L426.9,428.6z"/>
			<path class="st50" d="M423.5,419.4H520c2,0,3.6,1.6,3.6,3.6v2.1c0,2-1.6,3.6-3.6,3.6h-96.5c-2,0-3.6-1.6-3.6-3.6v-2.1
				C419.9,421,421.5,419.4,423.5,419.4L423.5,419.4z"/>
			<path class="st51" d="M454.4,417.7l65.4-0.2c4.7,0,6,8.1,0.8,9.9c-0.5,0.2-1,0.5-1.2,1.2c-0.9,2.4,1,4.7-0.2,7.2
				c-0.2,0.4-2,1.2-2.3,1.8c-0.9,2-0.1,7.3-3.1,7.6c-1,0.1-1.6,0.6-1.8,1.1c-0.3,0.7-0.6,1.3-0.8,1.9c-0.3,0.9,2.2,3.9-4.7,3.2
				c-3.5-0.3-7.6-2.2-9.1-6.1c-0.9-2.3-0.9-10.9-3.3-13.9c-5.9-7.4-26.3-8.6-36.4-10.3c-2.9-0.5-5.6-1-7.3-1.4
				c-2.3-0.7-3.8-3.5-1.3-3.8C450,415.6,452.4,417.7,454.4,417.7L454.4,417.7z"/>
			<path class="st51" d="M450.8,412.1h67.8c1.8,0,3.2,1.5,3.2,3.2v1.8c0,1.8-1.5,3.2-3.2,3.2h-67.8c-1.8,0-3.2-1.5-3.2-3.2v-1.8
				C447.6,413.6,449.1,412.1,450.8,412.1L450.8,412.1z"/>
		</g>
	</g>
	<path class="st52" d="M362.5,422.7c0,0-2.3,3.9-5.8,1.2c0,0-2.5,1.8-5.1,0.4c-0.1,0-0.2-0.1-0.3-0.2c0,0-0.1,0.1-0.3,0.2
		c-0.7,0.3-2.2,0.9-4.1,0c-0.1-0.1-0.2-0.1-0.4-0.2c0,0-0.1,0.1-0.3,0.1c-0.5,0.2-1.6,0.3-2.8-1c-2.5-2.9-4.5-7.2-4-10.7
		c0-0.1,0.1-0.6,0.1-1.3c0,0,0-0.9-0.1-1.8c-0.3-1.7-1-3.2-1.2-3.6c-0.9-1.8-1.9-3.9-3.1-6.3c1.2-0.1,2.5-0.4,4-0.9
		c3.4-1.1,5.7-3.1,7-4.4c0.7,1.9,1.8,4.3,3.5,6.8c1.1,1.6,2.2,2.9,3.2,4l4.9,3l-0.9,1l3.1,3.8C360,412.7,357.2,419.2,362.5,422.7z"
		/>
	<path class="st52" d="M359.9,413.1c-1.5-2-2.9-3.9-4.4-5.9c1.5,0.3,3.6,1,5.9,2.4c2.7,1.7,4.4,3.7,5.4,5c-0.5-0.1-1-0.3-1.5-0.4
		C363.4,413.9,361.7,413.5,359.9,413.1z"/>
	<g>
		<g>
			<path class="st53" d="M356.7,424.2C356.7,424.2,356.7,424.2,356.7,424.2c0,0-0.1,0-0.2-0.1c0,0-0.1,0-0.1-0.1
				c-1.8-2.2-2.1-6-2.1-6c-0.2-1.7-0.1-2.1,0-2.1c0.1,0,0.3,0.3,0.8,2c0,0,0.5,4.3,1.9,5.6c0,0,0,0,0,0
				C357.1,423.8,356.8,424.2,356.7,424.2z"/>
		</g>
		<g>
			<path class="st53" d="M351.6,423.9c0,0.1,0,0.2,0,0.3c-0.1,0-0.2-0.1-0.3-0.2c0,0-0.1,0.1-0.3,0.2c-2.3-4.1-2.1-6.9-2.1-6.9
				c0.1-1,0.2-2.1,0.3-2.1c0.1,0,0.1,0.9,0.4,2.1C350.1,419.4,351.6,423.7,351.6,423.9z"/>
		</g>
		<g>
			<path class="st53" d="M346.9,424.3c-0.1-0.1-0.2-0.1-0.4-0.2c0,0-0.1,0.1-0.3,0.1c-1.9-3.7-1.6-6.2-1.6-6.2
				c0.1-1,0.3-2.1,0.5-2.1c0.2,0,0.2,1.2,0.3,2.1C345.5,419.5,345.8,421.7,346.9,424.3z"/>
		</g>
	</g>
	<path class="st27" d="M352.4,402.3c-1.6,1.6-4.1,3.7-7.5,5.3c-2.6,1.3-5,1.8-6.9,2.1c-2.3-5.1-4.5-10.5-6.6-16.1
		c-5.3-13.7-9.5-26.9-12.9-39.3c-1.9-6.5-0.6-13.1,3.1-16.5c4.8-4.4,11.4-1.4,11.8-1.3c5.3,2.5,8.2,8.8,12.2,25.7
		C347.9,372.3,350.6,385.8,352.4,402.3z"/>
</g>
</svg>
