<?xml version="1.0" encoding="utf-8"?>
<!-- Generator: Adobe Illustrator 26.0.1, SVG Export Plug-In . SVG Version: 6.00 Build 0)  -->
<svg version="1.1" id="Layer_1" xmlns="http://www.w3.org/2000/svg" xmlns:xlink="http://www.w3.org/1999/xlink" x="0px" y="0px"
	 viewBox="0 0 465 468" style="enable-background:new 0 0 465 468;" xml:space="preserve">
<style type="text/css">
	.st0{clip-path:url(#SVGID_00000155120543177199690340000004513465283867308975_);}
	.st1{fill:#A5E0DC;}
	.st2{clip-path:url(#SVGID_00000155120543177199690340000004513465283867308975_);fill:#81CCC6;}
	.st3{clip-path:url(#SVGID_00000155120543177199690340000004513465283867308975_);fill:#00747D;}
	.st4{fill:#81CCC6;}
	.st5{fill:#004F61;}
	.st6{fill:#00626F;}
	.st7{fill:none;stroke:#003D74;stroke-miterlimit:10;}
	.st8{fill:#639DDD;}
	.st9{fill:#003D73;}
	.st10{fill:none;stroke:#003D73;stroke-width:2;stroke-miterlimit:10;}
	.st11{fill:#890804;}
	.st12{fill:#CC936D;}
	.st13{fill:#101010;}
	.st14{fill:#C6C6C6;}
	.st15{fill:#FFFFFF;}
	.st16{fill:#AF7151;}
	.st17{fill:#513328;}
	.st18{fill:#C48C66;}
	.st19{fill:#AF1919;}
</style>
<g>
	<g>
		<g>
			<defs>
				<path id="SVGID_1_" d="M49.6,322.5c8.4-8.8,24.7-16.3,32-36.9c1.6-4.6,3.2-9.1,2.7-15c-2-23.9-35.5-38.7-50.3-55.6
					c-8.8-10.6-12.7-27.6-3-37.4c8.3-8.3,21.9-7.2,32.8-11.5c19.6-7.8,27-31.7,28.2-52.7c-1.7-43.7,6.8-92.8,61.1-90.3
					c18.6,2,34.7,13.5,52.6,18.7c35,10.1,74.2-4.7,108.3,9.9c16.8,7.2,31,23.4,30.3,41.7c-0.7,18.8-16.4,36.1-11.6,54.3
					c13.2,37.7,66.6,21.2,89.8,48.7c39.1,47-40.6,57.8,5.4,108.5c3.1,5.4,24.5,61.4,1.8,100.3c-24.4,41.7-92.6,42.8-113.4,38.1
					c-7.7-1.7-17.4-4.4-17.4-4.4c-10.9-3-19.4-6-36-11.1c0,0-10.6-3.4-30.4-9c-48.5-13.9-135.2,39.1-164,1.3
					C48.1,393.4,28.4,344.8,49.6,322.5z"/>
			</defs>
			<clipPath id="SVGID_00000076566997108522100550000008460416563196299138_">
				<use xlink:href="#SVGID_1_"  style="overflow:visible;"/>
			</clipPath>
			<g style="clip-path:url(#SVGID_00000076566997108522100550000008460416563196299138_);">
				<path class="st1" d="M49.6,322.5c8.4-8.8,24.7-16.3,32-36.9c1.6-4.6,3.2-9.1,2.7-15c-2-23.9-35.5-38.7-50.3-55.6
					c-8.8-10.6-12.7-27.6-3-37.4c8.3-8.3,21.9-7.2,32.8-11.5c19.6-7.8,27-31.7,28.2-52.7c-1.7-43.7,6.8-92.8,61.1-90.3
					c18.6,2,34.7,13.5,52.6,18.7c35,10.1,74.2-4.7,108.3,9.9c16.8,7.2,31,23.4,30.3,41.7c-0.7,18.8-16.4,36.1-11.6,54.3
					c13.2,37.7,66.6,21.2,89.8,48.7c39.1,47-40.6,57.8,5.4,108.5c3.1,5.4,24.5,61.4,1.8,100.3c-24.4,41.7-92.6,42.8-113.4,38.1
					c-7.7-1.7-17.4-4.4-17.4-4.4c-10.9-3-19.4-6-36-11.1c0,0-10.6-3.4-30.4-9c-48.5-13.9-135.2,39.1-164,1.3
					C48.1,393.4,28.4,344.8,49.6,322.5z"/>
			</g>
			<path style="clip-path:url(#SVGID_00000076566997108522100550000008460416563196299138_);fill:#81CCC6;" d="M109,312.7v-85.5h29
				v-27.8h19.6v-52.6h5.3v-1.7c2.1-9.6,4.1-19.2,6.2-28.8c2,9.6,4,19.2,6,28.8c0,0.6,0,1.2,0,1.8h5.4v71.6h6.6v-23.2h18.8v55.8h13.4
				v-84.5h41.3v71.4H274V112.2h56.1v152.2h6.3v-37c6.5-11.4,13.1-22.7,19.6-34.1c7.3,11.4,14.7,22.7,22,34.1c0,29,0,58,0,87h8.8
				v-31.5h23.5V150.5h45.8v157.3v168.6H39.2V208.5h31.1v67.3h7.1v-34.4c1.8-1.4,3.6-2.9,5.4-4.3c2.8-7.4,5.6-14.8,8.3-22.2
				c2.6,7.2,5.2,14.4,7.8,21.6c1.7,1.6,3.3,3.2,5,4.9c0,23.9,0,47.8,0,71.8L109,312.7z"/>
			<polygon style="clip-path:url(#SVGID_00000076566997108522100550000008460416563196299138_);fill:#00747D;" points="86.8,417.3 
				86.8,331.8 115.8,331.8 115.8,304.1 135.4,304.1 135.4,251.5 158.3,251.5 158.3,323.1 164.9,323.1 164.9,300 183.6,300 
				183.6,355.8 197,355.8 197,271.3 238.4,271.3 238.4,342.7 251.9,342.7 251.9,216.8 308,216.8 308,369 314.3,369 314.3,332 
				355.9,332 355.9,419.1 364.8,419.1 364.8,387.5 388.3,387.5 388.3,255.1 434.1,255.1 434.1,412.3 434.1,445.1 17,445.1 17,313.1 
				48.1,313.1 48.1,380.4 55.3,380.4 55.3,263.5 81.8,263.5 81.8,417.8 			"/>
			<g style="clip-path:url(#SVGID_00000076566997108522100550000008460416563196299138_);">
				<path class="st4" d="M123.2,331.8C123.2,331.8,123.2,331.8,123.2,331.8c-3.5,1.6-7.4,3.4-10.8,4.9c-0.4,0-1.2,0.2-1.8,0.3
					c0,0,0.1-0.1,0.1-0.1c-9.7,0.7-19.4,1.4-29.1,2.1c-9.1,0.7-18.2,1.3-27.3,2c2,1.8,3.9,3.6,5.9,5.3c-0.2,0-0.4,0.1-0.6,0.1
					c-8.5,2-16.9,4-25.4,5.9c0.1-10.3,0.2-20.6,0.3-30.9c2.8,1.2,6.9,2.9,12.2,4.2c5.8,1.4,9.9,1.6,25.5,2.2
					c9.8,0.4,15.1,0.5,20.1,0.7c9.1,0.4,16.5,0.8,21.2,1C116.8,330.3,120,331,123.2,331.8z"/>
				<g>
					<path class="st5" d="M359,331.9c2.2,3.2,4.4,6.4,6.6,9.6c8.5,6.3,16.9,12.6,25.4,18.9c-6.5-7.8-13.1-15.6-19.6-23.4
						c-0.6-0.1-1.3-0.2-1.8-0.3C366.3,335.2,362.4,333.4,359,331.9z"/>
					<path class="st4" d="M358.9,331.8C359,331.8,359,331.8,358.9,331.8c3.5,1.6,7.4,3.4,10.8,4.9c0.4,0,1.2,0.2,1.8,0.3
						c0,0-0.1-0.1-0.1-0.1c9.7,0.7,19.4,1.4,29.1,2.1c9.1,0.7,18.2,1.3,27.3,2c-2,1.8-3.9,3.6-5.9,5.3c0.2,0,0.4,0.1,0.6,0.1
						c8.5,2,16.9,4,25.4,5.9c-0.1-10.3-0.2-20.6-0.3-30.9c-2.8,1.2-6.9,2.9-12.2,4.2c-5.8,1.4-9.9,1.6-25.5,2.2
						c-9.8,0.4-15.1,0.5-20.1,0.7c-9.1,0.4-16.5,0.8-21.2,1C365.3,330.3,362.1,331,358.9,331.8z"/>
					<path class="st6" d="M371.3,336.8c6.6,7.8,13.1,15.7,19.7,23.5c2.2,1.6,4.4,3.3,6.6,4.9c4.4,12.1,8.7,24.1,13.1,36.2
						c-1.1-15.3-2.2-30.7-3.3-46c-2.3-5.5-4.6-11-6.9-16.5C390.8,338.2,381.1,337.5,371.3,336.8z"/>
					<path class="st5" d="M410.7,401.4c0.5,1.4,1,2.8,1.5,4.2c-0.8,7.1-1.5,14.3-2.3,21.4h30.3c-1-19.3-2.1-38.7-3.1-58
						c-4.9-7.5-9.8-15.1-14.6-22.6c-0.2,0-0.4-0.1-0.6-0.1c1.9-1.8,3.9-3.5,5.9-5.3c-9.1-0.7-18.2-1.3-27.3-2
						c2.3,5.5,4.6,11,6.9,16.5C408.5,370.8,409.6,386.1,410.7,401.4z"/>
					<path class="st6" d="M422.5,346.4c4.9,7.5,9.8,15.1,14.6,22.6c1,19.3,2,38.7,3.1,58h8.5c-0.3-24.9-0.5-49.8-0.8-74.7
						C439.4,350.4,430.9,348.4,422.5,346.4z"/>
					<path class="st7" d="M422.5,346.4c0-0.1-0.1-0.1-0.1-0.2"/>
				</g>
				<g>
					<path class="st8" d="M403.4,300.8L403.4,300.8c1.8,0.8,3.7,1.6,5.5,2.3c2-0.2,3.9-0.5,5.9-0.7c-1-0.9-2.1-1.8-3.1-2.6
						C409,300.1,406.2,300.5,403.4,300.8z"/>
					<path class="st6" d="M403.4,300.8c1.6,11.6,3.2,23.2,4.9,34.8c1.4,0,2.9-0.1,4.3-0.1c0.8-11,1.5-22,2.3-33.1c0,0,0,0-0.1,0
						c-2,0.2-3.9,0.5-5.9,0.7C407.1,302.4,405.2,301.6,403.4,300.8z"/>
				</g>
				<path class="st6" d="M87.3,300.8c-1.6,11.6-3.2,23.2-4.9,34.8c-1.4,0-2.9-0.1-4.3-0.1c-0.8-11-1.5-22-2.3-33.1c0,0,0,0,0.1,0
					c2,0.2,3.9,0.5,5.9,0.7C83.6,302.4,85.4,301.6,87.3,300.8z"/>
				<g>
					<path class="st9" d="M81.4,324.1c-1.1,0-2.7-0.2-4.1-1.3c-0.4-0.3-1.4-1.2-1.1-2.3c0.2-0.6,0.7-1,1.6-1.2l0.4,1.7
						c0-0.1,0-0.2,0-0.2c0,0.1,0.1,0.2,0.5,0.5c1.3,1.1,3.5,0.8,3.5,0.8c1.2-0.2,2.2-0.7,2.8-1.2l0.1-1.8c0.6,0,2,0.1,2.3,1.2
						c0.1,0.3,0.1,0.7-0.2,1.3c-0.7,1.1-2.8,2.2-4.6,2.5C82.3,324.1,81.9,324.1,81.4,324.1z"/>
				</g>
				<g>
					<path class="st9" d="M80.7,312.1c-2.7,0-5.5-0.6-6.2-1.3c-0.2-0.2-0.4-0.6-0.3-0.9c0.1-1,1.3-1.2,2.1-1.3l0.1,0.9
						c1,0.3,3.1,0.7,5.4,0.5c1.6-0.1,3.1-0.4,3.9-0.7l0.1-1.2c0.8,0.1,2.2,0.3,2.3,1.4c0,0.3-0.1,0.6-0.3,0.9
						c-0.9,1-4.3,1.5-5.9,1.6C81.5,312.1,81.1,312.1,80.7,312.1z"/>
				</g>
				<path class="st10" d="M76.9,316.9c-0.4,0.1-0.9,0.2-0.9,0.4c0,0.5,4.1,1,4.9,1.1c10.3,1.2,30.3,6.1,84.9,13.1
					c13.9,1.8,37.5,4.8,66.1,5.1c76.8,0.8,160.9-18.4,170.1-17.6c1.5,0.1,4.1-0.2,9.3-0.9c1-0.1,2.9-0.4,3-1.2
					c0.1-0.4-0.3-0.7-0.6-1"/>
				<g>
					<path class="st5" d="M123.2,331.9c-2.2,3.2-4.4,6.4-6.6,9.6c-8.5,6.3-16.9,12.6-25.4,18.9c6.5-7.8,13.1-15.6,19.6-23.4
						c0.6-0.1,1.3-0.2,1.8-0.3C115.8,335.2,119.7,333.4,123.2,331.9z"/>
					<path class="st6" d="M110.8,336.8c-6.6,7.8-13.1,15.7-19.7,23.5c-2.2,1.6-4.4,3.3-6.6,4.9c-4.4,12.1-8.7,24.1-13.1,36.2
						c1.1-15.3,2.2-30.7,3.3-46c2.3-5.5,4.6-11,6.9-16.5C91.4,338.2,101.1,337.5,110.8,336.8z"/>
					<path class="st5" d="M71.4,401.4c-0.5,1.4-1,2.8-1.5,4.2c0.8,7.1,1.5,14.3,2.3,21.4H41.9c1-19.3,2.1-38.7,3.1-58
						c4.9-7.5,9.8-15.1,14.6-22.6c0.2,0,0.4-0.1,0.6-0.1c-1.9-1.8-3.9-3.5-5.9-5.3c9.1-0.7,18.2-1.3,27.3-2
						c-2.3,5.5-4.6,11-6.9,16.5C73.7,370.8,72.6,386.1,71.4,401.4z"/>
					<path class="st6" d="M59.7,346.4c-4.9,7.5-9.8,15.1-14.6,22.6c-1,19.3-2,38.7-3.1,58h-8.5c0.3-24.9,0.5-49.8,0.8-74.7
						C42.7,350.4,51.2,348.4,59.7,346.4z"/>
					<path class="st7" d="M59.8,346.2c0,0.1-0.1,0.1-0.1,0.2"/>
				</g>
				<g>
					<path class="st8" d="M87.3,300.8L87.3,300.8c-1.8,0.8-3.7,1.6-5.5,2.3c-2-0.2-3.9-0.5-5.9-0.7c1-0.9,2.1-1.8,3.1-2.6
						C81.7,300.1,84.5,300.5,87.3,300.8z"/>
				</g>
				<g>
					<path class="st9" d="M410,326.2c-1.1,0-2.7-0.2-4.1-1.3c-0.4-0.3-1.4-1.2-1.1-2.3c0.2-0.6,0.7-1,1.6-1.2l0.4,1.7
						c0-0.1,0-0.2,0-0.2c0,0.1,0.1,0.2,0.5,0.5c1.3,1.1,3.5,0.8,3.5,0.8c1.2-0.2,2.2-0.7,2.8-1.2l0.1-1.8c0.6,0,2,0.1,2.3,1.2
						c0.1,0.3,0.1,0.7-0.2,1.3c-0.7,1.1-2.8,2.2-4.6,2.5C410.9,326.2,410.5,326.2,410,326.2z"/>
				</g>
				<g>
					<path class="st9" d="M409.3,314.2c-2.7,0-5.5-0.6-6.2-1.3c-0.2-0.2-0.4-0.6-0.3-0.9c0.1-1,1.3-1.2,2.1-1.3l0.1,0.9
						c1,0.3,3.1,0.7,5.4,0.5c1.6-0.1,3.1-0.4,3.9-0.7l0.1-1.2c0.8,0.1,2.2,0.3,2.3,1.4c0,0.3-0.1,0.6-0.3,0.9
						c-0.9,1-4.3,1.5-5.9,1.6C410.1,314.2,409.7,314.2,409.3,314.2z"/>
				</g>
			</g>
		</g>
	</g>
	<g>
		<polygon class="st11" points="235.1,237.8 238.7,221.7 239.5,216.8 249.2,216.8 250,222.3 254.2,237.8 		"/>
		<g>
			<path class="st12" d="M238.6,334.3c-1.1-0.1-2.1-0.1-3.2-0.2c0.1-0.5,0.2-1,0.3-1.4c-0.1-1.1-0.2-2.3-0.3-3.4c1,0,2,0,3,0
				c0,1.1-0.1,2.3-0.1,3.4C238.4,333.3,238.5,333.8,238.6,334.3z"/>
			<g>
				<path class="st13" d="M233.9,338.6c0,0.2,0,0.3,0.1,0.5c0.5,2.1,1.5,2.3,2.9,1.6c1.2-0.6,1.5-0.8,1.7-1.5
					c-0.6-0.4-1.5-0.8-2.5-0.8C235.2,338.3,234.5,338.4,233.9,338.6z"/>
				<path class="st12" d="M234.1,337.9c0,0.2-0.1,0.4-0.1,0.5c0.5,2.1,1.5,2.3,2.9,1.6c1.2-0.6,1.3-0.8,1.5-1.5
					c-0.6-0.4-1.4-0.7-2.4-0.8C235.3,337.7,234.7,337.7,234.1,337.9z"/>
				<path class="st12" d="M238.6,337.7c0-1.4,0-3.4,0-3.4l-3.2-0.2c0,0-0.8,1.4-1.2,2.9c0.5-0.2,1.1-0.2,1.8-0.2
					C237.1,336.9,238,337.2,238.6,337.7z"/>
				<path class="st13" d="M238.6,337.7c-0.6-0.5-1.5-0.8-2.6-0.9c-0.6,0-1.3,0-1.8,0.2c-0.2,0.6-0.3,1.1-0.3,1.6
					c0.6-0.2,1.3-0.3,2.1-0.3c1,0.1,1.9,0.4,2.5,0.8c0-0.1,0.1-0.2,0.1-0.4C238.6,338.6,238.6,338.2,238.6,337.7z"/>
				<path class="st13" d="M234.7,335.6c0,0,1.7-0.6,3.9,0.3v-1.6c-0.4-0.1-0.9-0.3-1.6-0.3c-0.6,0-1.2,0.1-1.6,0.2
					C235.3,334.3,235.3,334.5,234.7,335.6z"/>
				<path class="st13" d="M235.7,337.7c0,0,0.4-2.6,0.6-3.1l1,0l-0.2,3.2L235.7,337.7z"/>
			</g>
		</g>
		<g>
			<path class="st12" d="M250.2,334.3c1.1-0.1,2.1-0.1,3.2-0.2c-0.1-0.5-0.2-1-0.3-1.4c0.1-1.1,0.2-2.3,0.3-3.4c-1,0-2,0-3,0
				c0,1.1,0.1,2.3,0.1,3.4C250.4,333.3,250.3,333.8,250.2,334.3z"/>
			<g>
				<path class="st13" d="M254.9,338.6c0,0.2,0,0.3-0.1,0.5c-0.5,2.1-1.5,2.3-2.9,1.6c-1.2-0.6-1.5-0.8-1.7-1.5
					c0.6-0.4,1.5-0.8,2.5-0.8C253.6,338.3,254.3,338.4,254.9,338.6z"/>
				<path class="st12" d="M254.7,337.9c0,0.2,0.1,0.4,0.1,0.5c-0.5,2.1-1.5,2.3-2.9,1.6c-1.2-0.6-1.3-0.8-1.5-1.5
					c0.6-0.4,1.4-0.7,2.4-0.8C253.5,337.7,254.1,337.7,254.7,337.9z"/>
				<path class="st12" d="M250.2,337.7c0-1.4,0-3.4,0-3.4l3.2-0.2c0,0,0.8,1.4,1.2,2.9c-0.5-0.2-1.1-0.2-1.8-0.2
					C251.8,336.9,250.8,337.2,250.2,337.7z"/>
				<path class="st13" d="M250.2,337.7c0.6-0.5,1.5-0.8,2.6-0.9c0.6,0,1.3,0,1.8,0.2c0.2,0.6,0.3,1.1,0.3,1.6
					c-0.6-0.2-1.3-0.3-2.1-0.3c-1,0.1-1.9,0.4-2.5,0.8c0-0.1-0.1-0.2-0.1-0.4C250.2,338.6,250.2,338.2,250.2,337.7z"/>
				<path class="st13" d="M254.1,335.6c0,0-1.7-0.6-3.9,0.3v-1.6c0.4-0.1,0.9-0.3,1.6-0.3c0.6,0,1.2,0.1,1.6,0.2
					C253.5,334.3,253.6,334.5,254.1,335.6z"/>
				<path class="st13" d="M253.1,337.7c0,0-0.4-2.6-0.6-3.1l-1,0l0.2,3.2L253.1,337.7z"/>
			</g>
		</g>
		<g>
			<g>
				<path class="st14" d="M255.5,331.3c0,0.2-1.2,0.3-3.7,0.5c-2.4,0.2-3.6,0.2-3.7,0c0,0,0,0,0,0c0-9.7-0.1-19.5-0.1-29.2
					c1.8,0.6,3.6,1.1,5.5,1.7C254.1,313.3,254.8,322.3,255.5,331.3C255.5,331.3,255.5,331.3,255.5,331.3z"/>
			</g>
		</g>
		<g>
			<g>
				<path class="st14" d="M240.7,302.7c0,9.7-0.1,19.5-0.1,29.2c0,0,0,0,0,0c-0.1,0.2-1.3,0.1-3.7,0c-2.4-0.2-3.7-0.3-3.7-0.5
					c0,0,0,0,0,0c0.7-9,1.3-18,2-26.9C237.1,303.8,238.9,303.2,240.7,302.7z"/>
			</g>
		</g>
		<path class="st14" d="M239.5,231.8c1.6,1.4,3.2,2.9,4.9,4.3c1.7-1.4,3.5-2.9,5.2-4.3c-1.3-0.4-3.1-0.7-5.3-0.7
			C242.3,231.2,240.7,231.5,239.5,231.8z"/>
		<path class="st15" d="M257.3,235.7c-0.8-0.6-1.9-1.2-3.1-1.7c-1.7-0.8-3.2-1.2-4.5-1.5c-1.7,0.9-3.5,1.8-5.2,2.8
			c-0.7-0.7-2.3-2.2-4.7-2.4c-1.2-0.1-2.2,0.1-2.6,0.2c-1.3,0.3-1.8,0.9-3.2,1.3c-0.9,0.3-1.7,0.4-2.2,0.4c0.6,2.6,1.2,5.5,1.5,8.7
			c0.2,1.9,0.3,3.8,0.4,5.5c3.3,0.6,7.2,1.1,11.6,1.2c3.9,0.1,7.4-0.1,10.4-0.5C256.3,245.1,256.8,240.4,257.3,235.7z"/>
		<path class="st12" d="M250.7,233.2c-2,0.7-4.1,1.4-6.1,2c-2.1-0.7-4.2-1.3-6.3-2c0.9-0.6,1.8-1.2,2.8-1.8c0.3-1.3,0.6-2.7,1-4
			c1.7,0,3.4,0,5.1,0c0.2,1.3,0.5,2.7,0.7,4C248.8,232,249.8,232.6,250.7,233.2z"/>
		<path class="st12" d="M249.5,221.8c0,0.3-0.1,1.1-0.3,2.8c-0.1,0.9-0.2,1.7-0.3,2.2c-0.4,0.8-1.2,2.2-2.8,3.1
			c-1,0.5-1.6,0.5-1.8,0.5c-0.9,0-1.5-0.4-2-0.7c-1.5-1-2.3-2.4-2.6-3.1c-0.1-0.4-0.1-1-0.2-1.7c-0.1-0.8-0.3-2.4-0.3-3.1
			c-0.1-1.4-0.3-4.1,1.5-5.8c1.4-1.3,3.2-1.4,3.6-1.4c0.4,0,2.3,0,3.7,1.4C249.8,217.7,249.6,220.4,249.5,221.8z"/>
		<g>
			<path class="st16" d="M246.2,226.5c0,0-0.1,0.1-0.1,0.1c-0.1,0-0.1,0.1-0.2,0.1c-0.1,0.1-0.2,0.1-0.3,0.2
				c-0.2,0.1-0.4,0.1-1.2,0.1c-0.8,0-1,0-1.1-0.1c-0.1,0-0.2-0.1-0.3-0.2c0,0,0,0,0,0c-0.1-0.1-0.2-0.1-0.2-0.2
				c0.2-0.1,0.3-0.1,0.4-0.2h0.1c0.2,0,0.3,0,0.5,0c0.4,0,0.7,0,0.9,0c0.3,0,0.6,0,1.2,0C245.9,226.4,246,226.4,246.2,226.5z"/>
			<path class="st16" d="M246.2,226.5c0,0-0.1,0.1-0.1,0.1c-0.5,0-0.7,0.1-0.9,0.1c0,0-0.3,0-0.6,0c-0.1,0-0.1,0-0.1,0
				c-0.5,0-0.5-0.1-1.1-0.1c-0.3,0-0.4,0-0.6,0c-0.1-0.1-0.2-0.1-0.2-0.2c0.2-0.1,0.3-0.1,0.4-0.2c0.1,0,0.1,0,0.2-0.1
				c0,0,0.5-0.2,0.9-0.1c0,0,0.1,0,0.2,0c0.1,0,0.1,0.1,0.1,0.1c0.1,0,0.1-0.1,0.3-0.1c0.3-0.1,0.5,0,0.8,0.1c0.1,0,0.2,0.1,0.3,0.1
				C245.9,226.4,246,226.4,246.2,226.5z"/>
		</g>
		<path class="st16" d="M245.1,224.3c-0.1,0.1-0.3,0.2-0.6,0.3c-0.4,0-0.7-0.2-0.8-0.3c0.3,0,0.5,0,0.8,0
			C244.7,224.3,244.9,224.3,245.1,224.3z"/>
		<path class="st15" d="M239.1,232l-2.5,1.4c1.5,1.9,3.1,3.8,4.6,5.7c2.2,0,4.4,0,6.5,0.1c1.3-2,2.6-4.1,4-6.1
			c-0.6-0.3-1.3-0.6-1.9-1c-0.9,0.3-1.8,0.8-2.8,1.3c-0.9,0.5-1.7,1-2.4,1.4c-0.7-0.4-1.4-0.9-2.3-1.3
			C241.1,232.9,240.1,232.4,239.1,232z"/>
		<g>
			<g>
				<path class="st15" d="M243,221.9c-0.4-0.6-1-0.9-1.6-0.8c-0.6,0.1-0.9,0.7-1,0.8c0.2,0.1,0.6,0.3,1.2,0.4
					C242.3,222.3,242.8,222,243,221.9z"/>
				<g>
					<path class="st17" d="M241.2,221.8c0,0.3,0.3,0.5,0.6,0.5c0.3,0,0.5-0.3,0.5-0.6c0-0.3-0.3-0.5-0.6-0.5
						C241.4,221.2,241.2,221.5,241.2,221.8z"/>
					<path d="M241.5,221.8c0,0.2,0.2,0.3,0.3,0.3c0.2,0,0.3-0.2,0.3-0.3c0-0.2-0.2-0.3-0.3-0.3C241.6,221.5,241.5,221.6,241.5,221.8
						z"/>
					<path class="st15" d="M241.4,221.6c0,0.1,0.1,0.1,0.1,0.1c0.1,0,0.1-0.1,0.1-0.1c0-0.1-0.1-0.1-0.1-0.1
						C241.4,221.5,241.4,221.5,241.4,221.6z"/>
				</g>
				<path d="M243,221.9c0,0-0.6-0.7-1.5-0.6c-0.6,0.1-1,0.5-1,0.6c0,0,0,0-0.1,0c0,0,0,0,0,0c0.3-0.6,0.8-0.9,1.4-0.9
					C242.3,221.1,242.8,221.4,243,221.9z"/>
			</g>
			<g>
				<path class="st15" d="M245.8,221.9c0.4-0.6,1-0.9,1.6-0.8c0.6,0.1,0.9,0.7,1,0.8c-0.2,0.1-0.7,0.3-1.2,0.3
					C246.5,222.3,246,222,245.8,221.9z"/>
				<g>
					<path class="st17" d="M247.6,221.8c0,0.3-0.3,0.5-0.6,0.5c-0.3,0-0.5-0.3-0.5-0.6c0-0.3,0.3-0.5,0.6-0.5
						C247.4,221.2,247.6,221.5,247.6,221.8z"/>
					<path d="M247.3,221.8c0,0.2-0.2,0.3-0.3,0.3c-0.2,0-0.3-0.2-0.3-0.3c0-0.2,0.2-0.3,0.3-0.3
						C247.2,221.5,247.3,221.6,247.3,221.8z"/>
					<path class="st15" d="M247.4,221.6c0,0.1-0.1,0.1-0.1,0.1s-0.1-0.1-0.1-0.1c0-0.1,0.1-0.1,0.1-0.1S247.5,221.6,247.4,221.6z"/>
				</g>
				<path d="M245.8,221.9c0,0,0.6-0.7,1.5-0.5c0.6,0.1,0.9,0.5,1,0.7c0,0,0,0,0.1,0c0,0,0,0,0,0c-0.2-0.6-0.8-0.9-1.4-0.9
					C246.5,221.1,246,221.4,245.8,221.9z"/>
			</g>
			<path d="M242.8,220.1c-0.1-0.1-0.5-0.2-1.1-0.3c-0.8-0.1-1.3,0.1-1.4,0.2c-0.1,0.1-0.2,0.2-0.2,0.2c-0.1,0.1-0.1,0.2-0.2,0.3
				c-0.1,0.1-0.1,0.3-0.2,0.5c0,0,0.1,0,0.1-0.1c0,0,0.2-0.1,0.4-0.2c0.7-0.3,1.6-0.3,1.6-0.3c0.6,0,1.1,0.2,1.5,0.4
				c0,0,0.1-0.1,0.2-0.2c0-0.1,0-0.1,0-0.2C243.2,220.3,243,220.2,242.8,220.1z"/>
		</g>
		<g>
			<path d="M246,220.1c0.1-0.1,0.5-0.2,1.1-0.3c0.8-0.1,1.3,0.1,1.4,0.2c0.1,0.1,0.2,0.2,0.2,0.2c0.1,0.1,0.1,0.2,0.2,0.3
				c0.1,0.1,0.1,0.3,0.2,0.5c0,0-0.1,0-0.1-0.1c0,0-0.2-0.1-0.4-0.2c-0.7-0.3-1.6-0.3-1.6-0.3c-0.6,0-1.1,0.2-1.5,0.4
				c0,0-0.1-0.1-0.2-0.2c0-0.1,0-0.1,0-0.2C245.6,220.3,245.7,220.2,246,220.1z"/>
		</g>
		<path class="st15" d="M233.8,249.1c-1.3,25.5-2.7,51-4,76.6c3,0.8,5.4,1,7,1.1c6.5,0.3,7.9-1.8,13.4-0.9c1.3,0.2,3.1,0.6,5.7,0.5
			c1.9-0.1,3.4-0.4,4.3-0.6c-1.4-25.5-2.9-51.1-4.3-76.6c-3.3-0.2-5.8,0-7.5,0.1c-0.9,0.1-2,0.2-3.6,0.2c-1.9,0-3.1-0.2-4.4-0.3
			C238.9,248.9,236.6,248.8,233.8,249.1z"/>
		<rect x="244.2" y="224.9" class="st18" width="0.4" height="0.8"/>
		<path class="st14" d="M251.7,233.1c-2.1,1.1-4.1,2.1-6.2,3.2v11.8l-1,1l0-14.7c0.9-0.6,2-1.3,3.3-1.9c0.6-0.3,1.2-0.5,1.7-0.7
			C250.3,232.2,251,232.6,251.7,233.1z"/>
		<path class="st12" d="M196.1,236.1c-0.4,0-1-0.1-1.8-0.1c-1.5,0-2.2,0-2.9,0.2c-0.5,0.2-0.3,0.2-2.6,2c0,0-0.5,0.3-0.9,0.9
			c-0.4,0.4-0.9,1-0.7,1.3c0.1,0.2,0.6,0.2,0.6,0.2c0.6,0,0.8-0.5,1.4-1.1c0.2-0.2,1.1-1.1,2.3-1.3c0.5-0.1,1.4-0.2,1.6,0.2
			c0.1,0.2-0.1,0.5-0.2,0.7c-0.4,0.5-1,0.2-2,0.7c-0.4,0.2-0.6,0.3-0.6,0.5c0,0.2,0.1,0.4,0.2,0.5c0.2,0.2,0.5,0.1,0.8,0.1
			c0.3,0,0.4-0.1,0.7-0.2c0.5-0.2,0.9-0.3,1-0.3c0.6-0.1,1-0.1,1.3-0.1c0.5,0,1.3-0.1,2.3-0.6L196.1,236.1z"/>
		<path class="st15" d="M237.5,232.6c-0.7,1.9-1.4,4-2,6.2c-1.5,5.8-2,11.1-2,15.4c0-0.6,0-1.6-0.2-2.7c-0.3-2.2-0.8-5-2.9-6.7
			c-0.5-0.4-1.7-1.1-3.5-1.3c0,0-0.1,0-0.1,0c-6.1-0.9-11-1.1-14.4-1.1c-2.2,0-5,0-9.2-0.3c-3-0.2-5.5-0.4-7.1-0.6
			c-0.1-0.9-0.1-1.9-0.1-3c0-1.1,0.1-2,0.2-3c6.7-0.8,12.1-0.8,15.8-0.7c5.5,0.1,11.2,0.7,19.1-0.7c1.4-0.2,2.5-0.5,3.3-0.7
			C235.6,233.2,236.7,232.8,237.5,232.6z"/>
		<path class="st12" d="M293.2,236.1c0.4,0,1-0.1,1.8-0.1c1.5,0,2.2,0,2.9,0.2c0.5,0.2,0.3,0.2,2.6,2c0,0,0.5,0.3,0.9,0.9
			c0.4,0.4,0.9,1,0.7,1.3c-0.1,0.2-0.6,0.2-0.6,0.2c-0.6,0-0.8-0.5-1.4-1.1c-0.2-0.2-1.1-1.1-2.3-1.3c-0.5-0.1-1.4-0.2-1.6,0.2
			c-0.1,0.2,0.1,0.5,0.2,0.7c0.4,0.5,1,0.2,2,0.7c0.4,0.2,0.6,0.3,0.6,0.5c0,0.2-0.1,0.4-0.2,0.5c-0.2,0.2-0.5,0.1-0.8,0.1
			c-0.3,0-0.4-0.1-0.7-0.2c-0.5-0.2-0.9-0.3-1-0.3c-0.6-0.1-1-0.1-1.3-0.1c-0.5,0-1.3-0.1-2.3-0.6L293.2,236.1z"/>
		<path class="st15" d="M251.7,232.6c0.7,1.9,1.4,4,2,6.2c1.3,4.7,1.9,9,2.3,12.7c0-0.4-0.2-4.4,2.8-6.7c1.3-1,2.7-1.2,3.5-1.3
			c0,0,0.1,0,0.1,0c5.8-0.3,10.9-0.7,14.8-1c3.9-0.3,6.9-0.5,8.4-0.6c3-0.2,5.7-0.5,8.1-0.7c0-0.3,0.1-0.6,0.1-0.9
			c0.1-1,0.1-1.8,0.1-2c0-0.7,0-1.6,0-2.7c-7.4-0.4-13.4-0.4-17.5-0.4c-5.5,0-10.8,0.2-18.2-1.1c-1.4-0.3-2.5-0.5-3.3-0.7
			C253.7,233.2,252.6,232.8,251.7,232.6z"/>
		<path class="st14" d="M237.2,233.1l6.3,3.2v11.8l1,1l0-14.7c-0.9-0.6-2-1.3-3.3-1.9c-0.6-0.3-1.2-0.5-1.7-0.7
			C238.7,232.2,238,232.7,237.2,233.1z"/>
		<path d="M244.4,224.8C244.4,224.8,244.4,224.8,244.4,224.8c-0.5,0-2.2,0-2.8,1.1c-0.1,0.1-0.2,0.3-0.3,0.8c-0.1,0.4-0.1,1.1,0,2.1
			c1,1.4,2.1,2,3.2,2c1.1,0,2.2-0.7,3.2-2c0.2-1.1,0.1-1.7,0-2.1c-0.1-0.4-0.3-0.6-0.3-0.8C246.6,224.8,244.9,224.8,244.4,224.8
			C244.4,224.8,244.4,224.8,244.4,224.8z M243.9,227.2c0,0.1-0.2,0.4-0.5,0.6c0,0-0.5,0.2-1.1-0.2c0,0,0,0,0,0
			c-0.5-0.3-0.5-1-0.1-1.3c0.2-0.2,0.4-0.2,0.5-0.3c0.4-0.1,1.1-0.2,1.6-0.2c0.6,0,1.2,0,1.6,0.2c0.1,0,0.3,0.1,0.5,0.3
			c0.4,0.4,0.4,1-0.1,1.3c0,0,0,0,0,0c-0.6,0.4-1.1,0.2-1.1,0.2c-0.3-0.1-0.4-0.4-0.5-0.5C244.6,227.2,244.3,227.2,243.9,227.2z"/>
		<g>
			<path class="st19" d="M232.7,234c0,0.1,0,0.2,0,0.2L232.7,234L232.7,234z"/>
		</g>
		<g>
			<path class="st19" d="M257.1,240.8c-0.1-0.1-0.1-0.2-0.3-0.4c0,0,0,0-0.1-0.1c-0.1,0-0.1-0.1-0.2-0.1c-0.9-0.4-2.3-0.2-2.3-0.2
				c-0.5,0.1-1.2,0.2-1.9,0.5c-0.4,0.1-0.8,0.3-1.2,0.5c0-0.2,0-0.4,0-0.5c0.1-2.1-0.1-3.8-0.2-5c-0.1-0.8-0.2-1.2-0.7-4.4
				c-0.5-2.9-0.7-4.3-0.7-4.4c-0.1-1.8-0.2-6.1-0.4-8.4c0-0.2-0.1-0.6-0.3-0.8c-0.6-0.5-1.5,0.3-2.9,0.1c-0.9-0.1-0.9-0.5-1.8-0.5
				c-0.7,0-0.9,0.2-1.8,0.3c-1.1,0.1-1.4-0.2-1.8-0.1c-0.8,0.3-0.7,5.1-0.7,6.3c0.1,3.7-0.4,6.5-1.4,12.1c-0.3,1.9-0.6,3.5-0.9,4.6
				c0,0.2-0.1,0.4-0.1,0.5c-0.1,0-1.2-0.4-2-0.6c-0.1,0-0.1,0-0.2,0c-0.5-0.1-0.9,0-1.2,0c-1,0.1-2.3,0.6-2.4,0.6
				c-0.2-2.7,0.2-4.9,0.5-6.2c0.5-2,1.3-3.5,1.7-4.3c0.5-0.9,0.9-1.7,1.3-2.2l2.9-6.9c0.8-3.4,0.7-5.4,2.6-6.9
				c0.3-0.2,0.7-0.4,1-0.6c0.9-0.5,1.7-0.6,2.1-0.6c0.6-0.1,1.8-0.3,3.2,0.4c0.1,0,0.2,0.1,0.3,0.1c0,0,0,0,0,0
				c0.3,0.1,0.6,0.3,0.9,0.5c2.2,1.5,2.1,3.8,3.4,7.9c1.7,5.2,4,7.9,5.4,12c0,0,0,0,0,0C257.8,237.2,257.7,239.3,257.1,240.8z"/>
			<path d="M249.5,215.2h-10.2c-0.3,0-0.5-0.2-0.5-0.5l0,0c0-0.3,0.2-0.5,0.5-0.5h10.2c0.3,0,0.5,0.2,0.5,0.5l0,0
				C250,215,249.8,215.2,249.5,215.2z"/>
			<path d="M249.9,216.3h-11.1c-0.3,0-0.5-0.2-0.5-0.5l0,0c0-0.3,0.2-0.5,0.5-0.5h11.1c0.3,0,0.5,0.2,0.5,0.5l0,0
				C250.4,216.1,250.2,216.3,249.9,216.3z"/>
		</g>
	</g>
</g>
</svg>
