<?xml version="1.0" encoding="utf-8"?>
<!-- Generator: Adobe Illustrator 26.0.1, SVG Export Plug-In . SVG Version: 6.00 Build 0)  -->
<svg version="1.1" id="Layer_1" xmlns="http://www.w3.org/2000/svg" xmlns:xlink="http://www.w3.org/1999/xlink" x="0px" y="0px"
	 viewBox="0 0 824 708" style="enable-background:new 0 0 824 708;" xml:space="preserve">
<style type="text/css">
	.st0{clip-path:url(#SVGID_00000059276490321863613270000008030120979831335304_);fill:#A5E0DC;}
	.st1{clip-path:url(#SVGID_00000059276490321863613270000008030120979831335304_);}
	.st2{fill:#BEF4EF;}
	.st3{fill:#81CCC6;}
	.st4{fill:#A5E0DC;}
	.st5{fill:#00747D;}
	.st6{fill:#E3F4FF;}
	.st7{fill:#FFFFFF;}
	.st8{fill:#99CCE0;}
	.st9{clip-path:url(#SVGID_00000059276490321863613270000008030120979831335304_);fill:#00747D;}
	.st10{fill:#C9DAF4;}
	.st11{fill:#345389;}
	.st12{fill:#CECECE;}
	.st13{fill:#EBC9AF;}
	.st14{fill:#FCA170;}
	.st15{fill:#EF926A;}
	.st16{fill:#282828;}
	.st17{fill:#8A5D3B;}
	.st18{fill:#3B2314;}
	.st19{fill:#ED845F;}
	.st20{fill:#030202;}
	.st21{fill:#F99C73;}
	.st22{fill:#F49064;}
	.st23{fill:none;stroke:#345389;stroke-width:1.0757;stroke-miterlimit:10;}
	.st24{fill:#3D3D3D;}
	.st25{fill:#A34F2E;}
	.st26{clip-path:url(#SVGID_00000059276490321863613270000008030120979831335304_);fill:#7C3A25;}
	.st27{fill:#E80F2E;}
	.st28{fill:#1021B5;}
	.st29{clip-path:url(#SVGID_00000059276490321863613270000008030120979831335304_);fill:#4F4E4E;}
	.st30{clip-path:url(#SVGID_00000059276490321863613270000008030120979831335304_);fill:#3A3A3A;}
	.st31{clip-path:url(#SVGID_00000059276490321863613270000008030120979831335304_);fill:#BCA18C;}
	.st32{fill:#AF1919;}
	.st33{fill:#CC936D;}
	.st34{fill:#E8E8E8;}
	.st35{fill:#F7B89F;}
	.st36{fill:#D19182;}
	.st37{fill:#726562;}
	.st38{fill:#CCA279;}
	.st39{fill:#3F3F3F;}
	.st40{fill:#515151;}
	.st41{fill:#1E1E1E;}
	.st42{fill:#C6C6C6;}
	.st43{fill:#E09A61;}
	.st44{fill:none;}
	.st45{fill:#BA7D54;}
	.st46{fill:#AF7151;}
	.st47{fill:#513328;}
	.st48{fill:none;stroke:#000000;stroke-width:4.0376;stroke-linecap:round;stroke-linejoin:round;stroke-miterlimit:10;}
	.st49{fill:#847977;}
	.st50{fill:#EFB78E;}
</style>
<g>
	<g>
		<g>
			<g>
				<defs>
					<path id="SVGID_1_" d="M95.2,581.1c-2.4-3.5-48.7-52.1-44.2-118.7c4-57.6,43.4-95.4,111.5-160.9c67.9-65.2,72.4-47.9,113.3-95
						c63.1-72.8,61.6-124.8,120-149.6c12.4-5.3,48.2-20.5,82.1-6.7c44.3,18,55.2,70.8,109.7,101.7c51.8,29.3,73.4,4.9,106,33.3
						c45.6,39.6,33.1,116.6,48.9,177.5c14.8,57.3,57.9,108.7,50.2,167.6c-6,45.4-42.4,80.6-82.4,95.6s-83.5,13.9-125.8,12.5
						c-95.7-3.1-192.4-9.1-287.6-5.3C235.1,635.6,138.2,643.2,95.2,581.1z"/>
				</defs>
				<clipPath id="SVGID_00000146493104260941893050000012205008216601818531_">
					<use xlink:href="#SVGID_1_"  style="overflow:visible;"/>
				</clipPath>
				<path style="clip-path:url(#SVGID_00000146493104260941893050000012205008216601818531_);fill:#A5E0DC;" d="M792.7,530.2
					c-6,45.4-42.4,80.6-82.4,95.6c-40,15.1-83.5,13.9-125.8,12.5c-95.7-3.1-192.4-9.1-287.6-5.3c-53.1,2.1-131.9,8-180.4-29.5
					c-8-6.2-15.2-13.6-21.3-22.5c-42.8-53.9-44.8-100-44.2-118.7c1.9-53.2,32.6-96,65.5-129.2c16.2-16.3,32.9-30.3,46.9-42.1
					c12.8-10.7,26.9-19.7,42.9-30.8c26.3-18.2,31.2-20.4,41.9-29.6c15.1-13.1,24.9-25.4,32.3-35.3c52.6-69.7,56-101.9,90-126.2
					c24.9-17.8,69.4-31.2,107.3-19.1c52.7,16.8,46.6,66,109.7,101.7c51.8,29.3,73.4,4.9,106,33.3c45.6,39.6,33.1,116.6,48.9,177.5
					C757.4,419.9,800.5,471.3,792.7,530.2z"/>
				<g style="clip-path:url(#SVGID_00000146493104260941893050000012205008216601818531_);">
					<g>
						<g>
							<rect x="371.7" y="200" class="st2" width="167" height="103.4"/>
							<path class="st3" d="M538.6,299.8v3.6H372.6c0.2-0.8,0.5-1.5,0.7-2.3c1.6-5.2,3.3-10.2,5.2-14.9c7.6-0.1,15.3-0.1,23-0.1
								c6.7,0,13.3,0,19.9,0.1c3-2.3,6-4.5,9-6.8c16.5,0,33,0,49.5,0c4.5,2.8,11.3,6.5,20.3,9.4c1.9,0.6,3.7,1.3,6.4,1.9
								c13.9,3.2,20.4,0.4,27.7,5.2C535.7,296.8,537.2,298.1,538.6,299.8z"/>
						</g>
						<g>
							<g>
								<path class="st3" d="M478,273.2v1.9h-44.8v-1.9h1.4v-7.6h1.2v-7.2h0.9v-5.5h-0.6v-0.6h-0.2v-0.5h0.8c0,0-0.8-0.3-0.8-2h0.8
									l0.9-7.2l0.9,7.2h0.8c0,1.7-0.8,2-0.8,2h0.8v0.5H439v0.6h-0.6v5.5h3v-5.2c0.9-0.9,1.8-1.3,2.6-1.4v-1.3h0.6v1.3
									c1.6,0.1,2.7,1.3,2.7,1.4c-3.8-6,1.2-9.5,3.8-10.2c1.9-0.5,3.4-1.8,4.1-2.4v-5c-1.1-0.4-1.9-1.4-1.9-2.6
									c0-1.1,0.7-2.1,1.7-2.5c-0.4,0.5-0.7,1.1-0.7,1.8c0,1.5,1.2,2.6,2.6,2.6c0.6,0,1.1-0.2,1.5-0.5c-0.5,0.8-1.4,1.4-2.4,1.4
									c-0.1,0-0.1,0-0.2,0v4.9c0.6,0.6,2.2,1.8,4.1,2.4c2.6,0.7,7.6,4.2,3.8,10.2c0.1-0.1,1.2-1.3,2.7-1.4v-1.3h0.6v1.3
									c0.8,0.1,1.7,0.5,2.6,1.4v5.2h3v-5.5h-0.6v-0.6H472v-0.5h0.8c0,0-0.8-0.3-0.8-2h0.8l0.9-7.2l0.9,7.2h0.8c0,1.7-0.8,2-0.8,2
									h0.8v0.5h-0.2v0.6h-0.6v5.5h0.9v7.2h1.2v7.6H478z"/>
								<g>
									<path class="st4" d="M443.3,261.6c-1.3,0-2.3,1-2.3,2.3v9.2h4.5v-9.2C445.6,262.6,444.6,261.6,443.3,261.6z"/>
									<path class="st4" d="M451.6,261.6c-1.3,0-2.3,1-2.3,2.3v9.2h4.5v-9.2C453.9,262.6,452.8,261.6,451.6,261.6z"/>
									<path class="st4" d="M459.7,261.6L459.7,261.6c-1.3,0-2.3,1-2.3,2.3v9.2h4.5v-9.2C462,262.6,461,261.6,459.7,261.6z"/>
									<path class="st4" d="M467.9,261.6c-1.3,0-2.3,1-2.3,2.3v9.2h4.5v-9.2C470.2,262.6,469.2,261.6,467.9,261.6z"/>
									<rect x="443.8" y="256.7" class="st4" width="1.7" height="1.7"/>
									<rect x="447.4" y="256.7" class="st4" width="1.7" height="1.7"/>
									<rect x="450.9" y="256.7" class="st4" width="1.7" height="1.7"/>
									<rect x="454.6" y="256.7" class="st4" width="1.7" height="1.7"/>
									<rect x="458.2" y="256.7" class="st4" width="1.7" height="1.7"/>
									<rect x="461.8" y="256.7" class="st4" width="1.7" height="1.7"/>
									<rect x="465.3" y="256.7" class="st4" width="1.7" height="1.7"/>
								</g>
							</g>
							<rect x="432.4" y="275.2" class="st5" width="46.4" height="4.3"/>
						</g>
						<g>
							<g>
								<path class="st5" d="M400.2,272.6c0.4,1.8,0.8,3.9,0.9,6.3c0.2,2.5,0.1,4.8-0.1,6.7c-0.3,0.1-0.7,0.2-1.1,0.4
									c-0.7,0.4-1.2,1-1.4,1.3c0.4-0.2,0.9-0.4,1.6-0.4c0.5,0,0.4,0.1,0.9,0.2c0.9,0,1.5-0.3,2-0.1c0,0,0.2,0.1,0.4,0.1
									c0,0,0.4,0,0.4-0.1c0-0.1-0.7-0.2-1.6-0.8c-0.2-0.2-0.4-0.3-0.5-0.4c0.2-2,0.2-4.3,0.1-6.9c-0.2-2.5-0.5-4.7-0.9-6.6
									C400.8,272.3,400.5,272.5,400.2,272.6z"/>
								<path class="st3" d="M399.4,271.7c-0.6,0.2-1.5,0.5-2.3,1.2c-2.5,2.1-2.3,5.4-2.2,5.9c0.1-0.8,0.6-2.6,2.2-4.3
									c1.1-1.1,2.3-1.7,3-1.9c-0.1,0.8-0.1,1.8,0,2.8c0.3,2.4,1.1,4.2,1.7,5.4c-0.4-1.1-0.9-2.6-1-4.6c-0.1-1.5,0.1-2.8,0.3-3.8
									c0.5,0.1,1.1,0.3,1.6,0.5c2.2,1.1,3.1,3.3,3.4,4.1c0.2-0.6,0.3-1.4,0.1-2.4c-0.6-1.8-2.6-3.1-5-3.1c0.4-0.2,1-0.5,1.8-0.6
									c2.4-0.2,4,1.7,4.2,1.9c-0.1-0.1-1.5-2.7-4.1-2.8c-1.2,0-2.1,0.4-2.5,0.7c-0.4-0.3-1.2-0.6-2-0.5c-1.7,0.3-2.4,2.7-2.5,4.2
									c-0.1,1.8,0.8,3.1,1.2,3.6c-0.4-1-0.8-2.4-0.5-4.1c0.1-0.8,0.4-2.1,1.3-2.4C398.6,271.5,399.1,271.6,399.4,271.7z"/>
							</g>
							<g>
								<path class="st5" d="M405.7,260.9c0.7,3.2,1.4,7,1.7,11.3c0.3,4.5,0.2,8.6-0.2,12c-0.5,0.1-1.3,0.3-2,0.7
									c-1.3,0.7-2.1,1.7-2.4,2.3c0.7-0.3,1.7-0.7,2.9-0.7c0.8,0,0.8,0.2,1.7,0.3c1.7,0.1,2.6-0.5,3.6-0.2c0.1,0,0.4,0.1,0.8,0.1
									c0.1,0,0.8,0,0.8-0.2c0-0.2-1.3-0.4-2.8-1.4c-0.4-0.3-0.8-0.5-1-0.7c0.3-3.6,0.4-7.7,0.1-12.3c-0.3-4.5-0.9-8.5-1.6-11.9
									C406.8,260.5,406.3,260.7,405.7,260.9z"/>
								<path class="st3" d="M404.2,259.4c-1.2,0.3-2.7,0.9-4.1,2.1c-4.4,3.7-4.1,9.8-4,10.6c0.2-1.3,1-4.7,4-7.7c2-2,4.2-3,5.4-3.4
									c-0.1,1.4-0.2,3.1,0,5c0.5,4.3,1.9,7.6,3.1,9.8c-0.7-1.9-1.6-4.7-1.7-8.2c-0.1-2.7,0.2-5,0.5-6.8c0.9,0.2,1.9,0.5,2.9,1
									c4,2,5.6,6,6.1,7.3c0.3-1,0.6-2.6,0.1-4.2c-1-3.2-4.6-5.5-9-5.6c0.8-0.4,1.8-0.9,3.2-1.1c4.2-0.4,7.2,3.1,7.6,3.5
									c-0.1-0.3-2.6-4.9-7.4-5.1c-2.1-0.1-3.7,0.7-4.5,1.2c-0.8-0.5-2.1-1.1-3.6-0.8c-3,0.6-4.4,4.8-4.5,7.5
									c-0.1,3.2,1.5,5.5,2.2,6.4c-0.7-1.7-1.5-4.4-1-7.4c0.3-1.4,0.7-3.8,2.4-4.4C402.8,259,403.7,259.2,404.2,259.4z"/>
							</g>
						</g>
						<g>
							<g>
								<path class="st5" d="M509.3,281.5c0.4,1.8,0.8,3.9,0.9,6.3c0.2,2.5,0.1,4.8-0.1,6.7c-0.3,0.1-0.7,0.2-1.1,0.4
									c-0.7,0.4-1.2,1-1.4,1.3c0.4-0.2,0.9-0.4,1.6-0.4c0.5,0,0.4,0.1,0.9,0.2c0.9,0,1.5-0.3,2-0.1c0,0,0.2,0.1,0.4,0.1
									c0,0,0.4,0,0.4-0.1c0-0.1-0.7-0.2-1.6-0.8c-0.2-0.2-0.4-0.3-0.5-0.4c0.2-2,0.2-4.3,0.1-6.9c-0.2-2.5-0.5-4.7-0.9-6.6
									C509.9,281.2,509.6,281.4,509.3,281.5z"/>
								<path class="st3" d="M508.5,280.6c-0.6,0.2-1.5,0.5-2.3,1.2c-2.5,2.1-2.3,5.4-2.2,5.9c0.1-0.8,0.6-2.6,2.2-4.3
									c1.1-1.1,2.3-1.7,3-1.9c-0.1,0.8-0.1,1.8,0,2.8c0.3,2.4,1.1,4.2,1.7,5.4c-0.4-1.1-0.9-2.6-1-4.6c-0.1-1.5,0.1-2.8,0.3-3.8
									c0.5,0.1,1.1,0.3,1.6,0.5c2.2,1.1,3.1,3.3,3.4,4.1c0.2-0.6,0.3-1.4,0.1-2.4c-0.6-1.8-2.6-3.1-5-3.1c0.4-0.2,1-0.5,1.8-0.6
									c2.4-0.2,4,1.7,4.2,1.9c-0.1-0.1-1.5-2.7-4.1-2.8c-1.2,0-2.1,0.4-2.5,0.7c-0.4-0.3-1.2-0.6-2-0.5c-1.7,0.3-2.4,2.7-2.5,4.2
									c-0.1,1.8,0.8,3.1,1.2,3.6c-0.4-1-0.8-2.4-0.5-4.1c0.1-0.8,0.4-2.1,1.3-2.4C507.7,280.4,508.2,280.5,508.5,280.6z"/>
							</g>
							<g>
								<path class="st5" d="M514.9,269.8c0.7,3.2,1.4,7,1.7,11.3c0.3,4.5,0.2,8.6-0.2,12c-0.5,0.1-1.3,0.3-2,0.7
									c-1.3,0.7-2.1,1.7-2.4,2.3c0.7-0.3,1.7-0.7,2.9-0.7c0.8,0,0.8,0.2,1.7,0.3c1.7,0.1,2.6-0.5,3.6-0.2c0.1,0,0.4,0.1,0.8,0.1
									c0.1,0,0.8,0,0.8-0.2c0-0.2-1.3-0.4-2.8-1.4c-0.4-0.3-0.8-0.5-1-0.7c0.3-3.6,0.4-7.7,0.1-12.3c-0.3-4.5-0.9-8.5-1.6-11.9
									C515.9,269.4,515.4,269.6,514.9,269.8z"/>
								<path class="st3" d="M513.3,268.3c-1.2,0.3-2.7,0.9-4.1,2.1c-4.4,3.7-4.1,9.8-4,10.6c0.2-1.3,1-4.7,4-7.7c2-2,4.2-3,5.4-3.4
									c-0.1,1.4-0.2,3.1,0,5c0.5,4.3,1.9,7.6,3.1,9.8c-0.7-1.9-1.6-4.7-1.7-8.2c-0.1-2.7,0.2-5,0.5-6.8c0.9,0.2,1.9,0.5,2.9,1
									c4,2,5.6,6,6.1,7.3c0.3-1,0.6-2.6,0.1-4.2c-1-3.2-4.6-5.5-9-5.6c0.8-0.4,1.8-0.9,3.2-1.1c4.2-0.4,7.2,3.1,7.6,3.5
									c-0.1-0.3-2.6-4.9-7.4-5.1c-2.1-0.1-3.7,0.7-4.5,1.2c-0.8-0.5-2.1-1.1-3.6-0.8c-3,0.6-4.4,4.8-4.5,7.5
									c-0.1,3.2,1.5,5.5,2.2,6.4c-0.7-1.7-1.5-4.4-1-7.4c0.3-1.4,0.7-3.8,2.4-4.4C512,267.9,512.8,268.1,513.3,268.3z"/>
							</g>
						</g>
					</g>
					<g>
						<path class="st5" d="M541.2,306h-172V197.5h172V306z M374.2,300.9h161.9v-98.4H374.2V300.9z"/>
					</g>
				</g>
				<g style="clip-path:url(#SVGID_00000146493104260941893050000012205008216601818531_);">
					<path class="st6" d="M143.6,643.7c-5.7-12.2-14-34.1-14.9-62.5c-0.9-28.6,6.1-51,11.1-63.6c8.7,10.5,20.9,27.9,29.2,51.9
						c9.8,28.3,9.8,53,8.7,67.5C166.3,639.3,155,641.5,143.6,643.7z"/>
					<path class="st7" d="M160.1,640.6c-4.7-9.4-7.2-19.7-9.4-29.9c-6.3-30.7-9.1-61.9-11-93.1c2.1,31.2,5.2,62.4,11.8,93
						c2.3,10.1,4.9,20.3,9.6,29.5C161.1,640.1,160.1,640.6,160.1,640.6L160.1,640.6z"/>
				</g>
				<g style="clip-path:url(#SVGID_00000146493104260941893050000012205008216601818531_);">
					<path class="st8" d="M196.4,637.4c3.9-19.1,8.9-52.8,5.7-94.6c-3.3-42-13.5-73.3-20.2-90.6c-7.1,17.3-16.6,45.2-21.3,82.2
						c-5.6,43.5-2,79.6,1.3,100.6C173.3,635.8,184.9,636.6,196.4,637.4z"/>
					<path class="st7" d="M178.5,636.1c3.4-14.9,4.4-30.3,5.2-45.6c2-46,0.6-92.2-1.8-138.2c3,53.7,5.7,107.6,1.4,161.3
						c-0.7,7.7-1.7,15.3-3.4,22.9L178.5,636.1L178.5,636.1z"/>
				</g>
				<g style="clip-path:url(#SVGID_00000146493104260941893050000012205008216601818531_);">
					<path class="st6" d="M217.1,637.4c2.3-11.1,5.2-30.7,3.3-55c-1.9-24.4-7.8-42.6-11.8-52.7c-4.1,10.1-9.7,26.3-12.4,47.8
						c-3.2,25.3-1.1,46.3,0.7,58.5C203.7,636.5,210.4,637,217.1,637.4z"/>
					<path class="st7" d="M206.7,636.7c1.4-6.3,2.2-13.4,2.6-19.9c1.8-29,0.8-58.1-0.7-87c1.7,29,2.9,58.1,1.3,87.1
						c-0.4,6.5-1.2,13.6-2.5,20C207.4,636.8,206.7,636.7,206.7,636.7L206.7,636.7z"/>
				</g>
				<path style="clip-path:url(#SVGID_00000146493104260941893050000012205008216601818531_);fill:#00747D;" d="M116.6,333.2v270.3
					c-8-6.2-15.2-13.6-21.3-22.5c-42.8-53.9-44.8-100-44.2-118.7C52.9,409.2,83.7,366.4,116.6,333.2z"/>
				<g style="clip-path:url(#SVGID_00000146493104260941893050000012205008216601818531_);">
					<g>
						<g>
							<path class="st7" d="M608.3,438c-1.1,12.1-4.8,21.3-7.6,26.7c0,7.4,0,14.7,0.1,22.1c-12.8-0.2-26.1-0.1-40,0.4
								c-14.9,0.5-29.2,1.4-42.9,2.6c0.1-2.4,0.1-4.9,0.1-7.4c0-2.4,0-4.8,0-7.1c-6.8-0.2-13.6-0.5-20.4-0.7c-1.6,0-3.1-0.8-4-2
								c-0.7-0.9-1.1-2-1.2-3.1c0-0.8,0-1.4,0-1.6c1.7-14.7,5.1-28.3,5.1-28.3c2.6-10.2,5.4-23.1,10-31.2c0.9-1.6,1.7-2.7,2.7-3.7
								c2.5-2.5,4.8-3.1,11.8-6.1c1.3-0.5,3.1-1.3,5.2-2.3c0,0,7-3.1,17.2-6.1c1.1-0.3,2.1-0.6,3-0.8c1.9-0.6,4.8-1.3,8.3-1.5
								c4.8-0.2,8.2,0.6,15.3,2.7c0.2,0.1,0.3,0.1,0.6,0.2c0,0,0,0,0,0c0.7,0.2,1.2,0.4,1.2,0.4c5.1,1.6,12.3,5.1,12.3,5.1
								c2.1,0.9,4.4,2,6.7,3.3c5.2,2.9,9.5,6.1,12.9,9c0.2,0.2,0.3,0.3,0.4,0.5C607,415.1,609.4,425.3,608.3,438z"/>
							<polygon class="st10" points="551.3,411.6 554.8,432 556.8,484.1 558.1,484.1 560.2,441.9 566,405.4 							"/>
							<path class="st11" d="M552,416.1c1.3-1.4,3.3-3.4,6.4-5.1c3.6-2,7-2.6,9.1-2.8c-1.7,2.5-3.3,4.9-5,7.4
								C559,415.8,555.5,416,552,416.1z"/>
							<path class="st12" d="M524.1,430.3c-1.7,9.1-3.4,18.1-5.1,27.2c1.6,0.5,3.1,1,4.7,1.6C523.8,449.5,524,439.9,524.1,430.3z"/>
							<path class="st13" d="M571,391.2c-2.7,1.7-6.5,4.6-10.1,9.2c-3.2,4.2-5,8.3-6,11.2c-0.3-2.6-1-6.4-3-10.5
								c-2.3-4.9-5.4-8.2-7.4-10c0-0.1,0-0.2,0-0.3c1.1-0.4,2.1-0.7,3-1c1.9-0.7,4.8-1.6,8.3-1.8C560.5,387.7,564,388.6,571,391.2z"
								/>
							<g>
								<g>
									<g>
										<polygon class="st14" points="570.9,401.2 569.7,389 569.6,387.9 569.5,387.1 568.8,380 545.5,380 544.7,387.6 
											544.6,388.3 544.5,389.4 543.3,401.7 										"/>
										<g>
											<path class="st14" d="M580.1,351.1c0.6-0.2,0.7-0.5,1.2-0.4c0.3,0.1,0.9,0.5,1.1,1c0.2,0.7,0.5,2,0.1,3.5
												c-0.1,0.5-0.5,2.4-0.8,3.2c-0.4,1-0.8,4.1-1.1,4.8c-0.3,0.7-0.9,3.1-1.4,3.7c-0.4,0.7-0.8,1.8-2.2,2
												c-0.5,0.1-0.9-0.1-0.9-0.1s-0.9-8.4-0.7-10c0.2-1.7,1.7-5.1,1.9-5.9C577.6,352.1,580.1,351.1,580.1,351.1z"/>
											<path class="st14" d="M534.1,351.6c-0.6-0.2-0.7-0.5-1.2-0.4c-0.3,0.1-0.9,0.5-1.1,1c-0.2,0.7-0.6,2-0.2,3.5
												c0.1,0.5,0.5,2.5,0.8,3.3c0.4,1,0.7,4.1,1,4.8s0.9,3.1,1.3,3.7c0.4,0.7,0.8,1.8,2.1,2c0.5,0.1,0.9-0.1,0.9-0.1
												s1-8.3,0.8-10c-0.1-1.7-1.6-5.1-1.8-5.9S534.1,351.6,534.1,351.6z"/>
											<path class="st15" d="M569.5,387.1c-0.8,0.8-1.5,1.6-2,2c-1.2,1.1-5.5,4.4-5.8,4.7c-0.7,0.7-3,1-5.3,1
												c-2.3-0.1-4.5-0.5-5.2-1.2c-0.3-0.3-4.5-3.8-5.6-5c-0.2-0.2-0.6-0.6-0.9-1l0.8-7.5h23.3L569.5,387.1z"/>
											<path class="st14" d="M579.7,345.2c-0.3,2-1.5,9.7-1.5,9.7s-0.2,1.7-0.2,2.5c-0.1,1.1-0.1,3.5-0.4,5c0,0.1,0,0.1,0,0.2
												c-0.3,1.4-0.4,2.2-0.7,3.5c-0.3,1.3-0.7,4.9-0.8,5.6c0,0.8-0.4,2.9-0.6,3.4c-0.2,0.5-0.5,2-1.2,2.9
												c-0.6,0.7-1.2,1.7-1.8,2.5c-0.2,0.2-0.3,0.4-0.4,0.6c-0.3,0.4-1.1,1.3-2,2.2c0,0,0,0.1-0.1,0.1c-0.9,1-1.9,2-2.4,2.5
												c-1.2,1.1-5.5,4.4-5.8,4.7c-0.7,0.7-3,1-5.3,1h-0.1c-2.3-0.1-4.5-0.5-5.2-1.2c-0.3-0.3-4.5-3.8-5.6-5
												c-0.5-0.5-1.4-1.5-2.2-2.5c-0.2-0.2-0.3-0.4-0.5-0.6c-0.7-0.8-1.3-1.6-1.5-1.9c-0.6-0.9-1.4-2.2-2.1-3.2s-0.8-2.4-1-3
												c-0.2-0.5-0.4-2.7-0.4-3.5c0-0.7-0.2-4.3-0.5-5.6c-0.1-0.6-0.2-1.2-0.2-1.7c-0.1-0.5-0.1-1.1-0.3-1.8
												c-0.2-1.5-0.2-4-0.2-5.2c0-0.8-0.1-2.5-0.1-2.5s-0.8-7.7-1-9.8c-0.2-2,1.9-11.8,2.8-13.3c0.9-1.5,6.5-3.5,14.1-4.8
												c1.8-0.3,3.4-0.5,5-0.5l0.3-0.1c1.8,0.1,3.8,0.4,6.1,0.9c7.6,1.6,13.1,3.9,13.9,5.5C578.4,333.3,580,343.2,579.7,345.2z"
												/>
											<path class="st16" d="M538,325.1c-0.4,0.1-1.3,0.2-2.3-0.1c-1-0.3-1.7-0.8-2-1.1c0.9,0.1,2.4,0.2,4.1,0.2
												c11.2-0.1,14.8-5.7,24.7-5.8c2.6,0,6.3,0,10.1,2.3c3.6,2.3,5.3,5.6,6.1,7.4c2.3,1.7,3.2,3.5,3.7,4.7
												c0.4,1,0.5,1.8-0.7,10.9c-0.2,1.6-0.5,3.9-1.2,6.8c-0.4,1.6-0.5,2.4-1,3.3c-0.5,1-1.3,2.6-1.6,3.5
												c-0.3,0.9-0.4,2.2-0.4,2.2c-0.2,0.1-0.5,0.2-0.7,0.3c0-4.3-1-7.5-2.5-10c-0.5-0.9-0.9-1.2-1.3-2.1
												c-1.6-3.3-0.8-6.9,0.2-9.6c-2.2,1.9-6.6,5.1-12.9,6.6c-4.7,1.2-8.8,1-11.4,0.7c1.5-0.1,3.5-0.4,5.7-1.2
												c2.1-0.7,3.7-1.7,4.9-2.4c-2.3,0.9-6.2,2.1-11.2,1.7c-3-0.2-5.5-0.9-7.3-1.6c0,0.4,0.1,0.9,0,1.6
												c-0.1,1.3-0.5,2.3-0.7,2.7c-0.7,1.6-1.2,3.3-1.8,4.9c-1.1,3.4-1.3,6.4-1.3,8.4c-0.2,0.1-0.5,0.1-0.7,0.2
												c0,0-0.1-1.3-0.4-2.2c-0.3-0.9-1.1-2.5-1.6-3.5s-1-2.8-1-3.3c0-0.5-0.5-2.7-0.8-4.2c-0.3-1.4-0.5-2.8-0.5-4.2
												c-0.1-1.4-0.1-2.8,0-3.9c0-1.4,0.1-2.4,0.2-3.6c0.3-2,0.6-4.6,2.5-7C535.4,327.2,536.4,326.1,538,325.1z"/>
										</g>
										<g>
											<path class="st7" d="M551.6,360.7c-0.7,0.4-2.2,1.2-4.2,1.3c-2.6,0-4.5-1.3-5.1-1.8c0.8-1,1.8-1.7,2.9-2
												c1.1-0.4,2.2-0.4,3.3,0c0.3,0.1,0.5,0.2,0.7,0.3C550.5,359.1,551.3,360.2,551.6,360.7z"/>
											<path class="st17" d="M549,359.7c0,1.3-1.4,2.3-2.6,2.2c-1.2-0.1-2.4-1.3-2.3-2.6c0-0.4,0.2-0.8,0.5-1.1
												c1.1-0.4,2.2-0.4,3.3,0c0.2,0.1,0.5,0.2,0.7,0.3C548.8,358.8,549,359.2,549,359.7z"/>
											<path d="M544.8,359.9c0,0.7,0.6,1.3,1.3,1.3c0.8,0,1.5-0.7,1.4-1.5c0-0.8-0.8-1.4-1.6-1.3
												C545.3,358.5,544.7,359.1,544.8,359.9z"/>
											<path class="st7" d="M546.9,359.5c0,0.2,0.2,0.3,0.3,0.3s0.3-0.2,0.3-0.3c0-0.2-0.2-0.3-0.3-0.3
												C547,359.1,546.9,359.3,546.9,359.5z"/>
											<path class="st16" d="M552.2,352.6c-5.9-1.1-10.4-1-11.6-0.2c-0.8,0.6-1.3,1.3-1.3,1.3c-0.4,0.7-0.6,1.3-0.7,1.7
												c0.5-0.3,1.2-0.7,2.1-1c1.3-0.4,2.6-0.6,5.7-0.3c1.5,0.1,3.5,0.4,5.9,0.8c0.1-0.2,0.1-0.5,0.1-0.7
												C552.4,353.5,552.3,353,552.2,352.6z"/>
											<path class="st16" d="M560.9,352.6c5.9-1.1,10.4-1,11.6-0.2c0.8,0.6,1.3,1.3,1.3,1.3c0.4,0.7,0.6,1.3,0.7,1.7
												c-0.5-0.3-1.2-0.7-2.1-1c-1.3-0.4-2.6-0.6-5.7-0.3c-1.5,0.1-3.5,0.4-5.9,0.8c-0.1-0.2-0.1-0.5-0.1-0.7
												C560.7,353.5,560.8,353,560.9,352.6z"/>
											<path class="st18" d="M551.6,360.7c-0.4-0.4-2.1-2.1-4.8-2.2c-2.4-0.1-4.1,1.3-4.6,1.7c0.1-0.1,1.8-2.8,4.8-2.6
												C550,357.8,551.5,360.5,551.6,360.7z"/>
										</g>
										<g>
											<path class="st7" d="M562.7,360.3c0.5,0.4,2,1.6,4.3,1.7c3,0.1,4.9-1.7,5.3-2c-0.4-0.4-1.4-1.5-3.1-1.9
												c-0.3-0.1-1.9-0.5-3.6,0.2c-0.1,0-0.4,0.2-0.8,0.3C563.7,359.1,563.1,359.8,562.7,360.3z"/>
											<path class="st17" d="M564.4,360c0.1,1.3,1.5,2.2,2.7,2c1.2-0.2,2.3-1.4,2.1-2.7c-0.1-0.4-0.3-0.8-0.5-1
												c-1.1-0.3-2.2-0.3-3.2,0.1c-0.2,0.1-0.5,0.2-0.7,0.3C564.5,359.1,564.4,359.5,564.4,360z"/>
											<path d="M567.7,359.8c0,0.8-0.6,1.4-1.3,1.4c-0.7,0-1.3-0.6-1.3-1.4c0-0.8,0.6-1.4,1.3-1.4
												C567.1,358.4,567.7,359,567.7,359.8z"/>
											<path class="st7" d="M567.8,359.5c0,0.2-0.1,0.3-0.3,0.3c-0.2,0-0.3-0.1-0.3-0.3c0-0.2,0.1-0.3,0.3-0.3
												C567.7,359.2,567.8,359.3,567.8,359.5z"/>
											<path class="st18" d="M562.7,360.3c0.6-0.5,1.8-1.4,3.6-1.8c3.1-0.6,5.5,1.1,6,1.4c-1.6-2-4-2.8-6.2-2.3
												C564,358.2,563,359.9,562.7,360.3z"/>
										</g>
										<g>
											<g>
												<path class="st19" d="M560.6,372c0.1,0.2-1.6,1.9-3.6,1.7c-1.6-0.1-2.9-1.4-2.8-1.6c0.1-0.2,1.1,0.6,2.8,0.7
													C559.1,372.9,560.5,371.8,560.6,372z"/>
											</g>
										</g>
										<g>
											<path class="st19" d="M559.1,380.6c-0.8,0-3.3,0.1-6.7-0.3c-1.1-0.2-1.7-0.2-1.7-0.4c0-0.3,3.2-0.7,6.4-0.7
												c3,0.1,6.1,0.6,6.1,0.9C563.2,380.5,560.7,380.6,559.1,380.6z"/>
										</g>
										<g>
											<path class="st16" d="M567.2,386.2c-0.1,0.1-0.5,0.5-0.7,0.8c-0.1,0.1-0.2,0.2-0.2,0.2c-1.7,1.4-4.4,3.5-4.7,3.7
												c-0.7,0.7-3,1-5.2,1h-0.1c-2.2-0.1-4.5-0.5-5.2-1.2c-0.2-0.2-1.3-1.2-2.6-2.3c-0.1-0.1-0.3-0.2-0.4-0.4
												c-0.7-0.7-1.5-1.6-2-2.1v0c0.3-1.4,1-2.1,1.3-3.5c0.4,0.6,0.8,1,1.2,1.3c0.1,0.1,0.1,0.1,0.2,0.2
												c0.1,0.1,0.1,0.2,0.2,0.3c0.3,0.4,0.9,0.9,1.7,1.2c2,0.7,3.8-0.8,3.9-0.9c-0.2-0.7-0.3-1.4-0.5-2.2c0.9,0,1.9,0,2.8,0
												c1,0,2,0,2.9,0c-0.2,0.8-0.3,1.6-0.5,2.4c0.8,1,2,1.5,3.2,1.2c0.7-0.2,1.2-0.6,1.5-1c0.2-0.2,0.3-0.4,0.4-0.6
												c0.1-0.2,0.2-0.3,0.2-0.4c0.3-0.3,0.7-0.8,1.1-1.4C566.2,384,566.9,384.7,567.2,386.2
												C567.2,386.1,567.2,386.2,567.2,386.2z"/>
										</g>
										<path class="st16" d="M567.2,386.2c-0.1,0.1-0.5,0.5-0.7,0.8c-0.6-0.6-1.2-1.3-1.7-1.9c0,0,0,0-0.1-0.1c0-0.2,0-0.5,0-0.7
											c-0.1-1.6-0.2-3.2-0.3-4.9c-1.1-0.5-2.6-1.1-4.5-1.3c-1-0.1-2-0.1-2.7,0c-1.1-0.2-3-0.4-5.1,0.2c-1.2,0.3-2.1,0.8-2.8,1.2
											c-0.2,1.4-0.4,2.8-0.5,4.2c0,0.2,0,0.4-0.1,0.6c-0.2,1.2-0.3,2.4-0.5,3.6c-0.7-0.7-1.5-1.6-2-2.1v0
											c0.2-1.2,0.5-2.3,0.7-3.5c0.4-1.8,0.8-3.6,1.1-5.4c1.2-0.7,2.8-1.4,5-1.8c1-0.2,1.9-0.2,2.7-0.2c0.5,0.1,0.9,0.3,1.4,0.4
											c0.5-0.1,1-0.2,1.4-0.3c0.9,0,2,0.1,3.2,0.4c1.7,0.4,3.1,1.1,4,1.7c0.3,1.8,0.6,3.6,0.9,5.4
											C566.8,383.7,567,384.9,567.2,386.2C567.2,386.1,567.2,386.2,567.2,386.2z"/>
									</g>
									<path class="st20" d="M577.8,356.3c-0.2,0-0.4,0.1-0.6,0.1c-0.2,0-0.3,0-0.5,0l0,0c-0.8-0.1-1.4-0.4-1.7-0.6
										c0,0-1.6-1-2.5-1.5c-0.5-0.3-1.1-0.5-1.6-0.6c-1.6-0.5-3.1-0.4-3.7-0.4c-0.3,0-0.7,0-1.2,0.1l0,0c-0.7,0.1-1.7,0.4-2.7,0.8
										c-1,0.4-1.7,0.9-2.2,1.3c-0.3,0.3-0.7,0.4-1,0.2c-0.3-0.1-0.5-0.4-0.6-0.6c-0.1-0.1-0.2-0.2-0.3-0.2l-4.1-0.1
										c-0.1,0-0.2,0.1-0.3,0.2c-0.1,0.2-0.3,0.4-0.6,0.5c-0.4,0.1-0.7,0-1-0.3c-0.5-0.4-1.2-0.9-2.2-1.4
										c-0.8-0.4-1.6-0.7-2.3-0.8l0,0c-0.7-0.2-1.3-0.2-1.6-0.3c-0.3,0-1-0.1-1.7,0c-1,0.1-2.3,0.3-3.5,0.9
										c-1,0.5-2.6,1.5-2.6,1.5c-0.1,0.1-0.3,0.2-0.5,0.3c-0.2,0.1-0.4,0.2-0.6,0.2c-0.2,0-0.3,0.1-0.5,0.1c-0.2,0-0.4,0-0.5,0
										c-0.2,0-0.4-0.1-0.6-0.1c0,0.1,0,0.3,0,0.4l0,0c0,0.7-0.1,1.3-0.1,2c0.3,0,0.6,0,0.9,0.1c0.1,0,0.2,0,0.3,0.1
										c0.1,0,0.2,0.1,0.3,0.2c0.2,0.2,0.1,0.5,0.1,0.6c0,0.2,0,0.4,0,0.6c0.1,0.6,0.2,1.4,0.5,2.3c0,0,0,0,0,0
										c0.2,0.6,0.5,1.3,0.8,1.9c0.3,0.5,0.6,1,1,1.6c0.4,0.5,0.9,1,1.5,1.5c2.3,1.6,4.8,1.4,5.4,1.4c0.6-0.1,2.6-0.3,4.4-1.9
										c1.3-1.2,1.8-2.6,2.3-3.8c0.6-1.6,0.8-2.9,0.8-3.9c0-0.1,0-0.1,0-0.2c-0.1-0.2-0.4-0.9-0.1-1.4c0.2-0.3,0.6-0.4,1-0.6
										c0.4-0.1,2.3-0.1,2.8,0c0.4,0.1,0.8,0.2,1,0.6c0.3,0.5,0,1.2-0.1,1.4c0,0,0,0.1,0,0.1c0,1,0.1,2.3,0.7,3.9
										c0.4,1.2,0.9,2.6,2.2,3.9c1.7,1.6,3.7,2,4.3,2.1c0.7,0.1,3.1,0.4,5.5-1.2c1.4-0.9,2.2-2.1,2.7-3c1.1-1.9,1.5-3.7,1.6-4.7
										c0-0.1,0-0.4,0.2-0.6c0.1-0.1,0.2-0.2,0.3-0.2c0,0,0.1,0,0.1,0c0.1,0,0.3-0.1,0.4-0.1c0.2,0,0.4,0,0.6,0
										C577.8,357.9,577.8,357.1,577.8,356.3z M553.4,360.3c-0.2,2.4-1.5,4-1.9,4.5c-0.5,0.5-1.3,1.5-2.8,2.1
										c-3,1.1-5.7-0.6-6-0.8s-1.8-1.2-2.6-2.9c-0.3-0.6-0.5-1.2-0.6-1.9c-0.1-0.7-0.1-1.3,0-1.9c0.1-0.8,0.3-1.4,0.5-1.8
										c0.2-0.4,0.9-2,2.5-2.9c1-0.6,1.9-0.7,3-0.7c0.4,0,0.8,0,1.3,0l0.1,0c1.2,0.1,2.8,0.1,4.3,1.1c0.5,0.3,1.4,0.9,2,2
										C553.5,358.4,553.5,359.6,553.4,360.3z M574.7,361.9c-0.6,3-3,4.4-3.4,4.7c-0.4,0.2-3.1,1.8-6,0.6
										c-1.5-0.6-2.3-1.6-2.8-2.2c-0.4-0.5-1.7-2.1-1.8-4.6c0-0.7-0.1-1.9,0.6-3.1c0.6-1.1,1.5-1.6,2-2c1.6-1,3.2-1,4.4-1
										c0.4,0,0.7,0,1.1,0l0,0c0.7,0,1.4,0.1,2.1,0.3c0.4,0.1,0.7,0.3,1.1,0.5c1.6,1,2.2,2.5,2.4,3
										C574.7,358.8,575.1,360.2,574.7,361.9z"/>
								</g>
								<path class="st12" d="M569.9,390c-1.2,1.5-2.5,3.1-3.8,4.7c-1.9,2.2-3.8,4.2-5.7,6.1c-0.3,16.3-0.7,32.6-1,48.8
									c-0.3,16.3-1.2,28.5-1,28.5c0.2,0,0.9-7.9,3.1-41.9c3.2-6.3,6.4-12.7,9.6-19c-1.9-0.9-3.8-1.8-5.7-2.7
									c1.9-1.8,3.7-3.7,5.6-5.5c-0.1-2.8,0-6.4,0.8-10.5c0.6-2.8,1.3-5.2,2.1-7.2C572.6,390.9,571.2,390.4,569.9,390z"/>
								<path class="st12" d="M544.4,390.2c-1.8,0.6-3.6,1.2-5.5,1.7c1.1,2.4,2.3,5.4,3.2,8.9c1,4.1,1.3,7.8,1.4,10.7
									c2.3,0.5,4.6,1,7,1.5c-1.9,1.4-3.8,2.7-5.8,4.1c3.3,6,6.5,12.1,9.8,18.1c1.2,35.6,1.8,43.2,2.1,43.2
									c0.5,0,1.2-15.5,0.5-28.9c-0.7-12.6-1.4-25.2-2.1-37.8c-1.4-4.5-3.4-9.7-6.6-15.2C547,394.1,545.7,392,544.4,390.2z"/>
								<path class="st12" d="M583.7,470.6c-13.9,2.5-29.9,4.5-47.5,5.2c-13.3,0.5-25.7,0.3-36.9-0.4c-1.7-0.2-2.9-0.8-3.6-1.1
									c-0.7-0.4-1.4-0.8-2.1-1.5c-0.7-0.9-1.1-2-1.2-3.1c5.8,6.8,27.7,3.6,44.9,3.2c13.4-0.3,25.3-1.7,35.6-3.5
									c-0.8-1.1-1.6-2.4-2.4-3.8c-0.9-1.5-1.6-3-2.2-4.3c-7.4,0.4-15.6,0.5-24.4,0c-7.3-0.4-14-1.1-20.2-2c-1.5-1.3-2.9-2.6-4.4-4
									c10.3,1.4,21.5,2.5,33.7,2.9c8.4,0.3,16.4,0.2,23.9-0.1c0.7,1.1,1.4,2.3,2.1,3.6C580.9,464.6,582.4,467.7,583.7,470.6z"/>
								<path class="st7" d="M492.4,469.6c12.5,2.1,27.7,3.6,44.9,3.2c13.4-0.3,25.3-1.7,35.6-3.5c-0.8-1.1-1.6-2.4-2.4-3.8
									c-0.9-1.5-1.6-3-2.2-4.3c-7.4,0.4-15.6,0.5-24.4,0c-7.3-0.4-14-1.1-20.2-2"/>
							</g>
							<g>
								<g>
									<path class="st21" d="M561.6,405.4c-0.2-0.5-0.4-1-0.5-1.2c0-0.1-0.1-0.2-0.1-0.2c0,0,0,0,0,0c0-0.1,0.2-0.5,0.3-0.6
										c0.1-0.1,0.1-0.2,0.2-0.3c0.9-1.6,1.7-3.4,1.7-5.3v-0.1l0-0.2c0-0.6,0-1.2,0-1.8c0,0,0,0,0,0c0.1-1.7,0.5-3.4,1.8-4.6
										c0.1-0.1,0.3-0.3,0.5-0.4c0.6-0.5,1.2-1,1.2-1.7c0-0.7-0.7-1.2-1.4-1.2c-0.6,0-1.3,0.2-2,0.7c-2.3,1.6-3.5,3.7-3.6,5.8
										c0,0.1-0.1,0.1-0.1,0.2c-0.1,0-0.2,0-0.2-0.1c-0.7-2.3-1.5-5-3.1-7c-1.6-1.8-4.4-3.1-6.8-2.1c-0.2,0.1-0.3,0.2-0.5,0.3
										c-0.4,0.3-0.8,0.7-0.7,1.2c0,0.2,0.1,0.4,0.2,0.5c0,0,0,0,0,0c0,0,0,0.1,0,0.1c0,0.1,0.1,0.2,0,0.2c0,0.2-0.1,0.3-0.2,0.4
										c0,0-0.1,0.1-0.1,0.1c-0.1,0.1-0.2,0.1-0.2,0.1c-0.3,0.1-0.7,0.2-1,0.3c-0.4,0.1-1.2,0.4-1.4,1c0,0.1-0.1,0.2-0.1,0.3
										c0,0.1,0,0.3,0.1,0.4v0c0,0.1,0,0.1,0,0.2c0,0.3-0.2,0.6-0.5,0.7c0,0-0.1,0-0.1,0h0c0,0,0,0,0,0c-0.9,0-1.2,0.1-1.9,0.4
										c-0.3,0.1-1.7,1-1.7,2.1c0,0.1,0,0.2,0.1,0.3c0,0,0,0,0,0c0,0,0,0.1,0,0.1c0,0.2,0,0.4-0.1,0.5c0,0.1-0.1,0.1-0.1,0.1
										c0,0,0,0-0.1,0c0,0,0,0-0.1,0c-0.3,0.2-0.6,0.6-0.7,1c-0.3,0.8,0.2,1.7,0.9,2.2c0.1,0.1,0.2,0.2,0.3,0.3
										c0.6,0.5,1.4,1.1,2.1,1.3c0.1,0,0.1,0.1,0.1,0.1c0.9,3,3.1,5.6,5.2,8c0.3,0.3,0.6,0.6,0.9,0.9c0.2,0.2,0.4,0.4,0.7,0.6
										c0.2,0.2,0.4,0.4,0.4,0.4c0.3,0.3,0.9,1,2.3,2.6c1.1-0.1,2.9-0.5,4.8-1.5c2.2-1.2,3.6-2.7,4.4-3.6
										C562.1,406.5,561.9,405.9,561.6,405.4z"/>
									<path class="st19" d="M554,413.6l1.3,3.4l1.6,4.5l8.7-8.3c-0.5-0.6-1-1.2-1.2-1.9c-0.1-0.3-0.3-0.7-0.4-1.2c0,0,0,0,0,0
										c-0.1-0.2-0.3-0.5-0.4-0.7c-0.2-0.5-0.6-1.4-1-2.3c-0.9,0.8-2.1,1.7-3.5,2.6c-2.1,1.3-4.1,2-5.7,2.5
										C553.5,412.7,553.7,413.2,554,413.6z"/>
								</g>
								<g>
									<path class="st22" d="M548.2,388.2c1.7-0.6,3.3-0.2,5,0.2c-1.6-0.4-3.4-1.2-4.8-1C548.6,387.7,548.4,388,548.2,388.2z"/>
								</g>
								<g>
									<path class="st22" d="M544.9,391c0.7,0,1.8,0,3.1,0.2c1.1,0.1,1.8,0.3,1.8,0.3c0,0-0.7-0.3-4.3-1.3
										C545.7,390.6,545.3,391,544.9,391z"/>
								</g>
								<g>
									<path class="st22" d="M541.2,394.6c0.7,0,1.5,0,2.4,0c1.1,0.1,2.1,0.3,2.9,0.6c-0.6-0.3-1.5-0.7-2.6-1
										c-1-0.2-1.9-0.3-2.6-0.3c0,0.1,0.1,0.2,0,0.4C541.3,394.4,541.3,394.5,541.2,394.6z"/>
								</g>
							</g>
							<path class="st7" d="M550.5,414.5c2.3-0.8,5-1.8,7.9-3.4c3.1-1.7,5.6-3.5,7.5-5.1c7.4,12.7,14.9,25.4,22.3,38.1
								c0.1-7,0.2-13.9,0.3-20.9c0.5,7.8,1,15.6,1.5,23.5c3.3,4.9,6.5,9.7,9.8,14.6c3.3-6.3,5.1-11.8,6-15.8c0,0,4.4-18.5-0.9-36.2
								c0-0.2-0.1-0.2,0-0.2c0.7,2.1,1.5,4.6,2.2,7.5c1.2,5.4,1.7,11.9,1.8,13.1c0,0.2,0,0.5,0.1,0.9c0,0,0.3,5.2,0.3,10.3
								c-0.2,19.9-0.3,35.6-8.1,39.4c-3.2,1.6-6.8,0.6-8.6,0.1C570.5,474.1,553.2,422.5,550.5,414.5z"/>
							<path class="st12" d="M565.9,406c8.2,11.7,16.6,24.8,24.1,36.9c0,0-2.8,0.7-2.8,0.7c0.4-5.2,1-12.5,1.5-17.6
								c0,0,3.2,0.2,3.2,0.2c-0.1,5-0.3,15.1-0.4,20.1c0,0-0.2-0.8-0.2-0.8c1.6,2.5,3.1,5.1,4.7,7.6c1.6,2.5,3.1,5.1,4.6,7.7
								l-1.6,0.2c2.2-5.2,4.5-10.4,6.8-15.5c-1.8,5.9-3.7,11.8-5.8,17.7c0,0-1-1.4-1-1.4c-3.5-4.9-6.9-9.8-10.2-14.7
								c0,0-0.2-0.3-0.2-0.3l0-0.4c0-5,0-15.1,0-20.1c0,0,3.2,0.2,3.2,0.2c-0.6,6.9-1.5,15.4-2.1,22.3c0,0-2.4-4.1-2.4-4.1
								C580.2,432.1,572.5,418.6,565.9,406L565.9,406z"/>
							<path class="st23" d="M608.9,429.6"/>
						</g>
					</g>
				</g>
				<g style="clip-path:url(#SVGID_00000146493104260941893050000012205008216601818531_);">
					
						<rect x="307.9" y="569.3" transform="matrix(-1.836970e-16 1 -1 -1.836970e-16 975.9873 174.6822)" class="st24" width="185.6" height="12.1"/>
					
						<rect x="491.9" y="397" transform="matrix(-1.836970e-16 1 -1 -1.836970e-16 1131.0054 -9.3115)" class="st25" width="156.6" height="327.8"/>
					
						<rect x="647.3" y="569.3" transform="matrix(-1.836970e-16 1 -1 -1.836970e-16 1315.4207 -164.7511)" class="st24" width="185.6" height="12.1"/>
				</g>
				
					<rect x="347.3" y="478.1" style="clip-path:url(#SVGID_00000146493104260941893050000012205008216601818531_);fill:#7C3A25;" width="447.7" height="17"/>
				<g style="clip-path:url(#SVGID_00000146493104260941893050000012205008216601818531_);">
					<path class="st7" d="M750.5,477.6c0.7-1.2,1.4-3.1,1.4-5.5c-0.1-2.2-0.8-3.9-1.4-5h56.3c0.8,1.5,1.2,3.1,1.3,4.7
						c0.1,2.5-0.6,4.5-1.3,5.8H750.5z"/>
					<path class="st27" d="M806.5,467.5c0.7,1.3,1.1,2.8,1.1,4.2c0.1,2.2-0.5,4.1-1.1,5.3h-55.2c0.6-1.3,1.1-3,1.1-5.1
						c0-1.8-0.5-3.3-1.1-4.5H806.5 M807.1,466.5c-19.2,0-38.4,0-57.5,0c0.5,0.8,1.7,2.7,1.8,5.5c0.1,3.1-1.3,5.3-1.8,6h57.5
						c0.5-0.9,1.7-3.3,1.5-6.4C808.5,469.3,807.6,467.5,807.1,466.5L807.1,466.5z"/>
				</g>
				<g style="clip-path:url(#SVGID_00000146493104260941893050000012205008216601818531_);">
					<path class="st7" d="M754.1,466c0.7-1.2,1.4-3.1,1.4-5.5c-0.1-2.2-0.8-3.9-1.4-5h56.3c0.8,1.5,1.2,3.1,1.3,4.7
						c0.1,2.5-0.6,4.5-1.3,5.8H754.1z"/>
					<path class="st28" d="M810.2,456c0.7,1.3,1.1,2.8,1.1,4.2c0.1,2.2-0.5,4.1-1.1,5.3H755c0.6-1.3,1.1-3,1.1-5.1
						c0-1.8-0.5-3.3-1.1-4.5H810.2 M810.8,455c-19.2,0-38.4,0-57.5,0c0.5,0.8,1.7,2.7,1.8,5.5c0.1,3.1-1.3,5.3-1.8,6h57.5
						c0.5-0.9,1.7-3.3,1.5-6.4C812.2,457.7,811.3,455.9,810.8,455L810.8,455z"/>
				</g>
				
					<rect x="645.3" y="421.5" style="clip-path:url(#SVGID_00000146493104260941893050000012205008216601818531_);fill:#4F4E4E;" width="96.8" height="50.8"/>
				<polygon style="clip-path:url(#SVGID_00000146493104260941893050000012205008216601818531_);fill:#3A3A3A;" points="
					742.1,478.1 645.2,478.1 645.2,472.3 742.1,472.3 				"/>
				<polygon style="clip-path:url(#SVGID_00000146493104260941893050000012205008216601818531_);fill:#3A3A3A;" points="
					645.3,478.1 632.7,478.1 632.7,473.4 645.3,472.3 				"/>
				<path style="clip-path:url(#SVGID_00000146493104260941893050000012205008216601818531_);fill:#BCA18C;" d="M356.3,134.4"/>
				<g style="clip-path:url(#SVGID_00000146493104260941893050000012205008216601818531_);">
					<g>
						<g>
							<path class="st32" d="M267.7,360.1c0.1,3.8,0.3,9.7,1.4,16.7c3,18.5,8.9,25.6,11.3,39.7c1.1,6.7,1.8,16.6-1.2,29.4
								c-9.6-1.1-19.2-2.2-28.8-3.4c0.8-27.7,1.6-55.3,2.4-83C257.8,359.7,262.8,359.9,267.7,360.1z"/>
							<path class="st33" d="M267.8,424.5c-1,1.2-2.7,2.9-5.3,4.3c-2.5,1.4-4.9,1.8-6.3,2c-5.6-1.1-11.7-2.5-18.1-4.6
								c-4-1.3-7.8-2.6-11.3-4c2.4-1.9,4.8-3.7,7.2-5.6c0.2-6.8,0.5-13.7,0.7-20.5c0.7,0.1,1.4,0.2,2.2,0.3c0.2,0,0.3,0,0.5,0.1
								c1.1,0.1,2.2,0.3,3.6,0.4c0,0,0.1,0,0.1,0c0.4,0,0.7,0.1,1.1,0.1c1,0.1,2,0.2,3,0.3c0.6,0,1.2,0.1,1.8,0.1
								c2.5,0.2,5.6,0.4,9.2,0.6c-0.1,3.6-0.1,7.3-0.2,10.9c0,2.7-0.1,5.5-0.1,8.2C259.8,419.5,263.8,422,267.8,424.5z"/>
							<path class="st34" d="M326.3,545.6c-39-2-71.5-22.7-82-50.5c-3.7-9.9-5.3-28.9-3-48.2c1-8.1,2.5-14.7,3.8-19.4
								c4.5,1.5,9,2.9,13.5,4.4c3.8-2.1,7.6-4.2,11.4-6.3c2,1.3,4.1,2.5,6.1,3.8c0.4,1.5,0.7,3,1.1,4.5
								c5.9,24.5,10.3,48.6,13.4,72.2C302.5,519.4,314.4,532.5,326.3,545.6z"/>
							<g id="_x36__00000088107990940177726070000002096790803581838255_">
								<path class="st35" d="M208.5,706.9c3.1,0,5.7-2.2,5.7-4.9V583.5c0-2.7-2.6-4.9-5.7-4.9c-3.1,0-5.7,2.2-5.7,4.9V702
									C202.8,704.7,205.4,706.9,208.5,706.9z"/>
								<path class="st36" d="M222.5,706.9c3.1,0,5.7-2.2,5.7-4.9V583.5c0-2.7-2.6-4.9-5.7-4.9c-3.1,0-5.7,2.2-5.7,4.9V702
									C216.8,704.7,219.3,706.9,222.5,706.9z"/>
								<path class="st35" d="M275.7,706.9c3.1,0,5.7-2.2,5.7-4.9V583.5c0-2.7-2.6-4.9-5.7-4.9c-3.1,0-5.7,2.2-5.7,4.9V702
									C270,704.7,272.5,706.9,275.7,706.9z"/>
								<path class="st36" d="M288.7,706.9c3.1,0,5.7-2.2,5.7-4.9V583.5c0-2.7-2.6-4.9-5.7-4.9c-3.1,0-5.7,2.2-5.7,4.9V702
									C283,704.7,285.5,706.9,288.7,706.9z"/>
								<path class="st37" d="M219.8,432.9c-11.6,48.3-2.7,72.6,8.7,85.9c20.5,24,65.1,25.5,74.3,53.9c2.4,7.3,3.5,22.2,2.6,24.3
									c-0.9,2-2.8,3.6-5.2,3.5c-3,0.5-6.3-4.2-8.2-5.8c-5.8-5.8-13.6-9-21.8-9c0,0-51.8,0-51.8,0c-6.1,0.1-14.8-0.8-22.5-6
									c-15.7-10.7-16.8-32.2-20.2-77.5c-1.1-14.4-3-40.2-5.9-74.4c7.1-0.6,15.9-0.8,25.9,0.3C205.1,429,213.2,430.9,219.8,432.9z"
									/>
							</g>
							<path class="st38" d="M384,707.6h-44.3c-2.1,0-3.9-1.8-3.7-4c0.4-4.6,1.5-11.5,1.2-14.6c0.2-2.7-3.7-37.3-4-40.8h27.8
								l-4.5,35.7c-0.5,4.2,2,8.2,6,9.6c5.4,1.8,11.6,2.6,15.7,3.6c3.6,0.9,6.8,2.1,8.7,4.6C388.8,704.1,387,707.6,384,707.6z"/>
							<path class="st39" d="M334.6,702.9c0,0.7,0.2,1.3,0.4,2.1c0.4,1.5,1.8,2.6,3.4,2.6h45.9c0.6-0.2,3.5-1.1,3.9-3
								c0.5-2.2-2.3-5.5-7.5-6.8c1.8,0.8,2.6,1.5,2.5,2c-0.4,2.1-16.2,1.6-47.6-1.6C334.6,700.3,334.5,702,334.6,702.9z"/>
							<path d="M364.9,676.4c-15.6,5.7-36.3,0-36.3,0c-2-31-4-52.1-6-83.1c-31.9-8.8-63.8-17.6-95.7-26.4c-2.9-12.3-5.8-24.7-8.7-37
								c20.7-1.9,41.3-3.7,62-5.6c22.5,12,44.9,24.1,67.4,36.1c9.4,5.7,15.2,15.8,15.4,26.7C363.6,617.7,364.2,643.5,364.9,676.4z"
								/>
							<path class="st38" d="M374.7,707.6h-44.3c-2.1,0-3.9-1.8-3.7-4c0.4-4.6,1.5-11.5,1.2-14.6c0.2-2.7-3.7-37.3-4-40.8h27.8
								l-4.5,35.7c-0.5,4.2,2,8.2,6,9.6c5.4,1.8,11.6,2.6,15.7,3.6c3.6,0.9,6.8,2.1,8.7,4.6C379.5,704.1,377.7,707.6,374.7,707.6z"
								/>
							<path class="st40" d="M325.4,704.1c0.1,1,0.5,1.8,0.5,1.8c0.4,0.8,1,1.3,1.3,1.5c0.2,0.1,0.3,0.1,0.5,0.2H375
								c0.8-0.2,4.4-1.1,4.8-3c0.5-2.8-5.9-5.8-6.5-6c-1.3-0.6-2.5-1-3.4-1.2c1.1,0.8,1.6,1.4,1.5,2c-0.6,2.5-15.2,1.8-44-2.2
								C325.8,700,325.2,702.6,325.4,704.1z"/>
							<path class="st41" d="M355.6,676.4c-10.4-2.2-22.9-3-36.3,0c-1.5,0.3-2.9,0.7-4.3,1.1c-0.3-10.1-0.8-23.8-2-40.2
								c-2-28.6-3.5-33.7-7.1-38.4c-7-9.3-18-12.1-39.9-17.5c-26.5-6.6-40.1-5.7-48.4-14.5c-5.2-5.5-7.7-12.6-8.7-19.7
								c-0.2-1.1-0.3-2.2-0.4-3.2c-0.4-5-0.2-9.8,0.3-14.1c23.6-2.1,47.1-4.2,70.7-6.3c1.9-0.2,3.7-0.3,5.6-0.5
								c2.5,1.9,5,3.9,7.6,5.7c16,11.9,33.2,23,48.7,35.3c7.5,5.9,11.9,14.9,12.2,24.4C354.2,618.9,354.9,644,355.6,676.4z"/>
							<path class="st7" d="M280.3,522.8c-0.3,0.1-0.6,0.3-0.7,0.7c-1.5,5.1,58.7,15.4,84.7,47.5c12,14.9,21.8,40.8,12.2,89.1
								c-24-0.8-48-1.6-72-2.4c2.9-46-8.4-66-21.1-75.2c-24.6-17.8-67-4.1-74-21.6c-2.1-5.2-4.4-21.9-5.2-34c0-0.2,0-0.5-0.1-1
								c-0.9-15.4-1.2-26.5-1.3-29.3c-0.2-7.7-0.9-23.7-2.9-59.3c1.7-2.1,3.6-4.2,5.8-6.3c9.1-8.7,19-13.1,26.3-15.6
								c7.7,3,15.4,6,23.1,8.9c1.6-1.5,3.2-3,4.8-4.5c5,3.1,9.9,6.1,14.9,9.2c1.7,28.5,3.3,56.9,4.7,85.4
								C280,516.8,280.2,520.4,280.3,522.8z"/>
							<g>
								<path class="st42" d="M260.2,474.7c-0.5-5.1-1.2-10.4-1.9-15.8c-1.6-11-3.6-21.4-5.8-31.1c2.3-0.4,4.7-0.7,7-1.1
									c2.7,9,5.1,19.6,6.4,31.4c0.7,5.6,1,11,1.2,16c-0.7,1.5-1.4,3-2.1,4.4C263.4,477.3,261.8,476,260.2,474.7z"/>
							</g>
							<path class="st42" d="M225.1,417.4c10.8,4.2,21.6,8.5,32.3,12.7c3-2.2,6-4.4,8.9-6.6c-2.2-1.4-4.5-2.7-6.7-4.1
								c-1.6,1.3-3.1,2.5-4.7,3.8c-7.6-2.9-15.2-5.8-22.8-8.7C229.8,415.5,227.4,416.4,225.1,417.4z"/>
							<path class="st34" d="M314.6,552.6c-1.2,2.5-2.7,4.2-4.1,5.5c-20.5-8.9-41.4-17.8-62.5-26.6c-10.4-4.3-20.7-8.5-30.9-12.7
								c-4.7-22.5-9.3-45-14-67.5c-1-4.7-1.9-9.4-2.9-14c1.2-1.1,3.1-2.7,5.9-3.6c8.1-2.8,15.7,2.1,17.5,3.3c6,3.9,8.7,9.5,9.7,12.1
								c1.4,7.6,3,15.4,4.8,23.3c2,9.2,4.2,18.1,6.4,26.7c11,5.3,22.2,10.8,33.5,16.7c12.4,6.4,24.3,12.8,35.7,19.3
								C314.5,536.4,318.4,544.6,314.6,552.6z"/>
							<g>
								<path class="st43" d="M336.3,555.1C336.3,555.1,336.3,555.1,336.3,555.1c2.1,1.7,3.7,3,4.6,3.8c2.1,1.7,3.5,2.9,3.2,3.7
									c-0.1,0.4-0.6,0.6-0.7,0.6c-0.7,0.2-1.3-0.2-2.5-1c-1.2-0.9-1.9-1.3-2.4-1.8c-0.9-0.8-2.3-1.9-4.3-3c1.6,1,2.8,1.9,3.7,2.6
									c2.2,1.7,2.6,2.2,2.5,2.5c-0.1,0.2-0.5,0.3-1,0.3c-2.9,0-5.9-2.2-8.1-3.4c-1.3-0.7-3.3-1.8-5.9-2.6c-1.4,0-4.1-0.2-7.1-1.7
									c-2.6-1.3-4.2-3.1-5.1-4.1c-0.3-0.1-0.5-0.3-0.8-0.4c0.4-1.5,0.8-3.3,1-5.4c0.2-2,0.2-3.7,0.1-5.2c0.8,0.5,1.6,0.9,2.4,1.4
									c0.7,0,1.6,0,2.8,0.1c0,0,2.8,0.3,5.6,1.5c6.1,2.7,21.9,14.4,20.7,16.1c-0.1,0.1-0.3,0.2-0.4,0.2c-1,0.2-1.7-1.6-4-3.5
									c-1.1-0.9-2-1.4-2-1.4c1,0.7,1.8,1.3,2.4,1.7c3.4,2.5,4,3.5,4.1,4.5c0,0.2,0.1,0.8-0.2,1c-0.7,0.4-2.6-1.5-3.5-2.4
									c-0.6-0.5-1.3-1-1.9-1.6C338.3,556.7,337.3,555.9,336.3,555.1z"/>
							</g>
							<g>
								<path class="st44" d="M260.8,425.2"/>
							</g>
							<g>
								<path class="st45" d="M256.2,398c-0.1,3.6-0.1,7.3-0.2,10.9c-0.7,0.2-1.3,0.3-2.1,0.4c-2.4,0.2-5.8-0.6-13-5.1
									c-1.2-0.7-2.8-1.8-4.8-3.1c0.2-1.2,0.4-2.5,0.6-3.9c0-0.3,0.1-0.6,0.1-0.9c0.2,0,0.3,0,0.5,0.1c1.2,0.2,2.3,0.3,3.6,0.4
									c0,0,0.1,0,0.1,0c0.4,0,0.7,0.1,1.1,0.1c1,0.1,2,0.2,3,0.3c0.6,0,1.2,0.1,1.8,0.1C249.4,397.5,252.5,397.8,256.2,398z"/>
								<path class="st33" d="M266.6,377c-0.8,9.1-0.2,10.1-1.3,15.8c-0.6,3.6-1.4,6.5-2,8.4c-0.6,0.7-2.9,3.5-6,4.8
									c-0.6,0.3-1.8,0.8-3.4,0.8c-0.6,0-1.2,0-2-0.2c-5-1-9.8-4.2-9.8-4.2c-1.9-1.5-4.3-3.2-6.1-5.8c-2.2-3.2-2.5-6.4-0.9-22.4
									c1.4-13.7,2.2-16.7,4.8-18.4c1.3-0.9,3.4-1.6,7.6-3.1c3.5-1.2,4.7-1.4,5.9-1.4c2.8,0.1,4.8,1.1,6.2,1.9
									c1.5,0.8,3.8,2,5.4,4.4c1,1.5,1.8,3.4,2.1,7.8C267.5,369.6,267,371.7,266.6,377z"/>
								<g>
									<g>
										<path class="st46" d="M259.3,393.4c-0.2,0.4-1.8-0.7-4.2-0.9c-3.1-0.3-5.3,1-5.5,0.7c-0.1-0.3,1.3-1.4,3-1.9
											c0.6-0.2,3-1,5.1,0.2C258.7,392.1,259.5,393.1,259.3,393.4z"/>
									</g>
									<path class="st46" d="M257.2,384.3c-0.2,0.2-0.8,0.8-1.7,0.9c-1.2,0.1-2-0.9-2.1-1c0.7,0,1.5,0.1,2.2,0.1
										C256.1,384.3,256.7,384.3,257.2,384.3z"/>
									<g>
										<path class="st7" d="M251.2,377.5c-0.8-2.1-2.9-3.3-4.9-3.1c-2.3,0.3-3.4,2.5-3.4,2.6c0.3,0.3,2,2,4.6,1.9
											C249.4,378.8,250.8,377.8,251.2,377.5z"/>
										<g>
											<path class="st47" d="M245.9,376.7c-0.1,1.1,0.6,2.1,1.5,2.2c0.9,0.1,1.6-0.8,1.7-1.9c0.1-1.1-0.6-2.1-1.5-2.2
												C246.7,374.7,246,375.5,245.9,376.7z"/>
											<path d="M246.8,376.8c0,0.6,0.3,1.2,0.8,1.2c0.5,0,0.9-0.4,0.9-1.1c0-0.6-0.3-1.2-0.8-1.2
												C247.2,375.7,246.8,376.1,246.8,376.8z"/>
											<path class="st7" d="M246.6,376.3c0,0.2,0.1,0.4,0.3,0.4c0.2,0,0.3-0.1,0.3-0.3s-0.1-0.4-0.3-0.4
												C246.7,375.9,246.6,376.1,246.6,376.3z"/>
										</g>
										<path d="M251.2,377.5c-1-1.5-2.7-2.5-4.5-2.4c-2.2,0.1-3.5,1.7-3.7,2c0,0-0.1-0.1-0.2-0.1c-0.1-0.1-0.3-0.1-0.4-0.1
											c1-2,3.2-3,5.2-2.6C249.3,374.6,250.6,375.8,251.2,377.5z"/>
									</g>
									<g>
										<path class="st7" d="M258.4,378.8c1.5-1.8,3.4-2.4,4.9-1.6c1.5,0.8,1.9,2.8,2,3.2c-0.7,0.3-2,0.8-3.5,0.5
											C260,380.5,258.9,379.3,258.4,378.8z"/>
										<g>
											<path class="st47" d="M263.4,379.5c-0.3,1-1.3,1.5-2.1,1.2c-0.8-0.3-1.2-1.3-0.8-2.3c0.3-1,1.3-1.5,2.1-1.2
												C263.4,377.5,263.7,378.6,263.4,379.5z"/>
											<path d="M263,379.5c-0.2,0.5-0.7,0.8-1.2,0.6c-0.5-0.2-0.7-0.8-0.5-1.3c0.2-0.5,0.7-0.8,1.2-0.6
												C263,378.3,263.2,378.9,263,379.5z"/>
											<path class="st7" d="M261.8,378.5c-0.1,0.2-0.2,0.3-0.4,0.2c-0.2-0.1-0.2-0.3-0.2-0.4c0.1-0.2,0.2-0.3,0.4-0.2
												C261.8,378.1,261.9,378.3,261.8,378.5z"/>
										</g>
										<path d="M258.4,378.7c0.1-0.1,2.2-2,4.4-1c1.5,0.7,2.1,2.3,2.3,2.7c0.1,0,0.1,0,0.2,0c0,0,0.1,0,0.1,0
											c-0.3-2-1.5-3.5-3.1-3.7C260.9,376.4,259.4,377.2,258.4,378.7z"/>
									</g>
									<path d="M250,370c-0.5-0.2-1.9-0.7-4-0.8c-2.9-0.2-4.6,0.7-5,0.9c-0.5,0.3-0.8,0.7-0.8,0.7c-0.3,0.3-0.4,0.7-0.6,1.1
										c-0.2,0.5-0.5,1.2-0.7,2c0.1-0.1,0.2-0.2,0.3-0.3c0,0,0.5-0.5,1.2-0.8c2.4-1.3,5.7-1.3,5.7-1.3c2.1,0,3.9,0.5,5.2,1
										c0.1-0.1,0.5-0.4,0.6-0.9c0.1-0.3,0.1-0.5,0-0.6C251.5,370.7,250.8,370.4,250,370z"/>
									<g>
										<path d="M266.8,375.4c-0.1-0.1-0.1-0.1-0.2-0.1c-1.7-1.4-4.3-1.6-4.3-1.6c-1.7-0.1-3.1,0.3-4.1,0.7
											c-0.1-0.1-0.3-0.4-0.4-0.9c0-0.3,0-0.5,0-0.6c0.4-0.3,0.9-0.6,1.6-0.9c0.4-0.2,1.6-0.6,3.2-0.7c2.3,0,3.6,0.9,3.8,1.1
											c0.3,0.3,0.5,0.6,0.5,0.7C266.9,374,266.8,374.7,266.8,375.4z"/>
									</g>
									<path d="M254.9,387.4c-4.4-0.4-7.5,1.7-8.3,2.3c-1.1,2-2.3,4.5-3.3,7.4c-0.6,1.9-1.1,3.6-1.4,5.2c0.6,0.5,2.9,2.3,4.4,3
										c0.2,0.1,0.3,0.2,0.3,0.2c0.5,0.2,1.4,0.6,2.5,1c1.8,0.5,3.9,0.9,5.2,0.8c4.7-0.1,8.5-5.4,9-6.1c0.2-1.7,0.3-3.6,0.2-5.8
										c-0.1-1.4-0.2-2.7-0.4-3.9C262.5,390.9,259.7,387.8,254.9,387.4z M253.7,394.4c-0.1,0.3-0.6,1.4-1.8,1.8
										c-1.4,0.5-2.9,0-3.7-0.6c0,0,0,0,0,0c-0.7-0.5,0.1-2.2,0.9-3.6c0.5-0.4,2.9-2.2,6.3-1.8c2.9,0.3,4.7,2,5.2,2.6
										c0.1,1.1,0.2,2.2,0.3,3.2c0,0,0,0,0,0c0,0,0,0,0,0c0,0,0,0,0,0c-0.6,0.4-1.5,0.4-2.2,0.1c-1.1-0.5-1.4-1.6-1.4-1.7
										C256.1,394.4,254.9,394.4,253.7,394.4z"/>
								</g>
								<path class="st32" d="M267.1,367.1c-2.9-1.5-4.4-1.4-5.3-1.1c-0.4,0.2-1.9,0.9-3.4,0.5c0,0,0,0,0,0
									c-0.6-0.4-1.6-0.8-2.9-1.1c-0.3-0.1-1-0.2-1.8-0.2c-2.7,0.1-3.3,1.9-5.5,1.8c-1.1,0-1-0.5-2.7-0.7c-1.1-0.1-2.6-0.3-3.8,0.5
									c-1.1,0.7-1.5,1.8-1.8,3.1c-0.3,1.2-0.5,2.8-0.5,4.9c-0.4,4.7-0.4,9.7-0.4,11.8c-0.1,11.7-5.8,24.8-5.8,42.4
									c0,4.2,0.4,10.6,2.3,18.6c-5-0.5-7.3-1-8.5-1.5c-0.3-0.1-1.9-0.8-4.1-1.3c-0.3-0.1-0.5-0.1-0.7-0.2c-1.7-0.3-3-0.2-3.9-0.1
									c-2.6,0.2-6.2,1.4-7.8,1.8c-2.1,0.5-5.3,0.6-9.5-1c0.6-9,2.5-15.8,4.2-20.4c1.8-4.9,3.3-7.3,5.7-13.6
									c0.6-1.5,3.1-8.2,5.2-16.7c4.1-16.7,2.3-23.4,8.1-35.6c1.1-2.3,2.2-4.2,2.8-5.2c1.7-1.9,4.7-4.9,9.3-6.8
									c7.2-3,13.6-1.6,15.7-1.1c2.3,0.5,6.1,1.5,9.8,4.7c1.6,1.4,5.2,4.5,6,9.6C268.2,363.1,267.6,365.6,267.1,367.1z"/>
								<g>
									<path class="st48" d="M268.9,360.4c-6.4-1-14.3-1.6-23.3-1.2c-8.6,0.4-16.1,1.7-22.1,3.1"/>
									<path class="st48" d="M222.1,359.4c6.1-1.7,13.7-3.3,22.7-3.8c10.1-0.6,18.8,0.2,25.4,1.4"/>
								</g>
							</g>
						</g>
						<path class="st49" d="M169.3,427.7c3.6,0.6,8.9,2,14.6,5.3c10.9,6.4,15.9,15.8,17.7,19.2c3.7,7.2,4.2,12.7,4.3,43.5
							c0,7.8,0.1,18.7,1.3,40.4c0.2,4.8,0.5,9.1,0.8,13c0.4,6.4,5.2,11.6,11.6,12.5c19,2.7,44,6.6,54.6,9.8c0.3,0.1,1.4,0.4,2.8,0.9
							c15.1,5.6,19.6,13.3,21,16.2c2.2,4.5,3.2,10,1.8,10.9c-1.8,1-5.7-6.7-14.6-11.3c-4-2.1-7.7-2.9-19-3.5
							c-13.9-0.8-25.1-0.7-30.2-0.5c-18.9,0.4-23.9,1.2-32-1.6c-5.6-1.9-9.8-4.5-12.5-6.4c-1.6-1.5-3.6-3.5-5.5-6.2
							c-2.4-3.4-3.7-6.7-4.5-9.2l-3.1-18.3C175.3,504,172.3,465.9,169.3,427.7z"/>
						<g>
							<path class="st50" d="M339.4,561c-1.8-1.3-3.7-2.4-5.4-3.9C336,558.2,337.9,559.4,339.4,561L339.4,561z"/>
						</g>
						<g>
							<path class="st50" d="M343,557.6c-1.8-1.3-3.7-2.4-5.4-3.9C339.6,554.7,341.5,555.9,343,557.6L343,557.6z"/>
						</g>
						<g>
							<path class="st50" d="M343,560.7c-2.3-1.7-4.3-3.5-6.4-5.3C339,556.8,341.1,558.7,343,560.7L343,560.7z"/>
						</g>
					</g>
				</g>
			</g>
		</g>
	</g>
</g>
</svg>
