<?xml version="1.0" encoding="utf-8"?>
<!-- Generator: Adobe Illustrator 26.0.1, SVG Export Plug-In . SVG Version: 6.00 Build 0)  -->
<svg version="1.1" id="Layer_1" xmlns="http://www.w3.org/2000/svg" xmlns:xlink="http://www.w3.org/1999/xlink" x="0px" y="0px"
	 viewBox="0 0 876.1 612.1" style="enable-background:new 0 0 876.1 612.1;" xml:space="preserve">
<style type="text/css">
	.st0{clip-path:url(#SVGID_00000109728514348109729560000005870097428916559008_);}
	.st1{fill:#A5E0DC;}
	.st2{fill:#00747D;}
	.st3{fill:#AF1919;}
	.st4{fill:#81CCC6;}
	.st5{fill:#E8E8E8;}
	.st6{fill:#F7B2A1;}
	.st7{fill:#CC936D;}
	.st8{fill:#FFFFFF;}
	.st9{fill:#C6C6C6;}
	.st10{fill:#BA7D54;}
	.st11{fill:#AF7151;}
	.st12{fill:#513328;}
	.st13{fill:none;stroke:#000000;stroke-width:4.8493;stroke-linecap:round;stroke-linejoin:round;stroke-miterlimit:10;}
	.st14{clip-path:url(#SVGID_00000109728514348109729560000005870097428916559008_);fill:none;}
</style>
<g>
	<g>
		<defs>
			<path id="SVGID_1_" d="M734.6,452c-23,60.5-76.2,99.6-121.9,113.6c-27.8,8.5-59.9,10-113.8,12.3c-19.7,0.8-39.4,1.1-59,0.8
				c0,0-135.5-2.2-226.2-47.5c-29.4-14.7-47.4-40.5-61.4-69.4c-26.7-55.3-32.1-119.2-9.5-177.3c15.2-39.2,44.1-73.2,82.5-118.9
				c9.6-11.5,15.6-17.9,27.6-33.1c44-55.9,40.7-68.2,59.5-84.1C350.5,16,420.5,18.9,464.6,47c20.6,13.1,32.8,32.4,57.3,71.1
				c44.2,69.7,36.2,89.9,65.3,112.4c41.1,31.8,71.8,3,110.9,30.5C747.8,295.8,759.9,385.5,734.6,452z"/>
		</defs>
		<clipPath id="SVGID_00000087380501225002751330000003378862381208738452_">
			<use xlink:href="#SVGID_1_"  style="overflow:visible;"/>
		</clipPath>
		<g style="clip-path:url(#SVGID_00000087380501225002751330000003378862381208738452_);">
			<path class="st1" d="M768.4,430.9c-0.8,6.9-2,15.2-5.2,25.9c-13.9,46.5-51.8,78.2-96.3,94.5c-17.6,6.4-35.9,10.8-54.2,14.3
				c-37.5,7.3-75.7,10.7-113.8,12.3c-19.7,0.8-39.4,1.1-59,0.8c0,0-135.5-2.2-226.2-47.5c-29.4-14.7-47.4-40.5-61.4-69.4
				c-26.7-55.3-32.1-119.2-9.5-177.3c17.8-45.8,49.5-83.3,82.5-118.9c7.9-8.5,22.3-17.3,38.8-35.4c24-26.4,36.4-50.4,44.6-65.8
				c44.6-84.1,66.9-126.1,95.4-144.9c11-7.3,56-36.2,92.6-21.2c45.5,18.7,40.2,73.2,94.7,112.8c34.9,25.4,53.9,14.4,74,23.4
				c8.6,3.9,13.6,9.5,17.5,13.5c77.5,79.8,94.9,196.2,94.9,196.2C784.4,288.3,779.1,335.8,768.4,430.9z"/>
			<path class="st2" d="M763.2,456.7c-11.8,39.6-42.6,71.1-79.9,87.8c-32.7,14.7-68.9,21.7-104.2,26.4c-33.2,4.5-66.7,6.7-100.2,7.5
				c-13,0.3-26,0.4-39,0.2c-60.7-1-123.7-10.4-181.4-29.3c-33.7-11.1-66.5-29.5-88.8-58.1c-25.7-32.8-39.4-79.5-41.3-120.5
				c107.9,11.2,215.6,24.1,323,38.7C555.6,423.6,659.5,439.4,763.2,456.7z"/>
			<polygon class="st2" points="686.2,375 498.4,348.1 498.4,-40.3 686.2,-13.4 			"/>
			<polygon class="st2" points="403.3,331.4 215.5,304.5 215.5,-83.9 403.3,-57 			"/>
		</g>
		<g style="clip-path:url(#SVGID_00000087380501225002751330000003378862381208738452_);">
			<path class="st3" d="M372.7,192.4c-0.6,4.5-1.4,11.5-1.3,20c0.2,21.8,5.5,31.4,6.2,49.2c0.4,8.1-0.1,19.8-4.4,34.3
				c-12-2.9-23.9-5.9-35.9-8.8c6-32.7,11.9-65.4,17.9-98.1C361.1,190.2,366.9,191.3,372.7,192.4z"/>
			<g>
				<g>
					<polygon class="st1" points="540.3,505.3 695.5,463 356.7,417.7 201.5,459.9 					"/>
					<path class="st4" d="M249.9,456.2l231,30.4c4,0.5,11.4-0.1,16.5-1.3l1.7-0.4c2.8,0.1,6.9-0.2,9.8-1l0,0
						c1.7-0.4,4.3-0.6,5.2-0.3c0.9,0.3,2.5,0.6,5.2,0.9c6.2,0.5,19.3-1.2,37.8-3.9c13.7-2,17.8-1.9,17.8-1.9s-1.2-0.9,4.6-3.6
						c8.2-3.9,13.7-6.7,9-7.6c-2.1-0.4-4.4-0.5-6.2-0.6c-1.8-0.1-1.8-0.5-0.1-1l0,0c2.9-0.7,3.7-1.5,2.1-1.9l1.7-0.4
						c5.1-1.2,6-2.7,1.9-3.2l-231-30.4L249.9,456.2z"/>
					<path class="st4" d="M356.7,417.7L695.5,463l-155.2,42.2l-338.8-45.4L356.7,417.7 M356.4,412.6l-1,0.3l-155.2,42.2l-23.6,6.4
						l24.3,3.2l338.8,45.4l1,0.1l1-0.3l155.2-42.2l23.6-6.4l-24.3-3.2l-338.8-45.4L356.4,412.6L356.4,412.6z"/>
				</g>
				<path class="st5" d="M389.3,299.4c5.9,22.2,2.6,32.8,10.4,48.9c1.1,2.2,3,4.6,9.1,11.1c6.1,6.4,26.4,29.2,27.6,29.6
					c1.2,0.4-4.3,2.7-7.8,5.1c-3.5,2.4-6,5.7-6,5.7s-20.7-9.1-32-18.2c-6.4-5.2-10.3-10-12.9-15c-3.9-7.5-5.3-15-5.6-24
					c-0.7-25.5,6.6-53.1,9.5-63.3C385.9,287.7,388.1,294.8,389.3,299.4z"/>
				<g>
					<path class="st6" d="M361,445.2c-7.9-1.8-15.1-1.8-23.1-4.2c-8-2.4-18.1-1-24.9-0.6c-6.8,0.3-13.7-0.9-13.8-3.3
						c0,0,2.5-2.1,4.9-2.4c2.4-0.3,5-2.6,8.2-4.5c3.1-1.9,19.9-16.5,26.2-17.9c6.4-1.4,7.6,1.5,13.3,3.3c5.7,1.9,17,7,17.6,7.2
						C370.1,423,361,445.2,361,445.2z"/>
				</g>
				<path class="st7" d="M314.4,461.4c-7.9-1.8-13-3.8-21-6.2c-8-2.4-20.2,1.1-27,1.4c-6.8,0.3-13.7-0.9-13.8-3.3
					c0,0,2.5-2.1,4.9-2.4c2.4-0.3,6.3-1.1,9.5-3c1.6-1,7.1-5,11.8-9.6c4.5-4.3,9.8-9,12.9-9.7c6.4-1.4,5.9,5.9,11.6,7.8
					c5.7,1.9,19,2.4,19.6,2.6C323.4,439.2,314.4,461.4,314.4,461.4z"/>
				<path class="st5" d="M374.3,268.4c2.2,1.3,5,3.2,7,8.5c1.3,3.5,2.9,9.2,2.4,15.1c-1.1,12.9-2.4,32.1-2.4,32.1l-14.5-6.7
					C369.3,301.1,371.8,284.8,374.3,268.4z"/>
				<g>
					<g>
						<path class="st7" d="M358.9,278.9c-1.3,0.9-2.7,0.8-3.5,0.8c-10.7-0.5-46-19.7-46-19.7s12.4-9.9,14.5-13.3
							c1-1.5,2.1-4.2,3.6-9.2c0-0.1,0-0.1,0.1-0.2c0.7-2.4,1.5-5.8,2.2-8.7c0.8-3.3,1.3-6,1.3-6l18.3,8.3c-0.1,1.5-0.2,3-0.2,4.4
							c-0.3,4.7-0.5,9.4-0.8,14.2c-0.1,1-0.1,2.1-0.2,3.1c3.8,2.4,7.6,4.8,11.4,7.2C360.6,263,363.8,275.6,358.9,278.9z"/>
					</g>
				</g>
				<g>
					<path class="st8" d="M383.9,378.9c-19.7,1.4-39.5,3.2-59.3,3.5c-5.7,0.1-10.9-0.1-10.9-0.1c-11.1-0.3-20.5-1.1-27.2-1.8
						c-0.2-4.4-0.6-11.6-1.2-20.5c-0.7-9.9-1.5-17.1-1.8-19.7c-3.8-37-5.1-55.1,1.1-66.9c2.1-4,31.4-20,31.4-20
						c3.7,2.3,7.6,4.6,11.7,6.9c7.4,4.2,14.5,7.8,21.4,11.1c0.7,0.3,1.4,0.6,2,0.9c2.5-4.6,5-9.3,7.5-13.9
						c5.4,3.4,10.8,6.8,16.2,10.1c2.5,15.4,3.9,28.1,4.7,36.9c1.3,13.8,2.2,29.8,3.8,61.2C383.5,371.8,383.7,376,383.9,378.9z"/>
				</g>
				<g>
					<path class="st8" d="M383.2,354.6c0.8,3.4,2.5,8.7,6.7,13.4c6.3,6.9,12.6,9.2,24.9,12.9c13.7,4.1,18.2,12.2,18.2,12.2
						c3.5,1.3,39.3,15,45.4,37c1,3.4,2.7,9.5,0,15.8c-3.2,7.4-11.1,11.8-13.3,12.8c-0.2,0.1-1.2,0.5-2.4,1.1c-2.1,0.9-3.6,1.5-6,2.5
						c-16.1,6.9-27.6,13.3-30.5,14.8c-29.5,15.3-92.6-0.8-117.7-7.1c-9.9-2.5-18-4.9-23.1-6.6c8.5-6.5,12.7-16.7,10.5-26.2
						c-2-8.9-8.9-13.8-10.7-15c1.6-2.4,3.2-4.8,4.7-7.2c-2.2-17.4-3.4-31.6-4-41.3c0,0-0.7-11.1-1.8-36.1l97.1,1.3
						C381.9,344.1,382.5,349.4,383.2,354.6z"/>
				</g>
				<g>
					<path class="st7" d="M362.1,400.1c12.7,8.5,19.8,12,24.1,13.6c0.8,0.3,4.3,2.5,11.2,6.8c0.7,0.5,1.9,1.2,2.3,2.6
						c0.2,0.8,0.2,2.3,0.2,2.3c0,0,5.5,7.7,7.3,10.7c1.8,3.1,2.5,5.4,1.4,6.4c-1.2,1-2.9,0.1-2.9,0.1s1.4,2.9,0.2,4.2
						c-1.2,1.3-3.6,0.7-5.2-1c-1.5-1.8-1.5-1.8-1.5-1.8s-0.7,2.8-3.8,1.7c-3.1-1.1-6.5-6.3-8.4-8.6c0,0,1.2,4.2,2.2,6
						c0.9,1.8-1.7,2.7-3.6,0.9c-1.9-1.8-5.1-7.3-9.1-9.9c-4-2.6-7.8-8.9-10.7-13.3c-2.9-4.5-20.6-14.8-20.6-14.8L362.1,400.1z"/>
					<path class="st5" d="M286.5,272.7c17.1-3.4,25.6,10.2,28.7,24.2c3.1,14,5.2,52.8,9.4,62c4.7,10.3,17.9,23.2,27.7,31.3
						c9.8,8,20.5,16.1,20.5,16.1s-8.2,6.2-11.8,11.4c-3.7,5.4-2.4,7.4-2.4,7.4s-30.5-14.8-45.2-26.8c-14.7-12-24.8-25.6-27.8-38.9
						C282.6,346.1,269.3,276.1,286.5,272.7z"/>
				</g>
				<path class="st7" d="M444.2,411.4c-0.1,0.1-0.2,0.1-0.3,0.2c0.5,0.9,3.6,6,1.5,9.8c-0.2,0.4-1.1,2.1-2.4,2.1
					c-1.5,0-2.6-2.4-3.3-4c-1.3-2.8-0.9-3.9-2.3-6c-0.5-0.8-1.2-1.5-2.3-2.4c-3.3-2.6-2.6-6-3.2-8c-0.6-1.9-11.1-8.9-11.1-8.9
					l11.9-6.8c0,0,9,8.9,14.6,11.8c1.6,0.8,8.5,5.4,14.5,9.7l-10.2,7.2C449.2,414.6,446.7,413,444.2,411.4z"/>
				<path class="st7" d="M473.7,425.1c-0.3,0.5-0.8,0.7-0.8,0.7c-0.9,0.4-1.9-0.2-2-0.3c0.8,1.3,0.5,2.8-0.3,3.4
					c-1,0.7-2.8,0.2-3.6-1.5c-0.5,0.4-1.3,0.9-2.3,0.9c-1.8,0-5-4.6-5-4.6c-0.7-1-1.5-2.2-2.6-3.3c-1.9-2-3.7-3.4-5.3-4.4
					c0.7-1.2,1.4-2.3,2-3.5c2.6-1.3,5.2-2.6,7.9-3.9c2.5,1.7,4.3,3.2,5.6,4.4c2.5,2.2,2.7,3.4,4.7,5.7c0.2,0.2,0.7,0.8,0.9,1.6
					c0.1,0.2,0.1,0.5,0.1,0.6C474,422.5,474.4,424.2,473.7,425.1z"/>
				<path class="st5" d="M407.3,357.6c0.5,0.5,1.1,1.1,1.6,1.7c6.1,6.4,26.4,29.2,27.6,29.6c1.2,0.4-4.3,2.7-7.8,5.1
					c-3.5,2.4-6,5.7-6,5.7s-12.6-6.7-23.9-15.8c-8.7-7.1-13.2-24.8-15.4-31.8C394.1,353.5,397.8,361.5,407.3,357.6z"/>
			</g>
			<path class="st5" d="M288.6,403.4c21.9,12,40.7,20.8,54.6,26.9c24.1,10.6,45.5,18.3,44.5,24.8c-0.3,1.9-2.4,3.1-5.1,4.3
				c-23.6,9.8-56.4-5.2-56-6.4c0.2-0.7,10,3.3,28.2,3.4c4.4,0,20.5,0.1,20.9-3c0.5-3.1-14.8-7.5-33.3-14.5
				c-12.5-4.8-30.7-12.4-52.4-23.9c-0.2-1.7-0.4-3.4-0.6-5.1C289.1,407.7,288.8,405.6,288.6,403.4z"/>
			<path class="st9" d="M365.7,262.8c-2.4-1.4-4.7-2.9-7.1-4.3c-2.5,4.6-5,9.3-7.5,13.9c0,0,0,0,0,0c0,0,0,0,0,0c0,0,0,0,0,0
				c0,0,0,0,0,0c-6.9-3.2-14.1-6.8-21.5-10.9c-4.8-2.7-9.3-5.3-13.6-8c-3.2,1.8-6.5,3.7-9.7,5.5c6.8,3.2,13.7,6.6,20.8,10.2
				c7.1,3.6,14,7.2,20.7,10.8c1.1,20.6,2.1,41.3,3.2,61.9c1.7,2.1,3.4,4.2,5.1,6.3c1-2.4,2-4.8,3-7.3c-0.5-10.3-0.9-20.7-1.3-31.3
				c-0.3-10.3-0.6-20.5-0.8-30.6c1.2-2.1,2.4-4.2,3.6-6.4C362.3,269.3,364,266,365.7,262.8z"/>
			<g>
				<path class="st10" d="M349.2,235.2c-0.3,4.7-0.5,9.4-0.8,14.2c-1,0.2-2.1,0.2-3.3,0.1c-2.7-0.2-6.3-1.9-13.5-8.4
					c-1-0.9-2.4-2.2-4.1-3.9l-0.6-0.6c0.5-1.3,1-2.7,1.5-4.2c0.5-1.3,0.9-2.7,1.3-3.9c0,0,0,0,0.1,0c4,1.8,8.6,3.5,13.6,5.1
					C345.4,234.2,347.3,234.7,349.2,235.2z"/>
				<path class="st7" d="M368.3,212.3c-0.9,7.7-1.9,11.9-2.6,14.8c-0.5,1.9-0.9,3.1-1.2,4c-1.4,4.1-3.1,7.2-4.5,9.3
					c-0.8,0.7-4.1,3.6-8,4.6c-0.8,0.2-2.3,0.6-4.2,0.3c-0.7-0.1-1.4-0.2-2.4-0.6c-5.8-2.1-10.8-6.8-10.8-6.8c-2.1-2.1-4.6-4.6-6.2-8
					c-2-4.2-1.8-8.1,3-26.7c4.1-16.1,5.6-19.4,9-21c1.7-0.8,4.3-1.3,9.6-2.3c4.4-0.8,5.8-0.8,7.2-0.6c0.8,0.1,4,0.7,7.1,3.3
					c0.8,0.7,3.1,2.7,4.4,6.2c1,2.8,0.9,5,0.6,9.2C368.9,205.6,368.6,209.3,368.3,212.3z"/>
				<g>
					<g>
						<path class="st11" d="M358.4,230.5c-0.1,0.5-3.7,0-5.8-0.4c-2.5-0.5-6-1.5-5.9-2.1c0.1-0.4,2.6-0.3,3.3-0.3
							c2.8,0.1,4.8,0.8,5.5,1.1C355.8,229,358.5,230.1,358.4,230.5z"/>
					</g>
					<path class="st11" d="M357,221.2c-0.3,0.2-1.1,0.8-2.2,0.7c-1.4-0.1-2.2-1.4-2.3-1.6c0.9,0.2,1.7,0.4,2.6,0.5
						C355.7,221,356.4,221.1,357,221.2z"/>
					<g>
						<path class="st8" d="M349.1,211.2c-0.8-2.8-2.9-4.7-5.2-4.8c-2.2-0.1-3.8,1.4-4.2,1.8c0.1,0.1,0.2,0.2,0.3,0.4
							c1.4,1.9,3.3,2.6,3.6,2.8C346.2,212.4,348.5,211.5,349.1,211.2z"/>
						<g>
							<path class="st12" d="M343.3,209.4c-0.2,1.2,0.6,2.4,1.7,2.6c1.1,0.2,2.2-0.7,2.4-1.9c0.2-1.2-0.6-2.4-1.7-2.6
								C344.6,207.3,343.5,208.2,343.3,209.4z"/>
							<path d="M344.1,210c-0.1,0.7,0.3,1.4,1,1.5c0.6,0.1,1.3-0.4,1.4-1.1c0.1-0.7-0.3-1.4-1-1.5
								C344.9,208.8,344.2,209.3,344.1,210z"/>
							<path class="st8" d="M344.5,208.9c0,0.2,0.1,0.4,0.3,0.4s0.4-0.1,0.4-0.3c0-0.2-0.1-0.4-0.3-0.4
								C344.7,208.6,344.5,208.7,344.5,208.9z"/>
						</g>
						<path d="M349.2,211.1c-0.1-0.2-1.7-3.6-5-3.8c-2.1-0.1-3.6,1-4.1,1.4c-0.1-0.1-0.1-0.2-0.2-0.3c-0.1-0.1-0.1-0.1-0.2-0.2
							c1.5-1.7,3.7-2.4,5.7-1.7C347.4,207.1,348.8,208.9,349.2,211.1z"/>
					</g>
					<g>
						<path class="st8" d="M358.5,213.7c1.8-2.2,4.1-2.9,5.7-1.9c1.6,1,2,3.5,2,4c-0.8,0.4-2.3,0.9-4,0.5
							C360.2,215.9,359,214.4,358.5,213.7z"/>
						<g>
							<path class="st12" d="M364.4,214.8c-0.4,1.2-1.5,1.9-2.5,1.5c-1-0.4-1.5-1.7-1.1-2.9c0.4-1.2,1.5-1.9,2.5-1.5
								C364.3,212.3,364.8,213.6,364.4,214.8z"/>
							<path d="M363.7,215c-0.2,0.7-0.9,1-1.5,0.8c-0.6-0.2-0.9-1-0.7-1.6c0.2-0.7,0.9-1,1.5-0.8C363.6,213.6,363.9,214.4,363.7,215
								z"/>
							<path class="st8" d="M362.7,213.7c-0.1,0.3-0.3,0.4-0.6,0.3c-0.2-0.1-0.3-0.4-0.2-0.6c0.1-0.3,0.3-0.4,0.6-0.3
								C362.7,213.1,362.8,213.4,362.7,213.7z"/>
						</g>
						<path d="M358.5,213.6c0.2-0.1,2.7-2.4,5.1-1.1c1.7,0.9,2.3,2.9,2.4,3.4c0.1,0,0.1,0,0.2,0c0,0,0.1,0,0.1,0
							c-0.1-2.4-1.4-4.3-3.2-4.7C361.5,210.8,359.7,211.8,358.5,213.6z"/>
					</g>
					<path d="M349.9,203.6c-0.5-0.4-2-1.5-4.3-2.4c-3.3-1.2-5.6-0.9-6.1-0.7c-0.7,0.2-1.2,0.6-1.2,0.6c-0.5,0.3-0.7,0.6-1.1,1.1
						c-0.4,0.5-0.9,1.2-1.5,2c0.1-0.1,0.3-0.1,0.4-0.2c0,0,0.8-0.3,1.7-0.5c3.2-0.7,7,0.5,7,0.5c2.5,0.7,4.3,1.9,5.6,2.9
						c0.2-0.1,0.7-0.2,1-0.8c0.2-0.3,0.2-0.5,0.3-0.7C351.3,204.9,350.7,204.2,349.9,203.6z"/>
					<g>
						<path d="M368.3,211.5c-0.1-0.1-0.1-0.1-0.2-0.2c-1.6-2-4.5-2.7-4.6-2.7c-1.9-0.5-3.6-0.3-4.9,0c-0.1-0.1-0.3-0.5-0.3-1.1
							c0-0.3,0.1-0.6,0.2-0.7c0.5-0.2,1.2-0.5,2-0.7c0.5-0.1,2-0.4,3.8-0.1c2.6,0.4,3.9,1.8,4.1,2.1c0.3,0.4,0.4,0.8,0.5,1
							C368.7,209.8,368.5,210.7,368.3,211.5z"/>
					</g>
					<path d="M354,222.7c-5.1-1.3-9.3,0.4-11.1,1.4c-0.6,0.3-1,0.8-1.3,1.4c-1,2.2-2,4.7-2.9,7.3c-0.8,2.4-1.5,4.7-2.1,6.8
						c1.6,1.3,4.1,3.2,7.7,4.5c1.7,0.6,3.5,1.3,5.7,1.3c5.3,0,9.3-4.1,9.9-4.7c0.8-1.5,1.7-3.3,2.3-5.6c0.5-1.5,0.8-2.9,1-4.2
						c0.1-0.8-0.1-1.6-0.5-2.2C361.4,227.1,358.7,224,354,222.7z M351.3,231.3c-0.1,0.3-0.8,1.5-2.3,1.8c-1.6,0.4-3.1-0.5-3.9-1.3
						c0,0,0,0,0,0c0,0,0,0,0,0c0,0-0.6-0.8-0.8-1.3c-0.2-0.7-0.1-2,0.8-3.2c0.8-0.4,2-0.8,3.6-1c2-0.2,3.5,0.2,4.6,0.5
						c3.3,0.8,5.5,2.5,6.7,3.4c0,3.1-0.7,3.9-1.1,4.1c0,0,0,0,0,0c-0.7,0.3-1.7,0.2-2.4-0.3c-1.1-0.7-1.2-2-1.2-2.2
						C353.9,231.7,352.6,231.5,351.3,231.3z"/>
				</g>
				<path class="st3" d="M370.7,200.5c-3.1-2.3-5-2.5-6.1-2.2c-0.5,0.1-2.4,0.7-4.1,0c0,0,0,0,0,0c-0.7-0.5-1.7-1.3-3.2-1.8
					c-0.4-0.1-1.2-0.4-2.1-0.5c-3.2-0.4-4.2,1.6-6.8,1.1c-1.3-0.2-1.1-0.8-3.1-1.3c-1.3-0.4-3-0.9-4.6-0.1c-1.4,0.6-2.2,1.9-2.7,3.3
					c-0.5,1.3-1,3.2-1.5,5.7c-1.3,5.5-2.2,11.5-2.6,13.9c-2.5,15.2-6.5,26.6-14.5,49.2c-2.7,7.6-5.2,13.9-7.1,18.5
					c-0.3,0.7-0.6,1.4-0.9,2.1c-0.3-0.2-4.2-2.5-7.3-3.8c-0.3-0.1-0.6-0.2-0.8-0.3c-2-0.7-3.6-0.8-4.7-0.8c-3.2-0.2-7.6,0.5-9.6,0.7
					c-2.6,0.2-6.4-0.2-11.1-2.9c2.4-10.6,5.9-18.3,8.7-23.4c3-5.6,5.2-8,9.2-15.1c1-1.7,5.2-9.2,9.2-18.8c7.9-19.1,7-27.4,16.1-40.7
					c1.8-2.6,3.3-4.5,4.3-5.7c2.3-2,6.5-4.9,12.3-6.4c9.1-2.3,16.4,0.6,18.8,1.6c2.6,1,7,2.9,10.8,7.3c1.7,2,5.3,6.2,5.4,12.5
					C372.7,196.1,371.5,198.9,370.7,200.5z"/>
				<g>
					<path class="st13" d="M373.7,194.4c-7.3-2.7-16.4-5.4-27.1-7.1c-10.2-1.6-19.3-2-26.8-1.8"/>
					<path class="st13" d="M316.7,180.8c8.4-0.2,18.5,0.2,29.8,1.9c12.5,1.9,23.2,5.1,31.7,8.2"/>
				</g>
			</g>
		</g>
		<path style="clip-path:url(#SVGID_00000087380501225002751330000003378862381208738452_);fill:none;" d="M768.4,430.9
			c-0.8,7.3-2,15.4-5.2,25.9c-13.9,46.5-51.8,78.2-96.3,94.5c-17.6,6.4-35.9,10.8-54.2,14.3c-37.5,7.3-75.7,10.7-113.8,12.3
			c-19.7,0.8-39.4,1.1-59,0.8c0,0-135.5-2.2-226.2-47.5c-29.4-14.7-47.4-40.5-61.4-69.4c-26.7-55.3-32.1-119.2-9.5-177.3
			c17.8-45.8,49.5-83.3,82.5-118.9c56.8-61.2,72.8-42.1,106.5-94.5c42.1-65.5,29.3-114.3,72.3-151.6c2.1-1.9,47.2-39.8,92.6-21.2
			c45.5,18.7,40.2,73.2,94.7,112.8c34.9,25.4,53.9,14.4,74,23.4c0,0,8.5,4.2,17.5,13.5c69,71.2,89.1,203.5,89.1,203.5
			C781.5,314.2,776.5,359.2,768.4,430.9z"/>
	</g>
</g>
</svg>
