<?xml version="1.0" encoding="utf-8"?>
<!-- Generator: Adobe Illustrator 26.0.1, SVG Export Plug-In . SVG Version: 6.00 Build 0)  -->
<svg version="1.1" id="Layer_1" xmlns="http://www.w3.org/2000/svg" xmlns:xlink="http://www.w3.org/1999/xlink" x="0px" y="0px"
	 viewBox="0 0 636 662" style="enable-background:new 0 0 636 662;" xml:space="preserve">
<style type="text/css">
	.st0{fill:#A5E0DC;}
	.st1{fill:#81CCC6;}
	.st2{fill:#00747D;}
	.st3{fill:#A3A3A3;}
	.st4{fill:#FFFFFF;}
	.st5{fill:#5F7BB7;}
	.st6{fill:#890804;}
	.st7{fill:#C6C6C6;}
	.st8{fill:#CC936D;}
	.st9{fill:#AF7151;}
	.st10{fill:#513328;}
	.st11{fill:#C48C66;}
	.st12{fill:#AF1919;}
	.st13{fill:#999999;}
	.st14{fill:none;}
	.st15{fill:#38393A;}
	.st16{fill:#262728;}
	.st17{fill:#828282;}
	.st18{fill:#EF6A0F;}
	.st19{opacity:0.23;fill:#262728;}
	.st20{fill:#4F5051;}
	.st21{fill:#393A3B;}
	.st22{fill:#65657C;}
	.st23{fill:#272829;}
	.st24{fill:#4D4D62;}
	.st25{fill:#19191A;}
	.st26{fill:#242463;}
	.st27{fill:#37374A;}
	.st28{fill:#F4EAC1;}
	.st29{fill:#1C1C65;}
	.st30{fill:#EBDA9B;}
	.st31{fill:#CFBCA9;}
	.st32{fill:#BFA892;}
	.st33{fill:#35357D;}
	.st34{fill:#C7B29E;}
	.st35{fill:#2F3031;}
	.st36{fill:#BA7D54;}
	.st37{opacity:0.35;fill:#7F7F7D;}
	.st38{opacity:0.25;fill:url(#SVGID_1_);}
	.st39{fill:#4C6580;}
</style>
<g>
	<g>
		<path class="st0" d="M596.3,403.3c-1.6,10.6-6.7,27.3-19,41.9c-2.1,2.5-4.4,4.9-6.7,7.2c-8.7,8.5-19,15.4-29.8,20.4
			c-0.1,0.2-0.2,0.4-0.3,0.7c-2.7,5.7-5.7,11.2-8.8,16.7c-4.9,8.4-10.2,16.4-16,24.1c-45,59.7-116.3,95.7-192.5,94.8
			c-72.2-0.9-139.3-34.8-183.3-90.2c-11-13.8-20.5-29-28.4-45.4c-0.1-0.2-0.2-0.4-0.3-0.7c-0.3-0.1-0.6-0.2-0.9-0.3
			c-1.9-0.7-4.1-1.5-6.6-2.6c-4.8-2.1-10.3-5.1-16.1-9.2c-7.2-5.1-13.5-11.3-18.8-19C36.4,401,34.9,366.1,35.4,352
			c2.1-58.9,41.9-117.5,85-129.6c2.8-0.8,11.5-3,44.1-11.8c25.7-6.9,38.7-10.5,45.2-19.9c7.1-10.3,4.3-21.1,4-32.8
			c-1-40.9,30.9-81.3,63.3-103.4c1.9-1.3,41.4-27.1,81.1-14.4c39.8,12.7,35.2,49.9,83,76.9c8.9,5,16.6,8,23.5,9.7
			c21.8,5.6,30.4,2.5,43.4,7c23.2,8,33.9,33.9,34.8,36.3c13.9,34.9-21.9,52.6-20.7,94.2C524.1,326.1,604.5,347.9,596.3,403.3z"/>
		<g>
			<path class="st1" d="M570.6,452.4c-8.7,8.5-19,15.4-29.8,20.4c-0.1,0.2-0.2,0.4-0.3,0.7c-2.7,5.7-5.7,11.2-8.8,16.7
				c-4.9,8.4-10.2,16.4-16,24.1c-17.4,2.9-35.5,3.1-53.2,3.2c-107.5,0.5-215,0.9-322.6,1.4c-11-13.8-20.5-29-28.4-45.4
				c-0.1-0.2-0.2-0.4-0.3-0.7c-0.3-0.1-0.6-0.2-0.9-0.3c-1.9-0.7-4.1-1.5-6.6-2.6c1.6-3.7,4.2-6.9,7.5-9.1c7-4.7,17-4.7,24,0.1
				c-1.2-6.5,3.5-13.6,10-15c6.5-1.4,13.7,3.2,15.2,9.7c4.9-11.7,17.7-19.5,30.3-18.5c12.6,1,24,10.8,26.9,23.1
				c-1.9-14,10.1-28.1,24.2-29c14.1-0.9,27.6,11.1,28.8,25.2c4.1-10.4,13.7-18.4,24.6-20.5c10.9-2.1,22.9,1.7,30.5,9.8
				c2.6-11.8,12.8-21.5,24.6-23.7s24.8,3.3,31.5,13.3c4.3-12.8,17.7-21.9,31.2-21.3c13.5,0.6,26,10.9,29.1,24.1
				c7.6-9.6,20.6-14.6,32.6-12.6s22.7,10.9,26.8,22.4c5.6-7.9,15.3-12.7,25-12.3c9.7,0.4,19,5.9,24,14.1
				C556.8,446.2,565,447.8,570.6,452.4z"/>
		</g>
		<g>
			<path class="st2" d="M540.4,473.5c-2.7,5.7-5.7,11.2-8.8,16.7C488.8,564,409.1,610,323.1,609c-90.2-1.1-172.5-53.8-211.6-135.5
				H540.4z"/>
		</g>
		<g>
			<g>
				<path class="st3" d="M120.8,464.8c0.2,0.3,0.3,0.6,0.5,0.9c-0.1,0-0.2,0-0.3,0L120.8,464.8z"/>
			</g>
			<g>
				<g>
					<path class="st4" d="M192.4,367.5c0.7-7.8-9.3-11.6-15.8-22.1c-3.2-5.3-6.5-13.6-5.6-26.6c-8.5-12.4-7.8-30.4,1.7-42.1
						c9.5-11.7,27-16,40.9-10.2c-1.3-19.3-1.1-42,14.3-53.8c5.4-4.1,12.2-6.3,17.8-10.2c9.6-6.7,15.1-17.7,23.5-25.9
						c10.6-10.2,25.9-15.4,40.5-13.6s28.2,10.5,36,23c31.4-6.8,44.4-1.6,50.2,5.4c4.9,5.9,2.6,10.8,8.3,16.9
						c11.1,11.9,26.9,1.3,41.9,10.6c15.2,9.4,20.9,33.6,17.7,51c-3.3,17.6-14.3,20.4-12.6,33.8c1.8,13.7,13.8,14.1,19,32.2
						c0.7,2.4,5.9,21.5-3.7,32c-5.5,6.1-10.5,3.3-17.3,9.6c-8.9,8.4-5.4,18.1-10.9,27.1c-8.5,13.9-31.3,13.8-45.3,14.8
						c-26.5,1.9-51.5-12.3-78-15c-13.4-1.4-26.9,0.3-40.4-0.1c-10.6-0.3-32.3-5.8-75.1-16.4c-3.4-0.8-12-3.1-13-8.1
						C185.7,375.6,191.9,373.5,192.4,367.5z"/>
				</g>
				<g>
					<rect x="201.9" y="371.2" class="st5" width="243" height="73.8"/>
					<path class="st5" d="M202,298.3v73.8h40.5v-73.8H202z M207.4,302.4H237v65.7h-29.6V302.4z"/>
					<path class="st5" d="M242.5,298.3v73.8H283v-73.8H242.5z M247.9,302.4h29.6v65.7h-29.6V302.4z"/>
					<path class="st5" d="M322.8,341.8c-0.2,0-0.4,0-0.6,0c-0.2,0-0.4,0-0.6,0c-1.4-0.1-2.6-0.3-3.6-0.5v11.6c0.3,0.1,0.7,0.2,1,0.3
						c0.3,0.1,0.7,0.2,1,0.2c0.2,0.1,0.5,0.1,0.7,0.1c0.2,0,0.4,0.1,0.6,0.1c0.4,0.1,0.9,0.1,1.4,0.1c0.2,0,0.5,0,0.7,0v-11.9
						C323.3,341.8,323,341.8,322.8,341.8z M318,357.7v10.4h-12.3c0,0,0,0.1,0,0.1c0.1,0.3,0.2,0.6,0.2,0.9c0.1,0.3,0.2,0.6,0.2,0.9
						c0.1,0.3,0.1,0.6,0.2,0.9c0,0.1,0,0.1,0,0.2c0.1,0.3,0.1,0.6,0.2,1h9.8l0.2-1h4.2c0.1,0.3,0.1,0.6,0.2,1h2
						c0.1-0.3,0.2-0.7,0.3-1h0.1v-13.5L318,357.7z M322.8,341.8c-0.2,0-0.4,0-0.6,0c-0.2,0-0.4,0-0.6,0c-1.4-0.1-2.6-0.3-3.6-0.5v27
						h-12.3c0,0,0,0.1,0,0.1c0.1,0.3,0.2,0.6,0.2,0.9c0.1,0.3,0.2,0.6,0.2,0.9c0.1,0.3,0.1,0.6,0.2,0.9c0,0.1,0,0.1,0,0.2
						c0.1,0.3,0.1,0.6,0.2,1h9.8l0.2-1h4.2c0.1,0.3,0.1,0.6,0.2,1h2c0.1-0.3,0.2-0.7,0.3-1h0.1v-29.4
						C323.3,341.8,323,341.8,322.8,341.8z M283,298.3v73.8h40.5v-73.8H283z M318,368.1h-29.6v-65.7H318V368.1z"/>
					<path class="st5" d="M328.7,306.7L328.7,306.7c-0.1-0.1-0.1-0.2-0.2-0.3c-0.1-0.1-0.1-0.2-0.1-0.3c0-0.1,0-0.1-0.1-0.2
						c0-0.1,0-0.1-0.1-0.2c0,0.1,0,0.3-0.1,0.4c0,0.1-0.1,0.3-0.2,0.4c0,0.1-0.1,0.1-0.2,0.2c0,0.1-0.1,0.1-0.1,0.1
						c-0.3,0.3-0.7,0.5-1.2,0.5c-0.9-0.1-1.7-0.9-1.9-1.8c-0.2,0.2-0.4,0.4-0.7,0.6c-0.2,0.1-0.3,0.3-0.5,0.4v51l5.4,0v-50.7
						C328.8,306.9,328.7,306.8,328.7,306.7z M328.7,306.7L328.7,306.7c-0.1-0.1-0.1-0.2-0.2-0.3c-0.1-0.1-0.1-0.2-0.1-0.3
						c0-0.1,0-0.1-0.1-0.2c0-0.1,0-0.1-0.1-0.2c0,0.1,0,0.3-0.1,0.4c0,0.1-0.1,0.3-0.2,0.4c0,0.1-0.1,0.1-0.2,0.2
						c0,0.1-0.1,0.1-0.1,0.1c-0.3,0.3-0.7,0.5-1.2,0.5c-0.9-0.1-1.7-0.9-1.9-1.8c-0.2,0.2-0.4,0.4-0.7,0.6c-0.2,0.1-0.3,0.3-0.5,0.4
						v51l5.4,0v-50.7C328.8,306.9,328.7,306.8,328.7,306.7z M323.5,298.3v73.8H364v-73.8H323.5z M328.9,302.4h29.6v65.7h-29.6V302.4
						z"/>
					<path class="st5" d="M364,298.3v73.8h40.5v-73.8H364z M369.4,302.4H399v65.7h-29.6V302.4z"/>
					<path class="st5" d="M404.4,298.3v73.8h40.5v-73.8H404.4z M409.9,302.4h29.6v65.7h-29.6V302.4z"/>
				</g>
				<g>
					<polygon class="st6" points="301.4,369.8 309.1,335.7 310.8,325.3 331.4,325.3 333.1,336.9 342,369.8 					"/>
					<path class="st7" d="M310.8,357.1c3.4,3.1,6.9,6.1,10.3,9.2c3.7-3.1,7.4-6.1,11.1-9.2c-2.8-0.7-6.7-1.5-11.3-1.4
						C316.8,355.8,313.4,356.4,310.8,357.1z"/>
					<path class="st4" d="M352.3,373.6c-0.1-0.7-0.3-1.9-0.7-3.4c-0.3-1-0.6-1.7-0.8-2.2c-0.7-0.8-1.4-1.7-2.3-2.5
						c-5.4-5.1-12.2-6.4-16-6.8c-3.7,2-7.3,3.9-11,5.9c-1.4-1.4-4.9-4.6-10-5.1c-2.5-0.2-4.7,0.2-5.4,0.4c-2.1,0.5-3.7,1.3-6.8,2.8
						c-1.4,0.7-3.1,1.6-5,2.7c-1.8,1.8-2.1,3.6-2.7,12.9c-0.4,6.7-0.7,12.4-0.9,16.9h63.5C353.3,383.9,352.6,375.7,352.3,373.6z"/>
					<path class="st8" d="M334.7,360.1c-4.3,1.4-8.7,2.9-13,4.3c-4.5-1.4-8.9-2.8-13.4-4.2c2-1.3,3.9-2.5,5.9-3.8
						c0.7-2.9,1.4-5.7,2-8.6c3.6,0,7.3,0,10.9,0c0.5,2.8,1,5.7,1.5,8.5C330.7,357.6,332.7,358.9,334.7,360.1z"/>
					<path class="st8" d="M332,335.9c0,0.6-0.2,2.3-0.7,5.9c-0.2,2-0.4,3.6-0.6,4.7c-0.8,1.7-2.6,4.7-5.9,6.5
						c-2,1.1-3.4,1.2-3.8,1.2c-1.9,0-3.2-0.8-4.2-1.4c-3.3-2.2-4.8-5-5.6-6.7c-0.1-0.8-0.3-2-0.5-3.5c-0.2-1.8-0.6-5.1-0.7-6.7
						c-0.2-3-0.6-8.8,3.2-12.4c3-2.9,6.9-3,7.7-3c0.8,0,4.8,0.1,7.9,3C332.7,327.2,332.2,332.9,332,335.9z"/>
					<g>
						<path class="st9" d="M325,345.8c-0.1,0.1-0.2,0.1-0.3,0.2c-0.1,0.1-0.3,0.2-0.4,0.3c-0.2,0.1-0.5,0.3-0.7,0.4
							c-0.4,0.2-0.8,0.2-2.5,0.2c-1.7,0-2.1-0.1-2.4-0.3c-0.2-0.1-0.4-0.2-0.7-0.4c0,0-0.1,0-0.1-0.1c-0.2-0.1-0.4-0.2-0.5-0.3
							c0.3-0.1,0.6-0.2,0.9-0.3h0.1c0.5,0,0.7,0,1.1-0.1c0.9,0,1.5,0,1.8,0.1c0.5,0,1.3,0.1,2.6,0
							C324.3,345.6,324.6,345.7,325,345.8z"/>
						<path class="st9" d="M325,345.8c-0.1,0.1-0.2,0.1-0.3,0.2c-1,0.1-1.6,0.1-1.9,0.2c0,0-0.6,0.1-1.2,0.1c-0.1,0-0.2,0-0.2,0
							c-1.2,0-1.1-0.1-2.3-0.1c-0.6,0-0.8,0-1.2,0c-0.2-0.1-0.4-0.2-0.5-0.3c0.3-0.1,0.6-0.2,0.9-0.3c0.1,0,0.3-0.1,0.4-0.1
							c0,0,1-0.3,1.8-0.2c0.1,0,0.2,0,0.4,0.1c0.1,0.1,0.2,0.1,0.3,0.2c0.1-0.1,0.3-0.2,0.5-0.2c0.6-0.2,1,0,1.7,0.2
							c0.2,0.1,0.4,0.1,0.5,0.2C324.3,345.6,324.6,345.7,325,345.8z"/>
					</g>
					<path class="st9" d="M322.7,341.1c-0.2,0.1-0.6,0.5-1.3,0.5c-0.9,0.1-1.6-0.5-1.7-0.6c0.6,0,1.2,0,1.8,0
						C321.9,341.1,322.3,341.1,322.7,341.1z"/>
					<path class="st4" d="M309.9,357.6l-5.2,3c3.3,4,6.5,8.1,9.8,12.1c4.6,0,9.3,0.1,13.9,0.1c2.8-4.4,5.6-8.7,8.4-13.1
						c-1.4-0.7-2.7-1.4-4.1-2c-1.9,0.7-3.9,1.6-6,2.7c-1.9,1-3.7,2-5.2,3c-1.4-0.9-3-1.9-4.8-2.9C314.3,359.4,312,358.4,309.9,357.6
						z"/>
					<g>
						<g>
							<path class="st4" d="M318.3,336.1c-0.8-1.3-2.2-2-3.4-1.7c-1.3,0.3-1.9,1.4-2.1,1.7c0.5,0.3,1.4,0.7,2.6,0.8
								C316.8,336.9,317.8,336.4,318.3,336.1z"/>
							<g>
								<path class="st10" d="M314.5,335.8c0.1,0.6,0.6,1.1,1.2,1.1c0.6-0.1,1.1-0.6,1.1-1.2c-0.1-0.6-0.6-1.1-1.2-1.1
									C314.9,334.6,314.4,335.1,314.5,335.8z"/>
								<path d="M315,335.8c0,0.4,0.3,0.6,0.7,0.6c0.4,0,0.6-0.3,0.6-0.7c0-0.4-0.3-0.6-0.7-0.6C315.3,335.1,315,335.4,315,335.8z"
									/>
								<path class="st4" d="M314.8,335.5c0,0.1,0.1,0.3,0.3,0.2c0.1,0,0.3-0.1,0.2-0.3c0-0.1-0.1-0.3-0.3-0.2
									C314.9,335.2,314.7,335.3,314.8,335.5z"/>
							</g>
							<path d="M318.3,336c-0.1-0.1-1.3-1.5-3.2-1.2c-1.3,0.2-2,1.1-2.2,1.3c0,0-0.1,0-0.1,0c0,0-0.1,0-0.1,0c0.5-1.2,1.7-1.9,3-1.8
								C316.8,334.3,317.8,335,318.3,336z"/>
						</g>
						<g>
							<path class="st4" d="M324.2,336.1c0.9-1.3,2.2-1.9,3.5-1.6c1.3,0.3,1.9,1.5,2,1.7c-0.5,0.3-1.4,0.7-2.6,0.7
								C325.7,336.9,324.6,336.4,324.2,336.1z"/>
							<g>
								<path class="st10" d="M328,335.8c-0.1,0.6-0.6,1.1-1.3,1c-0.6-0.1-1.1-0.6-1-1.3c0.1-0.6,0.6-1.1,1.3-1
									C327.6,334.6,328,335.2,328,335.8z"/>
								<path d="M327.4,335.8c0,0.4-0.4,0.6-0.7,0.6c-0.4,0-0.6-0.4-0.6-0.7c0-0.4,0.4-0.6,0.7-0.6
									C327.2,335.2,327.4,335.5,327.4,335.8z"/>
								<path class="st4" d="M327.7,335.5c0,0.1-0.1,0.2-0.3,0.2c-0.1,0-0.2-0.1-0.2-0.3c0-0.1,0.1-0.2,0.3-0.2
									C327.6,335.3,327.7,335.4,327.7,335.5z"/>
							</g>
							<path d="M324.2,336c0.1-0.1,1.4-1.5,3.2-1.2c1.3,0.2,2,1.2,2.2,1.4c0,0,0.1,0,0.1,0c0,0,0.1,0,0.1,0
								c-0.5-1.2-1.7-1.9-2.9-1.9C325.7,334.3,324.7,335,324.2,336z"/>
						</g>
						<path d="M317.7,332.2c-0.3-0.1-1.2-0.5-2.4-0.6c-1.8-0.2-2.8,0.2-3.1,0.4c-0.3,0.2-0.5,0.4-0.5,0.4c-0.2,0.2-0.3,0.4-0.4,0.7
							c-0.1,0.3-0.3,0.7-0.5,1.2c0.1,0,0.1-0.1,0.2-0.1c0,0,0.3-0.3,0.8-0.5c1.5-0.7,3.5-0.6,3.5-0.6c1.3,0.1,2.4,0.4,3.1,0.8
							c0.1,0,0.3-0.2,0.4-0.5c0.1-0.2,0.1-0.3,0-0.4C318.6,332.7,318.2,332.5,317.7,332.2z"/>
					</g>
					<g>
						<path d="M324.5,332.2c0.3-0.1,1.2-0.5,2.4-0.6c1.8-0.2,2.8,0.2,3.1,0.4c0.3,0.2,0.5,0.4,0.5,0.4c0.2,0.2,0.3,0.4,0.4,0.7
							c0.1,0.3,0.3,0.7,0.5,1.2c-0.1,0-0.1-0.1-0.2-0.1c0,0-0.3-0.3-0.8-0.5c-1.5-0.7-3.5-0.6-3.5-0.6c-1.3,0.1-2.4,0.4-3.1,0.8
							c-0.1,0-0.3-0.2-0.4-0.5c-0.1-0.2-0.1-0.3,0-0.4C323.7,332.7,324.1,332.5,324.5,332.2z"/>
					</g>
					<path class="st4" d="M296.1,442.5c0.4-7.8,0.8-15.6,1.2-23.5c0.1-1,0.1-2.1,0.2-3.1c0.2-3.5,0.4-7,0.6-10.5c0,0,0,0,0,0
						c0.2-3.8,0.4-7.7,0.6-11.5c0.1,0,0.2,0,0.2,0c5.9-0.6,10.6-0.3,13.9,0c2.6,0.3,5.2,0.7,9.3,0.7c3.4,0,5.7-0.3,7.6-0.4
						c3.7-0.4,8.9-0.6,15.8-0.3c0.1,0,0.1,0,0.2,0c0.2,3,0.3,6,0.5,9.1c0,0,0,0,0,0c0.2,3.2,0.4,6.4,0.5,9.7
						c0.1,2.3,0.3,4.6,0.4,6.9c0.4,7.7,0.9,15.4,1.3,23H296.1z"/>
					<rect x="320.8" y="342.4" class="st11" width="0.8" height="1.7"/>
					<path class="st7" d="M336.8,359.8c-4.4,2.3-8.7,4.5-13.1,6.8v25.1l-2.2,2l0-31.2c2-1.3,4.4-2.7,7.1-4c1.2-0.6,2.5-1,3.6-1.5
						C333.8,358,335.3,358.9,336.8,359.8z"/>
					<path class="st4" d="M299.1,395c-0.2,2.4-0.3,4.9-0.5,7.3c0,0,0,0,0,0c0,0.5-0.1,1-0.1,1.5c-0.4,5-0.7,10-1.1,15.1v0.1
						c-0.4,5.4-0.8,10.8-1.3,16.3c-0.2,2.4-0.4,4.8-0.6,7.2h-13.5c3.5-36.1,6.2-61.8,6.7-66.2c0.1-1.2,0.5-4.1,2.3-7.1
						c1.1-1.7,2.3-3,3.3-3.8c1.5,9.5,3.1,19,4.6,28.4C298.9,394.2,299,394.6,299.1,395z"/>
					<path class="st4" d="M362.5,442.5h-13.4c-0.2-2.7-0.5-5.3-0.7-8c-0.6-7.2-1.2-14.5-1.7-21.6c0-0.1,0-0.1,0-0.2v-0.1
						c-0.3-3.7-0.6-7.4-0.8-11.1c-0.2-2.4-0.4-4.9-0.5-7.3c0-0.1,0.1-0.2,0.1-0.4c0.9-4.2,1.6-8.8,2.2-13.8
						c0.6-5.2,0.9-10.1,0.9-14.5c1.5,1.1,2.3,2.2,2.8,2.9c0,0,1.4,2.2,2.6,6.9c0,0,0,0.2,0.1,0.5c0.1,0.3,0.2,0.7,0.3,1.1
						c0.2,0.8,0.3,1.2,0.4,1.5C355.6,382.5,358.7,407.5,362.5,442.5z"/>
					<path class="st7" d="M298.6,402.3c0,0.5-0.1,1-0.1,1.6c-0.4,4.4-0.7,8.4-1,12.1c0,0,0,0,0,0c-1,13-1.7,21.2-2.1,26.5h-1.6
						c2.1-19.3,3.5-31.7,4.3-37.1v0C298.3,403.5,298.5,402.5,298.6,402.3C298.6,402.3,298.5,402.3,298.6,402.3
						C298.6,402.3,298.6,402.3,298.6,402.3z"/>
					<path class="st7" d="M350.8,442.5H349c-0.8-9.7-1.5-17.2-2-23v-0.1c0-0.1,0-0.1,0-0.2c-1.1-13.6-1.4-17.7-1.2-17.7c0,0,0,0,0,0
						c0,0.1,0.1,0.6,0.3,1.4c0,0,0,0,0,0.1v0c0.3,2,0.8,5.9,1.4,10.8C348.9,424.8,349.9,434.4,350.8,442.5z"/>
					<path class="st7" d="M306,359.9l13.3,6.7v25.1l2.2,2l0-31.2c-2-1.3-4.4-2.7-7.1-4c-1.2-0.6-2.5-1-3.6-1.5
						C309.2,358,307.6,358.9,306,359.9z"/>
					<path d="M321.2,342.2C321.2,342.2,321.2,342.2,321.2,342.2c-1.1,0-4.7,0-6,2.3c-0.2,0.3-0.5,0.7-0.7,1.6
						c-0.2,0.9-0.3,2.3,0,4.6c2,2.9,4.4,4.3,6.7,4.3c2.3,0,4.7-1.4,6.7-4.3c0.3-2.3,0.2-3.7,0-4.6c-0.2-0.9-0.5-1.3-0.7-1.6
						C325.9,342.2,322.3,342.2,321.2,342.2C321.3,342.2,321.2,342.2,321.2,342.2z M320.2,347.4c-0.1,0.2-0.4,0.9-1,1.2
						c0,0-1,0.4-2.3-0.4c0,0,0,0,0,0c-1.1-0.6-1.1-2-0.2-2.9c0.4-0.3,0.8-0.5,1-0.6c0.9-0.3,2.2-0.4,3.5-0.4c1.2,0,2.6,0.1,3.5,0.4
						c0.2,0.1,0.6,0.2,1,0.6c0.9,0.8,0.9,2.2-0.2,2.9c0,0,0,0,0,0c-1.3,0.8-2.3,0.4-2.3,0.4c-0.6-0.3-0.9-0.9-1-1.1
						C321.6,347.4,320.9,347.4,320.2,347.4z"/>
					<g>
						<path class="st12" d="M296.3,361.9c0,0.2-0.1,0.4-0.1,0.5l0-0.4L296.3,361.9z"/>
					</g>
					<g>
						<path class="st12" d="M348.2,376.2c-0.1-0.2-0.3-0.5-0.6-0.8c0,0-0.1-0.1-0.3-0.2c-0.1-0.1-0.3-0.2-0.5-0.3
							c-1.9-0.9-4.9-0.5-4.9-0.5c-1,0.2-2.5,0.5-4.1,1.1c-0.8,0.3-1.7,0.7-2.7,1.1c0-0.4,0-0.8,0-1.1c0.1-4.4-0.2-8.1-0.5-10.6
							c-0.2-1.6-0.4-2.5-1.5-9.3c-1-6.2-1.6-9.2-1.6-9.4c-0.3-3.9-0.4-13-0.8-17.9c0-0.5-0.1-1.2-0.7-1.7c-1.2-1.1-3.1,0.7-6.2,0.2
							c-1.9-0.3-1.9-1.1-3.8-1.1c-1.5,0-1.9,0.5-3.9,0.6c-2.4,0.2-3-0.4-3.8-0.1c-1.7,0.6-1.5,10.8-1.5,13.4
							c0.1,7.8-0.9,13.8-2.9,25.8c-0.7,4-1.4,7.4-1.9,9.8c-0.1,0.4-0.2,0.8-0.3,1.1c-0.2-0.1-2.5-0.9-4.2-1.2
							c-0.2,0-0.3-0.1-0.5-0.1c-1.1-0.2-1.9-0.1-2.5,0c-2.1,0.2-4.9,1.2-5,1.2c-0.4-5.8,0.4-10.3,1.1-13.2c1.1-4.2,2.7-7.5,3.6-9.2
							c1-2,1.9-3.5,2.7-4.7l6.2-14.6c1.8-7.2,1.4-11.6,5.5-14.7c0.7-0.5,1.4-0.9,2.1-1.3c1.9-1,3.6-1.2,4.4-1.4
							c1.2-0.2,3.9-0.5,6.7,0.8c0.2,0.1,0.4,0.2,0.5,0.3c0,0,0,0,0,0c0.6,0.3,1.3,0.6,1.9,1c4.7,3.1,4.4,8.2,7.2,16.8
							c3.6,11,8.6,16.7,11.5,25.4c0,0,0,0,0,0.1C349.8,368.5,349.4,373.1,348.2,376.2z"/>
						<path d="M332,321.9h-21.8c-0.6,0-1.1-0.5-1.1-1.1l0,0c0-0.6,0.5-1.1,1.1-1.1H332c0.6,0,1.1,0.5,1.1,1.1l0,0
							C333.1,321.4,332.6,321.9,332,321.9z"/>
						<path d="M332.8,324.2h-23.5c-0.6,0-1.1-0.5-1.1-1.1l0,0c0-0.6,0.5-1.1,1.1-1.1h23.5c0.6,0,1.1,0.5,1.1,1.1l0,0
							C334,323.6,333.5,324.2,332.8,324.2z"/>
					</g>
				</g>
				<g>
					<path class="st13" d="M385.7,332.4L385.7,332.4l0.7-1.8L385.7,332.4z"/>
					<polygon class="st13" points="407.2,295.9 405.3,300.7 398.6,299.5 405.3,300.7 407.2,295.9 407.2,295.9 					"/>
					<path class="st14" d="M357.9,386.9c-0.2,0-0.3,0.1-0.5,0.1C357.6,387,357.7,387,357.9,386.9
						C357.9,386.9,357.9,386.9,357.9,386.9"/>
					<path class="st15" d="M286.1,507c-0.1,1.9-0.2,3.9-0.3,5.8c-0.2,3.2-0.5,6.3-0.8,9.5c-0.3,3.6-0.8,7.3-1.2,10.9
						c-0.5,4.1-3.4,7.3-7.1,8.4h0c-0.9,0.3-1.8,0.4-2.8,0.4h-35.4c-2.7,0-5.2-1.1-7.1-2.9c-0.6-0.6-1.1-1.3-1.6-2
						c-0.3-0.5-0.5-1-0.8-1.6c-0.2-0.6-0.4-1.1-0.5-1.7c-3.6-20.6-6.4-41.1-8.2-61.4c0-0.4-0.1-0.9-0.1-1.3
						c-0.8-8.7-1.4-17.4-1.8-26.1c-0.4-8.4-0.6-16.8-0.7-25.1c0-5.5,4.5-10,10-10h37.5c4.4,0,8.3,2.9,9.6,7.1c0,0.1,0,0.2,0.1,0.2h0
						v0c0.1,0.2,0.1,0.5,0.2,0.7c0.1,0.3,0.2,0.7,0.3,1v0h0c0.6,1.9,1.2,3.8,1.7,5.7l0,0c0.5,1.9,1,3.7,1.5,5.6c0,0,0,0.1,0,0.1
						c0.4,1.6,0.8,3.1,1.2,4.7c0.1,0.5,0.2,0.9,0.3,1.4c0,0,0,0,0,0c0.6,2.8,1.2,5.7,1.8,8.5c0.9,4.7,1.6,9.5,2.3,14.3v0
						c0.5,4.2,1,8.3,1.3,12.6c0,0.2,0,0.3,0,0.5C286.5,483.7,286.6,495.2,286.1,507z"/>
					<path class="st15" d="M425.3,419.9c0,8.3-0.3,16.7-0.7,25.1c-0.4,8.3-1,16.6-1.7,25l-0.2,2.4c-0.2,1.8-0.3,3.6-0.5,5.4
						c0,0.3-0.1,0.6-0.1,0.9c-0.3,3.1-0.6,6.3-1,9.4c-0.2,1.5-0.3,3-0.5,4.6c-0.1,1.1-0.3,2.2-0.4,3.4c-0.2,1.4-0.4,2.8-0.5,4.2
						c-0.5,4.1-1.1,8.1-1.7,12.2c-0.3,2.3-0.7,4.7-1.1,7c-0.4,2.4-0.8,4.8-1.2,7.2c0,0.1,0,0.3-0.1,0.4c-0.4,2.3-0.8,4.5-1.2,6.8v0
						c-0.1,0.3-0.1,0.5-0.2,0.8c0,0,0,0.1,0,0.1c-0.1,0.3-0.2,0.5-0.3,0.8c0,0,0,0,0,0c-0.1,0.2-0.2,0.4-0.3,0.6
						c0,0.1-0.1,0.2-0.1,0.3c-0.1,0.2-0.2,0.4-0.4,0.7c-0.1,0.2-0.3,0.5-0.5,0.7c-0.2,0.2-0.3,0.5-0.5,0.7c0,0,0,0,0,0
						c-0.2,0.2-0.3,0.4-0.5,0.6c-0.1,0.1-0.1,0.1-0.2,0.2c-0.1,0.2-0.3,0.3-0.5,0.4c-0.4,0.3-0.8,0.6-1.2,0.8
						c-0.3,0.2-0.7,0.4-1,0.6c-0.1,0.1-0.2,0.1-0.4,0.2c-0.5,0.2-1.1,0.4-1.7,0.5c-0.1,0-0.2,0.1-0.3,0.1c-0.2,0-0.3,0.1-0.5,0.1
						c-0.2,0-0.4,0.1-0.6,0.1c-0.2,0-0.5,0-0.7,0h-35.4c-2.5,0-4.8-0.9-6.6-2.5c-0.4-0.4-0.8-0.8-1.1-1.2c-1.2-1.4-2-3.2-2.2-5.2
						c-0.2-1.9-0.5-3.9-0.7-5.8c-0.2-1.7-0.4-3.4-0.5-5.1c-0.2-1.6-0.3-3.2-0.4-4.8c-0.1-1.6-0.2-3.2-0.4-4.8
						c-0.3-4.5-0.5-9-0.6-13.4c0-1.3,0-2.5,0-3.8c-0.1-7.8,0.2-15.6,0.8-23.2c0-0.4,0.1-0.8,0.1-1.2c0.2-2.1,0.4-4.1,0.6-6.2
						c0.2-1.8,0.4-3.6,0.6-5.5v0c0.6-4.9,1.4-9.8,2.3-14.6c0-0.1,0-0.3,0.1-0.4c0.3-1.5,0.6-3,0.9-4.5c0.4-2.1,0.9-4.3,1.4-6.4
						c0.7-3,1.5-5.9,2.3-8.9c0.6-2.2,1.3-4.5,2-6.7c0.1-0.2,0.2-0.5,0.2-0.8c0,0,0,0,0,0c0-0.1,0.1-0.3,0.1-0.4
						c0.3-1,0.8-1.9,1.4-2.8c1.8-2.6,4.9-4.3,8.2-4.3h37.5c3.9,0,7.3,2.2,8.9,5.4C424.9,416.6,425.3,418.2,425.3,419.9z"/>
					<path class="st13" d="M260.3,409.9h-6.2c0,0,0,0,0,0L260.3,409.9C260.3,409.9,260.3,409.9,260.3,409.9L260.3,409.9z"/>
					<path class="st16" d="M260.3,409.9h-6.2c1.4,19.1,0.7,38.8-1.9,59c-0.6,5-4.9,8.8-10,8.8h-21.4c1.8,18.6,4.4,37.3,7.7,56.1
						c0.8,4.8,5,8.3,9.9,8.3h11.5c-1.4-13.3-2.1-26.5-2.2-39.6c0-3.5,2.9-6.4,6.4-6.4h23.2c-4.4-21.9-9.7-51.6-9.2-65.4
						c0-0.4,0.1-0.8,0.1-1.1c0.3-1.6,1.3-3,2.6-3.9l4.7-6.8c-0.2-0.6-0.4-1.1-0.5-1.7C274.2,416.7,268.6,413.3,260.3,409.9
						L260.3,409.9z"/>
					<path class="st13" d="M384.5,409.9C384.5,409.9,384.5,409.9,384.5,409.9l9.7,0c0,0,0,0,0,0H384.5z"/>
					<path class="st17" d="M415.6,527c-0.4,2.3-0.8,4.5-1.2,6.8c-0.5,2.9-2.2,5.3-4.6,6.8c2.4-1.5,4.1-3.9,4.6-6.7
						C414.9,531.6,415.2,529.3,415.6,527L415.6,527L415.6,527z"/>
					<path class="st16" d="M394.1,409.9h-9.7c-5.8,2.4-10.2,4.8-12.7,6.2l11.6,9.4c2.2,1,3.7,3.2,3.7,5.8c-0.1,8-2,25.9-11,64.9
						h23.7c3.5,0,6.4,2.9,6.4,6.4c-0.1,13.1-0.8,26.3-2.2,39.6h0.6c1.9,0,3.8-0.5,5.3-1.5c2.4-1.5,4.1-3.9,4.6-6.8
						c0.4-2.3,0.8-4.5,1.2-6.8c0.2-1.2,0.4-2.3,0.6-3.5c2.5-15.3,4.5-30.6,6-45.8h-16.1c-5.1,0-9.3-3.8-10-8.8
						C393.5,448.7,392.8,429,394.1,409.9L394.1,409.9z"/>
					<path class="st18" d="M369.8,417.2c0,0,22.7-14.4,47.5-14.8c3.1-0.1,4.4-4,1.8-5.8c-2.5-1.7-6-3.4-10.9-4.2
						c-13.1-2.1-40.5,7.4-46.9,19.8C354.7,424.6,369.8,417.2,369.8,417.2L369.8,417.2z"/>
					<path class="st19" d="M416.6,398.4c-19,0-35.2,6.1-35.2,6.1s-3.1,0.8-5.8,0.8c-2.5,0-4.7-0.7-4.1-3.1c-2.3,1.5-4.4,3.1-6.2,4.7
						l-1.1,3l7.6,6.1c6.1-3.5,25.1-13.3,45.4-13.6c2.2,0,3.5-2.1,3.1-3.9C419.1,398.5,417.8,398.4,416.6,398.4L416.6,398.4z"/>
					<path class="st18" d="M275,417.2c0,0-22.7-14.4-47.5-14.8c-3.1-0.1-4.4-4-1.8-5.8c2.5-1.7,6-3.4,10.9-4.2
						c13.1-2.1,40.5,7.4,46.9,19.8C290,424.6,275,417.2,275,417.2L275,417.2z"/>
					<path class="st13" d="M224.4,398.6c-0.2,1.2,0.3,2.6,1.5,3.3C224.7,401.2,224.2,399.9,224.4,398.6L224.4,398.6z"/>
					<path class="st19" d="M226.8,398.5c-0.8,0-1.6,0-2.4,0c0,0,0,0.1,0,0.1c-0.2,1.2,0.3,2.6,1.5,3.3c0.5,0.3,1,0.5,1.7,0.5
						c24.8,0.4,47.5,14.8,47.5,14.8s0.5,0.2,1.2,0.6l5.6-8.2c-1.5-1.9-3.4-3.7-5.6-5.3c0.9,2.8-1,3.6-3.4,3.6
						c-2.9,0-6.5-1.1-6.5-1.1S247.8,398.5,226.8,398.5L226.8,398.5z"/>
					<path class="st20" d="M393,580.7h-22.6c-3.3,0-6-2.4-6.4-5.7c-3.4-26.3-1.7-51.2,5.7-74.4c0.9-2.7,3.3-4.5,6.1-4.5h24
						c3.5,0,6.4,2.9,6.4,6.4c-0.1,24-2.6,48.3-6.9,72.9C398.8,578.5,396.1,580.7,393,580.7L393,580.7z"/>
					<path class="st20" d="M260.9,580.7h22.6c3.3,0,6-2.4,6.4-5.7c3.4-26.3,1.7-51.2-5.7-74.4c-0.9-2.7-3.3-4.5-6.1-4.5h-24
						c-3.5,0-6.4,2.9-6.4,6.4c0.1,24,2.6,48.3,6.9,72.9C255.1,578.5,257.8,580.7,260.9,580.7L260.9,580.7z"/>
					<path class="st17" d="M362.4,542.1L362.4,542.1c-0.3,6.2-0.2,12.5,0.2,18.8C362.2,554.6,362.2,548.3,362.4,542.1L362.4,542.1z"
						/>
					<path class="st17" d="M399.3,575.4c0,0.1,0,0.2-0.1,0.3C399.3,575.6,399.3,575.5,399.3,575.4c0.4-2.4,0.8-4.9,1.2-7.3
						C400.1,570.5,399.7,573,399.3,575.4z M399.1,576.1C399.1,576.1,399.2,576,399.1,576.1C399.2,576.1,399.1,576.1,399.1,576.1
						C399.1,576.1,399.1,576.1,399.1,576.1z"/>
					<path class="st21" d="M388.4,496.1h-12.3c-0.2,1-0.5,2.1-0.7,3.2c-1,4.3-2.1,8.7-3.2,13.5h2.2c2.9,0,5.1,2.7,4.5,5.6l-1.9,9.1
						h0l-2.3,11h0l0,0l0,0c0,0.2-0.1,0.3-0.1,0.5c-0.3,1-1,1.8-1.8,2.4c0,0,0,0,0,0c0,0,0,0,0,0c-0.7,0.5-1.6,0.8-2.5,0.8h-7.6
						c-0.3,6.2-0.2,12.5,0.2,18.8c0.3,4.7,0.7,9.4,1.3,14.1c0,0.4,0.1,0.7,0.2,1.1c0.4,1.4,1.3,2.6,2.5,3.4c1.1,0.7,2.3,1.2,3.7,1.2
						H393c1.2,0,2.3-0.3,3.3-0.9c1.6-0.9,2.7-2.5,3-4.4c0.5-3,1-6.1,1.5-9.1c0.1-0.6,0.2-1.1,0.3-1.7h-8.8c-3.3,0-6-2.4-6.4-5.7
						C383.1,537,383.8,516,388.4,496.1L388.4,496.1z"/>
					<path class="st21" d="M277.2,496.1h-10.1c1.2,6.2,2.1,12.5,2.6,18.9c0.8-1.3,2.2-2.2,3.9-2.2h7.1
						C279.7,508.3,278.5,502.5,277.2,496.1L277.2,496.1z"/>
					<path class="st17" d="M287.5,579.3C287.5,579.3,287.5,579.3,287.5,579.3C287.5,579.3,287.5,579.3,287.5,579.3
						C287.5,579.3,287.5,579.3,287.5,579.3C287.5,579.3,287.5,579.3,287.5,579.3z M289.9,575c0,0.2-0.1,0.3-0.1,0.5
						C289.9,575.3,289.9,575.2,289.9,575c0.1-0.8,0.2-1.6,0.3-2.4C290.1,573.4,290,574.2,289.9,575z M289.7,576
						c0-0.1,0.1-0.2,0.1-0.3c0,0,0-0.1,0-0.1C289.8,575.6,289.8,575.7,289.7,576C289.7,575.9,289.7,575.9,289.7,576z"/>
					<path class="st21" d="M270.1,522.2c0.3,10.2-0.2,20.7-1.6,31.4c-0.4,3.2-3.1,5.7-6.4,5.7H252c0.8,5.4,1.6,10.7,2.6,16.1
						c0.2,1,0.6,1.9,1.1,2.6c0.3,0.5,0.7,0.9,1.2,1.2c1.1,0.9,2.5,1.4,4.1,1.4h22.7c0.7,0,1.3-0.1,1.9-0.3c2.3-0.7,4.1-2.8,4.4-5.4
						c1.4-11.2,2-22.2,1.5-32.9h-12.9c-1.2,0-2.3-0.4-3.1-1.2c0,0,0,0,0,0c0,0,0,0,0,0c-0.7-0.6-1.1-1.4-1.4-2.3l-2-8.3L270.1,522.2
						L270.1,522.2z"/>
					<path class="st22" d="M370.1,542.1h-91.5c-2.1,0-4-1.4-4.5-3.5l-4.9-20.1c-0.7-2.9,1.5-5.7,4.5-5.7h100.7
						c2.9,0,5.1,2.7,4.5,5.5l-4.3,20.1C374.1,540.6,372.2,542.1,370.1,542.1L370.1,542.1z"/>
					<path class="st23" d="M374.3,512.8h-2.2c0,0,0,0,0,0L374.3,512.8c2.9,0,5.1,2.7,4.5,5.6l-1.9,9.1h0l1.9-9.1
						C379.4,515.5,377.2,512.8,374.3,512.8L374.3,512.8z"/>
					<path class="st21" d="M269.7,515c-0.1,0.2-0.2,0.3-0.3,0.5C269.5,515.3,269.6,515.2,269.7,515L269.7,515L269.7,515z"/>
					<path class="st14" d="M372.6,541.3C372.6,541.3,372.6,541.3,372.6,541.3C372.6,541.3,372.6,541.4,372.6,541.3
						c-0.1,0.1-0.2,0.1-0.3,0.2c-0.1,0-0.1,0.1-0.2,0.1c-0.1,0.1-0.3,0.1-0.4,0.2 M372.7,541.3c0.1-0.1,0.2-0.2,0.3-0.2l0.5-0.5
						c0,0,0,0,0,0l0.1,0l0.2-0.2l0,0l0,0l0.2-0.2l0.1-0.1c0,0,0,0,0-0.1l0,0l0-0.1v0c0.1-0.1,0.1-0.2,0.2-0.3c0-0.1,0.1-0.2,0.1-0.3
						 M374.4,538.9L374.4,538.9c0,0.1-0.1,0.2-0.1,0.4c-0.1,0.1-0.1,0.2-0.2,0.3v0l0,0.1l0,0c0,0,0,0,0,0c0,0,0,0,0,0l-0.1,0.1
						l-0.2,0.2l0,0l0,0l-0.2,0.2l-0.1,0c0,0,0,0,0,0l-0.5,0.5c-0.1,0.1-0.2,0.2-0.3,0.2c0,0,0,0,0,0 M374.6,538.4L374.6,538.4
						L374.6,538.4L374.6,538.4L374.6,538.4L374.6,538.4 M374.6,538.4L374.6,538.4L374.6,538.4"/>
					<path class="st14" d="M276,541.3C276,541.3,276,541.3,276,541.3c-0.1,0-0.1-0.1-0.1-0.1c-0.1,0-0.1-0.1-0.2-0.1
						c-0.1-0.1-0.2-0.2-0.3-0.2c0,0,0,0,0,0 M275,540.4C275,540.4,274.9,540.3,275,540.4C274.9,540.3,274.9,540.4,275,540.4
						C275,540.4,275,540.4,275,540.4C275,540.4,275,540.4,275,540.4z M270.9,513.7C270.8,513.7,270.8,513.7,270.9,513.7L270.9,513.7
						c-0.1,0-0.1,0.1-0.1,0.1c0,0,0,0,0,0l0,0c0,0,0,0,0,0C270.7,513.8,270.7,513.8,270.9,513.7c0,0,0,0,0.1-0.1
						C270.9,513.7,270.9,513.7,270.9,513.7z M270.6,513.9L270.6,513.9C270.6,513.9,270.7,513.9,270.6,513.9
						C270.7,513.8,270.7,513.9,270.6,513.9C270.6,513.9,270.6,513.9,270.6,513.9z M272.7,512.9L272.7,512.9c0.1,0,0.1,0,0.2,0
						L272.7,512.9z M273.6,512.8c-0.1,0-0.2,0-0.3,0c-0.1,0-0.1,0-0.2,0c0,0,0,0-0.1,0c0.1,0,0.1,0,0.2,0
						C273.4,512.8,273.5,512.8,273.6,512.8l7.1,0v0H273.6z"/>
					<path class="st24" d="M374.3,512.8h-2.2c-0.8,3.1-1.5,6.2-2.4,9.5h-87c0,0,0,0,0,0h0c0,0-0.8-3.6-2.1-9.5h-5.8
						c-1.7,0-3.1,0.9-3.9,2.2c-0.1,0.2-0.2,0.3-0.3,0.5c-0.4,0.9-0.5,1.9-0.3,3l2.9,11.8l2,8.3c0.2,0.9,0.7,1.7,1.4,2.3
						c0,0-1.2,0-1.2,0c0,0,1.2,0,1.2,0c0.8,0.8,1.9,1.2,3.1,1.2h90.3c0.9,0,1.8-0.3,2.5-0.8c0,0,0,0,0,0c0,0,0,0,0,0
						c0.8-0.6,1.5-1.4,1.8-2.4c0.1-0.2,0.1-0.3,0.1-0.5l0,0l0,0h-77.9c-2.1,0-4-0.5-4.5-1.3l-4.9-7.5c-0.7-1.1,1.5-2.1,4.5-2.1h85.1
						l1.9-9.1C379.4,515.5,377.2,512.8,374.3,512.8L374.3,512.8z"/>
					<path class="st15" d="M359.7,406.5c-2.7-18.4-18.5-32.5-37.6-32.5c-19.1,0-34.9,14.1-37.6,32.5c-0.3,1.8-0.4,3.7-0.4,5.6
						c0,9,3.1,17.2,8.3,23.7l14.2,0.9c-8.2-5.2-13.6-14.2-13.6-24.6c0-1.9,0.2-3.8,0.5-5.6c2.6-13.4,14.4-23.5,28.5-23.5
						c14.1,0,25.9,10.1,28.5,23.5c0.4,1.8,0.5,3.7,0.5,5.6c0,11.6-6.8,21.7-16.7,26.3l14.2,0.9c7.1-6.9,11.5-16.5,11.5-27.2
						C360.1,410.2,360,408.3,359.7,406.5L359.7,406.5z"/>
					<polygon class="st18" points="385.4,427 381.7,441.3 348.7,439.3 334.4,438.4 306.6,436.7 292.4,435.8 273,434.6 268.3,429.4 
						284,406.5 360,406.5 385.4,427 					"/>
					<path class="st19" d="M301.8,406.5h-8.2h-9.1H284l-2.1,3.1l-5.6,8.2l-5.4,7.9c0.8-0.6,1.8-0.9,2.9-1c0.2,0,0.4,0,0.6,0
						c0,0,0,0,0,0l106.6,0.2c0.9,0,1.8,0.2,2.6,0.5l-10-8h-16.3c-0.1,0-0.2,0-0.3,0c-0.1,0-0.2,0-0.3,0h-59.8L301.8,406.5
						L301.8,406.5z"/>
					<path class="st18" d="M274.3,424.6l106.6,0.2c3.5,0,6.3,2.9,6.3,6.4c-0.1,9.6-2.9,33.4-17.4,91.1h-87c0,0-15.5-68.4-14.8-91.6
						C268.1,427.3,270.9,424.6,274.3,424.6L274.3,424.6z"/>
					<path class="st25" d="M270.8,425.7c-1.3,0.9-2.3,2.3-2.6,3.9C268.5,428,269.5,426.6,270.8,425.7L270.8,425.7L270.8,425.7z"/>
					<path class="st26" d="M273.7,424.7c-1.1,0.1-2,0.5-2.9,1l0,0C271.6,425.1,272.6,424.8,273.7,424.7L273.7,424.7z"/>
					<path class="st23" d="M375.4,499.3c-1,4.3-2.1,8.7-3.2,13.5h0C373.3,508,374.4,503.5,375.4,499.3L375.4,499.3z"/>
					<polyline class="st14" points="372.1,512.8 372.1,512.8 372.1,512.8 372.1,512.8 372.1,512.8 					"/>
					<path class="st27" d="M372.1,512.8L372.1,512.8c-0.8,3.1-1.5,6.2-2.4,9.5h-87c0,0,0,0,0,0h87
						C370.6,519,371.4,515.8,372.1,512.8L372.1,512.8z"/>
					<path class="st19" d="M371.2,498c-3.4-0.2-6.7-0.6-9.9-1.3c-1.4-0.3-2.8-0.6-4.1-1c-0.2-0.1-0.4-0.1-0.6-0.2
						c-1-0.3-1.9-0.6-2.9-0.9c-1.4-0.5-2.8-1-4.2-1.5c-1.4-0.6-2.8-1.2-4.2-1.8c-1.5-0.7-2.9-1.4-4.3-2.2c-1.7-1-3.4-2-5.1-3.2
						c-1.5-1.1-3-2.2-4.5-3.3c-1.4-1.1-2.8-2.3-4.1-3.5c-1.7-1.6-3.3-3.3-4.9-5c-0.5-0.6-1-1.1-1.5-1.7c-0.2-0.2-0.4-0.4-0.5-0.7
						c-0.8-1-1.5-2-2.3-3v0c-0.9-1.2-1.7-2.5-2.5-3.8c-3.8-6.1-6.7-12.8-8.5-20c-0.5-2-0.9-4.1-1.3-6.3c-0.1-0.7-0.2-1.4-0.3-2.1
						c0-0.2-0.1-0.5-0.1-0.7v0c-0.3-1.9-0.6-3.8-0.8-5.6c-0.3-1.9-0.5-3.8-0.7-5.6l-6.8,0l-1.2,0h-1.7l-8,0l-7.8,0h-1.2l-2.9,0h0
						c-0.1,0-0.2,0-0.3,0c-0.1,0-0.2,0-0.3,0c-0.2,0-0.3,0-0.5,0.1c0,0,0,0-0.1,0c-0.1,0-0.2,0-0.2,0.1c-0.1,0-0.2,0.1-0.3,0.1
						c0,0-0.1,0-0.1,0c-0.2,0.1-0.4,0.1-0.6,0.2c-0.1,0-0.2,0.1-0.3,0.1c0,0-0.1,0-0.1,0.1c0,0-0.1,0-0.1,0.1c0,0-0.1,0-0.1,0.1
						c0,0,0,0,0,0c0,0,0,0-0.1,0c0,0,0,0,0,0c0,0-0.1,0.1-0.1,0.1c0,0-0.1,0.1-0.1,0.1c0,0,0,0,0,0c0,0,0,0,0,0c0,0,0,0,0,0
						c-0.1,0-0.2,0.1-0.2,0.2c-0.1,0-0.1,0.1-0.2,0.1l-0.4,0.4c0,0,0,0-0.1,0.1c-0.1,0.1-0.1,0.1-0.2,0.2c0,0,0,0.1-0.1,0.1
						c0,0,0,0,0,0c0,0,0,0,0,0c0,0,0,0,0,0c0,0,0,0,0,0c0,0,0,0,0,0v0l-0.3,0.4l-0.3,0.5c0,0,0,0,0,0c0,0,0,0,0,0.1v0l-0.1,0.3
						l-0.1,0.1c0,0.1-0.1,0.2-0.1,0.3c0,0,0,0,0,0.1c0,0,0,0,0,0c0,0,0,0,0,0.1c0,0,0,0,0,0c0,0.1-0.1,0.1-0.1,0.2v0l0,0
						c0,0.1-0.1,0.2-0.1,0.3c0,0,0,0,0,0c0,0.1,0,0.2-0.1,0.3c-0.1,0.4-0.1,0.7-0.1,1.1c0,1,0,2.2,0,3.4c0,0.1,0,0.3,0,0.4
						c0,0.1,0,0.2,0,0.3s0,0.2,0,0.4c0,0.3,0,0.6,0,0.8v0.1c0,0,0,0,0,0c0,0,0,0,0,0v0c0,0.2,0,0.4,0,0.6v0c0,0.3,0,0.5,0,0.8
						c0,0.4,0.1,0.9,0.1,1.3c0,0.1,0,0.2,0,0.4c0,0.3,0,0.6,0.1,0.9c0,0.1,0,0.1,0,0.2c0,0.2,0,0.4,0,0.6v0.1c0,0.3,0.1,0.6,0.1,0.9
						c0,0.2,0,0.4,0,0.5c0,0.3,0.1,0.7,0.1,1c0,0.3,0.1,0.5,0.1,0.8c0,0.2,0,0.5,0.1,0.8v0.1c0,0.1,0,0.1,0,0.2
						c0,0.2,0.1,0.5,0.1,0.7c0,0.1,0,0.3,0,0.4c0,0.1,0,0.1,0,0.2c0,0,0,0,0,0.1c0.1,0.5,0.1,1.1,0.2,1.6c0.1,0.6,0.1,1.1,0.2,1.7
						c0,0,0,0.1,0,0.1c0,0.1,0,0.3,0,0.5c0,0.3,0.1,0.6,0.1,0.9c0,0.1,0,0.3,0,0.4c0,0.2,0.1,0.5,0.1,0.8c0,0.3,0.1,0.7,0.1,1
						c0,0.3,0.1,0.7,0.1,1c0,0.3,0.1,0.5,0.1,0.8c0,0.2,0,0.3,0.1,0.5c0,0.2,0.1,0.3,0.1,0.5c0,0.2,0.1,0.4,0.1,0.6c0,0,0,0.1,0,0.1
						c0,0.2,0.1,0.4,0.1,0.6c0.1,0.7,0.2,1.4,0.3,2.1c0,0.1,0,0.2,0.1,0.4c0,0.2,0,0.3,0.1,0.5c0.1,0.3,0.1,0.6,0.1,0.9l0.1,1
						c0.1,0.9,0.3,1.8,0.4,2.7c0,0.3,0.1,0.6,0.1,0.9c0,0,0,0.1,0,0.1c0,0,0,0,0,0.1c0.1,0.5,0.2,1.1,0.3,1.6c0,0.2,0.1,0.4,0.1,0.5
						c0,0.2,0.1,0.4,0.1,0.6c0.1,0.3,0.1,0.6,0.2,0.9c0.1,0.7,0.2,1.4,0.3,2c0,0.2,0.1,0.3,0.1,0.5c0.2,1,0.3,1.9,0.5,2.9
						c0,0.1,0,0.1,0,0.2c0.2,0.9,0.3,1.8,0.5,2.8c0.1,0.3,0.1,0.7,0.2,1c0.1,0.4,0.2,0.9,0.2,1.3c0,0.1,0.1,0.3,0.1,0.4
						c0,0.2,0.1,0.4,0.1,0.6c0.1,0.5,0.2,1,0.3,1.4c0.2,1,0.4,1.9,0.5,2.9c0.1,0.7,0.3,1.4,0.4,2.1c0,0.2,0.1,0.3,0.1,0.5
						c0.1,0.3,0.1,0.6,0.2,0.9c0.1,0.2,0.1,0.5,0.1,0.7c0,0.2,0.1,0.4,0.1,0.7c0,0.2,0.1,0.3,0.1,0.5c0.1,0.3,0.1,0.5,0.2,0.8
						c0,0,0,0.1,0,0.1c0,0.2,0.1,0.4,0.1,0.5c0,0.1,0,0.2,0,0.2c0.2,0.8,0.3,1.6,0.5,2.3c0,0.3,0.1,0.6,0.2,0.8c0,0,0,0.1,0,0.1
						c0.1,0.5,0.2,1.1,0.3,1.6c0.1,0.3,0.1,0.5,0.2,0.8c0,0.1,0,0.2,0,0.3c0,0.2,0.1,0.4,0.1,0.6c0.1,0.3,0.1,0.5,0.2,0.8
						c0,0.1,0,0.1,0,0.2c0,0.1,0.1,0.3,0.1,0.4c0,0,0,0.1,0,0.1c0,0.1,0,0.1,0.1,0.2c0.2,0.8,0.3,1.7,0.5,2.5c0,0.2,0.1,0.3,0.1,0.5
						c0,0.1,0.1,0.3,0.1,0.4c0.1,0.2,0.1,0.4,0.1,0.6c0,0.1,0,0.2,0.1,0.3c0.1,0.6,0.2,1.2,0.4,1.8c0,0.2,0.1,0.4,0.1,0.6
						c0,0.1,0.1,0.3,0.1,0.5c0,0,0,0.1,0,0.1c0,0,0,0.1,0,0.1c0,0.1,0,0.1,0,0.2c0,0.1,0,0.1,0,0.2c0.1,0.3,0.1,0.6,0.2,0.9
						c0,0,0,0.1,0,0.1c0,0.1,0,0.1,0,0.2c0,0.1,0,0.2,0.1,0.3c0.1,0.3,0.1,0.5,0.2,0.8c0,0.1,0.1,0.3,0.1,0.5c0,0.1,0,0.1,0,0.2
						c0,0.1,0,0.1,0,0.2c0,0.1,0,0.1,0,0.2c0,0.1,0.1,0.3,0.1,0.4v0h0c0,0.2,0.1,0.3,0.1,0.5c0.1,0.4,0.1,0.7,0.2,1
						c0.1,0.4,0.2,0.9,0.3,1.3c0.1,0.3,0.1,0.5,0.2,0.8c0,0.1,0,0.1,0,0.2c0,0.2,0.1,0.3,0.1,0.5c0.1,0.2,0.1,0.5,0.2,0.7
						c0,0.1,0.1,0.3,0.1,0.4c0,0.1,0,0.1,0,0.2c0,0.2,0.1,0.4,0.1,0.6c0,0.1,0,0.1,0,0.2c0,0.1,0,0.2,0,0.2c0,0.1,0,0.2,0.1,0.2
						s0,0.2,0,0.2c0,0.1,0,0.1,0.1,0.2c0,0.1,0,0.2,0.1,0.3c0,0,0,0.1,0,0.1c0,0.1,0,0.1,0,0.2c0,0.1,0,0.2,0.1,0.2
						c0.1,0.3,0.1,0.5,0.1,0.7c0,0.1,0,0.1,0,0.1c0,0,0,0,0,0c0,0,0,0,0,0.1c0,0,0,0.1,0,0.1c0,0,0,0,0,0.1c0,0.1,0.1,0.2,0.1,0.3
						c0,0,0,0,0,0c0,0,0,0,0,0v0c0,0,0,0,0,0c0,0,0,0,0,0c0,0,0,0,0,0h87c0.2-0.8,0.4-1.6,0.6-2.4c0.2-1,0.5-1.9,0.7-2.9
						c0.2-0.6,0.3-1.3,0.5-1.9c0.1-0.2,0.1-0.5,0.2-0.7c0-0.1,0.1-0.3,0.1-0.4c0.1-0.4,0.2-0.8,0.3-1.2v0c0.1-0.3,0.1-0.6,0.2-0.9
						c0.1-0.3,0.1-0.6,0.2-0.9c0.1-0.3,0.2-0.7,0.2-1c0-0.2,0.1-0.4,0.1-0.6c0-0.1,0-0.1,0-0.2c0.1-0.6,0.3-1.1,0.4-1.7
						c0-0.2,0.1-0.4,0.1-0.6c0.4-1.5,0.7-3,1.1-4.5c0.3-1.1,0.5-2.2,0.8-3.2c0.1-0.4,0.2-0.7,0.3-1.1
						C374.1,498.2,372.7,498.1,371.2,498z M294.9,434.5c0.4,0.1,0.8,0.3,1.2,0.4c0.2,0.1,0.5,0.2,0.7,0.3c0.6,0.3,1.3,0.6,1.9,1h0
						c0,0,0.1,0,0.1,0.1c0.2,0.1,0.3,0.2,0.5,0.3c0.2,0.1,0.4,0.3,0.6,0.4c0.4,0.3,0.7,0.6,1.1,0.9c1.2,1.1,2.2,2.4,2.9,3.8
						c0.2,0.4,0.4,0.8,0.5,1.2c0.1,0.2,0.1,0.4,0.2,0.7c0.1,0.2,0.1,0.4,0.2,0.7s0.1,0.4,0.1,0.7c0,0.2,0.1,0.3,0.1,0.5
						c0,0.1,0,0.2,0,0.3c0,0.1,0,0.3,0,0.4c0,0.2,0,0.5,0,0.8c0,0.5,0,1-0.1,1.4c0,0.1,0,0.1,0,0.2c0,0.1,0,0.3-0.1,0.4
						c0,0.2-0.1,0.3-0.1,0.5c-0.1,0.3-0.1,0.6-0.2,0.8c-0.1,0.2-0.1,0.4-0.2,0.6c0,0,0,0,0,0.1c-0.1,0.2-0.1,0.4-0.2,0.6
						c-0.1,0.2-0.2,0.4-0.3,0.6c0,0.1-0.1,0.2-0.1,0.3c0,0.1-0.1,0.2-0.1,0.3c-0.1,0.2-0.2,0.4-0.3,0.5c0,0,0,0,0,0c0,0,0,0-0.1,0.1
						c0,0.1-0.1,0.1-0.1,0.2c-0.1,0.1-0.2,0.3-0.3,0.4c-0.1,0.1-0.2,0.3-0.3,0.4c-0.1,0.1-0.1,0.2-0.2,0.3c-0.1,0.1-0.2,0.2-0.3,0.3
						c-0.1,0.1-0.2,0.2-0.2,0.3c0,0,0,0,0,0c0,0,0,0-0.1,0c0,0-0.1,0.1-0.1,0.1c-0.1,0.1-0.2,0.2-0.3,0.3c-0.1,0.1-0.2,0.2-0.3,0.3
						c-0.2,0.2-0.4,0.4-0.6,0.6c0,0-0.1,0.1-0.1,0.1c-0.1,0.1-0.1,0.1-0.2,0.2c0,0-0.1,0.1-0.2,0.1c-0.4,0.3-0.8,0.6-1.3,0.9
						c-0.2,0.1-0.4,0.2-0.6,0.4c-0.1,0.1-0.2,0.1-0.4,0.2c-0.1,0-0.1,0.1-0.2,0.1c-0.1,0.1-0.2,0.1-0.3,0.2
						c-0.2,0.1-0.4,0.2-0.6,0.3c-0.1,0-0.1,0-0.1,0.1c0,0,0,0,0,0c0,0,0,0-0.1,0c0,0-0.1,0-0.1,0c-0.2,0.1-0.3,0.1-0.5,0.2
						c-0.1,0.1-0.3,0.1-0.4,0.1c-0.1,0-0.2,0.1-0.3,0.1c0,0,0,0,0,0c0,0,0,0-0.1,0c-0.1,0-0.2,0.1-0.3,0.1v0c0,0,0,0,0,0
						c-0.1,0-0.2,0.1-0.3,0.1c-0.2,0.1-0.5,0.1-0.7,0.2c-0.1,0-0.2,0-0.3,0.1c0,0,0,0-0.1,0c0,0,0,0-0.1,0c-0.1,0-0.1,0-0.2,0
						c-0.1,0-0.2,0-0.2,0c-0.1,0-0.3,0.1-0.4,0.1c-0.1,0-0.2,0-0.3,0c-0.2,0-0.4,0-0.6,0.1c0,0-0.1,0-0.1,0c-0.1,0-0.1,0-0.2,0h-0.1
						c-0.1,0-0.2,0-0.3,0h-0.1c0,0,0,0,0,0c-0.1,0-0.1,0-0.2,0h-0.1c-0.2,0-0.3,0-0.5,0c-0.3,0-0.7,0-1,0c-0.1,0-0.1,0-0.2,0
						c-0.1,0-0.2,0-0.3,0h0c-0.1,0-0.1,0-0.2,0h-0.1c0,0,0,0-0.1,0c0,0-0.1,0-0.1,0c-0.1,0-0.2,0-0.3,0c-0.2,0-0.4-0.1-0.6-0.1h0
						c0,0,0,0,0,0c0,0,0,0-0.1,0c-0.2-0.1-0.5-0.1-0.7-0.1c-0.2,0-0.3-0.1-0.5-0.1c-0.2-0.1-0.5-0.1-0.7-0.2c-0.1,0-0.2-0.1-0.3-0.1
						v0c-0.1,0-0.3-0.1-0.4-0.1c-0.1,0-0.2-0.1-0.3-0.1c-0.2-0.1-0.3-0.1-0.5-0.2c0,0-0.1,0-0.1-0.1c0,0-0.1,0-0.1-0.1
						c-0.1,0-0.2-0.1-0.3-0.1c-0.1,0-0.1-0.1-0.2-0.1c-0.1,0-0.2-0.1-0.2-0.1c-0.1,0-0.3-0.1-0.4-0.2c0,0,0,0,0,0v0c0,0,0,0,0,0
						c0,0-0.1,0-0.1-0.1c-0.2-0.1-0.4-0.2-0.7-0.4c-0.1,0-0.1-0.1-0.2-0.1c0,0,0,0,0,0c-0.2-0.1-0.5-0.3-0.7-0.4
						c-0.5-0.3-0.9-0.7-1.3-1c-0.2-0.2-0.4-0.4-0.6-0.6c-0.2-0.2-0.4-0.4-0.6-0.6c-0.1-0.2-0.3-0.3-0.4-0.5
						c-0.2-0.2-0.4-0.5-0.6-0.7c0,0,0,0,0,0c-0.1-0.2-0.3-0.4-0.4-0.6c-0.1-0.2-0.2-0.3-0.3-0.5c0-0.1-0.1-0.2-0.1-0.2
						c0,0,0-0.1-0.1-0.1c-0.1-0.2-0.2-0.4-0.3-0.7c0-0.1-0.1-0.2-0.1-0.3c-0.1-0.1-0.1-0.3-0.1-0.4c0,0,0,0,0,0
						c-0.1-0.2-0.1-0.4-0.2-0.7c0-0.1,0-0.1-0.1-0.2c0-0.1-0.1-0.3-0.1-0.5c0-0.1-0.1-0.2-0.1-0.3c0-0.2-0.1-0.3-0.1-0.5
						c-0.1-0.6-0.1-1.1-0.1-1.7c0-0.1,0-0.2,0-0.3c0-0.1,0-0.2,0-0.3c0-0.2,0-0.4,0-0.5c0-0.1,0-0.1,0-0.2c0-0.1,0-0.2,0.1-0.3
						c0-0.1,0-0.2,0-0.4c0,0,0-0.1,0-0.1c0-0.2,0.1-0.4,0.1-0.6c0,0,0-0.1,0-0.1c0.1-0.3,0.1-0.5,0.2-0.8c0,0,0-0.1,0-0.1
						c0-0.1,0-0.1,0.1-0.2c0-0.1,0-0.1,0.1-0.2c0.1-0.3,0.2-0.6,0.3-0.8c0,0,0-0.1,0-0.1c0-0.1,0.1-0.2,0.2-0.3
						c0.1-0.2,0.2-0.4,0.3-0.6c0.1-0.1,0.2-0.3,0.3-0.4c0.1-0.1,0.2-0.3,0.3-0.4c0.1-0.1,0.2-0.3,0.3-0.4c0,0,0-0.1,0.1-0.1
						c0,0,0.1-0.1,0.1-0.1c0.1-0.1,0.1-0.1,0.2-0.2c0-0.1,0.1-0.1,0.1-0.2c0.3-0.4,0.6-0.7,0.9-1c0.2-0.2,0.3-0.3,0.5-0.5
						c0.2-0.1,0.3-0.3,0.5-0.4c0,0,0,0,0,0c0.2-0.1,0.3-0.3,0.5-0.4c0.1-0.1,0.1-0.1,0.2-0.1c0.1-0.1,0.2-0.1,0.3-0.2l0,0
						c0,0,0,0,0.1,0c0.2-0.1,0.4-0.2,0.5-0.4c0.1-0.1,0.2-0.1,0.3-0.2c0.3-0.2,0.5-0.3,0.8-0.4c0.1,0,0.1,0,0.2-0.1
						c0.1-0.1,0.2-0.1,0.2-0.1c0.1,0,0.1-0.1,0.2-0.1h0c0.2-0.1,0.4-0.2,0.6-0.3c0.1,0,0.1-0.1,0.2-0.1c0,0,0.1,0,0.1,0
						c0.3-0.1,0.5-0.2,0.8-0.3c0.4-0.1,0.8-0.3,1.3-0.4c0.3-0.1,0.6-0.1,0.9-0.2c0.2,0,0.3-0.1,0.5-0.1c0.2,0,0.5-0.1,0.7-0.1
						c0.4-0.1,0.9-0.1,1.4-0.1c0.3,0,0.5,0,0.8,0c0.3,0,0.5,0,0.8,0c0.2,0,0.3,0,0.5,0c0.7,0.1,1.3,0.1,2,0.2c0.1,0,0.3,0.1,0.4,0.1
						c0.2,0,0.5,0.1,0.7,0.2C294.3,434.3,294.6,434.4,294.9,434.5z"/>
					<path class="st28" d="M304.9,446.9c0,7.3-6.9,13.2-15.4,13.2c-8.5,0-15.4-5.9-15.4-13.2c0-7.3,6.9-13.2,15.4-13.2
						C298.1,433.7,304.9,439.6,304.9,446.9L304.9,446.9z"/>
					<path class="st28" d="M378.6,446.9c0,7.3-6.9,13.2-15.4,13.2c-8.5,0-15.4-5.9-15.4-13.2c0-7.3,6.9-13.2,15.4-13.2
						C371.7,433.7,378.6,439.6,378.6,446.9L378.6,446.9z"/>
					<path class="st29" d="M304.8,448.5C304.8,448.5,304.8,448.5,304.8,448.5c-0.9,6.5-7.4,11.6-15.3,11.6c-3.3,0-6.4-0.9-9-2.5
						c2.5,1.6,5.6,2.5,9,2.5C297.4,460.1,303.9,455,304.8,448.5L304.8,448.5z"/>
					<path class="st30" d="M284.1,434.6c-5.8,1.9-9.9,6.7-9.9,12.3c0,4.4,2.5,8.3,6.4,10.7c2.5,1.6,5.6,2.5,9,2.5
						c7.9,0,14.3-5.1,15.3-11.6c-1.7,0.6-3.6,0.9-5.5,0.9c-8.5,0-15.4-5.9-15.4-13.2C284,435.6,284,435.1,284.1,434.6L284.1,434.6z"
						/>
					<path class="st14" d="M374,456.3L374,456.3L374,456.3C374,456.3,374,456.3,374,456.3C374,456.3,374.1,456.3,374,456.3
						c0.2-0.2,0.4-0.4,0.6-0.6c0,0,0.1-0.1,0.1-0.1c0.2-0.2,0.4-0.4,0.6-0.7c0,0,0,0,0,0c0,0,0,0,0,0c0,0,0.1-0.1,0.1-0.1
						c0.1-0.1,0.1-0.2,0.2-0.3c0,0,0,0,0.1-0.1c0.1-0.1,0.2-0.2,0.2-0.3c0,0,0,0,0,0c0,0,0,0,0,0c0.2-0.2,0.3-0.5,0.5-0.7
						c0,0,0,0,0,0c0,0,0,0,0,0c0,0,0,0,0,0c0,0,0,0,0-0.1c0.1-0.2,0.3-0.4,0.4-0.7 M351.9,455.8c0.1,0.1,0.1,0.1,0.2,0.2
						c0.1,0,0.1,0.1,0.2,0.1c0.3,0.3,0.6,0.5,0.9,0.8c0.1,0,0.1,0.1,0.2,0.1c0.2,0.1,0.4,0.3,0.6,0.4c0.1,0.1,0.1,0.1,0.2,0.2
						c0.3,0.2,0.7,0.4,1,0.6c0,0,0,0,0.1,0c0.1,0.1,0.2,0.1,0.3,0.1c0.1,0,0.2,0.1,0.2,0.1c0.1,0,0.1,0.1,0.2,0.1
						c0.2,0.1,0.4,0.2,0.6,0.2c0.5,0.2,0.9,0.4,1.4,0.5c0.1,0,0.2,0.1,0.3,0.1c0.1,0,0.1,0,0.2,0c0,0,0.1,0,0.1,0c0,0,0,0,0,0
						c0,0,0.1,0,0.1,0c0,0,0,0,0.1,0c0,0,0,0,0,0c0,0,0,0,0,0c0,0,0.1,0,0.1,0c0.1,0,0.3,0.1,0.4,0.1c0,0,0,0,0,0
						c0.2,0.1,0.5,0.1,0.7,0.1c0.1,0,0.2,0,0.3,0c0,0,0,0,0,0c0.1,0,0.2,0,0.3,0c0.2,0,0.3,0,0.5,0.1c0,0,0,0,0.1,0
						c0.1,0,0.2,0,0.3,0c0.6,0.1,1.1,0.1,1.7,0.1c0.2,0,0.4,0,0.5,0c0,0,0,0,0,0c0.1,0,0.2,0,0.2,0c0.3,0,0.5,0,0.8,0
						c0,0,0.1,0,0.1,0c0,0,0,0,0,0c0,0,0,0,0.1,0c0.3,0,0.6-0.1,0.9-0.1c0.2,0,0.3,0,0.5-0.1c0.2,0,0.4-0.1,0.6-0.1
						c0.2,0,0.4-0.1,0.7-0.1c0,0,0.1,0,0.1,0c0,0,0,0,0,0c0,0,0,0,0,0c0,0,0.1,0,0.1,0c0.2,0,0.4-0.1,0.6-0.2
						c0.2-0.1,0.5-0.2,0.7-0.2c0,0,0,0,0,0c0,0,0,0,0.1,0c0,0,0.1,0,0.1-0.1c0.1,0,0.2-0.1,0.3-0.1c0.2-0.1,0.3-0.1,0.5-0.2
						c0.1,0,0.1,0,0.2-0.1c0.1,0,0.1,0,0.2-0.1c0.1,0,0.2-0.1,0.3-0.1c0.1,0,0.2-0.1,0.3-0.2c0,0,0.1,0,0.1-0.1
						c0.2-0.1,0.3-0.2,0.5-0.3c0.2-0.1,0.4-0.2,0.6-0.4c0.1,0,0.2-0.1,0.3-0.2c0.1-0.1,0.3-0.2,0.5-0.3c0,0,0.1,0,0.1-0.1
						c0.1,0,0.1-0.1,0.2-0.1c0.1,0,0.1-0.1,0.2-0.1c0.1,0,0.1-0.1,0.2-0.1c0.1-0.1,0.2-0.2,0.3-0.2 M374,456.3L374,456.3L374,456.3
						c-0.1,0.1-0.2,0.2-0.3,0.2c0,0-0.1,0.1-0.2,0.1c0,0-0.1,0.1-0.2,0.1c0,0-0.1,0.1-0.2,0.1c0,0-0.1,0-0.1,0.1
						c-0.1,0.1-0.3,0.2-0.5,0.3c-0.1,0.1-0.2,0.1-0.3,0.2c-0.2,0.1-0.4,0.2-0.6,0.4c-0.2,0.1-0.3,0.2-0.5,0.3c0,0-0.1,0-0.1,0.1
						c-0.1,0-0.1,0.1-0.2,0.1c0,0-0.1,0.1-0.1,0.1c-0.1,0.1-0.2,0.1-0.3,0.1c-0.1,0-0.1,0-0.2,0.1c-0.1,0-0.1,0-0.2,0.1
						c-0.2,0.1-0.3,0.2-0.5,0.2c-0.1,0-0.2,0.1-0.3,0.1c0,0-0.1,0-0.1,0.1c0,0-0.1,0-0.1,0c0,0,0,0,0,0c-0.2,0.1-0.5,0.2-0.7,0.2
						c-0.2,0.1-0.4,0.1-0.6,0.2c0,0-0.1,0-0.1,0c0,0,0,0,0,0c0,0-0.1,0-0.1,0c-0.2,0-0.4,0.1-0.7,0.1c-0.2,0-0.4,0.1-0.6,0.1
						c-0.2,0-0.3,0.1-0.5,0.1c-0.2,0-0.4,0.1-0.6,0.1c-0.1,0-0.2,0-0.3,0c0,0,0,0-0.1,0c0,0,0,0,0,0c0,0,0,0,0,0c0,0,0,0-0.1,0
						c-0.1,0-0.2,0-0.3,0c-0.1,0-0.2,0-0.4,0c-0.1,0-0.1,0-0.1,0c0,0-0.1,0-0.1,0c0,0-0.1,0-0.1,0c0,0,0,0,0,0c-0.2,0-0.3,0-0.5,0
						c-0.5,0-1,0-1.6-0.1c-0.1,0-0.1,0-0.2,0c-0.1,0-0.2,0-0.3,0c0,0,0,0-0.1,0c-0.2,0-0.3,0-0.5-0.1c-0.1,0-0.1,0-0.2,0
						c0,0-0.1,0-0.1,0c-0.1,0-0.2,0-0.3,0c-0.1,0-0.2,0-0.3,0c0,0-0.1,0-0.1,0c-0.1,0-0.2,0-0.3-0.1c0,0,0,0,0,0
						c-0.1,0-0.3-0.1-0.4-0.1c0,0-0.1,0-0.1,0c0,0,0,0,0,0s0,0,0,0c0,0,0,0-0.1,0c0,0-0.1,0-0.1,0c0,0,0,0,0,0c0,0,0,0-0.1,0
						c-0.1,0-0.3-0.1-0.4-0.1c0,0-0.1,0-0.1,0c-0.5-0.2-1-0.3-1.4-0.5c-0.1,0-0.1-0.1-0.2-0.1c-0.1-0.1-0.3-0.1-0.4-0.2
						c0,0,0,0-0.1,0c-0.1,0-0.2-0.1-0.2-0.1c0,0-0.1,0-0.1-0.1c0,0-0.1,0-0.1-0.1c0,0,0,0-0.1,0c-0.3-0.2-0.7-0.4-1-0.6
						c-0.1-0.1-0.2-0.1-0.2-0.2c-0.2-0.1-0.4-0.2-0.6-0.4c-0.1,0-0.1-0.1-0.2-0.1c-0.3-0.2-0.6-0.5-0.9-0.8c-0.1,0-0.1-0.1-0.2-0.1
						c-0.1-0.1-0.1-0.1-0.2-0.2c-0.1-0.1-0.2-0.2-0.3-0.3c-0.1-0.1-0.2-0.2-0.2-0.3 M377.1,452.6
						C377.1,452.6,377.1,452.6,377.1,452.6c-0.2,0.3-0.3,0.5-0.5,0.8c0,0,0,0.1,0,0.1c0,0,0,0,0,0c0,0,0,0,0,0c0,0,0,0,0,0
						c-0.2,0.2-0.3,0.5-0.5,0.7c0,0,0,0,0,0c0,0,0,0,0,0c-0.1,0.1-0.2,0.2-0.2,0.3c0,0,0,0-0.1,0.1c-0.1,0.1-0.2,0.2-0.3,0.4
						c0,0,0,0,0,0c-0.2,0.2-0.4,0.4-0.6,0.7c0,0-0.1,0.1-0.1,0.1c-0.2,0.2-0.4,0.4-0.6,0.5c0,0,0,0-0.1,0v0c0,0,0,0,0,0
						 M377.1,452.5C377.1,452.5,377.1,452.5,377.1,452.5"/>
					<path class="st30" d="M357.7,434.6c-5.8,1.9-9.9,6.7-9.9,12.3c0,3.3,1.4,6.3,3.8,8.7c2.8,2.8,7,4.6,11.6,4.6
						c6.1,0,11.4-3.1,13.9-7.6c0,0,0,0,0,0c0,0,0,0,0,0c0.7-1.3,1.2-2.6,1.4-4c-1.7,0.6-3.6,0.9-5.5,0.9c-8.5,0-15.4-5.9-15.4-13.2
						C357.6,435.6,357.6,435.1,357.7,434.6L357.7,434.6z"/>
					<polygon class="st28" points="366.7,465 357.8,517.5 301.1,517.5 292.1,464.9 303,464.9 308,464.9 313,464.9 318,464.9 
						322.2,464.9 327.2,465 336.6,465 342.4,465 347.5,465 352.5,465 361.7,465 					"/>
					<polygon class="st15" points="327.2,465 327.7,517.5 323.9,517.5 322.2,464.9 					"/>
					<polygon class="st15" points="318,464.9 320.7,517.5 316.9,517.5 313,464.9 					"/>
					<polygon class="st15" points="308,464.9 313.1,517.5 309.3,517.5 303,464.9 					"/>
					<polygon class="st15" points="297.1,464.9 304.9,517.5 301.1,517.5 292.1,464.9 					"/>
					<polygon class="st15" points="366.7,465 357.8,517.5 354,517.5 361.7,465 					"/>
					<polygon class="st15" points="357.5,465 350.8,517.5 347,517.5 352.5,465 					"/>
					<polygon class="st15" points="347.5,465 343.1,517.5 339.3,517.5 342.4,465 					"/>
					<polygon class="st15" points="336.6,465 334.9,517.5 331.1,517.5 331.6,465 					"/>
					<polyline class="st14" points="378.1,328.5 378.1,328.5 378.1,328.5 378.1,328.5 378.1,328.5 					"/>
					<polygon class="st31" points="360.4,378.7 359.7,381.6 359.7,381.6 360.4,378.7 360.4,378.7 					"/>
					<polygon class="st32" points="359.7,381.6 358.9,384.9 359.7,381.6 359.7,381.6 					"/>
					<path class="st33" d="M351.9,415.2L351.9,415.2c0.1,0.1,0.2,0.2,0.3,0.3C352.1,415.4,352,415.3,351.9,415.2z M355.8,417.3
						C355.8,417.3,355.8,417.3,355.8,417.3c0.1,0,0.1,0,0.1,0C355.8,417.3,355.8,417.3,355.8,417.3z M357.4,417.3
						C357.4,417.3,357.4,417.3,357.4,417.3C357.4,417.3,357.4,417.3,357.4,417.3C357.4,417.3,357.4,417.3,357.4,417.3z M359.5,416.9
						c-0.1,0-0.3,0.1-0.4,0.1C359.2,417,359.3,417,359.5,416.9C359.5,416.9,359.5,416.9,359.5,416.9L359.5,416.9
						C359.6,416.9,359.5,416.9,359.5,416.9z M359.8,416.9C359.8,416.9,359.8,416.8,359.8,416.9L359.8,416.9
						C359.8,416.8,359.8,416.9,359.8,416.9z M359.9,416.8C359.9,416.8,359.9,416.8,359.9,416.8C359.9,416.8,359.9,416.8,359.9,416.8
						c0,0,0.1,0,0.2-0.1C360.1,416.8,360,416.8,359.9,416.8z M361,416.4C361,416.4,361,416.4,361,416.4
						C361.1,416.4,361.1,416.4,361,416.4C361.1,416.4,361,416.4,361,416.4z M361.3,416.3C361.2,416.3,361.2,416.3,361.3,416.3
						C361.2,416.3,361.2,416.3,361.3,416.3c0.1,0,0.2-0.1,0.2-0.1C361.4,416.2,361.3,416.2,361.3,416.3z M362.1,415.8
						C362.1,415.8,362.1,415.8,362.1,415.8l0.4-1.2L362.1,415.8z"/>
					<path class="st26" d="M357.2,417.3L357.2,417.3c-0.1,0-0.2,0-0.3,0c-0.1,0-0.2,0-0.3,0h0c0.1,0,0.2,0,0.3,0
						C356.9,417.4,357,417.3,357.2,417.3L357.2,417.3z"/>
					<polyline class="st14" points="303.6,383 303.6,383 303.6,383 					"/>
					<path class="st34" d="M304.9,388.6L304.9,388.6c0,0.1-0.1,0.3-0.1,0.4C304.8,388.9,304.9,388.8,304.9,388.6L304.9,388.6z"/>
					<path class="st35" d="M303.6,383c0.5,1.1,0.9,2.3,1.1,3.1c0.2,1.2,0.3,1.9,0.2,2.5l0,0c0.1-0.6,0-1.3-0.2-2.5
						C304.5,385.2,304.2,384.1,303.6,383L303.6,383z"/>
					<path class="st14" d="M302.8,391.4c0.1-0.1,0.3-0.2,0.4-0.4 M304.8,389C304.8,389,304.8,389,304.8,389
						c-0.1,0.2-0.2,0.4-0.3,0.6c0,0,0,0-0.1,0.1c-0.1,0.1-0.1,0.2-0.2,0.2 M282.8,386.8c0,0.1,0,0.2,0,0.3L282.8,386.8L282.8,386.8z
						 M282.9,388.6c0-0.1,0-0.2,0-0.3c0,0.2,0,0.4,0.1,0.6C282.9,388.8,282.9,388.7,282.9,388.6z"/>
					<path class="st14" d="M284.6,394.3C284.6,394.3,284.6,394.3,284.6,394.3C284.6,394.3,284.6,394.3,284.6,394.3
						C284.6,394.3,284.6,394.3,284.6,394.3C284.6,394.3,284.6,394.3,284.6,394.3"/>
					<path class="st14" d="M335.5,385.9L335.5,385.9"/>
					<polyline class="st14" points="357.3,387.1 357.3,387.1 357.3,387.1 357.3,387.1 357.3,387.1 					"/>
					<path class="st14" d="M357.3,386.8C357.3,386.8,357.3,386.8,357.3,386.8c0,0.1,0,0.2,0,0.3c0,0,0,0,0,0
						C357.3,387,357.3,386.9,357.3,386.8"/>
					<path class="st35" d="M355.7,394.1c-0.4,0.5-1.2,1-2,1.4C354.5,395.1,355.2,394.7,355.7,394.1
						C355.7,394.1,355.7,394.1,355.7,394.1L355.7,394.1z"/>
					<g>
						<g>
							<g>
								<path class="st8" d="M353.6,388.2c0,0,0.1,3.5-1,5.1c-1.1,1.5-5.8,2.5-6.5,1c-3.1,0.4-3.5-1-3.5-1s-2.5,0.2-2.3-1.6
									c-1.6-1.5-1.6-1.7-1.3-3.5c0.3-1.9,2.2-5.2,4.1-6.2c1.9-1,4.3-1.6,7.7,1.9C353.8,386.6,353.6,388.2,353.6,388.2L353.6,388.2
									z"/>
							</g>
							<path class="st36" d="M346.2,394.2c0.3-0.6,0.8-1.3,1.6-2c0.8-0.8,1.6-1.3,2.2-1.6c-0.4,0.6-0.9,1.3-1.7,2
								C347.4,393.4,346.7,393.9,346.2,394.2z"/>
							<path class="st36" d="M348,388c-1,0.8-2,1.7-3.1,2.8c-0.8,0.8-1.6,1.7-2.3,2.5c0.3-0.7,0.9-1.9,2-3
								C345.9,388.9,347.2,388.3,348,388z"/>
							<path class="st36" d="M345.6,385c-0.9,0.7-2.1,1.8-3.2,3.2c-1,1.2-1.6,2.4-2.1,3.4c0.1-0.8,0.5-2.3,1.7-3.8
								C343.3,386.1,344.9,385.3,345.6,385z"/>
						</g>
					</g>
					<g>
						<g>
							<g>
								<path class="st8" d="M289.1,389.4c0,0,0.2,3.5,1.4,4.9c1.2,1.4,6,2,6.6,0.4c3.1,0.1,3.4-1.3,3.4-1.3s2.5,0,2.2-1.8
									c1.4-1.6,1.5-1.8,1-3.6c-0.5-1.8-2.6-5-4.6-5.8c-2-0.8-4.4-1.2-7.5,2.6C288.8,387.8,289.1,389.4,289.1,389.4L289.1,389.4z"
									/>
							</g>
							<path class="st36" d="M297.1,394.7c-0.5-0.5-1.1-1.1-1.9-1.7c-0.8-0.6-1.5-1.1-2.1-1.4c0.5,0.6,1.1,1.2,1.9,1.9
								C295.8,394,296.5,394.4,297.1,394.7z"/>
							<path class="st36" d="M294.7,388.7c0.9,1,1.8,1.8,2.8,2.5l1.5,1.1c0.5,0.4,1,0.7,1.5,1.1c-0.3-0.4-0.6-0.9-1.2-1.5
								c-0.5-0.5-1-0.9-1.5-1.2C297,390.2,296,389.5,294.7,388.7z"/>
							<path class="st36" d="M296.8,385.4c1,1.2,2,2.1,3,3.1c0.5,0.5,1,1,1.5,1.4c0.5,0.5,1,1,1.3,1.6c-0.4-0.9-1-2-2.1-3.2
								C299.3,386.9,297.8,385.9,296.8,385.4z"/>
						</g>
					</g>
				</g>
			</g>
			<g>
				<path class="st37" d="M410,287.8c0,0,10.2,8.1,21-6.4c10.8-14.4,4.8-46.9,5.3-66.6c0.6-19.7,19.4-54,19.4-54
					s-16.5,26.2-16.8,64.6s2.2,49.4-3.7,59.5C429.4,295,411.4,292.1,410,287.8z"/>
				<path class="st37" d="M431.7,206c0,0,6.4,24.7-1.5,48.7c-7.9,24-16.5,26.8-16.5,26.8s11.8,7.1,15.8-8.4
					C433.6,257.5,438.9,227.2,431.7,206z"/>
				<path class="st37" d="M443.1,226.3c-1.7,24.5-2,52.8-5,63.1c-2.9,10.3-16.9,5.6-16.9,5.6s18.9,18.3,23.7-4.7
					S443.1,226.3,443.1,226.3z"/>
			</g>
			<path class="st3" d="M241,277.3c-2.6-20.9,12.9-37.1,33.8-35.8c6.2,0.4,12.3,2.4,17.6,5.7c-5.6-2.5-11.6-4-17.7-4.1
				C254.4,242.9,241.1,257.2,241,277.3L241,277.3z"/>
			<path class="st3" d="M372.6,233.2c12.5,7.7,16.9,24.2,8.4,36.5c-2.6,3.8-6.2,7-10.3,9c5.6-4.2,10-9.9,11.8-16.6
				C385.4,251.3,380.7,240.5,372.6,233.2L372.6,233.2z"/>
		</g>
		<linearGradient id="SVGID_1_" gradientUnits="userSpaceOnUse" x1="247.9016" y1="327.0612" x2="392.3245" y2="327.0612">
			<stop  offset="0.4118" style="stop-color:#E3F4FF"/>
			<stop  offset="0.7063" style="stop-color:#E1F3FF"/>
			<stop  offset="0.8516" style="stop-color:#D9F0FF"/>
			<stop  offset="0.9639" style="stop-color:#CCEAFF"/>
			<stop  offset="1" style="stop-color:#C6E7FF"/>
		</linearGradient>
		<path class="st38" d="M392.3,398.6c-9.5,3.6-18.9,7.3-28.4,10.9c-0.2-0.1-0.4-0.1-0.5-0.2c-1.9-0.7-3.6-1.7-4.9-2.8
			c-11.9,0-23.8,0-35.8,0c-12.9,0-25.8,0-38.7,0c-0.7,1-1.4,2.1-2.1,3.1c-11.3-3.6-22.6-7.3-34-10.9c0-51.4,0-102.7,0-154.1h144.4
			V398.6z"/>
		<g>
			<path class="st18" d="M243.9,398.6c0,0,0-154.1,0-154.1v-2.2c4.2-1.9,8.7-3.8,13-5.1c36.3-10.9,80.6-11.8,117.3-2.8
				c6.1,1.6,12.2,3.4,18.1,6.1c0,0,4,1.8,4,1.8s0,2.2,0,2.2s0,154.1,0,154.1h-8c0,0,0-154.1,0-154.1s4,4,4,4
				c-5.8,2.7-11.9,4.4-18.1,6.1c-29.6,7.3-60.2,7.6-90.3,3.4c-12.2-1.9-24.6-4.6-36.1-9.4c0,0,4-4,4-4v154.1H243.9L243.9,398.6z"/>
		</g>
		<g>
			<polygon class="st15" points="376.9,332.4 388.6,294.3 410,288.8 405.3,300.7 398.6,299.5 384.8,334.8 376.9,332.4 			"/>
			<polygon class="st16" points="393.3,293.1 388.6,294.3 382.6,313.7 378.1,328.5 380,329.5 380,329.5 385.7,332.4 386.8,329.5 
				382.5,328.2 393.3,293.1 			"/>
			<polygon class="st16" points="400.2,295.4 398.6,299.5 405.3,300.7 407.2,295.9 400.2,295.4 			"/>
			<path class="st15" d="M351.6,414.8l21.4-88.9l18.1,9.3l-29.1,80.5C362.1,415.8,355.7,419.9,351.6,414.8L351.6,414.8z"/>
			<path class="st16" d="M373.1,326l-12.7,52.8l-0.7,2.8l-0.8,3.4l-7.2,29.9c1.5,1.8,3.2,2.4,4.9,2.5c0.1,0,0.2,0,0.3,0
				c0.1,0,0.2,0,0.3,0c2.7-0.1,5-1.5,5-1.5l0.7-2c-0.9-0.4-1.9-1-2.7-2l19.9-82.3l-1.9-1l0,0L373.1,326L373.1,326z"/>
		</g>
	</g>
	<g>
		<path class="st3" d="M282.6,196.5c9.3,11.2,22.7,18.8,37.2,20.1c4.8,0.5,9.7,0.4,14.5-0.3C315.3,222.3,292.6,213.7,282.6,196.5
			L282.6,196.5z"/>
		<path class="st3" d="M203.2,286.8c-11.8,8.4-15.7,22.5-9.2,35.6C184.5,310.7,189.4,292.7,203.2,286.8L203.2,286.8z"/>
	</g>
</g>
<circle class="st39" cx="321.4" cy="392.2" r="0.7"/>
<circle class="st39" cx="321.9" cy="386.1" r="0.7"/>
<circle class="st39" cx="319" cy="367.7" r="0.7"/>
</svg>
