<?xml version="1.0" encoding="utf-8"?>
<!-- Generator: Adobe Illustrator 26.0.1, SVG Export Plug-In . SVG Version: 6.00 Build 0)  -->
<svg version="1.1" id="Layer_1" xmlns="http://www.w3.org/2000/svg" xmlns:xlink="http://www.w3.org/1999/xlink" x="0px" y="0px"
	 viewBox="0 0 700 650" style="enable-background:new 0 0 700 650;" xml:space="preserve">
<style type="text/css">
	.st0{clip-path:url(#SVGID_00000039099119932632807010000018044266451430857393_);}
	.st1{fill:#A5E0DC;}
	.st2{fill:#81CCC6;}
	.st3{fill:#00747D;}
	.st4{clip-path:url(#SVGID_00000111878889309570605780000013296795668855241141_);}
	.st5{fill:#890804;}
	.st6{fill:#C6C6C6;}
	.st7{fill:#FFFFFF;}
	.st8{fill:#CC936D;}
	.st9{fill:#AF7151;}
	.st10{fill:#513328;}
	.st11{fill:#C48C66;}
	.st12{fill:#AF1919;}
	.st13{fill:#F2F2F2;}
	.st14{clip-path:url(#SVGID_00000065795559340250089410000009789698321667812263_);fill:#96511D;}
	.st15{clip-path:url(#SVGID_00000065795559340250089410000009789698321667812263_);}
	.st16{fill-rule:evenodd;clip-rule:evenodd;fill:#FFFFFF;}
	.st17{fill-rule:evenodd;clip-rule:evenodd;fill:#FF615C;}
	.st18{opacity:0.5;fill-rule:evenodd;clip-rule:evenodd;fill:#FFFFFF;}
	.st19{fill-rule:evenodd;clip-rule:evenodd;fill:#FFBA0D;}
	.st20{fill:#FFBA0D;}
	.st21{fill-rule:evenodd;clip-rule:evenodd;fill:#E8A603;}
	.st22{fill:#FFE32B;}
	.st23{fill-rule:evenodd;clip-rule:evenodd;fill:#E8A100;}
	.st24{fill-rule:evenodd;clip-rule:evenodd;fill:#E8E8E8;}
	.st25{fill-rule:evenodd;clip-rule:evenodd;fill:#B0BF0D;}
	.st26{fill-rule:evenodd;clip-rule:evenodd;fill:#B30A12;}
	.st27{fill-rule:evenodd;clip-rule:evenodd;fill:#F28C61;}
	.st28{fill-rule:evenodd;clip-rule:evenodd;fill:#FCA11C;}
	.st29{fill-rule:evenodd;clip-rule:evenodd;fill:#FAAB38;}
	.st30{fill-rule:evenodd;clip-rule:evenodd;fill:#F58F03;}
	.st31{fill-rule:evenodd;clip-rule:evenodd;fill:#910A0D;}
	.st32{fill-rule:evenodd;clip-rule:evenodd;fill:#F5615E;}
	.st33{fill-rule:evenodd;clip-rule:evenodd;fill:#DBB514;}
	.st34{fill-rule:evenodd;clip-rule:evenodd;fill:#BA9912;}
	.st35{fill-rule:evenodd;clip-rule:evenodd;fill:#FCB500;}
	.st36{fill-rule:evenodd;clip-rule:evenodd;fill:#FFE894;}
	.st37{fill-rule:evenodd;clip-rule:evenodd;fill:#FCE600;}
	.st38{fill:#DCD8D9;}
	.st39{fill:#E6E4E5;}
	.st40{fill:#C3BCBE;}
	.st41{fill:#005388;}
	.st42{fill:#FF7629;}
	.st43{fill:#FF5F00;}
	.st44{fill:#7E1620;}
	.st45{fill:#EFAD9B;}
	.st46{fill:#882730;}
	.st47{fill:#EBDEC4;}
	.st48{fill:#F8B674;}
</style>
<g>
	<g>
		<defs>
			<path id="SVGID_1_" d="M198.7,104.5c-9.6,8.9-18.7,19.2-24.6,29.7c-12.5,22-13.5,53.6-9.8,77.6c2.6,16.6,13.9,39.7,8.4,56.6
				c-7.6,22.8-47.2,21.9-66.4,27.6c-17.8,5.2-34.6,18.1-43.7,33.8c-27.8,48.2,5.6,74.1,22.4,95.7c19,24.5-22.4,54.2,1.4,78.6
				c24.9,25.6,54.8,36.2,104.6,36.2c98.5,0,120.6,7.4,257.2-1.9c25.9-1.8,60.3-7.4,86.2-10c38.9-4,134.9-36.2,109.9-97.3
				c-18.6-45.1-115.9-38.2-83.2-99.9c21.3-40.4,61.5-96.5,11.5-132.1c-36.2-25.9-59.4-40.8-80.4-79.9c-23-42.9-55.3-66.1-106.2-70.2
				c-27.5-2.2-55.4-2-82.4,3.8c-33,7.1-65.6,20.8-92,41C207.1,97.1,202.8,100.7,198.7,104.5z"/>
		</defs>
		<clipPath id="SVGID_00000062912316209977982530000007065078162768663728_">
			<use xlink:href="#SVGID_1_"  style="overflow:visible;"/>
		</clipPath>
		<g style="clip-path:url(#SVGID_00000062912316209977982530000007065078162768663728_);">
			<path class="st1" d="M183.1,82.3c-10.7,9.3-20.6,20.2-27.2,31.2c-13.8,23.2-14.9,56.2-10.7,81.5c2.8,17.5,15.3,41.8,9.2,59.4
				c-8.3,24-52,23-73.3,29c-19.5,5.5-38.2,19.1-48.1,35.6c-30.6,50.6,6.2,77.8,24.6,100.5c21,25.8-24.7,56.9,1.5,82.6
				c27.4,26.8,60.5,38,115.3,38c108.6,0,133,7.7,283.5-2c28.5-1.9,66.5-7.7,95-10.6c42.9-4.2,148.8-38.1,121.2-102.2
				c-20.4-47.4-127.7-40.2-91.8-105c23.5-42.5,67.8-101.3,12.8-138.8c-39.9-27.2-65.5-42.8-88.7-84c-25.4-45-60.9-69.5-117-73.7
				c-30.3-2.3-61.1-2.1-90.9,4.1c-36.3,7.5-72.3,21.9-101.4,43.2C192.4,74.6,187.7,78.3,183.1,82.3z"/>
			<g>
				<path class="st2" d="M554.4,429.6c-4.2-38.6,50.3-41.9,45.1-5.5c12-24.3,45.6-0.4,36.3,27.1c9.8-2.1,17.6,7.6,21.3,17.9
					c4.5,12.6,1.2,21.8-5.8,32c9.4-0.2,19.3,9.9,19.9,21.7c0.9,17.1-1.3,22.1-8.9,31.2c10.4,1.2,13.6,16.6,13.2,28
					c-0.4,17.5-7.6,21.3-20.1,24.2c-14.7,3.4-27,3.6-41.9,1.3c-12.5-1.9-25.9-7.3-38.9-7.2c-21.2,0.3-42.3-2.9-63.2-6.6
					c-14.1-2.4-34-1-43.2-16.4c-7.5-12.5-10.1-28.4-5.2-42.8c2.7-7.8,16.5-29.3,24.6-15.5c-11.5-11.4-11.5-22.4-8-35.4
					c3.6-13.1,16-24.5,26.7-17.8c-7.2-16.9-0.9-34.9,11.9-45.7C518.3,420,541.1,401.4,554.4,429.6z"/>
				<path class="st2" d="M165.7,416.6c-4.2-38.6,50.3-41.9,45.1-5.5c12-24.3,45.6-0.4,36.3,27.1c9.8-2.1,17.6,7.6,21.3,17.9
					c4.5,12.6,1.2,21.8-5.8,32c9.4-0.2,19.3,9.9,19.9,21.7c0.9,17.1-1.3,22.1-8.9,31.2c10.4,1.2,13.6,16.6,13.2,28
					c-0.4,17.5-7.6,21.3-20.1,24.2c-14.7,3.4-27,3.6-41.9,1.3c-12.5-1.9-25.9-7.3-38.9-7.2c-21.2,0.3-42.3-2.9-63.2-6.6
					c-14.1-2.4-34-1-43.2-16.4c-7.5-12.5-10.1-28.4-5.2-42.8c2.7-7.8,16.5-29.3,24.6-15.5c-11.5-11.4-11.5-22.4-8-35.4
					c3.6-13.1,16-24.5,26.7-17.8c-7.2-16.9-0.9-34.9,11.9-45.7C129.5,407,152.4,388.4,165.7,416.6z"/>
				<path class="st2" d="M341.6,463.5c-19.3-26,11.3-61.8,32.1-41c-17.3-41.8,43.4-65.4,45.6-21.2c15.3-23.7,50.1-11,42.4,21.6
					c29.4-10.7,43.6,36.4,25.9,53.7c15.4,4.4,18,32.6,6.9,43.4c-10,9.8-34.9,7.5-48,7.5c-17.3,0-34.8-1.2-51.7-3
					c-19.1-2-49.1,5.2-64.9-11.9c-7-7.6-14.9-14.4-11.4-35.9C319.8,468.3,335,450.1,341.6,463.5z"/>
			</g>
			<path class="st3" d="M691.5,549.7c0,31.4-154,56.8-344.1,56.8c-190,0-344.1-25.4-344.1-56.8s154-56.8,344.1-56.8
				C537.4,492.9,691.5,518.3,691.5,549.7z"/>
		</g>
	</g>
	<g>
		<defs>
			<path id="SVGID_00000035495814220892189200000005659021785507742139_" d="M198.7,104.5c-9.6,8.9-18.7,19.2-24.6,29.7
				c-12.5,22-13.5,53.6-9.8,77.6c2.6,16.6,13.9,39.7,8.4,56.6c-7.6,22.8-47.2,21.9-66.4,27.6c-17.8,5.2-34.6,18.1-43.7,33.8
				c-27.8,48.2,5.6,74.1,22.4,95.7c19,24.5-22.4,54.2,1.4,78.6c24.9,25.6,54.8,36.2,104.6,36.2c98.5,0,120.6,7.4,257.2-1.9
				c25.9-1.8,60.3-7.4,86.2-10c38.9-4,134.9-36.2,109.9-97.3c-18.6-45.1-115.9-38.2-83.2-99.9c21.3-40.4,61.5-96.5,11.5-132.1
				c-36.2-25.9-59.4-40.8-80.4-79.9c-23-42.9-55.3-66.1-106.2-70.2c-27.5-2.2-55.4-2-82.4,3.8c-33,7.1-65.6,20.8-92,41
				C207.1,97.1,202.8,100.7,198.7,104.5z"/>
		</defs>
		<clipPath id="SVGID_00000014598806675331561810000007818593764447753860_">
			<use xlink:href="#SVGID_00000035495814220892189200000005659021785507742139_"  style="overflow:visible;"/>
		</clipPath>
	</g>
	<g>
		<defs>
			<path id="SVGID_00000127724406795163286100000018363253962970813826_" d="M198.7,104.5c-9.6,8.9-18.7,19.2-24.6,29.7
				c-12.5,22-13.5,53.6-9.8,77.6c2.6,16.6,13.9,39.7,8.4,56.6c-7.6,22.8-47.2,21.9-66.4,27.6c-17.8,5.2-34.6,18.1-43.7,33.8
				c-27.8,48.2,5.6,74.1,22.4,95.7c19,24.5-22.4,54.2,1.4,78.6c24.9,25.6,54.8,36.2,104.6,36.2c98.5,0,120.6,7.4,257.2-1.9
				c25.9-1.8,60.3-7.4,86.2-10c38.9-4,134.9-36.2,109.9-97.3c-18.6-45.1-115.9-38.2-83.2-99.9c21.3-40.4,61.5-96.5,11.5-132.1
				c-36.2-25.9-59.4-40.8-80.4-79.9c-23-42.9-55.3-66.1-106.2-70.2c-27.5-2.2-55.4-2-82.4,3.8c-33,7.1-65.6,20.8-92,41
				C207.1,97.1,202.8,100.7,198.7,104.5z"/>
		</defs>
		<clipPath id="SVGID_00000150065773537461391640000005929767518419999130_">
			<use xlink:href="#SVGID_00000127724406795163286100000018363253962970813826_"  style="overflow:visible;"/>
		</clipPath>
	</g>
	<g>
		<defs>
			<path id="SVGID_00000108278645338784721240000011954561642847021207_" d="M198.7,104.5c-9.6,8.9-18.7,19.2-24.6,29.7
				c-12.5,22-13.5,53.6-9.8,77.6c2.6,16.6,13.9,39.7,8.4,56.6c-7.6,22.8-47.2,21.9-66.4,27.6c-17.8,5.2-34.6,18.1-43.7,33.8
				c-27.8,48.2,5.6,74.1,22.4,95.7c19,24.5-22.4,54.2,1.4,78.6c24.9,25.6,54.8,36.2,104.6,36.2c98.5,0,120.6,7.4,257.2-1.9
				c25.9-1.8,60.3-7.4,86.2-10c38.9-4,134.9-36.2,109.9-97.3c-18.6-45.1-115.9-38.2-83.2-99.9c21.3-40.4,61.5-96.5,11.5-132.1
				c-36.2-25.9-59.4-40.8-80.4-79.9c-23-42.9-55.3-66.1-106.2-70.2c-27.5-2.2-55.4-2-82.4,3.8c-33,7.1-65.6,20.8-92,41
				C207.1,97.1,202.8,100.7,198.7,104.5z"/>
		</defs>
		<clipPath id="SVGID_00000112632895233251195520000004200327586033682096_">
			<use xlink:href="#SVGID_00000108278645338784721240000011954561642847021207_"  style="overflow:visible;"/>
		</clipPath>
		<g style="clip-path:url(#SVGID_00000112632895233251195520000004200327586033682096_);">
			<polygon class="st5" points="303.9,383.9 322.8,300 327,274.3 377.7,274.3 381.9,302.9 403.8,383.9 			"/>
			<path class="st6" d="M326.9,352.6c8.5,7.6,17,15.1,25.5,22.7c9.1-7.6,18.2-15.1,27.3-22.7c-6.9-1.8-16.4-3.6-27.9-3.5
				C341.8,349.3,333.3,350.9,326.9,352.6z"/>
			<path class="st7" d="M429.1,393.1c-0.2-1.8-0.6-4.8-1.7-8.5c-0.7-2.4-1.5-4.2-1.9-5.3c-1.6-2.1-3.4-4.1-5.5-6.1
				c-13.4-12.7-29.9-15.8-39.4-16.7c-9,4.8-18.1,9.6-27.1,14.5c-3.4-3.5-12.1-11.4-24.6-12.7c-6.1-0.6-11.5,0.6-13.4,1
				c-5.1,1.2-9.1,3.1-16.7,6.9c-3.5,1.7-7.6,3.9-12.2,6.6c-4.3,4.4-5.1,8.8-6.5,31.7c-1,16.4-1.7,30.5-2.1,41.7H434
				C431.6,418.6,429.7,398.3,429.1,393.1z"/>
			<path class="st8" d="M385.7,360c-10.7,3.5-21.3,7.1-32,10.6c-11-3.5-22-6.9-33-10.4c4.8-3.1,9.7-6.2,14.5-9.4
				c1.7-7,3.3-14.1,5-21.1c9,0,18,0,26.9,0c1.3,7,2.5,13.9,3.8,20.9C375.8,353.8,380.7,356.9,385.7,360z"/>
			<path class="st8" d="M379.2,300.5c-0.1,1.4-0.6,5.8-1.6,14.5c-0.6,4.9-1.1,8.9-1.4,11.5c-2,4.1-6.4,11.5-14.5,16
				c-5,2.8-8.5,2.9-9.3,2.9c-4.6,0-7.9-1.9-10.3-3.4c-8-5.4-11.9-12.3-13.7-16.4c-0.3-2-0.7-5-1.1-8.7c-0.5-4.3-1.5-12.5-1.8-16.4
				c-0.5-7.3-1.5-21.6,7.8-30.5c7.4-7,17-7.3,19-7.3c2,0,11.9,0.1,19.3,7.3C380.9,278.9,379.7,293.1,379.2,300.5z"/>
			<g>
				<path class="st9" d="M360.4,324.9c0.1,0.9-2.7,1.8-3,1.9c-0.8,0.3-1.6,0.4-5.2,0.3c-3.4-0.1-4.1-0.2-5-0.4c-0.4-0.1-3-1-2.9-1.8
					c0.1-1.1,5.1-1.5,8.4-1.5C355.4,323.4,360.3,323.8,360.4,324.9z"/>
			</g>
			<path class="st9" d="M356.3,313.2c-0.4,0.3-1.5,1.2-3.2,1.3c-2.3,0.2-3.9-1.2-4.2-1.5c1.4,0,2.9,0.1,4.3,0.1
				C354.2,313.2,355.2,313.2,356.3,313.2z"/>
			<path class="st7" d="M324.7,353.9l-12.8,7.3c8,10,16.1,19.9,24.1,29.9c11.4,0.1,22.8,0.2,34.2,0.3c6.9-10.7,13.8-21.5,20.7-32.2
				c-3.3-1.7-6.7-3.3-10-5c-4.6,1.8-9.6,3.9-14.9,6.6c-4.8,2.5-9,5-12.8,7.5c-3.5-2.3-7.4-4.7-11.8-7
				C335.5,358.2,329.8,355.8,324.7,353.9z"/>
			<g>
				<g>
					<path class="st7" d="M345.3,300.8c-2-3.2-5.3-4.8-8.4-4.2c-3.1,0.7-4.8,3.5-5.1,4.1c1.2,0.7,3.4,1.8,6.3,2
						C341.6,302.9,344.2,301.5,345.3,300.8z"/>
					<g>
						<path class="st10" d="M336,300.1c0.1,1.6,1.5,2.7,3.1,2.6c1.6-0.1,2.7-1.5,2.6-3.1c-0.1-1.6-1.5-2.7-3.1-2.6
							C337,297.1,335.9,298.5,336,300.1z"/>
						<path d="M337.4,300.1c0.1,0.9,0.8,1.5,1.7,1.4c0.9-0.1,1.5-0.8,1.4-1.7c-0.1-0.9-0.8-1.5-1.7-1.4
							C338,298.5,337.3,299.3,337.4,300.1z"/>
						<path class="st7" d="M336.7,299.4c0,0.4,0.3,0.6,0.7,0.6c0.4,0,0.6-0.3,0.6-0.7c0-0.4-0.3-0.6-0.7-0.6
							C336.9,298.7,336.7,299,336.7,299.4z"/>
					</g>
					<path d="M345.3,300.7c-0.2-0.2-3.3-3.7-7.8-3c-3.2,0.5-5,2.7-5.4,3.3c-0.1,0-0.2-0.1-0.3-0.1c-0.1,0-0.1-0.1-0.2-0.1
						c1.3-2.9,4.2-4.7,7.3-4.5C341.7,296.4,344.1,298.1,345.3,300.7z"/>
				</g>
				<g>
					<path class="st7" d="M359.8,300.8c2.1-3.2,5.5-4.7,8.5-3.9c3.1,0.8,4.7,3.6,5,4.2c-1.2,0.7-3.4,1.7-6.3,1.8
						C363.5,302.9,360.9,301.5,359.8,300.8z"/>
					<g>
						<path class="st10" d="M369.2,300.3c-0.2,1.6-1.6,2.7-3.1,2.5c-1.6-0.2-2.7-1.6-2.5-3.1c0.2-1.6,1.6-2.7,3.1-2.5
							C368.2,297.3,369.3,298.7,369.2,300.3z"/>
						<path d="M367.8,300.3c-0.1,0.9-0.9,1.5-1.7,1.4c-0.9-0.1-1.5-0.9-1.4-1.7c0.1-0.9,0.9-1.5,1.7-1.4
							C367.2,298.6,367.9,299.4,367.8,300.3z"/>
						<path class="st7" d="M368.5,299.5c0,0.4-0.4,0.6-0.7,0.6c-0.4,0-0.6-0.4-0.6-0.7c0-0.4,0.4-0.6,0.7-0.6
							C368.3,298.9,368.5,299.2,368.5,299.5z"/>
					</g>
					<path d="M359.8,300.7c0.2-0.2,3.4-3.7,7.9-2.8c3.2,0.6,4.9,2.9,5.3,3.4c0.1,0,0.2-0.1,0.3-0.1c0.1,0,0.1-0.1,0.2-0.1
						c-1.2-2.9-4.1-4.8-7.2-4.7C363.6,296.5,361.1,298.1,359.8,300.7z"/>
				</g>
				<path d="M344,291.4c-0.7-0.3-2.8-1.3-5.9-1.6c-4.3-0.5-7,0.6-7.5,0.9c-0.8,0.4-1.3,1-1.3,1c-0.5,0.5-0.7,1-1,1.6
					c-0.3,0.7-0.8,1.7-1.2,2.9c0.1-0.1,0.3-0.2,0.5-0.4c0,0,0.9-0.6,1.9-1.1c3.6-1.8,8.6-1.5,8.6-1.5c3.2,0.2,5.8,1,7.6,1.9
					c0.2-0.1,0.8-0.5,1-1.2c0.1-0.4,0.1-0.7,0.1-0.9C346,292.5,345.1,291.9,344,291.4z"/>
			</g>
			<g>
				<path d="M360.8,291.4c0.7-0.3,2.8-1.3,5.9-1.6c4.3-0.5,7,0.6,7.5,0.9c0.8,0.4,1.3,1,1.3,1c0.5,0.5,0.7,1,1,1.6
					c0.3,0.7,0.8,1.7,1.2,2.9c-0.1-0.1-0.3-0.2-0.5-0.4c0,0-0.9-0.6-1.9-1.1c-3.6-1.8-8.6-1.5-8.6-1.5c-3.2,0.2-5.8,1-7.6,1.9
					c-0.2-0.1-0.8-0.5-1-1.2c-0.1-0.4-0.1-0.7-0.1-0.9C358.7,292.5,359.6,291.9,360.8,291.4z"/>
			</g>
			<path class="st7" d="M423,626.5H287.4c3.2-61.1,6.4-122.3,9.5-183.4c14.9-1.4,26.6-0.9,34.8,0c6.4,0.7,12.7,1.7,22.8,1.7
				c8.4,0,14.1-0.7,18.7-1.1c9.1-0.9,22.3-1.6,39.3-0.6C416,504.2,419.5,565.3,423,626.5z"/>
			<rect x="351.6" y="316.5" class="st11" width="1.9" height="4.2"/>
			<path class="st6" d="M391,359.3c-10.8,5.6-21.5,11.1-32.3,16.7v61.8l-5.4,5l0-76.8c4.9-3.3,10.7-6.7,17.5-9.7
				c3.1-1.4,6.1-2.6,8.9-3.6C383.4,354.8,387.2,357,391,359.3z"/>
			<path class="st7" d="M273.5,467.4c7.4,3.7,14.8,7.5,22.2,11.2c0.8-10.9,1.6-21.8,2.3-32.7c-3.9-24.3-7.9-48.6-11.8-72.9
				c-2.4,2-5.5,5-8.2,9.3c-4.5,7.3-5.4,14.4-5.7,17.4c-0.7,6.1-3.1,29-6.6,63.7C268.3,464.8,270.9,466.1,273.5,467.4z"/>
			<path class="st8" d="M449.7,577.8c0.5,2.2,1,5.4,1.5,9.2c0.8,7.6,1.3,11.4,0.3,15.1c-0.7,2.7-1,1.5-9.1,14.6
				c-0.1,0.2-1.6,2.6-4,5.2c-2,2.1-4.8,5.1-6.6,4.4c-1.3-0.5-1.4-2.9-1.4-3c-0.1-3,2.4-4.5,5.1-8c1-1.3,5-6.3,5.6-12.6
				c0.3-2.8,0.1-7.5-1.9-8.2c-1.2-0.4-2.8,0.6-3.7,1.6c-2.2,2.5-0.6,5.1-2.6,10.6c-0.8,2.2-1.5,3.1-2.5,3.4c-0.9,0.3-2-0.1-2.7-0.7
				c-1-0.9-1-2.3-1-3.9c0-1.3,0.2-2.1,0.5-3.6c0.5-2.5,0.9-4.6,1-5.3c0.4-3-0.1-5-0.3-6.9c-0.3-2.8-0.1-6.8,2.1-12.1H449.7z"/>
			<path class="st7" d="M419.9,373.2c3.6,2.6,5.7,5.4,7,7.3c0,0,3.5,5.3,6.3,16.9c0,0.1,0.1,0.5,0.3,1.2c0.2,0.7,0.4,1.6,0.7,2.7
				c0.5,1.9,0.7,2.9,0.9,3.6c2.5,10.8,10.9,80.4,21,176c-5.5,0.9-11.5,1.7-18,2.2c-5.3,0.4-10.4,0.5-15.1,0.5
				c-1.2-13.5-2.3-27-3.5-40.5c-2.8-33.3-5.3-66.4-7.5-99.1c2.2-10.6,4.2-22.3,5.6-35C419,396.2,419.7,384.2,419.9,373.2z"/>
			<path class="st6" d="M413.2,462c0.4,0,1.9,12.2,4.2,30.3c4.6,36.9,7.9,68,10.2,91.3c-0.7,0-1.4,0-2.1,0c-0.9,0-1.7,0-2.5,0
				C414.2,485.8,412.6,462,413.2,462z"/>
			<path class="st6" d="M315.1,359.4l32.8,16.5v61.8l5.4,5l0-76.8c-4.9-3.3-10.7-6.7-17.5-9.7c-3.1-1.4-6.1-2.6-8.9-3.6
				C323,354.9,319,357.1,315.1,359.4z"/>
			<path d="M352.6,316c-0.1,0-0.1,0-0.2,0c-2.5,0-11.5,0.1-14.7,5.7c-0.4,0.7-1.2,1.8-1.7,4c-0.5,2.2-0.7,5.7,0.1,11.2
				c5,7.1,10.8,10.5,16.5,10.5c5.7,0,11.5-3.5,16.5-10.5c0.8-5.5,0.6-9,0.1-11.2c-0.5-2.3-1.3-3.3-1.7-4c-3.2-5.7-12.1-5.8-14.7-5.7
				C352.7,316,352.6,316,352.6,316z M350.1,328.7c-0.2,0.6-0.9,2.2-2.6,2.9c0,0-2.4,1.1-5.6-0.9c0,0,0,0,0,0c-2.6-1.6-2.7-5-0.4-7
				c0.9-0.8,1.9-1.2,2.5-1.4c2.3-0.8,5.5-1,8.6-1c3.1,0,6.3,0.2,8.6,1c0.5,0.2,1.5,0.5,2.5,1.4c2.3,2.1,2.2,5.4-0.4,7c0,0,0,0,0,0
				c-3.3,1.9-5.6,0.9-5.6,0.9c-1.5-0.7-2.2-2.2-2.5-2.8C353.4,328.8,351.8,328.8,350.1,328.7z"/>
			<g>
				<path class="st12" d="M291.2,364.3c-0.1,0.4-0.1,0.9-0.2,1.3l0.1-0.9L291.2,364.3z"/>
			</g>
			<g>
				<path class="st12" d="M419,399.6c-0.3-0.5-0.7-1.2-1.4-1.9c0,0-0.3-0.2-0.7-0.5c-0.3-0.3-0.8-0.5-1.2-0.8
					c-4.7-2.3-12.2-1.1-12.2-1.1c-2.5,0.4-6,1.2-10.2,2.7c-2,0.8-4.2,1.7-6.5,2.8c0-0.9,0.1-1.9,0.1-2.8c0.3-10.9-0.4-19.8-1.2-26.2
					c-0.5-4.1-0.9-6.1-3.7-22.9c-2.5-15.1-3.8-22.7-3.8-23c-0.7-9.6-0.9-32-1.8-44c-0.1-1.2-0.3-3.1-1.6-4.2
					c-3-2.6-7.6,1.7-15.3,0.5c-4.7-0.7-4.7-2.6-9.2-2.8c-3.7-0.1-4.7,1.1-9.5,1.5c-5.8,0.5-7.4-1-9.3-0.3c-4.3,1.5-3.7,26.7-3.6,33
					c0.3,19.1-2.1,33.9-7.1,63.5c-1.7,9.9-3.4,18.2-4.7,24.2c-0.2,1-0.4,1.9-0.6,2.7c-0.5-0.1-6-2.1-10.2-3
					c-0.4-0.1-0.8-0.1-1.1-0.2c-2.7-0.4-4.8-0.2-6.2,0c-5.1,0.6-12,2.9-12.3,3c-1.1-14.2,1-25.4,2.8-32.5
					c2.7-10.4,6.7-18.5,8.8-22.6c2.4-4.8,4.8-8.7,6.6-11.6l15.4-35.9c4.3-17.8,3.5-28.5,13.6-36.2c1.7-1.3,3.5-2.3,5.2-3.1
					c4.6-2.4,8.9-3.1,10.8-3.3c3-0.4,9.6-1.3,16.6,2c0.5,0.2,0.9,0.4,1.3,0.7c0,0,0,0,0,0c1.6,0.6,3.1,1.4,4.6,2.4
					c11.6,7.7,10.8,20.1,17.8,41.3c8.9,27,21.2,41.2,28.3,62.5c0,0.1,0,0.1,0.1,0.2C422.9,380.8,421.9,392,419,399.6z"/>
				<path d="M379,266h-53.5c-1.5,0-2.8-1.2-2.8-2.8l0,0c0-1.5,1.2-2.8,2.8-2.8H379c1.5,0,2.8,1.2,2.8,2.8l0,0
					C381.8,264.7,380.6,266,379,266z"/>
				<path d="M381.2,271.5h-57.9c-1.5,0-2.8-1.2-2.8-2.8l0,0c0-1.5,1.2-2.8,2.8-2.8h57.9c1.5,0,2.8,1.2,2.8,2.8l0,0
					C384,270.3,382.7,271.5,381.2,271.5z"/>
			</g>
		</g>
		<g style="clip-path:url(#SVGID_00000112632895233251195520000004200327586033682096_);">
			<g>
				<path class="st9" d="M314.7,349.6c0.3-2,0.3-3.9-0.1-5.9c-0.2-1.1-0.4-2.1-1.4-2.7c-0.4-0.2-0.7-0.3-1.2-0.3c-1-0.1-2,0.2-2.6,1
					c-0.4,0.5-0.5,1.2-0.5,1.9c-0.3,2.4-0.4,4.8-0.4,7.2c1.8-0.1,3.7-0.3,5.4-0.4C314.3,350.3,314.1,349.7,314.7,349.6z"/>
				<path class="st6" d="M336.3,343.9c2.4-1,6.3-2.1,11.2-1.9c3.8,0.2,9.6,1.4,9.7,3c0,1.7-6.6,4.1-12.8,3.3
					c-3.6-0.4-6.3-1.9-8.1-2.9c-15-1.3-29.9-2.8-44.9-4.1c0.4-1.1,0.8-2.1,1.2-3.2C307,340.1,321.6,342.1,336.3,343.9z"/>
				<path class="st9" d="M306.9,373.4c2.5-1.9,4.3-4.6,5-7.6c0.7-3,0.4-6.3-1-9.1c-2.4,0.2-4.6,1.4-5.9,3.5c-1.2,2-1.5,4.5-1.2,6.8
					C304.3,369.3,305.6,371.4,306.9,373.4z"/>
				<path class="st8" d="M293.5,383.6c0.8-8.2-1.2-16.6-5.4-23.7c-0.5-0.8-1.1-1.7-1.1-2.6c-0.1-1.5,0.9-2.8,1.9-4
					c0.6-3.8,3.7-6.5,6.7-9c1.8-1.6,3.6-3.2,5.7-4.4c1.2-0.8,2.6-1.4,3.9-2c2.1-1.1,4.2-2,6.3-3.1c0.7-0.4,1.6-0.7,2.3-0.4
					c0.8,0.4,1,1.4,0.7,2.3s-1,1.4-1.6,2c-1.8,1.6-3.6,3.2-5.7,4.4c3.9,1.2,7.6,3,11,5.5c0.5,0.4,1.2,0.9,1.3,1.5
					c0.2,0.6-0.2,1.5-0.9,1.6c0.9,0.8,1.2,2,1.9,2.9c0.5,0.9,1,1.9,0.7,2.8c-0.2,0.7-0.8,1.3-1.5,1.5c-0.7,0.2-1.5-0.1-2-0.6
					c0.4,0.7,0.7,1.4,0.9,2.2c0.1,0.4,0.2,0.9,0,1.2c-0.3,0.5-0.8,0.7-1.3,0.7c-0.5,0-1.1-0.3-1.5-0.4c-0.6-0.4-1.2-0.7-1.8-1.2
					c-0.2-0.2-0.4-0.4-0.6-0.4c-0.4-0.1-0.9,0.3-1.2,0.5c-1.2,1-2.5,1.8-3.8,2.5c-0.1,1.4-0.2,2.5-0.1,3.9c2,2.4,3.3,5.7,3.6,8.9
					c0.2,3.2-0.7,6.4-2.5,9.1C303.5,384.7,298.8,384.2,293.5,383.6z"/>
			</g>
			<path class="st13" d="M314.3,382.2c-1.6,8.5-4,21.3-6.6,37.1c-7.7,47-8.2,64.7-20.2,70.1c-6.2,2.8-14.4,1.8-18.8-2.3
				c-7.4-6.8-4-21.3,0.2-38.1c4.8-18.9,11.4-43.2,20.3-71.9c4.3,0.3,9.2,0.9,14.5,2.1C307.6,380.1,311.1,381.2,314.3,382.2z"/>
		</g>
	</g>
	<g>
		<defs>
			<path id="SVGID_00000125589759533276526450000003495857973539962767_" d="M198.7,104.5c-9.6,8.9-18.7,19.2-24.6,29.7
				c-12.5,22-13.5,53.6-9.8,77.6c2.6,16.6,13.9,39.7,8.4,56.6c-7.6,22.8-47.2,21.9-66.4,27.6c-17.8,5.2-34.6,18.1-43.7,33.8
				c-27.8,48.2,5.6,74.1,22.4,95.7c19,24.5-22.4,54.2,1.4,78.6c24.9,25.6,54.8,36.2,104.6,36.2c98.5,0,120.6,7.4,257.2-1.9
				c25.9-1.8,60.3-7.4,86.2-10c38.9-4,134.9-36.2,109.9-97.3c-18.6-45.1-115.9-38.2-83.2-99.9c21.3-40.4,61.5-96.5,11.5-132.1
				c-36.2-25.9-59.4-40.8-80.4-79.9c-23-42.9-55.3-66.1-106.2-70.2c-27.5-2.2-55.4-2-82.4,3.8c-33,7.1-65.6,20.8-92,41
				C207.1,97.1,202.8,100.7,198.7,104.5z"/>
		</defs>
		<clipPath id="SVGID_00000183958848621291413080000007923210109431811751_">
			<use xlink:href="#SVGID_00000125589759533276526450000003495857973539962767_"  style="overflow:visible;"/>
		</clipPath>
		<path style="clip-path:url(#SVGID_00000183958848621291413080000007923210109431811751_);fill:#96511D;" d="M505.8,548.6l-29.8-33
			c-3.3-3.6-11.7-6.1-21.1-6.1H241.8c-9.3,0-17.8,2.4-21.1,6.1l-29.8,33c-2,2.2-1.5,4.5,0.8,6.4h313.3
			C507.2,553.1,507.7,550.8,505.8,548.6z"/>
		<g style="clip-path:url(#SVGID_00000183958848621291413080000007923210109431811751_);">
			<path class="st16" d="M294.8,539.3c0,1.6-3.8,2.9-8.5,2.9c-4.7,0-8.5-1.3-8.5-2.9l-3.6-35.3h24.2L294.8,539.3z"/>
			<polygon class="st17" points="277.6,521.3 279.1,537.8 293.5,537.8 295,521.3 			"/>
			<path class="st17" d="M286.3,536.5c4,0,7.2,0.6,7.2,1.4c0,0.8-3.2,1.4-7.2,1.4c-4,0-7.2-0.6-7.2-1.4
				C279.1,537.1,282.3,536.5,286.3,536.5"/>
			<path class="st18" d="M284.9,536.5l-2.6-25.4c-1.2-0.1-2.3-0.2-3.2-0.3l2.6,26l0.1,1.1l0.1,1.1c0.9,0.1,2,0.2,3.2,0.3l-0.1-1.3
				L284.9,536.5z"/>
		</g>
		<g style="clip-path:url(#SVGID_00000183958848621291413080000007923210109431811751_);">
			<path class="st19" d="M273.6,517.1c19-20.3-2.8-39.7,13.4-50.6c-2.2-0.3-3.1-3.3-5.8-2.5c-11,6.7-1.7,30.7-13.7,35.4
				C269.5,505.3,271.5,511.2,273.6,517.1"/>
			<path class="st20" d="M245.6,474.4c-18.2-20.5-40.3-10.6-27.2,13l0.1,0.1c3.4,5.4,4.2,11.2,2.5,17.3c-3.4,8.7-1,14.4,8.7,14.8
				l0.1-3.1c-7-0.3-8.5-4.9-6.1-10.9c2.2-7.1,2.3-13.8-1.7-20.2c-6.8-10.8,6.3-24.1,20.5-8.3L245.6,474.4z"/>
			<path class="st19" d="M261.5,460.6c0,0-6,6.6-3,15.8c3,9.2,27.1,39.1,7.7,54.1H250h-16.2c-19.4-14.9,4.8-44.8,7.7-54.1
				c3-9.2-3-15.8-3-15.8l11.5-2.7L261.5,460.6z"/>
			<path class="st21" d="M261.5,460.6c0,0-0.4,0.5-1,1.3h-21c-0.6-0.8-1-1.3-1-1.3H261.5z"/>
			<path class="st19" d="M253.5,450.7l-3.5,1.2l-3.5-1.2c-5.2-5.8,3.5-7.2,3.5-11.9C250,443.5,258.8,445,253.5,450.7"/>
			<rect x="246.1" y="450.7" class="st19" width="7.9" height="3.1"/>
			<rect x="236" y="456.5" class="st19" width="28.1" height="4.1"/>
			<path class="st19" d="M262.4,457.9h-24.8v-2.8c0-1.6,1.3-2.8,2.8-2.8h19.1c1.6,0,2.8,1.3,2.8,2.8V457.9z"/>
			<path class="st22" d="M256.2,462.8c0.9-1.2-0.4-2.3-1.3-1.1c-14.8,19.4,27.5,50.6,4.7,65.9c-1.3,0.9,1.3,2.8,2.6,2
				C287.2,512.7,242.6,480.6,256.2,462.8"/>
			<path class="st23" d="M234.1,491c4.9,17.4,15.1,30.6,27.5,35.1c1.2,0.4,2.4,0.8,3.6,1.1c1.3,0.3,2.6,0.5,3.9,0.6
				c-0.8,1-1.8,1.9-2.9,2.7v3.6c1.6,0.2,2.8,1.6,2.8,3.3v3.3h-38v-3.3c0-1.7,1.2-3,2.8-3.3v-3.6c-4.1-3.2-6.2-7-7.1-11.1
				c-0.2-1.1-0.3-2.2-0.4-3.4C226.1,507.7,230.1,498.6,234.1,491"/>
		</g>
		<g style="clip-path:url(#SVGID_00000183958848621291413080000007923210109431811751_);">
			<path class="st24" d="M423.2,513.9c25.2,0,45.6,6.4,45.6,14.3c0,7.9-20.4,14.3-45.6,14.3s-45.6-6.4-45.6-14.3
				C377.7,520.3,398.1,513.9,423.2,513.9L423.2,513.9z"/>
			<path class="st16" d="M424.7,510.1c28.3,0,51.3,6.4,51.3,14.3c0,7.9-23,14.3-51.3,14.3s-51.3-6.4-51.3-14.3
				C373.4,516.5,396.3,510.1,424.7,510.1"/>
			<path class="st24" d="M424.7,511.1c26.4,0,47.8,6,47.8,13.3c0,7.3-21.4,13.3-47.8,13.3s-47.8-6-47.8-13.3
				C376.9,517.1,398.3,511.1,424.7,511.1"/>
			<path class="st25" d="M393.1,522.4c0,0-5.1,1.2-5.2,0c0-1.3-0.8,0.8-0.8,0.8s-0.5,0.2-0.3-0.4c0.2-0.5,0.9-0.8,0.6-1
				c-0.2-0.2-1.1-0.3-0.9-0.6c0.2-0.3,0.8-1.1,1.1-1.1s0.3-1.6,0.6-1.6c0.3,0,0-0.8,0.5-0.7c0.5,0,1.5-0.6,1.5-0.6s-0.3-0.9,0.6-0.9
				c0.9,0,0.1-1.4,0.1-1.4s-0.5-1,0.3-1c0.8,0-0.6-1.4-0.1-1.5c0.5,0,1.6,0.5,1.9,0.3c0.3-0.2,1.1-1.1,1.1-1.1s0.6-0.7,1-0.6
				c0.4,0.1,1.1-0.3,0.8-0.5c-0.3-0.2-1.4-1.3-0.8-1.3c0.6,0,2.8-0.2,3.7-0.1c0.8,0.1-0.1-1.6,0.8-1.7s2.2-0.2,2.7,0.2
				c0.5,0.3,1.9,0.2,2-0.3c0.1-0.5,1-0.7,1.2-0.5c0.2,0.1,0.9-0.8,1.2-0.6c0.4,0.2,0.8-0.5,1.3,0c0.5,0.5,1.5,0.4,1.5,0.4
				s1.6,0.1,1.5,0.9c-0.1,0.8,1.1-0.6,2.4-0.4c1.3,0.2,2,0.5,2,0.5s1.4-0.9,2.4-0.4c1,0.5-1.3,1-1.3,1s0.5,0.2,0.3,0.6
				c-0.3,0.4,1.9,1.3,1.9,1.5c0,0.2,1-0.1,1,0.1c0,0.3,0,0.7,0,0.7l1.6,3.7C417.7,516,395.3,525.5,393.1,522.4"/>
			<path class="st25" d="M437.5,531.4c0,0,26.4-5.8,23.4-9.1c-3-3.3-4.1-3.8-1.4-5.1c2.6-1.4,2.9-6.1,0.4-5.7
				c-2.5,0.5-0.1-1-3.1-0.8c-3,0.1-2.9-0.4-2.6-1.3c0.3-1-0.2-1.8-2.4-0.7c-2.3,1.2-13.9,11.1-13.9,11.1l-11.2,4.7L437.5,531.4z"/>
			<path class="st26" d="M406.5,507.6c0,0-1.1-0.1-1.1,0.8c0,1,1.8,1.9,2.8,1c1-0.8,0.3-2.2-0.4-2.5
				C407.1,506.7,406.7,507.1,406.5,507.6"/>
			<path class="st27" d="M407.6,507.3c-0.1,0-0.2,0.1-0.1,0.1c0.4,0.3,0.5,0.7,0.5,1.2c0,0.1,0,0.2,0.1,0
				C408.4,508.2,408.2,507.5,407.6,507.3"/>
			<path class="st28" d="M451.6,508.2c1.3-1.5,2.2-3.3,2.9-5.2c3.5-4.8,2.8-8.3-1.4-5.5c-3.9,2.7-7.8,5.4-11.9,7.6
				c-0.8-0.2-1.6-0.5-2.4-0.7c3-3.4,6.4-6.4,10.1-9.2c2.4-2.3,0.7-4.1-2.8-2.6c-5,2.2-10,3.3-15.2,3.2c-11.7,0.8-14.8,6-12.7,10.3
				c-4.3,1.2-8.4,2.8-12.1,4.6c-0.4-7.9-12-1.6-8.6,13.5c3.2,1.5,6.5,3,9.7,4.5c-0.1,2.6,1.2,4.4,4.3,5.2c4.2,2.4,9.1,3.9,14.6,4.6
				c14.9,1.4,21.6-3.3,9.4-9.2c1.2-1.2,2.5-2.5,3.7-3.7c11,1,25.2-10.3,13.4-12.9C449.1,512.2,452.5,509.7,451.6,508.2"/>
			<path class="st29" d="M448.9,492.1c-0.7-0.1-1.6,0.1-2.7,0.6c-5,2.2-10,3.3-15.2,3.2c-2.5,0.2-4.6,0.5-6.4,1.1
				c-7.9,6.5,6.2,6.2,13,3.1C444,497.1,450.5,494.2,448.9,492.1"/>
			<path class="st29" d="M402.2,507.7c-2.2,0.9-4.7,4.1-5.2,9.2c0,0,1.3-0.6,1.7,0.2c0.4,0.9,1.4,0.7,1-0.4c0,0,0-5.5,2.9-6.4
				C405.5,509.4,404.7,507.3,402.2,507.7"/>
			<path class="st29" d="M414.1,528.4c-6,2.7-2.3,4.5,6.2,6C448.6,537.4,430,524.9,414.1,528.4"/>
			<path class="st30" d="M439.4,506.5c-18.4,1.6-29.6,7.6-28.7,21.2c-1.2,0.4-2.3,0.7-3.5,1.1C407.7,511.7,420.4,506.1,439.4,506.5"
				/>
			<path class="st29" d="M447.2,512.4c-0.7-4.2,2.7-7.2,5.8-10.2c2-2.3,0.9-3.6-4.2-1c-4.9,2.7-8.6,6.3-11.5,10.4
				C431.4,526.3,455.8,523.1,447.2,512.4"/>
			<path class="st30" d="M413.5,525.3c7.5,0.1,15,0.3,21.5,3c1-1.1,1.9-2.3,2.9-3.4c-7.5-5.9-7.1-11,1.4-18.4
				c-6.3,3.8-8.9,7.2-7.8,12.9c-0.8,1.2-1.6,2.3-2.4,3.5c0,0-1.4-1.7-1.7-0.3c-0.3,1.4-0.6,1.2-1.5,0.3c-0.8-0.9-1.7-1.2-2.7,0
				c-1.1,1.1-1.9,1.6-3.1,0.6c-1.2-1.1-2.3-1.3-3.4,0.3C415.4,525.2,413.5,525.3,413.5,525.3"/>
			<path class="st31" d="M400.4,517.9c3,0,5.5,2.2,5.5,4.9c0,2.7-2.5,4.9-5.5,4.9c-3,0-5.5-2.2-5.5-4.9
				C394.9,520.1,397.4,517.9,400.4,517.9"/>
			<path class="st32" d="M400.4,518.3c2.8,0,5.1,2,5.1,4.5c0,2.5-2.3,4.5-5.1,4.5c-2.8,0-5.1-2-5.1-4.5
				C395.3,520.3,397.6,518.3,400.4,518.3"/>
			<path class="st26" d="M400.1,521.7l0-2.3c0-0.4-0.3-0.5-0.9-0.4c-2.3,0.7-3.2,2.3-3.1,4.3c0,0.4,0.3,0.5,0.9,0.3l2.1-0.8
				c-0.3-0.1-0.5-0.2-0.7-0.3c0.2-0.1,0.3-0.3,0.4-0.5c0.3,0,0.6-0.2,0.8-0.5l0.3,0.3H400.1z"/>
			<path class="st33" d="M398.5,521.6C396.7,521.8,397.8,520.1,398.5,521.6 M398.2,522.3 M399.2,521.1"/>
			<path class="st31" d="M399.5,523.5l-2.4,0.9c-0.4,0.2-0.4,0.5,0,0.9c1.7,1.6,3.7,1.7,5.7,0.8c0.4-0.2,0.4-0.4-0.1-0.8l-1.7-1.4
				c0,0.2,0,0.5,0,0.7c-0.2-0.1-0.5-0.1-0.7-0.1c-0.2-0.2-0.4-0.4-0.8-0.5l0.2-0.3L399.5,523.5z"/>
			<path class="st34" d="M400,524.8C400.8,526.2,398.7,526,400,524.8 M400.9,524.8 M399.2,524.4"/>
			<path class="st31" d="M401.3,523.3l2.4,1.4c0.4,0.2,0.8,0.1,0.9-0.5c0.7-2.3-0.4-4-2.4-5.1c-0.4-0.2-0.7,0-0.8,0.6l-0.5,2.2
				c0.2-0.2,0.5-0.3,0.8-0.4c0,0.2,0.1,0.4,0.3,0.6c-0.2,0.3-0.2,0.6,0,1l-0.5,0L401.3,523.3z"/>
			<path class="st34" d="M402.4,522.2C403.3,520.6,404.4,522.5,402.4,522.2 M401.8,521.4 M402.5,523"/>
			<path class="st26" d="M400.4,517.9c1.5,0,2.8,0.5,3.8,1.4c0.1,0.4,0.1,0.7,0.1,1.1c0,2.6-2.4,4.8-5.4,4.8c-1.6,0-3-0.6-4-1.6
				c0-0.3-0.1-0.5-0.1-0.8C394.9,520.1,397.4,517.9,400.4,517.9"/>
			<path class="st27" d="M400.4,518.3c1.6,0,3,0.7,4,1.7c0,0.1,0,0.3,0,0.4c0,2.6-2.4,4.8-5.4,4.8c-1.3,0-2.5-0.4-3.5-1.1
				c-0.1-0.4-0.2-0.8-0.2-1.3C395.3,520.3,397.6,518.3,400.4,518.3"/>
			<path class="st26" d="M400.1,521.7l0-2.3c0-0.4-0.3-0.5-0.9-0.4c-2.3,0.7-3.2,2.3-3.1,4.3c0,0.4,0.3,0.5,0.9,0.3l2.1-0.8
				c-0.3-0.1-0.5-0.2-0.7-0.3c0.2-0.1,0.3-0.3,0.4-0.5c0.3,0,0.6-0.2,0.8-0.5l0.3,0.3H400.1z"/>
			<path class="st33" d="M398.5,521.6C396.7,521.8,397.8,520.1,398.5,521.6 M398.2,522.3 M399.2,521.1"/>
			<path class="st26" d="M399.5,523.5l-2.4,0.9c-0.2,0.1-0.3,0.2-0.3,0.3c0.7,0.3,1.5,0.4,2.3,0.4c1,0,1.9-0.2,2.7-0.6l-0.7-0.6
				c0,0.2,0,0.5,0,0.7c-0.2-0.1-0.5-0.1-0.7-0.1c-0.2-0.2-0.4-0.4-0.8-0.5l0.2-0.3L399.5,523.5z"/>
			<path class="st33" d="M400.1,525c-0.1,0-0.3,0-0.4,0.1c0.1-0.1,0.2-0.2,0.3-0.3C400,524.9,400.1,525,400.1,525 M401,524.8
				c0,0-0.1,0-0.1,0c0,0,0-0.1,0-0.1C400.9,524.8,400.9,524.8,401,524.8z M399.2,524.4c-0.1,0.4-0.2,0.6-0.4,0.7c-0.2,0-0.3,0-0.5,0
				C398.2,524.9,398.3,524.6,399.2,524.4z"/>
			<path class="st26" d="M401.3,523.3l1.2,0.7c1-0.7,1.7-1.7,1.9-2.9c-0.4-0.8-1.2-1.5-2.2-2c-0.4-0.2-0.7,0-0.8,0.6l-0.5,2.2
				c0.2-0.2,0.5-0.3,0.8-0.4c0,0.2,0.1,0.4,0.3,0.6c-0.2,0.3-0.2,0.6,0,1l-0.5,0L401.3,523.3z"/>
			<path class="st33" d="M402.4,522.2C403.3,520.6,404.4,522.5,402.4,522.2 M401.8,521.4 M402.5,523c0.6-0.2,0.9-0.2,1.1,0
				c-0.1,0.2-0.3,0.3-0.4,0.5C403,523.4,402.7,523.3,402.5,523z"/>
			<path class="st35" d="M412.5,528.6c0,2-3.5,3.6-7.7,3.6c-4.3,0-7.7-1.6-7.7-3.6c0-2,3.5-3.6,7.7-3.6
				C409,525,412.5,526.6,412.5,528.6"/>
			<path class="st36" d="M411.8,528.6c0,1.8-3.2,3.3-7.1,3.3c-3.9,0-7.1-1.5-7.1-3.3c0-1.8,3.2-3.3,7.1-3.3
				C408.7,525.3,411.8,526.7,411.8,528.6"/>
			<path class="st37" d="M402.8,528.7c-1.1,0-2.2,0-3.3,0c-2.1,0,0,2.1,1.2,1.6c0.8-0.4,1.6-0.7,2.5-1.1
				C403.9,528.8,403.8,528.7,402.8,528.7"/>
			<path class="st36" d="M399.5,528.9C401.1,528.8,401.1,529.2,399.5,528.9 M399.9,530 M402.1,528.9"/>
			<path class="st37" d="M403.5,529.3c-0.8,0.4-1.6,0.7-2.3,1.1c-1.5,0.7,3.3,1.5,3.4,0.7c0-0.5,0-1.1,0-1.6
				C404.6,529,404.2,528.9,403.5,529.3"/>
			<path class="st36" d="M403.4,530.8C403.4,531.3,402.8,531.3,403.4,530.8 M403.8,529.5"/>
			<path class="st37" d="M406.7,528.7c1.1,0,2.2,0,3.3,0c2.1,0,0,2.1-1.2,1.6c-0.8-0.4-1.6-0.7-2.5-1.1
				C405.6,528.8,405.7,528.7,406.7,528.7"/>
			<path class="st36" d="M410,528.9C408.4,528.8,408.4,529.2,410,528.9 M409.5,530 M407.3,528.9"/>
			<path class="st37" d="M405.9,529.3c0.8,0.4,1.6,0.7,2.3,1.1c1.5,0.7-3.3,1.5-3.4,0.7c0-0.5,0-1.1,0-1.6
				C404.9,529,405.2,528.9,405.9,529.3"/>
			<path class="st36" d="M406.1,530.8C406,531.3,406.7,531.3,406.1,530.8 M405.7,529.5"/>
			<path class="st37" d="M402.8,528.4c-1.1,0-2.2,0-3.3,0c-2.1,0,0-2.1,1.2-1.6c0.8,0.4,1.6,0.7,2.5,1.1
				C403.9,528.3,403.8,528.4,402.8,528.4"/>
			<path class="st36" d="M399.5,528.2C401.1,528.3,401.1,527.9,399.5,528.2 M399.9,527.1 M402.1,528.2"/>
			<path class="st37" d="M403.5,527.8c-0.8-0.4-1.6-0.7-2.3-1.1c-1.5-0.7,3.3-1.5,3.4-0.7c0,0.5,0,1.1,0,1.6
				C404.6,528.1,404.2,528.2,403.5,527.8"/>
			<path class="st36" d="M403.4,526.3C403.4,525.8,402.8,525.8,403.4,526.3 M403.8,527.6"/>
			<path class="st37" d="M406.7,528.4c1.1,0,2.2,0,3.3,0c2.1,0,0-2.1-1.2-1.6c-0.8,0.4-1.6,0.7-2.5,1.1
				C405.6,528.3,405.7,528.4,406.7,528.4"/>
			<path class="st36" d="M410,528.2C408.4,528.3,408.4,527.9,410,528.2 M409.5,527.1 M407.3,528.2"/>
			<path class="st37" d="M405.9,527.8c0.8-0.4,1.6-0.7,2.3-1.1c1.5-0.7-3.3-1.5-3.4-0.7c0,0.5,0,1.1,0,1.6
				C404.9,528.1,405.2,528.2,405.9,527.8"/>
			<path class="st36" d="M406.1,526.3C406,525.8,406.7,525.8,406.1,526.3 M405.7,527.6"/>
			<path class="st35" d="M462.7,521.9c0.9,1.8-1.5,4.5-5.4,6.1c-3.9,1.6-7.8,1.4-8.7-0.4c-0.9-1.8,1.5-4.5,5.4-6.1
				C457.8,520,461.7,520.1,462.7,521.9"/>
			<path class="st36" d="M462.1,522.1c0.9,1.6-1.4,4.1-4.9,5.6c-3.6,1.4-7.2,1.3-8-0.4c-0.9-1.6,1.4-4.1,4.9-5.6
				C457.7,520.3,461.2,520.5,462.1,522.1"/>
			<path class="st37" d="M453.9,525.6c-1,0.4-2,0.8-3,1.2c-1.9,0.7,1,1.9,1.9,1c0.6-0.6,1.1-1.3,1.7-1.9
				C455,525.3,454.8,525.2,453.9,525.6"/>
			<path class="st36" d="M451.1,527C452.4,526.4,452.6,526.7,451.1,527 M451.9,527.8 M453.4,526"/>
			<path class="st37" d="M454.9,525.8c-0.5,0.6-1.1,1.2-1.6,1.8c-1,1.1,3.7,0.1,3.4-0.6c-0.3-0.5-0.5-1-0.8-1.4
				C455.7,525.3,455.4,525.3,454.9,525.8"/>
			<path class="st36" d="M455.5,527.3C455.8,527.7,455.2,527.9,455.5,527.3 M455.2,526"/>
			<path class="st37" d="M457.5,524.1c1-0.4,2-0.8,3-1.2c1.9-0.8,1,1.9-0.3,1.9c-0.9,0-1.8-0.1-2.8-0.1
				C456.6,524.7,456.5,524.5,457.5,524.1"/>
			<path class="st36" d="M460.6,523.2C459.1,523.7,459.2,524,460.6,523.2 M460.7,524.3 M458.1,524.1"/>
			<path class="st37" d="M457,525c0.9,0,1.8,0.1,2.6,0.1c1.6,0.1-2.3,2.5-2.7,1.9c-0.2-0.5-0.5-1-0.7-1.5
				C456,525.1,456.2,524.9,457,525"/>
			<path class="st36" d="M457.9,526.3C458.1,526.8,458.7,526.5,457.9,526.3 M456.9,525.3"/>
			<path class="st37" d="M453.8,525.4c-1,0.4-2,0.8-3,1.2c-1.9,0.8-1-1.9,0.3-1.9c0.9,0,1.8,0.1,2.8,0.1
				C454.7,524.8,454.7,525,453.8,525.4"/>
			<path class="st36" d="M450.7,526.3C452.2,525.8,452,525.5,450.7,526.3 M450.6,525.2 M453.1,525.4"/>
			<path class="st37" d="M454.2,524.5c-0.9,0-1.8-0.1-2.6-0.1c-1.6-0.1,2.3-2.5,2.7-1.9c0.2,0.5,0.5,1,0.7,1.5
				C455.3,524.4,455,524.6,454.2,524.5"/>
			<path class="st36" d="M453.3,523.2C453.1,522.7,452.6,523,453.3,523.2 M454.3,524.2"/>
			<path class="st37" d="M457.3,523.9c1-0.4,2-0.8,3-1.2c1.9-0.7-1-1.9-1.9-1c-0.6,0.6-1.1,1.3-1.7,1.9
				C456.3,524.2,456.4,524.3,457.3,523.9"/>
			<path class="st36" d="M460.2,522.5C458.8,523.1,458.6,522.8,460.2,522.5 M459.3,521.7 M457.8,523.5"/>
			<path class="st37" d="M456.4,523.7c0.5-0.6,1.1-1.2,1.6-1.8c1-1.1-3.7-0.1-3.4,0.6c0.3,0.5,0.5,1,0.8,1.4
				C455.5,524.2,455.9,524.2,456.4,523.7"/>
			<path class="st36" d="M455.8,522.2C455.5,521.8,456.1,521.6,455.8,522.2 M456,523.5"/>
			<path class="st31" d="M443.2,520.9c3,0,5.5,2.2,5.5,4.9c0,2.7-2.5,4.9-5.5,4.9c-3,0-5.5-2.2-5.5-4.9
				C437.7,523.1,440.2,520.9,443.2,520.9"/>
			<path class="st32" d="M443.2,521.3c2.8,0,5.1,2,5.1,4.5c0,2.5-2.3,4.5-5.1,4.5c-2.8,0-5.1-2-5.1-4.5
				C438.1,523.3,440.4,521.3,443.2,521.3"/>
			<path class="st26" d="M442.9,524.7l0-2.3c0-0.4-0.3-0.5-0.9-0.4c-2.3,0.7-3.2,2.3-3.1,4.3c0,0.4,0.3,0.5,0.9,0.3l2.1-0.8
				c-0.3-0.1-0.5-0.2-0.7-0.3c0.2-0.1,0.3-0.3,0.4-0.5c0.3,0,0.6-0.2,0.8-0.5l0.3,0.3H442.9z"/>
			<path class="st33" d="M441.3,524.6C439.5,524.8,440.6,523.1,441.3,524.6 M441,525.3 M442,524.1"/>
			<path class="st31" d="M442.3,526.5l-2.4,0.9c-0.4,0.2-0.4,0.5,0,0.9c1.7,1.6,3.7,1.7,5.7,0.8c0.4-0.2,0.4-0.4-0.1-0.8l-1.7-1.4
				c0,0.2,0,0.5,0,0.7c-0.2-0.1-0.5-0.1-0.7-0.1c-0.2-0.2-0.4-0.4-0.8-0.5l0.2-0.3L442.3,526.5z"/>
			<path class="st34" d="M442.8,527.8C443.6,529.2,441.5,529,442.8,527.8 M443.7,527.8 M442,527.4"/>
			<path class="st31" d="M444.1,526.3l2.4,1.4c0.4,0.2,0.8,0.1,0.9-0.5c0.7-2.3-0.4-4-2.4-5.1c-0.4-0.2-0.7,0-0.8,0.6l-0.5,2.2
				c0.2-0.2,0.5-0.3,0.8-0.4c0,0.2,0.1,0.4,0.3,0.6c-0.2,0.3-0.2,0.6,0,1l-0.5,0L444.1,526.3z"/>
			<path class="st34" d="M445.2,525.2C446.1,523.6,447.2,525.5,445.2,525.2 M444.6,524.4 M445.2,526"/>
			<path class="st26" d="M443.2,520.9c1.5,0,2.8,0.5,3.8,1.4c0.1,0.4,0.1,0.7,0.1,1.1c0,2.6-2.4,4.8-5.4,4.8c-1.6,0-3-0.6-4-1.6
				c0-0.3-0.1-0.5-0.1-0.8C437.7,523.1,440.2,520.9,443.2,520.9"/>
			<path class="st27" d="M443.2,521.3c1.6,0,3,0.7,4,1.7c0,0.1,0,0.3,0,0.4c0,2.6-2.4,4.8-5.4,4.8c-1.3,0-2.5-0.4-3.5-1.1
				c-0.1-0.4-0.2-0.8-0.2-1.3C438.1,523.3,440.4,521.3,443.2,521.3"/>
			<path class="st26" d="M442.9,524.7l0-2.3c0-0.4-0.3-0.5-0.9-0.4c-2.3,0.7-3.2,2.3-3.1,4.3c0,0.4,0.3,0.5,0.9,0.3l2.1-0.8
				c-0.3-0.1-0.5-0.2-0.7-0.3c0.2-0.1,0.3-0.3,0.4-0.5c0.3,0,0.6-0.2,0.8-0.5l0.3,0.3H442.9z"/>
			<path class="st33" d="M441.3,524.6C439.5,524.8,440.6,523.1,441.3,524.6 M441,525.3 M442,524.1"/>
			<path class="st26" d="M442.3,526.5l-2.4,0.9c-0.2,0.1-0.3,0.2-0.3,0.3c0.7,0.3,1.5,0.4,2.3,0.4c1,0,1.9-0.2,2.7-0.6l-0.7-0.6
				c0,0.2,0,0.5,0,0.7c-0.2-0.1-0.5-0.1-0.7-0.1c-0.2-0.2-0.4-0.4-0.8-0.5l0.2-0.3L442.3,526.5z"/>
			<path class="st33" d="M442.9,528c-0.1,0-0.3,0-0.4,0.1c0.1-0.1,0.2-0.2,0.3-0.3C442.8,527.9,442.9,528,442.9,528 M443.8,527.8
				c0,0-0.1,0-0.1,0c0,0,0-0.1,0-0.1C443.7,527.8,443.7,527.8,443.8,527.8z M442,527.4c-0.1,0.4-0.2,0.6-0.4,0.7c-0.2,0-0.3,0-0.5,0
				C441,527.9,441.1,527.6,442,527.4z"/>
			<path class="st26" d="M444.1,526.3l1.2,0.7c1-0.7,1.7-1.7,1.9-2.9c-0.4-0.8-1.2-1.5-2.2-2c-0.4-0.2-0.7,0-0.8,0.6l-0.5,2.2
				c0.2-0.2,0.5-0.3,0.8-0.4c0,0.2,0.1,0.4,0.3,0.6c-0.2,0.3-0.2,0.6,0,1l-0.5,0L444.1,526.3z"/>
			<path class="st33" d="M445.2,525.2C446.1,523.6,447.2,525.5,445.2,525.2 M444.6,524.4 M445.2,526c0.6-0.2,0.9-0.2,1.1,0
				c-0.1,0.2-0.3,0.3-0.4,0.5C445.8,526.4,445.5,526.3,445.2,526z"/>
			<path class="st26" d="M394.3,525.3c0,0-0.5-0.9-1.4-0.4c-0.9,0.5-0.8,2.3,0.5,2.6c1.3,0.3,2.2-1,2.2-1.6
				C395.5,525.3,394.8,525.2,394.3,525.3"/>
			<path class="st27" d="M395.1,526c-0.1-0.1-0.2-0.1-0.2,0c-0.1,0.5-0.4,0.8-0.8,1c-0.2,0-0.2,0.1,0.1,0.1
				C394.8,527.1,395.3,526.5,395.1,526"/>
			<path class="st26" d="M449.2,521.5c0,0-1.1-0.1-1.1,0.8c0,1,1.8,1.9,2.8,1c1-0.8,0.3-2.2-0.4-2.5
				C449.8,520.6,449.4,521.1,449.2,521.5"/>
			<path class="st27" d="M450.3,521.3c-0.1,0-0.2,0.1-0.1,0.1c0.4,0.3,0.5,0.7,0.5,1.2c0,0.1,0,0.2,0.1,0
				C451.1,522.1,450.8,521.4,450.3,521.3"/>
			<path class="st26" d="M444.2,531.1c0,0-1.1-0.1-1.1,0.8c0,1,1.8,1.9,2.8,1c1-0.8,0.3-2.2-0.4-2.5
				C444.8,530.2,444.4,530.7,444.2,531.1"/>
			<path class="st27" d="M445.3,530.9c-0.1,0-0.2,0.1-0.1,0.1c0.4,0.3,0.5,0.7,0.5,1.2c0,0.1,0,0.2,0.1,0
				C446.1,531.7,445.8,531,445.3,530.9"/>
			<path class="st18" d="M445.7,531.7L445.7,531.7l-0.1-0.7c-1,0-1.9,0.1-2.6,0.2l0.1,0.5l0,0.1l0.1,0.6c0.7,0.1,1.7,0.1,2.7,0.2
				L445.7,531.7z"/>
		</g>
		<g style="clip-path:url(#SVGID_00000183958848621291413080000007923210109431811751_);">
			<path class="st38" d="M361.2,522.8L361.2,522.8c0,0.3,0,0.5-0.1,0.8c-0.2,1.5-0.7,3-1.5,4.5c-1.6,2.9-4.2,5.7-7.5,8
				c-5.6,4-13.1,6.7-20.6,6.7c-7.5,0-15-2.7-20.6-6.7c-3.3-2.3-5.9-5.1-7.5-8c-0.8-1.5-1.3-3-1.5-4.5c0-0.3-0.1-0.5-0.1-0.7v0
				c0.5-8.2,15-11.4,27.2-11.8h0.1c0.3,0,0.7,0,1,0c0.4,0,0.9,0,1.3,0c0.4,0,0.9,0,1.3,0c0.3,0,0.7,0,1,0h0.1
				C346.2,511.4,360.7,514.6,361.2,522.8z"/>
			<path class="st39" d="M361.2,523.2c0,0.1,0,0.1,0,0.2c0,0,0,0.1-0.1,0.1c-2.4,5.1-14.7,9-29.6,9c-14.9,0-27.2-3.9-29.6-9
				c0,0,0-0.1-0.1-0.1c0-0.1,0-0.1,0-0.2c0-0.1,0-0.3,0-0.4v0c0.5-8.2,15-11.4,27.2-11.8h0.1c0.3,0,0.7,0,1,0c0.4,0,0.9,0,1.3,0
				c0.4,0,0.9,0,1.3,0c0.3,0,0.7,0,1,0h0.1c12.2,0.4,26.7,3.6,27.2,11.8v0C361.2,523,361.2,523.1,361.2,523.2z"/>
			<path class="st40" d="M357,523.3C357.1,523.3,357.1,523.3,357,523.3c-2.9,4.5-13.2,7.8-25.5,7.8c-12.3,0-22.6-3.3-25.5-7.8
				c0,0,0,0,0,0c0.1-5.5,11.5-9.9,25.5-9.9C345.5,513.3,356.9,517.8,357,523.3z"/>
			<g>
				<path class="st41" d="M359.6,528.1c-1.6,2.9-4.2,5.7-7.5,8c-5.6,2.4-12.8,3.7-20.6,3.7c-7.8,0-15-1.4-20.6-3.7
					c-3.3-2.3-5.9-5.1-7.5-8c4.4,5.5,15.5,9.3,28.1,9.3C344.1,537.4,355.2,533.5,359.6,528.1z"/>
			</g>
			<path class="st42" d="M357.1,523.3C357.1,523.3,357.1,523.3,357.1,523.3c-2.9,4.5-13.2,7.8-25.6,7.8c-12.3,0-22.6-3.3-25.5-7.8
				c0,0,0,0,0,0s0,0,0,0c2.9-4.5,13.2-7.8,25.5-7.8C343.8,515.5,354.1,518.8,357.1,523.3C357.1,523.3,357.1,523.3,357.1,523.3z"/>
			<g>
				<path class="st43" d="M318.9,528.5c-0.6-0.6-0.4-1.5,0.3-2.1c0.7-0.5,1.6-0.8,2.5-1c0.9-0.2,1.8-0.5,2.7-0.7
					c1.1-0.3,2.4-0.8,2.4-1.7c0-0.4-0.2-0.7-0.2-1.1c-0.1-1.3,1.6-2.1,3.2-2.3c1.6-0.2,3.3-0.1,4.6-0.8c-1.1-1.4-3.7-1.6-5.7-1.1
					c-2,0.5-4,1.4-6.1,1.4c-1.6,0-3.3-0.5-4.8,0.1c-1.4,0.5-2,1.8-3.2,2.6c-0.9,0.6-2,1-3.1,1.3s-2.2,0.8-2.9,1.6
					c-0.2,0.3-0.4,0.6-0.5,0.9c3.3,2.5,9,4.4,15.9,5.2c-0.8-0.6-1.6-1.2-2.6-1.5C320.6,529,319.5,529,318.9,528.5z"/>
				<path class="st43" d="M350.1,526.1c-1.6-0.2-3.3,0.6-4.6,0c-0.5-0.2-0.9-0.6-1.4-0.9c-1.4-0.7-3.1,0-4.3,0.8
					c-1.2,0.8-2.4,1.8-4,1.9c-0.7,0.1-1.5-0.1-2.2,0c-2,0.2-3.2,2.1-4.8,3.1c0.9,0,1.8,0.1,2.8,0.1c8.4,0,15.9-1.5,20.7-4
					C351.7,526.6,351,526.2,350.1,526.1z"/>
			</g>
			<g>
				<g>
					<path class="st44" d="M338.6,521.9c-0.9-0.3-2.3-0.5-2.8-0.3c-0.6,0.2-1.1,0.6-1.6,1c-0.8,0.6-1.6,1.2-2.3,1.8
						c0.5,0.5,1.1,1,1.7,1.4C335.5,524.7,337.1,523.4,338.6,521.9z"/>
				</g>
				<g>
					<path class="st45" d="M333.6,525.7c0.1,0,0.1,0.1,0.2,0.1c0.1,0.1,0.3,0.2,0.5,0.2c0.2,0,0.3-0.1,0.4-0.2
						c1.7-1.1,3.2-2.4,4.5-3.7c-0.1-0.1-0.3-0.1-0.6-0.2C337.1,523.4,335.5,524.7,333.6,525.7z"/>
				</g>
			</g>
			<g>
				<path class="st46" d="M336.2,519.7c-0.8-0.4-1.7-0.7-2.6-0.7c-0.2,0-0.5,0-0.7,0.1c-0.3,0.2-0.4,0.4-0.5,0.7
					c-0.2,0.8-0.4,1.6-0.4,2.4c1.3-0.7,2.9-1.4,4.2-2.1c0.1-0.1,0.2-0.1,0.2-0.3C336.4,519.8,336.3,519.7,336.2,519.7z"/>
			</g>
			<g>
				<g>
					<path class="st46" d="M346.4,521.1c0-0.1-0.1-0.2-0.2-0.3c-0.1,0-0.2,0-0.3,0c-2.3,0-4.3-0.6-6.6-0.6c-0.5,0.7-0.9,1.5-1.2,2.3
						c0,0.1-0.1,0.2,0,0.3c0,0.1,0.2,0.1,0.3,0.2c2.3,0.9,5,0.9,7.6,0.8c0.1,0,0.2,0,0.3-0.1c0.1-0.1,0.1-0.1,0.1-0.2
						C346.7,522.7,346.7,521.8,346.4,521.1z"/>
				</g>
				<g>
					<path class="st45" d="M339.7,522.5c1.2,0.6,2.8,0.6,4.1,0.3c0.1,0,0.1-0.2,0-0.2c-1.3-0.3-2.8-0.4-4.1-0.2
						C339.7,522.4,339.6,522.5,339.7,522.5L339.7,522.5z"/>
				</g>
				<g>
					<path class="st45" d="M340.4,521.8c1.7,0.2,3.3,0.5,5,0.5c0.1,0,0.1-0.1,0-0.1C343.8,521.7,342.2,521.8,340.4,521.8
						C340.4,521.7,340.4,521.8,340.4,521.8L340.4,521.8z"/>
				</g>
				<g>
					<path class="st45" d="M339.4,521c1.2,0.2,2.2,0.4,3.4,0.4c0.1,0,0.1-0.1,0-0.1C341.7,521,340.6,520.9,339.4,521
						C339.3,520.9,339.3,521,339.4,521L339.4,521z"/>
				</g>
			</g>
			<g>
				<g>
					<path class="st47" d="M331.1,518.3c-0.1-0.1-0.2-0.1-0.3-0.2c-0.4,0.1-0.9,0.3-1.2,0.5c-0.6,0.4-1.2,0.9-1.1,1.5
						c0.1,0.7,1.1,1.1,2,1c-0.1-0.1-0.3-0.3-0.4-0.4C329.3,519.9,329.9,518.8,331.1,518.3z"/>
				</g>
				<g>
					<path class="st48" d="M332.7,519.9c0,0,0.1-0.1,0.1-0.1c0-0.1-0.1-0.2-0.2-0.3c-0.4-0.3-1-0.8-1.4-1.2
						c-1.2,0.5-1.8,1.6-1.1,2.5c0.1,0.1,0.3,0.2,0.4,0.4c0,0,0.1,0,0.1,0C331.5,521,332.2,520.5,332.7,519.9z"/>
				</g>
			</g>
			<g>
				<g>
					<path class="st47" d="M337.9,524.9c0,0.1,0.1,0.2,0.1,0.3c0.5,0.1,0.9,0.1,1.4,0.1c0.8,0,1.6-0.3,2-0.8c0.4-0.6-0.2-1.4-1-1.7
						c0,0.2,0.1,0.3,0.1,0.5C340.5,524.2,339.3,524.9,337.9,524.9z"/>
				</g>
				<g>
					<path class="st48" d="M337.6,522.9c-0.1,0-0.1,0-0.1,0.1c-0.1,0.1,0,0.2,0,0.3c0.2,0.4,0.3,1.1,0.5,1.6
						c1.3,0.1,2.6-0.6,2.5-1.7c0-0.1-0.1-0.3-0.1-0.5c0,0-0.1,0-0.1,0C339.4,522.4,338.4,522.6,337.6,522.9z"/>
				</g>
			</g>
			<g>
				<path class="st47" d="M341,519.6c-0.4-0.4-0.9-0.8-1.4-1.2c-1,0.3-2.6,0.7-3.4,1.3c-0.2,0.1-0.4,0.3-0.4,0.5
					c0,0.2,0.1,0.4,0.2,0.6c0.2,0.3,0.4,0.5,0.6,0.7c0.3,0.2,0.7,0.3,1,0.3c0.2,0,0.4-0.2,0.6-0.3c0.9-0.5,1.7-1,2.6-1.5
					c0.1-0.1,0.2-0.1,0.2-0.3C341.1,519.8,341.1,519.7,341,519.6z"/>
			</g>
			<g>
				<path class="st47" d="M325.4,519.1c-0.4-0.4-0.9-0.8-1.4-1.2c-1,0.3-2.6,0.7-3.4,1.3c-0.2,0.1-0.4,0.3-0.4,0.5
					c0,0.2,0.1,0.4,0.2,0.6c0.2,0.3,0.4,0.5,0.6,0.7c0.3,0.2,0.7,0.3,1,0.3c0.2,0,0.4-0.2,0.6-0.3c0.9-0.5,1.7-1,2.6-1.5
					c0.1-0.1,0.2-0.1,0.2-0.3C325.5,519.3,325.4,519.2,325.4,519.1z"/>
			</g>
			<g>
				<path class="st47" d="M335,522.9c-0.2-0.2-2.1-1.4-2.6-1.3c-0.4,0-0.9,0.1-1.2,0.4c-0.2,0.2-0.2,0.5-0.2,0.7c0,0.4,0,0.7,0,1.1
					c0,0.1,0,0.3,0.2,0.3c0.1,0,0.1,0,0.2,0c1.2,0,2.3-0.2,3.4-0.5c0.1,0,0.2-0.1,0.3-0.2C335.3,523.2,335.2,523.1,335,522.9z"/>
			</g>
			<g>
				<g>
					<path class="st44" d="M324.1,520.6c-0.1-0.1-0.2-0.1-0.3-0.1c-0.1,0-0.2,0-0.3,0.1c-2,0.9-4.1,1.3-6,2.2c0,0.8,0.2,1.7,0.5,2.5
						c0,0.1,0.1,0.2,0.2,0.2c0.1,0.1,0.2,0,0.3,0c2.6-0.2,4.8-1.3,7-2.5c0.1,0,0.2-0.1,0.2-0.2c0-0.1,0-0.2,0-0.2
						C325.4,521.9,324.8,521.2,324.1,520.6z"/>
				</g>
				<g>
					<path class="st45" d="M319.3,524.7c1.4,0,2.8-0.6,3.7-1.4c0.1-0.1,0-0.2-0.1-0.2C321.6,523.4,320.2,523.8,319.3,524.7
						C319.2,524.6,319.2,524.7,319.3,524.7L319.3,524.7z"/>
				</g>
				<g>
					<path class="st45" d="M319.4,523.7c1.6-0.5,3.1-0.9,4.6-1.6c0,0,0-0.1,0-0.1C322.2,522.3,320.9,523,319.4,523.7
						C319.4,523.7,319.4,523.7,319.4,523.7L319.4,523.7z"/>
				</g>
				<g>
					<path class="st45" d="M318,523.5c1.2-0.3,2.2-0.6,3.2-1.1c0.1,0,0-0.1-0.1-0.1C320,522.5,319,522.9,318,523.5
						C318,523.5,318,523.5,318,523.5L318,523.5z"/>
				</g>
			</g>
			<g>
				<g>
					<path class="st46" d="M329.4,523.4c-0.1-0.7-0.5-1.9-0.9-2.1c-0.5-0.3-1.2-0.5-1.8-0.7c-1-0.3-2.1-0.5-3.1-0.8
						c-0.4,0.6-0.6,1.2-0.8,1.9C324.8,522.5,327.1,523.1,329.4,523.4z"/>
				</g>
				<g>
					<path class="st45" d="M322.8,521.7c0,0.1,0,0.1,0,0.2c0,0.1,0,0.3,0.1,0.4c0.1,0.1,0.2,0.2,0.4,0.2c2,0.7,4.1,1.1,6.2,1.4
						c0-0.1,0-0.3,0-0.5C327.1,523.1,324.8,522.5,322.8,521.7z"/>
				</g>
			</g>
			<g>
				<path class="st44" d="M326.6,523.5c-0.4,0.2-0.8,0.4-1.1,0.7c-0.2,0.2-0.2,0.5-0.3,0.8c-0.1,0.4,0,0.9,0.4,1.2
					c0.3,0.2,0.8,0.1,1.2,0c0.6-0.1,1.3-0.3,1.8-0.5c0.6-0.2,1.3-0.5,1.6-1c0.2-0.4,0.3-0.8,0.3-1.2c0-0.1,0-0.3,0-0.5
					c0-0.7-0.8-1.1-1.5-0.8C328.3,522.7,327.4,523.1,326.6,523.5z"/>
			</g>
		</g>
	</g>
	<g>
		<defs>
			<path id="SVGID_00000152984356446821312840000011905920998195468167_" d="M198.7,104.5c-9.6,8.9-18.7,19.2-24.6,29.7
				c-12.5,22-13.5,53.6-9.8,77.6c2.6,16.6,13.9,39.7,8.4,56.6c-7.6,22.8-47.2,21.9-66.4,27.6c-17.8,5.2-34.6,18.1-43.7,33.8
				c-27.8,48.2,5.6,74.1,22.4,95.7c19,24.5-22.4,54.2,1.4,78.6c24.9,25.6,54.8,36.2,104.6,36.2c98.5,0,120.6,7.4,257.2-1.9
				c25.9-1.8,60.3-7.4,86.2-10c38.9-4,134.9-36.2,109.9-97.3c-18.6-45.1-115.9-38.2-83.2-99.9c21.3-40.4,61.5-96.5,11.5-132.1
				c-36.2-25.9-59.4-40.8-80.4-79.9c-23-42.9-55.3-66.1-106.2-70.2c-27.5-2.2-55.4-2-82.4,3.8c-33,7.1-65.6,20.8-92,41
				C207.1,97.1,202.8,100.7,198.7,104.5z"/>
		</defs>
		<clipPath id="SVGID_00000059989917437344362210000010102281837777819309_">
			<use xlink:href="#SVGID_00000152984356446821312840000011905920998195468167_"  style="overflow:visible;"/>
		</clipPath>
	</g>
	<g>
		<defs>
			<path id="SVGID_00000092421323486562346050000016990283957852899001_" d="M198.7,104.5c-9.6,8.9-18.7,19.2-24.6,29.7
				c-12.5,22-13.5,53.6-9.8,77.6c2.6,16.6,13.9,39.7,8.4,56.6c-7.6,22.8-47.2,21.9-66.4,27.6c-17.8,5.2-34.6,18.1-43.7,33.8
				c-27.8,48.2,5.6,74.1,22.4,95.7c19,24.5-22.4,54.2,1.4,78.6c24.9,25.6,54.8,36.2,104.6,36.2c98.5,0,120.6,7.4,257.2-1.9
				c25.9-1.8,60.3-7.4,86.2-10c38.9-4,134.9-36.2,109.9-97.3c-18.6-45.1-115.9-38.2-83.2-99.9c21.3-40.4,61.5-96.5,11.5-132.1
				c-36.2-25.9-59.4-40.8-80.4-79.9c-23-42.9-55.3-66.1-106.2-70.2c-27.5-2.2-55.4-2-82.4,3.8c-33,7.1-65.6,20.8-92,41
				C207.1,97.1,202.8,100.7,198.7,104.5z"/>
		</defs>
		<clipPath id="SVGID_00000106129378103410282740000005904311903604221112_">
			<use xlink:href="#SVGID_00000092421323486562346050000016990283957852899001_"  style="overflow:visible;"/>
		</clipPath>
	</g>
</g>
</svg>
