<?xml version="1.0" encoding="utf-8"?>
<!-- Generator: Adobe Illustrator 26.0.1, SVG Export Plug-In . SVG Version: 6.00 Build 0)  -->
<svg version="1.1" id="Layer_1" xmlns="http://www.w3.org/2000/svg" xmlns:xlink="http://www.w3.org/1999/xlink" x="0px" y="0px"
	 viewBox="0 0 700 634" style="enable-background:new 0 0 700 634;" xml:space="preserve">
<style type="text/css">
	.st0{fill:#A5E0DC;}
	.st1{fill:#81CCC6;}
	.st2{fill:#00747D;}
	.st3{fill:#FFFFFF;}
	.st4{fill:#060534;}
	.st5{fill:#141312;}
	.st6{fill:#E09A61;}
	.st7{fill:#EFEFEF;}
	.st8{fill:#890804;}
	.st9{fill:#C6C6C6;}
	.st10{fill:#CC936D;}
	.st11{fill:#AF7151;}
	.st12{fill:#513328;}
	.st13{fill:#C48C66;}
	.st14{fill:#AF1919;}
	.st15{fill:#FFAD42;}
	.st16{fill:#FB8E21;}
	.st17{fill:#4F352D;}
	.st18{opacity:0.15;}
	.st19{fill:#D3905E;}
	.st20{fill:#C47947;}
</style>
<g>
	<path class="st0" d="M501.7,90.3c9.4,10,18.2,21.7,24,33.5c12.2,24.9,13.2,60.5,9.5,87.7c-2.5,18.8-13.5,44.9-8.1,63.9
		c7.3,25.8,45.9,24.7,64.7,31.2c17.3,5.9,33.7,20.5,42.5,38.3c27.1,54.5-5.5,83.7-21.8,108c-18.5,27.7,21.8,61.2-1.3,88.8
		c-24.2,28.9-53.4,40.9-101.9,40.9c-96,0-117.5,8.3-250.5-2.1c-25.2-2-58.8-8.3-83.9-11.3c-37.9-4.5-131.4-41-107-109.9
		c18.1-51,112.9-43.2,81.1-112.9c-20.8-45.6-59.9-108.9-11.3-149.2c35.3-29.3,57.9-46.1,78.3-90.3c22.4-48.4,53.9-74.7,103.4-79.3
		c26.8-2.5,54-2.3,80.3,4.4c32.1,8.1,63.9,23.5,89.6,46.4C493.5,81.9,497.7,86,501.7,90.3z"/>
	<g>
		<path class="st1" d="M166.7,407c-0.4-5.2-0.5-10.3,0.4-15.5c1.9-10.7,6.9-21,13.5-29.7c6.2-8.1,12-13,20.5-18.9
			c11.6-8,26.3-9.9,40.1-10.7c10.7-0.7,21.6-0.5,32.4,0c4.1,0.2,8.2,0.5,12.3,0.8c1.8,0.1,3.5-0.3,5.2,0.4c-2.1,1-4.2,3-6,4.6
			c-4.8,4.3-8.4,10.6-12.2,15.7c-4.7,6.5-8.8,13.3-13.8,19.6c-8.9,11-22.2,20.4-36.5,22.6c-13,2-27.9-1.3-40,5.1
			c0,0-12.1,6.4-14,28.6L166.7,407z"/>
		<path class="st1" d="M143.2,342.5c-13.5-14.6-35.4-17.1-53-24.8c-11.6-5.1-24-12.7-31.7-23c2.7,13.9,0.8,28.9,2.5,43.2
			c1.5,13.1,7,24.7,16.6,33.9c18.2,17.5,47.8,11.7,64.5,31c7.7,8.8,10.4,22.4,13.2,32.6c0.1-10.9,1.3-23.8,1.4-27.7
			C156.6,407.6,162.2,362.9,143.2,342.5z"/>
		<path class="st2" d="M165.1,369.1c3.1-11.9,13.4-25.9,22.3-34.1c9.5-8.7,21.1-10.7,32.1-16.6c5.8-3.1,10.6-7.3,12.5-13.9
			c5.2-18.1-0.7-37.5-1.7-55.9c-0.6-10.3-1.3-19.9,2.2-29.4c-0.5,1.5-7.7,4.6-9.2,5.7c-2.8,2-5.6,4-8.4,5.9
			c-13.5,8.9-28.6,14.7-39.3,27.3c-9.2,10.9-15.3,24.9-18.4,38.7c-1.7,7.5-2.7,15.4-3,23c-0.4,10.3,0.9,21.5,3.4,31.5
			c2.3,9.3,2.2,23,3.9,32.3L165.1,369.1z"/>
		<path class="st3" d="M192.2,284.5c-5.7,12.9-11.5,26.7-16.3,40.1c-4.8,13.3-8.6,26.1-10.1,36.7l0,0c-3,19-3.1,39.7-3.1,59.7
			c0,7.7,0.8,127.7,0.8,134.6c0,0.8-0.6,1.5-1.5,1.5c-0.8,0-1.5-0.7-1.5-1.5c0-6.9-0.8-126.9-0.8-134.6c0-20,0-40.8,3.1-60.2
			l1.4,0.2l-1.4-0.2c1.6-10.9,5.4-23.9,10.2-37.3c4.8-13.4,10.7-27.4,16.4-40.3c0.3-0.7,1.2-1.1,1.9-0.7
			C192.2,282.9,192.6,283.8,192.2,284.5z"/>
		<path class="st3" d="M235.1,355.4c-10.9,1.7-22.9,4.6-33.4,9.7c-10.5,5.1-19.5,12.4-24.4,22.9c-3.2,6.7-5.6,15-6.5,22.3
			c-0.2,1.3-0.3,4.3-0.4,8.6c-0.3,12.8-0.4,36.8-0.4,61.2c0,34.3,0.2,69.3,0.2,75.2c0,0.8-0.7,1.5-1.5,1.5c-0.8,0-1.5-0.7-1.5-1.5
			c0-5.9-0.2-40.9-0.2-75.2c0-16.3,0-32.3,0.2-45.1c0.1-6.4,0.1-11.9,0.3-16.2c0.1-4.3,0.2-7.3,0.4-8.8c0.9-7.7,3.5-16.2,6.8-23.2
			c5.4-11.3,14.9-19,25.8-24.3c10.9-5.3,23.2-8.2,34.2-10c0.8-0.1,1.5,0.4,1.7,1.2C236.4,354.5,235.9,355.3,235.1,355.4L235.1,355.4
			z"/>
		<path class="st3" d="M153.7,555.6c0-4.4,0-16.9,0-33c0-21.3-0.1-48.8-0.5-72.5c-0.2-11.8-0.5-22.7-0.8-31.3c-0.2-4.3-0.4-8-0.6-11
			c-0.2-3-0.5-5.3-0.8-6.6c-3.4-15.8-11-30.2-22.9-41.6c-11.9-11.4-28.2-19.8-48.9-23.6c-0.8-0.1-1.3-0.9-1.2-1.7
			c0.1-0.8,0.9-1.3,1.7-1.2c21.2,3.9,38,12.6,50.3,24.4c12.4,11.8,20.3,26.8,23.8,43.1c0.3,1.6,0.6,3.9,0.9,7
			c0.9,10.7,1.3,30.1,1.6,51.6c0.3,21.4,0.3,44.9,0.3,63.5c0,16.1,0,28.6,0,33c0,0.8-0.6,1.5-1.5,1.5
			C154.4,557.1,153.7,556.4,153.7,555.6z"/>
	</g>
	<g>
		<path class="st2" d="M220.8,528.3c-5-0.5-10,1.4-9.5,7.1c-11.8-4.4-19.8,6.4-19.8,14.3h287.2c11.3-13.4-8-38.7-21.9-31.7
			c2.4-8.8-6.1-14.5-11.6-12c0.7,0.5-3-11.9-14.6-7.1c0.3-12.2-9.8-15.6-19.1-9.7c-1.2-10.1-15.5-19.2-22.1-7.9
			c0.2-15.3-20-17.7-22.9-2.4c-4.2-4.5-9.9-1.1-10.5,4.4c-3.7-5-8-4.4-11.4,0.2c10-25.2-28.2-32.8-29.8-9.6
			c-5.9-9.8-18.8-3.7-16.4,5.8c-5.5-4.9-14-2.5-13,5.9c-7.6-8.1-27-8.5-28.3,8.5c-4.5-4.9-10.5-3.5-11.7,3.4c-6.7-0.8-12,2-10.6,9.4
			c-3.1,0.2-7.5-0.1-8.6,7.5C226.3,514.7,215.9,517.2,220.8,528.3z"/>
		<path class="st2" d="M600.3,549.7c5.1-19.6-24.5-30.5-32.5-11.2c0.4-7.2,2.8-15.2-5.9-19.3c-8.7-4.1-15.2,3.1-18.9,9.3
			c9.9-16.7,5.6-37.6-17.3-43.2c-24.4-6-36.4,6.5-37,31.8c-1.7-11.6-23-14.1-24.2,2.4c-8.9-3.1-10.3-11.9-22.9-10.8
			c-11.1,1-16.3,8.1-20.5,18c0,0-25.4,0.9-19.5,23.2H600.3z"/>
	</g>
	<path class="st1" d="M86.7,564.5c0,18.4,122.7,33.3,274.2,33.3c151.4,0,274.2-14.9,274.2-33.3c0-18.4-122.7-33.3-274.2-33.3
		C209.5,531.3,86.7,546.2,86.7,564.5z"/>
	<g>
		<g>
			<g>
				<g>
					<path class="st4" d="M469,297.8L469,297.8l-3.8-26c-0.1-0.8-0.8-1.4-1.6-1.5l-18-2.1l-0.5,0.1l-0.3,0l0,0l-0.3,0l-0.4,0.1
						l-0.2,0l-0.3,0.3l-0.2,0.3c0,0.1-0.1,0.2-0.1,0.3l0,0c0,0.1,0,0.2,0,0.3c0,0.1,0,0.1,0,0.2l3.7,25.1c-1,0.3-1.9,0.8-2.8,1.4
						c-2.5,2-3.5,4.8-2.3,6.3c1.3,1.5,4.2,1.1,6.6-1c2.5-2.1,3.6-4.8,2.3-6.3l0,0l-2.6-17.9l14.3,1.7l2.6,17.9
						c-1,0.3-1.9,0.8-2.8,1.4c-2.5,2-3.6,4.8-2.3,6.3c1.3,1.5,4.2,1.1,6.6-1C469.5,301.7,470.2,299.3,469,297.8z"/>
				</g>
				<path class="st4" d="M534.5,258.2L534.5,258.2l-1.5-23c0-0.7-0.6-1.3-1.3-1.4l-15.6-3.1l-0.4,0l-0.2,0l0,0l-0.2,0l-0.4,0l-0.2,0
					l-0.3,0.2l-0.2,0.2c0,0.1-0.1,0.2-0.1,0.3l0,0c0,0.1,0,0.1,0,0.2c0,0.1,0,0.1,0,0.2l1.5,22.2c-0.9,0.2-1.7,0.6-2.5,1.1
					c-2.3,1.6-3.4,3.9-2.4,5.3c1,1.4,3.6,1.2,5.9-0.4c2.3-1.6,3.4-3.9,2.4-5.3l0,0l-1.1-15.8l12.4,2.5l1.1,15.8
					c-0.9,0.2-1.7,0.6-2.5,1.1c-2.3,1.6-3.4,3.9-2.4,5.3c1,1.4,3.6,1.2,5.9-0.4C534.6,261.7,535.4,259.6,534.5,258.2z"/>
				<path class="st4" d="M472.5,238c-0.8-0.6-1.9-0.5-2.5,0.3c-0.4,0.6-0.5,1.3-0.2,1.9l10.8,23c-0.9,0.6-1.6,1.3-2.2,2.2
					c-1.8,2.6-2,5.6-0.4,6.7c1.6,1.1,4.3-0.2,6.1-2.8c1.8-2.7,2-5.6,0.4-6.7l0,0l-8.6-18.3c1.4,0.6,9.9,4.3,11.2,7.2
					c0.5,0.8,1.6,1.1,2.4,0.7c0.9-0.5,1.2-1.6,0.7-2.5c0,0,0,0,0,0C488.4,245.9,475,240,472.5,238z"/>
				<path class="st4" d="M577,190c-0.8-0.6-1.9-0.5-2.5,0.3c-0.4,0.6-0.5,1.3-0.2,1.9l10.8,23c-0.9,0.6-1.6,1.3-2.2,2.2
					c-1.8,2.6-2,5.6-0.4,6.7c1.6,1.1,4.3-0.2,6.1-2.8c1.8-2.7,2-5.6,0.4-6.7l0,0l-8.6-18.3c1.4,0.6,9.9,4.3,11.2,7.2
					c0.5,0.8,1.6,1.1,2.4,0.7c0.9-0.5,1.2-1.6,0.7-2.5c0,0,0,0,0,0C592.9,197.9,579.5,192,577,190z"/>
				<path class="st4" d="M500.5,195.7c0-1-0.8-1.8-1.8-1.8c-0.7,0-1.3,0.4-1.6,1.1l-11,22.9c-1-0.3-2-0.4-3.1-0.4
					c-3.2,0.2-5.6,2-5.4,3.9c0.2,1.9,2.8,3.2,6,2.9c3.2-0.3,5.6-2,5.4-3.9l0,0l8.7-18.2c0.4,1.4,2.9,10.4,1.5,13.2
					c-0.3,0.9,0.1,1.9,1,2.3c0.9,0.4,2-0.1,2.3-1c0,0,0,0,0,0C504.4,213,500.6,198.9,500.5,195.7z"/>
				<path class="st4" d="M573.1,241.5c0-1-0.8-1.8-1.8-1.8c-0.7,0-1.3,0.4-1.6,1.1l-11,22.9c-1-0.3-2-0.4-3.1-0.4
					c-3.2,0.2-5.6,2-5.4,3.9c0.2,1.9,2.8,3.2,6,2.9c3.2-0.3,5.6-2,5.4-3.9l0,0l8.7-18.2c0.4,1.4,2.9,10.4,1.5,13.2
					c-0.3,0.9,0.1,1.9,1,2.3c0.9,0.4,2-0.1,2.3-1c0,0,0,0,0,0C577.1,258.8,573.2,244.7,573.1,241.5z"/>
				<g>
					<path class="st4" d="M542.7,198.1L542.7,198.1l9.7-24.4c0.3-0.8,0.1-1.6-0.6-2.1l-14.5-10.9l-0.4-0.2l-0.2-0.1l0,0l-0.2-0.1
						l-0.4-0.2l-0.2-0.1l-0.4,0.1l-0.3,0.2c-0.1,0.1-0.2,0.1-0.3,0.2l0,0c0,0.1-0.1,0.2-0.1,0.2c0,0.1-0.1,0.1-0.1,0.2l-9.4,23.6
						c-1-0.2-2.1-0.3-3.1-0.1c-3.1,0.5-5.5,2.4-5.1,4.3c0.4,1.9,3,3,6.2,2.5c3.2-0.5,5.5-2.4,5.1-4.3l0,0l6.7-16.8l11.5,8.6
						l-6.7,16.8c-1-0.2-2.1-0.3-3.1-0.1c-3.1,0.5-5.5,2.4-5.1,4.3c0.4,1.9,3,3,6.2,2.5C541.2,201.7,543,200,542.7,198.1z"/>
				</g>
			</g>
		</g>
	</g>
	<g>
		<g>
			<path class="st5" d="M393.8,557.5c-5.1,5.6-3,16.1,4,19.2c17.3,7.9,36.1,12.3,55,12.9c5.9,0.2,10.6-5.9,10.3-11.8
				c-0.3-5.9-4.6-10.9-9.7-13.8c-5.1-2.9-11-3.9-16.9-4.7c-5.8-0.8-11.7-1.6-17.1-4C411.1,551.6,399.6,551.2,393.8,557.5
				L393.8,557.5z"/>
			<path class="st6" d="M380.5,568c50.5,19.8,61.1,15.7,63.8,11.7c1.7-2.6,0.8-6.4,0.7-6.8c-2.2-8.3-16.3-11.7-33-15.7
				c-6.2-1.5-6.4-2.1-11.9-2.7c-4.1-0.4-8.2-0.9-11.9-2.4c-3.5-1.4-7.4,1.7-8.4,5.3C378.7,560.9,379.9,564.7,380.5,568z"/>
			<path class="st5" d="M346.3,552.7c5.1,5.6,3,16.1-4,19.2c-17.3,7.9-36.1,12.3-55,12.9c-5.9,0.2-10.6-5.9-10.3-11.8
				c0.3-5.9,4.6-10.9,9.7-13.8c5.1-2.9,11-3.9,16.9-4.7c5.8-0.8,11.7-1.6,17.1-4C329,546.8,340.6,546.4,346.3,552.7L346.3,552.7z"/>
			<path class="st6" d="M359.6,563.2c-8.1,3.6-47.4,20.6-55.8,9.7c-1.2-1.6-2.2-4.4-1.7-6.9c1.6-7.3,14.9-10.7,26-13.6
				c5.8-1.5,5.9-2,11.9-2.7c4.1-0.4,8.2-0.9,11.9-2.4c3.5-1.4,7.4,1.7,8.4,5.3C361.4,556.2,360.2,560,359.6,563.2z"/>
		</g>
		<path class="st3" d="M272.3,565.4c8.8-2.9,23.5-6.7,41.5-6c30.7,1.3,37.8,14.4,64.2,12c19.7-1.8,23.7-9.9,44.7-9.6
			c14.5,0.2,26.3,4.3,33.9,7.6c9.3-2.4,28.3-8.8,43.1-26.3c6-7.2,15.8-18.9,15.1-35.2c-0.2-3.7-0.7-14.5-8.3-22.6
			c-11.4-11.9-34-13.1-48.7-9.2c-6,1.6-10.7,3-16.1,2.9c-3,0-5.3-0.6-7.1-0.9c-4.4-0.9-11.1-2.8-18.7-7.1
			c-1.1-21.1-2.2-42.2-3.3-63.3c-28.2-0.9-56.4-1.8-84.6-2.7c-1.2,22.2-2.5,44.5-3.7,66.7c-2.9,3.7-7.9,8.8-15.3,10.9
			c-9.8,2.8-15.1-1.6-30.1-3c-6.5-0.6-18.2-1.7-26.9,4.4c-13.5,9.3-12.8,30.6-12.6,34.3C241.1,547.2,269.1,563.6,272.3,565.4z"/>
		<g>
			<path class="st7" d="M295,492.3c-1.4,1.7-3.2,4.4-3.9,7.9c-3.3,16.4,21.1,32.8,21.3,32.5c0.2-0.2-15.9-11-18-29.2
				C294,499.1,294.4,495.3,295,492.3z"/>
			<path class="st7" d="M471.8,492.3c1.4,1.7,3.2,4.4,3.9,7.9c3.3,16.4-21.1,32.8-21.3,32.5c-0.2-0.2,15.9-11,18-29.2
				C472.9,499.1,472.5,495.3,471.8,492.3z"/>
			<path class="st7" d="M317.2,481c0.3-0.6,7,1.1,12.1,6.2c4.8,4.9,3.4,8.1,7.6,12.6c6.6,7.3,17,6.4,16.8,7.6
				c-0.1,1.2-10.2,3.8-16.8-1.1c-5.7-4.2-3.5-10.1-10.7-18C321.6,483.3,316.9,481.5,317.2,481z"/>
			<path class="st7" d="M435.3,481c-0.3-0.6-7,1.1-12.1,6.2c-4.8,4.9-3.4,8.1-7.6,12.6c-6.6,7.3-17,6.4-16.8,7.6
				c0.1,1.2,10.2,3.8,16.8-1.1c5.7-4.2,3.5-10.1,10.7-18C430.8,483.3,435.5,481.5,435.3,481z"/>
			<path class="st7" d="M342.3,482.7c13-1.6,19.2,2.2,41.2,5.3c8.1,1.1,16.4,1.9,20.2-2.5c0.9-1.1,1.5-2.4,3.5-4
				c4.1-3.4,8.7-3.9,10-4c0.9-0.1,4.8-0.4,5.1,0.4c0.3,1.1-6.2,2.9-15.2,7.7c-7.2,3.9-6.8,4.7-10.4,6.3c-7.1,3.1-13.6,2-26.4-0.4
				c-14.3-2.7-16.1-5.4-27.8-6c-4.5-0.2-9.5-0.1-9.5-0.7C333,484.2,338.6,483.2,342.3,482.7z"/>
		</g>
		<g>
			<polygon class="st8" points="323.6,383.5 336.4,301.4 338.8,276.3 387.8,273 393.6,300.3 420,377 			"/>
			<path class="st9" d="M343.3,351c8.2,7.3,16.4,14.6,24.6,21.9c8.8-7.3,17.6-14.6,26.4-21.9c-6.6-1.8-15.9-3.5-26.9-3.4
				C357.7,347.7,349.5,349.3,343.3,351z"/>
			<path class="st3" d="M442.1,390.1c-0.1-0.5-0.4-3.9-1.7-8.2c-0.7-2.3-1.4-4.1-1.9-5.1c-1.6-2-3.3-4-5.4-5.9
				c-12.9-12.3-29-15.3-38.1-16.1c-8.7,4.7-17.5,9.3-26.2,14c-3.3-3.4-11.7-11.1-23.8-12.2c-5.9-0.6-11.1,0.5-13,1
				c-5,1.1-8.8,3-16.1,6.7c-3.4,1.7-7.4,3.8-11.8,6.4c-0.5,0.6-1.2,1.4-2,2.5c-6.7,9.1-6.3,16.3-9.4,35.6c-2.5,15.3-4.3,20.5-1.1,28
				c1.1,2.7,2.5,4.7,3.5,6c39.3-5.7,78.7-11.5,118-17.2c2.8,4,5.7,7.9,8.5,11.9c4.9,7.6,13.7,11.6,22.5,10.4
				c8.4-1.2,15.4-7,18.3-15.1C447.3,405.1,442.6,394,442.1,390.1z"/>
			<path class="st10" d="M400.2,358.2c-10.3,3.4-20.6,6.9-30.9,10.3c-10.6-3.4-21.3-6.7-31.9-10.1c4.7-3,9.3-6,14-9.1
				c1.6-6.8,3.2-13.6,4.8-20.4c8.7,0,17.4,0,26,0c1.2,6.7,2.4,13.5,3.6,20.2C390.6,352.1,395.4,355.2,400.2,358.2z"/>
			<path class="st10" d="M390.9,298.2c0,1.4-0.2,5.6-0.6,14.1c-0.2,4.7-0.4,8.6-0.6,11.2c-1.7,4.1-5.4,11.5-12.9,16.4
				c-4.6,3-8,3.3-8.8,3.4c-4.4,0.3-7.8-1.3-10.1-2.6c-8.1-4.6-12.3-11.1-14.3-14.9c-0.4-1.9-1-4.8-1.6-8.3c-0.8-4.1-2.3-12-2.8-15.7
				c-0.9-7-2.8-20.7,5.6-29.9c6.7-7.3,15.9-8.2,17.9-8.3c2-0.1,11.5-0.6,19.1,5.8C391.1,277.2,390.9,291,390.9,298.2z"/>
			<g>
				<path class="st11" d="M372.6,323.8c0,1.1-3.2,2.1-5.8,2.3c-2.6,0.2-5.9-0.5-6-1.6c-0.1-1,2.8-2.4,5.5-2.6
					C369.3,321.6,372.6,322.8,372.6,323.8z"/>
			</g>
			<path class="st11" d="M369.6,311.9c-0.4,0.4-1.4,1.3-3,1.5c-2.2,0.3-3.8-0.9-4.2-1.1c1.4-0.1,2.8-0.1,4.2-0.2
				C367.6,312.1,368.6,312,369.6,311.9z"/>
			<path class="st3" d="M341.2,352.2l-12.4,7.1c7.8,9.6,15.6,19.3,23.3,28.9c11,0.1,22.1,0.2,33.1,0.3c6.7-10.4,13.4-20.7,20.1-31.1
				c-3.2-1.6-6.4-3.2-9.7-4.8c-4.4,1.7-9.3,3.8-14.4,6.4c-4.6,2.4-8.7,4.8-12.4,7.2c-3.4-2.3-7.2-4.6-11.4-6.8
				C351.6,356.3,346.1,354,341.2,352.2z"/>
			<g>
				<g>
					<path class="st3" d="M358.3,300.7c-2.2-3-5.5-4.3-8.4-3.5c-3,0.9-4.4,3.7-4.6,4.3c1.2,0.6,3.4,1.5,6.2,1.5
						C354.8,302.9,357.2,301.5,358.3,300.7z"/>
					<g>
						<path class="st12" d="M349.2,300.6c0.2,1.5,1.6,2.5,3.1,2.3c1.5-0.2,2.5-1.6,2.3-3.1c-0.2-1.5-1.6-2.5-3.1-2.3
							C350,297.7,349,299.1,349.2,300.6z"/>
						<path d="M350.5,300.5c0.1,0.8,0.9,1.4,1.7,1.3c0.8-0.1,1.4-0.9,1.3-1.7c-0.1-0.8-0.9-1.4-1.7-1.3
							C351,298.9,350.4,299.7,350.5,300.5z"/>
						<path class="st3" d="M349.8,299.8c0,0.3,0.4,0.6,0.7,0.5s0.6-0.4,0.5-0.7s-0.4-0.6-0.7-0.5C350,299.2,349.8,299.5,349.8,299.8
							z"/>
					</g>
					<path d="M358.2,300.6c-0.2-0.2-3.4-3.4-7.7-2.4c-3,0.7-4.6,3-5,3.5c-0.1,0-0.2-0.1-0.3-0.1c-0.1,0-0.1,0-0.2-0.1
						c1.1-2.9,3.8-4.8,6.8-4.8C354.4,296.7,356.9,298.2,358.2,300.6z"/>
				</g>
				<g>
					<path class="st3" d="M372.2,299.7c1.8-3.2,5-4.9,8-4.4c3,0.5,4.7,3.2,5.1,3.8c-1.1,0.7-3.2,1.9-6,2.1
						C375.9,301.5,373.4,300.3,372.2,299.7z"/>
					<g>
						<path class="st12" d="M381.2,298.6c-0.1,1.5-1.3,2.7-2.9,2.7c-1.5-0.1-2.7-1.3-2.7-2.9c0.1-1.5,1.3-2.7,2.9-2.7
							C380.1,295.8,381.3,297.1,381.2,298.6z"/>
						<path d="M379.9,298.7c0,0.8-0.7,1.5-1.6,1.5c-0.8,0-1.5-0.7-1.5-1.6c0-0.8,0.7-1.5,1.6-1.5
							C379.2,297.2,379.9,297.9,379.9,298.7z"/>
						<path class="st3" d="M380.5,297.9c0,0.3-0.3,0.6-0.6,0.6c-0.3,0-0.6-0.3-0.6-0.6c0-0.3,0.3-0.6,0.6-0.6
							C380.3,297.3,380.5,297.6,380.5,297.9z"/>
					</g>
					<path d="M372.2,299.6c0.2-0.2,3-3.8,7.4-3.3c3.1,0.3,4.9,2.4,5.3,2.9c0.1,0,0.2-0.1,0.3-0.1c0.1,0,0.1-0.1,0.2-0.1
						c-1.4-2.7-4.3-4.3-7.3-4C375.6,295.3,373.3,297.1,372.2,299.6z"/>
				</g>
				<path d="M356.3,291.7c-0.7-0.3-2.8-1-5.8-1.1c-4.2-0.2-6.7,1-7.2,1.4c-0.7,0.5-1.2,1.1-1.2,1.1c-0.4,0.5-0.6,1-0.9,1.6
					c-0.3,0.7-0.6,1.7-1,2.8c0.1-0.1,0.3-0.2,0.4-0.4c0,0,0.8-0.7,1.7-1.2c3.4-1.9,8.2-2,8.2-2c3.1,0,5.7,0.6,7.5,1.3
					c0.2-0.1,0.7-0.5,0.9-1.2c0.1-0.4,0.1-0.7,0.1-0.9C358.4,292.6,357.5,292.1,356.3,291.7z"/>
			</g>
			<g>
				<path d="M372.5,290.6c0.7-0.4,2.7-1.4,5.6-1.9c4.1-0.7,6.8,0.1,7.3,0.4c0.8,0.4,1.3,0.9,1.3,0.9c0.5,0.4,0.7,0.9,1.1,1.5
					c0.4,0.7,0.9,1.6,1.4,2.7c-0.1-0.1-0.3-0.2-0.5-0.3c0,0-0.9-0.6-1.9-1c-3.6-1.5-8.4-0.9-8.4-0.9c-3.1,0.4-5.5,1.4-7.3,2.3
					c-0.2-0.1-0.8-0.4-1.1-1.1c-0.2-0.4-0.2-0.7-0.2-0.9C370.6,291.8,371.4,291.2,372.5,290.6z"/>
			</g>
			
				<rect x="365.5" y="315.3" transform="matrix(0.9977 -6.713464e-02 6.713464e-02 0.9977 -20.4768 25.3128)" class="st13" width="1.8" height="4.1"/>
			<path class="st9" d="M405.3,357.4c-10.4,5.4-20.8,10.7-31.2,16.1v59.7l-5.2,4.9l0-74.3c4.7-3.2,10.4-6.5,16.9-9.4
				c3-1.3,5.9-2.5,8.6-3.5C398,353.1,401.6,355.3,405.3,357.4z"/>
			<path class="st9" d="M331.9,357.5l31.7,16v59.7l5.2,4.9l0-74.3c-4.7-3.2-10.4-6.5-16.9-9.4c-3-1.3-5.9-2.5-8.6-3.5
				C339.5,353.1,335.7,355.3,331.9,357.5z"/>
			<path d="M366.2,314.8c-0.1,0-0.1,0-0.2,0c-2.4,0.2-11.1,0.8-13.8,6.5c-0.3,0.7-1.1,1.8-1.4,4c-0.4,2.2-0.3,5.5,0.8,10.8
				c5.3,6.5,11.1,9.5,16.6,9.1c5.5-0.4,10.9-4.1,15.2-11.3c0.4-5.4,0-8.7-0.6-10.9c-0.6-2.1-1.5-3.1-1.9-3.8
				c-3.5-5.3-12.1-4.8-14.5-4.6C366.3,314.8,366.3,314.8,366.2,314.8z M364.7,327.3c-0.2,0.6-0.7,2.2-2.3,3c0,0-2.3,1.2-5.5-0.5
				c0,0,0,0,0,0c-2.6-1.4-2.9-4.6-0.9-6.8c0.8-0.9,1.8-1.3,2.3-1.5c2.2-0.9,5.3-1.3,8.2-1.5c3-0.2,6.1-0.2,8.4,0.4
				c0.5,0.1,1.5,0.4,2.5,1.2c2.3,1.8,2.5,5.1,0,6.8c0,0,0,0,0,0c-3,2-5.4,1.2-5.4,1.2c-1.5-0.6-2.3-2-2.6-2.5
				C367.9,327.2,366.3,327.2,364.7,327.3z"/>
			<g>
				<path class="st14" d="M308.8,362.3c-0.1,0.4-0.1,0.8-0.2,1.2l0.1-0.9L308.8,362.3z"/>
			</g>
			<g>
				<path class="st14" d="M435.7,391.2c-0.3-0.5-0.8-1.1-1.5-1.7c0,0-0.3-0.2-0.7-0.5c-0.3-0.2-0.8-0.5-1.2-0.7
					c-4.7-1.9-11.8-0.3-11.8-0.3c-2.4,0.6-5.8,1.5-9.7,3.3c-1.9,0.9-4,1.9-6.1,3.1c0-0.9,0-1.8-0.1-2.7c-0.4-10.6-1.7-19.1-2.8-25.2
					c-0.7-3.9-1.2-5.8-5-21.8c-3.4-14.4-5.2-21.7-5.2-22c-1.3-9.2-2.9-30.8-4.6-42.4c-0.2-1.2-0.5-2.9-1.8-4
					c-3.1-2.3-7.3,2.2-14.8,1.5c-4.6-0.4-4.7-2.2-9.1-2.1c-3.6,0.1-4.4,1.4-9.1,2.1c-5.6,0.9-7.2-0.5-9,0.3c-4,1.7-1.9,26-1.4,32
					c1.6,18.5,0.1,32.9-2.7,61.7c-1,9.7-2.1,17.8-3,23.7c-0.1,0.9-0.3,1.8-0.4,2.7c-0.5-0.1-6-1.7-10.1-2.2c-0.4,0-0.8-0.1-1.1-0.1
					c-2.6-0.2-4.6,0.2-6,0.4c-4.8,0.9-11.4,3.6-11.7,3.7c-1.9-13.6-0.7-24.6,0.6-31.5c1.9-10.2,5.3-18.2,7-22.4
					c2-4.8,4-8.7,5.6-11.6l12.5-35.6c3-17.4,1.5-27.7,10.8-35.8c1.6-1.4,3.2-2.5,4.8-3.4c4.3-2.6,8.4-3.5,10.2-3.9
					c2.9-0.6,9.2-1.9,16.2,0.8c0.5,0.2,0.9,0.4,1.3,0.6c0,0,0,0,0,0c1.5,0.5,3.1,1.2,4.6,2.1c11.7,6.7,11.7,18.7,19.8,38.7
					c10.3,25.5,23.1,38.4,31.4,58.5c0,0.1,0,0.1,0.1,0.2C438.3,372.8,438.1,383.7,435.7,391.2z"/>
				<path d="M388.5,264.9l-51.7,3.5c-1.5,0.1-2.8-1-2.9-2.5l0,0c-0.1-1.5,1-2.8,2.5-2.9l51.7-3.5c1.5-0.1,2.8,1,2.9,2.5l0,0
					C391.1,263.5,390,264.8,388.5,264.9z"/>
				<path d="M391,270.1l-55.9,3.8c-1.5,0.1-2.8-1-2.9-2.5l0,0c-0.1-1.5,1-2.8,2.5-2.9l55.9-3.8c1.5-0.1,2.8,1,2.9,2.5l0,0
					C393.6,268.7,392.4,270,391,270.1z"/>
			</g>
		</g>
		<g>
			<g>
				<g>
					<polygon class="st15" points="443.5,325 372.8,332.2 372.2,326.8 442.9,319.6 					"/>
					<polygon class="st16" points="447.5,324.6 443.5,325 443.4,324 442.9,319.6 446.9,319.2 					"/>
					<path class="st16" d="M352.2,330.5l9.7,0.2l0.4,0.8c1.5,1.8,4.6,1.2,7,1l3.4-0.3l-0.5-5.4l-20.1,2L352.2,330.5z"/>
					<path class="st17" d="M383.3,327.1c0,0.4-1,0.8-2.4,0.9c-1.3,0.1-2.5-0.1-2.5-0.4c0-0.4,1-0.8,2.4-0.9
						C382.1,326.6,383.3,326.7,383.3,327.1z"/>
					<path class="st17" d="M394,326c0,0.4-1,0.8-2.4,0.9c-1.3,0.1-2.5-0.1-2.5-0.4c0-0.4,1-0.8,2.4-0.9
						C392.9,325.5,394,325.7,394,326z"/>
					<path class="st17" d="M404.8,324.9c0,0.4-1,0.8-2.4,0.9c-1.3,0.1-2.5-0.1-2.5-0.4c0-0.4,1-0.8,2.4-0.9
						C403.6,324.4,404.8,324.6,404.8,324.9z"/>
					<path class="st17" d="M415.5,323.9c0,0.4-1,0.8-2.4,0.9c-1.3,0.1-2.5-0.1-2.5-0.4c0-0.4,1-0.8,2.4-0.9
						C414.4,323.3,415.5,323.5,415.5,323.9z"/>
					<path class="st17" d="M426.3,322.8c0,0.4-1,0.8-2.4,0.9c-1.3,0.1-2.5-0.1-2.5-0.4c0-0.4,1-0.8,2.4-0.9
						C425.1,322.2,426.3,322.4,426.3,322.8z"/>
					<path class="st17" d="M437,321.7c0,0.4-1,0.8-2.4,0.9c-1.3,0.1-2.5-0.1-2.5-0.4c0-0.4,1-0.8,2.4-0.9
						C435.9,321.1,437,321.3,437,321.7z"/>
					<path class="st18" d="M447.5,324.6l-4,0.4l-70.7,7.2l-3.4,0.3c-2.3,0.2-5.5,0.9-7-1l-0.4-0.8l1-0.1l9.7,0.5l70.7-7.2l4-0.4
						L447.5,324.6z"/>
				</g>
				<g>
					<path class="st19" d="M449.4,328.3c-0.3,0.9-1.3,1.3-2.3,1.7c-0.3,0.1-0.6,0.2-0.8,0.3c-2.2,0.9-3.5,2.9-4.5,5c0,0,0,0,0,0
						c-0.4,0.8-0.7,1.6-0.9,2.4l-0.1,0.3l0,0.1c-0.9,2.4-2.8,4.4-4.7,6c-0.1,0.1-0.3,0.2-0.4,0.3c-0.2,0.2-0.7,0.6-0.7,0.7
						c0,0,0,0,0,0c0,0,0,0.1,0,0.3c0,0,0,0,0,0.1c0,0.3,0.1,1,0.1,1.7c0.1,1.9,0.3,4.7,0.4,6c0,0,0,0.1,0,0.1c0,0.4,0.1,0.8,0.2,1.1
						c0,0,0,0,0,0c0,0.7,0,1.3,0,1.7c0,1.1,0.3,2.1,0.7,3.1l-15.2,6.4l0.1-6.5l0.1-5.1c0,0,0,0,0,0c-0.1-1.5-0.5-2.9-1-4.2
						c-0.3-0.8-0.7-1.6-1.1-2.4c-0.1-0.2-0.2-0.5-0.3-0.7c-0.2-0.4-0.4-0.8-0.5-1.1c-0.2-0.5-0.5-1-0.7-1.6
						c-1.6-4.2-3.2-8.6-2.8-12.9c0-0.1,0-0.1-0.1-0.2c-0.8-0.6-1.5-1.8-2.1-2.7c-0.1-0.2-0.2-0.4-0.3-0.5c-0.5-0.9-0.8-2.3,0-3.3
						c0.3-0.4,0.8-0.8,1.4-1c0,0,0.1,0,0.1,0c0,0,0,0,0.1,0c0.1,0,0.2-0.1,0.2-0.1c0.2-0.1,0.4-0.4,0.4-0.6c0,0,0-0.1,0-0.1
						c0,0,0,0,0,0c0-0.1,0-0.3,0.1-0.4c0.5-1.4,2.8-1.9,3.2-1.9c1-0.1,1.4-0.1,2.6,0.4c0,0,0,0,0.1,0c0,0,0.1,0,0.2,0.1
						c0.4,0,0.8-0.2,0.9-0.6c0-0.1,0.1-0.6,0.1-0.8c0.1-0.1,0.1-0.2,0.2-0.3c0.6-0.6,1.8-0.6,2.3-0.6c0.5,0,1,0.1,1.5,0.2
						c0.1,0,0.5,0,0.5-0.1c0.2-0.1,0.4-0.3,0.4-0.5c0-0.1,0.1-0.2,0.1-0.3c0,0,0-0.1,0-0.1c0,0,0,0,0,0c0-0.3,0-0.5,0-0.8
						c0.2-0.6,0.9-1,1.5-1.2c0.3-0.1,0.5-0.1,0.8-0.1c3.6-0.2,6.6,2.8,7.7,6c1.2,3.4,0.9,7.2,0.7,10.5c0,0.1,0.1,0.2,0.2,0.2
						c0.1,0,0.2,0,0.2-0.1c1.1-2.8,3.8-4.8,7.4-5.8c1.2-0.3,2.2-0.3,2.9,0C449,326.4,449.7,327.4,449.4,328.3z"/>
					<g>
						<path class="st20" d="M430.5,320.2c0.3,0.2,1.6,1.1,1.9,0.8c0.2-0.3-0.9-1.5-1.2-1.7c-1.5-1.1-4.4-1.7-4.5-1.6
							c-0.1,0.2-0.2,0.4-0.4,0.5C426.1,318.3,429.2,319.4,430.5,320.2z"/>
					</g>
					<g>
						<path class="st20" d="M422.7,321.8c0.3,0.2,0.7,0.3,1,0.5c0.3,0.2,0.7,0.4,1,0.6c0.7,0.4,1.7,0.9,1.8,0.8
							c0.3-0.2-0.7-1.2-1-1.5c-0.7-0.7-4-2.5-4-2.4c-0.1,0.4-0.5,0.6-0.9,0.6C420.5,320.4,422,321.4,422.7,321.8z"/>
					</g>
					<g>
						<path class="st20" d="M418.6,325.5c0.5,0.4,1.7,1.2,1.9,1c0.2-0.3-0.9-1.6-1.2-1.9c-1.3-1.2-4.9-2.2-4.9-2.1
							c0,0.3-0.2,0.5-0.4,0.6C413.9,323.2,417.2,324.5,418.6,325.5z"/>
					</g>
				</g>
			</g>
			<g>
				<path class="st19" d="M353.4,353.6c0,0-0.1,0-0.1,0.1c0.1,0,0.2-0.1,0.4-0.2C353.5,353.5,353.4,353.5,353.4,353.6z M406.3,328.5
					c-0.6-2.2-2.2-3-4.9-3.9c0.5-0.3,0.4-1.3,0-1.5c0,0-0.7-0.9-4.3-1.7c-8.6-1.7-13.5-0.9-16.8,1.3c-2.6,1.8-3.8,5-6.6,11.1
					c-0.8,1.8-1.4,3.3-1.7,4.4c-2.2,2.4-4.9,5-7.9,7.6c-3.7,3.2-7.3,5.7-10.5,7.8c1.2-0.5,4.8,0.4,15.3,6.4c2-3,4.8-6.7,8.6-10.3
					c2.5-2.4,5.1-4.3,7.3-5.8c5.4-6.5,6.4-8.9,15.8-7.1c3.2,0.2,1.9-1.9,0.6-3c2.5,0.9,6.8-0.1,2.6-3.6
					C404.5,330.6,406.5,329.5,406.3,328.5z M391.6,324.5c0.3-0.1,0.5-0.2,0.8-0.2c0.5-0.2,3.1-0.6,5.3-0.4c0.5,0.1,1,0.1,1.4,0.3
					c-1.2-0.1-2.2-0.1-3.3-0.1c0,0-0.1,0-0.1,0c-0.6,0-1.2,0.1-1.9,0.2c0,0,0,0,0,0c-1,0.1-2.1,0.4-3.4,0.7
					C390.6,324.8,391.1,324.7,391.6,324.5z M397.9,327.5c-3.3-0.5-6.1,0.2-7.6,0.8c2.1-1.4,7.3-1.4,9.2-0.6
					C398.7,327.5,398.1,327.5,397.9,327.5z"/>
				<path class="st20" d="M399.2,324.1c-1.2-0.1-2.2-0.1-3.3-0.1c0,0-0.1,0-0.1,0c-0.6,0-1.2,0.1-1.9,0.2c0,0,0,0,0,0
					c-1,0.1-2.1,0.4-3.4,0.7c0.3-0.1,0.8-0.3,1.3-0.5c0.3-0.1,0.5-0.2,0.8-0.2c0.5-0.2,3.1-0.6,5.3-0.4
					C398.2,323.9,398.7,324,399.2,324.1z"/>
				<path class="st20" d="M399.5,327.7c-0.8-0.1-1.4-0.2-1.6-0.2c-3.3-0.5-6.1,0.2-7.6,0.8C392.3,326.9,397.6,326.8,399.5,327.7z"/>
				<path class="st20" d="M399.5,332.9c-0.9-0.3-3.7-0.8-6.6-0.6C396.6,331.8,398.7,332.6,399.5,332.9z"/>
			</g>
		</g>
		<g>
			<path class="st7" d="M462.4,432.6c-2-18.1-5.5-38.3-11.2-59.9c-2.9-11.2-6.2-21.7-9.6-31.5c-9.2,2.5-18.4,5.1-27.7,7.6
				c3.4,21.9,6.6,44.4,9.3,67.4c1.1,8.8,2,17.6,2.9,26.2c1.2,1.3,6,6.3,13.6,6.7c7.8,0.4,13.3-4.3,15.5-6.3
				C459.5,439.2,461.5,435,462.4,432.6z"/>
		</g>
		<g>
			<path class="st7" d="M334.2,434.3c15.3-20.4,24.9-38.2,28-43.8c5.3-9.7,13.3-24,23.7-41.4c-7-4.3-14-8.5-21-12.8
				c-14.1,15.1-25.2,28.4-33.4,38.7c-6.9,8.7-4.4,6.1-15.3,20.3c-21.5,28-26.5,32.2-25.1,39.3c1.8,9.4,13.6,17.4,23.4,16.5
				C320.8,450.5,325.3,446.1,334.2,434.3z"/>
		</g>
	</g>
</g>
</svg>
