<?xml version="1.0" encoding="utf-8"?>
<!-- Generator: Adobe Illustrator 26.0.1, SVG Export Plug-In . SVG Version: 6.00 Build 0)  -->
<svg version="1.1" id="Layer_1" xmlns="http://www.w3.org/2000/svg" xmlns:xlink="http://www.w3.org/1999/xlink" x="0px" y="0px"
	 viewBox="0 0 852.1 570.1" style="enable-background:new 0 0 852.1 570.1;" xml:space="preserve">
<style type="text/css">
	.st0{fill:none;}
	.st1{fill:#EF5050;}
	.st2{fill:#A5E0DC;}
	.st3{fill:#FFFFFF;}
	.st4{fill:#606060;}
	.st5{fill:#99CCE0;}
	.st6{fill:#444951;}
	.st7{fill:#89909B;}
	.st8{fill:#FCA170;}
	.st9{fill:#CE8757;}
	.st10{fill:#A19AAD;}
	.st11{fill:#C0B8CF;}
	.st12{fill:#B5AEB0;}
	.st13{fill:#EA916A;}
	.st14{fill:#17140C;}
	.st15{fill:#E8E8E8;}
	.st16{fill:#754026;}
	.st17{fill:#FF9017;}
	.st18{fill:#FF3C00;}
	.st19{fill:#004345;}
	.st20{fill:#006370;}
	.st21{fill:#E5B19C;}
	.st22{fill:#A5A5A5;}
	.st23{fill:#BECCCA;}
	.st24{fill:#686B6B;}
	.st25{fill:#0D726E;}
	.st26{fill:#E6E6FF;}
	.st27{fill:#BFAD45;}
	.st28{fill:#6F7F87;}
	.st29{fill:#11B7AE;}
	.st30{fill:#BC2800;}
	.st31{fill:#D1DEE5;}
	.st32{fill:#576C7C;}
	.st33{clip-path:url(#SVGID_00000183935911204233854990000004529017881513602964_);}
	.st34{fill:#E2E2E2;}
	.st35{fill:url(#SVGID_00000003067280583544663270000009774257262156886952_);}
	.st36{fill:#E5E5E5;}
	.st37{fill:#08161C;}
	.st38{fill:#F28E62;}
	.st39{fill:#EA825E;}
	.st40{fill:#C1C1C1;}
	.st41{fill:#8A5D3B;}
	.st42{fill:#3B2314;}
	.st43{fill:#00747D;}
	.st44{fill:url(#SVGID_00000174592339226569428210000005582423448640654981_);}
	.st45{fill:none;stroke:#000000;stroke-width:5.103;stroke-linecap:round;stroke-linejoin:round;stroke-miterlimit:10;}
</style>
<pattern  y="570.1" width="45" height="38.6" patternUnits="userSpaceOnUse" id="New_Pattern_Swatch_2" viewBox="0 -38.6 45 38.6" style="overflow:visible;">
	<g>
		<rect y="-38.6" class="st0" width="45" height="38.6"/>
		<g>
			<rect x="0.2" y="-38.4" class="st1" width="3.2" height="3.2"/>
			<rect x="6.6" y="-38.4" class="st1" width="3.2" height="3.2"/>
			<rect x="12.9" y="-38.4" class="st1" width="3.2" height="3.2"/>
			<rect x="19.3" y="-38.4" class="st1" width="3.2" height="3.2"/>
			<rect x="25.7" y="-38.4" class="st1" width="3.2" height="3.2"/>
			<rect x="32.1" y="-38.4" class="st1" width="3.2" height="3.2"/>
			<rect x="38.4" y="-38.4" class="st1" width="3.2" height="3.2"/>
			<rect x="3.4" y="-35.2" class="st1" width="3.2" height="3.2"/>
			<rect x="9.8" y="-35.2" class="st1" width="3.2" height="3.2"/>
			<rect x="16.1" y="-35.2" class="st1" width="3.2" height="3.2"/>
			<rect x="22.5" y="-35.2" class="st1" width="3.2" height="3.2"/>
			<rect x="28.9" y="-35.2" class="st1" width="3.2" height="3.2"/>
			<rect x="35.2" y="-35.2" class="st1" width="3.2" height="3.2"/>
			<rect x="41.6" y="-35.2" class="st1" width="3.2" height="3.2"/>
			<rect x="0.2" y="-32" class="st1" width="3.2" height="3.2"/>
			<rect x="6.6" y="-32" class="st1" width="3.2" height="3.2"/>
			<rect x="12.9" y="-32" class="st1" width="3.2" height="3.2"/>
			<rect x="19.3" y="-32" class="st1" width="3.2" height="3.2"/>
			<rect x="25.7" y="-32" class="st1" width="3.2" height="3.2"/>
			<rect x="32.1" y="-32" class="st1" width="3.2" height="3.2"/>
			<rect x="38.4" y="-32" class="st1" width="3.2" height="3.2"/>
			<rect x="3.4" y="-28.8" class="st1" width="3.2" height="3.2"/>
			<rect x="9.8" y="-28.8" class="st1" width="3.2" height="3.2"/>
			<rect x="16.1" y="-28.8" class="st1" width="3.2" height="3.2"/>
			<rect x="22.5" y="-28.8" class="st1" width="3.2" height="3.2"/>
			<rect x="28.9" y="-28.8" class="st1" width="3.2" height="3.2"/>
			<rect x="35.2" y="-28.8" class="st1" width="3.2" height="3.2"/>
			<rect x="41.6" y="-28.8" class="st1" width="3.2" height="3.2"/>
			<rect x="0.2" y="-25.7" class="st1" width="3.2" height="3.2"/>
			<rect x="6.6" y="-25.7" class="st1" width="3.2" height="3.2"/>
			<rect x="12.9" y="-25.7" class="st1" width="3.2" height="3.2"/>
			<rect x="19.3" y="-25.7" class="st1" width="3.2" height="3.2"/>
			<rect x="25.7" y="-25.7" class="st1" width="3.2" height="3.2"/>
			<rect x="32.1" y="-25.7" class="st1" width="3.2" height="3.2"/>
			<rect x="38.4" y="-25.7" class="st1" width="3.2" height="3.2"/>
			<rect x="3.4" y="-22.5" class="st1" width="3.2" height="3.2"/>
			<rect x="9.8" y="-22.5" class="st1" width="3.2" height="3.2"/>
			<rect x="16.1" y="-22.5" class="st1" width="3.2" height="3.2"/>
			<rect x="22.5" y="-22.5" class="st1" width="3.2" height="3.2"/>
			<rect x="28.9" y="-22.5" class="st1" width="3.2" height="3.2"/>
			<rect x="35.2" y="-22.5" class="st1" width="3.2" height="3.2"/>
			<rect x="41.6" y="-22.5" class="st1" width="3.2" height="3.2"/>
			<rect x="0.2" y="-19.3" class="st1" width="3.2" height="3.2"/>
			<rect x="6.6" y="-19.3" class="st1" width="3.2" height="3.2"/>
			<rect x="12.9" y="-19.3" class="st1" width="3.2" height="3.2"/>
			<rect x="19.3" y="-19.3" class="st1" width="3.2" height="3.2"/>
			<rect x="25.7" y="-19.3" class="st1" width="3.2" height="3.2"/>
			<rect x="32.1" y="-19.3" class="st1" width="3.2" height="3.2"/>
			<rect x="38.4" y="-19.3" class="st1" width="3.2" height="3.2"/>
			<rect x="3.4" y="-16.1" class="st1" width="3.2" height="3.2"/>
			<rect x="9.8" y="-16.1" class="st1" width="3.2" height="3.2"/>
			<rect x="16.1" y="-16.1" class="st1" width="3.2" height="3.2"/>
			<rect x="22.5" y="-16.1" class="st1" width="3.2" height="3.2"/>
			<rect x="28.9" y="-16.1" class="st1" width="3.2" height="3.2"/>
			<rect x="35.2" y="-16.1" class="st1" width="3.2" height="3.2"/>
			<rect x="41.6" y="-16.1" class="st1" width="3.2" height="3.2"/>
			<rect x="0.2" y="-12.9" class="st1" width="3.2" height="3.2"/>
			<rect x="6.6" y="-12.9" class="st1" width="3.2" height="3.2"/>
			<rect x="12.9" y="-12.9" class="st1" width="3.2" height="3.2"/>
			<rect x="19.3" y="-12.9" class="st1" width="3.2" height="3.2"/>
			<rect x="25.7" y="-12.9" class="st1" width="3.2" height="3.2"/>
			<rect x="32.1" y="-12.9" class="st1" width="3.2" height="3.2"/>
			<rect x="38.4" y="-12.9" class="st1" width="3.2" height="3.2"/>
			<rect x="3.4" y="-9.7" class="st1" width="3.2" height="3.2"/>
			<rect x="9.8" y="-9.7" class="st1" width="3.2" height="3.2"/>
			<rect x="16.1" y="-9.7" class="st1" width="3.2" height="3.2"/>
			<rect x="22.5" y="-9.7" class="st1" width="3.2" height="3.2"/>
			<rect x="28.9" y="-9.7" class="st1" width="3.2" height="3.2"/>
			<rect x="35.2" y="-9.7" class="st1" width="3.2" height="3.2"/>
			<rect x="41.6" y="-9.7" class="st1" width="3.2" height="3.2"/>
			<rect x="0.2" y="-6.5" class="st1" width="3.2" height="3.2"/>
			<rect x="6.6" y="-6.5" class="st1" width="3.2" height="3.2"/>
			<rect x="12.9" y="-6.5" class="st1" width="3.2" height="3.2"/>
			<rect x="19.3" y="-6.5" class="st1" width="3.2" height="3.2"/>
			<rect x="25.7" y="-6.5" class="st1" width="3.2" height="3.2"/>
			<rect x="32.1" y="-6.5" class="st1" width="3.2" height="3.2"/>
			<rect x="38.4" y="-6.5" class="st1" width="3.2" height="3.2"/>
			<rect x="3.4" y="-3.3" class="st1" width="3.2" height="3.2"/>
			<rect x="9.8" y="-3.3" class="st1" width="3.2" height="3.2"/>
			<rect x="16.1" y="-3.3" class="st1" width="3.2" height="3.2"/>
			<rect x="22.5" y="-3.3" class="st1" width="3.2" height="3.2"/>
			<rect x="28.9" y="-3.3" class="st1" width="3.2" height="3.2"/>
			<rect x="35.2" y="-3.3" class="st1" width="3.2" height="3.2"/>
			<rect x="41.6" y="-3.3" class="st1" width="3.2" height="3.2"/>
		</g>
	</g>
</pattern>
<pattern  y="570.1" width="27" height="27" patternUnits="userSpaceOnUse" id="New_Pattern_Swatch_3" viewBox="4.5 -31.5 27 27" style="overflow:visible;">
	<g>
		<rect x="4.5" y="-31.5" class="st0" width="27" height="27"/>
		<g>
			
				<rect x="32.1" y="-3.8" transform="matrix(0.7071 -0.7071 0.7071 0.7071 11.4691 23.1815)" class="st1" width="3.2" height="3.2"/>
		</g>
		<g>
			
				<rect x="27.7" y="-3.8" transform="matrix(0.7071 -0.7071 0.7071 0.7071 10.1618 20.0254)" class="st1" width="3.2" height="3.2"/>
			
				<rect x="23.2" y="-3.8" transform="matrix(0.7071 -0.7071 0.7071 0.7071 8.8416 16.8382)" class="st1" width="3.2" height="3.2"/>
			
				<rect x="18.6" y="-3.8" transform="matrix(0.7071 -0.7071 0.7071 0.7071 7.5215 13.6511)" class="st1" width="3.2" height="3.2"/>
			
				<rect x="14.1" y="-3.8" transform="matrix(0.7071 -0.7071 0.7071 0.7071 6.2013 10.4639)" class="st1" width="3.2" height="3.2"/>
			<rect x="9.6" y="-3.8" transform="matrix(0.7071 -0.7071 0.7071 0.7071 4.8811 7.2768)" class="st1" width="3.2" height="3.2"/>
			<rect x="5.1" y="-3.8" transform="matrix(0.7071 -0.7071 0.7071 0.7071 3.561 4.0896)" class="st1" width="3.2" height="3.2"/>
		</g>
		<g>
			<rect x="0.7" y="-3.8" transform="matrix(0.7071 -0.7071 0.7071 0.7071 2.2537 0.9335)" class="st1" width="3.2" height="3.2"/>
		</g>
		<g>
			
				<rect x="32.1" y="-30.8" transform="matrix(0.7071 -0.7071 0.7071 0.7071 30.561 15.2734)" class="st1" width="3.2" height="3.2"/>
			
				<rect x="32.1" y="-26.3" transform="matrix(0.7071 -0.7071 0.7071 0.7071 27.3738 16.5935)" class="st1" width="3.2" height="3.2"/>
			
				<rect x="32.1" y="-21.8" transform="matrix(0.7071 -0.7071 0.7071 0.7071 24.1867 17.9137)" class="st1" width="3.2" height="3.2"/>
			
				<rect x="32.1" y="-17.3" transform="matrix(0.7071 -0.7071 0.7071 0.7071 20.9995 19.2339)" class="st1" width="3.2" height="3.2"/>
			
				<rect x="32.1" y="-12.8" transform="matrix(0.7071 -0.7071 0.7071 0.7071 17.8123 20.554)" class="st1" width="3.2" height="3.2"/>
			
				<rect x="32.1" y="-8.3" transform="matrix(0.7071 -0.7071 0.7071 0.7071 14.6252 21.8742)" class="st1" width="3.2" height="3.2"/>
		</g>
		<g>
			
				<rect x="27.7" y="-30.8" transform="matrix(0.7071 -0.7071 0.7071 0.7071 29.2537 12.1173)" class="st1" width="3.2" height="3.2"/>
			
				<rect x="23.2" y="-30.8" transform="matrix(0.7071 -0.7071 0.7071 0.7071 27.9335 8.9301)" class="st1" width="3.2" height="3.2"/>
			
				<rect x="27.7" y="-26.3" transform="matrix(0.7071 -0.7071 0.7071 0.7071 26.0665 13.4374)" class="st1" width="3.2" height="3.2"/>
			
				<rect x="18.6" y="-30.8" transform="matrix(0.7071 -0.7071 0.7071 0.7071 26.6133 5.743)" class="st1" width="3.2" height="3.2"/>
			
				<rect x="23.2" y="-26.3" transform="matrix(0.7071 -0.7071 0.7071 0.7071 24.7463 10.2503)" class="st1" width="3.2" height="3.2"/>
			
				<rect x="27.7" y="-21.8" transform="matrix(0.7071 -0.7071 0.7071 0.7071 22.8794 14.7576)" class="st1" width="3.2" height="3.2"/>
			
				<rect x="14.1" y="-30.8" transform="matrix(0.7071 -0.7071 0.7071 0.7071 25.2932 2.5558)" class="st1" width="3.2" height="3.2"/>
			
				<rect x="18.6" y="-26.3" transform="matrix(0.7071 -0.7071 0.7071 0.7071 23.4262 7.0631)" class="st1" width="3.2" height="3.2"/>
			
				<rect x="23.2" y="-21.8" transform="matrix(0.7071 -0.7071 0.7071 0.7071 21.5592 11.5704)" class="st1" width="3.2" height="3.2"/>
			
				<rect x="27.7" y="-17.3" transform="matrix(0.7071 -0.7071 0.7071 0.7071 19.6922 16.0777)" class="st1" width="3.2" height="3.2"/>
			
				<rect x="9.6" y="-30.8" transform="matrix(0.7071 -0.7071 0.7071 0.7071 23.973 -0.6314)" class="st1" width="3.2" height="3.2"/>
			<rect x="14.1" y="-26.3" transform="matrix(0.7071 -0.7071 0.7071 0.7071 22.106 3.876)" class="st1" width="3.2" height="3.2"/>
			
				<rect x="18.6" y="-21.8" transform="matrix(0.7071 -0.7071 0.7071 0.7071 20.239 8.3833)" class="st1" width="3.2" height="3.2"/>
			
				<rect x="23.2" y="-17.3" transform="matrix(0.7071 -0.7071 0.7071 0.7071 18.372 12.8906)" class="st1" width="3.2" height="3.2"/>
			
				<rect x="27.7" y="-12.8" transform="matrix(0.7071 -0.7071 0.7071 0.7071 16.505 17.3979)" class="st1" width="3.2" height="3.2"/>
			
				<rect x="5.1" y="-30.8" transform="matrix(0.7071 -0.7071 0.7071 0.7071 22.6528 -3.8185)" class="st1" width="3.2" height="3.2"/>
			
				<rect x="9.6" y="-26.3" transform="matrix(0.7071 -0.7071 0.7071 0.7071 20.7859 0.6888)" class="st1" width="3.2" height="3.2"/>
			
				<rect x="14.1" y="-21.8" transform="matrix(0.7071 -0.7071 0.7071 0.7071 18.9189 5.1961)" class="st1" width="3.2" height="3.2"/>
			
				<rect x="18.6" y="-17.3" transform="matrix(0.7071 -0.7071 0.7071 0.7071 17.0519 9.7034)" class="st1" width="3.2" height="3.2"/>
			
				<rect x="23.2" y="-12.8" transform="matrix(0.7071 -0.7071 0.7071 0.7071 15.1849 14.2108)" class="st1" width="3.2" height="3.2"/>
			
				<rect x="27.7" y="-8.3" transform="matrix(0.7071 -0.7071 0.7071 0.7071 13.3179 18.7181)" class="st1" width="3.2" height="3.2"/>
			
				<rect x="5.1" y="-26.3" transform="matrix(0.7071 -0.7071 0.7071 0.7071 19.4657 -2.4983)" class="st1" width="3.2" height="3.2"/>
			<rect x="9.6" y="-21.8" transform="matrix(0.7071 -0.7071 0.7071 0.7071 17.5987 2.009)" class="st1" width="3.2" height="3.2"/>
			
				<rect x="14.1" y="-17.3" transform="matrix(0.7071 -0.7071 0.7071 0.7071 15.7317 6.5163)" class="st1" width="3.2" height="3.2"/>
			
				<rect x="18.6" y="-12.8" transform="matrix(0.7071 -0.7071 0.7071 0.7071 13.8647 11.0236)" class="st1" width="3.2" height="3.2"/>
			
				<rect x="23.2" y="-8.3" transform="matrix(0.7071 -0.7071 0.7071 0.7071 11.9977 15.5309)" class="st1" width="3.2" height="3.2"/>
			
				<rect x="5.1" y="-21.8" transform="matrix(0.7071 -0.7071 0.7071 0.7071 16.2785 -1.1782)" class="st1" width="3.2" height="3.2"/>
			
				<rect x="9.6" y="-17.3" transform="matrix(0.7071 -0.7071 0.7071 0.7071 14.4115 3.3291)" class="st1" width="3.2" height="3.2"/>
			
				<rect x="14.1" y="-12.8" transform="matrix(0.7071 -0.7071 0.7071 0.7071 12.5446 7.8364)" class="st1" width="3.2" height="3.2"/>
			
				<rect x="18.6" y="-8.3" transform="matrix(0.7071 -0.7071 0.7071 0.7071 10.6776 12.3438)" class="st1" width="3.2" height="3.2"/>
			<rect x="5.1" y="-17.3" transform="matrix(0.7071 -0.7071 0.7071 0.7071 13.0914 0.142)" class="st1" width="3.2" height="3.2"/>
			
				<rect x="9.6" y="-12.8" transform="matrix(0.7071 -0.7071 0.7071 0.7071 11.2244 4.6493)" class="st1" width="3.2" height="3.2"/>
			<rect x="14.1" y="-8.3" transform="matrix(0.7071 -0.7071 0.7071 0.7071 9.3574 9.1566)" class="st1" width="3.2" height="3.2"/>
			<rect x="5.1" y="-12.8" transform="matrix(0.7071 -0.7071 0.7071 0.7071 9.9042 1.4621)" class="st1" width="3.2" height="3.2"/>
			<rect x="9.6" y="-8.3" transform="matrix(0.7071 -0.7071 0.7071 0.7071 8.0372 5.9695)" class="st1" width="3.2" height="3.2"/>
			<rect x="5.1" y="-8.3" transform="matrix(0.7071 -0.7071 0.7071 0.7071 6.7171 2.7823)" class="st1" width="3.2" height="3.2"/>
		</g>
		<g>
			
				<rect x="0.7" y="-30.8" transform="matrix(0.7071 -0.7071 0.7071 0.7071 21.3455 -6.9746)" class="st1" width="3.2" height="3.2"/>
			
				<rect x="0.7" y="-26.3" transform="matrix(0.7071 -0.7071 0.7071 0.7071 18.1584 -5.6545)" class="st1" width="3.2" height="3.2"/>
			
				<rect x="0.7" y="-21.8" transform="matrix(0.7071 -0.7071 0.7071 0.7071 14.9712 -4.3343)" class="st1" width="3.2" height="3.2"/>
			
				<rect x="0.7" y="-17.3" transform="matrix(0.7071 -0.7071 0.7071 0.7071 11.7841 -3.0141)" class="st1" width="3.2" height="3.2"/>
			<rect x="0.7" y="-12.8" transform="matrix(0.7071 -0.7071 0.7071 0.7071 8.5969 -1.694)" class="st1" width="3.2" height="3.2"/>
			<rect x="0.7" y="-8.3" transform="matrix(0.7071 -0.7071 0.7071 0.7071 5.4098 -0.3738)" class="st1" width="3.2" height="3.2"/>
		</g>
		<g>
			
				<rect x="32.1" y="-35.3" transform="matrix(0.7071 -0.7071 0.7071 0.7071 33.7171 13.9661)" class="st1" width="3.2" height="3.2"/>
		</g>
		<g>
			
				<rect x="27.7" y="-35.3" transform="matrix(0.7071 -0.7071 0.7071 0.7071 32.4098 10.81)" class="st1" width="3.2" height="3.2"/>
			
				<rect x="23.2" y="-35.3" transform="matrix(0.7071 -0.7071 0.7071 0.7071 31.0896 7.6228)" class="st1" width="3.2" height="3.2"/>
			
				<rect x="18.6" y="-35.3" transform="matrix(0.7071 -0.7071 0.7071 0.7071 29.7694 4.4356)" class="st1" width="3.2" height="3.2"/>
			
				<rect x="14.1" y="-35.3" transform="matrix(0.7071 -0.7071 0.7071 0.7071 28.4493 1.2485)" class="st1" width="3.2" height="3.2"/>
			
				<rect x="9.6" y="-35.3" transform="matrix(0.7071 -0.7071 0.7071 0.7071 27.1291 -1.9387)" class="st1" width="3.2" height="3.2"/>
			
				<rect x="5.1" y="-35.3" transform="matrix(0.7071 -0.7071 0.7071 0.7071 25.809 -5.1258)" class="st1" width="3.2" height="3.2"/>
		</g>
		<g>
			
				<rect x="0.7" y="-35.3" transform="matrix(0.7071 -0.7071 0.7071 0.7071 24.5017 -8.2819)" class="st1" width="3.2" height="3.2"/>
		</g>
	</g>
</pattern>
<g>
	<path class="st2" d="M112.2,518.5c0,0-133.4-192.2-52.9-268.9c80.5-76.6,157.2-8.3,172.5-91c14.1-76.2,68-150.3,166-126.4
		c125.8,30.6,111.9,117.4,173.7,110.9c61.8-6.5,167.4-55,186.6,36.9c19.1,91.9-70.4,170.8-13.4,164.3c39.2-4.5,89.3-14.5,63.4,80.4
		c-16.5,60.4-40.5,93.8-40.5,93.8H112.2z"/>
	<g>
		<g>
			<g>
				<g>
					<circle class="st3" cx="379.6" cy="179.1" r="62.1"/>
				</g>
				<g>
					<path class="st4" d="M379.6,241.8c-34.6,0-62.7-28.1-62.7-62.7s28.1-62.7,62.7-62.7s62.7,28.1,62.7,62.7
						S414.1,241.8,379.6,241.8z M379.6,117.5c-33.9,0-61.5,27.6-61.5,61.5s27.6,61.5,61.5,61.5c33.9,0,61.5-27.6,61.5-61.5
						S413.5,117.5,379.6,117.5z"/>
				</g>
			</g>
			<g>
				<g>
					<path class="st4" d="M379.6,128.6c-0.3,0-0.6-0.3-0.6-0.6v-8c0-0.3,0.3-0.6,0.6-0.6c0.3,0,0.6,0.3,0.6,0.6v8
						C380.2,128.4,379.9,128.6,379.6,128.6z"/>
				</g>
				<g>
					<path class="st4" d="M379.6,239c-0.3,0-0.6-0.3-0.6-0.6v-8c0-0.3,0.3-0.6,0.6-0.6c0.3,0,0.6,0.3,0.6,0.6v8
						C380.2,238.7,379.9,239,379.6,239z"/>
				</g>
			</g>
			<g>
				<g>
					<path class="st4" d="M354.3,135.4c-0.3,0.2-0.6,0.1-0.8-0.2l-4-7c-0.2-0.3-0.1-0.6,0.2-0.8c0.3-0.2,0.6-0.1,0.8,0.2l4,7
						C354.7,134.9,354.6,135.2,354.3,135.4z"/>
				</g>
				<g>
					<path class="st4" d="M409.5,230.9c-0.3,0.2-0.6,0.1-0.8-0.2l-4-7c-0.2-0.3-0.1-0.6,0.2-0.8c0.3-0.2,0.6-0.1,0.8,0.2l4,7
						C409.8,230.4,409.7,230.8,409.5,230.9z"/>
				</g>
			</g>
			<g>
				<g>
					<path class="st4" d="M335.8,153.9c-0.2,0.3-0.5,0.4-0.8,0.2l-7-4c-0.3-0.2-0.4-0.5-0.2-0.8c0.2-0.3,0.5-0.4,0.8-0.2l7,4
						C335.9,153.3,335.9,153.6,335.8,153.9z"/>
				</g>
				<g>
					<path class="st4" d="M431.3,209.1c-0.2,0.3-0.5,0.4-0.8,0.2l-7-4c-0.3-0.2-0.4-0.5-0.2-0.8c0.2-0.3,0.5-0.4,0.8-0.2l7,4
						C431.4,208.4,431.5,208.8,431.3,209.1z"/>
				</g>
			</g>
			<g>
				<g>
					<path class="st4" d="M329,179.2c0,0.3-0.3,0.6-0.6,0.6h-8c-0.3,0-0.6-0.3-0.6-0.6s0.3-0.6,0.6-0.6h8
						C328.7,178.6,329,178.9,329,179.2z"/>
				</g>
				<g>
					<path class="st4" d="M439.3,179.2c0,0.3-0.3,0.6-0.6,0.6h-8c-0.3,0-0.6-0.3-0.6-0.6s0.3-0.6,0.6-0.6h8
						C439.1,178.6,439.3,178.9,439.3,179.2z"/>
				</g>
			</g>
			<g>
				<g>
					<path class="st4" d="M335.8,204.5c0.2,0.3,0.1,0.6-0.2,0.8l-7,4c-0.3,0.2-0.6,0.1-0.8-0.2c-0.2-0.3-0.1-0.6,0.2-0.8l7-4
						C335.3,204.1,335.6,204.2,335.8,204.5z"/>
				</g>
				<g>
					<path class="st4" d="M431.3,149.3c0.2,0.3,0.1,0.6-0.2,0.8l-7,4c-0.3,0.2-0.6,0.1-0.8-0.2c-0.2-0.3-0.1-0.6,0.2-0.8l7-4
						C430.8,148.9,431.2,149,431.3,149.3z"/>
				</g>
			</g>
			<g>
				<g>
					<path class="st4" d="M354.3,223c0.3,0.2,0.4,0.5,0.2,0.8l-4,7c-0.2,0.3-0.5,0.4-0.8,0.2c-0.3-0.2-0.4-0.5-0.2-0.8l4-7
						C353.6,222.9,354,222.8,354.3,223z"/>
				</g>
				<g>
					<path class="st4" d="M409.5,127.4c0.3,0.2,0.4,0.5,0.2,0.8l-4,7c-0.2,0.3-0.5,0.4-0.8,0.2c-0.3-0.2-0.4-0.5-0.2-0.8l4-7
						C408.8,127.3,409.2,127.2,409.5,127.4z"/>
				</g>
			</g>
			<g>
				<path class="st4" d="M377.7,179.3l2.1-30.3l2.1,30.3C382,182.3,377.6,182.3,377.7,179.3L377.7,179.3z"/>
				<path class="st4" d="M379.8,181.4l-43.8-2.1l43.8-2.1C382.7,177.2,382.8,181.5,379.8,181.4L379.8,181.4z"/>
			</g>
		</g>
	</g>
	<g>
		<path class="st5" d="M95.8,464.9c23.9-10,50.1,15.4,50.1,15.4s-22.4-23.2-22.9-56.1c-0.3-23.4,20.3-57.5,27.6-58.7
			c7.3-1.2,27.1,20.7,32,62.4c2.2,19.5-7.5,48.7-7.5,48.7s17.2-39.7,54-40.5c2.8,9.7-7.2,31.1-14.7,43.8c-6.5,11-22.9,30.3-58.3,26
			C112.6,500.8,95.3,465.2,95.8,464.9z"/>
		<path class="st3" d="M142.3,382.3c3,6.5,6,12.7,9.7,18.8c-0.3-9.9-0.8-20.1-0.1-29.9c0.1-0.9,1.3-0.9,1.4,0
			c0.5,5.9,0.4,11.9,0.4,17.9c0.7-1.3,1.3-2.6,1.7-4c0.7-2.1,0.5-4.3,0.7-6.5l0.5-0.1c1.6,3.9-0.4,8.6-2.9,11.9
			c-0.1,4.1-0.1,8.2-0.1,12.3c0.1,10.2,0.5,20.4,1.2,30.5c3.8-11.1,8.6-21.7,11.8-33l0.5,0.1c-1.5,11.7-7,23.2-12,33.8l-0.2,0.1
			l0,0.7c0.9,13,2.5,26.1,5.1,38.9c7.2-12.1,12-24.3,16.2-37.7c0.1-0.3,0.5-0.2,0.5,0.1c-2.2,13-8.2,27.9-16.5,38.3l-0.1,0
			c1.8,8.5,4,16.9,6.9,25.1c0.1,0.4-0.5,0.6-0.6,0.2c-7.2-19.7-10.8-40.2-12.6-61c-1-11.3-1.5-22.7-1.8-34.1c0-0.8,0-1.7-0.1-2.6
			c-4.4-5.8-8.3-12.7-10-19.8L142.3,382.3z"/>
		<path class="st3" d="M103.5,465.8c4.2,2.9,7.9,6.5,12.1,9.4c3.2,2.2,6.5,4.2,9.9,6.1c-2.9-2.8-5.7-5.8-8.2-9l0.4-0.3
			c3.4,2.7,6.1,6.4,9,9.7l0,0.3c1.4,0.8,2.8,1.6,4.3,2.3c6.5,3.5,13.2,6.5,19.8,9.9c-4-3.4-7.5-7.4-11.7-10.6
			c-0.3-0.2,0-0.6,0.3-0.5c5.5,2.5,9.3,7.9,13.6,12l0.1,0.2c2.5,1.3,5,2.7,7.4,4.2c0.4,0.3,0.1,0.9-0.4,0.6
			c-10.5-4.9-21.1-9.9-31.3-15.4c-8.7-4.6-19.7-10.2-25.7-18.4C102.7,466,103.2,465.6,103.5,465.8z"/>
		<path class="st3" d="M171.3,496.6c1.5-1,2.9-1.9,4.4-2.9l0,0c2.2-4.3,5.3-8.1,7.6-12.4c2.5-4.8,4.6-9.9,5.9-15.2l0.4,0.1
			c-0.8,5.5-3,10.6-5.4,15.6c-1.5,3.2-3.4,7.1-5.9,10.1c5.3-3.7,10.4-7.5,15.3-11.6c3.4-9.2,7-18.4,10.5-27.7
			c0.1-0.3,0.6-0.2,0.5,0.1c-2.7,8.9-5.6,18.1-9.9,26.5c2.7-2.3,5.3-4.7,7.8-7.3c2.7-2.7,5.3-5.6,7.7-8.7l-0.1-0.3
			c1.6-6,3.8-12.1,6-17.9l0.4,0.1c-1.9,5.4-2.8,11.7-5.4,16.9c1.7-2.2,3.3-4.4,4.8-6.6c3.4-5.2,5.2-11.2,8.4-16.5
			c0.2-0.3,0.7-0.2,0.6,0.2c-0.5,5.4-4,11-6.8,15.6c-3.7,6.1-8.4,11.7-13.3,16.9c-7.1,7.5-15.3,14.5-24.2,20.1
			c3.2-0.3,6.3-0.4,9.5-1.2c4.2-1.1,8-3.2,11.8-5.3c0.3-0.2,0.6,0.3,0.3,0.5c-6.5,4.2-15.1,8.4-23.2,6.9c-2.5,1.5-5,3-7.5,4.3
			C171.2,497.2,171,496.8,171.3,496.6z"/>
		<path class="st3" d="M132,432.4c4.6,6.8,7.8,14.6,11.7,21.8c4.6,8.3,9.8,15.8,15.9,23.1l-0.3,0.3c-6.3-6.2-11.1-13.7-15.5-21.2
			c-4.4-7.5-9.1-15.6-12.3-23.7C131.4,432.3,131.8,432.1,132,432.4z"/>
		<path class="st3" d="M134.2,399.4c6.7,12.7,11.8,25.9,19.4,38.2l-0.3,0.3c-8.9-10.9-14.2-25.3-19.5-38.2L134.2,399.4z"/>
		<path class="st3" d="M122.8,486.2c2.8,0.5,5.5,1.5,8.1,2.5c3,1,6.1,1.7,9.1,2.7l-0.1,0.4c-5.7-0.1-12.1-3.2-17.2-5.3L122.8,486.2z
			"/>
		<path class="st3" d="M104.1,471.2c1.7,0.6,3.2,1.7,4.8,2.5c1.7,0.9,3.4,1.7,5,2.7c0.2,0.1,0.1,0.6-0.2,0.5
			c-3.2-1.2-7.6-2.6-9.8-5.3L104.1,471.2z"/>
		<path class="st3" d="M204.9,472c2.9-2,6.1-3.5,8.9-5.5c3.3-2.3,6.2-5.1,8.9-8c0.3-0.3,0.7,0.1,0.4,0.4c-4.6,5.4-11,11.6-18.1,13.4
			L204.9,472z"/>
	</g>
	<g>
		<path class="st3" d="M138.9,528.5c-0.2,0-0.3-0.1-0.4-0.2c-0.2-0.2-0.2-0.6,0.1-0.8l11.5-9.7c0.2-0.2,0.6-0.2,0.8,0.1
			c0.2,0.2,0.2,0.6-0.1,0.8l-11.5,9.7C139.2,528.4,139.1,528.5,138.9,528.5z"/>
	</g>
	<g>
		<g>
			<g>
				<g>
					<path class="st6" d="M439.8,377.2l-1.1,17.3l0,0.1l-1.7,27.9l-0.1,2.1l-0.5,8l-0.3,5.2l-0.4,5.8l-2.3,37.4l-0.2,3.3l-0.9,14.2
						v0l-0.1,1.5l-0.3,4.4l-0.2,2.8l-0.5,8.5l-0.3,4.9h-99.7l-0.3-4.9l-0.3-5l-0.4-6.2l-0.1-1.8l-0.3-4.1l0-0.1v0l-0.4-6.3
						l-1.5-23.3l-0.4-6.4l-1.7-25.3l0-0.2l-0.2-3.5l-0.6-9l-0.1-0.8l0,0l-0.4-5.7l-0.1-1l-1.8-27.2l0-0.3l-0.8-12.5
						c-0.7-10.3,5.8-19.1,14.1-19.1h89.8C434,358.2,440.5,366.9,439.8,377.2z"/>
					<polygon class="st6" points="330.8,503.1 330.8,510.9 330.6,510.9 318.1,505.9 318.1,520.7 312.7,520.7 312.7,497.4 
						316.6,498.7 316.6,498.7 317,498.8 330.1,502.9 					"/>
					<polygon class="st6" points="440.9,497.4 440.9,520.7 435.5,520.7 435.5,505.9 431.9,507.3 422.8,510.9 422.8,503.1 
						432.3,500.2 437,498.7 437.1,498.6 					"/>
					<path class="st7" d="M368.7,358.2c0,0,35.2,2,48.8,40.2c13.5,38.2,15.1,81.9,15.1,81.9l8.5-102.9c0.8-10.2-5.6-19.1-13.9-19.1
						H368.7z"/>
					<g>
						<g>
							<path class="st3" d="M399.2,378.2c0.6,0.7,4.2,3.7,4.5,3.8c0.2,0.1,3.9,1.1,8.3,2.3c5.2,1.8,10.8,4,16.7,6.6
								c5.8,2.6,11.1,5.4,15.8,8.1c-0.1,2.2-0.2,5.6-0.7,9.7c-1.4,13.5-4.3,23.3-5.5,27.2c-2.4,8.6-5.3,21.3-6.7,39.4
								c0.7,12.3,1.4,24.6,2.1,36.8c-35.6-0.4-71.2-0.7-106.9-1.1c0.9-11.6,0.6-21.1,0.1-27.7c-0.9-12.4-2.8-21.8-9.3-55.5
								c-0.1-0.4-0.3-1.5-0.6-2.8c-1.2-5.5-2.6-9.5-2.9-10.3c-1.3-3.9-3.4-9.1-6.8-14.9c17-8.2,26.8-11.9,32.9-13.5
								c1.2-0.3,9.5-2.5,14-6.8c0.5-0.5,4.2-4.1,4.2-4.1l10.8-2.1l23.1,2.7L399.2,378.2z"/>
							<path class="st8" d="M397.9,380.1c0,0,0,2.7,0,3.3v6.9c0,0.4-1.5,8.5-1.5,8.5s-10.9,10.4-11.4,10.9
								c-0.5,0.5-12.1,1.1-12.1,1.1s-9.9-9.3-10.3-9.8c-0.4-0.5-1.1-9.5-1.1-10.1c0-0.5-0.2-3.5-0.3-4.9c0-0.3,0-0.6,0-0.7
								c0-0.6-0.4-4.2-0.4-4.2l1.5-5.9c0,0,18.1-0.4,19.3-0.4C382.8,374.7,397.9,380.1,397.9,380.1z"/>
							<path class="st9" d="M397.9,380.1c0,0,0,2.7,0,3.3v1.4c-1,1.3-4.2,4.7-5.5,5.8c-1.5,1.4-7,5.6-7.4,6
								c-0.9,0.9-3.8,1.3-6.6,1.2c-2.9-0.1-5.8-0.6-6.7-1.6c-0.4-0.4-5.6-4.9-7.1-6.3c-0.8-0.8-2.2-2.5-3.5-3.9c0-0.3,0-0.6,0-0.7
								c0-0.6-0.4-4.2-0.4-4.2l1.5-5.9c0,0,18.1-0.4,19.3-0.4C382.8,374.7,397.9,380.1,397.9,380.1z"/>
							<path class="st10" d="M383.5,421l5.5,24.8c2.2,9.8,3.2,19.8,3,29.8c-0.2,12.5-0.4,25-0.6,37.5c-7.7-0.2-15.4-0.3-23.1-0.5
								c0.5-14.2,1-28.4,1.5-42.6c0.2-4.9,0.6-9.8,1.4-14.7l5.2-34.4L383.5,421z"/>
							<path class="st11" d="M388.9,407.4c0,0-3-0.1-3.9-0.2c-0.8-0.1-3.5-0.5-4.8-0.4c-0.3,0-0.9-0.1-1.3-0.1c-0.6,0-1.5,0-2.2,0
								c-1.3,0.1-6.9,0.8-7.2,0.8c-0.2,0.1-0.6,0.6-0.6,0.6l7.5,12.7l7,0.1l7.5-12L388.9,407.4z"/>
							<path class="st12" d="M398,381.1c-0.4,3.8-2.1,10.5-5,14.3c-3,3.9-6.8,6.8-8.7,8s-3.4,2.7-4,3.4c1.5,0,4.5-0.1,7,2
								c0.6,0.5,7.9,6,7.9,6c1.9-2.8,4.7-7.7,6.2-14.2c1.6-7.1,1-13,0.4-16.4l-2-4.2l-0.6-0.7L398,381.1z"/>
							<path class="st12" d="M361.2,379.2c0,0-0.2,4.5,0.1,6.1c0.5,3.5,3.2,8,6.3,11.8c2.8,3.4,9.1,6.6,11.4,9.7
								c-2,0.1-5.3,0.6-9,2.3c-3.3,1.6-5.5,3.6-6.9,5c-2-3.2-4.9-8.9-6.2-16.4c-1.4-8.7,0.1-15.8,1.2-19.7l1.8-1.2L361.2,379.2z"/>
							<path class="st8" d="M404.9,348.8c0.6-0.3,0.8-0.6,1.4-0.4c0.4,0.1,1,0.6,1.2,1.1c0.3,0.8,0.6,2.2,0.1,3.9
								c-0.1,0.5-0.6,2.7-0.9,3.6c-0.4,1.1-0.8,4.5-1.2,5.3c-0.4,0.8-1,3.4-1.5,4.1s-0.9,1.9-2.4,2.2c-0.5,0.1-1-0.1-1-0.1
								s-0.9-9.3-0.8-11.2c0.2-1.9,1.9-5.6,2.1-6.5C402.1,349.9,404.9,348.8,404.9,348.8z"/>
							<path class="st8" d="M353.7,349.4c-0.6-0.3-0.7-0.6-1.4-0.5c-0.4,0.1-1,0.5-1.2,1.1c-0.3,0.8-0.6,2.2-0.2,3.9
								c0.1,0.5,0.5,2.7,0.9,3.6c0.4,1.2,0.8,4.5,1.1,5.4c0.3,0.8,1,3.4,1.5,4.2c0.5,0.7,0.9,2,2.4,2.2c0.5,0.1,1-0.1,1-0.1
								s1.1-9.3,0.9-11.2c-0.2-1.9-1.8-5.7-2-6.6C356.5,350.6,353.7,349.4,353.7,349.4z"/>
							<path class="st8" d="M404.4,343.7c-0.2,1.2-0.6,3.9-1,6.4c-0.1,0.3-0.1,0.7-0.2,1c-0.3,1.9-0.5,3.4-0.5,3.4s-0.2,1.9-0.2,2.8
								c0,0.5-0.1,1.1-0.1,1.8c0,0.4,0,0.9-0.1,1.3c-0.1,1-0.2,2-0.3,2.7c-0.3,1.5-0.4,2.5-0.8,3.9c-0.3,1.4-0.8,5.4-0.8,6.2
								s-0.4,3.2-0.7,3.8c-0.3,0.6-0.5,2.2-1.3,3.2c-0.8,1-1.8,2.5-2.5,3.4c-0.4,0.6-0.9,1.2-1.4,1.8c-0.4,0.4-0.8,0.8-1.2,1.3
								c-0.7,0.7-1.5,1.5-2.4,2.3c-0.6,0.5-1.6,1.5-3,2.5c-3.9,2.8-6.3,4.6-9.4,4.5c-3-0.1-5.3-2-9.1-5c-1.3-1.1-2.4-2.1-2.9-2.7
								c-0.5-0.5-0.9-0.9-1.3-1.4c-0.4-0.4-0.8-0.9-1.1-1.3c-0.9-1-1.6-1.9-2.2-2.9c-0.6-1-1.5-2.5-2.3-3.5c-0.8-1-0.9-2.7-1.2-3.3
								c-0.2-0.6-0.5-3-0.5-3.8c0-0.8-0.3-4.8-0.5-6.3c-0.2-1.4-0.3-2.4-0.6-3.9c-0.1-0.5-0.1-1.1-0.2-1.8c0-0.9-0.1-1.9,0-2.7v-1.3
								c0-0.9-0.1-2.8-0.1-2.8s-0.1-0.8-0.2-2c0-0.4-0.1-0.8-0.1-1.2c-0.3-2.7-0.7-6.3-0.8-7.6c-0.2-2.3,2.1-13.1,3.1-14.8
								c1-1.7,7.2-3.9,15.7-5.3c2-0.3,3.8-0.5,5.5-0.6l0.3-0.1c2,0.1,4.3,0.4,6.8,1c8.4,1.8,14.6,4.4,15.4,6.1
								C403,330.5,404.8,341.5,404.4,343.7z"/>
							<g>
								<path class="st13" d="M402.2,351.4c0.2-0.2,0.4-0.3,0.7-0.3c0.1,0,0.2,0,0.4,0.1c0.1-0.3,0.1-0.7,0.2-1
									c-0.2,0-0.3-0.1-0.5-0.1c-0.6,0-1.1,0.3-1.5,0.7c-0.4,0.5-0.8,1.1-1,1.7c-0.6,1.8-0.1,3.5,0.3,4.8c-0.7,0-1.3,0.4-1.6,0.9
									c-0.2,0.4-0.4,0.8-0.5,1.2c-0.3,1.2,0.1,2.2,0.3,2.7l0,0.1c0.1,0.2,0.1,0.4,0.2,0.5c-0.2-0.1-0.5-0.2-0.7-0.2
									c-0.7,0-1.2,0.3-1.6,0.9c-0.2,0.2-0.3,0.5-0.4,0.8c-0.8,1.9-0.2,3.5,0.5,5.1c0.4,0.9,0.7,1.9,0.9,3c0.2,1.2-0.1,1.8-0.8,3
									c-0.6,1-1.3,2.5-2.1,4.9c-0.9,2.7-1.3,5-1.5,6.6c0.4-0.4,0.8-0.9,1.2-1.3c0.2-1.4,0.6-3.1,1.2-5c1.7-5.3,3.2-5.5,2.9-8.3
									c-0.4-3-2.4-5.1-1.4-7.5c0.1-0.2,0.2-0.4,0.3-0.6c0.2-0.3,0.5-0.4,0.8-0.4c0.3,0,0.7,0.2,0.8,0.5c0.3,0.7,0.7,1.6,1,2.5
									c0-2.1,0.3-3-0.3-4.8c-0.2-0.4-0.5-1.2-0.3-2.2c0.1-0.3,0.2-0.6,0.4-0.9c0.2-0.3,0.5-0.5,0.8-0.5c0.3,0,0.7,0.2,0.8,0.5
									c0.2,0.5,0.5,1,0.7,1.6c0.3,0.6,0.5,1.3,0.8,2c-0.2-1.1-0.4-2.2-0.7-3.3c-0.2-0.5-0.3-1.1-0.5-1.6c-0.4-1.3-1.1-2.9-0.5-4.6
									C401.6,352.2,401.9,351.8,402.2,351.4z"/>
								<path class="st13" d="M363.6,380.1c-0.8-2.5-1.5-3.9-2.1-4.9c-0.7-1.2-0.9-1.7-0.8-3c0.1-1.1,0.5-2,0.9-3
									c0.6-1.6,1.3-3.2,0.5-5.1c-0.1-0.3-0.2-0.5-0.4-0.8c-0.4-0.5-1-0.9-1.6-0.9c-0.2,0-0.4,0-0.5,0.1c0.1-0.5,0.2-1.2,0-1.9
									c-0.1-0.4-0.2-0.8-0.5-1.2c-0.4-0.6-1-0.9-1.7-0.9c-0.1,0-0.1,0-0.2,0c0.1-0.3,0.2-0.6,0.3-0.8l0.1-0.3
									c0.4-1.3,1.1-3.1,0.4-5c-0.2-0.6-0.5-1.2-1-1.7c-0.2-0.3-0.6-0.5-0.9-0.6c0,0.4,0.1,0.9,0.1,1.2c0.3,0.4,0.6,0.9,0.8,1.4
									c0.6,1.8-0.1,3.4-0.5,4.6c-0.7,2.1-1.1,4.2-1.4,6.1c0.5-1.2,0.9-2.4,1.4-3.4c0,0,0,0,0,0c0.2-0.3,0.5-0.5,0.8-0.5
									c0.3,0,0.6,0.1,0.8,0.5c0.2,0.3,0.3,0.6,0.4,0.9c0.2,1-0.1,1.8-0.3,2.2c-0.6,1.5-0.4,2.4-0.4,4.1c0,0,0,0,0,0
									c0.4-1.2,0.9-2.3,1.3-3.2c0.2-0.4,0.5-0.5,0.8-0.5c0.3,0,0.6,0.1,0.8,0.4c0.1,0.2,0.2,0.4,0.3,0.6c1,2.5-1,4.5-1.4,7.5
									c-0.3,2.8,1.2,3,2.9,8.3c0.4,1.3,1,3.2,1.3,5.3c0.3,0.4,0.7,0.8,1.1,1.3C364.9,384.2,364.2,381.8,363.6,380.1z"/>
							</g>
							<path class="st14" d="M352.4,325.9c0.7-2.8,2.4-5.1,3.9-7.3c0.9-1.4,2.7-2.7,4.8-3.7c5.1-2.4,20.7-4.2,24.9-3.6
								c3.6,0.5,7.2,1.3,10.3,2.8c3.9,1.9,6,6,7.1,9.1c2.5,1.9,3.6,3.9,4.1,5.2c0.4,1.1,0.5,2-0.7,12.2c-0.2,1.8-0.5,4.4-1.3,7.6
								c-0.4,1.8-0.6,2.7-1.1,3.7c-0.5,1.1-1.5,2.8-1.8,3.9c-0.3,1-0.4,2.5-0.4,2.5c-0.3,0.1-0.5,0.2-0.8,0.3
								c0-4.8-1.1-8.4-2.8-11.1c-0.6-1-1-1.4-1.5-2.3c-1.8-3.6-0.9-7.7,0.2-10.6c-0.9,1.4-5.7,8.3-15.1,10.3c-9.2,2-16.2-2.1-17.7-3
								c1.6,0.1,3.7,0.2,6.1-0.4c1.3-0.3,2.4-0.7,3.4-1c-1.8,0.3-4.6,0.6-7.9-0.1c-1.9-0.4-3.5-1-4.7-1.6c0,0.4,0.1,1.1,0,1.8
								c-0.1,1.5-0.6,2.5-0.8,3c-0.7,1.8-1.4,3.6-1.9,5.5c-1.2,3.8-1.5,7.1-1.5,9.3c-0.3,0.1-0.5,0.2-0.8,0.2c0,0-0.1-1.4-0.4-2.5
								c-0.3-1-1.3-2.8-1.8-3.9c-0.5-1.1-1.1-3.1-1.1-3.7c0-0.6-0.5-3-0.9-4.6c-0.3-1.5-0.5-3.1-0.6-4.6c-0.1-1.6-0.1-3.1,0-4.3
								c0-1.3,0.1-2.7,0.3-4C351.9,328.5,352.2,326.5,352.4,325.9z"/>
						</g>
						<g>
							<path class="st3" d="M340.3,386.4c-2.7,12.4-5.4,24.7-8.1,37.1c-7.5,6.7-9.6,19.1-11.5,28.5c-2.7,13.5-8.8,34.1-21.7,41.3
								c-4.7,2.7-10.6,2.4-14.4-1.4c-1.8-1.8-2.9-3.6-3.5-5.1c-3.1-7.4-0.6-14.9,0.6-17.9c8.5-23,17.1-45.9,25.6-68.9
								c5-2.9,10.9-5.8,17.6-8.5C330.5,389.3,335.7,387.6,340.3,386.4z"/>
						</g>
						<g>
							<path class="st3" d="M418.6,386.8c0.5,12.2,1,24.3,1.5,36.5c7.1,7.1,8.3,19.7,9.6,29.2c1.8,13.6-0.4,31.2,12,39.3
								c4.6,3,16.4,4.2,20.4,0.6c1.1-1,1.8-1.2,2.3-1.7c0,0,0.4-0.5,0.8-1.2c0.8-1.4,1.7-9.2,2.2-20c-7.6-23.5-15.2-46.9-22.8-70.4
								C435.9,395,427.2,390.9,418.6,386.8z"/>
						</g>
						<g>
							<g>
								<g>
									<g>
										<path class="st8" d="M405.8,370.1c0.3,2.5,1.1,6.9,2.5,12.3c1.2-3.8,2.6-10.1,1.8-17.6c-0.4-4-1.3-7.4-2.3-10.1
											c-0.2-0.7-1.2-0.8-1.6-0.2c-0.2,0.2-0.3,0.5-0.4,0.9c-0.3,1-0.1,1.8,0.1,2.3c0.7,2.6-0.3,3.3-0.3,8.6
											C405.6,366.1,405.6,367.9,405.8,370.1z"/>
										<path class="st8" d="M401,374.3l3.4,12.5c0.9-3.9,1.9-10.4,0.4-18.2c-0.8-3.9-2-7.2-3.2-9.8c-0.3-0.7-1.2-0.7-1.6-0.1
											c-0.2,0.3-0.3,0.6-0.4,0.9c-0.2,1,0.1,1.8,0.3,2.2c0.9,2.5,0,3.3,0.5,8.6C400.5,371.3,400.7,372.7,401,374.3z"/>
										<path class="st8" d="M413.9,403.9c-0.3-0.6-6.6-13.1-7-14.2c-0.1-0.3-0.2-0.7-0.2-0.7c-0.1-0.4,0-0.9,0.1-1.3
											c0.7-2,0.8-3.2,1.4-5.4c0.3-1.1,0.6-2.2,0.9-3.2c0.2-4,0.1-9.4-1.3-15.7c-1.1-4.8-2.7-8.8-4.2-11.9
											c-0.3-0.6-1.1-0.7-1.5-0.2c-0.3,0.4-0.6,0.9-0.8,1.4c-0.6,1.8,0.1,3.4,0.5,4.7c1.7,4.8,1.7,9.2,1.6,12.9
											c0,2.5-0.2,5.1-0.6,5.1c-0.5,0-0.7-3.4-2.4-8.2c-0.4-1.2-0.9-2.3-1.3-3.2c-0.3-0.7-1.2-0.7-1.6-0.1
											c-0.1,0.2-0.2,0.4-0.3,0.6c-1,2.5,1.1,4.5,1.4,7.5c0.3,2.8-1.2,3-2.9,8.3c-1,3.3-1.5,6-1.5,7.5c0,0.8-0.1,2.3,0.3,4.1
											c0.6,3.1,1.9,5.6,3.2,7.5l6.2,10.6C407,408.4,410.8,405.7,413.9,403.9z"/>
									</g>
								</g>
								<g>
									<g>
										<path class="st8" d="M352.6,370.1c-0.3,2.5-1.1,6.9-2.5,12.3c-1.2-3.8-2.6-10.1-1.8-17.6c0.4-4,1.3-7.4,2.3-10.1
											c0.2-0.7,1.2-0.8,1.6-0.2c0.2,0.2,0.3,0.5,0.4,0.9c0.3,1,0.1,1.8-0.1,2.3c-0.7,2.6,0.3,3.3,0.3,8.6
											C352.8,366.1,352.8,367.9,352.6,370.1z"/>
										<path class="st8" d="M357.2,375.7l-3.4,12.5c-0.9-3.9-1.9-10.4-0.4-18.2c0.8-3.9,2-7.2,3.2-9.8c0.3-0.7,1.2-0.7,1.6-0.1
											c0.2,0.3,0.3,0.6,0.4,0.9c0.2,1-0.1,1.8-0.3,2.2c-0.9,2.5,0,3.3-0.5,8.6C357.7,372.7,357.5,374.1,357.2,375.7z"/>
										<path class="st8" d="M354.6,410.2l6.2-10.6c1.2-1.6,2.6-4.2,3.2-7.5c0.9-4.9-0.5-9.1-1.3-11.6c-1.7-5.3-3.2-5.5-2.9-8.3
											c0.4-3,2.4-5.1,1.4-7.5c-0.1-0.2-0.2-0.4-0.3-0.6c-0.4-0.6-1.3-0.6-1.6,0.1c-0.4,0.9-0.8,1.9-1.3,3.2
											c-1.7,4.8-2,8.2-2.4,8.2c-0.4,0-0.6-2.7-0.6-5.1c0-3.6,0-8,1.6-12.9c0.4-1.3,1.1-2.9,0.5-4.7c-0.2-0.6-0.5-1-0.8-1.4
											c-0.4-0.5-1.2-0.4-1.5,0.2c-1.5,3.1-3.1,7.1-4.2,11.9c-1.4,6.3-1.5,11.7-1.3,15.7c0.3,1.1,0.6,2.1,0.9,3.2
											c0.7,2.2,0.2,1.9,0.9,4c0.1,0.4,0.2,0.9,0.1,1.3c0,0,0,0.3-0.2,0.7c-0.4,1.1-6.7,13.6-7,14.2
											C347.1,404.3,351.4,408.4,354.6,410.2z"/>
									</g>
								</g>
							</g>
						</g>
					</g>
					<path class="st14" d="M376.9,385c0,1.2-0.5,1.7-0.7,1.9c-1.4,1.4-4.5,0.8-5.1-0.5c-0.2-0.4-0.2-1-0.6-1.1
						c-0.3-0.1-0.6,0-0.8,0.2c-0.1,1.9-0.3,3.7-0.4,5.6c0.6,1,2,3.1,4.7,4.3c3.4,1.6,7.4,1.2,10.4-0.6c1.7-1.1,2.8-2.4,3.4-3.3
						c-0.2-1.9-0.4-3.9-0.6-5.8c-0.2-0.1-0.5-0.3-0.7-0.2c-0.3,0.1-0.3,0.7-0.5,1.1c-0.5,1.1-3.4,1.8-4.7,0.4
						c-0.7-0.7-0.7-1.6-0.7-2C379.4,385,378.2,385,376.9,385z"/>
				</g>
				<g>
					<path class="st15" d="M339.1,389.4c-18.7,25.7-37.3,51.3-56,77c-1.1,2.1-2.9,6.1-3.1,11.3c-0.1,2.6-0.2,7.6,2.5,11.5
						c4.3,6.3,13.1,8.8,21.8,5.3c11.2-4.5,17.7-14.7,21.6-22.1c10.4-19.8,22.1-41.2,36.5-67.3C354.7,399.9,346.9,394.6,339.1,389.4z
						"/>
				</g>
				<path class="st15" d="M417.4,393.3c23.8,34.7,41,60.9,47.1,70.7c1.2,1.9,4.3,6.9,4.4,13.7c0,2.8,0.2,9.7-4.4,14
					c-4.4,4.1-11.9,4.7-20.7,1.5c-11.3-4.1-16.6-15.3-20.4-23.2c-10.3-21.6-19.5-42.4-28-62.3C402.7,402.9,410,398.1,417.4,393.3z"
					/>
				<g>
					<path class="st9" d="M376.4,377.6c1.9,0.6,3.3,0.5,5.1-0.3C380.7,379.3,377.5,379.5,376.4,377.6z"/>
					<path class="st9" d="M384.8,384.7c-4.8-1.1-8.4-1.1-13.1-0.2C374,382,382.1,382.1,384.8,384.7z"/>
					<path class="st14" d="M372.3,360.9c-1.7-0.3-4.1-0.6-6.9-0.1c-3.3,0.6-5.6,2-5.8,1.6c-0.2-0.4,1.4-1.8,2.6-2.6
						c1.5-1.1,2.9-1.5,3.3-1.7c2.4-0.8,5.1-0.9,7.5-0.2c0,0.3,0,0.7,0,1.2C372.8,359.9,372.5,360.5,372.3,360.9z"/>
					<path class="st14" d="M385,357.1c1.5-0.4,4.3-1,7.4,0c3.6,1.2,6.2,4,5.9,4.5c-0.2,0.4-2.1-0.8-5.4-1.4c-3-0.6-5.6-0.4-7.3-0.2
						c-0.5-0.8-0.6-1.4-0.6-1.8C385,357.8,385,357.1,385,357.1L385,357.1z"/>
					<g>
						<path d="M364.2,366.3c2.6,1.2,5,1.1,7.6-0.3C370.3,368.7,365.8,368.9,364.2,366.3L364.2,366.3z"/>
					</g>
					<g>
						<path d="M386.4,365.3c2.7,1.6,5.3,1.4,7.9-0.2C392.9,367.9,388.1,368.2,386.4,365.3L386.4,365.3z"/>
					</g>
				</g>
			</g>
		</g>
		<g>
			<g>
				<rect x="83.8" y="499.9" class="st16" width="539.6" height="17.2"/>
			</g>
			<g>
				<rect x="586.5" y="410.6" class="st17" width="23.1" height="83.1"/>
				<polygon class="st18" points="586.5,410.6 609.6,493.7 586.5,493.7 				"/>
				<g>
					<path class="st18" d="M591.8,469.4c0-4.4,3.3-8,7.5-8.6c-0.4-0.1-0.8-0.1-1.2-0.1c-4.8,0-8.7,3.9-8.7,8.7
						c0,4.8,3.9,8.7,8.7,8.7c0.4,0,0.8-0.1,1.2-0.1C595.1,477.4,591.8,473.8,591.8,469.4z"/>
					<path class="st19" d="M606.9,469.4c0-4.4-3.3-8-7.5-8.6c-4.2,0.6-7.5,4.2-7.5,8.6c0,4.4,3.3,8,7.5,8.6
						C603.6,477.4,606.9,473.8,606.9,469.4z"/>
				</g>
				<rect x="590.6" y="425.7" class="st3" width="13.9" height="21.6"/>
				<rect x="590.6" y="449.9" class="st3" width="13.9" height="5.6"/>
				<g>
					<path class="st20" d="M601.9,430.3H593c-0.4,0-0.8-0.4-0.8-0.8s0.4-0.8,0.8-0.8h8.9c0.4,0,0.8,0.4,0.8,0.8
						S602.3,430.3,601.9,430.3z"/>
				</g>
				<g>
					<path class="st20" d="M601.9,434H593c-0.4,0-0.8-0.4-0.8-0.8s0.4-0.8,0.8-0.8h8.9c0.4,0,0.8,0.4,0.8,0.8S602.3,434,601.9,434z"
						/>
				</g>
				<g>
					<path class="st20" d="M601.9,437.7H593c-0.4,0-0.8-0.4-0.8-0.8s0.4-0.8,0.8-0.8h8.9c0.4,0,0.8,0.4,0.8,0.8
						S602.3,437.7,601.9,437.7z"/>
				</g>
				<g>
					<path class="st20" d="M601.9,441.4H593c-0.4,0-0.8-0.4-0.8-0.8s0.4-0.8,0.8-0.8h8.9c0.4,0,0.8,0.4,0.8,0.8
						S602.3,441.4,601.9,441.4z"/>
				</g>
				<g>
					<path class="st20" d="M601.9,445.1H593c-0.4,0-0.8-0.4-0.8-0.8s0.4-0.8,0.8-0.8h8.9c0.4,0,0.8,0.4,0.8,0.8
						S602.3,445.1,601.9,445.1z"/>
				</g>
			</g>
			<g>
				
					<rect x="558.5" y="408.6" transform="matrix(0.9876 0.1569 -0.1569 0.9876 77.665 -83.8438)" class="st18" width="23.1" height="83.1"/>
				<g>
					<path class="st18" d="M561.2,466.3c0.7-4.4,4.5-7.4,8.8-7.3c-0.4-0.1-0.7-0.2-1.1-0.3c-4.7-0.8-9.2,2.5-9.9,7.2
						c-0.8,4.7,2.5,9.2,7.2,9.9c0.4,0.1,0.8,0.1,1.2,0.1C563.2,474.7,560.5,470.6,561.2,466.3z"/>
					<path class="st19" d="M576.1,468.6c0.7-4.4-2-8.4-6.1-9.7c-4.3-0.1-8.1,2.9-8.8,7.3c-0.7,4.4,2,8.4,6.1,9.7
						C571.6,476,575.4,473,576.1,468.6z"/>
				</g>
				
					<rect x="565.1" y="423.8" transform="matrix(0.9876 0.1568 -0.1568 0.9876 75.2499 -84.35)" class="st3" width="13.9" height="21.6"/>
				
					<rect x="562.6" y="447.9" transform="matrix(0.9876 0.1568 -0.1568 0.9876 77.7384 -83.7525)" class="st3" width="13.9" height="5.6"/>
				<g>
					<path class="st20" d="M577.4,429.3c0,0-0.1,0-0.1,0l-8.8-1.4c-0.4-0.1-0.7-0.5-0.7-0.9c0.1-0.4,0.5-0.7,0.9-0.7l8.8,1.4
						c0.4,0.1,0.7,0.5,0.7,0.9C578.1,429,577.8,429.3,577.4,429.3z"/>
				</g>
				<g>
					<path class="st20" d="M576.8,432.9c0,0-0.1,0-0.1,0l-8.8-1.4c-0.4-0.1-0.7-0.5-0.7-0.9s0.5-0.7,0.9-0.7l8.8,1.4
						c0.4,0.1,0.7,0.5,0.7,0.9C577.5,432.6,577.2,432.9,576.8,432.9z"/>
				</g>
				<g>
					<path class="st20" d="M576.2,436.6c0,0-0.1,0-0.1,0l-8.8-1.4c-0.4-0.1-0.7-0.5-0.7-0.9c0.1-0.4,0.5-0.7,0.9-0.7l8.8,1.4
						c0.4,0.1,0.7,0.5,0.7,0.9C577,436.3,576.6,436.6,576.2,436.6z"/>
				</g>
				<g>
					<path class="st20" d="M575.7,440.2c0,0-0.1,0-0.1,0l-8.8-1.4c-0.4-0.1-0.7-0.5-0.7-0.9c0.1-0.4,0.5-0.7,0.9-0.7l8.8,1.4
						c0.4,0.1,0.7,0.5,0.7,0.9C576.4,439.9,576,440.2,575.7,440.2z"/>
				</g>
				<g>
					<path class="st20" d="M575.1,443.9c0,0-0.1,0-0.1,0l-8.8-1.4c-0.4-0.1-0.7-0.5-0.7-0.9c0.1-0.4,0.5-0.7,0.9-0.7l8.8,1.4
						c0.4,0.1,0.7,0.5,0.7,0.9C575.8,443.6,575.5,443.9,575.1,443.9z"/>
				</g>
			</g>
			<polygon class="st19" points="527.1,496.7 527.1,445.8 530.7,445.8 530.7,493.3 609,493.3 609,445.8 612.2,445.8 612.2,496.7 			
				"/>
			<polygon class="st21" points="623.4,505.6 83.8,506.3 83.8,500.4 623.4,499.6 			"/>
			<g>
				<g>
					<path class="st22" d="M322,494.3H218.8c-1.7,0-3-1.3-3-3v-63.9c0-1.7,1.3-3,3-3H322c1.7,0,3,1.3,3,3v63.9
						C325,492.9,323.7,494.3,322,494.3z"/>
					<path class="st23" d="M320.5,494.3H217.3c-1.7,0-3-1.3-3-3v-63.9c0-1.7,1.3-3,3-3h103.2c1.7,0,3,1.3,3,3v63.9
						C323.5,492.9,322.2,494.3,320.5,494.3z"/>
					<path class="st3" d="M278.2,461.8c0,4.8-4.2,8.7-9.3,8.7s-9.3-3.9-9.3-8.7s4.2-8.7,9.3-8.7S278.2,457,278.2,461.8z"/>
					<polygon class="st23" points="222.6,493.6 223.2,499.9 362,499.9 362,493.6 					"/>
					<polygon class="st24" points="322.4,493.6 322.6,499.9 369.5,499.9 369.5,493.6 					"/>
				</g>
				<polygon class="st24" points="222.7,499.9 319.3,493.6 222.6,494.3 				"/>
			</g>
		</g>
		<g>
			<g>
				<polygon class="st19" points="190.2,501.5 98.9,501.5 100.4,482.4 190.9,482 				"/>
				<polygon class="st25" points="190.2,501.5 135.3,501.5 100.1,485.8 100.4,482.4 190.9,482 				"/>
				<polygon class="st26" points="176.8,486 176.5,497.5 148.9,497.5 148.9,486.4 				"/>
				<polygon class="st26" points="146.4,486.4 146.6,497.5 142.2,497.5 141.8,486.4 				"/>
			</g>
			<g>
				<g>
					<polygon class="st27" points="186.4,482 188.7,464.3 183.5,464.8 93.9,473.7 94.1,475.4 184.9,467.3 182.9,480.3 94.4,480.4 
						94.3,481.8 					"/>
					<path class="st28" d="M184.1,472.8c0,0-3.5-6.3-6.7-4.8c-3.2,1.6-3.5,5.2-3.5,5.2l0.9,0.6c0,0,0.8-5,3.5-4.9
						c2.7,0,4.3,4.9,4.3,4.9s0.6,3.3-2.1,4.9c-2.7,1.6-4.4,0.2-4.8-0.5c-0.4-0.7-0.7-2.8-0.7-2.8l-1,0.1c0,0,0.1,3,1.2,4
						c1.2,1,3.5,1.5,5.5,0.6c1.4-0.6,2.9-2.5,2.9-2.5L184.1,472.8z"/>
				</g>
			</g>
		</g>
		<g>
			<g>
				<g>
					<polygon class="st29" points="488.6,472.9 489,475.3 492,476.9 489.7,476.8 540.6,496.8 543.3,495.9 544.5,489.2 					"/>
					<polygon class="st18" points="519.6,409.8 488.6,472.9 538.7,493.4 577.6,416.7 					"/>
					<polygon class="st30" points="577.6,416.7 546.4,430.5 536.8,492.6 508,480.1 488.6,472.9 519.6,409.8 					"/>
					<path class="st3" d="M577.6,416.7l1.8,1.8l-0.9,1.8l2.2-1.7l0.8,1.8c0,0-37.8,75.5-38.2,75.5c-0.4,0-2-0.1-2-0.1l1.5-2.3
						l-2.5,2.3l-1.6-2.4L577.6,416.7z"/>
				</g>
				<polygon class="st31" points="569.2,437.2 579.6,417.7 582.3,416.8 				"/>
				<polygon class="st31" points="551.8,472.8 569.1,439.3 569.1,444 				"/>
			</g>
			<g>
				<path class="st3" d="M456,488.4l16-0.1c8.2-6.5,25-46.1,25-46.1l57.3-2c0,0-21.8,50.6-29,56c-7.2,5.4-26.3-8.1-26.3-8.1
					L456,488.4z"/>
				<g>
					<polygon class="st32" points="531.1,443.9 548.7,443.3 548,444.2 530.6,444.7 					"/>
					<polygon class="st32" points="529.3,447.2 547.7,446.5 547,447.4 528.8,448 					"/>
					<polygon class="st32" points="533.6,450.3 546.6,449.7 546,450.6 533,451.1 					"/>
					<polygon class="st32" points="508.2,454.2 526.6,453.5 526,454.4 507.6,454.9 					"/>
					<polygon class="st32" points="495.5,457.7 543.6,456.2 543,457.1 495,458.4 					"/>
					<polygon class="st32" points="493.7,460.9 541.8,459.4 541.2,460.3 493.2,461.7 					"/>
					<polygon class="st32" points="492,464.1 540.1,462.7 539.4,463.6 491.4,464.9 					"/>
					<polygon class="st32" points="490.6,467.4 538.7,465.9 538.1,466.8 490.1,468.1 					"/>
					<polygon class="st32" points="489.4,470.6 537.5,469.1 536.9,470 488.9,471.4 					"/>
					<polygon class="st32" points="487.9,473.8 536,472.4 535.4,473.3 487.4,474.6 					"/>
					<polygon class="st32" points="485.9,477.1 534,475.6 533.4,476.5 485.4,477.9 					"/>
					<polygon class="st32" points="484,480.3 532.1,478.9 531.5,479.8 483.5,481.1 					"/>
					<polygon class="st32" points="482.3,483.5 530.4,482.1 529.7,483 481.7,484.3 					"/>
					<polygon class="st32" points="479.6,486.8 527.7,485.3 527,486.2 479,487.6 					"/>
					<polygon class="st32" points="477.8,490 525.9,488.6 525.3,489.5 477.3,490.8 					"/>
					<polygon class="st32" points="476,493.3 524.1,491.8 523.5,492.7 475.5,494 					"/>
					<polygon class="st32" points="474.3,496.5 522.3,495.1 521.7,495.9 473.7,497.3 					"/>
				</g>
				<path class="st29" d="M456,488.4c0,0,3.6,5.4,9.3,7.9c5.7,2.5,9.8,2.3,9.8,2.3l45.9-0.6c0,0-8.8-1.8-14.3-5.1
					c-5.6-3.2-7.8-4.8-7.8-4.8L456,488.4z"/>
			</g>
		</g>
	</g>
	<g>
		<g>
			<defs>
				<polygon id="SVGID_1_" points="815.2,517.9 489.7,520.7 480.7,201.8 806.1,195.2 				"/>
			</defs>
			<clipPath id="SVGID_00000047042762384315398140000017892682736647979947_">
				<use xlink:href="#SVGID_1_"  style="overflow:visible;"/>
			</clipPath>
			<g style="clip-path:url(#SVGID_00000047042762384315398140000017892682736647979947_);">
				<path class="st34" d="M658.5,244.2c-0.9,1.5-1.8,3.1-2.6,4.6c-0.1,1.6-0.2,3.8-0.3,6.6c-0.4,9.7-0.4,18.6-0.2,26.4
					c0.1,5.6,0.4,9,0.5,12.5c0.3,8.7,0.6,21.3,0.2,37.5c13-1.5,26-2.9,38.9-4.4c-0.7-30.9-1.5-61.9-2.2-92.8
					C681.4,237.8,670,241,658.5,244.2z"/>
				
					<pattern  id="SVGID_00000038373685647518250850000018286100059129006780_" xlink:href="#New_Pattern_Swatch_2" patternTransform="matrix(1 0 0 1 -29 -13.6714)">
				</pattern>
				<path style="fill:url(#SVGID_00000038373685647518250850000018286100059129006780_);" d="M658.5,244.2c-0.9,1.5-1.8,3.1-2.6,4.6
					c-0.1,1.6-0.2,3.8-0.3,6.6c-0.4,9.7-0.4,18.6-0.2,26.4c0.1,5.6,0.4,9,0.5,12.5c0.3,8.7,0.6,21.3,0.2,37.5
					c13-1.5,26-2.9,38.9-4.4c-0.7-30.9-1.5-61.9-2.2-92.8C681.4,237.8,670,241,658.5,244.2z"/>
				<g>
					<path class="st8" d="M544.3,313c-0.6-3.7-4.2-8.1-7.2-10.2c-3.1-2.1-4.8-3.8-7.9-5.8c-2.8-1.8-5.5-3.9-7.9-6.3
						c-0.3-0.3-0.6-0.1-0.7,0c-1.1,1.4-1.2,3.5-0.6,5.2c0.6,1.7,1.8,3.2,2.9,4.6c2,2.5,4,5,6,7.5c-5.5-0.9-9.2-1.1-13.1-3.5
						c-4.3-2.6-8.8-5.5-13.8-5.4c-1,0-1.6,0.7-2.2,1.4c3.3,2.6,6.6,4.9,10.4,6.8c4.7,2.4,4.1,11.3,8.6,13.9
						c7.6,4.4,17.9,4.7,26.5,5.8c1-1.9,1.3-4.4,1.3-6.6C545,318.2,544.7,315.7,544.3,313z"/>
					<path class="st8" d="M521.3,310.7c-3.3-1.7-7.3-2.2-10.4-4.2c-1.8-1.2-3.8-2.2-5.9-3c-0.9-0.3-1.8-0.6-2.7-0.6
						c-0.9,0-1.2,1-1.7,1.7c-0.1,0.2,17,12.2,18.6,13.3C521.1,316.1,521.8,313.1,521.3,310.7z"/>
					<path class="st8" d="M524,315.3c-3.3-1.7-7.3-2.2-10.4-4.2c-1.8-1.2-3.8-2.2-5.9-3c-0.9-0.3-1.8-0.6-2.7-0.6
						c-0.9,0-1.2,1-1.7,1.7c-0.1,0.2,17,12.2,18.6,13.3C523.7,320.7,524.5,317.8,524,315.3z"/>
					<path class="st8" d="M525.9,316.7c-3-1-6.6-0.9-9.4-2.2c-1.7-0.8-3.6-1.4-5.4-1.8c-0.8-0.2-1.6-0.3-2.4-0.2
						c-0.8,0.1-0.9,1-1.3,1.7c0,0.1,3.5,1.9,8.1,5.1c2.8,2,6.8,2.9,9.6,3.7C526.4,321.4,526.6,318.8,525.9,316.7z"/>
				</g>
				<path class="st8" d="M561.2,329.1c-5.9-4.6-11.5-9.4-17-14.4l-13.8,6.2c7.4,6.2,14.4,12.8,21,19.8L561.2,329.1z"/>
				<path class="st36" d="M675.5,342.3c-10.3,14.4-38.2,36.7-62.8,45.7c-10.2-2.3-15.7-15.6-21.3-22.8c9.5-8.5,19.2-17.7,29.2-27.6
					c6.6-6.6,12.7-18.1,26.7-28.2c2.8-2,5.2-3.5,6.8-4.5c1.8,4.5,4,9.2,6.6,14.1C665.5,328.1,670.6,335.9,675.5,342.3z"/>
				<g>
					<path class="st37" d="M644.4,704.2c-0.7,0.7-1.4,1.5-2.2,2.2c-0.2,2.6,0.4,4.1,1.2,4.9c0,0,0.6,0.7,4.4,2.5l0,0
						c6.6,0.4,14.9,0.4,24.3-1.3c6.4-1.1,12-2.7,16.6-4.3c0.6-1,1.1-2,1.7-3c0.6,0.8,1.2,1.6,1.8,2.3c3.1-1.1,6.2-2.2,9.3-3.3
						l-0.5-6.8l-10.1-2.9L644.4,704.2z"/>
					<path class="st37" d="M693.2,664.9c-7.1,1.1-13.3,1.3-20.4,2.5c-0.1,5.6-2.2,16.4-3.4,21.7l27.8-6.3
						C695.6,676.9,694.8,670.8,693.2,664.9z"/>
					<path class="st37" d="M696.4,679.3c-6-3.2-12.3-1.1-18.9,0.4l-4.9,1c-5,8.8-8.6,12.9-17.9,16.9c-2.8-0.8-6.8,0.1-9,1.8
						c-2.3,1.8-3.6,4.8-3.3,7.7c5.2,1.3,10.5,3,15.7,4.4c5.6,1.5,18.8-1.9,28.2-4.9c0,0,10.7-6.8,15-9.3
						C700.2,692.2,698.5,684.5,696.4,679.3z"/>
				</g>
				<g>
					<path class="st37" d="M783.2,708.9l14.1,2.3c7.3,1,14.8,0.2,21.8-2.2c0.5-0.2,1.2-0.4,1.9-0.8c1.2-0.7,2-1.6,2.4-2.2
						c0-1.7,0-3.5,0-5.2c-0.6-0.2-1.2-0.3-1.8-0.5c-15.5-2.7-31.1-5.4-46.6-8.1l-9.1,8.4c0.4,1.9,0.3,3.7,0.7,5.6
						c3,0.9,5.7,1.6,8.8,1.7l2.1-4.1L783.2,708.9z"/>
					<path class="st37" d="M765.6,667c7.1-1,13.1-2.6,20.2-3.6c1.7,5.3,6.9,15,9.6,19.7l-28.4,2.2
						C766.8,679.2,765.8,673.1,765.6,667z"/>
					<path class="st37" d="M765.8,700.6c4.4,2.2,13.8,3.7,13.8,3.7c9.5,2.4,23,5.1,28.4,3.3c5.1-1.7,10.2-3.8,15.4-5.3
						c0.1-2.9-1.4-5.8-3.7-7.5c-2.3-1.6-6.4-2.2-9.1-1.3c-5.6-2.7-15.9-11.7-15.9-11.7l-7.9-4.8c-6.7-1.1-13.1-2.8-18.9,0.7
						C766,682.8,765,695.6,765.8,700.6z"/>
				</g>
				<path class="st3" d="M755.1,530.7c-36.4,2.3-72.8,4.6-109.2,6.9c-0.5-67.1,1.5-102.9,3.7-123.4c0.9-8.8,2.1-17,1.8-29.8
					c-0.7-32.9-3.7-52.5-3.7-52.5c-0.7-4.7-2.5-16,3.9-24.2c0.3-0.3,1.2-1.5,2.5-2.7c7.2-6.5,17.2-7.1,22-8.9
					c0.2-0.1,1.8-0.7,4.1-1.4c0.2-0.1,0.3-0.1,0.3-0.1c9.6-3.3,17.4-5.5,22.6-6.8c7,2.8,14.8,5.6,23.6,7.9c7.7,2,15.4,3.5,23.9,5.2
					c-0.1,14.2,0,28.8,0.5,43.8c0.3,11.2,0.8,22.1,1.5,32.8C753.4,428.5,754.3,479.6,755.1,530.7z"/>
				<path class="st8" d="M682.5,308c-2.4-3.9-4.7-7.8-7.1-11.7c2.2-0.8,4.3-1.5,6.5-2.3c-0.2-1.5-0.4-3-0.7-4.5
					c-0.8-4.9-1.8-9.5-2.8-14c8.8-3.8,17.6-7.6,26.5-11.4c0.2,5.1,0.8,10.9,1.8,17.1c0.8,4.8,1.8,9.3,2.9,13.3
					c-6.9,3.9-13.8,7.7-20.7,11.6C686.8,306.8,684.6,307.4,682.5,308z"/>
				<path class="st38" d="M706.3,278.8c-0.5-4.6-1.1-9.2-1.6-13.8c-8.7,3.5-17.5,7-26.2,10.5c0.6,2.5,1.2,5.1,1.8,7.8
					c0.8,3.8,1.3,7.4,1.7,10.7c3.4-0.9,8.3-2.5,13.5-5.8C700.5,285,704,281.5,706.3,278.8z"/>
				<g>
					<path class="st8" d="M701.6,262.4c-3,4.2-7.5,7.3-13,8.4c-11,2.4-21.8-4-25.2-14.4c-0.2-0.7-0.4-1.4-0.6-2.2l0,0
						c-0.1-0.6-0.2-1.2-0.3-1.8c-1.4-11.1,5.8-21.6,16.9-23.9c11.7-2.5,23.2,4.9,25.8,16.6C706.7,251.3,705.2,257.6,701.6,262.4z"/>
					<path class="st8" d="M663.5,246.5c-1,6.1-0.8,11.2-0.4,14.7c0.4,4.2,1.3,7.5,2,10.2c0.5,2.1,1.3,4.8,2.6,7.9
						c0.8,1.9,1.6,3.4,2.6,5c0.6,0.9,1.1,1.6,1.5,2.1c1.8,1.7,3.5,2.2,4.4,2.3c2.6,0.4,5.5-0.7,8.4-1.8l0,0
						c6.4-2.3,11.4-4.2,14.8-9.4c1.5-2.3,2.2-4.4,2.5-5.7c2.1-7.2,0.3-13.6-0.8-16.6L663.5,246.5z"/>
					<g>
						<path class="st39" d="M672.5,270.2c-1.2-0.1-2.2-1.2-2.1-1.5c0.1-0.2,1,0.2,2.5,0.1c1.7-0.1,2.5-0.8,2.6-0.6
							C675.7,268.5,674.2,270.4,672.5,270.2z"/>
						<path class="st37" d="M681.7,254c0.9-0.5,2.2-1.1,3.8-1.7c1.5-0.6,2.5-1,3.6-1.2c3.8-0.8,6.7,0.9,6.9,0.4
							c0.2-0.4-1.6-1.9-3.9-2.6c-3.8-1.1-7.1,0.5-8.1,1c-1.8,0.9-3.1,2.1-3.9,2.9c0.1,0.2,0.2,0.4,0.4,0.7
							C681,254,681.5,254,681.7,254z"/>
						<path class="st37" d="M672.7,254.1c0.1,0.2,0.5,0.8,0.4,1.6c0,0.3-0.1,0.5-0.2,0.7c-1.3-0.8-3.7-2-6.8-2.1
							c-1.2,0-2.2,0.1-3.1,0.2c-0.1-0.4-0.2-0.8-0.2-1.2c-0.1-0.3-0.1-0.6-0.1-0.9c0.3-0.1,0.7-0.2,1.2-0.3c1.9-0.4,3.5,0,4.7,0.3
							C669.6,252.6,671,253.1,672.7,254.1z"/>
					</g>
					<g>
						<path class="st38" d="M683,277.1c-2.6-0.1-5.5,0-8.5,0.3c-0.9,0.1-1.8,0.2-2.7,0.3c0-0.4,0.1-2.2,1.5-3.2
							c1-0.8,2.1-0.8,2.8-0.8C679.6,273.6,682.3,276.3,683,277.1z"/>
					</g>
					<path class="st37" d="M701.1,260.1c-0.1-0.1-0.2-0.2-0.4-0.2c-0.3,0-0.5,0.1-0.6,0.1c0.3,5.3-2,10.2-6,12.7
						c-3,1.8-6,1.7-7.4,1.6c-2.9-1.7-5.6-2.4-7.3-2.7c-2.9-0.5-5.5-1-7.8,0.4c-1.6,1-2.4,2.5-2.8,3.5c-0.7-0.6-1.4-1.4-2.1-2.4
						c-1.6-2.2-2.4-4.5-2.7-6c0.4,2.3,1.1,5.5,2.4,9.2c2.1,6.1,3.2,9.2,5.8,11.1c5.4,4,14.1,1.1,18.6-1.6c5.8-3.4,8.6-8.5,9.6-10.8
						c0.5-1.9,1-4.2,1.2-6.9C701.6,265,701.4,262.3,701.1,260.1z M685.1,279.7c-1,2.2-5.6,2.5-6.9,0.7c-0.2-0.3-0.5-0.9-0.4-2
						c-1.2,0.1-2.5,0.2-3.7,0.4c0.6,0.8,0.5,1.8,0,2.3c-0.6,0.6-1.8,0.4-2.4,0.1c-1.3-0.7-1.3-2.3-1.3-2.4c-0.1-0.8-0.1-2.9,1.3-4.4
						c2.4-2.7,7.2-1.2,8-1c2.7,0.8,4.4,2.6,5.3,3.6C685.5,278.6,685.2,279.5,685.1,279.7z"/>
				</g>
				<path class="st37" d="M660.1,243.8c5.7-1.8,10.4-2.2,13.6-2.3c6.3-0.1,10.9,1,15.8-1.8c1.9-1.1,3.2-2.4,4-3.3
					c-0.5,2.1-0.8,5.1,0.4,8.2c1,2.5,2.3,3.4,3.7,5.8c1.2,2,2.4,5.2,2.4,9.9c1.1-0.2,2.3-0.4,3.4-0.6c-0.7,2.2-1.3,4.4-2,6.6
					c1.5,3.5,2.9,7,4.4,10.4c1.2-6.9,3.3-18.9,4.3-26.9c0.1-0.5,0.1-1.6,0.2-2.9c0.5-5.1-1.5-10.4-5-14.2c-3.5-3.8-8.3-6.3-13.4-7.3
					C679.8,222.9,665.2,232.3,660.1,243.8z"/>
				<g>
					<path class="st8" d="M700.9,254.5c0.9-0.9,1.9-1.6,3.1-1.9c1.2-0.3,2.6-0.1,3.5,0.7c1.3,1,1.7,2.8,1.6,4.4
						c-0.3,4.3-3.8,8.1-8.1,8.8c-0.7-0.3-1-1.1-0.8-1.7C701.3,261.4,701.3,257.9,700.9,254.5z"/>
					<path class="st38" d="M703.5,256c1-0.6,2.3-0.5,3.1,0.2c1.1,0.9,1.2,2.6,0.6,3.9s-1.9,2.2-3.2,2.8c-0.7,0.3-2.3,0.7-2.5-0.5
						c-0.1-0.6,0.5-0.9,0.8-1.3C703.5,259.4,701.3,257.4,703.5,256z"/>
				</g>
				<path class="st40" d="M688.3,314.3c-2.7-0.3-5.3-0.5-8-0.8c-1.1,6.8-1.9,14.1-2.5,21.9c-0.8,11.2-1,21.5-0.6,31
					c1.6,1.6,3.3,3.2,4.9,4.8c1.6-1.7,3.2-3.5,4.9-5.2c-0.2-9.9-0.1-20.2,0.3-30.9C687.5,327.9,687.8,321,688.3,314.3z"/>
				<path class="st36" d="M791.7,389.1c-5.6-15.5-12.3-32.1-20.2-49.3c-6.4-13.8-12.9-26.8-19.4-38.7c-2.4,0.7-10.7,17.5-14.7,37.4
					c-2.1,10.1-0.7,17.3-0.7,17.3c5.6,8.7,11.2,17.9,16.8,27.6c4.4,7.5,8.5,14.9,12.4,22.2c8.8,1.8,17.3-0.7,22-6.7
					C790.7,395.2,791.5,391.4,791.7,389.1z"/>
				<path class="st40" d="M711.2,290.8c3.4,1.1,6.8,2.2,10.2,3.3c-11,6.7-22,13.5-33.1,20.2c-1.4,0.1-3,0.2-4.7,0.1
					c-1.1,0-2.1-0.1-3.1-0.2c-1.4-2.1-3.3-5-4.7-7.1c-1.9-2.9-3.9-5.8-5.8-8.7c2.4-0.9,4.9-1.8,7.3-2.7c2.5,3.3,5.1,6.7,7.6,10
					C693.7,300.7,702.4,295.7,711.2,290.8z"/>
				<g>
					
						<rect x="710.7" y="389.2" transform="matrix(0.211 -0.9775 0.9775 0.211 162.8097 1069.6917)" class="st18" width="66.5" height="89.5"/>
					<polygon class="st17" points="788.8,412.2 790.1,415.9 776.1,470.9 697.1,457.2 695.4,453.5 708,394.8 					"/>
				</g>
				<path class="st38" d="M756.4,453.3c0.8,3.2,1.6,8.2,0,13.7c-0.3,1.3-0.8,2.4-1.2,3.5c-0.3,0.3-0.7,0.9-1.3,1.3
					c-2.5,2-5.8,1.5-8,1.1c-2.5-0.4-5.2-0.8-7-3.1c-0.9-1.1-1.2-2.4-1.4-3.2c0.5,0.1,1,0.2,1.5,0.3c0-1.7-0.1-3.6-0.5-5.7
					c-0.5-2.8-1.2-5.1-1.9-7c1.8-1.9,3.4-2.7,4.6-3c1.3-0.4,2.7-0.4,3.8-1.5c0.6-0.6,0.9-1.2,1-1.7
					C749.5,449.8,753,451.5,756.4,453.3z"/>
				<path class="st38" d="M745.9,456.3c-2.1,1.5-4.1,2.9-6.2,4.4c-0.8,0.6-1.8,1.8-2.4,2.6c0,0-0.4,1.6-0.5,2.3
					c-0.2,1.4-0.7,3.3-1.5,4.4c-0.5,0.7-1.8,1.4-2.9,1.7c-0.7,0.1-1.3-0.5-1.2-1.2c0.5-2.5,0.2-5.3,0.2-8c0,0,0-0.1,0-0.1
					c2.4-4.1,4.8-7.1,4.8-7.1c0.2-0.3,0.5-0.7,1-1.2c0.8-0.2,2.7-0.6,4.9,0C744.1,454.7,745.3,455.8,745.9,456.3z"/>
				<path class="st36" d="M535.9,338.2c3.1-6,6.9-14,14.2-20.5c7.8,5.7,11.7,8.9,17.5,13c1.4,1,6,4.1,10.7,7.1
					c6.8,4.3,16.9,10,30.6,15.9c1.3,11.5,2.6,22.9,3.9,34.4c-0.8,0.6-2.7,1.7-5.4,1.8c-2,0.1-3.6-0.4-4.4-0.8
					c-9.8-5.6-20.5-12.3-31.6-20.5C557.3,358.3,545.6,347.8,535.9,338.2z"/>
				<path class="st36" d="M740.7,447c0,0,12.8,7.4,18.7,7.4c5.5-6,11.7-14,17.4-24c9-15.9,13-30.7,15-41.4c-1.7-1.9-3.5-3.3-5-4.3
					c-10.8-6.8-23.9-2.1-26.6-1C751.8,410.9,749,419.9,740.7,447z"/>
				<g>
					<path class="st3" d="M683.4,258.7c0.7,0.4,1.9,1,3.5,0.9c2.7-0.1,4.4-1.9,4.8-2.5c-1.1-0.9-2.2-1.5-3.3-1.7
						c-0.5-0.1-1.1-0.2-1.9,0C684.6,256,683.7,258.2,683.4,258.7z"/>
					<path class="st41" d="M684.8,258.1c0.3,0.7,1.2,1.7,2.4,1.5c1.5-0.3,1.8-2.2,1.7-2.8c-0.1-0.4-0.3-0.8-0.6-1
						c-0.1-0.1-0.2-0.2-0.4-0.3c-0.3-0.1-0.5-0.1-0.6-0.1c-0.3,0-0.7,0-1.2,0.2c-0.3,0.1-0.7,0.3-1,0.7c-0.1,0.1-0.4,0.6-0.4,1.2
						C684.6,257.5,684.7,257.8,684.8,258.1z"/>
					<path d="M688.1,257.3c0.1,0.7-0.5,1.4-1.2,1.5c-0.7,0-1.3-0.5-1.4-1.2c-0.1-0.7,0.4-1.4,1.1-1.5
						C687.3,255.9,688,256.5,688.1,257.3z"/>
					<path class="st3" d="M688.2,256.8c0,0.3-0.1,0.5-0.4,0.6c-0.2,0-0.5-0.2-0.5-0.5c0-0.3,0.1-0.5,0.4-0.5
						C688,256.3,688.2,256.5,688.2,256.8z"/>
					<path class="st42" d="M683.4,258.7c0.3-0.5,1.2-2.1,2.9-2.7c2.7-1,5.1,1,5.4,1.2c-2.1-2.3-4.8-2.9-6.6-1.5
						C684,256.5,683.6,258.1,683.4,258.7z"/>
				</g>
				<g>
					<path class="st3" d="M672.4,259.6c-0.2,0.2-1.7,2.1-4.2,2c-1.7-0.1-2.9-1-3.2-1.3c0.2-0.4,0.8-1.4,1.9-2c0.3-0.2,1-0.6,2.1-0.6
						C671,257.8,672.2,259.4,672.4,259.6z"/>
					<path class="st41" d="M670.4,258.3c0.6,1,0.2,2.4-0.8,3c-1,0.6-2.5,0.3-3.1-0.8c-0.2-0.4-0.2-0.7-0.2-1.1
						c0-0.1,0.1-0.4,0.2-0.7c0.1-0.1,0.1-0.2,0.2-0.2c0.4-0.2,1-0.5,1.8-0.5c0.7,0,1.2,0.1,1.6,0.2
						C670.3,258.2,670.3,258.3,670.4,258.3z"/>
					<path d="M667.4,260.7c0.4,0.5,1.1,0.7,1.7,0.3c0.6-0.4,0.7-1.3,0.2-1.9c-0.4-0.5-1.2-0.6-1.7-0.2
						C667.1,259.3,667,260.1,667.4,260.7z"/>
					<path class="st3" d="M668.8,259.1c0,0.2,0.2,0.4,0.4,0.3c0.2,0,0.3-0.2,0.3-0.4c0-0.2-0.2-0.4-0.4-0.3
						C668.8,258.7,668.7,258.9,668.8,259.1z"/>
					<path class="st42" d="M672.4,259.6c-1.3-1.4-3.2-1.9-4.8-1.4c-1.6,0.5-2.4,1.8-2.6,2.1c0.1-0.2,0.6-2.2,2.4-2.8
						C669.1,256.9,671.3,257.7,672.4,259.6z"/>
				</g>
			</g>
		</g>
		<rect x="50.4" y="515.3" class="st43" width="764.9" height="8.2"/>
	</g>
	<polyline class="st0" points="816.6,522 757.9,522 757.8,522 756.4,522 708.9,522 707.8,522 706.4,522 695,522 657.4,522 
		440.2,522 434.8,522 430.3,522 416.7,522 416,522 384.9,522 369.1,522 338.6,522 337.6,522 330.6,522 317.4,522 312,522 74.2,522 	
		"/>
</g>
<path class="st3" d="M655.6,254.6c2.3-2.5,6.4-6.4,12.8-8.7c13.6-5,25.9,1.5,28,2.7c0.4,3.2,1.1,7.9,1.6,13.7
	c1.4,15.6,1.5,27.8,1.1,43.6c-0.2,6.7-0.5,17.3-0.6,22.5c14.8,5.7,23.3,4.4,28.4,2c2.1-1,5.9-3.3,11.6-3.9c4.7-0.5,8.6,0.2,11.3,1
	c1.1-5.6,1.3-10.5,1.1-14.6c-1.2-24.5-16.1-29.4-38.2-69.2c-2.9-5.3-7.1-13.1-16-18.2c-2.4-1.4-10.2-5.7-20.1-4.2
	c-2.2,0.3-12.8,1.9-17.5,10.3c-0.4,0.7-0.6,1.2-0.9,1.9C656.5,237.3,654.5,244.1,655.6,254.6z"/>
<pattern  id="SVGID_00000158000380582186869470000001996887288064902306_" xlink:href="#New_Pattern_Swatch_3" patternTransform="matrix(1 0 0 1 -20 -2.1)">
</pattern>
<path style="fill:url(#SVGID_00000158000380582186869470000001996887288064902306_);" d="M655.6,254.6c2.3-2.5,6.4-6.4,12.8-8.7
	c13.6-5,25.9,1.5,28,2.7c0.4,3.2,1.1,7.9,1.6,13.7c1.4,15.6,1.5,27.8,1.1,43.6c-0.2,6.7-0.5,17.3-0.6,22.5c14.8,5.7,23.3,4.4,28.4,2
	c2.1-1,5.9-3.3,11.6-3.9c4.7-0.5,8.6,0.2,11.3,1c1.1-5.6,1.3-10.5,1.1-14.6c-1.2-24.5-16.1-29.4-38.2-69.2
	c-2.9-5.3-7.1-13.1-16-18.2c-2.4-1.4-10.2-5.7-20.1-4.2c-2.2,0.3-12.8,1.9-17.5,10.3c-0.4,0.7-0.6,1.2-0.9,1.9
	C656.5,237.3,654.5,244.1,655.6,254.6z"/>
<g>
	<path class="st45" d="M654,239.1c3.6-1.5,7.6-2.8,12.2-3.8c20.4-4.4,38.2,1.6,47.2,5.4"/>
	<path class="st45" d="M653.4,243.2c3.6-1.5,7.6-2.8,12.2-3.8c20.4-4.4,38.2,1.6,47.2,5.4"/>
</g>
</svg>
