<?xml version="1.0" encoding="utf-8"?>
<!-- Generator: Adobe Illustrator 26.0.1, SVG Export Plug-In . SVG Version: 6.00 Build 0)  -->
<svg version="1.1" id="Layer_1" xmlns="http://www.w3.org/2000/svg" xmlns:xlink="http://www.w3.org/1999/xlink" x="0px" y="0px"
	 viewBox="0 0 1000 1000" style="enable-background:new 0 0 1000 1000;" xml:space="preserve">
<style type="text/css">
	.st0{clip-path:url(#SVGID_00000133530255906704077210000015235210810036023462_);}
	.st1{clip-path:url(#SVGID_00000034059307095053996430000008481857590634364584_);fill:#A5E0DC;}
	.st2{clip-path:url(#SVGID_00000034059307095053996430000008481857590634364584_);fill:#00747D;}
	.st3{clip-path:url(#SVGID_00000034059307095053996430000008481857590634364584_);}
	.st4{fill:none;stroke:#FFFFFF;stroke-width:1.4981;stroke-miterlimit:10;}
	.st5{fill:#101010;}
	.st6{fill:#CC936D;}
	.st7{fill:#C6C6C6;}
	.st8{fill:#AF1919;}
	.st9{fill:#EF957D;}
	.st10{fill:#DD7A68;}
	.st11{fill:#FFA486;}
	.st12{fill:#E8E8E8;}
	.st13{fill:#FFFFFF;}
	.st14{fill:url(#SVGID_00000018224133473187262700000001164565938178203326_);}
	.st15{fill:#BA7D54;}
	.st16{fill:#AF7151;}
	.st17{fill:#513328;}
	.st18{fill:none;stroke:#000000;stroke-width:10.7132;stroke-linecap:round;stroke-linejoin:round;stroke-miterlimit:10;}
	.st19{fill:#81CCC6;}
</style>
<g>
	<g>
		<defs>
			<path id="SVGID_1_" d="M739.8,471.4c-10.6-18.9-23-35.6-35.9-49.6c-2.3-2.6-47.1-40.4-47.1-40.4c-1.3-1-2.5-2-3.7-3
				c-35.8-30-63-84.4-162.4-76.1c-46.3,3.9-76.6,22.7-98.3,48c-6.5,7.6-12.3,15.9-17.5,24.6c-15.9,26.6-26.5,57.2-37.3,84
				c-14.3,35.3-65.3,40.8-83.7,81.8c-16.8,19.3-25.5,49.7-29.9,71.9c-3.2,15.9-4.1,27.5-4.1,27.5c-5,111.2,94.9,196.3,197.9,227.1
				c23.1,6.9,46.3,11.1,68.5,12.2c10.5,0.5,20.8,0.4,30.7-0.4c2-0.2,4-0.4,6.1-0.6c1.4-0.2,2.8-0.3,4.2-0.5c1.2-0.1,2.4-0.3,3.6-0.5
				c0.7-0.1,1.3-0.2,2-0.3c0.6-0.1,1.3-0.2,1.9-0.3c33.4-5.1,70.8-16.8,105.1-34.7c0.2-0.1,0.3-0.2,0.5-0.3
				c55.3-29,102.5-74.3,111.5-134.9c8-39.6,19-62.7,19-121.9C772.9,545.7,739.8,471.4,739.8,471.4z"/>
		</defs>
		<clipPath id="SVGID_00000180326954183480529410000012862352430666796473_">
			<use xlink:href="#SVGID_1_"  style="overflow:visible;"/>
		</clipPath>
		<g style="clip-path:url(#SVGID_00000180326954183480529410000012862352430666796473_);">
			<g>
				<g>
					<g>
						<defs>
							<path id="SVGID_00000106855229903932609910000012414290290846137224_" d="M739.8,471.4c-10.6-18.9-23-35.6-35.9-49.6
								c-0.1,0.2-0.3,0.4-0.4,0.7c0.1-0.2,0.3-0.4,0.4-0.7c-2.3-2.6-47.1-40.4-47.1-40.4l0,0c-1.3-1-2.5-2-3.7-3
								c-35.8-30-63-84.4-162.4-76.1c-46.3,3.9-76.6,22.7-98.3,48c-6.5,7.6-12.3,15.9-17.5,24.6c-15.9,26.6-26.5,57.2-37.3,84
								c-14.3,35.3-65.3,40.8-83.7,81.8c-16.8,19.3-25.5,49.7-29.9,71.9c-3.2,15.9-4.1,27.5-4.1,27.5
								c-5,111.2,94.9,196.3,197.9,227.1c23.1,6.9,46.3,11.1,68.5,12.2c10.5,0.5,20.8,0.4,30.7-0.4c2-0.2,4-0.4,6.1-0.6
								c1.4-0.2,2.8-0.3,4.2-0.5c1.2-0.1,2.4-0.3,3.6-0.5c0.7-0.1,1.3-0.2,2-0.3c0.6-0.1,1.3-0.2,1.9-0.3
								c33.4-5.1,70.8-16.8,105.1-34.7c0.2-0.1,0.3-0.2,0.5-0.3c55.3-29,102.5-74.3,111.5-134.9c1.3-8.5,12.1-34.3,15.6-71.4
								C774.5,562.7,754.3,504.1,739.8,471.4z M662.8,428c0,0,0.1,0.1,0.1,0.1C662.9,428.1,662.8,428.1,662.8,428z"/>
						</defs>
						<clipPath id="SVGID_00000118385398134691455210000005905465690947926171_">
							<use xlink:href="#SVGID_00000106855229903932609910000012414290290846137224_"  style="overflow:visible;"/>
						</clipPath>
						<path style="clip-path:url(#SVGID_00000118385398134691455210000005905465690947926171_);fill:#A5E0DC;" d="M739.8,471.4
							c-10.6-18.9-23-35.6-35.9-49.6c-2.3-2.6-47.1-40.4-47.1-40.4c-1.3-1-2.5-2-3.7-3c-35.8-30-63-84.4-162.4-76.1
							c-46.3,3.9-76.6,22.7-98.3,48c-6.5,7.6-12.3,15.9-17.5,24.6c-15.9,26.6-26.5,57.2-37.3,84c-14.3,35.3-65.3,40.8-83.7,81.8
							c-16.8,19.3-25.5,49.7-29.9,71.9c-3.2,15.9-4.1,27.5-4.1,27.5c-5,111.2,94.9,196.3,197.9,227.1c23.1,6.9,46.3,11.1,68.5,12.2
							c10.5,0.5,20.8,0.4,30.7-0.4c2-0.2,4-0.4,6.1-0.6c1.4-0.2,2.8-0.3,4.2-0.5c1.2-0.1,2.4-0.3,3.6-0.5c0.7-0.1,1.3-0.2,2-0.3
							c0.6-0.1,1.3-0.2,1.9-0.3c33.4-5.1,70.8-16.8,105.1-34.7c0.2-0.1,0.3-0.2,0.5-0.3c55.3-29,102.5-74.3,111.5-134.9
							c8-39.6,19-62.7,19-121.9C772.9,545.7,739.8,471.4,739.8,471.4z"/>
						<path style="clip-path:url(#SVGID_00000118385398134691455210000005905465690947926171_);fill:#00747D;" d="M191.8,668.2H816
							v20.9L631.7,915.4c0,0-272.3-6.7-288.4-16.6c-16.1-10-140.5-216.4-140.5-216.4"/>
						<g style="clip-path:url(#SVGID_00000118385398134691455210000005905465690947926171_);">
							<ellipse class="st4" cx="387.2" cy="366.6" rx="13.9" ry="17.5"/>
						</g>
					</g>
				</g>
				<g>
					<g>
						<path class="st5" d="M505.8,1608.4c0.4,1.2,0.9,2.9,1,5c0,0.6,0,1.2,0,1.7c-0.1,1.5-0.9,2.9-2.2,3.7
							c-3.2,1.9-7.9,4.1-13.7,5.4c-11,2.4-20,0-27.6-2.1c-11.1-3-17.6-7.6-18.5-8.2c-1.2-0.9-2.7-2-5.8-4.2c-5.6-3.9-8.4-5.9-10.7-7
							c-8.5-4.3-11.1-3.1-15.8-7.7c-2.8-2.7-3.2-4.7-3.2-6c0-2.1,1.2-3.9,1.8-4.8c1-1.6,2.2-2.6,3-3.2c40.5,0.9,68.6,12.7,87.4,24.5
							C502.9,1606.4,504.4,1607.4,505.8,1608.4z"/>
						<g>
							<path class="st6" d="M417.5,1562.3c12.5-0.2,25.1-0.4,37.6-0.5c1.4-18.4,2.8-36.9,4.3-55.3c-14.2,0.2-28.4,0.4-42.5,0.5
								C417,1525.4,417.3,1543.8,417.5,1562.3z"/>
							<path class="st6" d="M455.6,1555.2c-0.2,2.1-0.2,5.3,1.2,8.7c1.6,4,4.4,6.3,6.1,7.8c11.7,10.1,22.1,21.7,22.1,21.7l0,0
								c15,11.6,20.8,13.5,20.3,17.1c-0.7,4.4-10.4,6.2-15.1,7.1c-11.1,2.1-20.6-0.3-31.7-3.1c-3.4-0.9-5.4-1.4-7.6-2.6
								c-6.9-3.7-9.4-9.7-27.3-18.8c-2.7-1.4-7.3-3.6-9-8.3c-0.2-0.5-0.3-0.9-0.3-1.3c-0.3-2.7,0.5-4.6,1.2-6.9
								c0-0.1,1.1-3.2,1.6-6.1c0.5-2.6,0.3-3.9,0.4-8.6c0-2,0.1-5,0.2-8.6C430.3,1553.9,443,1554.5,455.6,1555.2z"/>
						</g>
						<path class="st5" d="M417.3,1590.7c12.6-5,25.4-10.6,38.5-17c2.4-1.2,4.8-2.4,7.1-3.5c1.2,0.9,2.6,2.1,4,3.5
							c1.8,1.8,3.1,3.6,4.1,5.2c-1.2,0.6-2.4,1.2-3.6,1.8c-13.7,6.7-27.3,12.2-40.6,16.7C423.6,1595.1,420.5,1592.9,417.3,1590.7z"
							/>
						<path class="st5" d="M457.3,1584.4c2.1,2.4,4.6,4.9,7.4,7.4c4.3,3.8,8.4,6.8,12.2,9.1c2.2-1.4,4.4-2.7,6.6-4.1
							c-5.4-5.7-10.9-11.5-16.3-17.2c-2.2,0.2-4.3,0.4-6.5,0.5C459.5,1581.6,458.4,1583,457.3,1584.4z"/>
						<path class="st5" d="M441.4,1607.7c22.9-6.2,31.8-9,34.7-10.2c0.5-0.2,2.9-1.2,6.3-2.2c1.9-0.6,3.5-1,4.6-1.2
							c0.9,0.6,1.9,1.2,2.8,1.9c1.7,1.2,3.2,2.4,4.6,3.5c-1.2,0.9-3,2-5.3,3.3c-5,2.7-9.2,3.9-12.2,4.9c-10.8,3.4-23.9,6.2-26.3,6.7
							C447.6,1612.1,444.5,1609.9,441.4,1607.7z"/>
					</g>
					<path class="st7" d="M473.4,1392.1c-1.2,52-2.4,104-3.7,156c-7.8,3.7-18.5,7.9-31.7,10.5c-13.4,2.7-25.2,2.9-33.9,2.3
						c1.2-56.1,2.5-112.3,3.7-168.4C429.6,1392.4,451.5,1392.3,473.4,1392.1z"/>
					<path class="st8" d="M545.4,475.2c0.8,10.1,2.6,25.5,6.9,43.8c10.9,47,27,65.1,37.2,103.1c4.7,17.2,9.3,42.8,7.1,76.1
						c-27.2-0.5-54.4-1.1-81.7-1.6c-2.9-73.4-5.9-146.8-8.8-220.2C519.2,476.1,532.3,475.6,545.4,475.2z"/>
					<g>
						<path class="st6" d="M578.1,1491.9c-0.7,17-1.4,34-2.1,50.9c-11.6-1-23.3-2-34.9-2.9c1.1-16.1,2.1-32.1,3.2-48.2
							C555.5,1491.8,566.8,1491.9,578.1,1491.9z"/>
						<path class="st6" d="M541.6,1531.2c-1.3,12-4.2,19.8-6.7,24.8c-0.8,1.5-3,5.9-3.7,12.1c-0.3,3.2-0.7,7.2,1.2,10.1
							c3.5,5.1,13,4.1,18.2,3.7c3.5-0.3,17.1,1.6,44.3,5.2c0,0,15.9,2.1,46.5,2.7c0.5,0,2.9,0,5.6-1.1c0.9-0.4,4.4-1.8,4.5-3.6
							c0.1-2.5-6.5-4.6-10.4-5.9c-9-3-17.7-7-26.8-9.9c-26.9-8.4-30.5-11.1-33.2-14.5c-4.3-5.5-5.4-11.7-5.8-15.9
							c-8.6-2.9-17.1-5.7-25.7-8.6C547,1530.5,544.3,1530.8,541.6,1531.2z"/>
						<path class="st5" d="M531.9,1576.9c-0.3,0.3-0.6,0.6-0.8,0.8c-0.2,0.8-0.3,1.8-0.4,2.8c-0.2,2.2,0,4.1,0.2,5.7
							c5.1,0.6,12.8,1.4,22.2,2.2c15.2,1.3,17.3,1,30.8,2.1c26.4,2,30.2,3.8,44.2,3.3c9.9-0.4,17.9-1.6,22.7-2.6
							c0.2-0.6,0.5-1.3,0.6-2.2c0.3-1.6,0.2-3,0-3.9c-0.9,1.5-8.2,1.5-14.5,2c-11.2,0.8-18.5-0.4-32.8-1.7
							c-14.3-1.3-12.9-0.7-25.3-1.8C567.3,1582.5,551.3,1580.5,531.9,1576.9z"/>
						<g>
							<path class="st5" d="M579.1,1551.7c-3.1,4-6.6,8.1-10.5,12.4c-6,6.4-11.9,11.7-17.4,16c6.2,1.1,12.5,2.2,18.7,3.2
								c3-1.9,7.3-5.2,11.3-10.2c3.9-5,6-9.8,7.2-13.2c-1.3-0.9-2.6-1.9-3.9-3C582.5,1555.2,580.7,1553.4,579.1,1551.7z"/>
							<path class="st5" d="M586.5,1564.7c9.6,3.2,19.1,6.4,28.7,9.7c0.8-1.5,1.6-2.9,2.4-4.4c-9.9-3.4-19.9-6.8-29.8-10.2
								C587.4,1561.4,587,1563,586.5,1564.7z"/>
							<path class="st5" d="M616.5,1569.5c-0.8,2.1-2,4.6-3.8,7.2c-3.5,5.1-7.6,8.1-10.4,9.8c4.9,0.5,9.8,1.1,14.8,1.6
								c2.1-1.4,5.6-4.3,7.9-9.1c1-2,1.6-3.9,1.9-5.5C623.5,1572.2,620,1570.9,616.5,1569.5z"/>
						</g>
					</g>
					<path class="st7" d="M591.1,1467.4c0,22.6,0,45.2,0,67.8c-8.2,3.1-19.4,6.4-33.1,7.7c-11.7,1.1-21.8,0.4-29.6-0.7
						c-0.6-24.3-1.3-48.6-1.9-72.9C548.1,1468.7,569.6,1468,591.1,1467.4z"/>
					<g>
						<path class="st9" d="M624,1132.8c-2.7,1.7-6.4,7-6.4,7c-4.3,0.7-7.1,4.2-7.1,4.2s-8.6-4.8-9.2-7.3c-0.4-1.8,1.3-3.1,1.3-3.1
							s0,0,0,0c-0.1,0-0.4-0.2-0.8-0.5c-0.1,0-0.1-0.1-0.2-0.1c-0.6-0.4-1.2-0.9-1.7-1.6c-0.1-0.1-0.2-0.2-0.2-0.4
							c-0.2-0.2-0.3-0.5-0.3-0.8c0-0.1,0-0.1,0-0.2c0-0.1,0-0.1,0-0.2c0-0.1,0-0.2,0-0.3c0-2.3,4.8-1.7,4.8-1.7s0-0.3,0-0.6
							c0,0,0-0.1,0-0.1c0,0,0-0.1,0-0.1c0,0,0-0.1,0-0.1c0-0.1,0.1-0.2,0.2-0.4c0-0.1,0.1-0.1,0.1-0.2c0,0,0.1-0.1,0.1-0.1
							c0,0,0.1-0.1,0.1-0.1c0,0,0.1-0.1,0.2-0.1c0.1-0.1,0.1-0.1,0.2-0.2c0,0,0.1-0.1,0.2-0.1c0.4-0.2,0.9-0.4,1.6-0.5
							c0.1,0,0.2,0,0.3,0c0.1,0,0.2,0,0.3,0c0,0-1.1,9.3,4.9,9.3c6.1,0,7.1-11.7,6.8-15.4c-0.2-2.1,0.4-4.2,0.4-4.2l4.5,1.8
							C622.6,1120,624,1132.8,624,1132.8z"/>
						<path class="st10" d="M615.2,1132.4l5.4,3.5l0.5-0.5c0,0-3.4-2.8-5.9-3.9c-1.5-0.7-10.9,1-13.6,1.5l0,0c0.6,0.4,1,0.6,1,0.6
							l3.5-0.6c1.1-0.2,2.3,0.1,3.2,0.8l8.1,6l0.6-0.8l-9.4-6.5l1.3-0.2L615.2,1132.4z"/>
						<path class="st10" d="M609.7,1130.3v1l-5.6-3.4c0,0-0.1-0.4,0.1-1L609.7,1130.3z"/>
						<polygon class="st10" points="618.5,1126.9 623.7,1129.2 624,1130.3 618.2,1127.8 						"/>
						<path class="st11" d="M634.2,1137.6c-0.2,0.9-7.7,5.9-11.4,8.9c-2.2,1.7-10.8,3.9-12.8,3.7c-2-0.2-1.1-3.1,0.6-6.2
							c0,0,2.8-3.4,7.1-4.2c0,0,3.7-5.2,6.4-7c0,0-1.4-12.8,0-16.2l-4.5-1.8c0,0-0.5,2.1-0.4,4.2v0c0,0.3,0,0.5,0,0.7
							c0,1.2,0,2.8-0.2,4.5c-0.6,4.7-2.4,10.2-6.6,10.2c-3.4-0.1-4.6-3.1-4.9-5.6c-0.2-1.2-0.1-2.3-0.1-2.9c0-0.1,0-0.2,0-0.2
							c0-0.1,0-0.1,0-0.2c0-0.1,0-0.1,0-0.1c0-0.1,0-0.1,0-0.1v0c0,0,0.4-7.2,1.2-12.9c0.3-2.3-3.5-6.2-4.2-9.8
							c-0.7-3.6-0.8-7.2-0.8-10.8c0-3.6,1.1-6.4,3.4-11.8c1.1-2.7-4.3-13.4-4.3-13.4h25.3c0.5,7.2,4.1,22.3,6.7,29.4
							c2.6,7.1,4.4,13.8,5.4,16.7C640.7,1113.9,635.5,1130,634.2,1137.6z"/>
					</g>
					<path class="st12" d="M642,1078.8c-5.1,2.3-14.4,5.8-26.5,5.9c-12.1,0.1-21.5-3.3-26.6-5.5c1.4-55.2,0-117.3-6.7-184.8
						c-5.5-56.4-13.9-108.1-23.5-154.8c1.5-10.6,6.1-32.2,22.6-52.8c9.9-12.4,20.8-20.2,28.6-25c2.4,4.5,5.9,11.2,9.4,19.6
						c16.3,38.8,24.4,134.1,26.5,217.9C647.1,945.9,646.9,1006.7,642,1078.8z"/>
					<path class="st13" d="M616.4,1296.3v2.1c-0.1,67.3-1.4,104.6-5.2,199.8c-0.1,3.2-2.8,5.6-6,5.4c-9.9-0.7-23.3-1.2-39-0.1
						c-8.3,0.6-14.9,1.4-21,2.5c-27.4,4.9-40.3,9.5-61.5,14.6c-22,5.3-41.9,10.2-66.1,8.8c-17.9-1-33-5.2-44.2-9.4
						c-4.5-1.7-7.4-6.1-7.2-11c2.9-69,5.1-125.3,6.6-165.1c3.6-96.1,5.5-99.9,6.1-124.9c1.4-59.1,1.4-89.1,4.8-144.7
						c0.7-11.1,0.8-12.2,5.3-78.7c4.5-66.3,6.6-99.5,6.8-101.6c6.5-67.3-12.1-81.3-19.6-202.5c-0.7-11.1-1.1-20.2-1.4-25.6
						c15.4-8.6,34.2-17.6,56.3-25.3c29.3-10.2,56-15.2,77.4-17.6c14.2,2.3,31.5,6.2,50.5,13.3c21,7.8,38,17.2,50.9,25.6
						c0,79.9,0.5,137.5,1,176.8c0.1,6.5,0.1,10.5,0.2,17.2c0.3,25.2,0.4,52.5,1,142.4c0.6,105.1,2.5,156.2,3.5,217.2
						C616.1,1239.2,616.4,1266.2,616.4,1296.3z"/>
					<g>
						
							<linearGradient id="SVGID_00000064346732184026301190000008681769667261424544_" gradientUnits="userSpaceOnUse" x1="3137.5005" y1="1227.6688" x2="3202.4199" y2="1227.6688" gradientTransform="matrix(0.9728 0.232 -0.232 0.9728 -2417.8066 -816.2296)">
							<stop  offset="0" style="stop-color:#FFB886"/>
							<stop  offset="1" style="stop-color:#FFA486"/>
						</linearGradient>
						<path style="fill:url(#SVGID_00000064346732184026301190000008681769667261424544_);" d="M404.9,1152.9
							c-0.2,0.6-0.7,1.2-1.5,1.7c-3.2,2-8.1-4.2-10.2-7.5c-2.1-3.3-3.7-15-3.4-19c-0.4,0.1-0.9,0.2-1.3,0.3c-0.4,1.4-0.9,3-1.3,4.6
							c-0.5,2.3-0.9,4.4-1.1,6.3c0,0,0.9,6.6,0.8,11c0,0,0.8,3.9,2.8,6.4c0.3,0.4,0.6,0.7,1,1c0.4,0.3,0.8,0.8,1.1,1.2
							c0.2,0.2,0.3,0.4,0.5,0.7c0.1,0.1,0.1,0.2,0.2,0.4c0.1,0.1,0.1,0.3,0.2,0.4c0.1,0.1,0.1,0.3,0.2,0.4c0.2,0.5,0.4,1,0.5,1.5
							c0,0,0,0,0,0c0,0.1,0,0.3,0.1,0.4c0,0.3,0.1,0.5,0.1,0.8c0,0.1,0,0.2,0,0.4c0,0.1,0,0.2,0,0.3c0,0,0,0.1,0,0.1
							c0,0.1,0,0.2,0,0.2c-0.1,0.8-0.4,1.5-1,1.9c-2,1.6-6.4-0.5-10.3-3.8c-3.9-3.3-5.6-6.9-5.6-6.9s-0.2,0.6-1.3,0.8
							c-0.1,0-0.2,0-0.3,0.1c-0.1,0-0.2,0-0.3,0c-0.1,0-0.2,0-0.3,0c-0.1,0-0.2,0-0.4,0c-0.1,0-0.1,0-0.2,0c-0.2,0-0.4,0-0.7-0.1
							c-2.9-0.4-5.6-0.9-6.8-2.1c-1.2-1.2-1.5-3-1.5-3s-0.6,0-1.4-0.1c-0.1,0-0.2,0-0.3,0c0,0,0,0,0,0c-0.1,0-0.2,0-0.3,0
							c0,0,0,0,0,0c-0.1,0-0.2,0-0.3,0c-0.2,0-0.4-0.1-0.7-0.1c-0.1,0-0.2,0-0.3-0.1c-0.7-0.1-1.3-0.3-1.7-0.5
							c-0.5-0.3-1-1.1-1.6-2.2c-0.8-1.7-1.6-4-2.1-6c0,0-0.6,0-1.3-0.1c-1-0.1-2.2-0.4-2.8-1.3c-0.6-0.8-3.3-18.3-2.9-20.9
							c0.4-2.6,4.6-15.9,9.2-31c1.2-3.9,0.5-8.5-0.4-11.4c-0.9-2.9,0.6-8,0.9-11l28.8-3.4c0,0-0.1,4.5,0.1,7.1
							c0.7,7.1,2.2,12.4,3.8,16.2c0,0,0.1,0.3,0.3,0.8c0.9,1.9,1.7,3.5,2.6,4.7c2.5,3.9,5,8.6,6.1,13.9c1.2,5.2,2.3,8.7,3,11.4
							c0.1,0.5-1,9.2-0.9,10.8c0.1,1.6,0.7,11.8,1.2,16.3C404.4,1148,405.7,1150.9,404.9,1152.9z"/>
						<path class="st10" d="M376.4,1155.8c0,0-0.2,0.5-1.2,0.8l0,0c0,0-1.9-2.1-2.2-4.1c-0.3-1.9-1.6-14-1.6-14.8
							c0.9,3.5,1.9,13.4,2.7,14.7C374.9,1153.9,376.4,1155.8,376.4,1155.8z"/>
						<path class="st10" d="M363.4,1151.4L363.4,1151.4l-1.7-14.6l3,14.7C364.8,1151.5,364.2,1151.5,363.4,1151.4z"/>
						<path class="st10" d="M354.8,1142.3C354.8,1142.3,354.8,1142.3,354.8,1142.3l0.1-6l1.2,6.1
							C356.1,1142.4,355.5,1142.4,354.8,1142.3z"/>
						<polygon class="st10" points="391.3,1121.5 388.5,1128.5 389.8,1128.1 						"/>
					</g>
					<path class="st12" d="M339.2,1084.7c6.9,3.2,17.8,7.2,31.5,8.3c19.7,1.5,35.2-3.8,43.2-7.2c0.2-6.4,3.8-100,7.2-189.1
						c3.6-94.1,7-181,7.3-188.2c-11.1-27.9-29.9-45.8-47.3-44.4c-3.2,0.3-7.1,1.2-11.4,3.8c-0.9,0.8-2.2,2.1-3.6,3.7
						c-17.8,19.6-17,35.9-19.3,55.5C343.2,756.3,343.7,901.1,339.2,1084.7z"/>
					<path class="st6" d="M564.8,638.5c-19.2,7.9-38.4,15.7-57.6,23.6c-19.6-8-39.2-16-58.9-24c6.5-4.7,13.1-9.4,19.6-14.1
						c1.4-18.1,2.8-36.3,4.3-54.4c10,1.9,20.9,3.6,32.4,4.9c9.6,1.1,18.7,1.7,27.3,2.1c-0.5,8.9-0.8,18.2-0.7,27.8
						c0,1.7,0,4.3,0.1,7.8c0.2,4.9,0.7,8.9,1,11.7c5.6,2.8,11.5,5.6,17.8,8.4C555.1,634.6,560,636.6,564.8,638.5z"/>
					<path class="st15" d="M531.9,576.7c-0.5,8.9-0.8,18.2-0.7,27.8c-3.8,2.6-9,5.3-15.9,6c-6.3,0.6-15.3-1.8-34.4-13.7
						c-3.1-1.9-7.5-4.7-12.7-8.4c0.6-3.3,1.2-6.7,1.7-10.2c0.5-3.3,0.9-6.5,1.3-9.6c10,2.4,21.2,4.5,33.5,6
						C514.3,575.7,523.4,576.4,531.9,576.7z"/>
					<path class="st7" d="M432,634.8c26.4,11.7,52.9,23.5,79.3,35.2c2.3,21.6,4.1,44.2,5.2,67.9c0.7,15.4,1.1,30.3,1.3,44.8
						c4.2,3,8.3,6,12.5,9c-0.4-18.2-1.2-37.1-2.6-56.6c-2-28.8-5-56-8.6-81.6c-12.7-5-25.8-10.6-39.4-16.9
						c-7.8-3.6-15.3-7.3-22.5-11.1c-4.5,1.4-9.1,3-13.9,4.8C439.5,631.7,435.7,633.3,432,634.8z"/>
					<path class="st7" d="M566,638.9c-3.5,4.4-7.8,9.3-13.2,14.3c-6.7,6.1-13.2,10.7-18.8,14.1c1.9,20,3.4,40.9,4.4,62.7
						c0.8,18.2,1.2,35.8,1.2,52.8c-3.1,3-6.1,6-9.2,9c-3.7-46.1-7.4-92.2-11.2-138.2c5.4-1.1,16.8-4.3,25.2-14.4
						c2-2.4,3.5-4.8,4.7-7.1C554.8,634.3,560.4,636.6,566,638.9z"/>
					<path class="st6" d="M545.5,520.2c-0.5,24.2,1.2,26.8-0.4,42.1c-1,9.6-2.6,17.4-3.9,22.5c-1.4,2-7.1,9.8-15.1,13.8
						c-1.6,0.8-4.7,2.4-9,2.8c-1.5,0.1-3.2,0.2-5.3-0.1c-13.5-1.7-26.6-9.3-26.6-9.3c-5.4-3.5-12.1-7.8-17.1-14.3
						c-6.3-8.1-7.8-16.5-6.4-59.1c1.2-36.6,2.7-44.5,9.3-49.7c3.3-2.6,8.7-4.9,19.6-9.6c9-3.9,12.2-4.6,15.3-4.7
						c7.4-0.4,13,2.1,16.8,3.8c4,1.8,10.3,4.5,15.2,10.6c2.9,3.7,5.4,8.6,7,20.3C546.5,500.3,545.8,506.1,545.5,520.2z"/>
					<g>
						<g>
							<path class="st16" d="M532.3,562c0,1.3-8.4,2.2-13.7,2.5c-6.2,0.3-14.7,0-14.9-1.2c-0.1-1,5.7-2.3,7.4-2.7
								c6.5-1.4,11.4-1,13.4-0.7C525.5,559.9,532.3,560.8,532.3,562z"/>
						</g>
						<path class="st16" d="M522.1,541.2c-0.5,0.6-2,2.2-4.3,2.6c-3.1,0.4-5.4-1.9-5.8-2.4c2,0,3.9-0.1,5.9-0.1
							C519.2,541.3,520.6,541.3,522.1,541.2z"/>
						<g>
							<path class="st13" d="M501.8,522c-3.8-5.6-9.8-8.2-15.3-6.8c-5.5,1.5-8.2,6.5-8.7,7.6c2.1,1.2,6.1,3,11.3,3
								C495.3,525.9,499.8,523.3,501.8,522z"/>
							<g>
								<path class="st17" d="M485.2,521.3c0.3,2.8,2.8,4.8,5.6,4.4c2.8-0.3,4.8-2.8,4.4-5.6c-0.3-2.8-2.8-4.8-5.6-4.4
									C486.8,516,484.8,518.5,485.2,521.3z"/>
								<path d="M488.7,520c0.2,1.5,1.6,2.6,3.1,2.5c1.5-0.2,2.6-1.6,2.5-3.1c-0.2-1.5-1.6-2.6-3.1-2.5
									C489.6,517.1,488.5,518.5,488.7,520z"/>
								<path class="st13" d="M488,521.4c0.1,0.6,0.6,1.1,1.3,1c0.6-0.1,1.1-0.6,1-1.3c-0.1-0.6-0.6-1.1-1.3-1
									C488.4,520.2,487.9,520.8,488,521.4z"/>
							</g>
							<path d="M501.8,521.8c-0.4-0.4-6.1-6.4-14.1-4.9c-5.6,1.1-8.6,5.2-9.3,6.2c-0.2,0-0.4-0.1-0.6-0.2c-0.1,0-0.3-0.1-0.4-0.1
								c2.1-5.2,7.2-8.6,12.7-8.5C495,514.4,499.5,517.3,501.8,521.8z"/>
						</g>
						<g>
							<path class="st13" d="M522.3,521.4c2.6-5.7,7.1-8.6,11.3-7.4c4.3,1.2,6.6,6.2,7.1,7.2c-1.5,1.3-4.5,3.3-8.5,3.5
								C527.5,525,524,522.7,522.3,521.4z"/>
							<g>
								<path class="st17" d="M536.2,520c-0.1,2.8-2.2,4.9-4.6,4.6c-2.5-0.2-4.4-2.7-4.3-5.5c0.1-2.8,2.2-4.9,4.6-4.6
									C534.4,514.8,536.3,517.3,536.2,520z"/>
								<path d="M535.1,518.8c0,1.5-1.3,2.7-2.8,2.6c-1.5-0.1-2.6-1.5-2.6-3c0-1.5,1.3-2.7,2.8-2.6
									C533.9,515.9,535.1,517.3,535.1,518.8z"/>
								<path class="st13" d="M531.2,519.2c0,0.6-0.5,1.1-1,1s-1-0.6-1-1.2s0.5-1.1,1-1C530.8,518,531.2,518.5,531.2,519.2z"/>
							</g>
							<path d="M522.4,521.2c0.2-0.4,4.3-6.7,10.5-5.5c4.3,0.9,6.9,4.8,7.4,5.8c0.1-0.1,0.3-0.1,0.5-0.2c0.1,0,0.2-0.1,0.3-0.1
								c-1.9-5.1-5.9-8.3-10.1-7.9C527.2,513.5,523.9,516.6,522.4,521.2z"/>
						</g>
						<path d="M497.6,502.3c-1.4-0.2-5.5-0.8-10.9,0.2c-7.6,1.3-11.6,4.4-12.4,5.3c-1.1,1.1-1.7,2.4-1.7,2.4c-0.5,1.1-0.7,2-0.9,3.2
							c-0.2,1.4-0.5,3.3-0.7,5.5c0.2-0.3,0.4-0.5,0.6-0.8c0,0,1.1-1.5,2.7-2.9c5.4-4.8,14-6.8,14-6.8c5.6-1.3,10.5-1,14-0.5
							c0.3-0.3,1-1.2,1.1-2.6c0-0.7-0.1-1.3-0.2-1.6C501.7,503.2,499.8,502.7,497.6,502.3z"/>
						<g>
							<path d="M544.2,517c-0.3-0.5-0.7-1.2-1.2-2c-3.4-4.9-8.4-6.9-10.2-7.6c-4.3-1.7-8.5-1.8-11.5-1.6c-0.2-0.3-0.6-1.2-0.4-2.6
								c0.1-0.7,0.4-1.2,0.5-1.6c1.2-0.3,2.9-0.7,4.8-0.9c1.2-0.1,4.7-0.3,9,1c1.2,0.4,7.1,2.3,9.2,6.1c0.6,1.1,0.9,2.3,0.9,2.3
								c0.4,1.6,0.1,3-0.2,4C545.1,514.9,544.8,515.9,544.2,517z"/>
						</g>
						<path d="M516.4,548c-7.4,0.4-17.5,0.8-23.9,8.3c-3.3,3.9-4.2,9.9-6.2,21.8c-0.9,5.6-1.4,10.3-1.6,13.6
							c1.7,1.1,8.2,5.4,12.2,7.1c0.6,0.2,4.1,1.6,7.7,2.4c4.9,1.1,10.4,1.6,13.8,1.3c12.5-1.1,21.6-15.9,22.7-17.7
							c0.4-1.8,1.9-9.5,1.9-16c0-3-0.3-4.9-0.4-6c-0.4-2.1-0.9-3.7-1.3-4.9c0,0-0.6-1.5-1.5-2.9C538.2,552.8,529.9,547.4,516.4,548z
							 M514.5,568.5c-0.2,0.7-1.2,3.7-4.4,5.2c-3.5,1.7-7.6,0.5-9.9-0.9c0,0,0,0-0.1,0c-3.8-2.4-4.2-9.8-1.2-12.9
							c0.9-0.9,2-1.3,4.2-1.8c5.9-1.4,9.3-2.1,14.9-2.2c5.3,0,8.2,0.6,12.9,1.6c1.4,0.3,2.3,0.6,3.2,1.4c3.4,3,2.6,10.5-0.2,12.6
							c0,0,0,0,0,0c-1.5,1.1-4,1.3-5.8,0.7c-3.1-1.1-3.9-4-4-4.2C520.9,568.1,517.7,568.3,514.5,568.5z"/>
					</g>
					<path class="st8" d="M545,493.7c-7.9-3.5-11.9-3-14.2-1.9c-1.1,0.6-4.7,2.7-8.9,1.9c0,0,0,0,0,0c-1.7-0.9-4.4-1.9-7.8-2.4
						c-0.9-0.1-2.8-0.3-4.9-0.1c-7,0.7-8.3,5.5-14.1,5.8c-3,0.1-2.6-1.2-7.2-1.4c-2.9-0.2-6.9-0.4-10,2c-2.7,2.1-3.8,5.1-4.3,8.5
						c-0.5,3.2-0.7,7.4-0.5,13.1c-0.1,12.6,0.7,25.8,1,31.2c1.9,34-1.2,60.4-7.5,113.2c-2.1,17.7-4.4,32.5-6.3,43.3
						c-0.3,1.7-0.6,3.3-0.9,4.9c-0.8-0.2-10.4-3.4-17.5-4.6c-0.7-0.1-1.3-0.2-1.9-0.3c-4.6-0.6-8.1,0-10.4,0.4
						c-7,1.1-16.2,4.8-20.4,6.1c-5.5,1.6-13.8,2.6-25.2-0.9c0-24,3.8-42.4,7.4-54.7c3.8-13.4,7.3-19.8,12.6-37.1
						c1.3-4.1,6.7-22.3,10.6-45c7.8-45,1.8-62.4,15-95.6c2.6-6.4,5-11.4,6.5-14.3c4.1-5.4,11.6-13.8,23.5-19.7
						c18.4-9.3,35.6-6.7,41.3-5.7c6.1,1,16.5,2.8,26.9,10.6c4.6,3.4,14.5,10.9,17.7,24.4C547.3,483.1,546,489.9,545,493.7z"/>
					<g>
						<path class="st18" d="M548.6,479.1c-16.9-2.3-37.9-3.7-61.8-2.2c-22.8,1.4-42.5,5.1-58.5,9.1"/>
						<path class="st18" d="M419.1,477.4c18-4.5,40-8.6,65.1-10.2c28-1.9,52.5-0.3,72.3,2.4"/>
					</g>
				</g>
			</g>
		</g>
	</g>
	<g>
		<path class="st19" d="M731.1,287.3c-0.8-36.7-30.7-66.2-67.6-66.2c-22.4,0-42.3,10.9-54.6,27.7c-4-1.9-8.4-3-13.1-3
			c-16.6,0-30.1,13.5-30.1,30.1c0,0.8,0,1.6,0.1,2.4c-13.1,7-22,20.7-22,36.6c0,22.9,18.6,41.4,41.4,41.4c6.8,0,13.2-1.6,18.8-4.5
			c6.8,16.6,23.2,28.3,42.3,28.3c17.6,0,32.8-9.9,40.5-24.5c6.7,4.8,14.9,7.7,23.8,7.7c22.5,0,40.8-18.2,40.8-40.8
			C751.5,307.5,743.3,294.4,731.1,287.3z"/>
		<path class="st19" d="M622.6,359.3c0,11.5-9.3,20.9-20.9,20.9c-11.5,0-20.9-9.3-20.9-20.9c0-11.5,9.3-20.9,20.9-20.9
			C613.3,338.5,622.6,347.8,622.6,359.3z"/>
		<path class="st19" d="M594,389.2c0,7.3-5.9,13.1-13.1,13.1c-7.3,0-13.1-5.9-13.1-13.1c0-7.3,5.9-13.1,13.1-13.1
			C588.1,376.1,594,382,594,389.2z"/>
		<path class="st19" d="M587.5,414.2c0,3.6-2.9,6.6-6.6,6.6c-3.6,0-6.6-2.9-6.6-6.6c0-3.6,2.9-6.6,6.6-6.6
			C584.5,407.7,587.5,410.6,587.5,414.2z"/>
	</g>
</g>
</svg>
