<?xml version="1.0" encoding="utf-8"?>
<!-- Generator: Adobe Illustrator 26.0.1, SVG Export Plug-In . SVG Version: 6.00 Build 0)  -->
<svg version="1.1" id="Layer_1" xmlns="http://www.w3.org/2000/svg" xmlns:xlink="http://www.w3.org/1999/xlink" x="0px" y="0px"
	 viewBox="0 0 1000 1000" style="enable-background:new 0 0 1000 1000;" xml:space="preserve">
<style type="text/css">
	.st0{clip-path:url(#SVGID_00000029732574177842503610000008615160041469159848_);}
	.st1{clip-path:url(#SVGID_00000101077468529418536390000010424089984969964688_);fill:#A5E0DC;}
	.st2{clip-path:url(#SVGID_00000101077468529418536390000010424089984969964688_);fill:#00747D;}
	.st3{clip-path:url(#SVGID_00000101077468529418536390000010424089984969964688_);}
	.st4{fill:#00747D;}
	.st5{fill:#890804;}
	.st6{fill:#CC936D;}
	.st7{fill:#101010;}
	.st8{fill:#C6C6C6;}
	.st9{fill:#FFFFFF;}
	.st10{fill:#AF7151;}
	.st11{fill:#513328;}
	.st12{fill:#C48C66;}
	.st13{fill:#AF1919;}
</style>
<g>
	<g>
		<defs>
			<path id="SVGID_1_" d="M793.3,365.2c-12.7-22.7-27.6-42.7-43-59.6c-2.8-3.1-56.6-48.5-56.6-48.5c-1.5-1.2-3-2.4-4.5-3.6
				c-43-36-75.6-101.3-194.9-91.3c-55.6,4.7-92,27.2-117.9,57.6c0,0,0,0,0,0c-7,9.8-14,19.7-21,29.5c-19.1,32-31.8,68.7-44.7,100.8
				c-17.1,42.3-78.4,49-100.5,98.1c-20.1,23.1-30.6,59.7-35.9,86.2c-3.8,19.1-4.9,32.9-4.9,32.9C163.4,701,283.3,803.2,407,840.2
				c0.1,0,0.2,0.1,0.3,0.1c21.5,6.8,42.4,11.3,61.5,13.6c5.9,0.7,11.8,1,17.7,1c0.9,0,1.9,0,2.8,0c0,0,0,0,0,0
				c12.6,0.7,24.9,0.5,36.8-0.5c2.4-0.2,4.9-0.5,7.3-0.7c0.2,0,0.3,0,0.5-0.1c43.8-4.9,94.1-18.9,140.9-44.1
				c66.1-34.8,122.4-89.1,133.1-161.5c9.6-47.6,22.8-75.3,22.8-146.3C833,454.4,793.3,365.2,793.3,365.2z"/>
		</defs>
		<clipPath id="SVGID_00000164493949130329070080000011291208618515735986_">
			<use xlink:href="#SVGID_1_"  style="overflow:visible;"/>
		</clipPath>
		<g style="clip-path:url(#SVGID_00000164493949130329070080000011291208618515735986_);">
			<defs>
				<path id="SVGID_00000045616034564715529460000012268296768078660509_" d="M800.6,362.3c-13-23.2-28.2-43.6-43.9-60.8
					c-0.2,0.3-0.3,0.5-0.5,0.8c0.2-0.3,0.3-0.5,0.5-0.8c-2.9-3.2-57.7-49.5-57.7-49.5l0,0c-1.5-1.2-3.1-2.4-4.6-3.7
					c-43.9-36.7-77.1-103.4-198.9-93.2c-56.7,4.7-93.9,27.8-120.4,58.8c-8,9.3-15.1,19.5-21.4,30.2c-19.5,32.6-32.5,70.1-45.7,102.8
					c-17.5,43.2-80,50-102.5,100.2c-20.5,23.6-31.2,60.9-36.6,88c-3.9,19.5-5,33.6-5,33.6C157.7,704.9,280,809.2,406.3,847
					c28.2,8.5,56.7,13.6,83.9,15c12.9,0.7,25.4,0.5,37.6-0.5c2.5-0.2,5-0.5,7.5-0.8c1.7-0.2,3.4-0.4,5.2-0.6
					c1.5-0.2,2.9-0.4,4.4-0.6c0.8-0.1,1.6-0.2,2.4-0.4c0.8-0.1,1.5-0.2,2.3-0.3c40.9-6.3,86.7-20.6,128.7-42.5
					c0.2-0.1,0.4-0.2,0.6-0.3c67.8-35.5,125.6-91.1,136.6-165.2c1.5-10.4,14.9-42,19.2-87.4C843.1,474.1,818.3,402.3,800.6,362.3z
					 M706.2,309.1c0,0,0.1,0.1,0.1,0.1C706.3,309.2,706.3,309.1,706.2,309.1z"/>
			</defs>
			<clipPath id="SVGID_00000067958928074106930110000009141589457603242664_">
				<use xlink:href="#SVGID_00000045616034564715529460000012268296768078660509_"  style="overflow:visible;"/>
			</clipPath>
			<path style="clip-path:url(#SVGID_00000067958928074106930110000009141589457603242664_);fill:#A5E0DC;" d="M800.6,362.3
				c-13-23.2-28.2-43.6-43.9-60.8c-2.9-3.2-57.7-49.5-57.7-49.5c-1.5-1.2-3.1-2.4-4.6-3.7c-43.9-36.7-77.1-103.4-198.9-93.2
				c-56.7,4.7-93.9,27.8-120.4,58.8c-8,9.3-15.1,19.5-21.4,30.2c-19.5,32.6-32.5,70.1-45.7,102.8c-17.5,43.2-80,50-102.5,100.2
				c-20.5,23.6-31.2,60.9-36.6,88c-3.9,19.5-5,33.6-5,33.6C157.7,704.9,280,809.2,406.3,847c28.2,8.5,56.7,13.6,83.9,15
				c12.9,0.7,25.4,0.5,37.6-0.5c2.5-0.2,5-0.5,7.5-0.8c1.7-0.2,3.4-0.4,5.2-0.6c1.5-0.2,2.9-0.4,4.4-0.6c0.8-0.1,1.6-0.2,2.4-0.4
				c0.8-0.1,1.5-0.2,2.3-0.3c40.9-6.3,86.7-20.6,128.7-42.5c0.2-0.1,0.4-0.2,0.6-0.3c67.8-35.5,125.6-91.1,136.6-165.2
				c9.8-48.6,23.3-76.8,23.3-149.4C841.1,453.3,800.6,362.3,800.6,362.3z"/>
			<path style="clip-path:url(#SVGID_00000067958928074106930110000009141589457603242664_);fill:#00747D;" d="M129.2,687.6h764.6
				v17.1l-225.8,185c0,0-333.6-5.4-353.2-13.6c-19.7-8.2-172.1-176.9-172.1-176.9"/>
			<g style="clip-path:url(#SVGID_00000067958928074106930110000009141589457603242664_);">
				<path class="st4" d="M325.9,361.7c0,1.8-1.1,3.2-2.6,3.2s-2.6-1.4-2.6-3.2s1.1-3.2,2.6-3.2S325.9,359.9,325.9,361.7z"/>
				<path class="st4" d="M347.5,367.8c0,1.8-1.1,3.2-2.6,3.2c-1.4,0-2.6-1.4-2.6-3.2s1.1-3.2,2.6-3.2
					C346.3,364.5,347.5,366,347.5,367.8z"/>
				<path class="st4" d="M419.4,271.3c0,1.8-1.1,3.2-2.6,3.2c-1.4,0-2.6-1.4-2.6-3.2s1.1-3.2,2.6-3.2
					C418.2,268,419.4,269.5,419.4,271.3z"/>
				<path class="st4" d="M754.8,557.7c0,1.8-1.1,3.2-2.6,3.2s-2.6-1.4-2.6-3.2s1.1-3.2,2.6-3.2S754.8,555.9,754.8,557.7z"/>
				<path class="st4" d="M763.6,548.9c0,1.8-1.1,3.2-2.6,3.2c-1.4,0-2.6-1.4-2.6-3.2c0-1.8,1.1-3.2,2.6-3.2
					C762.4,545.7,763.6,547.2,763.6,548.9z"/>
				<ellipse class="st4" cx="338.2" cy="351.2" rx="4.1" ry="5.2"/>
				<path class="st4" d="M334.1,542.9c0,3.7-2.4,6.7-5.3,6.7c-3,0-5.3-3-5.3-6.7c0-3.7,2.4-6.7,5.3-6.7
					C331.7,536.1,334.1,539.2,334.1,542.9z"/>
				<path class="st4" d="M636.4,255.4c0,3.7-2.4,6.7-5.3,6.7c-3,0-5.3-3-5.3-6.7c0-3.7,2.4-6.7,5.3-6.7
					C634,248.7,636.4,251.7,636.4,255.4z"/>
				<ellipse class="st4" cx="172.1" cy="599.5" rx="34.9" ry="44"/>
			</g>
		</g>
		<g style="clip-path:url(#SVGID_00000164493949130329070080000011291208618515735986_);">
			<polygon class="st5" points="415.3,621.6 452.9,454.8 461.2,403.7 562.1,403.7 570.3,460.5 613.9,621.6 			"/>
			<g>
				<path class="st6" d="M451.6,1626.1c-11-0.6-22-1.1-33-1.7c1.1-5,2.2-9.9,3.3-14.9c-0.9-11.8-1.7-23.6-2.6-35.4
					c10.4,0,20.8,0,31.3,0c-0.5,11.8-1,23.6-1.5,35.4C449.9,1615.1,450.7,1620.6,451.6,1626.1z"/>
				<g>
					<path class="st7" d="M403.2,1671c0,1.8,0.2,3.5,0.5,5c5.3,21.6,15.6,24.1,29.8,16.2c12-6.7,15.5-8.4,17.5-15.7
						c-6.3-4.6-15.7-7.9-26.5-8.4C416.6,1667.6,409.2,1668.8,403.2,1671z"/>
					<path class="st6" d="M405,1663.7c0,1.8-1.1,3.9-0.7,5.4c5.3,21.6,15.6,24.1,29.8,16.2c12-6.7,13.9-8.7,15.9-16
						c-6.3-4.6-14.2-7.5-24.9-8.1C417.2,1660.8,411.1,1661.5,405,1663.7z"/>
					<path class="st6" d="M451.6,1661.2c0-14.2,0-35,0-35l-33-1.7c0,0-8.1,14.8-12.6,29.8c5.5-1.6,11.8-2.4,18.5-2
						C435.6,1652.8,445.3,1656.3,451.6,1661.2z"/>
					<path class="st7" d="M451.6,1661.2c-6.3-4.9-16-8.4-27.1-9c-6.7-0.4-13.1,0.4-18.5,2c-1.7,5.9-2.9,11.7-2.8,16.7
						c6.1-2.2,13.4-3.3,21.4-2.9c10.7,0.6,20.1,3.8,26.5,8.4c0.4-1.3,0.6-2.6,0.6-3.8C451.6,1670.5,451.6,1666.2,451.6,1661.2z"/>
					<path class="st7" d="M411.4,1639.4c0,0,17.8-5.8,40.2,3.3v-16.7c-3.9-1.4-9.7-3-16.8-3.4c-6.7-0.3-12.3,0.7-16.3,1.6
						C417.7,1625.9,416.9,1627.4,411.4,1639.4z"/>
					<path class="st7" d="M421.4,1661.7c0,0,3.7-26.7,6.4-32.3l10.7,0.3l-2.5,33.1L421.4,1661.7z"/>
				</g>
			</g>
			<g>
				<path class="st6" d="M572.8,1626.1c11-0.6,22-1.1,33-1.7c-1.1-5-2.2-9.9-3.3-14.9c0.9-11.8,1.7-23.6,2.6-35.4
					c-10.4,0-20.8,0-31.3,0c0.5,11.8,1,23.6,1.5,35.4C574.5,1615.1,573.7,1620.6,572.8,1626.1z"/>
				<g>
					<path class="st7" d="M621.2,1671c0,1.8-0.2,3.5-0.5,5c-5.3,21.6-15.6,24.1-29.8,16.2c-12-6.7-15.5-8.4-17.5-15.7
						c6.3-4.6,15.7-7.9,26.5-8.4C607.8,1667.6,615.2,1668.8,621.2,1671z"/>
					<path class="st6" d="M619.3,1663.7c0,1.8,1.1,3.9,0.7,5.4c-5.3,21.6-15.6,24.1-29.8,16.2c-12-6.7-13.9-8.7-15.9-16
						c6.3-4.6,14.2-7.5,24.9-8.1C607.2,1660.8,613.3,1661.5,619.3,1663.7z"/>
					<path class="st6" d="M572.8,1661.2c0-14.2,0-35,0-35l33-1.7c0,0,8.1,14.8,12.6,29.8c-5.5-1.6-11.8-2.4-18.5-2
						C588.8,1652.8,579.1,1656.3,572.8,1661.2z"/>
					<path class="st7" d="M572.8,1661.2c6.3-4.9,16-8.4,27.1-9c6.7-0.4,13.1,0.4,18.5,2c1.7,5.9,2.9,11.7,2.8,16.7
						c-6.1-2.2-13.4-3.3-21.4-2.9c-10.7,0.6-20.1,3.8-26.5,8.4c-0.4-1.3-0.6-2.6-0.6-3.8C572.8,1670.5,572.8,1666.2,572.8,1661.2z"
						/>
					<path class="st7" d="M613,1639.4c0,0-17.8-5.8-40.2,3.3v-16.7c3.9-1.4,9.7-3,16.8-3.4c6.7-0.3,12.3,0.7,16.3,1.6
						C606.6,1625.9,607.5,1627.4,613,1639.4z"/>
					<path class="st7" d="M603,1661.7c0,0-3.7-26.7-6.4-32.3l-10.7,0.3l2.5,33.1L603,1661.7z"/>
				</g>
			</g>
			<g>
				<g>
					<path class="st8" d="M627.2,1595.1c-0.3,2.3-13,3.3-38.3,5c-24.9,1.8-37.4,2.6-38.1,0.5c-0.1,0-0.1,0.1-0.2,0.1
						c-0.3-101.2-0.6-202.4-0.9-303.7c18.9,5.8,37.8,11.6,56.7,17.4c6.9,93.4,13.8,186.8,20.7,280.2
						C627.1,1594.7,627.2,1594.9,627.2,1595.1z"/>
				</g>
			</g>
			<g>
				<g>
					<path class="st8" d="M473.6,1297c-0.3,101.2-0.6,202.4-0.9,303.7c0,0-0.1-0.1-0.2-0.1c-0.7,2.1-13.2,1.3-38.1-0.5
						c-25.3-1.7-38-2.7-38.3-5c0-0.2,0-0.3,0-0.5c6.9-93.4,13.8-186.8,20.7-280.2C435.7,1308.6,454.6,1302.8,473.6,1297z"/>
				</g>
			</g>
			<path class="st8" d="M461.1,559.4c16.9,15,33.8,30.1,50.6,45.1c18.1-15,36.2-30.1,54.3-45.1c-13.6-3.7-32.6-7.2-55.4-6.9
				C490.6,552.8,473.7,556,461.1,559.4z"/>
			<path class="st9" d="M664.2,639.9c-0.4-3.6-1.2-9.5-3.4-16.8c-1.4-4.7-2.9-8.4-3.9-10.5c-3.2-4.1-6.8-8.2-11-12.1
				c-26.6-25.2-59.5-31.4-78.4-33.2c-18,9.6-36,19.2-53.9,28.8c-6.8-7.1-24-22.7-48.9-25.2c-12.2-1.2-22.8,1.1-26.7,2
				c-10.2,2.3-18,6.1-33.2,13.7c-6.9,3.4-15.1,7.8-24.3,13.1c-8.6,8.8-10.1,17.6-13,63.1c-2.1,32.6-3.4,60.7-4.2,82.8h310.6
				C669.3,690.6,665.4,650.2,664.2,639.9z"/>
			<path class="st6" d="M577.9,574.2c-21.2,7-42.4,14.1-63.6,21.1c-21.8-6.9-43.7-13.8-65.5-20.7c9.6-6.2,19.2-12.4,28.8-18.6
				c3.3-14,6.6-27.9,10-41.9c17.8,0,35.7,0,53.5,0c2.5,13.9,5,27.7,7.5,41.6C558.3,561.8,568.1,568,577.9,574.2z"/>
			<path class="st6" d="M565,455.8c-0.2,2.8-1.2,11.4-3.2,28.8c-1.1,9.7-2.1,17.6-2.8,22.9c-4,8.2-12.7,22.9-28.8,31.8
				c-9.9,5.5-16.9,5.7-18.5,5.7c-9.1,0-15.8-3.7-20.4-6.8c-15.9-10.6-23.7-24.5-27.2-32.6c-0.5-4.1-1.3-10-2.2-17.2
				c-1-8.6-3-24.9-3.5-32.6c-0.9-14.5-2.9-42.9,15.6-60.6c14.7-14,33.7-14.5,37.8-14.6c4,0,23.6,0.3,38.5,14.6
				C568.4,412.8,566.1,441.1,565,455.8z"/>
			<g>
				<path class="st10" d="M523.6,502.4c0.2,1.9-2.3,4.7-3.9,6c-1.3,1-2.3,1.2-7.4,0.9c-4.8-0.2-5.7-0.4-7-1.3
					c-1.4-1-4.2-3.6-4.1-5.5c0.2-2.2,4.3-2.2,11.8-2.2C522.9,500.2,523.5,501.6,523.6,502.4z"/>
			</g>
			<path class="st10" d="M519.5,481.1c-0.8,0.7-3,2.4-6.4,2.7c-4.6,0.3-7.8-2.4-8.4-2.9c2.8,0.1,5.7,0.1,8.6,0.1
				C515.3,481.1,517.4,481.1,519.5,481.1z"/>
			<path class="st9" d="M456.7,562l-25.5,14.6c16,19.8,32,39.6,48,59.4c22.7,0.2,45.4,0.4,68,0.5c13.7-21.3,27.5-42.6,41.2-64
				c-6.6-3.3-13.2-6.6-19.9-9.9c-9.1,3.5-19.1,7.8-29.5,13.2c-9.5,4.9-17.9,9.9-25.4,14.8c-7-4.6-14.8-9.4-23.5-14
				C478.1,570.4,466.9,565.7,456.7,562z"/>
			<g>
				<g>
					<path class="st9" d="M497.7,456.5c-4-6.4-10.6-9.6-16.8-8.3c-6.2,1.4-9.4,6.9-10.1,8.2c2.3,1.4,6.7,3.6,12.5,3.9
						C490.3,460.5,495.4,457.9,497.7,456.5z"/>
					<g>
						<path class="st11" d="M480.7,453.8c0.2,3.1,3,5.4,6.1,5.2c3.1-0.2,5.4-3,5.2-6.1c-0.2-3.1-3-5.4-6.1-5.2
							C482.8,448,480.4,450.7,480.7,453.8z"/>
						<path d="M483.5,453.7c0.1,1.7,1.6,3,3.4,2.9c1.7-0.1,3-1.6,2.9-3.4c-0.1-1.7-1.6-3-3.4-2.9
							C484.7,450.4,483.4,451.9,483.5,453.7z"/>
						<path class="st9" d="M482.2,452.2c0.1,0.7,0.7,1.2,1.4,1.2c0.7-0.1,1.2-0.7,1.2-1.4c-0.1-0.7-0.7-1.2-1.4-1.2
							C482.7,450.9,482.2,451.5,482.2,452.2z"/>
					</g>
					<path d="M497.7,456.2c-0.4-0.4-6.6-7.5-15.6-6.1c-6.3,1-9.9,5.4-10.7,6.5c-0.2-0.1-0.4-0.1-0.7-0.2c-0.1-0.1-0.3-0.1-0.4-0.2
						c2.6-5.7,8.4-9.3,14.5-8.9C490.4,447.7,495.3,451.1,497.7,456.2z"/>
				</g>
				<g>
					<path class="st9" d="M526.5,456.4c4.2-6.3,10.9-9.4,17-7.8c6.2,1.5,9.3,7.2,9.9,8.4c-2.3,1.3-6.8,3.5-12.6,3.6
						C533.8,460.6,528.8,457.8,526.5,456.4z"/>
					<g>
						<path class="st11" d="M546.8,455c-0.3,3.1-3.1,5.4-6.2,5c-3.1-0.3-5.4-3.1-5-6.2c0.3-3.1,3.1-5.4,6.2-5
							C544.9,449.1,547.1,451.9,546.8,455z"/>
						<path d="M544.5,454.6c-0.2,1.7-1.7,3-3.4,2.8c-1.7-0.2-3-1.7-2.8-3.4c0.2-1.7,1.7-3,3.4-2.8
							C543.4,451.4,544.7,452.9,544.5,454.6z"/>
						<path class="st9" d="M540.3,452.1c-0.1,0.7-0.7,1.2-1.4,1.1c-0.7-0.1-1.2-0.7-1.1-1.4c0.1-0.7,0.7-1.2,1.4-1.1
							C539.9,450.8,540.4,451.4,540.3,452.1z"/>
					</g>
					<path d="M526.5,456.1c0.4-0.4,6.7-7.3,15.7-5.7c6.3,1.1,9.7,5.7,10.5,6.8c0.2-0.1,0.4-0.1,0.7-0.2c0.1,0,0.3-0.1,0.4-0.2
						c-2.5-5.8-8.2-9.5-14.3-9.3C534,447.8,529,451.1,526.5,456.1z"/>
				</g>
				<path d="M493.2,433c-1.6-0.1-6.2-0.5-12.1,1c-8.4,2-12.7,5.8-13.5,6.8c-1.1,1.3-1.8,2.8-1.8,2.8c-0.5,1.2-0.7,2.2-0.8,3.7
					c-0.2,1.6-0.3,3.7-0.4,6.2c0.2-0.3,0.4-0.6,0.6-1c0,0,1.2-1.8,2.8-3.4c5.7-5.7,15.1-8.5,15.1-8.5c6.1-1.8,11.6-1.9,15.6-1.6
					c0.3-0.3,1.1-1.4,1.1-3c0-0.8-0.2-1.4-0.4-1.8C497.8,433.7,495.7,433.2,493.2,433z"/>
			</g>
			<g>
				<path d="M531.1,431.8c1.6,0,6.2,0.1,12,2c8.2,2.7,12.2,6.8,12.9,7.9c1,1.4,1.5,2.9,1.5,2.9c0.4,1.3,0.5,2.3,0.5,3.7
					c0,1.6,0,3.7-0.1,6.2c-0.2-0.3-0.3-0.7-0.5-1c0,0-1-1.9-2.5-3.6c-5.2-6.2-14.4-9.8-14.4-9.8c-5.9-2.3-11.4-2.9-15.4-2.9
					c-0.3-0.4-1-1.5-0.8-3c0.1-0.8,0.3-1.4,0.5-1.8C526.4,432.1,528.6,431.8,531.1,431.8z"/>
			</g>
			<path class="st9" d="M401.6,739.2c-13.8,265.5-27.6,531-41.5,796.5c30.9,8.4,56.2,10.8,72.7,11.5c67.3,2.7,81.9-18.3,139.7-9.5
				c14,2.1,31.9,6.3,58.9,5.1c19.3-0.8,35-4,45.1-6.5c-15-265.7-30.1-531.4-45.1-797.1c-34-1.8-60.1-0.4-78.2,1.3
				c-9.1,0.9-20.5,2.2-37.1,2.2c-20.1-0.1-32.5-2.1-45.3-3.5C454.5,737.5,431.1,736.4,401.6,739.2z"/>
			<rect x="510.2" y="487.5" class="st12" width="3.7" height="8.3"/>
			<path class="st8" d="M588.4,572.6c-21.4,11-42.8,22.1-64.2,33.1v122.8l-10.7,10l0-152.7c9.7-6.6,21.3-13.3,34.8-19.4
				c6.1-2.7,12-5.1,17.7-7.1C573.5,563.8,581,568.2,588.4,572.6z"/>
			<path class="st6" d="M328.7,1010.9c-0.9,4.5-2.1,10.8-2.9,18.4c-1.7,15.1-2.5,22.7-0.5,30c1.5,5.4,2,2.9,18,29.1
				c0.3,0.5,3.1,5.1,8,10.4c3.9,4.1,9.5,10.2,13.1,8.7c2.6-1.1,2.9-5.7,2.9-6c0.3-5.9-4.7-8.9-10.2-15.8
				c-2.1-2.6-9.9-12.6-11.2-25.1c-0.6-5.6-0.2-14.9,3.8-16.4c2.4-0.8,5.6,1.3,7.4,3.3c4.4,4.9,1.2,10.1,5.2,21.1
				c1.6,4.3,3,6.2,5,6.8c1.9,0.5,4-0.1,5.3-1.4c2-1.8,2-4.7,1.9-7.8c0-2.6-0.5-4.3-1.1-7.1c-1.1-5-1.7-9.2-1.9-10.5
				c-0.8-6,0.2-10,0.5-13.8c0.6-5.5,0.2-13.4-4.1-24H328.7z"/>
			<path class="st9" d="M380.2,599.9c-4.8,4-11,10-16.3,18.6c-9,14.6-10.8,28.7-11.4,34.6c-2.6,23.2-17.4,166.7-36.4,364.1
				c10.9,1.9,22.9,3.4,35.8,4.3c10.6,0.8,20.6,1,30,0.9c2.4-26.7,4.6-53.6,6.9-80.6c5.5-66.2,10.4-132,15-197.1
				C395.9,696.5,388.1,648.2,380.2,599.9z"/>
			<path class="st6" d="M705.1,1007.1c0.9,4.5,2.1,10.8,2.9,18.4c1.7,15.1,2.5,22.7,0.5,30c-1.5,5.4-2,2.9-18,29.1
				c-0.3,0.5-3.1,5.1-8,10.4c-3.9,4.1-9.6,10.2-13.1,8.7c-2.6-1.1-2.9-5.7-2.9-6c-0.3-5.9,4.7-8.9,10.2-15.8
				c2.1-2.6,9.9-12.6,11.2-25.1c0.6-5.6,0.2-14.9-3.8-16.4c-2.4-0.8-5.6,1.3-7.4,3.3c-4.4,4.9-1.2,10.1-5.2,21.1
				c-1.6,4.3-3,6.2-5,6.8c-1.9,0.5-4-0.1-5.3-1.4c-2-1.8-2-4.7-1.9-7.8c0-2.6,0.5-4.3,1.1-7.1c1.1-5,1.7-9.2,1.9-10.5
				c0.8-6-0.2-10-0.5-13.8c-0.6-5.5-0.2-13.4,4.1-24H705.1z"/>
			<path class="st9" d="M645.9,600.4c7.1,5.3,11.4,10.6,13.9,14.5c0,0,7,10.5,12.4,33.6c0,0.1,0.3,1.1,0.6,2.5
				c0.3,1.4,0.8,3.2,1.3,5.4c0.9,3.8,1.4,5.8,1.7,7.1c4.9,21.5,21.7,159.9,41.8,350c-10.9,1.9-22.9,3.4-35.8,4.3
				c-10.6,0.8-20.6,1-30,0.9c-2.4-26.7-4.6-53.6-6.9-80.6c-5.5-66.2-10.4-132-15-197.1c4.4-21.1,8.4-44.3,11.2-69.5
				C644.2,646,645.5,622.2,645.9,600.4z"/>
			<path class="st8" d="M401.3,780.6c-1.5-0.2-11.1,80.5-28.6,241.9c3.1,0,6.2,0,9.3,0.1C381.9,1022.5,381.9,1022.5,401.3,780.6z"/>
			<path class="st8" d="M632.6,776.8c0.8-0.1,3.8,24.2,8.3,60.3c9.1,73.4,15.7,135.3,20.3,181.6c-1.4,0-2.8,0-4.2,0
				c-1.7,0-3.4,0-5.1,0C634.6,824.1,631.4,776.9,632.6,776.8z"/>
			<path class="st8" d="M437.6,572.9l65.2,32.9v122.8l10.7,10l0-152.7c-9.7-6.6-21.3-13.3-34.8-19.4c-6.1-2.7-12-5.1-17.7-7.1
				C453.2,563.9,445.4,568.4,437.6,572.9z"/>
			<path d="M512.1,486.5c-0.1,0-0.3,0-0.4,0c-5,0-22.8,0.1-29.2,11.4c-0.8,1.5-2.5,3.6-3.5,8c-1,4.4-1.4,11.3,0.2,22.4
				c9.9,14.1,21.4,21,32.8,21c11.4,0,22.9-6.9,32.8-21c1.6-11,1.2-17.9,0.2-22.4c-1-4.5-2.6-6.6-3.5-8
				c-6.4-11.3-24.1-11.4-29.2-11.4C512.3,486.5,512.2,486.5,512.1,486.5z M507.2,511.9c-0.4,1.1-1.8,4.4-5.1,5.8
				c0,0-4.9,2.2-11.2-1.7c0,0,0,0-0.1,0c-5.2-3.2-5.3-9.9-0.9-14c1.8-1.7,3.8-2.4,4.9-2.7c4.6-1.5,11-2,17.1-2
				c6.1,0,12.5,0.5,17.1,2c1,0.3,3.1,1,4.9,2.7c4.5,4.1,4.3,10.8-0.9,14c0,0,0,0-0.1,0c-6.5,3.7-11.1,1.7-11.2,1.7
				c-3.1-1.4-4.5-4.4-4.9-5.5C513.8,512.1,510.5,512,507.2,511.9z"/>
			<g>
				<path class="st13" d="M390.1,582.7c-0.2,0.9-0.3,1.7-0.4,2.6l0.1-1.8L390.1,582.7z"/>
			</g>
			<g>
				<path class="st13" d="M644.1,652.7c-0.5-1-1.5-2.4-2.9-3.7c0,0-0.5-0.5-1.3-1.1c-0.7-0.5-1.5-1.1-2.4-1.5
					c-9.4-4.6-24.2-2.3-24.2-2.3c-5,0.8-12,2.3-20.3,5.4c-4.1,1.5-8.4,3.3-13,5.6c0.1-1.9,0.2-3.7,0.2-5.5c0.6-21.7-0.8-39.4-2.3-52
					c-1-8.1-1.7-12.1-7.3-45.4c-5-30.1-7.6-45.2-7.7-45.8c-1.4-19.1-1.8-63.6-3.7-87.6c-0.2-2.4-0.5-6.1-3.2-8.4
					c-6-5.2-15.2,3.4-30.5,1.1c-9.3-1.5-9.3-5.2-18.4-5.5c-7.4-0.2-9.3,2.2-19,3.1c-11.6,1-14.6-2-18.5-0.6
					c-8.5,3-7.4,53.1-7.2,65.5c0.7,38.1-4.2,67.4-14.1,126.2c-3.3,19.7-6.7,36.2-9.4,48.2c-0.4,1.9-0.8,3.7-1.2,5.4
					c-0.9-0.3-12-4.2-20.4-5.9c-0.8-0.2-1.5-0.3-2.3-0.4c-5.4-0.8-9.5-0.3-12.3,0c-10.1,1.2-23.9,5.8-24.5,6
					c-2.1-28.2,2-50.5,5.6-64.5c5.4-20.6,13.3-36.7,17.4-44.9c4.8-9.6,9.5-17.4,13.1-23l30.5-71.3c8.6-35.3,6.9-56.7,27.1-72
					c3.4-2.6,6.9-4.6,10.4-6.2c9.2-4.8,17.8-6.1,21.5-6.6c6-0.8,19.1-2.6,33,3.9c0.9,0.4,1.8,0.9,2.7,1.4c0,0,0,0,0.1,0
					c3.1,1.3,6.2,2.9,9.2,4.9c23.1,15.3,21.5,39.9,35.3,82.2c17.6,53.7,42.1,81.9,56.2,124.3c0,0.1,0.1,0.2,0.1,0.3
					C651.9,615.4,650,637.7,644.1,652.7z"/>
				<path d="M564.7,387.2H458.2c-3,0-5.5-2.5-5.5-5.5l0,0c0-3,2.5-5.5,5.5-5.5h106.4c3,0,5.5,2.5,5.5,5.5l0,0
					C570.2,384.7,567.7,387.2,564.7,387.2z"/>
				<path d="M569,398.1H453.9c-3,0-5.5-2.5-5.5-5.5l0,0c0-3,2.5-5.5,5.5-5.5H569c3,0,5.5,2.5,5.5,5.5l0,0
					C574.5,395.7,572,398.1,569,398.1z"/>
			</g>
		</g>
	</g>
	<g>
		<path class="st4" d="M641,348.6c-6.2,0-11.3-4.8-11.8-10.9l-0.1-1.4c-2.8-25.5,5.7-53.4,29.3-81.8c21.3-25.1,33.1-43.5,33.1-64.8
			c0-24.1-15.1-40.2-44.9-40.7c-11.2,0-23.2,2.4-33.4,6.7c-8.3,3.4-17.7-0.7-20.9-9.1v0c-3-7.8,0.6-16.7,8.2-20.2
			c15.4-7.1,35.6-11.4,54.6-11.4c54.4,0,79,33.6,79,69.5c0,32.2-18,55.3-40.7,82.3c-20.8,24.6-28.4,45.4-27,69.5l0,0
			c0.3,6.7-5.1,12.3-11.8,12.3H641z M619.7,411.8c1.3-15.9,12.7-26.7,28.3-26.7c16.6,0,27.9,12.3,27.9,29.8c0,14.1-7.9,25.4-21,28.5
			C633.5,448.4,617.9,433.7,619.7,411.8z"/>
	</g>
</g>
</svg>
