<?xml version="1.0" encoding="utf-8"?>
<!-- Generator: Adobe Illustrator 26.0.1, SVG Export Plug-In . SVG Version: 6.00 Build 0)  -->
<svg version="1.1" id="Layer_1" xmlns="http://www.w3.org/2000/svg" xmlns:xlink="http://www.w3.org/1999/xlink" x="0px" y="0px"
	 viewBox="0 0 874 824" style="enable-background:new 0 0 874 824;" xml:space="preserve">
<style type="text/css">
	.st0{fill:#A5E0DC;}
	.st1{clip-path:url(#SVGID_00000017490107945917671840000011508312200422411179_);}
	.st2{fill:#890804;}
	.st3{fill:#CC936D;}
	.st4{fill:#AF7151;}
	.st5{fill:#FFFFFF;}
	.st6{fill:#513328;}
	.st7{fill:#C48C66;}
	.st8{fill:#AF1919;}
</style>
<g>
	<path class="st0" d="M730.8,412c0,136.6-93.3,251.5-219.6,284.4c-2.5,0.7-5,1.3-7.5,1.8c-21.4,5-43.7,7.6-66.7,7.6
		c-21.2,0-42-2.2-61.9-6.5c-2.3-0.5-4.5-1-6.8-1.5C239.2,666.8,143.2,550.6,143.2,412c0-162.3,131.5-293.8,293.8-293.8
		C599.3,118.2,730.8,249.7,730.8,412z"/>
	<g>
		<defs>
			<path id="SVGID_1_" d="M730.8,412c0,136.6-93.3,251.5-219.6,284.4c-2.5,0.7-5,1.3-7.5,1.8c-21.4,5-43.7,7.6-66.7,7.6
				c-21.2,0-42-2.2-61.9-6.5c-2.3-0.5-4.5-1-6.8-1.5C239.2,666.8,143.2,550.6,143.2,412c0-162.3,131.5-293.8,293.8-293.8
				C599.3,118.2,730.8,249.7,730.8,412z"/>
		</defs>
		<clipPath id="SVGID_00000098211014349533261650000003563522421457090473_">
			<use xlink:href="#SVGID_1_"  style="overflow:visible;"/>
		</clipPath>
		<g style="clip-path:url(#SVGID_00000098211014349533261650000003563522421457090473_);">
			<polygon class="st2" points="200.7,807.2 292.7,399.2 313,274.3 560,274.3 580.1,413.2 686.6,807.2 			"/>
			<path class="st3" d="M598.5,691.2c-51.9,17.2-103.7,34.5-155.6,51.7c-53.4-16.9-106.9-33.8-160.3-50.6
				c23.5-15.2,47-30.4,70.5-45.6c8.1-34.2,16.2-68.4,24.4-102.5c43.7,0,87.3,0,131,0c6.1,33.9,12.2,67.8,18.3,101.7
				C550.6,661,574.6,676.1,598.5,691.2z"/>
			<path class="st3" d="M567,401.7c-0.5,6.8-3,28-7.9,70.4c-2.8,23.7-5.2,43.1-6.8,56.1c-9.8,20.1-31,55.9-70.4,77.8
				c-24.3,13.5-41.3,13.9-45.4,13.9c-22.2,0.1-38.6-9.1-50-16.7c-38.9-26-58-59.9-66.7-79.7c-1.3-9.9-3.3-24.5-5.4-42.1
				c-2.5-21.1-7.4-60.9-8.6-79.8c-2.2-35.6-7.2-104.9,38.1-148.1c35.8-34.2,82.5-35.6,92.4-35.6c9.8-0.1,57.9,0.7,94.1,35.6
				C575.2,296.5,569.6,365.8,567,401.7z"/>
			<path class="st4" d="M455.6,463.6c-1.9,1.7-7.4,5.9-15.7,6.5c-11.3,0.9-19-5.8-20.5-7.1c7,0.1,13.9,0.3,21,0.4
				C445.5,463.5,450.5,463.6,455.6,463.6z"/>
			<g>
				<g>
					<path class="st5" d="M402.3,403.3c-9.9-15.6-26-23.5-41-20.2c-15.2,3.4-23.1,17-24.7,19.9c5.6,3.4,16.4,8.9,30.6,9.5
						C384.1,413.2,396.7,406.7,402.3,403.3z"/>
					<g>
						<path class="st6" d="M356.9,399.6c0.6,7.6,7.3,13.3,14.9,12.7c7.6-0.6,13.3-7.3,12.7-14.9c-0.6-7.6-7.3-13.3-14.9-12.7
							C362,385.3,356.3,391.9,356.9,399.6z"/>
						<path d="M363.7,399.8c0.3,4.2,4,7.4,8.3,7c4.2-0.3,7.4-4,7-8.3c-0.3-4.2-4-7.4-8.3-7C366.5,391.9,363.4,395.6,363.7,399.8z"/>
						<path class="st5" d="M360.3,396.1c0.1,1.7,1.6,3,3.4,2.9s3-1.6,2.9-3.4s-1.6-3-3.4-2.9S360.2,394.4,360.3,396.1z"/>
					</g>
					<path d="M402.3,402.7c-0.9-1.1-16-18.2-38.1-14.8c-15.4,2.4-24.2,13.3-26.2,15.9c-0.5-0.2-1.1-0.3-1.6-0.5
						c-0.4-0.1-0.7-0.3-1-0.4c6.4-14,20.6-22.7,35.6-21.9C384.5,381.8,396.5,390.2,402.3,402.7z"/>
				</g>
				<g>
					<path class="st5" d="M472.7,403.1c10.3-15.3,26.6-22.9,41.5-19.2c15.1,3.8,22.7,17.6,24.2,20.6c-5.7,3.3-16.6,8.5-30.8,8.7
						C490.7,413.5,478.3,406.6,472.7,403.1z"/>
					<g>
						<path class="st6" d="M518.3,400.5c-0.8,7.6-7.6,13.1-15.2,12.3c-7.6-0.8-13.1-7.6-12.3-15.2c0.8-7.6,7.6-13.1,15.2-12.3
							C513.6,386.1,519.1,392.9,518.3,400.5z"/>
						<path d="M511.4,400.6c-0.4,4.2-4.2,7.3-8.4,6.8c-4.2-0.4-7.3-4.2-6.8-8.4c0.4-4.2,4.2-7.3,8.4-6.8
							C508.8,392.6,511.9,396.4,511.4,400.6z"/>
						<path class="st5" d="M515,396.9c-0.2,1.7-1.7,3-3.4,2.8c-1.7-0.2-3-1.7-2.8-3.4s1.7-3,3.4-2.8
							C513.9,393.7,515.1,395.2,515,396.9z"/>
					</g>
					<path d="M472.8,402.5c1-1.1,16.5-17.8,38.4-13.8c15.4,2.8,23.8,13.9,25.8,16.6c0.5-0.1,1.1-0.3,1.7-0.5c0.4-0.1,0.7-0.2,1-0.4
						c-6.1-14.2-20-23.2-35-22.8C491.2,382,478.9,390.1,472.8,402.5z"/>
				</g>
				<path d="M395.7,357.4c-3.5-1.6-13.8-6.1-28.8-7.7c-21-2.3-34,3-36.7,4.5c-3.7,2.1-6.4,5-6.4,5c-2.2,2.4-3.4,4.6-4.9,7.8
					c-1.7,3.5-3.8,8.2-5.9,13.9c0.7-0.5,1.4-1.1,2.2-1.8c0,0,4.1-3.1,9.2-5.5c17.7-8.6,41.9-7.3,41.9-7.3
					c15.6,0.8,28.3,5.1,37.2,9.1c0.9-0.6,3.7-2.4,4.9-5.9c0.6-1.8,0.7-3.4,0.6-4.5C405.8,362.8,401.3,360,395.7,357.4z"/>
			</g>
			<g>
				<path d="M477.4,357.4c3.5-1.6,13.8-6.1,28.8-7.7c21-2.3,34,3,36.7,4.5c3.7,2.1,6.4,5,6.4,5c2.2,2.4,3.4,4.6,4.9,7.8
					c1.7,3.5,3.8,8.2,5.9,13.9c-0.7-0.5-1.4-1.1-2.2-1.8c0,0-4.1-3.1-9.2-5.5c-17.7-8.6-41.9-7.3-41.9-7.3
					c-15.6,0.8-28.3,5.1-37.2,9.1c-0.9-0.6-3.7-2.4-4.9-5.9c-0.6-1.8-0.7-3.4-0.6-4.5C467.3,362.8,471.7,360,477.4,357.4z"/>
			</g>
			<rect x="432.9" y="479.3" class="st7" width="9.2" height="20.4"/>
			<path d="M437.5,476.8c-0.3,0-0.6,0-0.9,0c-12.3,0-55.8,0.3-71.4,28c-2,3.6-6,8.7-8.4,19.7c-2.5,10.9-3.5,27.7,0.4,54.7
				c24.2,34.4,52.4,51.3,80.3,51.3c27.9,0,56.1-16.9,80.3-51.3c3.9-27,2.9-43.8,0.4-54.7c-2.4-11-6.4-16.1-8.4-19.7
				c-15.6-27.6-59-28-71.4-28C438.1,476.8,437.8,476.8,437.5,476.8z M425.7,538.9c-1,2.7-4.5,10.7-12.5,14.2c0,0-11.9,5.3-27.3-4.3
				c-0.1,0-0.1-0.1-0.2-0.1c-12.7-7.8-13.1-24.2-2.1-34.2c4.5-4.1,9.4-5.8,12-6.6c11.3-3.7,26.9-4.9,41.9-4.9
				c15,0,30.6,1.2,41.9,4.9c2.6,0.8,7.5,2.5,12,6.6c11,10,10.6,26.5-2.1,34.2c-0.1,0-0.1,0.1-0.2,0.1c-15.8,9-27.3,4.3-27.3,4.3
				c-7.5-3.3-10.9-10.7-12-13.6C441.7,539.3,433.7,539.1,425.7,538.9z"/>
			<g>
				<path class="st8" d="M139.2,712.2c-0.4,2.2-0.7,4.2-0.9,6.3l0.3-4.4L139.2,712.2z"/>
			</g>
			<g>
				<path class="st8" d="M760.6,883.4c-1.3-2.4-3.6-5.9-7-9.2c0,0-1.2-1.1-3.3-2.6c-1.6-1.2-3.6-2.6-6-3.7
					c-22.9-11.3-59.1-5.5-59.1-5.5c-12.4,2.1-29.4,5.7-49.6,13.1c-9.9,3.7-20.6,8-31.7,13.7c0.2-4.6,0.4-9.1,0.5-13.6
					c1.4-53.2-2-96.5-5.7-127.3c-2.3-19.7-4.2-29.6-18-111.2c-12.4-73.7-18.6-110.5-18.7-112c-3.4-46.8-4.3-155.6-9-214.2
					c-0.5-6-1.3-14.9-7.9-20.6c-14.7-12.8-37.2,8.4-74.6,2.6c-22.8-3.6-22.6-12.8-44.9-13.5c-18.2-0.6-22.6,5.4-46.4,7.5
					c-28.4,2.4-35.8-5-45.3-1.5c-20.8,7.4-18.2,129.8-17.6,160.3c1.6,93.1-10.4,165-34.5,308.7c-8,48.1-16.4,88.5-23,117.8
					c-1,4.7-2.1,9.1-3,13.2c-2.2-0.7-29.4-10.4-49.8-14.5c-2-0.4-3.7-0.7-5.5-0.9c-13.1-2.1-23.3-0.8-30,0
					c-24.6,2.8-58.5,14.1-59.9,14.6c-5.2-69.1,4.8-123.5,13.8-157.9c13.2-50.5,32.6-89.8,42.7-109.8c11.7-23.4,23.1-42.5,32-56.4
					L273.6,386c21-86.5,16.9-138.6,66.3-176.2c8.2-6.3,16.8-11.3,25.5-15.3c22.6-11.8,43.5-14.9,52.6-16.2
					c14.6-2.1,46.6-6.4,80.8,9.6c2.2,1,4.4,2.2,6.6,3.4c0.1,0,0.1,0,0.2,0.1c7.6,3.1,15.2,7,22.6,11.9c56.6,37.3,52.6,97.7,86.4,201
					c43.1,131.3,102.9,200.3,137.6,304.2c0.1,0.4,0.2,0.6,0.3,0.8C779.6,792.1,774.9,846.6,760.6,883.4z"/>
				<path d="M566.2,233.8H305.8c-7.4,0-13.5-6.1-13.5-13.5l0,0c0-7.4,6.1-13.5,13.5-13.5h260.4c7.4,0,13.5,6.1,13.5,13.5l0,0
					C579.7,227.7,573.7,233.8,566.2,233.8z"/>
				<path d="M576.8,260.6H295.3c-7.4,0-13.5-6.1-13.5-13.5l0,0c0-7.4,6.1-13.5,13.5-13.5h281.5c7.4,0,13.5,6.1,13.5,13.5l0,0
					C590.3,254.6,584.2,260.6,576.8,260.6z"/>
			</g>
			<g>
				<path class="st4" d="M482.5,520c0.2,2.3-20.7,7.5-43.2,7.3c-23.1-0.3-44.2-6.2-43.9-8.5c0.2-1.7,14.3-1.5,42.7-1.1
					C467.6,518.1,482.4,518.3,482.5,520z"/>
			</g>
		</g>
	</g>
</g>
</svg>
