<?xml version="1.0" encoding="utf-8"?>
<!-- Generator: Adobe Illustrator 26.0.1, SVG Export Plug-In . SVG Version: 6.00 Build 0)  -->
<svg version="1.1" id="Layer_1" xmlns="http://www.w3.org/2000/svg" xmlns:xlink="http://www.w3.org/1999/xlink" x="0px" y="0px"
	 viewBox="0 0 756 810" style="enable-background:new 0 0 756 810;" xml:space="preserve">
<style type="text/css">
	.st0{clip-path:url(#SVGID_00000036246295552388035290000004892940333524775350_);fill:#A5E0DC;}
	.st1{clip-path:url(#SVGID_00000036246295552388035290000004892940333524775350_);fill:#00747D;}
	.st2{clip-path:url(#SVGID_00000036246295552388035290000004892940333524775350_);}
	.st3{fill:#BEF4EF;}
	.st4{fill:#81CCC6;}
	.st5{fill:#A5E0DC;}
	.st6{fill:#00747D;}
	.st7{fill:#5D5D5D;}
	.st8{fill:#23426F;}
	.st9{fill:#E6E6E6;}
	.st10{fill:#111111;}
	.st11{fill:#13121C;}
	.st12{fill:#363160;}
	.st13{fill:#21151E;}
	.st14{fill:#6A66BF;}
	.st15{fill:#282828;}
	.st16{opacity:0.6;}
	.st17{fill:#E4887F;}
	.st18{fill:#300B18;}
	.st19{fill:#FFB886;}
	.st20{fill:#C6093A;}
	.st21{fill:#FFFFFF;}
	.st22{clip-path:url(#SVGID_00000064322697680027249460000003765427772177703072_);}
	.st23{fill:#432B16;}
	.st24{clip-path:url(#SVGID_00000111189007489538771660000014171495880375304105_);}
	.st25{opacity:0.6;fill:#F58E6F;}
	.st26{fill:url(#SVGID_00000118366866174589307540000000122288830084769953_);}
	.st27{fill:#E86A54;}
	.st28{fill:#B24234;}
	.st29{fill:none;}
	.st30{fill:url(#SVGID_00000165943799061808754080000012890440159629063557_);}
	.st31{fill:url(#SVGID_00000143602709241155117210000015594144453498434707_);}
	.st32{fill:url(#SVGID_00000106865519890372319060000005173309394537842059_);}
	.st33{fill:url(#SVGID_00000114761502359008125080000012423025821542717577_);}
	.st34{fill:url(#SVGID_00000019662380685115191620000017011690410663382697_);}
	.st35{fill:url(#SVGID_00000183239123082012225450000007932642960276559509_);}
	.st36{fill:#D7B26B;}
	.st37{fill:#FAD899;}
	.st38{fill:#FF8752;}
	.st39{fill:#E09A61;}
</style>
<g>
	<g>
		<defs>
			<path id="SVGID_1_" d="M693.3,247c-13.7-24.5-29.8-46-46.4-64.2c-0.2,0.3-0.4,0.6-0.5,0.8c0.2-0.3,0.4-0.6,0.5-0.8
				c-3-3.4-61-52.3-61-52.3l0,0c-1.6-1.3-3.2-2.5-4.8-3.9c-46.3-38.8-81.5-109.2-210.2-98.5c-60,5-99.2,29.4-127.2,62.1
				c-8.4,9.8-15.9,20.6-22.7,31.9c-20.6,34.5-34.3,74.1-48.3,108.7c-18.5,45.7-84.5,52.9-108.4,105.8c-21.7,24.9-33,64.4-38.7,93
				c-4.1,20.6-5.3,35.5-5.3,35.5C14,609,143.3,719.2,276.7,759.1c29.8,8.9,59.9,14.3,88.7,15.8c13.6,0.7,26.9,0.5,39.7-0.6
				c2.6-0.2,5.2-0.5,7.9-0.8c1.8-0.2,3.6-0.4,5.5-0.7c1.5-0.2,3.1-0.4,4.6-0.6c0.8-0.1,1.7-0.2,2.6-0.4c0.8-0.1,1.6-0.2,2.4-0.4
				c43.2-6.6,91.6-21.7,136-44.9c0.2-0.1,0.4-0.2,0.7-0.3c71.6-37.6,132.7-96.2,144.3-174.6c1.6-11,15.7-44.4,20.2-92.4
				C738.2,365.2,712,289.3,693.3,247z M593.6,190.8c0,0,0.1,0.1,0.1,0.1C593.7,190.9,593.7,190.8,593.6,190.8z"/>
		</defs>
		<clipPath id="SVGID_00000107568892089115809210000014297017903024425101_">
			<use xlink:href="#SVGID_1_"  style="overflow:visible;"/>
		</clipPath>
		<path style="clip-path:url(#SVGID_00000107568892089115809210000014297017903024425101_);fill:#A5E0DC;" d="M693.3,247
			c-13.7-24.5-29.8-46-46.4-64.2c-3-3.4-61-52.3-61-52.3c-1.6-1.3-3.2-2.5-4.8-3.9c-46.3-38.8-81.5-109.2-210.2-98.5
			c-60,5-99.2,29.4-127.2,62.1c-8.4,9.8-15.9,20.6-22.7,31.9c-20.6,34.5-34.3,74.1-48.3,108.7c-18.5,45.7-84.5,52.9-108.4,105.8
			c-21.7,24.9-33,64.4-38.7,93c-4.1,20.6-5.3,35.5-5.3,35.5C14,609,143.3,719.2,276.7,759.1c29.8,8.9,59.9,14.3,88.7,15.8
			c13.6,0.7,26.9,0.5,39.7-0.6c2.6-0.2,5.2-0.5,7.9-0.8c1.8-0.2,3.6-0.4,5.5-0.7c1.5-0.2,3.1-0.4,4.6-0.6c0.8-0.1,1.7-0.2,2.6-0.4
			c0.8-0.1,1.6-0.2,2.4-0.4c43.2-6.6,91.6-21.7,136-44.9c0.2-0.1,0.4-0.2,0.7-0.3c71.6-37.6,132.7-96.2,144.3-174.6
			c10.3-51.3,24.6-81.2,24.6-157.8C736.1,343.1,693.3,247,693.3,247z"/>
		<path style="clip-path:url(#SVGID_00000107568892089115809210000014297017903024425101_);fill:#00747D;" d="M-16,590.8h807.9v18.1
			L553.4,804.3c0,0-352.4-5.8-373.2-14.4S-1.6,603.1-1.6,603.1"/>
		<g style="clip-path:url(#SVGID_00000107568892089115809210000014297017903024425101_);">
			<g>
				<rect x="306.1" y="124.8" class="st3" width="163.3" height="101.2"/>
				<path class="st4" d="M469.5,222.4v3.5H307c0.2-0.8,0.4-1.5,0.7-2.3c1.6-5.1,3.3-9.9,5.1-14.6c7.4-0.1,14.9-0.1,22.5-0.1
					c6.6,0,13.1,0,19.5,0.1c2.9-2.2,5.9-4.4,8.8-6.6c16.1,0,32.3,0,48.4,0c4.4,2.7,11.1,6.4,19.8,9.2c1.8,0.6,3.6,1.2,6.2,1.8
					c13.6,3.1,20,0.4,27.1,5.1C466.6,219.5,468,220.7,469.5,222.4z"/>
			</g>
			<g>
				<g>
					<path class="st4" d="M410.2,196.4v1.9h-43.8v-1.9h1.4v-7.5h1.1v-7h0.9v-5.3h-0.5V176H369v-0.5h0.8c0,0-0.8-0.3-0.8-1.9h0.8
						l0.8-7.1l0.8,7.1h0.8c0,1.7-0.8,1.9-0.8,1.9h0.8v0.5H372v0.6h-0.5v5.3h3v-5.1c0.9-0.9,1.8-1.3,2.6-1.4v-1.3h0.5v1.3
						c1.5,0.1,2.6,1.3,2.7,1.4c-3.8-5.9,1.2-9.3,3.7-10c1.9-0.5,3.4-1.7,4-2.3v-4.9c-1.1-0.4-1.9-1.4-1.9-2.6c0-1.1,0.7-2.1,1.6-2.5
						c-0.4,0.5-0.7,1.1-0.7,1.7c0,1.4,1.2,2.6,2.6,2.6c0.6,0,1.1-0.2,1.5-0.5c-0.5,0.8-1.3,1.3-2.3,1.3c-0.1,0-0.1,0-0.2,0v4.8
						c0.6,0.6,2.1,1.8,4,2.3c2.5,0.7,7.5,4.1,3.7,10c0.1-0.1,1.1-1.3,2.7-1.4v-1.3h0.5v1.3c0.8,0.1,1.6,0.5,2.6,1.4v5.1h3v-5.3h-0.5
						V176h-0.2v-0.5h0.8c0,0-0.8-0.3-0.8-1.9h0.8l0.8-7.1l0.8,7.1h0.8c0,1.7-0.8,1.9-0.8,1.9h0.8v0.5h-0.2v0.6h-0.5v5.3h0.9v7h1.1
						v7.5H410.2z"/>
					<g>
						<path class="st5" d="M376.2,185c-1.2,0-2.2,1-2.2,2.2v9h4.4v-9C378.4,186,377.4,185,376.2,185z"/>
						<path class="st5" d="M384.3,185c-1.2,0-2.2,1-2.2,2.2v9h4.4v-9C386.5,186,385.5,185,384.3,185z"/>
						<path class="st5" d="M392.3,185L392.3,185c-1.2,0-2.2,1-2.2,2.2v9h4.4v-9C394.5,186,393.5,185,392.3,185z"/>
						<path class="st5" d="M400.3,185c-1.2,0-2.2,1-2.2,2.2v9h4.4v-9C402.5,186,401.5,185,400.3,185z"/>
						<rect x="376.6" y="180.2" class="st5" width="1.6" height="1.6"/>
						<rect x="380.2" y="180.2" class="st5" width="1.6" height="1.6"/>
						<rect x="383.7" y="180.2" class="st5" width="1.6" height="1.6"/>
						<rect x="387.3" y="180.2" class="st5" width="1.6" height="1.6"/>
						<rect x="390.7" y="180.2" class="st5" width="1.6" height="1.6"/>
						<rect x="394.3" y="180.2" class="st5" width="1.6" height="1.6"/>
						<rect x="397.7" y="180.2" class="st5" width="1.6" height="1.6"/>
					</g>
				</g>
				<rect x="365.5" y="198.3" class="st6" width="45.4" height="4.2"/>
			</g>
			<g>
				<g>
					<path class="st6" d="M334,195.8c0.4,1.7,0.8,3.8,0.9,6.2c0.2,2.5,0.1,4.7-0.1,6.5c-0.3,0.1-0.7,0.2-1.1,0.4
						c-0.7,0.4-1.1,0.9-1.3,1.2c0.4-0.2,0.9-0.4,1.6-0.4c0.5,0,0.4,0.1,0.9,0.2c0.9,0,1.4-0.3,2-0.1c0,0,0.2,0.1,0.4,0.1
						c0,0,0.4,0,0.4-0.1c0-0.1-0.7-0.2-1.5-0.8c-0.2-0.1-0.4-0.3-0.5-0.4c0.2-2,0.2-4.2,0.1-6.7c-0.2-2.4-0.5-4.6-0.9-6.5
						C334.6,195.5,334.3,195.7,334,195.8z"/>
					<path class="st4" d="M333.2,194.9c-0.6,0.2-1.4,0.5-2.2,1.2c-2.4,2-2.2,5.3-2.2,5.8c0.1-0.7,0.6-2.6,2.2-4.2
						c1.1-1.1,2.3-1.6,3-1.9c-0.1,0.8-0.1,1.7,0,2.7c0.2,2.3,1,4.1,1.7,5.3c-0.4-1-0.8-2.6-0.9-4.5c-0.1-1.5,0.1-2.7,0.3-3.7
						c0.5,0.1,1,0.2,1.6,0.5c2.2,1.1,3.1,3.3,3.3,4c0.2-0.6,0.3-1.4,0.1-2.3c-0.5-1.7-2.5-3-4.9-3c0.4-0.2,1-0.5,1.7-0.6
						c2.3-0.2,3.9,1.7,4.2,1.9c-0.1-0.1-1.4-2.7-4-2.8c-1.1,0-2,0.4-2.5,0.7c-0.4-0.3-1.1-0.6-1.9-0.4c-1.6,0.3-2.4,2.6-2.5,4.1
						c-0.1,1.7,0.8,3,1.2,3.5c-0.4-0.9-0.8-2.4-0.5-4c0.1-0.8,0.4-2,1.3-2.4C332.5,194.7,332.9,194.8,333.2,194.9z"/>
				</g>
				<g>
					<path class="st6" d="M339.5,184.4c0.7,3.1,1.4,6.9,1.6,11.1c0.3,4.4,0.2,8.4-0.2,11.7c-0.5,0.1-1.2,0.3-2,0.7
						c-1.3,0.7-2,1.7-2.4,2.2c0.7-0.3,1.7-0.7,2.9-0.7c0.8,0,0.7,0.2,1.6,0.3c1.6,0.1,2.6-0.5,3.5-0.2c0.1,0,0.4,0.1,0.8,0.1
						c0.1,0,0.7,0,0.8-0.2c0-0.2-1.3-0.4-2.7-1.4c-0.4-0.3-0.7-0.5-1-0.7c0.3-3.5,0.4-7.6,0.1-12c-0.3-4.4-0.9-8.3-1.6-11.6
						C340.5,184,340,184.2,339.5,184.4z"/>
					<path class="st4" d="M338,182.9c-1.1,0.3-2.6,0.9-4,2.1c-4.3,3.6-4,9.6-3.9,10.4c0.2-1.3,1-4.6,3.9-7.5c2-2,4.1-2.9,5.3-3.3
						c-0.1,1.4-0.2,3.1,0,4.9c0.4,4.2,1.9,7.4,3,9.5c-0.7-1.9-1.5-4.6-1.7-8c-0.1-2.7,0.2-4.9,0.5-6.6c0.9,0.2,1.9,0.4,2.9,1
						c3.9,2,5.5,5.9,5.9,7.2c0.3-1,0.6-2.5,0.1-4.1c-1-3.1-4.5-5.4-8.8-5.5c0.7-0.4,1.8-0.9,3.1-1c4.1-0.4,7.1,3,7.4,3.4
						c-0.1-0.3-2.6-4.8-7.2-5c-2-0.1-3.6,0.7-4.4,1.2c-0.7-0.5-2.1-1.1-3.5-0.8c-3,0.6-4.3,4.7-4.4,7.3c-0.1,3.1,1.4,5.4,2.1,6.3
						c-0.7-1.7-1.5-4.3-1-7.2c0.2-1.4,0.7-3.7,2.3-4.3C336.6,182.5,337.4,182.7,338,182.9z"/>
				</g>
			</g>
			<g>
				<g>
					<path class="st6" d="M440.8,204.5c0.4,1.7,0.8,3.8,0.9,6.2c0.2,2.5,0.1,4.7-0.1,6.5c-0.3,0.1-0.7,0.2-1.1,0.4
						c-0.7,0.4-1.1,0.9-1.3,1.2c0.4-0.2,0.9-0.4,1.6-0.4c0.5,0,0.4,0.1,0.9,0.2c0.9,0,1.4-0.3,2-0.1c0,0,0.2,0.1,0.4,0.1
						c0,0,0.4,0,0.4-0.1c0-0.1-0.7-0.2-1.5-0.8c-0.2-0.1-0.4-0.3-0.5-0.4c0.2-2,0.2-4.2,0.1-6.7c-0.2-2.4-0.5-4.6-0.9-6.5
						C441.4,204.3,441.1,204.4,440.8,204.5z"/>
					<path class="st4" d="M440,203.7c-0.6,0.2-1.4,0.5-2.2,1.2c-2.4,2-2.2,5.3-2.2,5.8c0.1-0.7,0.6-2.6,2.2-4.2
						c1.1-1.1,2.3-1.6,3-1.9c-0.1,0.8-0.1,1.7,0,2.7c0.2,2.3,1,4.1,1.7,5.3c-0.4-1-0.8-2.6-0.9-4.5c-0.1-1.5,0.1-2.7,0.3-3.7
						c0.5,0.1,1,0.2,1.6,0.5c2.2,1.1,3.1,3.3,3.3,4c0.2-0.6,0.3-1.4,0.1-2.3c-0.5-1.7-2.5-3-4.9-3c0.4-0.2,1-0.5,1.7-0.6
						c2.3-0.2,3.9,1.7,4.2,1.9c-0.1-0.1-1.4-2.7-4-2.8c-1.1,0-2,0.4-2.5,0.7c-0.4-0.3-1.1-0.6-1.9-0.4c-1.6,0.3-2.4,2.6-2.5,4.1
						c-0.1,1.7,0.8,3,1.2,3.5c-0.4-0.9-0.8-2.4-0.5-4c0.1-0.8,0.4-2,1.3-2.4C439.2,203.4,439.7,203.5,440,203.7z"/>
				</g>
				<g>
					<path class="st6" d="M446.2,193.1c0.7,3.1,1.4,6.9,1.6,11.1c0.3,4.4,0.2,8.4-0.2,11.7c-0.5,0.1-1.2,0.3-2,0.7
						c-1.3,0.7-2,1.7-2.4,2.2c0.7-0.3,1.7-0.7,2.9-0.7c0.8,0,0.7,0.2,1.6,0.3c1.6,0.1,2.6-0.5,3.5-0.2c0.1,0,0.4,0.1,0.8,0.1
						c0.1,0,0.7,0,0.8-0.2c0-0.2-1.3-0.4-2.7-1.4c-0.4-0.3-0.7-0.5-1-0.7c0.3-3.5,0.4-7.6,0.1-12c-0.3-4.4-0.9-8.3-1.6-11.6
						C447.3,192.7,446.7,192.9,446.2,193.1z"/>
					<path class="st4" d="M444.7,191.6c-1.1,0.3-2.6,0.9-4,2.1c-4.3,3.6-4,9.6-3.9,10.4c0.2-1.3,1-4.6,3.9-7.5c2-2,4.1-2.9,5.3-3.3
						c-0.1,1.4-0.2,3.1,0,4.9c0.4,4.2,1.9,7.4,3,9.5c-0.7-1.9-1.5-4.6-1.7-8c-0.1-2.7,0.2-4.9,0.5-6.6c0.9,0.2,1.9,0.4,2.9,1
						c3.9,2,5.5,5.9,5.9,7.2c0.3-1,0.6-2.5,0.1-4.1c-1-3.1-4.5-5.4-8.8-5.5c0.7-0.4,1.8-0.9,3.1-1c4.1-0.4,7.1,3,7.4,3.4
						c-0.1-0.3-2.6-4.8-7.2-5c-2-0.1-3.6,0.7-4.4,1.2c-0.7-0.5-2.1-1.1-3.5-0.8c-3,0.6-4.3,4.7-4.4,7.3c-0.1,3.1,1.4,5.4,2.1,6.3
						c-0.7-1.7-1.5-4.3-1-7.2c0.2-1.4,0.7-3.7,2.3-4.3C443.4,191.2,444.2,191.4,444.7,191.6z"/>
				</g>
			</g>
			<g>
				<path class="st6" d="M471.9,228.4H303.7V122.3h168.2V228.4z M308.6,223.5H467v-96.3H308.6V223.5z"/>
			</g>
		</g>
	</g>
	<g>
		<g>
			<path class="st7" d="M282.5,515.5c-0.6-1.1-14.2-26-9.9-41.4l6.2,0.8c-3,10.9,5.8,30.5,9.5,37.1L282.5,515.5z"/>
			<path class="st7" d="M343.9,499.9c-0.6-1-14.7-25.3-11.1-40.2l6.1,0.8c-2.5,10.6,6.8,29.6,10.7,36L343.9,499.9z"/>
			<path class="st7" d="M380,695.9c4.4-78.6,8.6-152.5-20.2-165.1l-3.2,7.5c24.4,10.6,19.8,85.5,15.4,157.8L380,695.9z"/>
			<path class="st7" d="M457.4,667.3c-2.6,0.3-5.1,0.5-7.7,0.8c0.5-10.5,0.7-21.3,0.5-32.5c-0.9-51.5-9.9-96.9-21.2-134.6l2.7-6.5
				c13.5,38.6,24.7,86.2,26,140.9C458,646.4,457.9,657,457.4,667.3z"/>
			<path class="st7" d="M316.4,664.8l8.1-0.9c0.6-17.6,0.3-36.1,0-55.3c-0.9-55.7-1.8-114.5,23-125.9l-2.8-5.6
				c-29.3,13.4-28.7,71.8-28,132.6C316.9,628.9,317,647.3,316.4,664.8z"/>
			<path class="st7" d="M256.6,682c2.1-71.6,4.3-145.8,30.3-159.9l-2.6-7c-30.9,16.5-33.4,90.1-36,168.2L256.6,682z"/>
			<path class="st8" d="M325.8,353.5c-18-0.1-53.6,8.8-63.6,24.8c-10.3,16.4-3.5,98.6,6.5,104.6c10.1,6,70-12,82.6-32.2
				C363.5,431.1,362.4,353.7,325.8,353.5z"/>
			<path class="st8" d="M340.4,498.4c-23.7,5-79.9,16.5-69.1,24.9c10.9,8.5,97.7,26.4,125.6,22.9c27.5-3.4,81.9-22.7,83.9-26.6
				C489.9,501.4,368.7,492.4,340.4,498.4z"/>
			<path class="st9" d="M452.2,504.1c-35.4-7.1-93.3-9.6-111.8-5.7c-4.9,1-11,2.3-17.7,3.8l0.3,0.2c-11.9,3.6-38,10.9-12.9,16.8
				c25.1,5.9,70.4,15.7,106.2,8.4C451.3,520.3,471.8,512.8,452.2,504.1z"/>
			<path class="st9" d="M351.3,450.7c11.3-18.1,11.2-86.1-17.8-95.9c-8.5,0.6-40.6,4.5-54.8,22.3c-8,10-10,78.2,4.9,88.8
				c15,10.7,43.6,1.6,56.9-4.7C345.2,457.9,349,454.3,351.3,450.7z"/>
		</g>
		<g>
			<path class="st10" d="M404.8,329.3c2.7,0,6.7,2.3,11.6,14.1c8.1,19.5,6.7,36,10.8,52.6c2.2,8.6,6.8,21.1,18,35.1
				c-3.5,6.9-6.9,13.8-10.4,20.7c-8.8-8-22.1-22.3-31.9-43.8c-7.9-17.1-10.7-32.7-11.8-43.4c0.3-3.7,2.2-29,10.5-34.2
				C402.2,330,403.3,329.3,404.8,329.3z"/>
			<g>
				<g>
					<g>
						<g>
							<g>
								<g>
									<g>
										<g>
											<path class="st11" d="M428.1,657.1l-3.8-4.3c3-1.3,13.1-2.1,22-0.8L428.1,657.1z"/>
											<polygon class="st11" points="458,645.6 466.9,646.5 459.7,648.9 											"/>
											<g>
												<path class="st12" d="M456.3,686.4c1,1.8,8,3.6,8,3.6c1-1.1,2-2.3,2.9-3.4c1,0.7,2.4,1.8,3.3,3.6
													c0.5,0.9,0.6,1.5,0.9,2.2c1.2,3.5,4.4,5.5,5.1,5.9c2.1,1.3,4.2,1.5,8.5,1.8c3.6,0.3,6.9-0.1,10.7-0.6
													c6.4-0.8,7.8-3.9,7.8-3.9s-0.2-4.4-0.2-4.9c0-0.2-0.1-0.3-0.3-0.5c-0.3-0.3-0.7-0.5-0.7-0.5s0.1-1.8-0.7-3.3
													c-1.5-2.6-6.9-4.1-8-4.7c-3.7-1.9-8.3-6.1-10.4-10c-2.1-3.9-3.9-11.2-4-12c-0.4-3.9-0.7-12.3-1.1-12.5
													c-0.5-0.3-6.1-0.3-8.1-0.4c-2-0.1-2.8,1.3-2.8,1.4c0,0,0,0,0,0l-4.5-0.6l-2.8-0.4l-0.4-1.4l-1.4-0.5l0.2,11.4
													c0,0-1.4,3.3-2.3,6.1c-0.8,2.8-0.2,7.2-0.2,7.2s0,0,0,0c0,0-0.2,0.1-0.4,0.3c-0.1,0.1-0.2,0.3-0.2,0.5
													c0,0.2,0,0.3,0,0.5c0,0,0,0,0,0C455.1,676.5,456.1,686,456.3,686.4z"/>
												<path class="st13" d="M462.2,669.2c1.9,1.5,4,1.4,4.1-0.8c0.1-2.2-0.4-16.5,0.8-19.9l0,0c0,0,0,0,0,0l-7.3-1
													c0,0,0.3,12.3,0.3,15.8C460.1,666.8,460.3,667.7,462.2,669.2z"/>
												<path d="M456.3,686.4c1,1.8,8,3.6,8,3.6c1-1.1,2-2.3,2.9-3.4c1,0.7,2.4,1.8,3.3,3.6c0.4,0.8,0.5,1.3,0.8,2
													c1.4,3.8,4.8,6,5.2,6.2c1.7,1.1,3.5,1.2,7,1.6c4.2,0.5,7.9,0.1,12.1-0.4c6.4-0.8,7.8-3.9,7.8-3.9s-0.2-4.4-0.2-4.9
													c0-0.2-0.1-0.3-0.3-0.5c-0.5,0.8-1.5,1.5-3.3,2.1c-5.8,1.9-14.1,2-18.6,1.5c-4.5-0.5-6.3-1.3-8.8-6.8
													c-2.5-5.5-6.1-8.3-11.4-11.5c-4.7-2.8-5.5-3.7-5.7-5c-0.1,0.1-0.2,0.3-0.2,0.5c0,0.2,0,0.3,0,0.5c0,0,0,0,0,0
													C455.1,676.5,456.1,686,456.3,686.4z"/>
												<path class="st14" d="M455.1,671.6C455.1,671.6,455.1,671.6,455.1,671.6c0.3,1.1,0.9,1.6,3.5,3.3
													c2.6,1.7,7.1,4,10.2,7.4c3.1,3.3,4.1,7.5,5.2,8.8c1.7,1.9,3.3,3.1,7.3,3.4c4,0.2,11.1,0.4,16.5-1
													c5.4-1.4,5.6-2.5,5.6-2.5c0-0.5-1-0.9-1-0.9s0.2,0.8,0,1.1c-0.7,0.8-4.1,2.1-8.4,2.5c-8,0.7-15.2,0.3-17.7-1.4
													c-2.6-1.7-3.3-6.1-6.1-9.7c-2.8-3.6-10.6-8-12.8-9.6c-2.2-1.5-1.6-2.4-1.6-2.4c0,0-0.6,0.3-0.6,0.8
													C455.1,671.3,455.1,671.4,455.1,671.6z"/>
											</g>
											<g>
												<path class="st12" d="M424.6,679.7c0,0,2.2,11.4,2.9,13.6c0.6,2.2,3,3.7,3.1,3.8c0,0,0,0,0,0l3.1-0.2c0,0,1.2,1.7,2,4.7
													c1.7,6.3,6.7,8.5,13.6,8.7c1,0,2.1,0,3.2,0c12.6-0.6,14.5-4.7,14.5-4.7s0.7-4.5,0.7-5.1c0-0.1,0-0.1,0-0.2
													c-0.1-0.2-0.2-0.4-0.3-0.5c-0.3-0.3-0.6-0.6-0.6-0.6s0.1-0.8,0.3-2.1c0.5-4.5-6.3-8.5-8-10
													c-13.8-11.5-12.2-21-12.8-35.2c-4.3-0.7-10.3,1-13,1c-2.7,0-3.7,0.7-3.7,0.7c-0.3,0-0.5,0-0.7,0c-1.6,0-2.5-0.3-3.1-0.9
													c-0.6-0.6-1.4,0.3-1.4,0.1c0.1,0.4,0.6,3.3,0.8,7.2c0.3,4.7,0.8,6.3-0.3,10.5c-1.1,4.2,0.1,8.4,0.1,8.4l-0.2,0.4
													L424.6,679.7z"/>
												<path d="M427.5,675.6c0.8,1.5,2.3,4.1,3.7,2.1c1.5-2,0.4-6-0.1-9.6c-0.5-3.6-1.5-14.4-1.5-14.4c-2,0-3.1-0.3-3.8-0.9
													c0.3,3.3,1,13.1,1,16.2C426.7,673.1,426.7,674.1,427.5,675.6z"/>
												<path d="M424.6,679.7c0,0,1.1,11.4,1.7,13.7c0.6,2.2,4.1,3.7,4.3,3.8c0,0,0,0,0,0l3.1-0.2c0,0,1.2,1.7,2,4.7
													c1.7,6.3,6.7,8.5,13.6,8.7c1,0,2.1,0,3.2,0c12.6-0.6,14.5-4.7,14.5-4.7s0.7-4.5,0.7-5.1c0-0.1,0-0.1,0-0.2
													c-0.1-0.2-0.2-0.4-0.3-0.5c-0.9,1.4-2.1,2.5-6.4,3.6c0,0-0.1,0-0.1,0c-4.9,1.2-11,1.9-17.2,0.7c-3.7-0.7-5.8-2.7-7-5.4
													c-1.2-2.7-5.2-10.6-9.3-16c-1.1-1.4-2-2.5-2.7-3.3L424.6,679.7z"/>
												<path class="st14" d="M424.6,679.7c0,0,1.2,1.2,3.6,4.6c2.4,3.4,6.3,10.2,7.6,13.1c1.2,2.9,2.6,5.7,5.4,6.6
													c5.2,1.8,13.2,1.3,17.2,0.5c8.3-1.6,9.3-4.1,9.3-4.1l0,0c-0.2-0.6-0.8-1.1-0.8-1.1c-0.2,1.3-0.3,1.2-0.8,1.6
													c-2.6,1.8-8.3,3-15,3.3c-6.7,0.3-12-0.6-14-5.4c-2.1-4.8-4.8-9.5-6.6-12.3c-1.9-2.8-5.5-7.4-5.5-7.4L424.6,679.7z"/>
											</g>
										</g>
										<path class="st15" d="M502,664.1c-4.9,4.6-21.4,7.6-39.8,8.9c-8.7,0.6-17.8,0.8-26.3,0.7l0,0c-0.2,0-0.3,0-0.5,0l0,0
											c-0.3,0-0.6,0-0.9,0c-0.1,0-0.2,0-0.3,0c-2.4-0.1-4.7-0.1-6.9-0.2c-6.3-0.3-12.1-0.9-16.7-1.6c-1.8-0.3-3.4-0.6-4.8-1
											c-0.5-0.1-1.1-0.3-1.5-0.4l0,0c-2.7-0.8-4.6-1.8-5.3-2.9c-2.2,0.3-4.5,0.4-6.9,0.2c-7.6-0.5-15.3-3.3-17.4-5.8
											c3.6-30.3,7.8-61,12.5-92.2c0.2-1.1,0.4-2.4,0.4-2.4c1.2-8.1,2.1-13.9,3.6-21.4c0.2-0.9,0.3-1.2,0.3-1.6
											c0.1-7.9-25.1-14.5-51-19.4c26.8-17.5,53.6-34.9,80.5-52.4c6.7-0.8,19.1-1.5,32.9,3.8c24.9,9.6,37.1,30.8,38.9,38.1
											c3.1,13.1,5.9,27.4,7.9,42.6C506.3,599,505.1,635.6,502,664.1z"/>
									</g>
									<g>
										<g>
											<g class="st16">
												<path class="st17" d="M363.8,332.7c0.2,0,0.4-0.1,0.5-0.2c0.2-0.3,0.2-0.7-0.1-0.9c-2.8-2.2-4.5-1.9-7-1.4
													c-3.3,0.6-8.2,1.5-20.2-2.3c-0.3-0.1-0.7,0.1-0.8,0.4c-0.1,0.3,0.1,0.7,0.4,0.8c12.3,3.9,17.5,3,20.9,2.4
													c2.4-0.4,3.6-0.6,6,1.2C363.5,332.6,363.6,332.7,363.8,332.7z"/>
											</g>
											<g class="st16">
												<path class="st17" d="M377.5,331.7c2.3-0.1,5.5-1,10-3.9c0.3-0.2,0.4-0.6,0.2-0.9c-0.2-0.3-0.6-0.4-0.9-0.2
													c-7.4,4.7-10.5,3.8-13.1,3.1c-1.8-0.5-3.6-1-6.1,1.1c-0.3,0.2-0.3,0.6-0.1,0.9c0.2,0.3,0.6,0.3,0.9,0.1
													c2-1.6,3.1-1.3,4.9-0.8C374.5,331.4,375.8,331.8,377.5,331.7z"/>
											</g>
											<path class="st15" d="M331.5,428.4c0.9,8.5-2.5,14.7-3.1,15.6c-0.5,0.7-0.9,1.4-1.4,2.1c-0.1,0.2-0.2,0.4-0.4,0.5
												c-0.4,0.5-0.7,1.1-1.1,1.6c-0.2,0.4-0.5,0.7-0.7,1.1c-0.1,0.2-0.2,0.4-0.4,0.5c-0.4,0.5-0.7,1.1-1,1.6
												c-0.5,0.8-1,1.5-1.4,2.1c-0.1,0.2-0.3,0.4-0.4,0.6c-0.1,0.1-0.2,0.3-0.3,0.4c0,0.1-0.1,0.1-0.1,0.2
												c-0.1,0.1-0.1,0.2-0.2,0.3c-0.3,0.4-0.5,0.7-0.7,1c-0.1,0.1-0.1,0.2-0.1,0.2c-0.2,0.3-0.3,0.5-0.3,0.5
												c0.7,0.5,1.4,1,2.1,1.5c0.2,0.2,0.5,0.4,0.7,0.5c0.7,0.5,1.4,1,2.1,1.5c0.4,0.2,0.7,0.5,1,0.7c1.8,1.3,3.7,2.5,5.5,3.7
												c0.2,0.2,0.5,0.3,0.7,0.4c0.3,0.2,0.5,0.3,0.8,0.5c0.4,0.2,0.7,0.4,1.1,0.7c0.7,0.4,1.4,0.8,2,1.2
												c0.2,0.1,0.3,0.2,0.5,0.3c0.3,0.1,0.5,0.3,0.8,0.4c0.3,0.2,0.6,0.4,1,0.5c0,0,0.1,0.1,0.1,0.1l0,0
												c14.4,8,27.3,11.3,38.8,10.9c8.4-0.3,16.6-4.1,22.4-7.6c5.4-3.3,8.8-6.3,8.8-6.3c-1.2-5.1-3.1-13.6-6-22.8
												c-2.9-9.3,0.2-18.5,1.5-25.6c0.3-1.5,0.4-2.5,0.4-3.3c0.1-2.7-0.1-4.7-0.2-5.2c-0.5-3.5,0.1-9.6,0.8-18
												c0.9-10,1.5-11.4,2.5-22.9c0.2-2.5,0.4-4.3,0.7-7.9c0.3-4.2,0.7-5.5,1.8-14.8c0.5-3.8,0.5-4.2,0.5-4.9
												c-0.1-4.6-1.8-8.3-3.2-10.8c-2.1-1.4-4-2.4-5.4-3.3c-1.2-0.7-4.3-2.4-8.2-4.2c-2-0.9-3.2-1.5-4.8-2.1
												c-0.6-0.2-1.3-0.4-2.3-0.8c-1.4-0.5-2.4-1-3.1-1.2c-3.8-1.6-7.6-3.4-10.3-5.2c-0.8-0.6-1.5-1.1-2-1.6
												c-0.9-0.8-1.4-1.6-1.4-2.4c-0.1-3.5-0.8-22-0.8-22l-31-7.1c0,0,1.5,16.6-1.4,22.9c-2.9,6.4-4.2,8-12,13.4
												c-5.3,3.7-10.7,7.2-13.6,9.1c-0.9,0.4-1.7,0.8-2.5,1.2c-1.8,0.9-7.1,3.9-8.2,4.6c-14.2,8.9,9.4,58.5,13.4,64.1
												c0,0,13.6,15.1,17.3,29.3C331.2,426.4,331.4,428.1,331.5,428.4z"/>
										</g>
										<path class="st15" d="M306.9,382.3c0,0-0.6-1.5-1.3-1.9c0,0,0,0,0,0c0,0,0,0,0,0c0.3,0.4,0.6,0.8,0.9,1.2c0,0,0,0,0,0
											c1.6,1.9,3.7,4,6.1,4.6c7,1.9,14.2-27.9,14.7-32.2c0.5-4.6,0.3-9.2-0.5-13.7c-1.2-7.2-4-14-8.5-19.9
											c-0.5-0.6-0.9-1.2-1.4-1.8c0,0,4.2-2.7,4.2-2.7l4,0l0,0l52.1-0.4l0.8,0l5.7,1.7c0.4,0.4,0.8,0.9,1.2,1.3
											c0.2,0.2,0.3,0.4,0.5,0.5l0,0c2,2.3,3.8,4.8,5.5,7.3c1.9,2.9,3.7,5.9,5.2,9c6,12.4,8.6,31.1,8.6,31.1
											c0.8,5.8,1.7,12.7,1.1,21.9c-0.3,3.9-0.8,7.1-1.2,9.5c-1,7.6-1.2,14.5-0.9,20.6c0,0,0,0,0,0c-0.2,6.2-0.3,12.3-0.4,18.5
											c0.5,5.7,1.3,11.8,2.4,18.3c0,0,0,0,0,0c0,0,0,0,0,0c11,1.6,28.3,5.5,46.4,16.6c10.9,6.7,19.1,14,24.9,20.2
											c0.5,5.3,0.5,13.3-3.5,21.3c-9.6,19.5-34.6,23.5-45.4,25.3c-4.6,0.7-8.3,0.9-11.6,0.8c-10.3-0.5-14.8-3.1-24.9-4.7
											c-3.9-0.6-2.2-0.1-18.4-0.8c-16.9-0.8-28.4-1.9-40.9-4.2c-3.2-0.6-4.9-0.9-5.5-1.2c-15.3-7.3-12.9-46.7-6.9-71.6
											c0-0.2,0.1-0.3,0.1-0.5l0,0c0.3-1.3,0.7-2.7,1.1-4c2.3-7.5,4.2-14.9,3.7-22.8c-0.6-8.3-3.1-16.6-6.1-24.2
											c-1.2-2.9-2.2-5.3-2.8-6.5C310.9,387.8,307.4,384.2,306.9,382.3z"/>
										<g>
											<g>
												<path class="st15" d="M372.9,307.4l7.1,0.2c7.5,0.2,13.8-5.7,14-13.2l0.3-11.4l-20.7-0.6L372.9,307.4z"/>
												<g>
													<path class="st18" d="M397.2,261.9c-0.5-0.1-1-0.1-1.4-0.2l-2.3,21.7l2,0.1C396,276.4,396.6,269.1,397.2,261.9z"/>
													<path class="st19" d="M334.4,254.7c0,3.6,0.5,7.4,1.7,11.4c0.3,0.9,0.6,1.8,0.9,2.8l10.4,15.3c0,0,2,4.7,3.7,6.6
														c0.9,1,19.3,15.1,23.6,15.5c0.6,0.1,1.1,0.1,1.6,0.1l0,0c3.1,0,4.7-0.8,5.5-1.7c0.3-0.4,1.5-3.2,4.8-7.3
														c6.8-8.5,8.5-18.3,8.8-24.3c0.1-2,0.1-3.5,0-4.5c0,0,1.8-5,2-7.2c0-0.1,0-0.2,0-0.3c0-0.6,0.3-3.9-0.2-8.5
														c-1.2-10.4-6.5-27-28.4-31.8C354.4,217.7,334.5,232.7,334.4,254.7z"/>
													<g>
														<path class="st20" d="M380.7,289.8c0.7,0.1,1.2,0.4,1.5,0.6c0.3-0.2,0.6-0.3,0.8-0.4c0.1,0,0.3-0.1,0.6,0
															c0.5,0.1,0.7,0.4,1.5,1.2c0.2,0.2,0.5,0.5,0.9,0.9c-0.5,0.2-1.3,0.4-2.4,0.5c-3.5,0.6-6.3,0-7.7-0.3
															c-0.8-0.2-1.9-0.5-3.2-0.9c1.5-0.1,2.6-0.3,3.3-0.6C378.1,290.3,379.2,289.5,380.7,289.8z"/>
														<path class="st20" d="M383.6,292.4c0.8-0.1,1.6-0.2,2.3-0.3c-0.3,0.5-1,1.6-2.4,2.3c-1,0.5-1.8,0.5-2.7,0.5
															c-2.9,0.1-5.1-1.2-5.9-1.7c-1-0.6-1.7-1.2-2.2-1.7c1,0.2,2.1,0.4,3.2,0.6C378.8,292.4,381.8,292.5,383.6,292.4z"/>
													</g>
													<g>
														<path class="st21" d="M375.3,270c-0.7,0.5-3.1,2.2-6.3,2.1c-1.7-0.1-3-0.6-3.8-1l-2.9-2c-0.1-0.5-0.2-1.1-0.3-1.6
															c0.9-0.7,2.3-1.7,4.2-2.2c1.1-0.3,3.5-0.9,5.6,0.3c0.8,0.4,1.3,1,1.7,1.5C374.5,268.2,375,269.3,375.3,270z"/>
														<g>
															<defs>
																<path id="SVGID_00000009559817722373219190000016684634260834688677_" d="M375.3,270c-0.7,0.5-3.1,2.2-6.3,2.1
																	c-1.7-0.1-3-0.6-3.8-1l-2.9-2c-0.1-0.5-0.2-1.1-0.3-1.6c0.9-0.7,2.3-1.7,4.2-2.2c1.1-0.3,3.5-0.9,5.6,0.3
																	c0.8,0.4,1.3,1,1.7,1.5C374.5,268.2,375,269.3,375.3,270z"/>
															</defs>
															<clipPath id="SVGID_00000096761366669681132900000015483937419881513118_">
																<use xlink:href="#SVGID_00000009559817722373219190000016684634260834688677_"  style="overflow:visible;"/>
															</clipPath>
															<g style="clip-path:url(#SVGID_00000096761366669681132900000015483937419881513118_);">
																<path class="st23" d="M373,269.3c0,1.8-1.5,3.7-3.3,3.6c-1.9-0.1-3.2-2.1-3-4c0.2-1.6,1.5-3.2,3.3-3.1
																	C371.7,265.9,372.9,267.7,373,269.3z"/>
																<path d="M371.7,269.8c-0.1,1-1,1.7-1.8,1.7c-0.8,0-1.4-0.9-1.3-1.9c0.1-1,0.7-1.8,1.5-1.8
																	C370.9,267.9,371.8,268.8,371.7,269.8z"/>
																<path class="st21" d="M370.2,267.9c0,0.5-0.3,0.8-0.7,0.8c-0.4,0-0.6-0.4-0.6-0.9c0-0.5,0.3-0.8,0.7-0.8
																	C369.9,267.1,370.2,267.5,370.2,267.9z"/>
															</g>
														</g>
														<path d="M375.3,270c0.1-0.1-0.9-3.2-3.5-4.7c-1.9-1.1-3.9-0.9-4.7-0.8c-2.9,0.3-4.8,1.8-5.5,2.4
															c-0.6-0.1-1.3-0.1-1.9-0.2c0.4,0.5,1,1.1,1.7,1.8c1.2,1.1,2.1,2,3.5,2.6c0.6,0.3,1.6,0.6,2.8,0.7
															c-0.5-0.1-1.1-0.3-1.7-0.6c-1.8-0.9-3-2.2-3.6-3.1c0.7-0.7,1.8-1.6,3.4-2.1c2.9-0.9,5.9,0.1,7.7,1.6
															C374.8,268.8,375.3,270.1,375.3,270z"/>
													</g>
													<path d="M378.3,261.7c0.1,0.2,0.3,0.9,0,1.4c-0.4,0.6-1.7,0.8-2.9,0c-0.8-0.3-1.8-0.7-3.2-1.1c-3.1-1-4.9-1.6-6.7-1.8
														c-1.5-0.2-4.3-0.2-7.8,1.6c1.3-1,4.2-3,8.4-3.5C372.6,257.4,377.2,260.9,378.3,261.7z"/>
													<g>
														<path class="st21" d="M384.9,270.8c0.3,0.4,2.4,2.9,5.6,2.9c0.5,0,1.7-0.1,3.1-0.9c1.6-1,2.2-2.5,2.3-3
															c-0.3-0.5-1.4-2-3.5-2.6c-2.5-0.7-4.6,0.6-5.1,0.9C386,269,385.2,270.2,384.9,270.8z"/>
														<g>
															<defs>
																<path id="SVGID_00000149365676921860518280000011039098914793518248_" d="M385.3,271.2c0.3,0.4,2.1,2.6,5.1,2.6
																	c0.4,0,2.1,0,3.6-1.1c0.5-0.4,1.6-1.8,2.2-3.1c0.7-1.6-3.4-2.4-3.6-2.4c-2.4-0.4-4.2,0.7-4.9,1.1
																	C386.3,269.2,385.6,270.5,385.3,271.2z"/>
															</defs>
															<clipPath id="SVGID_00000137120308759938797150000000041590733933737606_">
																<use xlink:href="#SVGID_00000149365676921860518280000011039098914793518248_"  style="overflow:visible;"/>
															</clipPath>
															<g style="clip-path:url(#SVGID_00000137120308759938797150000000041590733933737606_);">
																<path class="st23" d="M392.9,271.6c-0.5,1.9-2,3.1-3.4,2.7c-1.4-0.4-2.2-2.2-1.7-4.1c0.5-1.9,2-3.1,3.4-2.7
																	C392.6,267.9,393.3,269.7,392.9,271.6z"/>
																<path d="M392,271.8c-0.3,1.1-1.1,1.8-1.8,1.6c-0.7-0.2-1.5-1.2-1.2-2.3s1.2-1.9,2.2-1.6
																	C391.9,269.6,392.3,270.7,392,271.8z"/>
																<path class="st21" d="M392.1,269.8c-0.1,0.4-0.4,0.7-0.7,0.6c-0.3-0.1-0.4-0.5-0.3-0.9c0.1-0.4,0.4-0.7,0.7-0.6
																	C392.1,269,392.2,269.4,392.1,269.8z"/>
															</g>
														</g>
														<path d="M388.9,266.9c2.9-1.1,5.5,0.4,5.9,0.7c0.7,0.4,1.2,0.9,1.6,1.2c0.4,0.2,0.8,0.3,1.2,0.5
															c-0.1,0.2-0.3,0.5-0.5,0.8c-0.2,0.2-1.2,1.7-2.4,2.6c-1.8,1.3-4.1,1.1-5,1.1c0.5,0,2.3-0.1,3.8-1.5
															c1.1-1,1.5-2.1,1.6-2.6c-0.3-0.4-1.3-1.5-2.9-1.9c-1.1-0.3-2-0.1-2.5,0c-2.7,0.5-4.3,2.5-4.9,3.2
															C385.1,270.4,386.1,267.9,388.9,266.9z"/>
													</g>
													<path d="M388.9,264.6c-0.8,0-1.7-0.5-1.7-1c0-0.4,0.3-0.7,0.5-0.8c2.1-1.7,3.8-2.2,3.8-2.2c2.4-0.7,4.7-0.7,6.3-0.5
														l-0.1,1.8c-3.7,0.4-5.6,1.3-6.6,2C390.8,264,389.9,264.7,388.9,264.6z"/>
													<g>
														<g>
															<path class="st25" d="M379.4,285.1c0,0,0.1,0.9,0.9,1.4c0.4,0.2,0.9,0.5,1.4,0.6c0.2,0,0.3,0.1,0.5,0.1
																c1,0,2.1-0.6,2.3-1.5c0-0.1,0-0.3,0-0.4c-0.1,0.1-0.3,0.3-0.6,0.4c0,0-0.4,0.2-1,0.3
																C382.4,286,381,285.8,379.4,285.1z"/>
														</g>
													</g>
												</g>
												
													<linearGradient id="SVGID_00000114790718807272052200000001052482139534503860_" gradientUnits="userSpaceOnUse" x1="-398.6349" y1="389.0775" x2="-398.6326" y2="389.0775" gradientTransform="matrix(0.9996 2.814649e-02 -2.814649e-02 0.9996 805.6344 -119.5133)">
													<stop  offset="0" style="stop-color:#6D3138"/>
													<stop  offset="1" style="stop-color:#600C31"/>
												</linearGradient>
												<path style="fill:url(#SVGID_00000114790718807272052200000001052482139534503860_);" d="M396.2,258.2
													C396.2,258.2,396.2,258.2,396.2,258.2L396.2,258.2L396.2,258.2z"/>
												<path class="st15" d="M396,249.2c-0.3-1.2-0.8-2.8-1.8-4.6c0,0-0.1-0.3-0.3-0.5c-1-1.8-6.2-6.4-13.2-7.5
													c-9.6-1.5-17.7,4.5-19.6,5.9c-13.4,10-13.8,27.5-13.8,30.2l-1-21l7.4-25.5l17.9-4.8l12.9,4.1l6.2,5.9
													c1.7,3.8,2.3,5.4,2.7,6.6c0.1,0.3,0.3,1.1,0.6,2.1C394.7,242.2,395.5,245.2,396,249.2z"/>
												<path class="st27" d="M310.8,326.1c1,5,8.1,6.6,22.7,17.3c0,0,0,0,0,0c15.4,8,31.2,15.5,47.4,15.9
													c0.9,0,1.7-0.1,2.5-0.3c8.3-2.6,10.8-18.9,10.2-23.6c-0.6-4.4-3.6-8.9-3.9-10.8c-1.1-6.6,2.7-7.2,1.2-10.3
													s-2.2-5.5-1.1-8.3c1.8-4.5,3.5-6.2,5.8-12.6c0.9-2.3,1.2-4.3,1.6-10.6c0.4-5.9,0.7-13.9,0.5-23.9
													c-0.1,1.2-0.4,3-0.7,5.3c-0.4,2.1-0.7,3.4-0.9,4.5c-0.8,4-0.8,6.8-1.1,8.9c-0.3,1.9-2.1,14.6-6.6,20.6
													c-1.6,2.1-5.4,6.1-5.8,6.3c-0.1,0-0.7,0.8-2.2,1.3c-0.2,0.1-0.7,0.2-1.4,0.2c-0.8,0.1-1.7,0.2-2.7,0.1
													c-2.1-0.1-4.7-1.4-7.8-3.3c-3.1-1.9-6.6-4.4-10.4-6.7c-4.7-2.9-6.8-6.4-7.7-8.9c-0.5-1.3-0.7-2.4-0.8-3.1
													c-5.4-33.2,5-47.3,5-47.3c1.9-2.5,4.8-6.5,10.3-8.8c1.1-0.5,9.3-3.8,17.3,0.1c8.5,4.1,11.2,13.1,12.6,17.9
													c1.2,4,1.7,8.6,1.8,9.7c0.3,3.3,0.4,6.2,0.3,8.3c0.2-1.7,0.5-3.4,0.7-5c-0.2-3.2-0.6-7.8-1.6-13.2
													c-1-5.2-1.5-7.8-2.8-10.5c-4.3-9.2-13.5-13.4-16.2-14.2c-7.2-2.1-13.3-2.8-18.6-2.4c-27.4,2.1-29.4,34.2-30.2,42.8
													c-0.7,7,1.6,10.6,1.6,10.6l-0.3,6.4l-0.2,3.4l1.1,10.2l1.8,4.1c-0.1,0-2.4-0.9-3.1-0.1c-0.2,0.2-0.5,0.6-1,1.2
													c-1.8,2.2-5.4,6.6-6.5,8.5c-0.2,0.4-0.4,0.7-0.6,1l0,0c-0.1,0.2-1.9,5.4-4.4,8.4C314.2,318.3,309.8,321.1,310.8,326.1z"
													/>
												<g>
													<path class="st28" d="M390.2,304.2c-3,5.4-8.6,11.1-18.6,10.3c0,0,8.9,2.9,13.3-0.6
														C389.2,310.4,390.6,303.4,390.2,304.2z"/>
													<path class="st28" d="M384.2,322c-13.2,11.2-26.4,15.4-41.2,1.1c0,0,7.5,11.7,18.6,11.9C372.7,335.2,381,326,384.2,322
														z"/>
													<path class="st28" d="M379.1,305.9c-1.9,0.8-4.8,1.6-8.6,1.6c-5.4,0-9.7-4.3-9.9-4.4c0.2,0.1,7.5,4.3,15.7,2.9l0,0
														C377.4,306,378.4,306,379.1,305.9z"/>
													<path class="st28" d="M345.1,262.5c1.1,11.3,3.7,24.2,3.7,24.2s-6-14.3-6.3-24.2C342.2,252.4,344,251.2,345.1,262.5z"
														/>
												</g>
											</g>
											<path class="st28" d="M390.3,338.6c-3,10.1-6.3,18-19.6,16c-13.2-2-21.8-7.3-21.8-7.3s21.3,7.9,29.6,4.8
												C386.9,349,393.4,328.5,390.3,338.6z"/>
										</g>
										<g>
											<g>
												<polygon class="st29" points="408.3,331.5 408.3,331.5 408.3,331.5 408.3,331.5 												"/>
												<path class="st29" d="M408.3,331.5C408.3,331.5,408.3,331.5,408.3,331.5C408.3,331.5,408.3,331.5,408.3,331.5z"/>
												
													<linearGradient id="SVGID_00000143597927567748187860000010949314642979056549_" gradientUnits="userSpaceOnUse" x1="-513.0638" y1="258.5922" x2="-426.6564" y2="258.5922" gradientTransform="matrix(0.9993 -3.824889e-02 3.824889e-02 0.9993 885.1172 54.5026)">
													<stop  offset="0" style="stop-color:#353541"/>
													<stop  offset="0.2113" style="stop-color:#2E2D37"/>
													<stop  offset="0.6439" style="stop-color:#242228"/>
													<stop  offset="1" style="stop-color:#201E23"/>
												</linearGradient>
												<path style="fill:url(#SVGID_00000143597927567748187860000010949314642979056549_);" d="M408.3,331.5
													C408.3,331.5,408.3,331.5,408.3,331.5C408.3,331.5,408.3,331.5,408.3,331.5z"/>
												
													<linearGradient id="SVGID_00000000912467925040900610000007461544246242950060_" gradientUnits="userSpaceOnUse" x1="-513.081" y1="258.5487" x2="-462.3951" y2="258.5487" gradientTransform="matrix(0.9993 -3.824889e-02 3.824889e-02 0.9993 885.1172 54.5026)">
													<stop  offset="0" style="stop-color:#353541"/>
													<stop  offset="0.2113" style="stop-color:#2E2D37"/>
													<stop  offset="0.6439" style="stop-color:#242228"/>
													<stop  offset="1" style="stop-color:#201E23"/>
												</linearGradient>
												<path style="fill:url(#SVGID_00000000912467925040900610000007461544246242950060_);" d="M408.3,331.5
													C408.3,331.5,408.3,331.5,408.3,331.5C408.3,331.5,408.3,331.5,408.3,331.5z"/>
												
													<linearGradient id="SVGID_00000147925245833688873870000001245549067693292930_" gradientUnits="userSpaceOnUse" x1="-513.1526" y1="258.5832" x2="-421.8794" y2="258.5832" gradientTransform="matrix(0.9993 -3.824889e-02 3.824889e-02 0.9993 885.1172 54.5026)">
													<stop  offset="0" style="stop-color:#353541"/>
													<stop  offset="0.2113" style="stop-color:#2E2D37"/>
													<stop  offset="0.6439" style="stop-color:#242228"/>
													<stop  offset="1" style="stop-color:#201E23"/>
												</linearGradient>
												<path style="fill:url(#SVGID_00000147925245833688873870000001245549067693292930_);" d="M408.3,331.5
													C408.3,331.5,408.3,331.5,408.3,331.5C408.3,331.6,408.3,331.5,408.3,331.5C408.3,331.5,408.3,331.5,408.3,331.5
													C408.3,331.5,408.3,331.5,408.3,331.5z"/>
												
													<linearGradient id="SVGID_00000088117062938848885880000018289681479345325497_" gradientUnits="userSpaceOnUse" x1="-492.6243" y1="258.5388" x2="-481.5217" y2="258.5388" gradientTransform="matrix(0.9993 -3.824889e-02 3.824889e-02 0.9993 885.1172 54.5026)">
													<stop  offset="0" style="stop-color:#353541"/>
													<stop  offset="0.2113" style="stop-color:#2E2D37"/>
													<stop  offset="0.6439" style="stop-color:#242228"/>
													<stop  offset="1" style="stop-color:#201E23"/>
												</linearGradient>
												<polygon style="fill:url(#SVGID_00000088117062938848885880000018289681479345325497_);" points="408.3,331.5 
													408.3,331.5 408.3,331.5 												"/>
												
													<linearGradient id="SVGID_00000031912820811713286580000008536023035097789861_" gradientUnits="userSpaceOnUse" x1="-513.0508" y1="258.532" x2="-481.3891" y2="258.532" gradientTransform="matrix(0.9993 -3.824889e-02 3.824889e-02 0.9993 885.1172 54.5026)">
													<stop  offset="0" style="stop-color:#353541"/>
													<stop  offset="0.2113" style="stop-color:#2E2D37"/>
													<stop  offset="0.6439" style="stop-color:#242228"/>
													<stop  offset="1" style="stop-color:#201E23"/>
												</linearGradient>
												<path style="fill:url(#SVGID_00000031912820811713286580000008536023035097789861_);" d="M408.3,331.5
													C408.3,331.5,408.3,331.5,408.3,331.5L408.3,331.5C408.3,331.5,408.3,331.5,408.3,331.5z"/>
												
													<linearGradient id="SVGID_00000103964078059485022310000001094942005902853047_" gradientUnits="userSpaceOnUse" x1="-513.1296" y1="258.5567" x2="-421.9367" y2="258.5567" gradientTransform="matrix(0.9993 -3.824889e-02 3.824889e-02 0.9993 885.1172 54.5026)">
													<stop  offset="0" style="stop-color:#353541"/>
													<stop  offset="0.2113" style="stop-color:#2E2D37"/>
													<stop  offset="0.6439" style="stop-color:#242228"/>
													<stop  offset="1" style="stop-color:#201E23"/>
												</linearGradient>
												<path style="fill:url(#SVGID_00000103964078059485022310000001094942005902853047_);" d="M408.3,331.5
													C408.3,331.5,408.3,331.5,408.3,331.5C408.3,331.5,408.3,331.5,408.3,331.5C408.3,331.5,408.3,331.5,408.3,331.5
													C408.3,331.5,408.3,331.5,408.3,331.5z"/>
											</g>
										</g>
									</g>
									<path class="st15" d="M445.9,473.8"/>
								</g>
							</g>
						</g>
					</g>
				</g>
			</g>
			<path class="st10" d="M299.3,331.7c2.6-0.8,7.1,0.3,15,10.3c13.2,16.5,16.3,32.7,24.9,47.6c4.5,7.7,12.3,18.4,27,28.8
				c-1.4,7.6-2.8,15.2-4.2,22.7c-10.6-5.3-27.4-15.4-42.8-33.3C307,393.5,300,379.3,296,369.3c-0.8-3.6-5.9-28.5,0.6-35.7
				C297,333.1,297.9,332.1,299.3,331.7z"/>
		</g>
		<path class="st36" d="M472.3,401.2c18.2-23.7,36.5-47.4,54.7-71.2c-4.6,14.1-9.1,28.3-13.7,42.4C499.7,382,486,391.6,472.3,401.2z
			"/>
		<path class="st37" d="M534.8,334.6c-5.4,12.1-10.9,24.3-16.3,36.4c-15.4,10.1-30.7,20.1-46.1,30.2
			C493.1,379,513.9,356.8,534.8,334.6z"/>
		<path class="st36" d="M539.5,343.3c-18.5,34.9-36.9,69.7-55.3,104.6c-16.2,17.1-32.3,34.3-48.5,51.4
			c12.2-32.7,24.4-65.4,36.6-98.1C494.7,381.9,517.1,362.6,539.5,343.3z"/>
		<path class="st38" d="M409.2,426.9l-6,1.8l-20.9-68c0.2-0.3,0.8-1.5,2.2-2c1.9-0.8,3.6,0.1,3.8,0.2
			C395.2,381.5,402.2,404.2,409.2,426.9z"/>
		<path class="st37" d="M472.3,401.2c-12.2,32.7-24.4,65.4-36.6,98.1c-5.9-5.8-19.6-17.8-41-23.4c-18.3-4.7-33.7-2.5-41.7-0.7
			c-6.8-37.6-13.7-75.2-20.5-112.8c22.1,1.2,50.4,4.9,81.9,14.7C437.3,384.2,456.7,392.9,472.3,401.2z"/>
		<path class="st39" d="M468.4,435.9c-0.2-1,4.7-4,9-3c3.2,0.7,3.4,4.2,8.3,6.6c1,0.5,1.9,0.8,2.4,1c0.5-1,1-2,1.6-3
			c0.8,0.4,2.4,1.5,2.9,3.3c0.2,0.8,0.2,1.6-0.2,3.1c-0.8,3.8-1.2,5.7-2.1,7c-1.6,2.4-3.7,3.7-4.5,4.1c-1.1,0.6-2.2,1-3.2,1.3
			c-3.3,1.1-5.7,1-14.1,0.5c-7.1-0.5-10.5-0.8-10.8-2.2c-0.1-0.3-0.1-0.9,0.2-1.4c0.5-0.8,1.7-0.8,2.5-0.8c2.1,0,4.4,0,6.8,0
			c-3.4-0.4-6.3-0.9-8.4-1.3c-5.1-1-6.7-1.7-7.2-3c-0.3-0.7-0.3-1.7,0.2-2.3c1-1.2,3.5-0.6,8.4,0.4c6.2,1.3,8.8,1.6,8.8,1.6
			c0,0-0.6-0.4-12.3-3.6c-4-1.1-7.1-2-7.7-4.2c-0.1-0.3-0.3-1.1,0.1-1.7c0.8-1.2,3.5-1,10.3,0.8c6.9,1.9,12.5,3.9,12.5,3.8
			c0,0-2.8-1.3-7.7-3.1c-7.5-2.6-11.7-3.4-12-5.6c0-0.1-0.1-0.8,0.4-1.4c1.1-1.4,4.3-0.8,15.9,3.1c0,0,8.6,2.7,8.6,2.6
			c0,0-0.1,0-0.2-0.1c-2.9-0.8-4.4-1.3-6.4-1.9C468.7,436.1,468.4,436.2,468.4,435.9z"/>
	</g>
</g>
<path class="st10" d="M486.5,437.6c-0.7,2.3-1.3,4.7-1.9,7.3c-1.1,5.1-1.8,9.9-2.1,14.2c1.6-0.2,5.2-0.9,8.4-3.8
	c4.9-4.5,5-10.6,5.1-12.3c0.1-5.5-2.3-9.5-3.3-11.1c-0.3,0.8-1,2.1-2.2,3.3C489,436.6,487.4,437.3,486.5,437.6z"/>
</svg>
