<?xml version="1.0" encoding="utf-8"?>
<!-- Generator: Adobe Illustrator 26.0.1, SVG Export Plug-In . SVG Version: 6.00 Build 0)  -->
<svg version="1.1" id="Layer_1" xmlns="http://www.w3.org/2000/svg" xmlns:xlink="http://www.w3.org/1999/xlink" x="0px" y="0px"
	 viewBox="0 0 1000 1000" style="enable-background:new 0 0 1000 1000;" xml:space="preserve">
<style type="text/css">
	.st0{clip-path:url(#SVGID_00000036234979116560639940000014828444241995282866_);}
	.st1{clip-path:url(#SVGID_00000041982818863370617260000013009025687452725157_);fill:#A5E0DC;}
	.st2{clip-path:url(#SVGID_00000041982818863370617260000013009025687452725157_);fill:#00747D;}
	.st3{clip-path:url(#SVGID_00000041982818863370617260000013009025687452725157_);}
	.st4{fill:#00747D;}
	.st5{opacity:0.6;fill:url(#SVGID_00000147192771863172351550000013403664493461633691_);}
	.st6{opacity:0.6;fill:url(#SVGID_00000152248694688366318820000009772370667457903270_);}
	.st7{opacity:0.6;fill:url(#SVGID_00000034064311339703703950000018144605919276437395_);}
	.st8{opacity:0.5;fill:url(#SVGID_00000006705885296440781530000010912433025142457988_);}
	.st9{opacity:0.5;fill:url(#SVGID_00000056388941184494488880000004899494790318716820_);}
	.st10{fill:#282828;}
	.st11{fill:#FFB886;}
	.st12{fill:#F58E6F;}
	.st13{fill:#E86A54;}
	.st14{fill:#252140;}
	.st15{fill:#B24234;}
	.st16{fill:#C6093A;}
	.st17{fill:url(#SVGID_00000026885116105426675480000001439607216826471813_);}
	.st18{fill:#FFFFFF;}
	.st19{fill:#432B16;}
</style>
<g>
	<g>
		<defs>
			<path id="SVGID_1_" d="M793.3,365.2c-12.7-22.7-27.6-42.7-43-59.6c-2.8-3.1-56.6-48.5-56.6-48.5c-1.5-1.2-3-2.4-4.5-3.6
				c-43-36-75.6-101.3-194.9-91.3c-55.6,4.7-92,27.2-117.9,57.6c0,0,0,0,0,0c-7,9.8-14,19.7-21,29.5c-19.1,32-31.8,68.7-44.7,100.8
				c-17.1,42.3-78.4,49-100.5,98.1c-20.1,23.1-30.6,59.7-35.9,86.2c-3.8,19.1-4.9,32.9-4.9,32.9C163.4,701,283.3,803.2,407,840.2
				c0.1,0,0.2,0.1,0.3,0.1c21.5,6.8,42.4,11.3,61.5,13.6c5.9,0.7,11.8,1,17.7,1c0.9,0,1.9,0,2.8,0c0,0,0,0,0,0
				c12.6,0.7,24.9,0.5,36.8-0.5c2.4-0.2,4.9-0.5,7.3-0.7c0.2,0,0.3,0,0.5-0.1c43.8-4.9,94.1-18.9,140.9-44.1
				c66.1-34.8,122.4-89.1,133.1-161.5c9.6-47.6,22.8-75.3,22.8-146.3C833,454.4,793.3,365.2,793.3,365.2z"/>
		</defs>
		<clipPath id="SVGID_00000019656578745989469320000017417975113984742318_">
			<use xlink:href="#SVGID_1_"  style="overflow:visible;"/>
		</clipPath>
		<g style="clip-path:url(#SVGID_00000019656578745989469320000017417975113984742318_);">
			<defs>
				<path id="SVGID_00000165927382112951843260000001211005929732960134_" d="M800.5,362.3c-13-23.2-28.2-43.6-43.9-60.8
					c-0.2,0.3-0.3,0.5-0.5,0.8c0.2-0.3,0.3-0.5,0.5-0.8c-2.9-3.2-57.7-49.5-57.7-49.5l0,0c-1.5-1.2-3.1-2.4-4.6-3.7
					c-43.9-36.7-77.1-103.4-198.9-93.2c-56.7,4.7-93.9,27.8-120.4,58.8c-8,9.3-15.1,19.5-21.4,30.2c-19.5,32.6-32.5,70.1-45.7,102.8
					c-17.5,43.2-80,50-102.5,100.2c-20.5,23.6-31.2,60.9-36.6,88c-3.9,19.5-5,33.6-5,33.6C157.7,704.9,280,809.2,406.2,847
					c28.2,8.5,56.7,13.6,83.9,15c12.9,0.7,25.4,0.5,37.6-0.5c2.5-0.2,5-0.5,7.5-0.8c1.7-0.2,3.4-0.4,5.2-0.6
					c1.5-0.2,2.9-0.4,4.4-0.6c0.8-0.1,1.6-0.2,2.4-0.4c0.8-0.1,1.5-0.2,2.3-0.3c40.9-6.3,86.7-20.6,128.7-42.5
					c0.2-0.1,0.4-0.2,0.6-0.3c67.8-35.5,125.6-91.1,136.6-165.2c1.5-10.4,14.9-42,19.2-87.4C843,474.1,818.3,402.3,800.5,362.3z
					 M706.2,309.1c0,0,0.1,0.1,0.1,0.1C706.3,309.2,706.3,309.1,706.2,309.1z"/>
			</defs>
			<clipPath id="SVGID_00000029725163142380739700000016829677669446918804_">
				<use xlink:href="#SVGID_00000165927382112951843260000001211005929732960134_"  style="overflow:visible;"/>
			</clipPath>
			<path style="clip-path:url(#SVGID_00000029725163142380739700000016829677669446918804_);fill:#A5E0DC;" d="M800.5,362.3
				c-13-23.2-28.2-43.6-43.9-60.8c-2.9-3.2-57.7-49.5-57.7-49.5c-1.5-1.2-3.1-2.4-4.6-3.7c-43.9-36.7-77.1-103.4-198.9-93.2
				c-56.7,4.7-93.9,27.8-120.4,58.8c-8,9.3-15.1,19.5-21.4,30.2c-19.5,32.6-32.5,70.1-45.7,102.8c-17.5,43.2-80,50-102.5,100.2
				c-20.5,23.6-31.2,60.9-36.6,88c-3.9,19.5-5,33.6-5,33.6C157.7,704.9,280,809.2,406.2,847c28.2,8.5,56.7,13.6,83.9,15
				c12.9,0.7,25.4,0.5,37.6-0.5c2.5-0.2,5-0.5,7.5-0.8c1.7-0.2,3.4-0.4,5.2-0.6c1.5-0.2,2.9-0.4,4.4-0.6c0.8-0.1,1.6-0.2,2.4-0.4
				c0.8-0.1,1.5-0.2,2.3-0.3c40.9-6.3,86.7-20.6,128.7-42.5c0.2-0.1,0.4-0.2,0.6-0.3c67.8-35.5,125.6-91.1,136.6-165.2
				c9.8-48.6,23.3-76.8,23.3-149.4C841.1,453.3,800.5,362.3,800.5,362.3z"/>
			<path style="clip-path:url(#SVGID_00000029725163142380739700000016829677669446918804_);fill:#00747D;" d="M129.2,687.6h764.6
				v17.1l-225.8,185c0,0-333.6-5.4-353.2-13.6c-19.7-8.2-172.1-176.9-172.1-176.9"/>
			<g style="clip-path:url(#SVGID_00000029725163142380739700000016829677669446918804_);">
				<path class="st4" d="M325.9,361.7c0,1.8-1.1,3.2-2.6,3.2c-1.4,0-2.6-1.4-2.6-3.2s1.1-3.2,2.6-3.2
					C324.8,358.4,325.9,359.9,325.9,361.7z"/>
				<path class="st4" d="M347.4,367.8c0,1.8-1.1,3.2-2.6,3.2c-1.4,0-2.6-1.4-2.6-3.2s1.1-3.2,2.6-3.2
					C346.3,364.5,347.4,366,347.4,367.8z"/>
				<path class="st4" d="M419.4,271.3c0,1.8-1.1,3.2-2.6,3.2c-1.4,0-2.6-1.4-2.6-3.2s1.1-3.2,2.6-3.2
					C418.2,268,419.4,269.5,419.4,271.3z"/>
				<path class="st4" d="M754.8,557.7c0,1.8-1.1,3.2-2.6,3.2c-1.4,0-2.6-1.4-2.6-3.2s1.1-3.2,2.6-3.2
					C753.7,554.5,754.8,555.9,754.8,557.7z"/>
				<path class="st4" d="M763.5,548.9c0,1.8-1.1,3.2-2.6,3.2s-2.6-1.4-2.6-3.2c0-1.8,1.1-3.2,2.6-3.2S763.5,547.2,763.5,548.9z"/>
				<ellipse class="st4" cx="338.2" cy="351.2" rx="4.1" ry="5.2"/>
				<path class="st4" d="M334.1,542.9c0,3.7-2.4,6.7-5.3,6.7c-3,0-5.3-3-5.3-6.7c0-3.7,2.4-6.7,5.3-6.7
					C331.7,536.1,334.1,539.2,334.1,542.9z"/>
				<path class="st4" d="M636.4,255.4c0,3.7-2.4,6.7-5.3,6.7c-3,0-5.3-3-5.3-6.7c0-3.7,2.4-6.7,5.3-6.7
					C634,248.7,636.4,251.7,636.4,255.4z"/>
				<ellipse class="st4" cx="172" cy="599.5" rx="34.9" ry="44"/>
			</g>
		</g>
		<g style="clip-path:url(#SVGID_00000019656578745989469320000017417975113984742318_);">
			<g>
				<g>
					<g>
						
							<linearGradient id="SVGID_00000098929716825194856310000008574783023847393718_" gradientUnits="userSpaceOnUse" x1="625.3338" y1="810.4744" x2="883.424" y2="1464.0782" gradientTransform="matrix(0.9989 4.584678e-02 -4.584678e-02 0.9989 11.7808 -52.0595)">
							<stop  offset="0" style="stop-color:#FFEADB"/>
							<stop  offset="0.9944" style="stop-color:#B060F4"/>
						</linearGradient>
						<path style="opacity:0.6;fill:url(#SVGID_00000098929716825194856310000008574783023847393718_);" d="M623.2,773.8l-7.7,10
							l-4,55.6c5.6,23.8,4.7,54.8,5.9,81.7C620.3,880.2,624.9,810.7,623.2,773.8z"/>
					</g>
					<g>
						
							<linearGradient id="SVGID_00000031893719303246727330000000497016501663490445_" gradientUnits="userSpaceOnUse" x1="416.022" y1="593.7455" x2="751.7919" y2="724.3228" gradientTransform="matrix(0.9989 4.584678e-02 -4.584678e-02 0.9989 11.7808 -52.0595)">
							<stop  offset="0" style="stop-color:#FFEADB"/>
							<stop  offset="0.9944" style="stop-color:#B060F4"/>
						</linearGradient>
						<path style="opacity:0.6;fill:url(#SVGID_00000031893719303246727330000000497016501663490445_);" d="M534.6,642.2
							c6-4.3,24.8-14.2,69.9-14.9c1.2,0,2.2,1,2.1,2.2l0,0c-0.1,1.2-1.1,2.1-2.2,2c-22.7-1.6-59,8.7-69.3,11.8
							C534.5,643.5,534.1,642.6,534.6,642.2z"/>
						
							<linearGradient id="SVGID_00000022524482937716843100000017135001622299137952_" gradientUnits="userSpaceOnUse" x1="315.4821" y1="597.3734" x2="655.5037" y2="729.604" gradientTransform="matrix(0.9989 4.584678e-02 -4.584678e-02 0.9989 11.7808 -52.0595)">
							<stop  offset="0" style="stop-color:#FFEADB"/>
							<stop  offset="0.9944" style="stop-color:#B060F4"/>
						</linearGradient>
						<path style="opacity:0.6;fill:url(#SVGID_00000022524482937716843100000017135001622299137952_);" d="M495.8,640.4
							c-5.6-4.8-23.4-16.4-68.2-21.2c-1.2-0.1-2.3,0.8-2.3,2l0,0c-0.1,1.2,0.9,2.2,2,2.2c22.8,0.5,57.9,14,67.9,18.1
							C495.8,641.7,496.3,640.8,495.8,640.4z"/>
					</g>
					
						<linearGradient id="SVGID_00000125569133439998865720000000737875339372732595_" gradientUnits="userSpaceOnUse" x1="416.7482" y1="747.9728" x2="424.5359" y2="747.9728" gradientTransform="matrix(0.9989 4.584678e-02 -4.584678e-02 0.9989 11.7808 -52.0595)">
						<stop  offset="1.117320e-02" style="stop-color:#A96885"/>
						<stop  offset="1" style="stop-color:#93A3B7"/>
					</linearGradient>
					<path style="opacity:0.5;fill:url(#SVGID_00000125569133439998865720000000737875339372732595_);" d="M392.8,735.6
						c4.4-15.4,8-27.9,8.9-30.8c0.9-2.9,1-11.4-1.8-11.6c-2.8-0.3-5.8,15-6.6,33.9C393.2,728,392.9,735.4,392.8,735.6z"/>
					
						<linearGradient id="SVGID_00000151522557207011420480000001185627645784195217_" gradientUnits="userSpaceOnUse" x1="641.4891" y1="747.2297" x2="649.2767" y2="747.2297" gradientTransform="matrix(0.9989 4.584678e-02 -4.584678e-02 0.9989 11.7808 -52.0595)">
						<stop  offset="1.117320e-02" style="stop-color:#A96885"/>
						<stop  offset="1" style="stop-color:#93A3B7"/>
					</linearGradient>
					<path style="opacity:0.5;fill:url(#SVGID_00000151522557207011420480000001185627645784195217_);" d="M625.1,745.5
						c-3-15.8-5.4-28.5-6-31.5c-0.6-3,0-11.4,2.9-11.4c2.9,0,4.4,15.4,3.5,34.4C625.5,737.9,625.1,745.3,625.1,745.5z"/>
				</g>
				<g>
					<path class="st10" d="M414.4,807.2c-1.4,13.1-2.9,24.9-6,48.4c-3.2,24.3-6,44.5-8,58.4c-11.1,66.9-22.1,133.8-33.2,200.8l0,0
						c-3.4,1.2-6.6,2.2-9.6,3c-35.8,9.6-44.5-6.9-44.5-6.9c5-129.5,13.4-207.4,13.4-207.4c2.5-19.8,4.3-36.1,5.4-47.3
						c8.4-80.9,12.6-128.6,10.9-155.9c-0.6-10.2,0-23.5,1.1-36.4c1.2-14.1,7.7-26.6,17.5-35.5c8.8-8,20.2-13.1,32.7-14l6.4-0.5
						c0,0,12.6,33,16.9,71.1c0.4,3.7,0.7,7.4,1,11.1C419.3,711.8,421.1,743.9,414.4,807.2z"/>
				</g>
				<g>
					<path class="st10" d="M600.2,811.8c2,39.2,4.3,72.6,4.3,72.6l0.4,2.2c0,0,0,0,0,0c0.4,5,0.9,10.1,1.3,15.1l3.7,16.8
						c21.9,118.6,32.1,201.6,32.1,201.6c3.4,1.3,6.5,2.3,9.5,3.2c35.6,10.2,44.7-6.2,44.7-6.2c-2.7-129.6-9.8-207.6-9.8-207.6
						c-2.1-19.7-3.6-36-4.6-47.4c-7.5-86.9-10.3-130.2-8.2-156.1c0.8-10.5,0.4-24.4-0.6-37.7c-1.8-25.9-22.2-46.7-48.1-49l-7.6-0.7
						c0,0-15.8,39.3-19.3,81.8C596.4,722.3,598.1,770.3,600.2,811.8z"/>
				</g>
				<g>
					<path class="st10" d="M654.4,1114.7c-1.8-47.7-10.2-79.2-29.8-129c0,0-0.4-1.4-1.1-3.6c-1.1-3.6-2.8-9.5-4.8-16.3
						c-1.2-4.2-2.6-8.7-3.9-13.2c-4.9-16.6-9.9-33.3-10.1-34c-9.4-21.3,3.1-83,5.9-98.3c14-24.1,15-42.9,14.7-51.8
						c-0.6-18.8-8.3-45.7-10.3-52.7c0,0,0,0,0,0c-6.5-25-12.2-60.3-8.9-105.8c0,0-8.4-3.8-9.4-3.8c-3.4,25.4-178.7,0.4-178.7,0.4
						l-8.7,3.4c3.6,44.2-2.7,76.8-9.5,99.1c-4.4,14.3-9.2,25.1-11.3,43.2c-3.4,29,3,53.8,9.1,70.6c3.1,14.7,6.2,29.3,9.3,44
						c0.8,6.7,0.1,17-1.3,42.5c-0.9,15.9-18.4,78.3-18.4,78.3c-18.3,44-48.3,84.9-31.3,118.9
						C357.3,1109.4,654.4,1114.7,654.4,1114.7z"/>
				</g>
				<g>
					<g>
						<g>
							<path class="st11" d="M595.9,464.9c-3,14.3-17.1,61-24,71.8c-3.7,5.8-16.5,16.8-27.9,25.1c-7.5,5.5-14.4,9.8-17.8,10.6
								c-6.2,1.5-9.9,1.5-16.6-0.8c-8.2-2.8-36.9-29.6-42.2-39.8c-5.9-11.3-15.7-59.7-17.3-73.7c-1.2-10.7,0.4-29.8,6.3-46.2
								c0.1-0.3,0.3-0.7,0.4-1.1c2.8-7.5,6.4-14.6,11-20.9c0.1-0.1,0.2-0.3,0.3-0.4c14.8-20.2,39.5-27.6,63.1-25.5
								c7.5,0.7,14.9,2.3,21.8,4.8c28.8,10.4,44.2,43.4,44.8,75C597.9,451.1,597.2,458.2,595.9,464.9z"/>
							<g>
								<path class="st12" d="M531.1,507.6c0,0-3.7,6.1-10.5,5.8c-6.8-0.2-10.1-6.6-10.1-6.6c1.9,1,5.2,2.4,9.5,2.7
									C525.2,509.8,529.1,508.5,531.1,507.6z"/>
							</g>
						</g>
					</g>
					<g>
						<path class="st13" d="M639.6,611.7c-3.8-6.5-11.5-20.2-11.5-20.2c-3.5-10.7-20.4-13.4-20.4-13.4c0.1-2.6-1-6.3-3-9.5l0,0
							c-0.6-0.9-1.3-1.8-2-2.6c-1.6-1.8-5.5-3.8-9-5.7c-3.5-1.9-6.6-3.6-6.6-4.7c0.1-2.2,0-6.1,0.3-6.7c7.9-15.9,9.7-25.5,15.2-68.7
							c5.5-43.2-1.8-82.3-22-104.3c-25.3-27.4-53.8-31.4-91.2-16.8c-37.4,14.6-44,65.8-44,65.8c-5.5,11.5-9.4,85.1,15.7,123.5
							l-0.1,6.2c-0.8,0.5-1.6,1.2-2.4,1.8c-9.8,8.3-20.4,25.9-20.4,25.9s-3.7,0.9-11.1,3c-5,1.4-11.7,3.4-20.2,6.1
							c-12.9,4.1-19.1,13.7-22.1,20.5c0,0,0,0.1-0.1,0.1c-1.5,3.6-0.2,7.9,3.1,9.9c9.7,6.1,19.8,18.7,31.2,34.9
							c17.2,24.5,52.3,68.6,107.1,71.1c50.5,2.3,69.6-26.2,105.8-72.7c10.8-13.8,12.8-20,19.3-27
							C651.3,623.1,646.3,623.2,639.6,611.7z M569,534.7c-7,11.6-34.3,29.3-40,32.8c-6.1,4.3-15.3,2.7-18,2.2
							c-10.7-2.2-40.9-35.3-42.9-39.1c-1.9-3.7-4.8-13.8-7.3-24.8c0,0,0,0,0,0l0,0c0-0.1-0.1-0.3-0.1-0.4c-1.3-6-2.5-12.2-3.3-17.8
							c0-0.1,0-0.1,0-0.2c-0.5-3.3-0.8-6.5-1-9.2c-1-18.7-4.7-32.8,8.6-56.9c13.2-24.2,39.5-35.2,60.2-34.2
							c34.2,1.6,61.8,39.8,60.9,82.2c-0.1,5.8-3.1,21.1-6.9,35.7C576,517.4,572.2,529.4,569,534.7z"/>
						<path class="st14" d="M460.7,505.4c0,0.1,0.1,0.3,0.1,0.4l0,0C460.7,505.6,460.7,505.5,460.7,505.4z"/>
						<path class="st10" d="M579.2,505c-1.5,4.4,8.8-18.8,6.9-35.7c-3-26.8-22.9-64.9-60.9-68.6c-35.5-3.5-66.5,25.1-69.1,44.5
							c-0.9,6.7-0.2,25.2,0.2,33.1c0.1,2.7,0.5,5.8,1,9.2c-17-109.7,46.9-121.5,66.3-120.6C567.8,368.7,607.3,423.5,579.2,505z"/>
						<g>
							<g>
								<path class="st15" d="M458.5,556.3c0.8-0.7,1.6-1.3,2.4-1.8l0.1-6.2c0,0,16.2,19.8,34.4,26.7
									C494.7,574.8,473.3,571.1,458.5,556.3z"/>
								<path class="st15" d="M458.4,568c0,0,6.6,19.5,25,36.5C475.8,602,455.4,584.6,458.4,568z"/>
								<path class="st15" d="M469.7,641.7c0,0,53.2-0.1,91.9-33.6C550.7,624.1,529.3,650,469.7,641.7z"/>
								<path class="st15" d="M586.8,514.3c0,0-11.2,37.8-54.2,70.6C547.6,578.2,585,552.2,586.8,514.3z"/>
								<path class="st15" d="M456.1,674.9c0,0,33.3,32.6,73.4,37.2c40.1,4.7,59.1-29,59.1-29s-14.8,37.3-49.9,35.6
									C503.6,717.2,486.1,702.7,456.1,674.9z"/>
							</g>
						</g>
					</g>
				</g>
			</g>
			<g>
				<path class="st16" d="M516.4,523.5c-3.8,0.4-9.8,2.3-10.2,5.5c-0.5,3.5,5.6,7.2,11,8c7.6,1.2,16.3-3,16.2-6.7
					C533.3,526.6,524.1,522.7,516.4,523.5z"/>
			</g>
			
				<linearGradient id="SVGID_00000112627583073745342000000011053124729139289488_" gradientUnits="userSpaceOnUse" x1="453.5669" y1="555.0773" x2="453.5669" y2="555.0773" gradientTransform="matrix(0.9989 4.584678e-02 -4.584678e-02 0.9989 11.7808 -52.0595)">
				<stop  offset="0" style="stop-color:#E66C42"/>
				<stop  offset="0.9944" style="stop-color:#AD2545"/>
			</linearGradient>
			<path style="fill:url(#SVGID_00000112627583073745342000000011053124729139289488_);" d="M439.4,523.2"/>
			<g>
				<g>
					<path class="st18" d="M507.2,468.9c-1.1,1.2-6.5,6.9-15.5,7.4c-9.8,0.6-16.2-5.4-17.2-6.4c0.9-1.5,2.6-3.8,5.4-5.8
						c1.4-1,6.2-4.1,12.7-3.7C501.5,461.2,506.5,468,507.2,468.9z"/>
					<path class="st19" d="M485.2,466.7c0.4,4.4,4.2,7.6,8.5,7.2c4.3-0.4,7.5-4.2,7.1-8.6c-0.4-4.4-4.6-5.9-8.9-5.5
						C487.6,460.2,484.8,462.4,485.2,466.7z"/>
					<path d="M490.8,466.1c0.2,2,1.9,3.5,3.9,3.3c1.9-0.2,3.4-1.9,3.2-3.9c-0.1-2-1.9-3.5-3.8-3.3
						C492,462.4,490.6,464.1,490.8,466.1z"/>
					<path class="st18" d="M487.8,466c0.1,1,1,1.8,2,1.7c1-0.1,1.8-1,1.7-2c-0.1-1-1-1.8-2-1.7C488.5,464.1,487.7,465,487.8,466z"/>
					<path d="M507.2,468.9c-0.6-1.4-2.5-5.6-7.2-8.2c-4.6-2.6-9-2.1-11.3-1.8c-8.2,0.9-13.4,6.2-15.1,8.1c-1.5,0-3,0.1-4.4,0.1
						c1.8,1,3.6,1.9,5.3,2.9c0.5-0.7,7.3-9.2,18.3-8.4C501.2,462.2,506.2,467.8,507.2,468.9z"/>
					<g>
						<path d="M482.8,441.9c-22.6,3.9-18,21.1-18,21.1c3.6-20.4,25.1-12.2,36.9-16.2C509.7,444,508.4,437.5,482.8,441.9z"/>
					</g>
				</g>
				<g>
					<path class="st18" d="M538,472.3c1.2,1.1,7.2,6.2,16.2,5.8c9.8-0.4,15.5-7,16.5-8.1c-1.1-1.4-3-3.5-5.9-5.2
						c-1.5-0.9-6.6-3.5-13.1-2.3C542.9,463.9,538.6,471.2,538,472.3z"/>
					<path class="st19" d="M563.1,468.1c0.1,4.4-3.4,8-7.7,8.1c-4.3,0.1-7.9-3.4-8-7.8c-0.1-4.4,3.5-6.4,7.8-6.5
						C559.6,461.8,563.1,463.7,563.1,468.1z"/>
					<path d="M559.8,467.7c0,2-1.5,3.6-3.5,3.6c-1.9,0-3.6-1.5-3.6-3.5c-0.1-2,1.5-3.6,3.5-3.7C558.1,464.1,559.7,465.7,559.8,467.7
						z"/>
					<path class="st18" d="M555.6,466.9c0,1-0.8,1.9-1.8,1.9c-1,0-1.9-0.8-1.9-1.9c0-1,0.8-1.9,1.8-1.9
						C554.8,465,555.6,465.8,555.6,466.9z"/>
					<path d="M538,472.3c0.4-1.4,1.9-5.8,6.3-8.9c4.4-3.1,8.9-3,11.1-3c8.3,0.2,13.9,5.5,15.3,7c1.5-0.2,3-0.3,4.4-0.5
						c-1.5,1-3,2-4.5,3c-0.6-0.6-8.3-8.4-19-6.5C543.3,464.9,538.9,471,538,472.3z"/>
					<g>
						<path d="M561.2,443.2c22.1,6.1,15.9,22.7,15.9,22.7c-1.5-20.7-23.8-14.6-35.1-19.7C534.3,442.7,536.2,436.4,561.2,443.2z"/>
					</g>
				</g>
			</g>
		</g>
	</g>
	<g>
		<path class="st4" d="M641,348.6c-6.2,0-11.3-4.8-11.8-10.9l-0.1-1.4c-2.8-25.5,5.7-53.4,29.3-81.8c21.3-25.1,33.1-43.5,33.1-64.8
			c0-24.1-15.1-40.2-44.9-40.7c-11.2,0-23.2,2.4-33.4,6.7c-8.3,3.4-17.7-0.7-20.9-9.1v0c-3-7.8,0.6-16.7,8.2-20.2
			c15.4-7.1,35.6-11.4,54.6-11.4c54.4,0,79,33.6,79,69.5c0,32.2-18,55.3-40.7,82.3c-20.8,24.6-28.4,45.4-27,69.5l0,0
			c0.3,6.7-5.1,12.3-11.8,12.3H641z M619.7,411.8c1.3-15.9,12.7-26.7,28.3-26.7c16.6,0,27.9,12.3,27.9,29.8c0,14.1-7.9,25.4-21,28.5
			C633.5,448.4,617.9,433.7,619.7,411.8z"/>
	</g>
</g>
</svg>
