<?xml version="1.0" encoding="utf-8"?>
<!-- Generator: Adobe Illustrator 26.0.1, SVG Export Plug-In . SVG Version: 6.00 Build 0)  -->
<svg version="1.1" id="Layer_1" xmlns="http://www.w3.org/2000/svg" xmlns:xlink="http://www.w3.org/1999/xlink" x="0px" y="0px"
	 viewBox="0 0 1000 706" style="enable-background:new 0 0 1000 706;" xml:space="preserve">
<style type="text/css">
	.st0{fill:#A5E0DC;}
	.st1{opacity:0.2;fill:none;stroke:#272828;stroke-width:7.3704;stroke-miterlimit:10;}
	.st2{fill:#81CCC6;}
	.st3{fill:#00747D;}
	.st4{fill:#D8AE73;}
	.st5{fill:#B58D54;}
	.st6{fill:#FFB886;}
	.st7{fill:#0F0F0F;}
	.st8{fill:url(#SVGID_1_);}
	.st9{fill:#F2F2F2;}
	.st10{opacity:0.6;fill:url(#SVGID_00000034067775446107043970000012735221271762518415_);}
	.st11{fill:#212121;}
	.st12{fill:#363160;}
	.st13{fill:#6A66BF;}
	.st14{fill:#282828;}
	.st15{fill:#E86A54;}
	.st16{fill:#B24234;}
</style>
<g>
	<g>
		<g>
			<rect x="147.3" y="119" class="st0" width="706.3" height="457.6"/>
			<path class="st1" d="M363.5,655.9l14.6-79.3c-4.9-139.7-9.7-279.4-14.6-419"/>
			<path class="st1" d="M219.5,655.9l14.6-79.3c-4.9-139.7-9.7-279.4-14.6-419"/>
			<rect x="606.5" y="249.9" class="st2" width="162.8" height="326.7"/>
			<circle class="st3" cx="625.2" cy="423.4" r="10.2"/>
			<g>
				<g>
					<g>
						<rect x="215.8" y="154.8" class="st4" width="7.4" height="501.2"/>
					</g>
				</g>
				<g>
					<g>
						<rect x="359.8" y="154.8" class="st4" width="7.4" height="501.2"/>
					</g>
				</g>
				<g>
					<rect x="359.7" y="359.9" class="st5" width="7.7" height="13.1"/>
				</g>
				<g>
					<g>
						<rect x="219.5" y="212.3" class="st4" width="144.1" height="7"/>
					</g>
				</g>
				<g>
					<g>
						
							<rect x="289.7" y="217.5" transform="matrix(2.208268e-03 -1 1 2.208268e-03 1.3005 583.8388)" class="st4" width="7" height="147.5"/>
					</g>
				</g>
				<g>
					<g>
						<rect x="219.5" y="362.9" class="st4" width="147.5" height="7.1"/>
					</g>
				</g>
				<g>
					<g>
						<rect x="219.5" y="438.2" class="st4" width="144.1" height="7"/>
					</g>
				</g>
				<g>
					<g>
						<rect x="219.5" y="513.5" class="st4" width="144.1" height="7"/>
					</g>
				</g>
				<g>
					<g>
						<rect x="219.5" y="588.8" class="st4" width="144.1" height="7"/>
					</g>
				</g>
			</g>
			<circle class="st5" cx="363.5" cy="366.7" r="1.5"/>
		</g>
		<g>
			<path class="st6" d="M325.3,340.9c2.5-12.2,5-24.4,7.4-36.6c-1.1-2.8-2.1-5.6-3.2-8.3c-0.3-2.1-0.5-3.6-0.7-4.9
				c-0.1-0.9-0.3-1.9,0.1-3c0.2-0.5,0.5-1.6,1.4-1.8c1.1-0.3,2.5,0.9,2.4,1.3c0,0.2-0.3,0.3-1,0.3c0.2,1.1,0.3,2.2,0.5,3.3
				c0.2-0.4,0.4-1.1,0.8-1.9c1.2-2.5,1.8-3.9,3.1-4.4c0.4-0.1,1-0.3,1.9,0c0.5-0.2,1.7-0.8,3.1-0.4c0.5,0.1,0.8,0.3,1.1,0.4
				c0.2-0.1,1.4-0.8,2.6-0.2c0.4,0.2,0.7,0.5,0.9,0.7c0.2,0,1.1,0,1.9,0.7c0.8,0.7,0.9,1.6,0.9,1.9c-0.2,0-0.7-0.1-1.1,0.2
				c-0.6,0.3-1,1-1,1.8l-0.2,7.4c0,0.7-0.3,1.4-0.7,2l-2.1,2.8c-0.3,0.4-0.5,0.8-0.6,1.2c-1.7,15.2-3.5,30.4-5.2,45.6
				c-1.7,1.5-3.4,3-5,4.5C330.2,349.2,327.7,345,325.3,340.9z"/>
			<g>
				<g>
					<g>
						<path class="st7" d="M269.7,323c0.3,0.8,0.7,1.7,1.3,2.7c0.9,1.5,1.9,2.6,2.7,3.4c-1.7,2.6-11.8,17.5-20.1,26.3
							c-1.6,1.6-4.7,5-9,5c-0.8,0-3.4,0.1-4.9-1.7c-1.2-1.5-1-3.5-0.9-4.5c0.8-5.9,6.7-10.6,8.1-11.7
							C253.1,337.5,260.4,331.2,269.7,323z"/>
					</g>
				</g>
				<g>
					<g>
						<g>
							<g>
								<g>
									<g>
										<linearGradient id="SVGID_1_" gradientUnits="userSpaceOnUse" x1="268.4401" y1="549.3262" x2="268.4697" y2="549.4185">
											<stop  offset="0" style="stop-color:#FFB886"/>
											<stop  offset="1" style="stop-color:#FFA486"/>
										</linearGradient>
										<path class="st8" d="M268.5,549.4C268.5,549.4,268.5,549.4,268.5,549.4L268.5,549.4C268.5,549.4,268.5,549.4,268.5,549.4z
											"/>
									</g>
								</g>
								<g>
									<g>
										<path class="st9" d="M303.4,287.7c-7.4-1.8-16.3-3.1-29.5-0.5c-0.6,0.1-1.3,0.3-1.9,0.4c1.1-0.8,2.1-1.6,3-2.4
											c10.1-1.8,17.5-1.4,25.6,0.2C301.4,286.2,302.4,287,303.4,287.7z"/>
									</g>
								</g>
								
									<linearGradient id="SVGID_00000133488998914744364840000005411142151422768816_" gradientUnits="userSpaceOnUse" x1="316.8167" y1="321.1311" x2="317.5205" y2="324.8824">
									<stop  offset="0" style="stop-color:#FFEADB"/>
									<stop  offset="0.9944" style="stop-color:#B060F4"/>
								</linearGradient>
								<path style="opacity:0.6;fill:url(#SVGID_00000133488998914744364840000005411142151422768816_);" d="M317,321.4
									c-0.1,0.2-0.1,0.3-0.2,0.5C316.9,321.8,316.9,321.6,317,321.4L317,321.4z"/>
							</g>
						</g>
						<g>
							<g>
								<g>
									<polygon class="st11" points="310.5,591 309.9,592.2 307.4,592.1 306.6,592 306.8,585.9 308.7,586.7 									"/>
									<path class="st12" d="M311.5,591c0,0.5-0.3,1.2-1.6,1.2L308,587l-0.6,5l-0.3,2.7c0,0-0.6,1.4-3.1,1.7c-0.2,0-0.4,0-0.7,0.1
										c-3,0.1-9.5-0.9-9.5-0.9l-0.5-13.9l0.4-0.2l0.1-0.1c0,0-0.6-5.5,0.7-8.7c0.6-1.6,0.1-13.4,0.1-13.4s1.8-1.9,6.1-1.9
										c2.3,0,4.6,0.7,6.1,1.3c1.4,0.5,2.3,1,2.3,1s-1,9-1,12.3c0,3.4,0.5,3.8,1,6c0.5,2.2,1,4.7,1,4.7s0.7,1.3,0.9,2.1
										c0.1,0.6,0.1,1.8,0.1,1.8s0.1,0.2,0.2,0.5c0.1,0.2,0.1,0.3,0.1,0.5c0,0,0,0,0,0C311.7,588,311.5,590.6,311.5,591z"/>
									<path d="M311.5,591c0,0.5-0.3,1.2-1.6,1.2L308,587l-0.6,5l-0.3,2.7c0,0-0.6,1.4-3.1,1.7c-0.2,0-0.4,0-0.7,0.1
										c-3,0.1-9.5-0.9-9.5-0.9l-0.5-13.9l0.4-0.2c1.5,0,3.7,0,4.4,0c0.9,0,3.1-0.1,5.6,0.3c2.5,0.4,3.1,0.9,3.7,1.3
										c0.6,0.4,1.3,1.7,1.5,2.4c0.2,0.7,0.7,2,1,2.3c0.3,0.3,0.7,0.9,1.1,0.6c0.2-0.2,0.3-0.7,0.4-1.1c0.1,0.2,0.1,0.3,0.1,0.5
										c0,0,0,0,0,0C311.7,588,311.5,590.6,311.5,591z"/>
									<path class="st13" d="M311.6,587.7c0,0.2-0.1,0.6-0.3,0.7c-0.3,0.1-1.2,0.1-1.9-1.9c-1.3-3.6-2.2-3.8-4.1-4.2
										c-4-0.8-11.8-0.6-11.8-0.6l0.5-0.3c0,0,1.7-0.5,5.4-0.4c4.3,0.2,7.2,1,8.1,1.8c1,0.8,1.7,2.9,2.1,4
										c0.5,1.2,1.1,1.5,1.4,1.3c0.3-0.2,0.2-1.4,0.2-1.4S311.6,587.2,311.6,587.7z"/>
								</g>
							</g>
							<g>
								<g>
									<polygon class="st11" points="266.3,592.2 269.6,592 269.4,585.9 267.5,586.7 265.7,591 									"/>
									<path class="st12" d="M282.8,581.7l-0.5,13.9c0,0-1.6,0.3-3.6,0.5c-2,0.2-4.3,0.5-5.8,0.4c-3-0.1-3.7-1.8-3.7-1.8l-0.9-7.7
										l-1.9,5.2c-1.3,0-1.6-0.7-1.6-1.2s-0.1-3-0.1-3.3c0,0,0,0,0,0c0.1-0.5,0.4-1,0.4-1s0-1.2,0.1-1.8c0.2-0.8,0.9-2.1,0.9-2.1
										s0.5-2.5,1-4.7c0.5-2.2,1.1-2.6,1-6c0-3.4-1-12.3-1-12.3s4-2.3,8.4-2.3c1.8,0,3.2,0.3,4.1,0.7c1.4,0.5,2,1.2,2,1.2
										s-0.6,11.8,0.1,13.4c1.3,3.3,0.7,8.7,0.7,8.7L282.8,581.7z"/>
									<path d="M264.7,591c0,0.5,0.3,1.2,1.6,1.2l1.9-5.2l0.6,5l0.3,2.7c0,0,0.6,1.4,3.1,1.7c0.2,0,0.4,0,0.7,0.1
										c3,0.1,9.5-0.9,9.5-0.9l0.5-13.9l-0.4-0.2c-1.5,0-3.7,0-4.4,0c-0.9,0-3.1-0.1-5.6,0.3c-2.5,0.4-3.1,0.9-3.7,1.3
										c-0.6,0.4-1.3,1.7-1.5,2.4c-0.2,0.7-0.7,2-1,2.3c-0.3,0.3-0.7,0.9-1.1,0.6c-0.2-0.2-0.3-0.7-0.4-1.1
										c-0.1,0.2-0.1,0.3-0.1,0.5c0,0,0,0,0,0C264.5,588,264.7,590.6,264.7,591z"/>
									<path class="st13" d="M264.6,587.7c0,0.2,0.1,0.6,0.3,0.7c0.3,0.1,1.2,0.1,1.9-1.9c1.3-3.6,2.2-3.8,4.1-4.2
										c4-0.8,11.8-0.6,11.8-0.6l-0.5-0.3c0,0-1.7-0.5-5.4-0.4c-4.3,0.2-7.2,1-8.1,1.8c-1,0.8-1.7,2.9-2.1,4
										c-0.5,1.2-1.1,1.5-1.4,1.3c-0.3-0.2-0.2-1.4-0.2-1.4S264.6,587.2,264.6,587.7z"/>
								</g>
							</g>
						</g>
						<g>
							<path class="st14" d="M316.5,327.9c-4,20-0.3,34.6,3,61.6c1,7.7,1.6,15.5,2.5,23.3c2.8,22.5,4.6,66,2,154.8
								c0,0-3.8,2.1-9.3,1.8c-0.1,0.2-0.3,0.3-0.5,0.5c-0.7,0.5-1.9,1-3.3,1.4c-6.5,1.9-18.9,2.8-24.3,2.8c-8.4,0-16-0.4-21.1-1.2
								c-3.8-0.6-6.2-1.5-6.6-2.6c-4.1,0.2-7.8-0.6-10.3-3.1c-0.3-76.9,0.8-132.9,1.3-144.8c0.5-12.4,2.2-22.5,5.1-32.2
								c0-0.1,0-0.2,0.1-0.3c6-19.9,7.1-41.1,3-61.5c-0.7-3.4-1.1-5.6-1.1-5.6c-0.7-6.6-6.7-8.7-6.7-16.8
								c0-11.1,12.4-14.4,12.4-14.4c0.6-1,2.6-1.6,2.6-1.6l43.9,0.2c1.1,0.1,2.5,1.2,2.5,1.2c9.2,1,12.7,9.1,13.1,12.7
								c1,8.6-6.1,12.6-7.2,18.4C317.7,322.2,317.2,324.5,316.5,327.9z"/>
							<g>
								<g>
									<g>
										<path class="st14" d="M267.3,301.8c1.5,6.2-0.2,14-2.2,20c-1.6,5-3.4,8.6-3.6,9.1c0,0,0,0,0,0l-1.5,4.4l-2.4,7.2l-2.7,8.1
											l-1.1,2.8l-0.7,1.8c-0.3,0.6-0.7,1.2-1.2,1.7c-1.3,1.6-3,2.7-5.1,3.2c-4.4,0.9-8.8-1.5-10.8-5.8c0,0,0,0,0,0
											c-1-2.2-1-4.8-0.2-7c1.5-4.3,3.5-9.9,4.4-12.3c0.7-2.1,2-6.6,3.5-11.6c1.3-4.5,2.7-9.5,3.7-13.7
											c2.3-9.5,6.7-10.9,7.5-11.1c0.1,0,0.1,0,0.1,0c0.5-0.1,1.1-0.3,1.6-0.4C266.9,296.2,267.3,301.8,267.3,301.8z"/>
									</g>
								</g>
							</g>
							<g>
								<g>
									<g>
										<path class="st14" d="M305.8,297.8c-1.5,6.2,0.2,14,2.2,20c1.6,5,3.4,8.6,3.6,9.1c0,0,0,0,0,0l1.5,4.4l2.4,7.2l2.7,8.1
											c0.4,1.4,1.3,4,3.5,6.4c1.2,1.2,2.5,2.6,4.6,3.1c4.5,1.1,9.3-2.6,10.8-5.8c0,0,0,0,0,0c1-2.2,1-4.8,0.2-7
											c-1.5-4.3-3.5-9.9-4.4-12.3c-0.7-2.1-2-6.6-3.5-11.6c-1.3-4.5-2.7-9.5-3.7-13.7c-2.3-9.5-6.7-10.9-7.5-11.1
											c-0.1,0-0.1,0-0.1,0c-0.5-0.1-1.1-0.3-1.6-0.4C306.2,292.2,305.8,297.8,305.8,297.8z"/>
									</g>
								</g>
							</g>
						</g>
						<g>
							<path class="st15" d="M321.5,296.2c-2.2-1.2-5.7-2.8-10.2-3.4c-10.9-1.5-16.6,4.4-28.4,4.6c-3.5,0.1-8.6-0.4-14.8-2.8
								c0,0,0,0,0,0c-1.9,1-5.1,2.5-9.3,3c-3.1,0.3-5.8,0-7.6-0.4c0.2-1.4,0.8-4.6,3.3-7.4c1.4-1.5,2.8-2.4,3.9-3
								c0,0,2.1-4.3,4.7-5.1l3.1-0.3c0,0,1.4-3.1,1.4-4.3c0-1.2-0.5-2.7-0.8-4.9c-0.3-2.2-1.4-12.5,1.9-21.1
								c4.1-10.7,12.1-15.4,20.2-15.6c1,0,2,0,3,0.1c5.4,0.4,10,2.4,12.1,5.7c2.5,3.8,4.8,12,5.2,18.1c0.4,6.1-1.6,13.2-5.9,17.5
								l-0.3,3.1c0,0,1.4,0.2,2.6,2.4c0.7,1.2,1.3,2.5,2.1,3.7c0.6,1,1.3,1.8,2.2,2.5c1.1,0.8,7.4,1.5,9.2,2.9
								c0.6,0.5,1.3,1.8,1.8,3.1C321.2,295.2,321.4,295.8,321.5,296.2z"/>
							<g>
								<g>
									<path class="st16" d="M264.6,282.6c0,0,3.1,7,24.6,10.7C289.1,293.3,271.9,287.4,264.6,282.6z"/>
									<path class="st16" d="M275.3,248.8c0,0-4.4,18-2.6,28.4l-2,1.1C270,270.8,271.7,258.5,275.3,248.8z"/>
									<path class="st16" d="M306,253c1.3,4.6,0.9,13-1.4,18.7C304.5,271.6,306.7,260.1,306,253z"/>
								</g>
							</g>
						</g>
					</g>
				</g>
			</g>
		</g>
	</g>
	<path class="st14" d="M332,303.7c1-0.3,2.3-0.6,3.8-0.7c3.4-0.2,6.1,0.7,7.7,1.4c-1.9,14.2-3.8,28.4-5.7,42.6
		c-4.5-4.7-9-9.4-13.5-14.2C326.9,323.2,329.5,313.5,332,303.7z"/>
</g>
</svg>
