<?xml version="1.0" encoding="utf-8"?>
<!-- Generator: Adobe Illustrator 16.0.0, SVG Export Plug-In . SVG Version: 6.00 Build 0)  -->
<!DOCTYPE svg PUBLIC "-//W3C//DTD SVG 1.1//EN" "http://www.w3.org/Graphics/SVG/1.1/DTD/svg11.dtd">
<svg version="1.1" id="Layer_1" xmlns="http://www.w3.org/2000/svg" xmlns:xlink="http://www.w3.org/1999/xlink" x="0px" y="0px"
	 width="664px" height="598px" viewBox="0 0 664 598" enable-background="new 0 0 664 598" xml:space="preserve">
<g>
	<defs>
		<path id="SVGID_1_" d="M420.471,27.205c-41.859,7.595-46.792,27.639-96.402,35.977c-20.395,3.427-43.067,0.94-88.411-4.034
			c-72.295-7.929-76.911-16.082-97.823-9.298C92.251,64.637,70.4,117.576,62.938,135.655c-4.29,10.392-3.998,12.352-16.849,76.541
			c-17.074,85.282-18.477,86.261-16.768,96.179c7.096,41.17,33.816,39.162,62.597,102.01c15.37,33.564,9.653,38.291,29.007,79.059
			c18.416,38.787,28.113,58.338,49.824,70.279c25.183,13.85,56.253,11.941,83.938,4.229c27.686-7.713,53.674-20.721,81.362-28.42
			c38.485-10.705,79.871-10.773,118.393-0.197c18.668,5.123,36.836,12.721,56.1,14.643s40.723-3.105,52.314-18.611
			c17.016-22.762,5.764-54.895,8.484-83.186c2.943-30.611,22.566-56.563,38.908-82.615c16.342-26.053,30.365-57.531,20.826-86.768
			c-11.35-34.787-50.904-51.855-70.541-82.729c-27.059-42.541-12.289-104.254-45.145-142.495
			c-17.268-20.097-44.196-28.523-71.127-28.522C436.247,25.05,428.23,25.797,420.471,27.205"/>
	</defs>
	<clipPath id="SVGID_2_">
		<use xlink:href="#SVGID_1_"  overflow="visible"/>
	</clipPath>
	<rect x="13.085" y="-22.82" clip-path="url(#SVGID_2_)" fill="#E3F4FF" width="639.879" height="602.107"/>
	<rect x="-48.345" y="291.697" clip-path="url(#SVGID_2_)" fill="#BDDEEF" width="739.897" height="318.428"/>
	<path clip-path="url(#SVGID_2_)" fill="#381D0B" d="M155.867,264.681l282.464,109.33l6.206,7.259
		c-27.395-4.445-25.926,7.593-41.809,9.357c16.217,9.982,31.128,36.129,47.401,40c13.256,3.152,37.996,9.566,46.719,11.838
		l23.592,27.598l-5.424,10.242L159.39,362.214l-7.713-92.596L155.867,264.681z"/>
	<path clip-path="url(#SVGID_2_)" fill="#381D0B" d="M221.53,475.307c11.705-9.984,8.607-40.035,16.525-55.65
		c-15.775,4.916-28.028-4.762-52.841,15.164l-0.819-16.883l241.544-182.289l88.045,62.36l4.648,6.197l-321.5,238.011l-6.972-5.336
		l-1.572-32.438C194.921,498.75,212.103,483.348,221.53,475.307"/>
	<path clip-path="url(#SVGID_2_)" fill="#381D0B" d="M185.213,434.82l6.021,4.682c0,0,7.328-7.813,18.301-10.912
		c10.974-3.098,15.652,1.875,30.628-3.936c4.647-4.904,0.904-9.551,0.904-9.551l-33.824,1.16L185.213,434.82z"/>
	<path clip-path="url(#SVGID_2_)" fill="#4C230C" d="M221.53,475.307c11.705-9.984,8.607-40.035,16.525-55.65
		c-15.775,4.916-28.028-4.762-52.841,15.164l-0.819-16.883l255.583-188.954l74.006,69.024L190.161,536.881l-1.572-32.438
		C194.921,498.75,212.103,483.348,221.53,475.307"/>
	<polygon clip-path="url(#SVGID_2_)" fill="#381D0B" points="310.654,324.593 420.374,367.061 343.891,423.48 228.656,385.215 	"/>
	<path clip-path="url(#SVGID_2_)" fill="#381D0B" d="M444.536,381.27l-3.364,7.663c0,0-8.134-4.48-16.267,0
		c-8.133,4.481-14.976,11.065-27.756,7.708c-2.583-7.746,0-13.708,0-13.708s28.917-8.884,29.563-8.884
		C427.358,374.048,444.536,381.27,444.536,381.27"/>
	<path clip-path="url(#SVGID_2_)" fill="#682F13" d="M438.331,374.011l6.205,7.259c-27.394-4.445-25.926,7.593-41.808,9.359
		c16.217,9.98,31.128,36.127,47.401,39.998c13.256,3.152,37.996,9.568,46.719,11.84l23.59,27.596L165.333,356.126l-9.467-91.445
		L438.331,374.011z"/>
	<polygon clip-path="url(#SVGID_2_)" fill="#381D0B" points="310.021,319.299 439.978,362.435 362.684,419.656 354.248,416.727 	"/>
	<polygon clip-path="url(#SVGID_2_)" fill="#4C230C" points="310.021,319.299 430.877,359.415 354.248,416.727 	"/>
	<path clip-path="url(#SVGID_2_)" fill="#381D0B" d="M506.642,295.648c0,0-132.456,102.246-137.362,105.861
		c-4.905,3.615-14.976,9.813-30.726,4.906c-15.75-4.906-168.152-53.899-168.152-53.899l-10.996-92.242l0.99-2.453l151.046,46.605
		l114.64-84.173l80.559,72.683V295.648z"/>
	<path clip-path="url(#SVGID_2_)" fill="#844914" d="M506.642,292.938c0,0-132.456,102.246-137.362,105.861
		c-4.905,3.615-14.976,9.813-30.726,4.906c-15.75-4.906-166.022-53.189-166.022-53.189l-12.135-92.694l151.046,43.895l114.64-84.174
		L506.642,292.938z"/>
	<path clip-path="url(#SVGID_2_)" fill="#ECB67B" d="M419.629,215.736l82.882,76.426L370.055,394.41c0,0-7.229-3.357-12.394-3.357
		c-5.165,0-16.267,10.07-16.267,10.07l-162.408-52.931l-12.911-91.661l13.943-6.197l127.809,45.959l106.895-80.558H419.629z"/>
	<path clip-path="url(#SVGID_2_)" fill="#E2A05D" d="M177.408,251.495c1.249,7.529,2.608,15.036,3.985,22.539l4.255,22.487
		l4.489,22.441l2.328,11.205l2.436,11.184l-1.938-11.28l-2.045-11.26l-4.257-22.487l-4.491-22.44
		C180.631,266.411,179.075,258.942,177.408,251.495"/>
	<path clip-path="url(#SVGID_2_)" fill="#E2A05D" d="M175.435,252.768c1.097,7.419,2.307,14.818,3.533,22.215l3.803,22.167
		l4.039,22.125l2.103,11.047l2.21,11.029l-1.711-11.117l-1.819-11.098l-3.805-22.167l-4.04-22.124
		C178.357,267.477,176.952,260.112,175.435,252.768"/>
	<path clip-path="url(#SVGID_2_)" fill="#E2A05D" d="M172.853,253.93c1.043,7.427,2.199,14.834,3.371,22.239l3.641,22.194
		l3.878,22.154l2.021,11.062l2.13,11.044l-1.63-11.129l-1.738-11.111l-3.644-22.192l-3.879-22.153
		C175.668,268.66,174.316,261.286,172.853,253.93"/>
	<path clip-path="url(#SVGID_2_)" fill="#E2A05D" d="M170.336,255.023c0.983,7.431,2.08,14.843,3.192,22.253l3.463,22.209
		l3.7,22.172l1.934,11.072l2.042,11.055l-1.542-11.136l-1.65-11.118l-3.465-22.209l-3.702-22.171
		C173.033,269.767,171.74,262.386,170.336,255.023"/>
	<path clip-path="url(#SVGID_2_)" fill="#E2A05D" d="M167.859,256.19c0.934,7.52,1.981,15.023,3.045,22.523l3.315,22.482
		l3.551,22.446l1.861,11.21l1.967,11.193l-1.467-11.27l-1.575-11.254l-3.318-22.481l-3.553-22.445
		C170.458,271.119,169.214,263.646,167.859,256.19"/>
	<path clip-path="url(#SVGID_2_)" fill="#FFE6BD" d="M489.081,288.291c0,0-29.943,21.424-55.245,35.631
		c-24.213,13.578-68.723,46.299-75.49,64.71c-0.314,0.832-0.539,1.641-0.686,2.416c-0.955-0.978-1.933-1.967-2.933-2.979
		c-14.804-14.95-33.957-32.641-68.071-36.26c-36.407-3.878-81.593-8.521-87.786-12.141c-3.103-15.488-18.85-89.336-18.85-89.336
		s18.075,3.619,37.441,4.912c18.22,1.203,72.521,12.477,87.932,36.373c0.012,0.023,0.022,0.057,0.045,0.079
		c0.876,1.36,1.629,2.754,2.226,4.204c0.056,0.124,0.112,0.259,0.168,0.394c0.011-0.012,0.011-0.034,0.023-0.045
		c0.45-1.124,0.921-2.225,1.394-3.294c8.745-19.704,21.582-31.854,45.31-42.622c25.055-11.364,60.168-34.598,60.168-34.598
		L489.081,288.291z"/>
	<path clip-path="url(#SVGID_2_)" fill="#FFE9D2" d="M357.661,391.053c-15.234-15.491-34.599-35.373-71.005-39.246
		c-36.407-3.873-81.591-8.521-87.788-12.135c-3.098-15.492-18.849-89.337-18.849-89.337s18.074,3.615,37.439,4.905
		s79.526,13.943,90.37,41.054L357.661,391.053z"/>
	<path clip-path="url(#SVGID_2_)" fill="#FFC892" d="M260.32,352.323c68.854,13.771,97.341,38.731,97.341,38.731
		c-5.164,0-16.267,10.069-16.267,10.069l-162.408-52.931c0,0,13.513-5.852,19.882-8.521
		C206.787,344.233,221.234,344.287,260.32,352.323"/>
	<path clip-path="url(#SVGID_2_)" fill="#FFC892" d="M399.231,341.22c21.947-14.975,89.854-52.931,89.854-52.931l13.426,3.874
		L370.055,394.41c0,0-7.229-3.357-12.394-3.357C355.079,375.044,377.284,356.197,399.231,341.22"/>
	<path clip-path="url(#SVGID_2_)" fill="#ECB67B" d="M399.231,341.22c21.947-14.975,89.854-52.931,89.854-52.931
		s-87.53,58.611-98.633,66.1c-11.103,7.487-32.017,26.595-32.791,36.664C355.079,375.044,377.284,356.197,399.231,341.22"/>
	<path clip-path="url(#SVGID_2_)" fill="#ECB67B" d="M490.376,291.646c0,0-112.833,79.784-132.715,99.407
		C372.12,371.688,453.97,312.905,490.376,291.646"/>
	<polygon clip-path="url(#SVGID_2_)" fill="#ECB67B" points="494.075,291.646 477.638,303.655 461.263,315.75 428.614,340.076 
		396.109,364.592 379.908,376.919 363.771,389.332 380.211,377.323 396.587,365.229 429.233,340.902 461.738,316.384 
		477.938,304.058 	"/>
	<path clip-path="url(#SVGID_2_)" fill="#ECB67B" d="M352.497,391.053c-5.986-3.254-12.083-6.295-18.181-9.334
		c-6.129-2.976-12.301-5.866-18.523-8.657c-3.109-1.4-6.235-2.763-9.394-4.051c-3.151-1.306-6.317-2.572-9.583-3.687
		c-6.509-2.176-13.123-3.897-19.754-5.511c-6.651-1.521-13.319-2.945-20-4.281c-6.681-1.337-13.357-2.683-20.058-3.89
		c-6.696-1.235-13.39-2.469-20.066-3.78c-6.676-1.304-13.375-2.545-19.876-4.576c3.169,1.246,6.445,2.242,9.744,3.088
		c3.291,0.897,6.608,1.677,9.921,2.479c6.644,1.513,13.309,2.922,19.967,4.348c13.321,2.821,26.681,5.44,39.895,8.62
		c6.612,1.544,13.205,3.198,19.629,5.28c3.19,1.057,6.358,2.288,9.51,3.56l9.439,3.852c6.28,2.606,12.515,5.333,18.723,8.117
		C340.126,385.358,346.304,388.217,352.497,391.053"/>
	<path clip-path="url(#SVGID_2_)" fill="#ECB67B" d="M347.204,392.474c-12.19-5.542-24.63-10.544-37.253-15.039
		c-6.306-2.264-12.669-4.371-19.087-6.303c-3.197-1.004-6.435-1.878-9.658-2.798c-3.242-0.851-6.484-1.717-9.729-2.522
		c-12.997-3.207-25.953-6.574-38.896-9.989c-6.473-1.703-12.937-3.44-19.384-5.236c-3.227-0.888-6.452-1.781-9.664-2.721
		c-3.211-0.939-6.424-1.884-9.569-3.03c12.58,4.608,25.528,8.114,38.41,11.754c12.906,3.577,25.87,6.937,38.853,10.224
		c13.018,3.099,25.809,7.025,38.463,11.369c6.333,2.156,12.62,4.449,18.868,6.844C334.818,387.39,341.044,389.852,347.204,392.474"
		/>
	<path clip-path="url(#SVGID_2_)" fill="#E2A05D" d="M357.537,368.823c-19.062-32.674-42.801-74.636-43.038-75.057l-0.167-0.296
		l0.809-1.362c0.122-0.16,12.287-16.026,28.016-26.285c15.667-10.218,55.737-33.263,56.14-33.495l0.953-0.647l60.272,62.449
		l-1.128,0.788c-0.475,0.31-47.696,31.104-63.693,41.315c-16.733,10.681-33.16,25.437-36.667,31.495l-1.05,1.861L357.537,368.823z
		 M399.462,233.425c-3.992,2.299-40.879,23.572-55.742,33.264c-14.455,9.428-25.883,23.654-27.548,25.777
		c2.157,3.811,24.299,42.907,42.429,74.003c4.748-7.226,21.395-21.436,36.545-31.106c15.079-9.626,57.922-37.552,63.16-40.968
		L399.462,233.425z"/>
	<path clip-path="url(#SVGID_2_)" fill="#E2A05D" d="M229.623,333.99l-2.289-0.225l-0.106-0.338
		c-6.455-20.656-22.722-72.812-22.722-72.812l-0.232-0.744l2.712,0.277c0.412,0.041,41.478,4.146,65.538,12.337
		c15.938,5.827,29.668,20.21,29.805,20.356l0.051,0.052l40.558,78.701l-2.426-2.461C340.32,368.844,320.24,340.099,229.623,333.99
		 M272.181,273.458c-22.11-7.527-58.734-11.594-64.518-12.202c1.999,6.412,16.32,52.328,22.382,71.727
		c73.354,5.002,100.711,24.943,108.625,32.582l-37.141-72.066C300.614,292.548,287.397,279.021,272.181,273.458"/>
	<path clip-path="url(#SVGID_2_)" fill="#BC4646" d="M305.439,291.697c0.876,1.36,1.629,2.754,2.225,4.204
		C306.912,294.473,306.169,293.079,305.439,291.697"/>
	<path clip-path="url(#SVGID_2_)" fill="#BC4646" d="M359.852,395.691l-3.315,0.617c-0.517-2.752-1.113-5.507-1.81-8.238
		c-0.281-1.158-0.585-2.304-0.911-3.45c-4.924-17.603-12.005-29.146-20.975-43.77c-1.18-1.911-2.383-3.878-3.619-5.912
		c-7.025-11.566-14.579-25.864-21.368-38.688c0.45-1.124,0.922-2.225,1.394-3.294c7.351,13.814,15.028,27.348,22.862,40.229
		c1.226,2.035,2.428,4.002,3.608,5.901c9.105,14.849,16.298,26.573,21.346,44.625c0.461,1.63,0.876,3.271,1.281,4.923
		C358.908,390.981,359.415,393.342,359.852,395.691"/>
	<path clip-path="url(#SVGID_2_)" fill="#992B2B" d="M354.749,439.949l0.488-0.055c-3.937-35.678-0.045-53.106-0.005-53.278
		l-0.479-0.11C354.713,386.678,350.801,404.174,354.749,439.949"/>
	<path clip-path="url(#SVGID_2_)" fill="#992B2B" d="M353.275,439.928l0.489-0.053c-3.936-35.68-0.044-53.107-0.005-53.279
		l-0.479-0.111C353.24,386.656,349.328,404.152,353.275,439.928"/>
	<path clip-path="url(#SVGID_2_)" fill="#992B2B" d="M357.468,439.563l0.489-0.055c-3.937-35.684-0.343-53.557-0.307-53.734
		l-0.481-0.101C357.132,385.851,353.521,403.787,357.468,439.563"/>
	<path clip-path="url(#SVGID_2_)" fill="#992B2B" d="M370.54,436.848l0.489-0.047c-0.04-0.395-4.055-39.543-13.77-51.131
		l-0.375,0.315C366.501,397.459,370.5,436.457,370.54,436.848"/>
	<path clip-path="url(#SVGID_2_)" fill="#992B2B" d="M369.722,436.848l0.489-0.047c-0.04-0.395-4.055-39.543-13.77-51.131
		l-0.376,0.315C365.683,397.459,369.683,436.457,369.722,436.848"/>
	<path clip-path="url(#SVGID_2_)" fill="#992B2B" d="M368.206,438.189l0.489-0.047c-3.703-38.857-12.821-52.783-12.913-52.918
		l-0.408,0.273C355.465,385.633,364.517,399.482,368.206,438.189"/>
	<path clip-path="url(#SVGID_2_)" fill="#992B2B" d="M366.904,438.652l0.489-0.045c-3.704-38.859-12.821-52.785-12.913-52.92
		l-0.408,0.273C354.163,386.096,363.216,399.945,366.904,438.652"/>
	<path clip-path="url(#SVGID_2_)" fill="#992B2B" d="M358.604,439.865l0.486-0.068c-0.059-0.416-5.848-41.902-2.103-53.25
		l-0.468-0.153C352.739,397.85,358.362,438.156,358.604,439.865"/>
	<path clip-path="url(#SVGID_2_)" fill="#992B2B" d="M356.609,440.316l0.488-0.059c-0.051-0.42-5.023-42.033-1.056-53.288
		l-0.463-0.164C351.572,398.168,356.401,438.6,356.609,440.316"/>
	<path clip-path="url(#SVGID_2_)" fill="#992B2B" d="M365.672,438.15l0.486-0.068c-0.267-1.883-6.6-46.146-9.656-51.232
		l-0.421,0.254C359.086,392.104,365.606,437.689,365.672,438.15"/>
	<path clip-path="url(#SVGID_2_)" fill="#992B2B" d="M360.499,439.02l0.485-0.08c-0.055-0.334-5.483-33.523-4.993-51.18
		l-0.491-0.014C355.009,405.449,360.444,438.686,360.499,439.02"/>
	<path clip-path="url(#SVGID_2_)" fill="#992B2B" d="M361.307,439l0.485-0.08c-0.056-0.332-5.483-33.521-4.993-51.18l-0.491-0.014
		C355.817,405.432,361.252,438.668,361.307,439"/>
	<path clip-path="url(#SVGID_2_)" fill="#992B2B" d="M362.865,438.916l0.489-0.051c-1.849-17.791-7.62-54.086-7.676-54.45
		l-0.485,0.076C355.25,384.856,361.018,421.139,362.865,438.916"/>
	<path clip-path="url(#SVGID_2_)" fill="#992B2B" d="M363.684,438.916l0.488-0.051c-1.849-17.791-7.618-54.086-7.676-54.45
		l-0.485,0.076C356.069,384.856,361.836,421.139,363.684,438.916"/>
	<path clip-path="url(#SVGID_2_)" fill="#BC4646" d="M353.943,439.953l0.512-0.063c-4.346-35.67-0.049-53.094-0.005-53.266
		l-0.5-0.127C353.904,386.67,349.582,404.172,353.943,439.953"/>
	<path clip-path="url(#SVGID_2_)" fill="#BC4646" d="M356.948,439.566l0.513-0.063c-4.348-35.672-0.051-53.096-0.006-53.268
		l-0.501-0.127C356.909,386.281,352.587,403.783,356.948,439.566"/>
	<path clip-path="url(#SVGID_2_)" fill="#BC4646" d="M371.387,436.852l0.513-0.055c-0.043-0.395-4.48-39.553-15.215-51.145
		l-0.378,0.351C366.926,397.473,371.343,436.461,371.387,436.852"/>
	<path clip-path="url(#SVGID_2_)" fill="#BC4646" d="M370.483,436.852l0.513-0.055c-0.043-0.395-4.48-39.553-15.215-51.145
		l-0.379,0.351C366.022,397.473,370.439,436.461,370.483,436.852"/>
	<path clip-path="url(#SVGID_2_)" fill="#BC4646" d="M369.043,438.102l0.514-0.055c-4.091-38.867-14.167-52.797-14.268-52.933
		l-0.415,0.309C354.975,385.558,364.969,399.402,369.043,438.102"/>
	<path clip-path="url(#SVGID_2_)" fill="#BC4646" d="M367.801,438.557l0.514-0.055c-4.092-38.867-14.167-52.796-14.268-52.932
		l-0.415,0.308C353.732,386.014,363.727,399.859,367.801,438.557"/>
	<path clip-path="url(#SVGID_2_)" fill="#992B2B" d="M357.832,439.961l0.511-0.078c-0.065-0.418-6.459-41.895-2.324-53.232
		l-0.485-0.178C351.353,397.938,357.565,438.252,357.832,439.961"/>
	<path clip-path="url(#SVGID_2_)" fill="#BC4646" d="M355.999,440.322l0.512-0.07c-0.057-0.418-5.547-42.023-1.167-53.27
		l-0.481-0.188C350.434,398.164,355.769,438.605,355.999,440.322"/>
	<path clip-path="url(#SVGID_2_)" fill="#BC4646" d="M366.617,437.99l0.511-0.08c-0.296-1.883-7.292-46.154-10.671-51.242
		l-0.431,0.287C359.344,391.949,366.545,437.529,366.617,437.99"/>
	<path clip-path="url(#SVGID_2_)" fill="#BC4646" d="M359.787,439.203l0.508-0.094c-0.06-0.332-6.055-33.518-5.513-51.17
		l-0.517-0.016C353.722,405.633,359.726,438.869,359.787,439.203"/>
	<path clip-path="url(#SVGID_2_)" fill="#BC4646" d="M362.499,438.943l0.505-0.105c-0.071-0.348-7.185-34.881-6.644-52.531
		l-0.517-0.018C355.301,404,362.428,438.596,362.499,438.943"/>
	<path clip-path="url(#SVGID_2_)" fill="#BC4646" d="M362.908,438.92l0.514-0.059c-2.043-17.791-8.416-54.088-8.48-54.453
		l-0.508,0.089C354.498,384.863,360.868,421.145,362.908,438.92"/>
	<path clip-path="url(#SVGID_2_)" fill="#BC4646" d="M364.705,438.918l0.514-0.059c-2.044-17.789-8.416-54.088-8.48-54.453
		l-0.509,0.089C356.293,384.86,362.664,421.143,364.705,438.918"/>
</g>
</svg>
