<?xml version="1.0" encoding="utf-8"?>
<!-- Generator: Adobe Illustrator 16.0.0, SVG Export Plug-In . SVG Version: 6.00 Build 0)  -->
<!DOCTYPE svg PUBLIC "-//W3C//DTD SVG 1.1//EN" "http://www.w3.org/Graphics/SVG/1.1/DTD/svg11.dtd">
<svg version="1.1" id="Layer_1" xmlns="http://www.w3.org/2000/svg" xmlns:xlink="http://www.w3.org/1999/xlink" x="0px" y="0px"
	 width="664px" height="598px" viewBox="0 0 664 598" enable-background="new 0 0 664 598" xml:space="preserve">
<g>
	<defs>
		<rect id="SVGID_1_" x="-64.874" y="-143.032" width="922.865" height="922.865"/>
	</defs>
	<clipPath id="SVGID_2_">
		<use xlink:href="#SVGID_1_"  overflow="visible"/>
	</clipPath>
	<g clip-path="url(#SVGID_2_)">
		<defs>
			<rect id="SVGID_3_" x="-64.874" y="-143.032" width="922.865" height="922.865"/>
		</defs>
		<clipPath id="SVGID_4_">
			<use xlink:href="#SVGID_3_"  overflow="visible"/>
		</clipPath>
		<path clip-path="url(#SVGID_4_)" fill="#191919" d="M557.207,271.53c-7.888-33.705-23.671-69.326-54.089-88.451
			c-42.193-26.53-95.608-11.03-138.094,6.367c-25.55,10.461-50.848,22.402-75.09,35.617c-25.559,13.933-49.969,29.813-74.534,45.394
			c-23.501,14.907-47.4,29.293-72.631,41.112c-25.226,11.818-53.076,22.44-81.042,24.949c-11.854,1.063-24.693-1.107-31.613-11.832
			c-5.831-9.039-5.656-20.748-4.185-31.003c0.796-5.549,2.063-11.03,3.567-16.428c0.432-1.55,0.877-3.098,1.405-4.618
			c0.227-0.653,0.456-1.308,0.718-1.949c0.139-0.338,1.969-2.887,0.902-1.884c-1.107,1.04,0.787-0.388,0.797-0.393
			c0.583-0.353,1.093-0.798,1.687-1.143c1.621-0.938,3.381-1.478,5.223-1.771c12.575-2.003,26.398,4.75,37.149,10.479
			c12.345,6.579,24.086,14.169,37.243,19.108c13.412,5.033,27.656,7.821,41.975,8.235c6.114,0.176,13.507-1.419,19.406,0.592
			c6.561,2.237,6.44,9.503,6.3,15.365c-0.363,15.199-6.113,29.665-12.866,43.069c-11.129,22.089-26.784,49.221-53.855,53.058
			c-24.501,3.471-47.21-16.414-46.929-41.086c0.072-6.275,1.429-12.887,4.366-18.472c2.606-4.957,7.808-8.827,12.386-11.913
			c9.576-6.453,20.499-10.503,30.439-16.317c18.541-10.845,28.735-29.499,30.356-50.693c1.863-24.363-5.088-50.703,6.123-73.659
			c5.126-10.495,18.644-15.845,29.554-17.002c12.122-1.287,24.375,1.376,35.595,5.871c13.39,5.365,25.733,12.943,38.858,18.877
			c11.923,5.391,23.55,8.068,36.576,8.577c12.29,0.48,22.793,3.139,33.7,8.971c10.096,5.399,18.751,13.681,16.98,26.098
			c-1.132,7.941-5.735,14.495-11.635,19.703c-1.571,1.387-1.987,4.065-3.519,5.417c4.831-4.264,8.584-9.56,12.032-14.957
			c5.511-8.624,9.72-19.117,4.367-28.922c-5.649-10.351-20.373-16.831-31.225-19.678c-11.588-3.041-23.747-1.353-35.413-4.064
			c-28.769-6.685-51.667-29.195-81.843-31.441c-12.518-0.932-25.646,1.743-35.115,10.446c-6.611,6.076-11.982,15.018-14.888,23.46
			c-8.745,25.41,0.174,52.536-5.113,78.414c-1.478,7.227-3.848,14.276-9.112,19.611c-4.204,4.26-9.247,7.604-14.446,10.519
			c-10.571,5.929-22.178,10.177-31.876,17.583c-17.6,13.44-27.018,39.106-15.587,59.408c6.146,10.918,17.578,18.5,29.879,20.52
			c12.235,2.009,24.318-2.075,34.047-9.457c9.016-6.841,15.938-15.946,22.126-25.319c6.712-10.167,12.765-20.796,18.078-31.76
			c6.459-13.33,11.708-27.729,11.493-42.737c-0.099-6.94-1.623-12.627-9.362-13.548c-6.995-0.831-14.251,0.285-21.312-0.187
			c-15.665-1.047-31.139-4.948-45.411-11.493c-13.224-6.064-25.203-14.523-38.539-20.359c-10.555-4.619-28.658-11.213-37.139,0.182
			c-5.918,7.954-8.554,17.022-10.526,26.644c-2.273,11.095-3.662,23.872,1.373,34.447c5.759,12.097,18.6,15.762,31.119,15.017
			c14.95-0.889,30.069-5.091,44.266-9.644c14.624-4.69,28.839-10.589,42.674-17.242c55.288-26.584,103.667-65.163,158.483-92.614
			c26.197-13.119,52.875-25.922,80.583-35.541c25.88-8.985,53.986-15.578,81.483-11.579c36.504,5.309,62.303,30.586,77.338,63.133
			c5.668,12.271,9.746,25.187,12.823,38.333C553.365,275.565,557.563,273.048,557.207,271.53"/>
		<path clip-path="url(#SVGID_4_)" fill-rule="evenodd" clip-rule="evenodd" fill="#87BDE8" d="M620.251,279.827v201.942
			c0,1.106-0.148,2.177-0.435,3.192c-1.411,5.113-6.108,8.888-11.637,8.888H276.179c-5.537,0-10.235-3.774-11.646-8.888
			c-0.286-1.016-0.434-2.086-0.434-3.192V279.827c0-6.635,5.436-12.071,12.081-12.071H608.18
			C614.814,267.755,620.251,273.191,620.251,279.827"/>
		<path clip-path="url(#SVGID_4_)" fill-rule="evenodd" clip-rule="evenodd" fill="#231F20" d="M513.887,442.614
			c-27.978,0-50.66-22.681-50.66-50.659c0-27.979,22.683-50.66,50.66-50.66c27.979,0,50.66,22.681,50.66,50.66
			C564.547,419.934,541.866,442.614,513.887,442.614"/>
		<path clip-path="url(#SVGID_4_)" fill-rule="evenodd" clip-rule="evenodd" fill="#939598" d="M513.887,424.486
			c-17.967,0-32.532-14.565-32.532-32.531c0-17.967,14.565-32.532,32.532-32.532c17.966,0,32.531,14.565,32.531,32.532
			C546.418,409.921,531.853,424.486,513.887,424.486"/>
		<path clip-path="url(#SVGID_4_)" fill-rule="evenodd" clip-rule="evenodd" fill="#E6E7E8" d="M513.887,415.199
			c-12.838,0-23.244-10.407-23.244-23.244c0-12.838,10.406-23.245,23.244-23.245s23.246,10.407,23.246,23.245
			C537.133,404.792,526.725,415.199,513.887,415.199"/>
		<path clip-path="url(#SVGID_4_)" fill-rule="evenodd" clip-rule="evenodd" fill="#231F20" d="M362.058,434.207
			c-23.336,0-42.253-18.917-42.253-42.252c0-23.336,18.917-42.253,42.253-42.253c23.335,0,42.252,18.917,42.252,42.253
			C404.311,415.29,385.394,434.207,362.058,434.207"/>
		<path clip-path="url(#SVGID_4_)" fill-rule="evenodd" clip-rule="evenodd" fill="#939598" d="M362.058,424.486
			c-17.967,0-32.532-14.565-32.532-32.531c0-17.967,14.565-32.532,32.532-32.532c17.966,0,32.532,14.565,32.532,32.532
			C394.59,409.921,380.024,424.486,362.058,424.486"/>
		<path clip-path="url(#SVGID_4_)" fill="none" stroke="#231F20" stroke-width="2.224" stroke-miterlimit="22.926" d="
			M549.58,421.275c3.409-2.633,6.82-5.266,9.313-10.152c2.495-4.888,4.074-12.027,6.149-23.161
			c2.074-11.134,4.645-26.26,7.486-42.271c2.842-16.01,5.954-32.907,6.731-42.577c0.777-9.672-0.777-12.117-4.21-15.085
			c-3.433-2.968-8.741-6.458-14.854-8.459c-6.113-2.001-13.033-2.512-19.952-3.024 M335.087,421.275
			c-3.409-2.633-6.817-5.266-9.313-10.152c-2.494-4.888-4.074-12.027-6.149-23.161s-4.646-26.26-7.486-42.271
			c-2.842-16.01-5.954-32.907-6.731-42.577c-0.778-9.672,0.778-12.117,4.21-15.085c3.432-2.968,8.74-6.458,14.854-8.459
			c6.113-2.001,13.033-2.512,19.952-3.024"/>
		<path clip-path="url(#SVGID_4_)" fill-rule="evenodd" clip-rule="evenodd" fill="#D1D3D4" d="M568.111,305.559
			c-4.328,0-7.837-3.509-7.837-7.837c0-4.328,3.509-7.836,7.837-7.836s7.837,3.508,7.837,7.836
			C575.948,302.05,572.439,305.559,568.111,305.559"/>
		<path clip-path="url(#SVGID_4_)" fill-rule="evenodd" clip-rule="evenodd" fill="#D1D3D4" d="M316.241,305.559
			c-4.328,0-7.837-3.509-7.837-7.837c0-4.328,3.509-7.836,7.837-7.836s7.837,3.508,7.837,7.836
			C324.079,302.05,320.569,305.559,316.241,305.559"/>
		<path clip-path="url(#SVGID_4_)" fill-rule="evenodd" clip-rule="evenodd" fill="#231F20" d="M606.331,486.68
			c-2.118,0-3.836-1.716-3.836-3.834s1.718-3.835,3.836-3.835s3.834,1.717,3.834,3.835S608.449,486.68,606.331,486.68"/>
		<path clip-path="url(#SVGID_4_)" fill-rule="evenodd" clip-rule="evenodd" fill="#231F20" d="M278.022,486.68
			c-2.118,0-3.834-1.716-3.834-3.834s1.716-3.835,3.834-3.835s3.834,1.717,3.834,3.835S280.14,486.68,278.022,486.68"/>
		<path clip-path="url(#SVGID_4_)" fill-rule="evenodd" clip-rule="evenodd" fill="#231F20" d="M606.331,285.258
			c-2.118,0-3.836-1.716-3.836-3.834s1.718-3.834,3.836-3.834s3.834,1.716,3.834,3.834S608.449,285.258,606.331,285.258"/>
		<path clip-path="url(#SVGID_4_)" fill-rule="evenodd" clip-rule="evenodd" fill="#231F20" d="M278.022,285.258
			c-2.118,0-3.834-1.716-3.834-3.834s1.716-3.834,3.834-3.834s3.834,1.716,3.834,3.834S280.14,285.258,278.022,285.258"/>
		<polygon clip-path="url(#SVGID_4_)" fill-rule="evenodd" clip-rule="evenodd" fill="#579ECE" points="563.756,267.751 
			550.917,315.896 334.156,315.896 321.255,267.751 		"/>
		
			<rect x="486.691" y="295.389" clip-path="url(#SVGID_4_)" fill-rule="evenodd" clip-rule="evenodd" fill="#FFFFFF" width="20.008" height="10.005"/>
		
			<rect x="378.311" y="295.389" clip-path="url(#SVGID_4_)" fill-rule="evenodd" clip-rule="evenodd" fill="#FFFFFF" width="20.008" height="10.005"/>
		<path clip-path="url(#SVGID_4_)" fill-rule="evenodd" clip-rule="evenodd" fill="#FFFFFF" d="M518.705,292.388
			c-3.131,0-5.669-2.538-5.669-5.669s2.538-5.669,5.669-5.669c3.13,0,5.669,2.538,5.669,5.669S521.835,292.388,518.705,292.388"/>
		<path clip-path="url(#SVGID_4_)" fill-rule="evenodd" clip-rule="evenodd" fill="#FFFFFF" d="M366.306,292.388
			c-3.131,0-5.669-2.538-5.669-5.669s2.538-5.669,5.669-5.669c3.13,0,5.669,2.538,5.669,5.669S369.436,292.388,366.306,292.388"/>
		<path clip-path="url(#SVGID_4_)" fill-rule="evenodd" clip-rule="evenodd" fill="#E6E7E8" d="M362.058,415.199
			c-12.838,0-23.245-10.407-23.245-23.244c0-12.838,10.407-23.245,23.245-23.245c12.837,0,23.245,10.407,23.245,23.245
			C385.303,404.792,374.896,415.199,362.058,415.199"/>
		
			<circle clip-path="url(#SVGID_4_)" fill="none" stroke="#939598" stroke-width="1.668" stroke-miterlimit="22.926" cx="362.058" cy="391.955" r="16.064"/>
		<path clip-path="url(#SVGID_4_)" fill-rule="evenodd" clip-rule="evenodd" fill="#939598" d="M362.918,408.429h-1.721
			c-0.698,0-1.268-0.57-1.268-1.269v-2.854c0-0.698,0.57-1.27,1.268-1.27h1.721c0.697,0,1.268,0.571,1.268,1.27v2.854
			C364.186,407.858,363.615,408.429,362.918,408.429"/>
		<path clip-path="url(#SVGID_4_)" fill-rule="evenodd" clip-rule="evenodd" fill="#939598" d="M362.918,380.806h-1.721
			c-0.698,0-1.268-0.569-1.268-1.269v-2.853c0-0.698,0.57-1.27,1.268-1.27h1.721c0.697,0,1.268,0.571,1.268,1.27v2.853
			C364.186,380.236,363.615,380.806,362.918,380.806"/>
		<path clip-path="url(#SVGID_4_)" fill-rule="evenodd" clip-rule="evenodd" fill="#939598" d="M378.564,391.269v1.722
			c0,0.697-0.57,1.269-1.268,1.269h-2.854c-0.698,0-1.269-0.571-1.269-1.269v-1.722c0-0.697,0.571-1.268,1.269-1.268h2.854
			C377.994,390.001,378.564,390.571,378.564,391.269"/>
		<path clip-path="url(#SVGID_4_)" fill-rule="evenodd" clip-rule="evenodd" fill="#939598" d="M350.942,391.269v1.722
			c0,0.697-0.571,1.269-1.269,1.269h-2.853c-0.698,0-1.269-0.571-1.269-1.269v-1.722c0-0.697,0.571-1.268,1.269-1.268h2.853
			C350.371,390.001,350.942,390.571,350.942,391.269"/>
		<path clip-path="url(#SVGID_4_)" fill-rule="evenodd" clip-rule="evenodd" fill="#939598" d="M374.338,402.985l-1.217,1.217
			c-0.493,0.493-1.3,0.493-1.794,0l-2.017-2.017c-0.493-0.494-0.493-1.302,0-1.794l1.217-1.218c0.493-0.493,1.299-0.493,1.793,0
			l2.018,2.018C374.831,401.686,374.831,402.493,374.338,402.985"/>
		<path clip-path="url(#SVGID_4_)" fill-rule="evenodd" clip-rule="evenodd" fill="#939598" d="M354.806,383.453l-1.217,1.218
			c-0.493,0.493-1.3,0.493-1.793,0l-2.018-2.018c-0.493-0.493-0.493-1.301,0-1.794l1.217-1.218c0.493-0.492,1.3-0.492,1.794,0
			l2.018,2.019C355.3,382.153,355.3,382.96,354.806,383.453"/>
		<path clip-path="url(#SVGID_4_)" fill-rule="evenodd" clip-rule="evenodd" fill="#939598" d="M373.269,379.789l1.217,1.218
			c0.493,0.492,0.493,1.299,0,1.792l-2.018,2.019c-0.494,0.493-1.3,0.493-1.794,0l-1.216-1.217c-0.493-0.493-0.493-1.301,0-1.795
			l2.018-2.017C371.967,379.296,372.774,379.296,373.269,379.789"/>
		<path clip-path="url(#SVGID_4_)" fill-rule="evenodd" clip-rule="evenodd" fill="#939598" d="M353.736,399.32l1.217,1.218
			c0.493,0.493,0.493,1.301,0,1.794l-2.018,2.018c-0.493,0.493-1.301,0.493-1.794,0l-1.217-1.218c-0.493-0.492-0.493-1.3,0-1.793
			l2.017-2.018C352.436,398.827,353.243,398.827,353.736,399.32"/>
		
			<circle clip-path="url(#SVGID_4_)" fill="none" stroke="#939598" stroke-width="1.668" stroke-miterlimit="22.926" cx="513.887" cy="391.955" r="16.064"/>
		<path clip-path="url(#SVGID_4_)" fill-rule="evenodd" clip-rule="evenodd" fill="#939598" d="M514.747,408.429h-1.721
			c-0.697,0-1.269-0.57-1.269-1.269v-2.854c0-0.698,0.571-1.27,1.269-1.27h1.721c0.697,0,1.269,0.571,1.269,1.27v2.854
			C516.016,407.858,515.444,408.429,514.747,408.429"/>
		<path clip-path="url(#SVGID_4_)" fill-rule="evenodd" clip-rule="evenodd" fill="#939598" d="M514.747,380.806h-1.721
			c-0.697,0-1.269-0.569-1.269-1.269v-2.853c0-0.698,0.571-1.27,1.269-1.27h1.721c0.697,0,1.269,0.571,1.269,1.27v2.853
			C516.016,380.236,515.444,380.806,514.747,380.806"/>
		<g opacity="0.34" clip-path="url(#SVGID_4_)">
			<g>
				<defs>
					<rect id="SVGID_5_" x="264.099" y="315.892" width="356.151" height="169.069"/>
				</defs>
				<clipPath id="SVGID_6_">
					<use xlink:href="#SVGID_5_"  overflow="visible"/>
				</clipPath>
				<path clip-path="url(#SVGID_6_)" fill-rule="evenodd" clip-rule="evenodd" fill="#CBE1EF" d="M620.251,315.892v165.876
					c0,1.106-0.148,2.177-0.435,3.192H264.532c-0.286-1.016-0.434-2.086-0.434-3.192V315.892H620.251z"/>
			</g>
		</g>
		<path clip-path="url(#SVGID_4_)" fill-rule="evenodd" clip-rule="evenodd" fill="#939598" d="M530.394,391.269v1.722
			c0,0.697-0.57,1.269-1.269,1.269h-2.854c-0.697,0-1.269-0.571-1.269-1.269v-1.722c0-0.697,0.571-1.268,1.269-1.268h2.854
			C529.823,390.001,530.394,390.571,530.394,391.269"/>
		<path clip-path="url(#SVGID_4_)" fill-rule="evenodd" clip-rule="evenodd" fill="#939598" d="M502.771,391.269v1.722
			c0,0.697-0.57,1.269-1.269,1.269h-2.853c-0.697,0-1.269-0.571-1.269-1.269v-1.722c0-0.697,0.571-1.268,1.269-1.268h2.853
			C502.2,390.001,502.771,390.571,502.771,391.269"/>
		<path clip-path="url(#SVGID_4_)" fill-rule="evenodd" clip-rule="evenodd" fill="#939598" d="M526.167,402.985l-1.217,1.217
			c-0.493,0.493-1.3,0.493-1.794,0l-2.018-2.017c-0.492-0.494-0.492-1.302,0-1.794l1.217-1.218c0.493-0.493,1.301-0.493,1.794,0
			l2.017,2.018C526.66,401.686,526.66,402.493,526.167,402.985"/>
		<path clip-path="url(#SVGID_4_)" fill-rule="evenodd" clip-rule="evenodd" fill="#939598" d="M506.635,383.453l-1.217,1.218
			c-0.493,0.493-1.301,0.493-1.794,0l-2.018-2.018c-0.493-0.493-0.493-1.301,0-1.794l1.217-1.218c0.493-0.492,1.301-0.492,1.794,0
			l2.018,2.019C507.129,382.153,507.129,382.96,506.635,383.453"/>
		<path clip-path="url(#SVGID_4_)" fill-rule="evenodd" clip-rule="evenodd" fill="#939598" d="M525.098,379.789l1.217,1.218
			c0.493,0.492,0.493,1.299-0.001,1.792l-2.018,2.019c-0.493,0.493-1.3,0.493-1.793,0l-1.218-1.217
			c-0.492-0.493-0.492-1.301,0.001-1.795l2.018-2.017C523.796,379.296,524.604,379.296,525.098,379.789"/>
		<path clip-path="url(#SVGID_4_)" fill-rule="evenodd" clip-rule="evenodd" fill="#939598" d="M505.564,399.32l1.218,1.218
			c0.493,0.493,0.493,1.301,0,1.794l-2.018,2.018c-0.493,0.493-1.301,0.493-1.794,0l-1.217-1.218c-0.493-0.492-0.493-1.3,0-1.793
			l2.018-2.018C504.265,398.827,505.072,398.827,505.564,399.32"/>
		
			<rect x="294.031" y="323.877" clip-path="url(#SVGID_4_)" fill="none" stroke="#579ECE" stroke-width="1.984" stroke-miterlimit="22.926" width="296.29" height="108.378"/>
		
			<rect x="466.984" y="385.97" clip-path="url(#SVGID_4_)" fill-rule="evenodd" clip-rule="evenodd" fill="#231F20" width="2.695" height="17.603"/>
		
			<rect x="453.407" y="385.97" clip-path="url(#SVGID_4_)" fill-rule="evenodd" clip-rule="evenodd" fill="#579ECE" width="2.694" height="17.603"/>
		
			<rect x="439.829" y="385.97" clip-path="url(#SVGID_4_)" fill-rule="evenodd" clip-rule="evenodd" fill="#579ECE" width="2.694" height="17.603"/>
		
			<rect x="426.252" y="385.97" clip-path="url(#SVGID_4_)" fill-rule="evenodd" clip-rule="evenodd" fill="#579ECE" width="2.693" height="17.603"/>
		
			<rect x="412.674" y="385.97" clip-path="url(#SVGID_4_)" fill-rule="evenodd" clip-rule="evenodd" fill="#579ECE" width="2.694" height="17.603"/>
		
			<rect x="399.098" y="385.97" clip-path="url(#SVGID_4_)" fill-rule="evenodd" clip-rule="evenodd" fill="#231F20" width="2.693" height="17.603"/>
		<path clip-path="url(#SVGID_4_)" fill-rule="evenodd" clip-rule="evenodd" fill="#FFFFFF" d="M570.899,479.27H313.453
			c-4.035,0-7.336-3.301-7.336-7.337v-31.348c0-4.034,3.301-7.336,7.336-7.336h257.446c4.035,0,7.336,3.302,7.336,7.336v31.348
			C578.235,475.969,574.935,479.27,570.899,479.27"/>
		<path clip-path="url(#SVGID_4_)" fill="none" stroke="#BCBDC0" stroke-width="1.112" stroke-miterlimit="22.926" d="
			M568.731,464.111h-253.11 M568.731,446.771h-253.11"/>
	</g>
</g>
</svg>
