<?xml version="1.0" encoding="utf-8"?>
<!-- Generator: Adobe Illustrator 26.0.1, SVG Export Plug-In . SVG Version: 6.00 Build 0)  -->
<svg version="1.1" id="Layer_1" xmlns="http://www.w3.org/2000/svg" xmlns:xlink="http://www.w3.org/1999/xlink" x="0px" y="0px"
	 viewBox="0 0 664 598" style="enable-background:new 0 0 664 598;" xml:space="preserve">
<style type="text/css">
	.st0{fill:none;}
	.st1{clip-path:url(#SVGID_00000018225010661152835490000001639525030705231549_);}
	.st2{fill:#A5E0DC;}
	.st3{fill:#00747D;}
	.st4{opacity:0.45;}
	.st5{fill:#F7DFC6;}
	.st6{fill:#81CCC6;}
	.st7{fill:#890804;}
	.st8{fill:#CC936D;}
	.st9{fill:#101010;}
	.st10{fill:#C6C6C6;}
	.st11{fill:#FFFFFF;}
	.st12{fill:#AF7151;}
	.st13{fill:#513328;}
	.st14{fill:#C48C66;}
	.st15{fill:#AF1919;}
	.st16{fill:#9FD3F4;}
	.st17{fill:#111010;}
</style>
<g>
	<line class="st0" x1="680.5" y1="374" x2="677.2" y2="374"/>
	<line class="st0" x1="663" y1="374" x2="651.3" y2="374"/>
	<g>
		<g>
			<defs>
				<path id="SVGID_1_" d="M574.2,181.3c-10.6-18.9-23-35.5-35.9-49.6c-2.3-2.6-47.1-40.4-47.1-40.4c-1.3-1-2.5-2-3.7-3
					c-35.8-30-62.9-84.4-162.3-76.1c-46.3,3.9-76.6,22.7-98.2,48c-6.5,7.6-12.3,15.9-17.5,24.6c-15.9,26.6-26.5,57.2-37.3,83.9
					c-14.3,35.3-65.3,40.8-83.7,81.7c-16.7,19.3-25.5,49.7-29.9,71.8c-3.2,15.9-4.1,27.4-4.1,27.4c-5,111.1,94.9,196.3,197.9,227.1
					c23,6.9,46.3,11.1,68.5,12.2c10.5,0.5,20.8,0.4,30.7-0.4c2-0.2,4-0.4,6.1-0.6c1.4-0.2,2.8-0.3,4.2-0.5c1.2-0.1,2.4-0.3,3.6-0.5
					c0.7-0.1,1.3-0.2,2-0.3c0.6-0.1,1.3-0.2,1.9-0.3c33.4-5.1,70.8-16.8,105-34.7c0.2-0.1,0.3-0.2,0.5-0.3
					c55.3-29,102.5-74.3,111.5-134.9c8-39.6,19-62.7,19-121.9C607.3,255.5,574.2,181.3,574.2,181.3z"/>
			</defs>
			<clipPath id="SVGID_00000181793169826033999920000008780981457388041862_">
				<use xlink:href="#SVGID_1_"  style="overflow:visible;"/>
			</clipPath>
			<g style="clip-path:url(#SVGID_00000181793169826033999920000008780981457388041862_);">
				<rect x="-76.9" y="11.4" class="st2" width="796.4" height="628.3"/>
				<rect x="-77" y="427.7" class="st3" width="796.4" height="270.9"/>
				<g class="st4">
					<path class="st5" d="M74.9,153.4c-0.5-1.7-0.4-5.2,1.6-7.6c3.2-3.8,9.8-2.7,10.9-2.4c0.8-1.5,2.9-4.7,6.9-6.9
						c6.3-3.4,12.6-1.7,13.9-1.3c0.2-0.4,1.7-3.7,5.4-4.7c4.4-1.1,7.7,2.1,7.8,2.2c0.6-1.1,4.9-9.5,14.8-11.8
						c10.8-2.5,18.9,4.3,19.7,5c0.4-0.6,4.9-7.6,13.7-8c8.5-0.3,13.5,6,14,6.6c0.4-0.4,4.6-4.8,10.9-4c6.9,0.8,9.8,7,10,7.3
						c0.5-0.3,4.3-2.7,9-1.3c5.2,1.6,6.8,6.5,7,7c0.4-0.2,8.7-3.7,15.7,1.5c4.9,3.6,5.8,9,6,10.2c1.7-2.7,4.9-4,7.9-3.3
						c2.6,0.6,4.6,2.6,5.4,5.2c1.3-0.7,3.6-1.7,6.1-1.2c4.5,0.9,8.2,6.1,7.5,8.8c-1.5,5.3-20.6,3.4-44.5,2.6
						c-12-0.4-33.3,0.1-75.9,1.1C106.2,159.6,77.5,161.9,74.9,153.4z"/>
				</g>
				<g class="st4">
					<path class="st5" d="M407.3,106.4c-0.3-1.1-0.3-3.3,1-4.9c2.1-2.4,6.3-1.7,7-1.6c0.5-1,1.9-3,4.4-4.4c4-2.2,8-1.1,8.8-0.8
						c0.1-0.3,1.1-2.4,3.4-3c2.8-0.7,4.9,1.3,5,1.4c0.4-0.7,3.1-6,9.4-7.5c6.9-1.6,12,2.8,12.5,3.2c0.2-0.4,3.1-4.9,8.7-5.1
						c5.4-0.2,8.6,3.8,8.9,4.2c0.3-0.3,2.9-3.1,7-2.6c4.4,0.5,6.3,4.4,6.4,4.7c0.3-0.2,2.8-1.7,5.7-0.8c3.3,1,4.4,4.2,4.5,4.5
						c0.2-0.1,5.6-2.3,10,0.9c3.1,2.3,3.7,5.8,3.8,6.5c1.1-1.7,3.1-2.6,5-2.1c1.6,0.4,2.9,1.7,3.4,3.3c0.9-0.5,2.3-1.1,3.9-0.7
						c2.9,0.6,5.2,3.9,4.8,5.6c-0.9,3.4-13.1,2.2-28.4,1.7c-7.6-0.3-21.2,0.1-48.4,0.7C427.2,110.3,408.9,111.8,407.3,106.4z"/>
				</g>
				<g class="st4">
					<path class="st5" d="M341.3,66c-0.2-0.6-0.2-1.9,0.6-2.7c1.2-1.4,3.5-0.9,3.9-0.9c0.3-0.5,1-1.7,2.4-2.4
						c2.2-1.2,4.5-0.6,4.9-0.5c0.1-0.1,0.6-1.3,1.9-1.7c1.6-0.4,2.7,0.7,2.8,0.8c0.2-0.4,1.7-3.4,5.3-4.2c3.9-0.9,6.7,1.5,7,1.8
						c0.1-0.2,1.7-2.7,4.9-2.8c3-0.1,4.8,2.1,5,2.4c0.1-0.2,1.6-1.7,3.9-1.4c2.4,0.3,3.5,2.5,3.6,2.6c0.2-0.1,1.5-1,3.2-0.5
						c1.8,0.6,2.4,2.3,2.5,2.5c0.1-0.1,3.1-1.3,5.6,0.5c1.7,1.3,2.1,3.2,2.1,3.6c0.6-1,1.8-1.4,2.8-1.2c0.9,0.2,1.6,0.9,1.9,1.9
						c0.5-0.3,1.3-0.6,2.2-0.4c1.6,0.3,2.9,2.2,2.7,3.2c-0.5,1.9-7.3,1.2-15.8,0.9c-4.3-0.1-11.9,0-27,0.4
						C352.4,68.2,342.2,69,341.3,66z"/>
				</g>
				<g>
					<g>
						<path class="st3" d="M172.8,331.1c2.8,12.2,5.3,26.7,6.4,43.1c1.2,17.3,0.6,32.7-0.6,45.6c-2,0.4-4.8,1.2-7.7,2.8
							c-5,2.8-7.9,6.5-9.3,8.7c2.6-1.3,6.4-2.8,11.1-2.6c3.2,0.1,2.9,0.9,6.4,1.1c6.3,0.3,10-1.9,13.8-0.9c0.3,0.1,1.4,0.4,3,0.4
							c0.2,0,2.9-0.1,3-0.7c0.1-0.9-4.9-1.7-10.6-5.3c-1.6-1-2.9-2-3.7-2.7c1.1-13.6,1.5-29.4,0.4-46.8c-1.1-17-3.4-32.2-6-45.3
							C176.9,329.4,174.9,330.3,172.8,331.1z"/>
						<path class="st6" d="M167.1,325.2c-4.4,1.2-10.1,3.5-15.5,8c-16.8,14.1-15.5,37.2-15.3,40.4c0.9-5.1,3.9-18.1,15-29.3
							c7.7-7.7,15.9-11.3,20.7-13c-0.5,5.5-0.7,12,0.1,19.2c1.7,16.3,7.3,29,11.8,37.1c-2.8-7.3-5.9-17.9-6.6-31.1
							c-0.5-10.3,0.6-19.2,2-25.8c3.4,0.6,7.2,1.7,11.2,3.7c15.3,7.7,21.3,22.8,23.1,27.8c1.3-4,2.3-9.8,0.4-16.1
							c-3.8-12.2-17.4-20.9-34.2-21.2c2.9-1.7,7-3.5,12.1-4c16.1-1.6,27.5,11.6,29,13.3c-0.5-1-10.1-18.6-28-19.3
							c-7.9-0.3-14.1,2.8-17.1,4.6c-2.9-1.8-8-4.2-13.6-3.1c-11.5,2.3-16.7,18.1-17.1,28.4c-0.5,12.1,5.6,21,8.2,24.5
							c-2.8-6.6-5.8-16.6-3.7-28c1-5.3,2.6-14.3,9.1-16.7C161.8,323.6,165,324.4,167.1,325.2z"/>
					</g>
					<g>
						<path class="st3" d="M135.9,377.7c-1.5,6.5-2.8,14.2-3.4,23c-0.6,9.2-0.3,17.4,0.3,24.3c1.1,0.2,2.6,0.6,4.1,1.5
							c2.7,1.5,4.2,3.5,4.9,4.6c-1.4-0.7-3.4-1.5-5.9-1.4c-1.7,0.1-1.5,0.5-3.4,0.6c-3.4,0.2-5.3-1-7.4-0.5c-0.1,0-0.8,0.2-1.6,0.2
							c-0.1,0-1.5,0-1.6-0.4c-0.1-0.5,2.6-0.9,5.7-2.8c0.9-0.5,1.5-1.1,2-1.4c-0.6-7.3-0.8-15.7-0.2-25c0.6-9.1,1.8-17.2,3.2-24.2
							C133.8,376.8,134.8,377.3,135.9,377.7z"/>
						<path class="st6" d="M139,374.6c2.3,0.7,5.4,1.9,8.2,4.3c8.9,7.5,8.3,19.8,8.1,21.5c-0.5-2.7-2.1-9.6-8-15.6
							c-4.1-4.1-8.5-6-11-6.9c0.3,2.9,0.3,6.4-0.1,10.2c-0.9,8.7-3.9,15.4-6.3,19.8c1.5-3.9,3.2-9.6,3.5-16.6
							c0.3-5.5-0.3-10.2-1.1-13.8c-1.8,0.3-3.9,0.9-6,2c-8.2,4.1-11.4,12.1-12.3,14.8c-0.7-2.1-1.2-5.2-0.2-8.6
							c2-6.5,9.3-11.1,18.2-11.3c-1.5-0.9-3.7-1.9-6.4-2.1c-8.6-0.8-14.7,6.2-15.4,7.1c0.3-0.5,5.4-9.9,14.9-10.3
							c4.2-0.2,7.5,1.5,9.1,2.5c1.5-0.9,4.3-2.3,7.3-1.6c6.1,1.2,8.9,9.7,9.1,15.2c0.2,6.4-3,11.2-4.4,13.1c1.5-3.5,3.1-8.9,2-14.9
							c-0.5-2.8-1.4-7.6-4.8-8.9C141.8,373.7,140.1,374.2,139,374.6z"/>
					</g>
					<g>
						<path class="st3" d="M576.1,376.2c-1.5,6.5-2.8,14.2-3.4,23c-0.6,9.2-0.3,17.4,0.3,24.3c1.1,0.2,2.6,0.6,4.1,1.5
							c2.7,1.5,4.2,3.5,4.9,4.6c-1.4-0.7-3.4-1.5-5.9-1.4c-1.7,0.1-1.5,0.5-3.4,0.6c-3.4,0.2-5.3-1-7.4-0.5c-0.1,0-0.8,0.2-1.6,0.2
							c-0.1,0-1.5,0-1.6-0.4c-0.1-0.5,2.6-0.9,5.7-2.8c0.9-0.5,1.5-1.1,2-1.4c-0.6-7.3-0.8-15.7-0.2-25c0.6-9.1,1.8-17.2,3.2-24.2
							C573.9,375.3,575,375.7,576.1,376.2z"/>
						<path class="st6" d="M579.2,373c2.3,0.7,5.4,1.9,8.2,4.3c8.9,7.5,8.3,19.8,8.1,21.5c-0.5-2.7-2.1-9.6-8-15.6
							c-4.1-4.1-8.5-6-11-6.9c0.3,2.9,0.3,6.4-0.1,10.2c-0.9,8.7-3.9,15.4-6.3,19.8c1.5-3.9,3.2-9.6,3.5-16.6
							c0.3-5.5-0.3-10.2-1.1-13.8c-1.8,0.3-3.9,0.9-6,2c-8.2,4.1-11.4,12.1-12.3,14.8c-0.7-2.1-1.2-5.2-0.2-8.6
							c2-6.5,9.3-11.1,18.2-11.3c-1.5-0.9-3.7-1.9-6.4-2.1c-8.6-0.8-14.7,6.2-15.4,7.1c0.3-0.5,5.4-9.9,14.9-10.3
							c4.2-0.2,7.5,1.5,9.1,2.5c1.5-0.9,4.3-2.3,7.3-1.6c6.1,1.2,8.9,9.7,9.1,15.2c0.2,6.4-3,11.2-4.4,13.1c1.5-3.5,3.1-8.9,2-14.9
							c-0.5-2.8-1.4-7.6-4.8-8.9C582,372.2,580.3,372.6,579.2,373z"/>
					</g>
				</g>
			</g>
			<g style="clip-path:url(#SVGID_00000181793169826033999920000008780981457388041862_);">
				<g>
					<path class="st6" d="M557.1,401.5v8.7H355.7v-8.7h6.3v-34.4h5.2v-32.3h4.2v-24.6H369v-2.7h-1v-2.3h3.5c0,0-3.5-1.2-3.5-8.9h3.5
						l3.9-32.6l3.9,32.6h3.5c0,7.8-3.5,8.9-3.5,8.9h3.5v2.3h-1v2.7h-2.5v24.6h13.6v-23.3c4.2-4.2,8.2-5.9,11.8-6.3v-6h2.5v5.9
						c7.1,0.5,12,6,12.3,6.3c-17.3-27.1,5.4-42.9,17.1-46c8.7-2.3,15.4-7.9,18.3-10.6v-22.5c-4.9-1.7-8.5-6.3-8.5-11.8
						c0-5.1,3.1-9.5,7.5-11.4c-1.9,2.1-3,4.9-3,8c0,6.6,5.3,11.9,11.9,11.9c2.6,0,4.9-0.8,6.9-2.2c-2.2,3.7-6.2,6.2-10.8,6.2
						c-0.3,0-0.6,0-0.8,0V255c2.9,2.7,9.7,8.3,18.3,10.6c11.6,3.1,34.4,18.9,17.1,46c0.3-0.3,5.2-5.8,12.3-6.3v-5.9h2.5v6
						c3.6,0.4,7.6,2.1,11.8,6.3v23.3h13.6v-24.6h-2.5v-2.7h-1v-2.3h3.5c0,0-3.5-1.2-3.5-8.9h3.5l3.9-32.6l3.9,32.6h3.5
						c0,7.8-3.5,8.9-3.5,8.9h3.5v2.3h-1v2.7h-2.5v24.6h4.2v32.3h5.2v34.4H557.1z"/>
					<g>
						<path class="st2" d="M401.1,349.2c-5.6,0-10.2,4.6-10.2,10.2v41.2h20.4v-41.2C411.4,353.8,406.8,349.2,401.1,349.2z"/>
						<path class="st2" d="M438.4,349.2c-5.6,0-10.2,4.6-10.2,10.2v41.2h20.4v-41.2C448.6,353.8,444,349.2,438.4,349.2z"/>
						<path class="st2" d="M475,349.2L475,349.2c-5.6,0-10.2,4.6-10.2,10.2v41.2h20.4v-41.2C485.2,353.8,480.6,349.2,475,349.2z"/>
						<path class="st2" d="M511.7,349.2c-5.6,0-10.2,4.6-10.2,10.2v41.2h20.4v-41.2C521.9,353.8,517.3,349.2,511.7,349.2z"/>
						<rect x="403.2" y="327.3" class="st2" width="7.6" height="7.6"/>
						<rect x="419.6" y="327.3" class="st2" width="7.6" height="7.6"/>
						<rect x="435.5" y="327.3" class="st2" width="7.6" height="7.6"/>
						<rect x="452" y="327.3" class="st2" width="7.6" height="7.6"/>
						<rect x="467.9" y="327.3" class="st2" width="7.6" height="7.6"/>
						<rect x="484.4" y="327.3" class="st2" width="7.6" height="7.6"/>
						<rect x="499.9" y="327.3" class="st2" width="7.6" height="7.6"/>
					</g>
				</g>
				<polygon class="st3" points="560.7,410.2 576.4,429 336.4,429 352.1,410.2 				"/>
			</g>
		</g>
	</g>
	<g>
		<g>
			<g>
				<polygon class="st7" points="292.2,194.2 305,137.3 307.9,119.9 342.3,119.9 345.1,139.3 360,194.2 				"/>
				<g>
					<path class="st8" d="M304.6,520.9c-3.8-0.2-7.5-0.4-11.3-0.6c0.4-1.7,0.7-3.4,1.1-5.1c-0.3-4-0.6-8-0.9-12.1
						c3.6,0,7.1,0,10.7,0c-0.2,4-0.3,8-0.5,12.1C304,517.1,304.3,519,304.6,520.9z"/>
					<g>
						<path class="st9" d="M288.1,536.2c0,0.6,0.1,1.2,0.2,1.7c1.8,7.4,5.3,8.2,10.2,5.5c4.1-2.3,5.3-2.9,6-5.3
							c-2.2-1.6-5.4-2.7-9-2.9C292.7,535.1,290.1,535.5,288.1,536.2z"/>
						<path class="st8" d="M288.7,533.7c0,0.6-0.4,1.3-0.2,1.9c1.8,7.4,5.3,8.2,10.2,5.5c4.1-2.3,4.8-3,5.4-5.5
							c-2.2-1.6-4.8-2.6-8.5-2.8C292.9,532.8,290.8,533,288.7,533.7z"/>
						<path class="st8" d="M304.6,532.9c0-4.9,0-11.9,0-11.9l-11.3-0.6c0,0-2.8,5.1-4.3,10.2c1.9-0.5,4-0.8,6.3-0.7
							C299.1,530,302.4,531.2,304.6,532.9z"/>
						<path class="st9" d="M304.6,532.9c-2.2-1.7-5.4-2.9-9.2-3.1c-2.3-0.1-4.5,0.2-6.3,0.7c-0.6,2-1,4-1,5.7c2.1-0.8,4.6-1.1,7.3-1
							c3.7,0.2,6.9,1.3,9,2.9c0.1-0.4,0.2-0.9,0.2-1.3C304.6,536,304.6,534.6,304.6,532.9z"/>
						<path class="st9" d="M290.9,525.5c0,0,6.1-2,13.7,1.1v-5.7c-1.3-0.5-3.3-1-5.7-1.1c-2.3-0.1-4.2,0.2-5.5,0.6
							C293,520.8,292.8,521.4,290.9,525.5z"/>
						<path class="st9" d="M294.3,533.1c0,0,1.2-9.1,2.2-11l3.6,0.1l-0.9,11.3L294.3,533.1z"/>
					</g>
				</g>
				<g>
					<path class="st8" d="M346,520.9c3.8-0.2,7.5-0.4,11.3-0.6c-0.4-1.7-0.7-3.4-1.1-5.1c0.3-4,0.6-8,0.9-12.1c-3.6,0-7.1,0-10.7,0
						c0.2,4,0.3,8,0.5,12.1C346.5,517.1,346.3,519,346,520.9z"/>
					<g>
						<path class="st9" d="M362.5,536.2c0,0.6-0.1,1.2-0.2,1.7c-1.8,7.4-5.3,8.2-10.2,5.5c-4.1-2.3-5.3-2.9-6-5.3
							c2.2-1.6,5.4-2.7,9-2.9C357.9,535.1,360.4,535.5,362.5,536.2z"/>
						<path class="st8" d="M361.8,533.7c0,0.6,0.4,1.3,0.2,1.9c-1.8,7.4-5.3,8.2-10.2,5.5c-4.1-2.3-4.8-3-5.4-5.5
							c2.2-1.6,4.8-2.6,8.5-2.8C357.7,532.8,359.8,533,361.8,533.7z"/>
						<path class="st8" d="M346,532.9c0-4.9,0-11.9,0-11.9l11.3-0.6c0,0,2.8,5.1,4.3,10.2c-1.9-0.5-4-0.8-6.3-0.7
							C351.4,530,348.1,531.2,346,532.9z"/>
						<path class="st9" d="M346,532.9c2.2-1.7,5.4-2.9,9.2-3.1c2.3-0.1,4.5,0.2,6.3,0.7c0.6,2,1,4,1,5.7c-2.1-0.8-4.6-1.1-7.3-1
							c-3.7,0.2-6.9,1.3-9,2.9c-0.1-0.4-0.2-0.9-0.2-1.3C346,536,346,534.6,346,532.9z"/>
						<path class="st9" d="M359.7,525.5c0,0-6.1-2-13.7,1.1v-5.7c1.3-0.5,3.3-1,5.7-1.1c2.3-0.1,4.2,0.2,5.5,0.6
							C357.5,520.8,357.8,521.4,359.7,525.5z"/>
						<path class="st9" d="M356.3,533.1c0,0-1.2-9.1-2.2-11l-3.6,0.1l0.9,11.3L356.3,533.1z"/>
					</g>
				</g>
				<g>
					<g>
						<path class="st10" d="M364.5,510.3c-0.1,0.8-4.4,1.1-13.1,1.7c-8.5,0.6-12.8,0.9-13,0.2c0,0,0,0-0.1,0
							c-0.1-34.5-0.2-69.1-0.3-103.6c6.4,2,12.9,4,19.4,6c2.4,31.9,4.7,63.7,7.1,95.6C364.5,510.2,364.5,510.3,364.5,510.3z"/>
					</g>
				</g>
				<g>
					<g>
						<path class="st10" d="M312.1,408.6c-0.1,34.5-0.2,69.1-0.3,103.6c0,0,0,0-0.1,0c-0.2,0.7-4.5,0.4-13-0.2
							c-8.6-0.6-13-0.9-13.1-1.7c0-0.1,0-0.1,0-0.2c2.3-31.9,4.7-63.7,7.1-95.6C299.2,412.5,305.6,410.6,312.1,408.6z"/>
					</g>
				</g>
				<path class="st10" d="M307.8,173c5.8,5.1,11.5,10.3,17.3,15.4c6.2-5.1,12.3-10.3,18.5-15.4c-4.7-1.3-11.1-2.5-18.9-2.4
					C317.9,170.8,312.1,171.9,307.8,173z"/>
				<path class="st11" d="M325.7,185.5c-2.3-2.4-8.2-7.8-16.7-8.6c-4.2-0.4-7.8,0.4-9.1,0.7c-3.5,0.8-6.2,2.1-11.3,4.7
					c-2.4,1.2-5.2,2.7-8.3,4.5c-0.5,0.6-1,1.2-1.4,1.8c-4.8,6.8-3.9,15.3-3,19.8c-0.7,7.8-1.5,15.6-2.2,23.5
					c5.4-0.6,10.7-1.2,16.1-1.9c12.1-1.6,24.2-3.2,36.4-4.9"/>
				<g>
					<path class="st8" d="M263.4,326.4c-0.3,1.5-0.7,3.7-1,6.3c-0.6,5.2-0.9,7.7-0.2,10.2c0.5,1.9,0.7,1,6.2,9.9
						c0.1,0.2,1.1,1.7,2.7,3.5c1.3,1.4,3.3,3.5,4.5,3c0.9-0.4,1-2,1-2c0.1-2-1.6-3-3.5-5.4c-0.7-0.9-3.4-4.3-3.8-8.6
						c-0.2-1.9-0.1-5.1,1.3-5.6c0.8-0.3,1.9,0.4,2.5,1.1c1.5,1.7,0.4,3.4,1.8,7.2c0.5,1.5,1,2.1,1.7,2.3c0.6,0.2,1.4,0,1.8-0.5
						c0.7-0.6,0.7-1.6,0.7-2.7c0-0.9-0.2-1.5-0.4-2.4c-0.4-1.7-0.6-3.1-0.7-3.6c-0.3-2.1,0.1-3.4,0.2-4.7c0.2-1.9,0.1-4.6-1.4-8.2
						H263.4z"/>
					<path class="st11" d="M281,186.1c-1.6,1.4-3.7,3.4-5.6,6.3c-3.1,5-3.7,9.8-3.9,11.8c-0.9,7.9-5.9,56.9-12.4,124.3
						c3.7,0.6,7.8,1.2,12.2,1.5c3.6,0.3,7,0.3,10.2,0.3c0.8-9.1,1.6-18.3,2.3-27.5c1.9-22.6,3.6-45,5.1-67.3
						C286.4,219.1,283.7,202.6,281,186.1z"/>
					<path class="st10" d="M288.2,247.8c-0.5-0.1-3.8,27.5-9.8,82.5c1.1,0,2.1,0,3.2,0C281.6,330.3,281.6,330.3,288.2,247.8z"/>
				</g>
				<path class="st8" d="M347.6,175.6c-7.2,3.2-14.4,6.5-21.6,9.7c-7.7-3.3-15.5-6.7-23.2-10c3.6-1.1,7.1-2.3,10.7-3.4
					c1.1-4.8,2.3-9.5,3.4-14.3c6.1,0,12.2,0,18.3,0c0.9,4.7,1.7,9.5,2.6,14.2C341,173,344.3,174.3,347.6,175.6z"/>
				<path class="st8" d="M343.7,136.6c0,1-0.2,3.9-0.5,9.9c-0.2,3.3-0.3,6-0.5,7.9c-1.2,2.9-3.8,8.1-9.1,11.4
					c-3.3,2.1-5.6,2.3-6.2,2.3c-3.1,0.2-5.5-0.9-7.1-1.9c-5.6-3.3-8.6-7.8-10-10.5c-0.3-1.4-0.7-3.4-1.1-5.8
					c-0.5-2.9-1.6-8.4-1.9-11c-0.6-4.9-1.9-14.5,4-21c4.7-5.1,11.2-5.7,12.6-5.8c1.4-0.1,8.1-0.4,13.4,4.1
					C344,121.8,343.8,131.5,343.7,136.6z"/>
				<path class="st12" d="M328.7,146.1c-0.3,0.2-1,0.9-2.1,1c-1.6,0.2-2.7-0.6-2.9-0.8c1,0,1.9-0.1,2.9-0.1
					C327.3,146.2,328,146.2,328.7,146.1z"/>
				<path class="st11" d="M306.3,173.9l-8.7,5c5.5,6.8,10.9,13.5,16.4,20.3c7.7,0.1,15.5,0.1,23.2,0.2c4.7-7.3,9.4-14.6,14.1-21.8
					c-2.3-1.1-4.5-2.3-6.8-3.4c-3.1,1.2-6.5,2.7-10.1,4.5c-3.2,1.7-6.1,3.4-8.7,5.1c-2.4-1.6-5-3.2-8-4.8
					C313.7,176.8,309.8,175.2,306.3,173.9z"/>
				<g>
					<g>
						<path class="st11" d="M322,138.3c-1.5-2.1-3.8-3.1-5.9-2.5c-2.1,0.6-3.1,2.6-3.3,3c0.8,0.4,2.4,1.1,4.3,1.1
							C319.5,139.8,321.2,138.8,322,138.3z"/>
						<g>
							<path class="st13" d="M315.6,138.2c0.1,1.1,1.1,1.8,2.2,1.6c1.1-0.1,1.8-1.1,1.6-2.2c-0.1-1.1-1.1-1.8-2.2-1.6
								C316.2,136.1,315.5,137.1,315.6,138.2z"/>
							<path d="M316.6,138.2c0.1,0.6,0.6,1,1.2,0.9c0.6-0.1,1-0.6,0.9-1.2c-0.1-0.6-0.6-1-1.2-0.9
								C316.9,137,316.5,137.6,316.6,138.2z"/>
							<path class="st11" d="M316.1,137.7c0,0.2,0.3,0.4,0.5,0.4c0.2,0,0.4-0.3,0.4-0.5c0-0.2-0.3-0.4-0.5-0.4
								S316,137.4,316.1,137.7z"/>
						</g>
						<path d="M322,138.2c-0.1-0.1-2.4-2.4-5.4-1.7c-2.1,0.5-3.3,2.1-3.5,2.4c-0.1,0-0.2,0-0.2-0.1c-0.1,0-0.1,0-0.1,0
							c0.8-2,2.7-3.3,4.8-3.4C319.3,135.5,321.1,136.5,322,138.2z"/>
					</g>
					<g>
						<path class="st11" d="M329.6,137.9c1.3-2.2,3.5-3.4,5.6-3c2.1,0.4,3.3,2.3,3.5,2.7c-0.8,0.5-2.2,1.3-4.2,1.5
							C332.2,139.1,330.4,138.3,329.6,137.9z"/>
						<g>
							<path class="st13" d="M335.9,137.1c0,1.1-0.9,1.9-2,1.8c-1.1,0-1.9-0.9-1.8-2c0-1.1,0.9-1.9,2-1.8
								C335.1,135.1,335.9,136,335.9,137.1z"/>
							<path d="M334.9,137.2c0,0.6-0.5,1-1.1,1c-0.6,0-1-0.5-1-1.1c0-0.6,0.5-1,1.1-1C334.5,136.1,335,136.6,334.9,137.2z"/>
							<path class="st11" d="M335.4,136.6c0,0.2-0.2,0.4-0.5,0.4c-0.2,0-0.4-0.2-0.4-0.5s0.2-0.4,0.5-0.4
								C335.2,136.2,335.4,136.4,335.4,136.6z"/>
						</g>
						<path d="M329.6,137.8c0.1-0.2,2.1-2.6,5.2-2.3c2.2,0.3,3.4,1.7,3.7,2.1c0.1,0,0.1-0.1,0.2-0.1c0,0,0.1,0,0.1-0.1
							c-1-1.9-3-3.1-5.1-2.9C331.9,134.8,330.3,136,329.6,137.8z"/>
					</g>
					<path d="M330.2,131.4c0.4,0.3,1.6,1.1,3.3,1.6c2.5,0.8,4.2,0.4,4.6,0.3c0.5-0.2,0.9-0.5,0.9-0.5c0.3-0.2,0.5-0.5,0.8-0.8
						c0.3-0.4,0.7-0.9,1.1-1.6c-0.1,0.1-0.2,0.1-0.3,0.2c0,0-0.6,0.3-1.3,0.5c-2.4,0.6-5.3-0.1-5.3-0.1c-1.9-0.5-3.4-1.3-4.3-2
						c-0.1,0-0.5,0.2-0.7,0.6c-0.1,0.2-0.2,0.4-0.2,0.5C329.1,130.5,329.6,131,330.2,131.4z"/>
				</g>
				<g>
					<path d="M319.7,132.1c-0.4,0.3-1.4,1.2-3.1,2c-2.4,1-4.2,0.9-4.5,0.8c-0.5-0.1-0.9-0.4-0.9-0.4c-0.4-0.2-0.6-0.4-0.9-0.7
						c-0.3-0.4-0.8-0.8-1.2-1.4c0.1,0,0.2,0.1,0.3,0.1c0,0,0.6,0.2,1.3,0.3c2.4,0.4,5.3-0.7,5.3-0.7c1.8-0.7,3.2-1.7,4.1-2.5
						c0.1,0,0.5,0.1,0.8,0.5c0.1,0.2,0.2,0.4,0.2,0.5C320.7,131.1,320.2,131.6,319.7,132.1z"/>
				</g>
				<path class="st11" d="M288.3,217c-5,96.4-9.9,176.7-14.9,273.1c10.6,2.9,19.2,3.7,24.8,3.9c23,0.9,27.9-6.3,47.7-3.2
					c3.5,0.5,7.7,1.4,13.4,1.7c1.7,0.1,3.1,0.1,4.3,0.1c0,0,1.2,0,2.4-0.1c4.2-0.2,10.7-1.2,11.2-1.3c-2.9-45.2-5.4-91.2-7.4-138.1
					c-2.4-56.5-4.1-111.8-5-166c-6.5-4-13-8.1-19.6-12.1c-0.9,1.4-6.8,10-17.9,11.6c-14,2-23.3-8.9-23.8-9.5
					c-4.6,2.3-9.2,4.7-13.8,7C289.2,195,288.7,206,288.3,217z"/>
				<path class="st11" d="M365.1,100.2c-4.1,2.9-8.3,5.8-12.4,8.7c7.1,13,14.3,26,21.4,39c-6.2,10.4-12.3,20.7-18.5,31.1
					c3.2,9.8,6.4,19.6,9.6,29.3c11.5-19.9,22.9-39.7,34.4-59.6C388,132.5,376.6,116.4,365.1,100.2z"/>
				
					<rect x="325.8" y="148.5" transform="matrix(0.9981 -6.185925e-02 6.185925e-02 0.9981 -8.6471 20.4809)" class="st14" width="1.3" height="2.8"/>
				<path class="st10" d="M351.3,177.5c-7.3,3.8-14.6,7.5-21.9,11.3v41.9l-3.7,3.4l0-52.1c3.3-2.2,7.3-4.5,11.9-6.6
					c2.1-0.9,4.1-1.7,6-2.4C346.2,174.5,348.7,176,351.3,177.5z"/>
				<path class="st10" d="M299.8,177.6l22.3,11.2v41.9l3.7,3.4l0-52.1c-3.3-2.2-7.3-4.5-11.9-6.6c-2.1-0.9-4.1-1.7-6-2.4
					C305.2,174.6,302.5,176.1,299.8,177.6z"/>
				<path d="M326.3,148.6c-4.9,0.3-8.1,2.7-9.3,3.6c-0.5,1-1,2.2-1.3,3.7c-0.6,3.1-0.2,5.6,0.2,7.1c3.7,4.6,7.7,6.7,11.6,6.5
					c3.9-0.2,7.7-2.8,10.7-7.8c0.1-2.3-0.1-5.2-1-8.3c-0.2-0.7-0.5-1.4-0.7-2C335.5,150.6,331.7,148.3,326.3,148.6z M325.2,156.9
					c-0.1,0.4-0.5,1.5-1.6,2.1c0,0-1.6,0.8-3.8-0.4c0,0,0,0,0,0c-0.5-0.3-0.6-0.9-0.6-1.2c-0.1-0.7,0.1-1.9,0.9-3.2
					c0.9-0.7,3.2-2.2,6.6-2.5c3.5-0.3,6,1,7,1.5c0.8,1.3,1.2,2.4,1.1,3.1c0,0.3-0.1,0.9-0.5,1.3c0,0,0,0,0,0
					c-2.1,1.4-3.8,0.8-3.8,0.8c-1.1-0.4-1.6-1.4-1.8-1.8C327.5,156.8,326.4,156.8,325.2,156.9z"/>
				<g>
					<path class="st15" d="M283.6,181c-0.1,0.3-0.1,0.6-0.1,0.9l0-0.6L283.6,181z"/>
				</g>
				<g>
					<path class="st15" d="M370.3,204.9c-0.2-0.3-0.5-0.8-1-1.3c0,0-0.2-0.2-0.5-0.4c-0.2-0.2-0.5-0.4-0.8-0.5
						c-3.2-1.6-8.3-0.8-8.3-0.8c-1.7,0.3-4.1,0.8-6.9,1.8c-1.4,0.5-2.9,1.1-4.4,1.9c0-0.6,0.1-1.3,0.1-1.9
						c0.2-7.4-0.3-13.5-0.8-17.8c-0.3-2.8-0.6-4.1-2.5-15.5c-1.7-10.3-2.6-15.4-2.6-15.6c-0.5-6.5-0.6-21.7-1.3-29.9
						c-0.1-0.8-0.2-2.1-1.1-2.9c-2-1.8-5.2,1.2-10.4,0.4c-3.2-0.5-3.2-1.8-6.3-1.9c-2.5-0.1-3.2,0.8-6.5,1c-4,0.3-5-0.7-6.3-0.2
						c-2.9,1-2.5,18.1-2.5,22.4c0.2,13-1.4,23-4.8,43.1c-1.1,6.7-2.3,12.3-3.2,16.4c-0.1,0.7-0.3,1.3-0.4,1.8
						c-0.3-0.1-4.1-1.4-6.9-2c-0.3-0.1-0.5-0.1-0.8-0.1c-1.8-0.3-3.2-0.1-4.2,0c-3.4,0.4-8.2,2-8.4,2c-0.7-9.6,0.7-17.2,1.9-22
						c1.8-7,4.6-12.5,6-15.3c1.6-3.3,3.2-5.9,4.5-7.9l10.4-24.3c2.9-12.1,2.4-19.3,9.2-24.6c1.1-0.9,2.3-1.6,3.6-2.1
						c3.1-1.6,6.1-2.1,7.3-2.3c2-0.3,6.5-0.9,11.3,1.3c0.3,0.1,0.6,0.3,0.9,0.5c0,0,0,0,0,0c1.1,0.4,2.1,1,3.1,1.7
						c7.9,5.2,7.3,13.6,12,28c6,18.3,14.4,27.9,19.2,42.4c0,0.1,0,0.1,0,0.1C373,192.1,372.3,199.7,370.3,204.9z"/>
					<path d="M343.2,114.3h-36.3c-1,0-1.9-0.8-1.9-1.9l0,0c0-1,0.8-1.9,1.9-1.9h36.3c1,0,1.9,0.8,1.9,1.9l0,0
						C345.1,113.4,344.2,114.3,343.2,114.3z"/>
					<path d="M344.7,118h-39.3c-1,0-1.9-0.8-1.9-1.9l0,0c0-1,0.8-1.9,1.9-1.9h39.3c1,0,1.9,0.8,1.9,1.9l0,0
						C346.5,117.2,345.7,118,344.7,118z"/>
				</g>
				<g>
					<path class="st12" d="M321.8,155.8c0.2,0.3,1.8-0.8,4.3-1.2c3.3-0.5,5.6,0.8,5.8,0.4c0.1-0.3-1.4-1.5-3.2-1.8
						c-2.1-0.5-3.8,0.2-4.6,0.6C322.7,154.5,321.6,155.5,321.8,155.8z"/>
				</g>
			</g>
		</g>
		<g>
			<g>
				<g>
					<g>
						<g>
							<path class="st16" d="M343.5,98.9l-11.6-1.1L332,98c-1.1,0.6-1.4,1.2-1.5,1.7c-0.2,0.8,0.3,1.4,0,2.5
								c-0.1,0.4-0.2,0.7-0.3,0.9c0,0.1-0.4,0.7-1,0.7c-0.7,0-1.1-0.9-1.2-0.9c-0.5-1.1,0.4-2.2,0.8-3.8c0.2-1,0.3-2.5-0.6-4.6
								c0.5-0.2,0.9-0.5,1.4-0.7l0.1,0.2l5.4-10.3c4-2.2,8-4.3,12-6.5c1.4,3.1,3.3,4.6,4.5,5.3c2.1,1.3,4.8,2,5.4,2.1
								c2.2,0.5,3.5,0.4,4.9,1.5c0.9,0.7,1.5,1.5,1.8,2.1L343.5,98.9z"/>
						</g>
						<g>
							<path class="st17" d="M330.6,98.9l-2.5-4.6l1.6-0.9l0,0l5.3-10.1L358,71c2.1-1.1,4.6-0.3,5.8,1.7l4.5,8.3
								c1.1,2.1,0.3,4.6-1.7,5.8l-22.9,12.4l0,0L332.2,98l0,0L330.6,98.9z M328.5,94.4l2.2,4.1l1.1-0.6l-0.1-0.3l11.8,1.1l22.8-12.3
								c1.9-1,2.6-3.4,1.6-5.3l-4.5-8.3c-1-1.9-3.4-2.6-5.3-1.6l-22.8,12.3l-5.6,10.5l-0.1-0.3L328.5,94.4z"/>
						</g>
					</g>
				</g>
			</g>
			<path class="st8" d="M363.9,103.3c-0.1,0.1-0.2,0.2-0.3,0.2c-2.1,1.8-4.3,3.7-6.4,5.5c-1.1-1.3-2.5-3-4.4-4.9
				c-0.2-0.2-0.4-0.4-0.6-0.6c-0.4-0.4-0.9-0.9-1.4-1.3c-0.8-0.7-1.9-1.6-3.2-2.7c-1.3-1.1-2.7-2.3-4.2-3.5
				c-4.9-5.1-5.9-7.1-5.8-7.6c0-0.1,0-0.4,0.3-0.6c0.1-0.1,0.3-0.1,0.6-0.1c0.7,0,1.1,0.7,1.3,0.8c1.4,1.3,3.7,3.3,3.9,3.5
				c-0.1-0.2-1.3-1.5-5-5.5c0,0-0.5-0.5-1.2-1.7c-0.5-0.9-0.7-1.4-0.6-1.8c0.1-0.3,0.3-0.6,0.5-0.8c1.5-0.9,8.5,7.4,9.4,8.4
				c-0.1-0.2-0.7-0.8-2.1-2.5c-1.4-1.6-3.1-3.3-4.9-5.6c-1.1-1.4-2-2.7-1.6-3.6c0.1-0.1,0.1-0.3,0.3-0.4c1-0.5,3.1,1.8,5.3,4
				c1.4,1.4,3.5,3.4,6.1,5.9c-4.3-4.9-7.3-8.5-7.5-9.2c-0.2-0.6,0.1-0.9,0.1-0.9c0.1-0.2,0.2-0.3,0.3-0.3c1.6-1,7.6,5.3,12.4,9.6
				c0.3,0.3,1.2,1,2.2,2.1c0.4,0.5,0.8,0.8,1.1,1.1c0.8-0.4,1.6-0.8,2.4-1.3c0.3,1.3,0.5,2.4,0.6,3.2c0.2,1.7,0.1,3,0.1,4.2
				c0,0.4,0,0.7,0,1c0,1.1,0.1,2,0.5,2.9c0.1,0.1,0.1,0.3,0.2,0.4C362.9,102.3,363.5,102.9,363.9,103.3z"/>
		</g>
		<g>
			<path class="st16" d="M332.8,121.5c2.8,3.9,3.9,7.4,2.6,8.9c-0.5,0.6-1.4,0.9-2,0.7c-1.2-0.5-1-3.4-0.8-6.8
				C332.6,123.1,332.7,122.1,332.8,121.5z"/>
			<g>
				<g>
					<path class="st11" d="M334.4,127.5C334.4,127.5,334.4,127.6,334.4,127.5C334.4,127.5,334.4,127.5,334.4,127.5
						c0,0.1,0,0.2,0,0.2c0,0.1,0,0.2,0,0.3c0,0.2,0,0.4,0,0.5c0,0.1,0,0.2,0,0.3c0,0,0,0.1,0,0.1c0,0.1,0-0.1,0,0
						c0,0.2-0.1,0.4-0.1,0.5c-0.1,0.2,0.1,0.5,0.3,0.5c0.2,0.1,0.5-0.1,0.5-0.3c0.2-0.8,0.2-1.6,0.1-2.5c0-0.2-0.3-0.4-0.5-0.3
						C334.5,127,334.4,127.3,334.4,127.5L334.4,127.5z"/>
				</g>
			</g>
			<g>
				<g>
					<path class="st11" d="M333.8,130.7c0.6,0,0.6-0.9,0-0.9C333.2,129.8,333.2,130.7,333.8,130.7L333.8,130.7z"/>
				</g>
			</g>
		</g>
		<g>
			<path class="st16" d="M337.8,143.9c2.8,3.9,3.9,7.4,2.6,8.9c-0.5,0.6-1.4,0.9-2,0.7c-1.2-0.5-1-3.4-0.8-6.8
				C337.6,145.5,337.7,144.5,337.8,143.9z"/>
			<g>
				<g>
					<path class="st11" d="M339.4,149.9C339.4,149.9,339.4,150,339.4,149.9C339.4,150,339.4,150,339.4,149.9c0,0.1,0,0.2,0,0.2
						c0,0.1,0,0.2,0,0.3c0,0.2,0,0.4,0,0.5c0,0.1,0,0.2,0,0.3c0,0,0,0.1,0,0.1c0,0.1,0-0.1,0,0c0,0.2-0.1,0.4-0.1,0.5
						c-0.1,0.2,0.1,0.5,0.3,0.5c0.2,0.1,0.5-0.1,0.5-0.3c0.2-0.8,0.2-1.6,0.1-2.5c0-0.2-0.3-0.4-0.5-0.3
						C339.5,149.5,339.4,149.7,339.4,149.9L339.4,149.9z"/>
				</g>
			</g>
			<g>
				<g>
					<path class="st11" d="M338.8,153.1c0.6,0,0.6-0.9,0-0.9C338.2,152.2,338.2,153.1,338.8,153.1L338.8,153.1z"/>
				</g>
			</g>
		</g>
		<g>
			<path class="st16" d="M333.4,169.1c2.8,3.9,3.9,7.4,2.6,8.9c-0.5,0.6-1.4,0.9-2,0.7c-1.2-0.5-1-3.4-0.8-6.8
				C333.2,170.7,333.3,169.7,333.4,169.1z"/>
			<g>
				<g>
					<path class="st11" d="M335,175.1C335,175.2,335,175.2,335,175.1C335,175.2,335,175.2,335,175.1c0,0.1,0,0.2,0,0.2
						c0,0.1,0,0.2,0,0.3c0,0.2,0,0.4,0,0.5c0,0.1,0,0.2,0,0.3c0,0,0,0.1,0,0.1c0,0.1,0-0.1,0,0c0,0.2-0.1,0.4-0.1,0.5
						c-0.1,0.2,0.1,0.5,0.3,0.5c0.2,0.1,0.5-0.1,0.5-0.3c0.2-0.8,0.2-1.6,0.1-2.5c0-0.2-0.3-0.4-0.5-0.3
						C335,174.7,334.9,174.9,335,175.1L335,175.1z"/>
				</g>
			</g>
			<g>
				<g>
					<path class="st11" d="M334.3,178.3c0.6,0,0.6-0.9,0-0.9C333.7,177.4,333.7,178.3,334.3,178.3L334.3,178.3z"/>
				</g>
			</g>
		</g>
		<g>
			<path class="st16" d="M316.4,147.5c-2.5,5.6-3.2,10.8-1.8,13.2c0.5,0.9,1.5,1.5,2.1,1.2c1.1-0.7,0.7-5.1,0.3-10.1
				C316.7,150,316.5,148.5,316.4,147.5z"/>
			<g>
				<g>
					<path class="st11" d="M314.3,156.3c-0.1,1.2,0,2.4,0.3,3.5c0.1,0.3,0.4,0.5,0.7,0.4c0.3-0.1,0.4-0.4,0.4-0.7
						c-0.2-1-0.3-2.1-0.3-3.2c0-0.3-0.3-0.6-0.5-0.5C314.5,155.7,314.3,156,314.3,156.3L314.3,156.3z"/>
				</g>
			</g>
			<g>
				<g>
					<path class="st11" d="M316.1,161.2c0.7,0,0.7-1.1,0-1.1C315.4,160.1,315.4,161.2,316.1,161.2L316.1,161.2z"/>
				</g>
			</g>
		</g>
		<g>
			<path class="st16" d="M319.3,118.2c-2.8,3.9-3.9,7.4-2.6,8.9c0.5,0.6,1.4,0.9,2,0.7c1.2-0.5,1-3.4,0.8-6.8
				C319.4,119.8,319.3,118.8,319.3,118.2z"/>
			<g>
				<g>
					<path class="st11" d="M316.8,124c-0.1,0.8-0.1,1.7,0.1,2.5c0.1,0.2,0.3,0.4,0.5,0.3c0.2-0.1,0.4-0.3,0.3-0.5
						c0-0.2-0.1-0.4-0.1-0.5c0-0.1,0,0.1,0,0c0,0,0-0.1,0-0.1c0-0.1,0-0.2,0-0.3c0-0.2,0-0.4,0-0.5c0-0.1,0-0.2,0-0.3
						c0,0,0-0.1,0-0.1c0-0.1,0-0.1,0,0c0,0,0-0.1,0-0.1c0-0.2-0.1-0.5-0.3-0.5C317.1,123.6,316.8,123.8,316.8,124L316.8,124z"/>
				</g>
			</g>
			<g>
				<g>
					<path class="st11" d="M318.3,127.4c0.6,0,0.6-0.9,0-0.9C317.7,126.5,317.7,127.4,318.3,127.4L318.3,127.4z"/>
				</g>
			</g>
		</g>
		<path class="st16" d="M303.2,115.5c0.7,1.2,2.8,1.1,3.3,1c3.1-0.1,4.5-2.6,6.3-2.3c1.3,0.2,1.1,1.8,2.4,2c1.7,0.2,2.7-2.3,5.2-2.4
			c2.4-0.1,3.4,2,6.4,1.9c1.6,0,1.7-0.6,2.8-0.5c2.7,0.3,2.8,3.7,5.3,4c1.3,0.1,2-0.7,3.6-0.3c0.3,0.1,1.1,0.2,1.8,0.9
			c2.6,2.2,2.3,6.6,2.4,6.6c0.1,0,0.8-6.8,1.3-6.8c0.3,0,0.2,1.7,1.3,2c1,0.2,2.6-0.5,3.4-1.7c1.5-2.6-0.6-7.6-3.6-8.6
			c-0.9-0.3-1.4-0.1-3.8-0.6c-1.3-0.3-2.3-0.6-3-0.8c-5-2.8-9.3-3.4-11.9-3.5c-5.9-0.2-5.2,2-15.5,3.4c-2.9,0.4-6.2,0.6-7.5,2.9
			C303.4,112.6,302.4,114.3,303.2,115.5z"/>
		<path class="st16" d="M312.8,117.9c0.5,0.4-1.6,2.2-1.7,5.1c-0.1,2.3,1.2,2.9,1.2,5.5c0,1.9-0.7,2.6-1.3,4.4
			c-1.8,5.7,1.2,11,0.5,11.3c-0.4,0.1-1.5-1.6-2.1-2.9c-0.4-0.8-2.1-4.6-1.6-10.4c0.3-2.8,0.7-2.4,1-5.4c0.2-2.7-0.1-4.1,1-5.6
			C310.8,118.4,312.5,117.5,312.8,117.9z"/>
		<path class="st11" d="M367.5,119.8c2.8-1.3,5.7-2.7,8.5-4.1l-11-15.4l-12.4,8.7c2.6,4.7,5.2,9.4,7.7,14.1
			C362.8,122,365.2,120.9,367.5,119.8z"/>
	</g>
</g>
</svg>
