<?xml version="1.0" encoding="utf-8"?>
<!-- Generator: Adobe Illustrator 26.0.1, SVG Export Plug-In . SVG Version: 6.00 Build 0)  -->
<svg version="1.1" id="Layer_1" xmlns="http://www.w3.org/2000/svg" xmlns:xlink="http://www.w3.org/1999/xlink" x="0px" y="0px"
	 viewBox="0 0 664 598" style="enable-background:new 0 0 664 598;" xml:space="preserve">
<style type="text/css">
	.st0{clip-path:url(#SVGID_00000005955625820937710070000013199446436595167163_);}
	.st1{clip-path:url(#SVGID_00000052805890009291120240000017852080229924477118_);}
	.st2{fill:#E5C49D;}
	.st3{fill:none;stroke:#FFFFFF;stroke-width:1.5925;stroke-miterlimit:10;}
	.st4{clip-path:url(#SVGID_00000153674211696224098450000004655149876473736371_);fill:#A5E0DC;}
	.st5{clip-path:url(#SVGID_00000153674211696224098450000004655149876473736371_);}
	.st6{fill:#81CCC6;}
	.st7{fill:none;stroke:#FFFFFF;stroke-width:1.5985;stroke-miterlimit:10;}
	.st8{fill:#BEF4EF;}
	.st9{fill:#A5E0DC;}
	.st10{fill:#00747D;}
	.st11{fill:#FFFFFF;}
	.st12{fill:#E5E5E5;}
	.st13{fill:#F4A671;}
	.st14{fill:#DD915E;}
	.st15{fill:#1E1A14;}
	.st16{fill:#96753B;}
	.st17{fill:#140408;}
	.st18{fill:#666666;}
	.st19{fill:#AF1919;}
	.st20{fill:#E09A61;}
	.st21{fill:#EFEFEF;}
	.st22{fill:#CC936D;}
	.st23{fill:#BA7D54;}
	.st24{fill:none;}
	.st25{fill:#C6C6C6;}
	.st26{fill:#AF7151;}
	.st27{fill:#513328;}
	.st28{fill:none;stroke:#000000;stroke-width:7.6148;stroke-linecap:round;stroke-linejoin:round;stroke-miterlimit:10;}
</style>
<g>
	<g>
		<defs>
			<path id="SVGID_1_" d="M37.3,444.7c33.1,26.8,128.1,96.7,268.9,105.8c163.4,10.6,279.1-67.6,311.1-90.8
				c8.4-26.4,38.9-132.7-12.6-231.5c-28.7-55.1-75.5-93.6-88.2-103.8c-28.2-22.8-54-36.6-69.6-44.1c-39.5-19-82.2-39.5-132.7-32.3
				c-51.1,7.3-84.8,39.4-108.4,61.9c-42.5,40.5-33.3,56.9-85.6,120.3c-43,52.2-58.8,52.8-74.9,86.4C23.6,362.1,29,410.4,37.3,444.7z
				"/>
		</defs>
		<clipPath id="SVGID_00000066492385797219252370000001855663262649018261_">
			<use xlink:href="#SVGID_1_"  style="overflow:visible;"/>
		</clipPath>
		<g style="clip-path:url(#SVGID_00000066492385797219252370000001855663262649018261_);">
			<g>
				<defs>
					<path id="SVGID_00000175318958385902431850000003114793679316180612_" d="M593.8,248.2c-11.3-20.1-24.5-37.8-38.1-52.8
						c-0.1,0.2-0.3,0.5-0.4,0.7c0.1-0.2,0.3-0.5,0.4-0.7c-2.5-2.8-50.1-42.9-50.1-42.9l0,0c-1.3-1-2.6-2.1-4-3.2
						c-38.1-31.9-66.9-89.7-172.6-80.9c-49.2,4.1-81.5,24.1-104.5,51c-6.9,8.1-13.1,16.9-18.6,26.2c-16.9,28.3-28.2,60.8-39.6,89.2
						c-15.2,37.5-69.4,43.4-89,86.9c-17.8,20.5-27.1,52.9-31.8,76.4c-3.4,16.9-4.3,29.2-4.3,29.2C36,545.5,142.2,636.1,251.7,668.8
						c24.5,7.3,49.2,11.8,72.8,13c11.2,0.6,22.1,0.4,32.6-0.5c2.1-0.2,4.3-0.4,6.5-0.7c1.5-0.2,3-0.3,4.5-0.5
						c1.3-0.2,2.5-0.3,3.8-0.5c0.7-0.1,1.4-0.2,2.1-0.3c0.7-0.1,1.3-0.2,2-0.3c35.5-5.5,75.2-17.8,111.7-36.9
						c0.2-0.1,0.4-0.2,0.5-0.3c58.8-30.8,109-79,118.5-143.4c1.3-9,12.9-36.4,16.6-75.9C630.7,345.3,609.2,282.9,593.8,248.2z
						 M512,202.1c0,0,0.1,0.1,0.1,0.1C512.1,202.1,512,202.1,512,202.1z"/>
				</defs>
				<clipPath id="SVGID_00000093856982214250515960000002159731284199765900_">
					<use xlink:href="#SVGID_00000175318958385902431850000003114793679316180612_"  style="overflow:visible;"/>
				</clipPath>
				<g style="clip-path:url(#SVGID_00000093856982214250515960000002159731284199765900_);">
					<path class="st2" d="M182,247.7c0,1.5-1,2.8-2.2,2.8s-2.2-1.3-2.2-2.8c0-1.5,1-2.8,2.2-2.8S182,246.1,182,247.7z"/>
					<path class="st2" d="M200.7,253c0,1.5-1,2.8-2.2,2.8c-1.2,0-2.2-1.3-2.2-2.8c0-1.5,1-2.8,2.2-2.8
						C199.7,250.2,200.7,251.4,200.7,253z"/>
					<path class="st2" d="M263.1,169.2c0,1.5-1,2.8-2.2,2.8c-1.2,0-2.2-1.3-2.2-2.8c0-1.5,1-2.8,2.2-2.8
						C262.1,166.4,263.1,167.7,263.1,169.2z"/>
					<path class="st2" d="M554.2,417.8c0,1.5-1,2.8-2.2,2.8c-1.2,0-2.2-1.3-2.2-2.8c0-1.5,1-2.8,2.2-2.8
						C553.2,415,554.2,416.2,554.2,417.8z"/>
					<path class="st2" d="M561.7,410.2c0,1.5-1,2.8-2.2,2.8s-2.2-1.3-2.2-2.8s1-2.8,2.2-2.8S561.7,408.6,561.7,410.2z"/>
					<ellipse class="st2" cx="192.6" cy="238.6" rx="3.6" ry="4.5"/>
					<path class="st2" d="M189,404.9c0,3.2-2.1,5.8-4.6,5.8c-2.6,0-4.6-2.6-4.6-5.8c0-3.2,2.1-5.8,4.6-5.8
						C187,399.1,189,401.7,189,404.9z"/>
					<path class="st2" d="M451.4,155.5c0,3.2-2.1,5.8-4.6,5.8c-2.6,0-4.6-2.6-4.6-5.8s2.1-5.8,4.6-5.8
						C449.3,149.6,451.4,152.2,451.4,155.5z"/>
					<ellipse class="st3" cx="219" cy="136.7" rx="14.8" ry="18.7"/>
					<ellipse class="st2" cx="48.4" cy="454" rx="30.3" ry="38.2"/>
				</g>
				<g style="clip-path:url(#SVGID_00000093856982214250515960000002159731284199765900_);">
					<g>
						<defs>
							<path id="SVGID_00000172430507381351141610000004449822810718107070_" d="M593.8,248.9c-11.3-20.2-24.6-37.9-38.3-53
								c-0.1,0.2-0.3,0.5-0.4,0.7c0.1-0.2,0.3-0.5,0.4-0.7c-2.5-2.8-50.3-43.1-50.3-43.1l0,0c-1.3-1-2.7-2.1-4-3.2
								c-38.2-32-67.2-90-173.2-81.2c-49.4,4.1-81.8,24.2-104.8,51.2c-7,8.1-13.1,17-18.7,26.3c-17,28.4-28.3,61.1-39.8,89.6
								c-15.2,37.6-69.7,43.6-89.3,87.2c-17.9,20.5-27.2,53.1-31.9,76.7c-3.4,16.9-4.3,29.3-4.3,29.3
								c-5.3,118.6,101.2,209.5,211.2,242.4c24.6,7.4,49.4,11.8,73.1,13c11.2,0.6,22.2,0.4,32.8-0.5c2.1-0.2,4.3-0.4,6.5-0.7
								c1.5-0.2,3-0.3,4.5-0.5c1.3-0.2,2.5-0.3,3.8-0.5c0.7-0.1,1.4-0.2,2.1-0.3c0.7-0.1,1.3-0.2,2-0.3c35.6-5.5,75.5-17.9,112.1-37
								c0.2-0.1,0.4-0.2,0.5-0.3c59-31,109.4-79.3,119-143.9c1.3-9,12.9-36.6,16.7-76.1C630.8,346.3,609.3,283.7,593.8,248.9z
								 M511.7,202.6c0,0,0.1,0.1,0.1,0.1C511.7,202.6,511.7,202.6,511.7,202.6z"/>
						</defs>
						<clipPath id="SVGID_00000154387289373343115020000000490404147432325770_">
							<use xlink:href="#SVGID_00000172430507381351141610000004449822810718107070_"  style="overflow:visible;"/>
						</clipPath>
						<path style="clip-path:url(#SVGID_00000154387289373343115020000000490404147432325770_);fill:#A5E0DC;" d="M593.8,248.9
							c-11.3-20.2-24.6-37.9-38.3-53c-2.5-2.8-50.3-43.1-50.3-43.1c-1.3-1-2.7-2.1-4-3.2c-38.2-32-67.2-90-173.2-81.2
							c-49.4,4.1-81.8,24.2-104.8,51.2c-7,8.1-13.1,17-18.7,26.3c-17,28.4-28.3,61.1-39.8,89.6c-15.2,37.6-69.7,43.6-89.3,87.2
							c-17.9,20.5-27.2,53.1-31.9,76.7c-3.4,16.9-4.3,29.3-4.3,29.3c-5.3,118.6,101.2,209.5,211.2,242.4c24.6,7.4,49.4,11.8,73.1,13
							c11.2,0.6,22.2,0.4,32.8-0.5c2.1-0.2,4.3-0.4,6.5-0.7c1.5-0.2,3-0.3,4.5-0.5c1.3-0.2,2.5-0.3,3.8-0.5c0.7-0.1,1.4-0.2,2.1-0.3
							c0.7-0.1,1.3-0.2,2-0.3c35.6-5.5,75.5-17.9,112.1-37c0.2-0.1,0.4-0.2,0.5-0.3c59-31,109.4-79.3,119-143.9
							c8.5-42.3,20.3-66.9,20.3-130.1C629.1,328.1,593.8,248.9,593.8,248.9z"/>
						<g style="clip-path:url(#SVGID_00000154387289373343115020000000490404147432325770_);">
							<path class="st6" d="M180.4,248.3c0,1.6-1,2.8-2.2,2.8s-2.2-1.3-2.2-2.8s1-2.8,2.2-2.8S180.4,246.8,180.4,248.3z"/>
							<path class="st6" d="M199.1,253.7c0,1.6-1,2.8-2.2,2.8c-1.2,0-2.2-1.3-2.2-2.8s1-2.8,2.2-2.8
								C198.1,250.8,199.1,252.1,199.1,253.7z"/>
							<path class="st6" d="M261.8,169.6c0,1.6-1,2.8-2.2,2.8c-1.2,0-2.2-1.3-2.2-2.8s1-2.8,2.2-2.8
								C260.8,166.8,261.8,168.1,261.8,169.6z"/>
							<path class="st6" d="M554,419.1c0,1.6-1,2.8-2.2,2.8c-1.2,0-2.2-1.3-2.2-2.8s1-2.8,2.2-2.8C553,416.3,554,417.5,554,419.1z"
								/>
							<path class="st6" d="M561.6,411.5c0,1.6-1,2.8-2.2,2.8c-1.2,0-2.2-1.3-2.2-2.8s1-2.8,2.2-2.8
								C560.6,408.7,561.6,409.9,561.6,411.5z"/>
							<ellipse class="st6" cx="191.1" cy="239.2" rx="3.6" ry="4.5"/>
							<path class="st6" d="M187.5,406.2c0,3.2-2.1,5.9-4.7,5.9c-2.6,0-4.7-2.6-4.7-5.9c0-3.2,2.1-5.9,4.7-5.9
								C185.4,400.3,187.5,402.9,187.5,406.2z"/>
							<path class="st6" d="M450.8,155.8c0,3.2-2.1,5.9-4.7,5.9c-2.6,0-4.7-2.6-4.7-5.9c0-3.2,2.1-5.9,4.7-5.9
								C448.7,149.9,450.8,152.6,450.8,155.8z"/>
							<ellipse class="st7" cx="217.6" cy="137" rx="14.9" ry="18.7"/>
							<ellipse class="st6" cx="46.4" cy="455.5" rx="30.4" ry="38.4"/>
						</g>
						<g style="clip-path:url(#SVGID_00000154387289373343115020000000490404147432325770_);">
							<g>
								<g>
									<rect x="263.1" y="209.7" class="st8" width="167" height="103.4"/>
									<path class="st6" d="M430,309.5v3.6H264c0.3-5.7,0.6-11.4,0.9-17.1c9.2-0.1,18.5-0.2,28-0.2c6.7,0,13.4,0,19.9,0.1
										c3-2.3,6-4.5,9-6.8c16.5,0,33,0,49.5,0c4.5,2.8,11.3,6.5,20.3,9.4c1.9,0.6,3.7,1.3,6.4,1.9c13.9,3.2,20.4,0.4,27.7,5.2
										C427.1,306.6,428.6,307.8,430,309.5z"/>
								</g>
								<g>
									<g>
										<path class="st6" d="M369.4,283v1.9h-44.8V283h1.4v-7.6h1.2v-7.2h0.9v-5.5h-0.6v-0.6h-0.2v-0.5h0.8c0,0-0.8-0.3-0.8-2h0.8
											l0.9-7.2l0.9,7.2h0.8c0,1.7-0.8,2-0.8,2h0.8v0.5h-0.2v0.6h-0.6v5.5h3v-5.2c0.9-0.9,1.8-1.3,2.6-1.4v-1.3h0.6v1.3
											c1.6,0.1,2.7,1.3,2.7,1.4c-3.8-6,1.2-9.5,3.8-10.2c1.9-0.5,3.4-1.8,4.1-2.4v-5c-1.1-0.4-1.9-1.4-1.9-2.6
											c0-1.1,0.7-2.1,1.7-2.5c-0.4,0.5-0.7,1.1-0.7,1.8c0,1.5,1.2,2.6,2.6,2.6c0.6,0,1.1-0.2,1.5-0.5c-0.5,0.8-1.4,1.4-2.4,1.4
											c-0.1,0-0.1,0-0.2,0v4.9c0.6,0.6,2.2,1.8,4.1,2.4c2.6,0.7,7.6,4.2,3.8,10.2c0.1-0.1,1.2-1.3,2.7-1.4v-1.3h0.6v1.3
											c0.8,0.1,1.7,0.5,2.6,1.4v5.2h3v-5.5h-0.6v-0.6h-0.2v-0.5h0.8c0,0-0.8-0.3-0.8-2h0.8l0.9-7.2l0.9,7.2h0.8
											c0,1.7-0.8,2-0.8,2h0.8v0.5h-0.2v0.6h-0.6v5.5h0.9v7.2h1.2v7.6H369.4z"/>
										<g>
											<path class="st9" d="M334.7,271.3c-1.3,0-2.3,1-2.3,2.3v9.2h4.5v-9.2C337,272.3,335.9,271.3,334.7,271.3z"/>
											<path class="st9" d="M343,271.3c-1.3,0-2.3,1-2.3,2.3v9.2h4.5v-9.2C345.2,272.3,344.2,271.3,343,271.3z"/>
											<path class="st9" d="M351.1,271.3L351.1,271.3c-1.3,0-2.3,1-2.3,2.3v9.2h4.5v-9.2C353.4,272.3,352.4,271.3,351.1,271.3z"
												/>
											<path class="st9" d="M359.3,271.3c-1.3,0-2.3,1-2.3,2.3v9.2h4.5v-9.2C361.6,272.3,360.5,271.3,359.3,271.3z"/>
											<rect x="335.1" y="266.4" class="st9" width="1.7" height="1.7"/>
											<rect x="338.8" y="266.4" class="st9" width="1.7" height="1.7"/>
											<rect x="342.3" y="266.4" class="st9" width="1.7" height="1.7"/>
											<rect x="346" y="266.4" class="st9" width="1.7" height="1.7"/>
											<rect x="349.5" y="266.4" class="st9" width="1.7" height="1.7"/>
											<rect x="353.2" y="266.4" class="st9" width="1.7" height="1.7"/>
											<rect x="356.7" y="266.4" class="st9" width="1.7" height="1.7"/>
										</g>
									</g>
									<rect x="323.8" y="284.9" class="st10" width="46.4" height="4.3"/>
								</g>
								<g>
									<g>
										<path class="st10" d="M291.6,282.3c0.4,1.8,0.8,3.9,0.9,6.3c0.2,2.5,0.1,4.8-0.1,6.7c-0.3,0.1-0.7,0.2-1.1,0.4
											c-0.7,0.4-1.2,1-1.4,1.3c0.4-0.2,0.9-0.4,1.6-0.4c0.5,0,0.4,0.1,0.9,0.2c0.9,0,1.5-0.3,2-0.1c0,0,0.2,0.1,0.4,0.1
											c0,0,0.4,0,0.4-0.1c0-0.1-0.7-0.2-1.6-0.8c-0.2-0.2-0.4-0.3-0.5-0.4c0.2-2,0.2-4.3,0.1-6.9c-0.2-2.5-0.5-4.7-0.9-6.6
											C292.2,282.1,291.9,282.2,291.6,282.3z"/>
										<path class="st6" d="M290.7,281.5c-0.6,0.2-1.5,0.5-2.3,1.2c-2.5,2.1-2.3,5.4-2.2,5.9c0.1-0.8,0.6-2.6,2.2-4.3
											c1.1-1.1,2.3-1.7,3-1.9c-0.1,0.8-0.1,1.8,0,2.8c0.3,2.4,1.1,4.2,1.7,5.4c-0.4-1.1-0.9-2.6-1-4.6c-0.1-1.5,0.1-2.8,0.3-3.8
											c0.5,0.1,1.1,0.3,1.6,0.5c2.2,1.1,3.1,3.3,3.4,4.1c0.2-0.6,0.3-1.4,0.1-2.4c-0.6-1.8-2.6-3.1-5-3.1c0.4-0.2,1-0.5,1.8-0.6
											c2.4-0.2,4,1.7,4.2,1.9c-0.1-0.1-1.5-2.7-4.1-2.8c-1.2,0-2.1,0.4-2.5,0.7c-0.4-0.3-1.2-0.6-2-0.5
											c-1.7,0.3-2.4,2.7-2.5,4.2c-0.1,1.8,0.8,3.1,1.2,3.6c-0.4-1-0.8-2.4-0.5-4.1c0.1-0.8,0.4-2.1,1.3-2.4
											C290,281.2,290.4,281.3,290.7,281.5z"/>
									</g>
									<g>
										<path class="st10" d="M297.1,270.7c0.7,3.2,1.4,7,1.7,11.3c0.3,4.5,0.2,8.6-0.2,12c-0.5,0.1-1.3,0.3-2,0.7
											c-1.3,0.7-2.1,1.7-2.4,2.3c0.7-0.3,1.7-0.7,2.9-0.7c0.8,0,0.8,0.2,1.7,0.3c1.7,0.1,2.6-0.5,3.6-0.2c0.1,0,0.4,0.1,0.8,0.1
											c0.1,0,0.8,0,0.8-0.2c0-0.2-1.3-0.4-2.8-1.4c-0.4-0.3-0.8-0.5-1-0.7c0.3-3.6,0.4-7.7,0.1-12.3c-0.3-4.5-0.9-8.5-1.6-11.9
											C298.2,270.2,297.7,270.4,297.1,270.7z"/>
										<path class="st6" d="M295.6,269.1c-1.2,0.3-2.7,0.9-4.1,2.1c-4.4,3.7-4.1,9.8-4,10.6c0.2-1.3,1-4.7,4-7.7
											c2-2,4.2-3,5.4-3.4c-0.1,1.4-0.2,3.1,0,5c0.5,4.3,1.9,7.6,3.1,9.8c-0.7-1.9-1.6-4.7-1.7-8.2c-0.1-2.7,0.2-5,0.5-6.8
											c0.9,0.2,1.9,0.5,2.9,1c4,2,5.6,6,6.1,7.3c0.3-1,0.6-2.6,0.1-4.2c-1-3.2-4.6-5.5-9-5.6c0.8-0.4,1.8-0.9,3.2-1.1
											c4.2-0.4,7.2,3.1,7.6,3.5c-0.1-0.3-2.6-4.9-7.4-5.1c-2.1-0.1-3.7,0.7-4.5,1.2c-0.8-0.5-2.1-1.1-3.6-0.8
											c-3,0.6-4.4,4.8-4.5,7.5c-0.1,3.2,1.5,5.5,2.2,6.4c-0.7-1.7-1.5-4.4-1-7.4c0.3-1.4,0.7-3.8,2.4-4.4
											C294.2,268.7,295.1,268.9,295.6,269.1z"/>
									</g>
								</g>
								<g>
									<g>
										<path class="st10" d="M400.7,291.2c0.4,1.8,0.8,3.9,0.9,6.3c0.2,2.5,0.1,4.8-0.1,6.7c-0.3,0.1-0.7,0.2-1.1,0.4
											c-0.7,0.4-1.2,1-1.4,1.3c0.4-0.2,0.9-0.4,1.6-0.4c0.5,0,0.4,0.1,0.9,0.2c0.9,0,1.5-0.3,2-0.1c0,0,0.2,0.1,0.4,0.1
											c0,0,0.4,0,0.4-0.1c0-0.1-0.7-0.2-1.6-0.8c-0.2-0.2-0.4-0.3-0.5-0.4c0.2-2,0.2-4.3,0.1-6.9c-0.2-2.5-0.5-4.7-0.9-6.6
											C401.3,291,401,291.1,400.7,291.2z"/>
										<path class="st6" d="M399.9,290.4c-0.6,0.2-1.5,0.5-2.3,1.2c-2.5,2.1-2.3,5.4-2.2,5.9c0.1-0.8,0.6-2.6,2.2-4.3
											c1.1-1.1,2.3-1.7,3-1.9c-0.1,0.8-0.1,1.8,0,2.8c0.3,2.4,1.1,4.2,1.7,5.4c-0.4-1.1-0.9-2.6-1-4.6c-0.1-1.5,0.1-2.8,0.3-3.8
											c0.5,0.1,1.1,0.3,1.6,0.5c2.2,1.1,3.1,3.3,3.4,4.1c0.2-0.6,0.3-1.4,0.1-2.4c-0.6-1.8-2.6-3.1-5-3.1c0.4-0.2,1-0.5,1.8-0.6
											c2.4-0.2,4,1.7,4.2,1.9c-0.1-0.1-1.5-2.7-4.1-2.8c-1.2,0-2.1,0.4-2.5,0.7c-0.4-0.3-1.2-0.6-2-0.5
											c-1.7,0.3-2.4,2.7-2.5,4.2c-0.1,1.8,0.8,3.1,1.2,3.6c-0.4-1-0.8-2.4-0.5-4.1c0.1-0.8,0.4-2.1,1.3-2.4
											C399.1,290.1,399.6,290.2,399.9,290.4z"/>
									</g>
									<g>
										<path class="st10" d="M406.2,279.6c0.7,3.2,1.4,7,1.7,11.3c0.3,4.5,0.2,8.6-0.2,12c-0.5,0.1-1.3,0.3-2,0.7
											c-1.3,0.7-2.1,1.7-2.4,2.3c0.7-0.3,1.7-0.7,2.9-0.7c0.8,0,0.8,0.2,1.7,0.3c1.7,0.1,2.6-0.5,3.6-0.2c0.1,0,0.4,0.1,0.8,0.1
											c0.1,0,0.8,0,0.8-0.2c0-0.2-1.3-0.4-2.8-1.4c-0.4-0.3-0.8-0.5-1-0.7c0.3-3.6,0.4-7.7,0.1-12.3c-0.3-4.5-0.9-8.5-1.6-11.9
											C407.3,279.1,406.8,279.3,406.2,279.6z"/>
										<path class="st6" d="M404.7,278c-1.2,0.3-2.7,0.9-4.1,2.1c-4.4,3.7-4.1,9.8-4,10.6c0.2-1.3,1-4.7,4-7.7c2-2,4.2-3,5.4-3.4
											c-0.1,1.4-0.2,3.1,0,5c0.5,4.3,1.9,7.6,3.1,9.8c-0.7-1.9-1.6-4.7-1.7-8.2c-0.1-2.7,0.2-5,0.5-6.8c0.9,0.2,1.9,0.5,2.9,1
											c4,2,5.6,6,6.1,7.3c0.3-1,0.6-2.6,0.1-4.2c-1-3.2-4.6-5.5-9-5.6c0.8-0.4,1.8-0.9,3.2-1.1c4.2-0.4,7.2,3.1,7.6,3.5
											c-0.1-0.3-2.6-4.9-7.4-5.1c-2.1-0.1-3.7,0.7-4.5,1.2c-0.8-0.5-2.1-1.1-3.6-0.8c-3,0.6-4.4,4.8-4.5,7.5
											c-0.1,3.2,1.5,5.5,2.2,6.4c-0.7-1.7-1.5-4.4-1-7.4c0.3-1.4,0.7-3.8,2.4-4.4C403.3,277.6,404.2,277.8,404.7,278z"/>
									</g>
								</g>
							</g>
							<g>
								<path class="st10" d="M432.6,315.7h-172V207.2h172V315.7z M265.6,310.6h161.9v-98.4H265.6V310.6z"/>
							</g>
						</g>
					</g>
				</g>
			</g>
			<g>
				<g>
					<g>
						<g>
							<g>
								<g>
									<g>
										<path class="st11" d="M443.6,520.4c-1.8,11.7-4.1,21.9-5.6,27.5c-3.3,12.9-7.1,23.5-10.1,31.2c-0.6,0.3-7.6,3.7-14.1,0
											c-3.8-2.2-5.4-5.6-5.9-6.9c4.4-15.9,6-29,6.7-38c0,0,3.3-42.6,8.3-63.7c0.5-2,1.7-6.7,5.7-10.1c1-0.9,4.6-3.9,7.3-3.4
											C444.4,458.5,447.9,492.5,443.6,520.4z"/>
										<path class="st12" d="M420.5,581.7c0.2-16.9,0.9-34.8,2.4-53.6c1.9-25,4.9-48.3,8.4-69.8c5.6-4.2,12.4-8.4,20.3-12.1
											c2.2-1,4.3-1.9,6.4-2.7c2.3-0.9,5.1-1.8,8.3-2.4c7.6-1.4,14.1-0.4,18.3,0.7c7.3,3.7,14.5,7.5,21.8,11.2
											c0.8,0.8,2.4,2.4,3.1,5c0.4,1.3,0.4,2.4,0.4,3.2c-2.1,42.6-4.2,85.2-6.3,127.8C475.8,586.6,448.1,584.1,420.5,581.7z"/>
									</g>
									<g>
										<g>
											<path class="st13" d="M480.6,428c-7.4-0.3-14.9-0.6-22.3-0.9c-0.2,6.5-0.5,12.9-0.7,19.4c1.8,0.8,6.6,2.6,12.7,1.5
												c5.1-0.9,8.6-3.5,10.1-4.8C480.5,438.1,480.5,433,480.6,428z"/>
											<path class="st14" d="M457.8,439.3c0.1-3.6,0.3-7.2,0.4-10.8c7.6-1.7,15.1-3.5,22.7-5.2c-0.2,3.6-0.3,7.2-0.5,10.8
												c-2.3,1.4-5.6,3.1-9.9,4.2C465.3,439.6,460.8,439.6,457.8,439.3z"/>
											<path class="st15" d="M483.5,332.7c-4.1-0.2-10.5-0.6-17.8,2.3c-17.6,7-25.4,27.5-26.2,42.2c-0.2,3.7,0.1,6.8,0.4,8.8
												c0,0.1,0,0.1,0.1,0.2c0.6,1.4,1.3,2.9,2,4.3c2.3,4.8,4.9,9,7.4,12.7c14.2-7.3,43.4,16.6,43.4,16.6c1.7-0.2,4.2-0.7,7-1.8
												c17.5-7.3,21.3-31.7,22.2-37.2c1.1-7.1,2.2-14.9-1.4-23.8c-3.6-8.8-9.8-13.7-12.1-15.6
												C498.6,333.7,488.1,333,483.5,332.7z"/>
											<path class="st13" d="M438.7,390.1c2.7-15.3,1.5-17,3.5-25.5c1-4.1,2.9-10,6.8-16.7c0-0.1,0-0.6,0.2-1.2
												c2.2-7.1,26.5-9.7,44.6-1.3c4.2,2,11.3,6,18,14.5c1.1,4.4,2.2,11.1,1.6,19.1c-1.4,18.1-10.5,30.2-14.9,35.9
												c-6,7.7-12.1,15.7-23.1,18.4c-6.5,1.6-12.3,0.9-15.9,0c-1.3-0.3-3.6-0.9-6.2-2.3c-8.2-4.3-11.8-11.8-13-14.4
												c-2.9-6.4-3-12-3.1-15.1C437.2,397.6,437.8,395.6,438.7,390.1z"/>
											<g>
												<path d="M472.2,384.4c6.3,0.3,12.8,2.4,17.4,6.7c-4.3-1.9-8.4-3.6-13-4.3c-1.5-0.2-3-0.4-4.5-0.5L472.2,384.4
													L472.2,384.4z"/>
											</g>
											<g>
												<path d="M455.5,383.4c-4.1-1.8-8.4-2.7-12.8-3.2c4.5-1,9.3-0.3,13.6,1.3C456.3,381.5,455.5,383.4,455.5,383.4
													L455.5,383.4z"/>
											</g>
											<path class="st15" d="M497.9,368.8c-1.3,2.2-2.8,5.6-3.4,9.9c-0.5,4.3,0.2,7.2,0.7,10.9c0.6,4,0.9,9.8-0.1,17.1
												c2.9-0.5,8.8-1.9,13.9-6.7c1.4-1.3,4-5,7.3-12.5c1.5-3.4,6.7-17.7,1-31.5c-8.1-19.7-34.1-29.1-52.2-23
												c-3.8,1.3-6.6,3-8.6,4.4c-19.5,14-17.3,43.8-16.9,48.5c0.3-2.8,0.8-6,1.9-9.6c1.7-5.5,4-9.9,6-13
												c0.5,0.3,1.4,0.9,2.6,1.6c5,2.9,20.3,10.5,38.4,6.8C490.7,371.3,494,370.5,497.9,368.8z"/>
											<g>
												<g>
													<path class="st14" d="M457.7,403.5c-0.3,1.6,0.9,3,2.3,3.1c1.2,0.1,2.4-0.8,2.6-2.1c-0.2,0.1-1.4,0.8-2.8,0.4
														C458.5,404.6,457.8,403.7,457.7,403.5z"/>
												</g>
											</g>
											<g>
												<path class="st13" d="M499.6,397.1c1.7-3.4,6.1-5.2,8.7-2.5c3.9,4.1,2.2,12.1-1.1,16.3c-2,2.5-6.1,5.3-8.4,2.9
													C495.9,410.9,496.4,403.5,499.6,397.1z"/>
											</g>
											<g>
												<path class="st14" d="M466.5,417.3c-0.3,0.8-5.7-0.2-10.2-2c-2.8-1.1-6.5-3.1-6.2-3.8c0.2-0.7,4.2,0,7.1,0.8
													C461.9,413.8,466.8,416.5,466.5,417.3z"/>
											</g>
										</g>
										<g>
											<g>
												<path class="st11" d="M471.5,392.9c0.4,0.9,1.2,2.3,2.7,3.3c2.6,1.7,6.3,1.4,9.3-0.6c-0.5-0.8-1.6-2.2-3.4-3.2
													c-1.1-0.6-2.5-1.5-4.5-1.4C473.5,391.1,472,392.4,471.5,392.9z"/>
												<path class="st16" d="M474.4,391.8c-0.6,1.1-0.7,2.3-0.2,3.2c0.4,0.6,1.1,1.2,1.7,1.4c0,0,0,0,0.1,0
													c0,0,0.8,0.3,1.8,0.2c0.9-0.1,2.7-0.9,3-2.5c0.2-0.9-0.1-1.6-0.2-1.7c-0.8-1.6-3.2-2.3-4.9-1.6
													C475.1,391.1,474.7,391.5,474.4,391.8z"/>
												<path class="st17" d="M475,392.8c-0.5,0.8-0.1,1.8-0.1,1.9c0.3,0.6,0.8,0.9,0.9,0.9c0,0,0,0,0,0c0,0,0.4,0.2,1,0.2
													c0.3,0,1.1-0.1,1.6-0.9c0.1-0.1,0.6-0.8,0.3-1.7c-0.3-1.1-1.7-1.5-2.7-1.2C476,392.1,475.4,392.2,475,392.8z"/>
												<path class="st11" d="M477.6,393c-0.1,0.2,0,0.4,0,0.4c0.1,0.1,0.2,0.2,0.2,0.2c0,0,0,0,0,0c0,0,0.1,0.1,0.2,0
													c0.1,0,0.3,0,0.4-0.2c0,0,0.1-0.2,0.1-0.4c-0.1-0.2-0.4-0.3-0.6-0.3C477.8,392.9,477.6,392.9,477.6,393z"/>
												<path class="st17" d="M471.5,392.9c0.3-0.4,2.4-2.9,5.6-2.8c4.5,0.1,6.9,5.3,6.6,5.5c-0.2,0.2-2.4-3.2-6.3-3.8
													C475.1,391.4,473.1,392.1,471.5,392.9z"/>
											</g>
										</g>
										<g>
											<g>
												<path class="st11" d="M443.1,387.2c0.4,0.9,1.1,2.3,2.6,3.3c2.5,1.6,5.9,1.3,8.8-0.7c-0.5-0.8-1.5-2.1-3.2-3.2
													c-1-0.6-2.4-1.5-4.2-1.3C445,385.4,443.6,386.7,443.1,387.2z"/>
												<path class="st16" d="M445.9,385.9c-0.7,1.1-0.7,2.5-0.2,3.4c0.3,0.6,1,1.2,1.6,1.4c0,0,0,0,0.1,0c0,0,0.8,0.3,1.7,0.2
													c0.9-0.1,2.4-0.9,2.8-2.4c0.1-0.2,0.3-1-0.1-1.8c-0.7-1.6-3-2.2-4.6-1.6C446.5,385.3,446.1,385.7,445.9,385.9z"/>
												<path class="st17" d="M446.4,387.1c-0.5,0.8-0.1,1.8-0.1,1.9c0.3,0.6,0.8,0.9,0.8,0.9c0,0,0,0,0,0c0,0,0.4,0.2,0.9,0.2
													c0.3,0,1.1-0.1,1.6-0.9c0.1-0.1,0.6-0.8,0.3-1.7c-0.3-1.1-1.6-1.5-2.6-1.2C447.3,386.3,446.8,386.5,446.4,387.1z"/>
												<path class="st11" d="M447.1,386.7c-0.1,0.2,0,0.4,0,0.4c0.1,0.1,0.2,0.2,0.2,0.2c0,0,0,0,0,0c0,0,0.1,0.1,0.2,0
													c0.1,0,0.2,0,0.4-0.2c0,0,0.1-0.2,0.1-0.4c-0.1-0.2-0.4-0.3-0.6-0.3C447.3,386.6,447.1,386.6,447.1,386.7z"/>
												<path class="st17" d="M443.1,387.2c0.3-0.4,2.3-2.9,5.3-2.9c4.3,0,6.5,5.2,6.2,5.4c-0.2,0.2-2.2-3.1-6-3.7
													C446.5,385.7,444.6,386.3,443.1,387.2z"/>
											</g>
										</g>
									</g>
								</g>
							</g>
						</g>
					</g>
					<path class="st11" d="M503.7,452.4c4.2,1.4,7.3,6.7,7.1,12.8c-1.9,36.2-3.8,72.4-5.7,108.5c-0.5,6.3-1,12.6-1.5,18.9
						c-7-2-14-3.9-21-5.9c2.4-21.7,2.2-39.4,1.6-51.8c-1.7-32.7,0.4-48.8,3.9-70.3C489.5,455.3,498,450.5,503.7,452.4z"/>
				</g>
				<path class="st18" d="M457.7,443.6c0.9,0.8,1.8,1.4,2.6,1.9c8.2,4.2,19.1-3.5,20.3-4.4c0.7,0.1,1.5,0.3,2.3,0.4
					c0.6,0.1,1.1,0.2,1.7,0.3c-0.8,0.7-14.4,11.5-25.3,6.2c-1.3-0.6-2.8-1.6-4.3-3.2C455.8,444.4,456.7,444,457.7,443.6z"/>
				<path class="st18" d="M461.9,449c-0.5,2.2-1,4.5-1.4,6.9c-1.3,7-2,13.5-2.3,19.6c1,0.2,1.9,0.3,2.9,0.5c0.7-6.5,1.7-13.2,2.9-20
					c0.4-2.5,0.9-5,1.4-7.4C464.2,448.7,463.1,448.8,461.9,449z"/>
				<path class="st11" d="M440.2,364.6c3.7,1.3,7.4,2.5,11.2,3.7c24.4,7.7,47.9,12.8,70,15.9c1.3-3.2,4.8-13,1.6-24.7
					c-3.2-11.7-11.2-18-14.7-20.8c-2.3-1.8-16.9-12.6-36.3-8.9c-2.8,0.5-22.6,4.3-29.5,20.9C440.2,356.2,440,361.3,440.2,364.6z"/>
			</g>
			<g>
				<path class="st19" d="M272,252.9c-0.4,7.2-0.5,18.2,0.7,31.5c3.3,34.1,12.9,48.4,16.6,76.2c1.7,12.6,2.5,31-2.1,54.3
					c-19.1-2.9-38.3-5.8-57.4-8.7c4.8-52,9.6-104,14.4-156C253.5,251,262.8,251.9,272,252.9z"/>
				<g>
					<path class="st20" d="M275.4,483.4c3.9-1.4,7.9-2.7,11.8-4.1c2.3,0.8,5.2,1.5,8.7,1.7c8.9,0.4,15.7-3.1,18.8-5
						c0.7-1.6,1.3-3.4,1.6-5.4c1.8-10.6-4-19.4-6.2-22.3c7.8-2.5,15.2-6.4,22.9-9.3c1.8-0.7,2.8-2.6,2.3-4.4c0,0,0,0,0-0.1
						c-0.5-2-2.5-3.2-4.5-2.7c-13.9,3.7-27.4,8.6-41.4,12.1c5.2-1.7,10.4-3.3,15.6-5c-0.6-0.3-1.4-0.6-2.4-0.8
						c-1.1-0.2-2.1-0.2-2.8-0.1c-2,0.1-4.9,0.5-8.1,1.8c-3.7,1.4-6.3,3.4-7.8,4.8c-1.3,1.5-2.7,3-4.1,4.8c-1.1,1.3-2,2.7-2.9,3.9
						c-1.1,1.4-3.2,3.4-6.2,5.1c-2.9,1.6-5.6,2.1-7.3,2.4C267.3,468.3,271.4,475.8,275.4,483.4z"/>
					<g>
						<g>
							<g>
								<path class="st21" d="M276.2,592.4c-8-4.4-64.7-36.9-80.2-92.2c-6.6-23.4-5.3-47.6-5.3-47.6c0.7-13.7,3.6-28.1,9.5-44.8
									c4.4-12.5,6.1-26.3,17.7-35c7.6-5.7,15.9-7.4,21.3-7.9c5.2,0.4,15.2,2.1,24,9.5c1,0.9,4,3.5,7,7.8c6.5,9.2,7.7,18.8,8.2,23
									c4.3,33.9-2,125.8-2,125.8C275.5,545.2,274.8,566.3,276.2,592.4z"/>
								<path class="st11" d="M256.2,611.4c-11.3,3-23.5,5.8-36.6,8c-36.9,6.2-70.2,6.3-97.7,4.1c-0.1-30.3-0.1-60.7-0.2-91
									c0-0.8,0-1.7-0.1-2.5c0-1.4-2-61.9-2.5-85.5c-0.3-14.5-0.4-34.8,0.4-59.6c0.2-4.6,1.8-9.1,4.8-12.6c1-1.2,2-2.4,2.7-3.2
									c0.8-0.9,1.1-1.3,2.2-2.7c2.8-3.4,7.9-5.4,12.2-6.7c15.7-4.6,30.7-10.4,46.4-15c4-1.1,7.9-2.3,11.9-3.4
									c3.6,3.6,7.9,7.6,13,11.5c6.2,4.7,12.1,8.4,17.4,11.1c2.4-0.5,7.5-2.1,11.8-8.5c1-1.5,1.9-3.1,2.5-4.6
									c1.9,2.3,3.8,4.6,5.7,6.9c0.5,0.6,0.9,1.1,1.4,1.7c4.7,5.8,9.2,11.5,13.6,17.1c-4.4,98.2-6.3,140.3-6.7,147
									c-0.1,1.2-0.2,3-0.3,5.8C256.2,564.7,256,592.5,256.2,611.4z"/>
								<g>
									<path class="st22" d="M250.3,357.7c-2.7,2.8-6.2,6.1-10.6,9.2c-3.5,2.5-6.9,4.4-9.9,5.9c-6.3-4.4-12.7-8.9-19.1-13.6
										c-6.1-4.4-12-8.8-17.8-13.2c1.8-0.3,3.6-0.6,5.4-0.9c1.6-8.6,3.1-17.3,4.7-25.9c0.9-5.2,1.9-10.4,2.8-15.6
										c6.8,2.2,14.2,4.4,22.2,6.2c6.6,1.5,12.9,2.8,18.8,3.7c-1.1,6.8-2.1,13.9-2.8,21.3c-0.1,1.3-0.4,3.3-0.6,6
										c-0.3,3.8-0.3,6.9-0.3,9.1C245.4,352.6,247.8,355.1,250.3,357.7z"/>
									<path class="st23" d="M245.7,319.8c-5.6-0.9-11.7-2-18-3.6c-7.9-1.9-15.3-4-22.2-6.2c-0.9,5.2-1.9,10.4-2.8,15.6
										c2.7,2.5,4.9,4.5,6.6,6c12.3,10.6,18.4,13.1,22.8,13.1c4.6,0,8.2-1.5,11.1-3.1L245.7,319.8z"/>
								</g>
								<g>
									<path class="st24" d="M240.4,355.6"/>
								</g>
								<path class="st21" d="M282.4,471.2c2.5,8.2,1.8,15.3,1.2,19c-13.3,7.3-29.1,14.8-47.5,21.1c-36,12.4-68.4,15.9-92.6,16.3
									c-7.6-19.9-15.4-46.1-19.6-77.4c-3.6-26.4-3.7-49.8-2.5-69.1c0.3-4.8,2.2-9.3,5.5-12.8c0.3-0.3,0.7-0.7,1-1
									c0,0,0.1-0.1,0.1-0.1c5.9-5.7,14.7-7.4,22.4-4.6c2.7,1,5.6,2.3,8.6,4.2c7.2,4.6,11.5,10.2,13.6,13.5
									c0.8,10.4,1.7,20.9,2.7,31.4c2.1,22.8,4.5,45.2,7.2,67c11-1.6,23.1-3.9,35.9-7.3c20.2-5.3,37.6-12.1,52.1-18.8
									C273.4,455.1,279.4,461.2,282.4,471.2z"/>
								<path class="st25" d="M224.9,457.4c-1.5-2.2-3.1-4.4-4.7-6.6c1-9.8,1.9-19.8,2.7-30.2c1.2-16,2.1-31.3,2.7-45.9
									c-12.6-10-25.2-20-37.8-29.9c1.8-0.7,3.7-1.3,5.7-1.9c2.2-0.6,4.2-1.2,6.2-1.6c3.6,3.6,7.9,7.6,13,11.5
									c6.2,4.7,12.1,8.4,17.4,11.1c-0.3,17.4-1.1,35.8-2.3,55.3C227.1,432.4,226.1,445.1,224.9,457.4z"/>
								<path class="st25" d="M235.5,373.8c-0.6,13.5-1.5,27.7-2.7,42.4c-1,12.3-2.1,24.2-3.4,35.6c-1.5,1.9-3,3.7-4.6,5.6
									c1.8-31.2,3.6-62.3,5.3-93.5c2.4-0.5,7.5-2.1,11.8-8.5c1-1.5,1.9-3.1,2.5-4.6c1.9,2.3,3.8,4.6,5.7,6.9
									c-1.6,2.4-3.5,5-5.7,7.5C241.3,369,238.2,371.8,235.5,373.8z"/>
							</g>
						</g>
					</g>
				</g>
				<path class="st22" d="M264.1,288.4c-3.1,13.2-1.6,14.1-4.2,23.1c-1.4,5.1-4.1,12.4-9.4,20.9c-1.3,1.1-6.5,5.6-12.7,7.1
					c-1.3,0.3-3.6,0.9-6.7,0.4c-1.1-0.1-2.2-0.4-3.7-0.9c-9-3.4-16.9-10.8-16.9-10.8c-3.2-3.3-7.1-7.3-9.5-12.7
					c-3-6.6-2.7-12.7,5.3-41.9c6.8-25.1,9.2-30.3,14.6-32.8c2.7-1.2,6.8-2,15.1-3.5c6.9-1.2,9.2-1.2,11.4-0.8c5.2,1,8.7,3.6,11,5.4
					c2.5,1.9,6.4,4.8,8.8,9.9c1.4,3,2.3,6.8,1.5,15.2C268,275.5,266.4,278.5,264.1,288.4z"/>
				<g>
					<g>
						<path class="st26" d="M245.5,314c-0.1,1-4.1,1.8-7.7,1c-3.9-0.9-7.4-3.6-7-4.6c0.2-0.6,1.8-0.4,4.2-0.3c3.5,0.2,6,1.2,6.9,1.6
							C243.8,312.7,245.6,313.4,245.5,314z"/>
					</g>
					<path class="st26" d="M244.5,299.1c-0.5,0.3-1.8,1.2-3.4,1.1c-2.2-0.2-3.4-2.2-3.6-2.6c1.4,0.3,2.7,0.6,4.1,0.9
						C242.5,298.7,243.5,298.9,244.5,299.1z"/>
					<g>
						<path class="st11" d="M234.4,283.8c-1.7-4.5-5.4-7.3-9.4-7.2c-4,0.1-6.7,3.2-7.3,3.8c1.3,1.2,3.7,3.1,7.3,3.9
							C229.3,285.5,232.8,284.4,234.4,283.8z"/>
						<g>
							<path class="st27" d="M223,280.6c-0.2,2,1.2,3.8,3.2,4c2,0.2,3.8-1.2,4-3.2c0.2-2-1.2-3.8-3.2-4
								C225.1,277.2,223.3,278.6,223,280.6z"/>
							<path d="M224.7,281.6c-0.1,1.1,0.7,2.1,1.8,2.2c1.1,0.1,2.1-0.7,2.2-1.8c0.1-1.1-0.7-2.1-1.8-2.2
								C225.8,279.8,224.8,280.5,224.7,281.6z"/>
							<path class="st11" d="M224.4,280.4c-0.1,0.4,0.3,0.8,0.7,0.9s0.8-0.3,0.9-0.7c0.1-0.4-0.3-0.8-0.7-0.9S224.4,280,224.4,280.4
								z"/>
						</g>
						<path d="M234.5,283.7c-0.2-0.3-3.2-5.4-9-5.7c-4.1-0.2-6.8,2.2-7.5,2.8c-0.1-0.1-0.3-0.1-0.4-0.2c-0.1-0.1-0.2-0.1-0.2-0.2
							c2.3-3.3,6.4-4.8,10.2-3.8C231,277.5,233.6,280.2,234.5,283.7z"/>
					</g>
					<g>
						<path class="st11" d="M248.2,286.6c3.1-3.3,6.8-4.2,9.5-2.5c2.7,1.8,3.1,5.7,3.2,6.5c-1.3,0.5-3.8,1.2-6.6,0.4
							C250.9,290.2,249,287.8,248.2,286.6z"/>
						<g>
							<path class="st27" d="M258,288.8c-0.7,1.9-2.6,2.8-4.2,2.1c-1.6-0.7-2.4-2.8-1.7-4.6c0.7-1.9,2.6-2.8,4.2-2.1
								C258,284.9,258.7,287,258,288.8z"/>
							<path d="M257,289.2c-0.4,1-1.5,1.5-2.5,1.1c-1-0.4-1.5-1.6-1.1-2.6c0.4-1,1.5-1.5,2.5-1.1C256.9,287,257.4,288.2,257,289.2z"
								/>
							<path class="st11" d="M254.6,287.4c-0.2,0.4-0.6,0.6-1,0.5c-0.4-0.2-0.5-0.6-0.4-1s0.6-0.6,1-0.5
								C254.6,286.5,254.8,287,254.6,287.4z"/>
						</g>
						<path d="M248.3,286.5c0.3-0.2,4.5-3.5,8.5-1.3c2.8,1.6,3.6,4.8,3.8,5.6c0.1,0,0.2,0,0.4,0c0.1,0,0.2,0,0.2,0
							c-0.1-3.9-2.2-6.9-5.1-7.6C253.3,282.4,250.3,283.7,248.3,286.5z"/>
					</g>
					<path d="M235,271.8c-0.8-0.6-3.2-2.2-6.9-3.4c-5.2-1.6-8.8-0.9-9.6-0.7c-1.1,0.4-1.9,1-1.9,1c-0.7,0.5-1.1,1-1.6,1.7
						c-0.6,0.8-1.4,1.9-2.2,3.2c0.2-0.1,0.4-0.2,0.7-0.3c0,0,1.2-0.6,2.6-1c4.9-1.3,11,0.2,11,0.2c3.9,1,7,2.7,9,4.2
						c0.3-0.1,1.1-0.4,1.5-1.3c0.3-0.4,0.3-0.8,0.4-1.1C237.3,273.7,236.3,272.7,235,271.8z"/>
					<g>
						<path d="M264.6,284c-0.1-0.1-0.2-0.2-0.2-0.3c-2.5-3.2-7.1-4.6-7.2-4.6c-3-0.8-5.8-0.7-7.8-0.3c-0.1-0.2-0.5-0.8-0.4-1.8
							c0-0.5,0.2-0.9,0.3-1.1c0.8-0.3,1.9-0.7,3.2-1c0.8-0.2,3.2-0.6,6.1,0.1c4.1,0.9,6.1,3,6.5,3.6c0.4,0.6,0.6,1.2,0.7,1.5
							C265.3,281.4,264.9,282.8,264.6,284z"/>
					</g>
					<path d="M239.5,302.9c-5.2-1-12.2-2.3-17.9,1.8c-2.9,2.1-4.5,6.2-7.8,14.1c-1.6,3.7-2.7,6.9-3.4,9.1c1,1.1,4.8,5.1,7.3,6.9
						c0.4,0.3,2.6,1.8,4.9,3c3.2,1.6,6.9,2.8,9.3,3.2c8.9,1.3,17.5-7.4,18.6-8.5c0.6-1.2,2.9-6.3,4-10.7c0.5-2,0.6-3.4,0.7-4.2
						c0.1-1.5,0-2.7-0.1-3.6c0,0-0.2-1.1-0.6-2.3C253.8,309.7,248.9,304.6,239.5,302.9z M234.8,316.7c-0.3,0.4-1.5,2.4-3.9,2.9
						c-2.7,0.6-5.3-0.9-6.7-2.3c0,0,0,0,0,0c-2.2-2.3-1.3-7.5,1.3-9.1c0.8-0.5,1.6-0.6,3.2-0.5c4.3,0,6.8,0,10.7,0.9
						c3.6,0.8,5.5,1.7,8.6,3.2c0.9,0.4,1.5,0.8,2,1.5c1.9,2.6,0.1,7.7-2.2,8.7c0,0,0,0,0,0c-1.2,0.5-2.9,0.2-4.1-0.5
						c-1.9-1.2-2-3.4-2-3.6C239.3,317.5,237,317.1,234.8,316.7z"/>
				</g>
				<path class="st19" d="M270,265.9c-5.2-3.2-8.1-3.2-9.8-2.6c-0.8,0.3-3.6,1.5-6.5,0.5c0,0,0,0,0,0c-1.1-0.8-2.9-1.8-5.3-2.4
					c-0.6-0.2-1.9-0.5-3.4-0.5c-5-0.1-6.4,3.1-10.5,2.7c-2.1-0.2-1.8-1.1-5-1.7c-2-0.4-4.8-0.9-7.3,0.4c-2.1,1.2-3.1,3.3-3.8,5.6
					c-0.6,2.2-1.2,5.2-1.6,9.2c-1.2,8.9-1.9,18.3-2.2,22.1c-1.8,24.1-6.5,42.4-15.9,79c-3.1,12.3-6.1,22.5-8.5,29.9
					c-0.4,1.2-0.7,2.3-1.1,3.3c-0.5-0.2-7-3.4-11.9-4.9c-0.5-0.1-0.9-0.3-1.3-0.4c-3.2-0.8-5.7-0.7-7.4-0.7
					c-5,0.1-11.9,1.9-14.9,2.4c-4.1,0.6-10,0.5-17.7-3c2.3-16.9,6.7-29.5,10.3-37.9c3.9-9.1,7-13.3,12.4-25
					c1.3-2.8,6.8-15.1,11.7-30.7c9.7-31,7.1-43.8,19.5-66c2.4-4.3,4.6-7.6,5.9-9.5c3.4-3.4,9.5-8.6,18.4-11.7
					c13.9-4.8,25.7-1.4,29.7-0.2c4.2,1.3,11.4,3.5,18,10c2.9,2.8,9.2,9,10.2,18.8C272.6,258.6,271.1,263.2,270,265.9z"/>
				<g>
					<path class="st28" d="M270.9,254.8c-11.7-3.2-26.4-6.1-43.3-7.3c-8.9-0.6-23.2-1.2-42.1,1"/>
					<path class="st28" d="M179.9,241.5c20.4-2.3,36.3-1.8,46.8-1.1c19.9,1.3,37,4.7,50.7,8.4"/>
				</g>
			</g>
		</g>
	</g>
</g>
</svg>
