<?xml version="1.0" encoding="utf-8"?>
<!-- Generator: Adobe Illustrator 26.0.1, SVG Export Plug-In . SVG Version: 6.00 Build 0)  -->
<svg version="1.1" id="Layer_1" xmlns="http://www.w3.org/2000/svg" xmlns:xlink="http://www.w3.org/1999/xlink" x="0px" y="0px"
	 viewBox="0 0 826 742" style="enable-background:new 0 0 826 742;" xml:space="preserve">
<style type="text/css">
	.st0{fill:#A5E0DC;}
	.st1{fill:#81CCC6;}
	.st2{fill:#00747D;}
	.st3{fill:#A3A3A3;}
	.st4{fill:#FFFFFF;}
	.st5{fill:#5F7BB7;}
	.st6{fill:#890804;}
	.st7{fill:#C6C6C6;}
	.st8{fill:#CC936D;}
	.st9{fill:#AF7151;}
	.st10{fill:#513328;}
	.st11{fill:#C48C66;}
	.st12{fill:#AF1919;}
	.st13{fill:#999999;}
	.st14{fill:none;}
	.st15{fill:#38393A;}
	.st16{fill:#262728;}
	.st17{fill:#828282;}
	.st18{fill:#EF6A0F;}
	.st19{opacity:0.23;fill:#262728;}
	.st20{fill:#4F5051;}
	.st21{fill:#393A3B;}
	.st22{fill:#65657C;}
	.st23{fill:#272829;}
	.st24{fill:#4D4D62;}
	.st25{fill:#19191A;}
	.st26{fill:#242463;}
	.st27{fill:#37374A;}
	.st28{fill:#F4EAC1;}
	.st29{fill:#1C1C65;}
	.st30{fill:#EBDA9B;}
	.st31{fill:#CFBCA9;}
	.st32{fill:#BFA892;}
	.st33{fill:#35357D;}
	.st34{fill:#C7B29E;}
	.st35{fill:#2F3031;}
	.st36{fill:#BA7D54;}
	.st37{opacity:0.35;fill:#7F7F7D;}
	.st38{opacity:0.25;fill:url(#SVGID_1_);}
	.st39{fill:#4C6580;}
</style>
<g>
	<g>
		<g>
			<path class="st0" d="M758.5,463.5c-1.9,12.8-8.1,32.8-22.9,50.4c-2.5,3-5.2,5.9-8.1,8.7c-10.5,10.2-22.8,18.5-35.8,24.4
				c-0.1,0.3-0.3,0.5-0.4,0.8c-3.3,6.8-6.8,13.5-10.6,20c-5.8,10.1-12.3,19.8-19.2,28.9c-54.1,71.6-139.7,114.9-231.2,113.8
				c-86.7-1-167.3-41.8-220.1-108.3c-13.2-16.6-24.7-34.9-34.1-54.5c-0.1-0.3-0.3-0.5-0.4-0.8c-0.3-0.1-0.7-0.2-1.1-0.4
				c-2.3-0.8-5-1.8-7.9-3.1c-5.7-2.5-12.4-6.1-19.3-11c-8.6-6.1-16.2-13.6-22.6-22.8c-38.9-49-40.7-90.8-40.1-107.8
				c2.5-70.7,50.3-141.1,102.1-155.6c3.3-0.9,13.8-3.6,53-14.1c30.9-8.3,46.5-12.6,54.3-23.9c8.5-12.4,5.2-25.4,4.8-39.4
				c-1.1-49.1,37.1-97.7,76.1-124.1c2.2-1.5,49.7-32.6,97.4-17.4c47.8,15.3,42.3,59.9,99.7,92.4c10.7,6,19.9,9.6,28.2,11.7
				c26.2,6.8,36.5,3,52.1,8.4c27.9,9.6,40.7,40.7,41.8,43.5c16.6,42-26.3,63.2-24.8,113.1C671.7,370.7,768.3,397,758.5,463.5z"/>
			<g>
				<path class="st1" d="M727.5,522.5c-10.5,10.2-22.8,18.5-35.8,24.4c-0.1,0.3-0.3,0.5-0.4,0.8c-3.3,6.8-6.8,13.5-10.6,20
					c-5.8,10.1-12.3,19.8-19.2,28.9c-20.9,3.5-42.7,3.7-63.9,3.8c-129.1,0.6-258.3,1.1-387.4,1.7c-13.2-16.6-24.7-34.9-34.1-54.5
					c-0.1-0.3-0.3-0.5-0.4-0.8c-0.3-0.1-0.7-0.2-1.1-0.4c-2.3-0.8-5-1.8-7.9-3.1c1.9-4.4,5-8.3,9-10.9c8.5-5.7,20.4-5.6,28.8,0.1
					c-1.5-7.9,4.2-16.4,12-18c7.8-1.7,16.5,3.8,18.3,11.6c5.8-14,21.2-23.4,36.4-22.2c15.1,1.2,28.8,13,32.3,27.8
					c-2.2-16.8,12.1-33.7,29-34.8c16.9-1.1,33.1,13.3,34.6,30.2c4.9-12.4,16.5-22,29.6-24.6c13.1-2.5,27.4,2.1,36.6,11.8
					c3.2-14.1,15.3-25.8,29.6-28.4c14.2-2.6,29.8,4,37.8,16c5.2-15.4,21.3-26.3,37.5-25.6c16.2,0.7,31.2,13.1,35,28.9
					c9.1-11.5,24.7-17.5,39.2-15.1c14.5,2.4,27.3,13.1,32.2,26.9c6.7-9.5,18.4-15.2,30-14.8c11.6,0.4,22.8,7,28.8,17
					C711,515,720.9,516.9,727.5,522.5z"/>
			</g>
			<g>
				<path class="st2" d="M691.3,547.8c-3.3,6.8-6.8,13.5-10.6,20c-51.4,88.8-147.2,144-250.4,142.8
					c-108.4-1.3-207.2-64.6-254.2-162.8H691.3z"/>
			</g>
			<g>
				<g>
					<path class="st3" d="M187.4,537.3c0.2,0.4,0.4,0.7,0.6,1.1c-0.1,0-0.2,0-0.3,0L187.4,537.3z"/>
				</g>
				<g>
					<g>
						<path class="st4" d="M273.4,420.5c0.9-9.4-11.2-13.9-19-26.6c-3.9-6.3-7.8-16.3-6.7-31.9c-10.3-14.9-9.4-36.6,2.1-50.6
							c11.4-14,32.5-19.3,49.1-12.2c-1.6-23.2-1.3-50.5,17.2-64.6c6.5-5,14.6-7.6,21.4-12.2c11.5-8,18.1-21.3,28.2-31.1
							c12.7-12.3,31.1-18.5,48.6-16.3s33.9,12.6,43.2,27.6c37.7-8.1,53.4-1.9,60.3,6.5c5.9,7.1,3.1,13,10,20.3
							c13.3,14.2,32.3,1.6,50.4,12.7c18.2,11.3,25.2,40.4,21.3,61.3c-3.9,21.2-17.2,24.5-15.1,40.6c2.1,16.4,16.6,16.9,22.8,38.7
							c0.8,2.9,7.1,25.8-4.4,38.4c-6.7,7.3-12.7,3.9-20.8,11.6c-10.7,10-6.5,21.7-13.1,32.5c-10.2,16.7-37.6,16.6-54.4,17.8
							c-31.8,2.3-61.9-14.8-93.7-18c-16.1-1.6-32.4,0.3-48.5-0.1c-12.7-0.3-38.7-7-90.2-19.7c-4.1-1-14.4-3.7-15.7-9.7
							C265.3,430.2,272.7,427.7,273.4,420.5z"/>
					</g>
					<g>
						<rect x="284.8" y="424.9" class="st5" width="291.8" height="88.6"/>
						<path class="st5" d="M284.8,337.4v88.6h48.6v-88.6H284.8z M291.4,342.3h35.5v78.9h-35.5V342.3z"/>
						<path class="st5" d="M333.5,337.4v88.6h48.6v-88.6H333.5z M340,342.3h35.5v78.9H340V342.3z"/>
						<path class="st5" d="M430,389.6c-0.2,0-0.5,0-0.7,0c-0.3,0-0.5,0-0.7,0c-1.6-0.1-3.1-0.4-4.4-0.6v13.9
							c0.4,0.1,0.8,0.3,1.3,0.4c0.4,0.1,0.8,0.2,1.2,0.3c0.3,0.1,0.6,0.1,0.9,0.2c0.3,0,0.5,0.1,0.8,0.1c0.5,0.1,1.1,0.1,1.6,0.1
							c0.3,0,0.6,0,0.8,0v-14.3C430.5,389.6,430.3,389.6,430,389.6z M424.2,408.7v12.6h-14.7c0,0,0,0.1,0,0.1
							c0.1,0.3,0.2,0.7,0.3,1.1c0.1,0.4,0.2,0.7,0.3,1.1c0.1,0.3,0.2,0.7,0.3,1.1c0,0.1,0,0.2,0.1,0.3c0.1,0.4,0.2,0.8,0.2,1.2h11.8
							l0.3-1.2h5c0.1,0.4,0.2,0.8,0.2,1.2h2.4c0.1-0.4,0.2-0.8,0.3-1.2h0.1v-16.3L424.2,408.7z M430,389.6c-0.2,0-0.5,0-0.7,0
							c-0.3,0-0.5,0-0.7,0c-1.6-0.1-3.1-0.4-4.4-0.6v32.4h-14.7c0,0,0,0.1,0,0.1c0.1,0.3,0.2,0.7,0.3,1.1c0.1,0.4,0.2,0.7,0.3,1.1
							c0.1,0.3,0.2,0.7,0.3,1.1c0,0.1,0,0.2,0.1,0.3c0.1,0.4,0.2,0.8,0.2,1.2h11.8l0.3-1.2h5c0.1,0.4,0.2,0.8,0.2,1.2h2.4
							c0.1-0.4,0.2-0.8,0.3-1.2h0.1v-35.3C430.5,389.6,430.3,389.6,430,389.6z M382.1,337.4v88.6h48.6v-88.6H382.1z M424.2,421.2
							h-35.5v-78.9h35.5V421.2z"/>
						<path class="st5" d="M437,347.5L437,347.5c-0.1-0.1-0.2-0.2-0.2-0.3c-0.1-0.1-0.1-0.2-0.2-0.3c0-0.1-0.1-0.1-0.1-0.2
							c0-0.1,0-0.2-0.1-0.3c0,0.2,0,0.3-0.1,0.5c0,0.2-0.1,0.3-0.2,0.5c0,0.1-0.1,0.2-0.2,0.2c0,0.1-0.1,0.1-0.1,0.2
							c-0.4,0.4-0.9,0.6-1.4,0.6c-1.1-0.1-2-1-2.3-2.1c-0.3,0.3-0.5,0.5-0.8,0.7c-0.2,0.2-0.4,0.3-0.6,0.5v61.3l6.5,0v-60.9
							C437.2,347.7,437.1,347.6,437,347.5z M437,347.5L437,347.5c-0.1-0.1-0.2-0.2-0.2-0.3c-0.1-0.1-0.1-0.2-0.2-0.3
							c0-0.1-0.1-0.1-0.1-0.2c0-0.1,0-0.2-0.1-0.3c0,0.2,0,0.3-0.1,0.5c0,0.2-0.1,0.3-0.2,0.5c0,0.1-0.1,0.2-0.2,0.2
							c0,0.1-0.1,0.1-0.1,0.2c-0.4,0.4-0.9,0.6-1.4,0.6c-1.1-0.1-2-1-2.3-2.1c-0.3,0.3-0.5,0.5-0.8,0.7c-0.2,0.2-0.4,0.3-0.6,0.5
							v61.3l6.5,0v-60.9C437.2,347.7,437.1,347.6,437,347.5z M430.8,337.4v88.6h48.6v-88.6H430.8z M437.3,342.3h35.5v78.9h-35.5
							V342.3z"/>
						<path class="st5" d="M479.4,337.4v88.6H528v-88.6H479.4z M485.9,342.3h35.5v78.9h-35.5V342.3z"/>
						<path class="st5" d="M528,337.4v88.6h48.6v-88.6H528z M534.6,342.3h35.5v78.9h-35.5V342.3z"/>
					</g>
					<g>
						<polygon class="st6" points="404.3,423.3 413.5,382.3 415.6,369.8 440.4,369.8 442.4,383.7 453.1,423.3 						"/>
						<path class="st7" d="M415.5,408c4.1,3.7,8.3,7.4,12.4,11.1c4.4-3.7,8.9-7.4,13.3-11.1c-3.4-0.9-8-1.8-13.6-1.7
							C422.8,406.4,418.7,407.2,415.5,408z"/>
						<path class="st4" d="M465.4,427.8c-0.1-0.9-0.3-2.3-0.8-4.1c-0.3-1.2-0.7-2.1-0.9-2.6c-0.8-1-1.7-2-2.7-3
							c-6.5-6.2-14.6-7.7-19.2-8.1c-4.4,2.4-8.8,4.7-13.2,7.1c-1.7-1.7-5.9-5.6-12-6.2c-3-0.3-5.6,0.3-6.5,0.5
							c-2.5,0.6-4.4,1.5-8.1,3.4c-1.7,0.8-3.7,1.9-6,3.2c-2.1,2.2-2.5,4.3-3.2,15.5c-0.5,8-0.8,14.9-1,20.3h76.2
							C466.7,440.2,465.7,430.3,465.4,427.8z"/>
						<path class="st8" d="M444.2,411.6c-5.2,1.7-10.4,3.5-15.6,5.2c-5.4-1.7-10.7-3.4-16.1-5.1c2.4-1.5,4.7-3,7.1-4.6
							c0.8-3.4,1.6-6.9,2.4-10.3c4.4,0,8.8,0,13.1,0c0.6,3.4,1.2,6.8,1.8,10.2C439.4,408.6,441.8,410.1,444.2,411.6z"/>
						<path class="st8" d="M441.1,382.6c0,0.7-0.3,2.8-0.8,7.1c-0.3,2.4-0.5,4.3-0.7,5.6c-1,2-3.1,5.6-7.1,7.8
							c-2.4,1.4-4.1,1.4-4.6,1.4c-2.2,0-3.9-0.9-5-1.7c-3.9-2.6-5.8-6-6.7-8c-0.1-1-0.3-2.5-0.5-4.2c-0.3-2.1-0.7-6.1-0.9-8
							c-0.2-3.6-0.7-10.5,3.8-14.9c3.6-3.4,8.3-3.6,9.3-3.6c1,0,5.8,0.1,9.4,3.6C441.9,372,441.3,379,441.1,382.6z"/>
						<g>
							<path class="st9" d="M432.6,394.5c-0.1,0.1-0.2,0.2-0.3,0.2c-0.1,0.1-0.3,0.2-0.5,0.3c-0.3,0.2-0.5,0.3-0.9,0.5
								c-0.5,0.2-0.9,0.2-3,0.2c-2.1,0-2.5-0.1-2.9-0.3c-0.2-0.1-0.5-0.2-0.8-0.5c0,0-0.1-0.1-0.1-0.1c-0.2-0.1-0.4-0.3-0.6-0.4
								c0.4-0.2,0.8-0.3,1.1-0.4h0.1c0.6,0,0.9,0,1.4-0.1c1,0,1.8,0,2.2,0.1c0.7,0,1.6,0.1,3.1,0
								C431.8,394.2,432.2,394.4,432.6,394.5z"/>
							<path class="st9" d="M432.6,394.5c-0.1,0.1-0.2,0.2-0.3,0.2c-1.2,0.1-1.9,0.2-2.2,0.2c0,0-0.8,0.1-1.5,0.1
								c-0.1,0-0.3,0-0.3,0c-1.4,0-1.3-0.2-2.8-0.2c-0.7,0-1,0-1.5,0c-0.2-0.1-0.4-0.3-0.6-0.4c0.4-0.2,0.8-0.3,1.1-0.4
								c0.2-0.1,0.4-0.1,0.5-0.2c0,0,1.2-0.4,2.2-0.3c0.1,0,0.2,0,0.4,0.1c0.2,0.1,0.3,0.2,0.3,0.2c0.1-0.1,0.4-0.2,0.6-0.3
								c0.7-0.2,1.3,0,2,0.2c0.2,0.1,0.5,0.1,0.7,0.2C431.8,394.2,432.2,394.4,432.6,394.5z"/>
						</g>
						<path class="st9" d="M429.9,388.8c-0.2,0.2-0.7,0.6-1.6,0.7c-1.1,0.1-1.9-0.6-2.1-0.7c0.7,0,1.4,0,2.1,0
							C428.9,388.8,429.4,388.8,429.9,388.8z"/>
						<path class="st4" d="M414.5,408.7l-6.3,3.6c3.9,4.9,7.8,9.7,11.8,14.6c5.6,0,11.1,0.1,16.7,0.1c3.4-5.2,6.7-10.5,10.1-15.7
							c-1.6-0.8-3.3-1.6-4.9-2.4c-2.2,0.9-4.7,1.9-7.2,3.2c-2.3,1.2-4.4,2.4-6.2,3.6c-1.7-1.1-3.6-2.3-5.8-3.4
							C419.7,410.7,417,409.6,414.5,408.7z"/>
						<g>
							<g>
								<path class="st4" d="M424.5,382.8c-1-1.6-2.6-2.4-4.1-2c-1.5,0.3-2.3,1.7-2.5,2c0.6,0.3,1.6,0.9,3.1,1
									C422.7,383.7,424,383.1,424.5,382.8z"/>
								<g>
									<path class="st10" d="M420,382.4c0.1,0.8,0.7,1.3,1.5,1.3c0.8-0.1,1.3-0.7,1.3-1.5c-0.1-0.8-0.7-1.3-1.5-1.3
										C420.5,380.9,419.9,381.6,420,382.4z"/>
									<path d="M420.7,382.4c0,0.4,0.4,0.7,0.8,0.7c0.4,0,0.7-0.4,0.7-0.8c0-0.4-0.4-0.7-0.8-0.7
										C420.9,381.6,420.6,382,420.7,382.4z"/>
									<path class="st4" d="M420.3,382c0,0.2,0.2,0.3,0.3,0.3c0.2,0,0.3-0.2,0.3-0.3c0-0.2-0.2-0.3-0.3-0.3S420.3,381.9,420.3,382
										z"/>
								</g>
								<path d="M424.5,382.7c-0.1-0.1-1.6-1.8-3.8-1.5c-1.5,0.2-2.4,1.3-2.6,1.6c-0.1,0-0.1,0-0.2-0.1c0,0-0.1,0-0.1,0
									c0.6-1.4,2.1-2.3,3.6-2.2C422.7,380.6,424,381.4,424.5,382.7z"/>
							</g>
							<g>
								<path class="st4" d="M431.6,382.7c1-1.5,2.7-2.3,4.2-1.9c1.5,0.4,2.3,1.8,2.4,2.1c-0.6,0.3-1.7,0.8-3.1,0.9
									C433.4,383.8,432.2,383.1,431.6,382.7z"/>
								<g>
									<path class="st10" d="M436.2,382.5c-0.1,0.8-0.8,1.3-1.5,1.2c-0.8-0.1-1.3-0.8-1.2-1.5c0.1-0.8,0.8-1.3,1.5-1.2
										C435.7,381,436.2,381.7,436.2,382.5z"/>
									<path d="M435.5,382.5c0,0.4-0.4,0.7-0.8,0.7c-0.4,0-0.7-0.4-0.7-0.8c0-0.4,0.4-0.7,0.8-0.7
										C435.2,381.7,435.5,382.1,435.5,382.5z"/>
									<path class="st4" d="M435.8,382.1c0,0.2-0.2,0.3-0.3,0.3s-0.3-0.2-0.3-0.3c0-0.2,0.2-0.3,0.3-0.3S435.9,381.9,435.8,382.1z
										"/>
								</g>
								<path d="M431.6,382.7c0.1-0.1,1.7-1.8,3.9-1.4c1.5,0.3,2.4,1.4,2.6,1.7c0.1,0,0.1,0,0.2,0c0,0,0.1,0,0.1,0
									c-0.6-1.4-2-2.3-3.5-2.3C433.4,380.6,432.2,381.4,431.6,382.7z"/>
							</g>
							<path d="M423.9,378.1c-0.4-0.2-1.4-0.6-2.9-0.8c-2.1-0.2-3.4,0.3-3.7,0.5c-0.4,0.2-0.6,0.5-0.6,0.5c-0.2,0.2-0.3,0.5-0.5,0.8
								c-0.2,0.4-0.4,0.8-0.6,1.4c0.1-0.1,0.1-0.1,0.2-0.2c0,0,0.4-0.3,0.9-0.6c1.8-0.9,4.2-0.7,4.2-0.7c1.6,0.1,2.8,0.5,3.7,0.9
								c0.1-0.1,0.4-0.2,0.5-0.6c0.1-0.2,0.1-0.3,0.1-0.5C424.9,378.7,424.4,378.4,423.9,378.1z"/>
						</g>
						<g>
							<path d="M432.1,378.1c0.4-0.2,1.4-0.6,2.9-0.8c2.1-0.2,3.4,0.3,3.7,0.5c0.4,0.2,0.6,0.5,0.6,0.5c0.2,0.2,0.3,0.5,0.5,0.8
								c0.2,0.4,0.4,0.8,0.6,1.4c-0.1-0.1-0.1-0.1-0.2-0.2c0,0-0.4-0.3-0.9-0.6c-1.8-0.9-4.2-0.7-4.2-0.7c-1.6,0.1-2.8,0.5-3.7,0.9
								c-0.1-0.1-0.4-0.2-0.5-0.6c-0.1-0.2-0.1-0.3-0.1-0.5C431,378.7,431.5,378.4,432.1,378.1z"/>
						</g>
						<path class="st4" d="M397.9,510.6c0.5-9.4,1-18.8,1.5-28.2c0.1-1.2,0.1-2.5,0.2-3.7c0.2-4.2,0.4-8.4,0.7-12.6c0,0,0,0,0,0
							c0.2-4.6,0.5-9.2,0.7-13.9c0.1,0,0.2,0,0.3,0c7.1-0.7,12.7-0.4,16.7,0c3.1,0.3,6.2,0.8,11.1,0.8c4.1,0,6.9-0.3,9.1-0.5
							c4.4-0.4,10.7-0.8,19-0.3c0.1,0,0.1,0,0.2,0c0.2,3.6,0.4,7.3,0.6,10.9c0,0,0,0,0,0c0.2,3.9,0.4,7.7,0.7,11.6
							c0.1,2.8,0.3,5.5,0.5,8.2c0.5,9.2,1,18.4,1.6,27.7H397.9z"/>
						<rect x="427.6" y="390.4" class="st11" width="0.9" height="2"/>
						<path class="st7" d="M446.8,411.3c-5.2,2.7-10.5,5.4-15.7,8.1v30.1l-2.6,2.5l0-37.5c2.4-1.6,5.2-3.3,8.5-4.8
							c1.5-0.7,3-1.2,4.3-1.7C443.1,409.1,445,410.2,446.8,411.3z"/>
						<path class="st4" d="M401.5,453.5c-0.2,2.9-0.4,5.9-0.6,8.8c0,0,0,0,0,0c-0.1,0.6-0.1,1.2-0.1,1.8c-0.4,6-0.9,12.1-1.4,18.1
							v0.1c-0.5,6.5-1,13-1.6,19.5c-0.2,2.9-0.5,5.8-0.7,8.7h-16.2c4.2-43.3,7.4-74.2,8-79.5c0.2-1.5,0.6-4.9,2.8-8.5
							c1.3-2.1,2.8-3.6,4-4.6c1.8,11.4,3.7,22.8,5.5,34.2C401.3,452.6,401.4,453.1,401.5,453.5z"/>
						<path class="st4" d="M477.6,510.6h-16.1c-0.3-3.2-0.5-6.4-0.8-9.6c-0.7-8.7-1.4-17.4-2.1-26c0-0.1,0-0.2,0-0.2v-0.1
							c-0.3-4.4-0.7-8.9-1-13.3c-0.2-2.9-0.4-5.9-0.6-8.8c0-0.1,0.1-0.3,0.1-0.5c1-5,2-10.6,2.7-16.6c0.7-6.3,1-12.1,1.1-17.5
							c1.7,1.3,2.8,2.6,3.4,3.5c0,0,1.7,2.6,3.1,8.3c0,0,0.1,0.3,0.1,0.6c0.1,0.3,0.2,0.8,0.3,1.3c0.2,0.9,0.4,1.4,0.4,1.7
							C469.4,438.5,473.1,468.5,477.6,510.6z"/>
						<path class="st7" d="M400.9,462.3c-0.1,0.6-0.1,1.2-0.1,1.9c-0.4,5.3-0.8,10.1-1.2,14.5c0,0,0,0,0,0
							c-1.2,15.6-2,25.5-2.5,31.9h-1.9c2.5-23.2,4.3-38,5.2-44.5v0C400.5,463.7,400.7,462.5,400.9,462.3
							C400.9,462.3,400.8,462.3,400.9,462.3C400.9,462.3,400.9,462.3,400.9,462.3z"/>
						<path class="st7" d="M463.6,510.6h-2.1c-1-11.6-1.8-20.7-2.4-27.7v-0.1c0-0.1,0-0.1,0-0.2c-1.4-16.4-1.6-21.2-1.5-21.2
							c0,0,0,0,0,0c0.1,0.1,0.2,0.7,0.3,1.6c0,0,0,0.1,0,0.1v0c0.4,2.4,0.9,7,1.7,13C461.3,489.3,462.6,500.9,463.6,510.6z"/>
						<path class="st7" d="M409.8,411.3l16,8.1v30.1l2.6,2.5l0-37.5c-2.4-1.6-5.2-3.3-8.5-4.8c-1.5-0.7-3-1.2-4.3-1.7
							C413.6,409.1,411.7,410.2,409.8,411.3z"/>
						<path d="M428.1,390.1C428,390.1,428,390.1,428.1,390.1c-1.3,0-5.7,0-7.3,2.8c-0.2,0.4-0.6,0.9-0.8,2c-0.3,1.1-0.4,2.8,0,5.5
							c2.4,3.5,5.3,5.1,8.1,5.1c2.8,0,5.6-1.7,8.1-5.1c0.4-2.7,0.3-4.4,0-5.5c-0.2-1.1-0.6-1.6-0.8-2
							C433.8,390.2,429.4,390.1,428.1,390.1C428.1,390.1,428.1,390.1,428.1,390.1z M426.9,396.4c-0.1,0.3-0.4,1.1-1.3,1.4
							c0,0-1.2,0.5-2.7-0.4c0,0,0,0,0,0c-1.3-0.8-1.3-2.4-0.2-3.4c0.5-0.4,0.9-0.6,1.2-0.7c1.1-0.4,2.7-0.5,4.2-0.5
							c1.5,0,3.1,0.1,4.2,0.5c0.3,0.1,0.7,0.3,1.2,0.7c1.1,1,1.1,2.7-0.2,3.4c0,0,0,0,0,0c-1.6,0.9-2.7,0.4-2.7,0.4
							c-0.8-0.3-1.1-1.1-1.2-1.4C428.5,396.4,427.7,396.4,426.9,396.4z"/>
						<g>
							<path class="st12" d="M398.1,413.7c0,0.2-0.1,0.4-0.1,0.6l0-0.4L398.1,413.7z"/>
						</g>
						<g>
							<path class="st12" d="M460.5,430.9c-0.1-0.2-0.4-0.6-0.7-0.9c0,0-0.1-0.1-0.3-0.3c-0.2-0.1-0.4-0.3-0.6-0.4
								c-2.3-1.1-5.9-0.6-5.9-0.6c-1.2,0.2-2.9,0.6-5,1.3c-1,0.4-2.1,0.8-3.2,1.4c0-0.5,0-0.9,0-1.4c0.1-5.3-0.2-9.7-0.6-12.8
								c-0.2-2-0.4-3-1.8-11.2c-1.2-7.4-1.9-11.1-1.9-11.2c-0.3-4.7-0.4-15.6-0.9-21.5c0-0.6-0.1-1.5-0.8-2.1
								c-1.5-1.3-3.7,0.8-7.5,0.3c-2.3-0.4-2.3-1.3-4.5-1.4c-1.8-0.1-2.3,0.5-4.7,0.8c-2.8,0.2-3.6-0.5-4.5-0.2
								c-2.1,0.7-1.8,13-1.8,16.1c0.2,9.3-1,16.6-3.5,31c-0.8,4.8-1.6,8.9-2.3,11.8c-0.1,0.5-0.2,0.9-0.3,1.3c-0.2-0.1-2.9-1-5-1.5
								c-0.2,0-0.4-0.1-0.6-0.1c-1.3-0.2-2.3-0.1-3,0c-2.5,0.3-5.9,1.4-6,1.5c-0.5-6.9,0.5-12.4,1.4-15.8c1.3-5.1,3.3-9,4.3-11
								c1.2-2.3,2.3-4.3,3.2-5.7l7.5-17.5c2.1-8.7,1.7-13.9,6.6-17.7c0.8-0.6,1.7-1.1,2.6-1.5c2.3-1.2,4.4-1.5,5.3-1.6
								c1.5-0.2,4.7-0.6,8.1,1c0.2,0.1,0.4,0.2,0.7,0.3c0,0,0,0,0,0c0.8,0.3,1.5,0.7,2.3,1.2c5.7,3.7,5.3,9.8,8.7,20.2
								c4.3,13.2,10.3,20.1,13.8,30.5c0,0,0,0.1,0,0.1C462.4,421.8,461.9,427.2,460.5,430.9z"/>
							<path d="M441,365.7h-26.1c-0.7,0-1.4-0.6-1.4-1.4l0,0c0-0.7,0.6-1.4,1.4-1.4H441c0.7,0,1.4,0.6,1.4,1.4l0,0
								C442.3,365.1,441.7,365.7,441,365.7z"/>
							<path d="M442,368.4h-28.2c-0.7,0-1.4-0.6-1.4-1.4l0,0c0-0.7,0.6-1.4,1.4-1.4H442c0.7,0,1.4,0.6,1.4,1.4l0,0
								C443.4,367.8,442.8,368.4,442,368.4z"/>
						</g>
					</g>
					<g>
						<path class="st13" d="M505.5,378.4L505.5,378.4l0.9-2.1L505.5,378.4z"/>
						<polygon class="st13" points="531.3,334.5 529,340.3 521,338.9 529,340.3 531.3,334.5 531.3,334.5 						"/>
						<path class="st14" d="M472.1,443.8c-0.2,0.1-0.4,0.1-0.6,0.2C471.8,443.9,471.9,443.9,472.1,443.8
							C472.1,443.8,472.1,443.8,472.1,443.8"/>
						<path class="st15" d="M385.9,588c-0.1,2.3-0.2,4.6-0.4,7c-0.2,3.8-0.6,7.6-0.9,11.4c-0.4,4.3-0.9,8.7-1.5,13.1
							c-0.6,4.9-4.1,8.8-8.6,10.1h0c-1.1,0.3-2.2,0.5-3.4,0.5h-42.5c-3.3,0-6.3-1.3-8.5-3.5c-0.7-0.7-1.4-1.5-1.9-2.4
							c-0.3-0.6-0.7-1.2-0.9-1.9c-0.3-0.7-0.4-1.4-0.6-2.1c-4.4-24.7-7.7-49.3-9.9-73.8c0-0.5-0.1-1-0.1-1.6
							c-0.9-10.5-1.6-20.9-2.1-31.3c-0.5-10.1-0.7-20.1-0.8-30.1c0-6.6,5.4-12,12.1-12h45c5.3,0,9.9,3.4,11.5,8.5
							c0,0.1,0.1,0.2,0.1,0.3h0v0c0.1,0.3,0.2,0.6,0.3,0.9c0.1,0.4,0.3,0.8,0.4,1.2v0h0c0.7,2.3,1.4,4.6,2,6.9l0,0
							c0.6,2.2,1.2,4.5,1.8,6.7c0,0,0,0.1,0,0.1c0.5,1.9,0.9,3.8,1.4,5.7c0.1,0.6,0.3,1.1,0.4,1.7c0,0,0,0,0,0
							c0.8,3.4,1.5,6.8,2.1,10.2c1.1,5.7,2,11.4,2.7,17.2v0c0.6,5,1.2,10,1.6,15.1c0,0.2,0,0.4,0,0.6
							C386.3,560,386.5,573.9,385.9,588z"/>
						<path class="st15" d="M553,483.4c-0.1,10-0.3,20.1-0.8,30.1c-0.5,10-1.1,20-2,30l-0.3,2.9c-0.2,2.2-0.4,4.3-0.6,6.5
							c0,0.3-0.1,0.7-0.1,1c-0.4,3.8-0.8,7.5-1.2,11.3c-0.2,1.8-0.4,3.6-0.6,5.5c-0.1,1.4-0.3,2.7-0.5,4.1c-0.2,1.7-0.4,3.4-0.6,5.1
							c-0.6,4.9-1.3,9.8-2,14.7c-0.4,2.8-0.8,5.6-1.3,8.4c-0.4,2.9-0.9,5.8-1.4,8.6c0,0.2-0.1,0.3-0.1,0.5c-0.5,2.7-0.9,5.4-1.4,8.1
							v0c-0.1,0.3-0.1,0.6-0.2,1c0,0,0,0.1,0,0.1c-0.1,0.3-0.2,0.6-0.3,0.9c0,0,0,0,0,0c-0.1,0.3-0.2,0.5-0.3,0.8
							c0,0.1-0.1,0.2-0.1,0.3c-0.1,0.3-0.3,0.5-0.4,0.8c-0.2,0.3-0.4,0.6-0.6,0.9c-0.2,0.3-0.4,0.6-0.6,0.8c0,0,0,0,0,0
							c-0.2,0.2-0.4,0.5-0.6,0.7c-0.1,0.1-0.2,0.2-0.2,0.2c-0.2,0.2-0.4,0.3-0.6,0.5c-0.4,0.4-0.9,0.7-1.4,1
							c-0.4,0.3-0.8,0.5-1.3,0.7c-0.1,0.1-0.3,0.1-0.4,0.2c-0.6,0.3-1.3,0.5-2,0.6c-0.1,0-0.3,0.1-0.4,0.1c-0.2,0-0.4,0.1-0.6,0.1
							c-0.3,0-0.5,0.1-0.8,0.1c-0.3,0-0.6,0-0.9,0h-42.5c-3,0-5.8-1.1-7.9-3c-0.5-0.4-1-0.9-1.4-1.4c-1.4-1.7-2.4-3.8-2.7-6.2
							c-0.3-2.3-0.6-4.7-0.8-7c-0.2-2.1-0.4-4.1-0.6-6.1c-0.2-1.9-0.3-3.8-0.5-5.7c-0.2-1.9-0.3-3.8-0.4-5.7
							c-0.3-5.4-0.6-10.8-0.7-16.1c0-1.5,0-3-0.1-4.6c-0.1-9.4,0.3-18.7,1-27.9c0-0.5,0.1-0.9,0.1-1.4c0.2-2.5,0.4-4.9,0.7-7.4
							c0.2-2.2,0.5-4.4,0.8-6.6v0c0.8-5.9,1.7-11.7,2.8-17.5c0-0.2,0.1-0.3,0.1-0.5c0.3-1.8,0.7-3.6,1.1-5.4
							c0.5-2.6,1.1-5.1,1.7-7.7c0.9-3.6,1.8-7.1,2.8-10.7c0.7-2.7,1.5-5.4,2.4-8.1c0.1-0.3,0.2-0.6,0.3-0.9c0,0,0,0,0,0
							c0-0.2,0.1-0.3,0.1-0.5c0.4-1.2,0.9-2.3,1.7-3.3c2.2-3.2,5.8-5.2,9.9-5.2h45c4.7,0,8.7,2.6,10.7,6.5
							C552.6,479.5,553.1,481.4,553,483.4z"/>
						<path class="st13" d="M354.9,471.4h-7.4c0,0,0,0,0,0L354.9,471.4C354.9,471.4,354.9,471.4,354.9,471.4L354.9,471.4z"/>
						<path class="st16" d="M354.9,471.4h-7.5c1.6,23,0.8,46.6-2.3,70.9c-0.8,6-5.9,10.6-12,10.6h-25.7c2.2,22.3,5.3,44.8,9.3,67.3
							c1,5.7,6,9.9,11.9,9.9h13.8c-1.7-15.9-2.6-31.8-2.7-47.5c0-4.3,3.5-7.7,7.7-7.7h27.8c-5.3-26.3-11.6-62-11.1-78.6
							c0-0.5,0.1-0.9,0.2-1.3c0.4-1.9,1.6-3.6,3.2-4.7l5.6-8.2c-0.2-0.7-0.4-1.4-0.6-2.1C371.6,479.6,364.9,475.5,354.9,471.4
							L354.9,471.4z"/>
						<path class="st13" d="M504.1,471.4C504,471.4,504,471.4,504.1,471.4l11.6,0c0,0,0,0,0,0H504.1z"/>
						<path class="st17" d="M541.4,612.1c-0.5,2.7-0.9,5.4-1.4,8.1c-0.6,3.5-2.7,6.4-5.5,8.1c2.8-1.7,4.9-4.6,5.5-8.1
							C540.5,617.5,541,614.8,541.4,612.1L541.4,612.1L541.4,612.1z"/>
						<path class="st16" d="M515.7,471.4H504c-6.9,2.9-12.3,5.7-15.2,7.4l14,11.3c2.7,1.2,4.5,3.9,4.5,7
							c-0.1,9.6-2.4,31.1-13.2,77.9h28.5c4.3,0,7.7,3.4,7.7,7.7c-0.1,15.7-1,31.6-2.7,47.5h0.7c2.3,0,4.5-0.7,6.4-1.8
							c2.8-1.8,4.9-4.6,5.5-8.1c0.5-2.7,0.9-5.4,1.4-8.1c0.2-1.4,0.5-2.8,0.7-4.2c3-18.4,5.4-36.8,7.2-55H530
							c-6.1,0-11.2-4.6-12-10.6C514.8,518,514,494.3,515.7,471.4L515.7,471.4z"/>
						<path class="st18" d="M486.4,480.2c0,0,27.3-17.3,57-17.8c3.7-0.1,5.2-4.8,2.2-6.9c-3-2.1-7.2-4-13.1-5
							c-15.7-2.6-48.6,8.9-56.4,23.8C468.3,489.1,486.4,480.2,486.4,480.2L486.4,480.2z"/>
						<path class="st19" d="M542.6,457.7c-22.8,0-42.2,7.3-42.2,7.3s-3.7,0.9-7,0.9c-3,0-5.6-0.8-4.9-3.8c-2.8,1.8-5.3,3.7-7.4,5.7
							l-1.3,3.6l9.1,7.3c7.3-4.2,30.1-16,54.6-16.4c2.7,0,4.2-2.5,3.7-4.6C545.6,457.7,544.1,457.7,542.6,457.7L542.6,457.7z"/>
						<path class="st18" d="M372.6,480.2c0,0-27.3-17.3-57-17.8c-3.7-0.1-5.2-4.8-2.2-6.9c3-2.1,7.2-4,13.1-5
							c15.7-2.6,48.6,8.9,56.4,23.8C390.6,489.1,372.6,480.2,372.6,480.2L372.6,480.2z"/>
						<path class="st13" d="M311.8,457.9c-0.3,1.5,0.4,3.1,1.7,3.9C312.2,461,311.5,459.4,311.8,457.9L311.8,457.9z"/>
						<path class="st19" d="M314.7,457.7c-0.9,0-1.9,0-2.8,0c0,0.1,0,0.1,0,0.2c-0.3,1.5,0.4,3.1,1.7,3.9c0.6,0.4,1.2,0.6,2,0.6
							c29.7,0.5,57,17.8,57,17.8s0.6,0.3,1.5,0.7l6.8-9.8c-1.8-2.3-4.1-4.4-6.8-6.4c1.1,3.4-1.2,4.3-4.1,4.3c-3.5,0-7.8-1.4-7.8-1.4
							S339.9,457.7,314.7,457.7L314.7,457.7z"/>
						<path class="st20" d="M514.3,676.5h-27.2c-3.9,0-7.2-2.9-7.7-6.8c-4.1-31.5-2.1-61.4,6.9-89.4c1-3.2,4-5.4,7.4-5.4h28.8
							c4.3,0,7.7,3.4,7.7,7.7c-0.2,28.9-3.1,58.1-8.3,87.5C521.2,673.9,518,676.5,514.3,676.5L514.3,676.5z"/>
						<path class="st20" d="M355.6,676.5h27.2c3.9,0,7.2-2.9,7.7-6.8c4.1-31.5,2.1-61.4-6.9-89.4c-1-3.2-4-5.4-7.4-5.4h-28.8
							c-4.3,0-7.7,3.4-7.7,7.7c0.2,28.9,3.1,58.1,8.3,87.5C348.7,673.9,351.9,676.5,355.6,676.5L355.6,676.5z"/>
						<path class="st17" d="M477.6,630.2L477.6,630.2c-0.3,7.4-0.2,15,0.2,22.6C477.3,645.1,477.2,637.6,477.6,630.2L477.6,630.2z"
							/>
						<path class="st17" d="M521.9,670.2c0,0.1,0,0.2-0.1,0.3C521.8,670.4,521.8,670.3,521.9,670.2c0.5-2.9,1-5.8,1.5-8.7
							C522.9,664.3,522.4,667.3,521.9,670.2z M521.7,671C521.7,671,521.7,671,521.7,671C521.7,671,521.7,671,521.7,671
							C521.6,671,521.7,671,521.7,671z"/>
						<path class="st21" d="M508.8,574.9H494c-0.3,1.3-0.6,2.5-0.9,3.8c-1.2,5.1-2.5,10.5-3.9,16.2h2.6c3.5,0,6.1,3.2,5.4,6.7
							l-2.3,10.9h0l-2.8,13.2h0l0,0l0,0c0,0.2-0.1,0.4-0.2,0.6c-0.4,1.2-1.2,2.2-2.2,2.8c0,0,0,0,0,0c0,0,0,0,0,0
							c-0.9,0.6-1.9,0.9-3,0.9h-9.2c-0.3,7.4-0.2,15,0.2,22.6c0.3,5.6,0.9,11.2,1.6,16.9c0.1,0.4,0.1,0.9,0.3,1.3
							c0.5,1.7,1.6,3.1,2.9,4.1c1.3,0.9,2.8,1.4,4.5,1.4h27.2c1.4,0,2.8-0.4,4-1.1c1.9-1.1,3.2-3,3.6-5.3c0.6-3.6,1.3-7.3,1.8-10.9
							c0.1-0.7,0.2-1.4,0.3-2.1h-10.5c-3.9,0-7.2-2.9-7.7-6.8C502.4,624,503.2,598.8,508.8,574.9L508.8,574.9z"/>
						<path class="st21" d="M375.3,574.9h-12.1c1.5,7.4,2.5,15,3.1,22.7c1-1.6,2.7-2.7,4.7-2.7h8.5
							C378.3,589.6,376.8,582.7,375.3,574.9L375.3,574.9z"/>
						<path class="st17" d="M387.6,674.9C387.5,674.9,387.5,674.9,387.6,674.9C387.5,674.9,387.5,674.9,387.6,674.9
							c0,0,0.1,0,0.1-0.1C387.6,674.8,387.6,674.9,387.6,674.9z M390.5,669.7c0,0.2-0.1,0.4-0.1,0.6
							C390.4,670.1,390.5,669.9,390.5,669.7c0.1-1,0.3-1.9,0.4-2.9C390.7,667.8,390.6,668.8,390.5,669.7z M390.2,670.8
							c0-0.1,0.1-0.3,0.1-0.4c0,0,0-0.1,0-0.1c0,0.1-0.1,0.3-0.1,0.4C390.3,670.8,390.3,670.8,390.2,670.8z"/>
						<path class="st21" d="M366.7,606.3c0.4,12.3-0.2,24.8-1.9,37.7c-0.5,3.9-3.8,6.8-7.7,6.8h-12.2c0.9,6.4,2,12.9,3.1,19.4
							c0.2,1.2,0.7,2.2,1.3,3.2c0.4,0.5,0.9,1,1.4,1.5c1.3,1.1,3.1,1.7,4.9,1.7h27.2c0.8,0,1.6-0.1,2.3-0.4c2.8-0.9,4.9-3.4,5.3-6.4
							c1.7-13.5,2.4-26.7,1.8-39.6h-15.5c-1.4,0-2.7-0.5-3.7-1.4c0,0,0,0,0,0c0,0,0,0,0,0c-0.8-0.7-1.4-1.7-1.6-2.8L369,616
							L366.7,606.3L366.7,606.3z"/>
						<path class="st22" d="M486.8,630.2H376.8c-2.5,0-4.8-1.7-5.4-4.2l-5.9-24.2c-0.8-3.5,1.8-6.8,5.4-6.8h120.9
							c3.5,0,6.1,3.2,5.4,6.7l-5.1,24.2C491.6,628.3,489.4,630.2,486.8,630.2L486.8,630.2z"/>
						<path class="st23" d="M491.9,595h-2.6c0,0,0,0,0,0L491.9,595c3.5,0,6.1,3.2,5.4,6.7l-2.3,10.9h0l2.3-10.9
							C498,598.2,495.4,595,491.9,595L491.9,595z"/>
						<path class="st21" d="M366.2,597.6c-0.1,0.2-0.2,0.4-0.3,0.6C366,598,366.1,597.8,366.2,597.6L366.2,597.6L366.2,597.6z"/>
						<path class="st14" d="M489.8,629.2C489.8,629.2,489.8,629.3,489.8,629.2C489.8,629.3,489.7,629.3,489.8,629.2
							c-0.2,0.1-0.3,0.2-0.4,0.2c-0.1,0-0.1,0.1-0.2,0.1c-0.2,0.1-0.3,0.2-0.5,0.2 M489.9,629.2c0.1-0.1,0.3-0.2,0.4-0.3l0.6-0.6
							c0,0,0,0,0,0l0.1-0.1l0.2-0.3l0-0.1l0,0l0.2-0.3l0.1-0.2c0,0,0-0.1,0.1-0.1l0-0.1l0-0.1v0c0.1-0.1,0.1-0.3,0.2-0.4
							c0.1-0.1,0.1-0.3,0.2-0.4 M492,626.4L492,626.4c-0.1,0.2-0.1,0.3-0.2,0.4c-0.1,0.1-0.1,0.3-0.2,0.4v0l0,0.1l0,0.1c0,0,0,0,0,0
							c0,0,0,0,0,0.1l-0.1,0.2l-0.2,0.3l0,0l0,0.1l-0.2,0.3l-0.1,0.1c0,0,0,0,0,0l-0.6,0.6c-0.1,0.1-0.2,0.2-0.4,0.3c0,0,0,0,0,0
							 M492.2,625.7L492.2,625.7L492.2,625.7L492.2,625.7L492.2,625.7L492.2,625.7 M492.1,625.8L492.1,625.8L492.1,625.8"/>
						<path class="st14" d="M373.8,629.3C373.8,629.2,373.7,629.2,373.8,629.3c-0.1,0-0.1-0.1-0.1-0.1c-0.1,0-0.1-0.1-0.2-0.2
							c-0.1-0.1-0.2-0.2-0.3-0.3c0,0,0,0,0,0 M372.5,628.1C372.5,628.1,372.5,628.1,372.5,628.1
							C372.5,628.1,372.5,628.1,372.5,628.1C372.5,628.2,372.6,628.2,372.5,628.1C372.6,628.2,372.5,628.2,372.5,628.1z
							 M367.6,596.1C367.6,596.1,367.6,596.1,367.6,596.1L367.6,596.1c-0.1,0-0.1,0.1-0.2,0.1c0,0,0,0,0,0l0,0c0,0,0,0,0,0
							c0,0,0,0,0.1-0.1c0.1-0.1,0.1-0.1,0.2-0.2C367.7,596,367.6,596,367.6,596.1z M367.3,596.3L367.3,596.3
							C367.3,596.3,367.4,596.3,367.3,596.3C367.4,596.3,367.3,596.3,367.3,596.3C367.3,596.3,367.3,596.3,367.3,596.3z
							 M369.8,595.1L369.8,595.1c0.1,0,0.2,0,0.3,0L369.8,595.1z M370.9,595c-0.1,0-0.3,0-0.4,0c-0.1,0-0.1,0-0.2,0c0,0,0,0-0.1,0
							c0.1,0,0.1,0,0.2,0C370.6,595,370.8,595,370.9,595l8.5,0v0H370.9z"/>
						<path class="st24" d="M491.9,595h-2.6c-0.9,3.7-1.9,7.5-2.8,11.4H381.9c0,0,0,0,0,0h0c0,0-1-4.4-2.5-11.4h-7
							c-2,0-3.8,1.1-4.7,2.7c-0.1,0.2-0.2,0.4-0.3,0.6c-0.5,1.1-0.6,2.3-0.3,3.6l3.5,14.2l2.4,9.9c0.3,1.1,0.8,2,1.6,2.8
							c0,0-1.5,0-1.5,0c0,0,1.5,0,1.5,0c1,0.9,2.3,1.4,3.7,1.4h108.5c1.1,0,2.2-0.3,3-0.9c0,0,0,0,0,0c0,0,0,0,0,0
							c1-0.7,1.8-1.7,2.2-2.8c0.1-0.2,0.1-0.4,0.2-0.6l0,0l0,0h-93.6c-2.5,0-4.8-0.7-5.4-1.6l-5.9-9.1c-0.8-1.3,1.8-2.6,5.4-2.6
							h102.2l2.3-10.9C498,598.2,495.4,595,491.9,595L491.9,595z"/>
						<path class="st15" d="M474.3,467.3c-3.2-22.1-22.2-39-45.2-39c-23,0-42,17-45.2,39c-0.3,2.2-0.5,4.4-0.5,6.7
							c0,10.8,3.7,20.7,10,28.5l17.1,1.1c-9.8-6.2-16.3-17.1-16.3-29.6c0-2.3,0.2-4.5,0.7-6.7c3.1-16.1,17.3-28.2,34.3-28.2
							c17,0,31.2,12.1,34.3,28.2c0.4,2.2,0.7,4.4,0.7,6.7c0,14-8.2,26-20.1,31.6l17.1,1c8.5-8.3,13.8-19.9,13.8-32.7
							C474.8,471.7,474.6,469.5,474.3,467.3L474.3,467.3z"/>
						<polygon class="st18" points="505.1,491.9 500.7,509.1 461.1,506.7 444,505.7 410.5,503.6 393.5,502.5 370.2,501.1 
							364.5,494.8 383.3,467.3 474.6,467.3 505.1,491.9 						"/>
						<path class="st19" d="M404.7,467.3h-9.9h-10.9h-0.6l-2.5,3.7l-6.8,9.8l-6.5,9.5c1-0.7,2.2-1.1,3.4-1.2c0.3,0,0.5,0,0.8,0
							c0,0,0,0,0,0l128,0.3c1.1,0,2.1,0.2,3.1,0.7l-12-9.7h-19.6c-0.1,0-0.3,0-0.4,0c-0.1,0-0.3,0-0.4,0h-71.9L404.7,467.3
							L404.7,467.3z"/>
						<path class="st18" d="M371.7,489.1l128,0.3c4.2,0,7.6,3.4,7.5,7.7c-0.1,11.6-3.4,40.2-20.9,109.4H381.9
							c0,0-18.6-82.1-17.7-110C364.3,492.3,367.7,489.1,371.7,489.1L371.7,489.1z"/>
						<path class="st25" d="M367.5,490.4c-1.6,1.1-2.8,2.7-3.2,4.7C364.8,493.1,365.9,491.5,367.5,490.4L367.5,490.4L367.5,490.4z"
							/>
						<path class="st26" d="M371,489.1c-1.3,0.1-2.4,0.6-3.4,1.2l0,0C368.5,489.7,369.7,489.3,371,489.1L371,489.1z"/>
						<path class="st23" d="M493.1,578.8c-1.2,5.1-2.5,10.5-3.9,16.2h0C490.6,589.3,491.9,583.9,493.1,578.8L493.1,578.8z"/>
						<polyline class="st14" points="489.2,595 489.2,595 489.2,595 489.2,595 489.2,595 						"/>
						<path class="st27" d="M489.2,595L489.2,595c-0.9,3.7-1.9,7.5-2.9,11.4H381.9c0,0,0,0,0,0h104.5
							C487.4,602.5,488.3,598.7,489.2,595L489.2,595z"/>
						<path class="st19" d="M488.1,577.3c-4.1-0.2-8-0.8-11.9-1.6c-1.7-0.3-3.3-0.7-5-1.2c-0.2-0.1-0.5-0.1-0.7-0.2
							c-1.2-0.3-2.3-0.7-3.5-1c-1.7-0.6-3.4-1.2-5-1.8c-1.7-0.7-3.4-1.4-5.1-2.2c-1.8-0.8-3.5-1.7-5.1-2.7c-2.1-1.2-4.1-2.5-6.1-3.8
							c-1.8-1.3-3.7-2.6-5.4-4c-1.7-1.3-3.3-2.8-4.9-4.2c-2-1.9-4-3.9-5.8-6c-0.6-0.7-1.2-1.4-1.8-2.1c-0.2-0.3-0.4-0.5-0.6-0.8
							c-0.9-1.2-1.8-2.4-2.7-3.6v0c-1-1.5-2.1-3-3-4.5c-4.6-7.3-8-15.3-10.2-24c-0.6-2.5-1.1-5-1.5-7.5c-0.1-0.8-0.3-1.6-0.4-2.5
							c0-0.3-0.1-0.6-0.1-0.8v0c-0.3-2.3-0.7-4.5-1-6.7c-0.3-2.3-0.6-4.6-0.9-6.8l-8.2,0l-1.5,0h-2.1l-9.6,0l-9.4,0h-1.5l-3.4,0h0
							c-0.1,0-0.2,0-0.4,0c-0.1,0-0.2,0-0.4,0c-0.2,0-0.4,0-0.6,0.1c0,0,0,0-0.1,0c-0.1,0-0.2,0-0.3,0.1c-0.1,0-0.2,0.1-0.3,0.1
							c0,0-0.1,0-0.1,0c-0.2,0.1-0.5,0.2-0.7,0.2c-0.1,0.1-0.3,0.1-0.4,0.2c-0.1,0-0.1,0-0.2,0.1c-0.1,0-0.1,0-0.2,0.1
							c0,0-0.1,0-0.1,0.1c0,0,0,0,0,0c0,0,0,0-0.1,0c0,0,0,0,0,0c0,0-0.1,0.1-0.1,0.1c0,0-0.1,0.1-0.2,0.1c0,0,0,0,0,0c0,0,0,0,0,0
							c0,0,0,0,0,0c-0.1,0.1-0.2,0.1-0.3,0.2c-0.1,0-0.1,0.1-0.2,0.2l-0.5,0.5c0,0-0.1,0-0.1,0.1c-0.1,0.1-0.2,0.2-0.2,0.3
							c0,0,0,0.1-0.1,0.1c0,0,0,0,0,0c0,0,0,0,0,0c0,0,0,0,0,0c0,0,0,0,0,0c0,0,0,0,0,0v0l-0.4,0.5l-0.4,0.6c0,0,0,0,0,0
							c0,0,0,0,0,0.1v0l-0.2,0.4l-0.1,0.1c0,0.1-0.1,0.2-0.1,0.3c0,0,0,0,0,0.1c0,0,0,0,0,0c0,0,0,0,0,0.1c0,0,0,0,0,0
							c0,0.1-0.1,0.2-0.1,0.3v0l0,0c0,0.1-0.1,0.2-0.1,0.3c0,0,0,0,0,0c0,0.1-0.1,0.2-0.1,0.3c-0.1,0.4-0.2,0.9-0.2,1.3
							c0,1.3,0,2.6,0,4.1c0,0.2,0,0.3,0,0.5c0,0.1,0,0.2,0,0.4c0,0.1,0,0.3,0,0.4c0,0.3,0,0.7,0,1v0.1c0,0,0,0,0,0c0,0,0,0,0,0v0
							c0,0.2,0,0.4,0,0.7v0c0,0.3,0,0.6,0,0.9c0,0.5,0.1,1,0.1,1.5c0,0.1,0,0.3,0,0.4c0,0.3,0,0.7,0.1,1c0,0.1,0,0.2,0,0.3
							c0,0.2,0,0.4,0.1,0.7v0.1c0,0.3,0.1,0.7,0.1,1c0,0.2,0,0.4,0.1,0.6c0,0.4,0.1,0.8,0.1,1.2c0,0.3,0.1,0.6,0.1,1
							c0,0.3,0.1,0.6,0.1,0.9v0.1c0,0.1,0,0.1,0,0.2c0,0.3,0.1,0.6,0.1,0.9c0,0.2,0,0.3,0,0.5c0,0.1,0,0.2,0,0.2c0,0,0,0,0,0.1
							c0.1,0.6,0.1,1.3,0.2,1.9c0.1,0.7,0.2,1.3,0.3,2c0,0,0,0.1,0,0.1c0,0.2,0,0.4,0.1,0.6c0,0.3,0.1,0.7,0.1,1
							c0,0.2,0,0.3,0.1,0.5c0,0.3,0.1,0.6,0.1,0.9c0.1,0.4,0.1,0.8,0.2,1.2c0.1,0.4,0.1,0.8,0.2,1.2c0,0.3,0.1,0.6,0.1,1
							c0,0.2,0.1,0.4,0.1,0.6c0,0.2,0.1,0.4,0.1,0.6c0,0.2,0.1,0.5,0.1,0.7c0,0,0,0.1,0,0.1c0,0.3,0.1,0.5,0.1,0.8
							c0.1,0.8,0.3,1.7,0.4,2.6c0,0.1,0,0.3,0.1,0.4c0,0.2,0.1,0.4,0.1,0.6c0.1,0.3,0.1,0.7,0.2,1.1l0.2,1.2
							c0.2,1.1,0.3,2.2,0.5,3.3c0.1,0.3,0.1,0.7,0.2,1.1c0,0,0,0.1,0,0.2c0,0,0,0,0,0.1c0.1,0.7,0.2,1.3,0.3,2
							c0,0.2,0.1,0.4,0.1,0.6c0,0.2,0.1,0.4,0.1,0.7c0.1,0.4,0.1,0.8,0.2,1.1c0.1,0.8,0.3,1.6,0.4,2.5c0,0.2,0.1,0.4,0.1,0.6
							c0.2,1.2,0.4,2.3,0.6,3.5c0,0.1,0,0.1,0,0.2c0.2,1.1,0.4,2.2,0.6,3.3c0.1,0.4,0.1,0.8,0.2,1.2c0.1,0.5,0.2,1,0.3,1.5
							c0,0.2,0.1,0.3,0.1,0.5c0,0.3,0.1,0.5,0.1,0.7c0.1,0.6,0.2,1.2,0.3,1.7c0.2,1.2,0.4,2.3,0.6,3.4c0.2,0.9,0.3,1.7,0.5,2.5
							c0,0.2,0.1,0.4,0.1,0.6c0.1,0.4,0.1,0.7,0.2,1.1c0.1,0.3,0.1,0.6,0.2,0.9c0,0.3,0.1,0.5,0.2,0.8c0,0.2,0.1,0.4,0.1,0.6
							c0.1,0.3,0.1,0.6,0.2,1c0,0,0,0.1,0,0.1c0,0.2,0.1,0.4,0.1,0.6c0,0.1,0,0.2,0,0.3c0.2,1,0.4,1.9,0.6,2.8
							c0.1,0.3,0.1,0.7,0.2,1c0,0,0,0.1,0,0.1c0.1,0.6,0.3,1.3,0.4,1.9c0.1,0.3,0.1,0.6,0.2,0.9c0,0.1,0,0.2,0.1,0.3
							c0,0.2,0.1,0.5,0.1,0.7c0.1,0.3,0.1,0.6,0.2,1c0,0.1,0,0.2,0.1,0.3c0,0.2,0.1,0.3,0.1,0.5c0,0,0,0.1,0,0.2
							c0,0.1,0,0.2,0.1,0.3c0.2,1,0.4,2,0.6,3c0,0.2,0.1,0.4,0.1,0.6c0,0.2,0.1,0.4,0.1,0.5c0.1,0.3,0.1,0.5,0.2,0.7
							c0,0.1,0,0.2,0.1,0.3c0.2,0.7,0.3,1.4,0.4,2.1c0,0.2,0.1,0.5,0.1,0.7c0,0.2,0.1,0.4,0.1,0.6c0,0,0,0.1,0,0.1c0,0,0,0.1,0,0.1
							c0,0.1,0,0.2,0.1,0.2c0,0.1,0,0.2,0,0.2c0.1,0.4,0.2,0.7,0.2,1.1c0,0,0,0.1,0,0.1c0,0.1,0,0.1,0,0.2c0,0.1,0.1,0.3,0.1,0.4
							c0.1,0.3,0.1,0.6,0.2,0.9c0,0.2,0.1,0.4,0.1,0.6c0,0.1,0,0.2,0,0.2c0,0.1,0,0.2,0.1,0.2c0,0.1,0,0.2,0,0.3
							c0,0.2,0.1,0.4,0.1,0.5v0h0c0,0.2,0.1,0.4,0.1,0.6c0.1,0.4,0.2,0.8,0.3,1.2c0.1,0.5,0.2,1.1,0.3,1.6c0.1,0.3,0.1,0.6,0.2,0.9
							c0,0.1,0,0.1,0,0.2c0,0.2,0.1,0.4,0.1,0.6c0.1,0.3,0.1,0.6,0.2,0.9c0,0.2,0.1,0.3,0.1,0.5c0,0.1,0,0.2,0,0.2
							c0.1,0.2,0.1,0.5,0.2,0.7c0,0.1,0,0.1,0,0.2c0,0.1,0,0.2,0.1,0.3c0,0.1,0,0.2,0.1,0.3s0,0.2,0.1,0.3c0,0.1,0,0.2,0.1,0.3
							c0,0.1,0.1,0.2,0.1,0.3c0,0,0,0.1,0,0.1c0,0.1,0,0.2,0.1,0.2c0,0.1,0,0.2,0.1,0.3c0.1,0.3,0.1,0.6,0.2,0.8c0,0.1,0,0.1,0,0.2
							c0,0,0,0,0,0c0,0,0,0,0,0.1c0,0,0,0.1,0,0.1c0,0,0,0,0,0.1c0,0.2,0.1,0.3,0.1,0.4c0,0,0,0,0,0c0,0,0,0,0,0v0c0,0,0,0,0,0
							c0,0,0,0,0,0c0,0,0,0,0,0h104.4c0.3-1,0.5-2,0.7-2.9c0.3-1.2,0.6-2.3,0.9-3.4c0.2-0.8,0.4-1.5,0.6-2.3
							c0.1-0.3,0.1-0.5,0.2-0.8c0-0.2,0.1-0.3,0.1-0.5c0.1-0.5,0.2-1,0.4-1.5v0c0.1-0.3,0.2-0.7,0.3-1.1c0.1-0.4,0.2-0.7,0.3-1.1
							c0.1-0.4,0.2-0.8,0.3-1.2c0.1-0.2,0.1-0.4,0.2-0.7c0-0.1,0-0.1,0-0.2c0.2-0.7,0.3-1.4,0.5-2.1c0-0.2,0.1-0.5,0.2-0.7
							c0.4-1.8,0.9-3.6,1.3-5.4c0.3-1.3,0.6-2.6,0.9-3.9c0.1-0.4,0.2-0.9,0.3-1.3C491.6,577.4,489.9,577.4,488.1,577.3z
							 M396.4,500.9c0.5,0.2,1,0.3,1.4,0.5c0.3,0.1,0.6,0.2,0.8,0.4c0.8,0.3,1.5,0.7,2.2,1.2h0c0,0,0.1,0.1,0.1,0.1
							c0.2,0.1,0.4,0.3,0.6,0.4c0.2,0.2,0.5,0.3,0.7,0.5c0.5,0.3,0.9,0.7,1.3,1.1c1.4,1.3,2.6,2.9,3.4,4.6c0.2,0.5,0.4,1,0.6,1.5
							c0.1,0.3,0.2,0.5,0.3,0.8c0.1,0.3,0.1,0.5,0.2,0.8s0.1,0.5,0.2,0.8c0,0.2,0.1,0.4,0.1,0.6c0,0.1,0,0.3,0,0.4
							c0,0.2,0,0.3,0,0.5c0,0.3,0,0.6,0,0.9c0,0.6,0,1.2-0.1,1.7c0,0.1,0,0.1,0,0.2c0,0.2,0,0.3-0.1,0.5c0,0.2-0.1,0.4-0.1,0.6
							c-0.1,0.3-0.2,0.7-0.3,1c-0.1,0.3-0.2,0.5-0.3,0.8c0,0,0,0,0,0.1c-0.1,0.2-0.2,0.4-0.3,0.7c-0.1,0.2-0.2,0.5-0.3,0.7
							c0,0.1-0.1,0.2-0.2,0.3c0,0.1-0.1,0.2-0.2,0.3c-0.1,0.2-0.2,0.4-0.4,0.6c0,0,0,0,0,0c0,0,0,0-0.1,0.1c0,0.1-0.1,0.2-0.2,0.2
							c-0.1,0.2-0.2,0.3-0.3,0.5c-0.1,0.2-0.3,0.4-0.4,0.5c-0.1,0.1-0.2,0.2-0.3,0.3c-0.1,0.1-0.2,0.3-0.3,0.4
							c-0.1,0.1-0.2,0.2-0.3,0.3c0,0,0,0,0,0c0,0,0,0-0.1,0c0,0-0.1,0.1-0.1,0.2c-0.1,0.1-0.2,0.2-0.3,0.3c-0.1,0.1-0.2,0.2-0.3,0.3
							c-0.3,0.2-0.5,0.5-0.8,0.7c0,0-0.1,0.1-0.1,0.1c-0.1,0.1-0.2,0.1-0.3,0.2c-0.1,0-0.1,0.1-0.2,0.2c-0.5,0.4-1,0.7-1.5,1
							c-0.2,0.2-0.5,0.3-0.8,0.4c-0.1,0.1-0.3,0.2-0.4,0.2c-0.1,0-0.1,0.1-0.2,0.1c-0.1,0.1-0.3,0.1-0.4,0.2
							c-0.2,0.1-0.5,0.2-0.7,0.3c-0.1,0-0.1,0-0.2,0.1c0,0,0,0,0,0c0,0,0,0-0.1,0c0,0-0.1,0-0.1,0c-0.2,0.1-0.4,0.2-0.6,0.2
							c-0.2,0.1-0.3,0.1-0.5,0.2c-0.1,0-0.2,0.1-0.3,0.1c0,0,0,0,0,0c0,0,0,0-0.1,0c-0.1,0-0.2,0.1-0.4,0.1v0c0,0,0,0,0,0
							c-0.1,0-0.3,0.1-0.4,0.1c-0.3,0.1-0.6,0.1-0.9,0.2c-0.1,0-0.2,0.1-0.3,0.1c0,0-0.1,0-0.1,0c0,0-0.1,0-0.1,0
							c-0.1,0-0.2,0-0.3,0c-0.1,0-0.2,0-0.3,0.1c-0.2,0-0.4,0.1-0.5,0.1c-0.1,0-0.3,0-0.4,0.1c-0.2,0-0.5,0-0.7,0.1c0,0-0.1,0-0.1,0
							c-0.1,0-0.2,0-0.3,0h-0.1c-0.1,0-0.2,0-0.3,0H391c0,0,0,0,0,0c-0.1,0-0.2,0-0.2,0h-0.1c-0.2,0-0.4,0-0.6,0c-0.4,0-0.8,0-1.2,0
							c-0.1,0-0.2,0-0.3,0c-0.1,0-0.3,0-0.4,0h0c-0.1,0-0.2,0-0.2,0h-0.1c0,0-0.1,0-0.1,0c-0.1,0-0.1,0-0.2,0c-0.1,0-0.2,0-0.3,0
							c-0.3,0-0.5-0.1-0.8-0.1h0c0,0,0,0,0,0c0,0-0.1,0-0.1,0c-0.3-0.1-0.6-0.1-0.9-0.2c-0.2,0-0.4-0.1-0.6-0.1
							c-0.3-0.1-0.6-0.2-0.9-0.2c-0.1,0-0.2-0.1-0.4-0.1v0c-0.2,0-0.3-0.1-0.5-0.2c-0.1,0-0.3-0.1-0.4-0.1c-0.2-0.1-0.4-0.1-0.6-0.2
							c-0.1,0-0.1,0-0.2-0.1c0,0-0.1,0-0.1-0.1c-0.1,0-0.3-0.1-0.4-0.2c-0.1,0-0.2-0.1-0.2-0.1c-0.1,0-0.2-0.1-0.3-0.1
							c-0.2-0.1-0.3-0.1-0.5-0.2c0,0,0,0,0,0v0c0,0,0,0-0.1,0c0,0-0.1,0-0.1-0.1c-0.3-0.1-0.5-0.3-0.8-0.5c-0.1,0-0.1-0.1-0.2-0.1
							c0,0,0,0,0,0c-0.3-0.2-0.5-0.3-0.8-0.5c-0.6-0.4-1.1-0.8-1.6-1.2c-0.3-0.2-0.5-0.5-0.7-0.7c-0.2-0.2-0.5-0.5-0.7-0.7
							c-0.2-0.2-0.3-0.4-0.5-0.6c-0.2-0.3-0.5-0.6-0.7-0.9c0,0,0,0,0-0.1c-0.2-0.2-0.3-0.5-0.5-0.7c-0.1-0.2-0.2-0.4-0.3-0.6
							c-0.1-0.1-0.1-0.2-0.1-0.3c0,0-0.1-0.1-0.1-0.2c-0.1-0.3-0.3-0.5-0.4-0.8c-0.1-0.1-0.1-0.3-0.2-0.4c-0.1-0.2-0.1-0.3-0.2-0.5
							c0,0,0,0,0,0c-0.1-0.3-0.2-0.5-0.3-0.8c0-0.1,0-0.2-0.1-0.3c-0.1-0.2-0.1-0.4-0.1-0.6c0-0.1-0.1-0.3-0.1-0.4
							c0-0.2-0.1-0.4-0.1-0.6c-0.1-0.7-0.2-1.4-0.2-2.1c0-0.1,0-0.2,0-0.3c0-0.1,0-0.2,0-0.3c0-0.2,0-0.4,0-0.6c0-0.1,0-0.2,0-0.2
							c0-0.1,0-0.3,0.1-0.4c0-0.1,0-0.3,0.1-0.4c0,0,0-0.1,0-0.2c0-0.2,0.1-0.5,0.1-0.7c0,0,0-0.1,0-0.1c0.1-0.3,0.2-0.6,0.3-1
							c0,0,0-0.1,0-0.1c0-0.1,0-0.2,0.1-0.3c0-0.1,0-0.1,0.1-0.2c0.1-0.3,0.3-0.7,0.4-1c0,0,0-0.1,0-0.1c0.1-0.1,0.1-0.3,0.2-0.4
							c0.1-0.3,0.3-0.5,0.4-0.7c0.1-0.2,0.2-0.3,0.3-0.5c0.1-0.2,0.2-0.3,0.3-0.5c0.1-0.2,0.2-0.3,0.4-0.5c0,0,0.1-0.1,0.1-0.1
							c0,0,0.1-0.1,0.1-0.1c0.1-0.1,0.1-0.1,0.2-0.2c0-0.1,0.1-0.2,0.2-0.2c0.4-0.4,0.7-0.8,1.1-1.2c0.2-0.2,0.4-0.4,0.6-0.5
							c0.2-0.2,0.4-0.3,0.6-0.5c0,0,0,0,0.1,0c0.2-0.2,0.4-0.3,0.6-0.5c0.1-0.1,0.2-0.1,0.2-0.2c0.1-0.1,0.2-0.2,0.4-0.2l0,0
							c0,0,0,0,0.1,0c0.2-0.1,0.4-0.3,0.7-0.4c0.1-0.1,0.3-0.1,0.4-0.2c0.3-0.2,0.6-0.4,1-0.5c0.1,0,0.1-0.1,0.2-0.1
							c0.1-0.1,0.2-0.1,0.3-0.2c0.1,0,0.1-0.1,0.2-0.1h0c0.2-0.1,0.5-0.2,0.7-0.3c0.1,0,0.1-0.1,0.2-0.1c0,0,0.1,0,0.1,0
							c0.3-0.1,0.6-0.2,1-0.3c0.5-0.2,1-0.3,1.5-0.4c0.4-0.1,0.7-0.2,1.1-0.2c0.2,0,0.4-0.1,0.6-0.1c0.3,0,0.6-0.1,0.8-0.1
							c0.5-0.1,1.1-0.1,1.6-0.1c0.3,0,0.6,0,0.9,0c0.3,0,0.6,0,0.9,0c0.2,0,0.4,0,0.6,0c0.8,0.1,1.6,0.2,2.4,0.3
							c0.2,0,0.3,0.1,0.5,0.1c0.3,0,0.6,0.1,0.9,0.2C395.7,500.7,396.1,500.8,396.4,500.9z"/>
						<path class="st28" d="M408.5,515.8c0,8.8-8.3,15.9-18.5,15.9c-10.2,0-18.5-7.1-18.5-15.9c0-8.8,8.3-15.9,18.5-15.9
							C400.3,500,408.5,507.1,408.5,515.8L408.5,515.8z"/>
						<path class="st28" d="M496.9,515.8c0,8.8-8.3,15.9-18.5,15.9c-10.2,0-18.5-7.1-18.5-15.9c0-8.8,8.3-15.9,18.5-15.9
							C488.7,500,496.9,507.1,496.9,515.8L496.9,515.8z"/>
						<path class="st29" d="M408.4,517.8C408.4,517.8,408.4,517.8,408.4,517.8c-1.1,7.9-8.9,14-18.3,14c-4,0-7.7-1.1-10.8-3
							c3,1.9,6.8,3,10.8,3C399.5,531.7,407.3,525.6,408.4,517.8L408.4,517.8z"/>
						<path class="st30" d="M383.5,501c-6.9,2.3-11.8,8.1-11.8,14.8c0,5.3,3,10,7.7,12.9c3,1.9,6.7,3,10.8,3
							c9.4,0,17.2-6.1,18.3-13.9c-2.1,0.7-4.3,1-6.6,1c-10.2,0-18.5-7.1-18.5-15.9C383.3,502.3,383.4,501.6,383.5,501L383.5,501z"/>
						<path class="st14" d="M491.5,527.1L491.5,527.1L491.5,527.1C491.5,527.1,491.5,527.1,491.5,527.1
							C491.5,527.1,491.5,527.1,491.5,527.1c0.3-0.2,0.5-0.4,0.7-0.7c0,0,0.1-0.1,0.1-0.1c0.3-0.3,0.5-0.5,0.8-0.8c0,0,0,0,0,0
							c0,0,0,0,0,0c0,0,0.1-0.1,0.1-0.1c0.1-0.1,0.2-0.2,0.3-0.3c0,0,0,0,0.1-0.1c0.1-0.1,0.2-0.2,0.3-0.4c0,0,0,0,0,0c0,0,0,0,0,0
							c0.2-0.3,0.4-0.6,0.6-0.8c0,0,0,0,0,0c0,0,0,0,0,0c0,0,0,0,0,0c0,0,0,0,0-0.1c0.2-0.3,0.3-0.5,0.5-0.8 M464.9,526.6
							c0.1,0.1,0.2,0.2,0.3,0.2c0.1,0.1,0.1,0.1,0.2,0.2c0.4,0.3,0.7,0.6,1.1,0.9c0.1,0.1,0.2,0.1,0.3,0.2c0.2,0.2,0.5,0.3,0.7,0.5
							c0.1,0.1,0.2,0.1,0.3,0.2c0.4,0.3,0.8,0.5,1.2,0.7c0,0,0,0,0.1,0c0.1,0.1,0.2,0.1,0.3,0.2c0.1,0,0.2,0.1,0.3,0.1
							c0.1,0,0.2,0.1,0.2,0.1c0.2,0.1,0.4,0.2,0.7,0.3c0.6,0.2,1.1,0.4,1.7,0.6c0.1,0,0.2,0.1,0.3,0.1c0.1,0,0.2,0,0.2,0.1
							c0,0,0.1,0,0.1,0c0,0,0,0,0,0c0,0,0.1,0,0.1,0c0,0,0,0,0.1,0c0,0,0,0,0,0c0,0,0,0,0,0c0,0,0.1,0,0.2,0c0.2,0,0.3,0.1,0.5,0.1
							c0,0,0,0,0.1,0c0.3,0.1,0.6,0.1,0.9,0.2c0.1,0,0.2,0,0.3,0c0,0,0,0,0,0c0.1,0,0.2,0,0.3,0.1c0.2,0,0.4,0,0.6,0.1
							c0,0,0,0,0.1,0c0.1,0,0.2,0,0.3,0c0.7,0.1,1.4,0.1,2.1,0.1c0.2,0,0.4,0,0.6,0c0,0,0,0,0,0c0.1,0,0.2,0,0.3,0
							c0.3,0,0.6,0,0.9-0.1c0,0,0.1,0,0.1,0c0,0,0,0,0,0c0,0,0,0,0.1,0c0.4,0,0.7-0.1,1-0.1c0.2,0,0.4-0.1,0.6-0.1
							c0.3,0,0.5-0.1,0.8-0.2c0.3,0,0.5-0.1,0.8-0.2c0,0,0.1,0,0.1,0c0,0,0,0,0,0c0,0,0,0,0,0c0,0,0.1,0,0.1,0
							c0.3-0.1,0.5-0.1,0.7-0.2c0.3-0.1,0.6-0.2,0.8-0.3c0,0,0,0,0,0c0,0,0.1,0,0.1,0c0.1,0,0.1,0,0.2-0.1c0.1,0,0.3-0.1,0.4-0.2
							c0.2-0.1,0.4-0.2,0.6-0.3c0.1,0,0.1,0,0.2-0.1c0.1,0,0.1-0.1,0.2-0.1c0.1,0,0.2-0.1,0.3-0.2c0.1,0,0.3-0.1,0.4-0.2
							c0,0,0.1,0,0.1-0.1c0.2-0.1,0.4-0.2,0.6-0.3c0.2-0.1,0.5-0.3,0.7-0.4c0.1-0.1,0.2-0.1,0.3-0.2c0.2-0.1,0.4-0.2,0.6-0.4
							c0,0,0.1-0.1,0.1-0.1c0.1,0,0.1-0.1,0.2-0.2c0.1,0,0.1-0.1,0.2-0.1c0.1,0,0.1-0.1,0.2-0.2c0.1-0.1,0.2-0.2,0.4-0.3
							 M491.5,527.1L491.5,527.1L491.5,527.1c-0.1,0.1-0.2,0.2-0.4,0.3c-0.1,0.1-0.1,0.1-0.2,0.2c-0.1,0-0.1,0.1-0.2,0.1
							c-0.1,0-0.1,0.1-0.2,0.2c0,0-0.1,0.1-0.1,0.1c-0.2,0.1-0.4,0.3-0.6,0.4c-0.1,0.1-0.2,0.2-0.3,0.2c-0.2,0.2-0.5,0.3-0.7,0.4
							c-0.2,0.1-0.4,0.2-0.6,0.3c0,0-0.1,0-0.1,0.1c-0.1,0-0.2,0.1-0.3,0.1c0,0-0.1,0.1-0.1,0.1c-0.1,0.1-0.2,0.1-0.3,0.2
							c-0.1,0-0.1,0.1-0.2,0.1c-0.1,0-0.1,0-0.2,0.1c-0.2,0.1-0.4,0.2-0.6,0.3c-0.1,0-0.3,0.1-0.4,0.2c-0.1,0-0.1,0-0.2,0.1
							c0,0-0.1,0-0.1,0c0,0,0,0,0,0c-0.3,0.1-0.6,0.2-0.8,0.3c-0.2,0.1-0.5,0.1-0.7,0.2c0,0-0.1,0-0.2,0c0,0,0,0,0,0
							c0,0-0.1,0-0.1,0c-0.3,0.1-0.5,0.1-0.8,0.2c-0.3,0.1-0.5,0.1-0.8,0.2c-0.2,0-0.4,0.1-0.6,0.1c-0.2,0-0.5,0.1-0.7,0.1
							c-0.1,0-0.2,0-0.3,0c0,0,0,0-0.1,0c0,0,0,0,0,0c0,0,0,0,0,0c0,0,0,0-0.1,0c-0.1,0-0.2,0-0.3,0c-0.1,0-0.3,0-0.4,0
							c-0.1,0-0.1,0-0.2,0c-0.1,0-0.1,0-0.2,0c0,0-0.1,0-0.1,0c0,0,0,0,0,0c-0.2,0-0.4,0-0.6,0c-0.6,0-1.3,0-1.9-0.1
							c-0.1,0-0.1,0-0.2,0c-0.1,0-0.2,0-0.3,0c0,0,0,0-0.1,0c-0.2,0-0.4,0-0.6-0.1c-0.1,0-0.2,0-0.3,0c0,0-0.1,0-0.1,0
							c-0.1,0-0.2,0-0.3,0c-0.1,0-0.2,0-0.3-0.1c-0.1,0-0.1,0-0.2,0c-0.1,0-0.3,0-0.4-0.1c0,0,0,0-0.1,0c-0.2,0-0.4-0.1-0.5-0.1
							c-0.1,0-0.1,0-0.2,0c0,0,0,0,0,0c0,0,0,0,0,0c0,0,0,0-0.1,0c0,0-0.1,0-0.1,0c0,0,0,0,0,0c0,0-0.1,0-0.1,0
							c-0.2,0-0.3-0.1-0.5-0.1c0,0-0.1,0-0.1,0c-0.6-0.2-1.2-0.4-1.7-0.6c-0.1,0-0.2-0.1-0.3-0.1c-0.2-0.1-0.4-0.2-0.5-0.2
							c0,0-0.1,0-0.1,0c-0.1,0-0.2-0.1-0.3-0.1c-0.1,0-0.1-0.1-0.2-0.1c0,0-0.1,0-0.1-0.1c0,0,0,0-0.1,0c-0.4-0.2-0.8-0.4-1.2-0.7
							c-0.1-0.1-0.2-0.1-0.3-0.2c-0.2-0.1-0.5-0.3-0.7-0.5c-0.1-0.1-0.2-0.1-0.3-0.2c-0.4-0.3-0.8-0.6-1.1-0.9
							c-0.1,0-0.1-0.1-0.2-0.2c-0.1-0.1-0.2-0.2-0.3-0.2c-0.1-0.1-0.2-0.2-0.4-0.3c-0.1-0.1-0.2-0.2-0.3-0.3 M495.2,522.6
							C495.2,522.7,495.1,522.7,495.2,522.6c-0.2,0.4-0.4,0.6-0.5,0.9c0,0,0,0.1-0.1,0.1c0,0,0,0,0,0c0,0,0,0,0,0c0,0,0,0,0,0
							c-0.2,0.3-0.4,0.6-0.6,0.8c0,0,0,0,0,0c0,0,0,0,0,0c-0.1,0.1-0.2,0.3-0.3,0.4c0,0,0,0-0.1,0.1c-0.1,0.2-0.3,0.3-0.4,0.4
							c0,0,0,0,0,0.1c-0.3,0.3-0.5,0.5-0.8,0.8c0,0-0.1,0.1-0.1,0.1c-0.2,0.2-0.4,0.4-0.7,0.6c0,0,0,0-0.1,0v0c0,0,0,0,0,0
							 M495.2,522.6C495.2,522.6,495.2,522.6,495.2,522.6"/>
						<path class="st30" d="M471.9,501c-6.9,2.3-11.8,8.1-11.8,14.8c0,4,1.7,7.6,4.5,10.4c3.4,3.4,8.4,5.5,13.9,5.5
							c7.4,0,13.7-3.7,16.7-9.1c0,0,0,0,0,0c0,0,0,0,0,0c0.8-1.5,1.4-3.1,1.6-4.9c-2.1,0.7-4.3,1-6.6,1c-10.2,0-18.5-7.1-18.5-15.9
							C471.7,502.3,471.8,501.6,471.9,501L471.9,501z"/>
						<polygon class="st28" points="482.7,537.6 472,600.7 403.9,600.7 393.1,537.5 406.2,537.5 412.2,537.5 418.2,537.5 
							424.2,537.5 429.3,537.5 435.3,537.6 446.6,537.6 453.6,537.6 459.6,537.6 465.6,537.6 476.6,537.6 						"/>
						<polygon class="st15" points="435.3,537.6 435.9,600.7 431.3,600.7 429.3,537.5 						"/>
						<polygon class="st15" points="424.2,537.5 427.5,600.7 422.9,600.7 418.2,537.5 						"/>
						<polygon class="st15" points="412.2,537.5 418.3,600.7 413.8,600.7 406.2,537.5 						"/>
						<polygon class="st15" points="399.2,537.5 408.4,600.7 403.9,600.7 393.1,537.5 						"/>
						<polygon class="st15" points="482.7,537.6 472,600.7 467.4,600.7 476.6,537.6 						"/>
						<polygon class="st15" points="471.6,537.6 463.6,600.7 459,600.7 465.6,537.6 						"/>
						<polygon class="st15" points="459.6,537.6 454.4,600.7 449.8,600.7 453.6,537.6 						"/>
						<polygon class="st15" points="446.6,537.6 444.5,600.7 439.9,600.7 440.5,537.6 						"/>
						<polyline class="st14" points="496.4,373.7 496.4,373.7 496.4,373.7 496.4,373.7 496.4,373.7 						"/>
						<polygon class="st31" points="475.1,434 474.3,437.4 474.3,437.4 475.1,434 475.1,434 						"/>
						<polygon class="st32" points="474.3,437.4 473.3,441.4 474.3,437.4 474.3,437.4 						"/>
						<path class="st33" d="M465,477.8L465,477.8c0.1,0.1,0.2,0.2,0.3,0.3C465.2,478,465.1,477.9,465,477.8z M469.5,480.3
							C469.6,480.3,469.6,480.3,469.5,480.3c0.1,0,0.1,0,0.1,0C469.7,480.3,469.6,480.3,469.5,480.3z M471.5,480.3
							C471.5,480.3,471.5,480.3,471.5,480.3C471.5,480.3,471.5,480.3,471.5,480.3C471.5,480.3,471.5,480.3,471.5,480.3z
							 M474.1,479.9c-0.2,0-0.3,0.1-0.5,0.1C473.7,480,473.9,479.9,474.1,479.9C474.1,479.9,474.1,479.9,474.1,479.9L474.1,479.9
							C474.1,479.9,474.1,479.9,474.1,479.9z M474.4,479.8C474.4,479.8,474.4,479.8,474.4,479.8L474.4,479.8
							C474.4,479.8,474.4,479.8,474.4,479.8z M474.5,479.7C474.5,479.7,474.5,479.7,474.5,479.7
							C474.5,479.7,474.5,479.7,474.5,479.7c0.1,0,0.2,0,0.3-0.1C474.7,479.6,474.6,479.7,474.5,479.7z M475.8,479.2
							C475.9,479.2,475.9,479.2,475.8,479.2C475.9,479.2,475.9,479.2,475.8,479.2C475.9,479.2,475.9,479.2,475.8,479.2z
							 M476.2,479.1C476.1,479.1,476.1,479.1,476.2,479.1C476.1,479.1,476.1,479.1,476.2,479.1c0.1,0,0.2-0.1,0.3-0.1
							C476.3,479,476.2,479,476.2,479.1z M477.2,478.5C477.2,478.5,477.2,478.5,477.2,478.5l0.5-1.4L477.2,478.5z"/>
						<path class="st26" d="M471.2,480.4L471.2,480.4c-0.2,0-0.3,0-0.4,0c-0.1,0-0.2,0-0.3,0h-0.1c0.1,0,0.3,0,0.4,0
							C471,480.4,471.1,480.4,471.2,480.4L471.2,480.4z"/>
						<polyline class="st14" points="406.9,439.1 406.9,439.1 406.9,439.1 						"/>
						<path class="st34" d="M408.5,445.8L408.5,445.8c0,0.2-0.1,0.3-0.1,0.5C408.4,446.2,408.5,446,408.5,445.8L408.5,445.8z"/>
						<path class="st35" d="M406.9,439.1c0.6,1.4,1.1,2.7,1.3,3.8c0.2,1.4,0.4,2.3,0.3,3l0,0c0.1-0.7,0-1.6-0.3-3
							C408,441.8,407.6,440.5,406.9,439.1L406.9,439.1z"/>
						<path class="st14" d="M405.9,449.2c0.2-0.2,0.3-0.3,0.5-0.4 M408.3,446.4C408.3,446.4,408.3,446.4,408.3,446.4
							c-0.1,0.3-0.2,0.5-0.4,0.7c0,0,0,0.1-0.1,0.1c-0.1,0.1-0.1,0.2-0.2,0.3 M381.9,443.7c0,0.1,0,0.2,0,0.3L381.9,443.7
							L381.9,443.7z M382,445.8c0-0.1,0-0.2,0-0.4c0,0.2,0,0.5,0.1,0.7C382.1,446.1,382,445.9,382,445.8z"/>
						<path class="st14" d="M384.1,452.7C384.1,452.7,384.1,452.7,384.1,452.7C384.1,452.7,384.1,452.7,384.1,452.7
							C384.1,452.7,384.1,452.7,384.1,452.7C384.1,452.7,384.1,452.7,384.1,452.7"/>
						<path class="st14" d="M445.2,442.6L445.2,442.6"/>
						<polyline class="st14" points="471.4,444 471.4,444 471.4,444 471.4,444 471.4,444 						"/>
						<path class="st14" d="M471.4,443.7C471.4,443.7,471.4,443.7,471.4,443.7c0,0.1,0,0.2,0,0.3c0,0,0,0,0,0
							C471.4,443.9,471.4,443.8,471.4,443.7"/>
						<path class="st35" d="M469.4,452.5c-0.5,0.6-1.4,1.2-2.4,1.6C468,453.7,468.9,453.1,469.4,452.5
							C469.4,452.5,469.4,452.5,469.4,452.5L469.4,452.5z"/>
						<g>
							<g>
								<g>
									<path class="st8" d="M467,445.4c0,0,0.1,4.2-1.2,6.1c-1.3,1.9-6.9,3-7.8,1.2c-3.7,0.4-4.2-1.2-4.2-1.2s-3,0.2-2.8-2
										c-1.9-1.8-2-2-1.6-4.3c0.4-2.3,2.6-6.3,4.9-7.5c2.3-1.2,5.2-1.9,9.2,2.3C467.2,443.5,467,445.4,467,445.4L467,445.4z"/>
								</g>
								<path class="st36" d="M458,452.6c0.4-0.7,1-1.5,1.9-2.3c0.9-0.9,1.9-1.5,2.6-1.9c-0.5,0.7-1.1,1.5-2,2.4
									C459.6,451.6,458.7,452.2,458,452.6z"/>
								<path class="st36" d="M460.3,445.1c-1.2,1-2.4,2.1-3.7,3.3c-1,1-1.9,2-2.8,2.9c0.3-0.9,1-2.3,2.4-3.6
									C457.7,446.2,459.3,445.5,460.3,445.1z"/>
								<path class="st36" d="M457.4,441.5c-1.1,0.9-2.5,2.2-3.9,3.9c-1.1,1.5-1.9,2.9-2.5,4.1c0.2-0.9,0.6-2.8,2-4.6
									C454.6,442.8,456.5,441.8,457.4,441.5z"/>
							</g>
						</g>
						<g>
							<g>
								<g>
									<path class="st8" d="M389.5,446.8c0,0,0.3,4.2,1.7,5.9c1.4,1.7,7.2,2.3,7.9,0.5c3.7,0.1,4.1-1.6,4.1-1.6s3-0.1,2.6-2.2
										c1.7-1.9,1.8-2.2,1.2-4.4c-0.6-2.2-3.2-6-5.6-7c-2.4-1-5.3-1.5-9,3.1C389.2,444.9,389.5,446.8,389.5,446.8L389.5,446.8z"/>
								</g>
								<path class="st36" d="M399.1,453.2c-0.6-0.7-1.4-1.4-2.3-2.1c-0.9-0.7-1.8-1.3-2.5-1.7c0.6,0.7,1.3,1.5,2.3,2.3
									C397.5,452.3,398.4,452.8,399.1,453.2z"/>
								<path class="st36" d="M396.2,445.9c1,1.2,2.2,2.1,3.4,3l1.8,1.3c0.6,0.4,1.2,0.8,1.8,1.4c-0.3-0.5-0.8-1.1-1.4-1.8
									c-0.6-0.6-1.2-1-1.8-1.5C399,447.7,397.7,446.9,396.2,445.9z"/>
								<path class="st36" d="M398.7,442c1.2,1.4,2.4,2.5,3.7,3.7c0.6,0.6,1.2,1.1,1.8,1.7c0.6,0.6,1.2,1.2,1.6,2
									c-0.5-1-1.3-2.4-2.5-3.8C401.7,443.7,399.9,442.6,398.7,442z"/>
							</g>
						</g>
					</g>
				</g>
				<g>
					<path class="st37" d="M534.7,324.8c0,0,12.2,9.7,25.2-7.6c13-17.3,5.7-56.3,6.4-80c0.7-23.7,23.3-64.8,23.3-64.8
						s-19.8,31.5-20.2,77.6c-0.4,46.1,2.6,59.3-4.4,71.4C558,333.5,536.4,330,534.7,324.8z"/>
					<path class="st37" d="M560.8,226.6c0,0,7.7,29.6-1.8,58.4c-9.5,28.8-19.9,32.2-19.9,32.2s14.1,8.5,19-10.1
						C563,288.4,569.4,252,560.8,226.6z"/>
					<path class="st37" d="M574.5,250.9c-2,29.4-2.4,63.4-6,75.8c-3.5,12.4-20.3,6.7-20.3,6.7s22.7,21.9,28.4-5.7
						S574.5,250.9,574.5,250.9z"/>
				</g>
				<path class="st3" d="M331.8,312.2c-3.1-25.1,15.4-44.5,40.6-43c7.5,0.5,14.8,2.9,21.2,6.8c-6.7-3-13.9-4.8-21.2-4.9
					C347.9,270.8,331.8,288,331.8,312.2L331.8,312.2z"/>
				<path class="st3" d="M489.7,259.2c15,9.3,20.3,29.1,10.1,43.9c-3.1,4.6-7.4,8.4-12.3,10.8c6.7-5.1,12-11.9,14.2-20
					C505.2,281,499.5,268,489.7,259.2L489.7,259.2z"/>
			</g>
			<linearGradient id="SVGID_1_" gradientUnits="userSpaceOnUse" x1="340.0213" y1="371.9276" x2="513.4705" y2="371.9276">
				<stop  offset="0.4118" style="stop-color:#E3F4FF"/>
				<stop  offset="0.7063" style="stop-color:#E1F3FF"/>
				<stop  offset="0.8516" style="stop-color:#D9F0FF"/>
				<stop  offset="0.9639" style="stop-color:#CCEAFF"/>
				<stop  offset="1" style="stop-color:#C6E7FF"/>
			</linearGradient>
			<path class="st38" d="M513.5,457.9c-11.4,4.4-22.7,8.7-34.1,13.1c-0.2-0.1-0.4-0.1-0.7-0.2c-2.3-0.8-4.3-2.1-5.9-3.4
				c-14.3,0-28.6,0-42.9,0c-15.5,0-31,0-46.5,0c-0.8,1.2-1.7,2.5-2.5,3.7c-13.6-4.4-27.2-8.8-40.8-13.1c0-61.7,0-123.4,0-185.1
				h173.4V457.9z"/>
			<g>
				<path class="st18" d="M335.2,457.9c0,0,0-185.1,0-185.1v-2.7l4.8-2.1c43.5-17.4,106.5-18.6,151.8-7.3c9,2.3,18,5.4,26.5,9.5
					c0,0,0,2.6,0,2.6v185.1h-9.6c0,0,0-185.1,0-185.1s4.8,4.8,4.8,4.8c-39.2,16.3-88.5,17.2-130.1,11.3
					c-14.7-2.3-29.5-5.5-43.4-11.3c0,0,4.8-4.8,4.8-4.8s0,185.1,0,185.1H335.2L335.2,457.9z"/>
			</g>
			<g>
				<polygon class="st15" points="494.9,378.3 509,332.6 534.7,326 529,340.3 521,338.9 504.4,381.2 494.9,378.3 				"/>
				<polygon class="st16" points="514.6,331.1 509,332.6 501.8,355.9 496.4,373.7 498.7,374.9 498.7,374.9 505.5,378.4 506.9,374.9 
					501.7,373.3 514.6,331.1 				"/>
				<polygon class="st16" points="522.9,333.9 521,338.9 529,340.3 531.3,334.5 522.9,333.9 				"/>
				<path class="st15" d="M464.6,477.4l25.8-106.7l21.7,11.2l-34.9,96.7C477.2,478.5,469.5,483.4,464.6,477.4L464.6,477.4z"/>
				<path class="st16" d="M490.4,370.6L475.1,434l-0.8,3.4l-1,4l-8.7,35.9c1.8,2.2,3.9,2.9,5.9,3c0.1,0,0.2,0,0.3,0
					c0.1,0,0.2,0,0.3,0c3.3-0.1,6-1.9,6-1.9l0.9-2.4c-1.1-0.4-2.3-1.2-3.3-2.4l23.8-98.8l-2.3-1.2l0,0L490.4,370.6L490.4,370.6z"/>
			</g>
		</g>
		<g>
			<path class="st3" d="M381.6,215.1c11.2,13.4,27.3,22.5,44.7,24.2c5.8,0.6,11.6,0.4,17.5-0.3C421,246.2,393.8,235.7,381.6,215.1
				L381.6,215.1z"/>
			<path class="st3" d="M286.3,323.6c-14.1,10.1-18.8,27.1-11,42.8C263.8,352.3,269.7,330.6,286.3,323.6L286.3,323.6z"/>
		</g>
	</g>
	<circle class="st39" cx="428.3" cy="450.2" r="0.8"/>
	<circle class="st39" cx="428.9" cy="442.9" r="0.8"/>
	<circle class="st39" cx="425.4" cy="420.7" r="0.8"/>
</g>
</svg>
