<?xml version="1.0" encoding="utf-8"?>
<!-- Generator: Adobe Illustrator 26.0.1, SVG Export Plug-In . SVG Version: 6.00 Build 0)  -->
<svg version="1.1" id="Layer_1" xmlns="http://www.w3.org/2000/svg" xmlns:xlink="http://www.w3.org/1999/xlink" x="0px" y="0px"
	 viewBox="0 0 826 742" style="enable-background:new 0 0 826 742;" xml:space="preserve">
<style type="text/css">
	.st0{clip-path:url(#SVGID_00000121280573872597699560000005854492633979322517_);}
	.st1{fill:#A5E0DC;}
	.st2{fill:#00747D;}
	.st3{fill:#00626F;}
	.st4{fill:#EF303E;}
	.st5{fill:#C4233E;}
	.st6{fill:#414042;}
	.st7{fill:#58595B;}
	.st8{fill:#F24C4C;}
	.st9{fill:#395E99;}
	.st10{fill:#FFFFFF;}
	.st11{fill:#D1D1D1;}
	.st12{fill:#F4A671;}
	.st13{clip-path:url(#SVGID_00000060736189626956285100000006902300842923713159_);}
	.st14{fill:#F4CCAB;}
	.st15{fill:#211511;}
	.st16{fill:#E5E5E5;}
	.st17{fill:#DD915E;}
	.st18{fill:#1E1A14;}
	.st19{fill:#921F33;}
	.st20{fill:#CD3735;}
	.st21{fill:#96753B;}
	.st22{fill:#140408;}
	.st23{fill:#666666;}
	.st24{fill:#212121;}
	.st25{fill:#89513A;}
	.st26{fill:#B5794D;}
	.st27{fill:#13121C;}
	.st28{fill:#363160;}
	.st29{fill:#21151E;}
	.st30{fill:#6A66BF;}
	.st31{fill:#282828;}
	.st32{opacity:0.6;}
	.st33{fill:#E4887F;}
	.st34{fill:#300B18;}
	.st35{fill:#FFB886;}
	.st36{fill:#C6093A;}
	.st37{clip-path:url(#SVGID_00000053533977951266502100000002916204838468026539_);}
	.st38{fill:#432B16;}
	.st39{clip-path:url(#SVGID_00000083047188251985663760000003836416040857062326_);}
	.st40{opacity:0.6;fill:#F58E6F;}
	.st41{fill:url(#SVGID_00000157287119160710277490000003319348959365954457_);}
	.st42{fill:#E86A54;}
	.st43{fill:#B24234;}
	.st44{fill:none;}
	.st45{fill:url(#SVGID_00000139994700122973140790000003663527656689162398_);}
	.st46{fill:url(#SVGID_00000016774062414457712870000000149368471987807654_);}
	.st47{fill:url(#SVGID_00000116934093458994377650000008524557662030407101_);}
	.st48{fill:url(#SVGID_00000052082979180017329380000017609800790827737483_);}
	.st49{fill:url(#SVGID_00000067205733577127834170000010687597217561005227_);}
	.st50{fill:url(#SVGID_00000128455429921799493150000010580754600154009771_);}
	.st51{fill:#E09A61;}
	.st52{fill:#C47947;}
	.st53{fill:#EACE73;}
	.st54{fill:#FCE9ED;}
	.st55{fill:#282125;}
	.st56{fill:#1F1A1C;}
	.st57{fill:#FFF7EF;}
	.st58{fill:#D1AF4E;}
	.st59{fill:#F5EFEC;}
	.st60{fill:none;stroke:#2E2A2B;stroke-width:0.1578;stroke-linecap:round;stroke-linejoin:round;stroke-miterlimit:10;}
	.st61{fill:#443E42;}
	.st62{fill:#2E2A2B;}
	.st63{fill:#524A50;}
	.st64{fill:#F4D3BB;}
	.st65{fill:#FFC7D0;}
	.st66{fill:#262626;}
	.st67{fill:#FFD7DC;}
	.st68{fill:#EF6F7B;}
	.st69{clip-path:url(#SVGID_00000121280573872597699560000005854492633979322517_);fill:#262626;}
	.st70{clip-path:url(#SVGID_00000121280573872597699560000005854492633979322517_);fill:#020202;}
	.st71{clip-path:url(#SVGID_00000121280573872597699560000005854492633979322517_);fill:#1E1A14;}
	.st72{clip-path:url(#SVGID_00000121280573872597699560000005854492633979322517_);fill:#CE2026;}
	.st73{fill:#BEF4EF;}
	.st74{fill:#81CCC6;}
</style>
<g>
	<defs>
		<path id="SVGID_1_" d="M797.6,537.1c4,14.9,1,30.7-7.5,43.6C660.4,776.1,160.7,745,64.5,599.1C-19,472.4,47.8,359.9,147.4,318
			c-0.1-1.7,121.4-26.4,122.3-43.4c9.7-14.1,5.9-28.9,5.5-44.9c3.6-84.6,88.1-185.1,197.8-161.3c55.5,17.1,67,101.8,145.9,118.7
			c29.9,7.7,41.6,3.4,59.4,9.6c31.8,11,46.4,46.4,47.7,49.7c19,47.8-30,72-28.3,129C699.8,448.4,782.5,480.7,797.6,537.1z"/>
	</defs>
	<clipPath id="SVGID_00000127004042841704945590000008552471477654705318_">
		<use xlink:href="#SVGID_1_"  style="overflow:visible;"/>
	</clipPath>
	<g style="clip-path:url(#SVGID_00000127004042841704945590000008552471477654705318_);">
		<path class="st1" d="M797.6,537.1c4,14.9,1,30.7-7.5,43.6C660.4,776.1,160.7,745,64.5,599.1C-19,472.4,47.8,359.9,147.4,318
			c-0.1-1.7,121.4-26.4,122.3-43.4c9.7-14.1,5.9-28.9,5.5-44.9c3.6-84.6,88.1-185.1,197.8-161.3c55.5,17.1,67,101.8,145.9,118.7
			c29.9,7.7,41.6,3.4,59.4,9.6c31.8,11,46.4,46.4,47.7,49.7c19,47.8-30,72-28.3,129C699.8,448.4,782.5,480.7,797.6,537.1z"/>
		<path class="st2" d="M827.3,567.8c-2.8,11-9,29.9-24.8,49.7c-122,152.5-648.8,147-774.4-21.9C5.8,565.7,0,535.8-1.6,516.2
			c143-6,293.3-9.5,450.3-9.6c122.1,0,240,2,353.7,5.7C819.7,528.5,831.5,545.8,827.3,567.8z"/>
		<ellipse class="st3" cx="407" cy="616.2" rx="279.4" ry="65.4"/>
	</g>
	<g style="clip-path:url(#SVGID_00000127004042841704945590000008552471477654705318_);">
		<g>
			<g>
				<g id="_x35__00000070113421343540402770000006981051978375931532_">
					<g>
						<path class="st4" d="M371.5,559.3C371.5,559.3,371.5,559.3,371.5,559.3c1.8-2.1,4.3-3.3,6.9-3.4c1,0,1.8,0.1,2.5,0.3
							c1.2,0.3,2.1,1.5,2,2.8l0,0c0,0-8.9,5.5-10.6,4.3c-0.3-0.2-0.6-0.4-0.8-0.7C370.6,561.7,370.6,560.3,371.5,559.3z"/>
						<path class="st5" d="M372.1,559.8C372.1,559.8,372.1,559.8,372.1,559.8c1.7-1.8,4-2.9,6.4-3.2c0.9-0.1,1.6,0,2.2,0.1
							c1.1,0.2,1.8,1.1,1.6,2.1l0,0c0,0-8.3,5-9.8,4.2c-0.3-0.1-0.5-0.3-0.6-0.5C371.2,561.8,371.3,560.6,372.1,559.8z"/>
					</g>
					<g>
						
							<rect x="384.9" y="558.8" transform="matrix(-0.8899 0.4561 -0.4561 -0.8899 986.2841 880.6262)" class="st6" width="4" height="1"/>
						<g>
							<g>
								
									<rect x="383.8" y="559.3" transform="matrix(0.8899 -0.4561 0.4561 0.8899 -213.1572 237.3345)" class="st4" width="2.6" height="1.9"/>
							</g>
							<path class="st7" d="M354.9,569.2c0-0.5,0.1-1,0.4-1.4l0.5,0.9L354.9,569.2z"/>
							<path class="st8" d="M351.6,568.9c2.4-1.3,5.6-3,8.8-4.7c0.3-0.1,0.6-0.3,0.8-0.4c1.5-0.8,3-1.6,4.4-2.4l1.5,0.5l-16.8,8.6
								C350.6,569.8,351,569.2,351.6,568.9z"/>
							<path class="st4" d="M350.6,572.1c-0.1-0.2-0.2-0.4-0.2-0.6c-0.1-0.3-0.1-0.7,0-1l16.8-8.6l0.9,0.3l0.4,3.5l0.2,1.9l0.1-0.8
								l12.1-6.2l0.1,0.2l0.6,1l0.7,1.1l-28.7,14.7L350.6,572.1z"/>
							<polygon class="st5" points="382.2,562.9 382.4,563.2 381.4,563.7 380.6,564.1 379.6,564.6 377.6,565.7 376.6,566.2 
								375.8,566.6 375.3,566.9 374.2,569.3 362.4,575.4 360.3,574.7 360,574.9 359.6,575.1 355.4,577.3 354.9,577.5 354.2,577.9 
								353.8,578.1 353.5,577.6 							"/>
							<polygon class="st9" points="363.4,566.9 364.9,567.5 368.4,565.7 368.6,566.9 368.7,566.8 368.8,568 357.8,573.5 
								356.3,572.8 356.2,570.6 							"/>
							<g>
								<path class="st6" d="M372.5,567.8c1.7,3.3,5.7,4.6,9,2.9c3.3-1.7,4.6-5.7,2.9-9c-1.7-3.3-5.7-4.6-9-2.9
									C372.1,560.5,370.8,564.5,372.5,567.8z"/>
								<g>
									<path class="st6" d="M375.7,558l1.5-0.7c0.4-0.2,0.8,0,0.9,0.4l0.3,1.2l-2.5,0.5l-0.3-0.6
										C375.3,558.6,375.4,558.2,375.7,558z"/>
									<path class="st6" d="M381.2,559.6l-2.5-0.8l0-0.6c0-0.3,0.3-0.6,0.6-0.6l1.6,0.1c0.4,0,0.7,0.4,0.5,0.8L381.2,559.6z"/>
									<path class="st6" d="M383.4,561.7l-1.7-2l0.3-0.5c0.2-0.3,0.6-0.4,0.8-0.2l1.4,0.9c0.3,0.2,0.4,0.7,0.1,1L383.4,561.7z"/>
									<path class="st6" d="M383.7,562l0.6-0.3c0.3-0.2,0.7,0,0.8,0.3l0.7,1.5c0.2,0.4,0,0.8-0.4,0.9l-1.2,0.3L383.7,562z"/>
									<path class="st6" d="M384.4,565l0.6,0c0.3,0,0.6,0.3,0.6,0.6l-0.1,1.6c0,0.4-0.4,0.7-0.8,0.5l-1.2-0.4L384.4,565z"/>
									<path class="st6" d="M384,568.3c0.3,0.2,0.4,0.6,0.2,0.8l-0.9,1.4c-0.2,0.3-0.7,0.4-1,0.1l-0.8-0.9l2-1.7L384,568.3z"/>
									<path class="st6" d="M378.6,570.6l2.5-0.5l0.3,0.6c0.2,0.3,0,0.7-0.3,0.8l-1.5,0.7c-0.4,0.2-0.8,0-0.9-0.4L378.6,570.6z"/>
									<path class="st6" d="M375.7,569.9l2.5,0.8l0,0.6c0,0.3-0.3,0.6-0.6,0.6l-1.6-0.1c-0.4,0-0.7-0.4-0.5-0.8L375.7,569.9z"/>
									<path class="st6" d="M372.6,568.6l0.9-0.8l1.7,2l-0.3,0.5c-0.2,0.3-0.6,0.4-0.8,0.2l-1.4-0.9
										C372.3,569.4,372.3,568.9,372.6,568.6z"/>
									<path class="st6" d="M373.1,567.5l-0.6,0.3c-0.3,0.2-0.7,0-0.8-0.3l-0.7-1.5c-0.2-0.4,0-0.8,0.4-0.9l1.2-0.3L373.1,567.5z"
										/>
									<path class="st6" d="M372.5,564.5l-0.6,0c-0.3,0-0.6-0.3-0.6-0.6l0.1-1.6c0-0.4,0.4-0.7,0.8-0.5l1.2,0.4L372.5,564.5z"/>
									<path class="st6" d="M372.9,561.2c-0.3-0.2-0.4-0.6-0.2-0.8l0.9-1.4c0.2-0.3,0.7-0.4,1-0.1l0.8,0.9l-2,1.7L372.9,561.2z"/>
								</g>
								<path class="st10" d="M374.6,566.7c-1.1-2.1-0.2-4.7,1.9-5.8c1-0.5,2.1-0.6,3-0.3l-2.6,8.2
									C375.9,568.4,375.1,567.7,374.6,566.7z"/>
								<path class="st11" d="M379.5,560.6c1.1,0.3,2.2,1.1,2.8,2.2c1.1,2.1,0.2,4.7-1.9,5.8c-1.1,0.6-2.4,0.6-3.5,0.2L379.5,560.6z
									"/>
								<path class="st6" d="M376.4,565.8c0.6,1.1,2,1.6,3.1,1c1.1-0.6,1.6-2,1-3.1c-0.6-1.1-2-1.6-3.1-1
									C376.2,563.3,375.8,564.7,376.4,565.8z"/>
								<g>
									<path class="st6" d="M378.2,560.8c0.2-0.1,0.5,0,0.6,0.2c0.1,0.2,0,0.5-0.2,0.6s-0.5,0-0.6-0.2
										C377.9,561.2,378,560.9,378.2,560.8z"/>
									<path class="st6" d="M380.8,561.5c0.3,0.1,0.4,0.3,0.4,0.6c-0.1,0.3-0.3,0.4-0.6,0.4c-0.3-0.1-0.4-0.3-0.4-0.6
										C380.3,561.6,380.5,561.5,380.8,561.5z"/>
									<path class="st6" d="M381.6,563.7c0.2-0.2,0.5-0.1,0.7,0.1c0.2,0.2,0.1,0.5-0.1,0.7c-0.2,0.2-0.5,0.1-0.7-0.1
										C381.4,564.1,381.4,563.8,381.6,563.7z"/>
									<path class="st6" d="M381.5,565.9c0.3,0,0.5,0.2,0.4,0.5c0,0.3-0.2,0.5-0.5,0.4c-0.3,0-0.5-0.2-0.4-0.5
										C381,566.1,381.3,565.9,381.5,565.9z"/>
									<path class="st6" d="M379.3,567.6c0.2-0.2,0.5-0.2,0.7,0c0.2,0.2,0.2,0.5,0,0.7c-0.2,0.2-0.5,0.2-0.7,0
										C379.2,568.1,379.2,567.8,379.3,567.6z"/>
									<path class="st6" d="M377.3,567.5c0.3,0,0.5,0.2,0.5,0.4c0,0.3-0.1,0.5-0.4,0.5c-0.3,0-0.5-0.2-0.5-0.4
										C376.8,567.8,377,567.5,377.3,567.5z"/>
									<path class="st6" d="M375.1,566.2c0.1-0.2,0.4-0.3,0.6-0.1c0.2,0.1,0.3,0.4,0.1,0.6c-0.1,0.2-0.4,0.3-0.6,0.1
										C375,566.7,374.9,566.4,375.1,566.2z"/>
									<path class="st6" d="M375.2,564.6c-0.2,0.1-0.5-0.1-0.6-0.3c-0.1-0.2,0.1-0.5,0.3-0.6c0.2-0.1,0.5,0.1,0.6,0.3
										S375.4,564.5,375.2,564.6z"/>
									<path class="st6" d="M376.4,561.6c0.2,0.1,0.4,0.4,0.3,0.6c-0.1,0.2-0.4,0.4-0.6,0.3c-0.2-0.1-0.4-0.4-0.3-0.6
										C375.9,561.6,376.2,561.5,376.4,561.6z"/>
								</g>
								<path class="st4" d="M377.4,565.3c0.3,0.6,1,0.8,1.6,0.5c0.6-0.3,0.8-1,0.5-1.6s-1-0.8-1.6-0.5
									C377.3,564,377,564.7,377.4,565.3z"/>
							</g>
							<g>
								<path class="st6" d="M353.3,580.1c1.3,2.6,4.5,3.6,7.1,2.3s3.6-4.5,2.3-7.1c-1.3-2.6-4.5-3.6-7.1-2.3
									C353,574.4,352,577.5,353.3,580.1z"/>
								<path class="st10" d="M354.6,579.5c-1-1.9-0.2-4.2,1.7-5.2c1-0.5,2.1-0.5,3-0.2l-2.3,7.3
									C355.9,581.1,355.1,580.4,354.6,579.5z"/>
								<path class="st11" d="M359.3,574.1c0.9,0.3,1.7,1,2.1,1.9c1,1.9,0.2,4.2-1.7,5.2c-0.9,0.5-1.9,0.5-2.8,0.3L359.3,574.1z"/>
								<path class="st6" d="M356.8,578.3c0.3,0.6,1.1,0.9,1.8,0.6c0.6-0.3,0.9-1.1,0.6-1.8c-0.3-0.6-1.1-0.9-1.8-0.6
									C356.8,576.9,356.5,577.7,356.8,578.3z"/>
								<g>
									<circle class="st6" cx="358" cy="574.6" r="0.4"/>
									<path class="st6" d="M360.1,574.9c0.2,0.1,0.4,0.3,0.3,0.5c-0.1,0.2-0.3,0.4-0.5,0.3c-0.2-0.1-0.4-0.3-0.3-0.5
										C359.6,574.9,359.9,574.8,360.1,574.9z"/>
									<path class="st6" d="M360.8,576.8c0.2-0.1,0.4-0.1,0.6,0.1s0.1,0.4-0.1,0.6c-0.2,0.1-0.4,0.1-0.6-0.1
										C360.6,577.2,360.6,576.9,360.8,576.8z"/>
									<path class="st6" d="M360.7,578.8c0.2,0,0.4,0.2,0.4,0.4c0,0.2-0.2,0.4-0.4,0.4c-0.2,0-0.4-0.2-0.4-0.4
										C360.3,578.9,360.5,578.7,360.7,578.8z"/>
									<path class="st6" d="M358.8,580.3c0.2-0.2,0.4-0.2,0.6,0c0.2,0.2,0.2,0.4,0,0.6c-0.2,0.2-0.4,0.2-0.6,0
										C358.7,580.7,358.7,580.4,358.8,580.3z"/>
									<path class="st6" d="M356.9,580.1c0.2,0,0.4,0.1,0.5,0.4c0,0.2-0.1,0.4-0.4,0.5c-0.2,0-0.4-0.1-0.5-0.4
										C356.6,580.4,356.7,580.2,356.9,580.1z"/>
									<path class="st6" d="M355,579c0.1-0.2,0.4-0.2,0.6-0.1c0.2,0.1,0.2,0.4,0.1,0.6c-0.1,0.2-0.4,0.2-0.6,0.1
										C355,579.4,354.9,579.2,355,579z"/>
									<path class="st6" d="M355.1,577.5c-0.2,0.1-0.5-0.1-0.5-0.3c-0.1-0.2,0.1-0.5,0.3-0.5c0.2-0.1,0.5,0.1,0.5,0.3
										C355.4,577.2,355.3,577.5,355.1,577.5z"/>
									<path class="st6" d="M356.2,574.9c0.2,0.1,0.3,0.3,0.2,0.5c-0.1,0.2-0.3,0.3-0.5,0.2c-0.2-0.1-0.3-0.3-0.2-0.5
										S356,574.8,356.2,574.9z"/>
								</g>
							</g>
							<g>
								<path class="st6" d="M350.6,572.1l0.1,0.1l1-0.5c0.1-0.1,0.2-0.1,0.2-0.2c0-0.1,0-0.2,0-0.3c-0.1-0.2-0.3-0.3-0.5-0.2
									l-0.9,0.5C350.5,571.6,350.5,571.8,350.6,572.1z"/>
								<path class="st6" d="M350.9,572.5l0.4,0.7l1-0.5c0.1-0.1,0.2-0.1,0.2-0.2c0-0.1,0-0.2,0-0.3c-0.1-0.2-0.3-0.3-0.5-0.2
									L350.9,572.5z"/>
								<path class="st6" d="M351.4,573.6l0.4,0.7l1-0.5c0.1-0.1,0.2-0.1,0.2-0.2c0-0.1,0-0.2,0-0.3c-0.1-0.2-0.3-0.3-0.5-0.2
									L351.4,573.6z"/>
								<path class="st6" d="M351.9,574.6l0.4,0.7l1-0.5c0.1-0.1,0.2-0.1,0.2-0.2c0-0.1,0-0.2,0-0.3c-0.1-0.2-0.3-0.3-0.5-0.2
									L351.9,574.6z"/>
								
									<rect x="362.4" y="563.3" transform="matrix(0.8899 -0.4561 0.4561 0.8899 -216.9662 228.0909)" class="st6" width="3.3" height="0.4"/>
								
									<rect x="362.8" y="564.1" transform="matrix(0.8899 -0.4561 0.4561 0.8899 -217.2548 228.3392)" class="st6" width="3.3" height="0.4"/>
								
									<rect x="363.2" y="564.8" transform="matrix(0.8899 -0.4561 0.4561 0.8899 -217.5434 228.5876)" class="st6" width="3.3" height="0.4"/>
							</g>
							<path class="st6" d="M365.5,561c0.3,0.2,0.6,0.3,1,0.4l-0.1,0.2l0.8,0.5l0.1-0.6c0.7,0,1.3-0.1,1.7-0.3l0,0
								c0.4-0.2,0.6-0.4,0.6-0.7c0.1-0.7-1-1.3-2.3-1.4c-0.7-0.1-1.4,0.1-1.9,0.3c-0.4,0.2-0.6,0.4-0.6,0.7
								C364.8,560.4,365.1,560.8,365.5,561z M369.1,559.9l-1.7,1.2l-0.6-0.1l-1-1.4c0.4-0.1,1-0.2,1.5-0.2
								C368,559.4,368.7,559.6,369.1,559.9z M369,561c-0.4,0.2-0.9,0.3-1.4,0.3l1.7-1.2c0.1,0.1,0.2,0.3,0.2,0.4
								C369.4,560.6,369.3,560.8,369,561L369,561z M365.1,560.1c0-0.2,0.2-0.4,0.4-0.5c0,0,0,0,0,0l1,1.4l0,0.1
								c-0.3-0.1-0.7-0.2-0.9-0.3C365.3,560.6,365.1,560.3,365.1,560.1z"/>
						</g>
					</g>
				</g>
				<g>
					<path class="st12" d="M385.6,556.7c2.4,2.2,1.8,6.1-1.2,7.5c-0.3,0.1-0.6,0.2-1,0.3c-2,0.4-3.8,0.6-3.8,0.6s-3.6,2.8-4.9,2.9
						c-1.5,0.2-2.3-0.4-2.4-1c0-0.6,2.8-2.4,3.6-3.2c0.9-0.7,2.8-2.2,2.8-2.2l-4.1-1.9c0,0-6.1,3.7-7.2,3.5
						c-1.1-0.2-1.4-0.5-1.4-0.5s-2.7,1.4-3.7-0.3c4.7-4.1,7.5-5.5,8.9-6.1C372.8,555.6,384.3,555.6,385.6,556.7
						C385.6,556.7,385.6,556.7,385.6,556.7z"/>
					<path class="st12" d="M386.4,560.9c0,0-3.2,0.3-5.1-0.4c-1.9-0.7-7.9-3.9-7.9-3.9s-3.7,1.9-4.7,2.5c-1,0.7-2.8,2.5-4,2.7
						c-1.2,0.2-2.1-0.3-1.9-0.7c0.2-0.4,3.6-4,4.1-4.5c0.5-0.5,4.7-3.2,6-3.5c1.3-0.4,7.1,0.4,10.4,1.7
						C386.5,556.2,386.8,560.2,386.4,560.9z"/>
				</g>
				<path class="st12" d="M386,559.2c0.6,1.1,0.3,2.4,0.9,2.5c0.4,0.1,0.6-0.4,1.7-0.8c0.5-0.2,0.9-0.3,1.5-0.3
					c0.8-0.1,2-0.3,3.7-0.4c-0.3-2.2-0.6-4.5-0.9-6.7c-1.8,0.7-3.2,1-4.2,1c-2.6,0.2-5.8-0.4-6.1-0.4c-1.5-0.2-3.1-0.2-3.1-0.2
					s0.5,1.6,0.7,1.8C381.9,558,384.8,557.1,386,559.2z"/>
				<g>
					<defs>
						<path id="SVGID_00000076593142088100195050000015268481708324624260_" d="M373.1,557.8c1.2,0,2.6-0.1,3.8,0.8
							c1.2,0.9,1.6,2.2,1.8,3.1c-1.8,1.1-4.7,2.5-8.4,3.2c-3.5,0.6-10.7,1.1-11.7-1.5c-0.7-1.9,1.6-5.2,4.4-6.4
							C366,555.8,366.8,558,373.1,557.8z"/>
					</defs>
					<clipPath id="SVGID_00000145058996466751939630000003109308935246514355_">
						<use xlink:href="#SVGID_00000076593142088100195050000015268481708324624260_"  style="overflow:visible;"/>
					</clipPath>
					
						<g id="_x35__00000136400149210391355520000015175504893657934210_" style="clip-path:url(#SVGID_00000145058996466751939630000003109308935246514355_);">
						<g>
							<path class="st4" d="M371.5,559.3C371.5,559.3,371.5,559.3,371.5,559.3c1.8-2.1,4.3-3.3,6.9-3.4c1,0,1.8,0.1,2.5,0.3
								c1.2,0.3,2.1,1.5,2,2.8l0,0c0,0-8.9,5.5-10.6,4.3c-0.3-0.2-0.6-0.4-0.8-0.7C370.6,561.7,370.6,560.3,371.5,559.3z"/>
							<path class="st5" d="M372.1,559.8C372.1,559.8,372.1,559.8,372.1,559.8c1.7-1.8,4-2.9,6.4-3.2c0.9-0.1,1.6,0,2.2,0.1
								c1.1,0.2,1.8,1.1,1.6,2.1l0,0c0,0-8.3,5-9.8,4.2c-0.3-0.1-0.5-0.3-0.6-0.5C371.2,561.8,371.3,560.6,372.1,559.8z"/>
						</g>
						<g>
							
								<rect x="384.9" y="558.8" transform="matrix(-0.8899 0.4561 -0.4561 -0.8899 986.2841 880.6262)" class="st6" width="4" height="1"/>
							<g>
								<g>
									
										<rect x="383.8" y="559.3" transform="matrix(0.8899 -0.4561 0.4561 0.8899 -213.1572 237.3345)" class="st4" width="2.6" height="1.9"/>
								</g>
								<path class="st7" d="M354.9,569.2c0-0.5,0.1-1,0.4-1.4l0.5,0.9L354.9,569.2z"/>
								<path class="st8" d="M351.6,568.9c2.4-1.3,5.6-3,8.8-4.7c0.3-0.1,0.6-0.3,0.8-0.4c1.5-0.8,3-1.6,4.4-2.4l1.5,0.5l-16.8,8.6
									C350.6,569.8,351,569.2,351.6,568.9z"/>
								<path class="st4" d="M350.6,572.1c-0.1-0.2-0.2-0.4-0.2-0.6c-0.1-0.3-0.1-0.7,0-1l16.8-8.6l0.9,0.3l0.4,3.5l0.2,1.9l0.1-0.8
									l12.1-6.2l0.1,0.2l0.6,1l0.7,1.1l-28.7,14.7L350.6,572.1z"/>
								<polygon class="st5" points="382.2,562.9 382.4,563.2 381.4,563.7 380.6,564.1 379.6,564.6 377.6,565.7 376.6,566.2 
									375.8,566.6 375.3,566.9 374.2,569.3 362.4,575.4 360.3,574.7 360,574.9 359.6,575.1 355.4,577.3 354.9,577.5 354.2,577.9 
									353.8,578.1 353.5,577.6 								"/>
								<polygon class="st9" points="363.4,566.9 364.9,567.5 368.4,565.7 368.6,566.9 368.7,566.8 368.8,568 357.8,573.5 
									356.3,572.8 356.2,570.6 								"/>
								<g>
									<path class="st6" d="M372.5,567.8c1.7,3.3,5.7,4.6,9,2.9c3.3-1.7,4.6-5.7,2.9-9c-1.7-3.3-5.7-4.6-9-2.9
										C372.1,560.5,370.8,564.5,372.5,567.8z"/>
									<g>
										<path class="st6" d="M375.7,558l1.5-0.7c0.4-0.2,0.8,0,0.9,0.4l0.3,1.2l-2.5,0.5l-0.3-0.6
											C375.3,558.6,375.4,558.2,375.7,558z"/>
										<path class="st6" d="M381.2,559.6l-2.5-0.8l0-0.6c0-0.3,0.3-0.6,0.6-0.6l1.6,0.1c0.4,0,0.7,0.4,0.5,0.8L381.2,559.6z"/>
										<path class="st6" d="M383.4,561.7l-1.7-2l0.3-0.5c0.2-0.3,0.6-0.4,0.8-0.2l1.4,0.9c0.3,0.2,0.4,0.7,0.1,1L383.4,561.7z"/>
										<path class="st6" d="M383.7,562l0.6-0.3c0.3-0.2,0.7,0,0.8,0.3l0.7,1.5c0.2,0.4,0,0.8-0.4,0.9l-1.2,0.3L383.7,562z"/>
										<path class="st6" d="M384.4,565l0.6,0c0.3,0,0.6,0.3,0.6,0.6l-0.1,1.6c0,0.4-0.4,0.7-0.8,0.5l-1.2-0.4L384.4,565z"/>
										<path class="st6" d="M384,568.3c0.3,0.2,0.4,0.6,0.2,0.8l-0.9,1.4c-0.2,0.3-0.7,0.4-1,0.1l-0.8-0.9l2-1.7L384,568.3z"/>
										<path class="st6" d="M378.6,570.6l2.5-0.5l0.3,0.6c0.2,0.3,0,0.7-0.3,0.8l-1.5,0.7c-0.4,0.2-0.8,0-0.9-0.4L378.6,570.6z"
											/>
										<path class="st6" d="M375.7,569.9l2.5,0.8l0,0.6c0,0.3-0.3,0.6-0.6,0.6l-1.6-0.1c-0.4,0-0.7-0.4-0.5-0.8L375.7,569.9z"/>
										<path class="st6" d="M372.6,568.6l0.9-0.8l1.7,2l-0.3,0.5c-0.2,0.3-0.6,0.4-0.8,0.2l-1.4-0.9
											C372.3,569.4,372.3,568.9,372.6,568.6z"/>
										<path class="st6" d="M373.1,567.5l-0.6,0.3c-0.3,0.2-0.7,0-0.8-0.3l-0.7-1.5c-0.2-0.4,0-0.8,0.4-0.9l1.2-0.3L373.1,567.5z
											"/>
										<path class="st6" d="M372.5,564.5l-0.6,0c-0.3,0-0.6-0.3-0.6-0.6l0.1-1.6c0-0.4,0.4-0.7,0.8-0.5l1.2,0.4L372.5,564.5z"/>
										<path class="st6" d="M372.9,561.2c-0.3-0.2-0.4-0.6-0.2-0.8l0.9-1.4c0.2-0.3,0.7-0.4,1-0.1l0.8,0.9l-2,1.7L372.9,561.2z"
											/>
									</g>
									<path class="st10" d="M374.6,566.7c-1.1-2.1-0.2-4.7,1.9-5.8c1-0.5,2.1-0.6,3-0.3l-2.6,8.2
										C375.9,568.4,375.1,567.7,374.6,566.7z"/>
									<path class="st11" d="M379.5,560.6c1.1,0.3,2.2,1.1,2.8,2.2c1.1,2.1,0.2,4.7-1.9,5.8c-1.1,0.6-2.4,0.6-3.5,0.2L379.5,560.6
										z"/>
									<path class="st6" d="M376.4,565.8c0.6,1.1,2,1.6,3.1,1c1.1-0.6,1.6-2,1-3.1c-0.6-1.1-2-1.6-3.1-1
										C376.2,563.3,375.8,564.7,376.4,565.8z"/>
									<g>
										<path class="st6" d="M378.2,560.8c0.2-0.1,0.5,0,0.6,0.2c0.1,0.2,0,0.5-0.2,0.6s-0.5,0-0.6-0.2
											C377.9,561.2,378,560.9,378.2,560.8z"/>
										<path class="st6" d="M380.8,561.5c0.3,0.1,0.4,0.3,0.4,0.6c-0.1,0.3-0.3,0.4-0.6,0.4c-0.3-0.1-0.4-0.3-0.4-0.6
											C380.3,561.6,380.5,561.5,380.8,561.5z"/>
										<path class="st6" d="M381.6,563.7c0.2-0.2,0.5-0.1,0.7,0.1c0.2,0.2,0.1,0.5-0.1,0.7c-0.2,0.2-0.5,0.1-0.7-0.1
											C381.4,564.1,381.4,563.8,381.6,563.7z"/>
										<path class="st6" d="M381.5,565.9c0.3,0,0.5,0.2,0.4,0.5c0,0.3-0.2,0.5-0.5,0.4c-0.3,0-0.5-0.2-0.4-0.5
											C381,566.1,381.3,565.9,381.5,565.9z"/>
										<path class="st6" d="M379.3,567.6c0.2-0.2,0.5-0.2,0.7,0c0.2,0.2,0.2,0.5,0,0.7c-0.2,0.2-0.5,0.2-0.7,0
											C379.2,568.1,379.2,567.8,379.3,567.6z"/>
										<path class="st6" d="M377.3,567.5c0.3,0,0.5,0.2,0.5,0.4c0,0.3-0.1,0.5-0.4,0.5c-0.3,0-0.5-0.2-0.5-0.4
											C376.8,567.8,377,567.5,377.3,567.5z"/>
										<path class="st6" d="M375.1,566.2c0.1-0.2,0.4-0.3,0.6-0.1c0.2,0.1,0.3,0.4,0.1,0.6c-0.1,0.2-0.4,0.3-0.6,0.1
											C375,566.7,374.9,566.4,375.1,566.2z"/>
										<path class="st6" d="M375.2,564.6c-0.2,0.1-0.5-0.1-0.6-0.3c-0.1-0.2,0.1-0.5,0.3-0.6c0.2-0.1,0.5,0.1,0.6,0.3
											S375.4,564.5,375.2,564.6z"/>
										<path class="st6" d="M376.4,561.6c0.2,0.1,0.4,0.4,0.3,0.6c-0.1,0.2-0.4,0.4-0.6,0.3c-0.2-0.1-0.4-0.4-0.3-0.6
											C375.9,561.6,376.2,561.5,376.4,561.6z"/>
									</g>
									<path class="st4" d="M377.4,565.3c0.3,0.6,1,0.8,1.6,0.5c0.6-0.3,0.8-1,0.5-1.6s-1-0.8-1.6-0.5
										C377.3,564,377,564.7,377.4,565.3z"/>
								</g>
								<g>
									<path class="st6" d="M353.3,580.1c1.3,2.6,4.5,3.6,7.1,2.3s3.6-4.5,2.3-7.1c-1.3-2.6-4.5-3.6-7.1-2.3
										C353,574.4,352,577.5,353.3,580.1z"/>
									<path class="st10" d="M354.6,579.5c-1-1.9-0.2-4.2,1.7-5.2c1-0.5,2.1-0.5,3-0.2l-2.3,7.3
										C355.9,581.1,355.1,580.4,354.6,579.5z"/>
									<path class="st11" d="M359.3,574.1c0.9,0.3,1.7,1,2.1,1.9c1,1.9,0.2,4.2-1.7,5.2c-0.9,0.5-1.9,0.5-2.8,0.3L359.3,574.1z"/>
									<path class="st6" d="M356.8,578.3c0.3,0.6,1.1,0.9,1.8,0.6c0.6-0.3,0.9-1.1,0.6-1.8c-0.3-0.6-1.1-0.9-1.8-0.6
										C356.8,576.9,356.5,577.7,356.8,578.3z"/>
									<g>
										<circle class="st6" cx="358" cy="574.6" r="0.4"/>
										<path class="st6" d="M360.1,574.9c0.2,0.1,0.4,0.3,0.3,0.5c-0.1,0.2-0.3,0.4-0.5,0.3c-0.2-0.1-0.4-0.3-0.3-0.5
											C359.6,574.9,359.9,574.8,360.1,574.9z"/>
										<path class="st6" d="M360.8,576.8c0.2-0.1,0.4-0.1,0.6,0.1s0.1,0.4-0.1,0.6c-0.2,0.1-0.4,0.1-0.6-0.1
											C360.6,577.2,360.6,576.9,360.8,576.8z"/>
										<path class="st6" d="M360.7,578.8c0.2,0,0.4,0.2,0.4,0.4c0,0.2-0.2,0.4-0.4,0.4c-0.2,0-0.4-0.2-0.4-0.4
											C360.3,578.9,360.5,578.7,360.7,578.8z"/>
										<path class="st6" d="M358.8,580.3c0.2-0.2,0.4-0.2,0.6,0c0.2,0.2,0.2,0.4,0,0.6c-0.2,0.2-0.4,0.2-0.6,0
											C358.7,580.7,358.7,580.4,358.8,580.3z"/>
										<path class="st6" d="M356.9,580.1c0.2,0,0.4,0.1,0.5,0.4c0,0.2-0.1,0.4-0.4,0.5c-0.2,0-0.4-0.1-0.5-0.4
											C356.6,580.4,356.7,580.2,356.9,580.1z"/>
										<path class="st6" d="M355,579c0.1-0.2,0.4-0.2,0.6-0.1c0.2,0.1,0.2,0.4,0.1,0.6c-0.1,0.2-0.4,0.2-0.6,0.1
											C355,579.4,354.9,579.2,355,579z"/>
										<path class="st6" d="M355.1,577.5c-0.2,0.1-0.5-0.1-0.5-0.3c-0.1-0.2,0.1-0.5,0.3-0.5c0.2-0.1,0.5,0.1,0.5,0.3
											C355.4,577.2,355.3,577.5,355.1,577.5z"/>
										<path class="st6" d="M356.2,574.9c0.2,0.1,0.3,0.3,0.2,0.5c-0.1,0.2-0.3,0.3-0.5,0.2c-0.2-0.1-0.3-0.3-0.2-0.5
											S356,574.8,356.2,574.9z"/>
									</g>
								</g>
								<g>
									<path class="st6" d="M350.6,572.1l0.1,0.1l1-0.5c0.1-0.1,0.2-0.1,0.2-0.2c0-0.1,0-0.2,0-0.3c-0.1-0.2-0.3-0.3-0.5-0.2
										l-0.9,0.5C350.5,571.6,350.5,571.8,350.6,572.1z"/>
									<path class="st6" d="M350.9,572.5l0.4,0.7l1-0.5c0.1-0.1,0.2-0.1,0.2-0.2c0-0.1,0-0.2,0-0.3c-0.1-0.2-0.3-0.3-0.5-0.2
										L350.9,572.5z"/>
									<path class="st6" d="M351.4,573.6l0.4,0.7l1-0.5c0.1-0.1,0.2-0.1,0.2-0.2c0-0.1,0-0.2,0-0.3c-0.1-0.2-0.3-0.3-0.5-0.2
										L351.4,573.6z"/>
									<path class="st6" d="M351.9,574.6l0.4,0.7l1-0.5c0.1-0.1,0.2-0.1,0.2-0.2c0-0.1,0-0.2,0-0.3c-0.1-0.2-0.3-0.3-0.5-0.2
										L351.9,574.6z"/>
									
										<rect x="362.4" y="563.3" transform="matrix(0.8899 -0.4561 0.4561 0.8899 -216.9662 228.0909)" class="st6" width="3.3" height="0.4"/>
									
										<rect x="362.8" y="564.1" transform="matrix(0.8899 -0.4561 0.4561 0.8899 -217.2548 228.3392)" class="st6" width="3.3" height="0.4"/>
									
										<rect x="363.2" y="564.8" transform="matrix(0.8899 -0.4561 0.4561 0.8899 -217.5434 228.5876)" class="st6" width="3.3" height="0.4"/>
								</g>
								<path class="st6" d="M365.5,561c0.3,0.2,0.6,0.3,1,0.4l-0.1,0.2l0.8,0.5l0.1-0.6c0.7,0,1.3-0.1,1.7-0.3l0,0
									c0.4-0.2,0.6-0.4,0.6-0.7c0.1-0.7-1-1.3-2.3-1.4c-0.7-0.1-1.4,0.1-1.9,0.3c-0.4,0.2-0.6,0.4-0.6,0.7
									C364.8,560.4,365.1,560.8,365.5,561z M369.1,559.9l-1.7,1.2l-0.6-0.1l-1-1.4c0.4-0.1,1-0.2,1.5-0.2
									C368,559.4,368.7,559.6,369.1,559.9z M369,561c-0.4,0.2-0.9,0.3-1.4,0.3l1.7-1.2c0.1,0.1,0.2,0.3,0.2,0.4
									C369.4,560.6,369.3,560.8,369,561L369,561z M365.1,560.1c0-0.2,0.2-0.4,0.4-0.5c0,0,0,0,0,0l1,1.4l0,0.1
									c-0.3-0.1-0.7-0.2-0.9-0.3C365.3,560.6,365.1,560.3,365.1,560.1z"/>
							</g>
						</g>
					</g>
				</g>
			</g>
			<g>
				<g>
					<path class="st14" d="M469.7,598.9c4.6-1.2,9.3-2.3,13.9-3.5c0,3.4,0,6.9,0.1,10.3c-4.7,0.9-9.3,1.7-14,2.6
						C469.7,605.2,469.7,602,469.7,598.9z"/>
					<path class="st15" d="M483,596.1c0,5.9-0.1,11.9-0.4,18.1c-0.1,3.2-0.3,6.4-0.5,9.6c0.3,0.8,0.9,1.9,2,2.6
						c2.5,1.5,6.1,0.2,8-1.6c2.3-2.2,2-5.3,1.6-14.3c-0.1-3.2-0.3-8.3-0.5-14.7c-1.5-2.4-4.3-3.5-6.6-2.8
						C484.2,593.5,483.2,595.7,483,596.1z"/>
				</g>
				<g>
					<g>
						<g>
							<path class="st10" d="M414.6,549.3c-8.4,4.8-16.8,9.6-25.2,14.4c-0.9-0.5-3.2-2.1-4.5-5.2c-1-2.4-0.9-4.6-0.7-5.6
								c7.2-4.2,14.4-8.3,21.6-12.5c4-11.4,7.9-22.8,11.9-34.2c0.5,12.7,1,25.5,1.5,38.2C417.6,546,416.1,547.7,414.6,549.3z"/>
							<path class="st16" d="M413.3,577.9c0.3-10.2,0.8-20.6,1.4-31.3c0.8-13.9,1.8-27.4,3-40.5c4.5-3.2,8.9-6.4,13.4-9.5
								c2.3-0.4,4.7-0.7,7.2-0.9c1.9-0.2,3.8-0.3,5.6-0.3c6.7,1.8,13.4,3.7,20.1,5.5c0.6,3.1,1.2,5.6,1.6,7.3c0,0,2,7.9,1.9,11.4
								c0,0,0,0,0,0c0,0,0,0,0,0c0,0,0,1.2,0,2.5c0,1-2.4,26-5.8,60c-0.7,3.7-1.3,7.5-2,11.2c4.8-0.7,9.5-1.5,14.3-2.2
								c0.1,8.8,0.2,17.5,0.3,26.3c-25.6,3.8-51.1,7.7-76.7,11.5c-4.6-0.3-12.4-1.5-20.2-6.4c-9.6-6.2-20.4-19.1-16.9-28.3
								c1.9-5,7.2-7,15.9-10.2C384.2,581.2,396.7,577.7,413.3,577.9z"/>
						</g>
						<g>
							<g>
								<path class="st12" d="M443.1,487.4l-12.5,0.4l-0.1,11.4c1.9,0.4,3.8,0.7,5.7,1.1c1.2-0.4,2.6-0.9,4-1.6
									c1.3-0.6,2.5-1.3,3.5-1.9L443.1,487.4z"/>
								<path class="st17" d="M430.5,494.9l0.1-6.2c4.2-1.4,8.3-2.7,12.5-4.1c0.1,2.1,0.1,4.2,0.2,6.3
									C440.2,493.1,435.8,495,430.5,494.9z"/>
								<path class="st18" d="M436.5,431.4c-2.4,0.2-6.1,0.6-10,2.8c-9.6,5.5-12.3,18-11.4,26.6c0.2,2.2,0.6,3.9,1,5
									c0,0,0,0.1,0.1,0.1c0.5,0.8,1,1.5,1.5,2.3c1.8,2.5,3.6,4.8,5.4,6.7c7.5-5.4,26.5,5.8,26.5,5.8c1-0.3,2.4-0.8,3.9-1.6
									c9.5-5.7,9.6-20.1,9.6-23.4c0-4.2,0-8.8-2.9-13.6c-2.8-4.8-6.8-7.1-8.3-7.9C445.3,430.6,439.2,431.1,436.5,431.4z"/>
								<path class="st12" d="M415.7,468.3c0.2-9-0.6-9.9-0.2-15c0.2-2.5,0.8-6,2.5-10.2c0-0.1-0.1-0.4,0-0.7
									c0.7-4.3,14.5-7.9,25.6-4.6c2.6,0.8,7,2.5,11.7,6.8c1,2.5,2.2,6.2,2.6,10.9c0.8,10.5-3.4,18.3-5.5,22
									c-2.8,5-5.6,10.1-11.7,12.6c-3.6,1.5-7,1.6-9.2,1.4c-0.8-0.1-2.1-0.2-3.8-0.8c-5.1-1.8-7.8-5.8-8.7-7.2
									c-2.2-3.4-2.8-6.7-3.1-8.4C415.4,472.8,415.6,471.6,415.7,468.3z"/>
								<g>
									<path d="M434.5,462.2c3.6-0.3,7.6,0.3,10.6,2.4c-1.8-0.5-3.5-1-5.2-1.2c-1.8-0.2-3.5-0.2-5.3,0L434.5,462.2L434.5,462.2z"
										/>
								</g>
								<g>
									<path d="M424.8,463c-2.5-0.7-5.1-0.8-7.7-0.7c1.2-0.5,2.6-0.7,3.9-0.8c1.3-0.1,2.7,0.1,4,0.4L424.8,463L424.8,463z"/>
								</g>
								<path class="st18" d="M447.9,450.9c-0.5,1.4-1.1,3.5-1.1,6c0.1,2.5,0.8,4.1,1.4,6.2c0.7,2.3,1.4,5.6,1.4,9.9
									c1.6-0.5,4.9-1.8,7.4-5.1c0.7-0.9,1.9-3.2,3.1-7.8c0.6-2.1,2.3-10.8-2.2-18.2c-6.5-10.9-22.7-11.5-32.1-8.7
									c-1.9,0.6-3.3,1-4.8,2.1c-10.5,7.4-5.8,28.5-5.3,30.7c-0.1-1.6,0-3.5,0.3-5.7c0.5-3.3,1.4-6,2.3-8c0.3,0.1,0.9,0.4,1.6,0.7
									c3.1,1.2,12.6,4.3,22.8,0.6C444,453,445.8,452.2,447.9,450.9z"/>
								<g>
									<g>
										<path class="st17" d="M427.8,474.4c-0.1,0.9,0.8,1.7,1.6,1.6c0.7,0,1.3-0.7,1.3-1.4c-0.1,0.1-0.7,0.6-1.6,0.5
											C428.3,475,427.9,474.5,427.8,474.4z"/>
									</g>
								</g>
								<g>
									<path class="st12" d="M451.4,467.1c0.7-2.1,3.1-3.5,4.8-2.2c2.6,2,2.3,6.8,0.8,9.5c-0.9,1.6-3.1,3.6-4.6,2.4
										C450.5,475.4,450.1,471.1,451.4,467.1z"/>
								</g>
								<g>
									<path class="st19" d="M429.5,479.8c2.8,0.1,5.5-0.8,6.2,0.7c0.5,1.1-0.9,5.3-5.9,5.1c-3.5-0.1-5.9-3.2-5.5-5.2
										C424.5,478.9,426.5,479.7,429.5,479.8z"/>
									<path class="st20" d="M435.7,481.7c-0.4,1.6-2.1,4-5.9,3.9c-1.7-0.1-3.2-0.8-4.2-1.8C428,480.9,432.2,479.9,435.7,481.7z"
										/>
									<path class="st10" d="M435.7,480.4c0,0.1,0.1,0.2,0.1,0.4c-4,2.4-9.4,1.9-10.5-1.4c0.9-0.1,2.4,0.2,4.2,0.2
										C432.3,479.7,435,478.9,435.7,480.4z"/>
								</g>
							</g>
							<g>
								<g>
									<path class="st10" d="M434.8,467.1c0.3,0.5,0.9,1.2,1.9,1.7c1.6,0.7,3.7,0.3,5.3-1.2c-0.4-0.4-1.1-1.1-2.2-1.6
										c-0.7-0.3-1.6-0.6-2.7-0.4C435.8,465.9,435.1,466.8,434.8,467.1z"/>
									<path class="st21" d="M436.4,466.2c-0.3,0.7-0.2,1.4,0.2,1.9c0.3,0.3,0.7,0.6,1.1,0.7c0,0,0,0,0,0c0,0,0.5,0.1,1-0.1
										c0.5-0.1,1.5-0.7,1.5-1.7c0-0.5-0.2-0.9-0.3-1c-0.6-0.9-2-1.1-3-0.5C436.7,465.8,436.5,466,436.4,466.2z"/>
									<path class="st22" d="M436.8,466.7c-0.2,0.5,0.1,1.1,0.1,1.1c0.2,0.3,0.6,0.4,0.6,0.5c0,0,0,0,0,0c0,0,0.3,0.1,0.6,0
										c0.2,0,0.6-0.2,0.9-0.6c0-0.1,0.3-0.5,0-1c-0.3-0.6-1.1-0.7-1.7-0.5C437.3,466.3,437,466.4,436.8,466.7z"/>
									<path class="st10" d="M438.3,466.7c-0.1,0.1,0,0.2,0,0.2c0.1,0.1,0.1,0.1,0.1,0.1c0,0,0,0,0,0c0,0,0.1,0,0.1,0
										c0,0,0.1,0,0.2-0.1c0,0,0.1-0.1,0-0.2c-0.1-0.1-0.3-0.2-0.4-0.1C438.4,466.6,438.4,466.6,438.3,466.7z"/>
									<path class="st22" d="M434.8,467.1c0.1-0.2,1.1-1.9,3-2.1c2.6-0.3,4.4,2.4,4.3,2.6c-0.1,0.1-1.7-1.6-4-1.6
										C436.8,465.9,435.7,466.5,434.8,467.1z"/>
								</g>
							</g>
							<g>
								<g>
									<path class="st10" d="M417.9,466.3c0.3,0.5,0.8,1.2,1.8,1.7c1.6,0.7,3.5,0.3,5-1.2c-0.4-0.4-1-1.1-2.1-1.6
										c-0.6-0.3-1.5-0.6-2.6-0.4C418.9,465.1,418.2,465.9,417.9,466.3z"/>
									<path class="st21" d="M419.4,465.3c-0.3,0.7-0.2,1.5,0.2,2c0.2,0.3,0.7,0.6,1,0.7c0,0,0,0,0,0c0,0,0.5,0.1,1-0.1
										c0.5-0.2,1.3-0.7,1.4-1.6c0-0.1,0.1-0.6-0.2-1.1c-0.5-0.9-1.9-1-2.8-0.5C419.7,464.9,419.5,465.2,419.4,465.3z"/>
									<path class="st22" d="M419.8,465.9c-0.2,0.5,0.1,1.1,0.1,1.1c0.2,0.3,0.5,0.4,0.6,0.5c0,0,0,0,0,0c0,0,0.3,0.1,0.6,0
										c0.2,0,0.6-0.2,0.8-0.6c0-0.1,0.3-0.5,0-1c-0.3-0.6-1.1-0.7-1.6-0.5C420.3,465.4,420,465.6,419.8,465.9z"/>
									<path class="st10" d="M420.2,465.7c-0.1,0.1,0,0.2,0,0.2c0,0.1,0.1,0.1,0.1,0.1c0,0,0,0,0,0c0,0,0.1,0,0.1,0
										c0,0,0.1,0,0.2-0.1c0,0,0.1-0.1,0-0.2c-0.1-0.1-0.2-0.2-0.4-0.1C420.3,465.6,420.2,465.6,420.2,465.7z"/>
									<path class="st22" d="M417.9,466.3c0.1-0.2,1-1.9,2.8-2.1c2.5-0.3,4.2,2.4,4.1,2.6c-0.1,0.1-1.6-1.6-3.8-1.6
										C419.8,465.1,418.7,465.7,417.9,466.3z"/>
								</g>
							</g>
						</g>
					</g>
					<path class="st12" d="M409.4,574.8c-1.5,0.4-3,0.8-4.4,1.2c-2.6,0-4.9,0.3-6.8,0.6c-2.5,0.5-6.4,1.5-6.3,2.2
						c0,0.2,0.4,0.4,1.1,0.7c0.9,0.4,1.7,0.4,2.2,0.4c-1.5,0.7-3,1.4-4.5,2.1c-2.7,1.3-5.5,2.6-8.2,3.8c-0.5,0.2-0.7,0.7-0.6,1
						c0.1,0.4,0.8,0.7,1.4,0.3c2.9-0.9,5.9-1.8,8.8-2.6c-3.1,1.3-6.2,2.6-9.3,3.9c-0.4,0.3-0.6,0.8-0.4,1.3c0.2,0.5,0.8,0.7,1.4,0.5
						c7.1-2.9,10.9-4.2,10.8-4.1c-3.1,1.5-6.1,3-9.2,4.5c-0.3,0.3-0.4,0.8-0.2,1.2c0.2,0.4,0.7,0.6,1.2,0.4
						c3.5-1.4,6.9-2.9,10.4-4.3c-2.2,1.2-4.5,2.4-6.7,3.6c-0.2,0.3-0.2,0.7,0,1c0.2,0.4,0.7,0.6,1.1,0.4c3.1-1.1,6.1-2.1,9.2-3.2
						c1.1-0.2,3.5-0.8,5.8-2.7c1.6-1.4,2.5-2.9,3-3.8c1.5-0.6,3.1-1.2,4.6-1.8C412.4,579.2,410.9,577,409.4,574.8z"/>
				</g>
				<path class="st10" d="M449.5,516.6c-1.1,10.3-2.2,20.8-3.4,31.3c-0.4,3.7-0.9,7.4-1.3,11.1c-12.9,5.2-25.7,10.4-38.6,15.5
					c-0.3,0.8-0.9,2.8-0.4,5.1c0.8,3.7,3.8,5.5,4.4,5.8c17-5.2,33.9-10.5,50.9-15.7c0.5-11.7,1.4-24.1,2.9-37
					c0.8-6.9,2.5-11.1,2.8-20.2c0-1.6,0-4.6-1.9-7.2c-1.2-1.6-2.7-2.5-3.7-3c-1.7,0.8-4.9,2.6-7.7,6.1
					C451,511.7,449.9,514.8,449.5,516.6z"/>
			</g>
			<path class="st23" d="M430.5,497c0.7,0.7,1.3,1.1,2,1.4c5,2.3,11-2.6,11.4-3c0.8,0.2,1.5,0.3,2.3,0.5c-0.5,0.4-7.5,7-14.4,4.6
				c-0.9-0.3-2.1-0.9-3.3-2C429.1,498,429.8,497.5,430.5,497z"/>
			<path class="st23" d="M433.7,500.1c-0.6,3.4-1.2,6.9-1.8,10.6c-0.9,6.3-1.4,12.3-1.8,17.9c0.7,0.1,1.4,0.2,2.1,0.3
				c0.4-6.1,1.1-12.5,2-19.2c0.5-3.4,1-6.6,1.6-9.8C435.2,500,434.4,500.1,433.7,500.1z"/>
			<path class="st10" d="M414.1,453.9c2.3,0.3,4.6,0.7,6.9,1c15.1,1.9,29.3,2.3,42.6,1.7c0.4-2,1.4-8.1-1.8-14.6
				c-3.2-6.5-8.5-9.3-10.8-10.5c-1.6-0.8-11.2-5.5-22.1-1.3c-1.6,0.6-12.7,5-15,15.4C413.2,449.1,413.6,452.1,414.1,453.9z"/>
		</g>
		<g>
			<g>
				<path class="st24" d="M536.7,366.3c-4.2,17.8-8.5,35.6-12.7,53.4c-21,6.5-41.9,13-62.9,19.4c-1.7-3.4-3.4-6.8-5.1-10.2
					c17-9.1,34-18.3,51-27.4c5.2-21.9,10.3-43.8,15.5-65.7C527.2,345.9,532,356.1,536.7,366.3z"/>
			</g>
			<g>
				<polygon class="st25" points="605.9,497.4 642.8,615.2 653.4,615.2 615.5,494.3 				"/>
				<polygon class="st25" points="580.9,497.4 617.8,615.2 628.4,615.2 590.5,494.3 				"/>
				<polygon class="st25" points="486.1,615.2 496.7,615.2 533.6,497.4 524,494.3 				"/>
				<polygon class="st25" points="514.7,615.2 525.3,615.2 562.2,497.4 552.6,494.3 				"/>
			</g>
			<ellipse class="st26" cx="572.4" cy="491.9" rx="58.5" ry="9"/>
			<g>
				<g>
					<g>
						<g>
							<path class="st27" d="M525.4,604.2l3-3.7c-2.6-1-11-1.2-18.3,0.3L525.4,604.2z"/>
							<polygon class="st27" points="495.8,595.6 488.4,596.7 494.5,598.4 							"/>
							<g>
								<path class="st28" d="M499,629.5c-0.7,1.5-6.5,3.4-6.5,3.4c-0.9-0.9-1.7-1.8-2.6-2.7c-0.8,0.6-1.9,1.6-2.6,3.1
									c-0.4,0.8-0.4,1.3-0.6,1.9c-0.9,3-3.4,4.8-4,5.1c-1.7,1.2-3.5,1.4-7,1.9c-3,0.4-5.8,0.2-8.9,0c-5.4-0.4-6.7-2.9-6.7-2.9
									s-0.1-3.6-0.1-4.1c0-0.1,0.1-0.3,0.2-0.4c0.2-0.2,0.6-0.4,0.6-0.4s-0.2-1.5,0.4-2.8c1.1-2.2,5.6-3.7,6.5-4.2
									c3-1.7,6.6-5.4,8.2-8.7c1.6-3.3,2.8-9.5,2.8-10.1c0.2-3.3,0-10.3,0.4-10.5c0.4-0.2,5-0.5,6.7-0.7c1.6-0.1,2.4,1,2.4,1
									c0,0,0,0,0,0l3.7-0.7l2.3-0.4l0.3-1.2l1.2-0.5l0.3,9.5c0,0,1.3,2.7,2.2,5c0.8,2.3,0.5,6,0.5,6s0,0,0,0c0,0,0.2,0.1,0.4,0.2
									c0.1,0.1,0.2,0.2,0.2,0.4c0,0.1,0,0.3,0,0.4c0,0,0,0,0,0C499.5,621.2,499.2,629.1,499,629.5z"/>
								<path class="st29" d="M493.3,615.4c-1.5,1.3-3.3,1.3-3.5-0.5c-0.2-1.8-0.4-13.8-1.5-16.5l0,0c0,0,0,0,0,0l6.1-1.1
									c0,0,0.3,10.3,0.4,13.2C494.9,613.3,494.8,614.1,493.3,615.4z"/>
								<path d="M499,629.5c-0.7,1.5-6.5,3.4-6.5,3.4c-0.9-0.9-1.7-1.8-2.6-2.7c-0.8,0.6-1.9,1.6-2.6,3.1c-0.3,0.7-0.4,1.1-0.6,1.7
									c-1,3.2-3.7,5.2-4,5.4c-1.4,1-2.9,1.2-5.8,1.7c-3.4,0.6-6.6,0.4-10.1,0.2c-5.4-0.4-6.7-2.9-6.7-2.9s-0.1-3.6-0.1-4.1
									c0-0.1,0.1-0.3,0.2-0.4c0.4,0.6,1.3,1.2,2.9,1.6c4.9,1.3,11.8,1.1,15.5,0.4c3.7-0.6,5.2-1.4,7-6.1c1.8-4.7,4.7-7.2,9-10.1
									c3.8-2.5,4.4-3.3,4.6-4.4c0.1,0.1,0.2,0.2,0.2,0.4c0,0.1,0,0.3,0,0.4c0,0,0,0,0,0C499.5,621.2,499.2,629.1,499,629.5z"/>
								<path class="st30" d="M499.4,617.1C499.4,617.1,499.4,617.1,499.4,617.1c-0.2,0.9-0.7,1.3-2.8,2.9c-2.1,1.5-5.7,3.7-8.1,6.6
									c-2.4,2.9-3.1,6.4-4,7.5c-1.3,1.6-2.6,2.8-5.9,3.1c-3.4,0.4-9.2,0.8-13.8-0.1c-4.6-0.9-4.8-1.9-4.8-1.9
									c0-0.4,0.8-0.8,0.8-0.8s-0.1,0.7,0.1,0.9c0.6,0.6,3.5,1.6,7.1,1.7c6.7,0.2,12.7-0.4,14.7-1.9c2.1-1.5,2.5-5.2,4.6-8.3
									c2.2-3.1,8.5-7.1,10.2-8.5c1.7-1.4,1.2-2,1.2-2.1c0,0,0.5,0.2,0.6,0.6C499.4,616.8,499.4,616.9,499.4,617.1z"/>
							</g>
							<g>
								<path class="st28" d="M529.3,622.8c0,0-1.4,9.6-1.8,11.5c-0.4,1.8-2.3,3.2-2.4,3.3c0,0,0,0,0,0l-2.6,0c0,0-0.9,1.5-1.5,4
									c-1.2,5.3-5.2,7.4-11,7.8c-0.8,0.1-1.7,0.1-2.6,0.1c-10.5,0.1-12.3-3.2-12.3-3.2s-0.8-3.7-0.8-4.2c0-0.1,0-0.1,0-0.2
									c0-0.2,0.1-0.3,0.2-0.5c0.2-0.3,0.4-0.5,0.4-0.5s-0.1-0.6-0.3-1.7c-0.6-3.7,4.8-7.3,6.2-8.6c11-10.1,9.2-18.1,9.1-29.9
									c3.5-0.8,8.6,0.4,10.9,0.3c2.2-0.1,3.1,0.4,3.1,0.4c0.2,0,0.4,0,0.6,0c1.3-0.1,2.1-0.4,2.5-0.9c0.5-0.5,1.2,0.2,1.2,0
									c-0.1,0.4-0.3,2.8-0.4,6.1c-0.1,3.9-0.4,5.3,0.7,8.8c1.1,3.5,0.3,7,0.3,7l0.2,0.3L529.3,622.8z"/>
								<path d="M526.7,619.5c-0.6,1.3-1.7,3.6-3,1.9c-1.3-1.6-0.6-5-0.3-8c0.2-3,0.6-12,0.6-12c1.7-0.1,2.6-0.4,3.1-0.9
									c-0.1,2.8-0.3,11-0.1,13.5C527.2,617.4,527.3,618.2,526.7,619.5z"/>
								<path d="M529.3,622.8c0,0-0.4,9.6-0.8,11.5c-0.4,1.8-3.2,3.3-3.4,3.3c0,0,0,0,0,0l-2.6,0c0,0-0.9,1.5-1.5,4
									c-1.2,5.3-5.2,7.4-11,7.8c-0.8,0.1-1.7,0.1-2.6,0.1c-10.5,0.1-12.3-3.2-12.3-3.2s-0.8-3.7-0.8-4.2c0-0.1,0-0.1,0-0.2
									c0-0.2,0.1-0.3,0.2-0.5c0.8,1.1,1.8,2,5.5,2.7c0,0,0.1,0,0.1,0c4.1,0.8,9.2,1.1,14.3-0.2c3-0.8,4.7-2.5,5.6-4.8
									c0.9-2.3,3.9-9.1,7-13.8c0.8-1.2,1.5-2.1,2.1-2.8L529.3,622.8z"/>
								<path class="st30" d="M529.3,622.8c0,0-0.9,1-2.8,4c-1.8,2.9-4.8,8.8-5.7,11.2c-0.9,2.5-1.9,4.8-4.2,5.8
									c-4.3,1.7-10.9,1.7-14.3,1.2c-7-1-7.9-3-7.9-3l0,0c0.1-0.5,0.7-1,0.7-1c0.2,1.1,0.3,1,0.8,1.3c2.2,1.4,7,2.2,12.6,2.1
									c5.6-0.1,10-1,11.4-5.2c1.5-4.1,3.6-8.1,4.9-10.5c1.4-2.4,4.2-6.4,4.2-6.4L529.3,622.8z"/>
							</g>
						</g>
						<path class="st31" d="M460,612.9c4.3,3.6,18.1,5.4,33.5,5.6c7.2,0.1,14.8-0.1,21.9-0.6h0c0.1,0,0.3,0,0.4,0h0
							c0.2,0,0.5,0,0.7,0c0.1,0,0.2,0,0.3,0c2-0.1,3.9-0.3,5.7-0.5c5.2-0.5,10-1.2,13.8-2.1c1.4-0.3,2.8-0.7,3.9-1
							c0.4-0.1,0.9-0.3,1.3-0.4h0c2.2-0.8,3.7-1.7,4.3-2.7c1.8,0.2,3.8,0.1,5.7-0.1c6.3-0.8,12.6-3.4,14.3-5.6
							c-4.4-25.1-9.2-50.5-14.5-76.2c-0.2-0.9-0.4-2-0.4-2c-1.4-6.7-2.4-11.5-4-17.6c-0.2-0.7-0.3-1-0.3-1.4
							c-0.4-6.6,20.2-13.2,41.6-18.4c-23.1-13.4-46.2-26.7-69.3-40.1c-5.6-0.4-16-0.4-27.2,4.6c-20.3,9.1-29.6,27.3-30.7,33.5
							c-2,11.1-3.7,23-4.7,35.8C453.5,558.9,456.1,589.3,460,612.9z"/>
					</g>
					<g>
						<g>
							<g class="st32">
								<path class="st33" d="M560.5,330.9c-0.2,0-0.3-0.1-0.4-0.2c-0.2-0.2-0.2-0.6,0.1-0.8c2.2-1.9,3.6-1.8,5.7-1.5
									c2.8,0.3,6.9,0.9,16.7-2.8c0.3-0.1,0.6,0,0.7,0.3c0.1,0.3,0,0.6-0.3,0.7c-10.1,3.8-14.4,3.2-17.3,2.9c-2-0.3-3-0.4-4.9,1.2
									C560.7,330.9,560.6,330.9,560.5,330.9z"/>
							</g>
							<g class="st32">
								<path class="st33" d="M549,330.7c-2,0-4.6-0.6-8.5-2.8c-0.3-0.1-0.3-0.5-0.2-0.7c0.1-0.3,0.5-0.3,0.7-0.2
									c6.3,3.6,8.9,2.7,11,2c1.5-0.5,2.9-1,5.1,0.6c0.2,0.2,0.3,0.5,0.1,0.8c-0.2,0.2-0.5,0.3-0.8,0.1c-1.7-1.3-2.7-0.9-4.1-0.5
									C551.5,330.3,550.4,330.7,549,330.7z"/>
							</g>
							<path class="st31" d="M591.6,409.1c-0.4,7.1,2.7,12.1,3.3,12.9c0.4,0.5,0.8,1.1,1.3,1.6c0.1,0.2,0.2,0.3,0.3,0.4
								c0.3,0.4,0.7,0.9,1,1.3c0.2,0.3,0.4,0.6,0.7,0.9c0.1,0.1,0.2,0.3,0.3,0.4c0.3,0.4,0.6,0.9,0.9,1.3c0.5,0.6,0.9,1.2,1.3,1.7
								c0.1,0.2,0.2,0.4,0.4,0.5c0.1,0.1,0.2,0.2,0.2,0.3c0,0,0.1,0.1,0.1,0.2c0.1,0.1,0.1,0.2,0.2,0.3c0.2,0.3,0.4,0.6,0.6,0.8
								c0.1,0.1,0.1,0.1,0.1,0.2c0.2,0.3,0.3,0.4,0.3,0.4c-0.6,0.5-1.1,0.9-1.6,1.4c-0.2,0.2-0.4,0.3-0.6,0.5
								c-0.6,0.5-1.1,0.9-1.7,1.4c-0.3,0.2-0.6,0.4-0.8,0.7c-1.5,1.2-2.9,2.3-4.4,3.3c-0.2,0.1-0.4,0.3-0.6,0.4
								c-0.2,0.2-0.4,0.3-0.6,0.4c-0.3,0.2-0.6,0.4-0.9,0.6c-0.5,0.4-1.1,0.7-1.6,1.1c-0.1,0.1-0.3,0.2-0.4,0.3
								c-0.2,0.1-0.4,0.3-0.6,0.4c-0.3,0.2-0.5,0.3-0.8,0.5c0,0-0.1,0.1-0.1,0.1l0,0c-11.7,7.3-22.3,10.6-31.8,10.7
								c-7,0.1-14-2.7-19-5.4c-4.6-2.5-7.6-4.9-7.6-4.9c0.8-4.3,2-11.4,4-19.3c2-7.8-1-15.4-2.4-21.2c-0.3-1.3-0.4-2-0.5-2.8
								c-0.2-2.2-0.1-3.9,0-4.3c0.3-2.9-0.5-8-1.5-14.9c-1.2-8.3-1.7-9.5-3.1-19c-0.3-2.1-0.5-3.6-0.9-6.6
								c-0.5-3.5-0.8-4.6-2.2-12.2c-0.5-2.6-0.6-3.3-0.6-3.8c0,0,0-0.1,0-0.3c0-0.4,0-0.9,0-1.6c0.2-2.4,1.5-4.6,3.5-5.8
								c8.1-5.2,14-8.9,17.5-11c3.1-1.8,5.9-4.3,8.9-6.2c0.2-0.1,0.9-0.6,1.6-1.4c0.7-0.7,1.1-1.4,1.1-2c0-3-0.3-18.4-0.3-18.4
								l25.5-7.3c0,0-0.6,13.8,2.2,19c2.7,5.2,3.8,6.5,10.6,10.6c4.6,2.8,9.2,5.5,11.7,7c0.7,0.3,1.5,0.6,2.1,0.9
								c1.5,0.6,6.1,2.9,7,3.4c12.2,6.8-5.3,49.1-8.3,54c0,0-10.7,13.2-13.1,25.1C591.7,407.5,591.6,408.9,591.6,409.1z"/>
						</g>
						<path class="st31" d="M610,369.7c0,0,0.4-1.3,1-1.6c0,0,0,0,0,0c0,0,0,0,0,0c-0.2,0.3-0.5,0.7-0.7,1c0,0,0,0,0,0
							c-1.2,1.6-2.9,3.5-4.8,4.1c-5.8,1.9-13.1-22.6-13.6-26.1c-0.6-3.8-0.7-7.7-0.2-11.4c0.7-6,2.8-11.8,6.2-16.9
							c0.4-0.5,0.7-1.1,1.1-1.6c0,0-3.6-2.1-3.6-2.1l-3.3,0.1h0l-43.4,2l-0.7,0l-4.6,1.7c-0.3,0.4-0.6,0.8-0.9,1.2
							c-0.1,0.2-0.2,0.3-0.4,0.5v0c-1.5,2-3,4.1-4.3,6.3c-1.5,2.5-2.8,5.1-3.9,7.7c-4.5,10.6-5.8,26.2-5.8,26.2
							c-0.4,4.8-0.9,10.6,0.1,18.3c0.4,3.2,0.9,5.9,1.4,7.9c1.2,6.3,1.6,12,1.6,17.1c0,0,0,0,0,0c0.4,5.1,0.8,10.2,1.1,15.4
							c-0.2,4.7-0.5,9.9-1.2,15.3c0,0,0,0,0,0c0,0,0,0,0,0c-9.1,1.8-23.3,5.8-37.9,15.9c-8.8,6-15.3,12.5-19.8,17.9
							c-0.2,4.4,0.2,11.1,3.8,17.5c8.8,15.8,29.8,18.1,38.9,19.1c3.9,0.4,6.9,0.4,9.7,0.1c8.5-0.9,12.2-3.2,20.5-5
							c3.2-0.7,1.8-0.1,15.3-1.5c14.1-1.4,23.6-2.8,33.9-5.3c2.7-0.6,4-1,4.5-1.2c12.4-6.7,8.7-39.5,2.6-59.9c0-0.1-0.1-0.2-0.1-0.4
							v0c-0.4-1.1-0.7-2.2-1.1-3.3c-2.3-6.1-4.2-12.2-4.1-18.8c0.1-7,1.8-13.9,4-20.4c0.8-2.5,1.6-4.5,2-5.5
							C606.9,374.5,609.7,371.3,610,369.7z"/>
						<g>
							<g>
								<path class="st31" d="M551.8,310.2l-5.3,0.4c-6.6,0.5-12.3-4.4-12.9-10.9l-0.7-8.9l17.2-1.4L551.8,310.2z"/>
								<g>
									<polygon class="st34" points="529.7,272.4 531.5,272.3 533.6,290.4 531.9,290.5 									"/>
									<path class="st35" d="M582.6,266c0,3-0.4,6.2-1.3,9.5c-0.2,0.8-0.5,1.5-0.8,2.3l-8.6,12.8c0,0-1.7,4-3,5.6
										c-0.7,0.9-16,12.7-19.5,13.1c-0.5,0.1-0.9,0.1-1.4,0.1l0,0c-2.6,0.1-3.9-0.6-4.6-1.4c-0.3-0.3-1.3-2.6-4.1-6
										c-5.8-7-7.2-15.2-7.5-20.2c-0.1-1.6-0.1-2.9,0-3.8c0,0-1.5-4.2-1.7-6c0-0.1,0-0.2,0-0.2c0-0.5-0.3-3.3,0.1-7.1
										c0.9-8.6,5.2-22.6,23.4-26.7C565.7,235.3,582.4,247.7,582.6,266z"/>
									<g>
										<path class="st36" d="M544.3,295.6c-0.6,0.1-1,0.4-1.2,0.5c-0.3-0.2-0.5-0.3-0.7-0.3c-0.1,0-0.3,0-0.5,0
											c-0.4,0.1-0.6,0.3-1.2,1c-0.2,0.2-0.4,0.4-0.7,0.8c0.4,0.1,1.1,0.3,2,0.4c2.9,0.4,5.2,0,6.4-0.3c0.6-0.1,1.6-0.4,2.6-0.8
											c-1.2-0.1-2.2-0.3-2.8-0.4C546.4,296,545.5,295.3,544.3,295.6z"/>
										<path class="st36" d="M541.8,297.8c-0.6-0.1-1.3-0.1-1.9-0.2c0.3,0.5,0.9,1.4,2,1.9c0.8,0.4,1.5,0.4,2.3,0.4
											c2.4,0,4.2-1.1,4.9-1.5c0.8-0.5,1.4-1,1.8-1.5c-0.8,0.2-1.7,0.4-2.6,0.5C545.9,297.8,543.3,297.8,541.8,297.8z"/>
									</g>
									<g>
										<path class="st10" d="M548.6,279c0.6,0.5,2.6,1.9,5.3,1.7c1.4-0.1,2.5-0.5,3.1-0.9l2.4-1.7c0.1-0.4,0.1-0.9,0.2-1.3
											c-0.7-0.6-1.9-1.4-3.5-1.8c-0.9-0.2-2.9-0.7-4.6,0.3c-0.6,0.4-1.1,0.9-1.4,1.3C549.3,277.6,548.8,278.4,548.6,279z"/>
										<g>
											<defs>
												<path id="SVGID_00000043419342526686980980000004575149759098748582_" d="M548.6,279c0.6,0.5,2.6,1.9,5.3,1.7
													c1.4-0.1,2.5-0.5,3.1-0.9l2.4-1.7c0.1-0.4,0.1-0.9,0.2-1.3c-0.7-0.6-1.9-1.4-3.5-1.8c-0.9-0.2-2.9-0.7-4.6,0.3
													c-0.6,0.4-1.1,0.9-1.4,1.3C549.3,277.6,548.8,278.4,548.6,279z"/>
											</defs>
											<clipPath id="SVGID_00000142859275069197085800000004682074563611341230_">
												<use xlink:href="#SVGID_00000043419342526686980980000004575149759098748582_"  style="overflow:visible;"/>
											</clipPath>
											<g style="clip-path:url(#SVGID_00000142859275069197085800000004682074563611341230_);">
												<path class="st38" d="M550.7,278c0,1.5,1.3,3.1,2.8,3c1.6-0.1,2.6-1.8,2.4-3.3c-0.2-1.3-1.3-2.6-2.8-2.6
													C551.7,275.2,550.7,276.6,550.7,278z"/>
												<path d="M552,278.8c0.1,0.9,0.6,1.5,1.3,1.5c0.6,0,1.1-0.8,1.1-1.6c-0.1-0.9-0.6-1.5-1.3-1.5
													C552.4,277.2,551.9,278,552,278.8z"/>
												<path class="st10" d="M553,277.2c0,0.4,0.3,0.7,0.6,0.7c0.3,0,0.5-0.3,0.5-0.7s-0.3-0.7-0.6-0.7
													C553.2,276.5,553,276.8,553,277.2z"/>
											</g>
										</g>
										<path d="M548.6,279.1c-0.1-0.1,0.7-2.6,2.9-3.9c1.6-0.9,3.2-0.8,3.9-0.7c2.4,0.2,4,1.5,4.6,2c0.5,0,1-0.1,1.6-0.1
											c-0.3,0.4-0.8,0.9-1.4,1.5c-1,1-1.7,1.7-2.9,2.2c-0.5,0.2-1.3,0.5-2.4,0.6c0.4-0.1,0.9-0.3,1.4-0.5c1.5-0.8,2.5-1.9,3-2.6
											c-0.6-0.6-1.5-1.3-2.8-1.7c-2.4-0.7-4.9,0.1-6.4,1.4C549,278,548.6,279.1,548.6,279.1z"/>
									</g>
									<path d="M546.1,272.1c-0.1,0.2-0.3,0.7,0,1.1c0.3,0.5,1.4,0.7,2.4,0c0.6-0.3,1.5-0.6,2.6-1c2.5-0.9,4.1-1.4,5.6-1.6
										c1.3-0.1,3.5-0.2,6.5,1.3c-1.1-0.8-3.5-2.5-7-2.8C550.8,268.5,546.9,271.4,546.1,272.1z"/>
									<g>
										<path class="st10" d="M540.6,279.8c-0.2,0.3-2,2.5-4.6,2.4c-0.4,0-1.5,0-2.6-0.7c-1.3-0.8-1.8-2.1-2-2.5
											c0.2-0.4,1.1-1.7,2.9-2.2c2.1-0.6,3.9,0.5,4.2,0.7C539.7,278.3,540.3,279.3,540.6,279.8z"/>
										<g>
											<defs>
												<path id="SVGID_00000005955384365296609900000000278648586152512398_" d="M540.3,280.1c-0.2,0.3-1.8,2.2-4.2,2.2
													c-0.4,0-1.7,0-3-0.9c-0.4-0.3-1.3-1.5-1.8-2.6c-0.6-1.4,2.9-2,3-2c2-0.4,3.5,0.6,4.1,0.9
													C539.4,278.5,540,279.6,540.3,280.1z"/>
											</defs>
											<clipPath id="SVGID_00000056400710090271583070000003528782862835907224_">
												<use xlink:href="#SVGID_00000005955384365296609900000000278648586152512398_"  style="overflow:visible;"/>
											</clipPath>
											<g style="clip-path:url(#SVGID_00000056400710090271583070000003528782862835907224_);">
												<path class="st38" d="M533.9,280c0.4,1.6,1.7,2.5,2.8,2.2c1.2-0.3,1.8-1.9,1.4-3.4c-0.4-1.6-1.7-2.5-2.8-2.2
													C534.1,276.9,533.5,278.5,533.9,280z"/>
												<path d="M534.7,280.4c0.2,0.9,0.9,1.5,1.5,1.3c0.6-0.2,0.9-1.1,0.7-2s-0.9-1.5-1.5-1.3
													C534.8,278.7,534.5,279.5,534.7,280.4z"/>
												<path class="st10" d="M535.6,278.7c0.1,0.3,0.4,0.6,0.6,0.5c0.2-0.1,0.4-0.4,0.3-0.8c-0.1-0.3-0.4-0.6-0.6-0.5
													S535.5,278.4,535.6,278.7z"/>
											</g>
										</g>
										<path d="M537.3,276.6c-2.4-0.9-4.6,0.4-4.9,0.6c-0.6,0.3-1,0.7-1.3,1c-0.3,0.1-0.7,0.3-1,0.4c0.1,0.2,0.2,0.4,0.4,0.7
											c0.1,0.2,1,1.4,2,2.1c1.5,1.1,3.5,0.9,4.1,0.8c-0.4,0-1.9,0-3.2-1.2c-0.9-0.8-1.2-1.8-1.4-2.2c0.3-0.4,1.1-1.3,2.4-1.6
											c0.9-0.3,1.7-0.1,2.1-0.1c2.3,0.4,3.6,2.1,4.1,2.6C540.5,279.5,539.6,277.4,537.3,276.6z"/>
									</g>
									<path d="M537.3,274.6c0.6,0,1.4-0.4,1.4-0.8c0-0.3-0.3-0.5-0.5-0.7c-1.8-1.4-3.2-1.8-3.2-1.8c-2-0.6-3.9-0.5-5.2-0.4
										l0.1,1.5c3.1,0.3,4.6,1,5.5,1.6C535.7,274.2,536.4,274.7,537.3,274.6z"/>
									<g>
										<g>
											<path class="st40" d="M545.3,291.6c0,0-0.1,0.8-0.8,1.2c-0.3,0.2-0.7,0.4-1.2,0.5c-0.1,0-0.3,0.1-0.4,0.1
												c-0.8,0-1.8-0.5-1.9-1.2c0-0.1,0-0.2,0-0.4c0.1,0.1,0.3,0.2,0.5,0.3c0,0,0.4,0.2,0.8,0.3
												C542.8,292.5,544,292.3,545.3,291.6z"/>
										</g>
									</g>
								</g>
								
									<linearGradient id="SVGID_00000043430251225500977170000009794187596714049709_" gradientUnits="userSpaceOnUse" x1="5261.3462" y1="92.6104" x2="5261.3481" y2="92.6104" gradientTransform="matrix(-0.9967 8.077287e-02 8.077287e-02 0.9967 5766.8818 -246.9593)">
									<stop  offset="0" style="stop-color:#6D3138"/>
									<stop  offset="1" style="stop-color:#600C31"/>
								</linearGradient>
								<path style="fill:url(#SVGID_00000043430251225500977170000009794187596714049709_);" d="M530.2,270.3
									C530.2,270.3,530.2,270.3,530.2,270.3L530.2,270.3L530.2,270.3z"/>
								<path class="st31" d="M530.6,262.2c0.2-1.2,0.5-2.3,0.7-3.4c1.4-5.4,6.1-9.4,11.6-10c4.7-0.5,9.9,0.3,13.9,3.3
									c6.9,5.2,10.5,11.8,14.7,28l-0.1-17.5l-7.3-20.9l-15.1-3.2l-10.6,4l-4.9,5.2c-1.9,5.2-1.9,5.5-2.4,7.4
									c-0.5,1.8-0.5,3.8-0.5,3.8l-0.1,1.7l0,0.3l0,0.1L530.6,262.2z"/>
								<path class="st42" d="M604.3,323.1c-0.6,4.2-6.4,5.8-18.2,15.4c0,0,0,0,0,0c-12.4,7.3-25.3,14.3-38.7,15.4
									c-0.7,0.1-1.4,0-2.1-0.2c-7.1-1.8-9.8-15.3-9.5-19.2c0.3-3.7,2.6-7.6,2.8-9.1c0.7-5.6-2.5-5.9-1.5-8.5s1.6-4.7,0.5-7
									c-1.1-2.3-3.6-5.2-5.4-10.2c-0.7-2.7-2-5.8-2.6-8.8c-2.1-10.6,0.3-20.2,0.3-20.3c-0.1,0.7,0.8,4.7,1.4,11.2
									c0.6,7.2,6,18.9,7.1,21.6c0.7,1.7,2.3,3.8,5.1,4.9c0.1,0,0.6,0.6,1.9,1c0.2,0.1,0.6,0.1,1.2,0.1c0.6,0,1.5,0.1,2.3,0
									c1.7-0.1,3.9-1.4,6.3-3.1c2.5-1.7,5.3-3.9,8.4-6c6.1-4.2,6.4-9.4,6.6-10.4c1.8-10-0.8-31-5.8-39.4
									c-5-8.5-14.2-11.5-24.1-7.2c-8.5,3.7-9.5,17-9.6,18c0-3,0.1-7.2,1-10.1c1.8-5.4,6.1-10.1,12.9-12.5c5.9-2.1,11-2.9,15.3-2.8
									c22.9,0.6,25.9,27.2,27,34.3c0.9,5.8-0.9,8.9-0.9,8.9l0.6,5.4l0.3,2.8l-0.5,8.6l-1.4,3.5c0.1,0,2-0.9,2.6-0.2
									c0.1,0.1,0.5,0.5,0.9,0.9c1.6,1.7,4.7,5.2,5.8,6.8c0.2,0.3,0.4,0.6,0.5,0.8l0,0c0.1,0.2,1.8,4.5,4,6.8
									C601.1,316.7,604.9,318.9,604.3,323.1z"/>
								<g>
									<path class="st43" d="M537.2,308.3c2.7,4.4,7.7,8.8,16,7.7c0,0-7.3,2.8-11.1,0.1C538.4,313.5,536.8,307.7,537.2,308.3z"/>
									<path class="st43" d="M543,322.9c11.4,8.8,22.6,11.7,34.3-0.9c0,0-5.8,10.1-15,10.7C553.2,333.4,545.9,326.1,543,322.9z"/>
									<path class="st43" d="M546.5,309.3c1.7,0.6,4,1.1,7.2,0.9c4.5-0.2,7.9-4,8-4.1c-0.1,0.1-6.1,3.9-12.9,3.1l0,0
										C548,309.3,547.2,309.3,546.5,309.3z"/>
									<path class="st43" d="M572.9,271.6c-0.5,9.4-2,20.3-2,20.3s4.4-12.2,4.2-20.5S573.4,262.2,572.9,271.6z"/>
								</g>
							</g>
							<path class="st43" d="M538.6,337c3,8.2,6.1,14.7,17,12.5c10.9-2.2,17.8-7,17.8-7s-17.4,7.5-24.4,5.3
								C542,345.5,535.7,328.7,538.6,337z"/>
						</g>
						<g>
							<g>
								<polygon class="st44" points="523.4,331.9 523.4,331.9 523.4,331.9 523.4,331.9 								"/>
								<path class="st44" d="M523.4,331.9C523.4,331.9,523.4,331.9,523.4,331.9C523.4,331.9,523.4,331.9,523.4,331.9z"/>
								
									<linearGradient id="SVGID_00000183939568077192876610000006871345269082943362_" gradientUnits="userSpaceOnUse" x1="5154.7163" y1="323.7101" x2="5226.7544" y2="323.7101" gradientTransform="matrix(-0.9999 1.445203e-02 1.445203e-02 0.9999 5694.5332 -66.5687)">
									<stop  offset="0" style="stop-color:#353541"/>
									<stop  offset="0.2113" style="stop-color:#2E2D37"/>
									<stop  offset="0.6439" style="stop-color:#242228"/>
									<stop  offset="1" style="stop-color:#201E23"/>
								</linearGradient>
								<path style="fill:url(#SVGID_00000183939568077192876610000006871345269082943362_);" d="M523.3,331.9
									C523.3,331.9,523.4,331.9,523.3,331.9C523.3,331.9,523.3,331.9,523.3,331.9z"/>
								
									<linearGradient id="SVGID_00000002366800408695121090000007302052609704038301_" gradientUnits="userSpaceOnUse" x1="5154.7021" y1="323.6738" x2="5196.959" y2="323.6738" gradientTransform="matrix(-0.9999 1.445203e-02 1.445203e-02 0.9999 5694.5332 -66.5687)">
									<stop  offset="0" style="stop-color:#353541"/>
									<stop  offset="0.2113" style="stop-color:#2E2D37"/>
									<stop  offset="0.6439" style="stop-color:#242228"/>
									<stop  offset="1" style="stop-color:#201E23"/>
								</linearGradient>
								<path style="fill:url(#SVGID_00000002366800408695121090000007302052609704038301_);" d="M523.4,331.9
									C523.4,331.9,523.4,331.9,523.4,331.9C523.4,331.9,523.4,331.9,523.4,331.9z"/>
								
									<linearGradient id="SVGID_00000038396920250762527730000016415736434476308354_" gradientUnits="userSpaceOnUse" x1="5154.6421" y1="323.7025" x2="5230.7368" y2="323.7025" gradientTransform="matrix(-0.9999 1.445203e-02 1.445203e-02 0.9999 5694.5332 -66.5687)">
									<stop  offset="0" style="stop-color:#353541"/>
									<stop  offset="0.2113" style="stop-color:#2E2D37"/>
									<stop  offset="0.6439" style="stop-color:#242228"/>
									<stop  offset="1" style="stop-color:#201E23"/>
								</linearGradient>
								<path style="fill:url(#SVGID_00000038396920250762527730000016415736434476308354_);" d="M523.4,331.9
									C523.4,331.9,523.3,331.9,523.4,331.9C523.3,331.9,523.3,331.9,523.4,331.9C523.4,331.9,523.4,331.9,523.4,331.9
									C523.4,331.9,523.4,331.9,523.4,331.9z"/>
								
									<linearGradient id="SVGID_00000132069037632132246780000014834058176649682085_" gradientUnits="userSpaceOnUse" x1="5171.7568" y1="323.6656" x2="5181.0132" y2="323.6656" gradientTransform="matrix(-0.9999 1.445203e-02 1.445203e-02 0.9999 5694.5332 -66.5687)">
									<stop  offset="0" style="stop-color:#353541"/>
									<stop  offset="0.2113" style="stop-color:#2E2D37"/>
									<stop  offset="0.6439" style="stop-color:#242228"/>
									<stop  offset="1" style="stop-color:#201E23"/>
								</linearGradient>
								<polygon style="fill:url(#SVGID_00000132069037632132246780000014834058176649682085_);" points="523.4,331.9 523.4,331.9 
									523.4,331.9 								"/>
								
									<linearGradient id="SVGID_00000133520417842875756170000015505534313728006834_" gradientUnits="userSpaceOnUse" x1="5154.7271" y1="323.6599" x2="5181.1235" y2="323.6599" gradientTransform="matrix(-0.9999 1.445203e-02 1.445203e-02 0.9999 5694.5332 -66.5687)">
									<stop  offset="0" style="stop-color:#353541"/>
									<stop  offset="0.2113" style="stop-color:#2E2D37"/>
									<stop  offset="0.6439" style="stop-color:#242228"/>
									<stop  offset="1" style="stop-color:#201E23"/>
								</linearGradient>
								<path style="fill:url(#SVGID_00000133520417842875756170000015505534313728006834_);" d="M523.4,331.9
									C523.4,331.9,523.4,331.9,523.4,331.9L523.4,331.9C523.4,331.9,523.4,331.9,523.4,331.9z"/>
								
									<linearGradient id="SVGID_00000118361183931792095930000007237796148815115924_" gradientUnits="userSpaceOnUse" x1="5154.6616" y1="323.6805" x2="5230.689" y2="323.6805" gradientTransform="matrix(-0.9999 1.445203e-02 1.445203e-02 0.9999 5694.5332 -66.5687)">
									<stop  offset="0" style="stop-color:#353541"/>
									<stop  offset="0.2113" style="stop-color:#2E2D37"/>
									<stop  offset="0.6439" style="stop-color:#242228"/>
									<stop  offset="1" style="stop-color:#201E23"/>
								</linearGradient>
								<path style="fill:url(#SVGID_00000118361183931792095930000007237796148815115924_);" d="M523.4,331.9
									C523.4,331.9,523.4,331.9,523.4,331.9C523.4,331.9,523.4,331.9,523.4,331.9C523.4,331.9,523.4,331.9,523.4,331.9
									C523.4,331.9,523.4,331.9,523.4,331.9z"/>
							</g>
						</g>
					</g>
					<path class="st31" d="M498.3,452"/>
				</g>
			</g>
		</g>
		<g>
			<g>
				<g>
					<g>
						<path class="st51" d="M459.6,438.3c0,0-1.2,1.7-4.7,1.9c-2.2,0.2-7.8-0.4-12.2,0.3c-1.6,0.3-1.2-2.6,2-3.2
							c1.5-0.3,4.1-1.1,4.8-1.3c1.8-0.5,2.7-3.9,2.7-3.9L459.6,438.3z"/>
					</g>
					<g>
						<path class="st51" d="M461.9,437.4c-2.2,1.4-3.9,3-7.8,1.6c-2.8-1-5.4-2.2-7.6-3.2c-2,1-4.6,2.4-4.9,3.1
							c-0.4,1-1.3,4.1-1.8,5.8c-0.5,1.7-2.1,1.5-2.1,0.3c0.1-1.2,0.3-5.4,0.9-6.5c0.6-1.1,1.7-2.6,1.7-2.6s-3.3,2.1-4.2,3
							c-0.9,0.9-3.1,5.3-3.7,6c-0.6,0.7-2.4,0.3-2.1-1.4c-1.1,1.1-2.7-0.4-2.2-1.6c0.5-1.2,2.1-5.4,3.2-6.7c0.6-0.7,2.7-1.9,3.5-2.6
							c0.6-0.6,0.4-0.6,0-0.5c-2.2,0.8-3.6,1.8-6.5,2.7c-2.4,0.8-3.8-0.8-1.7-1.8c1-0.5,5-2.7,8.1-4.1c1.7-0.8,5.1-0.1,7.8,0.2
							c4.7,0.5,11.6,1.1,12.5,0.9c5.7-1.6,10.3-3.6,10.3-3.6l3.8,7.7C469.3,434.2,463.4,436.4,461.9,437.4z"/>
					</g>
					<g>
						<g>
							<path class="st52" d="M438.1,433.7c0,0-1.2,0.7-2.4,1.6l0,0c-1.3,0.9-2.6,1.8-2.9,2.3l0,0c-0.7,1-2.6,6-2.7,6l0,0l0,0
								c0,0.1,0,0.2,0.1,0.3l0,0c0.1,0,0.2,0,0.3-0.1l0,0c0,0,0.5-1.3,1.1-2.6l0,0c0.6-1.4,1.2-2.9,1.5-3.3l0,0
								c0.3-0.4,1.6-1.4,2.8-2.2l0,0c1.2-0.8,2.4-1.6,2.4-1.6l0,0c0.1-0.1,0.1-0.2,0.1-0.3l0,0c0-0.1-0.1-0.1-0.2-0.1l0,0
								C438.2,433.7,438.2,433.7,438.1,433.7L438.1,433.7z"/>
						</g>
					</g>
				</g>
			</g>
		</g>
		<path class="st51" d="M548.2,460.1c-2.8,2.4-5.6,4.9-8.4,7.3c-2.7,0.5-4.9,1.1-6.5,1.6c-4.5,1.3-6.8,2-8.3,3.7
			c-0.4,0.4-0.5,0.6-2.7,4.7c-1.2,2.1-2.1,3.8-2.7,4.8c0.5,0.5,0.9,0.5,1.1,0.5c0.7,0,1.3-0.7,2.2-1.8c0.2-0.3,0.4-0.5,0.5-0.7
			c0,0-2.4,2.9-4.6,6.3c-1,1.5-1.9,3-1.4,3.6c0.1,0.2,0.3,0.2,0.4,0.3c0.8,0.2,1.7-0.9,3.7-3.2c1.3-1.5,3-3.3,3-3.3c0,0,0,0,0,0
			c0,0-0.1,0.2-3.2,4.5c-1.8,2.4-2.9,3.9-0.4,3.7c0.8-0.1,1.2-0.8,1.3-0.9c4-4.2,5.3-5.6,5.4-5.5c0.1,0.1-5.3,5.5-4.3,6.8
			c1.1,1.1,3.1-0.5,3.2-1c2-2.3,4.5-4.9,4.4-4.8c-0.2,0.2-2.6,2.3-2.3,3.2c1.9,2.2,14.8-12.3,13.8-10.7c2.2-2.6,5.2-5.5,9-8.4
			c2.2-1.6,4.3-3,6.2-4.1C554.4,464.6,551.3,462.4,548.2,460.1z"/>
		<g>
			<path class="st24" d="M541.4,464.1c0.4,1.3,1.6,4.1,4.4,6.6c2.6,2.3,5.4,3.1,6.7,3.4c19.8-14.2,39.7-28.4,59.5-42.7
				c0.5-0.4,1.2-1.1,1.9-2.1c0.6-1,0.9-1.9,1-2.5c6.4-78.4,3.8-96.9-0.2-97.6c-1.8-0.3-5.3,5.1-12.3,15.8c-2.4,3.7-4.3,6.9-5.8,9.5
				c-1.7,17.2-2.5,35.4-2.2,54.4c0,3,0.1,5.9,0.2,8.9C576.8,433.2,559.1,448.6,541.4,464.1z"/>
		</g>
		<g>
			<path class="st24" d="M477.4,417.3L456,428.8c1.7,3.4,3.4,6.8,5.1,10.2c9.1-2.8,18.3-5.6,27.4-8.5
				C485.2,425.9,481.5,421.5,477.4,417.3z"/>
		</g>
	</g>
	<g style="clip-path:url(#SVGID_00000127004042841704945590000008552471477654705318_);">
		<g>
			<g>
				<path class="st53" d="M318.4,570c7.6-3.8,9.8-10.3,9.8-10.3l-0.7-1.7l-0.7-1.7c0,0-6.2-2.8-14.2,0.1c-8,3-3.9,9.8-3.9,9.8
					S310.8,573.8,318.4,570z"/>
				<path class="st54" d="M317.2,567.8c5.4-2.4,10.9-8.3,10.9-8.3l-0.7-1.5l-0.7-1.5c0,0-8.1,0-13.5,2.3c-4.1,1.7-5.5,4.1-4.2,7.2
					C310.5,569,313.2,569.6,317.2,567.8z"/>
				<g>
					<g>
						<path class="st53" d="M326.5,555.9c0.2,0.8-0.7,0.5-1.5,0.3c-5.8-1.8-10.3-1.7-11.1-1.6c-1.8,0.3-3.8,1.2-4.4-1
							c-0.8-2.7,3.7-3.3,7.6-2.5C320.7,551.9,326.1,554.4,326.5,555.9z"/>
					</g>
					<g>
						<path class="st53" d="M328.4,560.1c-0.4-0.7-0.9,0.1-1.2,0.9c-2.6,5.4-5.8,8.7-6.4,9.2c-1.5,1.1-3.5,1.9-2.3,3.9
							c1.4,2.4,5-0.5,7-3.9C327.3,567.1,329.2,561.5,328.4,560.1z"/>
					</g>
				</g>
				<path class="st53" d="M310.3,562.8c-1.7,1-3,1-3.9,0c-1.2-1.2-0.7-3.4,0.3-5.1c1.6-2.7,5.4-2.7,6.6-0.4
					C314.4,559.4,312,561.8,310.3,562.8z"/>
				<path class="st54" d="M310.1,561.7c-0.8,0.9-2.1,1.1-2.9,0.4c-0.8-0.7-0.9-2-0.1-3c0.8-0.9,2.1-1.1,2.9-0.4
					C310.8,559.5,310.9,560.8,310.1,561.7z"/>
				<path class="st54" d="M312.7,559c-0.4,0.5-1.1,0.6-1.5,0.3c-0.4-0.3-0.4-1,0-1.5c0.4-0.5,1.1-0.6,1.5-0.3
					C313.1,557.8,313.1,558.5,312.7,559z"/>
				<path class="st54" d="M311,557.7c-0.3,0.5-0.8,0.6-1.2,0.4c-0.4-0.2-0.5-0.8-0.2-1.2c0.3-0.5,0.8-0.6,1.2-0.4
					C311.2,556.6,311.3,557.2,311,557.7z"/>
				<path class="st54" d="M309.2,557.5c-0.2,0.4-0.6,0.7-0.9,0.5c-0.3-0.1-0.5-0.6-0.3-1c0.2-0.4,0.6-0.7,0.9-0.5
					C309.2,556.6,309.3,557.1,309.2,557.5z"/>
				<path class="st53" d="M312.4,567.5c-1.9,0.6-2.7,1.5-2.7,2.8c0,1.7,2,2.8,3.9,3.3c3,0.7,5.6-2.1,4.8-4.6
					C317.6,566.8,314.3,566.9,312.4,567.5z"/>
				<path class="st54" d="M313,568.4c-1.2-0.1-2.2,0.8-2.3,1.9c-0.1,1.1,0.9,2,2.1,2.1c1.2,0.1,2.2-0.8,2.3-1.9
					C315.2,569.4,314.2,568.4,313,568.4z"/>
				<path class="st54" d="M316.8,568.4c-0.7,0-1.2,0.4-1.2,0.9c0,0.5,0.5,1,1.1,1c0.7,0,1.2-0.4,1.2-0.9
					C317.9,568.9,317.4,568.4,316.8,568.4z"/>
				<path class="st54" d="M316.6,570.5c-0.5-0.1-1,0.1-1.1,0.6c-0.1,0.4,0.3,0.9,0.8,1c0.5,0.1,1-0.1,1.1-0.6
					C317.5,571,317.1,570.6,316.6,570.5z"/>
				<path class="st54" d="M315.5,572c-0.4-0.2-0.9,0-1,0.3c-0.1,0.3,0.1,0.8,0.5,0.9c0.4,0.2,0.9,0,1-0.3
					C316.1,572.6,315.9,572.1,315.5,572z"/>
			</g>
			<g>
				<path class="st53" d="M339.1,562.7c1.4-1.9,1.9-3.4,1.8-5.8c-0.3-5.2-3.6-10.7-10.1-12.1c-2.9-0.6-4.5,0.5-5.8,3.6
					c-1.4,3.3-2.6,6.9-1.2,10.1c1.2,2.7,4.7,5.3,7.6,6.2C335.9,566,337.4,565.1,339.1,562.7z"/>
				<path class="st54" d="M340.9,556.9c-0.2-3.7-1.9-7.6-5.3-10c-1.1,1.7-2.7,4.3-4,5.6c-2.7,2.8-6.9,3.8-6.2,5.3
					c0.7,1.5,5.7-0.8,8.1-0.8c2.8,0,5.8,0.5,7.5,0.9C340.9,557.5,340.9,557.2,340.9,556.9z"/>
				<g>
					<g>
						<path class="st55" d="M327.5,553.3c-0.7,0.3-1.6,0-1.9-0.7c-0.3-0.7,0-1.6,0.7-1.9c0.7-0.3,1.6,0,1.9,0.7
							C328.6,552.1,328.2,553,327.5,553.3z"/>
						<path class="st56" d="M327,552.9c-0.4,0.2-0.8,0-1-0.4c-0.2-0.4,0-0.8,0.4-1c0.4-0.2,0.8,0,1,0.4
							C327.6,552.3,327.4,552.7,327,552.9z"/>
						<path class="st57" d="M326.3,551.2c0.6-0.3,1.3,0,1.5,0.6c0.2,0.5,0.1,1-0.3,1.3c0.5-0.3,0.7-1,0.5-1.5
							c-0.3-0.6-1-0.9-1.6-0.6c-0.5,0.2-0.8,0.7-0.7,1.2C325.7,551.7,325.9,551.4,326.3,551.2z"/>
						<path class="st57" d="M327.3,552c-0.2,0.1-0.3,0-0.4-0.2c-0.1-0.2,0-0.3,0.2-0.4s0.3,0,0.4,0.2
							C327.5,551.7,327.4,551.9,327.3,552z"/>
						<path class="st57" d="M326.7,551.8c-0.1,0-0.2,0-0.3-0.1c0-0.1,0-0.2,0.1-0.3c0.1,0,0.2,0,0.3,0.1
							C326.8,551.6,326.8,551.8,326.7,551.8z"/>
					</g>
					<g>
						<path class="st55" d="M330.2,559.5c-0.7,0.3-1,1.1-0.7,1.9c0.3,0.7,1.1,1,1.9,0.7c0.7-0.3,1-1.1,0.7-1.9
							C331.8,559.5,330.9,559.2,330.2,559.5z"/>
						<path class="st56" d="M330.2,560.1c-0.4,0.2-0.5,0.6-0.4,0.9c0.2,0.4,0.6,0.5,1,0.4c0.4-0.2,0.5-0.6,0.4-1
							C331,560.1,330.5,559.9,330.2,560.1z"/>
						<path class="st57" d="M330.9,561.8c0.6-0.3,0.9-0.9,0.6-1.5c-0.2-0.5-0.7-0.7-1.2-0.7c0.6-0.1,1.2,0.1,1.4,0.7
							c0.3,0.6,0,1.4-0.6,1.6c-0.5,0.2-1,0.1-1.4-0.3C330.1,561.9,330.5,561.9,330.9,561.8z"/>
						<path class="st57" d="M331,560.5c-0.2,0.1-0.2,0.2-0.2,0.4c0.1,0.2,0.2,0.2,0.4,0.2s0.2-0.2,0.2-0.4
							C331.3,560.5,331.2,560.5,331,560.5z"/>
						<path class="st57" d="M330.7,561.1c-0.1,0-0.1,0.2-0.1,0.3c0,0.1,0.2,0.1,0.3,0.1c0.1,0,0.1-0.2,0.1-0.3
							C330.9,561.1,330.8,561.1,330.7,561.1z"/>
					</g>
				</g>
				<g>
					<g>
						<path class="st53" d="M354.8,565.5c1-0.4,3.2-1.3,0.8-4c-1.8-2-3.8-3.1-5.5-3.7c-4-1.6-7.8-2.6-11.2-1.3c0,0-0.8,2.8-0.2,3.2
							c0,0,5.2,3.9,7.6,4.7C349.4,565.7,352.3,566.4,354.8,565.5z"/>
					</g>
					<g>
						<path class="st54" d="M351.2,563.3c4.4-0.7-2.3-4.1-3.6-4.6c-3.1-1.2-7.4-1.6-8.6-1.8c0,0-0.8,1.1-0.5,2.2
							c0,0,4.5,2.1,6.3,2.8C347.1,562.9,349.1,563.6,351.2,563.3z"/>
					</g>
				</g>
				<g>
					<g>
						<path class="st58" d="M340.3,539.3c-1.1-0.5-2.2-0.9-3.3-1.4c-0.3-0.1-0.6-0.3-1-0.4c-0.1,0.2-0.2,0.4-0.3,0.5
							c-1.4,2.8-2.4,8.9-2.4,8.9c0,0.3,2.5,2.2,2.5,2.2c3.2-2.1,5.1-4.7,6.9-8.2C341.9,540.4,341.2,539.7,340.3,539.3z"/>
					</g>
					<g>
						<path class="st54" d="M341.3,540.2c0,0-4.2-0.9-4.8,0.6c-1,2.1-2.8,6.5-2.8,6.5c0,0.2,1.9,1.6,1.9,1.6
							C336.4,547.6,339.5,543.7,341.3,540.2z"/>
					</g>
					<g>
						<path class="st53" d="M339.5,536.3c-0.8-0.7-2.8-0.5-4.9-0.3c-1.3,0.1-6.3,2.1-6,3c0.3,0.9,8.2,2.8,9.6,2.7
							C341,541.7,346.2,542.5,339.5,536.3z"/>
					</g>
				</g>
				<path class="st59" d="M325.2,560.7c1.2,0.2,2-3,1.6-3.6c-0.3-0.7-1.1-0.8-2.4-1.4c-0.7-0.4-1.1-0.1-1.4,0.2
					c0.1,0.9,0.2,1.8,0.6,2.6C324.1,559.3,324.6,560,325.2,560.7z"/>
				<g>
					<g>
						<path class="st60" d="M325,557.9c0,0-0.5,0.2-0.8,0.4c-0.3,0.1-0.8-0.2-0.3-0.9"/>
					</g>
					<g>
						<path class="st60" d="M325,557.9c0,0-0.5,0.2-0.8,0.4c-0.3,0.1-0.4,0.7,0.5,0.9"/>
					</g>
				</g>
				<g>
					<path class="st61" d="M325.9,558.9c-0.3-0.1-0.7-0.3-1-0.6c-0.1-0.2-0.3-0.6-0.3-0.8c0-0.4,0.1-0.8,0.3-1.1
						c0.1-0.2,0.8-0.7,1.4,0.8C326.9,558.9,326.1,559,325.9,558.9z"/>
					<g>
						<g>
							<path class="st62" d="M324.5,557.6c0.1,0,0.2,0,0.3,0c0.2-0.1,0.3-0.4,0.1-0.8c0-0.1-0.1-0.2-0.2-0.3
								C324.6,556.8,324.5,557.2,324.5,557.6z"/>
							<path class="st62" d="M325.9,558.9c0-0.1,0-0.2-0.1-0.3c-0.2-0.4-0.5-0.5-0.7-0.5c-0.1,0-0.2,0.1-0.2,0.2
								C325.2,558.7,325.5,558.9,325.9,558.9z"/>
						</g>
					</g>
					<path class="st63" d="M326.3,558.1c0,0,0.1-0.5-0.4-1.2c-0.5-0.6-0.9-0.5-0.9-0.4c0,0.1,0.3,0.5,0.2,0.9
						C325.1,557.8,325.5,556.6,326.3,558.1z"/>
				</g>
				<g>
					<path class="st64" d="M324.2,556.9c-0.3,0.1-0.6,0-0.7-0.3c-0.1-0.3,0-0.6,0.3-0.7c0.3-0.1,0.6,0,0.7,0.3
						C324.6,556.5,324.5,556.8,324.2,556.9z"/>
					<path class="st64" d="M325.6,560c-0.3,0.1-0.6,0-0.7-0.3c-0.1-0.3,0-0.6,0.3-0.7c0.3-0.1,0.6,0,0.7,0.3
						C326,559.6,325.8,559.9,325.6,560z"/>
				</g>
			</g>
		</g>
		<path class="st12" d="M297,498c5.8,15,11.6,30.1,17.4,45.1c-0.2,1.2-0.3,2.7-0.2,4.4c0.2,2.7,0.9,4.8,1.5,6.3
			c0.9,1.8,1.5,2.6,1.8,2.5c0.3-0.1,0.2-1.5-0.3-4.1c0.9,3.7,2.5,6,3.6,7.3c0.2,0.2,3.1,3.4,4.1,2.8c0.1-0.1,0.2-0.2,0.2-0.3
			c0.3-0.8-1.2-1.6-2.4-3.3c-1.1-1.5-1.5-3-1.4-3c0.1,0,0.6,1.4,1.9,3c1.4,1.8,3.6,3.7,4.3,3.3c0,0,0.1-0.1,0.2-0.3
			c0.4-0.9-1.4-2.7-4.6-7.4c4.1,5.3,5,6.4,5.5,6.1c0.8-0.4-0.2-1.6-3.4-7.4c-0.1-0.2-0.1-0.3,0-0.3c0,0,0.1,0,0.2,0.1
			c0.2,0.4,1.6,3.2,2.7,3c0.1,0,0.2,0,0.3-0.1c0.5-0.4-0.7-1.9-1.8-5.2c-0.3-0.8-0.4-1.4-0.6-1.9c-0.3-1.2-0.3-1.8-0.7-2.7
			c-0.3-0.6-0.6-1.1-0.8-1.3c-0.4-1.1-1.1-2.2-2.1-3.1c-0.1-0.1-0.1-0.1-0.1-0.1c-0.8-0.8-4.2-10.4-13.2-41.1
			C305.1,499.5,301.1,498.8,297,498z"/>
		<path class="st65" d="M293.4,501c-2.3-4.7-7.4-16.7-2.3-26.2c0.4-0.7,0.8-1.3,1.2-2c1.6,0.6,3.7,1.4,5.8,2.8c0,0,0,0,0,0
			c0,0,0.6,0.4,1.3,0.9c9.2,6.8,14.3,29.5,14.3,29.5c1,4.8,2.2,9.7,3.5,14.7c1.8,6.9,3.7,13.5,5.7,19.7c-0.7,0.7-2.1,2-4.3,2.8
			c-2.1,0.7-3.8,0.7-4.8,0.6c-3.2-4.8-6.4-10.2-9.5-16.2C299.5,518.1,295.9,509,293.4,501z"/>
		<g>
			<g>
				<path class="st12" d="M281.3,573c0.7,11.8,1.4,23.7,2.1,35.5c-0.2,0.7-0.4,1.9-0.9,3.4c-1.3,4.4-3.1,10.6-8.3,14.6
					c-0.8,0.6-4.6,3.6-6.6,2.4c-1.6-1-1.2-4.1-1-6.2c0.3-3.2,1.3-5,2.9-9.5c0.9-2.6,1.6-4.7,2-6.3c-1.7-9.3-3.4-18.6-5.2-27.8
					C271.4,577,276.3,575,281.3,573z"/>
				<path class="st66" d="M268.3,624.5c0.9,0.8,2.2,0.5,2.7,0.4c2.1-0.4,4.4-2.3,9.2-10.6c1.2-2.1,2.3-4.1,3.2-5.9
					c0.2,0.6,0.4,1.3,0.6,2.1c0.3,1.2,0.5,2.3,0.6,3.3c-0.9,2.2-1.8,3.7-2.3,4.5c-0.1,0.3-0.4,0.7-0.7,1.1c-0.6,1-1.1,1.7-1.7,2.7
					c-4.3,6.7-5.1,9.1-8.1,11.1c-0.3,0.2-1.4,0.9-3,1.2c-0.7,0.1-2.9,0.6-4.3-0.7c0,0-0.1-0.1-0.1-0.1c-1.3-1.3-1.4-3.2-1.4-3.9
					c-0.1-2.4,0.9-4.9,1.9-7.2c2-4.5,3.5-7.1,3.6-7.1c0.2,0.1-1.4,3-1.2,6.7C267.5,622.9,267.6,623.9,268.3,624.5z"/>
				<path class="st12" d="M249.7,592.1c-2.2,6-5,12.7-8.7,19.8c-2.9,5.6-5.9,10.6-8.9,15c-1.2,1.8-2.4,3.5-3.5,5.1
					c0.1,1,0.1,2,0.2,2.9c0.1,1.4,0.2,2.7,0.2,4.1c0.1,1.1-0.5,2.2-1.6,2.7c-0.1,0-0.1,0.1-0.2,0.1c-1.2,0.6-2.6,1.4-4,2.6
					c-3.7,3.1-3.8,5.7-6.6,9c-0.6,0.7-1.3,1.4-2,2.1c0,0,0,0,0,0c-4.3,3.3-10.2,4.3-12,2.4c-0.1-0.1-0.1-0.1-0.1-0.2
					c-0.1-2,0.9-4.8,1.5-6.7c1.2-3.3,2.5-5.7,4.1-7.8c3-4.1,6.6-7.1,9.9-13.1c0.9-1.6,1.7-3.6,2.7-6.7c0.6-1.9,1.4-4.2,2.3-7
					c3-9.3,5-17.2,6.3-23C236.1,593,242.9,592.6,249.7,592.1z"/>
				<path class="st65" d="M215.6,627.6c6.3,0.7,12.5,1.4,18.8,2c5.3-12.1,10.7-24.3,16-36.4c1.4-3.1,3-6.3,4.9-9.6
					c3.9-7,8.2-13,12.2-18c-6.6-3-13.2-6-19.8-9c-3.2,1.3-9.8,4.4-15.5,11.3c-6,7.4-7.7,15-8.2,18.4
					C221.2,600.1,218.4,613.8,215.6,627.6z"/>
				<path class="st65" d="M265.6,608.2c2,0.5,4.6,0.9,7.6,0.9c6.2-0.1,11-2,13.7-3.4c-0.7-8.3-0.7-20,2.9-33.1
					c1.6-5.6,3.5-10.5,5.5-14.7c-6.2-6.1-15.3-7.5-22.3-3.7c-8.2,4.4-9.3,13.8-9.4,14.7C264.3,581.9,265,595,265.6,608.2z"/>
			</g>
			<path class="st67" d="M297.7,571.4c-1.1,7.6-2.9,17.6-5.7,29.4c-4.2,2.7-10.6,6.1-18.7,6.3c-5.4,0.2-6.5-1.2-11.5-1.8
				c-15.6-1.6-21.6,9.6-36.1,8.9c-3.6-0.2-9.2-1.2-16.1-5.7c0.6-8.6,3.3-31.6,21.2-50.5c6.5-6.9,13.4-11.5,19.1-14.5
				c0.6-10.2,0.9-18.8,1-25.3c0.3-12.8,0-14.8-1.1-17.3c-3.6-8.6-11.7-13.1-10-17.1c0.3-0.7,1.4-1.7,3.6-3.9
				c1.6-1.5,2.9-2.7,3.9-3.5c0,0,4.5-2.2,10.1-4c0.2-0.1,0.4-0.1,0.6-0.2c0.6-0.2,1.1-0.3,1.7-0.5c0.2,0,0.3-0.1,0.5-0.1
				c0.2-0.1,0.4-0.1,0.6-0.1c4.3-1.1,10.6-1.8,18.2-1.4h0c0.1,0,0.1,0,0.2,0c0.5,0,1,0.1,1.6,0.1c0.2,0,0.4,0,0.6,0
				c3.5,0.3,7.4,1.1,11.6,2.8c1,0.4,2.1,0.8,3.3,1.5c1.6,0.8,2.8,1.8,3.9,2.6c-2.6,7.7-5.4,19.2-4.6,32.9c0,0.3,0,0.6,0.1,1
				c0.3,4,0.7,7.7,1.2,11c0.9,6.6,2.8,15.8,2.9,16.6C301.5,546.8,300.1,555,297.7,571.4z"/>
			<path class="st12" d="M241.2,523.4c-0.6,2,0.2,4.2,2,5.4c4.7,3.2,8.2,5.4,9.5,6.2c2.3,1.4,4.5,2.3,4.5,2.3c0,0,0,0,0,0l0,0
				c3.2,1.4,5.1,1.6,7.7,3.2c5.5,3.5,8.2,9.5,7.3,10.1c-1.1,0.7-4.3-5.2-4.7-5c-0.4,0.3,5,6.7,3.9,7.5c-1,0.8-2.2-1.3-6.6-5.9
				c4.4,5.1,5.2,6.2,4.8,6.7c-0.6,0.7-1.5-0.5-6.5-4.9c1.9,2.6,2.4,3.1,1.9,3.6c-0.5,0.4-1.7-1.1-4.8-2.9c-3-1.8-3.5-1.6-5.5-3.1
				c-0.4-0.3-0.7-0.6-1-0.8c-1-0.8-1.5-1.3-2.5-2.3c-1.6-1.6-4.4-2.9-5.5-3.4c-2.5-1.2-6.5-3.3-12.4-6.6c-1.8-1-2.8-3.1-2.4-5.2
				c2.2-11.8,4.3-23.6,6.5-35.4c3.5,2.3,7,4.6,10.5,6.8C245.6,507.7,243.4,515.5,241.2,523.4z"/>
			<path class="st65" d="M232.3,534.3c-2.9-1.8-4.4-5.2-3.8-8.5c4.3-22.5,8.2-38.3,9-39.8c1.2-2.2,2.7-3.9,2.7-3.9c0,0,0,0,0,0
				c0.4-0.4,0.7-0.8,1.2-1.3c1.5-1.5,3.1-2.4,4.4-3c1.4,2.3,3,5.3,4.3,9.1c1.4,4.1,2,7.7,2.2,10.5c-2.1,7.4-4.1,14.8-6.2,22.2
				c-0.9,3,0,6.2,2.3,8.3c3.2,2.9,6.4,5.8,9.5,8.7c-0.5,1.3-1.3,3.1-2.8,5c-1.5,1.9-3.1,3.2-4.2,4
				C244.8,541.8,238.6,538.1,232.3,534.3z"/>
		</g>
		<g>
			<path class="st12" d="M281.5,459.5c-5.4-0.7-10.7-1.4-16.1-2.1c-0.1,4.4-0.2,8.9-0.3,13.3c0.9,1.1,2,2.2,3.3,3.4
				c3.1,2.7,6.4,4.3,8.7,5.1c0.7-0.5,1.9-1.6,2.8-3.3c0.7-1.3,0.9-2.5,0.9-3.3C281,468.2,281.2,463.9,281.5,459.5z"/>
			<path class="st17" d="M281,467.6c-5.3-2.7-10.7-5.4-16-8.1c0.1,1.9,0.2,3.8,0.3,5.7c1.6,1.5,4.1,3.6,7.7,4.8
				c3.2,1.1,5.2,0.8,5.7,0.7c1-0.2,1.8-0.5,2.3-0.7C280.9,469.2,281,468.4,281,467.6z"/>
			<g>
				<path class="st12" d="M277,426.2c9.1,0.5,16,8.1,15.8,17.2c-0.1,2.7-0.3,5.5-0.9,8.3c-2,9.3-8.2,19.5-16.4,17.2
					c-13.5-3.8-15.1-10.7-16.8-21.4c0-0.2-0.1-0.4-0.1-0.6C256.7,435.6,265.7,425.6,277,426.2L277,426.2z"/>
				<g>
					<path class="st68" d="M283.2,460.4c-0.1-0.3-1.4,0.5-3.8,0.5c-2.1,0-3.2-0.7-3.3-0.4c-0.2,0.4,1.4,2.1,3.3,2.2
						C281.6,462.7,283.4,460.8,283.2,460.4z"/>
					<path class="st17" d="M282.5,456.6c-0.3,0.2-0.8,0.4-1.4,0.5c-1,0.1-1.6-0.3-1.7-0.3c0,0.1,1.3,1.3,2.3,0.8
						C282.3,457.4,282.5,456.8,282.5,456.6z"/>
					<path d="M284.4,444.4c0.5-0.2,2.5-1.1,4.7-0.4c1.1,0.4,1.8,1,2.2,1.4c-0.2-0.5-0.7-1.5-1.8-2.3c-2.2-1.4-4.8-0.4-5-0.3
						c0,0.2-0.1,0.4-0.1,0.7C284.4,443.8,284.4,444.1,284.4,444.4z"/>
					<path d="M277.2,444.8c-0.8-0.3-2.7-1.1-5.1-0.6c-1.5,0.3-2.6,0.9-3.3,1.3c0.4-0.6,1.4-1.7,3-2.3c2.6-1.1,5-0.1,5.5,0.1
						c0.1,0.1,0.2,0.5,0.2,0.9C277.4,444.5,277.3,444.7,277.2,444.8z"/>
				</g>
				<path class="st12" d="M262.3,447c0,2.9-0.6,5.6-2.8,5.6c-2.2,0-4.5-2.9-4.5-5.7c0-2.9,1.2-5,3.4-5
					C260.6,441.7,262.3,444.1,262.3,447z"/>
			</g>
		</g>
		<path class="st66" d="M229.4,638.7c0.1,1.2-0.6,2.3-1.7,2.9c-0.1,0.1-0.2,0.1-0.3,0.2c-0.1,0-0.1,0.1-0.2,0.1
			c-1.2,0.6-2.4,1.4-3.7,2.5c-3.2,2.8-3.5,5.5-6.8,9.3c-0.6,0.7-1.3,1.3-2.1,1.9c0,0,0,0,0,0c-4.3,3.3-10.2,4.3-12,2.4
			c-0.1-0.1-0.1-0.1-0.1-0.2c-1.4-1.8,0-5.8,0.2-6.5c0,0,0.1-0.3,0.3-0.6c1.1-2.5,2.8-4.9,2.8-4.9c2.1-2.9,4.1-4.8,4.2-4.8
			c0,0-1,0.9-1.8,2.3c-0.4,0.8-2.2,3.7-1.1,5.6c0.3,0.5,1.3,1.5,2.6,1.6c1.8,0.2,6.5-3.1,16.2-12.6c0.8-0.8,1.8-1.8,2.9-3
			c0.1-0.1,0.3-0.3,0.4-0.4C229.2,635.9,229.3,637.3,229.4,638.7z"/>
	</g>
	<g style="clip-path:url(#SVGID_00000127004042841704945590000008552471477654705318_);">
		<path class="st10" d="M290.2,448.3c-0.3-0.3-0.7-0.8-1.4-1.1c-0.4-0.2-1.6-0.8-2.9-0.3c-1.1,0.4-1.6,1.2-1.8,1.5
			c0.2,0.3,1.1,1.1,2.4,1.3C288.7,450,290.1,448.4,290.2,448.3z"/>
		<path class="st21" d="M285.6,448c0,0,0-0.6,0.3-1c0.5-0.5,1.3-0.3,1.8-0.2c0.4,0.1,0.7,0.3,0.9,0.4c0.2,1-0.4,2-1.3,2.2
			C286.5,449.6,285.7,448.8,285.6,448z"/>
		<path d="M290.3,448.3c-0.1-0.2-0.7-1.5-2.1-1.9c-1.5-0.4-3.2,0.3-4.1,1.9c0.2-0.2,2.1-1.8,4.3-1.1
			C289.3,447.5,290,448,290.3,448.3z"/>
		<path d="M286.7,448.2c0-0.1,0-0.2,0-0.2c0.1-0.3,0.5-0.6,0.8-0.5c0.3,0.1,0.5,0.4,0.5,0.5c0.1,0.4-0.2,0.9-0.6,0.9
			C287,448.9,286.7,448.5,286.7,448.2z"/>
		<path class="st10" d="M286.3,447.9c0-0.1,0-0.1,0-0.1c0-0.2,0.2-0.3,0.4-0.3c0.2,0,0.2,0.2,0.2,0.2c0,0.2-0.1,0.4-0.3,0.4
			C286.5,448.3,286.4,448.1,286.3,447.9z"/>
	</g>
	<g style="clip-path:url(#SVGID_00000127004042841704945590000008552471477654705318_);">
		<path class="st10" d="M270.2,447.9c0.5-0.3,1.3-0.6,2.3-0.9c0.9-0.2,1.5-0.4,2.2-0.2c1.1,0.3,1.7,1.3,1.9,1.7
			c-0.3,0.3-1.4,1-2.8,1C271.7,449.6,270.4,448.1,270.2,447.9z"/>
		<path class="st21" d="M272.3,448c0,0,0-0.6,0.4-0.9c0.5-0.5,1.4-0.2,1.9-0.1c0.4,0.1,0.8,0.3,1,0.5c0.2,1-0.5,1.9-1.4,2
			C273.2,449.6,272.3,448.8,272.3,448z"/>
		<path d="M269.7,448.2c-0.1-0.1,2.8-2.8,5.2-1.7c1.1,0.5,1.6,1.6,1.7,2.1c-0.6-0.6-1.3-1.2-2.3-1.4
			C271.8,446.6,269.7,448.3,269.7,448.2z"/>
		<path d="M273.4,448.2c0-0.1,0-0.2,0-0.2c0.1-0.3,0.5-0.6,0.9-0.5c0.3,0.1,0.5,0.4,0.5,0.5c0.1,0.4-0.2,0.8-0.6,0.9
			C273.7,448.9,273.4,448.5,273.4,448.2z"/>
		<path class="st10" d="M273.1,448c0-0.1,0-0.1,0-0.1c0-0.1,0.2-0.3,0.4-0.2c0.2,0,0.2,0.2,0.2,0.2c0,0.2-0.1,0.4-0.3,0.4
			C273.2,448.3,273.1,448.1,273.1,448z"/>
	</g>
	<path style="clip-path:url(#SVGID_00000127004042841704945590000008552471477654705318_);fill:#262626;" d="M222.6,644.3
		c0.2,0.6,0.4,1.2,0.6,1.8c2.2-1.6,4.3-3.3,6.5-4.9c-0.1-1.3-0.2-2.5-0.3-3.8C227.1,639.7,224.9,642,222.6,644.3z"/>
	<path style="clip-path:url(#SVGID_00000127004042841704945590000008552471477654705318_);fill:#262626;" d="M282.3,617.9
		c0,0.5,0.1,1,0.1,1.5c0.1,0.2,0.1,0.3,0.2,0.5c0.8-1.6,1.7-3.3,2.5-4.9c-0.2-0.8-0.3-1.6-0.6-2.5c-0.2-0.9-0.5-1.7-0.7-2.4
		C283,612.1,282.2,614.8,282.3,617.9z"/>
	<path style="clip-path:url(#SVGID_00000127004042841704945590000008552471477654705318_);fill:#020202;" d="M282.3,618.3
		c-0.3,0.4-0.6,0.9-0.8,1.3c0.4,0.1,0.8,0.2,1.2,0.3C282.6,619.3,282.5,618.8,282.3,618.3z"/>
	<path style="clip-path:url(#SVGID_00000127004042841704945590000008552471477654705318_);fill:#1E1A14;" d="M291.5,437.6
		c-1.2-0.9-5.8-3.9-12.1-3.2c-7.8,0.8-12.1,6.6-12.8,7.5c-0.8-3.6-1.6-7.3-2.4-10.9c8-1.5,16-3.1,24.1-4.6c0.8,1.2,1.9,3.1,2.6,5.6
		C291.5,434.3,291.6,436.3,291.5,437.6z"/>
	<path style="clip-path:url(#SVGID_00000127004042841704945590000008552471477654705318_);fill:#CE2026;" d="M291.5,431.2
		C291.5,431.2,291.5,431.2,291.5,431.2c-0.1-0.6-0.3-1.2-0.4-1.8c0,0-0.3-0.9-0.7-1.8c-3.4-7.2-14.3-12.5-23.6-9.7
		c-9.5,2.8-13.1,12.7-13.8,14.5c-1,2.6-1,4.2-1.1,20.8c-0.1,14.1,0,14.7-0.9,16.3c-3.1,5.6-8.7,6.6-12.9,14.9
		c-0.9,1.7-1.4,3.2-1.7,4.1c3.2-2.6,7.2-4.8,11.4-4.2c7,1,9.2,8.8,15,8.3c4.3-0.4,5.1-5.1,10.2-5.1c3.3,0,3.8,2,7.1,2
		c4.3,0,5.4-3.4,9.8-5c7.5-2.8,14.3,3.2,15.6,1.3c1.3-2-4.4-10.3-10.1-11.5c-0.7-0.2-2.3-0.4-3.8-1.7c-1.6-1.3-2.2-3.1-2.6-4.3
		c1.6-3.7,3.2-8.7,4-14.8C294.2,444,292.8,436.1,291.5,431.2z M289,459.4c-0.1,0.2-0.2,0.4-0.2,0.5c-1.3,2.5-3.2,6-6.5,7.5
		c-0.8,0.4-2.2,0.8-4.3,0.7h0c-1.7-0.4-4.1-1.3-6.2-3.2c-6.6-5.8-5.2-16-4.7-19c0.7-4.6,1.5-10.4,6.4-13.5c4.8-3.1,12.2-2.9,16,1.1
		c1.3,3.1,2.6,7.6,2.6,12.9C291.9,453,289.8,457.7,289,459.4z"/>
	<g style="clip-path:url(#SVGID_00000127004042841704945590000008552471477654705318_);">
		<g>
			<g>
				<rect x="358.9" y="185.5" class="st73" width="143.3" height="88.8"/>
				<path class="st74" d="M502.1,271.2v3.1H359.6c0.2-0.7,0.4-1.3,0.6-2c0,0,0-0.1,0-0.1c2.3-7.6,9.4-12.7,17.3-12.7
					c2.3,0,4.6,0,6.9,0c5.7,0,11.5,0,17.1,0.1c2.6-1.9,5.2-3.9,7.7-5.8h42.5c3.9,2.4,9.7,5.6,17.4,8.1c1.6,0.5,3.2,1.1,5.5,1.6
					c11.9,2.8,17.5,0.4,23.8,4.5C499.6,268.6,500.9,269.7,502.1,271.2z"/>
			</g>
			<g>
				<g>
					<path class="st74" d="M450.1,248.3v1.7h-38.4v-1.7h1.2v-6.6h1v-6.2h0.8v-4.7h-0.5v-0.5H414V230h0.7c0,0-0.7-0.2-0.7-1.7h0.7
						l0.7-6.2l0.7,6.2h0.7c0,1.5-0.7,1.7-0.7,1.7h0.7v0.4h-0.2v0.5h-0.5v4.7h2.6v-4.4c0.8-0.8,1.6-1.1,2.2-1.2v-1.1h0.5v1.1
						c1.4,0.1,2.3,1.1,2.4,1.2c-3.3-5.2,1-8.2,3.3-8.8c1.7-0.4,2.9-1.5,3.5-2V216c-0.9-0.3-1.6-1.2-1.6-2.3c0-1,0.6-1.8,1.4-2.2
						c-0.4,0.4-0.6,0.9-0.6,1.5c0,1.3,1,2.3,2.3,2.3c0.5,0,0.9-0.2,1.3-0.4c-0.4,0.7-1.2,1.2-2.1,1.2c-0.1,0-0.1,0-0.2,0v4.2
						c0.6,0.5,1.9,1.6,3.5,2c2.2,0.6,6.6,3.6,3.3,8.8c0.1-0.1,1-1.1,2.4-1.2v-1.1h0.5v1.1c0.7,0.1,1.4,0.4,2.2,1.2v4.4h2.6v-4.7
						h-0.5v-0.5h-0.2V230h0.7c0,0-0.7-0.2-0.7-1.7h0.7l0.7-6.2l0.7,6.2h0.7c0,1.5-0.7,1.7-0.7,1.7h0.7v0.4h-0.2v0.5h-0.5v4.7h0.8
						v6.2h1v6.6H450.1z"/>
					<g>
						<path class="st1" d="M420.3,238.3c-1.1,0-1.9,0.9-1.9,1.9v7.9h3.9v-7.9C422.3,239.2,421.4,238.3,420.3,238.3z"/>
						<path class="st1" d="M427.4,238.3c-1.1,0-1.9,0.9-1.9,1.9v7.9h3.9v-7.9C429.4,239.2,428.5,238.3,427.4,238.3z"/>
						<path class="st1" d="M434.4,238.3L434.4,238.3c-1.1,0-1.9,0.9-1.9,1.9v7.9h3.9v-7.9C436.4,239.2,435.5,238.3,434.4,238.3z"/>
						<path class="st1" d="M441.4,238.3c-1.1,0-1.9,0.9-1.9,1.9v7.9h3.9v-7.9C443.4,239.2,442.5,238.3,441.4,238.3z"/>
						<rect x="420.7" y="234.2" class="st1" width="1.4" height="1.4"/>
						<rect x="423.9" y="234.2" class="st1" width="1.4" height="1.4"/>
						<rect x="426.9" y="234.2" class="st1" width="1.4" height="1.4"/>
						<rect x="430" y="234.2" class="st1" width="1.4" height="1.4"/>
						<rect x="433.1" y="234.2" class="st1" width="1.4" height="1.4"/>
						<rect x="436.2" y="234.2" class="st1" width="1.4" height="1.4"/>
						<rect x="439.2" y="234.2" class="st1" width="1.4" height="1.4"/>
					</g>
				</g>
				<rect x="411" y="250" class="st2" width="39.8" height="3.7"/>
			</g>
			<g>
				<g>
					<path class="st2" d="M383.3,247.8c0.4,1.5,0.7,3.4,0.8,5.4c0.1,2.2,0.1,4.1-0.1,5.7c-0.3,0-0.6,0.1-1,0.3
						c-0.6,0.3-1,0.8-1.2,1.1c0.3-0.2,0.8-0.3,1.4-0.3c0.4,0,0.4,0.1,0.8,0.1c0.8,0,1.3-0.2,1.7-0.1c0,0,0.2,0.1,0.4,0
						c0,0,0.4,0,0.4-0.1c0-0.1-0.6-0.2-1.3-0.7c-0.2-0.1-0.4-0.3-0.5-0.3c0.1-1.7,0.2-3.7,0-5.9c-0.1-2.1-0.4-4-0.8-5.7
						C383.8,247.6,383.6,247.7,383.3,247.8z"/>
					<path class="st74" d="M382.6,247c-0.6,0.2-1.3,0.4-1.9,1c-2.1,1.8-1.9,4.7-1.9,5.1c0.1-0.6,0.5-2.3,1.9-3.7c1-1,2-1.4,2.6-1.6
						c-0.1,0.7-0.1,1.5,0,2.4c0.2,2,0.9,3.6,1.5,4.7c-0.4-0.9-0.7-2.3-0.8-3.9c-0.1-1.3,0.1-2.4,0.2-3.2c0.4,0.1,0.9,0.2,1.4,0.5
						c1.9,1,2.7,2.9,2.9,3.5c0.2-0.5,0.3-1.2,0.1-2c-0.5-1.5-2.2-2.6-4.3-2.7c0.4-0.2,0.9-0.4,1.5-0.5c2-0.2,3.5,1.5,3.6,1.7
						c-0.1-0.1-1.3-2.3-3.5-2.4c-1,0-1.8,0.3-2.2,0.6c-0.4-0.2-1-0.5-1.7-0.4c-1.4,0.3-2.1,2.3-2.2,3.6c-0.1,1.5,0.7,2.6,1,3.1
						c-0.4-0.8-0.7-2.1-0.5-3.5c0.1-0.7,0.3-1.8,1.1-2.1C381.9,246.8,382.3,247,382.6,247z"/>
				</g>
				<g>
					<path class="st2" d="M388.1,237.8c0.6,2.8,1.2,6,1.4,9.7c0.3,3.9,0.1,7.4-0.1,10.3c-0.5,0.1-1.1,0.3-1.7,0.6
						c-1.1,0.6-1.8,1.5-2.1,2c0.6-0.3,1.5-0.6,2.5-0.6c0.7,0,0.6,0.2,1.4,0.2c1.4,0.1,2.3-0.4,3.1-0.2c0.1,0,0.3,0.1,0.7,0.1
						c0.1,0,0.7,0,0.7-0.2c0-0.2-1.1-0.4-2.4-1.2c-0.4-0.2-0.7-0.5-0.8-0.6c0.2-3.1,0.3-6.6,0.1-10.6c-0.2-3.8-0.8-7.3-1.4-10.2
						C389,237.4,388.5,237.6,388.1,237.8z"/>
					<path class="st74" d="M386.8,236.5c-1,0.3-2.3,0.8-3.5,1.8c-3.8,3.2-3.5,8.4-3.4,9.1c0.2-1.2,0.9-4.1,3.4-6.6
						c1.7-1.7,3.6-2.6,4.7-2.9c-0.1,1.2-0.1,2.7,0,4.3c0.4,3.7,1.6,6.5,2.7,8.4c-0.6-1.6-1.3-4-1.5-7c-0.1-2.3,0.1-4.3,0.4-5.8
						c0.8,0.1,1.6,0.4,2.5,0.8c3.5,1.7,4.8,5.1,5.2,6.3c0.3-0.9,0.5-2.2,0.1-3.6c-0.8-2.7-3.9-4.7-7.7-4.8c0.6-0.4,1.6-0.8,2.7-0.9
						c3.6-0.4,6.2,2.6,6.5,3c-0.1-0.2-2.3-4.2-6.3-4.3c-1.8-0.1-3.2,0.6-3.9,1c-0.7-0.4-1.8-1-3.1-0.7c-2.6,0.5-3.8,4.1-3.9,6.4
						c-0.1,2.7,1.3,4.7,1.9,5.5c-0.6-1.5-1.3-3.7-0.8-6.3c0.2-1.2,0.6-3.2,2-3.8C385.6,236.1,386.3,236.3,386.8,236.5z"/>
				</g>
			</g>
			<g>
				<g>
					<path class="st2" d="M477,255.4c0.4,1.5,0.7,3.4,0.8,5.4c0.1,2.2,0.1,4.1-0.1,5.7c-0.3,0-0.6,0.1-1,0.3c-0.6,0.3-1,0.8-1.2,1.1
						c0.3-0.2,0.8-0.3,1.4-0.3c0.4,0,0.4,0.1,0.8,0.1c0.8,0,1.3-0.2,1.7-0.1c0,0,0.2,0.1,0.4,0c0,0,0.4,0,0.4-0.1
						c0-0.1-0.6-0.2-1.3-0.7c-0.2-0.1-0.4-0.3-0.5-0.3c0.1-1.7,0.2-3.7,0-5.9c-0.1-2.1-0.4-4-0.8-5.7
						C477.5,255.2,477.2,255.3,477,255.4z"/>
					<path class="st74" d="M476.3,254.7c-0.6,0.2-1.3,0.4-1.9,1c-2.1,1.8-1.9,4.7-1.9,5.1c0.1-0.6,0.5-2.3,1.9-3.7
						c1-1,2-1.4,2.6-1.6c-0.1,0.7-0.1,1.5,0,2.4c0.2,2,0.9,3.6,1.5,4.7c-0.4-0.9-0.7-2.3-0.8-3.9c-0.1-1.3,0.1-2.4,0.2-3.2
						c0.4,0.1,0.9,0.2,1.4,0.5c1.9,1,2.7,2.9,2.9,3.5c0.2-0.5,0.3-1.2,0.1-2c-0.5-1.5-2.2-2.6-4.3-2.7c0.4-0.2,0.9-0.4,1.5-0.5
						c2-0.2,3.5,1.5,3.6,1.7c-0.1-0.1-1.3-2.3-3.5-2.4c-1,0-1.8,0.3-2.2,0.6c-0.4-0.2-1-0.5-1.7-0.4c-1.4,0.3-2.1,2.3-2.2,3.6
						c-0.1,1.5,0.7,2.6,1,3.1c-0.4-0.8-0.7-2.1-0.5-3.5c0.1-0.7,0.3-1.8,1.1-2.1C475.6,254.5,476,254.6,476.3,254.7z"/>
				</g>
				<g>
					<path class="st2" d="M481.7,245.4c0.6,2.8,1.2,6,1.4,9.7c0.3,3.9,0.1,7.4-0.1,10.3c-0.5,0.1-1.1,0.3-1.7,0.6
						c-1.1,0.6-1.8,1.5-2.1,2c0.6-0.3,1.5-0.6,2.5-0.6c0.7,0,0.6,0.2,1.4,0.2c1.4,0.1,2.3-0.4,3.1-0.2c0.1,0,0.3,0.1,0.7,0.1
						c0.1,0,0.7,0,0.7-0.2c0-0.2-1.1-0.4-2.4-1.2c-0.4-0.2-0.7-0.5-0.8-0.6c0.2-3.1,0.3-6.6,0.1-10.6c-0.2-3.8-0.8-7.3-1.4-10.2
						C482.6,245,482.2,245.2,481.7,245.4z"/>
					<path class="st74" d="M480.4,244.1c-1,0.3-2.3,0.8-3.5,1.8c-3.8,3.2-3.5,8.4-3.4,9.1c0.2-1.2,0.9-4.1,3.4-6.6
						c1.7-1.7,3.6-2.6,4.7-2.9c-0.1,1.2-0.1,2.7,0,4.3c0.4,3.7,1.6,6.5,2.7,8.4c-0.6-1.6-1.3-4-1.5-7c-0.1-2.3,0.1-4.3,0.4-5.8
						c0.8,0.1,1.6,0.4,2.5,0.8c3.5,1.7,4.8,5.1,5.2,6.3c0.3-0.9,0.5-2.2,0.1-3.6c-0.8-2.7-3.9-4.7-7.7-4.8c0.6-0.4,1.6-0.8,2.7-0.9
						c3.6-0.4,6.2,2.6,6.5,3c-0.1-0.2-2.3-4.2-6.3-4.3c-1.8-0.1-3.2,0.6-3.9,1c-0.7-0.4-1.8-1-3.1-0.7c-2.6,0.5-3.8,4.1-3.9,6.4
						c-0.1,2.7,1.3,4.7,1.9,5.5c-0.6-1.5-1.3-3.7-0.8-6.3c0.2-1.2,0.6-3.2,2-3.8C479.2,243.7,480,243.9,480.4,244.1z"/>
				</g>
			</g>
		</g>
		<g>
			<path class="st2" d="M504.3,276.4H356.7v-93.1h147.6V276.4z M361,272.1H500v-84.4H361V272.1z"/>
		</g>
	</g>
</g>
</svg>
