<?xml version="1.0" encoding="utf-8"?>
<!-- Generator: Adobe Illustrator 26.0.1, SVG Export Plug-In . SVG Version: 6.00 Build 0)  -->
<svg version="1.1" id="Layer_1" xmlns="http://www.w3.org/2000/svg" xmlns:xlink="http://www.w3.org/1999/xlink" x="0px" y="0px"
	 viewBox="0 0 1000 1000" style="enable-background:new 0 0 1000 1000;" xml:space="preserve">
<style type="text/css">
	.st0{clip-path:url(#SVGID_00000077318923337657742710000003043263078100006827_);}
	.st1{fill:#A5E0DC;}
	.st2{fill:#00747D;}
	.st3{fill:#81CCC6;}
	.st4{fill:#DBDBDB;}
	.st5{fill:#E8E8E8;}
	.st6{fill:#EFEFEF;}
	.st7{fill:#EF997B;}
	.st8{fill:#FFAB86;}
	.st9{fill:#60351E;}
	.st10{fill:#0C0203;}
	.st11{fill:#754C24;}
	.st12{fill:#FCFCFC;}
	.st13{opacity:0.57;fill:#AF9D9A;}
	.st14{fill:url(#SVGID_00000018940580989558985250000005325434817505733299_);}
	.st15{fill:#42210B;}
	.st16{fill:#FFFFFF;}
	.st17{fill:url(#SVGID_00000073708541950165196900000000645605352676771501_);}
	.st18{fill:#CE0F0F;}
	.st19{fill:#57BFA3;}
	.st20{fill:#EE5D5D;}
	.st21{fill:#FFD5F1;}
	.st22{fill:#DB8FB7;}
	.st23{fill:#FF9494;}
	.st24{fill:#F8A9D4;}
	.st25{fill:#FFEFFC;}
	.st26{opacity:0.5;}
	.st27{fill:#F2F2F2;}
	.st28{fill:#C4C4C4;}
	.st29{fill:#EDF6F7;}
	.st30{fill:#FACDCD;}
	.st31{fill:#E00E5A;}
</style>
<g>
	<g>
		<g>
			<defs>
				<path id="SVGID_1_" d="M887,334.9c-16.2-28.8-35.1-54.2-54.6-75.6c-3.6-4-71.8-61.6-71.8-61.6c-1.9-1.5-3.8-3-5.7-4.6
					c-54.6-45.7-95.9-128.6-247.4-115.9c-70.6,5.9-116.8,34.6-149.7,73.2c-9.9,11.6-18.7,24.2-26.7,37.5
					c-24.2,40.6-40.4,87.2-56.8,127.9c-21.8,53.8-99.5,62.2-127.6,124.6c-25.5,29.3-38.9,75.8-45.6,109.5
					c-4.8,24.2-6.2,41.8-6.2,41.8c-7.6,169.4,144.6,299.2,301.6,346.2c35.1,10.5,70.5,16.9,104.4,18.6c16,0.8,31.6,0.6,46.8-0.7
					c3.1-0.3,6.2-0.6,9.3-0.9c2.1-0.2,4.3-0.5,6.4-0.8c1.8-0.2,3.6-0.5,5.5-0.7c1-0.1,2-0.3,3-0.4c0.9-0.1,1.9-0.3,2.9-0.4
					c50.9-7.8,107.8-25.6,160.1-52.9c0.3-0.1,0.5-0.3,0.8-0.4C819.9,855,891.8,786,905.5,693.7c12.2-60.4,28.9-95.6,28.9-185.8
					C937.4,448.1,887,334.9,887,334.9z"/>
			</defs>
			<clipPath id="SVGID_00000118372182090699651540000018214381941371164049_">
				<use xlink:href="#SVGID_1_"  style="overflow:visible;"/>
			</clipPath>
			<g style="clip-path:url(#SVGID_00000118372182090699651540000018214381941371164049_);">
				<rect x="-105.5" y="75.9" class="st1" width="1213.9" height="957.7"/>
				<rect x="-105.6" y="710.6" class="st2" width="1213.9" height="413"/>
				<g>
					<g>
						<path class="st2" d="M168,494.8c6.3,27.5,11.9,60.1,14.4,97c2.7,38.9,1.4,73.5-1.4,102.7c-4.6,0.9-10.8,2.6-17.4,6.3
							c-11.2,6.2-17.7,14.7-20.9,19.5c5.8-2.9,14.5-6.2,25.1-5.7c7.2,0.3,6.4,2,14.5,2.4c14.2,0.7,22.6-4.3,31.1-1.9
							c0.6,0.2,3.2,0.9,6.7,0.9c0.5,0,6.5-0.2,6.7-1.6c0.3-2-11-3.7-23.9-11.8c-3.7-2.3-6.5-4.5-8.4-6c2.4-30.7,3.3-66.1,0.8-105.4
							c-2.4-38.2-7.5-72.5-13.6-102C177.1,491,172.5,492.9,168,494.8z"/>
						<path class="st3" d="M155,481.5c-9.9,2.8-22.7,7.9-34.8,18.1c-37.8,31.7-34.9,83.7-34.4,91c2-11.5,8.8-40.7,33.9-65.9
							c17.3-17.4,35.8-25.5,46.7-29.3c-1.2,12.4-1.5,27,0.2,43.2c3.9,36.6,16.4,65.2,26.5,83.6c-6.3-16.4-13.3-40.4-14.9-70.1
							c-1.2-23.3,1.4-43.2,4.5-58.1c7.6,1.4,16.3,3.9,25.2,8.4c34.6,17.3,48,51.3,52,62.7c2.9-8.9,5.3-22.2,0.9-36.2
							c-8.5-27.4-39.3-47-77.1-47.8c6.5-3.8,15.7-7.9,27.2-9.1c36.3-3.5,62,26.2,65.2,29.9c-1.2-2.2-22.6-41.8-63.1-43.4
							c-17.8-0.7-31.7,6.3-38.5,10.4c-6.5-4-18.1-9.5-30.6-7c-25.9,5.3-37.6,40.8-38.5,64.1c-1.1,27.2,12.5,47.4,18.6,55.3
							c-6.4-14.8-13-37.4-8.4-63.1c2.1-11.9,5.8-32.2,20.4-37.6C143.1,477.9,150.3,479.8,155,481.5z"/>
					</g>
					<g>
						<path class="st2" d="M253,315.6c11.3,49.4,21.3,107.9,25.8,174.1c4.8,69.7,2.5,132-2.5,184.4c-8.2,1.6-19.4,4.7-31.2,11.2
							c-20.1,11.1-31.8,26.3-37.5,35c10.4-5.2,26.1-11.2,45-10.3c13,0.6,11.5,3.6,25.9,4.4c25.5,1.3,40.5-7.8,55.7-3.4
							c1,0.3,5.8,1.7,12.1,1.6c1,0,11.7-0.3,12.1-2.8c0.6-3.5-19.7-6.7-42.9-21.2c-6.6-4.2-11.7-8.1-15-10.8
							c4.3-55,5.9-118.7,1.5-189.1c-4.3-68.6-13.5-130.1-24.4-183.1C269.4,308.7,261.2,312.1,253,315.6z"/>
						<path class="st3" d="M229.7,291.8c-17.7,4.9-40.8,14.2-62.5,32.5c-67.8,57-62.6,150.2-61.7,163.3c3.7-20.7,15.8-73,60.8-118.3
							c31-31.1,64.3-45.7,83.7-52.5c-2.1,22.3-2.6,48.4,0.4,77.5c6.9,65.7,29.4,117,47.5,150c-11.3-29.4-23.9-72.5-26.7-125.8
							c-2.1-41.8,2.5-77.4,8-104.3c13.6,2.5,29.2,7,45.3,15.1c62,31.1,86.2,92,93.3,112.5c5.1-16,9.5-39.8,1.7-65
							c-15.2-49.1-70.5-84.3-138.3-85.8c11.6-6.9,28.1-14.2,48.7-16.2c65.1-6.3,111.3,46.9,117.1,53.7c-2.1-4-40.6-75-113.3-77.9
							c-32-1.3-56.8,11.2-69.2,18.7c-11.7-7.2-32.4-17.1-55-12.5c-46.4,9.4-67.5,73.3-69.2,115c-1.9,48.8,22.5,85,33.3,99.2
							c-11.4-26.5-23.3-67.2-15-113.3c3.9-21.4,10.4-57.7,36.7-67.5C208.4,285.4,221.4,288.6,229.7,291.8z"/>
					</g>
				</g>
				<g>
					<g>
						<path class="st2" d="M1052.6,494.8c-6.3,27.5-11.9,60.1-14.4,97c-2.7,38.9-1.4,73.5,1.4,102.7c4.6,0.9,10.8,2.6,17.4,6.3
							c11.2,6.2,17.7,14.7,20.9,19.5c-5.8-2.9-14.5-6.2-25.1-5.7c-7.2,0.3-6.4,2-14.5,2.4c-14.2,0.7-22.6-4.3-31.1-1.9
							c-0.6,0.2-3.2,0.9-6.7,0.9c-0.5,0-6.5-0.2-6.7-1.6c-0.3-2,11-3.7,23.9-11.8c3.7-2.3,6.5-4.5,8.4-6
							c-2.4-30.7-3.3-66.1-0.8-105.4c2.4-38.2,7.5-72.5,13.6-102C1043.5,491,1048,492.9,1052.6,494.8z"/>
						<path class="st3" d="M1065.6,481.5c9.9,2.8,22.7,7.9,34.8,18.1c37.8,31.7,34.9,83.7,34.4,91c-2-11.5-8.8-40.7-33.9-65.9
							c-17.3-17.4-35.8-25.5-46.7-29.3c1.2,12.4,1.5,27-0.2,43.2c-3.9,36.6-16.4,65.2-26.5,83.6c6.3-16.4,13.3-40.4,14.9-70.1
							c1.2-23.3-1.4-43.2-4.5-58.1c-7.6,1.4-16.3,3.9-25.2,8.4c-34.6,17.3-48,51.3-52,62.7c-2.9-8.9-5.3-22.2-0.9-36.2
							c8.5-27.4,39.3-47,77.1-47.8c-6.5-3.8-15.7-7.9-27.2-9.1c-36.3-3.5-62,26.2-65.2,29.9c1.2-2.2,22.6-41.8,63.1-43.4
							c17.8-0.7,31.7,6.3,38.5,10.4c6.5-4,18.1-9.5,30.6-7c25.9,5.3,37.6,40.8,38.5,64.1c1.1,27.2-12.5,47.4-18.6,55.3
							c6.4-14.8,13-37.4,8.4-63.1c-2.1-11.9-5.8-32.2-20.4-37.6C1077.5,477.9,1070.2,479.8,1065.6,481.5z"/>
					</g>
					<g>
						<path class="st2" d="M967.5,315.6c-11.3,49.4-21.3,107.9-25.8,174.1c-4.8,69.7-2.5,132,2.5,184.4c8.2,1.6,19.4,4.7,31.2,11.2
							c20.1,11.1,31.8,26.3,37.5,35c-10.4-5.2-26.1-11.2-45-10.3c-13,0.6-11.5,3.6-25.9,4.4c-25.5,1.3-40.5-7.8-55.7-3.4
							c-1,0.3-5.8,1.7-12.1,1.6c-1,0-11.7-0.3-12.1-2.8c-0.6-3.5,19.7-6.7,42.9-21.2c6.6-4.2,11.7-8.1,15-10.8
							c-4.3-55-5.9-118.7-1.5-189.1c4.3-68.6,13.5-130.1,24.4-183.1C951.1,308.7,959.3,312.1,967.5,315.6z"/>
						<path class="st3" d="M990.8,291.8c17.7,4.9,40.8,14.2,62.5,32.5c67.8,57,62.6,150.2,61.7,163.3c-3.7-20.7-15.8-73-60.8-118.3
							c-31-31.1-64.3-45.7-83.7-52.5c2.1,22.3,2.6,48.4-0.4,77.5c-6.9,65.7-29.4,117-47.5,150c11.3-29.4,23.9-72.5,26.7-125.8
							c2.1-41.8-2.5-77.4-8-104.3c-13.6,2.5-29.2,7-45.3,15.1c-62,31.1-86.2,92-93.3,112.5c-5.1-16-9.5-39.8-1.7-65
							c15.2-49.1,70.5-84.3,138.3-85.8c-11.6-6.9-28.1-14.2-48.7-16.2c-65.1-6.3-111.3,46.9-117.1,53.7c2.1-4,40.6-75,113.3-77.9
							c32-1.3,56.8,11.2,69.2,18.7c11.7-7.2,32.4-17.1,55-12.5c46.4,9.4,67.5,73.3,69.2,115c1.9,48.8-22.5,85-33.3,99.2
							c11.4-26.5,23.3-67.2,15-113.3c-3.9-21.4-10.4-57.7-36.7-67.5C1012.2,285.4,999.2,288.6,990.8,291.8z"/>
					</g>
				</g>
			</g>
		</g>
	</g>
	<g>
		<path class="st4" d="M492.2,129.1c-9,15-13.9,28-16.7,36.9c-8.9,28.1-3.9,32.6-13.5,57.1c-7.4,18.9-14.1,24.7-12.9,38.6
			c0.6,6.6,3.3,12.8,8.8,25c8.2,18.2,12.3,27.4,17,33.1c20.1,23.9,70.3,29.2,93.7,8c13.3-12.1,18-29.9,21.5-44.6
			c1.9-7.8,4.6-19,3.3-33.1c-2.3-24-13.6-26.2-20.3-52.6c-6.5-25.5,2.1-30.6-6.5-49.1c-2.6-5.7-11.9-25.6-33.1-30.6
			C512.1,112.9,494.6,127.1,492.2,129.1z"/>
		<path class="st5" d="M483.8,152.7c-1.5,4-3.5,10.1-4.8,17.8c-3.9,21.7,1.5,31.8-2.5,48.4c-1.5,6.3-4.8,15.2-12.7,25
			c38-0.9,75.9-1.8,113.9-2.7c-3.8-6.6-8.5-16.9-9.5-29.8c-0.6-7.3,0.3-11.6,0.7-17.9c0.6-9.5,0.1-23.4-5.4-41.1
			C537,152.5,510.4,152.6,483.8,152.7z"/>
		<path class="st6" d="M805.7,809.5c-8.1,1.7-15.9,3.2-23.5,4.6c-4.7,0.9-9.3,1.7-13.8,2.5c-6.5,1.2-12.8,2.2-18.9,3.2
			c-5.7,0.9-11.2,1.8-16.5,2.6c-13.6,2-25.6,3.6-35.9,4.9c-145.2,17.7-262.7,7.6-345.9,0c-41.7-3.8-75.9-8.2-98.8-11.4
			c2.9-23.4,8.7-58.8,21.1-100.4c26.8-90.3,65.6-145.4,94-194.4c31.3-54.2,70.6-136.7,97.2-253.3c40.5-1.7,81-3.4,121.5-5.1
			c3.9,87.8,27.1,148.5,46.2,186.3c52.5,104.2,125.3,137.6,158.8,248.7C805.1,744.3,806.3,785,805.7,809.5z"/>
		<g>
			<g>
				<g>
					<g>
						<g>
							<path class="st7" d="M537.7,203.5c0-0.1,0-0.2-0.1-0.2c-0.1-0.1-0.2-0.2-0.3-0.2h-25.5c-0.1,0-0.1,0-0.2,0
								c-0.2,0.1-0.3,0.2-0.3,0.4c0,1.1,0,4.3,0,8.2c0,0.7,0,1.3,0,2c0,0.7,0,1.4,0,2.1c-0.1,3.2-0.2,6.6-0.4,9.6
								c0,0.7-0.1,1.3-0.1,1.9c0,0.5-0.1,1-0.1,1.4c3,1,7.2,2,12.3,2.1c6.6,0.2,11.9-1,15.4-2.1
								C538.3,224.8,537.7,203.8,537.7,203.5z"/>
							<path class="st8" d="M586.5,252.2c-2.9-2.3-6.2-4-9.8-5.1l-3.6-1.1l-30.2-9.1c-1.2-0.4-2.1-1.1-2.8-2
								c-0.7-0.9-1.1-2.1-1.3-3.3c-0.1-0.8-0.2-1.7-0.3-2.7c-3.5,1-8.5,1.9-14.4,1.9c-5.4-0.1-9.9-0.9-13.3-1.9
								c0,0.7-0.2,1.6-0.3,2.7c-0.4,2.4-1.7,4.6-4.1,5.3l-34,10.3c-3,0.9-6,2.3-8.5,4.2c-13.4,9.9-7.6,26-8.1,29
								c0,0.3,68.9,45.5,68.9,45.5l67.9-45.1c0.3,0,0-0.2,0-0.5C591.9,277.4,598.9,262.1,586.5,252.2z"/>
							<g>
								<path class="st8" d="M558.7,153.6c0,0.3,0,0.6,0,0.9c0,1,0.1,2,0.1,2.9c0,0.6,0,1.2,0,1.7c0,3.6-0.3,6.1-0.3,6.5
									c0,0,0,0.1,0,0.1c0,0-0.1,9.8-2.3,24.5c-0.5,3.4-1.3,6.3-2.4,9c-0.8,1.9-1.7,3.7-2.8,5.3c0,0,0,0,0,0
									c-3.8,5.7-9.3,11.7-15.8,16.3c-10.9,7.7-21.7,1.1-21.7,1.1l-9.1-8.2c0,0-1.1-0.9-2.6-2.5c-0.9-0.9-1.8-2-2.8-3.3
									c-0.2-0.3-0.4-0.6-0.6-0.8c-0.4-0.6-0.8-1.2-1.2-1.8c-1.2-1.9-2.3-4-2.8-6.2c-2-7.8-5.6-27.9-5.6-27.9
									c-0.2-2.8-0.3-5.3-0.3-7.7c0-1.1,0-2.3,0-3.3c0.2-24.9,8.1-30.3,13.7-36.2c0.2-0.2,0.4-0.4,0.6-0.6
									c6.4-6.9,27.6-9.9,43.5,0.6c1.7,1.1,3.2,2.5,4.4,4c0.3,0.4,0.6,0.8,0.9,1.2c0.6,0.9,1.2,1.7,1.7,2.7c0,0,0,0.1,0.1,0.1
									C557.1,138.3,558.4,146.8,558.7,153.6z"/>
								<g>
									<path class="st9" d="M494.3,172.2l-1.3-1.1c0,0,3.7,0.2,6.3-1.1c2.7-1.3,6.7-3.1,10.2-1.3s3.9,2.6,3.9,2.6l-9.4,3.7
										L494.3,172.2z"/>
									<path d="M498.3,173.5c0,0-1.4,1.7-4.7-1.7c0,0,3.5,0.5,7.9-1.8c4.4-2.3,8.6-1.1,11.5,1.2
										C515.9,173.3,498.3,173.5,498.3,173.5z"/>
									<g>
										<g>
											<path class="st10" d="M515.3,173.9c0.5,0.6,1.1,1.1,1.6,1.7c0,0-0.5-0.3-2,0.7c-1.6,0.9-3.4,2.1-5.4,2.4
												c-2,0.3-4.8,0.5-7.4-0.7c-2.6-1.2-4-4.2-4-4.2l12.7-1.9C512.3,172.5,513.8,173.2,515.3,173.9z"/>
											<path d="M509.9,178.6c-0.1,0-0.3,0.1-0.4,0.1c-2.1,0.3-4.9,0.5-7.5-0.7c-2.6-1.2-4-4.2-4-4.3l-0.1-0.1l12.9-1.9l1,0.5
												l3.6,1.6l2,2.1l-0.5-0.3c0,0-0.5-0.2-2,0.7l-0.3,0.2C513.2,177.3,511.6,178.3,509.9,178.6z M498.2,173.7
												c0.3,0.5,1.6,3,3.9,4.1c2.5,1.2,5.3,1,7.3,0.7c1.9-0.3,3.6-1.3,5.1-2.2l0.3-0.2c1-0.6,1.5-0.7,1.9-0.7l-1.4-1.5l-4.5-2
												L498.2,173.7z"/>
										</g>
										<path class="st11" d="M514.5,176.2c0,0-9,8.2-17.8-2.3l1.4-1l4.1-1.5L514.5,176.2z"/>
										<path class="st12" d="M516.6,175.4c-0.4-0.1-0.8,0.1-1.3,0.4c-1.7,0.9-4.3,3.2-9.4,2.8c-3.8-0.3-5.7-2-6.6-3.4
											c-0.6-0.9-0.8-1.7-0.8-1.7l0.7-0.5c1.2-1.4,2.8-2.3,4.4-2.7c2.4-0.6,4.9-0.3,6.8,0.1c0.5,0.1,1.1,0.4,1.6,0.7
											C514.4,172.6,516.6,175.4,516.6,175.4z"/>
										<path class="st13" d="M516.6,175.4c-0.4-0.1-0.8,0.1-1.3,0.4c-0.5-0.4-1.4-1.1-2.7-1.7c-0.5-0.2-1-0.4-1.6-0.6
											c0,0-0.1,0-0.1,0c-0.1,0-0.2,0-0.3-0.1c-2.2-0.6-5.1-0.7-8.5,0.7l0,0c-1.1,0.4-2.1,0.8-2.8,1.2c-0.6-0.9-0.8-1.7-0.8-1.7
											l0.7-0.5c1.2-1.4,2.8-2.3,4.4-2.7c2.4-0.6,4.9-0.3,6.8,0.1c0.5,0.1,1.1,0.4,1.6,0.7C514.4,172.6,516.6,175.4,516.6,175.4z
											"/>
										
											<linearGradient id="SVGID_00000062175264006879857410000001526181851725202621_" gradientUnits="userSpaceOnUse" x1="262.768" y1="718.2557" x2="264.1044" y2="714.0461" gradientTransform="matrix(0.9798 -0.2002 0.2002 0.9798 105.6971 -473.2854)">
											<stop  offset="0" style="stop-color:#8C6239"/>
											<stop  offset="1" style="stop-color:#603813"/>
										</linearGradient>
										<path style="fill:url(#SVGID_00000062175264006879857410000001526181851725202621_);" d="M512.5,172.6
											c0.1,0.5,0.1,1,0.1,1.5c0,0,0,0,0,0c-0.3,2.1-1.9,3.9-4.2,4.3c-2.8,0.6-5.6-1.1-6.1-3.7c0-0.2-0.1-0.4-0.1-0.6l0,0
											c-0.1-1.4,0.5-2.8,1.5-3.8c2.4-0.6,4.9-0.3,6.8,0.1c0.5,0.1,1.1,0.4,1.6,0.7C512.2,171.6,512.4,172.1,512.5,172.6z"/>
										<path class="st15" d="M512.5,172.6c0.1,0.5,0.1,1,0.1,1.5c-0.4-0.2-0.9-0.4-1.6-0.6c0,0-0.1,0-0.1,0c-0.1,0-0.2,0-0.3-0.1
											c-1.9-0.5-4.8-0.6-8.5,0.7l0,0c-0.1-1.4,0.5-2.8,1.5-3.8c2.4-0.6,4.9-0.3,6.8,0.1c0.5,0.1,1.1,0.4,1.6,0.7
											C512.2,171.6,512.4,172.1,512.5,172.6z"/>
										<g>
											<circle cx="507.2" cy="174.1" r="1.5"/>
											<path d="M507.5,175.6c-0.8,0.2-1.7-0.4-1.8-1.2s0.4-1.7,1.2-1.8c0.8-0.2,1.7,0.4,1.8,1.2
												C508.9,174.6,508.4,175.4,507.5,175.6z M506.9,172.8c-0.7,0.2-1.2,0.9-1.1,1.6c0.2,0.7,0.9,1.2,1.6,1.1
												c0.7-0.2,1.2-0.9,1.1-1.6C508.4,173.1,507.7,172.6,506.9,172.8z"/>
										</g>
										<g>
											<path class="st10" d="M516.1,174.8c0,0-5.5-6.6-12.5-3.9c-0.8,0.3-4.9,3.7-7.3,2.8c-0.5-0.2-1.2-1.2-1.2-1.2
												s1.6,0.7,4.6-1c3-1.7,5.7-4.8,12.8-0.8C513.9,171.6,516.1,174.8,516.1,174.8z"/>
											<path d="M516.1,174.9c-0.1-0.1-5.5-6.5-12.4-3.8c-0.2,0.1-0.5,0.3-1,0.6c-1.6,1-4.4,2.9-6.3,2.2
												c-0.6-0.2-1.2-1.2-1.2-1.2l-0.2-0.2l0.3,0.1c0,0,1.7,0.7,4.6-1c0.4-0.2,0.8-0.5,1.3-0.8c2.6-1.6,5.5-3.5,11.6,0
												c1.3,0.7,3.5,3.9,3.6,4L516.1,174.9z M505.2,170.4c4.6-0.9,8.4,1.9,10,3.4c-0.8-1-2-2.4-2.7-2.9c-6-3.4-8.9-1.6-11.4,0
												c-0.4,0.3-0.8,0.5-1.3,0.8c-2.3,1.3-3.9,1.2-4.5,1.1c0.2,0.3,0.6,0.8,1,0.9c1.8,0.7,4.7-1.2,6.2-2.2
												c0.5-0.3,0.8-0.5,1-0.6C504.1,170.7,504.7,170.5,505.2,170.4z"/>
										</g>
										<path d="M499.5,172.7c-0.3-0.1-0.4-0.1-0.6-0.2c-0.2-0.1-0.4-0.2-0.5-0.4c-0.3-0.3-0.6-0.6-0.9-0.9
											c-0.3-0.3-0.5-0.7-0.7-1.1l-0.3-0.6l-0.2-0.6l0.3,0.6l0.3,0.5c0.2,0.3,0.5,0.7,0.7,1c0.3,0.3,0.6,0.6,0.9,0.8
											c0.3,0.2,0.7,0.4,1,0.5L499.5,172.7z"/>
										<path d="M499.3,173.2c-0.3-0.1-0.4-0.1-0.6-0.2c-0.2-0.1-0.4-0.2-0.5-0.4c-0.3-0.3-0.6-0.6-0.9-0.9
											c-0.3-0.3-0.5-0.7-0.7-1.1l-0.3-0.6l-0.2-0.6l0.3,0.6l0.3,0.5c0.2,0.3,0.5,0.7,0.7,1c0.3,0.3,0.6,0.6,0.9,0.8
											c0.3,0.2,0.7,0.4,1,0.5L499.3,173.2z"/>
										<path d="M501.8,171.9c-0.3-0.1-0.4-0.1-0.6-0.2c-0.2-0.1-0.4-0.2-0.5-0.4c-0.3-0.3-0.6-0.6-0.9-0.9
											c-0.3-0.3-0.5-0.7-0.7-1.1l-0.3-0.6l-0.2-0.6l0.3,0.6l0.3,0.5c0.2,0.3,0.5,0.7,0.7,1c0.3,0.3,0.6,0.6,0.9,0.8
											c0.3,0.2,0.7,0.4,1,0.5L501.8,171.9z"/>
										<path d="M500.8,172.4c-0.3-0.1-0.4-0.1-0.6-0.2c-0.2-0.1-0.4-0.2-0.5-0.4c-0.3-0.3-0.6-0.6-0.9-0.9
											c-0.3-0.3-0.5-0.7-0.7-1.1l-0.3-0.6l-0.2-0.6l0.3,0.6l0.3,0.5c0.2,0.3,0.5,0.7,0.7,1c0.3,0.3,0.6,0.6,0.9,0.8
											c0.3,0.2,0.7,0.4,1,0.5L500.8,172.4z"/>
										<path d="M502.3,171.5c-0.3-0.1-0.4-0.1-0.6-0.2c-0.2-0.1-0.4-0.2-0.5-0.4c-0.3-0.3-0.6-0.6-0.9-0.9
											c-0.3-0.3-0.5-0.7-0.7-1.1l-0.3-0.6l-0.2-0.6l0.3,0.6l0.3,0.5c0.2,0.3,0.5,0.7,0.7,1c0.3,0.3,0.6,0.6,0.9,0.8
											c0.3,0.2,0.7,0.4,1,0.5L502.3,171.5z"/>
										<path d="M503.8,170.7c-0.3,0-0.5,0-0.7-0.1c-0.2-0.1-0.4-0.1-0.6-0.2c-0.4-0.2-0.7-0.4-1-0.7c-0.3-0.3-0.6-0.6-0.9-0.9
											l-0.4-0.5l-0.4-0.5l0.4,0.5l0.4,0.5c0.3,0.3,0.6,0.6,0.9,0.8c0.3,0.2,0.7,0.5,1,0.6c0.4,0.2,0.8,0.3,1.1,0.2L503.8,170.7z
											"/>
										<path d="M502.8,171.1c-0.3,0-0.5,0-0.7-0.1c-0.2-0.1-0.4-0.1-0.6-0.2c-0.4-0.2-0.7-0.4-1-0.7c-0.3-0.3-0.6-0.6-0.9-0.9
											l-0.4-0.5l-0.4-0.5l0.4,0.5l0.4,0.5c0.3,0.3,0.6,0.6,0.9,0.8c0.3,0.2,0.7,0.5,1,0.6c0.4,0.2,0.8,0.3,1.1,0.2L502.8,171.1z
											"/>
										<path d="M501.5,171.6c-0.3,0-0.5,0-0.7-0.1c-0.2-0.1-0.4-0.1-0.6-0.2c-0.4-0.2-0.7-0.4-1-0.7c-0.3-0.3-0.6-0.6-0.9-0.9
											l-0.4-0.5l-0.4-0.5l0.4,0.5l0.4,0.5c0.3,0.3,0.6,0.6,0.9,0.8c0.3,0.2,0.7,0.5,1,0.6c0.4,0.2,0.8,0.3,1.1,0.2L501.5,171.6z
											"/>
										<path d="M504.9,170.4c-0.4-0.1-0.7-0.3-1.1-0.5c-0.3-0.2-0.6-0.5-0.8-0.8c-0.2-0.3-0.4-0.6-0.6-0.9l-0.3-0.5l-0.2-0.5
											l0.3,0.5l0.3,0.5c0.2,0.3,0.4,0.6,0.7,0.8c0.2,0.3,0.5,0.5,0.8,0.7c0.3,0.2,0.6,0.3,0.9,0.4L504.9,170.4z"/>
										<path d="M500.3,172.2c-0.3,0-0.5,0-0.7,0c-0.2,0-0.4-0.1-0.6-0.1c-0.4-0.1-0.8-0.3-1.2-0.5c-0.4-0.2-0.7-0.5-1-0.7
											l-0.5-0.4L496,170l0.5,0.4l0.5,0.4c0.3,0.2,0.7,0.5,1.1,0.6c0.4,0.2,0.7,0.3,1.1,0.4c0.4,0.1,0.8,0.1,1.1,0L500.3,172.2z"
											/>
										<path d="M499.2,172.6c-0.3,0-0.5,0-0.7,0c-0.2,0-0.4-0.1-0.6-0.1c-0.4-0.1-0.8-0.3-1.2-0.5c-0.4-0.2-0.7-0.5-1-0.7
											l-0.5-0.4l-0.4-0.4l0.5,0.4l0.5,0.4c0.3,0.2,0.7,0.5,1.1,0.6c0.4,0.2,0.7,0.3,1.1,0.4c0.4,0.1,0.8,0.1,1.1,0L499.2,172.6z
											"/>
										<path d="M499.1,173.1c-0.3,0-0.5,0-0.7,0c-0.2,0-0.4-0.1-0.6-0.1c-0.4-0.1-0.8-0.3-1.2-0.5c-0.4-0.2-0.7-0.5-1-0.7
											l-0.5-0.4l-0.4-0.4l0.5,0.4l0.5,0.4c0.3,0.2,0.7,0.5,1.1,0.6c0.4,0.2,0.7,0.3,1.1,0.4c0.4,0.1,0.8,0.1,1.1,0L499.1,173.1z
											"/>
										<path d="M501.6,171.6c-0.3,0-0.5,0-0.7,0c-0.2,0-0.4-0.1-0.6-0.1c-0.4-0.1-0.8-0.3-1.2-0.5c-0.4-0.2-0.7-0.5-1-0.7
											l-0.5-0.4l-0.4-0.4l0.5,0.4l0.5,0.4c0.3,0.2,0.7,0.5,1.1,0.6c0.4,0.2,0.7,0.3,1.1,0.4c0.4,0.1,0.8,0.1,1.1,0L501.6,171.6z
											"/>
										<path d="M504.2,170.8c-0.5-0.1-0.8-0.3-1.2-0.5c-0.3-0.2-0.6-0.5-0.9-0.8c-0.3-0.3-0.5-0.6-0.7-1l-0.3-0.5l-0.3-0.5
											l0.3,0.5l0.3,0.5c0.2,0.3,0.5,0.6,0.8,0.9c0.3,0.3,0.6,0.5,0.9,0.7c0.3,0.2,0.7,0.3,1,0.4L504.2,170.8z"/>
										<path d="M503.3,171.1c-0.3,0-0.4-0.1-0.6-0.2c-0.2-0.1-0.4-0.2-0.5-0.3c-0.3-0.3-0.6-0.6-0.9-0.9c-0.3-0.3-0.5-0.7-0.7-1
											l-0.3-0.5l-0.3-0.6l0.3,0.5l0.3,0.5c0.2,0.3,0.5,0.7,0.8,1c0.3,0.3,0.6,0.6,0.9,0.8c0.3,0.2,0.7,0.4,1.1,0.4L503.3,171.1z
											"/>
										<path d="M502,171.4c-0.3-0.2-0.5-0.4-0.7-0.7c-0.2-0.3-0.3-0.6-0.5-0.9c-0.1-0.3-0.2-0.6-0.3-0.9l-0.1-0.5l0-0.5l0.1,0.5
											l0.1,0.5c0.1,0.3,0.2,0.6,0.3,0.9c0.1,0.3,0.3,0.6,0.5,0.8c0.2,0.2,0.4,0.4,0.7,0.6L502,171.4z"/>
										<path d="M503.3,170.9c-0.3-0.2-0.5-0.4-0.7-0.7c-0.2-0.3-0.3-0.6-0.5-0.9c-0.1-0.3-0.2-0.6-0.3-0.9l-0.1-0.5l0-0.5
											l0.1,0.5l0.1,0.5c0.1,0.3,0.2,0.6,0.3,0.9c0.1,0.3,0.3,0.6,0.5,0.8c0.2,0.2,0.4,0.4,0.7,0.6L503.3,170.9z"/>
										<path d="M504.7,170.5c-0.3-0.2-0.5-0.4-0.7-0.7c-0.2-0.3-0.3-0.6-0.5-0.9c-0.1-0.3-0.2-0.6-0.3-0.9l-0.1-0.5l0-0.5
											l0.1,0.5l0.1,0.5c0.1,0.3,0.2,0.6,0.3,0.9c0.1,0.3,0.3,0.6,0.5,0.8c0.2,0.2,0.4,0.4,0.7,0.6L504.7,170.5z"/>
										<path d="M505.3,170c-0.3-0.2-0.5-0.4-0.7-0.6c-0.2-0.2-0.3-0.5-0.5-0.8c-0.1-0.3-0.2-0.6-0.3-0.9c0-0.1-0.1-0.3-0.1-0.4
											l0-0.4l0.1,0.4c0,0.1,0.1,0.3,0.1,0.4c0.1,0.3,0.2,0.6,0.3,0.8c0.1,0.3,0.3,0.5,0.5,0.7c0.2,0.2,0.4,0.4,0.7,0.5
											L505.3,170z"/>
										<path d="M506.1,170c-0.3-0.2-0.5-0.4-0.7-0.6c-0.2-0.2-0.3-0.5-0.5-0.8c-0.1-0.3-0.2-0.5-0.3-0.8
											c-0.1-0.3-0.1-0.6-0.1-0.9c0,0.3,0.1,0.6,0.2,0.8c0.1,0.3,0.2,0.5,0.3,0.8c0.1,0.2,0.3,0.5,0.5,0.7
											c0.2,0.2,0.4,0.4,0.6,0.5L506.1,170z"/>
										<path d="M506.9,170.1c-0.2-0.2-0.3-0.4-0.4-0.7c-0.1-0.2-0.1-0.5-0.2-0.7c0-0.3,0-0.5,0-0.7c0-0.2,0.1-0.5,0.2-0.7
											c0,0.2-0.1,0.5-0.1,0.7c0,0.2,0,0.5,0,0.7c0,0.2,0.1,0.5,0.2,0.7c0.1,0.2,0.2,0.4,0.4,0.6L506.9,170.1z"/>
										<path d="M506.9,169.9c-0.3-0.2-0.5-0.4-0.7-0.6c-0.2-0.2-0.3-0.5-0.4-0.7c-0.1-0.3-0.2-0.5-0.3-0.8
											c-0.1-0.3-0.1-0.6-0.1-0.8c0,0.3,0.1,0.5,0.2,0.8c0.1,0.3,0.2,0.5,0.3,0.8c0.1,0.2,0.3,0.5,0.5,0.7
											c0.2,0.2,0.4,0.4,0.6,0.5L506.9,169.9z"/>
										<path d="M506.7,169.8c0.2,0,0.5-0.2,0.7-0.3c0.2-0.2,0.4-0.4,0.6-0.6c0.2-0.2,0.3-0.4,0.4-0.7c0.1-0.2,0.2-0.5,0.4-0.7
											c-0.1,0.3-0.2,0.5-0.3,0.8c-0.1,0.2-0.2,0.5-0.4,0.7c-0.2,0.2-0.3,0.5-0.5,0.6c-0.2,0.2-0.4,0.4-0.7,0.5L506.7,169.8z"/>
										<path d="M508,170c0.2,0,0.4-0.1,0.6-0.3c0.2-0.1,0.4-0.3,0.5-0.5c0.2-0.2,0.3-0.4,0.4-0.6c0.1-0.2,0.2-0.4,0.3-0.7
											c-0.1,0.2-0.2,0.5-0.3,0.7c-0.1,0.2-0.2,0.4-0.4,0.6c-0.2,0.2-0.3,0.4-0.5,0.5c-0.2,0.2-0.4,0.3-0.7,0.4L508,170z"/>
										<path d="M507.7,169.2c0.2,0.1,0.5,0.1,0.7,0c0.2,0,0.5-0.1,0.7-0.2c0.2-0.1,0.5-0.2,0.7-0.3c0.2-0.1,0.4-0.3,0.6-0.4
											c-0.2,0.2-0.4,0.3-0.6,0.5c-0.2,0.1-0.4,0.3-0.7,0.4c-0.2,0.1-0.5,0.2-0.7,0.2c-0.3,0-0.5,0.1-0.8,0L507.7,169.2z"/>
										<path d="M506.3,169.2c0.2,0,0.4-0.1,0.6-0.2c0.2-0.1,0.4-0.3,0.5-0.4c0.2-0.2,0.3-0.3,0.5-0.5c0.1-0.2,0.3-0.4,0.4-0.6
											c-0.1,0.2-0.2,0.4-0.3,0.6c-0.1,0.2-0.3,0.4-0.4,0.6c-0.2,0.2-0.3,0.4-0.5,0.5c-0.2,0.1-0.4,0.3-0.7,0.3L506.3,169.2z"/>
										<path d="M507.3,170c0.2,0,0.5-0.2,0.7-0.3c0.2-0.2,0.4-0.3,0.6-0.6c0.2-0.2,0.3-0.4,0.5-0.7c0.1-0.2,0.3-0.5,0.4-0.7
											c-0.1,0.3-0.2,0.5-0.3,0.8c-0.1,0.2-0.3,0.5-0.4,0.7c-0.2,0.2-0.3,0.4-0.6,0.6c-0.2,0.2-0.4,0.3-0.8,0.4L507.3,170z"/>
										<path d="M510.2,170c0.2,0.1,0.4,0.1,0.6,0.1c0.2,0,0.4,0,0.6-0.1c0.2,0,0.4-0.1,0.6-0.2c0.2-0.1,0.3-0.2,0.5-0.3
											c-0.2,0.1-0.3,0.2-0.5,0.4c-0.2,0.1-0.4,0.2-0.6,0.3c-0.2,0.1-0.4,0.1-0.6,0.1c-0.2,0-0.4,0-0.6-0.1L510.2,170z"/>
										<path d="M510.2,170.2c0.2,0,0.4-0.1,0.6-0.1c0.2-0.1,0.4-0.2,0.6-0.3c0.2-0.1,0.3-0.3,0.5-0.4c0.1-0.2,0.3-0.3,0.4-0.5
											c-0.1,0.2-0.2,0.4-0.4,0.6c-0.1,0.2-0.3,0.3-0.5,0.5c-0.2,0.1-0.4,0.3-0.6,0.4c-0.2,0.1-0.4,0.2-0.7,0.2L510.2,170.2z"/>
										<path d="M511.1,170.5c0.2,0.1,0.4,0.1,0.6,0c0.2,0,0.4-0.1,0.6-0.2c0.2-0.1,0.4-0.2,0.6-0.3c0.2-0.1,0.4-0.2,0.6-0.4
											c-0.2,0.2-0.3,0.3-0.5,0.4c-0.2,0.1-0.4,0.3-0.6,0.4c-0.2,0.1-0.4,0.2-0.7,0.2c-0.2,0-0.5,0.1-0.7,0L511.1,170.5z"/>
										<path d="M509.2,170c0.2,0,0.4-0.1,0.6-0.2c0.2-0.1,0.4-0.3,0.5-0.5c0.2-0.2,0.3-0.4,0.4-0.6c0.1-0.2,0.2-0.4,0.3-0.6
											c-0.1,0.2-0.2,0.4-0.3,0.7c-0.1,0.2-0.2,0.4-0.4,0.6c-0.2,0.2-0.3,0.4-0.5,0.5c-0.2,0.1-0.4,0.3-0.7,0.3L509.2,170z"/>
										<path d="M511.8,171.2c0.2,0,0.3-0.1,0.5-0.2c0.2-0.1,0.3-0.2,0.4-0.4c0.1-0.1,0.2-0.3,0.3-0.4c0.1-0.2,0.2-0.3,0.3-0.5
											c-0.1,0.2-0.1,0.4-0.2,0.5c-0.1,0.2-0.2,0.3-0.3,0.5c-0.1,0.2-0.3,0.3-0.4,0.4c-0.2,0.1-0.3,0.2-0.5,0.3L511.8,171.2z"/>
										<path d="M513.3,172.1c0.1,0,0.2-0.1,0.3-0.1c0.1-0.1,0.2-0.1,0.3-0.2c0.2-0.2,0.3-0.4,0.4-0.6c-0.1,0.2-0.2,0.5-0.4,0.7
											c-0.2,0.2-0.4,0.4-0.7,0.4L513.3,172.1z"/>
										<path d="M512.5,171.2c0.3,0,0.5-0.1,0.8-0.3c0.2-0.2,0.4-0.4,0.6-0.7c-0.1,0.3-0.3,0.5-0.5,0.7c-0.2,0.2-0.5,0.4-0.8,0.4
											L512.5,171.2z"/>
										<path class="st16" d="M506.2,173.4c0,0.2-0.1,0.4-0.3,0.4s-0.4-0.1-0.4-0.3c0-0.2,0.1-0.4,0.3-0.4
											C506,173.1,506.2,173.2,506.2,173.4z"/>
										<g>
											<line class="st10" x1="516.1" y1="174.7" x2="516.7" y2="175.5"/>
											<rect x="516.3" y="174.6" transform="matrix(0.7471 -0.6647 0.6647 0.7471 14.1938 387.55)" width="0.2" height="1"/>
										</g>
									</g>
									<path class="st9" d="M515.1,163.3c0,0-10.2-2.7-17.2-0.8c-1,0.3-4.6,3.9-4.6,3.9s2.9-5,4.8-5.8c1.9-0.9,9.1-2.2,15.4-0.6
										c0,0,0.3,1.7,0.5,2.4c0,0,0.1-2-0.2-2.5c0,0,0.4,0.5,0.5,2.6c0,0,0.3-1.5-0.1-2.4c0,0,0.7,1.1,0.3,2.7c0,0,0.4-1.5,0.5-2.5
										c0,0,0.3,1-0.2,2.5c0,0,0.6-0.8,0.9-1.8c0,0-0.1,1.3-0.7,2.2c0,0,0.7-0.9,0.8-1.5C515.8,161.5,515.6,163,515.1,163.3z"/>
								</g>
								<g>
									<path class="st9" d="M553.2,174.9l1.5-0.9c0,0-3.7-0.3-6.1-2c-2.5-1.7-6.2-4-9.9-2.7c-3.7,1.3-4.2,2-4.2,2l8.7,5
										L553.2,174.9z"/>
									<path d="M549.1,175.6c0,0,1.1,1.8,4.9-1c0,0-3.5,0-7.6-3c-4.1-3-8.4-2.3-11.5-0.5C531.7,172.8,549.1,175.6,549.1,175.6z"/>
									<g>
										<g>
											<path class="st10" d="M532.1,173.5c-0.6,0.5-1.2,1-1.8,1.5c0,0,0.5-0.2,1.9,0.9c1.4,1.1,3.1,2.6,5,3.1
												c1.9,0.6,4.7,1.2,7.4,0.4c2.7-0.8,4.6-3.6,4.6-3.6l-12.3-3.7C535.4,172.6,533.7,173,532.1,173.5z"/>
											<path d="M532.5,176.2l-0.3-0.2c-1.3-1.1-1.8-0.9-1.8-0.9l-0.5,0.2l2.3-1.8l3.8-1.1l1.1-0.3l12.4,3.7l-0.1,0.1
												c0,0-1.9,2.8-4.6,3.6c-2.7,0.8-5.4,0.2-7.5-0.4c-0.1,0-0.3-0.1-0.4-0.1C535.2,178.4,533.7,177.2,532.5,176.2z M537,172.2
												l-4.8,1.4l-1.6,1.3c0.3,0,0.8,0.3,1.7,1l0.3,0.2c1.4,1.1,2.9,2.4,4.7,2.9c2,0.6,4.7,1.2,7.4,0.4c2.4-0.7,4.1-2.9,4.5-3.4
												L537,172.2z"/>
										</g>
										<path class="st11" d="M532.6,175.9c0,0,7.7,9.4,18,0.3l-1.3-1.2l-3.9-2.1L532.6,175.9z"/>
										<path class="st12" d="M530.7,174.8c0.4,0,0.8,0.2,1.3,0.6c1.6,1.2,3.8,3.8,8.8,4.2c3.8,0.2,5.9-1.2,7-2.4
											c0.8-0.8,1-1.6,1-1.6l-0.7-0.6c-1-1.6-2.4-2.7-4-3.3c-2.3-1-4.8-1.1-6.7-0.8c-0.5,0.1-1.1,0.2-1.7,0.5
											C533.2,172.4,530.7,174.8,530.7,174.8z"/>
										<path class="st13" d="M530.7,174.8c0.4,0,0.8,0.2,1.3,0.6c0.6-0.4,1.6-0.9,2.9-1.3c0.5-0.1,1.1-0.3,1.7-0.4
											c0,0,0.1,0,0.1,0c0.1,0,0.2,0,0.3,0c2.3-0.3,5.1,0.1,8.3,1.9l0,0c1,0.6,1.9,1.1,2.6,1.6c0.8-0.8,1-1.6,1-1.6l-0.7-0.6
											c-1-1.6-2.4-2.7-4-3.3c-2.3-1-4.8-1.1-6.7-0.8c-0.5,0.1-1.1,0.2-1.7,0.5C533.2,172.4,530.7,174.8,530.7,174.8z"/>
										
											<linearGradient id="SVGID_00000089553606345575569870000000072637268371760282_" gradientUnits="userSpaceOnUse" x1="-5235.9712" y1="-833.2988" x2="-5234.6348" y2="-837.5085" gradientTransform="matrix(-0.9401 -0.341 -0.341 0.9401 -4666.4375 -823.2958)">
											<stop  offset="0" style="stop-color:#8C6239"/>
											<stop  offset="1" style="stop-color:#603813"/>
										</linearGradient>
										<path style="fill:url(#SVGID_00000089553606345575569870000000072637268371760282_);" d="M535.1,172.6
											c-0.2,0.5-0.3,1-0.3,1.4c0,0,0,0,0,0c0,2.1,1.4,4.1,3.6,4.9c2.7,1,5.7-0.3,6.6-2.8c0.1-0.2,0.1-0.4,0.2-0.6l0,0
											c0.3-1.4-0.1-2.8-0.9-3.9c-2.3-1-4.8-1.1-6.7-0.8c-0.5,0.1-1.1,0.2-1.7,0.5C535.6,171.7,535.3,172.1,535.1,172.6z"/>
										<path class="st15" d="M535.1,172.6c-0.2,0.5-0.3,1-0.3,1.4c0.4-0.1,1-0.3,1.7-0.3c0,0,0.1,0,0.1,0c0.1,0,0.2,0,0.3,0
											c2-0.2,4.8,0.1,8.3,1.9l0,0c0.3-1.4-0.1-2.8-0.9-3.9c-2.3-1-4.8-1.1-6.7-0.8c-0.5,0.1-1.1,0.2-1.7,0.5
											C535.6,171.7,535.3,172.1,535.1,172.6z"/>
										<g>
											<circle cx="540.1" cy="174.9" r="1.5"/>
											<path d="M538.7,174.4c0.3-0.8,1.2-1.2,2-0.9c0.8,0.3,1.2,1.2,0.9,2c-0.3,0.8-1.2,1.2-2,0.9
												C538.8,176.1,538.4,175.2,538.7,174.4z M538.9,174.4c-0.3,0.7,0.1,1.5,0.8,1.8c0.7,0.3,1.5-0.1,1.8-0.8
												c0.3-0.7-0.1-1.5-0.8-1.8C539.9,173.3,539.1,173.7,538.9,174.4z"/>
										</g>
										<g>
											<path class="st10" d="M531.2,174.3c0,0,6.4-5.8,12.9-2c0.8,0.4,4.3,4.4,6.8,3.9c0.6-0.1,1.4-1,1.4-1s-1.7,0.4-4.4-1.6
												c-2.7-2.1-5-5.6-12.5-2.7C533.9,171.5,531.2,174.3,531.2,174.3z"/>
											<path d="M531.1,174.3c0.1-0.1,2.8-2.9,4.1-3.4c6.5-2.5,9.1-0.3,11.5,1.7c0.4,0.3,0.8,0.6,1.1,0.9c2.6,2,4.4,1.6,4.4,1.6
												l0.3-0.1l-0.2,0.2c0,0-0.8,0.9-1.4,1c-2,0.4-4.6-1.9-6-3.1c-0.4-0.4-0.7-0.6-0.9-0.7c-6.4-3.7-12.8,1.9-12.8,2
												L531.1,174.3z M544.2,172.3c0.2,0.1,0.5,0.4,0.9,0.8c1.4,1.2,3.9,3.5,5.8,3.1c0.4-0.1,0.9-0.5,1.1-0.8
												c-0.6,0-2.1-0.1-4.3-1.7c-0.4-0.3-0.8-0.6-1.1-0.9c-2.3-2-4.9-4.2-11.3-1.7c-0.8,0.3-2.2,1.6-3.1,2.4
												c1.9-1.3,6-3.5,10.4-1.9C543.2,171.7,543.7,172,544.2,172.3z"/>
										</g>
										<path d="M548,174.7c0.3,0,0.5-0.1,0.7-0.2c0.2-0.1,0.4-0.2,0.6-0.3c0.4-0.2,0.7-0.5,1-0.8c0.3-0.3,0.6-0.6,0.8-1l0.4-0.5
											l0.3-0.5l-0.4,0.5l-0.4,0.5c-0.3,0.3-0.6,0.6-0.9,0.9c-0.3,0.3-0.6,0.5-1,0.7c-0.3,0.2-0.8,0.3-1.1,0.3L548,174.7z"/>
										<path d="M548.1,175.1c0.3,0,0.5-0.1,0.7-0.2c0.2-0.1,0.4-0.2,0.6-0.3c0.4-0.2,0.7-0.5,1-0.8c0.3-0.3,0.6-0.6,0.8-1
											l0.4-0.5l0.3-0.5l-0.4,0.5l-0.4,0.5c-0.3,0.3-0.6,0.6-0.9,0.9c-0.3,0.3-0.6,0.5-1,0.7c-0.3,0.2-0.8,0.3-1.1,0.3
											L548.1,175.1z"/>
										<path d="M545.9,173.5c0.3,0,0.5-0.1,0.7-0.2c0.2-0.1,0.4-0.2,0.6-0.3c0.4-0.2,0.7-0.5,1-0.8c0.3-0.3,0.6-0.6,0.8-1
											l0.4-0.5l0.3-0.5l-0.4,0.5l-0.4,0.5c-0.3,0.3-0.6,0.6-0.9,0.9c-0.3,0.3-0.6,0.5-1,0.7c-0.3,0.2-0.8,0.3-1.1,0.3
											L545.9,173.5z"/>
										<path d="M546.8,174.1c0.3,0,0.5-0.1,0.7-0.2c0.2-0.1,0.4-0.2,0.6-0.3c0.4-0.2,0.7-0.5,1-0.8c0.3-0.3,0.6-0.6,0.8-1
											l0.4-0.5l0.3-0.5l-0.4,0.5l-0.4,0.5c-0.3,0.3-0.6,0.6-0.9,0.9c-0.3,0.3-0.6,0.5-1,0.7c-0.3,0.2-0.8,0.3-1.1,0.3
											L546.8,174.1z"/>
										<path d="M545.4,173c0.3,0,0.5-0.1,0.7-0.2c0.2-0.1,0.4-0.2,0.6-0.3c0.4-0.2,0.7-0.5,1-0.8c0.3-0.3,0.6-0.6,0.8-1l0.4-0.5
											l0.3-0.5l-0.4,0.5l-0.4,0.5c-0.3,0.3-0.6,0.6-0.9,0.9c-0.3,0.3-0.6,0.5-1,0.7c-0.3,0.2-0.8,0.3-1.1,0.3L545.4,173z"/>
										<path d="M544,172c0.3,0,0.5,0,0.7,0c0.2,0,0.4-0.1,0.6-0.2c0.4-0.1,0.8-0.3,1.1-0.6c0.4-0.2,0.7-0.5,1-0.8l0.5-0.4
											l0.4-0.5l-0.5,0.4l-0.5,0.4c-0.3,0.2-0.7,0.5-1,0.7c-0.4,0.2-0.7,0.4-1.1,0.5c-0.4,0.1-0.8,0.1-1.1,0.1L544,172z"/>
										<path d="M544.9,172.5c0.3,0,0.5,0,0.7,0c0.2,0,0.4-0.1,0.6-0.2c0.4-0.1,0.8-0.3,1.1-0.6c0.4-0.2,0.7-0.5,1-0.8l0.5-0.4
											l0.4-0.5l-0.5,0.4l-0.5,0.4c-0.3,0.2-0.7,0.5-1,0.7c-0.4,0.2-0.7,0.4-1.1,0.5c-0.4,0.1-0.8,0.1-1.1,0.1L544.9,172.5z"/>
										<path d="M546.2,173.2c0.3,0,0.5,0,0.7,0c0.2,0,0.4-0.1,0.6-0.2c0.4-0.1,0.8-0.3,1.1-0.6c0.4-0.2,0.7-0.5,1-0.8l0.5-0.4
											l0.4-0.5l-0.5,0.4l-0.5,0.4c-0.3,0.2-0.7,0.5-1,0.7c-0.4,0.2-0.7,0.4-1.1,0.5c-0.4,0.1-0.8,0.1-1.1,0.1L546.2,173.2z"/>
										<path d="M543,171.6c0.4,0,0.8-0.2,1.1-0.3c0.3-0.2,0.6-0.4,0.9-0.6c0.3-0.2,0.5-0.5,0.8-0.8l0.3-0.4l0.3-0.5l-0.3,0.4
											l-0.4,0.4c-0.3,0.3-0.5,0.5-0.8,0.7c-0.3,0.2-0.6,0.4-0.9,0.5c-0.3,0.1-0.7,0.2-1,0.2L543,171.6z"/>
										<path d="M547.2,174c0.2,0.1,0.5,0.1,0.7,0.1c0.2,0,0.4,0,0.6,0c0.4-0.1,0.8-0.2,1.2-0.4c0.4-0.2,0.8-0.4,1.1-0.6l0.5-0.3
											l0.5-0.4l-0.5,0.3l-0.5,0.3c-0.4,0.2-0.7,0.4-1.1,0.5c-0.4,0.1-0.8,0.2-1.2,0.2c-0.4,0-0.8,0-1.1-0.1L547.2,174z"/>
										<path d="M548.3,174.5c0.2,0.1,0.5,0.1,0.7,0.1c0.2,0,0.4,0,0.6,0c0.4-0.1,0.8-0.2,1.2-0.4c0.4-0.2,0.8-0.4,1.1-0.6
											l0.5-0.3l0.5-0.4l-0.5,0.3l-0.5,0.3c-0.4,0.2-0.7,0.4-1.1,0.5c-0.4,0.1-0.8,0.2-1.2,0.2c-0.4,0-0.8,0-1.1-0.1L548.3,174.5
											z"/>
										<path d="M548.3,175.1c0.2,0.1,0.5,0.1,0.7,0.1c0.2,0,0.4,0,0.6,0c0.4-0.1,0.8-0.2,1.2-0.4c0.4-0.2,0.8-0.4,1.1-0.6
											l0.5-0.3l0.5-0.4l-0.5,0.3l-0.5,0.3c-0.4,0.2-0.7,0.4-1.1,0.5c-0.4,0.1-0.8,0.2-1.2,0.2c-0.4,0-0.8,0-1.1-0.1L548.3,175.1
											z"/>
										<path d="M546.1,173.2c0.2,0.1,0.5,0.1,0.7,0.1c0.2,0,0.4,0,0.6,0c0.4-0.1,0.8-0.2,1.2-0.4c0.4-0.2,0.8-0.4,1.1-0.6
											l0.5-0.3l0.5-0.4l-0.5,0.3l-0.5,0.3c-0.4,0.2-0.7,0.4-1.1,0.5c-0.4,0.1-0.8,0.2-1.2,0.2c-0.4,0-0.8,0-1.1-0.1L546.1,173.2
											z"/>
										<path d="M543.6,172c0.5,0,0.8-0.1,1.2-0.3c0.4-0.2,0.7-0.4,1-0.7c0.3-0.3,0.6-0.5,0.8-0.8l0.4-0.5l0.3-0.5l-0.4,0.5
											l-0.4,0.4c-0.3,0.3-0.6,0.5-0.9,0.8c-0.3,0.2-0.6,0.4-1,0.6c-0.3,0.1-0.7,0.2-1.1,0.2L543.6,172z"/>
										<path d="M544.5,172.5c0.3,0,0.5-0.1,0.7-0.1c0.2-0.1,0.4-0.2,0.6-0.3c0.4-0.2,0.7-0.5,1-0.7c0.3-0.3,0.6-0.6,0.9-0.9
											l0.4-0.5l0.3-0.5l-0.4,0.5l-0.4,0.5c-0.3,0.3-0.6,0.6-0.9,0.8c-0.3,0.3-0.7,0.5-1,0.6c-0.4,0.2-0.8,0.3-1.1,0.3
											L544.5,172.5z"/>
										<path d="M545.7,173c0.3-0.1,0.6-0.3,0.8-0.6c0.2-0.2,0.4-0.5,0.6-0.8c0.2-0.3,0.3-0.6,0.4-0.9l0.1-0.5l0.1-0.5l-0.1,0.5
											l-0.2,0.4c-0.1,0.3-0.3,0.6-0.5,0.8c-0.2,0.3-0.4,0.5-0.6,0.7c-0.2,0.2-0.5,0.4-0.8,0.5L545.7,173z"/>
										<path d="M544.5,172.3c0.3-0.1,0.6-0.3,0.8-0.6c0.2-0.2,0.4-0.5,0.6-0.8c0.2-0.3,0.3-0.6,0.4-0.9l0.1-0.5l0.1-0.5l-0.1,0.5
											l-0.2,0.4c-0.1,0.3-0.3,0.6-0.5,0.8c-0.2,0.3-0.4,0.5-0.6,0.7c-0.2,0.2-0.5,0.4-0.8,0.5L544.5,172.3z"/>
										<path d="M543.1,171.7c0.3-0.1,0.6-0.3,0.8-0.6c0.2-0.2,0.4-0.5,0.6-0.8c0.2-0.3,0.3-0.6,0.4-0.9l0.1-0.5l0.1-0.5l-0.1,0.5
											l-0.2,0.4c-0.1,0.3-0.3,0.6-0.5,0.8c-0.2,0.3-0.4,0.5-0.6,0.7c-0.2,0.2-0.5,0.4-0.8,0.5L543.1,171.7z"/>
										<path d="M542.6,171.1c0.3-0.1,0.6-0.3,0.8-0.5c0.2-0.2,0.4-0.5,0.6-0.7c0.2-0.3,0.3-0.5,0.4-0.8c0.1-0.1,0.1-0.3,0.1-0.4
											l0.1-0.4l-0.1,0.4c-0.1,0.1-0.1,0.3-0.2,0.4c-0.1,0.3-0.3,0.5-0.4,0.8c-0.2,0.2-0.4,0.5-0.6,0.6c-0.2,0.2-0.5,0.3-0.7,0.4
											L542.6,171.1z"/>
										<path d="M541.8,171c0.3-0.1,0.5-0.3,0.8-0.5c0.2-0.2,0.4-0.4,0.6-0.7c0.2-0.2,0.3-0.5,0.4-0.8c0.1-0.3,0.2-0.5,0.3-0.8
											c-0.1,0.3-0.2,0.5-0.3,0.8c-0.1,0.3-0.3,0.5-0.4,0.7c-0.2,0.2-0.4,0.4-0.6,0.6c-0.2,0.2-0.5,0.3-0.7,0.4L541.8,171z"/>
										<path d="M541,170.9c0.2-0.2,0.4-0.4,0.5-0.6c0.1-0.2,0.2-0.5,0.3-0.7c0.1-0.2,0.1-0.5,0.1-0.7c0-0.2,0-0.5,0-0.7
											c0,0.2,0,0.5,0,0.7c0,0.2-0.1,0.5-0.1,0.7c-0.1,0.2-0.2,0.5-0.3,0.7c-0.1,0.2-0.3,0.4-0.5,0.5L541,170.9z"/>
										<path d="M541.1,170.8c0.3-0.1,0.5-0.3,0.7-0.5c0.2-0.2,0.4-0.4,0.5-0.7c0.2-0.2,0.3-0.5,0.4-0.8c0.1-0.3,0.2-0.5,0.2-0.8
											c-0.1,0.3-0.2,0.5-0.3,0.8c-0.1,0.2-0.3,0.5-0.4,0.7c-0.2,0.2-0.3,0.4-0.6,0.6c-0.2,0.2-0.5,0.3-0.7,0.4L541.1,170.8z"/>
										<path d="M541.3,170.7c-0.2-0.1-0.4-0.3-0.6-0.4c-0.2-0.2-0.3-0.4-0.5-0.7c-0.1-0.2-0.2-0.5-0.3-0.7
											c-0.1-0.3-0.2-0.5-0.2-0.8c0.1,0.3,0.1,0.5,0.2,0.8c0.1,0.3,0.2,0.5,0.3,0.8c0.1,0.3,0.3,0.5,0.4,0.7
											c0.2,0.2,0.4,0.4,0.7,0.6L541.3,170.7z"/>
										<path d="M540,170.7c-0.2-0.1-0.4-0.2-0.6-0.4c-0.2-0.2-0.3-0.3-0.5-0.5c-0.1-0.2-0.2-0.4-0.4-0.6
											c-0.1-0.2-0.2-0.5-0.3-0.7c0.1,0.2,0.1,0.5,0.2,0.7c0.1,0.2,0.2,0.5,0.3,0.7c0.1,0.2,0.3,0.4,0.4,0.6
											c0.2,0.2,0.4,0.3,0.6,0.5L540,170.7z"/>
										<path d="M540.4,170c-0.2,0-0.5,0-0.7-0.1c-0.2-0.1-0.5-0.2-0.7-0.3c-0.2-0.1-0.4-0.3-0.6-0.4c-0.2-0.2-0.4-0.3-0.6-0.5
											c0.2,0.2,0.3,0.4,0.5,0.6c0.2,0.2,0.4,0.3,0.6,0.5c0.2,0.1,0.4,0.3,0.7,0.4c0.2,0.1,0.5,0.1,0.8,0.1L540.4,170z"/>
										<path d="M541.8,170.2c-0.2,0-0.4-0.2-0.6-0.3c-0.2-0.1-0.3-0.3-0.5-0.5c-0.1-0.2-0.3-0.4-0.4-0.6
											c-0.1-0.2-0.2-0.4-0.3-0.7c0.1,0.2,0.1,0.5,0.2,0.7c0.1,0.2,0.2,0.4,0.3,0.6c0.1,0.2,0.3,0.4,0.5,0.6
											c0.2,0.2,0.4,0.3,0.6,0.4L541.8,170.2z"/>
										<path d="M540.6,170.8c-0.2-0.1-0.4-0.2-0.6-0.4c-0.2-0.2-0.4-0.4-0.5-0.6c-0.1-0.2-0.3-0.5-0.4-0.7
											c-0.1-0.3-0.2-0.5-0.3-0.8c0.1,0.3,0.1,0.5,0.2,0.8c0.1,0.3,0.2,0.5,0.3,0.8c0.1,0.2,0.3,0.5,0.5,0.7
											c0.2,0.2,0.4,0.4,0.7,0.5L540.6,170.8z"/>
										<path d="M537.8,170.4c-0.2,0-0.4,0-0.6,0c-0.2,0-0.4-0.1-0.6-0.2c-0.2-0.1-0.4-0.2-0.5-0.3c-0.2-0.1-0.3-0.2-0.5-0.4
											c0.1,0.1,0.3,0.3,0.4,0.4c0.2,0.1,0.3,0.2,0.5,0.3c0.2,0.1,0.4,0.2,0.6,0.2c0.2,0,0.4,0.1,0.6,0L537.8,170.4z"/>
										<path d="M537.8,170.6c-0.2,0-0.4-0.1-0.6-0.2c-0.2-0.1-0.4-0.2-0.5-0.4c-0.2-0.2-0.3-0.3-0.4-0.5
											c-0.1-0.2-0.2-0.4-0.3-0.6c0.1,0.2,0.2,0.4,0.3,0.6c0.1,0.2,0.2,0.4,0.4,0.6c0.1,0.2,0.3,0.3,0.5,0.5
											c0.2,0.1,0.4,0.2,0.6,0.3L537.8,170.6z"/>
										<path d="M536.8,170.8c-0.2,0-0.4,0-0.6-0.1c-0.2-0.1-0.4-0.2-0.6-0.3c-0.2-0.1-0.4-0.2-0.6-0.4c-0.2-0.1-0.3-0.3-0.5-0.5
											c0.1,0.2,0.3,0.3,0.5,0.5c0.2,0.2,0.3,0.3,0.5,0.4c0.2,0.1,0.4,0.2,0.6,0.3c0.2,0.1,0.4,0.1,0.7,0.1L536.8,170.8z"/>
										<path d="M538.7,170.5c-0.2-0.1-0.4-0.2-0.6-0.3c-0.2-0.2-0.3-0.3-0.5-0.5c-0.1-0.2-0.2-0.4-0.4-0.6
											c-0.1-0.2-0.2-0.4-0.3-0.7c0.1,0.2,0.1,0.5,0.2,0.7c0.1,0.2,0.2,0.5,0.3,0.7c0.1,0.2,0.3,0.4,0.4,0.6
											c0.2,0.2,0.4,0.3,0.6,0.4L538.7,170.5z"/>
										<path d="M536,171.4c-0.2,0-0.3-0.2-0.4-0.3c-0.1-0.1-0.3-0.3-0.4-0.4c-0.1-0.2-0.2-0.3-0.3-0.5c-0.1-0.2-0.1-0.4-0.2-0.5
											c0,0.2,0.1,0.4,0.2,0.5c0.1,0.2,0.1,0.4,0.2,0.5c0.1,0.2,0.2,0.3,0.3,0.5c0.1,0.1,0.3,0.3,0.5,0.3L536,171.4z"/>
										<path d="M534.5,172c-0.1,0-0.2-0.1-0.3-0.2c-0.1-0.1-0.2-0.2-0.3-0.3c-0.2-0.2-0.3-0.4-0.4-0.7c0.1,0.3,0.2,0.5,0.3,0.7
											c0.1,0.2,0.3,0.4,0.6,0.5L534.5,172z"/>
										<path d="M535.4,171.2c-0.3-0.1-0.5-0.2-0.7-0.4c-0.2-0.2-0.4-0.5-0.5-0.7c0.1,0.3,0.2,0.6,0.4,0.8
											c0.2,0.2,0.4,0.4,0.8,0.5L535.4,171.2z"/>
										<path class="st16" d="M541.3,174.3c-0.1,0.2,0,0.4,0.2,0.5c0.2,0.1,0.4,0,0.5-0.2c0.1-0.2,0-0.4-0.2-0.5
											C541.5,174.1,541.3,174.1,541.3,174.3z"/>
										<g>
											<line class="st10" x1="531.3" y1="174.2" x2="530.5" y2="174.9"/>
											<rect x="530.4" y="174.5" transform="matrix(0.7666 -0.6421 0.6421 0.7666 11.8229 381.6426)" width="1" height="0.2"/>
										</g>
									</g>
									<path class="st9" d="M533.7,163.1c0,0,10.5-1.2,17.1,1.7c0.9,0.4,4,4.5,4,4.5s-2.1-5.3-3.9-6.5c-1.8-1.1-8.7-3.5-15.1-2.8
										c0,0-0.5,1.6-0.8,2.3c0,0,0.2-2,0.5-2.4c0,0-0.4,0.5-0.9,2.5c0,0-0.1-1.5,0.4-2.4c0,0-0.8,1-0.7,2.6c0,0-0.2-1.5-0.1-2.6
										c0,0-0.5,1-0.1,2.5c0,0-0.5-0.9-0.6-1.9c0,0-0.1,1.3,0.4,2.2c0,0-0.6-1-0.6-1.6C533.3,161.2,533.3,162.7,533.7,163.1z"/>
								</g>
							</g>
						</g>
						<path class="st18" d="M535.2,204.7c-0.5,0.6-4.6,5.7-11.8,5.6c-6.9-0.1-10.8-5.1-11.3-5.7c0.5,0,1.3,0,2.4-0.1
							c3.2-0.4,4.4-1.6,6.5-1.3c0.6,0.1,1.4,0.4,2.4,1.1c1.6-0.9,2.8-1.1,3.7-1c1.8,0.1,2.6,1.2,4.8,1.5
							C533.3,205,534.5,204.9,535.2,204.7z"/>
						<path class="st7" d="M528.3,195c0.2,0.5-2.3,2.6-5.2,2.5c-2.9-0.1-5.1-2.5-4.9-3c0.2-0.4,1.9,0.7,5.2,0.9
							C526.5,195.5,528.1,194.7,528.3,195z"/>
					</g>
				</g>
			</g>
			<path class="st16" d="M524.3,270.3c-14.6,0-26.5,1.7-35.2,3.6c-12.8,2.8-10.9,23.3-11,27.7c-0.7,18.2,9.5,24.1,10,43
				c0.3,10.6-2.5,19.3-5,25c13.7-7.5,27.3-15,41-22.4h0.3c14.4,9.7,28.8,19.3,43.2,29c-9.7-15.2-10.8-26.9-10-34.8
				c1.8-16.8,12.8-22,12.7-39.6c0-2.6,2.5-24.7-11.1-27.7C550.2,272.1,538.1,270.3,524.3,270.3z"/>
			<g>
				<path class="st16" d="M619.5,692.7c-27.3,28.3-60.1,44.8-95.4,44.8s-68.1-16.5-95.4-44.8c-36.4,68.6-77.5,134.7-77.5,134.7
					s93.9,10.8,132.5,10.8c32.2,0,57.9,0,80.8,0c38.7,0,132.5-10.8,132.5-10.8S655.9,761.3,619.5,692.7z"/>
				<path class="st16" d="M524.1,737.4c35.3,0,68.1-16.5,95.4-44.8c-11.1-16.8-24.9-41.1-35.4-72.4c-3.3-9.7-10.4-31-13.4-57.1
					c-9.1-76.8,28-99.8,12-152.4c-10-33-30.4-63.6-30.4-63.6c-1.9-2.9-5.7-8.1-9.5-13.2v-8.1l-7.1-1.5c-1.9-2.5-3.1-4.2-3.1-4.2
					l-8.4,1.8l-8.4-1.8c0,0-1.3,1.7-3.1,4.2l-7.1,1.5v8.1c-3.7,5.1-7.5,10.3-9.5,13.2c0,0-19.7,29.5-30.4,63.6
					c-14.6,46.4,10.9,92.9,11,148.4c0.1,30.7-7.6,76.6-47.8,133.5C455.9,720.9,488.8,737.4,524.1,737.4z"/>
			</g>
			<path class="st8" d="M466.7,259.3c0,0-4.7-7.1-7-3.7c-11.3,16.7-29.7,91-29.7,91c-2.9,9.5,3,19.5,12.7,21.4
				c0,0,60.1,17.5,78.2,10c3.4-1.4,7.3-8.2,3.2-10.7c-17.5-10.6-66-20.2-66-20.2s19.1-47.3,22.9-73
				C481.9,268.7,466.7,259.3,466.7,259.3z"/>
			<path class="st8" d="M582.8,259.3c0,0,4.7-7.1,7-3.7c11.3,16.7,29.7,91,29.7,91c2.9,9.5-3,19.5-12.7,21.4c0,0-60.1,17.5-78.2,10
				c-3.4-1.4-7.3-8.2-3.2-10.7c17.5-10.6,66-20.2,66-20.2s-19.1-47.3-22.9-73C567.7,268.7,582.8,259.3,582.8,259.3z"/>
			<path class="st16" d="M459.2,247.6c-1.1,0.4-2.4,0.9-3.8,1.8c-1.9,1.2-3.2,2.5-4.1,3.5c-7.3,21.9-14.1,45.5-20.2,70.6
				c-2.4,10-4.6,19.9-6.5,29.6c0.1,1.7,0.5,6,3.5,10c2,2.7,4.3,4.2,5.8,5c9.5,4.2,21.6,8.5,35.8,11.5c17.4,3.7,32.8,4.4,44.7,4
				c0.4-9.1,0.8-18.1,1.1-27.2c-11.7-2.2-24-5.1-36.9-8.9c-5.1-1.5-10-3-14.8-4.6c7.3-23.2,14.7-46.4,22-69.6
				c0-1.1,0.1-14.4-10.7-21.7C468.5,247.1,461.6,247.4,459.2,247.6z"/>
			<path class="st16" d="M589.2,247.6c1.3,0.4,2.9,1.1,4.5,2.1c1.9,1.1,3.4,2.4,4.4,3.4c6.8,22.2,13.3,45.7,19.1,70.4
				c2.4,10,4.5,19.9,6.5,29.6c-0.1,1.7-0.5,6-3.5,10c-2,2.7-4.3,4.2-5.8,5c-9.5,4.2-21.6,8.5-35.8,11.5c-17.4,3.7-32.8,4.4-44.7,4
				c-0.4-9.1-0.8-18.1-1.1-27.2c11.7-2.2,24-5.1,36.9-8.9c5.1-1.5,10-3,14.8-4.6c-7.2-23.8-14.3-47.7-21.5-71.5
				c0-1.2,0.3-13,10.1-19.8C580,247,587.1,247.4,589.2,247.6z"/>
			<g>
				<ellipse class="st19" cx="530.8" cy="365.3" rx="23.3" ry="22.7"/>
				<path class="st19" d="M507.6,342.5c5.6,3.1,7.7,10.2,4.6,15.9c-3.1,5.6-10.2,7.7-15.9,4.6c-5.6-3.1-17.3-22.9-17.3-22.9
					S501.9,339.4,507.6,342.5z"/>
				<path class="st19" d="M558.3,366.6c-4.7,2.7-10.7,1-13.4-3.8s-1-10.7,3.8-13.4c4.7-2.7,24.1-2.2,24.1-2.2S563,364,558.3,366.6z"
					/>
				<path class="st19" d="M540.2,395.5c-2.1-3.8-0.6-8.6,3.2-10.7s8.6-0.6,10.7,3.2c2.1,3.8,1.5,19.4,1.5,19.4
					S542.2,399.3,540.2,395.5z"/>
				<path class="st19" d="M505.7,383.4c3.3-5.2,10.3-6.8,15.5-3.4c5.2,3.3,6.8,10.3,3.4,15.5c-3.3,5.2-23.1,15.3-23.1,15.3
					S502.4,388.6,505.7,383.4z"/>
				<path class="st19" d="M542.6,341.1c-0.5,5.4-5.2,9.4-10.5,8.9c-5.4-0.5-9.4-5.2-8.9-10.5c0.5-5.4,11.6-21,11.6-21
					S543.1,335.7,542.6,341.1z"/>
				<g>
					<path class="st20" d="M554.1,365c0,3.4-2.8,10.5-6.2,10.5c-3.4,0-6.2-7.1-6.2-10.5c0-3.4,2.8-6.2,6.2-6.2
						C551.3,358.8,554.1,361.5,554.1,365z"/>
					<path class="st20" d="M541.7,383.3c0-3.4,2.8-10.5,6.2-10.5c3.4,0,6.2,7.1,6.2,10.5c0,3.4-2.8,6.2-6.2,6.2
						C544.4,389.4,541.7,386.7,541.7,383.3z"/>
					<path class="st20" d="M545.8,363.3c2.4,2.4,5.5,9.4,3.1,11.8c-2.4,2.4-9.4-0.7-11.8-3.1c-2.4-2.4-2.4-6.3,0-8.8
						C539.4,360.8,543.4,360.8,545.8,363.3z"/>
					<path class="st20" d="M550,385c-2.4-2.4-5.5-9.4-3.1-11.8c2.4-2.4,9.4,0.7,11.8,3.1c2.4,2.4,2.4,6.3,0,8.8
						C556.3,387.4,552.4,387.4,550,385z"/>
					<path class="st20" d="M538.7,367.9c3.4,0,10.5,2.8,10.5,6.2s-7.1,6.2-10.5,6.2c-3.4,0-6.2-2.8-6.2-6.2S535.3,367.9,538.7,367.9
						z"/>
					<path class="st20" d="M557,380.3c-3.4,0-10.5-2.8-10.5-6.2s7.1-6.2,10.5-6.2c3.4,0,6.2,2.8,6.2,6.2S560.4,380.3,557,380.3z"/>
					<path class="st20" d="M537,376.2c2.4-2.4,9.4-5.5,11.8-3.1c2.4,2.4-0.7,9.4-3.1,11.8c-2.4,2.4-6.3,2.4-8.8,0
						C534.6,382.5,534.6,378.6,537,376.2z"/>
					<path class="st20" d="M558.7,372c-2.4,2.4-9.4,5.5-11.8,3.1c-2.4-2.4,0.7-9.4,3.1-11.8c2.4-2.4,6.3-2.4,8.8,0
						C561.1,365.7,561.1,369.6,558.7,372z"/>
				</g>
				<g>
					<path class="st21" d="M528.1,341c0,3.4-2.8,10.6-6.2,10.6c-3.4,0-6.2-7.2-6.2-10.6s2.8-6.2,6.2-6.2
						C525.4,334.8,528.1,337.6,528.1,341z"/>
					<path class="st21" d="M515.7,359.4c0-3.4,2.8-10.6,6.2-10.6c3.4,0,6.2,7.2,6.2,10.6c0,3.4-2.8,6.2-6.2,6.2
						C518.5,365.6,515.7,362.8,515.7,359.4z"/>
					<path class="st21" d="M519.8,339.3c2.4,2.4,5.5,9.5,3.1,11.9c-2.4,2.4-9.5-0.7-11.9-3.1c-2.4-2.4-2.4-6.4,0-8.8
						C513.4,336.9,517.4,336.9,519.8,339.3z"/>
					<path class="st21" d="M524,361.1c-2.4-2.4-5.5-9.5-3.1-11.9c2.4-2.4,9.5,0.7,11.9,3.1c2.4,2.4,2.4,6.4,0,8.8
						C530.4,363.5,526.4,363.5,524,361.1z"/>
					<path class="st21" d="M512.7,344c3.4,0,10.6,2.8,10.6,6.2c0,3.4-7.2,6.2-10.6,6.2c-3.4,0-6.2-2.8-6.2-6.2
						C506.5,346.8,509.3,344,512.7,344z"/>
					<path class="st21" d="M531.1,356.4c-3.4,0-10.6-2.8-10.6-6.2c0-3.4,7.2-6.2,10.6-6.2c3.4,0,6.2,2.8,6.2,6.2
						C537.3,353.7,534.5,356.4,531.1,356.4z"/>
					<path class="st21" d="M511,352.3c2.4-2.4,9.5-5.5,11.9-3.1c2.4,2.4-0.7,9.5-3.1,11.9c-2.4,2.4-6.4,2.4-8.8,0
						C508.6,358.7,508.6,354.7,511,352.3z"/>
					<path class="st21" d="M532.8,348.1c-2.4,2.4-9.5,5.5-11.9,3.1c-2.4-2.4,0.7-9.5,3.1-11.9c2.4-2.4,6.4-2.4,8.8,0
						C535.2,341.7,535.2,345.7,532.8,348.1z"/>
				</g>
				<g>
					<path class="st20" d="M531.6,368.9c0,3.8-3.1,11.8-6.9,11.8c-3.8,0-6.9-8-6.9-11.8c0-3.8,3.1-6.9,6.9-6.9
						C528.5,361.9,531.6,365.1,531.6,368.9z"/>
					<path class="st20" d="M517.7,389.4c0-3.8,3.1-11.8,6.9-11.8c3.8,0,6.9,8,6.9,11.8c0,3.8-3.1,6.9-6.9,6.9
						C520.8,396.3,517.7,393.2,517.7,389.4z"/>
					<path class="st20" d="M522.3,367c2.7,2.7,6.2,10.5,3.4,13.3c-2.7,2.7-10.5-0.7-13.3-3.4c-2.7-2.7-2.7-7.1,0-9.8
						C515.2,364.3,519.6,364.3,522.3,367z"/>
					<path class="st20" d="M527,391.3c-2.7-2.7-6.2-10.5-3.4-13.3c2.7-2.7,10.5,0.7,13.3,3.4c2.7,2.7,2.7,7.1,0,9.8
						C534.1,394,529.7,394,527,391.3z"/>
					<path class="st20" d="M514.4,372.2c3.8,0,11.8,3.1,11.8,6.9c0,3.8-8,6.9-11.8,6.9c-3.8,0-6.9-3.1-6.9-6.9
						C507.5,375.3,510.6,372.2,514.4,372.2z"/>
					<path class="st20" d="M534.9,386.1c-3.8,0-11.8-3.1-11.8-6.9c0-3.8,8-6.9,11.8-6.9c3.8,0,6.9,3.1,6.9,6.9
						C541.8,383,538.7,386.1,534.9,386.1z"/>
					<path class="st20" d="M512.5,381.5c2.7-2.7,10.5-6.2,13.3-3.4c2.7,2.7-0.7,10.5-3.4,13.3c-2.7,2.7-7.1,2.7-9.8,0
						C509.8,388.6,509.8,384.2,512.5,381.5z"/>
					<path class="st20" d="M536.8,376.8c-2.7,2.7-10.5,6.2-13.3,3.4c-2.7-2.7,0.7-10.5,3.4-13.3c2.7-2.7,7.1-2.7,9.8,0
						C539.5,369.7,539.5,374.1,536.8,376.8z"/>
				</g>
				<path class="st22" d="M559.8,384c0,2.8-11,1.1-11,1.1s9.9,5.1,8.3,7.3c-1.6,2.2-9.6-5.6-9.6-5.6s5.1,10,2.4,10.8
					c-2.6,0.9-4.4-10.2-4.4-10.2s-1.8,11-4.4,10.2c-2.6-0.9,2.4-10.8,2.4-10.8s-7.9,7.9-9.6,5.6c-1.6-2.2,8.3-7.3,8.3-7.3
					s-11,1.7-11-1.1c0-2.8,11-1.1,11-1.1s-9.9-5.1-8.3-7.3c1.6-2.2,9.6,5.6,9.6,5.6s-5.1-10-2.4-10.8c2.6-0.9,4.4,10.2,4.4,10.2
					s1.8-11,4.4-10.2c2.6,0.9-2.4,10.8-2.4,10.8s7.9-7.9,9.6-5.6c1.6,2.2-8.3,7.3-8.3,7.3S559.8,381.2,559.8,384z"/>
				<path class="st23" d="M513.9,377.5c0,0.8-2.7,1.2-2.9,1.9c-0.2,0.8,1.9,2.5,1.5,3.1c-0.4,0.7-2.9-0.3-3.5,0.2
					c-0.5,0.5,0.4,3.1-0.2,3.5c-0.7,0.4-2.4-1.7-3.1-1.5c-0.7,0.2-1.2,2.9-1.9,2.9c-0.8,0-1.2-2.7-1.9-2.9c-0.8-0.2-2.5,1.9-3.1,1.5
					c-0.7-0.4,0.3-2.9-0.2-3.5c-0.5-0.5-3.1,0.4-3.5-0.2c-0.4-0.7,1.7-2.4,1.5-3.1c-0.2-0.7-2.9-1.2-2.9-1.9c0-0.8,2.7-1.2,2.9-1.9
					c0.2-0.8-1.9-2.5-1.5-3.1c0.4-0.7,2.9,0.3,3.5-0.2c0.5-0.5-0.4-3.1,0.2-3.5c0.7-0.4,2.4,1.7,3.1,1.5c0.7-0.2,1.2-2.9,1.9-2.9
					c0.8,0,1.2,2.7,1.9,2.9c0.8,0.2,2.5-1.9,3.1-1.5c0.7,0.4-0.3,2.9,0.2,3.5c0.5,0.5,3.1-0.4,3.5,0.2c0.4,0.7-1.7,2.4-1.5,3.1
					C511.2,376.3,513.9,376.7,513.9,377.5z"/>
				<path class="st24" d="M548.1,367.4c0,0.8-2.7,1.2-2.9,1.9c-0.2,0.8,1.9,2.5,1.5,3.1c-0.4,0.7-2.9-0.3-3.5,0.2
					c-0.5,0.5,0.4,3.1-0.2,3.5c-0.7,0.4-2.4-1.7-3.1-1.5c-0.7,0.2-1.2,2.9-1.9,2.9c-0.8,0-1.2-2.7-1.9-2.9c-0.8-0.2-2.5,1.9-3.1,1.5
					c-0.7-0.4,0.3-2.9-0.2-3.5c-0.5-0.5-3.1,0.4-3.5-0.2c-0.4-0.7,1.7-2.4,1.5-3.1c-0.2-0.7-2.9-1.2-2.9-1.9c0-0.8,2.7-1.2,2.9-1.9
					c0.2-0.8-1.9-2.5-1.5-3.1c0.4-0.7,2.9,0.3,3.5-0.2c0.5-0.5-0.4-3.1,0.2-3.5c0.7-0.4,2.4,1.7,3.1,1.5c0.7-0.2,1.2-2.9,1.9-2.9
					c0.8,0,1.2,2.7,1.9,2.9c0.8,0.2,2.5-1.9,3.1-1.5c0.7,0.4-0.3,2.9,0.2,3.5c0.5,0.5,3.1-0.4,3.5,0.2c0.4,0.7-1.7,2.4-1.5,3.1
					C545.4,366.2,548.1,366.6,548.1,367.4z"/>
				<g>
					<g>
						<path class="st22" d="M519.1,387.5c0,1.8-1.5,5.6-3.3,5.6c-1.8,0-3.3-3.8-3.3-5.6c0-1.8,1.5-3.3,3.3-3.3
							C517.6,384.2,519.1,385.7,519.1,387.5z"/>
						<path class="st22" d="M512.6,397.1c0-1.8,1.5-5.6,3.3-5.6c1.8,0,3.3,3.8,3.3,5.6s-1.5,3.3-3.3,3.3
							C514,400.4,512.6,398.9,512.6,397.1z"/>
						<path class="st22" d="M514.7,386.6c1.3,1.3,2.9,5,1.6,6.2c-1.3,1.3-5-0.3-6.2-1.6c-1.3-1.3-1.3-3.3,0-4.6
							C511.4,385.3,513.5,385.3,514.7,386.6z"/>
						<path class="st22" d="M516.9,398c-1.3-1.3-2.9-5-1.6-6.2c1.3-1.3,5,0.3,6.2,1.6c1.3,1.3,1.3,3.3,0,4.6
							C520.3,399.3,518.2,399.3,516.9,398z"/>
						<path class="st22" d="M511,389c1.8,0,5.6,1.5,5.6,3.3c0,1.8-3.8,3.3-5.6,3.3c-1.8,0-3.3-1.5-3.3-3.3
							C507.7,390.5,509.2,389,511,389z"/>
						<path class="st22" d="M520.7,395.6c-1.8,0-5.6-1.5-5.6-3.3c0-1.8,3.8-3.3,5.6-3.3c1.8,0,3.3,1.5,3.3,3.3
							C523.9,394.1,522.5,395.6,520.7,395.6z"/>
						<path class="st22" d="M510.1,393.4c1.3-1.3,5-2.9,6.2-1.6c1.3,1.3-0.3,5-1.6,6.2c-1.3,1.3-3.3,1.3-4.6,0
							C508.8,396.8,508.8,394.7,510.1,393.4z"/>
						<path class="st22" d="M521.6,391.2c-1.3,1.3-5,2.9-6.2,1.6c-1.3-1.3,0.3-5,1.6-6.2c1.3-1.3,3.3-1.3,4.6,0
							C522.8,387.9,522.8,389.9,521.6,391.2z"/>
					</g>
				</g>
				<path class="st21" d="M531.4,400c1.8,1.8,1.8,4.7,0,6.5c-1.8,1.8-4.7,1.8-6.5,0c-1.8-1.8-1.8-4.7,0-6.5
					C526.7,398.2,529.6,398.2,531.4,400z"/>
				<circle class="st24" cx="535.2" cy="391.3" r="5.2"/>
				<circle class="st23" cx="526.2" cy="380.3" r="3.4"/>
				<g>
					<path class="st20" d="M542.4,340.4c0,3.4-2.8,10.5-6.2,10.5c-3.4,0-6.2-7.1-6.2-10.5c0-3.4,2.8-6.2,6.2-6.2
						C539.6,334.2,542.4,337,542.4,340.4z"/>
					<path class="st20" d="M530,358.7c0-3.4,2.8-10.5,6.2-10.5c3.4,0,6.2,7.1,6.2,10.5c0,3.4-2.8,6.2-6.2,6.2
						C532.7,364.9,530,362.1,530,358.7z"/>
					<path class="st20" d="M534.1,338.7c2.4,2.4,5.5,9.4,3.1,11.8c-2.4,2.4-9.4-0.7-11.8-3.1c-2.4-2.4-2.4-6.3,0-8.8
						C527.7,336.3,531.7,336.3,534.1,338.7z"/>
					<path class="st20" d="M538.3,360.4c-2.4-2.4-5.5-9.4-3.1-11.8c2.4-2.4,9.4,0.7,11.8,3.1c2.4,2.4,2.4,6.3,0,8.8
						C544.6,362.8,540.7,362.8,538.3,360.4z"/>
					<path class="st20" d="M527,343.4c3.4,0,10.5,2.8,10.5,6.2c0,3.4-7.1,6.2-10.5,6.2c-3.4,0-6.2-2.8-6.2-6.2
						C520.8,346.1,523.6,343.4,527,343.4z"/>
					<path class="st20" d="M545.3,355.7c-3.4,0-10.5-2.8-10.5-6.2c0-3.4,7.1-6.2,10.5-6.2c3.4,0,6.2,2.8,6.2,6.2
						C551.5,353,548.7,355.7,545.3,355.7z"/>
					<path class="st20" d="M525.3,351.6c2.4-2.4,9.4-5.5,11.8-3.1c2.4,2.4-0.7,9.4-3.1,11.8c-2.4,2.4-6.3,2.4-8.8,0
						C522.9,358,522.9,354.1,525.3,351.6z"/>
					<path class="st20" d="M547,347.5c-2.4,2.4-9.4,5.5-11.8,3.1c-2.4-2.4,0.7-9.4,3.1-11.8c2.4-2.4,6.3-2.4,8.8,0
						C549.4,341.1,549.4,345,547,347.5z"/>
				</g>
				<g>
					<path class="st23" d="M539.4,344.7c0,1.8-1.5,5.6-3.3,5.6c-1.8,0-3.3-3.8-3.3-5.6s1.5-3.3,3.3-3.3
						C538,341.5,539.4,342.9,539.4,344.7z"/>
					<path class="st23" d="M532.9,354.4c0-1.8,1.5-5.6,3.3-5.6c1.8,0,3.3,3.8,3.3,5.6c0,1.8-1.5,3.3-3.3,3.3
						C534.4,357.6,532.9,356.2,532.9,354.4z"/>
					<path class="st23" d="M535.1,343.8c1.3,1.3,2.9,5,1.6,6.2c-1.3,1.3-5-0.3-6.2-1.6c-1.3-1.3-1.3-3.3,0-4.6
						C531.7,342.6,533.8,342.6,535.1,343.8z"/>
					<path class="st23" d="M537.3,355.3c-1.3-1.3-2.9-5-1.6-6.2c1.3-1.3,5,0.3,6.2,1.6c1.3,1.3,1.3,3.3,0,4.6
						C540.6,356.5,538.5,356.5,537.3,355.3z"/>
					<path class="st23" d="M531.3,346.3c1.8,0,5.6,1.5,5.6,3.3c0,1.8-3.8,3.3-5.6,3.3c-1.8,0-3.3-1.5-3.3-3.3
						C528.1,347.7,529.5,346.3,531.3,346.3z"/>
					<path class="st23" d="M541,352.8c-1.8,0-5.6-1.5-5.6-3.3c0-1.8,3.8-3.3,5.6-3.3s3.3,1.5,3.3,3.3
						C544.3,351.4,542.8,352.8,541,352.8z"/>
					<path class="st23" d="M530.4,350.7c1.3-1.3,5-2.9,6.2-1.6c1.3,1.3-0.3,5-1.6,6.2c-1.3,1.3-3.3,1.3-4.6,0
						C529.2,354,529.2,351.9,530.4,350.7z"/>
					<path class="st23" d="M541.9,348.4c-1.3,1.3-5,2.9-6.2,1.6c-1.3-1.3,0.3-5,1.6-6.2c1.3-1.3,3.3-1.3,4.6,0
						C543.2,345.1,543.2,347.2,541.9,348.4z"/>
				</g>
				<path class="st25" d="M532.6,357.1c0,4.2-16.6,1.6-16.6,1.6s14.9,7.7,12.5,11c-2.4,3.4-14.3-8.5-14.3-8.5s7.6,15,3.6,16.2
					c-4,1.3-6.6-15.3-6.6-15.3s-2.7,16.6-6.6,15.3c-4-1.3,3.6-16.2,3.6-16.2s-11.9,11.8-14.3,8.5c-2.4-3.4,12.5-11,12.5-11
					s-16.6,2.6-16.6-1.6c0-4.2,16.6-1.6,16.6-1.6s-14.9-7.7-12.5-11c2.4-3.4,14.3,8.5,14.3,8.5s-7.6-15-3.6-16.2
					c4-1.3,6.6,15.3,6.6,15.3s2.7-16.6,6.6-15.3c4,1.3-3.6,16.2-3.6,16.2s11.9-11.8,14.3-8.5c2.4,3.4-12.5,11-12.5,11
					S532.6,352.9,532.6,357.1z"/>
			</g>
		</g>
		<g class="st26">
			<path class="st16" d="M294,821.4c4.2-29.3,13.7-74.1,38.8-122.6c28.5-55,54.6-71.3,78.8-118.8c16-31.4,33.6-81.1,31.3-154.4
				c-1.3,71.8-21.3,117.9-39.2,146.6c-18,28.8-30.5,34.8-64.5,87.8c-30,46.9-40,73.1-45.4,89.6c-9.1,28.3-12.4,52.9-13.7,70.1
				C284.9,820.2,289.5,820.8,294,821.4z"/>
			<path class="st16" d="M422.5,624.3c-16.9,22.4-30.3,41.7-40,56.2c-23.6,35.2-37.1,55.4-49.7,84.2c-10.4,23.8-16.4,44.5-19.9,58.8
				c5.6,0.6,11.1,1.2,16.7,1.7c5.7-22.2,13.2-46.3,23.2-71.6C373.6,700.7,399.1,657.6,422.5,624.3z"/>
		</g>
		<g class="st26">
			<path class="st16" d="M782.2,814.1c-4.7,0.9-9.3,1.7-13.8,2.5c-4.3-29.3-14-73.1-38.5-120.3c-28.5-55-54.6-71.2-78.8-118.8
				c-16-31.4-33.6-81.1-31.3-154.4C621,494.9,641,541,658.9,569.7c18,28.8,30.5,34.9,64.5,87.8c30,46.9,40,73.1,45.4,89.6
				C777.3,773.8,780.7,797.2,782.2,814.1z"/>
			<path class="st16" d="M749.4,819.9c-5.7,0.9-11.2,1.8-16.5,2.6c-5.7-22.1-13.2-46.1-23.1-71.3c-20.8-52.9-46.2-96-69.7-129.3
				c16.9,22.4,30.3,41.7,40,56.2c23.6,35.2,37.1,55.4,49.7,84.2C740,785.4,745.9,805.6,749.4,819.9z"/>
		</g>
	</g>
	<g>
		<path class="st27" d="M586.1,242.4c-2.1-3.2-6.3-9.9-6.3-9.9c-2.7-3.2-4.7-4.5-6.1-5.1c-1.6-0.7-2.2-1.2-3.4-2
			c-0.7-0.5-1.1-0.9-1.6-1.4c-0.7-0.9-1.1-1.8-1.3-2.4v0c-0.3-0.3-0.6-0.7-1.1-1.3c0,0-4.5-5.9-5.8-14.3c-1.4-9,3.2-21,3.8-29
			c1.8-21.9-2.8-41.4-13.5-52c-13.4-13.2-27.8-14.6-46.4-6.4c-18.5,8.2-20.7,34.2-20.7,34.2c-2.2,11.1-1.6,19.9-0.6,26.1
			c2.5,15.4,9.3,24.9,5.1,36.6c-1.4,3.9-3.5,6.7-5.1,8.5c-3.1,3.4-5.9,6.1-8.1,8.1c-3.6,3.3-5.2,4.5-6.7,5.4
			c-2.9,1.8-2.9,1.2-4.7,2.6c-3.3,2.5-5,5.8-6,8.3c0,0,0,0,0,0.1c-0.7,1.9,0.1,4,1.8,4.9c5,2.8,10.4,9,16.5,16.9
			c9.2,12,27.9,33.4,55.6,33.4c25.5,0,34.5-14.8,51.6-39.1c5.1-7.2,6-10.4,9.1-14C592.2,248,589.8,248.1,586.1,242.4z M548.7,205.3
			c-3.2,6-15.9,15.1-18.7,17c-3,2.3-8.8,1.2-10.2,1c-5.5-0.8-21-15.8-22.1-17.7c-1-1.8-2.7-6.8-4.2-12.3c0,0,0,0,0,0v0
			c0-0.1,0-0.1-0.1-0.2c-0.8-3-1.5-6.1-2.1-8.9c0,0,0-0.1,0-0.1c-0.3-1.7-0.6-3.2-0.7-4.6c-0.9-9.4-3.1-16.4,3-28.9
			c6.1-12.5,19.1-18.6,29.5-18.6c17.3,0,32,18.6,32.6,40c0.1,2.9-1.1,10.7-2.6,18.2C551.9,196.4,550.2,202.5,548.7,205.3z"/>
		<path class="st28" d="M553.2,190.1c-0.7,2.2,4-9.7,2.6-18.2c-2.1-13.4-13-32.2-32.3-33.2c-18-0.9-32.9,14.2-33.8,24
			c-0.3,3.4,0.5,12.7,0.9,16.7c0.1,1.4,0.4,2.9,0.7,4.6c-11.1-54.9,20.8-62.3,30.6-62.3C544.3,121.6,565.4,148.3,553.2,190.1z"/>
	</g>
	<path class="st16" d="M494.5,214.6c1.4,4,3.6,9.6,7.3,15.7c4.3,7,15.5,25.4,37.1,31.1c12.9,3.4,24.4,1,31.4-1.3
		c-6,3.5-16.7,8.3-29.4,6.7C518.9,263.9,499.7,243.1,494.5,214.6z"/>
	<path class="st16" d="M480.5,236.3c2.2,6.4,6.9,17.4,17.4,27c20,18.5,45.1,17.7,50.4,17.4c-5.5,2-17.2,5.4-30.4,1.7
		C498.7,276.9,484.2,258.9,480.5,236.3z"/>
	<path class="st16" d="M553.6,222.2c-1.9,3.8-5.2,9.3-10.8,14.5c-7.4,6.9-15.1,10.1-19.6,11.5c1.9,0.4,10.8,1.8,19-3.7
		C553.7,237.1,553.7,223.2,553.6,222.2z"/>
	<path class="st16" d="M570.3,241.6c-1.5,2.9-3.8,6.5-7.7,9.3c-9,6.7-19.7,4.6-19.7,5.7c0,1.1,11.6,5.6,20-0.3
		C569.7,251.6,570.3,243.1,570.3,241.6z"/>
	<g>
		<path class="st16" d="M555.8,139.3c-9.8-5.9-21-11.2-32.1-11c-11.1-0.2-22.3,5.1-32.1,11c0,1.8,0,3.6,0,5.5
			c10.5-1.5,21.3-4.5,32.1-4.3c10.8-0.2,21.6,2.8,32.1,4.3C555.8,143,555.8,141.1,555.8,139.3z"/>
		<path class="st16" d="M506.4,132.7c-0.3,0-0.6-0.2-0.8-0.4c-0.2-0.4-0.1-0.9,0.3-1.1c1.6-0.9,2.8-2.7,4-4.7
			c1.8-2.8,3.8-6.1,7.6-6.1c0,0,0,0,0,0c1.2,0,2.4,0.5,3.3,1.4c0.9,0.9,1.4,2.1,1.3,3.4c0,1-0.5,2-1.3,2.7c-0.8,0.7-1.8,1.1-2.8,1
			c-0.9,0-1.7-0.4-2.3-1c-0.6-0.6-0.9-1.5-0.9-2.3c0.1-1.5,1.4-2.7,3-2.7c0.5,0,0.9,0.4,0.8,0.9c0,0.5-0.4,0.8-0.9,0.8
			c-0.6,0-1.1,0.4-1.2,1c0,0.4,0.1,0.8,0.4,1.1c0.3,0.3,0.7,0.5,1.1,0.5c0.6,0,1.2-0.2,1.6-0.6c0.4-0.4,0.7-0.9,0.7-1.5
			c0-0.8-0.3-1.6-0.9-2.2c-0.5-0.5-1.2-0.8-2-0.8h0c-2.8,0-4.4,2.6-6.1,5.3c-1.3,2.1-2.6,4.3-4.7,5.4
			C506.7,132.6,506.5,132.7,506.4,132.7z"/>
		<path class="st16" d="M491.5,140.1c-0.3,0-0.6-0.2-0.8-0.4c-0.2-0.4-0.1-0.9,0.3-1.1c1.6-0.9,3-3.4,4.4-5.9c2.1-3.8,4.2-7.8,8-7.8
			c0,0,0,0,0,0c1.2,0,2.4,0.5,3.3,1.4c0.9,0.9,1.4,2.1,1.3,3.4c0,1-0.5,2-1.3,2.7c-0.8,0.7-1.8,1.1-2.8,1c-0.9,0-1.7-0.4-2.3-1
			c-0.6-0.6-0.9-1.5-0.9-2.3c0.1-1.5,1.4-2.7,3-2.7c0.5,0,0.9,0.4,0.8,0.9c0,0.5-0.4,0.8-0.9,0.8c-0.6,0-1.1,0.4-1.1,1
			c0,0.4,0.1,0.8,0.4,1.1c0.3,0.3,0.7,0.5,1.1,0.5c0.6,0,1.2-0.2,1.6-0.6c0.4-0.4,0.7-0.9,0.7-1.5c0-0.8-0.3-1.6-0.9-2.2
			c-0.5-0.5-1.2-0.8-2-0.8c0,0,0,0,0,0c-2.7,0-4.6,3.5-6.4,6.9c-1.5,2.8-3,5.5-5.1,6.6C491.8,140.1,491.7,140.1,491.5,140.1z"/>
		<path class="st16" d="M541,132.7c-0.1,0-0.3,0-0.4-0.1c-2.1-1.1-3.4-3.3-4.7-5.4c-1.7-2.7-3.3-5.3-6.1-5.3h0c-0.8,0-1.5,0.3-2,0.8
			c-0.6,0.6-0.9,1.4-0.9,2.2c0,0.6,0.3,1.1,0.7,1.5c0.4,0.4,1,0.6,1.6,0.6c0.4,0,0.8-0.2,1.1-0.5c0.3-0.3,0.4-0.7,0.4-1.1
			c0-0.6-0.5-1.1-1.2-1c-0.5,0-0.9-0.3-0.9-0.8c0-0.5,0.4-0.9,0.8-0.9c1.6,0,2.9,1.1,3,2.7c0,0.9-0.3,1.7-0.9,2.3
			c-0.6,0.6-1.4,1-2.3,1c-1.1,0-2.1-0.3-2.8-1c-0.8-0.7-1.2-1.6-1.3-2.7c0-1.3,0.4-2.5,1.3-3.4c0.9-0.9,2-1.4,3.3-1.4h0
			c3.8,0,5.8,3.2,7.6,6.1c1.2,2,2.4,3.9,4,4.7c0.4,0.2,0.6,0.7,0.3,1.1C541.6,132.5,541.3,132.7,541,132.7z"/>
		<path class="st16" d="M555.8,140.1c-0.1,0-0.3,0-0.4-0.1c-2.1-1.1-3.6-3.8-5.1-6.6c-1.8-3.4-3.7-6.9-6.4-6.9c0,0,0,0,0,0
			c-0.8,0-1.5,0.3-2,0.8c-0.6,0.6-0.9,1.4-0.9,2.2c0,0.6,0.3,1.1,0.7,1.5c0.4,0.4,1,0.6,1.6,0.6c0.4,0,0.8-0.2,1.1-0.5
			c0.3-0.3,0.4-0.7,0.4-1.1c0-0.6-0.5-1.1-1.2-1c-0.5,0-0.9-0.3-0.9-0.8c0-0.5,0.4-0.9,0.8-0.9c1.6-0.1,2.9,1.1,3,2.7
			c0,0.9-0.3,1.7-0.9,2.3c-0.6,0.6-1.4,1-2.3,1c-1.1,0-2.1-0.3-2.8-1c-0.8-0.7-1.2-1.6-1.3-2.7c0-1.3,0.4-2.5,1.3-3.4
			c0.9-0.9,2-1.4,3.3-1.4c0,0,0,0,0,0c3.8,0,5.9,4,8,7.8c1.3,2.5,2.7,5.1,4.4,5.9c0.4,0.2,0.6,0.7,0.3,1.1
			C556.4,140,556.1,140.1,555.8,140.1z"/>
		<path class="st16" d="M525.9,118.2c2.2-3.5-0.5-8.1-2.2-10.9l0,0v0c-1.7,2.8-4.5,7.5-2.2,10.9c0,0-1.2-0.5-2.2-0.2
			c-0.1,2.4,1.2,4.7,4.4,6.2v0l0,0c3.2-1.4,4.5-3.8,4.4-6.2C527.1,117.7,525.9,118.2,525.9,118.2z"/>
		<path class="st16" d="M509.8,121.9c1.5-2.3-0.3-5.4-1.5-7.2l0,0v0c-1.1,1.8-2.9,4.9-1.5,7.2c0,0-0.8-0.3-1.5-0.1
			c0,1.6,0.8,3.1,2.9,4.1v0l0,0c2.1-0.9,3-2.5,2.9-4.1C510.6,121.6,509.8,121.9,509.8,121.9z"/>
		<path class="st16" d="M540.6,121.9c1.5-2.3-0.3-5.4-1.5-7.2l0,0v0c-1.1,1.8-2.9,4.9-1.5,7.2c0,0-0.8-0.3-1.5-0.1
			c0,1.6,0.8,3.1,2.9,4.1v0l0,0c2.1-0.9,3-2.5,2.9-4.1C541.4,121.6,540.6,121.9,540.6,121.9z"/>
		<path class="st16" d="M557.3,132.6c1.5-2.3-0.3-5.4-1.5-7.2l0,0v0c-1.1,1.8-2.9,4.9-1.5,7.2c0,0-0.8-0.3-1.5-0.1
			c0,1.6,0.8,3.1,2.9,4.1v0l0,0c2.1-0.9,3-2.5,2.9-4.1C558.1,132.3,557.3,132.6,557.3,132.6z"/>
		<path class="st16" d="M493,132.6c1.5-2.3-0.3-5.4-1.5-7.2l0,0v0c-1.1,1.8-2.9,4.9-1.5,7.2c0,0-0.8-0.3-1.5-0.1
			c0,1.6,0.8,3.1,2.9,4.1v0l0,0c2.1-0.9,3-2.5,2.9-4.1C493.8,132.3,493,132.6,493,132.6z"/>
		<path class="st16" d="M508.9,125.2h-0.6h-0.6c0,0-0.6,1.4-0.6,2.6c0,1.2,1.1,1.9,1.1,1.9s1.1-0.7,1.1-1.9
			C509.5,126.6,508.9,125.2,508.9,125.2z"/>
		<path class="st16" d="M539.7,125.2h-0.6h-0.6c0,0-0.6,1.4-0.6,2.6c0,1.2,1.1,1.9,1.1,1.9s1.1-0.7,1.1-1.9
			C540.3,126.6,539.7,125.2,539.7,125.2z"/>
		<path class="st16" d="M556.4,136h-0.6h-0.6c0,0-0.6,1.4-0.6,2.6c0,1.2,1.1,1.9,1.1,1.9s1.1-0.7,1.1-1.9
			C557,137.4,556.4,136,556.4,136z"/>
		<path class="st16" d="M492.1,136h-0.6H491c0,0-0.6,1.4-0.6,2.6c0,1.2,1.1,1.9,1.1,1.9s1.1-0.7,1.1-1.9
			C492.7,137.4,492.1,136,492.1,136z"/>
		<path class="st29" d="M557.3,132.6c1.5-2.3-0.3-5.4-1.5-7.2l0,0v0c-1.1,1.8-2.9,4.9-1.5,7.2c0,0-0.8-0.3-1.5-0.1
			c0,1.4,0.6,2.8,2.3,3.7c-0.1,0.2-0.2,0.7-0.3,1.1c-1.1-1.2-2-3-3-4.7c-2.1-3.8-4.2-7.8-8-7.8c0,0,0,0,0,0c-1.2,0-2.4,0.5-3.3,1.4
			c-0.2,0.2-0.3,0.3-0.4,0.5c-0.1-0.5-0.2-0.9-0.3-1.2c1.6-1,2.3-2.3,2.2-3.7c-0.7-0.2-1.5,0.1-1.5,0.1c1.5-2.3-0.3-5.4-1.5-7.2l0,0
			v0c-1.1,1.8-2.9,4.9-1.5,7.2c0,0-0.8-0.3-1.5-0.1c0,1.4,0.6,2.8,2.2,3.7c-0.1,0.4-0.4,1.1-0.4,1.9c-0.2-0.3-0.4-0.7-0.7-1
			c-1.8-2.8-3.8-6.1-7.6-6.1h0c-0.8,0-1.6,0.2-2.3,0.6c0.4-0.9,0.6-1.8,0.6-2.8c-1-0.4-2.2,0.2-2.2,0.2c2.2-3.5-0.5-8.1-2.2-10.9
			l0,0v16.9l0,0c0.7-0.3,1.3-0.7,1.8-1c-0.2,0.6-0.3,1.2-0.3,1.8c0,1,0.5,2,1.3,2.7c0.5,0.4,1,0.7,1.6,0.9c-1.4-0.1-2.9-0.2-4.3-0.2
			c0,0,0,0,0,0v12.1c0,0,0,0,0,0c10.8-0.2,21.6,2.8,32.1,4.3c0-1.4,0-2.8,0-4.2c0,0,1.1-0.7,1.1-1.9c0-0.9-0.3-2-0.5-2.4
			c1.7-1,2.3-2.3,2.3-3.7C558.1,132.3,557.3,132.6,557.3,132.6z M529.3,128.7c0.9,0,1.7-0.4,2.3-1c0.6-0.6,0.9-1.5,0.9-2.3
			c-0.1-1.5-1.4-2.7-3-2.7c-0.5,0-0.9,0.4-0.8,0.9c0,0.5,0.4,0.8,0.9,0.8c0.6,0,1.1,0.4,1.2,1c0,0.4-0.1,0.8-0.4,1.1
			c-0.3,0.3-0.7,0.5-1.1,0.5c-0.6,0-1.2-0.2-1.6-0.6c-0.4-0.4-0.7-0.9-0.7-1.5c0-0.8,0.3-1.6,0.9-2.2c0.5-0.5,1.2-0.8,2-0.8h0
			c2.8,0,4.4,2.6,6.1,5.3c0.8,1.3,1.6,2.6,2.6,3.7C535.5,129.9,532.4,129.1,529.3,128.7z M544.2,133.2c0.6-0.2,1.1-0.5,1.5-0.9
			c0.6-0.6,0.9-1.5,0.9-2.3c-0.1-1.5-1.4-2.7-3-2.7c-0.5,0-0.9,0.4-0.8,0.9c0,0.5,0.4,0.8,0.9,0.8c0.6,0,1.1,0.4,1.2,1
			c0,0.4-0.1,0.8-0.4,1.1c-0.3,0.3-0.7,0.5-1.1,0.5c-0.6,0-1.2-0.2-1.6-0.6c-0.4-0.4-0.7-0.9-0.7-1.5c0-0.8,0.3-1.6,0.9-2.2
			c0.5-0.5,1.2-0.8,2-0.8c0,0,0,0,0,0c2.7,0,4.6,3.5,6.4,6.9c0.8,1.5,1.6,2.9,2.4,4.1C549.9,135.9,547.1,134.5,544.2,133.2z"/>
		<path class="st30" d="M555.8,141.3c-0.1,0-0.1,0-0.2,0l-0.5-0.3c-0.1-0.1-0.2-0.3-0.1-0.4c0.1-0.1,0.3-0.2,0.4-0.1l0.5,0.3
			c0.1,0.1,0.2,0.3,0.1,0.4C556,141.2,555.9,141.3,555.8,141.3z"/>
		<path class="st30" d="M554.3,140.4c-0.1,0-0.1,0-0.1,0c-0.3-0.2-0.7-0.4-1-0.6c-0.1-0.1-0.2-0.3-0.1-0.4c0.1-0.1,0.3-0.2,0.4-0.1
			c0.3,0.2,0.7,0.4,1,0.6c0.1,0.1,0.2,0.3,0.1,0.4C554.5,140.3,554.4,140.4,554.3,140.4z M493,140.4c-0.1,0-0.2,0-0.2-0.1
			c-0.1-0.1,0-0.3,0.1-0.4c0.3-0.2,0.7-0.4,1-0.6c0.1-0.1,0.3,0,0.4,0.1c0.1,0.1,0,0.3-0.1,0.4c-0.3,0.2-0.7,0.4-1,0.6
			C493.1,140.4,493.1,140.4,493,140.4z M552.3,139.3c0,0-0.1,0-0.1,0c-0.3-0.2-0.7-0.4-1-0.6c-0.1-0.1-0.2-0.2-0.1-0.4
			c0.1-0.1,0.3-0.2,0.4-0.1c0.3,0.2,0.7,0.4,1,0.6c0.1,0.1,0.2,0.2,0.1,0.4C552.5,139.2,552.4,139.3,552.3,139.3z M495,139.3
			c-0.1,0-0.2,0-0.3-0.1c-0.1-0.1,0-0.3,0.1-0.4c0.3-0.2,0.7-0.4,1-0.6c0.1-0.1,0.3,0,0.4,0.1c0.1,0.1,0,0.3-0.1,0.4
			c-0.3,0.2-0.7,0.4-1,0.6C495.1,139.2,495.1,139.3,495,139.3z M550.3,138.2c0,0-0.1,0-0.1,0c-0.3-0.2-0.7-0.4-1-0.5
			c-0.1-0.1-0.2-0.2-0.1-0.4c0.1-0.1,0.3-0.2,0.4-0.1c0.3,0.2,0.7,0.4,1,0.5c0.1,0.1,0.2,0.2,0.1,0.4
			C550.5,138.1,550.4,138.2,550.3,138.2z M497,138.2c-0.1,0-0.2-0.1-0.3-0.1c-0.1-0.1,0-0.3,0.1-0.4c0.3-0.2,0.7-0.4,1-0.5
			c0.1-0.1,0.3,0,0.4,0.1c0.1,0.1,0,0.3-0.1,0.4c-0.3,0.2-0.7,0.4-1,0.5C497.1,138.1,497.1,138.2,497,138.2z M548.3,137.1
			c0,0-0.1,0-0.1,0c-0.3-0.2-0.7-0.3-1-0.5c-0.1-0.1-0.2-0.2-0.1-0.4c0.1-0.1,0.2-0.2,0.4-0.1c0.3,0.2,0.7,0.3,1,0.5
			c0.1,0.1,0.2,0.2,0.1,0.4C548.5,137,548.4,137.1,548.3,137.1z M499,137.1c-0.1,0-0.2-0.1-0.3-0.1c-0.1-0.1,0-0.3,0.1-0.4
			c0.3-0.2,0.7-0.3,1-0.5c0.1-0.1,0.3,0,0.4,0.1c0.1,0.1,0,0.3-0.1,0.4c-0.3,0.2-0.7,0.3-1,0.5C499.1,137.1,499.1,137.1,499,137.1z
			 M546.3,136.1c0,0-0.1,0-0.1,0c-0.3-0.2-0.7-0.3-1-0.5c-0.1-0.1-0.2-0.2-0.1-0.4c0.1-0.1,0.2-0.2,0.4-0.1c0.3,0.2,0.7,0.3,1,0.5
			c0.1,0.1,0.2,0.2,0.1,0.4C546.5,136,546.4,136.1,546.3,136.1z M501.1,136.1c-0.1,0-0.2-0.1-0.3-0.2c-0.1-0.1,0-0.3,0.1-0.4
			c0.3-0.2,0.7-0.3,1-0.5c0.1-0.1,0.3,0,0.4,0.1c0.1,0.1,0,0.3-0.1,0.4c-0.3,0.2-0.7,0.3-1,0.5C501.2,136.1,501.1,136.1,501.1,136.1
			z M544.2,135.1c0,0-0.1,0-0.1,0c-0.3-0.2-0.7-0.3-1-0.5c-0.1-0.1-0.2-0.2-0.1-0.4c0.1-0.1,0.2-0.2,0.4-0.1
			c0.4,0.2,0.7,0.3,1.1,0.5c0.1,0.1,0.2,0.2,0.1,0.4C544.4,135.1,544.3,135.1,544.2,135.1z M503.2,135.1c-0.1,0-0.2-0.1-0.3-0.2
			c-0.1-0.1,0-0.3,0.1-0.4c0.4-0.2,0.7-0.3,1.1-0.5c0.1-0.1,0.3,0,0.4,0.1c0.1,0.1,0,0.3-0.1,0.4c-0.3,0.1-0.7,0.3-1,0.5
			C503.2,135.1,503.2,135.1,503.2,135.1z M542.1,134.2c0,0-0.1,0-0.1,0c-0.4-0.1-0.7-0.3-1.1-0.4c-0.1-0.1-0.2-0.2-0.2-0.4
			c0.1-0.1,0.2-0.2,0.4-0.2c0.4,0.1,0.7,0.3,1.1,0.4c0.1,0.1,0.2,0.2,0.2,0.4C542.3,134.2,542.2,134.2,542.1,134.2z M505.3,134.2
			c-0.1,0-0.2-0.1-0.3-0.2c-0.1-0.1,0-0.3,0.2-0.4c0.4-0.1,0.7-0.3,1.1-0.4c0.1-0.1,0.3,0,0.4,0.2c0.1,0.1,0,0.3-0.2,0.4
			c-0.4,0.1-0.7,0.3-1.1,0.4C505.3,134.2,505.3,134.2,505.3,134.2z M539.9,133.4c0,0-0.1,0-0.1,0c-0.4-0.1-0.7-0.3-1.1-0.4
			c-0.2-0.1-0.2-0.2-0.2-0.4c0.1-0.1,0.2-0.2,0.4-0.2c0.4,0.1,0.7,0.3,1.1,0.4c0.2,0.1,0.2,0.2,0.2,0.4
			C540.2,133.3,540.1,133.4,539.9,133.4z M507.4,133.4c-0.1,0-0.2-0.1-0.3-0.2c-0.1-0.1,0-0.3,0.2-0.4c0.4-0.1,0.7-0.3,1.1-0.4
			c0.2-0.1,0.3,0,0.4,0.2c0.1,0.1,0,0.3-0.2,0.4c-0.4,0.1-0.7,0.3-1.1,0.4C507.5,133.4,507.4,133.4,507.4,133.4z M509.6,132.6
			c-0.1,0-0.2-0.1-0.3-0.2c-0.1-0.1,0-0.3,0.2-0.4c0.4-0.1,0.7-0.2,1.1-0.3c0.2,0,0.3,0,0.4,0.2c0,0.1,0,0.3-0.2,0.4
			C510.4,132.4,510,132.5,509.6,132.6C509.6,132.6,509.6,132.6,509.6,132.6z M537.8,132.6C537.7,132.6,537.7,132.6,537.8,132.6
			c-0.5-0.1-0.8-0.2-1.2-0.4c-0.2,0-0.2-0.2-0.2-0.4c0-0.1,0.2-0.2,0.4-0.2c0.4,0.1,0.7,0.2,1.1,0.3c0.2,0,0.2,0.2,0.2,0.4
			C538,132.6,537.9,132.6,537.8,132.6z M511.8,132c-0.1,0-0.2-0.1-0.3-0.2c0-0.1,0-0.3,0.2-0.3c0.4-0.1,0.7-0.2,1.1-0.3
			c0.2,0,0.3,0,0.4,0.2c0,0.1-0.1,0.3-0.2,0.3C512.6,131.8,512.2,131.9,511.8,132C511.8,132,511.8,132,511.8,132z M535.6,132
			C535.5,132,535.5,132,535.6,132c-0.4-0.1-0.8-0.2-1.2-0.3c-0.2,0-0.2-0.2-0.2-0.3c0-0.1,0.2-0.2,0.4-0.2c0.4,0.1,0.7,0.2,1.1,0.3
			c0.2,0,0.2,0.2,0.2,0.3C535.8,131.9,535.7,132,535.6,132z M514,131.4c-0.1,0-0.2-0.1-0.3-0.2c0-0.2,0.1-0.3,0.2-0.3
			c0.4-0.1,0.8-0.2,1.1-0.2c0.2,0,0.3,0.1,0.3,0.2c0,0.2-0.1,0.3-0.2,0.3C514.8,131.2,514.4,131.3,514,131.4
			C514,131.4,514,131.4,514,131.4z M533.3,131.4C533.3,131.4,533.3,131.4,533.3,131.4c-0.4-0.1-0.8-0.2-1.2-0.3
			c-0.2,0-0.3-0.2-0.2-0.3c0-0.2,0.2-0.2,0.3-0.2c0.4,0.1,0.8,0.2,1.1,0.2c0.2,0,0.3,0.2,0.2,0.3
			C533.6,131.3,533.5,131.4,533.3,131.4z M516.2,130.9c-0.1,0-0.3-0.1-0.3-0.2c0-0.2,0.1-0.3,0.2-0.3c0.4-0.1,0.8-0.1,1.1-0.2
			c0.2,0,0.3,0.1,0.3,0.2c0,0.2-0.1,0.3-0.2,0.3C517,130.8,516.6,130.9,516.2,130.9C516.3,130.9,516.2,130.9,516.2,130.9z
			 M531.1,130.9C531.1,130.9,531.1,130.9,531.1,130.9c-0.4-0.1-0.8-0.1-1.2-0.2c-0.2,0-0.3-0.2-0.2-0.3c0-0.2,0.2-0.3,0.3-0.2
			c0.4,0.1,0.8,0.1,1.1,0.2c0.2,0,0.3,0.2,0.2,0.3C531.4,130.8,531.2,130.9,531.1,130.9z M518.5,130.6c-0.1,0-0.3-0.1-0.3-0.2
			c0-0.2,0.1-0.3,0.3-0.3c0.4,0,0.8-0.1,1.2-0.1c0.2,0,0.3,0.1,0.3,0.3c0,0.2-0.1,0.3-0.3,0.3C519.3,130.5,518.9,130.5,518.5,130.6
			C518.5,130.6,518.5,130.6,518.5,130.6z M528.8,130.6C528.8,130.6,528.8,130.6,528.8,130.6c-0.4,0-0.8-0.1-1.2-0.1
			c-0.2,0-0.3-0.2-0.3-0.3c0-0.2,0.2-0.3,0.3-0.3c0.4,0,0.8,0.1,1.2,0.1c0.2,0,0.3,0.2,0.3,0.3C529.1,130.5,529,130.6,528.8,130.6z
			 M520.8,130.4c-0.2,0-0.3-0.1-0.3-0.3c0-0.2,0.1-0.3,0.3-0.3c0.4,0,0.8,0,1.2-0.1c0.2,0,0.3,0.1,0.3,0.3c0,0.2-0.1,0.3-0.3,0.3
			C521.6,130.3,521.2,130.4,520.8,130.4C520.8,130.4,520.8,130.4,520.8,130.4z M526.5,130.4C526.5,130.4,526.5,130.4,526.5,130.4
			c-0.4,0-0.8,0-1.2-0.1c-0.2,0-0.3-0.1-0.3-0.3c0-0.2,0.1-0.3,0.3-0.3c0,0,0,0,0,0c0.4,0,0.8,0,1.2,0.1c0.2,0,0.3,0.1,0.3,0.3
			C526.8,130.3,526.7,130.4,526.5,130.4z M523.7,130.3c-0.2,0-0.4,0-0.6,0c-0.2,0-0.3-0.1-0.3-0.3c0-0.2,0.1-0.3,0.3-0.3l0,0
			c0.2,0,0.4,0,0.6,0c0.2,0,0.4,0,0.6,0h0c0.2,0,0.3,0.1,0.3,0.3c0,0.2-0.1,0.3-0.3,0.3C524,130.3,523.9,130.3,523.7,130.3z"/>
		<path class="st30" d="M491.5,141.3c-0.1,0-0.2,0-0.2-0.1c-0.1-0.1,0-0.3,0.1-0.4l0.5-0.3c0.1-0.1,0.3,0,0.4,0.1
			c0.1,0.1,0,0.3-0.1,0.4l-0.5,0.3C491.7,141.3,491.6,141.3,491.5,141.3z"/>
		<path class="st30" d="M491.5,143.4c-0.1,0-0.3-0.1-0.3-0.2c0-0.2,0.1-0.3,0.2-0.3c0.4-0.1,0.8-0.1,1.1-0.2c0.2,0,0.3,0.1,0.3,0.2
			c0,0.2-0.1,0.3-0.2,0.3C492.4,143.3,492,143.4,491.5,143.4C491.6,143.4,491.6,143.4,491.5,143.4z M554.7,143.3
			C554.7,143.3,554.7,143.3,554.7,143.3c-0.4-0.1-0.8-0.1-1.2-0.2c-0.2,0-0.3-0.2-0.2-0.3c0-0.2,0.2-0.3,0.3-0.2
			c0.4,0.1,0.8,0.1,1.1,0.2c0.2,0,0.3,0.2,0.2,0.3C555,143.2,554.8,143.3,554.7,143.3z M493.8,143.1c-0.1,0-0.3-0.1-0.3-0.2
			c0-0.2,0.1-0.3,0.2-0.3c0.4-0.1,0.8-0.1,1.1-0.2c0.2,0,0.3,0.1,0.3,0.2c0,0.2-0.1,0.3-0.2,0.3C494.6,143,494.3,143,493.8,143.1
			C493.9,143.1,493.9,143.1,493.8,143.1z M552.4,142.9C552.4,142.9,552.4,142.9,552.4,142.9c-0.4-0.1-0.8-0.1-1.2-0.2
			c-0.2,0-0.3-0.2-0.2-0.3c0-0.2,0.2-0.3,0.3-0.2c0.4,0.1,0.8,0.1,1.1,0.2c0.2,0,0.3,0.2,0.2,0.3
			C552.7,142.8,552.5,142.9,552.4,142.9z M496.1,142.7c-0.1,0-0.3-0.1-0.3-0.2c0-0.2,0.1-0.3,0.2-0.3c0.4-0.1,0.8-0.1,1.1-0.2
			c0.2,0,0.3,0.1,0.3,0.2c0,0.2-0.1,0.3-0.2,0.3C496.9,142.6,496.6,142.6,496.1,142.7C496.2,142.7,496.1,142.7,496.1,142.7z
			 M550.1,142.5C550.1,142.5,550.1,142.5,550.1,142.5c-0.4-0.1-0.8-0.1-1.2-0.2c-0.2,0-0.3-0.2-0.2-0.3c0-0.2,0.2-0.3,0.3-0.2
			c0.4,0.1,0.8,0.1,1.1,0.2c0.2,0,0.3,0.2,0.2,0.3C550.4,142.4,550.2,142.5,550.1,142.5z M498.4,142.3c-0.1,0-0.3-0.1-0.3-0.2
			c0-0.2,0.1-0.3,0.2-0.3c0.4-0.1,0.8-0.1,1.1-0.2c0.2,0,0.3,0.1,0.3,0.2c0,0.2-0.1,0.3-0.2,0.3
			C499.2,142.2,498.8,142.2,498.4,142.3C498.4,142.3,498.4,142.3,498.4,142.3z M547.8,142.1C547.8,142.1,547.8,142.1,547.8,142.1
			c-0.4-0.1-0.8-0.1-1.2-0.2c-0.2,0-0.3-0.2-0.2-0.3c0-0.2,0.2-0.2,0.3-0.2c0.4,0.1,0.8,0.1,1.1,0.2c0.2,0,0.3,0.2,0.2,0.3
			C548.1,142,548,142.1,547.8,142.1z M500.7,141.9c-0.1,0-0.3-0.1-0.3-0.2c0-0.2,0.1-0.3,0.2-0.3l1.1-0.2c0.2,0,0.3,0.1,0.3,0.2
			c0,0.2-0.1,0.3-0.2,0.3L500.7,141.9C500.7,141.9,500.7,141.9,500.7,141.9z M545.5,141.7C545.5,141.7,545.5,141.7,545.5,141.7
			l-1.2-0.2c-0.2,0-0.3-0.2-0.2-0.3c0-0.2,0.2-0.3,0.3-0.2l1.1,0.2c0.2,0,0.3,0.2,0.2,0.3C545.8,141.6,545.7,141.7,545.5,141.7z
			 M503,141.5c-0.1,0-0.3-0.1-0.3-0.2c0-0.2,0.1-0.3,0.2-0.3l1.1-0.2c0.2,0,0.3,0.1,0.3,0.2c0,0.2-0.1,0.3-0.2,0.3L503,141.5
			C503,141.5,503,141.5,503,141.5z M543.3,141.2C543.2,141.2,543.2,141.2,543.3,141.2c-0.4-0.1-0.8-0.1-1.2-0.2
			c-0.2,0-0.3-0.2-0.2-0.3c0-0.2,0.2-0.3,0.3-0.2c0.4,0.1,0.8,0.1,1.1,0.2c0.2,0,0.3,0.2,0.2,0.3
			C543.5,141.2,543.4,141.2,543.3,141.2z M505.2,141c-0.1,0-0.3-0.1-0.3-0.2c0-0.2,0.1-0.3,0.2-0.3c0.4-0.1,0.8-0.1,1.1-0.2
			c0.2,0,0.3,0.1,0.3,0.2c0,0.2-0.1,0.3-0.2,0.3C506.1,140.9,505.7,141,505.2,141C505.3,141,505.3,141,505.2,141z M541,140.8
			C541,140.8,540.9,140.8,541,140.8c-0.4-0.1-0.8-0.1-1.2-0.2c-0.2,0-0.3-0.2-0.2-0.3c0-0.2,0.2-0.3,0.3-0.2
			c0.4,0.1,0.8,0.1,1.1,0.2c0.2,0,0.3,0.2,0.2,0.3C541.2,140.7,541.1,140.8,541,140.8z M507.5,140.6c-0.1,0-0.3-0.1-0.3-0.2
			c0-0.2,0.1-0.3,0.2-0.3c0.4-0.1,0.8-0.1,1.1-0.2c0.2,0,0.3,0.1,0.3,0.2c0,0.2-0.1,0.3-0.2,0.3C508.3,140.5,508,140.6,507.5,140.6
			C507.6,140.6,507.5,140.6,507.5,140.6z M538.7,140.4C538.7,140.4,538.7,140.4,538.7,140.4c-0.4-0.1-0.8-0.1-1.2-0.2
			c-0.2,0-0.3-0.2-0.2-0.3c0-0.2,0.2-0.3,0.3-0.2c0.4,0.1,0.8,0.1,1.1,0.2c0.2,0,0.3,0.2,0.2,0.3C539,140.4,538.8,140.4,538.7,140.4
			z M509.8,140.3c-0.1,0-0.3-0.1-0.3-0.2c0-0.2,0.1-0.3,0.2-0.3c0.4-0.1,0.8-0.1,1.1-0.2c0.2,0,0.3,0.1,0.3,0.2
			c0,0.2-0.1,0.3-0.2,0.3C510.6,140.1,510.2,140.2,509.8,140.3C509.9,140.3,509.8,140.3,509.8,140.3z M536.4,140.1
			C536.4,140.1,536.4,140.1,536.4,140.1c-0.4-0.1-0.8-0.1-1.2-0.2c-0.2,0-0.3-0.2-0.2-0.3c0-0.2,0.2-0.3,0.3-0.2
			c0.4,0.1,0.8,0.1,1.2,0.2c0.2,0,0.3,0.2,0.2,0.3C536.7,140,536.5,140.1,536.4,140.1z M512.1,139.9c-0.1,0-0.3-0.1-0.3-0.2
			c0-0.2,0.1-0.3,0.2-0.3c0.4-0.1,0.8-0.1,1.2-0.2c0.2,0,0.3,0.1,0.3,0.2c0,0.2-0.1,0.3-0.2,0.3
			C512.9,139.8,512.5,139.9,512.1,139.9C512.1,139.9,512.1,139.9,512.1,139.9z M534.1,139.8C534.1,139.8,534.1,139.8,534.1,139.8
			c-0.4-0.1-0.8-0.1-1.2-0.1c-0.2,0-0.3-0.2-0.3-0.3c0-0.2,0.2-0.3,0.3-0.2c0.4,0,0.8,0.1,1.2,0.1c0.2,0,0.3,0.2,0.2,0.3
			C534.4,139.7,534.2,139.8,534.1,139.8z M514.4,139.6c-0.1,0-0.3-0.1-0.3-0.2c0-0.2,0.1-0.3,0.3-0.3c0.4,0,0.8-0.1,1.2-0.1
			c0.2,0,0.3,0.1,0.3,0.2c0,0.2-0.1,0.3-0.3,0.3C515.2,139.5,514.8,139.6,514.4,139.6C514.4,139.6,514.4,139.6,514.4,139.6z
			 M531.8,139.5C531.8,139.5,531.8,139.5,531.8,139.5c-0.4,0-0.8-0.1-1.2-0.1c-0.2,0-0.3-0.2-0.3-0.3c0-0.2,0.2-0.3,0.3-0.3
			c0.4,0,0.8,0.1,1.2,0.1c0.2,0,0.3,0.2,0.3,0.3C532.1,139.4,531.9,139.5,531.8,139.5z M516.7,139.4c-0.1,0-0.3-0.1-0.3-0.3
			c0-0.2,0.1-0.3,0.3-0.3c0.4,0,0.8-0.1,1.2-0.1c0.2,0,0.3,0.1,0.3,0.3c0,0.2-0.1,0.3-0.3,0.3C517.5,139.3,517.1,139.3,516.7,139.4
			C516.7,139.4,516.7,139.4,516.7,139.4z M529.5,139.3C529.5,139.3,529.5,139.3,529.5,139.3c-0.4,0-0.8-0.1-1.2-0.1
			c-0.2,0-0.3-0.1-0.3-0.3c0-0.2,0.2-0.3,0.3-0.3c0.4,0,0.8,0,1.2,0.1c0.2,0,0.3,0.1,0.3,0.3C529.8,139.2,529.6,139.3,529.5,139.3z
			 M519,139.2c-0.2,0-0.3-0.1-0.3-0.3c0-0.2,0.1-0.3,0.3-0.3c0.4,0,0.8,0,1.2-0.1c0.2,0,0.3,0.1,0.3,0.3c0,0.2-0.1,0.3-0.3,0.3
			C519.8,139.2,519.4,139.2,519,139.2C519.1,139.2,519.1,139.2,519,139.2z M527.2,139.2C527.2,139.2,527.2,139.2,527.2,139.2
			c-0.4,0-0.8,0-1.2,0c-0.2,0-0.3-0.1-0.3-0.3c0-0.2,0.1-0.3,0.3-0.3c0.4,0,0.8,0,1.2,0c0.2,0,0.3,0.1,0.3,0.3
			C527.5,139,527.3,139.2,527.2,139.2z M521.4,139.1c-0.2,0-0.3-0.1-0.3-0.3c0-0.2,0.1-0.3,0.3-0.3c0.4,0,0.8,0,1.2,0
			c0.2,0,0.3,0.1,0.3,0.3c0,0.2-0.1,0.3-0.3,0.3C522.1,139.1,521.8,139.1,521.4,139.1C521.4,139.1,521.4,139.1,521.4,139.1z
			 M523.7,139.1c-0.2,0-0.3-0.1-0.3-0.3c0-0.2,0.1-0.3,0.3-0.3c0.3,0,0.7,0,1,0l0.2,0c0.2,0,0.3,0.1,0.3,0.3c0,0.2-0.1,0.3-0.3,0.3
			c0,0,0,0,0,0l-0.2,0C524.4,139.1,524,139.1,523.7,139.1C523.7,139.1,523.7,139.1,523.7,139.1z"/>
		<path class="st31" d="M523.7,132c-0.8-0.7-2-0.7-2.8,0c-0.8,0.7-0.8,1.9,0,2.7l2.8,2.7l2.8-2.7c0.8-0.7,0.8-1.9,0-2.7
			C525.7,131.3,524.4,131.3,523.7,132z"/>
		<path class="st31" d="M524.9,120.7c0,0.6-0.5,1.2-1.2,1.2c-0.7,0-1.2-0.5-1.2-1.2c0-0.6,0.5-1.2,1.2-1.2
			C524.3,119.6,524.9,120.1,524.9,120.7z"/>
		<path class="st31" d="M524.2,115.3c0,0.3-0.3,0.5-0.6,0.5c-0.3,0-0.6-0.2-0.6-0.5c0-0.3,0.3-0.5,0.6-0.5
			C524,114.7,524.2,115,524.2,115.3z"/>
		<path class="st31" d="M540.1,123.5c0,0.5-0.4,0.9-0.9,0.9c-0.5,0-0.9-0.4-0.9-0.9c0-0.5,0.4-0.9,0.9-0.9
			C539.6,122.6,540.1,123,540.1,123.5z"/>
		<path class="st31" d="M539.6,119.5c0,0.2-0.2,0.4-0.4,0.4c-0.2,0-0.4-0.2-0.4-0.4c0-0.2,0.2-0.4,0.4-0.4
			C539.4,119.1,539.6,119.3,539.6,119.5z"/>
		<path class="st31" d="M556.7,134.3c0,0.5-0.4,0.9-0.9,0.9c-0.5,0-0.9-0.4-0.9-0.9c0-0.5,0.4-0.9,0.9-0.9
			C556.3,133.4,556.7,133.8,556.7,134.3z"/>
		<path class="st31" d="M556.2,130.2c0,0.2-0.2,0.4-0.4,0.4c-0.2,0-0.4-0.2-0.4-0.4c0-0.2,0.2-0.4,0.4-0.4
			C556,129.8,556.2,130,556.2,130.2z"/>
		<path class="st31" d="M492.5,134.3c0,0.5-0.4,0.9-0.9,0.9c-0.5,0-0.9-0.4-0.9-0.9c0-0.5,0.4-0.9,0.9-0.9
			C492.1,133.4,492.5,133.8,492.5,134.3z"/>
		<path class="st31" d="M492,130.2c0,0.2-0.2,0.4-0.4,0.4c-0.2,0-0.4-0.2-0.4-0.4c0-0.2,0.2-0.4,0.4-0.4
			C491.8,129.8,492,130,492,130.2z"/>
		<path class="st31" d="M509.3,123.5c0,0.5-0.4,0.9-0.9,0.9s-0.9-0.4-0.9-0.9c0-0.5,0.4-0.9,0.9-0.9S509.3,123,509.3,123.5z"/>
		<path class="st31" d="M508.8,119.5c0,0.2-0.2,0.4-0.4,0.4c-0.2,0-0.4-0.2-0.4-0.4c0-0.2,0.2-0.4,0.4-0.4
			C508.6,119.1,508.8,119.3,508.8,119.5z"/>
	</g>
</g>
</svg>
