<?xml version="1.0" encoding="utf-8"?>
<!-- Generator: Adobe Illustrator 26.0.1, SVG Export Plug-In . SVG Version: 6.00 Build 0)  -->
<svg version="1.1" id="Layer_1" xmlns="http://www.w3.org/2000/svg" xmlns:xlink="http://www.w3.org/1999/xlink" x="0px" y="0px"
	 viewBox="0 0 854 544" style="enable-background:new 0 0 854 544;" xml:space="preserve">
<style type="text/css">
	.st0{fill:#A5E0DC;}
	.st1{fill:#212121;}
	.st2{fill:#00747D;}
	.st3{fill:#BEFCF6;}
	.st4{fill:#21263D;}
	.st5{fill:#81CCC6;}
	.st6{fill:#B1D8FC;}
	.st7{fill:#46738C;}
	.st8{fill:#0F131C;}
	.st9{fill:#19232D;}
	.st10{fill:#9BC2E0;}
	.st11{fill:#6B95AF;}
	.st12{fill:#13121C;}
	.st13{fill:#363160;}
	.st14{fill:#21151E;}
	.st15{fill:#6A66BF;}
	.st16{fill:#282828;}
	.st17{opacity:0.6;}
	.st18{fill:#E4887F;}
	.st19{fill:#300B18;}
	.st20{fill:#FFB886;}
	.st21{fill:#C6093A;}
	.st22{fill:#FFFFFF;}
	.st23{clip-path:url(#SVGID_00000055704591545606248130000009457761669241388436_);}
	.st24{fill:#432B16;}
	.st25{clip-path:url(#SVGID_00000062908762953929914100000003539720778940404867_);}
	.st26{opacity:0.6;fill:#F58E6F;}
	.st27{fill:url(#SVGID_00000170247072662138720590000016066745278951933321_);}
	.st28{fill:#E86A54;}
	.st29{fill:#B24234;}
	.st30{fill:none;}
	.st31{fill:url(#SVGID_00000047772188912084912110000015055370050482818973_);}
	.st32{fill:url(#SVGID_00000165207910877770711070000006735542246251267767_);}
	.st33{fill:url(#SVGID_00000168095337497027027950000018147041502572307598_);}
	.st34{fill:url(#SVGID_00000021091391818880575220000003523535443595209351_);}
	.st35{fill:url(#SVGID_00000060742868967813876210000012686541236805732996_);}
	.st36{fill:url(#SVGID_00000152944206632364225150000009231886963170467764_);}
	.st37{fill:#B59B76;}
	.st38{fill:#E2C294;}
	.st39{fill:#F58E6F;}
	.st40{fill:#A0A0A0;}
	.st41{fill:#777777;}
	.st42{fill:#EFEFEF;}
	.st43{fill:#E0E0E0;}
	.st44{fill:#FCFCFC;}
	.st45{fill:#FF335A;}
	.st46{fill:#103C89;}
	.st47{fill:#754026;}
	.st48{fill:#E5E5E5;}
	.st49{fill:#111111;}
	.st50{fill:#EAA77A;}
</style>
<path class="st0" d="M833.1,428.3c-9.9,36.3-22.4,63.5-31.4,80.3c-6.9,12.9-11.8,19.7-11.8,19.7H91.6c0,0-7.1-10.2-17.2-27
	c-35-58.4-105.8-196-39.2-259.4c85.8-81.7,167.5-8.9,183.8-96.9C234.2,63.6,291.5-15.3,396,10.1C530,42.8,515.2,135.2,581.1,128.3
	c65.8-6.9,178.4-58.7,198.8,39.3c20.4,97.9-75,182-14.3,175C807.3,337.8,860.7,327.2,833.1,428.3z"/>
<g>
	<g>
		<path class="st1" d="M434.3,195.2c-1.9,5.4-3.9,10.2-6,14.6c6.6,15.6,13.1,31.2,19.7,46.8c19,1.4,38.1,2.8,57.1,4.1
			c0.5-5.6,1-11.1,1.5-16.7c-14.2-1.8-28.5-3.7-42.7-5.5c-7.9-21.9-15.8-43.9-23.6-65.8C439,179.3,437.2,186.9,434.3,195.2z"/>
	</g>
	<g>
		<g>
			<g>
				<path class="st2" d="M798.7,513.6C791.8,526.4,787,533,787,533H94.8c0,0-7-10.1-17-26.7c84.3-5.6,196-9,318.6-9
					C565.8,497.3,714.5,503.8,798.7,513.6z"/>
				<g>
					<g>
						<g>
							<path class="st3" d="M126.6,454.9c2.8-31.7-18.2-78.1-55-80c-7.8-0.4-13.7,0.8-12.2,9.5c1,6,4.4,11.7,8,16.6
								c9.6,13,21.3,20.7,33.5,31.1c5.5,4.7,10.6,9.1,16.2,13.4c1.9,1.5,3.3,3.1,4.8,5c1,1.2,4.2,5.8,4,4.8L126.6,454.9z"/>
						</g>
						<g>
							<path class="st4" d="M131.1,487.9c-0.2,0-0.5-0.2-0.5-0.4c0-0.3,0-0.7-0.1-1.2c-0.2-3.8-0.8-15.3-5.1-30.7
								c-8.2-29-22.8-45.7-45.4-64.8c-0.2-0.2-0.2-0.5-0.1-0.7c0.2-0.2,0.5-0.2,0.7-0.1c22.7,19.2,37.4,36,45.7,65.3
								c4.4,15.5,4.9,27.1,5.1,30.9c0,0.6,0,1,0.1,1.2C131.6,487.6,131.4,487.8,131.1,487.9C131.1,487.9,131.1,487.9,131.1,487.9z"
								/>
						</g>
					</g>
					<g>
						<g>
							<path class="st5" d="M119.5,271.1c4.1,7.6-2.3,15.6-1.8,23.4c1.3,21.8,38.7,18.7,34.5,41.8c-0.8,4.7-3.7,8.8-6.8,12.2
								c-2.5,2.8-7.3,5.7-8,9.8c-1.4,7.7,10,12.5,14.1,17.4c6,7.1,7.9,17,1.9,24.8c-5.8,7.5-6.5,6.2-5.7,16.7
								c0.7,9.3-1.3,28.6-7.8,36.8c-8.1-41.1-21.1-35.8-36.9-37.2c-8.7-0.8-19.7-7.4-17.4-16.3c2.3-9.3,2.9-11.6,7.9-19
								c6.7-10-4.2-15.4-12.4-17.5c-10.5-2.7-12.2-5.6-15.3-17.7c-1.3-5.2-0.4-10.5,2.3-15.2c3-5.1,9.1-7.5,12.2-12.2
								c5.7-9-8.6-12.3-14.1-16c-6-4.1-7.9-9.4-5.2-16.1c1.3-3.1,3.1-5.9,6-7.6c2.1-1.2,6.5-1.3,7.9-3.5c1.1-1.7-0.6-5.8-0.4-8
								c0.3-2.7,1.3-5.4,3.4-7.3c6.1-5.5,13.8,1.9,20.4,2.7C106,264,115.1,262.8,119.5,271.1z"/>
						</g>
						<g>
							<path class="st4" d="M135,486.7c0,0-0.1,0-0.1,0c-0.3-0.1-0.4-0.3-0.3-0.6c5.1-18.8,5.5-42,5.3-49.3
								c-0.7-21.8-5.2-44.5-13.3-67.5c-8.9-25.5-18-50.2-30.3-71c-0.1-0.2-0.1-0.5,0.2-0.7c0.2-0.1,0.5-0.1,0.7,0.2
								c12.3,20.9,21.4,45.6,30.3,71.2c8.1,23.2,12.6,46,13.3,67.8c0.3,7.4-0.2,30.7-5.3,49.6C135.4,486.5,135.2,486.7,135,486.7z"
								/>
						</g>
						<g>
							<path class="st4" d="M106.5,317.2c0,0-0.1,0-0.1,0c-0.3-0.1-0.4-0.3-0.4-0.6c1-4.3,1.8-10.3,2.5-17.2c0-0.3,0.3-0.5,0.5-0.4
								c0.3,0,0.5,0.3,0.4,0.5c-0.7,7-1.6,13-2.5,17.3C106.9,317,106.7,317.2,106.5,317.2z"/>
						</g>
						<g>
							<path class="st4" d="M112.1,330.7c-0.1,0-0.2,0-0.2-0.1c-3-1.7-5.4-3.2-7.7-4.6c-3.6-2.2-6.6-4.1-10.7-5.9
								c-0.2-0.1-0.4-0.4-0.3-0.6c0.1-0.2,0.4-0.4,0.6-0.3c4.1,1.8,7.2,3.7,10.8,5.9c2.3,1.4,4.7,2.9,7.7,4.6
								c0.2,0.1,0.3,0.4,0.2,0.7C112.4,330.6,112.2,330.7,112.1,330.7z"/>
						</g>
						<g>
							<path class="st4" d="M120.6,351.8c0,0-0.1,0-0.1,0c-0.3-0.1-0.4-0.3-0.4-0.6c0.5-2.4,1.3-5.4,2.1-8.7
								c0.8-3.3,1.6-6.7,2.2-9.5c0.1-0.3,0.3-0.4,0.6-0.4c0.3,0.1,0.4,0.3,0.4,0.6c-0.6,2.8-1.5,6.2-2.2,9.5
								c-0.8,3.3-1.5,6.3-2.1,8.7C121.1,351.7,120.9,351.8,120.6,351.8z"/>
						</g>
						<g>
							<path class="st4" d="M122.9,357.9c-0.1,0-0.2,0-0.3-0.1c-2.1-1.3-5.3-2.7-8.7-4.2c-3.6-1.6-7.3-3.2-10.5-4.9
								c-0.2-0.1-0.3-0.4-0.2-0.7c0.1-0.2,0.4-0.3,0.7-0.2c3.1,1.8,6.8,3.4,10.4,4.9c3.4,1.5,6.7,2.9,8.9,4.2
								c0.2,0.1,0.3,0.4,0.2,0.7C123.2,357.9,123.1,357.9,122.9,357.9z"/>
						</g>
						<g>
							<path class="st4" d="M131.3,382c-0.1,0-0.1,0-0.2,0c-0.3-0.1-0.4-0.4-0.3-0.6c2-5.3,3.1-7.9,5.2-12.6l1.1-2.6
								c0.1-0.2,0.4-0.4,0.6-0.3c0.2,0.1,0.4,0.4,0.3,0.6l-1.1,2.6c-2.1,4.7-3.2,7.3-5.2,12.6C131.6,381.8,131.4,382,131.3,382z"/>
						</g>
						<g>
							<path class="st4" d="M134.4,394.9c-0.1,0-0.2,0-0.3-0.1c-3.5-2.3-6.2-4-8.6-5.5c-4.1-2.5-7-4.4-10.3-6.9
								c-0.2-0.2-0.2-0.5-0.1-0.7c0.2-0.2,0.5-0.2,0.7-0.1c3.2,2.5,6.1,4.4,10.2,6.9c2.4,1.5,5.2,3.2,8.6,5.5
								c0.2,0.1,0.3,0.4,0.1,0.7C134.7,394.8,134.6,394.9,134.4,394.9z"/>
						</g>
						<g>
							<path class="st4" d="M138.1,413.6c-0.1,0-0.1,0-0.2,0c-0.2-0.1-0.4-0.4-0.3-0.6c1.4-3.4,3.5-7,5.3-10.2
								c1.2-2.1,2.3-4,3.1-5.6c0.1-0.2,0.4-0.3,0.6-0.2c0.2,0.1,0.3,0.4,0.2,0.6c-0.8,1.6-1.9,3.6-3.1,5.7
								c-1.8,3.2-3.9,6.8-5.2,10.1C138.5,413.5,138.3,413.6,138.1,413.6z"/>
						</g>
					</g>
					<g>
						<g>
							<path class="st3" d="M143,454.9c-2.8-31.7,18.2-78.1,55-80c7.8-0.4,13.7,0.8,12.2,9.5c-1,6-4.4,11.7-8,16.6
								c-9.6,13-21.3,20.7-33.5,31.1c-5.5,4.7-10.6,9.1-16.2,13.4c-1.9,1.5-3.3,3.1-4.8,5c-1,1.2-4.2,5.8-4,4.8L143,454.9z"/>
						</g>
						<g>
							<path class="st4" d="M138.6,487.9c0.2,0,0.5-0.2,0.5-0.4c0-0.3,0-0.7,0.1-1.2c0.2-3.8,0.8-15.3,5.1-30.7
								c8.2-29,22.8-45.7,45.4-64.8c0.2-0.2,0.2-0.5,0.1-0.7c-0.2-0.2-0.5-0.2-0.7-0.1c-22.7,19.2-37.4,36-45.7,65.3
								c-4.4,15.5-4.9,27.1-5.1,30.9c0,0.6,0,1-0.1,1.2C138,487.6,138.2,487.8,138.6,487.9C138.5,487.9,138.5,487.9,138.6,487.9z"/>
						</g>
					</g>
					<polygon class="st5" points="151.5,517.2 118.9,517.2 106.4,467.8 163.9,467.8 					"/>
				</g>
			</g>
			<g>
				<g>
					<g>
						<g>
							<g>
								<rect x="398.8" y="381.6" class="st6" width="18.9" height="34"/>
							</g>
							<g>
								<rect x="395.5" y="378.4" class="st7" width="25.6" height="8.8"/>
							</g>
							<g>
								<rect x="397.3" y="407.6" class="st7" width="21.9" height="62.9"/>
							</g>
						</g>
						<g>
							<g>
								<path class="st8" d="M517.9,496.8c0,5.3-4.3,9.6-9.6,9.6c-5.3,0-9.6-4.3-9.6-9.6c0-5.3,4.3-9.6,9.6-9.6
									C513.6,487.2,517.9,491.5,517.9,496.8z"/>
							</g>
							<g>
								<g>
									<path class="st7" d="M512.6,494.3c-0.5,0-1,0-1.5-0.2l-104.3-20.6c-4.3-0.8-7.1-5-6.2-9.3c0.8-4.3,5-7.1,9.3-6.2
										l104.3,20.6c4.3,0.8,7.1,5,6.2,9.3C519.6,491.7,516.3,494.3,512.6,494.3z"/>
								</g>
							</g>
						</g>
						<g>
							<g>
								<path class="st8" d="M295.8,498.3c0,3.9,3.2,7.1,7.1,7.1c3.9,0,7.1-3.2,7.1-7.1c0-3.9-3.2-7.1-7.1-7.1
									C299,491.2,295.8,494.4,295.8,498.3z"/>
							</g>
							<g>
								<g>
									<path class="st7" d="M304.6,494.3c0.5,0,1,0,1.5-0.2l104.3-20.6c4.3-0.8,7.1-5,6.2-9.3c-0.8-4.3-5-7.1-9.3-6.2L303,478.7
										c-4.3,0.8-7.1,5-6.2,9.3C297.6,491.7,300.9,494.3,304.6,494.3z"/>
								</g>
							</g>
						</g>
						<g>
							<g>
								<path class="st8" d="M398.7,504.4c0,5.3,4.3,9.6,9.6,9.6c5.3,0,9.6-4.3,9.6-9.6c0-5.3-4.3-9.6-9.6-9.6
									C403,494.8,398.7,499.1,398.7,504.4z"/>
							</g>
						</g>
						<g>
							<g>
								<path class="st7" d="M408.6,500.3c4.4,0,7.9-3.5,7.9-7.9v-27.2c0-4.4-3.5-7.9-7.9-7.9c-4.4,0-7.9,3.5-7.9,7.9v27.2
									C400.7,496.7,404.2,500.3,408.6,500.3z"/>
							</g>
						</g>
					</g>
					<g>
						<g>
							<g>
								<g>
									<path class="st7" d="M462.6,374.9c-1.2,0-2.3-0.3-3.4-1c-2.9-1.9-3.8-5.8-2-8.7c0.2-0.2,15.6-24.6,24.3-42.5
										c3.3-6.7,3.7-12.8,1.2-16.9c-2.1-3.4-6.3-5.3-11.7-5.3h-58.3c-3.5,0-6.3-2.8-6.3-6.3c0-3.5,2.8-6.3,6.3-6.3h58.3
										c9.8,0,17.9,4.1,22.4,11.2c4.9,7.9,4.7,18.3-0.6,29.1c-9.1,18.4-24.4,42.6-25,43.6C466.7,373.9,464.7,374.9,462.6,374.9z"
										/>
								</g>
							</g>
							<g>
								<g>
									<path class="st6" d="M490.7,323.6c-0.1,0-0.2,0-0.3-0.1c-0.3-0.2-0.4-0.5-0.3-0.8c3.5-7.1,3.2-14.8-0.7-21
										c-3.7-5.9-10.1-9.6-16.7-9.6h-22.2c-0.3,0-0.6-0.3-0.6-0.6c0-0.3,0.3-0.6,0.6-0.6h22.2c7.1,0,13.9,3.9,17.8,10.2
										c4.1,6.6,4.4,14.8,0.7,22.3C491.1,323.5,490.9,323.6,490.7,323.6z"/>
								</g>
							</g>
						</g>
						<g>
							<g>
								<path class="st9" d="M514.2,379.8h-65.9c-15.3,0-26.8-4.9-34.2-14.6c-7.1-9.3-10.4-22.5-10.4-41.6V186.3
									c0-5.2,4.2-9.5,9.5-9.5c5.2,0,9.5,4.2,9.5,9.5v137.3c0,34.4,12.1,37.3,25.6,37.3h65.9c5.2,0,9.5,4.2,9.5,9.5
									C523.7,375.6,519.4,379.8,514.2,379.8z"/>
							</g>
						</g>
						<g>
							<polygon class="st10" points="408.6,373.2 322.4,373.2 302.5,347.3 302.5,176.8 408.6,176.8 							"/>
						</g>
						<g>
							<path class="st11" d="M399.1,323.6V186.3c0-5.2,4.2-9.5,9.5-9.5c5.2,0,9.5,4.2,9.5,9.5v137.3c0,34.4,12.1,37.3,25.6,37.3h-37
								C401.5,351.9,399.1,339.9,399.1,323.6z"/>
						</g>
						<g>
							<path class="st7" d="M494.1,350.8c-5.1,0-182.4,0-182.4,0s8,12.6,17.3,12.6c9.3,0,184.3,0,184.3,0S507.6,350.8,494.1,350.8z"
								/>
						</g>
						<g>
							<path class="st7" d="M423.4,360.9h68.4h18.7c5.2,0,9.5,4.2,9.5,9.5c0,5.2-4.2,9.5-9.5,9.5h-87.1c-15.3,0-15.8-17.4-16.7-18.9
								H423.4z"/>
						</g>
						<g>
							<g>
								<path class="st7" d="M431,379.8h-93.4c-15.3,0-26.8-4.9-34.2-14.6c-7.1-9.3-10.4-22.5-10.4-41.6V186.3
									c0-5.2,4.2-9.5,9.5-9.5c5.2,0,9.5,4.2,9.5,9.5v137.3c0,34.4,12.1,37.3,25.6,37.3H431c5.2,0,9.5,4.2,9.5,9.5
									C440.5,375.6,436.2,379.8,431,379.8z"/>
							</g>
						</g>
						<g>
							<g>
								<path class="st7" d="M410.2,243.8h-89.2c-1,0-1.9-0.8-1.9-1.9c0-1,0.8-1.9,1.9-1.9h89.2c1,0,1.9,0.8,1.9,1.9
									C412.1,242.9,411.2,243.8,410.2,243.8z"/>
							</g>
						</g>
					</g>
					<g>
						<g>
							<g>
								<path class="st12" d="M442.5,466.8l-3.2-4c2.8-1,11.9-1.3,19.8,0.3L442.5,466.8z"/>
								<polygon class="st12" points="470,457.8 477.9,459 471.4,460.8 								"/>
								<g>
									<path class="st13" d="M466.5,494.4c0.8,1.6,7.1,3.7,7.1,3.7c0.9-1,1.9-2,2.8-2.9c0.9,0.7,2.1,1.8,2.8,3.4
										c0.4,0.9,0.5,1.4,0.7,2.1c1,3.2,3.7,5.2,4.3,5.6c1.8,1.3,3.7,1.5,7.6,2c3.2,0.4,6.3,0.2,9.6,0c5.8-0.5,7.2-3.1,7.2-3.1
										s0.1-3.9,0.1-4.4c0-0.2-0.1-0.3-0.2-0.4c-0.3-0.3-0.7-0.5-0.7-0.5s0.2-1.6-0.5-3c-1.2-2.4-6.1-4-7-4.6
										c-3.3-1.9-7.2-5.8-8.9-9.5c-1.7-3.6-3-10.2-3.1-11c-0.2-3.6,0-11.1-0.4-11.4c-0.4-0.3-5.5-0.6-7.3-0.8
										c-1.8-0.2-2.6,1.1-2.6,1.1c0,0,0,0,0,0l-4-0.7l-2.5-0.5l-0.3-1.3l-1.3-0.5l-0.4,10.3c0,0-1.4,2.9-2.3,5.4
										c-0.9,2.5-0.5,6.4-0.5,6.4s0,0,0,0c0,0-0.2,0.1-0.4,0.2c-0.1,0.1-0.2,0.2-0.2,0.4c0,0.1,0,0.3,0,0.5c0,0,0,0,0,0
										C465.9,485.4,466.3,494,466.5,494.4z"/>
									<path class="st14" d="M472.7,479.2c1.6,1.4,3.6,1.4,3.7-0.6c0.2-2,0.4-14.9,1.7-17.9v0c0,0,0,0,0,0l-6.6-1.2
										c0,0-0.3,11.1-0.5,14.2C470.9,476.9,471.1,477.8,472.7,479.2z"/>
									<path d="M466.5,494.4c0.8,1.6,7.1,3.7,7.1,3.7c0.9-1,1.9-2,2.8-2.9c0.9,0.7,2.1,1.8,2.8,3.4c0.4,0.8,0.4,1.2,0.6,1.8
										c1,3.5,4,5.6,4.3,5.8c1.5,1.1,3.1,1.3,6.2,1.8c3.7,0.7,7.1,0.5,11,0.2c5.8-0.5,7.2-3.1,7.2-3.1s0.1-3.9,0.1-4.4
										c0-0.2-0.1-0.3-0.2-0.4c-0.5,0.7-1.4,1.3-3.1,1.8c-5.3,1.4-12.8,1.2-16.8,0.5c-4-0.7-5.6-1.5-7.6-6.5
										c-2-5.1-5.1-7.8-9.7-10.9c-4.1-2.7-4.7-3.6-4.9-4.8c-0.1,0.1-0.2,0.2-0.2,0.4c0,0.1,0,0.3,0,0.5c0,0,0,0,0,0
										C465.9,485.4,466.3,494,466.5,494.4z"/>
									<path class="st15" d="M466.1,481C466.1,481,466.1,481,466.1,481c0.2,1,0.7,1.5,3,3.1c2.3,1.6,6.2,4,8.8,7.1
										c2.6,3.1,3.3,6.9,4.3,8.2c1.4,1.8,2.8,3,6.4,3.4c3.6,0.4,9.9,0.9,14.9-0.1c5-1,5.2-2,5.2-2c0-0.5-0.9-0.9-0.9-0.9
										s0.1,0.7-0.1,0.9c-0.7,0.7-3.8,1.7-7.7,1.8c-7.2,0.2-13.7-0.5-15.9-2.1c-2.2-1.6-2.7-5.6-5-9c-2.4-3.4-9.1-7.7-11.1-9.2
										c-1.9-1.5-1.3-2.2-1.3-2.2c0,0-0.6,0.2-0.6,0.7C466.1,480.7,466.1,480.9,466.1,481z"/>
								</g>
								<g>
									<path class="st13" d="M438.3,486.9c0,0,1.5,10.4,1.9,12.4c0.4,2,2.5,3.5,2.6,3.6c0,0,0,0,0,0l2.8,0c0,0,1,1.6,1.6,4.3
										c1.3,5.8,5.6,8,11.9,8.5c0.9,0.1,1.9,0.1,2.9,0.1c11.3,0.1,13.3-3.5,13.3-3.5s0.8-4,0.8-4.6c0-0.1,0-0.1,0-0.2
										c0-0.2-0.1-0.3-0.2-0.5c-0.2-0.3-0.5-0.6-0.5-0.6s0.1-0.7,0.3-1.9c0.7-4.1-5.2-7.9-6.7-9.3c-11.8-11-10-19.5-9.9-32.3
										c-3.8-0.9-9.3,0.4-11.7,0.3c-2.4-0.1-3.4,0.5-3.4,0.5c-0.2,0-0.4,0-0.6,0c-1.4-0.1-2.2-0.4-2.7-1c-0.5-0.6-1.3,0.2-1.3,0
										c0.1,0.4,0.3,3,0.4,6.5c0.1,4.2,0.4,5.7-0.8,9.5c-1.2,3.8-0.3,7.5-0.3,7.5l-0.2,0.4L438.3,486.9z"/>
									<path d="M441.1,483.3c0.6,1.4,1.9,3.8,3.2,2.1c1.4-1.8,0.6-5.4,0.4-8.7c-0.3-3.3-0.7-13-0.7-13c-1.8-0.1-2.8-0.4-3.4-1
										c0.1,3,0.3,11.8,0.1,14.6C440.5,481.1,440.5,481.9,441.1,483.3z"/>
									<path d="M438.3,486.9c0,0,0.4,10.3,0.9,12.4c0.4,2,3.5,3.5,3.7,3.6c0,0,0,0,0,0l2.8,0c0,0,1,1.6,1.6,4.3
										c1.3,5.8,5.6,8,11.9,8.5c0.9,0.1,1.9,0.1,2.9,0.1c11.3,0.1,13.3-3.5,13.3-3.5s0.8-4,0.8-4.6c0-0.1,0-0.1,0-0.2
										c0-0.2-0.1-0.3-0.2-0.5c-0.9,1.2-2,2.2-5.9,2.9c0,0-0.1,0-0.1,0c-4.4,0.8-10,1.2-15.5-0.2c-3.3-0.8-5.1-2.7-6-5.2
										c-1-2.5-4.2-9.8-7.6-14.9c-0.9-1.3-1.6-2.3-2.2-3.1L438.3,486.9z"/>
									<path class="st15" d="M438.3,486.9c0,0,1,1.1,3,4.3c2,3.2,5.2,9.5,6.2,12.1c0.9,2.7,2.1,5.2,4.6,6.2
										c4.6,1.9,11.8,1.8,15.4,1.3c7.6-1,8.6-3.3,8.6-3.3l0,0c-0.1-0.5-0.7-1-0.7-1c-0.2,1.2-0.3,1.1-0.8,1.4
										c-2.4,1.5-7.6,2.3-13.7,2.2c-6.1-0.1-10.8-1.1-12.4-5.6c-1.7-4.5-3.8-8.7-5.3-11.4c-1.5-2.6-4.6-6.9-4.6-6.9L438.3,486.9z"
										/>
								</g>
							</g>
							<path class="st16" d="M508.7,476.6c-4.6,3.9-19.6,5.8-36.3,6.1c-7.8,0.1-16-0.1-23.7-0.6h0c-0.2,0-0.3,0-0.5,0h0
								c-0.3,0-0.5,0-0.8-0.1c-0.1,0-0.2,0-0.3,0c-2.1-0.2-4.2-0.3-6.2-0.5c-5.7-0.6-10.8-1.3-15-2.3c-1.6-0.3-3-0.7-4.2-1.1
								c-0.5-0.2-0.9-0.3-1.4-0.5h0c-2.4-0.9-4-1.8-4.6-2.9c-2,0.2-4.1,0.1-6.2-0.1c-6.8-0.8-13.6-3.7-15.4-6
								c4.7-27.1,9.9-54.6,15.7-82.4c0.2-1,0.4-2.1,0.4-2.1c1.5-7.2,2.6-12.4,4.3-19.1c0.4-1.4,0.4-1.4,0.4-1.5
								c0.4-7.1-21.7-14.2-45-19.8c25-14.5,50-28.9,74.9-43.4c6.1-0.4,17.3-0.4,29.4,5c21.9,9.8,32,29.5,33.2,36.2
								c2.2,12,4,24.9,5.1,38.7C515.7,418.1,512.9,451,508.7,476.6z"/>
						</g>
						<g>
							<g>
								<g class="st17">
									<path class="st18" d="M400,171.6c0.2,0,0.3-0.1,0.4-0.2c0.2-0.2,0.2-0.6-0.1-0.8c-2.4-2.1-3.9-1.9-6.2-1.6
										c-3,0.4-7.5,0.9-18.1-3.1c-0.3-0.1-0.6,0-0.7,0.3c-0.1,0.3,0,0.6,0.3,0.7c10.9,4.1,15.6,3.5,18.7,3.1
										c2.2-0.3,3.3-0.4,5.3,1.3C399.8,171.5,399.9,171.6,400,171.6z"/>
								</g>
								<g class="st17">
									<path class="st18" d="M412.4,171.4c2.1,0,5-0.6,9.2-3c0.3-0.2,0.4-0.5,0.2-0.8c-0.2-0.3-0.5-0.4-0.8-0.2
										c-6.9,3.9-9.7,3-11.9,2.2c-1.6-0.6-3.2-1.1-5.5,0.7c-0.3,0.2-0.3,0.6-0.1,0.8c0.2,0.3,0.6,0.3,0.8,0.1
										c1.8-1.4,2.9-1,4.4-0.5C409.7,171,410.9,171.3,412.4,171.4z"/>
								</g>
								<path class="st16" d="M366.4,256.2c0.4,7.7-2.9,13.1-3.5,13.9c-0.4,0.6-0.9,1.2-1.4,1.8c-0.1,0.2-0.2,0.3-0.3,0.5
									c-0.4,0.5-0.7,0.9-1.1,1.4c-0.2,0.3-0.5,0.6-0.7,0.9c-0.1,0.2-0.2,0.3-0.3,0.5c-0.3,0.5-0.7,0.9-1,1.4
									c-0.5,0.7-1,1.3-1.4,1.9c-0.1,0.2-0.3,0.4-0.4,0.6c-0.1,0.1-0.2,0.2-0.2,0.3c0,0-0.1,0.1-0.1,0.2c-0.1,0.1-0.1,0.2-0.2,0.3
									c-0.2,0.3-0.5,0.7-0.6,0.9c-0.1,0.1-0.1,0.1-0.1,0.2c-0.2,0.3-0.3,0.5-0.3,0.5c0.6,0.5,1.2,1,1.8,1.5
									c0.2,0.2,0.4,0.3,0.6,0.5c0.6,0.5,1.2,1,1.8,1.5c0.3,0.2,0.6,0.5,0.9,0.7c1.6,1.3,3.2,2.4,4.7,3.5c0.2,0.2,0.4,0.3,0.6,0.4
									c0.2,0.2,0.5,0.3,0.7,0.5c0.3,0.2,0.6,0.4,0.9,0.6c0.6,0.4,1.2,0.8,1.8,1.2c0.2,0.1,0.3,0.2,0.5,0.3
									c0.2,0.1,0.5,0.3,0.7,0.4c0.3,0.2,0.6,0.4,0.8,0.5c0,0,0.1,0.1,0.1,0.1l0,0c12.6,7.9,24.1,11.5,34.4,11.6
									c7.6,0.1,15.1-2.9,20.5-5.8c5-2.7,8.2-5.2,8.2-5.2c-0.9-4.6-2.2-12.4-4.3-20.8c-2.1-8.5,1.1-16.7,2.6-23
									c0.3-1.4,0.5-2.2,0.6-3c0.2-2.4,0.1-4.2,0.1-4.7c-0.3-3.1,0.5-8.7,1.6-16.1c1.3-9,1.9-10.2,3.4-20.5c0.3-2.2,0.5-3.9,1-7.1
									c1.2-9,2.3-10.3,2.8-17.1c0.2-3.3,0.2-6-1.2-8.7c-0.8-1.7-1.9-2.7-2.7-3.6c0,0-3.5-3.6-9.5-5.6c0,0,0,0-0.1,0
									c-0.5-0.2-2.6-0.9-4.8-1.8c-0.7-0.3-1.4-0.6-2.1-0.9c-0.9-0.4-1.8-0.8-2.7-1.3c-3.3-1.6-6.7-3.4-9-5.2
									c-0.7-0.5-1.3-1.1-1.7-1.5c-0.8-0.8-1.2-1.5-1.2-2.2c0-3.2,0.3-19.9,0.3-19.9l-27.5-7.8c0,0,0.6,15-2.3,20.6
									c-2.9,5.6-4.2,7-11.4,11.5c-5,3.1-10,6-12.7,7.5c-0.8,0.4-1.6,0.7-2.3,1c-1.6,0.7-6.6,3.2-7.6,3.7
									c-13.2,7.3,5.7,53.1,9,58.4c0,0,11.5,14.3,14.2,27.2C366.3,254.4,366.4,256,366.4,256.2z"/>
							</g>
							<path class="st16" d="M344.2,209.8c0.4,0.7,0.8,1.3,1.2,2C344.8,210.7,344.3,210,344.2,209.8z"/>
							<path class="st16" d="M346.5,213.5c0,0-0.4-1.4-1-1.8c0,0,0,0,0,0c0,0,0,0,0,0c0.2,0.3,0.5,0.7,0.8,1.1c0,0,0,0,0,0
								c1.3,1.8,3.2,3.8,5.2,4.4c6.2,2.1,14.1-24.4,14.7-28.3c0.6-4.1,0.7-8.3,0.2-12.4c-0.8-6.5-3-12.8-6.7-18.3
								c-0.4-0.6-0.8-1.1-1.2-1.7c0,0,3.9-2.3,3.9-2.3l3.6,0.2h0l46.9,2.1l0.7,0l5,1.8c0.3,0.4,0.7,0.8,1,1.2
								c0.1,0.2,0.3,0.3,0.4,0.5v0c1.7,2.2,3.2,4.5,4.6,6.8c1.6,2.7,3,5.5,4.2,8.4c3.8,9,5.8,18.6,6.3,28.4
								c0.4,6.4,0.1,12.8-0.6,19.1c0,0.2,0,0.3-0.1,0.5c-0.4,3.9-0.9,7.8-1.2,11.7v0c-0.5,5.2-1,10.3-1.5,15.5c0,0,0,0,0,0
								c-0.5,5.5-0.9,11.1-1.2,16.6c0.2,5.1,0.6,10.7,1.3,16.6c0,0,0,0,0,0c0,0,0,0,0,0c9.8,1.9,25.2,6.3,41,17.1
								c9.5,6.5,16.5,13.5,21.5,19.4c0.2,4.8-0.2,12-4.1,19c-9.6,17.1-32.3,19.6-42.1,20.6c-18.2,2-20.3-4.8-49.5-8.1
								c-28.4-3.3-32.8,1.9-39.9-4.4c-14.8-13.3-9.3-48.7-4.1-66.2c0.1-0.2,0.1-0.3,0.1-0.4v0c0.4-1.2,0.8-2.4,1.2-3.6
								c2.4-6.6,4.5-13.2,4.4-20.4c-0.1-7.5-2-15.1-4.3-22.1c-0.9-2.7-1.7-4.9-2.2-6C349.8,218.7,346.8,215.3,346.5,213.5z"/>
							<g>
								<g>
									<path class="st16" d="M404.4,145.8l4.8,0.1c7.7,0.1,14-6,14.1-13.7l0.1-8.6l-18.7-0.3L404.4,145.8z"/>
									<g>
										<polygon class="st19" points="425.5,103.4 423.6,103.4 422.6,123.1 424.5,123.1 										"/>
										<path class="st20" d="M368.1,100.3c0.2,3.3,0.9,6.7,2.1,10.2c0.3,0.8,0.6,1.6,1,2.4l10.2,13.2c0,0,2.1,4.2,3.7,5.8
											c0.8,0.9,18.1,12.6,22,12.8c0.5,0,1,0,1.5,0l0,0c2.8-0.1,4.1-1,4.9-1.8c0.3-0.4,1.2-2.9,3.9-6.8c5.7-8,6.7-16.9,6.6-22.3
											c0-1.8-0.1-3.2-0.2-4.1c0,0,1.3-4.6,1.4-6.6c0-0.1,0-0.2,0-0.3c0-0.6,0.1-3.6-0.6-7.6c-1.6-9.3-7.3-24-27.2-27.1
											C384.1,66,367,80.5,368.1,100.3z"/>
										<g>
											<path class="st21" d="M411.5,129.5c0.6,0.1,1.1,0.3,1.4,0.5c0.3-0.2,0.5-0.3,0.7-0.4c0.1,0,0.3-0.1,0.5,0
												c0.4,0,0.7,0.3,1.4,1c0.2,0.2,0.5,0.4,0.8,0.8c-0.5,0.2-1.2,0.4-2.1,0.6c-3.1,0.7-5.6,0.3-6.9,0.1
												c-0.7-0.1-1.7-0.3-2.9-0.7c1.3-0.1,2.3-0.4,3-0.7C409.2,130.1,410.1,129.3,411.5,129.5z"/>
											<path class="st21" d="M414.3,131.7c0.7-0.1,1.4-0.2,2.1-0.4c-0.2,0.5-0.8,1.5-2,2.2c-0.9,0.5-1.6,0.5-2.4,0.6
												c-2.6,0.2-4.6-0.8-5.4-1.3c-0.9-0.5-1.6-1-2-1.5c0.9,0.1,1.9,0.3,2.9,0.3C409.9,131.9,412.7,131.8,414.3,131.7z"/>
										</g>
										<g>
											<path class="st22" d="M405.7,111.9c-0.6,0.5-2.6,2.2-5.6,2.2c-1.5,0-2.7-0.4-3.4-0.7l-2.7-1.6c-0.1-0.5-0.2-0.9-0.3-1.4
												c0.8-0.7,2-1.7,3.7-2.2c1-0.3,3.1-1,5,0c0.7,0.4,1.2,0.9,1.6,1.3C404.8,110.4,405.3,111.3,405.7,111.9z"/>
											<g>
												<defs>
													<path id="SVGID_1_" d="M405.7,111.9c-0.6,0.5-2.6,2.2-5.6,2.2c-1.5,0-2.7-0.4-3.4-0.7l-2.7-1.6
														c-0.1-0.5-0.2-0.9-0.3-1.4c0.8-0.7,2-1.7,3.7-2.2c1-0.3,3.1-1,5,0c0.7,0.4,1.2,0.9,1.6,1.3
														C404.8,110.4,405.3,111.3,405.7,111.9z"/>
												</defs>
												<clipPath id="SVGID_00000113320186171335187000000008819355000758393240_">
													<use xlink:href="#SVGID_1_"  style="overflow:visible;"/>
												</clipPath>
												<g style="clip-path:url(#SVGID_00000113320186171335187000000008819355000758393240_);">
													<path class="st24" d="M403.3,111c0.1,1.7-1.1,3.4-2.8,3.4c-1.7,0-3-1.7-2.9-3.4c0.1-1.4,1.2-2.9,2.8-3
														C402,108,403.2,109.5,403.3,111z"/>
													<path d="M402.2,111.3c0,0.9-0.6,1.7-1.3,1.7c-0.7,0-1.3-0.7-1.3-1.7c0-0.9,0.6-1.7,1.3-1.7
														C401.7,109.7,402.2,110.4,402.2,111.3z"/>
													<path class="st22" d="M400.5,110.3c0,0.4-0.3,0.8-0.6,0.8c-0.3,0-0.6-0.3-0.6-0.8c0-0.4,0.3-0.8,0.6-0.8
														C400.2,109.5,400.5,109.9,400.5,110.3z"/>
												</g>
											</g>
											<path d="M405.7,112c0.1-0.1-0.9-2.8-3.4-4c-1.8-0.9-3.5-0.6-4.3-0.5c-2.6,0.4-4.2,1.9-4.9,2.5c-0.6,0-1.1,0-1.7,0
												c0.4,0.4,0.9,0.9,1.6,1.5c1.1,1,2,1.7,3.3,2.2c0.6,0.2,1.4,0.5,2.6,0.5c-0.5-0.1-1-0.2-1.6-0.5c-1.7-0.7-2.8-1.9-3.4-2.6
												c0.6-0.7,1.5-1.5,2.9-2.1c2.5-1,5.3-0.3,7,1C405.1,110.9,405.6,112,405.7,112z"/>
										</g>
										<path d="M407.9,104.3c0.1,0.2,0.3,0.8,0.1,1.2c-0.3,0.6-1.5,0.8-2.6,0.2c-0.7-0.2-1.7-0.5-2.9-0.9
											c-2.8-0.8-4.5-1.2-6.1-1.3c-1.4-0.1-3.8,0.1-6.9,1.8c1.1-1,3.6-2.9,7.3-3.6C402.5,100.8,406.9,103.6,407.9,104.3z"/>
										<g>
											<path class="st22" d="M414.7,112.5c0.3,0.3,2.4,2.4,5.3,2c0.4-0.1,1.6-0.2,2.7-1.1c1.3-1.1,1.7-2.5,1.8-2.9
												c-0.3-0.4-1.4-1.7-3.4-2c-2.4-0.4-4.1,1-4.5,1.3C415.4,110.7,414.9,111.9,414.7,112.5z"/>
											<g>
												<defs>
													<path id="SVGID_00000138547047408757616130000014688047789045406620_" d="M414.7,112.5c0.3,0.3,2.1,2.2,4.7,2.1
														c0.4,0,1.9-0.1,3.2-1.2c0.4-0.3,1.3-1.7,1.8-2.9c0.5-1.5-3.2-2-3.4-2c-2.1-0.3-3.8,0.9-4.3,1.3
														C415.5,110.7,414.9,111.9,414.7,112.5z"/>
												</defs>
												<clipPath id="SVGID_00000028303757556681886920000012291963913706808979_">
													<use xlink:href="#SVGID_00000138547047408757616130000014688047789045406620_"  style="overflow:visible;"/>
												</clipPath>
												<g style="clip-path:url(#SVGID_00000028303757556681886920000012291963913706808979_);">
													<path class="st24" d="M421.9,111.9c-0.2,1.7-1.5,2.9-2.8,2.7c-1.3-0.2-2.2-1.8-1.9-3.5c0.2-1.7,1.5-2.9,2.8-2.7
														C421.3,108.6,422.1,110.1,421.9,111.9z"/>
													<path d="M421.3,111.8c-0.1,1-0.8,1.7-1.5,1.6c-0.7-0.1-1.1-1-1-2c0.1-1,0.8-1.7,1.5-1.6
														C420.9,109.9,421.4,110.8,421.3,111.8z"/>
													<path class="st22" d="M419.8,110.5c-0.1,0.4-0.3,0.6-0.6,0.6c-0.3-0.1-0.4-0.4-0.4-0.8c0.1-0.4,0.3-0.6,0.6-0.6
														C419.7,109.8,419.9,110.2,419.8,110.5z"/>
												</g>
											</g>
											<path d="M417.8,108.6c2.5-1.3,4.9-0.2,5.4,0c0.7,0.3,1.2,0.7,1.5,0.9c0.4,0.1,0.8,0.2,1.1,0.3c-0.1,0.2-0.2,0.5-0.4,0.8
												c-0.1,0.2-0.9,1.7-1.9,2.5c-1.5,1.4-3.6,1.4-4.3,1.4c0.4,0,2-0.3,3.3-1.7c0.9-1,1.1-2,1.2-2.5c-0.4-0.4-1.3-1.2-2.8-1.5
												c-1-0.2-1.8,0.1-2.3,0.2c-2.4,0.7-3.6,2.7-4,3.4C414.8,112.1,415.5,109.7,417.8,108.6z"/>
										</g>
										<path d="M417.6,106.4c-0.7,0-1.5-0.3-1.6-0.8c0-0.3,0.3-0.6,0.4-0.8c1.8-1.6,3.3-2.2,3.3-2.2c2.2-0.8,4.2-0.9,5.6-0.8
											l0,1.7c-3.3,0.6-4.9,1.4-5.8,2.1C419.2,105.8,418.5,106.4,417.6,106.4z"/>
										<g>
											<g>
												<path class="st26" d="M410.1,125.3c0,0,0.2,0.8,0.9,1.2c0.4,0.2,0.8,0.4,1.3,0.4c0.2,0,0.3,0,0.5,0c0.9,0,1.9-0.6,2-1.4
													c0-0.1,0-0.2,0-0.4c-0.1,0.1-0.3,0.2-0.5,0.4c0,0-0.4,0.2-0.9,0.3C412.8,126,411.6,125.9,410.1,125.3z"/>
											</g>
										</g>
									</g>
									
										<linearGradient id="SVGID_00000088854793437281721580000016488645804371967396_" gradientUnits="userSpaceOnUse" x1="423.0184" y1="161.807" x2="423.0205" y2="161.807" gradientTransform="matrix(0.9999 1.445203e-02 -1.445203e-02 0.9999 4.2293 -66.6904)">
										<stop  offset="0" style="stop-color:#6D3138"/>
										<stop  offset="1" style="stop-color:#600C31"/>
									</linearGradient>
									<path style="fill:url(#SVGID_00000088854793437281721580000016488645804371967396_);" d="M424.9,101.2
										C424.9,101.2,424.9,101.2,424.9,101.2L424.9,101.2L424.9,101.2z"/>
									<path class="st16" d="M423.9,92.5c-0.3-1.3-0.7-2.5-1-3.6c-1.9-5.7-7.2-9.7-13.2-9.9c-5.1-0.2-10.6,1-14.8,4.6
										c-7.1,6.1-10.5,13.5-13.9,31.2L379.9,96l6.4-23.1l16-4.6l11.7,3.6l5.7,5.3c2.4,5.4,2.5,5.8,3.1,7.8c0.6,2,0.8,4.1,0.8,4.1
										l0.2,1.8l0,0.3l0,0.1L423.9,92.5z"/>
									<path class="st28" d="M348.7,163.5c1,4.5,7.4,5.8,20.7,15.3c0,0,0,0,0,0c14,7,28.3,13.6,42.9,13.8c0.8,0,1.6-0.1,2.3-0.3
										c7.5-2.4,9.5-17.2,8.9-21.4c-0.6-4-3.3-8-3.6-9.7c-1.1-5.9,2.3-6.5,1-9.3s-2.1-4.9-1.1-7.5c1-2.6,3.5-5.8,5.1-11.4
										c0.5-3,1.7-6.4,2.1-9.7c1.5-11.5-1.8-21.8-1.8-21.9c0.1,0.8-0.6,5.1-0.7,12.2c-0.1,7.8-5.2,20.8-6.1,23.8
										c-0.6,1.9-2.2,4.3-5.1,5.7c-0.1,0-0.6,0.7-1.9,1.2c-0.2,0.1-0.7,0.2-1.2,0.2c-0.7,0.1-1.6,0.2-2.5,0.1
										c-1.9,0-4.3-1.2-7.1-2.9c-2.8-1.7-6-3.8-9.5-5.9c-6.9-4.1-7.5-9.7-7.8-10.7c-2.6-10.7-1.4-33.5,3.4-42.9
										c4.8-9.5,14.5-13.5,25.5-9.5c9.5,3.4,11.5,17.6,11.7,18.7c-0.2-3.2-0.6-7.8-1.8-10.8c-2.3-5.7-7.3-10.5-14.8-12.6
										c-6.5-1.8-12.1-2.3-16.8-1.9c-24.7,2.3-26,31.2-26.7,39c-0.5,6.3,1.6,9.6,1.6,9.6l-0.2,5.8l-0.1,3l1.1,9.2l1.7,3.7
										c-0.1,0-2.2-0.8-2.8,0c-0.1,0.2-0.5,0.5-0.9,1.1c-1.6,2-4.7,6-5.8,7.8c-0.2,0.3-0.4,0.7-0.5,0.9l0,0
										c-0.1,0.2-1.6,4.9-3.9,7.6C351.7,156.4,347.7,158.9,348.7,163.5z"/>
									<g>
										<path class="st29" d="M420,142.7c-2.6,4.9-7.6,10.1-16.7,9.5c0,0,8.1,2.5,12-0.7C419.2,148.4,420.4,142,420,142.7z"/>
										<path class="st29" d="M414.8,158.9c-11.7,10.3-23.6,14.2-37.1,1.5c0,0,6.9,10.5,16.9,10.5
											C404.6,170.9,412,162.5,414.8,158.9z"/>
										<path class="st29" d="M410.1,144.4c-1.7,0.8-4.3,1.5-7.7,1.5c-4.8,0.1-8.8-3.7-8.9-3.8c0.1,0.1,6.8,3.7,14.2,2.5l0,0
											C408.5,144.6,409.4,144.5,410.1,144.4z"/>
										<path class="st29" d="M378.9,105.7c1.2,10.2,3.6,21.7,3.6,21.7s-5.6-12.8-6-21.8S377.7,95.5,378.9,105.7z"/>
									</g>
								</g>
								<path class="st29" d="M420.6,173.7c-2.6,9.1-5.5,16.3-17.4,14.7s-19.7-6.3-19.7-6.3s19.3,6.8,26.7,3.9
									C417.6,183.2,423.2,164.6,420.6,173.7z"/>
							</g>
							<g>
								<g>
									<polygon class="st30" points="440.2,172.6 440.2,172.6 440.2,172.6 440.2,172.6 									"/>
									<path class="st30" d="M440.2,172.7C440.2,172.7,440.2,172.7,440.2,172.7C440.2,172.7,440.2,172.7,440.2,172.7z"/>
									
										<linearGradient id="SVGID_00000047026070230734396800000005617120755285886385_" gradientUnits="userSpaceOnUse" x1="422.2159" y1="233.0346" x2="500.1146" y2="233.0346" gradientTransform="matrix(0.9999 1.445203e-02 -1.445203e-02 0.9999 -2.0709 -66.7814)">
										<stop  offset="0" style="stop-color:#353541"/>
										<stop  offset="0.2113" style="stop-color:#2E2D37"/>
										<stop  offset="0.6439" style="stop-color:#242228"/>
										<stop  offset="1" style="stop-color:#201E23"/>
									</linearGradient>
									<path style="fill:url(#SVGID_00000047026070230734396800000005617120755285886385_);" d="M440.2,172.7
										C440.2,172.7,440.2,172.7,440.2,172.7C440.2,172.7,440.2,172.7,440.2,172.7z"/>
									
										<linearGradient id="SVGID_00000178206536608996974940000014837934446183134378_" gradientUnits="userSpaceOnUse" x1="422.2005" y1="232.9954" x2="467.8952" y2="232.9954" gradientTransform="matrix(0.9999 1.445203e-02 -1.445203e-02 0.9999 -2.0709 -66.7814)">
										<stop  offset="0" style="stop-color:#353541"/>
										<stop  offset="0.2113" style="stop-color:#2E2D37"/>
										<stop  offset="0.6439" style="stop-color:#242228"/>
										<stop  offset="1" style="stop-color:#201E23"/>
									</linearGradient>
									<path style="fill:url(#SVGID_00000178206536608996974940000014837934446183134378_);" d="M440.2,172.6
										C440.2,172.6,440.2,172.6,440.2,172.6C440.2,172.6,440.2,172.6,440.2,172.6z"/>
									
										<linearGradient id="SVGID_00000155869510193700968130000014582019842785816968_" gradientUnits="userSpaceOnUse" x1="422.1359" y1="233.0265" x2="504.4212" y2="233.0265" gradientTransform="matrix(0.9999 1.445203e-02 -1.445203e-02 0.9999 -2.0709 -66.7814)">
										<stop  offset="0" style="stop-color:#353541"/>
										<stop  offset="0.2113" style="stop-color:#2E2D37"/>
										<stop  offset="0.6439" style="stop-color:#242228"/>
										<stop  offset="1" style="stop-color:#201E23"/>
									</linearGradient>
									<path style="fill:url(#SVGID_00000155869510193700968130000014582019842785816968_);" d="M440.2,172.7
										C440.2,172.7,440.2,172.7,440.2,172.7C440.2,172.7,440.2,172.7,440.2,172.7C440.2,172.6,440.2,172.6,440.2,172.7
										C440.2,172.7,440.2,172.7,440.2,172.7z"/>
									
										<linearGradient id="SVGID_00000130627472180185775360000010724095023650228115_" gradientUnits="userSpaceOnUse" x1="440.6427" y1="232.9866" x2="450.652" y2="232.9866" gradientTransform="matrix(0.9999 1.445203e-02 -1.445203e-02 0.9999 -2.0709 -66.7814)">
										<stop  offset="0" style="stop-color:#353541"/>
										<stop  offset="0.2113" style="stop-color:#2E2D37"/>
										<stop  offset="0.6439" style="stop-color:#242228"/>
										<stop  offset="1" style="stop-color:#201E23"/>
									</linearGradient>
									<polygon style="fill:url(#SVGID_00000130627472180185775360000010724095023650228115_);" points="440.2,172.6 440.2,172.6 
										440.2,172.6 									"/>
									
										<linearGradient id="SVGID_00000147188071805686709610000016416618791721237674_" gradientUnits="userSpaceOnUse" x1="422.2277" y1="232.9804" x2="450.7716" y2="232.9804" gradientTransform="matrix(0.9999 1.445203e-02 -1.445203e-02 0.9999 -2.0709 -66.7814)">
										<stop  offset="0" style="stop-color:#353541"/>
										<stop  offset="0.2113" style="stop-color:#2E2D37"/>
										<stop  offset="0.6439" style="stop-color:#242228"/>
										<stop  offset="1" style="stop-color:#201E23"/>
									</linearGradient>
									<path style="fill:url(#SVGID_00000147188071805686709610000016416618791721237674_);" d="M440.2,172.6
										C440.2,172.6,440.2,172.6,440.2,172.6L440.2,172.6C440.2,172.6,440.2,172.6,440.2,172.6z"/>
									
										<linearGradient id="SVGID_00000155847280794832025320000005103360508409816455_" gradientUnits="userSpaceOnUse" x1="422.1566" y1="233.0026" x2="504.3695" y2="233.0026" gradientTransform="matrix(0.9999 1.445203e-02 -1.445203e-02 0.9999 -2.0709 -66.7814)">
										<stop  offset="0" style="stop-color:#353541"/>
										<stop  offset="0.2113" style="stop-color:#2E2D37"/>
										<stop  offset="0.6439" style="stop-color:#242228"/>
										<stop  offset="1" style="stop-color:#201E23"/>
									</linearGradient>
									<path style="fill:url(#SVGID_00000155847280794832025320000005103360508409816455_);" d="M440.2,172.7
										C440.2,172.6,440.2,172.6,440.2,172.7C440.2,172.6,440.2,172.6,440.2,172.7C440.2,172.6,440.2,172.6,440.2,172.7
										C440.2,172.6,440.2,172.6,440.2,172.7z"/>
								</g>
							</g>
						</g>
						<path class="st16" d="M467.3,302.6"/>
					</g>
				</g>
				<g>
					<g>
						<path class="st37" d="M521.4,243.5c0,0,1.9,1.3,5.7,0.3c2.5-0.7,8.2-3.4,13.4-4.3c1.8-0.3,0.3-3.3-3.3-2.7
							c-1.8,0.3-4.9,0.4-5.7,0.4c-2.2,0.1-4.3-3.2-4.3-3.2L521.4,243.5z"/>
					</g>
					<g>
						<path class="st38" d="M518.6,243.4c2.9,0.7,5.3,1.8,9-1.2c2.6-2.1,5.1-4.4,7-6.3c2.5,0.3,5.9,0.9,6.4,1.5c0.8,1,2.9,4,4.1,5.6
							c1.2,1.7,2.9,0.8,2.4-0.4c-0.5-1.2-2.4-5.7-3.4-6.7c-1-0.9-2.8-2.1-2.8-2.1s4.4,1,5.7,1.7c1.3,0.7,5.4,4.6,6.3,5.1
							c0.9,0.6,2.7-0.6,1.7-2.3c1.6,0.8,2.8-1.4,1.7-2.5c-1-1.1-4.3-5.1-5.9-6.1c-0.9-0.6-3.6-1-4.8-1.5c-0.9-0.4-0.6-0.5-0.1-0.5
							c2.7,0.1,4.6,0.6,8,0.5c2.8-0.1,3.8-2.2,1.2-2.6c-1.2-0.2-6.5-1-10.3-1.4c-2.2-0.2-5.5,1.8-8.4,3.1
							c-4.9,2.3-12.2,5.5-13.2,5.6c-6.8,0.5-12.5,0-12.5,0l-1.2,9.7C509.4,242.7,516.6,242.9,518.6,243.4z"/>
					</g>
					<g>
						<g>
							<path class="st37" d="M542.9,230.5c0,0,1.5,0.4,3.2,0.8l0,0c1.7,0.5,3.4,1,4,1.4l0,0c1.1,0.8,5.1,5.5,5.1,5.5l0,0l0,0
								c0.1,0.1,0.1,0.3,0,0.4l0,0c-0.1,0.1-0.3,0.1-0.4,0l0,0c0,0-1-1.2-2.1-2.5l0,0c-1.1-1.3-2.4-2.6-2.9-3l0,0
								c-0.4-0.3-2.2-0.9-3.9-1.3l0,0c-1.7-0.5-3.2-0.8-3.2-0.8l0,0c-0.1,0-0.2-0.2-0.2-0.3l0,0c0-0.1,0.1-0.2,0.2-0.2l0,0
								C542.8,230.5,542.9,230.5,542.9,230.5L542.9,230.5z"/>
						</g>
					</g>
				</g>
				<g>
					<g>
						<path class="st39" d="M457.8,262.6c0,0,2,1.4,6,0.3c2.6-0.7,8.5-3.5,13.8-4.4c1.9-0.3,0.3-3.4-3.5-2.8
							c-1.8,0.3-5.1,0.4-5.9,0.5c-2.3,0.1-4.5-3.4-4.5-3.4L457.8,262.6z"/>
					</g>
					<g>
						<path class="st20" d="M454.9,262.4c3,0.8,5.5,1.9,9.4-1.3c2.7-2.2,5.2-4.5,7.3-6.5c2.6,0.4,6.1,0.9,6.7,1.6
							c0.8,1,3,4.1,4.2,5.8c1.2,1.7,3,0.9,2.5-0.4c-0.5-1.3-2.4-5.9-3.5-6.9c-1-1-2.9-2.2-2.9-2.2s4.5,1.1,5.9,1.8
							c1.4,0.7,5.6,4.7,6.5,5.3c0.9,0.6,2.8-0.6,1.8-2.3c1.6,0.8,2.9-1.5,1.8-2.6c-1.1-1.2-4.5-5.3-6.2-6.3c-0.9-0.6-3.7-1.1-5-1.6
							c-0.9-0.4-0.6-0.6-0.1-0.5c2.8,0.1,4.7,0.6,8.3,0.5c2.9-0.1,3.9-2.3,1.2-2.7c-1.3-0.2-6.7-1.1-10.7-1.5
							c-2.3-0.2-5.7,1.8-8.7,3.2c-5.1,2.3-12.6,5.7-13.7,5.8c-7,0.5-13,0-13,0l-1.3,10.1C445.3,261.7,452.8,261.9,454.9,262.4z"/>
					</g>
					<g>
						<g>
							<path class="st26" d="M480.1,249.1c0,0,1.6,0.4,3.3,0.8l0,0c1.7,0.5,3.6,1,4.2,1.5l0,0c1.1,0.8,5.3,5.7,5.3,5.7l0,0l0,0
								c0.1,0.1,0.1,0.3,0,0.4l0,0c-0.1,0.1-0.3,0.1-0.4,0l0,0c0,0-1-1.2-2.2-2.5l0,0c-1.2-1.3-2.5-2.7-3-3.1l0,0
								c-0.4-0.3-2.3-0.9-4-1.4l0,0c-1.7-0.5-3.3-0.8-3.3-0.8l0,0c-0.1,0-0.2-0.2-0.2-0.3l0,0c0-0.1,0.1-0.2,0.2-0.2l0,0
								C480,249.1,480,249.1,480.1,249.1L480.1,249.1z"/>
						</g>
					</g>
				</g>
				<g>
					<g>
						<rect x="499.6" y="260.8" class="st40" width="107.4" height="5.5"/>
					</g>
					<g>
						<rect x="459.5" y="260.8" class="st41" width="40.1" height="5.5"/>
					</g>
					<g>
						<g>
							<path class="st40" d="M515.1,191.9h21.1L526,263.3H505c-3.2,0-5.4-2.6-4.9-5.8l8.5-59.9C509,194.5,511.9,191.9,515.1,191.9z"
								/>
						</g>
						<g>
							<path class="st42" d="M608.6,257.5c-0.5,3.2-3.4,5.8-6.6,5.8h-95.2c-3.2,0-5.4-2.6-4.9-5.8l8.5-59.9c0.5-3.2,3.4-5.8,6.6-5.8
								h95.2c3.2,0,5.4,2.6,4.9,5.8L608.6,257.5z"/>
						</g>
						<g>
							<path class="st43" d="M617,198.2l-8.4,59.4c-0.5,3.2-3.4,5.8-6.6,5.8h-95.2c-0.1,0-0.3,0-0.4,0
								C545.7,210,607.4,199.5,617,198.2z"/>
						</g>
						<g>
							<path class="st44" d="M552.4,222.6c-0.7,5.2,2.9,9.4,8,9.4c5.2,0,10-4.2,10.7-9.4c0.7-5.2-2.9-9.4-8-9.4
								C557.9,213.2,553.1,217.4,552.4,222.6z"/>
						</g>
					</g>
					<g>
						<polygon class="st40" points="459.5,262.7 501.6,262.8 499.6,260.8 459.5,260.8 						"/>
					</g>
				</g>
				<g>
					<path class="st1" d="M450.9,250c0.5,1.4,1.6,4.5,0.9,8.4c-0.5,3-1.8,5.1-2.6,6.2c-20.6-0.4-41.2-0.9-62.1-1.5
						c-7.6-0.2-15.2-0.4-22.8-0.7c-4.4-0.1-8.2-3.1-9.5-7.3c-6.1-20.8-12.3-41.7-18.4-62.5c-3.6-11.5-0.6-21.7,4.3-23.9
						c5.5-2.4,16.7,3.5,21.7,17.3c4.5,17,9.1,33.9,13.6,50.9c10.2,2.9,21.4,5.6,33.6,7.9C424.6,247.6,438.4,249.2,450.9,250z"/>
				</g>
				<g>
					<g>
						<g>
							<path class="st7" d="M343.7,374.9c-1.2,0-2.3-0.3-3.4-1c-2.9-1.9-3.8-5.8-2-8.7c0.2-0.2,15.6-24.6,24.4-42.5
								c3.3-6.7,3.7-12.8,1.2-16.9c-2.1-3.4-6.3-5.3-11.7-5.3H294c-3.5,0-6.3-2.8-6.3-6.3c0-3.5,2.8-6.3,6.3-6.3h58.3
								c9.8,0,17.9,4.1,22.4,11.2c4.9,7.9,4.7,18.3-0.6,29.1c-9.1,18.4-24.4,42.6-25,43.6C347.8,373.9,345.8,374.9,343.7,374.9z"/>
						</g>
					</g>
					<g>
						<g>
							<path class="st6" d="M372.7,323.6c-0.1,0-0.2,0-0.3-0.1c-0.3-0.2-0.4-0.5-0.3-0.8c3.5-7.1,3.2-14.8-0.7-21
								c-3.7-5.9-10.1-9.6-16.8-9.6h-22.2c-0.3,0-0.6-0.3-0.6-0.6c0-0.3,0.3-0.6,0.6-0.6h22.2c7.1,0,13.9,3.9,17.8,10.2
								c4.1,6.6,4.4,14.8,0.7,22.3C373.2,323.5,373,323.6,372.7,323.6z"/>
						</g>
					</g>
				</g>
			</g>
			<g>
				<g>
					<path class="st45" d="M261.5,250.5l-75.9,0c-4.4,0-7.9,3.5-7.9,7.9v0c0,4.4,3.5,7.9,7.9,7.9l75.9,0
						C258.3,260.6,257.6,255.3,261.5,250.5z"/>
				</g>
				<g>
					<g>
						<path class="st22" d="M259,264h-73.4c-3,0-5.5-2.5-5.5-5.5c0-3.1,2.5-5.6,5.5-5.6h73.1C257.3,256.2,257.4,259.9,259,264z"/>
					</g>
				</g>
				<g>
					<path class="st46" d="M271,234.7l-75.9,0c-4.4,0-7.9,3.5-7.9,7.9v0c0,4.4,3.5,7.9,7.9,7.9l75.9,0
						C267.8,244.8,267.2,239.5,271,234.7z"/>
				</g>
				<g>
					<g>
						<path class="st22" d="M268.6,248.2h-73.4c-3,0-5.5-2.5-5.5-5.5c0-3.1,2.5-5.6,5.5-5.6h73.1C266.9,240.4,267,244.1,268.6,248.2
							z"/>
					</g>
				</g>
			</g>
			<g>
				<rect x="160.2" y="487.2" class="st47" width="524.4" height="7.6"/>
			</g>
			<g>
				<g>
					<path class="st48" d="M667.2,262.3l-25.2,0.5c-1,0-1.7,0.8-1.7,1.8c0,1,0.8,1.7,1.8,1.7l25.2-0.5c1,0,1.7-0.8,1.7-1.8
						C668.9,263.1,668.1,262.3,667.2,262.3z"/>
				</g>
				<g>
					<path class="st49" d="M673,261.8l-8.4,0.2c-0.3,0-0.6,1-0.5,2.2s0.3,2.1,0.6,2.1l8.4-0.2c0.3,0,0.6-1,0.5-2.2
						C673.6,262.7,673.3,261.8,673,261.8z"/>
				</g>
				<g>
					<path class="st49" d="M641.7,263l-2.4,0c-0.1,0-0.1,0.7-0.1,1.6c0,0.9,0.1,1.6,0.2,1.6l2.4,0c0.1,0,0.1-0.7,0.1-1.6
						C641.9,263.7,641.8,263,641.7,263z"/>
				</g>
				<g>
					<path class="st49" d="M640.1,263.6l-1.5,0c-0.1,0-0.1,0.5-0.1,1c0,0.6,0.1,1,0.1,1l1.5,0c0.1,0,0.1-0.5,0.1-1
						C640.2,264.1,640.2,263.6,640.1,263.6z"/>
				</g>
			</g>
		</g>
		<g>
			<rect x="160.2" y="278.3" class="st50" width="15.4" height="252.4"/>
		</g>
		<g>
			<rect x="669.2" y="278.3" class="st50" width="15.4" height="252.4"/>
		</g>
		<g>
			<g>
				<path class="st47" d="M153.4,284h554c4.9,0,8.9-4,8.9-8.9l0,0c0-4.9-4-8.9-8.9-8.9h-554c-4.9,0-8.9,4-8.9,8.9l0,0
					C144.5,280.1,148.5,284,153.4,284z"/>
			</g>
		</g>
		<g>
			<rect x="44.7" y="527.2" class="st2" width="771.3" height="7.1"/>
		</g>
	</g>
</g>
</svg>
