<?xml version="1.0" encoding="utf-8"?>
<!-- Generator: Adobe Illustrator 26.0.1, SVG Export Plug-In . SVG Version: 6.00 Build 0)  -->
<svg version="1.1" id="Layer_1" xmlns="http://www.w3.org/2000/svg" xmlns:xlink="http://www.w3.org/1999/xlink" x="0px" y="0px"
	 viewBox="0 0 404 531.2" style="enable-background:new 0 0 404 531.2;" xml:space="preserve">
<style type="text/css">
	.st0{fill:#FFFFFF;}
	.st1{fill:#BDDEEF;}
	.st2{fill:none;stroke:#FFFFFF;stroke-width:1.515;stroke-miterlimit:10;}
	.st3{fill:#C098EA;}
	.st4{fill:#4C6580;}
	.st5{fill:#890804;}
	.st6{fill:#CC936D;}
	.st7{fill:#101010;}
	.st8{fill:#C6C6C6;}
	.st9{fill:#AF7151;}
	.st10{fill:#513328;}
	.st11{fill:#C48C66;}
	.st12{fill:#AF1919;}
</style>
<path class="st0" d="M407.6,106.7c-5.3,8.9-13.7,14.7-23.2,14.7c-15.9,0-28.8-16.3-28.8-36.4c0-7,1.6-13.6,4.3-19.2
	C360,65.9,405.2,104.1,407.6,106.7"/>
<path class="st0" d="M-77.6,299.6c4.4-22.4,13.3-53.2,30.2-72.7c4.5-1.5,9.2-2.8,13.9-3.8c16.3-3.6,32.8-4.2,44.8-1.2
	c18.4,4.7,21.3-11.7,37.8-11.6s22.7,7.4,22.7,7.4"/>
<path class="st0" d="M-71.8,298.4c31.1-35.1,66.3-17.5,83.1-4.1c0,0-27,7.8-42.7,21.3c-21.2,16.1-27-5.7-50.3,11.7"/>
<path class="st0" d="M71.8,217.8c-30.3-4.7-15.7,43.6-50.4,36.1c-16.5-2.8-21.3-1.3-30.1,8.6c-29.5,18.7-36.5-17.5-63.2,35.9"/>
<path class="st0" d="M475.4,271.7c0-0.4,0-0.8,0-1.2c-5.7,2.8-11,4.6-15.8,5.3c-3.1,0.5-12.9,1.4-25,6.2
	c-13.9,5.6-24.4,13.6-29.8,17.9c-6.1,4.8-10.9,9.3-14.2,12.6c0,0-2.4-20.6,9.6-40s26-23.3,35.4-34.5c8-9.6,6.5-16.9,12.3-27.6
	c-7.6,4.6-16.4,8.5-26.6,7.5c-21.8-2.1-31.9-18.1-31.9-18.1s15.3-2.7,23.4-11.2s14.8-27,30.5-31.5c0.2-0.1,0.4-0.1,0.6-0.1
	C443.9,156.9,477.3,232,475.4,271.7"/>
<path class="st0" d="M156.1,484.1c-3,2.1-5.7,4.6-8.7,6.7c-2.3,1.6-4.7,3-7.1,4.4c2.1-2,4.1-4.2,5.9-6.5l-0.3-0.2
	c-2.5,1.9-4.4,4.6-6.5,7v0.2c-1,0.6-2,1.1-3.1,1.7c-4.6,2.5-9.5,4.7-14.2,7.1c2.9-2.4,5.3-5.3,8.4-7.6c0.2-0.1,0-0.4-0.2-0.3
	c-3.9,1.8-6.7,5.7-9.7,8.6l-0.1,0.2c-1.8,0.9-3.6,1.9-5.3,3c-0.3,0.2,0,0.6,0.3,0.5c7.6-3.5,15.1-7.1,22.5-11
	c6.3-3.3,14.1-7.3,18.4-13.2C156.6,484.3,156.3,484,156.1,484.1"/>
<path class="st0" d="M135.7,460.1c-3.3,4.8-5.6,10.5-8.4,15.6c-3.3,5.9-7.1,11.4-11.4,16.6l0.2,0.2c4.5-4.4,8-9.8,11.1-15.2
	c3.2-5.4,6.6-11.2,8.8-17C136.1,460.1,135.8,460,135.7,460.1"/>
<path class="st0" d="M134.1,436.5c-4.8,9.1-8.5,18.6-13.9,27.4l0.2,0.2c6.4-7.8,10.2-18.2,14-27.4L134.1,436.5z"/>
<path class="st0" d="M142.2,498.8c-2,0.4-3.9,1.1-5.8,1.8c-2.1,0.7-4.4,1.2-6.5,1.9v0.3c4.1-0.1,8.6-2.3,12.4-3.8L142.2,498.8z"/>
<path class="st0" d="M155.6,488c-1.2,0.5-2.3,1.2-3.4,1.8c-1.2,0.6-2.4,1.2-3.6,1.9c-0.2,0.1-0.1,0.4,0.1,0.3c2.3-0.9,5.5-1.9,7-3.8
	L155.6,488z"/>
<path class="st0" d="M286.8,475c-2.6-1.8-5.4-3.1-8-4.9c-2.9-2.1-5.5-4.6-8-7.2c-0.2-0.3-0.6,0.1-0.4,0.4c4.1,4.9,9.9,10.4,16.2,12
	L286.8,475z"/>
<path class="st0" d="M245.2,424.2c2.1,4.6,4.3,9.1,7,13.5c-0.2-7.1-0.6-14.4-0.1-21.5c0.1-0.6,0.9-0.6,1,0c0.3,4.3,0.3,8.6,0.3,12.9
	c0.5-0.9,0.9-1.8,1.2-2.8c0.5-1.5,0.3-3.1,0.5-4.7h0.3c1.2,2.8-0.3,6.2-2.1,8.5c0,3-0.1,5.9,0,8.8c0.1,7.3,0.4,14.6,0.9,21.9
	c2.7-8,6.2-15.5,8.4-23.7h0.3c-1.1,8.4-5,16.7-8.6,24.2l-0.1,0.1v0.5c0.7,9.4,1.8,18.7,3.7,27.9c5.1-8.7,8.6-17.4,11.7-27
	c0.1-0.2,0.4-0.1,0.3,0.1c-1.6,9.4-5.9,20-11.8,27.5H258c1.3,6.1,2.9,12.1,5,18c0.1,0.3-0.3,0.4-0.4,0.1
	c-5.2-14.1-7.7-28.9-9.1-43.8c-0.7-8.1-1.1-16.3-1.3-24.5c0-0.6,0-1.2-0.1-1.8c-3.1-4.2-6-9.1-7.2-14.2H245.2z"/>
<path class="st0" d="M217.3,484.1c3,2.1,5.7,4.6,8.7,6.7c2.3,1.6,4.7,3,7.1,4.4c-2.1-2-4.1-4.2-5.9-6.5l0.3-0.2
	c2.5,1.9,4.4,4.6,6.5,7v0.2c1,0.6,2,1.1,3.1,1.7c4.6,2.5,9.5,4.7,14.2,7.1c-2.9-2.4-5.3-5.3-8.4-7.6c-0.2-0.1,0-0.4,0.2-0.3
	c3.9,1.8,6.7,5.7,9.7,8.6l0.1,0.2c1.8,0.9,3.6,1.9,5.3,3c0.3,0.2,0,0.6-0.3,0.5c-7.6-3.5-15.1-7.1-22.5-11
	c-6.3-3.3-14.1-7.3-18.4-13.2C216.8,484.3,217.1,484,217.3,484.1"/>
<path class="st0" d="M265.9,506.2c1.1-0.7,2.1-1.4,3.1-2.1l0,0c1.6-3.1,3.8-5.8,5.4-8.9c1.8-3.4,3.3-7.1,4.3-10.9l0.3,0.1
	c-0.6,4-2.2,7.6-3.9,11.2c-1.1,2.3-2.4,5.1-4.2,7.2c3.8-2.6,7.5-5.4,11-8.3c2.5-6.6,5-13.2,7.5-19.8c0.1-0.2,0.5-0.1,0.4,0.1
	c-1.9,6.4-4,13-7.1,19c1.9-1.7,3.8-3.4,5.6-5.2c2-2,3.8-4.1,5.5-6.2l-0.1-0.2c1.1-4.3,2.7-8.7,4.3-12.9l0.3,0.1
	c-1.4,3.9-2,8.4-3.9,12.1c1.2-1.5,2.3-3.1,3.4-4.8c2.5-3.8,3.7-8,6-11.8c0.1-0.2,0.5-0.1,0.5,0.1c-0.4,3.9-2.9,7.9-4.9,11.2
	c-2.7,4.4-6,8.4-9.5,12.1c-5.1,5.4-11,10.4-17.3,14.4c2.3-0.2,4.5-0.3,6.8-0.9c3-0.8,5.8-2.3,8.5-3.8c0.2-0.1,0.4,0.2,0.2,0.3
	c-4.7,3-10.9,6.1-16.6,5c-1.8,1.1-3.6,2.1-5.4,3.1C265.9,506.6,265.7,506.3,265.9,506.2"/>
<path class="st0" d="M237.7,460.1c3.3,4.8,5.6,10.5,8.4,15.6c3.3,5.9,7.1,11.4,11.4,16.6l-0.2,0.2c-4.5-4.4-8-9.8-11.1-15.2
	c-3.2-5.4-6.6-11.2-8.8-17C237.3,460.1,237.6,460,237.7,460.1"/>
<path class="st0" d="M239.3,436.5c4.8,9.1,8.5,18.6,13.9,27.4l-0.2,0.2c-6.4-7.8-10.2-18.2-14-27.4L239.3,436.5z"/>
<path class="st0" d="M231.2,498.8c2,0.4,3.9,1.1,5.8,1.8c2.1,0.7,4.4,1.2,6.5,1.9v0.3c-4.1-0.1-8.6-2.3-12.4-3.8L231.2,498.8z"/>
<path class="st0" d="M217.8,488c1.2,0.5,2.3,1.2,3.4,1.8c1.2,0.6,2.4,1.2,3.6,1.9c0.2,0.1,0.1,0.4-0.1,0.3c-2.3-0.9-5.5-1.9-7-3.8
	L217.8,488z"/>
<path class="st0" d="M290.1,488.5c2.1-1.4,4.3-2.5,6.4-4c2.3-1.7,4.4-3.7,6.4-5.7c0.2-0.2,0.5,0.1,0.3,0.3c-3.3,3.9-7.9,8.3-13,9.6
	L290.1,488.5z"/>
<path class="st1" d="M367.2,201.5c0,9.8-6.3,17.8-14.1,17.8s-14.1-8-14.1-17.8s6.3-17.8,14.1-17.8S367.2,191.6,367.2,201.5"/>
<path class="st1" d="M52.1,156.4c0,1.5-0.9,2.7-2.1,2.7c-1.2,0-2.1-1.2-2.1-2.7s0.9-2.7,2.1-2.7C51.2,153.7,52.1,154.9,52.1,156.4"
	/>
<path class="st1" d="M69.9,161.4c0,1.5-0.9,2.7-2.1,2.7s-2.1-1.2-2.1-2.7s0.9-2.7,2.1-2.7C68.9,158.8,69.9,160,69.9,161.4"/>
<path class="st1" d="M129.2,81.8c0,1.5-0.9,2.7-2.1,2.7c-1.2,0-2.1-1.2-2.1-2.7s0.9-2.7,2.1-2.7C128.3,79.1,129.2,80.3,129.2,81.8"
	/>
<path class="st1" d="M406.1,318.2c0,1.5-0.9,2.7-2.1,2.7s-2.1-1.2-2.1-2.7s0.9-2.7,2.1-2.7S406.1,316.7,406.1,318.2"/>
<path class="st1" d="M413.3,311c0,1.5-0.9,2.7-2.1,2.7s-2.1-1.2-2.1-2.7s0.9-2.7,2.1-2.7S413.3,309.5,413.3,311"/>
<path class="st1" d="M65.6,147.7c0,2.4-1.5,4.3-3.4,4.3s-3.4-1.9-3.4-4.3s1.5-4.3,3.4-4.3S65.6,145.4,65.6,147.7"/>
<ellipse class="st2" cx="54.4" cy="306" rx="4.4" ry="5.6"/>
<ellipse class="st2" cx="303.9" cy="68.7" rx="4.4" ry="5.6"/>
<ellipse class="st2" cx="87.3" cy="50.9" rx="14.1" ry="17.7"/>
<ellipse class="st2" cx="-28.1" cy="367.5" rx="28.8" ry="36.4"/>
<path class="st3" d="M198.2,360.2c0.5,0,1,0,1.4,0l0,0C199.2,360.2,198.7,360.2,198.2,360.2"/>
<path class="st3" d="M196.7,360.2c0.5,0,0.9,0,1.4,0C197.6,360.2,197.2,360.2,196.7,360.2L196.7,360.2z"/>
<polyline class="st4" points="516.5,49 469.3,49 469.3,-11.3 "/>
<g>
	<polygon class="st5" points="158.7,125 172.7,62.7 175.9,43.6 213.6,43.6 216.7,64.8 233,125 	"/>
	<g>
		<path class="st6" d="M172.3,500.9c-4.1-0.2-8.2-0.4-12.4-0.6c0.4-1.9,0.8-3.7,1.2-5.6c-0.3-4.4-0.7-8.8-1-13.2c3.9,0,7.8,0,11.7,0
			c-0.2,4.4-0.4,8.8-0.6,13.2C171.6,496.7,171.9,498.8,172.3,500.9z"/>
		<g>
			<path class="st7" d="M154.2,517.6c0,0.7,0.1,1.3,0.2,1.9c2,8.1,5.8,9,11.1,6.1c4.5-2.5,5.8-3.1,6.6-5.9c-2.4-1.7-5.9-2.9-9.9-3.2
				C159.2,516.4,156.4,516.8,154.2,517.6z"/>
			<path class="st6" d="M154.8,514.9c0,0.7-0.4,1.5-0.3,2c2,8.1,5.8,9,11.1,6.1c4.5-2.5,5.2-3.3,6-6c-2.4-1.7-5.3-2.8-9.3-3
				C159.4,513.8,157.1,514.1,154.8,514.9z"/>
			<path class="st6" d="M172.3,514c0-5.3,0-13.1,0-13.1l-12.4-0.6c0,0-3,5.5-4.7,11.1c2.1-0.6,4.4-0.9,6.9-0.8
				C166.3,510.8,169.9,512.1,172.3,514z"/>
			<path class="st7" d="M172.3,514c-2.4-1.8-6-3.1-10.1-3.4c-2.5-0.1-4.9,0.2-6.9,0.8c-0.7,2.2-1.1,4.4-1.1,6.3c2.3-0.8,5-1.2,8-1.1
				c4,0.2,7.5,1.4,9.9,3.2c0.1-0.5,0.2-1,0.2-1.4C172.3,517.4,172.3,515.9,172.3,514z"/>
			<path class="st7" d="M157.2,505.8c0,0,6.7-2.2,15,1.3v-6.2c-1.5-0.5-3.6-1.1-6.3-1.3c-2.5-0.1-4.6,0.2-6.1,0.6
				C159.6,500.8,159.3,501.3,157.2,505.8z"/>
			<path class="st7" d="M161,514.2c0,0,1.4-10,2.4-12.1l4,0.1l-0.9,12.4L161,514.2z"/>
		</g>
	</g>
	<g>
		<path class="st6" d="M217.6,500.9c4.1-0.2,8.2-0.4,12.4-0.6c-0.4-1.9-0.8-3.7-1.2-5.6c0.3-4.4,0.7-8.8,1-13.2c-3.9,0-7.8,0-11.7,0
			c0.2,4.4,0.4,8.8,0.6,13.2C218.3,496.7,217.9,498.8,217.6,500.9z"/>
		<g>
			<path class="st7" d="M235.7,517.6c0,0.7-0.1,1.3-0.2,1.9c-2,8.1-5.8,9-11.1,6.1c-4.5-2.5-5.8-3.1-6.6-5.9
				c2.4-1.7,5.9-2.9,9.9-3.2C230.7,516.4,233.5,516.8,235.7,517.6z"/>
			<path class="st6" d="M235,514.9c0,0.7,0.4,1.5,0.3,2c-2,8.1-5.8,9-11.1,6.1c-4.5-2.5-5.2-3.3-6-6c2.4-1.7,5.3-2.8,9.3-3
				C230.5,513.8,232.8,514.1,235,514.9z"/>
			<path class="st6" d="M217.6,514c0-5.3,0-13.1,0-13.1l12.4-0.6c0,0,3,5.5,4.7,11.1c-2.1-0.6-4.4-0.9-6.9-0.8
				C223.6,510.8,220,512.1,217.6,514z"/>
			<path class="st7" d="M217.6,514c2.4-1.8,6-3.1,10.1-3.4c2.5-0.1,4.9,0.2,6.9,0.8c0.7,2.2,1.1,4.4,1.1,6.3c-2.3-0.8-5-1.2-8-1.1
				c-4,0.2-7.5,1.4-9.9,3.2c-0.1-0.5-0.2-1-0.2-1.4C217.6,517.4,217.6,515.9,217.6,514z"/>
			<path class="st7" d="M232.6,505.8c0,0-6.7-2.2-15,1.3v-6.2c1.5-0.5,3.6-1.1,6.3-1.3c2.5-0.1,4.6,0.2,6.1,0.6
				C230.3,500.8,230.6,501.3,232.6,505.8z"/>
			<path class="st7" d="M228.9,514.2c0,0-1.4-10-2.4-12.1l-4,0.1l0.9,12.4L228.9,514.2z"/>
		</g>
	</g>
	<g>
		<g>
			<path class="st8" d="M237.9,489.2c-0.1,0.9-4.9,1.2-14.3,1.9c-9.3,0.7-14,1-14.3,0.2c0,0,0,0-0.1,0c-0.1-37.9-0.2-75.7-0.3-113.6
				c7.1,2.2,14.2,4.4,21.2,6.5c2.6,34.9,5.2,69.9,7.7,104.8C237.9,489.1,237.9,489.2,237.9,489.2z"/>
		</g>
	</g>
	<g>
		<g>
			<path class="st8" d="M180.5,377.7c-0.1,37.9-0.2,75.7-0.3,113.6c0,0,0,0-0.1,0c-0.3,0.8-5,0.5-14.3-0.2c-9.5-0.6-14.2-1-14.3-1.9
				c0-0.1,0-0.1,0-0.2c2.6-34.9,5.2-69.9,7.7-104.8C166.3,382.1,173.4,379.9,180.5,377.7z"/>
		</g>
	</g>
	<path class="st8" d="M175.8,101.8c6.3,5.6,12.6,11.2,18.9,16.9c6.8-5.6,13.5-11.2,20.3-16.9c-5.1-1.4-12.2-2.7-20.7-2.6
		C186.9,99.3,180.5,100.5,175.8,101.8z"/>
	<path class="st0" d="M251.8,131.9c-0.2-1.3-0.5-3.6-1.3-6.3c-0.5-1.8-1.1-3.2-1.4-3.9c-1.2-1.5-2.6-3.1-4.1-4.5
		c-9.9-9.4-22.3-11.8-29.3-12.4c-6.7,3.6-13.5,7.2-20.2,10.8c-2.6-2.6-9-8.5-18.3-9.4c-4.6-0.4-8.5,0.4-10,0.7
		c-3.8,0.9-6.7,2.3-12.4,5.1c-2.6,1.3-5.7,2.9-9.1,4.9c-3.2,3.3-3.8,6.6-4.9,23.6c-0.8,12.2-1.3,22.7-1.6,31h116.2
		C253.7,150.9,252.3,135.8,251.8,131.9z"/>
	<path class="st6" d="M219.5,107.3c-7.9,2.6-15.9,5.3-23.8,7.9c-8.2-2.6-16.3-5.2-24.5-7.7c3.6-2.3,7.2-4.6,10.8-7
		c1.2-5.2,2.5-10.5,3.7-15.7c6.7,0,13.4,0,20,0c0.9,5.2,1.9,10.4,2.8,15.5C212.2,102.7,215.8,105,219.5,107.3z"/>
	<path class="st6" d="M214.7,63c-0.1,1-0.5,4.3-1.2,10.8c-0.4,3.6-0.8,6.6-1,8.6c-1.5,3.1-4.7,8.5-10.8,11.9
		c-3.7,2.1-6.3,2.1-6.9,2.1c-3.4,0-5.9-1.4-7.6-2.6c-5.9-4-8.9-9.2-10.2-12.2c-0.2-1.5-0.5-3.7-0.8-6.4c-0.4-3.2-1.1-9.3-1.3-12.2
		c-0.3-5.4-1.1-16,5.8-22.7c5.5-5.2,12.6-5.4,14.1-5.4c1.5,0,8.8,0.1,14.4,5.4C215.9,47,215.1,57.5,214.7,63z"/>
	<g>
		<path class="st9" d="M200.5,80.9c0.1,0.5-1.2,1.2-2,1.5c-0.7,0.2-1.2,0.3-3.9,0.2c-2.5-0.1-3-0.1-3.7-0.3
			c-0.7-0.2-2.2-0.9-2.2-1.3c0.1-0.5,2.3-0.5,6.2-0.5C200.2,80.4,200.5,80.7,200.5,80.9z"/>
	</g>
	<path class="st9" d="M197.7,72.5c-0.3,0.3-1.1,0.9-2.4,1c-1.7,0.1-2.9-0.9-3.1-1.1c1.1,0,2.1,0,3.2,0.1
		C196.1,72.5,196.9,72.5,197.7,72.5z"/>
	<path class="st0" d="M174.2,102.8l-9.5,5.5c6,7.4,12,14.8,17.9,22.2c8.5,0.1,17,0.1,25.5,0.2c5.1-8,10.3-16,15.4-23.9
		c-2.5-1.2-5-2.5-7.4-3.7c-3.4,1.3-7.1,2.9-11,4.9c-3.5,1.8-6.7,3.7-9.5,5.5c-2.6-1.7-5.5-3.5-8.8-5.2
		C182.2,105.9,178,104.1,174.2,102.8z"/>
	<g>
		<g>
			<path class="st0" d="M189.5,63.3c-1.5-2.4-4-3.6-6.3-3.1c-2.3,0.5-3.5,2.6-3.8,3c0.9,0.5,2.5,1.4,4.7,1.5
				C186.7,64.8,188.6,63.8,189.5,63.3z"/>
			<g>
				<path class="st10" d="M182.6,62.7c0.1,1.2,1.1,2,2.3,1.9c1.2-0.1,2-1.1,1.9-2.3c-0.1-1.2-1.1-2-2.3-1.9
					C183.3,60.5,182.5,61.5,182.6,62.7z"/>
				<path d="M183.6,62.8c0.1,0.6,0.6,1.1,1.3,1.1c0.6-0.1,1.1-0.6,1.1-1.3c-0.1-0.6-0.6-1.1-1.3-1.1C184,61.5,183.6,62.1,183.6,62.8
					z"/>
				<path class="st0" d="M183.1,62.2c0,0.3,0.2,0.5,0.5,0.4c0.3,0,0.5-0.2,0.4-0.5c0-0.3-0.3-0.5-0.5-0.4
					C183.3,61.7,183.1,61.9,183.1,62.2z"/>
			</g>
			<path d="M189.5,63.2c-0.1-0.2-2.5-2.8-5.8-2.3c-2.4,0.4-3.7,2-4,2.4c-0.1,0-0.2-0.1-0.3-0.1c-0.1,0-0.1,0-0.2-0.1
				c1-2.1,3.2-3.5,5.4-3.3C186.8,60,188.6,61.3,189.5,63.2z"/>
		</g>
		<g>
			<path class="st0" d="M200.3,63.2c1.6-2.3,4.1-3.5,6.3-2.9c2.3,0.6,3.5,2.7,3.7,3.1c-0.9,0.5-2.5,1.3-4.7,1.3
				C203,64.8,201.1,63.8,200.3,63.2z"/>
			<g>
				<path class="st10" d="M207.2,62.9c-0.1,1.2-1.2,2-2.3,1.9c-1.2-0.1-2-1.2-1.9-2.3c0.1-1.2,1.2-2,2.3-1.9
					C206.5,60.6,207.4,61.7,207.2,62.9z"/>
				<path d="M206.2,62.9c-0.1,0.6-0.6,1.1-1.3,1c-0.6-0.1-1.1-0.6-1-1.3c0.1-0.6,0.6-1.1,1.3-1C205.8,61.6,206.3,62.2,206.2,62.9z"
					/>
				<path class="st0" d="M206.7,62.3c0,0.3-0.3,0.5-0.5,0.4s-0.5-0.3-0.4-0.5c0-0.3,0.3-0.5,0.5-0.4S206.8,62,206.7,62.3z"/>
			</g>
			<path d="M200.3,63.2c0.1-0.2,2.5-2.7,5.9-2.1c2.3,0.4,3.6,2.1,3.9,2.5c0.1,0,0.2,0,0.3-0.1c0.1,0,0.1,0,0.2-0.1
				c-0.9-2.2-3.1-3.6-5.4-3.5C203.1,60,201.2,61.3,200.3,63.2z"/>
		</g>
		<path d="M188.5,56.3c-0.5-0.2-2.1-0.9-4.4-1.2c-3.2-0.3-5.2,0.5-5.6,0.7c-0.6,0.3-1,0.8-1,0.8c-0.3,0.4-0.5,0.7-0.7,1.2
			c-0.3,0.5-0.6,1.3-0.9,2.1c0.1-0.1,0.2-0.2,0.3-0.3c0,0,0.6-0.5,1.4-0.8c2.7-1.3,6.4-1.1,6.4-1.1c2.4,0.1,4.3,0.8,5.7,1.4
			c0.1-0.1,0.6-0.4,0.8-0.9c0.1-0.3,0.1-0.5,0.1-0.7C190,57.1,189.4,56.7,188.5,56.3z"/>
	</g>
	<g>
		<path d="M201,56.3c0.5-0.2,2.1-0.9,4.4-1.2c3.2-0.3,5.2,0.5,5.6,0.7c0.6,0.3,1,0.8,1,0.8c0.3,0.4,0.5,0.7,0.7,1.2
			c0.3,0.5,0.6,1.3,0.9,2.1c-0.1-0.1-0.2-0.2-0.3-0.3c0,0-0.6-0.5-1.4-0.8c-2.7-1.3-6.4-1.1-6.4-1.1c-2.4,0.1-4.3,0.8-5.7,1.4
			c-0.1-0.1-0.6-0.4-0.8-0.9c-0.1-0.3-0.1-0.5-0.1-0.7C199.4,57.1,200.1,56.7,201,56.3z"/>
	</g>
	<path class="st0" d="M153.5,169.1c-5.2,99.3-10.3,198.7-15.5,298c11.6,3.2,21,4,27.2,4.3c25.2,1,30.6-6.9,52.2-3.5
		c5.2,0.8,11.9,2.3,22,1.9c7.2-0.3,13.1-1.5,16.9-2.4c-5.6-99.4-11.2-198.8-16.9-298.2c-12.7-0.7-22.5-0.2-29.3,0.5
		c-3.4,0.3-7.7,0.8-13.9,0.8c-7.5,0-12.2-0.8-16.9-1.3C173.3,168.4,164.6,168,153.5,169.1z"/>
	<rect x="194.2" y="74.9" class="st11" width="1.4" height="3.1"/>
	<path class="st8" d="M223.5,106.7c-8,4.1-16,8.3-24,12.4v45.9l-4,3.7l0-57.1c3.6-2.5,8-5,13-7.2c2.3-1,4.5-1.9,6.6-2.7
		C217.9,103.4,220.7,105.1,223.5,106.7z"/>
	<path class="st6" d="M126.3,270.7c-0.3,1.7-0.8,4-1.1,6.9c-0.6,5.7-0.9,8.5-0.2,11.2c0.5,2,0.7,1.1,6.8,10.9c0.1,0.2,1.2,1.9,3,3.9
		c1.5,1.6,3.6,3.8,4.9,3.3c1-0.4,1.1-2.1,1.1-2.2c0.1-2.2-1.8-3.3-3.8-5.9c-0.8-1-3.7-4.7-4.2-9.4c-0.2-2.1-0.1-5.6,1.4-6.1
		c0.9-0.3,2.1,0.5,2.8,1.2c1.6,1.8,0.4,3.8,1.9,7.9c0.6,1.6,1.1,2.3,1.9,2.6c0.7,0.2,1.5-0.1,2-0.5c0.8-0.7,0.7-1.7,0.7-2.9
		c0-1-0.2-1.6-0.4-2.7c-0.4-1.9-0.6-3.4-0.7-3.9c-0.3-2.3,0.1-3.7,0.2-5.2c0.2-2,0.1-5-1.5-9H126.3z"/>
	<path class="st0" d="M145.6,117c-1.8,1.5-4.1,3.8-6.1,7c-3.4,5.4-4,10.7-4.3,12.9c-1,8.7-6.5,62.4-13.6,136.2
		c4.1,0.7,8.6,1.3,13.4,1.6c4,0.3,7.7,0.4,11.2,0.4c0.9-10,1.7-20.1,2.6-30.1c2-24.8,3.9-49.4,5.6-73.7
		C151.4,153.1,148.5,135,145.6,117z"/>
	<path class="st6" d="M267.1,269.3c0.3,1.7,0.8,4,1.1,6.9c0.6,5.7,0.9,8.5,0.2,11.2c-0.5,2-0.7,1.1-6.8,10.9c-0.1,0.2-1.2,1.9-3,3.9
		c-1.5,1.6-3.6,3.8-4.9,3.3c-1-0.4-1.1-2.1-1.1-2.2c-0.1-2.2,1.8-3.3,3.8-5.9c0.8-1,3.7-4.7,4.2-9.4c0.2-2.1,0.1-5.6-1.4-6.1
		c-0.9-0.3-2.1,0.5-2.8,1.2c-1.6,1.8-0.4,3.8-1.9,7.9c-0.6,1.6-1.1,2.3-1.9,2.6c-0.7,0.2-1.5-0.1-2-0.5c-0.8-0.7-0.7-1.7-0.7-2.9
		c0-1,0.2-1.6,0.4-2.7c0.4-1.9,0.6-3.4,0.7-3.9c0.3-2.3-0.1-3.7-0.2-5.2c-0.2-2-0.1-5,1.5-9H267.1z"/>
	<path class="st0" d="M245,117.1c2.7,2,4.3,4,5.2,5.4c0,0,2.6,3.9,4.7,12.6c0,0,0.1,0.4,0.2,0.9c0.1,0.5,0.3,1.2,0.5,2
		c0.3,1.4,0.5,2.2,0.7,2.7c1.8,8,8.1,59.8,15.6,130.9c-4.1,0.7-8.6,1.3-13.4,1.6c-4,0.3-7.7,0.4-11.2,0.4c-0.9-10-1.7-20.1-2.6-30.1
		c-2-24.8-3.9-49.4-5.6-73.7c1.7-7.9,3.1-16.6,4.2-26C244.3,134.2,244.8,125.3,245,117.1z"/>
	<path class="st8" d="M153.4,184.5c-0.6-0.1-4.1,30.1-10.7,90.5c1.2,0,2.3,0,3.5,0C146.2,275,146.2,275,153.4,184.5z"/>
	<path class="st8" d="M240,183.1c0.3,0,1.4,9.1,3.1,22.6c3.4,27.5,5.9,50.6,7.6,67.9c-0.5,0-1,0-1.6,0c-0.6,0-1.3,0-1.9,0
		C240.7,200.8,239.5,183.2,240,183.1z"/>
	<path class="st8" d="M167,106.8l24.4,12.3v45.9l4,3.7l0-57.1c-3.6-2.5-8-5-13-7.2c-2.3-1-4.5-1.9-6.6-2.7
		C172.9,103.5,169.9,105.1,167,106.8z"/>
	<path d="M194.9,74.5c0,0-0.1,0-0.1,0c-1.9,0-8.5,0.1-10.9,4.3c-0.3,0.6-0.9,1.3-1.3,3c-0.4,1.7-0.5,4.2,0.1,8.4
		c3.7,5.3,8,7.8,12.3,7.8c4.3,0,8.6-2.6,12.3-7.8c0.6-4.1,0.4-6.7,0.1-8.4c-0.4-1.7-1-2.5-1.3-3c-2.4-4.2-9-4.3-10.9-4.3
		C195,74.5,194.9,74.5,194.9,74.5z M193.1,84c-0.2,0.4-0.7,1.6-1.9,2.2c0,0-1.8,0.8-4.2-0.7c0,0,0,0,0,0c-1.9-1.2-2-3.7-0.3-5.2
		c0.7-0.6,1.4-0.9,1.8-1c1.7-0.6,4.1-0.7,6.4-0.7c2.3,0,4.7,0.2,6.4,0.7c0.4,0.1,1.1,0.4,1.8,1c1.7,1.5,1.6,4-0.3,5.2c0,0,0,0,0,0
		c-2.4,1.4-4.2,0.7-4.2,0.7c-1.2-0.5-1.7-1.6-1.8-2.1C195.5,84.1,194.3,84.1,193.1,84z"/>
	<g>
		<path class="st12" d="M149.3,110.5c-0.1,0.3-0.1,0.6-0.1,1l0-0.7L149.3,110.5z"/>
	</g>
	<g>
		<path class="st12" d="M244.3,136.7c-0.2-0.4-0.5-0.9-1.1-1.4c0,0-0.2-0.2-0.5-0.4c-0.2-0.2-0.6-0.4-0.9-0.6c-3.5-1.7-9-0.8-9-0.8
			c-1.9,0.3-4.5,0.9-7.6,2c-1.5,0.6-3.1,1.2-4.9,2.1c0-0.7,0.1-1.4,0.1-2.1c0.2-8.1-0.3-14.8-0.9-19.5c-0.4-3-0.6-4.5-2.7-17
			c-1.9-11.3-2.8-16.9-2.9-17.1c-0.5-7.2-0.7-23.8-1.4-32.8c-0.1-0.9-0.2-2.3-1.2-3.1c-2.2-2-5.7,1.3-11.4,0.4
			c-3.5-0.5-3.5-2-6.9-2.1c-2.8-0.1-3.5,0.8-7.1,1.1c-4.3,0.4-5.5-0.8-6.9-0.2c-3.2,1.1-2.8,19.8-2.7,24.5
			c0.2,14.2-1.6,25.2-5.3,47.2c-1.2,7.4-2.5,13.5-3.5,18c-0.2,0.7-0.3,1.4-0.5,2c-0.3-0.1-4.5-1.6-7.6-2.2c-0.3-0.1-0.6-0.1-0.8-0.1
			c-2-0.3-3.6-0.1-4.6,0c-3.8,0.4-8.9,2.2-9.2,2.2c-0.8-10.6,0.7-18.9,2.1-24.1c2-7.7,5-13.7,6.5-16.8c1.8-3.6,3.5-6.5,4.9-8.6
			l11.4-26.7c3.2-13.2,2.6-21.2,10.1-26.9c1.3-1,2.6-1.7,3.9-2.3c3.4-1.8,6.7-2.3,8-2.5c2.2-0.3,7.1-1,12.4,1.5
			c0.3,0.2,0.7,0.3,1,0.5c0,0,0,0,0,0c1.2,0.5,2.3,1.1,3.4,1.8c8.7,5.7,8,14.9,13.2,30.7c6.6,20.1,15.7,30.6,21,46.5
			c0,0.1,0,0.1,0,0.1C247.2,122.7,246.5,131.1,244.3,136.7z"/>
		<path d="M214.6,37.4h-39.8c-1.1,0-2.1-0.9-2.1-2.1l0,0c0-1.1,0.9-2.1,2.1-2.1h39.8c1.1,0,2.1,0.9,2.1,2.1l0,0
			C216.6,36.4,215.7,37.4,214.6,37.4z"/>
		<path d="M216.2,41.5h-43.1c-1.1,0-2.1-0.9-2.1-2.1l0,0c0-1.1,0.9-2.1,2.1-2.1h43.1c1.1,0,2.1,0.9,2.1,2.1l0,0
			C218.3,40.5,217.3,41.5,216.2,41.5z"/>
	</g>
</g>
</svg>
