<?xml version="1.0" encoding="utf-8"?>
<!-- Generator: Adobe Illustrator 26.0.1, SVG Export Plug-In . SVG Version: 6.00 Build 0)  -->
<svg version="1.1" id="Layer_1" xmlns="http://www.w3.org/2000/svg" xmlns:xlink="http://www.w3.org/1999/xlink" x="0px" y="0px"
	 viewBox="0 0 819 595.9" style="enable-background:new 0 0 819 595.9;" xml:space="preserve">
<style type="text/css">
	.st0{clip-path:url(#SVGID_00000020395897348254446220000015582562282923521202_);}
	.st1{clip-path:url(#SVGID_00000036933678005669517250000003935504274440634535_);fill:#A5E0DC;}
	.st2{clip-path:url(#SVGID_00000036933678005669517250000003935504274440634535_);fill:#00747D;}
	.st3{opacity:0.4;clip-path:url(#SVGID_00000036933678005669517250000003935504274440634535_);}
	.st4{fill:#F7DFC6;}
	.st5{clip-path:url(#SVGID_00000036933678005669517250000003935504274440634535_);}
	.st6{fill:#D5B792;}
	.st7{fill:#00747D;}
	.st8{fill:#81CCC6;}
	.st9{opacity:0.6;}
	.st10{fill:#E4887F;}
	.st11{fill:#282828;}
	.st12{opacity:0.6;fill:url(#SVGID_00000050650800186493467200000002204196496655805604_);}
	.st13{fill:#13121C;}
	.st14{fill:#363160;}
	.st15{fill:#21151E;}
	.st16{fill:#6A66BF;}
	.st17{fill:#300B18;}
	.st18{fill:#FFB886;}
	.st19{fill:#C6093A;}
	.st20{fill:#FFFFFF;}
	.st21{clip-path:url(#SVGID_00000005234028776856374370000007620837971535766927_);}
	.st22{fill:#432B16;}
	.st23{clip-path:url(#SVGID_00000082332432983472096580000013799212563023844249_);}
	.st24{opacity:0.6;fill:#F58E6F;}
	.st25{fill:url(#SVGID_00000058567929255799966340000012112563269936072099_);}
	.st26{fill:#E86A54;}
	.st27{fill:#B24234;}
	.st28{fill:#DD7A68;}
	.st29{fill:#EF957D;}
	.st30{fill:none;}
	.st31{fill:url(#SVGID_00000017505690462507567380000014862238898977682081_);}
	.st32{fill:url(#SVGID_00000003787624421448031280000013069468890519559810_);}
	.st33{fill:url(#SVGID_00000155131072392905351440000015547898780062602130_);}
	.st34{fill:url(#SVGID_00000026867411071489886340000001880404522251744901_);}
	.st35{fill:url(#SVGID_00000061456808469114482460000001497743577974751665_);}
	.st36{fill:url(#SVGID_00000065756887762508044280000010529311472975706034_);}
	.st37{fill:#CC936D;}
	.st38{fill:#BA7D54;}
	.st39{fill:#101010;}
	.st40{fill:#C6C6C6;}
	.st41{fill:#AF1919;}
	.st42{fill:#AF7151;}
	.st43{fill:#513328;}
	.st44{fill:none;stroke:#000000;stroke-width:4.9849;stroke-linecap:round;stroke-linejoin:round;stroke-miterlimit:10;}
</style>
<g>
	<g>
		<defs>
			<path id="SVGID_1_" d="M751.4,469c-2.1,1.6-4.3,3-6.8,4C677,501.9,562.3,540.7,415.6,543c-138,2.2-248.6-28.8-317.8-54.5
				c-11.1-4.1-21.3-10.5-29.9-18.6c-4.2-4-8.8-8.8-13.2-14.3c-9-11.1-17.9-25.4-24.1-43.1c-2.5-7.2-21.1-63,2.7-101.7
				c0.9-1.4,1.8-2.8,2.8-4.2c14.3-19.7,33-22.9,56.4-24c3-0.2,6.2-0.3,9.4-0.4c3.9-0.1,7.9-0.3,12-0.5c5.6-0.3,11.4-0.6,17.4-1.3
				c17.1-1.7,36-5.5,56.7-14.4c4.5-1.9,8.7-4,12.7-6.1c84.2-44.4,78.9-130.8,174.9-163.7c54-18.5,102.6-7.3,115.5-4.1
				c59.9,14.7,100.7,54.2,146.7,102.3c3.3,3.5,6.6,6.9,10,10.5c17.3,18.1,22,25.5,31.1,37.2c1.2,1.6,2.6,3.3,4,5.1
				c5.9,7.3,13.8,16.7,26.8,30.6c6.5,7,12.6,13.4,18.4,19.2c34.4,35.1,56.2,52.6,66.6,69.9c4.3,7,6.6,14.1,7.1,22.2
				C803.1,407.7,794.8,434.5,751.4,469z"/>
		</defs>
		<clipPath id="SVGID_00000024720742298770958640000004529910763901498559_">
			<use xlink:href="#SVGID_1_"  style="overflow:visible;"/>
		</clipPath>
		<g style="clip-path:url(#SVGID_00000024720742298770958640000004529910763901498559_);">
			<defs>
				<path id="SVGID_00000093866119876050437790000012021225489425733778_" d="M751.4,469c-2.1,1.6-4.3,3-6.8,4
					C677,501.9,562.3,540.7,415.6,543c-138,2.2-248.6-28.8-317.8-54.5c-11.1-4.1-21.3-10.5-29.9-18.6c-4.2-4-8.8-8.8-13.2-14.3
					c-9-11.1-17.9-25.4-24.1-43.1c-2.5-7.2-21.1-63,2.7-101.7c0.9-1.4,1.8-2.8,2.8-4.2c14.3-19.7,33-22.9,56.4-24
					c3-0.2,6.2-0.3,9.4-0.4c3.9-0.1,7.9-0.3,12-0.5c5.6-0.3,11.4-0.6,17.4-1.3c17.1-1.7,36-5.5,56.7-14.4c4.5-1.9,8.7-4,12.7-6.1
					c84.2-44.4,78.9-130.8,174.9-163.7c54-18.5,102.6-7.3,115.5-4.1c59.9,14.7,100.7,54.2,146.7,102.3c3.3,3.5,6.6,6.9,10,10.5
					c17.3,18.1,22,25.5,31.1,37.2c1.2,1.6,2.6,3.3,4,5.1c5.9,7.3,13.8,16.7,26.8,30.6c6.5,7,12.6,13.4,18.4,19.2
					c34.4,35.1,56.2,52.6,66.6,69.9c4.3,7,6.6,14.1,7.1,22.2C803.1,407.7,794.8,434.5,751.4,469z"/>
			</defs>
			<clipPath id="SVGID_00000013185765404083360110000015991531201127287426_">
				<use xlink:href="#SVGID_00000093866119876050437790000012021225489425733778_"  style="overflow:visible;"/>
			</clipPath>
			<path style="clip-path:url(#SVGID_00000013185765404083360110000015991531201127287426_);fill:#A5E0DC;" d="M751.4,469
				c-2.1,1.6-4.3,3-6.8,4C677,501.9,562.3,540.7,415.6,543c-138,2.2-248.6-28.8-317.8-54.5c-11.1-4.1-21.3-10.5-29.9-18.6
				c-4.2-4-8.8-8.8-13.2-14.3c-9-11.1-17.9-25.4-24.1-43.1c-2.5-7.2-21.1-63,2.7-101.7c0.9-1.4,1.8-2.8,2.8-4.2
				c14.3-19.7,33-22.9,56.4-24c3-0.2,6.2-0.3,9.4-0.4c3.9-0.1,7.9-0.3,12-0.5c5.6-0.3,11.4-0.6,17.4-1.3c17.1-1.7,36-5.5,56.7-14.4
				c4.5-1.9,8.7-4,12.7-6.1c84.2-44.4,78.9-130.8,174.9-163.7c54-18.5,102.6-7.3,115.5-4.1c59.9,14.7,100.7,54.2,146.7,102.3
				c3.3,3.5,6.6,6.9,10,10.5c17.3,18.1,22,25.5,31.1,37.2c1.2,1.6,2.6,3.3,4,5.1c5.9,7.3,13.8,16.7,26.8,30.6
				c6.5,7,12.6,13.4,18.4,19.2c34.4,35.1,56.2,52.6,66.6,69.9c4.3,7,6.6,14.1,7.1,22.2C803.1,407.7,794.8,434.5,751.4,469z"/>
			<path style="clip-path:url(#SVGID_00000013185765404083360110000015991531201127287426_);fill:#00747D;" d="M-7.1,450.1
				c172.1,13.3,302.5,17.6,390.2,19c51.1,0.8,76.6,1.2,95.2,0c142.3-9.5,203-56.2,280.7-23.8c19.6,8.2,54.8,18.5,58.7,41.2
				c8.2,48.1-128,108.1-163.4,123.7c-94.1,41.5-429.2,189.1-586.8,28.5C43,614,0.8,559.2-7.1,450.1z"/>
			<g style="opacity:0.4;clip-path:url(#SVGID_00000013185765404083360110000015991531201127287426_);">
				<path class="st4" d="M258,207.4c-0.5-1.5-0.4-4.7,1.4-6.9c2.9-3.4,8.9-2.4,9.9-2.2c0.8-1.4,2.6-4.3,6.2-6.2
					c5.7-3.1,11.4-1.5,12.5-1.2c0.2-0.4,1.5-3.3,4.8-4.2c4-1,6.9,1.9,7.1,2c0.5-1,4.4-8.6,13.4-10.6c9.8-2.3,17.1,3.9,17.8,4.5
					c0.3-0.5,4.4-6.9,12.4-7.2c7.7-0.3,12.2,5.5,12.6,6c0.4-0.4,4.2-4.4,9.9-3.7c6.2,0.8,8.9,6.3,9.1,6.6c0.5-0.3,3.9-2.5,8.1-1.2
					c4.7,1.5,6.2,5.9,6.3,6.3c0.3-0.1,7.9-3.3,14.2,1.3c4.4,3.3,5.3,8.2,5.4,9.2c1.6-2.4,4.5-3.7,7.2-3c2.3,0.5,4.2,2.4,4.8,4.7
					c1.2-0.7,3.2-1.5,5.5-1.1c4.1,0.8,7.4,5.5,6.7,8c-1.3,4.8-18.6,3.1-40.2,2.4c-10.8-0.4-30.1,0.1-68.7,1
					C286.3,213,260.3,215.1,258,207.4z"/>
			</g>
			<g style="opacity:0.4;clip-path:url(#SVGID_00000013185765404083360110000015991531201127287426_);">
				<path class="st4" d="M502.7,190.9c-0.3-1-0.3-3,0.9-4.4c1.9-2.2,5.7-1.5,6.3-1.4c0.5-0.9,1.7-2.7,4-4c3.6-2,7.3-1,8-0.7
					c0.1-0.2,1-2.1,3.1-2.7c2.5-0.7,4.4,1.2,4.5,1.3c0.3-0.7,2.8-5.5,8.5-6.8c6.2-1.5,10.9,2.5,11.4,2.9c0.2-0.3,2.8-4.4,7.9-4.6
					c4.9-0.2,7.8,3.5,8.1,3.8c0.2-0.3,2.7-2.8,6.3-2.3c4,0.5,5.7,4,5.8,4.2c0.3-0.2,2.5-1.6,5.2-0.7c3,0.9,3.9,3.8,4,4
					c0.2-0.1,5-2.1,9,0.8c2.8,2.1,3.4,5.2,3.5,5.9c1-1.6,2.8-2.3,4.6-1.9c1.5,0.3,2.7,1.5,3.1,3c0.8-0.4,2.1-1,3.5-0.7
					c2.6,0.5,4.7,3.5,4.3,5.1c-0.9,3.1-11.9,2-25.7,1.5c-6.9-0.2-19.2,0.1-43.8,0.6C520.7,194.5,504.2,195.8,502.7,190.9z"/>
			</g>
			<g style="opacity:0.4;clip-path:url(#SVGID_00000013185765404083360110000015991531201127287426_);">
				<path class="st4" d="M415.7,149.8c-0.2-0.5-0.1-1.7,0.5-2.5c1-1.2,3.2-0.9,3.5-0.8c0.3-0.5,0.9-1.5,2.2-2.2
					c2-1.1,4.1-0.5,4.5-0.4c0.1-0.1,0.5-1.2,1.7-1.5c1.4-0.4,2.5,0.7,2.5,0.7c0.2-0.4,1.6-3,4.8-3.8c3.5-0.8,6.1,1.4,6.3,1.6
					c0.1-0.2,1.6-2.5,4.4-2.6c2.7-0.1,4.4,1.9,4.5,2.1c0.1-0.1,1.5-1.5,3.5-1.3c2.2,0.3,3.2,2.2,3.2,2.4c0.2-0.1,1.4-0.9,2.9-0.4
					c1.7,0.5,2.2,2.1,2.3,2.3c0.1-0.1,2.8-1.2,5.1,0.5c1.6,1.2,1.9,2.9,1.9,3.3c0.6-0.9,1.6-1.3,2.6-1.1c0.8,0.2,1.5,0.8,1.7,1.7
					c0.4-0.2,1.1-0.5,2-0.4c1.5,0.3,2.6,2,2.4,2.9c-0.5,1.7-6.6,1.1-14.3,0.8c-3.9-0.1-10.7,0-24.5,0.4
					C425.8,151.8,416.6,152.5,415.7,149.8z"/>
			</g>
			<g style="clip-path:url(#SVGID_00000013185765404083360110000015991531201127287426_);">
				<path class="st6" d="M404.3,381.5c0-0.4-0.3-0.7-0.7-0.7c-0.4,0-0.7,0.3-0.7,0.7c0,0.4,0.3,0.7,0.7,0.7
					C404,382.2,404.3,381.9,404.3,381.5z"/>
			</g>
			<g style="clip-path:url(#SVGID_00000013185765404083360110000015991531201127287426_);">
				<g>
					<path class="st7" d="M95.8,385.1c2.5,10.7,4.6,23.4,5.6,37.8c1,15.1,0.6,28.6-0.5,40c-1.8,0.3-4.2,1-6.8,2.4
						c-4.4,2.4-6.9,5.7-8.1,7.6c2.3-1.1,5.7-2.4,9.8-2.2c2.8,0.1,2.5,0.8,5.6,0.9c5.5,0.3,8.8-1.7,12.1-0.7c0.2,0.1,1.3,0.4,2.6,0.3
						c0.2,0,2.5-0.1,2.6-0.6c0.1-0.8-4.3-1.4-9.3-4.6c-1.4-0.9-2.5-1.8-3.3-2.4c0.9-12,1.3-25.8,0.3-41.1
						c-0.9-14.9-2.9-28.2-5.3-39.8C99.4,383.6,97.6,384.4,95.8,385.1z"/>
					<path class="st8" d="M90.7,380c-3.9,1.1-8.8,3.1-13.6,7.1c-14.7,12.4-13.6,32.6-13.4,35.5c0.8-4.5,3.4-15.9,13.2-25.7
						c6.7-6.8,14-9.9,18.2-11.4c-0.5,4.8-0.6,10.5,0.1,16.8c1.5,14.3,6.4,25.4,10.3,32.6c-2.4-6.4-5.2-15.7-5.8-27.3
						c-0.5-9.1,0.5-16.8,1.7-22.6c3,0.5,6.3,1.5,9.8,3.3c13.5,6.8,18.7,20,20.3,24.4c1.1-3.5,2.1-8.6,0.4-14.1
						c-3.3-10.7-15.3-18.3-30-18.6c2.5-1.5,6.1-3.1,10.6-3.5c14.1-1.4,24.2,10.2,25.4,11.7c-0.5-0.9-8.8-16.3-24.6-16.9
						c-6.9-0.3-12.3,2.4-15,4.1c-2.5-1.6-7-3.7-11.9-2.7c-10.1,2-14.7,15.9-15,25c-0.4,10.6,4.9,18.5,7.2,21.5
						c-2.5-5.8-5.1-14.6-3.3-24.6c0.8-4.6,2.3-12.5,8-14.7C86.1,378.6,88.9,379.3,90.7,380z"/>
				</g>
				<g>
					<path class="st7" d="M129,315.3c4.4,19.2,8.3,42,10.1,67.8c1.9,27.2,1,51.4-1,71.8c-3.2,0.6-7.5,1.8-12.2,4.4
						c-7.8,4.3-12.4,10.2-14.6,13.6c4-2,10.2-4.3,17.5-4c5.1,0.2,4.5,1.4,10.1,1.7c9.9,0.5,15.8-3,21.7-1.3c0.4,0.1,2.2,0.7,4.7,0.6
						c0.4,0,4.5-0.1,4.7-1.1c0.2-1.4-7.7-2.6-16.7-8.3c-2.6-1.6-4.6-3.2-5.8-4.2c1.7-21.4,2.3-46.2,0.6-73.7
						c-1.7-26.7-5.3-50.7-9.5-71.3C135.3,312.6,132.2,314,129,315.3z"/>
					<path class="st8" d="M119.9,306c-6.9,1.9-15.9,5.5-24.3,12.7c-26.4,22.2-24.4,58.5-24,63.6c1.4-8.1,6.2-28.5,23.7-46.1
						c12.1-12.1,25.1-17.8,32.6-20.5c-0.8,8.7-1,18.9,0.2,30.2c2.7,25.6,11.4,45.6,18.5,58.4c-4.4-11.5-9.3-28.3-10.4-49
						c-0.8-16.3,1-30.2,3.1-40.6c5.3,1,11.4,2.7,17.7,5.9c24.2,12.1,33.6,35.9,36.4,43.8c2-6.2,3.7-15.5,0.6-25.3
						c-5.9-19.1-27.5-32.9-53.9-33.4c4.5-2.7,11-5.5,19-6.3c25.4-2.5,43.4,18.3,45.6,20.9c-0.8-1.6-15.8-29.2-44.1-30.4
						c-12.5-0.5-22.1,4.4-26.9,7.3c-4.6-2.8-12.6-6.7-21.4-4.9C94,296.1,85.8,321,85.1,337.2c-0.7,19,8.8,33.1,13,38.6
						c-4.5-10.3-9.1-26.2-5.8-44.1c1.5-8.3,4.1-22.5,14.3-26.3C111.6,303.5,116.6,304.8,119.9,306z"/>
				</g>
			</g>
			<g style="clip-path:url(#SVGID_00000013185765404083360110000015991531201127287426_);">
				<g>
					<path class="st7" d="M428.3,416.2c1.6,7.1,3.1,15.5,3.7,25c0.7,10,0.4,19-0.4,26.5c-1.2,0.2-2.8,0.7-4.5,1.6
						c-2.9,1.6-4.6,3.8-5.4,5c1.5-0.8,3.7-1.6,6.5-1.5c1.9,0.1,1.7,0.5,3.7,0.6c3.7,0.2,5.8-1.1,8-0.5c0.1,0,0.8,0.2,1.7,0.2
						c0.1,0,1.7,0,1.7-0.4c0.1-0.5-2.8-1-6.2-3.1c-1-0.6-1.7-1.2-2.2-1.6c0.6-7.9,0.9-17.1,0.2-27.2c-0.6-9.9-1.9-18.7-3.5-26.3
						C430.7,415.2,429.5,415.7,428.3,416.2z"/>
					<path class="st8" d="M425,412.8c-2.6,0.7-5.9,2-9,4.7c-9.7,8.2-9,21.6-8.9,23.5c0.5-3,2.3-10.5,8.7-17c4.5-4.5,9.2-6.6,12-7.5
						c-0.3,3.2-0.4,7,0.1,11.1c1,9.5,4.2,16.8,6.8,21.6c-1.6-4.2-3.4-10.4-3.8-18.1c-0.3-6,0.4-11.1,1.2-15c2,0.4,4.2,1,6.5,2.2
						c8.9,4.5,12.4,13.2,13.4,16.2c0.7-2.3,1.4-5.7,0.2-9.3c-2.2-7.1-10.1-12.1-19.9-12.3c1.7-1,4-2,7-2.3c9.4-0.9,16,6.7,16.8,7.7
						c-0.3-0.6-5.8-10.8-16.3-11.2c-4.6-0.2-8.2,1.6-9.9,2.7c-1.7-1-4.7-2.5-7.9-1.8c-6.7,1.4-9.7,10.5-9.9,16.5
						c-0.3,7,3.2,12.2,4.8,14.3c-1.6-3.8-3.4-9.7-2.2-16.3c0.6-3.1,1.5-8.3,5.3-9.7C421.9,411.9,423.8,412.3,425,412.8z"/>
				</g>
				<g>
					<path class="st7" d="M450.3,370c2.9,12.7,5.5,27.9,6.7,44.9c1.2,18,0.7,34.1-0.6,47.6c-2.1,0.4-5,1.2-8.1,2.9
						c-5.2,2.9-8.2,6.8-9.7,9c2.7-1.3,6.7-2.9,11.6-2.7c3.4,0.1,3,0.9,6.7,1.1c6.6,0.3,10.5-2,14.4-0.9c0.3,0.1,1.5,0.4,3.1,0.4
						c0.3,0,3-0.1,3.1-0.7c0.2-0.9-5.1-1.7-11.1-5.5c-1.7-1.1-3-2.1-3.9-2.8c1.1-14.2,1.5-30.6,0.4-48.8
						c-1.1-17.7-3.5-33.6-6.3-47.3C454.5,368.2,452.4,369.1,450.3,370z"/>
					<path class="st8" d="M444.3,363.8c-4.6,1.3-10.5,3.7-16.1,8.4c-17.5,14.7-16.2,38.8-15.9,42.1c0.9-5.3,4.1-18.8,15.7-30.5
						c8-8,16.6-11.8,21.6-13.5c-0.5,5.7-0.7,12.5,0.1,20c1.8,17,7.6,30.2,12.3,38.7c-2.9-7.6-6.2-18.7-6.9-32.5
						c-0.6-10.8,0.6-20,2.1-26.9c3.5,0.7,7.5,1.8,11.7,3.9c16,8,22.3,23.7,24.1,29c1.3-4.1,2.4-10.3,0.4-16.8
						c-3.9-12.7-18.2-21.8-35.7-22.1c3-1.8,7.3-3.7,12.6-4.2c16.8-1.6,28.7,12.1,30.2,13.9c-0.5-1-10.5-19.4-29.2-20.1
						c-8.3-0.3-14.7,2.9-17.8,4.8c-3-1.9-8.4-4.4-14.2-3.2c-12,2.4-17.4,18.9-17.8,29.7c-0.5,12.6,5.8,21.9,8.6,25.6
						c-2.9-6.8-6-17.3-3.9-29.2c1-5.5,2.7-14.9,9.5-17.4C438.8,362.2,442.1,363,444.3,363.8z"/>
				</g>
			</g>
			<g style="clip-path:url(#SVGID_00000013185765404083360110000015991531201127287426_);">
				<g>
					<path class="st7" d="M745.8,341c-2.9,12.7-5.5,27.9-6.7,44.9c-1.2,18-0.7,34.1,0.6,47.6c2.1,0.4,5,1.2,8.1,2.9
						c5.2,2.9,8.2,6.8,9.7,9c-2.7-1.3-6.7-2.9-11.6-2.7c-3.4,0.1-3,0.9-6.7,1.1c-6.6,0.3-10.5-2-14.4-0.9c-0.3,0.1-1.5,0.4-3.1,0.4
						c-0.3,0-3-0.1-3.1-0.7c-0.2-0.9,5.1-1.7,11.1-5.5c1.7-1.1,3-2.1,3.9-2.8c-1.1-14.2-1.5-30.6-0.4-48.8
						c1.1-17.7,3.5-33.6,6.3-47.3C741.6,339.3,743.7,340.1,745.8,341z"/>
					<path class="st8" d="M751.9,334.9c4.6,1.3,10.5,3.7,16.1,8.4c17.5,14.7,16.2,38.8,15.9,42.1c-0.9-5.3-4.1-18.8-15.7-30.5
						c-8-8-16.6-11.8-21.6-13.5c0.5,5.7,0.7,12.5-0.1,20c-1.8,17-7.6,30.2-12.3,38.7c2.9-7.6,6.2-18.7,6.9-32.5
						c0.6-10.8-0.6-20-2.1-26.9c-3.5,0.7-7.5,1.8-11.7,3.9c-16,8-22.3,23.7-24.1,29c-1.3-4.1-2.4-10.3-0.4-16.8
						c3.9-12.7,18.2-21.8,35.7-22.1c-3-1.8-7.3-3.7-12.6-4.2c-16.8-1.6-28.7,12.1-30.2,13.9c0.5-1,10.5-19.4,29.2-20.1
						c8.3-0.3,14.7,2.9,17.8,4.8c3-1.9,8.4-4.4,14.2-3.2c12,2.4,17.4,18.9,17.8,29.7c0.5,12.6-5.8,21.9-8.6,25.6
						c2.9-6.8,6-17.3,3.9-29.2c-1-5.5-2.7-14.9-9.5-17.4C757.4,333.2,754,334.1,751.9,334.9z"/>
				</g>
			</g>
		</g>
		<g style="clip-path:url(#SVGID_00000024720742298770958640000004529910763901498559_);">
			<g>
				<g>
					<g>
						<g class="st9">
							<path class="st10" d="M244,349.5c0.2,0,0.3,0,0.5-0.1c0.2-0.2,0.2-0.6,0-0.8c-2.1-2.3-3.6-2.3-5.9-2.3c-3,0-7.4,0.1-17.4-5
								c-0.3-0.1-0.6,0-0.8,0.2c-0.1,0.3,0,0.6,0.2,0.8c10.2,5.2,14.8,5.2,17.9,5.1c2.2,0,3.2,0,5,1.9
								C243.7,349.4,243.9,349.5,244,349.5z"/>
						</g>
						<g class="st9">
							<path class="st10" d="M256.2,350.7c2.1,0.3,4.9-0.1,9.3-1.9c0.3-0.1,0.4-0.5,0.3-0.8c-0.1-0.3-0.5-0.4-0.8-0.3
								c-7.1,3.1-9.8,1.8-11.9,0.8c-1.5-0.7-3-1.4-5.5,0c-0.3,0.2-0.4,0.5-0.2,0.8c0.2,0.3,0.5,0.4,0.8,0.2c2-1.1,2.9-0.7,4.4,0
								C253.6,350,254.7,350.5,256.2,350.7z"/>
						</g>
						<path class="st11" d="M201.7,428.5c-0.2,4.9-1.8,9.9-5,13.2c-0.5,0.5-1,1-1.5,1.6c-0.1,0.1-0.3,0.3-0.4,0.4
							c-0.4,0.4-0.8,0.8-1.2,1.3c-0.3,0.3-0.5,0.6-0.8,0.8c-0.1,0.1-0.3,0.3-0.4,0.4c-0.4,0.4-0.8,0.8-1.1,1.2
							c-0.6,0.6-1.1,1.2-1.6,1.7c-0.2,0.2-0.3,0.3-0.5,0.5c-0.1,0.1-0.2,0.2-0.3,0.3c0,0-0.1,0.1-0.1,0.1c-0.1,0.1-0.2,0.2-0.3,0.3
							c-0.3,0.3-0.5,0.6-0.7,0.8c-0.1,0.1-0.1,0.1-0.2,0.2c-0.2,0.3-0.4,0.4-0.4,0.4c0.5,0.6,1,1.1,1.6,1.6c0.2,0.2,0.4,0.4,0.6,0.6
							c0.5,0.6,1.1,1.1,1.6,1.6c0.3,0.3,0.5,0.5,0.8,0.8c1.4,1.4,2.8,2.7,4.2,4c0.2,0.2,0.4,0.3,0.6,0.5c0.2,0.2,0.4,0.4,0.6,0.5
							c0.3,0.2,0.6,0.5,0.9,0.7c0.5,0.5,1.1,0.9,1.6,1.4c0.1,0.1,0.3,0.2,0.4,0.3c0.2,0.2,0.4,0.3,0.6,0.5c0.2,0.2,0.5,0.4,0.8,0.6
							c0,0,0.1,0.1,0.1,0.1l0,0c11.4,9.1,22.3,13.9,32.4,15.2c7.4,1,15.1-1.2,20.7-3.4c5.2-2.1,8.6-4.2,8.6-4.2
							c-0.3-4.6-0.7-12.3-1.9-20.8c-1.1-8.5,2.9-16.2,5.1-22.2c2.2-6,2.7-12.8,3.6-21.4c2.2-20.8,5-25.1,7.8-28.6
							c0.8-1,1.6-2,2.4-3.2c1.3-2,2.6-4.9,3.8-10.1c0.2-0.8,0.3-1.5,0.4-2.3c0-0.3,0.1-0.5,0.1-0.8l0-0.1
							c0.7-9.1-6.6-15.8-12.5-18.5c-2.5-1.1-4.6-2.3-6.6-3.4c-0.8-0.5-1.7-1-2.5-1.5c-3.1-1.9-6.2-4.1-8.3-6.1
							c-0.6-0.6-1.1-1.2-1.5-1.7c-0.7-0.9-1-1.6-0.9-2.3c0.4-3.1,2.5-19.4,2.5-19.4l-26-10.7c0,0-1.1,14.7-4.6,19.9
							c-3.5,5.2-4.8,6.4-12.5,10c-5.2,2.4-10.4,4.8-13.2,6c-0.8,0.3-1.6,0.5-2.3,0.7c-1.7,0.5-6.8,2.4-7.8,2.8
							c-13.7,5.7-0.3,52.5,2.3,58c3.7,7.7,10.4,22.3,10.8,28.1c0,0.4,0.1,0.8,0.1,1.2C201.8,427,201.8,427.8,201.7,428.5z"/>
						
							<linearGradient id="SVGID_00000067215783725474751020000001308958910007536046_" gradientUnits="userSpaceOnUse" x1="12306.3613" y1="290.7045" x2="12229.5625" y2="632.456" gradientTransform="matrix(-0.9919 -0.1272 -0.1272 0.9919 12430.1855 1585.2748)">
							<stop  offset="0" style="stop-color:#FFEADB"/>
							<stop  offset="0.9944" style="stop-color:#B060F4"/>
						</linearGradient>
						<path style="opacity:0.6;fill:url(#SVGID_00000067215783725474751020000001308958910007536046_);" d="M201.7,428.5
							c-0.2,4.9-1.8,9.9-5,13.2c-0.5,0.5-1,1-1.5,1.6c-0.1,0.1-0.3,0.3-0.4,0.4c-0.4,0.4-0.8,0.8-1.2,1.3c-0.3,0.3-0.5,0.6-0.8,0.8
							c-0.1,0.1-0.3,0.3-0.4,0.4c-0.4,0.4-0.8,0.8-1.1,1.2c0,0,0,0,0,0c-0.6,0.6-1.1,1.2-1.5,1.7c-0.2,0.2-0.3,0.3-0.5,0.5
							c-0.1,0.1-0.2,0.2-0.3,0.3c0,0-0.1,0.1-0.1,0.1c-0.1,0.1-0.2,0.2-0.3,0.3c-0.3,0.3-0.5,0.6-0.7,0.8c-0.1,0.1-0.1,0.1-0.2,0.2
							c-0.2,0.3-0.4,0.4-0.4,0.4c0.5,0.6,1.1,1.1,1.6,1.7c0.2,0.2,0.4,0.4,0.6,0.6c0.5,0.6,1.1,1.1,1.6,1.6c0.3,0.3,0.5,0.5,0.8,0.8
							c1.4,1.4,2.8,2.7,4.2,4c0.2,0.2,0.4,0.3,0.6,0.5c0.2,0.2,0.4,0.4,0.6,0.5c0.3,0.2,0.6,0.5,0.8,0.7c0.5,0.5,1.1,0.9,1.6,1.4
							c0.1,0.1,0.3,0.2,0.4,0.3c0.2,0.2,0.4,0.3,0.6,0.5c0.3,0.2,0.5,0.4,0.8,0.6c0,0,0.1,0.1,0.1,0.1l0,0l1.3,0.1
							c-7.1-6-6.7-10.2-6.7-10.2s5.9-2.4,10-15.2c4.1-12.8-0.9-26-3-38.9c-1.9-11.3-5.1-27.5,0.1-49.1c1.1-4.5-0.3-9.2-3.6-12.4
							l-3.1-3c-0.1-0.1-0.2-0.1-0.3-0.2c-1.7,0.5-3,0.9-4.1,1.3c-13.7,5.7-4.1,54-1.5,59.5c3.7,7.7,10.4,22.3,10.8,28.2
							c0,0.4,0.1,0.8,0.1,1.2C201.8,427,201.8,427.8,201.7,428.5z"/>
					</g>
					<g>
						<path class="st13" d="M164,718.1l-2.7-4.3c2.8-0.7,11.8,0.1,19.3,2.5L164,718.1z"/>
						<polygon class="st13" points="191.8,712.4 199.4,714.5 192.8,715.5 						"/>
						<g>
							<path class="st14" d="M184.4,747.8c0.6,1.7,6.5,4.4,6.5,4.4l5.4-1.8c1.1,1.9,0.9,3.8,1,4.4c0.2,1.9,1.6,5.6,3.1,6.5
								c2.6,1.4,4.9,2.3,7.2,2.8c3.1,0.8,6.1,0.9,9.4,1.1c5.7,0.2,7.4-2.2,7.4-2.2s0.5-3.8,0.6-4.3c0-0.2-0.1-0.3-0.2-0.5
								c-0.2-0.3-0.6-0.5-0.6-0.5s0.4-1.6-0.1-3c-0.9-2.5-5.5-4.6-6.3-5.3c-3-2.2-6.4-6.5-7.6-10.2c-1.3-3.7-1.8-10.3-1.8-11.1
								c0.2-3.5,1.2-10.8,0.8-11.1c-0.4-0.3-5.3-1.2-7-1.5c-1.7-0.3-2.6,0.8-2.7,0.8c0,0,0,0,0,0l-3.9-1.2l-2.4-0.7L193,713
								l-1.2-0.6l-1.5,10c0,0-1.7,2.7-2.9,5c-1.1,2.3-1.2,6.2-1.2,6.2s0,0,0,0c0,0-0.2,0.1-0.4,0.2c-0.1,0.1-0.2,0.2-0.3,0.4
								c0,0.1,0,0.3-0.1,0.4c0,0,0,0,0,0C184.8,738.9,184.2,747.4,184.4,747.8z"/>
							<path class="st15" d="M192.1,733.6c1.4,1.6,3.3,1.8,3.7-0.1c0.4-1.9,2.1-14.5,3.6-17.3l0,0c0,0,0,0,0,0l-6.3-1.9
								c0,0-1.5,10.8-2,13.9C190.6,731.2,190.6,732,192.1,733.6z"/>
							<path d="M184.4,747.8c0.6,1.7,6.5,4.4,6.5,4.4l5.4-1.8c1.1,1.9,0.9,3.8,1,4.4c0.2,1.9,1.6,5.6,3.1,6.5
								c6.1,3.3,10.8,3.7,16.6,3.9c5.7,0.2,7.4-2.2,7.4-2.2s0.5-3.8,0.6-4.3c0-0.2-0.1-0.3-0.2-0.5c-0.5,0.6-1.5,1.1-3.2,1.4
								c-5.4,0.8-12.6-0.3-16.5-1.4c-3.9-1.1-5.3-2.1-6.7-7.2c-1.4-5.2-4.1-8.2-8.3-11.7c-3.7-3.1-4.2-4-4.3-5.2
								c-0.1,0.1-0.2,0.2-0.3,0.4c0,0.1,0,0.3-0.1,0.4c0,0,0,0,0,0C184.8,738.9,184.2,747.4,184.4,747.8z"/>
							<path class="st16" d="M185.4,734.7C185.4,734.7,185.4,734.7,185.4,734.7c0.1,1,0.6,1.5,2.6,3.4c2,1.9,5.6,4.6,7.8,7.9
								c2.2,3.4,2.5,7.1,3.3,8.4c1.2,1.9,2.4,3.2,5.9,4c3.5,0.8,9.6,1.9,14.6,1.5c5-0.4,5.3-1.4,5.3-1.4c0.1-0.5-0.7-1-0.7-1
								s0,0.7-0.2,0.9c-0.7,0.6-3.9,1.2-7.7,0.9c-7.1-0.6-13.3-2-15.3-3.8c-2-1.9-2-5.8-3.9-9.4c-1.9-3.6-8.1-8.6-9.8-10.3
								c-1.7-1.6-1.1-2.3-1-2.3c0,0-0.6,0.2-0.7,0.6C185.5,734.4,185.5,734.5,185.4,734.7z"/>
						</g>
						<g>
							<path class="st14" d="M157.6,737.3c0,0,0.3,10.3,0.5,12.3c0.2,2,2,3.7,2.2,3.8c0,0,0,0,0,0l2.7,0.3c0,0,0.8,1.7,1.1,4.4
								c0.6,5.8,4.6,8.4,10.6,9.6c0.9,0.2,1.8,0.3,2.8,0.4c11.1,1.3,13.4-1.9,13.4-1.9s1.3-3.8,1.3-4.4c0-0.1,0-0.1,0-0.2
								c0-0.2-0.1-0.3-0.2-0.5c-0.2-0.3-0.4-0.6-0.4-0.6s0.2-0.7,0.5-1.8c1.1-3.9-4.2-8.3-5.5-9.9c-10.4-12-7.6-20.2-6.1-32.7
								c-3.6-1.3-9.2-0.7-11.5-1c-2.3-0.4-3.3,0.1-3.3,0.1c-0.2,0-0.4-0.1-0.6-0.1c-1.4-0.3-2.1-0.7-2.6-1.3
								c-0.5-0.6-1.3,0.1-1.3-0.2c0,0.4,0,3-0.3,6.4c-0.4,4.2-0.2,5.6-1.8,9.2c-1.5,3.5-1.1,7.3-1.1,7.3l-0.2,0.3L157.6,737.3z"/>
							<path d="M160.7,734.1c0.5,1.4,1.4,4,2.9,2.4c1.6-1.6,1.2-5.2,1.3-8.4c0.1-3.2,0.8-12.8,0.8-12.8c-1.7-0.3-2.7-0.7-3.2-1.4
								c-0.3,3-1,11.6-1.5,14.3C160.4,731.9,160.3,732.7,160.7,734.1z"/>
							<path d="M157.6,737.3c0,0-0.7,10.2-0.5,12.2c0.2,2,3,3.8,3.2,3.9c0,0,0,0,0,0l2.7,0.3c0,0,0.8,1.7,1.1,4.4
								c0.6,5.8,4.6,8.4,10.6,9.6c0.9,0.2,1.8,0.3,2.8,0.4c11.1,1.3,13.4-1.9,13.4-1.9s1.3-3.8,1.3-4.4c0-0.1,0-0.1,0-0.2
								c0-0.2-0.1-0.3-0.2-0.5c-1,1.1-2.2,1.9-6.1,2.2c0,0-0.1,0-0.1,0c-4.4,0.3-9.9,0-15.1-1.9c-3.1-1.2-4.6-3.2-5.3-5.7
								c-0.7-2.6-3-10-5.8-15.4c-0.7-1.4-1.4-2.4-1.9-3.2L157.6,737.3z"/>
							<path class="st16" d="M157.6,737.3c0,0,0.9,1.2,2.5,4.5c1.6,3.3,4.1,9.8,4.7,12.5c0.6,2.7,1.5,5.4,3.8,6.6
								c4.3,2.3,11.3,3.1,15,3c7.5-0.2,8.7-2.3,8.7-2.3l0,0c-0.1-0.5-0.6-1.1-0.6-1.1c-0.3,1.1-0.4,1-1,1.3
								c-2.5,1.2-7.7,1.4-13.6,0.7c-5.9-0.8-10.4-2.3-11.5-6.8c-1.1-4.5-2.8-9-4-11.7c-1.2-2.8-3.7-7.3-3.7-7.3L157.6,737.3z"/>
						</g>
					</g>
					<g>
						<path class="st11" d="M135,716.4c1.5,2.5,7.8,6,14.4,7.6c2,0.5,4.1,0.8,6,0.8c0.5,1.1,1.9,2.2,4.2,3.3
							c16.6,8.2,75.5,16.2,86.4,8.8c6.3-31,11.2-62.3,14.5-93.8c3.1-29.4,4.9-58.9,5.3-88.5c0.2-14.8,0.2-29.5-0.3-44.3
							c-0.5-14.3-2.4-28.4-2.8-42.7c-0.2-7.7,0-14.8,0.5-21.2c2.5-14.4,5.6-28.7,8.8-42.9c4.2-18.4,4.4-38.2-3.5-55.7
							c-1.4-3.1-3.1-6.2-4.9-9.1l-4.7-2.3l-49.8-8c0,0-4,1.8-4,1.8c5.7,9.9,6.9,21.6,3.9,32.5c-1,3.7-11.7,28.7-17.5,26
							c-3.7-1.7-6.1-8-6.2-8.2c4.9,10.3,7.4,19.4,8.8,26c1.5,7.1,2.5,14.7,1.8,22.1c-0.7,7-3.5,13.2-6.6,19.4
							c-4.1,8.2-6.5,16.7-8.7,25.5c-2.3,9.1-4.4,18.2-6.6,27.3C168,526.2,152.5,606.7,135,716.4z"/>
					</g>
					<g>
						<g>
							<path class="st11" d="M251.2,324.8l3.4,0.4c8.2,1.1,15.7-4.8,16.8-13l0.9-7.1l-18.2-2.3L251.2,324.8z"/>
							<g>
								<polygon class="st17" points="276.5,285.7 274.6,285.5 271.5,304.6 273.3,304.9 								"/>
								<path class="st18" d="M220.7,276.3c-0.2,3.2,0.1,6.6,1,10.2c0.2,0.8,0.4,1.7,0.7,2.5l8.5,14.1c0,0,1.6,4.3,2.9,6.1
									c0.7,0.9,16.3,14.3,20.1,14.9c0.5,0.1,1,0.1,1.4,0.2l0,0c2.8,0.2,4.2-0.5,4.9-1.2c0.3-0.3,1.5-2.7,4.6-6.2
									c6.5-7.2,8.4-15.8,9-21.1c0.2-1.7,0.2-3.1,0.2-4c0,0,1.8-4.4,2.1-6.3c0-0.1,0-0.2,0-0.3c0.1-0.5,0.5-3.5,0.2-7.5
									c-0.5-9.2-4.5-24.2-23.6-29.5C240.1,244.5,221.8,256.9,220.7,276.3z"/>
								<g>
									<path class="st19" d="M259.9,309.7c1.1-0.1,1.9-0.1,2.6,0.4c1.4,0.9,1.7,3.2,1.3,3.4c-0.2,0.1-0.5-0.5-1.4-1.1
										c-1.1-0.7-2.1-0.8-5.3-0.9c-3.7-0.2-3.9-0.2-4-0.3C253.1,310.7,256.9,309.9,259.9,309.7z"/>
								</g>
								<g>
									<path class="st20" d="M256.1,291.8c-0.6,0.5-2.8,1.8-5.7,1.5c-1.5-0.2-2.6-0.7-3.3-1.1l-2.5-1.9c-0.1-0.5-0.1-0.9-0.2-1.4
										c0.8-0.6,2.1-1.4,3.8-1.7c1-0.2,3.1-0.6,4.9,0.6c0.7,0.4,1.1,1,1.4,1.4C255.5,290.2,255.9,291.2,256.1,291.8z"/>
									<g>
										<defs>
											<path id="SVGID_00000119802050019690670750000000976568543928882050_" d="M256.1,291.8c-0.6,0.5-2.8,1.8-5.7,1.5
												c-1.5-0.2-2.6-0.7-3.3-1.1l-2.5-1.9c-0.1-0.5-0.1-0.9-0.2-1.4c0.8-0.6,2.1-1.4,3.8-1.7c1-0.2,3.1-0.6,4.9,0.6
												c0.7,0.4,1.1,1,1.4,1.4C255.5,290.2,255.9,291.2,256.1,291.8z"/>
										</defs>
										<clipPath id="SVGID_00000180351905116215212310000015524908379656779926_">
											<use xlink:href="#SVGID_00000119802050019690670750000000976568543928882050_"  style="overflow:visible;"/>
										</clipPath>
										<g style="clip-path:url(#SVGID_00000180351905116215212310000015524908379656779926_);">
											<path class="st22" d="M254,290.6c-0.1,1.6-1.5,3.2-3.1,3c-1.7-0.2-2.7-2-2.4-3.6c0.2-1.4,1.5-2.7,3.1-2.6
												C253,287.6,254,289.2,254,290.6z"/>
											<path d="M252.8,290.9c-0.1,0.9-0.7,1.6-1.4,1.5c-0.7-0.1-1.2-0.9-1.1-1.8c0.1-0.9,0.7-1.6,1.4-1.5
												C252.5,289.2,252.9,290,252.8,290.9z"/>
											<path class="st20" d="M251.3,289.7c0,0.4-0.3,0.7-0.6,0.7c-0.3,0-0.5-0.4-0.5-0.8c0-0.4,0.3-0.7,0.6-0.7
												C251.1,288.9,251.3,289.3,251.3,289.7z"/>
										</g>
									</g>
									<path d="M256.1,291.9c0.1-0.1-0.6-2.8-2.9-4.3c-1.6-1.1-3.4-1-4.1-1c-2.6,0.1-4.3,1.4-5,1.9c-0.6-0.1-1.1-0.2-1.7-0.2
										c0.3,0.4,0.8,1,1.4,1.7c1,1.1,1.8,1.9,3,2.5c0.5,0.3,1.4,0.6,2.5,0.8c-0.5-0.1-1-0.4-1.5-0.7c-1.6-0.9-2.5-2.1-3-2.9
										c0.6-0.6,1.6-1.3,3.1-1.7c2.6-0.7,5.2,0.3,6.7,1.8C255.7,290.7,256.1,291.9,256.1,291.9z"/>
								</g>
								<path d="M260.8,286.5c0,0.2,0,0.8-0.4,1.1c-0.5,0.4-1.7,0.2-2.4-0.9c-0.5-0.5-1.3-1.2-2.3-1.9c-2.2-1.8-3.5-2.9-5-3.6
									c-1.2-0.6-3.5-1.4-7-1.1c1.4-0.4,4.4-1.2,8-0.3C257.3,281.2,260.1,285.6,260.8,286.5z"/>
								<g>
									<path class="st20" d="M264.9,293.4c0.3,0.3,2.1,2.6,4.9,2.6c0.4,0,1.5,0,2.7-0.8c1.4-0.9,1.9-2.2,2.1-2.7
										c-0.3-0.4-1.2-1.8-3.1-2.3c-2.3-0.6-4.1,0.6-4.5,0.8C265.8,291.8,265.2,292.8,264.9,293.4z"/>
									<g>
										<defs>
											<path id="SVGID_00000100351400756680187610000010103625708813259196_" d="M264.9,293.4c0.2,0.3,1.8,2.4,4.4,2.6
												c0.4,0,1.8,0.1,3.3-0.8c0.5-0.3,1.5-1.5,2.1-2.7c0.7-1.4-2.9-2.3-3.1-2.3c-2.1-0.5-3.8,0.4-4.4,0.8
												C265.9,291.7,265.2,292.8,264.9,293.4z"/>
										</defs>
										<clipPath id="SVGID_00000127723669662678383180000002460771421229490308_">
											<use xlink:href="#SVGID_00000100351400756680187610000010103625708813259196_"  style="overflow:visible;"/>
										</clipPath>
										<g style="clip-path:url(#SVGID_00000127723669662678383180000002460771421229490308_);">
											<path class="st22" d="M272,293.6c-0.4,1.7-1.8,2.7-3,2.4c-1.2-0.4-1.9-2-1.5-3.6c0.4-1.7,1.8-2.7,3-2.4
												C271.8,290.3,272.4,291.9,272,293.6z"/>
											<path d="M271.4,293.4c-0.2,1-1,1.6-1.6,1.4c-0.7-0.2-1-1.1-0.8-2.1c0.2-1,1-1.6,1.6-1.4
												C271.3,291.5,271.6,292.5,271.4,293.4z"/>
											<path class="st20" d="M270.1,292c-0.1,0.4-0.4,0.6-0.6,0.5c-0.3-0.1-0.4-0.4-0.3-0.8c0.1-0.4,0.4-0.6,0.6-0.5
												C270.1,291.3,270.2,291.7,270.1,292z"/>
										</g>
									</g>
									<path d="M268.4,289.9c2.6-0.9,4.8,0.3,5.3,0.6c0.6,0.4,1.1,0.8,1.4,1.1c0.4,0.1,0.7,0.3,1.1,0.4c-0.1,0.2-0.3,0.4-0.5,0.7
										c-0.1,0.2-1.1,1.5-2.1,2.3c-1.6,1.2-3.7,1-4.4,0.9c0.4,0,2-0.1,3.4-1.3c1-0.9,1.3-1.9,1.4-2.3c-0.3-0.4-1.1-1.3-2.5-1.7
										c-1-0.3-1.8-0.1-2.2,0c-2.4,0.4-3.9,2.2-4.3,2.8C265.1,293,266,290.8,268.4,289.9z"/>
								</g>
								<path d="M267.2,288.1c-0.7,0-1.5-0.3-1.6-0.8c0-0.3,0.3-0.6,0.4-0.8c1.8-1.6,3.2-2.1,3.2-2.1c0.9-0.3,1.9-0.5,3-0.7
									c1.5-0.2,2.9-0.2,4-0.1c-0.1,0.5-0.2,1-0.2,1.6c-2.7,0-4.2,0.6-5.1,1.1c-0.7,0.4-1.4,0.6-2,1.1
									C268.8,287.5,268.1,288.1,267.2,288.1z"/>
								<g>
									<g>
										<path class="st24" d="M259,305.4c0,0,0.1,0.8,0.8,1.3c0.3,0.2,0.7,0.5,1.2,0.6c0.2,0,0.3,0.1,0.5,0.1
											c0.8,0.1,1.9-0.4,2.1-1.2c0-0.1,0-0.2,0-0.4c-0.1,0.1-0.3,0.2-0.5,0.3c0,0-0.4,0.2-0.9,0.2
											C261.6,306.4,260.4,306.1,259,305.4z"/>
									</g>
								</g>
							</g>
							
								<linearGradient id="SVGID_00000183250600925868272990000001811624098877300364_" gradientUnits="userSpaceOnUse" x1="184.2814" y1="255.3835" x2="184.2834" y2="255.3835" gradientTransform="matrix(0.9919 0.1272 -0.1272 0.9919 125.8101 6.7439)">
								<stop  offset="0" style="stop-color:#6D3138"/>
								<stop  offset="1" style="stop-color:#600C31"/>
							</linearGradient>
							<path style="fill:url(#SVGID_00000183250600925868272990000001811624098877300364_);" d="M276.1,283.5
								C276.1,283.5,276.1,283.5,276.1,283.5L276.1,283.5L276.1,283.5z"/>
							<path class="st11" d="M276.1,274.9c-0.2-1.3-0.4-2.5-0.6-3.6c-1.3-5.8-6-10.3-11.8-11.2c-4.9-0.8-10.5-0.2-14.9,2.8
								c-7.6,5.2-11.7,12-17,29l1-18.6l8.8-21.8l16.2-2.7l11,4.8l5,5.8c1.8,5.6,1.8,6,2.2,8c0.4,2,0.3,4.1,0.3,4.1l0,1.8l0,0.3
								l0,0.1L276.1,274.9z"/>
							<path class="st26" d="M194.7,335.9c0.4,4.5,6.5,6.5,18.5,17.2c0,0,0,0,0,0c12.9,8.4,26.2,16.4,40.4,18.2
								c0.8,0.1,1.5,0.1,2.2-0.1c7.6-1.5,11.2-15.8,11-19.9c-0.1-3.9-2.4-8.2-2.5-9.9c-0.4-5.9,3-6.1,2-9c-1-2.9-1.5-5.1-0.2-7.5
								c1.3-2.4,4.1-5.3,6.2-10.6c0.8-2.9,2.4-6.1,3.2-9.2c2.8-11.1,0.7-21.5,0.7-21.6c0,0.8-1.1,5-2,11.8c-1,7.6-7.4,19.8-8.6,22.6
								c-0.8,1.8-2.6,3.9-5.6,5c-0.1,0-0.7,0.7-2,0.9c-0.2,0-0.7,0.1-1.2,0.1c-0.7,0-1.5,0-2.4-0.1c-1.8-0.2-4-1.6-6.6-3.6
								c-2.6-1.9-5.4-4.4-8.6-6.8c-6.3-4.8-6.3-10.3-6.4-11.4c-1.4-10.7,2.4-32.8,8.1-41.6c5.7-8.7,15.7-11.5,26-6.5
								c8.9,4.4,9.3,18.5,9.3,19.6c0.2-3.2,0.3-7.7-0.6-10.8c-1.6-5.8-6-11.1-13.1-13.9c-6.2-2.5-11.5-3.6-16.2-3.7
								c-24.4-0.5-28.9,27.6-30.4,35.1c-1.2,6.1,0.5,9.5,0.5,9.5l-0.9,5.7l-0.4,3l0.1,9.1l1.3,3.8c-0.1,0-2-1-2.7-0.4
								c-0.2,0.1-0.5,0.5-1,1c-1.8,1.8-5.3,5.3-6.5,6.9c-0.2,0.3-0.4,0.6-0.6,0.9l0,0c-0.1,0.2-2.1,4.6-4.6,7
								C198.5,329.3,194.3,331.4,194.7,335.9z"/>
							<g>
								<path class="st27" d="M266.7,323.6c-3.1,4.5-8.6,9-17.4,7.4c0,0,7.6,3.3,11.8,0.7C265.3,329,267.2,322.9,266.7,323.6z"/>
								<path class="st27" d="M259.9,338.8c-12.6,8.8-24.6,11.3-36.4-2.7c0,0,5.6,11,15.4,12.1C248.6,349.4,256.7,342,259.9,338.8z"
									/>
								<path class="st27" d="M256.8,324.1c-1.8,0.6-4.4,1-7.7,0.6c-4.7-0.5-8.2-4.6-8.3-4.8c0.1,0.1,6.3,4.4,13.6,4l0,0
									C255.3,324.1,256.1,324.1,256.8,324.1z"/>
								<path class="st27" d="M230.6,282.8c0,10.1,1.2,21.6,1.2,21.6s-4-13.1-3.5-21.9C228.9,273.7,230.6,272.7,230.6,282.8z"/>
							</g>
						</g>
						<path class="st27" d="M263.8,353.9c-3.5,8.6-7.2,15.3-18.7,12.4c-11.5-2.9-18.6-8.3-18.6-8.3s18.1,8.8,25.7,6.8
							C259.9,362.8,267.4,345.3,263.8,353.9z"/>
					</g>
					<g>
						<g>
							<path class="st18" d="M178.8,533.9c-0.1,0.3-0.4,0.5-0.7,0.6c-1.5,0.6-3.2-2.3-3.8-3.8c-0.7-1.5-0.6-6.6-0.3-8.2l-0.9,0.1
								c0,0-0.8,3.4-1.4,4.4c0,0,0,2.9-0.4,4.7c0,0,0.1,1.7,0.8,2.9c0.1,0.2,0.2,0.4,0.4,0.5c0.2,0.2,0.3,0.4,0.4,0.6
								c0.1,0.1,0.1,0.2,0.1,0.3c0,0.1,0,0.1,0.1,0.2c0,0.1,0,0.1,0.1,0.2c0,0.1,0,0.1,0,0.2c0.1,0.2,0.1,0.5,0.1,0.7c0,0,0,0,0,0
								c0,0.1,0,0.1,0,0.2c0,0.1,0,0.2,0,0.3c0,0.1,0,0.1,0,0.2c0,0,0,0.1,0,0.1c0,0,0,0,0,0c0,0,0,0.1,0,0.1
								c-0.1,0.3-0.3,0.6-0.5,0.8c-0.9,0.6-2.7-0.6-4.1-2.3c-1.4-1.7-1.9-3.2-1.9-3.2s-0.1,0.2-0.6,0.3c0,0-0.1,0-0.1,0
								c0,0-0.1,0-0.1,0c0,0-0.1,0-0.1,0c-0.1,0-0.1,0-0.2,0c0,0-0.1,0-0.1,0c-0.1,0-0.2,0-0.3-0.1c-1.2-0.3-2.3-0.7-2.7-1.3
								c-0.4-0.6-0.5-1.4-0.5-1.4s-0.2-0.1-0.6-0.1c0,0-0.1,0-0.1,0c0,0,0,0,0,0c0,0-0.1,0-0.1,0c0,0,0,0,0,0c0,0-0.1,0-0.1,0
								c-0.1,0-0.2-0.1-0.3-0.1c0,0-0.1,0-0.1,0c-0.3-0.1-0.5-0.2-0.7-0.3c-0.2-0.1-0.4-0.5-0.5-1c-0.2-0.8-0.4-1.8-0.5-2.7
								c0,0-0.2,0-0.6-0.1c-0.4-0.1-0.9-0.3-1.1-0.7c-0.2-0.4-0.3-8,0-9c0.3-1.1,2.9-6.4,5.8-12.5c0.8-1.6,0.7-3.6,0.5-4.8
								c-0.2-1.3,0.8-3.3,1.1-4.6L177,495c0,0-0.3,1.9-0.4,3c-0.1,3.1,0.2,5.4,0.6,7.1c0,0,0,0.1,0.1,0.4c0.2,0.9,0.5,1.6,0.8,2.2
								c0.8,1.8,1.6,4,1.7,6.2c0.2,2.3,0.4,3.8,0.6,5c0,0.2-1,3.8-1.1,4.5c0,0.7-0.4,5-0.5,7C178.9,531.8,179.3,533.1,178.8,533.9z"
								/>
							<path class="st28" d="M166.6,533.4c0,0-0.1,0.2-0.6,0.3l0,0c0,0-0.7-1-0.7-1.9c0-0.8,0.2-6,0.2-6.3c0.2,1.5,0,5.8,0.2,6.4
								C166,532.5,166.6,533.4,166.6,533.4z"/>
							<path class="st28" d="M161.3,530.7L161.3,530.7l0.2-6.3l0.4,6.4C161.9,530.9,161.7,530.8,161.3,530.7z"/>
							<path class="st28" d="M158.2,526.3C158.2,526.3,158.2,526.3,158.2,526.3l0.4-2.5l0.1,2.6
								C158.8,526.4,158.6,526.4,158.2,526.3z"/>
							<polygon class="st28" points="175,519.8 173.4,522.6 174,522.5 							"/>
						</g>
						<path class="st11" d="M159.8,499.5c3.6,4.9,8.8,5.4,20.1,5c3-14.6,13.9-72.4,18-90.5l0.1,0c1.5-7.7,4.6-21.2,6-28.9
							c1.5-10.5,2.3-17.9,3-25.2c0,0-1.8-5.6-6-11.3c0,0,0,0,0,0c0,0,0,0,0,0c-2.9-3.8-7-7.7-12.4-9.8c-6.5,2.8-7.9,16.3-9.2,28.5
							c-1.1,8.5-2.2,18.5-3.5,27.1C171.6,428.9,162.8,465.6,159.8,499.5z"/>
					</g>
				</g>
			</g>
			<g>
				<g>
					<g>
						<g>
							<path class="st18" d="M336.2,391c0,0.5-4.8,6.9-4.8,6.9l9.5,7c0,0,2.6-3.3,3.3-4c0.7-0.7,9.7-5.6,12.1-7.7
								c2.4-2.1,3.3-3.6,3.3-4.5c0-1-1.1-4.2-1.3-4.8c-0.2-0.6-0.5-0.8-0.5-0.8s0.3-0.3,0.1-1.3c-0.2-1-1-3.2-1-3.2s0.4-2.5-0.5-4.7
								c-0.2-0.6-0.8-0.8-0.8-0.8s2.6-3.1,5.4-7.4c1-1.6,3.4-5.4,3.4-5.4s0.2-1.2-0.8-1.9c-1-0.8-3.5,1.2-5,3.3
								c-1.5,2.1-6.5,9-8.9,11.6c-1.2,1.3-2.6,2.8-2.6,2.8s-0.6-0.1-1.7,0.4c-1.1,0.5-4.6,2.1-5.2,2.8
								C339.5,379.9,336.6,386.1,336.2,391z"/>
							<path class="st29" d="M351.8,379.9c0.1,0.2,0.1,0.3,0.2,0.4c0.1,0,2.9-2.3,3.2-2.4c0.3-0.1,1.5,0.5,1.7,0.6l-1.5-0.7
								c-0.1-0.1-0.3,0-0.4,0L351.8,379.9z"/>
							<path class="st29" d="M349,377c0.1,0.1,0.2,0.2,0.3,0.2c2.4-2.7,3.4-3.5,4.2-4c0.8-0.5,2-0.2,2-0.2s-1-0.7-2.1-0.1
								C352.3,373.7,349.4,376.6,349,377z"/>
							<path class="st29" d="M353,388.3c0,0-0.2,1.3,2.4,3.6c0,0-2-1.2-2.9-3.3L353,388.3z"/>
							<path class="st29" d="M356.9,389.5c0,0-1.1-0.5-1.4-1.6c0,0-2,0.4-2.5,0.3c0,0-2.7,1.9-4.4,1.7c-0.8-0.1-1.4-1.4-1.1-1.9
								c0,0-1.1,0.5-1.7,0.7c0,0-0.4,2.6-3.5,5.9c0,0,2.2-2.3,11.4-3.8C354.6,390,355.8,389.5,356.9,389.5z"/>
							<path class="st29" d="M357.8,383c0,0-2.3,0-5.4,1.6c-0.7,0.5-4.8,3.4-4.8,3.4l-1.2,0.5l5.8-4
								C353.6,383.7,356.3,382.9,357.8,383z"/>
							<path class="st29" d="M344.3,388.5c0,0-1.3-0.4-1.4-1.8c-0.1-0.5,0.7-1.5,0.7-1.5s-1.3-1.7,0.2-2.7c0,0-0.4,0.9-0.1,1.8
								c0.3,0.7,0.8,1,0.8,1s-0.8,0.6-1.1,1.3C343.2,387.2,343.6,388.1,344.3,388.5z"/>
							<path class="st29" d="M351.1,383.2c0,0-2,1.8-6-1.9l-0.7,0.5c0,0,2.9,2,4.4,2.2C350.1,384.3,351.1,383.2,351.1,383.2z"/>
							<path class="st29" d="M347.2,383.5l-2.7,1.8l-0.4-0.3l2.7-1.7C346.9,383.3,347.1,383.4,347.2,383.5z"/>
						</g>
						<path class="st11" d="M348.9,403c0,0-6.7,9-14.2,18.9c-7.5,10-15.7,20.9-18.7,24.8c-0.5,0.7-0.9,1.2-1.1,1.4
							c-0.9,1.1-9.3,3.6-10.9,3.5c-0.9-0.1-3.5-1.3-5.8-2.7c-0.4-0.3-0.8-0.7-1.1-1.4c0-0.1-0.1-0.2-0.1-0.3c3.7-9,7.3-18,11-27
							c8.5-9.8,17.1-19.6,25.6-29.5c0,0,0.4,0.6,1.2,1.6C336.6,394.9,341.3,399.9,348.9,403z"/>
						<path class="st11" d="M310.5,425.4c-4.4,7.6-8.8,15.2-13.2,22.7c-0.4-0.7-1.3-2-2.4-3.7c0,0-29-47.2-32.7-62.5
							c-0.9-3.9-0.7-8.2,0.5-12.3c0.1-0.3,0.2-0.7,0.3-1c0.1-0.3,0.2-0.6,0.3-0.9c2.4-6.3,7.1-11.7,13.3-13.5c0,0,0.3-0.1,0.7-0.2
							c1.4-0.4,4.2-1.2,4.4-1.3c0,0,0,0,0,0c0,0.2,17.1,39,23.6,60.1C307,417.7,310.2,424.4,310.5,425.4z"/>
					</g>
					<polygon class="st30" points="283.1,355 283.1,355 283.1,355 283.1,355 					"/>
					<path class="st30" d="M283.1,355C283.1,355,283.1,355,283.1,355C283.1,355,283.1,355,283.1,355z"/>
					
						<linearGradient id="SVGID_00000021821253162977516160000004418875367050626213_" gradientUnits="userSpaceOnUse" x1="183.5945" y1="325.4513" x2="260.2247" y2="325.4513" gradientTransform="matrix(0.9919 0.1272 -0.1272 0.9919 119.5605 5.9421)">
						<stop  offset="0" style="stop-color:#353541"/>
						<stop  offset="0.2113" style="stop-color:#2E2D37"/>
						<stop  offset="0.6439" style="stop-color:#242228"/>
						<stop  offset="1" style="stop-color:#201E23"/>
					</linearGradient>
					<path style="fill:url(#SVGID_00000021821253162977516160000004418875367050626213_);" d="M283.1,355.1
						C283.1,355,283.1,355,283.1,355.1C283.1,355,283.1,355.1,283.1,355.1z"/>
					
						<linearGradient id="SVGID_00000000206312513956143860000007051468094619730078_" gradientUnits="userSpaceOnUse" x1="183.5793" y1="325.4127" x2="228.53" y2="325.4127" gradientTransform="matrix(0.9919 0.1272 -0.1272 0.9919 119.5605 5.9421)">
						<stop  offset="0" style="stop-color:#353541"/>
						<stop  offset="0.2113" style="stop-color:#2E2D37"/>
						<stop  offset="0.6439" style="stop-color:#242228"/>
						<stop  offset="1" style="stop-color:#201E23"/>
					</linearGradient>
					<path style="fill:url(#SVGID_00000000206312513956143860000007051468094619730078_);" d="M283.1,355
						C283.1,355,283.1,355,283.1,355C283.1,355,283.1,355,283.1,355z"/>
					
						<linearGradient id="SVGID_00000016795714919013067200000009949279916685449622_" gradientUnits="userSpaceOnUse" x1="183.5158" y1="325.4433" x2="264.4612" y2="325.4433" gradientTransform="matrix(0.9919 0.1272 -0.1272 0.9919 119.5605 5.9421)">
						<stop  offset="0" style="stop-color:#353541"/>
						<stop  offset="0.2113" style="stop-color:#2E2D37"/>
						<stop  offset="0.6439" style="stop-color:#242228"/>
						<stop  offset="1" style="stop-color:#201E23"/>
					</linearGradient>
					<path style="fill:url(#SVGID_00000016795714919013067200000009949279916685449622_);" d="M283.1,355
						C283.1,355,283.1,355,283.1,355C283.1,355.1,283.1,355.1,283.1,355C283.1,355,283.1,355,283.1,355
						C283.1,355,283.1,355,283.1,355z"/>
					
						<linearGradient id="SVGID_00000176035928480388274850000017131417993870544279_" gradientUnits="userSpaceOnUse" x1="201.7212" y1="325.404" x2="211.5676" y2="325.404" gradientTransform="matrix(0.9919 0.1272 -0.1272 0.9919 119.5605 5.9421)">
						<stop  offset="0" style="stop-color:#353541"/>
						<stop  offset="0.2113" style="stop-color:#2E2D37"/>
						<stop  offset="0.6439" style="stop-color:#242228"/>
						<stop  offset="1" style="stop-color:#201E23"/>
					</linearGradient>
					<polygon style="fill:url(#SVGID_00000176035928480388274850000017131417993870544279_);" points="283.1,355 283.1,355 
						283.1,355 					"/>
					
						<linearGradient id="SVGID_00000023959507706773169840000008996938080969010857_" gradientUnits="userSpaceOnUse" x1="183.6061" y1="325.3979" x2="211.6852" y2="325.3979" gradientTransform="matrix(0.9919 0.1272 -0.1272 0.9919 119.5605 5.9421)">
						<stop  offset="0" style="stop-color:#353541"/>
						<stop  offset="0.2113" style="stop-color:#2E2D37"/>
						<stop  offset="0.6439" style="stop-color:#242228"/>
						<stop  offset="1" style="stop-color:#201E23"/>
					</linearGradient>
					<path style="fill:url(#SVGID_00000023959507706773169840000008996938080969010857_);" d="M283.1,355
						C283.1,355,283.1,355,283.1,355L283.1,355C283.1,355,283.1,355,283.1,355z"/>
					
						<linearGradient id="SVGID_00000018935126233421659360000007009541906879532192_" gradientUnits="userSpaceOnUse" x1="183.5362" y1="325.4198" x2="264.4103" y2="325.4198" gradientTransform="matrix(0.9919 0.1272 -0.1272 0.9919 119.5605 5.9421)">
						<stop  offset="0" style="stop-color:#353541"/>
						<stop  offset="0.2113" style="stop-color:#2E2D37"/>
						<stop  offset="0.6439" style="stop-color:#242228"/>
						<stop  offset="1" style="stop-color:#201E23"/>
					</linearGradient>
					<path style="fill:url(#SVGID_00000018935126233421659360000007009541906879532192_);" d="M283.1,355
						C283.1,355,283.1,355,283.1,355C283.1,355,283.1,355,283.1,355C283.1,355,283.1,355,283.1,355C283.1,355,283.1,355,283.1,355z"
						/>
				</g>
			</g>
		</g>
		<g style="clip-path:url(#SVGID_00000024720742298770958640000004529910763901498559_);">
			<g>
				<g>
					<path class="st37" d="M425.3,382.9c-6.5,2-9.2-7.7-1.5-5.3l-0.1,0C427,376.5,428.7,381.9,425.3,382.9z"/>
					<path class="st37" d="M425.3,379c-9.2,0.1-6-10-1-5.6c0-0.1-0.1-0.1,0,0c0.1,0,0.3,0.1,0.5,0.1c0,0,0.1,0,0,0
						C428.3,373.1,428.8,378.7,425.3,379z"/>
					<path class="st37" d="M424.9,374.4l-2.7-0.6c-3.5-0.8-2.2-6.3,1.2-5.4c0,0,2.7,0.6,2.7,0.6
						C429.6,369.8,428.4,375.3,424.9,374.4z"/>
					<path class="st37" d="M455,376.6c-1.5-0.9-3.7-2.5-5.7-5c-2.3-2.9-2.5-4.8-3.7-6.3c-1.8-2.3-6.3,3.3-18.6-1.1l-3.5,18
						c0,0,11.7,9.3,26.7,8.2c2.5,1.3,4.9,2.6,7.4,4c2.1-4.5,4.3-8.9,6.4-13.4C461,379.5,458,378.1,455,376.6z"/>
					<path class="st37" d="M437.5,366.7c-3-2.4-30.2-7.9-29.6-2.1c0.2,2.3,2.8,1.9,4.5,2c6.1,0.4,12.2,1.6,17.8,4
						c2.9,0.8,6.1,4.8,8.8,1.7C440.7,370.5,439.8,367.5,437.5,366.7z"/>
					<path class="st37" d="M429.2,354.1c3.8,6.5,7.7,13.3,11,20.1c2.9,5.7,10.2,1.1,7.5-4.7c-4.6-9.8-8.6-12.6-14.9-18.1
						C430.8,349.5,427.7,351.8,429.2,354.1z"/>
					<path class="st38" d="M427.2,381.8c0.7-1.4-0.5-3.5-0.6-3.4c-0.2,0.1-0.2,0.4,0.1,1.1c0.1,0.3,0.2,1-0.1,1.7
						c-0.5,1.4-1.9,1.8-2.1,1.8c0.2,0,0.4,0.1,0.7,0.1C426.2,383.1,426.9,382.5,427.2,381.8z"/>
					<path class="st38" d="M427.7,377.8c0.7-0.9,0.4-4.1-1.1-3.8c-0.4,0.9,1.6,1.8,0.1,3.7c-1,1.2-2.8,0.9-4.1,0.5
						c-0.8-0.3-1.5-0.6-2.3-0.8c2.2,1.9,4.7,2.5,6.3,1.5C427,378.7,427.4,378.4,427.7,377.8z"/>
					<path class="st38" d="M428.3,373.3c1-1.8,0-4.2-2-4.7l0,0c-2.5-0.4-3.1-0.4-3.2-0.3c0,0.1,0.5,0.4,3,1.1c2.9,0.7,1.9,5.3-1,4.6
						c0,0,0,0,0,0c-1.2-0.4-4.5-1.5-4.6-1.4c-0.1,0.1,3.4,3.2,6.1,2.1C426.8,374.6,427.7,374.3,428.3,373.3z"/>
					<path class="st38" d="M443.9,378.9c-1.7-1.3-4.8-3.9-6.7-8.3c-0.7-1.8-1.1-3.4-1.3-4.8c-0.2,0-0.4-0.1-0.6-0.1
						c0.1,1.5,0.4,5.5,3.4,9.2C440.6,377.1,442.6,378.3,443.9,378.9z"/>
				</g>
				<line class="st30" x1="552.8" y1="441.5" x2="552.8" y2="441.5"/>
				<path class="st20" d="M549.9,333.5c-2.1,4.3-4.3,8.6-6.6,12.9c-8.9,17.3-18.1,33.8-27.4,49.7c-5.5-2.3-11.1-4.7-16.7-7.2
					c-14-6.2-27.4-12.7-40.2-19.2c-4.8,8.4-9.6,16.7-14.4,25.1c19.5,10.8,38.9,21.6,58.4,32.4c0,0,0,0,0,0c0,0,0.1,0,0.1,0.1
					c5.6,2.6,11.9,5.5,18.8,8.5c1.7,0.1,11.6,0.8,15.9-5.1c2.3-3.2,4.3-5.5,5-7c2.9-6.1,7.7-14.9,16.2-28.2c1.5-13.6,1.4-31.5-5-51
					C552.8,340.6,551.4,336.9,549.9,333.5z"/>
				<path class="st20" d="M505.5,385.4"/>
			</g>
			<g>
				<g>
					<path class="st39" d="M638.3,767.7c-0.1,0.6-0.3,1.4-0.2,2.4c0,0.3,0,0.6,0.1,0.8c0.1,0.7,0.5,1.3,1.2,1.6
						c1.6,0.8,3.8,1.6,6.6,1.9c5.2,0.6,9.3-0.9,12.7-2.2c5-1.9,7.8-4.3,8.2-4.6c0.5-0.5,1.2-1.1,2.5-2.2c2.4-2.1,3.6-3.1,4.6-3.7
						c3.8-2.3,5-1.9,7-4.2c1.2-1.4,1.3-2.3,1.2-2.9c-0.1-1-0.7-1.7-1-2.1c-0.5-0.7-1.1-1.1-1.5-1.3c-18.7,2.1-31.2,8.8-39.4,15.1
						C639.6,766.7,639,767.2,638.3,767.7z"/>
					<g>
						<path class="st37" d="M677.3,742.6c-5.8,0.4-11.6,0.9-17.4,1.3c-1.4-8.5-2.9-17-4.3-25.5c6.6-0.5,13.2-1,19.7-1.6
							C675.9,725.5,676.6,734,677.3,742.6z"/>
						<path class="st37" d="M659.3,740.9c0.2,1,0.3,2.5-0.2,4.1c-0.6,1.9-1.7,3.1-2.5,3.9c-5,5.2-9.3,11-9.3,11l0,0
							c-6.5,6-9.1,7.1-8.7,8.8c0.5,2,5.1,2.5,7.3,2.7c5.3,0.5,9.5-1,14.5-2.8c1.5-0.5,2.5-0.9,3.4-1.5c3-2,3.9-4.9,11.8-9.9
							c1.2-0.8,3.2-2,3.8-4.2c0.1-0.2,0.1-0.4,0.1-0.6c0-1.2-0.4-2.1-0.9-3.1c0-0.1-0.6-1.4-1-2.7c-0.3-1.2-0.3-1.8-0.5-4
							c-0.1-0.9-0.2-2.3-0.5-4C671,739.3,665.2,740.1,659.3,740.9z"/>
					</g>
					<path class="st39" d="M678.6,755.7c-6-1.8-12.2-3.8-18.6-6.2c-1.2-0.4-2.3-0.9-3.4-1.3c-0.5,0.5-1.1,1.1-1.7,1.8
						c-0.7,0.9-1.3,1.8-1.7,2.6c0.6,0.2,1.2,0.5,1.7,0.7c6.6,2.5,13.2,4.5,19.5,6C675.8,758,677.2,756.9,678.6,755.7z"/>
					<path class="st39" d="M659.8,754.5c-0.9,1.2-1.9,2.5-3.1,3.7c-1.8,1.9-3.6,3.5-5.2,4.7c-1.1-0.5-2.1-1.1-3.2-1.6
						c2.3-2.9,4.5-5.8,6.8-8.7c1,0,2,0,3,0C658.6,753.3,659.2,753.9,659.8,754.5z"/>
					<path class="st39" d="M668.1,764.7c-10.9-1.9-15.1-2.8-16.5-3.2c-0.2-0.1-1.4-0.4-3-0.8c-0.9-0.2-1.7-0.3-2.2-0.4
						c-0.4,0.3-0.8,0.6-1.2,1c-0.7,0.6-1.4,1.2-2,1.8c0.6,0.3,1.5,0.8,2.6,1.3c2.4,1,4.4,1.4,5.9,1.7c5.2,1.1,11.4,1.9,12.5,2
						C665.5,767,666.8,765.8,668.1,764.7z"/>
				</g>
				<path class="st40" d="M644.2,666.1c2.8,24,5.5,48.1,8.3,72.1c3.8,1.4,8.9,2.9,15.2,3.5c6.3,0.7,11.8,0.3,15.8-0.4
					c-3-26-5.9-51.9-8.9-77.9C664.5,664.4,654.3,665.3,644.2,666.1z"/>
				<path class="st41" d="M569.5,243.4c0.4,4.7,0.8,11.9,0.3,20.6c-1.4,22.4-7.3,31.9-9.1,50.2c-0.8,8.3-0.9,20.3,2.7,35.4
					c12.4-2.4,24.9-4.7,37.3-7.1c-4.3-33.9-8.7-67.8-13-101.7C581.5,241.7,575.5,242.6,569.5,243.4z"/>
				<g>
					<path class="st37" d="M599.9,716.8c1.1,7.8,2.1,15.7,3.2,23.5c5.3-0.9,10.7-1.9,16-2.8c-1.2-7.4-2.3-14.8-3.5-22.2
						C610.4,715.8,605.1,716.3,599.9,716.8z"/>
					<path class="st37" d="M618.5,733.4c1.1,5.5,2.8,9,4.1,11.2c0.4,0.7,1.7,2.6,2.2,5.4c0.3,1.5,0.6,3.3-0.1,4.7
						c-1.4,2.5-5.9,2.5-8.3,2.5c-1.6,0-7.9,1.4-20.3,4.3c0,0-7.3,1.7-21.4,3.2c-0.2,0-1.3,0.1-2.6-0.3c-0.4-0.1-2.1-0.7-2.2-1.5
						c-0.2-1.1,2.8-2.4,4.5-3.2c4-1.8,7.9-4,12-5.7c12.1-5,13.7-6.4,14.8-8.1c1.8-2.7,2-5.7,2-7.6c3.8-1.7,7.7-3.4,11.5-5.1
						C615.9,733.4,617.2,733.4,618.5,733.4z"/>
					<path class="st39" d="M624.9,754.2c0.1,0.1,0.3,0.2,0.4,0.4c0.1,0.4,0.2,0.8,0.3,1.3c0.2,1,0.2,1.9,0.1,2.6
						c-2.3,0.5-5.9,1.2-10.2,1.9c-7,1.2-8,1.2-14.2,2.3c-12.1,2-13.9,3-20.4,3.4c-4.6,0.3-8.4,0-10.6-0.2c-0.1-0.3-0.3-0.6-0.4-1
						c-0.2-0.7-0.2-1.4-0.2-1.8c0.5,0.7,3.9,0.4,6.8,0.3c5.2-0.1,8.5-0.9,15.1-2.2c6.6-1.2,5.9-0.9,11.6-1.9
						C608.7,758.3,616.1,756.7,624.9,754.2z"/>
					<g>
						<path class="st39" d="M601.9,744.6c1.6,1.7,3.4,3.5,5.4,5.3c3,2.7,6,4.9,8.7,6.7c-2.8,0.8-5.7,1.5-8.5,2.3
							c-1.5-0.8-3.6-2.1-5.7-4.3c-2-2.1-3.2-4.3-3.9-5.8c0.5-0.5,1.1-1,1.7-1.6C600.5,746.3,601.3,745.4,601.9,744.6z"/>
						<path class="st39" d="M599.1,750.9c-4.3,1.9-8.6,3.8-12.9,5.7c-0.4-0.6-0.9-1.3-1.3-1.9c4.5-2,8.9-4,13.4-6
							C598.5,749.4,598.8,750.1,599.1,750.9z"/>
						<path class="st39" d="M585.4,754.4c0.5,0.9,1.1,2.1,2,3.2c1.8,2.2,3.9,3.4,5.2,4.1c-2.3,0.5-4.5,0.9-6.8,1.4
							c-1-0.6-2.8-1.8-4.1-3.9c-0.6-0.9-0.9-1.7-1.1-2.5C582.3,756,583.8,755.2,585.4,754.4z"/>
					</g>
				</g>
				<path class="st40" d="M592.8,706c1,10.5,1.9,21,2.9,31.4c3.9,1.1,9.3,2.1,15.7,2.2c5.5,0,10.1-0.7,13.7-1.6
					c-0.7-11.3-1.5-22.6-2.2-33.9C612.8,704.8,602.8,705.4,592.8,706z"/>
				<path class="st20" d="M573.8,627.8l0.1,1c2.9,31.2,5.1,48.4,10.9,92.4c0.2,1.5,1.6,2.5,3,2.2c4.6-0.8,10.8-1.5,18.1-1.7
					c3.9-0.1,7,0,9.8,0.3c12.9,1.1,19.1,2.7,29.1,4.2c10.4,1.5,19.9,2.9,31,1.3c8.3-1.2,15-3.8,20.1-6.3c2-1,3.2-3.2,2.9-5.4
					c-4.3-31.8-7.7-57.9-10.1-76.2c-5.8-44.4-6.8-46.1-8.1-57.6c-3.2-27.3-4.4-41.2-8.3-66.8c-0.8-5.1-0.9-5.6-5.8-36.2
					c-4.9-30.5-7.3-45.8-7.5-46.8c-1.2-6.4-1.5-10.9-2.1-16.5c-1.5-14.6-2.1-30.4-1.4-47.5c2.2-8.5,3.9-18.9,4-30.7
					c0-4.2-0.1-8.2-0.4-11.9c-7.5-3.3-16.6-6.7-27.2-9.3c-14-3.5-26.6-4.7-36.6-4.9c-6.5,1.6-14.4,4.2-22.9,8.3
					c-9.4,4.5-16.9,9.6-22.5,14c1.2,40.8,4.3,63.5,7.1,77c0.6,3.1,1.5,6.8,2.4,12.7c2.5,16.8,0.9,23.2,3.4,41.8
					c0.4,3,0.8,4.9,1.1,8.6c0.8,9-0.1,16,2.2,54c0.6,10.4,2,27.8,4.6,62.8C571,593.9,571.5,600.7,573.8,627.8z"/>
				<path class="st20" d="M700.2,516.2c-2.3,2-8.5,6.8-18,7.9c-9.9,1.2-17.4-2.3-20.1-3.7c1.4-29.8,2.8-59.6,4.2-89.3
					c-10-27.1-20.1-54.1-30.1-81.2c1.7-13.8,8.1-24.1,16.1-25.5c1.5-0.3,3.3-0.3,5.6,0.4c0.5,0.3,1.2,0.7,2.1,1.2
					c3.4,2.2,5.8,4.5,7.7,6.9c5,6.4,7.5,15.8,7.5,15.8c2.5,10.3,10.9,34.5,23.9,69.7C699.5,451,699.9,483.6,700.2,516.2z"/>
				<path class="st37" d="M569.8,320.8c9.2,2.8,18.5,5.7,27.7,8.5c4.1-1.9,8.5-4.1,13.1-6.8c5.3-3.1,10-6.2,14.1-9.2
					c-1,0-3.3-0.2-5.6-1.8c-2-1.3-3-3-3.5-3.9c-1-7.8-2-15.5-3.1-23.3c-5.5,1.6-11.4,3-17.7,4.3c-4.3,0.9-8.5,1.6-12.6,2.1
					c0.6,4.1,1.1,8.4,1.5,12.8c0.1,0.8,0.2,2,0.3,3.6c0.1,2.3,0.1,4.2,0,5.5c-2.5,1.5-5.1,3.1-7.9,4.6
					C574.2,318.6,572,319.7,569.8,320.8z"/>
				<path class="st38" d="M582.5,290.8c0.6,4.1,1.1,8.4,1.5,12.8c1.9,1.1,4.4,2.1,7.6,2.1c2.9,0,7-1.5,15.4-7.8
					c1.3-1,3.3-2.5,5.5-4.4c-0.4-1.5-0.8-3.1-1.2-4.7c-0.4-1.5-0.7-3-1-4.4c-4.6,1.5-9.7,3-15.3,4.2
					C590.6,289.6,586.4,290.3,582.5,290.8z"/>
				<path class="st40" d="M631.2,313.5c-11.8,6.6-23.5,13.1-35.3,19.7c-0.1,10.1,0,20.7,0.5,31.7c0.3,7.1,0.8,14.1,1.3,20.8
					c-1.8,1.6-3.6,3.1-5.4,4.7c-0.6-8.4-1-17.2-1.2-26.3c-0.3-13.4-0.1-26.2,0.5-38.2c5.7-2.8,11.5-6,17.5-9.5c3.5-2,6.8-4.1,10-6.1
					c2.1,0.5,4.3,1,6.6,1.6C627.6,312.4,629.4,312.9,631.2,313.5z"/>
				<path class="st40" d="M569.3,321c1.8,1.9,4,4,6.7,6.1c3.3,2.5,6.6,4.4,9.3,5.7c0,9.3,0.2,19.1,0.6,29.2c0.4,8.5,1,16.6,1.7,24.5
					c1.5,1.3,3.1,2.5,4.6,3.8c-0.2-21.5-0.5-43-0.7-64.5c-2.5-0.3-8-1.3-12.3-5.6c-1-1-1.8-2.1-2.5-3.1
					C574.3,318.4,571.8,319.7,569.3,321z"/>
				<path class="st37" d="M572.1,267.6c2.1,11,1.5,12.4,3.5,19.3c1.2,4.3,2.6,7.8,3.5,10c0.8,0.8,4,4,8,5.2c0.8,0.3,2.3,0.7,4.3,0.6
					c0.7,0,1.5-0.2,2.4-0.5c6-1.8,11.5-6.4,11.5-6.4c2.2-2,4.9-4.5,6.8-7.9c2.3-4.2,2.3-8.2-1.6-27.6c-3.4-16.7-4.7-20.2-8.1-22.1
					c-1.7-0.9-4.4-1.6-9.7-2.9c-4.4-1.1-5.9-1.2-7.4-1c-3.4,0.4-5.8,2-7.4,3c-1.7,1.1-4.4,2.9-6.2,6.1c-1.1,1.9-1.8,4.3-1.6,9.9
					C570.1,258.6,570.9,261.1,572.1,267.6z"/>
				<g>
					<g>
						<path class="st42" d="M583,286.9c0.4,1.2,3.9,1,4.8,1c3-0.2,7-1.3,7-2.6c0-1.2-3.6-1.9-3.9-2c-0.8-0.2-3.8-0.8-6.2,1
							C584.6,284.4,582.7,285.9,583,286.9z"/>
					</g>
					<path class="st42" d="M584.5,275.4c0.3,0.2,1.1,0.9,2.2,0.8c1.5,0,2.3-1.3,2.5-1.5c-0.9,0.1-1.8,0.3-2.7,0.4
						C585.8,275.2,585.2,275.3,584.5,275.4z"/>
					<g>
						<path class="st20" d="M591.8,265.9c0.5-2.7,2.7-4.6,5.1-4.6c2.7,0,4.3,2.4,4.4,2.6c-0.2,0.4-1.9,2.7-5,3.1
							C594,267.2,592.4,266.3,591.8,265.9z"/>
						<g>
							<path class="st43" d="M597.7,264c0.3,1.4-0.3,2.7-1.3,3c-1,0.2-2-0.7-2.3-2.1c-0.3-1.4,0.3-2.7,1.3-3
								C596.4,261.7,597.4,262.7,597.7,264z"/>
							<path d="M596.7,264.3c0.1,0.8-0.2,1.5-0.7,1.6c-0.5,0.1-1.1-0.4-1.3-1.1c-0.1-0.8,0.2-1.5,0.7-1.6
								C596,263,596.6,263.5,596.7,264.3z"/>
							<path class="st20" d="M597,263.6c0.1,0.3-0.1,0.6-0.3,0.7c-0.2,0.1-0.5-0.2-0.5-0.5s0.1-0.6,0.3-0.7
								C596.7,263.1,596.9,263.3,597,263.6z"/>
						</g>
						<path d="M591.8,265.9c0.1-0.2,1.6-3.3,4.7-3.7c2.5-0.2,4.2,1.5,4.5,1.8c0.1,0,0.2-0.1,0.2-0.2c0,0,0.1-0.1,0.1-0.1
							c-1.4-2.3-4-3.2-6.2-2.4C593.5,262,592.2,263.8,591.8,265.9z"/>
					</g>
					<g>
						<path class="st20" d="M583.3,267.8c-2-2.4-4.5-3.2-6.3-2.1c-1.9,1.1-2.3,3.8-2.4,4.3c0.9,0.4,2.6,1,4.5,0.6
							C581.3,270.2,582.7,268.6,583.3,267.8z"/>
						<g>
							<path class="st43" d="M577,269c0.5,1.3,1.7,2,2.7,1.5c1-0.4,1.4-1.8,1-3.1c-0.5-1.3-1.7-2-2.7-1.5
								C577,266.3,576.5,267.7,577,269z"/>
							<path d="M577.5,268.9c0.3,0.7,1,1.1,1.6,0.8c0.6-0.3,0.9-1.1,0.6-1.8c-0.3-0.7-1-1.1-1.6-0.8
								C577.5,267.4,577.2,268.1,577.5,268.9z"/>
							<path class="st20" d="M578.9,267.6c0.1,0.3,0.4,0.4,0.6,0.3c0.2-0.1,0.3-0.4,0.2-0.7c-0.1-0.3-0.4-0.4-0.6-0.3
								C578.9,267,578.8,267.3,578.9,267.6z"/>
						</g>
						<path d="M583.3,267.7c-0.2-0.2-2.9-2.6-5.7-1.2c-1.9,1-2.6,3.2-2.8,3.7c-0.1,0-0.2,0-0.2,0c-0.1,0-0.1,0-0.2,0
							c0.2-2.7,1.8-4.7,3.8-5C580,264.7,582,265.7,583.3,267.7z"/>
					</g>
					<path d="M589.1,259c0.4-0.6,1.4-2.1,3.5-3.7c2.8-2.2,5.2-2.6,5.7-2.7c0.7,0,1.4,0.2,1.4,0.2c0.5,0.1,0.9,0.4,1.4,0.7
						c0.6,0.4,1.3,0.8,2.1,1.5c-0.1,0-0.3,0-0.5-0.1c0,0-0.9-0.1-1.8,0c-3.3,0.4-6.7,2.7-6.7,2.7c-2.2,1.5-3.6,3.3-4.5,4.7
						c-0.2,0-0.7,0-1.2-0.4c-0.3-0.2-0.4-0.4-0.5-0.6C588.2,260.7,588.5,259.9,589.1,259z"/>
					<g>
						<path d="M571.2,262.8c0.1-0.2,0.3-0.4,0.6-0.6c1.8-1.4,4.3-0.9,5.6-0.7c2,0.3,3.7,1.2,4.8,2c0.1-0.1,0.5-0.4,0.7-0.9
							c0.1-0.3,0.1-0.6,0.1-0.8c-0.4-0.4-0.9-1-1.6-1.5c-0.4-0.3-1.7-1.2-3.7-1.7c-0.2,0-3.2-0.7-4.9,0.3c-0.5,0.3-0.9,0.7-0.9,0.7
							c-0.5,0.5-0.6,1.1-0.7,1.5C571.1,261.8,571.1,262.4,571.2,262.8z"/>
					</g>
					<path d="M578.4,284.4c-0.5,1.2-0.4,2.6-0.3,5.5c0.2,3,0.6,5.4,0.9,7.1c0.7,0.8,5.9,6.8,11.8,6.4c1.6-0.1,4.1-0.8,6.2-1.7
						c1.4-0.6,2.4-1.1,3-1.5c0,0,0.2-0.1,0.4-0.2c1.7-1.1,4.4-3.6,5.1-4.2c-0.5-1.5-1.3-3.7-2.4-6.3c-2.1-4.9-3.1-7.4-4.7-8.7
						c-3.7-3-8.7-2.1-10.7-1.8C586.1,279.2,580.1,280.2,578.4,284.4z M585.6,288.5c-0.1,0.3-0.6,1.1-1.5,1.6
						c-1.3,0.7-2.5,0.2-2.7,0.2c0,0,0,0,0,0c0,0,0,0,0,0c0,0,0,0,0,0c0,0-0.9-1.8,0-4c0.6-1.7,2.1-3.2,3.8-3.9
						c0.6-0.2,1.4-0.3,2.3-0.5c0.1,0,1.4-0.2,2.2-0.3c0.3,0,3.6-0.1,5.8,2.3c1.3,1.4,2.1,3.8,1.5,4.3c0,0,0,0,0,0
						c-0.3,0.3-2.2,1.8-4.5,1.2c-1.1-0.3-1.8-0.9-2.2-1.3C588.7,288.2,587.2,288.4,585.6,288.5z"/>
				</g>
				<path class="st41" d="M571.1,251.8c3.3-2.2,5.2-2.3,6.4-2c0.5,0.2,2.4,0.9,4.3,0.2c0,0,0,0,0,0c0.7-0.5,1.9-1.2,3.4-1.7
					c0.4-0.1,1.2-0.4,2.2-0.4c3.3-0.2,4.2,1.9,6.9,1.6c1.4-0.2,1.1-0.7,3.2-1.2c1.3-0.3,3.1-0.7,4.8,0.1c1.4,0.7,2.1,2.1,2.6,3.6
					c0.5,1.4,0.9,3.3,1.2,6c1,5.8,1.7,11.9,2,14.4c1.8,15.7,5.2,27.6,12.2,51.3c2.3,7.9,4.5,14.6,6.2,19.4c0.3,0.8,0.5,1.5,0.8,2.2
					c0.3-0.2,4.5-2.4,7.7-3.5c0.3-0.1,0.6-0.2,0.9-0.3c2.1-0.6,3.7-0.6,4.8-0.6c3.3,0,7.8,1,9.8,1.2c2.7,0.3,6.5,0.1,11.5-2.3
					c-1.9-11-5-19.1-7.6-24.5c-2.8-5.9-4.9-8.5-8.7-16c-0.9-1.8-4.8-9.7-8.4-19.8c-7.1-20-5.6-28.5-14.3-42.7
					c-1.7-2.7-3.2-4.8-4.1-6.1c-2.3-2.2-6.4-5.4-12.3-7.2c-9.2-2.8-16.9-0.3-19.4,0.6c-2.7,0.9-7.3,2.6-11.5,6.9
					c-1.8,1.9-5.8,6.1-6.2,12.6C569.2,247.1,570.3,250.1,571.1,251.8z"/>
				<g>
					<path class="st44" d="M567.5,249c7.6-2.4,17.1-4.6,28.2-5.8c10.6-1.1,19.9-1,27.6-0.3"/>
					<path class="st44" d="M626.8,238.1c-8.6-0.7-19-0.8-30.7,0.3c-13,1.3-24.1,4-33,6.7"/>
				</g>
			</g>
		</g>
	</g>
</g>
</svg>
