<?xml version="1.0" encoding="utf-8"?>
<!-- Generator: Adobe Illustrator 26.0.1, SVG Export Plug-In . SVG Version: 6.00 Build 0)  -->
<svg version="1.1" id="Layer_1" xmlns="http://www.w3.org/2000/svg" xmlns:xlink="http://www.w3.org/1999/xlink" x="0px" y="0px"
	 viewBox="0 0 1000 1000" style="enable-background:new 0 0 1000 1000;" xml:space="preserve">
<style type="text/css">
	.st0{clip-path:url(#SVGID_00000129904523584839547590000018442832573807620278_);fill:#A5E0DC;}
	.st1{clip-path:url(#SVGID_00000129904523584839547590000018442832573807620278_);}
	.st2{fill:#BEF4EF;}
	.st3{fill:#81CCC6;}
	.st4{fill:#A5E0DC;}
	.st5{fill:#00747D;}
	.st6{fill:#E3F4FF;}
	.st7{fill:#FFFFFF;}
	.st8{fill:#99CCE0;}
	.st9{clip-path:url(#SVGID_00000129904523584839547590000018442832573807620278_);fill:#00747D;}
	.st10{fill:#C9DAF4;}
	.st11{fill:#345389;}
	.st12{fill:#CECECE;}
	.st13{fill:#EBC9AF;}
	.st14{fill:#FCA170;}
	.st15{fill:#EF926A;}
	.st16{fill:#282828;}
	.st17{fill:#8A5D3B;}
	.st18{fill:#3B2314;}
	.st19{fill:#ED845F;}
	.st20{fill:#030202;}
	.st21{fill:#F99C73;}
	.st22{fill:#F49064;}
	.st23{fill:none;stroke:#345389;stroke-width:1.0757;stroke-miterlimit:10;}
	.st24{fill:#3D3D3D;}
	.st25{fill:#A34F2E;}
	.st26{clip-path:url(#SVGID_00000129904523584839547590000018442832573807620278_);fill:#7C3A25;}
	.st27{fill:#E80F2E;}
	.st28{fill:#1021B5;}
	.st29{clip-path:url(#SVGID_00000129904523584839547590000018442832573807620278_);fill:#4F4E4E;}
	.st30{clip-path:url(#SVGID_00000129904523584839547590000018442832573807620278_);fill:#3A3A3A;}
	.st31{clip-path:url(#SVGID_00000129904523584839547590000018442832573807620278_);fill:#BCA18C;}
	.st32{fill:#AF1919;}
	.st33{fill:#CC936D;}
	.st34{fill:#E8E8E8;}
	.st35{fill:#F7B89F;}
	.st36{fill:#D19182;}
	.st37{fill:#726562;}
	.st38{fill:#CCA279;}
	.st39{fill:#3F3F3F;}
	.st40{fill:#515151;}
	.st41{fill:#1E1E1E;}
	.st42{fill:#C6C6C6;}
	.st43{fill:#E09A61;}
	.st44{fill:none;}
	.st45{fill:#BA7D54;}
	.st46{fill:#AF7151;}
	.st47{fill:#513328;}
	.st48{fill:none;stroke:#000000;stroke-width:4.0376;stroke-linecap:round;stroke-linejoin:round;stroke-miterlimit:10;}
	.st49{fill:#847977;}
	.st50{fill:#EFB78E;}
</style>
<g>
	<g>
		<g>
			<defs>
				<path id="SVGID_1_" d="M173,694.7c-2.4-3.5-48.7-52.1-44.2-118.7c4-57.6,43.4-95.4,111.5-160.9c67.9-65.2,72.4-47.9,113.3-95
					c63.1-72.8,61.6-124.8,120-149.6c12.4-5.3,48.2-20.5,82.1-6.7c44.3,18,55.2,70.8,109.7,101.7c51.8,29.3,73.4,4.9,106,33.3
					c45.6,39.6,33.1,116.6,48.9,177.5c14.8,57.3,57.9,108.7,50.2,167.6c-6,45.4-42.4,80.6-82.4,95.6s-83.5,13.9-125.8,12.5
					c-95.7-3.1-192.4-9.1-287.6-5.3C312.9,749.2,216,756.8,173,694.7z"/>
			</defs>
			<clipPath id="SVGID_00000131348743062691236840000004948136578768814227_">
				<use xlink:href="#SVGID_1_"  style="overflow:visible;"/>
			</clipPath>
			<path style="clip-path:url(#SVGID_00000131348743062691236840000004948136578768814227_);fill:#A5E0DC;" d="M870.5,643.8
				c-6,45.4-42.4,80.6-82.4,95.6c-40,15.1-83.5,13.9-125.8,12.5c-95.7-3.1-192.4-9.1-287.6-5.3c-53.1,2.1-131.9,8-180.4-29.5
				c-8-6.2-15.2-13.6-21.3-22.5c-42.8-53.9-44.8-100-44.2-118.7c1.9-53.2,32.6-96,65.5-129.2c16.2-16.3,32.9-30.3,46.9-42.1
				c12.8-10.7,26.9-19.7,42.9-30.8c26.3-18.2,31.2-20.4,41.9-29.6c15.1-13.1,24.9-25.4,32.3-35.3c52.6-69.7,56-101.9,90-126.2
				c24.9-17.8,69.4-31.2,107.3-19.1c52.7,16.8,46.6,66,109.7,101.7c51.8,29.3,73.4,4.9,106,33.3c45.6,39.6,33.1,116.6,48.9,177.5
				C835.2,533.5,878.3,584.9,870.5,643.8z"/>
			<g style="clip-path:url(#SVGID_00000131348743062691236840000004948136578768814227_);">
				<g>
					<g>
						<rect x="454.8" y="313.6" class="st2" width="167" height="103.4"/>
						<path class="st3" d="M621.7,413.4v3.6H455.7c0.2-0.8,0.5-1.5,0.7-2.3c1.6-5.2,3.3-10.2,5.2-14.9c7.6-0.1,15.3-0.1,23-0.1
							c6.7,0,13.3,0,19.9,0.1c3-2.3,6-4.5,9-6.8c16.5,0,33,0,49.5,0c4.5,2.8,11.3,6.5,20.3,9.4c1.9,0.6,3.7,1.3,6.4,1.9
							c13.9,3.2,20.4,0.4,27.7,5.2C618.8,410.5,620.3,411.7,621.7,413.4z"/>
					</g>
					<g>
						<g>
							<path class="st3" d="M561.1,386.8v1.9h-44.8v-1.9h1.4v-7.6h1.2V372h0.9v-5.5h-0.6v-0.6H519v-0.5h0.8c0,0-0.8-0.3-0.8-2h0.8
								l0.9-7.2l0.9,7.2h0.8c0,1.7-0.8,2-0.8,2h0.8v0.5h-0.2v0.6h-0.6v5.5h3v-5.2c0.9-0.9,1.8-1.3,2.6-1.4v-1.3h0.6v1.3
								c1.6,0.1,2.7,1.3,2.7,1.4c-3.8-6,1.2-9.5,3.8-10.2c1.9-0.5,3.4-1.8,4.1-2.4v-5c-1.1-0.4-1.9-1.4-1.9-2.6
								c0-1.1,0.7-2.1,1.7-2.5c-0.4,0.5-0.7,1.1-0.7,1.8c0,1.5,1.2,2.6,2.6,2.6c0.6,0,1.1-0.2,1.5-0.5c-0.5,0.8-1.4,1.4-2.4,1.4
								c-0.1,0-0.1,0-0.2,0v4.9c0.6,0.6,2.2,1.8,4.1,2.4c2.6,0.7,7.6,4.2,3.8,10.2c0.1-0.1,1.2-1.3,2.7-1.4v-1.3h0.6v1.3
								c0.8,0.1,1.7,0.5,2.6,1.4v5.2h3v-5.5h-0.6v-0.6h-0.2v-0.5h0.8c0,0-0.8-0.3-0.8-2h0.8l0.9-7.2l0.9,7.2h0.8c0,1.7-0.8,2-0.8,2
								h0.8v0.5h-0.2v0.6h-0.6v5.5h0.9v7.2h1.2v7.6H561.1z"/>
							<g>
								<path class="st4" d="M526.4,375.2c-1.3,0-2.3,1-2.3,2.3v9.2h4.5v-9.2C528.7,376.2,527.7,375.2,526.4,375.2z"/>
								<path class="st4" d="M534.7,375.2c-1.3,0-2.3,1-2.3,2.3v9.2h4.5v-9.2C537,376.2,535.9,375.2,534.7,375.2z"/>
								<path class="st4" d="M542.8,375.2L542.8,375.2c-1.3,0-2.3,1-2.3,2.3v9.2h4.5v-9.2C545.1,376.2,544.1,375.2,542.8,375.2z"/>
								<path class="st4" d="M551,375.2c-1.3,0-2.3,1-2.3,2.3v9.2h4.5v-9.2C553.3,376.2,552.3,375.2,551,375.2z"/>
								<rect x="526.9" y="370.3" class="st4" width="1.7" height="1.7"/>
								<rect x="530.5" y="370.3" class="st4" width="1.7" height="1.7"/>
								<rect x="534" y="370.3" class="st4" width="1.7" height="1.7"/>
								<rect x="537.7" y="370.3" class="st4" width="1.7" height="1.7"/>
								<rect x="541.3" y="370.3" class="st4" width="1.7" height="1.7"/>
								<rect x="544.9" y="370.3" class="st4" width="1.7" height="1.7"/>
								<rect x="548.4" y="370.3" class="st4" width="1.7" height="1.7"/>
							</g>
						</g>
						<rect x="515.5" y="388.8" class="st5" width="46.4" height="4.3"/>
					</g>
					<g>
						<g>
							<path class="st5" d="M483.3,386.2c0.4,1.8,0.8,3.9,0.9,6.3c0.2,2.5,0.1,4.8-0.1,6.7c-0.3,0.1-0.7,0.2-1.1,0.4
								c-0.7,0.4-1.2,1-1.4,1.3c0.4-0.2,0.9-0.4,1.6-0.4c0.5,0,0.4,0.1,0.9,0.2c0.9,0,1.5-0.3,2-0.1c0,0,0.2,0.1,0.4,0.1
								c0,0,0.4,0,0.4-0.1c0-0.1-0.7-0.2-1.6-0.8c-0.2-0.2-0.4-0.3-0.5-0.4c0.2-2,0.2-4.3,0.1-6.9c-0.2-2.5-0.5-4.7-0.9-6.6
								C483.9,386,483.6,386.1,483.3,386.2z"/>
							<path class="st3" d="M482.5,385.3c-0.6,0.2-1.5,0.5-2.3,1.2c-2.5,2.1-2.3,5.4-2.2,5.9c0.1-0.8,0.6-2.6,2.2-4.3
								c1.1-1.1,2.3-1.7,3-1.9c-0.1,0.8-0.1,1.8,0,2.8c0.3,2.4,1.1,4.2,1.7,5.4c-0.4-1.1-0.9-2.6-1-4.6c-0.1-1.5,0.1-2.8,0.3-3.8
								c0.5,0.1,1.1,0.3,1.6,0.5c2.2,1.1,3.1,3.3,3.4,4.1c0.2-0.6,0.3-1.4,0.1-2.4c-0.6-1.8-2.6-3.1-5-3.1c0.4-0.2,1-0.5,1.8-0.6
								c2.4-0.2,4,1.7,4.2,1.9c-0.1-0.1-1.5-2.7-4.1-2.8c-1.2,0-2.1,0.4-2.5,0.7c-0.4-0.3-1.2-0.6-2-0.5c-1.7,0.3-2.4,2.7-2.5,4.2
								c-0.1,1.8,0.8,3.1,1.2,3.6c-0.4-1-0.8-2.4-0.5-4.1c0.1-0.8,0.4-2.1,1.3-2.4C481.7,385.1,482.2,385.2,482.5,385.3z"/>
						</g>
						<g>
							<path class="st5" d="M488.8,374.6c0.7,3.2,1.4,7,1.7,11.3c0.3,4.5,0.2,8.6-0.2,12c-0.5,0.1-1.3,0.3-2,0.7
								c-1.3,0.7-2.1,1.7-2.4,2.3c0.7-0.3,1.7-0.7,2.9-0.7c0.8,0,0.8,0.2,1.7,0.3c1.7,0.1,2.6-0.5,3.6-0.2c0.1,0,0.4,0.1,0.8,0.1
								c0.1,0,0.8,0,0.8-0.2c0-0.2-1.3-0.4-2.8-1.4c-0.4-0.3-0.8-0.5-1-0.7c0.3-3.6,0.4-7.7,0.1-12.3c-0.3-4.5-0.9-8.5-1.6-11.9
								C489.9,374.1,489.4,374.3,488.8,374.6z"/>
							<path class="st3" d="M487.3,373c-1.2,0.3-2.7,0.9-4.1,2.1c-4.4,3.7-4.1,9.8-4,10.6c0.2-1.3,1-4.7,4-7.7c2-2,4.2-3,5.4-3.4
								c-0.1,1.4-0.2,3.1,0,5c0.5,4.3,1.9,7.6,3.1,9.8c-0.7-1.9-1.6-4.7-1.7-8.2c-0.1-2.7,0.2-5,0.5-6.8c0.9,0.2,1.9,0.5,2.9,1
								c4,2,5.6,6,6.1,7.3c0.3-1,0.6-2.6,0.1-4.2c-1-3.2-4.6-5.5-9-5.6c0.8-0.4,1.8-0.9,3.2-1.1c4.2-0.4,7.2,3.1,7.6,3.5
								c-0.1-0.3-2.6-4.9-7.4-5.1c-2.1-0.1-3.7,0.7-4.5,1.2c-0.8-0.5-2.1-1.1-3.6-0.8c-3,0.6-4.4,4.8-4.5,7.5
								c-0.1,3.2,1.5,5.5,2.2,6.4c-0.7-1.7-1.5-4.4-1-7.4c0.3-1.4,0.7-3.8,2.4-4.4C485.9,372.6,486.8,372.8,487.3,373z"/>
						</g>
					</g>
					<g>
						<g>
							<path class="st5" d="M592.4,395.1c0.4,1.8,0.8,3.9,0.9,6.3c0.2,2.5,0.1,4.8-0.1,6.7c-0.3,0.1-0.7,0.2-1.1,0.4
								c-0.7,0.4-1.2,1-1.4,1.3c0.4-0.2,0.9-0.4,1.6-0.4c0.5,0,0.4,0.1,0.9,0.2c0.9,0,1.5-0.3,2-0.1c0,0,0.2,0.1,0.4,0.1
								c0,0,0.4,0,0.4-0.1c0-0.1-0.7-0.2-1.6-0.8c-0.2-0.2-0.4-0.3-0.5-0.4c0.2-2,0.2-4.3,0.1-6.9c-0.2-2.5-0.5-4.7-0.9-6.6
								C593,394.9,592.7,395,592.4,395.1z"/>
							<path class="st3" d="M591.6,394.2c-0.6,0.2-1.5,0.5-2.3,1.2c-2.5,2.1-2.3,5.4-2.2,5.9c0.1-0.8,0.6-2.6,2.2-4.3
								c1.1-1.1,2.3-1.7,3-1.9c-0.1,0.8-0.1,1.8,0,2.8c0.3,2.4,1.1,4.2,1.7,5.4c-0.4-1.1-0.9-2.6-1-4.6c-0.1-1.5,0.1-2.8,0.3-3.8
								c0.5,0.1,1.1,0.3,1.6,0.5c2.2,1.1,3.1,3.3,3.4,4.1c0.2-0.6,0.3-1.4,0.1-2.4c-0.6-1.8-2.6-3.1-5-3.1c0.4-0.2,1-0.5,1.8-0.6
								c2.4-0.2,4,1.7,4.2,1.9c-0.1-0.1-1.5-2.7-4.1-2.8c-1.2,0-2.1,0.4-2.5,0.7c-0.4-0.3-1.2-0.6-2-0.5c-1.7,0.3-2.4,2.7-2.5,4.2
								c-0.1,1.8,0.8,3.1,1.2,3.6c-0.4-1-0.8-2.4-0.5-4.1c0.1-0.8,0.4-2.1,1.3-2.4C590.8,394,591.3,394.1,591.6,394.2z"/>
						</g>
						<g>
							<path class="st5" d="M598,383.5c0.7,3.2,1.4,7,1.7,11.3c0.3,4.5,0.2,8.6-0.2,12c-0.5,0.1-1.3,0.3-2,0.7
								c-1.3,0.7-2.1,1.7-2.4,2.3c0.7-0.3,1.7-0.7,2.9-0.7c0.8,0,0.8,0.2,1.7,0.3c1.7,0.1,2.6-0.5,3.6-0.2c0.1,0,0.4,0.1,0.8,0.1
								c0.1,0,0.8,0,0.8-0.2c0-0.2-1.3-0.4-2.8-1.4c-0.4-0.3-0.8-0.5-1-0.7c0.3-3.6,0.4-7.7,0.1-12.3c-0.3-4.5-0.9-8.5-1.6-11.9
								C599,383,598.5,383.2,598,383.5z"/>
							<path class="st3" d="M596.4,381.9c-1.2,0.3-2.7,0.9-4.1,2.1c-4.4,3.7-4.1,9.8-4,10.6c0.2-1.3,1-4.7,4-7.7c2-2,4.2-3,5.4-3.4
								c-0.1,1.4-0.2,3.1,0,5c0.5,4.3,1.9,7.6,3.1,9.8c-0.7-1.9-1.6-4.7-1.7-8.2c-0.1-2.7,0.2-5,0.5-6.8c0.9,0.2,1.9,0.5,2.9,1
								c4,2,5.6,6,6.1,7.3c0.3-1,0.6-2.6,0.1-4.2c-1-3.2-4.6-5.5-9-5.6c0.8-0.4,1.8-0.9,3.2-1.1c4.2-0.4,7.2,3.1,7.6,3.5
								c-0.1-0.3-2.6-4.9-7.4-5.1c-2.1-0.1-3.7,0.7-4.5,1.2c-0.8-0.5-2.1-1.1-3.6-0.8c-3,0.6-4.4,4.8-4.5,7.5
								c-0.1,3.2,1.5,5.5,2.2,6.4c-0.7-1.7-1.5-4.4-1-7.4c0.3-1.4,0.7-3.8,2.4-4.4C595.1,381.5,595.9,381.7,596.4,381.9z"/>
						</g>
					</g>
				</g>
				<g>
					<path class="st5" d="M624.3,419.6h-172V311.1h172V419.6z M457.3,414.5h161.9v-98.4H457.3V414.5z"/>
				</g>
			</g>
			<g style="clip-path:url(#SVGID_00000131348743062691236840000004948136578768814227_);">
				<path class="st6" d="M221.4,757.3c-5.7-12.2-14-34.1-14.9-62.5c-0.9-28.6,6.1-51,11.1-63.6c8.7,10.5,20.9,27.9,29.2,51.9
					c9.8,28.3,9.8,53,8.7,67.5C244.1,752.9,232.8,755.1,221.4,757.3z"/>
				<path class="st7" d="M237.9,754.3c-4.7-9.4-7.2-19.7-9.4-29.9c-6.3-30.7-9.1-61.9-11-93.1c2.1,31.2,5.2,62.4,11.8,93
					c2.3,10.1,4.9,20.3,9.6,29.5C238.9,753.7,237.9,754.3,237.9,754.3L237.9,754.3z"/>
			</g>
			<g style="clip-path:url(#SVGID_00000131348743062691236840000004948136578768814227_);">
				<path class="st8" d="M274.2,751.1c3.9-19.1,8.9-52.8,5.7-94.6c-3.3-42-13.5-73.3-20.2-90.6c-7.1,17.3-16.6,45.2-21.3,82.2
					c-5.6,43.5-2,79.6,1.3,100.6C251.1,749.4,262.7,750.3,274.2,751.1z"/>
				<path class="st7" d="M256.3,749.7c3.4-14.9,4.4-30.3,5.2-45.6c2-46,0.6-92.2-1.8-138.2c3,53.7,5.7,107.6,1.4,161.3
					c-0.7,7.7-1.7,15.3-3.4,22.9L256.3,749.7L256.3,749.7z"/>
			</g>
			<g style="clip-path:url(#SVGID_00000131348743062691236840000004948136578768814227_);">
				<path class="st6" d="M294.9,751.1c2.3-11.1,5.2-30.7,3.3-55c-1.9-24.4-7.8-42.6-11.8-52.7c-4.1,10.1-9.7,26.3-12.4,47.8
					c-3.2,25.3-1.1,46.3,0.7,58.5C281.5,750.1,288.2,750.6,294.9,751.1z"/>
				<path class="st7" d="M284.4,750.3c1.4-6.3,2.2-13.4,2.6-19.9c1.8-29,0.8-58.1-0.7-87c1.7,29,2.9,58.1,1.3,87.1
					c-0.4,6.5-1.2,13.6-2.5,20C285.2,750.4,284.4,750.3,284.4,750.3L284.4,750.3z"/>
			</g>
			<path style="clip-path:url(#SVGID_00000131348743062691236840000004948136578768814227_);fill:#00747D;" d="M194.4,446.9v270.3
				c-8-6.2-15.2-13.6-21.3-22.5c-42.8-53.9-44.8-100-44.2-118.7C130.7,522.8,161.5,480,194.4,446.9z"/>
			<g style="clip-path:url(#SVGID_00000131348743062691236840000004948136578768814227_);">
				<g>
					<g>
						<path class="st7" d="M686.1,551.6c-1.1,12.1-4.8,21.3-7.6,26.7c0,7.4,0,14.7,0.1,22.1c-12.8-0.2-26.1-0.1-40,0.4
							c-14.9,0.5-29.2,1.4-42.9,2.6c0.1-2.4,0.1-4.9,0.1-7.4c0-2.4,0-4.8,0-7.1c-6.8-0.2-13.6-0.5-20.4-0.7c-1.6,0-3.1-0.8-4-2
							c-0.7-0.9-1.1-2-1.2-3.1c0-0.8,0-1.4,0-1.6c1.7-14.7,5.1-28.3,5.1-28.3c2.6-10.2,5.4-23.1,10-31.2c0.9-1.6,1.7-2.7,2.7-3.7
							c2.5-2.5,4.8-3.1,11.8-6.1c1.3-0.5,3.1-1.3,5.2-2.3c0,0,7-3.1,17.2-6.1c1.1-0.3,2.1-0.6,3-0.8c1.9-0.6,4.8-1.3,8.3-1.5
							c4.8-0.2,8.2,0.6,15.3,2.7c0.2,0.1,0.3,0.1,0.6,0.2c0,0,0,0,0,0c0.7,0.2,1.2,0.4,1.2,0.4c5.1,1.6,12.3,5.1,12.3,5.1
							c2.1,0.9,4.4,2,6.7,3.3c5.2,2.9,9.5,6.1,12.9,9c0.2,0.2,0.3,0.3,0.4,0.5C684.8,528.8,687.2,538.9,686.1,551.6z"/>
						<polygon class="st10" points="629.1,525.2 632.6,545.6 634.6,597.7 635.9,597.7 638,555.5 643.8,519 						"/>
						<path class="st11" d="M629.8,529.8c1.3-1.4,3.3-3.4,6.4-5.1c3.6-2,7-2.6,9.1-2.8c-1.7,2.5-3.3,4.9-5,7.4
							C636.8,529.4,633.3,529.6,629.8,529.8z"/>
						<path class="st12" d="M601.9,543.9c-1.7,9.1-3.4,18.1-5.1,27.2c1.6,0.5,3.1,1,4.7,1.6C601.6,563.1,601.8,553.5,601.9,543.9z"
							/>
						<path class="st13" d="M648.8,504.8c-2.7,1.7-6.5,4.6-10.1,9.2c-3.2,4.2-5,8.3-6,11.2c-0.3-2.6-1-6.4-3-10.5
							c-2.3-4.9-5.4-8.2-7.4-10c0-0.1,0-0.2,0-0.3c1.1-0.4,2.1-0.7,3-1c1.9-0.7,4.8-1.6,8.3-1.8
							C638.3,501.3,641.8,502.3,648.8,504.8z"/>
						<g>
							<g>
								<g>
									<polygon class="st14" points="648.7,514.9 647.5,502.6 647.4,501.5 647.3,500.7 646.6,493.7 623.2,493.7 622.5,501.2 
										622.4,501.9 622.3,503 621.1,515.4 									"/>
									<g>
										<path class="st14" d="M657.9,464.7c0.6-0.2,0.7-0.5,1.2-0.4c0.3,0.1,0.9,0.5,1.1,1c0.2,0.7,0.5,2,0.1,3.5
											c-0.1,0.5-0.5,2.4-0.8,3.2c-0.4,1-0.8,4.1-1.1,4.8c-0.3,0.7-0.9,3.1-1.4,3.7c-0.4,0.7-0.8,1.8-2.2,2
											c-0.5,0.1-0.9-0.1-0.9-0.1s-0.9-8.4-0.7-10c0.2-1.7,1.7-5.1,1.9-5.9C655.4,465.7,657.9,464.7,657.9,464.7z"/>
										<path class="st14" d="M611.9,465.2c-0.6-0.2-0.7-0.5-1.2-0.4c-0.3,0.1-0.9,0.5-1.1,1c-0.2,0.7-0.6,2-0.2,3.5
											c0.1,0.5,0.5,2.5,0.8,3.3c0.4,1,0.7,4.1,1,4.8c0.3,0.7,0.9,3.1,1.3,3.7c0.4,0.7,0.8,1.8,2.1,2c0.5,0.1,0.9-0.1,0.9-0.1
											s1-8.3,0.8-10c-0.1-1.7-1.6-5.1-1.8-5.9S611.9,465.2,611.9,465.2z"/>
										<path class="st15" d="M647.3,500.7c-0.8,0.8-1.5,1.6-2,2c-1.2,1.1-5.5,4.4-5.8,4.7c-0.7,0.7-3,1-5.3,1
											c-2.3-0.1-4.5-0.5-5.2-1.2c-0.3-0.3-4.5-3.8-5.6-5c-0.2-0.2-0.6-0.6-0.9-1l0.8-7.5h23.3L647.3,500.7z"/>
										<path class="st14" d="M657.5,458.8c-0.3,2-1.5,9.7-1.5,9.7s-0.2,1.7-0.2,2.5c-0.1,1.1-0.1,3.5-0.4,5c0,0.1,0,0.1,0,0.2
											c-0.3,1.4-0.4,2.2-0.7,3.5c-0.3,1.3-0.7,4.9-0.8,5.6c0,0.8-0.4,2.9-0.6,3.4c-0.2,0.5-0.5,2-1.2,2.9
											c-0.6,0.7-1.2,1.7-1.8,2.5c-0.2,0.2-0.3,0.4-0.4,0.6c-0.3,0.4-1.1,1.3-2,2.2c0,0,0,0.1-0.1,0.1c-0.9,1-1.9,2-2.4,2.5
											c-1.2,1.1-5.5,4.4-5.8,4.7c-0.7,0.7-3,1-5.3,1h-0.1c-2.3-0.1-4.5-0.5-5.2-1.2c-0.3-0.3-4.5-3.8-5.6-5
											c-0.5-0.5-1.4-1.5-2.2-2.5c-0.2-0.2-0.3-0.4-0.5-0.6c-0.7-0.8-1.3-1.6-1.5-1.9c-0.6-0.9-1.4-2.2-2.1-3.2s-0.8-2.4-1-3
											c-0.2-0.5-0.4-2.7-0.4-3.5c0-0.7-0.2-4.3-0.5-5.6c-0.1-0.6-0.2-1.2-0.2-1.7c-0.1-0.5-0.1-1.1-0.3-1.8
											c-0.2-1.5-0.2-4-0.2-5.2c0-0.8-0.1-2.5-0.1-2.5s-0.8-7.7-1-9.8c-0.2-2,1.9-11.8,2.8-13.3c0.9-1.5,6.5-3.5,14.1-4.8
											c1.8-0.3,3.4-0.5,5-0.5l0.3-0.1c1.8,0.1,3.8,0.4,6.1,0.9c7.6,1.6,13.1,3.9,13.9,5.5C656.2,446.9,657.8,456.8,657.5,458.8z
											"/>
										<path class="st16" d="M615.8,438.8c-0.4,0.1-1.3,0.2-2.3-0.1c-1-0.3-1.7-0.8-2-1.1c0.9,0.1,2.4,0.2,4.1,0.2
											c11.2-0.1,14.8-5.7,24.7-5.8c2.6,0,6.3,0,10.1,2.3c3.6,2.3,5.3,5.6,6.1,7.4c2.3,1.7,3.2,3.5,3.7,4.7
											c0.4,1,0.5,1.8-0.7,10.9c-0.2,1.6-0.5,3.9-1.2,6.8c-0.4,1.6-0.5,2.4-1,3.3c-0.5,1-1.3,2.6-1.6,3.5
											c-0.3,0.9-0.4,2.2-0.4,2.2c-0.2,0.1-0.5,0.2-0.7,0.3c0-4.3-1-7.5-2.5-10c-0.5-0.9-0.9-1.2-1.3-2.1
											c-1.6-3.3-0.8-6.9,0.2-9.6c-2.2,1.9-6.6,5.1-12.9,6.6c-4.7,1.2-8.8,1-11.4,0.7c1.5-0.1,3.5-0.4,5.7-1.2
											c2.1-0.7,3.7-1.7,4.9-2.4c-2.3,0.9-6.2,2.1-11.2,1.7c-3-0.2-5.5-0.9-7.3-1.6c0,0.4,0.1,0.9,0,1.6
											c-0.1,1.3-0.5,2.3-0.7,2.7c-0.7,1.6-1.2,3.3-1.8,4.9c-1.1,3.4-1.3,6.4-1.3,8.4c-0.2,0.1-0.5,0.1-0.7,0.2
											c0,0-0.1-1.3-0.4-2.2c-0.3-0.9-1.1-2.5-1.6-3.5s-1-2.8-1-3.3c0-0.5-0.5-2.7-0.8-4.2c-0.3-1.4-0.5-2.8-0.5-4.2
											c-0.1-1.4-0.1-2.8,0-3.9c0-1.4,0.1-2.4,0.2-3.6c0.3-2,0.6-4.6,2.5-7C613.2,440.8,614.2,439.7,615.8,438.8z"/>
									</g>
									<g>
										<path class="st7" d="M629.4,474.3c-0.7,0.4-2.2,1.2-4.2,1.3c-2.6,0-4.5-1.3-5.1-1.8c0.8-1,1.8-1.7,2.9-2
											c1.1-0.4,2.2-0.4,3.3,0c0.3,0.1,0.5,0.2,0.7,0.3C628.3,472.7,629.1,473.8,629.4,474.3z"/>
										<path class="st17" d="M626.8,473.3c0,1.3-1.4,2.3-2.6,2.2c-1.2-0.1-2.4-1.3-2.3-2.6c0-0.4,0.2-0.8,0.5-1.1
											c1.1-0.4,2.2-0.4,3.3,0c0.3,0.1,0.5,0.2,0.7,0.3C626.6,472.4,626.8,472.8,626.8,473.3z"/>
										<path d="M622.6,473.5c0,0.7,0.6,1.3,1.3,1.3c0.8,0,1.5-0.7,1.4-1.5c0-0.8-0.8-1.4-1.6-1.3
											C623.1,472.1,622.5,472.7,622.6,473.5z"/>
										<path class="st7" d="M624.7,473.1c0,0.2,0.2,0.3,0.3,0.3c0.2,0,0.3-0.2,0.3-0.3c0-0.2-0.2-0.3-0.3-0.3
											S624.7,472.9,624.7,473.1z"/>
										<path class="st16" d="M630,466.2c-5.9-1.1-10.4-1-11.6-0.2c-0.8,0.6-1.3,1.3-1.3,1.3c-0.4,0.7-0.6,1.3-0.7,1.7
											c0.5-0.3,1.2-0.7,2.1-1c1.3-0.4,2.6-0.6,5.7-0.3c1.5,0.1,3.5,0.4,5.9,0.8c0.1-0.2,0.1-0.5,0.1-0.7
											C630.2,467.1,630.1,466.6,630,466.2z"/>
										<path class="st16" d="M638.7,466.2c5.9-1.1,10.4-1,11.6-0.2c0.8,0.6,1.3,1.3,1.3,1.3c0.4,0.7,0.6,1.3,0.7,1.7
											c-0.5-0.3-1.2-0.7-2.1-1c-1.3-0.4-2.6-0.6-5.7-0.3c-1.5,0.1-3.5,0.4-5.9,0.8c-0.1-0.2-0.1-0.5-0.1-0.7
											C638.5,467.1,638.6,466.6,638.7,466.2z"/>
										<path class="st18" d="M629.4,474.3c-0.4-0.4-2.1-2.1-4.8-2.2c-2.4-0.1-4.1,1.3-4.6,1.7c0.1-0.1,1.8-2.8,4.8-2.6
											C627.8,471.4,629.3,474.1,629.4,474.3z"/>
									</g>
									<g>
										<path class="st7" d="M640.5,473.9c0.5,0.4,2,1.6,4.3,1.7c3,0.1,4.9-1.7,5.3-2c-0.4-0.4-1.4-1.5-3.1-1.9
											c-0.3-0.1-1.9-0.5-3.6,0.2c-0.1,0-0.4,0.2-0.8,0.3C641.5,472.7,640.9,473.4,640.5,473.9z"/>
										<path class="st17" d="M642.2,473.6c0.1,1.3,1.5,2.2,2.7,2c1.2-0.2,2.3-1.4,2.1-2.7c-0.1-0.4-0.3-0.8-0.5-1
											c-1.1-0.3-2.2-0.3-3.2,0.1c-0.2,0.1-0.5,0.2-0.7,0.3C642.3,472.7,642.2,473.1,642.2,473.6z"/>
										<path d="M645.5,473.4c0,0.8-0.6,1.4-1.3,1.4c-0.7,0-1.3-0.6-1.3-1.4c0-0.8,0.6-1.4,1.3-1.4
											C644.9,472,645.5,472.6,645.5,473.4z"/>
										<path class="st7" d="M645.6,473.1c0,0.2-0.1,0.3-0.3,0.3c-0.2,0-0.3-0.1-0.3-0.3c0-0.2,0.1-0.3,0.3-0.3
											C645.5,472.8,645.6,472.9,645.6,473.1z"/>
										<path class="st18" d="M640.5,473.9c0.6-0.5,1.8-1.4,3.6-1.8c3.1-0.6,5.5,1.1,6,1.4c-1.6-2-4-2.8-6.2-2.3
											C641.8,471.8,640.8,473.5,640.5,473.9z"/>
									</g>
									<g>
										<g>
											<path class="st19" d="M638.4,485.6c0.1,0.2-1.6,1.9-3.6,1.7c-1.6-0.1-2.9-1.4-2.8-1.6c0.1-0.2,1.1,0.6,2.8,0.7
												C636.9,486.5,638.3,485.5,638.4,485.6z"/>
										</g>
									</g>
									<g>
										<path class="st19" d="M636.9,494.3c-0.8,0-3.3,0.1-6.7-0.3c-1.1-0.2-1.7-0.2-1.7-0.4c0-0.3,3.2-0.7,6.4-0.7
											c3,0.1,6.1,0.6,6.1,0.9C641,494.1,638.5,494.2,636.9,494.3z"/>
									</g>
									<g>
										<path class="st16" d="M645,499.8c-0.1,0.1-0.5,0.5-0.7,0.8c-0.1,0.1-0.2,0.2-0.2,0.2c-1.7,1.4-4.4,3.5-4.7,3.7
											c-0.7,0.7-3,1-5.2,1h-0.1c-2.2-0.1-4.5-0.5-5.2-1.2c-0.2-0.2-1.3-1.2-2.6-2.3c-0.1-0.1-0.3-0.2-0.4-0.4
											c-0.7-0.7-1.5-1.6-2-2.1v0c0.3-1.4,1-2.1,1.3-3.5c0.4,0.6,0.8,1,1.2,1.3c0.1,0.1,0.1,0.1,0.2,0.2c0.1,0.1,0.1,0.2,0.2,0.3
											c0.3,0.4,0.9,0.9,1.7,1.2c2,0.7,3.8-0.8,3.9-0.9c-0.2-0.7-0.3-1.4-0.5-2.2c0.9,0,1.9,0,2.8,0c1,0,2,0,2.9,0
											c-0.2,0.8-0.3,1.6-0.5,2.4c0.8,1,2,1.5,3.2,1.2c0.7-0.2,1.2-0.6,1.5-1c0.2-0.2,0.3-0.4,0.4-0.6c0.1-0.2,0.2-0.3,0.2-0.4
											c0.3-0.3,0.7-0.8,1.1-1.4C644,497.6,644.7,498.3,645,499.8C645,499.8,645,499.8,645,499.8z"/>
									</g>
									<path class="st16" d="M645,499.8c-0.1,0.1-0.5,0.5-0.7,0.8c-0.6-0.6-1.2-1.3-1.7-1.9c0,0,0,0-0.1-0.1c0-0.2,0-0.5,0-0.7
										c-0.1-1.6-0.2-3.2-0.3-4.9c-1.1-0.5-2.6-1.1-4.5-1.3c-1-0.1-2-0.1-2.7,0c-1.1-0.2-3-0.4-5.1,0.2c-1.2,0.3-2.1,0.8-2.8,1.2
										c-0.2,1.4-0.4,2.8-0.5,4.2c0,0.2,0,0.4-0.1,0.6c-0.2,1.2-0.3,2.4-0.5,3.6c-0.7-0.7-1.5-1.6-2-2.1v0
										c0.2-1.2,0.5-2.3,0.7-3.5c0.4-1.8,0.8-3.6,1.1-5.4c1.2-0.7,2.8-1.4,5-1.8c1-0.2,1.9-0.2,2.7-0.2c0.5,0.1,0.9,0.3,1.4,0.4
										c0.5-0.1,1-0.2,1.4-0.3c0.9,0,2,0.1,3.2,0.4c1.7,0.4,3.1,1.1,4,1.7c0.3,1.8,0.6,3.6,0.9,5.4
										C644.6,497.3,644.8,498.5,645,499.8C645,499.8,645,499.8,645,499.8z"/>
								</g>
								<path class="st20" d="M655.6,469.9c-0.2,0-0.4,0.1-0.6,0.1c-0.2,0-0.3,0-0.5,0l0,0c-0.8-0.1-1.4-0.4-1.7-0.6
									c0,0-1.6-1-2.5-1.5c-0.5-0.3-1.1-0.5-1.6-0.6c-1.6-0.5-3.1-0.4-3.7-0.4c-0.3,0-0.7,0-1.2,0.1l0,0c-0.7,0.1-1.7,0.4-2.7,0.8
									c-1,0.4-1.7,0.9-2.2,1.3c-0.3,0.3-0.7,0.4-1,0.2c-0.3-0.1-0.5-0.4-0.6-0.6c-0.1-0.1-0.2-0.2-0.3-0.2l-4.1-0.1
									c-0.1,0-0.2,0.1-0.3,0.2c-0.1,0.2-0.3,0.4-0.6,0.5c-0.4,0.1-0.7,0-1-0.3c-0.5-0.4-1.2-0.9-2.2-1.4c-0.8-0.4-1.6-0.7-2.3-0.8
									l0,0c-0.7-0.2-1.3-0.2-1.6-0.3c-0.3,0-1-0.1-1.7,0c-1,0.1-2.3,0.3-3.5,0.9c-1,0.5-2.6,1.5-2.6,1.5c-0.1,0.1-0.3,0.2-0.5,0.3
									c-0.2,0.1-0.4,0.2-0.6,0.2c-0.2,0-0.3,0.1-0.5,0.1c-0.2,0-0.4,0-0.5,0c-0.2,0-0.4-0.1-0.6-0.1c0,0.1,0,0.3,0,0.4l0,0
									c0,0.7-0.1,1.3-0.1,2c0.3,0,0.6,0,0.9,0.1c0.1,0,0.2,0,0.3,0.1c0.1,0,0.2,0.1,0.3,0.2c0.2,0.2,0.1,0.5,0.1,0.6
									c0,0.2,0,0.4,0,0.6c0.1,0.6,0.2,1.4,0.5,2.3c0,0,0,0,0,0c0.2,0.6,0.5,1.3,0.8,1.9c0.3,0.5,0.6,1,1,1.6
									c0.4,0.5,0.9,1,1.5,1.5c2.3,1.6,4.8,1.4,5.4,1.4c0.6-0.1,2.6-0.3,4.4-1.9c1.3-1.2,1.8-2.6,2.3-3.8c0.6-1.6,0.8-2.9,0.8-3.9
									c0-0.1,0-0.1,0-0.2c-0.1-0.2-0.4-0.9-0.1-1.4c0.2-0.3,0.6-0.4,1-0.6c0.4-0.1,2.3-0.1,2.8,0c0.4,0.1,0.8,0.2,1,0.6
									c0.3,0.5,0,1.2-0.1,1.4c0,0,0,0.1,0,0.1c0,1,0.1,2.3,0.7,3.9c0.4,1.2,0.9,2.6,2.2,3.9c1.7,1.6,3.7,2,4.3,2.1
									c0.7,0.1,3.1,0.4,5.5-1.2c1.4-0.9,2.2-2.1,2.7-3c1.1-1.9,1.5-3.7,1.6-4.7c0-0.1,0-0.4,0.2-0.6c0.1-0.1,0.2-0.2,0.3-0.2
									c0,0,0.1,0,0.1,0c0.1,0,0.3-0.1,0.4-0.1c0.2,0,0.4,0,0.6,0C655.6,471.5,655.6,470.7,655.6,469.9z M631.2,473.9
									c-0.2,2.4-1.5,4-1.9,4.5c-0.5,0.5-1.3,1.5-2.8,2.1c-3,1.1-5.7-0.6-6-0.8c-0.3-0.2-1.8-1.2-2.6-2.9c-0.3-0.6-0.5-1.2-0.6-1.9
									c-0.1-0.7-0.1-1.3,0-1.9c0.1-0.8,0.3-1.4,0.5-1.8c0.2-0.4,0.9-2,2.5-2.9c1-0.6,1.9-0.7,3-0.7c0.4,0,0.8,0,1.3,0l0.1,0
									c1.2,0.1,2.8,0.1,4.3,1.1c0.5,0.3,1.4,0.9,2,2C631.3,472,631.3,473.2,631.2,473.9z M652.5,475.5c-0.6,3-3,4.4-3.4,4.7
									c-0.4,0.2-3.1,1.8-6,0.6c-1.5-0.6-2.3-1.6-2.8-2.2c-0.4-0.5-1.7-2.1-1.8-4.6c0-0.7-0.1-1.9,0.6-3.1c0.6-1.1,1.5-1.6,2-2
									c1.6-1,3.2-1,4.4-1c0.4,0,0.7,0,1.1,0l0,0c0.7,0,1.4,0.1,2.1,0.3c0.4,0.1,0.7,0.3,1.1,0.5c1.6,1,2.2,2.5,2.4,3
									C652.5,472.4,652.9,473.8,652.5,475.5z"/>
							</g>
							<path class="st12" d="M647.7,503.6c-1.2,1.5-2.5,3.1-3.8,4.7c-1.9,2.2-3.8,4.2-5.7,6.1c-0.3,16.3-0.7,32.6-1,48.8
								c-0.3,16.3-1.2,28.5-1,28.5c0.2,0,0.9-7.9,3.1-41.9c3.2-6.3,6.4-12.7,9.6-19c-1.9-0.9-3.8-1.8-5.7-2.7
								c1.9-1.8,3.7-3.7,5.6-5.5c-0.1-2.8,0-6.4,0.8-10.5c0.6-2.8,1.3-5.2,2.1-7.2C650.4,504.5,649,504.1,647.7,503.6z"/>
							<path class="st12" d="M622.2,503.8c-1.8,0.6-3.6,1.2-5.5,1.7c1.1,2.4,2.3,5.4,3.2,8.9c1,4.1,1.3,7.8,1.4,10.7
								c2.3,0.5,4.6,1,7,1.5c-1.9,1.4-3.8,2.7-5.8,4.1c3.3,6,6.5,12.1,9.8,18.1c1.2,35.6,1.8,43.2,2.1,43.2c0.5,0,1.2-15.5,0.5-28.9
								c-0.7-12.6-1.4-25.2-2.1-37.8c-1.4-4.5-3.4-9.7-6.6-15.2C624.8,507.7,623.5,505.6,622.2,503.8z"/>
							<path class="st12" d="M661.5,584.2c-13.9,2.5-29.9,4.5-47.5,5.2c-13.3,0.5-25.7,0.3-36.9-0.4c-1.7-0.2-2.9-0.8-3.6-1.1
								c-0.7-0.4-1.4-0.8-2.1-1.5c-0.7-0.9-1.1-2-1.2-3.1c5.8,6.8,27.7,3.6,44.9,3.2c13.4-0.3,25.3-1.7,35.6-3.5
								c-0.8-1.1-1.6-2.4-2.4-3.8c-0.9-1.5-1.6-3-2.2-4.3c-7.4,0.4-15.6,0.5-24.4,0c-7.3-0.4-14-1.1-20.2-2c-1.5-1.3-2.9-2.6-4.4-4
								c10.3,1.4,21.5,2.5,33.7,2.9c8.4,0.3,16.4,0.2,23.9-0.1c0.7,1.1,1.4,2.3,2.1,3.6C658.7,578.2,660.2,581.3,661.5,584.2z"/>
							<path class="st7" d="M570.2,583.2c12.5,2.1,27.7,3.6,44.9,3.2c13.4-0.3,25.3-1.7,35.6-3.5c-0.8-1.1-1.6-2.4-2.4-3.8
								c-0.9-1.5-1.6-3-2.2-4.3c-7.4,0.4-15.6,0.5-24.4,0c-7.3-0.4-14-1.1-20.2-2"/>
						</g>
						<g>
							<g>
								<path class="st21" d="M639.4,519c-0.2-0.5-0.4-1-0.5-1.2c0-0.1-0.1-0.2-0.1-0.2c0,0,0,0,0,0c0-0.1,0.2-0.5,0.3-0.6
									c0.1-0.1,0.1-0.2,0.2-0.3c0.9-1.6,1.7-3.4,1.7-5.3v-0.1l0-0.2c0-0.6,0-1.2,0-1.8c0,0,0,0,0,0c0.1-1.7,0.5-3.4,1.8-4.6
									c0.1-0.1,0.3-0.3,0.5-0.4c0.6-0.5,1.2-1,1.2-1.7c0-0.7-0.7-1.2-1.4-1.2c-0.6,0-1.3,0.2-2,0.7c-2.3,1.6-3.5,3.7-3.6,5.8
									c0,0.1-0.1,0.1-0.1,0.2c-0.1,0-0.2,0-0.2-0.1c-0.7-2.3-1.5-5-3.1-7c-1.6-1.8-4.4-3.1-6.8-2.1c-0.2,0.1-0.3,0.2-0.5,0.3
									c-0.4,0.3-0.8,0.7-0.7,1.2c0,0.2,0.1,0.4,0.2,0.5c0,0,0,0,0,0c0,0,0,0.1,0,0.1c0,0.1,0.1,0.2,0,0.2c0,0.2-0.1,0.3-0.2,0.4
									c0,0-0.1,0.1-0.1,0.1c-0.1,0.1-0.2,0.1-0.2,0.1c-0.3,0.1-0.7,0.2-1,0.3c-0.4,0.1-1.2,0.4-1.4,1c0,0.1-0.1,0.2-0.1,0.3
									c0,0.1,0,0.3,0.1,0.4v0c0,0.1,0,0.1,0,0.2c0,0.3-0.2,0.6-0.5,0.7c0,0-0.1,0-0.1,0h0c0,0,0,0,0,0c-0.9,0-1.2,0.1-1.9,0.4
									c-0.3,0.1-1.7,1-1.7,2.1c0,0.1,0,0.2,0.1,0.3c0,0,0,0,0,0c0,0,0,0.1,0,0.1c0,0.2,0,0.4-0.1,0.5c0,0.1-0.1,0.1-0.1,0.1
									c0,0,0,0-0.1,0c0,0,0,0-0.1,0c-0.3,0.2-0.6,0.6-0.7,1c-0.3,0.8,0.2,1.7,0.9,2.2c0.1,0.1,0.2,0.2,0.3,0.3
									c0.6,0.5,1.4,1.1,2.1,1.3c0.1,0,0.1,0.1,0.1,0.1c0.9,3,3.1,5.6,5.2,8c0.3,0.3,0.6,0.6,0.9,0.9c0.2,0.2,0.4,0.4,0.7,0.6
									c0.2,0.2,0.4,0.4,0.4,0.4c0.3,0.3,0.9,1,2.3,2.6c1.1-0.1,2.9-0.5,4.8-1.5c2.2-1.2,3.6-2.7,4.4-3.6
									C639.9,520.1,639.7,519.5,639.4,519z"/>
								<path class="st19" d="M631.8,527.2l1.3,3.4l1.6,4.5l8.7-8.3c-0.5-0.6-1-1.2-1.2-1.9c-0.1-0.3-0.3-0.7-0.4-1.2c0,0,0,0,0,0
									c-0.1-0.2-0.3-0.5-0.4-0.7c-0.2-0.5-0.6-1.4-1-2.3c-0.9,0.8-2.1,1.7-3.5,2.6c-2.1,1.3-4.1,2-5.7,2.5
									C631.3,526.3,631.5,526.8,631.8,527.2z"/>
							</g>
							<g>
								<path class="st22" d="M626,501.8c1.7-0.6,3.3-0.2,5,0.2c-1.6-0.4-3.4-1.2-4.8-1C626.4,501.3,626.2,501.7,626,501.8z"/>
							</g>
							<g>
								<path class="st22" d="M622.7,504.6c0.7,0,1.8,0,3.1,0.2c1.1,0.1,1.8,0.3,1.8,0.3c0,0-0.7-0.3-4.3-1.3
									C623.4,504.2,623.1,504.6,622.7,504.6z"/>
							</g>
							<g>
								<path class="st22" d="M619,508.2c0.7,0,1.5,0,2.4,0c1.1,0.1,2.1,0.3,2.9,0.6c-0.6-0.3-1.5-0.7-2.6-1c-1-0.2-1.9-0.3-2.6-0.3
									c0,0.1,0.1,0.2,0,0.4C619.1,508.1,619.1,508.1,619,508.2z"/>
							</g>
						</g>
						<path class="st7" d="M628.3,528.1c2.3-0.8,5-1.8,7.9-3.4c3.1-1.7,5.6-3.5,7.5-5.1c7.4,12.7,14.9,25.4,22.3,38.1
							c0.1-7,0.2-13.9,0.3-20.9c0.5,7.8,1,15.6,1.5,23.5c3.3,4.9,6.5,9.7,9.8,14.6c3.3-6.3,5.1-11.8,6-15.8c0,0,4.4-18.5-0.9-36.2
							c0-0.2-0.1-0.2,0-0.2c0.7,2.1,1.5,4.6,2.2,7.5c1.2,5.4,1.7,11.9,1.8,13.1c0,0.2,0,0.5,0.1,0.9c0,0,0.3,5.2,0.3,10.3
							c-0.2,19.9-0.3,35.6-8.1,39.4c-3.2,1.6-6.8,0.6-8.6,0.1C648.3,587.7,631,536.2,628.3,528.1z"/>
						<path class="st12" d="M643.7,519.6c8.2,11.7,16.6,24.8,24.1,36.9c0,0-2.8,0.7-2.8,0.7c0.4-5.2,1-12.5,1.5-17.6
							c0,0,3.2,0.2,3.2,0.2c-0.1,5-0.3,15.1-0.4,20.1c0,0-0.2-0.8-0.2-0.8c1.6,2.5,3.1,5.1,4.7,7.6c1.6,2.5,3.1,5.1,4.6,7.7
							l-1.6,0.2c2.2-5.2,4.5-10.4,6.8-15.5c-1.8,5.9-3.7,11.8-5.8,17.7c0,0-1-1.4-1-1.4c-3.5-4.9-6.9-9.8-10.2-14.7
							c0,0-0.2-0.3-0.2-0.3l0-0.4c0-5,0-15.1,0-20.1c0,0,3.2,0.2,3.2,0.2c-0.6,6.9-1.5,15.4-2.1,22.3c0,0-2.4-4.1-2.4-4.1
							C658,545.8,650.3,532.3,643.7,519.6L643.7,519.6z"/>
						<path class="st23" d="M686.7,543.2"/>
					</g>
				</g>
			</g>
			<g style="clip-path:url(#SVGID_00000131348743062691236840000004948136578768814227_);">
				
					<rect x="385.7" y="682.9" transform="matrix(-1.836970e-16 1 -1 -1.836970e-16 1167.3981 210.4968)" class="st24" width="185.6" height="12.1"/>
				
					<rect x="569.7" y="510.6" transform="matrix(-1.836970e-16 1 -1 -1.836970e-16 1322.416 26.5032)" class="st25" width="156.6" height="327.8"/>
				
					<rect x="725.1" y="682.9" transform="matrix(-1.836970e-16 1 -1 -1.836970e-16 1506.8313 -128.9365)" class="st24" width="185.6" height="12.1"/>
			</g>
			
				<rect x="425.1" y="591.7" style="clip-path:url(#SVGID_00000131348743062691236840000004948136578768814227_);fill:#7C3A25;" width="447.7" height="17"/>
			<g style="clip-path:url(#SVGID_00000131348743062691236840000004948136578768814227_);">
				<path class="st7" d="M828.3,591.2c0.7-1.2,1.4-3.1,1.4-5.5c-0.1-2.2-0.8-3.9-1.4-5h56.3c0.8,1.5,1.2,3.1,1.3,4.7
					c0.1,2.5-0.6,4.5-1.3,5.8H828.3z"/>
				<path class="st27" d="M884.3,581.2c0.7,1.3,1.1,2.8,1.1,4.2c0.1,2.2-0.5,4.1-1.1,5.3h-55.2c0.6-1.3,1.1-3,1.1-5.1
					c0-1.8-0.5-3.3-1.1-4.5H884.3 M884.9,580.2c-19.2,0-38.4,0-57.5,0c0.5,0.8,1.7,2.7,1.8,5.5c0.1,3.1-1.3,5.3-1.8,6h57.5
					c0.5-0.9,1.7-3.3,1.5-6.4C886.3,582.9,885.4,581.1,884.9,580.2L884.9,580.2z"/>
			</g>
			<g style="clip-path:url(#SVGID_00000131348743062691236840000004948136578768814227_);">
				<path class="st7" d="M831.9,579.7c0.7-1.2,1.4-3.1,1.4-5.5c-0.1-2.2-0.8-3.9-1.4-5h56.3c0.8,1.5,1.2,3.1,1.3,4.7
					c0.1,2.5-0.6,4.5-1.3,5.8H831.9z"/>
				<path class="st28" d="M888,569.6c0.7,1.3,1.1,2.8,1.1,4.2c0.1,2.2-0.5,4.1-1.1,5.3h-55.2c0.6-1.3,1.1-3,1.1-5.1
					c0-1.8-0.5-3.3-1.1-4.5H888 M888.6,568.6c-19.2,0-38.4,0-57.5,0c0.5,0.8,1.7,2.7,1.8,5.5c0.1,3.1-1.3,5.3-1.8,6h57.5
					c0.5-0.9,1.7-3.3,1.5-6.4C890,571.3,889.1,569.5,888.6,568.6L888.6,568.6z"/>
			</g>
			
				<rect x="723.1" y="535.1" style="clip-path:url(#SVGID_00000131348743062691236840000004948136578768814227_);fill:#4F4E4E;" width="96.8" height="50.8"/>
			<polygon style="clip-path:url(#SVGID_00000131348743062691236840000004948136578768814227_);fill:#3A3A3A;" points="819.9,591.7 
				723,591.7 723,586 819.9,586 			"/>
			<polygon style="clip-path:url(#SVGID_00000131348743062691236840000004948136578768814227_);fill:#3A3A3A;" points="723.1,591.7 
				710.5,591.7 710.5,587 723.1,586 			"/>
			<path style="clip-path:url(#SVGID_00000131348743062691236840000004948136578768814227_);fill:#BCA18C;" d="M434.1,248"/>
			<g style="clip-path:url(#SVGID_00000131348743062691236840000004948136578768814227_);">
				<g>
					<g>
						<path class="st32" d="M345.5,473.7c0.1,3.8,0.3,9.7,1.4,16.7c3,18.5,8.9,25.6,11.3,39.7c1.1,6.7,1.8,16.6-1.2,29.4
							c-9.6-1.1-19.2-2.2-28.8-3.4c0.8-27.7,1.6-55.3,2.4-83C335.6,473.4,340.6,473.5,345.5,473.7z"/>
						<path class="st33" d="M345.6,538.1c-1,1.2-2.7,2.9-5.3,4.3c-2.5,1.4-4.9,1.8-6.3,2c-5.6-1.1-11.7-2.5-18.1-4.6
							c-4-1.3-7.8-2.6-11.3-4c2.4-1.9,4.8-3.7,7.2-5.6c0.2-6.8,0.5-13.7,0.7-20.5c0.7,0.1,1.4,0.2,2.2,0.3c0.2,0,0.3,0,0.5,0.1
							c1.1,0.1,2.2,0.3,3.6,0.4c0,0,0.1,0,0.1,0c0.4,0,0.7,0.1,1.1,0.1c1,0.1,2,0.2,3,0.3c0.6,0,1.2,0.1,1.8,0.1
							c2.5,0.2,5.6,0.4,9.2,0.6c-0.1,3.6-0.1,7.3-0.2,10.9c0,2.7-0.1,5.5-0.1,8.2C337.6,533.2,341.6,535.6,345.6,538.1z"/>
						<path class="st34" d="M404.1,659.3c-39-2-71.5-22.7-82-50.5c-3.7-9.9-5.3-28.9-3-48.2c1-8.1,2.5-14.7,3.8-19.4
							c4.5,1.5,9,2.9,13.5,4.4c3.8-2.1,7.6-4.2,11.4-6.3c2,1.3,4.1,2.5,6.1,3.8c0.4,1.5,0.7,3,1.1,4.5c5.9,24.5,10.3,48.6,13.4,72.2
							C380.3,633,392.2,646.1,404.1,659.3z"/>
						<g id="_x36__00000086666775632893966380000000179992921293386936_">
							<path class="st35" d="M286.3,820.5c3.1,0,5.7-2.2,5.7-4.9V697.1c0-2.7-2.6-4.9-5.7-4.9c-3.1,0-5.7,2.2-5.7,4.9v118.5
								C280.6,818.3,283.2,820.5,286.3,820.5z"/>
							<path class="st36" d="M300.3,820.5c3.1,0,5.7-2.2,5.7-4.9V697.1c0-2.7-2.6-4.9-5.7-4.9c-3.1,0-5.7,2.2-5.7,4.9v118.5
								C294.6,818.3,297.1,820.5,300.3,820.5z"/>
							<path class="st35" d="M353.5,820.5c3.1,0,5.7-2.2,5.7-4.9V697.1c0-2.7-2.6-4.9-5.7-4.9c-3.1,0-5.7,2.2-5.7,4.9v118.5
								C347.8,818.3,350.3,820.5,353.5,820.5z"/>
							<path class="st36" d="M366.5,820.5c3.1,0,5.7-2.2,5.7-4.9V697.1c0-2.7-2.6-4.9-5.7-4.9c-3.1,0-5.7,2.2-5.7,4.9v118.5
								C360.8,818.3,363.3,820.5,366.5,820.5z"/>
							<path class="st37" d="M297.6,546.5c-11.6,48.3-2.7,72.6,8.7,85.9c20.5,24,65.1,25.5,74.3,53.9c2.4,7.3,3.5,22.2,2.6,24.3
								c-0.9,2-2.8,3.6-5.2,3.5c-3,0.5-6.3-4.2-8.2-5.8c-5.8-5.8-13.6-9-21.8-9c0,0-51.8,0-51.8,0c-6.1,0.1-14.8-0.8-22.5-6
								c-15.7-10.7-16.8-32.2-20.2-77.5c-1.1-14.4-3-40.2-5.9-74.4c7.1-0.6,15.9-0.8,25.9,0.3C282.9,542.7,291,544.6,297.6,546.5z"
								/>
						</g>
						<path class="st38" d="M461.8,821.2h-44.3c-2.1,0-3.9-1.8-3.7-4c0.4-4.6,1.5-11.5,1.2-14.6c0.2-2.7-3.7-37.3-4-40.8h27.8
							l-4.5,35.7c-0.5,4.2,2,8.2,6,9.6c5.4,1.8,11.6,2.6,15.7,3.6c3.6,0.9,6.8,2.1,8.7,4.6C466.6,817.7,464.8,821.2,461.8,821.2z"/>
						<path class="st39" d="M412.4,816.5c0,0.7,0.2,1.3,0.4,2.1c0.4,1.5,1.8,2.6,3.4,2.6h45.9c0.6-0.2,3.5-1.1,3.9-3
							c0.5-2.2-2.3-5.5-7.5-6.8c1.8,0.8,2.6,1.5,2.5,2c-0.4,2.1-16.2,1.6-47.6-1.6C412.4,813.9,412.3,815.6,412.4,816.5z"/>
						<path d="M442.7,790c-15.6,5.7-36.3,0-36.3,0c-2-31-4-52.1-6-83.1c-31.9-8.8-63.8-17.6-95.7-26.4c-2.9-12.3-5.8-24.7-8.7-37
							c20.7-1.9,41.3-3.7,62-5.6c22.5,12,44.9,24.1,67.4,36.1c9.4,5.7,15.2,15.8,15.4,26.7C441.4,731.3,442,757.1,442.7,790z"/>
						<path class="st38" d="M452.5,821.2h-44.3c-2.1,0-3.9-1.8-3.7-4c0.4-4.6,1.5-11.5,1.2-14.6c0.2-2.7-3.7-37.3-4-40.8h27.8
							l-4.5,35.7c-0.5,4.2,2,8.2,6,9.6c5.4,1.8,11.6,2.6,15.7,3.6c3.6,0.9,6.8,2.1,8.7,4.6C457.3,817.7,455.5,821.2,452.5,821.2z"/>
						<path class="st40" d="M403.2,817.7c0.1,1,0.5,1.8,0.5,1.8c0.4,0.8,1,1.3,1.3,1.5c0.2,0.1,0.3,0.1,0.5,0.2h47.3
							c0.8-0.2,4.4-1.1,4.8-3c0.5-2.8-5.9-5.8-6.5-6c-1.3-0.6-2.5-1-3.4-1.2c1.1,0.8,1.6,1.4,1.5,2c-0.6,2.5-15.2,1.8-44-2.2
							C403.6,813.6,403,816.2,403.2,817.7z"/>
						<path class="st41" d="M433.4,790c-10.4-2.2-22.9-3-36.3,0c-1.5,0.3-2.9,0.7-4.3,1.1c-0.3-10.1-0.8-23.8-2-40.2
							c-2-28.6-3.5-33.7-7.1-38.4c-7-9.3-18-12.1-39.9-17.5c-26.5-6.6-40.1-5.7-48.4-14.5c-5.2-5.5-7.7-12.6-8.7-19.7
							c-0.2-1.1-0.3-2.2-0.4-3.2c-0.4-5-0.2-9.8,0.3-14.1c23.6-2.1,47.1-4.2,70.7-6.3c1.9-0.2,3.7-0.3,5.6-0.5
							c2.5,1.9,5,3.9,7.6,5.7c16,11.9,33.2,23,48.7,35.3c7.5,5.9,11.9,14.9,12.2,24.4C432,732.5,432.7,757.6,433.4,790z"/>
						<path class="st7" d="M358.1,636.4c-0.3,0.1-0.6,0.3-0.7,0.7c-1.5,5.1,58.7,15.4,84.7,47.5c12,14.9,21.8,40.8,12.2,89.1
							c-24-0.8-48-1.6-72-2.4c2.9-46-8.4-66-21.1-75.2c-24.6-17.8-67-4.1-74-21.6c-2.1-5.2-4.4-21.9-5.2-34c0-0.2,0-0.5-0.1-1
							c-0.9-15.4-1.2-26.5-1.3-29.3c-0.2-7.7-0.9-23.7-2.9-59.3c1.7-2.1,3.6-4.2,5.8-6.3c9.1-8.7,19-13.1,26.3-15.6
							c7.7,3,15.4,6,23.1,8.9c1.6-1.5,3.2-3,4.8-4.5c5,3.1,9.9,6.1,14.9,9.2c1.7,28.5,3.3,56.9,4.7,85.4
							C357.8,630.4,358,634,358.1,636.4z"/>
						<g>
							<path class="st42" d="M338,588.4c-0.5-5.1-1.2-10.4-1.9-15.8c-1.6-11-3.6-21.4-5.8-31.1c2.3-0.4,4.7-0.7,7-1.1
								c2.7,9,5.1,19.6,6.4,31.4c0.7,5.6,1,11,1.2,16c-0.7,1.5-1.4,3-2.1,4.4C341.2,590.9,339.6,589.7,338,588.4z"/>
						</g>
						<path class="st42" d="M302.9,531c10.8,4.2,21.6,8.5,32.3,12.7c3-2.2,6-4.4,8.9-6.6c-2.2-1.4-4.5-2.7-6.7-4.1
							c-1.6,1.3-3.1,2.5-4.7,3.8c-7.6-2.9-15.2-5.8-22.8-8.7C307.6,529.1,305.2,530.1,302.9,531z"/>
						<path class="st34" d="M392.4,666.2c-1.2,2.5-2.7,4.2-4.1,5.5c-20.5-8.9-41.4-17.8-62.5-26.6c-10.4-4.3-20.7-8.5-30.9-12.7
							c-4.7-22.5-9.3-45-14-67.5c-1-4.7-1.9-9.4-2.9-14c1.2-1.1,3.1-2.7,5.9-3.6c8.1-2.8,15.7,2.1,17.5,3.3c6,3.9,8.7,9.5,9.7,12.1
							c1.4,7.6,3,15.4,4.8,23.3c2,9.2,4.2,18.1,6.4,26.7c11,5.3,22.2,10.8,33.5,16.7c12.4,6.4,24.3,12.8,35.7,19.3
							C392.3,650,396.2,658.2,392.4,666.2z"/>
						<g>
							<path class="st43" d="M414.1,668.7C414.1,668.7,414.1,668.7,414.1,668.7c2.1,1.7,3.7,3,4.6,3.8c2.1,1.7,3.5,2.9,3.2,3.7
								c-0.1,0.4-0.6,0.6-0.7,0.6c-0.7,0.2-1.3-0.2-2.5-1c-1.2-0.9-1.9-1.3-2.4-1.8c-0.9-0.8-2.3-1.9-4.3-3c1.6,1,2.8,1.9,3.7,2.6
								c2.2,1.7,2.6,2.2,2.5,2.5c-0.1,0.2-0.5,0.3-1,0.3c-2.9,0-5.9-2.2-8.1-3.4c-1.3-0.7-3.3-1.8-5.9-2.6c-1.4,0-4.1-0.2-7.1-1.7
								c-2.6-1.3-4.2-3.1-5.1-4.1c-0.3-0.1-0.5-0.3-0.8-0.4c0.4-1.5,0.8-3.3,1-5.4c0.2-2,0.2-3.7,0.1-5.2c0.8,0.5,1.6,0.9,2.4,1.4
								c0.7,0,1.6,0,2.8,0.1c0,0,2.8,0.3,5.6,1.5c6.1,2.7,21.9,14.4,20.7,16.1c-0.1,0.1-0.3,0.2-0.4,0.2c-1,0.2-1.7-1.6-4-3.5
								c-1.1-0.9-2-1.4-2-1.4c1,0.7,1.8,1.3,2.4,1.7c3.4,2.5,4,3.5,4.1,4.5c0,0.2,0.1,0.8-0.2,1c-0.7,0.4-2.6-1.5-3.5-2.4
								c-0.6-0.5-1.3-1-1.9-1.6C416.1,670.3,415.1,669.5,414.1,668.7z"/>
						</g>
						<g>
							<path class="st44" d="M338.6,538.8"/>
						</g>
						<g>
							<path class="st45" d="M334,511.6c-0.1,3.6-0.1,7.3-0.2,10.9c-0.7,0.2-1.3,0.3-2.1,0.4c-2.4,0.2-5.8-0.6-13-5.1
								c-1.2-0.7-2.8-1.8-4.8-3.1c0.2-1.2,0.4-2.5,0.6-3.9c0-0.3,0.1-0.6,0.1-0.9c0.2,0,0.3,0,0.5,0.1c1.2,0.2,2.3,0.3,3.6,0.4
								c0,0,0.1,0,0.1,0c0.4,0,0.7,0.1,1.1,0.1c1,0.1,2,0.2,3,0.3c0.6,0,1.2,0.1,1.8,0.1C327.2,511.1,330.3,511.4,334,511.6z"/>
							<path class="st33" d="M344.4,490.7c-0.8,9.1-0.2,10.1-1.3,15.8c-0.6,3.6-1.4,6.5-2,8.4c-0.6,0.7-2.9,3.5-6,4.8
								c-0.6,0.3-1.8,0.8-3.4,0.8c-0.6,0-1.2,0-2-0.2c-5-1-9.8-4.2-9.8-4.2c-1.9-1.5-4.3-3.2-6.1-5.8c-2.2-3.2-2.5-6.4-0.9-22.4
								c1.4-13.7,2.2-16.7,4.8-18.4c1.3-0.9,3.4-1.6,7.6-3.1c3.5-1.2,4.7-1.4,5.9-1.4c2.8,0.1,4.8,1.1,6.2,1.9
								c1.5,0.8,3.8,2,5.4,4.4c1,1.5,1.8,3.4,2.1,7.8C345.3,483.2,344.8,485.3,344.4,490.7z"/>
							<g>
								<g>
									<path class="st46" d="M337.1,507c-0.2,0.4-1.8-0.7-4.2-0.9c-3.1-0.3-5.3,1-5.5,0.7c-0.1-0.3,1.3-1.4,3-1.9
										c0.6-0.2,3-1,5.1,0.2C336.5,505.7,337.3,506.7,337.1,507z"/>
								</g>
								<path class="st46" d="M335,497.9c-0.2,0.2-0.8,0.8-1.7,0.9c-1.2,0.1-2-0.9-2.1-1c0.7,0,1.5,0.1,2.2,0.1
									C333.9,497.9,334.5,497.9,335,497.9z"/>
								<g>
									<path class="st7" d="M329,491.1c-0.8-2.1-2.9-3.3-4.9-3.1c-2.3,0.3-3.4,2.5-3.4,2.6c0.3,0.3,2,2,4.6,1.9
										C327.2,492.4,328.5,491.4,329,491.1z"/>
									<g>
										<path class="st47" d="M323.7,490.3c-0.1,1.1,0.6,2.1,1.5,2.2c0.9,0.1,1.6-0.8,1.7-1.9c0.1-1.1-0.6-2.1-1.5-2.2
											C324.5,488.3,323.8,489.1,323.7,490.3z"/>
										<path d="M324.6,490.4c0,0.6,0.3,1.2,0.8,1.2c0.5,0,0.9-0.4,0.9-1.1c0-0.6-0.3-1.2-0.8-1.2
											C325,489.3,324.6,489.7,324.6,490.4z"/>
										<path class="st7" d="M324.4,489.9c0,0.2,0.1,0.4,0.3,0.4c0.2,0,0.3-0.1,0.3-0.3c0-0.2-0.1-0.4-0.3-0.4
											C324.5,489.5,324.4,489.7,324.4,489.9z"/>
									</g>
									<path d="M329,491.1c-1-1.5-2.7-2.5-4.5-2.4c-2.2,0.1-3.5,1.7-3.7,2c0,0-0.1-0.1-0.2-0.1c-0.1-0.1-0.3-0.1-0.4-0.1
										c1-2,3.2-3,5.2-2.6C327.1,488.2,328.4,489.4,329,491.1z"/>
								</g>
								<g>
									<path class="st7" d="M336.2,492.4c1.5-1.8,3.4-2.4,4.9-1.6c1.5,0.8,1.9,2.8,2,3.2c-0.7,0.3-2,0.8-3.5,0.5
										C337.8,494.1,336.7,493,336.2,492.4z"/>
									<g>
										<path class="st47" d="M341.2,493.2c-0.3,1-1.3,1.5-2.1,1.2c-0.8-0.3-1.2-1.3-0.8-2.3c0.3-1,1.3-1.5,2.1-1.2
											C341.2,491.2,341.5,492.2,341.2,493.2z"/>
										<path d="M340.8,493.1c-0.2,0.5-0.7,0.8-1.2,0.6c-0.5-0.2-0.7-0.8-0.5-1.3c0.2-0.5,0.7-0.8,1.2-0.6
											C340.8,492,341,492.5,340.8,493.1z"/>
										<path class="st7" d="M339.6,492.1c-0.1,0.2-0.2,0.3-0.4,0.2c-0.2-0.1-0.2-0.3-0.2-0.4c0.1-0.2,0.2-0.3,0.4-0.2
											C339.6,491.7,339.7,491.9,339.6,492.1z"/>
									</g>
									<path d="M336.2,492.3c0.1-0.1,2.2-2,4.4-1c1.5,0.7,2.1,2.3,2.3,2.7c0.1,0,0.1,0,0.2,0c0,0,0.1,0,0.1,0
										c-0.3-2-1.5-3.5-3.1-3.7C338.7,490,337.2,490.8,336.2,492.3z"/>
								</g>
								<path d="M327.8,483.7c-0.5-0.2-1.9-0.7-4-0.8c-2.9-0.2-4.6,0.7-5,0.9c-0.5,0.3-0.8,0.7-0.8,0.7c-0.3,0.3-0.4,0.7-0.6,1.1
									c-0.2,0.5-0.5,1.2-0.7,2c0.1-0.1,0.2-0.2,0.3-0.3c0,0,0.5-0.5,1.2-0.8c2.4-1.3,5.7-1.3,5.7-1.3c2.1,0,3.9,0.5,5.2,1
									c0.1-0.1,0.5-0.4,0.6-0.9c0.1-0.3,0.1-0.5,0-0.6C329.3,484.3,328.6,484,327.8,483.7z"/>
								<g>
									<path d="M344.6,489c-0.1-0.1-0.1-0.1-0.2-0.1c-1.7-1.4-4.3-1.6-4.3-1.6c-1.7-0.1-3.1,0.3-4.1,0.7c-0.1-0.1-0.3-0.4-0.4-0.9
										c0-0.3,0-0.5,0-0.6c0.4-0.3,0.9-0.6,1.6-0.9c0.4-0.2,1.6-0.6,3.2-0.7c2.3,0,3.6,0.9,3.8,1.1c0.3,0.3,0.5,0.6,0.5,0.7
										C344.7,487.6,344.6,488.3,344.6,489z"/>
								</g>
								<path d="M332.7,501c-4.4-0.4-7.5,1.7-8.3,2.3c-1.1,2-2.3,4.5-3.3,7.4c-0.6,1.9-1.1,3.6-1.4,5.2c0.6,0.5,2.9,2.3,4.4,3
									c0.2,0.1,0.3,0.2,0.3,0.2c0.5,0.2,1.4,0.6,2.5,1c1.8,0.5,3.9,0.9,5.2,0.8c4.7-0.1,8.5-5.4,9-6.1c0.2-1.7,0.3-3.6,0.2-5.8
									c-0.1-1.4-0.2-2.7-0.4-3.9C340.3,504.5,337.5,501.5,332.7,501z M331.5,508c-0.1,0.3-0.6,1.4-1.8,1.8c-1.4,0.5-2.9,0-3.7-0.6
									c0,0,0,0,0,0c-0.7-0.5,0.1-2.2,0.9-3.6c0.5-0.4,2.9-2.2,6.3-1.8c2.9,0.3,4.7,2,5.2,2.6c0.1,1.1,0.2,2.2,0.3,3.2c0,0,0,0,0,0
									c0,0,0,0,0,0c0,0,0,0,0,0c-0.6,0.4-1.5,0.4-2.2,0.1c-1.1-0.5-1.4-1.6-1.4-1.7C333.9,508,332.7,508,331.5,508z"/>
							</g>
							<path class="st32" d="M344.9,480.7c-2.9-1.5-4.4-1.4-5.3-1.1c-0.4,0.2-1.9,0.9-3.4,0.5c0,0,0,0,0,0c-0.6-0.4-1.6-0.8-2.9-1.1
								c-0.3-0.1-1-0.2-1.8-0.2c-2.7,0.1-3.3,1.9-5.5,1.8c-1.1,0-1-0.5-2.7-0.7c-1.1-0.1-2.6-0.3-3.8,0.5c-1.1,0.7-1.5,1.8-1.8,3.1
								c-0.3,1.2-0.5,2.8-0.5,4.9c-0.4,4.7-0.4,9.7-0.4,11.8c-0.1,11.7-5.8,24.8-5.8,42.4c0,4.2,0.4,10.6,2.3,18.6
								c-5-0.5-7.3-1-8.5-1.5c-0.3-0.1-1.9-0.8-4.1-1.3c-0.3-0.1-0.5-0.1-0.7-0.2c-1.7-0.3-3-0.2-3.9-0.1c-2.6,0.2-6.2,1.4-7.8,1.8
								c-2.1,0.5-5.3,0.6-9.5-1c0.6-9,2.5-15.8,4.2-20.4c1.8-4.9,3.3-7.3,5.7-13.6c0.6-1.5,3.1-8.2,5.2-16.6
								c4.1-16.7,2.3-23.4,8.1-35.6c1.1-2.3,2.2-4.2,2.8-5.2c1.7-1.9,4.7-4.9,9.3-6.8c7.2-3,13.6-1.6,15.7-1.1
								c2.3,0.5,6.1,1.5,9.8,4.7c1.6,1.4,5.2,4.5,6,9.6C346,476.7,345.4,479.2,344.9,480.7z"/>
							<g>
								<path class="st48" d="M346.7,474c-6.4-1-14.3-1.6-23.3-1.2c-8.6,0.4-16.1,1.7-22.1,3.1"/>
								<path class="st48" d="M299.9,473c6.1-1.7,13.7-3.3,22.7-3.8c10.1-0.6,18.8,0.2,25.4,1.4"/>
							</g>
						</g>
					</g>
					<path class="st49" d="M247.1,541.3c3.6,0.6,8.9,2,14.6,5.3c10.9,6.4,15.9,15.8,17.7,19.2c3.7,7.2,4.2,12.7,4.3,43.5
						c0,7.8,0.1,18.7,1.3,40.4c0.2,4.8,0.5,9.1,0.8,13c0.4,6.4,5.2,11.6,11.6,12.5c19,2.7,44,6.6,54.6,9.8c0.3,0.1,1.4,0.4,2.8,0.9
						c15.1,5.6,19.6,13.3,21,16.2c2.2,4.5,3.2,10,1.8,10.9c-1.8,1-5.7-6.7-14.6-11.3c-4-2.1-7.7-2.9-19-3.5
						c-13.9-0.8-25.1-0.7-30.2-0.5c-18.9,0.4-23.9,1.2-32-1.6c-5.6-1.9-9.8-4.5-12.5-6.4c-1.6-1.5-3.6-3.5-5.5-6.2
						c-2.4-3.4-3.7-6.7-4.5-9.2l-3.1-18.3C253.1,617.7,250.1,579.5,247.1,541.3z"/>
					<g>
						<path class="st50" d="M417.2,674.7c-1.8-1.3-3.7-2.4-5.4-3.9C413.8,671.8,415.7,673,417.2,674.7L417.2,674.7z"/>
					</g>
					<g>
						<path class="st50" d="M420.8,671.2c-1.8-1.3-3.7-2.4-5.4-3.9C417.4,668.3,419.3,669.5,420.8,671.2L420.8,671.2z"/>
					</g>
					<g>
						<path class="st50" d="M420.8,674.3c-2.3-1.7-4.3-3.5-6.4-5.3C416.8,670.4,418.9,672.3,420.8,674.3L420.8,674.3z"/>
					</g>
				</g>
			</g>
		</g>
	</g>
</g>
</svg>
