<?xml version="1.0" encoding="utf-8"?>
<!-- Generator: Adobe Illustrator 26.0.1, SVG Export Plug-In . SVG Version: 6.00 Build 0)  -->
<svg version="1.1" id="Layer_1" xmlns="http://www.w3.org/2000/svg" xmlns:xlink="http://www.w3.org/1999/xlink" x="0px" y="0px"
	 viewBox="0 0 597 571.5" style="enable-background:new 0 0 597 571.5;" xml:space="preserve">
<style type="text/css">
	.st0{clip-path:url(#SVGID_00000149344701379970890850000015120637378602796950_);}
	.st1{fill:#A5E0DC;}
	.st2{fill:#00747D;}
	.st3{fill:#81CCC6;}
	.st4{fill:#00626F;}
	.st5{fill:#870707;}
	.st6{fill:#E0A790;}
	.st7{fill:#BA8174;}
	.st8{fill:#605A58;}
	.st9{fill:#CC936D;}
	.st10{fill:#101010;}
	.st11{fill:#AF1919;}
	.st12{fill:#E8E8E8;}
	.st13{fill:#BABABA;}
	.st14{fill:#C6C6C6;}
	.st15{fill:#FFFFFF;}
	.st16{fill:none;}
	.st17{fill:#BA7D54;}
	.st18{fill:#AF7151;}
	.st19{fill:#513328;}
	.st20{fill:none;stroke:#000000;stroke-width:4.5851;stroke-linecap:round;stroke-linejoin:round;stroke-miterlimit:10;}
	.st21{fill:#272A2B;}
	.st22{fill:#717375;}
	.st23{fill:#8F5F23;}
	.st24{fill:#553707;}
	.st25{fill:#4C3100;}
	.st26{fill:#331E00;}
	.st27{fill:#E09A61;}
	.st28{fill:url(#SVGID_00000146464775426029804940000014743788475361740932_);}
	.st29{fill:url(#SVGID_00000005260967562373619080000015890973582737220768_);}
	.st30{fill:url(#SVGID_00000023251300761887934840000008323249491629799609_);}
</style>
<g>
	<g>
		<g>
			<defs>
				<path id="SVGID_1_" d="M531.6,174.5c-10-17.8-21.7-33.6-33.8-46.8c-2.2-2.5-44.5-38.1-44.5-38.1c-1.2-0.9-2.4-1.9-3.5-2.8
					C416,58.4,390.3,7.1,296.5,14.9c-43.7,3.7-72.3,21.4-92.7,45.3c-6.2,7.2-11.6,15-16.5,23.2c-15,25.1-25,54-35.2,79.2
					c-13.5,33.3-61.6,38.5-79,77.2C57.3,258,49,286.8,44.8,307.6c-3,15-3.8,25.9-3.8,25.9c-4.7,104.9,89.6,185.3,186.8,214.4
					c21.8,6.5,43.7,10.5,64.6,11.5c9.9,0.5,19.6,0.4,29-0.4c1.9-0.2,3.8-0.4,5.7-0.6c1.3-0.1,2.7-0.3,4-0.5c1.1-0.1,2.2-0.3,3.4-0.4
					c0.6-0.1,1.2-0.2,1.9-0.3c0.6-0.1,1.2-0.2,1.8-0.3c31.5-4.8,66.8-15.8,99.2-32.7c0.2-0.1,0.3-0.2,0.5-0.3
					c52.2-27.4,96.7-70.2,105.2-127.3c7.5-37.4,17.9-59.2,17.9-115.1C562.8,244.6,531.6,174.5,531.6,174.5z"/>
			</defs>
			<clipPath id="SVGID_00000077282085741383226660000004315497736794548614_">
				<use xlink:href="#SVGID_1_"  style="overflow:visible;"/>
			</clipPath>
			<g style="clip-path:url(#SVGID_00000077282085741383226660000004315497736794548614_);">
				<rect x="-83" y="14.1" class="st1" width="751.7" height="593.1"/>
				<rect x="-83.1" y="407.1" class="st2" width="751.7" height="255.7"/>
				<g>
					<g>
						<path class="st2" d="M86.3,273.5c3.9,17,7.3,37.2,8.9,60.1c1.7,24.1,0.9,45.5-0.9,63.6c-2.8,0.5-6.7,1.6-10.8,3.9
							c-6.9,3.8-11,9.1-12.9,12.1c3.6-1.8,9-3.8,15.5-3.6c4.5,0.2,4,1.3,8.9,1.5c8.8,0.4,14-2.7,19.2-1.2c0.4,0.1,2,0.6,4.2,0.5
							c0.3,0,4-0.1,4.2-1c0.2-1.2-6.8-2.3-14.8-7.3c-2.3-1.4-4-2.8-5.2-3.7c1.5-19,2-41,0.5-65.3c-1.5-23.7-4.7-44.9-8.4-63.2
							C92,271.1,89.1,272.3,86.3,273.5z"/>
						<path class="st3" d="M78.3,265.3c-6.1,1.7-14.1,4.9-21.6,11.2c-23.4,19.7-21.6,51.8-21.3,56.4c1.3-7.1,5.4-25.2,21-40.8
							c10.7-10.7,22.2-15.8,28.9-18.1c-0.7,7.7-0.9,16.7,0.1,26.7c2.4,22.7,10.1,40.4,16.4,51.8c-3.9-10.1-8.3-25-9.2-43.4
							c-0.7-14.4,0.8-26.7,2.8-36c4.7,0.9,10.1,2.4,15.6,5.2c21.4,10.7,29.8,31.8,32.2,38.8c1.8-5.5,3.3-13.7,0.6-22.4
							c-5.2-16.9-24.3-29.1-47.7-29.6c4-2.4,9.7-4.9,16.8-5.6c22.5-2.2,38.4,16.2,40.4,18.5c-0.7-1.4-14-25.9-39.1-26.9
							c-11-0.4-19.6,3.9-23.9,6.5c-4.1-2.5-11.2-5.9-19-4.3c-16,3.3-23.3,25.3-23.9,39.7c-0.7,16.8,7.8,29.3,11.5,34.2
							c-3.9-9.2-8-23.2-5.2-39.1c1.3-7.4,3.6-19.9,12.7-23.3C70.9,263.1,75.4,264.2,78.3,265.3z"/>
					</g>
					<g>
						<path class="st2" d="M139,162.5c7,30.6,13.2,66.8,16,107.8c3,43.2,1.6,81.7-1.5,114.2c-5.1,1-12,2.9-19.3,7
							c-12.5,6.9-19.7,16.3-23.2,21.7c6.4-3.2,16.1-6.9,27.9-6.4c8.1,0.4,7.1,2.3,16.1,2.7c15.8,0.8,25.1-4.8,34.5-2.1
							c0.6,0.2,3.6,1,7.5,1c0.6,0,7.2-0.2,7.5-1.7c0.4-2.2-12.2-4.1-26.6-13.2c-4.1-2.6-7.3-5-9.3-6.7c2.7-34.1,3.7-73.5,0.9-117.1
							c-2.7-42.5-8.4-80.6-15.1-113.4C149.2,158.3,144.1,160.4,139,162.5z"/>
						<path class="st3" d="M124.6,147.8c-11,3.1-25.2,8.8-38.7,20.1c-42,35.3-38.8,93-38.2,101.1c2.3-12.8,9.8-45.2,37.7-73.3
							c19.2-19.3,39.8-28.3,51.9-32.5c-1.3,13.8-1.6,30,0.3,48c4.3,40.7,18.2,72.5,29.4,92.9c-7-18.2-14.8-44.9-16.5-77.9
							c-1.3-25.9,1.5-48,5-64.6c8.4,1.6,18.1,4.4,28.1,9.4c38.4,19.3,53.4,57,57.8,69.7c3.2-9.9,5.9-24.6,1-40.2
							c-9.4-30.4-43.7-52.2-85.7-53.1c7.2-4.2,17.4-8.8,30.2-10.1c40.3-3.9,69,29.1,72.5,33.3c-1.3-2.5-25.2-46.5-70.2-48.2
							c-19.8-0.8-35.2,7-42.8,11.6c-7.3-4.5-20.1-10.6-34.1-7.7c-28.8,5.8-41.8,45.4-42.8,71.2C68.2,227.6,83.3,250,90,258.7
							c-7.1-16.4-14.4-41.6-9.3-70.2c2.4-13.2,6.5-35.8,22.7-41.8C111.3,143.8,119.4,145.8,124.6,147.8z"/>
					</g>
				</g>
				<g>
					<g>
						<path class="st2" d="M634.1,273.5c-3.9,17-7.3,37.2-8.9,60.1c-1.7,24.1-0.9,45.5,0.9,63.6c2.8,0.5,6.7,1.6,10.8,3.9
							c6.9,3.8,11,9.1,12.9,12.1c-3.6-1.8-9-3.8-15.5-3.6c-4.5,0.2-4,1.3-8.9,1.5c-8.8,0.4-14-2.7-19.2-1.2c-0.4,0.1-2,0.6-4.2,0.5
							c-0.3,0-4-0.1-4.2-1c-0.2-1.2,6.8-2.3,14.8-7.3c2.3-1.4,4-2.8,5.2-3.7c-1.5-19-2-41-0.5-65.3c1.5-23.7,4.7-44.9,8.4-63.2
							C628.5,271.1,631.3,272.3,634.1,273.5z"/>
						<path class="st3" d="M642.2,265.3c6.1,1.7,14.1,4.9,21.6,11.2c23.4,19.7,21.6,51.8,21.3,56.4c-1.3-7.1-5.4-25.2-21-40.8
							c-10.7-10.7-22.2-15.8-28.9-18.1c0.7,7.7,0.9,16.7-0.1,26.7c-2.4,22.7-10.1,40.4-16.4,51.8c3.9-10.1,8.3-25,9.2-43.4
							c0.7-14.4-0.8-26.7-2.8-36c-4.7,0.9-10.1,2.4-15.6,5.2C588,289,579.7,310,577.2,317c-1.8-5.5-3.3-13.7-0.6-22.4
							c5.2-16.9,24.3-29.1,47.7-29.6c-4-2.4-9.7-4.9-16.8-5.6c-22.5-2.2-38.4,16.2-40.4,18.5c0.7-1.4,14-25.9,39.1-26.9
							c11-0.4,19.6,3.9,23.9,6.5c4.1-2.5,11.2-5.9,19-4.3c16,3.3,23.3,25.3,23.9,39.7c0.7,16.8-7.8,29.3-11.5,34.2
							c3.9-9.2,8-23.2,5.2-39.1c-1.3-7.4-3.6-19.9-12.7-23.3C649.6,263.1,645.1,264.2,642.2,265.3z"/>
					</g>
					<g>
						<path class="st2" d="M581.4,162.5c-7,30.6-13.2,66.8-16,107.8c-3,43.2-1.6,81.7,1.5,114.2c5.1,1,12,2.9,19.3,7
							c12.5,6.9,19.7,16.3,23.2,21.7c-6.4-3.2-16.1-6.9-27.9-6.4c-8.1,0.4-7.1,2.3-16.1,2.7c-15.8,0.8-25.1-4.8-34.5-2.1
							c-0.6,0.2-3.6,1-7.5,1c-0.6,0-7.2-0.2-7.5-1.7c-0.4-2.2,12.2-4.1,26.6-13.2c4.1-2.6,7.3-5,9.3-6.7
							c-2.7-34.1-3.7-73.5-0.9-117.1c2.7-42.5,8.4-80.6,15.1-113.4C571.3,158.3,576.4,160.4,581.4,162.5z"/>
						<path class="st3" d="M595.9,147.8c11,3.1,25.2,8.8,38.7,20.1c42,35.3,38.8,93,38.2,101.1c-2.3-12.8-9.8-45.2-37.7-73.3
							c-19.2-19.3-39.8-28.3-51.9-32.5c1.3,13.8,1.6,30-0.3,48c-4.3,40.7-18.2,72.5-29.4,92.9c7-18.2,14.8-44.9,16.5-77.9
							c1.3-25.9-1.5-48-5-64.6c-8.4,1.6-18.1,4.4-28.1,9.4c-38.4,19.3-53.4,57-57.8,69.7c-3.2-9.9-5.9-24.6-1-40.2
							c9.4-30.4,43.7-52.2,85.7-53.1c-7.2-4.2-17.4-8.8-30.2-10.1c-40.3-3.9-69,29.1-72.5,33.3c1.3-2.5,25.2-46.5,70.2-48.2
							c19.8-0.8,35.2,7,42.8,11.6c7.3-4.5,20.1-10.6,34.1-7.7c28.8,5.8,41.8,45.4,42.8,71.2c1.2,30.2-13.9,52.7-20.6,61.4
							c7.1-16.4,14.4-41.6,9.3-70.2c-2.4-13.2-6.5-35.8-22.7-41.8C609.1,143.8,601.1,145.8,595.9,147.8z"/>
					</g>
				</g>
			</g>
		</g>
	</g>
	<ellipse class="st4" cx="289.5" cy="505.3" rx="144.7" ry="23.8"/>
	<g>
		<path class="st5" d="M232.5,142.5c-5,10.1-10.1,23.1-13,38.6c-1,5.2-1.6,10.1-2,14.8c21.5,2.5,43,5,64.5,7.5
			c-0.3-8.8-0.8-20.6-1.8-34.4c-1.7-22.6-3-26.8-6.2-29.9C262.7,128.5,236.6,140.5,232.5,142.5z"/>
		<g>
			<g>
				<g>
					<g>
						<g id="_x36__00000034808478789437518320000014799754713537052294_">
							<path class="st6" d="M177.6,500.4c3.2,0.8,6.4-0.8,7.1-3.5l31.1-121.2c0.7-2.8-1.3-5.7-4.5-6.5c-3.2-0.8-6.4,0.8-7.1,3.5
								l-31.1,121.2C172.4,496.6,174.4,499.5,177.6,500.4z"/>
							<path class="st7" d="M204.3,491.8c3.2,0.8,6.4-0.8,7.1-3.5l31.1-121.2c0.7-2.8-1.3-5.7-4.5-6.5c-3.2-0.8-6.4,0.8-7.1,3.5
								l-31.1,121.2C199.1,488.1,201.1,491,204.3,491.8z"/>
							<path class="st7" d="M317.8,492.3c-3.2,0.8-6.4-0.8-7.1-3.5l-31.1-121.2c-0.7-2.8,1.3-5.7,4.5-6.5c3.2-0.8,6.4,0.8,7.1,3.5
								l31.1,121.2C323.1,488.6,321,491.5,317.8,492.3z"/>
							<path class="st6" d="M299.1,503c-3.2,0.8-6.4-0.8-7.1-3.5l-31.1-121.2c-0.7-2.8,1.3-5.7,4.5-6.5c3.2-0.8,6.4,0.8,7.1,3.5
								l31.1,121.2C304.4,499.2,302.4,502.2,299.1,503z"/>
							<path class="st8" d="M301.3,359.6c0.6,3.6,1.2,7.2,1.8,10.8c-0.5,1.9-1,3.8-1.5,5.7c-33.9-0.8-67.9-1.5-101.8-2.3
								c-0.3-2.7-0.6-5.3-0.9-8c5.3-2.5,10.5-5,15.8-7.6C243.6,358.7,272.4,359.1,301.3,359.6z"/>
						</g>
					</g>
				</g>
			</g>
		</g>
		<g>
			<g>
				<g>
					<g>
						<g>
							<path class="st9" d="M357.8,479.5c-0.7,6.1-2.1,10.1-3.4,12.7c-0.4,0.8-1.6,3-1.9,6.2c-0.2,1.6-0.4,3.7,0.6,5.2
								c1.8,2.6,6.7,2.1,9.3,1.9c1.8-0.1,8.8,0.8,22.7,2.7c0,0,8.1,1.1,23.8,1.4c0.3,0,1.5,0,2.8-0.6c0.5-0.2,2.3-0.9,2.3-1.8
								c0.1-1.3-3.3-2.4-5.3-3c-4.6-1.6-9.1-3.6-13.7-5c-13.8-4.3-15.6-5.7-17-7.4c-2.2-2.8-2.8-6-3-8.2c0-1.8,0-3.6,0-5.4
								C369.4,478.5,363.6,479,357.8,479.5z"/>
							<path class="st10" d="M352.9,502.9c-0.1,0.1-0.3,0.3-0.4,0.4c-0.1,0.4-0.2,0.9-0.2,1.4c-0.1,1.1,0,2.1,0.1,2.9
								c2.6,0.3,6.6,0.7,11.4,1.1c7.8,0.7,8.9,0.5,15.8,1.1c13.5,1,15.5,1.9,22.7,1.7c5.1-0.2,9.2-0.8,11.6-1.3
								c0.1-0.3,0.2-0.7,0.3-1.1c0.2-0.8,0.1-1.5,0-2c-0.5,0.8-4.2,0.8-7.4,1c-5.7,0.4-9.5-0.2-16.8-0.9c-7.3-0.7-6.6-0.4-12.9-0.9
								C371,505.7,362.8,504.8,352.9,502.9z"/>
							<g>
								<path class="st10" d="M377.1,490c-1.6,2-3.4,4.2-5.4,6.3c-3.1,3.3-6.1,6-8.9,8.2c3.2,0.6,6.4,1.1,9.6,1.7
									c1.5-1,3.7-2.6,5.8-5.2c2-2.6,3.1-5,3.7-6.7c-0.6-0.5-1.3-1-2-1.6C378.8,491.8,377.9,490.8,377.1,490z"/>
								<path class="st10" d="M380.9,496.6c4.9,1.7,9.8,3.3,14.7,5c0.4-0.8,0.8-1.5,1.2-2.3c-5.1-1.7-10.2-3.5-15.3-5.2
									C381.3,494.9,381.1,495.8,380.9,496.6z"/>
								<path class="st10" d="M396.2,499.1c-0.4,1.1-1,2.4-1.9,3.7c-1.8,2.6-3.9,4.2-5.3,5c2.5,0.3,5,0.5,7.6,0.8
									c1.1-0.7,2.9-2.2,4.1-4.6c0.5-1,0.8-2,1-2.8C399.8,500.5,398,499.8,396.2,499.1z"/>
							</g>
						</g>
						<g>
							<path class="st9" d="M347.3,483.2c-0.7,6.1-2.1,10.1-3.4,12.7c-0.4,0.8-1.6,3-1.9,6.2c-0.2,1.6-0.4,3.7,0.6,5.2
								c1.8,2.6,6.7,2.1,9.3,1.9c1.8-0.1,8.8,0.8,22.7,2.7c0,0,8.1,1.1,23.8,1.4c0.3,0,1.5,0,2.8-0.6c0.5-0.2,2.3-0.9,2.3-1.8
								c0.1-1.3-3.3-2.4-5.3-3c-4.6-1.6-9.1-3.6-13.7-5c-13.8-4.3-15.6-5.7-17-7.4c-2.2-2.8-2.8-6-3-8.2c0-1.8,0-3.6,0-5.4
								C358.8,482.2,353.1,482.7,347.3,483.2z"/>
							<path class="st10" d="M342.3,506.6c-0.1,0.1-0.3,0.3-0.4,0.4c-0.1,0.4-0.2,0.9-0.2,1.4c-0.1,1.1,0,2.1,0.1,2.9
								c2.6,0.3,6.6,0.7,11.4,1.1c7.8,0.7,8.9,0.5,15.8,1.1c13.5,1,15.5,1.9,22.7,1.7c5.1-0.2,9.2-0.8,11.6-1.3
								c0.1-0.3,0.2-0.7,0.3-1.1c0.2-0.8,0.1-1.5,0-2c-0.5,0.8-4.2,0.8-7.4,1c-5.7,0.4-9.5-0.2-16.8-0.9c-7.3-0.7-6.6-0.4-12.9-0.9
								C360.5,509.5,352.3,508.5,342.3,506.6z"/>
							<g>
								<path class="st10" d="M366.5,493.7c-1.6,2-3.4,4.2-5.4,6.3c-3.1,3.3-6.1,6-8.9,8.2c3.2,0.6,6.4,1.1,9.6,1.7
									c1.5-1,3.7-2.6,5.8-5.2c2-2.6,3.1-5,3.7-6.7c-0.6-0.5-1.3-1-2-1.6C368.2,495.5,367.3,494.6,366.5,493.7z"/>
								<path class="st10" d="M370.3,500.4c4.9,1.7,9.8,3.3,14.7,5c0.4-0.8,0.8-1.5,1.2-2.3c-5.1-1.7-10.2-3.5-15.3-5.2
									C370.7,498.7,370.5,499.5,370.3,500.4z"/>
								<path class="st10" d="M385.6,502.8c-0.4,1.1-1,2.4-1.9,3.7c-1.8,2.6-3.9,4.2-5.3,5c2.5,0.3,5,0.5,7.6,0.8
									c1.1-0.7,2.9-2.2,4.1-4.6c0.5-1,0.8-2,1-2.8C389.2,504.2,387.4,503.5,385.6,502.8z"/>
							</g>
						</g>
						<path class="st11" d="M281.5,129.1c-0.1,4.3-0.1,10.8,0.8,18.7c2.4,20.8,8.7,29,10.7,45c1,7.6,1.2,18.7-2.8,32.8
							c-10.7-1.7-21.4-3.5-32-5.2c2.3-30.9,4.6-61.8,6.8-92.7C270.5,128.2,276,128.7,281.5,129.1z"/>
						<path class="st9" d="M277.6,197.6c-0.1,0.7-0.5,4.4-3.8,7.1c-3,2.4-6.3,2.3-7.1,2.2c-3.1-0.6-6.4-1.3-9.8-2.2
							c-2.3-0.6-6.4-1.6-10.5-3c-4.1-1.4-9.9-3.7-16.7-7.7c3.4-1.8,6.7-3.5,10.1-5.3c0.9-7.9,1.9-15.8,2.8-23.7
							c3.2,1.6,7.9,3.5,13.7,4.4c4.2,0.6,7.8,0.6,10.7,0.4c0.1,3.8,0.2,7.7,0.2,11.7v0.5c0,1.9,0,3.8,0,5.7c0,1.4,0,2.8-0.1,4.2
							C270.8,193.8,274.2,195.7,277.6,197.6z"/>
						<path class="st12" d="M345.3,335.3c-43.6-2.2-80-25.4-91.8-56.5c-4.2-11-5.9-32.4-3.3-53.9c1.1-9,2.8-16.5,4.3-21.7
							c5,1.6,10,3.3,15.1,4.9c4.2-2.5,8.5-4.9,12.7-7.4c2.4,1.4,4.8,2.7,7.3,4.1c2.9,15.4,5.4,31.6,7.6,48.5
							c1.5,11.3,2.7,22.4,3.7,33.1C315.6,302.9,330.4,319.1,345.3,335.3z"/>
						<path class="st13" d="M388.5,481.6c-17.5,6.3-40.6,0-40.6,0c-2.3-34.6-4.5-58.3-6.8-93c-14-8.3-34.3-18.1-60.2-24.1
							c-17.9-4.1-33.9-5.4-46.8-5.5c-3.3-13.8-6.5-27.6-9.8-41.5c23.1-2.1,46.2-4.2,69.4-6.2c25.1,13.5,50.3,26.9,75.4,40.4
							c10.5,6.4,17,17.6,17.2,29.9C387,415.9,387.7,444.9,388.5,481.6z"/>
						<path class="st14" d="M377.1,485.8c-4.2,1.9-11.7,4.7-21.5,4.8c-8.8,0.1-15.8-2.1-19.9-3.7c0.4-13,0.5-26.4,0.3-40.2
							c-0.2-18-0.9-35.2-1.9-51.7c-7.8-7.6-20-17.6-37-25.3c-28-12.6-53.5-12-66.3-10.8c-1.7-3.2-3.9-8.7-4.6-15.8
							c-0.6-6.4,0.3-11.7,1.2-15.1c15.4,5,27.5,5.7,36,5.3c3.8-0.2,6.8-0.5,36.3-3.2c1.9-0.2,3.8-0.3,5.7-0.5c2.5,2,5.1,3.9,7.7,5.8
							c16.3,12.1,33.8,23.4,49.6,35.9c7.6,6,12.2,15.2,12.4,24.9C375.7,427.3,376.4,452.8,377.1,485.8z"/>
						<path class="st15" d="M293.8,309.8c-0.3,0.1-0.7,0.4-0.8,0.7c-1.7,5.7,65.7,17.2,94.8,53.1c13.5,16.6,24.4,45.6,13.7,99.7
							c-26.9-0.9-53.7-1.8-80.6-2.7c3.2-51.5-9.4-73.9-23.6-84.1c-27.5-19.9-75-4.6-82.8-24.1c-2.3-5.9-4.9-24.5-5.8-38
							c0-0.2,0-0.5-0.1-1.1c-1-17.3-1.3-29.7-1.4-32.8c-0.2-8-0.9-24-2.7-58.1c-0.3-5.7,1.8-11.3,5.9-15.3c0,0,0,0,0.1-0.1
							c10.1-9.7,21.3-14.7,29.5-17.4c8.6,3.3,17.3,6.7,25.9,10c1.6-1.9,3.1-3.9,4.7-5.8c5.7,3,11.4,6.1,17.1,9.1
							c1.3,21,2.3,37.8,3,49.4c0.5,8.5,1.4,26.3,2.6,48.1C293.5,303.1,293.7,307.1,293.8,309.8z"/>
						<g>
							<path class="st14" d="M271.4,256c-0.6-5.7-1.3-11.6-2.2-17.6c-1.8-12.3-4-23.9-6.5-34.8c2.6-0.4,5.2-0.8,7.8-1.2
								c3,10.1,5.7,21.9,7.2,35.1c0.7,6.3,1.1,12.3,1.3,17.9c-0.8,1.7-1.6,3.3-2.4,5C274.9,258.9,273.1,257.5,271.4,256z"/>
						</g>
						<path class="st14" d="M232,191.8c12.1,4.7,24.1,9.5,36.2,14.2c3.4-2.7,6.7-5.5,10.1-8.2c-2.5-1.4-5.1-2.7-7.6-4.1
							c-1.8,1.5-3.5,3.1-5.3,4.6c-8.5-3.2-17-6.5-25.5-9.7C237.3,189.7,234.7,190.8,232,191.8z"/>
						<path class="st12" d="M280.2,210.5c6.7,3.5,9.3,9.5,10,11.2c-13.7,30.9-37.7,78.7-56.5,75.2c-4.6-0.9-9.9-5-14.5-17
							c-2.3-8.2-4.4-16.6-6.5-25.5c-2-8.4-3.7-16.6-5.3-24.6c-1-1.7-2.7-5.4-2.1-10c0.1-0.9,1-8.2,5.4-9.7c0,0,0.1,0,0.1,0
							c9.1-3.2,17.6,2.3,19.6,3.7c6.7,4.4,9.7,10.6,10.9,13.6c0.9,4.8,1.8,9.6,2.9,14.4c0.6,2.8,1.2,5.6,1.8,8.4
							c3.9-7.7,8.1-15.7,12.8-23.8c3.6-6.3,7.2-12.3,10.8-18.1C271.6,208.1,275.8,208.2,280.2,210.5z"/>
						<g>
							<path class="st16" d="M272.1,200.6"/>
						</g>
						<g>
							<path class="st17" d="M266.8,182.3l0,0.5c-0.9,0.3-2,0.5-3.2,0.6c-5.2,0.4-9.3-2.6-14.3-6.3c-2-1.5-4.7-3.7-7.7-6.7
								c-1.3-2.3-1.3-4.4-0.6-4.9c0.7-0.5,2.6,0.4,4.2,2.5c3.6,0.6,7.3,1.2,11.3,1.6c3.7,0.4,7.3,0.7,10.7,0.9
								C267.1,174.4,267,178.3,266.8,182.3z"/>
							<path class="st9" d="M279.4,148c-1.4,10.1-0.8,11.3-2.2,17.6c-0.9,4-1.9,7.2-2.7,9.3c-0.7,0.8-3.5,3.8-7,5.1
								c-0.7,0.3-2.1,0.8-3.9,0.7c-0.6,0-1.3-0.1-2.2-0.3c-5.6-1.3-10.7-5.2-10.7-5.2c-2.1-1.7-4.7-3.8-6.5-6.8
								c-2.2-3.7-2.5-7.3,0.1-25.1c2.2-15.3,3.3-18.5,6.3-20.4c1.5-0.9,3.9-1.7,8.7-3.1c4-1.2,5.3-1.3,6.6-1.2
								c3.1,0.2,5.4,1.5,6.9,2.4c1.6,0.9,4.1,2.4,5.9,5.2c1.1,1.7,1.8,3.8,2,8.9C280.8,139.7,280.2,142.1,279.4,148z"/>
							<g>
								<g>
									<path class="st18" d="M268.8,165.2c0,0.6-1.5,1-2.6,1c-1.7,0-3.5-0.9-3.4-1.5c0.1-0.6,1.9-1,3.4-0.8
										C267.4,164,268.8,164.7,268.8,165.2z"/>
								</g>
								<path class="st18" d="M268.6,155.7c-0.2,0.2-0.9,0.8-1.9,0.9c-1.3,0-2.2-1.1-2.3-1.3c0.8,0.1,1.6,0.2,2.5,0.2
									C267.4,155.6,268,155.6,268.6,155.7z"/>
								<g>
									<path class="st15" d="M262.2,147.9c-0.9-2.3-3.3-3.7-5.5-3.3c-2.6,0.4-3.7,2.8-3.8,3c0.3,0.3,2.2,2.2,5.2,2
										C260.3,149.4,261.7,148.3,262.2,147.9z"/>
									<g>
										<path class="st19" d="M256.3,147.1c0,1.3,0.7,2.4,1.7,2.4c1,0.1,1.8-0.9,1.9-2.2c0-1.3-0.7-2.4-1.7-2.4
											C257.1,144.8,256.3,145.8,256.3,147.1z"/>
										<path d="M257.3,147.2c0,0.7,0.4,1.3,0.9,1.4c0.5,0,1-0.5,1-1.2c0-0.7-0.4-1.3-0.9-1.4
											C257.7,145.9,257.3,146.5,257.3,147.2z"/>
										<path class="st15" d="M256.9,146.6c0,0.3,0.2,0.5,0.4,0.6s0.4-0.2,0.4-0.5s-0.2-0.5-0.4-0.6
											C257.1,146.1,256.9,146.3,256.9,146.6z"/>
									</g>
									<path d="M262.2,147.9c-0.1-0.2-2-2.8-5.1-2.6c-2.4,0.2-3.8,1.9-4,2.2c-0.1,0-0.2-0.1-0.2-0.1c-0.1,0-0.1,0-0.1-0.1
										c1-2.2,3.3-3.5,5.5-3.1C259.9,144.7,261.5,146,262.2,147.9z"/>
								</g>
								<g>
									<path class="st15" d="M270,149.2c1.6-2.3,3.8-3.2,5.5-2.3c1.8,0.9,2.4,3.2,2.5,3.8c-0.8,0.4-2.2,1-4,0.8
										C272,151.2,270.6,149.8,270,149.2z"/>
									<g>
										<path class="st19" d="M275.8,149.8c-0.3,1.2-1.4,1.9-2.3,1.6c-0.9-0.3-1.4-1.6-1.1-2.7c0.3-1.2,1.4-1.9,2.3-1.6
											C275.7,147.3,276.2,148.6,275.8,149.8z"/>
										<path d="M275.4,149.7c-0.2,0.7-0.8,1-1.4,0.8c-0.6-0.2-0.9-0.9-0.7-1.5c0.2-0.7,0.8-1,1.4-0.8
											C275.3,148.3,275.6,149,275.4,149.7z"/>
										<path class="st15" d="M274,148.6c-0.1,0.3-0.3,0.4-0.5,0.4c-0.2-0.1-0.3-0.4-0.2-0.6c0.1-0.3,0.3-0.4,0.5-0.4
											C274,148.1,274.1,148.4,274,148.6z"/>
									</g>
									<path d="M270.1,149.1c0.1-0.2,2.4-2.6,5-1.5c1.8,0.7,2.6,2.7,2.8,3.1c0.1,0,0.1,0,0.2,0c0,0,0.1,0,0.1,0
										c-0.4-2.4-1.9-4.1-3.8-4.3C272.8,146.1,271.1,147.2,270.1,149.1z"/>
								</g>
								<path d="M261.3,139.3c-0.5-0.2-2.1-0.9-4.4-1.1c-3.2-0.3-5.2,0.5-5.6,0.8c-0.6,0.3-1,0.8-1,0.8c-0.3,0.4-0.5,0.7-0.7,1.2
									c-0.3,0.5-0.6,1.3-0.9,2.1c0.1-0.1,0.2-0.2,0.3-0.3c0,0,0.6-0.5,1.4-0.9c2.7-1.3,6.4-1.2,6.4-1.2c2.4,0.1,4.4,0.7,5.7,1.4
									c0.1-0.1,0.6-0.4,0.7-0.9c0.1-0.3,0.1-0.5,0.1-0.7C262.8,140.2,262.1,139.7,261.3,139.3z"/>
								<g>
									<path d="M279.4,146.6c-0.1-0.1-0.1-0.1-0.2-0.2c-1.7-1.8-4.5-2.4-4.6-2.4c-1.8-0.4-3.5-0.1-4.7,0.2c-0.1-0.1-0.3-0.5-0.3-1
										c0-0.3,0.1-0.5,0.1-0.7c0.5-0.2,1.1-0.5,1.9-0.7c0.5-0.1,1.9-0.5,3.7-0.2c2.5,0.3,3.8,1.5,4.1,1.8c0.3,0.3,0.4,0.7,0.5,0.9
										C279.8,145,279.6,145.8,279.4,146.6z"/>
								</g>
								<path d="M265.8,159c-1.3-0.2-3.6-0.4-6.2,0.6c-1.7,0.6-2.9,1.5-3.6,2.2c-1,2.3-1.9,4.8-2.7,7.6c-0.7,2.3-1.2,4.4-1.6,6.5
									c2,1.6,3.5,2.6,3.6,2.7c0.1,0.1,0.3,0.2,0.3,0.2c0,0,0,0,0,0c0.6,0.3,1.5,0.8,2.8,1.2c2,0.7,4.3,1.2,5.7,1.2
									c5.3,0.1,9.8-5.6,10.4-6.3c0.3-1.8,0.5-4,0.5-6.4c0-2.1-0.3-3.9-0.5-5.5C273.1,161.7,270.1,159.5,265.8,159z M264.1,166.7
									c-0.1,0.3-0.7,1.5-2.1,2c-1.5,0.5-3.2-0.1-4.1-0.9c0,0,0,0,0,0c-0.6-0.5,0.5-2.5,1.5-4.1c0.6-0.4,3.2-2.2,6.9-1.6
									c3.2,0.5,5.2,2.5,5.7,3.1c0.1,1.2,0.1,2.4,0.2,3.6c0,0,0,0,0,0c0,0,0,0,0,0c0,0,0,0,0,0c-0.7,0.4-1.7,0.4-2.5,0
									c-1.2-0.6-1.4-1.9-1.5-2C266.8,166.9,265.5,166.8,264.1,166.7z"/>
							</g>
							<path class="st11" d="M281,137.1c-3.7-2.3-6.3-2.7-8-2.6c-1.1,0.1-3.3,0.4-5.1-0.4c-0.2-0.1-0.9-0.4-1.9-0.6
								c-0.4-0.1-1.1-0.3-2-0.3c-3,0-3.7,1.9-6.2,1.7c-1.3-0.1-1.1-0.6-3-0.9c-1.2-0.2-2.9-0.5-4.3,0.3c-1.2,0.7-1.8,2-2.2,3.4
								c-0.4,1.3-0.6,3.1-0.8,5.5c-0.6,5.3-0.9,10.9-1.1,13.1c-0.7,13.1-7.7,27.5-8.6,47.1c-0.2,4.6-0.1,11.9,1.6,20.9
								c-5.6-0.8-8.2-1.5-9.5-2.1c-0.3-0.1-2.1-1-4.5-1.7c-0.3-0.1-0.5-0.1-0.8-0.2c-1.9-0.5-3.4-0.4-4.4-0.3c-3,0.1-7,1.3-8.8,1.6
								c-2.4,0.4-5.9,0.4-10.5-1.6c1.2-10.1,3.6-17.6,5.7-22.6c2.2-5.4,4-8,7.1-14.9c0.7-1.7,3.9-9,6.6-18.4
								c5.4-18.5,3.7-26,10.9-39.3c1.4-2.6,2.7-4.5,3.4-5.7c2-2.1,5.5-5.2,10.8-7.1c8.2-3,15.3-1.1,17.6-0.4c2.5,0.7,6.8,2,10.8,5.7
								c4.2,3.9,5.5,8.6,6.2,11.1C280.9,131.9,281.1,135,281,137.1z"/>
							<g>
								<path class="st20" d="M281.2,128.3c-7.3-1.3-16.4-2.3-26.8-2.1c-9.9,0.2-18.6,1.4-25.6,2.8"/>
								<path class="st20" d="M227.8,125.4c7.1-1.6,15.8-3,25.8-3.3c11.7-0.4,20.9,0.5,28.9,1.9"/>
							</g>
						</g>
					</g>
				</g>
			</g>
			<g>
				<g>
					<path class="st21" d="M268.7,167.1c0.3-0.4,0.8-0.7,1.3-0.7c0,0,0-0.1,0.1,0c3.7,0.6,6,3.5,7.7,6.6c1.1,2,2,3.9,3,5.9
						c1.1,2.2,3.1,4.5,5.6,4.6c0,0,0.1,0,0.1,0c0.3,1.7,0.7,3.4,0.7,5.2c0,1.3-0.1,2.5-0.3,3.8c-4.4,0.8-8-3.9-9.5-7.4
						c-2.5-5.7-2.5-13.3-8.3-17c0,0,0,0,0,0c-0.2-0.2-0.4-0.3-0.5-0.5C268.6,167.4,268.6,167.2,268.7,167.1z"/>
					<path class="st22" d="M275.7,178.3c1.5,5.4,3.9,13.8,10.9,13.5c0-2.6-0.1-5.3-0.2-7.9c-2.6-0.2-4.7-2.8-6-5
						c-2.7-4.6-4.1-10.7-9.9-12.2c0,0,0,0-0.1,0c-0.5-0.1-0.9,0.4-1.1,0.7c0,0,0,0.1-0.1,0.1C273.2,169.9,274.6,174.1,275.7,178.3z"
						/>
					<path class="st22" d="M281.9,185.5c0.2,0.2,0.6,0.1,0.5-0.2c-0.1-1.2-0.2-2.3,0-3.5c1.1,1.1,2.4,2,3.9,2.1
						c0.1,2.7,0.2,5.3,0.2,7.9c-7,0.3-9.4-8.1-10.9-13.5c-1.2-4.3-2.6-8.4-6.6-10.7c0,0,0-0.1,0-0.1
						C276.9,170,277.1,180.2,281.9,185.5z"/>
					<g>
						<path class="st23" d="M282.7,181.9l7.5-1.3l-0.2-0.1l6.7-1.2c0,0,5.9,10.4-3.7,14c0,0-5,1.5-7.5-1
							C283,189.9,282.7,181.9,282.7,181.9z"/>
						<path class="st24" d="M285.3,192.6c-2.5-2.5-2.8-10.3-2.8-10.7l0-0.3l6.6-1.1l-0.2-0.1l8-1.4l0.1,0.2c0.1,0.2,2.9,5.3,1.3,9.6
							c-0.8,2.2-2.6,3.8-5.3,4.8c0,0-0.3,0.1-0.7,0.2l0,0C290.9,194.1,287.3,194.6,285.3,192.6z M292.8,193.1
							c2.5-0.9,4.1-2.4,4.9-4.4c1.3-3.6-0.7-8-1.2-9l-5.3,0.9l0.2,0.1l-8.3,1.4c0.1,1.4,0.6,7.9,2.6,10c1.8,1.8,5.2,1.4,6.5,1.1l0,0
							C292.6,193.1,292.8,193.1,292.8,193.1L292.8,193.1z"/>
					</g>
					<path class="st23" d="M282.7,181.9l2.6-0.4c-0.2,4.1,0.1,8.9,2.5,12.1c-0.9-0.2-1.7-0.6-2.3-1.2
						C283,189.9,282.7,181.9,282.7,181.9z"/>
					<g>
						<path class="st23" d="M282.8,182.2c0.4,1.7,3.7,2.5,7.5,1.7c3.8-0.8,6.6-2.8,6.2-4.6c-0.4-1.7-3.7-2.5-7.5-1.7
							C285.2,178.4,282.4,180.5,282.8,182.2z"/>
						<path class="st24" d="M282.5,182.2c-0.4-1.9,2.4-4.1,6.5-4.9c4-0.8,7.5,0,7.9,1.9c0.4,1.9-2.4,4.1-6.5,4.9
							C286.3,185,282.9,184.2,282.5,182.2z M283.1,182.1c0.3,1.5,3.6,2.2,7.2,1.4s6.3-2.7,6-4.2c-0.3-1.5-3.6-2.2-7.2-1.4
							C285.5,178.7,282.7,180.6,283.1,182.1z"/>
					</g>
					<g>
						<path class="st25" d="M284,181.8c0.3,1.2,3,1.7,6.2,1c3.2-0.7,5.5-2.2,5.3-3.5c-0.3-1.2-3-1.7-6.2-1
							C286.1,179,283.7,180.6,284,181.8z"/>
						<path class="st26" d="M283.7,181.9c-0.3-1.5,2.1-3.1,5.5-3.8c3.4-0.7,6.3-0.2,6.6,1.3c0.3,1.5-2.1,3.1-5.5,3.8
							C286.8,183.9,284,183.3,283.7,181.9z M284.3,181.8c0.2,0.9,2.6,1.5,5.9,0.8c3.2-0.7,5.2-2.2,5-3.1c-0.2-0.9-2.6-1.5-5.9-0.8
							C286.1,179.3,284.1,180.8,284.3,181.8z"/>
					</g>
					<path class="st23" d="M288.2,181.9c1.2-0.6,2.4-0.9,3.7-0.9c0.8,0,1.7,0,2.6,0.1c-0.9,0.7-2.5,1.4-4.2,1.7
						c-1.5,0.3-2.9,0.4-4,0.2C286.9,182.6,287.6,182.2,288.2,181.9z"/>
				</g>
				<path class="st27" d="M279.8,189.5c-0.2,0.7-0.5,1.4-0.7,2.2c0,1.8-0.1,3.7-0.1,5.5c1,0.1,2.3,0.2,3.8,0c4-0.5,6.8-2.6,8.1-3.7
					c0.2-0.6,0.4-1.5,0.3-2.7c-0.1-0.7-0.2-1.3-0.4-1.7c-0.4-1.1,0.1-2.1,0.8-2.3c0.7-0.3,1.5,0.4,1.5,0.4c-0.6-0.8-0.3-2,0.4-2.4
					c0.6-0.3,1.5-0.1,2,0.6c0-0.1,0-0.6,0.4-0.9c0.4-0.3,1-0.3,1.5,0.1c0.1,0.2,0.3,0.4,0.4,0.6c0.1-0.1,0.3-0.2,0.4-0.2
					c1,0,1.8,2.3,2.1,3.1c1.3,3.9,0.5,8,0.3,8.6c-1.2,5.4-4.4,9.1-6.2,10.9c-2.6,1.8-5.4,4.2-8.4,7.1c-2.5,2.4-4.5,4.8-6.2,7
					c-3.3-1.5-6.6-3.1-9.9-4.6c2.9-5.2,3.4-8.6,3.2-10.9c0-0.8-0.2-3.3,0-6.8c0.1-1,0.2-1.9,0.3-2.8c0.5-4.4,1.1-6,1.8-7.4
					c0.9-1.6,2-2.7,2.7-3.4c0.3,0.2,0.7,0.6,1.1,1.2C279.8,188.1,279.8,189.1,279.8,189.5z"/>
			</g>
			<g>
				
					<linearGradient id="SVGID_00000072266746382855894230000002020970937451605433_" gradientUnits="userSpaceOnUse" x1="372.7317" y1="294.0947" x2="372.7317" y2="272.3299" gradientTransform="matrix(0.9992 -4.091475e-02 4.091475e-02 0.9992 -96.9109 -105.8789)">
					<stop  offset="0.1117" style="stop-color:#FFFFFF;stop-opacity:0"/>
					<stop  offset="0.2622" style="stop-color:#F3F3F3;stop-opacity:0.3989"/>
					<stop  offset="0.4888" style="stop-color:#E5E5E5"/>
					<stop  offset="0.9609" style="stop-color:#E5E5E5;stop-opacity:0"/>
				</linearGradient>
				<path style="fill:url(#SVGID_00000072266746382855894230000002020970937451605433_);" d="M288,150.9c3.8,7.1-3.1,9.7-1.8,16.3
					c0.3,1.8,0.9,3.5,1.6,5.4l-0.1,0.1c-1.2-1.3-2.1-3-2.6-5.1c-0.4-2.1,0.1-4.6,1.2-6c0.5-0.7,1-1.4,1.4-2.3
					C288.5,156.7,288.2,153.9,288,150.9C287.9,151,288,150.9,288,150.9L288,150.9z"/>
				
					<linearGradient id="SVGID_00000057115181349037718810000017797899674591890106_" gradientUnits="userSpaceOnUse" x1="375.3307" y1="295.2042" x2="375.3307" y2="256.4188" gradientTransform="matrix(0.9992 -4.091475e-02 4.091475e-02 0.9992 -96.9109 -105.8789)">
					<stop  offset="0.1117" style="stop-color:#FFFFFF;stop-opacity:0"/>
					<stop  offset="0.2622" style="stop-color:#F3F3F3;stop-opacity:0.3989"/>
					<stop  offset="0.4888" style="stop-color:#E5E5E5"/>
					<stop  offset="0.9609" style="stop-color:#E5E5E5;stop-opacity:0"/>
				</linearGradient>
				<path style="fill:url(#SVGID_00000057115181349037718810000017797899674591890106_);" d="M290,134.9c1.1,3.1,1.6,6.6,1.3,10
					c-0.6,4.9-2.6,9.3-2.7,14.3c-0.1,4.9,0.9,9.5,1.8,14.4c0,0-0.1,0.1-0.1,0.1c-2.9-5.5-4.3-13.5-1.8-19.6c0.6-1.5,1.1-2.9,1.4-4.5
					c0.6-4.9,0.1-9.6,0-14.7C289.9,135,290,134.9,290,134.9L290,134.9z"/>
				
					<linearGradient id="SVGID_00000159459531102060054030000001280153496416445322_" gradientUnits="userSpaceOnUse" x1="378.0586" y1="292.7296" x2="378.0586" y2="279.7642" gradientTransform="matrix(0.9992 -4.091475e-02 4.091475e-02 0.9992 -96.9109 -105.8789)">
					<stop  offset="0.1117" style="stop-color:#FFFFFF;stop-opacity:0"/>
					<stop  offset="0.2622" style="stop-color:#F3F3F3;stop-opacity:0.3989"/>
					<stop  offset="0.4888" style="stop-color:#E5E5E5"/>
					<stop  offset="0.9609" style="stop-color:#E5E5E5;stop-opacity:0"/>
				</linearGradient>
				<path style="fill:url(#SVGID_00000159459531102060054030000001280153496416445322_);" d="M292.9,158.2c-1,4.5-0.7,8.7,1,12.9
					C291,168.3,290.5,161.6,292.9,158.2L292.9,158.2z"/>
			</g>
			<path class="st12" d="M290.2,221.7c-2.4,6.8-4.8,13.2-7.1,19.3l-22.5-14.4c3-6.2,6-12.4,9-18.4c2-0.1,6.2,0,10.7,2.3
				C286.9,213.9,289.6,220,290.2,221.7z"/>
		</g>
	</g>
</g>
</svg>
