<svg fill="none" xmlns="http://www.w3.org/2000/svg" viewBox="0 0 165 119">
  <path d="M39.7 108c0 .6-3.3 1-7.4 1-4 0-7.3-.4-7.3-1 0-.5 3.3-1 7.3-1 4.1 0 7.4.5 7.4 1Z" fill="#FDF9E7"/>
  <path d="M56.2 118.1c14.4 0 26-1.6 26-3.6s-11.6-3.6-26-3.6-26.1 1.6-26.1 3.6 11.7 3.6 26 3.6Zm67.5-1.2c17.1 0 31-2 31-4.3 0-2.4-13.9-4.3-31-4.3-17.2 0-31 2-31 4.3 0 2.4 13.8 4.3 31 4.3Z" fill="#F05D48"/>
  <path d="M83.9 109.7c19 0 34.6-2.2 34.6-4.8 0-2.7-15.5-4.8-34.6-4.8-19.2 0-34.7 2.1-34.7 4.8 0 2.6 15.5 4.8 34.7 4.8Zm78.8-5.9c0 1.3-7.2 2.2-16 2.2-8.9 0-16-1-16-2.2 0-1.2 7.1-2.2 16-2.2 8.8 0 16 1 16 2.2ZM24.4 97.1a32 32 0 0 1-20-15.9A33.9 33.9 0 0 1 1 56.3a24.4 24.4 0 0 1 17.5-17.1C28.7 37 39 42.7 46.7 49.6c3.2 2.8 6.2 6 9.9 8.1C60.4 60 65 61 68.9 59.3c4.7-2 7.1-7.1 9.4-11.7A89.7 89.7 0 0 1 101 17.8c9.7-8 22-13.2 34.5-13.1 7.8 0 16 2.3 21.4 8 7 7 8.2 18.2 6.1 28-2 9.7-6.9 18.6-10.7 27.8a50 50 0 0 0-4.7 29l-123.3-.4Z" fill="#F05D48"/>
  <path d="M76.7 37a40 40 0 0 0 5.4-12.6c1.2-6 .2-12.2-3.9-16.8a25 25 0 0 0-25.6-6.3 11.3 11.3 0 0 0-7 7.7c-1.3 6 3.2 11 6 15.8 1.5 2.6 2.6 5.5 2.8 8.5 0 2.9-1.7 5.5-1.3 8.4a6.6 6.6 0 0 0 2.5 4.2c2.7 2.3 6.6 3.1 10 2.2 5.4-1.4 8.5-6.7 11.1-11Z" fill="#F05D48"/>
  <path d="M64.5 19.2H5.3s-.2 0-.2.2v46.7l.2.2h59.2c.1 0 .2 0 .2-.2V19.4c0-.1 0-.2-.2-.2Zm-18 23.4h-5.4v-5.4h5.5v5.4Zm.5-5.4h5.5v5.4H47v-5.4ZM34.7 43v5.4h-5.5V43h5.5Zm-5.5-.4v-5.4h5.5v5.4h-5.5Zm6 .4h5.4v5.4h-5.5V43Zm0-.4v-5.4h5.4v5.4h-5.5Zm5.9-5.9v-5.3h5.5v5.3H41Zm-.5 0h-5.5v-5.3h5.5v5.3Zm-5.9 0h-5.5v-5.3h5.5v5.3Zm-6 0h-5.4v-5.3h5.5v5.3Zm0 .5v5.4h-5.4v-5.4h5.5ZM23 42.6h-5.5v-5.4H23v5.4Zm-6 0h-5.5v-5.4H17v5.4Zm0 .4v5.4h-5.5V43H17Zm.5 0H23v5.4h-5.5V43Zm5.9 0h5.5v5.4h-5.5V43Zm5.5 5.8v5.4h-5.5v-5.4h5.5Zm.4 0h5.5v5.4h-5.5v-5.4Zm6 0h5.4v5.4h-5.5v-5.4Zm5.9 0h5.5v5.4H41v-5.4Zm0-.4V43h5.5v5.4H41ZM47 43h5.5v5.4H47V43Zm6 0h5.4v5.4H53V43Zm0-.4v-5.4h5.4v5.4H53Zm0-5.9v-5.3h5.4v5.3H53Zm-.5 0H47v-5.3h5.5v5.3ZM47 31v-5.3h5.5V31H47Zm-.4 0H41v-5.3h5.5V31Zm-6 0h-5.5v-5.3h5.5V31Zm-5.9 0h-5.5v-5.3h5.5V31Zm-6 0h-5.4v-5.3h5.5V31ZM23 31h-5.5v-5.3H23V31Zm0 .5v5.3h-5.5v-5.3H23Zm-6 5.3h-5.5v-5.3H17v5.3Zm-5.9 0H5.5v-5.3H11v5.3Zm0 .5v5.4H5.5v-5.4H11Zm0 5.8v5.4H5.5V43H11Zm0 5.8v5.4H5.5v-5.4H11Zm.4 0H17v5.4h-5.5v-5.4Zm6 0H23v5.4h-5.5v-5.4Zm5.5 5.8V60h-5.5v-5.4H23Zm.4 0h5.5V60h-5.5v-5.4Zm6 0h5.4V60h-5.5v-5.4Zm5.8 0h5.5V60h-5.5v-5.4Zm6 0h5.5V60H41v-5.4Zm5.9 0h5.5V60H47v-5.4Zm0-.4v-5.4h5.5v5.4H47Zm6-5.4h5.4v5.4H53v-5.4Zm5.8 0h5.5v5.4h-5.5v-5.4Zm0-.4V43h5.5v5.4h-5.5Zm0-5.8v-5.4h5.5v5.4h-5.5Zm0-5.9v-5.3h5.5v5.3h-5.5Zm0-5.8v-5.3h5.5V31h-5.5Zm-.4 0H53v-5.3h5.5V31ZM53 25.1v-5.5h5.5v5.5H53Zm-.4 0H47v-5.5h5.5v5.5Zm-6 0h-5.4v-5.5h5.5v5.5Zm-5.9 0h-5.5v-5.5h5.5v5.5Zm-5.9 0h-5.5v-5.5h5.5v5.5Zm-6 0h-5.4v-5.5h5.5v5.5Zm-5.8 0h-5.5v-5.5H23v5.5Zm-6 0h-5.5v-5.5H17v5.5Zm0 .5v5.3h-5.5v-5.3H17Zm-6 5.3H5.5v-5.3H11v5.3ZM5.5 54.6H11V60H5.5v-5.4Zm6 0h5.4V60h-5.5v-5.4Zm5.4 5.8v5.5h-5.5v-5.5H17Zm.5 0h5.5v5.5h-5.5v-5.5Zm5.9 0h5.5v5.5h-5.5v-5.5Zm6 0h5.4v5.5h-5.5v-5.5Zm5.8 0h5.5v5.5h-5.5v-5.5Zm6 0h5.5v5.5H41v-5.5Zm5.9 0h5.5v5.5H47v-5.5Zm6 0h5.4v5.5H53v-5.5Zm0-.4v-5.4h5.4V60H53Zm5.8-5.4h5.5V60h-5.5v-5.4ZM64.3 25h-5.5v-5.5h5.5V25ZM11 19.6v5.5H5.5v-5.5H11ZM5.5 60.4H11v5.5H5.5v-5.5Zm53.3 5.5v-5.5h5.5v5.5h-5.5Z" fill="#E7DFC2"/>
  <path d="M29.5 32.6s1.4 11.8 8 13.9l12-3.4s-7.2-3.3-8-10.5h-12Z" fill="#FEDEA6"/>
  <path d="M23.3 43.5s-1 13.5-6 15.9L8 55.5s5.5-3.8 6-12h9.2Zm31-20.4-8 2.3 2.8 9.7 8-2.4-2.8-9.6Z" fill="#F7F4E3"/>
  <path d="m54 24-7 2 1.8 6.2 6.8-2-1.8-6.1Z" fill="#FDFDFD"/>
  <path d="m31.5 52.3-6.2-1.7-2 7.4 6.2 1.7 2-7.4Z" fill="#D2CDB8"/>
  <path d="m30.8 52.7-5.2-1.4-1.3 4.8 5.2 1.4 1.3-4.8Z" fill="#E7DFC2"/>
  <path d="M128.6 48.6h-2.7c-.4 0-.8.3-.8.8 0 .4.4.8.8.8h2.7c.4 0 .8-.4.8-.8 0-.5-.4-.8-.8-.8Z" fill="#CCC6AD"/>
  <path d="M154.5 70.7 130 48.9c-1.2-1-3 .7-1.7 1.8l24.3 21.8c1.2 1 3-.7 1.8-1.8Zm3.6 30.8h-2.3c-2.2-.6-5.6-1-9.5-1-3.8 0-7.2.4-9.4 1h-2.3v1.5c0 1.4 5.2 2.5 11.7 2.5 6.5 0 11.8-1.1 11.8-2.5.2-1 0-1.5 0-1.5Z" fill="#CCC6AD"/>
  <path d="M158.1 101.5c0 1.4-5.2 2.5-11.7 2.5-6.6 0-11.8-1.1-11.8-2.5s5.3-2.6 11.8-2.6a48.6 48.6 0 0 1 2.6.1c5.2.3 9.1 1.3 9.1 2.5Z" fill="#E7DFC2"/>
  <path d="m149 99-1.2 2.1V99h1.2Z" fill="#E7DFC2"/>
  <path d="m152.7 71.2-7.4 29.3c-.3 1.5 2 2.2 2.4.7l7.4-29.3c.4-1.6-2-2.2-2.4-.7Z" fill="#E7DFC2"/>
  <path d="m155 70.1-24.3-21.7c-1.2-1-3 .7-1.8 1.7L153.3 72c1.1 1 3-.7 1.7-1.8Zm-49.5-21.5s7.1-11.7 16.3-6.1c9.2 5.5 2.4 17.3 2.4 17.3l-18.7-11.2Z" fill="#E7DFC2"/>
  <path d="M124.2 59.8c-.6.8-3.8-.1-7.8-2.2a52 52 0 0 1-5.3-3.2c-3.7-2.6-6.1-5-5.6-5.8.5-.8 3.3 0 7 1.8a48.7 48.7 0 0 1 6.8 4c3.3 2.4 5.3 4.6 4.9 5.4Z" fill="#C1B894"/>
  <path d="M119.3 54.5a4.2 4.2 0 0 1-8.3-1 4 4 0 0 1 1.5-3.1 48.7 48.7 0 0 1 6.8 4Z" fill="#FAC978"/>
  <path d="M129.3 47.2c-2.7 0-2.7 4.2 0 4.2s2.7-4.2 0-4.2Z" fill="#E7DFC2"/>
  <path d="M129.3 48.5c-1.1 0-1.1 1.7 0 1.7 1 0 1-1.7 0-1.7Zm24.4 20.3c-3.5 0-3.5 5.3 0 5.3 3.4 0 3.4-5.3 0-5.3Z" fill="#E7DFC2"/>
  <path d="M153.7 70.4c-1.4 0-1.4 2.1 0 2.1s1.4-2.1 0-2.1Z" fill="#E7DFC2"/>
  <path d="M39.7 95.8H25s-.4 8.8 4 12c.4.2.8.4 1.3.4h4.1c.5 0 1-.2 1.3-.4 4.4-3.2 4-12 4-12Z" fill="#536969"/>
  <path d="M39.7 95.8c0 .3-2.4.5-5.6.6a73.3 73.3 0 0 1-9.1-.6 93.4 93.4 0 0 1 9.2-.5c3.1 0 5.5.2 5.5.5Z" fill="#405050"/>
  <path d="M41.8 98.4c-.8-1-2-1.1-3.2-1-1 0-1 1.6 0 1.6.8 0 1.7 0 2.2.8.4.8.3 1.8 0 2.5-1 1.9-3.2 2.4-5 2.1-.5 0-.9.4-.9.9s.4.7.9.8c2 .3 4.2-.3 5.6-1.9 1.4-1.6 1.8-4.1.4-5.8Z" fill="#536969"/>
  <path opacity=".5" d="M36.5 90.8c-1.1 1.1-2.3 2.4-2.4 4v1.6a73.3 73.3 0 0 1-3.2 0c-.3-.2-.6-.6-.8-1l-.5-1.2c-.2-.7-.2-1.5 0-2.2.5-1.8 2.1-3.3 2-5.2 0-1.2-.7-2.3-1.5-3.2-.8-.9-1.8-1.7-2.4-2.8-1-1.8-1-4.2.4-5.8a5 5 0 0 1 5.5-1.6c2 .8 3.3 3 3 5-.3 1.3-1.1 2.7-.6 4 .3.6 1 1.1 1.4 1.6.8.8 1.3 1.8 1.4 2.8 0 1.6-1.2 2.9-2.3 4Z" fill="#54C1BB"/>
  <path d="M47 97.7S37.7 60.5 42 56c4.2-4.6 39-6.6 42.9-3.1 3.8 3.4 3.5 44.8 3.5 44.8H47Z" fill="#54C1BB"/>
  <path d="m84.8 52.9-.5-.4c-11.5-.7-32.2 1.3-35.4 4.8-3.7 4 3.2 33.8 4.8 40.4h34.6s.3-41.4-3.5-44.8Z" fill="#8DD1CD"/>
  <path d="M95.3 66.7s7.2 21.7 9.2 22.3c1.9.5 21.7 4.3 21.7 4.3l-1 4.8s-24.1.8-29.9-3.3c-5.7-4.1 0-28 0-28Z" fill="#DDBB8F"/>
  <path d="M95.3 66.7s-5.7 24 0 28c2.2 1.7 7.1 2.5 12.4 3l1.3-7-.2-.1-.1-.7a101 101 0 0 1-4.2-1c-2-.5-9.2-22.2-9.2-22.2Z" fill="#405050"/>
  <path d="M111.1 90.4c-1 1-1.6 2.2-2 3.5-.3 1.3-.3 2.6-.3 4l-.3.3h-.9l-.3.3-.6-.1c-.3-.2-.8-.1-1.2-.2-.4 0-.9-.1-1-.4-.3-.3-.3-.6-.3-.8-.1-1.4-.2-2.7.4-4l1.4-2 .5-1.2c.2-.3.6-.6 1-.5.4 0 .6.4 1 .5l1-.1a2 2 0 0 1 1.6.7Z" fill="#536969"/>
  <path d="M59.5 97.7H96c-1-7.1-2-15-1.8-19.1 0-3.4 1.1-11.8 1.1-11.8-.4-.5-9.4-7.6-16.8-7.3-12.5.3-18.8 9.2-18.8 9.2l.7 10c.4 4-.3 12-1 19Z" fill="#F7F4E3"/>
  <path d="M94.2 79.4v-.9c0-3.2 1-11.1 1.1-11.8A37 37 0 0 0 82 59.8V66s2.5 14.8 3.5 31.7H96c-1-6.7-1.8-14-1.8-18.3Z" fill="#405050"/>
  <path d="m82.8 59 5.8 6.8-4.3-1.2-2.2 1.4-2.6-6.5 3.3-.6Z" fill="#536969"/>
  <path d="M59.5 97.7h16.7C74.5 82.6 74 68.3 74 68.3l-2-7.9c-8 2.6-12.2 8.3-12.2 8.3l.7 10c.4 4-.3 11.9-1 19Z" fill="#405050"/>
  <path d="M73.4 59 70 60.3l-3.1 9 5.3-2.9 1.8 1.8-.5-9.4Z" fill="#536969"/>
  <path d="M59.7 68.7S45.8 93.3 48.8 97.5c3 4.2 29.9 8.3 29.9 8.3l1.1-5.4s-19.6-5.4-20-7l.5-6.1s1.6-16.4-.6-18.6Z" fill="#FDBCA0"/>
  <path d="m59.8 93.4.5-6.1s1.6-16.4-.6-18.7c0 0-13.9 24.7-10.9 28.9 1 1.4 4.4 2.7 8.7 4l1.3-.5 2.6-6.5c-1-.5-1.5-.8-1.6-1Z" fill="#405050"/>
  <path d="M64.5 95.2a13.1 13.1 0 0 0-4 7.5 3 3 0 0 1-1.5-.5c-.5.3-1.3.3-2 .1-.2 0-.5 0-.6-.3l-.1-.4a6 6 0 0 1 0-2 6 6 0 0 1 .9-1.8l1.8-2.9.7-.9c.3-.2.8-.4 1.1-.2.3 0 .4.2.6.3.4.2.8.2 1.2.2h1.2c.4.2.7.5.7.9Z" fill="#536969"/>
  <path d="M60.4 72.7a285.2 285.2 0 0 1-1 20.6c0 .4.6.3.6 0a284.8 284.8 0 0 0 1-20.6c0-.4-.6-.4-.6 0Z" fill="#A1B8B8"/>
  <path d="M78.7 105.8a46 46 0 0 0 11.2 3.5c.5-.9-4.6-2.6-4.6-2.6s7.1 1.5 7.3.7c.2-.7-6.7-2.5-6.7-2.5s8.2 1.5 8.3.6c0-.8-7.2-2.4-7.2-2.4s6.9.4 6.9-.3c0-1-14.1-2.5-14.1-2.5l-1.1 5.5Z" fill="#FDBCA0"/>
  <path d="M80.8 100.5s5.5-2 6-1.6c.6.4-2.4 2.6-2.4 2.6l-3.6-1Z" fill="#FDBCA0"/>
  <path d="M64.7 94.6H36.5c-.3 0-.5.3-.4.6l4.9 18c0 .2.4.5.7.5h28.2c.3 0 .5-.3.4-.6l-4.9-18c0-.2-.4-.5-.7-.5Z" fill="#E7DFC2"/>
  <path d="M68.2 113.4 64 98.2c0-.3-.3-.5-.6-.5h-24c-.2 0-.3.2-.3.5l4.2 15.2v.2h25l-.1-.2Z" fill="#F7F4E3"/>
  <path d="M38.5 96c0 .3-.3.6-.6.6a.7.7 0 0 1 0-1.3c.3 0 .6.3.6.7Z" fill="#405050"/>
  <path d="m38.2 96-.3.3a.3.3 0 0 1 0-.7c.1 0 .3.2.3.4Z" fill="#576E6E"/>
  <path d="M63 98H39c-.3 0-.5.2-.4.4l4.2 15.2.1.5h24.9l-.1-.5-4.2-15.2c0-.2-.3-.5-.6-.5Z" fill="#EBB254"/>
  <path d="m67.7 113.6-2.7-9.8H40l2.7 9.8.1.5h24.9l-.1-.5Z" fill="#FEDEA6"/>
  <path d="M63 116.5H38l5-2.4h24.8l-4.8 2.4Z" fill="#EBB254"/>
  <path d="m94.7 69 50.7-8.5c.8-.2 1.6.5 1.6 1.3l-.3 32.4c0 .6-.4 1.2-1 1.3l-49.5 10.3c-1.2.3-2.7-.5-2.7-2.3V70.3c0-.7.5-1.3 1.2-1.4Z" fill="#FEDEA6"/>
  <path d="m97 68.8 48.4-8c.8-.2 1.6.5 1.6 1.3l-.2 32.1c0 .7-.5 1.2-1.1 1.4l-48.2 10c-.9 0-1.7-.6-1.7-1.4v-34c0-.7.5-1.3 1.2-1.4Z" fill="#FAC978"/>
  <path d="m118.9 85.7-2.9 16 15.3-3.2-12.4-12.8Zm-.7 29.3-6.7-2.3c-1-.4-1-2 .1-2.2l11.4-2.9h.6l6.6 2c1 .3 1 1.9 0 2.2l-11.3 3.2h-.7Z" fill="#EBB254"/>
  <path d="M128.2 84.1a1 1 0 0 0-1.3-.8l-7.1 1.3a1 1 0 0 0-1 1l-.2 29.5 15.3-4.4-5.7-26.6Zm-1.8 22.9c-2.1.2-4.1-2.1-4.5-5.2-.3-3.1 1.2-5.8 3.4-6 2.1-.3 4.1 2 4.4 5.2.3 3-1.1 5.8-3.3 6Z" fill="#FEDEA6"/>
  <path d="M124.2 31.4a13.2 13.2 0 0 1 0-26.5 13.2 13.2 0 0 1 0 26.5Zm0-22.8a9.5 9.5 0 0 0 0 19 9.5 9.5 0 0 0 0-19Z" fill="#F5E2D5"/>
  <path d="m119.3 21.5-.6-1.1 5-2.7 2-8 1.3.4-2.3 8.5-5.4 2.9Z" fill="#F5E2D5"/>
  <path d="M90.3 29.2a7.1 7.1 0 0 0-3.4-3.4 7.9 7.9 0 0 0-3.9-.5 15 15 0 0 0-5.5 1.5 14 14 0 0 0-4.8 2.9 16.7 16.7 0 0 0-3.8 5.7c-.6 1.2-.8 2-.7 2.8.1.7.4 1 .5 1.8 0 .3 0 1.2-.3 2.1-.4 1-.9 1-1.6 2.3-.6 1-1 1.6-1 2.5 0 .4.4 1 1.2 2.5.3.7.5 1 .5 1.4 0 .2 0 1-.5 1.6a2 2 0 0 1-1.5.6c0 .6.3 1.2.8 1.4.6.4 1.4.2 2-.3a2 2 0 0 0-.8 1c-.2.4-.5 1-.3 1.6.1.6.5.6.8 1.4 0 .3.2.6 0 1-.2.5-.8.6-1 .6.5.4 1.1.5 1.6.3.5-.3.8-.7.8-1.3 0 .3 0 1.6 1 2.5 1.5 1.4 3.4 1 3.6.9-.8 0-1.4-.3-1.6-.8-.1-.5 0-1 .4-1.2.4-.4.7-.1 1.3-.5.1 0 .8-.5.8-1 0-.4-.4-.5-.4-.8 0-.3.4-.4.7-.6 1.2-.5 2.1-.5 2.1-.5 1.9-.2 2.8-.2 3.3.4.2.3 0 .4.2 1.9 0 1 .1 1.6.3 2a3.7 3.7 0 0 0 1.8 1.8c1.6.7 3.1-.2 3.3-.3l-2.2-.7s.7.1 1-.4c.4-.4.4-1 0-1.5.2 0 1.3.2 2.4-.5 1-.7 1.3-1.6 1.4-1.9-.5.3-1 .1-1-.1-.2-.3 0-.6.2-.8.3-.2.6.3 1 .2.5-.1.5-.7 1.3-1.9l.7-.9c.8-.6 1.4-.5 2-.9 1-.7 1-2.4 1-3.2 0-1.8-.7-2.2-.6-3.8 0-1.1.5-1.8.9-2.6.2-.7 1.7-4 1.5-7.4a9 9 0 0 0-3-6.4c-.5-.4-1-.5-1-.5a2.8 2.8 0 0 0-1.5 0Z" fill="#405050"/>
  <path d="M73.8 60.7c-.6-.5 1.1-2.6 1.3-3.8v-.6.5l6.2 2.3.9 3v3.5l-4.4.4-4.1-1.4c0-1.4 0-5.5.1-3.9Z" fill="#F0D5B1"/>
  <path d="M81.7 60.5c-2.3.4-4.9-1.6-6.7-3.6.2-1 .4-1.2.5-2.4l5.6 2.9.6 3Z" fill="#E4C398"/>
  <path d="M72.3 42.2c0 .6-.7 3.8.3 7.5.3 1.4 2.2 8.6 7.2 9.4 5.2.9 9.5-6 10-6.8 1.8-2.9 2.2-5.6 2.3-6.6.8-6.2.4-12.6-7.1-14-7.6-1.3-11.3 4-12.7 10.5Z" fill="#F0D5B1"/>
  <path d="M72.2 44.1a11 11 0 0 0-.6-3.3c-.2-.6-.4-1-1-1.4 0 0-.4-.2-.8-.1s-.7.6-.9 1a9.4 9.4 0 0 0-.6 4c0 .5.3 1.4.7 3.2.2.8.4 1.4.9 1.8 0 0 .5.4 1 .3 1-.1 1.6-1 1.8-2.2l-.5-3.3Z" fill="#F0D5B1"/>
  <path d="M85.2 48.7c.4 1 .8 2 1 3 .1.8-.8 1.2-1.4 1a2 2 0 0 1-1.5-.7c.5.3 1 .4 1.5.4.4 0 1-.2 1-.6-.3-1-.6-2-.6-3.1Z" fill="#B59B76"/>
  <path d="M86.3 42.8s1-.6 2.3-.9l2-.3.2.1a4.3 4.3 0 0 1 1.7 1.5s0 .1 0 0H92l-1.4-.8c-.5-.2-1.4-.1-3 .2l-1.4.2Zm-1.3-.5s-.9-1-2-1.6c-.6-.5-1.2-.8-1.6-1H81a4.3 4.3 0 0 0-2.1.9h.4l1.6-.2c.5 0 1.3.4 2.7 1.2 1 .6 1.2.8 1.3.7Z" fill="#405050"/>
  <path d="M69.8 48.3c0 .4.1.8.5.9.4 0 .7-.3.8-.7 0-.5-.2-.9-.5-1-.4 0-.7.3-.8.8Z" fill="#fff"/>
  <path d="M70.2 49.2c.2.3.4.8.3 1.6 0 .6-.2 1-.4 1.3-.2 0-.3.1-.4 0l-.3-.1c0-.2-.2-.5 0-1.4.1-.6.6-1.1.8-1.4Zm0-.4s-.8.7-1 1.7c-.4 1.3 0 1.9.5 2 .6 0 1-.7 1-1.7.1-1.3-.4-2-.4-2Z" fill="#fff"/>
  <path d="m70.4 52-.3-.7h-.2l.3.8h.2Zm-.5-.6-.2-.1-.5.6h.1l.6-.5Zm-.1-.4h-.7l.7.2Zm.9.1V51l-.6-.1v.2h.6Zm0-1-.2-.1-.5.6.1.1.6-.6Zm-.7.5-.4-.8h-.1l.3.8h.1Z" fill="#fff"/>
  <path d="M82.7 46.9c.3-1.6-.7-3.1-1.8-3.6-1.4-.6-2.8.3-3 .4-.8.5-1.1 1.2-1.3 1.6.2.4 1 1.4 2.3 2 1.8.7 3.5-.3 3.8-.4Z" fill="#B59B76"/>
  <path d="M82.7 47c0-1.5-.8-2.8-2-3.3-1.3-.5-2.6.3-2.8.4-.7.4-1.1 1-1.3 1.4.2.3 1 1.3 2.3 1.8 1.8.6 3.5-.2 3.8-.3Z" fill="#fff"/>
  <path d="M78.8 45.5a1.7 1.7 0 1 0 3.4.6 1.7 1.7 0 0 0-3.4-.6Z" fill="#756754"/>
  <path d="M80 46a.8.8 0 1 0 1.6.3.8.8 0 0 0-1.5-.3Z" fill="#3B342A"/>
  <path d="M79.8 45.8a.3.3 0 1 0 .6 0 .3.3 0 0 0-.6 0Z" fill="#fff"/>
  <path d="m76.6 45.5.7-.7.9-.5a3.4 3.4 0 0 1 4.5 2.7c.2-.8-.1-1.7-.7-2.3-1.5-1.9-4.6-1.5-5.4.8Z" fill="#443119"/>
  <path d="M77.3 44.5c-.4-.2-.7-.5-.8-.9 0 .3.2.6.5.8l.2.2v-.1Zm-.3.3c-.3 0-.7-.2-.8-.5 0 .3.3.4.5.6h.3v-.1Zm-.3.3-.5-.1-.1-.2c0 .2.2.4.4.4l.2.1v-.2Z" fill="#443119"/>
  <path d="M86.3 47.6a3.2 3.2 0 0 1 2.6-2.8c1.3-.1 2.4 1 2.6 1.2.5.7.6 1.4.7 1.8-.3.3-1.2 1-2.5 1.2-2 .1-3.2-1.2-3.4-1.4Z" fill="#B59B76"/>
  <path d="M86.2 47.7c.4-1.3 1.4-2.3 2.6-2.4 1.4-.2 2.4.9 2.6 1 .5.6.7 1.3.8 1.6-.3.3-1.2 1-2.5 1-2 .2-3.2-1-3.5-1.2Z" fill="#fff"/>
  <path d="M88 47.2a1.6 1.6 0 1 0 3.2.4 1.6 1.6 0 0 0-3.1-.4Z" fill="#756754"/>
  <path d="M89.3 47.6a.7.7 0 1 0 1.4.1.7.7 0 0 0-1.4-.1Z" fill="#3B342A"/>
  <path d="M89.1 47.2a.3.3 0 1 0 .5 0 .3.3 0 0 0-.5 0Z" fill="#fff"/>
  <path d="m92.2 48-.5-.9-.7-.6a3.2 3.2 0 0 0-4.8 1.2c0-.8.6-1.5 1.2-2 1.9-1.2 4.6 0 4.8 2.2Z" fill="#443119"/>
  <path d="M91.8 46.8c.4 0 .8-.2 1-.5l-.7.6h-.3Zm.2.4c.3 0 .7 0 .9-.2a1 1 0 0 1-.7.3H92Zm.2.4h.5l.1-.1-.5.2h-.2v-.1Z" fill="#443119"/>
  <path d="M70.5 40.4c.2.3.4.6.5 1.1.2.6 0 .9.2 1.4l.7 1 .4-1.6a33.3 33.3 0 0 0 .8 6l.6-3.1c.4-1.7.6-2.1 1-2.4.5-.5 1.1-.6 2-.8 1.4-.2 1.6.1 3 0 .8-.2 1.9-.4 2.7-1.2.7-.6.6-1.1 1.5-2.2.5-.6 1-.9 1.3-1.2a11 11 0 0 1 3.6-1.8 27.9 27.9 0 0 0 2.8 7.3 5 5 0 0 0-1 3c-.1 2.2 1.4 4.3 1.7 4.8 0-.5.2-1.6.7-2.7.4-.7.4-1.3.5-2 .1-.3 2.3-7-2-12A11.6 11.6 0 0 0 78 31.2c-2.7 1.3-4 3.3-5.2 5a19.2 19.2 0 0 0-2.3 4.2Z" fill="#405050"/>
  <path d="M73.7 41.4c0 .2-1.3 2.7-4.2 3.2a5.6 5.6 0 0 1-5-1.5c1.7-.5 2.4-1.3 2.8-2 .6-1 .3-2 1.1-3.8.4-1 .7-1.5 1.2-1.6.6-.2 1.8.7 4.1 5.7Z" fill="#405050"/>
  <path d="M84.3 55.1s-.9 0-1.9-.3c-1.4-.3-2.5-1-2.5-1s.6 2.2 2 2.5c1.1.1 2.4-.8 2.4-1.2Z" fill="#fff"/>
</svg>
