<!--Generator: Adobe Illustrator 16.0.0, SVG Export Plug-In . SVG Version: 6.00 Build 0)-->
<svg xmlns="http://www.w3.org/2000/svg" xmlns:xlink="http://www.w3.org/1999/xlink" xml:space="preserve" viewBox="0 0 182 191">
  <defs>
    <filter id="a" filterUnits="userSpaceOnUse" x="7.8" y="33" width="167.5" height="138.1">
      <feColorMatrix values="1 0 0 0 0 0 1 0 0 0 0 0 1 0 0 0 0 0 1 0"/>
    </filter>
  </defs>
  <mask maskUnits="userSpaceOnUse" x="7.8" y="33" width="167.5" height="138.1" id="b">
    <path fill="#FFF" filter="url(#a)" d="M78.7 34.4a60.3 60.3 0 0 0-27.6 14.3c-2.5 2.4-5 5.3-6.5 8.2-3.3 6-3.6 14.8-2.6 21.4.7 4.6 3.7 11 2.2 15.6-2 6.3-12.4 6-17.5 7.7-4.7 1.4-9.2 5-11.6 9.3-7.3 13.3 1.5 20.5 6 26.4 5 6.8-6 15 .3 21.8C28 166 36 169 49 169c26 0 31.9 2 68-.6 6.8-.4 15.9-2 22.7-2.7 10.3-1.1 35.6-10 29-26.9-4.9-12.5-30.6-10.6-22-27.6 5.7-11.2 16.3-26.6 3.1-36.5-9.6-7.1-15.7-11.3-21.2-22a32.2 32.2 0 0 0-28-19.5 62.2 62.2 0 0 0-21.8 1z"/>
  </mask>
  <g mask="url(#b)">
    <linearGradient id="c" gradientUnits="userSpaceOnUse" x1="222.6" y1="-50.5" x2="222.6" y2="-190.7" gradientTransform="matrix(1 0 0 -1 -131 -22.5)">
      <stop offset="0" style="stop-color:#f5f6ff"/>
      <stop offset=".4" style="stop-color:#d9dbf9"/>
      <stop offset=".7" style="stop-color:#cacefa"/>
      <stop offset=".9" style="stop-color:#c6caff"/>
      <stop offset="1" style="stop-color:#c9cdff"/>
      <stop offset="1" style="stop-color:#a8aef3"/>
    </linearGradient>
    <path fill="url(#c)" fill-opacity=".1" d="M175.3 33H7.8v138h167.5V33z"/>
  </g>
  <path fill="#6F7EC1" d="M135.7 122c-1-7.5 12.1-8.1 10.9-1 2.9-4.8 11-.1 8.8 5.2 2.3-.4 4.2 1.5 5.1 3.5 1.1 2.5.3 4.3-1.4 6.3 2.3 0 4.7 1.9 4.8 4.2.2 3.3-.3 4.3-2.1 6 2.5.3 3.3 3.3 3.2 5.5-.1 3.4-1.8 4.2-4.9 4.8-3.5.6-6.5.6-10.1.2-3-.3-6.3-1.4-9.4-1.4-5.1 0-10.2-.6-15.3-1.3-3.4-.4-8.2-.2-10.4-3.2a8.4 8.4 0 0 1-1.3-8.3c.7-1.5 4-5.7 6-3-2.8-2.3-2.8-4.4-2-7 .9-2.5 3.9-4.7 6.5-3.4-1.8-3.3-.2-6.8 2.8-9 0 0 5.6-3.5 8.8 2z"/>
  <path fill="#AEB4FC" d="M95.8 143.6c-4.6-5 2.7-12 7.7-8-4.2-8 10.3-12.6 10.9-4 3.6-4.6 12-2.2 10.1 4.2 7-2.1 10.5 7 6.2 10.3 3.7.9 4.3 6.3 1.7 8.4-2.4 1.9-8.4 1.5-11.5 1.5-4.2 0-8.4-.3-12.4-.6-4.6-.4-11.8 1-15.6-2.3-1.7-1.5-3.5-2.8-2.7-7 .3-1.6 4-5 5.6-2.5zm51.3 6.6c-2.5-2.8 1.5-6.6 4.2-4.4-2.2-4.5 5.7-7 6-2.3 2-2.5 6.5-1.2 5.5 2.3 3.9-1.1 5.7 4 3.4 5.8 2 .4 2.4 3.4 1 4.6-1.4 1-4.6.8-6.4.8l-6.7-.3c-2.5-.3-6.4.5-8.5-1.3-1-.8-2-1.5-1.5-3.8.2-1 2.2-2.9 3-1.4z"/>
  <path fill="#6F7EC1" d="M8 161c0-7.7 37-14 82.5-14 45.6 0 82.5 6.3 82.5 14m0 0c0 8.3-37 15-82.5 15C44.9 176 8 169.3 8 161"/>
  <path fill="#60A0BF" d="M79 130a30.2 30.2 0 0 0 27 0l-13.5 21L79 130z"/>
  <path fill="#F2EDE4" d="M96.7 150h-2.4c-29.6-4-18.3-18.7-17.6-34v-1.6a47.5 47.5 0 0 0-.8-8.5c-1.5-9.3-3.8-17 5.8-21.7A57.9 57.9 0 0 1 93.1 81h.1c2.7.4 5 1 7 1.5 18.5 5.5 10 17.2 10 31.6 0 15.9 17.1 31.8-13.5 35.9z"/>
  <path fill="#F29D72" d="m133.8 121.9.5 2-.4.6c-.8.8-1.3 1.8-1.5 3l-.3 1.2-1.1 1.9c.6.2 1.3 0 1.6-.5l1.1-1.5h1.2v3.5l-.8 1.7a1 1 0 0 0-.7 1.2l4-1c.7 0 1.1-.4 1.5-1l.3-.6c.4-.5.5-1 .6-1.7l.1-1c.2-1.4 0-2.6-.3-4l-1.4-5c-.4-1.5-4.8-.4-4.4 1.2z"/>
  <path fill="#D9C9AC" d="M100 82.7c0 3.5-3.1 6.3-7 6.3h-.1C89 89 86 86.2 86 82.7v-.1c2-.6 4.2-1.1 6.9-1.6h.1c2.7.5 5 1 7 1.6v.1z"/>
  <path fill="#DDB58A" d="M98.7 85.3c-1.3 2.7-5 2.7-5.3 2.7-.5 0-4-.1-5-2.7a4.5 4.5 0 0 1-.2-3.1c.7-.3 1.3-.7 1.7-1.2a5 5 0 0 0 1.3-4h4.6c-.1 1.4.2 2.9 1.1 3.9.4.4.9.8 1.4 1a12 12 0 0 1 .5.3v.2c.3 1.1.2 2-.1 2.9z"/>
  <path fill="#141414" d="m112 166.2 2.2 1c4 1.4 8.1 1 9.4-1 1.3-2-.8-4.7-4.7-6-1.5-.7-3.2-1-4.6-.9-1.1 0-2-.4-2.8-1.1a3.8 3.8 0 0 0-5.9.5 3.7 3.7 0 0 0 2.2 5.7c1.6.4 2.9 1 4.3 1.8z"/>
  <path fill="#DDB58A" d="m101.4 154 8 3.7c3 1.4 1.5 6.4-2.3 5l-9.1-3.1 3.4-5.6z"/>
  <path fill="#66A986" d="m104 154.5-3.9 6.5h-.5a97.4 97.4 0 0 1-48.1-22.6 9.6 9.6 0 0 1-3.2-5.2c-1.7-6.9 4.9-14.7 12.8-11.5a102.6 102.6 0 0 1 42.2 31.8l.4.5.3.5z"/>
  <path fill="#93BFA8" d="m103 153-3.6 6h-.5A97.4 97.4 0 0 1 51 136.7a9.7 9.7 0 0 1-2.7-3.8c-1.7-6.7 4.9-14.4 12.7-11.3a102.3 102.3 0 0 1 42 31.3z"/>
  <path fill="#141414" d="m75 164.2-2.2 1c-4 1.4-8.1 1-9.4-1-1.3-2 .8-4.7 4.7-6 1.5-.7 3.2-1 4.6-.9 1.1 0 2-.4 2.8-1.1l.6-.6a4 4 0 0 1 5.3 1 3.7 3.7 0 0 1-2.2 5.8c-1.6.4-2.9 1-4.3 1.8z"/>
  <path fill="#DDB58A" d="m84.9 152-7.4 3.7c-2.8 1.4-1.4 6.4 2 5l8.5-3.1-3.1-5.6z"/>
  <path fill="#66A986" d="M139 129.7a9 9 0 0 1-3.5 7.2A103.8 103.8 0 0 1 87 159l-4-6.5.2-.4.1-.1a98.8 98.8 0 0 1 42.6-31.3c7-2.8 13 3 13.1 9z"/>
  <path fill="#93BFA8" d="M139 129.7a9.2 9.2 0 0 1-3.5 6.3A104.2 104.2 0 0 1 87 158h-.3l-3.7-6a99.2 99.2 0 0 1 42.8-31.3c7-2.8 13.1 3 13.2 9z"/>
  <path fill="#F2EDE4" d="M81.9 84h.1c-8.4 6.4-3.4 11.5-2.5 21.8-.4.7-1.5 1-3.2 1.3l-1.2.2c-3 .7-7 1.9-11 5.4-2.6 2.2-7 6.6-9.3 9-2.3 2.5-7.5 1.4-6.7-3.1 2-12.3 16.2-29 33.8-34.6z"/>
  <path fill="#DDB58A" d="m53.2 121.9-.5 2 .4.6c.8.8 1.3 1.8 1.5 3l.2 1.2 1.2 1.9c-.6.2-1.3 0-1.6-.5l-1.1-1.5H52v3.5l.8 1.7c.5.2.8.7.7 1.2l-4-1c-.7 0-1.1-.4-1.5-1l-.3-.6c-.4-.5-.5-1-.6-1.7l-.1-1c-.2-1.4 0-2.6.3-4l1.4-5c.4-1.5 4.8-.4 4.4 1.2z"/>
  <path fill="#F2EDE4" d="M105 84c17.6 5.5 31.8 22.3 34 34.6.7 4.5-4.5 5.6-6.8 3.1-2.3-2.4-6.7-6.8-9.2-9-7.2-6.3-14.4-5-15.5-7 1-10.2 6-15.3-2.5-21.7z"/>
  <path fill="#DDB58A" d="m133.8 121.9.5 2-.4.6c-.8.8-1.3 1.8-1.5 3l-.3 1.2-1.1 1.9c.6.2 1.3 0 1.6-.5l1.1-1.5h1.2v3.5l-.8 1.7a1 1 0 0 0-.7 1.2l4-1c.7 0 1.1-.4 1.5-1l.3-.6c.4-.5.5-1 .6-1.7l.1-1c.2-1.4 0-2.6-.3-4l-1.4-5c-.4-1.5-4.8-.4-4.4 1.2z"/>
  <path fill="#CD9C67" d="M99 82.4a12.6 12.6 0 0 1-5.6 1.6 11 11 0 0 1-5.4-1.3 4.6 4.6 0 0 1 .1-.6c.7-.2 1.3-.6 1.8-1.1 1-1 1.4-2.5 1.3-4h4.7a5 5 0 0 0 1.1 3.9c.4.4.9.7 1.5 1l.4.2.1.3z"/>
  <path fill="#DDB58A" d="M82.2 65.5a7.5 7.5 0 0 0-1.2-2.3c-.3-.5-.7-1-1.3-1.1-.2 0-.8-.2-1.2.1-.4.3-.5.9-.5 1.4 0 1.3.1 2.5.8 4.5.6 2 1 2.7 1.4 3.1.6.7 1.1.8 1.4.8.2 0 .5 0 .8-.2.6-.5.6-1.5.6-1.6l-.8-4.7zm22.9 6.1 1 .4c.1 0 .8 0 1.7-.7 2-1.6 2.1-4.4 2.2-5.6a3 3 0 0 0-.6-2c-.1-.3-.4-.6-1-.7-.3 0-.7.1-.9.3-.8.4-1.1 1.3-1.2 1.6 0 0-1.8 5.5-1.2 6.7z"/>
  <path fill="#DDB58A" d="M106.5 56.4c-.4-1.5-.8-3-2-4.5-3.3-4-9.8-4.3-13.8-3.5-1.7.3-4.7 1-7 3.4-2.5 2.7-2.6 5.9-2.7 9.7-.1 3.7.6 6.3 1.7 10.3a20 20 0 0 0 3.1 6.7 7.8 7.8 0 0 0 2.6 2.4c1.2.7 2.3.8 3.8 1 1.6.1 3.2.3 5-.4.2 0 1-.4 2.1-1.2 3.2-2.4 5.4-7 6-8.3 0 0 2.8-11 1.2-15.6z"/>
  <path fill="#111010" d="M105.7 66.1c.9-1.4 1.8-3.3 2.4-5.5.5-1.8 1.2-4.2.8-7.3-.3-2-.6-4-2.4-5.4-1.4-1-3-1-3.8-1 0-.8 0-1.3-.2-1.7-.9-2.3-3.5-3-3.9-3-.5-.2-1-.2-1.3-.2-2.5 0-5 1-6.9 1.8 0 0-3.1 1.3-6.2 3.6-.6.4-1.6 1.2-1.8 2.4v1a5 5 0 0 0-2.9 2.4 6 6 0 0 0-.5 2.3A17.6 17.6 0 0 0 82.6 67c-.2-1-.4-2.3-.1-3.8.1-.7.3-1 1-2.7l1.2-3.8c.2-1 .4-2.4.1-4.4a31.7 31.7 0 0 0 17-1.9 16.8 16.8 0 0 0 3.9 11.6v4z"/>
  <path fill="#484443" d="M86.3 49a23.8 23.8 0 0 0 6.5-1l-2.6 2a29.6 29.6 0 0 0 7.8-1.3 19 19 0 0 1-12 2.1l3.6-1.5-3.3-.3zm-2.6 4a9.4 9.4 0 0 1-1.7 8 74.4 74.4 0 0 0 1.7-8zm-1.8 3a7 7 0 0 1-.9 5 25.1 25.1 0 0 1 .9-5zm22.3-3.2c-.4 1.2-.1 2.3 0 3A7.2 7.2 0 0 0 106 59a13.5 13.5 0 0 1-1.5-7l-.3.8z"/>
  <path fill="#331D09" d="M86 64.1s.2 2 2.6 1.9 2.4-2 2.4-2c-.1.1-1 1-2.4 1.2a3 3 0 0 1-2.6-1zm11 0s.2 2 2.6 1.9 2.4-2 2.4-2c-.1.1-1 1-2.4 1.2a3 3 0 0 1-2.6-1z"/>
  <path d="M92.6 74.3c-1.8.9-3.8 1-5.6.2a6 6 0 0 0 5-1.4c.8-.5 1.4.8.6 1.2zm2.4-1.2a6.4 6.4 0 0 0 5 1.4c-1.8.7-3.8.7-5.6-.2-.8-.4-.2-1.7.5-1.2z"/>
  <path fill="#987957" d="M94.6 78h-.1c-.4-.2-.7-.2-1-.2-.4 0-.7 0-1 .2-.2 0-.4 0-.5-.3 0-.2 0-.4.3-.5l1.2-.2c.4 0 .8 0 1.2.2a.4.4 0 0 1-.1.8z"/>
  <path fill="#542525" d="m96 58.1.2 2.1s4.9-1.2 8.8.8c0 0-2.8-3.8-9-2.9zm-4 1-.2 1.4s-4.9-.8-8.8.5c0 0 2.9-2.6 9-1.9z"/>
  <path fill="#987957" d="M93.7 63c.5.7.9 2 1.2 2.8.7 1.8 2 4.1.2 5.7-.9.7-2.3.7-3.1 0 1.5.6 3.3.3 3.6-1.4.4-1.5-.5-2.8-1-4.2l-.9-2.9z"/>
  <path fill="#652B28" d="M90 75s3 2.3 7 0c0 0-3 1-7 0z"/>
  <path fill="#D9C9AC" d="M76.6 116v-1.5c0-2.5-.3-4.9-.6-7.2l1.9-9.3c.5 6-.5 16.1-1.3 18zm34 1v-1.9c0-2.5 0-5 .4-7.4l-1.9-9.7c-.5 6.3.7 17 1.5 19z"/>
  <defs>
    <filter id="d" filterUnits="userSpaceOnUse" x="4" y="5" width="164" height="101">
      <feColorMatrix values="1 0 0 0 0 0 1 0 0 0 0 0 1 0 0 0 0 0 1 0"/>
    </filter>
  </defs>
  <mask maskUnits="userSpaceOnUse" x="4" y="5" width="164" height="101" id="e">
    <path fill="#8E97FD" filter="url(#d)" d="M0 10A10 10 0 0 1 10 0h161.8a10 10 0 0 1 10 10.2l-5.1 209a10 10 0 0 1-10 9.8H10a10 10 0 0 1-10-10V10z"/>
  </mask>
  <g mask="url(#e)">
    <defs>
      <path id="f" d="M136 80h32v26h-32z"/>
    </defs>
    <clipPath id="g">
      <use xlink:href="#f" overflow="visible"/>
    </clipPath>
    <g clip-path="url(#g)">
      <path fill="#3F4553" d="m156 106 11.1-3.8-5.6-16.4-11.1 3.8c-.4.1-.7.6-.5 1l5 14.8c.2.5.7.7 1 .6z"/>
      <path fill="#DDDDE3" d="m156 105.6 11.4-3.8L162 86l-11.4 3.8c-.3.1-.4.4-.3.7l5 14.8c.1.3.4.4.7.3z"/>
      <path fill="#E2E5FF" d="m156.2 105.6 11.5-3.9-5.4-15.8-11.4 3.9c-.3 0-.5.3-.4.6l5 14.8c.2.3.5.4.7.4z"/>
      <path fill="#4E5567" d="m156.9 105.7 11.1-3.8-5.6-16.4-11.1 3.8c-.5.1-.7.6-.6 1l5.1 14.8c.1.5.6.7 1 .6z"/>
      <path fill="#3F4553" d="m161.8 85.7-.3.1 5.6 16.4h.3l-5.6-16.5z"/>
      <path fill="#93BFA8" d="m163.4 98.6.2-.6.6.3-4.1-12c-.1-.2-.3-.2-.5-.1-.2 0-.4.2-.3.4l4 12z"/>
      <path fill="#3F4553" d="m138.3 90 7.5-8.7-1.5-1.3-7.5 8.8 1.5 1.3z"/>
      <path fill="#F2EDE4" d="m136.8 88.8 1.5 1.3-2.2 1.2-.1-.1.8-2.4z"/>
      <path fill="#3F4553" d="m136.2 91.3.5-.3-.5-.5-.2.7s0 .1.2 0z"/>
      <path fill="#4E5567" d="m137.8 89.7 7.5-8.9-.5-.4-7.5 8.8.5.5z"/>
    </g>
    <defs>
      <path id="h" d="M38 5h35v35H38z"/>
    </defs>
    <clipPath id="i">
      <use xlink:href="#h" overflow="visible"/>
    </clipPath>
    <g clip-path="url(#i)">
      <path fill="#808AFF" d="M55.5 5a17.5 17.5 0 1 0 0 35 17.5 17.5 0 0 0 0-35zm0 32a14.5 14.5 0 1 1 0-29 14.5 14.5 0 0 1 0 29z"/>
      <path fill="#AEB4FC" d="M69 28.1A14.5 14.5 0 1 0 42 17a14.5 14.5 0 0 0 27 11z"/>
      <path fill="#808AFF" d="M55.5 9.3c-1 0-1 1.5 0 1.5s1-1.5 0-1.5zm13.2 13.2c0-1-1.5-1-1.5 0s1.5 1 1.5 0zM55.5 35.7c1 0 1-1.6 0-1.6s-1 1.6 0 1.6zM42.3 22.5c0 1 1.6 1 1.6 0s-1.6-1-1.6 0zm19.5 4.3-.3-.1-6.3-3.7a.5.5 0 0 1-.2-.5v-10a.5.5 0 0 1 1 0v9.7l6 3.6c.3.1.4.4.2.7 0 .2-.3.3-.4.3z"/>
    </g>
    <path fill="#9BA3FF" d="m20.6 58.4-.3-2-2 .4a6 6 0 0 0-1.6-2.4l1.2-1.7-1.6-1.1-1.2 1.6c-.9-.4-1.8-.6-2.8-.6l-.4-2-2 .3.4 2c-1 .3-1.8.8-2.5 1.5l-1.6-1.2L5 55l1.7 1a5 5 0 0 0-.7 2.7l-2 .4.3 2 2-.4c.4 1 1 1.7 1.6 2.4l-1.2 1.7L8.4 66l1.2-1.6c.8.4 1.8.6 2.7.6l.4 2 2-.3-.3-2c.9-.4 1.7-.9 2.4-1.6l1.7 1.2 1.1-1.6-1.6-1.2c.4-.8.6-1.8.6-2.7l2-.4zm-8 2.2c-1 .2-2-.5-2.2-1.5s.6-2 1.6-2.2c1-.1 2 .5 2.2 1.6s-.5 2-1.6 2.1z"/>
    <path fill="#AEB4FC" d="M39.7 54.4V52h-2.5a7.6 7.6 0 0 0-1.4-3.2l1.8-1.8-1.6-2-2 2a8 8 0 0 0-3.3-1.4V43h-2.5v2.5c-1.3.2-2.4.7-3.3 1.3l-1.8-1.7-1.8 1.7 1.8 1.8c-.7 1-1.2 2-1.4 3.2h-2.6v2.5h2.6c.2 1.2.6 2.3 1.3 3.3l-1.8 1.8 1.8 1.7 1.8-1.7c1 .6 2 1.1 3.3 1.3v2.6h2.5v-2.6c1.2-.2 2.3-.6 3.3-1.3l1.8 1.8 1.8-1.8-1.8-1.7c.7-1 1.2-2 1.4-3.3h2.5zm-10.2 1c-1.3 0-2.4-1-2.4-2.3 0-1.3 1-2.3 2.4-2.3 1.3 0 2.3 1 2.3 2.3 0 1.3-1 2.3-2.3 2.3z"/>
    <g opacity=".3">
      <path fill="#ECECEC" d="m158 35.9-18.7-4.2a.3.3 0 0 1-.3-.4l2.4-10.5c0-.2.2-.3.4-.3l18.7 4.2c.2 0 .3.3.3.4l-2.4 10.5c0 .2-.2.3-.4.3z"/>
      <path fill="#F5F4F5" d="m139.3 31.4 2.3-10.6h.1l18.7 4.2h.1l-2.3 10.6h-.2l-18.7-4.2z"/>
      <path fill="#706F6E" d="m157.9 24.1-13.5-3v.3l13.4 3V24z"/>
      <path fill="#585857" d="m143.1 22.6-.6-.1-.1-.2V22l.2-.1.7.1v.5l-.2.1z"/>
      <path fill="#5E5E5D" d="m142.5 22.4.1-.5.6.1v.5l-.7-.1z"/>
      <path fill="#585857" d="m144.2 22.9-.6-.2s-.1 0 0-.1V22s.1-.1.2 0h.6l.1.2v.5h-.3z"/>
      <path fill="#5E5E5D" d="m143.6 22.6.1-.4h.7v.1l-.1.4h-.7z"/>
      <path fill="#585857" d="m145.4 23.1-.6-.1-.2-.2.1-.4.2-.1.6.1.2.2-.1.4c0 .1-.1.2-.2.1z"/>
      <path fill="#5E5E5D" d="M144.8 22.9v-.5l.7.1v.5l-.7-.1z"/>
      <path fill="#585857" d="m146.5 23.4-.6-.2-.1-.1v-.5h1s.1.2 0 .2v.5s-.1.1-.2 0z"/>
      <path fill="#5E5E5D" d="M146 23.1v-.4h.7v.1l-.1.5-.7-.2z"/>
      <path fill="#585857" d="M147.7 23.6h-.7v-.7l.2-.1.6.1.1.2v.4c0 .1-.2.2-.3.1z"/>
      <path fill="#5E5E5D" d="m147 23.4.1-.5.7.2v.4h-.1l-.6-.1z"/>
      <path fill="#585857" d="m148.8 23.9-.6-.1c-.1 0-.2-.1-.1-.2v-.4l.2-.2.6.2c.1 0 .2 0 .2.2l-.1.4-.2.1z"/>
      <path fill="#5E5E5D" d="M148.2 23.6v-.4h.1l.6.1v.5l-.7-.2z"/>
      <path fill="#585857" d="m150 24.2-.7-.2-.1-.2v-.4l.3-.1.6.1.1.2-.1.4-.2.2z"/>
      <path fill="#5E5E5D" d="m149.3 23.9.1-.5.7.2-.1.4-.7-.1z"/>
      <path fill="#585857" d="m151 24.4-.6-.1v-.6c0-.1.1-.2.2-.1h.6c.1.1.2.2.1.3v.4l-.2.1z"/>
      <path fill="#5E5E5D" d="M150.5 24.2v-.5l.7.1v.5h-.1l-.6-.1z"/>
      <path fill="#585857" d="m152.2 24.7-.6-.2-.1-.1v-.5s.2-.1.2 0h.7v.7h-.2z"/>
      <path fill="#5E5E5D" d="M151.6 24.4v-.5h.1l.6.2v.4h-.7z"/>
      <path fill="#585857" d="m153.3 25-.6-.2s-.1-.1 0-.2v-.4c0-.1.1-.2.2-.1l.6.1.1.2v.4l-.3.1z"/>
      <path fill="#5E5E5D" d="m152.7 24.7.1-.5.7.1-.1.5-.7-.1z"/>
      <path fill="#585857" d="m154.5 25.2-.6-.2-.2-.1.1-.5s.1-.1.2 0h.6l.1.2v.5s-.1.1-.2 0z"/>
      <path fill="#5E5E5D" d="M153.9 25v-.5h.7v.5h-.7z"/>
      <path fill="#585857" d="m155.6 25.4-.6-.1-.1-.2v-.4l.3-.1.6.1s.1.1 0 .2v.4c0 .1-.1.2-.2.1z"/>
      <path fill="#5E5E5D" d="m155 25.2.1-.5.6.1v.5l-.7-.1z"/>
      <path fill="#585857" d="m156.8 25.7-.7-.1s-.1-.1 0-.2v-.5h.8l.1.2v.5c-.1 0-.2.1-.2 0z"/>
      <path fill="#5E5E5D" d="M156.2 25.4V25l.7.1-.1.5-.6-.2z"/>
      <path fill="#585857" d="m157.9 26-.6-.2c-.1 0-.2 0-.1-.2v-.4l.2-.1.6.1.2.2-.1.4c0 .1-.1.2-.2.1z"/>
      <path fill="#5E5E5D" d="M157.3 25.7v-.5h.1l.6.2v.4l-.7-.1z"/>
      <path fill="#585857" d="m159 26.2-.6-.1-.1-.2v-.4l.3-.2.6.2s.1 0 0 .2v.4l-.2.1z"/>
      <path fill="#5E5E5D" d="m158.4 26 .1-.5.7.1-.1.5-.7-.2z"/>
      <path fill="#585857" d="m142.5 22.6.7.2.2.2-.2.8s-.1.1-.2 0h-.8l-.1-.3.2-.7c0-.1 0-.2.2-.2z"/>
      <path fill="#5E5E5D" d="m142.3 23.6.1-.8.8.1-.1.8-.8-.1z"/>
      <path fill="#585857" d="m143.8 23 .7.1.2.2-.2.8s-.1.1-.2 0h-.8v-1l.3-.2z"/>
      <path fill="#5E5E5D" d="m143.6 23.9.1-.8.8.1-.1.8-.8-.1z"/>
      <path fill="#585857" d="m145 23.2.9.2s.1.1 0 .2v.7l-.3.2-.7-.2-.2-.2.2-.8h.2z"/>
      <path fill="#5E5E5D" d="m144.9 24.2.1-.8.8.1-.1.8-.8-.1z"/>
      <path fill="#585857" d="m146.4 23.5.8.2.1.2-.2.7c0 .1 0 .2-.2.2l-.7-.2-.2-.2.2-.8s.1-.1.2 0z"/>
      <path fill="#5E5E5D" d="m146.2 24.5.1-.8.8.1-.1.8-.8-.1z"/>
      <path fill="#585857" d="m147.7 23.8.8.2.1.2-.2.7c0 .1 0 .2-.2.2l-.7-.2-.2-.2.2-.8s.1-.1.2 0z"/>
      <path fill="#5E5E5D" d="m147.5 24.8.1-.8.9.1-.2.8-.8-.1z"/>
      <path fill="#585857" d="m149 24.1.8.2.1.2-.2.7c0 .1 0 .2-.2.2l-.7-.2c-.1 0-.2-.1-.1-.2l.1-.8s.1-.1.2 0z"/>
      <path fill="#5E5E5D" d="m148.8 25 .2-.7.8.1-.2.8-.8-.1z"/>
      <path fill="#585857" d="m150.3 24.4.8.2.1.2-.1.7-.2.2-.8-.2s-.2-.1-.1-.2l.1-.8s.2-.1.2 0z"/>
      <path fill="#5E5E5D" d="m150.1 25.4.2-.8.8.1-.2.8-.8-.1z"/>
      <path fill="#585857" d="m151.7 24.7.7.2c.1 0 .2 0 .1.2l-.1.7c0 .1-.1.2-.2.1l-.8-.1-.1-.2.2-.8.2-.1z"/>
      <path fill="#5E5E5D" d="m151.4 25.6.2-.8.8.2-.2.8-.8-.2z"/>
      <path fill="#585857" d="m153 25 .7.2c.1 0 .2 0 .2.2l-.2.7c0 .1-.1.2-.2.1l-.8-.1-.1-.2.2-.8.2-.1z"/>
      <path fill="#5E5E5D" d="M152.7 26v-.1l.2-.8.8.2-.1.8-.9-.2z"/>
      <path fill="#585857" d="m154.3 25.3.7.2c.1 0 .2 0 .2.2l-.2.7c0 .1-.1.2-.2.1l-.8-.1-.1-.2.2-.8.2-.1z"/>
      <path fill="#5E5E5D" d="m154 26.2.2-.8.8.2-.1.8-.8-.2z"/>
      <path fill="#585857" d="m155.6 25.6.8.2v.2l-.1.7-.2.1-.8-.1s-.1-.2 0-.2v-.8l.3-.1z"/>
      <path fill="#5E5E5D" d="m155.4 26.5.1-.8.8.2-.1.8-.8-.2z"/>
      <path fill="#585857" d="m156.9 25.9.8.2s.1 0 0 .2v.7l-.3.1-.7-.1-.2-.2.2-.8.2-.1z"/>
      <path fill="#5E5E5D" d="m156.7 26.8.1-.8.8.2-.1.8-.8-.2z"/>
      <path fill="#585857" d="m158.2 26.2.8.1.1.2-.2.8-.2.1-.7-.2-.2-.1.2-.8.2-.1z"/>
      <path fill="#5E5E5D" d="m158 27.1.1-.8.8.2-.1.8-.8-.2z"/>
      <path fill="#585857" d="m142.2 23.9.8.1s.1.1 0 .2v.8l-.3.1-.7-.2c-.1 0-.2 0-.2-.2l.2-.7c0-.1.1-.2.2-.1z"/>
      <path fill="#5E5E5D" d="m142 24.8.1-.8.8.1-.1.8h-.8z"/>
      <path fill="#585857" d="m143.5 24.2.8.1.1.2-.2.8-.2.1-.7-.2c-.1 0-.2 0-.2-.2l.2-.7c0-.1.1-.2.2-.1z"/>
      <path fill="#5E5E5D" d="m143.3 25.1.1-.8.8.1v.8h-.1l-.8-.1z"/>
      <path fill="#585857" d="m144.8 24.4.8.2.1.2-.2.8s0 .1-.2 0h-.7c-.1-.1-.2-.2-.1-.3l.1-.7.2-.2z"/>
      <path fill="#5E5E5D" d="m144.6 25.4.1-.8.9.1-.2.8-.8-.1z"/>
      <path fill="#585857" d="m146.1 24.7.8.2.1.2-.1.8s-.2.1-.2 0h-.8c-.1-.1-.2-.2-.1-.3l.1-.7.2-.2z"/>
      <path fill="#5E5E5D" d="M146 25.7h-.1l.2-.8.8.1-.2.8-.8-.1z"/>
      <path fill="#585857" d="m147.4 25 .8.2c.1 0 .2.1.1.2l-.1.8s-.1.1-.2 0h-.8l-.1-.3.1-.7.2-.2z"/>
      <path fill="#5E5E5D" d="m147.2 26 .2-.8.8.1-.2.8-.8-.1z"/>
      <path fill="#585857" d="m148.8 25.3.7.2c.1 0 .2.1.1.2l-.1.8s-.1.1-.2 0l-.8-.1-.1-.2.2-.7c0-.1 0-.2.2-.2z"/>
      <path fill="#5E5E5D" d="m148.5 26.3.2-.8.8.1-.1.8-.9-.1z"/>
      <path fill="#585857" d="m150 25.6.8.2.2.2-.2.8h-.2l-.8-.1-.1-.2.2-.7c0-.1 0-.2.2-.2z"/>
      <path fill="#5E5E5D" d="m149.8 26.6.2-.8.8.1-.1.8-.8-.1z"/>
      <path fill="#585857" d="M151.4 26h.7l.2.3-.2.7-.2.2-.8-.2s-.1-.1 0-.2V26h.3z"/>
      <path fill="#5E5E5D" d="m151.2 26.9.1-.8.8.1-.1.8-.8-.1z"/>
      <path fill="#585857" d="m152.7 26.2.8.2s.1 0 0 .2l-.1.7-.2.2-.8-.2s-.1-.1 0-.2v-.8h.3z"/>
      <path fill="#5E5E5D" d="m152.5 27.2.1-.8.8.1-.1.8-.8-.1z"/>
      <path fill="#585857" d="m154 26.5.8.2s.1 0 0 .2v.7l-.3.2-.7-.2-.2-.2.2-.8s.1-.1.2 0z"/>
      <path fill="#5E5E5D" d="m153.8 27.5.1-.8.8.1-.1.8-.8-.1z"/>
      <path fill="#585857" d="m155.3 26.8.8.2.1.2-.2.7c0 .1 0 .2-.2.2l-.7-.2-.2-.2.2-.8s.1-.1.2 0z"/>
      <path fill="#5E5E5D" d="m155 27.8.2-.8.8.1v.8h-.1l-.8-.1z"/>
      <path fill="#585857" d="m156.6 27.1.8.2.1.2-.2.7c0 .1 0 .2-.2.1l-.7-.1c-.1 0-.2-.1-.1-.2l.1-.8.2-.1z"/>
      <path fill="#5E5E5D" d="m156.4 28 .1-.7h.9v.1l-.2.8-.8-.1z"/>
      <path fill="#585857" d="m158 27.4.7.2.1.2-.1.7-.2.1-.8-.1c-.1 0-.2-.1-.1-.2l.1-.8.2-.1z"/>
      <path fill="#5E5E5D" d="m157.7 28.3.2-.8.8.2-.2.8-.8-.2z"/>
      <path fill="#585857" d="m142 25 .7.3.1.1-.2.8-.2.1-.7-.1-.1-.2.1-.8.2-.1z"/>
      <path fill="#5E5E5D" d="m141.7 26 .1-.8.9.2-.2.8-.8-.2z"/>
      <path fill="#585857" d="m143.2 25.4.8.1.1.2-.1.8-.2.1-.8-.2c-.1 0-.2 0-.1-.2l.1-.7.2-.1z"/>
      <path fill="#5E5E5D" d="m143 26.3.2-.8.8.2-.2.8-.8-.2z"/>
      <path fill="#585857" d="m144.5 25.7.8.1c.1 0 .2.1.1.2l-.1.8-.2.1-.8-.2-.1-.2.1-.7.2-.1z"/>
      <path fill="#5E5E5D" d="m144.3 26.6.2-.8.8.2-.2.8-.8-.2z"/>
      <path fill="#585857" d="m145.9 26 .7.1c.1 0 .2.1.1.2l-.1.8-.2.1-.8-.2-.1-.2.2-.7c0-.1 0-.2.2-.1z"/>
      <path fill="#5E5E5D" d="M145.6 27v-.1l.2-.8.8.2-.1.8-.9-.2z"/>
      <path fill="#585857" d="m147.2 26.3.7.1.2.2-.2.8-.2.1-.8-.2-.1-.2.2-.7c0-.1 0-.2.2-.1z"/>
      <path fill="#5E5E5D" d="M147 27.2v-.8h.1l.8.1v.1l-.1.8-.8-.2z"/>
      <path fill="#585857" d="m148.5 26.6.7.1.2.2-.2.8-.2.1-.8-.2s-.1 0 0-.2v-.7c.1-.1.2-.2.3-.1z"/>
      <path fill="#5E5E5D" d="m148.3 27.5.1-.8.8.1-.1.8-.8-.1z"/>
      <path fill="#585857" d="m149.8 26.8.8.2s.1.1 0 .2v.8h-1.1v-1l.3-.2z"/>
      <path fill="#5E5E5D" d="m149.6 27.8.1-.8.8.1-.1.8-.8-.1z"/>
      <path fill="#585857" d="m151.1 27.1.8.2s.1.1 0 .2v.8h-1l-.2-.3.2-.7.2-.2z"/>
      <path fill="#5E5E5D" d="m150.9 28 .1-.7.8.1-.1.8-.8-.1z"/>
      <path fill="#585857" d="m152.4 27.4.8.2.1.2-.2.8s0 .1-.2 0h-.7l-.2-.3.2-.7.2-.2z"/>
      <path fill="#5E5E5D" d="m152.2 28.4.1-.8.9.1-.2.8-.8-.1z"/>
      <path fill="#585857" d="m153.7 27.7.8.2.1.2-.2.8s0 .1-.2 0h-.7c-.1-.1-.2-.2-.1-.3l.1-.7.2-.2z"/>
      <path fill="#5E5E5D" d="m153.5 28.7.1-.8h.1l.8.1-.2.8-.8-.1z"/>
      <path fill="#585857" d="m155 28 .8.2.1.2-.1.7-.2.2-.8-.2c-.1 0-.2-.1-.1-.2l.1-.8s.1-.1.2 0z"/>
      <path fill="#5E5E5D" d="m154.8 29 .2-.8.8.1-.2.8-.8-.1z"/>
      <path fill="#585857" d="m156.3 28.3.8.2c.1 0 .2.1.1.2l-.1.7-.2.2-.8-.2-.1-.2.1-.8s.2-.1.2 0z"/>
      <path fill="#5E5E5D" d="m156.1 29.3.2-.8.8.1-.2.8-.8-.1z"/>
      <path fill="#585857" d="m157.7 28.6.7.2c.1 0 .2 0 .1.2l-.1.7-.2.2-.8-.2-.1-.2.2-.8s0-.1.2 0z"/>
      <path fill="#5E5E5D" d="m157.4 29.6.2-.8.8.1-.1.8-.9-.1z"/>
      <path fill="#585857" d="m141.6 26.3.8.2c.1 0 .2 0 .1.2l-.1.7c0 .1-.1.2-.2.1l-.8-.1-.1-.2.2-.8.1-.1z"/>
      <path fill="#5E5E5D" d="m141.4 27.2.2-.8.8.2-.2.8-.8-.2z"/>
      <path fill="#585857" d="m143 26.6.7.2c.1 0 .2 0 .2.2l-.2.7c0 .1-.1.2-.2.1l-.8-.1-.1-.2.2-.8.2-.1z"/>
      <path fill="#5E5E5D" d="m142.7 27.5.2-.8.8.2-.1.8-.9-.2z"/>
      <path fill="#585857" d="m144.3 26.9.7.2c.1 0 .2 0 .2.2l-.2.7c0 .1-.1.2-.2.1l-.8-.1-.1-.2.2-.8.2-.1z"/>
      <path fill="#5E5E5D" d="m144 27.8.2-.8.8.2-.1.8-.8-.2z"/>
      <path fill="#585857" d="m145.6 27.2.7.2c.1 0 .2 0 .2.2l-.2.7-.2.1-.8-.1s-.1-.2 0-.2v-.8l.3-.1z"/>
      <path fill="#5E5E5D" d="m145.4 28.1.1-.8.8.2-.1.8-.8-.2z"/>
      <path fill="#585857" d="m151.6 28.5-4.7-1-.2.1-.2.8v.1l4.8 1.1.2-.1.2-.8-.1-.2z"/>
      <path fill="#5E5E5D" d="m146.6 28.4.2-.8 4.8 1v.1l-.2.8-4.8-1z"/>
      <path fill="#585857" d="m152.1 28.7.8.1.1.2-.1.8-.2.1-.8-.2-.1-.2.1-.7c0-.1.1-.2.2-.1z"/>
      <path fill="#5E5E5D" d="M152 29.6h-.1l.2-.8.8.1-.2.8h-.8z"/>
      <path fill="#585857" d="m153.4 29 .8.1c.1 0 .2.1.1.2l-.1.8-.2.1-.8-.2-.1-.2.2-.7c0-.1 0-.2.1-.1z"/>
      <path fill="#5E5E5D" d="m153.2 29.9.2-.8.8.1-.2.8-.8-.1z"/>
      <path fill="#585857" d="m154.8 29.2.7.2.2.2-.2.8s-.1.1-.2 0h-.8l-.1-.3.2-.7c0-.1 0-.2.2-.2z"/>
      <path fill="#5E5E5D" d="m154.5 30.2.2-.8.8.1-.1.8-.9-.1z"/>
      <path fill="#585857" d="m156 29.5.8.2.2.2-.2.8s-.1.1-.2 0h-.8l-.1-.3.2-.7c0-.1 0-.2.2-.2z"/>
      <path fill="#5E5E5D" d="m155.9 30.5.1-.8.8.1-.1.8-.8-.1z"/>
      <path fill="#585857" d="m157.4 29.8.7.2.2.2-.2.8s-.1.1-.2 0h-.8v-1l.3-.2z"/>
      <path fill="#5E5E5D" d="m157.2 30.8.1-.8.8.1-.1.8-.8-.1z"/>
      <path fill="#EDEDED" d="m151.4 30.7-3.9-.9c-.2 0-.3 0-.4.2l-.4 2.1c0 .2 0 .3.2.4l3.9.8c.1 0 .3 0 .3-.2l.5-2c0-.2 0-.4-.2-.4z"/>
      <path fill="#9D9B9B" d="m151.4 30.5-3.9-.8c-.2 0-.4 0-.5.3l-.5 2c0 .3.1.5.4.6l3.8.9c.3 0 .5-.1.6-.4l.4-2c0-.3 0-.5-.3-.6zm-.3 2.6c0 .2-.2.3-.3.2l-3.9-.8a.3.3 0 0 1-.2-.4l.4-2c0-.2.2-.3.4-.3l3.9.9.2.3-.5 2.1z"/>
      <path fill="#DFDFDE" d="m146.9 31-.2 1.1c0 .2 0 .3.2.4l3.9.8c.1 0 .3 0 .3-.2l.3-1-4.5-1z"/>
      <path fill="#D9D9DA" d="M149.1 31.6 147 31l-.2 1c0 .2 0 .3.2.4l2 .4.2-1.3z"/>
      <path fill="#E3E1E1" d="m160.6 24.8-19-4.3a.2.2 0 0 1 0-.2l1.9-10.9c0-.3.3-.5.6-.4l19.2 4.3c.3.1.5.4.4.7l-2.8 10.6-.3.2z"/>
      <path fill="#C7C7C6" d="m142.3 19.5 1.9-9.2c0-.2.3-.4.5-.4l17.7 4c.2 0 .4.3.3.6l-2.3 9c0 .3-.3.4-.5.3L142.7 20a.5.5 0 0 1-.4-.5z"/>
      <path fill="#C6E6F2" d="m142.5 19.5 1.8-9.2c0-.2.2-.3.4-.3l17.6 4c.2 0 .4.3.3.5l-2.3 9c0 .2-.2.2-.4.2l-17.2-3.9a.3.3 0 0 1-.2-.3z"/>
      <path opacity=".2" fill="#B6E0ED" enable-background="new" d="M142.7 18.6 144 17a10 10 0 0 1 4.8-2.2c2-.4 4.2-1.3 6.2-1.1 2.8.2 4.7.6 7.3 1.6l.3-.8c0-.2 0-.4-.3-.5l-17.6-4c-.2 0-.4.1-.4.3l-1.8 8.8.2-.5z"/>
      <path fill="#585857" d="m157.9 24.1-13.5-3V21l13.6 3-.1.2z"/>
      <path fill="#3C3C3B" d="M153.5 11.5h.2s.1 0 0 .1c0 .1 0 .2-.1.1l-.1-.2z"/>
      <path fill="#585857" d="m153.5 11.6.1-.1.1.1s0 .1-.1 0c0 0-.1 0 0 0z"/>
      <path fill="#B6E0ED" d="M153.6 11.6z"/>
    </g>
    <path fill="#FDFFFC" d="M148.2 54.4a7 7 0 1 1 13.7 3.2 7 7 0 0 1-5.2 5.2c-.2.4-.4 2.7-.9 3.4-.2.4-.5.4-.9.3-.3 1.2-1.7 2.3-2.8 2.2a2 2 0 0 1-1.7-1.4 11 11 0 0 1-.5-1.9c-.5 0-.8 0-.7-.5 0-1 1-3.4 1-3.8a7 7 0 0 1-2-6.7z"/>
    <path fill="#AEB4FC" d="M151.8 54.1c.2-.4.5-.6 1-.5.3 0 .6.5.5.8a1 1 0 0 1-.5.6c.2 1 .4 2 .4 3l.4 2.7 3.4-5c-.3-.3 0-1 .5-.8.7.1.4 1.2-.2 1a52.2 52.2 0 0 0-3.6 5.6c-.1.2-.4.1-.5-.1-.3-1-.4-2-.5-3 0-1.2-.3-2.3-.4-3.4-.3-.2-.6-.5-.5-.9z"/>
    <path fill="#808AFF" d="m160.3 48 4.3-2.2c.3-.2.6.3.3.4l-4.2 2.3c-.4.2-.8-.4-.4-.6zm-2.6-5.5c0-.3.4 0 .4.2a24 24 0 0 1-1.2 4.4c0 .3-.6.2-.5-.2.3-1.4.6-3 1.3-4.4zM151 42c.4.4.6.9.8 1.3l.7 1.4c.2.4-.5.6-.6.2l-.6-1.4-.6-1.2c-.1-.2.2-.4.3-.2z"/>
  </g>
  <path fill="#8E97FD" d="M24.4 87a7 7 0 0 0-6.4 7.8c.4 3.8 4 6.7 7.9 6.3s6.8-3.9 6.4-7.8c-.4-3.8-4-6.7-7.9-6.3z"/>
  <path fill="#A9B0FF" d="m22.6 92.6-.7-1.4v-.1l.8 1.4-.1.1zm8.9 4.8c-3.6 1.2-6.2-.7-8-3.4 1.9 2.6 4.5 4.5 8 3.5zm-10.6-9 1 2.5-.1.1-1-2.6zm2.4 5.5-.6-1.1v-.2l.7 1.1v.2zm-3.5-4.5 1.1 2.9v.1c-.5-1-.9-2-1.1-3z"/>
  <path fill="#A9B0FF" d="M30.6 98.7c-3.6 1.2-6.2-.6-8-3.3v-.1c1.9 2.6 4.5 4.4 8 3.4zm-8.1-3.6v.2a16 16 0 0 1-.8-1l.1-.2.7 1zm-.8-1.2v.1l-.8-1.4.1-.1.7 1.4zm1.1-3.7V90l.7 1.3v.1l-.7-1.3zm9.2 6.1c-3.4 1-6-.8-7.7-3.4l.1-.1c1.8 2.5 4.3 4.3 7.5 3.5zm-10.1-8.5zm1.6 3.9.1-.1.7 1-.1.2-.7-1z"/>
  <path fill="#A9B0FF" d="M22.6 92.6v-.1a11.5 11.5 0 0 1 1-1c1.8-2 4.2-3 7.2-1.8-3-1-5.4 0-7.2 1.9v.1l-.8 1h-.1l-.9 1.3v.2c-.9 1.5-1.5 3-2 4.5a25 25 0 0 1 1.8-4.7l.1-.1.9-1.3z"/>
  <path fill="#A9B0FF" d="M22.7 90v-.1c1.7-1.6 3.8-2.5 6.3-1.8h.1c-2.6-.5-4.6.4-6.2 2h-.1a11.2 11.2 0 0 0-1.8 2.4c-1 1.6-1.7 3.3-2.2 4.8.4-1.6 1.1-3.3 2-4.9l.1-.1.9-1.3v-.1l.9-1zm.6 3.9a8.4 8.4 0 0 1 .9-1.1l.1-.2c1.8-1.9 4.2-3 7.2-1.8-3-1-5.3.1-7 2l-.2.1-.8 1v.1c-.4.4-.6.8-.9 1.3v.1c-.9 1.4-1.5 2.8-1.9 4.2a20.8 20.8 0 0 1 2.6-5.7z"/>
  <path fill="#AEB4FC" d="M35.7 78.1c0-.1-.2-.1-.2 0 0 .7-.2 1.3-.5 1.9a7 7 0 0 1-1.2 1.8l-.7.4c.2-.3.2-.6.2-.9-.1-.6-.7-1-1.3-1-.5 0-1 .2-1.2.7-.3.6.4 1.2.9 1.5l.5.1-.1.1c-.6.3-1.3.4-1.9.5l-1 .1c-.2 0-.2.3 0 .3l1.5-.2a5 5 0 0 0 2-.8c1-.1 1.8-1 2.3-1.9l.6-1.4c0-.3.2-.8.1-1.2zm-3.5 4.2c-.4 0-.7-.2-1-.5a1 1 0 0 1-.2-.3v-.3l.1-.3.3-.2.7-.1c.2 0 .5 0 .6.2.2.2.3.5.3.8 0 .3-.2.6-.4.8h-.4z"/>
</svg>
