<?xml version="1.0" encoding="utf-8"?>
<!-- Generator: Adobe Illustrator 16.0.0, SVG Export Plug-In . SVG Version: 6.00 Build 0)  -->
<!DOCTYPE svg PUBLIC "-//W3C//DTD SVG 1.1//EN" "http://www.w3.org/Graphics/SVG/1.1/DTD/svg11.dtd">
<svg version="1.1" id="Layer_1" xmlns="http://www.w3.org/2000/svg" xmlns:xlink="http://www.w3.org/1999/xlink" x="0px" y="0px"
	 width="182px" height="191px" viewBox="0 0 182 191" enable-background="new 0 0 182 191" xml:space="preserve">
<defs>
	<filter id="Adobe_OpacityMaskFilter" filterUnits="userSpaceOnUse" x="7.798" y="32.979" width="167.548" height="138.123">
		<feColorMatrix  type="matrix" values="1 0 0 0 0  0 1 0 0 0  0 0 1 0 0  0 0 0 1 0"/>
	</filter>
</defs>
<mask maskUnits="userSpaceOnUse" x="7.798" y="32.979" width="167.548" height="138.123" id="mask0_9_3812">
	<path fill="#FFFFFF" filter="url(#Adobe_OpacityMaskFilter)" d="M78.741,34.4c-8.71,1.971-17.317,5.739-24.298,11.343
		c-1.105,0.887-2.235,1.874-3.336,2.936c-2.543,2.451-4.933,5.294-6.502,8.194c-3.299,6.093-3.571,14.792-2.578,21.444
		c0.685,4.597,3.671,10.978,2.205,15.629c-1.986,6.301-12.449,6.044-17.555,7.623c-4.692,1.449-9.142,5.017-11.536,9.358
		c-7.342,13.321,1.488,20.458,5.906,26.415c5.021,6.772-5.92,14.961,0.364,21.719c6.571,7.065,14.485,10,27.622,10
		c26.028,0,31.856,2.039,67.924-0.513c6.833-0.483,15.94-2.039,22.751-2.769c10.281-1.103,35.641-10.016,29.023-26.877
		c-4.896-12.475-30.605-10.555-21.989-27.606c5.635-11.153,16.229-26.633,3.055-36.487c-9.567-7.155-15.69-11.264-21.243-22.083
		c-6.078-11.845-14.607-18.262-28.035-19.39c-2.668-0.224-5.351-0.358-8.027-0.358C87.872,32.979,83.262,33.377,78.741,34.4z"/>
</mask>
<g mask="url(#mask0_9_3812)">
	
		<linearGradient id="SVGID_1_" gradientUnits="userSpaceOnUse" x1="222.5713" y1="-50.5186" x2="222.5713" y2="-190.7298" gradientTransform="matrix(1 0 0 -1 -131 -22.5)">
		<stop  offset="0" style="stop-color:#F5F6FF"/>
		<stop  offset="0.4118" style="stop-color:#D9DBF9"/>
		<stop  offset="0.7063" style="stop-color:#CACEFA"/>
		<stop  offset="0.8516" style="stop-color:#C6CAFF"/>
		<stop  offset="0.9639" style="stop-color:#C9CDFF"/>
		<stop  offset="1" style="stop-color:#A8AEF3"/>
	</linearGradient>
	<path fill="url(#SVGID_1_)" fill-opacity="0.08" d="M175.346,32.979H7.798v138.123h167.548V32.979z"/>
</g>
<path fill="#6F7EC1" d="M135.689,122.043c-1.015-7.521,12.16-8.182,10.908-1.08c2.896-4.74,11.019-0.085,8.773,5.285
	c2.371-0.422,4.261,1.477,5.145,3.475c1.094,2.469,0.289,4.238-1.395,6.242c2.271-0.025,4.665,1.928,4.814,4.227
	c0.215,3.324-0.324,4.317-2.144,6.088c2.506,0.244,3.274,3.242,3.204,5.464c-0.111,3.405-1.832,4.159-4.863,4.716
	c-3.566,0.654-6.529,0.686-10.142,0.255c-3.022-0.362-6.275-1.429-9.407-1.401c-5.124,0.043-10.223-0.574-15.285-1.278
	c-3.418-0.474-8.218-0.188-10.441-3.198c-1.803-2.443-2.442-5.551-1.248-8.35c0.649-1.527,3.998-5.717,5.945-3.029
	c-2.777-2.211-2.789-4.368-1.939-6.902c0.854-2.547,3.861-4.779,6.455-3.467c-1.734-3.294-0.207-6.814,2.875-8.921
	C126.945,120.167,132.467,116.557,135.689,122.043z"/>
<path fill="#AEB4FC" d="M95.771,143.621c-4.619-5.032,2.695-11.947,7.688-7.939c-4.162-8.07,10.379-12.634,10.917-4.102
	c3.655-4.577,12.001-2.137,10.151,4.173c7.054-2.075,10.445,7.032,6.186,10.384c3.68,0.864,4.322,6.299,1.663,8.381
	c-2.401,1.881-8.362,1.437-11.501,1.438c-4.143,0-8.343-0.247-12.379-0.577c-4.581-0.376-11.768,1.005-15.568-2.293
	c-1.686-1.464-3.568-2.786-2.716-6.935C90.543,144.539,94.199,141.025,95.771,143.621z"/>
<path fill="#AEB4FC" d="M147.148,150.17c-2.521-2.775,1.47-6.591,4.192-4.38c-2.271-4.453,5.662-6.972,5.955-2.263
	c1.994-2.526,6.546-1.18,5.538,2.302c3.848-1.146,5.697,3.881,3.373,5.729c2.007,0.477,2.357,3.475,0.908,4.623
	c-1.311,1.039-4.561,0.793-6.274,0.793c-2.26,0-4.552-0.136-6.752-0.318c-2.499-0.207-6.42,0.555-8.493-1.266
	c-0.92-0.807-1.945-1.535-1.479-3.824C144.296,150.677,146.29,148.738,147.148,150.17z"/>
<path fill="#6F7EC1" d="M8,161c0-7.732,36.937-14,82.5-14c45.563,0,82.5,6.268,82.5,14"/>
<path fill="#6F7EC1" d="M173,161c0,8.285-36.938,15-82.5,15C44.937,176,8,169.285,8,161"/>
<path fill="#60A0BF" d="M79,130c8.826,4.313,17.832,4.171,27,0l-13.469,21L79,130z"/>
<path fill="#F2EDE4" d="M96.741,150c-0.022,0.002-2.435-0.014-2.458-0.016c-29.578-4.004-18.31-18.686-17.557-34.051
	c0.027-0.511,0.04-1.023,0.04-1.535c0-2.447-0.261-4.828-0.607-7.115c-0.07-0.473-0.143-0.94-0.221-1.403
	c-1.528-9.296-3.823-16.994,5.789-21.653c1.321-0.643,2.867-1.226,4.669-1.747c1.908-0.553,4.138-1.043,6.742-1.468
	c0.02-0.002,0.04-0.009,0.06-0.011c0.023,0.002,0.043,0.009,0.063,0.011c2.659,0.436,4.93,0.938,6.864,1.504
	c18.584,5.443,10.14,17.143,10.14,31.553C110.264,129.982,127.303,145.863,96.741,150z"/>
<path fill="#F29D72" d="M133.813,121.866l0.515,2.124l-0.45,0.486c-0.787,0.854-1.258,1.785-1.482,2.938l-0.246,1.259L131,130.564
	l0.059,0.024c0.582,0.228,1.217,0.039,1.59-0.473l1.074-1.474l1.178-0.063l-0.03,3.475l-0.726,1.704l-0.129,0.062
	c-0.44,0.211-0.695,0.656-0.658,1.152V135l4.104-0.912c0.606-0.136,1.079-0.482,1.399-1.027l0.363-0.617
	c0.334-0.569,0.518-1.118,0.594-1.778l0.104-0.904c0.165-1.44,0.068-2.7-0.315-4.096l-1.36-4.959
	C137.835,119.2,133.447,120.348,133.813,121.866z"/>
<path fill="#D9C9AC" d="M100,82.742C100,86.198,96.867,89,93.001,89c-0.042,0-0.085,0-0.126-0.001
	C89.066,88.939,86,86.161,86,82.742c0-0.058,0.002-0.116,0.005-0.173c1.944-0.582,4.218-1.098,6.87-1.547V81
	c0.021,0.003,0.042,0.007,0.063,0.01c0.021-0.003,0.043-0.007,0.063-0.01v0.022c2.71,0.459,5.024,0.989,6.996,1.586
	C100,82.653,100,82.698,100,82.742z"/>
<path fill="#DDB58A" d="M98.656,85.265c-1.236,2.744-4.998,2.741-5.29,2.734c-0.438-0.007-3.882-0.128-5.024-2.739
	c-0.417-0.949-0.379-1.891-0.268-2.545c0.036-0.213,0.079-0.395,0.119-0.537c0-0.01,0.002-0.015,0.005-0.022
	c0.705-0.254,1.289-0.642,1.749-1.126c0.971-1.02,1.389-2.473,1.225-4.03h4.654c-0.133,1.432,0.193,2.872,1.08,3.894
	c0.372,0.431,0.846,0.787,1.423,1.034c0.159,0.073,0.315,0.147,0.473,0.228c0.005,0.017,0.009,0.037,0.012,0.053
	c0.019,0.07,0.036,0.138,0.05,0.206C99.112,83.531,99.008,84.483,98.656,85.265z"/>
<path fill="#141414" d="M112.072,166.21c0.631,0.375,1.352,0.714,2.146,0.997c3.887,1.381,8.096,0.912,9.396-1.047
	c1.3-1.959-0.797-4.668-4.686-6.051c-1.576-0.56-3.207-0.815-4.674-0.791c-1.066,0.018-1.99-0.369-2.722-1.139
	c-0.196-0.207-0.421-0.395-0.668-0.558c-1.744-1.144-4.089-0.666-5.24,1.067c-1.151,1.732-0.67,4.063,1.074,5.207
	c0.34,0.225,0.704,0.386,1.077,0.487C109.361,164.818,110.663,165.372,112.072,166.21z"/>
<path fill="#DDB58A" d="M101.391,154l8.032,3.73c2.996,1.393,1.438,6.354-2.284,5.055L98,159.598L101.391,154z"/>
<path fill="#66A986" d="M104,154.486L100.123,161c0,0-0.344-0.025-0.521-0.052c-11.497-1.841-23.412-6.138-34.755-12.994
	c-4.805-2.904-9.264-6.122-13.35-9.58c-1.761-1.492-2.798-3.276-3.24-5.129c-1.654-6.901,4.934-14.709,12.867-11.504
	c4.933,1.993,9.84,4.438,14.645,7.344c11.176,6.754,20.488,15.2,27.564,24.449c0.107,0.14,0.214,0.278,0.318,0.418
	C103.781,154.126,104,154.486,104,154.486z"/>
<path fill="#93BFA8" d="M103,152.984L99.379,159c0,0-0.344-0.023-0.52-0.051c-11.428-1.809-23.271-6.033-34.543-12.774
	c-4.776-2.854-9.208-6.018-13.272-9.418c-1.321-1.104-2.233-2.379-2.789-3.719c-1.644-6.784,4.904-14.46,12.789-11.31
	c4.904,1.959,9.781,4.363,14.557,7.22C86.709,135.589,95.967,143.891,103,152.984z"/>
<path fill="#141414" d="M74.929,164.21c-0.631,0.376-1.352,0.714-2.146,0.996c-3.889,1.382-8.095,0.914-9.396-1.046
	c-1.301-1.959,0.796-4.668,4.685-6.051c1.577-0.561,3.208-0.815,4.674-0.791c1.066,0.018,1.99-0.369,2.722-1.139
	c0.196-0.207,0.419-0.395,0.668-0.558c1.743-1.144,4.089-0.666,5.24,1.067c1.15,1.732,0.669,4.063-1.074,5.207
	c-0.341,0.224-0.705,0.386-1.079,0.487C77.639,162.818,76.338,163.372,74.929,164.21z"/>
<path fill="#DDB58A" d="M84.87,152l-7.415,3.73c-2.766,1.392-1.328,6.354,2.109,5.055L88,157.598L84.87,152z"/>
<path fill="#66A986" d="M138.999,129.703c0.028,2.566-1.015,5.191-3.504,7.24c-4.093,3.375-8.562,6.511-13.374,9.344
	c-11.365,6.688-23.301,10.878-34.818,12.672c-0.115,0.02-0.343,0.041-0.343,0.041L83,152.482c0,0,0.158-0.232,0.246-0.347
	c0.034-0.043,0.068-0.089,0.104-0.133c7.115-9.125,16.521-17.463,27.83-24.118c4.813-2.833,9.729-5.218,14.672-7.162
	C132.925,117.941,138.932,123.665,138.999,129.703z"/>
<path fill="#93BFA8" d="M139,129.7c-0.223,2.239-1.301,4.464-3.484,6.252c-4.119,3.372-8.615,6.509-13.459,9.338
	c-11.437,6.687-23.447,10.875-35.038,12.669c-0.115,0.02-0.345,0.041-0.345,0.041L83,151.995
	c7.16-9.123,16.625-17.459,28.005-24.112c4.845-2.832,9.79-5.216,14.763-7.16C132.887,117.941,138.932,123.664,139,129.7z"/>
<path fill="#F2EDE4" d="M81.881,84.038C81.921,84.025,81.959,84.012,82,84c-8.417,6.445-3.406,11.465-2.51,21.787
	c-0.363,0.672-1.521,0.939-3.189,1.292c-0.385,0.083-0.799,0.171-1.236,0.267c-2.951,0.661-6.991,1.816-11.023,5.354
	c-2.523,2.211-6.89,6.594-9.205,9.021c-2.335,2.453-7.53,1.361-6.76-3.125C50.18,106.326,64.32,89.573,81.881,84.038z"/>
<path fill="#DDB58A" d="M53.187,121.866l-0.513,2.124l0.449,0.486c0.787,0.854,1.258,1.785,1.482,2.938l0.245,1.259L56,130.564
	l-0.059,0.024c-0.583,0.228-1.217,0.039-1.59-0.473l-1.072-1.474l-1.18-0.063l0.03,3.475l0.726,1.704l0.129,0.062
	c0.44,0.211,0.695,0.656,0.659,1.152L53.642,135l-4.104-0.912c-0.606-0.136-1.08-0.482-1.4-1.027l-0.363-0.617
	c-0.334-0.569-0.518-1.118-0.594-1.778l-0.104-0.904c-0.166-1.44-0.069-2.7,0.314-4.096l1.36-4.959
	C49.165,119.2,53.554,120.348,53.187,121.866z"/>
<path fill="#F2EDE4" d="M105,84c17.613,5.485,31.814,22.294,33.923,34.595c0.769,4.487-4.42,5.577-6.754,3.125
	c-2.313-2.428-6.676-6.809-9.194-9.019c-7.205-6.324-14.423-5.033-15.433-6.91C108.436,95.469,113.426,90.45,105,84L105,84z"/>
<path fill="#DDB58A" d="M133.813,121.866l0.514,2.124l-0.449,0.486c-0.788,0.854-1.258,1.785-1.482,2.938l-0.246,1.259L131,130.564
	l0.059,0.024c0.582,0.228,1.219,0.039,1.59-0.473l1.072-1.474l1.18-0.063l-0.029,3.475l-0.727,1.704l-0.129,0.062
	c-0.44,0.211-0.695,0.656-0.66,1.152l0.002,0.027l4.104-0.912c0.606-0.136,1.079-0.482,1.399-1.027l0.363-0.617
	c0.334-0.569,0.518-1.118,0.594-1.778l0.104-0.904c0.166-1.44,0.069-2.7-0.314-4.096l-1.359-4.959
	C137.835,119.2,133.445,120.348,133.813,121.866z"/>
<path fill="#CD9C67" d="M99,82.366c-0.434,0.245-0.977,0.521-1.623,0.773c-0.77,0.302-2.128,0.821-3.983,0.859
	c-0.562,0.009-2.148-0.002-4.017-0.706c-0.532-0.199-0.994-0.422-1.377-0.629c0.036-0.211,0.08-0.392,0.122-0.533
	c0-0.01,0.002-0.015,0.005-0.022c0.718-0.252,1.313-0.636,1.783-1.116c0.99-1.01,1.416-2.451,1.249-3.994h4.744
	c-0.135,1.418,0.199,2.847,1.102,3.859c0.38,0.427,0.863,0.78,1.451,1.025c0.162,0.072,0.322,0.146,0.482,0.225
	c0.004,0.017,0.01,0.036,0.012,0.053C98.969,82.232,98.985,82.299,99,82.366z"/>
<path fill="#DDB58A" d="M82.242,65.469c-0.371-1.097-0.861-1.834-1.202-2.267c-0.38-0.485-0.757-0.954-1.377-1.123
	c-0.189-0.052-0.772-0.211-1.192,0.162c-0.342,0.304-0.427,0.828-0.458,1.399c-0.068,1.241,0.127,2.502,0.757,4.495
	c0.636,2.015,1.039,2.633,1.436,3.065c0.632,0.689,1.132,0.784,1.384,0.797c0.162,0.008,0.494,0.021,0.81-0.215
	c0.626-0.469,0.604-1.482,0.6-1.563C82.747,68.636,82.494,67.052,82.242,65.469z"/>
<path fill="#DDB58A" d="M105.115,71.558c0.186,0.157,0.516,0.385,0.962,0.435c0.155,0.017,0.789,0.064,1.706-0.671
	c2.029-1.629,2.158-4.458,2.21-5.589c0.024-0.524,0.022-1.397-0.569-2.113c-0.158-0.191-0.467-0.555-0.962-0.612
	c-0.401-0.046-0.721,0.131-0.94,0.257c-0.849,0.483-1.147,1.329-1.248,1.678C106.273,64.942,104.546,70.373,105.115,71.558z"/>
<path fill="#DDB58A" d="M106.473,56.412c-0.399-1.507-0.802-3.023-1.992-4.504c-3.297-4.098-9.756-4.342-13.757-3.544
	c-1.741,0.347-4.764,0.951-7.034,3.424c-2.448,2.667-2.553,5.914-2.676,9.73c-0.12,3.704,0.59,6.293,1.681,10.271
	c0.43,1.566,1.224,4.164,3.112,6.727c0.827,1.122,1.583,1.857,2.583,2.402c1.204,0.656,2.267,0.769,3.796,0.931
	c1.616,0.171,3.184,0.337,4.98-0.33c0.217-0.081,1.099-0.418,2.168-1.221c3.199-2.404,5.393-6.967,6.018-8.329
	C105.352,71.968,108.131,61.037,106.473,56.412z"/>
<path fill="#111010" d="M105.725,66.129c0.854-1.438,1.748-3.284,2.389-5.524c0.506-1.772,1.184-4.232,0.746-7.316
	c-0.273-1.929-0.574-4.05-2.34-5.375c-1.386-1.041-3-1.083-3.781-1.045c0.029-0.76-0.131-1.318-0.25-1.643
	c-0.852-2.318-3.528-2.99-3.881-3.073c-0.541-0.127-0.986-0.149-1.307-0.153c-2.527-0.034-5.054,0.937-6.855,1.833
	c0,0-3.143,1.313-6.221,3.534c-0.61,0.44-1.603,1.203-1.842,2.438c-0.076,0.396-0.056,0.738-0.025,0.97
	c-0.392,0.136-1.958,0.729-2.812,2.389c-0.316,0.615-0.464,1.243-0.523,2.314c-0.187,3.422,0.787,6.174,0.996,6.743
	c0.443,1.213,1.222,2.939,2.613,4.777c-0.249-0.934-0.463-2.281-0.149-3.807c0.142-0.69,0.285-0.898,0.945-2.688
	c0.715-1.939,1.074-2.908,1.269-3.782c0.22-0.981,0.407-2.47,0.1-4.429c1.313,0.212,2.753,0.361,4.305,0.398
	c5.264,0.125,9.643-1.089,12.716-2.289c-0.082,1.616,0.002,4.424,1.343,7.515c0.763,1.759,1.714,3.104,2.513,4.056
	C105.691,63.358,105.707,64.743,105.725,66.129z"/>
<path fill="#484443" d="M86.251,49.023c0.923-0.013,1.99-0.082,3.162-0.256c1.314-0.195,2.46-0.477,3.413-0.768
	c-0.875,0.693-1.748,1.386-2.623,2.079c0.979-0.043,2.065-0.139,3.234-0.32c1.76-0.273,3.291-0.673,4.563-1.087
	c-1.117,0.609-2.686,1.316-4.671,1.791c-3.079,0.736-5.725,0.57-7.329,0.352c1.209-0.49,2.419-0.98,3.629-1.471
	C88.503,49.237,87.377,49.13,86.251,49.023z"/>
<path fill="#484443" d="M83.682,53c0.235,0.854,0.437,2.074,0.235,3.521C83.632,58.575,82.667,60.119,82,61
	c0.351-1.306,0.679-2.67,0.976-4.091C83.256,55.564,83.49,54.259,83.682,53z"/>
<path fill="#484443" d="M81.856,56c0.127,0.619,0.247,1.618,0,2.809C81.659,59.761,81.296,60.503,81,61
	c0.05-0.733,0.137-1.527,0.276-2.371C81.434,57.671,81.637,56.792,81.856,56z"/>
<path fill="#484443" d="M104.189,52.774c-0.387,1.208-0.09,2.365,0.088,3.058c0.416,1.62,1.244,2.659,1.723,3.168
	c-0.357-0.708-0.779-1.709-1.08-2.984c-0.386-1.633-0.419-3.059-0.38-4.016C104.438,52.172,104.3,52.431,104.189,52.774z"/>
<path fill="#331D09" d="M86,64.143c0,0,0.202,1.96,2.601,1.853S91,64,91,64c-0.1,0.115-0.955,1.072-2.403,1.187
	C86.923,65.319,86.042,64.2,86,64.143z"/>
<path fill="#331D09" d="M97,64.143c0,0,0.201,1.96,2.601,1.853S102,64,102,64c-0.1,0.115-0.955,1.072-2.403,1.187
	C97.923,65.319,97.043,64.2,97,64.143z"/>
<path d="M92.628,74.303c-1.784,0.868-3.843,0.928-5.628,0.164c1.775,0.3,3.626-0.179,5.059-1.337
	C92.795,72.589,93.429,73.891,92.628,74.303z"/>
<path d="M94.941,73.129c1.434,1.159,3.283,1.637,5.059,1.337c-1.784,0.765-3.844,0.704-5.628-0.164
	C93.572,73.891,94.203,72.589,94.941,73.129z"/>
<path fill="#987957" d="M94.604,78c-0.047,0-0.096-0.009-0.144-0.027c-0.319-0.124-0.656-0.167-0.995-0.186
	c-0.318,0-0.633,0.056-0.933,0.165c-0.206,0.074-0.433-0.031-0.509-0.234c-0.074-0.205,0.031-0.431,0.236-0.505
	C92.646,77.072,93.053,77,93.464,77h0.006c0.438,0,0.867,0.081,1.278,0.239c0.204,0.08,0.304,0.307,0.225,0.51
	C94.912,77.905,94.762,78,94.604,78z"/>
<path fill="#542525" d="M96,58.138l0.152,2.083c0,0,4.91-1.228,8.848,0.78C105,61,102.164,57.243,96,58.138z"/>
<path fill="#542525" d="M92,59.113l-0.178,1.432c0,0-4.876-0.891-8.822,0.455C83,61,85.871,58.439,92,59.113z"/>
<path fill="#987957" d="M93.746,63c0.479,0.749,0.84,1.952,1.184,2.767c0.672,1.795,1.941,4.134,0.165,5.738
	c-0.863,0.659-2.286,0.676-3.095-0.043c1.486,0.644,3.307,0.297,3.6-1.376c0.365-1.474-0.523-2.828-0.955-4.225
	C94.373,65.023,93.867,63.864,93.746,63z"/>
<path fill="#652B28" d="M90,75c0,0,2.944,2.25,7,0C97,75,93.995,76.066,90,75z"/>
<path fill="#D9C9AC" d="M76.568,116c0.027-0.514,0.041-1.025,0.041-1.539c0-2.456-0.262-4.843-0.608-7.139
	C76.431,105.141,77.868,98,77.868,98C78.361,104.021,77.369,114.137,76.568,116z"/>
<path fill="#D9C9AC" d="M110.618,117c-0.027-0.532-0.074-1.35-0.074-1.882c0-2.554,0.106-5.048,0.456-7.433
	c-0.434-2.268-1.883-9.686-1.883-9.686C108.621,104.256,109.811,115.064,110.618,117z"/>
<defs>
	<filter id="Adobe_OpacityMaskFilter_1_" filterUnits="userSpaceOnUse" x="4" y="5" width="164.001" height="101">
		<feColorMatrix  type="matrix" values="1 0 0 0 0  0 1 0 0 0  0 0 1 0 0  0 0 0 1 0"/>
	</filter>
</defs>
<mask maskUnits="userSpaceOnUse" x="4" y="5" width="164.001" height="101" id="mask1_9_3812">
	<path fill="#8E97FD" filter="url(#Adobe_OpacityMaskFilter_1_)" d="M0,10C0,4.477,4.477,0,10,0h85h76.754
		c5.618,0,10.135,4.626,9.997,10.243l-5.079,209c-0.132,5.427-4.568,9.757-9.997,9.757H10c-5.523,0-10-4.477-10-10V10z"/>
</mask>
<g mask="url(#mask1_9_3812)">
	<g>
		<defs>
			<rect id="SVGID_2_" x="136" y="80" width="32" height="26"/>
		</defs>
		<clipPath id="SVGID_3_">
			<use xlink:href="#SVGID_2_"  overflow="visible"/>
		</clipPath>
		<g clip-path="url(#SVGID_3_)">
			<path fill="#3F4553" d="M155.99,105.955l11.146-3.734l-5.589-16.401l-11.146,3.736c-0.437,0.146-0.672,0.615-0.521,1.048
				l5.053,14.83C155.08,105.866,155.553,106.102,155.99,105.955z"/>
			<path fill="#DDDDE3" d="M155.998,105.632l11.423-3.829l-5.383-15.797l-11.423,3.829c-0.281,0.093-0.432,0.396-0.34,0.68
				l5.037,14.781C155.41,105.575,155.717,105.725,155.998,105.632z"/>
			<path fill="#E2E5FF" d="M156.238,105.551l11.424-3.828l-5.383-15.798l-11.424,3.829c-0.281,0.093-0.433,0.396-0.338,0.68
				l5.035,14.781C155.65,105.494,155.957,105.648,156.238,105.551z"/>
			<path fill="#4E5567" d="M156.855,105.664l11.146-3.736l-5.587-16.395l-11.146,3.735c-0.436,0.146-0.672,0.615-0.521,1.048
				l5.052,14.83C155.945,105.579,156.419,105.811,156.855,105.664z"/>
			<path fill="#3F4553" d="M161.789,85.742l-0.24,0.081l5.588,16.4l0.239-0.08L161.789,85.742z"/>
			<path fill="#93BFA8" d="M163.381,98.553l0.249-0.526l0.522,0.267l-4.082-11.976c-0.072-0.21-0.256-0.194-0.469-0.121
				c-0.211,0.073-0.371,0.17-0.297,0.38L163.381,98.553z"/>
			<path fill="#3F4553" d="M138.339,90.09l7.501-8.82l-1.516-1.268l-7.502,8.82L138.339,90.09z"/>
			<path fill="#F2EDE4" d="M136.82,88.819l1.515,1.267l-2.188,1.194c-0.072,0.041-0.17-0.044-0.146-0.122L136.82,88.819z"/>
			<path fill="#3F4553" d="M136.152,91.284l0.592-0.324l-0.516-0.433l-0.22,0.631C135.98,91.235,136.078,91.32,136.152,91.284z"/>
			<path fill="#4E5567" d="M137.836,89.67l7.501-8.82l-0.514-0.431l-7.503,8.82L137.836,89.67z"/>
		</g>
	</g>
	<g>
		<defs>
			<rect id="SVGID_4_" x="38" y="5" width="35" height="35"/>
		</defs>
		<clipPath id="SVGID_5_">
			<use xlink:href="#SVGID_4_"  overflow="visible"/>
		</clipPath>
		<g clip-path="url(#SVGID_5_)">
			<path fill="#808AFF" d="M55.503,5C45.833,5,38,12.833,38,22.503c0,9.664,7.833,17.502,17.503,17.502
				c9.664,0,17.502-7.833,17.502-17.502C73,12.833,65.167,5,55.503,5z M55.503,37.045c-8.032,0-14.542-6.511-14.542-14.542
				c0-8.032,6.51-14.542,14.542-14.542c8.032,0,14.542,6.51,14.542,14.542C70.045,30.535,63.535,37.045,55.503,37.045z"/>
			<path fill="#AEB4FC" d="M68.921,28.109c3.099-7.41-0.396-15.929-7.807-19.027c-7.41-3.099-15.929,0.396-19.027,7.807
				c-3.099,7.41,0.396,15.929,7.807,19.027C57.303,39.015,65.822,35.52,68.921,28.109z"/>
			<path fill="#808AFF" d="M55.531,9.262c-1.02,0-1.025,1.587,0,1.587S56.557,9.262,55.531,9.262z"/>
			<path fill="#808AFF" d="M68.738,22.529c0-1.02-1.587-1.025-1.587,0S68.738,23.555,68.738,22.529z"/>
			<path fill="#808AFF" d="M55.469,35.738c1.02,0,1.025-1.588,0-1.588C54.449,34.15,54.443,35.738,55.469,35.738z"/>
			<path fill="#808AFF" d="M42.262,22.47c0,1.02,1.588,1.025,1.588,0C43.85,21.45,42.262,21.444,42.262,22.47z"/>
			<path fill="#808AFF" d="M61.754,26.753c-0.094,0-0.188-0.022-0.27-0.077l-6.257-3.721c-0.16-0.094-0.259-0.27-0.259-0.458v-10
				c0-0.292,0.237-0.529,0.529-0.529c0.292,0,0.529,0.237,0.529,0.529v9.702l5.998,3.567c0.254,0.149,0.336,0.474,0.182,0.728
				C62.113,26.659,61.937,26.753,61.754,26.753z"/>
		</g>
	</g>
	<path fill="#9BA3FF" d="M20.621,58.406l-0.349-1.981l-2.025,0.345c-0.321-0.925-0.845-1.739-1.522-2.402l1.187-1.664l-1.662-1.153
		l-1.18,1.657c-0.852-0.414-1.802-0.642-2.793-0.635l-0.356-2.008L9.915,50.91l0.349,2.002c-0.936,0.317-1.76,0.835-2.43,1.505
		l-1.683-1.174l-1.166,1.643l1.676,1.167c-0.419,0.842-0.649,1.781-0.643,2.761L4,59.159l0.349,1.981l2.025-0.345
		c0.321,0.925,0.845,1.739,1.522,2.402L6.709,64.86l1.662,1.153l1.18-1.657c0.852,0.414,1.802,0.642,2.793,0.635L12.701,67
		l2.004-0.345l-0.349-2.001c0.936-0.317,1.76-0.835,2.43-1.505l1.683,1.173l1.167-1.643l-1.676-1.167
		c0.419-0.842,0.649-1.781,0.643-2.761L20.621,58.406z M12.632,60.622c-1.027,0.18-2.004-0.504-2.186-1.519s0.51-1.981,1.536-2.16
		c1.027-0.18,2.004,0.504,2.186,1.519S13.665,60.443,12.632,60.622z"/>
	<path fill="#AEB4FC" d="M39.728,54.41v-2.492h-2.549c-0.188-1.201-0.656-2.305-1.341-3.258l1.809-1.788l-1.781-1.76l-1.802,1.781
		c-0.957-0.683-2.067-1.16-3.282-1.36V43h-2.521v2.52c-1.215,0.187-2.339,0.649-3.296,1.325l-1.809-1.788l-1.781,1.76l1.802,1.781
		c-0.691,0.946-1.173,2.043-1.375,3.245h-2.563v2.492h2.549c0.188,1.201,0.657,2.306,1.341,3.258l-1.809,1.788l1.781,1.76
		l1.802-1.781c0.957,0.684,2.067,1.16,3.282,1.36v2.533h2.521v-2.52c1.215-0.186,2.333-0.649,3.296-1.325l1.809,1.788l1.781-1.76
		l-1.802-1.781c0.691-0.945,1.173-2.043,1.376-3.244H39.728L39.728,54.41z M29.483,55.445c-1.292,0-2.346-1.036-2.346-2.319
		c0-1.277,1.047-2.319,2.346-2.319c1.292,0,2.347,1.036,2.347,2.319C31.822,54.403,30.775,55.445,29.483,55.445z"/>
	<g opacity="0.3">
		<path fill="#ECECEC" d="M157.995,35.897l-18.729-4.209c-0.184-0.04-0.3-0.223-0.257-0.407l2.358-10.5
			c0.04-0.183,0.224-0.3,0.406-0.257l18.729,4.213c0.185,0.04,0.3,0.224,0.257,0.407l-2.361,10.5
			C158.357,35.824,158.178,35.94,157.995,35.897z"/>
		<path fill="#F5F4F5" d="M139.318,31.441c-0.049-0.01-0.08-0.06-0.065-0.107l2.36-10.5c0.011-0.05,0.061-0.08,0.107-0.067
			l18.729,4.213c0.05,0.01,0.079,0.06,0.067,0.106l-2.363,10.5c-0.01,0.05-0.059,0.08-0.106,0.066L139.318,31.441z"/>
		<path fill="#706F6E" d="M157.867,24.141l-13.453-3.025l-0.055,0.244l13.453,3.025L157.867,24.141z"/>
		<path fill="#585857" d="M143.105,22.625l-0.621-0.14c-0.076-0.017-0.127-0.093-0.109-0.173l0.098-0.437
			c0.016-0.077,0.092-0.126,0.172-0.11l0.621,0.14c0.076,0.017,0.127,0.094,0.109,0.174l-0.096,0.437
			C143.259,22.592,143.182,22.642,143.105,22.625z"/>
		<path fill="#5E5E5D" d="M142.512,22.361c-0.011-0.003-0.017-0.013-0.014-0.023l0.098-0.437c0.002-0.01,0.012-0.017,0.022-0.014
			l0.62,0.14c0.01,0.003,0.017,0.014,0.014,0.023l-0.098,0.437c-0.002,0.01-0.012,0.017-0.022,0.013L142.512,22.361z"/>
		<path fill="#585857" d="M144.242,22.879l-0.62-0.14c-0.077-0.017-0.127-0.094-0.11-0.174l0.098-0.437
			c0.016-0.076,0.093-0.126,0.173-0.11l0.62,0.14c0.076,0.017,0.127,0.093,0.111,0.173l-0.098,0.437
			C144.396,22.849,144.318,22.896,144.242,22.879z"/>
		<path fill="#5E5E5D" d="M143.648,22.618c-0.01-0.003-0.017-0.013-0.014-0.023l0.098-0.437c0.002-0.01,0.013-0.017,0.022-0.014
			l0.621,0.14c0.011,0.003,0.017,0.013,0.013,0.023l-0.097,0.437c-0.003,0.01-0.013,0.017-0.022,0.013L143.648,22.618z"/>
		<path fill="#585857" d="M145.38,23.135l-0.621-0.14c-0.075-0.017-0.126-0.093-0.11-0.173l0.098-0.437
			c0.018-0.077,0.093-0.127,0.173-0.11l0.621,0.14c0.077,0.017,0.127,0.093,0.11,0.173l-0.098,0.437
			C145.533,23.102,145.456,23.152,145.38,23.135z"/>
		<path fill="#5E5E5D" d="M144.786,22.872c-0.011-0.003-0.017-0.013-0.013-0.023l0.097-0.438c0.003-0.01,0.013-0.017,0.022-0.013
			l0.621,0.14c0.01,0.003,0.016,0.014,0.014,0.023l-0.098,0.437c-0.003,0.01-0.013,0.017-0.022,0.013L144.786,22.872z"/>
		<path fill="#585857" d="M146.518,23.389l-0.621-0.14c-0.076-0.017-0.127-0.093-0.109-0.173l0.097-0.437
			c0.017-0.077,0.093-0.127,0.173-0.11l0.62,0.14c0.077,0.017,0.128,0.094,0.111,0.174l-0.097,0.437
			C146.671,23.359,146.594,23.409,146.518,23.389z"/>
		<path fill="#5E5E5D" d="M145.924,23.128c-0.01-0.003-0.017-0.013-0.013-0.023l0.096-0.437c0.005-0.01,0.015-0.017,0.024-0.014
			l0.619,0.14c0.011,0.003,0.018,0.014,0.014,0.023l-0.096,0.437c-0.004,0.01-0.014,0.017-0.024,0.013L145.924,23.128z"/>
		<path fill="#585857" d="M147.65,23.646l-0.619-0.14c-0.077-0.017-0.127-0.093-0.11-0.173l0.097-0.437
			c0.017-0.077,0.094-0.126,0.174-0.11l0.619,0.14c0.078,0.017,0.127,0.094,0.11,0.174l-0.096,0.437
			C147.809,23.615,147.73,23.662,147.65,23.646z"/>
		<path fill="#5E5E5D" d="M147.061,23.385c-0.01-0.003-0.017-0.013-0.013-0.023l0.097-0.437c0.004-0.01,0.014-0.017,0.023-0.014
			l0.62,0.14c0.01,0.003,0.017,0.014,0.014,0.023l-0.097,0.437c-0.003,0.01-0.014,0.017-0.023,0.013L147.061,23.385z"/>
		<path fill="#585857" d="M148.789,23.902l-0.621-0.14c-0.076-0.017-0.126-0.093-0.109-0.173l0.096-0.437
			c0.018-0.077,0.095-0.127,0.175-0.11l0.62,0.14c0.076,0.017,0.127,0.094,0.109,0.174l-0.097,0.437
			C148.945,23.869,148.869,23.919,148.789,23.902z"/>
		<path fill="#5E5E5D" d="M148.198,23.639c-0.011-0.003-0.017-0.013-0.013-0.023l0.097-0.437c0.003-0.01,0.013-0.017,0.022-0.014
			l0.62,0.14c0.011,0.003,0.017,0.013,0.015,0.023l-0.098,0.437c-0.003,0.01-0.013,0.017-0.023,0.013L148.198,23.639z"/>
		<path fill="#585857" d="M149.927,24.156l-0.62-0.141c-0.078-0.017-0.127-0.093-0.111-0.173l0.098-0.438
			c0.016-0.077,0.094-0.126,0.173-0.11l0.621,0.14c0.076,0.017,0.126,0.093,0.11,0.173l-0.098,0.437
			C150.083,24.126,150.003,24.176,149.927,24.156z"/>
		<path fill="#5E5E5D" d="M149.336,23.896c-0.01-0.003-0.018-0.013-0.013-0.023l0.096-0.437c0.004-0.01,0.015-0.017,0.024-0.013
			l0.619,0.14c0.011,0.003,0.018,0.013,0.014,0.023l-0.096,0.437c-0.004,0.01-0.015,0.017-0.024,0.014L149.336,23.896z"/>
		<path fill="#585857" d="M151.064,24.413l-0.621-0.14c-0.076-0.017-0.127-0.094-0.11-0.174l0.097-0.437
			c0.018-0.077,0.094-0.127,0.174-0.11l0.621,0.14c0.076,0.017,0.127,0.093,0.109,0.173l-0.098,0.437
			C151.217,24.383,151.141,24.43,151.064,24.413z"/>
		<path fill="#5E5E5D" d="M150.473,24.152c-0.01-0.003-0.016-0.013-0.013-0.023l0.097-0.437c0.004-0.01,0.014-0.017,0.023-0.014
			l0.62,0.14c0.01,0.003,0.017,0.013,0.014,0.023l-0.097,0.437c-0.004,0.01-0.014,0.017-0.023,0.013L150.473,24.152z"/>
		<path fill="#585857" d="M152.201,24.67l-0.62-0.14c-0.077-0.017-0.127-0.094-0.11-0.174l0.098-0.437
			c0.016-0.076,0.093-0.126,0.173-0.11l0.62,0.14c0.076,0.017,0.127,0.093,0.111,0.173l-0.098,0.437
			C152.355,24.636,152.277,24.687,152.201,24.67z"/>
		<path fill="#5E5E5D" d="M151.607,24.406c-0.01-0.003-0.017-0.014-0.014-0.023l0.098-0.437c0.002-0.01,0.013-0.017,0.022-0.013
			l0.621,0.14c0.011,0.003,0.017,0.013,0.013,0.023l-0.097,0.437c-0.003,0.01-0.013,0.017-0.022,0.014L151.607,24.406z"/>
		<path fill="#585857" d="M153.339,24.923l-0.621-0.14c-0.075-0.017-0.126-0.094-0.11-0.174l0.098-0.437
			c0.018-0.077,0.093-0.127,0.173-0.11l0.621,0.14c0.076,0.017,0.127,0.093,0.11,0.173l-0.098,0.437
			C153.492,24.893,153.415,24.943,153.339,24.923z"/>
		<path fill="#5E5E5D" d="M152.745,24.663c-0.011-0.003-0.017-0.014-0.015-0.023l0.098-0.437c0.003-0.01,0.013-0.017,0.023-0.013
			l0.621,0.14c0.01,0.003,0.016,0.013,0.012,0.023l-0.096,0.437c-0.004,0.01-0.014,0.017-0.023,0.014L152.745,24.663z"/>
		<path fill="#585857" d="M154.477,25.18l-0.621-0.14c-0.076-0.017-0.127-0.094-0.11-0.174l0.097-0.437
			c0.018-0.077,0.094-0.126,0.174-0.11l0.621,0.14c0.076,0.017,0.127,0.093,0.109,0.173l-0.098,0.437
			C154.629,25.15,154.553,25.197,154.477,25.18z"/>
		<path fill="#5E5E5D" d="M153.882,24.92c-0.01-0.003-0.017-0.014-0.013-0.023l0.096-0.437c0.004-0.01,0.014-0.017,0.023-0.013
			l0.621,0.14c0.01,0.003,0.017,0.013,0.013,0.023l-0.097,0.438c-0.004,0.01-0.014,0.017-0.023,0.013L153.882,24.92z"/>
		<path fill="#585857" d="M155.613,25.437l-0.62-0.14c-0.077-0.017-0.127-0.094-0.11-0.174l0.096-0.437
			c0.018-0.077,0.095-0.127,0.174-0.11l0.621,0.14c0.076,0.017,0.127,0.093,0.109,0.173l-0.096,0.437
			C155.768,25.403,155.689,25.454,155.613,25.437z"/>
		<path fill="#5E5E5D" d="M155.02,25.173c-0.01-0.003-0.017-0.013-0.014-0.023l0.098-0.437c0.002-0.01,0.013-0.017,0.022-0.013
			l0.621,0.14c0.01,0.003,0.017,0.013,0.013,0.023l-0.097,0.437c-0.003,0.01-0.013,0.017-0.022,0.014L155.02,25.173z"/>
		<path fill="#585857" d="M156.751,25.69l-0.621-0.14c-0.075-0.017-0.126-0.094-0.11-0.173l0.098-0.438
			c0.017-0.077,0.093-0.126,0.173-0.11l0.621,0.14c0.077,0.017,0.127,0.093,0.11,0.173l-0.098,0.437
			C156.904,25.66,156.827,25.71,156.751,25.69z"/>
		<path fill="#5E5E5D" d="M156.157,25.43c-0.011-0.003-0.017-0.014-0.015-0.023l0.098-0.437c0.004-0.01,0.014-0.017,0.023-0.013
			l0.62,0.14c0.011,0.003,0.017,0.013,0.013,0.023l-0.096,0.437c-0.004,0.01-0.014,0.017-0.023,0.014L156.157,25.43z"/>
		<path fill="#585857" d="M157.889,25.947l-0.621-0.141c-0.076-0.017-0.127-0.093-0.109-0.173l0.096-0.437
			c0.018-0.077,0.094-0.126,0.174-0.11l0.62,0.14c0.077,0.017,0.127,0.093,0.11,0.173l-0.098,0.437
			C158.041,25.917,157.965,25.964,157.889,25.947z"/>
		<path fill="#5E5E5D" d="M157.294,25.687c-0.01-0.003-0.017-0.013-0.013-0.023l0.097-0.437c0.003-0.01,0.013-0.017,0.022-0.014
			l0.621,0.14c0.011,0.003,0.017,0.013,0.014,0.023l-0.098,0.437c-0.002,0.01-0.013,0.017-0.022,0.013L157.294,25.687z"/>
		<path fill="#585857" d="M159.021,26.204l-0.619-0.14c-0.077-0.017-0.127-0.094-0.11-0.174l0.097-0.437
			c0.016-0.076,0.094-0.126,0.174-0.11l0.619,0.14c0.077,0.017,0.127,0.093,0.11,0.173l-0.097,0.437
			C159.18,26.17,159.102,26.221,159.021,26.204z"/>
		<path fill="#5E5E5D" d="M158.432,25.94c-0.01-0.003-0.017-0.013-0.014-0.023l0.098-0.437c0.002-0.01,0.012-0.017,0.022-0.014
			l0.621,0.14c0.01,0.003,0.017,0.014,0.013,0.023l-0.097,0.437c-0.003,0.01-0.013,0.017-0.023,0.013L158.432,25.94z"/>
		<path fill="#585857" d="M142.471,22.635l0.768,0.173c0.087,0.02,0.144,0.106,0.123,0.197l-0.17,0.754
			c-0.021,0.086-0.106,0.143-0.196,0.124l-0.767-0.174c-0.088-0.02-0.145-0.106-0.125-0.197l0.17-0.754
			C142.294,22.672,142.381,22.615,142.471,22.635z"/>
		<path fill="#5E5E5D" d="M142.258,23.585c-0.02-0.003-0.033-0.027-0.029-0.046l0.17-0.754c0.002-0.021,0.026-0.034,0.047-0.03
			l0.767,0.173c0.021,0.003,0.033,0.027,0.03,0.047l-0.17,0.754c-0.004,0.02-0.027,0.033-0.047,0.03L142.258,23.585z"/>
		<path fill="#585857" d="M143.782,22.932l0.767,0.173c0.088,0.02,0.145,0.107,0.124,0.197l-0.17,0.754
			c-0.021,0.087-0.106,0.144-0.196,0.124l-0.768-0.173c-0.087-0.02-0.145-0.107-0.124-0.197l0.17-0.754
			C143.605,22.965,143.691,22.912,143.782,22.932z"/>
		<path fill="#5E5E5D" d="M143.568,23.882c-0.02-0.003-0.033-0.027-0.029-0.047l0.17-0.753c0.003-0.02,0.025-0.034,0.046-0.03
			l0.769,0.173c0.02,0.003,0.033,0.027,0.029,0.047l-0.171,0.754c-0.003,0.02-0.026,0.033-0.046,0.03L143.568,23.882z"/>
		<path fill="#585857" d="M145.093,23.226l0.767,0.173c0.088,0.02,0.145,0.107,0.125,0.197l-0.17,0.754
			c-0.021,0.087-0.107,0.144-0.197,0.123l-0.768-0.173c-0.086-0.02-0.144-0.106-0.123-0.197l0.17-0.754
			C144.916,23.262,145.006,23.206,145.093,23.226z"/>
		<path fill="#5E5E5D" d="M144.88,24.176c-0.021-0.003-0.034-0.027-0.03-0.047l0.17-0.753c0.004-0.02,0.026-0.034,0.047-0.03
			l0.768,0.173c0.02,0.003,0.033,0.027,0.029,0.047l-0.17,0.754c-0.004,0.02-0.026,0.033-0.047,0.03L144.88,24.176z"/>
		<path fill="#585857" d="M146.404,23.519l0.767,0.173c0.087,0.02,0.144,0.106,0.124,0.197l-0.17,0.754
			c-0.02,0.086-0.107,0.143-0.197,0.124l-0.767-0.174c-0.087-0.02-0.144-0.106-0.124-0.197l0.17-0.754
			C146.227,23.556,146.316,23.499,146.404,23.519z"/>
		<path fill="#5E5E5D" d="M146.191,24.473c-0.021-0.003-0.034-0.027-0.03-0.047l0.17-0.754c0.003-0.02,0.026-0.033,0.046-0.03
			l0.768,0.173c0.021,0.003,0.033,0.027,0.03,0.047l-0.17,0.754c-0.004,0.02-0.026,0.033-0.047,0.03L146.191,24.473z"/>
		<path fill="#585857" d="M147.715,23.816l0.768,0.173c0.086,0.02,0.143,0.107,0.123,0.197l-0.17,0.754
			c-0.021,0.087-0.107,0.144-0.197,0.124l-0.768-0.173c-0.087-0.02-0.143-0.107-0.123-0.197l0.17-0.754
			C147.541,23.849,147.628,23.796,147.715,23.816z"/>
		<path fill="#5E5E5D" d="M147.501,24.767c-0.021-0.003-0.033-0.027-0.03-0.047l0.17-0.754c0.004-0.02,0.027-0.033,0.047-0.03
			l0.768,0.174c0.02,0.003,0.033,0.026,0.029,0.047l-0.17,0.753c-0.002,0.02-0.026,0.034-0.047,0.03L147.501,24.767z"/>
		<path fill="#585857" d="M149.025,24.109l0.768,0.173c0.087,0.02,0.143,0.107,0.123,0.197l-0.17,0.754
			c-0.02,0.087-0.107,0.144-0.197,0.124l-0.767-0.173c-0.087-0.02-0.144-0.107-0.123-0.197l0.17-0.754
			C148.852,24.146,148.939,24.089,149.025,24.109z"/>
		<path fill="#5E5E5D" d="M148.813,25.06c-0.021-0.003-0.035-0.027-0.03-0.046l0.17-0.754c0.003-0.021,0.026-0.034,0.047-0.03
			l0.767,0.173c0.021,0.003,0.033,0.027,0.03,0.047l-0.17,0.754c-0.004,0.02-0.026,0.033-0.047,0.03L148.813,25.06z"/>
		<path fill="#585857" d="M150.337,24.406l0.767,0.173c0.088,0.02,0.144,0.106,0.123,0.197l-0.17,0.754
			c-0.02,0.086-0.106,0.143-0.197,0.123l-0.767-0.173c-0.086-0.02-0.143-0.107-0.122-0.197l0.17-0.754
			C150.163,24.439,150.25,24.386,150.337,24.406z"/>
		<path fill="#5E5E5D" d="M150.123,25.356c-0.02-0.003-0.034-0.026-0.03-0.046l0.171-0.754c0.002-0.02,0.026-0.033,0.047-0.03
			l0.767,0.173c0.021,0.003,0.032,0.027,0.03,0.046l-0.17,0.754c-0.004,0.02-0.027,0.034-0.047,0.03L150.123,25.356z"/>
		<path fill="#585857" d="M151.65,24.7l0.768,0.173c0.087,0.021,0.143,0.107,0.123,0.197l-0.17,0.753
			c-0.02,0.087-0.107,0.144-0.197,0.124l-0.767-0.173c-0.087-0.02-0.144-0.107-0.123-0.197l0.17-0.754
			C151.475,24.736,151.561,24.68,151.65,24.7z"/>
		<path fill="#5E5E5D" d="M151.434,25.65c-0.02-0.003-0.033-0.027-0.029-0.047l0.17-0.753c0.003-0.02,0.027-0.034,0.047-0.03
			l0.768,0.173c0.02,0.003,0.032,0.027,0.029,0.047l-0.17,0.754c-0.004,0.02-0.027,0.033-0.047,0.03L151.434,25.65z"/>
		<path fill="#585857" d="M152.961,24.993l0.768,0.173c0.086,0.02,0.144,0.107,0.123,0.197l-0.17,0.754
			c-0.02,0.086-0.106,0.144-0.197,0.123l-0.767-0.173c-0.087-0.02-0.144-0.106-0.124-0.197l0.17-0.753
			C152.784,25.03,152.871,24.973,152.961,24.993z"/>
		<path fill="#5E5E5D" d="M152.748,25.947c-0.02-0.003-0.033-0.027-0.03-0.047l0.171-0.754c0.004-0.02,0.026-0.033,0.047-0.03
			l0.767,0.173c0.021,0.003,0.034,0.026,0.03,0.046l-0.17,0.754c-0.004,0.02-0.027,0.034-0.047,0.03L152.748,25.947z"/>
		<path fill="#585857" d="M154.271,25.29l0.768,0.173c0.087,0.02,0.145,0.107,0.124,0.197l-0.17,0.754
			c-0.021,0.087-0.106,0.144-0.197,0.124l-0.767-0.173c-0.088-0.02-0.145-0.107-0.125-0.197l0.172-0.754
			C154.096,25.323,154.182,25.27,154.271,25.29z"/>
		<path fill="#5E5E5D" d="M154.059,26.241c-0.02-0.003-0.033-0.027-0.029-0.047l0.17-0.753c0.003-0.02,0.027-0.034,0.047-0.03
			l0.768,0.173c0.02,0.003,0.032,0.027,0.029,0.047l-0.17,0.754c-0.004,0.02-0.027,0.033-0.047,0.03L154.059,26.241z"/>
		<path fill="#585857" d="M155.583,25.583l0.769,0.173c0.086,0.021,0.143,0.107,0.123,0.197l-0.17,0.753
			c-0.021,0.087-0.107,0.144-0.197,0.124l-0.765-0.173c-0.086-0.02-0.143-0.107-0.122-0.197l0.17-0.754
			C155.407,25.62,155.493,25.563,155.583,25.583z"/>
		<path fill="#5E5E5D" d="M155.37,26.534c-0.021-0.003-0.033-0.026-0.03-0.046l0.17-0.754c0.004-0.02,0.027-0.033,0.047-0.03
			l0.768,0.173c0.02,0.003,0.033,0.026,0.029,0.046l-0.174,0.754c-0.003,0.02-0.025,0.033-0.046,0.03L155.37,26.534z"/>
		<path fill="#585857" d="M156.895,25.881l0.767,0.173c0.087,0.02,0.144,0.106,0.123,0.197l-0.171,0.754
			c-0.02,0.086-0.105,0.144-0.195,0.123l-0.768-0.173c-0.086-0.02-0.144-0.106-0.123-0.197l0.17-0.754
			C156.717,25.914,156.807,25.86,156.895,25.881z"/>
		<path fill="#5E5E5D" d="M156.682,26.831c-0.021-0.003-0.033-0.026-0.031-0.046l0.17-0.754c0.004-0.02,0.027-0.033,0.048-0.03
			l0.767,0.173c0.02,0.003,0.033,0.027,0.03,0.046l-0.17,0.754c-0.004,0.02-0.027,0.034-0.047,0.03L156.682,26.831z"/>
		<path fill="#585857" d="M158.205,26.174l0.768,0.174c0.086,0.02,0.144,0.106,0.123,0.196l-0.171,0.754
			c-0.021,0.087-0.106,0.144-0.196,0.124l-0.768-0.173c-0.086-0.02-0.143-0.107-0.123-0.197l0.174-0.754
			C158.027,26.21,158.118,26.154,158.205,26.174z"/>
		<path fill="#5E5E5D" d="M157.991,27.125c-0.021-0.003-0.033-0.027-0.03-0.047l0.171-0.754c0.003-0.02,0.026-0.033,0.046-0.03
			l0.768,0.174c0.02,0.003,0.033,0.026,0.029,0.047l-0.17,0.753c-0.003,0.02-0.025,0.034-0.046,0.03L157.991,27.125z"/>
		<path fill="#585857" d="M142.193,23.856l0.768,0.173c0.087,0.02,0.145,0.106,0.124,0.197l-0.17,0.754
			c-0.021,0.086-0.106,0.143-0.197,0.124l-0.767-0.174c-0.088-0.02-0.145-0.106-0.124-0.197l0.174-0.754
			C142.021,23.893,142.107,23.836,142.193,23.856z"/>
		<path fill="#5E5E5D" d="M141.98,24.807c-0.02-0.003-0.033-0.027-0.029-0.047l0.17-0.754c0.003-0.02,0.027-0.033,0.047-0.03
			l0.768,0.173c0.02,0.003,0.032,0.026,0.029,0.046l-0.17,0.754c-0.004,0.02-0.027,0.034-0.047,0.03L141.98,24.807z"/>
		<path fill="#585857" d="M143.509,24.152l0.767,0.174c0.088,0.02,0.144,0.106,0.123,0.197l-0.17,0.754
			c-0.02,0.086-0.106,0.143-0.196,0.123l-0.767-0.173c-0.088-0.02-0.144-0.106-0.123-0.197l0.17-0.754
			C143.332,24.186,143.419,24.133,143.509,24.152z"/>
		<path fill="#5E5E5D" d="M143.292,25.104c-0.021-0.003-0.034-0.027-0.03-0.047l0.17-0.754c0.004-0.02,0.027-0.033,0.047-0.03
			l0.768,0.174c0.02,0.003,0.033,0.026,0.029,0.047l-0.17,0.753c-0.004,0.02-0.026,0.034-0.047,0.03L143.292,25.104z"/>
		<path fill="#585857" d="M144.82,24.446l0.767,0.173c0.087,0.02,0.144,0.107,0.123,0.197l-0.17,0.754
			c-0.021,0.087-0.106,0.144-0.197,0.124l-0.767-0.174c-0.088-0.02-0.143-0.106-0.123-0.197l0.17-0.754
			C144.643,24.483,144.73,24.426,144.82,24.446z"/>
		<path fill="#5E5E5D" d="M144.605,25.396c-0.02-0.003-0.032-0.026-0.029-0.046l0.17-0.754c0.004-0.02,0.027-0.033,0.047-0.03
			l0.768,0.173c0.02,0.003,0.033,0.026,0.029,0.046l-0.17,0.754c-0.003,0.02-0.027,0.033-0.047,0.03L144.605,25.396z"/>
		<path fill="#585857" d="M146.13,24.74l0.767,0.173c0.088,0.02,0.145,0.106,0.125,0.197l-0.17,0.754
			c-0.021,0.086-0.107,0.143-0.197,0.124l-0.768-0.174c-0.087-0.02-0.144-0.106-0.123-0.197l0.17-0.754
			C145.953,24.776,146.04,24.72,146.13,24.74z"/>
		<path fill="#5E5E5D" d="M145.917,25.69c-0.021-0.003-0.034-0.027-0.03-0.047l0.17-0.754c0.004-0.02,0.027-0.033,0.047-0.03
			l0.768,0.173c0.02,0.003,0.033,0.027,0.029,0.047l-0.17,0.754c-0.004,0.02-0.026,0.033-0.047,0.03L145.917,25.69z"/>
		<path fill="#585857" d="M147.441,25.037l0.768,0.173c0.087,0.02,0.143,0.107,0.123,0.197l-0.17,0.754
			c-0.02,0.087-0.107,0.144-0.197,0.124l-0.767-0.173c-0.087-0.02-0.144-0.107-0.123-0.197l0.17-0.754
			C147.266,25.07,147.355,25.017,147.441,25.037z"/>
		<path fill="#5E5E5D" d="M147.229,25.987c-0.021-0.003-0.035-0.027-0.03-0.047l0.17-0.753c0.003-0.02,0.026-0.034,0.047-0.03
			l0.767,0.173c0.021,0.003,0.033,0.027,0.03,0.047l-0.17,0.754c-0.004,0.02-0.026,0.033-0.047,0.03L147.229,25.987z"/>
		<path fill="#585857" d="M148.752,25.33l0.768,0.173c0.086,0.02,0.144,0.107,0.123,0.197l-0.17,0.754
			c-0.02,0.087-0.106,0.144-0.197,0.123l-0.767-0.173c-0.087-0.02-0.144-0.106-0.124-0.197l0.17-0.754
			C148.575,25.367,148.666,25.31,148.752,25.33z"/>
		<path fill="#5E5E5D" d="M148.539,26.281c-0.02-0.003-0.034-0.027-0.03-0.046l0.171-0.754c0.002-0.021,0.026-0.034,0.047-0.03
			l0.767,0.173c0.021,0.003,0.032,0.027,0.03,0.047l-0.17,0.754c-0.004,0.02-0.027,0.033-0.047,0.03L148.539,26.281z"/>
		<path fill="#585857" d="M150.063,25.627l0.768,0.173c0.087,0.02,0.143,0.107,0.123,0.197l-0.17,0.754
			c-0.02,0.087-0.106,0.144-0.196,0.124l-0.769-0.173c-0.086-0.02-0.143-0.107-0.123-0.197l0.171-0.754
			C149.889,25.66,149.977,25.607,150.063,25.627z"/>
		<path fill="#5E5E5D" d="M149.85,26.578c-0.021-0.003-0.033-0.027-0.031-0.047l0.17-0.753c0.005-0.021,0.027-0.034,0.048-0.03
			l0.767,0.173c0.021,0.003,0.034,0.027,0.03,0.047l-0.17,0.754c-0.003,0.02-0.026,0.033-0.046,0.03L149.85,26.578z"/>
		<path fill="#585857" d="M151.374,25.92l0.767,0.173c0.088,0.02,0.144,0.107,0.123,0.197l-0.17,0.754
			c-0.02,0.086-0.105,0.144-0.195,0.124l-0.769-0.174c-0.086-0.02-0.144-0.106-0.123-0.197l0.17-0.753
			C151.2,25.957,151.287,25.9,151.374,25.92z"/>
		<path fill="#5E5E5D" d="M151.16,26.871c-0.02-0.003-0.033-0.027-0.03-0.047l0.17-0.753c0.003-0.02,0.027-0.034,0.048-0.03
			l0.766,0.173c0.021,0.003,0.033,0.027,0.031,0.047l-0.17,0.754c-0.004,0.02-0.027,0.033-0.048,0.03L151.16,26.871z"/>
		<path fill="#585857" d="M152.686,26.214l0.767,0.173c0.087,0.02,0.144,0.107,0.123,0.197l-0.171,0.754
			c-0.02,0.087-0.105,0.144-0.195,0.124l-0.768-0.173c-0.086-0.02-0.144-0.107-0.123-0.197l0.17-0.754
			C152.512,26.25,152.598,26.194,152.686,26.214z"/>
		<path fill="#5E5E5D" d="M152.471,27.165c-0.02-0.003-0.033-0.027-0.029-0.046l0.17-0.754c0.002-0.021,0.027-0.034,0.047-0.03
			l0.767,0.173c0.021,0.003,0.033,0.027,0.03,0.047l-0.17,0.754c-0.004,0.02-0.027,0.033-0.047,0.03L152.471,27.165z"/>
		<path fill="#585857" d="M153.995,26.511l0.769,0.173c0.086,0.02,0.143,0.107,0.123,0.197l-0.171,0.754
			c-0.021,0.087-0.106,0.144-0.196,0.124l-0.768-0.173c-0.087-0.02-0.143-0.107-0.123-0.197l0.17-0.754
			C153.822,26.544,153.909,26.491,153.995,26.511z"/>
		<path fill="#5E5E5D" d="M153.782,27.461c-0.021-0.003-0.033-0.027-0.03-0.047l0.17-0.753c0.003-0.021,0.027-0.034,0.047-0.03
			l0.768,0.173c0.02,0.003,0.033,0.027,0.029,0.047l-0.17,0.754c-0.003,0.02-0.027,0.033-0.047,0.03L153.782,27.461z"/>
		<path fill="#585857" d="M155.309,26.805l0.769,0.173c0.086,0.02,0.144,0.107,0.123,0.197l-0.171,0.754
			c-0.02,0.087-0.106,0.144-0.196,0.123l-0.767-0.173c-0.088-0.02-0.145-0.106-0.123-0.197l0.17-0.754
			C155.133,26.841,155.219,26.785,155.309,26.805z"/>
		<path fill="#5E5E5D" d="M155.093,27.755c-0.02-0.003-0.034-0.026-0.03-0.046l0.17-0.754c0.004-0.02,0.026-0.033,0.047-0.03
			l0.768,0.173c0.02,0.003,0.033,0.026,0.03,0.046l-0.171,0.754c-0.004,0.02-0.026,0.033-0.047,0.03L155.093,27.755z"/>
		<path fill="#585857" d="M156.62,27.102l0.769,0.173c0.086,0.02,0.143,0.106,0.123,0.197l-0.171,0.754
			c-0.021,0.086-0.106,0.144-0.196,0.123l-0.768-0.173c-0.087-0.02-0.143-0.106-0.123-0.197l0.17-0.754
			C156.443,27.135,156.529,27.081,156.62,27.102z"/>
		<path fill="#5E5E5D" d="M156.407,28.052c-0.021-0.003-0.033-0.026-0.03-0.046l0.171-0.754c0.003-0.02,0.026-0.033,0.046-0.03
			l0.768,0.173c0.02,0.003,0.033,0.027,0.029,0.046l-0.17,0.754c-0.003,0.02-0.025,0.034-0.046,0.03L156.407,28.052z"/>
		<path fill="#585857" d="M157.932,27.395l0.768,0.173c0.086,0.02,0.143,0.107,0.123,0.197l-0.17,0.754
			c-0.021,0.086-0.107,0.144-0.197,0.124l-0.768-0.174c-0.086-0.02-0.143-0.106-0.123-0.197l0.17-0.753
			C157.755,27.432,157.841,27.375,157.932,27.395z"/>
		<path fill="#5E5E5D" d="M157.718,28.346c-0.02-0.003-0.032-0.027-0.03-0.047l0.17-0.754c0.004-0.02,0.027-0.033,0.047-0.03
			l0.768,0.174c0.02,0.003,0.033,0.026,0.03,0.047l-0.17,0.753c-0.003,0.02-0.027,0.034-0.048,0.03L157.718,28.346z"/>
		<path fill="#585857" d="M141.921,25.077l0.767,0.173c0.088,0.02,0.145,0.106,0.125,0.197l-0.17,0.754
			c-0.021,0.086-0.107,0.143-0.197,0.124l-0.768-0.174c-0.087-0.02-0.144-0.106-0.123-0.197l0.17-0.754
			C141.748,25.113,141.835,25.057,141.921,25.077z"/>
		<path fill="#5E5E5D" d="M141.707,26.027c-0.02-0.003-0.033-0.027-0.03-0.047l0.171-0.754c0.004-0.02,0.026-0.033,0.047-0.03
			l0.767,0.173c0.021,0.003,0.034,0.026,0.03,0.046l-0.17,0.754c-0.004,0.02-0.027,0.034-0.047,0.03L141.707,26.027z"/>
		<path fill="#585857" d="M143.232,25.37l0.767,0.173c0.087,0.02,0.144,0.107,0.123,0.197l-0.17,0.754
			c-0.021,0.087-0.106,0.144-0.197,0.124l-0.767-0.174c-0.086-0.02-0.143-0.106-0.123-0.197l0.17-0.754
			C143.059,25.407,143.145,25.354,143.232,25.37z"/>
		<path fill="#5E5E5D" d="M143.018,26.324c-0.02-0.003-0.033-0.027-0.029-0.047l0.17-0.754c0.004-0.02,0.027-0.033,0.047-0.03
			l0.768,0.173c0.02,0.003,0.033,0.027,0.029,0.047l-0.17,0.754c-0.003,0.02-0.025,0.033-0.047,0.03L143.018,26.324z"/>
		<path fill="#585857" d="M144.542,25.667l0.767,0.173c0.088,0.02,0.145,0.107,0.125,0.197l-0.17,0.754
			c-0.021,0.087-0.107,0.144-0.197,0.124l-0.768-0.174c-0.087-0.02-0.145-0.106-0.124-0.197l0.171-0.754
			C144.369,25.704,144.456,25.647,144.542,25.667z"/>
		<path fill="#5E5E5D" d="M144.329,26.617c-0.021-0.003-0.033-0.026-0.03-0.046l0.17-0.754c0.004-0.02,0.027-0.033,0.047-0.03
			l0.768,0.173c0.02,0.003,0.033,0.026,0.029,0.046l-0.17,0.754c-0.002,0.02-0.025,0.033-0.045,0.03L144.329,26.617z"/>
		<path fill="#585857" d="M145.857,25.96l0.767,0.173c0.087,0.02,0.144,0.107,0.124,0.197l-0.17,0.753
			c-0.02,0.087-0.107,0.144-0.197,0.124l-0.768-0.173c-0.086-0.02-0.143-0.107-0.123-0.197l0.17-0.754
			C145.68,25.997,145.768,25.94,145.857,25.96z"/>
		<path fill="#5E5E5D" d="M145.641,26.911c-0.021-0.003-0.033-0.026-0.031-0.047l0.17-0.754c0.005-0.02,0.027-0.033,0.048-0.03
			l0.767,0.173c0.02,0.003,0.034,0.027,0.03,0.047l-0.17,0.754c-0.003,0.02-0.026,0.033-0.046,0.03L145.641,26.911z"/>
		<path fill="#585857" d="M147.168,26.258l0.768,0.173c0.086,0.02,0.143,0.106,0.123,0.197l-0.17,0.754
			c-0.021,0.086-0.106,0.143-0.197,0.123l-0.768-0.173c-0.086-0.02-0.143-0.106-0.123-0.197l0.17-0.754
			C146.991,26.291,147.078,26.238,147.168,26.258z"/>
		<path fill="#5E5E5D" d="M146.954,27.208c-0.021-0.003-0.033-0.027-0.03-0.047l0.17-0.754c0.004-0.02,0.027-0.033,0.047-0.03
			l0.768,0.173c0.02,0.003,0.033,0.027,0.029,0.047l-0.17,0.754c-0.002,0.02-0.025,0.033-0.045,0.03L146.954,27.208z"/>
		<path fill="#585857" d="M148.479,26.551l0.768,0.173c0.087,0.02,0.143,0.107,0.123,0.197l-0.17,0.754
			c-0.02,0.087-0.106,0.144-0.196,0.124l-0.769-0.173c-0.086-0.02-0.143-0.107-0.123-0.197l0.171-0.754
			C148.302,26.587,148.389,26.531,148.479,26.551z"/>
		<path fill="#5E5E5D" d="M148.266,27.501c-0.021-0.003-0.033-0.027-0.031-0.047l0.17-0.753c0.004-0.021,0.027-0.034,0.048-0.03
			l0.767,0.173c0.02,0.003,0.033,0.027,0.03,0.047l-0.17,0.754c-0.004,0.02-0.027,0.033-0.047,0.03L148.266,27.501z"/>
		<path fill="#585857" d="M149.79,26.844l0.767,0.173c0.088,0.02,0.144,0.107,0.123,0.197l-0.17,0.753
			c-0.02,0.087-0.105,0.144-0.195,0.124l-0.769-0.173c-0.086-0.02-0.144-0.107-0.123-0.197l0.17-0.754
			C149.613,26.881,149.7,26.828,149.79,26.844z"/>
		<path fill="#5E5E5D" d="M149.576,27.798c-0.02-0.003-0.033-0.027-0.03-0.047l0.17-0.753c0.003-0.021,0.027-0.034,0.048-0.03
			l0.766,0.173c0.021,0.003,0.033,0.027,0.031,0.047l-0.17,0.754c-0.004,0.02-0.027,0.033-0.048,0.03L149.576,27.798z"/>
		<path fill="#585857" d="M151.1,27.141l0.769,0.173c0.086,0.02,0.144,0.107,0.123,0.197l-0.171,0.754
			c-0.02,0.087-0.106,0.144-0.196,0.124l-0.767-0.173c-0.088-0.02-0.144-0.107-0.123-0.197l0.17-0.754
			C150.924,27.174,151.014,27.121,151.1,27.141z"/>
		<path fill="#5E5E5D" d="M150.887,28.092c-0.02-0.003-0.033-0.027-0.029-0.047l0.17-0.753c0.002-0.02,0.027-0.034,0.047-0.03
			l0.767,0.173c0.021,0.003,0.033,0.027,0.03,0.047l-0.17,0.754c-0.003,0.02-0.027,0.033-0.047,0.03L150.887,28.092z"/>
		<path fill="#585857" d="M152.411,27.435l0.767,0.173c0.088,0.02,0.145,0.107,0.124,0.197l-0.171,0.754
			c-0.02,0.087-0.105,0.144-0.195,0.124l-0.769-0.173c-0.086-0.02-0.144-0.107-0.123-0.197l0.17-0.754
			C152.234,27.471,152.324,27.415,152.411,27.435z"/>
		<path fill="#5E5E5D" d="M152.198,28.385c-0.021-0.003-0.034-0.027-0.03-0.046l0.17-0.754c0.003-0.021,0.025-0.034,0.046-0.03
			l0.767,0.173c0.021,0.003,0.035,0.027,0.031,0.047l-0.174,0.754c-0.003,0.02-0.027,0.033-0.047,0.03L152.198,28.385z"/>
		<path fill="#585857" d="M153.723,27.731l0.766,0.173c0.088,0.02,0.145,0.107,0.125,0.197l-0.172,0.754
			c-0.02,0.087-0.105,0.144-0.195,0.124l-0.768-0.173c-0.086-0.02-0.144-0.107-0.123-0.197l0.17-0.754
			C153.549,27.765,153.635,27.711,153.723,27.731z"/>
		<path fill="#5E5E5D" d="M153.508,28.682c-0.02-0.003-0.033-0.023-0.029-0.047l0.17-0.753c0.002-0.021,0.026-0.034,0.047-0.03
			l0.767,0.173c0.021,0.003,0.033,0.027,0.03,0.047l-0.17,0.754c-0.004,0.02-0.027,0.033-0.047,0.03L153.508,28.682z"/>
		<path fill="#585857" d="M155.033,28.025l0.767,0.173c0.087,0.02,0.144,0.107,0.124,0.197l-0.17,0.754
			c-0.02,0.087-0.107,0.144-0.197,0.124l-0.767-0.174c-0.087-0.02-0.144-0.106-0.124-0.197l0.17-0.754
			C154.859,28.062,154.945,28.005,155.033,28.025z"/>
		<path fill="#5E5E5D" d="M154.818,28.976c-0.02-0.003-0.032-0.026-0.029-0.046l0.17-0.754c0.004-0.02,0.027-0.033,0.047-0.03
			l0.768,0.173c0.02,0.003,0.033,0.026,0.029,0.046l-0.17,0.754c-0.003,0.02-0.027,0.033-0.047,0.03L154.818,28.976z"/>
		<path fill="#585857" d="M156.344,28.319l0.768,0.173c0.086,0.02,0.143,0.106,0.123,0.197l-0.17,0.754
			c-0.021,0.086-0.107,0.143-0.197,0.124l-0.768-0.174c-0.086-0.02-0.143-0.106-0.123-0.197l0.17-0.754
			C156.17,28.355,156.257,28.299,156.344,28.319z"/>
		<path fill="#5E5E5D" d="M156.13,29.272c-0.021-0.003-0.032-0.026-0.03-0.046l0.17-0.754c0.004-0.02,0.027-0.033,0.047-0.03
			l0.768,0.173c0.02,0.003,0.033,0.026,0.029,0.046l-0.17,0.75c-0.002,0.02-0.026,0.034-0.047,0.03L156.13,29.272z"/>
		<path fill="#585857" d="M157.658,28.615l0.767,0.174c0.087,0.02,0.144,0.106,0.124,0.197l-0.17,0.754
			c-0.02,0.086-0.107,0.143-0.197,0.123l-0.767-0.173c-0.087-0.02-0.144-0.106-0.124-0.197l0.17-0.754
			C157.48,28.649,157.568,28.596,157.658,28.615z"/>
		<path fill="#5E5E5D" d="M157.441,29.566c-0.021-0.003-0.033-0.027-0.03-0.047l0.17-0.754c0.004-0.02,0.026-0.033,0.047-0.03
			l0.767,0.174c0.021,0.003,0.033,0.026,0.03,0.047l-0.17,0.753c-0.003,0.02-0.026,0.034-0.047,0.03L157.441,29.566z"/>
		<path fill="#585857" d="M141.646,26.297l0.768,0.173c0.087,0.02,0.145,0.107,0.124,0.197l-0.17,0.754
			c-0.021,0.086-0.106,0.143-0.197,0.123l-0.767-0.173c-0.088-0.02-0.145-0.107-0.125-0.197l0.172-0.754
			C141.471,26.334,141.561,26.277,141.646,26.297z"/>
		<path fill="#5E5E5D" d="M141.434,27.248c-0.02-0.003-0.033-0.027-0.029-0.047l0.17-0.754c0.003-0.02,0.027-0.033,0.047-0.03
			l0.768,0.173c0.02,0.003,0.032,0.027,0.029,0.047l-0.17,0.754c-0.004,0.02-0.027,0.033-0.047,0.03L141.434,27.248z"/>
		<path fill="#585857" d="M142.958,26.591l0.769,0.174c0.086,0.02,0.143,0.106,0.123,0.196l-0.17,0.754
			c-0.021,0.087-0.107,0.144-0.197,0.124l-0.768-0.173c-0.087-0.02-0.145-0.107-0.124-0.197l0.171-0.754
			C142.782,26.627,142.872,26.571,142.958,26.591z"/>
		<path fill="#5E5E5D" d="M142.745,27.542c-0.021-0.003-0.033-0.027-0.03-0.047l0.17-0.753c0.004-0.02,0.027-0.034,0.047-0.03
			l0.768,0.173c0.02,0.003,0.033,0.027,0.029,0.047l-0.17,0.754c-0.004,0.02-0.026,0.033-0.047,0.03L142.745,27.542z"/>
		<path fill="#585857" d="M144.27,26.888l0.768,0.173c0.086,0.02,0.143,0.107,0.123,0.197l-0.17,0.754
			c-0.02,0.087-0.107,0.144-0.197,0.124l-0.768-0.173c-0.086-0.02-0.144-0.107-0.123-0.197l0.174-0.754
			C144.096,26.921,144.184,26.868,144.27,26.888z"/>
		<path fill="#5E5E5D" d="M144.057,27.838c-0.021-0.003-0.033-0.026-0.031-0.046l0.17-0.754c0.004-0.02,0.027-0.033,0.048-0.03
			l0.767,0.173c0.02,0.003,0.033,0.026,0.03,0.046l-0.17,0.754c-0.004,0.02-0.027,0.033-0.047,0.03L144.057,27.838z"/>
		<path fill="#585857" d="M145.58,27.182l0.768,0.173c0.086,0.02,0.144,0.107,0.123,0.197l-0.171,0.754
			c-0.021,0.086-0.106,0.144-0.196,0.124l-0.768-0.173c-0.086-0.021-0.143-0.107-0.123-0.197l0.17-0.754
			C145.406,27.218,145.493,27.162,145.58,27.182z"/>
		<path fill="#5E5E5D" d="M145.367,28.132c-0.02-0.003-0.033-0.026-0.03-0.046l0.17-0.754c0.003-0.02,0.027-0.033,0.048-0.03
			l0.766,0.173c0.021,0.003,0.033,0.027,0.031,0.046l-0.17,0.754c-0.005,0.02-0.027,0.034-0.048,0.03L145.367,28.132z"/>
		<path fill="#585857" d="M151.591,28.532l-4.707-1.057c-0.087-0.02-0.17,0.033-0.19,0.12l-0.182,0.811
			c-0.015,0.061,0.022,0.12,0.082,0.134l4.75,1.067c0.086,0.02,0.178-0.037,0.197-0.124l0.17-0.754
			C151.734,28.642,151.682,28.552,151.591,28.532z"/>
		<path fill="#5E5E5D" d="M146.641,28.419l0.18-0.797c0.004-0.017,0.023-0.03,0.041-0.023l4.705,1.058
			c0.021,0.003,0.035,0.026,0.031,0.046l-0.171,0.754c-0.003,0.02-0.026,0.033-0.047,0.03L146.641,28.419z"/>
		<path fill="#585857" d="M152.139,28.656l0.766,0.173c0.088,0.02,0.145,0.106,0.125,0.197l-0.172,0.754
			c-0.02,0.086-0.105,0.143-0.195,0.124l-0.768-0.174c-0.086-0.02-0.144-0.106-0.123-0.197l0.17-0.753
			C151.961,28.692,152.048,28.636,152.139,28.656z"/>
		<path fill="#5E5E5D" d="M151.924,29.606c-0.02-0.003-0.033-0.027-0.029-0.047l0.17-0.754c0.004-0.02,0.026-0.033,0.047-0.03
			l0.767,0.173c0.021,0.003,0.033,0.026,0.03,0.046l-0.17,0.754c-0.004,0.02-0.027,0.034-0.047,0.03L151.924,29.606z"/>
		<path fill="#585857" d="M153.449,28.952l0.767,0.174c0.086,0.02,0.144,0.106,0.123,0.197l-0.17,0.754
			c-0.021,0.086-0.106,0.143-0.196,0.123l-0.768-0.173c-0.087-0.02-0.143-0.106-0.123-0.197l0.17-0.754
			C153.271,28.986,153.361,28.933,153.449,28.952z"/>
		<path fill="#5E5E5D" d="M153.234,29.903c-0.02-0.003-0.032-0.027-0.029-0.047l0.17-0.754c0.004-0.02,0.027-0.033,0.047-0.03
			l0.768,0.174c0.02,0.003,0.033,0.026,0.029,0.047l-0.17,0.753c-0.003,0.02-0.027,0.034-0.047,0.03L153.234,29.903z"/>
		<path fill="#585857" d="M154.759,29.246l0.767,0.174c0.088,0.02,0.145,0.106,0.125,0.197l-0.17,0.753
			c-0.021,0.087-0.107,0.144-0.197,0.124l-0.768-0.173c-0.086-0.02-0.144-0.107-0.123-0.197l0.17-0.754
			C154.582,29.283,154.672,29.226,154.759,29.246z"/>
		<path fill="#5E5E5D" d="M154.546,30.197c-0.021-0.003-0.034-0.027-0.03-0.047l0.17-0.753c0.004-0.021,0.026-0.034,0.047-0.03
			l0.768,0.173c0.02,0.003,0.033,0.027,0.029,0.047l-0.17,0.754c-0.004,0.02-0.023,0.033-0.047,0.03L154.546,30.197z"/>
		<path fill="#585857" d="M156.07,29.54l0.767,0.173c0.087,0.02,0.144,0.106,0.124,0.197l-0.17,0.754
			c-0.02,0.086-0.107,0.143-0.197,0.124l-0.767-0.174c-0.087-0.02-0.144-0.106-0.124-0.197l0.17-0.754
			C155.896,29.576,155.982,29.52,156.07,29.54z"/>
		<path fill="#5E5E5D" d="M155.857,30.49c-0.021-0.003-0.034-0.026-0.03-0.047l0.17-0.754c0.003-0.02,0.026-0.033,0.046-0.03
			l0.768,0.173c0.021,0.003,0.033,0.027,0.03,0.047l-0.17,0.754c-0.004,0.02-0.026,0.033-0.047,0.03L155.857,30.49z"/>
		<path fill="#585857" d="M157.381,29.836l0.768,0.173c0.086,0.02,0.144,0.107,0.123,0.197l-0.17,0.754
			c-0.02,0.087-0.106,0.144-0.197,0.124l-0.766-0.173c-0.088-0.02-0.145-0.107-0.125-0.197l0.17-0.754
			C157.208,29.87,157.294,29.816,157.381,29.836z"/>
		<path fill="#5E5E5D" d="M157.168,30.787c-0.02-0.003-0.034-0.027-0.029-0.047l0.17-0.754c0.002-0.02,0.026-0.033,0.047-0.03
			l0.767,0.173c0.021,0.003,0.032,0.027,0.03,0.047l-0.17,0.754c-0.004,0.02-0.027,0.033-0.047,0.03L157.168,30.787z"/>
		<path fill="#EDEDED" d="M151.354,30.66l-3.85-0.864c-0.173-0.04-0.347,0.07-0.383,0.244l-0.464,2.058
			c-0.04,0.174,0.069,0.347,0.243,0.384l3.85,0.864c0.173,0.04,0.348-0.07,0.383-0.244l0.465-2.058
			C151.637,30.87,151.527,30.7,151.354,30.66z"/>
		<path fill="#9D9B9B" d="M151.384,30.537l-3.85-0.864c-0.24-0.053-0.479,0.097-0.533,0.337l-0.464,2.058
			c-0.053,0.24,0.097,0.48,0.337,0.534l3.849,0.864c0.24,0.053,0.481-0.097,0.534-0.337l0.464-2.058
			C151.773,30.83,151.624,30.594,151.384,30.537z M151.137,33.102c-0.039,0.174-0.21,0.284-0.384,0.244l-3.849-0.864
			c-0.174-0.04-0.283-0.21-0.243-0.384l0.463-2.058c0.04-0.174,0.21-0.284,0.384-0.244l3.85,0.864
			c0.172,0.04,0.283,0.21,0.242,0.384L151.137,33.102z"/>
		<path fill="#DFDFDE" d="M146.889,31.083l-0.228,1.014c-0.04,0.173,0.069,0.347,0.243,0.384l3.85,0.864
			c0.173,0.04,0.348-0.07,0.383-0.244l0.227-1.014L146.889,31.083z"/>
		<path fill="#D9D9DA" d="M149.109,31.581l-2.221-0.5l-0.228,1.014c-0.04,0.173,0.069,0.347,0.243,0.383l1.908,0.43L149.109,31.581z
			"/>
		<path fill="#E3E1E1" d="M160.59,24.753l-18.898-4.25c-0.11-0.026-0.188-0.13-0.178-0.243l1.979-10.814
			c0.027-0.297,0.307-0.5,0.597-0.434l19.249,4.33c0.291,0.066,0.457,0.37,0.354,0.65l-2.838,10.617
			C160.813,24.716,160.703,24.78,160.59,24.753z"/>
		<path fill="#C7C7C6" d="M142.338,19.466l1.825-9.129c0.026-0.28,0.29-0.474,0.563-0.41l17.642,3.966
			c0.274,0.06,0.43,0.35,0.334,0.614l-2.255,9.029c-0.08,0.22-0.311,0.343-0.541,0.293l-17.204-3.869
			C142.473,19.91,142.318,19.696,142.338,19.466z"/>
		<path fill="#C6E6F2" d="M142.465,19.479l1.824-9.136c0.02-0.204,0.21-0.344,0.41-0.297l17.648,3.969
			c0.196,0.043,0.313,0.254,0.243,0.444l-2.261,9.036c-0.057,0.16-0.225,0.25-0.391,0.213l-17.215-3.873
			C142.561,19.8,142.448,19.646,142.465,19.479z"/>
		<path opacity="0.24" fill="#B6E0ED" enable-background="new    " d="M142.738,18.605c0.326-0.587,0.773-1.141,1.268-1.601
			c1.28-1.19,3.064-1.848,4.746-2.208c1.98-0.427,4.199-1.301,6.214-1.124c2.796,0.24,4.687,0.667,7.335,1.578l0.29-0.791
			c0.07-0.19-0.043-0.4-0.243-0.443l-17.648-3.969c-0.196-0.043-0.391,0.097-0.41,0.297l-1.794,8.806
			C142.555,18.953,142.65,18.762,142.738,18.605z"/>
		<path fill="#585857" d="M157.852,24.139l-13.449-3.025l0.007-0.227l13.559,3.049L157.852,24.139z"/>
		<path fill="#3C3C3B" d="M153.473,11.548c0.02-0.083,0.103-0.137,0.187-0.117c0.083,0.02,0.137,0.103,0.116,0.187
			c-0.02,0.083-0.104,0.137-0.187,0.117C153.505,11.718,153.452,11.634,153.473,11.548z"/>
		<path fill="#585857" d="M153.516,11.558c0.014-0.06,0.073-0.097,0.133-0.083c0.061,0.013,0.098,0.074,0.084,0.133
			c-0.014,0.06-0.073,0.097-0.133,0.083C153.539,11.678,153.502,11.618,153.516,11.558z"/>
		<path fill="#B6E0ED" d="M153.579,11.574c0.006-0.023,0.03-0.04,0.053-0.033s0.04,0.03,0.033,0.053
			c-0.006,0.023-0.03,0.04-0.054,0.034C153.589,11.621,153.572,11.598,153.579,11.574z"/>
	</g>
	<path fill="#FDFFFC" d="M148.191,54.351c0.896-3.792,4.688-6.13,8.459-5.229c3.776,0.9,6.105,4.707,5.209,8.494
		c-0.633,2.661-2.691,4.605-5.168,5.214c-0.143,0.379-0.407,2.676-0.881,3.413c-0.215,0.333-0.484,0.389-0.897,0.302
		c-0.331,1.182-1.718,2.267-2.858,2.159c-0.801-0.077-1.382-0.629-1.642-1.371c-0.204-0.578-0.367-1.244-0.47-1.888
		c-0.549-0.015-0.814-0.071-0.789-0.588c0.046-0.896,1.014-3.362,1.05-3.74C148.445,59.442,147.59,56.895,148.191,54.351z"/>
	<path fill="#AEB4FC" d="M151.846,54.096c0.106-0.384,0.483-0.64,0.881-0.542c0.373,0.087,0.652,0.501,0.541,0.885
		c-0.066,0.235-0.24,0.425-0.449,0.512c0.152,0.993,0.347,1.97,0.428,2.973c0.077,0.931,0.152,1.842,0.357,2.748
		c1.105-1.663,2.207-3.321,3.424-4.902c-0.336-0.322-0.082-1.043,0.484-0.911c0.668,0.159,0.424,1.203-0.25,1.044
		c-0.005,0-0.01-0.005-0.015-0.01c-1.265,1.796-2.502,3.618-3.532,5.562c-0.111,0.209-0.418,0.164-0.488-0.051
		c-0.336-1.003-0.434-2.026-0.504-3.075c-0.082-1.131-0.302-2.241-0.394-3.367C151.988,54.848,151.743,54.459,151.846,54.096z"/>
	<path fill="#808AFF" d="M160.331,47.915c1.421-0.706,2.849-1.417,4.271-2.128c0.295-0.144,0.565,0.281,0.27,0.44
		c-1.387,0.768-2.777,1.53-4.163,2.297C160.3,48.749,159.923,48.119,160.331,47.915z"/>
	<path fill="#808AFF" d="M157.654,42.491c0.117-0.261,0.455-0.072,0.429,0.164c-0.173,1.474-0.718,2.978-1.147,4.4
		c-0.106,0.348-0.642,0.23-0.555-0.133C156.732,45.458,157.038,43.867,157.654,42.491z"/>
	<path fill="#808AFF" d="M151.029,42.061c0.367,0.323,0.592,0.834,0.82,1.264c0.24,0.45,0.455,0.911,0.658,1.376
		c0.163,0.378-0.464,0.578-0.621,0.189c-0.188-0.476-0.393-0.937-0.628-1.392c-0.198-0.394-0.489-0.778-0.606-1.202
		C150.587,42.066,150.861,41.907,151.029,42.061z"/>
</g>
<path fill="#8E97FD" d="M24.435,87.037c-3.932,0.393-6.796,3.854-6.397,7.731c0.398,3.877,3.908,6.701,7.839,6.309
	s6.796-3.854,6.397-7.731C31.876,89.468,28.366,86.644,24.435,87.037z"/>
<path fill="#A9B0FF" d="M22.567,92.608c-0.251-0.461-0.48-0.935-0.689-1.41c0.029-0.038,0.059-0.075,0.088-0.113
	c0.216,0.467,0.451,0.931,0.703,1.384C22.634,92.516,22.601,92.561,22.567,92.608z"/>
<path fill="#A9B0FF" d="M31.468,97.379c-0.008,0.015-0.016,0.028-0.023,0.043c-3.5,1.168-6.17-0.709-8.021-3.407
	c0.037-0.051,0.075-0.102,0.112-0.152C25.376,96.507,27.973,98.362,31.468,97.379z"/>
<path fill="#A9B0FF" d="M20.873,88.402c0.01-0.006,0.02-0.014,0.03-0.021c0.269,0.811,0.593,1.664,0.977,2.512
	c-0.029,0.036-0.057,0.073-0.085,0.109C21.417,90.122,21.11,89.236,20.873,88.402z"/>
<path fill="#A9B0FF" d="M23.316,93.854c-0.231-0.346-0.448-0.704-0.652-1.071c0.035-0.047,0.068-0.094,0.104-0.141
	c0.207,0.363,0.426,0.717,0.658,1.06C23.389,93.753,23.352,93.804,23.316,93.854z"/>
<path fill="#A9B0FF" d="M19.793,89.385l0.015-0.017c0.295,0.928,0.665,1.923,1.114,2.909c-0.026,0.043-0.052,0.086-0.078,0.129
	C20.398,91.378,20.047,90.341,19.793,89.385z"/>
<path fill="#A9B0FF" d="M30.57,98.668c-0.013,0.014-0.025,0.029-0.039,0.043c-3.488,1.205-6.159-0.612-8.019-3.27
	c0.033-0.058,0.065-0.114,0.099-0.171C24.464,97.887,27.07,99.696,30.57,98.668z"/>
<path fill="#A9B0FF" d="M22.509,95.122c-0.032,0.057-0.065,0.115-0.097,0.172c-0.238-0.35-0.462-0.712-0.673-1.083
	c0.031-0.054,0.062-0.106,0.094-0.16C22.045,94.418,22.271,94.776,22.509,95.122z"/>
<path fill="#A9B0FF" d="M21.739,93.886c-0.031,0.053-0.062,0.106-0.092,0.161c-0.262-0.475-0.502-0.962-0.721-1.453
	c0.027-0.044,0.054-0.089,0.081-0.133C21.232,92.942,21.476,93.42,21.739,93.886z"/>
<path fill="#A9B0FF" d="M22.757,90.185c0.033-0.033,0.065-0.065,0.098-0.098c0.213,0.452,0.444,0.9,0.691,1.338
	c-0.038,0.04-0.076,0.08-0.113,0.121C23.188,91.101,22.963,90.645,22.757,90.185z"/>
<path fill="#A9B0FF" d="M31.934,96.318c-0.007,0.02-0.014,0.039-0.021,0.06c-3.297,0.926-5.834-0.871-7.62-3.44
	c0.041-0.045,0.083-0.091,0.124-0.135C26.191,95.309,28.655,97.076,31.934,96.318z"/>
<path fill="#A9B0FF" d="M21.852,87.796c0.018-0.01,0.035-0.018,0.053-0.027c0.247,0.696,0.533,1.415,0.861,2.127
	c-0.032,0.031-0.064,0.063-0.095,0.095C22.348,89.254,22.075,88.511,21.852,87.796z"/>
<path fill="#A9B0FF" d="M23.533,91.725c0.038-0.042,0.076-0.082,0.115-0.123c0.207,0.356,0.425,0.703,0.656,1.038
	c-0.041,0.044-0.083,0.089-0.123,0.134C23.952,92.436,23.736,92.084,23.533,91.725z"/>
<path fill="#A9B0FF" d="M22.567,92.607c0.033-0.047,0.067-0.092,0.102-0.138c0.241-0.324,0.497-0.633,0.764-0.923
	c0.037-0.041,0.075-0.081,0.113-0.121c1.821-1.912,4.22-2.935,7.208-1.763l0.014,0.017c-2.983-0.996-5.328,0.043-7.121,1.922
	c-0.038,0.041-0.077,0.082-0.114,0.123c-0.267,0.29-0.522,0.597-0.765,0.918c-0.035,0.046-0.069,0.094-0.103,0.14
	c-0.296,0.404-0.573,0.829-0.832,1.267c-0.031,0.054-0.063,0.106-0.094,0.16c-0.843,1.461-1.488,3.059-1.956,4.507
	c-0.007-0.008-0.015-0.016-0.022-0.024c0.405-1.479,1.033-3.136,1.886-4.647c0.031-0.053,0.061-0.107,0.092-0.16
	C21.995,93.443,22.271,93.014,22.567,92.607z"/>
<path fill="#A9B0FF" d="M22.671,89.992c0.031-0.032,0.063-0.063,0.095-0.095c1.626-1.605,3.691-2.497,6.204-1.81
	c0.046,0.029,0.092,0.058,0.137,0.087c-2.562-0.616-4.625,0.301-6.252,1.912c-0.033,0.033-0.066,0.065-0.099,0.099
	c-0.276,0.281-0.54,0.583-0.79,0.899c-0.03,0.038-0.059,0.075-0.088,0.113c-0.31,0.4-0.6,0.824-0.871,1.264
	c-0.027,0.044-0.054,0.088-0.081,0.133c-0.916,1.517-1.612,3.206-2.11,4.736c-0.007-0.013-0.015-0.026-0.021-0.04
	c0.437-1.565,1.118-3.317,2.05-4.884c0.026-0.043,0.052-0.086,0.078-0.129c0.27-0.444,0.561-0.872,0.871-1.275
	c0.028-0.036,0.057-0.073,0.085-0.109C22.13,90.575,22.394,90.273,22.671,89.992z"/>
<path fill="#A9B0FF" d="M23.316,93.854c0.036-0.051,0.073-0.102,0.11-0.152c0.239-0.325,0.49-0.636,0.754-0.929
	c0.041-0.045,0.082-0.089,0.123-0.134c1.812-1.938,4.204-2.996,7.189-1.862l0.011,0.02c-2.971-0.958-5.304,0.11-7.086,2.006
	c-0.042,0.044-0.083,0.089-0.125,0.135c-0.265,0.291-0.517,0.601-0.757,0.924c-0.037,0.05-0.075,0.1-0.112,0.151
	c-0.289,0.401-0.559,0.822-0.813,1.255c-0.033,0.057-0.066,0.114-0.099,0.171c-0.765,1.342-1.364,2.794-1.813,4.136
	c-0.012-0.009-0.023-0.018-0.036-0.027c0.396-1.371,0.978-2.87,1.748-4.255c0.032-0.058,0.064-0.115,0.097-0.172
	C22.759,94.684,23.028,94.259,23.316,93.854z"/>
<path fill="#AEB4FC" d="M35.742,78.13c-0.007-0.173-0.28-0.173-0.273,0c0.025,0.626-0.183,1.266-0.434,1.833
	c-0.293,0.661-0.694,1.298-1.232,1.792c-0.212,0.194-0.458,0.366-0.724,0.477c0.019-0.028,0.036-0.057,0.052-0.086
	c0.145-0.257,0.18-0.544,0.139-0.832c-0.087-0.607-0.625-0.986-1.222-1c-0.502-0.011-1.081,0.224-1.279,0.708
	c-0.253,0.618,0.435,1.196,0.926,1.432c0.182,0.086,0.361,0.14,0.538,0.164c-0.058,0.033-0.116,0.063-0.174,0.092
	c-0.574,0.281-1.222,0.418-1.853,0.508c-0.353,0.05-0.715,0.083-1.074,0.083c-0.176,0-0.176,0.269,0,0.269
	c0.534,0,1.072-0.068,1.596-0.168c0.627-0.12,1.277-0.302,1.813-0.656c0.063-0.042,0.125-0.086,0.184-0.134
	c0.962-0.153,1.773-1.103,2.242-1.916c0.246-0.427,0.444-0.883,0.587-1.354C35.673,78.954,35.759,78.539,35.742,78.13z
	 M32.153,82.331c-0.339-0.075-0.65-0.269-0.89-0.513c-0.096-0.097-0.187-0.223-0.23-0.339c-0.018-0.046-0.033-0.123-0.036-0.144
	c-0.002-0.026-0.002-0.053-0.001-0.079c0.001-0.044,0-0.023,0.008-0.065c0.019-0.094,0.069-0.181,0.123-0.244
	c0.08-0.093,0.15-0.143,0.255-0.202c0.208-0.117,0.454-0.167,0.698-0.16c0.236,0.008,0.479,0.09,0.654,0.253
	c0.202,0.187,0.289,0.461,0.283,0.733c-0.007,0.319-0.175,0.579-0.409,0.785C32.458,82.372,32.307,82.365,32.153,82.331z"/>
</svg>
