<svg xmlns="http://www.w3.org/2000/svg" xmlns:xlink="http://www.w3.org/1999/xlink" xml:space="preserve" viewBox="0 0 105000 71900"><path d="M103951 56671a14750 14750 0 01-2490 5095 15123 15123 0 01-12077 6009H29160A28097 28097 0 01 7168 57184a27410 27410 0 01-5612-12696c-811-5010-236-9765 3158-12998 10862-10344 21211-1123 23280-12279C29900 8923 37168-1067 50396 2154 67378 6290 65502 17994 73840 17120c8337-876 22598-7430 25176 4978 2578 12407-9503 23048-1810 22170 5339 606 7109 4064 7235 8149a14649 14649 0 01-489 4255" fill="#A5766B"/><defs><path d="M103951 56671a14750 14750 0 01-2490 5095 15123 15123 0 01-12077 6009H29160A28097 28097 0 01 7168 57184a27410 27410 0 01-5612-12696c-811-5010-236-9765 3158-12998 10862-10344 21211-1123 23280-12279C29900 8923 37168-1067 50396 2154 67378 6290 65502 17994 73840 17120c8337-876 22598-7430 25176 4978 2578 12407-9503 23048-1810 22170 5339 606 7109 4064 7235 8149a14649 14649 0 01-489 4255" id="a"/></defs><clipPath id="b"><use xlink:href="#a" overflow="visible"/></clipPath><path d="M125424 44895s-2037 9316-3750 13223c-4145 9460-10765 15596-18182 15596h-90680c-9256 0-17940-5170-24992-14052-3038-3830-8120-13438-8120-13438l145724-1330" fill="#996053" clip-path="url(#b)"/><defs><path d="M47681 4447H55400v7719h-7719" id="c"/></defs><clipPath id="d"><use xlink:href="#c" overflow="visible"/></clipPath><g clip-path="url(#d)"><path d="M51541 4447a3860 3860 0 10 0 7720 3860 3860 0 10 0-7720zm0 7068a3207 3207 0 11 0-6415 3207 3207 0 01 0 6415" fill="#C5AC73"/><path d="M54500 9544a3207 3207 0 10-5918-2475A3207 3207 0 00 54500 9544" fill="#DDC79B"/><path d="M51547 5387c-225 0-226 350 0 350s226-350 0-350zm2913 2926c0-225-350-226-350 0s350 226 350 0zm-2926 2913c225 0 226-350 0-350-225 0-227 350 0 350zM48620 8300c0 225 351 226 351 0 0-225-350-226-350 0zm4300 945c-20 0-42-5-60-17l-1380-821c-35-20-57-60-57-101V6101a117 117 0 11 234 0v2140l1322 786c56 33 75 104 40 160-20 37-59 58-100 58" fill="#C5AC73"/></g><defs><path d="M5000 1900h100000v70000H5000" id="e"/></defs><clipPath id="f"><use xlink:href="#e" overflow="visible"/></clipPath><path d="M31656 6511H32100v28825h-444" fill="#7A574E" clip-path="url(#f)"/><defs><path d="M5000 1900h100000v70000H5000" id="g"/></defs><clipPath id="h"><use xlink:href="#g" overflow="visible"/></clipPath><g clip-path="url(#h)"><defs><path d="M5000 1900h100000v70000H5000" id="i"/></defs><defs><path d="M5000 1900h100000v70000H5000" id="k"/></defs><defs><path d="M5000 1900h100000v70000H5000" id="m"/></defs><defs><path d="M5000 1900h100000v70000H5000" id="o"/></defs><defs><path d="M5000 1900h100000v70000H5000" id="q"/></defs><defs><path d="M5000 1900h100000v70000H5000" id="s"/></defs><defs><path d="M5000 1900h100000v70000H5000" id="u"/></defs><defs><path d="M5000 1900h100000v70000H5000" id="w"/></defs><defs><path d="M5000 1900h100000v70000H5000" id="y"/></defs><defs><path d="M5000 1900h100000v70000H5000" id="A"/></defs><defs><path d="M5000 1900h100000v70000H5000" id="C"/></defs><defs><path d="M5000 1900h100000v70000H5000" id="E"/></defs><defs><path d="M5000 1900h100000v70000H5000" id="G"/></defs><defs><path d="M5000 1900h100000v70000H5000" id="I"/></defs><defs><path d="M5000 1900h100000v70000H5000" id="K"/></defs><defs><path d="M5000 1900h100000v70000H5000" id="M"/></defs><defs><path d="M5000 1900h100000v70000H5000" id="O"/></defs><defs><path d="M5000 1900h100000v70000H5000" id="Q"/></defs><defs><path d="M5000 1900h100000v70000H5000" id="S"/></defs><defs><path d="M5000 1900h100000v70000H5000" id="U"/></defs><defs><path d="M5000 1900h100000v70000H5000" id="W"/></defs><defs><path d="M5000 1900h100000v70000H5000" id="Y"/></defs><defs><path d="M5000 1900h100000v70000H5000" id="aa"/></defs><defs><path d="M5000 1900h100000v70000H5000" id="ac"/></defs><defs><path d="M5000 1900h100000v70000H5000" id="ae"/></defs><defs><path d="M5000 1900h100000v70000H5000" id="ag"/></defs><defs><path d="M5000 1900h100000v70000H5000" id="ai"/></defs><defs><path d="M5000 1900h100000v70000H5000" id="ak"/></defs><defs><path d="M5000 1900h100000v70000H5000" id="am"/></defs><defs><path d="M5000 1900h100000v70000H5000" id="ao"/></defs><defs><path d="M5000 1900h100000v70000H5000" id="aq"/></defs><defs><path d="M5000 1900h100000v70000H5000" id="as"/></defs><defs><path d="M5000 1900h100000v70000H5000" id="au"/></defs><defs><path d="M5000 1900h100000v70000H5000" id="aw"/></defs><defs><path d="M5000 1900h100000v70000H5000" id="ay"/></defs><defs><path d="M5000 1900h100000v70000H5000" id="aA"/></defs><defs><path d="M5000 1900h100000v70000H5000" id="aC"/></defs><defs><path d="M5000 1900h100000v70000H5000" id="aE"/></defs><defs><path d="M5000 1900h100000v70000H5000" id="aG"/></defs><defs><path d="M5000 1900h100000v70000H5000" id="aI"/></defs><defs><path d="M5000 1900h100000v70000H5000" id="aK"/></defs><defs><path d="M5000 1900h100000v70000H5000" id="aM"/></defs><defs><path d="M5000 1900h100000v70000H5000" id="aO"/></defs><defs><path d="M5000 1900h100000v70000H5000" id="aQ"/></defs><defs><path d="M5000 1900h100000v70000H5000" id="aS"/></defs><defs><path d="M5000 1900h100000v70000H5000" id="aU"/></defs><defs><path d="M5000 1900h100000v70000H5000" id="aW"/></defs><defs><path d="M5000 1900h100000v70000H5000" id="aY"/></defs><defs><path d="M5000 1900h100000v70000H5000" id="ba"/></defs><defs><path d="M5000 1900h100000v70000H5000" id="bc"/></defs><defs><path d="M5000 1900h100000v70000H5000" id="be"/></defs><defs><path d="M5000 1900h100000v70000H5000" id="bg"/></defs><defs><path d="M5000 1900h100000v70000H5000" id="bi"/></defs><defs><path d="M5000 1900h100000v70000H5000" id="bk"/></defs><defs><path d="M5000 1900h100000v70000H5000" id="bm"/></defs><defs><path d="M5000 1900h100000v70000H5000" id="bo"/></defs><defs><path d="M5000 1900h100000v70000H5000" id="bq"/></defs><defs><path d="M5000 1900h100000v70000H5000" id="bs"/></defs><defs><path d="M5000 1900h100000v70000H5000" id="bu"/></defs><clipPath id="j"><use xlink:href="#i" overflow="visible"/></clipPath><clipPath id="l" clip-path="url(#j)"><use xlink:href="#k" overflow="visible"/></clipPath><clipPath id="n" clip-path="url(#l)"><use xlink:href="#m" overflow="visible"/></clipPath><clipPath id="p" clip-path="url(#n)"><use xlink:href="#o" overflow="visible"/></clipPath><clipPath id="r" clip-path="url(#p)"><use xlink:href="#q" overflow="visible"/></clipPath><clipPath id="t" clip-path="url(#r)"><use xlink:href="#s" overflow="visible"/></clipPath><clipPath id="v" clip-path="url(#t)"><use xlink:href="#u" overflow="visible"/></clipPath><clipPath id="x" clip-path="url(#v)"><use xlink:href="#w" overflow="visible"/></clipPath><clipPath id="z" clip-path="url(#x)"><use xlink:href="#y" overflow="visible"/></clipPath><clipPath id="B" clip-path="url(#z)"><use xlink:href="#A" overflow="visible"/></clipPath><clipPath id="D" clip-path="url(#B)"><use xlink:href="#C" overflow="visible"/></clipPath><clipPath id="F" clip-path="url(#D)"><use xlink:href="#E" overflow="visible"/></clipPath><clipPath id="H" clip-path="url(#F)"><use xlink:href="#G" overflow="visible"/></clipPath><clipPath id="J" clip-path="url(#H)"><use xlink:href="#I" overflow="visible"/></clipPath><clipPath id="L" clip-path="url(#J)"><use xlink:href="#K" overflow="visible"/></clipPath><clipPath id="N" clip-path="url(#L)"><use xlink:href="#M" overflow="visible"/></clipPath><clipPath id="P" clip-path="url(#N)"><use xlink:href="#O" overflow="visible"/></clipPath><clipPath id="R" clip-path="url(#P)"><use xlink:href="#Q" overflow="visible"/></clipPath><clipPath id="T" clip-path="url(#R)"><use xlink:href="#S" overflow="visible"/></clipPath><clipPath id="V" clip-path="url(#T)"><use xlink:href="#U" overflow="visible"/></clipPath><clipPath id="X" clip-path="url(#V)"><use xlink:href="#W" overflow="visible"/></clipPath><clipPath id="Z" clip-path="url(#X)"><use xlink:href="#Y" overflow="visible"/></clipPath><clipPath id="ab" clip-path="url(#Z)"><use xlink:href="#aa" overflow="visible"/></clipPath><clipPath id="ad" clip-path="url(#ab)"><use xlink:href="#ac" overflow="visible"/></clipPath><clipPath id="af" clip-path="url(#ad)"><use xlink:href="#ae" overflow="visible"/></clipPath><clipPath id="ah" clip-path="url(#af)"><use xlink:href="#ag" overflow="visible"/></clipPath><clipPath id="aj" clip-path="url(#ah)"><use xlink:href="#ai" overflow="visible"/></clipPath><clipPath id="al" clip-path="url(#aj)"><use xlink:href="#ak" overflow="visible"/></clipPath><clipPath id="an" clip-path="url(#al)"><use xlink:href="#am" overflow="visible"/></clipPath><clipPath id="ap" clip-path="url(#an)"><use xlink:href="#ao" overflow="visible"/></clipPath><clipPath id="ar" clip-path="url(#ap)"><use xlink:href="#aq" overflow="visible"/></clipPath><clipPath id="at" clip-path="url(#ar)"><use xlink:href="#as" overflow="visible"/></clipPath><clipPath id="av" clip-path="url(#at)"><use xlink:href="#au" overflow="visible"/></clipPath><clipPath id="ax" clip-path="url(#av)"><use xlink:href="#aw" overflow="visible"/></clipPath><clipPath id="az" clip-path="url(#ax)"><use xlink:href="#ay" overflow="visible"/></clipPath><clipPath id="aB" clip-path="url(#az)"><use xlink:href="#aA" overflow="visible"/></clipPath><clipPath id="aD" clip-path="url(#aB)"><use xlink:href="#aC" overflow="visible"/></clipPath><clipPath id="aF" clip-path="url(#aD)"><use xlink:href="#aE" overflow="visible"/></clipPath><clipPath id="aH" clip-path="url(#aF)"><use xlink:href="#aG" overflow="visible"/></clipPath><clipPath id="aJ" clip-path="url(#aH)"><use xlink:href="#aI" overflow="visible"/></clipPath><clipPath id="aL" clip-path="url(#aJ)"><use xlink:href="#aK" overflow="visible"/></clipPath><clipPath id="aN" clip-path="url(#aL)"><use xlink:href="#aM" overflow="visible"/></clipPath><clipPath id="aP" clip-path="url(#aN)"><use xlink:href="#aO" overflow="visible"/></clipPath><clipPath id="aR" clip-path="url(#aP)"><use xlink:href="#aQ" overflow="visible"/></clipPath><clipPath id="aT" clip-path="url(#aR)"><use xlink:href="#aS" overflow="visible"/></clipPath><clipPath id="aV" clip-path="url(#aT)"><use xlink:href="#aU" overflow="visible"/></clipPath><clipPath id="aX" clip-path="url(#aV)"><use xlink:href="#aW" overflow="visible"/></clipPath><clipPath id="aZ" clip-path="url(#aX)"><use xlink:href="#aY" overflow="visible"/></clipPath><clipPath id="bb" clip-path="url(#aZ)"><use xlink:href="#ba" overflow="visible"/></clipPath><clipPath id="bd" clip-path="url(#bb)"><use xlink:href="#bc" overflow="visible"/></clipPath><clipPath id="bf" clip-path="url(#bd)"><use xlink:href="#be" overflow="visible"/></clipPath><clipPath id="bh" clip-path="url(#bf)"><use xlink:href="#bg" overflow="visible"/></clipPath><clipPath id="bj" clip-path="url(#bh)"><use xlink:href="#bi" overflow="visible"/></clipPath><clipPath id="bl" clip-path="url(#bj)"><use xlink:href="#bk" overflow="visible"/></clipPath><clipPath id="bn" clip-path="url(#bl)"><use xlink:href="#bm" overflow="visible"/></clipPath><clipPath id="bp" clip-path="url(#bn)"><use xlink:href="#bo" overflow="visible"/></clipPath><clipPath id="br" clip-path="url(#bp)"><use xlink:href="#bq" overflow="visible"/></clipPath><clipPath id="bt" clip-path="url(#br)"><use xlink:href="#bs" overflow="visible"/></clipPath><clipPath id="bv" clip-path="url(#bt)"><use xlink:href="#bu" overflow="visible"/></clipPath><path d="M31656 7880v971l444-172V6780s-122 625-444 1100" fill="#7A574E" clip-path="url(#bv)"/><path d="M32100 6780s-218 922-1863 3554-4211 7699-1579 13095c724 1579 2073 6712-1283 10857h5227s2698-6448 724-13555S32560 8360 32100 6780m-348-1730-383 1106a290 290 0 00 274 384h470a290 290 0 00 274-384l-382-1105a134 134 0 00-253 0" fill="#7A574E" clip-path="url(#bv)"/><path d="M32076 6511h444v28825h-444" fill="#7B889B" clip-path="url(#bv)"/><path d="M32076 7880v971l444-172V6780s-122 625-444 1100m0-1369h444v212h-444" fill="#6B7B8E" clip-path="url(#bv)"/><path d="M32520 6780s40 922-1604 3554c-1645 2632-3159 7699-527 13095 724 1579 1843 6712-1513 10857h4146s2697-6448 723-13555C31771 13624 32980 8360 32520 6780" fill="#BDD8FF" clip-path="url(#bv)"/><path d="M30390 23429a14904 14904 0 01-287-622c285 402 1079 1526 1500 2146 492 728 3130 4873-718 9333h-2010c3357-4145 2238-9278 1514-10857" fill="#ACCFF9" clip-path="url(#bv)"/><path d="M34386 24295c-1025-1631-2669-2512-3524-3794-1447-2172-855-5528 362-8127 873-1863 1255-3826 1402-4790 93 2182-597 6968 1120 13147a19776 19776 0 01 640 3564" fill="#D7E9FF" clip-path="url(#bv)"/><path d="m32171 5050-382 1106a290 290 0 00 273 384h471a290 290 0 00 274-384l-383-1105a134 134 0 00-253 0" fill="#7B889B" clip-path="url(#bv)"/><path d="M31805 6121c733-32 572-844 503-1100a160 160 0 00-165 110l-325 940c-6 17-10 34-13 50" fill="#8897AA" clip-path="url(#bv)"/><path d="M72140 6511h444v28825h-444" fill="#7A574E" clip-path="url(#bv)"/><path d="M72585 7880v971l-444-172V6780s121 625 444 1100" fill="#7A574E" clip-path="url(#bv)"/><path d="M72140 6780s218 922 1863 3554c1646 2632 4212 7699 1580 13095-724 1579-2073 6712 1283 10857h-5227s-2698-6448-724-13555C72890 13624 71680 8360 72140 6780m350-1730 382 1106a290 290 0 01-274 384h-470a290 290 0 01-274-384l382-1105a134 134 0 01 253 0" fill="#7A574E" clip-path="url(#bv)"/><path d="M71721 6511h444v28825h-444" fill="#7B889B" clip-path="url(#bv)"/><path d="M72165 7880v971l-444-172V6780s122 625 444 1100m-444-1369h444v212h-444" fill="#6B7B8E" clip-path="url(#bv)"/><path d="M71721 6780s-41 922 1604 3554 3159 7699 526 13095c-723 1579-1842 6712 1514 10857H71220s-2698-6448-723-13555C72470 13624 71260 8360 71720 6780" fill="#CE4A4A" clip-path="url(#bv)"/><path d="M73851 23429c102-208 197-416 286-622a165088 165088 0 00-1498 2146c-493 728-3130 4873 717 9333h2010c-3357-4145-2238-9278-1514-10857" fill="#BF3D3D" clip-path="url(#bv)"/><path d="M69855 24295c1024-1631 2669-2512 3524-3794 1447-2172 855-5528-362-8127-873-1863-1255-3826-1402-4790-93 2182 597 6968-1120 13147a19776 19776 0 00-640 3564" fill="#E55757" clip-path="url(#bv)"/><path d="m72070 5050 382 1106a290 290 0 01-273 384h-471a290 290 0 01-274-384l382-1105a134 134 0 01 254 0" fill="#7B889B" clip-path="url(#bv)"/><path d="M72436 6121c-733-32-572-844-503-1100a160 160 0 01 165 110l325 940c5 17 10 34 13 50" fill="#8897AA" clip-path="url(#bv)"/><path d="M60237 35286H43338l-823-12034a4490 4490 0 01 4480-4797h9584a4490 4490 0 01 4480 4797l-824 12034" fill="#381B19" clip-path="url(#bv)"/><path d="M42552 23775a4492 4492 0 01 4444-3840h9584a4492 4492 0 01 4444 3840l36-523a4490 4490 0 00-4480-4797h-9584a4490 4490 0 00-4480 4797l36 523" fill="#442221" clip-path="url(#bv)"/><path d="M54417 23662c0 802-1192 1452-2662 1452-1470 0-2605-527-2605-1330 0-468 720-875 1442-1108v-2403h2324v2403c724 233 1500 517 1500 986" fill="#F2C9A0" clip-path="url(#bv)"/><path d="M52916 20273v2077a2811 2811 0 01-2324-85v-1992h2324" fill="#DBAC89" clip-path="url(#bv)"/><path d="M51784 32213s-3458-6951-2935-8402c168-622 1196-992 1196-992s800 442 1743 442 1743-442 1743-442 939 618 1104 1230c523 1450-2850 8164-2850 8164" fill="#D3D3D3" clip-path="url(#bv)"/><path d="m53018.2 22306.4-1230.2 954.3 820.2 1272.5 922.5-1715zm-2460.2 0 1230 954.3-820 1272.5-922.5-1715" fill="#FFF" clip-path="url(#bv)"/><path d="M52060 34762a273 273 0 11-545 0 273 273 0 01 546 0m-1 2788a273 273 0 11-545 0 273 273 0 01 546 0" fill="#E4C77B" clip-path="url(#bv)"/><path d="M56417 23856c458 0 916 96 1206 348 290 252 438 571 578 882l2983 6586a2276 2276 0 01-646 286l89 266c-384 134-583 227-1189 368-275 64-706 45-991 62l17 125c-556 25-1116 18-1671-22 0 0-736-5372-1196-6554-460-1182 373-2347 820-2347" fill="#292937" clip-path="url(#bv)"/><path d="M58452 32653c54-3 113-4 176-6-112-228-380-666-380-666s165 448 204 672m2289-760c-245-280-770-824-770-824s403 619 580 928l-13-39c69-19 137-41 203-65m-4518-4835c-70-411 100-1090 131-1280 70-430-481-595-820-825-100 375-108 811 63 1250 460 1181 1196 6554 1196 6554 287 20 576 32 865 36a972 972 0 01-272-452c-564-1866-1094-4871-1163-5283" fill="#1E1E29" clip-path="url(#bv)"/><path d="M47159 23856c-458 0-916 96-1206 348-290 252-437 571-578 882l-2983 6586a2277 2277 0 00 646 286l-89 266c384 134 583 227 1189 368 275 64 706 45 991 62l-17 125c557 25 1116 18 1671-22 0 0 737-5372 1197-6554 460-1182-374-2347-821-2347" fill="#292937" clip-path="url(#bv)"/><path d="M45124 32653c-54-3-113-4-175-6 110-228 379-666 379-666s-164 448-204 672m-2289-760c246-280 770-824 770-824s-403 619-580 928l14-39c-70-19-138-41-204-65m4519-4835c70-411-101-1090-132-1280-70-430 481-595 821-825 100 375 107 811-63 1250-460 1181-1197 6554-1197 6554-287 20-576 32-865 36a970 970 0 00 272-452c564-1866 1094-4871 1164-5283" fill="#1E1E29" clip-path="url(#bv)"/><path d="M57250 40352c-80-120-736-12527-728-13607 4-486 921-2209 580-2647-340-436-2919-1011-3340-1112-31-7-7 954-7 2202 0 965-1660 1770-2083 1770s-2076-766-2076-1758c0-1234 30-2180-3-2171-356 105-2834 690-3130 1069-342 438 575 2160 580 2647 7 1080-648 13488-730 13607-203 298 645 445 1256 454 0 0 2610 236 4068 236 1458 0 4359-236 4359-236 610-8 1458-156 1255-454" fill="#292937" clip-path="url(#bv)"/><path d="M52483 26671h4045c80-567 900-2155 574-2573-340-436-2919-1011-3341-1112-30-7-6 954-6 2202 0 615-674 1165-1272 1483m-1639 0c-592-310-1248-846-1248-1471 0-1234 30-2181-3-2171-356 105-2834 689-3130 1069-326 418 494 2006 573 2573h3808" fill="#232330" clip-path="url(#bv)"/><path d="m51760.8 41041.5-24.4-14088h-143.2l94.4 14088zm-1758.3-14370.4h151l-174.6 12785.2zm-1830.2 0h151l-174.6 11235zm7108.4 0h151l-174.7 11751zm-1830.3 0h151l-174.6 11235" fill="#1E1E29" clip-path="url(#bv)"/><path d="M55748 18935c-106 548-966 1353-1230 1300-264-54-70-874 40-1421 111-548 207-850 431-1000 325-216 975 0 759 1120m-7893-5c106 548 694 1350 958 1297 264-54 342-870 231-1418-110-548-206-850-430-1000-325-216-976 0-759 1121" fill="#F2C9A0" clip-path="url(#bv)"/><path d="M51637 22301c-2581-84-3413-3235-2980-5174 125-1387 708-1910 965-2095 360-260 568-205 2094-484 1599-293 1764-425 2095-288 972 400 1100 2177 1121 2867 186 1140-666 5260-3295 5174" fill="#F2C9A0" clip-path="url(#bv)"/><path d="M54746 18636c-87-6 100-1157-235-2495-199-790-518-1400-767-1805-241 74-626 185-1107 290-989 213-1366 178-1975 357-290 85-732 320-1200 637a815 815 0 00-323 870c11 46 21 96 28 150 12 78 14 140 13 165-2 58-32 917-77 2096a3590 3590 0 01-225-390c-102-204-150-364-196-474-140-327-281-570-337-823-54-250-120-823 324-1635 323-896 822-1326 1090-1516 360-255 398-144 2197-664 743-215 1015-314 1328-170 449 206 617 744 682 1022 229 96 654 319 936 783 289 473 280 954 273 1345-3 140-28 210-136 869-204 1236-263 1390-293 1388" fill="#96928A" clip-path="url(#bv)"/><path d="m52275 17907 11 362s1389-58 1610 64c0 0-307-197-1620-426m-1536 31 31 360s-1386 100-1593 247c0 0 284-230 1562-607" fill="#96928A" clip-path="url(#bv)"/><path d="m50606 18993-164 158a486 486 0 01-543-6l-234-157 258-157a496 496 0 01 516 0l167 162" fill="#FFF" clip-path="url(#bv)"/><path d="M50397 19060c0 57-26 108-66 144-71 24-147 31-221 21a192 192 0 11 287-166" fill="#42210B" clip-path="url(#bv)"/><path d="m52525 18894 164 157a486 486 0 00 543-6l233-156-257-158a496 496 0 00-517 0l-166 163" fill="#FFF" clip-path="url(#bv)"/><path d="M52734 18960c0 57 25 109 65 144 71 24 147 31 222 21a192 192 0 10-288-166" fill="#42210B" clip-path="url(#bv)"/><g clip-path="url(#bv)"><g opacity=".41"><defs><path d="M49254 18773h1853v996h-1853" id="bw"/></defs><clipPath id="bx"><use xlink:href="#bw" overflow="visible"/></clipPath><path d="M50940.3 19769.3h-1520l-166.3-996.3h1852.8l-59.3 355.1-9.5 56.6" fill="#E8DCD6" clip-path="url(#bx)"/></g><defs><path d="M5000 1900h100000v70000H5000" id="by"/></defs><defs><path d="M5000 1900h100000v70000H5000" id="bA"/></defs><clipPath id="bz"><use xlink:href="#by" overflow="visible"/></clipPath><clipPath id="bB" clip-path="url(#bz)"><use xlink:href="#bA" overflow="visible"/></clipPath><path d="M50976 19811h-1591l-180-1080h1951l-180 1080zm-1520-83h1449l152-913h-1754l153 913" fill="#42210B" clip-path="url(#bB)"/><g clip-path="url(#bB)"><g opacity=".41"><defs><path d="M51914 18690h1853v996h-1853" id="bC"/></defs><clipPath id="bD"><use xlink:href="#bC" overflow="visible"/></clipPath><path d="M53600.5 19685.8h-1520l-166.4-996.2h1852.9" fill="#E8DCD6" clip-path="url(#bD)"/></g><defs><path d="M5000 1900h100000v70000H5000" id="bE"/></defs><defs><path d="M5000 1900h100000v70000H5000" id="bG"/></defs><defs><path d="M5000 1900h100000v70000H5000" id="bI"/></defs><defs><path d="M5000 1900h100000v70000H5000" id="bK"/></defs><defs><path d="M5000 1900h100000v70000H5000" id="bM"/></defs><defs><path d="M5000 1900h100000v70000H5000" id="bO"/></defs><defs><path d="M5000 1900h100000v70000H5000" id="bQ"/></defs><defs><path d="M5000 1900h100000v70000H5000" id="bS"/></defs><defs><path d="M5000 1900h100000v70000H5000" id="bU"/></defs><defs><path d="M5000 1900h100000v70000H5000" id="bW"/></defs><defs><path d="M5000 1900h100000v70000H5000" id="bY"/></defs><defs><path d="M5000 1900h100000v70000H5000" id="ca"/></defs><defs><path d="M5000 1900h100000v70000H5000" id="cc"/></defs><defs><path d="M5000 1900h100000v70000H5000" id="ce"/></defs><defs><path d="M5000 1900h100000v70000H5000" id="cg"/></defs><defs><path d="M5000 1900h100000v70000H5000" id="ci"/></defs><defs><path d="M5000 1900h100000v70000H5000" id="ck"/></defs><defs><path d="M5000 1900h100000v70000H5000" id="cm"/></defs><defs><path d="M5000 1900h100000v70000H5000" id="co"/></defs><defs><path d="M5000 1900h100000v70000H5000" id="cq"/></defs><defs><path d="M5000 1900h100000v70000H5000" id="cs"/></defs><defs><path d="M5000 1900h100000v70000H5000" id="cu"/></defs><defs><path d="M5000 1900h100000v70000H5000" id="cw"/></defs><defs><path d="M5000 1900h100000v70000H5000" id="cy"/></defs><defs><path d="M5000 1900h100000v70000H5000" id="cA"/></defs><defs><path d="M5000 1900h100000v70000H5000" id="cC"/></defs><defs><path d="M5000 1900h100000v70000H5000" id="cE"/></defs><defs><path d="M5000 1900h100000v70000H5000" id="cG"/></defs><defs><path d="M5000 1900h100000v70000H5000" id="cI"/></defs><defs><path d="M5000 1900h100000v70000H5000" id="cK"/></defs><defs><path d="M5000 1900h100000v70000H5000" id="cM"/></defs><defs><path d="M5000 1900h100000v70000H5000" id="cO"/></defs><defs><path d="M5000 1900h100000v70000H5000" id="cQ"/></defs><defs><path d="M5000 1900h100000v70000H5000" id="cS"/></defs><defs><path d="M5000 1900h100000v70000H5000" id="cU"/></defs><defs><path d="M5000 1900h100000v70000H5000" id="cW"/></defs><defs><path d="M5000 1900h100000v70000H5000" id="cY"/></defs><defs><path d="M5000 1900h100000v70000H5000" id="da"/></defs><defs><path d="M5000 1900h100000v70000H5000" id="dc"/></defs><defs><path d="M5000 1900h100000v70000H5000" id="de"/></defs><defs><path d="M5000 1900h100000v70000H5000" id="dg"/></defs><defs><path d="M5000 1900h100000v70000H5000" id="di"/></defs><defs><path d="M5000 1900h100000v70000H5000" id="dk"/></defs><defs><path d="M5000 1900h100000v70000H5000" id="dm"/></defs><defs><path d="M5000 1900h100000v70000H5000" id="do"/></defs><defs><path d="M5000 1900h100000v70000H5000" id="dq"/></defs><defs><path d="M5000 1900h100000v70000H5000" id="ds"/></defs><defs><path d="M5000 1900h100000v70000H5000" id="du"/></defs><defs><path d="M5000 1900h100000v70000H5000" id="dw"/></defs><defs><path d="M5000 1900h100000v70000H5000" id="dy"/></defs><defs><path d="M5000 1900h100000v70000H5000" id="dA"/></defs><defs><path d="M5000 1900h100000v70000H5000" id="dC"/></defs><defs><path d="M5000 1900h100000v70000H5000" id="dE"/></defs><defs><path d="M5000 1900h100000v70000H5000" id="dG"/></defs><defs><path d="M5000 1900h100000v70000H5000" id="dI"/></defs><defs><path d="M5000 1900h100000v70000H5000" id="dK"/></defs><defs><path d="M5000 1900h100000v70000H5000" id="dM"/></defs><defs><path d="M5000 1900h100000v70000H5000" id="dO"/></defs><defs><path d="M5000 1900h100000v70000H5000" id="dQ"/></defs><defs><path d="M5000 1900h100000v70000H5000" id="dS"/></defs><defs><path d="M5000 1900h100000v70000H5000" id="dU"/></defs><defs><path d="M5000 1900h100000v70000H5000" id="dW"/></defs><defs><path d="M5000 1900h100000v70000H5000" id="dY"/></defs><defs><path d="M5000 1900h100000v70000H5000" id="ea"/></defs><defs><path d="M5000 1900h100000v70000H5000" id="ec"/></defs><defs><path d="M5000 1900h100000v70000H5000" id="ee"/></defs><defs><path d="M5000 1900h100000v70000H5000" id="eg"/></defs><defs><path d="M5000 1900h100000v70000H5000" id="ei"/></defs><defs><path d="M5000 1900h100000v70000H5000" id="ek"/></defs><defs><path d="M5000 1900h100000v70000H5000" id="em"/></defs><defs><path d="M5000 1900h100000v70000H5000" id="eo"/></defs><defs><path d="M5000 1900h100000v70000H5000" id="eq"/></defs><defs><path d="M5000 1900h100000v70000H5000" id="es"/></defs><defs><path d="M5000 1900h100000v70000H5000" id="eu"/></defs><defs><path d="M5000 1900h100000v70000H5000" id="ew"/></defs><defs><path d="M5000 1900h100000v70000H5000" id="ey"/></defs><defs><path d="M5000 1900h100000v70000H5000" id="eA"/></defs><defs><path d="M5000 1900h100000v70000H5000" id="eC"/></defs><defs><path d="M5000 1900h100000v70000H5000" id="eE"/></defs><defs><path d="M5000 1900h100000v70000H5000" id="eG"/></defs><defs><path d="M5000 1900h100000v70000H5000" id="eI"/></defs><defs><path d="M5000 1900h100000v70000H5000" id="eK"/></defs><defs><path d="M5000 1900h100000v70000H5000" id="eM"/></defs><defs><path d="M5000 1900h100000v70000H5000" id="eO"/></defs><defs><path d="M5000 1900h100000v70000H5000" id="eQ"/></defs><defs><path d="M5000 1900h100000v70000H5000" id="eS"/></defs><defs><path d="M5000 1900h100000v70000H5000" id="eU"/></defs><defs><path d="M5000 1900h100000v70000H5000" id="eW"/></defs><defs><path d="M5000 1900h100000v70000H5000" id="eY"/></defs><defs><path d="M5000 1900h100000v70000H5000" id="fa"/></defs><defs><path d="M5000 1900h100000v70000H5000" id="fc"/></defs><defs><path d="M5000 1900h100000v70000H5000" id="fe"/></defs><defs><path d="M5000 1900h100000v70000H5000" id="fg"/></defs><defs><path d="M5000 1900h100000v70000H5000" id="fi"/></defs><defs><path d="M5000 1900h100000v70000H5000" id="fk"/></defs><defs><path d="M5000 1900h100000v70000H5000" id="fm"/></defs><defs><path d="M5000 1900h100000v70000H5000" id="fo"/></defs><defs><path d="M5000 1900h100000v70000H5000" id="fq"/></defs><defs><path d="M5000 1900h100000v70000H5000" id="fs"/></defs><defs><path d="M5000 1900h100000v70000H5000" id="fu"/></defs><defs><path d="M5000 1900h100000v70000H5000" id="fw"/></defs><defs><path d="M5000 1900h100000v70000H5000" id="fy"/></defs><defs><path d="M5000 1900h100000v70000H5000" id="fA"/></defs><defs><path d="M5000 1900h100000v70000H5000" id="fC"/></defs><defs><path d="M5000 1900h100000v70000H5000" id="fE"/></defs><defs><path d="M5000 1900h100000v70000H5000" id="fG"/></defs><defs><path d="M5000 1900h100000v70000H5000" id="fI"/></defs><defs><path d="M5000 1900h100000v70000H5000" id="fK"/></defs><defs><path d="M5000 1900h100000v70000H5000" id="fM"/></defs><defs><path d="M5000 1900h100000v70000H5000" id="fO"/></defs><defs><path d="M5000 1900h100000v70000H5000" id="fQ"/></defs><defs><path d="M5000 1900h100000v70000H5000" id="fS"/></defs><defs><path d="M5000 1900h100000v70000H5000" id="fU"/></defs><defs><path d="M5000 1900h100000v70000H5000" id="fW"/></defs><defs><path d="M5000 1900h100000v70000H5000" id="fY"/></defs><defs><path d="M5000 1900h100000v70000H5000" id="ga"/></defs><defs><path d="M5000 1900h100000v70000H5000" id="gc"/></defs><defs><path d="M5000 1900h100000v70000H5000" id="ge"/></defs><defs><path d="M5000 1900h100000v70000H5000" id="gg"/></defs><defs><path d="M5000 1900h100000v70000H5000" id="gi"/></defs><defs><path d="M5000 1900h100000v70000H5000" id="gk"/></defs><defs><path d="M5000 1900h100000v70000H5000" id="gm"/></defs><defs><path d="M5000 1900h100000v70000H5000" id="go"/></defs><defs><path d="M5000 1900h100000v70000H5000" id="gq"/></defs><defs><path d="M5000 1900h100000v70000H5000" id="gs"/></defs><defs><path d="M5000 1900h100000v70000H5000" id="gu"/></defs><defs><path d="M5000 1900h100000v70000H5000" id="gw"/></defs><defs><path d="M5000 1900h100000v70000H5000" id="gy"/></defs><defs><path d="M5000 1900h100000v70000H5000" id="gA"/></defs><defs><path d="M5000 1900h100000v70000H5000" id="gC"/></defs><defs><path d="M5000 1900h100000v70000H5000" id="gE"/></defs><defs><path d="M5000 1900h100000v70000H5000" id="gG"/></defs><clipPath id="bF"><use xlink:href="#bE" overflow="visible"/></clipPath><clipPath id="bH" clip-path="url(#bF)"><use xlink:href="#bG" overflow="visible"/></clipPath><clipPath id="bJ" clip-path="url(#bH)"><use xlink:href="#bI" overflow="visible"/></clipPath><clipPath id="bL" clip-path="url(#bJ)"><use xlink:href="#bK" overflow="visible"/></clipPath><clipPath id="bN" clip-path="url(#bL)"><use xlink:href="#bM" overflow="visible"/></clipPath><clipPath id="bP" clip-path="url(#bN)"><use xlink:href="#bO" overflow="visible"/></clipPath><clipPath id="bR" clip-path="url(#bP)"><use xlink:href="#bQ" overflow="visible"/></clipPath><clipPath id="bT" clip-path="url(#bR)"><use xlink:href="#bS" overflow="visible"/></clipPath><clipPath id="bV" clip-path="url(#bT)"><use xlink:href="#bU" overflow="visible"/></clipPath><clipPath id="bX" clip-path="url(#bV)"><use xlink:href="#bW" overflow="visible"/></clipPath><clipPath id="bZ" clip-path="url(#bX)"><use xlink:href="#bY" overflow="visible"/></clipPath><clipPath id="cb" clip-path="url(#bZ)"><use xlink:href="#ca" overflow="visible"/></clipPath><clipPath id="cd" clip-path="url(#cb)"><use xlink:href="#cc" overflow="visible"/></clipPath><clipPath id="cf" clip-path="url(#cd)"><use xlink:href="#ce" overflow="visible"/></clipPath><clipPath id="ch" clip-path="url(#cf)"><use xlink:href="#cg" overflow="visible"/></clipPath><clipPath id="cj" clip-path="url(#ch)"><use xlink:href="#ci" overflow="visible"/></clipPath><clipPath id="cl" clip-path="url(#cj)"><use xlink:href="#ck" overflow="visible"/></clipPath><clipPath id="cn" clip-path="url(#cl)"><use xlink:href="#cm" overflow="visible"/></clipPath><clipPath id="cp" clip-path="url(#cn)"><use xlink:href="#co" overflow="visible"/></clipPath><clipPath id="cr" clip-path="url(#cp)"><use xlink:href="#cq" overflow="visible"/></clipPath><clipPath id="ct" clip-path="url(#cr)"><use xlink:href="#cs" overflow="visible"/></clipPath><clipPath id="cv" clip-path="url(#ct)"><use xlink:href="#cu" overflow="visible"/></clipPath><clipPath id="cx" clip-path="url(#cv)"><use xlink:href="#cw" overflow="visible"/></clipPath><clipPath id="cz" clip-path="url(#cx)"><use xlink:href="#cy" overflow="visible"/></clipPath><clipPath id="cB" clip-path="url(#cz)"><use xlink:href="#cA" overflow="visible"/></clipPath><clipPath id="cD" clip-path="url(#cB)"><use xlink:href="#cC" overflow="visible"/></clipPath><clipPath id="cF" clip-path="url(#cD)"><use xlink:href="#cE" overflow="visible"/></clipPath><clipPath id="cH" clip-path="url(#cF)"><use xlink:href="#cG" overflow="visible"/></clipPath><clipPath id="cJ" clip-path="url(#cH)"><use xlink:href="#cI" overflow="visible"/></clipPath><clipPath id="cL" clip-path="url(#cJ)"><use xlink:href="#cK" overflow="visible"/></clipPath><clipPath id="cN" clip-path="url(#cL)"><use xlink:href="#cM" overflow="visible"/></clipPath><clipPath id="cP" clip-path="url(#cN)"><use xlink:href="#cO" overflow="visible"/></clipPath><clipPath id="cR" clip-path="url(#cP)"><use xlink:href="#cQ" overflow="visible"/></clipPath><clipPath id="cT" clip-path="url(#cR)"><use xlink:href="#cS" overflow="visible"/></clipPath><clipPath id="cV" clip-path="url(#cT)"><use xlink:href="#cU" overflow="visible"/></clipPath><clipPath id="cX" clip-path="url(#cV)"><use xlink:href="#cW" overflow="visible"/></clipPath><clipPath id="cZ" clip-path="url(#cX)"><use xlink:href="#cY" overflow="visible"/></clipPath><clipPath id="db" clip-path="url(#cZ)"><use xlink:href="#da" overflow="visible"/></clipPath><clipPath id="dd" clip-path="url(#db)"><use xlink:href="#dc" overflow="visible"/></clipPath><clipPath id="df" clip-path="url(#dd)"><use xlink:href="#de" overflow="visible"/></clipPath><clipPath id="dh" clip-path="url(#df)"><use xlink:href="#dg" overflow="visible"/></clipPath><clipPath id="dj" clip-path="url(#dh)"><use xlink:href="#di" overflow="visible"/></clipPath><clipPath id="dl" clip-path="url(#dj)"><use xlink:href="#dk" overflow="visible"/></clipPath><clipPath id="dn" clip-path="url(#dl)"><use xlink:href="#dm" overflow="visible"/></clipPath><clipPath id="dp" clip-path="url(#dn)"><use xlink:href="#do" overflow="visible"/></clipPath><clipPath id="dr" clip-path="url(#dp)"><use xlink:href="#dq" overflow="visible"/></clipPath><clipPath id="dt" clip-path="url(#dr)"><use xlink:href="#ds" overflow="visible"/></clipPath><clipPath id="dv" clip-path="url(#dt)"><use xlink:href="#du" overflow="visible"/></clipPath><clipPath id="dx" clip-path="url(#dv)"><use xlink:href="#dw" overflow="visible"/></clipPath><clipPath id="dz" clip-path="url(#dx)"><use xlink:href="#dy" overflow="visible"/></clipPath><clipPath id="dB" clip-path="url(#dz)"><use xlink:href="#dA" overflow="visible"/></clipPath><clipPath id="dD" clip-path="url(#dB)"><use xlink:href="#dC" overflow="visible"/></clipPath><clipPath id="dF" clip-path="url(#dD)"><use xlink:href="#dE" overflow="visible"/></clipPath><clipPath id="dH" clip-path="url(#dF)"><use xlink:href="#dG" overflow="visible"/></clipPath><clipPath id="dJ" clip-path="url(#dH)"><use xlink:href="#dI" overflow="visible"/></clipPath><clipPath id="dL" clip-path="url(#dJ)"><use xlink:href="#dK" overflow="visible"/></clipPath><clipPath id="dN" clip-path="url(#dL)"><use xlink:href="#dM" overflow="visible"/></clipPath><clipPath id="dP" clip-path="url(#dN)"><use xlink:href="#dO" overflow="visible"/></clipPath><clipPath id="dR" clip-path="url(#dP)"><use xlink:href="#dQ" overflow="visible"/></clipPath><clipPath id="dT" clip-path="url(#dR)"><use xlink:href="#dS" overflow="visible"/></clipPath><clipPath id="dV" clip-path="url(#dT)"><use xlink:href="#dU" overflow="visible"/></clipPath><clipPath id="dX" clip-path="url(#dV)"><use xlink:href="#dW" overflow="visible"/></clipPath><clipPath id="dZ" clip-path="url(#dX)"><use xlink:href="#dY" overflow="visible"/></clipPath><clipPath id="eb" clip-path="url(#dZ)"><use xlink:href="#ea" overflow="visible"/></clipPath><clipPath id="ed" clip-path="url(#eb)"><use xlink:href="#ec" overflow="visible"/></clipPath><clipPath id="ef" clip-path="url(#ed)"><use xlink:href="#ee" overflow="visible"/></clipPath><clipPath id="eh" clip-path="url(#ef)"><use xlink:href="#eg" overflow="visible"/></clipPath><clipPath id="ej" clip-path="url(#eh)"><use xlink:href="#ei" overflow="visible"/></clipPath><clipPath id="el" clip-path="url(#ej)"><use xlink:href="#ek" overflow="visible"/></clipPath><clipPath id="en" clip-path="url(#el)"><use xlink:href="#em" overflow="visible"/></clipPath><clipPath id="ep" clip-path="url(#en)"><use xlink:href="#eo" overflow="visible"/></clipPath><clipPath id="er" clip-path="url(#ep)"><use xlink:href="#eq" overflow="visible"/></clipPath><clipPath id="et" clip-path="url(#er)"><use xlink:href="#es" overflow="visible"/></clipPath><clipPath id="ev" clip-path="url(#et)"><use xlink:href="#eu" overflow="visible"/></clipPath><clipPath id="ex" clip-path="url(#ev)"><use xlink:href="#ew" overflow="visible"/></clipPath><clipPath id="ez" clip-path="url(#ex)"><use xlink:href="#ey" overflow="visible"/></clipPath><clipPath id="eB" clip-path="url(#ez)"><use xlink:href="#eA" overflow="visible"/></clipPath><clipPath id="eD" clip-path="url(#eB)"><use xlink:href="#eC" overflow="visible"/></clipPath><clipPath id="eF" clip-path="url(#eD)"><use xlink:href="#eE" overflow="visible"/></clipPath><clipPath id="eH" clip-path="url(#eF)"><use xlink:href="#eG" overflow="visible"/></clipPath><clipPath id="eJ" clip-path="url(#eH)"><use xlink:href="#eI" overflow="visible"/></clipPath><clipPath id="eL" clip-path="url(#eJ)"><use xlink:href="#eK" overflow="visible"/></clipPath><clipPath id="eN" clip-path="url(#eL)"><use xlink:href="#eM" overflow="visible"/></clipPath><clipPath id="eP" clip-path="url(#eN)"><use xlink:href="#eO" overflow="visible"/></clipPath><clipPath id="eR" clip-path="url(#eP)"><use xlink:href="#eQ" overflow="visible"/></clipPath><clipPath id="eT" clip-path="url(#eR)"><use xlink:href="#eS" overflow="visible"/></clipPath><clipPath id="eV" clip-path="url(#eT)"><use xlink:href="#eU" overflow="visible"/></clipPath><clipPath id="eX" clip-path="url(#eV)"><use xlink:href="#eW" overflow="visible"/></clipPath><clipPath id="eZ" clip-path="url(#eX)"><use xlink:href="#eY" overflow="visible"/></clipPath><clipPath id="fb" clip-path="url(#eZ)"><use xlink:href="#fa" overflow="visible"/></clipPath><clipPath id="fd" clip-path="url(#fb)"><use xlink:href="#fc" overflow="visible"/></clipPath><clipPath id="ff" clip-path="url(#fd)"><use xlink:href="#fe" overflow="visible"/></clipPath><clipPath id="fh" clip-path="url(#ff)"><use xlink:href="#fg" overflow="visible"/></clipPath><clipPath id="fj" clip-path="url(#fh)"><use xlink:href="#fi" overflow="visible"/></clipPath><clipPath id="fl" clip-path="url(#fj)"><use xlink:href="#fk" overflow="visible"/></clipPath><clipPath id="fn" clip-path="url(#fl)"><use xlink:href="#fm" overflow="visible"/></clipPath><clipPath id="fp" clip-path="url(#fn)"><use xlink:href="#fo" overflow="visible"/></clipPath><clipPath id="fr" clip-path="url(#fp)"><use xlink:href="#fq" overflow="visible"/></clipPath><clipPath id="ft" clip-path="url(#fr)"><use xlink:href="#fs" overflow="visible"/></clipPath><clipPath id="fv" clip-path="url(#ft)"><use xlink:href="#fu" overflow="visible"/></clipPath><clipPath id="fx" clip-path="url(#fv)"><use xlink:href="#fw" overflow="visible"/></clipPath><clipPath id="fz" clip-path="url(#fx)"><use xlink:href="#fy" overflow="visible"/></clipPath><clipPath id="fB" clip-path="url(#fz)"><use xlink:href="#fA" overflow="visible"/></clipPath><clipPath id="fD" clip-path="url(#fB)"><use xlink:href="#fC" overflow="visible"/></clipPath><clipPath id="fF" clip-path="url(#fD)"><use xlink:href="#fE" overflow="visible"/></clipPath><clipPath id="fH" clip-path="url(#fF)"><use xlink:href="#fG" overflow="visible"/></clipPath><clipPath id="fJ" clip-path="url(#fH)"><use xlink:href="#fI" overflow="visible"/></clipPath><clipPath id="fL" clip-path="url(#fJ)"><use xlink:href="#fK" overflow="visible"/></clipPath><clipPath id="fN" clip-path="url(#fL)"><use xlink:href="#fM" overflow="visible"/></clipPath><clipPath id="fP" clip-path="url(#fN)"><use xlink:href="#fO" overflow="visible"/></clipPath><clipPath id="fR" clip-path="url(#fP)"><use xlink:href="#fQ" overflow="visible"/></clipPath><clipPath id="fT" clip-path="url(#fR)"><use xlink:href="#fS" overflow="visible"/></clipPath><clipPath id="fV" clip-path="url(#fT)"><use xlink:href="#fU" overflow="visible"/></clipPath><clipPath id="fX" clip-path="url(#fV)"><use xlink:href="#fW" overflow="visible"/></clipPath><clipPath id="fZ" clip-path="url(#fX)"><use xlink:href="#fY" overflow="visible"/></clipPath><clipPath id="gb" clip-path="url(#fZ)"><use xlink:href="#ga" overflow="visible"/></clipPath><clipPath id="gd" clip-path="url(#gb)"><use xlink:href="#gc" overflow="visible"/></clipPath><clipPath id="gf" clip-path="url(#gd)"><use xlink:href="#ge" overflow="visible"/></clipPath><clipPath id="gh" clip-path="url(#gf)"><use xlink:href="#gg" overflow="visible"/></clipPath><clipPath id="gj" clip-path="url(#gh)"><use xlink:href="#gi" overflow="visible"/></clipPath><clipPath id="gl" clip-path="url(#gj)"><use xlink:href="#gk" overflow="visible"/></clipPath><clipPath id="gn" clip-path="url(#gl)"><use xlink:href="#gm" overflow="visible"/></clipPath><clipPath id="gp" clip-path="url(#gn)"><use xlink:href="#go" overflow="visible"/></clipPath><clipPath id="gr" clip-path="url(#gp)"><use xlink:href="#gq" overflow="visible"/></clipPath><clipPath id="gt" clip-path="url(#gr)"><use xlink:href="#gs" overflow="visible"/></clipPath><clipPath id="gv" clip-path="url(#gt)"><use xlink:href="#gu" overflow="visible"/></clipPath><clipPath id="gx" clip-path="url(#gv)"><use xlink:href="#gw" overflow="visible"/></clipPath><clipPath id="gz" clip-path="url(#gx)"><use xlink:href="#gy" overflow="visible"/></clipPath><clipPath id="gB" clip-path="url(#gz)"><use xlink:href="#gA" overflow="visible"/></clipPath><clipPath id="gD" clip-path="url(#gB)"><use xlink:href="#gC" overflow="visible"/></clipPath><clipPath id="gF" clip-path="url(#gD)"><use xlink:href="#gE" overflow="visible"/></clipPath><clipPath id="gH" clip-path="url(#gF)"><use xlink:href="#gG" overflow="visible"/></clipPath><path d="M53636 19728h-1590l-181-1080h1951l-180 1080zm-1520-84h1450l152-913h-1755l153 913" fill="#42210B" clip-path="url(#gH)"/><path d="m51075 19215-39-71c5-5 448-485 955-46l-38 78c-445-386-862 22-878 39m-1781 35.5-677.7-1241.7-52.9-234.5 802.8 1434zm4452.7-90.6-57.9-60 1260.8-1299.6-23 123.3" fill="#42210B" clip-path="url(#gH)"/><path d="M51070 21018s488 480 1270 0l-695-210-575 210zm516-361a660 660 0 01-381-108 42 42 0 01 50-67c12 10 310 223 790-38 20-11 45-4 56 16 11 20 4 46-16 57a1038 1038 0 01-499 140m129 957a400 400 0 01-230-65 25 25 0 01 30-40c7 5 187 135 478-24a25 25 0 11 24 44c-117 65-220 85-301 85" fill="#DBAC89" clip-path="url(#gH)"/><path d="M52407 21188a3790 3790 0 01-292-197c32 50 44 80 37 86-12 10-64-30-158-116 43 50 61 80 54 88-10 12-70-16-179-86 26 38 35 62 28 70-10 10-55-10-133-62-15 18-32 28-49 34l-4 2a14 14 0 01-8 3 47 47 0 01-25 0 14 14 0 01-9-3l-3-2a107 107 0 01-50-34c-77 52-121 73-132 62-7-8 2-32 28-70-110 70-170 98-180 86-7-8 12-38 56-88-95 87-148 125-159 116-7-7 5-35 37-86a3952 3952 0 01-466 298c10-96 42-267 166-412 30-35 70-82 140-118 98-52 196-51 282-50 77 0 141 10 185 20 13 15 50 52 107 61l10 1h10c58-10 95-47 108-61 43-10 107-20 186-21a560 560 0 01 281 50c70 36 110 83 140 118a762 762 0 01 166 412c-57-30-115-64-174-100" fill="#96928A" clip-path="url(#gH)"/><path d="M20925 31738h62417v24580H20925" fill="#7C5342" clip-path="url(#gH)"/><path d="M20925 31738h62417v2877H20925" fill="#724A3B" clip-path="url(#gH)"/><path d="M83094 34060h-61920a742 742 0 01-742-740v-974c0-517 419-937 936-937h61530c518 0 937 420 937 937v973c0 410-332 742-741 742" fill="#724A3B" clip-path="url(#gH)"/><path d="M50624 35551H23128a605 605 0 00-605 605v18240c0 335 270 606 605 606h27496a605 605 0 00 605-605v-18240a605 605 0 00-605-606" fill="#FFCB7E" clip-path="url(#gH)"/><path d="M49897 36229h-26090a605 605 0 00-605 605v16885a605 605 0 00 605 605h26090c334 0 605-270 605-605V36834c0-335-271-605-605-605" fill="#724A3B" clip-path="url(#gH)"/><path d="M53038 36156v18240c0 335 271 606 605 606H81140c334 0 605-270 605-605v-18240a605 605 0 00-605-606H53643a605 605 0 00-605 605" fill="#FFCB7E" clip-path="url(#gH)"/><path d="M53809 36834v16885c0 334 270 605 605 605H80460c334 0 605-270 605-605V36834c0-335-271-605-605-605H54414a605 605 0 00-605 605" fill="#724A3B" clip-path="url(#gH)"/><path d="M20432 32773v644a644 644 0 00 644 644H83190a644 644 0 00 644-644v-644H20432zm28559 4528H25355a548 548 0 00-549 549v15297a548 548 0 00 549 549H48990a548 548 0 00 548-549V37850a548 548 0 00-548-549" fill="#6B4337" clip-path="url(#gH)"/><path d="M48670 37080H25034a548 548 0 00-549 547v15298a548 548 0 00 549 549H48670a548 548 0 00 548-549V37627a548 548 0 00-548-548" fill="#7C5342" clip-path="url(#gH)"/><path d="M42046 37080H25034a548 548 0 00-549 547v9702c15443-47 17352-7712 17560-10250" fill="#7F5546" clip-path="url(#gH)"/><path d="M79576 37301H55940a548 548 0 00-548 549v15297a548 548 0 00 548 549h23636a548 548 0 00 548-549V37850a548 548 0 00-548-549" fill="#6B4337" clip-path="url(#gH)"/><path d="M79255 37080H55620a548 548 0 00-548 547v15298a548 548 0 00 548 549h23636a548 548 0 00 548-549V37627a548 548 0 00-548-548" fill="#7C5342" clip-path="url(#gH)"/><path d="M72631 37080H55619a548 548 0 00-548 547v9702c15442-47 17351-7712 17560-10250" fill="#7F5546" clip-path="url(#gH)"/><path d="M59559 40054h-14850a1308 1308 0 01-1310-1308v-1518c0-723 587-1309 1310-1309h14850c722 0 1308 586 1308 1309v1518c0 722-586 1308-1308 1308" fill="#543730" clip-path="url(#gH)"/><path d="M59374 39660H44893a1059 1059 0 01-1059-1060v-1227c0-585 474-1059 1059-1059h14481c585 0 1059 474 1059 1059V38600c0 584-474 1058-1059 1058" fill="#8E695C" clip-path="url(#gH)"/><path d="M44300 36314a465 465 0 00-466 465v1663h14259a465 465 0 00 464-465v-1663H44300" fill="#9B776B" clip-path="url(#gH)"/><path d="M48512 39057v-270l104 2c54 0 96-14 126-40 30-26 45-73 45-141v-1444h297v1423c0 317-143 475-428 475-63 0-111-2-144-5m1238-451v-1441h296v1460c0 122 52 184 154 184 103 0 154-62 154-185v-1460h296v1442c0 152-40 269-119 351a447 447 0 01-337 123c-145 0-256-40-331-123-76-82-114-200-114-351m1564 451v-1892h470c147 0 257 40 332 120 74 80 111 196 111 348v956c0 152-37 269-111 348-75 80-185 120-332 120h-470zm297-270h168c49 0 87-15 113-44 26-28 39-75 39-140v-984c0-65-13-112-40-141-25-28-63-43-112-43h-168v1351zm1255-184v-984c0-153 38-270 113-352 76-82 186-124 332-124s258 42 338 124c80 82 120 200 120 351v185h-297V37600c0-124-46-186-139-186-113 0-170 62-170 186v1021c0 123 57 185 170 185 93 0 139-61 139-185v-348h-119v-270h416v600c0 152-40 270-120 352-80 82-193 123-338 123s-256-41-332-123-113-200-113-352m1553.9 453.6v-1892h810v270.8h-513v527.5h407.5v269h-407.6v554.2h513.2v270.5" fill="#543730" clip-path="url(#gH)"/><path d="M32610 34865s3122 288 3648 538l16 391-3682-555 19-374" fill="#4C6580" clip-path="url(#gH)"/><path d="m20330 53403 1693 1042 1286-1824s-518-179-822-882l-2156 1664" fill="#BC956B" clip-path="url(#gH)"/><path d="M40568 67568h-18590c504-2216 1157-5340 1588-8425 75-536 174-1780 416-3311l19-120a38364 38364 0 00 307-2634l10-128c13-153 25-310 36-472l2-25c28-401 54-827 75-1282v-4c34-717 64-1378 95-1991 123-2525 250-4245 653-5713a9290 9290 0 01 428-1236c800-1875 2268-3582 5100-6544a5873 5873 0 01 1377-425l57-10a6827 6827 0 01 590-82l58-6a8465 8465 0 01 1200-25c705 35 1355 158 1847 346l329 89 59 16 40 11h2l85 23 204 55 72 119s0-1 0 0c2450 4052 2820 7226 2675 9420-10 147-20 290-32 426-115 1320-321 2234-430 3597 0 0-72 1185-68 2476 2 502 33 1187 95 2035 68 935 173 2070 313 3378 300 2777 763 6337 1388 10442" fill="#F2EDE4" clip-path="url(#gH)"/><path d="M26082 42389s-1652 4100-1650 8781c-126-2494-70-5879 796-8575l153-445 700 239h1" fill="#D9C9AC" clip-path="url(#gH)"/><path d="m34724 38342 258 1361L35200 38220l909-2154 175-416-397-1113-2847-407c0 181-60 433-127 659a7423 7423 0 01-188 546l2000 3008" fill="#BC956B" clip-path="url(#gH)"/><path d="M32912 34788c192 254 812 1005 1893 1254 538 124 1003 80 1303 23l175-416-397-1112-2847-408c0 181-60 433-127 659" fill="#987957" clip-path="url(#gH)"/><path d="M24308 53077c556 270 1066 326 1068 330a20846 20846 0 00 999-34c430-24 860-60 1290-108h1a203 203 0 01 70 398 24529 24529 0 01-2206 419v11a20282 20282 0 00 1550 249c275 33 550 55 827 73h5a202 202 0 01-9 404c-285 9-571 14-856 7a20546 20546 0 01-1694-110l-3 5a9630 9630 0 00 1556 452c218 46 438 81 659 113h4a202 202 0 01-34 404 10729 10729 0 01-2431-327c-52-14-103-27-154-42l-6 7c52 30 104 59 157 87 160 83 323 161 488 236a11206 11206 0 00 1023 400l2 1a202 202 0 01-105 390 13436 13436 0 01-1114-260 9808 9808 0 01-827-277l-138-57-50-22c-219 0-1331-478-2357-1380-896-788 199-1682 595-1873 372-180 777 148 976 106 95-48 665-185 762-227l-48 625" fill="#BC956B" clip-path="url(#gH)"/><path d="M32123 35262c-110 4858-6381 8088-6381 8088a4009 4009 0 00-1455 476c-2512 1420-3361 5735-1763 7901a3468 3468 0 00 583 615s-454 1524-1455 1986a6008 6008 0 01-940-455s-1714-1022-2741-3262c-1236-2694-391-8867 3974-12551 4063-3430 9080-2933 10178-2798" fill="#F2EDE4" clip-path="url(#gH)"/><path d="M38824 54272a3970 3970 0 01-1004 631l-77 32a21566 21566 0 01-980 195c-425 75-852 138-1282 190a202 202 0 00 23 403 24203 24203 0 00 2243-95l3 10a20160 20160 0 01-1452 596c-260 96-524 180-789 260l-5 2a202 202 0 00 101 391 17263 17263 0 00 1659-420c268-82 535-170 800-263l4 5c-80 54-160 108-243 160a9639 9639 0 01-1168 635c-202 95-408 179-616 260l-4 2a202 202 0 00 125 384 10690 10690 0 00 2433-949l7 6-133 120a9144 9144 0 01-422 341c-144 110-292 218-443 321-150 104-305 204-460 303h-3a202 202 0 00 192 357 11759 11759 0 00 1025-507 9806 9806 0 00 741-459l122-87 44-34c213-50 1187-768 1980-1881 691-971-578-1592-1008-1687-403-90-722 322-925 326a1430 1430 0 01-440-141c-15 198-32 395-48 593" fill="#BC956B" clip-path="url(#gH)"/><path d="m36412 35708 1663 8539c283 265 3414 3285 2607 6930a6015 6015 0 01-1124 2364 4362 4362 0 00 953 2524 7633 7633 0 00 1053-790c3250-2915 2963-7775 2913-8611-30-506-250-3733-2370-6615a12650 12650 0 00-5695-4341" fill="#F2EDE4" clip-path="url(#gH)"/><path d="m54546 35708-47 143s193-3 255-10c0 0-163-120-208-133m-1773-691 102-155s-177-46-230-26c0 0 100 160 128 181" fill="#84245F" clip-path="url(#gH)"/><path d="m34365 36353 189 2150s-2429-1299-2432-3240l489-398c177 625 750 1166 1754 1488m1801-785c-52 50-238 1070-808 1370l60 1449s1348-1086 1136-2712l-296-273-92 166" fill="#F2EDE4" clip-path="url(#gH)"/><path d="m35419 38387-27-634s-338 338-370 485c-30 147-120 4990-120 4990l325 21 192-4862" fill="#F2EDE4" clip-path="url(#gH)"/><path d="m34553.6 38502.9 171.8 4708.7 470.2 44.8-285.3-5007.1-426.8-411" fill="#E0DAD1" clip-path="url(#gH)"/><path d="M34841 35528c246 90 730 224 1286 84 382-96 765-318 1216-828 1025-1157 1316-2566 1543-3731 69-353 232-1265 242-2470 12-1445-91-2059-167-2639-18-140-298-930-406-1024-1466-1284-5273 122-5273 126l22 1c-701 239-1632 680-2440 1515-2647 2298 1003 7990 3977 8966" fill="#BC956B" clip-path="url(#gH)"/><path d="M30896 32535a2341 2341 0 00 1555 1263 6385 6385 0 01-1159-1593l-396 330" fill="#111010" clip-path="url(#gH)"/><path d="M34829 35610a2220 2220 0 00 1290 85c384-97 767-320 1220-831 1028-1161 1320-2575 1548-3744a13640 13640 0 00 243-2478c12-1450-92-2066-167-2648-19-140-299-932-408-1027-1470-1289-5290 122-5290 126l22 1c-318 109-1282-137-1662 72-460 253-342 990-786 1448-2656 2306 1006 8017 3990 8996" fill="#BC956B" clip-path="url(#gH)"/><path d="M31194 31500A244354 244354 0 01 29400 29852a2668 2668 0 01-803-1364c-96-430-61-765-17-1186a5588 5588 0 01 330-1382c220-605 429-903 529-1034 321-424 542-494 660-515a835 835 0 01 459 57c60-267 210-770 622-1246a2894 2894 0 01 1260-840c649-227 1431-92 2997 178 736 126 1092 222 1487 423 722 369 1018 810 1095 933a2282 2282 0 01 207 418 2420 2420 0 01 784 656c370 478 451 967 494 1240 38 247 54 540-150 1751-61 365-149 852-270 1427 94-820-38-1404-181-1790-110-300-210-432-424-1017a7607 7607 0 01-437-1699 4390.5 4390.5 0 01-905 443c-765 271-1413 258-3277 118-742-56-1394-110-1933-158a3960 3960 0 01 310 2402 3968 3968 0 01-1251 2206l210 1625" fill="#111010" clip-path="url(#gH)"/><path d="M36575 23832a4550 4550 0 01-1417-54 3017 3017 0 00 1219 797 7603 7603 0 01-3318 25 5523 5523 0 00 2570 511 5510 5510 0 00 2243-591 5826 5826 0 01-1883-426 1645 1645 0 00 1253-343l-667 80m-5330 2439c58 289 110 737 16 1267a3463 3463 0 01-744 1598 2067 2067 0 00 920-1058c341-909-130-1707-192-1807M30740 27400a3731 3731 0 01-871 1644c120-44 454-182 688-536 326-493 206-1018 184-1109M38700 26060c5 98 20 258 76 448 82 279 180 386 262 662 32 107 73 274 84 492-33-287-66-562-103-858-18-148-40-310-137-492a1165 1165 0 00-183-252" fill="#484443" clip-path="url(#gH)"/><path d="M31320 32291c-77 128-227 190-308 224a936 936 0 01-644 9c-258-83-482-382-920-975-125-170-254-379-513-796-160-258-243-402-230-598 2-30 26-337 225-440 217-112 513 88 888 347a3858 3858 0 01 894 802c246 304 840 1039 608 1427" fill="#BC956B" clip-path="url(#gH)"/><path d="M37412 29942c147-25 298-32 443-40 106-1 212-3 318 3 646-232 735-907 735-907-33-3-131 1-269 10a47298 47298 0 00-1175 104l-139 14-450 45s-27 610 537 770" fill="#FFF" clip-path="url(#gH)"/><path d="M37470 29210c0 5 0 9 2 13 51 294 347 480 665 418 30-6 58-14 87-24l14-5a18 18 0 01 7-2l38-17a594 594 0 00 356-584l-147 10c-298 23-700 61-1028 94 0 26 0 52 3 77l2 20" fill="#3F2E20" clip-path="url(#gH)"/><path d="M33290 29505s198 653 872 774c0-2 0-2 2 0 103-24 208-40 312-55 145-16 294-34 445-34 529-250 403-848 403-848l-295 20c-50 2-101 6-157 10-302 19-698 47-1021 74l-148 13c-213 18-371 35-413 46" fill="#FFF" clip-path="url(#gH)"/><path d="M33850 29446a599 599 0 00 449 519l40 10h8l14 4c30 5 60 8 90 10 324 8 585-225 587-523a30 30 0 00 0-13v-20c0-25-5-48-10-72l-157 10c-300 20-697 48-1020 75" fill="#3F2E20" clip-path="url(#gH)"/><path d="M36382 32750a2256 2256 0 00 1507-75c-242 42-487 42-717 3a1894 1894 0 01-632-226 201 201 0 00-258 50c-68 90-16 218 100 248m-920-280c-428 365-1055 717-1646 772 611 71 1334-185 1908-500 298-175 4-482-262-273" clip-path="url(#gH)"/><path d="M36338 27545c73 351 118 735 184 1034a4285 4285 0 01 710-784c105-79 640-504 1110-363 332 99 451 424 488 400 72-47-222-942-739-1025-69-11-134-4-264 10-65 7-330 38-678 192a2980 2980 0 00-812 536m-777 230a6110 6110 0 00-119 896c-122-84-296-200-507-335-305-192-457-289-623-371-285-142-585-290-990-305-179-6-405-13-652 114-233 120-373 307-476 452 7-121 54-690 520-1067a1354 1354 0 01 505-254 3812 3812 0 01 2341 870" fill="#111010" clip-path="url(#gH)"/><path d="M36260 28801a9300 9300 0 00 616 1505c153 306 386 614 312 966a806 806 0 01-710 636 986 986 0 01-516-99 947 947 0 00 519 160c612 0 1032-691 755-1236-336-644-680-1267-975-1932" fill="#987957" clip-path="url(#gH)"/><path d="M37470 33510c20-62-617-428-1405-444-503-10-830 126-903 158-434 189-752 523-719 573 36 53 420-268 1007-425 1081-289 1997 212 2020 138" fill="#652B28" clip-path="url(#gH)"/><path d="M36099 33821a1393 1393 0 00-1255 383 3392 3392 0 01 1496-310c-58-24-140-52-241-73" fill="#987957" clip-path="url(#gH)"/><path d="M34365 36353a34878 34878 0 01 228 2276l-152-80c-1054-595-2074-1524-2298-2763-27-174-32-350-20-524 17 173 47 343 92 508 238 826 829 1491 1482 2026a6685 6685 0 00 834 586l-140 88c-26-705-43-1410-26-2117m992 586c76 480 120 960 154 1444l-150-69a3920 3920 0 00 1017-1528 3364 3364 0 00 176-1111c22 126 55 254 57 382 60 926-434 1819-1134 2402l-148 119a18400 18400 0 01 28-1640" fill="#D9C9AC" clip-path="url(#gH)"/><path d="M34533 37946c158 1310 214 2628 236 3946 6 440 5 878-7 1318l-34-34c167 22 333 46 500 73-180 2-357 1-535-2l-4-34c-161-1750-230-3510-156-5267" fill="#D9C9AC" clip-path="url(#gH)"/><path d="M35044 39223c2 57 38 102 78 100 40-2 71-50 68-108-3-57-38-102-78-100-40 2-71 50-68 108m26-833c3 57 38 102 78 100 40-2 71-50 68-108s-38-103-78-100c-40 1-71 50-68 107m-259 1763c3 58 38 103 79 100 40-1 70-50 68-107-3-58-38-103-79-101-40 2-70 50-68 108m45 895c3 58 38 103 79 101 40-2 70-50 68-108-3-58-38-103-79-100-40 1-70 50-68 107m5 977c3 58 38 103 79 100 40-1 70-50 68-107s-38-103-79-101c-40 2-70 50-68 108m9 882c3 57 38 103 79 100 40-2 70-50 68-108-3-57-38-102-79-100-40 2-70 50-68 108m38035-8468s-3013 861-3484 1204l57 388 3515-1228-88-364" fill="#4C6580" clip-path="url(#gH)"/><path d="m88408 50380-1470 1337-1602-1554s475-272 644-1019l2428 1236zM67949 36752c-4872 4760-10123 6854-15281 1086-686-739-1823-17-1449 944 4601 9150 12996 7896 19832 1957 2885-2103-375-6306-3102-3987" fill="#BC956B" clip-path="url(#gH)"/><path d="M51326 39500a15340 15340 0 00 366 717c439 806 1336 1822 2748 3536 2144 2072 5071 3363 8236 3282l2-1c2147-55 4403-740 6600-2243 737-504 1467-1100 2184-1794l-2282-7032s-1580 589-2376 1200c-5313 4081-7432 6042-12895 1549a25487 25487 0 01-697-593 2179 2179 0 01-456 710c-534 553-1207 648-1430 669" fill="#5190B7" clip-path="url(#gH)"/><path d="M48757 37694c-868 53-919-1199-37-693h-15c448-40 502 666 52 693" fill="#BC956B" clip-path="url(#gH)"/><path d="M48860 37213c-1140-248-455-1390 33-712-3-8-9-9 6 1 14 10 41 20 60 24 0 0 10 2-2 0 446 56 350 756-96 687" fill="#BC956B" clip-path="url(#gH)"/><path d="m48953 36646-314-154c-406-193-95-828 307-623l313 154c407 193 95 828-306 623" fill="#BC956B" clip-path="url(#gH)"/><path d="M52616 37781a2680 2680 0 01-566-773c-202-418-178-662-276-873-156-333-879 225-2282-670l-951 2094s1185 1470 3085 1763l990-1540" fill="#BC956B" clip-path="url(#gH)"/><path d="M50733 36061c-298-383-3525-1826-3614-1100-47 288 298 315 496 374a6946 6946 0 01 2096 1003c338 187 615 760 1049 465 263-180 233-573-27-742" fill="#BC956B" clip-path="url(#gH)"/><path d="M50055 34285a37553 37553 0 01 795 2766c198 783 1235 432 1065-360-285-1332-712-1792-1328-2638-204-280-650-91-532 232" fill="#BC956B" clip-path="url(#gH)"/><path d="M49025 37619c267-288-51-634 0-293 6 344-283 252-320 372 56 122 256-13 320-80" fill="#987957" clip-path="url(#gH)"/><path d="M49204 37140c116-96 170-493-24-493-77 94 150 264-93 458-160 122-375 28-529-60-72-20-176-224-262-168-20 19-22 53-2 74 213 240 644 467 910 188" fill="#987957" clip-path="url(#gH)"/><path d="M49400 36605a402 402 0 00-118-629l-313-154c-60-30-108 65-47 94l314 154c346 164 80 703-260 529-7-3-292-120-456-303a52 52 0 00-78 70c367 317 649 511 958 240m1775 1136c-718-637-656-1936-610-1946-226-243-302 1527 526 1938 30 15 60 34 83 8" fill="#987957" clip-path="url(#gH)"/><path d="M62678 47034c2147-55 4403-740 6600-2243l-1346-854s-1622 2296-5254 3097" fill="#4080A0" clip-path="url(#gH)"/><path d="M88708 67568H70635c457-4575 420-9803-662-15432a51954 51954 0 00-525-2420v-1c-398-1457-810-2352-1200-3868a12929 12929 0 01-395-2748c-68-1852 220-4157 1264-6963l63-170v-1l269-130 2-1 49-24 43-21 207-100 101-50a5305 5305 0 01 1045-476 8157 8157 0 01 1890-401c19-3 38-4 58-6l136-10c153-11 307-17 460-18l56-1c494-1 981 49 1432 162 3332 2387 5090 3793 6225 5486a9710 9710 0 01 674 1182c653 1359 1093 3014 1675 5443 144 599 296 1245 463 1946a52250 52250 0 00 470 1836l4 15a38261 38261 0 00 791 2530l18 52 23 64c13 36 1023 4186 3437 14125" fill="#5190B7" clip-path="url(#gH)"/><path d="M80715 40622s2384 3723 3250 8323c-340-2473-1022-5790-2373-8280l-233-408-643 364" fill="#4080A0" clip-path="url(#gH)"/><path d="m71473 38246-2 1386-488-1418-1292-1949-250-376 185-1167 2723-928c33 178 138 415 246 624a7401 7401 0 00 286 502l-1408 3326" fill="#BC956B" clip-path="url(#gH)"/><path d="M72595 34418c-1125 1102-2458 1675-2904 1847l-250-376 185-1167 2723-928c33 178 138 414 246 624" fill="#987957" clip-path="url(#gH)"/><path d="M84440 50797c-498 367-988 517-990 521a20655 20655 0 01-988 152c-427 56-857 100-1288 133a202 202 0 00 5 404 24248 24248 0 00 2245 3c0 4 2 8 3 11a20264 20264 0 01-1477 532c-265 84-531 156-800 225h-4a202 202 0 00 83 396 17709 17709 0 00 1676-347c272-70 542-145 811-226l4 4c-83 50-166 101-250 150a9720 9720 0 01-1196 583c-205 85-415 160-626 233l-5 1a202 202 0 00 110 390 10868 10868 0 00 2004-628 9744 9744 0 00 467-213l7 5-139 115a9338 9338 0 01-893 624c-155 97-313 190-473 281l-2 1a202 202 0 00 175 365 11697 11697 0 00 1047-462 10016 10016 0 00 761-426l125-81 46-32c215-40 1220-716 2060-1793 734-940-507-1615-932-1730-398-107-735 290-939 286-102-30-688-60-790-82l162 605" fill="#BC956B" clip-path="url(#gH)"/><path d="M73459 34738c1007 4753 7769 6765 7769 6765 538 54 2237 97 3820 1135 1596 1082 2446 3768 894 6501a7582 7582 0 01-459 712s728 1414 1797 1683a8240 8240 0 00 840-621c1873-1580 3078-4036 3211-6227 266-4350-3708-7373-4649-8089-5402-4108-12266-2149-13223-1860" fill="#5190B7" clip-path="url(#gH)"/><path d="m51507 39330 72 132s-190 33-253 38c0 0 138-148 180-170m1614-1007-128-134s165-78 220-68c0 0-67 176-92 202" fill="#84245F" clip-path="url(#gH)"/><path d="m71457 36225 213 2148s2146-1727 1789-3635l-554-300c-58 646-521 1285-1448 1788m-1915-439c60 40 432 1008 1049 1198l208 1434s-1525-818-1619-2454l240-323 122 145" fill="#5190B7" clip-path="url(#gH)"/><path d="m70799 38419-91-628s395 270 452 408c58 139 1044 4882 1044 4882l-316 80-1090-4742" fill="#5190B7" clip-path="url(#gH)"/><path d="m71670.4 38372.9 703.6 4658.8-453.8 131.2-647.3-4973.3 343.3-483" fill="#5190B7" clip-path="url(#gH)"/><path d="M70295 35499a2213 2213 0 01-1270 218c-390-55-794-236-1296-696-1140-1043-1578-2414-1926-3550a13564 13564 0 01-500-2430c-163-1435-125-2057-110-2642 3-141 198-955 296-1060 1323-1432 5257-433 5258-428l-23 3c723 164 1694 505 2586 1250 2873 2008-160 8051-3015 9335" fill="#BC956B" clip-path="url(#gH)"/><path d="M73904 32107a2340 2340 0 01-1414 1420 6380 6380 0 00 986-1706c143 95 286 190 428 287" fill="#111010" clip-path="url(#gH)"/><path d="M70316 35579a2220 2220 0 01-1274 219c-392-56-797-237-1301-699-1144-1046-1583-2422-1932-3560a13636 13636 0 01-501-2439c-165-1440-126-2064-112-2650 4-143 200-960 298-1065 1327-1436 5274-434 5275-430 0 1-10 3-23 4 328 74 1261-271 1660-103 485 204 445 948 935 1357 2882 2015-160 8078-3025 9366" fill="#BC956B" clip-path="url(#gH)"/><path d="M73500 31109a239943 239943 0 00 1612-1825 2667 2667 0 00 656-1441c50-438-20-768-108-1181a5595 5595 0 00-474-1340c-280-580-520-853-633-973-364-388-591-434-710-442a835 835 0 00-451 104c-87-259-290-743-750-1174a2893 2893 0 00-1340-702c-670-160-1434 57-2962 490-719 203-1063 335-1434 577-680 442-928 912-992 1042a2282 2282 0 00-162 439 2418 2418 0 00-710 734c-318 514-348 1009-361 1285-13 250 2 543 332 1725 99 357 237 832 418 1391-180-806-110-1400-8-1800 79-310 164-450 315-1055a7686 7686 0 00 256-1735 4425 4425 0 00 947 346c790 189 1433 108 3272-227 731-133 1374-256 1905-360a3960 3960 0 00-55 2422 3970 3970 0 00 1475 2062l-39 1638" fill="#111010" clip-path="url(#gH)"/><path d="M67344 24048a4545 4545 0 00 1403-202 3025 3025 0 01-1128 920 7600 7600 0 00 3302-323 5522 5522 0 01-2503 778 5510 5510 0 01-2292-352 5830 5830 0 00 1828-622 1647 1647 0 01-1283-210l673 11M72900 25914a3431 3431 0 00 117 1261 3463 3463 0 00 908 1512c-164-70-713-330-1026-955-435-869-50-1712 1-1818m620 1070a3727 3727 0 00 1040 1544c-124-30-470-133-740-460-376-457-312-992-300-1084m-8055-497a2000 2000 0 01-30 454c-51 286-137 402-190 686-21 110-44 280-32 498 3-290 7-567 12-864 3-150 8-312 86-504 48-120 109-210 154-270" fill="#484443" clip-path="url(#gH)"/><path d="M73457 31910c90 120 246 165 330 190 305 90 570-27 642-58 248-110 440-430 812-1067 107-182 214-403 427-845 132-273 200-425 166-620-5-29-62-331-270-412-228-89-501 140-847 438a3866 3866 0 00-804 890c-213 330-727 1122-456 1484" fill="#BC956B" clip-path="url(#gH)"/><path d="M67153 30213c-150-10-300 0-445 6-105 10-211 20-316 37v-1c-667-162-826-824-826-824 32-7 130-13 268-18l148-4c299-10 701-14 1032-16h140l452-4s90 604-453 824" fill="#FFF" clip-path="url(#gH)"/><path d="M67019 29491c0 5 0 8-2 13-20 298-294 513-617 486a710 710 0 01-89-15l-15-4-7-1-40-13c-240-81-413-300-415-544l148-4c299-10 702-14 1032-15 3 26 6 51 5 76v21" fill="#3F2E20" clip-path="url(#gH)"/><path d="M71206 29346s-128 670-786 860l-2 1c-105-13-210-18-316-22-146 0-296-2-446 13-552-194-490-800-490-800l296-13 157-6c302-12 700-26 1023-33l148-3c214-4 374-4 416 3" fill="#FFF" clip-path="url(#gH)"/><path d="M70642 29346a598 598 0 01-390 563l-40 15h-7l-15 6c-30 8-58 14-89 18-320 43-604-161-637-457-2-4-2-9-2-13a384 384 0 01 0-93l157-6c302-13 700-26 1023-33" fill="#3F2E20" clip-path="url(#gH)"/><path d="M68472 32897c-475 200-1027 231-1507 84 245 16 489-10 713-73 225-62 430-163 605-290 80-59 197-49 261 22 78 82 40 215-72 257m885-376c464 320 1124 604 1718 596-600 135-1346-43-1950-297-314-143-54-478 232-299" clip-path="url(#gH)"/><path d="M67970 27716c-36 357-40 743-75 1048a4284 4284 0 00-790-706c-112-67-688-434-1140-244-320 133-405 470-444 450-77-40 122-961 627-1098 68-18 133-18 264-18 65 0 332 4 694 120a2978 2978 0 01 864 448m798 147a6106 6106 0 01 211 880c113-97 273-231 470-387 282-224 423-336 580-435 269-170 551-350 953-407 177-25 400-55 660 45 244 94 403 266 520 400-20-120-126-681-628-1007a1355 1355 0 00-530-200 3812 3812 0 00-2236 1110" fill="#111010" clip-path="url(#gH)"/><path d="M68178 28957a9310 9310 0 01-454 1562c-120 320-320 650-209 993a807 807 0 00 773 558c174 0 350-59 503-152a947 947 0 01-500 213c-609 65-1100-580-881-1150 267-676 544-1331 768-2024" fill="#987957" clip-path="url(#gH)"/><path d="M67468 33767c-26-60 570-490 1353-589 498-63 838 39 914 63 450 142 803 440 774 494-29 57-445-223-1045-317-1106-174-1964 420-1996 349" fill="#652B28" clip-path="url(#gH)"/><path d="M68865 33933a1393 1393 0 01 1289 249 3388 3388 0 00-1521-152c55-30 134-66 232-97" fill="#987957" clip-path="url(#gH)"/><path d="M71457 36225a33900 33900 0 01 366 2086l-153-62a6680 6680 0 00 711-730c543-646 1000-1410 1080-2265 15-170 12-343-2-516 43 168 70 342 77 518 10 1260-821 2360-1747 3140l-134 108a35011 35011 0 01-198-2279m-1915-438c283 440 552 1003 1097 1154l7 35 257 1428 23 217-177-110c-874-553-1543-1493-1569-2547a2767 2767 0 00 548 1394 3494 3494 0 00 1120 968l-153 108-160-1441 40 45c-543-209-776-778-1033-1250" fill="#4C6580" clip-path="url(#gH)"/><path d="M71587 37822a39425 39425 0 01 823 5204l3 35c-175 35-350 70-525 100a19180 19180 0 01 477-164l-27 40a39407 39407 0 01-750-5215m-266 1348c8 58-18 109-58 114-40 6-80-36-87-93-8-57 18-108 58-114 40-5 80 37 87 94m-180-815c8 58-18 109-58 114s-80-36-88-94c-7-57 20-108 60-113 40-6 78 36 86 93" fill="#4C6580" clip-path="url(#gH)"/><path d="M71723 40041c8 57-19 108-59 114-40 5-79-37-87-94-7-57 19-108 59-114 40-5 79 37 87 94m121 888c8 57-18 108-58 114-40 5-80-37-87-94-8-57 18-108 58-114 40-5 80 37 87 94m176 961c8 57-18 108-58 114-40 5-79-37-87-94-8-57 19-108 59-114 40-5 79 37 87 94m154 868c8 57-18 108-58 113-40 6-80-36-87-93-8-57 18-108 58-114 40-5 80 37 87 94" fill="#4C6580" clip-path="url(#gH)"/><path d="M13269 67568h83462" fill="none" stroke="#684032" stroke-linecap="round" stroke-miterlimit="10" stroke-width="700" clip-path="url(#gH)"/></g></g></g></svg>
