<?xml version="1.0" encoding="utf-8"?>
<!-- Generator: Adobe Illustrator 16.0.0, SVG Export Plug-In . SVG Version: 6.00 Build 0)  -->
<!DOCTYPE svg PUBLIC "-//W3C//DTD SVG 1.1//EN" "http://www.w3.org/Graphics/SVG/1.1/DTD/svg11.dtd">
<svg version="1.1" id="Layer_1" xmlns="http://www.w3.org/2000/svg" xmlns:xlink="http://www.w3.org/1999/xlink" x="0px" y="0px"
	 width="1000px" height="700px" viewBox="0 0 1000 700" enable-background="new 0 0 1000 700" xml:space="preserve">
<g>
	<g>
		<defs>
			<rect id="SVGID_1_" x="6.056" y="41.567" width="1000" height="700"/>
		</defs>
		<clipPath id="SVGID_2_">
			<use xlink:href="#SVGID_1_"  overflow="visible"/>
		</clipPath>
		<g clip-path="url(#SVGID_2_)">
			<g>
				<defs>
					<rect id="SVGID_3_" x="6.056" y="41.567" width="1000" height="700"/>
				</defs>
				<clipPath id="SVGID_4_">
					<use xlink:href="#SVGID_3_"  overflow="visible"/>
				</clipPath>
				<path clip-path="url(#SVGID_4_)" fill="#E85C47" d="M461.08,689.666C303.82,665.85,176.019,517.164,199.237,351.902
					c19.808-140.941,143.377-250.625,291.559-260.981c10.729-0.752,21.583-0.985,32.537-0.667
					c82.666,2.388,156.114,35.452,210.437,85.487c54.065,49.795,89.192,116.397,95.588,186.271
					C846.39,547.918,656.677,719.289,461.08,689.666"/>
			</g>
			<g>
				<defs>
					<rect id="SVGID_5_" x="6.056" y="41.567" width="1000" height="700"/>
				</defs>
				<clipPath id="SVGID_6_">
					<use xlink:href="#SVGID_5_"  overflow="visible"/>
				</clipPath>
				<g clip-path="url(#SVGID_6_)">
					<g>
						<defs>
							<path id="SVGID_7_" d="M638.628,105.865c-28.758,19.413-48.967,51.433-57.169,84.878
								c-8.841,36.05,3.352,73.364-0.144,109.902c-5.493,57.428-86.887-15.736-70.979,135.28
								c3.512,33.338,9.237,69.809,27.968,98.382c7.768,11.85,23.295,28.315,38.772,27.363
								c21.945-1.347,20.966-32.393,27.771-46.725c7.959-16.753,21.845-29.988,37.273-39.89
								c19.624-12.593,42.377-23.854,50.178-47.632c5.065-15.439-2.558-31.341-12.313-43.352
								c-5.377-6.617-16.835-14.186-15.116-23.939c1.425-8.09,12.792-14.032,18.718-18.297
								c18.229-13.117,35.954-27.251,52.164-42.808c14.549-13.963,39.152-35.144,37.161-57.834
								c-1.604-18.261-20.47-18.177-35.327-16.858c-2.447,0.218-4.787,0.468-6.92,0.677c-6.625,0.645-21.15,4.665-26.158-1.933
								c-8.256-10.886,12.719-29.347,17.999-37.639c6.531-10.259,14.625-21.681,15.938-34.14
								c1.997-18.949-10.982-44.581-27.003-54.477c-7.664-4.734-16.389-6.709-25.337-6.71
								C669.256,90.114,651.594,97.113,638.628,105.865"/>
						</defs>
						<clipPath id="SVGID_8_">
							<use xlink:href="#SVGID_7_"  overflow="visible"/>
						</clipPath>
						
							<linearGradient id="SVGID_9_" gradientUnits="userSpaceOnUse" x1="325.5703" y1="-167.3857" x2="326.5703" y2="-167.3857" gradientTransform="matrix(-201.9464 1563.4464 -1563.4464 -201.9464 -195260.75 -542909.875)">
							<stop  offset="0" style="stop-color:#FF9085"/>
							<stop  offset="1" style="stop-color:#FB6FBB"/>
						</linearGradient>
						<polygon clip-path="url(#SVGID_8_)" fill="url(#SVGID_9_)" points="834.938,97.869 770.304,598.258 434.398,554.869 
							499.032,54.48 						"/>
					</g>
					<g>
						<defs>
							<rect id="SVGID_10_" x="6.056" y="41.567" width="1000" height="700"/>
						</defs>
						<clipPath id="SVGID_11_">
							<use xlink:href="#SVGID_10_"  overflow="visible"/>
						</clipPath>
						<g clip-path="url(#SVGID_11_)">
							<g>
								<defs>
									<path id="SVGID_12_" d="M638.628,105.865c-28.758,19.413-48.967,51.433-57.169,84.878
										c-8.841,36.05,3.352,73.364-0.144,109.902c-5.493,57.428-86.887-15.736-70.979,135.28
										c3.512,33.338,9.237,69.809,27.968,98.382c7.768,11.85,23.295,28.315,38.772,27.363
										c21.945-1.347,20.966-32.393,27.771-46.725c7.959-16.753,21.845-29.988,37.273-39.89
										c19.624-12.593,42.377-23.854,50.178-47.632c5.065-15.439-2.558-31.341-12.313-43.352
										c-5.377-6.617-16.835-14.186-15.116-23.939c1.425-8.09,12.792-14.032,18.718-18.297
										c18.229-13.117,35.954-27.251,52.164-42.808c14.549-13.963,39.152-35.144,37.161-57.834
										c-1.604-18.261-20.47-18.177-35.327-16.858c-2.447,0.218-4.787,0.468-6.92,0.677c-6.625,0.645-21.15,4.665-26.158-1.933
										c-8.256-10.886,12.719-29.347,17.999-37.639c6.531-10.259,14.625-21.681,15.938-34.14
										c1.997-18.949-10.982-44.581-27.003-54.477c-7.664-4.734-16.389-6.709-25.337-6.71
										C669.256,90.114,651.594,97.113,638.628,105.865"/>
								</defs>
								<clipPath id="SVGID_13_">
									<use xlink:href="#SVGID_12_"  overflow="visible"/>
								</clipPath>
								<g clip-path="url(#SVGID_13_)">
									<g opacity="0.8">
										<g>
											<defs>
												<rect id="SVGID_14_" x="516.126" y="72.171" width="222.723" height="528.951"/>
											</defs>
											<defs>
												<rect id="SVGID_15_" x="516.126" y="72.171" width="222.723" height="528.951"/>
											</defs>
											<defs>
												<rect id="SVGID_16_" x="516.126" y="72.171" width="222.723" height="528.951"/>
											</defs>
											<defs>
												<rect id="SVGID_17_" x="516.126" y="72.171" width="222.723" height="528.951"/>
											</defs>
											<defs>
												<rect id="SVGID_18_" x="516.126" y="72.171" width="222.723" height="528.951"/>
											</defs>
											<clipPath id="SVGID_19_">
												<use xlink:href="#SVGID_14_"  overflow="visible"/>
											</clipPath>
											<clipPath id="SVGID_20_" clip-path="url(#SVGID_19_)">
												<use xlink:href="#SVGID_15_"  overflow="visible"/>
											</clipPath>
											<clipPath id="SVGID_21_" clip-path="url(#SVGID_20_)">
												<use xlink:href="#SVGID_16_"  overflow="visible"/>
											</clipPath>
											<clipPath id="SVGID_22_" clip-path="url(#SVGID_21_)">
												<use xlink:href="#SVGID_17_"  overflow="visible"/>
											</clipPath>
											<clipPath id="SVGID_23_" clip-path="url(#SVGID_22_)">
												<use xlink:href="#SVGID_18_"  overflow="visible"/>
											</clipPath>
											<path clip-path="url(#SVGID_23_)" fill="#FFFFFF" d="M620.631,601.122c-0.224,0-0.45-0.066-0.646-0.207
												c-37.458-26.756-55.087-67.606-53.895-124.887c1.041-49.938,15.679-104.121,29.835-156.521
												c11.147-41.265,21.678-80.241,23.596-111.547c1.533-25.083,8.695-47.834,21.285-67.623
												c10.069-15.825,23.607-29.793,40.239-41.515c28.291-19.939,56.158-26.558,56.438-26.622
												c0.599-0.14,1.195,0.234,1.336,0.833c0.139,0.599-0.234,1.197-0.832,1.337c-0.275,0.063-27.78,6.606-55.722,26.318
												c-25.722,18.146-57.101,51.51-60.521,107.408c-1.931,31.532-12.489,70.614-23.667,111.991
												c-27.857,103.117-59.431,219.991,23.202,279.015c0.501,0.357,0.617,1.054,0.259,1.555
												C621.321,600.96,620.979,601.122,620.631,601.122"/>
											<path clip-path="url(#SVGID_23_)" fill="#FFFFFF" d="M621.517,199.493c-0.112,0-0.229-0.017-0.342-0.054
												c-0.3-0.097-7.429-2.473-15.229-11.747c-7.112-8.457-16.16-24.555-18.872-53.221c-0.059-0.612,0.393-1.156,1.004-1.213
												c0.607-0.061,1.155,0.391,1.213,1.004c2.646,27.972,11.379,43.635,18.237,51.85c7.399,8.862,14.265,11.187,14.333,11.208
												c0.584,0.191,0.903,0.819,0.714,1.403C622.422,199.192,621.985,199.493,621.517,199.493"/>
											<path clip-path="url(#SVGID_23_)" fill="#FFFFFF" d="M610.379,269.483c-0.563,0-1.049-0.427-1.105-1.001
												c-0.063-0.611,0.382-1.158,0.993-1.22c0.189-0.02,19.298-2.075,44.337-13.124c23.086-10.188,56.09-30.33,82.214-68.432
												c0.347-0.507,1.04-0.637,1.548-0.289c0.507,0.348,0.637,1.041,0.289,1.548c-26.442,38.567-59.858,58.945-83.234,69.248
												c-25.345,11.169-44.732,13.245-44.927,13.264C610.454,269.481,610.417,269.483,610.379,269.483"/>
											<path clip-path="url(#SVGID_23_)" fill="#FFFFFF" d="M570.179,440.258c-0.123,0-0.248-0.021-0.37-0.063
												c-0.774-0.273-19.169-6.91-34.364-25.501c-8.93-10.925-14.841-23.706-17.568-37.993
												c-3.402-17.807-1.838-37.995,4.647-60.012c0.174-0.591,0.793-0.927,1.384-0.754c0.59,0.174,0.927,0.793,0.753,1.383
												c-14.419,48.95-1.192,79.161,12.441,95.885c14.795,18.146,33.265,24.827,33.448,24.892
												c0.58,0.205,0.884,0.843,0.679,1.42C571.067,439.972,570.638,440.258,570.179,440.258"/>
											<path clip-path="url(#SVGID_23_)" fill="#FFFFFF" d="M576.657,402.673c-0.55,0-1.029-0.408-1.104-0.969
												c-0.08-0.609,0.351-1.169,0.959-1.25c0.892-0.116,89.299-12.126,110.961-45.579c0.336-0.518,1.025-0.664,1.541-0.33
												c0.518,0.334,0.663,1.023,0.329,1.541c-9.354,14.447-31.167,26.68-64.826,36.357
												c-24.954,7.175-47.487,10.189-47.714,10.22C576.754,402.67,576.706,402.673,576.657,402.673"/>
										</g>
									</g>
								</g>
							</g>
							<g>
								<defs>
									<rect id="SVGID_24_" x="6.056" y="41.567" width="1000" height="700"/>
								</defs>
								<clipPath id="SVGID_25_">
									<use xlink:href="#SVGID_24_"  overflow="visible"/>
								</clipPath>
								<g clip-path="url(#SVGID_25_)">
									<g>
										<defs>
											<rect id="SVGID_26_" x="6.056" y="41.567" width="1000" height="700"/>
										</defs>
										<clipPath id="SVGID_27_">
											<use xlink:href="#SVGID_26_"  overflow="visible"/>
										</clipPath>
										<path clip-path="url(#SVGID_27_)" fill="#F5E2D5" d="M859.277,277.255c-7.679-27.671-31.989-48.628-59.802-55.863
											c-16.934-4.406-37.605-5.896-54.877-2.888c-24.292,4.228-44.344,20.074-59.974,38.441
											c-18.365,21.58-20.084,48.324-26.648,74.889c-1.287,5.209-9.776,33.887-16.206,17.08
											c-8.964-23.438-28.956-19.304-28.96-19.303c-15.642,3.235-27.664,14.721-33.447,29.175
											c-15.447,38.608-10.674,88.763-7.405,129.232c1.536,19.035,3.904,37.971,6.728,56.843
											c0.698,4.666,4.049,8.497,8.582,9.801c4.534,1.304,9.412-0.159,12.479-3.743c3.19-3.727,6.534-7.147,9.63-10.16
											c29.761-28.963,76.36-33.25,115.68-34.98c22.958-1.013,41.872-2.473,61.875-14.799
											c8.313-5.122,17.346-11.413,21.198-20.774c3.485-8.467,4.164-22.969-1.085-30.844c-6.538-9.809-21.061-9.19-29.703-16.414
											c-13.967-11.673,22.563-19.797,29.92-22.162c11.73-3.771,19.508-13.126,28.296-21.239
											c6.713-6.194,13.025-12.938,17.896-20.7C868.334,335.133,866.507,303.307,859.277,277.255"/>
									</g>
									<g>
										<defs>
											<rect id="SVGID_28_" x="6.056" y="41.567" width="1000" height="700"/>
										</defs>
										<clipPath id="SVGID_29_">
											<use xlink:href="#SVGID_28_"  overflow="visible"/>
										</clipPath>
										<g clip-path="url(#SVGID_29_)">
											<g>
												<defs>
													<path id="SVGID_30_" d="M744.6,218.503c-24.291,4.229-44.344,20.075-59.974,38.442
														c-18.365,21.58-20.084,48.325-26.649,74.889c-1.285,5.208-9.775,33.889-16.205,17.08
														c-8.964-23.438-28.955-19.304-28.96-19.303c-15.642,3.235-27.665,14.72-33.447,29.174
														c-15.447,38.609-10.673,88.766-7.405,129.232c1.537,19.036,3.904,37.972,6.727,56.844
														c0.699,4.666,4.05,8.497,8.583,9.8c4.534,1.305,9.411-0.158,12.48-3.742c3.19-3.727,6.533-7.147,9.628-10.159
														c29.762-28.964,76.361-33.25,115.681-34.981c22.957-1.013,41.872-2.473,61.875-14.8
														c8.313-5.121,17.345-11.412,21.199-20.773c3.484-8.468,4.163-22.969-1.087-30.843
														c-6.537-9.81-21.059-9.191-29.702-16.416c-13.967-11.672,22.563-19.796,29.92-22.161
														c11.731-3.771,19.508-13.127,28.296-21.237c6.713-6.196,13.025-12.94,17.896-20.702
														c14.88-23.71,13.052-55.537,5.822-81.589c-7.678-27.671-31.987-48.629-59.801-55.864
														c-10.892-2.833-23.335-4.46-35.421-4.46C757.354,216.932,750.761,217.432,744.6,218.503"/>
												</defs>
												<clipPath id="SVGID_31_">
													<use xlink:href="#SVGID_30_"  overflow="visible"/>
												</clipPath>
												<g clip-path="url(#SVGID_31_)">
													<g opacity="0.8">
														<g>
															<defs>
																<rect id="SVGID_32_" x="572.962" y="215.817" width="329.398" height="348.784"/>
															</defs>
															<defs>
																<rect id="SVGID_33_" x="572.962" y="215.817" width="329.398" height="348.784"/>
															</defs>
															<defs>
																<rect id="SVGID_34_" x="572.962" y="215.817" width="329.398" height="348.784"/>
															</defs>
															<defs>
																<rect id="SVGID_35_" x="572.962" y="215.817" width="329.398" height="348.784"/>
															</defs>
															<defs>
																<rect id="SVGID_36_" x="572.962" y="215.817" width="329.398" height="348.784"/>
															</defs>
															<clipPath id="SVGID_37_">
																<use xlink:href="#SVGID_32_"  overflow="visible"/>
															</clipPath>
															<clipPath id="SVGID_38_" clip-path="url(#SVGID_37_)">
																<use xlink:href="#SVGID_33_"  overflow="visible"/>
															</clipPath>
															<clipPath id="SVGID_39_" clip-path="url(#SVGID_38_)">
																<use xlink:href="#SVGID_34_"  overflow="visible"/>
															</clipPath>
															<clipPath id="SVGID_40_" clip-path="url(#SVGID_39_)">
																<use xlink:href="#SVGID_35_"  overflow="visible"/>
															</clipPath>
															<clipPath id="SVGID_41_" clip-path="url(#SVGID_40_)">
																<use xlink:href="#SVGID_36_"  overflow="visible"/>
															</clipPath>
															<path clip-path="url(#SVGID_41_)" fill="#FFFFFF" d="M574.075,564.602c-0.159,0-0.32-0.033-0.476-0.106
																c-0.556-0.262-0.795-0.925-0.531-1.482c0.367-0.775,37.218-78.644,88.078-158.45
																c29.887-46.896,58.693-85.284,85.626-114.1c33.767-36.129,64.709-57.261,91.966-62.809
																c0.604-0.123,1.189,0.267,1.313,0.869c0.123,0.603-0.267,1.191-0.869,1.313
																c-26.795,5.455-57.339,26.363-90.782,62.147c-26.837,28.716-55.563,66.996-85.374,113.776
																c-50.785,79.689-87.576,157.429-87.942,158.204C574.894,564.365,574.493,564.602,574.075,564.602"/>
															<path clip-path="url(#SVGID_41_)" fill="#FFFFFF" d="M706.52,341.77c-0.058,0-0.116-0.004-0.177-0.014
																c-0.606-0.097-1.021-0.668-0.924-1.275c0.168-1.05,16.576-105.216,0.282-122.793
																c-0.418-0.451-0.393-1.155,0.061-1.574c0.451-0.418,1.156-0.39,1.573,0.06
																c17.024,18.366,0.975,120.327,0.282,124.658C707.53,341.38,707.058,341.77,706.52,341.77"/>
															<path clip-path="url(#SVGID_41_)" fill="#FFFFFF" d="M901.245,287.838c-0.202,0-0.406-0.054-0.589-0.169
																c-43.684-27.303-134.561-13.044-135.475-12.897c-0.607,0.097-1.179-0.315-1.275-0.922
																c-0.099-0.607,0.314-1.179,0.922-1.277c0.229-0.037,23.335-3.713,51.585-3.928
																c26.14-0.205,62.188,2.612,85.423,17.135c0.522,0.326,0.681,1.013,0.354,1.535
																C901.979,287.653,901.616,287.838,901.245,287.838"/>
															<path clip-path="url(#SVGID_41_)" fill="#FFFFFF" d="M610.738,493.482c-0.083,0-0.168-0.01-0.252-0.028
																c-0.6-0.14-0.974-0.737-0.834-1.336c11.922-51.522-32.782-126.642-33.235-127.394
																c-0.316-0.525-0.146-1.211,0.38-1.527c0.528-0.316,1.212-0.146,1.528,0.379c0.115,0.189,11.545,19.291,21.328,44.572
																c9.054,23.397,18.515,57.046,12.169,84.472C611.703,493.135,611.244,493.482,610.738,493.482"/>
															<path clip-path="url(#SVGID_41_)" fill="#FFFFFF" d="M647.698,429.374c-0.467,0-0.902-0.297-1.058-0.765
																c-0.192-0.584,0.125-1.215,0.709-1.406c0.398-0.132,40.502-13.284,89.071-22.813
																c44.907-8.809,106.46-16.23,144.675-1.563c0.574,0.221,0.86,0.865,0.641,1.438c-0.221,0.575-0.864,0.861-1.438,0.643
																c-37.721-14.479-98.827-7.084-143.448,1.67c-48.434,9.502-88.403,22.608-88.802,22.741
																C647.932,429.356,647.814,429.374,647.698,429.374"/>
														</g>
													</g>
												</g>
											</g>
											<g>
												<defs>
													<rect id="SVGID_42_" x="6.056" y="41.567" width="1000" height="700"/>
												</defs>
												<clipPath id="SVGID_43_">
													<use xlink:href="#SVGID_42_"  overflow="visible"/>
												</clipPath>
												<g clip-path="url(#SVGID_43_)">
													<g>
														<defs>
															<path id="SVGID_44_" d="M277.095,623.357l-119.853,14.855v10.979c0,1.824,0.883,3.396,2.085,3.707l112.961,21.293
																c0.312,0.077,0.624,0.145,0.937,0.202c1.195,0.207,2.404,0.238,3.608,0.071l162.126-14.692
																c1.806-0.24,3.173-2.438,3.173-5.099v-10.393l-104.505-21.729l-20.704-6.025l-9.059,1.735l-15.341-2.209
																L277.095,623.357z"/>
														</defs>
														<clipPath id="SVGID_45_">
															<use xlink:href="#SVGID_44_"  overflow="visible"/>
														</clipPath>
														
															<linearGradient id="SVGID_46_" gradientUnits="userSpaceOnUse" x1="324.8384" y1="-167.1924" x2="325.8384" y2="-167.1924" gradientTransform="matrix(284.8899 0 0 284.8899 -92385.9063 48276.875)">
															<stop  offset="0" style="stop-color:#FFC444"/>
															<stop  offset="0.9964" style="stop-color:#F36F56"/>
															<stop  offset="1" style="stop-color:#F36F56"/>
														</linearGradient>
														<rect x="157.242" y="616.057" clip-path="url(#SVGID_45_)" fill="url(#SVGID_46_)" width="284.89" height="58.577"/>
													</g>
													<g>
														<defs>
															<rect id="SVGID_47_" x="6.056" y="41.567" width="1000" height="700"/>
														</defs>
														<clipPath id="SVGID_48_">
															<use xlink:href="#SVGID_47_"  overflow="visible"/>
														</clipPath>
														<g clip-path="url(#SVGID_48_)">
															<g>
																<defs>
																	<rect id="SVGID_49_" x="6.056" y="41.567" width="1000" height="700"/>
																</defs>
																<clipPath id="SVGID_50_">
																	<use xlink:href="#SVGID_49_"  overflow="visible"/>
																</clipPath>
																<g clip-path="url(#SVGID_50_)">
																	<g>
																		<g opacity="0.3">
																			<defs>
																				<rect id="SVGID_51_" x="273.239" y="616.056" opacity="0.3" width="168.893" height="58.515"/>
																			</defs>
																			<clipPath id="SVGID_52_">
																				<use xlink:href="#SVGID_51_"  overflow="visible"/>
																			</clipPath>
																			<g clip-path="url(#SVGID_52_)">
																				<g>
																					<defs>
																						<path id="SVGID_53_" d="M442.132,644.283v10.393c0,2.659-1.367,4.857-3.174,5.099L276.84,674.466
																							c-1.203,0.167-2.704,0.127-3.601-0.073v-55.979l19.292-2.358l15.336,2.21l9.057-1.735l20.704,6.025
																							L442.132,644.283z"/>
																					</defs>
																					<clipPath id="SVGID_54_">
																						<use xlink:href="#SVGID_53_"  overflow="visible"/>
																					</clipPath>
																					
																						<linearGradient id="SVGID_55_" gradientUnits="userSpaceOnUse" x1="326.5381" y1="-166.4766" x2="327.5381" y2="-166.4766" gradientTransform="matrix(-48.1506 132.7178 -132.7178 -48.1506 -5998.7422 -50749.2617)">
																						<stop  offset="0" style="stop-color:#FFC444"/>
																						<stop  offset="0.5917" style="stop-color:#F8924F"/>
																						<stop  offset="0.9964" style="stop-color:#F36F56"/>
																						<stop  offset="1" style="stop-color:#F36F56"/>
																					</linearGradient>
																					<polygon clip-path="url(#SVGID_54_)" fill="url(#SVGID_55_)" points="460.912,622.869 422.486,728.78 
																						254.458,667.819 292.884,561.907 																					"/>
																				</g>
																			</g>
																		</g>
																	</g>
																	<g>
																		<defs>
																			<rect id="SVGID_56_" x="6.056" y="41.567" width="1000" height="700"/>
																		</defs>
																		<clipPath id="SVGID_57_">
																			<use xlink:href="#SVGID_56_"  overflow="visible"/>
																		</clipPath>
																		<g clip-path="url(#SVGID_57_)">
																			<g>
																				<defs>
																					<path id="SVGID_58_" d="M157.242,637.726l115.175,21.693c1.418,0.362,2.859,0.447,4.286,0.252l165.429-15.388
																						l-125.209-27.754L157.242,637.726z"/>
																				</defs>
																				<clipPath id="SVGID_59_">
																					<use xlink:href="#SVGID_58_"  overflow="visible"/>
																				</clipPath>
																				
																					<linearGradient id="SVGID_60_" gradientUnits="userSpaceOnUse" x1="326.4805" y1="-166.5078" x2="327.4799" y2="-166.5078" gradientTransform="matrix(-51.0051 140.5856 -140.5856 -51.0051 -6437.25 -53807.2109)">
																					<stop  offset="0" style="stop-color:#FFC444"/>
																					<stop  offset="0.5917" style="stop-color:#F8924F"/>
																					<stop  offset="0.9964" style="stop-color:#F36F56"/>
																					<stop  offset="1" style="stop-color:#F36F56"/>
																				</linearGradient>
																				<polygon clip-path="url(#SVGID_59_)" fill="url(#SVGID_60_)" points="456.026,621.57 408.994,751.203 
																					143.348,654.825 190.379,525.192 																				"/>
																			</g>
																			<g>
																				<defs>
																					<rect id="SVGID_61_" x="6.056" y="41.567" width="1000" height="700"/>
																				</defs>
																				<clipPath id="SVGID_62_">
																					<use xlink:href="#SVGID_61_"  overflow="visible"/>
																				</clipPath>
																				<g clip-path="url(#SVGID_62_)">
																					<g>
																						<defs>
																							<path id="SVGID_63_" d="M281.68,444.102l-16.884,44.127l-13.574,35.489l-17.734,46.359l-12.664,33.08
																								l-10.487,27.413c-0.069,0.145-0.126,0.283-0.17,0.437l-0.188,0.451l0.063,0.001
																								c-0.038-0.001-0.063,0.461-0.063,0.674c0,9.363,36.536,17.821,82.005,18.87
																								c9.249,0.214,18.166,0.107,26.505-0.276c33.036-1.534,56.969-7.446,56.969-15.052
																								c0-0.757-0.385-1.51-0.847-2.246l-10.729-27.612l-0.206-0.021v-0.01l-12.882-33.979v-0.011l-17.943-47.29
																								l-13.598-35.957l-17.027-44.438c-1.832-4.788-5.022-8.005-8.593-8.784c-0.556-0.127-1.119-0.186-1.695-0.186
																								C287.707,435.142,283.792,438.576,281.68,444.102"/>
																						</defs>
																						<clipPath id="SVGID_64_">
																							<use xlink:href="#SVGID_63_"  overflow="visible"/>
																						</clipPath>
																						
																							<linearGradient id="SVGID_65_" gradientUnits="userSpaceOnUse" x1="325.7764" y1="-166.9414" x2="326.7764" y2="-166.9414" gradientTransform="matrix(-10.3673 337.588 -337.588 -10.3673 -52682.0781 -111336.0625)">
																							<stop  offset="0" style="stop-color:#FFC444"/>
																							<stop  offset="0.9964" style="stop-color:#F36F56"/>
																							<stop  offset="1" style="stop-color:#F36F56"/>
																						</linearGradient>
																						<polygon clip-path="url(#SVGID_64_)" fill="url(#SVGID_65_)" points="382.087,435.345 375.302,656.294 
																							203.349,651.013 210.135,430.064 																						"/>
																					</g>
																					<g>
																						<defs>
																							<rect id="SVGID_66_" x="6.056" y="41.567" width="1000" height="700"/>
																						</defs>
																						<clipPath id="SVGID_67_">
																							<use xlink:href="#SVGID_66_"  overflow="visible"/>
																						</clipPath>
																						<g clip-path="url(#SVGID_67_)">
																							<g>
																								<defs>
																									<rect id="SVGID_68_" x="6.056" y="41.567" width="1000" height="700"/>
																								</defs>
																								<defs>
																									<rect id="SVGID_69_" x="6.056" y="41.567" width="1000" height="700"/>
																								</defs>
																								<defs>
																									<rect id="SVGID_70_" x="6.056" y="41.567" width="1000" height="700"/>
																								</defs>
																								<clipPath id="SVGID_71_">
																									<use xlink:href="#SVGID_68_"  overflow="visible"/>
																								</clipPath>
																								<clipPath id="SVGID_72_" clip-path="url(#SVGID_71_)">
																									<use xlink:href="#SVGID_69_"  overflow="visible"/>
																								</clipPath>
																								<clipPath id="SVGID_73_" clip-path="url(#SVGID_72_)">
																									<use xlink:href="#SVGID_70_"  overflow="visible"/>
																								</clipPath>
																								<path clip-path="url(#SVGID_73_)" fill="#FFFFFF" d="M363.882,605.814
																									c-10.353,3.459-26.901,5.949-46.714,6.877c-7.985,0.376-16.433,0.497-25.234,0.33
																									c-30.55-0.581-57.038-4.512-71.135-9.857l12.676-33.082c14.833,3.336,35.506,5.586,58.484,5.932
																									c7.43,0.112,14.67,0.017,21.565-0.261c14.509-0.574,27.302-1.967,37.38-3.945l12.772,33.979v0.01
																									L363.882,605.814z"/>
																								<path clip-path="url(#SVGID_73_)" fill="#FFFFFF" d="M333.007,524.506
																									c-7.901,0.854-16.588,1.435-25.804,1.696c-4.938,0.146-10.024,0.193-15.219,0.144
																									c-14.87-0.145-28.778-1.096-40.762-2.627l13.574-35.489c8.495,0.671,17.644,1.055,27.188,1.109
																									c3.371,0.02,6.694-0.001,9.955-0.069c5.982-0.11,11.78-0.352,17.315-0.721L333.007,524.506z"/>
																								<g clip-path="url(#SVGID_73_)">
																									<g>
																										<g opacity="0.2">
																											<defs>
																												<rect id="SVGID_74_" x="209.979" y="435.142" opacity="0.2" width="108.798" height="215.971"/>
																											</defs>
																											<clipPath id="SVGID_75_">
																												<use xlink:href="#SVGID_74_"  overflow="visible"/>
																											</clipPath>
																											<g clip-path="url(#SVGID_75_)">
																												<g>
																													
																														<linearGradient id="SVGID_76_" gradientUnits="userSpaceOnUse" x1="323.7681" y1="-166.6953" x2="324.7681" y2="-166.6953" gradientTransform="matrix(108.7985 0 0 108.7985 -35015.4727 18679.3594)">
																														<stop  offset="0" style="stop-color:#FFC444"/>
																														<stop  offset="0.9964" style="stop-color:#F36F56"/>
																														<stop  offset="1" style="stop-color:#F36F56"/>
																													</linearGradient>
																													<rect x="209.979" y="435.142" fill="url(#SVGID_76_)" width="109.185" height="216.075"/>
																												</g>
																											</g>
																										</g>
																									</g>
																									<g>
																										<defs>
																											<rect id="SVGID_77_" x="6.056" y="41.567" width="1000" height="700"/>
																										</defs>
																										<clipPath id="SVGID_78_">
																											<use xlink:href="#SVGID_77_"  overflow="visible"/>
																										</clipPath>
																										<g clip-path="url(#SVGID_78_)">
																											<g>
																												<defs>
																													<rect id="SVGID_79_" x="256.103" y="221.099" width="500.09" height="478.901"/>
																												</defs>
																												<defs>
																													<rect id="SVGID_80_" x="256.103" y="221.099" width="500.09" height="478.901"/>
																												</defs>
																												<defs>
																													<rect id="SVGID_81_" x="256.103" y="221.099" width="500.09" height="478.901"/>
																												</defs>
																												<defs>
																													<rect id="SVGID_82_" x="256.103" y="221.099" width="500.09" height="478.901"/>
																												</defs>
																												<defs>
																													<rect id="SVGID_83_" x="256.103" y="221.099" width="500.09" height="478.901"/>
																												</defs>
																												<defs>
																													<rect id="SVGID_84_" x="256.103" y="221.099" width="500.09" height="478.901"/>
																												</defs>
																												<defs>
																													<rect id="SVGID_85_" x="256.103" y="221.099" width="500.09" height="478.901"/>
																												</defs>
																												<defs>
																													<rect id="SVGID_86_" x="256.103" y="221.099" width="500.09" height="478.901"/>
																												</defs>
																												<defs>
																													<rect id="SVGID_87_" x="256.103" y="221.099" width="500.09" height="478.901"/>
																												</defs>
																												<defs>
																													<rect id="SVGID_88_" x="256.103" y="221.099" width="500.09" height="478.901"/>
																												</defs>
																												<defs>
																													<rect id="SVGID_89_" x="256.103" y="221.099" width="500.09" height="478.901"/>
																												</defs>
																												<defs>
																													<rect id="SVGID_90_" x="256.103" y="221.099" width="500.09" height="478.901"/>
																												</defs>
																												<defs>
																													<rect id="SVGID_91_" x="256.103" y="221.099" width="500.09" height="478.901"/>
																												</defs>
																												<defs>
																													<rect id="SVGID_92_" x="256.103" y="221.099" width="500.09" height="478.901"/>
																												</defs>
																												<defs>
																													<rect id="SVGID_93_" x="256.103" y="221.099" width="500.09" height="478.901"/>
																												</defs>
																												<defs>
																													<rect id="SVGID_94_" x="256.103" y="221.099" width="500.09" height="478.901"/>
																												</defs>
																												<defs>
																													<rect id="SVGID_95_" x="256.103" y="221.099" width="500.09" height="478.901"/>
																												</defs>
																												<defs>
																													<rect id="SVGID_96_" x="256.103" y="221.099" width="500.09" height="478.901"/>
																												</defs>
																												<defs>
																													<rect id="SVGID_97_" x="256.103" y="221.099" width="500.09" height="478.901"/>
																												</defs>
																												<defs>
																													<rect id="SVGID_98_" x="256.103" y="221.099" width="500.09" height="478.901"/>
																												</defs>
																												<defs>
																													<rect id="SVGID_99_" x="256.103" y="221.099" width="500.09" height="478.901"/>
																												</defs>
																												<defs>
																													<rect id="SVGID_100_" x="256.103" y="221.099" width="500.09" height="478.901"/>
																												</defs>
																												<clipPath id="SVGID_101_">
																													<use xlink:href="#SVGID_79_"  overflow="visible"/>
																												</clipPath>
																												<clipPath id="SVGID_102_" clip-path="url(#SVGID_101_)">
																													<use xlink:href="#SVGID_80_"  overflow="visible"/>
																												</clipPath>
																												<clipPath id="SVGID_103_" clip-path="url(#SVGID_102_)">
																													<use xlink:href="#SVGID_81_"  overflow="visible"/>
																												</clipPath>
																												<clipPath id="SVGID_104_" clip-path="url(#SVGID_103_)">
																													<use xlink:href="#SVGID_82_"  overflow="visible"/>
																												</clipPath>
																												<clipPath id="SVGID_105_" clip-path="url(#SVGID_104_)">
																													<use xlink:href="#SVGID_83_"  overflow="visible"/>
																												</clipPath>
																												<clipPath id="SVGID_106_" clip-path="url(#SVGID_105_)">
																													<use xlink:href="#SVGID_84_"  overflow="visible"/>
																												</clipPath>
																												<clipPath id="SVGID_107_" clip-path="url(#SVGID_106_)">
																													<use xlink:href="#SVGID_85_"  overflow="visible"/>
																												</clipPath>
																												<clipPath id="SVGID_108_" clip-path="url(#SVGID_107_)">
																													<use xlink:href="#SVGID_86_"  overflow="visible"/>
																												</clipPath>
																												<clipPath id="SVGID_109_" clip-path="url(#SVGID_108_)">
																													<use xlink:href="#SVGID_87_"  overflow="visible"/>
																												</clipPath>
																												<clipPath id="SVGID_110_" clip-path="url(#SVGID_109_)">
																													<use xlink:href="#SVGID_88_"  overflow="visible"/>
																												</clipPath>
																												<clipPath id="SVGID_111_" clip-path="url(#SVGID_110_)">
																													<use xlink:href="#SVGID_89_"  overflow="visible"/>
																												</clipPath>
																												<clipPath id="SVGID_112_" clip-path="url(#SVGID_111_)">
																													<use xlink:href="#SVGID_90_"  overflow="visible"/>
																												</clipPath>
																												<clipPath id="SVGID_113_" clip-path="url(#SVGID_112_)">
																													<use xlink:href="#SVGID_91_"  overflow="visible"/>
																												</clipPath>
																												<clipPath id="SVGID_114_" clip-path="url(#SVGID_113_)">
																													<use xlink:href="#SVGID_92_"  overflow="visible"/>
																												</clipPath>
																												<clipPath id="SVGID_115_" clip-path="url(#SVGID_114_)">
																													<use xlink:href="#SVGID_93_"  overflow="visible"/>
																												</clipPath>
																												<clipPath id="SVGID_116_" clip-path="url(#SVGID_115_)">
																													<use xlink:href="#SVGID_94_"  overflow="visible"/>
																												</clipPath>
																												<clipPath id="SVGID_117_" clip-path="url(#SVGID_116_)">
																													<use xlink:href="#SVGID_95_"  overflow="visible"/>
																												</clipPath>
																												<clipPath id="SVGID_118_" clip-path="url(#SVGID_117_)">
																													<use xlink:href="#SVGID_96_"  overflow="visible"/>
																												</clipPath>
																												<clipPath id="SVGID_119_" clip-path="url(#SVGID_118_)">
																													<use xlink:href="#SVGID_97_"  overflow="visible"/>
																												</clipPath>
																												<clipPath id="SVGID_120_" clip-path="url(#SVGID_119_)">
																													<use xlink:href="#SVGID_98_"  overflow="visible"/>
																												</clipPath>
																												<clipPath id="SVGID_121_" clip-path="url(#SVGID_120_)">
																													<use xlink:href="#SVGID_99_"  overflow="visible"/>
																												</clipPath>
																												<clipPath id="SVGID_122_" clip-path="url(#SVGID_121_)">
																													<use xlink:href="#SVGID_100_"  overflow="visible"/>
																												</clipPath>
																												<path clip-path="url(#SVGID_122_)" fill="#B081C6" d="M587.241,697.376
																													c3.599,27.354,7.721,53.706,12.23,79.012c14.796,17.558,30.71,38.693,46.162,63.587
																													c13.735,22.122,24.606,43.188,33.235,62.229c-17.115,13.853-70.93,53.773-150.675,56.583
																													c-90.777,3.195-152.876-43.896-168.589-56.583c19.904-61.301,31.974-85.462,39.63-94.567
																													c2.629-3.126,9.228-9.822,11.858-19.391c0.992-3.608,4.563-18.953,4.813-20.047
																													c0.056-0.244,0.117-0.521,0.173-0.766c0.083-0.446,0.159-0.917,0.223-1.404
																													c0.047-0.354,0.085-0.698,0.117-1.03c0.371-2.372,0.901-6.179,1.266-10.898
																													c0.399-5.202,0.421-9.114,0.421-10.524c0-16.179,0.658-86.359,0.658-86.359
																													c-0.862,5.484-2.348,12.236-5.012,19.593c-4.684,12.93-10.89,21.427-12.091,23.197
																													c-6.607,9.759-11.043,85.649-12.175,167.631c-14.658,14.313-22.465,17.29-27.907,16.769
																													c0,0-4.654-0.492-9.021-3.388C332.168,867.507,337.441,774.109,337.097,700
																													c-0.042-9.349-0.302-45.836,4.97-92.832c3.423-30.53,7.635-51.69,24.044-66.761
																													c2.048-1.881,10.527-6.845,27.484-16.771c35.629-20.853,44.371-23.855,48.396-25.145
																													c18.814-6.021,33.547-6.191,37.959-6.26c7.452-0.111,15.485,0.701,25.438,2.853
																													c48.284,10.425,72.639,14.631,93.735,27.061c8.385,4.939,20.841,13.313,34.116,26.86
																													c15.931,45.945,31.461,102.561,40.976,168.297c7.576,52.353,9.8,99.903,9.336,140.943
																													c-18.13,3.347-24.753-1.118-42.882,2.228c-13.648-44.548-23.338-120.075-36.986-164.623v-0.03
																													c-11.491-24.551-20.972-50.087-22.713-52.688C582.734,660.804,584.813,678.894,587.241,697.376"/>
																												<path clip-path="url(#SVGID_122_)" fill="#8962A0" d="M417.688,754.101
																													c0.27-3.527,0.421-7.027,0.421-10.525c0-16.176,0.659-86.358,0.659-86.358s-4.561,30.859-17.104,42.791
																													l20.404-93.325C431.339,629.078,422.008,718.218,417.688,754.101"/>
																												<path clip-path="url(#SVGID_122_)" fill="#CB845F" d="M521.637,506.242
																													c-19.832,26.074-26.464,52.927-32.945,80.316c-8.67-33.399-33.096-57.98-52.987-77.268
																													c0,0,5.941-7.237,11.011-14.442c1.62-2.303,3.15-4.605,4.353-6.639c0.209-0.3,0.39-0.598,0.539-0.867
																													c0.271-0.449,0.479-0.839,0.689-1.227c0.031-0.03,0.031-0.03,0.031-0.061
																													c0.24-0.419,0.42-0.808,0.6-1.166c1.44-2.961,2.07-8.253,2.28-13.725c0.03-0.69,0.03-1.377,0.06-2.064
																													c0.181-8.372-0.421-16.445-0.421-16.445l1.921,0.029l57.098,0.776c0,0-0.392,7.059-1.079,17.822
																													c-0.18,2.96-0.419,6.221-0.63,9.658v0.062c-0.183,2.211-0.091,4.336,0.18,6.278
																													c0.089,0.838,0.239,1.615,0.39,2.393c0.691,3.469,1.861,6.399,3.151,8.852
																													C518.546,503.552,521.637,506.242,521.637,506.242"/>
																												<path clip-path="url(#SVGID_122_)" fill="#875843" d="M512.155,481.005
																													c-0.183,2.211-0.091,4.336,0.18,6.278c0.089,0.838,0.239,1.615,0.39,2.393
																													c-8.579,7.714-20.701,15.191-30.755,15.041c-15.542-0.358-26.043-8.611-30.903-16.506
																													c0.21-0.3,0.391-0.598,0.54-0.867c0.271-0.449,0.479-0.838,0.69-1.227c0.03-0.03,0.03-0.03,0.03-0.061
																													c0.24-0.419,0.42-0.808,0.6-1.166c1.44-2.961,2.069-8.253,2.28-13.725c0.03-0.69,0.03-1.377,0.06-2.064
																													c0.841-3.02,1.261-7.146,1.41-11.332c0.061-1.705,0.09-3.438,0.09-5.084l57.1,0.776
																													c0,0-0.39,7.059-1.081,17.822c-0.18,2.96-0.419,6.221-0.63,9.658V481.005L512.155,481.005z"/>
																												<path clip-path="url(#SVGID_122_)" fill="#B081C6" d="M453.379,487.896c0,0-10.148,7.146-8.038,18.236
																													c2.11,11.088,21.452,26.594,21.452,26.594l-8.383,35.02c0,0-38.365-32.645-20.982-67.928
																													c0.721-1.461,1.821-2.709,3.188-3.601L453.379,487.896z"/>
																												<path clip-path="url(#SVGID_122_)" fill="#B081C6" d="M512.826,490.258c0,0,4.843,3.853,3.731,14.635
																													c-1.154,11.229-21.596,27.295-21.596,27.295l9.73,34.67c0,0,36.661-35.563,18.169-69.354
																													c-0.565-1.027-1.488-1.821-2.48-2.448L512.826,490.258z"/>
																												<path clip-path="url(#SVGID_122_)" fill="#474B4F" d="M453.379,487.896
																													c-7.391,6.146-10.353,15.791-4.667,24.063c5.126,7.84,12.354,14.337,19.574,20.251
																													c-1.388,6.13-2.802,12.253-4.259,18.363c-1.56,6.637-3.135,13.296-4.771,19.915l-1.804-1.625
																													c-18.609-16.742-33.487-44.993-20.024-69.046c-0.324,0.771-1.008,2.594-1.313,3.328
																													c-0.197,0.691-0.842,2.683-1.059,3.405c-5.351,19.502,4.761,39.245,17.694,53.462
																													c2.092,2.321,4.32,4.604,6.616,6.613l-2.394,0.777c2.755-11.685,5.591-23.348,8.514-34.988l0.464,1.352
																													c-7.898-6.911-19.059-17.12-21.342-27.632C443.425,498.954,447.633,491.826,453.379,487.896"/>
																												<path clip-path="url(#SVGID_122_)" fill="#474B4F" d="M494.963,532.188
																													c3.749,10.815,7.626,23.348,10.954,34.33l-2.108-0.566c5.002-5.262,9.451-11.269,13.191-17.508
																													c7.909-13.136,12.71-29.155,7.926-44.205c-0.556-1.481-1.278-3.694-1.998-5.099
																													c-0.303-0.63-0.726-1.79-1.236-2.311c-0.947-1.209-3.085-2.349-4.313-3.317l-4.552-3.254
																													c1.661,0.919,5.73,3.213,7.313,4.121c1.235,0.657,2.59,1.622,3.304,2.921l0.68,1.242
																													c0.868,1.369,1.768,3.622,2.426,5.132c8.666,23.116-4.801,47.743-20.97,64.091l-1.563,1.554
																													l-0.545-2.119C500.608,556.072,497.381,543.385,494.963,532.188"/>
																												<path clip-path="url(#SVGID_122_)" fill="#8962A0" d="M587.243,697.376
																													c1.05,6.817,2.52,14.292,4.56,22.307c-13.352-29.033-17.971-106.393-17.971-106.393
																													c6.569,13.813,13.141,27.63,19.741,41.444c3.36,13.695,6.721,27.39,10.109,41.086
																													c-11.489-24.551-20.972-50.087-22.713-52.688C578.69,652.61,581.36,673.004,587.243,697.376"/>
																												<path clip-path="url(#SVGID_122_)" fill="#462F2E" d="M405.95,395.085h-8.811
																													c3.414-3.243,6.826-6.485,10.237-9.729c-1.915,0.16-4.164,0.209-6.665,0
																													c-3.389-0.28-6.285-0.953-8.571-1.66c6.296-6.479,9.861-12.614,11.904-16.846
																													c6.723-13.924,6.805-27.58,6.905-43.896c0.037-6.293-0.234-11.476-0.478-14.948
																													c7.618,0.949,15.237,1.897,22.855,2.846c1.272-4.152,3.52-9.706,7.618-15.421
																													c7.473-10.42,16.923-15.545,21.902-17.795c14.483,3.688,26.31,7.498,34.761,10.44
																													c35.515,12.357,43.054,20.324,46.662,24.913c7.565,9.618,9.562,19.26,10,21.591
																													c2.459,13.065-1.202,23.674-3.097,28.234c6.111,5.379,12.222,10.756,18.332,16.135
																													c-2.385-0.188-4.849-0.422-7.38-0.713c-2.46-0.281-4.841-0.601-7.144-0.947
																													c1.521,1.632,4.406,4.273,8.811,5.932c2.579,0.971,4.915,1.313,6.666,1.424
																													c-2.283,2.08-5.509,4.563-9.761,6.644c-7.42,3.632-14.287,4.241-18.333,4.271
																													c1.657,11.341,5.286,25.584,13.333,40.336c2.064,3.789,4.235,7.266,6.428,10.439
																													c-4.047-0.791-8.095-1.581-12.141-2.372c5.633,6.326,11.268,12.653,16.901,18.981
																													c-2.737,0.145-7.036,0.021-11.905-1.662c-7.174-2.479-11.594-6.96-13.569-9.253
																													c1.942,4.92,4.86,10.97,9.285,17.321c3.384,4.852,6.875,8.775,10.001,11.862
																													c-3.344-0.503-7.87-1.539-12.856-3.796c-4.645-2.104-8.206-4.594-10.715-6.645
																													c-0.19,1.414-0.606,5.875,2.144,10.202c1.479,2.326,3.317,3.735,4.522,4.509
																													c-2.754,0.026-7.52-0.313-12.617-2.849c-2.535-1.261-4.504-2.742-5.952-4.033
																													c0.716,2.929,1.428,5.854,2.145,8.779c-2.364-1.259-5.857-3-10.238-4.746c0,0-6.169-2.458-11.427-3.796
																													c-9.864-2.509-19.75,1.202-48.331,10.914c-6.313,2.146-11.347,3.84-14.046,4.746
																													c0.507-3.032,0.85-6.917,0.476-11.389c-0.62-7.407-2.932-13.195-4.761-16.847
																													c-3.413,3.085-6.825,6.167-10.237,9.252c0.904-5.559,1.419-11.766,1.19-18.506
																													C428.997,427.577,414.417,405.747,405.95,395.085"/>
																												<path clip-path="url(#SVGID_122_)" fill="#CB845F" d="M414.521,391.051
																													c-3.953,22.665,4.614,45.865,6.339,50.805c2.89,8.283,7.712,21.646,20.088,34.14
																													c6.12,6.178,17.383,17.551,34.998,19.454c3.653,0.396,14.27,1.406,25.233-4.271
																													c9.146-4.73,13.808-11.667,19.524-20.403c9.198-14.059,13.017-26.845,14.284-31.319
																													c3.006-10.625,12.316-54.274,5.713-73.556c-9.016-26.316-60.083-43.403-121.419-35.272
																													c2.219,9.926,2.184,17.863,1.746,23.253c-0.265,3.258-0.646,5.229-2.857,17.24
																													C416.396,380.766,414.838,389.227,414.521,391.051"/>
																												<path clip-path="url(#SVGID_122_)" fill="#462F2E" d="M431.45,390.143
																													c3.933-0.316,8.136-0.804,12.569-1.525c6.045-0.983,11.572-2.248,16.532-3.62
																													c0.293-2.263,0.589-4.526,0.886-6.79c-1.692,0.713-4.196,1.619-7.328,2.212
																													c-3.179,0.604-5.603,0.617-8.071,0.62c-5.342,0.004-10.142,0.008-15.21,0
																													C431.035,384.073,431.241,387.107,431.45,390.143"/>
																												<path clip-path="url(#SVGID_122_)" fill="#462F2E" d="M519.245,389.8
																													c-0.73-3.136-1.461-6.271-2.191-9.403c-3.134,0.97-7.22,1.873-12.036,2.033
																													c-9.364,0.313-16.746-2.34-20.923-4.24c0.659,2.504,1.318,5.006,1.977,7.512
																													c4.435,1.001,9.26,1.9,14.445,2.607C507.271,389.227,513.555,389.663,519.245,389.8"/>
																												<path clip-path="url(#SVGID_122_)" fill="#875843" d="M472.461,406.395
																													c-1.31,7.268-3.467,14.32-5.773,21.317c-1.241,4.06-4.086,8.44-2.642,12.478
																													c2.754,6.11,10.566,8.229,17.223,6.778c-2.089,1.361-4.6,2.126-7.217,2.288
																													c-8.819,0.505-17.253-7.004-13.842-16.074C463.786,423.851,467.462,415.084,472.461,406.395"/>
																												<path clip-path="url(#SVGID_122_)" fill="#875843" d="M497.043,464.471
																													c-0.082,1.021-4.168,1.416-12.339,2.205c-12.688,1.227-27.816,0.517-28.078-1.91
																													c-0.032-0.282,0.135-0.648,0.893-1.194C465.361,457.938,497.28,461.508,497.043,464.471"/>
																												<path clip-path="url(#SVGID_122_)" fill="#462F2E" d="M419.521,431.388
																													c-1.096-6.116-2.29-15.681-1.429-27.287c1.077-14.522,4.523-20.777,5.951-33.691
																													c0.896-8.093,1.143-20.108-2.619-35.353c3.73-1.107,7.46-2.214,11.19-3.322
																													c10.25,8.812,23.829,18.887,40.95,27.997c22.688,12.078,43.706,18.262,59.519,21.593
																													c1.031,14,2.063,27.999,3.095,41.997c3.396-4.539,8.201-12.141,10.952-22.54
																													c0,0,4.53-17.126-0.239-34.405c-6.675-24.186-61.63-47.313-131.577-42.232
																													c2.231,19.88,2.29,36.609-0.557,46.267c-1.191,4.048-3.331,10.266-4.761,19.693
																													c-1.359,8.96-2.489,16.991,0.476,26.101C412.814,423.396,416.796,428.453,419.521,431.388"/>
																												<path clip-path="url(#SVGID_122_)" fill="#CB845F" d="M532.178,435.079
																													c0.719,4.213,2.523,6.085,3.334,6.813c2.965,2.662,6.914,2.864,9.337,2.325
																													c3.417-0.757,6.604-3.595,11.672-15.951c6.503-15.848,11.469-27.949,5.927-33.418
																													c-2.579-2.543-6.758-2.988-9.726-2.222c-4.026,1.043-5.552,4.247-12.497,18.197
																													C533.492,424.353,531.136,428.953,532.178,435.079"/>
																												<path clip-path="url(#SVGID_122_)" fill="#CB845F" d="M413.838,417.532
																													c-1.744-4.731-1.377-6.021-3.452-10.559c-2.461-5.382-4.183-6.198-4.839-6.456
																													c-2.334-0.911-5.407-0.28-7.282,1.329c-4.916,4.226-2.151,14.603-0.242,21.773
																													c1.482,5.571,3.274,11.961,8.98,17.056c2.339,2.087,5.486,4.896,9.467,4.233
																													c3.896-0.65,7.215-4.396,7.403-7.983c0.134-2.544-1.486-3.177-5.096-9.313
																													C417.547,425.522,415.5,422.044,413.838,417.532"/>
																												<path clip-path="url(#SVGID_122_)" fill="#FFFFFF" d="M455.279,405.333
																													c0,5.349-4.352,9.685-9.719,9.685s-9.718-4.336-9.718-9.685c0-5.348,4.352-9.685,9.718-9.685
																													C450.928,395.648,455.279,399.985,455.279,405.333"/>
																												<path clip-path="url(#SVGID_122_)" fill="#FFFFFF" d="M511.896,405.333
																													c0,5.349-4.353,9.685-9.718,9.685c-5.367,0-9.718-4.336-9.718-9.685c0-5.348,4.352-9.685,9.718-9.685
																													C507.544,395.648,511.896,399.985,511.896,405.333"/>
																												<path clip-path="url(#SVGID_122_)" d="M449.78,405.333c0,2.403-1.955,4.352-4.365,4.352
																													s-4.364-1.947-4.364-4.352c0-2.401,1.954-4.35,4.364-4.35S449.78,402.932,449.78,405.333"/>
																												<path clip-path="url(#SVGID_122_)" d="M507.181,406.03c0,2.479-2.017,4.492-4.507,4.492
																													s-4.508-2.013-4.508-4.492c0-2.481,2.018-4.493,4.508-4.493S507.181,403.549,507.181,406.03"/>
																												<path clip-path="url(#SVGID_122_)" fill="#474B4F" d="M501.448,549.209
																													c-3.483,7.934-7.003,18.961-9.494,29.001c-6.358,26.176-7.159,53.381-6.604,80.209l0.019,0.621
																													c-3.392,0.273-6.781,0.48-10.21,0.333c3.138-0.757,6.305-1.203,9.481-1.57l-0.584,0.668
																													c-0.678-13.509-0.77-27.064-0.091-40.582c0.876-21.49,4.616-42.899,12.062-63.128
																													c0.278-0.748,0.818-2.249,1.124-3.003c-0.012,0.007-0.064,0.236-0.027,0.35l0.108-0.556l1.459-3.521
																													L501.448,549.209z"/>
																											</g>
																											<g>
																												<defs>
																													<path id="SVGID_123_" d="M695.503,404.984L557.466,644.038c-3.653,6.329-3.653,14.129,0,20.457
																														c3.654,6.328,10.464,10.133,17.771,10.133H851.31c7.309,0,14.117-3.806,17.771-10.134
																														c3.654-6.33,3.654-14.066,0.001-20.396l-138.035-239.09c-3.654-6.328-10.464-10.269-17.771-10.269
																														C705.966,394.74,699.156,398.656,695.503,404.984"/>
																												</defs>
																												<clipPath id="SVGID_124_">
																													<use xlink:href="#SVGID_123_"  overflow="visible"/>
																												</clipPath>
																												
																													<linearGradient id="SVGID_125_" gradientUnits="userSpaceOnUse" x1="324.9063" y1="-167.2236" x2="325.9058" y2="-167.2236" gradientTransform="matrix(317.0959 0 0 317.0959 -102471.4609 53560.4375)">
																													<stop  offset="0" style="stop-color:#26264F"/>
																													<stop  offset="0.0036" style="stop-color:#26264F"/>
																													<stop  offset="1" style="stop-color:#444B8C"/>
																												</linearGradient>
																												
																													<rect x="553.813" y="394.74" clip-path="url(#SVGID_124_)" fill="url(#SVGID_125_)" width="318.923" height="279.888"/>
																											</g>
																											<g>
																												<defs>
																													<path id="SVGID_126_" d="M711.048,403.905c-3.26,0.635-6.137,2.688-7.839,5.629L565.178,648.683
																														c-2.08,3.594-2.08,8.156,0,11.751c2.075,3.595,5.908,6.066,10.06,6.066h276.071
																														c4.151,0,7.989-2.473,10.064-6.066c2.074-3.595,2.074-8.152,0-11.748L723.337,409.479
																														c-2.075-3.601-5.914-5.806-10.065-5.806C712.516,403.673,711.771,403.761,711.048,403.905"/>
																												</defs>
																												<clipPath id="SVGID_127_">
																													<use xlink:href="#SVGID_126_"  overflow="visible"/>
																												</clipPath>
																												
																													<linearGradient id="SVGID_128_" gradientUnits="userSpaceOnUse" x1="324.8701" y1="-167.208" x2="325.8701" y2="-167.208" gradientTransform="matrix(299.3123 0 0 299.3123 -96674.1484 50582.4531)">
																													<stop  offset="0" style="stop-color:#FCB148"/>
																													<stop  offset="0.0522" style="stop-color:#FDBA46"/>
																													<stop  offset="0.1432" style="stop-color:#FFC244"/>
																													<stop  offset="0.3183" style="stop-color:#FFC444"/>
																													<stop  offset="0.4843" style="stop-color:#FDB946"/>
																													<stop  offset="0.7729" style="stop-color:#F99D4D"/>
																													<stop  offset="0.8658" style="stop-color:#F8924F"/>
																													<stop  offset="1" style="stop-color:#F8924F"/>
																												</linearGradient>
																												
																													<rect x="563.098" y="403.673" clip-path="url(#SVGID_127_)" fill="url(#SVGID_128_)" width="300.351" height="262.827"/>
																											</g>
																											<g>
																												<defs>
																													<rect id="SVGID_129_" x="6.056" y="41.567" width="1000" height="700"/>
																												</defs>
																												<defs>
																													<rect id="SVGID_130_" x="6.056" y="41.567" width="1000" height="700"/>
																												</defs>
																												<defs>
																													<rect id="SVGID_131_" x="6.056" y="41.567" width="1000" height="700"/>
																												</defs>
																												<defs>
																													<rect id="SVGID_132_" x="6.056" y="41.567" width="1000" height="700"/>
																												</defs>
																												<defs>
																													<rect id="SVGID_133_" x="6.056" y="41.567" width="1000" height="700"/>
																												</defs>
																												<defs>
																													<rect id="SVGID_134_" x="6.056" y="41.567" width="1000" height="700"/>
																												</defs>
																												<defs>
																													<rect id="SVGID_135_" x="6.056" y="41.567" width="1000" height="700"/>
																												</defs>
																												<defs>
																													<rect id="SVGID_136_" x="6.056" y="41.567" width="1000" height="700"/>
																												</defs>
																												<defs>
																													<rect id="SVGID_137_" x="6.056" y="41.567" width="1000" height="700"/>
																												</defs>
																												<defs>
																													<rect id="SVGID_138_" x="6.056" y="41.567" width="1000" height="700"/>
																												</defs>
																												<defs>
																													<rect id="SVGID_139_" x="6.056" y="41.567" width="1000" height="700"/>
																												</defs>
																												<defs>
																													<rect id="SVGID_140_" x="6.056" y="41.567" width="1000" height="700"/>
																												</defs>
																												<defs>
																													<rect id="SVGID_141_" x="6.056" y="41.567" width="1000" height="700"/>
																												</defs>
																												<defs>
																													<rect id="SVGID_142_" x="6.056" y="41.567" width="1000" height="700"/>
																												</defs>
																												<defs>
																													<rect id="SVGID_143_" x="6.056" y="41.567" width="1000" height="700"/>
																												</defs>
																												<defs>
																													<rect id="SVGID_144_" x="6.056" y="41.567" width="1000" height="700"/>
																												</defs>
																												<defs>
																													<rect id="SVGID_145_" x="6.056" y="41.567" width="1000" height="700"/>
																												</defs>
																												<defs>
																													<rect id="SVGID_146_" x="6.056" y="41.567" width="1000" height="700"/>
																												</defs>
																												<clipPath id="SVGID_147_">
																													<use xlink:href="#SVGID_129_"  overflow="visible"/>
																												</clipPath>
																												<clipPath id="SVGID_148_" clip-path="url(#SVGID_147_)">
																													<use xlink:href="#SVGID_130_"  overflow="visible"/>
																												</clipPath>
																												<clipPath id="SVGID_149_" clip-path="url(#SVGID_148_)">
																													<use xlink:href="#SVGID_131_"  overflow="visible"/>
																												</clipPath>
																												<clipPath id="SVGID_150_" clip-path="url(#SVGID_149_)">
																													<use xlink:href="#SVGID_132_"  overflow="visible"/>
																												</clipPath>
																												<clipPath id="SVGID_151_" clip-path="url(#SVGID_150_)">
																													<use xlink:href="#SVGID_133_"  overflow="visible"/>
																												</clipPath>
																												<clipPath id="SVGID_152_" clip-path="url(#SVGID_151_)">
																													<use xlink:href="#SVGID_134_"  overflow="visible"/>
																												</clipPath>
																												<clipPath id="SVGID_153_" clip-path="url(#SVGID_152_)">
																													<use xlink:href="#SVGID_135_"  overflow="visible"/>
																												</clipPath>
																												<clipPath id="SVGID_154_" clip-path="url(#SVGID_153_)">
																													<use xlink:href="#SVGID_136_"  overflow="visible"/>
																												</clipPath>
																												<clipPath id="SVGID_155_" clip-path="url(#SVGID_154_)">
																													<use xlink:href="#SVGID_137_"  overflow="visible"/>
																												</clipPath>
																												<clipPath id="SVGID_156_" clip-path="url(#SVGID_155_)">
																													<use xlink:href="#SVGID_138_"  overflow="visible"/>
																												</clipPath>
																												<clipPath id="SVGID_157_" clip-path="url(#SVGID_156_)">
																													<use xlink:href="#SVGID_139_"  overflow="visible"/>
																												</clipPath>
																												<clipPath id="SVGID_158_" clip-path="url(#SVGID_157_)">
																													<use xlink:href="#SVGID_140_"  overflow="visible"/>
																												</clipPath>
																												<clipPath id="SVGID_159_" clip-path="url(#SVGID_158_)">
																													<use xlink:href="#SVGID_141_"  overflow="visible"/>
																												</clipPath>
																												<clipPath id="SVGID_160_" clip-path="url(#SVGID_159_)">
																													<use xlink:href="#SVGID_142_"  overflow="visible"/>
																												</clipPath>
																												<clipPath id="SVGID_161_" clip-path="url(#SVGID_160_)">
																													<use xlink:href="#SVGID_143_"  overflow="visible"/>
																												</clipPath>
																												<clipPath id="SVGID_162_" clip-path="url(#SVGID_161_)">
																													<use xlink:href="#SVGID_144_"  overflow="visible"/>
																												</clipPath>
																												<clipPath id="SVGID_163_" clip-path="url(#SVGID_162_)">
																													<use xlink:href="#SVGID_145_"  overflow="visible"/>
																												</clipPath>
																												<clipPath id="SVGID_164_" clip-path="url(#SVGID_163_)">
																													<use xlink:href="#SVGID_146_"  overflow="visible"/>
																												</clipPath>
																												<path clip-path="url(#SVGID_164_)" fill="#FFFFFF" d="M719.215,577.387l-12.027-0.287
																													c-3.354-0.08-6.128-2.946-6.305-6.321l-4.401-84.747c-0.092-1.746,0.536-3.188,1.734-4.368
																													c1.197-1.181,2.858-1.562,4.593-1.44l20.718,1.443c1.697,0.117,3.316,0.681,4.481,2.008
																													c1.164,1.325,1.773,2.915,1.687,4.622L725.41,571.5C725.237,574.826,722.52,577.466,719.215,577.387"/>
																												<path clip-path="url(#SVGID_164_)" fill="#FFFFFF" d="M700.651,598.088
																													c3.004-2.868,7.229-4.256,12.664-4.17c5.602,0.09,9.848,1.566,12.756,4.425
																													c2.897,2.851,4.346,7.017,4.346,12.502c0,5.289-1.479,9.382-4.442,12.284
																													c-2.973,2.911-7.188,4.369-12.658,4.369c-5.369,0-9.578-1.505-12.614-4.521
																													c-3.045-3.022-4.571-7.161-4.571-12.405C696.13,605.128,697.64,600.965,700.651,598.088"/>
																												<path clip-path="url(#SVGID_164_)" fill="#F4C978" d="M406.188,275.128
																													c0,73.423-59.523,132.948-132.95,132.948c-29.529,0-56.81-9.629-78.875-25.92
																													c-32.798-24.207-54.073-63.133-54.073-107.028c0-73.426,59.524-132.948,132.948-132.948
																													c21.789,0,42.358,5.244,60.508,14.536C376.75,178.734,406.188,223.492,406.188,275.128"/>
																												<path clip-path="url(#SVGID_164_)" fill="#536969" d="M273.239,154.434
																													c-66.656,0-120.695,54.038-120.695,120.695c0,66.658,54.039,120.694,120.695,120.694
																													c66.659,0,120.694-54.036,120.694-120.694C393.934,208.472,339.897,154.434,273.239,154.434
																													 M273.239,387.055c-24.86,0-47.827-8.106-66.402-21.822c-27.613-20.378-45.523-53.149-45.523-90.104
																													c0-61.816,50.112-111.926,111.925-111.926c18.344,0,35.66,4.414,50.939,12.237
																													c36.205,18.537,60.988,56.217,60.988,99.689C385.167,336.942,335.055,387.055,273.239,387.055"/>
																												<path clip-path="url(#SVGID_164_)" fill="#536969" d="M311.27,218.121c0,0-16.158-11.823-38.029-11.627
																													c-21.876-0.196-38.034,11.627-38.034,11.627c-29.558,25.222-8.079,62.27-8.079,62.27
																													c4.138,4.729,4.336,15.96,4.336,15.96c0,11.234,7.292,12.415,7.292,12.415
																													c4.137,1.577,14.187,5.912,14.187,5.912c6.108,1.971,5.519,14.188,5.519,14.188h1.979
																													c-0.098-0.176-0.151-0.376-0.151-0.591v-4.205c0-0.689,0.559-1.248,1.248-1.248
																													c0.344,0,0.656,0.14,0.882,0.366s0.366,0.536,0.366,0.882v4.205c0,0.215-0.053,0.415-0.151,0.591h1.148
																													c-0.098-0.176-0.151-0.376-0.151-0.591v-4.205c0-0.689,0.561-1.248,1.248-1.248
																													c0.346,0,0.656,0.14,0.882,0.366c0.226,0.226,0.366,0.536,0.366,0.882v4.205
																													c0,0.215-0.053,0.415-0.151,0.591h1.15c-0.098-0.176-0.151-0.376-0.151-0.591v-4.205
																													c0-0.689,0.559-1.248,1.248-1.248c0.346,0,0.656,0.14,0.882,0.366s0.366,0.536,0.366,0.882v4.205
																													c0,0.215-0.053,0.415-0.151,0.591h1.148c-0.098-0.176-0.151-0.376-0.151-0.591v-4.205
																													c0-0.689,0.561-1.248,1.248-1.248c0.343,0,0.656,0.14,0.882,0.366s0.366,0.536,0.366,0.882v4.205
																													c0,0.215-0.053,0.415-0.151,0.591h1.15c-0.098-0.176-0.151-0.376-0.151-0.591v-4.205
																													c0-0.689,0.559-1.248,1.248-1.248c0.344,0,0.656,0.14,0.882,0.366c0.227,0.226,0.366,0.536,0.366,0.882
																													v4.205c0,0.215-0.053,0.415-0.151,0.591h1.148c-0.098-0.176-0.151-0.376-0.151-0.591v-4.205
																													c0-0.689,0.561-1.248,1.248-1.248c0.346,0,0.656,0.14,0.882,0.366s0.366,0.536,0.366,0.882v4.205
																													c0,0.215-0.053,0.415-0.151,0.591h1.15c-0.098-0.176-0.151-0.376-0.151-0.591v-4.205
																													c0-0.689,0.559-1.248,1.248-1.248c0.346,0,0.656,0.14,0.882,0.366c0.226,0.226,0.366,0.536,0.366,0.882
																													v4.205c0,0.215-0.053,0.415-0.151,0.591h1.148c-0.098-0.176-0.151-0.376-0.151-0.591v-4.205
																													c0-0.689,0.558-1.248,1.248-1.248c0.343,0,0.656,0.14,0.882,0.366s0.366,0.536,0.366,0.882v4.205
																													c0,0.215-0.053,0.415-0.151,0.591h1.985c0,0-0.592-12.216,5.516-14.188c0,0,10.05-4.335,14.19-5.912
																													c0,0,7.289-1.181,7.289-12.415c0,0,0.198-11.231,4.335-15.96
																													C319.349,280.391,340.828,243.343,311.27,218.121 M263.273,280.296
																													c-2.974,5.207-8.052,11.415-14.852,10.293c-0.402-0.067-0.796-0.162-1.183-0.282
																													c-1.128-0.349-2.195-0.904-3.18-1.563c-4.372-2.917-6.499-7.926-6.778-13.065
																													c-0.321-5.837,3.584-9.651,8.749-11.641c4.938-1.901,10.454-1.737,15.58-0.793
																													c2.275,0.422,4.064,2.817,4.539,4.941C267.075,272.352,265.306,276.734,263.273,280.296
																													 M273.239,317.732c-3.777,0-6.84-3.986-6.84-12.127c0-8.137,6.84-10.633,6.84-10.633
																													s6.837,2.496,6.837,10.633C280.077,313.746,277.014,317.732,273.239,317.732 M309.198,275.679
																													c-0.282,5.139-2.409,10.148-6.781,13.065c-0.983,0.659-2.049,1.214-3.18,1.563
																													c-0.385,0.12-0.781,0.215-1.183,0.282c-6.801,1.122-11.879-5.086-14.852-10.293
																													c-2.032-3.562-3.799-7.945-2.872-12.11c0.471-2.124,2.261-4.519,4.536-4.941
																													c5.126-0.944,10.642-1.108,15.58,0.793C305.614,266.028,309.517,269.842,309.198,275.679"/>
																												<path clip-path="url(#SVGID_164_)" fill="#536969" d="M300.629,323.35
																													c-0.092-1.754-1.944-2.466-3.474-2.279c-2.697,0.328-2.415,2.528-3.245,4.567
																													c-1.683,4.131-4.521,7.765-8.536,9.819c-1.807,0.925-3.777,1.509-5.788,1.768
																													c-5.845,0.753-13.124,0.975-18.484-1.768c-4.015-2.054-6.853-5.688-8.536-9.819
																													c-0.83-2.039-0.547-4.239-3.244-4.567c-1.53-0.187-3.383,0.525-3.475,2.279
																													c-0.218,4.201,1.503,8.414,3.389,12.079c1.325,2.575,3.102,4.686,5.097,6.757
																													c2.119,2.201,4.763,3.848,6.879,6.091c1.72,1.823,3.27,3.853,5.39,5.243
																													c1.442,0.943,3.056,1.679,4.758,1.996c0.094,0.019,1.878,0.25,1.878,0.15c0,0.1,1.785-0.133,1.878-0.15
																													c1.702-0.317,3.316-1.053,4.758-1.996c2.12-1.391,3.671-3.419,5.39-5.243
																													c2.116-2.243,4.76-3.89,6.879-6.091c1.995-2.071,3.773-4.182,5.097-6.757
																													C299.126,331.763,300.847,327.55,300.629,323.35"/>
																												<path clip-path="url(#SVGID_164_)" fill="#536969" d="M261.538,339.048L261.538,339.048
																													c-0.689,0-1.248-0.559-1.248-1.248v-4.204c0-0.689,0.559-1.248,1.248-1.248s1.248,0.559,1.248,1.248
																													v4.204C262.786,338.489,262.227,339.048,261.538,339.048"/>
																												<path clip-path="url(#SVGID_164_)" fill="#536969" d="M264.88,339.048L264.88,339.048
																													c-0.689,0-1.248-0.559-1.248-1.248v-4.204c0-0.689,0.559-1.248,1.248-1.248s1.248,0.559,1.248,1.248
																													v4.204C266.128,338.489,265.569,339.048,264.88,339.048"/>
																												<path clip-path="url(#SVGID_164_)" fill="#536969" d="M268.223,339.048L268.223,339.048
																													c-0.689,0-1.248-0.559-1.248-1.248v-4.204c0-0.689,0.559-1.248,1.248-1.248s1.248,0.559,1.248,1.248
																													v4.204C269.471,338.489,268.912,339.048,268.223,339.048"/>
																												<path clip-path="url(#SVGID_164_)" fill="#536969" d="M271.566,339.048L271.566,339.048
																													c-0.689,0-1.248-0.559-1.248-1.248v-4.204c0-0.689,0.559-1.248,1.248-1.248s1.248,0.559,1.248,1.248
																													v4.204C272.814,338.489,272.255,339.048,271.566,339.048"/>
																												<path clip-path="url(#SVGID_164_)" fill="#536969" d="M274.909,339.048L274.909,339.048
																													c-0.689,0-1.248-0.559-1.248-1.248v-4.204c0-0.689,0.559-1.248,1.248-1.248s1.248,0.559,1.248,1.248
																													v4.204C276.157,338.489,275.598,339.048,274.909,339.048"/>
																												<path clip-path="url(#SVGID_164_)" fill="#536969" d="M278.252,339.048L278.252,339.048
																													c-0.689,0-1.248-0.559-1.248-1.248v-4.204c0-0.689,0.559-1.248,1.248-1.248s1.248,0.559,1.248,1.248
																													v4.204C279.5,338.489,278.941,339.048,278.252,339.048"/>
																												<path clip-path="url(#SVGID_164_)" fill="#536969" d="M281.595,339.048L281.595,339.048
																													c-0.689,0-1.248-0.559-1.248-1.248v-4.204c0-0.689,0.559-1.248,1.248-1.248s1.248,0.559,1.248,1.248
																													v4.204C282.843,338.489,282.284,339.048,281.595,339.048"/>
																												<path clip-path="url(#SVGID_164_)" fill="#536969" d="M284.938,339.048L284.938,339.048
																													c-0.689,0-1.248-0.559-1.248-1.248v-4.204c0-0.689,0.559-1.248,1.248-1.248s1.248,0.559,1.248,1.248
																													v4.204C286.186,338.489,285.627,339.048,284.938,339.048"/>
																												<path clip-path="url(#SVGID_164_)" fill="#536969" d="M217.378,208.766
																													c0.835,5.324,1.971,9.073,5.173,12.596c-3.417,4.5-5.971,9.419-7.63,14.69
																													c-0.686-0.559-1.373-1.117-2.063-1.673c-5.061-4.084-7.277-4.416-13.882-3.967
																													c-6.709,0.455-14.548,1.421-15.405-7.437c-0.773-7.95,10.363-9.419,14.148-14.748
																													c3.077-4.33,2.287-12.936,9.174-13.604C215.589,193.786,216.367,202.334,217.378,208.766"/>
																												<path clip-path="url(#SVGID_164_)" fill="#536969" d="M362.943,323.678
																													c-0.075,2.861-2.443,5.131-4.895,6.611c-2.278,1.379-4.832,2.426-6.708,4.29
																													c-0.14,0.14-0.279,0.285-0.411,0.436c-4.05,4.567-3.399,12.959-8.966,15.466
																													c-3.445,1.555-7.658-0.327-9.969-3.317c-3.065-3.964-4.405-9.894-4.099-14.851
																													c0.09-1.421,0.297-2.909-0.237-4.23c-0.541-1.34-1.753-2.275-2.909-3.14
																													c-4.469-3.345-9.014-6.614-13.486-9.978c3.71-1.477,8.348-5.187,10.057-12.456
																													c4.003,3.439,7.98,7.007,12.229,10.067c5.376,3.872,6.046,2.936,12.618,2.004
																													c4.09-0.578,8.367,0.24,11.951,2.292C360.657,318.321,363.018,320.755,362.943,323.678"/>
																												<path clip-path="url(#SVGID_164_)" fill="#536969" d="M235.214,314.965
																													c-4.472,3.361-9.02,6.633-13.486,9.977c-1.159,0.866-2.368,1.801-2.909,3.141
																													c-0.536,1.32-0.327,2.808-0.24,4.229c0.309,4.958-1.033,10.888-4.096,14.852
																													c-2.311,2.99-6.527,4.871-9.971,3.316c-5.567-2.507-4.917-10.898-8.965-15.465
																													c-0.134-0.151-0.27-0.296-0.413-0.436c-1.873-1.865-4.43-2.912-6.708-4.291
																													c-2.451-1.479-4.818-3.749-4.891-6.61c-0.078-2.923,2.284-5.357,4.821-6.806
																													c3.588-2.052,7.862-2.87,11.951-2.292c6.572,0.932,7.244,1.867,12.621-2.005
																													c4.246-3.059,8.227-6.627,12.23-10.066C226.864,309.778,231.504,313.488,235.214,314.965"/>
																												<path clip-path="url(#SVGID_164_)" fill="#536969" d="M362.906,222.975
																													c-0.86,8.858-8.696,7.892-15.407,7.437c-6.605-0.45-8.822-0.117-13.883,3.967
																													c-0.688,0.555-1.373,1.108-2.058,1.669c-1.66-5.27-4.213-10.186-7.633-14.687
																													c3.2-3.523,4.336-7.272,5.17-12.595c1.012-6.432,1.79-14.98,10.489-14.143
																													c6.884,0.667,6.097,9.274,9.17,13.604C352.542,213.556,363.677,215.024,362.906,222.975"/>
																											</g>
																										</g>
																									</g>
																								</g>
																							</g>
																						</g>
																					</g>
																				</g>
																			</g>
																		</g>
																	</g>
																</g>
															</g>
														</g>
													</g>
												</g>
											</g>
										</g>
									</g>
								</g>
							</g>
						</g>
					</g>
				</g>
			</g>
		</g>
	</g>
</g>
<path fill="none" d="M318.489,650.726c-8.34,0.385-17.255,0.491-26.505,0.277c-45.469-1.049-82.005-9.507-82.005-18.87
	c0-0.213,0.025-0.674,0.062-0.673l-0.062-0.002l0.188-0.45c0.044-0.154,0.101-0.293,0.17-0.438l10.487-27.413l12.663-33.079
	l17.735-46.361l13.574-35.488l16.885-44.127c2.112-5.524,6.027-8.96,10.258-8.96c0.576,0,1.139,0.06,1.695,0.186
	c1.805,11.232,4.89,30.836,8.305,53.942c1.711,11.634,3.506,24.159,5.264,36.933c2.265,16.521,4.461,33.489,6.324,49.551
	c1.521,13.164,2.82,25.723,3.739,36.939C318.611,628.93,319.164,642.361,318.489,650.726"/>
<rect x="256.103" y="221.099" fill="none" width="500.09" height="478.901"/>
<rect x="6.056" y="41.567" fill="none" width="1000" height="700"/>
<rect x="6.056" y="41.567" fill="none" width="1000" height="700"/>
<rect x="6.056" y="41.567" fill="none" width="1000" height="700"/>
<line fill="none" stroke="#BC2B1D" stroke-width="7" stroke-linecap="round" stroke-miterlimit="10" x1="85.388" y1="700" x2="920" y2="700"/>
</svg>
