<!--Generator: Adobe Illustrator 16.0.0, SVG Export Plug-In . SVG Version: 6.00 Build 0)-->
<svg xmlns="http://www.w3.org/2000/svg" xmlns:xlink="http://www.w3.org/1999/xlink" xml:space="preserve" viewBox="0 0 1000 700">
  <defs>
    <path id="a" d="M6.1 41.6h1000v700H6.1z"/>
  </defs>
  <clipPath id="b">
    <use xlink:href="#a" overflow="visible"/>
  </clipPath>
  <g clip-path="url(#b)">
    <defs>
      <path id="c" d="M6.1 41.6h1000v700H6.1z"/>
    </defs>
    <clipPath id="d">
      <use xlink:href="#c" overflow="visible"/>
    </clipPath>
    <path fill="#E85C47" d="M461 689.7c-157.2-23.9-285-172.5-261.8-337.8 19.8-141 143.4-250.6 291.6-261a323.8 323.8 0 0 1 243 84.8c54 49.8 89.2 116.4 95.6 186.3 17 186-172.7 357.3-368.3 327.7" clip-path="url(#d)"/>
    <defs>
      <path id="e" d="M6.1 41.6h1000v700H6.1z"/>
    </defs>
    <clipPath id="f">
      <use xlink:href="#e" overflow="visible"/>
    </clipPath>
    <g clip-path="url(#f)">
      <defs>
        <path id="g" d="M638.6 105.9a145 145 0 0 0-57.1 84.8c-8.9 36 3.3 73.4-.2 110-5.5 57.4-86.9-15.8-71 135.2 3.5 33.4 9.3 69.8 28 98.4 7.8 11.9 23.3 28.3 38.8 27.4 22-1.4 21-32.4 27.7-46.8a100 100 0 0 1 37.3-39.8c19.6-12.6 42.4-23.9 50.2-47.7 5-15.4-2.6-31.3-12.3-43.3-5.4-6.6-16.8-14.2-15.1-24 1.4-8 12.8-14 18.7-18.3 18.2-13 36-27.2 52.2-42.8 14.5-14 39.1-35.1 37.1-57.8-1.6-18.3-20.5-18.2-35.3-16.9l-7 .7c-6.6.7-21 4.7-26-2-8.3-10.8 12.6-29.3 18-37.6 6.4-10.2 14.5-21.6 15.8-34.1a65 65 0 0 0-27-54.5 47.6 47.6 0 0 0-25.3-6.7c-16.8 0-34.5 7-47.5 15.8"/>
      </defs>
      <clipPath id="i">
        <use xlink:href="#g" overflow="visible"/>
      </clipPath>
      <linearGradient id="h" x1="325.6" x2="326.6" y1="-167.4" y2="-167.4" gradientTransform="rotate(97.4 141016.6 -357285.7) scale(1576.4349)" gradientUnits="userSpaceOnUse">
        <stop offset="0" style="stop-color:#ff9085"/>
        <stop offset="1" style="stop-color:#fb6fbb"/>
      </linearGradient>
      <path fill="url(#h)" d="m834.9 97.9-64.6 500.4-335.9-43.4L499 54.5z" clip-path="url(#i)"/>
      <defs>
        <path id="j" d="M6.1 41.6h1000v700H6.1z"/>
      </defs>
      <clipPath id="k">
        <use xlink:href="#j" overflow="visible"/>
      </clipPath>
      <g clip-path="url(#k)">
        <defs>
          <path id="l" d="M638.6 105.9a145 145 0 0 0-57.1 84.8c-8.9 36 3.3 73.4-.2 110-5.5 57.4-86.9-15.8-71 135.2 3.5 33.4 9.3 69.8 28 98.4 7.8 11.9 23.3 28.3 38.8 27.4 22-1.4 21-32.4 27.7-46.8a100 100 0 0 1 37.3-39.8c19.6-12.6 42.4-23.9 50.2-47.7 5-15.4-2.6-31.3-12.3-43.3-5.4-6.6-16.8-14.2-15.1-24 1.4-8 12.8-14 18.7-18.3 18.2-13 36-27.2 52.2-42.8 14.5-14 39.1-35.1 37.1-57.8-1.6-18.3-20.5-18.2-35.3-16.9l-7 .7c-6.6.7-21 4.7-26-2-8.3-10.8 12.6-29.3 18-37.6 6.4-10.2 14.5-21.6 15.8-34.1a65 65 0 0 0-27-54.5 47.6 47.6 0 0 0-25.3-6.7c-16.8 0-34.5 7-47.5 15.8"/>
        </defs>
        <clipPath id="m">
          <use xlink:href="#l" overflow="visible"/>
        </clipPath>
        <g clip-path="url(#m)" opacity=".8">
          <defs>
            <path id="n" d="M516.1 72.2h222.7v529H516.1z"/>
          </defs>
          <defs>
            <path id="p" d="M516.1 72.2h222.7v529H516.1z"/>
          </defs>
          <defs>
            <path id="r" d="M516.1 72.2h222.7v529H516.1z"/>
          </defs>
          <defs>
            <path id="t" d="M516.1 72.2h222.7v529H516.1z"/>
          </defs>
          <defs>
            <path id="v" d="M516.1 72.2h222.7v529H516.1z"/>
          </defs>
          <clipPath id="o">
            <use xlink:href="#n" overflow="visible"/>
          </clipPath>
          <clipPath id="q" clip-path="url(#o)">
            <use xlink:href="#p" overflow="visible"/>
          </clipPath>
          <clipPath id="s" clip-path="url(#q)">
            <use xlink:href="#r" overflow="visible"/>
          </clipPath>
          <clipPath id="u" clip-path="url(#s)">
            <use xlink:href="#t" overflow="visible"/>
          </clipPath>
          <clipPath id="w" clip-path="url(#u)">
            <use xlink:href="#v" overflow="visible"/>
          </clipPath>
          <path fill="#FFF" d="M620.6 601.1c-.2 0-.4 0-.6-.2-37.5-26.7-55.1-67.6-54-124.9 1.1-50 15.8-104 30-156.5 11-41.3 21.6-80.2 23.5-111.5 1.6-25.1 8.7-47.9 21.3-67.7A148 148 0 0 1 681 98.8c28.3-20 56.2-26.5 56.5-26.6a1.1 1.1 0 0 1 .5 2.2c-.3 0-27.8 6.6-55.7 26.3A138.4 138.4 0 0 0 621.7 208c-1.9 31.5-12.4 70.6-23.6 112-27.9 103.1-59.5 220 23.2 279a1.1 1.1 0 0 1-.7 2" clip-path="url(#w)"/>
          <path fill="#FFF" d="M621.5 199.5h-.3c-.3-.2-7.5-2.5-15.3-11.8-7-8.5-16.1-24.6-18.8-53.2a1.1 1.1 0 1 1 2.2-.2c2.6 28 11.4 43.6 18.2 51.8a36.1 36.1 0 0 0 14.4 11.2 1.1 1.1 0 0 1-.4 2.2m-11.1 70a1.1 1.1 0 0 1-.1-2.2c.2 0 19.3-2.1 44.3-13.2 23-10.1 56-30.3 82.2-68.4a1.1 1.1 0 1 1 1.9 1.3 197.6 197.6 0 0 1-83.3 69.2 166.7 166.7 0 0 1-45 13.3m-40.2 170.8-.4-.1a85.8 85.8 0 0 1-52-63.5 128 128 0 0 1 4.7-60 1.1 1.1 0 0 1 2.2.6c-14.5 49-1.2 79.2 12.4 95.9a85.3 85.3 0 0 0 33.5 24.9 1.1 1.1 0 0 1-.4 2.2m6.5-37.6a1.1 1.1 0 0 1-.2-2.2c.9-.2 89.3-12.2 111-45.6a1.1 1.1 0 1 1 1.8 1.2c-9.3 14.4-31.1 26.7-64.8 36.3-25 7.2-47.5 10.2-47.7 10.3h-.1" clip-path="url(#w)"/>
        </g>
        <defs>
          <path id="x" d="M6.1 41.6h1000v700H6.1z"/>
        </defs>
        <clipPath id="y">
          <use xlink:href="#x" overflow="visible"/>
        </clipPath>
        <g clip-path="url(#y)">
          <defs>
            <path id="z" d="M6.1 41.6h1000v700H6.1z"/>
          </defs>
          <clipPath id="A">
            <use xlink:href="#z" overflow="visible"/>
          </clipPath>
          <path fill="#F5E2D5" d="M859.3 277.3c-7.7-27.7-32-48.7-59.8-56a137 137 0 0 0-54.9-2.8c-24.3 4.2-44.3 20-60 38.4-18.3 21.6-20 48.4-26.6 75-1.3 5.1-9.8 33.8-16.2 17-9-23.4-29-19.3-29-19.3a46.8 46.8 0 0 0-33.4 29.2c-15.5 38.6-10.7 88.7-7.4 129.2 1.5 19 3.9 38 6.7 56.9a12 12 0 0 0 21 6c3.2-3.7 6.6-7.1 9.7-10.1 29.7-29 76.3-33.3 115.7-35 23-1 41.8-2.5 61.8-14.8 8.3-5.1 17.4-11.4 21.2-20.8 3.5-8.5 4.2-23-1-30.8-6.6-9.8-21.1-9.2-29.8-16.5-14-11.6 22.6-19.7 30-22.1 11.7-3.8 19.5-13.1 28.3-21.3 6.7-6.1 13-12.9 17.9-20.7 14.8-23.7 13-55.5 5.8-81.5" clip-path="url(#A)"/>
          <defs>
            <path id="B" d="M6.1 41.6h1000v700H6.1z"/>
          </defs>
          <clipPath id="C">
            <use xlink:href="#B" overflow="visible"/>
          </clipPath>
          <g clip-path="url(#C)">
            <defs>
              <path id="D" d="M744.6 218.5c-24.3 4.2-44.3 20-60 38.4-18.3 21.6-20 48.4-26.6 75-1.3 5.1-9.8 33.8-16.2 17-9-23.4-29-19.3-29-19.3a46.8 46.8 0 0 0-33.4 29.2c-15.5 38.6-10.7 88.8-7.4 129.2 1.5 19 3.9 38 6.7 56.9a12 12 0 0 0 21 6c3.2-3.7 6.6-7.1 9.7-10.1 29.7-29 76.3-33.3 115.7-35 23-1 41.8-2.5 61.8-14.8 8.3-5.1 17.4-11.4 21.2-20.8 3.5-8.5 4.2-23-1-30.8-6.6-9.8-21.1-9.2-29.8-16.5-14-11.6 22.6-19.7 30-22.1 11.7-3.8 19.5-13.1 28.3-21.3 6.7-6.1 13-12.9 17.9-20.7 14.8-23.7 13-55.5 5.8-81.5-7.7-27.7-32-48.7-59.8-56A144 144 0 0 0 764 217c-6.7 0-13.3.5-19.5 1.6"/>
            </defs>
            <clipPath id="E">
              <use xlink:href="#D" overflow="visible"/>
            </clipPath>
            <g clip-path="url(#E)" opacity=".8">
              <defs>
                <path id="F" d="M573 215.8h329.4v348.8H573z"/>
              </defs>
              <defs>
                <path id="H" d="M573 215.8h329.4v348.8H573z"/>
              </defs>
              <defs>
                <path id="J" d="M573 215.8h329.4v348.8H573z"/>
              </defs>
              <defs>
                <path id="L" d="M573 215.8h329.4v348.8H573z"/>
              </defs>
              <defs>
                <path id="N" d="M573 215.8h329.4v348.8H573z"/>
              </defs>
              <clipPath id="G">
                <use xlink:href="#F" overflow="visible"/>
              </clipPath>
              <clipPath id="I" clip-path="url(#G)">
                <use xlink:href="#H" overflow="visible"/>
              </clipPath>
              <clipPath id="K" clip-path="url(#I)">
                <use xlink:href="#J" overflow="visible"/>
              </clipPath>
              <clipPath id="M" clip-path="url(#K)">
                <use xlink:href="#L" overflow="visible"/>
              </clipPath>
              <clipPath id="O" clip-path="url(#M)">
                <use xlink:href="#N" overflow="visible"/>
              </clipPath>
              <path fill="#FFF" d="M574 564.6a1.1 1.1 0 0 1-1-1.6c.4-.8 37.3-78.6 88.1-158.4a794.9 794.9 0 0 1 85.7-114.1c33.7-36.2 64.7-57.3 92-62.8a1.1 1.1 0 0 1 .4 2.1c-26.8 5.5-57.4 26.4-90.8 62.2A792.7 792.7 0 0 0 663 405.8 1622.3 1622.3 0 0 0 575 564c-.1.4-.5.6-1 .6" clip-path="url(#O)"/>
              <path fill="#FFF" d="M706.5 341.8h-.2c-.6-.1-1-.7-.9-1.3.2-1 16.6-105.2.3-122.8a1.1 1.1 0 1 1 1.6-1.5c17 18.3 1 120.3.3 124.6 0 .6-.5 1-1 1m194.6-54-.5-.1c-43.7-27.3-134.6-13-135.5-13a1.1 1.1 0 1 1-.4-2.1c.3 0 23.4-3.7 51.6-4 26.2-.2 62.2 2.7 85.4 17.2a1.1 1.1 0 0 1-.6 2M610.7 493.5h-.2c-.6-.2-1-.8-.8-1.4 11.9-51.5-32.8-126.6-33.3-127.4a1.1 1.1 0 0 1 2-1.1c0 .2 11.5 19.3 21.3 44.5 9 23.4 18.5 57 12.1 84.5-.1.5-.6.9-1 .9m36.9-64.1a1 1 0 0 1-1-.8c-.3-.6 0-1.2.6-1.4a832 832 0 0 1 89.1-22.8c45-8.8 106.5-16.2 144.7-1.6a1.1 1.1 0 0 1-.8 2.1c-37.7-14.5-98.8-7-143.4 1.7a829.3 829.3 0 0 0-89.2 22.8" clip-path="url(#O)"/>
            </g>
            <defs>
              <path id="P" d="M6.1 41.6h1000v700H6.1z"/>
            </defs>
            <clipPath id="Q">
              <use xlink:href="#P" overflow="visible"/>
            </clipPath>
            <g clip-path="url(#Q)">
              <defs>
                <path id="R" d="m277.1 623.4-119.9 14.8v11c0 1.8 1 3.4 2.1 3.7l113 21.3 1 .2c1.1.2 2.3.2 3.5 0L439 659.9c1.8-.3 3.1-2.5 3.1-5.1v-10.4l-104.5-21.7-20.7-6-9 1.7-15.4-2.2-15.4 7.3z"/>
              </defs>
              <clipPath id="T">
                <use xlink:href="#R" overflow="visible"/>
              </clipPath>
              <linearGradient id="S" x1="324.8" x2="325.8" y1="-167.2" y2="-167.2" gradientTransform="translate(-92386 48276.9) scale(284.8899)" gradientUnits="userSpaceOnUse">
                <stop offset="0" style="stop-color:#ffc444"/>
                <stop offset="1" style="stop-color:#f36f56"/>
                <stop offset="1" style="stop-color:#f36f56"/>
              </linearGradient>
              <path fill="url(#S)" d="M157.2 616.1h284.9v58.6H157.2z" clip-path="url(#T)"/>
              <defs>
                <path id="U" d="M6.1 41.6h1000v700H6.1z"/>
              </defs>
              <clipPath id="V">
                <use xlink:href="#U" overflow="visible"/>
              </clipPath>
              <g clip-path="url(#V)">
                <defs>
                  <path id="W" d="M6.1 41.6h1000v700H6.1z"/>
                </defs>
                <clipPath id="X">
                  <use xlink:href="#W" overflow="visible"/>
                </clipPath>
                <g clip-path="url(#X)">
                  <g opacity=".3">
                    <defs>
                      <path id="Y" d="M273.2 616.1h168.9v58.5H273.2z" opacity=".3"/>
                    </defs>
                    <clipPath id="Z">
                      <use xlink:href="#Y" overflow="visible"/>
                    </clipPath>
                    <g clip-path="url(#Z)">
                      <defs>
                        <path id="aa" d="M442.1 644.3v10.4c0 2.6-1.3 4.8-3.1 5l-162.2 14.8c-1.2.1-2.7 0-3.6-.1v-56l19.3-2.3 15.4 2.2 9-1.8 20.7 6 104.5 21.8z"/>
                      </defs>
                      <clipPath id="ac">
                        <use xlink:href="#aa" overflow="visible"/>
                      </clipPath>
                      <linearGradient id="ab" x1="326.5" x2="327.5" y1="-166.5" y2="-166.5" gradientTransform="rotate(109.9 14787.6 -27477.1) scale(141.1825)" gradientUnits="userSpaceOnUse">
                        <stop offset="0" style="stop-color:#ffc444"/>
                        <stop offset=".6" style="stop-color:#f8924f"/>
                        <stop offset="1" style="stop-color:#f36f56"/>
                        <stop offset="1" style="stop-color:#f36f56"/>
                      </linearGradient>
                      <path fill="url(#ab)" d="m460.9 622.9-38.4 105.9-168-61 38.4-105.9z" clip-path="url(#ac)"/>
                    </g>
                  </g>
                  <defs>
                    <path id="ad" d="M6.1 41.6h1000v700H6.1z"/>
                  </defs>
                  <clipPath id="ae">
                    <use xlink:href="#ad" overflow="visible"/>
                  </clipPath>
                  <g clip-path="url(#ae)">
                    <defs>
                      <path id="af" d="m157.2 637.7 115.2 21.7c1.4.4 2.9.5 4.3.3l165.4-15.4L317 616.5l-159.7 21.2z"/>
                    </defs>
                    <clipPath id="ah">
                      <use xlink:href="#af" overflow="visible"/>
                    </clipPath>
                    <linearGradient id="ag" x1="326.5" x2="327.5" y1="-166.5" y2="-166.5" gradientTransform="rotate(109.9 15640.1 -29159.8) scale(149.5521)" gradientUnits="userSpaceOnUse">
                      <stop offset="0" style="stop-color:#ffc444"/>
                      <stop offset=".6" style="stop-color:#f8924f"/>
                      <stop offset="1" style="stop-color:#f36f56"/>
                      <stop offset="1" style="stop-color:#f36f56"/>
                    </linearGradient>
                    <path fill="url(#ag)" d="m456 621.6-47 129.6-265.7-96.4 47.1-129.6z" clip-path="url(#ah)"/>
                    <defs>
                      <path id="ai" d="M6.1 41.6h1000v700H6.1z"/>
                    </defs>
                    <clipPath id="aj">
                      <use xlink:href="#ai" overflow="visible"/>
                    </clipPath>
                    <g clip-path="url(#aj)">
                      <defs>
                        <path id="ak" d="m281.7 444.1-16.9 44.1-13.6 35.5-17.7 46.4-12.7 33-10.5 27.5-.1.4-.2.5v.6c0 9.4 36.5 17.9 82 18.9 9.2.2 18.2.1 26.5-.3 33-1.5 57-7.4 57-15 0-.8-.4-1.5-.9-2.3L364 605.8h-.2l-13-34-17.8-47.3-13.6-36-17-44.4c-2-4.8-5.1-8-8.7-8.8l-1.7-.2c-4.2 0-8.1 3.5-10.2 9"/>
                      </defs>
                      <clipPath id="am">
                        <use xlink:href="#ak" overflow="visible"/>
                      </clipPath>
                      <linearGradient id="al" x1="325.8" x2="326.8" y1="-166.9" y2="-166.9" gradientTransform="rotate(91.8 27624.1 -81170.4) scale(337.7472)" gradientUnits="userSpaceOnUse">
                        <stop offset="0" style="stop-color:#ffc444"/>
                        <stop offset="1" style="stop-color:#f36f56"/>
                        <stop offset="1" style="stop-color:#f36f56"/>
                      </linearGradient>
                      <path fill="url(#al)" d="m382.1 435.3-6.8 221-172-5.3 6.8-220.9z" clip-path="url(#am)"/>
                      <defs>
                        <path id="an" d="M6.1 41.6h1000v700H6.1z"/>
                      </defs>
                      <clipPath id="ao">
                        <use xlink:href="#an" overflow="visible"/>
                      </clipPath>
                      <g clip-path="url(#ao)">
                        <defs>
                          <path id="ap" d="M6.1 41.6h1000v700H6.1z"/>
                        </defs>
                        <defs>
                          <path id="ar" d="M6.1 41.6h1000v700H6.1z"/>
                        </defs>
                        <defs>
                          <path id="at" d="M6.1 41.6h1000v700H6.1z"/>
                        </defs>
                        <clipPath id="aq">
                          <use xlink:href="#ap" overflow="visible"/>
                        </clipPath>
                        <clipPath id="as" clip-path="url(#aq)">
                          <use xlink:href="#ar" overflow="visible"/>
                        </clipPath>
                        <clipPath id="au" clip-path="url(#as)">
                          <use xlink:href="#at" overflow="visible"/>
                        </clipPath>
                        <path fill="#FFF" d="M363.9 605.8a186 186 0 0 1-46.7 6.9c-8 .4-16.5.5-25.3.3-30.5-.6-57-4.5-71.1-9.8l12.7-33.1c14.8 3.3 35.5 5.6 58.5 6 7.4 0 14.6 0 21.5-.3 14.5-.6 27.3-2 37.4-4l12.8 34h.2zM333 524.5a328.5 328.5 0 0 1-41 1.8c-14.9-.1-28.8-1-40.8-2.6l13.6-35.5a374.2 374.2 0 0 0 54.5.3l13.7 36z" clip-path="url(#au)"/>
                        <g clip-path="url(#au)">
                          <g opacity=".2">
                            <defs>
                              <path id="av" d="M210 435.1h108.8v216H210z" opacity=".2"/>
                            </defs>
                            <clipPath id="aw">
                              <use xlink:href="#av" overflow="visible"/>
                            </clipPath>
                            <g clip-path="url(#aw)">
                              <linearGradient id="ax" x1="323.8" x2="324.8" y1="-166.7" y2="-166.7" gradientTransform="translate(-35015.5 18679.4) scale(108.7985)" gradientUnits="userSpaceOnUse">
                                <stop offset="0" style="stop-color:#ffc444"/>
                                <stop offset="1" style="stop-color:#f36f56"/>
                                <stop offset="1" style="stop-color:#f36f56"/>
                              </linearGradient>
                              <path fill="url(#ax)" d="M210 435.1h109.2v216.1H210z"/>
                            </g>
                          </g>
                          <defs>
                            <path id="ay" d="M6.1 41.6h1000v700H6.1z"/>
                          </defs>
                          <clipPath id="az">
                            <use xlink:href="#ay" overflow="visible"/>
                          </clipPath>
                          <g clip-path="url(#az)">
                            <defs>
                              <path id="aA" d="M256.1 221.1h500.1V700H256.1z"/>
                            </defs>
                            <defs>
                              <path id="aC" d="M256.1 221.1h500.1V700H256.1z"/>
                            </defs>
                            <defs>
                              <path id="aE" d="M256.1 221.1h500.1V700H256.1z"/>
                            </defs>
                            <defs>
                              <path id="aG" d="M256.1 221.1h500.1V700H256.1z"/>
                            </defs>
                            <defs>
                              <path id="aI" d="M256.1 221.1h500.1V700H256.1z"/>
                            </defs>
                            <defs>
                              <path id="aK" d="M256.1 221.1h500.1V700H256.1z"/>
                            </defs>
                            <defs>
                              <path id="aM" d="M256.1 221.1h500.1V700H256.1z"/>
                            </defs>
                            <defs>
                              <path id="aO" d="M256.1 221.1h500.1V700H256.1z"/>
                            </defs>
                            <defs>
                              <path id="aQ" d="M256.1 221.1h500.1V700H256.1z"/>
                            </defs>
                            <defs>
                              <path id="aS" d="M256.1 221.1h500.1V700H256.1z"/>
                            </defs>
                            <defs>
                              <path id="aU" d="M256.1 221.1h500.1V700H256.1z"/>
                            </defs>
                            <defs>
                              <path id="aW" d="M256.1 221.1h500.1V700H256.1z"/>
                            </defs>
                            <defs>
                              <path id="aY" d="M256.1 221.1h500.1V700H256.1z"/>
                            </defs>
                            <defs>
                              <path id="ba" d="M256.1 221.1h500.1V700H256.1z"/>
                            </defs>
                            <defs>
                              <path id="bc" d="M256.1 221.1h500.1V700H256.1z"/>
                            </defs>
                            <defs>
                              <path id="be" d="M256.1 221.1h500.1V700H256.1z"/>
                            </defs>
                            <defs>
                              <path id="bg" d="M256.1 221.1h500.1V700H256.1z"/>
                            </defs>
                            <defs>
                              <path id="bi" d="M256.1 221.1h500.1V700H256.1z"/>
                            </defs>
                            <defs>
                              <path id="bk" d="M256.1 221.1h500.1V700H256.1z"/>
                            </defs>
                            <defs>
                              <path id="bm" d="M256.1 221.1h500.1V700H256.1z"/>
                            </defs>
                            <defs>
                              <path id="bo" d="M256.1 221.1h500.1V700H256.1z"/>
                            </defs>
                            <defs>
                              <path id="bq" d="M256.1 221.1h500.1V700H256.1z"/>
                            </defs>
                            <clipPath id="aB">
                              <use xlink:href="#aA" overflow="visible"/>
                            </clipPath>
                            <clipPath id="aD" clip-path="url(#aB)">
                              <use xlink:href="#aC" overflow="visible"/>
                            </clipPath>
                            <clipPath id="aF" clip-path="url(#aD)">
                              <use xlink:href="#aE" overflow="visible"/>
                            </clipPath>
                            <clipPath id="aH" clip-path="url(#aF)">
                              <use xlink:href="#aG" overflow="visible"/>
                            </clipPath>
                            <clipPath id="aJ" clip-path="url(#aH)">
                              <use xlink:href="#aI" overflow="visible"/>
                            </clipPath>
                            <clipPath id="aL" clip-path="url(#aJ)">
                              <use xlink:href="#aK" overflow="visible"/>
                            </clipPath>
                            <clipPath id="aN" clip-path="url(#aL)">
                              <use xlink:href="#aM" overflow="visible"/>
                            </clipPath>
                            <clipPath id="aP" clip-path="url(#aN)">
                              <use xlink:href="#aO" overflow="visible"/>
                            </clipPath>
                            <clipPath id="aR" clip-path="url(#aP)">
                              <use xlink:href="#aQ" overflow="visible"/>
                            </clipPath>
                            <clipPath id="aT" clip-path="url(#aR)">
                              <use xlink:href="#aS" overflow="visible"/>
                            </clipPath>
                            <clipPath id="aV" clip-path="url(#aT)">
                              <use xlink:href="#aU" overflow="visible"/>
                            </clipPath>
                            <clipPath id="aX" clip-path="url(#aV)">
                              <use xlink:href="#aW" overflow="visible"/>
                            </clipPath>
                            <clipPath id="aZ" clip-path="url(#aX)">
                              <use xlink:href="#aY" overflow="visible"/>
                            </clipPath>
                            <clipPath id="bb" clip-path="url(#aZ)">
                              <use xlink:href="#ba" overflow="visible"/>
                            </clipPath>
                            <clipPath id="bd" clip-path="url(#bb)">
                              <use xlink:href="#bc" overflow="visible"/>
                            </clipPath>
                            <clipPath id="bf" clip-path="url(#bd)">
                              <use xlink:href="#be" overflow="visible"/>
                            </clipPath>
                            <clipPath id="bh" clip-path="url(#bf)">
                              <use xlink:href="#bg" overflow="visible"/>
                            </clipPath>
                            <clipPath id="bj" clip-path="url(#bh)">
                              <use xlink:href="#bi" overflow="visible"/>
                            </clipPath>
                            <clipPath id="bl" clip-path="url(#bj)">
                              <use xlink:href="#bk" overflow="visible"/>
                            </clipPath>
                            <clipPath id="bn" clip-path="url(#bl)">
                              <use xlink:href="#bm" overflow="visible"/>
                            </clipPath>
                            <clipPath id="bp" clip-path="url(#bn)">
                              <use xlink:href="#bo" overflow="visible"/>
                            </clipPath>
                            <clipPath id="br" clip-path="url(#bp)">
                              <use xlink:href="#bq" overflow="visible"/>
                            </clipPath>
                            <path fill="#B081C6" d="M587.2 697.4a1757 1757 0 0 0 12.3 79 543.4 543.4 0 0 1 79.4 125.8 256.4 256.4 0 0 1-150.7 56.6 258.2 258.2 0 0 1-168.6-56.6c20-61.3 32-85.5 39.6-94.6 2.7-3 9.3-9.8 11.9-19.4 1-3.6 4.6-19 4.8-20l.2-.8a26.7 26.7 0 0 0 .3-2.4 141.3 141.3 0 0 0 1.7-21.4c0-16.2.7-86.4.7-86.4a113 113 0 0 1-5 19.6c-4.7 13-11 21.4-12.1 23.2-6.6 9.8-11 85.7-12.2 167.6-14.7 14.4-22.5 17.3-28 16.8 0 0-4.6-.5-9-3.4-20.3-13.5-15-106.9-15.4-181 0-9.3-.3-45.8 5-92.8 3.4-30.6 7.6-51.7 24-66.8a325 325 0 0 1 27.5-16.8c35.6-20.8 44.4-23.8 48.4-25.1 18.8-6 33.5-6.2 38-6.3 7.4 0 15.4.7 25.4 2.9 48.3 10.4 72.6 14.6 93.7 27 8.4 5 20.9 13.4 34.1 27a912.9 912.9 0 0 1 50.4 309.1c-18.2 3.4-24.8-1-43 2.3-13.6-44.6-23.3-120.1-37-164.6-11.4-24.6-20.9-50.2-22.6-52.8a1754 1754 0 0 0 6.2 54.3" clip-path="url(#br)"/>
                            <path fill="#8962A0" d="M417.7 754.1c.3-3.5.4-7 .4-10.5 0-16.2.7-86.4.7-86.4s-4.6 30.9-17.1 42.8l20.4-93.3c9.2 22.4 0 111.5-4.4 147.4" clip-path="url(#br)"/>
                            <path fill="#CB845F" d="M521.6 506.2c-19.8 26.1-26.4 53-33 80.4-8.6-33.4-33-58-52.9-77.3 0 0 6-7.2 11-14.5a104.2 104.2 0 0 0 5-7.5l.6-1.2.6-1.2c1.5-3 2.1-8.3 2.3-13.7V469c.2-8.4-.4-16.4-.4-16.4h2l57 .8-1 17.8-.6 9.6v.1a28.5 28.5 0 0 0 .5 8.7 32.6 32.6 0 0 0 9 16.5" clip-path="url(#br)"/>
                            <path fill="#875843" d="M512.2 481a28.5 28.5 0 0 0 .5 8.7c-8.6 7.7-20.7 15.2-30.7 15-15.6-.3-26-8.6-31-16.5l.6-.9.7-1.2.6-1.2c1.5-3 2.1-8.3 2.3-13.7V469c1-3 1.3-7.1 1.5-11.3v-5.1l57.2.8-1.1 17.8-.6 9.6v.1z" clip-path="url(#br)"/>
                            <path fill="#B081C6" d="M453.4 487.9s-10.2 7.1-8 18.2c2 11.1 21.4 26.6 21.4 26.6l-8.4 35s-38.4-32.6-21-67.9a9.1 9.1 0 0 1 3.2-3.6l12.8-8.3zm59.4 2.4s4.9 3.8 3.8 14.6c-1.2 11.2-21.6 27.3-21.6 27.3l9.7 34.7s36.7-35.6 18.2-69.4a7 7 0 0 0-2.5-2.4l-7.6-4.8z" clip-path="url(#br)"/>
                            <path fill="#474B4F" d="M453.4 487.9c-7.4 6.1-10.4 15.8-4.7 24a93.5 93.5 0 0 0 19.6 20.3 1651.2 1651.2 0 0 1-9 38.3l-1.8-1.6c-18.7-16.8-33.5-45-20-69L436 503l-1 3.5c-5.4 19.5 4.7 39.2 17.7 53.4a80 80 0 0 0 6.6 6.6l-2.4.8c2.7-11.7 5.6-23.3 8.5-35l.5 1.4c-8-7-19.1-17.2-21.4-27.7-1.2-7.1 3-14.3 8.8-18.2m41.7 44.4a958 958 0 0 1 11 34.3l-2.2-.5c5-5.3 9.5-11.3 13.2-17.6 8-13 12.7-29.1 8-44.2l-2-5c-.4-.7-.8-1.9-1.3-2.4-1-1.2-3-2.3-4.3-3.3l-4.6-3.2 7.3 4a8 8 0 0 1 3.3 3l.7 1.2c.9 1.4 1.8 3.7 2.4 5.2 8.7 23-4.8 47.7-21 64l-1.5 1.6-.5-2.1a848.8 848.8 0 0 1-8.5-35" clip-path="url(#br)"/>
                            <path fill="#8962A0" d="M587.2 697.4c1 6.8 2.6 14.3 4.6 22.3-13.3-29-18-106.4-18-106.4l19.8 41.4 10 41.1c-11.4-24.5-20.9-50-22.6-52.7-2.3 9.5.4 29.9 6.2 54.3" clip-path="url(#br)"/>
                            <path fill="#462F2E" d="M406 395h-9l10.3-9.6a40 40 0 0 1-15.3-1.7 64 64 0 0 0 12-16.9c6.7-13.9 6.7-27.5 6.8-43.8 0-6.3-.2-11.5-.4-15l22.8 2.9a53.2 53.2 0 0 1 29.5-33.3c14.5 3.7 26.4 7.5 34.8 10.5 35.5 12.3 43 20.3 46.7 24.9a51.1 51.1 0 0 1 10 21.6 50 50 0 0 1-3.1 28.2l18.3 16.1a207 207 0 0 1-14.5-1.6 23.3 23.3 0 0 0 15.5 7.3 41.7 41.7 0 0 1-28.1 11 120.3 120.3 0 0 0 19.7 50.7l-12-2.3 16.9 19a31.4 31.4 0 0 1-25.5-11 84.7 84.7 0 0 0 19.3 29.2 48.8 48.8 0 0 1-23.6-10.4 14.8 14.8 0 0 0 6.7 14.7 27.7 27.7 0 0 1-18.6-6.9l2.2 8.8a108 108 0 0 0-10.3-4.8s-6.1-2.4-11.4-3.8c-9.9-2.5-19.7 1.2-48.3 11l-14 4.7a45.8 45.8 0 0 0-4.4-28.2l-10.2 9.2A95 95 0 0 0 430 457c-1-29.4-15.6-51.3-24-62" clip-path="url(#br)"/>
                            <path fill="#CB845F" d="M414.5 391c-4 22.7 4.6 46 6.4 50.9a85.6 85.6 0 0 0 20 34.1c6.2 6.2 17.4 17.5 35 19.4 3.7.4 14.3 1.5 25.3-4.2a51.6 51.6 0 0 0 19.5-20.4c9.2-14 13-26.9 14.3-31.3 3-10.7 12.3-54.3 5.7-73.6-9-26.3-60-43.4-121.4-35.3 2.2 10 2.2 17.9 1.7 23.3-.2 3.2-.6 5.2-2.8 17.2l-3.7 20" clip-path="url(#br)"/>
                            <path fill="#462F2E" d="M431.4 390.1a156.2 156.2 0 0 0 29.2-5.1l.8-6.8A36.2 36.2 0 0 1 446 381h-15.2l.6 9.1m87.8-.3-2.1-9.4a45.8 45.8 0 0 1-33-2.2l2 7.5a169.8 169.8 0 0 0 33.1 4.1" clip-path="url(#br)"/>
                            <path fill="#875843" d="M472.5 406.4c-1.3 7.3-3.5 14.3-5.8 21.3-1.3 4-4.1 8.5-2.7 12.5 2.8 6.1 10.6 8.2 17.3 6.8a15 15 0 0 1-7.2 2.3c-8.9.5-17.3-7-13.9-16.1 3.6-9.3 7.3-18.1 12.3-26.8m24.5 58.1c0 1-4.1 1.4-12.3 2.2-12.7 1.2-27.8.5-28-2-.1-.2 0-.6.8-1.1 7.9-5.7 39.8-2 39.5.9" clip-path="url(#br)"/>
                            <path fill="#462F2E" d="M419.5 431.4a109 109 0 0 1-1.4-27.3c1-14.5 4.5-20.8 6-33.7.8-8 1-20.1-2.7-35.3l11.2-3.4a224.8 224.8 0 0 0 100.5 49.6l3 42a65.8 65.8 0 0 0 11-22.5s4.6-17.1-.2-34.4c-6.7-24.2-61.6-47.3-131.6-42.3 2.2 20 2.3 36.7-.5 46.3-1.2 4-3.4 10.3-4.8 19.7-1.4 9-2.5 17 .5 26.1a41.1 41.1 0 0 0 9 15.2" clip-path="url(#br)"/>
                            <path fill="#CB845F" d="M532.2 435c.7 4.3 2.5 6.2 3.3 6.9 3 2.7 7 2.9 9.3 2.3 3.5-.7 6.7-3.6 11.7-16 6.5-15.8 11.5-27.9 6-33.4-2.6-2.5-6.8-3-9.8-2.2-4 1-5.5 4.3-12.5 18.2-6.7 13.6-9 18.2-8 24.3m-118.4-17.6c-1.7-4.7-1.3-6-3.4-10.5-2.5-5.4-4.2-6.2-4.9-6.5a7.5 7.5 0 0 0-7.2 1.3c-5 4.3-2.2 14.6-.3 21.8a32 32 0 0 0 9 17c2.3 2.2 5.5 5 9.5 4.3a9.3 9.3 0 0 0 7.4-8c.1-2.5-1.5-3.2-5.1-9.3a57 57 0 0 1-5-10" clip-path="url(#br)"/>
                            <path fill="#FFF" d="M455.3 405.3a9.7 9.7 0 1 1-19.4 0 9.7 9.7 0 0 1 19.4 0m56.6 0a9.7 9.7 0 1 1-19.4 0 9.7 9.7 0 0 1 19.4 0" clip-path="url(#br)"/>
                            <path d="M449.8 405.3a4.4 4.4 0 1 1-8.7 0 4.4 4.4 0 0 1 8.7 0m57.4.7a4.5 4.5 0 1 1-9 0 4.5 4.5 0 0 1 9 0" clip-path="url(#br)"/>
                            <path fill="#474B4F" d="M501.4 549.2c-3.4 8-7 19-9.4 29a312.3 312.3 0 0 0-6.7 80.2v.6c-3.3.3-6.7.5-10.1.4 3.1-.8 6.3-1.2 9.4-1.6l-.5.7c-.7-13.5-.8-27-.1-40.6a207 207 0 0 1 12-63.1c.3-.8.8-2.3 1.2-3v.3-.5l1.5-3.6 2.7 1.2z" clip-path="url(#br)"/>
                            <defs>
                              <path id="bs" d="m695.5 405-138 239a20.5 20.5 0 0 0 17.7 30.6h276.1a20.3 20.3 0 0 0 17.8-30.5l-138-239a20.6 20.6 0 0 0-35.6-.1"/>
                            </defs>
                            <clipPath id="bu">
                              <use xlink:href="#bs" overflow="visible"/>
                            </clipPath>
                            <linearGradient id="bt" x1="324.9" x2="325.9" y1="-167.2" y2="-167.2" gradientTransform="translate(-102471.5 53560.4) scale(317.0959)" gradientUnits="userSpaceOnUse">
                              <stop offset="0" style="stop-color:#26264f"/>
                              <stop offset="0" style="stop-color:#26264f"/>
                              <stop offset="1" style="stop-color:#444b8c"/>
                            </linearGradient>
                            <path fill="url(#bt)" d="M553.8 394.7h318.9v279.9H553.8z" clip-path="url(#bu)"/>
                            <defs>
                              <path id="bv" d="M711 403.9a12 12 0 0 0-7.8 5.6l-138 239.2a11.7 11.7 0 0 0 0 11.7c2 3.6 5.9 6.1 10 6.1h276.1a11.9 11.9 0 0 0 10-17.8l-138-239.2a11.6 11.6 0 0 0-12.3-5.6"/>
                            </defs>
                            <clipPath id="bx">
                              <use xlink:href="#bv" overflow="visible"/>
                            </clipPath>
                            <linearGradient id="bw" x1="324.9" x2="325.9" y1="-167.2" y2="-167.2" gradientTransform="translate(-96674.1 50582.5) scale(299.3123)" gradientUnits="userSpaceOnUse">
                              <stop offset="0" style="stop-color:#fcb148"/>
                              <stop offset=".1" style="stop-color:#fdba46"/>
                              <stop offset=".1" style="stop-color:#ffc244"/>
                              <stop offset=".3" style="stop-color:#ffc444"/>
                              <stop offset=".5" style="stop-color:#fdb946"/>
                              <stop offset=".8" style="stop-color:#f99d4d"/>
                              <stop offset=".9" style="stop-color:#f8924f"/>
                              <stop offset="1" style="stop-color:#f8924f"/>
                            </linearGradient>
                            <path fill="url(#bw)" d="M563.1 403.7h300.4v262.8H563.1z" clip-path="url(#bx)"/>
                            <defs>
                              <path id="by" d="M6.1 41.6h1000v700H6.1z"/>
                            </defs>
                            <defs>
                              <path id="bA" d="M6.1 41.6h1000v700H6.1z"/>
                            </defs>
                            <defs>
                              <path id="bC" d="M6.1 41.6h1000v700H6.1z"/>
                            </defs>
                            <defs>
                              <path id="bE" d="M6.1 41.6h1000v700H6.1z"/>
                            </defs>
                            <defs>
                              <path id="bG" d="M6.1 41.6h1000v700H6.1z"/>
                            </defs>
                            <defs>
                              <path id="bI" d="M6.1 41.6h1000v700H6.1z"/>
                            </defs>
                            <defs>
                              <path id="bK" d="M6.1 41.6h1000v700H6.1z"/>
                            </defs>
                            <defs>
                              <path id="bM" d="M6.1 41.6h1000v700H6.1z"/>
                            </defs>
                            <defs>
                              <path id="bO" d="M6.1 41.6h1000v700H6.1z"/>
                            </defs>
                            <defs>
                              <path id="bQ" d="M6.1 41.6h1000v700H6.1z"/>
                            </defs>
                            <defs>
                              <path id="bS" d="M6.1 41.6h1000v700H6.1z"/>
                            </defs>
                            <defs>
                              <path id="bU" d="M6.1 41.6h1000v700H6.1z"/>
                            </defs>
                            <defs>
                              <path id="bW" d="M6.1 41.6h1000v700H6.1z"/>
                            </defs>
                            <defs>
                              <path id="bY" d="M6.1 41.6h1000v700H6.1z"/>
                            </defs>
                            <defs>
                              <path id="ca" d="M6.1 41.6h1000v700H6.1z"/>
                            </defs>
                            <defs>
                              <path id="cc" d="M6.1 41.6h1000v700H6.1z"/>
                            </defs>
                            <defs>
                              <path id="ce" d="M6.1 41.6h1000v700H6.1z"/>
                            </defs>
                            <defs>
                              <path id="cg" d="M6.1 41.6h1000v700H6.1z"/>
                            </defs>
                            <clipPath id="bz">
                              <use xlink:href="#by" overflow="visible"/>
                            </clipPath>
                            <clipPath id="bB" clip-path="url(#bz)">
                              <use xlink:href="#bA" overflow="visible"/>
                            </clipPath>
                            <clipPath id="bD" clip-path="url(#bB)">
                              <use xlink:href="#bC" overflow="visible"/>
                            </clipPath>
                            <clipPath id="bF" clip-path="url(#bD)">
                              <use xlink:href="#bE" overflow="visible"/>
                            </clipPath>
                            <clipPath id="bH" clip-path="url(#bF)">
                              <use xlink:href="#bG" overflow="visible"/>
                            </clipPath>
                            <clipPath id="bJ" clip-path="url(#bH)">
                              <use xlink:href="#bI" overflow="visible"/>
                            </clipPath>
                            <clipPath id="bL" clip-path="url(#bJ)">
                              <use xlink:href="#bK" overflow="visible"/>
                            </clipPath>
                            <clipPath id="bN" clip-path="url(#bL)">
                              <use xlink:href="#bM" overflow="visible"/>
                            </clipPath>
                            <clipPath id="bP" clip-path="url(#bN)">
                              <use xlink:href="#bO" overflow="visible"/>
                            </clipPath>
                            <clipPath id="bR" clip-path="url(#bP)">
                              <use xlink:href="#bQ" overflow="visible"/>
                            </clipPath>
                            <clipPath id="bT" clip-path="url(#bR)">
                              <use xlink:href="#bS" overflow="visible"/>
                            </clipPath>
                            <clipPath id="bV" clip-path="url(#bT)">
                              <use xlink:href="#bU" overflow="visible"/>
                            </clipPath>
                            <clipPath id="bX" clip-path="url(#bV)">
                              <use xlink:href="#bW" overflow="visible"/>
                            </clipPath>
                            <clipPath id="bZ" clip-path="url(#bX)">
                              <use xlink:href="#bY" overflow="visible"/>
                            </clipPath>
                            <clipPath id="cb" clip-path="url(#bZ)">
                              <use xlink:href="#ca" overflow="visible"/>
                            </clipPath>
                            <clipPath id="cd" clip-path="url(#cb)">
                              <use xlink:href="#cc" overflow="visible"/>
                            </clipPath>
                            <clipPath id="cf" clip-path="url(#cd)">
                              <use xlink:href="#ce" overflow="visible"/>
                            </clipPath>
                            <clipPath id="ch" clip-path="url(#cf)">
                              <use xlink:href="#cg" overflow="visible"/>
                            </clipPath>
                            <path fill="#FFF" d="m719.2 577.4-12-.3c-3.4 0-6.1-3-6.3-6.3l-4.4-84.8c-.1-1.7.5-3.2 1.7-4.3a5.8 5.8 0 0 1 4.6-1.5l20.7 1.5a6.3 6.3 0 0 1 6.2 6.6l-4.3 83.2c-.2 3.3-2.9 6-6.2 5.9M700.7 598c3-2.8 7.2-4.2 12.6-4 5.6 0 9.9 1.5 12.8 4.3 2.9 2.9 4.3 7 4.3 12.5 0 5.3-1.5 9.4-4.4 12.3-3 3-7.2 4.4-12.7 4.4-5.4 0-9.6-1.5-12.6-4.5s-4.6-7.2-4.6-12.4c0-5.5 1.5-9.6 4.6-12.5" clip-path="url(#ch)"/>
                            <path fill="#F4C978" d="M406.2 275.1a133 133 0 1 1-266 0 133 133 0 0 1 266 0" clip-path="url(#ch)"/>
                            <path fill="#536969" d="M273.2 154.4a120.7 120.7 0 1 0 0 241.4 120.7 120.7 0 0 0 0-241.4m0 232.7a111.8 111.8 0 0 1-112-112 112 112 0 1 1 112 112" clip-path="url(#ch)"/>
                            <path fill="#536969" d="M311.3 218.1s-16.2-11.8-38-11.6c-22-.2-38 11.6-38 11.6-29.7 25.2-8.2 62.3-8.2 62.3 4.2 4.7 4.4 16 4.4 16 0 11.2 7.3 12.4 7.3 12.4 4 1.5 14.1 5.9 14.1 5.9 6.2 2 5.6 14.2 5.6 14.2h2c-.2-.2-.2-.4-.2-.6V324a1.2 1.2 0 0 1 2.5 0v4.2c0 .2 0 .4-.2.6h1.2l-.2-.6V324a1.2 1.2 0 0 1 2.5 0v4.2l-.1.6h1.1l-.1-.6V324a1.2 1.2 0 0 1 2.5 0v4.2c0 .2 0 .4-.2.6h1.2l-.2-.6V324a1.2 1.2 0 0 1 2.5 0v4.2l-.1.6h1.1l-.1-.6V324a1.2 1.2 0 0 1 2.5 0v4.2l-.2.6h1.2l-.2-.6V324a1.2 1.2 0 0 1 2.5 0v4.2c0 .2 0 .4-.2.6h1.2l-.2-.6V324a1.2 1.2 0 0 1 2.5 0v4.2l-.1.6h1.1l-.1-.6V324a1.2 1.2 0 1 1 2.5 0v4.2c0 .2 0 .4-.2.6h2s-.6-12.2 5.5-14.2c0 0 10-4.4 14.2-6 0 0 7.3-1.1 7.3-12.3 0 0 .2-11.3 4.3-16 0 0 21.5-37-8-62.3m-48 62.2c-3 5.2-8 11.4-14.9 10.3a12.3 12.3 0 0 1-4.4-1.8c-4.3-3-6.4-8-6.7-13.1-.3-5.9 3.6-9.7 8.7-11.7a29 29 0 0 1 15.6-.8c2.3.5 4 2.9 4.5 5 1 4.2-.8 8.5-2.8 12.1m10 37.4c-3.8 0-6.9-4-6.9-12 0-8.2 6.8-10.7 6.8-10.7s6.9 2.5 6.9 10.6-3 12.1-6.9 12.1m36-42a16.4 16.4 0 0 1-6.8 13 12.2 12.2 0 0 1-4.3 1.9c-6.8 1.1-12-5.1-14.9-10.3-2-3.6-3.8-8-2.9-12.1.5-2.1 2.3-4.5 4.6-5a29 29 0 0 1 15.5.8c5.2 2 9.1 5.8 8.8 11.7" clip-path="url(#ch)"/>
                            <path fill="#536969" d="M300.6 323.4c0-1.8-2-2.5-3.4-2.3-2.7.3-2.5 2.5-3.3 4.5a18.7 18.7 0 0 1-8.5 9.9 33.3 33.3 0 0 1-24.3 0c-4-2.1-6.9-5.7-8.5-9.9-.9-2-.6-4.2-3.3-4.5-1.5-.2-3.4.5-3.5 2.3a28.6 28.6 0 0 0 8.5 18.8c2.2 2.2 4.8 3.8 7 6 1.6 1.9 3.2 4 5.3 5.3 1.4 1 3 1.7 4.8 2a10.6 10.6 0 0 0 3.7 0c1.7-.3 3.3-1 4.8-2 2-1.4 3.6-3.4 5.4-5.2 2-2.3 4.7-4 6.8-6.1a28.6 28.6 0 0 0 8.5-18.8" clip-path="url(#ch)"/>
                            <path fill="#536969" d="M261.5 339c-.7 0-1.2-.5-1.2-1.2v-4.2a1.2 1.2 0 0 1 2.5 0v4.2c0 .7-.6 1.2-1.3 1.2m3.4 0c-.7 0-1.3-.5-1.3-1.2v-4.2a1.2 1.2 0 0 1 2.5 0v4.2c0 .7-.5 1.2-1.2 1.2m3.3 0c-.7 0-1.2-.5-1.2-1.2v-4.2a1.2 1.2 0 0 1 2.5 0v4.2c0 .7-.6 1.2-1.3 1.2m3.4 0c-.7 0-1.3-.5-1.3-1.2v-4.2a1.2 1.2 0 0 1 2.5 0v4.2c0 .7-.5 1.2-1.2 1.2m3.4 0c-.8 0-1.3-.5-1.3-1.2v-4.2a1.2 1.2 0 0 1 2.5 0v4.2c0 .7-.6 1.2-1.3 1.2m3.4 0c-.7 0-1.3-.5-1.3-1.2v-4.2a1.2 1.2 0 0 1 2.5 0v4.2c0 .7-.6 1.2-1.2 1.2m3.3 0c-.7 0-1.3-.5-1.3-1.2v-4.2a1.2 1.2 0 0 1 2.5 0v4.2c0 .7-.5 1.2-1.2 1.2m3.4 0c-.8 0-1.3-.5-1.3-1.2v-4.2a1.2 1.2 0 0 1 2.5 0v4.2c0 .7-.6 1.2-1.3 1.2m-67.5-130.2c.8 5.3 2 9 5.2 12.6a48 48 0 0 0-7.7 14.7 485 485 0 0 0-2-1.7c-5.1-4.1-7.3-4.4-14-4-6.6.5-14.5 1.4-15.3-7.4-.8-8 10.3-9.4 14.1-14.8 3.1-4.3 2.3-13 9.2-13.6 8.7-.8 9.5 7.7 10.5 14.2M363 323.7c-.1 2.8-2.5 5.1-5 6.6-2.2 1.4-4.8 2.4-6.7 4.3a9 9 0 0 0-.4.4c-4 4.6-3.4 13-9 15.5-3.4 1.5-7.6-.3-10-3.3-3-4-4.3-10-4-14.9 0-1.4.3-2.9-.2-4.2a8 8 0 0 0-3-3.2l-13.4-10a17 17 0 0 0 10-12.4c4 3.4 8 7 12.2 10 5.4 4 6 3 12.7 2 4-.5 8.3.3 12 2.4 2.5 1.4 4.8 3.9 4.7 6.8M235.2 315l-13.5 10a8 8 0 0 0-2.9 3c-.5 1.4-.3 2.9-.2 4.3.3 5-1 10.9-4.1 14.9-2.3 3-6.5 4.8-10 3.3-5.6-2.5-4.9-11-9-15.5l-.4-.4c-1.8-1.9-4.4-3-6.7-4.3-2.4-1.5-4.8-3.8-4.9-6.6 0-3 2.3-5.4 4.9-6.8a19 19 0 0 1 12-2.3c6.5 1 7.2 1.8 12.5-2 4.3-3 8.3-6.7 12.3-10a17 17 0 0 0 10 12.4M363 223c-1 8.8-8.8 7.9-15.5 7.4-6.6-.4-8.8-.1-13.9 4l-2 1.6a48 48 0 0 0-7.7-14.6 22 22 0 0 0 5.2-12.6c1-6.5 1.8-15 10.5-14.2 6.9.7 6 9.3 9.2 13.6 3.7 5.4 14.9 6.8 14.1 14.8" clip-path="url(#ch)"/>
                          </g>
                        </g>
                      </g>
                    </g>
                  </g>
                </g>
              </g>
            </g>
          </g>
        </g>
      </g>
    </g>
  </g>
  <path fill="none" d="M318.5 650.7c-8.4.4-17.3.5-26.5.3-45.5-1-82-9.5-82-18.9v-.6l.2-.5.1-.4 10.5-27.4 12.7-33.1 17.7-46.4 13.6-35.5 16.9-44.1c2-5.5 6-9 10.2-9l1.7.2a4480.5 4480.5 0 0 1 13.6 90.9 1870 1870 0 0 1 6.3 49.6 1139 1139 0 0 1 3.8 36.9 267 267 0 0 1 1.2 38"/>
  <path fill="none" d="M256.1 221.1h500.1V700H256.1z"/>
  <path fill="none" d="M6.1 41.6h1000v700H6.1z"/>
  <path fill="none" d="M6.1 41.6h1000v700H6.1z"/>
  <path fill="none" d="M6.1 41.6h1000v700H6.1z"/>
  <path fill="none" stroke="#BC2B1D" stroke-linecap="round" stroke-miterlimit="10" stroke-width="7" d="M85.4 700H920"/>
</svg>
