<svg fill="none" xmlns="http://www.w3.org/2000/svg" viewBox="0 0 186 105">
  <path fill-rule="evenodd" clip-rule="evenodd" d="M.6 54.2c4.8 9.2 12.2 23.5 38 19 20.7-3.5 26.9 7.6 32.6 18l3 5a8 8 0 0 0 6.8 3.6h3c5 0 9-4 9-9v-50a9 9 0 0 0-5.6-8.2l-75-31.2A9 9 0 0 0 0 9.8v41.8c0 1 .2 1.8.6 2.6Zm184.8 0c-4.8 9.2-12.2 23.5-38 19-20.7-3.5-26.9 7.6-32.6 18l-3 5a8 8 0 0 1-6.8 3.6h-3c-5 0-9-4-9-9v-50a9 9 0 0 1 5.6-8.2l75-31.2A9 9 0 0 1 186 9.8v41.8c0 1-.2 1.8-.6 2.6Z" fill="#F4A17C"/>
  <path d="M110.2 13.5s1.1.1 2 1c1 .8 2-1.3.3-1.8-1.6-.4-2.3.8-2.3.8Zm-1.1-.1s.7-.9 2-1.2c1.3-.3 0-2.2-1.3-1.2-1.3 1-.7 2.4-.7 2.4Zm-14.6 5.1s-.8.8-1 2c-.2 1.3-2.3.2-1.4-1.1 1-1.4 2.4-1 2.4-1Zm.7-.8s-1.1-.2-2.3.4c-1.1.6-1.4-1.8.3-1.8a2 2 0 0 1 2 1.4Zm16.2 7.4c2.4-4 1.1-9.1-2.9-11.5A8.5 8.5 0 0 0 97 16.4 8.4 8.4 0 0 0 99.7 28c4 2.4 9.3 1.1 11.7-2.9Z" fill="#F5E2D5"/>
  <path d="m97.5 19.3-.3-.1c-.1-.2 0-.4.1-.5l2.1-1-1.4-.1a.3.3 0 0 1-.3-.4c0-.1.1-.3.3-.3l2.7.1.3.3c0 .1 0 .2-.2.3l-3.2 1.7Zm11.4-3h-3.6l-.3-.1c0-.2 0-.3.2-.4l2.3-1.5.4.1v.5l-1.4.8h2.3a.3.3 0 0 1 0 .6Zm-11.5 4.5c1.8 3.3 5 5.2 8 4.4 2.9-.8 4.7-4 4.5-7.8l-1.1.1c-3.7.4-7.2 1.4-10.5 2.9l-.9.4Z" fill="#3F4553"/>
  <path d="M109 21.6a8 8 0 0 0-4.6 0 8 8 0 0 0-4 2.4 6 6 0 0 0 4.9.9 5.9 5.9 0 0 0 3.6-3.3Z" fill="#4E5567"/>
  <path d="M52.5 53.7A8.5 8.5 0 0 0 36.2 49a8.5 8.5 0 0 0 16.3 4.7Z" fill="#F5E2D5"/>
  <path d="M40 46.2a.3.3 0 0 1 .2-.6l2.3.4-1-1a.3.3 0 0 1 0-.4c0-.1.2-.1.4 0l2 1.6c.1.1.2.3 0 .4 0 .1-.1.2-.3.2l-3.5-.6H40Zm10.9 4.4-2.9-2a.3.3 0 0 1 .2-.6l2.8.2c.1 0 .3.2.3.4s-.2.3-.4.3l-1.5-.2 1.8 1.3c.1.1.2.3 0 .5H51Zm-5.5 4.3c-1.2 0-2.3-.3-3.3-.9a7 7 0 0 1-3.2-4.4c0-.2.2-.4.4-.4s.4 0 .5.3a6 6 0 0 0 2.7 3.8c1.6 1 3.7 1 6.3.1a.4.4 0 1 1 .3.8 14 14 0 0 1-3.7.7Z" fill="#3F4553"/>
  <path d="M95.6 77.5a9.2 9.2 0 0 0 0-13.1 9.4 9.4 0 0 0-13.2 0 9.2 9.2 0 0 0 0 13 9.4 9.4 0 0 0 13.2 0Z" fill="#F5E2D5"/>
  <path d="M83.7 74s6-3.5 11.8-4.3c0 0 1.7 5.4-3.9 7.5-4.8 1.9-7.9-3.3-7.9-3.3Zm1.2-2.7a.5.5 0 0 1-.5-.3l-1.3-2.6c-.2-.2 0-.6.2-.7.3-.2.6 0 .7.2l1.4 2.6a.5.5 0 0 1-.5.8Zm7.3-2.6a.5.5 0 0 1-.6-.4l-.6-3c0-.3.1-.6.4-.6.3 0 .6 0 .7.4l.6 3a.5.5 0 0 1-.5.6Z" fill="#3F4553"/>
  <path d="M93.1 76.2c-.5-1.3-2.3-1.8-4-1.2a4 4 0 0 0-2 1.7c1.2.6 2.7.9 4.5.2l1.5-.7Z" fill="#4E5567"/>
  <path d="M143 47c4.8-2.1 7-7.5 5-12.2a9.4 9.4 0 0 0-12.4-4.9 9.3 9.3 0 0 0-4.9 12.2c2 4.7 7.6 6.8 12.3 4.8Z" fill="#F5E2D5"/>
  <path d="M140.5 40.5a9.4 9.4 0 0 1-5.7-2 .3.3 0 0 1 0-.3h.3c.2.1 5 3.7 9.8.4.1-.1.3-.1.4 0v.4a8.2 8.2 0 0 1-4.8 1.5Zm2.7-4.9c0 .5-.2 1-.5 1s-.5-.5-.5-1c0-.6.2-1 .5-1s.5.4.5 1Zm-4.9-.2c0 .5-.2 1-.5 1-.2 0-.5-.5-.5-1 0-.6.3-1 .5-1 .3 0 .5.4.5 1Z" fill="#3F4553"/>
  <path d="M115.7 102.9c12.6 0 22.8-2.3 22.8-5.1s-10.2-5.1-22.8-5.1c-12.6 0-22.8 2.3-22.8 5 0 2.9 10.2 5.2 22.8 5.2Z" fill="#F4A17C"/>
  <path opacity=".5" d="M115.7 102.9c12.6 0 22.8-2.3 22.8-5.1s-10.2-5.1-22.8-5.1c-12.6 0-22.8 2.3-22.8 5 0 2.9 10.2 5.2 22.8 5.2Z" fill="#F4A17C"/>
  <path d="M114 30.3s-1.8-.1-2-1.7c-.1-1.6 4-3.6 6.6-3.6 2.7-.1 5.2 2.7 5.2 5s.4 5.5 2.4 6.1c2 .7 3.3 4.5 2.1 6-1.2 1.4-1 1.4.1 2.6 1.2 1.3.2 3.5-.6 4-.8.4-3.2 1.1-8.5.7-5.4-.5-8.5-5.3-8.8-7.3-.2-2 1.6-3.3 2.3-4.1.6-1-.5-1.6-.4-2.6 0-1 1.2-1.7 1.5-2.5.4-.8 0-2.6 0-2.6Z" fill="#3F4553"/>
  <path d="M122.5 49.7c-1 0-2 0-3.2-.2-5.6-.5-8.7-5.5-8.9-7.4-.2-1.6.9-2.7 1.7-3.6l.5-.6c.4-.5.2-.9 0-1.3s-.4-.7-.4-1.2c0-.6.5-1 1-1.6.2-.3.5-.6.6-1 .3-.6 0-2 0-2.4-.4 0-1.7-.4-1.9-1.8 0-.4.1-.8.5-1.2 1.1-1.3 4.1-2.5 6.2-2.6a5 5 0 0 1 3.6 1.6c1 1 1.7 2.4 1.7 3.6 0 2 .3 5.4 2.3 6 1 .3 2 1.6 2.5 3.1.4 1.3.3 2.4-.3 3-1 1.3-1 1.3 0 2.4l.1.1c.6.7.6 1.4.6 2-.2 1-.8 1.9-1.3 2.2-.4.2-1.8.9-5.3.9ZM118.7 25c-2 0-5 1.3-6.1 2.5-.3.4-.5.7-.4 1 .1 1.4 1.7 1.6 1.8 1.6v.1s.4 1.9 0 2.7c0 .3-.3.6-.6 1-.4.5-.9 1-1 1.4 0 .4.2.7.4 1 .2.6.5 1 0 1.6 0 .2-.3.4-.5.7-.8.8-1.8 2-1.6 3.4.2 1.8 3.2 6.6 8.6 7.1 5.8.6 7.9-.4 8.4-.7.4-.2 1-1 1-2a2 2 0 0 0-.4-1.7h-.1c-1.1-1.3-1.2-1.4 0-2.8.5-.6.6-1.6.2-2.8-.3-1.2-1.2-2.6-2.3-3-2.1-.6-2.4-4.1-2.4-6.2 0-1.1-.7-2.4-1.7-3.4s-2.2-1.5-3.3-1.5Z" fill="#3F4553"/>
  <path d="m126.6 43-.2-.2.2-.1.3-.1c.2-.2.5-.5.6-1.5.2-1.3-1.8-3-4-4.6l-2.7-2.4c-2.8-2.8-3.2-6-3.2-6V28h.2c0 .1.4 3.2 3.2 5.9l2.7 2.3c2.3 2 4.3 3.5 4 5 0 .8-.3 1.4-.7 1.6l-.4.2Zm-13.5-14c-.9 0-1.2-.3-1.2-.3v-.2h.2s.5.5 2.2.1c1.8-.4 3.6-1.9 3.6-1.9h.2v.2c-.1 0-2 1.5-3.7 2a5 5 0 0 1-1.3.1Z" fill="#AC9B8F"/>
  <path d="M105.6 95s1.2 1.6 2.5 2.3c1.3.7 3.7.2 3-1.5a5.7 5.7 0 0 0-2.6-3c-.8-.3-3 .6-2.9 2.2Z" fill="#E49621"/>
  <path d="M109.5 97.7a3 3 0 0 1-1.5-.3 8 8 0 0 1-2.5-2.3c0-.8.3-1.4 1-1.9s1.6-.7 2-.5a5 5 0 0 1 2.7 3c.3.7.2 1.2-.2 1.6-.4.3-1 .4-1.5.4Zm-3.8-2.7c.2.2 1.3 1.5 2.5 2.2.8.4 2 .4 2.6-.1.3-.3.4-.7.2-1.3-.8-2-2.1-2.7-2.5-2.8-.4-.2-1.2 0-1.9.4a2 2 0 0 0-.9 1.6Z" fill="#3F4553"/>
  <path d="m107.3 96.7.8.6c1.3.7 3.7.2 3-1.5-2.1-1.3-3.8.9-3.8.9Z" fill="#F1BD54"/>
  <path d="M109.5 97.7a3 3 0 0 1-1.5-.3 6 6 0 0 1-.8-.6v-.2s1.8-2.3 4-1v.1c.3.7.2 1.2-.2 1.6-.4.3-1 .4-1.5.4Zm-2-1 .7.5c.8.4 2 .4 2.6-.1.3-.3.4-.7.2-1.2-1.8-1-3.2.4-3.5.8Z" fill="#3F4553"/>
  <path d="M108.1 97.3c1.3.7 3.4.3 3.1-1.2-.4.5-1.3 1-2.5.6a7.5 7.5 0 0 1-3-2.4v.7s1 1.6 2.4 2.3Z" fill="#F1BD54"/>
  <path d="M109.5 97.7a3 3 0 0 1-1.5-.3 8 8 0 0 1-2.5-2.3l.1-.9h.4c.4.6 1.5 1.9 2.8 2.4 1.3.4 2.1-.3 2.4-.6h.2c.2.6 0 1-.4 1.3-.4.3-1 .4-1.4.4Zm-3.8-2.7c.2.2 1.3 1.5 2.5 2.2.7.4 1.9.4 2.5 0 .3-.3.4-.5.4-.8-.4.4-1.3.9-2.5.4a7.4 7.4 0 0 1-2.8-2.2v.4Z" fill="#3F4553"/>
  <path d="M125.4 95s-1.2 1.5-2.5 2.2c-1.3.8-3.7.3-3-1.5.7-1.7 1.8-2.6 2.6-2.9.8-.3 3 .5 3 2.2Z" fill="#E49621"/>
  <path d="M121.6 97.7c-.6 0-1.2-.2-1.5-.5-.5-.4-.6-.9-.3-1.5.9-2.2 2.3-2.9 2.7-3 .5-.2 1.4 0 2 .4.7.5 1 1.2 1 1.9a8 8 0 0 1-2.5 2.3 3 3 0 0 1-1.4.4Zm1.3-4.8a1 1 0 0 0-.3 0c-.4.2-1.7.8-2.6 2.9-.2.5 0 1 .3 1.2.5.5 1.7.6 2.6.1 1.1-.6 2.2-2 2.4-2.2 0-.8-.6-1.3-.9-1.5-.5-.4-1-.5-1.5-.5Z" fill="#3F4553"/>
  <path d="M123.7 96.6c-.2.3-.5.5-.8.6-1.3.8-3.7.3-3-1.5 2.2-1.3 3.8 1 3.8 1Z" fill="#F1BD54"/>
  <path d="M121.6 97.7c-.6 0-1.2-.2-1.5-.5-.5-.4-.6-.9-.3-1.5 2.3-1.4 4 .8 4 .9v.1a6 6 0 0 1-.8.6 3 3 0 0 1-1.4.4Zm-1.6-1.9c-.2.5 0 1 .3 1.2.5.5 1.7.6 2.6.1l.7-.5c-.4-.3-1.8-1.8-3.6-.8Z" fill="#3F4553"/>
  <path d="M123 97.2c-1.3.7-3.5.3-3.2-1.2.5.5 1.4 1 2.6.6a7.5 7.5 0 0 0 2.9-2.4l.1.8s-1.2 1.5-2.5 2.2Z" fill="#F1BD54"/>
  <path d="M121.6 97.7c-.5 0-1-.1-1.4-.4-.4-.3-.6-.8-.5-1.3h.2c.3.3 1.2 1 2.4.5a7.4 7.4 0 0 0 2.9-2.3h.2l.2.8c-.1.1-1.3 1.6-2.6 2.4a3 3 0 0 1-1.4.3Zm-1.7-1.4c0 .3.2.6.4.8.6.4 1.8.4 2.6 0 1.1-.6 2.2-2 2.4-2.2v-.4c-.6.7-1.7 1.8-2.9 2.3-1.2.4-2 0-2.5-.5Z" fill="#3F4553"/>
  <path d="M116.2 36s-.3 2.6-.6 3.2c-.2.5-3.2.7-4.4 1.2-1.3.4-4 2.7-5.7 4.3a15.8 15.8 0 0 0-3.1 6.3c0 .5 1.6-1.6 3.1-3 1.5-1.6 4.9-3.5 4.9-3.5l1.3 6.5c.2.6 0 1.7 0 2 0 .2-3.3 6-3.9 10.7-.5 4.8.5 14 .5 14s-1.8 3.5-2 7.4c-.1 4-1 8.6-1 9 .1.2 0 .8.3 1 .4 0 .7-1 1.7-1.3 1-.3 2.2.4 2.4-.3l.1-3.5c.2-1.7 2.8-8.4 3-10.7.1-2.3 2-13.5 2.4-14l.4-.6s.4-1 .7.1c.2 1 0 11.2.4 12.7a561 561 0 0 0 4.7 12.7c.5 1.2-.5 2.6-.2 3.2.3.7 1.2.4 2 .4s1.6 1.2 2.2 1.2c.7 0 .9-1 .9-2s-2.8-11-3-13.4c-.1-2.4-.7-4.3-.7-4.3s1-11.3.8-13.7c-.2-2.5-2.3-8.7-2.3-8.7l1.4-7.7s4.4 2.4 5.9 4.4c1.5 2 2.5 1.9 2.4.3-.2-1.6-4-6.2-5.9-8.3-2-2-4.7-1.6-5.5-2.2-.8-.5-.3-6-.3-6l-3 2.6Z" fill="#FED9CE"/>
  <path d="M105.7 95.2h-.1c-.4-.1-.4-.5-.4-.8V94l.2-1.8c.3-1.8.7-4.6.8-7 .1-3.8 1.8-7.2 2-7.6-.1-.7-1-9.3-.5-13.9a34.2 34.2 0 0 1 3.9-10.8v-1.8a495 495 0 0 1-1.3-6.4c-.7.4-3.4 2-4.7 3.3l-1.5 1.7c-1.2 1.3-1.5 1.6-1.8 1.5V51c0-.6 1.4-4.8 3.1-6.4 1.4-1.3 4.3-3.8 5.7-4.4a14 14 0 0 1 2.2-.4c.9-.2 2-.4 2.2-.7a24.3 24.3 0 0 0 .6-3.2l3-2.6.1.2c-.1 2-.2 5.4.3 5.8.2.2.7.3 1.3.3a7 7 0 0 1 4.2 2c2 2 5.7 6.6 6 8.3 0 1-.3 1.2-.5 1.3-.5.2-1.3-.4-2.2-1.5a24 24 0 0 0-5.7-4.3l-1.4 7.5c.2.6 2.1 6.3 2.3 8.7.3 2.4-.7 13-.8 13.7a81.4 81.4 0 0 0 2.5 12.8c.7 2.5 1.2 4.5 1.2 5 0 1.3-.3 2-1 2-.3 0-.7-.3-1-.5-.5-.3-.9-.6-1.2-.6h-.5c-.7 0-1.3 0-1.6-.5-.2-.3 0-.8 0-1.3.3-.6.4-1.3.2-2l-4.7-12.7c-.3-.9-.3-4.7-.4-8v-4.7l-.2-.3-.3.3-.4.6c-.3.5-2.2 11.4-2.4 14-.1 1.2-1 3.9-1.7 6.2-.6 2-1.2 3.7-1.2 4.4l-.1 2.2-.1 1.4c-.1.5-.7.4-1.3.3h-1.2c-.5.1-.8.5-1 .8-.3.3-.4.5-.6.5Zm4.7-50.8.1.1L112 51v1.9l-.4.9a34 34 0 0 0-3.5 10 84.4 84.4 0 0 0 .4 13.9s-1.8 3.6-2 7.4a74.7 74.7 0 0 1-.9 9.3l.1.5.4-.4c.3-.3.7-.7 1.2-.9h1.4c.5.1.9.1 1-.1V90l1.3-4.5c.8-2.3 1.6-5 1.7-6.2.2-2 2-13.5 2.5-14l.4-.6c0-.2.2-.5.5-.5.2 0 .3.3.4.6l.1 4.7c0 3.2 0 7 .4 8 .4 1.5 4.2 11.5 4.7 12.6.2.7 0 1.5-.2 2.2 0 .4-.2.8 0 1 .1.5.6.4 1.2.4h.6c.4 0 .9.3 1.3.6s.7.5 1 .5c.6 0 .6-1.2.6-1.8l-1-5c-.9-3.2-1.8-7-2-8.4 0-2.4-.6-4.3-.6-4.3 0-.1 1-11.3.8-13.7-.3-2.4-2.3-8.6-2.3-8.6l1.4-7.9h.2c.2 0 4.4 2.4 6 4.4.8 1.2 1.5 1.5 1.8 1.4.2 0 .3-.5.2-1-.1-1.6-3.9-6.2-5.8-8.2a6.8 6.8 0 0 0-4-1.8c-.7 0-1.2-.2-1.4-.4-.8-.5-.6-4.5-.5-5.7l-2.6 2.3c0 .4-.3 2.6-.6 3.1-.1.4-1 .6-2.4.8l-2 .5a26 26 0 0 0-5.7 4.3 16 16 0 0 0-3 6l1.3-1.3 1.5-1.7c1.5-1.5 4.8-3.3 5-3.4Z" fill="#3F4553"/>
  <path d="M121.2 93.4c.3.7 1.2.4 2 .4s1.6 1.2 2.2 1.2c.7 0 .9-1 .9-2s-2.8-11-3-13.4c-.1-2.4-.7-4.3-.7-4.3s1-11.3.8-13.7l-.2-1.4-14.1-1.4a22 22 0 0 0-1.3 5c-.5 4.7.5 13.8.5 13.8s-1.8 3.6-2 7.5c-.1 4-1 8.6-1 9 .1.2 0 .9.3 1 .4 0 .7-1 1.7-1.3 1-.3 2.2.4 2.4-.3l.1-3.5c.2-1.7 2.8-8.4 3-10.7.1-2.3 2-13.5 2.4-14l.4-.6s.4-1 .7.1c.2 1 0 11.2.4 12.7a556 556 0 0 0 4.7 12.7c.5 1.2-.5 2.6-.2 3.2Z" fill="#3F4553"/>
  <path d="M105.7 95.2h-.1c-.4-.1-.4-.5-.4-.8V94l.2-1.8c.3-1.8.7-4.6.8-7 .1-3.8 1.8-7.2 2-7.6-.1-.7-1-9.3-.5-13.9a21.9 21.9 0 0 1 1.4-5l14 1.3.2.1.2 1.5c.3 2.4-.7 13-.8 13.7a82 82 0 0 0 2.5 12.8c.7 2.5 1.2 4.5 1.2 5 0 1.3-.3 2-1 2-.3 0-.7-.3-1-.6-.4-.2-.9-.6-1.2-.6h-.5c-.7.1-1.3.1-1.6-.4-.2-.3 0-.8 0-1.3.3-.6.5-1.3.2-2l-4.7-12.7c-.3-.9-.3-4.7-.3-8 0-2.2 0-4.3-.2-4.7l-.1-.3-.3.3-.4.6c-.3.4-2.2 11.4-2.4 13.9 0 1.3-1 4-1.7 6.3A34 34 0 0 0 110 90l-.1 2.1-.1 1.5c-.1.4-.7.4-1.3.3h-1.2c-.5.1-.8.5-1 .8-.3.3-.4.5-.6.5Zm3.5-36.2c-.7 1.7-1 3.4-1.2 4.7-.6 4.8.4 13.8.4 14 0 0-1.8 3.6-2 7.4a74.4 74.4 0 0 1-.9 9.3l.1.5.4-.4c.3-.3.7-.7 1.2-.9h1.4c.5.1.9.1 1-.1V90l1.3-4.5c.8-2.3 1.6-5 1.7-6.2.2-2 2-13.5 2.5-14l.4-.6c0-.2.2-.5.5-.5.2 0 .3.3.4.6l.1 4.7c0 3.2 0 7 .4 8 .4 1.5 4.2 11.5 4.7 12.6.2.7 0 1.5-.2 2.2 0 .4-.2.8 0 1 .1.5.6.4 1.2.4h.6c.4 0 .9.3 1.3.6s.7.5 1 .5c.6 0 .6-1.2.6-1.8l-1-5c-.9-3.2-1.8-7-2-8.4 0-2.4-.6-4.3-.6-4.3a162.7 162.7 0 0 0 .5-15L109.2 59Z" fill="#3F4553"/>
  <path d="M124.9 41.6c-2-2-4.7-1.6-5.5-2.2-.6-.4-.5-3.4-.4-5l-.5-.4-2.3 2s-.3 2.6-.6 3.2c-.2.5-3.2.7-4.4 1.2a26 26 0 0 0-5.6 4.2l1.7 2c1.4-1.1 3-2 3-2l1.4 6.4c.2.7 0 1.7 0 2 0 .1-1.8 3.3-3 6.9 2.3 1 6.8 2.2 14.6 1.3-.4-2.7-2.2-8.3-2.2-8.3l1.4-7.7s1.4.7 2.9 1.8l2.2-2.2-2.7-3.2Z" fill="#9776A5"/>
  <path d="M118 61.6c-4.6 0-7.5-.8-9.3-1.6l-.1-.2a46.7 46.7 0 0 1 3-6.9v-.3c0-.4.1-1 0-1.6l-1.3-6.3a41.5 41.5 0 0 0-3.1 1.9l-1.7-1.9v-.2c1.5-1.3 4.3-3.8 5.6-4.3a14 14 0 0 1 2.2-.4c.9-.2 2-.4 2.2-.7.2-.5.5-3 .5-3v-.2l2.4-2h.2l.5.4v.1c-.1 3.3.1 4.7.4 5l1.3.2a7 7 0 0 1 4.2 2 45.1 45.1 0 0 1 2.7 3.3l-2.2 2.1a39.2 39.2 0 0 0-2.8-1.7l-1.5 7.6a71.7 71.7 0 0 1 2.2 8.4l-5.5.3Zm-9.1-1.8c2.4 1 6.8 2.1 14.3 1.2a75 75 0 0 0-2.2-8l1.4-7.9h.2l2.8 1.7 2-2a16 16 0 0 0-2.6-3 6.8 6.8 0 0 0-4-1.9c-.7 0-1.2-.2-1.5-.4-.4-.3-.6-2-.4-5l-.4-.4-2.2 2c0 .4-.3 2.6-.6 3.1-.1.4-1 .6-2.4.8l-2 .5c-1.2.4-3.7 2.4-5.5 4.1l1.5 1.7 3-1.9a.1.1 0 0 1 .2.1L112 51v1.9l-.4.9c-.6 1.1-1.8 3.4-2.6 6Z" fill="#3F4553"/>
  <path d="M121 39.8c-.7-.1-1.3-.2-1.6-.4-.6-.4-.5-3.4-.4-5l-.5-.4-2.3 2s-.3 2.6-.6 3.2c0 .2-.6.3-1.2.5.5 1.6 1.7 4.4 3.2 4.4 1.5 0 2.8-2.7 3.4-4.3Z" fill="#FED9CE"/>
  <path d="M117.6 44.2c-1.6 0-2.8-2.8-3.3-4.5v-.1c1-.2 1.1-.4 1.2-.5a24.4 24.4 0 0 0 .6-3.2l2.3-2h.2l.5.4v.1c-.1 3.3.1 4.7.4 5l1.3.2h.3v.2c-.7 2-2 4.4-3.5 4.4Zm-3-4.4c.4 1.3 1.6 4.1 3 4.1 1.3 0 2.6-2.4 3.2-4-.7 0-1.2-.2-1.5-.4-.4-.3-.6-2-.4-5l-.4-.4-2.2 2c0 .4-.3 2.6-.6 3.1 0 .3-.4.4-1.1.6Z" fill="#3F4553"/>
  <path d="M119 34.7a5 5 0 0 0-.8.2c-.4 0-1 .4-1.6.7l-.4.4-.3 2c.5-.2 2.1-.8 3-1.7l.1-1.6Z" fill="#C6FF00"/>
  <path d="M119 34.7a5 5 0 0 0-.8.2c-.4 0-1 .4-1.6.7l-.4.4-.3 2c.5-.2 2.1-.8 3-1.7l.1-1.6Z" fill="#BFB2AA"/>
  <path d="M116 75c8.6 0 15.7-6.9 15.7-15.5s-7-15.6-15.8-15.6c-8.7 0-15.7 7-15.7 15.6s7 15.6 15.7 15.6Z" fill="#FA6E5A"/>
  <path d="M121.1 72.5a15.6 15.6 0 0 1-9.7-28c-6.5 2-11.2 8-11.2 15a15.8 15.8 0 0 0 25.4 12.3c-1.5.4-3 .7-4.5.7Z" fill="#E3604D"/>
  <path d="M104.9 53.7a.6.6 0 0 1-.1-1.2l4.3-1-2.5-.7a.6.6 0 0 1-.4-.8c0-.3.4-.5.7-.4l4.7 1.5a.6.6 0 0 1 0 1.1l-6.6 1.5h-.1Zm21.7 0h-.1l-6.2-1.5a.6.6 0 0 1-.5-.6c0-.2.2-.5.4-.5l5-1.5c.3 0 .6.1.7.4 0 .3-.1.7-.4.8l-2.7.8 4 1c.3 0 .5.3.4.7 0 .2-.3.4-.6.4ZM104 56.3c1.5 6.7 6.3 11.6 12 11.6 5.6 0 10.4-4.9 12-11.6l-2.1-.4c-6.7-1-13.5-1-20.2 0l-1.8.4Z" fill="#3F4553"/>
  <path d="M124.1 63.3a16 16 0 0 0-16.3.1c2.2 2.5 5 4 8.1 4 3.2 0 6-1.6 8.2-4Z" fill="#4E5567"/>
  <path d="m113.9 29.5-1 2.6c-.5.9.2 3.8.7 4.7.6.8 1.6.7 2 .6a11 11 0 0 0 2.8-1.8l1-1s.3 0 .6-.6-1-2-2-3.8c-1.2-1.7-1.7-1.6-1.7-1.6l-2.4.9Z" fill="#FED9CE"/>
  <path d="M115 37.6c-.8 0-1.3-.4-1.5-.8-.6-.8-1.3-3.8-.8-4.8a25.2 25.2 0 0 0 1.1-2.7l2.5-.8c.1 0 .6 0 1.7 1.7l1 1.3c.8 1.2 1.4 2 1.1 2.6-.3.5-.6.6-.7.7l-1 .9a11 11 0 0 1-2.8 1.8l-.6.1Zm-1-8-1 2.5c-.5 1 .2 3.8.7 4.6.4.5 1 .7 1.9.6.3-.1 2-1.2 2.7-1.8l1-1s.3 0 .6-.5c.2-.4-.5-1.3-1.2-2.4l-.9-1.3c-1-1.4-1.4-1.6-1.4-1.6l-2.4.9Z" fill="#3F4553"/>
  <path d="M114.4 33.4c-.9-.3-.8-.6-.8-.6l1-1.4h.1s.1 0 0 .1l-.8 1.3.6.3v.2Zm2.8-1.3h-.1c-.2-.3-.3-.5-.5-.5h-.7v-.3s.4-.1.8 0c.2.1.5.3.6.6v.2h-.1Zm-2.9-.7h-.2s0-.2-.3-.3l-.4.2h-.2V31c.2-.2.4-.3.7-.2.3 0 .5.3.5.3v.2h-.1Zm3.3-.1-.1-.1c-.4-1.1-1-1-1-1h-.2V30s1-.2 1.5 1l-.1.3Zm-4-.6-.1-.2c.1-.3.3-.4.6-.5.4 0 .7.2.7.2s.1.1 0 .2h-.1s-.3-.2-.5-.1c-.2 0-.4.1-.5.4Zm.4 3.3s1 .4 2.2-.3c0 0-.7 1-1.4 1-.8.2-.9-.7-.9-.7Z" fill="#3F4553"/>
  <path d="M105 45.2s-3.3 2.9-3.9 4.7c-.5 1.8-.1 6-.2 7.4a5 5 0 0 0 1.2 3c.4.2.5-.3.4-.7v-3s.6 1.8.7 1.5l-.2-2-1-2.5c.1-.3 2.3-4.4 2.7-5.7" fill="#FED9CE"/>
  <path d="m102.3 60.5-.2-.1a4.4 4.4 0 0 1-1.3-3.2v-1.8c-.1-1.8-.2-4.2.2-5.5.5-1.9 3.9-4.7 4-4.8h.2v.2s-3.4 2.9-4 4.6c-.3 1.3-.3 3.7-.2 5.5v1.9c0 1.2.8 2.6 1.2 2.8l.2.1v-.6a48.8 48.8 0 0 1 0-3c.1-.1.2 0 .2 0l.5 1.2c0-.4 0-.9-.3-1.6 0-.4-.3-1-.5-1.3l-.4-1.4.6-1.2a38 38 0 0 0 2.2-4.5l.1.2c-.2.9-1.3 3-2 4.4l-.6 1.2.4 1.2.5 1.3c.3 1.1.3 1.7.2 2l-.2.2-.5-.9v2.2c.1.2.1.7-.1.8h-.2Z" fill="#3F4553"/>
  <path d="m102.3 60.4-.1-.1s-.5-1.2-.7-2.8l.1-.1.2.1c.2 1.5.6 2.7.6 2.7v.2Z" fill="#3F4553"/>
  <path d="M101.8 60a7 7 0 0 1-.8-2.3l.1-.2.2.1c.2 1.4.7 2.2.7 2.2l-.1.2Z" fill="#3F4553"/>
  <path d="M127.8 45.2s3.4 2.9 4 4.7c.5 1.8.1 6 .2 7.4a5 5 0 0 1-1.3 3c-.4.2-.5-.3-.4-.7v-3s-.5 1.8-.6 1.5l.2-2c.3-.9 1-2.3.9-2.5 0-.3-2.3-4.4-2.6-5.7" fill="#FED9CE"/>
  <path d="M130.5 60.5h-.1c-.3-.2-.3-.7-.2-1v-2c-.3.8-.4.8-.5.8l-.1-.2c0-.3-.1-.9.2-2 0-.4.3-.9.5-1.3l.4-1.2-.6-1.2c-.7-1.4-1.8-3.6-2-4.4v-.2h.2a37.8 37.8 0 0 0 2.6 5.7c0 .2 0 .6-.4 1.4l-.5 1.3c-.2.7-.2 1.2-.2 1.6l.5-1.2s0-.1.1 0h.1v3.6h.2c.3-.3 1.2-1.7 1.1-3v-1.8c.1-1.8.2-4.2-.2-5.5-.5-1.7-3.9-4.6-4-4.6v-.2h.3c.1.1 3.4 2.9 4 4.8.4 1.3.3 3.7.2 5.5v1.8a5 5 0 0 1-1.3 3.2h-.3Z" fill="#3F4553"/>
  <path d="m130.5 60.3-.1-.2s.4-1.7.4-2.8l.2-.1.1.1c0 1.1-.4 2.8-.4 2.9h-.2Zm.5-.1-.1-.2s.6-1.7.6-2.4c0 0 0-.2.2-.2l.1.2c0 .7-.6 2.4-.7 2.5v.1Z" fill="#3F4553"/>
  <path d="M67.9 103c12.4 0 22.4-2.3 22.4-5.2 0-2.9-10-5.2-22.4-5.2-12.4 0-22.5 2.3-22.5 5.2 0 2.9 10 5.2 22.5 5.2Z" fill="#F4A17C"/>
  <path d="M69.2 103c13 0 23.7-2.3 23.7-5.2 0-2.9-10.6-5.2-23.7-5.2-13.2 0-23.8 2.3-23.8 5.2 0 2.9 10.6 5.2 23.8 5.2Z" fill="#F4A17C"/>
  <path d="M58.4 94.1s-3.3 1.8-4 2.7c-.5.9.3 1.6 1.5 1.7 1.3 0 6.4-1.7 7-1.9.4-.2 0-1.5-.3-2.2-.3-.7-4.2-.3-4.2-.3Z" fill="#E49621"/>
  <path d="M56 98.6c-.9 0-1.6-.4-1.8-.8 0-.3-.2-.6.2-1.1.6-1 3.8-2.6 4-2.7.7 0 4-.4 4.3.3l.4 1.3c.1.6 0 1-.2 1.1a35 35 0 0 1-6.9 2Zm2.5-4.3a18 18 0 0 0-4 2.6v.7c.2.4.7.7 1.5.7a33 33 0 0 0 6.7-1.8c.2 0 .2-.4.2-.8s-.3-1-.4-1.3c-.2-.4-2.5-.3-4-.1Z" fill="#3F4553"/>
  <path d="M63 95.5a40 40 0 0 1-6.2 2.3c-1 .1-2-.3-2.5-.5-.1.6.6 1.1 1.6 1.2 1.3 0 6.4-1.7 7-1.9.2-.1.2-.6 0-1Z" fill="#F1BD54"/>
  <path d="M56 98.6c-.8 0-1.3-.3-1.6-.6a1 1 0 0 1-.3-.7l.1-.1h.1c.5.2 1.4.6 2.4.5a41 41 0 0 0 6.4-2.2c.1.7 0 1.1-.2 1.2-.5.3-5.4 2-6.9 2Zm-1.6-1.1c0 .1 0 .2.2.3.2.3.7.5 1.3.5a33 33 0 0 0 6.8-1.8c.2 0 .2-.4.2-.8-1.6.7-5 2-6.1 2.2-1 .2-1.8-.2-2.4-.4Z" fill="#3F4553"/>
  <path d="M74.6 94.1s3.3 1.8 4 2.7c.5.9-.3 1.6-1.5 1.7-1.3 0-6.4-1.7-7-1.9-.4-.2 0-1.5.3-2.2.3-.7 4.2-.3 4.2-.3Z" fill="#E49621"/>
  <path d="M77 98.6c-1.5 0-6.4-1.6-6.9-1.9-.2 0-.3-.5-.2-1 0-.5.2-1 .4-1.4.3-.7 3.6-.4 4.3-.3.2.1 3.4 1.8 4 2.7.3.5.3.8.2 1-.3.5-1 .9-1.7 1H77Zm-5-4.5c-.8 0-1.5.1-1.6.3l-.4 1.3.1.8c.5.2 5.4 1.8 6.7 1.8h.1c.8 0 1.3-.3 1.5-.7.1-.2.1-.5-.1-.7a18 18 0 0 0-3.9-2.6 20 20 0 0 0-2.4-.2Z" fill="#3F4553"/>
  <path d="M70 95.5c1.3.6 5 2.1 6.2 2.3 1 .1 2-.3 2.5-.5.1.6-.6 1.1-1.6 1.2-1.3 0-6.4-1.7-7-1.9-.2-.1-.2-.6 0-1Z" fill="#F1BD54"/>
  <path d="M77 98.6c-1.5 0-6.4-1.6-6.9-1.9-.3 0-.3-.5-.2-1.2l.2-.1c1.1.5 4.9 2.1 6.1 2.3 1 0 2-.3 2.5-.5h.2c0 .3 0 .6-.3.8a2 2 0 0 1-1.5.6H77Zm-7-2.9.1.8c.5.2 5.4 1.8 6.7 1.8h.1c.7 0 1.2-.2 1.4-.5l.2-.3c-.6.3-1.4.6-2.4.4-1.2-.1-4.5-1.5-6-2.2ZM60 60.2l-3.4 14.9c-.4 1.8-.7 3.9-.2 5.1.5 1.3 2 13.5 2 13.5L63 95V84l-.4-7 4.8-11.9.8 1 3.6 10.7-2.1 18 4.3-1.2s3.7-11.4 4.3-13.8c.6-2.3 1-4 .4-5-.4-1-3.5-13.2-3.5-13.2l-15.1-1.4Z" fill="#3F4553"/>
  <path d="m63 95.1-4.6-1.2v-.1c0-.2-1.7-12.3-2.1-13.5-.4-1-.4-2.8.2-5.3L60 60.2l.1-.1 15.1 1.3.1.1c0 .2 3.1 12.2 3.6 13.2.4 1.1.2 2.7-.5 5.2a373 373 0 0 1-4.3 13.7v.1l-4.4 1.1h-.1v-.1l2-17.9-3.5-10.6-.7-.8L62.7 77l.3 7c.2 3 .1 10.9.1 11l-.1.1Zm-4.4-1.5 4.3 1.2-.1-10.8-.4-7 4.9-12h.2l.8 1v.1L72 76.8l-2 17.7 4-1 4.3-13.7c.6-2.4.9-4 .4-5-.4-1-3.2-11.9-3.5-13.1l-15-1.3L56.9 75c-.6 2.4-.7 4.1-.3 5 .5 1.3 2 12.3 2 13.5Z" fill="#3F4553"/>
  <path d="M71.1 92s-.1 0 0-.2l1.6-13.7c0-.4 0-.5.3-.5.1 0 .4 0 1-.4l.2-.2h-.3l-1.1-.1a38.2 38.2 0 0 1-3.1-8.6l.2.1c1.1 3.8 2.6 8 3 8.2.3.2.7.1 1 .1.4 0 .6 0 .6.2 0 .1 0 .2-.4.5L73 78v.2A10590 10590 0 0 1 71 92Zm-8.4-2.8-.1-.2-.1-1h.3v1.2Zm-.2-2.5h-.2l-1-8.8c-.2 0-.6 0-1.1-.2-.1 0-.4-.1-.4-.3 0-.2.2-.3.7-.5l1.3-.5c.5-.4 1.7-3 3.2-7.2h.2l.1.1a28 28 0 0 1-3.4 7.3 8.3 8.3 0 0 1-1.7.8l1.2.3.2.1 1 8.8-.1.1ZM65.7 68c-.1 0-.2-.1-.1-.2l.3-.8s0-.1.1 0c.1 0 .2 0 .1.1 0 0 0 .3-.3.8l-.1.1Z" fill="#4E5567"/>
  <path d="m69.3 39-10.4-1.6-5.5-1-1.2 4a457.4 457.4 0 0 0 9.5 3.2s.2 9.8-.4 12l-2 6.4 7.5 4.2 1.5-2.4.1 2.2s2.4-.1 4.6-.8c2.1-.7 3.4-1.5 3.4-1.5l-1.7-7.4 2.3-9.5s11.7-2.3 11.8-3c0-.8-1.6-3.6-1.6-3.6l-15.9-1-2-.1Z" fill="#FFF9F1"/>
  <path d="M66.8 66.3 59.1 62s-.1-.1 0-.2l2-6.4c.6-2 .4-10.9.4-11.9l-2-.6-7.5-2.4v-.2l1.2-4.1s.1-.1.2 0l5.5 1 10.3 1.6 2 .2 15.9 1c.3.4 1.8 2.9 1.7 3.6 0 .2 0 .6-6 2L77 46.8l-2.3 9.4 1.7 7.4v.1s-1.4.9-3.5 1.5a21.5 21.5 0 0 1-4.7.8v-1.8l-1.4 2h-.1Zm-7.4-4.4 7.4 4 1.4-2.1s.1-.1.2 0l.2 2a16.9 16.9 0 0 0 7.7-2.2l-1.7-7.2v-.1l2.3-9.6a59.2 59.2 0 0 0 11.7-3c0-.5-1-2.5-1.5-3.3l-15.8-1-2-.2-10.4-1.7-5.4-1-1.2 3.9a461.1 461.1 0 0 0 9.6 3.2c0 .4.2 9.9-.5 12-.5 2-1.8 5.6-2 6.3Z" fill="#3F4553"/>
  <path d="m66.7 38.6-.3 4.7 3.8-1.5 4.2 3.1-.2-6.2-7.5-.1Z" fill="#fff"/>
  <path d="M74.4 45h-.1l-4-3-3.9 1.4h-.1v-.1l.2-4.7.2-.2 7.5.2.2.1V45Zm-4.2-3.4h.1l4 3L74 39l-7.3-.2-.3 4.4 3.7-1.5Zm-1.7 21.9-.2-.1 1.6-18h.2l-1.5 18-.1.1ZM77 47v-.1l-.1-.2 1.8-3.8s.1-.1.2 0c0 0 .1 0 0 .1l-1.4 3 3.3-3.5h.2v.2L77.1 47Zm-15.3-3.3-3-4c-.1 0-.1-.1 0-.2h.1l2.4 3.2-.8-2v-.2h.2l1.3 3-.1.2Z" fill="#3F4553"/>
  <path d="m68.5 39 1.5 6.5 2.7-6.2h-1.4l-2-.2-.8-.1Z" fill="#fff"/>
  <path d="m70 45.6-.1-.1-1.6-6.5v-.1h1l3.4.3h.2v.2L70 45.5ZM68.6 39l1.4 6 2.5-5.7-3.3-.2h-.6Z" fill="#3F4553"/>
  <path d="m68.5 39 1.5 6.5 2.7-6.2h-1.4l-2-.2-.8-.1Z" fill="#C6FF00"/>
  <path d="m68.5 39 1.5 6.5 2.7-6.2h-1.4l-2-.2-.8-.1Z" fill="#FED9CE"/>
  <path d="M91.7 42.2s.1 1.1-.5 1.6-3.2 1.3-3.9.9c-.7-.5-1.7-2.7-1.3-4.3.4-1.6 2.8-1 2.8-1s2.3.8 2.9 2.8Z" fill="#fff"/>
  <path d="m88 45-.8-.2c-.8-.5-1.8-2.9-1.4-4.4.2-.7.8-1.2 1.7-1.2h1.3c.1.1 2.4.9 3 3 0 0 .1 1.2-.5 1.7-.5.4-2.3 1-3.4 1Zm-.2-5.6c-.7 0-1.5.2-1.7 1-.4 1.6.6 3.8 1.3 4.2.6.3 3.1-.4 3.7-1 .5-.3.4-1.2.4-1.3-.5-2-2.8-2.8-2.8-2.8h-.9Z" fill="#575C69"/>
  <path d="M89.5 43.4c-1.1 0-2.1-.7-2.4-1.8A54 54 0 0 0 84 32c-.9-.5-1.5-.7-1.5-1.2v-2.6s.4-.5.7 0l.2 1s.4-1.2.3-1.6V26c0-.2.3-.5.8 0 .5.6 1.5 1.7 1.3 2.2l-.6 3.2s6.4 9.2 6.3 10c-.1.6-.6 2-2 2Z" fill="#FED9CE"/>
  <path d="M89.4 43.5c-1.1 0-2.1-.8-2.4-1.9a43.8 43.8 0 0 0-3-9.5l-.8-.4c-.5-.3-.8-.5-.8-1v-2.5s.3-.4.6-.4l.3.3.1.4.2-.9-.1-1.6c0-.2 0-.3.2-.4.2 0 .5 0 .9.4.6.6 1.5 1.7 1.3 2.3-.2.5-.5 2.7-.5 3 1.1 1.7 6.3 9.4 6.2 10.2-.1.6-.7 2-2 2h-.2Zm-6.7-15.2v2.5c0 .3.2.4.7.7l.7.4c.6.4 2 5.5 3.1 9.6.3 1 1.3 1.8 2.3 1.8 1.2-.1 1.7-1.3 1.8-1.9a77.1 77.1 0 0 0-6.2-10c0-.1.3-2.7.5-3.2.2-.3-.3-1.1-1.2-2-.3-.3-.5-.4-.6-.3v1.7c.1.4-.3 1.4-.3 1.6h-.2v-.1l-.2-.9-.2-.1-.2.2Z" fill="#3F4553"/>
  <path d="m84.7 29.2-.1-.2.3-1-.3-.9c0-.2.1-.3.2-.3h.5v.2s-.1.1-.2 0H85v.1c0 .4.3.9.3.9l-.3 1.1-.2.1Z" fill="#263238"/>
  <path d="M84.3 29H84l.3-1c-.1-.2-.3-.6-.2-1.1 0-.2.2-.4.3-.4.2-.1.4 0 .4 0 .1 0 .1.1 0 .2h-.1l-.1.3c-.1.4.1 1 .1 1l-.2 1h-.1Z" fill="#263238"/>
  <path d="m83.9 29-.2-.1.3-1.2-.3-1.2.2-.4c.2-.2.5-.2.6-.2a.1.1 0 1 1 0 .3H84v.3a7.5 7.5 0 0 0 .1 1.2l-.2 1.2-.1.2Z" fill="#263238"/>
  <path d="M72.5 40.5a16.9 16.9 0 1 0 0-33.7 16.9 16.9 0 1 0 0 33.7Z" fill="#FA6E5A"/>
  <path opacity=".3" d="M60.8 23C61 14.8 67.3 8.3 75 7l-2-.1a17 17 0 0 0-17.6 16A16.9 16.9 0 0 0 75 40.3 16.9 16.9 0 0 1 60.8 23Z" fill="#AC3E2F"/>
  <path d="M62.2 25.2s12.5-1.6 22.8 1c0 0-1 10.2-11.8 10-9.3-.3-11-11-11-11Zm11.5-5.4a.8.8 0 0 1-.8-.7c-.2-2-2-3.5-4.2-3.5-2 0-3.7 1.2-4.2 3-.1.4-.6.7-1 .5a.8.8 0 0 1-.6-1 6 6 0 0 1 5.8-4.1c3 0 5.5 2.1 5.9 5 0 .4-.3.8-.7.8h-.2Zm12 2a.8.8 0 0 1-.8-.8c0-1.8-1.6-3.3-3.5-3.5-1.7-.1-3.3.8-3.9 2.3-.2.4-.7.6-1 .4a.8.8 0 0 1-.5-1 5.4 5.4 0 0 1 5.6-3.3c2.7.3 4.8 2.4 5 5 0 .5-.4.9-.9.9Z" fill="#3F4553"/>
  <path d="M63.8 25.5c.1.4.9 2.6 5.3 2.8 4.8.2 9.6.6 12.2.5 1.5 0 2.2-1.3 2.5-2.4a70.3 70.3 0 0 0-20-1Z" fill="#fff"/>
  <path d="M76.4 35.3c0-2.4-2.6-4.4-5.9-4.6-1.8 0-3.5.5-4.6 1.4a10 10 0 0 0 7.5 3.5c1.1 0 2.1-.1 3-.3ZM58 94.2l5.4 1.7v-2.2l-5.7-1.2.3 1.7Z" fill="#4E5567"/>
  <path d="m63.4 96-5.5-1.7-.3-1.8.2-.1 5.6 1.1.2.2v2.2a.1.1 0 0 1-.2.1ZM58 94.1l5.1 1.6v-2l-5.3-1L58 94Z" fill="#3F4553"/>
  <path d="m69 94.5.8 2 5.3-2.2-.4-1.8-5.6 2Z" fill="#4E5567"/>
  <path d="M69.8 96.6h-.1l-.7-2v-.2l5.6-2h.2l.4 2-5.4 2.2Zm-.5-2 .5 1.7 5.1-2-.3-1.6-5.3 2Z" fill="#3F4553"/>
  <path d="M49.2 37.9s-.4 1 .1 1.6c.5.6 2.8 2 3.6 1.7.8-.3 2.3-2.3 2.2-4 0-1.6-2.5-1.5-2.5-1.5s-2.4.2-3.4 2.2Z" fill="#fff"/>
  <path d="M52.7 41.3a7 7 0 0 1-3.5-1.7c-.5-.7-.2-1.7-.1-1.8 1-2 3.4-2.2 3.5-2.2 1 0 2.6.3 2.7 1.7 0 1.6-1.5 3.7-2.3 4h-.3ZM49.3 38c0 .1-.3 1 .1 1.5.5.6 2.8 1.9 3.5 1.6.7-.2 2.1-2.1 2.1-3.7 0-1.5-2.3-1.5-2.4-1.5 0 0-2.3.3-3.3 2.1Z" fill="#3F4553"/>
  <path d="M50.5 39.3c1 .3 2.2-.3 2.7-1.3 1.3-2.5 4.4-8.4 5.1-8.7 1-.3 1.6-.3 1.7-.8l.5-2.6s-.2-.6-.6-.1l-.4.8v-1.5l.5-1.5c0-.3-.3-.6-.9-.2-.6.4-1.8 1.3-1.7 1.9l-.2 3.2S49 36.2 49 37c0 .6.2 2 1.5 2.3Z" fill="#FED9CE"/>
  <path d="M51 39.5h-.5a2.4 2.4 0 0 1-1.6-2.5c0-.9 6.7-7.2 8.2-8.6l.2-3.1c-.1-.6 1-1.5 1.8-2 .4-.3.7-.2.8-.1.2 0 .2.2.2.4l-.5 1.5v.9l.2-.3c.1-.2.3-.2.4-.2.3 0 .4.4.5.4l-.5 2.6c-.1.4-.5.5-1 .7-.3 0-.6.2-.8.3-.5.1-2.4 3.5-5 8.6-.5.9-1.4 1.4-2.3 1.4Zm-.5-.3c1 .2 2.1-.3 2.6-1.2 2-3.9 4.5-8.5 5.2-8.8l.7-.2c.6-.2.8-.3.9-.6l.5-2.4-.2-.3-.2.2c-.3.4-.3.7-.3.8h-.2c-.1-.2-.2-1.3-.1-1.7a20 20 0 0 0 .4-1.6l-.6.1c-1 .7-1.7 1.4-1.7 1.8.1.5-.1 3-.1 3.2-3.2 3-8.2 8-8.3 8.5 0 .6.2 1.8 1.4 2.2Z" fill="#3F4553"/>
  <path d="m58.5 26.6-.1-.1v-1.2l.6-2h.2v.2a9 9 0 0 0-.6 1.8v1.2h-.1Zm-.5-.2h-.2v-1l.3-1.4s.1-.1.2 0l.1.1-.3 1.3v1Z" fill="#263238"/>
</svg>
