<?xml version="1.0" encoding="utf-8"?>
<!-- Generator: Adobe Illustrator 16.0.0, SVG Export Plug-In . SVG Version: 6.00 Build 0)  -->
<!DOCTYPE svg PUBLIC "-//W3C//DTD SVG 1.1//EN" "http://www.w3.org/Graphics/SVG/1.1/DTD/svg11.dtd">
<svg version="1.1" id="Layer_1" xmlns="http://www.w3.org/2000/svg" xmlns:xlink="http://www.w3.org/1999/xlink" x="0px" y="0px"
	 width="176px" height="159px" viewBox="0 0 176 159" enable-background="new 0 0 176 159" xml:space="preserve">
<defs>
	<filter id="Adobe_OpacityMaskFilter" filterUnits="userSpaceOnUse" x="-23.727" y="-37.368" width="190.727" height="141.368">
		<feColorMatrix  type="matrix" values="1 0 0 0 0  0 1 0 0 0  0 0 1 0 0  0 0 0 1 0"/>
	</filter>
</defs>
<mask maskUnits="userSpaceOnUse" x="-23.727" y="-37.368" width="190.727" height="141.368" id="mask0_362_221">
	<rect fill="#FA6E5A" filter="url(#Adobe_OpacityMaskFilter)" width="176" height="114"/>
</mask>
<g mask="url(#mask0_362_221)">
	<path fill="#808AFF" d="M12.773,35.447c-25.5,4.38-32-10.584-36.5-19.162v-53.653h88v98h-15.5
		C40.44,50.047,38.273,31.067,12.773,35.447z"/>
	<path fill="#808AFF" d="M115.773,35.447c25.5,4.38,32-10.584,36.5-19.162v-53.653h-88v98h15.5
		C88.106,50.047,90.273,31.067,115.773,35.447z"/>
	<g>
		<defs>
			<rect id="SVGID_1_" x="150" y="44" width="14" height="17"/>
		</defs>
		<clipPath id="SVGID_2_">
			<use xlink:href="#SVGID_1_"  overflow="visible"/>
		</clipPath>
		<g clip-path="url(#SVGID_2_)">
			<path fill="#9BA3FF" d="M153.387,44H150v17h3.387V44z"/>
			<path fill="#9BA3FF" d="M158.693,49.714h-3.387V61h3.387V49.714z"/>
			<path fill="#9BA3FF" d="M164.007,55.1h-3.386V61h3.386V55.1z"/>
		</g>
	</g>
	<g>
		<defs>
			<rect id="SVGID_3_" x="135" y="78" width="32" height="26"/>
		</defs>
		<clipPath id="SVGID_4_">
			<use xlink:href="#SVGID_3_"  overflow="visible"/>
		</clipPath>
		<g clip-path="url(#SVGID_4_)">
			<path fill="#3F4553" d="M154.99,103.955l11.145-3.734l-5.587-16.4l-11.146,3.735c-0.437,0.146-0.674,0.615-0.522,1.048
				l5.054,14.83C154.08,103.866,154.553,104.102,154.99,103.955z"/>
			<path fill="#DDDDE3" d="M154.998,103.631l11.423-3.828l-5.383-15.797l-11.423,3.829c-0.282,0.093-0.434,0.396-0.34,0.68
				l5.037,14.781C154.41,103.575,154.716,103.725,154.998,103.631z"/>
			<path fill="#E2E5FF" d="M155.238,103.551l11.424-3.829l-5.383-15.796l-11.424,3.828c-0.281,0.094-0.433,0.396-0.338,0.68
				l5.035,14.781C154.65,103.494,154.957,103.648,155.238,103.551z"/>
			<path fill="#4E5567" d="M155.855,103.664L167,99.928l-5.587-16.396l-11.146,3.735c-0.437,0.146-0.674,0.615-0.522,1.049
				l5.053,14.83C154.945,103.579,155.418,103.809,155.855,103.664z"/>
			<path fill="#3F4553" d="M160.789,83.742l-0.24,0.08l5.588,16.4l0.239-0.08L160.789,83.742z"/>
			<path fill="#93BFA8" d="M162.381,96.553l0.249-0.526l0.522,0.267l-4.082-11.976c-0.073-0.21-0.256-0.194-0.469-0.121
				s-0.371,0.17-0.297,0.38L162.381,96.553z"/>
			<path fill="#3F4553" d="M137.338,88.09l7.502-8.82l-1.517-1.268l-7.501,8.82L137.338,88.09z"/>
			<path fill="#F2EDE4" d="M135.82,86.819l1.515,1.267l-2.188,1.193c-0.072,0.041-0.17-0.044-0.146-0.121L135.82,86.819z"/>
			<path fill="#3F4553" d="M135.15,89.283l0.593-0.323l-0.515-0.433l-0.22,0.631C134.98,89.235,135.078,89.32,135.15,89.283z"/>
			<path fill="#4E5567" d="M136.836,87.67l7.501-8.82l-0.515-0.431l-7.502,8.82L136.836,87.67z"/>
		</g>
	</g>
	<g>
		<defs>
			<rect id="SVGID_5_" x="37" y="3" width="35" height="35"/>
		</defs>
		<clipPath id="SVGID_6_">
			<use xlink:href="#SVGID_5_"  overflow="visible"/>
		</clipPath>
		<g clip-path="url(#SVGID_6_)">
			<path fill="#808AFF" d="M54.503,3C44.833,3,37,10.833,37,20.503c0,9.664,7.833,17.502,17.503,17.502
				c9.664,0,17.502-7.833,17.502-17.502C72,10.833,64.167,3,54.503,3z M54.503,35.045c-8.032,0-14.542-6.511-14.542-14.542
				c0-8.032,6.51-14.542,14.542-14.542c8.032,0,14.542,6.51,14.542,14.542C69.045,28.535,62.535,35.045,54.503,35.045z"/>
			<path fill="#AEB4FC" d="M67.921,26.11c3.099-7.41-0.396-15.929-7.807-19.027c-7.41-3.099-15.929,0.396-19.027,7.806
				c-3.099,7.41,0.396,15.929,7.806,19.027S64.822,33.52,67.921,26.11z"/>
			<path fill="#808AFF" d="M54.531,7.262c-1.02,0-1.025,1.587,0,1.587S55.557,7.262,54.531,7.262z"/>
			<path fill="#808AFF" d="M67.738,20.53c0-1.02-1.588-1.025-1.588,0C66.15,21.555,67.738,21.555,67.738,20.53z"/>
			<path fill="#808AFF" d="M54.469,33.738c1.02,0,1.025-1.587,0-1.587C53.449,32.151,53.443,33.738,54.469,33.738z"/>
			<path fill="#808AFF" d="M41.262,20.47c0,1.02,1.588,1.025,1.588,0C42.85,19.45,41.262,19.444,41.262,20.47z"/>
			<path fill="#808AFF" d="M60.754,24.753c-0.094,0-0.188-0.022-0.27-0.077l-6.257-3.721c-0.16-0.093-0.259-0.27-0.259-0.458v-10
				c0-0.292,0.237-0.529,0.529-0.529c0.292,0,0.529,0.237,0.529,0.529V20.2l5.998,3.566c0.254,0.149,0.336,0.474,0.182,0.728
				C61.113,24.659,60.937,24.753,60.754,24.753z"/>
		</g>
	</g>
	<path fill="#9BA3FF" d="M19.621,56.407l-0.349-1.981l-2.025,0.345c-0.321-0.925-0.845-1.739-1.522-2.402l1.187-1.664l-1.662-1.153
		l-1.18,1.657c-0.852-0.414-1.802-0.642-2.793-0.635l-0.356-2.008L8.915,48.91l0.349,2.002c-0.936,0.317-1.76,0.835-2.43,1.505
		l-1.683-1.173l-1.166,1.643l1.676,1.167c-0.419,0.842-0.649,1.781-0.643,2.761L3,57.159l0.349,1.981l2.025-0.345
		c0.321,0.925,0.845,1.739,1.522,2.402L5.709,62.86l1.662,1.153l1.18-1.657c0.852,0.414,1.802,0.642,2.793,0.635L11.701,65
		l2.004-0.345l-0.349-2.002c0.936-0.317,1.76-0.835,2.43-1.505l1.683,1.174l1.167-1.643l-1.676-1.167
		c0.419-0.842,0.649-1.781,0.643-2.761L19.621,56.407z M11.632,58.622c-1.027,0.18-2.004-0.504-2.186-1.519s0.51-1.981,1.536-2.16
		c1.027-0.18,2.004,0.504,2.186,1.519S12.665,58.443,11.632,58.622z"/>
	<path fill="#AEB4FC" d="M38.728,52.41v-2.492h-2.549c-0.188-1.201-0.656-2.305-1.341-3.258l1.809-1.788l-1.781-1.76l-1.802,1.781
		c-0.957-0.683-2.067-1.16-3.282-1.36V41h-2.521v2.52c-1.215,0.187-2.339,0.649-3.296,1.325l-1.809-1.788l-1.781,1.76l1.802,1.781
		c-0.691,0.946-1.173,2.043-1.375,3.245h-2.563v2.492h2.549c0.188,1.201,0.657,2.306,1.341,3.258l-1.809,1.788l1.781,1.76
		l1.802-1.781c0.957,0.684,2.067,1.16,3.282,1.36v2.533h2.521v-2.52c1.215-0.186,2.333-0.649,3.296-1.325l1.809,1.788l1.781-1.76
		l-1.802-1.781c0.691-0.945,1.173-2.043,1.376-3.244H38.728L38.728,52.41z M28.483,53.445c-1.292,0-2.346-1.036-2.346-2.319
		c0-1.277,1.047-2.319,2.346-2.319c1.292,0,2.347,1.036,2.347,2.319C30.822,52.403,29.775,53.445,28.483,53.445z"/>
	<g opacity="0.3">
		<path fill="#ECECEC" d="M156.995,33.897l-18.729-4.209c-0.184-0.04-0.3-0.223-0.257-0.407l2.358-10.5
			c0.04-0.183,0.224-0.3,0.406-0.257l18.729,4.213c0.185,0.04,0.3,0.224,0.257,0.407l-2.361,10.5
			C157.357,33.824,157.178,33.94,156.995,33.897z"/>
		<path fill="#F5F4F5" d="M138.318,29.441c-0.049-0.01-0.08-0.06-0.065-0.107l2.36-10.5c0.011-0.05,0.061-0.08,0.107-0.067
			l18.729,4.213c0.05,0.01,0.079,0.06,0.067,0.107l-2.363,10.5c-0.01,0.05-0.059,0.08-0.106,0.067L138.318,29.441z"/>
		<path fill="#706F6E" d="M156.867,22.141l-13.453-3.025l-0.055,0.244l13.453,3.025L156.867,22.141z"/>
		<path fill="#585857" d="M142.105,20.625l-0.621-0.14c-0.076-0.017-0.127-0.093-0.109-0.173l0.096-0.437
			c0.018-0.077,0.094-0.126,0.174-0.11l0.621,0.14c0.076,0.017,0.127,0.094,0.109,0.174l-0.096,0.437
			C142.259,20.592,142.182,20.642,142.105,20.625z"/>
		<path fill="#5E5E5D" d="M141.512,20.361c-0.011-0.003-0.018-0.013-0.014-0.023l0.096-0.437c0.004-0.01,0.014-0.017,0.024-0.014
			l0.62,0.14c0.01,0.003,0.017,0.014,0.014,0.023l-0.098,0.437c-0.002,0.01-0.012,0.017-0.022,0.013L141.512,20.361z"/>
		<path fill="#585857" d="M143.242,20.878l-0.62-0.14c-0.077-0.017-0.127-0.093-0.11-0.173l0.098-0.437
			c0.016-0.077,0.093-0.126,0.173-0.11l0.62,0.14c0.076,0.017,0.127,0.093,0.109,0.173l-0.096,0.437
			C143.396,20.849,143.318,20.896,143.242,20.878z"/>
		<path fill="#5E5E5D" d="M142.648,20.618c-0.01-0.003-0.017-0.013-0.014-0.023l0.098-0.437c0.002-0.01,0.013-0.017,0.022-0.013
			l0.621,0.14c0.011,0.003,0.017,0.013,0.013,0.023l-0.097,0.437c-0.003,0.01-0.013,0.017-0.022,0.013L142.648,20.618z"/>
		<path fill="#585857" d="M144.38,21.135l-0.621-0.14c-0.075-0.017-0.126-0.093-0.11-0.173l0.098-0.437
			c0.018-0.077,0.093-0.126,0.174-0.11l0.62,0.14c0.077,0.017,0.127,0.093,0.11,0.173l-0.098,0.437
			C144.533,21.102,144.457,21.152,144.38,21.135z"/>
		<path fill="#5E5E5D" d="M143.786,20.872c-0.011-0.003-0.017-0.014-0.013-0.023l0.097-0.437c0.003-0.01,0.013-0.017,0.022-0.013
			l0.621,0.14c0.01,0.003,0.016,0.014,0.014,0.023l-0.098,0.437c-0.003,0.01-0.013,0.017-0.022,0.013L143.786,20.872z"/>
		<path fill="#585857" d="M145.518,21.389l-0.621-0.14c-0.076-0.017-0.127-0.093-0.109-0.173l0.097-0.437
			c0.017-0.077,0.093-0.127,0.173-0.11l0.62,0.14c0.077,0.017,0.128,0.094,0.11,0.174l-0.096,0.437
			C145.671,21.359,145.594,21.409,145.518,21.389z"/>
		<path fill="#5E5E5D" d="M144.924,21.128c-0.01-0.003-0.017-0.013-0.014-0.023l0.097-0.437c0.003-0.01,0.013-0.017,0.022-0.014
			l0.621,0.14c0.011,0.003,0.017,0.014,0.014,0.023l-0.098,0.437c-0.002,0.01-0.012,0.017-0.022,0.013L144.924,21.128z"/>
		<path fill="#585857" d="M146.65,21.646l-0.619-0.14c-0.077-0.017-0.127-0.093-0.11-0.173l0.097-0.437
			c0.017-0.077,0.094-0.126,0.174-0.11l0.619,0.14c0.078,0.017,0.127,0.093,0.11,0.173l-0.096,0.437
			C146.809,21.616,146.73,21.662,146.65,21.646z"/>
		<path fill="#5E5E5D" d="M146.061,21.386c-0.01-0.003-0.017-0.014-0.013-0.023l0.097-0.437c0.004-0.01,0.014-0.017,0.023-0.013
			l0.62,0.14c0.01,0.003,0.017,0.014,0.014,0.023l-0.097,0.437c-0.003,0.01-0.014,0.017-0.023,0.013L146.061,21.386z"/>
		<path fill="#585857" d="M147.789,21.902l-0.621-0.14c-0.076-0.017-0.126-0.093-0.109-0.173l0.096-0.437
			c0.018-0.077,0.094-0.127,0.175-0.11l0.62,0.14c0.076,0.017,0.127,0.094,0.109,0.174l-0.097,0.437
			C147.945,21.869,147.869,21.919,147.789,21.902z"/>
		<path fill="#5E5E5D" d="M147.198,21.639c-0.011-0.003-0.017-0.013-0.013-0.023l0.097-0.437c0.003-0.01,0.013-0.017,0.022-0.014
			l0.62,0.14c0.011,0.003,0.017,0.014,0.015,0.023l-0.098,0.437c-0.003,0.01-0.013,0.017-0.023,0.013L147.198,21.639z"/>
		<path fill="#585857" d="M148.926,22.156l-0.619-0.141c-0.078-0.017-0.127-0.093-0.111-0.173l0.098-0.437
			c0.016-0.077,0.094-0.126,0.173-0.11l0.62,0.14c0.077,0.017,0.127,0.093,0.109,0.173l-0.096,0.437
			C149.083,22.126,149.003,22.176,148.926,22.156z"/>
		<path fill="#5E5E5D" d="M148.336,21.896c-0.01-0.003-0.018-0.014-0.014-0.023l0.097-0.437c0.003-0.01,0.015-0.017,0.024-0.013
			l0.619,0.14c0.011,0.003,0.018,0.013,0.014,0.023l-0.096,0.437c-0.004,0.01-0.015,0.017-0.024,0.014L148.336,21.896z"/>
		<path fill="#585857" d="M150.064,22.413l-0.621-0.14c-0.076-0.017-0.127-0.094-0.11-0.173l0.097-0.437
			c0.018-0.077,0.094-0.127,0.174-0.11l0.621,0.14c0.076,0.017,0.127,0.093,0.109,0.173l-0.098,0.437
			C150.217,22.383,150.141,22.43,150.064,22.413z"/>
		<path fill="#5E5E5D" d="M149.473,22.152c-0.01-0.003-0.016-0.013-0.013-0.023l0.097-0.437c0.004-0.01,0.014-0.017,0.023-0.014
			l0.62,0.14c0.01,0.003,0.017,0.013,0.014,0.023l-0.097,0.437c-0.004,0.01-0.014,0.017-0.023,0.013L149.473,22.152z"/>
		<path fill="#585857" d="M151.201,22.669l-0.62-0.14c-0.077-0.017-0.127-0.093-0.11-0.173l0.098-0.437
			c0.016-0.077,0.093-0.126,0.173-0.11l0.62,0.14c0.076,0.017,0.127,0.093,0.111,0.173l-0.098,0.437
			C151.355,22.636,151.277,22.687,151.201,22.669z"/>
		<path fill="#5E5E5D" d="M150.607,22.406c-0.01-0.003-0.017-0.014-0.014-0.023l0.098-0.437c0.002-0.01,0.013-0.017,0.022-0.013
			l0.62,0.14c0.01,0.003,0.018,0.013,0.014,0.023l-0.097,0.437c-0.003,0.01-0.013,0.017-0.022,0.014L150.607,22.406z"/>
		<path fill="#585857" d="M152.338,22.923l-0.62-0.14c-0.077-0.017-0.127-0.094-0.11-0.173l0.098-0.437
			c0.016-0.077,0.093-0.127,0.173-0.11l0.621,0.14c0.076,0.017,0.126,0.093,0.11,0.173l-0.098,0.437
			C152.492,22.893,152.415,22.943,152.338,22.923z"/>
		<path fill="#5E5E5D" d="M151.745,22.663c-0.011-0.003-0.017-0.013-0.015-0.023l0.098-0.437c0.003-0.01,0.014-0.017,0.023-0.013
			l0.621,0.14c0.01,0.003,0.016,0.013,0.012,0.023l-0.096,0.437c-0.004,0.01-0.014,0.017-0.023,0.013L151.745,22.663z"/>
		<path fill="#585857" d="M153.477,23.18l-0.621-0.14c-0.076-0.017-0.127-0.094-0.11-0.174l0.097-0.437
			c0.018-0.077,0.094-0.126,0.174-0.11l0.621,0.14c0.076,0.017,0.127,0.093,0.109,0.173l-0.098,0.437
			C153.629,23.15,153.553,23.197,153.477,23.18z"/>
		<path fill="#5E5E5D" d="M152.882,22.92c-0.01-0.003-0.017-0.014-0.014-0.023l0.097-0.437c0.004-0.01,0.014-0.017,0.023-0.013
			l0.621,0.14c0.01,0.003,0.017,0.013,0.013,0.023l-0.097,0.438c-0.004,0.01-0.014,0.017-0.023,0.013L152.882,22.92z"/>
		<path fill="#585857" d="M154.613,23.437l-0.62-0.14c-0.077-0.017-0.127-0.094-0.11-0.173l0.096-0.437
			c0.018-0.077,0.095-0.127,0.174-0.11l0.621,0.14c0.076,0.017,0.127,0.093,0.109,0.173l-0.096,0.437
			C154.766,23.403,154.689,23.454,154.613,23.437z"/>
		<path fill="#5E5E5D" d="M154.02,23.173c-0.011-0.003-0.017-0.014-0.014-0.023l0.098-0.437c0.002-0.01,0.013-0.017,0.022-0.013
			l0.621,0.14c0.01,0.003,0.017,0.013,0.013,0.023l-0.097,0.437c-0.003,0.01-0.013,0.017-0.022,0.014L154.02,23.173z"/>
		<path fill="#585857" d="M155.751,23.69l-0.621-0.14c-0.077-0.017-0.127-0.093-0.11-0.173l0.098-0.437
			c0.016-0.077,0.093-0.127,0.173-0.11l0.621,0.14c0.075,0.017,0.126,0.093,0.11,0.173l-0.098,0.437
			C155.904,23.66,155.827,23.71,155.751,23.69z"/>
		<path fill="#5E5E5D" d="M155.157,23.43c-0.011-0.003-0.017-0.013-0.013-0.023l0.096-0.437c0.004-0.01,0.014-0.017,0.023-0.013
			l0.62,0.14c0.011,0.003,0.017,0.013,0.013,0.023l-0.096,0.437c-0.004,0.01-0.014,0.017-0.023,0.014L155.157,23.43z"/>
		<path fill="#585857" d="M156.889,23.947l-0.621-0.141c-0.076-0.017-0.127-0.093-0.109-0.173l0.096-0.437
			c0.018-0.077,0.094-0.126,0.174-0.11l0.62,0.14c0.077,0.017,0.127,0.093,0.11,0.173l-0.096,0.437
			C157.042,23.917,156.965,23.964,156.889,23.947z"/>
		<path fill="#5E5E5D" d="M156.294,23.687c-0.01-0.003-0.017-0.013-0.013-0.023l0.097-0.437c0.003-0.01,0.013-0.017,0.022-0.013
			l0.621,0.14c0.011,0.003,0.017,0.013,0.014,0.023l-0.098,0.437c-0.002,0.01-0.013,0.017-0.022,0.013L156.294,23.687z"/>
		<path fill="#585857" d="M158.021,24.204l-0.619-0.14c-0.077-0.017-0.127-0.094-0.11-0.173l0.097-0.438
			c0.016-0.076,0.094-0.126,0.174-0.11l0.619,0.14c0.077,0.017,0.127,0.093,0.11,0.173l-0.097,0.437
			C158.18,24.17,158.102,24.221,158.021,24.204z"/>
		<path fill="#5E5E5D" d="M157.432,23.94c-0.01-0.003-0.017-0.013-0.013-0.023l0.097-0.437c0.004-0.01,0.014-0.017,0.023-0.014
			l0.62,0.14c0.01,0.003,0.017,0.013,0.013,0.023l-0.096,0.437c-0.004,0.01-0.014,0.017-0.024,0.013L157.432,23.94z"/>
		<path fill="#585857" d="M141.471,20.635l0.768,0.173c0.087,0.02,0.144,0.106,0.123,0.197l-0.17,0.754
			c-0.02,0.086-0.106,0.143-0.196,0.124l-0.767-0.174c-0.088-0.02-0.145-0.106-0.125-0.197l0.17-0.754
			C141.294,20.672,141.381,20.615,141.471,20.635z"/>
		<path fill="#5E5E5D" d="M141.258,21.585c-0.02-0.003-0.033-0.027-0.029-0.046l0.17-0.754c0.002-0.021,0.026-0.034,0.047-0.03
			l0.767,0.173c0.021,0.003,0.033,0.027,0.03,0.047l-0.17,0.754c-0.004,0.02-0.027,0.033-0.047,0.03L141.258,21.585z"/>
		<path fill="#585857" d="M142.782,20.932l0.767,0.173c0.088,0.02,0.143,0.107,0.123,0.197l-0.17,0.754
			c-0.02,0.087-0.105,0.144-0.195,0.124l-0.769-0.173c-0.086-0.02-0.144-0.107-0.123-0.197l0.17-0.754
			C142.605,20.965,142.691,20.912,142.782,20.932z"/>
		<path fill="#5E5E5D" d="M142.568,21.882c-0.02-0.003-0.033-0.027-0.029-0.047l0.17-0.753c0.003-0.02,0.025-0.034,0.046-0.03
			l0.769,0.173c0.02,0.003,0.033,0.027,0.029,0.047l-0.171,0.754c-0.003,0.02-0.026,0.033-0.046,0.03L142.568,21.882z"/>
		<path fill="#585857" d="M144.093,21.226l0.769,0.173c0.086,0.02,0.143,0.107,0.123,0.197l-0.17,0.754
			c-0.021,0.087-0.107,0.144-0.197,0.124L143.85,22.3c-0.086-0.021-0.144-0.107-0.123-0.197l0.17-0.754
			C143.917,21.262,144.007,21.206,144.093,21.226z"/>
		<path fill="#5E5E5D" d="M143.88,22.176c-0.021-0.003-0.034-0.026-0.03-0.047l0.17-0.753c0.004-0.02,0.026-0.034,0.047-0.03
			l0.768,0.173c0.02,0.003,0.033,0.027,0.029,0.047l-0.17,0.754c-0.004,0.02-0.026,0.033-0.047,0.03L143.88,22.176z"/>
		<path fill="#585857" d="M145.404,21.519l0.767,0.173c0.087,0.02,0.144,0.107,0.124,0.197l-0.171,0.754
			c-0.021,0.087-0.106,0.144-0.196,0.124l-0.768-0.173c-0.086-0.02-0.143-0.107-0.123-0.197l0.17-0.754
			C145.227,21.556,145.316,21.499,145.404,21.519z"/>
		<path fill="#5E5E5D" d="M145.191,22.473c-0.021-0.003-0.034-0.027-0.03-0.047l0.17-0.753c0.003-0.02,0.026-0.034,0.046-0.03
			l0.768,0.173c0.021,0.003,0.033,0.027,0.03,0.047l-0.17,0.754c-0.004,0.02-0.026,0.033-0.047,0.03L145.191,22.473z"/>
		<path fill="#585857" d="M146.715,21.816l0.768,0.173c0.086,0.02,0.143,0.107,0.123,0.197l-0.17,0.754
			c-0.021,0.086-0.107,0.144-0.197,0.124l-0.768-0.174c-0.087-0.02-0.143-0.106-0.123-0.196l0.17-0.754
			C146.541,21.849,146.628,21.796,146.715,21.816z"/>
		<path fill="#5E5E5D" d="M146.501,22.766c-0.021-0.003-0.033-0.026-0.03-0.046l0.17-0.754c0.004-0.02,0.027-0.033,0.047-0.03
			l0.768,0.174c0.02,0.003,0.033,0.026,0.029,0.046l-0.17,0.754c-0.002,0.02-0.026,0.034-0.047,0.03L146.501,22.766z"/>
		<path fill="#585857" d="M148.025,22.109l0.768,0.173c0.086,0.02,0.143,0.107,0.123,0.197l-0.17,0.754
			c-0.02,0.087-0.107,0.144-0.197,0.124l-0.767-0.173c-0.087-0.02-0.144-0.107-0.123-0.197l0.17-0.754
			C147.852,22.146,147.939,22.089,148.025,22.109z"/>
		<path fill="#5E5E5D" d="M147.813,23.06c-0.021-0.003-0.033-0.027-0.03-0.047l0.17-0.753c0.003-0.021,0.026-0.034,0.047-0.03
			l0.767,0.173c0.021,0.003,0.033,0.027,0.03,0.047l-0.17,0.753c-0.004,0.021-0.026,0.034-0.047,0.03L147.813,23.06z"/>
		<path fill="#585857" d="M149.337,22.406l0.767,0.173c0.088,0.02,0.144,0.106,0.123,0.197l-0.17,0.754
			c-0.02,0.086-0.106,0.143-0.197,0.123l-0.767-0.173c-0.087-0.02-0.143-0.107-0.122-0.197l0.17-0.754
			C149.163,22.439,149.25,22.386,149.337,22.406z"/>
		<path fill="#5E5E5D" d="M149.123,23.356c-0.02-0.003-0.033-0.026-0.03-0.046l0.171-0.754c0.002-0.02,0.026-0.033,0.047-0.03
			l0.767,0.173c0.021,0.003,0.032,0.027,0.03,0.046l-0.17,0.754c-0.004,0.02-0.027,0.034-0.047,0.03L149.123,23.356z"/>
		<path fill="#585857" d="M150.65,22.7l0.768,0.173c0.087,0.021,0.143,0.107,0.123,0.197l-0.17,0.753
			c-0.02,0.087-0.105,0.144-0.197,0.124l-0.767-0.173c-0.087-0.02-0.144-0.107-0.123-0.197l0.17-0.754
			C150.475,22.736,150.561,22.68,150.65,22.7z"/>
		<path fill="#5E5E5D" d="M150.434,23.65c-0.02-0.003-0.033-0.027-0.029-0.047l0.17-0.753c0.003-0.02,0.027-0.034,0.047-0.03
			l0.768,0.173c0.02,0.003,0.032,0.027,0.029,0.047l-0.17,0.754c-0.003,0.02-0.027,0.033-0.047,0.03L150.434,23.65z"/>
		<path fill="#585857" d="M151.961,22.993l0.768,0.173c0.086,0.02,0.144,0.107,0.123,0.197l-0.17,0.754
			c-0.02,0.087-0.106,0.144-0.197,0.124l-0.767-0.174c-0.087-0.02-0.144-0.106-0.122-0.197l0.17-0.753
			C151.785,23.03,151.871,22.973,151.961,22.993z"/>
		<path fill="#5E5E5D" d="M151.748,23.947c-0.02-0.003-0.033-0.027-0.03-0.047l0.171-0.754c0.004-0.02,0.026-0.033,0.047-0.03
			l0.767,0.173c0.021,0.003,0.032,0.027,0.03,0.047l-0.17,0.753c-0.004,0.02-0.027,0.034-0.047,0.03L151.748,23.947z"/>
		<path fill="#585857" d="M153.271,23.29l0.769,0.174c0.086,0.02,0.144,0.106,0.123,0.196l-0.17,0.754
			c-0.021,0.087-0.106,0.144-0.197,0.124l-0.767-0.173c-0.088-0.02-0.143-0.107-0.123-0.197l0.17-0.754
			C153.096,23.323,153.182,23.27,153.271,23.29z"/>
		<path fill="#5E5E5D" d="M153.059,24.241c-0.02-0.003-0.033-0.027-0.029-0.046l0.17-0.754c0.003-0.02,0.027-0.034,0.047-0.03
			l0.768,0.173c0.02,0.003,0.032,0.027,0.029,0.047l-0.17,0.754c-0.004,0.02-0.027,0.033-0.047,0.03L153.059,24.241z"/>
		<path fill="#585857" d="M154.583,23.583l0.767,0.173c0.088,0.02,0.145,0.107,0.125,0.197l-0.17,0.754
			c-0.021,0.087-0.107,0.144-0.197,0.124l-0.765-0.174c-0.087-0.02-0.143-0.106-0.122-0.196l0.17-0.754
			C154.407,23.62,154.493,23.563,154.583,23.583z"/>
		<path fill="#5E5E5D" d="M154.37,24.534c-0.021-0.003-0.034-0.026-0.03-0.046l0.17-0.754c0.004-0.02,0.027-0.034,0.047-0.03
			l0.768,0.173c0.02,0.003,0.033,0.027,0.029,0.047l-0.174,0.754c-0.003,0.02-0.025,0.033-0.046,0.03L154.37,24.534z"/>
		<path fill="#585857" d="M155.895,23.88l0.767,0.174c0.087,0.02,0.144,0.106,0.124,0.197l-0.17,0.753
			c-0.02,0.087-0.107,0.144-0.197,0.124l-0.768-0.173c-0.086-0.02-0.144-0.107-0.123-0.197l0.17-0.754
			C155.717,23.914,155.807,23.86,155.895,23.88z"/>
		<path fill="#5E5E5D" d="M155.682,24.831c-0.021-0.003-0.033-0.026-0.031-0.046l0.17-0.754c0.004-0.02,0.027-0.034,0.048-0.03
			l0.767,0.173c0.02,0.003,0.033,0.027,0.03,0.047l-0.17,0.754c-0.004,0.02-0.027,0.033-0.047,0.03L155.682,24.831z"/>
		<path fill="#585857" d="M157.205,24.174l0.768,0.173c0.086,0.02,0.143,0.107,0.123,0.197l-0.171,0.754
			c-0.021,0.087-0.106,0.144-0.196,0.124l-0.768-0.173c-0.086-0.02-0.143-0.107-0.123-0.197l0.174-0.754
			C157.027,24.21,157.118,24.154,157.205,24.174z"/>
		<path fill="#5E5E5D" d="M156.991,25.125c-0.021-0.003-0.033-0.027-0.03-0.047l0.171-0.754c0.003-0.02,0.026-0.033,0.046-0.03
			l0.768,0.174c0.02,0.003,0.033,0.026,0.029,0.047l-0.17,0.753c-0.003,0.02-0.025,0.034-0.046,0.03L156.991,25.125z"/>
		<path fill="#585857" d="M141.193,21.856l0.768,0.173c0.087,0.02,0.145,0.106,0.124,0.197l-0.17,0.754
			c-0.021,0.086-0.106,0.143-0.197,0.124l-0.767-0.174c-0.088-0.02-0.145-0.106-0.124-0.197l0.174-0.754
			C141.021,21.893,141.107,21.836,141.193,21.856z"/>
		<path fill="#5E5E5D" d="M140.98,22.807c-0.02-0.003-0.032-0.027-0.029-0.047l0.17-0.754c0.003-0.02,0.027-0.033,0.047-0.03
			l0.768,0.173c0.02,0.003,0.032,0.026,0.029,0.046l-0.17,0.754c-0.004,0.02-0.027,0.034-0.047,0.03L140.98,22.807z"/>
		<path fill="#585857" d="M142.509,22.152l0.767,0.174c0.088,0.02,0.144,0.106,0.123,0.197l-0.17,0.754
			c-0.02,0.086-0.105,0.143-0.195,0.123l-0.768-0.173c-0.086-0.02-0.144-0.106-0.123-0.197l0.17-0.754
			C142.332,22.186,142.419,22.133,142.509,22.152z"/>
		<path fill="#5E5E5D" d="M142.292,23.104c-0.021-0.003-0.033-0.027-0.03-0.047l0.17-0.754c0.004-0.02,0.027-0.033,0.047-0.03
			l0.768,0.174c0.02,0.003,0.033,0.026,0.029,0.047l-0.17,0.753c-0.002,0.02-0.026,0.034-0.047,0.03L142.292,23.104z"/>
		<path fill="#585857" d="M143.818,22.446l0.769,0.173c0.086,0.02,0.144,0.107,0.123,0.197l-0.17,0.754
			c-0.021,0.087-0.106,0.144-0.197,0.124l-0.767-0.173c-0.088-0.02-0.143-0.107-0.123-0.197l0.17-0.754
			C143.643,22.483,143.729,22.426,143.818,22.446z"/>
		<path fill="#5E5E5D" d="M143.605,23.397c-0.02-0.003-0.032-0.027-0.029-0.047l0.17-0.754c0.004-0.02,0.027-0.033,0.047-0.03
			l0.768,0.173c0.02,0.003,0.032,0.027,0.029,0.046l-0.17,0.754c-0.003,0.02-0.027,0.034-0.047,0.03L143.605,23.397z"/>
		<path fill="#585857" d="M145.13,22.74l0.767,0.173c0.088,0.02,0.145,0.107,0.125,0.197l-0.17,0.754
			c-0.021,0.087-0.107,0.144-0.197,0.124l-0.768-0.173c-0.087-0.02-0.144-0.107-0.123-0.197l0.17-0.754
			C144.953,22.776,145.04,22.72,145.13,22.74z"/>
		<path fill="#5E5E5D" d="M144.917,23.69c-0.021-0.003-0.034-0.027-0.03-0.047l0.17-0.754c0.004-0.02,0.027-0.033,0.047-0.03
			l0.768,0.173c0.02,0.003,0.033,0.027,0.029,0.047l-0.17,0.753c-0.004,0.021-0.026,0.034-0.047,0.03L144.917,23.69z"/>
		<path fill="#585857" d="M146.441,23.037l0.768,0.173c0.086,0.02,0.143,0.107,0.123,0.197l-0.17,0.754
			c-0.02,0.086-0.107,0.144-0.197,0.124l-0.767-0.174c-0.087-0.02-0.144-0.106-0.123-0.196l0.17-0.754
			C146.266,23.07,146.355,23.017,146.441,23.037z"/>
		<path fill="#5E5E5D" d="M146.229,23.987c-0.021-0.003-0.035-0.027-0.03-0.047l0.17-0.754c0.003-0.02,0.026-0.033,0.047-0.03
			l0.767,0.173c0.021,0.003,0.033,0.027,0.03,0.047l-0.17,0.754c-0.004,0.02-0.026,0.033-0.047,0.03L146.229,23.987z"/>
		<path fill="#585857" d="M147.752,23.33l0.768,0.173c0.086,0.02,0.144,0.107,0.123,0.197l-0.17,0.754
			c-0.02,0.086-0.106,0.144-0.197,0.123l-0.767-0.173c-0.087-0.02-0.144-0.106-0.124-0.197l0.17-0.754
			C147.575,23.367,147.665,23.31,147.752,23.33z"/>
		<path fill="#5E5E5D" d="M147.539,24.281c-0.02-0.003-0.033-0.027-0.03-0.046l0.171-0.754c0.002-0.021,0.026-0.034,0.047-0.03
			l0.767,0.173c0.021,0.003,0.032,0.027,0.03,0.047l-0.17,0.754c-0.004,0.02-0.027,0.033-0.047,0.03L147.539,24.281z"/>
		<path fill="#585857" d="M149.063,23.627l0.768,0.173c0.087,0.02,0.143,0.107,0.123,0.197l-0.17,0.754
			c-0.02,0.087-0.107,0.144-0.197,0.124l-0.768-0.173c-0.086-0.02-0.143-0.107-0.123-0.197l0.171-0.754
			C148.889,23.66,148.977,23.607,149.063,23.627z"/>
		<path fill="#5E5E5D" d="M148.85,24.578c-0.021-0.003-0.033-0.027-0.031-0.047l0.172-0.753c0.003-0.021,0.025-0.034,0.046-0.03
			l0.767,0.173c0.021,0.003,0.034,0.027,0.03,0.047l-0.17,0.754c-0.003,0.02-0.026,0.033-0.046,0.03L148.85,24.578z"/>
		<path fill="#585857" d="M150.374,23.92l0.767,0.173c0.088,0.02,0.144,0.107,0.123,0.197l-0.17,0.754
			c-0.02,0.086-0.105,0.144-0.197,0.124l-0.767-0.174c-0.086-0.02-0.144-0.106-0.123-0.197l0.17-0.753
			C150.2,23.957,150.287,23.9,150.374,23.92z"/>
		<path fill="#5E5E5D" d="M150.16,24.871c-0.02-0.003-0.033-0.026-0.03-0.046l0.17-0.754c0.005-0.02,0.027-0.034,0.048-0.03
			l0.766,0.173c0.021,0.003,0.033,0.027,0.031,0.047l-0.17,0.754c-0.004,0.02-0.027,0.033-0.048,0.03L150.16,24.871z"/>
		<path fill="#585857" d="M151.686,24.214l0.767,0.174c0.087,0.02,0.144,0.106,0.123,0.197l-0.171,0.753
			c-0.02,0.087-0.105,0.144-0.195,0.124l-0.768-0.173c-0.086-0.02-0.144-0.106-0.123-0.197l0.17-0.754
			C151.512,24.25,151.598,24.194,151.686,24.214z"/>
		<path fill="#5E5E5D" d="M151.471,25.165c-0.02-0.003-0.033-0.026-0.029-0.046l0.17-0.754c0.004-0.02,0.027-0.033,0.047-0.03
			l0.767,0.174c0.021,0.003,0.033,0.026,0.03,0.046l-0.17,0.754c-0.003,0.02-0.027,0.033-0.047,0.03L151.471,25.165z"/>
		<path fill="#585857" d="M152.995,24.511l0.769,0.174c0.086,0.02,0.143,0.106,0.123,0.196l-0.171,0.754
			c-0.021,0.087-0.106,0.144-0.196,0.124l-0.768-0.173c-0.087-0.02-0.143-0.107-0.123-0.197l0.17-0.754
			C152.822,24.544,152.909,24.491,152.995,24.511z"/>
		<path fill="#5E5E5D" d="M152.782,25.461c-0.021-0.003-0.033-0.026-0.03-0.046l0.17-0.754c0.004-0.02,0.027-0.033,0.047-0.03
			l0.768,0.174c0.02,0.003,0.033,0.026,0.029,0.046l-0.17,0.754c-0.003,0.02-0.027,0.033-0.047,0.03L152.782,25.461z"/>
		<path fill="#585857" d="M154.311,24.804l0.767,0.174c0.087,0.02,0.144,0.106,0.123,0.197l-0.171,0.754
			c-0.02,0.086-0.106,0.143-0.196,0.123l-0.767-0.173c-0.088-0.02-0.144-0.107-0.123-0.197l0.17-0.754
			C154.133,24.841,154.221,24.784,154.311,24.804z"/>
		<path fill="#5E5E5D" d="M154.093,25.755c-0.02-0.003-0.034-0.026-0.03-0.046l0.17-0.754c0.004-0.02,0.027-0.033,0.047-0.03
			l0.768,0.174c0.02,0.003,0.033,0.026,0.03,0.046l-0.17,0.754c-0.005,0.02-0.027,0.033-0.048,0.03L154.093,25.755z"/>
		<path fill="#585857" d="M155.621,25.101l0.768,0.174c0.086,0.02,0.143,0.106,0.123,0.197l-0.171,0.753
			c-0.021,0.087-0.106,0.144-0.196,0.124l-0.768-0.173c-0.087-0.02-0.143-0.107-0.123-0.197l0.17-0.754
			C155.443,25.135,155.531,25.081,155.621,25.101z"/>
		<path fill="#5E5E5D" d="M155.407,26.052c-0.021-0.003-0.033-0.026-0.03-0.046l0.17-0.754c0.004-0.02,0.027-0.033,0.047-0.03
			l0.768,0.173c0.02,0.004,0.033,0.027,0.029,0.047l-0.17,0.754c-0.003,0.02-0.025,0.033-0.046,0.03L155.407,26.052z"/>
		<path fill="#585857" d="M156.932,25.395l0.768,0.174c0.087,0.02,0.143,0.106,0.123,0.197l-0.17,0.754
			c-0.021,0.086-0.107,0.143-0.197,0.123l-0.768-0.173c-0.086-0.02-0.143-0.106-0.123-0.197l0.17-0.754
			C156.755,25.432,156.842,25.375,156.932,25.395z"/>
		<path fill="#5E5E5D" d="M156.718,26.346c-0.02-0.003-0.032-0.027-0.03-0.047l0.17-0.754c0.004-0.02,0.027-0.033,0.047-0.03
			l0.768,0.174c0.02,0.003,0.033,0.026,0.03,0.047l-0.17,0.753c-0.003,0.02-0.027,0.034-0.048,0.03L156.718,26.346z"/>
		<path fill="#585857" d="M140.921,23.077l0.767,0.173c0.088,0.02,0.145,0.106,0.125,0.197l-0.17,0.754
			c-0.021,0.086-0.107,0.143-0.197,0.124l-0.768-0.174c-0.087-0.02-0.144-0.106-0.123-0.197l0.17-0.754
			C140.748,23.113,140.835,23.057,140.921,23.077z"/>
		<path fill="#5E5E5D" d="M140.708,24.027c-0.021-0.003-0.034-0.027-0.031-0.047l0.171-0.754c0.004-0.02,0.026-0.033,0.047-0.03
			l0.767,0.173c0.021,0.003,0.034,0.026,0.03,0.047l-0.17,0.753c-0.004,0.02-0.026,0.034-0.047,0.03L140.708,24.027z"/>
		<path fill="#585857" d="M142.232,23.37l0.767,0.173c0.087,0.02,0.144,0.107,0.123,0.197l-0.17,0.754
			c-0.021,0.087-0.106,0.144-0.197,0.124l-0.767-0.174c-0.086-0.02-0.143-0.106-0.123-0.197l0.17-0.754
			C142.059,23.407,142.145,23.354,142.232,23.37z"/>
		<path fill="#5E5E5D" d="M142.02,24.324c-0.021-0.003-0.035-0.027-0.031-0.047l0.171-0.754c0.003-0.02,0.026-0.033,0.046-0.03
			l0.768,0.173c0.021,0.003,0.033,0.027,0.03,0.047l-0.171,0.754c-0.003,0.02-0.025,0.033-0.046,0.03L142.02,24.324z"/>
		<path fill="#585857" d="M143.542,23.667l0.769,0.173c0.086,0.02,0.143,0.107,0.123,0.197l-0.17,0.754
			c-0.021,0.087-0.107,0.144-0.197,0.124l-0.768-0.173c-0.087-0.02-0.145-0.107-0.123-0.197l0.17-0.754
			C143.369,23.704,143.456,23.647,143.542,23.667z"/>
		<path fill="#5E5E5D" d="M143.329,24.618c-0.021-0.003-0.033-0.027-0.03-0.047l0.17-0.754c0.004-0.02,0.027-0.033,0.047-0.03
			l0.768,0.173c0.02,0.003,0.033,0.027,0.029,0.047l-0.17,0.753c-0.002,0.021-0.026,0.034-0.047,0.03L143.329,24.618z"/>
		<path fill="#585857" d="M144.857,23.96l0.767,0.173c0.087,0.02,0.144,0.107,0.124,0.197l-0.17,0.754
			c-0.02,0.087-0.107,0.144-0.197,0.124l-0.768-0.173c-0.086-0.02-0.143-0.107-0.123-0.197l0.17-0.754
			C144.68,23.997,144.768,23.94,144.857,23.96z"/>
		<path fill="#5E5E5D" d="M144.641,24.911c-0.021-0.003-0.033-0.027-0.031-0.047l0.17-0.754c0.005-0.02,0.027-0.033,0.048-0.03
			l0.767,0.173c0.02,0.003,0.034,0.027,0.03,0.047l-0.17,0.754c-0.003,0.02-0.027,0.033-0.047,0.03L144.641,24.911z"/>
		<path fill="#585857" d="M146.168,24.257l0.768,0.173c0.086,0.021,0.143,0.107,0.123,0.197l-0.17,0.754
			c-0.021,0.086-0.107,0.143-0.197,0.123l-0.768-0.173c-0.087-0.02-0.143-0.107-0.123-0.197l0.17-0.754
			C145.991,24.291,146.078,24.237,146.168,24.257z"/>
		<path fill="#5E5E5D" d="M145.954,25.208c-0.021-0.003-0.033-0.027-0.03-0.047l0.17-0.754c0.004-0.02,0.027-0.033,0.047-0.03
			l0.768,0.173c0.02,0.003,0.033,0.027,0.029,0.047l-0.17,0.754c-0.002,0.02-0.025,0.033-0.045,0.03L145.954,25.208z"/>
		<path fill="#585857" d="M147.479,24.551l0.768,0.173c0.087,0.02,0.143,0.107,0.123,0.197l-0.17,0.754
			c-0.02,0.087-0.107,0.144-0.197,0.124l-0.768-0.173c-0.086-0.02-0.143-0.107-0.123-0.197l0.171-0.754
			C147.302,24.587,147.389,24.531,147.479,24.551z"/>
		<path fill="#5E5E5D" d="M147.266,25.501c-0.021-0.003-0.033-0.027-0.031-0.047l0.17-0.753c0.004-0.021,0.027-0.034,0.048-0.03
			l0.767,0.173c0.02,0.003,0.033,0.027,0.03,0.047l-0.17,0.754c-0.004,0.02-0.027,0.033-0.047,0.03L147.266,25.501z"/>
		<path fill="#585857" d="M148.79,24.844l0.767,0.173c0.088,0.02,0.144,0.107,0.123,0.197l-0.17,0.754
			c-0.02,0.087-0.107,0.144-0.197,0.124l-0.767-0.173c-0.086-0.02-0.144-0.107-0.123-0.197l0.17-0.754
			C148.613,24.881,148.7,24.828,148.79,24.844z"/>
		<path fill="#5E5E5D" d="M148.576,25.798c-0.02-0.003-0.033-0.027-0.03-0.047l0.17-0.753c0.003-0.021,0.027-0.034,0.048-0.03
			l0.766,0.173c0.021,0.003,0.033,0.027,0.031,0.047l-0.17,0.754c-0.004,0.02-0.027,0.033-0.048,0.03L148.576,25.798z"/>
		<path fill="#585857" d="M150.1,25.141l0.769,0.173c0.086,0.021,0.144,0.107,0.123,0.197l-0.171,0.753
			c-0.02,0.087-0.106,0.144-0.196,0.124l-0.767-0.173c-0.088-0.02-0.145-0.107-0.125-0.197l0.172-0.754
			C149.924,25.175,150.014,25.121,150.1,25.141z"/>
		<path fill="#5E5E5D" d="M149.887,26.092c-0.02-0.003-0.033-0.026-0.029-0.046l0.17-0.754c0.002-0.02,0.027-0.034,0.047-0.03
			l0.767,0.173c0.021,0.003,0.033,0.027,0.03,0.047l-0.17,0.754c-0.003,0.02-0.027,0.033-0.047,0.03L149.887,26.092z"/>
		<path fill="#585857" d="M151.411,25.435l0.767,0.174c0.088,0.02,0.145,0.106,0.124,0.197l-0.171,0.753
			c-0.02,0.087-0.105,0.144-0.195,0.124l-0.769-0.173c-0.086-0.02-0.144-0.106-0.123-0.197l0.17-0.754
			C151.234,25.471,151.324,25.415,151.411,25.435z"/>
		<path fill="#5E5E5D" d="M151.198,26.385c-0.021-0.003-0.034-0.026-0.03-0.046l0.17-0.754c0.003-0.02,0.025-0.033,0.046-0.03
			l0.769,0.174c0.02,0.003,0.033,0.026,0.029,0.046l-0.174,0.754c-0.003,0.02-0.025,0.033-0.046,0.03L151.198,26.385z"/>
		<path fill="#585857" d="M152.723,25.731l0.766,0.174c0.088,0.02,0.145,0.106,0.125,0.197l-0.172,0.753
			c-0.02,0.087-0.105,0.144-0.195,0.124l-0.768-0.173c-0.086-0.02-0.144-0.107-0.123-0.197l0.17-0.754
			C152.549,25.765,152.635,25.711,152.723,25.731z"/>
		<path fill="#5E5E5D" d="M152.508,26.682c-0.02-0.003-0.033-0.023-0.029-0.046l0.17-0.754c0.004-0.02,0.026-0.033,0.047-0.03
			l0.767,0.174c0.021,0.003,0.034,0.026,0.03,0.046l-0.17,0.754c-0.004,0.02-0.027,0.033-0.047,0.03L152.508,26.682z"/>
		<path fill="#585857" d="M154.033,26.025l0.767,0.174c0.087,0.02,0.144,0.106,0.124,0.197l-0.17,0.754
			c-0.02,0.086-0.107,0.143-0.197,0.123l-0.767-0.173c-0.087-0.02-0.144-0.107-0.124-0.197l0.17-0.754
			C153.859,26.062,153.945,26.005,154.033,26.025z"/>
		<path fill="#5E5E5D" d="M153.818,26.976c-0.02-0.003-0.032-0.026-0.029-0.046l0.17-0.754c0.004-0.02,0.027-0.033,0.047-0.03
			l0.768,0.174c0.02,0.003,0.033,0.026,0.029,0.046l-0.17,0.754c-0.003,0.02-0.025,0.033-0.047,0.03L153.818,26.976z"/>
		<path fill="#585857" d="M155.344,26.319l0.768,0.173c0.087,0.02,0.143,0.106,0.123,0.197l-0.17,0.754
			c-0.021,0.086-0.107,0.143-0.197,0.124l-0.768-0.174c-0.086-0.02-0.143-0.106-0.123-0.197l0.17-0.754
			C155.17,26.355,155.257,26.299,155.344,26.319z"/>
		<path fill="#5E5E5D" d="M155.13,27.272c-0.021-0.003-0.032-0.026-0.03-0.046l0.17-0.754c0.004-0.02,0.027-0.033,0.047-0.03
			l0.768,0.173c0.02,0.004,0.034,0.027,0.029,0.047l-0.17,0.75c-0.002,0.02-0.025,0.034-0.045,0.03L155.13,27.272z"/>
		<path fill="#585857" d="M156.658,26.615l0.767,0.174c0.087,0.02,0.144,0.106,0.123,0.197l-0.17,0.754
			c-0.021,0.086-0.106,0.143-0.196,0.123l-0.768-0.173c-0.086-0.02-0.143-0.106-0.123-0.197l0.17-0.754
			C156.48,26.649,156.568,26.596,156.658,26.615z"/>
		<path fill="#5E5E5D" d="M156.441,27.566c-0.021-0.003-0.033-0.027-0.03-0.047l0.17-0.754c0.003-0.02,0.026-0.033,0.047-0.03
			l0.767,0.174c0.021,0.003,0.033,0.026,0.03,0.047l-0.17,0.753c-0.003,0.02-0.026,0.034-0.047,0.03L156.441,27.566z"/>
		<path fill="#585857" d="M140.646,24.297l0.768,0.173c0.087,0.02,0.145,0.107,0.124,0.197l-0.17,0.754
			c-0.021,0.086-0.106,0.143-0.197,0.123l-0.767-0.173c-0.088-0.02-0.145-0.107-0.125-0.197l0.172-0.754
			C140.471,24.334,140.561,24.277,140.646,24.297z"/>
		<path fill="#5E5E5D" d="M140.434,25.248c-0.02-0.003-0.033-0.027-0.029-0.047l0.17-0.754c0.003-0.02,0.027-0.033,0.047-0.03
			l0.768,0.173c0.02,0.003,0.032,0.027,0.029,0.047l-0.17,0.754c-0.003,0.02-0.027,0.033-0.047,0.03L140.434,25.248z"/>
		<path fill="#585857" d="M141.958,24.591l0.769,0.174c0.086,0.02,0.143,0.106,0.123,0.196l-0.17,0.754
			c-0.021,0.087-0.107,0.144-0.197,0.124l-0.768-0.173c-0.087-0.02-0.145-0.107-0.124-0.197l0.171-0.754
			C141.782,24.628,141.872,24.571,141.958,24.591z"/>
		<path fill="#5E5E5D" d="M141.745,25.542c-0.021-0.003-0.033-0.027-0.03-0.046l0.17-0.754c0.004-0.02,0.027-0.034,0.047-0.03
			l0.768,0.174c0.02,0.003,0.033,0.026,0.029,0.046l-0.17,0.754c-0.002,0.02-0.026,0.033-0.047,0.03L141.745,25.542z"/>
		<path fill="#585857" d="M143.27,24.888l0.768,0.173c0.086,0.02,0.143,0.107,0.123,0.197l-0.17,0.754
			c-0.02,0.087-0.107,0.144-0.197,0.124l-0.768-0.173c-0.086-0.02-0.144-0.107-0.123-0.197l0.174-0.754
			C143.096,24.921,143.184,24.868,143.27,24.888z"/>
		<path fill="#5E5E5D" d="M143.057,25.838c-0.021-0.003-0.035-0.027-0.031-0.047l0.17-0.754c0.004-0.02,0.027-0.033,0.047-0.03
			l0.768,0.173c0.02,0.003,0.033,0.027,0.03,0.047l-0.17,0.753c-0.004,0.021-0.027,0.034-0.047,0.03L143.057,25.838z"/>
		<path fill="#585857" d="M144.58,25.182l0.768,0.173c0.086,0.02,0.144,0.106,0.123,0.197l-0.171,0.754
			c-0.021,0.086-0.106,0.143-0.196,0.123l-0.767-0.173c-0.087-0.02-0.144-0.107-0.124-0.197l0.17-0.754
			C144.407,25.218,144.493,25.161,144.58,25.182z"/>
		<path fill="#5E5E5D" d="M144.367,26.132c-0.02-0.003-0.034-0.026-0.03-0.046l0.17-0.754c0.003-0.02,0.027-0.034,0.048-0.03
			l0.766,0.173c0.021,0.003,0.033,0.026,0.031,0.046l-0.17,0.754c-0.005,0.02-0.027,0.033-0.048,0.03L144.367,26.132z"/>
		<path fill="#585857" d="M150.59,26.532l-4.706-1.057c-0.087-0.02-0.17,0.033-0.19,0.12l-0.184,0.811
			c-0.013,0.061,0.024,0.12,0.084,0.134l4.75,1.067c0.086,0.02,0.176-0.037,0.196-0.124l0.17-0.754
			C150.734,26.642,150.68,26.552,150.59,26.532z"/>
		<path fill="#5E5E5D" d="M145.641,26.419l0.18-0.797c0.004-0.017,0.023-0.03,0.041-0.023l4.705,1.058
			c0.021,0.003,0.033,0.026,0.031,0.046l-0.171,0.754c-0.003,0.02-0.026,0.033-0.047,0.03L145.641,26.419z"/>
		<path fill="#585857" d="M151.139,26.656l0.766,0.173c0.088,0.02,0.145,0.107,0.125,0.197l-0.172,0.754
			c-0.02,0.087-0.105,0.144-0.195,0.124l-0.768-0.174c-0.086-0.02-0.144-0.106-0.123-0.197l0.17-0.753
			C150.961,26.692,151.048,26.636,151.139,26.656z"/>
		<path fill="#5E5E5D" d="M150.924,27.606c-0.02-0.003-0.033-0.027-0.029-0.047l0.17-0.754c0.004-0.02,0.026-0.033,0.047-0.03
			l0.767,0.173c0.021,0.003,0.034,0.027,0.03,0.047l-0.17,0.754c-0.004,0.02-0.027,0.033-0.047,0.03L150.924,27.606z"/>
		<path fill="#585857" d="M152.449,26.953l0.767,0.173c0.086,0.02,0.144,0.107,0.123,0.197l-0.17,0.754
			c-0.021,0.087-0.106,0.144-0.196,0.124l-0.768-0.174c-0.087-0.02-0.143-0.106-0.123-0.197l0.17-0.753
			C152.271,26.986,152.361,26.933,152.449,26.953z"/>
		<path fill="#5E5E5D" d="M152.234,27.903c-0.02-0.003-0.032-0.027-0.029-0.047l0.17-0.754c0.004-0.02,0.027-0.033,0.047-0.03
			l0.768,0.173c0.02,0.003,0.033,0.027,0.029,0.047l-0.17,0.754c-0.003,0.02-0.027,0.033-0.047,0.03L152.234,27.903z"/>
		<path fill="#585857" d="M153.759,27.246l0.767,0.173c0.088,0.02,0.145,0.107,0.125,0.197l-0.17,0.754
			c-0.021,0.087-0.107,0.144-0.197,0.124l-0.768-0.173c-0.086-0.02-0.144-0.107-0.123-0.197l0.17-0.753
			C153.582,27.283,153.672,27.226,153.759,27.246z"/>
		<path fill="#5E5E5D" d="M153.546,28.197c-0.021-0.003-0.032-0.027-0.03-0.047l0.17-0.754c0.004-0.02,0.027-0.033,0.047-0.03
			l0.768,0.173c0.02,0.003,0.033,0.027,0.029,0.047l-0.17,0.753c-0.004,0.021-0.023,0.034-0.047,0.03L153.546,28.197z"/>
		<path fill="#585857" d="M155.07,27.54l0.767,0.173c0.087,0.02,0.144,0.106,0.124,0.197l-0.17,0.754
			c-0.02,0.086-0.107,0.143-0.197,0.124l-0.767-0.174c-0.087-0.02-0.144-0.106-0.124-0.197l0.17-0.754
			C154.896,27.576,154.982,27.52,155.07,27.54z"/>
		<path fill="#5E5E5D" d="M154.855,28.49c-0.02-0.003-0.032-0.026-0.029-0.047l0.171-0.754c0.003-0.02,0.026-0.033,0.046-0.03
			l0.768,0.173c0.02,0.003,0.033,0.027,0.029,0.047l-0.17,0.754c-0.003,0.02-0.025,0.033-0.046,0.03L154.855,28.49z"/>
		<path fill="#585857" d="M156.381,27.836l0.768,0.173c0.086,0.02,0.144,0.107,0.123,0.197l-0.17,0.754
			c-0.02,0.087-0.106,0.144-0.197,0.124l-0.766-0.173c-0.088-0.02-0.145-0.107-0.125-0.197l0.17-0.754
			C156.208,27.87,156.295,27.816,156.381,27.836z"/>
		<path fill="#5E5E5D" d="M156.168,28.787c-0.02-0.003-0.033-0.027-0.029-0.047l0.17-0.754c0.002-0.02,0.026-0.033,0.047-0.03
			l0.767,0.173c0.021,0.003,0.032,0.027,0.03,0.047l-0.17,0.754c-0.004,0.02-0.027,0.033-0.047,0.03L156.168,28.787z"/>
		<path fill="#EDEDED" d="M150.354,28.66l-3.85-0.864c-0.173-0.04-0.346,0.07-0.383,0.244l-0.464,2.058
			c-0.04,0.174,0.069,0.347,0.243,0.384l3.85,0.864c0.173,0.04,0.348-0.07,0.384-0.244l0.464-2.058
			C150.637,28.87,150.527,28.7,150.354,28.66z"/>
		<path fill="#9D9B9B" d="M150.384,28.537l-3.85-0.864c-0.24-0.054-0.479,0.097-0.533,0.337l-0.464,2.058
			c-0.053,0.24,0.097,0.48,0.337,0.534l3.849,0.864c0.24,0.053,0.481-0.097,0.534-0.337l0.464-2.058
			C150.773,28.83,150.624,28.593,150.384,28.537z M150.137,31.102c-0.039,0.174-0.21,0.284-0.384,0.244l-3.849-0.864
			c-0.174-0.04-0.283-0.21-0.243-0.384l0.463-2.058c0.04-0.173,0.21-0.283,0.384-0.243l3.85,0.864
			c0.172,0.04,0.283,0.21,0.242,0.384L150.137,31.102z"/>
		<path fill="#DFDFDE" d="M145.889,29.083l-0.228,1.014c-0.04,0.173,0.069,0.347,0.243,0.384l3.85,0.864
			c0.173,0.04,0.346-0.07,0.383-0.244l0.227-1.014L145.889,29.083z"/>
		<path fill="#D9D9DA" d="M148.109,29.581l-2.221-0.5l-0.228,1.014c-0.04,0.173,0.069,0.347,0.243,0.383l1.908,0.431L148.109,29.581
			z"/>
		<path fill="#E3E1E1" d="M159.59,22.753l-18.898-4.25c-0.11-0.026-0.188-0.13-0.178-0.243l1.979-10.814
			c0.027-0.297,0.307-0.5,0.597-0.434l19.249,4.33c0.291,0.066,0.457,0.37,0.354,0.65l-2.838,10.617
			C159.813,22.716,159.703,22.78,159.59,22.753z"/>
		<path fill="#C7C7C6" d="M141.338,17.466l1.825-9.129c0.026-0.28,0.29-0.474,0.563-0.41l17.642,3.966
			c0.272,0.06,0.43,0.35,0.333,0.614l-2.254,9.029c-0.08,0.22-0.311,0.343-0.541,0.293l-17.204-3.869
			C141.471,17.91,141.318,17.696,141.338,17.466z"/>
		<path fill="#C6E6F2" d="M141.465,17.479l1.824-9.136c0.02-0.203,0.21-0.343,0.41-0.296l17.648,3.969
			c0.196,0.043,0.313,0.254,0.243,0.444l-2.261,9.036c-0.057,0.16-0.225,0.25-0.391,0.213l-17.215-3.873
			C141.561,17.8,141.448,17.646,141.465,17.479z"/>
		<path opacity="0.24" fill="#B6E0ED" enable-background="new    " d="M141.738,16.605c0.326-0.587,0.773-1.141,1.268-1.601
			c1.28-1.191,3.064-1.848,4.746-2.208c1.98-0.427,4.2-1.301,6.214-1.124c2.796,0.24,4.687,0.667,7.335,1.578l0.29-0.791
			c0.07-0.19-0.043-0.4-0.243-0.444l-17.648-3.969c-0.196-0.043-0.391,0.097-0.41,0.296l-1.794,8.806
			C141.555,16.953,141.65,16.762,141.738,16.605z"/>
		<path fill="#585857" d="M156.852,22.139l-13.449-3.025l0.007-0.227l13.559,3.048L156.852,22.139z"/>
		<path fill="#3C3C3B" d="M152.473,9.548c0.02-0.083,0.104-0.137,0.187-0.117c0.083,0.021,0.137,0.104,0.116,0.187
			c-0.02,0.083-0.104,0.137-0.187,0.117C152.505,9.718,152.452,9.634,152.473,9.548z"/>
		<path fill="#585857" d="M152.516,9.558c0.014-0.06,0.073-0.097,0.133-0.083c0.061,0.014,0.097,0.074,0.084,0.134
			c-0.014,0.06-0.073,0.097-0.133,0.083C152.539,9.678,152.502,9.618,152.516,9.558z"/>
		<path fill="#B6E0ED" d="M152.579,9.574c0.006-0.023,0.03-0.04,0.053-0.033s0.04,0.03,0.033,0.053
			c-0.006,0.023-0.03,0.04-0.054,0.034C152.589,9.621,152.572,9.598,152.579,9.574z"/>
	</g>
	<path fill="#FDFFFC" d="M32.808,84.637c-0.897-3.791-4.688-6.129-8.459-5.229c-3.776,0.901-6.105,4.708-5.208,8.495
		c0.632,2.66,2.69,4.604,5.167,5.213c0.143,0.379,0.408,2.677,0.881,3.414c0.214,0.332,0.484,0.389,0.897,0.301
		c0.332,1.183,1.717,2.268,2.859,2.16c0.8-0.077,1.381-0.63,1.641-1.371c0.204-0.578,0.367-1.244,0.469-1.889
		c0.55-0.016,0.815-0.072,0.79-0.588c-0.046-0.896-1.014-3.362-1.05-3.74C32.553,89.729,33.409,87.18,32.808,84.637z"/>
	<path fill="#AEB4FC" d="M29.154,84.382c-0.107-0.384-0.484-0.64-0.882-0.542c-0.372,0.086-0.652,0.501-0.54,0.885
		c0.066,0.235,0.24,0.425,0.449,0.512c-0.153,0.992-0.347,1.97-0.428,2.973c-0.077,0.932-0.153,1.842-0.357,2.748
		c-1.105-1.663-2.207-3.321-3.424-4.902c0.336-0.322,0.082-1.044-0.484-0.91c-0.667,0.158-0.423,1.202,0.25,1.043
		c0.005,0,0.01-0.005,0.015-0.01c1.264,1.796,2.502,3.617,3.532,5.563c0.112,0.209,0.417,0.163,0.489-0.052
		c0.336-1.003,0.433-2.026,0.504-3.075c0.082-1.131,0.301-2.241,0.393-3.367C29.011,85.134,29.256,84.745,29.154,84.382z"/>
	<path fill="#808AFF" d="M20.668,78.201c-1.422-0.707-2.849-1.417-4.271-2.129c-0.295-0.143-0.565,0.282-0.27,0.44
		c1.386,0.767,2.777,1.53,4.164,2.297C20.699,79.035,21.076,78.405,20.668,78.201z"/>
	<path fill="#808AFF" d="M23.344,72.777c-0.117-0.261-0.454-0.072-0.428,0.164c0.173,1.474,0.719,2.978,1.146,4.4
		c0.107,0.348,0.642,0.23,0.556-0.133C24.267,75.744,23.961,74.153,23.344,72.777z"/>
	<path fill="#808AFF" d="M29.969,72.347c-0.367,0.322-0.591,0.834-0.82,1.264c-0.24,0.45-0.454,0.911-0.658,1.376
		c-0.163,0.378,0.464,0.578,0.622,0.189c0.189-0.476,0.393-0.937,0.627-1.392c0.199-0.394,0.489-0.778,0.606-1.202
		C30.413,72.352,30.137,72.193,29.969,72.347z"/>
</g>
<path fill="#7382EF" d="M84.5,159c19.055,0,34.5-2.686,34.5-6s-15.445-6-34.5-6c-19.054,0-34.5,2.686-34.5,6S65.446,159,84.5,159z"
	/>
<path fill="#DEBB95" d="M73.781,141.104c0.408,1.303,0.005,2.748-0.723,3.902c-0.728,1.154-1.755,2.087-2.727,3.045
	c-0.972,0.959-1.922,1.991-2.439,3.258c-0.172,0.424-0.28,0.947-0.002,1.313c0.265,0.345,0.76,0.393,1.194,0.376
	c2.086-0.063,4.102-0.858,5.868-1.972c1.006-0.637,1.943-0.834,2.431-1.92c0.445-0.99,0.469-2.705,0.453-3.789
	c-0.016-1.012-0.034-2.023-0.05-3.032c-0.005-0.271-0.023-0.575-0.228-0.755c-0.143-0.125-0.344-0.156-0.532-0.182
	c-1.109-0.152-2.219-0.306-3.326-0.457"/>
<path fill="#DEBB95" d="M93.105,141.104c-0.408,1.303-0.006,2.748,0.723,3.902s1.756,2.087,2.727,3.045
	c0.973,0.959,1.924,1.991,2.439,3.258c0.172,0.424,0.281,0.947,0.002,1.313c-0.264,0.345-0.76,0.393-1.193,0.376
	c-2.087-0.063-4.102-0.858-5.868-1.972c-1.006-0.637-1.943-0.834-2.431-1.92c-0.445-0.99-0.469-2.705-0.453-3.789
	c0.017-1.012,0.035-2.023,0.051-3.032c0.006-0.271,0.023-0.575,0.228-0.755c0.144-0.125,0.345-0.156,0.532-0.182
	c1.109-0.152,2.219-0.306,3.326-0.457"/>
<path fill="#987957" d="M73.466,144.246c0.45-0.993,0.635-2.113,0.313-3.143l-0.083-0.213c1.107,0.151,2.219,0.303,3.326,0.457
	c0.191,0.025,0.39,0.057,0.533,0.182c0.204,0.178,0.222,0.481,0.225,0.752c0.011,0.654,0.021,1.308,0.035,1.965
	c-0.657,0.077-1.396,0.127-2.203,0.127C74.827,144.373,74.106,144.323,73.466,144.246z"/>
<path fill="#987957" d="M93.42,144.246c-0.602,0.072-1.268,0.119-1.988,0.127c-0.869,0.008-1.66-0.045-2.359-0.127
	c0.019-0.766,0.023-1.395,0.034-1.965c0.005-0.271,0.024-0.574,0.226-0.752c0.141-0.127,0.342-0.159,0.529-0.182
	c1.109-0.152,2.219-0.303,3.328-0.457l-0.082,0.213C92.781,142.136,92.97,143.253,93.42,144.246z"/>
<path fill="#559D78" d="M82.67,104.191c-0.008,1.146-0.027,2.309-0.059,3.488c-0.005,0.352-0.016,0.7-0.029,1.053
	c-0.005,0.268-0.016,0.533-0.027,0.8c-0.047,1.39-0.111,2.796-0.19,4.226c-0.026,0.482-0.056,0.967-0.087,1.454
	c-0.029,0.474-0.061,0.951-0.095,1.431c-0.042,0.608-0.09,1.213-0.135,1.813c-0.026,0.319-0.05,0.64-0.08,0.961
	c-0.05,0.608-0.105,1.215-0.161,1.819c-0.087,0.924-0.178,1.838-0.278,2.742c-0.029,0.278-0.058,0.551-0.09,0.824
	c-0.09,0.803-0.183,1.594-0.281,2.379c-0.034,0.279-0.069,0.561-0.106,0.842c-0.037,0.277-0.071,0.558-0.111,0.834
	c-0.037,0.277-0.074,0.553-0.111,0.828c-0.127,0.939-0.262,1.866-0.403,2.78c-0.04,0.275-0.082,0.548-0.127,0.821
	c-0.09,0.572-0.18,1.141-0.272,1.705c-0.085,0.508-0.17,1.011-0.257,1.514c-0.273,1.584-0.562,3.128-0.855,4.633
	c-0.048,0.248-0.101,0.496-0.151,0.748c-0.063,0.32-0.13,0.639-0.193,0.953c-0.037,0.176-0.071,0.35-0.108,0.521h-5.601
	c-1.223-3.045-2.537-6.836-3.617-11.27c-1.393-5.716-2.394-12.498-2.286-20.107c0.005-0.344,0.014-0.687,0.021-1.025
	c0.172-6.283,1.067-11.799,2.147-16.345c0.002-0.009,0.005-0.017,0.005-0.026l11.661-0.271c0.591-0.016,1.16-0.026,1.697-0.04
	c0.042,1.012,0.08,2.037,0.109,3.08c0.01,0.352,0.019,0.704,0.026,1.057c0.016,0.699,0.026,1.402,0.034,2.115
	C82.678,101.729,82.68,102.95,82.67,104.191z"/>
<path fill="#559D78" d="M97.961,130.882c-1.127,4.952-2.57,9.156-3.902,12.474h-5.601c-0.037-0.172-0.071-0.347-0.108-0.521
	c-1.589-7.679-2.926-16.465-3.614-26.196c-0.069-0.969-0.13-1.93-0.18-2.881c-0.395-7.014-0.384-13.541-0.132-19.488
	c0.278,0.006,0.551,0.014,0.829,0.019c0.151,0.005,0.307,0.005,0.463,0.011c0.132,0.002,0.26,0.005,0.392,0.008
	c3.76,0.09,7.517,0.175,11.274,0.265c0.133,0.003,0.268,0.005,0.403,0.008c1.046,4.394,1.919,9.692,2.132,15.718
	c0.018,0.555,0.034,1.115,0.042,1.68C100.061,119.063,99.203,125.425,97.961,130.882z"/>
<path fill="#66A986" d="M97.961,130.882c-1.371,4.403-2.952,8.201-4.16,11.285c-0.156,0.405-0.545,0.668-0.977,0.668h-4.472
	c-1.589-7.679-2.926-16.465-3.614-26.196c-0.069-0.969-0.13-1.93-0.18-2.881c-0.395-7.014-0.384-13.541-0.132-19.488
	c0.278,0.006,0.551,0.014,0.829,0.019c0.151,0.005,0.307,0.005,0.463,0.011c0.132,0.002,0.259,0.005,0.392,0.008
	c3.76,0.09,7.518,0.175,11.274,0.265c0.133,0.003,0.268,0.005,0.403,0.008c1.045,4.394,1.919,9.692,2.131,15.718
	c0.019,0.555,0.035,1.115,0.043,1.68C100.061,119.063,99.203,125.425,97.961,130.882z"/>
<path fill="#66A986" d="M82.67,104.191c-0.008,1.146-0.027,2.31-0.059,3.488c-0.005,0.352-0.016,0.701-0.029,1.053
	c-0.005,0.268-0.016,0.533-0.027,0.8c-0.047,1.391-0.111,2.797-0.19,4.226c-0.026,0.482-0.056,0.967-0.087,1.454
	c-0.026,0.474-0.058,0.951-0.093,1.431c-0.042,0.608-0.09,1.213-0.138,1.813c-0.026,0.319-0.05,0.642-0.08,0.961
	c-0.05,0.608-0.105,1.215-0.161,1.819c-0.087,0.924-0.178,1.838-0.278,2.742c-0.029,0.278-0.058,0.551-0.09,0.824
	c-0.09,0.803-0.183,1.594-0.281,2.379c-0.034,0.279-0.069,0.561-0.106,0.842c-0.037,0.277-0.071,0.558-0.111,0.834
	c-0.037,0.277-0.074,0.553-0.111,0.828c-0.127,0.94-0.262,1.866-0.403,2.78c-0.04,0.275-0.082,0.548-0.127,0.821
	c-0.09,0.572-0.18,1.141-0.272,1.705c-0.085,0.508-0.17,1.011-0.257,1.515c-0.273,1.583-0.562,3.127-0.855,4.632
	c-0.048,0.248-0.101,0.497-0.151,0.748c-0.063,0.321-0.13,0.639-0.193,0.953h-4.472c-0.432,0-0.818-0.264-0.977-0.667
	c-1.099-2.807-2.547-6.188-3.876-10.077c-1.393-5.718-2.394-12.498-2.286-20.109c0.005-0.344,0.014-0.686,0.021-1.024
	c0.172-6.282,1.067-11.799,2.147-16.345c3.59-0.09,8.034-0.204,11.667-0.297c0.591-0.016,1.16-0.026,1.697-0.04H82.5
	c0.042,1.009,0.08,2.036,0.106,3.079c0.01,0.354,0.018,0.705,0.026,1.057c0.016,0.699,0.026,1.404,0.034,2.116
	C82.678,101.729,82.68,102.95,82.67,104.191z"/>
<path fill="#559D78" d="M82.498,94.27c0.254,5.955,0.265,12.492-0.132,19.525c-6.223-0.037-11.463-1.379-15.382-2.844
	c0.172-6.297,1.072-11.82,2.155-16.372L82.498,94.27z"/>
<path fill="#559D78" d="M99.921,110.3c-4.02,1.685-9.218,3.193-15.36,3.458c-0.395-7.014-0.384-13.541-0.132-19.488
	c4.454,0.104,8.908,0.207,13.361,0.31C98.835,98.975,99.709,104.273,99.921,110.3z"/>
<path fill="#79ACCC" d="M79.792,46.377l0.36-1.628l1.525-1.17h6.424l1.271,1.226v1.536L79.792,46.377z"/>
<path fill="#F2EDE4" d="M104.758,100.596c1.254,2.237,0.383,5.076-1.919,6.204c-4.448,2.185-10.094,4.523-18.581,4.711
	c-8.516,0.188-15.374-1.983-19.793-3.905c-1.983-0.863-3.08-3.012-2.59-5.119c1.668-7.199,4.618-16.623,5.664-20.9
	c0.169-0.693,0.336-1.363,0.5-2.012c0.183-0.723,0.363-1.417,0.535-2.086c0.003-0.013,0.008-0.027,0.011-0.04
	c0.474-1.803,0.916-3.408,1.313-4.809c0.675-2.377,1.104-3.739,1.427-4.689c0.646-1.906,0.86-2.139,1.777-5.558
	c1.618-6.042,2.163-9.845,5.38-13.706c0.988-1.187,1.949-2.044,2.626-2.595c0.879-0.429,1.727-0.702,2.486-0.871
	c1.049-0.236,1.931-0.281,2.511-0.281c2.134,0,3.797,0.601,4.752,1.038c0.088,0.04,0.17,0.08,0.244,0.114
	c5.338,6.106,7.173,10.968,7.522,14.693c0.103,1.104,0.077,2.11-0.029,3.016c-0.127,1.106-0.382,2.147-0.648,3.35
	c-0.005,0.013-0.009,0.029-0.011,0.045c-0.029,0.135-0.061,0.275-0.09,0.418c-0.008,0.034-0.016,0.071-0.023,0.108
	c-0.334,1.57-0.66,3.445-0.764,6.069c-0.061,1.591-0.023,3.056,0.062,4.343c0.003,0.05,0.005,0.098,0.011,0.146c0,0,0,0,0,0.003
	c0.186,2.65,0.566,4.517,0.699,5.116C98.822,88.023,102.063,95.779,104.758,100.596z"/>
<path fill="#F2EDE4" d="M109.611,45.477c-0.152,2.518-0.827,4.364-0.986,4.79c-0.58,1.549-1.327,2.778-2.127,3.927
	c-0.288,0.418-0.585,0.824-0.879,1.231c-2.158,2.971-3.982,4.578-4.657,5.449c-1.354,1.743-2.37,3.482-3.014,6.284
	c-0.003,0.013-0.008,0.029-0.011,0.045c-0.031,0.135-0.061,0.275-0.09,0.418c-0.008,0.034-0.016,0.071-0.023,0.108
	c-0.5,2.471-0.739,5.741-0.693,10.438c0,0.04,0,0.08,0,0.119c0,0,0,0,0,0.003c-3.824-2.484-4.896-11.598-9.427-21.517
	c-1.957-4.287-2.875-8.28-3.315-11.452c0.606-0.106,1.552-0.222,2.695-0.111c0.94,0.09,1.604,0.292,1.88,0.366
	c0.151,0.042,0.9,0.27,1.896,0.41c1.319,0.183,3.066,0.212,4.423-0.545c2.134-1.197,3.32-3.492,3.415-5.751
	c0.032-0.734-0.05-1.464-0.254-2.15c-0.477-1.612-1.515-2.648-2.098-3.146c0.111-0.405,0.279-0.9,0.527-1.446
	c0.003-0.005,0.006-0.013,0.008-0.019c0.193-0.424,0.438-0.876,0.742-1.342c0.444-0.673,0.918-1.213,1.345-1.629
	c0.013-0.016,0.026-0.029,0.04-0.04c0.148-0.146,0.291-0.275,0.426-0.389c1.154,0.58,5.246,2.756,7.881,6.885
	c0.834,1.303,1.52,2.801,1.922,4.506c0.063,0.268,0.119,0.535,0.164,0.797C109.645,43.057,109.682,44.335,109.611,45.477z"/>
<path fill="#F2EDE4" d="M84.25,45.318c-0.439,3.172-1.358,7.165-3.315,11.452c-4.276,9.368-8.563,19.171-12.247,22.322
	c-0.217,0.186-0.432,0.347-0.644,0.487c0.193-0.726,0.371-1.419,0.535-2.087c0.003-0.013,0.008-0.026,0.011-0.04
	c2.878-11.653,1.522-14.51-0.614-16.573c-0.792-0.765-2.793-2.484-4.954-5.455c-1.112-1.528-2.216-3.045-3.005-5.155
	c-0.061-0.164-0.199-0.538-0.353-1.078c0-0.002,0-0.002,0-0.002c-0.466-1.631-1.085-4.774-0.259-8.27
	c0.439-1.854,1.213-3.463,2.145-4.846c2.637-3.908,6.538-5.981,7.658-6.545c0.135,0.114,0.278,0.244,0.426,0.392
	c0.013,0.01,0.026,0.023,0.04,0.04c0.426,0.416,0.9,0.956,1.345,1.628c0.307,0.466,0.548,0.919,0.744,1.342
	c0.002,0.005,0.005,0.011,0.008,0.019c0.249,0.546,0.416,1.041,0.527,1.446c-0.585,0.498-1.621,1.533-2.1,3.146
	c-0.164,0.551-0.249,1.128-0.26,1.713c-0.047,2.394,1.152,4.912,3.421,6.188c2.38,1.334,5.963,0.235,6.318,0.138
	c0.272-0.077,0.94-0.278,1.877-0.366c0.792-0.077,1.488-0.045,2.042,0.019C83.842,45.251,84.062,45.283,84.25,45.318z"/>
<path fill="#DEBB95" d="M89.592,45.932c-2.32,2.937-4.102,5.939-4.902,9.059c-0.914-3.837-2.677-6.649-4.898-8.897
	c0,0,1.287-1.525,1.861-2.479c0.061-0.101,0.114-0.193,0.156-0.278c0.169-0.336,0.251-0.94,0.289-1.565c0.063-1.033,0-2.119,0-2.119
	l6.726,0.225c0,0-0.058,0.805-0.161,2.034c-0.027,0.339-0.061,0.709-0.096,1.107c-0.023,0.257-0.019,0.498,0.006,0.726
	C88.715,45.127,89.592,45.932,89.592,45.932z"/>
<path fill="#987957" d="M88.566,43.017c-0.023,0.257-0.019,0.498,0.006,0.726c-0.514,0.302-1.809,0.969-3.575,0.911
	c-1.655-0.056-2.841-0.718-3.347-1.041c0.024-0.04,0.053-0.087,0.085-0.143c0.026-0.045,0.05-0.09,0.072-0.132
	c0.169-0.336,0.251-0.94,0.289-1.565c0.063-1.033,0-2.119,0-2.119l6.725,0.225c0,0-0.059,0.805-0.161,2.034
	C88.633,42.249,88.598,42.622,88.566,43.017z"/>
<path fill="#D9C9AC" d="M81.677,43.578c0,0-1.131,0.914-0.916,2.185c0.217,1.274,2.521,3.074,2.521,3.074l-1.033,3.988
	c0,0-4.491-3.988-2.097-8.079L81.677,43.578z"/>
<path fill="#D9C9AC" d="M83.281,48.84c0,0,2.356,6.029,1.443,13.666h-0.675c0,0,0.292-9.776-1.247-11.817L83.281,48.84z"/>
<path fill="#D9C9AC" d="M88.622,44.084c0,0,0.543,0.45,0.392,1.682c-0.156,1.281-2.521,3.074-2.521,3.074l1.033,3.987
	c0,0,4.257-3.987,2.224-7.893c-0.061-0.119-0.164-0.212-0.277-0.286L88.622,44.084z"/>
<path fill="#D9C9AC" d="M86.493,48.84c0,0-3.053,6.029-2.139,13.666h0.675c0,0,0.408-9.776,1.946-11.817L86.493,48.84z"/>
<path fill="#D9C9AC" d="M71.85,68.389c-0.741,4.006-1.83,7.382-3.164,10.7c-0.36,0.892-0.744,1.731-1.147,2.497
	c0.17-0.693,0.336-1.363,0.501-2.012c0.183-0.723,0.363-1.417,0.535-2.086c0.002-0.013,0.008-0.026,0.011-0.04
	c2.878-11.654,1.522-14.511-0.615-16.573c-0.792-0.765-2.793-2.484-4.954-5.455c-1.112-1.528-2.216-3.045-3.005-5.156
	c-0.061-0.164-0.198-0.538-0.352-1.078c0.071,0.164,4.451,5.735,9.588,9.342C72.144,60.564,72.788,63.324,71.85,68.389z"/>
<path fill="#D9C9AC" d="M106.498,54.194c-0.288,0.418-0.585,0.823-0.879,1.231c-2.158,2.971-3.982,4.578-4.658,5.45
	c-1.353,1.742-2.369,3.482-3.013,6.283c-0.003,0.013-0.009,0.029-0.011,0.045c-0.029,0.135-0.061,0.275-0.09,0.418
	c-0.008,0.035-0.016,0.072-0.023,0.109c-0.501,2.47-0.739,5.74-0.694,10.438c-0.003-0.008-0.005-0.016-0.008-0.027
	c-0.636-1.771-1.11-3.598-1.419-5.452c-0.488-2.934-0.533-6.061,0.728-8.757c0.551-1.176,1.312-2.203,2.198-3.14
	C100.927,58.348,104.064,56.513,106.498,54.194z"/>
<path fill="#987957" d="M88.823,39.879c0,0-0.058,0.805-0.161,2.033c-0.773,0.458-1.682,0.649-2.577,0.728
	c-1.012,0.088-2.052,0.04-3-0.325c-0.349-0.135-0.686-0.318-0.987-0.541c0.063-1.033,0-2.118,0-2.118L88.823,39.879z"/>
<path fill="#DEBB95" d="M92.787,27.712c-0.236-0.927-0.475-1.859-1.182-2.77c-1.953-2.518-5.785-2.669-8.158-2.179
	c-1.032,0.214-2.825,0.585-4.173,2.105c-1.451,1.639-1.515,3.635-1.589,5.981c-0.071,2.277,0.35,3.869,0.996,6.313
	c0.254,0.964,0.726,2.561,1.846,4.136c0.49,0.688,0.938,1.141,1.533,1.478c0.715,0.402,1.345,0.471,2.25,0.572
	c0.958,0.106,1.888,0.207,2.953-0.204c0.129-0.051,0.651-0.257,1.287-0.75c1.898-1.478,3.198-4.282,3.568-5.119
	C92.123,37.274,93.771,30.554,92.787,27.712z"/>
<path fill="#405050" d="M77.308,32.087c0.053,0.357,0.527,0.556,0.802,0.333c0.273-0.222,0.209-0.752-0.108-0.897
	c0.447-0.31,0.54-1.057,0.183-1.475c0.328-0.071,0.553-0.413,0.614-0.76s-0.005-0.702-0.056-1.049c-0.016-0.108-0.029-0.22,0-0.323
	c0.032-0.119,0.111-0.214,0.178-0.315c0.267-0.424,0.251-1.02-0.035-1.428c0.265,0.077,0.527-0.198,0.556-0.484
	c0.032-0.286-0.095-0.562-0.22-0.818c0.688,0.554,1.837,0.252,2.198-0.577c0.045,0.458,0.545,0.76,0.979,0.688
	c0.435-0.071,0.787-0.426,1.006-0.826c0.019,0.53,0.617,0.866,1.117,0.779s0.906-0.456,1.284-0.811
	c0.098,0.395,0.424,0.739,0.811,0.763c0.387,0.021,0.776-0.363,0.702-0.763c0.026,0.463,0.493,0.789,0.938,0.8
	c0.442,0.013,0.858-0.201,1.255-0.411c0.048,0.376,0.299,0.715,0.636,0.858c0.336,0.143,0.741,0.082,1.024-0.151
	c-0.13,0.254-0.09,0.593,0.096,0.805s0.503,0.283,0.757,0.169c-0.241,0.355-0.481,0.75-0.469,1.187
	c0.014,0.437,0.408,0.879,0.806,0.752c-0.23,0.386-0.447,0.815-0.424,1.268c0.023,0.456,0.387,0.919,0.818,0.869
	c-0.273,0.167-0.564,0.357-0.676,0.667c-0.111,0.31,0.093,0.747,0.408,0.71c-0.098,0.22-0.151,0.46-0.154,0.702
	c-0.002,0.106,0.008,0.214,0.059,0.307c0.063,0.114,0.18,0.183,0.299,0.228c0.459,0.169,1.015-0.008,1.309-0.416
	s0.302-1.014,0.021-1.43c0.407-0.188,0.82-0.471,0.958-0.916s-0.169-1.038-0.611-0.993c0.271-0.165,0.546-0.331,0.755-0.578
	c0.209-0.244,0.338-0.585,0.268-0.903c-0.072-0.318-0.395-0.58-0.697-0.495c0.098-0.162,0.199-0.331,0.215-0.521
	c0.016-0.191-0.082-0.408-0.26-0.45c0.36-0.186,0.557-0.66,0.442-1.062c-0.116-0.402-0.529-0.683-0.927-0.63
	c0.096-0.437,0.188-0.9,0.051-1.324c-0.139-0.424-0.71-0.693-1.102-0.516v0.013c0.148-0.421,0.037-0.927-0.273-1.237
	c-0.31-0.31-0.799-0.402-1.191-0.225c0.066-0.466-0.088-0.985-0.455-1.255c-0.368-0.27-0.951-0.207-1.194,0.188
	c-0.141-0.498-0.3-1.025-0.683-1.351c-0.385-0.326-1.07-0.307-1.277,0.165c-0.093-0.477-0.53-0.855-0.993-0.866
	c-0.466-0.008-0.914,0.353-1.024,0.826c-0.127-0.535-0.644-0.956-1.165-0.9c-0.524,0.056-0.958,0.63-0.848,1.168
	c-0.222-0.363-0.609-0.657-1.019-0.612c-0.411,0.045-0.755,0.551-0.554,0.93c-0.463-0.26-1.011-0.45-1.509-0.27
	c-0.498,0.18-0.832,0.868-0.519,1.311c-0.402-0.172-0.858-0.32-1.263-0.156c-0.405,0.164-0.641,0.786-0.32,1.091
	c-0.286-0.084-0.58-0.172-0.879-0.153s-0.604,0.169-0.742,0.447c-0.135,0.278-0.029,0.683,0.254,0.781
	c-0.432,0.053-0.895,0.167-1.17,0.516c-0.275,0.353-0.209,1.003,0.207,1.133c-0.495,0.029-1.02,0.271-1.221,0.744
	c-0.199,0.474,0.117,1.154,0.612,1.136l-0.045-0.008c-0.344-0.047-0.578,0.469-0.585,0.834c-0.008,0.366,0.323,0.697,0.67,0.67
	c-0.244,0.08-0.46,0.262-0.559,0.509c-0.098,0.246-0.058,0.556,0.122,0.744c0.18,0.188,0.5,0.22,0.694,0.045
	c-0.283,0.225-0.498,0.548-0.598,0.905c-0.035,0.122-0.056,0.252-0.029,0.376c0.053,0.23,0.275,0.39,0.5,0.408
	c0.225,0.018,0.447-0.077,0.633-0.212c-0.214,0.296-0.225,0.72-0.08,1.062c0.146,0.342,0.421,0.604,0.731,0.784"/>
<path fill="#DEBB95" d="M78.205,33.454c-0.293-0.604-0.609-1.059-0.85-1.366c-0.53-0.675-0.824-0.811-1.033-0.869
	c-0.109-0.029-0.511-0.138-0.776,0.074c-0.236,0.19-0.244,0.54-0.241,0.776c0.019,1.353,0.424,2.616,0.554,3.008
	c0.376,1.144,0.566,1.509,0.906,1.827c0.471,0.445,0.884,0.477,0.977,0.479c0.114,0.005,0.35,0.014,0.572-0.129
	c0.442-0.284,0.426-0.893,0.424-0.943C78.56,35.36,78.383,34.407,78.205,33.454z"/>
<path fill="#DEBB95" d="M92.123,37.274c0.104,0.098,0.288,0.241,0.539,0.27c0.088,0.01,0.445,0.04,0.959-0.418
	c1.142-1.014,1.213-2.778,1.242-3.482c0.014-0.326,0.014-0.872-0.32-1.316c-0.09-0.12-0.262-0.347-0.541-0.381
	c-0.225-0.029-0.404,0.082-0.529,0.159c-0.477,0.302-0.646,0.829-0.701,1.046C92.773,33.151,91.803,36.535,92.123,37.274z"/>
<path fill="#DEBB95" d="M68.906,30.409c0,0,2.854-1.713,3.27-1.999c0,0,0.22-0.148,0.514-0.625c0,0,0.606-1.692,0.72-2.113
	s0.223-1.117,0.458-1.358c0.233-0.241,1.578-1.186,1.812-1.303c0.233-0.116,2.386-0.919,2.574-0.893
	c0.188,0.029,0.127,0.329,0.127,0.329s0.257-0.05,0.344,0.042c0.084,0.093-0.148,0.46-0.148,0.46s0.23,0.466-0.087,0.688
	c0,0,0.159,0.347-0.127,0.583c-0.286,0.236-0.953,0.585-0.953,0.585s-0.535,0.625-0.787,0.821c0,0,0.005,0.511-0.119,1.035
	c-0.125,0.527-0.259,1.713-0.405,2.447c-0.146,0.733-0.487,1.017-1.106,1.433c-0.62,0.416-1.822,1.499-2.468,2.312
	c-1.838,2.304-2.047,1.761-3.368,0.418C67.662,31.759,68.906,30.409,68.906,30.409z"/>
<path fill="#D5AF86" d="M78.487,23.638c-1.75,0.845-1.554,0.728-2.873,2.103c0.183-0.482,0.633-1.009,1.08-1.34
	C77.256,24.114,77.931,23.796,78.487,23.638z"/>
<path fill="#D5AF86" d="M78.572,22.952c-0.752,0.376-1.718,0.709-2.417,1.157c-0.389,0.333-0.802,0.747-1.199,1.075
	c0.246-0.469,0.726-0.985,1.202-1.311C76.93,23.547,77.817,23.171,78.572,22.952z"/>
<path fill="#D5AF86" d="M78.378,22.448c-0.75,0.334-1.708,0.731-2.436,1.081c-0.545,0.41-1.049,0.884-1.623,1.26
	c0.352-0.495,0.938-1.003,1.472-1.379C76.623,23.063,77.565,22.682,78.378,22.448z"/>
<path fill="#DEBB95" d="M100.323,30.723c0,0-2.368-1.919-2.738-2.264c0,0-0.196-0.18-0.416-0.694c0,0-0.35-1.761-0.399-2.195
	c-0.051-0.434-0.057-1.139-0.252-1.411c-0.195-0.273-1.387-1.406-1.6-1.554c-0.211-0.148-2.224-1.261-2.414-1.261
	c-0.188,0-0.176,0.307-0.176,0.307s-0.248-0.087-0.346-0.008c-0.099,0.08,0.079,0.477,0.079,0.477s-0.297,0.427-0.017,0.694
	c0,0-0.209,0.32,0.04,0.596s0.858,0.718,0.858,0.718s0.437,0.696,0.656,0.929c0,0-0.079,0.503-0.034,1.043
	c0.045,0.538,0.005,1.732,0.04,2.481c0.033,0.747,0.333,1.078,0.884,1.581c0.551,0.5,1.928,2.605,2.523,3.455
	c0.596,0.85,1.345,1.237,2.849,0.101C101.559,32.437,100.323,30.723,100.323,30.723z"/>
<path fill="#D5AF86" d="M92.049,22.813c1.607,1.093,1.43,0.948,2.531,2.502c-0.111-0.503-0.477-1.091-0.871-1.485
	C93.195,23.465,92.573,23.052,92.049,22.813z"/>
<path fill="#D5AF86" d="M92.063,22.12c0.688,0.482,1.594,0.954,2.221,1.501c0.337,0.387,0.687,0.855,1.031,1.242
	c-0.176-0.5-0.572-1.08-0.996-1.472C93.598,22.951,92.779,22.448,92.063,22.12z"/>
<path fill="#D5AF86" d="M92.33,21.651c0.691,0.439,1.58,0.974,2.25,1.427c0.479,0.485,0.908,1.03,1.42,1.486
	c-0.275-0.543-0.779-1.131-1.253-1.581C93.977,22.52,93.098,22,92.33,21.651z"/>
<path fill="#F2EDE4" d="M72.292,34.388c-0.585,0.498-1.621,1.533-2.1,3.146c-0.164,0.551-0.249,1.128-0.259,1.713
	c-2.921,0.272-6.715-0.895-8.389-3.178c2.637-3.908,6.538-5.981,7.658-6.545c0.135,0.114,0.278,0.244,0.426,0.392
	c0.013,0.011,0.026,0.024,0.04,0.04c0.427,0.416,0.9,0.956,1.345,1.628c0.307,0.466,0.548,0.918,0.744,1.342
	c0.003,0.005,0.005,0.011,0.008,0.019C72.014,33.487,72.181,33.982,72.292,34.388z"/>
<path fill="#F2EDE4" d="M107.314,36.408c-1.817,2.261-5.586,3.45-8.617,3.275c0.032-0.733-0.051-1.464-0.254-2.15
	c-0.477-1.613-1.515-2.648-2.098-3.146c0.111-0.405,0.278-0.9,0.527-1.446c0.003-0.005,0.006-0.013,0.008-0.019
	c0.193-0.424,0.438-0.876,0.742-1.343c0.444-0.672,0.918-1.212,1.345-1.628c0.013-0.016,0.026-0.029,0.04-0.04
	c0.148-0.146,0.291-0.275,0.426-0.389C100.588,30.103,104.68,32.28,107.314,36.408z"/>
<path fill="#652B28" d="M82.216,39.952c0.357-0.251,1.414-0.927,2.907-0.903c1.25,0.021,2.155,0.519,2.537,0.762
	c-0.614-0.18-1.48-0.363-2.523-0.36C83.887,39.454,82.878,39.721,82.216,39.952z"/>
<path fill="#987957" d="M84.296,40.725c0.117-0.082,0.458-0.302,0.945-0.294c0.405,0.005,0.699,0.169,0.824,0.249
	c-0.254-0.016-0.532-0.026-0.829-0.019C84.897,40.664,84.583,40.69,84.296,40.725z"/>
<path fill="#FFFFFF" d="M80.035,32.074c0,0,0.169,1.88,2.068,1.959c1.898,0.077,1.891-1.718,1.891-1.718
	S80.357,32.021,80.035,32.074z"/>
<path fill="#3F2E20" d="M83.236,32.169c0.003,0.008,0.002,0.019,0.002,0.027c0.085,0.617-0.341,1.191-0.958,1.29
	c-0.058,0.01-0.116,0.013-0.175,0.016c-0.01,0-0.018,0-0.029,0c-0.005,0-0.008,0-0.013,0c-0.016,0-0.032-0.002-0.048-0.002
	c-0.011,0-0.024,0-0.034-0.003c-0.506-0.053-0.932-0.437-1.014-0.963c-0.024-0.151-0.016-0.299,0.016-0.44
	c0.008-0.034,0.019-0.071,0.032-0.106c0.027-0.077,0.059-0.148,0.098-0.217c0.906-0.199,1.655,0.021,2.073,0.204
	c0.019,0.053,0.032,0.106,0.042,0.162C83.233,32.143,83.233,32.156,83.236,32.169z"/>
<path fill="#987957" d="M83.996,32.312c-0.132,0.019-0.267,0.032-0.397,0.045c-1.165,0.105-2.243-0.021-2.902-0.138
	c-0.413-0.074-0.659-0.143-0.662-0.148c0.283-0.122,0.577-0.262,0.842-0.318c1.165-0.254,2.129,0.026,2.667,0.26
	c0.254,0.108,0.395,0.262,0.439,0.291C83.991,32.31,83.996,32.312,83.996,32.312z"/>
<path fill="#987957" d="M80.363,34.149c0.524-0.19,1.091-0.217,1.642-0.225c0.546,0.019,1.136,0.021,1.629,0.297
	c-0.535-0.114-1.086-0.069-1.629-0.085C81.518,34.139,80.842,34.123,80.363,34.149z"/>
<path fill="#FFFFFF" d="M91.082,32.074c0,0-0.17,1.88-2.068,1.959c-1.898,0.077-1.89-1.718-1.89-1.718S90.759,32.021,91.082,32.074z
	"/>
<path fill="#3F2E20" d="M87.862,32.177c-0.002,0.008-0.002,0.019-0.002,0.026c-0.085,0.625,0.344,1.208,0.972,1.306
	c0.061,0.01,0.119,0.013,0.178,0.016c0.01,0,0.018,0,0.028,0c0.005,0,0.008,0,0.013,0c0.017,0,0.032-0.002,0.049-0.002
	c0.01,0,0.023,0,0.033-0.003c0.514-0.053,0.945-0.442,1.031-0.977c0.023-0.153,0.018-0.302-0.017-0.445
	c-0.008-0.037-0.019-0.071-0.032-0.108c-0.025-0.077-0.058-0.151-0.1-0.22c-0.919-0.201-1.679,0.021-2.103,0.207
	c-0.018,0.053-0.034,0.106-0.045,0.161C87.868,32.151,87.865,32.164,87.862,32.177z"/>
<path fill="#987957" d="M87.121,32.312c0.132,0.019,0.267,0.032,0.397,0.045c1.166,0.105,2.243-0.021,2.902-0.138
	c0.414-0.074,0.66-0.143,0.662-0.148c-0.283-0.122-0.577-0.262-0.842-0.318c-1.165-0.254-2.129,0.026-2.667,0.26
	c-0.254,0.108-0.395,0.262-0.439,0.291C87.126,32.31,87.121,32.312,87.121,32.312z"/>
<path fill="#987957" d="M90.754,34.149c-0.477-0.026-1.157-0.011-1.642-0.013c-0.543,0.016-1.096-0.029-1.628,0.085
	c0.49-0.275,1.081-0.278,1.628-0.297C89.666,33.933,90.229,33.959,90.754,34.149z"/>
<path fill="#405050" d="M84.533,37.999c-1.075,0.477-2.322,0.524-3.408,0.127c0.556,0.087,1.117,0.071,1.647-0.048
	c0.529-0.117,1.025-0.339,1.457-0.636c0.146-0.101,0.344-0.063,0.442,0.083C84.785,37.689,84.716,37.925,84.533,37.999z"/>
<path fill="#405050" d="M85.68,37.442c0.887,0.617,2.021,0.86,3.104,0.683c-1.088,0.397-2.333,0.35-3.408-0.127
	C84.954,37.802,85.288,37.196,85.68,37.442z"/>
<path fill="#542525" d="M84.462,30.249l-0.469-1.08c0,0-2.568,1.618-5.179,1.318C78.812,30.487,81.118,31.936,84.462,30.249z"/>
<path fill="#542525" d="M86.417,30l0.495-1.07c0,0,2.529,1.679,5.145,1.446C92.059,30.376,89.719,31.766,86.417,30z"/>
<path fill="#987957" d="M85.437,31.541c0.426,0.76,0.659,1.7,0.977,2.51c0.339,0.832,0.521,1.946-0.214,2.632
	c-0.485,0.399-1.292,0.416-1.737-0.037c0.286,0.103,0.559,0.185,0.848,0.172c0.977,0.026,1.334-1.035,1.16-1.854
	C86.202,33.826,85.62,32.717,85.437,31.541z"/>
<path fill="#405050" d="M77.112,25.949c-0.138-0.148-0.241-0.326-0.305-0.516c-0.056-0.167-0.074-0.36,0.021-0.506
	c0.167-0.254,0.548-0.212,0.842-0.138c0.122-0.154,0.016-0.376,0.013-0.575c-0.002-0.196,0.109-0.378,0.254-0.508
	c0.148-0.13,0.331-0.209,0.511-0.283c0.4-0.165,0.808-0.305,1.226-0.418c0.029,0.111-0.032,0.23-0.119,0.307
	s-0.196,0.122-0.294,0.183c-0.35,0.212-0.566,0.588-0.72,0.969c-0.151,0.381-0.254,0.784-0.453,1.141
	c-0.101,0.18-0.228,0.352-0.411,0.448c-0.183,0.095-0.426,0.098-0.577-0.042"/>
<path fill="#405050" d="M93.441,25.062c0.138-0.148,0.241-0.326,0.305-0.516c0.055-0.167,0.074-0.36-0.021-0.506
	c-0.166-0.254-0.548-0.212-0.842-0.138c-0.122-0.153-0.016-0.376-0.014-0.575c0.003-0.196-0.108-0.378-0.254-0.508
	c-0.148-0.129-0.331-0.209-0.511-0.283c-0.399-0.164-0.808-0.305-1.226-0.418c-0.029,0.111,0.031,0.23,0.119,0.307
	c0.087,0.077,0.195,0.122,0.293,0.183c0.35,0.212,0.566,0.588,0.721,0.969c0.15,0.381,0.254,0.784,0.453,1.142
	c0.1,0.18,0.227,0.352,0.41,0.447c0.183,0.095,0.426,0.098,0.577-0.042"/>
<path fill="#FDFFFC" d="M124.953,8.053c0.425,3.529-2.076,7.634-6.428,9.779c-2.373,1.171-5.17,1.148-7.484-0.132
	c-3.201-1.773-5.305-4.892-5.495-8.282c-0.179-3.18,1.325-6.628,4.095-8.289C115.036-2.104,124.229,2.041,124.953,8.053z"/>
<path fill="#FDFFFC" d="M109.939,19.542c0.096,0.791-0.244,1.666-0.914,2.376c-1.485,1.576-4.072,1.387-5.174-0.479
	c-0.259-0.439-0.416-0.93-0.442-1.437c-0.062-1.07,0.446-2.231,1.378-2.79C106.602,16.123,109.695,17.517,109.939,19.542z"/>
<path fill="#FDFFFC" d="M104.598,24.471c0.039,0.338-0.063,0.704-0.285,1.035c-0.789,1.172-2.572,1.12-3.158-0.167
	c-0.088-0.194-0.141-0.402-0.151-0.616c-0.032-0.589,0.244-1.229,0.759-1.535C102.76,22.59,104.463,23.357,104.598,24.471z"/>
<path fill="#AEB4FC" d="M112.6,8.44c0.359,1.112,0.793,2.198,1.299,3.25c0.252,0.527,0.524,1.047,0.814,1.555
	c0.235,0.413,0.494,0.816,0.814,1.168c0.584,0.638,1.437,1.051,2.289,0.7c0.797-0.329,1.324-1.165,1.5-1.983
	c0.205-0.94,0.014-1.964-0.441-2.804c-0.471-0.866-1.238-1.528-2.156-1.884c-0.917-0.355-2-0.406-2.919-0.027
	c-0.991,0.409-1.479,1.336-1.835,2.292c-0.38,1.02-0.605,2.182-0.279,3.248c0.256,0.832,0.861,1.59,1.686,1.911
	c0.204,0.08,0.419,0.124,0.638,0.143c0.099,0.008,0.108-0.12,0.046-0.167c-0.513-0.39-1.025-0.78-1.537-1.169
	c0,0.052,0,0.104,0,0.156c1.166-0.501,2.317-1.194,3.047-2.262c0.621-0.909,0.822-2.094,0.431-3.137
	c-0.206-0.547-0.572-1.015-1.082-1.306c-0.039-0.022-0.104-0.013-0.124,0.031c-0.747,1.664-0.217,3.723,1.111,4.937
	c0.373,0.341,0.804,0.605,1.277,0.782c0.016-0.058,0.032-0.115,0.049-0.174c-0.924-0.327-1.849-0.652-2.771-0.979
	c-0.803-0.284-1.637-0.528-2.412-0.887c-0.622-0.288-1.261-0.716-1.441-1.418c-0.205-0.796,0.256-1.606,0.861-2.094
	c0.655-0.529,1.496-0.801,2.292-1.04c0.89-0.266,1.81-0.454,2.739-0.481c1.554-0.046,3.15,0.4,4.283,1.503
	c0.265,0.256,0.498,0.544,0.687,0.861c0.188,0.315,0.509,0.836,0.188,1.162c-0.26,0.265-0.719,0.317-1.06,0.402
	c-0.456,0.114-0.915,0.223-1.376,0.315c-1.666,0.333-3.453,0.421-4.998-0.401c-0.629-0.336-1.191-0.81-1.57-1.418
	c-0.223-0.362-0.412-0.785-0.402-1.217c0.009-0.377,0.193-0.713,0.459-0.971c0.949-0.922,2.615-0.988,3.763-0.435
	c0.56,0.27,1.04,0.714,1.25,1.309c0.241,0.678,0.101,1.411-0.256,2.022c-0.866,1.487-2.596,1.896-4.198,1.977
	c-0.425,0.021-0.848,0.024-1.271,0.026c-0.032,0-0.062,0.018-0.078,0.045c-0.298,0.525,0.206,1.055,0.61,1.342
	c0.578,0.409,1.209,0.743,1.867,1.004c0.648,0.256,1.328,0.442,2.02,0.536c0.64,0.088,1.367,0.086,1.923-0.291
	c0.501-0.341,0.838-0.973,0.642-1.578c-0.015-0.046-0.062-0.077-0.11-0.063c-0.448,0.131-0.828,0.393-1.194,0.675
	c-0.389,0.3-0.773,0.596-1.204,0.835c-0.856,0.477-1.831,0.77-2.817,0.742c-1.711-0.049-3.479-1.298-3.625-3.102
	c-0.039-0.484,0.045-0.995,0.312-1.407c0.267-0.415,0.71-0.661,1.183-0.771c0.932-0.216,1.912,0.069,2.713,0.549
	c0.412,0.246,0.791,0.545,1.136,0.878c0.317,0.306,0.582,0.679,0.937,0.943c0.389,0.292,0.816,0.291,1.269,0.156
	c0.511-0.153,1.015-0.341,1.51-0.539c0.987-0.393,1.965-0.85,2.875-1.4c0.351-0.213,0.679-0.487,0.78-0.903
	c0.1-0.406-0.027-0.825-0.211-1.188c-0.203-0.408-0.491-0.769-0.781-1.119c-0.278-0.334-0.579-0.658-0.946-0.896
	c-0.379-0.246-0.813-0.363-1.264-0.33c-0.522,0.039-1.013,0.234-1.511,0.384c-0.414,0.124-0.855,0.205-1.287,0.126
	c-0.227-0.04-1.09-0.384-0.582-0.638c0.167-0.083,0.357-0.085,0.537-0.073c0.246,0.016,0.49,0.05,0.729,0.102
	c0.436,0.092,0.857,0.238,1.258,0.434c1.648,0.805,2.788,2.397,2.883,4.245c0.049,0.93-0.16,1.876-0.633,2.683
	c-0.443,0.75-1.113,1.347-1.894,1.728c-0.769,0.377-1.649,0.544-2.501,0.435c-0.398-0.052-1-0.14-1.012-0.649
	c-0.008-0.382,0.278-0.746,0.633-0.86c0.525-0.17,1.094,0.032,1.591,0.208c0.11,0.039,0.151-0.129,0.048-0.174
	c-1.199-0.5-2.451-0.857-3.668-1.308c-1.191-0.442-2.382-0.985-3.32-1.86c-1.072-1-1.631-2.352-1.974-3.75
	c-0.274-1.119-0.813-3.011,0.455-3.737c0.549-0.314,1.231-0.238,1.813-0.066c0.676,0.199,1.291,0.559,1.883,0.93
	c0.662,0.417,1.308,0.877,1.893,1.397c0.292,0.259,0.543,0.56,0.586,0.963c0.043,0.392-0.082,0.791-0.259,1.136
	c-0.534,1.042-1.606,1.732-2.745,1.934c-0.57,0.101-1.169,0.076-1.725-0.094c-0.135-0.042-0.27-0.091-0.399-0.149
	c-0.151-0.069-0.299-0.157-0.466-0.18c-0.28-0.038-0.512,0.158-0.674,0.366c-0.332,0.425-0.37,1.007-0.231,1.512
	c0.159,0.572,0.54,1.021,1.039,1.335c0.558,0.352,1.213,0.521,1.856,0.641c0.791,0.147,1.594,0.25,2.396,0.314
	c0.801,0.063,1.633,0.117,2.434,0.039c0.67-0.065,1.219-0.357,1.496-0.992c0.487-1.121,0.19-2.51-0.527-3.462
	c-0.393-0.52-0.893-0.877-1.473-1.159c-0.619-0.3-1.482-0.699-1.494-1.508c-0.01-0.729,0.832-1.05,1.391-1.274
	c0.654-0.264,1.328-0.488,2.023-0.606c0.692-0.117,1.42-0.118,2.088,0.117c0.672,0.236,1.215,0.713,1.596,1.306
	c0.365,0.567,0.607,1.226,0.727,1.888c0.116,0.648,0.11,1.381-0.25,1.956c-0.742,1.192-2.412,0.884-3.478,0.376
	c-0.672-0.323-1.304-0.734-1.866-1.224c-0.273-0.237-0.54-0.492-0.773-0.771c-0.241-0.288-0.463-0.655-0.353-1.045
	c0.095-0.333,0.377-0.582,0.655-0.771c0.301-0.204,0.631-0.374,0.965-0.518c0.705-0.304,1.5-0.479,2.268-0.363
	c1.258,0.19,2.453,1.201,2.278,2.569c-0.073,0.575-0.382,1.11-0.897,1.391c-0.102,0.055-0.012,0.21,0.092,0.155
	c1.066-0.58,1.277-2.075,0.633-3.042c-0.793-1.194-2.357-1.483-3.669-1.142c-1.063,0.276-3.237,1.221-2.291,2.641
	c0.409,0.613,1.038,1.125,1.633,1.548c0.585,0.416,1.229,0.782,1.917,1.001c0.6,0.191,1.27,0.284,1.889,0.122
	c0.59-0.154,1.071-0.566,1.307-1.133c0.254-0.615,0.222-1.318,0.084-1.957c-0.146-0.674-0.408-1.344-0.805-1.908
	c-0.396-0.563-0.935-1.005-1.584-1.241c-0.66-0.239-1.377-0.25-2.065-0.15c-0.756,0.109-1.489,0.353-2.196,0.639
	c-0.541,0.219-1.216,0.479-1.435,1.076c-0.242,0.657,0.252,1.296,0.778,1.635c0.334,0.213,0.703,0.358,1.051,0.545
	c0.308,0.166,0.588,0.373,0.83,0.624c0.478,0.492,0.803,1.125,0.939,1.795c0.135,0.666,0.1,1.458-0.268,2.048
	c-0.467,0.75-1.438,0.69-2.211,0.683c-0.889-0.009-1.775-0.077-2.655-0.193c-1.332-0.177-3.282-0.38-3.838-1.845
	c-0.218-0.572-0.193-1.331,0.335-1.731c0.326-0.25,0.712,0.073,1.041,0.186c0.275,0.094,0.561,0.153,0.851,0.179
	c1.175,0.109,2.4-0.323,3.247-1.144c0.452-0.438,0.828-1.017,0.945-1.642c0.063-0.341,0.041-0.695-0.118-1.009
	c-0.165-0.321-0.453-0.559-0.726-0.785c-0.621-0.515-1.28-0.983-1.974-1.398c-0.604-0.363-1.235-0.697-1.93-0.851
	c-0.581-0.128-1.237-0.133-1.751,0.206c-0.533,0.35-0.764,0.952-0.796,1.568c-0.038,0.7,0.127,1.407,0.284,2.084
	c0.17,0.739,0.387,1.472,0.707,2.16c0.594,1.275,1.572,2.245,2.789,2.929c1.187,0.666,2.496,1.073,3.776,1.506
	c0.63,0.213,1.257,0.432,1.872,0.687c0.016-0.058,0.032-0.115,0.048-0.174c-0.495-0.174-1.034-0.353-1.563-0.239
	c-0.37,0.08-0.668,0.33-0.812,0.681c-0.125,0.306-0.106,0.676,0.154,0.904c0.317,0.281,0.866,0.317,1.272,0.337
	c1.793,0.087,3.58-0.942,4.385-2.549c0.848-1.696,0.638-3.829-0.518-5.331c-0.558-0.725-1.305-1.298-2.142-1.667
	c-0.42-0.186-0.862-0.322-1.315-0.4c-0.377-0.065-0.836-0.153-1.191,0.03c-0.129,0.066-0.242,0.179-0.256,0.33
	c-0.018,0.171,0.152,0.296,0.277,0.389c0.325,0.238,0.75,0.299,1.145,0.279c1.045-0.056,2.066-0.835,3.115-0.422
	c0.469,0.184,0.838,0.554,1.162,0.929c0.33,0.382,0.653,0.784,0.877,1.239c0.234,0.479,0.324,1.058-0.074,1.48
	c-0.174,0.186-0.398,0.314-0.617,0.439c-0.252,0.144-0.506,0.281-0.764,0.415c-1.043,0.539-2.129,0.994-3.246,1.354
	c-0.289,0.094-0.6,0.195-0.902,0.112c-0.253-0.069-0.457-0.245-0.637-0.428c-0.351-0.358-0.674-0.735-1.063-1.057
	c-0.735-0.604-1.61-1.067-2.567-1.162c-0.92-0.092-1.963,0.187-2.418,1.06c-0.414,0.795-0.303,1.78,0.101,2.554
	c0.403,0.774,1.099,1.391,1.896,1.741c1.877,0.824,3.975,0.061,5.498-1.127c0.407-0.318,0.817-0.646,1.321-0.792
	c-0.037-0.021-0.073-0.042-0.11-0.063c0.166,0.517-0.113,1.059-0.539,1.361c-0.494,0.352-1.148,0.366-1.729,0.298
	c-1.192-0.142-2.366-0.572-3.394-1.19c-0.414-0.248-1.424-0.818-1.073-1.437c-0.026,0.015-0.052,0.03-0.077,0.045
	c1.725-0.009,3.712-0.039,5.027-1.331c0.529-0.521,0.922-1.211,0.99-1.959c0.062-0.687-0.197-1.367-0.687-1.849
	c-0.97-0.952-2.614-1.132-3.841-0.635c-0.648,0.262-1.299,0.759-1.403,1.495c-0.11,0.788,0.411,1.607,0.94,2.146
	c1.199,1.217,2.976,1.585,4.625,1.467c1.039-0.073,2.058-0.311,3.065-0.563c0.358-0.089,0.8-0.154,1.071-0.432
	c0.283-0.289,0.188-0.675,0.035-1.006c-0.656-1.433-2.125-2.366-3.631-2.686c-1.879-0.397-3.924,0.038-5.672,0.761
	c-0.771,0.319-1.522,0.791-1.904,1.563c-0.34,0.69-0.309,1.485,0.189,2.087c0.475,0.572,1.211,0.868,1.893,1.113
	c0.998,0.36,2,0.707,3,1.061c0.496,0.176,0.992,0.35,1.488,0.526c0.108,0.039,0.154-0.134,0.047-0.174
	c-1.619-0.602-2.647-2.343-2.602-4.04c0.014-0.487,0.12-0.969,0.32-1.414c-0.042,0.01-0.082,0.021-0.124,0.032
	c0.911,0.519,1.271,1.605,1.178,2.608c-0.108,1.171-0.878,2.134-1.801,2.807c-0.548,0.399-1.151,0.713-1.772,0.979
	c-0.068,0.03-0.046,0.12,0,0.156c0.514,0.39,1.026,0.78,1.538,1.169c0.017-0.056,0.031-0.112,0.046-0.167
	c-0.873-0.072-1.584-0.7-1.965-1.461c-0.464-0.926-0.385-2.018-0.109-2.987c0.258-0.914,0.656-2.001,1.478-2.554
	c0.788-0.532,1.847-0.595,2.747-0.37c1.859,0.46,3.156,2.205,3.05,4.121c-0.046,0.835-0.426,1.718-1.137,2.196
	c-0.755,0.507-1.627,0.281-2.251-0.317c-0.348-0.334-0.623-0.739-0.867-1.153c-0.297-0.506-0.57-1.027-0.828-1.554
	c-0.529-1.084-0.98-2.208-1.352-3.355C112.738,8.284,112.566,8.331,112.6,8.44z"/>
</svg>
