<!--Generator: Adobe Illustrator 16.0.0, SVG Export Plug-In . SVG Version: 6.00 Build 0)-->
<svg xmlns="http://www.w3.org/2000/svg" xmlns:xlink="http://www.w3.org/1999/xlink" xml:space="preserve" viewBox="0 0 176 159">
  <defs>
    <filter id="a" filterUnits="userSpaceOnUse" x="-23.7" y="-37.4" width="190.7" height="141.4">
      <feColorMatrix values="1 0 0 0 0 0 1 0 0 0 0 0 1 0 0 0 0 0 1 0"/>
    </filter>
  </defs>
  <mask maskUnits="userSpaceOnUse" x="-23.7" y="-37.4" width="190.7" height="141.4" id="b">
    <path fill="#FA6E5A" filter="url(#a)" d="M0 0h176v114H0z"/>
  </mask>
  <g mask="url(#b)">
    <path fill="#808AFF" d="M12.8 35.4c-25.5 4.4-32-10.5-36.5-19.1v-53.7h88v98H48.8c-8.4-10.6-10.5-29.5-36-25.2zm103 0c25.5 4.4 32-10.5 36.5-19.1v-53.7h-88v98h15.5c8.3-10.6 10.5-29.5 36-25.2z"/>
    <defs>
      <path id="c" d="M150 44h14v17h-14z"/>
    </defs>
    <clipPath id="d">
      <use xlink:href="#c" overflow="visible"/>
    </clipPath>
    <g clip-path="url(#d)" fill="#9BA3FF">
      <path d="M153.4 44H150v17h3.4V44zm5.3 5.7h-3.4V61h3.4V49.7zm5.3 5.4h-3.4V61h3.4v-5.9z"/>
    </g>
    <defs>
      <path id="e" d="M135 78h32v26h-32z"/>
    </defs>
    <clipPath id="f">
      <use xlink:href="#e" overflow="visible"/>
    </clipPath>
    <g clip-path="url(#f)">
      <path fill="#3F4553" d="m155 104 11.1-3.8-5.6-16.4-11.1 3.8c-.4.1-.7.6-.5 1l5 14.8c.2.5.7.7 1 .6z"/>
      <path fill="#DDDDE3" d="m155 103.6 11.4-3.8L161 84l-11.4 3.8c-.3.1-.4.4-.3.7l5 14.8c.1.3.4.4.7.3z"/>
      <path fill="#E2E5FF" d="m155.2 103.6 11.5-3.9-5.4-15.8-11.4 3.9c-.3 0-.5.4-.4.6l5 14.8c.2.3.5.4.7.4z"/>
      <path fill="#4E5567" d="m155.9 103.7 11.1-3.8-5.6-16.4-11.1 3.8c-.5.1-.7.6-.6 1l5.1 14.8c.1.5.6.7 1 .6z"/>
      <path fill="#3F4553" d="m160.8 83.7-.3.1 5.6 16.4h.3l-5.6-16.5z"/>
      <path fill="#93BFA8" d="m162.4 96.6.2-.6.6.3-4.1-12c-.1-.2-.3-.2-.5-.1s-.4.2-.3.4l4 12z"/>
      <path fill="#3F4553" d="m137.3 88 7.5-8.7-1.5-1.3-7.5 8.8 1.5 1.3z"/>
      <path fill="#F2EDE4" d="m135.8 86.8 1.5 1.3-2.2 1.2-.1-.1.8-2.4z"/>
      <path fill="#3F4553" d="m135.2 89.3.5-.3-.5-.5-.2.7s0 .1.2 0z"/>
      <path fill="#4E5567" d="m136.8 87.7 7.5-8.9-.5-.4-7.5 8.8.5.5z"/>
    </g>
    <defs>
      <path id="g" d="M37 3h35v35H37z"/>
    </defs>
    <clipPath id="h">
      <use xlink:href="#g" overflow="visible"/>
    </clipPath>
    <g clip-path="url(#h)">
      <path fill="#808AFF" d="M54.5 3a17.5 17.5 0 1 0 0 35 17.5 17.5 0 0 0 0-35zm0 32a14.5 14.5 0 1 1 0-29 14.5 14.5 0 0 1 0 29z"/>
      <path fill="#AEB4FC" d="M68 26.1A14.5 14.5 0 1 0 41 15a14.5 14.5 0 0 0 27 11z"/>
      <path fill="#808AFF" d="M54.5 7.3c-1 0-1 1.5 0 1.5s1-1.5 0-1.5zm13.2 13.2c0-1-1.6-1-1.6 0s1.6 1 1.6 0zM54.5 33.7c1 0 1-1.5 0-1.5s-1 1.5 0 1.5zM41.3 20.5c0 1 1.6 1 1.6 0s-1.6-1-1.6 0zm19.5 4.3-.3-.1-6.3-3.7a.5.5 0 0 1-.2-.5v-10a.5.5 0 0 1 1 0v9.7l6 3.6c.3.1.4.4.2.7 0 .2-.3.3-.4.3z"/>
    </g>
    <path fill="#9BA3FF" d="m19.6 56.4-.3-2-2 .4a6 6 0 0 0-1.6-2.4l1.2-1.7-1.6-1.1-1.2 1.6c-.9-.4-1.8-.6-2.8-.6l-.4-2-2 .3.4 2c-1 .3-1.8.8-2.5 1.5l-1.6-1.2L4 53l1.7 1a5 5 0 0 0-.7 2.7l-2 .4.3 2 2-.4c.4 1 1 1.7 1.6 2.4l-1.2 1.7L7.4 64l1.2-1.6c.8.4 1.8.6 2.7.6l.4 2 2-.3-.3-2c.9-.4 1.7-.9 2.4-1.6l1.7 1.2 1.1-1.6-1.6-1.2c.4-.8.6-1.8.6-2.7l2-.4zm-8 2.2c-1 .2-2-.5-2.2-1.5s.6-2 1.6-2.2c1-.1 2 .5 2.2 1.6s-.5 2-1.6 2.1z"/>
    <path fill="#AEB4FC" d="M38.7 52.4V50h-2.5a7.6 7.6 0 0 0-1.4-3.2l1.8-1.8-1.6-2-2 2a8 8 0 0 0-3.3-1.4V41h-2.5v2.5c-1.3.2-2.4.7-3.3 1.3l-1.8-1.7-1.8 1.7 1.8 1.8c-.7 1-1.2 2-1.4 3.2h-2.6v2.5h2.6c.2 1.2.6 2.3 1.3 3.3l-1.8 1.8 1.8 1.7 1.8-1.7c1 .6 2 1.1 3.3 1.3v2.6h2.5v-2.6c1.2-.2 2.3-.6 3.3-1.3l1.8 1.8 1.8-1.8-1.8-1.7c.7-1 1.2-2 1.4-3.3h2.5zm-10.2 1c-1.3 0-2.4-1-2.4-2.3 0-1.3 1-2.3 2.4-2.3 1.3 0 2.3 1 2.3 2.3 0 1.3-1 2.3-2.3 2.3z"/>
    <g opacity=".3">
      <path fill="#ECECEC" d="m157 33.9-18.7-4.2a.3.3 0 0 1-.3-.4l2.4-10.5c0-.2.2-.3.4-.3l18.7 4.2c.2 0 .3.3.3.4l-2.4 10.5c0 .2-.2.3-.4.3z"/>
      <path fill="#F5F4F5" d="m138.3 29.4 2.3-10.6h.1l18.7 4.2h.1l-2.3 10.6h-.2l-18.7-4.2z"/>
      <path fill="#706F6E" d="m156.9 22.1-13.5-3v.3l13.4 3V22z"/>
      <path fill="#585857" d="m142.1 20.6-.6-.1-.1-.2V20l.2-.1.7.1v.5l-.2.1z"/>
      <path fill="#5E5E5D" d="M141.5 20.4v-.5h.1l.6.1v.5l-.7-.1z"/>
      <path fill="#585857" d="m143.2 20.9-.6-.2s-.1 0 0-.1V20s.1-.1.2 0h.6l.1.2v.5h-.3z"/>
      <path fill="#5E5E5D" d="m142.6 20.6.1-.4h.7v.1l-.1.4h-.7z"/>
      <path fill="#585857" d="m144.4 21.1-.6-.1-.2-.2.1-.4.2-.1.6.1.2.2-.1.4c0 .1-.1.2-.2.1z"/>
      <path fill="#5E5E5D" d="M143.8 20.9v-.5l.7.1v.5l-.7-.1z"/>
      <path fill="#585857" d="m145.5 21.4-.6-.2-.1-.1v-.5h1s.1.2 0 .2v.5s-.1.1-.2 0z"/>
      <path fill="#5E5E5D" d="M145 21.1v-.4h.6v.6l-.7-.2z"/>
      <path fill="#585857" d="M146.7 21.6h-.7v-.7l.2-.1.6.1.1.2v.4c0 .1-.2.2-.3.1z"/>
      <path fill="#5E5E5D" d="m146 21.4.1-.5.7.2v.4h-.1l-.6-.1z"/>
      <path fill="#585857" d="m147.8 21.9-.6-.1c-.1 0-.2-.1-.1-.2v-.4l.2-.2.6.2c.1 0 .2 0 .2.2l-.1.4-.2.1z"/>
      <path fill="#5E5E5D" d="M147.2 21.6v-.4h.1l.6.1v.5l-.7-.2z"/>
      <path fill="#585857" d="m149 22.2-.7-.2-.1-.2v-.4l.3-.1.6.1.1.2-.1.4-.2.2z"/>
      <path fill="#5E5E5D" d="m148.3 21.9.1-.5.7.2-.1.4-.7-.1z"/>
      <path fill="#585857" d="m150 22.4-.6-.1v-.6c0-.1.1-.2.2-.1h.6c.1.1.2.2.1.3v.4l-.2.1z"/>
      <path fill="#5E5E5D" d="M149.5 22.2v-.5l.7.1v.5h-.1l-.6-.1z"/>
      <path fill="#585857" d="m151.2 22.7-.6-.2-.1-.1v-.5s.2-.1.2 0h.7v.7h-.2z"/>
      <path fill="#5E5E5D" d="M150.6 22.4v-.5h.1l.6.2v.4h-.7z"/>
      <path fill="#585857" d="m152.3 23-.6-.2s-.1-.1 0-.2v-.4c0-.1.1-.2.2-.1l.6.1.1.2v.4l-.3.1z"/>
      <path fill="#5E5E5D" d="m151.7 22.7.1-.5.7.1-.1.5-.7-.1z"/>
      <path fill="#585857" d="m153.5 23.2-.6-.2-.2-.1.1-.5s.1-.1.2 0h.6l.1.2v.5s-.1.1-.2 0z"/>
      <path fill="#5E5E5D" d="M152.9 23v-.5h.7v.5h-.7z"/>
      <path fill="#585857" d="m154.6 23.4-.6-.1-.1-.2v-.4l.3-.1.6.1s.1.1 0 .2v.4c0 .1-.1.2-.2.1z"/>
      <path fill="#5E5E5D" d="m154 23.2.1-.5.6.1v.5l-.7-.1z"/>
      <path fill="#585857" d="m155.8 23.7-.7-.1s-.1-.1 0-.2v-.5h.8l.1.2v.5c-.1 0-.2.1-.2 0z"/>
      <path fill="#5E5E5D" d="M155.2 23.4V23l.7.1-.1.5-.6-.2z"/>
      <path fill="#585857" d="m156.9 24-.6-.2c-.1 0-.2 0-.1-.2v-.4l.2-.1.6.1.2.2-.1.4c0 .1-.1.2-.2.1z"/>
      <path fill="#5E5E5D" d="M156.3 23.7v-.5h.1l.6.2v.4l-.7-.1z"/>
      <path fill="#585857" d="m158 24.2-.6-.1-.1-.2v-.4l.3-.2.6.2s.1 0 0 .2v.4l-.2.1z"/>
      <path fill="#5E5E5D" d="m157.4 24 .1-.5.7.1-.1.5-.7-.2z"/>
      <path fill="#585857" d="m141.5 20.6.7.2.2.2-.2.8s-.1.1-.2 0h-.8l-.1-.3.2-.7c0-.1 0-.2.2-.2z"/>
      <path fill="#5E5E5D" d="m141.3 21.6.1-.8.8.1-.1.8-.8-.1z"/>
      <path fill="#585857" d="m142.8 21 .7.1.2.2-.2.8s-.1.1-.2 0h-.8v-1l.3-.2z"/>
      <path fill="#5E5E5D" d="m142.6 21.9.1-.8.8.1-.1.8-.8-.1z"/>
      <path fill="#585857" d="m144 21.2.9.2s.1.1 0 .2v.7l-.3.2-.8-.2v-.2l.1-.8h.2z"/>
      <path fill="#5E5E5D" d="m143.9 22.2.1-.8.8.1-.1.8-.8-.1z"/>
      <path fill="#585857" d="m145.4 21.5.8.2.1.2-.2.7c0 .1 0 .2-.2.2l-.7-.2-.2-.2.2-.8s.1-.1.2 0z"/>
      <path fill="#5E5E5D" d="m145.2 22.5.1-.8.8.1-.1.8-.8-.1z"/>
      <path fill="#585857" d="m146.7 21.8.8.2.1.2-.2.7c0 .1 0 .2-.2.2l-.7-.2-.2-.2.2-.8s.1-.1.2 0z"/>
      <path fill="#5E5E5D" d="m146.5 22.8.1-.8.9.1-.2.8-.8-.1z"/>
      <path fill="#585857" d="m148 22.1.8.2.1.2-.2.7c0 .1 0 .2-.2.2l-.7-.2c-.1 0-.2-.1-.1-.2l.1-.8s.1-.1.2 0z"/>
      <path fill="#5E5E5D" d="m147.8 23 .2-.7.8.1-.2.8-.8-.1z"/>
      <path fill="#585857" d="m149.3 22.4.8.2.1.2-.1.7-.2.2-.8-.2s-.2-.1-.1-.2l.1-.8s.2-.1.2 0z"/>
      <path fill="#5E5E5D" d="m149.1 23.4.2-.8.8.1-.2.8-.8-.1z"/>
      <path fill="#585857" d="m150.7 22.7.7.2c.1 0 .2 0 .1.2l-.1.7c0 .1-.1.2-.2.1l-.8-.1-.1-.2.2-.8.2-.1z"/>
      <path fill="#5E5E5D" d="m150.4 23.6.2-.8.8.2-.2.8-.8-.2z"/>
      <path fill="#585857" d="m152 23 .7.2c.1 0 .2 0 .2.2l-.2.7c0 .1-.1.2-.2.1l-.8-.1-.1-.2.2-.8.2-.1z"/>
      <path fill="#5E5E5D" d="M151.7 24v-.1l.2-.8.8.2-.1.8-.9-.2z"/>
      <path fill="#585857" d="m153.3 23.3.7.2c.1 0 .2 0 .2.2l-.2.7c0 .1-.1.2-.2.1l-.8-.1s-.1-.1 0-.2v-.8l.3-.1z"/>
      <path fill="#5E5E5D" d="m153 24.2.2-.8.8.2-.1.8-.8-.2z"/>
      <path fill="#585857" d="m154.6 23.6.8.2v.2l-.1.7s-.1.2-.2.1l-.8-.1s-.1-.1 0-.2v-.8l.3-.1z"/>
      <path fill="#5E5E5D" d="m154.4 24.5.1-.8.8.2-.1.8-.8-.2z"/>
      <path fill="#585857" d="m155.9 23.9.8.2s.1 0 0 .2v.7l-.3.1-.7-.1-.2-.2.2-.8.2-.1z"/>
      <path fill="#5E5E5D" d="m155.7 24.8.1-.8.8.2-.1.8-.8-.2z"/>
      <path fill="#585857" d="m157.2 24.2.8.1.1.2-.2.8-.2.1-.7-.2-.2-.1.2-.8.2-.1z"/>
      <path fill="#5E5E5D" d="m157 25.1.1-.8.8.2-.1.8-.8-.2z"/>
      <path fill="#585857" d="m141.2 21.9.8.1s.1.1 0 .2v.8l-.3.1-.7-.2c-.1 0-.2 0-.2-.2l.2-.7c0-.1.1-.2.2-.1z"/>
      <path fill="#5E5E5D" d="m141 22.8.1-.8.8.1-.1.8h-.8z"/>
      <path fill="#585857" d="m142.5 22.2.8.1.1.2-.2.8-.2.1-.7-.2c-.1 0-.2 0-.2-.2l.2-.7c0-.1.1-.2.2-.1z"/>
      <path fill="#5E5E5D" d="m142.3 23.1.1-.8.8.1v.8h-.1l-.8-.1z"/>
      <path fill="#585857" d="m143.8 22.4.8.2.1.2-.2.8s0 .1-.2 0h-.7c-.1-.1-.2-.2-.1-.3l.1-.7.2-.2z"/>
      <path fill="#5E5E5D" d="m143.6 23.4.1-.8.9.1-.2.8-.8-.1z"/>
      <path fill="#585857" d="m145.1 22.7.8.2.1.2-.1.8s-.2.1-.2 0h-.8c-.1-.1-.2-.2-.1-.3l.1-.7.2-.2z"/>
      <path fill="#5E5E5D" d="M145 23.7h-.1l.2-.8.8.1-.2.8-.8-.1z"/>
      <path fill="#585857" d="m146.4 23 .8.2c.1 0 .2.1.1.2l-.1.8s-.1.1-.2 0h-.8l-.1-.3.1-.7.2-.2z"/>
      <path fill="#5E5E5D" d="m146.2 24 .2-.8.8.1-.2.8-.8-.1z"/>
      <path fill="#585857" d="m147.8 23.3.7.2c.1 0 .2.1.1.2l-.1.8s-.1.1-.2 0l-.8-.1-.1-.2.2-.7c0-.1 0-.2.2-.2z"/>
      <path fill="#5E5E5D" d="m147.5 24.3.2-.8.8.1-.1.8-.9-.1z"/>
      <path fill="#585857" d="m149 23.6.8.2.2.2-.2.8h-.2l-.8-.1-.1-.2.2-.7c0-.1 0-.2.2-.2z"/>
      <path fill="#5E5E5D" d="m148.8 24.6.2-.8.8.1-.1.8-.8-.1z"/>
      <path fill="#585857" d="M150.4 24h.7l.2.3-.2.7-.2.2-.8-.2s-.1-.1 0-.2V24h.3z"/>
      <path fill="#5E5E5D" d="m150.2 24.9.1-.8.8.1-.1.8-.8-.1z"/>
      <path fill="#585857" d="m151.7 24.2.8.2s.1 0 0 .2l-.1.7-.2.2-.8-.2s-.1-.1 0-.2v-.8h.3z"/>
      <path fill="#5E5E5D" d="m151.5 25.2.1-.8.8.1-.1.8-.8-.1z"/>
      <path fill="#585857" d="m153 24.5.8.2s.1 0 0 .2v.7l-.3.2-.7-.2-.2-.2.2-.8s.1-.1.2 0z"/>
      <path fill="#5E5E5D" d="m152.8 25.5.1-.8.8.1-.1.8-.8-.1z"/>
      <path fill="#585857" d="m154.3 24.8.8.2.1.2-.2.7c0 .1 0 .2-.2.2l-.7-.2-.2-.2.2-.8.2-.1z"/>
      <path fill="#5E5E5D" d="m154 25.8.2-.8.8.1v.8h-.1l-.8-.1z"/>
      <path fill="#585857" d="m155.6 25.1.8.2.1.2-.2.7c0 .1 0 .2-.2.1l-.7-.1c-.1 0-.2-.1-.1-.2l.1-.8.2-.1z"/>
      <path fill="#5E5E5D" d="m155.4 26 .1-.7h.9v.1l-.2.8-.8-.1z"/>
      <path fill="#585857" d="m157 25.4.7.2.1.2-.1.7-.2.1-.8-.1c-.1 0-.2-.1-.1-.2l.1-.8.2-.1z"/>
      <path fill="#5E5E5D" d="m156.7 26.3.2-.8.8.2-.2.8-.8-.2z"/>
      <path fill="#585857" d="m141 23 .7.3.1.1-.2.8-.2.1-.7-.1-.1-.2.1-.8.2-.1z"/>
      <path fill="#5E5E5D" d="m140.7 24 .1-.8.9.2-.2.8-.8-.2z"/>
      <path fill="#585857" d="m142.2 23.4.8.1.1.2-.1.8-.2.1-.8-.2c-.1 0-.2 0-.1-.2l.1-.7.2-.1z"/>
      <path fill="#5E5E5D" d="m142 24.3.2-.8.8.2-.2.8-.8-.2z"/>
      <path fill="#585857" d="m143.5 23.7.8.1c.1 0 .2.1.1.2l-.1.8-.2.1-.8-.2-.1-.2.1-.7.2-.1z"/>
      <path fill="#5E5E5D" d="m143.3 24.6.2-.8.8.2-.2.8-.8-.2z"/>
      <path fill="#585857" d="m144.9 24 .7.1c.1 0 .2.1.1.2l-.1.8-.2.1-.8-.2-.1-.2.2-.7c0-.1 0-.2.2-.1z"/>
      <path fill="#5E5E5D" d="M144.6 25v-.1l.2-.8.8.2-.1.8-.9-.2z"/>
      <path fill="#585857" d="m146.2 24.3.7.1.2.2-.2.8-.2.1-.8-.2-.1-.2.2-.7c0-.1 0-.2.2-.1z"/>
      <path fill="#5E5E5D" d="M146 25.2v-.8h.1l.8.1v.1l-.1.8-.8-.2z"/>
      <path fill="#585857" d="m147.5 24.6.7.1.2.2-.2.8-.2.1-.8-.2s-.1 0 0-.2v-.7c.1-.1.2-.2.3-.1z"/>
      <path fill="#5E5E5D" d="m147.3 25.5.1-.8.8.1-.1.8-.8-.1z"/>
      <path fill="#585857" d="m148.8 24.8.8.2s.1.1 0 .2v.8h-1.1v-1l.3-.2z"/>
      <path fill="#5E5E5D" d="m148.6 25.8.1-.8.8.1-.1.8-.8-.1z"/>
      <path fill="#585857" d="m150.1 25.1.8.2s.1.1 0 .2v.8h-1l-.2-.3.2-.7.2-.2z"/>
      <path fill="#5E5E5D" d="m149.9 26 .1-.7.8.1-.1.8-.8-.1z"/>
      <path fill="#585857" d="m151.4 25.4.8.2.1.2-.2.8s0 .1-.2 0h-.7l-.2-.3.2-.7.2-.2z"/>
      <path fill="#5E5E5D" d="m151.2 26.4.1-.8.9.1-.2.8-.8-.1z"/>
      <path fill="#585857" d="m152.7 25.7.8.2.1.2-.2.8s0 .1-.2 0h-.7c-.1-.1-.2-.2-.1-.3l.1-.7.2-.2z"/>
      <path fill="#5E5E5D" d="m152.5 26.7.1-.8h.1l.8.1-.2.8-.8-.1z"/>
      <path fill="#585857" d="m154 26 .8.2.1.2-.1.7-.2.2-.8-.2c-.1 0-.2-.1-.1-.2l.1-.8s.1-.1.2 0z"/>
      <path fill="#5E5E5D" d="m153.8 27 .2-.8.8.1-.2.8-.8-.1z"/>
      <path fill="#585857" d="m155.3 26.3.8.2c.1 0 .2.1.1.2l-.1.7-.2.2-.8-.2-.1-.2.1-.8s.2-.1.2 0z"/>
      <path fill="#5E5E5D" d="m155.1 27.3.2-.8.8.1-.2.8-.8-.1z"/>
      <path fill="#585857" d="m156.7 26.6.7.2c.1 0 .2 0 .1.2l-.1.7-.2.2-.8-.2-.1-.2.2-.8s0-.1.2 0z"/>
      <path fill="#5E5E5D" d="m156.4 27.6.2-.8.8.1-.1.8-.9-.1z"/>
      <path fill="#585857" d="m140.6 24.3.8.2c.1 0 .2 0 .1.2l-.1.7c0 .1-.1.2-.2.1l-.8-.1-.1-.2.2-.8.1-.1z"/>
      <path fill="#5E5E5D" d="m140.4 25.2.2-.8.8.2-.2.8-.8-.2z"/>
      <path fill="#585857" d="m142 24.6.7.2c.1 0 .2 0 .2.2l-.2.7c0 .1-.1.2-.2.1l-.8-.1-.1-.2.2-.8.2-.1z"/>
      <path fill="#5E5E5D" d="m141.7 25.5.2-.8.8.2-.1.8-.9-.2z"/>
      <path fill="#585857" d="m143.3 24.9.7.2c.1 0 .2 0 .2.2l-.2.7c0 .1-.1.2-.2.1l-.8-.1-.1-.2.2-.8.2-.1z"/>
      <path fill="#5E5E5D" d="m143 25.8.2-.8.8.2-.1.8-.8-.2z"/>
      <path fill="#585857" d="m144.6 25.2.7.2c.1 0 .2 0 .2.2l-.2.7-.2.1-.8-.1s-.1-.2 0-.2v-.8l.3-.1z"/>
      <path fill="#5E5E5D" d="m144.4 26.1.1-.8.8.2-.1.8-.8-.2z"/>
      <path fill="#585857" d="m150.6 26.5-4.7-1-.2.1-.2.8v.1l4.8 1.1.2-.1.2-.8-.1-.2z"/>
      <path fill="#5E5E5D" d="m145.6 26.4.2-.8 4.8 1v.1l-.2.8-4.8-1z"/>
      <path fill="#585857" d="m151.1 26.7.8.1.1.2-.1.8-.2.1-.8-.2-.1-.2.1-.7c0-.1.1-.2.2-.1z"/>
      <path fill="#5E5E5D" d="M151 27.6h-.1l.2-.8.8.1-.2.8h-.8z"/>
      <path fill="#585857" d="m152.4 27 .8.1c.1 0 .2.1.1.2l-.1.8-.2.1-.8-.2-.1-.2.2-.7c0-.1 0-.2.1-.1z"/>
      <path fill="#5E5E5D" d="m152.2 27.9.2-.8.8.1-.2.8-.8-.1z"/>
      <path fill="#585857" d="m153.8 27.2.7.2.2.2-.2.8s-.1.1-.2 0h-.8l-.1-.3.2-.7c0-.1 0-.2.2-.2z"/>
      <path fill="#5E5E5D" d="m153.5 28.2.2-.8.8.1-.1.8-.9-.1z"/>
      <path fill="#585857" d="m155 27.5.8.2.2.2-.2.8s-.1.1-.2 0h-.8l-.1-.3.2-.7c0-.1 0-.2.2-.2z"/>
      <path fill="#5E5E5D" d="m154.9 28.5.1-.8.8.1-.1.8-.8-.1z"/>
      <path fill="#585857" d="m156.4 27.8.7.2.2.2-.2.8s-.1.1-.2 0h-.8v-1l.3-.2z"/>
      <path fill="#5E5E5D" d="m156.2 28.8.1-.8.8.1-.1.8-.8-.1z"/>
      <path fill="#EDEDED" d="m150.4 28.7-3.9-.9c-.2 0-.3 0-.4.2l-.4 2.1c0 .2 0 .3.2.4l3.9.8c.1 0 .3 0 .3-.2l.5-2c0-.2 0-.4-.2-.4z"/>
      <path fill="#9D9B9B" d="m150.4 28.5-3.9-.8c-.2 0-.4 0-.5.3l-.5 2c0 .3.1.5.4.6l3.8.9c.3 0 .5-.1.6-.4l.4-2c0-.3 0-.5-.3-.6zm-.3 2.6c0 .2-.2.3-.3.2l-3.9-.8a.3.3 0 0 1-.2-.4l.4-2c0-.2.2-.3.4-.3l3.9.9.2.3-.5 2.1z"/>
      <path fill="#DFDFDE" d="m145.9 29-.2 1.1c0 .2 0 .3.2.4l3.9.8c.1 0 .3 0 .3-.2l.3-1-4.5-1z"/>
      <path fill="#D9D9DA" d="M148.1 29.6 146 29l-.2 1c0 .2 0 .3.2.4l2 .4.2-1.3z"/>
      <path fill="#E3E1E1" d="m159.6 22.8-19-4.3a.2.2 0 0 1 0-.2l1.9-10.9c0-.3.3-.5.6-.4l19.2 4.3c.3.1.5.4.4.7l-2.8 10.6-.3.2z"/>
      <path fill="#C7C7C6" d="m141.3 17.5 1.9-9.2c0-.2.3-.4.5-.4l17.7 4c.2 0 .4.3.3.6l-2.3 9c0 .3-.3.4-.5.3L141.7 18a.5.5 0 0 1-.4-.5z"/>
      <path fill="#C6E6F2" d="m141.5 17.5 1.8-9.2c0-.2.2-.3.4-.3l17.6 4c.2 0 .4.3.3.5l-2.3 9c0 .2-.2.2-.4.2l-17.2-3.9a.3.3 0 0 1-.2-.3z"/>
      <path opacity=".2" fill="#B6E0ED" enable-background="new" d="M141.7 16.6 143 15a10 10 0 0 1 4.8-2.2c2-.4 4.2-1.3 6.2-1.1 2.8.2 4.7.6 7.3 1.6l.3-.8c0-.2 0-.4-.3-.5l-17.6-4c-.2 0-.4.1-.4.3l-1.8 8.8.2-.5z"/>
      <path fill="#585857" d="m156.9 22.1-13.5-3V19l13.6 3-.1.2z"/>
      <path fill="#3C3C3B" d="M152.5 9.5h.2a.2.2 0 0 1-.1.2l-.1-.2z"/>
      <path fill="#585857" d="m152.5 9.6.1-.1.1.1s0 .1-.1 0c0 0-.1 0 0 0z"/>
      <path fill="#B6E0ED" d="M152.6 9.6z"/>
    </g>
    <path fill="#FDFFFC" d="M32.8 84.6A7 7 0 1 0 19.1 88a7 7 0 0 0 5.2 5.2c.2.4.4 2.7.9 3.4.2.4.5.4.9.3.3 1.2 1.7 2.3 2.8 2.2a2 2 0 0 0 1.7-1.4l.5-1.9c.5 0 .8 0 .7-.6 0-.9-1-3.3-1-3.7a7 7 0 0 0 2-6.8z"/>
    <path fill="#AEB4FC" d="M29.2 84.4a.7.7 0 0 0-1-.6c-.3.1-.6.5-.5 1 .1.2.3.4.5.4-.2 1-.4 2-.4 3l-.4 2.8a85.9 85.9 0 0 0-3.4-5c.3-.3 0-1-.5-.9-.7.2-.4 1.2.2 1 1.3 1.9 2.6 3.7 3.6 5.6.1.3.4.2.5 0 .3-1 .4-2 .5-3 0-1.2.3-2.3.4-3.5.3 0 .6-.5.5-.8z"/>
    <path fill="#808AFF" d="m20.7 78.2-4.3-2.1c-.3-.2-.6.3-.3.4l4.2 2.3c.4.2.8-.4.4-.6zm2.6-5.4c0-.3-.4 0-.4.1.2 1.5.7 3 1.2 4.4 0 .4.6.3.5 0-.3-1.6-.6-3.1-1.3-4.5zm6.7-.5c-.4.4-.6.9-.9 1.3l-.6 1.4c-.2.4.5.6.6.2l.6-1.4.6-1.2c.1-.2-.2-.4-.3-.3z"/>
  </g>
  <path fill="#7382EF" d="M84.5 159c19 0 34.5-2.7 34.5-6s-15.4-6-34.5-6c-19 0-34.5 2.7-34.5 6s15.4 6 34.5 6z"/>
  <path fill="#DEBB95" d="M73.8 141.1c.4 1.3 0 2.8-.7 4l-2.8 3c-1 1-1.9 2-2.4 3.2-.2.4-.3 1 0 1.3.3.4.7.4 1.2.4 2 0 4-.9 5.9-2 1-.6 1.9-.8 2.4-1.9.4-1 .5-2.7.4-3.8v-3c0-.3 0-.6-.2-.8l-.6-.2-3.3-.4m19.4.2c-.4 1.3 0 2.8.7 4s1.8 2 2.8 3c1 1 1.9 2 2.4 3.2.2.4.3 1 0 1.3-.3.4-.8.4-1.2.4-2 0-4.1-.9-5.9-2-1-.6-2-.8-2.4-1.9-.4-1-.5-2.7-.4-3.8v-3c0-.3 0-.6.2-.8l.6-.2 3.3-.4"/>
  <path fill="#987957" d="M73.5 144.2c.4-1 .6-2 .3-3.1l-.1-.2a1264.1 1264.1 0 0 1 3.9.6c.2.2.2.5.2.8v2a19 19 0 0 1-4.3 0zm19.9 0a18.5 18.5 0 0 1-4.3 0v-2c0-.2 0-.5.2-.7l.6-.2 3.3-.4v.2c-.4 1-.2 2.2.2 3.1z"/>
  <path fill="#559D78" d="M82.7 104.2a173 173 0 0 1-.1 4.5v.8a197.7 197.7 0 0 1-.4 7.1l-.2 1.9v1a175.6 175.6 0 0 1-1 8.5v.9a875.4 875.4 0 0 1-1.2 7.6l-.9 4.6-.1.8-.2 1-.1.5h-5.6a82.9 82.9 0 0 1-6-31.4v-1c.3-6.3 1.1-11.8 2.2-16.4l11.7-.3h1.7a224.7 224.7 0 0 1 .2 9.9zM98 130.9c-1.2 5-2.6 9.1-4 12.5h-5.5l-.2-.6a198.4 198.4 0 0 1-3.9-48.5h1.7l11.3.3h.4a80 80 0 0 1 .2 36.3z"/>
  <path fill="#66A986" d="M98 130.9c-1.4 4.4-3 8.2-4.2 11.3a1 1 0 0 1-1 .6h-4.4a198.4 198.4 0 0 1-4-48.5h1.7l11.3.3h.4a80 80 0 0 1 .2 36.3zm-15.3-26.7a173 173 0 0 1-.1 4.5v.8a197.1 197.1 0 0 1-.6 9v1a175.6 175.6 0 0 1-1 8.5v.9a875.4 875.4 0 0 1-1.2 7.6l-.9 4.6-.1.8-.2 1H74a1 1 0 0 1-1-.7L69.2 132a80 80 0 0 1-2.2-20v-1a82 82 0 0 1 2.1-16.4l11.7-.3h1.7a184.4 184.4 0 0 1 .2 9.9z"/>
  <path fill="#559D78" d="M82.5 94.3c.3 6 .3 12.5-.1 19.5A45 45 0 0 1 67 111a81 81 0 0 1 2.1-16.4l13.4-.3zm17.5 16a46 46 0 0 1-15.4 3.5c-.4-7-.4-13.6-.2-19.5 4.5 0 9 .2 13.4.3 1 4.4 2 9.7 2.1 15.7z"/>
  <path fill="#79ACCC" d="m79.8 46.4.4-1.7 1.5-1.1H88l1.3 1.2v1.5h-9.6z"/>
  <path fill="#F2EDE4" d="M104.8 100.6c1.2 2.2.3 5-2 6.2a41 41 0 0 1-18.5 4.7 47 47 0 0 1-19.8-3.9c-2-.9-3.1-3-2.6-5.1 1.6-7.2 4.6-16.6 5.6-21l.5-2 .6-2a261.1 261.1 0 0 1 2.7-9.5c.7-2 .9-2.2 1.8-5.6 1.6-6 2.2-9.9 5.4-13.7 1-1.2 2-2 2.6-2.6A11.2 11.2 0 0 1 91 46h.2c5.3 6.2 7.2 11 7.5 14.8v3c-.1 1.1-.4 2.1-.7 3.4v.5a34.2 34.2 0 0 0-.8 10.4v.2c.2 2.6.6 4.5.7 5.1 1 4.6 4.3 12.4 7 17.2z"/>
  <path fill="#F2EDE4" d="M109.6 45.5a16.9 16.9 0 0 1-3.1 8.7l-.9 1.2c-2.1 3-4 4.6-4.6 5.5a14.9 14.9 0 0 0-3 6.3 16.7 16.7 0 0 0-.2.5 56 56 0 0 0-.7 10.5c-3.8-2.4-4.9-11.5-9.4-21.4-2-4.3-2.9-8.3-3.3-11.5a10 10 0 0 1 2.7 0c1 0 1.6.2 1.9.3l1.9.4c1.3.2 3 .2 4.4-.6a7 7 0 0 0 3.1-7.9 6.7 6.7 0 0 0-2-3.1 9.8 9.8 0 0 1 3-4.9 21 21 0 0 1 8 7 14.5 14.5 0 0 1 2.2 9zm-25.3-.2c-.5 3.2-1.4 7.2-3.4 11.5C76.7 66 72.4 75.9 68.7 79l-.7.5.6-2.1c2.9-11.7 1.5-14.6-.6-16.6-.8-.8-2.8-2.5-5-5.5-1-1.5-2.2-3-3-5.1l-.3-1.1c-.5-1.6-1.1-4.8-.3-8.3.4-1.8 1.2-3.4 2.1-4.8 2.7-4 6.6-6 7.7-6.6a6.9 6.9 0 0 1 .5.5 10 10 0 0 1 2 3l.6 1.4c-.6.5-1.6 1.5-2.1 3.1l-.3 1.8a7 7 0 0 0 3.5 6.1c2.3 1.4 6 .3 6.3.2l1.9-.4a9.7 9.7 0 0 1 2.7.1z"/>
  <path fill="#DEBB95" d="M89.6 46a25 25 0 0 0-5 9c-.8-3.8-2.6-6.7-4.8-9 0 0 1.3-1.4 1.9-2.4l.1-.3c.2-.3.3-.9.3-1.5v-2.1l6.7.2-.1 2-.1 1.1v.7c.1 1.4 1 2.2 1 2.2z"/>
  <path fill="#987957" d="M88.6 43v.7a6.7 6.7 0 0 1-7 0l.1-.2.1-.2c.2-.3.3-.9.3-1.5v-2.1l6.7.2-.1 2-.1 1.1z"/>
  <path fill="#D9C9AC" d="M81.7 43.6s-1.2.9-1 2.2c.3 1.2 2.6 3 2.6 3l-1 4s-4.5-4-2.1-8l1.5-1.2z"/>
  <path fill="#D9C9AC" d="M83.3 48.8s2.3 6 1.4 13.7H84s.3-9.8-1.2-11.8l.5-1.9zm5.3-4.8s.6.5.4 1.8c-.1 1.2-2.5 3-2.5 3l1 4s4.3-4 2.2-7.9l-.2-.3-.9-.5z"/>
  <path fill="#D9C9AC" d="M86.5 48.8s-3 6-2.1 13.7h.6s.4-9.8 2-11.8l-.5-1.9zM71.8 68.4a54.4 54.4 0 0 1-4.3 13.2l.5-2 .6-2.1c2.9-11.7 1.5-14.6-.6-16.6-.8-.8-2.8-2.5-5-5.5-1.1-1.5-2.2-3-3-5.1l-.3-1.1a49 49 0 0 0 9.5 9.3c3 2 3.6 4.8 2.6 9.9zm34.7-14.2-.9 1.2c-2.1 3-4 4.6-4.6 5.5a14.9 14.9 0 0 0-3 6.3l-.2.4v.1a56 56 0 0 0-.7 10.5c-.6-1.8-1-3.7-1.4-5.5-.5-3-.5-6 .7-8.8a12 12 0 0 1 2.2-3.1c2.3-2.5 5.5-4.3 7.9-6.6z"/>
  <path fill="#987957" d="m88.8 39.9-.1 2a6 6 0 0 1-2.6.7c-1 .1-2 0-3-.3l-1-.5v-2.1l6.7.2z"/>
  <path fill="#DEBB95" d="M92.8 27.7a7 7 0 0 0-1.2-2.8c-2-2.5-5.8-2.6-8.2-2.1-1 .2-2.8.5-4.1 2-1.5 1.7-1.5 3.7-1.6 6 0 2.3.3 4 1 6.4.2 1 .7 2.5 1.8 4.1.5.7 1 1.1 1.6 1.5.7.4 1.3.4 2.2.5 1 .2 1.9.3 3-.2 0 0 .6-.2 1.3-.7 1.8-1.5 3.1-4.3 3.5-5.1 0 0 1.7-6.7.7-9.6z"/>
  <path fill="#405050" d="M77.3 32c0 .4.5.6.8.4.3-.2.2-.7-.1-.9.4-.3.5-1 .2-1.5.3 0 .5-.4.6-.7v-1.4l.1-.3c.3-.4.3-1 0-1.4.3 0 .5-.2.5-.5s0-.6-.2-.8c.7.5 1.9.2 2.2-.6 0 .5.6.8 1 .7.4 0 .8-.4 1-.8 0 .5.6.8 1.1.7s1-.4 1.3-.8c.1.4.4.8.8.8s.8-.4.7-.8c0 .5.5.8 1 .8.4 0 .8-.2 1.2-.4 0 .4.3.7.6.9.4.1.8 0 1-.2 0 .3 0 .6.2.8s.5.3.7.2c-.2.3-.5.7-.4 1.2 0 .4.4.9.8.7-.3.4-.5.8-.5 1.3s.4 1 .9.9c-.3.1-.6.3-.7.6-.1.3 0 .8.4.7l-.2.7v.4l.4.2c.5.2 1 0 1.3-.4s.3-1 0-1.5c.4-.1.8-.4 1-.9s-.2-1-.6-1l.7-.5c.2-.3.4-.6.3-1 0-.3-.4-.5-.7-.4l.2-.6c0-.2 0-.4-.2-.4.3-.2.5-.7.4-1a.9.9 0 0 0-1-.7c.2-.4.3-1 .1-1.3-.1-.5-.7-.7-1-.5 0-.5 0-1-.4-1.3a1 1 0 0 0-1.1-.2c0-.5-.1-1-.5-1.3-.4-.2-1-.2-1.2.2a2 2 0 0 0-.7-1.3c-.4-.3-1-.3-1.3.1a1 1 0 0 0-1-.8 1 1 0 0 0-1 .8c-.1-.5-.6-1-1.1-.9a1 1 0 0 0-.9 1.2c-.2-.4-.6-.7-1-.6-.4 0-.8.5-.6.9-.4-.3-1-.5-1.5-.3s-.8.9-.5 1.3c-.4-.1-.8-.3-1.3-.1-.4.1-.6.8-.3 1H78c-.3 0-.6 0-.7.4-.1.2 0 .6.3.7-.5.1-1 .2-1.2.6-.3.3-.2 1 .2 1-.5.1-1 .4-1.2.8-.2.5 0 1.2.6 1.2-.4 0-.6.4-.6.8s.3.7.6.7c-.2 0-.4.2-.5.5v.7c.3.2.6.2.8 0a2 2 0 0 0-.6 1v.3c0 .3.2.4.5.5l.6-.3a1 1 0 0 0 0 1.1c0 .3.3.6.6.8"/>
  <path fill="#DEBB95" d="m78.2 33.5-.8-1.4c-.6-.7-.9-.8-1-.9h-.9c-.2.3-.2.6-.2.9a8 8 0 0 0 .6 3c.3 1.1.5 1.5.9 1.8.4.4.8.5 1 .5l.5-.1c.5-.3.4-1 .4-1l-.5-2.8zm13.9 3.8.6.2s.4 0 1-.4c1-1 1.1-2.8 1.2-3.5 0-.3 0-.8-.4-1.3 0 0-.2-.3-.5-.4l-.5.2c-.5.3-.7.8-.7 1 0 0-1 3.4-.7 4.2zM69 30.4l3.2-2 .5-.6.7-2.1c.1-.4.2-1.1.5-1.4l1.8-1.3c.2-.1 2.4-1 2.6-.9v.3h.4c.1.2-.1.5-.1.5s.2.5-.1.7c0 0 .1.4-.1.6-.3.3-1 .6-1 .6l-.8.8-.1 1-.4 2.5c-.1.7-.5 1-1.1 1.4a14 14 0 0 0-2.5 2.4c-1.8 2.3-2 1.7-3.3.4-1.5-1.5-.3-2.9-.3-2.9z"/>
  <path fill="#D5AF86" d="M78.5 23.6c-1.8.9-1.6.8-2.9 2.1.2-.4.6-1 1-1.3l1.9-.8zm.1-.6-2.4 1c-.4.3-.8.8-1.2 1 .2-.4.7-.9 1.2-1.2l2.4-1zm-.2-.6-2.5 1.1c-.5.4-1 1-1.6 1.3l1.5-1.4 2.6-1z"/>
  <path fill="#DEBB95" d="m100.3 30.7-2.7-2.2-.4-.7-.4-2.2c0-.5 0-1.2-.3-1.4L95 22.6l-2.4-1.3c-.2 0-.2.4-.2.4H92c-.1 0 0 .4 0 .4s-.2.4 0 .7c0 0-.2.3 0 .6s1 .7 1 .7l.6 1v3.5c0 .7.3 1 .9 1.6.5.5 2 2.6 2.5 3.4.6.9 1.4 1.3 2.9.1 1.7-1.3.4-3 .4-3z"/>
  <path fill="#D5AF86" d="M92 22.8c1.7 1.1 1.5 1 2.6 2.5a4 4 0 0 0-.9-1.5l-1.7-1zm0-.7 2.3 1.5 1 1.3a4 4 0 0 0-1-1.5L92.1 22zm.3-.4 2.3 1.4 1.4 1.5a5 5 0 0 0-1.3-1.6c-.7-.5-1.6-1-2.4-1.3z"/>
  <path fill="#F2EDE4" d="M72.3 34.4c-.6.5-1.6 1.5-2.1 3.1l-.3 1.7c-2.9.3-6.7-.8-8.4-3.1 2.7-4 6.6-6 7.7-6.6a6.9 6.9 0 0 1 .5.5 10 10 0 0 1 2 3l.6 1.4zm35 2c-1.8 2.3-5.6 3.5-8.6 3.3 0-.8 0-1.5-.3-2.2a6.7 6.7 0 0 0-2-3.1 9.6 9.6 0 0 1 3-4.9 21 21 0 0 1 8 7z"/>
  <path fill="#652B28" d="M82.2 40a5 5 0 0 1 5.4-.1 8.9 8.9 0 0 0-5.4 0z"/>
  <path fill="#987957" d="M84.3 40.7c.1 0 .5-.3 1-.3.3 0 .6.2.8.3a9.5 9.5 0 0 0-1.8 0z"/>
  <path fill="#FFF" d="M80 32s.2 2 2.1 2c1.9.1 1.9-1.7 1.9-1.7l-4-.2z"/>
  <path fill="#3F2E20" d="M83.2 32.2a1.2 1.2 0 0 1-1 1.3H82a1.1 1.1 0 0 1-.9-1.7c1-.2 1.7 0 2 .2l.1.1z"/>
  <path fill="#987957" d="M84 32.3h-.4a11.3 11.3 0 0 1-3.6-.2l.9-.3c1.1-.3 2.1 0 2.6.2l.5.3zm-3.6 1.8A5 5 0 0 1 82 34c.6 0 1.1 0 1.6.3h-3.2z"/>
  <path fill="#FFF" d="M91 32s0 2-2 2c-1.9.1-1.9-1.7-1.9-1.7l4-.2z"/>
  <path fill="#3F2E20" d="M87.9 32.2a1.2 1.2 0 0 0 1.1 1.3h.1a1.2 1.2 0 0 0 1-1.7c-1-.2-1.8 0-2.2.2v.1z"/>
  <path fill="#987957" d="M87.1 32.3h.4a11.3 11.3 0 0 0 3.6-.2l-.9-.3c-1.1-.3-2 0-2.6.2l-.5.3zm3.7 1.8H89l-1.6.1c.5-.3 1-.3 1.6-.3a5 5 0 0 1 1.7.2z"/>
  <path fill="#405050" d="M84.5 38c-1 .5-2.3.5-3.4.1a4.4 4.4 0 0 0 3.1-.7l.5.1c0 .2 0 .4-.2.5zm1.2-.6c.9.7 2 .9 3 .7-1 .4-2.2.4-3.3-.1-.4-.2-.1-.8.3-.6z"/>
  <path fill="#542525" d="m84.5 30.2-.5-1s-2.6 1.6-5.2 1.3c0 0 2.3 1.4 5.7-.3zm1.9-.2.5-1s2.5 1.6 5.2 1.4c0 0-2.4 1.4-5.7-.4z"/>
  <path fill="#987957" d="M85.4 31.5c.5.8.7 1.7 1 2.6.4.8.5 1.9-.2 2.6-.5.4-1.3.4-1.7 0l.8.1c1 0 1.3-1 1.2-1.8-.3-1.2-.9-2.3-1-3.5z"/>
  <path fill="#405050" d="m77.1 26-.3-.6V25c.2-.2.6-.2.9-.1v-.6c0-.2 0-.4.2-.5l.5-.3 1.3-.4-.1.3-.3.2a2 2 0 0 0-.8 1l-.4 1.1a1 1 0 0 1-.4.5H77M93.4 25c.2 0 .3-.3.3-.5V24c-.1-.2-.5-.2-.8-.1v-.6c0-.2-.1-.4-.3-.5l-.5-.3-1.2-.4.1.3.3.2c.3.2.6.6.7 1l.5 1.1c0 .2.2.4.4.5h.6"/>
  <path fill="#FDFFFC" d="M125 8c.4 3.6-2.1 7.7-6.5 9.8a8 8 0 0 1-7.5-.1 10.3 10.3 0 0 1-5.5-8.3 9.2 9.2 0 0 1 4.1-8.3c5.4-3.2 14.6 1 15.4 7zm-15 11.5a3 3 0 0 1-1 2.4 3.2 3.2 0 0 1-5.1-.5c-.3-.4-.5-.9-.5-1.4 0-1 .5-2.2 1.4-2.8 1.8-1 4.9.3 5.1 2.3zm-5.4 5c0 .3 0 .7-.3 1-.8 1.2-2.6 1.1-3.1-.2l-.2-.6c0-.6.2-1.2.8-1.5 1-.6 2.7.2 2.8 1.3z"/>
  <path fill="#AEB4FC" d="M112.6 8.4a25.7 25.7 0 0 0 3 6c.5.7 1.4 1 2.2.7.8-.3 1.3-1.2 1.5-2a4.1 4.1 0 0 0-2.6-4.7 4 4 0 0 0-2.9 0c-1 .4-1.5 1.4-1.8 2.3-.4 1-.6 2.2-.3 3.3a3 3 0 0 0 1.7 1.9l.6.1c.1 0 .1-.1 0-.2l-1.5-1.1v.1a6.8 6.8 0 0 0 3-2.2c.7-1 .9-2.1.5-3.2-.2-.5-.6-1-1-1.3h-.2a4.4 4.4 0 0 0 1.1 5l1.3.8v-.2l-2.7-1c-.8-.3-1.7-.5-2.5-.9-.6-.3-1.2-.7-1.4-1.4-.2-.8.3-1.6.9-2a5 5 0 0 1 2.3-1.1 8 8 0 0 1 2.7-.5c1.6 0 3.1.4 4.3 1.5l.7.9c.2.3.5.8.2 1.1-.3.3-.8.3-1.1.4l-1.4.3c-1.6.4-3.4.5-5-.4-.6-.3-1.2-.8-1.6-1.4-.2-.3-.4-.8-.4-1.2 0-.4.2-.7.5-1 1-.9 2.6-1 3.8-.4.5.3 1 .7 1.2 1.3.3.7.1 1.4-.2 2-.9 1.5-2.6 2-4.2 2a28.4 28.4 0 0 1-1.4 0c-.3.6.2 1.1.6 1.4a9 9 0 0 0 4 1.6c.6 0 1.3 0 1.8-.3.5-.4.9-1 .7-1.6h-.1c-.5 0-.9.3-1.2.6l-1.2.8a6 6 0 0 1-2.8.8c-1.8 0-3.5-1.3-3.7-3.1 0-.5 0-1 .3-1.4.3-.4.8-.7 1.2-.8 1-.2 2 0 2.7.6l1.2.8 1 1c.3.3.7.3 1.2.1a18 18 0 0 0 4.4-2c.3-.1.6-.4.7-.8.1-.4 0-.8-.2-1.2a6 6 0 0 0-.7-1.1l-1-1a2 2 0 0 0-1.3-.2l-1.5.3c-.4.2-.8.2-1.3.2-.2 0-1-.4-.5-.7h.5a5 5 0 0 1 2 .5 5 5 0 0 1 2.9 4.2c0 1-.2 2-.7 2.7-.4.8-1 1.4-1.9 1.7-.7.4-1.6.6-2.5.5-.4 0-1-.2-1-.7 0-.4.3-.7.7-.8.5-.2 1 0 1.6.2 0 0 .1-.1 0-.2l-3.7-1.3c-1.2-.4-2.3-1-3.3-1.9-1-1-1.6-2.3-2-3.7-.2-1.1-.8-3 .5-3.7.5-.4 1.2-.3 1.8-.1a5 5 0 0 1 1.9 1 8 8 0 0 1 1.9 1.3c.3.3.5.6.6 1 0 .4-.1.8-.3 1.1-.5 1-1.6 1.7-2.7 2a3.7 3.7 0 0 1-2.2-.3l-.4-.2c-.3 0-.5.2-.7.4-.3.4-.4 1-.2 1.5.1.6.5 1 1 1.3.6.4 1.2.6 1.9.7a23.3 23.3 0 0 0 4.8.3c.7 0 1.2-.3 1.5-1 .5-1 .2-2.5-.5-3.4a4 4 0 0 0-1.5-1.2c-.6-.3-1.5-.7-1.5-1.5 0-.7.8-1 1.4-1.3.6-.2 1.3-.5 2-.6l2.1.1c.7.3 1.2.8 1.6 1.4.4.5.6 1.2.7 1.8.1.7.1 1.4-.2 2-.8 1.2-2.4.9-3.5.4a8.3 8.3 0 0 1-2.6-2c-.3-.3-.5-.7-.4-1 .1-.4.4-.7.7-.8l1-.6a4 4 0 0 1 2.2-.3c1.2.2 2.4 1.2 2.3 2.5-.1.6-.4 1.2-1 1.4 0 0 0 .2.2.2 1-.6 1.2-2 .6-3-.8-1.2-2.4-1.5-3.7-1.2-1 .3-3.2 1.2-2.3 2.7.4.6 1 1 1.7 1.5a7 7 0 0 0 1.9 1c.6.2 1.3.3 1.9.1a2 2 0 0 0 1.3-1.1c.2-.6.2-1.3 0-2 0-.6-.3-1.3-.7-1.9a3.8 3.8 0 0 0-3.6-1.4c-.8.1-1.6.4-2.3.7-.5.2-1.2.5-1.4 1-.3.7.2 1.3.8 1.7l1 .5.8.7c.5.4.8 1 1 1.7.1.7 0 1.5-.3 2-.5.8-1.4.8-2.2.8L113 13c-1.3-.2-3.2-.4-3.8-1.9-.2-.5-.2-1.3.3-1.7.4-.2.8 0 1 .2l1 .2c1.1 0 2.3-.3 3.2-1.2.4-.4.8-1 1-1.6 0-.4 0-.7-.2-1l-.7-.8-2-1.4c-.6-.4-1.2-.7-2-.9-.5 0-1.2 0-1.7.3s-.7.9-.8 1.5l.3 2.1.7 2.2a6.5 6.5 0 0 0 2.8 2.9c1.2.7 2.5 1 3.8 1.5l1.9.7V14a3 3 0 0 0-1.6-.2c-.3 0-.6.3-.8.7 0 .3 0 .6.2.9.3.2.9.3 1.3.3 1.8 0 3.5-1 4.3-2.6a5.1 5.1 0 0 0-2.6-7l-1.3-.4H116c-.2.1-.3.3-.3.4 0 .2.2.3.3.4.3.2.7.3 1.1.3 1 0 2.1-.9 3.2-.4.4.1.8.5 1.1.9l.9 1.2c.2.5.3 1 0 1.5l-.7.4a21.6 21.6 0 0 1-4 1.8c-.3.1-.6.2-1 .1-.2 0-.4-.2-.5-.4l-1.1-1a4.2 4.2 0 0 0-2.6-1.2c-.9-.1-2 .2-2.4 1a3 3 0 0 0 .1 2.6 4 4 0 0 0 2 1.7c1.8.9 3.9 0 5.4-1.1l1.3-.8c0 .5-.2 1-.6 1.3-.5.4-1.2.4-1.8.3a8.7 8.7 0 0 1-3.3-1.2c-.5-.2-1.5-.8-1.1-1.4h-.1c1.7 0 3.7 0 5-1.3.6-.5 1-1.2 1-2 0-.7-.2-1.3-.7-1.8-1-1-2.6-1.1-3.8-.7-.7.3-1.3.8-1.4 1.5-.1.8.4 1.7 1 2.2 1.1 1.2 2.9 1.6 4.6 1.5l3-.6c.4 0 .8-.2 1-.4.4-.3.3-.7.1-1a5.1 5.1 0 0 0-3.6-2.7c-1.9-.4-4 0-5.7.7-.7.4-1.5.8-1.9 1.6-.3.7-.3 1.5.2 2 .5.7 1.2 1 1.9 1.2l3 1 1.5.6c.1 0 .1-.2 0-.2a4.2 4.2 0 0 1-2.6-4c0-.5.2-1 .4-1.4h-.2c1 .5 1.3 1.6 1.2 2.6a4 4 0 0 1-1.8 2.8 9 9 0 0 1-1.8 1v.1L114 16v-.2c-.9 0-1.6-.7-2-1.4-.4-1-.3-2 0-3 .2-1 .6-2 1.4-2.6.8-.5 1.9-.6 2.8-.3a4 4 0 0 1 3 4c0 1-.4 1.8-1.1 2.3-.8.5-1.6.3-2.3-.3l-.8-1.2a23.3 23.3 0 0 1-2.2-4.9c0-.1-.2 0-.2 0z"/>
</svg>
