<?xml version="1.0" encoding="utf-8"?>
<!-- Generator: Adobe Illustrator 26.0.1, SVG Export Plug-In . SVG Version: 6.00 Build 0)  -->
<svg version="1.1" id="Layer_1" xmlns="http://www.w3.org/2000/svg" xmlns:xlink="http://www.w3.org/1999/xlink" x="0px" y="0px"
	 viewBox="0 0 465 468" style="enable-background:new 0 0 465 468;" xml:space="preserve">
<style type="text/css">
	.st0{clip-path:url(#SVGID_00000052814268029927327950000011926510094337931706_);}
	.st1{fill:#BDDEEF;}
	.st2{clip-path:url(#SVGID_00000052814268029927327950000011926510094337931706_);fill:#99CCE0;}
	.st3{clip-path:url(#SVGID_00000052814268029927327950000011926510094337931706_);fill:#52A7C1;}
	.st4{fill:#2782AA;}
	.st5{fill:#52A7C1;}
	.st6{fill:none;stroke:#003D74;stroke-miterlimit:10;}
	.st7{fill:#639DDD;}
	.st8{fill:#003D73;}
	.st9{fill:none;stroke:#003D73;stroke-width:2;stroke-miterlimit:10;}
	.st10{fill:#DE9F7E;}
	.st11{fill:#D38A6A;}
	.st12{fill:#D34047;}
	.st13{fill:#B7303D;}
	.st14{fill:#FFFFFF;}
	.st15{fill:#D3D3D3;}
	.st16{fill:#FFFFFF;stroke:#D3D3D3;stroke-width:0.6816;stroke-miterlimit:10;}
	.st17{fill:#CE8065;}
	.st18{fill:#6B3628;}
	.st19{fill:#FCB856;}
</style>
<g>
	<defs>
		<path id="SVGID_1_" d="M48.8,322.1c8.4-8.8,24.7-16.3,32-36.9c1.6-4.6,3.2-9.1,2.7-15c-2-23.9-35.5-38.7-50.3-55.6
			c-8.8-10.6-12.7-27.6-3-37.4c8.3-8.3,21.9-7.2,32.8-11.5c19.6-7.8,27-31.7,28.2-52.7c-1.7-43.7,6.8-92.8,61.1-90.3
			c18.6,2,34.7,13.5,52.6,18.7c35,10.1,74.2-4.7,108.3,9.9c16.8,7.2,31,23.4,30.3,41.7c-0.7,18.8-16.4,36.1-11.6,54.3
			c13.2,37.7,66.6,21.2,89.8,48.7c39.1,47-40.6,57.8,5.4,108.5c3.1,5.4,24.5,61.4,1.8,100.3c-24.4,41.7-92.6,42.8-113.4,38.1
			c-7.7-1.7-17.4-4.4-17.4-4.4c-10.9-3-19.4-6-36-11.1c0,0-10.6-3.4-30.4-9c-48.5-13.9-135.2,39.1-164,1.3
			C47.3,393,27.5,344.4,48.8,322.1z"/>
	</defs>
	<clipPath id="SVGID_00000032613779035694549890000003963033506395921082_">
		<use xlink:href="#SVGID_1_"  style="overflow:visible;"/>
	</clipPath>
	<g style="clip-path:url(#SVGID_00000032613779035694549890000003963033506395921082_);">
		<path class="st1" d="M48.8,322.1c8.4-8.8,24.7-16.3,32-36.9c1.6-4.6,3.2-9.1,2.7-15c-2-23.9-35.5-38.7-50.3-55.6
			c-8.8-10.6-12.7-27.6-3-37.4c8.3-8.3,21.9-7.2,32.8-11.5c19.6-7.8,27-31.7,28.2-52.7c-1.7-43.7,6.8-92.8,61.1-90.3
			c18.6,2,34.7,13.5,52.6,18.7c35,10.1,74.2-4.7,108.3,9.9c16.8,7.2,31,23.4,30.3,41.7c-0.7,18.8-16.4,36.1-11.6,54.3
			c13.2,37.7,66.6,21.2,89.8,48.7c39.1,47-40.6,57.8,5.4,108.5c3.1,5.4,24.5,61.4,1.8,100.3c-24.4,41.7-92.6,42.8-113.4,38.1
			c-7.7-1.7-17.4-4.4-17.4-4.4c-10.9-3-19.4-6-36-11.1c0,0-10.6-3.4-30.4-9c-48.5-13.9-135.2,39.1-164,1.3
			C47.3,393,27.5,344.4,48.8,322.1z"/>
	</g>
	<path style="clip-path:url(#SVGID_00000032613779035694549890000003963033506395921082_);fill:#99CCE0;" d="M108.1,312.3v-85.5h29
		V199h19.6v-52.6h5.3c4.1,0,8.1,0,12.2,0h5.4v71.6h6.6v-23.2h18.8v55.8h13.4v-84.5h41.3v71.4h13.5V111.8h56.1V264h6.3v-37
		c13.9,0,27.8,0,41.6,0c0,29,0,58,0,87h8.8v-31.5h23.5V150.1h45.8v157.3v168.6H38.3V208.1h31.1v67.3h7.1V241c8.8,0,17.7,0,26.5,0
		c0,23.9,0,47.8,0,71.8L108.1,312.3z"/>
	<polygon style="clip-path:url(#SVGID_00000032613779035694549890000003963033506395921082_);fill:#52A7C1;" points="86,416.9 
		86,331.4 115,331.4 115,303.7 134.6,303.7 134.6,251.1 157.4,251.1 157.4,322.7 164,322.7 164,299.6 182.8,299.6 182.8,355.4 
		196.2,355.4 196.2,270.9 237.5,270.9 237.5,342.3 251,342.3 251,216.4 307.2,216.4 307.2,368.6 313.5,368.6 313.5,331.6 
		355.1,331.6 355.1,418.7 363.9,418.7 363.9,387.1 387.5,387.1 387.5,254.7 433.3,254.7 433.3,411.9 433.3,444.7 16.2,444.7 
		16.2,312.7 47.3,312.7 47.3,380 54.5,380 54.5,263.1 80.9,263.1 80.9,417.4 	"/>
	<g style="clip-path:url(#SVGID_00000032613779035694549890000003963033506395921082_);">
		<path class="st1" d="M122.4,331.4C122.4,331.4,122.3,331.4,122.4,331.4c-3.5,1.6-7.4,3.4-10.8,4.9c-0.4,0-1.2,0.2-1.8,0.3
			c0,0,0.1-0.1,0.1-0.1c-9.7,0.7-19.4,1.4-29.1,2.1c-9.1,0.7-18.2,1.3-27.3,2c2,1.8,3.9,3.6,5.9,5.3c-0.2,0-0.4,0.1-0.6,0.1
			c-8.5,2-16.9,4-25.4,5.9c0.1-10.3,0.2-20.6,0.3-30.9c2.8,1.2,6.9,2.9,12.2,4.2c5.8,1.4,9.9,1.6,25.5,2.2
			c9.8,0.4,15.1,0.5,20.1,0.7c9.1,0.4,16.5,0.8,21.2,1C116,329.9,119.2,330.6,122.4,331.4z"/>
		<g>
			<path class="st4" d="M358.2,331.5c2.2,3.2,4.4,6.4,6.6,9.6c8.5,6.3,16.9,12.6,25.4,18.9c-6.5-7.8-13.1-15.6-19.6-23.4
				c-0.6-0.1-1.3-0.2-1.8-0.3C365.5,334.8,361.6,333,358.2,331.5z"/>
			<path class="st1" d="M358.1,331.4C358.1,331.4,358.1,331.4,358.1,331.4c3.5,1.6,7.4,3.4,10.8,4.9c0.4,0,1.2,0.2,1.8,0.3
				c0,0-0.1-0.1-0.1-0.1c9.7,0.7,19.4,1.4,29.1,2.1c9.1,0.7,18.2,1.3,27.3,2c-2,1.8-3.9,3.6-5.9,5.3c0.2,0,0.4,0.1,0.6,0.1
				c8.5,2,16.9,4,25.4,5.9c-0.1-10.3-0.2-20.6-0.3-30.9c-2.8,1.2-6.9,2.9-12.2,4.2c-5.8,1.4-9.9,1.6-25.5,2.2
				c-9.8,0.4-15.1,0.5-20.1,0.7c-9.1,0.4-16.5,0.8-21.2,1C364.5,329.9,361.3,330.6,358.1,331.4z"/>
			<path class="st5" d="M370.5,336.4c6.6,7.8,13.1,15.7,19.7,23.5c2.2,1.6,4.4,3.3,6.6,4.9c4.4,12.1,8.7,24.1,13.1,36.2
				c-1.1-15.3-2.2-30.7-3.3-46c-2.3-5.5-4.6-11-6.9-16.5C389.9,337.8,380.2,337.1,370.5,336.4z"/>
			<path class="st4" d="M409.9,401c0.5,1.4,1,2.8,1.5,4.2c-0.8,7.1-1.5,14.3-2.3,21.4h30.3c-1-19.3-2.1-38.7-3.1-58
				c-4.9-7.5-9.8-15.1-14.6-22.6c-0.2,0-0.4-0.1-0.6-0.1c1.9-1.8,3.9-3.5,5.9-5.3c-9.1-0.7-18.2-1.3-27.3-2c2.3,5.5,4.6,11,6.9,16.5
				C407.6,370.3,408.7,385.7,409.9,401z"/>
			<path class="st5" d="M421.6,346c4.9,7.5,9.8,15.1,14.6,22.6c1,19.3,2,38.7,3.1,58h8.5c-0.3-24.9-0.5-49.8-0.8-74.7
				C438.6,349.9,430.1,348,421.6,346z"/>
			<path class="st6" d="M421.6,346c-0.1-0.1-0.1-0.2-0.2-0.2"/>
		</g>
		<g>
			<path class="st7" d="M402.6,300.4L402.6,300.4c1.8,0.8,3.7,1.6,5.5,2.3c2-0.2,3.9-0.5,5.9-0.7c-1-0.9-2.1-1.8-3.1-2.6
				C408.1,299.7,405.3,300,402.6,300.4z"/>
			<path class="st4" d="M402.6,300.4c1.6,11.6,3.2,23.2,4.9,34.8c1.4,0,2.9-0.1,4.3-0.1c0.8-11,1.5-22,2.3-33.1c0,0,0,0-0.1,0
				c-2,0.2-3.9,0.5-5.9,0.7C406.2,301.9,404.4,301.2,402.6,300.4z"/>
		</g>
		<path class="st4" d="M86.4,300.4c-1.6,11.6-3.2,23.2-4.9,34.8c-1.4,0-2.9-0.1-4.3-0.1c-0.8-11-1.5-22-2.3-33.1c0,0,0,0,0.1,0
			c2,0.2,3.9,0.5,5.9,0.7C82.8,301.9,84.6,301.2,86.4,300.4z"/>
		<g>
			<path class="st8" d="M80.5,323.7c-1.1,0-2.7-0.2-4.1-1.3c-0.4-0.3-1.4-1.2-1.1-2.3c0.2-0.6,0.7-1,1.6-1.2l0.4,1.7
				c0-0.1,0-0.2,0-0.2c0,0.1,0.1,0.2,0.5,0.5c1.3,1.1,3.5,0.8,3.5,0.8c1.2-0.2,2.2-0.7,2.8-1.2l0.1-1.8c0.6,0,2,0.1,2.3,1.2
				c0.1,0.3,0.1,0.7-0.2,1.3c-0.7,1.1-2.8,2.2-4.6,2.5C81.4,323.6,81.1,323.7,80.5,323.7z"/>
		</g>
		<g>
			<path class="st8" d="M79.9,311.7c-2.7,0-5.5-0.6-6.2-1.3c-0.2-0.2-0.4-0.6-0.3-0.9c0.1-1,1.3-1.2,2.1-1.3l0.1,0.9
				c1,0.3,3.1,0.7,5.4,0.5c1.6-0.1,3.1-0.4,3.9-0.7l0.1-1.2c0.8,0.1,2.2,0.3,2.3,1.4c0,0.3-0.1,0.6-0.3,0.9c-0.9,1-4.3,1.5-5.9,1.6
				C80.7,311.7,80.3,311.7,79.9,311.7z"/>
		</g>
		<path class="st9" d="M76.1,316.5c-0.4,0.1-0.9,0.2-0.9,0.4c0,0.5,4.1,1,4.9,1.1c10.3,1.2,30.3,6.1,84.9,13.1
			c13.9,1.8,37.5,4.8,66.1,5.1c76.8,0.8,160.9-18.4,170.1-17.6c1.5,0.1,4.1-0.2,9.3-0.9c1-0.1,2.9-0.4,3-1.2c0.1-0.4-0.3-0.7-0.6-1"
			/>
		<g>
			<path class="st4" d="M122.3,331.5c-2.2,3.2-4.4,6.4-6.6,9.6c-8.5,6.3-16.9,12.6-25.4,18.9c6.5-7.8,13.1-15.6,19.6-23.4
				c0.6-0.1,1.3-0.2,1.8-0.3C115,334.8,118.9,333,122.3,331.5z"/>
			<path class="st5" d="M110,336.4c-6.6,7.8-13.1,15.7-19.7,23.5c-2.2,1.6-4.4,3.3-6.6,4.9c-4.4,12.1-8.7,24.1-13.1,36.2
				c1.1-15.3,2.2-30.7,3.3-46c2.3-5.5,4.6-11,6.9-16.5C90.5,337.8,100.3,337.1,110,336.4z"/>
			<path class="st4" d="M70.6,401c-0.5,1.4-1,2.8-1.5,4.2c0.8,7.1,1.5,14.3,2.3,21.4H41.1c1-19.3,2.1-38.7,3.1-58
				c4.9-7.5,9.8-15.1,14.6-22.6c0.2,0,0.4-0.1,0.6-0.1c-1.9-1.8-3.9-3.5-5.9-5.3c9.1-0.7,18.2-1.3,27.3-2c-2.3,5.5-4.6,11-6.9,16.5
				C72.8,370.3,71.7,385.7,70.6,401z"/>
			<path class="st5" d="M58.8,346c-4.9,7.5-9.8,15.1-14.6,22.6c-1,19.3-2,38.7-3.1,58h-8.5c0.3-24.9,0.5-49.8,0.8-74.7
				C41.9,349.9,50.4,348,58.8,346z"/>
			<path class="st6" d="M59,345.7c-0.1,0.1-0.1,0.1-0.2,0.2"/>
		</g>
		<g>
			<path class="st7" d="M86.4,300.4L86.4,300.4c-1.8,0.8-3.7,1.6-5.5,2.3c-2-0.2-3.9-0.5-5.9-0.7c1-0.9,2.1-1.8,3.1-2.6
				C80.9,299.7,83.7,300,86.4,300.4z"/>
		</g>
		<g>
			<path class="st8" d="M409.1,325.8c-1.1,0-2.7-0.2-4.1-1.3c-0.4-0.3-1.4-1.2-1.1-2.3c0.2-0.6,0.7-1,1.6-1.2l0.4,1.7
				c0-0.1,0-0.2,0-0.2c0,0.1,0.1,0.2,0.5,0.5c1.3,1.1,3.5,0.8,3.5,0.8c1.2-0.2,2.2-0.7,2.8-1.2l0.1-1.8c0.6,0,2,0.1,2.3,1.2
				c0.1,0.3,0.1,0.7-0.2,1.3c-0.7,1.1-2.8,2.2-4.6,2.5C410,325.8,409.7,325.8,409.1,325.8z"/>
		</g>
		<g>
			<path class="st8" d="M408.5,313.8c-2.7,0-5.5-0.6-6.2-1.3c-0.2-0.2-0.4-0.6-0.3-0.9c0.1-1,1.3-1.2,2.1-1.3l0.1,0.9
				c1,0.3,3.1,0.7,5.4,0.5c1.6-0.1,3.1-0.4,3.9-0.7l0.1-1.2c0.8,0.1,2.2,0.3,2.3,1.4c0,0.3-0.1,0.6-0.3,0.9c-0.9,1-4.3,1.5-5.9,1.6
				C409.3,313.8,408.9,313.8,408.5,313.8z"/>
		</g>
	</g>
	<g style="clip-path:url(#SVGID_00000032613779035694549890000003963033506395921082_);">
		<g>
			<path class="st10" d="M289.6,233.5c-0.4,0.1-4.5-0.2-7.1,0.3c-2.7,0.4-8.1,1.2-12.4-0.5c-2-1.5-0.4-5.5,0.2-5.9
				c2.4,0.2,15.9,2,20.1,3.2C291.1,230.9,291.1,233.5,289.6,233.5z"/>
			<path class="st10" d="M287.8,233c0,0.1,0.1,0.2,0.1,0.3c0.1,0.4,1.2,1.2,1.5,1.4c0.8,0.6,0.7,0.7,1.6,1.3
				c1.5,1.1,1.7,0.7,2.9,1.3c0.6,0.3,2.2,0.4,2.7,0.7c0.4,0.3,0.7-0.9-1.5-1.8c-0.4,0-1.3-0.9-1.3-0.9s1.9-0.1,2.4,0
				c0.5,0.2,1.6,0.9,1.6,0.9s0.3,1.3,1.4,1.3l0,0c0.1,0,0.1-0.1,0.1-0.1c0-0.7-0.3-2.8-0.9-3.6c-0.2-0.3-1.1-0.8-3.1-1.8
				c-1.3-0.7-2.8-1-4.3-1.3c-0.6-0.1-1.5-0.4-2.1-0.2c-0.6,0.2-1.2,0.9-1.3,1.5C287.6,232.3,287.7,232.7,287.8,233z"/>
			<g>
				<path class="st10" d="M251.8,233.6c0,1.8-0.1,3.5-0.2,5.3c-0.1,1-0.2,2.1-0.5,3.1c-0.3,1-0.9,1.9-1.3,2.8
					c-0.3,0.9-0.5,1.8-0.7,2.7c-0.1,0.7-0.1,1.3-0.1,2h-20.3c0.1-1.3,0-2.5-0.3-3.8c-0.3-1.2-1-2.2-1.4-3.4
					c-0.6-1.7-0.5-3.4-0.7-5.2c-0.2-1.9-0.4-3.7-0.5-5.6c-0.1-1.2,0.1-3,0.2-4.1c0-0.4,0-1.5,0.5-1.6c3-0.5,8-4.4,8-4.4
					c0.2-0.5,0.3-1.1,0.3-1.7c0-0.3,0-0.5,0-0.8c0-0.6,0-1.1-0.1-1.6c1.4,0.7,3.1,0.9,4.6,0.9c1.4,0,2.8-0.2,4.1-0.6
					c0,0.3,0,0.7,0,1c0,0.3,0,0.5,0,0.8c0,0.9,0.2,1.7,0.6,2.4c0.1,0.1,0.2,0.2,0.3,0.3c1.9,1,4.8,3.2,7.3,3.7
					c0.3,0.7,0.1,1.6,0.1,2.3C251.8,229.8,251.8,232,251.8,233.6z"/>
				<path class="st11" d="M243.5,218.7c0,0.2,0,0.3,0,0.5c-0.3,0.4-0.8,0.8-1.4,1.3c-0.8,0.6-1.6,1.2-2.8,1.2c-1.1,0-2-0.4-2.6-0.8
					c-0.8-0.5-1.4-1-1.7-1.4c0-0.2,0-0.4,0-0.5c0-0.6,0-1.1-0.1-1.6c1.4,0.7,3.1,0.9,4.6,0.9c1.4,0,2.8-0.2,4.1-0.6
					C243.5,218,243.5,218.3,243.5,218.7z"/>
				<path class="st10" d="M233.3,211.2c-0.1-0.5,0.1-0.6-0.4-0.9c-0.5-0.2-0.9,0.7-1,1.3c-0.1,0.6,0.5,2.8,0.9,3.1
					c0.4,0.3,0.8,0.4,1-0.1L233.3,211.2z"/>
				<path class="st10" d="M245,209.4c0.3,2.6,0.5,5.3-0.9,7.8c-0.1,0.2-0.6,1-1.4,1.8c-0.7,0.7-1.7,1.5-3.2,1.8
					c-0.3,0.1-0.6,0.1-0.8,0c-2.1-0.4-3.9-2.5-4.4-3.3c0,0,0,0,0,0c-0.1-0.1-0.1-0.2-0.2-0.3c-0.1-0.1-0.1-0.3-0.2-0.4c0,0,0,0,0,0
					c-0.5-1.4-0.6-5.2-0.7-7.4c-0.2-3,1.7-5.7,4.8-6.6c0.4-0.1,0.8-0.2,1.1-0.2h0c0,0,0.1,0,0.1,0c0.3,0,0.7,0,4.7,2.5
					C245,205.8,244.8,207.3,245,209.4z"/>
			</g>
			<g>
				<path class="st12" d="M269.9,226.2c-7.9-1.1-15.9-2.3-23.8-3.4c2.7,1.7,3.1,2.6,3,3.2c-0.1,0.5-0.6,0.4-1.2,1.5
					c-0.5,1.1-0.9,1.9-1.6,3c0.9,3.1,1.9,6.2,2.8,9.2c2.8-1.2,6.4-2.6,10.7-3.5c4.2-0.9,7.9-1.1,10.8-1.1
					C270.4,232.2,270.1,229.2,269.9,226.2z"/>
				<path class="st13" d="M268.2,235c-0.1-3.1-0.1-6.2-0.2-9.2c0.7,0,1.5,0,2.3,0c0.7,0,1.4,0.1,2,0.2c0,3.1,0.1,6.2,0.1,9.4
					c-0.5,0.1-1.1,0.1-1.8,0.1C269.6,235.4,268.8,235.2,268.2,235z"/>
			</g>
			<path class="st10" d="M191.3,233.5c0.4,0.1,4.5-0.2,7.1,0.3c2.7,0.4,8.1,1.2,12.4-0.5c2-1.5,0.4-5.5-0.2-5.9
				c-2.4,0.2-15.9,2-20.1,3.2C189.8,230.9,189.9,233.5,191.3,233.5z"/>
			<path class="st10" d="M193.2,233c0,0.1-0.1,0.2-0.1,0.3c-0.1,0.4-1.2,1.2-1.5,1.4c-0.8,0.6-0.7,0.7-1.6,1.3
				c-1.5,1.1-1.7,0.7-2.9,1.3c-0.6,0.3-2.2,0.4-2.7,0.7c-0.4,0.3-0.7-0.9,1.5-1.8c0.4,0,1.3-0.9,1.3-0.9s-1.9-0.1-2.4,0
				c-0.5,0.2-1.6,0.9-1.6,0.9s-0.3,1.3-1.4,1.3l0,0c-0.1,0-0.1-0.1-0.1-0.1c0-0.7,0.3-2.8,0.9-3.6c0.2-0.3,1.1-0.8,3.1-1.8
				c1.3-0.7,2.8-1,4.3-1.3c0.6-0.1,1.5-0.4,2.1-0.2c0.6,0.2,1.2,0.9,1.3,1.5C193.3,232.3,193.3,232.7,193.2,233z"/>
			<g>
				<path class="st12" d="M211.1,226.2c7.4-1.3,14.7-2.6,22.1-3.9c-1.6,2-1.6,3.1-1.3,3.7c0.2,0.5,0.7,0.4,1.2,1.5
					c0.5,1.1,0.9,1.9,1.6,3c-0.9,3.1-1.9,6.2-2.8,9.2c-2.8-1.2-6.4-2.6-10.7-3.5c-4.2-0.9-7.9-1.1-10.8-1.1
					C210.5,232.2,210.8,229.2,211.1,226.2z"/>
				<path class="st13" d="M212.8,235c0.1-3.1,0.1-6.2,0.2-9.2c-0.7,0-1.5,0-2.3,0c-0.7,0-1.4,0.1-2,0.2c0,3.1-0.1,6.2-0.1,9.4
					c0.5,0.1,1.1,0.1,1.8,0.1C211.3,235.4,212.2,235.2,212.8,235z"/>
			</g>
			<path class="st10" d="M231.1,325.6c-0.3-1.7-0.7-4.1-1.2-7c-0.3-1.6-0.7-3.6-1.3-5.9c0,0,3.6-3.5,6.7-1.9c2.3,1.3,1.5,5.8,0.7,15
				c-0.1,1-0.2,1.9-0.2,2.5c-1.4,0-2.8,0-4.2,0C231.4,327.6,231.3,326.7,231.1,325.6z"/>
			<path class="st10" d="M248.3,325.6c0.3-1.7,0.7-4.1,1.2-7c0.3-1.6,0.7-3.6,1.3-5.9c0,0-3.6-3.6-6.7-1.9c-2.2,1.2-1.5,5.8-0.7,15
				c0.1,1,0.2,1.9,0.2,2.5c1.4,0,2.8,0,4.2,0C248,327.6,248.1,326.7,248.3,325.6z"/>
			<path class="st14" d="M224.8,269.3c-0.7,8.7-0.9,16.2-1,22.1c-0.2,14.8,0.6,19.3,3.9,21.9c2.8,2.2,6.3,2.5,9,2.3
				c0.7-3.6,1.3-7.4,1.8-11.6c0.5-4.3,0.8-8.4,0.9-12.1c-0.4-7.2-0.9-14.4-1.3-21.6C233.7,270,229.3,269.7,224.8,269.3z"/>
			<path class="st14" d="M253,268.8c1.8,5.7,5.9,39.4-3.1,46.8c-1.2,2-5.8,2.1-7.2,0.5c-0.7-3.7-1.3-7.5-1.9-11.4
				c-0.8-5.1-1.4-10.1-1.9-14.8c-0.3-2-0.5-4.1-0.7-6.5c-0.2-5,0.1-9.4,0.7-13.1C240.5,268.7,251.4,267.8,253,268.8z"/>
			<g>
				<g>
					<path class="st15" d="M236.3,294.6c0.3,4.4-2.6,9-6.7,10.6C232.9,302.1,235,298.7,236.3,294.6L236.3,294.6z"/>
				</g>
				<g>
					<path class="st15" d="M236.7,298.3c1.4,3.9-0.2,8.8-3.6,11.2C235.3,306,236.4,302.5,236.7,298.3L236.7,298.3z"/>
				</g>
				<g>
					<path class="st15" d="M241.8,295.5c2.1,3.5,4.2,6.5,6.8,9.7C245,303.3,242.3,299.5,241.8,295.5L241.8,295.5z"/>
				</g>
				<g>
					<path class="st15" d="M241,299.3c1.3,3.5,2.8,6.4,4.9,9.5C242.7,306.9,240.7,303,241,299.3L241,299.3z"/>
				</g>
				<g>
					<path class="st15" d="M236,290.3c0,3.2-2.3,6.5-5.4,7.4C232.8,295.4,234.4,293.2,236,290.3L236,290.3z"/>
				</g>
				<g>
					<path class="st15" d="M242.3,291.2c1.8,2.2,3.2,4.1,4.9,6.4C244.5,296.6,242.5,294,242.3,291.2L242.3,291.2z"/>
				</g>
				<path class="st16" d="M243.1,274.8c0.3,1,0,2.5,0,3.4c0,2.2,0,4.4,0,6.6c0.1,4.5,0.3,9,0.1,13.4c0,0.6,0,1.4-0.2,2
					c-0.8,2.1-5.5,2.9-7.3-0.3c-0.7-1.2-0.6-3-0.6-4.3c0-2.3,0.2-4.7,0.4-7c0.4-4.3,0.8-8.6,1.3-12.8c0.2-2,2.8-2.7,4.5-2.4
					c0.5,0.1,1.1,0.3,1.4,0.7C242.9,274.4,243,274.6,243.1,274.8z"/>
			</g>
			<path class="st12" d="M224.2,225.8c6.8-2.2,8.9-3.2,9.1-3.8c0-0.1,0.2-0.5,0.6-0.8c0.2-0.1,0.8-0.1,0.8-0.1
				c-1.3,2.9-1.4,5.7,2.1,7.1c0.4,0.2,2.4,3.4,2.5,4.3c0,0,1.4-4.1,1.9-4.2c3.8-1.4,3.5-4.6,2.6-7.2c0.1,0,0.4,0.1,0.6,0.2
				c0.1,0.1,0.3,0.2,0.5,0.5c0.1,0.1,0.1,0.2,0.2,0.3c3.1,1.5,5.5,2.6,6.4,2.9c0.8,0.3,1.7,0.7,2.5,1c0,0.2,0,0.4,0,0.7
				c0,4-0.7,6.3-1.4,11c-0.4,3.1-0.9,6.8-1.3,14.1c0,0.7-0.1,2,0,3.8c0.2,2.3,0.7,4,0.7,4.7c0.4,3.1,2,10.9,2.1,12.1
				c-3.7,1.3-9.5,2.8-16.7,2.6c-5.4-0.1-9.8-1.1-13-2.1c0.8-6,1.4-10.2,1.6-11.6c0.1-0.3,0.2-1.4,0.3-2.8c0-0.4,0.1-0.9,0.1-1.4
				c0.1-1.9,0.1-2.9,0-5.8c0-4.3-0.1-4.1,0-5.8c0.2-3.4-0.9-7.8-0.9-7.8C224.9,235.6,224.3,231.9,224.2,225.8z"/>
			<g>
				<path d="M239.1,224.5c-0.4,0-2.5-0.1-3.7-1.7c-0.3-0.4-0.4-0.7-0.5-1c-0.1-0.3-0.2-0.6-0.2-0.8c0,0,0,0,0,0c0,0-0.1-0.3,0-0.5
					c0,0,0.1-0.1,0.1-0.1c0,0.1,0,0.3,0.1,0.5c0,0,0.2,0.9,0.7,1.6c0.7,1,3.4,2.4,5.7,1.2c1.6-0.9,2.2-2.5,2.3-2.9
					c0,0,0.1,0.2,0.1,0.3c0,0.1,0,0.2,0,0.3c-0.2,0.4-0.7,1.8-2.3,2.7C241.2,224.1,240.3,224.5,239.1,224.5z"/>
			</g>
			<g>
				<path d="M233.1,215.5c-0.2,0-0.3-0.4-0.3-0.7l0.1,0.1c0,0.4,0.1,0.5,0.1,0.5s0.1-0.2,0.1-0.6c0-0.4-0.1-0.6-0.1-0.6
					c0,0,0-0.1,0-0.1c0.2,0,0.3,0.4,0.3,0.7S233.3,215.5,233.1,215.5z"/>
			</g>
			<path class="st10" d="M244.8,211.2c0.1-0.5,0.1-0.7,0.5-0.9c0.5-0.2,0.9,0.7,1,1.3c0.1,0.6-0.5,2.8-0.9,3.1
				c-0.4,0.3-0.8,0.4-1-0.1L244.8,211.2z"/>
			<g>
				<path d="M245,215.5c0.2,0,0.3-0.4,0.3-0.7l-0.1,0.1c0,0.4-0.1,0.5-0.1,0.5c0,0-0.1-0.2-0.1-0.6c0-0.4,0.1-0.6,0.1-0.6
					c0,0,0-0.1,0-0.1c-0.2,0-0.3,0.4-0.3,0.7S244.9,215.5,245,215.5z"/>
			</g>
			<path d="M244.5,212.5c0.1-0.1,0.1-0.2,0.2-0.3c0.1-0.5,0.2-1.1,0.3-1.6c0.2-0.6,0.4-1.3,0.6-2.3c0.2-1.3,0.2-2.6-0.5-3.5
				c-0.5-0.7-1.4-0.6-1.4-0.7c-3.1-5.1-9.5-0.5-10.2,1.2c-0.3,0.7-0.6,1.9-0.5,3.4c0.1,0.7,0.2,1.3,0.4,1.8c0.1,0.1,0.1,0.2,0.2,0.3
				c0.2,0.5,0.3,1,0.2,1.4c0,0.1,0.1,0.2,0.1,0.3c0-0.2,0-0.5,0.1-0.9c0.2-2.3,0.1-3,0.6-3.6c0.1-0.2,0.4-0.4,0.8-0.6
				c3,0.7,8.2-1.5,8.3-0.9c0,0.3,0,0.7,0.1,1.3c0.1,0.8,0.4,1.3,0.5,1.5C244.4,209.9,244.7,210.9,244.5,212.5z"/>
			<g>
				<path class="st17" d="M237.4,217.3c0,0.2,0.9,0.6,1.8,0.6c0.9,0,1.7-0.4,1.7-0.6c0,0,0-0.1-1.4-0.1
					C238.1,217.1,237.4,217.1,237.4,217.3z"/>
			</g>
			<g>
				<path class="st17" d="M238.3,215.6c0,0.1,0.4,0.4,0.9,0.4c0.5,0,0.9-0.3,0.8-0.4c0,0-0.3,0.1-0.8,0.1
					C238.7,215.8,238.4,215.5,238.3,215.6z"/>
			</g>
			<g>
				<path d="M234.6,211.1c0.2-0.2,0.4-0.4,0.8-0.7c0,0,0,0,0,0c0.2-0.1,0.4-0.2,0.6-0.1c0.5,0.1,1.1,0.1,1.6,0.2
					c0,0,0.1,0.1,0.1,0.3c0,0.1,0,0.2,0,0.3c-0.6-0.1-1.2-0.1-1.9-0.2c-0.1,0-0.3,0-0.4,0C235.2,210.9,234.9,211,234.6,211.1z"/>
			</g>
			<g>
				<path d="M243.6,211.1c-0.2-0.2-0.4-0.4-0.8-0.7c0,0,0,0,0,0c-0.2-0.1-0.4-0.2-0.6-0.1c-0.5,0.1-1.1,0.1-1.6,0.2
					c0,0-0.1,0.1-0.1,0.3c0,0.1,0,0.2,0,0.3c0.6-0.1,1.2-0.1,1.9-0.2c0.1,0,0.3,0,0.4,0C243.1,210.9,243.4,211,243.6,211.1z"/>
			</g>
			<g>
				<path d="M235.5,330.6c0.2,0.1,0.5,0.3,0.8,0.6c0.6,0.8,0.3,1.9-0.3,3.5c-0.4,1.3-0.9,2.8-1.5,4.4c-0.3,0.6-0.8,1.3-1.5,1.6
					c-2.2,1-5.5-1.1-5.7-3.1c-0.1-0.6,0.2-1.2,0.9-2.3c0.8-1.5,1.8-2.6,2.4-3.2C232.2,331.6,233.8,331.1,235.5,330.6z"/>
				<path class="st10" d="M230.8,330.6c-0.8,2.3-1.4,3.7-2.4,5c-0.2,0.2-0.5,0.6-0.6,1.3c0,0.1-0.1,0.8,0.4,1.4
					c0.1,0.2,0.2,0.2,0.9,0.7c1,0.6,0.8,0.6,1.1,0.7c0.5,0.2,1.2,0.6,1.9,0.5c1.1-0.2,1.6-1.4,1.7-1.6c0.2-0.5,0.3-1,0.5-1.5
					c0.3-1.1,0.5-1.7,0.9-2.8c0.3-1.1,0.5-1.6,0.5-1.8c0.1-0.9-0.1-1.3-0.1-2.5c0-0.7,0-1.3,0.1-1.7c-0.6-0.2-1.5-0.3-2.5-0.3
					c-0.6,0-1.6-0.2-1.7,0.3C231.4,329.3,231,330,230.8,330.6z"/>
				<path d="M227.9,336.1c0.8,0.1,1.8,0.3,2.9,0.7c1.6,0.6,2.9,1.3,3.7,2c0.3-0.9,0.6-1.8,0.9-2.6c-0.4-0.5-1.2-1.3-2.5-1.9
					c-1.4-0.7-2.8-0.7-3.4-0.6C228.9,334.4,228.4,335.2,227.9,336.1z"/>
			</g>
			<g>
				<path d="M243.8,330.4c-0.2,0.1-0.5,0.2-0.8,0.5c-0.6,0.7-0.4,1.9,0.1,3.5c0.3,1.3,0.8,2.8,1.3,4.5c0.2,0.6,0.7,1.3,1.4,1.7
					c2.1,1.1,5.5-0.8,5.8-2.8c0.1-0.6-0.2-1.2-0.7-2.3c-0.8-1.5-1.6-2.7-2.3-3.3C247,331.5,245.4,331,243.8,330.4z"/>
				<path class="st10" d="M248.4,330.6c0.4,1.4,1,3.5,2.1,5.1c0.2,0.2,0.5,0.7,0.5,1.3c0,0.1,0,0.8-0.5,1.4c-0.2,0.2-0.2,0.2-1,0.6
					c-1,0.6-0.9,0.5-1.1,0.6c-0.5,0.2-1.2,0.5-1.9,0.4c-1.1-0.3-1.5-1.5-1.6-1.7c-0.1-0.5-0.3-1-0.4-1.6c-0.3-1.1-0.4-1.7-0.7-2.9
					c-0.3-1.1-0.4-1.6-0.4-1.8c0-0.9,0.2-1.3,0.3-2.5c0.1-0.7,0-1.3,0-1.7c0.5-0.2,1.3-0.5,2.3-0.6c0.8-0.1,2-0.4,2,0.1
					C247.9,328.9,248.2,330,248.4,330.6z"/>
				<path d="M251,336.3c-0.8,0.1-1.8,0.2-3,0.5c-1.7,0.5-2.9,1.2-3.8,1.8c-0.2-0.9-0.5-1.8-0.7-2.7c0.4-0.5,1.3-1.3,2.7-1.8
					c1.5-0.6,2.8-0.5,3.4-0.4C250.1,334.5,250.6,335.4,251,336.3z"/>
			</g>
		</g>
		<g>
			<path class="st14" d="M237.7,212.5c0-0.1-0.3-0.6-0.8-0.8c-0.6-0.2-1.2,0.1-1.6,0.8c0.1,0.1,0.5,0.4,1.2,0.5
				C237.1,213,237.6,212.6,237.7,212.5z"/>
			<path class="st18" d="M237.1,212.3c0,0.3-0.2,0.6-0.5,0.6c-0.3,0-0.6-0.2-0.6-0.5c0-0.3,0.2-0.6,0.5-0.6
				C236.8,211.8,237.1,212,237.1,212.3z"/>
			<path d="M237.7,212.5c-0.4-0.7-1.2-1-1.9-0.5c-0.2,0.1-0.4,0.3-0.5,0.5c0-0.1,0.1-0.2,0.2-0.3
				C236.1,211.4,237.4,211.5,237.7,212.5L237.7,212.5z"/>
			<path d="M236.8,212.4c0,0.1-0.1,0.3-0.2,0.3c-0.1,0-0.3-0.1-0.3-0.2c0-0.1,0.1-0.3,0.2-0.3C236.7,212.1,236.8,212.2,236.8,212.4z
				"/>
			<path class="st14" d="M236.4,212.2c0,0.1,0,0.1-0.1,0.1c-0.1,0-0.1,0-0.1-0.1c0-0.1,0-0.1,0.1-0.1
				C236.4,212.1,236.4,212.2,236.4,212.2z"/>
		</g>
		<g>
			<path class="st14" d="M240.6,212.6c0-0.1,0.3-0.6,0.8-0.8c0.6-0.2,1.2,0.1,1.6,0.7c-0.1,0.1-0.5,0.5-1.2,0.5
				C241.2,213,240.7,212.7,240.6,212.6z"/>
			<path class="st18" d="M241.2,212.3c0,0.3,0.2,0.6,0.5,0.6c0.3,0,0.6-0.2,0.6-0.5c0-0.3-0.2-0.6-0.5-0.6
				C241.5,211.8,241.2,212,241.2,212.3z"/>
			<path d="M240.6,212.6c0.4-0.7,1.2-1,1.9-0.5c0.2,0.1,0.4,0.3,0.6,0.5c0-0.1-0.1-0.2-0.2-0.3C242.2,211.3,240.9,211.5,240.6,212.6
				L240.6,212.6z"/>
			<path d="M241.4,212.4c0,0.1,0.1,0.3,0.2,0.3c0.1,0,0.3-0.1,0.3-0.2c0-0.1-0.1-0.3-0.2-0.3C241.6,212.1,241.5,212.2,241.4,212.4z"
				/>
			<path class="st14" d="M241.8,212.2c0,0.1,0,0.1,0.1,0.1c0.1,0,0.1,0,0.1-0.1c0-0.1,0-0.1-0.1-0.1
				C241.9,212.1,241.8,212.2,241.8,212.2z"/>
		</g>
		<path id="XMLID_00000110431966520572029160000003686028818587635643_" class="st19" d="M232.5,206.9c2.8-2.2,11.7-1.9,13-1.6
			c0.2,0.1,0.5,0.6,0.4,1.5c0.3,0.5,0.3,1.3-0.1,1.5c0,0,0,0,0,0c0,0.2-0.2,0.4-0.4,0.4c-1.5-0.1-8.5-0.9-12.3,1.4
			c-0.2,0.1-0.4,0-0.5-0.1c-0.1-0.2-0.2-0.5-0.1-0.9c-0.4-0.3-0.3-1.2-0.2-1.4C232.4,207.3,232.4,207,232.5,206.9z"/>
		<path class="st19" d="M251,224.8c-0.2-1.4-1.4-1.5-1.8-1.4c-0.4-0.7-1-1-1.8-0.7c-0.1-0.5-1.3-0.8-1.6-0.6
			c0.1,2.3-0.3,24.7-3.1,32.9c-0.2,0.7,5.4,3.1,7.4,1.7C250.2,255.6,252.5,231.2,251,224.8z"/>
		<path class="st12" d="M225,267.2c-0.4,3.7-0.9,7.4-1.6,11.2c-0.3,1.6-0.5,3.2-0.8,4.8c3.5,1.3,8.7,2.8,15.1,3.1
			c7.8,0.4,14.1-1.2,18-2.5c-0.3-2.5-0.7-5.1-1.1-7.8c-0.4-2.7-0.9-5.4-1.3-8c-2.4,1.3-9.2,4.5-17.8,3.1
			C230.8,270.4,227.2,268.6,225,267.2z"/>
		<path class="st13" d="M236.9,228.3c-0.2,0.1-0.6,0.3-0.9,0.7c-0.8,0.9-0.7,1.8-1,1.9c-0.5,0.1-1.2-1.7-1.5-2.6
			c-0.3-0.8-0.6-2-0.6-3.7c0-1.1,0.2-1.9,0.4-2.5c0-0.1,0.1-0.5,0.5-0.7c0.4-0.3,0.8-0.2,0.9-0.2c-0.2,0.3-1.1,1.8-0.7,3.7
			C234.5,227.2,236.7,228.2,236.9,228.3z"/>
		<path class="st13" d="M241.1,228.3c0.2,0.1,0.6,0.4,0.9,0.7c0.7,0.9,0.5,1.9,0.9,2c0.5,0.1,1.3-1.6,1.6-2.5c0.3-0.8,0.8-2,0.8-3.6
			c0-0.8,0-1.5-0.1-2c0-0.3-0.1-0.5-0.1-0.6c-0.1-0.2-0.1-0.5-0.2-0.6c-0.2-0.4-0.8-0.6-1.1-0.6c0.2,0.5,0.4,1.2,0.4,2
			C244.1,226.1,241.4,228,241.1,228.3z"/>
		<g>
			<path class="st13" d="M241.1,228.3c-0.7,2-1.8,3.9-2,6.1c-0.3,3.2-0.2,6.5-0.1,9.7c0,0-0.1-0.1-0.1-0.1c0.8,0,1.6,0,2.4,0
				c-0.8,0.1-1.6,0.2-2.5,0.3c-0.3-3.8-0.6-7.8,0.2-11.6C239.5,231.2,240.3,229.8,241.1,228.3L241.1,228.3z"/>
		</g>
		<circle class="st13" cx="240.1" cy="233.9" r="0.5"/>
		<circle class="st13" cx="239.9" cy="238.6" r="0.5"/>
		<circle class="st13" cx="239.9" cy="242.7" r="0.5"/>
	</g>
</g>
</svg>
