<?xml version="1.0" encoding="utf-8"?>
<!-- Generator: Adobe Illustrator 26.0.1, SVG Export Plug-In . SVG Version: 6.00 Build 0)  -->
<svg version="1.1" id="Layer_1" xmlns="http://www.w3.org/2000/svg" xmlns:xlink="http://www.w3.org/1999/xlink" x="0px" y="0px"
	 viewBox="0 0 1000 568" style="enable-background:new 0 0 1000 568;" xml:space="preserve">
<style type="text/css">
	.st0{clip-path:url(#SVGID_00000163795146020687518020000015229146468540827299_);fill:#BDDEEF;}
	.st1{clip-path:url(#SVGID_00000163795146020687518020000015229146468540827299_);}
	.st2{fill:#52A7C1;}
	.st3{clip-path:url(#SVGID_00000163795146020687518020000015229146468540827299_);fill:#99CCE0;}
	.st4{fill:#C68758;}
	.st5{fill-rule:evenodd;clip-rule:evenodd;fill:#E6E7E8;}
	.st6{fill-rule:evenodd;clip-rule:evenodd;fill:#FBD2C0;}
	.st7{fill-rule:evenodd;clip-rule:evenodd;fill:#F4C3AF;}
	.st8{fill-rule:evenodd;clip-rule:evenodd;fill:#EAEAEA;}
	.st9{fill-rule:evenodd;clip-rule:evenodd;fill:#A8A8A8;}
	.st10{fill-rule:evenodd;clip-rule:evenodd;fill:#3A2E2C;}
	.st11{fill-rule:evenodd;clip-rule:evenodd;fill:#FAC7B3;}
	.st12{fill-rule:evenodd;clip-rule:evenodd;fill:#404041;}
	.st13{fill-rule:evenodd;clip-rule:evenodd;fill:#A15641;}
	.st14{fill-rule:evenodd;clip-rule:evenodd;fill:#F48120;}
	.st15{fill-rule:evenodd;clip-rule:evenodd;fill:#F8A98E;}
	.st16{fill:#3C3837;}
	.st17{fill-rule:evenodd;clip-rule:evenodd;fill:#ECAD94;}
	.st18{fill-rule:evenodd;clip-rule:evenodd;fill:#E1B09D;}
	.st19{fill-rule:evenodd;clip-rule:evenodd;}
	.st20{fill-rule:evenodd;clip-rule:evenodd;fill:#FFFFFF;}
	.st21{fill-rule:evenodd;clip-rule:evenodd;fill:#D97436;}
	.st22{fill-rule:evenodd;clip-rule:evenodd;fill:#F48245;}
	.st23{fill-rule:evenodd;clip-rule:evenodd;fill:#808184;}
	.st24{fill-rule:evenodd;clip-rule:evenodd;fill:#50648F;}
	.st25{fill-rule:evenodd;clip-rule:evenodd;fill:#C66B31;}
	.st26{fill-rule:evenodd;clip-rule:evenodd;fill:#020202;}
	.st27{fill:url(#SVGID_00000165210050520043889480000016482553453377480079_);stroke:#CFCFCF;stroke-width:5.923329e-02;}
	.st28{fill:url(#SVGID_00000106868136224520994630000007032875624410918585_);}
	.st29{fill:url(#SVGID_00000097480938338841965190000007921197138061796766_);}
	.st30{fill:url(#SVGID_00000106867933147203435520000000614892088152685733_);}
	.st31{fill:url(#SVGID_00000140725633052896247640000007961644900600640700_);}
	.st32{fill:url(#SVGID_00000029036147354084342700000017443525941881512341_);}
	.st33{fill:url(#SVGID_00000177466546592881401850000005420025194230466227_);}
	.st34{fill:url(#SVGID_00000020398197360950588400000010453628238597995439_);}
	.st35{fill:url(#SVGID_00000024698289714194755620000014222363948531110581_);}
	.st36{fill:url(#SVGID_00000032627260575501363240000014186003863249677744_);}
	.st37{fill:url(#SVGID_00000052096257586857651780000012272487366596902315_);}
	.st38{fill:url(#SVGID_00000105401404498289504290000014910499375643885193_);}
	.st39{fill:url(#SVGID_00000076598179110808038620000009131573875508903861_);}
	.st40{fill:url(#SVGID_00000101072801286837005360000007809834631197430691_);}
	.st41{fill:#222222;}
	.st42{fill:url(#SVGID_00000165950556788049532770000000673071161034524294_);}
	.st43{fill:url(#SVGID_00000163780798059631801650000002914550230261090700_);}
	.st44{fill:#313131;}
	.st45{fill:url(#SVGID_00000085970819487230814650000013209903316933469060_);}
	.st46{fill:#020202;}
	.st47{clip-path:url(#SVGID_00000163795146020687518020000015229146468540827299_);fill:#020202;}
</style>
<g>
	<defs>
		<path id="SVGID_1_" d="M528.1,528.6c-216,9.6-410.1-68.3-409.8-124.2c0.1-17.8,19.9-29,17.6-59.7c-2.3-30.8-23.3-36-33.7-71.3
			c-1.3-4.5-15.5-58.2,13.7-92.9c18.7-22.2,50.6-28.8,79.5-26.5c28.9,2.3,56.8,12,85.5,16.4s60.3,2.7,83.4-14.9
			c27.3-21,35.6-58.5,58-84.7c26-30.4,71.9-41.9,109.2-27.4c21,8.2,38.5,23.4,59.3,32.2c28.1,12,59.8,11.3,90.4,10.4
			c30.6-0.9,62.2-1.8,90.4,9.9s52.3,39.5,49.3,69.9c-2.6,26.2-24,50.3-17.5,75.8c9.6,37.4,65.4,39.7,66.7,70.9
			c0.7,17.5-16.7,22.4-19.9,50.6c-2.4,21.7,6.3,33.2,6.8,42.7C859.3,446.1,719.2,520.1,528.1,528.6z"/>
	</defs>
	<clipPath id="SVGID_00000183971093012115360940000003984125685300085647_">
		<use xlink:href="#SVGID_1_"  style="overflow:visible;"/>
	</clipPath>
	
		<rect x="81.8" y="-110.3" style="clip-path:url(#SVGID_00000183971093012115360940000003984125685300085647_);fill:#BDDEEF;" width="831.2" height="656.4"/>
	<g style="clip-path:url(#SVGID_00000183971093012115360940000003984125685300085647_);">
		<path class="st2" d="M78.8,303.1c-4.1-8.5-4.3-19,0.5-27.1s14.9-13.1,24-10.8s15.9,12.4,13.4,21.5c-1.6-17.8,11.6-35.7,29-39.5
			s36.9,7.2,42.6,24.1c-1.6-11.5,9.4-22.1,20.9-22.9c11.6-0.7,22.6,6.3,29.6,15.6c7,9.3,10.8,20.5,14.4,31.5
			c3-18.5,19.9-33.7,38.6-34.8s37.3,12,42.5,30c-0.3-17,10.6-33.6,26.4-40c15.7-6.4,35.2-2.1,46.8,10.3
			c3.1-14.4,21.4-19.9,35.9-17.4c21.7,3.8,40.7,20,47.9,40.7c4.5-17,20.8-30.2,38.5-31s35.1,10.9,41.1,27.4
			c9.2-14,22-26.3,37.9-31.6s35.1-2.3,46.5,10s12.1,34.1-0.6,45c-10.2,8.8-24.9,9-38.2,10.8c-39.4,5.3-78.4,28.8-116.4,17.1
			c-12.5-3.8-24.1-11.4-37.2-11.8c-18.2-0.6-37.2,12.7-53.6,4.6c-6.2-3.1-11-9-17.8-10.7c-8.8-2.1-17.3,3.6-25.4,7.4
			c-22.6,10.6-51.1,7-70.3-8.8c-31,13.8-65.4,19.8-99.2,17.3c-25.5-1.9-50.6-8.5-76.2-8.8c-9.2-0.1-18.6,0.5-27.5-1.9
			c-8.9-2.4-17.5-8.8-19.3-17.8"/>
	</g>
	<g style="clip-path:url(#SVGID_00000183971093012115360940000003984125685300085647_);">
		<path class="st2" d="M364.6,297.3c-4.1-8.5-4.3-19,0.5-27.1s14.9-13.1,24-10.8c9.1,2.3,15.9,12.4,13.4,21.5
			c-1.6-17.8,11.6-35.7,29-39.5c17.5-3.7,36.9,7.2,42.6,24.1c-1.6-11.5,9.4-22.1,20.9-22.9c11.6-0.7,22.6,6.3,29.6,15.6
			c7,9.3,10.8,20.5,14.4,31.5c3-18.5,19.9-33.7,38.6-34.8c18.7-1.1,37.3,12,42.5,30c-0.3-17,10.6-33.6,26.4-40s35.2-2.1,46.8,10.3
			c3.1-14.4,21.4-19.9,35.9-17.4c21.7,3.8,40.7,20,47.9,40.7c4.5-17,20.8-30.2,38.5-31s35.1,10.9,41.1,27.4
			c9.2-14,22-26.3,37.9-31.6c15.9-5.2,35.1-2.3,46.5,10s12.1,34.1-0.6,45c-10.2,8.8-24.9,9-38.2,10.8
			c-39.4,5.3-78.4,28.8-116.4,17.1c-12.5-3.8-24.1-11.4-37.2-11.8c-18.2-0.6-37.2,12.7-53.6,4.6c-6.2-3.1-11-9-17.8-10.7
			c-8.8-2.1-17.3,3.6-25.4,7.4c-22.6,10.6-51.1,7-70.3-8.8c-31,13.8-65.4,19.8-99.2,17.3c-25.5-1.9-50.6-8.5-76.2-8.8
			c-9.2-0.1-18.6,0.5-27.5-1.9c-8.9-2.4-17.5-8.8-19.3-17.8"/>
	</g>
	<path style="clip-path:url(#SVGID_00000183971093012115360940000003984125685300085647_);fill:#99CCE0;" d="M670.9,546.2H318.7
		c-130.8,0-236.9-106-236.9-236.9v-5.2H913v0C913,437.8,804.6,546.2,670.9,546.2z"/>
	<g style="clip-path:url(#SVGID_00000183971093012115360940000003984125685300085647_);">
		<path class="st4" d="M621.3,309.9C621.3,309.9,621.2,309.9,621.3,309.9c-0.1,0-0.1-0.1-0.1-0.2c0.1-0.2,0.2-0.4,0.3-0.7
			c0.1-0.2,0.2-0.5,0.2-0.7c0-0.1,0.1-0.1,0.1-0.1c0.1,0,0.1,0.1,0.1,0.1c-0.1,0.3-0.2,0.5-0.3,0.7
			C621.6,309.4,621.5,309.6,621.3,309.9C621.3,309.9,621.3,309.9,621.3,309.9z"/>
	</g>
	<g style="clip-path:url(#SVGID_00000183971093012115360940000003984125685300085647_);">
		<path class="st4" d="M623.3,309.6C623.2,309.6,623.2,309.6,623.3,309.6c-0.1,0-0.1-0.1-0.1-0.2c0.1-0.2,0.2-0.4,0.3-0.7
			c0.1-0.2,0.2-0.5,0.2-0.7c0-0.1,0.1-0.1,0.1-0.1c0.1,0,0.1,0.1,0.1,0.1c-0.1,0.3-0.2,0.5-0.3,0.7
			C623.6,309.1,623.5,309.3,623.3,309.6C623.3,309.6,623.3,309.6,623.3,309.6z"/>
	</g>
	<g style="clip-path:url(#SVGID_00000183971093012115360940000003984125685300085647_);">
		<path class="st4" d="M625,310C624.9,310,624.9,310,625,310c-0.1,0-0.1-0.1-0.1-0.2c0.1-0.2,0.2-0.4,0.3-0.7
			c0.1-0.2,0.2-0.5,0.2-0.7c0-0.1,0.1-0.1,0.1-0.1c0.1,0,0.1,0.1,0.1,0.1c-0.1,0.3-0.2,0.5-0.3,0.7C625.3,309.5,625.2,309.7,625,310
			C625,310,625,310,625,310z"/>
	</g>
	<g style="clip-path:url(#SVGID_00000183971093012115360940000003984125685300085647_);">
		<ellipse class="st5" cx="472.6" cy="408.8" rx="62" ry="8.5"/>
		<path class="st6" d="M460.6,290.7c-3.3-0.3-17.6-0.4-18.7-0.1c-1.1,0.3-9.9,18.5-9.9,18.5s-10-0.7-8.4-1.4
			c1.6-0.6,12.5-25.1,15.8-26.2c3.3-1.1,19.8-2.5,23.7-2.3C467.1,279.4,464.3,291.5,460.6,290.7z"/>
		<path class="st7" d="M444.4,290.5c-1.3,0-2.2,0.1-2.4,0.2c-0.7,0.2-5,8.6-7.7,14c0.4-1.6,5.1-10.5,6.8-14.8
			c0.5-1.2,0.1-3.2,0.1-3.2c-0.2,0,2.8,3.3,3.8,3.4C445.1,290,444.8,290.2,444.4,290.5z"/>
		<path class="st6" d="M485.5,307.8c1,0.1,5.2,10.6,8.5,11c3.2,0.4,31.2-7.1,30.5-9c-0.6-1.9-2.9-5.3-2.9-5.3s-22.3,3.3-23.5,3.1
			c-1.2-0.1-4.2-5.6-4.2-5.6L485.5,307.8z"/>
		<path class="st8" d="M478.5,283.2c3.7-0.3,8.2,2.2,10.5,5c2.4,2.8,12.1,16.5,11,17.1c-1.1,0.6-13.2,10.2-13.2,9.3
			c0-0.9-16.2-19.6-15.4-20.4C472.1,293.4,478.5,283.2,478.5,283.2z"/>
		<path class="st8" d="M482.2,282.9c6.4,6.8,4.6,13.8,0,25.7c-3.7,9.5-8.5,21.8-8.1,27.4c-17.1-12.3-32.7-8.2-30.7-10.4
			c4.1-4.6,15.7-51.8,29.5-46.8C476.3,280.1,482.2,282.9,482.2,282.9z"/>
		<path class="st9" d="M473.6,279.1c-1.9-0.9-3.3-1.1-3.9-0.4c-2.5,2.8,4.3,16.4,9.7,17.8c5.6,1.4,2.9-10.2,2.2-11.1
			c-3-4.1-7.7-6.1-7.7-6.1L473.6,279.1z"/>
		<path class="st10" d="M465.1,255.4c-0.2,5.4,0.9,9.7,1.7,12.4c1.7,5.3,4.2,8.6,5.7,9.7c0.1,0.1,2.2,1.6,2.2,1.5c0,0,0,0,0,0
			c0-0.1,1.4-11.5,1.4-11.5C472.4,263.5,468.8,259.5,465.1,255.4z"/>
		<path class="st11" d="M475.8,270.8c-0.8-0.1-1,7-5.3,7.7c-1,1.6,5.1,15.8,9.8,16.9c1.2,0.3,1.4-1.3,1.5-4.2c0.1-2-0.8-3.7-0.3-5.5
			c0.9-3.5,5.5-6.2,4.8-6.3C484.5,279.2,476.6,270.9,475.8,270.8z"/>
		<path class="st8" d="M468.9,278.7c-8.6-1.7-28.9,0.4-28.5,1.8l3.4,15c0.1,0.2,6.4,0,17.8,1.5C464.9,297.5,470.4,278.5,468.9,278.7
			z"/>
		<path class="st6" d="M457.5,351.2c-0.5,1-7.3,16.6-9,17.9c-1.7,1.4-34,19.4-34.4,18.3c-0.3-1.2-3.7-6.4-2.2-7.7
			c1.5-1.4,14.8-10.4,26-18.1c0.7-1.7,7.5-21,7.5-21L457.5,351.2z"/>
		<path class="st8" d="M438.9,374.1c-1.8-0.4-5.6-7.5-6.6-8.5c-1-1-19.4,12.9-19.3,13.9c0.1,0.9,1.1,7.6,2.7,7.5
			C417.2,386.9,440,374.8,438.9,374.1z"/>
		<path class="st8" d="M443.3,325c-0.8,0.3-4.6,4.2-5.3,5.4c-3.7,6.8,11.5,13.9,16.5,8c1.7-2-1.6-11.9-4.3-13.3
			C447.6,323.7,443.3,325,443.3,325z"/>
		<path class="st12" d="M465.7,340.3c-5.1,13.2-10.2,23.7-14.8,31.1c0,0-18.2-9.4-18.3-10.7c2.6-4.8,9.3-14.5,13.1-27.5
			C452.7,332.7,458.1,337.7,465.7,340.3z"/>
		<path class="st6" d="M463.2,348.2c6.5,4.1,10,5.5,17.2,6.8c5.7,4.9,21.5,20.5,22.8,21.3c1.2,0.8,7.6-5.5,6.5-6.3
			c-1.1-0.8-19.3-24.1-21.7-25.7c-2.4-1.5-14.8-8.4-14.8-8.4L463.2,348.2z"/>
		<path class="st8" d="M497.5,354.7c-1.2,0.4-10.5,6.4-9.3,7.7c0,0,15.4,15.8,15.7,15.7c0.3-0.1,5.1-2.7,5.8-3.4
			c0.7-0.6,1.1-2.7,1.1-2.7L497.5,354.7z"/>
		<path class="st12" d="M497.5,354.7c-1.2,0.4-11,6.4-9.7,7.7c0,0,2.8,3.5,3.3,2.9c2.9-2,7.2-5.2,9.4-6.8L497.5,354.7z"/>
		<path class="st12" d="M439.9,336c0.3,10,30.7,25.5,32.6,25.4c1.9-0.1,12.7-19.2,11.2-19.6c-0.6-0.1-5.7-3.9-11.8-7.6
			c-5.9-3.5-12.7-6.9-17.5-9.4C445.1,320.1,439.6,326,439.9,336z"/>
		<path class="st12" d="M509.8,365.9c2.3-1,3.5,1.4,6.9,1c6.7-0.9,18.8-18.3,13.8,0.5c-1.4,5.1-13.6,18.8-17.8,20.5
			c-4.2,1.7-8.6-2.6-9.8-5.9c-1.2-3.3-2.5-6-2.5-6s4,0.9,5.3-1.1C507.8,371.6,505,368,509.8,365.9z"/>
		<path class="st13" d="M515.9,385.5c-1.3,1.1-2.5,1.9-3.3,2.3c-4.2,1.7-8.6-2.6-9.8-5.9c-0.1-0.4-0.3-0.7-0.4-1.1
			c2.1-0.4,5.8-1.1,9,0.7C513.9,382.9,515.3,384.5,515.9,385.5z"/>
		<path class="st12" d="M415.5,377c-1.7,3.1-0.9,6.1,1.4,6.8c2.5,0.8,5.7-0.1,5.8-0.1c1.6,1.2,1.1,3.1,0.8,4.5
			c-0.3,1.4-2.8,7.3-1.1,9.9c1.7,2.6,5.7,5.1,4,6.9c-1.7,1.9-8.7,0.8-12.4-0.9c-5.6-2.7-11.3-18.8-8.4-22.2
			C406.7,380.7,416.3,375.4,415.5,377z"/>
		<path class="st14" d="M415.6,376.9c-1.7,3.1-1.1,6.1,1.2,6.9c0.8,0.3,1.8,0.3,2.7,0.3c-0.3,1.2-0.9,2.5-1.8,3
			c-1.6,0.7-4.5-1.9-5.1-4.4c-0.5-2.5-0.6-3.9,0-5.1C414.1,375.3,416,376.4,415.6,376.9z"/>
		<path class="st13" d="M416.9,383.7c1.8,0.2,4.6-0.8,5.7,0c1.6,1.2,1.1,3.1,0.8,4.5c-0.3,1.4-2.8,7.3-1.1,9.9
			c0.3,0.4,0.6,0.8,0.9,1.2c-0.8,0.2-1.8,0.3-2.7,0.3c-2.1,0-3.6-0.7-4.2-4.3c-0.6-3.7,0.1-11,0.5-11.4
			C416.8,383.9,416.9,383.8,416.9,383.7z"/>
		<path class="st15" d="M426.4,403.1c0.4,0.7,0.5,1.4-0.1,2c-1.7,1.9-8.7,0.8-12.4-0.9c-5.6-2.7-11.8-19.1-8.9-22.5
			c0.3-0.4,1.4-0.7,1.7-0.7c0,2.7,0.1,7,1.1,11c1.1,4,3.4,8.3,7.2,10.5c3.9,2.2,6.4,1.5,8.6,1C424.7,403.3,425.6,403.1,426.4,403.1z
			"/>
		<path class="st6" d="M501.6,240.7c2.1,1.1,6,3.6,8,8c2.7,5.9,1.2,12.7-1.3,19.1c-0.6,1.5-0.1,5.2-1,6.6c-3.2,5.1-7.1,8.9-12,10.3
			c-8,2.2-14.5-2-16.1-3.1c-3.9-2.5-6-5.7-6.7-6.9c-3.8-6.3-3.1-12.7-2.8-14.7c-0.2-2.1-0.8-9.9,4.5-16
			C481.2,235.9,493.9,236.5,501.6,240.7z"/>
		<g>
			<path class="st16" d="M498.2,262.5c-1.9-2.5-5.3-3.5-8.4-2.7c1.5-0.5,3.2-0.7,4.8-0.4c1.6,0.3,3.1,1.2,4.3,2.4L498.2,262.5
				L498.2,262.5z"/>
		</g>
		<g>
			<path class="st16" d="M504.5,263.4c1.8-0.4,3.7,0.3,4.8,1.7c-0.6-0.5-1.4-0.9-2.2-1c-0.8-0.1-1.6,0-2.3,0.3L504.5,263.4
				L504.5,263.4z"/>
		</g>
		<path class="st10" d="M509.5,255.3c0.2,0.1,0.8,0.5,1.2,1.2c0.3,0.5,0.3,1.1,0.3,1.3c1-1.4,3.3-5.3,2.1-9.5
			c-0.4-1.4-1-2.4-1.6-3.1c-8.1-10.8-18.7-11.7-18.7-11.7c-6.6-0.6-11.7,1.9-13.9,3.2c-1.4-0.4-3.4-0.7-5.6,0
			c-6.5,2.2-8.3,12.5-8.2,18.8c0.1,10.4,6.1,19.5,6.8,19.3c0,0,0,0,0,0c-0.8-2.9-2.9-19.9,0.7-19.5c3.5,0.4,5,1.1,5.1,2.5
			c0.1,1.4-0.1,5,0.5,6.4c0.9,2.1,2.4-3.1,3.3-5.7c1-3,0.2-6.8,1.7-7.7c1.7,1,3.6,1.9,5.7,2.7C497.1,256.7,504.8,256.1,509.5,255.3z
			"/>
		<path class="st12" d="M494.6,262.3c0.3,0.2,0.3,0.7,0,1.3c-0.3,0.5-0.8,0.9-1.1,0.7c-0.3-0.2-0.3-0.7,0-1.3
			C493.8,262.5,494.3,262.2,494.6,262.3z"/>
		<path class="st12" d="M506.2,266c0.3,0.2,0.3,0.7,0,1.3c-0.3,0.5-0.8,0.9-1.1,0.7c-0.3-0.2-0.3-0.7,0-1.3
			C505.4,266.2,505.9,265.9,506.2,266z"/>
		<path class="st6" d="M469.1,256.7c-1.8,3.8-0.9,11,4.3,11.4c2.9,0.2,4.4-6.8,4.7-9.6C478.5,255,470.8,252.9,469.1,256.7z"/>
		<path class="st17" d="M501.9,273.7c-2,1.6-5.8-0.6-4.8-1.1C497.1,272.6,503.9,272.1,501.9,273.7z"/>
		<path class="st17" d="M485.7,274.9c0.1,0.5,0.4,1,0.7,1.6c1.7,3,6.6,4.8,10.8,3.9c-0.4-1.3-2-2.9-4.5-4.1
			C490.1,274.9,487.3,274.5,485.7,274.9z"/>
		<path class="st8" d="M469.7,332.4c-0.5,1.6-6.1-4.4-15-4.4c-8.9,0-14.8,0.7-16.7,2.4c-1.9,1.7,16.4-31.8,16.4-31.8
			C453.6,322.8,465.6,318.9,469.7,332.4z"/>
		<path class="st6" d="M524.1,311c0,0,3-0.3,6-0.9c3-0.6,3.1-1.8,3-2.7c-0.1-0.9-0.6-1.4-0.6-1.4s1-1.1,1-1.9c0.1-0.8-1-1.5-1-1.5
			s0.2-1.3-0.4-2.1c-0.5-0.9-1.1-0.9-1.1-0.9s0-1.3-1-1.9c-1-0.6-2.9-0.6-3.5-0.5c-0.6,0.1-0.9,0.1-0.9,0.1s-0.8-0.3-2-0.2
			c-1.2,0-4.3,7.1-4.3,7.8C519.5,309.6,516.6,309.1,524.1,311z"/>
		<path class="st15" d="M530.5,367.3c2.3-8.8,0.9-9.7-2-8c0,0.1,0,0.2,0,0.4c0.8,6.7-8.4,23.2-17.6,26.5c-1.3,0.5-3.2,0.2-4.5,0.3
			c1.8,1.4,4.1,2.1,6.3,1.2C516.8,386.1,529.1,372.4,530.5,367.3z"/>
		<path class="st14" d="M509.9,369.7c-0.3,0.5-0.6,5.4-3.5,7.2c-2.9,1.8-5.5,1.1-6.1,0.3c-0.5-0.8-0.1-2.6,0.2-2.7
			c0.3-0.1,2.4,1.1,3.9,0.2c1.5-0.9,1.1-5.4,2.1-5.9C507.5,368.3,509.9,369.7,509.9,369.7z"/>
		<path class="st13" d="M523.8,362.8c-1.2,0.9-4.4,3.8-3.7,6.6c-4.5,3.6-17.3,3.4-14.1-2.5c1.3-2.3,2.6-2.8,4.3-2.4
			C513.7,365.2,514.6,368.8,523.8,362.8z"/>
		<path class="st18" d="M528.1,300.5c0.4,1,0.5,2,0,2.7c-0.8,1.1-1.4,1-2,0.6c-0.2-0.2-0.4-0.4-0.6-0.6l-0.1-0.1
			c-0.2,1.7-1.4,3.5-2.9,2.1c2.7,0.8,2.6-2.3,2.1-4.5c0.4,0.9,0.5,1.5,1.2,2.2c0.2,0.2,0.4,0.4,0.5,0.5c0.4,0.3,0.8,0.3,1.4-0.5
			c0.4-0.6,0.3-1.4,0-2.3c-0.5-1.3-1.3-2.8-2-3.4C527,297.8,527.6,299.2,528.1,300.5z"/>
		<path class="st18" d="M527.6,300l-0.2-0.4c2-0.3,3.2-0.3,3.8,0C531.1,299.5,527.3,299.6,527.6,300z"/>
		<path class="st18" d="M528.2,302.8c-0.1,0-0.2,0-0.3,0l0.1-0.4c0,0,0,0,0.1,0c0.3-0.1,1.7-0.3,2.7-0.2c1.3,0.1,1.8,0.4,1.8,0.4
			C531.3,302.5,529.5,302.6,528.2,302.8z"/>
		<path class="st18" d="M528.9,306.1c-0.6,0-1.2,0-1.8-0.1c-0.6-0.1-1-0.4-1.3-0.9c-0.5-1,0.1-1.7,0.1-1.7l0.3,0.3
			c0,0-0.4,0.5-0.1,1.2c0.2,0.4,0.5,0.6,1,0.7c0.8,0.2,4.4,0.4,5.3,0.4C531.5,306.2,530.1,306,528.9,306.1z"/>
		<path class="st18" d="M528,306c-0.5,0.1-0.9,0.4-1.2,0.7c-1.2,1.4,3,2.1,3.6,2.4c0,0-0.5,0-1.7-0.3c-1.2-0.3-1.9-0.6-2.2-1
			c-0.2-0.2-0.3-0.5-0.3-0.7c0-0.2,0.1-0.5,0.3-0.7c0.3-0.4,0.9-0.6,1.4-0.7L528,306z"/>
		<path class="st6" d="M427.6,306.1c-4,0.8-5.7,3.3-8.2,6.4c-2,2.4-1.3,3.3-0.7,4c0.6,0.6,1.3,0.8,1.3,0.8s0.5,1.2,1,1.8
			c0.4,0.7,1.6,0.3,1.6,0.3s0.7,1.1,1.6,1.4c0.9,0.4,1.5,0,1.5,0s0.8,1,1.9,0.9c1.1-0.2,2.7-1.3,3.1-1.8c0.4-0.5,0.7-0.7,0.7-0.7
			s0.7-0.1,1.6-0.9c0.9-0.8-0.8-3.4-0.9-5.3c-0.1-1.9,0.1-5,0.4-4.8C432.7,308.3,427.6,306.1,427.6,306.1z"/>
		<path class="st19" d="M481.5,341.3c-0.7,1.7-2,4.1-4.4,7.7c-0.9,1.4-1.8,2.7-2.5,3.8c-2.3,3.5-3.9,5.9-4.9,7.4
			c1.6,0.7,2.6,1.1,2.9,1.1c0.8,0,3.3-3.6,5.7-7.7c2.5-4.2,5-9,5.5-11c0.2-0.5,0.2-0.9,0-0.9c-0.2,0-0.9-0.5-2-1.2
			C481.7,340.8,481.6,341.1,481.5,341.3z"/>
		<path class="st19" d="M450.5,367.3c-3-1.7-7.4-4.3-11.1-6.5c-2-1.2-3.9-2.3-5.1-3c-0.7,1.1-1.2,2.1-1.7,2.9c0,0.5,2.3,1.9,5.2,3.6
			c3.6,2.1,8.1,4.5,10.8,5.9c1.4,0.7,2.3,1.2,2.3,1.2c0.6-0.9,1.1-1.9,1.7-2.9C452.1,368.2,451.3,367.8,450.5,367.3z"/>
		<path class="st12" d="M432.3,365.6c-0.6-0.6-1.8,0.5-3.9,1.9c0.1,0.2,0.2,0.4,0.3,0.5c0.4,0.6,0.4,0.7,1.5,2.3
			c1.1,1.7,2.4,4.2,3.8,5.5c0.2,0.1,1,0.9,1.2,1c2.1-0.5,4.6-2.5,4.3-2.7C437.7,373.8,432.9,366.2,432.3,365.6z"/>
		<path class="st13" d="M411.7,380c0-0.7,0.1-1.3,0-1.8c-1.7,0.9-3.7,2-4.9,2.8c0,0,0,0,0,0c0,1.7,0,3.9,0.3,6.3
			c1.1,0,2.1-0.4,2.8-1.2c1-1.2,1.4-3,1.6-4.8C411.6,380.8,411.6,380.4,411.7,380z"/>
		<path class="st7" d="M423.9,307.6c-0.1,0.1-0.1,0.1-0.2,0.1c-0.1,0-0.1,0.1-0.2,0.1c-1.5,1.2-2.7,2.8-4.2,4.6
			c-2,2.4-1.3,3.3-0.7,4c0.6,0.6,1.3,0.8,1.3,0.8s0.5,1.2,1,1.8c0.4,0.7,1.6,0.3,1.6,0.3s0.7,1.1,1.6,1.4c0.9,0.4,1.5,0,1.5,0
			s0.8,1,1.9,0.9c1.1-0.2,2.7-1.3,3.1-1.8c0.4-0.5,0.7-0.7,0.7-0.7s0.7-0.1,1.6-0.9c0.9-0.8-0.8-3.4-0.9-5.3c-0.1-1,0-2.4,0.1-3.4
			c-0.3,0.5-0.6,1-0.6,1.4c-0.1,1.9,0.9,6.5,0.5,7c-0.5,0.5-1-0.3-1-0.3l-0.2,1.3c0,0-1.9,1.5-2.8,1.6c-0.9,0.1-1.7-0.7-1.7-0.7
			s-0.6,0.9-1.5,0.4c-0.9-0.5-1.2-1-1.5-1.5c-0.3-0.4-0.7-0.1-1.4-0.4c-0.7-0.3-1.3-1.5-1.4-1.9c-0.1-0.4-1.7-0.6-1.1-2
			c0.5-1.1,3.7-5.2,5.2-6.4c0,0,0,0,0,0c0.3-0.3,1.4,0.2,1.5,0.3c0,0-0.7-0.7-0.5-1.1c0.1-0.2,0.3-0.6,0.5-0.9
			c2.8-5.3,12-23.3,14.7-24.2l-0.2-0.9c-0.4,0.1-0.8,0.2-1,0.3C436.3,282.6,426,305.6,423.9,307.6z"/>
		<path class="st7" d="M499.2,315.6c-2.1-0.4-4.5,0.4-5.7,0.6c-1,0.1-4-1.6-2.7-2.8c3.2-3.1,4.5-4.5,4.3-4.4
			c-0.7,0.3-4.7,3.7-4.8,3.6c-0.4,0.3-0.8,0.6-1.2,0.9c1.5,2.6,3.3,5.2,4.9,5.3c2.8,0.3,24.1-5.2,29.4-8c-1.1-0.3-1.9-0.5-2.6-0.7
			C515.6,311.2,501.3,316.1,499.2,315.6z"/>
		<path class="st7" d="M520.7,310.1c0.6,0.2,1.5,0.4,2.6,0.7c0.3,0.1,0.5,0.1,0.8,0.2c0,0,3-0.3,6-0.9c2.6-0.5,3-1.5,3-2.3
			c-0.1-0.5-0.2-1-0.3-1.3c0,0.6-0.2,1.7-0.8,2.4c-1,1-3.5,1.1-5.7,1.4c-1,0.1-1.7,0.1-2.3,0c-0.7-0.1-1.3-0.3-1.9-0.5
			C522.1,309.8,521.5,309.9,520.7,310.1z"/>
		<path class="st7" d="M471.5,268.4c1.6,0.5,4.1-0.9,3.9-0.9c-2.2,0.5-3.2,1-4.6-0.4c0,1.1,0.1,2.5,0.5,4.2c0.3,1.2,0.7,2.1,1,2.9
			c0.2,0.6,0.5,1.4,1.1,2.3c0.3,0.5,0.7,0.9,1.5,1.6c1.3,1.4,2.7,2.5,4,3.3c0.1,0,0.2,0.1,0.2,0.1c1.1,0.6,2.1,1.1,3.2,1.6
			c0.1,0.1,0.3,0.1,0.4,0.2c7.2,3,12.7,2.3,17.3-0.8c-2.2,0.8-5.3,1.7-8.2,1.7c-3.2-0.1-5.9-0.7-8.3-1.8c-3.6-1.5-6.3-3.9-8.3-6.4
			C473.7,274.3,471.3,270.4,471.5,268.4z"/>
	</g>
	<g style="clip-path:url(#SVGID_00000183971093012115360940000003984125685300085647_);">
		<path class="st5" d="M302.4,444.9c31.4,0,57-3.8,57-8.5c0-4.7-25.6-8.5-57-8.5s-57,3.8-57,8.5C245.4,441.1,271,444.9,302.4,444.9z
			"/>
		<path class="st6" d="M350.5,340.3c2.9,2.9,6,3,10,3.5c3.1,0.4,3.6-0.7,3.8-1.6c0.2-0.9-0.1-1.5-0.1-1.5s0.7-1.1,1.1-1.8
			c0.3-0.7-0.6-1.5-0.6-1.5s0.6-1.2,0.4-2.2c-0.2-1-0.8-1.2-0.8-1.2s0.4-1.3-0.3-2.1c-0.8-0.9-2.6-1.6-3.3-1.7c-0.6-0.1-1-0.2-1-0.2
			s-0.5-0.5-1.6-0.9c-1.2-0.3-2.5,2.5-4,3.7c-1.5,1.1-4.3,2.7-4.3,2.3C349.6,334.6,350.5,340.3,350.5,340.3z"/>
		<path class="st11" d="M327.2,321.6c-2,1.5-16.5,10.6-17.6,10.4c-1.1-0.2,0.1,13.9,0.1,13.9s-5.4,3.1-5.5,3.6
			c0,0-4.2-19.4-1.4-23.6l9.1-12.7L327.2,321.6z"/>
		<path class="st8" d="M320.3,303.7c0,0,11,13.7,9.4,15.6c-1.6,1.9-18.7,13.4-19,13c-0.2-0.5-7.8-10.2-7.5-10.6
			C307.9,316.5,312.9,308.1,320.3,303.7z"/>
		<path class="st11" d="M323.7,381.4c6.6,4.2,13.6,9,16,10.6c0.6,12.7,0.2,19.5,1.5,20.3c1.2,0.9,10.4-1,9.3-1.9
			c-1.1-0.8,1.1-28.8-1.3-30.3c-2.4-1.4-13.2-12.5-13.2-12.5L323.7,381.4z"/>
		<path class="st20" d="M339.7,392.2c0.5,12.6,0.2,19.3,1.5,20.1c1.2,0.9,10.4-1,9.3-1.9c-0.7-0.5-0.1-11.7-0.2-20.4
			C347.4,390.6,341.7,391.8,339.7,392.2z"/>
		<path class="st21" d="M339.7,392.2c0.1,1.4,0.1,2.7,0.2,4c2.6-0.7,7.8-2,10.4-2.7c0-1.2,0-2.3,0-3.4
			C347.4,390.6,341.7,391.8,339.7,392.2z"/>
		<path class="st6" d="M305.7,377.4c-1.8,1.8-12.1,15.4-12.1,15.4s-27.8,26.7-28.8,25.4c-1-1.3-7.2-6.4-5.9-7.2
			c1.3-0.8,21-19.1,22.9-23.4c1.8-4.3,11.6-17,11.6-17L305.7,377.4z"/>
		<path class="st8" d="M325.4,355.5c-1.7,5.1,22.9,22,26.8,27.2c0.2,0.3-19.5,17.4-20.5,16.3c-5.5-5.9-16.4-25-16.4-25
			c-2.9,0.3-13,25.1-15.9,25.1c-6.2,0-21.8-12.3-21.8-12.3c5.5-9,16.6-24.9,20.3-33.2C306.1,355,317.5,352.8,325.4,355.5z"/>
		<path class="st20" d="M336.2,307c11.2,12-2.4,46.1-0.5,61.4c-20.4,10.4-38.4-8.6-39.7-11.3c-1.9-4,9.8-11.3,12.8-37.8
			c0.9-7.6,3.3-12.4,5.9-15.6c0.6-0.8,9.8-1.7,12-0.9C330.3,304,336.2,307,336.2,307z"/>
		<path class="st9" d="M327.4,303.1c-11.4-5,3.6,14.6,8.7,17c2.6,1.2,2.9-1.2,2.6-2.8c-0.1-0.3-0.9-5.8-1.8-7
			c-3-4.1-9.1-7.1-9.1-7.1L327.4,303.1z"/>
		<path class="st11" d="M329.7,294.7c-0.8-0.1-1,7.1-5.4,7.9c4.3,11.1,15.3,21.1,13.6,13.9c-0.4-1.6-0.6-5.6-0.7-6.7
			c-0.1-5,4.1-6,3.2-6.3C338.7,302.9,330.5,294.8,329.7,294.7z"/>
		<path class="st6" d="M323.4,331.4c1,0.1,5.3,10.8,8.6,11.2c3.3,0.4,26.4,0.5,25.7-1.5c-0.7-2,0.3-5.5,0.3-5.5s-21.2-2.2-22.4-2.3
			c-1.2-0.1-3.7-7.8-3.7-7.8L323.4,331.4z"/>
		<path class="st8" d="M308.9,319.3c3.8,6.8,11.7,22.4,13,21.6l13.9-8.6c-3.6-5-13.2-28.9-16-29.5
			C314.3,301.6,304,307.7,308.9,319.3z"/>
		<path class="st12" d="M262.6,405.9c0.7-0.2-0.2,4.5,0.6,6.7c0.8,2.2,5.9-0.3,7.6,1c1.7,1.3,1.1,3.3,0.9,4.8
			c-0.3,1.4-3,7.7-1.2,10.5c1.8,2.8,6,5.4,4.2,7.4c-1.8,2-9.3,0.9-13.1-1c-5.9-2.9-12-19.9-8.9-23.6c2-2.3,5.8-4,7-4.8
			C261.4,405.7,262.6,405.9,262.6,405.9z"/>
		<path class="st6" d="M274.8,434.1c0.4,0.8,0.5,1.5-0.1,2.2c-1.8,2-9.3,0.9-13.1-1c-5.9-2.9-12-19.9-8.9-23.6
			c0.4-0.4,0.8-0.8,1.2-1.2c0,2.9,0.4,8.2,1.3,11.9c1.3,4.9,3.6,8.8,7.7,11.2c4.1,2.4,6.8,1.6,9.1,1
			C273,434.3,274,434.1,274.8,434.1z"/>
		<path class="st12" d="M353,407.9c2.4,0.8,1.6,3.4,4.4,5.4c5.6,3.9,26.2-0.8,9.9,9.7c-4.5,2.9-22.8,4.6-27,3.1
			c-4.2-1.6-4.6-7.7-3.3-10.9c1.3-3.2,2.2-6.1,2.2-6.1s2.4,3.4,4.7,2.8C347.6,410.7,348,406.2,353,407.9z"/>
		<path class="st22" d="M344.2,426.6c-1.7-0.1-3.1-0.2-3.9-0.6c-4.2-1.6-4.6-7.7-3.3-10.9c0.2-0.4,0.3-0.7,0.4-1.1
			c1.9,1.1,5,3.1,6.2,6.6C344.5,423.3,344.4,425.3,344.2,426.6z"/>
		<path class="st6" d="M367.3,422.9c7.7-4.9,7.2-6.5,3.9-7.2c-0.1,0.1-0.2,0.2-0.2,0.3c-3.9,5.5-21.8,11.4-30.9,7.6
			c-1.2-0.5-2.5-2-3.5-2.8c0.4,2.3,1.6,4.3,3.8,5.2C344.5,427.6,362.8,425.8,367.3,422.9z"/>
		<path class="st23" d="M350.4,410.8c-0.6,0.2-4,3.6-7.4,2.9c-3.4-0.6-5.2-3.1-5.1-4c0.1-0.9,0.9-1.9,1.2-1.7
			c0.2,0.1,2.1,2.5,3.9,2.8c1.8,0.3,4.5-3.2,5.5-2.9C349.6,408.2,350.4,410.8,350.4,410.8z"/>
		<path class="st24" d="M365.2,415.3c-1.5,0-5.2,0-7.2,2.4c-5.8-0.4-15.1-9.2-8.8-11.4c2.5-0.9,3.8-0.3,4.8,1.1
			C356.1,410.3,354.4,413.5,365.2,415.3z"/>
		<path class="st23" d="M265.7,416.2c-0.2-0.1-2.7-0.1-4.5-3c-1.8-2.9-1-6-0.4-7.1c0.6-1,2.6-0.5,2.7-0.1c0.1,0.4-0.2,4.6,0.3,5.6
			c0.4,1.1,1.8,1.5,2.4,1.7c0.6,0.2,0.8,0,0.9,0.4c0.1,0.4-0.4,2-0.7,2.3C266.1,416.4,265.7,416.2,265.7,416.2z"/>
		<path class="st24" d="M271.9,412.4c-2-0.5-4.5-1.5-5.5,0.3c-3.2,5.8-3.7,9.9-1.4,15.8c0.2,0.4,2.8-0.3,4.1-0.1
			c1.3,0.2,1.4,0.3,1.4,0.3C269.2,423.5,275.5,413.3,271.9,412.4z"/>
		<path class="st22" d="M256.8,413.4c1-1.5,1.4-4.3,1.6-5.8c-1.3,0.7-3.1,1.7-4.5,2.9c0,1.4,0.1,3.2,0.3,5.2
			C255,415.3,256.1,414.5,256.8,413.4z"/>
		<path class="st6" d="M356.7,266.1c11.4,6.7,9.3,17.6,5.4,27.3c-0.6,1.6-0.3,5.2-1.2,6.7c-6.1,9.8-14.8,12.3-27.5,4.8
			c-5.7-3.3-11.2-15.5-6.2-21.6c-1.4-5.7-5.1-2.6-2-8.1C331.5,263.7,345.3,259.5,356.7,266.1z"/>
		<path class="st7" d="M357.3,304.6c-5.8,5.9-13.5,6.5-24.1,0.3c-4.6-2.7-9.1-11.2-8-17.6l2.3,1.1c-0.3,1.6-0.3,3.2-0.1,4.7
			c0,0.1,1.1,0.8,2.9-0.1c0.2-0.1-0.6,1.8-2.9,0.6c-0.2-0.1,0.1,0.3,0.1,0.5C330.1,306.1,347.6,313.9,357.3,304.6z"/>
		<path class="st6" d="M342.1,276.9c-0.1,0.1-0.2,0.2-0.4,0.3c-2.4,2.2-3.5,5.3-3.9,6.5c-0.2,0.6-2.3,5.9-4,5.6
			c-0.3-0.1-0.5-0.3-0.6-0.4c-0.8-0.9,0.2-2.5-0.2-5.3c-0.1-0.4-0.1-0.6-0.2-0.8c-0.3-0.7-1.2-1.1-2.7-1.4c-0.6-0.1-1.2-0.2-1.9-0.3
			c-0.9-0.1-1.5,0.6-1.9,1.7c-0.9,2.7-0.4,7.8-0.3,8.9c0.3,3.1,1,5.5,1.7,7.1c-2.8-5-4.5-10-5.1-14.7c0.7-3.3,2.4-5.2,3.2-5.9
			c3.6-3.4,8.5-3.1,10.4-2.9C338.9,275.6,340.9,276.3,342.1,276.9z"/>
		<path class="st12" d="M342.1,276.9c-0.1,0.1-0.2,0.2-0.4,0.3c-2.4,2.2-3.5,5.3-3.9,6.5c-0.2,0.6-2.3,5.9-4,5.6
			c-0.3-0.1-0.5-0.3-0.6-0.4c-0.8-0.9,0.2-2.5-0.2-5.3c-0.1-0.4-0.1-0.6-0.2-0.8c-0.3-0.7-1.2-1.1-2.7-1.4c-0.6-0.1-1.2-0.2-1.9-0.3
			c-0.9-0.1-1.5,0.6-1.9,1.7c-0.9,2.7-0.4,7.8-0.3,8.9c0.3,3.1,1,5.5,1.7,7.1c-2.8-5-4.5-10-5.1-14.7c0.7-3.3,2.4-5.2,3.2-5.9
			c3.6-3.4,8.5-3.1,10.4-2.9C338.9,275.6,340.9,276.3,342.1,276.9z"/>
		<path class="st12" d="M365.2,281.3c-3.3,2-11-3.2-12.6-4.3c-2-1.4-3.2-2.5-5.1-2.5c-2.4-0.1-4.4,1.4-5.7,2.7
			c-1.2-0.5-3.2-1.3-5.8-1.4c-2-0.1-6.3-0.4-9.7,2.5c-2.4,2.1-3.2,4.9-3.5,6.3c-0.4-2.4-0.6-5.7,0.2-9.5c0.7-3.7,1.6-7.9,5.2-10.3
			c2.9-1.9,6.3-1.7,7.9-1.5c1.1-0.7,2.8-1.7,5.1-2.3c1.9-0.4,4.4-0.7,8.2,0.4c5.2,1.4,17,6.2,17.6,14.3
			C367.1,276.1,367.3,280.1,365.2,281.3z"/>
		<path class="st12" d="M349.5,287.4c0.4,0.3,0.4,1.2-0.1,2.1c-0.5,0.9-1.3,1.4-1.7,1.2c-0.4-0.3-0.4-1.2,0.1-2.1
			C348.3,287.7,349,287.2,349.5,287.4z"/>
		<path class="st12" d="M360.5,291.5c0.4,0.3,0.4,1.2-0.1,2.1c-0.5,0.9-1.3,1.4-1.7,1.2c-0.4-0.3-0.4-1.2,0.1-2.1
			C359.3,291.7,360.1,291.2,360.5,291.5z"/>
		<path class="st6" d="M325,282.7c-1.8,3.9-1.2,9.3,3.6,10.7c2.6,0.8,4.5-6.2,4.9-9C334,280.8,326.8,278.8,325,282.7z"/>
		<path class="st17" d="M326.7,283.8c-1.2,1.8-0.6,5.5,1,6.7c1.6,1.2,3.1,0.1,3.1-1.1c0-1.3-1.1-1.7-0.7-2.3
			c0.5-0.6,0.9,0.2,1.3-0.8C332.4,283,328.1,281.6,326.7,283.8z"/>
		<path class="st17" d="M356.1,298.9c-2,1.7-5.5-0.5-4.6-1C351.6,297.8,358.1,297.2,356.1,298.9z"/>
		<path class="st20" d="M283.2,402.7c-4-2.9-6.5-6.1-7.3-7.8c-3.9,4.1-8.8,8.8-12.4,12.1c0,1.4-0.1,3.9,0.2,4.6
			c0.4,1,1.6,1.4,2.2,1.6c0.1-0.2,0.2-0.4,0.4-0.6c1.2-1.7,3.5-0.8,5.5-0.3c0.2,0,0.3,0.1,0.5,0.2
			C275.6,409.7,279.6,406.1,283.2,402.7z"/>
		<path class="st21" d="M283.2,402.7c-4-2.9-6.5-6.1-7.3-7.8c-1.3,1.4-2.8,2.9-4.3,4.4c2.3,2.7,5,4.9,7.9,6.9
			C280.7,405,282,403.8,283.2,402.7z"/>
		<path class="st7" d="M331.2,335.1l-4,2.5c1.5,2.5,3.3,4.9,4.8,5.1c0.9,0.1,3.4,0.2,6.4,0.2c4.7,0,10.9-0.1,15-0.5
			c1.2-0.1,2.2-0.3,2.9-0.4c-1.2-0.6-2.2-1.1-2.4-1.3c-0.3-0.3-1.1,0.3-2.4,0.6c-0.1,0-0.1,0-0.2,0c-1,0.1-7.5,0.5-12.6,0.3
			c-2.7-0.1-5-0.3-5.8-0.7C330.6,339.5,331.6,336,331.2,335.1z"/>
		<path class="st7" d="M356.3,341.9c-0.7,0.2-1.7,0.3-2.9,0.4c2.1,1,4.4,1.1,7.1,1.4c3.1,0.4,3.6-0.7,3.8-1.6
			c0.2-0.9-0.1-1.5-0.1-1.5s0.7-1.1,1.1-1.8c0.3-0.7-0.6-1.5-0.6-1.5s0.6-1.2,0.4-2.2c-0.2-1-0.8-1.2-0.8-1.2s0.4-1.3-0.3-2.1
			c-0.4-0.5-1.1-0.9-1.8-1.2c0.5,0.5,1.1,1,1.4,1.4c0.5,0.7,0.4,2.2,0.4,2.2s0.5,0.4,0.8,1.1c0.2,0.8-0.5,1.8-0.5,1.8
			s0.4,0.7,0.6,1.5c0.3,0.8-1.2,2.3-1.2,2.3s0.2,0.6,0,1.3c-0.2,0.6-1.8,1.3-4.2,0.9C358.3,342.7,357.2,342.3,356.3,341.9z"/>
		<path class="st17" d="M351.8,303.3c-0.3,0.1-1.7,0-3.1-0.9c-1.4-0.9-2.3-2.7-2.3-2.7s0.2,2.3,2,3.4
			C350.2,304.2,351.8,303.3,351.8,303.3z"/>
		<path class="st7" d="M284.1,391.6c-1.2-0.8-2.3-1.6-3.3-2.3c-1.1,1.5-2.8,3.4-4.9,5.6c0.4,0.8,1.1,2,2.2,3.2
			C280.5,395.7,282.5,393.5,284.1,391.6z"/>
		<path class="st25" d="M278.1,398.1c-1.1-1.3-1.9-2.4-2.2-3.2c-1.3,1.4-2.8,2.9-4.3,4.4c0.8,1,1.7,1.8,2.6,2.7
			c0.4-0.4,0.9-0.8,1.3-1.3C276.4,399.8,277.3,399,278.1,398.1z"/>
		<path class="st7" d="M341.8,391.8c0.9-0.2,2-0.4,3.1-0.6c0-0.7-0.1-1.3-0.1-1.8c0,0,0,0,0,0c0,0,0,0,0,0
			C343.8,390.1,342.8,390.9,341.8,391.8z"/>
		<path class="st25" d="M344.9,391.1c-1.1,0.2-2.1,0.4-3.1,0.6c0,0,0,0,0,0c-0.7,0.6-1.4,1.1-2,1.7c0,1,0.1,1.9,0.1,2.8
			c1.3-0.3,3.3-0.8,5.3-1.3C345.1,393.5,345,392.3,344.9,391.1C344.9,391.1,344.9,391.1,344.9,391.1z"/>
	</g>
	<g style="clip-path:url(#SVGID_00000183971093012115360940000003984125685300085647_);">
		<path class="st5" d="M636.6,393c-40.9,0-74.2,3.8-74.2,8.5c0,0.9,1.1,1.7,3.2,2.5c-4,0.8-6.7,2-6.7,3.5c0,2.3,7,4.2,15.7,4.2
			c7.8,0,14.3-1.6,15.5-3.6c12.7,1.2,28.9,1.9,46.5,1.9c40.9,0,74.2-3.8,74.2-8.5C710.8,396.8,677.5,393,636.6,393z"/>
		<path class="st6" d="M645.4,290.1c1.3,1.9,8,4.5,9.9,5.2c2,0.6,14.6,16.3,14.6,16.3s6.7-1.9,6.7-1.4c0,0.5-15.9-21.5-15.9-21.5
			l-9.6-7.4L645.4,290.1z"/>
		<path class="st6" d="M607.1,290.5c-2.1,1.1-9.6,2.8-9.8,3.9c-0.2,1.1-26.4,16.4-26.4,16.4s4.3,5.3,3.8,5.2
			c-0.5,0,24.1-12.5,24.1-12.5l11.8-10.3L607.1,290.5z"/>
		<path class="st7" d="M574.4,315.4c0.2,0.4,0.4,0.6,0.3,0.6c-0.5,0,24.1-12.5,24.1-12.5l4.7-4.2c-0.3-1.1-0.6-2-0.6-2
			s-3.5,4.1-8,6.7c-4.5,2.6-18.2,9.6-18.2,9.6S575.6,314.4,574.4,315.4z"/>
		<path class="st8" d="M595.4,295.3c0,0,10.4,10.1,12.3,8.5c1.9-1.6,18.4-20.2,17.9-20.5c-0.5-0.2-13.1-7.4-13.4-7
			C607.3,281.4,601,290.1,595.4,295.3z"/>
		<path class="st6" d="M624.5,349.3c-6.5,4.1-13.9,8.5-16.3,10.1c-0.6,12.5-1.4,30.6-2.7,31.5c-1.2,0.8-10.4-2.4-9.3-3.2
			c1.1-0.8-2.1-35.4,0.3-36.8c2.4-1.4,16-15,16-15L624.5,349.3z"/>
		<path class="st20" d="M608.3,365.7c-0.4-0.5-12.2-2.8-12.8-1.7c-0.6,1.1,0.5,25.4,0.9,25.9c0.4,0.5,11.4,1,10.8,0.2
			C606.7,389.3,608.3,365.7,608.3,365.7z"/>
		<path class="st21" d="M608.3,365.7c-0.4-0.5-12.2-2.8-12.8-1.7c-0.2,0.3-0.2,1.9-0.2,4.3c2.7,0.1,7.6,0.3,10.2,0.7
			c1,0.2,1.8,0.3,2.5,0.4C608.2,367.2,608.3,365.7,608.3,365.7z"/>
		<path class="st6" d="M642.2,345.4c1.8,1.8,11.9,15.1,11.9,15.1s27.2,26.2,28.2,25c1-1.3,7.1-6.3,5.8-7.1
			c-1.3-0.8-20.6-18.7-22.4-23c-1.8-4.2-11.3-16.6-11.3-16.6L642.2,345.4z"/>
		<path class="st20" d="M689.7,378.9c-0.4-0.5-14.6-14.4-16-14.5c-1.3-0.1-8.5,7.4-8.1,7.8c0.1,0.1,1.6,1.2,3.7,3.2
			c4.8,4.6,12.9,12.5,14.6,12C686.4,386.6,689.7,378.9,689.7,378.9z"/>
		<path class="st21" d="M669.7,375.2l6.5-7.9l0.6-0.7c-1.5-1.3-2.7-2.2-3-2.2c-0.1,0-0.2,0-0.4,0.1c-1.6,0.8-5.8,4.9-7.2,6.8
			c-0.3,0.5-0.5,0.7-0.4,0.8c0.1,0.1,1.9,1.5,3.8,3.3L669.7,375.2z"/>
		<path class="st25" d="M674,369.9l2.1-2.6l0.6-0.7c-1.5-1.3-2.7-2.2-3-2.2c-0.1,0-0.2,0-0.4,0.1c-0.6,0.3-1.6,1.1-2.6,2v0
			L674,369.9z"/>
		<path class="st8" d="M619.4,326.8c1.7,5-21.5,16.9-24.7,24.3c-0.1,0.3,19.1,15.5,20.1,14.4c5.4-5.8,19.2-21.3,19.2-21.3
			c2.9,0.3,19.5,24.1,22.3,24.1c6.1,0,14.2-14.6,14.2-14.6c-3.6-9.9-16.9-23.6-20.6-31.8C641.8,323.4,627,324.2,619.4,326.8z"/>
		<path class="st20" d="M612.2,276.3c-11,11.8,4.2,42.3,2.3,57.4c20.1,10.3,45.9-0.9,43.9-3.1c-2.4-2.6-12.6-26.4-19.3-42.2
			c-3-6.9-3.3-13.5-5.8-16.6c-0.6-0.8-9.5-0.3-11.7,0.4C618,273.3,612.2,276.3,612.2,276.3z"/>
		<path class="st9" d="M620.8,272.4c11.1-4.9,0.1,14.7-4.9,17.1c-5.8,2.8-3.7-9.1-3-10.1c2.9-4,7.5-6.9,7.5-6.9L620.8,272.4z"/>
		<path class="st11" d="M618.6,264.2c0.8-0.1,1,7,5.3,7.7c0.8,5.8-6.6,15.5-9.1,16.2c-2.4,0.7-1.3-7-1.2-8.7
			c0.1-4.9-6.4-6.4-5.5-6.7C609.7,272.3,617.8,264.3,618.6,264.2z"/>
		<path class="st8" d="M662.1,286.2c-2.6,4.9-8.3,13.7-11.2,11.1c-4.5-4-9.8-6.6-21.5-9.2c-5.8-4.4-0.9-19.5,6.2-16.4
			C642.3,274.6,656,279.8,662.1,286.2z"/>
		<path class="st12" d="M593.8,384.9c-2.4,0.8-1.5,3.3-4.4,5.3c-5.5,3.8-25.7-0.8-9.7,9.5c4.4,2.8,22.3,4.5,26.5,3
			c4.1-1.5,4.5-7.6,3.2-10.7c-1.3-3.2-2.2-6-2.2-6s-2.3,3.3-4.6,2.7C599,387.7,598.6,383.3,593.8,384.9z"/>
		<path class="st22" d="M602.3,403.2c1.7-0.1,3.1-0.2,3.9-0.5c4.1-1.5,4.5-7.6,3.2-10.7c-0.2-0.4-0.3-0.7-0.4-1.1
			c-1.8,1.1-4.9,3-6,6.5C602.1,400,602.1,402,602.3,403.2z"/>
		<path class="st6" d="M579.7,399.7c-7.6-4.8-7.1-6.4-3.8-7.1c0.1,0.1,0.2,0.2,0.2,0.3c3.9,5.4,21.4,11.2,30.3,7.5
			c1.2-0.5,2.5-2,3.5-2.8c-0.4,2.2-1.5,4.2-3.7,5.1C602.1,404.2,584.1,402.5,579.7,399.7z"/>
		<path class="st23" d="M596.3,387.7c0.5,0.2,4,3.5,7.3,2.9c3.3-0.6,5.1-3,5-4c-0.1-0.9-0.9-1.8-1.2-1.7c-0.2,0.1-2.1,2.4-3.8,2.8
			c-1.7,0.3-4.4-3.1-5.4-2.9C597,385.2,596.3,387.7,596.3,387.7z"/>
		<path class="st24" d="M581.8,392.2c1.5-0.1,5.7-0.2,7,2.3c5.6-0.4,14.8-9,8.6-11.2c-2.4-0.9-3.7-0.3-4.7,1.1
			C590.7,387.2,592.4,390.4,581.8,392.2z"/>
		<path class="st6" d="M578.9,311l-6.7-1.9c0,0-9.2-0.7-10.8-0.7c-1.6,0.1-8.4,0.7-8.9,1.9c-0.5,1.3,3.9,1.1,3.9,1.1l3.2-0.5
			l3.2,0.9l-5.7,0.7c-1.1,0.6-5.3,3.2-3.9,4.3c1.3,1,5-1.8,5-1.8l4.7-1c0,0-4.4,2-5.7,3.6c-1.3,1.6-2.8,4.3-1.4,4.1
			c1.5-0.2,3.2-2.9,3.2-2.9l4.6-1.9c0,0-1.7,1.2-2.8,2.8c-1,1.4-1.4,3.1-1.5,3.6c-0.2,1.1,1.3,1.2,2.1-0.1c0.3-0.5,0.5-1.2,1.4-2.5
			c1-1.4,2.6-2.1,2.6-2.1s2.4,1.1,6-0.4c3.6-1.5,5.2-3.4,6.2-4.8C578.6,312,578.9,311,578.9,311z"/>
		<path class="st7" d="M559.6,324.2c0.4,0.3,1.3,0,1.8-0.9c0.3-0.5,0.5-1.2,1.4-2.5c1-1.4,2.6-2.1,2.6-2.1s2.4,1.1,6-0.4
			c3.6-1.5,5.2-3.4,6.2-4.8c0.1-0.2,0.3-0.4,0.4-0.6c-0.9,0.4-1.4,0.7-1.4,0.7s-4.4,3.8-5.9,4.2c-1.5,0.4-5.9,0.3-5.9,0.3
			s-2.7,2.5-3.5,4.1C560.9,323,560.2,323.7,559.6,324.2z"/>
		<path class="st6" d="M572.3,308.7l-4.2,1.8c-1.5,1.1-4.5,5-4.3,7.1c0.1,0.7,1.8,0.4,2.7-0.6c0.7-0.7,2.4-3,2.4-3.2
			c0-0.2,2.1,1.4,5.3,0.5C578,313.5,576.5,306.9,572.3,308.7z"/>
		<path class="st7" d="M563.9,317.6L563.9,317.6L563.9,317.6L563.9,317.6L563.9,317.6L563.9,317.6L563.9,317.6L563.9,317.6
			L563.9,317.6C563.9,317.6,563.9,317.6,563.9,317.6l0,0.1l0,0l0,0l0,0l0,0l0,0l0,0l0,0l0,0l0,0l0,0l0,0l0,0l0,0l0,0l0,0l0,0l0,0
			l0,0l0,0l0,0l0,0l0,0l0,0l0,0l0,0l0,0l0,0l0,0l0,0l0,0l0,0l0,0l0,0l0,0l0,0l0,0l0,0l0,0l0,0l0,0l0,0l0,0l0,0l0,0l0,0l0,0l0,0l0,0
			l0,0l0,0l0,0l0,0l0,0l0,0l0,0l0,0l0,0l0,0l0,0l0,0l0,0l0,0l0,0l0,0l0,0l0,0l0,0l0,0l0,0l0,0l0,0l0,0l0,0l0,0l0,0
			c0.6,0,1.5-0.3,2.1-0.9c0.7-0.7,2.4-3,2.4-3.2c0-0.2,2.1,1.4,5.3,0.5c0.9-0.2,1.5-0.8,1.8-1.4c-0.4,0.2-1.2,0.5-3,0.7
			c-2.6,0.3-4.2-0.8-4.2-0.8s-2,3.2-3.1,4c-0.4,0.3-0.9,0.4-1.3,0.5c0-0.6,0.2-1.5,0.6-2.4c0.9-1.9,3.1-4.2,3.2-4.2
			c0.1-0.1,2.8-1.5,2.8-1.5l0,0l-2.9,1.3C566.7,311.6,563.8,315.4,563.9,317.6z"/>
		<path class="st6" d="M668.6,306.4c0.1,0.8,1.5,5.2,1.5,5.2s-1.1,3.7-2.8,6.7c-1.1,1.8-2.5,3.5-2.7,4.7c-0.2,0.8,0.6,1.5,1.3,1.1
			c1.7-1,4.9-6,4.9-5.3c0.1,0.9-1.1,11.7,1,12.1c2.2,0.4,1.2-9.8,1.9-9.9c0.5-0.1,1.2,10.4,2.7,11.3c0.7,0.4,1.2,0.1,1.4-0.8
			c0.7-2.9-1.9-10.7-1.3-10.9c0.6-0.2,3.6,7.7,4.9,8.8c1.3,1.1,1.2-1.4,0.9-2.2c-0.2-0.9-2.5-6.8-2.5-6.8s0.1-0.3,0.2-0.2
			c0.8,0.7,3.4,2.7,4.9,3.7c1.9,1.2,2.1-0.2,1.3-1.3c-0.7-0.9-4.7-4.5-5.2-5.1c-0.3-0.4-0.7-1.7-0.7-2c-0.5-2-1.3-2.4-3.5-5.1
			C674.4,307.6,668.6,306.4,668.6,306.4z"/>
		<path class="st12" d="M685.8,375.2c-0.7-0.2,0.2,4.3-0.6,6.5c-0.8,2.2-5.7-0.2-7.3,1s-1.1,3.2-0.8,4.6c0.3,1.4,2.9,7.4,1.1,10.1
			c-1.7,2.7-5.8,5.2-4.1,7.1c1.7,1.9,8.9,0.9,12.6-1c5.7-2.8,11.6-19.2,8.6-22.7c-1.9-2.2-5.6-3.8-6.7-4.6
			C686.9,375.1,685.8,375.2,685.8,375.2z"/>
		<path class="st6" d="M674,402.4c-0.4,0.7-0.5,1.4,0.1,2.1c1.7,1.9,8.9,0.9,12.6-1c5.7-2.8,11.6-19.2,8.6-22.7
			c-0.3-0.4-0.7-0.8-1.2-1.1c0,2.8-0.3,7.9-1.3,11.4c-1.3,4.8-3.5,8.5-7.4,10.8c-3.9,2.3-6.6,1.6-8.7,1
			C675.8,402.6,674.8,402.4,674,402.4z"/>
		<path class="st23" d="M682.8,385.1c0.2-0.1,2.6-0.1,4.3-2.9c1.7-2.8,0.5-6.5,0-7c-0.5-0.5-2.1-0.3-2.2,0.1
			c-0.1,0.4,0.2,4.4-0.3,5.4c-0.4,1-1.7,1.4-2.3,1.6c-0.5,0.2-0.8,0-0.9,0.4c-0.1,0.4,0.4,1.9,0.7,2.3
			C682.4,385.4,682.8,385.1,682.8,385.1z"/>
		<path class="st24" d="M676.9,381.5c1.9-0.5,4.1-1.4,5.3,0.3c3,4.3,2.6,15.1,0.6,15.2c-0.4,0-1.9-0.4-3.2-0.1
			c-1.3,0.2-1.3,0.3-1.3,0.3C679.4,392.2,673.3,382.4,676.9,381.5z"/>
		<path class="st22" d="M691.3,382.5c-0.9-1.5-1.4-4.2-1.5-5.5c1.2,0.7,2.9,1.6,4.3,2.8c0,1.3-0.1,3.1-0.3,5
			C693.1,384.3,692,383.6,691.3,382.5z"/>
		<path class="st26" d="M629.3,255.1c-0.3,5.4-1.6,7.9-2.3,8.9c-0.2,0.4-1.8,2.7-1.9,2.7c0,0,0,0,0,0c0.1-0.3,0.4-2.5,0.3-2.5
			c-0.1,0-0.7,1.7-1.8,3.5c-0.7,1-1.3,1.7-1.8,2.1c0.5-3.6,1-7.2,1.6-10.8C625.4,257.6,627.4,256.4,629.3,255.1z"/>
		<path class="st6" d="M593.6,230.8c-12.1,7.1-9.9,18.7-5.7,29c0.7,1.7,0.4,5.5,1.3,7.1c6.5,10.4,15.7,13.1,29.3,5.1
			c6.1-3.5,11.9-16.4,6.6-23c1.5-6.1,5.4-2.7,2.1-8.6C620.4,228.2,605.7,223.7,593.6,230.8z"/>
		<path class="st26" d="M605.3,223.2c2.7-0.1,5.1,0.5,5.1,0.5c2.8,0.7,4.8,2,6,2.9c4.5-0.8,13.5,1.4,13.9,18.6
			c0.2,8.4-3.4,18.2-3.3,18.7c0,0-0.1-17.5-3.4-17.2c-2.8,0.3-4.4,0.8-4.9,1.8c-0.2,0.3-0.2,0.6-0.2,0.9c-0.3,3.8-0.5,5.6-0.8,5.8
			c-0.5,0.2-2.2-2.7-6.6-13.1c-1.9,1.7-9.8,8.1-20.3,7c-3.2-0.3-5.9-1.3-7.9-2.3c-1.1-2.1-1.3-3.8-1.3-5.1
			C581.6,231.1,598.2,223.6,605.3,223.2z"/>
		<path class="st26" d="M602.9,256.4c-0.5,0.3-1.3-0.3-1.8-1.2c-0.1-0.2-0.2-0.3-0.2-0.5c0.2-0.2,0.4-0.4,0.6-0.5
			c0.3-0.2,0.6-0.4,0.9-0.5c0.1,0.2,0.3,0.4,0.4,0.6C603.3,255.1,603.3,256.1,602.9,256.4z"/>
		<path class="st6" d="M627.3,248.4c1.9,4.1,1.3,9.9-3.9,11.4c-2.8,0.8-4.8-6.6-5.2-9.6C617.7,246.4,625.4,244.3,627.3,248.4z"/>
		<path class="st17" d="M594.2,265.6c2.1,1.8,5.9-0.5,4.8-1.1C599,264.5,592.1,263.8,594.2,265.6z"/>
		<path class="st17" d="M595.7,268.6c3.3-0.4,9-0.8,10.5-4c0,0,1.6,1.7,0.2,4.2C604.7,271.8,597.9,273,595.7,268.6z"/>
		<path class="st25" d="M607.9,365.5c-0.8-0.3-2.9-0.8-5.2-1.1c0.4,1.3,0.7,2.8,0.9,4.4c0.7,0.1,1.3,0.1,1.9,0.2l2.2,0.4l0.3,0
			c0.1-2.2,0.2-3.7,0.2-3.7C608.2,365.6,608.1,365.6,607.9,365.5z"/>
		<g>
			
				<radialGradient id="SVGID_00000105395477658360077170000009768909860814276486_" cx="629.311" cy="-26.243" r="26.7836" gradientTransform="matrix(0.2949 -0.9512 0.9552 0.2961 406.7626 956.8061)" gradientUnits="userSpaceOnUse">
				<stop  offset="0" style="stop-color:#FFFFFF"/>
				<stop  offset="0.7809" style="stop-color:#F9F9F9"/>
				<stop  offset="0.8989" style="stop-color:#EDEDED"/>
				<stop  offset="1" style="stop-color:#BBBBBB"/>
			</radialGradient>
			
				<path style="fill:url(#SVGID_00000105395477658360077170000009768909860814276486_);stroke:#CFCFCF;stroke-width:5.923329e-02;" d="
				M562.3,333.7c0.1-0.1,0.2-0.1,0.3-0.2c0.1-0.1,0-0.2,0.1-0.3c2.8-3.9,6.9-6.5,11.5-7.6c0.1,0,0.3,0.1,0.4,0.1
				c0.1,0,0.2-0.2,0.3-0.2c2.9-0.5,6-0.4,9.1,0.5c1.6,0.5,3,1.2,4.4,2c0.1,0.1,0.1,0.2,0.2,0.3c0.1,0,0.4,0,0.5,0.1
				c7,4.6,10.1,13.4,7.5,21.8c-3.2,10.2-13.9,15.9-24,12.8c-10.1-3.1-15.7-13.9-12.6-24.2C560.4,337,561.2,335.3,562.3,333.7z"/>
			
				<linearGradient id="SVGID_00000045581270833990556350000004436272916501649309_" gradientUnits="userSpaceOnUse" x1="623.9815" y1="-16.1428" x2="624.4564" y2="-18.2795" gradientTransform="matrix(0.2961 -0.9552 0.9552 0.2961 405.5522 959.7178)">
				<stop  offset="0" style="stop-color:#6B6B6B"/>
				<stop  offset="0.3109" style="stop-color:#9E9E9E"/>
				<stop  offset="0.6201" style="stop-color:#CACACA"/>
				<stop  offset="0.8594" style="stop-color:#E5E5E5"/>
				<stop  offset="1" style="stop-color:#EFEFEF"/>
			</linearGradient>
			<path style="fill:url(#SVGID_00000045581270833990556350000004436272916501649309_);" d="M570.6,355.5c0,0,0.4,0.2,0.5,0
				c0.1-0.1,0.2-0.3,0.2-0.3s0,0.6,0.2,0.9c0.2,0.3,1.3,1.7,2.8,3c1.5,1.3,1.9,1.6,2.1,1.7c0.2,0.1,0.6,0.4,0.6,0.4
				s-0.2-0.1-0.3,0.2c-0.1,0.3-0.2,0.3-0.2,0.3s0-0.5-0.1-0.7c-0.1-0.1-2.2-1.8-2.7-2.3c-0.5-0.5-2.2-2.3-2.5-2.5
				C570.9,355.9,570.6,355.5,570.6,355.5z"/>
			
				<linearGradient id="SVGID_00000031199916596076054910000003034270935401244551_" gradientUnits="userSpaceOnUse" x1="636.6525" y1="-13.8891" x2="635.5444" y2="-17.6092" gradientTransform="matrix(0.2961 -0.9552 0.9552 0.2961 405.5522 959.7178)">
				<stop  offset="0" style="stop-color:#6B6B6B"/>
				<stop  offset="0.3109" style="stop-color:#9E9E9E"/>
				<stop  offset="0.6201" style="stop-color:#CACACA"/>
				<stop  offset="0.8594" style="stop-color:#E5E5E5"/>
				<stop  offset="1" style="stop-color:#EFEFEF"/>
			</linearGradient>
			<path style="fill:url(#SVGID_00000031199916596076054910000003034270935401244551_);" d="M573.7,348.6c0,0,0.3-0.1,0.1-0.4
				c-0.2-0.3-0.3-0.3-0.3-0.3s0.5,0.3,1.7,0.1c1.2-0.2,4-0.7,4.9-0.9c0.9-0.2,2-0.3,2.4-0.6c0.4-0.2,0.8-0.2,0.9-0.1
				c0.1,0.1,0,0.2,0,0.2s-0.5-0.1-0.7,0c-0.1,0.1-5.7,1.3-6.5,1.4c-0.8,0.1-1.9,0.2-2,0.3C574.1,348.5,573.7,348.6,573.7,348.6z"/>
			
				<linearGradient id="SVGID_00000088815195465066987980000013944166692223963545_" gradientUnits="userSpaceOnUse" x1="626.3142" y1="-5.6255" x2="634.4808" y2="-5.6255" gradientTransform="matrix(0.2961 -0.9552 0.9552 0.2961 405.5522 959.7178)">
				<stop  offset="0" style="stop-color:#6B6B6B"/>
				<stop  offset="0.3109" style="stop-color:#9E9E9E"/>
				<stop  offset="0.6201" style="stop-color:#CACACA"/>
				<stop  offset="0.8594" style="stop-color:#E5E5E5"/>
				<stop  offset="1" style="stop-color:#EFEFEF"/>
			</linearGradient>
			<path style="fill:url(#SVGID_00000088815195465066987980000013944166692223963545_);" d="M585.3,359.6c-0.1,0.1-0.1-0.1-0.1-0.1
				c-0.1,0.1-0.1-0.1-0.1-0.1s1.4-2.1,2.1-3.7c0.7-1.6,1.1-2.8,1.1-3.1c0-0.3-0.1-0.8,0.1-0.7c0.2,0.1,0.3,0.1,0.4,0.2
				c0,0.1-0.6,2.2-1.2,3.4c-0.6,1.2-1.3,2.4-1.6,2.9C585.6,358.7,585.4,359.4,585.3,359.6z"/>
			
				<linearGradient id="SVGID_00000083807895513303513980000000637600874938916286_" gradientUnits="userSpaceOnUse" x1="651.6289" y1="-4.7294" x2="645.7722" y2="-4.8085" gradientTransform="matrix(0.2961 -0.9552 0.9552 0.2961 405.5522 959.7178)">
				<stop  offset="0" style="stop-color:#6B6B6B"/>
				<stop  offset="0.3109" style="stop-color:#9E9E9E"/>
				<stop  offset="0.6201" style="stop-color:#CACACA"/>
				<stop  offset="0.8594" style="stop-color:#E5E5E5"/>
				<stop  offset="1" style="stop-color:#EFEFEF"/>
			</linearGradient>
			<path style="fill:url(#SVGID_00000083807895513303513980000000637600874938916286_);" d="M593,339.3c0,0,0.7-1.5,0.9-2.4
				c0.2-0.9,0.2-2.5,0.2-2.5s0.1,0.2,0.2,0.1c0.1,0,0,1.7-0.2,2.4c-0.2,0.7-0.8,2.5-0.9,2.4C593.1,339.3,593,339.3,593,339.3z"/>
			
				<linearGradient id="SVGID_00000036217485199715801050000012188733451590446759_" gradientUnits="userSpaceOnUse" x1="640.9332" y1="2.1672" x2="640.2999" y2="-3.8493" gradientTransform="matrix(0.2961 -0.9552 0.9552 0.2961 405.5522 959.7178)">
				<stop  offset="0" style="stop-color:#6B6B6B"/>
				<stop  offset="0.3109" style="stop-color:#9E9E9E"/>
				<stop  offset="0.6201" style="stop-color:#CACACA"/>
				<stop  offset="0.8594" style="stop-color:#E5E5E5"/>
				<stop  offset="1" style="stop-color:#EFEFEF"/>
			</linearGradient>
			<path style="fill:url(#SVGID_00000036217485199715801050000012188733451590446759_);" d="M594.4,347.6c0,0,0.8,0.3,1.3,0.3
				c0.5,0.1,1.3-0.1,1.3-0.1s-0.1,0.1,0,0.1c0,0-0.9,0.2-1.3,0.1c-0.4-0.1-1.2-0.3-1.2-0.3C594.5,347.6,594.4,347.6,594.4,347.6z"/>
			
				<linearGradient id="SVGID_00000019676612736720572450000010729145249035772848_" gradientUnits="userSpaceOnUse" x1="646.9023" y1="-15.3552" x2="652.3639" y2="-15.3552" gradientTransform="matrix(0.2961 -0.9552 0.9552 0.2961 405.5522 959.7178)">
				<stop  offset="0" style="stop-color:#6B6B6B"/>
				<stop  offset="0.3109" style="stop-color:#9E9E9E"/>
				<stop  offset="0.6201" style="stop-color:#CACACA"/>
				<stop  offset="0.8594" style="stop-color:#E5E5E5"/>
				<stop  offset="1" style="stop-color:#EFEFEF"/>
			</linearGradient>
			<path style="fill:url(#SVGID_00000019676612736720572450000010729145249035772848_);" d="M579.9,331.3c0,0,0.2,0,0.3-0.1
				c0.1-0.2,0.2-0.3,0.2-0.3s-0.1,0.5,0.3,0.9c0.5,0.4,1.6,1.3,2.6,2.5c1,1.2,3,3.8,3.1,3.9c0.1,0.1-0.1-0.2-0.2,0
				c-0.1,0.2-0.2,0.2-0.2,0.2s-0.6-1.2-1-1.7c-0.4-0.4-2.2-2.6-3-3.5c-0.9-0.8-1.4-1.4-1.7-1.5C580.3,331.7,579.9,331.3,579.9,331.3
				z"/>
			
				<linearGradient id="SVGID_00000116929246918351746160000012333969503734389924_" gradientUnits="userSpaceOnUse" x1="645.8543" y1="-27.1148" x2="640.3143" y2="-27.7479" gradientTransform="matrix(0.2961 -0.9552 0.9552 0.2961 405.5522 959.7178)">
				<stop  offset="0" style="stop-color:#6B6B6B"/>
				<stop  offset="0.3109" style="stop-color:#9E9E9E"/>
				<stop  offset="0.6201" style="stop-color:#CACACA"/>
				<stop  offset="0.8594" style="stop-color:#E5E5E5"/>
				<stop  offset="1" style="stop-color:#EFEFEF"/>
			</linearGradient>
			<path style="fill:url(#SVGID_00000116929246918351746160000012333969503734389924_);" d="M567.8,341.8c0,0,0.1-0.2,0.3-0.1
				c0.2,0.1,0.2,0.2,0.2,0.2s0-0.5,0.1-1.2c0.1-0.6,0.6-2.2,1-3.4c0.4-1.2,1.2-3.1,1.6-3.7c0.4-0.5,0.7-0.8,0.7-0.8s-0.2,0.1-0.3,0
				c-0.1-0.1-0.2-0.2-0.2-0.2s-0.8,1.9-1.5,3.5C568.9,338,567.8,341.8,567.8,341.8z"/>
			
				<linearGradient id="SVGID_00000111873128347763814450000012276932914415282612_" gradientUnits="userSpaceOnUse" x1="637.4945" y1="-35.576" x2="635.5947" y2="-34.3095" gradientTransform="matrix(0.2961 -0.9552 0.9552 0.2961 405.5522 959.7178)">
				<stop  offset="0" style="stop-color:#6B6B6B"/>
				<stop  offset="0.3109" style="stop-color:#9E9E9E"/>
				<stop  offset="0.6201" style="stop-color:#CACACA"/>
				<stop  offset="0.8594" style="stop-color:#E5E5E5"/>
				<stop  offset="1" style="stop-color:#EFEFEF"/>
			</linearGradient>
			<path style="fill:url(#SVGID_00000111873128347763814450000012276932914415282612_);" d="M560.6,342.8c-0.6-1-1.1-2.4-1.1-2.4
				s0.7,1.4,1.1,2.2c0.4,0.8,1.3,1.9,1.4,2.1c0.2,0.2,0.6,0.2,0.7,0.2c0,0-0.4,0.1-0.4,0.2c0,0.1,0,0.8,0,0.6
				c-0.1-0.3-0.2-0.7-0.3-0.9C561.9,344.9,561.1,343.9,560.6,342.8z"/>
			
				<linearGradient id="SVGID_00000030483783469010223400000017138553687339815569_" gradientUnits="userSpaceOnUse" x1="644.5677" y1="-33.1171" x2="650.2664" y2="-33.1171" gradientTransform="matrix(0.2961 -0.9552 0.9552 0.2961 405.5522 959.7178)">
				<stop  offset="0" style="stop-color:#6B6B6B"/>
				<stop  offset="0.3109" style="stop-color:#9E9E9E"/>
				<stop  offset="0.6201" style="stop-color:#CACACA"/>
				<stop  offset="0.8594" style="stop-color:#E5E5E5"/>
				<stop  offset="1" style="stop-color:#EFEFEF"/>
			</linearGradient>
			<path style="fill:url(#SVGID_00000030483783469010223400000017138553687339815569_);" d="M562.6,333.5c0,0,1.7-1.8,2.4-2.3
				c0.8-0.5,2.3-1.4,2.6-1.5c0.3-0.2,0.9-0.3,0.9-0.3l-0.1,0.2l0.2,0.2c0,0-2.2,0.6-3.4,1.5C563.9,332.2,562.6,333.5,562.6,333.5z"
				/>
			
				<linearGradient id="SVGID_00000018218067466649196820000002552060258389100959_" gradientUnits="userSpaceOnUse" x1="658.5418" y1="-15.3927" x2="655.296" y2="-20.6176" gradientTransform="matrix(0.2961 -0.9552 0.9552 0.2961 405.5522 959.7178)">
				<stop  offset="0" style="stop-color:#6B6B6B"/>
				<stop  offset="0.3109" style="stop-color:#9E9E9E"/>
				<stop  offset="0.6201" style="stop-color:#CACACA"/>
				<stop  offset="0.8594" style="stop-color:#E5E5E5"/>
				<stop  offset="1" style="stop-color:#EFEFEF"/>
			</linearGradient>
			<path style="fill:url(#SVGID_00000018218067466649196820000002552060258389100959_);" d="M585,326.6c0,0-1.5,0.1-1.8,0.1
				c-0.2,0-1.4,0-1.4,0s0.1,0,0.1,0.1c-0.1,0.1-0.1,0.1-0.1,0.1s1.1,0,1.5-0.1c0.5,0,1.9-0.1,2-0.1c0.1-0.1,0.1,0,0.1,0l-0.2-0.1
				L585,326.6z"/>
			
				<linearGradient id="SVGID_00000076562528099827834440000011849939687597007497_" gradientUnits="userSpaceOnUse" x1="622.9205" y1="-28.0265" x2="626.3633" y2="-28.0265" gradientTransform="matrix(0.2961 -0.9552 0.9552 0.2961 405.5522 959.7178)">
				<stop  offset="0" style="stop-color:#6B6B6B"/>
				<stop  offset="0.3109" style="stop-color:#9E9E9E"/>
				<stop  offset="0.6201" style="stop-color:#CACACA"/>
				<stop  offset="0.8594" style="stop-color:#E5E5E5"/>
				<stop  offset="1" style="stop-color:#EFEFEF"/>
			</linearGradient>
			<path style="fill:url(#SVGID_00000076562528099827834440000011849939687597007497_);" d="M563.7,353c0,0,0.2,0.4,0.6,0.5
				s0.3,0.4,0.3,0.4s-0.4-0.3-0.6,0c-0.2,0.3-0.5,1.1-0.6,1.6c-0.1,0.5-0.1,0.9-0.1,0.9l-0.1-0.1c0,0-0.1-0.5,0.1-0.9
				c0.2-0.5,0.4-1.1,0.4-1.5C563.8,353.6,563.6,353.1,563.7,353z"/>
			
				<linearGradient id="SVGID_00000036248847379712120750000008075948354689495190_" gradientUnits="userSpaceOnUse" x1="619.3648" y1="-15.2763" x2="620.0006" y2="-15.2763" gradientTransform="matrix(0.2961 -0.9552 0.9552 0.2961 405.5522 959.7178)">
				<stop  offset="0" style="stop-color:#6B6B6B"/>
				<stop  offset="0.3109" style="stop-color:#9E9E9E"/>
				<stop  offset="0.6201" style="stop-color:#CACACA"/>
				<stop  offset="0.8594" style="stop-color:#E5E5E5"/>
				<stop  offset="1" style="stop-color:#EFEFEF"/>
			</linearGradient>
			<path style="fill:url(#SVGID_00000036248847379712120750000008075948354689495190_);" d="M573.5,363.3c0,0,0.7,0.1,1,0
				c0.3,0,0.9-0.1,0.9,0c0.1,0.1-0.1,0.1-0.3,0.1c-0.2,0-0.8,0.2-1.3,0C573.3,363.3,573.5,363.3,573.5,363.3z"/>
			
				<linearGradient id="SVGID_00000049212342457473640200000013670520686671257225_" gradientUnits="userSpaceOnUse" x1="562.2534" y1="348.5817" x2="573.9149" y2="348.5817">
				<stop  offset="0" style="stop-color:#050505"/>
				<stop  offset="0.4697" style="stop-color:#121212"/>
				<stop  offset="1" style="stop-color:#1C1C1C"/>
			</linearGradient>
			<path style="fill:url(#SVGID_00000049212342457473640200000013670520686671257225_);" d="M562.3,345.3c0.1-0.2,2.8-2.1,3.9-2.7
				c1.1-0.6,1.7-1,1.9-1c0.2,0.1,2.3,2.8,3.4,4.1c1.1,1.3,2.3,2.4,2.4,2.6c0,0.1-0.9,2.4-1.5,4c-0.6,1.6-1.2,3.4-1.3,3.4
				c-0.1,0-1,0.1-3.4-0.7c-2.4-0.8-3.4-1.1-3.5-1.4c-0.1-0.2-1-1.8-1.3-3.4C562.6,348.4,562.1,345.5,562.3,345.3z"/>
			<path class="st41" d="M562.3,355.5c0,0,0.6,0.7,0.8,0.7c0.2,0.1,0.3,0.1,0.3,0.2c0,0.1,0,0.2,0.1,0.4c0.1,0.2,1.1,1.3,1.7,1.9
				c0.6,0.5,1.1,1.1,1.1,1.1s-0.8-0.5-1.5-1.3c-0.5-0.5-1.1-1.2-1.4-1.6C562.5,356,562.3,355.5,562.3,355.5z"/>
			
				<linearGradient id="SVGID_00000038387451713263001150000013790505697688917910_" gradientUnits="userSpaceOnUse" x1="651.5892" y1="-24.9237" x2="647.8693" y2="-25.0028" gradientTransform="matrix(0.2961 -0.9552 0.9552 0.2961 405.5522 959.7178)">
				<stop  offset="0" style="stop-color:#050505"/>
				<stop  offset="0.4697" style="stop-color:#121212"/>
				<stop  offset="1" style="stop-color:#1C1C1C"/>
			</linearGradient>
			<path style="fill:url(#SVGID_00000038387451713263001150000013790505697688917910_);" d="M568.3,329.6c0.1-0.1,0.5-1.1,2.9-2.5
				c2.4-1.3,3-1.5,3.1-1.4c0.1,0,3-0.3,4.7,0.2c1.7,0.5,3.2,0.8,3.1,0.9c-0.1,0.1-0.4,0-0.9,1.3c-0.4,1.3-1,3.3-1,3.3
				s-4.3,0.3-6.2,0.9c-2,0.6-2.6,1-2.7,0.9c-0.1-0.1-1.2-1.5-1.8-2.2C569,330.3,568.3,329.7,568.3,329.6z"/>
			
				<linearGradient id="SVGID_00000046297164157893211610000015801882372547931527_" gradientUnits="userSpaceOnUse" x1="583.2893" y1="345.1762" x2="594.6266" y2="345.1762">
				<stop  offset="0" style="stop-color:#050505"/>
				<stop  offset="0.4697" style="stop-color:#121212"/>
				<stop  offset="1" style="stop-color:#1C1C1C"/>
			</linearGradient>
			<path style="fill:url(#SVGID_00000046297164157893211610000015801882372547931527_);" d="M583.3,346.5c0-0.1,1-2.7,1.5-4.2
				c0.5-1.6,1.3-4.2,1.4-4.2c0.1,0,1.8,0,3.9,0.4c2,0.4,2.9,0.6,3.1,0.8c0.1,0.2,1,3.8,1.3,5.1c0.2,1.3,0.2,3.2,0.1,3.4
				c-0.1,0.2-2.1,2.4-4.1,3.5c-2,1.2-2,1.2-2.2,1C588,352,583.2,346.7,583.3,346.5z"/>
			<path class="st44" d="M591,330.1c-1-1-2.3-1.8-2.3-1.8c0.1,0,2.1,1.2,3.6,3c1.4,1.7,2.1,2.6,2.5,3.3c0.4,0.7,0.6,1.3,0.6,1.3
				s-0.5-0.9-0.9-1.2c-0.4-0.2-0.4-0.3-0.5-0.4c0,0-0.3-0.5-1-1.7C592.7,332.1,591.9,331,591,330.1z"/>
			
				<linearGradient id="SVGID_00000083801709990344965200000002191416533590078605_" gradientUnits="userSpaceOnUse" x1="622.7131" y1="-8.8821" x2="624.7066" y2="-12.55" gradientTransform="matrix(0.2961 -0.9552 0.9552 0.2961 405.5522 959.7178)">
				<stop  offset="0" style="stop-color:#050505"/>
				<stop  offset="0.5104" style="stop-color:#070707"/>
				<stop  offset="0.7895" style="stop-color:#0F0F0F"/>
				<stop  offset="1" style="stop-color:#1C1C1C"/>
			</linearGradient>
			<path style="fill:url(#SVGID_00000083801709990344965200000002191416533590078605_);" d="M575.3,363.3c0-0.1,0.4-0.4,0.7-0.9
				c0.3-0.5,0.6-1.4,0.8-1.5c0.2,0,3.2-0.1,4.2-0.3c1-0.2,3.7-0.9,3.9-1.1c0.2-0.1,0.3-0.2,0.4,0c0.1,0.2,0.8,0.8,1.2,1.1
				c0.4,0.3,1.2,0.6,1.1,0.6c0,0.1-3.2,1.9-6.2,2.4c-3,0.4-4.7,0.3-5.2,0.1C575.8,363.5,575.3,363.5,575.3,363.3z"/>
		</g>
		<path class="st46" d="M606.5,253.1c-2.7,0.2-4.9,1-6.9,2.7C600.4,253.2,604.1,251.8,606.5,253.1L606.5,253.1z"/>
		<path class="st26" d="M590.8,259.5c0.5-0.1,0.8-0.8,0.7-1.7c0-0.2,0-0.3-0.1-0.4c-0.2,0-0.5,0-0.7,0c-0.3,0-0.6,0-0.9,0.1
			c0,0.2,0,0.4,0,0.6C590,258.8,590.4,259.5,590.8,259.5z"/>
		<path class="st46" d="M587.5,258.8c0.7-0.4,2-1,3.6-1.2c0.7-0.1,1.4,0,1.9,0c-0.1-0.1-1.6-1.2-3.3-0.6
			C588.3,257.4,587.6,258.5,587.5,258.8z"/>
	</g>
	<path style="clip-path:url(#SVGID_00000183971093012115360940000003984125685300085647_);fill:#020202;" d="M598.1,252.1
		c0.9-0.6,2.6-1.3,4.6-1.3c1.7,0,3.3,0.7,3.3,0.8c0,0.2-1.3-0.1-2.9,0.1c-2,0.2-3.6,1-4.6,1.6c-0.1-0.1-0.2-0.2-0.2-0.3
		C598,252.7,598,252.3,598.1,252.1z"/>
	<path style="clip-path:url(#SVGID_00000183971093012115360940000003984125685300085647_);fill:#020202;" d="M591.7,255.4
		c-0.9,0-2.1,0-3.3,0.7c-1,0.6-1.7,1.4-1.8,1.3c-0.1-0.1,0.3-0.9,1-1.5c0.5-0.5,1.6-1.4,3.9-1.5c0.1,0.1,0.2,0.3,0.2,0.5
		C591.7,255.1,591.7,255.2,591.7,255.4z"/>
	<g style="clip-path:url(#SVGID_00000183971093012115360940000003984125685300085647_);">
		<path class="st16" d="M352.4,288.3c-1.7-2.2-4.8-3.2-7.5-2.5c1.3-0.5,2.9-0.7,4.3-0.4c1.5,0.3,2.8,1.1,3.9,2.2L352.4,288.3
			L352.4,288.3z"/>
	</g>
	<g style="clip-path:url(#SVGID_00000183971093012115360940000003984125685300085647_);">
		<path class="st16" d="M359,289.6c1.4-0.5,3.1,0.1,3.8,1.3c-0.5-0.5-1.1-0.8-1.7-0.8c-0.6-0.1-1.2,0.1-1.7,0.4L359,289.6L359,289.6
			z"/>
	</g>
</g>
</svg>
