<?xml version="1.0" encoding="utf-8"?>
<!-- Generator: Adobe Illustrator 26.0.1, SVG Export Plug-In . SVG Version: 6.00 Build 0)  -->
<svg version="1.1" id="Layer_1" xmlns="http://www.w3.org/2000/svg" xmlns:xlink="http://www.w3.org/1999/xlink" x="0px" y="0px"
	 viewBox="0 0 642 598" style="enable-background:new 0 0 642 598;" xml:space="preserve">
<style type="text/css">
	.st0{clip-path:url(#SVGID_00000160174547920872456660000012584728399813547406_);fill:#BDDEEF;}
	.st1{clip-path:url(#SVGID_00000160174547920872456660000012584728399813547406_);fill:#A04B2A;}
	.st2{clip-path:url(#SVGID_00000160174547920872456660000012584728399813547406_);}
	.st3{fill:#A04B2A;}
	.st4{fill:#FFFFFF;}
	.st5{fill:#592819;}
	.st6{fill:#3C6828;}
	.st7{fill:#FFA41F;}
	.st8{fill:#2B0000;}
	.st9{fill:#FE8462;}
	.st10{fill:#AA6148;}
	.st11{fill:#FCB99B;}
	.st12{clip-path:url(#SVGID_00000160174547920872456660000012584728399813547406_);fill:#FCB99B;}
	.st13{clip-path:url(#SVGID_00000160174547920872456660000012584728399813547406_);fill:#3C6828;}
	.st14{fill:#F79F95;}
	.st15{fill:#0066A5;}
	.st16{fill:#CD070C;}
	.st17{fill:#3E8ACE;}
	.st18{fill:#E5060B;}
	.st19{fill:#CCCCCC;}
	.st20{fill:#431230;}
	.st21{fill:#580000;}
	.st22{fill:#990000;}
	.st23{fill:#F76467;}
	.st24{fill:url(#SVGID_00000014602958348159306460000012546083958619585204_);}
	.st25{fill:#F38D82;}
	.st26{fill:#EA906C;}
	.st27{fill:url(#SVGID_00000096774128966696636650000016502287717694369471_);}
	.st28{fill:#6B3628;}
	.st29{fill:#576B7D;}
	.st30{fill:#5E7389;}
	.st31{fill:#EA4E5A;}
	.st32{fill:#EE252A;}
	.st33{fill:#353535;}
	.st34{fill:#E7372E;}
	.st35{fill:#C21111;}
	.st36{fill:#FFCC00;}
	.st37{fill:#8CC1D1;}
</style>
<g>
	<g>
		<defs>
			<path id="SVGID_1_" d="M98.2,520.1c42.6,13.6,87.3,17.4,140.6,15.7c17.1-0.6,30.9-1.6,39.6-2.3c43.3-1.2,80.2-1.8,106.3-4.2
				c43.5-3.9,63.4-7.4,83.5-12.9c34-9.3,74.5-20.4,78.8-43.1c3.9-20.8-26.3-30.5-23.6-54c2.7-23.4,34-22.7,57.1-57.4
				c2.2-3.3,27.4-42.4,13-80.2c-6.6-17.5-19.3-28.1-32.6-39.3c-29.2-24.6-42.4-18.5-55.1-32.9c-29-32.8,21.2-85.8-3.1-129.7
				c-16.8-30.2-62.3-44.2-97-41.7c-73.3,5.4-82.6,83.7-158.6,94.6c-56.9,8.2-75.8-32.2-124.1-14.7c-43.6,15.7-77.8,66.5-70.5,104.7
				c4,20.7,16.5,19.4,34.2,58.2c10.2,22.5,21,46.3,15.9,74.5C97.2,385.1,80,406.1,80,406.1c-13.8,20.2-20.1,27.9-23.8,37
				c-1.4,3.4-2.5,6.9-3.3,11.8c-0.2,1.1-3.9,26.3,11.3,45.3C72.4,510.5,83.2,515.3,98.2,520.1z"/>
		</defs>
		<clipPath id="SVGID_00000133516965045350807570000011913450442417224341_">
			<use xlink:href="#SVGID_1_"  style="overflow:visible;"/>
		</clipPath>
		
			<rect x="-10" y="38.8" style="clip-path:url(#SVGID_00000133516965045350807570000011913450442417224341_);fill:#BDDEEF;" width="633.2" height="531.1"/>
		<path style="clip-path:url(#SVGID_00000133516965045350807570000011913450442417224341_);fill:#A04B2A;" d="M129.2,172.9
			c16.9,78.9,33.9,157.8,50.8,236.7c-11.1,75.7-22.1,151.5-33.2,227.2c6.8-1.5,13.6-3.1,20.4-4.6c10.9-72,21.8-144,32.7-216
			c29.5,60.5,59,121,88.4,181.5c7.5-3.9,15-7.8,22.5-11.8c-34.1-62.5-68.2-125.1-102.3-187.6c-20.1-76.1-40.2-152.2-60.3-228.3
			C142,171,135.6,171.9,129.2,172.9z"/>
		<g style="clip-path:url(#SVGID_00000133516965045350807570000011913450442417224341_);">
			<path class="st3" d="M85.5,209.2c40.6-6.4,81.2-12.7,121.9-19.1c35,153.6,51.8,230.6,50.3,230.9c0,0,0,0-0.1,0l-116.4,38.1
				C133.8,422,96.5,253.8,85.5,209.2z"/>
		</g>
		<g style="clip-path:url(#SVGID_00000133516965045350807570000011913450442417224341_);">
			<g>
				<path class="st4" d="M148.8,455.5c-8.9-41.4-18.1-83.3-27.4-124.6c-8.9-39.6-26.7-116.8-29-126.7l119.9-18.8
					c8.6,39.3,47.7,217.2,51.3,232.5L148.8,455.5z"/>
				<path class="st5" d="M211.6,186.6c17.9,81.5,46.7,212.5,50.9,230.7l-93.7,30.6l-19.2,6.3c-8.8-41-18-82.5-27.2-123.5
					c-8.6-38.4-25.6-112.3-28.7-125.7L211.6,186.6 M213.1,184.3L91.3,203.4c0,0,19.6,85.1,29.2,127.8c9.4,41.8,18.6,83.7,27.6,125.6
					c38.9-12.7,77.8-25.4,116.8-38.2C264.4,417.5,213.1,184.3,213.1,184.3L213.1,184.3z"/>
			</g>
			<g>
				<g>
					<g>
						<g>
							<path class="st6" d="M176.1,300.8c-0.4-0.7-0.8-1.5-0.9-2.3c-0.5-2.7,1.3-5.4,1.3-8.1c0-0.6-0.1-1.2,0-1.7
								c0.1-0.6,0.6-1.1,1.1-1.2c0.4,0,0.7,0.1,1,0.3c0.9,0.5,1.9,1,2.2,2c0.3,1-0.1,2.1-0.1,3.1c0.1,2.7,3.2,4.3,3.8,7
								c0.4,1.8-0.6,3.6-1.1,5.4c-0.5,1.7-1.5,6.6-4.1,3.7c-0.8-0.9-0.5-2.6-0.9-3.7C177.9,303.7,176.9,302.3,176.1,300.8z"/>
						</g>
					</g>
					<g>
						<g>
							<path class="st6" d="M199.5,384.2c-5.2-3.9-7.6-10.5-9.6-16.8c-4.8-15.4-8.7-31.2-11.4-47.1c0.1-0.2,0.1-0.4,0-0.6
								c0,0,0-0.1-0.1-0.1c-0.1-0.5-0.2-1-0.3-1.5c0.1-0.7,0.3-1.4,0.5-2.1c1-3.1,1.5-6.3,1.7-9.5c0-0.3-0.2-0.6-0.5-0.6
								c-0.3,0-0.6,0.2-0.6,0.5c-0.2,3.1-0.7,6.1-1.6,9c-0.3-1.2-0.6-2.4-1.1-3.5c-1.2-3.1-3.2-5.9-5.1-8.6
								c-1.1-1.6-2.3-3.3-3.7-4.8c-2.1-2.3-4.6-4.2-7.1-6c-3.5-2.6-6.8-5.1-9-8.7c-0.2-0.3-0.5-0.3-0.8-0.2
								c-0.3,0.2-0.3,0.5-0.2,0.8c2.3,3.7,5.9,6.4,9.3,9c2.4,1.8,4.9,3.7,6.9,5.9c1.3,1.4,2.5,3.1,3.6,4.7c1.9,2.6,3.8,5.3,5,8.3
								c0.3,0.8,0.6,1.7,0.8,2.6l-9-5.1c-1.7-1-3.5-2-4.8-3.5c-0.2-0.2-0.6-0.3-0.8-0.1c-0.2,0.2-0.3,0.6-0.1,0.8
								c1.4,1.6,3.4,2.7,5.1,3.7l9.9,5.6c0.1,0.5,0.2,1.1,0.3,1.7c0,0.6,0,1.3,0.3,1.8l0,0.3c0.7,4.1,1.5,8.2,2.3,12.3
								c-0.3-0.4-0.6-0.8-0.9-1.2c-0.5-0.6-1-1.1-1.4-1.7c-0.6-0.8-1-1.7-1.5-2.5c-1.3-2.2-3-4.1-4.7-5.9c-0.4-0.4-0.8-0.9-1.3-1.2
								c-0.7-0.4-1.6-0.5-2.4-0.2c-0.2,0.1-0.4,0.1-0.5,0.3c-0.2,0.2-0.2,0.5-0.2,0.8c0.2,2.2,3.1,3.5,3,5.7c0,0.7-0.4,1.4-0.4,2.1
								c0,0.9,0.8,1.7,1.4,2.3c2.3,2.2,4.9,4.2,8,4.8c0.6,0.1,1.1,0.2,1.6,0.5c2.3,10.6,5.1,21.1,8.3,31.4c2,6.5,4.5,13.3,10,17.4
								c0.2,0.2,0.6,0.1,0.8-0.1c0,0,0,0,0,0C199.8,384.7,199.8,384.3,199.5,384.2z"/>
						</g>
					</g>
					<g>
						<g>
							<path class="st7" d="M151.2,291.4c-1.8,1-3.5,2.2-5.5,2.6c-2,0.4-4.4-0.4-5.2-2.3c-0.3-0.8-0.3-1.7-0.5-2.5
								c-0.4-1.6-1.4-2.8-2.3-4.2s-1.5-3-0.9-4.5c1.2-3,6.3-2.7,7.7-5.6c0.6-1.2,0.5-2.8,1.5-3.7c1.5-1.2,3.6,0.3,5.5,0.3
								c1.5,0,2.8-1,4.2-1.4c2.1-0.6,4.5,0,6,1.6c1.5,1.6,1.9,4.1,1,6.1c-0.4,0.9-1.1,1.7-1.5,2.6c-0.5,1.4-0.3,3-0.4,4.5
								C160.2,291.5,155.3,289,151.2,291.4z"/>
						</g>
					</g>
					<g>
						<g>
							<path class="st8" d="M150.4,278.7c-0.8,0.2-1.4,0.9-1.6,1.7l-0.2-0.1c-1,0.8-0.2,2.7,1,2.9c1.3,0.2,2.5-0.8,2.9-2
								c0.2-0.5,0.3-1.2,0-1.7C152.1,278.8,151.2,278.4,150.4,278.7z"/>
						</g>
					</g>
					<g>
						<g>
							<path class="st7" d="M148.9,303.7c-1.4,1-2,3.2-0.8,4.5c0.6,0.6,1.5,0.9,2,1.6c0.6,0.8,0.6,1.9,0.9,2.9
								c0.4,1.5,1.5,2.7,2.9,3.2c1.4,0.5,3.1,0,4.1-1.1c0.3-0.4,0.5-0.9,0.8-1.2c0.9-1,2.4-1.2,3.8-1.5c1.4-0.3,2.9-1.1,3-2.5
								c0-0.7-0.3-1.3-0.3-2c0-0.9,0.6-1.6,1.1-2.4c1.4-2.2,1.8-5.4-0.1-7.2c-0.4-0.4-0.9-0.6-1.4-0.7c-1.3,0-2,1.5-3.1,2.2
								c-0.7,0.4-1.5,0.5-2.2,0.6c-2.1,0.4-3.5,1.8-5.3,2.4C152.4,303.1,150.5,302.6,148.9,303.7z"/>
						</g>
					</g>
					<g>
						<g>
							<path class="st8" d="M159.3,304.8c-0.8,0.1-1.4,0.7-1.9,1.2l0.3,0.2c-0.6-0.1-1,0.8-0.7,1.3c0.3,0.6,0.9,0.8,1.4,1.1
								c0.2,0.1,0.4,0.2,0.6,0.1c0.1-0.1,0.2-0.2,0.3-0.3c0.4-0.5,0.7-1.1,1.1-1.6c0.2-0.2,0.3-0.5,0.4-0.8
								C161,305.3,160.1,304.7,159.3,304.8z"/>
						</g>
					</g>
				</g>
			</g>
			<g>
				<g>
					<g>
						<path class="st6" d="M206.7,321.7l-0.7-0.4c1.8-3.4,3.6-6.9,4.5-10.6c1-4.1,0.8-8-0.7-11.1c-1-2-2.5-3.8-4-5.5
							c-2.2-2.6-4.5-5.2-4.9-8.7c-0.5-3.8,1.6-7.3,3.5-10.7c2-3.5,3.9-6.7,3.4-10.3l0.8-0.1c0.6,3.9-1.5,7.4-3.5,10.8
							c-1.9,3.3-3.9,6.6-3.4,10.2c0.4,3.2,2.5,5.6,4.7,8.2c1.5,1.8,3.1,3.6,4.1,5.7c2,4.1,1.5,8.6,0.7,11.6
							C210.4,314.8,208.5,318.3,206.7,321.7z"/>
					</g>
				</g>
				<g>
					<g>
						<path class="st6" d="M201.2,286.1c-1.2-0.3-2.4-2.3-2.3-3.4c0-0.7,0.2-1.3,0.4-1.9c0.1-0.4,0.2-0.8,0.3-1.2
							c0.4-2.3-0.7-4.3-1.9-6.6c-1.1-2.1-2.3-4.3-2.1-6.6l0.8,0.1c-0.2,2.1,0.9,4.2,2,6.2c1.2,2.2,2.4,4.5,2,7.1
							c-0.1,0.4-0.2,0.9-0.3,1.3c-0.2,0.6-0.3,1.1-0.4,1.7c0,0.8,1,2.6,1.8,2.7l-0.1,0.8C201.3,286.2,201.2,286.2,201.2,286.1z"/>
					</g>
				</g>
				<g>
					<g>
						<path class="st6" d="M203.4,290.6c-0.1-1.1-0.1-2.5,0.4-3.6c0.7-1.5,2.1-2.3,3.4-3.1c1.2-0.7,2.4-1.4,3-2.5
							c0.3-0.5,0.5-1.1,0.7-1.7c0.4-1.2,0.8-2.5,2.1-3.1l0.3,0.7c-0.9,0.4-1.3,1.5-1.6,2.6c-0.2,0.6-0.4,1.3-0.8,1.9
							c-0.7,1.3-2,2-3.3,2.8c-1.3,0.8-2.5,1.5-3.1,2.7c-0.5,1-0.4,2.2-0.3,3.3L203.4,290.6z"/>
					</g>
				</g>
				<g>
					<g>
						<path class="st9" d="M192.3,263.3c0.5-0.5,1.3-0.4,1.9-0.2s1.3,0.6,2,0.3c0.5-0.2,0.8-0.6,1.2-0.8c0.7-0.4,1.7-0.2,2.3,0.4
							c0.6,0.6,0.9,1.4,1.1,2.2c0.1,0.9,0,1.9-0.7,2.4C198.2,269.2,190.3,265.5,192.3,263.3z"/>
					</g>
				</g>
				<g>
					<g>
						<path class="st8" d="M198.3,264.9c-0.2-0.4-0.7-0.4-1.1-0.3c-0.4,0-0.7,0.1-1.1,0.1c-0.1,0-0.3,0-0.4,0.1
							c-0.3,0.2-0.2,0.7,0.1,0.9c0.3,0.2,0.7,0.3,1,0.3l0.1-0.2c0.3,0,0.7,0,1-0.1C198.2,265.6,198.4,265.2,198.3,264.9z"/>
					</g>
				</g>
				<g>
					<g>
						<g>
							<path class="st9" d="M200.5,269.4c-0.8,0.5-1,1.6-1.8,2c-0.3,0.2-0.7,0.2-1,0.4c-0.8,0.4-0.8,1.8,0,2.4
								c0.2,0.2,0.5,0.3,0.8,0.3c0.6,0,1-0.7,1.5-1.1c0.9-0.6,2-0.4,3.1-0.2c1.9,0.3,4.4-1.1,2-2.7
								C204.1,269.8,201.5,268.7,200.5,269.4z"/>
						</g>
					</g>
					<g>
						<g>
							<path class="st8" d="M203.2,271.6c0-0.1-0.1-0.2-0.1-0.2c-0.3-0.4-0.9-0.7-1.4-0.7l0,0.2c-0.3,0-0.5,0.1-0.7,0.2
								c-0.3,0.2-0.6,0.4-1,0.6c-0.1,0.1-0.2,0.1-0.2,0.3c0,0.1,0.1,0.2,0.2,0.3c0.4,0.2,0.8,0,1.2-0.1c0.4,0,0.7,0.1,1.1,0.1
								c0.4,0,0.8,0,1-0.3C203.1,271.8,203.2,271.7,203.2,271.6z"/>
						</g>
					</g>
				</g>
				<g>
					<g>
						<path class="st7" d="M204.1,264.3c-0.3-0.5-0.5-1.2-0.2-1.7c0.4-0.6,1.2-0.6,1.8-0.4s1.3,0.5,1.9,0.5c0.9-0.1,1.7-0.8,2.7-0.7
							c0.5,0.1,1,0.5,1.4,0.8c0.7,0.5,1.5,1,2,1.7s0.7,1.7,0.1,2.4c-1.1,1.2-3.6,0.1-5-0.1C206.9,266.5,205.1,266,204.1,264.3z"/>
					</g>
				</g>
				<g>
					<g>
						<path class="st8" d="M211.1,265.4c0-0.3-0.3-0.6-0.6-0.7c-0.5-0.2-1-0.5-1.4-0.7l0,0.2c-0.4-0.3-0.9-0.4-1.4-0.4
							c-0.3,0-0.5,0.1-0.7,0.2c-0.2,0.2-0.2,0.5-0.1,0.7c0.1,0.1,0.2,0.1,0.3,0.2c0.9,0.3,1.8,0.6,2.7,0.9c0.2,0.1,0.5,0.1,0.7,0.1
							C210.9,265.8,211.1,265.7,211.1,265.4z"/>
					</g>
				</g>
				<g>
					<g>
						<path class="st7" d="M208.9,275.5c-0.4-0.5-0.7-1.2-0.3-1.7c0.2-0.3,0.6-0.3,0.9-0.4c0.3,0,0.6-0.1,1,0
							c0.6,0.1,1.1,0.7,1.7,0.6c0.2,0,0.4-0.1,0.6-0.2c0.3-0.1,0.6,0,0.9,0.1c0.4,0.1,0.9,0.3,1.3,0.4c0.1,0,0.2,0.1,0.3,0.2
							c0.1,0.1,0.1,0.3,0.2,0.4c0.2,0.4,0.7,0.6,1,1c0.4,0.4,0.6,1.1,0.2,1.6c-0.4,0.5-1.1,0.6-1.8,0.6
							C212.9,278,210.2,277.3,208.9,275.5z"/>
					</g>
				</g>
				<g>
					<g>
						<g>
							<path class="st8" d="M212.9,274.9c0.1,0.1,0.2,0.2,0.3,0.3c0,0,0,0,0,0L212.9,274.9z"/>
						</g>
					</g>
					<g>
						<g>
							<path class="st8" d="M214.3,276c-0.1-0.1-0.3-0.2-0.5-0.3c-0.2-0.1-0.5-0.3-0.7-0.5c-0.6-0.3-1.4-0.4-2.1-0.2
								c-0.1,0-0.2,0.1-0.3,0.1c-0.2,0.1-0.1,0.4-0.1,0.6c0,0.2,0.1,0.5,0.3,0.6c0.2,0.1,0.5,0,0.8,0c0.4,0,0.8,0.2,1.2,0.3
								c0.4,0.2,0.8,0.3,1.2,0.1c0.1,0,0.2-0.1,0.3-0.2C214.6,276.4,214.5,276.2,214.3,276z"/>
						</g>
					</g>
				</g>
				<g>
					<g>
						<path class="st6" d="M209.7,283.2l-0.5-0.5c1.1-1,3.2-1.5,4.7-1.5c1.2-0.1,2.4-0.7,3.3-1.2c0.9-0.5,2.2-1.4,2.5-2.7
							c0.2-0.7,0-1.5-0.2-2.3c0-0.2-0.1-0.4-0.1-0.6c-0.3-1.5-0.1-2.6,0.7-3.4l0.5,0.6c-0.7,0.7-0.6,1.8-0.4,2.6
							c0,0.2,0.1,0.4,0.1,0.6c0.2,0.9,0.4,1.8,0.2,2.7c-0.4,1.6-1.8,2.6-2.8,3.2c-1,0.6-2.3,1.2-3.7,1.3
							C212.3,281.9,210.5,282.4,209.7,283.2z"/>
					</g>
				</g>
				<g>
					<g>
						<g>
							<path class="st9" d="M215.7,271.9c-0.7-0.3-1.4-0.8-1.5-1.5c-0.2-0.7,0.2-1.6,1-1.8c0.9-0.2,1.8,0.7,2.7,0.4
								c0.2-0.1,0.4-0.2,0.6-0.3c0.8-0.4,1.7-0.5,2.6-0.3c0.9,0.2,1.6,0.7,2.3,1.3c0.6,0.6,1.2,1.2,1.4,2c0.2,0.8,0,1.8-0.7,2.2
								c-0.5,0.4-1.2,0.4-1.8,0.3c-0.6-0.1-1.2-0.4-1.7-0.7c-0.8-0.4-1.7-1-2.6-1.3C217.3,272.1,216.5,272.1,215.7,271.9z"/>
						</g>
					</g>
					<g>
						<g>
							<path class="st8" d="M219.1,269.9c-0.3,0.1-0.6,0.1-0.9,0.2c-0.2,0-0.4,0.1-0.6,0.2c-0.1,0.1-0.1,0.1-0.2,0.2
								c-0.1,0.2,0.1,0.4,0.4,0.5c0.2,0,0.4,0,0.6,0c0.7,0,1.2,0.5,1.8,0.8c0.2,0.1,0.4,0.2,0.6,0.3c0.1,0,0.3,0.1,0.4,0
								c0.3-0.1,0.4-0.5,0.3-0.8c-0.1-0.3-0.3-0.5-0.6-0.7C220.4,270.1,220,269.7,219.1,269.9z"/>
						</g>
					</g>
				</g>
				<g>
					<g>
						<path class="st6" d="M199.5,281.4c-0.2-0.1-0.3-0.3-0.3-0.9c-0.1-0.5-0.3-2-0.5-2.3c-0.3-0.2-0.6-0.3-0.9-0.5
							c-0.1-0.1-0.3-0.1-0.4-0.2c-0.8-0.4-1.4-0.9-2.1-1.4l-2.1-1.6c-0.3-0.3-0.7-0.6-1-1c-0.2-0.3-0.4-0.7-0.5-1
							c-0.2-0.4-0.3-0.7-0.5-1c-0.2-0.2-0.5-0.4-0.7-0.6c-0.5-0.4-1.1-0.8-1.2-1.5l0.8-0.1c0.1,0.4,0.5,0.7,0.9,1
							c0.3,0.2,0.6,0.4,0.9,0.7c0.3,0.4,0.5,0.8,0.7,1.2c0.1,0.3,0.3,0.6,0.4,0.9c0.2,0.3,0.6,0.6,0.9,0.8l2.1,1.6
							c0.6,0.5,1.3,1,2,1.3c0.1,0.1,0.3,0.1,0.4,0.2c0.4,0.2,0.7,0.3,1.1,0.6c0.3,0.2,0.5,0.9,0.7,2.8c0,0.2,0.1,0.4,0.1,0.5l0,0
							c0,0.1,0,0.5-0.4,0.5C199.7,281.4,199.6,281.4,199.5,281.4z M199.8,280.6c0,0-0.1,0-0.1,0c-0.2,0-0.3,0.1-0.3,0.2l0.7,0
							C200,280.7,199.9,280.7,199.8,280.6z M198.8,278.2L198.8,278.2L198.8,278.2z"/>
					</g>
				</g>
				<g>
					<g>
						<g>
							<path class="st7" d="M187.1,267.8c-0.7,0.6-1.1,1.6-1,2.6c0.1,0.6,0.5,1.3,1,1.2c0.1,0,0.3-0.1,0.4-0.1
								c1.4-0.6,3,0.5,4.5,0.6c0.5,0,1.1-0.1,1.5-0.4c0.4-0.4,0.5-1.1,0.1-1.4c-0.4-0.3-1.1-0.3-1.2-0.8c-0.1-0.2,0-0.5,0-0.7
								C192.5,266.2,188.2,266.8,187.1,267.8z"/>
						</g>
					</g>
					<g>
						<g>
							<path class="st8" d="M190.7,269.4c0-0.3-0.1-0.5-0.3-0.6c-0.2-0.2-0.4-0.3-0.6-0.5l-0.1,0c-0.6-0.1-1.3,0.3-1.5,0.9
								c-0.1,0.1-0.1,0.3,0,0.4c0.2,0.3,0.5,0.2,0.8,0.2c0.3,0,0.6,0.1,1,0.1C190.3,269.9,190.7,269.7,190.7,269.4z"/>
						</g>
					</g>
				</g>
			</g>
		</g>
		<g style="clip-path:url(#SVGID_00000133516965045350807570000011913450442417224341_);">
			<g>
				<g>
					<path class="st10" d="M201.4,294.7c0,0,81.1,26.3,80.9,28.1c-0.2,1.8-81.2-25.2-81.2-25.2L201.4,294.7z"/>
				</g>
				<g>
					<path class="st8" d="M201,297.7c0,0-10.9-0.3-13.1-4.8c-1.5-3-2.5-6.1-3-7.9c-0.1-0.5,0.4-0.9,0.8-0.6l15.7,10.3L201,297.7z"/>
				</g>
			</g>
			<g>
				<path class="st11" d="M307,343.8c-17.5-8.8-35.1-17.6-52.6-26.3c-1.6-4.8-3.3-9.5-4.9-14.3c-0.8-1.1-1.9-2.4-3.4-3.8
					c-1.4-1.3-2.8-2.2-4-2.9c-1.4,0-3.2,0.1-5.2,0.6c-3.2,0.8-5.5,2.1-7,3.2c-1.6,1.2-2.5,2.4-2.2,3c0.3,0.6,1.9,0.5,2.6,0.4
					c1.5-0.1,2.6-0.7,3.5-1c1.1-0.5,2.7-1,4.9-1.4c0.7,0.6,1.7,1.6,2.6,3c2.2,3.3,3.1,8,2,8.6c-0.2,0.1-0.4,0.1-0.5,0.1
					c-3.6-0.7-10.4-7.6-14.4-6.3c-0.3,0.1-0.9,0.3-1.1,0.8c-0.6,1.6,4.1,3.6,7.8,8.8c1.9,2.6,1.9,4,2.9,5.5c0,0,0.6,0.8,1.1,1.3
					c2.6,2.6,6.8,3,8.9,3.1c19,12.5,38,25,57,37.5C305.7,357.1,306.3,350.5,307,343.8z"/>
			</g>
		</g>
		<path style="clip-path:url(#SVGID_00000133516965045350807570000011913450442417224341_);fill:#FCB99B;" d="M231.6,304.6
			c0.4-0.4,3.6-3.4,8.2-2.8c5.4,0.6,7.8,5.6,8,5.9c-1.2,0.1-2.5,0.3-3.7,0.4c-2.4-1.4-4.3-1.8-5.7-1.8c-1.1,0-2,0.1-3.4-0.2
			C233.5,305.8,232.3,305.2,231.6,304.6z"/>
		<polygon style="clip-path:url(#SVGID_00000133516965045350807570000011913450442417224341_);fill:#A04B2A;" points="89.9,213.7 
			85.5,209.2 91.3,203.4 93.3,212 		"/>
		<path style="clip-path:url(#SVGID_00000133516965045350807570000011913450442417224341_);fill:#3C6828;" d="M192.1,288.4
			c-2.3,2.8-2.4,4.2-2.2,5.4c0,0.4,0.2,1.5-0.2,1.7c-0.2,0.1-0.6-0.1-0.9-0.4c-1.8-1.5-2.5-3.8-2.5-3.8c-0.8-2.7-1.5-5.1-1.9-6.9
			c-0.1-0.4,0.3-0.7,0.7-0.5C187.5,285.2,189.6,287,192.1,288.4z"/>
		<g style="clip-path:url(#SVGID_00000133516965045350807570000011913450442417224341_);">
			<g>
				<g>
					<g>
						<g transform="matrix( 1, 0, 0, 1, 0,0) ">
							<g>
								<g id="Layer2_20_FILL_00000080887326924975461750000004864629553192957606_">
									<path class="st11" d="M337,266.5l-0.5-0.2l-0.4,0c-7.3,3.4-12.2,10.5-14.7,21.3l0.6-1.4c-2.1,6.3-6.2,16.6-12.4,30.9
										c-5.7,13.1-10.7,25.8-14.9,37.9c-0.6,1.8,0,3.9,1.5,5.1l0.4,0.3c0,0,0,0,0,0.1c0.3,0.7,0.7,1.3,1.1,1.9
										c1.5,2.4,3.3,4.4,5.4,5.7c1.4,0.9,2.9,2.1,5.2,2.6c0,0,0,0,0,0c2.1,0.5,4.2-0.6,5.1-2.5c9.6-19.9,19.1-39.8,28.7-59.7
										c0.3-0.6,0.7-1.2,1.3-1.6c2.5-2.1,5.1-3,7.7-2.8c0,0,0.1,0,0.1,0c0,0,0-0.1,0-0.1c0-0.1,0-0.1-0.1-0.1l0,0
										c-0.3-5.3-1.1-10.4-2.4-15.2C346.1,280.3,342.2,272.9,337,266.5z"/>
								</g>
							</g>
						</g>
						<g transform="matrix( 1, 0, 0, 1, 0,0) ">
							<g>
								<g id="Layer2_21_FILL_00000170994876268650029890000011139128754997226645_">
									<path class="st14" d="M255.7,329.3L255.7,329.3l-0.2,0.2l0,0L255.7,329.3"/>
									<path class="st11" d="M255.7,329.2L255.7,329.2l-0.2,0.2l0,0L255.7,329.2"/>
								</g>
							</g>
						</g>
						<g transform="matrix( 1, 0, 0, 1, 0,0) ">
							<g>
								<g id="Layer2_31_FILL_00000133514651525772290730000014519552107637323654_">
									<path class="st15" d="M337,265.3l-0.5-0.2l-0.4,0c-7.3,3.4-12.2,10.5-14.7,21.3l0.6-1.4c-2.1,6.3-6.2,16.6-12.4,30.9
										c-0.9,1.9-1.7,3.9-2.5,5.9l21.6,13.6l13.8-28.8c1.6-1.5,3.3-2.5,4.9-3c0.6-0.2,1.3-0.4,2-0.5c0.5-0.1,1.1-0.1,1.6,0
										c0,0,0.1,0,0.1,0c0,0,0-0.1,0-0.1c0-0.1,0-0.1-0.1-0.1l0,0c-0.1-2.3-0.4-4.6-0.7-6.7c-0.2-2.9-0.7-5.5-1.5-7.6
										c-0.1-0.3-0.2-0.6-0.2-0.9C346.1,279.1,342.2,271.7,337,265.3z"/>
								</g>
							</g>
						</g>
						<g transform="matrix( 1, 0, 0, 1, 0,0) ">
							<g>
								<g id="Layer2_32_FILL_00000066515161069403399310000002864067006150343099_">
									<path class="st11" d="M313.4,365.1l3.9-15.3c-8.7-4.4-15.7-8-21-10.6c-6.2-3.1-12.4-5.9-18.3-8.4c-6-2.5-10.7-5.1-14.2-7.7
										c-3.5-2.6-5.2-3.9-5.3-3.9c0,0-0.1,0-0.1,0.1l0,0.1c-4.2-0.7-6.8,1.7-7.8,7.3c5.7,5.7,8.5,8.4,8.3,7.9
										c21.1,19.4,36.4,31,45.7,34.9C308.3,371,312.4,368.9,313.4,365.1z"/>
								</g>
							</g>
						</g>
					</g>
					<g>
						<g>
							<g transform="matrix( 0.351959228515625, 0, 0, 0.351959228515625, 4965.5,580.6) ">
								<g transform="matrix( 1, 0, 0, 1, 0,0) ">
									<g>
										<g id="Seragu_0_Layer0_0_FILL_00000125599606116371531750000017131578013125117849_">
											<path class="st16" d="M-12978-133.1l-1.4,56.6c46.5,8.2,93,6.8,139.6-4.1l-3.5-68.7
												C-12888.2-140.3-12933.1-134.9-12978-133.1z"/>
											<path class="st17" d="M-12890.4-891.3c-19.8-4.6-41.4-7.7-64.6-9.4l-23,767.6c44.9-1.7,89.8-7.1,134.7-16.2
												L-12890.4-891.3z"/>
											<path class="st16" d="M-12887.5-890.6l-3-0.8v0.1l47.2,742l3.5,68.7c10.7,1.6,20.2-4,28.6-16.8l-55-787.3L-12887.5-890.6
												z"/>
											<path class="st18" d="M-12880.9-884.8c-6.9-2.2-14-4.2-21.3-5.9L-12880.9-884.8z"/>
										</g>
									</g>
								</g>
							</g>
							<g transform="matrix( 1.31781005859375, 0, 0, 1.31781005859375, 4933.85,1176.35) ">
								<g transform="matrix( 1.0998382568359375, 0.017730712890625, -0.017730712890625, 1.0998382568359375, -2.05,-472) ">
									<g transform="matrix( 1, 0, 0, 1, 0,0) ">
										<g>
											<g id="Hair_1c2h_hair_ul_0_Layer0_0_MEMBER_0_FILL_00000033357131967409934910000015212316176377540754_">
												<path d="M-3150.3-206c-0.2,0.1-0.3,0.3-0.5,0.4c-0.6,0.6-1.2,1.2-1.8,1.8c-3.3,3.6-5.8,7.7-7.4,12.2
													c-1.6,4.5-2.4,9.2-2.3,14.2c0.1,5,0.8,9.4,2.1,13.3c1.3,3.9,3.2,6.7,5.7,8.3c2.5,1.7,5,2.7,7.6,3.2
													c2.4,0.5,5,0.2,7.7-0.8c2.3-0.8,4.6-2.2,7-4c3.2-2.5,6-5.4,8.4-8.7c0.5-0.7,1-1.4,1.5-2.1c1.6-2.4,2.9-4.9,4-7.5
													c0.3-0.7,0.6-1.4,0.8-2.2c0-0.1,0.1-0.2,0.1-0.3c1.8-5.3,2.3-10.6,1.5-15.8c-0.9-5.8-3.3-10.2-7.2-13.3
													c-2.6-2.1-5.8-3.4-9.3-3.9c-3.5-0.5-6.9-0.2-10.2,0.9C-3145.3-209.3-3147.9-207.9-3150.3-206z"/>
											</g>
										</g>
									</g>
								</g>
								<g transform="matrix( 0.9983978271484375, -0.05657958984375, 0.0879364013671875, 0.996612548828125, -63.2,4.35) ">
									<g>
										<g transform="matrix( 1, 0, 0, 1, 0,0) ">
											<g>
												<g id="Cloth_1Lad1y_R_leg_0_Layer2_0_FILL_00000106861057344049971450000002834472648425076108_">
													<path class="st11" d="M-3366.8-590.4c-0.1,0.1-0.1,0.2-0.1,0.3c-0.7,1.3-1.5,2.7-2.2,4c-0.8,1.3-1.5,2.6-2.3,3.9
														c-0.1,0.2-0.2,0.3-0.3,0.5c-2.9,4.7-5.3,8.4-7.1,11c-1.2,2-2.3,3.3-3.1,4c-0.9,0.7-1.4,1.1-1.6,1.3
														c-0.4,0.5-1,1.1-1.6,1.8c-0.2,0.2-0.4,0.4-0.5,0.7c-0.7,1.3-1.1,2.4-1,3.3c0.1,1.6,1.5,2.2,4.4,1.9
														c2-0.2,4.7-0.9,8.2-2c2-0.9,3.8-2.2,5.5-3.8c2.2-3.5,4.6-6.3,7.3-8.5c0.9-0.8,1.9-1.5,2.8-2.1c1.6-1.5,2.6-3,2.9-4.5v0
														c0,0,0-0.1,0-0.1c0-0.1,0-0.3,0-0.4v0c0,0,0,0.1,0,0.1c0-0.2,0.1-0.4,0.1-0.6c0-0.2-0.1-1-0.4-2.3
														c-0.1-0.6-0.2-1.1-0.3-1.4c0,0,0-0.1-0.1-0.1c-0.2-0.5-0.1-1.7,0.2-3.5c0,0,0,0,0,0l0.3-2.2c-0.9,0.1-1.5,0.1-1.7,0.1
														c-2.4,0.2-5.6-0.1-9.6-0.9C-3366.9-590.1-3366.8-590.3-3366.8-590.4z"/>
												</g>
											</g>
										</g>
										<g transform="matrix( 1, 0, 0, 1, 0,0) ">
											<g>
												<g id="Cloth_1Lad1y_R_leg_0_Layer1_0_MEMBER_0_FILL_00000074436487668033258930000014087709365191466167_">
													<path class="st19" d="M-3374-559L-3374-559L-3374-559L-3374-559z"/>
												</g>
											</g>
										</g>
										<g transform="matrix( 1, 0, 0, 1, -34.5,0) ">
											<g transform="matrix( 1, 0, 0, 1, 0,0) ">
												<g>
													<g id="Hands_1s1hoe_rht_0_Layer1_0_FILL_00000122714099695656180030000010468796542164461977_">
														<path class="st20" d="M-3324.8-571.7L-3324.8-571.7L-3324.8-571.7L-3324.8-571.7 M-3358.1-552.2
															c0.1,0.2,0.3,0.4,0.5,0.6l0.1,0C-3357.7-551.8-3357.9-552-3358.1-552.2z"/>
														<path class="st21" d="M-3357.6-551.5c0.1,0.1,0.3,0.3,0.4,0.4c1.2,1,4.3,1,9.5,0c5.2-1,8.8-2.2,10.8-3.8
															c1.4-1.1,2.4-2.2,3.2-3.2c0.3-0.4,0.6-0.9,0.8-1.3c2.8-6.3,4.8-10,6.1-11c0.1-0.1,0.1-0.1,0.2-0.1l0.9,2.4
															c0.6,1.9,0.7,4.6,0.3,8c0,0.1,0,0.3,0,0.4c0.3,0.4,0.8,0.6,1.3,0.6c0.3-4,0.2-7.4-0.3-10.4c-0.1-0.7-0.3-1.4-0.4-2.1
															l0.1,0c-0.1-0.1-0.1-0.3-0.1-0.4l-1.5,0.9v0h0l0,0l0,0l-0.1,0.1l0,0l0,0c-1.3,1.1-3.4,4.8-6.2,11.1
															c-0.2,0.4-0.5,0.9-0.8,1.3c-0.8,1-1.8,2.1-3.2,3.2c-2.1,1.6-5.7,2.9-11,3.9c-5.3,1-8.5,1-9.7,0L-3357.6-551.5
															 M-3326.4-570.7L-3326.4-570.7L-3326.4-570.7C-3326.4-570.7-3326.4-570.7-3326.4-570.7z"/>
														<path class="st22" d="M-3350.6-563.6c0.6-0.7,1.2-1.3,1.6-1.8c-0.2,0.2-0.7,0.5-1.3,1.1c-0.3,0.3-0.8,0.7-1.3,1.2
															c-0.6,0.6-1.4,1.4-2.3,2.2c-2.6,2.6-4.1,4.6-4.5,6.1c-0.3,1-0.2,1.9,0.3,2.6c0.2,0.2,0.4,0.4,0.6,0.6
															c1.2,1,4.4,1,9.7,0c5.3-1,8.9-2.3,11-3.9c1.4-1.1,2.4-2.2,3.2-3.2c0.3-0.4,0.6-0.9,0.8-1.3c2.8-6.3,4.9-10,6.2-11.1
															l0,0l0,0l0.1-0.1l0,0l0,0h0v0l1.5-0.9c0,0.1,0.1,0.3,0.1,0.4v0l-0.1,0c0.2,0.7,0.3,1.4,0.4,2.1
															c0.5,2.9,0.6,6.4,0.3,10.4c-0.5,0-1-0.2-1.3-0.6c0,0.3-0.1,0.6-0.1,1c0,0.1,0,0.2-0.1,0.3c0.5,0.3,1.1,0.5,1.7,0.6
															c0.5,0,0.9-0.1,1.1-0.3c0-0.5-0.1-1-0.1-1.5c-0.2-3.7,0.3-6.9,1.6-9.6c0.9-1.6,1.3-3.6,1.2-6c0-0.1,0-0.2,0-0.3
															c-0.1-2-0.4-3.6-0.9-5c0-0.1-0.1-0.3-0.1-0.4c0.1,0.5,0.1,1.1,0.1,1.6c0,0.2,0,0.4-0.1,0.6c-0.3,1.5-1.3,3-2.9,4.5
															c-1,0.6-1.9,1.3-2.8,2.1c-2.7,2.2-5.1,5.1-7.3,8.5c-1.7,1.6-3.5,2.9-5.5,3.8c-10.8,3.6-14.6,2.6-11.5-3.2
															C-3351-563.1-3350.8-563.4-3350.6-563.6z"/>
													</g>
												</g>
											</g>
										</g>
									</g>
									<g>
										<g transform="matrix( 1, 0, 0, 1, 0,0) ">
											<g>
												<g id="Cloth_1Lad1y_R_leg_0_Layer2_0_FILL_00000107579600698214450420000013711720551768167610_">
													<path class="st11" d="M-3341.4-589c-0.1,0.1-0.1,0.2-0.1,0.3c-0.7,1.3-1.5,2.7-2.2,4c-0.8,1.3-1.5,2.6-2.3,3.9
														c-0.1,0.2-0.2,0.3-0.3,0.5c-2.9,4.7-5.3,8.4-7.1,11c-1.2,2-2.3,3.3-3.1,4c-0.9,0.7-1.4,1.1-1.6,1.3
														c-0.4,0.5-1,1.1-1.6,1.8c-0.2,0.2-0.4,0.4-0.5,0.7c-0.7,1.3-1.1,2.4-1,3.3c0.1,1.6,1.5,2.2,4.4,1.9
														c2-0.2,4.7-0.9,8.2-2c2-0.9,3.8-2.2,5.5-3.8c2.2-3.5,4.6-6.3,7.3-8.5c0.9-0.8,1.9-1.5,2.8-2.1c1.6-1.5,2.6-3,2.9-4.5v0
														c0,0,0-0.1,0-0.1c0-0.1,0-0.3,0-0.4v0c0,0,0,0.1,0,0.1c0-0.2,0.1-0.4,0.1-0.6c0-0.2-0.1-1-0.4-2.3
														c-0.1-0.6-0.2-1.1-0.3-1.4c0,0,0-0.1-0.1-0.1c-0.2-0.5-0.1-1.7,0.2-3.5c0,0,0,0,0,0l0.3-2.2c-0.9,0.1-1.5,0.1-1.7,0.1
														c-2.4,0.2-5.6-0.1-9.6-0.9C-3341.5-588.7-3341.5-588.8-3341.4-589z"/>
												</g>
											</g>
										</g>
										<g transform="matrix( 1, 0, 0, 1, 0,0) ">
											<g>
												<g id="Cloth_1Lad1y_R_leg_0_Layer1_0_MEMBER_0_FILL_00000041993078896186444250000007740996989177209768_">
													<path class="st19" d="M-3348.7-557.6L-3348.7-557.6L-3348.7-557.6L-3348.7-557.6z"/>
												</g>
											</g>
										</g>
										<g transform="matrix( 1, 0, 0, 1, -34.5,0) ">
											<g transform="matrix( 1, 0, 0, 1, 0,0) ">
												<g>
													<g id="Hands_1s1hoe_rht_0_Layer1_0_FILL_00000016067605854262199590000018171006497684825243_">
														<path class="st20" d="M-3299.4-570.2L-3299.4-570.2L-3299.4-570.2L-3299.4-570.2 M-3332.7-550.7
															c0.1,0.2,0.3,0.4,0.5,0.6l0.1,0C-3332.3-550.3-3332.5-550.5-3332.7-550.7z"/>
														<path class="st21" d="M-3332.2-550.1c0.1,0.1,0.3,0.3,0.4,0.4c1.2,1,4.3,1,9.5,0c5.2-1,8.8-2.2,10.8-3.8
															c1.4-1.1,2.4-2.2,3.2-3.2c0.3-0.4,0.6-0.9,0.8-1.3c2.8-6.3,4.8-10,6.1-11c0.1-0.1,0.1-0.1,0.2-0.1l0.9,2.4
															c0.6,1.9,0.7,4.6,0.3,8c0,0.1,0,0.3,0,0.4c0.3,0.4,0.8,0.6,1.3,0.6c0.3-4,0.2-7.4-0.3-10.4c-0.1-0.7-0.3-1.4-0.4-2.1
															l0.1,0c-0.1-0.1-0.1-0.3-0.1-0.4l-1.5,0.9v0l0,0l0,0l0,0l-0.1,0.1l0,0l0,0c-1.3,1.1-3.4,4.8-6.2,11.1
															c-0.2,0.4-0.5,0.9-0.8,1.3c-0.8,1-1.8,2.1-3.2,3.2c-2.1,1.6-5.7,2.9-11,3.9c-5.3,1-8.5,1-9.7,0L-3332.2-550.1
															 M-3301-569.2L-3301-569.2L-3301-569.2C-3301-569.3-3301-569.3-3301-569.2z"/>
														<path class="st22" d="M-3325.3-562.1c0.6-0.7,1.2-1.3,1.6-1.8c-0.2,0.2-0.7,0.5-1.3,1.1c-0.3,0.3-0.8,0.7-1.3,1.2
															c-0.6,0.6-1.4,1.4-2.3,2.2c-2.6,2.6-4.1,4.6-4.5,6.1c-0.3,1-0.2,1.9,0.3,2.6c0.2,0.2,0.4,0.4,0.6,0.6
															c1.2,1,4.4,1,9.7,0c5.3-1,8.9-2.3,11-3.9c1.4-1.1,2.4-2.2,3.2-3.2c0.3-0.4,0.6-0.9,0.8-1.3c2.8-6.3,4.9-10,6.2-11.1
															l0,0l0,0l0.1-0.1l0,0l0,0l0,0v0l1.5-0.9c0,0.1,0.1,0.3,0.1,0.4v0h-0.1c0.2,0.7,0.3,1.4,0.4,2.1
															c0.5,2.9,0.6,6.4,0.3,10.4c-0.5,0-1-0.2-1.3-0.6c0,0.3-0.1,0.6-0.1,1c0,0.1,0,0.2-0.1,0.3c0.5,0.3,1.1,0.5,1.7,0.6
															c0.5,0,0.9-0.1,1.1-0.3c0-0.5-0.1-1-0.1-1.5c-0.2-3.7,0.3-6.9,1.6-9.6c0.9-1.6,1.3-3.6,1.2-6c0-0.1,0-0.2,0-0.3
															c-0.1-2-0.4-3.6-0.9-5c0-0.1-0.1-0.3-0.1-0.4c0.1,0.5,0.1,1.1,0.1,1.6c0,0.2,0,0.4-0.1,0.6c-0.3,1.5-1.3,3-2.9,4.5
															c-1,0.6-1.9,1.3-2.8,2.1c-2.7,2.2-5.1,5.1-7.3,8.5c-1.7,1.6-3.5,2.9-5.5,3.8c-10.8,3.6-14.6,2.6-11.5-3.2
															C-3325.6-561.7-3325.5-561.9-3325.3-562.1z"/>
													</g>
												</g>
											</g>
											<g transform="matrix( 1, 0, 0, 1, 0,0) ">
												<g>
													<g id="Hands_1s1hoe_rht_0_Layer1_1_FILL_00000075861783724817958270000002548661587056174229_">
														<path class="st23" d="M-3295.5-576c-1,2.3-1.9,3.6-2.5,4c0.2,1.8,0.4,3.7,0.6,5.9l1.3-4"/>
													</g>
												</g>
											</g>
										</g>
									</g>
								</g>
								<g transform="matrix( 1, 0, 0, 1, 0,0) ">
									<g>
										<g id="a1_acton_3_Layer11_0_MEMBER_3_MEMBER_0_FILL_00000126321282229648059480000002088864251763829137_">
											<path class="st15" d="M-3485.6-690.9c-14.4,6-16.2,20.6-14,39.9l21.6,3l3.3-25.6C-3480.2-681.2-3480-689-3485.6-690.9z"
												/>
										</g>
									</g>
								</g>
								<g transform="matrix( 0.9995880126953125, 0.0284576416015625, -0.0284576416015625, 0.9995880126953125, -8.95,-341.75) ">
									<g transform="matrix( 1, 0, 0, 1, 0,0) ">
										<g>
											<g id="Body_1la3dy_body_0_Layer2_0_FILL_00000111185473037104193060000002272056862185363111_">
												
													<linearGradient id="SVGID_00000141428613288477832520000017409820511282079164_" gradientUnits="userSpaceOnUse" x1="-5208.2158" y1="350.8806" x2="-5131.7085" y2="308.9956" gradientTransform="matrix(1.3173 -3.750317e-02 -3.750317e-02 -1.3173 3398.4277 -6.877)">
													<stop  offset="5.490200e-02" style="stop-color:#DA776A"/>
													<stop  offset="0.4078" style="stop-color:#EB9A90"/>
													<stop  offset="1" style="stop-color:#FA9A90"/>
												</linearGradient>
												<path style="fill:url(#SVGID_00000141428613288477832520000017409820511282079164_);" d="M-3420-239.6l2.9-0.1
													c0-2.5-0.7-4.8-2-6.8C-3418.8-244.1-3419.1-241.8-3420-239.6z"/>
												<path class="st11" d="M-3419.1-246.5c-0.1-0.2-0.4-0.6-1-1.3c-0.6-0.6-1.9-1.7-4.2-3.1c-2.2-1.4-5.3-2.7-9.3-3.7
													c-11-1.7-18.9-4.1-23.7-7.3c-10.5,3.9-17.1,6.6-19.9,8.1v0c-4.5,1.4-6.9,3.8-9.4,5.4c-2.9,1.8-4.8,3.7-5.2,5.6
													c-0.4,2.6-1.6,3.6-1.8,5.3l73.5-2.1C-3419.1-241.8-3418.8-244.1-3419.1-246.5z"/>
												<path class="st25" d="M-3457.1-262.1C-3457.2-262.1-3457.2-262.1-3457.1-262.1c-10.6,3.9-17.2,6.6-20,8.1l0,0
													c-4.5,1.3-7.9,2.8-10.5,4.5c2.5-1.5,6-2.9,10.5-4.3v0c2.8-1.5,9.4-4.2,19.9-8.1c4.8,3.2,12.7,5.6,23.7,7.3
													c4,1.1,7.1,2.3,9.3,3.7c2.2,1.4,3.6,2.4,4.2,3.1c0.6,0.7,0.9,1.1,1,1.3c1.3,2,2,4.3,2,6.8l0.2,0
													c-0.1-2.8-0.9-5.2-2.4-7.4c-0.8-1.2-2-2.2-3.6-3.1c-2.7-1.8-6.2-3.4-10.6-4.6C-3444.5-256.5-3452.3-258.9-3457.1-262.1
													L-3457.1-262.1z"/>
											</g>
										</g>
									</g>
									<path class="st11" d="M-3434.9-252.5c-2.1,1.1-4.9,4.1-8.4,8.8c-3.5,4.7-9.7,6.4-18.4,5.1c-8.7-1.3-14.3-3.3-16.7-6.1
										l-0.1-0.1c-1.1-1.3-1.8-2.7-1.9-4.4c0-0.2,0-0.4,0-0.5c0-1.3,0.3-2.3,0.9-3.1l0,0c6-2.6,10.1-5,12.2-6.9
										c0.1-0.2,0.1-0.3,0.1-0.5c0.4-1.2,0.7-2.4,0.8-3.7c0-0.3,0.1-0.7,0.1-1c0-0.2,0-0.5,0-0.7c-0.1-0.2-0.1-0.4,0-0.6
										c0-0.1,0-0.1,0-0.2c-0.1-1.6-0.5-3.1-1-4.6c-0.6-5,0.4-8.3,3.2-10.2c2.7-1.8,7.1-2.1,13.1-0.9c0,0,0.1,0,0.1,0c0,0,0,0,0,0
										c0,1.6,0,3.2,0.3,4.8c0,0.2,0.1,0.4,0.1,0.6c0.2,1,0.3,1.8,0.5,2.3l0,0c0.3,1.1,0.6,2.1,1,3.2c0.4,1,0.8,2.1,1.3,3.1
										c0.1,0.3,0.3,0.5,0.4,0.8c0.3,0.6,0.7,1.2,1,1.8c1.2,2,2.7,3.9,4.4,5.8l0,0c1.5,1.5,3.3,2.7,5.5,3.7
										c0.7,0.3,1.3,0.6,1.9,0.8c1.2,0.3,2,0.6,2.5,0.8C-3431.8-254.2-3432.7-253.6-3434.9-252.5z"/>
									<g transform="matrix( 1, 0, 0, 1, 0,0) ">
										<g>
											<g id="Cloth_1ch_head_0_Layer3_0_MEMBER_0_FILL_00000132789203721706291190000007321010470333365654_">
												<path class="st26" d="M-3449.2-271.1c-1.1,0.9-2.9,2.2-6.4,4.2c-4.5,2.6-6.4,2.9-7.8,3c-1.1,0.1-2.1,0.1-3-0.1
													c0-0.3,0.1-0.7,0.1-1c0-0.2,0-0.5,0-0.7c-0.1-0.2-0.1-0.4,0-0.6c0-0.1,0-0.1,0-0.2c-0.1-1.6-0.5-3.1-1-4.6
													c-0.6-5,0.4-8.3,3.2-10.2c2.7-1.8,7.1-2.1,13.1-0.9c0,0,0.1,0,0.1,0c0,0,0,0,0,0c0,1.6,0,3.2,0.3,4.8
													c0,0.2,0.1,0.4,0.1,0.6c0.2,1,0.3,1.8,0.5,2.3l0,0C-3449.9-273.3-3449.6-272.2-3449.2-271.1z"/>
											</g>
										</g>
									</g>
								</g>
								<g transform="matrix( 1.0998382568359375, 0.017730712890625, -0.017730712890625, 1.0998382568359375, -2.05,-472) ">
									<g transform="matrix( 1, 0, 0, 1, 0,0) ">
										<g>
											<g id="Cloth_1ch_head_0_Layer3_0_MEMBER_0_FILL_00000160888836950309077730000009987078499673216188_">
												<path class="st11" d="M-3126.2-213.6c-3.6-5-8.9-8-16-9.1c-6.4-0.9-11.7,0.1-16,3.3c0,0-0.1,0.1-0.1,0.1
													c-0.4,0.3-0.7,0.5-1.1,0.8c0,0,0,0,0,0c-4.5,3.8-6.8,8.1-7,12.9c-0.2,4.7-0.1,8.4,0.5,10.9l0,0.2l0.4,5.5
													c0.1,1.6,0.5,3.9,1,7.1c0.7,4.2,2,7.8,3.8,10.6l3,4.6c1.6,3.5,4.2,5,7.9,4.7c1.3-0.1,3.1-0.4,7.1-2.7
													c3.7-2,5.4-3.3,6.3-4.1c4.6-4.1,6.1-9.9,6.6-13.1c0.1,0.1,0.3,0.4,0.7,0.5c1,0.5,2,0.2,2.1,0.2c0.5-0.1,1.1-0.5,1.7-1.5
													c3.1-5.1,3.4-14.8,3.4-14.8c0.1-5.5-0.4-7.6-0.7-8.8c-0.5-1.7-1.2-3.3-2.1-4.9C-3125.1-212-3125.7-212.8-3126.2-213.6z"
													/>
											</g>
										</g>
									</g>
									<g transform="matrix( 0.9879913330078125, 0, 0, 0.7599945068359375, -0.1,-13.1) ">
										<g>
											<g id="Cloth_1ch_head_0_Layer3_0_MEMBER_1_FILL_00000125587770302722304400000012223302898221222567_">
												
													<linearGradient id="SVGID_00000068639640759401504560000007199760394063267467_" gradientUnits="userSpaceOnUse" x1="-5754.8892" y1="457.0063" x2="-5753.2578" y2="457.0063" gradientTransform="matrix(1.432 -2.306681e-02 -1.772600e-02 -1.1015 3582.0303 128.7321)">
													<stop  offset="0" style="stop-color:#FF4145"/>
													<stop  offset="1" style="stop-color:#EE252A"/>
												</linearGradient>
												<path style="fill:url(#SVGID_00000068639640759401504560000007199760394063267467_);" d="M-3190.1-241.9
													c0-0.5-0.1-0.9-0.4-1.3c-0.2-0.3-0.5-0.5-0.8-0.5c-0.3,0-0.6,0.2-0.9,0.5c-0.2,0.4-0.3,0.8-0.3,1.3
													c0,0.5,0.1,0.9,0.3,1.2c0.2,0.4,0.5,0.5,0.9,0.5c0.3,0,0.6-0.2,0.8-0.5C-3190.2-241-3190.1-241.4-3190.1-241.9z"/>
											</g>
										</g>
									</g>
									<g transform="matrix( 1, 0, 0, 1, 0,0) ">
										<g>
											<g id="Cloth_1ch_head_0_Layer0_0_FILL_00000039818947367661684720000009531691342869918116_">
												<path class="st4" d="M-3156.5-187.8c-0.4-1.2-1.2-2.3-2.5-3.1c-2-1.1-4-1.1-5.9,0.1c-0.6,0.4-1,0.7-1.1,1.1
													c0.4,0.7,0.9,1.3,1.7,1.8c0.8,0.6,1.8,1,2.8,1.1c0.9,0.1,1.9,0,2.8-0.2C-3157.9-187.2-3157.2-187.4-3156.5-187.8
													 M-3138.4-189.1c-0.2-0.4-0.6-0.7-1.3-1.1c-1-0.5-1.9-0.8-2.9-1c-1.2-0.1-2.4,0.1-3.6,0.6c-1.5,0.7-2.4,1.7-2.8,2.9
													c0.8,0.3,1.6,0.6,2.4,0.8c1.1,0.3,2.1,0.4,3.1,0.3c0.2,0,0.4,0,0.6,0c0.9-0.2,1.7-0.4,2.5-0.8
													C-3139.6-187.9-3138.9-188.5-3138.4-189.1z"/>
											</g>
										</g>
									</g>
									<g transform="matrix( -0.7544708251953125, -0.016265869140625, -0.018157958984375, 0.8441314697265625, 11.15,-37.15) ">
										<g transform="matrix( 1, 0, 0, 1, 0,0) ">
											<g>
												<g id="ch3eye_ball__0_Layer0_0_FILL_00000113343764690369841820000018389660398777546687_">
													<path class="st28" d="M4184.7-102.3c-0.8,0-1.6,0.3-2.2,0.9c-0.6,0.6-0.9,1.4-0.9,2.3c0,0.8,0.3,1.6,0.9,2.2
														c0.6,0.6,1.4,1,2.2,1c0.9,0,1.6-0.3,2.2-1c0.6-0.6,1-1.3,1-2.2c0-0.9-0.3-1.6-0.9-2.3
														C4186.3-102,4185.6-102.3,4184.7-102.3z"/>
												</g>
											</g>
										</g>
										<g transform="matrix( 1.2004852294921875, 0, 0, 1.2004852294921875, -269.35,-88.45) ">
											<g>
												<g id="ch3eye_ball__0_Layer0_0_MEMBER_0_MEMBER_0_FILL_00000049933366391982458890000016759132517504345278_">
													<path d="M3710.6-10.2c-0.4,0-0.7,0.1-0.9,0.4c-0.2,0.3-0.3,0.6-0.3,1c0,0.4,0.1,0.7,0.3,0.9c0.3,0.3,0.6,0.4,0.9,0.4
														c0.4,0,0.6-0.1,0.9-0.4c0.3-0.2,0.4-0.5,0.4-0.9c0-0.4-0.1-0.7-0.4-1C3711.3-10.1,3711-10.2,3710.6-10.2z"/>
												</g>
											</g>
										</g>
										<g transform="matrix( 1.5006103515625, 0, 0, 1.5006103515625, -7.85,7.4) ">
											<g>
												<g id="ch3eye_ball__0_Layer0_0_MEMBER_0_MEMBER_1_FILL_00000140727571181836413630000007668793847994812820_">
													<path class="st4" d="M2794-71.4c0.4-0.3-0.2-1.1-0.6-0.6C2793-71.6,2793.6-70.9,2794-71.4z"/>
												</g>
											</g>
										</g>
									</g>
									<g transform="matrix( -0.7393646240234375, -0.01593017578125, -0.017791748046875, 0.827239990234375, -13.95,-37.4) ">
										<g transform="matrix( 1, 0, 0, 1, 0,0) ">
											<g>
												<g id="ch3eye_ball__0_Layer0_0_FILL_00000112634575238880905650000011743056864949488542_">
													<path class="st28" d="M4259.6-104.6c-0.8,0-1.5,0.3-2.1,0.9c-0.6,0.6-0.9,1.4-0.9,2.3c0,0.8,0.3,1.6,0.9,2.2
														c0.6,0.6,1.3,1,2.1,0.9c0.8,0,1.5-0.3,2.1-1c0.6-0.6,0.9-1.3,0.9-2.2c0-0.9-0.3-1.6-0.9-2.3
														C4261.1-104.3,4260.4-104.6,4259.6-104.6z"/>
												</g>
											</g>
										</g>
										<g transform="matrix( 1.2004852294921875, 0, 0, 1.2004852294921875, -269.35,-88.45) ">
											<g>
												<g id="ch3eye_ball__0_Layer0_0_MEMBER_0_MEMBER_0_FILL_00000055685542846075102290000009971089806182220930_">
													<path d="M3772.7-12.1c-0.3,0-0.6,0.1-0.9,0.3c-0.2,0.3-0.3,0.6-0.3,0.9c0,0.4,0.1,0.7,0.3,0.9c0.2,0.3,0.5,0.4,0.9,0.4
														c0.3,0,0.6-0.1,0.8-0.4c0.2-0.2,0.4-0.5,0.4-0.9c0-0.4-0.1-0.7-0.4-0.9C3773.3-12,3773.1-12.1,3772.7-12.1z"/>
												</g>
											</g>
										</g>
										<g transform="matrix( 1.5006103515625, 0, 0, 1.5006103515625, -7.85,7.4) ">
											<g>
												<g id="ch3eye_ball__0_Layer0_0_MEMBER_0_MEMBER_1_FILL_00000090287598433063995370000017519300231352141730_">
													<path class="st4" d="M2843.6-72.8c0.4-0.3-0.2-1.1-0.6-0.6C2842.5-73,2843.2-72.3,2843.6-72.8z"/>
												</g>
											</g>
										</g>
									</g>
									<g transform="matrix( -0.7544708251953125, -0.016265869140625, -0.018157958984375, 0.8441314697265625, -0.95,-38.3) ">
										<g>
											<g id="Cloth_1ch_head_0_Layer0_0_MEMBER_2_FILL_00000080170613112984253860000017623795388668441786_">
												<path d="M4196.6-99.4c-1.2-1.4-2.5-1.9-3.1-2c-3.1-0.8-7.1,1.1-9.4,4.9c0,0-0.2,0.1-0.1,0.3c0,0.2,0.2,0.2,0.2,0.2
													c0.2,0,0.4,0,0.7-0.1c0.4,0.2,4.6,2.6,9.2,0.9c3-1.1,4.4-3.3,4.8-4C4198.1-99.3,4197.4-99.3,4196.6-99.4z M4187.9-99.3
													c2.4-2.1,7.8-1.8,8.4,1.1c-1.1,4.3-8.3,3.2-11.6,1.6C4185.8-97.7,4186.8-98.6,4187.9-99.3z"/>
											</g>
										</g>
									</g>
									<g transform="matrix( -0.7544708251953125, -0.016265869140625, -0.018157958984375, 0.8441314697265625, -0.95,-38.3) ">
										<g>
											<g id="Cloth_1ch_head_0_Layer0_0_MEMBER_3_FILL_00000134943045331626601970000010265675065009256832_">
												<path d="M4171.1-100.8c-1.7-0.7-3.2-0.7-4.1-0.6c-3.1,0.1-5.4,1.4-6.5,2.2c-0.8-0.1-1.5-0.2-2.3-0.3
													c0.6,0.7,4.7,4.8,10.8,4.7c2.5,0,4.4-0.8,5.7-1.3c0.4,0.1,0.8,0,0.6-0.5v0l0,0c0,0,0,0,0,0c0,0,0-0.1,0-0.1
													C4175-97.4,4173.9-99.7,4171.1-100.8z M4166.6-100.7c3-0.3,7.3,1.4,8.1,4c-4.3,1.9-10.4,1.9-13.4-1.8
													C4162.2-99.7,4165-100.5,4166.6-100.7z"/>
											</g>
										</g>
									</g>
									<g transform="matrix( -0.7544708251953125, -0.016265869140625, -0.018157958984375, 0.8441314697265625, -0.95,-38.3) ">
										<g>
											<g id="Cloth_1ch_head_0_Layer0_0_MEMBER_4_FILL_00000086653677719074813900000008252554900760916405_">
												<path d="M4194.1-107.1c0.6,0,1.9,0.1,2.7,1c0.7,0.7,0.7,1.5,0.7,1.5c0.1,0,0.2-2.1-1.3-3.3c-0.5-0.4-1.2-0.7-2-0.8
													c-2.2-0.3-5,0.5-8.5,2.5c0,0.2,0,0.3,0,0.5c0,0.4,0.1,0.7,0.1,1C4186.7-105.2,4190.7-107.4,4194.1-107.1z"/>
											</g>
										</g>
									</g>
									<g transform="matrix( -0.7544708251953125, -0.016265869140625, -0.018157958984375, 0.8441314697265625, -0.95,-38.3) ">
										<g>
											<g id="Cloth_1ch_head_0_Layer0_0_MEMBER_5_FILL_00000108309427353895572850000001995188426111966599_">
												<path d="M4174.7-105.4c0.1-0.2,0.3-0.5,0.3-0.9c0-0.2,0-0.4-0.1-0.6c-5-2-8.8-2.9-11.6-2.6c-2.8,0.3-5,1.3-6.7,3
													c1.6-0.4,3.5-0.7,5.6-0.9C4167.6-107.6,4172-106.4,4174.7-105.4z"/>
											</g>
										</g>
									</g>
								</g>
								<g transform="matrix( 1.00958251953125, 0.0287322998046875, -0.0287322998046875, 1.00958251953125, -8.95,-341.85) ">
									<g transform="matrix( 1, 0, 0, 1, 0,0) ">
										<g transform="matrix( 1, 0, 0, 1, 0,0) ">
											<g>
												<g id="a1_acton_3_Layer1_0_MEMBER_0_FILL_00000161605740051759828060000016173569880146470046_">
													<path class="st11" d="M-3401.7-216.7l0.7,3.6c0.2,0.7,0.3,1.3,0.5,2c0.2,0.9,0.7,3.2,1.5,6.8
														c1.6,12.3,3.2,24.5,4.8,36.8c0.8,0.2,1.6,0.4,2.4,0.6c4.1,0.5,8.1,0.9,12.2,1.4c0-2.8,0.1-5.1,0.1-6.5
														c0-10.5-0.4-19.3-0.9-30.2c-0.1-1.6-0.1-3.1-0.2-4.5c-0.4-8-0.5-13.7-0.4-17.2c0.3-1.9,0.3-4,0.2-6.5
														c-0.3-4.3-1.1-7.9-2.5-10.7c0,0,0,0.1,0,0.1C-3389.8-233.9-3395.9-225.7-3401.7-216.7z"/>
												</g>
											</g>
										</g>
										<g>
											<g id="a1_acton_3_Layer1_0_MEMBER_3_MEMBER_0_FILL_00000037683372811469051280000010231718544498675340_">
												<path class="st15" d="M-3379.9-220.8c0-8.7-1.1-15.5-3.4-20.4c-3.1,3.6-6.3,7.5-9.5,11.8c-3.4,4.6-6.5,9-9.2,13.3
													c0.8,2.9,1.5,5.9,2.3,8.8l19.5-4.1C-3380.1-214.8-3379.9-217.9-3379.9-220.8z"/>
											</g>
										</g>
									</g>
									<g transform="matrix( 1, 0, 0, 1, 0,0) ">
										<g>
											<g id="Cloth_1lady11_top_0_Layer1_0_MEMBER_1_FILL_00000099656137693427216240000009585951804418032785_">
												<path class="st15" d="M-3409.8-259.6c0.2,13.5-10.3,26.4-24.3,22.7c-13.3-0.7-4.1-10.3-1.7-16.2c1.9-2.4,3.3-4.5,3.1-5
													c-0.9,0.5-17,8.5-17.8,9c-9.4,2.2-9.1,7.8-12.2,16c-0.6,1.7-2.8,7.9-1.2,22.2c1.7,15.1,3.8,22.5,6.7,27.4
													c13.9,23.4,55.2,28.8,61.7,19.1c0.6-0.8,0.8-1.7,0.8-1.9c-2-7-3.9-14-5.9-21c0-2,0.2-4.9,0.4-8.6
													c1-13.8,3.1-21.5,4.7-32.2c0.9-5.7,1.9-14,2.1-24.3C-3398.8-254.8-3404.3-257.2-3409.8-259.6z M-3441-218.5
													c0,0,0-0.1,0-0.1C-3440.9-218.6-3441-218.5-3441-218.5L-3441-218.5z"/>
												<path class="st29" d="M-3440.9-218.6c0,0,0,0.1,0,0.1l0,0C-3441-218.5-3440.9-218.6-3440.9-218.6z"/>
												<path class="st30" d="M-3409.9-259.9L-3409.9-259.9c0-0.1,0-0.1,0-0.2C-3409.9-260-3409.9-259.9-3409.9-259.9z"/>
											</g>
										</g>
									</g>
									<g transform="matrix( 1, 0, 0, 1, 0,0) ">
										<g>
											<g id="Cloth_1lady11_top_0_Layer1_1_FILL_00000020371424179415084090000006224358729707603080_">
												<path class="st15" d="M-3378.8,2.9c1.1,17.3,0.6,32.8-0.7,46c-1.9,2-4.9,4.6-9.2,6.4c-10.8,4.5-21,0.2-23.2-0.8
													c-2.2,1.5-8.7,5.5-17.7,5.1c-6.9-0.3-11.9-3-14.3-4.4c-1.7,0.9-10,4.9-19.5,1.5c-5.3-1.9-8.7-5.3-10.3-7.1
													c0.7-22.9,2.3-47.2,5.2-72.9c1.6-14,3.5-27.4,5.5-40.4c-0.3-15.2,0.1-28.1,0.7-38.3c0,0,1.9-34.2,7.1-52
													c0,0,0.2-0.6,0.4-1.5c0-0.1,0-0.1,0-0.2c0.7,0.1,1.4,0.2,2.1,0.3c5,0.7,10.4,1.1,16.1,1.1c0.1,0,0.2-0.1,0.3-0.1
													c0.8-0.3,1.5-0.3,2,0c0.1,0.1,0.2,0.1,0.2,0.2c0.7-0.5,1.5-0.5,2.2-0.1c0,0,0,0.1,0.1,0.1c0.7-0.5,1.3-0.5,2-0.1
													c0.1,0,0.1,0,0.1-0.1c0.1,0,0.1,0,0.2-0.1c0.5-0.1,1,0.1,1.7,0.5c0.1-0.1,0.1-0.1,0.2-0.2c0.4-0.3,0.8-0.3,1.3,0.1
													c0.1-0.1,0.2-0.2,0.4-0.3c0.2-0.1,0.4-0.1,0.7,0c0.2,0.1,0.4,0.2,0.7,0.3c0.2,0,0.3,0,0.5,0c0.7,0,1.4,0,2.1-0.1
													c0.2,0,0.5,0,0.8-0.1l0.3,0c14.5-0.9,22.6-4.8,24.4-11.7c0,0,0,0,0-0.1c0,0,0-0.1,0-0.1c0.1-0.6,1.4-0.7,1.7-0.7
													c3.5,10.7,6.6,22.9,8.9,36.3c5.4,32,4,60,1,81.1C-3381.1-35-3380.1-17.3-3378.8,2.9z"/>
											</g>
										</g>
									</g>
									<g transform="matrix( 1, 0, 0, 1, 0,0) ">
										<g>
											<g id="Cloth_1lady11_top_0_Layer1_1_MEMBER_6_FILL_00000038378793067010604610000000106810412777065657_">
												<path class="st31" d="M-3394.6-166.5c-1.1-3.8-2.2-7.6-3.3-11.4c-3.9,3.5-15.1,12.6-32.2,14.1c-11.8,1.1-21.2-2-26-4
													c0.8,5.2,1.5,10.3,2.3,15.5c4.6,2.2,15.9,6.9,30,4.6c4.5-0.7,14.6-2.6,23-10.8C-3397.8-161.5-3395.8-164.4-3394.6-166.5
													z"/>
											</g>
										</g>
									</g>
									<g transform="matrix( 1, 0, 0, 1, 0,0) ">
										<g>
											<g id="Cloth_1lady11_top_0_Layer1_2_FILL_00000123421261556316460580000012389568284908314758_">
												<path class="st16" d="M-3403.9-259c-9.7,4.4-26.8,13.7-41.3,32.1c-8.8,11.1-13.9,22.1-16.9,30.2c0,2,0.2,4.4,0.6,7
													c0.5,3,1.3,5.5,2.1,7.5c21.1-24.3,42.1-48.6,63.2-72.9c0.9,0.3,1.8,0.6,2.6,0.9C-3396.1-255.6-3399.5-257.2-3403.9-259z
													"/>
												<path class="st16" d="M-3403.9-205.9c-5.3,15.3-11,30.9-17.2,46.7c-13.5,34.5-27.7,66.7-42.3,96.5c0-8.4,0-16.9,0-25.3
													c4-8,9.9-20.4,16.1-36.1c16.8-42.7,17.2-63,34.4-95.4c4.5-8.5,11.5-20.3,21.9-33.5c4.4,2.1,8.7,4.3,13.1,6.4
													c-4.6,4.4-10.4,10.6-15.6,19C-3398.8-219.4-3401.9-211.9-3403.9-205.9z"/>
												<path class="st17" d="M-3390-252.2c-1.4-0.8-2.8-1.5-4.3-2.3c-0.6-0.3-1.2-0.6-1.8-0.9c-22.4,12.6-49.5,33.6-61.1,66.8
													c-0.8,2.2-1.4,4.4-2,6.6c1.1,3.6,2.2,7.2,3.3,10.8c-2.9,19.3-5.1,39.8-6.4,61.4c-0.5,7.7-0.8,15.4-1,22.8
													c9.7-20.2,16.3-37.1,20.4-48.4c19.7-54.3,19.9-72.8,36.6-95.4l0,0C-3400.3-238.5-3394.9-245.6-3390-252.2z"/>
											</g>
										</g>
									</g>
									<g transform="matrix( 1, 0, 0, 1, 0,0) ">
										<g>
											<g id="Cloth_1lady11_top_0_Layer1_2_MEMBER_0_FILL_00000000925839826895262010000013572286130624430757_">
												<path class="st32" d="M-3429.1-194.5l-0.2,0.3c0,0,0.1,0,0.1,0L-3429.1-194.5z"/>
											</g>
										</g>
									</g>
								</g>
								<path class="st11" d="M-3416.5-608.1c-0.3-1.7-0.9-2.8-1.3-3.8c-0.6-1.5-1.4-3.3-2.3-5.3l-0.4,0.1l-0.2-0.3
									c-3.4,0.5-6,0.8-7.6,1c-1.7,0.2-3.5,0.5-5.4,0.9c-1.8,0.4-3.9,0.9-6.2,1.6c-2.3,0.6-4.6,1.2-7,1.7c-2.3,0.5-4.6,1-7,1.6
									c-1.6,0.4-3.8,0.7-6.6,0.9c-2,0.1-4.7,0.2-7.8-0.1c0,1.3,0,2.6-0.2,4.1c-0.1,1.5-0.3,2.9-0.6,4.2c0.7,0,1.3,0,1.9,0
									c2,0.3,4.5,0.7,7.6,1.1c5.3,0.8,12.8,0.9,22.5,0.3l1.9-0.1c8.5-1.6,14.5-3,18.3-4.5c0.1-0.1,0.2-0.3,0.3-0.5
									c0.2-0.4,0.2-0.8,0.1-1C-3416.3-606.9-3416.4-607.5-3416.5-608.1z"/>
								<g transform="matrix( 1.0998382568359375, 0.017730712890625, -0.017730712890625, 1.0998382568359375, -2.05,-472) ">
									<path d="M-3113.1-180.8c-0.1,0.9-0.2,2.2-1.1,3.6c-1.4,2.3-3.9,3.2-4.9,3.4c1.1-1,2.8-3.1,2.6-5.6c-0.3-3.9-5-6.2-7.4-7.5
										c-1.9-1-3.6-1.4-4.9-1.7c0,0,0.1,0.1,0.1,0.1c-5.9-1.6-9.8-6.7-13.1-11.8l0,0c-0.2-0.4-1.4-2.5-1.5-2.9
										c-1.8-5.2-5.8-10.7-11.6-10.6l0-13.2c0.1,0,0.1,0,0.2,0c0-0.1,0.1-0.1,0.1-0.2c0,0,0-0.1,0.1-0.1
										c8.3-3.9,16.9-1.9,23.7,2.9c9.3,6.5,12.5,16.7,13.3,19.5c1.2,4.4,0.3,4.9,2,10.7C-3114.4-190.5-3112.7-185.9-3113.1-180.8z
										"/>
									<path d="M-3174.6-199.3c0.1-1.4,0.2-2.8,0.3-4.1c0.4-3.2,1-6.1,1.9-8.7c0.7-2.1,1.6-4.1,2.7-5.9c1.2-1.9,2.5-3.6,4-5.1
										c2-1.9,4.1-3.1,6.3-3.8c1.2-0.3,2.4-0.5,3.6-0.4l0.1,0c0.3,0,0.5,0,0.7,0.1c0,0,0.1,0,0.1,0l0,13.2l0,0
										c-0.3,0-0.6,0-0.9,0.1c-0.1,0-0.3,0-0.4,0.1c-0.2,0-0.5,0-0.7,0.1c-0.7,0.2-1.4,0.6-2.1,1.2c-1.5,1.3-2.8,3-3.8,4.8
										c-1,1.8-1.7,3.7-2.2,5.8c-0.4,2.1-0.7,3.7-0.8,5c-0.1,1.3-0.1,2.7,0.1,4.3l0.2,3.6c0.1,1.5,0.5,3.7,1,6.7
										c0,0.1,0,0.3,0.1,0.5c0.7,3.8,1.9,6.9,3.5,9.5l3.2,5.4l0,2.8c-0.3,1-0.8,1.9-1.2,2.8c-0.1-0.2-0.2-0.5-0.3-0.7
										c-0.7-1.2-1.6-2.6-2.7-4.1c-0.4-0.6-0.9-1.1-1.3-1.7c-1-1.2-1.8-2.1-2.3-2.7c1.1,2.4,1.4,4.5,1.6,6
										c0.2,2.4-0.1,5.7-0.1,5.7c0,0,0,0.3,0,0.3c0,0-1-4.6-2.3-8.4c-1.3-3.8-2.4-5.2-3.9-8.1c-1.3-2.6-2.8-6.5-3.7-11.8
										c-0.1-0.7-0.3-1.4-0.4-2.1C-3174.8-192-3174.9-195.5-3174.6-199.3z"/>
								</g>
								<path class="st16" d="M-3479-391.9c-3.7,0.9-11.1,2.2-20,0.2c-8.5-1.9-14.4-6-17.4-8.3c-1.5,6.7-2.9,13.4-4.4,20.2
									c2.6,2.2,6.5,5,11.8,7.2c5.6,2.4,10.3,3.1,12.4,3.3c7.1,0.9,13-0.2,16.7-1.1c4.3,1.8,13.1,4.7,24.4,3.6
									c9-0.9,15.8-4.1,19.6-6.3c1.5,0.2,5.5,0.7,9.9-1.5c5.7-2.9,7.7-8.1,8.1-9.3c-0.9-5.2-1.7-10.4-2.6-15.5
									c-1.4,1.5-3.8,3.4-7.1,4.9c-6,2.6-11.5,1.9-13.8,1.5c-3.1,1.8-10.2,5.5-19.8,5.5C-3469.5-387.5-3475.8-390.3-3479-391.9z"/>
								<path class="st33" d="M-3467.3-768.5c1.8,0.3,4.9,1.2,7.7,3.7c0.3,0.3,1,0.9,1.9,2c1.6,2.1,2.2,4.4,4.5,8.7
									c3,5.6,6.9,12.6,14.4,16.7c3.9,2.1,8.1,3,8.2,2.7c0.2-0.3-3.9-1.5-7.5-4.7c-3.3-3-3.6-5.3-7.9-14.4
									c-2.1-4.5-3.1-7.8-5.5-10.2C-3453.6-766.1-3457.9-769.1-3467.3-768.5z"/>
							</g>
						</g>
						<g transform="matrix( 1, 0, 0, 1, 0,0) ">
							<g>
								<g id="Layer5_48_MEMBER_2_FILL_00000087412729383208836900000015004940982215131305_">
									<path class="st34" d="M365.8,229.6c-5-0.1-6.8-0.6-6.9-0.1c-0.2,0.6,3,2.7,6.7,3c4.4,0.3,8.4-2,8.2-2.7
										C373.7,229.3,371.7,229.8,365.8,229.6z"/>
								</g>
							</g>
						</g>
						<g transform="matrix( 0.3377532958984375, 0, 0, 0.3377532958984375, 3216.95,368.4) ">
							<g>
								<g id="Layer4_0_MEMBER_8_FILL_00000113328108471270872420000001138481900252749232_">
									<path class="st26" d="M-8446.7-429.2c0.6,0.2,2.5,0.8,4.9,0.4c4.8-0.8,8.4-4.7,8-5.4c-0.4-0.7-3.9,2.3-9.7,2.2
										c-5.1-0.1-8.3-2.5-8.7-1.8C-8452.5-433.1-8450-430.3-8446.7-429.2z"/>
								</g>
							</g>
						</g>
						<g>
							<path class="st35" d="M401.9,221.3c0,0.7-0.2,1.2-0.5,1.5c-0.6,0.7-1.6,0.6-2.1-0.2c-0.2-0.3-0.3-0.8-0.3-1.3
								c0-0.1,0-0.3,0-0.4c0.2-1.4,0.7-2.7,1.4-4.1c0,0,0,0,0,0c0.7,1.3,1.2,2.6,1.4,4C401.9,221,401.9,221.1,401.9,221.3z"/>
							<path class="st36" d="M402.5,220.6c-0.1-0.3-0.1-0.6-0.2-0.9c-0.4-1.7-1-3.2-1.8-4.7c-0.9,1.5-1.5,3.2-1.9,5.1
								c0,0.2-0.1,0.3-0.1,0.5c-0.5,3,0.2,4.5,2,4.5c1.5,0,2.2-0.9,2.2-2.8C402.7,221.7,402.6,221.2,402.5,220.6z M401.6,222.6
								c-0.5,0.8-1.6,0.8-2.2,0c0,0,0,0,0,0c-0.3-0.5-0.4-1.1-0.3-1.3c0-0.1,0-0.3,0-0.4c0.2-1.4,0.7-2.7,1.4-4.1l0-0.3v0.3
								c0,0,0,0,0,0c0.7,1.3,1.2,2.6,1.4,4c0,0.2,0,0.3,0.1,0.5C401.9,221.8,401.8,222.3,401.6,222.6z"/>
						</g>
					</g>
				</g>
				<path d="M412.9,232.7c-1.6,3.4-3.7,8.4-5.5,14.8c-4.9,17-2.1,23.7-3.9,39c-2.5,20.7-9.2,22.2-16.6,54.4
					c-1.9,8.4-3,15.2-3.7,19.5c-3.4-9.2-6.4-21.8-4.1-36c1.8-10.7,6-19.5,5.8-19.2c-2.8,5.7-5.6,12.7-7.5,20.8
					c-0.6,2.6-1.1,5.2-1.5,7.6c-1.2-8.7-1.8-19.1-0.9-30.8c1.9-25,9.8-44.7,16.2-57.3C398.5,241.2,405.7,236.9,412.9,232.7z"/>
			</g>
		</g>
		<g style="clip-path:url(#SVGID_00000133516965045350807570000011913450442417224341_);">
			<path class="st11" d="M363,372.5c-2.2-1.8-4.1-3.1-5.5-3.8c-0.3-0.2,0-0.1-2.9-1.5c-1.1-0.5-2.4-1.2-4.1-1.9
				c-1.2-0.5-2.6-0.5-3.8,0.1c-0.7,0.4-1.4,0.7-2.1,1c-2,1-4,1.8-5.8,2.4c1,0.5,2.9,1.4,5.4,1.5c1.4,0.1,2.5-0.1,3.4-0.4
				c0.8,0.4,1.5,0.7,2.3,1c0.4,0.7,0.8,1.5,1.2,2.2c-1.2,0.4-2.6,0.7-4,0.9c-6.3,1-11.7,0.2-15.7-0.9c-0.4,0.2-2.2,1-2.6,2.7
				c-0.4,1.5,0.6,2.9,1.1,3.5c3.4,4.8,13.4,5.8,14.8,5.9c3.8,0.3,10.1,0.4,17.7-1.9c3.3,0.3,6.5,0.6,9.8,1c0.2-3.9,0.5-7.9,0.7-11.8
				C369.7,372.6,366.4,372.6,363,372.5z"/>
			<g>
				<g>
					<path class="st37" d="M336.1,367.8c-4-0.5-7.7-0.8-10.4-1c-8.1-0.5-15.8-0.3-21.6,2.8c-6.8,3.6-5.7,8.8,2.6,12.2
						c4.5,1.9,10.3,2.4,15.7,2.5c10.7,0.1,26.5,0.8,32.7-4.9C362.4,372.7,348.2,369.3,336.1,367.8z"/>
				</g>
				<path class="st9" d="M309.4,370.9c0.2-0.2,1.8-1.6,4.8-1.8c3-0.1,6,1.1,5.8,1.5c-0.2,0.5-4.3-0.2-6,1.1
					c-0.6,0.4-0.5,0.8-1.4,1.2c-0.7,0.3-2.1,0.6-3,0.3C308.8,373,308.5,372,309.4,370.9z"/>
				<path class="st8" d="M326.8,368.5c0.5,0,3.6-0.1,5.8,1.1c2.2,1.2,2.5,3.2,1.7,3.4c-0.9,0.2-2.7-2-5.7-2c-1,0-1.5,0.2-2.7,0
					c-1-0.2-2.3-0.6-2.5-1.1C323.4,369.3,324.6,368.6,326.8,368.5z"/>
				<path class="st6" d="M331.9,381.4c-0.5,0.1-3.5,0.5-5.9-0.5c-2.4-1-2.9-2.9-2.2-3.1c0.8-0.3,2.9,1.6,5.9,1.3
					c1-0.1,1.5-0.4,2.6-0.3c1,0,2.4,0.3,2.6,0.8C335.1,380.2,334,381,331.9,381.4z"/>
				<path class="st7" d="M309.6,375c-1.1,0-1.9,0.5-2.1,1c-0.1,0.3-0.2,0.7,0,1.1c0.7,1.8,4.6,2.4,4.8,2.5c4,0.6,7.7-1,7.5-1.4
					c-0.2-0.4-3.4,0.2-6.9-0.9c-0.5-0.2-2.4-0.8-2.4-1.5c0-0.3,0.3-0.5,0-0.7C310.2,375.1,309.9,375,309.6,375z"/>
			</g>
			<path class="st11" d="M346.4,370.3c5.5-0.8-1.1-2.4-1.9-3.7c0,0,0,0,0-0.1c-1.9,0.9-3.7,1.7-5.4,2.3c0,0.3,0.1,0.6,0.3,0.9
				c0.8,1.2,2.9,1.1,4.3,1C344.3,370.7,345.2,370.6,346.4,370.3z"/>
		</g>
	</g>
</g>
</svg>
