<?xml version="1.0" encoding="utf-8"?>
<!-- Generator: Adobe Illustrator 26.0.1, SVG Export Plug-In . SVG Version: 6.00 Build 0)  -->
<svg version="1.1" id="Layer_1" xmlns="http://www.w3.org/2000/svg" xmlns:xlink="http://www.w3.org/1999/xlink" x="0px" y="0px"
	 viewBox="0 0 636 662" style="enable-background:new 0 0 636 662;" xml:space="preserve">
<style type="text/css">
	.st0{fill:#BDDEEF;}
	.st1{fill:#99CCE0;}
	.st2{fill:#52A7C1;}
	.st3{fill:#A3A3A3;}
	.st4{fill:#FFFFFF;}
	.st5{fill:#5F7BB7;}
	.st6{fill:#DE9F7E;}
	.st7{fill:#D38A6A;}
	.st8{fill:#D34047;}
	.st9{fill:#B7303D;}
	.st10{fill:#CE8065;}
	.st11{fill:#6B3628;}
	.st12{fill:#FCB856;}
	.st13{fill:#999999;}
	.st14{fill:none;}
	.st15{fill:#38393A;}
	.st16{fill:#262728;}
	.st17{fill:#828282;}
	.st18{fill:#EF6A0F;}
	.st19{opacity:0.23;fill:#262728;}
	.st20{fill:#4F5051;}
	.st21{fill:#393A3B;}
	.st22{fill:#65657C;}
	.st23{fill:#272829;}
	.st24{fill:#4D4D62;}
	.st25{fill:#19191A;}
	.st26{fill:#242463;}
	.st27{fill:#37374A;}
	.st28{fill:#F4EAC1;}
	.st29{fill:#1C1C65;}
	.st30{fill:#EBDA9B;}
	.st31{fill:#CFBCA9;}
	.st32{fill:#BFA892;}
	.st33{fill:#35357D;}
	.st34{fill:#C7B29E;}
	.st35{fill:#2F3031;}
	.st36{opacity:0.35;fill:#7F7F7D;}
	.st37{fill:#4C6580;}
</style>
<g>
	<g>
		<g>
			<path class="st0" d="M594.5,403.5c-1.6,10.6-6.7,27.3-19,41.9c-2.1,2.5-4.4,4.9-6.7,7.2c-8.7,8.5-19,15.4-29.8,20.4
				c-0.1,0.2-0.2,0.4-0.3,0.7c-2.7,5.7-5.7,11.2-8.8,16.7c-4.9,8.4-10.2,16.4-16,24.1c-45,59.7-116.3,95.7-192.5,94.8
				c-72.2-0.9-139.3-34.8-183.3-90.2c-11-13.8-20.5-29-28.4-45.4c-0.1-0.2-0.2-0.4-0.3-0.7c-0.3-0.1-0.6-0.2-0.9-0.3
				c-1.9-0.7-4.1-1.5-6.6-2.6c-4.8-2.1-10.3-5.1-16.1-9.2c-7.2-5.1-13.5-11.3-18.8-19c-32.4-40.8-33.9-75.6-33.4-89.7
				c2.1-58.9,41.9-117.5,85-129.6c2.8-0.8,11.5-3,44.1-11.8c25.7-6.9,38.7-10.5,45.2-19.9c7.1-10.3,4.3-21.1,4-32.8
				c-1-40.9,30.9-81.3,63.3-103.4c1.9-1.3,41.4-27.1,81.1-14.4c39.8,12.7,35.2,49.9,83,76.9c8.9,5,16.6,8,23.5,9.7
				c21.8,5.6,30.4,2.5,43.4,7c23.2,8,33.9,33.9,34.8,36.3c13.9,34.9-21.9,52.6-20.7,94.2C522.2,326.3,602.7,348.2,594.5,403.5z"/>
			<g>
				<path class="st1" d="M568.7,452.7c-8.7,8.5-19,15.4-29.8,20.4c-0.1,0.2-0.2,0.4-0.3,0.7c-2.7,5.7-5.7,11.2-8.8,16.7
					c-4.9,8.4-10.2,16.4-16,24.1c-17.4,2.9-35.5,3.1-53.2,3.2c-107.5,0.5-215,0.9-322.6,1.4c-11-13.8-20.5-29-28.4-45.4
					c-0.1-0.2-0.2-0.4-0.3-0.7c-0.3-0.1-0.6-0.2-0.9-0.3c-1.9-0.7-4.1-1.5-6.6-2.6c1.6-3.7,4.2-6.9,7.5-9.1c7-4.7,17-4.7,24,0.1
					c-1.2-6.5,3.5-13.6,10-15c6.5-1.4,13.7,3.2,15.2,9.7c4.9-11.7,17.7-19.5,30.3-18.5c12.6,1,24,10.8,26.9,23.1
					c-1.9-14,10.1-28.1,24.2-29c14.1-0.9,27.6,11.1,28.8,25.2c4.1-10.4,13.7-18.4,24.6-20.5c10.9-2.1,22.9,1.7,30.5,9.8
					c2.6-11.8,12.8-21.5,24.6-23.7s24.8,3.3,31.5,13.3c4.3-12.8,17.7-21.9,31.2-21.3c13.5,0.6,26,10.9,29.1,24.1
					c7.6-9.6,20.6-14.6,32.6-12.6s22.7,10.9,26.8,22.4c5.6-7.9,15.3-12.7,25-12.3c9.7,0.4,19,5.9,24,14.1
					C555,446.4,563.2,448,568.7,452.7z"/>
			</g>
			<g>
				<path class="st2" d="M538.6,473.7c-2.7,5.7-5.7,11.2-8.8,16.7C487,564.3,407.3,610.2,321.3,609.2
					c-90.2-1.1-172.5-53.8-211.6-135.5H538.6z"/>
			</g>
			<g>
				<g>
					<path class="st3" d="M119,465c0.2,0.3,0.3,0.6,0.5,0.9c-0.1,0-0.2,0-0.3,0L119,465z"/>
				</g>
				<g>
					<g>
						<path class="st4" d="M190.6,367.8c0.7-7.8-9.3-11.6-15.8-22.1c-3.2-5.3-6.5-13.6-5.6-26.6c-8.5-12.4-7.8-30.4,1.7-42.1
							c9.5-11.7,27-16,40.9-10.2c-1.3-19.3-1.1-42,14.3-53.8c5.4-4.1,12.2-6.3,17.8-10.2c9.6-6.7,15.1-17.7,23.5-25.9
							c10.6-10.2,25.9-15.4,40.5-13.6s28.2,10.5,36,23c31.4-6.8,44.4-1.6,50.2,5.4c4.9,5.9,2.6,10.8,8.3,16.9
							c11.1,11.9,26.9,1.3,41.9,10.6c15.2,9.4,20.9,33.6,17.7,51c-3.3,17.6-14.3,20.4-12.6,33.8c1.8,13.7,13.8,14.1,19,32.2
							c0.7,2.4,5.9,21.5-3.7,32c-5.5,6.1-10.5,3.3-17.3,9.6c-8.9,8.4-5.4,18.1-10.9,27.1c-8.5,13.9-31.3,13.8-45.3,14.8
							c-26.5,1.9-51.5-12.3-78-15c-13.4-1.4-26.9,0.3-40.4-0.1c-10.6-0.3-32.3-5.8-75.1-16.4c-3.4-0.8-12-3.1-13-8.1
							C183.9,375.8,190.1,373.7,190.6,367.8z"/>
					</g>
					<g>
						<rect x="200.1" y="371.4" class="st5" width="243" height="73.8"/>
						<path class="st5" d="M200.1,298.6v73.8h40.5v-73.8H200.1z M205.6,302.6h29.6v65.7h-29.6V302.6z"/>
						<path class="st5" d="M240.6,298.6v73.8h40.5v-73.8H240.6z M246.1,302.6h29.6v65.7h-29.6V302.6z"/>
						<path class="st5" d="M321,342c-0.2,0-0.4,0-0.6,0c-0.2,0-0.4,0-0.6,0c-1.4-0.1-2.6-0.3-3.6-0.5V353c0.3,0.1,0.7,0.2,1,0.3
							c0.3,0.1,0.7,0.2,1,0.2c0.2,0.1,0.5,0.1,0.7,0.1c0.2,0,0.4,0.1,0.6,0.1c0.4,0.1,0.9,0.1,1.4,0.1c0.2,0,0.5,0,0.7,0V342
							C321.4,342,321.2,342,321,342z M316.2,357.9v10.4h-12.3c0,0,0,0.1,0,0.1c0.1,0.3,0.2,0.6,0.2,0.9c0.1,0.3,0.2,0.6,0.2,0.9
							c0.1,0.3,0.1,0.6,0.2,0.9c0,0.1,0,0.1,0,0.2c0.1,0.3,0.1,0.6,0.2,1h9.8l0.2-1h4.2c0.1,0.3,0.1,0.6,0.2,1h2
							c0.1-0.3,0.2-0.7,0.3-1h0.1v-13.5L316.2,357.9z M321,342c-0.2,0-0.4,0-0.6,0c-0.2,0-0.4,0-0.6,0c-1.4-0.1-2.6-0.3-3.6-0.5v27
							h-12.3c0,0,0,0.1,0,0.1c0.1,0.3,0.2,0.6,0.2,0.9c0.1,0.3,0.2,0.6,0.2,0.9c0.1,0.3,0.1,0.6,0.2,0.9c0,0.1,0,0.1,0,0.2
							c0.1,0.3,0.1,0.6,0.2,1h9.8l0.2-1h4.2c0.1,0.3,0.1,0.6,0.2,1h2c0.1-0.3,0.2-0.7,0.3-1h0.1V342C321.4,342,321.2,342,321,342z
							 M281.1,298.6v73.8h40.5v-73.8H281.1z M316.2,368.3h-29.6v-65.7h29.6V368.3z"/>
						<path class="st5" d="M326.8,306.9L326.8,306.9c-0.1-0.1-0.1-0.2-0.2-0.3c-0.1-0.1-0.1-0.2-0.1-0.3c0-0.1,0-0.1-0.1-0.2
							c0-0.1,0-0.1-0.1-0.2c0,0.1,0,0.3-0.1,0.4c0,0.1-0.1,0.3-0.2,0.4c0,0.1-0.1,0.1-0.2,0.2c0,0.1-0.1,0.1-0.1,0.1
							c-0.3,0.3-0.7,0.5-1.2,0.5c-0.9-0.1-1.7-0.9-1.9-1.8c-0.2,0.2-0.4,0.4-0.7,0.6c-0.2,0.1-0.3,0.3-0.5,0.4v51l5.4,0v-50.7
							C327,307.1,326.9,307,326.8,306.9z M326.8,306.9L326.8,306.9c-0.1-0.1-0.1-0.2-0.2-0.3c-0.1-0.1-0.1-0.2-0.1-0.3
							c0-0.1,0-0.1-0.1-0.2c0-0.1,0-0.1-0.1-0.2c0,0.1,0,0.3-0.1,0.4c0,0.1-0.1,0.3-0.2,0.4c0,0.1-0.1,0.1-0.2,0.2
							c0,0.1-0.1,0.1-0.1,0.1c-0.3,0.3-0.7,0.5-1.2,0.5c-0.9-0.1-1.7-0.9-1.9-1.8c-0.2,0.2-0.4,0.4-0.7,0.6
							c-0.2,0.1-0.3,0.3-0.5,0.4v51l5.4,0v-50.7C327,307.1,326.9,307,326.8,306.9z M321.6,298.6v73.8h40.5v-73.8H321.6z
							 M327.1,302.6h29.6v65.7h-29.6V302.6z"/>
						<path class="st5" d="M362.1,298.6v73.8h40.5v-73.8H362.1z M367.6,302.6h29.6v65.7h-29.6V302.6z"/>
						<path class="st5" d="M402.6,298.6v73.8h40.5v-73.8H402.6z M408.1,302.6h29.6v65.7h-29.6V302.6z"/>
					</g>
					<g>
						<g>
							<g>
								<g>
									<path class="st6" d="M343.2,377.5c-0.1,3.3-0.1,6.7-0.4,10c-0.2,2-0.4,3.9-1,5.8c-0.6,1.9-1.8,3.5-2.5,5.4
										c-0.6,1.7-1,3.4-1.2,5.2c-0.2,1.3-0.2,2.5-0.2,3.8h-38.4c0.2-2.4,0.1-4.8-0.5-7.2c-0.6-2.3-1.9-4.2-2.7-6.4
										c-1.1-3.2-1-6.5-1.4-9.8c-0.4-3.5-0.7-7-0.9-10.6c-0.1-2.3,0.2-5.6,0.4-7.9c0-0.7,0-2.8,0.9-3.1c5.6-1,15.2-8.4,15.2-8.4
										c0.4-0.9,0.6-2,0.6-3.2c0-0.5,0-1,0-1.5c0-1.1-0.1-2.2-0.1-3.1c2.6,1.4,5.8,1.8,8.7,1.8c2.6,0,5.3-0.4,7.8-1.2
										c0,0.6-0.1,1.3-0.1,2c0,0.5,0,1,0,1.5c0.1,1.7,0.4,3.3,1.1,4.6c0.2,0.2,0.4,0.4,0.5,0.5c3.5,1.9,9.2,6.1,13.8,7
										c0.5,1.2,0.2,3.1,0.3,4.4C343.2,370.3,343.2,374.4,343.2,377.5z"/>
									<path class="st7" d="M327.5,349.2c0,0.3,0,0.6,0,0.9c-0.6,0.7-1.5,1.6-2.7,2.5c-1.5,1.1-3.1,2.3-5.3,2.4
										c-2.1,0.1-3.8-0.8-5-1.5c-1.6-0.9-2.6-2-3.3-2.7c0-0.3,0-0.7,0-1c0-1.1,0-2.1-0.1-3.1c2.6,1.4,5.8,1.8,8.7,1.8
										c2.6,0,5.3-0.4,7.8-1.2C327.5,347.9,327.5,348.6,327.5,349.2z"/>
									<path class="st6" d="M308.1,335.1c-0.3-0.9,0.3-1.2-0.8-1.7c-0.9-0.4-1.6,1.3-1.8,2.5c-0.2,1.2,1,5.3,1.7,5.9
										c0.7,0.6,1.6,0.8,1.8-0.2L308.1,335.1z"/>
									<path class="st6" d="M330.3,331.7c0.5,5,1,10.1-1.8,14.8c-0.2,0.4-1.1,1.9-2.7,3.5c-1.3,1.3-3.2,2.9-6,3.4
										c-0.5,0.1-1.1,0.1-1.6,0c-4-0.8-7.4-4.7-8.4-6.3c0,0,0,0,0,0c-0.1-0.2-0.3-0.4-0.4-0.6c-0.1-0.3-0.2-0.5-0.3-0.7
										c0,0,0,0,0,0c-0.9-2.6-1.2-9.9-1.4-14.1c-0.4-5.8,3.1-10.7,9-12.4c0.7-0.2,1.4-0.3,2.2-0.3h0c0.1,0,0.1,0,0.2,0
										c0.6,0,1.3,0.1,8.9,4.7C330.3,324.9,329.9,327.6,330.3,331.7z"/>
								</g>
								<g>
									<path class="st8" d="M279.1,401.8c0.4-5.5,6.4-28.1,7.2-31.7c0.9-4.1,2.1-7.1,6.3-7.9c2.3-0.4,4-0.6,6.2-1.2l6.5,5.6
										L295,407.9C290.6,404.7,282.7,402.8,279.1,401.8z"/>
								</g>
								<g>
									<path class="st8" d="M358.8,402.1c-0.4-5.5-6.4-28.1-7.2-31.7c-0.9-4.1-2.1-7-6.3-7.7c-2.3-0.4-4-0.7-6.3-1.3l-4.5,9.7
										l8.3,37.2L358.8,402.1z"/>
									<path class="st9" d="M341.9,403.5c5.6-1.7,11.2-3.4,16.8-5c0.4,1.3,0.8,2.6,1.1,4.1c0.3,1.3,0.5,2.6,0.7,3.7
										c-5.7,1.7-11.4,3.3-17,5c-0.4-0.9-0.8-1.9-1.1-3.2C341.9,406.3,341.8,404.7,341.9,403.5z"/>
								</g>
								<path class="st9" d="M295.5,403.5c-5.6-1.7-11.2-3.4-16.8-5c-0.4,1.3-0.8,2.6-1.1,4.1c-0.3,1.3-0.5,2.6-0.7,3.7
									c5.7,1.7,11.4,3.3,17,5c0.4-0.9,0.8-1.9,1.1-3.2C295.4,406.3,295.5,404.7,295.5,403.5z"/>
								<path class="st8" d="M290.9,362.7c12.9-4.1,16.8-6.1,17.2-7.1c0.1-0.2,0.4-1,1.1-1.4c0.5-0.3,1.5-0.3,1.5-0.3
									c-2.4,5.4-2.6,10.9,3.9,13.4c0.7,0.3,4.5,6.5,4.7,8.1c0,0,2.7-7.7,3.5-8c7.1-2.6,6.6-8.8,5-13.6c0.3,0,0.7,0.1,1.2,0.5
									c0.2,0.1,0.6,0.4,0.9,0.9c0.2,0.2,0.2,0.5,0.3,0.6c5.9,2.8,10.4,4.9,12.1,5.6c1.6,0.6,3.1,1.3,4.7,1.9c0,0.3,0,0.8,0,1.4
									c0.1,7.5-1.4,11.9-2.6,20.8c-0.8,5.9-1.7,12.8-2.4,26.7c-0.1,1.3-0.2,3.9,0,7.2c0.3,4.4,1.2,7.6,1.4,8.8
									c0.7,5.8,3.8,20.7,3.9,22.8c-7.1,2.5-18.1,5.3-31.7,5c-10.1-0.2-18.6-2.1-24.7-4c1.5-11.4,2.6-19.2,3-22
									c0.1-0.6,0.4-2.6,0.7-5.3c0.1-0.8,0.1-1.7,0.2-2.6c0.2-3.6,0.1-5.6,0.1-11c-0.1-8.2-0.1-7.7,0-10.9
									c0.3-6.5-1.8-14.7-1.8-14.7C292.3,381.2,291.2,374.3,290.9,362.7z"/>
								<g>
									<path d="M319.1,360.3c-0.7,0-4.7-0.1-7-3.2c-0.5-0.7-0.8-1.4-1-1.9c-0.2-0.6-0.3-1.1-0.4-1.5c0,0,0,0,0-0.1
										c0-0.1-0.2-0.5,0.1-0.9c0-0.1,0.1-0.2,0.2-0.3c0,0.2,0.1,0.5,0.2,0.9c0,0,0.4,1.7,1.3,3.1c1.3,1.9,6.5,4.5,10.9,2.2
										c3.1-1.6,4.2-4.8,4.4-5.6c0.1,0,0.2,0.3,0.3,0.5c0.1,0.2,0,0.5,0,0.6c-0.4,0.8-1.2,3.5-4.4,5
										C323.1,359.5,321.4,360.3,319.1,360.3z"/>
								</g>
								<g>
									<path d="M307.8,343.2c-0.3,0-0.5-0.7-0.5-1.3l0.2,0.2c0,0.7,0.2,0.9,0.3,0.9c0.1,0,0.3-0.4,0.3-1.1c0-0.7-0.2-1.1-0.3-1.1
										c-0.1-0.1-0.1-0.1,0-0.2c0.3,0,0.5,0.7,0.5,1.3C308.3,342.6,308.1,343.2,307.8,343.2z"/>
								</g>
								<path class="st6" d="M329.9,335.1c0.3-0.9,0.1-1.4,1-1.7c0.9-0.3,1.6,1.3,1.8,2.5c0.2,1.2-1,5.3-1.7,5.9s-1.6,0.8-1.8-0.2
									L329.9,335.1z"/>
								<g>
									<path d="M330.4,343.2c0.3,0,0.5-0.7,0.5-1.3l-0.2,0.2c0,0.7-0.2,0.9-0.3,0.9s-0.3-0.4-0.3-1.1c0-0.7,0.2-1.1,0.3-1.1
										c0.1-0.1,0.1-0.1,0-0.2c-0.3,0-0.5,0.7-0.5,1.3C329.9,342.6,330.1,343.2,330.4,343.2z"/>
								</g>
								<path d="M329.4,337.5c0.1-0.2,0.2-0.4,0.3-0.6c0.2-1,0.3-2,0.5-3.1c0.4-1.1,0.8-2.5,1-4.3c0.3-2.4,0.4-4.9-1-6.7
									c-1-1.4-2.6-1.1-2.7-1.3c-5.8-9.6-17.9-0.9-19.3,2.3c-0.5,1.3-1.2,3.7-1,6.5c0.1,1.3,0.4,2.5,0.7,3.3
									c0.1,0.2,0.2,0.4,0.3,0.6c0.4,1,0.5,2,0.5,2.7c0.1,0.2,0.1,0.4,0.2,0.6c0-0.4,0.1-1,0.2-1.8c0.4-4.3,0.2-5.7,1.2-6.9
									c0.3-0.3,0.7-0.8,1.5-1.2c5.6,1.4,15.5-2.9,15.8-1.8c0,0.6-0.1,1.4,0.1,2.4c0.2,1.4,0.7,2.4,0.9,2.9
									C329.2,332.7,329.7,334.5,329.4,337.5z"/>
								<g>
									<path class="st10" d="M315.9,346.5c-0.1,0.3,1.6,1.2,3.5,1.2c1.7,0,3.3-0.8,3.2-1.1c0-0.1-0.1-0.2-2.7-0.3
										C317.3,346.3,316,346.3,315.9,346.5z"/>
								</g>
								<g>
									<path class="st10" d="M317.7,343.4c0,0.1,0.7,0.8,1.7,0.8c0.9,0,1.6-0.7,1.6-0.8c0-0.1-0.6,0.3-1.6,0.3
										C318.3,343.7,317.7,343.3,317.7,343.4z"/>
								</g>
								<g>
									<path d="M310.7,334.8c0.3-0.4,0.8-0.8,1.4-1.2c0,0,0,0,0,0c0.4-0.2,0.8-0.3,1.2-0.3c1,0.1,2,0.2,3,0.3
										c0.1,0.1,0.2,0.3,0.2,0.5c0,0.2,0,0.4,0,0.5c-1.2-0.1-2.4-0.2-3.5-0.4c-0.3,0-0.5,0-0.8,0.1
										C311.7,334.5,311.2,334.7,310.7,334.8z"/>
								</g>
								<g>
									<path d="M327.7,334.8c-0.3-0.4-0.8-0.8-1.4-1.2c0,0,0,0,0,0c-0.4-0.2-0.8-0.3-1.2-0.3c-1,0.1-2,0.2-3,0.3
										c-0.1,0.1-0.2,0.3-0.2,0.5c0,0.2,0,0.4,0,0.5c1.2-0.1,2.4-0.2,3.5-0.4c0.3,0,0.5,0,0.8,0.1
										C326.7,334.5,327.2,334.7,327.7,334.8z"/>
								</g>
							</g>
							<g>
								<path class="st4" d="M316.4,337.6c-0.1-0.2-0.5-1.2-1.6-1.5c-1.1-0.3-2.4,0.3-3,1.4c0.2,0.2,1,0.8,2.2,0.9
									C315.4,338.5,316.2,337.8,316.4,337.6z"/>
								<path class="st11" d="M315.4,337.2c0.1,0.6-0.3,1.1-0.9,1.2c-0.6,0.1-1.1-0.3-1.2-0.9c-0.1-0.6,0.3-1.1,0.9-1.2
									C314.8,336.2,315.3,336.6,315.4,337.2z"/>
								<path d="M316.4,337.6c-0.8-1.3-2.3-1.8-3.6-0.9c-0.4,0.3-0.7,0.6-1,1c0.1-0.2,0.2-0.5,0.4-0.7
									C313.4,335.3,315.9,335.6,316.4,337.6L316.4,337.6z"/>
								<path d="M314.8,337.3c0,0.3-0.2,0.5-0.4,0.6c-0.3,0-0.5-0.2-0.6-0.4c0-0.3,0.2-0.5,0.4-0.6
									C314.5,336.8,314.8,337,314.8,337.3z"/>
								<path class="st4" d="M314.1,337c0,0.1-0.1,0.2-0.2,0.2c-0.1,0-0.2-0.1-0.2-0.2c0-0.1,0.1-0.2,0.2-0.2
									C314,336.8,314.1,336.9,314.1,337z"/>
							</g>
							<g>
								<path class="st4" d="M322,337.7c0.1-0.2,0.5-1.2,1.6-1.5c1.1-0.3,2.4,0.2,3,1.4c-0.2,0.2-1,0.9-2.2,0.9
									C323.1,338.5,322.2,337.8,322,337.7z"/>
								<path class="st11" d="M323.1,337.2c-0.1,0.6,0.4,1.1,0.9,1.1c0.6,0.1,1.1-0.4,1.1-0.9c0.1-0.6-0.4-1.1-0.9-1.1
									C323.6,336.2,323.1,336.6,323.1,337.2z"/>
								<path d="M322,337.7c0.7-1.3,2.2-1.9,3.6-1c0.4,0.2,0.8,0.6,1.1,1c-0.1-0.2-0.2-0.4-0.4-0.7C325,335.3,322.5,335.6,322,337.7
									L322,337.7z"/>
								<path d="M323.6,337.3c0,0.3,0.2,0.5,0.5,0.6c0.3,0,0.5-0.2,0.6-0.5c0-0.3-0.2-0.5-0.5-0.6
									C323.9,336.8,323.6,337,323.6,337.3z"/>
								<path class="st4" d="M324.3,337c0,0.1,0.1,0.2,0.2,0.2c0.1,0,0.2-0.1,0.2-0.2c0-0.1-0.1-0.2-0.2-0.2
									C324.4,336.8,324.3,336.9,324.3,337z"/>
							</g>
							<path id="XMLID_00000110431966520572029160000003686028818587635643_" class="st12" d="M306.7,326.9c5.2-4.2,22.1-3.6,24.6-3
								c0.4,0.2,1,1.2,0.7,2.8c0.5,1,0.5,2.4-0.2,2.9c0,0,0,0,0,0.1c0,0.4-0.3,0.7-0.7,0.7c-2.9-0.2-16.2-1.7-23.3,2.6
								c-0.3,0.2-0.7,0.1-0.9-0.2c-0.2-0.3-0.3-0.9-0.2-1.7c-0.7-0.6-0.6-2.2-0.3-2.6C306.4,327.7,306.5,327,306.7,326.9z"/>
							<path class="st12" d="M341.7,362c-0.3-2.7-2.7-2.9-3.5-2.7c-0.7-1.3-2-1.9-3.4-1.4c-0.3-0.9-2.4-1.6-3-1.2
								c0.2,4.4-0.5,46.7-5.9,62.3c-0.3,1.4,10.1,5.9,13.9,3.2C340.3,420.3,344.5,374.2,341.7,362z"/>
							<path class="st8" d="M292.5,441.1c-0.8,6.9-1.8,14-3,21.3c-0.5,3.1-1,6.1-1.5,9.2c6.7,2.5,16.5,5.3,28.6,5.9
								c14.8,0.7,26.7-2.3,34.1-4.8c-0.6-4.8-1.3-9.7-2.1-14.8c-0.8-5.2-1.7-10.2-2.6-15.2c-4.6,2.5-17.4,8.5-33.7,6
								C303.4,447.2,296.6,443.7,292.5,441.1z"/>
							<path class="st9" d="M314.9,367.5c-0.5,0.2-1.1,0.6-1.8,1.3c-1.5,1.7-1.2,3.5-1.9,3.6c-0.9,0.2-2.2-3.1-2.8-5
								c-0.5-1.5-1.2-3.8-1.1-7c0.1-2,0.4-3.7,0.8-4.8c0.1-0.2,0.3-0.9,1-1.3c0.8-0.5,1.6-0.4,1.7-0.4c-0.4,0.5-2.1,3.3-1.4,7
								C310.4,365.4,314.5,367.3,314.9,367.5z"/>
							<path class="st9" d="M322.8,367.4c0.5,0.3,1.1,0.7,1.7,1.4c1.4,1.8,1,3.5,1.7,3.7c0.9,0.2,2.4-3,3.1-4.8
								c0.6-1.4,1.5-3.7,1.6-6.9c0.1-1.5-0.1-2.8-0.3-3.8c-0.1-0.5-0.2-0.9-0.2-1c-0.1-0.4-0.2-0.9-0.3-1.1
								c-0.4-0.8-1.4-1.1-2.1-1.2c0.4,1,0.8,2.3,0.8,3.9C328.7,363.3,323.6,366.9,322.8,367.4z"/>
							<g>
								<path class="st9" d="M322.8,367.4c-1.6,3.7-3.3,7.5-3.7,11.6c-0.6,6.1-0.4,12.3-0.3,18.4c0,0-0.3-0.2-0.3-0.2
									c1.5,0,3-0.1,4.5-0.1c-1.6,0.2-3.1,0.4-4.7,0.6c-0.6-7.3-1.2-14.7,0.5-21.9C319.9,372.9,321.2,370.1,322.8,367.4
									L322.8,367.4z"/>
							</g>
							<circle class="st9" cx="321" cy="378.1" r="0.9"/>
							<circle class="st9" cx="320.7" cy="387" r="0.9"/>
							<circle class="st9" cx="320.7" cy="394.7" r="0.9"/>
						</g>
						<path class="st6" d="M298.1,389c-0.1,0.8-3.7,7.6-5,12.5c-1.3,4.9-4,14.9-10.3,21.2c-4,2.4-9.9-3.5-10.1-4.9
							c2.1-4.1,15.5-26.1,20.9-32.5C294.6,384.5,299.1,386.5,298.1,389z"/>
						<path class="st6" d="M341.4,389c0.1,0.8,3.7,7.6,5,12.5s4,14.9,10.3,21.2c4,2.4,9.9-3.5,10.1-4.9
							c-2.1-4.1-15.5-26.1-20.9-32.5C344.8,384.5,340.3,386.5,341.4,389z"/>
					</g>
					<g>
						<path class="st13" d="M383.9,332.7L383.9,332.7l0.7-1.8L383.9,332.7z"/>
						<polygon class="st13" points="405.4,296.1 403.4,301 396.8,299.8 403.4,301 405.4,296.1 405.4,296.1 						"/>
						<path class="st14" d="M356.1,387.2c-0.2,0-0.3,0.1-0.5,0.1C355.8,387.3,355.9,387.2,356.1,387.2
							C356.1,387.2,356.1,387.2,356.1,387.2"/>
						<path class="st15" d="M284.3,507.2c-0.1,1.9-0.2,3.9-0.3,5.8c-0.2,3.2-0.5,6.3-0.8,9.5c-0.3,3.6-0.8,7.3-1.2,10.9
							c-0.5,4.1-3.4,7.3-7.1,8.4h0c-0.9,0.3-1.8,0.4-2.8,0.4h-35.4c-2.7,0-5.2-1.1-7.1-2.9c-0.6-0.6-1.1-1.3-1.6-2
							c-0.3-0.5-0.5-1-0.8-1.6c-0.2-0.6-0.4-1.1-0.5-1.7c-3.6-20.6-6.4-41.1-8.2-61.4c0-0.4-0.1-0.9-0.1-1.3
							c-0.8-8.7-1.4-17.4-1.8-26.1c-0.4-8.4-0.6-16.8-0.7-25.1c0-5.5,4.5-10,10-10h37.5c4.4,0,8.3,2.9,9.6,7.1c0,0.1,0,0.2,0.1,0.2
							h0v0c0.1,0.2,0.1,0.5,0.2,0.7c0.1,0.3,0.2,0.7,0.3,1v0h0c0.6,1.9,1.2,3.8,1.7,5.7l0,0c0.5,1.9,1,3.7,1.5,5.6c0,0,0,0.1,0,0.1
							c0.4,1.6,0.8,3.1,1.2,4.7c0.1,0.5,0.2,0.9,0.3,1.4c0,0,0,0,0,0c0.6,2.8,1.2,5.7,1.8,8.5c0.9,4.7,1.6,9.5,2.3,14.3v0
							c0.5,4.2,1,8.3,1.3,12.6c0,0.2,0,0.3,0,0.5C284.6,483.9,284.8,495.5,284.3,507.2z"/>
						<path class="st15" d="M423.5,420.1c0,8.3-0.3,16.7-0.7,25.1c-0.4,8.3-1,16.6-1.7,25l-0.2,2.4c-0.2,1.8-0.3,3.6-0.5,5.4
							c0,0.3-0.1,0.6-0.1,0.9c-0.3,3.1-0.6,6.3-1,9.4c-0.2,1.5-0.3,3-0.5,4.6c-0.1,1.1-0.3,2.2-0.4,3.4c-0.2,1.4-0.4,2.8-0.5,4.2
							c-0.5,4.1-1.1,8.1-1.7,12.2c-0.3,2.3-0.7,4.7-1.1,7c-0.4,2.4-0.8,4.8-1.2,7.2c0,0.1,0,0.3-0.1,0.4c-0.4,2.3-0.8,4.5-1.2,6.8v0
							c-0.1,0.3-0.1,0.5-0.2,0.8c0,0,0,0.1,0,0.1c-0.1,0.3-0.2,0.5-0.3,0.8c0,0,0,0,0,0c-0.1,0.2-0.2,0.4-0.3,0.6
							c0,0.1-0.1,0.2-0.1,0.3c-0.1,0.2-0.2,0.4-0.4,0.7c-0.1,0.2-0.3,0.5-0.5,0.7c-0.2,0.2-0.3,0.5-0.5,0.7c0,0,0,0,0,0
							c-0.2,0.2-0.3,0.4-0.5,0.6c-0.1,0.1-0.1,0.1-0.2,0.2c-0.1,0.2-0.3,0.3-0.5,0.4c-0.4,0.3-0.8,0.6-1.2,0.8
							c-0.3,0.2-0.7,0.4-1,0.6c-0.1,0.1-0.2,0.1-0.4,0.2c-0.5,0.2-1.1,0.4-1.7,0.5c-0.1,0-0.2,0.1-0.3,0.1c-0.2,0-0.3,0.1-0.5,0.1
							c-0.2,0-0.4,0.1-0.6,0.1c-0.2,0-0.5,0-0.7,0h-35.4c-2.5,0-4.8-0.9-6.6-2.5c-0.4-0.4-0.8-0.8-1.1-1.2c-1.2-1.4-2-3.2-2.2-5.2
							c-0.2-1.9-0.5-3.9-0.7-5.8c-0.2-1.7-0.4-3.4-0.5-5.1c-0.2-1.6-0.3-3.2-0.4-4.8c-0.1-1.6-0.2-3.2-0.4-4.8
							c-0.3-4.5-0.5-9-0.6-13.4c0-1.3,0-2.5,0-3.8c-0.1-7.8,0.2-15.6,0.8-23.2c0-0.4,0.1-0.8,0.1-1.2c0.2-2.1,0.4-4.1,0.6-6.2
							c0.2-1.8,0.4-3.6,0.6-5.5v0c0.6-4.9,1.4-9.8,2.3-14.6c0-0.1,0-0.3,0.1-0.4c0.3-1.5,0.6-3,0.9-4.5c0.4-2.1,0.9-4.3,1.4-6.4
							c0.7-3,1.5-5.9,2.3-8.9c0.6-2.2,1.3-4.5,2-6.7c0.1-0.2,0.2-0.5,0.2-0.8c0,0,0,0,0,0c0-0.1,0.1-0.3,0.1-0.4
							c0.3-1,0.8-1.9,1.4-2.8c1.8-2.6,4.9-4.3,8.2-4.3h37.5c3.9,0,7.3,2.2,8.9,5.4C423.1,416.9,423.5,418.5,423.5,420.1z"/>
						<path class="st13" d="M258.5,410.1h-6.2c0,0,0,0,0,0L258.5,410.1C258.5,410.1,258.5,410.1,258.5,410.1L258.5,410.1z"/>
						<path class="st16" d="M258.5,410.1h-6.2c1.4,19.1,0.7,38.8-1.9,59c-0.6,5-4.9,8.8-10,8.8h-21.4c1.8,18.6,4.4,37.3,7.7,56.1
							c0.8,4.8,5,8.3,9.9,8.3H248c-1.4-13.3-2.1-26.5-2.2-39.6c0-3.5,2.9-6.4,6.4-6.4h23.2c-4.4-21.9-9.7-51.6-9.2-65.4
							c0-0.4,0.1-0.8,0.1-1.1c0.3-1.6,1.3-3,2.6-3.9l4.7-6.8c-0.2-0.6-0.4-1.1-0.5-1.7C272.4,417,266.8,413.5,258.5,410.1
							L258.5,410.1z"/>
						<path class="st13" d="M382.7,410.1C382.7,410.1,382.7,410.1,382.7,410.1l9.7,0c0,0,0,0,0,0H382.7z"/>
						<path class="st17" d="M413.8,527.3c-0.4,2.3-0.8,4.5-1.2,6.8c-0.5,2.9-2.2,5.3-4.6,6.8c2.4-1.5,4.1-3.9,4.6-6.7
							C413,531.8,413.4,529.5,413.8,527.3L413.8,527.3L413.8,527.3z"/>
						<path class="st16" d="M392.3,410.1h-9.7c-5.8,2.4-10.2,4.8-12.7,6.2l11.6,9.4c2.2,1,3.7,3.2,3.7,5.8c-0.1,8-2,25.9-11,64.9
							H398c3.5,0,6.4,2.9,6.4,6.4c-0.1,13.1-0.8,26.3-2.2,39.6h0.6c1.9,0,3.8-0.5,5.3-1.5c2.4-1.5,4.1-3.9,4.6-6.8
							c0.4-2.3,0.8-4.5,1.2-6.8c0.2-1.2,0.4-2.3,0.6-3.5c2.5-15.3,4.5-30.6,6-45.8h-16.1c-5.1,0-9.3-3.8-10-8.8
							C391.7,448.9,391,429.2,392.3,410.1L392.3,410.1z"/>
						<path class="st18" d="M367.9,417.5c0,0,22.7-14.4,47.5-14.8c3.1-0.1,4.4-4,1.8-5.8c-2.5-1.7-6-3.4-10.9-4.2
							c-13.1-2.1-40.5,7.4-46.9,19.8C352.9,424.9,367.9,417.5,367.9,417.5L367.9,417.5z"/>
						<path class="st19" d="M414.8,398.7c-19,0-35.2,6.1-35.2,6.1s-3.1,0.8-5.8,0.8c-2.5,0-4.7-0.7-4.1-3.1
							c-2.3,1.5-4.4,3.1-6.2,4.7l-1.1,3l7.6,6.1c6.1-3.5,25.1-13.3,45.4-13.6c2.2,0,3.5-2.1,3.1-3.9
							C417.3,398.7,416,398.7,414.8,398.7L414.8,398.7z"/>
						<path class="st18" d="M273.2,417.5c0,0-22.7-14.4-47.5-14.8c-3.1-0.1-4.4-4-1.8-5.8c2.5-1.7,6-3.4,10.9-4.2
							c13.1-2.1,40.5,7.4,46.9,19.8C288.2,424.9,273.2,417.5,273.2,417.5L273.2,417.5z"/>
						<path class="st13" d="M222.6,398.9c-0.2,1.2,0.3,2.6,1.5,3.3C222.9,401.5,222.4,400.1,222.6,398.9L222.6,398.9z"/>
						<path class="st19" d="M225,398.7c-0.8,0-1.6,0-2.4,0c0,0,0,0.1,0,0.1c-0.2,1.2,0.3,2.6,1.5,3.3c0.5,0.3,1,0.5,1.7,0.5
							c24.8,0.4,47.5,14.8,47.5,14.8s0.5,0.2,1.2,0.6l5.6-8.2c-1.5-1.9-3.4-3.7-5.6-5.3c0.9,2.8-1,3.6-3.4,3.6
							c-2.9,0-6.5-1.1-6.5-1.1S246,398.7,225,398.7L225,398.7z"/>
						<path class="st20" d="M391.2,580.9h-22.6c-3.3,0-6-2.4-6.4-5.7c-3.4-26.3-1.7-51.2,5.7-74.4c0.9-2.7,3.3-4.5,6.1-4.5h24
							c3.5,0,6.4,2.9,6.4,6.4c-0.1,24-2.6,48.3-6.9,72.9C397,578.7,394.3,580.9,391.2,580.9L391.2,580.9z"/>
						<path class="st20" d="M259.1,580.9h22.6c3.3,0,6-2.4,6.4-5.7c3.4-26.3,1.7-51.2-5.7-74.4c-0.9-2.7-3.3-4.5-6.1-4.5h-24
							c-3.5,0-6.4,2.9-6.4,6.4c0.1,24,2.6,48.3,6.9,72.9C253.3,578.7,256,580.9,259.1,580.9L259.1,580.9z"/>
						<path class="st17" d="M360.6,542.3L360.6,542.3c-0.3,6.2-0.2,12.5,0.2,18.8C360.4,554.8,360.4,548.5,360.6,542.3L360.6,542.3z
							"/>
						<path class="st17" d="M397.5,575.6c0,0.1,0,0.2-0.1,0.3C397.5,575.8,397.5,575.7,397.5,575.6c0.4-2.4,0.8-4.9,1.2-7.3
							C398.3,570.8,397.9,573.2,397.5,575.6z M397.3,576.3C397.3,576.3,397.3,576.3,397.3,576.3
							C397.3,576.3,397.3,576.3,397.3,576.3C397.3,576.3,397.3,576.3,397.3,576.3z"/>
						<path class="st21" d="M386.6,496.3h-12.3c-0.2,1-0.5,2.1-0.7,3.2c-1,4.3-2.1,8.7-3.2,13.5h2.2c2.9,0,5.1,2.7,4.5,5.6l-1.9,9.1
							h0l-2.3,11h0l0,0l0,0c0,0.2-0.1,0.3-0.1,0.5c-0.3,1-1,1.8-1.8,2.4c0,0,0,0,0,0c0,0,0,0,0,0c-0.7,0.5-1.6,0.8-2.5,0.8h-7.6
							c-0.3,6.2-0.2,12.5,0.2,18.8c0.3,4.7,0.7,9.4,1.3,14.1c0,0.4,0.1,0.7,0.2,1.1c0.4,1.4,1.3,2.6,2.5,3.4
							c1.1,0.7,2.3,1.2,3.7,1.2h22.6c1.2,0,2.3-0.3,3.3-0.9c1.6-0.9,2.7-2.5,3-4.4c0.5-3,1-6.1,1.5-9.1c0.1-0.6,0.2-1.1,0.3-1.7
							h-8.8c-3.3,0-6-2.4-6.4-5.7C381.3,537.2,382,516.2,386.6,496.3L386.6,496.3z"/>
						<path class="st21" d="M275.4,496.3h-10.1c1.2,6.2,2.1,12.5,2.6,18.9c0.8-1.3,2.2-2.2,3.9-2.2h7.1
							C277.9,508.5,276.7,502.8,275.4,496.3L275.4,496.3z"/>
						<path class="st17" d="M285.7,579.6C285.7,579.6,285.6,579.6,285.7,579.6C285.6,579.6,285.7,579.6,285.7,579.6
							C285.7,579.5,285.7,579.5,285.7,579.6C285.7,579.5,285.7,579.5,285.7,579.6z M288.1,575.3c0,0.2-0.1,0.3-0.1,0.5
							C288.1,575.6,288.1,575.4,288.1,575.3c0.1-0.8,0.2-1.6,0.3-2.4C288.3,573.7,288.2,574.5,288.1,575.3z M287.9,576.2
							c0-0.1,0.1-0.2,0.1-0.3c0,0,0-0.1,0-0.1C288,575.9,288,576,287.9,576.2C287.9,576.1,287.9,576.2,287.9,576.2z"/>
						<path class="st21" d="M268.3,522.5c0.3,10.2-0.2,20.7-1.6,31.4c-0.4,3.2-3.1,5.7-6.4,5.7h-10.1c0.8,5.4,1.6,10.7,2.6,16.1
							c0.2,1,0.6,1.9,1.1,2.6c0.3,0.5,0.7,0.9,1.2,1.2c1.1,0.9,2.5,1.4,4.1,1.4h22.7c0.7,0,1.3-0.1,1.9-0.3c2.3-0.7,4.1-2.8,4.4-5.4
							c1.4-11.2,2-22.2,1.5-32.9h-12.9c-1.2,0-2.3-0.4-3.1-1.2c0,0,0,0,0,0c0,0,0,0,0,0c-0.7-0.6-1.1-1.4-1.4-2.3l-2-8.3
							L268.3,522.5L268.3,522.5z"/>
						<path class="st22" d="M368.3,542.3h-91.5c-2.1,0-4-1.4-4.5-3.5l-4.9-20.1c-0.7-2.9,1.5-5.7,4.5-5.7h100.7
							c2.9,0,5.1,2.7,4.5,5.5l-4.3,20.1C372.3,540.8,370.4,542.3,368.3,542.3L368.3,542.3z"/>
						<path class="st23" d="M372.5,513h-2.2c0,0,0,0,0,0L372.5,513c2.9,0,5.1,2.7,4.5,5.6l-1.9,9.1h0l1.9-9.1
							C377.6,515.7,375.4,513,372.5,513L372.5,513z"/>
						<path class="st21" d="M267.9,515.2c-0.1,0.2-0.2,0.3-0.3,0.5C267.7,515.6,267.8,515.4,267.9,515.2L267.9,515.2L267.9,515.2z"
							/>
						<path class="st14" d="M370.8,541.6C370.8,541.6,370.8,541.6,370.8,541.6C370.8,541.6,370.8,541.6,370.8,541.6
							c-0.1,0.1-0.2,0.1-0.3,0.2c-0.1,0-0.1,0.1-0.2,0.1c-0.1,0.1-0.3,0.1-0.4,0.2 M370.9,541.5c0.1-0.1,0.2-0.1,0.3-0.2l0.5-0.5
							c0,0,0,0,0,0l0-0.1l0.2-0.2l0,0l0,0l0.2-0.2l0.1-0.1c0,0,0,0,0-0.1l0,0l0-0.1v0c0.1-0.1,0.1-0.2,0.2-0.3
							c0-0.1,0.1-0.2,0.1-0.3 M372.6,539.2L372.6,539.2c0,0.1-0.1,0.2-0.1,0.4c0,0.1-0.1,0.2-0.2,0.3v0l0,0.1l0,0c0,0,0,0,0,0
							c0,0,0,0,0,0l-0.1,0.1l-0.2,0.2l0,0l0,0l-0.2,0.2l0,0.1c0,0,0,0,0,0l-0.5,0.5c-0.1,0.1-0.2,0.2-0.3,0.2c0,0,0,0,0,0
							 M372.8,538.6L372.8,538.6L372.8,538.6L372.8,538.6L372.8,538.6L372.8,538.6 M372.8,538.7L372.8,538.7L372.8,538.7"/>
						<path class="st14" d="M274.2,541.6C274.2,541.6,274.2,541.6,274.2,541.6c-0.1,0-0.1-0.1-0.1-0.1c-0.1,0-0.1-0.1-0.2-0.1
							c-0.1-0.1-0.2-0.2-0.3-0.2c0,0,0,0,0,0 M273.2,540.6C273.1,540.6,273.1,540.6,273.2,540.6
							C273.1,540.6,273.1,540.6,273.2,540.6C273.2,540.7,273.2,540.7,273.2,540.6C273.2,540.7,273.2,540.7,273.2,540.6z M269,513.9
							C269,513.9,269,513.9,269,513.9L269,513.9c-0.1,0-0.1,0.1-0.1,0.1c0,0,0,0,0,0l0,0c0,0,0,0,0,0
							C268.9,514.1,268.9,514,269,513.9c0,0,0,0,0.1-0.1C269.1,513.9,269.1,513.9,269,513.9z M268.8,514.1L268.8,514.1
							C268.8,514.1,268.9,514.1,268.8,514.1C268.9,514.1,268.8,514.1,268.8,514.1C268.8,514.1,268.8,514.1,268.8,514.1z
							 M270.9,513.1L270.9,513.1c0.1,0,0.1,0,0.2,0L270.9,513.1z M271.8,513c-0.1,0-0.2,0-0.3,0c-0.1,0-0.1,0-0.2,0c0,0,0,0-0.1,0
							c0.1,0,0.1,0,0.2,0C271.6,513,271.7,513,271.8,513l7.1,0v0H271.8z"/>
						<path class="st24" d="M372.5,513h-2.2c-0.8,3.1-1.5,6.2-2.4,9.5h-87c0,0,0,0,0,0h0c0,0-0.8-3.6-2.1-9.5h-5.8
							c-1.7,0-3.1,0.9-3.9,2.2c-0.1,0.2-0.2,0.3-0.3,0.5c-0.4,0.9-0.5,1.9-0.3,3l2.9,11.8l2,8.3c0.2,0.9,0.7,1.7,1.4,2.3
							c0,0-1.2,0-1.2,0c0,0,1.2,0,1.2,0c0.8,0.8,1.9,1.2,3.1,1.2h90.3c0.9,0,1.8-0.3,2.5-0.8c0,0,0,0,0,0c0,0,0,0,0,0
							c0.8-0.6,1.5-1.4,1.8-2.4c0.1-0.2,0.1-0.3,0.1-0.5l0,0l0,0h-77.9c-2.1,0-4-0.5-4.5-1.3l-4.9-7.5c-0.7-1.1,1.5-2.1,4.5-2.1
							h85.1l1.9-9.1C377.6,515.7,375.4,513,372.5,513L372.5,513z"/>
						<path class="st15" d="M357.9,406.7c-2.7-18.4-18.5-32.5-37.6-32.5c-19.1,0-34.9,14.1-37.6,32.5c-0.3,1.8-0.4,3.7-0.4,5.6
							c0,9,3.1,17.2,8.3,23.7l14.2,0.9c-8.2-5.2-13.6-14.2-13.6-24.6c0-1.9,0.2-3.8,0.5-5.6c2.6-13.4,14.4-23.5,28.5-23.5
							c14.1,0,25.9,10.1,28.5,23.5c0.4,1.8,0.5,3.7,0.5,5.6c0,11.6-6.8,21.7-16.7,26.3l14.2,0.9c7.1-6.9,11.5-16.5,11.5-27.2
							C358.3,410.4,358.2,408.6,357.9,406.7L357.9,406.7z"/>
						<polygon class="st18" points="383.6,427.2 379.9,441.5 346.9,439.5 332.6,438.7 304.8,436.9 290.6,436.1 271.2,434.9 
							266.4,429.6 282.2,406.7 358.2,406.7 383.6,427.2 						"/>
						<path class="st19" d="M300,406.7h-8.2h-9.1h-0.5l-2.1,3.1l-5.6,8.2l-5.4,7.9c0.8-0.6,1.8-0.9,2.9-1c0.2,0,0.4,0,0.6,0
							c0,0,0,0,0,0l106.6,0.2c0.9,0,1.8,0.2,2.6,0.5l-10-8h-16.3c-0.1,0-0.2,0-0.3,0c-0.1,0-0.2,0-0.3,0h-59.8L300,406.7L300,406.7z
							"/>
						<path class="st18" d="M272.5,424.9l106.6,0.2c3.5,0,6.3,2.9,6.3,6.4c-0.1,9.6-2.9,33.4-17.4,91.1h-87c0,0-15.5-68.4-14.8-91.6
							C266.3,427.5,269.1,424.9,272.5,424.9L272.5,424.9z"/>
						<path class="st25" d="M269,425.9c-1.3,0.9-2.3,2.3-2.6,3.9C266.7,428.2,267.7,426.8,269,425.9L269,425.9L269,425.9z"/>
						<path class="st26" d="M271.9,424.9c-1.1,0.1-2,0.5-2.9,1l0,0C269.8,425.4,270.8,425,271.9,424.9L271.9,424.9z"/>
						<path class="st23" d="M373.6,499.5c-1,4.3-2.1,8.7-3.2,13.5h0C371.5,508.3,372.6,503.8,373.6,499.5L373.6,499.5z"/>
						<polyline class="st14" points="370.3,513 370.3,513 370.3,513 370.3,513 370.3,513 						"/>
						<path class="st27" d="M370.3,513L370.3,513c-0.8,3.1-1.5,6.2-2.4,9.5h-87c0,0,0,0,0,0h87C368.8,519.3,369.6,516.1,370.3,513
							L370.3,513z"/>
						<path class="st19" d="M369.4,498.3c-3.4-0.2-6.7-0.6-9.9-1.3c-1.4-0.3-2.8-0.6-4.1-1c-0.2-0.1-0.4-0.1-0.6-0.2
							c-1-0.3-1.9-0.6-2.9-0.9c-1.4-0.5-2.8-1-4.2-1.5c-1.4-0.6-2.8-1.2-4.2-1.8c-1.5-0.7-2.9-1.4-4.3-2.2c-1.7-1-3.4-2-5.1-3.2
							c-1.5-1.1-3-2.2-4.5-3.3c-1.4-1.1-2.8-2.3-4.1-3.5c-1.7-1.6-3.3-3.3-4.9-5c-0.5-0.6-1-1.1-1.5-1.7c-0.2-0.2-0.4-0.4-0.5-0.7
							c-0.8-1-1.5-2-2.3-3v0c-0.9-1.2-1.7-2.5-2.5-3.8c-3.8-6.1-6.7-12.8-8.5-20c-0.5-2-0.9-4.1-1.3-6.3c-0.1-0.7-0.2-1.4-0.3-2.1
							c0-0.2-0.1-0.5-0.1-0.7v0c-0.3-1.9-0.6-3.8-0.8-5.6c-0.3-1.9-0.5-3.8-0.7-5.6l-6.8,0l-1.2,0h-1.7l-8,0l-7.8,0h-1.2l-2.9,0h0
							c-0.1,0-0.2,0-0.3,0c-0.1,0-0.2,0-0.3,0c-0.2,0-0.3,0-0.5,0.1c0,0,0,0-0.1,0c-0.1,0-0.2,0-0.2,0.1c-0.1,0-0.2,0.1-0.3,0.1
							c0,0-0.1,0-0.1,0c-0.2,0.1-0.4,0.1-0.6,0.2c-0.1,0-0.2,0.1-0.3,0.1c0,0-0.1,0-0.1,0.1c0,0-0.1,0-0.1,0.1c0,0-0.1,0-0.1,0.1
							c0,0,0,0,0,0c0,0,0,0-0.1,0c0,0,0,0,0,0c0,0-0.1,0.1-0.1,0.1c0,0-0.1,0.1-0.1,0.1c0,0,0,0,0,0c0,0,0,0,0,0c0,0,0,0,0,0
							c-0.1,0-0.2,0.1-0.2,0.2c-0.1,0-0.1,0.1-0.2,0.1l-0.4,0.4c0,0,0,0-0.1,0.1c-0.1,0.1-0.1,0.1-0.2,0.2c0,0,0,0.1-0.1,0.1
							c0,0,0,0,0,0c0,0,0,0,0,0c0,0,0,0,0,0c0,0,0,0,0,0c0,0,0,0,0,0v0l-0.3,0.4L267,428c0,0,0,0,0,0c0,0,0,0,0,0.1v0l-0.1,0.3
							l-0.1,0.1c0,0.1-0.1,0.2-0.1,0.3c0,0,0,0,0,0.1c0,0,0,0,0,0c0,0,0,0,0,0.1c0,0,0,0,0,0c0,0.1-0.1,0.1-0.1,0.2v0l0,0
							c0,0.1-0.1,0.2-0.1,0.3c0,0,0,0,0,0c0,0.1,0,0.2-0.1,0.3c-0.1,0.4-0.1,0.7-0.1,1.1c0,1,0,2.2,0,3.4c0,0.1,0,0.3,0,0.4
							c0,0.1,0,0.2,0,0.3s0,0.2,0,0.4c0,0.3,0,0.6,0,0.8v0.1c0,0,0,0,0,0c0,0,0,0,0,0v0c0,0.2,0,0.4,0,0.6v0c0,0.3,0,0.5,0,0.8
							c0,0.4,0.1,0.9,0.1,1.3c0,0.1,0,0.2,0,0.4c0,0.3,0,0.6,0.1,0.9c0,0.1,0,0.1,0,0.2c0,0.2,0,0.4,0,0.6v0.1
							c0,0.3,0.1,0.6,0.1,0.9c0,0.2,0,0.4,0,0.5c0,0.3,0.1,0.7,0.1,1c0,0.3,0.1,0.5,0.1,0.8c0,0.2,0,0.5,0.1,0.8v0.1
							c0,0.1,0,0.1,0,0.2c0,0.2,0.1,0.5,0.1,0.7c0,0.1,0,0.3,0,0.4c0,0.1,0,0.1,0,0.2c0,0,0,0,0,0.1c0.1,0.5,0.1,1.1,0.2,1.6
							c0.1,0.6,0.1,1.1,0.2,1.7c0,0,0,0.1,0,0.1c0,0.1,0,0.3,0,0.5c0,0.3,0.1,0.6,0.1,0.9c0,0.1,0,0.3,0,0.4c0,0.2,0.1,0.5,0.1,0.8
							c0,0.3,0.1,0.7,0.1,1c0,0.3,0.1,0.7,0.1,1c0,0.3,0.1,0.5,0.1,0.8c0,0.2,0,0.3,0.1,0.5c0,0.2,0.1,0.3,0.1,0.5
							c0,0.2,0.1,0.4,0.1,0.6c0,0,0,0.1,0,0.1c0,0.2,0.1,0.4,0.1,0.6c0.1,0.7,0.2,1.4,0.3,2.1c0,0.1,0,0.2,0.1,0.4
							c0,0.2,0,0.3,0.1,0.5c0.1,0.3,0.1,0.6,0.1,0.9l0.1,1c0.1,0.9,0.3,1.8,0.4,2.7c0,0.3,0.1,0.6,0.1,0.9c0,0,0,0.1,0,0.1
							c0,0,0,0,0,0.1c0.1,0.5,0.2,1.1,0.3,1.6c0,0.2,0.1,0.4,0.1,0.5c0,0.2,0.1,0.4,0.1,0.6c0.1,0.3,0.1,0.6,0.2,0.9
							c0.1,0.7,0.2,1.4,0.3,2c0,0.2,0.1,0.3,0.1,0.5c0.2,1,0.3,1.9,0.5,2.9c0,0.1,0,0.1,0,0.2c0.2,0.9,0.3,1.8,0.5,2.8
							c0.1,0.3,0.1,0.7,0.2,1c0.1,0.4,0.2,0.9,0.2,1.3c0,0.1,0.1,0.3,0.1,0.4c0,0.2,0.1,0.4,0.1,0.6c0.1,0.5,0.2,1,0.3,1.4
							c0.2,1,0.4,1.9,0.5,2.9c0.1,0.7,0.3,1.4,0.4,2.1c0,0.2,0.1,0.3,0.1,0.5c0.1,0.3,0.1,0.6,0.2,0.9c0.1,0.2,0.1,0.5,0.1,0.7
							c0,0.2,0.1,0.4,0.1,0.7c0,0.2,0.1,0.3,0.1,0.5c0.1,0.3,0.1,0.5,0.2,0.8c0,0,0,0.1,0,0.1c0,0.2,0.1,0.4,0.1,0.5
							c0,0.1,0,0.2,0,0.2c0.2,0.8,0.3,1.6,0.5,2.3c0,0.3,0.1,0.6,0.2,0.8c0,0,0,0.1,0,0.1c0.1,0.5,0.2,1.1,0.3,1.6
							c0.1,0.3,0.1,0.5,0.2,0.8c0,0.1,0,0.2,0,0.3c0,0.2,0.1,0.4,0.1,0.6c0.1,0.3,0.1,0.5,0.2,0.8c0,0.1,0,0.1,0,0.2
							c0,0.1,0.1,0.3,0.1,0.4c0,0,0,0.1,0,0.1c0,0.1,0,0.1,0.1,0.2c0.2,0.8,0.3,1.7,0.5,2.5c0,0.2,0.1,0.3,0.1,0.5
							c0,0.1,0.1,0.3,0.1,0.4c0.1,0.2,0.1,0.4,0.1,0.6c0,0.1,0,0.2,0.1,0.3c0.1,0.6,0.2,1.2,0.4,1.8c0,0.2,0.1,0.4,0.1,0.6
							c0,0.1,0.1,0.3,0.1,0.5c0,0,0,0.1,0,0.1c0,0,0,0.1,0,0.1c0,0.1,0,0.1,0,0.2c0,0.1,0,0.1,0,0.2c0.1,0.3,0.1,0.6,0.2,0.9
							c0,0,0,0.1,0,0.1c0,0.1,0,0.1,0,0.2c0,0.1,0,0.2,0.1,0.3c0.1,0.3,0.1,0.5,0.2,0.8c0,0.1,0.1,0.3,0.1,0.5c0,0.1,0,0.1,0,0.2
							c0,0.1,0,0.1,0,0.2c0,0.1,0,0.1,0,0.2c0,0.1,0.1,0.3,0.1,0.4v0h0c0,0.2,0.1,0.3,0.1,0.5c0.1,0.4,0.1,0.7,0.2,1
							c0.1,0.4,0.2,0.9,0.3,1.3c0.1,0.3,0.1,0.5,0.2,0.8c0,0.1,0,0.1,0,0.2c0,0.2,0.1,0.3,0.1,0.5c0.1,0.2,0.1,0.5,0.2,0.7
							c0,0.1,0.1,0.3,0.1,0.4c0,0.1,0,0.1,0,0.2c0,0.2,0.1,0.4,0.1,0.6c0,0.1,0,0.1,0,0.2c0,0.1,0,0.2,0,0.2c0,0.1,0,0.2,0.1,0.2
							s0,0.2,0,0.2c0,0.1,0,0.1,0.1,0.2c0,0.1,0,0.2,0.1,0.3c0,0,0,0.1,0,0.1c0,0.1,0,0.1,0,0.2c0,0.1,0,0.2,0.1,0.2
							c0.1,0.3,0.1,0.5,0.1,0.7c0,0.1,0,0.1,0,0.1c0,0,0,0,0,0c0,0,0,0,0,0.1c0,0,0,0.1,0,0.1c0,0,0,0,0,0.1c0,0.1,0.1,0.2,0.1,0.3
							c0,0,0,0,0,0c0,0,0,0,0,0v0c0,0,0,0,0,0c0,0,0,0,0,0c0,0,0,0,0,0h87c0.2-0.8,0.4-1.6,0.6-2.4c0.2-1,0.5-1.9,0.7-2.9
							c0.2-0.6,0.3-1.3,0.5-1.9c0.1-0.2,0.1-0.5,0.2-0.7c0-0.1,0.1-0.3,0.1-0.4c0.1-0.4,0.2-0.8,0.3-1.2v0c0.1-0.3,0.1-0.6,0.2-0.9
							c0.1-0.3,0.1-0.6,0.2-0.9c0.1-0.3,0.2-0.7,0.2-1c0-0.2,0.1-0.4,0.1-0.6c0-0.1,0-0.1,0-0.2c0.1-0.6,0.3-1.1,0.4-1.7
							c0-0.2,0.1-0.4,0.1-0.6c0.4-1.5,0.7-3,1.1-4.5c0.3-1.1,0.5-2.2,0.8-3.2c0.1-0.4,0.2-0.7,0.3-1.1
							C372.3,498.4,370.9,498.4,369.4,498.3z M293,434.7c0.4,0.1,0.8,0.3,1.2,0.4c0.2,0.1,0.5,0.2,0.7,0.3c0.6,0.3,1.3,0.6,1.9,1h0
							c0,0,0.1,0,0.1,0.1c0.2,0.1,0.3,0.2,0.5,0.3c0.2,0.1,0.4,0.3,0.6,0.4c0.4,0.3,0.7,0.6,1.1,0.9c1.2,1.1,2.2,2.4,2.9,3.8
							c0.2,0.4,0.4,0.8,0.5,1.2c0.1,0.2,0.1,0.4,0.2,0.7c0.1,0.2,0.1,0.4,0.2,0.7s0.1,0.4,0.1,0.7c0,0.2,0.1,0.3,0.1,0.5
							c0,0.1,0,0.2,0,0.3c0,0.1,0,0.3,0,0.4c0,0.2,0,0.5,0,0.8c0,0.5,0,1-0.1,1.4c0,0.1,0,0.1,0,0.2c0,0.1,0,0.3-0.1,0.4
							c0,0.2-0.1,0.3-0.1,0.5c-0.1,0.3-0.1,0.6-0.2,0.8c-0.1,0.2-0.1,0.4-0.2,0.6c0,0,0,0,0,0.1c-0.1,0.2-0.1,0.4-0.2,0.6
							c-0.1,0.2-0.2,0.4-0.3,0.6c0,0.1-0.1,0.2-0.1,0.3c0,0.1-0.1,0.2-0.1,0.3c-0.1,0.2-0.2,0.4-0.3,0.5c0,0,0,0,0,0
							c0,0,0,0-0.1,0.1c0,0.1-0.1,0.1-0.1,0.2c-0.1,0.1-0.2,0.3-0.3,0.4c-0.1,0.1-0.2,0.3-0.3,0.4c-0.1,0.1-0.1,0.2-0.2,0.3
							c-0.1,0.1-0.2,0.2-0.3,0.3c-0.1,0.1-0.2,0.2-0.2,0.3c0,0,0,0,0,0c0,0,0,0-0.1,0c0,0-0.1,0.1-0.1,0.1c-0.1,0.1-0.2,0.2-0.3,0.3
							c-0.1,0.1-0.2,0.2-0.3,0.3c-0.2,0.2-0.4,0.4-0.6,0.6c0,0-0.1,0.1-0.1,0.1c-0.1,0.1-0.1,0.1-0.2,0.2c0,0-0.1,0.1-0.2,0.1
							c-0.4,0.3-0.8,0.6-1.3,0.9c-0.2,0.1-0.4,0.2-0.6,0.4c-0.1,0.1-0.2,0.1-0.4,0.2c-0.1,0-0.1,0.1-0.2,0.1
							c-0.1,0.1-0.2,0.1-0.3,0.2c-0.2,0.1-0.4,0.2-0.6,0.3c-0.1,0-0.1,0-0.1,0.1c0,0,0,0,0,0c0,0,0,0-0.1,0c0,0-0.1,0-0.1,0
							c-0.2,0.1-0.3,0.1-0.5,0.2c-0.1,0.1-0.3,0.1-0.4,0.1c-0.1,0-0.2,0.1-0.3,0.1c0,0,0,0,0,0c0,0,0,0-0.1,0
							c-0.1,0-0.2,0.1-0.3,0.1v0c0,0,0,0,0,0c-0.1,0-0.2,0.1-0.3,0.1c-0.2,0.1-0.5,0.1-0.7,0.2c-0.1,0-0.2,0-0.3,0.1c0,0,0,0-0.1,0
							c0,0,0,0-0.1,0c-0.1,0-0.1,0-0.2,0c-0.1,0-0.2,0-0.2,0c-0.1,0-0.3,0.1-0.4,0.1c-0.1,0-0.2,0-0.3,0c-0.2,0-0.4,0-0.6,0.1
							c0,0-0.1,0-0.1,0c-0.1,0-0.1,0-0.2,0h-0.1c-0.1,0-0.2,0-0.3,0h-0.1c0,0,0,0,0,0c-0.1,0-0.1,0-0.2,0h-0.1c-0.2,0-0.3,0-0.5,0
							c-0.3,0-0.7,0-1,0c-0.1,0-0.1,0-0.2,0c-0.1,0-0.2,0-0.3,0h0c-0.1,0-0.1,0-0.2,0h-0.1c0,0,0,0-0.1,0c0,0-0.1,0-0.1,0
							c-0.1,0-0.2,0-0.3,0c-0.2,0-0.4-0.1-0.6-0.1h0c0,0,0,0,0,0c0,0,0,0-0.1,0c-0.2-0.1-0.5-0.1-0.7-0.1c-0.2,0-0.3-0.1-0.5-0.1
							c-0.2-0.1-0.5-0.1-0.7-0.2c-0.1,0-0.2-0.1-0.3-0.1v0c-0.1,0-0.3-0.1-0.4-0.1c-0.1,0-0.2-0.1-0.3-0.1c-0.2-0.1-0.3-0.1-0.5-0.2
							c0,0-0.1,0-0.1-0.1c0,0-0.1,0-0.1-0.1c-0.1,0-0.2-0.1-0.3-0.1c-0.1,0-0.1-0.1-0.2-0.1c-0.1,0-0.2-0.1-0.2-0.1
							c-0.1,0-0.3-0.1-0.4-0.2c0,0,0,0,0,0v0c0,0,0,0,0,0c0,0-0.1,0-0.1-0.1c-0.2-0.1-0.4-0.2-0.7-0.4c-0.1,0-0.1-0.1-0.2-0.1
							c0,0,0,0,0,0c-0.2-0.1-0.5-0.3-0.7-0.4c-0.5-0.3-0.9-0.7-1.3-1c-0.2-0.2-0.4-0.4-0.6-0.6c-0.2-0.2-0.4-0.4-0.6-0.6
							c-0.1-0.2-0.3-0.3-0.4-0.5c-0.2-0.2-0.4-0.5-0.6-0.7c0,0,0,0,0,0c-0.1-0.2-0.3-0.4-0.4-0.6c-0.1-0.2-0.2-0.3-0.3-0.5
							c0-0.1-0.1-0.2-0.1-0.2c0,0,0-0.1-0.1-0.1c-0.1-0.2-0.2-0.4-0.3-0.7c0-0.1-0.1-0.2-0.1-0.3c-0.1-0.1-0.1-0.3-0.1-0.4
							c0,0,0,0,0,0c-0.1-0.2-0.1-0.4-0.2-0.7c0-0.1,0-0.1-0.1-0.2c0-0.1-0.1-0.3-0.1-0.5c0-0.1-0.1-0.2-0.1-0.3
							c0-0.2-0.1-0.3-0.1-0.5c-0.1-0.6-0.1-1.1-0.1-1.7c0-0.1,0-0.2,0-0.3c0-0.1,0-0.2,0-0.3c0-0.2,0-0.4,0-0.5c0-0.1,0-0.1,0-0.2
							c0-0.1,0-0.2,0.1-0.3c0-0.1,0-0.2,0-0.4c0,0,0-0.1,0-0.1c0-0.2,0.1-0.4,0.1-0.6c0,0,0-0.1,0-0.1c0.1-0.3,0.1-0.5,0.2-0.8
							c0,0,0-0.1,0-0.1c0-0.1,0-0.1,0.1-0.2c0-0.1,0-0.1,0.1-0.2c0.1-0.3,0.2-0.6,0.3-0.8c0,0,0-0.1,0-0.1c0-0.1,0.1-0.2,0.2-0.3
							c0.1-0.2,0.2-0.4,0.3-0.6c0.1-0.1,0.2-0.3,0.3-0.4c0.1-0.1,0.2-0.3,0.3-0.4c0.1-0.1,0.2-0.3,0.3-0.4c0,0,0-0.1,0.1-0.1
							c0,0,0.1-0.1,0.1-0.1c0.1-0.1,0.1-0.1,0.2-0.2c0-0.1,0.1-0.1,0.1-0.2c0.3-0.4,0.6-0.7,0.9-1c0.2-0.2,0.3-0.3,0.5-0.5
							c0.2-0.1,0.3-0.3,0.5-0.4c0,0,0,0,0,0c0.2-0.1,0.3-0.3,0.5-0.4c0.1-0.1,0.1-0.1,0.2-0.1c0.1-0.1,0.2-0.1,0.3-0.2l0,0
							c0,0,0,0,0.1,0c0.2-0.1,0.4-0.2,0.5-0.4c0.1-0.1,0.2-0.1,0.3-0.2c0.3-0.2,0.5-0.3,0.8-0.4c0.1,0,0.1,0,0.2-0.1
							c0.1-0.1,0.2-0.1,0.2-0.1c0.1,0,0.1-0.1,0.2-0.1h0c0.2-0.1,0.4-0.2,0.6-0.3c0.1,0,0.1-0.1,0.2-0.1c0,0,0.1,0,0.1,0
							c0.3-0.1,0.5-0.2,0.8-0.3c0.4-0.1,0.8-0.3,1.3-0.4c0.3-0.1,0.6-0.1,0.9-0.2c0.2,0,0.3-0.1,0.5-0.1c0.2,0,0.5-0.1,0.7-0.1
							c0.4-0.1,0.9-0.1,1.4-0.1c0.3,0,0.5,0,0.8,0c0.3,0,0.5,0,0.8,0c0.2,0,0.3,0,0.5,0c0.7,0.1,1.3,0.1,2,0.2
							c0.1,0,0.3,0.1,0.4,0.1c0.2,0,0.5,0.1,0.7,0.2C292.5,434.5,292.8,434.6,293,434.7z"/>
						<path class="st28" d="M303.1,447.1c0,7.3-6.9,13.2-15.4,13.2c-8.5,0-15.4-5.9-15.4-13.2c0-7.3,6.9-13.2,15.4-13.2
							C296.3,433.9,303.1,439.8,303.1,447.1L303.1,447.1z"/>
						<path class="st28" d="M376.8,447.1c0,7.3-6.9,13.2-15.4,13.2c-8.5,0-15.4-5.9-15.4-13.2c0-7.3,6.9-13.2,15.4-13.2
							C369.9,433.9,376.8,439.8,376.8,447.1L376.8,447.1z"/>
						<path class="st29" d="M303,448.7C303,448.7,303,448.7,303,448.7c-0.9,6.5-7.4,11.6-15.3,11.6c-3.3,0-6.4-0.9-9-2.5
							c2.5,1.6,5.6,2.5,9,2.5C295.6,460.4,302.1,455.3,303,448.7L303,448.7z"/>
						<path class="st30" d="M282.3,434.8c-5.8,1.9-9.9,6.7-9.9,12.3c0,4.4,2.5,8.3,6.4,10.7c2.5,1.6,5.6,2.5,9,2.5
							c7.9,0,14.3-5.1,15.3-11.6c-1.7,0.6-3.6,0.9-5.5,0.9c-8.5,0-15.4-5.9-15.4-13.2C282.1,435.8,282.2,435.3,282.3,434.8
							L282.3,434.8z"/>
						<path class="st14" d="M372.2,456.5L372.2,456.5L372.2,456.5C372.2,456.5,372.2,456.5,372.2,456.5
							C372.2,456.5,372.2,456.5,372.2,456.5c0.2-0.2,0.4-0.4,0.6-0.5c0,0,0.1-0.1,0.1-0.1c0.2-0.2,0.4-0.4,0.6-0.7c0,0,0,0,0,0
							c0,0,0,0,0,0c0,0,0.1-0.1,0.1-0.1c0.1-0.1,0.1-0.2,0.2-0.3c0,0,0,0,0-0.1c0.1-0.1,0.2-0.2,0.2-0.3c0,0,0,0,0,0c0,0,0,0,0,0
							c0.2-0.2,0.3-0.5,0.5-0.7c0,0,0,0,0,0c0,0,0,0,0,0c0,0,0,0,0,0c0,0,0,0,0-0.1c0.1-0.2,0.3-0.5,0.4-0.7 M350.1,456.1
							c0.1,0.1,0.1,0.1,0.2,0.2c0.1,0,0.1,0.1,0.2,0.1c0.3,0.3,0.6,0.5,0.9,0.8c0.1,0.1,0.1,0.1,0.2,0.1c0.2,0.1,0.4,0.3,0.6,0.4
							c0.1,0,0.1,0.1,0.2,0.1c0.3,0.2,0.6,0.4,1,0.6c0,0,0,0,0,0c0.1,0,0.2,0.1,0.3,0.1c0.1,0,0.2,0.1,0.2,0.1
							c0.1,0,0.1,0.1,0.2,0.1c0.2,0.1,0.4,0.2,0.5,0.2c0.5,0.2,0.9,0.4,1.4,0.5c0.1,0,0.2,0.1,0.3,0.1c0.1,0,0.1,0,0.2,0.1
							c0,0,0,0,0.1,0c0,0,0,0,0,0c0,0,0.1,0,0.1,0c0,0,0,0,0.1,0c0,0,0,0,0,0c0,0,0,0,0,0c0,0,0.1,0,0.1,0c0.1,0,0.3,0.1,0.4,0.1
							c0,0,0,0,0.1,0c0.2,0.1,0.5,0.1,0.7,0.1c0.1,0,0.2,0,0.3,0c0,0,0,0,0,0c0.1,0,0.2,0,0.3,0c0.2,0,0.3,0,0.5,0.1c0,0,0,0,0,0
							c0.1,0,0.2,0,0.3,0c0.6,0.1,1.1,0.1,1.7,0.1c0.2,0,0.4,0,0.5,0c0,0,0,0,0,0c0.1,0,0.2,0,0.2,0c0.3,0,0.5,0,0.8,0
							c0,0,0,0,0.1,0c0,0,0,0,0,0c0,0,0,0,0,0c0.3,0,0.6-0.1,0.9-0.1c0.2,0,0.3-0.1,0.5-0.1c0.2,0,0.4-0.1,0.6-0.1
							c0.2,0,0.5-0.1,0.7-0.2c0,0,0.1,0,0.1,0c0,0,0,0,0,0c0,0,0,0,0,0c0,0,0.1,0,0.1,0c0.2-0.1,0.4-0.1,0.6-0.2
							c0.2-0.1,0.5-0.2,0.7-0.2c0,0,0,0,0,0c0,0,0.1,0,0.1,0c0,0,0.1,0,0.1,0c0.1,0,0.2-0.1,0.3-0.1c0.2-0.1,0.3-0.1,0.5-0.2
							c0,0,0.1,0,0.1-0.1c0.1,0,0.1-0.1,0.2-0.1c0.1,0,0.2-0.1,0.3-0.1c0.1,0,0.2-0.1,0.3-0.2c0,0,0.1,0,0.1-0.1
							c0.2-0.1,0.3-0.2,0.5-0.3c0.2-0.1,0.4-0.2,0.6-0.4c0.1-0.1,0.2-0.1,0.3-0.2c0.1-0.1,0.3-0.2,0.5-0.3c0,0,0.1-0.1,0.1-0.1
							c0.1,0,0.1-0.1,0.2-0.1c0.1,0,0.1-0.1,0.2-0.1c0.1,0,0.1-0.1,0.2-0.1c0.1-0.1,0.2-0.2,0.3-0.2 M372.2,456.5L372.2,456.5
							L372.2,456.5c-0.1,0.1-0.2,0.2-0.3,0.2c0,0.1-0.1,0.1-0.2,0.1c-0.1,0-0.1,0.1-0.2,0.1c-0.1,0-0.1,0.1-0.2,0.1
							c0,0-0.1,0.1-0.1,0.1c-0.1,0.1-0.3,0.2-0.5,0.3c-0.1,0.1-0.2,0.1-0.3,0.2c-0.2,0.1-0.4,0.2-0.6,0.4c-0.2,0.1-0.3,0.2-0.5,0.3
							c0,0-0.1,0-0.1,0.1c-0.1,0-0.1,0.1-0.2,0.1c0,0-0.1,0-0.1,0.1c-0.1,0-0.2,0.1-0.3,0.1c-0.1,0-0.1,0.1-0.2,0.1
							c0,0-0.1,0-0.1,0.1c-0.2,0.1-0.3,0.1-0.5,0.2c-0.1,0-0.2,0.1-0.3,0.1c0,0-0.1,0-0.1,0c0,0,0,0-0.1,0c0,0,0,0,0,0
							c-0.2,0.1-0.5,0.2-0.7,0.2c-0.2,0.1-0.4,0.1-0.6,0.2c0,0-0.1,0-0.1,0c0,0,0,0,0,0c0,0-0.1,0-0.1,0c-0.2,0.1-0.4,0.1-0.7,0.2
							c-0.2,0-0.4,0.1-0.6,0.1c-0.2,0-0.3,0.1-0.5,0.1c-0.2,0-0.4,0-0.6,0.1c-0.1,0-0.2,0-0.3,0c0,0,0,0,0,0c0,0,0,0,0,0
							c0,0,0,0,0,0c0,0,0,0,0,0c-0.1,0-0.2,0-0.3,0c-0.1,0-0.2,0-0.4,0c0,0-0.1,0-0.1,0c-0.1,0-0.1,0-0.2,0c0,0-0.1,0-0.1,0
							c0,0,0,0,0,0c-0.2,0-0.3,0-0.5,0c-0.5,0-1.1,0-1.6-0.1c0,0-0.1,0-0.1,0c-0.1,0-0.2,0-0.3,0c0,0,0,0,0,0c-0.2,0-0.3,0-0.5-0.1
							c-0.1,0-0.1,0-0.2,0c0,0,0,0-0.1,0c-0.1,0-0.2,0-0.3,0c-0.1,0-0.2,0-0.3,0c0,0-0.1,0-0.1,0c-0.1,0-0.2,0-0.3-0.1
							c0,0,0,0-0.1,0c-0.1,0-0.3-0.1-0.4-0.1c0,0-0.1,0-0.1,0c0,0,0,0,0,0c0,0,0,0,0,0c0,0,0,0-0.1,0c0,0-0.1,0-0.1,0c0,0,0,0,0,0
							c0,0-0.1,0-0.1,0c-0.1,0-0.3-0.1-0.4-0.1c0,0,0,0-0.1,0c-0.5-0.1-1-0.3-1.4-0.5c-0.1,0-0.1-0.1-0.2-0.1
							c-0.1-0.1-0.3-0.1-0.4-0.2c0,0,0,0-0.1,0c-0.1,0-0.2-0.1-0.2-0.1c-0.1,0-0.1-0.1-0.2-0.1c0,0-0.1,0-0.1-0.1c0,0,0,0,0,0
							c-0.4-0.2-0.7-0.4-1-0.6c-0.1,0-0.2-0.1-0.2-0.1c-0.2-0.1-0.4-0.2-0.6-0.4c-0.1,0-0.1-0.1-0.2-0.1c-0.3-0.2-0.6-0.5-0.9-0.8
							c-0.1,0-0.1-0.1-0.2-0.1c-0.1-0.1-0.1-0.1-0.2-0.2c-0.1-0.1-0.2-0.2-0.3-0.3c-0.1-0.1-0.2-0.2-0.2-0.3 M375.3,452.8
							C375.3,452.8,375.3,452.8,375.3,452.8c-0.2,0.3-0.3,0.5-0.4,0.8c0,0,0,0-0.1,0.1c0,0,0,0,0,0c0,0,0,0,0,0c0,0,0,0,0,0
							c-0.2,0.2-0.3,0.5-0.5,0.7c0,0,0,0,0,0c0,0,0,0,0,0c-0.1,0.1-0.2,0.2-0.2,0.3c0,0,0,0,0,0.1c-0.1,0.1-0.2,0.2-0.3,0.4
							c0,0,0,0,0,0.1c-0.2,0.2-0.4,0.4-0.6,0.7c0,0-0.1,0.1-0.1,0.1c-0.2,0.2-0.4,0.4-0.6,0.5c0,0,0,0,0,0v0c0,0,0,0,0,0
							 M375.3,452.8C375.3,452.8,375.3,452.8,375.3,452.8"/>
						<path class="st30" d="M355.9,434.8c-5.8,1.9-9.9,6.7-9.9,12.3c0,3.3,1.4,6.3,3.8,8.7c2.8,2.8,7,4.6,11.6,4.6
							c6.1,0,11.4-3.1,13.9-7.6c0,0,0,0,0,0c0,0,0,0,0,0c0.7-1.3,1.2-2.6,1.4-4c-1.7,0.6-3.6,0.9-5.5,0.9c-8.5,0-15.4-5.9-15.4-13.2
							C355.8,435.8,355.8,435.3,355.9,434.8L355.9,434.8z"/>
						<polygon class="st28" points="364.9,465.3 356,517.8 299.2,517.8 290.3,465.1 301.2,465.1 306.2,465.2 311.2,465.2 
							316.2,465.2 320.4,465.2 325.4,465.2 334.8,465.2 340.6,465.2 345.6,465.2 350.7,465.3 359.8,465.3 						"/>
						<polygon class="st15" points="325.4,465.2 325.9,517.8 322.1,517.8 320.4,465.2 						"/>
						<polygon class="st15" points="316.2,465.2 318.9,517.8 315.1,517.8 311.2,465.2 						"/>
						<polygon class="st15" points="306.2,465.2 311.3,517.8 307.5,517.8 301.2,465.1 						"/>
						<polygon class="st15" points="295.3,465.1 303.1,517.8 299.2,517.8 290.3,465.1 						"/>
						<polygon class="st15" points="364.9,465.3 356,517.8 352.1,517.8 359.8,465.3 						"/>
						<polygon class="st15" points="355.7,465.3 349,517.8 345.1,517.8 350.7,465.3 						"/>
						<polygon class="st15" points="345.6,465.2 341.3,517.8 337.5,517.8 340.6,465.2 						"/>
						<polygon class="st15" points="334.8,465.2 333.1,517.8 329.3,517.8 329.8,465.2 						"/>
						<polyline class="st14" points="376.3,328.8 376.3,328.8 376.3,328.8 376.3,328.8 376.3,328.8 						"/>
						<polygon class="st31" points="358.5,379 357.9,381.8 357.9,381.8 358.5,379 358.5,379 						"/>
						<polygon class="st32" points="357.9,381.8 357.1,385.2 357.9,381.8 357.9,381.8 						"/>
						<path class="st33" d="M350.1,415.4L350.1,415.4c0.1,0.1,0.2,0.2,0.3,0.3C350.3,415.6,350.2,415.5,350.1,415.4z M353.9,417.5
							C354,417.5,354,417.5,353.9,417.5c0.1,0,0.1,0,0.1,0C354,417.5,354,417.5,353.9,417.5z M355.6,417.6
							C355.6,417.6,355.6,417.6,355.6,417.6C355.6,417.6,355.6,417.6,355.6,417.6C355.6,417.6,355.6,417.6,355.6,417.6z
							 M357.7,417.2c-0.1,0-0.3,0.1-0.4,0.1C357.4,417.3,357.5,417.2,357.7,417.2C357.7,417.2,357.7,417.2,357.7,417.2L357.7,417.2
							C357.7,417.2,357.7,417.2,357.7,417.2z M357.9,417.1C358,417.1,358,417.1,357.9,417.1L357.9,417.1
							C358,417.1,358,417.1,357.9,417.1z M358.1,417C358.1,417.1,358.1,417.1,358.1,417C358,417.1,358.1,417.1,358.1,417
							c0,0,0.1,0,0.2-0.1C358.2,417,358.2,417,358.1,417z M359.2,416.6C359.2,416.6,359.2,416.6,359.2,416.6
							C359.2,416.6,359.3,416.6,359.2,416.6C359.2,416.6,359.2,416.6,359.2,416.6z M359.4,416.5
							C359.4,416.5,359.4,416.5,359.4,416.5C359.4,416.5,359.4,416.5,359.4,416.5c0.1,0,0.2-0.1,0.2-0.1
							C359.6,416.4,359.5,416.5,359.4,416.5z M360.3,416C360.3,416,360.3,416,360.3,416l0.4-1.2L360.3,416z"/>
						<path class="st26" d="M355.3,417.6L355.3,417.6c-0.1,0-0.2,0-0.3,0c-0.1,0-0.2,0-0.3,0h0c0.1,0,0.2,0,0.3,0
							C355.1,417.6,355.2,417.6,355.3,417.6L355.3,417.6z"/>
						<polyline class="st14" points="301.8,383.2 301.8,383.2 301.8,383.2 						"/>
						<path class="st34" d="M303.1,388.9L303.1,388.9c0,0.1-0.1,0.3-0.1,0.4C303,389.1,303.1,389,303.1,388.9L303.1,388.9z"/>
						<path class="st35" d="M301.8,383.2c0.5,1.1,0.9,2.3,1.1,3.1c0.2,1.2,0.3,1.9,0.2,2.5l0,0c0.1-0.6,0-1.3-0.2-2.5
							C302.7,385.5,302.3,384.4,301.8,383.2L301.8,383.2z"/>
						<path class="st14" d="M300.9,391.7c0.1-0.1,0.3-0.2,0.4-0.4 M303,389.3C303,389.3,303,389.3,303,389.3
							c-0.1,0.2-0.2,0.4-0.3,0.6c0,0,0,0-0.1,0.1c-0.1,0.1-0.1,0.2-0.2,0.2 M281,387.1c0,0.1,0,0.2,0,0.3L281,387.1L281,387.1z
							 M281.1,388.8c0-0.1,0-0.2,0-0.3c0,0.2,0,0.4,0.1,0.6C281.1,389,281.1,388.9,281.1,388.8z"/>
						<path class="st14" d="M282.8,394.5C282.8,394.5,282.8,394.5,282.8,394.5C282.8,394.5,282.8,394.5,282.8,394.5
							C282.8,394.5,282.8,394.5,282.8,394.5C282.8,394.5,282.8,394.5,282.8,394.5"/>
						<path class="st14" d="M333.7,386.1L333.7,386.1"/>
						<polyline class="st14" points="355.5,387.3 355.5,387.3 355.5,387.3 355.5,387.3 355.5,387.3 						"/>
						<path class="st14" d="M355.5,387.1C355.5,387.1,355.5,387.1,355.5,387.1c0,0.1,0,0.2,0,0.3c0,0,0,0,0,0
							C355.5,387.2,355.5,387.1,355.5,387.1"/>
						<path class="st35" d="M353.8,394.4c-0.4,0.5-1.2,1-2,1.4C352.7,395.4,353.4,394.9,353.8,394.4
							C353.8,394.4,353.8,394.4,353.8,394.4L353.8,394.4z"/>
						<g>
							<g>
								<path class="st6" d="M351.8,388.5c0,0,0.1,3.5-1,5.1c-1.1,1.5-5.8,2.5-6.5,1c-3.1,0.4-3.5-1-3.5-1s-2.5,0.2-2.3-1.6
									c-1.6-1.5-1.6-1.7-1.3-3.5c0.3-1.9,2.2-5.2,4.1-6.2c1.9-1,4.3-1.6,7.7,1.9C352,386.9,351.8,388.5,351.8,388.5L351.8,388.5z"
									/>
								<path class="st7" d="M344.3,394.5c0.3-0.6,0.8-1.3,1.6-2c0.8-0.8,1.6-1.3,2.2-1.6c-0.4,0.6-0.9,1.3-1.7,2
									C345.6,393.6,344.9,394.1,344.3,394.5z"/>
								<path class="st7" d="M346.2,388.3c-1,0.8-2,1.7-3.1,2.8c-0.8,0.8-1.6,1.7-2.3,2.5c0.3-0.7,0.9-1.9,2-3
									C344.1,389.2,345.4,388.5,346.2,388.3z"/>
								<path class="st7" d="M343.8,385.2c-0.9,0.7-2.1,1.8-3.2,3.2c-1,1.2-1.6,2.4-2.1,3.4c0.1-0.8,0.5-2.3,1.7-3.8
									C341.5,386.3,343.1,385.5,343.8,385.2z"/>
							</g>
						</g>
						<g>
							<g>
								<path class="st6" d="M287.3,389.6c0,0,0.2,3.5,1.4,4.9c1.2,1.4,6,2,6.6,0.4c3.1,0.1,3.4-1.3,3.4-1.3s2.5,0,2.2-1.8
									c1.4-1.6,1.5-1.8,1-3.6c-0.5-1.8-2.6-5-4.6-5.8c-2-0.8-4.4-1.2-7.5,2.6C287,388.1,287.3,389.6,287.3,389.6L287.3,389.6z"/>
								<path class="st7" d="M295.3,394.9c-0.5-0.5-1.1-1.1-1.9-1.7c-0.8-0.6-1.5-1.1-2.1-1.4c0.5,0.6,1.1,1.2,1.9,1.9
									C294,394.2,294.7,394.6,295.3,394.9z"/>
								<path class="st7" d="M292.9,388.9c0.9,1,1.8,1.8,2.8,2.5l1.5,1.1c0.5,0.4,1,0.7,1.5,1.1c-0.3-0.4-0.6-0.9-1.2-1.5
									c-0.5-0.5-1-0.9-1.5-1.2C295.2,390.4,294.2,389.7,292.9,388.9z"/>
								<path class="st7" d="M295,385.7c1,1.2,2,2.1,3,3.1c0.5,0.5,1,1,1.5,1.4c0.5,0.5,1,1,1.3,1.6c-0.4-0.9-1-2-2.1-3.2
									C297.4,387.1,296,386.2,295,385.7z"/>
							</g>
						</g>
					</g>
				</g>
				<g>
					<path class="st36" d="M408.2,288.1c0,0,10.2,8.1,21-6.4c10.8-14.4,4.8-46.9,5.3-66.6s19.4-54,19.4-54s-16.5,26.2-16.8,64.6
						c-0.4,38.4,2.2,49.4-3.7,59.5C427.6,295.3,409.6,292.4,408.2,288.1z"/>
					<path class="st36" d="M429.9,206.3c0,0,6.4,24.7-1.5,48.7c-7.9,24-16.5,26.8-16.5,26.8s11.8,7.1,15.8-8.4
						C431.8,257.7,437.1,227.4,429.9,206.3z"/>
					<path class="st36" d="M441.3,226.6c-1.7,24.5-2,52.8-5,63.1c-2.9,10.3-16.9,5.6-16.9,5.6s18.9,18.3,23.7-4.7
						C447.9,267.6,441.3,226.6,441.3,226.6z"/>
				</g>
				<path class="st3" d="M239.2,277.5c-2.6-20.9,12.9-37.1,33.8-35.8c6.2,0.4,12.3,2.4,17.6,5.7c-5.6-2.5-11.6-4-17.7-4.1
					C252.6,243.1,239.3,257.4,239.2,277.5L239.2,277.5z"/>
				<path class="st3" d="M370.7,233.5c12.5,7.7,16.9,24.2,8.4,36.5c-2.6,3.8-6.2,7-10.3,9c5.6-4.2,10-9.9,11.8-16.6
					C383.6,251.6,378.9,240.7,370.7,233.5L370.7,233.5z"/>
			</g>
			<g>
				<path class="st18" d="M242.1,398.9c0,0,0-154.1,0-154.1s0-2.2,0-2.2c4.2-1.9,8.7-3.8,13-5.1c36.3-10.9,80.6-11.8,117.3-2.8
					c6.1,1.6,12.2,3.4,18.1,6.1c0,0,4,1.8,4,1.8s0,2.2,0,2.2s0,154.1,0,154.1h-8V244.8l4,4c-5.8,2.7-11.9,4.4-18.1,6.1
					c-29.6,7.3-60.2,7.6-90.3,3.4c-12.2-1.9-24.6-4.6-36.1-9.4c0,0,4-4,4-4v154.1H242.1L242.1,398.9z"/>
			</g>
			<g>
				<polygon class="st15" points="375.1,332.7 386.8,294.5 408.2,289 403.4,301 396.8,299.8 383,335 375.1,332.7 				"/>
				<polygon class="st16" points="391.5,293.3 386.8,294.5 380.8,313.9 376.3,328.8 378.2,329.8 378.2,329.8 383.9,332.7 385,329.8 
					380.7,328.5 391.5,293.3 				"/>
				<polygon class="st16" points="398.4,295.7 396.8,299.8 403.4,301 405.4,296.1 398.4,295.7 				"/>
				<path class="st15" d="M349.8,415.1l21.4-88.9l18.1,9.3L360.3,416C360.3,416,353.9,420.1,349.8,415.1L349.8,415.1z"/>
				<path class="st16" d="M371.3,326.2L358.5,379l-0.7,2.8l-0.8,3.4l-7.2,29.9c1.5,1.8,3.2,2.4,4.9,2.5c0.1,0,0.2,0,0.3,0
					c0.1,0,0.2,0,0.3,0c2.7-0.1,5-1.5,5-1.5l0.7-2c-0.9-0.4-1.9-1-2.7-2l19.9-82.3l-1.9-1l0,0L371.3,326.2L371.3,326.2z"/>
			</g>
		</g>
		<g>
			<path class="st3" d="M280.7,196.7c9.3,11.2,22.7,18.8,37.2,20.1c4.8,0.5,9.7,0.4,14.5-0.3C313.5,222.6,290.8,213.9,280.7,196.7
				L280.7,196.7z"/>
			<path class="st3" d="M201.4,287.1c-11.8,8.4-15.7,22.5-9.2,35.6C182.7,311,187.6,292.9,201.4,287.1L201.4,287.1z"/>
		</g>
	</g>
	<circle class="st37" cx="319.6" cy="392.5" r="0.7"/>
	<circle class="st37" cx="320.1" cy="386.4" r="0.7"/>
	<circle class="st37" cx="317.2" cy="367.9" r="0.7"/>
</g>
</svg>
