<?xml version="1.0" encoding="utf-8"?>
<!-- Generator: Adobe Illustrator 26.0.1, SVG Export Plug-In . SVG Version: 6.00 Build 0)  -->
<svg version="1.1" id="Layer_1" xmlns="http://www.w3.org/2000/svg" xmlns:xlink="http://www.w3.org/1999/xlink" x="0px" y="0px"
	 viewBox="0 0 864 800" style="enable-background:new 0 0 864 800;" xml:space="preserve">
<style type="text/css">
	.st0{clip-path:url(#SVGID_00000106139922733648937530000003228889736881462198_);}
	.st1{fill:#BDDEEF;}
	.st2{fill:#52A7C1;}
	.st3{clip-path:url(#SVGID_00000106139922733648937530000003228889736881462198_);fill:#81CCC6;}
	.st4{fill:#CD070C;}
	.st5{fill:#3E8ACE;}
	.st6{fill:#E5060B;}
	.st7{fill:#FCB99B;}
	.st8{fill:#CCCCCC;}
	.st9{fill:#431230;}
	.st10{fill:#580000;}
	.st11{fill:#990000;}
	.st12{fill:#F76467;}
	.st13{fill:#0066A5;}
	.st14{fill:url(#SVGID_00000047039388935967908050000008656750683845618063_);}
	.st15{fill:#F38D82;}
	.st16{fill:#EA906C;}
	.st17{fill:url(#SVGID_00000072961398936067703030000010345282372590686106_);}
	.st18{fill:#FFFFFF;}
	.st19{fill:#6B3628;}
	.st20{fill:#576B7D;}
	.st21{fill:#5E7389;}
	.st22{fill:#EA4E5A;}
	.st23{fill:#EE252A;}
	.st24{fill:#CF455E;}
	.st25{fill:#E7372E;}
	.st26{fill:#C21111;}
	.st27{fill:#FFCC00;}
	.st28{clip-path:url(#SVGID_00000106139922733648937530000003228889736881462198_);fill:#A5A4A4;}
	.st29{fill:#1E1A14;}
	.st30{fill:#F69493;}
	.st31{fill:#ED2448;}
	.st32{fill:#FFC7D0;}
	.st33{fill:#F4A671;}
	.st34{fill:#FC325E;}
	.st35{fill:#FF668E;}
	.st36{fill:#EACE73;}
	.st37{fill:#FCE9ED;}
	.st38{fill:#282125;}
	.st39{fill:#1F1A1C;}
	.st40{fill:#FFF7EF;}
	.st41{fill:#D1AF4E;}
	.st42{fill:#F5EFEC;}
	.st43{fill:none;stroke:#2E2A2B;stroke-width:0.2788;stroke-linecap:round;stroke-linejoin:round;stroke-miterlimit:10;}
	.st44{fill:#443E42;}
	.st45{fill:#2E2A2B;}
	.st46{fill:#524A50;}
	.st47{fill:#F4D3BB;}
	.st48{fill:#DD915E;}
	.st49{fill:#EF6F7B;}
	.st50{fill:#96753B;}
	.st51{fill:#232323;}
	.st52{fill:#282828;}
	.st53{fill:#E5E5E5;}
	.st54{fill:#E5935C;}
	.st55{fill:#140408;}
	.st56{fill:#666666;}
	.st57{fill:#F3914B;}
	.st58{fill:#FF9750;}
	.st59{opacity:0.72;clip-path:url(#SVGID_00000182497018377905465990000001877715120686023091_);}
	.st60{fill:#844949;}
	.st61{opacity:0.89;fill:#844949;}
	.st62{fill:#F95A71;}
	.st63{clip-path:url(#SVGID_00000106139922733648937530000003228889736881462198_);fill:#CE2026;}
	.st64{clip-path:url(#SVGID_00000106139922733648937530000003228889736881462198_);fill:#FC325E;}
	.st65{clip-path:url(#SVGID_00000106139922733648937530000003228889736881462198_);fill:#F4A671;}
</style>
<g>
	<defs>
		<path id="SVGID_1_" d="M806.1,587.5c27.1-73.6,1.1-153.3,1.1-153.3c-1.1-4.7-2-8.2-2.3-9.2c-7.1-27.1-28.7-93.7-85.5-143.1
			c-23.1-20.1-50.2-36.9-66.9-62.7c-17.1-26.4-21-58.8-27.3-89.5s-16.5-63.2-41.5-82.3c-26.5-20.2-64.7-20.2-95.1-6.6
			c-30.4,13.6-54.2,38.9-73.6,66.1c-46,64.6-64.3,63-71.3,68c-37.1,26.1-73.8,37.3-92.9,41.9c-74.2,17.9-97-10.8-131.9,11.8
			c-50,32.4-47.5,120-47.3,124.8c2.6,63.8,39.7,85.4,24.5,125.1c-12.7,33-44.1,30.8-56.1,65.7c-13.6,39.4,9.3,80.5,16.3,93.1
			C105.5,726,242,744,298.5,750.6C531.3,778,767.8,691.8,806.1,587.5z"/>
	</defs>
	<clipPath id="SVGID_00000161605979408622601830000016431159920595992739_">
		<use xlink:href="#SVGID_1_"  style="overflow:visible;"/>
	</clipPath>
	<g style="clip-path:url(#SVGID_00000161605979408622601830000016431159920595992739_);">
		<path class="st1" d="M780.2,684.2c12.1-7.6,22.8-17.3,31-29c0-0.1,0.1-0.1,0.1-0.2c4.9-6.9,48.1-78.6,33.8-180.9
			c-2.9-20.9-16.3-116.3-88.2-180.5c-30.6-27.3-57-35.8-80.8-76.4c-11.7-20-9.8-25.6-30.9-77.8c-21-51.9-31.4-77.9-45.6-90.4
			c-32.5-28.6-82.4-31.8-117.5-22.8c-18.5,4.7-21.2,9.8-101.4,61.7c-37.5,24.3-56.4,36.5-61.7,38.2c-66.7,22-109.9-30.5-157.2-14.7
			c-43.7,14.6-59.1,76.7-73,136.8C28.9,508.3-1,638.3,34.2,687.5c50.5,70.5,142.1,80.2,285.7,95.4c0,0,158.4,13.8,378.5-56.2
			C723.1,718.7,759.8,696.9,780.2,684.2z"/>
	</g>
	<g style="clip-path:url(#SVGID_00000161605979408622601830000016431159920595992739_);">
		<path class="st2" d="M1040,542c-23.3,22.7-50.6,41.1-79.5,54.3c-0.3,0.6-0.6,1.2-0.9,1.8c-7.3,15.2-15.1,30-23.5,44.4
			c-13,22.4-27.3,43.9-42.7,64.3c-46.4,7.8-94.8,8.3-142,8.5c-286.9,1.2-573.8,2.5-860.6,3.8c-29.4-36.9-54.8-77.4-75.7-121
			c-0.3-0.6-0.6-1.2-0.9-1.8c-0.8-0.2-1.5-0.5-2.3-0.8c-5.2-1.8-11.1-4-17.5-6.9c4.3-9.7,11.2-18.4,20-24.3
			c18.8-12.6,45.3-12.5,64,0.3c-3.3-17.5,9.3-36.4,26.7-40.1c17.4-3.7,36.6,8.5,40.7,25.7c13-31.1,47.2-52,80.8-49.3
			c33.6,2.7,64,28.9,71.8,61.7c-5-37.3,26.9-74.9,64.5-77.3c37.6-2.4,73.5,29.6,76.8,67.2c10.9-27.6,36.6-49,65.8-54.6
			c29.2-5.6,61,4.6,81.4,26.3c7.1-31.4,34.1-57.3,65.7-63.2s66.1,8.8,83.9,35.6c11.6-34.2,47.2-58.5,83.2-56.9
			c36,1.7,69.3,29.2,77.7,64.3c20.2-25.6,54.8-39,87-33.6c32.2,5.3,60.6,29.1,71.6,59.8c15-21,40.9-33.8,66.7-32.8
			c25.8,1,50.7,15.6,64.1,37.7C1003.3,525.2,1025.2,529.5,1040,542z"/>
	</g>
	<path style="clip-path:url(#SVGID_00000161605979408622601830000016431159920595992739_);fill:#81CCC6;" d="M536.8,820L68.7,747.5
		c-71.1-11-71.5-113.3-0.5-124.8c167.3-27,362.9-40.4,579.1-21.3c48.5,4.3,95.3,10,140.5,16.8c72.6,10.9,81.3,112.1,11.8,135.5
		C710.6,783.5,621.7,812.7,536.8,820z"/>
	<g style="clip-path:url(#SVGID_00000161605979408622601830000016431159920595992739_);">
		<g>
			<g>
				<g>
					<g transform="matrix( 0.351959228515625, 0, 0, 0.351959228515625, 4965.5,580.6) ">
						<g transform="matrix( 1, 0, 0, 1, 0,0) ">
							<g>
								<g id="Seragu_0_Layer0_0_FILL_00000088130430820779757690000002527418301382765999_">
									<path class="st4" d="M-13640.8,245.7l1.2,49.1c-40.4,7.1-80.7,5.9-121.1-3.6l3-59.6
										C-13718.7,239.5-13679.7,244.2-13640.8,245.7z"/>
									<path class="st5" d="M-13716.7-412.1c17.2-4,35.9-6.7,56-8.2l19.9,665.9c-39-1.5-77.9-6.2-116.9-14L-13716.7-412.1z"/>
									<path class="st4" d="M-13719.3-411.5l2.6-0.7v0.1l-40.9,643.8l-3,59.6c-9.3,1.4-17.6-3.5-24.8-14.6l47.7-683
										L-13719.3-411.5z"/>
									<path class="st6" d="M-13725-406.4c6-1.9,12.1-3.6,18.5-5.2L-13725-406.4z"/>
								</g>
							</g>
						</g>
					</g>
					<g transform="matrix( 1.31781005859375, 0, 0, 1.31781005859375, 4933.85,1176.35) ">
						<g transform="matrix( 1.0998382568359375, 0.017730712890625, -0.017730712890625, 1.0998382568359375, -2.05,-472) ">
							<g transform="matrix( 1, 0, 0, 1, 0,0) ">
								<g>
									<g id="Hair_1c2h_hair_ul_0_Layer0_0_MEMBER_0_FILL_00000065072387381134736890000005685943242318336951_">
										<path d="M-3273.4-79.9c0.1,0.1,0.3,0.2,0.5,0.4c0.5,0.5,1.1,1,1.6,1.5c3,3.1,5.2,6.5,6.8,10.4c1.5,3.9,2.3,7.9,2.4,12.2
											c0,4.3-0.4,8.2-1.4,11.6c-1,3.4-2.6,5.9-4.7,7.4c-2.1,1.5-4.3,2.5-6.5,3c-2.1,0.5-4.3,0.3-6.7-0.5c-2-0.7-4.1-1.8-6.2-3.3
											c-2.8-2.1-5.4-4.5-7.6-7.3c-0.5-0.6-0.9-1.2-1.4-1.8c-1.4-2-2.6-4.2-3.6-6.4c-0.3-0.6-0.5-1.2-0.8-1.8
											c0-0.1-0.1-0.2-0.1-0.3c-1.7-4.6-2.3-9.1-1.8-13.7c0.6-5,2.6-8.9,5.9-11.7c2.2-1.9,4.9-3.1,8-3.6c3-0.5,6-0.3,8.9,0.5
											C-3277.8-82.6-3275.5-81.5-3273.4-79.9z"/>
									</g>
								</g>
							</g>
						</g>
						<g transform="matrix( 0.9983978271484375, -0.05657958984375, 0.0879364013671875, 0.996612548828125, -63.2,4.35) ">
							<g>
								<g transform="matrix( 1, 0, 0, 1, 0,0) ">
									<g>
										<g id="Cloth_1Lad1y_R_leg_0_Layer2_0_FILL_00000181074575793229650610000004441633672721967233_">
											<path class="st7" d="M-3487-508.2c0,0.1,0.1,0.2,0.1,0.3c0.4,1.2,0.9,2.4,1.3,3.6c0.5,1.2,0.9,2.4,1.4,3.6
												c0.1,0.2,0.1,0.3,0.2,0.5c1.8,4.3,3.2,7.7,4.4,10.1c0.7,1.8,1.4,3.1,2.1,3.8c0.6,0.7,1,1.1,1.1,1.2
												c0.3,0.5,0.7,1,1.1,1.7c0.1,0.2,0.3,0.4,0.3,0.6c0.4,1.2,0.5,2.2,0.4,2.9c-0.3,1.3-1.7,1.7-4.1,1.2
												c-1.7-0.4-3.9-1.2-6.7-2.6c-1.5-1-2.9-2.3-4.1-3.8c-1.4-3.2-3-5.9-5-8.1c-0.7-0.7-1.4-1.4-2.1-2.1
												c-1.1-1.4-1.7-2.8-1.8-4.2l0,0c0,0,0-0.1,0-0.1c0-0.1,0-0.2,0-0.3l0,0c0,0,0,0.1,0,0.1c0-0.2,0-0.4,0-0.6
												c0-0.2,0.2-0.9,0.7-1.9c0.2-0.5,0.4-0.9,0.5-1.2c0,0,0.1-0.1,0.1-0.1c0.3-0.4,0.4-1.4,0.3-3c0,0,0,0,0,0l0.1-1.9
												c0.8,0.2,1.2,0.3,1.4,0.3c2,0.4,4.8,0.4,8.4,0.1C-3486.9-508-3487-508.1-3487-508.2z"/>
										</g>
									</g>
								</g>
								<g transform="matrix( 1, 0, 0, 1, 0,0) ">
									<g>
										<g id="Cloth_1Lad1y_R_leg_0_Layer1_0_MEMBER_0_FILL_00000099630147925555055350000003254930989299441804_">
											<path class="st8" d="M-3485.5-480.6L-3485.5-480.6L-3485.5-480.6L-3485.5-480.6z"/>
										</g>
									</g>
								</g>
								<g transform="matrix( 1, 0, 0, 1, -34.5,0) ">
									<g transform="matrix( 1, 0, 0, 1, 0,0) ">
										<g>
											<g id="Hands_1s1hoe_rht_0_Layer1_0_FILL_00000047749215560784685370000002528428900359276446_">
												<path class="st9" d="M-3461.8-492.9L-3461.8-492.9L-3461.8-492.9L-3461.8-492.9 M-3436.8-472.4L-3436.8-472.4
													c0.3-0.1,0.5-0.3,0.6-0.5C-3436.3-472.7-3436.5-472.5-3436.8-472.4z"/>
												<path class="st10" d="M-3436.7-472.4L-3436.7-472.4c-1.3,0.7-4,0.4-8.4-1c-4.4-1.4-7.3-2.8-8.8-4.4
													c-1-1.1-1.7-2.1-2.3-3.1c-0.2-0.4-0.4-0.8-0.5-1.2c-1.5-5.7-2.7-9.1-3.6-10.1l0,0l0,0l-0.1-0.1l0,0l0,0l0,0l0,0
													l-1.2-0.9c0,0.1-0.1,0.2-0.2,0.3l0.1,0c-0.3,0.6-0.5,1.1-0.7,1.8c-0.9,2.5-1.5,5.4-1.8,8.9c0.5,0.1,0.9-0.1,1.2-0.4
													c0-0.1,0-0.3,0-0.4c0.1-3,0.6-5.3,1.5-6.9l1.1-2c0.1,0,0.1,0.1,0.2,0.1c0.9,1,2.1,4.4,3.6,10.1c0.1,0.4,0.3,0.8,0.5,1.2
													c0.5,0.9,1.2,1.9,2.2,3c1.5,1.6,4.4,3,8.7,4.3c4.3,1.3,7.1,1.6,8.2,0.9C-3436.9-472.1-3436.8-472.2-3436.7-472.4
													 M-3460.6-491.9L-3460.6-491.9L-3460.6-491.9C-3460.6-491.9-3460.6-491.9-3460.6-491.9z"/>
												<path class="st11" d="M-3440.8-483.4c-0.4-0.7-0.8-1.3-1.1-1.7c0.2,0.2,0.5,0.5,0.9,1.1c0.2,0.3,0.6,0.7,0.9,1.1
													c0.5,0.6,1,1.3,1.6,2.1c1.9,2.5,2.9,4.4,3,5.6c0.1,0.9-0.1,1.6-0.7,2.2c-0.2,0.2-0.4,0.3-0.6,0.5
													c-1.2,0.7-3.9,0.4-8.3-1c-4.4-1.4-7.3-2.8-8.8-4.4c-1-1.1-1.7-2.1-2.3-3.1c-0.2-0.4-0.4-0.8-0.5-1.2
													c-1.5-5.7-2.7-9.1-3.6-10.1l0,0l0,0l-0.1-0.1l0,0l0,0l0,0l0,0l-1.2-0.9c0,0.1-0.1,0.2-0.2,0.3l0,0l0.1,0
													c-0.3,0.6-0.5,1.1-0.7,1.8c-0.9,2.5-1.5,5.4-1.8,8.9c0.5,0.1,0.9-0.1,1.2-0.4c0,0.3,0,0.6,0,0.8c0,0.1,0,0.2,0,0.3
													c-0.5,0.2-1,0.4-1.6,0.3c-0.5-0.1-0.8-0.2-0.9-0.3c0.1-0.4,0.2-0.8,0.3-1.3c0.7-3.2,0.8-6,0.1-8.4
													c-0.5-1.4-0.6-3.2-0.1-5.3c0-0.1,0-0.2,0-0.2c0.4-1.7,0.9-3.1,1.5-4.2c0.1-0.1,0.1-0.2,0.2-0.3
													c-0.2,0.4-0.3,0.9-0.3,1.4c0,0.2,0,0.4,0,0.5c0.1,1.4,0.7,2.7,1.8,4.2c0.7,0.6,1.4,1.3,2.1,2.1c2,2.2,3.6,4.8,5,8.1
													c1.2,1.6,2.6,2.8,4.1,3.8c8.7,4.2,12.2,3.6,10.4-1.6C-3440.6-483-3440.7-483.2-3440.8-483.4z"/>
											</g>
										</g>
									</g>
								</g>
							</g>
							<g>
								<g transform="matrix( 1, 0, 0, 1, 0,0) ">
									<g>
										<g id="Cloth_1Lad1y_R_leg_0_Layer2_0_FILL_00000047044270533664122140000002899093821738419362_">
											<path class="st7" d="M-3509-509.5c0,0.1,0.1,0.2,0.1,0.3c0.4,1.2,0.9,2.4,1.3,3.6c0.5,1.2,0.9,2.4,1.4,3.6
												c0.1,0.2,0.1,0.3,0.2,0.5c1.8,4.3,3.2,7.7,4.4,10.1c0.7,1.8,1.4,3.1,2.1,3.8c0.6,0.7,1,1.1,1.1,1.2
												c0.3,0.5,0.7,1,1.1,1.7c0.1,0.2,0.3,0.4,0.3,0.6c0.4,1.2,0.5,2.2,0.4,2.9c-0.3,1.3-1.7,1.7-4.1,1.2
												c-1.7-0.4-3.9-1.2-6.7-2.6c-1.5-1-2.9-2.3-4.1-3.8c-1.4-3.2-3-5.9-5-8.1c-0.7-0.7-1.4-1.4-2.1-2.1
												c-1.1-1.4-1.7-2.8-1.8-4.2l0,0c0,0,0-0.1,0-0.1c0-0.1,0-0.2,0-0.3l0,0c0,0,0,0.1,0,0.1c0-0.2,0-0.4,0-0.6
												c0-0.2,0.2-0.9,0.7-1.9c0.2-0.5,0.4-0.9,0.5-1.2c0,0,0.1-0.1,0.1-0.1c0.3-0.4,0.4-1.4,0.3-3c0,0,0,0,0,0l0.1-1.9
												c0.8,0.2,1.2,0.3,1.4,0.3c2,0.4,4.8,0.4,8.4,0.1C-3509-509.2-3509-509.4-3509-509.5z"/>
										</g>
									</g>
								</g>
								<g transform="matrix( 1, 0, 0, 1, 0,0) ">
									<g>
										<g id="Cloth_1Lad1y_R_leg_0_Layer1_0_MEMBER_0_FILL_00000076578308481278246510000002364558551259199366_">
											<path class="st8" d="M-3507.6-481.8L-3507.6-481.8L-3507.6-481.8L-3507.6-481.8z"/>
										</g>
									</g>
								</g>
								<g transform="matrix( 1, 0, 0, 1, -34.5,0) ">
									<g transform="matrix( 1, 0, 0, 1, 0,0) ">
										<g>
											<g id="Hands_1s1hoe_rht_0_Layer1_0_FILL_00000145770891731763649080000006458625108051330190_">
												<path class="st9" d="M-3483.8-494.1L-3483.8-494.1L-3483.8-494.1L-3483.8-494.1 M-3458.8-473.6L-3458.8-473.6
													c0.3-0.1,0.5-0.3,0.6-0.5C-3458.4-473.9-3458.6-473.8-3458.8-473.6z"/>
												<path class="st10" d="M-3458.7-473.6L-3458.7-473.6c-1.3,0.7-4,0.4-8.4-1c-4.4-1.4-7.3-2.8-8.8-4.4
													c-1-1.1-1.7-2.1-2.3-3.1c-0.2-0.4-0.4-0.8-0.5-1.2c-1.5-5.7-2.7-9.1-3.6-10.1l0,0l0,0l-0.1-0.1l0,0l0,0l0,0l0,0
													l-1.2-0.9c0,0.1-0.1,0.2-0.2,0.3l0.1,0c-0.3,0.6-0.5,1.1-0.7,1.8c-0.9,2.5-1.5,5.4-1.8,8.9c0.5,0.1,0.9-0.1,1.2-0.4
													c0-0.1,0-0.3,0-0.4c0.1-3,0.6-5.3,1.5-6.9l1.1-2c0.1,0,0.1,0.1,0.2,0.1c0.9,1,2.1,4.4,3.6,10.1c0.1,0.4,0.3,0.8,0.5,1.2
													c0.5,0.9,1.2,1.9,2.2,3c1.5,1.6,4.4,3,8.7,4.3c4.3,1.3,7.1,1.6,8.2,0.9C-3459-473.4-3458.8-473.5-3458.7-473.6
													 M-3482.6-493.1L-3482.6-493.1L-3482.6-493.1C-3482.6-493.1-3482.6-493.1-3482.6-493.1z"/>
												<path class="st11" d="M-3462.8-484.6c-0.4-0.7-0.8-1.3-1.1-1.7c0.2,0.2,0.5,0.5,0.9,1.1c0.2,0.3,0.6,0.7,0.9,1.1
													c0.5,0.6,1,1.3,1.6,2.1c1.9,2.5,2.9,4.4,3,5.6c0.1,0.9-0.1,1.6-0.7,2.2c-0.2,0.2-0.4,0.3-0.6,0.5
													c-1.2,0.7-3.9,0.4-8.3-1c-4.4-1.4-7.3-2.8-8.8-4.4c-1-1.1-1.7-2.1-2.3-3.1c-0.2-0.4-0.4-0.8-0.5-1.2
													c-1.5-5.7-2.7-9.1-3.6-10.1l0,0l0,0l-0.1-0.1l0,0l0,0l0,0l0,0l-1.2-0.9c0,0.1-0.1,0.2-0.2,0.3l0,0l0.1,0
													c-0.3,0.6-0.5,1.1-0.7,1.8c-0.9,2.5-1.5,5.4-1.8,8.9c0.5,0.1,0.9-0.1,1.2-0.4c0,0.3,0,0.6,0,0.8c0,0.1,0,0.2,0,0.3
													c-0.5,0.2-1,0.4-1.6,0.3c-0.5-0.1-0.8-0.2-0.9-0.3c0.1-0.4,0.2-0.8,0.3-1.3c0.7-3.2,0.8-6,0.1-8.4
													c-0.5-1.4-0.6-3.2-0.1-5.3c0-0.1,0-0.2,0-0.2c0.4-1.7,0.9-3.1,1.5-4.2c0.1-0.1,0.1-0.2,0.2-0.3
													c-0.2,0.4-0.3,0.9-0.3,1.4c0,0.2,0,0.4,0,0.5c0.1,1.4,0.7,2.7,1.8,4.2c0.7,0.6,1.4,1.3,2.1,2.1c2,2.2,3.6,4.8,5,8.1
													c1.2,1.6,2.6,2.8,4.1,3.8c8.7,4.2,12.2,3.6,10.4-1.6C-3462.6-484.2-3462.7-484.4-3462.8-484.6z"/>
											</g>
										</g>
									</g>
									<g transform="matrix( 1, 0, 0, 1, 0,0) ">
										<g>
											<g id="Hands_1s1hoe_rht_0_Layer1_1_FILL_00000135662355116441640250000016753544087175539376_">
												<path class="st12" d="M-3486.3-499.5c0.6,2,1.1,3.3,1.5,3.7c-0.4,1.5-0.9,3.2-1.4,5l-0.5-3.5"/>
											</g>
										</g>
									</g>
								</g>
							</g>
						</g>
						<g>
							<polygon class="st7" points="-3573.2,-449.7 -3573.3,-449.7 -3573.2,-449.8 							"/>
							<path class="st7" d="M-3575.3-442.6l0.2,13.3c0,0,0.1,0,0.1,0.1l0.1,0l0,0c0.2-0.1,0.3-0.2,0.5-0.3c0.5-0.3,0.9-0.9,1.2-1.5
								c0.1-0.1,0.1-0.2,0.2-0.3c0,0,0,0,0,0.1c0,0,0-0.1,0-0.1c0.3-0.8,0.5-1.8,0.6-3c0-1.4,0.3-3.2,0.9-5.2c0.9,2.4,1,6,0.4,10.6
								l-1.7,7.1c0.1,0.8,0.3,1.3,0.5,1.6c0.3,0.3,0.5,0.3,0.8,0c0,0,0.1,0,0.1-0.1l0.5-1.5c0.1,0.2,0.2,0.4,0.2,0.4
								c0.3,0.1,0.6,0.1,0.7-0.1c0-0.1,0.1-0.1,0.1-0.2l0.3-1.1l0,0l2.5-4.9l0.2-0.7l2.2-2.7l0.1-0.1l1.5-8.7l-1.6-8.7
								c-0.2-0.7-0.4-1.3-0.6-1.7c0,0.1,0,0.1,0,0.2c0-0.1-0.1-0.1-0.1-0.2c0,0,0-0.1,0-0.1l0-0.1c0,0,0,0,0,0l-0.1-0.1
								c-0.1-0.2-0.2-0.4-0.3-0.7c-0.5-1.3-1-2.2-1.4-2.7c-0.4-0.5-0.8-1-1.1-1.5c0,0,0,0,0,0l0,0c0,0-0.1,0-0.1,0v0c0,0,0,0,0,0
								c-1.1,0-2.2,0.4-3.3,1.1c-0.8,0.5-1.4,1.1-1.9,1.8c-0.1,0.2-0.2,0.3-0.3,0.5c0,0.1,0.2,0.2,0.4,0.5c0.2,0.3,0.4,0.5,0.5,0.8
								l0.2,0.4l0,0c0,0.3,0,0.4,0.1,0.2c0,0.1,0,0.3,0,0.4c0,0.2,0,0.4,0,0.6c0,0.1,0,0.1,0,0.2l0,0.2c0,0.1-0.1,0.1-0.1,0.2
								c-0.2,0.3-0.6,1-1.2,2.1c-0.6,1.1-1,2.5-1.4,4.1L-3575.3-442.6z M-3565-450L-3565-450C-3565-450-3565-450-3565-450
								c0,0,0-0.1,0-0.1C-3565-450.1-3565-450-3565-450z"/>
						</g>
						<g transform="matrix( 1, 0, 0, 1, 0,0) ">
							<g>
								<g id="a1_acton_3_Layer11_0_MEMBER_1_FILL_00000093896959756232782410000007051708766568394175_">
									<path class="st7" d="M-3584.9-498.7l4-0.8c5-1,8.2,0.3,9.5,3.9l0.1-0.3l-0.1-2.6l0.3,2.3l0.6-1c0,0.1,0,0.3,0,0.4
										c0.1,2.8,0.2,5.3,0.2,7.6c0.8,10.2,1.7,20.4,2.5,30.6c0.4,1.6,0.7,3.1,1.1,4.7c-1.9,1.5-3.8,3.1-5.7,4.6l-10.9-29.5
										c-1.5-5.5-2-11.1-1.7-16.7C-3584.9-496-3584.9-497.1-3584.9-498.7z"/>
								</g>
							</g>
						</g>
						<g transform="matrix( 1, 0, 0, 1, 0,0) ">
							<g>
								<g id="a1_acton_3_Layer11_0_MEMBER_2_FILL_00000127750594360748312550000001988383459980851385_">
									<path class="st7" d="M-3584.7-492.1c0-0.2-0.1-0.4-0.1-0.7L-3584.7-492.1L-3584.7-492.1 M-3584.9-493.4l3.4-3.3
										c4.8-1.9,8.1-1.2,10.1,2.1l0.5-1.7c0,0.1,0.1,0.3,0.1,0.4v-0.1c0.4-8.3,0.4-14.9,0.2-19.7c-0.2-4.8-0.4-9.5-0.4-14l-17.3,1
										L-3584.9-493.4z"/>
								</g>
							</g>
						</g>
						<g transform="matrix( 1, 0, 0, 1, 0,0) ">
							<g>
								<g id="a1_acton_3_Layer11_0_MEMBER_3_MEMBER_0_FILL_00000131344839407602796990000001937914355220517809_">
									<path class="st13" d="M-3581.5-562.8c12.5,5.2,14.1,17.9,12.2,34.6l-18.7,2.6l-2.9-22.2
										C-3586.1-554.4-3586.3-561.2-3581.5-562.8z"/>
								</g>
							</g>
						</g>
						<g transform="matrix( 0.9995880126953125, 0.0284576416015625, -0.0284576416015625, 0.9995880126953125, -8.95,-341.75) ">
							<g transform="matrix( 1, 0, 0, 1, 0,0) ">
								<g>
									<g id="Body_1la3dy_body_0_Layer2_0_FILL_00000150084913489804837250000017603981805270095517_">
										
											<linearGradient id="SVGID_00000045615641575729484500000017661544270136337560_" gradientUnits="userSpaceOnUse" x1="-4045.8452" y1="383.697" x2="-3979.4709" y2="347.3595" gradientTransform="matrix(-1.3173 3.750317e-02 -3.750317e-02 -1.3173 -8902.1064 517.8324)">
											<stop  offset="5.490200e-02" style="stop-color:#DA776A"/>
											<stop  offset="0.4078" style="stop-color:#EB9A90"/>
											<stop  offset="1" style="stop-color:#FA9A90"/>
										</linearGradient>
										<path style="fill:url(#SVGID_00000045615641575729484500000017661544270136337560_);" d="M-3633.3-107l-2.5,0.1
											c-0.1-2.2,0.4-4.2,1.4-6C-3634.5-110.9-3634.2-108.9-3633.3-107z"/>
										<path class="st7" d="M-3634.5-113c0.1-0.2,0.3-0.5,0.8-1.1c0.4-0.6,1.6-1.5,3.5-2.9c1.9-1.3,4.5-2.6,7.9-3.7
											c9.4-2,16.2-4.5,20.1-7.5c9.3,2.9,15.1,4.9,17.6,6l0,0c3.9,1,6.2,3,8.4,4.2c2.6,1.4,4.4,2.9,4.8,4.6
											c0.5,2.2,1.6,3.1,1.8,4.5l-63.8,1.8C-3634.2-108.9-3634.5-110.9-3634.5-113z"/>
										<path class="st15" d="M-3602.2-128.3C-3602.2-128.4-3602.2-128.4-3602.2-128.3c9.4,2.9,15.2,4.9,17.7,6l0,0
											c3.9,0.9,7,2.1,9.3,3.4c-2.3-1.2-5.4-2.3-9.3-3.2l0,0c-2.5-1.1-8.4-3.1-17.6-6c-4,3-10.7,5.5-20.1,7.5
											c-3.4,1.1-6,2.3-7.9,3.7c-1.9,1.3-3,2.3-3.5,2.9c-0.5,0.6-0.7,1-0.8,1.1c-1,1.8-1.5,3.8-1.4,6l-0.2,0
											c-0.1-2.4,0.5-4.6,1.7-6.6c0.7-1.1,1.7-2,3-2.8c2.2-1.7,5.2-3.2,9-4.5C-3612.9-122.9-3606.2-125.4-3602.2-128.3
											L-3602.2-128.3z"/>
									</g>
								</g>
							</g>
							<path class="st7" d="M-3621.1-118.9c1.9,0.9,4.4,3.3,7.7,7.2c3.3,3.9,8.7,5.1,16.2,3.5c7.5-1.5,12.2-3.6,14.2-6.1l0.1-0.1
								c0.9-1.1,1.4-2.4,1.5-3.9c0-0.2,0-0.3,0-0.5c0-1.1-0.4-2-1-2.7l0,0c-5.4-2-9-3.8-10.9-5.4c-0.1-0.1-0.1-0.3-0.2-0.4
								c-0.4-1-0.7-2.1-0.9-3.1c-0.1-0.3-0.1-0.6-0.1-0.8c0-0.2,0-0.4,0-0.6c0-0.2,0-0.3,0-0.5c0-0.1,0-0.1,0-0.2
								c0-1.4,0.2-2.7,0.6-4.1c0.3-4.3-0.8-7.2-3.3-8.7c-2.4-1.5-6.2-1.5-11.4-0.1c0,0,0,0-0.1,0c0,0,0,0,0,0c0.1,1.4,0.1,2.8,0,4.2
								c0,0.2,0,0.3-0.1,0.5c-0.1,0.9-0.2,1.6-0.3,2l0,0c-0.2,0.9-0.4,1.9-0.7,2.8c-0.3,0.9-0.6,1.8-1,2.8c-0.1,0.2-0.2,0.5-0.3,0.7
								c-0.3,0.5-0.5,1.1-0.8,1.6c-1,1.8-2.1,3.5-3.5,5.2l0,0c-1.2,1.4-2.8,2.5-4.6,3.5c-0.6,0.3-1.1,0.6-1.6,0.8
								c-1,0.4-1.7,0.6-2.1,0.8C-3623.8-120.2-3623-119.7-3621.1-118.9z"/>
							<g transform="matrix( 1, 0, 0, 1, 0,0) ">
								<g>
									<g id="Cloth_1ch_head_0_Layer3_0_MEMBER_0_FILL_00000160899312063501649530000012040768820241757101_">
										<path class="st16" d="M-3609.6-135.8c1,0.7,2.7,1.8,5.8,3.3c4,2,5.7,2.2,6.9,2.2c0.9,0,1.8,0,2.6-0.3
											c-0.1-0.3-0.1-0.6-0.1-0.8c0-0.2,0-0.4,0-0.6c0-0.2,0-0.3,0-0.5c0-0.1,0-0.1,0-0.2c0-1.4,0.2-2.7,0.6-4.1
											c0.3-4.3-0.8-7.2-3.3-8.7c-2.4-1.5-6.2-1.5-11.4-0.1c0,0,0,0-0.1,0c0,0,0,0,0,0c0.1,1.4,0.1,2.8,0,4.2
											c0,0.2,0,0.3-0.1,0.5c-0.1,0.9-0.2,1.6-0.3,2l0,0C-3609.1-137.7-3609.3-136.7-3609.6-135.8z"/>
									</g>
								</g>
							</g>
						</g>
						<g transform="matrix( 1.0998382568359375, 0.017730712890625, -0.017730712890625, 1.0998382568359375, -2.05,-472) ">
							<g transform="matrix( 1, 0, 0, 1, 0,0) ">
								<g>
									<g id="Cloth_1ch_head_0_Layer3_0_MEMBER_0_FILL_00000160161992596438730670000006448600703717534850_">
										<path class="st7" d="M-3294.5-85.8c3-4.5,7.5-7.2,13.6-8.3c5.5-1,10.2-0.2,13.9,2.4c0,0,0.1,0,0.1,0.1
											c0.3,0.2,0.7,0.4,1,0.7c0,0,0,0,0,0c4,3.2,6.1,6.8,6.4,11c0.3,4.1,0.3,7.3-0.1,9.5l0,0.2l-0.2,4.8
											c-0.1,1.4-0.3,3.4-0.7,6.2c-0.5,3.7-1.5,6.8-3,9.3l-2.5,4.1c-2.2,3.5-3.5,4.5-6.7,4.3c-1.1-0.1-2.7-0.2-6.3-2.1
											c-3.2-1.7-4.8-2.7-5.6-3.4c-4.1-3.4-5.5-8.4-6.1-11.2c-0.1,0.1-0.3,0.3-0.5,0.5c-0.8,0.5-1.7,0.3-1.8,0.2
											c-0.4-0.1-1-0.4-1.6-1.3c-2.8-4.3-3.3-12.8-3.3-12.8c-0.3-4.7,0.1-6.6,0.4-7.7c0.4-1.5,0.9-2.9,1.7-4.3
											C-3295.4-84.4-3295-85.1-3294.5-85.8z"/>
									</g>
								</g>
							</g>
							<g transform="matrix( 0.9879913330078125, 0, 0, 0.7599945068359375, -0.1,-13.1) ">
								<g>
									<g id="Cloth_1ch_head_0_Layer3_0_MEMBER_1_FILL_00000042697153890178743490000016316958347047393927_">
										
											<linearGradient id="SVGID_00000103984396506579480330000005199964213803353018_" gradientUnits="userSpaceOnUse" x1="-4629.6338" y1="486.3515" x2="-4628.2188" y2="486.3515" gradientTransform="matrix(-1.4318 3.695291e-02 -9.595884e-03 -1.1017 -8654.9199 575.5542)">
											<stop  offset="0" style="stop-color:#FF4145"/>
											<stop  offset="1" style="stop-color:#EE252A"/>
										</linearGradient>
										<path style="fill:url(#SVGID_00000103984396506579480330000005199964213803353018_);" d="M-3311.4-77.6
											c0-0.4,0.1-0.8,0.3-1.1c0.2-0.3,0.4-0.4,0.7-0.5c0.3,0,0.5,0.1,0.8,0.4c0.2,0.3,0.3,0.7,0.3,1.1c0,0.4-0.1,0.8-0.3,1.1
											c-0.2,0.3-0.4,0.5-0.7,0.5c-0.3,0-0.5-0.1-0.7-0.4C-3311.3-76.8-3311.4-77.2-3311.4-77.6z"/>
									</g>
								</g>
							</g>
							<g transform="matrix( 1, 0, 0, 1, 0,0) ">
								<g>
									<g id="Cloth_1ch_head_0_Layer0_0_FILL_00000149361896272388457420000007884956136780732835_">
										<path class="st18" d="M-3267.5-64.3c0.6,0.3,1.3,0.5,2,0.6c0.8,0.2,1.6,0.2,2.4,0.1c0.9-0.1,1.7-0.5,2.4-1.1
											c0.7-0.5,1.2-1,1.5-1.6c-0.1-0.3-0.5-0.6-1-0.9c-1.7-0.9-3.4-0.9-5.2,0.1C-3266.6-66.3-3267.3-65.4-3267.5-64.3
											 M-3281.4-63.5c0.7,0.3,1.4,0.5,2.2,0.7c0.2,0,0.4,0,0.6,0c0.9,0.1,1.8-0.1,2.7-0.4c0.7-0.2,1.4-0.5,2.1-0.8
											c-0.4-1-1.2-1.8-2.5-2.4c-1.1-0.4-2.1-0.5-3.2-0.4c-0.9,0.1-1.7,0.4-2.5,0.9c-0.6,0.3-0.9,0.7-1.1,1
											C-3282.8-64.4-3282.2-63.9-3281.4-63.5z"/>
									</g>
								</g>
							</g>
							<g transform="matrix( -0.7544708251953125, -0.016265869140625, -0.018157958984375, 0.8441314697265625, 11.15,-37.15) ">
								<g transform="matrix( 1, 0, 0, 1, 0,0) ">
									<g>
										<g id="ch3eye_ball__0_Layer0_0_FILL_00000052785943812478361780000007380555194527963068_">
											<path class="st19" d="M4358.7,48.4c0.7,0,1.3,0.4,1.9,0.9c0.5,0.6,0.7,1.3,0.6,2c-0.1,0.7-0.4,1.3-0.9,1.8
												c-0.6,0.5-1.3,0.7-2,0.7c-0.8-0.1-1.4-0.4-1.8-1c-0.5-0.5-0.7-1.2-0.7-1.9c0.1-0.8,0.4-1.4,1-1.9
												C4357.3,48.6,4358,48.3,4358.7,48.4z"/>
										</g>
									</g>
								</g>
								<g transform="matrix( 1.2004852294921875, 0, 0, 1.2004852294921875, -269.35,-88.45) ">
									<g>
										<g id="ch3eye_ball__0_Layer0_0_MEMBER_0_MEMBER_0_FILL_00000035511202129673868030000016963549802792657309_">
											<path d="M3854.7,115.1c0.3,0,0.6,0.1,0.8,0.4c0.2,0.3,0.3,0.5,0.2,0.9c0,0.3-0.1,0.6-0.4,0.8c-0.2,0.2-0.5,0.3-0.8,0.3
												c0,0-0.2,0-0.3-0.1c-0.3-0.1-0.5-0.4-0.5-0.5c0,0-0.1-0.3-0.1-0.6c0-0.3,0.2-0.6,0.4-0.8
												C3854.1,115.2,3854.4,115.1,3854.7,115.1z"/>
										</g>
									</g>
								</g>
								<g transform="matrix( 1.5006103515625, 0, 0, 1.5006103515625, -7.85,7.4) ">
									<g>
										<g id="ch3eye_ball__0_Layer0_0_MEMBER_0_MEMBER_1_FILL_00000003063185489319185920000004978751460902138256_">
											<path class="st18" d="M2909.6,28.8c-0.3-0.3,0.2-0.9,0.6-0.5C2910.6,28.6,2909.9,29.2,2909.6,28.8z"/>
										</g>
									</g>
								</g>
							</g>
							<g transform="matrix( -0.7393646240234375, -0.01593017578125, -0.017791748046875, 0.827239990234375, -13.95,-37.4) ">
								<g transform="matrix( 1, 0, 0, 1, 0,0) ">
									<g>
										<g id="ch3eye_ball__0_Layer0_0_FILL_00000001662204143202225990000018417697537763511719_">
											<path class="st19" d="M4393.6,47.7c0.7,0,1.3,0.4,1.7,0.9c0.4,0.6,0.6,1.3,0.6,2c-0.1,0.7-0.4,1.3-0.9,1.8
												c-0.6,0.5-1.2,0.7-1.9,0.7c-0.7,0-1.3-0.4-1.7-1c-0.5-0.5-0.7-1.2-0.6-1.9c0.1-0.8,0.4-1.4,0.9-1.9
												C4392.3,47.9,4392.9,47.7,4393.6,47.7z"/>
										</g>
									</g>
								</g>
								<g transform="matrix( 1.2004852294921875, 0, 0, 1.2004852294921875, -269.35,-88.45) ">
									<g>
										<g id="ch3eye_ball__0_Layer0_0_MEMBER_0_MEMBER_0_FILL_00000170999829415851719450000010921680572203126662_">
											<path d="M3884,114.6c0.3,0,0.5,0.1,0.7,0.4c0.2,0.2,0.2,0.5,0.2,0.8c0,0.3-0.1,0.6-0.3,0.8c-0.2,0.2-0.5,0.3-0.8,0.3
												c-0.3,0-0.5-0.2-0.7-0.4c-0.2-0.2-0.3-0.5-0.3-0.8c0-0.3,0.2-0.6,0.4-0.8C3883.5,114.7,3883.7,114.6,3884,114.6z"/>
										</g>
									</g>
								</g>
								<g transform="matrix( 1.5006103515625, 0, 0, 1.5006103515625, -7.85,7.4) ">
									<g>
										<g id="ch3eye_ball__0_Layer0_0_MEMBER_0_MEMBER_1_FILL_00000106141514616104497910000007703135340385744788_">
											<path class="st18" d="M2933.2,28.5c-0.3-0.3,0.2-0.9,0.6-0.5C2934.1,28.4,2933.5,28.9,2933.2,28.5z"/>
										</g>
									</g>
								</g>
							</g>
							<g transform="matrix( -0.7544708251953125, -0.016265869140625, -0.018157958984375, 0.8441314697265625, -0.95,-38.3) ">
								<g>
									<g id="Cloth_1ch_head_0_Layer0_0_MEMBER_2_FILL_00000118391432460206802960000000035196943153380491_">
										<path d="M4316.3,49.5c0.3,0.6,1.4,2.6,3.9,3.7c3.8,1.7,7.6-0.1,8-0.3c0.2,0,0.4,0.1,0.6,0.1c0,0,0.2,0,0.2-0.2
											c0.1-0.2-0.1-0.3-0.1-0.3c-1.8-3.4-5.1-5.3-7.8-4.8c-0.5,0.1-1.7,0.4-2.8,1.6C4317.6,49.4,4317,49.4,4316.3,49.5z
											 M4328.4,52.5c-3,1.1-9.3,1.7-9.9-2.1c0.8-2.5,5.4-2.4,7.4-0.4C4326.7,50.6,4327.6,51.5,4328.4,52.5z"/>
									</g>
								</g>
							</g>
							<g transform="matrix( -0.7544708251953125, -0.016265869140625, -0.018157958984375, 0.8441314697265625, -0.95,-38.3) ">
								<g>
									<g id="Cloth_1ch_head_0_Layer0_0_MEMBER_3_FILL_00000153698126254800755160000004971308670432704162_">
										<path d="M4336.6,53C4336.6,53,4336.6,53,4336.6,53C4336.6,53,4336.6,53.1,4336.6,53L4336.6,53l-0.1,0.1
											c-0.2,0.4,0.1,0.5,0.5,0.4c1,0.6,2.7,1.3,4.8,1.5c5.3,0.5,9.1-2.9,9.7-3.5c-0.7,0-1.3,0.1-2,0.1c-0.9-0.7-2.8-2-5.5-2.3
											c-0.8-0.1-2.1-0.2-3.6,0.3C4338,50.5,4336.9,52.4,4336.6,53z M4348.9,52.3c-2.9,3-8.2,2.7-11.8,0.8c0.9-2.3,4.7-3.5,7.3-3
											C4345.8,50.3,4348.1,51.1,4348.9,52.3z"/>
									</g>
								</g>
							</g>
							<g transform="matrix( -0.7544708251953125, -0.016265869140625, -0.018157958984375, 0.8441314697265625, -0.95,-38.3) ">
								<g>
									<g id="Cloth_1ch_head_0_Layer0_0_MEMBER_4_FILL_00000039125419016340044810000001173489815871162007_">
										<path d="M4321.1,42.9c-0.6,0-1.7,0-2.4,0.7c-0.6,0.6-0.7,1.3-0.8,1.3c-0.1,0,0-1.8,1.4-2.8c0.5-0.3,1.1-0.5,1.8-0.6
											c1.9-0.2,4.3,0.7,7.2,2.7c0,0.1,0,0.3,0,0.5c0,0.3-0.1,0.6-0.2,0.8C4327.4,45,4324,42.8,4321.1,42.9z"/>
									</g>
								</g>
							</g>
							<g transform="matrix( -0.7544708251953125, -0.016265869140625, -0.018157958984375, 0.8441314697265625, -0.95,-38.3) ">
								<g>
									<g id="Cloth_1ch_head_0_Layer0_0_MEMBER_5_FILL_00000176723153311678088660000014971903361333197206_">
										<path d="M4337.8,45.5c-0.1-0.1-0.2-0.4-0.2-0.8c0-0.2,0.1-0.4,0.1-0.5c4.4-1.5,7.9-2,10.2-1.6c2.4,0.4,4.2,1.4,5.6,3
											c-1.3-0.4-3-0.8-4.8-1.1C4344,44,4340.1,44.8,4337.8,45.5z"/>
									</g>
								</g>
							</g>
						</g>
						<g transform="matrix( 1.00958251953125, 0.0287322998046875, -0.0287322998046875, 1.00958251953125, -8.95,-341.85) ">
							<g transform="matrix( 1, 0, 0, 1, 0,0) ">
								<g transform="matrix( 1, 0, 0, 1, 0,0) ">
									<g>
										<g id="a1_acton_3_Layer1_0_MEMBER_0_FILL_00000130621619162488576260000011919570435154396849_">
											<path class="st7" d="M-3582.8-89l-0.4,3.2c-0.1,0.6-0.2,1.2-0.3,1.7c-0.1,0.8-0.5,2.8-1,6l-4.1,32.8l-0.4-0.3l0,0.2
												c-4.6-0.4-8-0.7-10.1-1c-0.7,1.9-0.9,1-0.7-2.9c-0.5-10.8-0.7-19.6-0.7-26.2c0-1.4,0-2.7,0-3.9c-0.1-7-0.2-11.9-0.5-14.9
												c-0.3-1.6-0.5-3.5-0.5-5.6c0.1-3.8,0.6-6.9,1.6-9.4c0,0,0,0,0,0.1C-3594-103.3-3588.3-96.5-3582.8-89z"/>
										</g>
									</g>
								</g>
								<g>
									<g id="a1_acton_3_Layer1_0_MEMBER_3_MEMBER_0_FILL_00000119801764443093056850000012966577874899646385_">
										<path class="st13" d="M-3601.9-91.4c-0.5-7.5,0.2-13.5,1.9-17.9c2.9,3,5.8,6.2,8.8,9.7c3.2,3.8,6.1,7.5,8.7,11
											c-0.5,2.6-1,5.2-1.5,7.8l-17.1-2.6C-3601.5-86.2-3601.7-88.9-3601.9-91.4z"/>
									</g>
								</g>
							</g>
							<g transform="matrix( 1, 0, 0, 1, 0,0) ">
								<g>
									<g id="Cloth_1lady11_top_0_Layer1_0_MEMBER_1_FILL_00000158715037651727251180000002369975009751938471_">
										<path class="st13" d="M-3591.9-119.4c0.7,8.9,2,16,3,20.9c1.9,9.2,4.1,15.7,5.7,27.7c0.4,3.1,0.6,5.7,0.8,7.4
											c-1.4,6.2-2.7,12.3-4.1,18.5c0.1,0.2,0.3,0.9,0.8,1.6c6.2,8,41.7,1.4,52.5-19.6c2.3-4.4,3.8-10.9,4.5-24.1
											c0.7-12.5-1.5-17.8-2.2-19.2c-3.1-7-8.2-11.1-11.3-13.3c-0.7-0.3-15-6.5-15.8-6.9c-0.1,0.4,1.2,2.2,3,4.2
											c2.3,5,10.8,12.9-0.7,14.1c-12,3.9-21.7-6.7-22.2-18.5C-3582.6-124.1-3587.2-121.8-3591.9-119.4z M-3548.9-92.4
											C-3548.9-92.5-3548.9-92.5-3548.9-92.4C-3548.9-92.5-3548.9-92.5-3548.9-92.4L-3548.9-92.4z"/>
										<path class="st20" d="M-3548.9-92.5C-3548.9-92.5-3548.9-92.5-3548.9-92.5L-3548.9-92.5
											C-3548.9-92.5-3548.9-92.5-3548.9-92.5z"/>
										<path class="st21" d="M-3577.8-126.7L-3577.8-126.7c0,0,0-0.1,0-0.2C-3577.8-126.8-3577.8-126.8-3577.8-126.7z"/>
									</g>
								</g>
							</g>
							<g transform="matrix( 1, 0, 0, 1, 0,0) ">
								<g>
									<g id="Cloth_1lady11_top_0_Layer1_1_FILL_00000070076578439455402690000001434728377336024481_">
										<path class="st13" d="M-3591.8,102.4c-0.1,15,1.1,28.4,2.9,39.8c1.7,1.6,4.5,3.7,8.2,5.1c9.6,3.4,18.2-0.9,20.1-1.9
											c2,1.2,7.8,4.4,15.6,3.6c6-0.6,10.2-3.2,12.1-4.5c1.5,0.7,8.9,3.7,17,0.4c4.5-1.9,7.3-5,8.6-6.7
											c-1.7-19.8-4.3-40.8-8.1-62.9c-2.1-12-4.3-23.6-6.8-34.7c-0.5-13.1-1.5-24.4-2.5-33.2c0,0-3.4-29.5-8.7-44.7
											c0,0-0.2-0.5-0.4-1.2c0-0.1,0-0.1,0-0.2c-0.6,0.1-1.2,0.3-1.8,0.4c-4.3,0.9-8.9,1.5-13.9,1.8c-0.1,0-0.2-0.1-0.3-0.1
											c-0.7-0.2-1.3-0.2-1.8,0.1c-0.1,0.1-0.1,0.1-0.2,0.2c-0.7-0.4-1.3-0.4-1.9,0c0,0,0,0.1-0.1,0.1c-0.6-0.4-1.2-0.4-1.7,0
											c0,0-0.1,0-0.1-0.1c-0.1,0-0.1,0-0.2,0c-0.4-0.1-0.9,0.1-1.4,0.5c-0.1-0.1-0.1-0.1-0.1-0.2c-0.4-0.3-0.7-0.2-1.1,0.1
											c-0.1-0.1-0.2-0.2-0.3-0.2c-0.2-0.1-0.4,0-0.6,0c-0.2,0.1-0.4,0.2-0.6,0.3c-0.2,0-0.3,0-0.5,0c-0.6,0-1.2,0-1.8,0.1
											c-0.2,0-0.4,0-0.7,0l-0.3,0c-12.6,0-19.8-3-21.7-9c0,0,0,0,0-0.1c0,0,0-0.1,0-0.1c-0.1-0.5-1.3-0.5-1.5-0.6
											c-1.5,8.3-2.8,17.2-3.7,26.7c-2.6,28.9-0.6,54.5,2.9,75.5C-3589.7,69.4-3591.7,84.9-3591.8,102.4z"/>
									</g>
								</g>
							</g>
							<g transform="matrix( 1, 0, 0, 1, 0,0) ">
								<g>
									<g id="Cloth_1lady11_top_0_Layer1_1_MEMBER_6_FILL_00000057128079858293722170000005265629706105189306_">
										<path class="st22" d="M-3586.5-45.1c0.8-3.4,1.5-6.7,2.3-10.1c3.5,2.8,13.7,10.2,28.6,10.7c10.3,0.3,18.2-2.8,22.3-4.7
											c-0.4,4.5-0.8,9-1.2,13.5c-3.8,2.1-13.4,6.8-25.7,5.4c-3.9-0.4-12.7-1.5-20.5-8.2C-3583.5-40.9-3585.3-43.3-3586.5-45.1z"
											/>
									</g>
								</g>
							</g>
							<g transform="matrix( 1, 0, 0, 1, 0,0) ">
								<g>
									<g id="Cloth_1lady11_top_0_Layer1_2_FILL_00000099649886130000348930000013332746610284034999_">
										<path class="st4" d="M-3591.8-121.1c0.7-0.3,1.5-0.6,2.2-0.9c19.4,20,38.9,40,58.3,60c0.6-1.8,1.1-4,1.4-6.6
											c0.3-2.3,0.3-4.4,0.2-6.1c-3-6.9-7.9-16.1-16.1-25.3c-13.5-15.2-28.7-22.4-37.4-25.7
											C-3586.7-123.9-3589.6-122.4-3591.8-121.1z"/>
										<path class="st4" d="M-3580.4-79.7c5.4,13,11.1,26.2,17.2,39.6c13.4,29.2,27.3,56.4,41.4,81.5c-0.4-7.3-0.8-14.6-1.2-21.9
											c-3.9-6.7-9.6-17.2-15.7-30.5c-16.7-36.1-18-53.8-34.5-81c-4.3-7.2-11-17-20.6-27.9c-3.7,2.1-7.3,4.1-11,6.2
											c4.2,3.6,9.5,8.7,14.5,15.7C-3585.5-91.2-3582.4-84.8-3580.4-79.7z"/>
										<path class="st5" d="M-3579.4-101.5L-3579.4-101.5c15.5,18.7,16.6,34.7,36.4,80.8c4.1,9.6,10.7,23.9,20.1,40.9
											c-0.6-6.4-1.2-13-2-19.7c-2.2-18.7-5.2-36.3-8.6-52.9c0.8-3.2,1.6-6.4,2.3-9.5c-0.6-1.9-1.3-3.7-2.1-5.6
											c-11.6-28.1-36.1-45-56.2-54.8c-0.5,0.3-1,0.5-1.5,0.8c-1.3,0.7-2.5,1.5-3.6,2.2C-3590.1-113.9-3585-107.9-3579.4-101.5z"
											/>
									</g>
								</g>
							</g>
							<g transform="matrix( 1, 0, 0, 1, 0,0) ">
								<g>
									<g id="Cloth_1lady11_top_0_Layer1_2_MEMBER_0_FILL_00000022545947036625545040000017884281062878753417_">
										<path class="st23" d="M-3558-71l0.2,0.2c0,0,0,0-0.1,0L-3558-71z"/>
									</g>
								</g>
							</g>
						</g>
						<path class="st7" d="M-3642-491.8l0.9-0.5c0,0,0,0,0,0c0.3-0.2,0.9-0.3,1.7-0.3c1.8,0,4.6,0.4,8.4,1.3v0.3l0.3,0.1
							c0.3,3,0.5,5.2,0.6,6.6c0.2,1.5,0.2,3,0.3,4.7c0,1.6,0,3.5-0.1,5.6c-0.1,2.1-0.1,4.2-0.1,6.3c0,2,0,4.1,0,6.2
							c0.1,1.9,0.2,3.8,0.5,5.7c0.2,1,0.4,1.9,0.7,2.8c0.2,0.7,0.4,1.4,0.4,2.1l0,0l0.6,2.4c0.3,0.9,0.6,1.6,0.9,2.1
							c0.5,1,1.1,1.9,1.7,2.7l0.2,0.2c0,0,0,0,0,0.1c0,0,0,0,0,0l3.1,4.4l0.1,0.1c0,0,0,0,0,0c0,0.1,0,0.1,0,0.1c0,0,0,0,0,0
							c0,0,0,0.1,0,0.1l0.1,0.2l1.1,2.4c0,0,0,0,0,0c0.2,0.5,0.4,0.9,0.5,1.3c0.1,0.3,0.2,0.7,0.3,1l0.1,0.2
							c0.1,0.3,0.2,0.5,0.3,0.7c0.1,0.3,0.2,0.5,0.3,0.8c0,0.2,0.1,0.3,0.2,0.5l0.1,0.2l0,0.1c0,0,0,0.1,0,0.1l0.1,0.5
							c0.4,1,1,2.2,1.6,3.5c0,0,0,0,0,0l0,0.1c0,0.1-0.1,0.2-0.2,0.2c-0.2,0.1-0.5,0-1-0.3c0,0-0.1,0-0.1,0c-0.1,0-0.2-0.1-0.2-0.2
							c-0.8-0.5-1.5-1.4-2.1-2.8c-0.1-0.3-0.2-0.5-0.3-0.7c-0.1-0.1-0.1-0.2-0.2-0.3c-0.9-2-1.8-3.2-2.5-3.6
							c0.3,0.9,0.5,1.9,0.6,2.9l0.1,0.3v0l0.5,2.2c0.3,1,0.5,1.9,0.7,2.9c0.1,0.2,0.1,0.4,0.1,0.6c0.5,2.8,0.6,4.5,0.3,5.1
							c0,0.1-0.1,0.1-0.2,0.2c0,0,0,0.1,0,0.1c0,0,0,0-0.1,0c0,0,0,0-0.1,0c0,0,0,0,0,0c-0.1,0-0.3-0.2-1.3-3
							c-0.2-0.6-0.5-1.2-0.7-1.9c0-0.2-0.1-0.4-0.2-0.6c-0.2-0.6-0.5-1.3-0.7-2.1c0,0,0,0,0,0c0-0.1,0-0.1,0-0.2c0,0.1,0,0.2,0,0.2
							c0,0,0,0,0,0c0,0,0,0,0,0v0c0,0,0,0,0,0v0c0,0,0,0,0,0v0c0,0,0,0,0,0v0v0c0,0,0,0,0,0v0c0.2,1.1,0.3,2.1,0.4,3.1
							c0.1,0.2,0.1,0.5,0.1,0.7c0.1,0.6,0.2,1.3,0.2,1.9c0.1,0.5,0.1,1,0.1,1.6c0,0.5-0.1,0.9-0.4,1.1c0,0-0.1,0.1-0.1,0.1
							c0,0-0.1,0-0.1,0c0,0,0,0-0.1,0h-0.3c0,0,0,0,0,0c-0.3-0.8-0.5-1.6-0.7-2.3c0-0.2-0.1-0.4-0.2-0.6c0,0.2,0,0.3,0.1,0.4v0
							c0,0.3,0,0.6-0.1,0.8c0,0,0,0,0,0.1c0,0,0,0.1-0.1,0.1c0,0,0,0,0,0h-0.1c0,0,0,0,0,0c-0.4-0.2-0.8-0.8-1.4-1.8
							c-0.1-0.2-0.2-0.3-0.3-0.5c0,0,0,0,0,0c0-0.1-0.1-0.2-0.1-0.2c0,0,0,0,0,0c0,0,0,0.1,0,0.1c0,0,0,0,0,0l-0.1,0.1
							c0,0.2,0,0.4,0,0.5c0,0.1,0,0.1-0.1,0.1c0,0,0,0,0,0c0,0,0,0,0,0l-0.1-0.1c-0.4-0.6-0.9-1.1-1.3-1.6c-1.6-2.3-2.8-4.6-3.5-7
							c-0.3-1-0.6-1.8-0.8-2.5l-0.4-1.2c-0.1-0.4-0.2-0.7-0.2-0.8l0-0.1c0,0,0,0,0,0c0-0.1,0-0.2,0-0.2l-0.1-0.2l-0.4-5.2
							c0,0,0,0,0,0c0,0,0,0,0,0c0-2.6-0.3-4.9-0.8-7c-0.6-1.6-1.4-3.7-2.4-6.2c-1.7-4.3-3.2-10.6-4.6-19l-0.3-1.6
							C-3642.5-482.9-3642.5-488.3-3642-491.8z"/>
						<g transform="matrix( -0.8372955322265625, -0.6854705810546875, 0.6887054443359375, -0.8151092529296875, 45.65,-272.1) ">
							<g>
								<g id="a1_acton_3_Layer1_0_MEMBER_2_MEMBER_0_FILL_00000100353240138008175910000005651037072484936070_">
									<path class="st24" d="M2677.8-2068.3c-0.4-0.3-0.7-0.6-0.9-0.9c0.1-0.3,0.2-0.4,0.4-0.4c0.2,0.1,0.6,0.4,1.3,1
										C2678.5-2068,2678.2-2067.9,2677.8-2068.3z"/>
								</g>
							</g>
						</g>
						<g transform="matrix( -0.845703125, -0.67535400390625, 0.678314208984375, -0.8234710693359375, 49.7,-270.4) ">
							<g>
								<g id="a1_acton_3_Layer1_0_MEMBER_2_MEMBER_1_FILL_00000090277132403841111550000007566518389558895534_">
									<path class="st24" d="M2708.4-2038.9c-0.4-0.3-0.7-0.6-0.9-0.9c0.1-0.3,0.3-0.4,0.4-0.4c0.2,0.1,0.6,0.4,1.3,1
										C2709.1-2038.6,2708.8-2038.5,2708.4-2038.9z"/>
								</g>
							</g>
						</g>
						<g transform="matrix( -0.661712646484375, -0.8506622314453125, 0.8587799072265625, -0.64080810546875, 61.65,-268.5) ">
							<g>
								<g id="a1_acton_3_Layer1_0_MEMBER_2_MEMBER_2_FILL_00000114757172064896424550000018303355245338273164_">
									<path class="st24" d="M2160.9-2628.6c-0.5-0.1-0.9-0.2-1.2-0.4c0-0.3,0-0.5,0.2-0.5c0.2,0,0.7,0.1,1.6,0.3
										C2161.6-2628.7,2161.4-2628.5,2160.9-2628.6z"/>
								</g>
							</g>
						</g>
						<g transform="matrix( -0.4580841064453125, -0.58892822265625, 0.8587799072265625, -0.64080810546875, 67.5,-267.45) ">
							<g>
								<g id="a1_acton_3_Layer1_0_MEMBER_2_MEMBER_3_FILL_00000071525908268472276190000010978295368058147211_">
									<path class="st24" d="M3130.4-2633c-0.7,0-1.2-0.1-1.6-0.2c0-0.2,0.1-0.4,0.4-0.4c0.2,0,1,0,2.2,0.1
										C3131.4-2633.1,3131.1-2633,3130.4-2633z"/>
								</g>
							</g>
						</g>
						<g transform="matrix( -0.2173309326171875, -1.14288330078125, 1.005157470703125, -0.174072265625, 46.9,-264.05) ">
							<g>
								<g id="a1_acton_3_Layer1_0_MEMBER_2_MEMBER_4_FILL_00000092447179943215121420000006047279206593304229_">
									<path class="st24" d="M677-3499.8c0.5,0.3,0.5,0.6,0.1,0.7c-0.5,0.1-1.1,0.3-1.8,0.6c0.1-0.3,0.1-0.6,0.3-0.7
										C675.6-3499.3,676.1-3499.5,677-3499.8z"/>
								</g>
							</g>
						</g>
						<g transform="matrix( 1.0998382568359375, 0.017730712890625, -0.017730712890625, 1.0998382568359375, -2.05,-472) ">
							<path d="M-3305-57c0.1,0.8,0.3,1.9,1,3.1c1.3,2,3.4,2.6,4.3,2.9c-0.9-0.9-2.5-2.6-2.4-4.8c0.1-3.4,4.2-5.5,6.2-6.7
								c1.6-0.9,3.1-1.4,4.2-1.6c0,0-0.1,0.1-0.1,0.1c5.1-1.6,8.3-6.1,11-10.6l0,0c0.2-0.3,1.1-2.2,1.2-2.5c1.4-4.5,4.7-9.4,9.8-9.5
								l-0.4-11.5c-0.1,0-0.1,0-0.2,0c0-0.1-0.1-0.1-0.1-0.2c0,0,0-0.1-0.1-0.1c-7.3-3.2-14.7-1.2-20.5,3.2
								c-7.9,5.9-10.4,14.9-11,17.3c-0.9,3.9-0.1,4.3-1.4,9.3C-3304.1-65.4-3305.5-61.4-3305-57z"/>
							<path d="M-3252.1-74.8c-0.1-1.2-0.2-2.4-0.4-3.5c-0.4-2.8-1.1-5.3-1.9-7.5c-0.7-1.8-1.5-3.5-2.5-5c-1.1-1.6-2.3-3.1-3.6-4.3
								c-1.8-1.6-3.6-2.6-5.5-3.1c-1.1-0.3-2.1-0.3-3.2-0.2l-0.1,0c-0.2,0-0.4,0.1-0.6,0.1c0,0-0.1,0-0.1,0l0.4,11.5l0,0
								c0.3,0,0.5,0,0.8,0.1c0.1,0,0.2,0,0.4,0c0.2,0,0.4,0,0.6,0.1c0.6,0.2,1.3,0.5,1.9,1c1.3,1.1,2.5,2.5,3.4,4.1
								c0.9,1.5,1.6,3.2,2,5c0.4,1.8,0.7,3.2,0.8,4.3c0.1,1.1,0.1,2.3,0,3.8l-0.1,3.1c-0.1,1.3-0.3,3.2-0.7,5.9c0,0.1,0,0.3-0.1,0.4
								c-0.5,3.3-1.4,6.1-2.8,8.3l-2.6,4.8l0.1,2.5c0.3,0.9,0.7,1.6,1.2,2.4c0.1-0.2,0.2-0.4,0.3-0.7c0.6-1.1,1.3-2.3,2.2-3.6
								c0.4-0.5,0.7-1,1.1-1.5c0.8-1.1,1.5-1.9,1.9-2.4c-0.9,2.1-1.1,3.9-1.2,5.2c-0.1,2.1,0.2,5,0.2,5c0,0,0,0.2,0,0.2
								c0,0,0.7-4,1.8-7.3c1-3.3,2-4.5,3.1-7.2c1-2.3,2.3-5.7,2.9-10.3c0.1-0.6,0.2-1.2,0.2-1.9
								C-3251.8-68.4-3251.8-71.5-3252.1-74.8z"/>
						</g>
						<path class="st4" d="M-3587.2-303.4c3.2,0.8,9.6,1.9,17.3,0.2c7.4-1.7,12.5-5.2,15.1-7.2c1.3,5.8,2.6,11.7,3.8,17.5
							c-2.2,1.9-5.7,4.3-10.3,6.3c-4.9,2-9,2.7-10.8,2.9c-6.2,0.7-11.3-0.1-14.5-1c-3.7,1.5-11.4,4.1-21.1,3.1
							c-7.8-0.8-13.7-3.5-17-5.4c-1.3,0.2-4.8,0.6-8.6-1.3c-4.9-2.5-6.7-7-7-8.1c0.7-4.5,1.5-9,2.2-13.5c1.2,1.3,3.3,3,6.1,4.3
							c5.2,2.3,9.9,1.7,11.9,1.3c2.7,1.6,8.8,4.7,17.2,4.8C-3595.4-299.6-3589.9-302-3587.2-303.4z"/>
					</g>
				</g>
				<g transform="matrix( 1, 0, 0, 1, 0,0) ">
					<g>
						<g id="Layer5_48_MEMBER_2_FILL_00000011711303752745995490000010192602532355828895_">
							<path class="st25" d="M192.2,403.2c4.3-0.1,5.9-0.5,6-0.1c0.2,0.6-2.6,2.4-5.8,2.6c-3.8,0.3-7.3-1.7-7.1-2.4
								C185.4,403,187.1,403.4,192.2,403.2z"/>
						</g>
					</g>
				</g>
				<g transform="matrix( 0.3377532958984375, 0, 0, 0.3377532958984375, 3216.95,368.4) ">
					<g>
						<g id="Layer4_0_MEMBER_8_FILL_00000055688353333219136370000001027786689444742528_">
							<path class="st16" d="M-8950.9,87.3c-0.5,0.2-2.2,0.7-4.3,0.3c-4.2-0.7-7.3-4.1-7-4.7c0.3-0.6,3.4,2,8.4,1.9
								c4.5-0.1,7.2-2.1,7.6-1.5C-8945.8,83.9-8948,86.3-8950.9,87.3z"/>
						</g>
					</g>
				</g>
				<g>
					<path class="st26" d="M160.9,396c0,0.6,0.2,1,0.4,1.3c0.5,0.6,1.4,0.5,1.8-0.2c0.2-0.3,0.3-0.7,0.3-1.1c0-0.1,0-0.2,0-0.3
						c-0.2-1.2-0.6-2.4-1.2-3.5c0,0,0,0,0,0c-0.6,1.1-1,2.3-1.2,3.4C161,395.7,160.9,395.8,160.9,396z"/>
					<path class="st27" d="M160.3,396.8c0,1.6,0.6,2.5,1.9,2.5c1.6,0,2.2-1.3,1.8-3.9c0-0.1-0.1-0.3-0.1-0.4
						c-0.4-1.6-0.9-3.1-1.7-4.4c-0.7,1.2-1.2,2.6-1.6,4c-0.1,0.3-0.1,0.5-0.2,0.8C160.3,395.9,160.3,396.4,160.3,396.8z M160.9,396
						c0-0.1,0-0.3,0.1-0.4c0.2-1.1,0.6-2.3,1.2-3.4c0,0,0,0,0,0v-0.2l0,0.2c0.6,1.2,1,2.3,1.2,3.5c0,0.1,0,0.2,0,0.3
						c0,0.2,0,0.7-0.3,1.1c0,0,0,0,0,0c-0.5,0.7-1.4,0.7-1.9,0C161,396.8,160.9,396.5,160.9,396z"/>
				</g>
			</g>
			<path d="M152.1,407c1.3,2.8,3,7,4.5,12.2c4.1,14.1,1.8,19.6,3.3,32.2c2,17.1,7.6,18.3,13.7,44.9c1.6,6.9,2.5,12.6,3,16.1
				c2.8-7.6,5.3-18,3.3-29.7c-1.5-8.8-4.9-16.1-4.8-15.8c2.3,4.7,4.6,10.5,6.2,17.1c0.5,2.2,0.9,4.3,1.2,6.3
				c1-7.2,1.5-15.8,0.7-25.4c-1.6-20.7-8.1-36.9-13.4-47.3C163.9,414.1,158,410.5,152.1,407z"/>
		</g>
	</g>
	
		<rect x="470.4" y="0.8" style="clip-path:url(#SVGID_00000161605979408622601830000016431159920595992739_);fill:#A5A4A4;" width="14" height="824.9"/>
	
		<rect x="364.6" y="0.8" style="clip-path:url(#SVGID_00000161605979408622601830000016431159920595992739_);fill:#A5A4A4;" width="14" height="824.9"/>
	<g style="clip-path:url(#SVGID_00000161605979408622601830000016431159920595992739_);">
		<path class="st29" d="M217,540.6c0,0,6.6,0.7,11-5.1c-1.5,5.9-3.7,7.3-3.7,7.3s30.8-5.9,20.5-38.9l2.9-27.1
			c-0.9-0.9-1.8-1.8-2.7-2.5c-17.4-15.1-34.3-0.8-25.9,20.1c1.1,2.7,1.8,5.4,2.4,8.1c0,0,0,0,0,0C225.5,521.9,217,540.6,217,540.6z"
			/>
		<path class="st30" d="M268.6,877.5c10.1,2.2,27.2,5,27.7,1c-1-5.2-11.4-9.8-16.2-11.7c-1.4-0.6-2.4-0.9-2.4-0.9l1.6-12.1
			l-12.4-0.1l-0.3,16.9l0,0.5l-0.1,3.8C266.5,876.1,267.4,877.2,268.6,877.5z"/>
		<path class="st31" d="M268.3,877.4c5.2,1.2,7.9,1.8,19.6,3.4c1.6,0.2,4,0.6,6.9-0.2c0.8-0.2,1.5-0.5,2.1-0.8
			c1.2-0.6,1.4-2.2,0.5-3.2c-1.6-1.5-3.5-3.2-5.9-4.7c-5.2-3.5-10.2-5.2-13.7-6c-0.3,0.4-2,2.7-5.2,3.3c-3.1,0.5-5.4-1-5.8-1.3
			l-0.2,7.4C266.5,876.2,267.3,877.2,268.3,877.4z"/>
		<path class="st30" d="M178.7,844.7c6.8,7.8,18.7,20.1,21.4,17.2c2.2-4.8-3.3-14.7-6-19.1c-0.8-1.3-1.4-2.1-1.4-2.1l8.6-8.8
			l-9.9-7.5l-10.3,13.3l-0.3,0.4l-2.2,2.9C177.8,842.2,177.8,843.7,178.7,844.7z"/>
		<path class="st32" d="M257.6,777.5l0.4,5l5.6,78.4h18.9c11.6-38.5,15.8-70,17.4-92.3c2.1-29.2,1.7-70.8,2.1-104.3
			c0-1.5,0.1-6.6,0-13.3c0-4.2,0-6.5,0-6.5h-38.3l-0.3,7l-0.7,15.3l-3,66.5l-1.8,40.3L257.6,777.5z"/>
		<path class="st32" d="M183.8,829.3l14.6,10.9c10.7-8.7,25.1-21.8,39.9-39.7c11.5-13.8,17.2-20.8,22.4-31c20.3-40,15-91.2,17-109.3
			c0.4-3.5,0.7-6.5,1-9c0.3-3.2,0.6-5.6,0.7-6.8c0.1-0.6,0.1-1,0.1-1l-37.7-9.9c0,0-4.1,4.9-7.7,18.3c-0.3,1-2.4,8.3-3.3,16.9
			c-2.5,24.8,5.7,57.4,1.7,83.1C232.6,751.8,230.9,762.9,183.8,829.3z"/>
		<g>
			<path class="st33" d="M300.1,654.2c-4.1,0.3-8.2,0.5-12.3,0.8c-1.8-6.8-3.5-13.9-5.1-21.3c-1.5-6.9-2.7-13.6-3.8-20
				c4.5-0.6,9-1.2,13.5-1.8c1.5,6.7,2.8,13.7,4.2,20.8C297.8,640,299,647.2,300.1,654.2z"/>
			<path class="st34" d="M258.8,622.5c11,20,24.8,31.8,34.7,29.1c1.7-0.5,3.6-1.4,5.5-3.4c-3.7-25.8-6.2-44.7-7.8-56.9
				c-1.8-13.8-4.1-32.5-16.1-41.8c-4.1-3.2-7.1-3.4-9-3.2c-5.5,0.7-10.5,7.7-11.3,17.2c0.4,9.7,0.9,19.7,1.6,29.8
				C257.1,603.4,257.9,613.1,258.8,622.5z"/>
		</g>
		<path class="st35" d="M236.2,631.2c-3.4-13.8-6.5-24.7-8.8-32.2c-6-19.8-4.4-30.1-5.5-43.1c-0.2-2.9,1.3-5.6,3.9-6.9l22.4-10.3
			h17.8c1.6,1.1,3.6,2.5,5.8,4.3c0,0,0,0,0,0c0,0,3.7,3.2,6.8,6.7c2.4,2.7,9.1,34.1,8.6,78.3"/>
		<path class="st35" d="M334.5,760.7c-15.2,4.1-43.1,9.5-76.8,2.7c-21.9-4.4-38.9-12.5-50.4-19.2c-2.1-22,1.7-37.8,5.8-48.5
			c6-15.7,16.3-29.6,21.8-56.8c0.6-3.2,1.1-5.9,1.3-7.7c3.3-0.2,22.2-1.4,25.5-1.7c8.5-0.6,17-1.1,25.5-1.7
			c2.8,5.7,5.6,11.7,8.3,17.9c3.9,9,7.2,17.7,10.1,25.9c3.4,10.3,6.9,20.6,10.3,31C322.3,722.3,328.5,741.6,334.5,760.7z"/>
		<path class="st31" d="M178.4,844.4c3.5,4,5.3,6.1,13.7,14.4c1.2,1.2,2.9,2.9,5.7,3.9c0.8,0.3,1.5,0.5,2.2,0.6
			c1.3,0.2,2.5-0.9,2.2-2.3c-0.4-2.2-1-4.6-1.9-7.3c-2.1-5.9-5.1-10.2-7.5-13c-0.5,0.2-3.2,1-6.1-0.4c-2.8-1.4-3.7-4-3.9-4.5
			l-4.5,5.8C177.7,842.4,177.7,843.6,178.4,844.4z"/>
		<g>
			<g>
				<path class="st36" d="M284.1,686.7c13.4-6.7,17.3-18.2,17.3-18.2l-1.3-3l-1.3-3c0,0-11-5-25.1,0.2c-14.1,5.2-6.9,17.3-6.9,17.3
					S270.7,693.5,284.1,686.7z"/>
				<path class="st37" d="M282,682.9c9.5-4.3,19.3-14.6,19.3-14.6l-1.2-2.7l-1.2-2.7c0,0-14.2,0.1-23.8,4.1c-7.2,3-9.7,7.3-7.3,12.7
					C270.1,685,274.9,686.1,282,682.9z"/>
				<g>
					<g>
						<path class="st36" d="M298.5,661.8c0.4,1.4-1.2,1-2.6,0.5c-10.2-3.1-18.2-3-19.6-2.8c-3.2,0.5-6.7,2.1-7.9-1.8
							c-1.4-4.7,6.6-5.8,13.4-4.4C288.1,654.8,297.7,659.1,298.5,661.8z"/>
					</g>
					<g>
						<path class="st36" d="M301.7,669.2c-0.7-1.2-1.5,0.2-2.2,1.6c-4.7,9.6-10.2,15.3-11.4,16.2c-2.6,2-6.1,3.4-4,7
							c2.5,4.3,8.8-0.9,12.4-6.9C299.8,681.6,303.2,671.7,301.7,669.2z"/>
					</g>
				</g>
				<path class="st36" d="M269.8,674c-3,1.8-5.2,1.7-6.9,0.1c-2.2-2.1-1.3-5.9,0.5-8.9c2.8-4.7,9.5-4.7,11.7-0.8
					C277.1,668,272.9,672.2,269.8,674z"/>
				<path class="st37" d="M269.5,672.1c-1.4,1.6-3.7,2-5.2,0.7c-1.5-1.2-1.6-3.6-0.2-5.2c1.4-1.6,3.7-2,5.2-0.7
					C270.8,668.1,270.9,670.5,269.5,672.1z"/>
				<path class="st37" d="M274,667.3c-0.8,0.9-2,1.1-2.7,0.5c-0.7-0.6-0.7-1.8,0-2.7c0.8-0.9,2-1.1,2.7-0.5
					C274.8,665.2,274.8,666.4,274,667.3z"/>
				<path class="st37" d="M271.1,664.9c-0.5,0.8-1.4,1.1-2.1,0.7c-0.7-0.4-0.8-1.4-0.3-2.2c0.5-0.8,1.4-1.1,2.1-0.7
					C271.4,663.1,271.6,664.1,271.1,664.9z"/>
				<path class="st37" d="M267.8,664.6c-0.3,0.7-1,1.2-1.6,0.9c-0.6-0.2-0.9-1-0.6-1.8c0.3-0.7,1-1.2,1.6-0.9
					C267.8,663.1,268.1,663.9,267.8,664.6z"/>
				<path class="st36" d="M273.5,682.3c-3.3,1-4.8,2.6-4.8,5c0.1,3.1,3.4,5,6.8,5.8c5.3,1.2,10-3.7,8.5-8.1
					C282.8,681.1,276.9,681.3,273.5,682.3z"/>
				<path class="st37" d="M274.6,683.9c-2.1-0.1-3.9,1.4-4,3.3c-0.1,1.9,1.5,3.6,3.7,3.7c2.1,0.1,3.9-1.4,4-3.3
					C278.4,685.6,276.7,684,274.6,683.9z"/>
				<path class="st37" d="M281.2,683.9c-1.2-0.1-2.2,0.7-2.2,1.6c-0.1,1,0.9,1.8,2,1.8c1.2,0.1,2.2-0.7,2.2-1.6
					C283.3,684.7,282.4,683.9,281.2,683.9z"/>
				<path class="st37" d="M280.9,687.6c-0.9-0.2-1.8,0.3-2,1c-0.2,0.8,0.5,1.5,1.4,1.7c0.9,0.2,1.8-0.3,2-1
					C282.5,688.5,281.8,687.8,280.9,687.6z"/>
				<path class="st37" d="M278.9,690.2c-0.7-0.3-1.5-0.1-1.8,0.5c-0.3,0.6,0.1,1.3,0.9,1.6c0.7,0.3,1.5,0.1,1.8-0.5
					C280,691.3,279.6,690.5,278.9,690.2z"/>
			</g>
			<g>
				<path class="st36" d="M320.7,673.8c2.4-3.4,3.4-6,3.2-10.2c-0.5-9.1-6.3-18.8-17.9-21.4c-5-1-7.9,0.8-10.3,6.4
					c-2.5,5.8-4.6,12.1-2.1,17.9c2.1,4.8,8.2,9.4,13.5,10.9C315.1,679.7,317.6,678,320.7,673.8z"/>
				<path class="st37" d="M323.9,663.6c-0.3-6.6-3.4-13.4-9.4-17.7c-1.9,3.1-4.8,7.5-7,9.8c-4.8,5-12.2,6.7-11,9.4
					c1.2,2.7,10.2-1.4,14.2-1.4c4.9-0.1,10.3,0.9,13.2,1.6C323.9,664.7,323.9,664.2,323.9,663.6z"/>
				<g>
					<g>
						<path class="st38" d="M300.2,657.2c-1.3,0.6-2.7,0-3.3-1.3c-0.6-1.3,0-2.7,1.3-3.3c1.3-0.6,2.7,0,3.3,1.3
							C302.1,655.2,301.5,656.6,300.2,657.2z"/>
						<path class="st39" d="M299.4,656.5c-0.6,0.3-1.4,0-1.7-0.7c-0.3-0.6,0-1.4,0.7-1.7c0.6-0.3,1.4,0,1.7,0.7
							C300.3,655.5,300,656.2,299.4,656.5z"/>
						<path class="st40" d="M298.1,653.5c1-0.4,2.2,0,2.7,1.1c0.4,0.8,0.1,1.8-0.5,2.4c0.9-0.6,1.2-1.7,0.8-2.7
							c-0.5-1.1-1.8-1.6-2.9-1.1c-0.8,0.4-1.3,1.2-1.3,2.1C297,654.5,297.4,653.8,298.1,653.5z"/>
						<path class="st40" d="M299.8,654.9c-0.3,0.1-0.6,0-0.7-0.3c-0.1-0.3,0-0.6,0.3-0.7c0.3-0.1,0.6,0,0.7,0.3
							C300.2,654.5,300.1,654.8,299.8,654.9z"/>
						<path class="st40" d="M298.7,654.6c-0.2,0.1-0.4,0-0.5-0.2c-0.1-0.2,0-0.4,0.2-0.5c0.2-0.1,0.4,0,0.5,0.2
							C299,654.3,298.9,654.5,298.7,654.6z"/>
					</g>
					<g>
						<path class="st38" d="M305,668.2c-1.3,0.6-1.9,2-1.3,3.3c0.6,1.3,2,1.8,3.3,1.3c1.3-0.6,1.8-2,1.3-3.3
							C307.7,668.2,306.2,667.6,305,668.2z"/>
						<path class="st39" d="M304.9,669.2c-0.6,0.3-0.9,1-0.7,1.7c0.3,0.6,1,0.9,1.7,0.7c0.6-0.3,0.9-1,0.7-1.7
							C306.3,669.3,305.6,669,304.9,669.2z"/>
						<path class="st40" d="M306.3,672.2c1-0.4,1.5-1.6,1.1-2.7c-0.4-0.8-1.2-1.3-2.1-1.2c1-0.2,2.1,0.3,2.5,1.2
							c0.5,1.1,0,2.4-1.1,2.9c-0.8,0.4-1.8,0.2-2.4-0.5C304.8,672.4,305.6,672.5,306.3,672.2z"/>
						<path class="st40" d="M306.4,670c-0.3,0.1-0.4,0.4-0.3,0.7c0.1,0.3,0.4,0.4,0.7,0.3c0.3-0.1,0.4-0.4,0.3-0.7
							C307,670,306.7,669.9,306.4,670z"/>
						<path class="st40" d="M305.9,671c-0.2,0.1-0.3,0.3-0.2,0.5c0.1,0.2,0.3,0.3,0.5,0.2c0.2-0.1,0.3-0.3,0.2-0.5
							C306.3,671,306,670.9,305.9,671z"/>
					</g>
				</g>
				<g>
					<g>
						<path class="st36" d="M348.5,678.7c1.7-0.7,5.7-2.3,1.5-7c-3.2-3.6-6.7-5.5-9.7-6.5c-7.1-2.8-13.8-4.6-19.7-2.2
							c0,0-1.4,5-0.3,5.7c0,0,9.2,6.8,13.5,8.3C338.9,679.1,344,680.4,348.5,678.7z"/>
					</g>
					<g>
						<path class="st37" d="M342,674.9c7.8-1.2-4.1-7.3-6.4-8c-5.5-2.2-13-2.7-15.2-3.2c0,0-1.3,1.9-0.8,3.9c0,0,7.9,3.8,11.1,4.9
							C334.8,674.2,338.4,675.5,342,674.9z"/>
					</g>
				</g>
				<g>
					<g>
						<path class="st41" d="M322.8,632.5c-1.9-0.8-3.9-1.5-5.8-2.5c-0.5-0.3-1.1-0.6-1.7-0.8c-0.1,0.3-0.3,0.6-0.4,1
							c-2.4,4.9-4.3,15.7-4.3,15.7c0,0.5,4.5,3.9,4.5,3.9c5.6-3.7,9-8.3,12.2-14.4C325.6,634.5,324.4,633.2,322.8,632.5z"/>
					</g>
					<g>
						<path class="st37" d="M324.5,634c0,0-7.3-1.5-8.6,1.1c-1.9,3.8-5,11.4-5,11.4c0,0.3,3.4,2.9,3.4,2.9
							C315.9,647.2,321.4,640.2,324.5,634z"/>
					</g>
					<g>
						<path class="st36" d="M321.4,627.3c-1.4-1.3-5-0.9-8.7-0.5c-2.3,0.3-11.1,3.7-10.5,5.3c0.6,1.6,14.5,4.9,16.9,4.8
							C324.1,636.8,333.3,638.2,321.4,627.3z"/>
					</g>
				</g>
				<path class="st42" d="M296.1,670.3c2.1,0.4,3.5-5.2,2.9-6.4c-0.6-1.2-1.9-1.4-4.2-2.5c-1.3-0.6-2-0.2-2.4,0.4
					c0.1,1.6,0.4,3.1,1.1,4.6C294.2,667.7,295.1,669.1,296.1,670.3z"/>
				<g>
					<g>
						<path class="st43" d="M295.9,665.3c0,0-1,0.4-1.5,0.6c-0.5,0.2-1.4-0.3-0.6-1.7"/>
					</g>
					<g>
						<path class="st43" d="M295.8,665.3c0,0-1,0.4-1.5,0.6c-0.5,0.2-0.7,1.3,0.8,1.6"/>
					</g>
				</g>
				<g>
					<path class="st44" d="M297.3,667.2c-0.6-0.1-1.3-0.5-1.8-1c-0.3-0.3-0.6-1-0.6-1.4c0-0.7,0.2-1.4,0.5-2
						c0.2-0.3,1.4-1.3,2.5,1.4C299.2,667.1,297.6,667.3,297.3,667.2z"/>
					<g>
						<g>
							<path class="st45" d="M294.9,664.8c0.2,0.1,0.4,0.1,0.5,0c0.4-0.2,0.6-0.6,0.2-1.4c-0.1-0.2-0.2-0.4-0.3-0.5
								C295.1,663.4,294.9,664.1,294.9,664.8z"/>
							<path class="st45" d="M297.3,667.2c0-0.2-0.1-0.3-0.2-0.5c-0.3-0.8-0.8-1-1.2-0.8c-0.2,0.1-0.3,0.2-0.4,0.4
								C296.1,666.8,296.7,667.1,297.3,667.2z"/>
						</g>
					</g>
					<path class="st46" d="M298.1,665.7c0,0,0.2-0.8-0.8-2.1c-0.9-1.1-1.6-0.8-1.5-0.7c0,0.1,0.6,0.8,0.3,1.5
						C295.9,665.2,296.6,663.1,298.1,665.7z"/>
				</g>
				<g>
					<path class="st47" d="M294.4,663.6c-0.5,0.2-1,0-1.2-0.5c-0.2-0.5,0-1,0.5-1.2c0.5-0.2,1,0,1.2,0.5
						C295.1,662.9,294.9,663.4,294.4,663.6z"/>
					<path class="st47" d="M296.8,669.1c-0.5,0.2-1,0-1.2-0.5c-0.2-0.5,0-1,0.5-1.2c0.5-0.2,1,0,1.2,0.5
						C297.5,668.3,297.3,668.9,296.8,669.1z"/>
				</g>
			</g>
		</g>
		<path class="st33" d="M224,583.5c8.8,14,17.5,28.1,26.3,42.1c11.2,12.5,22.3,25,33.5,37.5c0.1,3.9,1.2,6.6,2,8.3
			c1.9,3.8,5.9,8.2,7.9,7.4c0.3-0.1,0.5-0.4,0.7-0.6c0.8,0.7,1.9,0.9,2.5,0.5c0.1-0.1,0.4-0.3,0.6-0.7c1.2,0.7,2.5,0.7,3.2,0.1
			c0.2-0.1,0.4-0.4,0.5-0.9c0.4,0,2.2-0.1,2.6-1.1c0.2-0.5,0-1.1-0.2-1.5c-1.2-2.9-6.4-7.4-7-8.8c-0.6-1.4,5.1,2.2,5.7,0.7
			c0.8-2-5.2-7.6-11.3-10.1c-10.1-13.1-20.1-26.1-30.2-39.2c-7.4-13.9-14.8-27.8-22.3-41.7C233.6,578.1,228.8,580.8,224,583.5z"/>
		<g>
			<g>
				<path class="st33" d="M268.7,521.5c-6.3-0.5-12.6-1-18.9-1.5c-0.4,6.2-0.7,12.4-1.1,18.6c1.7,1.2,3.6,2.5,5.6,3.8
					c3,1.8,5.9,3.4,8.6,4.6c1-0.9,2.2-1.9,3.3-3.2c0.9-1,1.7-2,2.3-3c-0.1-1.2-0.2-2.4-0.3-3.6C267.9,531.6,268.1,526.3,268.7,521.5
					z"/>
				<path class="st48" d="M268.1,530.9c-6.2-2.8-12.4-5.6-18.7-8.5c-0.1,2.1-0.1,4.2-0.2,6.3c2.1,1.7,5.6,4.1,10,5.5
					c3.3,1,5.2,0.9,6.7,0.5c0.9-0.2,1.5-0.6,2-0.9C268.1,532.9,268.1,531.9,268.1,530.9z"/>
				<g>
					<path class="st33" d="M279,483c0.3,5.4,3.1,17.5,1.3,28.7c-1.8,10.9-8.3,23.2-18.1,20.9c-15.9-3.6-18.2-11.6-20.9-23.9
						c-2.2-10-3.5-20.2-3.7-25.8L279,483z"/>
					<g>
						<path class="st49" d="M270.8,522.5c-0.2-0.3-1.6,0.7-4.3,0.8c-2.4,0.1-3.8-0.6-3.9-0.3c-0.2,0.4,1.7,2.4,4,2.3
							C269.1,525.2,271.1,522.9,270.8,522.5z"/>
						<path class="st48" d="M269.7,518.1c-0.4,0.3-0.9,0.6-1.6,0.7c-1.1,0.2-1.9-0.3-1.9-0.2c-0.1,0.1,1.6,1.4,2.7,0.8
							C269.5,519,269.7,518.3,269.7,518.1z"/>
						<path d="M271.2,503.7c0.6-0.3,2.8-1.3,5.5-0.7c1.5,0.4,2.5,1.1,3.1,1.6c-0.3-0.6-1.1-1.8-2.7-2.6c-2.7-1.4-5.4-0.2-5.8,0
							c0,0.2-0.1,0.5-0.1,0.8C271.2,503.1,271.2,503.4,271.2,503.7z"/>
						<path d="M262.9,504.7c-1.4-0.3-3.5-0.7-6-0.4c-1.7,0.2-3.2,0.5-4.3,0.9c0.8-0.7,2.1-1.5,3.9-2.1c3-1,5.6-0.5,6.8-0.2
							c0,0.3-0.1,0.6-0.2,1C263.1,504.2,263,504.5,262.9,504.7z"/>
					</g>
				</g>
				<g>
					<path class="st18" d="M278,507.8c-0.3-0.3-0.7-0.7-1.3-1.1c-0.3-0.2-1.7-0.9-3.1-0.2c-1.2,0.5-1.8,1.7-1.9,2.1
						c0.3,0.3,1.3,1.2,2.8,1.2C276.6,509.9,277.9,508,278,507.8z"/>
					<path class="st50" d="M273.4,507.9c0-0.1-0.1-0.7,0.3-1.2c0.5-0.6,1.4-0.4,1.9-0.3c0.4,0.1,0.8,0.3,1,0.5
						c0.3,1.2-0.3,2.4-1.2,2.6C274.4,509.7,273.5,508.8,273.4,507.9z"/>
					<path d="M278.3,508c-0.1-0.3-0.9-1.7-2.3-2.1c-1.6-0.4-3.5,0.6-4.3,2.6c0.3-0.3,1.8-1.8,4.1-1.6
						C277,507.1,277.9,507.7,278.3,508z"/>
					<path d="M274.4,508c0-0.1,0-0.2,0-0.3c0.1-0.4,0.4-0.8,0.8-0.7c0.4,0.1,0.5,0.5,0.5,0.5c0.1,0.5-0.1,1-0.5,1.1
						C274.9,508.8,274.5,508.4,274.4,508z"/>
					<path class="st18" d="M274.1,507.8c0-0.1,0-0.1,0-0.1c0-0.2,0.2-0.4,0.4-0.3c0.2,0,0.2,0.2,0.3,0.2c0.1,0.2-0.1,0.5-0.3,0.5
						C274.3,508.1,274.1,507.9,274.1,507.8z"/>
				</g>
				<g>
					<path class="st18" d="M253.7,509c1.4-0.9,2.7-1.4,3.6-1.6c1.3-0.4,2.1-0.6,3.1-0.4c1.7,0.4,2.6,1.8,2.9,2.3
						c-0.6,0.4-2,1.5-4,1.6C256.3,511.1,254.1,509.3,253.7,509z"/>
					<path class="st50" d="M257.1,508.7c0-0.1-0.1-0.8,0.5-1.4c0.7-0.7,2-0.4,2.7-0.2c0.6,0.2,1.1,0.4,1.4,0.6
						c0.4,1.4-0.6,2.8-1.9,3C258.5,510.9,257.2,509.8,257.1,508.7z"/>
					<path d="M253.3,509.3c-0.1-0.1,3.8-4.3,7.4-2.8c1.6,0.7,2.4,2.2,2.7,2.9c-0.9-0.8-2-1.6-3.5-1.9
						C256.3,506.7,253.4,509.4,253.3,509.3z"/>
					<path d="M258.7,508.9c0-0.2,0-0.3,0-0.3c0.1-0.5,0.7-0.9,1.2-0.8c0.5,0.1,0.7,0.6,0.8,0.7c0.2,0.6-0.3,1.2-0.8,1.3
						C259.2,509.9,258.8,509.4,258.7,508.9z"/>
					<path class="st18" d="M258.2,508.6c0-0.1,0-0.1,0-0.2c0.1-0.2,0.3-0.4,0.6-0.4c0.2,0,0.3,0.3,0.4,0.3c0.1,0.3-0.1,0.6-0.4,0.6
						C258.5,509.1,258.2,508.8,258.2,508.6z"/>
				</g>
			</g>
		</g>
		<path class="st34" d="M295.7,654.7c-2.4,1-5.5,2.7-8.7,5.3c-4.7,3.8-7.4,8.1-8.9,10.9c-2.1-5.4-4.1-10.9-6.2-16.3
			c-10.3-10.8-68-72.4-51.6-99.6c0.8-1.4,1.9-2.7,3.1-3.9c2.8,1.6,5.8,3.6,8.9,6.1c3.3,2.6,6,5.1,8.3,7.5
			c3.4,8.2,7.1,16.6,11.2,25.2c9.9,20.7,20.4,39.2,30.9,55.7C287.1,648.6,291.4,651.6,295.7,654.7z"/>
	</g>
	<g style="clip-path:url(#SVGID_00000161605979408622601830000016431159920595992739_);">
		<path class="st33" d="M251.9,608.7c1.9,0.4,6-0.6,5.1-2.4c-0.7-0.3-6.6-1.3-7.6-1.4c2-1.7,5.1-2.1,6.8-3.9c3.3-5-5.1-0.5-6.8-0.5
			c-3.5,1-3.7,3-7.1,4.6c-1,0.4-5.3,2.5-6.4,3.1c0,0,0,0,0,0c-2.6,1.7-5.8,3.4-9.7,4.8c-1.8,0.7-3.6,1.2-5.2,1.6c0.3,0.9,0.7,2,1,3
			c0.5,1.6,0.8,3,1.1,4.4c3.3-0.9,6.6-1.7,9.9-2.6c0.9,0.3,2.5,0.7,4.4,0.5c2.5-0.3,4.2-1.5,5-2.2c2.6-1.9,1.9-3,4-4.2
			c0.8-0.5,3.3-1.7,6.2-1.7c0.6,0,1.8,0.1,2.8-0.6c0.1-0.1,1.1-0.8,1-1.4C255.9,608.7,251.6,608.6,251.9,608.7z"/>
		<g>
			<g>
				<path class="st18" d="M203.3,667.9c1.7-0.2,3,0.2,4.7,0c-0.8-27-1.2-47.1-0.8-58.6c0.1-3.8,0.5-12.7-2.7-23.5
					c-1-3.3-2-5.9-2.7-7.6C202.3,608.1,202.8,638,203.3,667.9z"/>
				<path class="st51" d="M204.1,734.4c0-0.4,0-0.7,0-1c0.3-7.8,0.8-26.2,1.1-75.6c-0.3-0.6-0.6-1.2-0.9-1.9c-3.5,0-7,0.2-10.5,0.6
					c-4.6,0.6-9.1,1.5-13.7,2.2c-0.5,3.4-0.5,6.7-0.7,9.9c0,0.3-0.1,1.4-0.1,2.9c0,0.1,0,0.2,0,0.2c-0.2,7.7-2.7,56.5-2.7,56.5
					c-0.4,7.4-0.9,18.2-1.4,31.5c9.3-0.4,18.6-0.8,27.9-1.2c0.7-16.5,1-23.1,1-23.6C204,735.1,204.1,734.8,204.1,734.4z"/>
				<path class="st52" d="M178,733.4c0-0.4,0-0.7,0-1c0.3-7.8,0.8-26.2,1.1-75.6c-0.3-0.6-0.6-1.2-0.9-1.9c-3.5,0-7,0.2-10.5,0.6
					c-4.6,0.6-9.1,1.5-13.7,2.2c-0.5,3.4-0.5,6.7-0.7,9.9c0,0.3-0.1,1.4-0.1,2.9c0,0.1,0,0.2,0,0.2c-0.2,7.7-2.7,56.5-2.7,56.5
					c-0.4,7.4-0.9,18.2-1.4,31.5c9.3-0.4,18.6-0.8,27.9-1.2c0.7-16.5,1-23.1,1-23.6C178,734.1,178,733.8,178,733.4z"/>
				<path class="st53" d="M151.8,576.6c-0.1,0.2-0.4,0.7-0.7,1.3c-2,4.1-1.2,8.1-1.3,12c0,0.3,0,1.3,0,2.6c0,0.1,0,0.1,0,0.2
					c0.1,1.9,0,36,0.4,51c0.2,5.4,0.5,13.3,1.4,22.9c18.8,0.4,37.6,0.9,56.3,1.3c0.3-13.6,0.4-19.1,0.4-19.5c0,0,0-0.3,0-0.6
					c0-0.3,0-0.6,0-0.9c-0.2-7-1.2-23.6-5.8-68c-3.6-2.7-7.2-5.5-10.8-8.2c-5.7-1.3-11.5-2.7-17.2-4
					C166.9,570,159.4,573.3,151.8,576.6z"/>
				<g>
					<path class="st18" d="M167.6,585.1c6.4,11,12.8,21.9,19.3,32.9c14.1-3.6,28.1-7.2,42.2-10.7c0.7,3.2,1.4,6.3,2.1,9.5
						c0.6,2.6,1.2,5.3,1.7,7.9c-8.3,3.5-17.9,6.9-28.7,9.9c-10.9,3-20.9,4.9-29.8,6.2c-12.1-16.4-19.9-29.7-22.4-35.8
						c-1-2.3-1.8-4.6-2.6-7.1c-1.7-5.4-2.7-8.1-2.7-10.5c0-2.1,0.4-6.3,4.5-11.5c0.8-0.5,1.5-0.8,2.2-1
						C157.7,573.9,163.3,578.2,167.6,585.1z"/>
				</g>
			</g>
			<g>
				<g>
					<g>
						<g>
							<g>
								<g>
									<g>
										<g>
											<path class="st33" d="M175.4,555c5.7,0.7,11.5,1.5,17.2,2.2c-0.7,5-1.3,9.9-2,14.9c-0.4,0.5-1.4,1.7-3.1,1.9
												c-0.3,0-0.6,0-0.9,0c-0.4,0.8-0.7,1.6-1.1,2.4c-1.1-1.3-2.2-2.7-3.3-4c-2.9-2-5.7-3.9-8.6-5.9
												C174.2,562.7,174.8,558.9,175.4,555z"/>
											<path class="st54" d="M191.4,566.7c0.4-2.8,0.7-5.5,1.1-8.3c-5.5-2.3-11.1-4.7-16.6-7c-0.4,2.8-0.7,5.5-1.1,8.3
												c1.6,1.4,3.9,3.1,7,4.5C185.6,565.9,189,566.5,191.4,566.7z"/>
											<path class="st29" d="M185.8,491.4c2.8,0.3,7.3,0.8,11.9,3.6c11.2,6.8,14.2,21.8,12.9,32c-0.3,2.6-0.9,4.6-1.3,5.9
												c0,0,0,0.1-0.1,0.1c-0.6,0.9-1.2,1.8-1.9,2.7c-2.2,3-4.4,5.6-6.6,7.8c-8.8-6.6-31.6,6.3-31.6,6.3c-1.2-0.3-2.8-1-4.6-2.1
												c-11.1-7-10.9-24.2-10.8-28.1c0.1-5,0.2-10.4,3.8-16.1c3.5-5.6,8.3-8.2,10.1-9.2C175.4,490.3,182.7,491.1,185.8,491.4z"
												/>
											<path class="st33" d="M209.7,535.9c0-10.8,1-11.8,0.6-17.9c-0.2-2.9-0.8-7.2-2.7-12.3c0-0.1,0.1-0.4,0-0.8
												c-0.7-5.1-17-9.8-30.3-6.1c-3.1,0.8-8.4,2.8-14.1,7.8c-1.3,2.9-2.8,7.3-3.3,12.9c-1.2,12.5,3.6,21.9,6,26.3
												c3.2,6,6.4,12.1,13.7,15.3c4.3,1.9,8.3,2,10.9,1.9c0.9-0.1,2.5-0.2,4.5-0.8c6.1-2,9.5-6.7,10.6-8.3c2.7-4,3.5-7.9,3.9-10
												C209.9,541.2,209.7,539.8,209.7,535.9z"/>
											<g>
												<path d="M187,529.7c-4.1-1.7-8.3-0.9-12.3,0.9c1.4-1.9,3.7-2.9,6-3.4c2.3-0.5,4.8-0.3,7,0.6
													C187.8,527.9,187,529.7,187,529.7L187,529.7z"/>
											</g>
											<g>
												<path d="M198.3,527.9c2.9-2.1,7.5-2,9.9,0.8c-3-1.2-6.2-1.1-8.7,0.8C199.5,529.5,198.3,527.9,198.3,527.9L198.3,527.9z"
													/>
											</g>
											<path class="st29" d="M171.8,514.4c0.6,1.7,1.3,4.2,1.1,7.1c-0.1,3-1,4.9-1.8,7.3c-0.9,2.7-1.8,6.6-1.9,11.7
												c-1.9-0.7-5.8-2.3-8.7-6.2c-0.8-1.1-2.1-3.9-3.5-9.4c-0.6-2.5-2.5-12.9,3-21.7c7.9-12.5,26.7-15.9,38.4-9.6
												c2.4,1.3,4.2,2.9,5.3,4c11.7,11.9,6.7,32,5.9,35.2c0.1-1.9,0.1-4.2-0.2-6.8c-0.5-4-1.6-7.2-2.6-9.6
												c-0.4,0.2-1.1,0.5-2,0.8c-3.8,1.4-15.1,4.8-27.1,0.1C176.4,517,174.2,516,171.8,514.4z"/>
											<g>
												<g>
													<path class="st54" d="M195.2,542.9c0,1.1-1,2-1.9,1.9c-0.8-0.1-1.5-0.8-1.5-1.7c0.1,0.1,0.8,0.7,1.9,0.6
														C194.5,543.5,195.1,543,195.2,542.9z"/>
												</g>
											</g>
											<g>
												<path class="st33" d="M167.3,533.6c-0.7-2.5-3.6-4.3-5.7-2.7c-3.2,2.3-2.9,8-1.2,11.3c1.1,2,3.6,4.3,5.4,3
													C168.1,543.4,168.7,538.3,167.3,533.6z"/>
											</g>
											<g>
												<path class="st54" d="M186,550.4c-0.2,1,3,2.9,6.2,2.8c4,0,7.6-3,7.2-4c-0.2-0.5-1.8-0.4-5-0.3
													C189.5,549.3,186.1,549.4,186,550.4z"/>
											</g>
										</g>
										<g>
											<g>
												<path class="st18" d="M187,534c-0.4,0.5-1.1,1.4-2.3,1.9c-2,0.8-4.4,0.2-6.3-1.5c0.5-0.5,1.3-1.3,2.7-1.8
													c0.8-0.3,1.9-0.7,3.2-0.4C185.8,532.5,186.7,533.6,187,534z"/>
												<path class="st50" d="M185.1,532.9c0.3,0.8,0.2,1.7-0.3,2.2c-0.3,0.4-0.9,0.7-1.3,0.8c0,0,0,0,0,0c0,0-0.6,0.1-1.2-0.1
													c-0.6-0.2-1.7-0.9-1.8-2c0-0.6,0.3-1.1,0.3-1.2c0.7-1,2.5-1.2,3.5-0.5C184.7,532.3,185,532.7,185.1,532.9z"/>
												<path class="st55" d="M184.6,533.5c0.3,0.6-0.1,1.2-0.2,1.3c-0.3,0.4-0.7,0.5-0.7,0.5c0,0,0,0,0,0c0,0-0.3,0.1-0.7,0
													c-0.2,0-0.7-0.2-1-0.8c0-0.1-0.3-0.6,0-1.2c0.4-0.7,1.4-0.8,2-0.5C184,532.9,184.4,533.1,184.6,533.5z"/>
												<path class="st18" d="M182.8,533.4c0.1,0.1,0,0.3,0,0.3c-0.1,0.1-0.2,0.1-0.2,0.1c0,0,0,0,0,0c0,0-0.1,0-0.2,0
													c0,0-0.2,0-0.2-0.2c0,0-0.1-0.1,0-0.3c0.1-0.2,0.3-0.2,0.5-0.1C182.7,533.2,182.8,533.3,182.8,533.4z"/>
												<path class="st55" d="M187,534c-0.2-0.3-1.3-2.3-3.5-2.6c-3.1-0.5-5.3,2.8-5.2,3c0.1,0.2,2-1.9,4.8-1.8
													C184.7,532.5,186,533.2,187,534z"/>
											</g>
										</g>
										<g>
											<g>
												<path class="st18" d="M207.1,533.4c-0.3,0.6-1,1.4-2.1,1.9c-1.9,0.8-4.2,0.2-6-1.5c0.4-0.5,1.3-1.3,2.5-1.8
													c0.8-0.3,1.8-0.7,3.1-0.4C206,532,206.8,533,207.1,533.4z"/>
												<path class="st50" d="M205.3,532.2c0.3,0.9,0.2,1.8-0.3,2.3c-0.3,0.4-0.8,0.7-1.3,0.8c0,0,0,0,0,0c0,0-0.5,0.1-1.2-0.1
													c-0.6-0.2-1.5-0.9-1.6-2c0-0.2-0.1-0.7,0.3-1.3c0.6-1,2.3-1.2,3.3-0.5C205,531.7,205.2,532,205.3,532.2z"/>
												<path class="st55" d="M204.8,532.9c0.3,0.6-0.1,1.2-0.2,1.3c-0.3,0.4-0.6,0.5-0.7,0.5c0,0,0,0,0,0c0,0-0.3,0.1-0.7,0
													c-0.2,0-0.7-0.2-1-0.8c0-0.1-0.3-0.6,0-1.2c0.3-0.7,1.3-0.8,1.9-0.5C204.3,532.3,204.6,532.5,204.8,532.9z"/>
												<path class="st18" d="M204.4,532.6c0.1,0.1,0,0.3,0,0.3c-0.1,0.1-0.1,0.1-0.2,0.1c0,0,0,0,0,0c0,0-0.1,0-0.2,0
													c0,0-0.2,0-0.2-0.2c0,0-0.1-0.1,0-0.3c0.1-0.2,0.3-0.2,0.4-0.1C204.3,532.5,204.4,532.5,204.4,532.6z"/>
												<path class="st55" d="M207.1,533.4c-0.1-0.3-1.2-2.3-3.3-2.6c-2.9-0.5-5,2.8-4.9,3c0.1,0.2,1.9-1.9,4.5-1.8
													C204.9,532,206.2,532.7,207.1,533.4z"/>
											</g>
										</g>
									</g>
								</g>
							</g>
						</g>
					</g>
				</g>
				<g>
					<path class="st56" d="M190.9,569.8c-0.2,0.6-0.5,1.3-1.1,2.1c-1.1,1.4-2.5,2-3.2,2.2c0.5,0.5,1.2,1.1,1.8,2.1
						c1,1.7,1.1,3.3,1.1,4.2c0.2-0.2,2.6-2.5,3.4-5c0.4-1.3,0.5-2.5,0.5-2.5c0-0.5,0-0.9-0.1-1.3C192.5,571,191.7,570.4,190.9,569.8
						z"/>
					<path class="st56" d="M182.2,572.5c-1.2-0.8-2.5-1.7-3.9-2.7c-1.7-1.3-3.3-2.6-4.7-3.8c-1.2,0.5-2.3,1-3.5,1.5
						c0.4,0.9,1,2.2,1.8,3.8c0.5,1,1,1.9,1.2,2.2c2.2,3.4,5.1,5.2,6.6,6c-0.1-1,0-2.9,1-4.9C181.2,573.7,181.8,573,182.2,572.5z"/>
					<g>
						<path class="st56" d="M182.2,572.5c1.2,1.3,2.4,2.6,3.6,3.9c0,0,0,0.1,0,0.1c0.3,4.8,1,11.2,1.6,15.9
							c0.5,5.3,0.8,10.7,0.8,16.1c0,0,0,0.3,0,0.3c-1.8-0.1-3.7-0.2-5.5-0.3c1.7-0.1,3.5-0.2,5.2-0.3l-0.3,0.3
							c-0.2-2.7-0.4-5.3-0.6-8c-0.4-5.3-1.1-10.6-1.6-16c-0.1-2.4-0.3-6.1-0.1-7.9C184.3,575.3,183.2,573.9,182.2,572.5L182.2,572.5
							z"/>
					</g>
				</g>
			</g>
		</g>
	</g>
	<g style="clip-path:url(#SVGID_00000161605979408622601830000016431159920595992739_);">
		<g>
			<path class="st57" d="M489.8,300.6l-5.9-61.6c0,0-14.6-8.9-2.7-16.7s20.9,8.1,11.7,14.1l13.3,60.6L489.8,300.6z"/>
			<path class="st57" d="M522,309.1l52.4-33c0,0,1.3-17,13.7-9.9c12.4,7.1,2.2,22.3-7.3,16.8l-48.1,39.1L522,309.1z"/>
			<g>
				<polygon class="st58" points="739.3,245.4 865.6,336.7 868.1,338.6 866.6,338.9 837,345 783.6,356.1 727.9,367.7 676.9,378.3 
					507.4,413.6 482.7,332.8 571.3,302.6 624.3,284.6 643,278.2 685,263.9 720.5,251.8 				"/>
				<g>
					<defs>
						<polygon id="SVGID_00000060011109209718872810000000653870623517346455_" points="739.3,245.4 865.6,336.7 868.1,338.6 
							868.1,338.6 866.6,338.9 837,345 837,345 783.6,356.2 727.9,367.7 676.9,378.3 507.4,413.6 482.7,332.8 571.3,302.6 
							624.3,284.6 643,278.2 685,263.9 720.5,251.8 						"/>
					</defs>
					<clipPath id="SVGID_00000065039167946339209290000012498690462083700100_">
						<use xlink:href="#SVGID_00000060011109209718872810000000653870623517346455_"  style="overflow:visible;"/>
					</clipPath>
					<g style="opacity:0.72;clip-path:url(#SVGID_00000065039167946339209290000012498690462083700100_);">
						<path class="st60" d="M703.7,219.7l46.7,33.8c-9.7-1.8-20.5-2-29.9-1.6c-1.1,0-2.3,0.1-3.3,0.2c-15.7,0.9-25.3-19.3-14.5-31.3
							C703,220.3,703.4,220,703.7,219.7z"/>
						<path class="st60" d="M677.1,371.7c2.4-9.8,4.3-55.8,16.2-65.2c11.9-9.4,41.3-15.1,39.8,16.2c-1.5,31.3-7.2,80.4-28,83
							C684.2,408.3,674.5,382,677.1,371.7z"/>
						<path class="st60" d="M570.1,310c2.4-9.8,4.3-55.8,16.2-65.2c11.9-9.4,41.3-15.1,39.8,16.2c-1.5,31.3-7.2,80.4-28,83
							C577.3,346.7,567.6,320.4,570.1,310z"/>
						<path class="st60" d="M788.8,364c-8.4-14.4-39.8-48.6-25.4-62.7c14.4-14.1,87.5,22.4,71.4,55.2S794.7,374.1,788.8,364z"/>
						<path class="st60" d="M638.4,272.7c-8.4-14.4-39.8-48.6-25.4-62.7c14.4-14.1,87.5,22.4,71.4,55.2
							C668.4,297.9,644.4,282.9,638.4,272.7z"/>
						<path class="st60" d="M865.6,336.7l2.5,1.8l0,0l59,42.7c-3.9,2.8-8.8,4.2-14.4,3.1c-13.6-2.7-29.7-14.3-46.1-45.5
							C866.3,338.2,865.9,337.5,865.6,336.7z"/>
					</g>
				</g>
			</g>
			<g>
				<g>
					<path class="st58" d="M493.5,304.5c-0.9,0.2-22,5.9-37.8-4.1c-15.8-10-19.7-31.5-19.9-32.4l-0.2-1.3l1.3-0.4
						c0.9-0.2,22-5.9,37.8,4.1c15.8,10,19.7,31.5,19.9,32.4l0.2,1.3L493.5,304.5z"/>
					<path class="st58" d="M437.3,267.7c0,0,21.2-5.8,36.6,3.9c15.4,9.8,19.2,31.4,19.2,31.4s-21.2,5.8-36.6-3.9
						C441.1,289.4,437.3,267.7,437.3,267.7L437.3,267.7z M433.9,265.6l0.5,2.7c0.2,0.9,4.2,23.1,20.6,33.4
						c16.3,10.4,38.1,4.5,39,4.3l2.6-0.7l-0.5-2.7c-0.2-0.9-4.2-23.1-20.6-33.4c-16.3-10.3-38.1-4.5-39-4.3L433.9,265.6L433.9,265.6
						z"/>
				</g>
				<path class="st61" d="M490.9,302.2c0,0-15.9,4.4-27.4-2.9s-14.4-23.5-14.4-23.5s15.9-4.4,27.4,2.9
					C488.1,286,490.9,302.2,490.9,302.2z"/>
			</g>
			<g>
				<g>
					<path class="st58" d="M586.5,346.5c-9.3,2.7-17.8,2.9-25.1,0.6c-17.8-5.6-27.1-25.4-27.5-26.3l-0.6-1.2l1.2-0.7
						c0.2-0.1,5.2-3,12.5-5.1c9.3-2.7,17.8-2.9,25.1-0.6c17.8,5.6,27.1,25.4,27.5,26.3l0.6,1.2l-1.2,0.7
						C598.7,341.5,593.7,344.4,586.5,346.5z"/>
					<path class="st58" d="M547.3,315.2c6.9-2,15.8-3.3,24.3-0.6c17.4,5.5,26.6,25.4,26.6,25.4s-5,2.9-12.1,5
						c-6.9,2-15.8,3.3-24.3,0.6c-17.4-5.5-26.6-25.4-26.6-25.4S540.2,317.3,547.3,315.2L547.3,315.2z M546.5,312.4L546.5,312.4
						c-7.4,2.2-12.6,5.1-12.8,5.3l-2.4,1.4l1.1,2.5c0.4,0.9,10,21.2,28.4,27.1c7.7,2.4,16.4,2.2,26-0.6c7.4-2.2,12.6-5.1,12.8-5.3
						l2.4-1.4l-1.1-2.5c-0.4-0.9-10-21.2-28.4-27.1C564.8,309.4,556.1,309.6,546.5,312.4L546.5,312.4z"/>
				</g>
				<path class="st61" d="M537.5,320.6c0,0,14.2-8.3,27.2-4.2c13,4.1,19.9,19.1,19.9,19.1s-14.2,8.3-27.2,4.2
					C544.4,335.5,537.5,320.6,537.5,320.6z"/>
			</g>
			<path class="st58" d="M549.8,314.1c2.4,8.4,2.1,17.6-1.6,26.1l-56.3,130.4c-8.5,19.6-31.4,28.7-50.9,20.2
				c-11-4.8-18.7-14.1-21.8-24.8c-2.4-8.4-2.1-17.6,1.6-26.1L477,309.5c4-9.3,11.2-16.2,19.8-20c9.6-4.3,20.8-4.7,31.1-0.2
				c5.2,2.3,9.7,5.5,13.3,9.5C545.2,303.1,548.2,308.4,549.8,314.1z"/>
			<path class="st60" d="M494.3,329.1c0.9,3.2-0.9,6.5-4.1,7.5c-3.2,0.9-6.5-0.9-7.5-4.1c-0.9-3.2,0.9-6.5,4.1-7.5
				C490,324.1,493.4,325.9,494.3,329.1z"/>
			<path class="st60" d="M521.5,342.8c0.9,3.2-0.9,6.5-4.1,7.5s-6.5-0.9-7.5-4.1s0.9-6.5,4.1-7.5
				C517.2,337.7,520.6,339.6,521.5,342.8z"/>
			<path class="st61" d="M541.2,298.7c-7.1,10.8-16.8,17.8-27.3,13.5c-14.5-6.1-18.1-15-17.1-22.7c9.6-4.3,20.8-4.7,31.1-0.2
				C533.2,291.5,537.7,294.8,541.2,298.7z"/>
		</g>
		<path class="st62" d="M434.2,475.1c-2,7.1-4.5,17.5-6.3,30.2c-3.2,22.3-0.6,26.8-4.7,33.3c-12.8,20.3-58.1,8.2-59.2,14.3
			c-0.9,4.7,24.6,20.2,50.9,14.3c28.6-6.3,41.4-34.1,43.5-39.1c8.7-19.9,5.6-38.2,4.1-45.2c-2.5,0.5-5.6,0.9-9.2,0.6
			C443.5,482.8,436.8,477.5,434.2,475.1z"/>
		<g>
			<path class="st60" d="M461.1,485.1c-5.5,0.9-11.9,0.7-18.6-2.4c-18.9-8.6-21.5-28.5-21.6-29.4l6-0.7c0.1,0.7,2.3,17.4,18.1,24.6
				c15.6,7.1,29.6-4.4,30.2-4.9l3.9,4.6C478.6,477.4,471.4,483.4,461.1,485.1z"/>
		</g>
	</g>
	
		<rect x="577.7" y="0.8" style="clip-path:url(#SVGID_00000161605979408622601830000016431159920595992739_);fill:#A5A4A4;" width="14" height="824.9"/>
	
		<rect x="684.9" y="0.8" style="clip-path:url(#SVGID_00000161605979408622601830000016431159920595992739_);fill:#A5A4A4;" width="14" height="824.9"/>
	<path style="clip-path:url(#SVGID_00000161605979408622601830000016431159920595992739_);fill:#CE2026;" d="M222.9,552.1"/>
	<path style="clip-path:url(#SVGID_00000161605979408622601830000016431159920595992739_);fill:#FC325E;" d="M248.8,538.2
		c2.7,1.6,5.5,3.1,8.2,4.7c1.9,1.1,3.8,2.2,5.7,3.4c1.4-1.3,2.9-3,4.2-5.2c0.3-0.6,0.6-1.2,0.9-1.7c0.7,0.6,1.4,1.3,2.2,1.9
		c0.7,0.6,1.4,1.3,2.1,1.9c-0.6,1.3-1.5,3.1-3,4.8c-1,1.1-2,2-2.9,2.7c0.9,7.3,1.9,14.7,3.1,22.3c0.8,5.2,1.7,10.4,2.6,15.4
		c-1.7,0.3-3.5,0.5-5.2,0.8c-1-9-2.5-18.4-4.3-28.1c-0.6-2.9-1.2-5.8-1.8-8.7c-3.3-2.5-6.8-5-10.6-7.5c-2.2-1.4-4.3-2.8-6.4-4.1
		C245.3,540,247,539.1,248.8,538.2z"/>
	<g style="clip-path:url(#SVGID_00000161605979408622601830000016431159920595992739_);">
		<circle class="st31" cx="239.2" cy="477.7" r="8.8"/>
		<path class="st29" d="M233,490.6c-0.7,12.5,6.1,23,9.7,28.1c1.2,1.7,2.3,3,3,3.9c0.2-0.9,0.3-1.8,0.5-2.7c0.1-0.5,0.2-1,0.2-1.5
			c-1.1-1-2.7-2.6-3.9-4.9c-1.9-3.8-2.6-9.2-0.8-10.2c1.2-0.7,3.4,0.5,4.5,1.8c1.2,1.4,1.3,3.1,1.3,3.6c0.2,2.7,0.3,5.3,0.5,8
			l3.7-15.5l14.9-7.1l-13.8,10.7c0,0,5.3-0.7,7.7-1.4c4.7-1.3,8.8-3.4,12.1-5.4c4.7-2.9,7.6-5.6,7.6-5.6v8.6c2.5-5,3.4-8.6,3.7-11.1
			c0.3-3.1-0.3-4.4-0.3-4.4c-5-18.7-36.9-21.7-47.3-5.4C234.4,482.9,233.2,486.4,233,490.6z"/>
	</g>
	<path style="clip-path:url(#SVGID_00000161605979408622601830000016431159920595992739_);fill:#F4A671;" d="M247.6,509.2
		c0,3.8,0,8.4-1.3,8.7c-0.7,0.1-1.4-0.9-2.4-2.5c-1.2-1.8-5.2-8-3-11.8c0.6-1,1.3-1.3,1.4-1.3c1.4-0.5,3.2,0.5,4.1,1.6
		C247.3,504.8,247.6,505.9,247.6,509.2z"/>
</g>
</svg>
