<?xml version="1.0" encoding="utf-8"?>
<!-- Generator: Adobe Illustrator 26.0.1, SVG Export Plug-In . SVG Version: 6.00 Build 0)  -->
<svg version="1.1" id="Layer_1" xmlns="http://www.w3.org/2000/svg" xmlns:xlink="http://www.w3.org/1999/xlink" x="0px" y="0px"
	 viewBox="0 0 1000 1000" style="enable-background:new 0 0 1000 1000;" xml:space="preserve">
<style type="text/css">
	.st0{clip-path:url(#SVGID_00000067229188290694823380000018046130011983383472_);}
	.st1{clip-path:url(#SVGID_00000091720983259744171930000005370425396146900097_);fill:#BDDEEF;}
	.st2{clip-path:url(#SVGID_00000091720983259744171930000005370425396146900097_);fill:#52A7C1;}
	.st3{clip-path:url(#SVGID_00000091720983259744171930000005370425396146900097_);}
	.st4{fill:#52A7C1;}
	.st5{fill:#DE9F7E;}
	.st6{fill:#D38A6A;}
	.st7{fill:#D34047;}
	.st8{fill:#B7303D;}
	.st9{fill:#CE8065;}
	.st10{fill:#FFFFFF;}
	.st11{fill:#6B3628;}
	.st12{fill:#FCB856;}
</style>
<g>
	<g>
		<defs>
			<path id="SVGID_1_" d="M793.3,406.6c-12.7-22.7-27.6-42.7-43-59.6c-2.8-3.1-56.6-48.5-56.6-48.5c-1.5-1.2-3-2.4-4.5-3.6
				c-43-36-75.6-101.3-194.9-91.3c-55.6,4.7-92,27.2-117.9,57.6c0,0,0,0,0,0c-7,9.8-14,19.7-21,29.5c-19.1,32-31.8,68.7-44.7,100.8
				c-17.1,42.3-78.4,49-100.5,98.1c-20.1,23.1-30.6,59.7-35.9,86.2c-3.8,19.1-4.9,32.9-4.9,32.9c-6,133.4,113.9,235.6,237.6,272.6
				c0.1,0,0.2,0.1,0.3,0.1c21.5,6.8,42.4,11.3,61.5,13.6c5.9,0.7,11.8,1,17.7,1c0.9,0,1.9,0,2.8,0c0,0,0,0,0,0
				c12.6,0.7,24.9,0.5,36.8-0.5c2.4-0.2,4.9-0.5,7.3-0.7c0.2,0,0.3,0,0.5-0.1c43.8-4.9,94.1-18.9,140.9-44.1
				c66.1-34.8,122.4-89.1,133.1-161.5c9.6-47.6,22.8-75.3,22.8-146.3C833,495.7,793.3,406.6,793.3,406.6z"/>
		</defs>
		<clipPath id="SVGID_00000161593004720673871770000010858715002208642451_">
			<use xlink:href="#SVGID_1_"  style="overflow:visible;"/>
		</clipPath>
		<g style="clip-path:url(#SVGID_00000161593004720673871770000010858715002208642451_);">
			<defs>
				<path id="SVGID_00000124854699221616572230000016892459469231556257_" d="M800.6,403.6c-13-23.2-28.2-43.6-43.9-60.8
					c-0.2,0.3-0.3,0.5-0.5,0.8c0.2-0.3,0.3-0.5,0.5-0.8c-2.9-3.2-57.7-49.5-57.7-49.5l0,0c-1.5-1.2-3.1-2.4-4.6-3.7
					c-43.9-36.7-77.1-103.4-198.9-93.2c-56.7,4.7-93.9,27.8-120.4,58.8c-8,9.3-15.1,19.5-21.4,30.2c-19.5,32.6-32.5,70.1-45.7,102.8
					c-17.5,43.2-80,50-102.5,100.2c-20.5,23.6-31.2,60.9-36.6,88c-3.9,19.5-5,33.6-5,33.6C157.7,746.3,280,850.6,406.3,888.3
					c28.2,8.5,56.7,13.6,83.9,15c12.9,0.7,25.4,0.5,37.6-0.5c2.5-0.2,5-0.5,7.5-0.8c1.7-0.2,3.4-0.4,5.2-0.6
					c1.5-0.2,2.9-0.4,4.4-0.6c0.8-0.1,1.6-0.2,2.4-0.4c0.8-0.1,1.5-0.2,2.3-0.3c40.9-6.3,86.7-20.6,128.7-42.5
					c0.2-0.1,0.4-0.2,0.6-0.3c67.8-35.5,125.6-91.1,136.6-165.2c1.5-10.4,14.9-42,19.2-87.4C843.1,515.5,818.3,443.6,800.6,403.6z
					 M706.2,350.4c0,0,0.1,0.1,0.1,0.1C706.3,350.5,706.3,350.5,706.2,350.4z"/>
			</defs>
			<clipPath id="SVGID_00000031197826783998904680000009276152055943595174_">
				<use xlink:href="#SVGID_00000124854699221616572230000016892459469231556257_"  style="overflow:visible;"/>
			</clipPath>
			<path style="clip-path:url(#SVGID_00000031197826783998904680000009276152055943595174_);fill:#BDDEEF;" d="M800.6,403.6
				c-13-23.2-28.2-43.6-43.9-60.8c-2.9-3.2-57.7-49.5-57.7-49.5c-1.5-1.2-3.1-2.4-4.6-3.7c-43.9-36.7-77.1-103.4-198.9-93.2
				c-56.7,4.7-93.9,27.8-120.4,58.8c-8,9.3-15.1,19.5-21.4,30.2c-19.5,32.6-32.5,70.1-45.7,102.8c-17.5,43.2-80,50-102.5,100.2
				c-20.5,23.6-31.2,60.9-36.6,88c-3.9,19.5-5,33.6-5,33.6C157.7,746.3,280,850.6,406.3,888.3c28.2,8.5,56.7,13.6,83.9,15
				c12.9,0.7,25.4,0.5,37.6-0.5c2.5-0.2,5-0.5,7.5-0.8c1.7-0.2,3.4-0.4,5.2-0.6c1.5-0.2,2.9-0.4,4.4-0.6c0.8-0.1,1.6-0.2,2.4-0.4
				c0.8-0.1,1.5-0.2,2.3-0.3c40.9-6.3,86.7-20.6,128.7-42.5c0.2-0.1,0.4-0.2,0.6-0.3c67.8-35.5,125.6-91.1,136.6-165.2
				c9.8-48.6,23.3-76.8,23.3-149.4C841.1,494.6,800.6,403.6,800.6,403.6z"/>
			<path style="clip-path:url(#SVGID_00000031197826783998904680000009276152055943595174_);fill:#52A7C1;" d="M129.2,729h764.6
				v17.1l-225.8,185c0,0-333.6-5.4-353.2-13.6c-19.7-8.2-172.1-176.9-172.1-176.9"/>
			<g style="clip-path:url(#SVGID_00000031197826783998904680000009276152055943595174_);">
				<path class="st4" d="M325.9,403c0,1.8-1.1,3.2-2.6,3.2s-2.6-1.4-2.6-3.2s1.1-3.2,2.6-3.2S325.9,401.2,325.9,403z"/>
				<path class="st4" d="M347.5,409.1c0,1.8-1.1,3.2-2.6,3.2c-1.4,0-2.6-1.4-2.6-3.2s1.1-3.2,2.6-3.2
					C346.3,405.9,347.5,407.3,347.5,409.1z"/>
				<path class="st4" d="M419.4,312.6c0,1.8-1.1,3.2-2.6,3.2c-1.4,0-2.6-1.4-2.6-3.2s1.1-3.2,2.6-3.2
					C418.2,309.4,419.4,310.8,419.4,312.6z"/>
				<ellipse class="st4" cx="338.2" cy="392.5" rx="4.1" ry="5.2"/>
				<path class="st4" d="M334.1,584.2c0,3.7-2.4,6.7-5.3,6.7c-3,0-5.3-3-5.3-6.7c0-3.7,2.4-6.7,5.3-6.7
					C331.7,577.5,334.1,580.5,334.1,584.2z"/>
				<path class="st4" d="M636.4,296.8c0,3.7-2.4,6.7-5.3,6.7c-3,0-5.3-3-5.3-6.7c0-3.7,2.4-6.7,5.3-6.7
					C634,290,636.4,293,636.4,296.8z"/>
				<ellipse class="st4" cx="172.1" cy="640.8" rx="34.9" ry="44"/>
			</g>
		</g>
		<g style="clip-path:url(#SVGID_00000161593004720673871770000010858715002208642451_);">
			<g>
				<path class="st5" d="M702.1,1006.4c-2-3.4-10-41.6-20.6-65.1c-10.6-23.5-32.2-71.3-27.7-116.1c8.3-22.2,50.1-17.9,55.3-13
					c4.7,22.8,22.7,152,22.1,194.3C730.4,1013.3,706.1,1019.8,702.1,1006.4z"/>
				<path class="st5" d="M702.5,987.6c-1,0.5-1.9,1.1-2.7,1.7c-3.1,2.2-7.6,14.2-9.1,17.7c-3.9,9-4.8,8.6-8.1,17.9
					c-6,16.9-1.9,17.1-4.1,30.2c-1.1,6.6,1.7,21.8,0.2,26.3c-1.4,4.5,9.7,4.3,12.9-18.7c-0.7-3.6,5.1-14.2,5.1-14.2s6.3,17.3,5.7,22
					c-0.6,4.7-4.5,17.4-4.5,17.4s-11.1,6.5-8.5,16.7l0,0c0.3,0.6,0.9,1,1.5,0.8c6.7-1.9,25-10.4,31-17.2c2.1-2.4,4.3-12.2,8.6-32.8
					c2.9-14,2.4-28.7,1.2-42.9c-0.5-5.7,0.2-15-3.3-19.8c-3.6-4.9-11.4-8.8-17.3-8.2C708.1,984.9,705.1,986.1,702.5,987.6z"/>
				<g>
					<path class="st5" d="M640.1,680.2c-0.3,16.9-0.5,33.9-1.9,50.8c-0.8,9.9-2.1,19.9-5,29.5c-3,9.7-9,17.9-12.5,27.3
						c-3.2,8.5-5.2,17.3-6.3,26.2c-0.8,6.3-1.2,12.7-1.2,19.1H418.7c0.8-12.1,0.4-24.2-2.6-36.4c-2.9-11.5-9.6-21.2-13.5-32.3
						c-5.8-16.3-5.3-32.8-6.9-49.7c-1.8-17.8-3.4-35.6-4.5-53.5c-0.7-11.5,1.1-28.3,1.8-39.8c0.2-3.6,0-14,4.6-15.7
						c28.4-5.2,77.1-42.4,77.1-42.4c1.9-4.4,2.8-10.1,3.2-16.2c0.2-2.4,0.2-4.9,0.2-7.4c0-5.4-0.3-10.9-0.6-15.8
						c13.1,7.2,29.4,9,44,9c13.3,0,26.8-1.8,39.5-5.9c-0.2,3.2-0.4,6.5-0.4,10c0,2.5,0,5.1,0.1,7.7c0.4,8.4,1.9,16.8,5.4,23.1
						c0.8,1.1,1.8,2.1,2.7,2.6c18,9.7,46.5,31.1,69.9,35.4c2.4,6.3,1.1,15.7,1.3,22.2C640.3,643.6,640.3,664.5,640.1,680.2z"/>
					<path class="st6" d="M560.4,536.9c0,1.6,0,3.2,0,4.7c-2.9,3.4-7.4,8.1-13.7,12.7c-7.7,5.6-15.8,11.5-27,12
						c-10.8,0.5-19.1-4.3-25.2-7.8c-8-4.6-13.4-10-16.6-13.7c0.1-1.7,0.1-3.4,0.1-5.2c0-5.6-0.2-10.8-0.6-15.8c13.1,7.2,29.4,9,44,9
						c13.3,0,26.8-1.8,39.5-5.9C560.6,530.1,560.4,533.4,560.4,536.9z"/>
					<path class="st5" d="M462.3,465.2c-1.3-4.8,1.3-6.2-3.9-8.5c-4.3-1.9-8.2,6.6-9.2,12.6c-1,6,5.2,27,8.6,30
						c3.4,2.9,7.9,4,9.2-1.2L462.3,465.2z"/>
					<path class="st5" d="M574.8,447.9c2.5,25.1,4.8,50.9-9,75.2c-1.2,2.1-5.6,9.6-13.5,17.5c-6.7,6.7-16.4,14.4-30.2,17.4
						c-2.6,0.6-5.4,0.6-8,0c-20.5-4.3-37.4-23.6-42.4-31.9c0,0,0,0,0,0c-0.6-0.9-1.3-1.9-1.9-3.2c-0.7-1.3-1.2-2.6-1.5-3.6
						c0,0,0,0,0,0c-4.8-13.1-6-50-6.9-71.2c-2.1-29.2,15.9-54.3,45.7-63c3.6-1.1,7.3-1.5,11-1.6h0.1c0.3,0,0.6,0,0.9,0
						c3.3,0.1,6.5,0.5,45.3,23.9C574.8,413.6,572.8,427.5,574.8,447.9z"/>
				</g>
				<g>
					<path class="st7" d="M315.6,803.2c2.2-27.6,32.2-142.5,36.2-160.5c4.6-20.8,10.6-36.2,32.1-39.9c11.8-2,20-2.9,31.5-6.1
						l33.1,28.3l-52.4,209C373.8,817.7,333.7,808.3,315.6,803.2z"/>
				</g>
				<g>
					<path class="st7" d="M719.2,804.7C717,777.1,687,662.2,683,644.2c-4.6-20.8-10.4-35.5-32-39.2c-11.8-2-20.2-3.6-31.7-6.8
						l-22.8,49.1l42.1,188.2L719.2,804.7z"/>
					<path class="st8" d="M633.4,811.7c28.3-8.5,56.7-17,85-25.5c2,6.4,3.8,13.4,5.5,20.9c1.5,6.6,2.6,13,3.5,19
						c-28.7,8.5-57.5,16.9-86.2,25.4c-1.9-4.5-3.9-9.9-5.3-16.2C633.6,826.1,633.2,818,633.4,811.7z"/>
				</g>
				<path class="st5" d="M333.2,1004.3c2-3.4,10-41.6,20.6-65.1c10.6-23.5,32.2-71.3,27.7-116.1c-8.3-22.2-50.1-17.9-55.3-13
					c-4.7,22.8-22.7,152-22.1,194.3C304.9,1011.3,329.2,1017.7,333.2,1004.3z"/>
				<path class="st8" d="M398.4,811.7c-28.3-8.5-56.7-17-85-25.5c-2,6.4-3.8,13.4-5.5,20.9c-1.5,6.6-2.6,13-3.5,19
					c28.7,8.5,57.5,16.9,86.2,25.4c1.9-4.5,3.9-9.9,5.3-16.2C398.1,826.1,398.5,818,398.4,811.7z"/>
				<path class="st5" d="M332.8,987.6c1,0.5,1.9,1.1,2.7,1.7c3.1,2.2,7.6,14.2,9.1,17.7c3.9,9,4.8,8.6,8.1,17.9
					c6,16.9,1.9,17.1,4.1,30.2c1.1,6.6-1.7,21.8-0.2,26.3s-9.7,4.3-12.9-18.7c0.7-3.6-5.1-14.2-5.1-14.2s-6.3,17.3-5.7,22
					c0.6,4.7,4.5,17.4,4.5,17.4s11.1,6.5,8.5,16.7l0,0c-0.3,0.6-0.9,1-1.5,0.8c-6.7-1.9-25-10.4-31-17.2c-2.1-2.4-4.3-12.2-8.6-32.8
					c-2.9-14-2.4-28.7-1.2-42.9c0.5-5.7-0.2-15,3.3-19.8c3.6-4.9,11.4-8.8,17.3-8.2C327.2,984.9,330.2,986.1,332.8,987.6z"/>
				<path class="st7" d="M375.3,605.1c65.4-20.7,85.2-30.9,87.2-36.1c0.3-0.8,1.9-5.2,5.7-7.3c2.3-1.3,7.8-1.4,7.8-1.4
					c-12.1,27.6-13.1,55,19.9,68.1c3.8,1.5,22.6,32.9,23.8,40.9c0,0,13.9-39.1,17.9-40.6c36.2-13.1,33.5-44.6,25.2-69.1
					c1.3,0.2,3.7,0.7,6.2,2.4c0.9,0.6,2.9,2.1,4.5,4.7c0.8,1.2,1.2,2.4,1.5,3.2c30,14.4,52.6,24.6,61.1,28.1
					c8,3.3,15.9,6.4,23.7,9.4c0,1.5,0.1,4,0.1,7c0.3,38.2-7,60.5-13.1,105.6c-4.1,30-8.4,64.8-12.3,135.4c-0.4,6.7-1,19.6,0.2,36.5
					c1.7,22.3,6.3,38.6,7.1,44.7c3.8,29.5,19.4,104.8,19.7,115.7c-35.8,12.5-91.4,26.9-160.3,25.4c-51.4-1.1-94.1-10.8-125.1-20.5
					c7.7-57.9,13.1-97.4,15.2-111.5c0.5-3.2,2-13.1,3.3-26.8c0.4-4.2,0.7-8.6,1-13.4c1.1-18.1,0.6-28.2,0.4-55.7
					c-0.3-41.4-0.6-39.2,0.1-55.3c1.5-33-8.9-74.4-8.9-74.4C382.1,698.7,376.6,664,375.3,605.1z"/>
				<g>
					<path d="M518,592.7c-3.4-0.1-24-0.6-35.4-16.1c-2.7-3.6-4.1-7.1-4.9-9.4c-1.1-3-1.7-5.7-2-7.6c0-0.1-0.1-0.2-0.1-0.3
						c-0.1-0.4-0.8-2.6,0.4-4.5c0.2-0.3,0.6-0.8,1.2-1.3c0.1,1.1,0.4,2.8,0.8,4.6c0,0,2,8.6,6.7,15.6c6.6,9.8,32.8,22.7,55.1,11.1
						c15.8-8.2,21-24.3,22.2-28.3c0.3,0.2,0.9,1.5,1.3,2.7c0.3,0.8,0.2,2.4,0.2,2.8c-1.9,4.2-6.3,17.7-22.4,25.6
						C538.5,588.9,529.9,593,518,592.7z"/>
				</g>
				<g>
					<path d="M460.8,506.4c-1.7,0-2.5-3.5-2.5-6.7l1.2,0.8c0,3.5,0.9,4.7,1.3,4.7c0.4,0,1.3-1.9,1.3-5.4c0-3.5-1-5.4-1.3-5.4
						c-0.3-0.3-0.3-0.7,0-1.2c1.7,0,2.5,3.4,2.5,6.5S462.6,506.4,460.8,506.4z"/>
				</g>
				<path class="st5" d="M572.7,465.4c1.3-4.8,0.6-7,5-8.7c4.4-1.7,8.2,6.6,9.2,12.6c1,6-5.2,27-8.6,30c-3.4,2.9-7.9,4-9.2-1.2
					L572.7,465.4z"/>
				<g>
					<path d="M575.3,506.4c1.7,0,2.5-3.5,2.5-6.7l-1.2,0.8c0,3.5-0.9,4.7-1.3,4.7s-1.3-1.9-1.3-5.4c0-3.5,1-5.4,1.3-5.4
						c0.3-0.3,0.3-0.7,0-1.2c-1.7,0-2.5,3.4-2.5,6.5S573.5,506.4,575.3,506.4z"/>
				</g>
				<path d="M570.1,477.6c0.5-1,1.1-1.9,1.6-2.9c0.9-5.2,1.7-10.3,2.6-15.5c2.1-5.6,4.2-12.9,5.3-21.6c1.5-12.4,1.9-24.6-4.9-33.8
					c-5.2-7.1-13.1-5.7-13.9-6.3c-29.5-48.5-90.8-4.6-97.8,11.8c-2.7,6.8-6.1,18.5-4.8,33c0.6,6.7,2.1,12.4,3.6,17
					c0.6,1,1.2,2,1.7,3.2c2.3,5.2,2.6,10,2.4,13.5c0.3,1,0.6,2,0.8,3c0.2-1.8,0.5-5,0.8-8.9c1.8-22,1.2-28.7,6.2-34.9
					c1.3-1.6,3.6-4,7.7-6c28.5,7,78.6-14.8,79.8-8.9c-0.2,2.9-0.3,7.2,0.5,12.3c1.2,7.2,3.7,12.2,4.7,14.5
					C569.2,453,571.6,462.4,570.1,477.6z"/>
				<g>
					<path class="st9" d="M529,525.1c-0.1-1.9-6.7-4.2-12.4-2.8c-4.7,1.1-8.9,4.7-8.4,6.3c0.5,1.3,4.3,1.1,6.8,0.9
						C520.8,529.2,529.1,527.3,529,525.1z"/>
				</g>
				<g>
					<path class="st9" d="M510.9,507.1c-0.2,0.5,3.6,4.1,8.4,4.1c4.5,0,8.2-3.3,8-3.8c-0.2-0.4-3.1,1.3-7.9,1.3
						C514.2,508.7,511.1,506.7,510.9,507.1z"/>
				</g>
				<g>
					<path d="M477.5,466.3c1.2-2.3,2.9-5.1,5.6-7.8c0,0,0,0,0,0c1.5-1.5,3.5-2.4,5.6-2.7c5.1-0.7,10.2-1.3,15.3-2
						c0.5,0.4,1.2,1.1,1.8,2.2c0.5,0.9,0.6,1.8,0.6,2.3c-6,0.8-11.9,1.6-17.9,2.3c-1.3,0.2-2.6,0.6-3.7,1.3
						C482.4,463.4,479.9,464.9,477.5,466.3z"/>
				</g>
				<g>
					<path d="M560.4,468.3c-1-2.4-2.5-5.3-5-8.2c0,0,0,0,0,0c-1.4-1.6-3.3-2.7-5.4-3.1c-5-1.1-10.1-2.1-15.1-3.2
						c-0.5,0.3-1.3,1-2,2.1c-0.5,0.9-0.7,1.7-0.8,2.3c5.9,1.2,11.8,2.5,17.7,3.7c1.3,0.3,2.5,0.8,3.6,1.6
						C555.7,465,558.1,466.7,560.4,468.3z"/>
				</g>
			</g>
			<g>
				<path class="st10" d="M504.6,478c-0.3-0.8-2.7-5.9-8-7.5c-5.5-1.5-11.9,1.4-15.2,7.3c1.1,1,5.2,4.2,11.3,4.4
					C499.2,482.3,503.6,478.9,504.6,478z"/>
				<path class="st11" d="M499.8,474.6c0.4,2.9-1.7,5.5-4.6,5.9c-2.9,0.4-5.5-1.7-5.9-4.6c-0.4-2.9,1.7-5.5,4.6-5.9
					C496.8,469.7,499.5,471.7,499.8,474.6z"/>
				<path d="M504.6,478c-3.9-6.7-11.6-9.1-18.2-4.8c-2,1.3-3.8,3-5.2,5c0.4-1.2,1.1-2.3,1.8-3.3C489,466.5,501.7,467.7,504.6,478
					L504.6,478z"/>
				<path d="M498.2,474.2c0.2,1.4-0.8,2.7-2.3,2.9c-1.4,0.2-2.7-0.8-2.9-2.3c-0.2-1.4,0.8-2.7,2.3-2.9
					C496.7,471.8,498,472.8,498.2,474.2z"/>
				<path class="st10" d="M494.4,474.6c0.1,0.6-0.4,1.2-1,1.2c-0.6,0.1-1.2-0.4-1.2-1c-0.1-0.6,0.4-1.2,1-1.2
					C493.8,473.6,494.3,474,494.4,474.6z"/>
			</g>
			<g>
				<path class="st10" d="M532.6,478.3c0.3-0.8,2.5-6,7.9-7.7c5.5-1.7,11.9,1,15.4,6.9c-1.1,1-5.1,4.4-11.2,4.6
					C538.2,482.5,533.7,479.1,532.6,478.3z"/>
				<path class="st11" d="M539,475c-0.3,2.9,1.8,5.5,4.7,5.8c2.9,0.3,5.5-1.8,5.8-4.7c0.3-2.9-1.8-5.5-4.7-5.8
					C541.9,470,539.3,472.1,539,475z"/>
				<path d="M532.6,478.3c3.7-6.8,11.3-9.4,18-5.3c2,1.2,3.8,2.9,5.4,4.9c-0.5-1.2-1.1-2.3-1.9-3.3C548,466.4,535.3,468,532.6,478.3
					L532.6,478.3z"/>
				<path d="M542.3,474.7c-0.1,1.4,0.9,2.7,2.3,2.9c1.4,0.1,2.7-0.9,2.9-2.3c0.1-1.4-0.9-2.7-2.3-2.9
					C543.7,472.2,542.4,473.2,542.3,474.7z"/>
				<path class="st10" d="M541.2,474.6c-0.1,0.6,0.4,1.2,1,1.2c0.6,0.1,1.2-0.4,1.2-1c0.1-0.6-0.4-1.2-1-1.2
					C541.8,473.5,541.2,474,541.2,474.6z"/>
			</g>
			<path id="XMLID_00000122701799125096589530000014774668921352386976_" class="st12" d="M455.3,423.5c26.4-21.5,112-18.4,124.8-15
				c2.2,0.9,5,6.1,3.5,14.1c2.5,5.1,2.8,12.2-0.9,14.7c0,0.1,0,0.2,0.1,0.4c0.1,1.9-1.5,3.5-3.5,3.4c-14.5-0.8-81.9-8.5-118,13.4
				c-1.6,1-3.7,0.4-4.7-1.2c-1-1.8-1.7-4.5-1.2-8.5c-3.6-3-2.8-11.1-1.5-13.1C453.8,427.6,454.2,424.4,455.3,423.5z"/>
			<path class="st12" d="M632.5,601.7c-1.6-13.7-13.7-14.9-17.6-13.7c-3.8-6.5-10-9.5-17-6.9c-1.3-4.7-12.3-8.1-15.3-5.9
				c0.8,22.2-2.7,236.6-30,315.6c-1.5,7.2,51.4,29.7,70.5,16.2C625.2,896.7,646.9,663.1,632.5,601.7z"/>
			<path class="st7" d="M383.2,1002c-4.1,35.1-9.1,71.1-15,107.9c-2.5,15.6-5.1,31.1-7.8,46.3c33.8,12.7,83.4,26.9,144.7,29.8
				c74.9,3.5,135.3-11.6,172.8-24.2c-3.1-24.4-6.5-49.4-10.4-74.9c-4-26.3-8.4-51.9-12.9-76.8c-23.4,12.5-88.2,43.2-170.8,30.2
				C438.4,1033.2,404.1,1015.3,383.2,1002z"/>
			<path class="st8" d="M496.8,629.1c-2.4,1.2-5.8,3.2-8.9,6.6c-7.7,8.5-6.3,17.6-9.6,18.2c-4.5,0.8-11.1-15.9-14.2-25.3
				c-2.4-7.4-6.1-19.2-5.6-35.3c0.3-10.2,2.2-18.6,4-24.3c0.3-1,1.4-4.4,4.9-6.7c3.9-2.6,7.9-2.1,8.8-1.9
				c-1.8,2.8-10.9,16.9-7.1,35.3C473.8,618.8,494.8,628.3,496.8,629.1z"/>
			<path class="st8" d="M537,629c2.3,1.3,5.6,3.5,8.4,7.2c7.1,8.9,5.1,18,8.4,18.7c4.4,1.1,12.2-15.1,15.8-24.3
				c2.9-7.2,7.4-18.8,7.9-34.8c0.3-7.4-0.4-14-1.3-19.2c-0.4-2.5-0.8-4.4-1.1-5.3c-0.5-2.3-1-4.4-1.6-5.6c-1.9-3.9-7.2-5.5-10.9-6.1
				c2.1,5.2,3.9,11.9,3.8,19.5C566.5,608,540.7,626.5,537,629z"/>
			<g>
				<path class="st8" d="M537,629c-6.2,14.2-12,28.7-16.3,43.5c-1.7,7.3-2.5,15.3-3,22.8c-0.6,7.1-0.9,16.1-1.1,23.3
					c-0.2,9.7-0.3,21.4-0.2,31.1c0.1,10.4,0.3,20.8,0.5,31.2c0,0-1.3-1.1-1.3-1.1c7.5-0.2,15.1-0.4,22.6-0.5
					c-7.9,1.2-15.7,2.1-23.6,3c-1.9-18.4-3.1-37.4-3-56c0.1-13,0.5-26.3,2.3-39.2c0.7-5.2,1.5-10.4,3.1-15.6
					c1.6-5.1,3.8-9.9,5.8-14.9C526.5,647.7,531.6,637.7,537,629L537,629z"/>
			</g>
			<circle class="st8" cx="527.5" cy="683.1" r="4.8"/>
			<circle class="st8" cx="526.1" cy="728.2" r="4.8"/>
			<circle class="st8" cx="526.1" cy="767.2" r="4.8"/>
		</g>
	</g>
	<g>
		<path class="st4" d="M641,337.1c-6.2,0-11.3-4.8-11.8-10.9l-0.1-1.4c-2.8-25.5,5.7-53.4,29.3-81.8c21.3-25.1,33.1-43.5,33.1-64.8
			c0-24.1-15.1-40.2-44.9-40.7c-11.2,0-23.2,2.4-33.4,6.7c-8.3,3.4-17.7-0.7-20.9-9.1v0c-3-7.8,0.6-16.7,8.2-20.2
			c15.4-7.1,35.6-11.4,54.6-11.4c54.4,0,79,33.6,79,69.5c0,32.2-18,55.3-40.7,82.3c-20.8,24.6-28.4,45.4-27,69.5v0
			c0.3,6.7-5.1,12.3-11.8,12.3H641z M619.7,400.2c1.3-15.9,12.7-26.7,28.3-26.7c16.6,0,27.9,12.3,27.9,29.8c0,14.1-7.9,25.4-21,28.5
			C633.5,436.8,617.9,422.2,619.7,400.2z"/>
	</g>
</g>
</svg>
