<?xml version="1.0" encoding="utf-8"?>
<!-- Generator: Adobe Illustrator 26.0.1, SVG Export Plug-In . SVG Version: 6.00 Build 0)  -->
<svg version="1.1" id="Layer_1" xmlns="http://www.w3.org/2000/svg" xmlns:xlink="http://www.w3.org/1999/xlink" x="0px" y="0px"
	 viewBox="0 0 1000 1000" style="enable-background:new 0 0 1000 1000;" xml:space="preserve">
<style type="text/css">
	.st0{clip-path:url(#SVGID_00000128465414645677191840000014405001419115066500_);}
	.st1{clip-path:url(#SVGID_00000109736504295124380140000000214891317372514964_);fill:#BDDEEF;}
	.st2{clip-path:url(#SVGID_00000109736504295124380140000000214891317372514964_);fill:#52A7C1;}
	.st3{clip-path:url(#SVGID_00000109736504295124380140000000214891317372514964_);}
	.st4{fill:none;stroke:#FFFFFF;stroke-width:1.4981;stroke-miterlimit:10;}
	.st5{fill:#DE9F7E;}
	.st6{fill:#D34047;}
	.st7{fill:#B7303D;}
	.st8{fill:#D38A6A;}
	.st9{fill:#FCB856;}
	.st10{fill:#CE8065;}
	.st11{fill:#FFFFFF;}
	.st12{fill:#6B3628;}
	.st13{fill:#211E1F;}
	.st14{fill:#99CCE0;}
</style>
<g>
	<g>
		<defs>
			<path id="SVGID_1_" d="M744.4,421.1c-10.6-18.9-23-35.6-35.9-49.6c-2.3-2.6-47.1-40.4-47.1-40.4c-1.3-1-2.5-2-3.7-3
				c-35.8-30-63-84.4-162.4-76.1c-46.3,3.9-76.6,22.7-98.3,48c-6.5,7.6-12.3,15.9-17.5,24.6c-15.9,26.6-26.5,57.2-37.3,84
				c-14.3,35.3-65.3,40.8-83.7,81.8c-16.8,19.3-25.5,49.7-29.9,71.9c-3.2,15.9-4.1,27.5-4.1,27.5c-5,111.2,94.9,196.3,197.9,227.1
				c23.1,6.9,46.3,11.1,68.5,12.2c10.5,0.5,20.8,0.4,30.7-0.4c2-0.2,4-0.4,6.1-0.6c1.4-0.2,2.8-0.3,4.2-0.5c1.2-0.1,2.4-0.3,3.6-0.5
				c0.7-0.1,1.3-0.2,2-0.3c0.6-0.1,1.3-0.2,1.9-0.3c33.4-5.1,70.8-16.8,105.1-34.7c0.2-0.1,0.3-0.2,0.5-0.3
				c55.3-29,102.5-74.3,111.5-134.9c8-39.6,19-62.7,19-121.9C777.5,495.3,744.4,421.1,744.4,421.1z"/>
		</defs>
		<clipPath id="SVGID_00000017505867547074593860000005238065339765077427_">
			<use xlink:href="#SVGID_1_"  style="overflow:visible;"/>
		</clipPath>
		<g style="clip-path:url(#SVGID_00000017505867547074593860000005238065339765077427_);">
			<g>
				<g>
					<g>
						<defs>
							<path id="SVGID_00000026132077793891428960000011237575102228402854_" d="M744.4,421.1c-10.6-18.9-23-35.6-35.9-49.6
								c-0.1,0.2-0.3,0.4-0.4,0.7c0.1-0.2,0.3-0.4,0.4-0.7c-2.3-2.6-47.1-40.4-47.1-40.4l0,0c-1.3-1-2.5-2-3.7-3
								c-35.8-30-63-84.4-162.4-76.1c-46.3,3.9-76.6,22.7-98.3,48c-6.5,7.6-12.3,15.9-17.5,24.6c-15.9,26.6-26.5,57.2-37.3,84
								c-14.3,35.3-65.3,40.8-83.7,81.8c-16.8,19.3-25.5,49.7-29.9,71.9c-3.2,15.9-4.1,27.5-4.1,27.5
								c-5,111.2,94.9,196.3,197.9,227.1c23.1,6.9,46.3,11.1,68.5,12.2c10.5,0.5,20.8,0.4,30.7-0.4c2-0.2,4-0.4,6.1-0.6
								c1.4-0.2,2.8-0.3,4.2-0.5c1.2-0.1,2.4-0.3,3.6-0.5c0.7-0.1,1.3-0.2,2-0.3c0.6-0.1,1.3-0.2,1.9-0.3
								c33.4-5.1,70.8-16.8,105.1-34.7c0.2-0.1,0.3-0.2,0.5-0.3c55.3-29,102.5-74.3,111.5-134.9c1.3-8.5,12.1-34.3,15.6-71.4
								C779.1,512.4,758.8,453.7,744.4,421.1z M667.4,377.6c0,0,0.1,0.1,0.1,0.1C667.4,377.7,667.4,377.7,667.4,377.6z"/>
						</defs>
						<clipPath id="SVGID_00000108270053433341740770000013890118049467818685_">
							<use xlink:href="#SVGID_00000026132077793891428960000011237575102228402854_"  style="overflow:visible;"/>
						</clipPath>
						<path style="clip-path:url(#SVGID_00000108270053433341740770000013890118049467818685_);fill:#BDDEEF;" d="M744.4,421.1
							c-10.6-18.9-23-35.6-35.9-49.6c-2.3-2.6-47.1-40.4-47.1-40.4c-1.3-1-2.5-2-3.7-3c-35.8-30-63-84.4-162.4-76.1
							c-46.3,3.9-76.6,22.7-98.3,48c-6.5,7.6-12.3,15.9-17.5,24.6c-15.9,26.6-26.5,57.2-37.3,84c-14.3,35.3-65.3,40.8-83.7,81.8
							c-16.8,19.3-25.5,49.7-29.9,71.9c-3.2,15.9-4.1,27.5-4.1,27.5c-5,111.2,94.9,196.3,197.9,227.1c23.1,6.9,46.3,11.1,68.5,12.2
							c10.5,0.5,20.8,0.4,30.7-0.4c2-0.2,4-0.4,6.1-0.6c1.4-0.2,2.8-0.3,4.2-0.5c1.2-0.1,2.4-0.3,3.6-0.5c0.7-0.1,1.3-0.2,2-0.3
							c0.6-0.1,1.3-0.2,1.9-0.3c33.4-5.1,70.8-16.8,105.1-34.7c0.2-0.1,0.3-0.2,0.5-0.3c55.3-29,102.5-74.3,111.5-134.9
							c8-39.6,19-62.7,19-121.9C777.5,495.3,744.4,421.1,744.4,421.1z"/>
						<path style="clip-path:url(#SVGID_00000108270053433341740770000013890118049467818685_);fill:#52A7C1;" d="M196.3,617.8
							h624.2v20.9L636.3,865c0,0-272.3-6.7-288.4-16.6S207.4,632.1,207.4,632.1"/>
						<g style="clip-path:url(#SVGID_00000108270053433341740770000013890118049467818685_);">
							<ellipse class="st4" cx="391.8" cy="316.2" rx="13.9" ry="17.5"/>
						</g>
					</g>
				</g>
				<g>
					<path class="st5" d="M653.9,869c-1.7-2.9-8.6-35.9-17.8-56.2c-9.2-20.3-27.8-61.5-23.9-100.2c7.1-19.2,43.2-15.5,47.7-11.2
						c4,19.7,19.6,131.2,19.1,167.7C678.3,875,657.3,880.6,653.9,869z"/>
					<path class="st5" d="M346.8,867.2c1.7-2.9,8.6-35.9,17.8-56.2c9.2-20.3,27.8-61.5,23.9-100.2c-7.1-19.2-43.2-15.5-47.7-11.2
						c-4,19.7-19.6,131.2-19.1,167.7C322.4,873.2,343.4,878.8,346.8,867.2z"/>
					<g>
						<g>
							<path class="st6" d="M329.5,728c17-58,28.3-99.6,31.2-120.1c0.7-5.1,2.9-19.4,13.4-27.8c3.5-2.7,7.8-4.7,13.5-5.7
								c9.9-1.7,16.8-2.4,26.4-5.1l27.8,23.7c-14,51.7-28,103.5-42,155.2c-10.9-3.4-22-6.7-33.3-9.9
								C354,734.7,341.6,731.3,329.5,728z"/>
						</g>
						<path class="st7" d="M402.8,717.8c-23.7-7.1-47.5-14.2-71.2-21.4c-1.6,5.4-3.2,11.2-4.6,17.5c-1.2,5.6-2.2,10.9-2.9,15.9
							c24.1,7.1,48.2,14.2,72.3,21.3c1.6-3.7,3.2-8.3,4.5-13.5C402.6,729.9,403,723.1,402.8,717.8z"/>
						<g>
							<g>
								<path class="st5" d="M543.4,543.8c-1.5,5.2-5.3,15.6-14.9,24.1c-1.8,1.6-24.4,20.9-44.5,10c-16.8-9.1-17.7-31.4-17.7-32.6
									c0.4-31.4-1.5-54.2-2.2-57.3c-0.9-4.4-2.1-8.5-2.1-8.5c0,0,0,0,0,0c-1.2-4.3-2.4-8.5-3.7-12.5c13.1-6.2,49.4-9.5,67.2,14.9
									c6.7,9.2,10.8,22.3,10,40.6c0.3,2.6,0.8,5.7,1.9,9.1C539.1,536.9,541.5,541,543.4,543.8z"/>
								<path class="st8" d="M535.5,522.5c0.1,1.1,0.3,2.3,0.5,3.6c0.4,2,0.8,3.9,1.4,5.5c-3.4,0.1-7.9-0.1-13.2-0.8
									c-5.8-0.8-10.1-2-11.2-2.3c-7.7-2.2-18.5-5.3-26.3-14.6c-3.8-4.6-5.6-9-7.6-14.2c-2.7-6.8-3.8-12.8-4.4-17
									c7.5-3.7,30-13.5,47.1-3.5c1.2,0.7,2.5,1.6,3.7,2.6C532.2,491.1,536.3,504.2,535.5,522.5z"/>
								<path class="st5" d="M560.2,436.4c0,0.3,0,0.5,0,0.8c0,1.5-0.3,3-0.8,4.5c0,0-0.4,1.1-1.5,5.4c-0.6,2.3,0,13.3,2,28.6
									c0.3,2.6,0.5,6.4,0.1,11.5c-0.4,6-1.1,16.1-6.9,26.7c-1.4,2.5-3.5,5.9-6.8,9.6c-1.3,1.4-3.1,2.3-5,2.4
									c-1.8,0.1-3.8,0.2-6.1,0.1c-0.4,0-1.1-0.1-2.1-0.2c-5.9-0.4-12.7-1.2-20-2.8c-4.5-1-9.9-2-13.8-3.2
									c-8.7-2.8-15.5-9.6-18.5-18.2c-2.2-5.2-3.2-10.6-5.4-15.8c-1-3.3-1.9-6.6-2.9-9.9c-0.2-0.2-0.3-0.4-0.4-0.4
									c-0.8-0.3-1,0-2.1-0.1c-10.4-0.3-18.9-12.5-21.1-15.9c-9.6-14.1-16.8-45.3,1.2-66.1c11.5-13.4,27.5-15.5,36.2-17
									c12.6-2.2,66.9-1.7,70.8,43.7c0.3,3.6,0.9,7.3,2,10.7c0.1,0.5,0.3,0.9,0.4,1.4c0.1,0.2,0.1,0.5,0.2,0.7
									C560,434,560.2,435.2,560.2,436.4z"/>
								<path d="M470.4,453.3c3.8,2.2,2.7,6.4,3,7.5c1.1,0.8,4.8,1.4,5.9,2.2c-0.4-3.3-0.7-6.6-1.1-9.8c-0.2-4.2,0.8-6.9,1.7-8.6
									c1.2-2.3,2.4-3,5.2-6.6c0,0,2.2-2.8,4.1-6.2c4.9-8.9,6.3-18,6.7-21.1c0.2-2,0.3-3.6,0.4-4.6c2.2-0.3,5.5-0.8,9.6-1
									c6-0.3,10.4,0,12,0.1c16.8,1,25.8-7.5,33.3-2.8c2.9,1.8,6.2,5.9,6.9,16.9c4.1-16.9,0.1-27.2-2-31.5
									c-13.4-27.4-61.2-33.9-87.4-14.5c-7.4,5.5-11.8,12-14.3,16.3c-7.7,3.1-11.7,7.4-13.7,10.1c-9.7,13-6.1,32.3-2.9,49.6
									c0.5,2.7,1.2,5.3,1.2,5.3c1.5,5.1,3.3,8.7,3.8,9.7c4.3,8.7,12.7,34.6,17.4,43.1c0.6,1,1.7,2.9,3.8,3.7
									c1.5,0.6,2.9,0.4,3.8,0.1c-0.5-13.9-2.5-23.5-4.4-29.7c0,0,0-0.1-0.1-0.2c-0.6-1.9-2.4-8.4-3.7-14.2
									c-1.7-7.5-2.5-11.3-1.4-12.8C460.3,451.1,466.3,450.9,470.4,453.3z"/>
								<path id="XMLID_00000120550100829930662650000014767051928612451468_" class="st9" d="M430.5,432.3
									c65.2-46.7,105.1-47.7,118.5-48.1c2.4,0.2,6.4,4.1,7.1,11.7c3.7,3.9,5.8,10.2,2.9,13.5c0,0.1,0.1,0.2,0.2,0.3
									c0.6,1.7-0.6,3.6-2.5,4.1c-14.4,3.3-51.4-3.6-112.2,44.8c-1.3,1.3-3.6,1.4-4.9,0.2c-1.4-1.3-2.8-3.6-3.3-7.3
									c-4.3-1.7-5.6-9.2-4.8-11.4C430.1,436.5,429.4,433.1,430.5,432.3z"/>
								<path class="st5" d="M474,454.2c-2.6-11.9-8.5-13.8-8.5-13.8c-4.4-1.2-9.8,1.5-12.1,5.6c-1.8,3.3-1.2,6.7-0.7,9.1
									c0.9,4.5,3.2,7.4,6.3,11.5c2.3,3,3.5,4.5,5.6,5.8c4.1,2.6,8.4,2.6,10.5,2.4c0.3-0.2,0.8-0.5,1.2-1.1
									c1.9-2.5,0.3-6.2-1.6-17.1C474.7,456.7,474.3,455.6,474,454.2z"/>
							</g>
							<path class="st10" d="M544.9,503c0.3-0.9-6.1-4.3-13.2-4.8c-3.8-0.2-7.9,0.4-8,1.1c0,0.8,4.3,1.6,8.2,2.3
								C536.9,502.6,544.6,504,544.9,503z"/>
							<g>
								<path class="st11" d="M539.4,454.7c2.8-6.6,8.5-9.1,11.4-7.6c2.1,1,3.1,4.2,3,7.5C551.6,461.6,545.1,461.2,539.4,454.7z"/>
								
									<ellipse transform="matrix(0.9961 -8.816550e-02 8.816550e-02 0.9961 -37.7975 50.0807)" class="st12" cx="548" cy="452.9" rx="3.9" ry="6.1"/>
								
									<ellipse transform="matrix(0.9961 -8.816550e-02 8.816550e-02 0.9961 -37.7419 50.1332)" cx="548.6" cy="452.3" rx="2.1" ry="3.2"/>
								
									<ellipse transform="matrix(7.535525e-02 -0.9972 0.9972 7.535525e-02 56.0168 962.2654)" class="st11" cx="546.9" cy="450.9" rx="0.9" ry="0.6"/>
								<path class="st13" d="M553.8,454.5c0.1-2.9-1.3-5.5-3.4-6.5c-3.3-1.5-6.9,1.5-7.8,2.3c-1.8,1.5-2.7,3.3-3.1,4.4
									c0.3-1.2,1.1-3.5,3.1-5.4c0.5-0.4,5.2-4.7,8.8-2.6C553.6,447.9,554.6,451.2,553.8,454.5z"/>
							</g>
							<path class="st10" d="M544.2,482.1c0.3,0.4-1.6,3.3-4.5,4.3c-4.9,1.7-10.2-2.7-10-3.1c0.1-0.4,3.9,2,8.9,1
								C541.9,483.5,543.9,481.7,544.2,482.1z"/>
							<g>
								<path d="M497.1,445.1c0.8-2.3,2.1-5,4.2-7.8c0,0,0,0,0,0c1.2-1.6,2.9-2.7,4.9-3.3c4.7-1.4,9.3-2.7,14-4.1
									c0.5,0.3,1.3,0.8,1.9,1.7c0.5,0.8,0.8,1.5,0.9,2c-5.5,1.6-10.9,3.2-16.4,4.8c-1.2,0.4-2.3,0.9-3.3,1.7
									C501.3,441.8,499.2,443.5,497.1,445.1z"/>
							</g>
							<g>
								<path d="M558.8,440c-1.3-0.9-2.7-1.8-4.2-2.6c-0.3-0.2-0.7-0.3-1-0.5l-15.5-5.1c0.1-0.5,0.4-1.2,1-1.9
									c0.7-0.9,1.5-1.4,1.9-1.7c4.4,1.4,8.8,2.9,13.2,4.3c1.2,0.4,2.1,1,2.1,1c1.8,1,3.1,1.9,4,2.6c-0.1,0.6-0.3,1.4-0.7,2.3
									C559.5,439.1,559.1,439.6,558.8,440z"/>
							</g>
							<g>
								<path class="st11" d="M523.7,456.6c-0.6,0.6-1.4,1.4-2.6,2.1c-2.7,1.6-5.4,1.6-6.8,1.6c-5.2,0-9.1-2.7-10.6-3.9
									c0.7-1.4,3-5.7,8-7.5c1.4-0.5,4-1.4,6.7-0.3C523,450.4,523.7,456.4,523.7,456.6z"/>
								<g>
									<path class="st12" d="M519.8,453.9c0.2,3-1.8,5.6-4.3,5.8c-2.6,0.1-4.8-2.2-4.9-5.2s1.8-5.6,4.3-5.8
										C517.5,448.5,519.7,450.9,519.8,453.9z"/>
									<path d="M518.6,454.1c0.1,1.5-0.9,2.8-2.2,2.9c-1.3,0.1-2.4-1.1-2.5-2.6c-0.1-1.5,0.9-2.8,2.2-2.9
										C517.4,451.4,518.5,452.5,518.6,454.1z"/>
									<path class="st11" d="M515,452.7c0,0.5-0.4,0.9-0.8,0.8c-0.4,0-0.7-0.4-0.7-0.9c0-0.5,0.4-0.9,0.8-0.8
										C514.7,451.8,515,452.2,515,452.7z"/>
									<path d="M523.7,456.6c-0.2-0.7-1.7-5.3-5.9-6.9c-4.7-1.8-11,0.7-14.1,6.7C503.7,452.8,518.4,436.1,523.7,456.6z"/>
								</g>
							</g>
							<g>
								<path d="M473.1,480.9c-1.6,0.1-2.5-3-2.7-5.8l1.1,0.1c0.2,3.1,1.2,4.6,1.5,4.6c0.4,0,1.1-1.8,0.9-4.9
									c-0.2-3.1-1.2-4.8-1.6-4.7c-0.3-0.3-0.4-0.6-0.1-1.1c1.6-0.1,2.5,2.9,2.7,5.7C475.1,477.7,474.6,480.8,473.1,480.9z"/>
							</g>
						</g>
						<g>
							<g>
								<g>
									<path class="st5" d="M401.1,592.6c0.1-5.5-0.9-13.3,1.1-18.6c19.7-3.6,43.6-21.6,58.6-29.7c0.8-0.4,1.6-1.3,2.3-2.2
										c1.5-2.6,2.5-5.7,3.2-9c1.5,2.3,2.9,4.6,4.5,6.9c4.4,6.2,9.7,12.1,16.6,15.5c6.6,3.2,14.3,4.1,21.5,3.2
										c7.4-0.9,14.2-3.7,19.6-8.9c4.4-4.3,7.6-9.6,9.8-15.3c0.4,1.5,0.8,2.9,1.3,4.1c0,0,40.8,31.2,64.6,35.5
										c3.9,1.4,3.7,10.2,3.9,13.2c0.6,9.6,2.1,23.7,1.5,33.4c-0.9,15-2.3,29.9-3.8,44.8c-1.4,14.2-0.9,28-5.8,41.6
										c-3.3,9.3-8.9,17.4-11.3,27c-2.5,10.1-2.9,20.3-2.2,30.5H423.5c0-5.3-0.3-10.7-1-16c-0.9-7.5-2.6-14.9-5.2-22
										c-3-7.9-8-14.8-10.5-22.9c-2.5-8-3.5-16.4-4.2-24.7c-1.2-14.2-1.4-28.4-1.6-42.6C400.8,623.3,400.8,605.7,401.1,592.6z"/>
								</g>
								<g>
									<path class="st6" d="M673.6,725.1c-17-58-28.3-99.6-31.2-120.1c-0.7-5.1-2.9-19.4-13.4-27.8c-3.5-2.7-7.8-4.7-13.5-5.7
										c-9.9-1.7-16.8-2.4-26.4-5.1l-27.8,23.7c14,51.7,28,103.5,42,155.2c10.9-3.4,22-6.7,33.3-9.9
										C649.1,731.8,661.5,728.4,673.6,725.1z"/>
								</g>
								<path class="st6" d="M622.9,573.5c-54.8-17.3-71.3-25.9-73-30.2c-0.3-0.7-1.6-4.3-4.7-6.1c-1.9-1.1-6-1.2-6-1.2
									c10.1,23.1,10.4,46.1-17.2,57.1c-3.2,1.3-18.9,27.5-20,34.2c0,0-11.6-32.8-15-34c-30.3-11-28.1-37.2-21.2-57.8
									c-1.1,0.2-3.1,0.5-5.2,1.9c-0.8,0.5-2.5,1.7-3.8,3.9c-0.6,1-1,2-1.3,2.7c-25.2,12-44.1,20.6-51.2,23.6
									c-6.7,2.8-13.3,5.4-19.9,7.9c0,1.3-0.1,3.4-0.1,5.9c-0.3,32,5.8,50.7,11,88.5c3.4,25.1,7.1,54.3,10.3,113.4
									c0.3,5.6,0.9,16.4-0.2,30.6c-1.4,18.7-5.3,32.3-5.9,37.5c-3.2,24.7-16.3,87.8-16.5,96.9c30,10.4,76.6,22.5,134.3,21.3
									c43-1,78.9-9.1,104.9-17.2c-6.5-48.5-11-81.6-12.8-93.5c-0.4-2.7-1.7-11-2.8-22.4c-0.3-3.5-0.6-7.2-0.9-11.2
									c-0.9-15.1-0.5-23.6-0.4-46.7c0.2-34.7,0.5-32.9-0.1-46.4c-1.3-27.6,7.5-62.3,7.5-62.3C617.1,651.9,621.7,622.9,622.9,573.5
									z"/>
								<g>
									<path d="M503.2,563.1c2.8-0.1,20.1-0.5,29.7-13.5c2.2-3,3.5-5.9,4.1-7.9c0.9-2.5,1.4-4.7,1.7-6.4c0-0.1,0-0.1,0.1-0.2
										c0.1-0.3,0.7-2.1-0.3-3.8c-0.2-0.3-0.5-0.7-1-1.1c-0.1,1-0.3,2.3-0.7,3.9c0,0-1.7,7.2-5.6,13.1
										c-5.5,8.2-27.5,19.1-46.2,9.3c-13.2-6.9-17.6-20.3-18.6-23.7c-0.3,0.2-0.7,1.2-1.1,2.3c-0.2,0.7-0.2,2-0.2,2.3
										c1.6,3.6,5.2,14.9,18.8,21.4C486.1,560,493.3,563.3,503.2,563.1z"/>
								</g>
							</g>
							<path class="st9" d="M407.3,570.6c1.3-11.5,11.5-12.4,14.7-11.5c3.2-5.5,8.4-7.9,14.2-5.8c1.1-3.9,10.3-6.8,12.8-4.9
								c-0.7,18.6,2.2,198.2,25.2,264.4c1.2,6-43,24.9-59.1,13.6C413.4,817.8,395.2,622.1,407.3,570.6z"/>
							<path class="st6" d="M616.2,906.1c3.5,29.4,7.6,59.6,12.5,90.4c2.1,13.1,4.3,26.1,6.5,38.8c-28.3,10.6-69.9,22.6-121.3,24.9
								c-62.7,2.9-113.3-9.7-144.8-20.3c2.6-20.4,5.5-41.4,8.7-62.7c3.4-22,7-43.5,10.8-64.3c19.6,10.5,73.9,36.2,143.1,25.3
								C569.9,932.2,598.6,917.2,616.2,906.1z"/>
							<path class="st7" d="M521,593.6c2,1,4.8,2.7,7.5,5.5c6.4,7.1,5.3,14.7,8,15.2c3.7,0.7,9.3-13.3,11.9-21.2
								c2-6.2,5.1-16.1,4.7-29.6c-0.3-8.5-1.9-15.5-3.3-20.4c-0.2-0.8-1.2-3.7-4.1-5.6c-3.2-2.2-5.9-1.9-6.6-1.7
								c1.5,2.3,8.4,14.3,5.2,29.7C540.3,585,522.7,592.9,521,593.6z"/>
							<path class="st7" d="M487.3,593.5c-1.9,1.1-4.7,3-7.1,6c-5.9,7.5-4.3,15-7,15.7c-3.7,0.9-10.2-12.7-13.3-20.3
								c-2.4-6.1-6.2-15.7-6.6-29.2c-0.2-6.2,0.3-11.7,1.1-16.1c0.4-2.1,0.7-3.7,0.9-4.4c0.5-1.9,0.9-3.7,1.4-4.7
								c1.6-3.3,5.3-4.5,8.4-5c-1.8,4.4-2.5,9.8-2.5,16.2C462.6,576,484.2,591.4,487.3,593.5z"/>
							<g>
								<path class="st7" d="M487.3,593.5c7,11.4,12.5,23.1,16.9,35.6c3.4,12.9,4,26.2,4.4,39.4c0.4,17.9-0.6,35.7-2.4,53.5
									c-5.9-0.8-13.9-1.6-19.8-2.5c5.5,0.1,13.4,0.2,19,0.4c0,0-1.1,0.9-1.1,0.9c0.5-26,1.2-52.2-1.2-78.2c-0.4-4.3-1-8.6-2-12.7
									c-1.1-4.1-2.7-8.1-3.9-12.2C494.1,609.6,490.9,601.5,487.3,593.5L487.3,593.5z"/>
							</g>
							<circle class="st7" cx="495.3" cy="638.9" r="4"/>
							<circle class="st7" cx="496.5" cy="676.6" r="4"/>
							<circle class="st7" cx="496.5" cy="709.4" r="4"/>
						</g>
						<path class="st7" d="M600.3,714.9c23.7-7.1,47.5-14.2,71.2-21.4c1.6,5.4,3.2,11.2,4.6,17.5c1.2,5.6,2.2,10.9,2.9,15.9
							c-24.1,7.1-48.2,14.2-72.3,21.3c-1.6-3.7-3.2-8.3-4.5-13.5C600.5,727,600.1,720.2,600.3,714.9z"/>
					</g>
				</g>
			</g>
		</g>
	</g>
	<g>
		<path class="st14" d="M735.7,236.9c-0.8-36.7-30.7-66.2-67.6-66.2c-22.4,0-42.3,10.9-54.6,27.7c-4-1.9-8.4-3-13.1-3
			c-16.6,0-30.1,13.5-30.1,30.1c0,0.8,0,1.6,0.1,2.4c-13.1,7-22,20.7-22,36.6c0,22.9,18.6,41.4,41.4,41.4c6.8,0,13.2-1.6,18.8-4.5
			c6.8,16.6,23.2,28.3,42.3,28.3c17.6,0,32.8-9.9,40.5-24.5c6.7,4.8,14.9,7.7,23.8,7.7c22.5,0,40.8-18.2,40.8-40.8
			C756.1,257.1,747.9,244,735.7,236.9z"/>
		<path class="st14" d="M627.2,308.9c0,11.5-9.3,20.9-20.9,20.9c-11.5,0-20.9-9.3-20.9-20.9c0-11.5,9.3-20.9,20.9-20.9
			C617.8,288.1,627.2,297.4,627.2,308.9z"/>
		<path class="st14" d="M598.6,338.8c0,7.3-5.9,13.1-13.1,13.1c-7.3,0-13.1-5.9-13.1-13.1c0-7.3,5.9-13.1,13.1-13.1
			C592.7,325.7,598.6,331.6,598.6,338.8z"/>
		<path class="st14" d="M592,363.9c0,3.6-2.9,6.6-6.6,6.6c-3.6,0-6.6-2.9-6.6-6.6c0-3.6,2.9-6.6,6.6-6.6
			C589.1,357.3,592,360.2,592,363.9z"/>
	</g>
</g>
</svg>
