<?xml version="1.0" encoding="utf-8"?>
<!-- Generator: Adobe Illustrator 26.0.1, SVG Export Plug-In . SVG Version: 6.00 Build 0)  -->
<svg version="1.1" id="Layer_1" xmlns="http://www.w3.org/2000/svg" xmlns:xlink="http://www.w3.org/1999/xlink" x="0px" y="0px"
	 viewBox="0 0 703.3 662" style="enable-background:new 0 0 703.3 662;" xml:space="preserve">
<style type="text/css">
	.st0{fill:#BDDEEF;}
	.st1{fill:#52A7C1;}
	.st2{fill:#99CCE0;}
	.st3{fill:#231F20;}
	.st4{fill:#DE9F7E;}
	.st5{fill:#FFFFFF;}
	.st6{fill:#D3D3D3;}
	.st7{fill:#D38A6A;}
	.st8{fill:#D34047;}
	.st9{fill:#CE8065;}
	.st10{fill:#FCB856;}
	.st11{fill:#B7303D;}
	.st12{fill:#DD9373;}
</style>
<g>
	<g>
		<g>
			<path class="st0" d="M187.2,93.3c-10.5,10.1-20.3,21.8-26.8,33.8c-13.6,25.1-14.7,61-10.6,88.4c2.8,19,15.1,45.3,9.1,64.4
				c-8.2,26-51.2,24.9-72.2,31.4c-19.3,6-37.6,20.7-47.5,38.6C9,404.8,45.4,434.2,63.6,458.8c20.7,27.9-24.4,61.7,1.5,89.5
				c27,29.1,59.6,41.2,113.6,41.2c107.1,0,131.1,8.4,279.5-2.1c28.1-2,65.6-8.4,93.6-11.4c42.3-4.5,146.6-41.3,119.4-110.8
				c-20.1-51.4-125.9-43.5-90.5-113.8c23.2-46,66.8-109.8,12.6-150.4c-39.4-29.5-64.6-46.4-87.4-91c-25-48.8-60.1-75.3-115.4-79.9
				c-29.9-2.5-60.2-2.3-89.6,4.4c-35.8,8.1-71.2,23.7-100,46.8C196.4,84.8,191.8,88.9,187.2,93.3z"/>
			<g>
				<path class="st1" d="M537.4,407.8c-4.1-31.3,49.6-34,44.5-4.5c11.8-19.7,44.9-0.4,35.8,22c9.7-1.8,17.4,6.1,21,14.4
					c4.5,10.3,1.2,17.6-5.7,26c9.3-0.1,19,8,19.6,17.6c0.9,13.8-1.3,18-8.7,25.3c10.2,1,13.4,13.5,13.1,22.7
					c-0.4,14.2-7.5,17.3-19.8,19.6c-14.6,2.7-26.6,2.9-41.4,1.1c-12.3-1.5-25.6-5.9-38.4-5.8c-20.9,0.2-41.7-2.4-62.4-5.3
					c-13.9-2-33.5-0.8-42.6-13.3c-7.4-10.2-10-23.1-5.1-34.7c2.7-6.3,16.3-23.8,24.3-12.6c-11.3-9.2-11.4-18.2-7.9-28.7
					c3.5-10.6,15.8-19.9,26.3-14.4c-7.1-13.7-0.8-28.3,11.7-37.1C501.8,400,524.3,384.9,537.4,407.8z"/>
				<path class="st1" d="M372.9,498.4c-19-21.1,11.1-50.1,31.6-33.3c-17.1-33.9,42.7-53,44.9-17.2c15-19.2,49.4-9,41.8,17.5
					c29-8.7,43,29.5,25.4,43.6c15.1,3.6,17.8,26.4,6.8,35.2c-9.9,7.9-34.4,6-47.3,6c-17,0-34.3-1-50.9-2.4
					c-18.8-1.6-48.4,4.2-64.1-9.6c-6.9-6.1-14.7-11.7-11.2-29.1C351.4,502.2,366.5,487.5,372.9,498.4z"/>
				<path class="st1" d="M586.5,525.2c-10.2-11.4,6-27,17-17.9c-9.2-18.2,23-28.5,24.2-9.3c8.1-10.3,26.6-4.8,22.5,9.4
					c15.6-4.7,23.1,15.9,13.7,23.4c8.1,1.9,9.6,14.2,3.7,18.9C662.2,554,649,553,642,553c-9.2,0-18.5-0.6-27.4-1.3
					c-10.1-0.8-26,2.3-34.5-5.2c-3.7-3.3-7.9-6.3-6-15.6C574.9,527.2,583,519.3,586.5,525.2z"/>
				<path class="st1" d="M98.3,515.2c-10.2-11.4,6-27,17-17.9c-9.2-18.2,23-28.5,24.2-9.3c8.1-10.3,26.6-4.8,22.5,9.4
					c15.6-4.7,23.1,15.9,13.7,23.4c8.1,2,9.6,14.2,3.7,18.9c-5.3,4.2-18.5,3.2-25.5,3.2c-9.2,0-18.5-0.6-27.4-1.3
					c-10.1-0.8-26,2.3-34.5-5.2c-3.7-3.3-7.9-6.3-6-15.6C86.7,517.2,94.8,509.3,98.3,515.2z"/>
			</g>
			<path class="st2" d="M690.9,571.9c0,34-151.9,61.5-339.2,61.5c-187.3,0-339.2-27.6-339.2-61.5c0-34,151.9-61.5,339.2-61.5
				C539,510.4,690.9,537.9,690.9,571.9z"/>
		</g>
	</g>
	<g>
		<g>
			<g>
				<g>
					<g>
						<path class="st3" d="M276,550.4c-0.3-1-0.7-1.8-1.2-2.7c0,0,0,0,0,0c-0.1-0.1-0.1-0.2-0.2-0.3c-0.1-0.2-0.2-0.4-0.3-0.6
							c-0.2-0.3-0.4-0.6-0.6-0.9c-0.2-0.2-0.3-0.4-0.5-0.6c-0.2-0.3-0.5-0.5-0.7-0.8c-0.1-0.1-0.1-0.2-0.2-0.2c0,0,0,0,0,0
							c-0.2-0.2-0.4-0.4-0.5-0.6c-0.6-0.2-1.5-0.6-2.7-0.9c0,0-4.9-1.6-9.6-2.6c-7.2-1.5-21.1,0.5-28,3.6c-7,3.1-15,4.3-22.7,5.4
							l-1.6,0.2c-9.2,1.3-18.2,2.9-26.3,7.4c-9.3,5.2-15.5,14-16.2,22.9c-0.4,5.7,1.6,11.3,5.6,15.5c4,4.1,9.4,6.4,15.1,6.4
							c0.3,0,0.6,0,0.9,0c27.5-1.2,55.4-7.9,80.4-19.3c1.3-0.6,2.5-1.3,3.7-2.2c1.2-1,2.4-1.8,3.6-2.5c0.6-0.8,1.2-1.7,1.7-2.6
							c1.1-2.3,1.5-4.9,1.9-7.4c0,0,0,0,0,0c0-0.1,0-0.2,0-0.3C278.4,561.8,277.7,555.7,276,550.4z"/>
						<g>
							<path class="st4" d="M278.1,543c-0.1,0-0.2,0.1-0.4,0.1c-6.1,2.1-12.7,2.1-19,0.8c-8.2-1.7-17.8-0.2-25.7,3.4
								c-7.9,3.6-16.7,4.6-25.3,5.9c-8.6,1.2-17.4,2.7-25,7c-7.5,4.2-13.7,11.5-14.3,20c-0.8,10,7.8,18.3,17.8,17.8
								c27.2-1.2,54.2-7.7,79-19c1.1-0.5,2-1.1,2.9-1.8c3-2.3,6.2-4.4,9.7-5.8c5.8-2.3,10.5-4.3,13-5.5c0.9-4.9,2.7-10.7,1.1-16.2
								C290.2,544,283.8,541,278.1,543z"/>
						</g>
						<path class="st3" d="M186.5,556.3c3.4,5.4,8.1,14.8,9.6,27.2c0.8,6.7,0.5,12.5-0.2,17c8.5-1.6,17.1-3.3,25.6-4.9
							c0.4-5.4,0.4-12.7-1.2-21.1c-2-10.3-5.7-18.2-8.7-23.5C203.2,552.8,194.9,554.5,186.5,556.3z"/>
					</g>
					<g>
						<path class="st3" d="M430.6,552.1c0.3-1,0.7-1.8,1.2-2.7c0,0,0,0,0,0c0.1-0.1,0.1-0.2,0.2-0.3c0.1-0.2,0.2-0.4,0.3-0.6
							c0.2-0.3,0.4-0.6,0.6-0.9c0.2-0.2,0.3-0.4,0.5-0.6c0.2-0.3,0.5-0.5,0.7-0.8c0.1-0.1,0.1-0.2,0.2-0.2c0,0,0,0,0,0
							c0.2-0.2,0.4-0.4,0.5-0.6c0.6-0.2,1.5-0.6,2.7-0.9c0,0,4.9-1.6,9.6-2.6c7.2-1.5,21.1,0.5,28,3.6c7,3.1,15,4.3,22.7,5.4
							l1.6,0.2c9.2,1.3,18.2,2.9,26.3,7.4c9.3,5.2,15.5,14,16.2,22.9c0.4,5.7-1.6,11.3-5.6,15.5c-4,4.1-9.4,6.4-15.1,6.4
							c-0.3,0-0.6,0-0.9,0c-27.5-1.2-55.4-7.9-80.4-19.3c-1.3-0.6-2.5-1.3-3.7-2.2c-1.2-1-2.4-1.8-3.6-2.5c-0.6-0.8-1.2-1.7-1.7-2.6
							c-1.1-2.3-1.5-4.9-1.9-7.4c0,0,0,0,0,0c0-0.1,0-0.2,0-0.3C428.2,563.5,428.8,557.4,430.6,552.1z"/>
						<g>
							<path class="st4" d="M428.5,544.7c0.1,0,0.2,0.1,0.4,0.1c6.1,2.1,12.7,2.1,19,0.8c8.2-1.7,17.8-0.2,25.7,3.4
								c7.9,3.6,16.7,4.6,25.3,5.9c8.6,1.2,17.4,2.7,25,7c7.5,4.2,13.7,11.5,14.3,20c0.8,10-7.8,18.3-17.8,17.8
								c-27.2-1.2-54.2-7.7-79-19c-1.1-0.5-2-1.1-2.9-1.8c-3-2.3-6.2-4.4-9.7-5.8c-5.8-2.3-10.5-4.3-13-5.5
								c-0.9-4.9-2.7-10.7-1.1-16.2C416.4,545.6,422.7,542.6,428.5,544.7z"/>
						</g>
						<path class="st3" d="M520,558c-3.4,5.4-8.1,14.8-9.6,27.2c-0.8,6.7-0.5,12.5,0.2,17c-8.5-1.6-17.1-3.3-25.6-4.9
							c-0.4-5.4-0.4-12.7,1.2-21.1c2-10.3,5.7-18.2,8.7-23.5C503.3,554.4,511.7,556.2,520,558z"/>
					</g>
					<path class="st4" d="M371.3,557.9c-6.6-1.4-24.6-5.1-48.3-9.1c-10.9-1.8-24.8-4.1-41.2-6.3c0,0-14.1-31.6,4.1-47.3
						c13.6-11.7,41.2,4.1,98.4,31.8c1.5,0.7,5.9,3.1,12.2,6c11.8,5.4,22,8.8,29.4,11.1c-2.5,8.2-5.1,16.4-7.6,24.7
						C400.8,564.4,385,560.8,371.3,557.9z"/>
					<path class="st4" d="M331.2,557.9c6.6-1.4,24.6-5.1,48.3-9.1c10.9-1.8,24.8-4.1,41.2-6.3c0,0,14.1-31.6-4.1-47.3
						c-13.6-11.7-41.2,4.1-98.4,31.8c-1.5,0.7-5.9,3.1-12.2,6c-11.8,5.4-22,8.8-29.4,11.1c2.5,8.2,5.1,16.4,7.6,24.7
						C301.7,564.4,317.5,560.8,331.2,557.9z"/>
					<path class="st5" d="M539.9,507.7c0.8,15.4-26.8,27.9-47,37c-15.4,6.9-39.3,15.7-71.6,20.4c-3.6,0.1-17.9-0.1-30-8.9
						c-7.8-5.7-11-12.3-12.3-15.6c-2.1,1.5-11.4,7.9-25.3,7.6c-11.5-0.2-19.4-4.9-21.9-6.6c-2.1,4.5-7.9,15-21.2,20.7
						c-8.5,3.6-17.4,4.4-30.2,2.8c-48.2-6.2-71.6-20.4-71.6-20.4c-2.3-1.2-38.8-21.2-33.8-43.1c1.6-7,7-12.4,14.7-17.7
						c33-22.9,80.9-26.4,104.4-27c38,0,76,0,114,0c60,3.4,95,19.8,111.9,29.7C532.8,494.2,539.5,500.4,539.9,507.7z"/>
					<path class="st5" d="M351.4,521.9c0,0.1-0.1,0.2-0.1,0.4c-0.1,0-0.3-0.1-0.4-0.2C351,522,351.2,521.9,351.4,521.9z"/>
					<path class="st5" d="M350.8,522.1c-0.1,0.1-0.3,0.1-0.4,0.2c0-0.1-0.1-0.2-0.1-0.4C350.5,521.9,350.7,522,350.8,522.1z"/>
					<g>
						<path class="st5" d="M314.7,458.4c2.2,2.5,5.4,6.6,8.1,12.3c11.4,24.6-5.5,42.3,5.4,59.8c6,9.7,18.3,15.7,29.3,14.9
							c1.2-0.1,14.7-1.2,22.2-11.8c11.6-16.7-5.9-36.6,5.4-61.5c2.7-5.9,6.1-10,8.1-12.3"/>
						<path class="st6" d="M314.7,458.4c9.7,9.4,14.8,23.6,13.5,37.2c-0.3,4.5-1,9-1.5,13.4c-0.5,4.4-0.7,8.7,0.2,12.7
							c2.8,13.4,17.2,22.1,30.4,21.4c11.1-0.8,22.6-8.1,24.2-19.8c1.2-8.5-1.3-17.5-1.7-26.2c-0.3-4.5-0.2-9.1,0.7-13.7
							c1.7-9,6.3-17.3,12.7-23.6c-5.6,7-9.4,15.3-10.4,23.9c-1.1,8.8,0.7,17.4,2.2,26.2c0.7,4.4,1.3,9.1,0.7,13.9
							c-1.6,15.1-17.3,24.6-31.6,23.9c-14.2-0.9-28.5-10.9-31.1-25.3c-1.6-9.3,1.3-18.1,2.3-27.1C327,482.2,323.1,468.9,314.7,458.4
							L314.7,458.4z"/>
					</g>
					<g>
						<path class="st6" d="M384.5,511.5c20,5.1,41.4,4.6,61.1-1.5c6.7-2,13.2-4.7,19.4-8c-11.9,7.7-25.2,13.2-39.1,16.2
							c-14.1,3-28.8,3.4-43,1.1C382.9,519.3,384.5,511.5,384.5,511.5L384.5,511.5z"/>
					</g>
					<g>
						<path class="st6" d="M382.4,495.9c14.5,6.3,30.4,8.4,46.2,6.2c-7.7,2.4-15.8,3.8-24,4.1c-8.3,0.3-16.7-0.7-24.7-2.7
							C379.9,503.5,382.4,495.9,382.4,495.9L382.4,495.9z"/>
					</g>
					<g>
						<path class="st6" d="M326.2,507.8c-16.4,0.5-33.2-3.5-47.3-11.7c13.1,4.8,27,6.4,40.8,4.6c1.9-0.3,3.8-0.6,5.7-0.9
							L326.2,507.8L326.2,507.8z"/>
					</g>
					<g>
						<path class="st6" d="M324.8,519.3c-28.3,4.5-58.2-1.7-82.2-17.3c6.2,3.3,12.7,5.9,19.4,8c13.2,4.1,27.2,5.7,41,4.8
							c6.8-0.5,13.6-1.6,20.2-3.2C323.2,511.5,324.8,519.3,324.8,519.3L324.8,519.3z"/>
					</g>
				</g>
				<g>
					<g>
						<path class="st4" d="M429.6,321.2c0.1,10.3,0.2,20.7-0.4,31c-0.4,6.1-1,12.2-2.6,18.1c-1.7,5.9-5.2,11-7.2,16.8
							c-1.8,5.2-2.9,10.6-3.4,16.1c-0.4,3.9-0.5,7.8-0.4,11.7l-118.6,2.9c0.3-7.4-0.1-14.8-2.2-22.1c-1.9-6.9-6.1-12.8-8.7-19.5
							c-3.8-9.9-3.7-19.9-5-30.2c-1.4-10.8-2.6-21.7-3.5-32.6c-0.6-7,0.2-17.3,0.5-24.3c0.1-2.2-0.2-8.6,2.6-9.7
							c15.1-9,30.1-18.1,45.2-27.1c0.7-1.6,1.2-3.1,1.6-4.3c0.5-1.5,1-3.3,1.3-5.5c0.2-1.7,0.1-3,0-4.5c-0.1-3.3-0.3-6.6-0.6-9.6
							c8.1,4.2,18.1,5.1,27,4.8c8.1-0.2,16.3-1.5,24-4.2c-0.1,1.9-0.1,4-0.1,6.1c0,1.5,0.1,3.1,0.2,4.7c0.4,5.1,1.4,10.2,3.6,14
							c0.5,0.7,1.1,1.3,1.7,1.6c11.1,5.6,28.8,18.3,43.2,20.5c1.6,3.8,0.9,9.5,1.1,13.5C429.2,298.9,429.6,311.7,429.6,321.2z"/>
						<path class="st7" d="M378.9,235c0,1,0,1.9,0.1,2.9c-1.7,2.1-4.4,5.1-8.2,8c-4.6,3.5-9.4,7.3-16.3,7.7
							c-6.6,0.5-11.7-2.3-15.5-4.4c-4.9-2.7-8.3-5.9-10.3-8.1c0-1,0-2.1,0-3.2c-0.1-3.4-0.3-6.6-0.6-9.6c8.1,4.2,18.1,5.1,27,4.8
							c8.1-0.2,16.3-1.5,24-4.2C378.9,230.9,378.9,232.9,378.9,235z"/>
						<path class="st4" d="M318.8,193c-0.8-2.9,0.9-3.8-2.3-5.2c-2.6-1.2-5.1,4-5.7,7.6c-0.6,3.6,3,16.5,5,18.3
							c2.1,1.8,4.8,2.5,5.6-0.7L318.8,193z"/>
						<path class="st4" d="M387.5,183.2c1.4,15.4,2.6,31.1-6,45.8c-0.7,1.3-3.5,5.8-8.4,10.6c-4.2,4-10.1,8.7-18.6,10.4
							c-1.6,0.3-3.3,0.3-4.9-0.1c-12.4-2.8-22.7-14.6-25.6-19.8c0,0,0,0,0,0c-0.4-0.5-0.8-1.2-1.2-1.9c-0.4-0.8-0.7-1.6-0.9-2.2
							c0,0,0,0,0,0c-2.8-8-3.3-30.5-3.7-43.5c-1.1-17.8,10.1-33,28.3-38.1c2.2-0.6,4.5-0.9,6.7-0.9l0,0c0.2,0,0.4,0,0.6,0
							c2,0.1,4,0.3,27.4,14.9C387.7,162.3,386.4,170.8,387.5,183.2z"/>
						<g>
							<path class="st8" d="M238.1,375c1.4-16.8,15.7-66.1,18.2-77.1c2.8-12.7,6.4-22.1,19.6-24.4c7.2-1.2,12.2-1.8,19.2-3.7
								l20.2,17.3l-25,105.4C276.7,382.5,249.1,378.1,238.1,375z"/>
						</g>
						<g>
							<path class="st8" d="M472.3,389c-0.7-16.9-14.3-79.4-16.3-90.5c-2.3-12.8-5.5-21.9-18.5-24.7c-7.2-1.5-12.2-2.7-19.1-4.9
								l-15.1,29.4c5.8,33.3,11.6,66.5,17.4,99.8C437.9,395.1,455.1,392,472.3,389z"/>
						</g>
						<path class="st8" d="M283.4,390.4c-0.1,3-0.2,4.9-0.3,6.9c-0.2,11.2,0.1,16,0.2,26.9c0.1,12-1.6,21.5-2.9,29.5
							c-1.1,6.7-2.4,12.3-3.5,16.6c-12.1,8.7-24.2,17.4-36.3,26.1c34.1-2.1,61.9-0.8,81.2,0.8c39.3,3.2,61.9,9.4,103.5,8.4
							c19.4-0.4,35.3-2.2,45.8-3.7c-13.2-11.3-26.5-22.7-39.7-34c-0.9-4.7-2-10.8-2.5-18c-0.8-10.3-0.4-18.2-0.1-22.2
							c2.4-43,5-64.3,7.5-82.6c3.8-27.5,8.2-41.1,8-64.4c0-1.8-0.1-3.4-0.1-4.3c-4.8-1.8-9.6-3.7-14.5-5.7
							c-16.1-6.6-31.1-13.6-45.2-20.8c-1.4-0.8-2.8-1.6-4.2-2.4c1.1,4.2,3.7,16-1.8,28.7c-2.6,6.1-6.3,10.5-9,13.2
							c-3.6,8.3-7.3,16.5-10.9,24.8c-0.8-4.9-12.2-24-14.5-24.9c-3.1-1.2-5.3-2.5-7.2-3.9c0,0-4.1-3.1-7.1-7.6
							c-4.1-6.3-5.7-16.9-3-28.6c-1.6,0.8-3.7,2.1-5.9,4.1c-1.6,1.4-2.7,2.9-3.6,4.1c-15.6,5.9-31.2,11.8-46.8,17.8
							c0.8,35.9,4.2,57.1,7.4,70.1C277.9,345,284.3,370.3,283.4,390.4z"/>
						<g>
							<path d="M353.7,269.9c-2.1,0-14.7,0.3-22-8.9c-1.7-2.1-2.7-4.2-3.3-5.6c-0.7-1.8-1.2-3.4-1.4-4.6c0,0,0-0.1-0.1-0.2
								c-0.1-0.2-0.6-1.5,0.1-2.7c0.1-0.2,0.3-0.5,0.7-0.8c0.1,0.7,0.3,1.7,0.6,2.8c0,0,1.4,5.2,4.5,9.3c7,9.4,22.8,11.5,33.9,5.3
								c10-5.6,12.9-16,13.6-18.4c0.2,0.5,0.4,1.2,0.5,2c0.1,0.4,0.1,0.8,0.1,1.1c-0.4,1.4-2.1,7.2-6.4,11.8c-2.9,3.1-6.5,5-6.8,5.2
								C366.1,267.1,361,269.7,353.7,269.9z"/>
						</g>
						<g>
							<path d="M317.6,218.1c-1.1,0-1.5-2.2-1.5-4.1l0.7,0.5c0,2.1,0.5,2.9,0.8,2.9c0.2,0,0.8-1.1,0.9-3.3c0-2.1-0.5-3.3-0.8-3.3
								c-0.2-0.2-0.2-0.4,0-0.7c1.1,0,1.5,2.1,1.5,4C319.2,216.1,318.6,218.1,317.6,218.1z"/>
						</g>
						<path class="st4" d="M386.1,193.9c0.8-2.9,0.4-4.3,3.1-5.3c2.7-1,5,4.1,5.5,7.7c0.5,3.7-3.3,16.5-5.5,18.2
							c-2.1,1.8-4.8,2.4-5.6-0.8L386.1,193.9z"/>
						<g>
							<path d="M387.4,218.9c1.1,0,1.6-2.1,1.6-4l-0.7,0.5c0,2.1-0.6,2.9-0.8,2.9s-0.8-1.2-0.8-3.3c0-2.1,0.6-3.3,0.9-3.3
								c0.2-0.2,0.2-0.4,0-0.7c-1.1,0-1.6,2-1.6,4C385.9,216.8,386.3,218.9,387.4,218.9z"/>
						</g>
						<path d="M384.5,201.3c0.3-0.6,0.7-1.2,1-1.7c0.6-3.1,1.1-6.3,1.7-9.4c1.3-3.4,2.7-7.8,3.4-13.1c1-7.6,1.3-15-2.7-20.7
							c-3.1-4.4-7.9-3.6-8.4-4c-17.7-29.8-55.3-3.4-59.8,6.5c-1.7,4.1-3.9,11.3-3.2,20.1c0.3,4.1,1.2,7.6,2.1,10.4
							c0.4,0.6,0.7,1.3,1,2c1.4,3.2,1.5,6.1,1.4,8.2c0.2,0.6,0.3,1.2,0.5,1.9c0.1-1.1,0.3-3,0.5-5.4c1.2-13.4,0.9-17.5,4-21.3
							c0.8-1,2.2-2.4,4.7-3.6c17.3,4.5,48-8.5,48.7-4.9c-0.2,1.7-0.2,4.4,0.2,7.5c0.7,4.4,2.2,7.4,2.8,8.9
							C384,186.3,385.5,192.1,384.5,201.3z"/>
						<g>
							<path class="st9" d="M343.6,229.8c0,0.9,6.1,1.9,11.5,1.7c3.6-0.1,8.3-0.8,8.3-1.5c0-0.8-4.6-1.5-8.3-1.7
								C349.6,228.1,343.6,228.9,343.6,229.8z"/>
						</g>
						<g>
							<path class="st9" d="M348.1,218.9c-0.1,0.3,2.2,2.5,5.1,2.5c2.8,0,5-2,4.9-2.3c-0.1-0.3-1.9,0.8-4.8,0.8
								C350.1,219.9,348.2,218.6,348.1,218.9z"/>
						</g>
						<g>
							<path d="M326.8,192.3c1-1.2,2.5-2.6,4.5-3.8c0,0,0,0,0,0c1.1-0.7,2.4-0.9,3.7-0.8c3.1,0.4,6.2,0.7,9.3,1.1
								c0.2,0.3,0.6,0.8,0.7,1.6c0.1,0.6,0.1,1.1,0,1.5c-3.6-0.4-7.3-0.9-10.9-1.3c-0.8-0.1-1.6,0-2.4,0.2
								C330.1,191.3,328.4,191.8,326.8,192.3z"/>
						</g>
						<g>
							<path d="M379.5,192.9c-1-1.2-2.4-2.6-4.4-3.9c0,0,0,0,0,0c-1.1-0.7-2.4-1-3.7-0.9c-3.1,0.3-6.2,0.6-9.4,0.9
								c-0.2,0.3-0.6,0.8-0.8,1.6c-0.1,0.6-0.1,1.1-0.1,1.5c3.7-0.3,7.3-0.7,11-1c0.8-0.1,1.6,0,2.4,0.3
								C376.2,191.8,377.8,192.4,379.5,192.9z"/>
						</g>
						<g>
							<path d="M361.6,199c2.3,4.1,7,5.6,11,3.1c1.2-0.8,2.3-1.8,3.2-3c-0.3,0.7-0.7,1.4-1.1,2C371,206.1,363.3,205.3,361.6,199
								L361.6,199z"/>
						</g>
						<g>
							<path d="M344.5,198.6c-2.3,4.1-7,5.7-11,3.1c-1.2-0.8-2.3-1.8-3.2-3c0.3,0.7,0.7,1.4,1.1,2
								C335.1,205.7,342.8,204.9,344.5,198.6L344.5,198.6z"/>
						</g>
						<path id="XMLID_00000049901226737396075970000017533059212458875295_" class="st10" d="M314.8,167.5
							c16.3-12.9,68.4-10.4,76.2-8.3c1.3,0.6,3,3.8,2.1,8.6c1.5,3.1,1.6,7.4-0.7,8.9c0,0,0,0.1,0,0.2c0.1,1.2-1,2.1-2.1,2.1
							c-8.8-0.6-49.9-5.8-72.1,7.4c-1,0.6-2.3,0.2-2.8-0.8c-0.6-1.1-1-2.8-0.7-5.2c-2.2-1.9-1.6-6.8-0.8-8
							C313.9,170,314.1,168.1,314.8,167.5z"/>
					</g>
					<path class="st10" d="M427.4,272.8c-1-8.4-8.4-9.1-10.7-8.3c-2.3-4-6.1-5.8-10.4-4.2c-0.8-2.9-7.5-4.9-9.3-3.6
						c0.5,13.6-1.6,144.3-18.3,192.5c-0.9,4.4,31.3,18.1,43,9.9C423,452.8,436.2,310.3,427.4,272.8z"/>
					<path class="st11" d="M344.7,289.6c-1.4,0.7-3.5,1.9-5.4,4c-4.7,5.2-3.8,10.7-5.9,11.1c-2.7,0.5-6.6-9.8-8.7-15.4
						c-1-2.7-2.7-7.4-4-13.6c-0.5-2.7-0.6-3.4-1.3-6.6c-1.6-7-2.5-8-2.4-10.1c0.2-2.6,2-6.2,9.8-10.4c-0.8,3.5-2.2,11.4,0.9,20.5
						C332,281.9,341.9,288,344.7,289.6z"/>
					<path class="st11" d="M369.2,289.6c1.5,0.5,3.8,1.4,6,3.2c5.4,4.4,5.4,10,7.4,10.1c2.8,0.1,5.3-10.6,6.3-16.5
						c0.6-3.5,1.4-8.5,1-14.7c0-0.6-0.3-2.7-0.8-7.1c-1.2-9.7-1.3-11.8-3.1-13.9c-0.9-1-2.6-2.4-5.6-3.2c0.2,2.7,0.2,5.5,0,8.5
						C379.4,270.6,373.8,282.1,369.2,289.6z"/>
					<g>
						<path class="st11" d="M369.2,289.5c-3.8,8.6-7.3,17.5-10,26.6c-1.7,7.5-2,15.6-2.4,23.4c-0.5,14.2-0.3,28.5,0.1,42.8
							c0,0-0.8-0.7-0.8-0.7c4.1-0.2,9.8-0.2,13.8-0.3c-4.2,0.7-10.1,1.3-14.4,1.8c-1.3-12.9-2-26-1.8-39c0.3-9.6,0.7-19.3,3.2-28.7
							C360.1,306.4,364.1,297.8,369.2,289.5L369.2,289.5z"/>
					</g>
					<circle class="st11" cx="363.4" cy="322.5" r="2.9"/>
					<circle class="st11" cx="362.5" cy="350" r="2.9"/>
					<circle class="st11" cx="362.5" cy="373.8" r="2.9"/>
				</g>
				<path class="st12" d="M488.1,494.7c-45.8-61.6-57.9-84.8-58.1-92.8c-0.1-5.1-0.3-15.2-0.3-15.2c0.7-1.8,1.6-3.3,2.6-4.7
					c0,0,1.7-2.4,4-4.4c3.9-3.5,15.1-9.1,27.3-5.6c2.3,0.7,6,2.1,10,5.1c2.4,6.2,4.7,12.6,7,19c12.1,34.1,20.9,67.1,27.3,98.3
					C501.4,494.5,494.7,494.6,488.1,494.7z"/>
			</g>
		</g>
		<path class="st12" d="M499,469c1.2,3.5,2.4,6.9,3.7,10.4c6.8,6.5,11.2,9.2,14,10.3c1,0.4,4.8,1.9,9.1,5c0.4,0.3,0.8,0.6,1.3,1
			c1.8,1.5,5.8,5,8.3,11.1c1,2.5,1.5,4.8,1.8,6.7c0.2,1.1-0.9,2.1-2,1.9c-0.8-0.2-1.8-0.4-2.7-0.9c-2.1-1.1-2.9-2.5-5-4.5
			c-1.2-1.1-3-2.6-5.6-4c-0.5,1.3-1.8,5.2-0.4,9.9c1.1,3.9,3.5,6.2,4.5,7.2c0.7-1.3,1.5-2.6,2.4-4c0.5-0.8,1-1.5,1.5-2.2
			c0.1-0.1,1.5-1,2.9-0.4c1.3,0.5,2.2,1.9,2,3.4c-0.3,3.6-1.1,7.7-2.7,12.2c-0.2,0.5-0.3,0.9-0.5,1.4c-0.5,1.2-1.9,1.7-3.1,1
			c-1.3-0.8-2.8-1.7-4.3-2.9c-2.3-1.8-4.1-3.5-5.5-5.1c1.2,2.6,2.8,5.8,5.1,9c3.2,4.4,6.6,7.6,9.3,9.9c0.8,1.7,0.7,3.3-0.1,4
			c-0.8,0.7-2.1,0.2-3.2-0.1c-1.9-0.6-3.2-1.7-4-2.6c-2.5-2.4-5-4.8-7.5-7.2c3.2,5.2,4.9,7.3,5.8,8.2c0,0,0.5,0.7,1.3,1.6
			c0.7,0.8,1.1,1.8,0.9,2.8c-0.1,0.5-0.3,0.9-0.6,1.2c-0.9,0.7-2.4,0.5-3.1,0c-3.2-2.5-6.8-5.7-10.5-9.9c-4.5-5.1-7.6-10-9.8-14.1
			c0.3,2.3,0.8,4.9,1.7,7.8c1.3,4.1,3,7.4,4.5,9.9c0.5,0.9,0.4,2.1-0.3,2.8c-0.8,0.8-1.9,0.7-2,0.7c-1.8-2-4.3-5.2-6.7-9.3
			c-2.6-4.6-4.5-9.4-7.5-22.1c-1.4-6.1-3-13.9-4.5-23.1c-2.9-5.9-5.8-11.7-8.7-17.6C485.6,475.3,492.3,472.1,499,469z"/>
		<path class="st11" d="M418.6,378.2c17.5-4.8,35-9.5,52.5-14.3c3.1,7.6,6.1,15.2,9.2,22.8c-18.6,5.3-37.1,10.6-55.7,15.8
			c-1.6-2.2-3.8-5.8-5.1-10.7C417.9,386,418.2,381.1,418.6,378.2z"/>
		<path class="st12" d="M217.3,494.7c45.8-61.6,57.9-84.8,58.1-92.8c0.1-5.1,0.3-15.2,0.3-15.2c-0.7-1.8-1.6-3.3-2.6-4.7
			c0,0-1.7-2.4-4-4.4c-3.9-3.5-15.1-9.1-27.3-5.6c-2.3,0.7-6,2.1-10,5.1c-2.4,6.2-4.7,12.6-7,19c-12.1,34.1-20.9,67.1-27.3,98.3
			C204.1,494.5,210.7,494.6,217.3,494.7z"/>
		<path class="st12" d="M206.4,469c-1.2,3.5-2.4,6.9-3.7,10.4c-6.8,6.5-11.2,9.2-14,10.3c-1,0.4-4.8,1.9-9.1,5
			c-0.4,0.3-0.8,0.6-1.3,1c-1.8,1.5-5.8,5-8.3,11.1c-1,2.5-1.5,4.8-1.8,6.7c-0.2,1.1,0.9,2.1,2,1.9c0.8-0.2,1.8-0.4,2.7-0.9
			c2.1-1.1,2.9-2.5,5-4.5c1.2-1.1,3-2.6,5.6-4c0.5,1.3,1.8,5.2,0.4,9.9c-1.1,3.9-3.5,6.2-4.5,7.2c-0.7-1.3-1.5-2.6-2.4-4
			c-0.5-0.8-1-1.5-1.5-2.2c-0.1-0.1-1.5-1-2.9-0.4c-1.3,0.5-2.2,1.9-2,3.4c0.3,3.6,1.1,7.7,2.7,12.2c0.2,0.5,0.3,0.9,0.5,1.4
			c0.5,1.2,1.9,1.7,3.1,1c1.3-0.8,2.8-1.7,4.3-2.9c2.3-1.8,4.1-3.5,5.5-5.1c-1.2,2.6-2.8,5.8-5.1,9c-3.2,4.4-6.6,7.6-9.3,9.9
			c-0.8,1.7-0.7,3.3,0.1,4c0.8,0.7,2.1,0.2,3.2-0.1c1.9-0.6,3.2-1.7,4-2.6c2.5-2.4,5-4.8,7.5-7.2c-3.2,5.2-4.9,7.3-5.8,8.2
			c0,0-0.5,0.7-1.3,1.6c-0.7,0.8-1.1,1.8-0.9,2.8c0.1,0.5,0.3,0.9,0.6,1.2c0.9,0.7,2.4,0.5,3.1,0c3.2-2.5,6.8-5.7,10.5-9.9
			c4.5-5.1,7.6-10,9.8-14.1c-0.3,2.3-0.8,4.9-1.7,7.8c-1.3,4.1-3,7.4-4.5,9.9c-0.5,0.9-0.4,2.1,0.3,2.8c0.8,0.8,1.9,0.7,2,0.7
			c1.8-2,4.3-5.2,6.7-9.3c2.6-4.6,4.5-9.4,7.5-22.1c1.4-6.1,3-13.9,4.5-23.1c2.9-5.9,5.8-11.7,8.7-17.6
			C219.9,475.3,213.1,472.1,206.4,469z"/>
		<path class="st11" d="M286.8,378.2c-17.5-4.8-35-9.5-52.5-14.3c-3.1,7.6-6.1,15.2-9.2,22.8c18.6,5.3,37.1,10.6,55.7,15.8
			c1.6-2.2,3.8-5.8,5.1-10.7C287.5,386,287.2,381.1,286.8,378.2z"/>
	</g>
</g>
</svg>
