<?xml version="1.0" encoding="utf-8"?>
<!-- Generator: Adobe Illustrator 26.0.1, SVG Export Plug-In . SVG Version: 6.00 Build 0)  -->
<svg version="1.1" id="Layer_1" xmlns="http://www.w3.org/2000/svg" xmlns:xlink="http://www.w3.org/1999/xlink" x="0px" y="0px"
	 viewBox="0 0 1000 706" style="enable-background:new 0 0 1000 706;" xml:space="preserve">
<style type="text/css">
	.st0{fill:#BDDEEF;}
	.st1{opacity:0.2;fill:none;stroke:#272828;stroke-width:7.3704;stroke-miterlimit:10;}
	.st2{fill:#99CCE0;}
	.st3{fill:#52A7C1;}
	.st4{fill:#D8AE73;}
	.st5{fill:#B58D54;}
	.st6{fill:#FCB99B;}
	.st7{fill:#0066A5;}
	.st8{fill:#C64038;}
	.st9{fill:#F38D82;}
	.st10{fill:#990000;}
	.st11{fill:#1B588F;}
	.st12{fill:#EA4E5A;}
	.st13{fill:#CD070C;}
	.st14{fill:#3E8ACE;}
</style>
<g>
	<g>
		<g>
			<rect x="147.3" y="118.2" class="st0" width="706.3" height="457.6"/>
			<path class="st1" d="M363.5,655.2l14.6-79.3c-4.9-139.7-9.7-279.4-14.6-419"/>
			<path class="st1" d="M219.4,655.2l14.6-79.3c-4.9-139.7-9.7-279.4-14.6-419"/>
			<rect x="606.5" y="249.1" class="st2" width="162.8" height="326.7"/>
			<circle class="st3" cx="625.1" cy="422.7" r="10.2"/>
			<g>
				<g>
					<g>
						<rect x="215.7" y="154" class="st4" width="7.4" height="501.2"/>
					</g>
				</g>
				<g>
					<g>
						<rect x="359.8" y="154" class="st4" width="7.4" height="501.2"/>
					</g>
				</g>
				<g>
					<rect x="359.6" y="359.1" class="st5" width="7.7" height="13.1"/>
				</g>
				<g>
					<g>
						<rect x="219.4" y="211.5" class="st4" width="144.1" height="7"/>
					</g>
				</g>
				<g>
					<g>
						
							<rect x="289.7" y="216.8" transform="matrix(2.208268e-03 -1 1 2.208268e-03 2.016 583.025)" class="st4" width="7" height="147.5"/>
					</g>
				</g>
				<g>
					<g>
						<rect x="219.4" y="362.1" class="st4" width="147.5" height="7.1"/>
					</g>
				</g>
				<g>
					<g>
						<rect x="219.4" y="437.4" class="st4" width="144.1" height="7"/>
					</g>
				</g>
				<g>
					<g>
						<rect x="219.4" y="512.7" class="st4" width="144.1" height="7"/>
					</g>
				</g>
				<g>
					<g>
						<rect x="219.4" y="588" class="st4" width="144.1" height="7"/>
					</g>
				</g>
			</g>
			<circle class="st5" cx="363.5" cy="366" r="1.5"/>
		</g>
		<g>
			<path class="st6" d="M263.9,323l-0.9,3.1l0.1-0.4l-0.5,1.7c0,0,0-0.1,0.1-0.2l-0.9,3c-0.2,0.4-0.3,0.9-0.5,1.3
				c-0.2,0.6-0.8,2.2-1.6,4.6l-1.6,5.3c-1.2,7.4-2.3,14.8-3.5,22.2c-0.8,0.4-3.2,1.6-6.1,0.9c-1.9-0.5-4.8-2-5.2-4.3
				c0-0.2,0-0.3,0-0.4c0.1-0.6,0.2-1.6,0.4-2.7c0.1-0.8,0.2-1.5,0.2-1.6c1-7.9,1.9-14.4,2.7-19.4c0.2-1.1,0.3-2.1,0.5-3.1
				c0.9-5.6,1.4-9.6,1.6-12c0-1.3,0.1-2.9,0.4-4.6c1-5.7,3.2-9.4,6.5-11c-0.7,1.6-0.5,3.3,0.6,5.1c0.5,0.8,0.4,0.8-0.1-0.1
				c0.7,1.7,2.6,3.9,5.6,6.4c1,0.8,1.8,1.5,2.4,1.8l0,0C264.3,319.9,264.3,321.3,263.9,323z"/>
			<path class="st6" d="M334.7,356.9c-1.1,3.1-4,5.2-7.2,5.3c-3.4,0-6.4-2.1-7.5-5.4l-6.6-15.5l-3.1-7.3c-1.1-2.3-1.8-3.8-2.1-4.4
				c-0.2-0.4-0.4-0.9-0.6-1.3l-1.2-2.9c0,0.1,0,0.1,0.1,0.1l-0.7-1.6l0.2,0.3l-1.3-2.9c-0.5-1.7-0.7-3.1-0.5-4.3l0,0
				c0.5-0.5,1.3-1.2,2.2-2.1c2.8-2.9,4.4-5.2,4.9-7c-0.4,1-0.4,1-0.1,0.1c0.8-1.9,0.8-3.6,0-5.2c3.4,1.2,6,4.6,7.6,10.2
				c0.5,1.7,0.8,3.2,0.9,4.5c0.5,2.4,1.4,6.3,2.9,11.7c0.4,1.6,0.7,2.5,0.8,3.1c1.2,4.3,2.4,7.7,3.3,9.9
				C329.4,347.3,332.1,352.1,334.7,356.9z"/>
			<g>
				<g transform="matrix( -1.1695404052734375, 0.6071929931640625, 0.6146087646484375, 1.1432952880859375, 5173.75,644.15) ">
					<g transform="matrix( 1, 0, 0, 1, 0,0) ">
						<g>
							<g id="Symbol_1g_0_Layer0_0_FILL_00000018934927999083669110000012174265178800880783_">
								<path class="st7" d="M3174-1973.6c-0.9-1.3-1.8-2.2-2.5-2.8c-1.1-1-1.8-1.6-2.9-2c-1.4-0.5-2.8-0.2-3.6,0.1
									c-0.7,2.6-1.4,5.2-2.1,7.8c-0.1,0.8-0.2,1.2-0.1,1.2c-0.2,2.7-0.2,4.7-0.1,6l15.4,14.6c2.6-1.9,4.9-4.3,6.9-7.3
									c0.5-0.7,0.7-1,0.7-1L3174-1973.6z"/>
							</g>
						</g>
					</g>
				</g>
			</g>
			<path class="st6" d="M325.8,339.9c2.3-13.3,4.6-26.5,6.9-39.8c-0.5-0.7-1.2-1.8-1.9-3.3c-1.5-3-3.3-6.7-1.9-9.5
				c0.2-0.4,0.8-1.5,1.8-1.6c0.8-0.1,1.7,0.5,2.1,1.5c-0.4,0-0.8,0-1.2,0c0,0.4,0,0.8,0.1,1.2c0.1,0.8,0.2,1.5,0.4,2.1
				c0.2-0.4,0.4-1.1,0.8-1.9c1.2-2.5,1.8-3.9,3.1-4.4c0.4-0.1,1-0.3,1.9,0c0.5-0.2,1.7-0.8,3.1-0.4c0.5,0.1,0.8,0.3,1.1,0.4
				c0.2-0.1,1.4-0.8,2.6-0.2c0.4,0.2,0.7,0.5,0.9,0.7c0.2,0,1.1,0,1.9,0.7c0.8,0.7,0.9,1.6,0.9,1.9c-0.2,0-0.7-0.1-1.1,0.2
				c-0.6,0.3-1,1-1,1.8c-0.1,2.1-0.6,5.5-2.6,9.1c-0.8,1.5-1.7,2.7-2.6,3.6c-2.2,18.3-4.3,36.7-6.5,55c0,0.2-0.6,2.8-2.9,3.5
				c-0.9,0.3-1.8,0.2-2.3,0.1C328.4,353.7,327.1,346.8,325.8,339.9z"/>
			<g>
				<g transform="matrix( 1, 0, 0, 1, 0,0) ">
					<g>
						<g id="Layer5_47_FILL_00000145749886640352804600000006158944434718991254_">
							<path class="st8" d="M281.4,277.2c-0.1,0-0.3,0-0.3,0c0.1,0.1,0.2,0.2,0.3,0.2V277.2z"/>
						</g>
					</g>
					<g>
						<path class="st9" d="M283.9,290.7c-0.1,0-0.1,0-0.2,0l-3.3-1.5c-0.2-0.1-0.3-0.4-0.2-0.6c0.1-0.2,0.4-0.3,0.6-0.2l3.3,1.5
							c0.2,0.1,0.3,0.4,0.2,0.6C284.2,290.6,284,290.7,283.9,290.7z"/>
					</g>
				</g>
				<g transform="matrix( -1.31781005859375, 0, -0.0985260009765625, 1.31781005859375, 3955.6,1179.05) ">
					<g transform="matrix( 1, 0, 0, 1, 0,0) ">
						<g>
							<g id="Cloth_1L1ady_Left_legBack_0_Layer1_0_FILL_00000058551967802816596520000014587826539553162379_">
								<path class="st6" d="M2828.6-462.3c0.1-1.7-0.2-3.2-1-4.5c-0.8-1.2-1.8-1.8-3.1-1.8c-1.2,0-2.3,0.6-3.3,1.8
									c-1,1.3-1.5,2.7-1.6,4.5c-0.1,1.7,0.2,3.2,1,4.5c0.8,1.2,1.8,1.9,3.1,1.9c1.2,0,2.3-0.6,3.3-1.9
									C2828-459,2828.5-460.5,2828.6-462.3z"/>
							</g>
						</g>
					</g>
					<g transform="matrix( 1.1024627685546875, 0, 0, 1.1024627685546875, -0.8,7.4) ">
						<g>
							<g id="Cloth_1L1ady_Left_legBack_0_Layer1_1_MEMBER_0_FILL_00000021093342137090731950000018102103037961874080_">
								<path class="st6" d="M2565.2-425.3L2565.2-425.3c0.3,0.8,0.5,1.4,0.6,1.9c0.1,0.6,0.3,1.2,0.6,1.7c0.1,0.1,0.1,0.2,0.2,0.3
									c0.5,0.5,0.9,1,1.4,1.4c0.3,0.3,0.6,0.5,0.8,0.7c0.1,0.1,0.1,0.3,0.2,0.3c0.9,0.2,1.5,0.3,1.8,0.3c0.1,0,0.3,0,0.5,0
									c0.1,0,0.2,0,0.3,0c-0.3-0.4-0.7-0.9-1-1.3c-0.7-1-1.4-2-2-2.9l0,0c-0.1-0.2-0.2-0.3-0.3-0.5c-0.5-0.9-1.2-1.9-1.9-3.1
									c0,0.5-0.1,0.8-0.4,1c-0.3,0.1-0.5,0.2-0.5,0.3c0,0,0,0-0.1,0L2565.2-425.3C2565.3-425.4,2565.3-425.4,2565.2-425.3
									C2565.3-425.4,2565.2-425.4,2565.2-425.3C2565.2-425.4,2565.2-425.4,2565.2-425.3c0.1,0,0.1,0,0.2,0
									C2565.3-425.3,2565.2-425.3,2565.2-425.3z"/>
								<path class="st10" d="M2557.4-423.7c0.4-2.8,3-3.3,7.8-1.7l0,0l0,0.1c0.3,0.7,0.4,1.3,0.5,1.8c0.1,0.6,0.3,1.2,0.6,1.7
									c0,0.1,0.1,0.1,0.1,0.2v0c0,0,0,0.1,0,0.1c0.4,0.5,0.9,1,1.4,1.4c0.5,0.4,0.9,0.8,1.3,1c0,0,0,0,0,0c0.1,0,0.1,0.1,0.2,0.1
									c0,0,0,0,0.1,0c0.2,0,0.3,0.1,0.5,0.1c0.1,0,0.2,0,0.3,0c0,0,0,0,0,0c0.4,0.1,0.7,0.1,1,0.1c0.1,0,0.2,0,0.3,0
									c0,0,0,0,0,0.1l0,0c0.2,0.5,0.4,1.1,0.5,1.7c-0.1,2.3-1.4,3.4-4.1,3.1c-2.6-0.2-4.8-1.4-6.6-3.3l-0.9,4.8l-1.9,0.1l-0.2-5.1
									c-0.2-0.1-0.5-0.4-1.1-0.8C2556.1-419.4,2556.2-421.2,2557.4-423.7z"/>
							</g>
						</g>
					</g>
				</g>
				<g transform="matrix( 1, 0, 0, 1, 0,0) ">
					<g>
						<g id="Layer5_47_MEMBER_3_FILL_00000036235325204161844060000004711288160602234542_">
							<path class="st6" d="M265.3,333.8c1.1,3.2,1.3,6.5,0.9,9.8c0.3,1.1,0.6,2.1,0.8,3.2c8.1-0.9,16.2-2.5,24.4-3.5
								c5.1-0.6,10.2-1,15.3-1.2c0.4-4,1.4-7.9,2.7-11.4c1.8-4.8,4.4-9.4,5.2-14.5c0.8-5-1.5-10-3.7-14.4c-0.1-0.2-0.1-0.3-0.2-0.5
								c-0.1,0-0.1,0-0.2-0.1c0,0-0.1,0-0.1,0h-0.1c-0.1,0-0.3-0.1-0.4-0.1c-7.2-2.1-11.6-6-13.4-11.6c-0.3-0.8-0.5-1.6-0.6-2.5
								v-9.2l-17.9-0.3l-0.1,10.3l0.2,0.2c-0.1,0.8-0.3,1.5-0.5,2.2c-1,3.6-2.9,6.2-5.7,7.8c-0.1,0.6-0.4,1.3-0.9,1.7
								c-0.7,0.6-1.5,1.2-2.3,1.6c-0.9,0.4-1.8,0.8-2.7,1c-0.6,0.3-1.2,0.6-1.9,0.9c-0.2,0.4-0.6,0.7-1,1
								c-5.5,3.5-4.4,12.1-2.9,17.5C261.6,325.9,263.8,329.5,265.3,333.8z"/>
						</g>
					</g>
				</g>
				<g transform="matrix( 1.31781005859375, 0, 0.0985260009765625, 1.31781005859375, 4059,1179.05) ">
					<g transform="matrix( 1, 0, 0, 1, 0,0) ">
						<g>
							<g id="Cloth_1L1ady_Left_legBack_0_Layer1_0_FILL_00000043429933045521771570000015895283969819492525_">
								<path class="st6" d="M-2813.9-462c0.1-1.7-0.2-3.2-1-4.5c-0.8-1.2-1.8-1.8-3.1-1.8c-1.2,0-2.3,0.6-3.3,1.8
									c-1,1.3-1.5,2.7-1.6,4.5c-0.1,1.7,0.2,3.2,1,4.5c0.8,1.2,1.8,1.9,3.1,1.9c1.2,0,2.3-0.6,3.3-1.9
									C-2814.5-458.7-2814-460.2-2813.9-462z"/>
							</g>
						</g>
					</g>
					<g transform="matrix( 1.1024627685546875, 0, 0, 1.1024627685546875, -0.8,7.4) ">
						<g>
							<g id="Cloth_1L1ady_Left_legBack_0_Layer1_1_MEMBER_0_FILL_00000031915639240099304090000011549248968872453506_">
								<path class="st6" d="M-2546.7-418.5c0,0-0.1,0-0.1,0c0,0-0.1,0-0.1,0c-0.3,0-1.9-0.3-2.3-0.4c0-0.1,0-0.1,0-0.2
									c-0.3-0.2-0.6-0.5-1-0.8c-0.5-0.4-0.9-0.9-1.4-1.4c0-0.1-0.1-0.2-0.2-0.3c-0.2-0.5-0.4-1.1-0.6-1.7c-0.1-0.4-0.3-1-0.5-1.8
									l-0.1-0.1c0.1,0,0.1,0,0.2,0c0,0-0.1,0-0.1-0.1c0,0,0,0,0,0c0,0,0,0,0.1,0c0,0,0,0,0,0h0c0.1,0,0.1,0,0.1,0
									c0,0,0.2-0.1,0.5-0.3c0.3-0.1,0.5-0.5,0.4-1c0.7,1.2,1.3,2.2,1.9,3.1c0.3,0.5,2,3.2,2.2,3.4
									C-2547.1-419.1-2546.8-418.6-2546.7-418.5z"/>
								<path class="st10" d="M-2546.6-418.3L-2546.6-418.3C-2546.6-418.4-2546.6-418.4-2546.6-418.3c-0.1-0.1-0.2-0.1-0.3-0.1
									c-0.3,0-0.7-0.1-1-0.1c0,0,0,0,0,0c0,0-0.1,0-0.1,0c-0.1,0-0.2,0-0.4,0c-0.1,0-0.2-0.1-0.4-0.1c-0.1,0-0.1-0.1-0.2-0.1
									c0,0,0,0,0,0c-0.4-0.2-0.8-0.5-1.3-1c-0.5-0.4-0.9-0.9-1.4-1.4c0,0,0,0,0-0.1v0c0-0.1-0.1-0.1-0.1-0.2
									c-0.2-0.5-0.4-1.1-0.6-1.7c-0.1-0.4-0.3-1-0.5-1.8l0-0.1l0,0c-4.8-1.7-7.4-1.1-7.8,1.7c-1.2,2.5-1.3,4.3-0.3,5.5
									c0.6,0.4,0.9,0.7,1.1,0.8l0.2,5.1l1.9-0.1l0.9-4.8c1.8,2,4,3.1,6.6,3.3c2.6,0.2,4-0.8,4.1-3.1
									C-2546.2-417.3-2546.4-417.8-2546.6-418.3z"/>
							</g>
						</g>
					</g>
				</g>
				<g transform="matrix( 1, 0, 0, 1, 0,0) ">
					<g>
						<g id="Layer5_47_MEMBER_7_MEMBER_0_FILL_00000035515107299666279900000014844937051643227305_">
							<path class="st11" d="M288.9,440.7l0.2-0.9L288.9,440.7L288.9,440.7 M320,401l-62.6,1.8c-1.3,2.1-2,4.5-2.1,7.2
								c9.3,4.1,16.6,6.1,21.7,6c5.2-0.1,8.3-0.2,9.3-0.3l3.4-0.2l-0.7,0.1c12.4,1.3,23.2-1,32.5-6.9
								C321.5,406.3,320.9,403.7,320,401z"/>
						</g>
					</g>
				</g>
				<g transform="matrix( 1, 0, 0, 1, 0,0) ">
					<g>
						<g id="Layer5_47_MEMBER_9_FILL_00000084529258749997829210000009956042430664488337_">
							<path class="st7" d="M318,305.8c-0.1-0.2-0.3-0.5-0.4-0.7c-1-1.7-3.4-3-7-3.9c0,0-0.1,0-0.1,0c0,0-0.1,0-0.1,0
								c-0.1,0-0.8-0.4-1.9-1c-0.3-0.2-0.6-0.3-0.8-0.4c-0.4,1.9-2.3,9.1-9.1,13.4c-6.9,4.5-16.8,4.5-23.4-1.3
								c-5.1-4.5-6.2-10.6-6.4-12.6c-2,1.1-3.1,1.7-3.2,1.8c-0.1,0.1-0.2,0.1-0.2,0.1c0,0-0.1,0-0.1,0c-0.6,0.1-1.2,0.3-1.7,0.5
								c-2.7,0.9-4.4,2-5.3,3.4c-0.1,0.2-0.2,0.5-0.4,0.7c-0.9,1.9-1.4,4.1-1.5,6.6c0,0.2-0.1,0.4-0.1,0.6c0,0.1,0,0.2,0,0.3
								c0,0.3,0,0.6,0,0.9c0,0.1,0,0.2,0,0.2c0.1,3,0.8,6.3,2,9.9c0.5,2,1.2,3.8,2.1,5.5c1.1,2.5,2.4,5.2,4,8.1
								c0.8,5.7,1.3,13.3,0.2,22.1c-1.5,12.7-5.6,22.5-8.8,28.7c7.7,1.6,19.6,3,33.7,0.8c11.3-1.8,20.3-5.4,26.6-8.5
								c-1.3-3.3-5.4-14.2-6.7-25.2c-0.8-7.2-0.1-11.5,0.8-14.5c0.4-1.4,0.9-2.6,1.2-3.4c0.9-1.7,1.8-3.4,2.5-5
								c0-0.1,0.2-0.5,0.5-1.1c0.3-0.6,0.8-1.9,1.5-3.6c0.7-1.8,1-2.7,1-2.7v0c1.5-4.3,2.4-8.2,2.5-11.6c0,0,0-0.1,0-0.1
								c0-0.5,0-1,0-1.4C319.4,309.9,318.9,307.7,318,305.8z"/>
						</g>
					</g>
				</g>
				<g transform="matrix( 1, 0, 0, 1, 0,0) ">
					<g>
						<g id="Layer5_47_MEMBER_10_FILL_00000073708330316092906130000000318082237767832204_">
							<path class="st12" d="M258,382.4c-1.1,2.5-2.2,5.4-3.1,8.8c-1.1,4.3-1.7,8.3-1.9,11.5c7.8,1.3,16.7,2.2,26.4,2.4
								c16,0.3,30-1.6,41.1-3.9c-0.5-3.6-1.1-7.6-2.2-11.9c-0.8-3.3-1.7-6.4-2.7-9.2c-8,2.5-19.3,5-32.8,5
								C273.2,385.1,264.7,383.9,258,382.4z"/>
							<path class="st7" d="M334.1,564.1c-9.5,3.9-24.8,8.8-44.1,9.3c-23.2,0.6-41.4-5.6-51.5-9.8c1.1-6.3,2.3-12.7,3.4-19
								c3-17,6.1-33.9,9.1-50.9c-1.3-14.1-2-29.7-1.8-46.6c0.2-17.7,1.4-34,3.2-48.7c8.7,2.3,22.2,4.6,38.4,3
								c12-1.2,21.8-4.3,29-7.1c2.4,12.3,4.4,26.9,5,43.1c0.7,20.7-1,39-3.4,53.8c3.2,17.9,6.3,35.9,9.5,53.8
								C331.8,551.4,332.9,557.8,334.1,564.1z"/>
						</g>
					</g>
				</g>
				<g transform="matrix( 1, 0, 0, 1, -310.4,0) ">
					<g>
						<g id="Layer5_47_MEMBER_11_FILL_00000127008688366293764880000016785949479388189847_">
							<path class="st13" d="M575.4,298c-4.3,1.4-8.4,3.9-12.2,7.6L555.3,513c13.9,5.4,28.2,5.3,42.9-0.4c0.2-0.1,0.3-0.1,0.5-0.2
								c0.5-0.2,1.1-0.4,1.6-0.7l0-0.1l5.2-2.5l-0.7-12.2c-3.1-66.9-6.9-133.4-11.5-199.5c-0.1-1.3-0.2-2.7-0.3-4
								c-1.3-0.3-2.7-0.3-4.3-0.2l10.3,207c-9.5,5.3-19.7,6.8-30.6,4.5c-0.5-0.2-0.9-0.4-1.4-0.6L575.4,298z"/>
							<path class="st14" d="M588.8,293.3L588.8,293.3c-0.1-0.1-0.2-0.1-0.3-0.1c-4.4,0.5-8.8,2.1-13.1,4.8L567,504.2
								c0.5,0.2,1,0.4,1.4,0.6c10.9,2.3,21.1,0.8,30.6-4.5L588.8,293.3z"/>
						</g>
					</g>
				</g>
				<path class="st13" d="M334.1,564.1c-9.5,3.9-24.8,8.8-44.1,9.3c-23.2,0.6-41.4-5.6-51.5-9.8c1.1-6.3,2.3-12.7,3.4-19
					c10.3,4,25.6,8.4,44.4,8.5c18.5,0.1,33.7-4,44.4-8C331.8,551.4,332.9,557.8,334.1,564.1z"/>
				<path d="M310.5,250.5c-0.8-2.2-2.4-5.4-5.1-8.9c-0.5-0.5-1-1-1.5-1.5c-2.4-2.1-5.3-3.6-8.4-3.6c-0.2,0-0.3,0-0.5,0h0
					c-0.3,0-0.7,0.1-1,0.1c0-0.1-0.1-0.1-0.1-0.2c0,0-0.1-0.1-0.1-0.1c-1.6-0.8-3.6-1.3-5.7-1.4c0,0,0,0,0,0c-1.5-0.1-2.9,0-4.1,0.3
					c-0.1,0-0.3,0.1-0.4,0.1c-7.4,1.6-11.9,7-14.5,10.4c-6,7.8-7.1,16.2-7.3,21.3c0,0.8,0,1.6,0,2.2c-0.4,0.5-3.1,3.9-2,8.3
					c0.7,2.7,2.5,4.3,3.2,4.9c-1.4-4-1.6-7.6-0.5-8.5c0.1-0.1,0.5-0.4,1.1-0.8c0.4,1.3,0.9,2.8,1.6,4.3c2,4.6,4.8,7.9,7,10.1
					c-3,1.7-6.8,4.4-10.3,8.6c-1.3,1.6-2.3,3.1-3.2,4.6c1.4-0.3,3.5-0.5,5.9-0.1c5.1,0.9,6.5,4,11.4,6.7c2.1,1.2,10.3,5.5,17.6,2.5
					c3.6-1.6,5.7-4.4,6.6-5.8c3.9-6.4,1.4-13.4,1.1-14.4c1.1-0.9,2.8-2.6,4.5-4.8C313.1,275.3,314.9,261.7,310.5,250.5z"/>
			</g>
			<g transform="matrix( -1.1695404052734375, 0.6071929931640625, 0.6146087646484375, 1.1432952880859375, 5173.75,644.15) ">
				<g transform="matrix( 1, 0, 0, 1, 0,0) ">
					<g>
						<g id="Symbol_1g_0_Layer0_0_FILL_00000173156902828778018370000017572262194871192252_">
							<path class="st7" d="M3124.8-1949.8c-0.4-1.5-0.5-2.8-0.5-3.8c0-1.5-0.1-2.4,0.4-3.5c0.6-1.4,1.6-2.2,2.4-2.7
								c2.4,1.2,4.9,2.3,7.3,3.5c0.7,0.4,1,0.6,1,0.7c2.1,1.6,3.7,2.9,4.6,3.8l1.1,21.2c-3.1,0.7-6.4,0.9-10,0.5
								c-0.8-0.1-1.2-0.1-1.2-0.1L3124.8-1949.8z"/>
						</g>
					</g>
				</g>
			</g>
		</g>
	</g>
</g>
</svg>
