<?xml version="1.0" encoding="utf-8"?>
<!-- Generator: Adobe Illustrator 26.0.1, SVG Export Plug-In . SVG Version: 6.00 Build 0)  -->
<svg version="1.1" id="Layer_1" xmlns="http://www.w3.org/2000/svg" xmlns:xlink="http://www.w3.org/1999/xlink" x="0px" y="0px"
	 viewBox="0 0 1000 1000" style="enable-background:new 0 0 1000 1000;" xml:space="preserve">
<style type="text/css">
	.st0{clip-path:url(#SVGID_00000162326798240793908100000003068409622516215469_);fill:#BDDEEF;}
	.st1{clip-path:url(#SVGID_00000162326798240793908100000003068409622516215469_);fill:#FFFFFF;}
	.st2{clip-path:url(#SVGID_00000162326798240793908100000003068409622516215469_);}
	.st3{fill:#606060;}
	.st4{fill:#52A7C1;}
	.st5{fill:#FCB99B;}
	.st6{fill:#0066A5;}
	.st7{fill:#CD070C;}
	.st8{fill:#3E8ACE;}
	.st9{fill:#1E1E1E;}
	.st10{fill:#990000;}
	.st11{fill:#526672;}
	.st12{fill:#5E271B;}
	.st13{fill:#EA906C;}
	.st14{fill:#FFFFFF;}
	.st15{fill:#6B3628;}
	.st16{fill:#1D1818;}
	.st17{fill:#250A01;}
	.st18{fill:#EF865F;}
	.st19{fill:#531CBF;}
	.st20{fill:#EA4E5A;}
	.st21{fill:#EE252A;}
	.st22{fill:#353535;}
	.st23{fill:#DB2818;}
	.st24{fill:#C21111;}
	.st25{fill:#FFCC00;}
	.st26{fill:#E7372E;}
	.st27{fill:#444444;}
</style>
<g>
	<defs>
		<path id="SVGID_1_" d="M871.8,567c-2.2,32.9-37.3,77.4-72.6,90.9c-3.7,7.7-7.6,15.3-11.9,22.6c0,0-6.5,11.2-13.7,21.5
			c-17.2,24.6-294.4,155.6-484.3,6.7c-24.2-19-41.3-38-51.8-50.9c-20.9-7-42.2-21.2-55.4-40.6c-90.6-113-27.6-246.7,67.5-286.8
			c-0.1-1.6,115.9-25.2,116.8-41.4c9.3-13.5,5.6-27.6,5.3-42.8c3.4-80.7,84.2-176.7,188.9-154c53,16.3,63.9,97.2,139.3,113.3
			c28.6,7.4,39.7,3.3,56.7,9.1c30.4,10.5,44.3,44.3,45.5,47.4c18.1,45.7-28.6,68.8-27,123.2C777.3,466.1,882.5,494.6,871.8,567z"/>
	</defs>
	<clipPath id="SVGID_00000058557070447974454670000018159327086707362725_">
		<use xlink:href="#SVGID_1_"  style="overflow:visible;"/>
	</clipPath>
	<path style="clip-path:url(#SVGID_00000058557070447974454670000018159327086707362725_);fill:#BDDEEF;" d="M871.8,567
		c-2.2,32.9-37.3,77.4-72.6,90.9c-7.3,15.4-15.9,30.2-25.6,44.2c-40.4,29.1-131.8,85.6-255.2,85.7c-27.7,0-203.4,0.1-270.4-109.9
		c-4.9-8.1-8.3-15.2-10.4-20c-20.9-7-42.2-21.2-55.4-40.6c-90.6-113-27.6-246.7,67.5-286.8c-0.1-1.6,115.9-25.2,116.8-41.4
		c9.3-13.5,5.6-27.6,5.3-42.8c3.4-80.7,84.2-176.7,188.9-154c53,16.3,63.9,97.2,139.3,113.3c28.6,7.4,39.7,3.3,56.7,9.1
		c30.4,10.5,44.3,44.3,45.5,47.4c18.1,45.7-28.6,68.8-27,123.2C777.3,466.1,882.5,494.6,871.8,567z"/>
	
		<rect x="310.3" y="254.2" style="clip-path:url(#SVGID_00000058557070447974454670000018159327086707362725_);fill:#FFFFFF;" width="450.1" height="225.7"/>
	<g style="clip-path:url(#SVGID_00000058557070447974454670000018159327086707362725_);">
		<path class="st3" d="M762.4,481.5h-454V252.5h454V481.5z M312.3,478.2h446.2V255.8H312.3V478.2z"/>
	</g>
	<g style="clip-path:url(#SVGID_00000058557070447974454670000018159327086707362725_);">
		<path class="st4" d="M205.5,656.4h611.3c-10,21-27.8,51.5-58.8,78.9c-61.6,54.5-133.8,60-208.7,64.7
			c-85.5,5.3-197.8,12.3-283.2-63.3C235,709.1,216.4,678.5,205.5,656.4z"/>
	</g>
	<g style="clip-path:url(#SVGID_00000058557070447974454670000018159327086707362725_);">
		<g>
			<g transform="matrix( -1.1695404052734375, 0.6071929931640625, 0.6146087646484375, 1.1432952880859375, 5196.8,604.6) ">
				<g>
					<path class="st5" d="M3014.3-1727c-5.6-8.1-10.2-14.6-13.9-19.5c-0.8-1-1.5-2-2.1-2.9c-3.8-5.1-6.4-8.8-7.8-11.1
						c-0.7-1.3-1.6-2.8-2.8-4.4c-4-5.2-8-7.7-12-7.6c1.5,1.3,2.2,3.1,2.1,5.4c0,1.1,0,1,0-0.2c0.2,2.1-0.5,5.2-2.2,9.3
						c-0.5,1.4-1,2.4-1.4,3.1l0,0c0.3,1.3,1,2.7,2.3,4.3l2.5,2.6l-0.3-0.3l1.4,1.4c0,0-0.1-0.1-0.1-0.1l2.4,2.5
						c0.4,0.4,0.8,0.7,1.1,1.1c0.6,0.5,1.9,1.8,4,3.8c2,1.9,13.2,13.2,18.5,20.6c0.5,0.7,1.7,2.4,4,3.6c1.6,0.8,3.1,1,4.1,1.1
						c0.1-3.1,0.2-6.1,0.3-9.2c0.3-0.3,0.6-0.6,0.9-0.9C3016.9-1723.4,3016.4-1724.2,3014.3-1727z"/>
				</g>
			</g>
			<g transform="matrix( -1.1695404052734375, 0.6071929931640625, 0.6146087646484375, 1.1432952880859375, 5173.75,644.15) ">
				<g transform="matrix( 1, 0, 0, 1, 0,0) ">
					<g>
						<g id="Symbol_1g_0_Layer0_0_FILL_00000033336774261147028520000017595966459670456751_">
							<path class="st6" d="M2957.2-1786c-1.2-1.7-2.4-2.9-3.3-3.7c-1.4-1.3-2.4-2.1-3.8-2.6c-1.9-0.6-3.6-0.3-4.7,0.1
								c-0.9,3.4-1.8,6.8-2.7,10.3c-0.2,1-0.2,1.6-0.1,1.6c-0.2,3.5-0.3,6.1-0.2,7.8l20.1,19.1c3.3-2.5,6.4-5.6,9-9.5
								c0.6-0.9,0.9-1.3,0.9-1.3L2957.2-1786z"/>
						</g>
					</g>
				</g>
			</g>
			<g transform="matrix( 0.3377532958984375, 0, 0, 0.3377532958984375, 5280.4,571.5) ">
				<g transform="matrix( 1, 0, 0, 1, 0,0) ">
					<g>
						<g id="Seragu_0_Layer0_0_FILL_00000026129937427329433410000009843705455855240863_">
							<path class="st7" d="M-13616.1,59.3l-1.1,45.8c37.7,6.6,75.3,5.5,113-3.3l-2.8-55.6C-13543.5,53.5-13579.8,57.9-13616.1,59.3
								z"/>
							<path class="st8" d="M-13545.3-554.4c-16.1-3.7-33.5-6.3-52.2-7.6l-18.6,621.3c36.3-1.4,72.7-5.8,109-13.1L-13545.3-554.4z"
								/>
							<path class="st7" d="M-13548.4-556.1c13.8,200.8,27.5,401.6,41.3,602.3l2.8,55.6c11.3-3,16.4-3.3,23.2-13.6
								c-15.8-213.3-31.7-426.6-47.5-639.9C-13535.2-553.2-13541.8-554.7-13548.4-556.1z"/>
						</g>
					</g>
				</g>
			</g>
			<path class="st5" d="M717.8,486.6c0.7-8.4-0.3-16.4-1.7-21.5c-1-3.9-7.8,2.5-12.3,6l-0.3,0c-2,16,6.2,32.1-0.4,47.5
				c0.3-0.2,2-0.4,2-0.4c0.8,2.5,4.6,3.6,6.3,1.9C713.9,509,716.9,502.6,717.8,486.6z"/>
			<path class="st5" d="M716,461.8c-0.5-12.8-1.1-23.1-1.8-30.9c-0.1-1.6-0.2-3.1-0.3-4.6c-0.6-8.2-0.9-14.1-0.9-17.6
				c0.2-1.9,0.2-4.2,0-6.8c-0.8-8.5-3.5-14-8.1-16.7c0.8,2.4,0.3,4.9-1.4,7.4c-0.8,1.1-0.7,1.1,0.2-0.2c-1.2,2.4-4.2,5.3-9,8.6
				c-1.6,1.1-2.8,1.9-3.7,2.4l0,0c-0.6,1.6-0.8,3.7-0.5,6.2l1,4.6l-0.1-0.5l0.6,2.5c0-0.1-0.1-0.1-0.1-0.2l0.9,4.4
				c0.2,0.7,0.4,1.3,0.5,2c0.2,1,0.8,3.3,1.8,6.9l7.4,35.3c0.7,3.9,0.9,8.1,0.5,12.7c5.2-1.9,11.7-5.3,13-11
				C716.4,465,716.1,464.1,716,461.8z"/>
			<g transform="matrix( -1.1695404052734375, 0.6071929931640625, 0.6146087646484375, 1.1432952880859375, 5173.75,644.15) ">
				<g transform="matrix( 1, 0, 0, 1, 0,0) ">
					<g>
						<g id="Symbol_1g_0_Layer0_0_FILL_00000054944239029013260660000004647829687018754227_">
							<path class="st6" d="M2893.4-1751.3c-0.9-1.9-1.3-3.5-1.6-4.7c-0.4-1.9-0.7-3.1-0.4-4.6c0.4-1.9,1.5-3.3,2.4-4.1
								c3.4,0.9,6.8,1.8,10.2,2.7c1,0.3,1.5,0.6,1.5,0.7c3.2,1.6,5.4,2.8,6.9,3.7l6.6,27c-3.8,1.7-8,2.8-12.7,3.3
								c-1,0.1-1.6,0.2-1.6,0.2L2893.4-1751.3z"/>
						</g>
					</g>
				</g>
			</g>
			<path class="st5" d="M711.2,533.8l1.2-8c0-0.7,0.1-1.1,0.1-1.2l0.1-1.1c0-0.5,0.1-0.9,0-1.1l0-1.7l0-0.1l-0.4-5c0,0,0,0,0,0
				c0,0,0,0,0,0l-6.1-0.8l0,0l0,0l-0.5,0.5l-2,2.3l-2.8,4.5l-2.3,5.3l-1.2,8l-1,4.5c0,0.1,0,0.2,0.1,0.2l0,0c0.2,0,0.4,0,0.6,0
				c0.2,0,0.4,0,0.5-0.1c0.2,0,0.4-0.1,0.5-0.2c0.2-0.1,0.3-0.2,0.5-0.3l0.4-0.4l0.4-0.4l0.6-0.9c0.1-0.3,0.3-0.6,0.4-1l0.2-0.5
				l0.5-2.6l1.7-2.5l0.1,7l0,0l-0.3,1.2l-0.3-0.2l-0.4-0.2l-0.2-0.1l-0.2,0l-0.1,0l-0.2,0l-0.2,0l-0.6,0.3l-0.5,0.4
				c-0.1,0.1-0.1,0.1,0,0.2l1.8,2l-1.2-0.1l-1.2,0l-0.6,0.1l-0.1,0l-0.2,0l-1,0.4l0,0.1l-0.3,0.1l-0.1,0.1l0,0.1l-0.2,0.1l0,0.1
				l-0.1,0.1l-0.3,0.4l0,0.1l0,0l-0.2,0.4l0,0.1l0,0.1l-0.2,0.3l0,0.1l0,0.1c0,0.1,0,0.2,0.1,0.2l0,0l4.9-0.2l-1.4,0.6l-1.6,1.1
				l-0.5,0.5l-0.1,0.1l-0.2,0.3l0,0l-0.5,0.8l0,0.1l-0.1,0.1l-0.1,0.3l0,0.1l-0.1,0.5l0,0.1l0,0.1l-0.1,0.6l0,0.3
				c0,0.1,0,0.2,0.2,0.1l0.1,0l0,0l8.2-4.7l0.7-1.7l2.3-2.2l0.1-0.2l0.1-0.1l0.1-0.1l0.1-0.1l0.1-0.1l0-0.4l0-0.1l0-0.1L711.2,533.8
				z"/>
			<g transform="matrix( 0.3377532958984375, 0, 0, 0.3377532958984375, 3290.05,391.6) ">
				<g>
					<g id="Layer4_0_MEMBER_3_FILL_00000047029112497563026950000014232005284327268754_">
						<path class="st5" d="M-7827.9,884.9v6.2c-1.4,4-3.1,8-5.2,11.9c-3.4,8.2-6.2,15-8.4,20.4c-1.7,3.5-3.1,7.1-4.2,10.7
							c-0.4,0.8-0.8,1.7-1,2.6c0,0.5,0,1-0.1,1.5c-0.5,3.7-0.8,14.2,3.9,20.9c6.5,9.2,20.7,8.4,23.1,8.2
							c11.8-0.9,19.4-8.7,21.7-11.2c1.3-1.5,2.2-2.8,2.8-3.7c0.3-2.9,0.5-6.6,0.8-10.9c0.2-3.4,0.6-10.1,0.5-18.5
							c-0.1-7.8-0.3-15.3-0.7-22.5c-0.2-5.3-0.3-8.4-0.3-9.3v-0.1h-0.1c0.1-2.4,0.2-4.9,0.1-7.6
							C-7801.4,874.7-7812.3,875.1-7827.9,884.9z"/>
					</g>
				</g>
			</g>
			<g transform="matrix( 1.2063140869140625, 0.1528778076171875, -0.1528778076171875, 1.2063140869140625, 5202.45,1176.9) ">
				<g transform="matrix( 1, 0, 0, 1, 0,0) ">
					<g>
						<g id="Duplicate_Items_Folder_1s1hoe_lft_0_Layer0_0_FILL_00000048475333199712468440000012688378308055306137_">
							<path class="st9" d="M-3769,104.7c1.3,1.3,3.3,1.5,5.9,0.6c1.5-0.6,2.7-1.6,3.6-2.9c0.9-1.4,1.6-2.7,2-3.9
								c0.9-2.7,1.4-4.8,1.3-6.3c-0.1,1.4-0.5,3.4-1.3,5.8c-0.4,1.2-1.1,2.5-2,3.9c-0.9,1.3-2.1,2.3-3.6,2.9
								c-2.6,0.9-4.6,0.7-5.9-0.6c-1.5-1.7-2.4-3.9-2.7-6.7C-3771.5,100.6-3770.6,103-3769,104.7z"/>
							<path class="st10" d="M-3770.9,89.6L-3770.9,89.6c-0.3,0.9-0.5,2.3-0.7,4c-0.1,0.5-0.1,0.9-0.1,1.4c0,0.4,0,0.9,0,1.3l0,1.2
								c0.2,2.8,1.1,5,2.7,6.7c1.3,1.3,3.3,1.5,5.9,0.6c1.5-0.6,2.7-1.6,3.6-2.9c0.9-1.4,1.6-2.7,2-3.9c0.8-2.5,1.3-4.4,1.3-5.8
								c0-0.2,0-0.4-0.1-0.6c-0.2,0.3-0.4,0.6-0.5,0.8c-1.8,2.4-3.9,3.8-6.4,4.1c-0.6,0.1-1.2,0.1-1.7,0.1
								C-3769,96.5-3771,94.2-3770.9,89.6z"/>
							<path class="st11" d="M-3770.9,89.6c0-0.1,0-0.2,0-0.3C-3770.9,89.4-3770.9,89.5-3770.9,89.6L-3770.9,89.6z"/>
						</g>
					</g>
				</g>
			</g>
			<g transform="matrix( 0.337738037109375, 0, 0, 0.337738037109375, 3216.95,391.6) ">
				<g>
					<g id="Layer4_0_MEMBER_4_MEMBER_0_FILL_00000182508312731830443000000007217525982552758450_">
						<path class="st5" d="M-7551.6,888.1L-7551.6,888.1c0,1-0.1,4.1-0.3,9.4c-0.4,7.2-0.7,14.7-0.7,22.5
							c-0.1,7.8,0.1,13.9,0.5,18.5c0.5,4.5,0.7,6.9,0.7,7.2c0.1,0.5,0.2,1.1,0.3,1.7c0.1,0.1,0.1,0.1,0.1,0.2c0,0.2,0,0.4,0,0.6
							c0,0.3,0,0.5,0,0.8c0.3,0.3,0.6,0.7,0.8,1c0,0,0.8,0.9,1.5,1.8c13.9,15.2,31,13,31,13c3.4-0.4,10.5-1.3,15.4-7.2
							c5.2-6.4,4.5-14.5,4.3-16.3c-0.3-3.3-1.2-6-2-7.7c-0.3-0.9-0.6-1.7-1-2.6c-1.2-3.6-2.6-7.2-4.2-10.7
							c-2.3-5.4-5.1-12.2-8.4-20.4c-2.1-3.9-3.9-7.9-5.2-11.9v-6.2c-15.6-9.7-26.5-10.1-32.8-1.1c0,1.3,0,2.6,0,3.9
							C-7551.7,885.6-7551.7,886.9-7551.6,888.1z"/>
					</g>
				</g>
			</g>
			<g transform="matrix( -1.2062835693359375, 0.152862548828125, 0.152862548828125, 1.2062835693359375, 5292.25,1175.25) ">
				<g transform="matrix( 1, 0, 0, 1, 0,0) ">
					<g>
						<g id="Duplicate_Items_Folder_1s1hoe_lft_0_Layer0_0_FILL_00000168838870930623522520000014065344097721053334_">
							<path class="st9" d="M3713.2-842.9c1.3,1.3,3.3,1.5,5.9,0.6c1.5-0.6,2.7-1.6,3.6-2.9c0.9-1.4,1.6-2.7,2-3.9
								c0.9-2.7,1.4-4.8,1.3-6.3c-0.1,1.4-0.5,3.4-1.3,5.8c-0.4,1.2-1.1,2.5-2,3.9c-0.9,1.3-2.1,2.3-3.6,2.9
								c-2.6,0.9-4.6,0.7-5.9-0.6c-1.5-1.7-2.4-3.9-2.7-6.7C3710.7-847,3711.6-844.6,3713.2-842.9z"/>
							<path class="st10" d="M3711.3-858L3711.3-858c-0.3,0.9-0.5,2.3-0.7,4c-0.1,0.5-0.1,0.9-0.1,1.4c0,0.4,0,0.9,0,1.3l0,1.2
								c0.2,2.8,1.1,5,2.7,6.7c1.3,1.3,3.3,1.5,5.9,0.6c1.5-0.6,2.7-1.6,3.6-2.9c0.9-1.4,1.6-2.7,2-3.9c0.8-2.5,1.3-4.4,1.3-5.8
								c0-0.2,0-0.4-0.1-0.6c-0.2,0.3-0.4,0.6-0.5,0.8c-1.8,2.4-3.9,3.8-6.4,4.1c-0.6,0.1-1.2,0.1-1.7,0.1
								C3713.2-851.1,3711.2-853.4,3711.3-858z"/>
							<path class="st11" d="M3711.3-858c0-0.1,0-0.2,0-0.3C3711.3-858.3,3711.2-858.2,3711.3-858L3711.3-858z"/>
						</g>
					</g>
				</g>
			</g>
			<g transform="matrix( 0.337738037109375, 0, 0, 0.337738037109375, 3216.95,391.6) ">
				<g transform="matrix( 2.9608612060546875, 0, 0, 2.9608612060546875, -9524.95,-1159.45) ">
					<path class="st12" d="M-7474.4,337.7C-7474.4,337.7-7474.5,337.7-7474.4,337.7l-0.1-0.5c0,0,0-0.1,0.1-0.1h0c0,0,0.1,0,0.1,0.1
						L-7474.4,337.7C-7474.3,337.7-7474.3,337.7-7474.4,337.7L-7474.4,337.7z"/>
				</g>
			</g>
			<g transform="matrix( 1.428558349609375, 0.0227203369140625, -0.0227203369140625, 1.428558349609375, 5228.6,548.25) ">
				<g transform="matrix( 0.2199859619140625, 0, 0, 0.2199859619140625, -228.9,-225.1) ">
					<g>
						<g id="Duplicate_Items_Folder_1c2h_hair_ul_0_Layer0_0_MEMBER_0_FILL_00000062883668953951208780000018419884862044542645_">
							<path d="M-13432,681.7C-13432,681.7-13432,681.7-13432,681.7C-13432,681.7-13432,681.7-13432,681.7c2.2-3.3,4.3-6.8,6.2-10.7
								c10.9-21.1,13.6-41.9,13.8-57.4c0.1-2.9,0.1-32.4-20.8-48.4c-11.5-8.8-26.3-11.1-27.2-11.3c-10.1-1.4-20-0.5-29.7,2.7
								c-8.1,2.7-15.7,6.7-22.5,12.1c-0.5,0.4-1,0.8-1.5,1.2c-1.8,1.7-3.5,3.5-5.2,5.4c-9.6,10.6-16.8,22.4-21.6,35.6
								c-4.8,13.1-6.9,26.8-6.3,41.1c0.6,14.3,3.8,27.8,9.7,40.4c3.8,8.2,8.4,15,13.9,20.5c6.4,6.3,13.3,10.2,20.9,11.7
								c7.1,1.4,14.6,0.6,22.5-2.4c8-3,9.6-7.7,20.3-11.7c6.9-2.6,6.3-0.9,9.2-2.7C-13440.6,701.7-13432.1,681.7-13432,681.7z"/>
						</g>
					</g>
				</g>
			</g>
			<g transform="matrix( 0.3377532958984375, 0, 0, 0.3377532958984375, 3216.95,368.4) ">
				<g>
					<g id="Layer4_0_MEMBER_6_FILL_00000051349539202339165740000012391275948916824974_">
						<path class="st5" d="M-7459.2,72.2c-12.6,7-30.4,15.5-52.9,21.6c-38.9,10.5-70.7,8.3-82.8,7.1c-38.7-3.9-68.1-17-85.4-26.5
							c0.7-6.3,2.4-12,4.9-17.1c0.5-0.8,0.9-1.6,1.3-2.4c3.1-4.8,9.3-8.7,18.6-11.7c1.8-0.6,3.8-1.2,6-1.7c0.1-0.1,0.2-0.1,0.3-0.1
							h0.3c0.4-0.2,7.3-3.4,20.5-9.6c11.3-5.4,18.9-14.8,22.9-28.3l1.1-8.1l0.3-35l63.1,1v31.4c0.5,3,1.2,5.9,2.1,8.6
							c6.2,19.1,21.9,32.3,47.2,39.5c0.4,0.1,0.8,0.3,1.2,0.4h0.3c0.1,0,0.2,0,0.4,0.1c12.7,3.1,20.9,7.6,24.6,13.4
							c0.4,0.8,0.9,1.6,1.3,2.4C-7461.6,61.8-7460.1,66.8-7459.2,72.2z"/>
						<path class="st13" d="M-7539.3,0.2c-0.9-2.7-1.2-4.3-1.7-7.3v-31.4l-63.1-1l-0.3,35l-0.6,4.4c12.6,9.8,21.4,17.3,33.3,18.7
							C-7559,17.5-7550.1,8.5-7539.3,0.2z"/>
					</g>
				</g>
			</g>
			<g transform="matrix( -0.3599700927734375, 0, 0, 0.3599700927734375, 7402.85,360) ">
				<g>
					<g id="Layer4_0_MEMBER_7_MEMBER_0_MEMBER_0_FILL_00000021078949454309462810000009045327446275429555_">
						<path class="st5" d="M18788.2-54.6c-2.8-0.5-5.6,1-8.2,4.4c-2.6,3.4-4.3,7.7-5.2,13s-0.7,10,0.6,14c1.4,4.1,3.5,6.3,6.3,6.8
							c2.8,0.5,5.6-1,8.2-4.3c2.7-3.4,4.4-7.7,5.3-13c0.9-5.3,0.7-10-0.7-14C18793.2-51.9,18791.1-54.1,18788.2-54.6z"/>
					</g>
				</g>
			</g>
			<g transform="matrix( 0.3599700927734375, 0, 0, 0.3599700927734375, 3083.15,360.9) ">
				<g>
					<g id="Layer4_0_MEMBER_7_MEMBER_1_MEMBER_0_MEMBER_0_FILL_00000124841603444672552070000009557501538786280577_">
						<path class="st5" d="M-6681-55.9c-2.8-0.5-5.6,1-8.2,4.4c-2.6,3.4-4.3,7.7-5.2,13c-0.9,5.3-0.7,10,0.6,14
							c1.4,4.1,3.5,6.3,6.3,6.8c2.8,0.5,5.6-1,8.2-4.3c2.6-3.4,4.4-7.7,5.3-13c0.9-5.3,0.7-10-0.7-14
							C-6676-53.1-6678.1-55.4-6681-55.9z"/>
					</g>
				</g>
			</g>
			<g transform="matrix( 0.337738037109375, 0, 0, 0.337738037109375, 3216.95,368.4) ">
				<g>
					<g id="Layer4_0_MEMBER_7_MEMBER_2_FILL_00000155839578507800203340000007218492747621014933_">
						<path class="st5" d="M-7608.9-165.2c-23.2,18.1-31.4,54-18.3,88c3.9,32.6,10.5,53.2,19.9,61.9c9.4,8.7,16.9,14.8,22.7,18.2
							c1.5,0.9,3.9,3.2,7.7,4.1c2.3,0.5,4.6,0.5,5.6,0.5c2.2,0,4.1-0.3,5.4-0.5c2.2-1,4.7-2.3,7.6-4.1c5.8-3.5,13.5-9.5,22.8-18.2
							c9.3-8.7,16.2-29.4,20.7-62.3c11.7-34.1,6.6-68.4-13.7-86.5c-10.9-9.7-23.9-12.8-27.3-13.5
							C-7576.6-182.1-7596.6-174.8-7608.9-165.2z"/>
					</g>
				</g>
				<g>
					<g transform="matrix( 0.3377532958984375, 0, 0, 0.3377532958984375, 3216.95,368.4) ">
						<g>
							<g id="Layer4_0_MEMBER_10_FILL_00000151521162342392976430000011661091064365754537_">
								<path class="st14" d="M-32024.7-1301.9c2.1,0.3,4,0.6,5.7,0.8c5.7,0.5,11.6,0.4,17.6-0.4c3.5-0.3,7.1-0.9,10.8-1.8
									c7.7-1.6,15-3.9,21.9-6.7c-3.4-9.8-11.6-17.7-24.8-23.7c-2.5-0.9-4.9-1.8-7.4-2.6c-8.5-2.4-16.9-3.4-25.5-2.8
									c-8.8,0.8-17.7,3.3-26.7,7.5c-6.2,2.7-10.2,5.6-11.8,8.6c4,5,10,9.6,17.8,13.7
									C-32039.9-1305.6-32032.5-1303.1-32024.7-1301.9z"/>
							</g>
						</g>
					</g>
					<g>
						<g transform="matrix( 1.0824432373046875, -0.0170745849609375, 0.0170745849609375, 1.0824432373046875, 5226.3,494.1) ">
							<g transform="matrix( 1, 0, 0, 1, 0,0) ">
								<g>
									<g id="Duplicate_Items_Folder_ch3eye_ball_0_Layer0_0_FILL_00000163754282474037801820000008358270274974042254_">
										<path class="st15" d="M-11828.2-715.1c0,1.8-0.7,3.3-2.1,4.6c-1.3,1.3-2.9,2-4.8,2c-1.8,0-3.4-0.7-4.7-2.1
											c-1.3-1.3-1.9-2.8-1.9-4.6c0-1.9,0.7-3.5,2-4.8c0.7-0.6,1.4-1.1,2.1-1.4l0.2,0c2.2,0.1,4.4,0.4,6.7,1.1c0,0,0,0,0,0
											c0.1,0.1,0.3,0.3,0.4,0.4C-11828.8-718.5-11828.2-716.9-11828.2-715.1z"/>
									</g>
								</g>
							</g>
							<g transform="matrix( 1.2004852294921875, 0, 0, 1.2004852294921875, -268.9,-88.45) ">
								<g>
									
										<g id="Duplicate_Items_Folder_ch3eye_ball_0_Layer0_0_MEMBER_0_MEMBER_0_FILL_00000148621346637261857980000006421901231492177324_">
										<path class="st16" d="M-9634.4-524.9c-0.8,0-1.5,0.2-2.1,0.7c-0.5,0.6-0.8,1.3-0.8,2.1c0,0.8,0.2,1.5,0.7,2
											c0.6,0.6,1.3,0.9,2.1,0.9c0.8,0,1.5-0.3,2-0.8c0.6-0.5,0.9-1.2,0.9-2c0-0.8-0.3-1.5-0.8-2.1
											C-9633-524.7-9633.6-524.9-9634.4-524.9z"/>
									</g>
								</g>
							</g>
							<g transform="matrix( 1.5006103515625, 0, 0, 1.5006103515625, -7.4,7.4) ">
								<g>
									
										<g id="Duplicate_Items_Folder_ch3eye_ball_0_Layer0_0_MEMBER_0_MEMBER_1_FILL_00000007401872514892788490000018101090765109165746_">
										<path class="st14" d="M-7879.3-482.1c0.2-0.1,0.3-0.4,0.3-0.7c0-0.3-0.1-0.5-0.3-0.7c-0.1-0.2-0.4-0.3-0.7-0.3
											c-0.3,0-0.5,0.1-0.7,0.3c-0.2,0.2-0.3,0.4-0.3,0.7c0,0.3,0.1,0.5,0.3,0.7c0.2,0.2,0.4,0.3,0.7,0.3
											C-7879.7-481.8-7879.5-481.9-7879.3-482.1z"/>
									</g>
								</g>
							</g>
						</g>
						<path class="st17" d="M-7619.9-79.6c1.9,1.9,11.3,10.8,24.9,10.3c5.8-0.2,10.3-2.1,13.2-3.6c0.9,0.3,1.9,0,1.3-1.1l0-0.1
							l-0.1,0c-0.1-0.1-0.1-0.1-0.1-0.2c-1.5-3.9-3.7-6.3-5.1-7.5c-6.1-5.4-15.7-6.6-22.7-2.6c-2.6,1.5-4.4,3.4-5.4,4.8
							c0,0,0,0-0.1,0C-7615.8-79.4-7617.8-79.3-7619.9-79.6z M-7611-77.6c0.7-0.7,6.3-6.5,14.9-5.7c9.2,0.8,13.8,8.5,14.2,9.2
							c-1.6,1-8.2,4.7-16.7,3.1C-7605.3-72.3-7609.5-76.1-7611-77.6z"/>
					</g>
				</g>
				<g>
					<g transform="matrix( 0.3377532958984375, 0, 0, 0.3377532958984375, 3216.95,368.4) ">
						<g>
							<g id="Layer4_0_MEMBER_10_FILL_00000016786147984701555070000016786264881625528974_">
								<path class="st14" d="M-31865.1-1299.4c-2.1,0.3-4,0.5-5.7,0.6c-5.7,0.4-11.6,0-17.6-1c-3.5-0.5-7.1-1.2-10.8-2.1
									c-7.6-1.9-14.8-4.3-21.7-7.4c3.7-9.7,12.2-17.3,25.5-22.9c2.5-0.9,5-1.7,7.5-2.4c8.5-2.2,17-2.9,25.5-2
									c8.8,1,17.6,3.8,26.5,8.3c6.1,2.9,10,5.9,11.6,9c-4.2,4.9-10.3,9.3-18.2,13.1
									C-31849.8-1302.7-31857.3-1300.4-31865.1-1299.4z"/>
							</g>
						</g>
					</g>
					<g>
						<g transform="matrix( 1.0824432373046875, -0.0170745849609375, 0.0170745849609375, 1.0824432373046875, 5226.3,494.1) ">
							<g transform="matrix( 1, 0, 0, 1, 0,0) ">
								<g>
									<g id="Duplicate_Items_Folder_ch3eye_ball_0_Layer0_0_FILL_00000172399468332256630080000012716641558721468861_">
										<path class="st15" d="M-11797.1-714.1c-0.1,1.8,0.5,3.4,1.8,4.7c1.2,1.4,2.8,2.2,4.6,2.3c1.8,0.1,3.4-0.5,4.8-1.8
											c1.4-1.2,2.1-2.7,2.2-4.5c0.1-1.9-0.5-3.5-1.7-4.9c-0.6-0.7-1.3-1.2-2.1-1.5l-0.2,0c-2.2-0.1-4.5,0.2-6.7,0.7c0,0,0,0,0,0
											c-0.2,0.1-0.3,0.2-0.4,0.4C-11796.3-717.5-11797-716-11797.1-714.1z"/>
									</g>
								</g>
							</g>
							<g transform="matrix( 1.2004852294921875, 0, 0, 1.2004852294921875, -268.9,-88.45) ">
								<g>
									
										<g id="Duplicate_Items_Folder_ch3eye_ball_0_Layer0_0_MEMBER_0_MEMBER_0_FILL_00000001626937127734813910000003537425629523115951_">
										<path class="st16" d="M-9597.2-523.8c0.8,0,1.5,0.3,2,0.9c0.5,0.6,0.7,1.3,0.7,2.1c0,0.8-0.3,1.4-0.9,1.9
											c-0.6,0.6-1.3,0.8-2.1,0.8c-0.8,0-1.4-0.4-1.9-1c-0.6-0.5-0.8-1.2-0.8-2c0-0.8,0.4-1.5,1-2
											C-9598.7-523.6-9598-523.8-9597.2-523.8z"/>
									</g>
								</g>
							</g>
							<g transform="matrix( 1.5006103515625, 0, 0, 1.5006103515625, -7.4,7.4) ">
								<g>
									
										<g id="Duplicate_Items_Folder_ch3eye_ball_0_Layer0_0_MEMBER_0_MEMBER_1_FILL_00000056415376318496892460000014441623842672969108_">
										<path class="st14" d="M-7854.6-481.3c-0.2-0.2-0.3-0.4-0.3-0.7c0-0.3,0.1-0.5,0.3-0.7c0.2-0.2,0.4-0.3,0.7-0.3
											c0.3,0,0.5,0.1,0.7,0.3c0.2,0.2,0.3,0.4,0.3,0.7c0,0.3-0.1,0.5-0.3,0.7c-0.2,0.2-0.4,0.3-0.7,0.3
											C-7854.2-481-7854.5-481.1-7854.6-481.3z"/>
									</g>
								</g>
							</g>
						</g>
						<path class="st17" d="M-7530.8-78.4C-7530.8-78.4-7530.9-78.4-7530.8-78.4c-1.1-1.4-2.7-3.4-5.3-5c-6.9-4.2-16.6-3.3-22.8,1.9
							c-1.4,1.2-3.7,3.5-5.4,7.4c0,0.1,0,0.2-0.1,0.2l-0.1,0l0,0.1c-0.6,1.1,0.4,1.3,1.3,1.1c2.8,1.6,7.3,3.6,13.1,4
							c13.6,1,23.2-7.6,25.2-9.5C-7527-77.9-7529-78-7530.8-78.4z M-7546.4-70.2c-8.6,1.3-15-2.6-16.6-3.6c0.4-0.7,5.2-8.2,14.5-8.7
							c8.6-0.5,14,5.4,14.7,6.1C-7535.4-74.9-7539.7-71.3-7546.4-70.2z"/>
					</g>
				</g>
			</g>
			<g transform="matrix( 0.3377532958984375, 0, 0, 0.3377532958984375, 3216.95,368.4) ">
				<g>
					<g id="Layer4_0_MEMBER_8_FILL_00000109005845567874214300000014255545883926555799_">
						<path class="st13" d="M-7573.1-41.4c0.4,0.2,1.8,0.6,3.6,0.4c3.6-0.4,6.4-3.3,6.1-3.8c-0.3-0.5-3,1.6-7.2,1.4
							c-3.8-0.2-6.1-2.1-6.4-1.5C-7577.3-44.5-7575.5-42.4-7573.1-41.4z"/>
					</g>
				</g>
			</g>
			<g transform="matrix( 0.337677001953125, 0, 0, 0.337677001953125, 3216.95,368.4) ">
				<g>
					<g id="Layer4_0_MEMBER_10_MEMBER_1_FILL_00000062154963772108770610000003054378486601282191_">
						<path class="st18" d="M-7581.9-74.1L-7581.9-74.1l-0.1-0.1v0.1c0,0.1,0,0.1,0.1,0.2C-7581.9-74-7581.9-74.1-7581.9-74.1z"/>
					</g>
				</g>
			</g>
			<g transform="matrix( 1.1208038330078125, -0.013397216796875, 0.0169830322265625, 1.078460693359375, 4974.4,418.95) ">
				<g>
					<g id="Layer4_0_MEMBER_10_MEMBER_2_FILL_00000130645028446377598700000009996824026984781498_">
						<path d="M-3850.7-123.5c0,0,0.4-0.4,0.3-0.9c0-0.1-0.1-0.3-0.2-0.3c-1.8-1-3.5-1.4-4.6-1.6c-1.1-0.2-2.2-0.4-3.7-0.2
							c-2,0.3-3.5,1.3-4.4,2.1c1.1-0.3,2.5-0.6,4-0.7C-3855.6-125.3-3852.5-124.3-3850.7-123.5z"/>
					</g>
				</g>
			</g>
			<g transform="matrix( 1.1208038330078125, -0.013397216796875, 0.0169830322265625, 1.078460693359375, 4974.4,418.95) ">
				<g>
					<g id="Layer4_0_MEMBER_10_MEMBER_2_FILL_00000036932998588644964990000007676522173255426447_">
						<path d="M-3845-123.4c0,0-0.4-0.5-0.3-0.9c0-0.1,0.1-0.3,0.2-0.3c1.9-0.9,3.5-1.3,4.7-1.5c1.1-0.2,2.2-0.3,3.7-0.1
							c2,0.4,3.5,1.4,4.4,2.2c-1.1-0.3-2.4-0.6-4-0.8C-3840.1-125.1-3843.2-124.2-3845-123.4z"/>
					</g>
				</g>
			</g>
			<g transform="matrix( 0.337677001953125, 0, 0, 0.3437042236328125, 3216.95,364.85) ">
				<g>
					<g id="Layer4_0_MEMBER_13_MEMBER_0_FILL_00000096049689743136267980000004545500705664125096_">
						<path class="st19" d="M-7678.5,151.3c-0.4-0.5-0.7-1-0.9-1.4c4.3,8.7,9.4,17.9,15.4,27.6c1.4,3.1,2.7,6.1,3.9,9.2
							c12.9,21,39.4,27.5,79.6,19.5c43,13.9,75.1,8.2,96.3-17.2c1.4-3.8,3-7.6,4.7-11.4c3.6-5.8,7-11.5,9.9-16.9
							c-0.4,0.5-0.9,1-1.4,1.5c-7.6,8-16.7,13.4-27.4,16.2c-11.6,3.1-27.4,3-47.2-0.5c-17.1-2.5-24.2-3.7-21.5-3.5
							c-6.3-0.6-15.5-0.7-27.6-0.3c-12.3,0.3-22.7,0.9-31,1.7c-8.4,0.8-16.2,0.2-23.5-1.9C-7661.2,170.6-7671,163.1-7678.5,151.3
							 M-7572.2,173.2c-0.1,0-0.2,0-0.3,0l0.1,0c0.5,0.1,1.1,0.1,1.7,0.2c0.1,0,0.2,0,0.4,0c-0.4-0.1-0.9-0.2-1.3-0.3
							c-0.1,0-0.1,0-0.2,0C-7571.9,173.2-7572,173.2-7572.2,173.2z"/>
						<path class="st6" d="M-7507.6,41.3c-0.3-0.2-0.9-0.5-1.6-0.9c-3.7-1.9-6.5-3.2-7.2-3.5c-2.2-1-6.3-3.1-14.2-7.6
							c1.3,7.1,2.9,22.2-4,38.9c-3.5,8.5-8.2,14.8-12,19.1c-5.3,2.3-16.6,6.3-31,4.7c-10-1.1-17.6-4.5-22.2-7
							c-3.9-5.5-8.7-13.2-12-23.2c-2.9-8.9-4.7-18.8-5.4-29.9c-4.9,1.9-9.8,4.1-14.6,6.7c2.2-0.9-12.7,6.3-21.4,10.4
							c-3.3,1.6-6.8,2.9-10.4,3.9c-9.7,2.6-20.9,7.1-24.1,12.7c-14.1,24.5,0.6,62.3,9.2,85.9c13.7,37.7,24.6,93.9,10.7,174.4
							c11,5.6,52.7,25.2,105.5,13.5c49-10.9,77.1-41.9,85.4-51.9c-8.8-38.5-5.6-67.5-1.1-86.9c5-21.2,10.9-27.8,20.6-65.3
							c13.1-50.6,8.6-63.2,2.1-69.7c-2.8-2.8-11.3-6.4-28.2-13.4C-7491.6,48.5-7499.7,45.5-7507.6,41.3z M-7572.4,173.2
							c0.7,0,1.5,0.1,2.2,0.3C-7571,173.4-7571.8,173.3-7572.4,173.2z"/>
					</g>
				</g>
			</g>
			<g transform="matrix( 0.337677001953125, 0, 0, 0.3437042236328125, 3216.95,364.85) ">
				<g>
					<g id="Layer4_0_MEMBER_13_MEMBER_1_FILL_00000090270040289941144080000002453552285510138538_">
						<path class="st6" d="M-7432,933.6c-4.6,2.2-11.2,5.3-19.3,8.7c-20.3,8.5-48.1,20.2-80.4,24.5c-11.8,1.6-52.1,6-99.8-10.2
							c-30.9-10.5-53.3-25.6-67-36.5c1.3-6.8,19.1-96.8,28.1-152.7c2.5-15.9,4.2-27.8,6-47.9c0.9-10.9,1.7-25.5,1.3-43.3
							c27.5-42.1,56.5-91.8,83.7-149c27.4-57.5,47.7-111.4,63-159.3c11.7,85.4,23.4,170.8,35.1,256.2
							C-7464.7,727.2-7448.4,830.4-7432,933.6z"/>
						<path class="st20" d="M-7464.3,324.2c-2-7.1-4.2-14.4-6.7-22c-2.2-6.5-4.4-12.8-6.7-18.8c-6.5,4.5-13.1,9-19.6,13.5
							c-6,22.4-11.9,44.8-17.9,67.1C-7498.2,350.9-7481.2,337.6-7464.3,324.2z"/>
						<g>
							<path class="st21" d="M-7495.5,46c0.3-0.5,0.5-1,0.8-1.5v0c0-0.1,0.1-0.2,0.1-0.2c0,0,0,0,0-0.1l0,0
								c-0.6,0.8-1.2,1.6-1.9,2.4c0.5-0.7,1.1-1.3,1.6-2C-7495,45.1-7495.3,45.5-7495.5,46z"/>
							<path class="st6" d="M-7464.3,324.2c-18.5,14.4-37.1,28.8-55.6,43.2c15.2,104,30.4,208,45.6,312
								c6.9-29.7,12.8-61.8,16.9-96.3C-7445.4,482.8-7452.2,394.5-7464.3,324.2z"/>
						</g>
					</g>
				</g>
			</g>
			<g transform="matrix( 0.3376007080078125, 0, 0, 0.3436279296875, 3216.95,364.85) ">
				<g>
					<g id="Layer4_0_MEMBER_13_MEMBER_1_MEMBER_4_FILL_00000155123172220221761100000011411603620738519188_">
						<path class="st7" d="M-7422.7,59.1c-16.5-3.7-33.1-7.4-49.6-11.1c-15,41.3-30,82.7-45,124c-52.4,143.8-105.1,287.5-158.3,431
							c3.6,24.4,7.3,48.8,10.9,73.3c45.4-42,81.3-100.5,107.6-175.4C-7512.3,353.6-7467.5,206.3-7422.7,59.1z"/>
						<path class="st8" d="M-7496.2,39.9c-30.1,23.9-60.5,48.5-91,73.6c-29.5,24.2-58.4,48.4-86.8,72.4l9,35.3l2,8
							c-15.8,73-27.3,163-22.9,265.6c1.6,38.8,5.4,75.1,10.4,108.8c53.1-143.7,105.9-287.5,158.3-431.5c15-41.3,30.1-82.7,45-124
							C-7480.2,45.3-7488.2,42.6-7496.2,39.9z"/>
						<path class="st7" d="M-7497,44l-9.9-1.2c-75.6,34.8-133.2,68.8-172.8,102.1l5.6,40.9C-7617.3,136.5-7558.3,89.2-7497,44z"/>
					</g>
				</g>
			</g>
			<g>
				<path d="M689,344.6c0.1-5.2-0.4-17-8.3-27.6c-3-4.1-8.2-10.5-16.9-12.3c-3.2-0.7-7.9-0.4-11.1,1.3c0,0,0,0.1-0.1,0.1
					c0,0.1,0,0.2-0.1,0.2c-0.4-0.1-0.7-0.1-1.1-0.1c0,0,0,0-0.1,0c-6.1-0.4-11.3,4.4-14.4,9.5c-7.5,12.5-7.4,37.6,2.9,47.5
					c0,0,0.1,0.1,0.1,0.1c3.1,3.9,4.2,4.7,7,9.1c0.5-1.1,1.1-2.6,1.4-4.5c0.2-1.6,0.2-3,0.1-4c-3.4-2.7-5.1-7.3-5.5-10.4
					c-0.1,0-0.2-0.1-0.4-0.2c-0.2-0.1-0.5-0.3-0.8-0.6c-1.4-1.5-2.5-3.5-3.2-6.1c-0.1-0.5-0.2-0.9-0.3-1.4c0.2-0.3,0.4-0.5,0.7-0.8
					c1.7-1.2,2.9-3.4,2.3-5.5c-0.2-4.4,0.6-8.7,2.6-12.4c1.1-2,2.4-3.6,3.9-5c0.7-0.6,1.4-1,2.2-1.2c0.3-0.1,0.5-0.1,0.8-0.1
					c5.6-1.2,10,3.5,12.4,8.3l0.9,2.4c0.1,0.3,1.4,2.6,1.6,3l0,0l0,0.1l0.4,0.6c0.3,0.5,0.6,0.9,0.8,1.2l1,1.4c2,3.2,5,6.2,8,7.6
					c0.8,0.4,2.2,0.9,3.3,1.3l2.8,1.1c0.3,0.1,0.5,0.2,0.7,0.2l1.4,0.4h0c0.1,0,0.1,0.1,0.2,0.1c1.9,1,3.3,2,3.5,2.2
					c1.3,1.1,1.1,5.3-0.5,10c0.8-0.7,2.9-2.6,3.7-5.8C692.5,349.2,689.4,345.2,689,344.6z"/>
			</g>
			<g>
				<g transform="matrix( 0.3376922607421875, 0, 0, 0.3376922607421875, 3216.95,368.4) ">
					<g>
						<g id="Layer4_0_MEMBER_14_MEMBER_0_MEMBER_2_FILL_00000062900534994686336120000014597062980786448018_">
							<path class="st22" d="M-7553.7-128.7c2.6,20.5,16.1,40.7,35.3,52.6C-7535.7-89.8-7548.5-108.7-7553.7-128.7
								C-7553.7-128.8-7553.7-128.8-7553.7-128.7z"/>
						</g>
					</g>
				</g>
			</g>
			<g transform="matrix( 0.3377532958984375, 0, 0, 0.3377532958984375, 3217.2,368.05) ">
				<g>
					<g id="Layer4_0_MEMBER_15_FILL_00000106105362976529624340000002409456028292567990_">
						<path class="st23" d="M-7575-99.7c-0.7,0.7-1,1.5-1,2.5c0,1,0.3,1.8,1,2.5s1.5,1,2.5,1c1,0,1.8-0.3,2.5-1s1-1.5,1-2.5
							c0-1-0.3-1.8-1-2.5s-1.5-1-2.5-1C-7573.5-100.8-7574.3-100.4-7575-99.7z"/>
					</g>
				</g>
			</g>
			<g>
				<path class="st24" d="M642.8,354.8c0,0.5-0.2,0.9-0.4,1.1c-0.5,0.5-1.4,0.4-1.9-0.2c-0.2-0.2-0.3-0.6-0.3-1c0-0.1,0-0.2,0-0.3
					c0.2-1,0.6-2,1.3-3c0,0,0,0,0,0c0.6,1,1.1,2,1.2,2.9C642.8,354.6,642.8,354.7,642.8,354.8z"/>
				<path class="st25" d="M643.4,354.3c-0.1-0.2-0.1-0.4-0.2-0.7c-0.4-1.2-0.9-2.4-1.7-3.5c-0.8,1.1-1.4,2.4-1.8,3.8
					c0,0.1-0.1,0.2-0.1,0.4c-0.4,2.2,0.2,3.3,1.8,3.3c1.3,0,2-0.7,2-2.1C643.5,355.2,643.4,354.7,643.4,354.3z M642.5,355.8
					c-0.5,0.6-1.5,0.6-2,0c0,0,0,0,0,0c-0.3-0.4-0.3-0.8-0.3-1c0-0.1,0-0.2,0-0.3c0.2-1,0.6-2,1.2-3l0-0.2v0.2c0,0,0,0,0,0
					c0.6,1,1.1,2,1.2,2.9c0,0.1,0,0.2,0.1,0.4C642.8,355.2,642.7,355.5,642.5,355.8z"/>
			</g>
			<g>
				<path class="st24" d="M678.3,357.2c0,0.5-0.2,0.9-0.4,1.1c-0.5,0.5-1.4,0.4-1.9-0.2c-0.2-0.2-0.3-0.6-0.3-1c0-0.1,0-0.2,0-0.3
					c0.2-1,0.6-2,1.3-3c0,0,0,0,0,0c0.6,1,1.1,2,1.2,2.9C678.3,357,678.3,357.1,678.3,357.2z"/>
				<path class="st25" d="M678.9,356.7c-0.1-0.2-0.1-0.4-0.2-0.7c-0.4-1.2-0.9-2.4-1.7-3.5c-0.8,1.1-1.4,2.4-1.8,3.8
					c0,0.1-0.1,0.2-0.1,0.4c-0.4,2.2,0.2,3.3,1.8,3.3c1.3,0,2-0.7,2-2.1C679,357.5,679,357.1,678.9,356.7z M678,358.2
					c-0.5,0.6-1.5,0.6-2,0c0,0,0,0,0,0c-0.3-0.4-0.3-0.8-0.3-1c0-0.1,0-0.2,0-0.3c0.2-1,0.6-2,1.2-3l0-0.2v0.2c0,0,0,0,0,0
					c0.6,1,1.1,2,1.2,2.9c0,0.1,0,0.2,0.1,0.4C678.3,357.6,678.2,357.9,678,358.2z"/>
			</g>
			<path d="M684.1,365.3c2,8.6,3.5,18.9,3.8,30.7c0.5,22.2-4,40.4-8.2,52.9c-1.7-3.4-3.9-8.9-4.4-16.1c-0.5-5.9,0.3-10.8,1.1-14.1
				c-1.1,4.4-1.9,9.6-2.1,15.5c0,1.9,0,3.7,0.1,5.5c-2.2-5.6-4.3-12.7-5.3-21.2c-2.3-20.3,3.6-36.5,7.4-44.9
				C679.1,370.8,681.6,368,684.1,365.3z"/>
			<path class="st7" d="M652.1,688.2c-3.5,0.9-10.3,2.1-18.6,0.2c-8-1.8-13.5-5.6-16.2-7.8c-1.4,6.3-2.7,12.5-4.1,18.8
				c2.4,2,6.1,4.6,11,6.7c5.2,2.2,9.6,2.9,11.6,3.1c6.6,0.8,12.1-0.1,15.6-1c4,1.7,12.2,4.4,22.7,3.4c8.4-0.9,14.7-3.8,18.3-5.8
				c1.4,0.2,5.2,0.6,9.2-1.4c5.3-2.7,7.2-7.6,7.6-8.7c-0.8-4.8-1.6-9.7-2.4-14.5c-1.3,1.4-3.5,3.2-6.6,4.6
				c-5.6,2.4-10.7,1.8-12.8,1.4c-2.9,1.7-9.5,5.1-18.5,5.1C661,692.2,655,689.7,652.1,688.2z"/>
			<g transform="matrix( 1, 0, 0, 1, 0,0) ">
				<g>
					<g id="Layer5_48_MEMBER_2_FILL_00000010271873623757893850000006265749480935599026_">
						<path class="st26" d="M660.1,359.1c-5.6,0-5.8,0.1-5.9,0.3c-0.1,0.5,2.7,1.9,5.7,1.9c3,0,5.8-1.4,5.7-1.9
							C665.5,359.2,665.2,359.1,660.1,359.1z"/>
					</g>
				</g>
			</g>
			<path class="st22" d="M653.8,315.5c2,0.6,4.8,1.7,7.3,4c2.6,2.5,2.6,4.3,5,9.2c2.3,4.8,5.4,10.9,11.2,14.3
				c3.1,1.8,6.3,2.6,6.4,2.3c0.1-0.3-3-1.3-5.9-4c-2.6-2.5-2.8-4.6-6.2-12.4c-2.2-5-3.2-7.6-4.3-8.7
				C665.7,318.4,662.1,315.5,653.8,315.5z"/>
		</g>
		<g>
			<g>
				<g>
					<g>
						<g>
							<path class="st5" d="M595.7,431.7c-3.1,0.7-6.3,1.4-9.4,2c-0.5-1.1-1.1-1.9-1.5-2.5c-0.5-0.6-1-1.4-1.9-2.3
								c-0.4-0.3-0.7-0.6-0.9-0.8c-0.1-0.1-0.1-0.1-0.1-0.1c-0.2,0-5.2-2.6-7.5-3.7c-0.5-0.3-0.9-0.7-1.1-1.3l-1.3-3.8
								c-0.1-0.4-0.2-1-0.2-1.8c0-1,0.2-2.6,2.8-7c0.4-0.7,1-1.6,1.7-2.7c0.1-0.2,0.4-0.9,1.1-1.1c0.1,0,0.2,0,0.3,0l3.9,0.6
								l1.3,4.7l0.6-4.5l3.9,6.1c1.1,1.5,1.5,3.4,1.2,5.3l0.1,0.6c0.2,1.7,0.7,3.3,1.6,4.7c0.1,0.2,0.2,0.3,0.2,0.3
								C591.1,425.3,592.5,427.3,595.7,431.7z"/>
							<path class="st27" d="M581.4,388.4l-1.2,31.4l2.9,0.1l1.2-31.4c-0.4-1.4-0.8-2.9-1.2-4.3C582.5,385.6,581.9,387,581.4,388.4z
								"/>
							<path class="st5" d="M583.7,407.6c-0.3-0.4-0.8-0.6-1.3-0.4c-0.4,0.2-0.7,0.6-0.6,1l-0.2,1.1c-0.2,1.4,0.1,2.7,0.9,3.9l1.7,3
								C584,413.5,583.9,410.4,583.7,407.6z"/>
							<path class="st5" d="M580.6,407c0.1,0,0.5,0,0.8,0.4c0.3,0.3,0.3,0.6,0.3,0.7c0,0.2-0.1,0.4-0.1,0.5
								c-0.1,0.8-0.8,1.5-1.7,1.5l-0.8,0.1L580.6,407z"/>
							<path class="st5" d="M581.2,411.9l0,0.5c0,0.7-0.7,1.2-1.4,1.1l-2-0.4l2.3,1.1c0.5,0.2,0.8,0.8,0.7,1.4l0,0
								c-0.2,0.7-0.9,1.1-1.6,0.9l-2-0.7c-0.6-0.2-1-0.9-0.8-1.5l1.2-3.7c0.3-0.8,1.2-1.1,1.9-0.6l1.2,0.9
								C581.1,411.1,581.2,411.5,581.2,411.9z"/>
							<path class="st13" d="M574.1,416.1c0.7,0,1.4,0,2.1,0.2c0.7,0.1,1.3,0.3,2,0.5c0.2,0,0.4,0.1,0.5,0.2
								c0.2,0.1,0.3,0.3,0.4,0.5c0.1,0.4,0.1,0.8-0.1,1.2c-0.2,0.4-0.5,0.6-0.8,0.8c-0.3,0.1-0.7,0.2-1.1,0c0.7,0,1.3-0.4,1.5-1
								c0.1-0.3,0.1-0.6,0-0.8c-0.1-0.3-0.3-0.3-0.6-0.4c-0.7-0.2-1.3-0.4-2-0.6C575.4,416.5,574.8,416.3,574.1,416.1z"/>
							<path class="st13" d="M577.1,409.4c1.5-0.4,3.2,0.4,3.9,1.7C579.8,410.3,578.5,409.8,577.1,409.4L577.1,409.4z"/>
							<path class="st13" d="M575.4,412.8c1.8-0.3,3.8,0.3,5,1.6C578.8,413.8,577.2,413.2,575.4,412.8L575.4,412.8z"/>
							<path class="st13" d="M581.6,410.2c0.4,2.2,1.4,4.3,2.9,6c0.3,1.3-0.2,2.7-0.9,3.8c0.4-1,0.7-2.8,0.5-3.5
								C582.5,414.8,581.5,412.5,581.6,410.2L581.6,410.2z"/>
						</g>
					</g>
				</g>
			</g>
		</g>
		<path class="st5" d="M600.8,461c1.7,2.6,10.3,15.7,17.1,13.8c1-0.3,4-1.4,6-8.3c-0.2-1.9-0.3-3.8-0.5-5.6c-2-1.4-4.7-3.4-7.7-6
			c-3.6-3.2-6.3-6.1-9.1-9.3c-6.1-7.1-11.5-14.3-15.7-20.3c-2.3,1.7-4.6,3.5-6.8,5.2c3,4.6,6.8,10.8,10.4,18.3
			C597.5,454.8,598.1,456.9,600.8,461z"/>
	</g>
</g>
</svg>
