<?xml version="1.0" encoding="utf-8"?>
<!-- Generator: Adobe Illustrator 26.0.1, SVG Export Plug-In . SVG Version: 6.00 Build 0)  -->
<svg version="1.1" id="Layer_1" xmlns="http://www.w3.org/2000/svg" xmlns:xlink="http://www.w3.org/1999/xlink" x="0px" y="0px"
	 viewBox="0 0 664 598" style="enable-background:new 0 0 664 598;" xml:space="preserve">
<style type="text/css">
	.st0{clip-path:url(#SVGID_00000048465934706620067300000015298471849004432017_);}
	.st1{clip-path:url(#SVGID_00000173145075321270705530000001791105343116529080_);}
	.st2{fill:#E5C49D;}
	.st3{fill:none;stroke:#FFFFFF;stroke-width:1.5925;stroke-miterlimit:10;}
	.st4{clip-path:url(#SVGID_00000103953012008837449150000002109790837870528640_);fill:#BDDEEF;}
	.st5{clip-path:url(#SVGID_00000103953012008837449150000002109790837870528640_);}
	.st6{fill:#52A7C1;}
	.st7{fill:#BDDEEF;}
	.st8{fill:#FFFFFF;}
	.st9{fill:#232323;}
	.st10{fill:#282828;}
	.st11{fill:#E5E5E5;}
	.st12{fill:#F4A671;}
	.st13{fill:#DD915E;}
	.st14{fill:#1E1A14;}
	.st15{fill:#96753B;}
	.st16{fill:#140408;}
	.st17{fill:#666666;}
	.st18{fill:#DE9F7E;}
	.st19{fill:#D38A6A;}
	.st20{fill:#FCB856;}
	.st21{fill:#CE8065;}
	.st22{fill:#6B3628;}
	.st23{fill:#211E1F;}
	.st24{fill:#B7303D;}
	.st25{fill:#D3D3D3;}
	.st26{fill:#FFFFFF;stroke:#D3D3D3;stroke-width:3.2836;stroke-miterlimit:10;}
	.st27{fill:#D34047;}
</style>
<g>
	<g>
		<defs>
			<path id="SVGID_1_" d="M37.3,444.7c33.1,26.8,128.1,96.7,268.9,105.8c163.4,10.6,279.1-67.6,311.1-90.8
				c8.4-26.4,38.9-132.7-12.6-231.5c-28.7-55.1-75.5-93.6-88.2-103.8c-28.2-22.8-54-36.6-69.6-44.1c-39.5-19-82.2-39.5-132.7-32.3
				c-51.1,7.3-84.8,39.4-108.4,61.9c-42.5,40.5-33.3,56.9-85.6,120.3c-43,52.2-58.8,52.8-74.9,86.4C23.6,362.1,29,410.4,37.3,444.7z
				"/>
		</defs>
		<clipPath id="SVGID_00000078021102298374163050000010442779997020448129_">
			<use xlink:href="#SVGID_1_"  style="overflow:visible;"/>
		</clipPath>
		<g style="clip-path:url(#SVGID_00000078021102298374163050000010442779997020448129_);">
			<g>
				<defs>
					<path id="SVGID_00000044883845994273379700000015343390524275088310_" d="M593.8,248.2c-11.3-20.1-24.5-37.8-38.1-52.8
						c-0.1,0.2-0.3,0.5-0.4,0.7c0.1-0.2,0.3-0.5,0.4-0.7c-2.5-2.8-50.1-42.9-50.1-42.9l0,0c-1.3-1-2.6-2.1-4-3.2
						c-38.1-31.9-66.9-89.7-172.6-80.9c-49.2,4.1-81.5,24.1-104.5,51c-6.9,8.1-13.1,16.9-18.6,26.2c-16.9,28.3-28.2,60.8-39.6,89.2
						c-15.2,37.5-69.4,43.4-89,86.9c-17.8,20.5-27.1,52.9-31.8,76.4c-3.4,16.9-4.3,29.2-4.3,29.2C36,545.5,142.2,636.1,251.7,668.8
						c24.5,7.3,49.2,11.8,72.8,13c11.2,0.6,22.1,0.4,32.6-0.5c2.1-0.2,4.3-0.4,6.5-0.7c1.5-0.2,3-0.3,4.5-0.5
						c1.3-0.2,2.5-0.3,3.8-0.5c0.7-0.1,1.4-0.2,2.1-0.3c0.7-0.1,1.3-0.2,2-0.3c35.5-5.5,75.2-17.8,111.7-36.9
						c0.2-0.1,0.4-0.2,0.5-0.3c58.8-30.8,109-79,118.5-143.4c1.3-9,12.9-36.4,16.6-75.9C630.7,345.3,609.2,282.9,593.8,248.2z
						 M512,202.1c0,0,0.1,0.1,0.1,0.1C512.1,202.1,512,202.1,512,202.1z"/>
				</defs>
				<clipPath id="SVGID_00000152978859977712178000000004503760725776741774_">
					<use xlink:href="#SVGID_00000044883845994273379700000015343390524275088310_"  style="overflow:visible;"/>
				</clipPath>
				<g style="clip-path:url(#SVGID_00000152978859977712178000000004503760725776741774_);">
					<path class="st2" d="M182,247.7c0,1.5-1,2.8-2.2,2.8s-2.2-1.3-2.2-2.8c0-1.5,1-2.8,2.2-2.8S182,246.1,182,247.7z"/>
					<path class="st2" d="M200.7,253c0,1.5-1,2.8-2.2,2.8c-1.2,0-2.2-1.3-2.2-2.8c0-1.5,1-2.8,2.2-2.8
						C199.7,250.2,200.7,251.4,200.7,253z"/>
					<path class="st2" d="M263.1,169.2c0,1.5-1,2.8-2.2,2.8c-1.2,0-2.2-1.3-2.2-2.8c0-1.5,1-2.8,2.2-2.8
						C262.1,166.4,263.1,167.7,263.1,169.2z"/>
					<path class="st2" d="M554.2,417.8c0,1.5-1,2.8-2.2,2.8c-1.2,0-2.2-1.3-2.2-2.8c0-1.5,1-2.8,2.2-2.8
						C553.2,415,554.2,416.2,554.2,417.8z"/>
					<path class="st2" d="M561.7,410.2c0,1.5-1,2.8-2.2,2.8s-2.2-1.3-2.2-2.8s1-2.8,2.2-2.8S561.7,408.6,561.7,410.2z"/>
					<ellipse class="st2" cx="192.6" cy="238.6" rx="3.6" ry="4.5"/>
					<path class="st2" d="M189,404.9c0,3.2-2.1,5.8-4.6,5.8c-2.6,0-4.6-2.6-4.6-5.8c0-3.2,2.1-5.8,4.6-5.8
						C187,399.1,189,401.7,189,404.9z"/>
					<path class="st2" d="M451.4,155.5c0,3.2-2.1,5.8-4.6,5.8c-2.6,0-4.6-2.6-4.6-5.8s2.1-5.8,4.6-5.8
						C449.3,149.6,451.4,152.2,451.4,155.5z"/>
					<ellipse class="st3" cx="219" cy="136.7" rx="14.8" ry="18.7"/>
					<ellipse class="st2" cx="48.4" cy="454" rx="30.3" ry="38.2"/>
				</g>
				<g style="clip-path:url(#SVGID_00000152978859977712178000000004503760725776741774_);">
					<g>
						<defs>
							<path id="SVGID_00000101804535321770368270000002554640292793017018_" d="M593.8,248.9c-11.3-20.2-24.6-37.9-38.3-53
								c-0.1,0.2-0.3,0.5-0.4,0.7c0.1-0.2,0.3-0.5,0.4-0.7c-2.5-2.8-50.3-43.1-50.3-43.1l0,0c-1.3-1-2.7-2.1-4-3.2
								c-38.2-32-67.2-90-173.2-81.2c-49.4,4.1-81.8,24.2-104.8,51.2c-7,8.1-13.1,17-18.7,26.3c-17,28.4-28.3,61.1-39.8,89.6
								c-15.2,37.6-69.7,43.6-89.3,87.2c-17.9,20.5-27.2,53.1-31.9,76.7c-3.4,16.9-4.3,29.3-4.3,29.3
								c-5.3,118.6,101.2,209.5,211.2,242.4c24.6,7.4,49.4,11.8,73.1,13c11.2,0.6,22.2,0.4,32.8-0.5c2.1-0.2,4.3-0.4,6.5-0.7
								c1.5-0.2,3-0.3,4.5-0.5c1.3-0.2,2.5-0.3,3.8-0.5c0.7-0.1,1.4-0.2,2.1-0.3c0.7-0.1,1.3-0.2,2-0.3c35.6-5.5,75.5-17.9,112.1-37
								c0.2-0.1,0.4-0.2,0.5-0.3c59-31,109.4-79.3,119-143.9c1.3-9,12.9-36.6,16.7-76.1C630.8,346.3,609.3,283.7,593.8,248.9z
								 M511.7,202.6c0,0,0.1,0.1,0.1,0.1C511.7,202.6,511.7,202.6,511.7,202.6z"/>
						</defs>
						<clipPath id="SVGID_00000049185324913310611090000015634571798974997951_">
							<use xlink:href="#SVGID_00000101804535321770368270000002554640292793017018_"  style="overflow:visible;"/>
						</clipPath>
						<path style="clip-path:url(#SVGID_00000049185324913310611090000015634571798974997951_);fill:#BDDEEF;" d="M593.8,248.9
							c-11.3-20.2-24.6-37.9-38.3-53c-2.5-2.8-50.3-43.1-50.3-43.1c-1.3-1-2.7-2.1-4-3.2c-38.2-32-67.2-90-173.2-81.2
							c-49.4,4.1-81.8,24.2-104.8,51.2c-7,8.1-13.1,17-18.7,26.3c-17,28.4-28.3,61.1-39.8,89.6c-15.2,37.6-69.7,43.6-89.3,87.2
							c-17.9,20.5-27.2,53.1-31.9,76.7c-3.4,16.9-4.3,29.3-4.3,29.3c-5.3,118.6,101.2,209.5,211.2,242.4c24.6,7.4,49.4,11.8,73.1,13
							c11.2,0.6,22.2,0.4,32.8-0.5c2.1-0.2,4.3-0.4,6.5-0.7c1.5-0.2,3-0.3,4.5-0.5c1.3-0.2,2.5-0.3,3.8-0.5c0.7-0.1,1.4-0.2,2.1-0.3
							c0.7-0.1,1.3-0.2,2-0.3c35.6-5.5,75.5-17.9,112.1-37c0.2-0.1,0.4-0.2,0.5-0.3c59-31,109.4-79.3,119-143.9
							c8.5-42.3,20.3-66.9,20.3-130.1C629.1,328.1,593.8,248.9,593.8,248.9z"/>
						<g style="clip-path:url(#SVGID_00000049185324913310611090000015634571798974997951_);">
							<path class="st6" d="M180.4,248.3c0,1.6-1,2.8-2.2,2.8s-2.2-1.3-2.2-2.8s1-2.8,2.2-2.8S180.4,246.8,180.4,248.3z"/>
							<path class="st6" d="M199.1,253.7c0,1.6-1,2.8-2.2,2.8c-1.2,0-2.2-1.3-2.2-2.8s1-2.8,2.2-2.8
								C198.1,250.8,199.1,252.1,199.1,253.7z"/>
							<path class="st6" d="M261.8,169.6c0,1.6-1,2.8-2.2,2.8c-1.2,0-2.2-1.3-2.2-2.8s1-2.8,2.2-2.8
								C260.8,166.8,261.8,168.1,261.8,169.6z"/>
							<path class="st6" d="M554,419.1c0,1.6-1,2.8-2.2,2.8c-1.2,0-2.2-1.3-2.2-2.8s1-2.8,2.2-2.8C553,416.3,554,417.5,554,419.1z"
								/>
							<path class="st6" d="M561.6,411.5c0,1.6-1,2.8-2.2,2.8c-1.2,0-2.2-1.3-2.2-2.8s1-2.8,2.2-2.8
								C560.6,408.7,561.6,409.9,561.6,411.5z"/>
							<ellipse class="st6" cx="191.1" cy="239.2" rx="3.6" ry="4.5"/>
							<path class="st6" d="M187.5,406.2c0,3.2-2.1,5.9-4.7,5.9c-2.6,0-4.7-2.6-4.7-5.9c0-3.2,2.1-5.9,4.7-5.9
								C185.4,400.3,187.5,402.9,187.5,406.2z"/>
							<path class="st6" d="M450.8,155.8c0,3.2-2.1,5.9-4.7,5.9c-2.6,0-4.7-2.6-4.7-5.9c0-3.2,2.1-5.9,4.7-5.9
								C448.7,149.9,450.8,152.6,450.8,155.8z"/>
							<ellipse class="st6" cx="217.6" cy="137" rx="14.9" ry="18.7"/>
							<ellipse class="st6" cx="46.4" cy="455.5" rx="30.4" ry="38.4"/>
						</g>
						<g style="clip-path:url(#SVGID_00000049185324913310611090000015634571798974997951_);">
							<rect x="262.1" y="210.4" class="st7" width="165.4" height="102.5"/>
							<g>
								<path class="st6" d="M430,315.4H259.6V207.9H430V315.4z M264.6,310.3H425v-97.5H264.6V310.3z"/>
							</g>
							<g>
								<polygon class="st6" points="325.1,270.4 325.1,269.6 319.8,270.9 319.8,271.7 								"/>
								<path class="st6" d="M319.7,267.4L319.7,267.4l0,3.6l1-0.2v-3.3h0c0,0,0.1,0,0.1-0.1c0,0,0-0.1-0.1-0.1
									c0-0.3-0.2-0.4-0.3-0.5c-0.1-0.1-0.2-0.2-0.2-0.2s-0.1,0.2-0.2,0.2c-0.1,0.1-0.3,0.1-0.3,0.5
									C319.7,267.2,319.6,267.3,319.7,267.4C319.6,267.3,319.7,267.4,319.7,267.4z"/>
								<path class="st6" d="M325.1,266L325.1,266l0,3.8l0.5-0.1v0.8h8.9v-0.8h-1v-1.5c0-0.6,0.2-0.8,0.3-1c0.2-0.3,0.3-0.5,0.3-0.5
									v-0.9h0.9V265h-0.6c0-2.1-1.1-2.6-2.1-3.1c-1-0.5-1.6-1.7-1.6-1.7s-0.6,1.2-1.6,1.7c-1,0.5-2.1,1-2.1,3.1h-0.6v0.7h0.9v0.9
									c0,0,0.1,0.2,0.4,0.5c0.2,0.2,0.4,0.4,0.4,1v1.5h-2V266h0c0,0,0.1,0,0.1-0.1c0,0,0-0.1-0.1-0.1c0-0.3-0.2-0.4-0.3-0.5
									c-0.1-0.1-0.2-0.2-0.2-0.2s-0.1,0.2-0.2,0.2c-0.1,0.1-0.3,0.1-0.3,0.5C325.1,265.9,325.1,265.9,325.1,266
									C325.1,266,325.1,266,325.1,266z M331.1,269.6v-1.5c0-0.6,0.3-0.8,0.5-1c0.3-0.3,0.5-0.5,0.5-0.5s0.1,0.2,0.5,0.5
									c0.2,0.2,0.5,0.4,0.5,1v1.5H331.1z M328.7,268.1c0-0.6,0.3-0.8,0.5-1c0.3-0.3,0.5-0.5,0.5-0.5s0.1,0.2,0.5,0.5
									c0.2,0.2,0.5,0.4,0.5,1v1.5h-1.8V268.1z"/>
								<polygon class="st6" points="364.5,270.4 369.9,271.7 369.9,270.9 364.5,269.6 								"/>
								<path class="st6" d="M368.8,267.4L368.8,267.4l0,3.3l1,0.2v-3.6h0c0,0,0.1,0,0.1-0.1c0,0,0-0.1-0.1-0.1
									c0-0.3-0.2-0.4-0.3-0.5c-0.1-0.1-0.2-0.2-0.2-0.2s-0.1,0.2-0.2,0.2c-0.1,0.1-0.3,0.1-0.3,0.5
									C368.8,267.2,368.8,267.3,368.8,267.4C368.8,267.3,368.8,267.4,368.8,267.4z"/>
								<path class="st6" d="M354.5,265v0.7h0.9v0.9c0,0,0.1,0.2,0.3,0.5c0.1,0.2,0.3,0.4,0.3,1v1.5h-1v0.8h8.9v-0.8l0.5,0.1V266h0
									c0,0,0.1,0,0.1-0.1c0,0,0-0.1-0.1-0.1c0-0.3-0.2-0.4-0.3-0.5c-0.1-0.1-0.2-0.2-0.2-0.2s-0.1,0.2-0.2,0.2
									c-0.1,0.1-0.3,0.1-0.3,0.5c0,0-0.1,0-0.1,0.1c0,0,0,0.1,0.1,0.1h0v3.6h-2v-1.5c0-0.6,0.2-0.8,0.4-1c0.3-0.3,0.4-0.5,0.4-0.5
									v-0.9h0.9V265h-0.6c0-2.1-1.1-2.6-2.1-3.1c-1-0.5-1.6-1.7-1.6-1.7s-0.6,1.2-1.6,1.7c-1,0.5-2.1,1-2.1,3.1H354.5z
									 M356.7,269.6v-1.5c0-0.6,0.3-0.8,0.5-1c0.3-0.3,0.5-0.5,0.5-0.5s0.1,0.2,0.5,0.5c0.2,0.2,0.5,0.4,0.5,1v1.5H356.7z
									 M359.1,269.6v-1.5c0-0.6,0.3-0.8,0.5-1c0.3-0.3,0.5-0.5,0.5-0.5s0.1,0.2,0.5,0.5c0.2,0.2,0.5,0.4,0.5,1v1.5H359.1z"/>
								<path class="st6" d="M393.4,288.9l-0.4-10h0.3v-0.4h0c0.1,0,0.3-0.1,0.3-0.3c0-0.1-0.1-0.3-0.3-0.3h-0.3l-0.4-9.6h0.2v0.4
									h0.3v-0.4h0c0.1,0,0.3-0.1,0.3-0.3c0-0.1-0.1-0.3-0.3-0.3h-0.5l-0.4-10.5h0.1v-0.4h0.2v0.4h0.3v-0.4h0
									c0.1,0,0.3-0.1,0.3-0.3c0-0.1-0.1-0.3-0.3-0.3h-0.7v-0.4h-0.4c0,0,0-1.2,0-1.6c0-0.3,0.1-0.5,0.2-0.6
									c0.1-0.2,0.2-0.3,0.2-0.3V253h0.7c0.1,0,0.3-0.1,0.3-0.3c0-0.1-0.1-0.3-0.3-0.3h-0.6c0-1.2-0.6-1.4-1.1-1.7
									c-0.5-0.3-0.9-0.9-0.9-0.9s-0.3,0.6-0.9,0.9c-0.5,0.3-1.1,0.5-1.1,1.7h-0.6c-0.1,0-0.3,0.1-0.3,0.3c0,0.1,0.1,0.3,0.3,0.3
									h0.7v0.5c0,0,0,0.1,0.2,0.3c0.1,0.1,0.2,0.2,0.2,0.6c0,0.3,0,1.6,0,1.6h-0.4v0.4h-0.7c-0.1,0-0.3,0.1-0.3,0.3
									c0,0.1,0.1,0.3,0.3,0.3h0v0.4h0.3v-0.4h0.2v0.4h0.1l-0.4,10.5h-0.5c-0.1,0-0.3,0.1-0.3,0.3c0,0.1,0.1,0.3,0.3,0.3h0v0.4h0.3
									v-0.4h0.2l-0.4,9.6h-0.4c-0.1,0-0.3,0.1-0.3,0.3c0,0.1,0.1,0.3,0.3,0.3v0.4h0.3v-0.4h0.1l-0.4,10.4h-0.8h-7.4l-0.3-7.6h0.2
									V281h0c0.1,0,0.2-0.1,0.2-0.2c0-0.1-0.1-0.2-0.2-0.2h-0.2l-0.3-7.3h0.2v0.3h0.2v-0.3h0c0.1,0,0.2-0.1,0.2-0.2
									c0-0.1-0.1-0.2-0.2-0.2h-0.4l-0.3-8h0.1v-0.3h0.2v0.3h0.2v-0.3h0c0.1,0,0.2-0.1,0.2-0.2c0-0.1-0.1-0.2-0.2-0.2h-0.5v-0.3
									h-0.3c0,0,0-0.9,0-1.2c0-0.3,0.1-0.3,0.1-0.4c0.1-0.1,0.1-0.2,0.1-0.2v-0.4h0.5c0.1,0,0.2-0.1,0.2-0.2
									c0-0.1-0.1-0.2-0.2-0.2h-0.4c0-0.9-0.4-1.1-0.9-1.3c-0.4-0.2-0.6-0.7-0.6-0.7s-0.2,0.5-0.6,0.7c-0.4,0.2-0.9,0.4-0.9,1.3
									h-0.4c-0.1,0-0.2,0.1-0.2,0.2c0,0.1,0.1,0.2,0.2,0.2h0.5v0.4c0,0,0,0.1,0.1,0.2c0.1,0.1,0.1,0.2,0.1,0.4c0,0.3,0,1.2,0,1.2
									H375v0.3h-0.5c-0.1,0-0.2,0.1-0.2,0.2c0,0.1,0.1,0.2,0.2,0.2h0v0.3h0.2v-0.3h0.2v0.3h0.1l-0.3,8h-0.4
									c-0.1,0-0.2,0.1-0.2,0.2c0,0.1,0.1,0.2,0.2,0.2h0v0.3h0.2v-0.3h0.1l-0.3,7.3H374c-0.1,0-0.2,0.1-0.2,0.2
									c0,0.1,0.1,0.2,0.2,0.2v0.3h0.2V281h0.1l-0.3,7.9h-4.1v-16.5l-5.4-1.3v17.7h-0.6v-17.7H355v17.7h-0.4v-22.4h-1v-2.7
									c0,0-0.7-0.9-8.9-0.9c-8.1,0-8.9,0.9-8.9,0.9v2.7h-1v22.4h-0.4v-17.7h-8.9v17.7h-0.6v-17.7l-5.4,1.3v16.5h-4.1l-0.3-7.9h0.1
									v0.3h0.2V281c0.1,0,0.2-0.1,0.2-0.2c0-0.1-0.1-0.2-0.2-0.2h-0.3l-0.3-7.3h0.1v0.3h0.2v-0.3h0c0.1,0,0.2-0.1,0.2-0.2
									c0-0.1-0.1-0.2-0.2-0.2H315l-0.3-8h0.1v-0.3h0.2v0.3h0.2v-0.3h0c0.1,0,0.2-0.1,0.2-0.2c0-0.1-0.1-0.2-0.2-0.2h-0.5v-0.3
									h-0.3c0,0,0-0.9,0-1.2c0-0.3,0.1-0.3,0.1-0.4c0.1-0.1,0.1-0.2,0.1-0.2v-0.4h0.5c0.1,0,0.2-0.1,0.2-0.2
									c0-0.1-0.1-0.2-0.2-0.2h-0.4c0-0.9-0.4-1.1-0.9-1.3c-0.4-0.2-0.6-0.7-0.6-0.7s-0.2,0.5-0.6,0.7c-0.4,0.2-0.9,0.4-0.9,1.3
									h-0.4c-0.1,0-0.2,0.1-0.2,0.2c0,0.1,0.1,0.2,0.2,0.2h0.5v0.4c0,0,0,0.1,0.1,0.2c0.1,0.1,0.1,0.2,0.1,0.4c0,0.3,0,1.2,0,1.2
									h-0.3v0.3h-0.5c-0.1,0-0.2,0.1-0.2,0.2c0,0.1,0.1,0.2,0.2,0.2h0v0.3h0.2v-0.3h0.2v0.3h0.1l-0.3,8h-0.4
									c-0.1,0-0.2,0.1-0.2,0.2c0,0.1,0.1,0.2,0.2,0.2h0v0.3h0.2v-0.3h0.2l-0.3,7.3h-0.2c-0.1,0-0.2,0.1-0.2,0.2
									c0,0.1,0.1,0.2,0.2,0.2h0v0.3h0.2l-0.3,7.6h-7.4h-0.8l-0.4-10.4h0.1v0.4h0.3v-0.4c0.1,0,0.3-0.1,0.3-0.3
									c0-0.1-0.1-0.3-0.3-0.3h-0.4l-0.4-9.6h0.2v0.4h0.3v-0.4h0c0.1,0,0.3-0.1,0.3-0.3c0-0.1-0.1-0.3-0.3-0.3h-0.5l-0.4-10.5h0.1
									v-0.4h0.2v0.4h0.3v-0.4h0c0.1,0,0.3-0.1,0.3-0.3c0-0.1-0.1-0.3-0.3-0.3h-0.7v-0.4h-0.4c0,0,0-1.2,0-1.6
									c0-0.3,0.1-0.5,0.2-0.6c0.1-0.2,0.2-0.3,0.2-0.3V253h0.7c0.1,0,0.3-0.1,0.3-0.3c0-0.1-0.1-0.3-0.3-0.3h-0.6
									c0-1.2-0.6-1.4-1.1-1.7c-0.5-0.3-0.9-0.9-0.9-0.9s-0.3,0.6-0.8,0.9c-0.5,0.3-1.1,0.5-1.1,1.7h-0.6c-0.1,0-0.3,0.1-0.3,0.3
									c0,0.1,0.1,0.3,0.3,0.3h0.7v0.5c0,0,0.1,0.1,0.2,0.3c0.1,0.1,0.2,0.2,0.2,0.6c0,0.3,0,1.6,0,1.6h-0.4v0.4h-0.7
									c-0.1,0-0.3,0.1-0.3,0.3c0,0.1,0.1,0.3,0.3,0.3h0v0.4h0.3v-0.4h0.2v0.4h0.1l-0.4,10.5h-0.5c-0.1,0-0.3,0.1-0.3,0.3
									c0,0.1,0.1,0.3,0.3,0.3h0v0.4h0.3v-0.4h0.2l-0.4,9.6h-0.3c-0.1,0-0.3,0.1-0.3,0.3c0,0.1,0.1,0.3,0.3,0.3h0v0.4h0.3l-0.4,10
									h-0.9v0.6v0.4v5.1h8h82.9h8v-5.1v-0.4v-0.6H393.4z M389.1,255.9c0,0,0-1.2,0-1.6c0-0.3,0.1-0.5,0.2-0.6
									c0.2-0.2,0.2-0.3,0.2-0.3s0.1,0.1,0.2,0.3c0.1,0.1,0.2,0.2,0.2,0.6c0,0.3,0,1.6,0,1.6H389.1z M390.4,255.9c0,0,0-1.2,0-1.6
									c0-0.3,0.1-0.5,0.2-0.6c0.2-0.2,0.2-0.3,0.2-0.3s0.1,0.1,0.2,0.3c0.1,0.1,0.2,0.2,0.2,0.6c0,0.3,0,1.6,0,1.6H390.4z
									 M375.5,263.8c0,0,0-0.9,0-1.2c0-0.3,0.1-0.3,0.2-0.4c0.1-0.1,0.2-0.2,0.2-0.2s0.1,0.1,0.2,0.2c0.1,0.1,0.2,0.2,0.2,0.4
									c0,0.3,0,1.2,0,1.2H375.5z M376.5,263.8c0,0,0-0.9,0-1.2c0-0.3,0.1-0.3,0.2-0.4c0.1-0.1,0.2-0.2,0.2-0.2s0.1,0.1,0.2,0.2
									c0.1,0.1,0.2,0.2,0.2,0.4c0,0.3,0,1.2,0,1.2H376.5z M312.3,263.8c0,0,0-0.9,0-1.2c0-0.3,0.1-0.3,0.2-0.4
									c0.1-0.1,0.2-0.2,0.2-0.2s0,0.1,0.2,0.2c0.1,0.1,0.2,0.2,0.2,0.4c0,0.3,0,1.2,0,1.2H312.3z M313.4,263.8c0,0,0-0.9,0-1.2
									c0-0.3,0.1-0.3,0.2-0.4c0.1-0.1,0.2-0.2,0.2-0.2s0.1,0.1,0.2,0.2c0.1,0.1,0.2,0.2,0.2,0.4c0,0.3,0,1.2,0,1.2H313.4z
									 M298.2,255.9c0,0,0-1.2,0-1.6c0-0.3,0.1-0.5,0.2-0.6c0.2-0.2,0.2-0.3,0.2-0.3s0.1,0.1,0.2,0.3c0.1,0.1,0.2,0.2,0.2,0.6
									c0,0.3,0,1.6,0,1.6H298.2z M299.6,255.9c0,0,0-1.2,0-1.6c0-0.3,0.1-0.5,0.2-0.6c0.2-0.2,0.2-0.3,0.2-0.3s0.1,0.1,0.2,0.3
									c0.1,0.1,0.2,0.2,0.2,0.6c0,0.3,0,1.6,0,1.6H299.6z M344.8,276.8c0.8,0,1.4,0.6,1.4,1.4v2.2h-2.8v-2.2
									C343.4,277.4,344,276.8,344.8,276.8z M344.8,283.9c0.8,0,1.4,0.6,1.4,1.4v3.6h-2.8v-3.6C343.4,284.5,344,283.9,344.8,283.9z
									 M365.7,276.4c0-2.2,0.5-2.5,0.8-2.8c0.3-0.3,0.7-0.7,0.7-0.7s0.3,0.4,0.7,0.7c0.3,0.3,0.9,0.6,0.9,2.8c0,2.2,0,3.6,0,3.6
									h-1.5h-1.5C365.7,280,365.7,278.7,365.7,276.4z M365.7,285.3c0-2.2,0.5-2.5,0.8-2.8c0.3-0.3,0.7-0.7,0.7-0.7
									s0.3,0.4,0.7,0.7c0.3,0.3,0.9,0.6,0.9,2.8c0,2.2,0,3.6,0,3.6h-3.1C365.7,288.9,365.7,287.5,365.7,285.3z M356.9,276.4
									c0-2.2,0.8-2.5,1.4-2.8c0.6-0.3,1.1-0.7,1.1-0.7s0.6,0.4,1.1,0.7c0.6,0.3,1.4,0.6,1.4,2.8c0,2.2,0,3.6,0,3.6h-1.8v-2
									c0-0.4-0.3-0.8-0.8-0.8c-0.4,0-0.8,0.3-0.8,0.8v2h-1.8C356.9,280,356.9,278.7,356.9,276.4z M356.9,285.3
									c0-2.2,0.8-2.5,1.4-2.8c0.6-0.3,1.1-0.7,1.1-0.7s0.6,0.4,1.1,0.7c0.6,0.3,1.4,0.6,1.4,2.8c0,2.2,0,3.6,0,3.6h-1.8v-2
									c0-0.4-0.3-0.8-0.8-0.8c-0.4,0-0.8,0.3-0.8,0.8v2h-1.8C356.9,288.9,356.9,287.5,356.9,285.3z M338.1,269.6h13.4v19.2h-1.1
									c0,0,0-7.8,0-10.4c0-5.1-4.4-4.6-5.6-6.6c-1.2,2.1-5.6,1.6-5.6,6.6c0,2.6,0,10.4,0,10.4h-1.1V269.6z M327.7,276.4
									c0-2.2,0.8-2.5,1.4-2.8c0.6-0.3,1.1-0.7,1.1-0.7s0.6,0.4,1.1,0.7c0.6,0.3,1.4,0.6,1.4,2.8c0,2.2,0,3.6,0,3.6H331v-2
									c0-0.4-0.3-0.8-0.8-0.8c-0.4,0-0.8,0.3-0.8,0.8v2h-1.7C327.7,280,327.7,278.7,327.7,276.4z M327.7,285.3
									c0-2.2,0.8-2.5,1.4-2.8c0.6-0.3,1.1-0.7,1.1-0.7s0.6,0.4,1.1,0.7c0.6,0.3,1.4,0.6,1.4,2.8c0,2.2,0,3.6,0,3.6H331v-2
									c0-0.4-0.3-0.8-0.8-0.8c-0.4,0-0.8,0.3-0.8,0.8v2h-1.7C327.7,288.9,327.7,287.5,327.7,285.3z M320.9,276.4
									c0-2.2,0.5-2.5,0.8-2.8c0.3-0.3,0.7-0.7,0.7-0.7s0.3,0.4,0.7,0.7c0.3,0.3,0.8,0.6,0.8,2.8c0,2.2,0,3.6,0,3.6h-1.5h-1.5
									C320.9,280,320.9,278.7,320.9,276.4z M320.9,285.3c0-2.2,0.5-2.5,0.8-2.8c0.3-0.3,0.7-0.7,0.7-0.7s0.3,0.4,0.7,0.7
									c0.3,0.3,0.8,0.6,0.8,2.8c0,2.2,0,3.6,0,3.6h-3.1C320.9,288.9,320.9,287.5,320.9,285.3z"/>
								<path class="st6" d="M336,261.4c0,0,0.6-0.8,8.9-0.8c8.3,0,8.9,0.8,8.9,0.8s3.3-2.9,0.7-7.3c-2.6-4.2-7-5.8-9.3-8.4
									c0,0,0,0,0,0c0.3-0.1,0.6-0.4,0.6-0.7c0-0.3-0.2-0.6-0.5-0.7c0.2-0.1,0.3-0.3,0.3-0.5c0-0.3-0.3-0.6-0.6-0.6c0,0,0,0,0,0
									c0.1,0,0.2,0,0.2,0v-0.8c-0.1,0-0.1,0-0.2,0c0,0,0,0,0,0c0.3,0,0.6-0.3,0.6-0.6c0-0.3-0.3-0.6-0.6-0.6c0,0,0,0,0,0
									c0.1,0,0.2,0,0.2,0v-1.5c0,0,0-0.2-0.2-0.2c-0.2,0-0.2,0.2-0.2,0.2v1.5c-0.2,0.1-0.4,0.3-0.4,0.5c0,0.2,0.1,0.5,0.4,0.5v0.8
									c-0.2,0.1-0.4,0.3-0.4,0.5c0,0.2,0.1,0.4,0.3,0.5c-0.3,0.1-0.5,0.4-0.5,0.7c0,0.3,0.2,0.6,0.6,0.7c-2.3,2.7-6.7,4.2-9.3,8.4
									C332.6,258.4,336,261.4,336,261.4z M344.8,245.7C344.8,245.7,344.8,245.7,344.8,245.7C344.8,245.7,344.8,245.7,344.8,245.7
									C344.8,245.7,344.8,245.7,344.8,245.7z M344.9,245.7C344.9,245.7,344.9,245.7,344.9,245.7
									C344.9,245.7,344.9,245.7,344.9,245.7z M344.7,245.7C344.7,245.7,344.7,245.7,344.7,245.7
									C344.7,245.7,344.7,245.7,344.7,245.7z"/>
							</g>
							<rect x="263.6" y="292.9" class="st6" width="162.4" height="17.5"/>
						</g>
					</g>
				</g>
			</g>
			<g>
				<g>
					<g>
						<g>
							<g>
								<path class="st8" d="M438.5,582c-1.1,0-2.2,0-3.3,0c-2.1,0-4.1,0-6.2,0c0.7-16,1.5-32,2.3-48.1c1.2-23.8,2.5-47.5,4-71
									c1.8-2.5,3.6-5,5.4-7.5C440,497.6,439.3,539.8,438.5,582z"/>
								<path class="st9" d="M437.5,676c0-0.5,0-0.9-0.1-1.4c-0.5-11-1.1-37-1.6-106.7c0.4-0.9,0.9-1.7,1.3-2.6
									c4.9,0,9.9,0.3,14.9,0.9c6.4,0.9,12.9,2.1,19.3,3.1c0.7,4.8,0.7,9.5,0.9,14c0,0.4,0.1,2,0.2,4.1c0,0.1,0,0.2,0,0.3
									c0.3,10.9,3.9,79.8,3.9,79.8c0.5,10.4,1.2,25.7,1.9,44.5c-13.1-0.5-26.2-1.1-39.3-1.6c-1-23.3-1.4-32.6-1.5-33.3
									C437.5,676.9,437.5,676.4,437.5,676z"/>
								<path class="st10" d="M474.2,674.6c0-0.5,0-0.9-0.1-1.4c-0.5-11-1.1-37-1.6-106.7c0.4-0.9,0.9-1.7,1.3-2.6
									c4.9,0,9.9,0.3,14.9,0.9c6.4,0.9,12.9,2.1,19.3,3.1c0.7,4.8,0.7,9.5,0.9,14c0,0.4,0.1,2,0.2,4.1c0,0.1,0,0.2,0,0.3
									c0.3,10.9,3.9,79.8,3.9,79.8c0.5,10.4,1.2,25.7,1.9,44.5c-13.1-0.5-26.2-1.1-39.3-1.6c-1-23.3-1.4-32.6-1.5-33.3
									C474.3,675.5,474.3,675,474.2,674.6z"/>
								<path class="st11" d="M511.2,453.2c0.2,0.3,0.6,1,1,1.8c2.8,5.8,1.7,11.5,1.9,16.9c0,0.4,0,1.8,0,3.7c0,0.1,0,0.2,0,0.2
									c-0.1,2.6,0,50.8-0.6,72c-0.2,7.6-0.7,18.7-2,32.3c-26.5,0.6-53,1.3-79.6,1.9c-0.4-19.2-0.5-26.9-0.5-27.5c0,0,0-0.4,0-0.9
									c0-0.5,0-0.8,0-1.3c0.2-9.9,1.7-33.3,8.2-96c5.1-3.8,10.2-7.7,15.3-11.5c8.1-1.9,16.2-3.8,24.3-5.7
									C489.9,443.8,500.6,448.5,511.2,453.2z"/>
							</g>
						</g>
					</g>
					<path class="st8" d="M510.7,453c4.4,1,8.1,5.9,8.5,12c2,36.5,4,72.9,6,109.4c0.2,6.4,0.4,12.7,0.5,19.1
						c-7.2-1.2-14.5-2.4-21.7-3.6c0.1-22-2-39.7-4-52c-5.3-32.6-4.9-48.9-3.7-70.8C496.8,457.4,504.8,451.7,510.7,453z"/>
				</g>
				<g>
					<g>
						<g>
							<g>
								<g>
									<g>
										<g>
											<path class="st12" d="M480.6,428c-7.4-0.3-14.9-0.6-22.3-0.9c-0.2,5.1-0.4,10.2-0.6,15.3c-1.1,0.8-2.1,1.6-3.2,2.4
												c0.6,1,2.1,3.1,4.9,4.2c1,0.4,1.9,0.6,2.7,0.7c0.4,1.1,0.8,2.2,1.2,3.3c1.7-1.8,3.4-3.7,5.1-5.5c4-1.4,8-2.8,12-4.2
												C480.5,438.1,480.5,433,480.6,428z"/>
											<path class="st13" d="M457.8,439.3c0.1-3.6,0.3-7.2,0.4-10.8c7.6-1.7,15.1-3.5,22.7-5.2c-0.2,3.6-0.3,7.2-0.5,10.8
												c-2.3,1.4-5.6,3.1-9.9,4.2C465.3,439.6,460.8,439.6,457.8,439.3z"/>
											<path class="st14" d="M483.5,332.7c-4.1-0.2-10.5-0.6-17.8,2.3c-17.6,7-25.4,27.5-26.2,42.2c-0.2,3.7,0.1,6.8,0.4,8.8
												c0,0.1,0,0.1,0.1,0.2c0.6,1.4,1.3,2.9,2,4.3c2.3,4.8,4.9,9,7.4,12.7c14.2-7.3,43.4,16.6,43.4,16.6c1.7-0.2,4.2-0.7,7-1.8
												c17.5-7.3,21.3-31.7,22.2-37.2c1.1-7.1,2.2-14.9-1.4-23.8c-3.6-8.8-9.8-13.7-12.1-15.6
												C498.6,333.7,488.1,333,483.5,332.7z"/>
											<path class="st12" d="M438.7,390.1c2.7-15.3,1.5-17,3.5-25.5c1-4.1,2.9-10,6.8-16.7c0-0.1,0-0.6,0.2-1.2
												c2.2-7.1,26.5-9.7,44.6-1.3c4.2,2,11.3,6,18,14.5c1.1,4.4,2.2,11.1,1.6,19.1c-1.4,18.1-10.5,30.2-14.9,35.9
												c-6,7.7-12.1,15.7-23.1,18.4c-6.5,1.6-12.3,0.9-15.9,0c-1.3-0.3-3.6-0.9-6.2-2.3c-8.2-4.3-11.8-11.8-13-14.4
												c-2.9-6.4-3-12-3.1-15.1C437.2,397.6,437.8,395.6,438.7,390.1z"/>
											<g>
												<path d="M472.2,384.4c6.3,0.3,12.8,2.4,17.4,6.7c-4.3-1.9-8.4-3.6-13-4.3c-1.5-0.2-3-0.4-4.5-0.5L472.2,384.4
													L472.2,384.4z"/>
											</g>
											<g>
												<path d="M455.5,383.4c-4.1-1.8-8.4-2.7-12.8-3.2c4.5-1,9.3-0.3,13.6,1.3C456.3,381.5,455.5,383.4,455.5,383.4
													L455.5,383.4z"/>
											</g>
											<path class="st14" d="M497.9,368.8c-1.3,2.2-2.8,5.6-3.4,9.9c-0.5,4.3,0.2,7.2,0.7,10.9c0.6,4,0.9,9.8-0.1,17.1
												c2.9-0.5,8.8-1.9,13.9-6.7c1.4-1.3,4-5,7.3-12.5c1.5-3.4,6.7-17.7,1-31.5c-8.1-19.7-34.1-29.1-52.2-23
												c-3.8,1.3-6.6,3-8.6,4.4c-19.5,14-17.3,43.8-16.9,48.5c0.3-2.8,0.8-6,1.9-9.6c1.7-5.5,4-9.9,6-13
												c0.5,0.3,1.4,0.9,2.6,1.6c5,2.9,20.3,10.5,38.4,6.8C490.7,371.3,494,370.5,497.9,368.8z"/>
											<g>
												<g>
													<path class="st13" d="M457.7,403.5c-0.3,1.6,0.9,3,2.3,3.1c1.2,0.1,2.4-0.8,2.6-2.1c-0.2,0.1-1.4,0.8-2.8,0.4
														C458.5,404.6,457.8,403.7,457.7,403.5z"/>
												</g>
											</g>
											<g>
												<path class="st12" d="M499.6,397.1c1.7-3.4,6.1-5.2,8.7-2.5c3.9,4.1,2.2,12.1-1.1,16.3c-2,2.5-6.1,5.3-8.4,2.9
													C495.9,410.9,496.4,403.5,499.6,397.1z"/>
											</g>
											<g>
												<path class="st13" d="M466.5,417.3c-0.3,0.8-5.7-0.2-10.2-2c-2.8-1.1-6.5-3.1-6.2-3.8c0.2-0.7,4.2,0,7.1,0.8
													C461.9,413.8,466.8,416.5,466.5,417.3z"/>
											</g>
										</g>
										<g>
											<g>
												<path class="st8" d="M471.5,392.9c0.4,0.9,1.2,2.3,2.7,3.3c2.6,1.7,6.3,1.4,9.3-0.6c-0.5-0.8-1.6-2.2-3.4-3.2
													c-1.1-0.6-2.5-1.5-4.5-1.4C473.5,391.1,472,392.4,471.5,392.9z"/>
												<path class="st15" d="M474.4,391.8c-0.6,1.1-0.7,2.3-0.2,3.2c0.4,0.6,1.1,1.2,1.7,1.4c0,0,0,0,0.1,0
													c0,0,0.8,0.3,1.8,0.2c0.9-0.1,2.7-0.9,3-2.5c0.2-0.9-0.1-1.6-0.2-1.7c-0.8-1.6-3.2-2.3-4.9-1.6
													C475.1,391.1,474.7,391.5,474.4,391.8z"/>
												<path class="st16" d="M475,392.8c-0.5,0.8-0.1,1.8-0.1,1.9c0.3,0.6,0.8,0.9,0.9,0.9c0,0,0,0,0,0c0,0,0.4,0.2,1,0.2
													c0.3,0,1.1-0.1,1.6-0.9c0.1-0.1,0.6-0.8,0.3-1.7c-0.3-1.1-1.7-1.5-2.7-1.2C476,392.1,475.4,392.2,475,392.8z"/>
												<path class="st8" d="M477.6,393c-0.1,0.2,0,0.4,0,0.4c0.1,0.1,0.2,0.2,0.2,0.2c0,0,0,0,0,0c0,0,0.1,0.1,0.2,0
													c0.1,0,0.3,0,0.4-0.2c0,0,0.1-0.2,0.1-0.4c-0.1-0.2-0.4-0.3-0.6-0.3C477.8,392.9,477.6,392.9,477.6,393z"/>
												<path class="st16" d="M471.5,392.9c0.3-0.4,2.4-2.9,5.6-2.8c4.5,0.1,6.9,5.3,6.6,5.5c-0.2,0.2-2.4-3.2-6.3-3.8
													C475.1,391.4,473.1,392.1,471.5,392.9z"/>
											</g>
										</g>
										<g>
											<g>
												<path class="st8" d="M443.1,387.2c0.4,0.9,1.1,2.3,2.6,3.3c2.5,1.6,5.9,1.3,8.8-0.7c-0.5-0.8-1.5-2.1-3.2-3.2
													c-1-0.6-2.4-1.5-4.2-1.3C445,385.4,443.6,386.7,443.1,387.2z"/>
												<path class="st15" d="M445.9,385.9c-0.7,1.1-0.7,2.5-0.2,3.4c0.3,0.6,1,1.2,1.6,1.4c0,0,0,0,0.1,0c0,0,0.8,0.3,1.7,0.2
													c0.9-0.1,2.4-0.9,2.8-2.4c0.1-0.2,0.3-1-0.1-1.8c-0.7-1.6-3-2.2-4.6-1.6C446.5,385.3,446.1,385.7,445.9,385.9z"/>
												<path class="st16" d="M446.4,387.1c-0.5,0.8-0.1,1.8-0.1,1.9c0.3,0.6,0.8,0.9,0.8,0.9c0,0,0,0,0,0c0,0,0.4,0.2,0.9,0.2
													c0.3,0,1.1-0.1,1.6-0.9c0.1-0.1,0.6-0.8,0.3-1.7c-0.3-1.1-1.6-1.5-2.6-1.2C447.3,386.3,446.8,386.5,446.4,387.1z"/>
												<path class="st8" d="M447.1,386.7c-0.1,0.2,0,0.4,0,0.4c0.1,0.1,0.2,0.2,0.2,0.2c0,0,0,0,0,0c0,0,0.1,0.1,0.2,0
													c0.1,0,0.2,0,0.4-0.2c0,0,0.1-0.2,0.1-0.4c-0.1-0.2-0.4-0.3-0.6-0.3C447.3,386.6,447.1,386.6,447.1,386.7z"/>
												<path class="st16" d="M443.1,387.2c0.3-0.4,2.3-2.9,5.3-2.9c4.3,0,6.5,5.2,6.2,5.4c-0.2,0.2-2.2-3.1-6-3.7
													C446.5,385.7,444.6,386.3,443.1,387.2z"/>
											</g>
										</g>
									</g>
								</g>
							</g>
						</g>
					</g>
				</g>
				<g>
					<g>
						<path class="st17" d="M456,443.5c0.3,0.8,0.7,1.9,1.6,2.9c1.6,2,3.5,2.8,4.5,3.1c-0.7,0.6-1.7,1.6-2.5,3
							c-1.4,2.4-1.6,4.7-1.6,5.9c-0.3-0.3-3.6-3.6-4.8-7c-0.6-1.8-0.6-3.6-0.6-3.6c0-0.7,0-1.3,0.1-1.8
							C453.8,445.3,454.9,444.4,456,443.5z"/>
						<path class="st17" d="M468.3,447.3c1.8-1.1,3.6-2.4,5.5-3.8c2.4-1.8,4.6-3.6,6.6-5.4c1.7,0.7,3.3,1.5,5,2.2
							c-0.6,1.3-1.4,3.2-2.6,5.4c-0.8,1.5-1.4,2.7-1.7,3.1c-3.1,4.8-7.2,7.3-9.3,8.4c0.1-1.5,0-4.1-1.4-6.9
							C469.7,449.1,469,448.1,468.3,447.3z"/>
						<path class="st17" d="M468.3,447.3c-1.4,2-2.9,4-4.3,5.9l0.1-0.2c-0.1,3.8-0.1,7.6-0.3,11.4c-0.2,3.7-0.9,7.5-1.2,11.3
							c-0.7,7.5-1.3,15-1.9,22.5l-0.4-0.4c2.5,0.1,4.9,0.2,7.4,0.4c-2.6,0.2-5.2,0.3-7.7,0.4c-0.1-11.5,0.9-23,2.5-34.3
							c0,0,0.9-11.3,0.9-11.3l0-0.2C464.9,451,466.6,449.1,468.3,447.3L468.3,447.3z"/>
					</g>
				</g>
			</g>
			<g>
				<g>
					<g>
						<g>
							<path class="st18" d="M235,340.3c-14.4,8.5-43.4-20.6-42.2-21.2c8.8-4.1,10.4-18,10.6-30.2c0.1-4.8,0-9.3,0-12.8
								c8.4-1.4,29.4,2.3,35.7,18.9c2.4,6.2,2.6,14.3-0.7,24.5c-1.2,1.7-2,3.5-2.5,5.3c0,0,0,0.1,0,0.1
								C233.9,332.1,236.2,338.9,235,340.3z"/>
							<path class="st19" d="M238.5,319.6c-1.2,1.7-2,3.5-2.5,5.3c0,0,0,0.1,0,0.1c-1.4-0.6-3.2-1.4-5.2-2.4
								c-1.6-0.8-4.1-2.2-6.8-4.2c-3.7-2.7-6.7-4.9-8.7-8.9c-0.9-1.9-1.2-3.3-1.7-6c-0.6-3-1.2-7.5-0.8-13
								c8.9-4.4,19.1-3.2,24.8,2.6c0.6,0.6,1.2,1.3,1.7,2C241.5,301.3,241.8,309.3,238.5,319.6z"/>
							<path class="st18" d="M269.2,266c-0.3,1.9-0.6,3.8-0.6,5.7c0,0.2,0,0.4,0,0.7c0,0.3,0,0.6,0,0.8c0,0.1,0,0.3,0,0.4
								c0,0.1,0,0.3,0,0.4c0,0.5-0.1,1.1-0.3,1.6c0,0.2-0.1,0.3-0.1,0.5c-0.2,0.8-0.6,1.7-1.2,2.4c0,0-0.4,0.5-1.7,2.8
								c-0.7,1.2-2.1,7.5-3.3,16.5c-0.2,1.5-0.8,3.7-1.7,6.5c-1.1,3.3-3.1,9-8.1,14c-1.2,1.2-2.9,2.8-5.3,4.4
								c-0.9,0.6-2.1,0.8-3.2,0.6c-1-0.2-2.2-0.5-3.4-0.9c-0.2-0.1-0.6-0.2-1.2-0.5c-3.3-1.1-7-2.7-10.9-4.7c-2.4-1.2-5.3-2.7-7.3-4
								c-4.5-2.9-7.3-7.8-7.6-13.2c-0.4-3.3-0.1-6.5-0.6-9.8c0-2-0.1-4-0.1-6c-0.1-0.2-0.1-0.2-0.1-0.3c-0.4-0.3-0.6-0.2-1.2-0.3
								c-5.9-1.8-8.7-10-9.5-12.3c-3.2-9.5-2.4-28.2,11-37.2c8.6-5.8,18-4.5,23.1-4C243.5,230.9,274.1,239.7,269.2,266z"/>
							<path d="M212.7,270.9c1.9,1.9,0.6,4,0.6,4.7c0.5,0.6,2.6,1.6,3.1,2.2c0.3-1.9,0.6-3.8,0.9-5.7c0.5-2.4,1.5-3.8,2.3-4.6
								c1.1-1.1,1.9-1.3,4.1-2.9c0,0,1.7-1.2,3.4-2.8c4.3-4.3,6.5-9.1,7.2-10.9c0.4-1.1,0.8-2,0.9-2.6c1.3,0.2,3.4,0.5,5.8,1
								c3.6,0.8,6.1,1.7,7,2c9.7,3.3,16.3-0.1,19.9,3.8c1.4,1.5,2.7,4.4,1.4,10.7c5-8.9,4.3-15.4,3.7-18.1
								c-3.6-17.7-30.5-29-48.9-22.3c-5.2,1.9-8.8,4.9-10.9,6.9c-5,0.5-8,2.3-9.6,3.5c-7.7,5.8-8.6,17.3-9.4,27.6
								c-0.1,1.6-0.1,3.2-0.1,3.2c0.1,3.1,0.6,5.4,0.7,6.1c1.2,5.6,2,21.6,3.5,27.1c0.2,0.7,0.5,1.9,1.7,2.7
								c0.8,0.6,1.7,0.7,2.2,0.7c1.9-8,2.2-13.7,2.1-17.5c0,0,0-0.1,0-0.1c0-1.2-0.1-5.1,0-8.6c0.2-4.5,0.3-6.8,1.2-7.5
								C207.2,268.1,210.7,268.9,212.7,270.9z"/>
							<path id="XMLID_00000086667360474098328300000009259527846590748332_" class="st20" d="M192.9,252.7
								c47.2-16.3,71.4-10.6,79.6-8.8c1.4,0.5,3.2,3.3,2.3,7.7c1.6,2.8,1.8,6.7-0.5,8.1c0,0,0,0.1,0,0.2c0.1,1.1-1,1.9-2.2,1.9
								c-9.3-0.4-30.5-10.1-75.3,7.9c-1,0.5-2.4,0.2-3-0.7c-0.6-1-1.1-2.5-0.8-4.7c-2.3-1.6-1.8-6.1-1-7.2
								C191.9,255,192,253,192.9,252.7z"/>
							<path class="st18" d="M214,271.8c0.4-7.1-2.7-9.1-2.7-9.1c-2.3-1.4-5.8-0.7-7.7,1.3c-1.5,1.6-1.7,3.6-1.8,5
								c-0.2,2.7,0.6,4.7,1.8,7.5c0.8,2.1,1.3,3.1,2.3,4.2c1.9,2.1,4.3,2.7,5.6,3c0.2-0.1,0.5-0.2,0.8-0.4c1.5-1.1,1.1-3.5,1.8-9.9
								C214,273.3,213.9,272.7,214,271.8z"/>
						</g>
						<path class="st21" d="M239.2,307.8c0-1,6.7-3.4,11.3-0.6c1.9,1.1,3.5,3.2,3.1,3.8c-0.3,0.5-1.9-0.1-4.9-0.9
							C241.5,308.1,239.2,308.4,239.2,307.8z"/>
						<g>
							<path class="st8" d="M255.9,281.9c2.6-3.3,6.2-3.8,7.6-2.5c1,0.9,1.1,2.9,0.5,4.7C261.7,287.7,258.1,286.5,255.9,281.9z"/>
							
								<ellipse transform="matrix(0.3376 -0.9413 0.9413 0.3376 -93.0662 433.0696)" class="st22" cx="261.2" cy="282.7" rx="3.6" ry="2.3"/>
							<ellipse transform="matrix(0.3376 -0.9413 0.9413 0.3376 -92.8984 433.6407)" cx="261.7" cy="282.8" rx="1.9" ry="1.2"/>
							
								<ellipse transform="matrix(0.3376 -0.9413 0.9413 0.3376 -92.1109 432.2656)" class="st8" cx="261.1" cy="281.6" rx="0.5" ry="0.3"/>
							<path class="st23" d="M264,284.1c0.5-1.6,0.2-3.3-0.9-4.2c-1.6-1.4-4.1-0.2-4.8,0.1c-1.2,0.6-2,1.4-2.4,2
								c0.4-0.6,1.2-1.8,2.6-2.6c0.3-0.2,3.7-1.9,5.4-0.1C265,280.3,265,282.3,264,284.1z"/>
						</g>
						<path class="st21" d="M254.4,299.9c0.1,0.3-1.4,1.6-3.2,1.7c-3,0.2-5.4-3.1-5.2-3.3c0.1-0.2,1.9,1.8,4.9,2
							C252.9,300.4,254.3,299.7,254.4,299.9z"/>
						<g>
							<path d="M234.6,266.2c1.3-0.6,3-1.1,5.1-1.3c0,0,0,0,0,0c1.2-0.1,2.3,0.2,3.3,0.8c2.4,1.5,4.9,2.9,7.3,4.4
								c0.1,0.3,0.2,0.9,0,1.5c-0.1,0.5-0.3,0.9-0.5,1.2c-2.9-1.7-5.7-3.4-8.6-5.1c-0.6-0.4-1.3-0.6-2.1-0.7
								C237.7,266.7,236.1,266.5,234.6,266.2z"/>
						</g>
						<g>
							<path d="M268.7,273.2c0,0.1,0,0.3,0,0.4c0,0.1,0,0.3,0,0.4c-0.3,0-0.6,0-0.9,0l-9.4,1.4c-0.1-0.3-0.1-0.7,0-1.3
								c0.1-0.7,0.4-1.1,0.6-1.4c2.7-0.4,5.4-0.8,8.1-1.2c0.4,0,1.2,0,1.7,0c0,0.2,0,0.4,0,0.7C268.7,272.6,268.7,272.9,268.7,273.2
								z"/>
						</g>
						<g>
							<path class="st8" d="M246.9,280.3c-0.4,0.2-1,0.6-1.8,0.8c-1.8,0.5-3.3,0.1-4.1-0.2c-2.9-0.8-4.7-3-5.4-3.8
								c0.6-0.7,2.6-2.8,5.7-3c0.9-0.1,2.5-0.2,3.9,0.9C247.5,276.7,246.9,280.1,246.9,280.3z"/>
							<g>
								<path class="st22" d="M245.7,278.9c-0.6,1.7-2.2,2.7-3.5,2.2c-1.3-0.5-1.9-2.2-1.3-3.9c0.6-1.7,2.2-2.7,3.5-2.2
									C245.8,275.5,246.4,277.2,245.7,278.9z"/>
								<path d="M245.1,278.7c-0.3,0.8-1.1,1.3-1.8,1.1c-0.7-0.2-1-1.1-0.7-2c0.3-0.8,1.1-1.3,1.8-1.1
									C245.1,277,245.4,277.9,245.1,278.7z"/>
								<path class="st8" d="M245.4,277.8c-0.1,0.3-0.3,0.4-0.6,0.3s-0.3-0.4-0.2-0.6c0.1-0.3,0.3-0.4,0.6-0.3
									S245.5,277.5,245.4,277.8z"/>
								<path d="M246.9,280.3c0-0.5-0.2-3.2-2.3-4.8c-2.4-1.8-6.3-1.3-9,1.6C236.2,275,247.1,267.8,246.9,280.3z"/>
							</g>
						</g>
						<g>
							<path d="M209.3,286.8c-0.9-0.2-0.9-2.1-0.6-3.7l0.6,0.3c-0.4,1.8-0.1,2.8,0.1,2.8c0.2,0,0.9-0.8,1.3-2.6
								c0.4-1.8,0.1-2.9-0.1-2.9c-0.1-0.2-0.1-0.4,0.1-0.6c0.9,0.2,1,2,0.6,3.6S210.2,287,209.3,286.8z"/>
						</g>
					</g>
					<path class="st24" d="M163.4,474.1C135.9,533.7,129.6,590,128.5,648c2.5-4.2,13.5-11.2,34.7-1.4"/>
					<g>
						<g>
							<path d="M194.8,865.7c-2.3,1.7-4.6,7.6-1.6,11.1c3.1,3.5,50,14.3,61.7,14.8c6,0.3,12.4-1.5,15.7-5.5c1.7-2.1,1-5.3-1.4-6.5
								c-6.8-3.4-21.5-8.7-23.1-9.1C244.2,870,194.8,865.7,194.8,865.7z"/>
							<path class="st18" d="M197.5,858.6c-2.8,5.5-2.4,9.2-1.7,11.4c1,3.2,4.2,9,56.2,15.8c4,0.5,8,0.1,11.8-1.2
								c2.2-0.8,4.5-1.4,5.5-3.5c0.6-1.3,0.4-2.6,0.3-3c-0.3-1.5-1.4-2.8-3-3.6c-0.8-0.4-1.6-0.9-2.4-1.3c-0.4-0.3-1-0.5-1.3-0.7
								c-3.6-2.1-7.2-4.1-10.7-6.3c-4-2.4-7.9-5-11.4-8c-4.2-3.5-7-5.9-8.8-9.7c-2.8-5.7-1.9-11.5-1.5-14.1
								c4.5-29.8,7.1-59.9,11.1-89.8c1.1-8.3,2.4-20.5,3-35.6c-12.3,0.1-24.7,0.2-37,0.3c-1.3,4-3.1,9.7-4.7,16.6
								c-4.4,18.9-4.9,35.2-4.6,46.2c0.6,20.4,4.6,41.9,5.1,60.1c0.2,5.9-0.3,9.9-1.5,14.5C200.8,851.9,198.9,856,197.5,858.6z"/>
							<path d="M236.6,887.3c1-2.3,5.4-11.7,15.5-15.2c3-1,5.9-1.3,8.1-1.3c-1.3-1.2-2.8-2.4-4.5-3.7c-3.8-2.7-7.4-4.4-10.5-5.6
								c-2.9,0.6-6.6,1.6-10.4,3.8c-9.3,5.3-13.6,13.5-15.2,17C225.3,884,230.9,885.7,236.6,887.3z"/>
						</g>
						<g>
							<path d="M141.2,870.6c-2.3,1.7-4.6,7.6-1.6,11.1c3.1,3.5,50,14.3,61.7,14.8c6,0.3,12.4-1.5,15.7-5.5c1.7-2.1,1-5.3-1.4-6.5
								c-6.8-3.4-21.5-8.7-23.1-9.1C190.6,874.9,141.2,870.6,141.2,870.6z"/>
							<path class="st18" d="M143.9,863.5c-2.8,5.5-2.4,9.2-1.7,11.4c1,3.2,4.2,9,56.2,15.8c4,0.5,8,0.1,11.8-1.2
								c2.2-0.8,4.5-1.4,5.5-3.5c0.6-1.3,0.4-2.6,0.3-3c-0.3-1.5-1.4-2.8-3-3.6c-0.8-0.4-1.6-0.9-2.4-1.3c-0.4-0.3-1-0.5-1.3-0.7
								c-3.6-2.1-7.2-4.1-10.7-6.3c-4-2.4-7.9-5-11.4-8c-4.2-3.5-7-5.9-8.8-9.7c-2.8-5.7-1.9-11.5-1.5-14.1
								c4.5-29.8,7.1-59.9,11.1-89.8c1.1-8.3,2.4-20.5,3-35.6c-12.3,0.1-24.7,0.2-37,0.3c-1.3,4-3.1,9.7-4.7,16.6
								c-4.4,18.9-4.9,35.2-4.6,46.2c0.6,20.4,4.6,41.9,5.1,60.1c0.2,5.9-0.3,9.9-1.5,14.5C147.1,856.8,145.3,860.9,143.9,863.5z"/>
							<path d="M183,892.2c1-2.3,5.4-11.7,15.5-15.2c3-1,5.9-1.3,8.1-1.3c-1.3-1.2-2.8-2.4-4.5-3.7c-3.8-2.7-7.4-4.4-10.5-5.6
								c-2.9,0.6-6.6,1.6-10.4,3.8c-9.3,5.3-13.6,13.5-15.2,17C171.7,888.9,177.3,890.5,183,892.2z"/>
						</g>
						<path class="st8" d="M267.7,588.4c0.6,34.5-0.2,62-1.2,81c0,0-0.6,12.8-5.4,46.1c-1.2,8.5-2.7,17.5-7.6,28.2
							c-3.2,6.9-6.5,14-12.9,19c-15.6,12.3-39.3,4.1-42.8,2.8c-0.2-2.7-0.3-5.5-0.5-8.3c-0.2-5-0.4-9.9-0.4-14.7
							c-2.4,8.2-4.7,16.5-7.1,24.7c-4.3,1.5-21.1,6.7-38.8-1.5c-9.1-4.2-14.9-10.3-18-14.2c-2.8-23-4.5-49.1-3.9-77.8
							c0.9-44.3,7-83,14.3-114.3c17.9-0.3,41.7,1.2,68.8,8C234.9,573.2,253.5,581.2,267.7,588.4z"/>
						<g>
							<path class="st25" d="M197.5,704.5c-6.2,15-23.4,25.3-39.5,23.8c7.1-3.5,13.9-6.5,20.6-10.6
								C185.2,713.8,191.1,709.2,197.5,704.5L197.5,704.5z"/>
						</g>
						<g>
							<path class="st25" d="M200,712.5c-1.6,16.1-15,31-30.9,34.3c5.8-5.4,11.4-10.3,16.6-16.1C191,725,195.3,718.9,200,712.5
								L200,712.5z"/>
						</g>
						<g>
							<path class="st25" d="M193.2,689.6c-3.5,13.8-19.3,23.5-33.2,20.2c3.3-1.4,6.3-2.6,9.2-4C178.2,701.7,185.5,696,193.2,689.6
								L193.2,689.6z"/>
						</g>
						<g>
							<path class="st25" d="M213,712.1c5.4,7.2,11.5,12.8,19.2,17.4c2.5,1.5,5.1,3,7.9,4.7C227.3,736.3,212.6,725.6,213,712.1
								L213,712.1z"/>
						</g>
						<g>
							<path class="st25" d="M219.3,701c6.3,9.5,15.1,15.2,23.3,22.9C231,723.8,217.9,713.4,219.3,701L219.3,701z"/>
						</g>
						<g>
							<path class="st25" d="M207.7,718.7c4.8,10.7,13,17.8,20,27.1C216.3,743.5,204.2,730.9,207.7,718.7L207.7,718.7z"/>
						</g>
						<path class="st26" d="M196.9,587.7c-1.3,40.6-2.5,81.2-3.8,121.8c0.8,1.6,3.4,7,8.8,8.9c6.4,2.3,13.9-1.2,18.8-8.9
							c5.4-29.5,9.2-64.3,8.3-103.1c-0.2-10.1-0.7-19.8-1.5-29C217.4,580.8,207.1,584.2,196.9,587.7z"/>
					</g>
					<g>
						<path class="st18" d="M281.1,572.3c0.3,1.2,0.5,2.4,0.8,3.6c0.8,3.3,1.4,6.6,1.6,10c0.4,6.5,0.1,13.2-1.2,19.6
							c-0.3,1.7-8.7,10-10.4,11c-1.7,1-6.8,1.9-8.1,0.4c-0.4,0.5-4.7,1-2.5-3.2c-0.7-0.7-2.9-2.4,5.5-7.3l-0.2,0
							c-0.2-1.9,0.3-4.4,0.4-5.7c0.2-3.1,0.7-6.6-0.2-9.6c-1.5-4.9-1.4-10.6,0.6-18.1c0.4-2.2,8.9-7.7,10.9-6.8
							c0.1,0.6,0.6,1,0.9,1.4C280.2,569.1,280.7,570.6,281.1,572.3z"/>
						<path class="st19" d="M266.5,606.5c0.1,0.9,0.4,1.8,1.1,2.3c0.4,0.3,0.9,0.5,1.4,0.4c0.7,0,1.3-0.3,1.8-0.7
							c0.7-0.6,1.1-1.3,1.5-2c2.1-4,2.7-8.9,3.3-13.3c0-0.1-0.1-0.2-0.2-0.2c-0.1,0-0.2,0.1-0.2,0.2c-0.6,4.4-1.1,9.2-3.2,13.1
							c-0.4,0.7-0.8,1.4-1.4,1.9c-0.4,0.3-1,0.6-1.5,0.6c-0.4,0-0.9-0.1-1.2-0.4c-0.5-0.4-0.8-1.2-0.9-2.1c0-0.1-0.1-0.2-0.2-0.2
							C266.6,606.3,266.5,606.4,266.5,606.5L266.5,606.5z"/>
					</g>
					<g>
						<path class="st18" d="M275.3,363.9c7.8,44.7,4.9,74.7,4.9,74.7c-0.9,9-2.6,22-5.9,37.6c1.3,13.8,2.5,28,3.4,42.6
							c1.1,17.4,1.8,34.3,2.1,50.6c-6.5,0.9-12.9,1.9-19.4,2.8c-3.4-9.4-7.2-21.3-10.7-35.4c-6.8-27.2-7.9-48.6-9.4-54.2
							c-3.9-15.1,3.1-51.9,2.1-86.6c-0.3-10.2,0-22.2,2.6-32.1c1.6-6.1,5.2-10.5,9.9-14.6c1.9-1.7,3.7-2.6,5.6-2.7
							c2.9-0.2,5.1,1.2,6.1,1.8C273.2,352.6,275.1,362.5,275.3,363.9z"/>
						<path class="st27" d="M278,471.2c-11.6-1.4-23.2-2.7-34.8-4.1c-0.9-29-1.9-57.9-2.8-86.9c0.5-2.3,3.6-16.2,16.6-23.4
							c6.5-3.6,12.8-4,16.2-4c4.7,15.8,9.3,37.4,9.9,63.2C283.7,437.9,281.1,456.7,278,471.2z"/>
						<path class="st24" d="M283,455.1c-7.7-0.4-15.8-1-24-1.9c-12.9-1.3-25.1-3-36.5-5c0.6,5.6,1.2,11.3,1.8,16.9
							c8.8,2.7,19.4,5.2,31.7,6.5c8.9,1,17,1.1,24.1,0.9C281,466.7,282,460.9,283,455.1z"/>
					</g>
					<path class="st18" d="M249.4,361c-1.4,22.8-24.8,38.8-46.6,37.3c-22.5-1.5-43.5-21.5-41.3-43.2c2.1-20.3,23.3-30.8,24.8-31.5
						c3.9-2,16.1-7.6,30.6-3.9C234.5,324.1,250.6,341.2,249.4,361z"/>
					<path class="st27" d="M272.3,649.1c-14.6,4.7-38,10.1-58.3,11.3c-33.3,1.9-60.4-5.2-77.5-11.3c1.2-18.4,2.6-34.4,3.8-47.4
						c4.2-43.4,8.8-69.9,10.1-77.2c1-5.4,1.8-9.9,2.4-12.9c1.8-7.9,3.9-15.7,5.4-23.6c1.8-9.5,1.4-18.7-0.6-27.6
						c-2.1-9.8-6.1-19.3-11-28.4c-7.2-13.4-9.3-19.3-10-23.3c-0.7-4.2-1.1-7.4-1.2-9.2c-0.2-2.4-0.3-4.2-0.3-5
						c-0.2-5.2-0.5-19.8-1-39.3c3.2-4.6,9.8-10.7,13-15.4c14.1-6.1,24.8-10.8,38.9-16.9c0.5-0.2,1.1-0.5,1.8-0.8
						c0.6-0.3,1.2-0.6,1.9-0.9c1.9-0.9,3.6-1.9,5.2-2.9c0.1,1.4,0.4,3.3,0.9,5.4c0,0,1.6,6.3,5.7,12c7.1,10,19.7,14.4,21.7,15
						c1.5,4.9,2.8,10.3,3.8,16.4c0.6,3.4,1,6.7,1.2,9.7c1-8.1,2-16.3,3-24.4c1.5-1.3,3.4-3.4,4.8-6.4c3.8-8.1,0.2-15.9-0.5-17.6
						c7.6,5.3,14.5,8.9,19.1,11.3c6.7,3.6,12.8,6.2,16.2,9.5c1.6,1.5,2.5,3.2,2.7,5.1c0.1,1-0.1,1.8-0.2,2.3
						c-3.4,34-5.9,62.4-7.6,83.2c-3.5,43.2-3.9,50.5-3.2,57.6c3,31.9,5.1,47.4,7.2,70.4c1.4,14.8,2.1,22.3,2.5,31.5
						c0.1,1.6,0.2,3.1,0.2,4.6C273.3,621.4,273,636.6,272.3,649.1z"/>
					<g>
						<path class="st24" d="M231.3,352.4c-1.3,17.2-2.7,36.1-3.3,53.3c-0.2,5.9-0.4,11.8-0.5,17.8c0,0-0.6-0.6-0.6-0.6
							c3.5,0.1,7.1,0.2,10.6,0.4c-3.5,0.4-7.1,0.6-10.6,0.9c0,0-0.6,0-0.6,0l0-0.7C224.9,399.7,226.3,375.6,231.3,352.4L231.3,352.4
							z"/>
					</g>
					<path class="st24" d="M233.7,411.3c0.3,0.6,0.3,1.4,0,1.9c-0.4,0.9-1.4,1.3-2.2,0.9c-0.6-0.3-1.1-0.9-1.1-1.8
						c0-1,0.7-1.8,1.5-2C232.5,410.2,233.3,410.5,233.7,411.3z"/>
					<path class="st24" d="M234.6,393c0.3,0.6,0.3,1.4,0,1.9c-0.4,0.9-1.4,1.3-2.2,0.9c-0.6-0.3-1.1-0.9-1.1-1.8c0-1,0.7-1.8,1.5-2
						C233.4,391.8,234.2,392.2,234.6,393z"/>
					<path class="st24" d="M235.3,374c0.3,0.6,0.3,1.4,0,1.9c-0.4,0.9-1.4,1.3-2.2,0.9c-0.6-0.3-1.1-0.9-1.1-1.8c0-1,0.7-1.8,1.5-2
						C234.1,372.9,234.9,373.2,235.3,374z"/>
					<path class="st20" d="M259.1,344.6c-0.5-6.9-5.5-7.5-7.1-7c-1.5-3.3-4-4.8-6.9-3.6c-0.5-2.4-4.9-4.1-6.2-3
						c0.1,11.2-3.3,118.8-15.2,158.2c-0.7,3.6,20.7,15.2,28.7,8.5C253.4,492.7,264.5,375.5,259.1,344.6z"/>
					<path class="st18" d="M216.5,453c-1.6,0.5-9,2.9-18.7,6.3c0,0,0,0,0,0c-6.1,2.1-12.2,4.3-18.1,6.5c-2.3-0.3-4.6-0.5-6.8-0.7
						c-6.9,4.4-19.2,2.3-26.1,6.6c0,1.2,0,17.8,12.1,24.8c3.3,1.9,6.7,2.6,9.4,2.8c24.3-6,52.4-15.2,82.3-29.6
						c13.5-6.5,25.9-13.4,37.1-20.2c-3-1.9-6.2-4.1-9.5-6.6c-3.4-2.6-6.5-5.2-9.2-7.7C233.9,447.2,221.2,451.5,216.5,453z"/>
					<path class="st27" d="M140,463.2c6.8,0.7,14.7,1.1,23.5,0.8c12.3-0.5,23-2.5,31.7-4.6c0.3-21.6-0.3-40-1.1-54
						c-1.6-27.8-3.4-35.4-8-43.1c-7.9-13.1-24.4-27.8-37.6-23.2c-7.5,2.7-13,11-14.9,17.7c-1.6,5.9-0.4,10.9-0.4,13.2
						c-0.2,18.1,1.3,29.3,4.1,60.9C137.9,438,138.9,449.2,140,463.2z"/>
					<path class="st24" d="M137.1,457.6c8.1-1.7,16.6-3.6,25.4-5.8c11.7-3,22.8-6.1,33.1-9.4c0.3,5.9,0.5,11.9,0.8,17.8
						c-7.2,3.4-17,7.4-29,10.1c-10.6,2.5-19.9,3.4-27.3,3.6C139.1,468.5,138.1,463,137.1,457.6z"/>
					<path class="st24" d="M231.3,352.4c1.5-1.5,4.3-4.7,5.7-9.7c1.9-6.9-0.6-12.4-1.4-14.3c1,0.7,2.4,1.3,3.4,2
						c1.3,0.5,1.6,5,1.9,6.6c0.8,4.6,0,6-1.2,18.1c-0.3,3.6-0.5,6.3-1.3,6.4c-0.5,0.1-0.8-1.7-2.8-4.1c-0.8-0.9-1.1-1.4-1.7-1.8
						c-1-0.8-1.9-1.2-2.4-2.2C231.4,352.9,231.3,352.6,231.3,352.4z"/>
					<path class="st24" d="M193.7,318c0.7-0.4,1.6,0,1.8,0.8c1.2,5.6,4.9,18.3,16.6,26.5c3.9,2.8,7.9,4.4,11.2,5.4
						c-1.9,4.8-3.1,8.7-3.9,11.5c-0.6,2.1-0.8,3.3-1.8,3.7c-2.1,0.8-5.6-3.4-8.7-7.2c-3.8-4.7-8.7-10.9-14.6-18.4
						c-1.6-2.5-3.3-5.4-4.9-8.6c-1.6-3.2-2.9-6.2-4.1-9c1.7-1,3.5-2,5.3-3C191.7,319.1,192.7,318.5,193.7,318z"/>
					<g>
						<path d="M224.2,345.3c-7.1-0.2-12.4-5.5-16.8-10.1c-3.4-3.5-8.1-9.1-12-17.2c0.1-0.2,0.2-0.4,0.3-0.6c0.2-0.4,0.4-0.7,0.7-0.9
							c4.7,10,10.9,16.3,14.7,19.9c5.3,4.9,11,8.6,16.3,6.8c4.7-1.6,7.7-7.6,8.1-14.9c0.2,0.3,0.3,0.6,0.5,1
							c0.2,0.4,0.3,0.8,0.3,1.1c-0.1,1.2-1.4,11.7-8.4,14.3C226.5,345.4,225.2,345.4,224.2,345.3z"/>
					</g>
				</g>
				<path class="st18" d="M279.7,453.3c3.3-1.3,6.6-2.7,9.9-4c2,0.6,4.5,1,7.4,1c7.6,0,13.2-3.3,15.8-5.1c0.5-1.4,0.9-2.9,1.1-4.7
					c1.1-9.1-4.3-16.3-6.2-18.7c6.5-2.5,12.6-6.1,19-8.9c1.5-0.6,2.2-2.3,1.8-3.8c0,0,0,0,0-0.1c-0.5-1.7-2.3-2.6-4-2.1
					c-11.7,3.8-22.9,8.5-34.6,12.1c4.3-1.6,8.7-3.3,13-4.9c-0.5-0.2-1.2-0.5-2.1-0.6c-1-0.1-1.8,0-2.3,0.1c-1.7,0.2-4.1,0.6-6.8,1.9
					c-3,1.4-5.2,3.2-6.4,4.4c-1.1,1.3-2.2,2.7-3.3,4.3c-0.8,1.2-1.6,2.4-2.3,3.5c-1.5,2.5-3.7,3.6-5.1,4.6c-1.4,1-3.6,2.2-6.3,3.2
					C272,441.5,275.9,447.4,279.7,453.3z"/>
			</g>
		</g>
	</g>
</g>
</svg>
