<?xml version="1.0" encoding="utf-8"?>
<!-- Generator: Adobe Illustrator 26.0.1, SVG Export Plug-In . SVG Version: 6.00 Build 0)  -->
<svg version="1.1" id="Layer_1" xmlns="http://www.w3.org/2000/svg" xmlns:xlink="http://www.w3.org/1999/xlink" x="0px" y="0px"
	 viewBox="0 0 664 598" style="enable-background:new 0 0 664 598;" xml:space="preserve">
<style type="text/css">
	.st0{clip-path:url(#SVGID_00000051369758594159134980000011338397311291150467_);}
	.st1{clip-path:url(#SVGID_00000077320008925042759650000004714024931916729990_);fill:#BDDEEF;}
	.st2{clip-path:url(#SVGID_00000077320008925042759650000004714024931916729990_);}
	.st3{fill:#52A7C1;}
	.st4{clip-path:url(#SVGID_00000022520311669237777370000013281905960652312224_);fill:#D1CFB0;}
	.st5{clip-path:url(#SVGID_00000022520311669237777370000013281905960652312224_);}
	.st6{fill:#DE9F7E;}
	.st7{fill:#D38A6A;}
	.st8{fill:#D34047;}
	.st9{fill:#B7303D;}
	.st10{fill:#FCB856;}
	.st11{fill:#DD4756;}
	.st12{fill:#CE8065;}
	.st13{fill:#FFFFFF;}
	.st14{fill:#6B3628;}
	.st15{opacity:0.3;fill:#FFFFFF;}
	
		.st16{clip-path:url(#SVGID_00000051369758594159134980000011338397311291150467_);fill:none;stroke:#3F2E20;stroke-width:2.9318;stroke-miterlimit:10;}
</style>
<g>
	<g>
		<defs>
			<path id="SVGID_1_" d="M55.7,452.2c30.1,24.6,121.6,73.5,221.8,88.1c137.1,19.9,264.5-37.8,295.1-56.3
				c8.9-11.7,59.2-112.1,23.6-230.7C556,118.6,407.3,61.9,379.4,55.8c-19.9-4.4-138.7-10.4-233.6,69.5
				C59.5,198.1,8.1,330.2,55.7,452.2z"/>
		</defs>
		<clipPath id="SVGID_00000008847281984744709850000012500248319515978881_">
			<use xlink:href="#SVGID_1_"  style="overflow:visible;"/>
		</clipPath>
		<g style="clip-path:url(#SVGID_00000008847281984744709850000012500248319515978881_);">
			<g>
				<g>
					<defs>
						<path id="SVGID_00000016040644569903346170000008925344199622300329_" d="M592.4,243.6c-11.3-20.2-24.6-37.9-38.3-53
							c-0.1,0.2-0.3,0.5-0.4,0.7c0.1-0.2,0.3-0.5,0.4-0.7c-2.5-2.8-50.3-43.1-50.3-43.1l0,0c-1.3-1-2.7-2.1-4-3.2
							c-38.2-32-67.2-90-173.2-81.2c-49.4,4.1-81.8,24.2-104.8,51.2c-7,8.1-13.1,17-18.7,26.3c-17,28.4-28.3,61.1-39.8,89.6
							c-15.2,37.6-69.7,43.6-89.3,87.2c-17.9,20.5-27.2,53.1-31.9,76.7c-3.4,16.9-4.3,29.3-4.3,29.3C32.4,542,139,632.9,248.9,665.8
							c24.6,7.4,49.4,11.8,73.1,13c11.2,0.6,22.2,0.4,32.8-0.5c2.1-0.2,4.3-0.4,6.5-0.7c1.5-0.2,3-0.3,4.5-0.5
							c1.3-0.2,2.5-0.3,3.8-0.5c0.7-0.1,1.4-0.2,2.1-0.3c0.7-0.1,1.3-0.2,2-0.3c35.6-5.5,75.5-17.9,112.1-37
							c0.2-0.1,0.4-0.2,0.5-0.3c59-31,109.4-79.3,119-143.9c1.3-9,12.9-36.6,16.7-76.1C629.4,341,607.8,278.4,592.4,243.6z
							 M510.2,197.2c0,0,0.1,0.1,0.1,0.1C510.3,197.3,510.2,197.3,510.2,197.2z"/>
					</defs>
					<clipPath id="SVGID_00000139999952535990121010000006598692197536720784_">
						<use xlink:href="#SVGID_00000016040644569903346170000008925344199622300329_"  style="overflow:visible;"/>
					</clipPath>
					<path style="clip-path:url(#SVGID_00000139999952535990121010000006598692197536720784_);fill:#BDDEEF;" d="M592.4,243.6
						c-11.3-20.2-24.6-37.9-38.3-53c-2.5-2.8-50.3-43.1-50.3-43.1c-1.3-1-2.7-2.1-4-3.2c-38.2-32-67.2-90-173.2-81.2
						c-49.4,4.1-81.8,24.2-104.8,51.2c-7,8.1-13.1,17-18.7,26.3c-17,28.4-28.3,61.1-39.8,89.6c-15.2,37.6-69.7,43.6-89.3,87.2
						c-17.9,20.5-27.2,53.1-31.9,76.7c-3.4,16.9-4.3,29.3-4.3,29.3C32.4,542,139,632.9,248.9,665.8c24.6,7.4,49.4,11.8,73.1,13
						c11.2,0.6,22.2,0.4,32.8-0.5c2.1-0.2,4.3-0.4,6.5-0.7c1.5-0.2,3-0.3,4.5-0.5c1.3-0.2,2.5-0.3,3.8-0.5c0.7-0.1,1.4-0.2,2.1-0.3
						c0.7-0.1,1.3-0.2,2-0.3c35.6-5.5,75.5-17.9,112.1-37c0.2-0.1,0.4-0.2,0.5-0.3c59-31,109.4-79.3,119-143.9
						c8.5-42.3,20.3-66.9,20.3-130.1C627.7,322.8,592.4,243.6,592.4,243.6z"/>
					<g style="clip-path:url(#SVGID_00000139999952535990121010000006598692197536720784_);">
						<path class="st3" d="M179,243c0,1.6-1,2.8-2.2,2.8c-1.2,0-2.2-1.3-2.2-2.8c0-1.6,1-2.8,2.2-2.8C178,240.2,179,241.5,179,243z"
							/>
						<path class="st3" d="M197.7,248.3c0,1.6-1,2.8-2.2,2.8c-1.2,0-2.2-1.3-2.2-2.8s1-2.8,2.2-2.8
							C196.7,245.5,197.7,246.8,197.7,248.3z"/>
						<path class="st3" d="M260.3,164.3c0,1.6-1,2.8-2.2,2.8s-2.2-1.3-2.2-2.8s1-2.8,2.2-2.8S260.3,162.7,260.3,164.3z"/>
						<path class="st3" d="M552.5,413.8c0,1.6-1,2.8-2.2,2.8c-1.2,0-2.2-1.3-2.2-2.8s1-2.8,2.2-2.8
							C551.5,411,552.5,412.2,552.5,413.8z"/>
						<path class="st3" d="M560.1,406.2c0,1.6-1,2.8-2.2,2.8c-1.2,0-2.2-1.3-2.2-2.8s1-2.8,2.2-2.8
							C559.1,403.3,560.1,404.6,560.1,406.2z"/>
						<ellipse class="st3" cx="189.6" cy="233.9" rx="3.6" ry="4.5"/>
						<path class="st3" d="M186,400.9c0,3.2-2.1,5.9-4.7,5.9c-2.6,0-4.7-2.6-4.7-5.9c0-3.2,2.1-5.9,4.7-5.9
							C184,395,186,397.6,186,400.9z"/>
						<path class="st3" d="M449.4,150.5c0,3.2-2.1,5.9-4.7,5.9c-2.6,0-4.7-2.6-4.7-5.9c0-3.2,2.1-5.9,4.7-5.9
							C447.3,144.6,449.4,147.2,449.4,150.5z"/>
						<ellipse class="st3" cx="216.1" cy="131.7" rx="14.9" ry="18.7"/>
						<ellipse class="st3" cx="44.9" cy="450.1" rx="30.4" ry="38.4"/>
					</g>
				</g>
			</g>
		</g>
		<g style="clip-path:url(#SVGID_00000008847281984744709850000012500248319515978881_);">
			<defs>
				<polygon id="SVGID_00000021806918685863958350000011566344071112513204_" points="481,495.4 303.5,494.7 301.6,199.1 481,198.2 
									"/>
			</defs>
			<clipPath id="SVGID_00000127755176904539583230000006603230820737799555_">
				<use xlink:href="#SVGID_00000021806918685863958350000011566344071112513204_"  style="overflow:visible;"/>
			</clipPath>
			<polygon style="clip-path:url(#SVGID_00000127755176904539583230000006603230820737799555_);fill:#D1CFB0;" points="481,198.2 
				481,495.4 429.5,500.2 414.4,501.6 354.9,507 340.5,508.4 303.3,511.8 301.6,199.1 			"/>
			<g style="clip-path:url(#SVGID_00000127755176904539583230000006603230820737799555_);">
				<g>
					<g>
						<g>
							<path class="st6" d="M308.2,533.5c-0.5,0.9-1,1.8-1.4,2.8c-1.3,2.6-2.5,5.1-3.5,7.8c-1.7,5.2-2.9,10.8-3.3,16.2
								c-0.1,1.5,4.9,10,6.1,11.2c1.2,1.2,5.1,3,6.5,2.1c0.2,0.5,3.6,1.9,2.7-2.1c0.7-0.4,2.9-1.3-2.9-7.1l0.1,0.1
								c0.6-1.5,0.7-3.6,0.9-4.7c0.5-2.6,0.8-5.5,2.2-7.8c2.3-3.7,3.4-8.4,3.4-14.9c0.2-1.9-5.6-8.2-7.4-7.9c-0.2,0.4-0.7,0.7-1,1
								C309.7,531.1,308.9,532.3,308.2,533.5z"/>
							<path class="st7" d="M312.7,564.5c-0.3,0.7-0.7,1.4-1.4,1.7c-0.4,0.2-0.9,0.2-1.3,0c-0.5-0.2-1-0.5-1.3-0.9
								c-0.4-0.6-0.6-1.3-0.8-2c-0.9-3.7-0.3-7.8,0.2-11.5c0-0.1,0.1-0.2,0.2-0.1c0.1,0,0.2,0.1,0.1,0.2c-0.5,3.7-1,7.8-0.2,11.4
								c0.2,0.7,0.4,1.3,0.8,1.9c0.3,0.4,0.7,0.7,1.1,0.8c0.4,0.1,0.7,0.1,1,0c0.5-0.2,0.9-0.8,1.2-1.5c0-0.1,0.1-0.1,0.2-0.1
								C312.7,564.4,312.8,564.4,312.7,564.5L312.7,564.5z"/>
						</g>
						<g>
							<path class="st6" d="M357.7,365.1c-16,34.7-20.1,59.8-20.1,59.8c-1.2,7.6-2.6,18.5-3.3,31.9c-4,11.3-7.9,22.9-11.8,34.6
								c-4.5,13.5-8.7,26.9-12.8,40.1c3.1,2.2,6.3,4.5,9.4,6.7c4.3-6.9,10.7-17.3,18.3-30c14.4-23.9,21.7-35.8,23.1-39
								c14.7-32.7,7.8-40.1,16.9-71c2.4-8.2,4.8-18,4.8-26.7c0-5.3-2-9.7-4.9-14c-1.2-1.8-2.5-2.9-4-3.4c-2.3-0.8-4.4-0.1-5.4,0.2
								C361.9,356.3,358.2,363.9,357.7,365.1z"/>
							<path class="st8" d="M333.3,454.1c9.8-0.6,19.6-1.3,29.4-1.9c2.1-24.3,4.1-48.7,6.2-73c-0.3-2-2.3-13.8-13-20.4
								c-5.3-3.3-10.6-4-13.5-4.1c-4.6,13.1-9.4,31-11,52.7C330,425.8,331.3,441.7,333.3,454.1z"/>
							<path class="st9" d="M329.8,440.3c6.5,0,13.3-0.2,20.3-0.5c10.9-0.5,21.2-1.5,30.9-2.7c-0.7,4.7-1.5,9.4-2.2,14.1
								c-7.5,1.9-16.6,3.5-27,4.1c-7.5,0.4-14.3,0.2-20.3-0.3C331,450.1,330.4,445.2,329.8,440.3z"/>
						</g>
						<path class="st6" d="M362.1,362.6c0.2,19.2,19.2,33.7,37.6,33.4c19-0.3,37.5-16.2,36.6-34.5c-0.8-17.2-18.2-26.9-19.5-27.6
							c-3.2-1.9-13.3-7.1-25.5-4.6C376.2,332.2,362,345.9,362.1,362.6z"/>
						<path class="st8" d="M457.2,571.8c-0.4-19.5-0.8-39-1.3-58.5c-1.3-59-1.9-83.4,1-117.8c0.8-9.6,1.7-17.5,2.3-22.5
							c0.2-2.4,0.3-7.1-2-12.4c-2.8-6.6-7.6-10.2-9.6-11.5c-10.2-5.3-20.3-10.7-30.5-16c-1-0.5-2-1-3-1.5c-1.6-0.9-3-1.8-4.2-2.6
							c-0.2,1.2-0.5,2.7-1,4.5c0,0-1.6,5.2-5.3,9.9c-6.4,8.1-17.2,11.2-18.9,11.7c-1.4,4-2.8,8.6-3.9,13.6c-0.6,2.8-1.1,5.6-1.5,8.1
							c-0.5-6.9-1-13.8-1.4-20.7c-1.2-1.2-2.8-3-3.8-5.6c-2.9-7,0.5-13.4,1.2-14.8c-6.6,4.2-12.6,6.9-16.6,8.7
							c-5.8,2.7-11.1,4.7-14.1,7.3c-1.4,1.2-2.3,2.5-2.5,4.2c-0.1,0.8,0,1.5,0.1,1.9c1.7,22,2.7,45.5,2.8,70.3
							c0.1,21.3-0.6,41.7-1.7,60.9c-1.5,28.1-3,56.2-4.5,84.3C378.2,572.8,417.7,572.3,457.2,571.8z"/>
						<g>
							<path class="st9" d="M377.8,356.1c3.2,19.8,3.3,40.1,1.1,60c0,0-0.1,0.6-0.1,0.6l-0.5-0.1c-3-0.4-5.9-0.7-8.9-1.2
								c3,0,6,0.1,9,0.1c0,0-0.6,0.5-0.6,0.5C378.5,396.3,378.3,375.8,377.8,356.1L377.8,356.1z"/>
						</g>
						<path class="st9" d="M373.2,405.6c-0.3,0.5-0.3,1.1-0.1,1.6c0.3,0.8,1.2,1.1,1.8,0.9c0.5-0.2,1-0.7,1-1.4
							c0.1-0.8-0.5-1.6-1.1-1.8C374.3,404.7,373.5,404.9,373.2,405.6z"/>
						<path class="st9" d="M373.2,390.1c-0.3,0.5-0.3,1.1-0.1,1.6c0.3,0.8,1.2,1.1,1.8,0.9c0.5-0.2,1-0.7,1-1.4
							c0.1-0.8-0.5-1.6-1.1-1.8C374.3,389.2,373.6,389.5,373.2,390.1z"/>
						<path class="st9" d="M373.4,374.1c-0.3,0.5-0.3,1.1-0.1,1.6c0.3,0.8,1.2,1.1,1.8,0.9c0.5-0.2,1-0.7,1-1.4
							c0.1-0.8-0.5-1.6-1.1-1.8C374.5,373.3,373.8,373.5,373.4,374.1z"/>
						<path class="st10" d="M354.7,348.4c0.7-5.8,4.9-6.1,6.2-5.6c1.4-2.7,3.6-3.9,5.9-2.7c0.5-2,4.3-3.3,5.4-2.3
							c-0.6,9.4-2.4,100.1,5.9,133.8c0.4,3.1-18.1,11.9-24.5,5.9C353,473.2,348.8,374.2,354.7,348.4z"/>
						<path class="st6" d="M430.3,443.9c-12.4-8.4-24.7-16.9-37.1-25.3c-1.6,2.4-3.1,4.8-4.7,7.2c-4-4.6-8-9.5-12.1-14.9
							c-6.4-8.5-12-16.7-16.7-24.5c-2,0.5-4.8,0.9-8.1,0.7c-2.3-0.1-4.3-0.6-5.9-1c6.2,20.5,17.2,50.6,34.7,72
							c13.7,16.8,21.2,15.8,23.1,15.3c2.8-0.6,4.6-2.4,7.7-5.8C416.1,462.2,422.8,454.3,430.3,443.9z"/>
						<path class="st11" d="M427.3,451.7c-5.4-3.5-10.7-7.1-16.1-10.7c-7.9-5.3-15.7-10.5-23.4-15.8c7.1-15.5,12.2-28.1,15.6-36.6
							c4.5-11.4,8.3-22,18-33.1c8.2-9.5,13-10.6,16.2-10.5c7.1,0.2,13.1,6.7,14.7,8.5c0,0,3.2,3.5,5.1,7.6
							c5.5,11.8-1.8,32.5-17.4,65C437,432.6,432.7,441.4,427.3,451.7z"/>
						<path class="st9" d="M436,437.8c-5.6-3.2-11.5-6.8-17.6-10.9c-9.3-6.3-17.5-12.7-24.6-18.8c-2.5,5.2-4.9,10.4-7.4,15.7
							c4.8,5.4,11.6,11.8,20.5,17.9c7.5,5.1,14.6,8.6,20.5,11.1C430.3,447.8,433.1,442.8,436,437.8z"/>
						<path class="st9" d="M377.8,356.1c-1.2-1.3-3.4-4.1-4.4-8.4c-1.3-5.9,1.1-10.4,1.8-11.9c-0.9,0.5-2.1,1-2.9,1.5
							c-1.1,0.4-1.6,4.2-1.9,5.4c-0.8,3.9-0.2,5,0.2,15.3c0.1,3,0.2,5.3,0.8,5.4c0.4,0.1,0.7-1.4,2.5-3.3c0.7-0.7,1-1.1,1.5-1.5
							c0.9-0.6,1.6-0.9,2.1-1.8C377.7,356.5,377.7,356.3,377.8,356.1z"/>
						<g>
							<path class="st6" d="M373.9,342.7c10.6,9.3,39.2-10.3,38.2-11c-6.7-4.8-5.8-16.5-4-26.6c0.7-3.9,1.5-7.6,2-10.6
								c-6.7-2.5-24.7-2.7-32.5,10c-2.9,4.8-4.4,11.4-3.3,20.4c0.7,1.6,1.1,3.2,1.2,4.7c0,0,0,0.1,0,0.1
								C376.1,336,373.1,341.3,373.9,342.7z"/>
							<path class="st7" d="M374.3,325c0.7,1.6,1.1,3.2,1.2,4.7c0,0,0,0.1,0,0.1c1.2-0.3,2.8-0.6,4.7-1.2c1.5-0.4,3.7-1.2,6.3-2.4
								c3.5-1.6,6.4-3,8.6-6c1.1-1.4,1.5-2.6,2.4-4.7c1-2.4,2.2-6,2.7-10.7c-6.7-5-15.3-5.6-20.9-1.7c-0.6,0.4-1.2,0.9-1.7,1.4
								C374.6,309.3,373.2,316,374.3,325z"/>
							<path class="st6" d="M358.9,286.1c0,0.1,0,0.3,0,0.4c0.1,0.7,0.2,1.4,0.5,2.1c0,0,0.2,0.5,0.9,2.5c0.4,1.1,0.5,6.2,0.2,13.4
								c0,1.2,0,3,0.4,5.4c0.4,2.8,1.1,7.5,4.3,12.2c0.7,1.1,1.9,2.6,3.5,4.2c0.6,0.6,1.5,1,2.4,1c0.8,0,1.8-0.1,2.8-0.2
								c0.2,0,0.5-0.1,1-0.2c2.8-0.4,5.9-1,9.2-2.1c2.1-0.6,4.6-1.3,6.3-2c4-1.6,6.9-5.1,7.9-9.2c0.8-2.5,1.1-5.1,1.9-7.6
								c0.3-1.6,0.6-3.2,1-4.7c0.1-0.1,0.1-0.2,0.2-0.2c0.4-0.2,0.5,0,1-0.1c4.9-0.5,8.3-6.6,9.3-8.2c4-7,6.1-21.8-3.1-30.9
								c-5.9-5.8-13.5-6.2-17.6-6.6c-6-0.5-31.3,1.7-31.4,23.2c0,1.7-0.1,3.4-0.5,5.1c0,0.2-0.1,0.4-0.1,0.7c0,0.1,0,0.2-0.1,0.3
								C358.9,285,358.9,285.6,358.9,286.1z"/>
							<path d="M403.3,290.7c-1.8,1.2-1,3.1-1.1,3.6c-0.5,0.4-2.2,0.8-2.8,1.3c0-1.5,0.1-3.1,0.1-4.6c-0.1-1.9-0.6-3.2-1.1-4
								c-0.7-1-1.3-1.3-2.8-2.9c0,0-1.2-1.2-2.2-2.7c-2.7-4-3.7-8.1-4-9.6c-0.2-0.9-0.3-1.7-0.4-2.2c-1.1-0.1-2.7-0.1-4.7-0.1
								c-2.9,0.1-5,0.4-5.8,0.5c-8.1,1.1-12.8-2.5-16.2,0c-1.3,0.9-2.8,3-2.7,8.2c-2.6-7.7-1.1-12.7-0.2-14.8
								c5.4-13.4,28.3-18.3,41.7-10.2c3.8,2.3,6.2,5.2,7.5,7.1c3.8,1.1,5.9,3,7,4.2c5.2,5.7,4.2,14.9,3.3,23.1
								c-0.1,1.3-0.4,2.5-0.4,2.5c-0.5,2.4-1.3,4.2-1.5,4.7c-1.8,4.2-4.8,16.7-6.8,20.8c-0.2,0.5-0.7,1.4-1.7,1.9
								c-0.7,0.3-1.4,0.3-1.8,0.2c-0.3-6.5,0.3-11.1,1-14.1c0,0,0-0.1,0-0.1c0.2-0.9,0.9-4,1.3-6.8c0.5-3.6,0.8-5.4,0.2-6
								C408.1,289.3,405.2,289.4,403.3,290.7z"/>
							<path id="XMLID_00000110463430713220716620000000389284123539605123_" class="st10" d="M421.7,279.3
								c-34.6-19.8-54.6-19-61.3-18.8c-1.2,0.2-3,2.1-3,5.7c-1.7,2-2.4,5-0.8,6.4c0,0,0,0.1-0.1,0.2c-0.2,0.8,0.5,1.7,1.5,1.8
								c7.3,1.1,25.4-3.4,58,17.4c0.7,0.6,1.8,0.5,2.4-0.1c0.6-0.7,1.2-1.8,1.3-3.5c2.1-0.9,2.4-4.5,1.9-5.5
								C422,281.2,422.3,279.7,421.7,279.3z"/>
							<path class="st6" d="M402.2,291.2c0.8-5.7,3.4-6.8,3.4-6.8c2-0.7,4.7,0.3,5.9,2.2c1,1.5,0.8,3.1,0.7,4.2
								c-0.2,2.1-1.2,3.6-2.5,5.6c-1,1.5-1.5,2.2-2.4,2.9c-1.8,1.3-3.8,1.5-4.8,1.5c-0.1-0.1-0.4-0.2-0.6-0.5c-1-1.1-0.4-2.9,0.1-8
								C402,292.4,402.1,291.9,402.2,291.2z"/>
						</g>
						<path class="st12" d="M376,314.2c0.2,0.6-3.9,3.5-7.5,2.4c-1.5-0.5-2.9-1.6-2.7-2c0.1-0.4,1.3-0.2,2.9,0
							C373.6,314.7,375.9,313.7,376,314.2z"/>
						<g>
							<path class="st13" d="M367.8,292.9c-1.5-3-4.3-3.9-5.6-3.1c-0.9,0.6-1.3,2.1-1.1,3.6C362.5,296.3,365.6,295.4,367.8,292.9z"
								/>
							
								<ellipse transform="matrix(0.9877 -0.1562 0.1562 0.9877 -41.2176 60.355)" class="st14" cx="363.3" cy="292.4" rx="2" ry="2.7"/>
							<ellipse transform="matrix(0.9877 -0.1562 0.1562 0.9877 -41.2299 60.3164)" cx="363.1" cy="292.4" rx="1.2" ry="1.4"/>
							
								<ellipse transform="matrix(0.947 -0.3213 0.3213 0.947 -74.3861 132.3534)" class="st13" cx="363.8" cy="291.6" rx="0.4" ry="0.4"/>
							<path d="M361,293.4c-0.1-1.4,0.4-2.6,1.3-3.2c1.5-0.8,3.3,0.4,3.7,0.8c0.9,0.6,1.4,1.4,1.6,1.9c-0.2-0.5-0.6-1.6-1.7-2.4
								c-0.2-0.2-2.6-2-4.2-0.9C360.9,290.3,360.5,291.8,361,293.4z"/>
						</g>
						<path class="st12" d="M366.2,307.2c-0.1,0.2,0.9,1.5,2.3,1.8c2.3,0.6,4.7-1.6,4.6-1.9c-0.1-0.2-1.7,1.1-4.1,0.8
							C367.3,307.9,366.3,307.1,366.2,307.2z"/>
						<g>
							<path d="M387.4,286.8c-0.7-0.9-1.7-1.9-3.1-2.8c0,0,0,0,0,0c-0.8-0.5-1.7-0.8-2.7-0.7c-2.3,0.1-4.6,0.2-6.8,0.3
								c-0.2,0.2-0.4,0.5-0.6,1.1c-0.1,0.4-0.1,0.8-0.1,1c2.7-0.1,5.3-0.2,8-0.4c0.6,0,1.2,0.1,1.7,0.3
								C385,285.9,386.2,286.4,387.4,286.8z"/>
						</g>
						<g>
							<path d="M358.9,286.1c0.3-0.1,0.6-0.1,0.8-0.1l7.6,0.2c0-0.2,0-0.6-0.1-1c-0.2-0.5-0.4-0.9-0.6-1.1c-2.2-0.1-4.4-0.1-6.5-0.2
								c-0.4,0-0.7,0-1.1,0.1c0,0.1,0,0.2-0.1,0.3C358.9,285,358.9,285.6,358.9,286.1z"/>
						</g>
						<g>
							<path class="st13" d="M375.1,292.9c0.3,0.3,0.7,0.6,1.3,0.9c1.3,0.6,2.6,0.5,3.3,0.5c2.4-0.2,4.2-1.6,4.8-2.2
								c-0.4-0.6-1.6-2.6-4-3.2c-0.7-0.2-1.9-0.5-3.2,0.1C375.2,290,375.1,292.8,375.1,292.9z"/>
							<g>
								<path class="st14" d="M376.7,291.9c0.2,1.4,1.3,2.4,2.5,2.3s2-1.4,1.8-2.9s-1.3-2.4-2.5-2.3S376.6,290.5,376.7,291.9z"/>
								<path d="M377.3,291.9c0.1,0.7,0.7,1.2,1.3,1.1s1-0.7,0.9-1.4s-0.7-1.2-1.3-1.1C377.6,290.5,377.2,291.2,377.3,291.9z"/>
								<path class="st13" d="M378.7,290.9c0,0.2,0.2,0.4,0.4,0.4s0.3-0.2,0.3-0.5s-0.2-0.4-0.4-0.4
									C378.8,290.5,378.7,290.7,378.7,290.9z"/>
								<path d="M375.1,292.9c0.1,0,0.5-2.6,2.2-3.5c1.9-1,4.8,0.7,7.2,2.6c-1.7-3.5-5.3-4.8-7.2-3.7
									C375.1,289.5,374.9,292.9,375.1,292.9z"/>
							</g>
						</g>
						<g>
							<path d="M403.7,303.7c0.7,0,1.1-1.5,1-2.8l-0.5,0.1c0,1.5-0.4,2.2-0.5,2.2c-0.2,0-0.6-0.8-0.6-2.3c0-1.5,0.4-2.3,0.5-2.3
								c0.1-0.1,0.1-0.3,0-0.5c-0.7,0-1.1,1.4-1,2.8C402.6,302.3,402.9,303.7,403.7,303.7z"/>
						</g>
						<path class="st9" d="M410.8,328.8c-0.6-0.4-1.4-0.1-1.6,0.6c-1.2,4.7-4.9,15.2-15.1,21.6c-3.4,2.2-6.8,3.4-9.6,4
							c1.4,4.1,2.3,7.4,2.8,9.9c0.4,1.7,0.6,2.8,1.4,3.2c1.8,0.8,4.8-2.6,7.6-5.7c3.4-3.8,7.8-8.8,13-14.8c1.5-2.1,3-4.4,4.5-7
							c1.5-2.6,2.8-5.1,3.8-7.4c-1.4-0.9-2.9-1.8-4.3-2.7C412.5,329.9,411.7,329.3,410.8,328.8z"/>
						<g>
							<path d="M384,350.5c6,0.2,10.7-4.1,14.6-7.7c3-2.8,7.2-7.3,10.9-13.9c-0.1-0.2-0.1-0.4-0.3-0.5c-0.2-0.3-0.3-0.6-0.5-0.8
								c-4.4,8.2-9.9,13.3-13.3,16.1c-4.7,3.9-9.6,6.8-14,5c-3.9-1.5-6.2-6.7-6.2-12.9c-0.2,0.2-0.3,0.5-0.5,0.8
								c-0.1,0.3-0.3,0.6-0.3,0.9c0.1,1,0.7,9.9,6.4,12.4C382.1,350.4,383.2,350.5,384,350.5z"/>
						</g>
					</g>
					<g>
						<g>
							<path class="st6" d="M351.1,402.7c-3-5.5-4.9-10.3-6.2-14c-1.9-5.5-2.8-10.2-3.3-12.7c-0.2-1.2-0.4-2.3-0.6-3.5
								c-1-6.4-0.1-11.5,0.7-15.4c0.8-4.4,2.3-11.6,7.7-18.5c0.5-0.6,1-1.2,1.4-1.7c0.9-1,2.6-0.4,2.6,1c0,1.1-0.1,2.2-0.4,3.4
								c-0.8,3.1-2.2,3.7-3.4,7.4c-0.4,1.3-1.1,3.8-0.7,6.9c0.1,1,0.5,3.8,2.5,6.5c0.6,0.9,1.3,1.5,1.8,1.9c0.9-3,1.1-5.5,1.2-7.1
								c0.1-1.7-0.1-2.9,0.1-5.5c0.2-2.8,0.4-4.7,1.1-4.9c0.9-0.2,2.6,2.1,3.4,4.4c0.8,2.5,0.2,3.7,0.4,8c0.1,0.8,0.2,2.1,0.6,4.6
								c1.1,7.7,1.5,8.4,1.4,10.6c-0.1,1.8-0.6,4.5-2.5,7.6c0,0.5-0.1,0.9-0.1,1.4c0,0,0,0,0,0c0,0.4-0.1,1.3,0,1.4
								c0.1,0.6,3.5,6.1,8.3,13.6C361.9,399.6,356.5,401.1,351.1,402.7z"/>
							<path class="st6" d="M341.5,370c0-0.1-0.3-0.3-0.5-0.8c-0.7-1.7-0.2-4.3,0-16.6c0-0.2,0.2-2.9,0.5-8.4
								c0.2-3.1,0.4-5.8,1.7-9.1c0-0.1,0.1-0.2,0.1-0.3c0.2-0.6,0.9-0.8,1.4-0.6c0.3,0.2,0.6,0.3,0.8,0.5c2.5,1.9,3,6.2,1.6,10.9
								c0,0,0,0,0,0.1c0,0,0,0,0,0.1c-1.4,8,0.9,16.8,0.9,16.8c2.1,7.9,4.5,10.1,3.3,11.2C349.7,375.5,344,373.8,341.5,370z"/>
							<path class="st6" d="M342.2,376.7c-2.4-6-3.5-20.3-3.5-21.8c0-0.7,0-1.5-0.2-2.6c0,0-0.6-5.3,0.3-10.5c0-0.1,0.1-0.2,0.2-0.4
								c0.2-0.5,0.8-0.7,1.3-0.5c0.5,0.2,0.8,0.4,0.9,0.6c1.5,1.7,2.1,10.5,2.1,11.4c0,0,0.2,3.1,0.7,5.8c1.7,10,9.7,12.7,9.5,18.6
								c-0.1,2.4-1.5,5.8-8.1,9.8C344.4,383.6,343.3,380.2,342.2,376.7z"/>
						</g>
					</g>
				</g>
			</g>
		</g>
		<g style="clip-path:url(#SVGID_00000008847281984744709850000012500248319515978881_);">
			<polygon class="st15" points="481,198.2 481,198.2 301.6,199.1 303.5,494.7 311.9,494.8 462.1,199.9 			"/>
			<polygon class="st15" points="481,495.4 481,401.8 432.1,495.2 			"/>
			<polygon class="st15" points="325.7,494.8 341,494.9 347.3,494.9 481,232.4 481,198.2 			"/>
			<polygon class="st15" points="415.6,495.2 417.6,495.2 481,370.8 481,266.2 361.2,495 			"/>
			<polygon class="st15" points="481,198.2 481,198.2 481,198.2 			"/>
			<polygon class="st15" points="481,198.2 462.1,199.9 311.9,494.8 325.7,494.8 481,198.2 			"/>
			<polygon class="st15" points="481,198.2 462.1,199.9 311.9,494.8 325.7,494.8 481,198.2 			"/>
			<polygon class="st15" points="357.2,494.9 361.2,495 481,266.2 481,232.4 347.3,494.9 			"/>
			<polygon class="st15" points="357.2,494.9 361.2,495 481,266.2 481,232.4 347.3,494.9 			"/>
			<polygon class="st15" points="430.2,495.2 432.1,495.2 481,401.8 481,370.8 417.6,495.2 			"/>
			<polygon class="st15" points="430.2,495.2 432.1,495.2 481,401.8 481,370.8 417.6,495.2 			"/>
		</g>
		
			<polygon style="clip-path:url(#SVGID_00000008847281984744709850000012500248319515978881_);fill:none;stroke:#3F2E20;stroke-width:2.9318;stroke-miterlimit:10;" points="
			481,495.4 303.5,494.7 301.6,199.1 481,198.2 		"/>
		<g style="clip-path:url(#SVGID_00000008847281984744709850000012500248319515978881_);">
			<g>
				<g>
					<g>
						<path class="st6" d="M302.3,533.5c0.5,0.9,1,1.8,1.4,2.8c1.3,2.6,2.5,5.1,3.5,7.8c1.7,5.2,2.9,10.8,3.3,16.2
							c0.1,1.5-4.9,10-6.1,11.2c-1.2,1.2-5.1,3-6.5,2.1c-0.2,0.5-3.6,1.9-2.7-2.1c-0.7-0.4-2.9-1.3,2.9-7.1l-0.1,0.1
							c-0.6-1.5-0.7-3.6-0.9-4.7c-0.5-2.6-0.8-5.5-2.2-7.8c-2.3-3.7-3.4-8.4-3.4-14.9c-0.2-1.9,5.6-8.2,7.4-7.9c0.2,0.4,0.7,0.7,1,1
							C300.8,531.1,301.6,532.3,302.3,533.5z"/>
						<path class="st7" d="M297.7,564.5c0.3,0.7,0.7,1.4,1.4,1.7c0.4,0.2,0.9,0.2,1.3,0c0.5-0.2,1-0.5,1.3-0.9
							c0.4-0.6,0.6-1.3,0.8-2c0.9-3.7,0.3-7.8-0.2-11.5c0-0.1-0.1-0.2-0.2-0.1c-0.1,0-0.2,0.1-0.1,0.2c0.5,3.7,1,7.8,0.2,11.4
							c-0.2,0.7-0.4,1.3-0.8,1.9c-0.3,0.4-0.7,0.7-1.1,0.8c-0.4,0.1-0.7,0.1-1,0c-0.5-0.2-0.9-0.8-1.2-1.5c0-0.1-0.1-0.1-0.2-0.1
							C297.7,564.4,297.7,564.4,297.7,564.5L297.7,564.5z"/>
					</g>
					<g>
						<path class="st6" d="M252.7,365.1c16,34.7,20.1,59.8,20.1,59.8c1.2,7.6,2.6,18.5,3.3,31.9c4,11.3,7.9,22.9,11.8,34.6
							c4.5,13.5,8.7,26.9,12.8,40.1c-3.1,2.2-6.3,4.5-9.4,6.7c-4.3-6.9-10.7-17.3-18.3-30c-14.4-23.9-21.7-35.8-23.1-39
							c-14.7-32.7-7.8-40.1-16.9-71c-2.4-8.2-4.8-18-4.8-26.7c0-5.3,2-9.7,4.9-14c1.2-1.8,2.5-2.9,4-3.4c2.3-0.8,4.4-0.1,5.4,0.2
							C248.6,356.3,252.2,363.9,252.7,365.1z"/>
						<path class="st8" d="M277.2,454.1c-9.8-0.6-19.6-1.3-29.4-1.9c-2.1-24.3-4.1-48.7-6.2-73c0.3-2,2.3-13.8,13-20.4
							c5.3-3.3,10.6-4,13.5-4.1c4.6,13.1,9.4,31,11,52.7C280.5,425.8,279.1,441.7,277.2,454.1z"/>
						<path class="st9" d="M280.6,440.3c-6.5,0-13.3-0.2-20.3-0.5c-10.9-0.5-21.2-1.5-30.9-2.7c0.7,4.7,1.5,9.4,2.2,14.1
							c7.5,1.9,16.6,3.5,27,4.1c7.5,0.4,14.3,0.2,20.3-0.3C279.5,450.1,280.1,445.2,280.6,440.3z"/>
					</g>
					<path class="st6" d="M248.4,362.6c-0.2,19.2-19.2,33.7-37.6,33.4c-19-0.3-37.5-16.2-36.6-34.5c0.8-17.2,18.2-26.9,19.5-27.6
						c3.2-1.9,13.3-7.1,25.5-4.6C234.2,332.2,248.5,345.9,248.4,362.6z"/>
					<path class="st8" d="M153.3,571.8c0.4-19.5,0.8-39,1.3-58.5c1.3-59,1.9-83.4-1-117.8c-0.8-9.6-1.7-17.5-2.3-22.5
						c-0.2-2.4-0.3-7.1,2-12.4c2.8-6.6,7.6-10.2,9.6-11.5c10.2-5.3,20.3-10.7,30.5-16c1-0.5,2-1,3-1.5c1.6-0.9,3-1.8,4.2-2.6
						c0.2,1.2,0.5,2.7,1,4.5c0,0,1.6,5.2,5.3,9.9c6.4,8.1,17.2,11.2,18.9,11.7c1.4,4,2.8,8.6,3.9,13.6c0.6,2.8,1.1,5.6,1.5,8.1
						c0.5-6.9,1-13.8,1.4-20.7c1.2-1.2,2.8-3,3.8-5.6c2.9-7-0.5-13.4-1.2-14.8c6.6,4.2,12.6,6.9,16.6,8.7c5.8,2.7,11.1,4.7,14.1,7.3
						c1.4,1.2,2.3,2.5,2.5,4.2c0.1,0.8,0,1.5-0.1,1.9c-1.7,22-2.7,45.5-2.8,70.3c-0.1,21.3,0.6,41.7,1.7,60.9
						c1.5,28.1,3,56.2,4.5,84.3C232.3,572.8,192.8,572.3,153.3,571.8z"/>
					<g>
						<path class="st9" d="M232.7,356.1c-0.5,19.7-0.8,40.2-0.1,59.9c0,0-0.6-0.5-0.6-0.5c3,0,6-0.2,9-0.1c-3,0.5-5.9,0.8-8.9,1.2
							c0,0-0.5,0.1-0.5,0.1s-0.1-0.6-0.1-0.6C229.4,396.2,229.5,375.9,232.7,356.1L232.7,356.1z"/>
					</g>
					<path class="st9" d="M237.3,405.6c0.3,0.5,0.3,1.1,0.1,1.6c-0.3,0.8-1.2,1.1-1.8,0.9c-0.5-0.2-1-0.7-1-1.4
						c-0.1-0.8,0.5-1.6,1.1-1.8C236.2,404.7,236.9,404.9,237.3,405.6z"/>
					<path class="st9" d="M237.3,390.1c0.3,0.5,0.3,1.1,0.1,1.6c-0.3,0.8-1.2,1.1-1.8,0.9c-0.5-0.2-1-0.7-1-1.4
						c-0.1-0.8,0.5-1.6,1.1-1.8C236.2,389.2,236.9,389.5,237.3,390.1z"/>
					<path class="st9" d="M237,374.1c0.3,0.5,0.3,1.1,0.1,1.6c-0.3,0.8-1.2,1.1-1.8,0.9c-0.5-0.2-1-0.7-1-1.4
						c-0.1-0.8,0.5-1.6,1.1-1.8C235.9,373.3,236.6,373.5,237,374.1z"/>
					<path class="st10" d="M255.8,348.4c-0.7-5.8-4.9-6.1-6.2-5.6c-1.4-2.7-3.6-3.9-5.9-2.7c-0.5-2-4.3-3.3-5.4-2.3
						c0.6,9.4,2.4,100.1-5.9,133.8c-0.4,3.1,18.1,11.9,24.5,5.9C257.4,473.2,261.6,374.2,255.8,348.4z"/>
					<path class="st6" d="M180.1,443.9c12.4-8.4,24.7-16.9,37.1-25.3c1.6,2.4,3.1,4.8,4.7,7.2c4-4.6,8-9.5,12.1-14.9
						c6.4-8.5,12-16.7,16.7-24.5c2,0.5,4.8,0.9,8.1,0.7c2.3-0.1,4.3-0.6,5.9-1c-6.2,20.5-17.2,50.6-34.7,72
						c-13.7,16.8-21.2,15.8-23.1,15.3c-2.8-0.6-4.6-2.4-7.7-5.8C194.3,462.2,187.6,454.3,180.1,443.9z"/>
					<path class="st11" d="M183.2,451.7c5.4-3.5,10.7-7.1,16.1-10.7c7.9-5.3,15.7-10.5,23.4-15.8c-7.1-15.5-12.2-28.1-15.6-36.6
						c-4.5-11.4-8.3-22-18-33.1c-8.2-9.5-13-10.6-16.2-10.5c-7.1,0.2-13.1,6.7-14.7,8.5c0,0-3.2,3.5-5.1,7.6
						c-5.5,11.8,1.8,32.5,17.4,65C173.5,432.6,177.8,441.4,183.2,451.7z"/>
					<path class="st9" d="M174.5,437.8c5.6-3.2,11.5-6.8,17.6-10.9c9.3-6.3,17.5-12.7,24.6-18.8c2.5,5.2,4.9,10.4,7.4,15.7
						c-4.8,5.4-11.6,11.8-20.5,17.9c-7.5,5.1-14.6,8.6-20.5,11.1C180.2,447.8,177.3,442.8,174.5,437.8z"/>
					<path class="st9" d="M232.7,356.1c1.2-1.3,3.4-4.1,4.4-8.4c1.3-5.9-1.1-10.4-1.8-11.9c0.9,0.5,2.1,1,2.9,1.5
						c1.1,0.4,1.6,4.2,1.9,5.4c0.8,3.9,0.2,5-0.2,15.3c-0.1,3-0.2,5.3-0.8,5.4c-0.4,0.1-0.7-1.4-2.5-3.3c-0.7-0.7-1-1.1-1.5-1.5
						c-0.9-0.6-1.6-0.9-2.1-1.8C232.8,356.5,232.7,356.3,232.7,356.1z"/>
					<g>
						<path class="st6" d="M236.6,342.7c-10.6,9.3-39.2-10.3-38.2-11c6.7-4.8,5.8-16.5,4-26.6c-0.7-3.9-1.5-7.6-2-10.6
							c6.7-2.5,24.7-2.7,32.5,10c2.9,4.8,4.4,11.4,3.3,20.4c-0.7,1.6-1.1,3.2-1.2,4.7c0,0,0,0.1,0,0.1
							C234.4,336,237.3,341.3,236.6,342.7z"/>
						<path class="st7" d="M236.2,325c-0.7,1.6-1.1,3.2-1.2,4.7c0,0,0,0.1,0,0.1c-1.2-0.3-2.8-0.6-4.7-1.2c-1.5-0.4-3.7-1.2-6.3-2.4
							c-3.5-1.6-6.4-3-8.6-6c-1.1-1.4-1.5-2.6-2.4-4.7c-1-2.4-2.2-6-2.7-10.7c6.7-5,15.3-5.6,20.9-1.7c0.6,0.4,1.2,0.9,1.7,1.4
							C235.8,309.3,237.3,316,236.2,325z"/>
						<path class="st6" d="M251.6,286.1c0,0.1,0,0.3,0,0.4c-0.1,0.7-0.2,1.4-0.5,2.1c0,0-0.2,0.5-0.9,2.5c-0.4,1.1-0.5,6.2-0.2,13.4
							c0,1.2,0,3-0.4,5.4c-0.4,2.8-1.1,7.5-4.3,12.2c-0.7,1.1-1.9,2.6-3.5,4.2c-0.6,0.6-1.5,1-2.4,1c-0.8,0-1.8-0.1-2.8-0.2
							c-0.2,0-0.5-0.1-1-0.2c-2.8-0.4-5.9-1-9.2-2.1c-2.1-0.6-4.6-1.3-6.3-2c-4-1.6-6.9-5.1-7.9-9.2c-0.8-2.5-1.1-5.1-1.9-7.6
							c-0.3-1.6-0.6-3.2-1-4.7c-0.1-0.1-0.1-0.2-0.2-0.2c-0.4-0.2-0.5,0-1-0.1c-4.9-0.5-8.3-6.6-9.3-8.2c-4-7-6.1-21.8,3.1-30.9
							c5.9-5.8,13.5-6.2,17.6-6.6c6-0.5,31.3,1.7,31.4,23.2c0,1.7,0.1,3.4,0.5,5.1c0,0.2,0.1,0.4,0.1,0.7c0,0.1,0,0.2,0.1,0.3
							C251.6,285,251.6,285.6,251.6,286.1z"/>
						<path d="M207.1,290.7c1.8,1.2,1,3.1,1.1,3.6c0.5,0.4,2.2,0.8,2.8,1.3c0-1.5-0.1-3.1-0.1-4.6c0.1-1.9,0.6-3.2,1.1-4
							c0.7-1,1.3-1.3,2.8-2.9c0,0,1.2-1.2,2.2-2.7c2.7-4,3.7-8.1,4-9.6c0.2-0.9,0.3-1.7,0.4-2.2c1.1-0.1,2.7-0.1,4.7-0.1
							c2.9,0.1,5,0.4,5.8,0.5c8.1,1.1,12.8-2.5,16.2,0c1.3,0.9,2.8,3,2.7,8.2c2.6-7.7,1.1-12.7,0.2-14.8
							c-5.4-13.4-28.3-18.3-41.7-10.2c-3.8,2.3-6.2,5.2-7.5,7.1c-3.8,1.1-5.9,3-7,4.2c-5.2,5.7-4.2,14.9-3.3,23.1
							c0.1,1.3,0.4,2.5,0.4,2.5c0.5,2.4,1.3,4.2,1.5,4.7c1.8,4.2,4.8,16.7,6.8,20.8c0.2,0.5,0.7,1.4,1.7,1.9
							c0.7,0.3,1.4,0.3,1.8,0.2c0.3-6.5-0.3-11.1-1-14.1c0,0,0-0.1,0-0.1c-0.2-0.9-0.9-4-1.3-6.8c-0.5-3.6-0.8-5.4-0.2-6
							C202.4,289.3,205.2,289.4,207.1,290.7z"/>
						<path id="XMLID_00000045593405012720841230000008713957240085881735_" class="st10" d="M188.8,279.3
							c34.6-19.8,54.6-19,61.3-18.8c1.2,0.2,3,2.1,3,5.7c1.7,2,2.4,5,0.8,6.4c0,0,0,0.1,0.1,0.2c0.2,0.8-0.5,1.7-1.5,1.8
							c-7.3,1.1-25.4-3.4-58,17.4c-0.7,0.6-1.8,0.5-2.4-0.1c-0.6-0.7-1.2-1.8-1.3-3.5c-2.1-0.9-2.4-4.5-1.9-5.5
							C188.4,281.2,188.2,279.7,188.8,279.3z"/>
						<path class="st6" d="M208.2,291.2c-0.8-5.7-3.4-6.8-3.4-6.8c-2-0.7-4.7,0.3-5.9,2.2c-1,1.5-0.8,3.1-0.7,4.2
							c0.2,2.1,1.2,3.6,2.5,5.6c1,1.5,1.5,2.2,2.4,2.9c1.8,1.3,3.8,1.5,4.8,1.5c0.1-0.1,0.4-0.2,0.6-0.5c1-1.1,0.4-2.9-0.1-8
							C208.5,292.4,208.3,291.9,208.2,291.2z"/>
					</g>
					<path class="st12" d="M234.4,314.2c-0.2,0.6,3.9,3.5,7.5,2.4c1.5-0.5,2.9-1.6,2.7-2c-0.1-0.4-1.3-0.2-2.9,0
						C236.9,314.7,234.6,313.7,234.4,314.2z"/>
					<g>
						<path class="st13" d="M242.7,292.9c1.5-3,4.3-3.9,5.6-3.1c0.9,0.6,1.3,2.1,1.1,3.6C248,296.3,244.8,295.4,242.7,292.9z"/>
						
							<ellipse transform="matrix(0.1562 -0.9877 0.9877 0.1562 -80.2692 490.7909)" class="st14" cx="247.1" cy="292.4" rx="2.7" ry="2"/>
						<ellipse transform="matrix(0.1562 -0.9877 0.9877 0.1562 -80.1115 491.0896)" cx="247.4" cy="292.4" rx="1.4" ry="1.2"/>
						
							<ellipse transform="matrix(0.3213 -0.947 0.947 0.3213 -108.7029 431.4417)" class="st13" cx="246.6" cy="291.6" rx="0.4" ry="0.4"/>
						<path d="M249.4,293.4c0.1-1.4-0.4-2.6-1.3-3.2c-1.5-0.8-3.3,0.4-3.7,0.8c-0.9,0.6-1.4,1.4-1.6,1.9c0.2-0.5,0.6-1.6,1.7-2.4
							c0.2-0.2,2.6-2,4.2-0.9C249.6,290.3,249.9,291.8,249.4,293.4z"/>
					</g>
					<path class="st12" d="M244.2,307.2c0.1,0.2-0.9,1.5-2.3,1.8c-2.3,0.6-4.7-1.6-4.6-1.9c0.1-0.2,1.7,1.1,4.1,0.8
						C243.1,307.9,244.1,307.1,244.2,307.2z"/>
					<g>
						<path d="M223.1,286.8c0.7-0.9,1.7-1.9,3.1-2.8c0,0,0,0,0,0c0.8-0.5,1.7-0.8,2.7-0.7c2.3,0.1,4.6,0.2,6.8,0.3
							c0.2,0.2,0.4,0.5,0.6,1.1c0.1,0.4,0.1,0.8,0.1,1c-2.7-0.1-5.3-0.2-8-0.4c-0.6,0-1.2,0.1-1.7,0.3
							C225.5,285.9,224.3,286.4,223.1,286.8z"/>
					</g>
					<g>
						<path d="M251.6,286.1c-0.3-0.1-0.6-0.1-0.8-0.1l-7.6,0.2c0-0.2,0-0.6,0.1-1c0.2-0.5,0.4-0.9,0.6-1.1c2.2-0.1,4.4-0.1,6.5-0.2
							c0.4,0,0.7,0,1.1,0.1c0,0.1,0,0.2,0.1,0.3C251.6,285,251.6,285.6,251.6,286.1z"/>
					</g>
					<g>
						<path class="st13" d="M235.4,292.9c-0.3,0.3-0.7,0.6-1.3,0.9c-1.3,0.6-2.6,0.5-3.3,0.5c-2.4-0.2-4.2-1.6-4.8-2.2
							c0.4-0.6,1.6-2.6,4-3.2c0.7-0.2,1.9-0.5,3.2,0.1C235.3,290,235.4,292.8,235.4,292.9z"/>
						<g>
							<path class="st14" d="M233.7,291.9c-0.2,1.4-1.3,2.4-2.5,2.3s-2-1.4-1.8-2.9c0.2-1.4,1.3-2.4,2.5-2.3
								S233.9,290.5,233.7,291.9z"/>
							<path d="M233.2,291.9c-0.1,0.7-0.7,1.2-1.3,1.1c-0.6-0.1-1-0.7-0.9-1.4c0.1-0.7,0.7-1.2,1.3-1.1
								C232.9,290.5,233.3,291.2,233.2,291.9z"/>
							<path class="st13" d="M231.7,290.9c0,0.2-0.2,0.4-0.4,0.4s-0.3-0.2-0.3-0.5s0.2-0.4,0.4-0.4
								C231.6,290.5,231.7,290.7,231.7,290.9z"/>
							<path d="M235.4,292.9c-0.1,0-0.5-2.6-2.2-3.5c-1.9-1-4.8,0.7-7.2,2.6c1.7-3.5,5.3-4.8,7.2-3.7
								C235.3,289.5,235.5,292.9,235.4,292.9z"/>
						</g>
					</g>
					<g>
						<path d="M206.8,303.7c-0.7,0-1.1-1.5-1-2.8l0.5,0.1c0,1.5,0.4,2.2,0.5,2.2c0.2,0,0.6-0.8,0.6-2.3c0-1.5-0.4-2.3-0.5-2.3
							c-0.1-0.1-0.1-0.3,0-0.5c0.7,0,1.1,1.4,1,2.8C207.9,302.3,207.5,303.7,206.8,303.7z"/>
					</g>
					<path class="st9" d="M199.6,328.8c0.6-0.4,1.4-0.1,1.6,0.6c1.2,4.7,4.9,15.2,15.1,21.6c3.4,2.2,6.8,3.4,9.6,4
						c-1.4,4.1-2.3,7.4-2.8,9.9c-0.4,1.7-0.6,2.8-1.4,3.2c-1.8,0.8-4.8-2.6-7.6-5.7c-3.4-3.8-7.8-8.8-13-14.8c-1.5-2.1-3-4.4-4.5-7
						c-1.5-2.6-2.8-5.1-3.8-7.4c1.4-0.9,2.9-1.8,4.3-2.7C197.9,329.9,198.8,329.3,199.6,328.8z"/>
					<g>
						<path d="M226.5,350.5c-6,0.2-10.7-4.1-14.6-7.7c-3-2.8-7.2-7.3-10.9-13.9c0.1-0.2,0.1-0.4,0.3-0.5c0.2-0.3,0.3-0.6,0.5-0.8
							c4.4,8.2,9.9,13.3,13.3,16.1c4.7,3.9,9.6,6.8,14,5c3.9-1.5,6.2-6.7,6.2-12.9c0.2,0.2,0.3,0.5,0.5,0.8c0.1,0.3,0.3,0.6,0.3,0.9
							c-0.1,1-0.7,9.9-6.4,12.4C228.4,350.4,227.3,350.5,226.5,350.5z"/>
					</g>
				</g>
				<g>
					<g>
						<path class="st6" d="M259.3,402.7c3-5.5,4.9-10.3,6.2-14c1.9-5.5,2.8-10.2,3.3-12.7c0.2-1.2,0.4-2.3,0.6-3.5
							c1-6.4,0.1-11.5-0.7-15.4c-0.8-4.4-2.3-11.6-7.7-18.5c-0.5-0.6-1-1.2-1.4-1.7c-0.9-1-2.6-0.4-2.6,1c0,1.1,0.1,2.2,0.4,3.4
							c0.8,3.1,2.2,3.7,3.4,7.4c0.4,1.3,1.1,3.8,0.7,6.9c-0.1,1-0.5,3.8-2.5,6.5c-0.6,0.9-1.3,1.5-1.8,1.9c-0.9-3-1.1-5.5-1.2-7.1
							c-0.1-1.7,0.1-2.9-0.1-5.5c-0.2-2.8-0.4-4.7-1.1-4.9c-0.9-0.2-2.6,2.1-3.4,4.4c-0.8,2.5-0.2,3.7-0.4,8
							c-0.1,0.8-0.2,2.1-0.6,4.6c-1.1,7.7-1.5,8.4-1.4,10.6c0.1,1.8,0.6,4.5,2.5,7.6c0,0.5,0.1,0.9,0.1,1.4c0,0,0,0,0,0
							c0,0.4,0.1,1.3,0,1.4c-0.1,0.6-3.5,6.1-8.3,13.6C248.6,399.6,254,401.1,259.3,402.7z"/>
						<path class="st6" d="M269,370c0-0.1,0.3-0.3,0.5-0.8c0.7-1.7,0.2-4.3,0-16.6c0-0.2-0.2-2.9-0.5-8.4c-0.2-3.1-0.4-5.8-1.7-9.1
							c0-0.1-0.1-0.2-0.1-0.3c-0.2-0.6-0.9-0.8-1.4-0.6c-0.3,0.2-0.6,0.3-0.8,0.5c-2.5,1.9-3,6.2-1.6,10.9c0,0,0,0,0,0.1
							c0,0,0,0,0,0.1c1.4,8-0.9,16.8-0.9,16.8c-2.1,7.9-4.5,10.1-3.3,11.2C260.7,375.5,266.5,373.8,269,370z"/>
						<path class="st6" d="M268.2,376.7c2.4-6,3.5-20.3,3.5-21.8c0-0.7,0-1.5,0.2-2.6c0,0,0.6-5.3-0.3-10.5c0-0.1-0.1-0.2-0.2-0.4
							c-0.2-0.5-0.8-0.7-1.3-0.5c-0.5,0.2-0.8,0.4-0.9,0.6c-1.5,1.7-2.1,10.5-2.1,11.4c0,0-0.2,3.1-0.7,5.8
							c-1.7,10-9.7,12.7-9.5,18.6c0.1,2.4,1.5,5.8,8.1,9.8C266.1,383.6,267.2,380.2,268.2,376.7z"/>
					</g>
				</g>
			</g>
		</g>
	</g>
</g>
</svg>
