<?xml version="1.0" encoding="utf-8"?>
<!-- Generator: Adobe Illustrator 26.0.1, SVG Export Plug-In . SVG Version: 6.00 Build 0)  -->
<svg version="1.1" id="Layer_1" xmlns="http://www.w3.org/2000/svg" xmlns:xlink="http://www.w3.org/1999/xlink" x="0px" y="0px"
	 viewBox="0 0 664 598" style="enable-background:new 0 0 664 598;" xml:space="preserve">
<style type="text/css">
	.st0{clip-path:url(#SVGID_00000059293440152071624680000010893177489212876942_);}
	.st1{clip-path:url(#SVGID_00000119809613031024344070000006019807714378505399_);fill:#BDDEEF;}
	.st2{clip-path:url(#SVGID_00000119809613031024344070000006019807714378505399_);}
	.st3{fill:#52A7C1;}
	.st4{fill:#BDDEEF;}
	.st5{fill:#DE9F7E;}
	.st6{fill:#D38A6A;}
	.st7{fill:#D34047;}
	.st8{fill:#B7303D;}
	.st9{fill:#FCB856;}
	.st10{fill:#DD4756;}
	.st11{fill:#CE8065;}
	.st12{fill:#FFFFFF;}
	.st13{fill:#6B3628;}
	.st14{fill:#2554D8;}
	.st15{fill:#3770ED;}
	.st16{fill:#E09A61;}
	.st17{fill:#C47947;}
	.st18{fill:#0A338E;}
	.st19{fill:#17140C;}
	.st20{fill:#513328;}
	.st21{fill:#3B2314;}
</style>
<g>
	<defs>
		<path id="SVGID_1_" d="M33.3,435c60.6,63.3,132.3,86.8,164.3,94.6c49.4,12,91.1,7.4,133,7.8c105.3,1.2,214.5-9.4,277.9-84.8
			c21.6-25.7,31.8-52.4,36.7-68.3c3.2-19.4,22.9-153.5-70.3-259.1C486,24.4,346,8.7,244.1,41C101.2,86.3,1.5,235.9,9,406.6
			C14.5,413.8,22.6,423.9,33.3,435z"/>
	</defs>
	<clipPath id="SVGID_00000062193315915519325430000003913546540298283912_">
		<use xlink:href="#SVGID_1_"  style="overflow:visible;"/>
	</clipPath>
	<g style="clip-path:url(#SVGID_00000062193315915519325430000003913546540298283912_);">
		<g>
			<defs>
				<path id="SVGID_00000178923631269202632640000017820426288178911413_" d="M591.7,223.5c-11.3-20.2-24.6-37.9-38.3-53
					c-0.1,0.2-0.3,0.5-0.4,0.7c0.1-0.2,0.3-0.5,0.4-0.7c-2.5-2.8-50.3-43.1-50.3-43.1l0,0c-1.3-1-2.7-2.1-4-3.2
					c-38.2-32-67.2-90-173.2-81.2c-49.4,4.1-81.8,24.2-104.8,51.2c-7,8.1-13.1,17-18.7,26.3c-17,28.4-28.3,61.1-39.8,89.6
					c-15.2,37.6-69.7,43.6-89.3,87.2c-17.9,20.5-27.2,53.1-31.9,76.7C38,391,37,403.4,37,403.4C31.7,522,138.3,612.8,248.2,645.7
					c24.6,7.4,49.4,11.8,73.1,13c11.2,0.6,22.2,0.4,32.8-0.5c2.1-0.2,4.3-0.4,6.5-0.7c1.5-0.2,3-0.3,4.5-0.5
					c1.3-0.2,2.5-0.3,3.8-0.5c0.7-0.1,1.4-0.2,2.1-0.3c0.7-0.1,1.3-0.2,2-0.3c35.6-5.5,75.5-17.9,112.1-37c0.2-0.1,0.4-0.2,0.5-0.3
					c59-31,109.4-79.3,119-143.9c1.3-9,12.9-36.6,16.7-76.1C628.7,320.9,607.1,258.4,591.7,223.5z M509.5,177.2c0,0,0.1,0.1,0.1,0.1
					C509.6,177.3,509.5,177.2,509.5,177.2z"/>
			</defs>
			<clipPath id="SVGID_00000174596844380563368600000002606628358473416071_">
				<use xlink:href="#SVGID_00000178923631269202632640000017820426288178911413_"  style="overflow:visible;"/>
			</clipPath>
			<path style="clip-path:url(#SVGID_00000174596844380563368600000002606628358473416071_);fill:#BDDEEF;" d="M591.7,223.5
				c-11.3-20.2-24.6-37.9-38.3-53c-2.5-2.8-50.3-43.1-50.3-43.1c-1.3-1-2.7-2.1-4-3.2c-38.2-32-67.2-90-173.2-81.2
				c-49.4,4.1-81.8,24.2-104.8,51.2c-7,8.1-13.1,17-18.7,26.3c-17,28.4-28.3,61.1-39.8,89.6c-15.2,37.6-69.7,43.6-89.3,87.2
				c-17.9,20.5-27.2,53.1-31.9,76.7C38,391,37,403.4,37,403.4C31.7,522,138.3,612.8,248.2,645.7c24.6,7.4,49.4,11.8,73.1,13
				c11.2,0.6,22.2,0.4,32.8-0.5c2.1-0.2,4.3-0.4,6.5-0.7c1.5-0.2,3-0.3,4.5-0.5c1.3-0.2,2.5-0.3,3.8-0.5c0.7-0.1,1.4-0.2,2.1-0.3
				c0.7-0.1,1.3-0.2,2-0.3c35.6-5.5,75.5-17.9,112.1-37c0.2-0.1,0.4-0.2,0.5-0.3c59-31,109.4-79.3,119-143.9
				c8.5-42.3,20.3-66.9,20.3-130.1C627,302.8,591.7,223.5,591.7,223.5z"/>
			<g style="clip-path:url(#SVGID_00000174596844380563368600000002606628358473416071_);">
				<path class="st3" d="M178.3,223c0,1.6-1,2.8-2.2,2.8c-1.2,0-2.2-1.3-2.2-2.8s1-2.8,2.2-2.8C177.3,220.2,178.3,221.4,178.3,223z"
					/>
				<path class="st3" d="M197,228.3c0,1.6-1,2.8-2.2,2.8c-1.2,0-2.2-1.3-2.2-2.8s1-2.8,2.2-2.8C196,225.5,197,226.7,197,228.3z"/>
				<path class="st3" d="M259.6,144.2c0,1.6-1,2.8-2.2,2.8c-1.2,0-2.2-1.3-2.2-2.8s1-2.8,2.2-2.8
					C258.6,141.4,259.6,142.7,259.6,144.2z"/>
				<path class="st3" d="M551.8,393.7c0,1.6-1,2.8-2.2,2.8c-1.2,0-2.2-1.3-2.2-2.8s1-2.8,2.2-2.8
					C550.8,390.9,551.8,392.2,551.8,393.7z"/>
				<path class="st3" d="M559.4,386.1c0,1.6-1,2.8-2.2,2.8c-1.2,0-2.2-1.3-2.2-2.8s1-2.8,2.2-2.8
					C558.4,383.3,559.4,384.5,559.4,386.1z"/>
				<ellipse class="st3" cx="188.9" cy="213.8" rx="3.6" ry="4.5"/>
				<path class="st3" d="M185.3,380.8c0,3.2-2.1,5.9-4.7,5.9c-2.6,0-4.7-2.6-4.7-5.9c0-3.2,2.1-5.9,4.7-5.9
					C183.3,374.9,185.3,377.6,185.3,380.8z"/>
				<path class="st3" d="M448.7,130.4c0,3.2-2.1,5.9-4.7,5.9c-2.6,0-4.7-2.6-4.7-5.9c0-3.2,2.1-5.9,4.7-5.9
					C446.6,124.5,448.7,127.2,448.7,130.4z"/>
				<ellipse class="st3" cx="215.4" cy="111.6" rx="14.9" ry="18.7"/>
				<ellipse class="st3" cx="44.2" cy="430.1" rx="30.4" ry="38.4"/>
			</g>
		</g>
		<g>
			<rect x="264.1" y="171.8" class="st4" width="165.4" height="102.5"/>
			<g>
				<path class="st3" d="M432,276.8H261.6V169.3H432V276.8z M266.6,271.8H427v-97.5H266.6V271.8z"/>
			</g>
			<g>
				<polygon class="st3" points="327.1,231.9 327.1,231.1 321.7,232.4 321.7,233.1 				"/>
				<path class="st3" d="M321.7,228.8L321.7,228.8l0,3.6l1-0.2v-3.3h0c0,0,0.1,0,0.1-0.1c0,0,0-0.1-0.1-0.1c0-0.3-0.2-0.4-0.3-0.5
					c-0.1-0.1-0.2-0.2-0.2-0.2s-0.1,0.2-0.2,0.2c-0.1,0.1-0.3,0.1-0.3,0.5C321.7,228.7,321.6,228.7,321.7,228.8
					C321.6,228.8,321.7,228.8,321.7,228.8z"/>
				<path class="st3" d="M327.1,227.5L327.1,227.5l0,3.8l0.5-0.1v0.8h8.9v-0.8h-1v-1.5c0-0.6,0.2-0.8,0.3-1c0.2-0.3,0.3-0.5,0.3-0.5
					v-0.9h0.9v-0.7h-0.6c0-2.1-1.1-2.6-2.1-3.1c-1-0.5-1.6-1.7-1.6-1.7s-0.6,1.2-1.6,1.7c-1,0.5-2.1,1-2.1,3.1h-0.6v0.7h0.9v0.9
					c0,0,0.1,0.2,0.4,0.5c0.2,0.2,0.4,0.4,0.4,1v1.5h-2v-3.6h0c0,0,0.1,0,0.1-0.1c0,0,0-0.1-0.1-0.1c0-0.3-0.2-0.4-0.3-0.5
					c-0.1-0.1-0.2-0.2-0.2-0.2s-0.1,0.2-0.2,0.2c-0.1,0.1-0.3,0.1-0.3,0.5C327.1,227.3,327.1,227.3,327.1,227.5
					C327.1,227.4,327.1,227.5,327.1,227.5z M333.1,231.1v-1.5c0-0.6,0.3-0.8,0.5-1c0.3-0.3,0.5-0.5,0.5-0.5s0.1,0.2,0.5,0.5
					c0.2,0.2,0.5,0.4,0.5,1v1.5H333.1z M330.7,229.6c0-0.6,0.3-0.8,0.5-1c0.3-0.3,0.5-0.5,0.5-0.5s0.1,0.2,0.5,0.5
					c0.2,0.2,0.5,0.4,0.5,1v1.5h-1.8V229.6z"/>
				<polygon class="st3" points="366.5,231.9 371.9,233.1 371.9,232.4 366.5,231.1 				"/>
				<path class="st3" d="M370.8,228.8L370.8,228.8l0,3.3l1,0.2v-3.6h0c0,0,0.1,0,0.1-0.1c0,0,0-0.1-0.1-0.1c0-0.3-0.2-0.4-0.3-0.5
					c-0.1-0.1-0.2-0.2-0.2-0.2s-0.1,0.2-0.2,0.2c-0.1,0.1-0.3,0.1-0.3,0.5C370.8,228.7,370.8,228.7,370.8,228.8
					C370.8,228.8,370.8,228.8,370.8,228.8z"/>
				<path class="st3" d="M356.5,226.4v0.7h0.9v0.9c0,0,0.1,0.2,0.3,0.5c0.1,0.2,0.3,0.4,0.3,1v1.5h-1v0.8h8.9v-0.8l0.5,0.1v-3.8h0
					c0,0,0.1,0,0.1-0.1c0,0,0-0.1-0.1-0.1c0-0.3-0.2-0.4-0.3-0.5c-0.1-0.1-0.2-0.2-0.2-0.2s-0.1,0.2-0.2,0.2
					c-0.1,0.1-0.3,0.1-0.3,0.5c0,0-0.1,0-0.1,0.1c0,0,0,0.1,0.1,0.1h0v3.6h-2v-1.5c0-0.6,0.2-0.8,0.4-1c0.3-0.3,0.4-0.5,0.4-0.5
					v-0.9h0.9v-0.7h-0.6c0-2.1-1.1-2.6-2.1-3.1c-1-0.5-1.6-1.7-1.6-1.7s-0.6,1.2-1.6,1.7c-1,0.5-2.1,1-2.1,3.1H356.5z M358.6,231.1
					v-1.5c0-0.6,0.3-0.8,0.5-1c0.3-0.3,0.5-0.5,0.5-0.5s0.1,0.2,0.5,0.5c0.2,0.2,0.5,0.4,0.5,1v1.5H358.6z M361.1,231.1v-1.5
					c0-0.6,0.3-0.8,0.5-1c0.3-0.3,0.5-0.5,0.5-0.5s0.1,0.2,0.5,0.5c0.2,0.2,0.5,0.4,0.5,1v1.5H361.1z"/>
				<path class="st3" d="M395.4,250.3l-0.4-10h0.3v-0.4h0c0.1,0,0.3-0.1,0.3-0.3c0-0.1-0.1-0.3-0.3-0.3h-0.3l-0.4-9.6h0.2v0.4h0.3
					v-0.4h0c0.1,0,0.3-0.1,0.3-0.3c0-0.1-0.1-0.3-0.3-0.3h-0.5l-0.4-10.5h0.1v-0.4h0.2v0.4h0.3v-0.4h0c0.1,0,0.3-0.1,0.3-0.3
					c0-0.1-0.1-0.3-0.3-0.3H394v-0.4h-0.4c0,0,0-1.2,0-1.6c0-0.3,0.1-0.5,0.2-0.6c0.1-0.2,0.2-0.3,0.2-0.3v-0.5h0.7
					c0.1,0,0.3-0.1,0.3-0.3c0-0.1-0.1-0.3-0.3-0.3h-0.6c0-1.2-0.6-1.4-1.1-1.7c-0.5-0.3-0.9-0.9-0.9-0.9s-0.3,0.6-0.9,0.9
					c-0.5,0.3-1.1,0.5-1.1,1.7h-0.6c-0.1,0-0.3,0.1-0.3,0.3c0,0.1,0.1,0.3,0.3,0.3h0.7v0.5c0,0,0,0.1,0.2,0.3
					c0.1,0.1,0.2,0.2,0.2,0.6c0,0.3,0,1.6,0,1.6h-0.4v0.4h-0.7c-0.1,0-0.3,0.1-0.3,0.3c0,0.1,0.1,0.3,0.3,0.3h0v0.4h0.3v-0.4h0.2
					v0.4h0.1l-0.4,10.5h-0.5c-0.1,0-0.3,0.1-0.3,0.3c0,0.1,0.1,0.3,0.3,0.3h0v0.4h0.3v-0.4h0.2l-0.4,9.6H389c-0.1,0-0.3,0.1-0.3,0.3
					c0,0.1,0.1,0.3,0.3,0.3v0.4h0.3v-0.4h0.1l-0.4,10.4h-0.8h-7.4l-0.3-7.6h0.2v-0.3h0c0.1,0,0.2-0.1,0.2-0.2c0-0.1-0.1-0.2-0.2-0.2
					h-0.2l-0.3-7.3h0.2v0.3h0.2v-0.3h0c0.1,0,0.2-0.1,0.2-0.2c0-0.1-0.1-0.2-0.2-0.2h-0.4l-0.3-8h0.1V226h0.2v0.3h0.2V226h0
					c0.1,0,0.2-0.1,0.2-0.2c0-0.1-0.1-0.2-0.2-0.2h-0.5v-0.3h-0.3c0,0,0-0.9,0-1.2c0-0.3,0.1-0.3,0.1-0.4c0.1-0.1,0.1-0.2,0.1-0.2
					V223h0.5c0.1,0,0.2-0.1,0.2-0.2c0-0.1-0.1-0.2-0.2-0.2h-0.4c0-0.9-0.4-1.1-0.9-1.3c-0.4-0.2-0.6-0.7-0.6-0.7s-0.2,0.5-0.6,0.7
					c-0.4,0.2-0.9,0.4-0.9,1.3h-0.4c-0.1,0-0.2,0.1-0.2,0.2c0,0.1,0.1,0.2,0.2,0.2h0.5v0.4c0,0,0,0.1,0.1,0.2
					c0.1,0.1,0.1,0.2,0.1,0.4c0,0.3,0,1.2,0,1.2H377v0.3h-0.5c-0.1,0-0.2,0.1-0.2,0.2c0,0.1,0.1,0.2,0.2,0.2h0v0.3h0.2V226h0.2v0.3
					h0.1l-0.3,8h-0.4c-0.1,0-0.2,0.1-0.2,0.2c0,0.1,0.1,0.2,0.2,0.2h0v0.3h0.2v-0.3h0.1l-0.3,7.3H376c-0.1,0-0.2,0.1-0.2,0.2
					c0,0.1,0.1,0.2,0.2,0.2v0.3h0.2v-0.3h0.1l-0.3,7.9h-4.1v-16.5l-5.4-1.3v17.7h-0.6v-17.7H357v17.7h-0.4v-22.4h-1v-2.7
					c0,0-0.7-0.9-8.9-0.9c-8.1,0-8.9,0.9-8.9,0.9v2.7h-1v22.4h-0.4v-17.7h-8.9v17.7h-0.6v-17.7l-5.4,1.3v16.5h-4.1l-0.3-7.9h0.1v0.3
					h0.2v-0.3c0.1,0,0.2-0.1,0.2-0.2c0-0.1-0.1-0.2-0.2-0.2h-0.3l-0.3-7.3h0.1v0.3h0.2v-0.3h0c0.1,0,0.2-0.1,0.2-0.2
					c0-0.1-0.1-0.2-0.2-0.2H317l-0.3-8h0.1V226h0.2v0.3h0.2V226h0c0.1,0,0.2-0.1,0.2-0.2c0-0.1-0.1-0.2-0.2-0.2h-0.5v-0.3h-0.3
					c0,0,0-0.9,0-1.2c0-0.3,0.1-0.3,0.1-0.4c0.1-0.1,0.1-0.2,0.1-0.2V223h0.5c0.1,0,0.2-0.1,0.2-0.2c0-0.1-0.1-0.2-0.2-0.2h-0.4
					c0-0.9-0.4-1.1-0.9-1.3c-0.4-0.2-0.6-0.7-0.6-0.7s-0.2,0.5-0.6,0.7c-0.4,0.2-0.9,0.4-0.9,1.3h-0.4c-0.1,0-0.2,0.1-0.2,0.2
					c0,0.1,0.1,0.2,0.2,0.2h0.5v0.4c0,0,0,0.1,0.1,0.2c0.1,0.1,0.1,0.2,0.1,0.4c0,0.3,0,1.2,0,1.2h-0.3v0.3h-0.5
					c-0.1,0-0.2,0.1-0.2,0.2c0,0.1,0.1,0.2,0.2,0.2h0v0.3h0.2V226h0.2v0.3h0.1l-0.3,8h-0.4c-0.1,0-0.2,0.1-0.2,0.2
					c0,0.1,0.1,0.2,0.2,0.2h0v0.3h0.2v-0.3h0.2l-0.3,7.3h-0.2c-0.1,0-0.2,0.1-0.2,0.2c0,0.1,0.1,0.2,0.2,0.2h0v0.3h0.2l-0.3,7.6
					h-7.4h-0.8l-0.4-10.4h0.1v0.4h0.3v-0.4c0.1,0,0.3-0.1,0.3-0.3c0-0.1-0.1-0.3-0.3-0.3h-0.4l-0.4-9.6h0.2v0.4h0.3v-0.4h0
					c0.1,0,0.3-0.1,0.3-0.3c0-0.1-0.1-0.3-0.3-0.3h-0.5l-0.4-10.5h0.1v-0.4h0.2v0.4h0.3v-0.4h0c0.1,0,0.3-0.1,0.3-0.3
					c0-0.1-0.1-0.3-0.3-0.3h-0.7v-0.4h-0.4c0,0,0-1.2,0-1.6c0-0.3,0.1-0.5,0.2-0.6c0.1-0.2,0.2-0.3,0.2-0.3v-0.5h0.7
					c0.1,0,0.3-0.1,0.3-0.3c0-0.1-0.1-0.3-0.3-0.3h-0.6c0-1.2-0.6-1.4-1.1-1.7c-0.5-0.3-0.9-0.9-0.9-0.9s-0.3,0.6-0.8,0.9
					c-0.5,0.3-1.1,0.5-1.1,1.7h-0.6c-0.1,0-0.3,0.1-0.3,0.3c0,0.1,0.1,0.3,0.3,0.3h0.7v0.5c0,0,0.1,0.1,0.2,0.3
					c0.1,0.1,0.2,0.2,0.2,0.6c0,0.3,0,1.6,0,1.6h-0.4v0.4h-0.7c-0.1,0-0.3,0.1-0.3,0.3c0,0.1,0.1,0.3,0.3,0.3h0v0.4h0.3v-0.4h0.2
					v0.4h0.1l-0.4,10.5h-0.5c-0.1,0-0.3,0.1-0.3,0.3c0,0.1,0.1,0.3,0.3,0.3h0v0.4h0.3v-0.4h0.2l-0.4,9.6h-0.3
					c-0.1,0-0.3,0.1-0.3,0.3c0,0.1,0.1,0.3,0.3,0.3h0v0.4h0.3l-0.4,10h-0.9v0.6v0.4v5.1h8h82.9h8v-5.1v-0.4v-0.6H395.4z M391,217.4
					c0,0,0-1.2,0-1.6c0-0.3,0.1-0.5,0.2-0.6c0.2-0.2,0.2-0.3,0.2-0.3s0.1,0.1,0.2,0.3c0.1,0.1,0.2,0.2,0.2,0.6c0,0.3,0,1.6,0,1.6
					H391z M392.4,217.4c0,0,0-1.2,0-1.6c0-0.3,0.1-0.5,0.2-0.6c0.2-0.2,0.2-0.3,0.2-0.3s0.1,0.1,0.2,0.3c0.1,0.1,0.2,0.2,0.2,0.6
					c0,0.3,0,1.6,0,1.6H392.4z M377.5,225.3c0,0,0-0.9,0-1.2c0-0.3,0.1-0.3,0.2-0.4c0.1-0.1,0.2-0.2,0.2-0.2s0.1,0.1,0.2,0.2
					c0.1,0.1,0.2,0.2,0.2,0.4c0,0.3,0,1.2,0,1.2H377.5z M378.5,225.3c0,0,0-0.9,0-1.2c0-0.3,0.1-0.3,0.2-0.4
					c0.1-0.1,0.2-0.2,0.2-0.2s0.1,0.1,0.2,0.2c0.1,0.1,0.2,0.2,0.2,0.4c0,0.3,0,1.2,0,1.2H378.5z M314.3,225.3c0,0,0-0.9,0-1.2
					c0-0.3,0.1-0.3,0.2-0.4c0.1-0.1,0.2-0.2,0.2-0.2s0,0.1,0.2,0.2c0.1,0.1,0.2,0.2,0.2,0.4c0,0.3,0,1.2,0,1.2H314.3z M315.3,225.3
					c0,0,0-0.9,0-1.2c0-0.3,0.1-0.3,0.2-0.4c0.1-0.1,0.2-0.2,0.2-0.2s0.1,0.1,0.2,0.2c0.1,0.1,0.2,0.2,0.2,0.4c0,0.3,0,1.2,0,1.2
					H315.3z M300.2,217.4c0,0,0-1.2,0-1.6c0-0.3,0.1-0.5,0.2-0.6c0.2-0.2,0.2-0.3,0.2-0.3s0.1,0.1,0.2,0.3c0.1,0.1,0.2,0.2,0.2,0.6
					c0,0.3,0,1.6,0,1.6H300.2z M301.6,217.4c0,0,0-1.2,0-1.6c0-0.3,0.1-0.5,0.2-0.6c0.2-0.2,0.2-0.3,0.2-0.3s0.1,0.1,0.2,0.3
					c0.1,0.1,0.2,0.2,0.2,0.6c0,0.3,0,1.6,0,1.6H301.6z M346.8,238.2c0.8,0,1.4,0.6,1.4,1.4v2.2h-2.8v-2.2
					C345.4,238.8,346,238.2,346.8,238.2z M346.8,245.3c0.8,0,1.4,0.6,1.4,1.4v3.6h-2.8v-3.6C345.4,245.9,346,245.3,346.8,245.3z
					 M367.7,237.9c0-2.2,0.5-2.5,0.8-2.8c0.3-0.3,0.7-0.7,0.7-0.7s0.3,0.4,0.7,0.7c0.3,0.3,0.9,0.6,0.9,2.8c0,2.2,0,3.6,0,3.6h-1.5
					h-1.5C367.7,241.5,367.7,240.1,367.7,237.9z M367.7,246.7c0-2.2,0.5-2.5,0.8-2.8c0.3-0.3,0.7-0.7,0.7-0.7s0.3,0.4,0.7,0.7
					c0.3,0.3,0.9,0.6,0.9,2.8c0,2.2,0,3.6,0,3.6h-3.1C367.7,250.3,367.7,248.9,367.7,246.7z M358.9,237.9c0-2.2,0.8-2.5,1.4-2.8
					c0.6-0.3,1.1-0.7,1.1-0.7s0.6,0.4,1.1,0.7c0.6,0.3,1.4,0.6,1.4,2.8c0,2.2,0,3.6,0,3.6h-1.8v-2c0-0.4-0.3-0.8-0.8-0.8
					c-0.4,0-0.8,0.3-0.8,0.8v2h-1.8C358.9,241.5,358.9,240.1,358.9,237.9z M358.9,246.7c0-2.2,0.8-2.5,1.4-2.8
					c0.6-0.3,1.1-0.7,1.1-0.7s0.6,0.4,1.1,0.7c0.6,0.3,1.4,0.6,1.4,2.8c0,2.2,0,3.6,0,3.6h-1.8v-2c0-0.4-0.3-0.8-0.8-0.8
					c-0.4,0-0.8,0.3-0.8,0.8v2h-1.8C358.9,250.3,358.9,248.9,358.9,246.7z M340.1,231.1h13.4v19.2h-1.1c0,0,0-7.8,0-10.4
					c0-5.1-4.4-4.6-5.6-6.6c-1.2,2.1-5.6,1.6-5.6,6.6c0,2.6,0,10.4,0,10.4h-1.1V231.1z M329.7,237.9c0-2.2,0.8-2.5,1.4-2.8
					c0.6-0.3,1.1-0.7,1.1-0.7s0.6,0.4,1.1,0.7c0.6,0.3,1.4,0.6,1.4,2.8c0,2.2,0,3.6,0,3.6H333v-2c0-0.4-0.3-0.8-0.8-0.8
					c-0.4,0-0.8,0.3-0.8,0.8v2h-1.7C329.7,241.5,329.7,240.1,329.7,237.9z M329.7,246.7c0-2.2,0.8-2.5,1.4-2.8
					c0.6-0.3,1.1-0.7,1.1-0.7s0.6,0.4,1.1,0.7c0.6,0.3,1.4,0.6,1.4,2.8c0,2.2,0,3.6,0,3.6H333v-2c0-0.4-0.3-0.8-0.8-0.8
					c-0.4,0-0.8,0.3-0.8,0.8v2h-1.7C329.7,250.3,329.7,248.9,329.7,246.7z M322.9,237.9c0-2.2,0.5-2.5,0.8-2.8
					c0.3-0.3,0.7-0.7,0.7-0.7s0.3,0.4,0.7,0.7c0.3,0.3,0.8,0.6,0.8,2.8c0,2.2,0,3.6,0,3.6h-1.5h-1.5
					C322.9,241.5,322.9,240.1,322.9,237.9z M322.9,246.7c0-2.2,0.5-2.5,0.8-2.8c0.3-0.3,0.7-0.7,0.7-0.7s0.3,0.4,0.7,0.7
					c0.3,0.3,0.8,0.6,0.8,2.8c0,2.2,0,3.6,0,3.6h-3.1C322.9,250.3,322.9,248.9,322.9,246.7z"/>
				<path class="st3" d="M337.9,222.8c0,0,0.6-0.8,8.9-0.8c8.3,0,8.9,0.8,8.9,0.8s3.3-2.9,0.7-7.3c-2.6-4.2-7-5.8-9.3-8.4
					c0,0,0,0,0,0c0.3-0.1,0.6-0.4,0.6-0.7c0-0.3-0.2-0.6-0.5-0.7c0.2-0.1,0.3-0.3,0.3-0.5c0-0.3-0.3-0.6-0.6-0.6c0,0,0,0,0,0
					c0.1,0,0.2,0,0.2,0v-0.8c-0.1,0-0.1,0-0.2,0c0,0,0,0,0,0c0.3,0,0.6-0.3,0.6-0.6c0-0.3-0.3-0.6-0.6-0.6c0,0,0,0,0,0
					c0.1,0,0.2,0,0.2,0v-1.5c0,0,0-0.2-0.2-0.2c-0.2,0-0.2,0.2-0.2,0.2v1.5c-0.2,0.1-0.4,0.3-0.4,0.5c0,0.2,0.1,0.5,0.4,0.5v0.8
					c-0.2,0.1-0.4,0.3-0.4,0.5c0,0.2,0.1,0.4,0.3,0.5c-0.3,0.1-0.5,0.4-0.5,0.7c0,0.3,0.2,0.6,0.6,0.7c-2.3,2.7-6.7,4.2-9.3,8.4
					C334.6,219.9,337.9,222.8,337.9,222.8z M346.8,207.1C346.8,207.1,346.8,207.1,346.8,207.1C346.8,207.1,346.8,207.1,346.8,207.1
					C346.8,207.1,346.8,207.1,346.8,207.1z M346.9,207.1C346.9,207.1,346.9,207.1,346.9,207.1C346.9,207.1,346.9,207.1,346.9,207.1z
					 M346.7,207.1C346.7,207.1,346.7,207.1,346.7,207.1C346.7,207.1,346.7,207.1,346.7,207.1z"/>
			</g>
			<rect x="265.6" y="254.3" class="st3" width="162.4" height="17.5"/>
		</g>
	</g>
	<g style="clip-path:url(#SVGID_00000062193315915519325430000003913546540298283912_);">
		<g>
			<g>
				<g>
					<path class="st5" d="M313.6,550.6c0.6,1.1,1.1,2.2,1.7,3.3c1.6,3.1,3.1,6.1,4.2,9.4c2.1,6.2,3.5,13,3.9,19.5
						c0.1,1.8-5.9,12.1-7.4,13.5c-1.4,1.4-6.1,3.6-7.9,2.5c-0.3,0.6-4.4,2.2-3.3-2.5c-0.9-0.5-3.5-1.6,3.6-8.6l-0.2,0.1
						c-0.7-1.8-0.9-4.4-1.1-5.7c-0.6-3.1-1-6.6-2.7-9.4c-2.7-4.4-4.1-10.1-4.1-18c-0.2-2.3,6.8-9.9,8.9-9.5c0.3,0.5,0.8,0.8,1.2,1.2
						C311.8,547.6,312.8,549.1,313.6,550.6z"/>
					<path class="st6" d="M308.1,587.9c0.4,0.9,0.9,1.6,1.7,2c0.5,0.2,1,0.2,1.5,0.1c0.6-0.2,1.2-0.6,1.6-1.1c0.5-0.7,0.8-1.6,1-2.4
						c1.1-4.5,0.4-9.4-0.2-13.9c0-0.1-0.1-0.2-0.2-0.2c-0.1,0-0.2,0.1-0.2,0.2c0.6,4.4,1.3,9.4,0.2,13.7c-0.2,0.8-0.5,1.6-0.9,2.3
						c-0.3,0.4-0.8,0.8-1.4,1c-0.4,0.1-0.9,0.1-1.2,0c-0.6-0.3-1.1-0.9-1.5-1.8c0-0.1-0.2-0.1-0.3-0.1
						C308.1,587.7,308.1,587.8,308.1,587.9L308.1,587.9z"/>
				</g>
				<g>
					<path class="st5" d="M253.9,347.5c19.3,41.9,24.2,72,24.2,72c1.4,9.1,3.1,22.3,4,38.5c4.8,13.7,9.5,27.6,14.2,41.8
						c5.4,16.3,10.5,32.4,15.4,48.3c-3.8,2.7-7.5,5.4-11.3,8.1c-5.2-8.4-12.8-20.8-22.1-36.1c-17.4-28.8-26.1-43.1-27.8-47
						c-17.7-39.4-9.4-48.3-20.4-85.6c-2.9-9.9-5.8-21.8-5.8-32.2c0-6.4,2.4-11.7,5.9-16.9c1.4-2.1,3-3.5,4.8-4.1
						c2.8-1,5.3-0.2,6.5,0.2C248.9,336.9,253.3,346.2,253.9,347.5z"/>
					<path class="st7" d="M283.4,454.8c-11.8-0.8-23.6-1.5-35.4-2.3c-2.5-29.3-4.9-58.6-7.4-87.9c0.4-2.4,2.8-16.6,15.6-24.6
						c6.4-4,12.7-4.8,16.2-4.9c5.6,15.8,11.4,37.4,13.3,63.5C287.3,420.7,285.7,439.9,283.4,454.8z"/>
					<path class="st8" d="M287.5,438.2c-7.9,0-16-0.2-24.5-0.6c-13.1-0.7-25.6-1.8-37.3-3.2c0.9,5.7,1.8,11.4,2.7,17
						c9,2.2,20,4.2,32.5,4.9c9,0.5,17.3,0.3,24.5-0.3C286.1,450,286.8,444.1,287.5,438.2z"/>
				</g>
				<path class="st5" d="M248.6,344.6c-0.2,23.1-23.1,40.6-45.3,40.3c-22.8-0.3-45.2-19.5-44.1-41.6c1-20.7,22-32.4,23.5-33.2
					c3.9-2.2,16-8.5,30.8-5.6C231.6,308,248.8,324.4,248.6,344.6z"/>
				<path class="st7" d="M134,596.7c0.5-23.5,1-47,1.5-70.5c1.5-71.1,2.3-100.5-1.2-142c-1-11.6-2-21-2.7-27.1
					c-0.3-2.9-0.4-8.6,2.4-15c3.4-8,9.2-12.2,11.6-13.8c12.2-6.4,24.5-12.9,36.7-19.3c1.2-0.6,2.4-1.2,3.6-1.9
					c1.9-1,3.6-2.1,5.1-3.2c0.2,1.4,0.6,3.3,1.2,5.4c0,0,2,6.3,6.4,11.9c7.7,9.8,20.8,13.5,22.8,14.1c1.7,4.8,3.4,10.3,4.7,16.4
					c0.8,3.4,1.3,6.7,1.8,9.8c0.6-8.3,1.2-16.6,1.7-24.9c1.5-1.4,3.3-3.6,4.6-6.7c3.5-8.4-0.7-16.2-1.5-17.8c7.9,5,15.2,8.3,20,10.5
					c7,3.3,13.3,5.7,16.9,8.8c1.7,1.5,2.7,3.1,3,5c0.1,1,0,1.8-0.1,2.3c-2,26.5-3.3,54.8-3.4,84.7c-0.1,25.7,0.7,50.2,2,73.4
					c1.8,33.8,3.6,67.7,5.4,101.5C229.2,597.9,181.6,597.3,134,596.7z"/>
				<g>
					<path class="st8" d="M229.8,336.7c-0.7,23.8-0.9,48.5-0.1,72.2c0,0-0.7-0.6-0.7-0.6l5.4-0.1c1.8,0,3.6,0,5.4,0
						c-1.8,0.3-3.6,0.5-5.4,0.8c-0.3,0.1-5.8,0.7-6,0.7c0,0-0.1-0.7-0.1-0.7C225.7,385,225.9,360.6,229.8,336.7L229.8,336.7z"/>
				</g>
				<path class="st8" d="M235.3,396.4c0.3,0.6,0.3,1.4,0.1,2c-0.4,0.9-1.4,1.4-2.2,1.1c-0.6-0.2-1.2-0.9-1.2-1.7
					c-0.1-1,0.6-1.9,1.4-2.1C234,395.3,234.8,395.6,235.3,396.4z"/>
				<path class="st8" d="M235.3,377.7c0.3,0.6,0.3,1.4,0.1,2c-0.4,0.9-1.4,1.4-2.2,1.1c-0.6-0.2-1.2-0.9-1.2-1.7
					c-0.1-1,0.6-1.9,1.4-2.1C234,376.7,234.8,376.9,235.3,377.7z"/>
				<path class="st8" d="M234.9,358.5c0.3,0.6,0.3,1.4,0.1,2c-0.4,0.9-1.4,1.4-2.2,1.1c-0.6-0.2-1.2-0.9-1.2-1.7
					c-0.1-1,0.6-1.9,1.4-2.1C233.6,357.4,234.5,357.7,234.9,358.5z"/>
				<path class="st9" d="M257.6,327.5c-0.9-7-6-7.4-7.5-6.7c-1.7-3.3-4.3-4.7-7.2-3.2c-0.6-2.4-5.2-3.9-6.4-2.8
					c0.7,11.3,2.9,120.6-7.1,161.2c-0.5,3.7,21.8,14.3,29.6,7.1C259.5,477.9,264.6,358.5,257.6,327.5z"/>
				<path class="st5" d="M166.4,442.6c14.9-10.2,29.8-20.3,44.7-30.5c1.9,2.9,3.7,5.8,5.6,8.7c19.8-16,39.6-32,59.3-48
					c1.5,2.1,3.6,4.6,6.4,7c2.5,2.2,4.8,3.9,6.9,5.1c-12.6,15.1-22.6,27.7-29.4,36.4c-11.8,15.1-19.4,25.6-33.2,38.1
					c-21.4,19.4-30.2,18.9-34.4,17.2c-2.1-0.8-3.5-2-6.1-4.9C180.8,465.9,173.3,456.5,166.4,442.6z"/>
				<path class="st10" d="M170,451.9c6.5-4.3,12.9-8.6,19.4-12.9c9.5-6.3,18.9-12.7,28.2-19c-8.5-18.6-14.8-33.8-18.8-44.1
					c-5.4-13.7-10-26.5-21.7-39.9c-9.9-11.4-15.7-12.8-19.5-12.6c-8.5,0.2-15.7,8-17.7,10.2c0,0-3.9,4.2-6.2,9.1
					c-6.7,14.2,2.2,39.2,20.9,78.4C158.4,428.9,163.6,439.5,170,451.9z"/>
				<path class="st8" d="M159.6,435.2c6.8-3.8,13.9-8.2,21.2-13.1c11.2-7.6,21.1-15.3,29.6-22.6c3,6.3,6,12.6,8.9,18.9
					c-5.8,6.5-14,14.3-24.7,21.6c-9,6.1-17.5,10.4-24.7,13.3C166.5,447.2,163,441.2,159.6,435.2z"/>
				<path class="st8" d="M229.8,336.7c1.4-1.6,4.1-5,5.3-10.1c1.6-7.1-1.3-12.6-2.1-14.4c1,0.6,2.5,1.2,3.5,1.8
					c1.3,0.4,1.9,5,2.2,6.6c1,4.7,0.3,6.1-0.2,18.4c-0.1,3.6-0.2,6.4-1,6.5c-0.5,0.1-0.9-1.7-3-4c-0.8-0.9-1.2-1.3-1.8-1.8
					c-1.1-0.8-2-1.1-2.5-2.1C229.9,337.3,229.8,337,229.8,336.7z"/>
				<g>
					<path class="st5" d="M234.5,320.6c-12.7,11.2-47.2-12.4-46.1-13.2c8-5.8,6.9-19.9,4.8-32.1c-0.8-4.8-1.8-9.2-2.4-12.8
						c8.1-3,29.8-3.3,39.2,12.1c3.5,5.8,5.3,13.8,4,24.6c-0.9,1.9-1.3,3.9-1.5,5.7c0,0,0,0.1,0,0.1
						C231.8,312.6,235.3,318.9,234.5,320.6z"/>
					<path class="st6" d="M234,299.2c-0.9,1.9-1.3,3.9-1.5,5.7c0,0,0,0.1,0,0.1c-1.5-0.3-3.4-0.8-5.6-1.5c-1.8-0.5-4.5-1.4-7.6-2.9
						c-4.2-2-7.7-3.6-10.4-7.3c-1.3-1.7-1.8-3.1-2.9-5.6c-1.2-2.9-2.6-7.2-3.3-12.8c8.1-6.1,18.4-6.8,25.2-2.1
						c0.8,0.5,1.5,1.1,2.1,1.7C233.5,280.4,235.3,288.4,234,299.2z"/>
					<path class="st5" d="M252.5,252.4c0,0.1,0,0.3,0,0.5c-0.1,0.8-0.3,1.7-0.7,2.5c0,0-0.3,0.6-1.1,3c-0.5,1.3-0.6,7.5-0.2,16.2
						c0.1,1.5,0,3.7-0.5,6.5c-0.5,3.4-1.4,9-5.1,14.7c-0.9,1.3-2.3,3.1-4.3,5.1c-0.8,0.7-1.8,1.2-2.9,1.1c-1,0-2.1-0.1-3.4-0.2
						c-0.2,0-0.6-0.1-1.2-0.2c-3.3-0.5-7.1-1.3-11.1-2.5c-2.5-0.8-5.5-1.6-7.6-2.5c-4.8-2-8.3-6.1-9.6-11.1c-1-3-1.3-6.1-2.3-9.2
						c-0.4-1.9-0.8-3.8-1.2-5.7c-0.1-0.1-0.1-0.2-0.2-0.2c-0.4-0.2-0.6-0.1-1.2-0.1c-5.9-0.6-10.1-7.9-11.2-9.9
						c-4.8-8.4-7.4-26.3,3.7-37.2c7.1-7,16.2-7.5,21.2-7.9c7.2-0.7,37.8,2.1,37.9,27.9c0,2.1,0.2,4.1,0.6,6.1
						c0.1,0.3,0.1,0.5,0.2,0.8c0,0.1,0.1,0.3,0.1,0.4C252.5,251.1,252.5,251.7,252.5,252.4z"/>
					<path d="M198.9,257.9c2.1,1.4,1.2,3.7,1.4,4.4c0.6,0.5,2.7,1,3.3,1.5c-0.1-1.9-0.1-3.7-0.2-5.6c0.1-2.3,0.8-3.9,1.4-4.8
						c0.8-1.3,1.6-1.6,3.3-3.5c0,0,1.4-1.5,2.7-3.3c3.3-4.8,4.5-9.8,4.9-11.6c0.2-1.1,0.4-2,0.4-2.6c1.3-0.1,3.3-0.2,5.6-0.1
						c3.5,0.1,6.1,0.5,7,0.7c9.7,1.4,15.4-3,19.5,0c1.6,1.1,3.4,3.6,3.2,9.9c3.1-9.3,1.3-15.3,0.3-17.9c-6.6-16.1-34.1-22-50.3-12.3
						c-4.6,2.7-7.4,6.2-9.1,8.5c-4.6,1.4-7.2,3.6-8.5,5.1c-6.2,6.9-5,17.9-4,27.8c0.2,1.6,0.5,3,0.5,3c0.6,3,1.5,5,1.8,5.6
						c2.1,5.1,5.8,20.1,8.2,25.1c0.3,0.6,0.9,1.7,2.1,2.3c0.8,0.4,1.7,0.3,2.2,0.3c0.3-7.9-0.4-13.3-1.2-17c0,0,0-0.1,0-0.1
						c-0.2-1.1-1-4.8-1.5-8.2c-0.6-4.3-0.9-6.5-0.2-7.3C193.2,256.2,196.7,256.4,198.9,257.9z"/>
					<path id="XMLID_00000037674744132090196540000013686549035238107049_" class="st9" d="M176.9,244.2
						c41.7-23.9,65.7-22.9,73.8-22.6c1.4,0.2,3.6,2.6,3.6,6.9c2,2.4,2.9,6,1,7.7c0,0,0.1,0.1,0.1,0.2c0.3,1-0.6,2-1.7,2.2
						c-8.8,1.3-30.7-4.1-69.9,21c-0.9,0.7-2.2,0.7-2.9-0.1c-0.8-0.8-1.5-2.1-1.6-4.3c-2.5-1.1-2.8-5.4-2.3-6.6
						C176.4,246.5,176.1,244.6,176.9,244.2z"/>
					<path class="st5" d="M200.3,258.5c-0.9-6.8-4.1-8.2-4.1-8.2c-2.4-0.9-5.6,0.4-7.1,2.6c-1.2,1.8-1,3.7-0.8,5.1
						c0.3,2.6,1.4,4.3,3,6.7c1.2,1.8,1.8,2.7,2.9,3.5c2.2,1.6,4.6,1.8,5.8,1.8c0.2-0.1,0.5-0.3,0.7-0.6c1.2-1.3,0.5-3.5-0.1-9.7
						C200.6,260,200.4,259.4,200.3,258.5z"/>
				</g>
				<path class="st11" d="M231.9,286.2c-0.2,0.7,4.7,4.2,9,2.8c1.8-0.5,3.5-1.9,3.3-2.5c-0.2-0.4-1.5-0.2-3.6-0.1
					C234.8,286.9,232,285.7,231.9,286.2z"/>
				<g>
					<path class="st12" d="M241.8,260.5c1.9-3.6,5.2-4.7,6.8-3.8c1.1,0.7,1.5,2.5,1.3,4.4C248.1,264.7,244.4,263.6,241.8,260.5z"/>
					
						<ellipse transform="matrix(0.1562 -0.9877 0.9877 0.1562 -48.2334 463.4494)" class="st13" cx="247.1" cy="260" rx="3.2" ry="2.4"/>
					<ellipse transform="matrix(0.1562 -0.9877 0.9877 0.1562 -48.0433 463.8094)" cx="247.4" cy="260" rx="1.7" ry="1.4"/>
					
						<ellipse transform="matrix(0.3213 -0.947 0.947 0.3213 -77.8989 409.242)" class="st12" cx="246.6" cy="259" rx="0.5" ry="0.4"/>
					<path d="M249.9,261.1c0.2-1.6-0.5-3.2-1.6-3.8c-1.8-1-4,0.5-4.5,0.9c-1.1,0.8-1.7,1.7-2,2.3c0.2-0.6,0.8-1.9,2-2.9
						c0.3-0.2,3.1-2.4,5.1-1.1C250.1,257.4,250.5,259.3,249.9,261.1z"/>
				</g>
				<path class="st11" d="M243.7,277.9c0.2,0.3-1,1.8-2.7,2.2c-2.8,0.7-5.6-2-5.5-2.2c0.1-0.2,2.1,1.3,4.9,1
					C242.3,278.6,243.5,277.6,243.7,277.9z"/>
				<g>
					<path d="M218.2,253.2c0.8-1.1,2-2.3,3.7-3.4c0,0,0,0,0,0c0.9-0.6,2.1-0.9,3.2-0.9c2.7,0.1,5.5,0.3,8.2,0.4
						c0.2,0.2,0.5,0.7,0.7,1.3c0.1,0.5,0.1,0.9,0.1,1.2c-3.2-0.1-6.4-0.3-9.6-0.4c-0.7,0-1.4,0.1-2.1,0.3
						C221,252.2,219.6,252.7,218.2,253.2z"/>
				</g>
				<g>
					<path d="M252.5,252.4c-0.3-0.1-0.7-0.1-1-0.1l-9.2,0.2c0-0.3,0-0.7,0.1-1.2c0.2-0.6,0.5-1,0.7-1.3c2.6-0.1,5.2-0.1,7.9-0.2
						c0.5,0,0.9,0,1.3,0.1c0,0.1,0,0.3,0.1,0.4C252.5,251.1,252.5,251.7,252.5,252.4z"/>
				</g>
				<g>
					<path class="st12" d="M233,260.6c-0.3,0.3-0.9,0.7-1.6,1.1c-1.6,0.8-3.1,0.6-3.9,0.6c-2.9-0.3-5-2-5.8-2.7
						c0.4-0.8,2-3.1,4.8-3.9c0.8-0.2,2.3-0.6,3.8,0.1C232.9,257.1,233,260.5,233,260.6z"/>
					<g>
						<path class="st13" d="M231,259.4c-0.2,1.7-1.6,2.9-3,2.7c-1.4-0.2-2.4-1.7-2.2-3.4c0.2-1.7,1.6-2.9,3-2.7
							C230.2,256.2,231.2,257.7,231,259.4z"/>
						<path d="M230.3,259.4c-0.1,0.9-0.8,1.5-1.5,1.4c-0.7-0.1-1.2-0.9-1.1-1.7c0.1-0.9,0.8-1.5,1.5-1.4
							C230,257.7,230.5,258.5,230.3,259.4z"/>
						<path class="st12" d="M228.6,258.2c0,0.3-0.3,0.5-0.5,0.4c-0.2,0-0.4-0.3-0.3-0.5c0-0.3,0.3-0.5,0.5-0.4
							C228.4,257.7,228.6,257.9,228.6,258.2z"/>
						<path d="M233,260.6c-0.1,0.1-0.6-3.2-2.7-4.2c-2.3-1.2-5.8,0.9-8.6,3.1c2.1-4.3,6.3-5.7,8.7-4.5
							C232.9,256.5,233.2,260.6,233,260.6z"/>
					</g>
				</g>
				<g>
					<path d="M198.5,273.6c-0.9,0-1.3-1.8-1.3-3.4l0.6,0.1c0,1.8,0.4,2.7,0.6,2.7c0.2,0,0.7-0.9,0.7-2.7c0-1.8-0.5-2.7-0.7-2.7
						c-0.2-0.2-0.2-0.4,0-0.6c0.9,0,1.3,1.7,1.3,3.3S199.4,273.6,198.5,273.6z"/>
				</g>
				<path class="st8" d="M189.9,303.8c0.7-0.5,1.7-0.1,1.9,0.7c1.5,5.7,5.9,18.3,18.2,26c4.1,2.6,8.2,4.1,11.6,4.9
					c-1.7,4.9-2.7,9-3.4,11.9c-0.5,2.1-0.7,3.4-1.7,3.9c-2.1,0.9-5.8-3.1-9.2-6.8c-4.1-4.5-9.4-10.6-15.7-17.9
					c-1.8-2.5-3.6-5.3-5.4-8.4c-1.8-3.1-3.3-6.2-4.6-9c1.7-1.1,3.5-2.2,5.2-3.3C187.9,305.1,188.9,304.5,189.9,303.8z"/>
				<g>
					<path d="M222.2,330c-7.2,0.2-12.8-4.9-17.5-9.3c-3.6-3.4-8.7-8.8-13.1-16.8c0.1-0.2,0.2-0.4,0.3-0.7c0.2-0.4,0.4-0.7,0.6-1
						c5.3,9.9,11.9,16,16,19.4c5.7,4.6,11.6,8.2,16.9,6c4.6-1.9,7.4-8.1,7.5-15.5c0.2,0.3,0.4,0.6,0.6,1c0.2,0.4,0.3,0.8,0.4,1.1
						c-0.1,1.2-0.8,12-7.8,14.9C224.5,329.9,223.2,330,222.2,330z"/>
				</g>
			</g>
			<g>
				<g>
					<path class="st5" d="M265.5,381.3c3.1-1.9,7.6-5.1,11.8-9.9c5.9-6.9,6.1-10.8,11.6-18.2c5.1-6.7,10.7-10.4,14.9-13.2
						c4.8-3.1,12.8-8.2,24.2-9.5c1-0.1,2-0.2,2.9-0.2c1.8-0.1,2.7,2.1,1.4,3.3c-1,0.9-2.1,1.9-3.5,2.6c-3.6,2-5.4,1.2-9.9,3.5
						c-1.6,0.8-4.6,2.3-7.1,5.6c-0.8,1-3,3.9-3.8,8.2c-0.2,1.4-0.3,2.5-0.2,3.4c3.6-1.9,6.1-3.8,7.8-5.3c1.7-1.4,2.6-2.7,5.2-4.8
						c2.8-2.3,4.7-3.9,5.6-3.3c1.1,0.7,0.4,4.3-1.1,7.1c-1.6,3-3.3,3.5-7.1,7.6c-0.7,0.8-1.7,2.1-3.8,4.7c-6.2,7.9-6.5,9-8.6,10.8
						c-1.8,1.5-4.7,3.5-9.3,4.6c-0.5,0.4-0.9,0.8-1.4,1.2c0,0-0.7,0.6-1.4,1.2c-1,0.9-6.5,7.1-13.7,15.7
						C275.2,391.2,270.4,386.3,265.5,381.3z"/>
					<path class="st5" d="M291.6,351.3c0-0.1,0.1-0.6,0.3-1.2c0.9-2.2,3.8-4.1,15.4-14.9c0.2-0.1,2.8-2.5,8.2-7.1
						c3-2.6,5.8-4.9,10-6.6c0.1-0.1,0.3-0.1,0.4-0.2c0.7-0.3,1.5,0.1,1.8,0.8c0.1,0.5,0.2,0.9,0.3,1.3c0.5,4-3.1,8.4-8.8,11.3
						c0,0,0,0-0.1,0c0,0,0,0-0.1,0c-8.7,5.8-14.9,15.9-14.9,15.9c-5.5,9.1-5.4,13.2-7.5,13.2C293.9,363.9,290.3,357.1,291.6,351.3z"
						/>
					<path class="st5" d="M286,358c3.5-7.6,15.8-21.5,17.2-22.8c0.7-0.6,1.4-1.4,2.3-2.5c0,0,4.4-5.4,10-9.1c0.1,0,0.3-0.1,0.5-0.2
						c0.7-0.3,1.4,0.1,1.6,0.8c0.2,0.6,0.3,1.2,0.3,1.4c-0.2,2.9-7.9,11.3-8.7,12.2c0,0-2.7,3-4.8,5.8c-7.8,10.6-3.1,20.4-8.8,25.6
						c-2.3,2.1-6.7,3.8-16.5,1.3C281.6,366.2,283.8,362.1,286,358z"/>
				</g>
			</g>
		</g>
	</g>
	<g style="clip-path:url(#SVGID_00000062193315915519325430000003913546540298283912_);">
		<g>
			<path class="st14" d="M484.3,543.8c-21.6,3-43.1,6.1-64.7,9.1c-3.7,23.3-7.5,46.5-11.2,69.8c28.4-1.7,56.7-3.3,85.1-5
				c7.1-2.4,31.7-11.7,46-37.4c7.1-12.9,9.1-25.1,9.6-32.8C527.5,546.1,505.9,545,484.3,543.8z"/>
			<g>
				<g>
					<g>
						<path class="st15" d="M400.7,573.9c9.3,0,18.6,0,27.9,0c2.5-20.8,5-41.6,7.5-62.4c2.5-60.5,5.1-102,8.1-114.9
							c0.7-3,3.7-14.3-1.2-25.7c-1-2.3-2-4-2.8-5.1c-0.7-0.5-7.4-5.6-15.7-3.1c-7.1,2.1-10.2,8.1-10.7,9.1
							c-3.3,30.6-6.1,62.4-8.3,95.3C403,504,401.5,539.6,400.7,573.9z"/>
					</g>
					<path class="st14" d="M421.3,534.9l129.3-1.5c2.5-58.3,5-116.6,7.4-174.8c-16.8-5.9-33.7-11.9-50.5-17.8
						c-7.3-1.2-16.9-1.9-28-0.6c-6.4,0.7-12,2-16.8,3.4c-6.7,3.3-13.5,6.6-20.2,10s-13.5,6.6-20.2,10c-0.1,8.4-0.5,84.7-1,169.5
						C421.3,533,421.3,534.9,421.3,534.9z"/>
					<path class="st16" d="M503.1,339.7c-2.1,2.1-5.1,4.7-9.3,6.9c-2.5,1.3-4.8,2.2-6.9,2.8c-2.2,3.9-4.3,7.7-6.5,11.6
						c-0.8-3.7-1.6-7.3-2.3-11c-0.8,0.2-2,0.3-3.3,0c-4.1-0.9-5.8-5.2-6-5.7c0-1.9,0-3.8-0.1-5.7l-0.4-34.7l34.3-0.4l0.3,29.4
						C503,335.1,503.1,337.4,503.1,339.7z"/>
					<path class="st17" d="M503,332.9c-3.3,2.6-6.3,4.3-8.6,5.4c-6.6,3.2-12,3.8-14.9,3.9c-3.2,0.1-4.9-0.2-6.4-0.8
						c-1.8-0.7-3.3-1.8-4.3-2.8l-0.4-34.7l34.3-0.4L503,332.9z"/>
					<path class="st18" d="M551.4,527.4c-8.1,2.1-12.5,3.8-15,5c-0.6,0.3-2.2,1.1-4.6,1.5c-2.4,0.5-4.5,0.3-5.4,0.1
						c-0.3,0-0.5-0.1-0.6-0.1c-1.9-0.3-33.7-0.9-104.5-1.8c-0.6,6.9-1.1,13.8-1.7,20.7c37.5-0.3,74.9-0.5,112.4-0.8
						c6.3-1.9,12.6-3.8,18.9-5.7C551.1,540,551.2,533.7,551.4,527.4z"/>
					<g>
						<path class="st15" d="M516.3,592c8.1,3,17.3,5.7,27.6,7.8c3.6,0.7,7.2,1.3,10.6,1.8c11.8-32.9,17.6-61.3,20.7-81.9
							c7.7-51.4,2.7-82.3-5.1-130.9c-2.4-14.9-5.2-28.3-12.7-30.1c-9.4-2.3-23.5,14.1-28.4,30.7c-4,13.4-1.3,24.8-0.1,30.6
							c3.8,18.1,7.3,44.5,6,81.4C528.6,531.6,522.5,561.8,516.3,592z"/>
					</g>
				</g>
				<g>
					<g>
						<path class="st16" d="M483.1,339.9c-2.3,0.6-4,1-6.2,0.7c-5.3-0.8-8.7-4.9-13.6-11.2c-2.6-3.4-5.5-7-8.1-12.7
							c-3.1-6.7-3.9-12.2-5-18.8c-1.1-6.6-1.4-12.5-1.3-17.5c0,0-1.3-12-1.6-15.1c-0.3-3.2,7.6-18.3,8.7-20.6
							c11.6-9.7,36.5-12.2,53.3,0.9c10.3,9.1,13.2,18.5,14.1,22.6c2.1,9.3,0.5,16.8-1.1,24.3c-1,4.4-3.1,12.1-8,20.5
							c-1.9,3.3-5.4,9.3-11.9,15.4C493.2,337.1,485.1,339.4,483.1,339.9z"/>
						<path class="st19" d="M520.4,237.6c-1.9-2.4-5.1-5.8-9.9-8.4c-8.9-4.8-17.6-3.8-25.6-2.8c-11.2,1.4-24.6,3.2-32.6,13.9
							c-4.6,6.3-5.6,13.2-6.5,19.1c-0.5,3.7-1.5,10.8,1,19.2c0.7,2.4,1.5,4.3,2.1,5.7c-0.2-3.2-0.2-7.5,0.6-12.4
							c0.8-4.5,2-8.2,3.2-11c3.2,0.7,6.5,1.2,10,1.6c19.7,2.2,36.7-1.8,48.9-6.2c-1.8,1.9-5.3,5.9-6.2,11.7c-0.3,1.6-0.6,4.2,0.5,7
							c1.1,2.7,2.8,3.8,3.7,4.9c2,2.4,2.9,7.3-2.2,18.8c1.5-0.1,4.7,0,5.5,0.5c4.1,2.4,4.1,6.3-0.6,16.4c-1.1,2.3-2.4,3.8-3.3,4.9
							c-0.5,0.6-1.2,1.5-2.8,3.4c-1,1.2-2.2,2.3-2.8,3c1.1,0.1,1.8-0.6,3.6-1.2c3.9-1.4,6-5.3,6.6-6.3c4.1-8.3,7.5-13.8,11.5-24.4
							c8-21.2,8.5-24.5,8.7-36.8c0.1-8.6-1.3-13.7-4.9-17C526.2,238.8,522.7,238,520.4,237.6z"/>
					</g>
					<path class="st16" d="M518.1,286.4c4.8-0.6,4,7.4,2.5,10.5c-1.4,3-3.4,10.3-6.6,12.7c-1.3,0.9-3.1,0-3.1-1.5
						C510.6,301.4,511.1,287.9,518.1,286.4z"/>
					<path class="st17" d="M471.5,310.6c1,0.1,2,0.2,3.2,0.1c1.6,0,3-0.2,4.2-0.4c-0.9,1.7-2.7,2.6-4.4,2.3
						C472.6,312.4,471.6,310.8,471.5,310.6z"/>
					<path class="st17" d="M472.5,325.6c0-0.2,1.2,0.1,3.2,0.1c2.7,0,4.1-0.6,4.2-0.4c0.1,0.3-1.9,1.5-4.2,1.4
						C473.9,326.7,472.4,325.9,472.5,325.6z"/>
					<path class="st17" d="M465.8,318.8c0.1-0.6,2.3-0.4,7.9-0.5c10-0.2,12.4-0.9,12.6-0.3c0.2,1-6.2,4.6-13.2,3.8
						C469.4,321.2,465.7,319.5,465.8,318.8z"/>
					<path class="st19" d="M463.7,281.8c-4.8-0.4-5.8-0.8-7.7-0.3c-3.3,0.8-4.9,3-5.2,2.7c-0.4-0.4,1.3-3.4,4.2-4.9
						c1.1-0.6,2.2-0.8,4.6-1c2.2-0.2,5.5-0.2,9.4,0.4c0.2,0.4,0.4,1.3,0.2,2.3c-0.1,0.4-0.3,0.8-0.4,1
						C467.6,282,465.8,281.9,463.7,281.8z"/>
					<path class="st19" d="M486.7,281.8c4.8-0.4,5.8-0.8,7.7-0.3c3.3,0.8,4.9,3,5.2,2.7c0.4-0.4-1.3-3.4-4.2-4.9
						c-1.1-0.6-2.2-0.8-4.6-1c-2.2-0.2-5.5-0.2-9.4,0.4c-0.2,0.4-0.4,1.3-0.2,2.3c0.1,0.4,0.3,0.8,0.4,1
						C482.8,282,484.6,281.9,486.7,281.8z"/>
					<g>
						<path class="st12" d="M481.5,290.8c1,0.8,3,2.1,5.8,2.5c4.7,0.7,8.2-1.6,9.1-2.2c-1.5-1.8-3.4-3-5.2-3.7
							c-0.8-0.3-1.9-0.7-3.2-0.6C484.4,286.9,482,290,481.5,290.8z"/>
						<path class="st20" d="M483.6,289.3c0,2.1,2.1,3.8,4,3.8c2.1,0,4.2-1.8,4-4c-0.1-0.7-0.4-1.3-0.8-1.8c-0.6-0.2-1.2-0.4-1.9-0.5
							c-0.8,0-1.5,0.1-2.2,0.3c-0.4,0.1-0.8,0.3-1.1,0.4c-0.8,0.4-1.5,0.8-2,1.3C483.6,288.9,483.6,289.1,483.6,289.3z"/>
						<path d="M489.6,289.6c-0.1,1.3-1.1,2.1-2.3,2c-1.1-0.2-2-1.3-1.9-2.5c0.1-1.2,1.1-2.1,2.2-2
							C488.8,287.2,489.7,288.3,489.6,289.6z"/>
						<path class="st12" d="M490.5,288.9c0,0.5-0.4,0.8-0.9,0.8c-0.4-0.1-0.8-0.5-0.7-0.9c0-0.5,0.4-0.8,0.9-0.8
							C490.2,288,490.5,288.4,490.5,288.9z"/>
						<path class="st21" d="M481.5,290.8c0.6-0.7,2.7-2.8,6-3.2c5.1-0.7,8.6,3.1,8.9,3.5c-2.8-4.2-7.5-5.9-10.9-4.4
							C483.1,287.6,481.9,289.8,481.5,290.8z"/>
					</g>
					<g>
						<path class="st12" d="M469.4,290.7c-0.7,0.6-5.1,3.8-10.1,2.2c-1.5-0.5-2.7-1.3-3.5-2c1.1-1.7,2.6-2.9,4.2-3.5
							c1.6-0.7,3.3-0.8,5-0.3c0.6,0.2,1,0.4,1.1,0.4C467.8,288.3,468.9,289.9,469.4,290.7z"/>
						<path class="st20" d="M465.7,289.6c0.1,2.2-1.8,3.9-3.7,3.8c-1.9-0.1-4-1.5-3.8-4.1c0-0.7,0.2-1.3,0.6-1.8
							c1.6-0.7,3.3-0.8,5-0.3c0.4,0.1,0.8,0.3,1.1,0.4C465.4,288.1,465.7,288.8,465.7,289.6z"/>
						<path d="M459.4,290c0.2,1.3,1.2,2.2,2.2,2.1c1.1-0.1,1.8-1.2,1.6-2.5c-0.2-1.3-1.2-2.2-2.2-2.1
							C460,287.6,459.2,288.7,459.4,290z"/>
						<path class="st12" d="M462,288.9c0.1,0.5,0.4,0.8,0.8,0.8c0.4,0,0.7-0.5,0.6-0.9c-0.1-0.5-0.4-0.8-0.8-0.8
							C462.2,288,461.9,288.5,462,288.9z"/>
						<path class="st21" d="M469.4,290.7c-0.3-0.4-3.4-3.8-7.8-3.3c-3.4,0.4-5.4,2.8-5.9,3.4c0.3-0.7,1.4-3.4,4-4.5
							C462.8,285.1,466.9,286.8,469.4,290.7z"/>
					</g>
				</g>
			</g>
		</g>
		<path class="st18" d="M503,335.7c-1.2,2.1-3.1,5-6.3,7.8c-3.7,3.3-7.4,5-9.8,5.9c1.7,1.3,5.7,4.7,7.6,10.7
			c1.1,3.4,1.1,6.4,0.9,8.4c3-3.6,6.5-8.7,9.4-15.3c1.9-4.4,3.1-8.5,3.9-12c-0.8-0.9-1.7-1.9-2.7-2.9C505,337.3,504,336.4,503,335.7
			z"/>
		<path class="st18" d="M468.8,337.9c-0.9,0.5-1.9,1.1-2.9,1.9c-2,1.5-3.4,3.1-4.4,4.4c0.8,2.8,1.7,5.7,2.8,8.7
			c1.9,5.3,4,10.2,6.1,14.5c1-3.2,2.4-6.6,4.1-10.3c1.2-2.6,2.4-5,3.7-7.1c-1.1-0.4-6.9-2.6-8.8-8.3
			C468.9,340.3,468.8,339,468.8,337.9z"/>
		<path class="st18" d="M478.1,350l1.1,5.8c0.2,1,0.5,1.9,0.7,2.9l0.8,2.9l-1.2-2.7c-0.4-0.9-0.8-1.8-1.1-2.7l-2-5.6L478.1,350z"/>
		<path class="st18" d="M487.1,349.4c-2,4.1-4,8.2-6,12.3l0-0.2c-0.5,6.8-0.9,13.7-1.3,20.5c-0.4,6.8-0.8,13.7-1,20.5
			c-0.7,13.7-0.9,27.4-1.3,41.1l-0.4-0.4c3.9,0.2,7.9,0.4,11.8,0.6c-4,0.1-7.9,0.1-11.9,0.2l-0.4,0l0-0.4
			c-0.1-6.9-0.2-13.7-0.2-20.6c0.1-6.9,0.3-13.7,0.5-20.6c0.3-6.9,0.8-13.7,1.3-20.5c0.5-6.8,1.2-13.7,2-20.5l0-0.1l0-0.1
			C482.6,357.3,484.8,353.3,487.1,349.4z"/>
	</g>
</g>
</svg>
