<?xml version="1.0" encoding="utf-8"?>
<!-- Generator: Adobe Illustrator 26.0.1, SVG Export Plug-In . SVG Version: 6.00 Build 0)  -->
<svg version="1.1" id="Layer_1" xmlns="http://www.w3.org/2000/svg" xmlns:xlink="http://www.w3.org/1999/xlink" x="0px" y="0px"
	 viewBox="0 0 826 742" style="enable-background:new 0 0 826 742;" xml:space="preserve">
<style type="text/css">
	.st0{clip-path:url(#SVGID_00000088822831792433313820000001627279388593065899_);}
	.st1{fill:#BDDEEF;}
	.st2{fill:#52A7C1;}
	.st3{fill:#2782AA;}
	.st4{fill:#EF303E;}
	.st5{fill:#C4233E;}
	.st6{fill:#414042;}
	.st7{fill:#58595B;}
	.st8{fill:#F24C4C;}
	.st9{fill:#395E99;}
	.st10{fill:#FFFFFF;}
	.st11{fill:#D1D1D1;}
	.st12{fill:#F4A671;}
	.st13{clip-path:url(#SVGID_00000080903243549405889940000001613024502268459661_);}
	.st14{fill:#F4CCAB;}
	.st15{fill:#E5E5E5;}
	.st16{fill:#383838;}
	.st17{fill:#262626;}
	.st18{fill:#DD915E;}
	.st19{fill:#1E1A14;}
	.st20{fill:#921F33;}
	.st21{fill:#CD3735;}
	.st22{fill:#6B3628;}
	.st23{fill:#140408;}
	.st24{fill:#666666;}
	.st25{fill:#FCB99B;}
	.st26{fill:#EA906C;}
	.st27{fill:#EACE73;}
	.st28{fill:#FCE9ED;}
	.st29{fill:#282125;}
	.st30{fill:#1F1A1C;}
	.st31{fill:#FFF7EF;}
	.st32{fill:#D1AF4E;}
	.st33{fill:#F5EFEC;}
	.st34{fill:none;stroke:#2E2A2B;stroke-width:0.1573;stroke-linecap:round;stroke-linejoin:round;stroke-miterlimit:10;}
	.st35{fill:#443E42;}
	.st36{fill:#2E2A2B;}
	.st37{fill:#524A50;}
	.st38{fill:#F4D3BB;}
	.st39{fill:#FC325E;}
	.st40{fill:#FF668E;}
	.st41{fill:#EF6F7B;}
	.st42{clip-path:url(#SVGID_00000088822831792433313820000001627279388593065899_);fill:#262626;}
	.st43{clip-path:url(#SVGID_00000088822831792433313820000001627279388593065899_);fill:#020202;}
	.st44{fill:#006293;}
	.st45{fill:#89513A;}
	.st46{fill:#B5794D;}
	.st47{fill:#CCCCCC;}
	.st48{fill:#431230;}
	.st49{fill:#580000;}
	.st50{fill:#990000;}
	.st51{fill:url(#SVGID_00000089543351589221475260000013788786881671459230_);}
	.st52{fill:url(#SVGID_00000182515197827508423060000003470332672227227797_);}
	.st53{fill:#E7372E;}
	.st54{fill:#C21111;}
	.st55{fill:#FFCC00;}
	.st56{fill:#3E8ACE;}
	.st57{fill:#CD070C;}
	.st58{fill:#E5060B;}
	.st59{fill:#0066A5;}
	.st60{fill:#576B7D;}
	.st61{fill:#5E7389;}
	.st62{fill:#EA4E5A;}
	.st63{fill:#EE252A;}
	.st64{clip-path:url(#SVGID_00000088822831792433313820000001627279388593065899_);fill:#FCB99B;}
	.st65{fill:#ED2448;}
	.st66{fill:none;stroke:#FC325E;stroke-width:0.8551;stroke-miterlimit:10;}
	.st67{clip-path:url(#SVGID_00000088822831792433313820000001627279388593065899_);fill:#666666;}
</style>
<g>
	<defs>
		<path id="SVGID_1_" d="M796.2,516.2c4,14.8,1,30.6-7.4,43.4C659.5,754.3,161.6,723.4,65.7,578c-83.2-126.2-16.6-238.3,82.6-280.1
			c-0.1-1.7,120.9-26.3,121.9-43.2c9.7-14.1,5.9-28.8,5.5-44.7c3.6-84.3,87.8-184.5,197.1-160.8c55.3,17.1,66.7,101.4,145.4,118.2
			c29.8,7.7,41.4,3.4,59.2,9.5c31.7,10.9,46.2,46.2,47.5,49.5c18.9,47.7-29.8,71.8-28.2,128.6C698.8,427.9,781.2,460,796.2,516.2z"
			/>
	</defs>
	<clipPath id="SVGID_00000057831999336041515320000002513288343670344325_">
		<use xlink:href="#SVGID_1_"  style="overflow:visible;"/>
	</clipPath>
	<g style="clip-path:url(#SVGID_00000057831999336041515320000002513288343670344325_);">
		<path class="st1" d="M796.2,516.2c4,14.8,1,30.6-7.4,43.4C659.5,754.3,161.6,723.4,65.7,578c-83.2-126.2-16.6-238.3,82.6-280.1
			c-0.1-1.7,120.9-26.3,121.9-43.2c9.7-14.1,5.9-28.8,5.5-44.7c3.6-84.3,87.8-184.5,197.1-160.8c55.3,17.1,66.7,101.4,145.4,118.2
			c29.8,7.7,41.4,3.4,59.2,9.5c31.7,10.9,46.2,46.2,47.5,49.5c18.9,47.7-29.8,71.8-28.2,128.6C698.8,427.9,781.2,460,796.2,516.2z"
			/>
		<path class="st2" d="M825.8,546.8c-2.7,10.9-9,29.8-24.7,49.5c-121.6,152-646.5,146.5-771.6-21.8c-22.2-29.8-28-59.6-29.5-79.2
			c142.5-6,292.2-9.5,448.7-9.6c121.6,0,239.2,2,352.4,5.7C818.3,507.6,830,524.9,825.8,546.8z"/>
		<ellipse class="st3" cx="407" cy="595" rx="278.4" ry="65.1"/>
	</g>
	<g style="clip-path:url(#SVGID_00000057831999336041515320000002513288343670344325_);">
		<g>
			<g>
				<g id="_x35__00000117651530475369010610000003349670895731174541_">
					<g>
						<path class="st4" d="M371.6,538.4C371.6,538.3,371.6,538.3,371.6,538.4c1.8-2,4.3-3.3,6.9-3.4c1,0,1.8,0.1,2.5,0.3
							c1.2,0.3,2.1,1.5,2,2.8l0,0c0,0-8.8,5.5-10.6,4.3c-0.3-0.2-0.6-0.4-0.8-0.7C370.8,540.7,370.8,539.3,371.6,538.4z"/>
						<path class="st5" d="M372.2,538.8C372.2,538.8,372.2,538.8,372.2,538.8c1.7-1.8,4-2.9,6.4-3.2c0.9-0.1,1.6,0,2.2,0.1
							c1.1,0.2,1.7,1.1,1.6,2.1l0,0c0,0-8.3,5-9.8,4.2c-0.3-0.1-0.5-0.3-0.6-0.5C371.3,540.8,371.4,539.6,372.2,538.8z"/>
					</g>
					<g>
						
							<rect x="385" y="537.8" transform="matrix(-0.8899 0.4561 -0.4561 -0.8899 976.8859 840.9127)" class="st6" width="4" height="1"/>
						<g>
							<g>
								
									<rect x="383.9" y="538.3" transform="matrix(0.8899 -0.4561 0.4561 0.8899 -203.5701 235.0687)" class="st4" width="2.6" height="1.9"/>
							</g>
							<path class="st7" d="M355.1,548.2c0-0.5,0.1-1,0.4-1.4l0.5,0.9L355.1,548.2z"/>
							<path class="st8" d="M351.8,547.9c2.4-1.3,5.5-3,8.8-4.7c0.3-0.1,0.5-0.3,0.8-0.4c1.5-0.8,3-1.6,4.4-2.3l1.5,0.5l-16.7,8.6
								C350.8,548.8,351.2,548.2,351.8,547.9z"/>
							<path class="st4" d="M350.9,551c-0.1-0.2-0.2-0.4-0.2-0.6c-0.1-0.3-0.1-0.7,0-1l16.7-8.6l0.9,0.3l0.4,3.5l0.2,1.9l0.1-0.8
								l12-6.2l0.1,0.2l0.6,1l0.7,1.1l-28.6,14.7L350.9,551z"/>
							<polygon class="st5" points="382.4,541.9 382.5,542.2 381.5,542.7 380.8,543.1 379.7,543.6 377.8,544.7 376.8,545.2 
								376,545.6 375.4,545.9 374.3,548.3 362.6,554.4 360.5,553.6 360.2,553.8 359.8,554 355.6,556.2 355.1,556.5 354.4,556.8 
								354,557.1 353.7,556.6 							"/>
							<polygon class="st9" points="363.5,545.9 365.1,546.4 368.6,544.7 368.7,545.9 368.9,545.8 368.9,546.9 358,552.5 
								356.5,551.7 356.4,549.5 							"/>
							<g>
								<path class="st6" d="M372.6,546.8c1.7,3.3,5.7,4.6,9,2.9c3.3-1.7,4.6-5.7,2.9-9c-1.7-3.3-5.7-4.6-9-2.9
									C372.2,539.5,370.9,543.5,372.6,546.8z"/>
								<g>
									<path class="st6" d="M375.8,537.1l1.4-0.7c0.4-0.2,0.8,0,0.9,0.4l0.3,1.2l-2.5,0.5l-0.3-0.6
										C375.4,537.6,375.5,537.2,375.8,537.1z"/>
									<path class="st6" d="M381.3,538.6l-2.4-0.8l0-0.6c0-0.3,0.3-0.6,0.6-0.6l1.6,0.1c0.4,0,0.7,0.4,0.5,0.8L381.3,538.6z"/>
									<path class="st6" d="M383.5,540.7l-1.7-1.9l0.3-0.5c0.2-0.3,0.6-0.4,0.8-0.2l1.4,0.9c0.3,0.2,0.4,0.7,0.1,1L383.5,540.7z"
										/>
									<path class="st6" d="M383.8,541l0.6-0.3c0.3-0.2,0.7,0,0.8,0.3l0.7,1.4c0.2,0.4,0,0.8-0.4,0.9l-1.2,0.3L383.8,541z"/>
									<path class="st6" d="M384.5,544l0.6,0c0.3,0,0.6,0.3,0.6,0.6l-0.1,1.6c0,0.4-0.4,0.7-0.8,0.5l-1.2-0.4L384.5,544z"/>
									<path class="st6" d="M384.1,547.3c0.3,0.2,0.4,0.6,0.2,0.8l-0.9,1.4c-0.2,0.3-0.7,0.4-1,0.1l-0.8-0.9l1.9-1.7L384.1,547.3z
										"/>
									<path class="st6" d="M378.7,549.5l2.5-0.5l0.3,0.6c0.2,0.3,0,0.7-0.3,0.8l-1.4,0.7c-0.4,0.2-0.8,0-0.9-0.4L378.7,549.5z"/>
									<path class="st6" d="M375.8,548.9l2.4,0.8l0,0.6c0,0.3-0.3,0.6-0.6,0.6l-1.6-0.1c-0.4,0-0.7-0.4-0.5-0.8L375.8,548.9z"/>
									<path class="st6" d="M372.7,547.6l0.9-0.8l1.7,1.9l-0.3,0.5c-0.2,0.3-0.6,0.4-0.8,0.2l-1.4-0.9
										C372.4,548.4,372.4,547.9,372.7,547.6z"/>
									<path class="st6" d="M373.3,546.5l-0.6,0.3c-0.3,0.2-0.7,0-0.8-0.3l-0.7-1.4c-0.2-0.4,0-0.8,0.4-0.9l1.2-0.3L373.3,546.5z"
										/>
									<path class="st6" d="M372.6,543.4l-0.6,0c-0.3,0-0.6-0.3-0.6-0.6l0.1-1.6c0-0.4,0.4-0.7,0.8-0.5l1.2,0.4L372.6,543.4z"/>
									<path class="st6" d="M373,540.2c-0.3-0.2-0.4-0.6-0.2-0.8l0.9-1.4c0.2-0.3,0.7-0.4,1-0.1l0.8,0.9l-1.9,1.7L373,540.2z"/>
								</g>
								<path class="st10" d="M374.7,545.7c-1.1-2.1-0.2-4.7,1.9-5.8c1-0.5,2.1-0.6,3-0.3l-2.6,8.2
									C376.1,547.4,375.2,546.7,374.7,545.7z"/>
								<path class="st11" d="M379.6,539.6c1.1,0.3,2.2,1.1,2.7,2.2c1.1,2.1,0.2,4.7-1.9,5.8c-1.1,0.6-2.4,0.6-3.5,0.2L379.6,539.6z
									"/>
								<path class="st6" d="M376.5,544.8c0.6,1.1,2,1.6,3.1,1c1.1-0.6,1.6-2,1-3.1c-0.6-1.1-2-1.6-3.1-1
									C376.4,542.3,375.9,543.7,376.5,544.8z"/>
								<g>
									<path class="st6" d="M378.3,539.8c0.2-0.1,0.5,0,0.6,0.2c0.1,0.2,0,0.5-0.2,0.6s-0.5,0-0.6-0.2
										C378,540.2,378.1,539.9,378.3,539.8z"/>
									<path class="st6" d="M380.9,540.5c0.3,0.1,0.4,0.3,0.4,0.6c-0.1,0.3-0.3,0.4-0.6,0.4c-0.3-0.1-0.4-0.3-0.4-0.6
										C380.4,540.6,380.6,540.5,380.9,540.5z"/>
									<path class="st6" d="M381.7,542.7c0.2-0.2,0.5-0.1,0.7,0.1c0.2,0.2,0.1,0.5-0.1,0.7c-0.2,0.2-0.5,0.1-0.7-0.1
										C381.5,543.1,381.5,542.8,381.7,542.7z"/>
									<path class="st6" d="M381.6,544.9c0.3,0,0.5,0.2,0.4,0.5c0,0.3-0.2,0.5-0.5,0.4c-0.3,0-0.5-0.2-0.4-0.5
										C381.2,545.1,381.4,544.9,381.6,544.9z"/>
									<path class="st6" d="M379.5,546.6c0.2-0.2,0.5-0.2,0.7,0c0.2,0.2,0.2,0.5,0,0.7c-0.2,0.2-0.5,0.2-0.7,0
										C379.3,547.1,379.3,546.8,379.5,546.6z"/>
									<path class="st6" d="M377.4,546.5c0.3,0,0.5,0.1,0.5,0.4c0,0.3-0.1,0.5-0.4,0.5c-0.3,0-0.5-0.1-0.5-0.4
										C376.9,546.7,377.1,546.5,377.4,546.5z"/>
									<path class="st6" d="M375.2,545.2c0.1-0.2,0.4-0.3,0.6-0.1c0.2,0.1,0.3,0.4,0.1,0.6c-0.1,0.2-0.4,0.3-0.6,0.1
										C375.1,545.7,375.1,545.4,375.2,545.2z"/>
									<path class="st6" d="M375.3,543.6c-0.2,0.1-0.5-0.1-0.6-0.3c-0.1-0.2,0.1-0.5,0.3-0.6c0.2-0.1,0.5,0.1,0.6,0.3
										S375.6,543.5,375.3,543.6z"/>
									<path class="st6" d="M376.5,540.6c0.2,0.1,0.3,0.4,0.2,0.6c-0.1,0.2-0.4,0.3-0.6,0.2c-0.2-0.1-0.3-0.4-0.2-0.6
										C376,540.6,376.3,540.5,376.5,540.6z"/>
								</g>
								<path class="st4" d="M377.5,544.3c0.3,0.6,1,0.8,1.6,0.5c0.6-0.3,0.8-1,0.5-1.6c-0.3-0.6-1-0.8-1.6-0.5
									C377.4,543,377.2,543.7,377.5,544.3z"/>
							</g>
							<g>
								<path class="st6" d="M353.5,559c1.3,2.6,4.5,3.6,7,2.3s3.6-4.5,2.3-7c-1.3-2.6-4.5-3.6-7-2.3
									C353.2,553.3,352.2,556.5,353.5,559z"/>
								<path class="st10" d="M354.8,558.4c-1-1.9-0.2-4.2,1.7-5.1c1-0.5,2-0.5,3-0.2l-2.3,7.3C356.1,560,355.3,559.4,354.8,558.4z"
									/>
								<path class="st11" d="M359.4,553.1c0.9,0.3,1.7,1,2.1,1.9c1,1.9,0.2,4.2-1.7,5.1c-0.9,0.5-1.9,0.5-2.8,0.3L359.4,553.1z"/>
								<path class="st6" d="M357,557.2c0.3,0.6,1.1,0.9,1.8,0.6c0.6-0.3,0.9-1.1,0.6-1.8c-0.3-0.6-1.1-0.9-1.8-0.6
									S356.7,556.6,357,557.2z"/>
								<g>
									<circle class="st6" cx="358.2" cy="553.5" r="0.4"/>
									<path class="st6" d="M360.3,553.8c0.2,0.1,0.4,0.3,0.3,0.5c-0.1,0.2-0.3,0.4-0.5,0.3c-0.2-0.1-0.4-0.3-0.3-0.5
										C359.8,553.9,360,553.8,360.3,553.8z"/>
									<path class="st6" d="M361,555.7c0.2-0.1,0.4-0.1,0.6,0.1c0.1,0.2,0.1,0.4-0.1,0.6c-0.2,0.1-0.4,0.1-0.6-0.1
										C360.8,556.1,360.8,555.8,361,555.7z"/>
									<path class="st6" d="M360.9,557.7c0.2,0,0.4,0.2,0.4,0.4c0,0.2-0.2,0.4-0.4,0.4c-0.2,0-0.4-0.2-0.4-0.4
										C360.5,557.9,360.7,557.7,360.9,557.7z"/>
									<path class="st6" d="M359,559.2c0.2-0.2,0.4-0.2,0.6,0c0.2,0.2,0.2,0.4,0,0.6c-0.2,0.2-0.4,0.2-0.6,0
										C358.9,559.6,358.8,559.4,359,559.2z"/>
									<path class="st6" d="M357.2,559.1c0.2,0,0.4,0.1,0.5,0.4c0,0.2-0.1,0.4-0.4,0.5c-0.2,0-0.4-0.1-0.5-0.4
										C356.8,559.3,356.9,559.1,357.2,559.1z"/>
									<path class="st6" d="M355.2,557.9c0.1-0.2,0.4-0.2,0.6-0.1c0.2,0.1,0.2,0.4,0.1,0.6c-0.1,0.2-0.4,0.2-0.6,0.1
										C355.2,558.4,355.1,558.1,355.2,557.9z"/>
									<path class="st6" d="M355.3,556.5c-0.2,0.1-0.5-0.1-0.5-0.3c-0.1-0.2,0.1-0.5,0.3-0.5c0.2-0.1,0.5,0.1,0.5,0.3
										C355.7,556.2,355.5,556.4,355.3,556.5z"/>
									<path class="st6" d="M356.4,553.9c0.2,0.1,0.3,0.3,0.2,0.5c-0.1,0.2-0.3,0.3-0.5,0.2c-0.2-0.1-0.3-0.3-0.2-0.5
										C355.9,553.9,356.2,553.8,356.4,553.9z"/>
								</g>
							</g>
							<g>
								<path class="st6" d="M350.9,551l0.1,0.1l1-0.5c0.1-0.1,0.2-0.1,0.2-0.2c0-0.1,0-0.2,0-0.3c-0.1-0.2-0.3-0.3-0.5-0.2
									l-0.9,0.5C350.7,550.6,350.8,550.8,350.9,551z"/>
								<path class="st6" d="M351.1,551.5l0.4,0.7l1-0.5c0.1-0.1,0.2-0.1,0.2-0.2c0-0.1,0-0.2,0-0.3c-0.1-0.2-0.3-0.3-0.5-0.2
									L351.1,551.5z"/>
								<path class="st6" d="M351.6,552.5l0.4,0.7l1-0.5c0.1-0.1,0.2-0.1,0.2-0.2c0-0.1,0-0.2,0-0.3c-0.1-0.2-0.3-0.3-0.5-0.2
									L351.6,552.5z"/>
								<path class="st6" d="M352.2,553.6l0.4,0.7l1-0.5c0.1-0.1,0.2-0.1,0.2-0.2c0-0.1,0-0.2,0-0.3c-0.1-0.2-0.3-0.3-0.5-0.2
									L352.2,553.6z"/>
								
									<rect x="362.6" y="542.3" transform="matrix(0.8899 -0.4561 0.4561 0.8899 -207.3655 225.8582)" class="st6" width="3.3" height="0.4"/>
								
									<rect x="363" y="543" transform="matrix(0.8899 -0.4561 0.4561 0.8899 -207.653 226.1056)" class="st6" width="3.3" height="0.4"/>
								
									<rect x="363.3" y="543.8" transform="matrix(0.8899 -0.4561 0.4561 0.8899 -207.9407 226.3531)" class="st6" width="3.3" height="0.4"/>
							</g>
							<path class="st6" d="M365.7,540c0.3,0.2,0.6,0.3,1,0.4l-0.1,0.2l0.8,0.5l0.1-0.6c0.7,0,1.3-0.1,1.7-0.3l0,0
								c0.4-0.2,0.6-0.4,0.6-0.7c0.1-0.7-1-1.3-2.3-1.4c-0.7-0.1-1.4,0.1-1.9,0.3c-0.4,0.2-0.6,0.4-0.6,0.7
								C365,539.4,365.2,539.8,365.7,540z M369.2,538.9l-1.7,1.2l-0.6-0.1l-1-1.4c0.4-0.1,1-0.2,1.5-0.2
								C368.2,538.4,368.8,538.6,369.2,538.9z M369.1,540c-0.4,0.2-0.9,0.3-1.4,0.3l1.7-1.2c0.1,0.1,0.2,0.3,0.2,0.4
								C369.6,539.6,369.4,539.8,369.1,540L369.1,540z M365.3,539.1c0-0.2,0.2-0.4,0.4-0.5c0,0,0,0,0,0l1,1.4l0,0.1
								c-0.3-0.1-0.6-0.2-0.9-0.3C365.5,539.6,365.3,539.4,365.3,539.1z"/>
						</g>
					</g>
				</g>
				<g>
					<path class="st12" d="M385.7,535.7c2.4,2.2,1.8,6.1-1.2,7.4c-0.3,0.1-0.6,0.2-1,0.3c-2,0.4-3.8,0.6-3.8,0.6s-3.6,2.8-4.9,2.9
						c-1.5,0.2-2.3-0.4-2.3-1c0-0.6,2.8-2.4,3.6-3.2c0.9-0.7,2.8-2.2,2.8-2.2l-4.1-1.9c0,0-6,3.7-7.1,3.5c-1.1-0.2-1.3-0.5-1.3-0.5
						s-2.7,1.4-3.7-0.3c4.7-4,7.4-5.5,8.8-6.1C372.9,534.7,384.4,534.6,385.7,535.7C385.7,535.7,385.7,535.7,385.7,535.7z"/>
					<path class="st12" d="M386.5,539.9c0,0-3.2,0.3-5.1-0.4c-1.9-0.7-7.9-3.9-7.9-3.9s-3.7,1.9-4.7,2.5c-1,0.6-2.8,2.5-4,2.7
						c-1.2,0.2-2.1-0.3-1.9-0.7c0.2-0.4,3.5-4,4.1-4.5c0.5-0.5,4.7-3.1,6-3.5c1.3-0.4,7.1,0.4,10.4,1.7
						C386.6,535.2,386.8,539.2,386.5,539.9z"/>
				</g>
				<path class="st12" d="M386,538.2c0.6,1.1,0.3,2.4,0.9,2.5c0.4,0.1,0.6-0.4,1.7-0.8c0.5-0.2,0.9-0.3,1.5-0.3
					c0.8-0.1,2-0.3,3.7-0.4c-0.3-2.2-0.6-4.5-0.9-6.7c-1.8,0.7-3.2,1-4.2,1c-2.6,0.2-5.8-0.4-6-0.4c-1.5-0.2-3.1-0.2-3.1-0.2
					s0.5,1.6,0.7,1.7C382,537,384.9,536.2,386,538.2z"/>
				<g>
					<defs>
						<path id="SVGID_00000108304333568208550890000013935554572777309106_" d="M373.3,536.8c1.2,0,2.6-0.1,3.8,0.8
							c1.2,0.8,1.6,2.2,1.8,3.1c-1.8,1.1-4.7,2.5-8.4,3.1c-3.5,0.6-10.6,1.1-11.7-1.5c-0.7-1.9,1.6-5.2,4.4-6.4
							C366.1,534.8,367,537,373.3,536.8z"/>
					</defs>
					<clipPath id="SVGID_00000116221771406599887790000016149590764058024608_">
						<use xlink:href="#SVGID_00000108304333568208550890000013935554572777309106_"  style="overflow:visible;"/>
					</clipPath>
					
						<g id="_x35__00000111161573829930391460000007369389263857794236_" style="clip-path:url(#SVGID_00000116221771406599887790000016149590764058024608_);">
						<g>
							<path class="st4" d="M371.6,538.4C371.6,538.3,371.6,538.3,371.6,538.4c1.8-2,4.3-3.3,6.9-3.4c1,0,1.8,0.1,2.5,0.3
								c1.2,0.3,2.1,1.5,2,2.8l0,0c0,0-8.8,5.5-10.6,4.3c-0.3-0.2-0.6-0.4-0.8-0.7C370.8,540.7,370.8,539.3,371.6,538.4z"/>
							<path class="st5" d="M372.2,538.8C372.2,538.8,372.2,538.8,372.2,538.8c1.7-1.8,4-2.9,6.4-3.2c0.9-0.1,1.6,0,2.2,0.1
								c1.1,0.2,1.7,1.1,1.6,2.1l0,0c0,0-8.3,5-9.8,4.2c-0.3-0.1-0.5-0.3-0.6-0.5C371.3,540.8,371.4,539.6,372.2,538.8z"/>
						</g>
						<g>
							
								<rect x="385" y="537.8" transform="matrix(-0.8899 0.4561 -0.4561 -0.8899 976.8859 840.9127)" class="st6" width="4" height="1"/>
							<g>
								<g>
									
										<rect x="383.9" y="538.3" transform="matrix(0.8899 -0.4561 0.4561 0.8899 -203.5701 235.0687)" class="st4" width="2.6" height="1.9"/>
								</g>
								<path class="st7" d="M355.1,548.2c0-0.5,0.1-1,0.4-1.4l0.5,0.9L355.1,548.2z"/>
								<path class="st8" d="M351.8,547.9c2.4-1.3,5.5-3,8.8-4.7c0.3-0.1,0.5-0.3,0.8-0.4c1.5-0.8,3-1.6,4.4-2.3l1.5,0.5l-16.7,8.6
									C350.8,548.8,351.2,548.2,351.8,547.9z"/>
								<path class="st4" d="M350.9,551c-0.1-0.2-0.2-0.4-0.2-0.6c-0.1-0.3-0.1-0.7,0-1l16.7-8.6l0.9,0.3l0.4,3.5l0.2,1.9l0.1-0.8
									l12-6.2l0.1,0.2l0.6,1l0.7,1.1l-28.6,14.7L350.9,551z"/>
								<polygon class="st5" points="382.4,541.9 382.5,542.2 381.5,542.7 380.8,543.1 379.7,543.6 377.8,544.7 376.8,545.2 
									376,545.6 375.4,545.9 374.3,548.3 362.6,554.4 360.5,553.6 360.2,553.8 359.8,554 355.6,556.2 355.1,556.5 354.4,556.8 
									354,557.1 353.7,556.6 								"/>
								<polygon class="st9" points="363.5,545.9 365.1,546.4 368.6,544.7 368.7,545.9 368.9,545.8 368.9,546.9 358,552.5 
									356.5,551.7 356.4,549.5 								"/>
								<g>
									<path class="st6" d="M372.6,546.8c1.7,3.3,5.7,4.6,9,2.9c3.3-1.7,4.6-5.7,2.9-9c-1.7-3.3-5.7-4.6-9-2.9
										C372.2,539.5,370.9,543.5,372.6,546.8z"/>
									<g>
										<path class="st6" d="M375.8,537.1l1.4-0.7c0.4-0.2,0.8,0,0.9,0.4l0.3,1.2l-2.5,0.5l-0.3-0.6
											C375.4,537.6,375.5,537.2,375.8,537.1z"/>
										<path class="st6" d="M381.3,538.6l-2.4-0.8l0-0.6c0-0.3,0.3-0.6,0.6-0.6l1.6,0.1c0.4,0,0.7,0.4,0.5,0.8L381.3,538.6z"/>
										<path class="st6" d="M383.5,540.7l-1.7-1.9l0.3-0.5c0.2-0.3,0.6-0.4,0.8-0.2l1.4,0.9c0.3,0.2,0.4,0.7,0.1,1L383.5,540.7z"
											/>
										<path class="st6" d="M383.8,541l0.6-0.3c0.3-0.2,0.7,0,0.8,0.3l0.7,1.4c0.2,0.4,0,0.8-0.4,0.9l-1.2,0.3L383.8,541z"/>
										<path class="st6" d="M384.5,544l0.6,0c0.3,0,0.6,0.3,0.6,0.6l-0.1,1.6c0,0.4-0.4,0.7-0.8,0.5l-1.2-0.4L384.5,544z"/>
										<path class="st6" d="M384.1,547.3c0.3,0.2,0.4,0.6,0.2,0.8l-0.9,1.4c-0.2,0.3-0.7,0.4-1,0.1l-0.8-0.9l1.9-1.7L384.1,547.3
											z"/>
										<path class="st6" d="M378.7,549.5l2.5-0.5l0.3,0.6c0.2,0.3,0,0.7-0.3,0.8l-1.4,0.7c-0.4,0.2-0.8,0-0.9-0.4L378.7,549.5z"
											/>
										<path class="st6" d="M375.8,548.9l2.4,0.8l0,0.6c0,0.3-0.3,0.6-0.6,0.6l-1.6-0.1c-0.4,0-0.7-0.4-0.5-0.8L375.8,548.9z"/>
										<path class="st6" d="M372.7,547.6l0.9-0.8l1.7,1.9l-0.3,0.5c-0.2,0.3-0.6,0.4-0.8,0.2l-1.4-0.9
											C372.4,548.4,372.4,547.9,372.7,547.6z"/>
										<path class="st6" d="M373.3,546.5l-0.6,0.3c-0.3,0.2-0.7,0-0.8-0.3l-0.7-1.4c-0.2-0.4,0-0.8,0.4-0.9l1.2-0.3L373.3,546.5z
											"/>
										<path class="st6" d="M372.6,543.4l-0.6,0c-0.3,0-0.6-0.3-0.6-0.6l0.1-1.6c0-0.4,0.4-0.7,0.8-0.5l1.2,0.4L372.6,543.4z"/>
										<path class="st6" d="M373,540.2c-0.3-0.2-0.4-0.6-0.2-0.8l0.9-1.4c0.2-0.3,0.7-0.4,1-0.1l0.8,0.9l-1.9,1.7L373,540.2z"/>
									</g>
									<path class="st10" d="M374.7,545.7c-1.1-2.1-0.2-4.7,1.9-5.8c1-0.5,2.1-0.6,3-0.3l-2.6,8.2
										C376.1,547.4,375.2,546.7,374.7,545.7z"/>
									<path class="st11" d="M379.6,539.6c1.1,0.3,2.2,1.1,2.7,2.2c1.1,2.1,0.2,4.7-1.9,5.8c-1.1,0.6-2.4,0.6-3.5,0.2L379.6,539.6
										z"/>
									<path class="st6" d="M376.5,544.8c0.6,1.1,2,1.6,3.1,1c1.1-0.6,1.6-2,1-3.1c-0.6-1.1-2-1.6-3.1-1
										C376.4,542.3,375.9,543.7,376.5,544.8z"/>
									<g>
										<path class="st6" d="M378.3,539.8c0.2-0.1,0.5,0,0.6,0.2c0.1,0.2,0,0.5-0.2,0.6s-0.5,0-0.6-0.2
											C378,540.2,378.1,539.9,378.3,539.8z"/>
										<path class="st6" d="M380.9,540.5c0.3,0.1,0.4,0.3,0.4,0.6c-0.1,0.3-0.3,0.4-0.6,0.4c-0.3-0.1-0.4-0.3-0.4-0.6
											C380.4,540.6,380.6,540.5,380.9,540.5z"/>
										<path class="st6" d="M381.7,542.7c0.2-0.2,0.5-0.1,0.7,0.1c0.2,0.2,0.1,0.5-0.1,0.7c-0.2,0.2-0.5,0.1-0.7-0.1
											C381.5,543.1,381.5,542.8,381.7,542.7z"/>
										<path class="st6" d="M381.6,544.9c0.3,0,0.5,0.2,0.4,0.5c0,0.3-0.2,0.5-0.5,0.4c-0.3,0-0.5-0.2-0.4-0.5
											C381.2,545.1,381.4,544.9,381.6,544.9z"/>
										<path class="st6" d="M379.5,546.6c0.2-0.2,0.5-0.2,0.7,0c0.2,0.2,0.2,0.5,0,0.7c-0.2,0.2-0.5,0.2-0.7,0
											C379.3,547.1,379.3,546.8,379.5,546.6z"/>
										<path class="st6" d="M377.4,546.5c0.3,0,0.5,0.1,0.5,0.4c0,0.3-0.1,0.5-0.4,0.5c-0.3,0-0.5-0.1-0.5-0.4
											C376.9,546.7,377.1,546.5,377.4,546.5z"/>
										<path class="st6" d="M375.2,545.2c0.1-0.2,0.4-0.3,0.6-0.1c0.2,0.1,0.3,0.4,0.1,0.6c-0.1,0.2-0.4,0.3-0.6,0.1
											C375.1,545.7,375.1,545.4,375.2,545.2z"/>
										<path class="st6" d="M375.3,543.6c-0.2,0.1-0.5-0.1-0.6-0.3c-0.1-0.2,0.1-0.5,0.3-0.6c0.2-0.1,0.5,0.1,0.6,0.3
											S375.6,543.5,375.3,543.6z"/>
										<path class="st6" d="M376.5,540.6c0.2,0.1,0.3,0.4,0.2,0.6c-0.1,0.2-0.4,0.3-0.6,0.2c-0.2-0.1-0.3-0.4-0.2-0.6
											C376,540.6,376.3,540.5,376.5,540.6z"/>
									</g>
									<path class="st4" d="M377.5,544.3c0.3,0.6,1,0.8,1.6,0.5c0.6-0.3,0.8-1,0.5-1.6c-0.3-0.6-1-0.8-1.6-0.5
										C377.4,543,377.2,543.7,377.5,544.3z"/>
								</g>
								<g>
									<path class="st6" d="M353.5,559c1.3,2.6,4.5,3.6,7,2.3s3.6-4.5,2.3-7c-1.3-2.6-4.5-3.6-7-2.3
										C353.2,553.3,352.2,556.5,353.5,559z"/>
									<path class="st10" d="M354.8,558.4c-1-1.9-0.2-4.2,1.7-5.1c1-0.5,2-0.5,3-0.2l-2.3,7.3C356.1,560,355.3,559.4,354.8,558.4z
										"/>
									<path class="st11" d="M359.4,553.1c0.9,0.3,1.7,1,2.1,1.9c1,1.9,0.2,4.2-1.7,5.1c-0.9,0.5-1.9,0.5-2.8,0.3L359.4,553.1z"/>
									<path class="st6" d="M357,557.2c0.3,0.6,1.1,0.9,1.8,0.6c0.6-0.3,0.9-1.1,0.6-1.8c-0.3-0.6-1.1-0.9-1.8-0.6
										S356.7,556.6,357,557.2z"/>
									<g>
										<circle class="st6" cx="358.2" cy="553.5" r="0.4"/>
										<path class="st6" d="M360.3,553.8c0.2,0.1,0.4,0.3,0.3,0.5c-0.1,0.2-0.3,0.4-0.5,0.3c-0.2-0.1-0.4-0.3-0.3-0.5
											C359.8,553.9,360,553.8,360.3,553.8z"/>
										<path class="st6" d="M361,555.7c0.2-0.1,0.4-0.1,0.6,0.1c0.1,0.2,0.1,0.4-0.1,0.6c-0.2,0.1-0.4,0.1-0.6-0.1
											C360.8,556.1,360.8,555.8,361,555.7z"/>
										<path class="st6" d="M360.9,557.7c0.2,0,0.4,0.2,0.4,0.4c0,0.2-0.2,0.4-0.4,0.4c-0.2,0-0.4-0.2-0.4-0.4
											C360.5,557.9,360.7,557.7,360.9,557.7z"/>
										<path class="st6" d="M359,559.2c0.2-0.2,0.4-0.2,0.6,0c0.2,0.2,0.2,0.4,0,0.6c-0.2,0.2-0.4,0.2-0.6,0
											C358.9,559.6,358.8,559.4,359,559.2z"/>
										<path class="st6" d="M357.2,559.1c0.2,0,0.4,0.1,0.5,0.4c0,0.2-0.1,0.4-0.4,0.5c-0.2,0-0.4-0.1-0.5-0.4
											C356.8,559.3,356.9,559.1,357.2,559.1z"/>
										<path class="st6" d="M355.2,557.9c0.1-0.2,0.4-0.2,0.6-0.1c0.2,0.1,0.2,0.4,0.1,0.6c-0.1,0.2-0.4,0.2-0.6,0.1
											C355.2,558.4,355.1,558.1,355.2,557.9z"/>
										<path class="st6" d="M355.3,556.5c-0.2,0.1-0.5-0.1-0.5-0.3c-0.1-0.2,0.1-0.5,0.3-0.5c0.2-0.1,0.5,0.1,0.5,0.3
											C355.7,556.2,355.5,556.4,355.3,556.5z"/>
										<path class="st6" d="M356.4,553.9c0.2,0.1,0.3,0.3,0.2,0.5c-0.1,0.2-0.3,0.3-0.5,0.2c-0.2-0.1-0.3-0.3-0.2-0.5
											C355.9,553.9,356.2,553.8,356.4,553.9z"/>
									</g>
								</g>
								<g>
									<path class="st6" d="M350.9,551l0.1,0.1l1-0.5c0.1-0.1,0.2-0.1,0.2-0.2c0-0.1,0-0.2,0-0.3c-0.1-0.2-0.3-0.3-0.5-0.2
										l-0.9,0.5C350.7,550.6,350.8,550.8,350.9,551z"/>
									<path class="st6" d="M351.1,551.5l0.4,0.7l1-0.5c0.1-0.1,0.2-0.1,0.2-0.2c0-0.1,0-0.2,0-0.3c-0.1-0.2-0.3-0.3-0.5-0.2
										L351.1,551.5z"/>
									<path class="st6" d="M351.6,552.5l0.4,0.7l1-0.5c0.1-0.1,0.2-0.1,0.2-0.2c0-0.1,0-0.2,0-0.3c-0.1-0.2-0.3-0.3-0.5-0.2
										L351.6,552.5z"/>
									<path class="st6" d="M352.2,553.6l0.4,0.7l1-0.5c0.1-0.1,0.2-0.1,0.2-0.2c0-0.1,0-0.2,0-0.3c-0.1-0.2-0.3-0.3-0.5-0.2
										L352.2,553.6z"/>
									
										<rect x="362.6" y="542.3" transform="matrix(0.8899 -0.4561 0.4561 0.8899 -207.3655 225.8582)" class="st6" width="3.3" height="0.4"/>
									
										<rect x="363" y="543" transform="matrix(0.8899 -0.4561 0.4561 0.8899 -207.653 226.1056)" class="st6" width="3.3" height="0.4"/>
									
										<rect x="363.3" y="543.8" transform="matrix(0.8899 -0.4561 0.4561 0.8899 -207.9407 226.3531)" class="st6" width="3.3" height="0.4"/>
								</g>
								<path class="st6" d="M365.7,540c0.3,0.2,0.6,0.3,1,0.4l-0.1,0.2l0.8,0.5l0.1-0.6c0.7,0,1.3-0.1,1.7-0.3l0,0
									c0.4-0.2,0.6-0.4,0.6-0.7c0.1-0.7-1-1.3-2.3-1.4c-0.7-0.1-1.4,0.1-1.9,0.3c-0.4,0.2-0.6,0.4-0.6,0.7
									C365,539.4,365.2,539.8,365.7,540z M369.2,538.9l-1.7,1.2l-0.6-0.1l-1-1.4c0.4-0.1,1-0.2,1.5-0.2
									C368.2,538.4,368.8,538.6,369.2,538.9z M369.1,540c-0.4,0.2-0.9,0.3-1.4,0.3l1.7-1.2c0.1,0.1,0.2,0.3,0.2,0.4
									C369.6,539.6,369.4,539.8,369.1,540L369.1,540z M365.3,539.1c0-0.2,0.2-0.4,0.4-0.5c0,0,0,0,0,0l1,1.4l0,0.1
									c-0.3-0.1-0.6-0.2-0.9-0.3C365.5,539.6,365.3,539.4,365.3,539.1z"/>
							</g>
						</g>
					</g>
				</g>
			</g>
			<g>
				<g>
					<path class="st14" d="M469.5,577.8c4.6-1.2,9.3-2.3,13.9-3.5c0,3.4,0,6.8,0.1,10.3c-4.7,0.9-9.3,1.7-14,2.6
						C469.5,584,469.5,580.9,469.5,577.8z"/>
				</g>
				<g>
					<g>
						<g>
							<path class="st10" d="M414.6,528.4c-8.4,4.8-16.7,9.6-25.1,14.3c-0.9-0.5-3.2-2.1-4.4-5.2c-1-2.4-0.9-4.6-0.7-5.6
								c7.2-4.1,14.3-8.3,21.5-12.4c4.7-12.4,9.3-24.9,14-37.3c-0.2,13.7-0.5,27.5-0.7,41.2C417.6,525,416.1,526.7,414.6,528.4z"/>
							<path class="st15" d="M425.3,560c4.4,2.3,8.5,2.4,27.7,3.3c2.7,0.1,5.4,0.1,8.1,0.2c0.1-0.8,0.3-1.5,0.4-2.3
								c3.3-33.9,5.7-58.8,5.8-59.8c0-1.3,0-2.5,0-2.5c0,0,0,0,0,0c0,0,0,0,0,0c0-3.5-1.9-11.4-1.9-11.4c-0.5-1.7-1.1-4.2-1.6-7.3
								c-6.7-1.8-13.3-3.7-20-5.5c-1.8,0.1-3.6,0.2-5.5,0.3c-2.5,0.2-4.9,0.5-7.2,0.9c-3.7,2.1-7.5,4.2-11.2,6.3
								c-1.2,14.5-2,29.7-2.4,45.4c-0.2,8.7-0.3,17.2-0.3,25.5C420.1,556.8,423.2,558.8,425.3,560z"/>
							<path class="st16" d="M469.4,587.5c-10.7,3-51,14.1-76.6,13.4c-17.1-0.4-20.9-5.9-21.8-7.7c-1.3-2.4-1.4-4.9-1.3-6.7
								c-3.7-0.7-7.8-2.1-8.8-5.1c0-0.1-0.1-0.2-0.1-0.4c-1.1-3.9-0.6-6.4,0-8c2.5-6.1,11-8.4,24.4-11.9c2.2-0.6,4.7-1.2,7.8-1.8
								c9.3-1.9,17.1-2.7,22.6-3c5.8,0.1,12.3,0.5,19.3,1.4c1.8,0.2,3.7,0.5,5.6,0.8c6.9,1.1,13.1,2.6,18.7,4.2
								c3.3-0.5,6.6-1,10-1.5C469.2,570,469.3,578.7,469.4,587.5z"/>
							<path class="st17" d="M434.8,557.8c-9.5,3.7-17.4,6.3-23,7.9c-20.3,6-34,7.4-41,18.7c-0.5,0.9-0.9,1.6-1.1,2.1
								c-3.7-0.7-7.8-2.1-8.8-5.1c0-0.1-0.1-0.2-0.1-0.4c-1.1-3.9-0.6-6.4,0-8c2.5-6.1,11-8.4,24.4-11.9c0.9-0.3,2-0.5,3-0.8
								c0,0,2.4-0.6,4.8-1C395.8,558.8,412.2,557.6,434.8,557.8z"/>
						</g>
						<g>
							<g>
								<path class="st12" d="M443,466.6l-12.5,0.4l-0.1,11.3c0.9,1.4,1.7,1.9,2.4,2.1c0.4,0.1,0.8,0.1,1.3,0.4
									c0.6,0.4,1,1.1,1.1,1.6c0.6-1,1.3-2,1.9-3c1-0.5,2.1-1.1,3.1-1.6c1.2-0.6,2.4-1.3,3.5-1.9L443,466.6z"/>
								<path class="st18" d="M430.5,474.2l0.1-6.2c4.1-1.4,8.3-2.7,12.4-4.1c0.1,2.1,0.1,4.2,0.2,6.3
									C440.1,472.3,435.8,474.3,430.5,474.2z"/>
								<path class="st19" d="M436.4,410.8c-2.4,0.2-6.1,0.6-10,2.8c-9.5,5.5-12.2,18-11.4,26.5c0.2,2.2,0.6,3.9,1,5
									c0,0,0,0.1,0.1,0.1c0.5,0.8,1,1.5,1.5,2.3c1.8,2.5,3.6,4.7,5.4,6.7c7.5-5.4,26.4,5.8,26.4,5.8c1-0.3,2.4-0.7,3.8-1.6
									c9.4-5.7,9.5-20,9.5-23.3c0-4.2,0-8.7-2.9-13.6c-2.8-4.8-6.8-7.1-8.3-7.9C445.2,410.1,439.1,410.6,436.4,410.8z"/>
								<path class="st12" d="M415.7,447.7c0.2-9-0.6-9.9-0.2-15c0.2-2.4,0.8-6,2.5-10.2c0-0.1-0.1-0.4,0-0.7
									c0.7-4.2,14.4-7.9,25.5-4.6c2.6,0.8,7,2.5,11.6,6.8c1,2.5,2.2,6.2,2.6,10.9c0.8,10.5-3.4,18.3-5.5,21.9
									c-2.8,5-5.6,10-11.7,12.6c-3.6,1.5-7,1.6-9.2,1.4c-0.8-0.1-2.1-0.2-3.8-0.8c-5.1-1.7-7.8-5.8-8.7-7.1
									c-2.2-3.4-2.8-6.6-3.1-8.4C415.4,452.1,415.6,450.9,415.7,447.7z"/>
								<path d="M434.4,441.5c2.5-0.2,4.3,0,5.5,0.3c0.8,0.2,1.4,0.3,1.9,0.6c1.4,0.6,2.3,1.6,2.7,2.2c-1-0.6-2.6-1.4-4.8-1.9
									c-2.2-0.4-4.1-0.3-5.3-0.1c-0.1,0-0.2-0.2-0.3-0.5C434.2,441.8,434.4,441.6,434.4,441.5z"/>
								<path d="M424.7,442.4c-0.8-0.3-2.1-0.7-3.8-0.6c-1.8,0-3.1,0.5-4,0.8c0.4-0.4,1-1.1,2-1.4c0.6-0.2,1.1-0.3,2-0.3
									c1.3-0.1,2.7,0.1,4,0.4c0,0,0.2,0.4,0,0.8C425,442.2,424.8,442.3,424.7,442.4z"/>
								<path class="st19" d="M447.8,430.3c-0.5,1.4-1.1,3.5-1.1,5.9c0.1,2.5,0.8,4.1,1.4,6.2c0.7,2.3,1.4,5.5,1.4,9.8
									c1.6-0.5,4.9-1.8,7.4-5c0.7-0.9,1.9-3.2,3.1-7.8c0.6-2.1,2.3-10.8-2.1-18.2c-6.5-10.8-22.6-11.5-32-8.7
									c-1.9,0.6-3.3,1-4.8,2.1c-10.5,7.4-5.7,28.4-5.2,30.5c-0.1-1.6,0-3.5,0.3-5.7c0.5-3.3,1.4-6,2.3-8c0.3,0.1,0.9,0.4,1.6,0.7
									c3.1,1.2,12.6,4.3,22.7,0.6C443.9,432.4,445.7,431.6,447.8,430.3z"/>
								<g>
									<g>
										<path class="st18" d="M427.7,453.7c-0.1,0.9,0.8,1.6,1.6,1.6c0.7,0,1.3-0.7,1.3-1.4c-0.1,0.1-0.7,0.6-1.6,0.5
											C428.3,454.3,427.8,453.9,427.7,453.7z"/>
									</g>
								</g>
								<g>
									<path class="st12" d="M451.2,446.5c0.7-2.1,3.1-3.5,4.8-2.2c2.6,2,2.3,6.8,0.8,9.4c-0.9,1.6-3.1,3.6-4.6,2.4
										C450.3,454.7,450,450.4,451.2,446.5z"/>
								</g>
								<g>
									<path class="st20" d="M429.4,459.1c2.8,0.1,5.5-0.8,6.2,0.7c0.5,1.1-0.9,5.2-5.9,5.1c-3.5-0.1-5.9-3.2-5.5-5.1
										C424.5,458.2,426.4,459,429.4,459.1z"/>
									<path class="st21" d="M435.6,461c-0.4,1.6-2.1,4-5.9,3.8c-1.7-0.1-3.2-0.8-4.2-1.8C427.9,460.2,432.1,459.2,435.6,461z"/>
									<path class="st10" d="M435.6,459.7c0,0.1,0.1,0.2,0.1,0.4c-4,2.4-9.4,1.9-10.4-1.3c0.9-0.1,2.4,0.2,4.2,0.2
										C432.2,459,434.9,458.2,435.6,459.7z"/>
								</g>
							</g>
							<g>
								<g>
									<path class="st10" d="M434.7,446.4c0.3,0.5,0.9,1.2,1.9,1.7c1.6,0.7,3.7,0.3,5.3-1.2c-0.4-0.4-1.1-1.1-2.2-1.6
										c-0.7-0.3-1.6-0.6-2.7-0.4C435.7,445.2,435,446.1,434.7,446.4z"/>
									<path class="st22" d="M436.3,445.6c-0.3,0.7-0.2,1.4,0.2,1.9c0.3,0.3,0.7,0.6,1.1,0.7c0,0,0,0,0,0c0,0,0.5,0.1,1-0.1
										c0.5-0.1,1.5-0.7,1.5-1.7c0-0.5-0.2-0.9-0.3-1c-0.6-0.9-2-1.1-2.9-0.5C436.6,445.1,436.4,445.4,436.3,445.6z"/>
									<path class="st23" d="M436.8,446.1c-0.2,0.5,0.1,1,0.1,1.1c0.2,0.3,0.6,0.4,0.6,0.5c0,0,0,0,0,0c0,0,0.3,0.1,0.6,0
										c0.2,0,0.6-0.2,0.9-0.6c0-0.1,0.3-0.5,0-1c-0.3-0.6-1.1-0.7-1.7-0.5C437.2,445.6,436.9,445.7,436.8,446.1z"/>
									<path class="st10" d="M438.2,446c-0.1,0.1,0,0.2,0,0.2c0,0.1,0.1,0.1,0.1,0.1c0,0,0,0,0,0c0,0,0.1,0,0.1,0
										c0,0,0.1,0,0.2-0.1c0,0,0.1-0.1,0-0.2c-0.1-0.1-0.3-0.2-0.4-0.1C438.3,445.9,438.3,445.9,438.2,446z"/>
									<path class="st23" d="M434.7,446.4c0.1-0.2,1.1-1.9,2.9-2.1c2.6-0.3,4.4,2.4,4.3,2.6c-0.1,0.1-1.7-1.6-4-1.6
										C436.7,445.3,435.6,445.8,434.7,446.4z"/>
								</g>
							</g>
							<g>
								<g>
									<path class="st10" d="M417.9,445.6c0.3,0.5,0.8,1.2,1.8,1.7c1.6,0.7,3.5,0.3,5-1.2c-0.4-0.4-1-1.1-2.1-1.6
										c-0.6-0.3-1.5-0.6-2.5-0.4C418.9,444.4,418.2,445.3,417.9,445.6z"/>
									<path class="st22" d="M419.4,444.7c-0.3,0.7-0.2,1.5,0.2,2c0.2,0.3,0.7,0.6,1,0.7c0,0,0,0,0,0c0,0,0.5,0.1,1-0.1
										c0.5-0.2,1.3-0.7,1.4-1.6c0-0.1,0.1-0.6-0.2-1.1c-0.5-0.9-1.9-1-2.8-0.5C419.7,444.3,419.5,444.5,419.4,444.7z"/>
									<path class="st23" d="M419.8,445.3c-0.2,0.5,0.1,1,0.1,1.1c0.2,0.3,0.5,0.4,0.6,0.5c0,0,0,0,0,0c0,0,0.3,0.1,0.6,0
										c0.2,0,0.6-0.2,0.8-0.6c0-0.1,0.2-0.5,0-1c-0.3-0.6-1.1-0.7-1.6-0.5C420.3,444.8,420,444.9,419.8,445.3z"/>
									<path class="st10" d="M420.2,445c-0.1,0.1,0,0.2,0,0.2c0,0.1,0.1,0.1,0.1,0.1c0,0,0,0,0,0c0,0,0.1,0,0.1,0
										c0,0,0.1,0,0.2-0.1c0,0,0.1-0.1,0-0.2c-0.1-0.1-0.2-0.2-0.4-0.1C420.3,444.9,420.2,444.9,420.2,445z"/>
									<path class="st23" d="M417.9,445.6c0.1-0.2,1-1.9,2.8-2.1c2.5-0.3,4.2,2.4,4.1,2.6c-0.1,0.1-1.6-1.6-3.7-1.6
										C419.8,444.4,418.7,445,417.9,445.6z"/>
								</g>
							</g>
						</g>
					</g>
					<path class="st12" d="M409.4,553.7c-1.5,0.4-2.9,0.8-4.4,1.2c-2.6,0-4.9,0.3-6.7,0.6c-2.4,0.5-6.4,1.5-6.3,2.2
						c0,0.2,0.4,0.4,1.1,0.7c0.9,0.4,1.7,0.4,2.2,0.4c-1.5,0.7-3,1.4-4.4,2.1c-2.7,1.3-5.4,2.5-8.1,3.8c-0.5,0.2-0.7,0.7-0.6,1
						c0.1,0.4,0.8,0.7,1.4,0.3c2.9-0.9,5.8-1.8,8.8-2.6c-3.1,1.3-6.2,2.6-9.3,3.8c-0.4,0.3-0.6,0.8-0.4,1.2c0.2,0.5,0.8,0.7,1.4,0.5
						c7.1-2.9,10.9-4.1,10.7-4.1c-3,1.5-6.1,3-9.1,4.4c-0.3,0.3-0.4,0.8-0.2,1.1c0.2,0.4,0.7,0.6,1.2,0.4c3.5-1.4,6.9-2.9,10.4-4.3
						c-2.2,1.2-4.4,2.4-6.7,3.6c-0.2,0.3-0.2,0.7,0,1c0.2,0.4,0.7,0.6,1.1,0.4c3.1-1.1,6.1-2.1,9.2-3.2c1.1-0.2,3.5-0.8,5.8-2.7
						c1.6-1.4,2.5-2.9,3-3.8c1.5-0.6,3.1-1.2,4.6-1.8C412.4,558.1,410.9,555.9,409.4,553.7z"/>
				</g>
				<path class="st10" d="M449.4,495.8c-1,10.3-2.2,20.7-3.4,31.2c-0.4,3.7-0.9,7.4-1.3,11.1c-12.8,5.2-25.7,10.3-38.5,15.5
					c-0.3,0.8-0.9,2.8-0.4,5.1c0.8,3.7,3.8,5.5,4.4,5.8c16.9-5.2,33.8-10.4,50.7-15.6c0.5-11.7,1.4-24,2.9-36.9
					c0.8-6.9,2.5-11,2.7-20.1c0-1.6,0-4.6-1.9-7.2c-1.2-1.6-2.7-2.5-3.7-2.9c-1.7,0.8-4.9,2.6-7.6,6.1
					C450.8,490.9,449.8,494,449.4,495.8z"/>
			</g>
			<path class="st24" d="M430.5,476.1c0.3,0.7,0.7,1.5,1.3,2.3c0.7,1,1.5,1.7,2.1,2.2c-0.4,0.3-0.9,0.9-1.3,1.6
				c-0.7,1.3-0.8,2.5-0.8,3.2c-0.7-0.7-1.7-1.9-2.4-3.7c-0.7-1.8-0.8-3.5-0.8-4.4C429.2,476.8,429.9,476.5,430.5,476.1z"/>
		</g>
		<g>
			<g>
				<path class="st25" d="M536.2,346c-4.6,17.6-9.2,35.2-13.9,52.7c-13,3-26.8,6.8-41.2,11.6c-7,2.3-13.7,4.7-20.2,7.2
					c-0.7-3-1.4-6-2-9c4.7-2.3,9.4-4.7,14.2-7.2c11.8-6.1,23-12.3,33.8-18.5c5.1-21.1,10.2-42.2,15.2-63.3
					C526.9,328.4,531.5,337.2,536.2,346z"/>
			</g>
		</g>
		<g>
			<g>
				<g>
					<g>
						<path class="st25" d="M459.9,417.8c0,0-1.2,1.7-4.6,1.9c-2.2,0.2-7.7-0.4-12.2,0.3c-1.6,0.3-1.2-2.6,2-3.2
							c1.5-0.3,4.1-1.1,4.8-1.2c1.8-0.5,2.6-3.9,2.6-3.9L459.9,417.8z"/>
					</g>
					<g>
						<path class="st25" d="M462.2,416.9c-2.2,1.4-3.9,3-7.8,1.6c-2.8-1-5.4-2.2-7.6-3.2c-2,1-4.6,2.4-4.9,3.1
							c-0.4,1-1.3,4.1-1.7,5.8c-0.5,1.7-2.1,1.5-2.1,0.3c0.1-1.2,0.3-5.4,0.9-6.4c0.6-1,1.7-2.6,1.7-2.6s-3.3,2.1-4.2,3
							c-0.9,0.9-3.1,5.3-3.7,6c-0.6,0.7-2.4,0.3-2.1-1.4c-1,1.1-2.7-0.4-2.1-1.6c0.5-1.2,2.1-5.4,3.2-6.7c0.6-0.7,2.6-1.9,3.5-2.6
							c0.6-0.6,0.4-0.6,0-0.5c-2.2,0.8-3.6,1.8-6.4,2.7c-2.3,0.8-3.8-0.7-1.7-1.8c1-0.5,5-2.7,8.1-4.1c1.7-0.8,5.1-0.1,7.8,0.2
							c4.7,0.5,11.6,1.1,12.5,0.9c5.7-1.5,10.3-3.6,10.3-3.6l3.8,7.6C469.6,413.6,463.8,415.8,462.2,416.9z"/>
					</g>
					<g>
						<g>
							<path class="st26" d="M438.6,412.9c0,0-1.2,0.7-2.4,1.6l0,0c-1.2,0.9-2.5,1.8-2.9,2.3l0,0c-0.7,1-2.6,6-2.6,6l0,0l0,0
								c0,0.1,0,0.2,0.1,0.3l0,0c0.1,0,0.2,0,0.3-0.1l0,0c0,0,0.5-1.3,1.1-2.6l0,0c0.6-1.4,1.2-2.9,1.5-3.3l0,0
								c0.3-0.4,1.6-1.4,2.8-2.2l0,0c1.2-0.8,2.4-1.6,2.4-1.6l0,0c0.1-0.1,0.1-0.2,0.1-0.3l0,0c0-0.1-0.1-0.1-0.2-0.1l0,0
								C438.7,412.9,438.6,412.9,438.6,412.9L438.6,412.9z"/>
						</g>
					</g>
				</g>
			</g>
		</g>
	</g>
	<g style="clip-path:url(#SVGID_00000057831999336041515320000002513288343670344325_);">
		<path class="st19" d="M239,456.5c0,0,5.6,0.6,9.4-4.4c-1.3,5-3.1,6.3-3.1,6.3s26.3-5,17.6-33.2l2.5-23.2c-0.8-0.8-1.5-1.5-2.3-2.2
			c-14.9-12.9-29.3-0.7-22.2,17.2c0.9,2.3,1.6,4.6,2,6.9c0,0,0,0,0,0C246.3,440.6,239,456.5,239,456.5z"/>
		<g>
			<g>
				<path class="st27" d="M318.7,549c7.6-3.8,9.7-10.3,9.7-10.3l-0.7-1.7l-0.7-1.7c0,0-6.2-2.8-14.2,0.1c-7.9,3-3.9,9.7-3.9,9.7
					S311.2,552.8,318.7,549z"/>
				<path class="st28" d="M317.6,546.8c5.4-2.4,10.9-8.3,10.9-8.3l-0.7-1.5l-0.7-1.5c0,0-8,0-13.4,2.3c-4.1,1.7-5.5,4.1-4.1,7.1
					C310.8,548,313.5,548.6,317.6,546.8z"/>
				<g>
					<g>
						<path class="st27" d="M326.8,534.9c0.2,0.8-0.7,0.5-1.5,0.3c-5.7-1.7-10.3-1.7-11.1-1.6c-1.8,0.3-3.8,1.2-4.4-1
							c-0.8-2.7,3.7-3.3,7.6-2.5C321,531,326.4,533.4,326.8,534.9z"/>
					</g>
					<g>
						<path class="st27" d="M328.7,539.1c-0.4-0.7-0.9,0.1-1.2,0.9c-2.6,5.4-5.8,8.7-6.4,9.1c-1.5,1.1-3.4,1.9-2.3,3.9
							c1.4,2.4,5-0.5,7-3.9C327.6,546.1,329.5,540.5,328.7,539.1z"/>
					</g>
				</g>
				<path class="st27" d="M310.7,541.8c-1.7,1-2.9,1-3.9,0c-1.2-1.2-0.7-3.3,0.3-5c1.6-2.7,5.4-2.7,6.6-0.4
					C314.8,538.4,312.4,540.8,310.7,541.8z"/>
				<path class="st28" d="M310.5,540.7c-0.8,0.9-2.1,1.1-2.9,0.4c-0.8-0.7-0.9-2-0.1-2.9c0.8-0.9,2.1-1.1,2.9-0.4
					C311.2,538.5,311.3,539.8,310.5,540.7z"/>
				<path class="st28" d="M313,538c-0.4,0.5-1.1,0.6-1.5,0.3c-0.4-0.3-0.4-1,0-1.5c0.4-0.5,1.1-0.6,1.5-0.3
					C313.5,536.8,313.5,537.5,313,538z"/>
				<path class="st28" d="M311.4,536.7c-0.3,0.5-0.8,0.6-1.2,0.4c-0.4-0.2-0.4-0.8-0.2-1.2c0.3-0.5,0.8-0.6,1.2-0.4
					C311.6,535.7,311.7,536.2,311.4,536.7z"/>
				<path class="st28" d="M309.5,536.5c-0.2,0.4-0.6,0.7-0.9,0.5c-0.3-0.1-0.5-0.6-0.3-1c0.2-0.4,0.6-0.7,0.9-0.5
					C309.5,535.6,309.7,536.1,309.5,536.5z"/>
				<path class="st27" d="M312.7,546.5c-1.9,0.6-2.7,1.5-2.7,2.8c0,1.7,1.9,2.8,3.9,3.2c3,0.7,5.6-2.1,4.8-4.5
					C318,545.8,314.6,545.9,312.7,546.5z"/>
				<path class="st28" d="M313.4,547.3c-1.2-0.1-2.2,0.8-2.3,1.9c-0.1,1.1,0.9,2,2.1,2.1c1.2,0.1,2.2-0.8,2.3-1.9
					C315.5,548.3,314.6,547.4,313.4,547.3z"/>
				<path class="st28" d="M317.1,547.3c-0.7,0-1.2,0.4-1.2,0.9c0,0.5,0.5,1,1.1,1c0.7,0,1.2-0.4,1.2-0.9
					C318.3,547.8,317.8,547.4,317.1,547.3z"/>
				<path class="st28" d="M316.9,549.4c-0.5-0.1-1,0.1-1.1,0.6c-0.1,0.4,0.3,0.9,0.8,1c0.5,0.1,1-0.1,1.1-0.6
					C317.8,550,317.5,549.6,316.9,549.4z"/>
				<path class="st28" d="M315.8,550.9c-0.4-0.2-0.9,0-1,0.3c-0.1,0.3,0.1,0.8,0.5,0.9c0.4,0.2,0.9,0,1-0.3
					C316.4,551.5,316.2,551.1,315.8,550.9z"/>
			</g>
			<g>
				<path class="st27" d="M339.4,541.7c1.4-1.9,1.9-3.4,1.8-5.8c-0.3-5.2-3.6-10.6-10.1-12.1c-2.8-0.6-4.5,0.5-5.8,3.6
					c-1.4,3.3-2.6,6.8-1.2,10.1c1.2,2.7,4.6,5.3,7.6,6.2C336.2,545,337.6,544.1,339.4,541.7z"/>
				<path class="st28" d="M341.2,535.9c-0.2-3.7-1.9-7.6-5.3-10c-1.1,1.7-2.7,4.2-4,5.6c-2.7,2.8-6.9,3.8-6.2,5.3
					c0.7,1.5,5.7-0.8,8-0.8c2.7,0,5.8,0.5,7.5,0.9C341.2,536.6,341.2,536.2,341.2,535.9z"/>
				<g>
					<g>
						<path class="st29" d="M327.8,532.3c-0.7,0.3-1.6,0-1.9-0.7c-0.3-0.7,0-1.5,0.7-1.9c0.7-0.3,1.5,0,1.9,0.7
							C328.9,531.2,328.5,532,327.8,532.3z"/>
						<path class="st30" d="M327.3,531.9c-0.4,0.2-0.8,0-0.9-0.4c-0.2-0.4,0-0.8,0.4-0.9c0.4-0.2,0.8,0,0.9,0.4
							C327.9,531.3,327.7,531.8,327.3,531.9z"/>
						<path class="st31" d="M326.6,530.2c0.6-0.3,1.3,0,1.5,0.6c0.2,0.5,0.1,1-0.3,1.3c0.5-0.3,0.7-1,0.5-1.5
							c-0.3-0.6-1-0.9-1.6-0.6c-0.5,0.2-0.8,0.7-0.7,1.2C326,530.8,326.3,530.4,326.6,530.2z"/>
						<path class="st31" d="M327.6,531c-0.2,0.1-0.3,0-0.4-0.2c-0.1-0.2,0-0.3,0.2-0.4c0.2-0.1,0.3,0,0.4,0.2
							C327.8,530.8,327.8,530.9,327.6,531z"/>
						<path class="st31" d="M327,530.8c-0.1,0-0.2,0-0.3-0.1c0-0.1,0-0.2,0.1-0.3c0.1,0,0.2,0,0.3,0.1
							C327.1,530.7,327.1,530.8,327,530.8z"/>
					</g>
					<g>
						<path class="st29" d="M330.5,538.5c-0.7,0.3-1,1.1-0.7,1.9c0.3,0.7,1.1,1,1.9,0.7c0.7-0.3,1-1.1,0.7-1.9
							C332,538.5,331.2,538.2,330.5,538.5z"/>
						<path class="st30" d="M330.5,539.1c-0.4,0.2-0.5,0.6-0.4,0.9c0.2,0.4,0.6,0.5,0.9,0.4c0.4-0.2,0.5-0.6,0.4-0.9
							C331.3,539.1,330.8,538.9,330.5,539.1z"/>
						<path class="st31" d="M331.2,540.8c0.6-0.3,0.8-0.9,0.6-1.5c-0.2-0.5-0.7-0.7-1.2-0.7c0.6-0.1,1.2,0.1,1.4,0.7
							c0.3,0.6,0,1.3-0.6,1.6c-0.5,0.2-1,0.1-1.4-0.3C330.4,540.9,330.8,540.9,331.2,540.8z"/>
						<path class="st31" d="M331.3,539.5c-0.2,0.1-0.2,0.2-0.2,0.4c0.1,0.2,0.2,0.2,0.4,0.2c0.2-0.1,0.2-0.2,0.2-0.4
							C331.6,539.5,331.5,539.5,331.3,539.5z"/>
						<path class="st31" d="M331,540.1c-0.1,0-0.1,0.2-0.1,0.3c0,0.1,0.2,0.1,0.3,0.1c0.1,0,0.1-0.2,0.1-0.3
							C331.2,540.1,331.1,540.1,331,540.1z"/>
					</g>
				</g>
				<g>
					<g>
						<path class="st27" d="M355,544.4c1-0.4,3.2-1.3,0.8-4c-1.8-2-3.8-3.1-5.5-3.7c-4-1.6-7.8-2.6-11.1-1.3c0,0-0.8,2.8-0.2,3.2
							c0,0,5.2,3.8,7.6,4.7C349.6,544.6,352.5,545.4,355,544.4z"/>
					</g>
					<g>
						<path class="st28" d="M351.4,542.3c4.4-0.7-2.3-4.1-3.6-4.5c-3.1-1.2-7.3-1.5-8.6-1.8c0,0-0.8,1.1-0.5,2.2
							c0,0,4.4,2.1,6.3,2.8C347.3,541.9,349.4,542.6,351.4,542.3z"/>
					</g>
				</g>
				<g>
					<g>
						<path class="st32" d="M340.6,518.4c-1.1-0.5-2.2-0.9-3.3-1.4c-0.3-0.1-0.6-0.3-1-0.4c-0.1,0.2-0.2,0.4-0.3,0.5
							c-1.4,2.8-2.4,8.9-2.4,8.9c0,0.3,2.5,2.2,2.5,2.2c3.2-2.1,5.1-4.7,6.9-8.1C342.1,519.5,341.5,518.7,340.6,518.4z"/>
					</g>
					<g>
						<path class="st28" d="M341.5,519.2c0,0-4.1-0.9-4.8,0.6c-1,2.1-2.8,6.5-2.8,6.5c0,0.2,1.9,1.6,1.9,1.6
							C336.7,526.7,339.8,522.7,341.5,519.2z"/>
					</g>
					<g>
						<path class="st27" d="M339.8,515.4c-0.8-0.7-2.8-0.5-4.9-0.3c-1.3,0.1-6.3,2.1-5.9,3c0.3,0.9,8.2,2.8,9.6,2.7
							C341.3,520.8,346.5,521.6,339.8,515.4z"/>
					</g>
				</g>
				<path class="st33" d="M325.5,539.7c1.2,0.2,2-3,1.6-3.6c-0.3-0.7-1.1-0.8-2.4-1.4c-0.7-0.4-1.1-0.1-1.4,0.2
					c0.1,0.9,0.2,1.8,0.6,2.6C324.4,538.3,324.9,539,325.5,539.7z"/>
				<g>
					<g>
						<path class="st34" d="M325.4,536.9c0,0-0.5,0.2-0.8,0.4c-0.3,0.1-0.8-0.2-0.3-0.9"/>
					</g>
					<g>
						<path class="st34" d="M325.4,536.9c0,0-0.5,0.2-0.8,0.4c-0.3,0.1-0.4,0.7,0.5,0.9"/>
					</g>
				</g>
				<g>
					<path class="st35" d="M326.2,537.9c-0.3-0.1-0.7-0.3-1-0.6c-0.1-0.2-0.3-0.6-0.3-0.8c0-0.4,0.1-0.8,0.3-1.1
						c0.1-0.2,0.8-0.7,1.4,0.8C327.2,537.9,326.4,538,326.2,537.9z"/>
					<g>
						<g>
							<path class="st36" d="M324.8,536.6c0.1,0,0.2,0,0.3,0c0.2-0.1,0.3-0.4,0.1-0.8c0-0.1-0.1-0.2-0.2-0.3
								C324.9,535.8,324.8,536.2,324.8,536.6z"/>
							<path class="st36" d="M326.2,537.9c0-0.1,0-0.2-0.1-0.3c-0.2-0.4-0.4-0.5-0.7-0.5c-0.1,0-0.2,0.1-0.2,0.2
								C325.5,537.7,325.8,537.9,326.2,537.9z"/>
						</g>
					</g>
					<path class="st37" d="M326.6,537.1c0,0,0.1-0.4-0.4-1.2c-0.5-0.6-0.9-0.5-0.9-0.4c0,0.1,0.3,0.5,0.2,0.9
						C325.4,536.8,325.8,535.6,326.6,537.1z"/>
				</g>
				<g>
					<path class="st38" d="M324.6,535.9c-0.3,0.1-0.6,0-0.7-0.3c-0.1-0.3,0-0.6,0.3-0.7c0.3-0.1,0.6,0,0.7,0.3
						C325,535.5,324.8,535.8,324.6,535.9z"/>
					<path class="st38" d="M325.9,539c-0.3,0.1-0.6,0-0.7-0.3c-0.1-0.3,0-0.6,0.3-0.7c0.3-0.1,0.6,0,0.7,0.3
						C326.3,538.6,326.2,538.9,325.9,539z"/>
				</g>
			</g>
		</g>
		<path class="st25" d="M297.5,477.3c5.8,15,11.5,30,17.3,44.9c-0.2,1.2-0.3,2.7-0.2,4.4c0.2,2.7,0.9,4.8,1.5,6.3
			c0.9,1.8,1.5,2.6,1.8,2.5c0.3-0.1,0.2-1.5-0.3-4.1c0.9,3.7,2.5,6,3.6,7.2c0.2,0.2,3.1,3.4,4.1,2.8c0.1-0.1,0.2-0.2,0.2-0.3
			c0.3-0.7-1.2-1.6-2.4-3.3c-1.1-1.5-1.5-2.9-1.4-3c0.1,0,0.6,1.4,1.9,3c1.4,1.8,3.6,3.7,4.3,3.2c0,0,0.1-0.1,0.2-0.3
			c0.4-0.9-1.4-2.7-4.6-7.4c4.1,5.3,5,6.4,5.5,6.1c0.8-0.4-0.1-1.6-3.3-7.4c-0.1-0.2-0.1-0.3,0-0.3c0,0,0.1,0.1,0.1,0.2
			c0.2,0.4,1.6,3.2,2.7,3c0.1,0,0.2,0,0.3-0.1c0.5-0.4-0.7-1.9-1.8-5.2c-0.3-0.8-0.4-1.4-0.6-1.9c-0.5-1.8-0.4-1.9-0.7-2.7
			c-0.4-1.1-0.9-1.8-1.7-2.9c-0.4-0.5-0.7-1-1.3-1.5c-0.1-0.1-0.1-0.1-0.1-0.1C322.1,519.9,315.1,508,297.5,477.3z"/>
		<path class="st39" d="M293.8,480.3c-3.3-8.3-6.6-18-2.2-26.2c0.4-0.7,0.8-1.3,1.2-2c1.6,0.5,3.7,1.4,5.8,2.8c0,0,0,0,0,0
			c0,0,0,0,0,0c1.5,1,2.9,2,4.4,3.1c2.3,9,4.9,18.3,8,28c3,9.4,6.1,18.2,9.2,26.6c3.2,2.9,6.3,5.8,9.5,8.7
			c-2.8,0.2-6.6,0.9-10.8,2.6c-3.6,1.4-6.4,3.2-8.4,4.6c0.1-3.9,0.3-7.9,0.4-11.8C302.9,502.1,297.4,489.6,293.8,480.3z"/>
		<g>
			<g>
				<path class="st25" d="M281.7,552c0.7,11.8,1.4,23.6,2.1,35.4c-0.2,0.7-0.4,1.9-0.9,3.4c-1.3,4.4-3.1,10.6-8.2,14.5
					c-1.2,0.9-4.3,3.4-6.6,2.4c-1.3-0.6-1.8-2-2-2.5c-1.2-3.4,1.3-6.4,3.9-13.2c1-2.5,1.6-4.7,2-6.3c-1.7-9.2-3.4-18.5-5.1-27.7
					C271.9,556,276.8,554,281.7,552z"/>
				<path class="st17" d="M268.4,604.1c1.3,0.5,2.6-0.1,3.1-0.4c3.5-1.7,4.2-4.4,8.8-9.3c0.6-0.6,1.5-1.6,2.3-3.1
					c0.8-1.6,1.2-3,1.3-4c0.2,0.6,0.4,1.3,0.6,2c0.3,1.2,0.5,2.3,0.6,3.3c-0.9,2.2-1.7,3.7-2.3,4.5c-0.1,0.3-0.4,0.7-0.7,1.1
					c-0.6,1-1.1,1.7-1.7,2.6c-4.3,6.7-5.1,9-8,11c-0.3,0.2-1.4,0.9-3,1.2c-0.7,0.1-2.9,0.6-4.3-0.7c0,0-0.1-0.1-0.1-0.1
					c-1.3-1.3-1.4-3.2-1.4-3.9c-0.1-2.4,1-5,1.9-7.2c1.9-4.3,3.4-7.1,3.6-7c0.3,0.1-3.7,7.6-1.8,9.4
					C267.7,603.7,268,603.9,268.4,604.1z"/>
				<path class="st25" d="M250.2,571c-2.2,6-5,12.6-8.7,19.7c-2.9,5.5-5.9,10.5-8.9,14.9c-1.2,1.8-2.4,3.5-3.5,5.1
					c0.1,1,0.1,1.9,0.2,2.9c0.1,1.4,0.2,2.7,0.2,4.1c0.1,1.1-0.5,2.2-1.5,2.7c-0.1,0-0.1,0.1-0.2,0.1c-1.2,0.6-2.6,1.4-4,2.6
					c-3.7,3.1-3.8,5.7-6.6,8.9c-0.6,0.7-1.3,1.4-2,2.1c0,0,0,0,0,0c-4.3,3.2-10.2,4.3-12,2.4c-0.1-0.1-0.1-0.1-0.1-0.2
					c-0.1-2,0.9-4.8,1.5-6.6c1.2-3.3,2.5-5.7,4.1-7.8c3-4.1,6.5-7.1,9.9-13c0.9-1.6,1.7-3.6,2.7-6.7c0.6-1.9,1.4-4.2,2.3-7
					c3-9.3,5-17.2,6.3-22.9C236.7,571.9,243.5,571.5,250.2,571z"/>
				<path class="st39" d="M216.3,606.3c6.2,0.7,12.5,1.4,18.7,2c5.3-12.1,10.6-24.2,16-36.3c1.4-3.1,3-6.3,4.8-9.6
					c3.9-7,8.1-13,12.1-17.9c-6.6-3-13.1-6-19.7-8.9c-3.2,1.3-9.8,4.4-15.5,11.3c-6,7.4-7.6,15-8.1,18.4
					C221.9,579,219.1,592.7,216.3,606.3z"/>
				<path class="st39" d="M266.2,587c2,0.5,4.6,0.9,7.6,0.9c6.2-0.1,10.9-2,13.7-3.4c-0.7-8.3-0.7-19.9,2.9-33
					c1.5-5.6,3.5-10.5,5.4-14.7c-6.2-6-15.3-7.5-22.2-3.7c-8.2,4.4-9.3,13.8-9.4,14.6C264.8,560.8,265.5,573.9,266.2,587z"/>
			</g>
			<path class="st40" d="M298.6,550.4c-1.1,7.5-2.9,17.5-5.7,29.3c-4.2,2.7-10.6,6-18.6,6.3c-5.4,0.2-6.5-1.2-11.5-1.7
				c-15.5-1.6-21.6,9.6-36,8.9c-3.6-0.2-9.2-1.2-16-5.7c0.6-8.5,3.3-31.5,21.2-50.3c6.5-6.9,13.4-11.4,19.1-14.5
				c0.6-10.1,0.9-18.7,1-25.2c0.3-12.8,0-14.8-1.1-17.2c-3.6-8.6-11.7-13-9.9-17c0.1-0.2,0.2-0.5,0.4-0.8c0,0,1-1.9,2.7-3.5
				c0,0,4-3.8,14.4-7c0.3-0.1,0.6-0.2,0.6-0.2c0.6-0.2,1.1-0.3,1.7-0.5c0.2,0,0.3-0.1,0.5-0.1c0.2-0.1,0.4-0.1,0.6-0.1
				c4.3-1.1,10.6-1.7,18.1-1.4h0c0.1,0,0.1,0,0.2,0c0.5,0,1,0.1,1.6,0.1c0.2,0,0.4,0,0.6,0c3.5,0.3,7.4,1.1,11.5,2.8
				c1,0.4,2.1,0.8,3.3,1.5c1.5,0.8,2.8,1.8,3.8,2.6c-2.6,7.7-5.4,19.1-4.6,32.8c0,0.3,0,0.6,0.1,1c0.3,4,0.7,7.7,1.2,11
				c0.9,6.6,2.8,15.8,2.9,16.5C302.3,525.8,301,534,298.6,550.4z"/>
			<path class="st25" d="M241.8,502.5c-0.6,2,0.2,4.2,2,5.4c4.7,3.2,8.2,5.4,9.4,6.2c2.3,1.4,4.5,2.3,4.5,2.3c0,0,0,0,0,0l0,0
				c3.2,1.4,5.1,1.6,7.6,3.2c5.5,3.5,8.2,9.5,7.3,10c-1.1,0.7-4.3-5.2-4.6-4.9c-0.4,0.3,5,6.7,3.8,7.5c-1,0.8-2.2-1.3-6.6-5.9
				c4.4,5.1,5.2,6.2,4.8,6.6c-0.6,0.7-1.5-0.5-6.5-4.9c1.9,2.6,2.4,3.1,1.9,3.6c-0.5,0.4-1.7-1-4.7-2.9c-3-1.8-3.5-1.6-5.5-3.1
				c-0.4-0.3-0.7-0.6-1-0.8c-1-0.8-1.4-1.3-2.4-2.2c-1.6-1.6-4.4-2.8-5.5-3.3c-2.5-1.2-6.5-3.3-12.4-6.6c-1.8-1-2.8-3.1-2.4-5.2
				c2.2-11.8,4.3-23.5,6.5-35.3c3.5,2.3,7,4.5,10.5,6.8C246.2,486.8,244,494.7,241.8,502.5z"/>
			<path class="st39" d="M233.6,514c-1.7-1.1-3.2-2.2-4.7-3.3c0.9-7.1,2.2-14.9,4.2-23.3c2.3-9.7,5-18.4,7.8-26c0,0,0,0,0,0
				c0.3-0.4,0.7-0.8,1.2-1.3c1.5-1.4,3.1-2.4,4.4-3c1.4,2.3,3,5.3,4.3,9.1c1.4,4.1,1.9,7.7,2.2,10.5c-3.3,8.4-6.6,16.9-10,25.3
				c2.6,3.4,5.2,6.7,7.9,10.1c4.1,0.3,8.3,0.6,12.4,0.9c-2.4,2.3-4.9,4.9-7.5,7.8c-2.7,3-5.2,6-7.4,8.8c-1.1-3.1-2.3-6.1-3.4-9.2
				C241.5,518.7,237.6,516.6,233.6,514z"/>
			<path class="st39" d="M260.4,451.1c1.7,2.1,4.4,4.8,8,7.2c2.7,1.8,5.2,2.9,7.3,3.7c-0.1,5.3-0.2,10.9,0,16.7
				c0.2,5.7,0.5,11.1,0.9,16.2c1.1-0.1,2.2-0.2,3.3-0.4c0.2-10.7,0.4-21.5,0.6-32.2c1-0.9,3.1-2.8,4.3-6c1-2.7,1-5,0.9-6.3
				c-4.5-0.7-10.3-1.1-16.8-0.4C265.8,450,262.9,450.5,260.4,451.1z"/>
		</g>
		<g>
			<path class="st25" d="M281.9,438.8c-5.4-0.7-10.7-1.4-16.1-2.1c-0.1,4.4-0.2,8.9-0.3,13.3c0.9,1.1,2,2.2,3.3,3.4
				c3.1,2.7,6.3,4.2,8.7,5.1c0.7-0.5,1.9-1.6,2.7-3.3c0.7-1.3,0.9-2.5,0.9-3.3C281.5,447.6,281.7,443.2,281.9,438.8z"/>
			<path class="st26" d="M281.5,446.9c-5.3-2.7-10.7-5.4-16-8.1c0.1,1.9,0.2,3.8,0.3,5.7c1.6,1.5,4.1,3.6,7.6,4.8
				c3.2,1.1,5.1,0.8,5.7,0.7c1-0.2,1.8-0.5,2.3-0.7C281.4,448.5,281.4,447.7,281.5,446.9z"/>
			<g>
				<path class="st25" d="M278,449.6c-2.8-0.1-5.1-0.8-7.2-1.9c-0.7-0.4-3.3-1.9-5.3-4.9c-0.4-0.5-0.8-1.4-1.7-3.1
					c-1.2-2.2-1.8-3.3-2.2-4.4c-1.6-3.7-2.2-6.9-2.5-8.6c0-0.2-0.1-0.4-0.1-0.6c-0.5-2.9-0.2-5.7,0.6-8.2c-0.1-4.2,0-7.8,0.1-10.3
					l7.9,0.4l18.9,1l7.3,0.4C293.9,418.2,294.7,450.4,278,449.6z"/>
				<g>
					<path class="st41" d="M284.4,440.5c-0.1-0.3-1.4,0.5-3.7,0.5c-2.1,0-3.2-0.7-3.3-0.4c-0.2,0.4,1.4,2.1,3.3,2.2
						C282.8,442.8,284.6,440.8,284.4,440.5z"/>
					<path class="st26" d="M283.1,436.3c-0.3,0.2-0.8,0.4-1.4,0.5c-1,0.1-1.6-0.3-1.6-0.3c0,0.1,1.3,1.3,2.3,0.8
						C282.8,437.1,283,436.5,283.1,436.3z"/>
					<path d="M285.3,424.6c0.5-0.2,2.5-1.1,4.7-0.4c1.1,0.4,1.8,1,2.2,1.4c-0.2-0.5-0.7-1.5-1.8-2.3c-2.2-1.4-4.7-0.4-5-0.3
						c0,0.2-0.1,0.4-0.1,0.7C285.3,424.1,285.3,424.3,285.3,424.6z"/>
					<path d="M278.1,424.9c-0.8-0.2-2.8-0.7-5.1,0c-1.5,0.4-2.5,1.2-3.1,1.7c0.3-0.6,1.1-1.8,2.7-2.6c2.5-1.4,4.9-0.7,5.4-0.5
						c0.1,0.1,0.3,0.4,0.3,0.9C278.3,424.6,278.2,424.8,278.1,424.9z"/>
				</g>
			</g>
		</g>
		<path class="st17" d="M230,617.4c-0.1,0.7-0.4,2.2-1.7,2.9c-0.1,0.1-0.2,0.1-0.3,0.2c-0.1,0-0.1,0.1-0.2,0.1
			c-1.1,0.6-2.4,1.4-3.7,2.5c-3.2,2.8-3.4,5.5-6.8,9.2c-0.6,0.7-1.3,1.3-2.1,1.9c0,0,0,0,0,0c-4.3,3.2-10.2,4.3-12,2.4
			c-0.1-0.1-0.1-0.1-0.1-0.2c-1.4-1.8,0-5.7,0.2-6.4c0,0,0.1-0.3,0.3-0.6c1.1-2.5,2.8-4.9,2.8-4.9c2.1-2.9,4.1-4.8,4.1-4.8
			c0,0-1,0.9-1.8,2.3c-0.2,0.4-2.2,3.8-1.1,5.6c0.9,1.4,3.3,1.3,3.8,1.3c6.8-0.3,11.3-9.6,14.9-12.2c0.3-0.2,1.6-1.1,2.6-2.8
			c0.2-0.3,0.3-0.5,0.4-0.6C229.8,613.9,230.4,615.5,230,617.4z"/>
	</g>
	<g style="clip-path:url(#SVGID_00000057831999336041515320000002513288343670344325_);">
		<path class="st10" d="M291.3,428.4c-0.3-0.3-0.7-0.8-1.4-1.1c-0.4-0.2-1.6-0.8-2.9-0.3c-1,0.4-1.6,1.2-1.8,1.5
			c0.2,0.3,1.1,1.1,2.4,1.3C289.7,430.1,291.2,428.6,291.3,428.4z"/>
		<path class="st22" d="M286.7,428.1c0,0,0-0.6,0.3-1c0.5-0.5,1.3-0.3,1.8-0.2c0.4,0.1,0.7,0.3,0.9,0.4c0.2,1-0.4,2-1.3,2.1
			C287.6,429.7,286.8,428.9,286.7,428.1z"/>
		<path d="M291.3,428.5c-0.1-0.2-0.7-1.5-2.1-1.9c-1.4-0.4-3.1,0.3-4,1.9c0.2-0.2,2-1.7,4.3-1.1C290.4,427.6,291,428.1,291.3,428.5z
			"/>
		<path d="M287.7,428.3c0-0.1,0-0.2,0-0.2c0.1-0.3,0.5-0.6,0.8-0.5c0.3,0.1,0.5,0.4,0.5,0.5c0.1,0.4-0.2,0.9-0.6,0.9
			C288.1,429,287.8,428.6,287.7,428.3z"/>
		<path class="st10" d="M287.4,428c0-0.1,0-0.1,0-0.1c0-0.2,0.2-0.3,0.4-0.3c0.2,0,0.2,0.2,0.2,0.2c0,0.2-0.1,0.4-0.3,0.4
			C287.6,428.4,287.4,428.2,287.4,428z"/>
	</g>
	<g style="clip-path:url(#SVGID_00000057831999336041515320000002513288343670344325_);">
		<path class="st10" d="M271.5,428.8c0.5-0.3,1.2-0.8,2.2-1.1c0.9-0.3,1.4-0.5,2.1-0.4c1.2,0.2,1.9,1.1,2.1,1.5
			c-0.3,0.3-1.2,1.1-2.7,1.3C273.2,430.3,271.7,429,271.5,428.8z"/>
		<path class="st22" d="M273.6,428.7c0,0-0.1-0.6,0.2-1c0.5-0.5,1.4-0.4,1.8-0.3c0.4,0.1,0.8,0.2,1,0.3c0.3,1-0.3,2-1.2,2.2
			C274.7,430.1,273.7,429.4,273.6,428.7z"/>
		<path d="M271,429.2c-0.1-0.1,2.4-3.1,4.9-2.3c1.1,0.4,1.7,1.4,2,1.8c-0.6-0.5-1.5-1-2.5-1.1C273,427.3,271.1,429.3,271,429.2z"/>
		<path d="M274.7,428.7c0-0.1,0-0.2,0-0.2c0.1-0.3,0.4-0.6,0.8-0.6c0.4,0,0.5,0.4,0.6,0.4c0.1,0.4-0.1,0.9-0.5,0.9
			C275.1,429.4,274.8,429,274.7,428.7z"/>
		<path class="st10" d="M274.3,428.5c0-0.1,0-0.1,0-0.1c0-0.2,0.2-0.3,0.4-0.3c0.2,0,0.2,0.2,0.3,0.2c0.1,0.2-0.1,0.4-0.2,0.4
			C274.5,428.8,274.4,428.7,274.3,428.5z"/>
	</g>
	<path style="clip-path:url(#SVGID_00000057831999336041515320000002513288343670344325_);fill:#262626;" d="M223.3,623
		c0.2,0.6,0.4,1.2,0.5,1.8c2.1-1.6,4.3-3.2,6.4-4.9c-0.1-1.3-0.2-2.5-0.3-3.8C227.7,618.4,225.5,620.7,223.3,623z"/>
	<path style="clip-path:url(#SVGID_00000057831999336041515320000002513288343670344325_);fill:#262626;" d="M282.8,596.7
		c0,0.5,0.1,1,0.1,1.5c0.1,0.2,0.1,0.3,0.2,0.5c0.8-1.6,1.5-3.1,2.3-4.7c-0.1-0.7-0.3-1.5-0.4-2.3c-0.2-1-0.4-1.9-0.7-2.8
		C283.5,590.9,282.7,593.6,282.8,596.7z"/>
	<path style="clip-path:url(#SVGID_00000057831999336041515320000002513288343670344325_);fill:#020202;" d="M282.8,597.1
		c-0.3,0.4-0.6,0.9-0.8,1.3c0.4,0.1,0.8,0.2,1.2,0.3C283,598.1,282.9,597.6,282.8,597.1z"/>
	<path style="clip-path:url(#SVGID_00000057831999336041515320000002513288343670344325_);fill:#262626;" d="M430.5,583.1
		c10.3-3.5,20.6-7,30.9-10.6c0.3,1.7,0.7,3.5,1,5.2C451.7,579.5,441.1,581.3,430.5,583.1z"/>
	<g style="clip-path:url(#SVGID_00000057831999336041515320000002513288343670344325_);">
		<g id="a1_acton_3_Layer1_0_MEMBER_3_MEMBER_0_FILL_00000170254575652525402920000000161679623492808881_">
			<path class="st44" d="M513.3,347c4.4-20,5.4-23.2,7.4-26.7c1.9-3.3,5.1-7.9,11.2-12.3c1.2,7.8,2.3,15.7,3.5,23.6
				c0.7,5.2,1.5,10.4,2.2,15.6c-1.6,5.4-3.1,10.8-4.7,16.2c-7.1-2.5-14.3-5-21.4-7.5C511.9,353.6,512.6,350.6,513.3,347z"/>
		</g>
	</g>
	<g style="clip-path:url(#SVGID_00000057831999336041515320000002513288343670344325_);">
		<rect x="360.1" y="166.5" class="st1" width="138.6" height="85.9"/>
		<g>
			<path class="st2" d="M500.8,254.5H358v-90.1h142.8V254.5z M362.2,250.3h134.4v-81.7H362.2V250.3z"/>
		</g>
		<g>
			<polygon class="st2" points="412.9,216.8 412.9,216.2 408.4,217.2 408.4,217.9 			"/>
			<path class="st2" d="M408.4,214.3L408.4,214.3l0,3l0.8-0.2v-2.8h0c0,0,0.1,0,0.1-0.1c0,0,0-0.1-0.1-0.1c0-0.3-0.1-0.3-0.3-0.4
				c-0.1-0.1-0.2-0.2-0.2-0.2s-0.1,0.1-0.2,0.2c-0.1,0.1-0.3,0.1-0.3,0.4C408.3,214.1,408.3,214.2,408.4,214.3
				C408.3,214.2,408.3,214.3,408.4,214.3z"/>
			<path class="st2" d="M412.9,213.1L412.9,213.1l0,3.2l0.4-0.1v0.6h7.5v-0.6H420v-1.3c0-0.5,0.2-0.7,0.3-0.9
				c0.2-0.3,0.3-0.4,0.3-0.4v-0.7h0.7v-0.6h-0.5c0-1.8-0.9-2.2-1.7-2.6c-0.8-0.4-1.3-1.4-1.3-1.4s-0.5,1-1.3,1.4
				c-0.8,0.4-1.7,0.8-1.7,2.6h-0.5v0.6h0.7v0.7c0,0,0.1,0.2,0.3,0.4c0.1,0.2,0.3,0.3,0.3,0.9v1.3h-1.6v-3.1h0c0,0,0.1,0,0.1-0.1
				c0,0,0-0.1-0.1-0.1c0-0.3-0.1-0.3-0.3-0.4c-0.1-0.1-0.2-0.2-0.2-0.2s-0.1,0.1-0.2,0.2c-0.1,0.1-0.3,0.1-0.3,0.4
				C412.9,213,412.9,213,412.9,213.1C412.9,213.1,412.9,213.1,412.9,213.1z M417.9,216.2v-1.3c0-0.5,0.2-0.7,0.4-0.9
				c0.3-0.3,0.4-0.4,0.4-0.4s0.1,0.2,0.4,0.4c0.2,0.2,0.4,0.3,0.4,0.9v1.3H417.9z M415.9,214.9c0-0.5,0.2-0.7,0.4-0.9
				c0.3-0.3,0.4-0.4,0.4-0.4s0.1,0.2,0.4,0.4c0.2,0.2,0.4,0.3,0.4,0.9v1.3h-1.5V214.9z"/>
			<polygon class="st2" points="445.9,216.8 450.4,217.9 450.4,217.2 445.9,216.2 			"/>
			<path class="st2" d="M449.5,214.3L449.5,214.3l0,2.8l0.8,0.2v-3h0c0,0,0.1,0,0.1-0.1c0,0,0-0.1-0.1-0.1c0-0.3-0.1-0.3-0.3-0.4
				c-0.1-0.1-0.2-0.2-0.2-0.2s-0.1,0.1-0.2,0.2c-0.1,0.1-0.3,0.1-0.3,0.4C449.5,214.1,449.5,214.2,449.5,214.3
				C449.5,214.2,449.5,214.3,449.5,214.3z"/>
			<path class="st2" d="M437.5,212.3v0.6h0.7v0.7c0,0,0.1,0.2,0.3,0.4c0.1,0.2,0.3,0.3,0.3,0.9v1.3H438v0.6h7.5v-0.6l0.4,0.1v-3.2h0
				c0,0,0.1,0,0.1-0.1c0,0,0-0.1-0.1-0.1c0-0.3-0.1-0.3-0.3-0.4c-0.1-0.1-0.2-0.2-0.2-0.2s-0.1,0.1-0.2,0.2
				c-0.1,0.1-0.3,0.1-0.3,0.4c0,0-0.1,0-0.1,0.1c0,0,0,0.1,0.1,0.1h0v3.1h-1.6v-1.3c0-0.5,0.2-0.7,0.3-0.9c0.2-0.3,0.3-0.4,0.3-0.4
				v-0.7h0.7v-0.6h-0.5c0-1.8-0.9-2.2-1.7-2.6c-0.8-0.4-1.3-1.4-1.3-1.4s-0.5,1-1.3,1.4c-0.9,0.4-1.7,0.8-1.7,2.6H437.5z
				 M439.3,216.2v-1.3c0-0.5,0.2-0.7,0.4-0.9c0.3-0.3,0.4-0.4,0.4-0.4s0.1,0.2,0.4,0.4c0.2,0.2,0.4,0.3,0.4,0.9v1.3H439.3z
				 M441.4,216.2v-1.3c0-0.5,0.2-0.7,0.4-0.9c0.3-0.3,0.4-0.4,0.4-0.4s0.1,0.2,0.4,0.4c0.2,0.2,0.4,0.3,0.4,0.9v1.3H441.4z"/>
			<path class="st2" d="M470.1,232.3l-0.3-8.4h0.2v-0.3h0c0.1,0,0.2-0.1,0.2-0.2c0-0.1-0.1-0.2-0.2-0.2h-0.3l-0.3-8h0.2v0.3h0.2
				v-0.3h0c0.1,0,0.2-0.1,0.2-0.2c0-0.1-0.1-0.2-0.2-0.2h-0.4l-0.4-8.8h0.1v-0.3h0.2v0.3h0.2v-0.3h0c0.1,0,0.2-0.1,0.2-0.2
				c0-0.1-0.1-0.2-0.2-0.2H469v-0.4h-0.3c0,0,0-1,0-1.3c0-0.3,0.1-0.4,0.2-0.5c0.1-0.1,0.2-0.2,0.2-0.2v-0.4h0.6
				c0.1,0,0.2-0.1,0.2-0.2c0-0.1-0.1-0.2-0.2-0.2h-0.5c0-1-0.5-1.2-0.9-1.4c-0.5-0.2-0.7-0.8-0.7-0.8s-0.3,0.5-0.7,0.8
				c-0.5,0.2-0.9,0.4-0.9,1.4h-0.5c-0.1,0-0.2,0.1-0.2,0.2c0,0.1,0.1,0.2,0.2,0.2h0.6v0.4c0,0,0,0.1,0.1,0.2
				c0.1,0.1,0.1,0.2,0.1,0.5c0,0.3,0,1.3,0,1.3h-0.3v0.4h-0.6c-0.1,0-0.2,0.1-0.2,0.2c0,0.1,0.1,0.2,0.2,0.2h0v0.3h0.2v-0.3h0.2v0.3
				h0.1l-0.4,8.8h-0.4c-0.1,0-0.2,0.1-0.2,0.2c0,0.1,0.1,0.2,0.2,0.2h0v0.3h0.2v-0.3h0.1l-0.3,8h-0.3c-0.1,0-0.2,0.1-0.2,0.2
				c0,0.1,0.1,0.2,0.2,0.2v0.3h0.2v-0.3h0.1l-0.4,8.7h-0.7h-6.2l-0.3-6.4h0.2v-0.2h0c0.1,0,0.2-0.1,0.2-0.2c0-0.1-0.1-0.2-0.2-0.2
				h-0.2l-0.3-6.1h0.1v0.2h0.2v-0.2h0c0.1,0,0.2-0.1,0.2-0.2c0-0.1-0.1-0.2-0.2-0.2h-0.3l-0.3-6.7h0.1v-0.2h0.2v0.2h0.2v-0.2h0
				c0.1,0,0.2-0.1,0.2-0.2c0-0.1-0.1-0.2-0.2-0.2H457v-0.3h-0.2c0,0,0-0.8,0-1c0-0.2,0.1-0.3,0.1-0.4c0.1-0.1,0.1-0.2,0.1-0.2v-0.3
				h0.4c0.1,0,0.2-0.1,0.2-0.2c0-0.1-0.1-0.2-0.2-0.2h-0.4c0-0.7-0.4-0.9-0.7-1.1c-0.4-0.2-0.5-0.6-0.5-0.6s-0.2,0.4-0.5,0.6
				c-0.3,0.2-0.7,0.3-0.7,1.1h-0.4c-0.1,0-0.2,0.1-0.2,0.2c0,0.1,0.1,0.2,0.2,0.2h0.4v0.3c0,0,0,0.1,0.1,0.2c0,0.1,0.1,0.1,0.1,0.4
				c0,0.2,0,1,0,1h-0.2v0.3h-0.4c-0.1,0-0.2,0.1-0.2,0.2c0,0.1,0.1,0.2,0.2,0.2h0v0.2h0.2v-0.2h0.2v0.2h0.1l-0.3,6.7h-0.3
				c-0.1,0-0.2,0.1-0.2,0.2c0,0.1,0.1,0.2,0.2,0.2h0v0.2h0.2v-0.2h0.1l-0.3,6.1h-0.3c-0.1,0-0.2,0.1-0.2,0.2c0,0.1,0.1,0.2,0.2,0.2
				v0.2h0.2v-0.2h0.1l-0.3,6.6h-3.4v-13.8l-4.5-1.1v14.9h-0.5v-14.9H438v14.9h-0.3v-18.8h-0.8v-2.3c0,0-0.6-0.7-7.4-0.7
				c-6.8,0-7.4,0.7-7.4,0.7v2.3h-0.8v18.8h-0.3v-14.9h-7.5v14.9h-0.5v-14.9l-4.5,1.1v13.8H405l-0.3-6.6h0.1v0.2h0.2v-0.2
				c0.1,0,0.2-0.1,0.2-0.2c0-0.1-0.1-0.2-0.2-0.2h-0.3l-0.3-6.1h0.1v0.2h0.2v-0.2h0c0.1,0,0.2-0.1,0.2-0.2c0-0.1-0.1-0.2-0.2-0.2
				h-0.3l-0.3-6.7h0.1v-0.2h0.2v0.2h0.2v-0.2h0c0.1,0,0.2-0.1,0.2-0.2c0-0.1-0.1-0.2-0.2-0.2h-0.4v-0.3h-0.2c0,0,0-0.8,0-1
				c0-0.2,0.1-0.3,0.1-0.4c0.1-0.1,0.1-0.2,0.1-0.2v-0.3h0.4c0.1,0,0.2-0.1,0.2-0.2c0-0.1-0.1-0.2-0.2-0.2h-0.4
				c0-0.7-0.4-0.9-0.7-1.1c-0.4-0.2-0.5-0.6-0.5-0.6s-0.2,0.4-0.5,0.6c-0.4,0.2-0.7,0.3-0.7,1.1h-0.4c-0.1,0-0.2,0.1-0.2,0.2
				c0,0.1,0.1,0.2,0.2,0.2h0.4v0.3c0,0,0,0.1,0.1,0.2c0.1,0.1,0.1,0.1,0.1,0.4c0,0.2,0,1,0,1h-0.2v0.3h-0.4c-0.1,0-0.2,0.1-0.2,0.2
				c0,0.1,0.1,0.2,0.2,0.2h0v0.2h0.2v-0.2h0.2v0.2h0.1l-0.3,6.7h-0.3c-0.1,0-0.2,0.1-0.2,0.2c0,0.1,0.1,0.2,0.2,0.2h0v0.2h0.2v-0.2
				h0.1l-0.2,6.1H401c-0.1,0-0.2,0.1-0.2,0.2c0,0.1,0.1,0.2,0.2,0.2h0v0.2h0.2l-0.3,6.4h-6.2H394l-0.4-8.7h0.1v0.3h0.2v-0.3
				c0.1,0,0.2-0.1,0.2-0.2c0-0.1-0.1-0.2-0.2-0.2h-0.3l-0.3-8h0.1v0.3h0.2v-0.3h0c0.1,0,0.2-0.1,0.2-0.2c0-0.1-0.1-0.2-0.2-0.2h-0.4
				l-0.4-8.8h0.1v-0.3h0.2v0.3h0.2v-0.3h0c0.1,0,0.2-0.1,0.2-0.2c0-0.1-0.1-0.2-0.2-0.2h-0.6v-0.4h-0.3c0,0,0-1,0-1.3
				c0-0.3,0.1-0.4,0.1-0.5c0.1-0.1,0.1-0.2,0.1-0.2v-0.4h0.6c0.1,0,0.2-0.1,0.2-0.2c0-0.1-0.1-0.2-0.2-0.2H393c0-1-0.5-1.2-0.9-1.4
				c-0.5-0.2-0.7-0.8-0.7-0.8s-0.3,0.5-0.7,0.8c-0.5,0.2-0.9,0.4-0.9,1.4h-0.5c-0.1,0-0.2,0.1-0.2,0.2c0,0.1,0.1,0.2,0.2,0.2h0.6
				v0.4c0,0,0,0.1,0.2,0.2c0.1,0.1,0.2,0.2,0.2,0.5c0,0.3,0,1.3,0,1.3h-0.3v0.4h-0.6c-0.1,0-0.2,0.1-0.2,0.2c0,0.1,0.1,0.2,0.2,0.2
				h0v0.3h0.2v-0.3h0.2v0.3h0.1l-0.4,8.8H389c-0.1,0-0.2,0.1-0.2,0.2c0,0.1,0.1,0.2,0.2,0.2h0v0.3h0.2v-0.3h0.2l-0.3,8h-0.3
				c-0.1,0-0.2,0.1-0.2,0.2c0,0.1,0.1,0.2,0.2,0.2h0v0.3h0.2l-0.3,8.4h-0.8v0.5v0.3v4.2h6.7h69.5h6.7v-4.2v-0.3v-0.5H470.1z
				 M466.5,204.7c0,0,0-1,0-1.3c0-0.3,0.1-0.4,0.2-0.5c0.1-0.1,0.2-0.2,0.2-0.2s0.1,0.1,0.2,0.2c0.1,0.1,0.2,0.2,0.2,0.5
				c0,0.3,0,1.3,0,1.3H466.5z M467.6,204.7c0,0,0-1,0-1.3c0-0.3,0.1-0.4,0.2-0.5c0.2-0.1,0.2-0.2,0.2-0.2s0.1,0.1,0.2,0.2
				c0.1,0.1,0.2,0.2,0.2,0.5c0,0.3,0,1.3,0,1.3H467.6z M455.1,211.3c0,0,0-0.8,0-1c0-0.2,0.1-0.3,0.2-0.4c0.1-0.1,0.2-0.2,0.2-0.2
				s0,0.1,0.2,0.2c0.1,0.1,0.2,0.1,0.2,0.4c0,0.2,0,1,0,1H455.1z M456,211.3c0,0,0-0.8,0-1c0-0.2,0.1-0.3,0.2-0.4
				c0.1-0.1,0.2-0.2,0.2-0.2s0,0.1,0.2,0.2c0.1,0.1,0.2,0.1,0.2,0.4c0,0.2,0,1,0,1H456z M402.2,211.3c0,0,0-0.8,0-1
				c0-0.2,0.1-0.3,0.2-0.4c0.1-0.1,0.2-0.2,0.2-0.2s0,0.1,0.2,0.2c0.1,0.1,0.2,0.1,0.2,0.4c0,0.2,0,1,0,1H402.2z M403,211.3
				c0,0,0-0.8,0-1c0-0.2,0.1-0.3,0.2-0.4c0.1-0.1,0.2-0.2,0.2-0.2s0,0.1,0.2,0.2c0.1,0.1,0.2,0.1,0.2,0.4c0,0.2,0,1,0,1H403z
				 M390.4,204.7c0,0,0-1,0-1.3c0-0.3,0.1-0.4,0.2-0.5c0.1-0.1,0.2-0.2,0.2-0.2s0.1,0.1,0.2,0.2c0.1,0.1,0.2,0.2,0.2,0.5
				c0,0.3,0,1.3,0,1.3H390.4z M391.5,204.7c0,0,0-1,0-1.3c0-0.3,0.1-0.4,0.2-0.5c0.1-0.1,0.2-0.2,0.2-0.2s0.1,0.1,0.2,0.2
				c0.1,0.1,0.2,0.2,0.2,0.5c0,0.3,0,1.3,0,1.3H391.5z M429.4,222.1c0.6,0,1.2,0.5,1.2,1.2v1.9h-2.3v-1.9
				C428.2,222.7,428.8,222.1,429.4,222.1z M429.4,228.1c0.6,0,1.2,0.5,1.2,1.2v3h-2.3v-3C428.2,228.6,428.8,228.1,429.4,228.1z
				 M446.9,221.9c0-1.9,0.4-2.1,0.7-2.4c0.3-0.2,0.6-0.6,0.6-0.6s0.3,0.4,0.6,0.6c0.3,0.2,0.7,0.5,0.7,2.4c0,1.9,0,3,0,3h-1.3h-1.3
				C446.9,224.9,446.9,223.7,446.9,221.9z M446.9,229.3c0-1.9,0.4-2.1,0.7-2.4c0.3-0.2,0.6-0.6,0.6-0.6s0.3,0.4,0.6,0.6
				c0.3,0.2,0.7,0.5,0.7,2.4c0,1.9,0,3,0,3h-2.6C446.9,232.3,446.9,231.1,446.9,229.3z M439.5,221.9c0-1.9,0.7-2.1,1.2-2.4
				c0.5-0.2,0.9-0.6,0.9-0.6s0.5,0.4,0.9,0.6c0.5,0.2,1.2,0.5,1.2,2.4c0,1.9,0,3,0,3h-1.5v-1.7c0-0.4-0.3-0.7-0.7-0.7
				c-0.4,0-0.7,0.3-0.7,0.7v1.7h-1.5C439.5,224.9,439.5,223.7,439.5,221.9z M439.5,229.3c0-1.9,0.7-2.1,1.2-2.4
				c0.5-0.2,0.9-0.6,0.9-0.6s0.5,0.4,0.9,0.6c0.5,0.2,1.2,0.5,1.2,2.4c0,1.9,0,3,0,3h-1.5v-1.7c0-0.4-0.3-0.6-0.7-0.6
				c-0.4,0-0.7,0.3-0.7,0.6v1.7h-1.5C439.5,232.3,439.5,231.1,439.5,229.3z M423.8,216.2H435v16.1h-0.9c0,0,0-6.5,0-8.7
				c0-4.2-3.7-3.8-4.7-5.6c-1,1.7-4.7,1.3-4.7,5.6c0,2.2,0,8.7,0,8.7h-0.9V216.2z M415.1,221.9c0-1.9,0.7-2.1,1.2-2.4
				c0.5-0.2,0.9-0.6,0.9-0.6s0.5,0.4,0.9,0.6c0.5,0.2,1.2,0.5,1.2,2.4c0,1.9,0,3,0,3h-1.5v-1.7c0-0.4-0.3-0.7-0.6-0.7
				c-0.4,0-0.7,0.3-0.7,0.7v1.7h-1.5C415.1,224.9,415.1,223.7,415.1,221.9z M415.1,229.3c0-1.9,0.7-2.1,1.2-2.4
				c0.5-0.2,0.9-0.6,0.9-0.6s0.5,0.4,0.9,0.6c0.5,0.2,1.2,0.5,1.2,2.4c0,1.9,0,3,0,3h-1.5v-1.7c0-0.4-0.3-0.6-0.6-0.6
				c-0.4,0-0.7,0.3-0.7,0.6v1.7h-1.5C415.1,232.3,415.1,231.1,415.1,229.3z M409.4,221.9c0-1.9,0.4-2.1,0.7-2.4
				c0.3-0.2,0.6-0.6,0.6-0.6s0.3,0.4,0.6,0.6c0.3,0.2,0.7,0.5,0.7,2.4c0,1.9,0,3,0,3h-1.3h-1.3C409.4,224.9,409.4,223.7,409.4,221.9
				z M409.4,229.3c0-1.9,0.4-2.1,0.7-2.4c0.3-0.2,0.6-0.6,0.6-0.6s0.3,0.4,0.6,0.6c0.3,0.2,0.7,0.5,0.7,2.4c0,1.9,0,3,0,3h-2.6
				C409.4,232.3,409.4,231.1,409.4,229.3z"/>
			<path class="st2" d="M422,209.2c0,0,0.5-0.7,7.4-0.7c6.9,0,7.4,0.7,7.4,0.7s2.8-2.5,0.5-6.1c-2.2-3.5-5.8-4.8-7.8-7.1
				c0,0,0,0,0,0c0.3-0.1,0.5-0.3,0.5-0.6c0-0.3-0.2-0.5-0.4-0.6c0.2-0.1,0.3-0.2,0.3-0.4c0-0.3-0.2-0.5-0.5-0.5c0,0,0,0,0,0
				c0.1,0,0.1,0,0.2,0v-0.6c-0.1,0-0.1,0-0.2,0c0,0,0,0,0,0c0.3,0,0.5-0.2,0.5-0.5c0-0.3-0.2-0.5-0.5-0.5c0,0,0,0,0,0
				c0.1,0,0.1,0,0.2,0v-1.3c0,0,0-0.2-0.2-0.2c-0.2,0-0.2,0.2-0.2,0.2v1.3c-0.2,0.1-0.3,0.3-0.3,0.5c0,0.2,0.1,0.4,0.3,0.5v0.6
				c-0.2,0.1-0.3,0.3-0.3,0.5c0,0.2,0.1,0.4,0.3,0.4c-0.2,0.1-0.4,0.3-0.4,0.6c0,0.3,0.2,0.5,0.5,0.6c-2,2.2-5.6,3.5-7.8,7.1
				C419.2,206.8,422,209.2,422,209.2z M429.4,196.1C429.4,196.1,429.4,196.1,429.4,196.1C429.4,196.1,429.4,196.1,429.4,196.1
				C429.4,196.1,429.4,196.1,429.4,196.1z M429.5,196.1C429.5,196.1,429.5,196.1,429.5,196.1C429.5,196.1,429.5,196.1,429.5,196.1z
				 M429.3,196.1C429.3,196.1,429.3,196.1,429.3,196.1C429.3,196.1,429.3,196.1,429.3,196.1z"/>
		</g>
		<rect x="361.4" y="235.6" class="st2" width="136.1" height="14.6"/>
	</g>
	<g style="clip-path:url(#SVGID_00000057831999336041515320000002513288343670344325_);">
		<g>
			<g>
				<polygon class="st45" points="594.5,478.3 631.3,595.7 641.8,595.7 604.1,475.3 				"/>
				<polygon class="st45" points="569.6,478.3 606.4,595.7 616.9,595.7 579.2,475.3 				"/>
				<polygon class="st45" points="475.1,595.7 485.6,595.7 522.4,478.3 512.9,475.3 				"/>
				<polygon class="st45" points="503.7,595.7 514.2,595.7 551,478.3 541.4,475.3 				"/>
			</g>
			<ellipse class="st46" cx="561.1" cy="472.9" rx="58.3" ry="9"/>
		</g>
		<g transform="matrix( 0.9983978271484375, -0.05657958984375, 0.0879364013671875, 0.996612548828125, -63.2,4.35) ">
			<g>
				<g transform="matrix( 1, 0, 0, 1, 0,0) ">
					<g>
						<g id="Cloth_1Lad1y_R_leg_0_Layer2_0_FILL_00000035512243729607070970000001658623467863615157_">
							<path class="st25" d="M498.6,605.4c-0.1,0.1-0.1,0.3-0.2,0.4c-0.8,1.5-1.7,3.1-2.5,4.6c-0.9,1.5-1.7,3-2.6,4.6
								c-0.1,0.2-0.3,0.4-0.4,0.6c-3.3,5.5-5.9,9.7-8,12.7c-1.4,2.3-2.5,3.8-3.5,4.7c-1,0.8-1.6,1.3-1.8,1.5
								c-0.5,0.6-1.1,1.3-1.8,2.1c-0.2,0.3-0.4,0.5-0.6,0.8c-0.8,1.5-1.2,2.8-1.1,3.8c0.1,1.8,1.8,2.5,5.1,2.2
								c2.3-0.3,5.4-1.1,9.4-2.5c2.2-1.1,4.3-2.6,6.3-4.5c2.5-4,5.3-7.4,8.3-9.9c1-0.9,2.1-1.7,3.2-2.4c1.8-1.7,2.9-3.5,3.3-5.3l0,0
								c0,0,0-0.1,0-0.1c0-0.2,0-0.3,0-0.4l0,0c0,0,0,0.1,0,0.1c0.1-0.3,0.1-0.5,0.1-0.7c0-0.3-0.1-1.2-0.5-2.6
								c-0.2-0.7-0.3-1.2-0.4-1.6c0-0.1-0.1-0.1-0.1-0.2c-0.3-0.6-0.2-1.9,0.2-4c0,0,0,0,0,0l0.3-2.5c-1,0.1-1.7,0.2-2,0.2
								c-2.8,0.3-6.5-0.1-11-0.9C498.4,605.8,498.5,605.6,498.6,605.4z"/>
						</g>
					</g>
				</g>
				<g transform="matrix( 1, 0, 0, 1, 0,0) ">
					<g>
						<g id="Cloth_1Lad1y_R_leg_0_Layer1_0_MEMBER_0_FILL_00000049919744911363569430000001427958059281680570_">
							<path class="st47" d="M490.7,641.6L490.7,641.6L490.7,641.6L490.7,641.6z"/>
						</g>
					</g>
				</g>
				<g transform="matrix( 1, 0, 0, 1, -34.5,0) ">
					<g transform="matrix( 1, 0, 0, 1, 0,0) ">
						<g>
							<g id="Hands_1s1hoe_rht_0_Layer1_0_FILL_00000097501700707434909110000007158926511436243108_">
								<path class="st48" d="M542,626.9L542,626.9L542,626.9L542,626.9 M503.9,649.8c0.1,0.3,0.3,0.5,0.6,0.7l0.1,0
									C504.4,650.3,504.1,650,503.9,649.8z"/>
								<path class="st49" d="M504.5,650.5c0.1,0.2,0.3,0.3,0.5,0.5c1.4,1.1,5,1.1,11-0.1c6-1.2,10.1-2.7,12.4-4.6
									c1.6-1.3,2.7-2.5,3.6-3.7c0.4-0.5,0.7-1,0.9-1.5c3.1-7.3,5.4-11.5,6.9-12.8c0.1-0.1,0.2-0.1,0.3-0.2l1,2.7
									c0.8,2.2,0.9,5.3,0.5,9.2c0,0.2,0,0.3,0,0.5c0.4,0.5,0.9,0.7,1.5,0.7c0.3-4.6,0.1-8.6-0.5-11.9c-0.2-0.9-0.3-1.7-0.5-2.4
									l0.1,0c-0.1-0.1-0.1-0.3-0.1-0.5l-1.7,1l0,0l0,0l0,0l0,0l-0.1,0.1l0,0l0,0c-1.5,1.3-3.8,5.5-7,12.8c-0.2,0.5-0.5,1-0.9,1.5
									c-0.9,1.2-2.1,2.4-3.6,3.7c-2.3,1.9-6.5,3.4-12.6,4.6c-6.1,1.2-9.8,1.2-11.2,0.1L504.5,650.5 M540.1,628.1L540.1,628.1
									L540.1,628.1C540.2,628,540.1,628,540.1,628.1z"/>
								<path class="st50" d="M512.3,636.6c0.7-0.8,1.3-1.5,1.8-2.1c-0.3,0.2-0.8,0.6-1.4,1.3c-0.4,0.4-0.9,0.8-1.4,1.4
									c-0.7,0.7-1.6,1.6-2.6,2.6c-3,3-4.7,5.3-5.1,7c-0.3,1.1-0.2,2.2,0.4,3c0.2,0.2,0.4,0.5,0.7,0.7c1.4,1.1,5.1,1,11.2-0.1
									c6-1.2,10.2-2.8,12.6-4.6c1.6-1.3,2.8-2.6,3.6-3.7c0.4-0.5,0.7-1,0.9-1.5c3.2-7.3,5.5-11.5,7-12.8l0,0l0,0l0.1-0.1l0,0l0,0
									l0,0l0,0l1.7-1c0,0.2,0.1,0.3,0.1,0.5l0,0l-0.1,0c0.2,0.8,0.4,1.6,0.5,2.4c0.6,3.4,0.8,7.3,0.5,11.9c-0.6,0-1.1-0.2-1.5-0.7
									c-0.1,0.4-0.1,0.7-0.2,1.1c0,0.1-0.1,0.2-0.1,0.3c0.6,0.4,1.2,0.6,2,0.6c0.6,0,1.1-0.1,1.3-0.3c-0.1-0.6-0.1-1.1-0.2-1.7
									c-0.3-4.3,0.3-8,1.7-11.1c1-1.8,1.4-4.1,1.3-6.9c0-0.1,0-0.2,0-0.3c-0.1-2.2-0.5-4.2-1.1-5.8c-0.1-0.2-0.1-0.3-0.2-0.5
									c0.1,0.6,0.2,1.2,0.1,1.8c0,0.2-0.1,0.5-0.1,0.7c-0.4,1.8-1.5,3.5-3.3,5.3c-1.1,0.7-2.2,1.5-3.2,2.4c-3,2.6-5.8,5.9-8.3,9.9
									c-1.9,1.9-4,3.4-6.3,4.5c-12.3,4.3-16.8,3.2-13.3-3.5C511.9,637.1,512.1,636.8,512.3,636.6z"/>
							</g>
						</g>
					</g>
				</g>
			</g>
			<g>
				<g transform="matrix( 1, 0, 0, 1, 0,0) ">
					<g>
						<g id="Cloth_1Lad1y_R_leg_0_Layer2_0_FILL_00000092415167143123101120000006239768627966538428_">
							<path class="st25" d="M521.5,611.9c-0.1,0.1-0.1,0.3-0.2,0.4c-0.8,1.5-1.7,3.1-2.5,4.6c-0.9,1.5-1.7,3-2.6,4.6
								c-0.1,0.2-0.3,0.4-0.4,0.6c-3.3,5.5-5.9,9.7-8,12.7c-1.4,2.3-2.5,3.8-3.5,4.7c-1,0.8-1.6,1.3-1.8,1.5
								c-0.5,0.6-1.1,1.3-1.8,2.1c-0.2,0.3-0.4,0.5-0.6,0.8c-0.8,1.5-1.2,2.8-1.1,3.8c0.1,1.8,1.8,2.5,5.1,2.2
								c2.3-0.3,5.4-1.1,9.4-2.5c2.2-1.1,4.3-2.6,6.3-4.5c2.5-4,5.3-7.4,8.3-9.9c1-0.9,2.1-1.7,3.2-2.4c1.8-1.7,2.9-3.5,3.3-5.3l0,0
								c0,0,0-0.1,0-0.1c0-0.2,0-0.3,0-0.4l0,0c0,0,0,0.1,0,0.1c0.1-0.3,0.1-0.5,0.1-0.7c0-0.3-0.1-1.2-0.5-2.6
								c-0.2-0.7-0.3-1.2-0.4-1.6c0-0.1-0.1-0.1-0.1-0.2c-0.3-0.6-0.2-1.9,0.2-4c0,0,0,0,0,0l0.3-2.5c-1,0.1-1.7,0.2-2,0.2
								c-2.8,0.3-6.5-0.1-11-0.9C521.4,612.2,521.4,612,521.5,611.9z"/>
						</g>
					</g>
				</g>
				<g transform="matrix( 1, 0, 0, 1, 0,0) ">
					<g>
						<g id="Cloth_1Lad1y_R_leg_0_Layer1_0_MEMBER_0_FILL_00000018953482725289234350000018251944268912495769_">
							<path class="st47" d="M513.6,648.1L513.6,648.1L513.6,648.1L513.6,648.1z"/>
						</g>
					</g>
				</g>
				<g transform="matrix( 1, 0, 0, 1, -34.5,0) ">
					<g transform="matrix( 1, 0, 0, 1, 0,0) ">
						<g>
							<g id="Hands_1s1hoe_rht_0_Layer1_0_FILL_00000134954763229311208590000001960439447692432302_">
								<path class="st48" d="M564.9,633.3L564.9,633.3L564.9,633.3L564.9,633.3 M526.9,656.2c0.1,0.3,0.3,0.5,0.6,0.7l0.1,0
									C527.3,656.7,527.1,656.5,526.9,656.2z"/>
								<path class="st49" d="M527.4,657c0.1,0.2,0.3,0.3,0.5,0.5c1.4,1.1,5,1.1,11-0.1c6-1.2,10.1-2.7,12.4-4.6
									c1.6-1.3,2.7-2.5,3.6-3.7c0.4-0.5,0.7-1,0.9-1.5c3.1-7.3,5.4-11.5,6.9-12.8c0.1-0.1,0.2-0.1,0.3-0.2l1,2.7
									c0.8,2.2,0.9,5.3,0.5,9.2c0,0.2,0,0.3,0,0.5c0.4,0.5,0.9,0.7,1.5,0.7c0.3-4.6,0.1-8.6-0.5-11.9c-0.2-0.9-0.3-1.7-0.5-2.4
									l0.1,0c-0.1-0.1-0.1-0.3-0.1-0.5l-1.7,1l0,0l0,0l0,0l0,0l-0.1,0.1l0,0l0,0c-1.5,1.3-3.8,5.5-7,12.8c-0.2,0.5-0.5,1-0.9,1.5
									c-0.9,1.2-2.1,2.4-3.6,3.7c-2.3,1.9-6.5,3.4-12.6,4.6c-6.1,1.2-9.8,1.2-11.2,0.1L527.4,657 M563,634.5L563,634.5L563,634.5
									C563.1,634.5,563.1,634.5,563,634.5z"/>
								<path class="st50" d="M535.3,643c0.7-0.8,1.3-1.5,1.8-2.1c-0.3,0.2-0.8,0.6-1.4,1.3c-0.4,0.4-0.9,0.8-1.4,1.4
									c-0.7,0.7-1.6,1.6-2.6,2.6c-3,3-4.7,5.3-5.1,7c-0.3,1.1-0.2,2.2,0.4,3c0.2,0.2,0.4,0.5,0.7,0.7c1.4,1.1,5.1,1,11.2-0.1
									c6-1.2,10.2-2.8,12.6-4.6c1.6-1.3,2.8-2.6,3.6-3.7c0.4-0.5,0.7-1,0.9-1.5c3.2-7.3,5.5-11.5,7-12.8l0,0l0,0l0.1-0.1l0,0l0,0
									l0,0l0,0l1.7-1c0,0.2,0.1,0.3,0.1,0.5l0,0l-0.1,0c0.2,0.8,0.4,1.6,0.5,2.4c0.6,3.4,0.8,7.3,0.5,11.9c-0.6,0-1.1-0.2-1.5-0.7
									c-0.1,0.4-0.1,0.7-0.2,1.1c0,0.1-0.1,0.2-0.1,0.3c0.6,0.4,1.2,0.6,2,0.6c0.6,0,1.1-0.1,1.3-0.3c-0.1-0.6-0.1-1.1-0.2-1.7
									c-0.3-4.3,0.3-8,1.7-11.1c1-1.8,1.4-4.1,1.3-6.9c0-0.1,0-0.2,0-0.3c-0.1-2.2-0.5-4.2-1.1-5.8c-0.1-0.2-0.1-0.3-0.2-0.5
									c0.1,0.6,0.2,1.2,0.1,1.8c0,0.2-0.1,0.5-0.1,0.7c-0.4,1.8-1.5,3.5-3.3,5.3c-1.1,0.7-2.2,1.5-3.2,2.4c-3,2.6-5.8,5.9-8.3,9.9
									c-1.9,1.9-4,3.4-6.3,4.5c-12.3,4.3-16.8,3.2-13.3-3.5C534.8,643.5,535,643.3,535.3,643z"/>
							</g>
						</g>
					</g>
				</g>
			</g>
		</g>
		<g>
			<g>
				<g transform="matrix( 1.0998382568359375, 0.017730712890625, -0.017730712890625, 1.0998382568359375, -2.05,-472) ">
					<g transform="matrix( 1, 0, 0, 1, 0,0) ">
						<g>
							<g id="Hair_1c2h_hair_ul_0_Layer0_0_MEMBER_0_FILL_00000015319821405912483130000003716672489050883499_">
								<path d="M517.6,642.5c-0.2,0.1-0.3,0.3-0.5,0.4c-0.6,0.6-1.2,1.2-1.7,1.9c-3.3,3.7-5.7,7.7-7.2,12.2
									c-1.6,4.5-2.3,9.2-2.1,14.2c0.2,5,0.9,9.4,2.2,13.3c1.3,3.9,3.2,6.6,5.7,8.2c2.5,1.6,5.1,2.7,7.6,3.1c2.4,0.5,5,0.2,7.7-0.9
									c2.3-0.9,4.6-2.2,6.9-4.1c3.2-2.5,5.9-5.5,8.3-8.8c0.5-0.7,1-1.4,1.5-2.1c1.5-2.4,2.8-4.9,3.8-7.6c0.3-0.7,0.5-1.4,0.8-2.2
									c0-0.1,0.1-0.2,0.1-0.3c1.8-5.4,2.2-10.6,1.3-15.8c-1-5.7-3.5-10.1-7.4-13.1c-2.7-2-5.8-3.3-9.3-3.8
									c-3.5-0.4-6.8-0.1-10.2,1C522.4,639.2,519.9,640.6,517.6,642.5z"/>
							</g>
						</g>
					</g>
				</g>
				<g transform="matrix( 0.9995880126953125, 0.0284576416015625, -0.0284576416015625, 0.9995880126953125, -8.95,-341.75) ">
					<g transform="matrix( 1, 0, 0, 1, 0,0) ">
						<g>
							<g id="Body_1la3dy_body_0_Layer2_0_FILL_00000106830578692241964450000007206846926159554467_">
								
									<linearGradient id="SVGID_00000017508282057449115220000015525525922018142612_" gradientUnits="userSpaceOnUse" x1="5453.5957" y1="1436.5386" x2="5511.437" y2="1404.8726" gradientTransform="matrix(1.3167 -5.425496e-02 -5.425496e-02 -1.3167 -6532.0483 2797.1575)">
									<stop  offset="5.490200e-02" style="stop-color:#DA776A"/>
									<stop  offset="0.4078" style="stop-color:#EB9A90"/>
									<stop  offset="1" style="stop-color:#FA9A90"/>
								</linearGradient>
								<path style="fill:url(#SVGID_00000017508282057449115220000015525525922018142612_);" d="M626.6,643l2.9-0.1
									c-0.1-2.5-0.8-4.8-2.1-6.8C627.7,638.5,627.4,640.8,626.6,643z"/>
								<path class="st25" d="M627.4,636.1c-0.1-0.2-0.4-0.6-1-1.2c-0.6-0.6-2-1.6-4.2-3c-2.2-1.4-5.3-2.6-9.3-3.6
									c-11-1.6-18.9-3.9-23.7-7c-10.4,4-17,6.8-19.7,8.3l0,0c-4.4,1.4-6.8,3.9-9.3,5.4c-2.9,1.8-4.8,3.7-5.1,5.7
									c-0.4,2.6-1.5,3.6-1.7,5.3l73.2-3C627.4,640.8,627.7,638.5,627.4,636.1z"/>
							</g>
						</g>
					</g>
					<path class="st25" d="M611.6,630.5c-2.1,1.2-4.8,4.1-8.3,8.9c-3.4,4.8-9.5,6.5-18.3,5.3c-8.7-1.2-14.3-3.1-16.7-5.9l-0.2-0.1
						c-1.1-1.2-1.8-2.7-2-4.3c0-0.2,0-0.4,0-0.5c-0.1-1.3,0.2-2.3,0.9-3.1l0,0c6-2.7,10-5.1,12.1-7.1c0.1-0.2,0.1-0.3,0.1-0.5
						c0.4-1.2,0.6-2.4,0.8-3.7c0-0.3,0.1-0.7,0.1-1c0-0.2,0-0.5,0-0.7c-0.1-0.2-0.1-0.4,0-0.6c0-0.1,0-0.1,0-0.2
						c-0.1-1.6-0.5-3.1-1.1-4.6c-0.7-4.9,0.3-8.3,3.1-10.2c2.7-1.9,7-2.2,13-1c0,0,0.1,0,0.1,0c0,0,0,0,0,0c0,1.6,0.1,3.2,0.3,4.8
						c0,0.2,0.1,0.4,0.1,0.6c0.2,1,0.4,1.8,0.5,2.3l0,0c0.3,1,0.6,2.1,1,3.2c0.4,1,0.8,2.1,1.3,3.1c0.1,0.3,0.3,0.5,0.4,0.8
						c0.3,0.6,0.7,1.2,1.1,1.8c1.3,2,2.7,3.9,4.4,5.7l0,0c1.5,1.5,3.4,2.7,5.5,3.6c0.7,0.3,1.3,0.6,1.9,0.8c1.2,0.3,2,0.6,2.5,0.7
						C614.6,628.7,613.7,629.3,611.6,630.5z"/>
					<g transform="matrix( 1, 0, 0, 1, 0,0) ">
						<g>
							<g id="Cloth_1ch_head_0_Layer3_0_MEMBER_0_FILL_00000137099320070857591660000001520693407173451184_">
								<path class="st26" d="M597.1,612c-1.1,0.9-2.9,2.2-6.4,4.3c-4.4,2.6-6.4,2.9-7.8,3.1c-1.1,0.1-2.1,0.1-3-0.1
									c0-0.3,0.1-0.7,0.1-1c0-0.2,0-0.5,0-0.7c-0.1-0.2-0.1-0.4,0-0.6c0-0.1,0-0.1,0-0.2c-0.1-1.6-0.5-3.1-1.1-4.6
									c-0.7-4.9,0.3-8.3,3.1-10.2c2.7-1.9,7-2.2,13-1c0,0,0.1,0,0.1,0c0,0,0,0,0,0c0,1.6,0.1,3.2,0.3,4.8c0,0.2,0.1,0.4,0.1,0.6
									c0.2,1,0.4,1.8,0.5,2.3l0,0C596.4,609.9,596.7,610.9,597.1,612z"/>
							</g>
						</g>
					</g>
				</g>
				<g transform="matrix( 1.0998382568359375, 0.017730712890625, -0.017730712890625, 1.0998382568359375, -2.05,-472) ">
					<g transform="matrix( 1, 0, 0, 1, 0,0) ">
						<g>
							<g id="Cloth_1ch_head_0_Layer3_0_MEMBER_0_FILL_00000094618138405331277010000015327065496747592848_">
								<path class="st25" d="M541.4,634.7c-3.7-5-9-7.9-16-8.8c-6.4-0.9-11.7,0.3-15.9,3.4c0,0-0.1,0.1-0.1,0.1
									c-0.4,0.3-0.7,0.5-1.1,0.9c0,0,0,0,0,0c-4.4,3.8-6.7,8.1-6.8,12.9c-0.2,4.7,0,8.3,0.6,10.8l0,0.2l0.5,5.5
									c0.1,1.6,0.5,3.9,1.1,7.1c0.8,4.2,2.1,7.7,3.9,10.5l3.1,4.5c1.6,3.4,4.3,5,7.9,4.6c1.3-0.1,3-0.4,7.1-2.7
									c3.6-2.1,5.3-3.4,6.2-4.2c4.5-4.1,5.9-10,6.4-13.1c0.1,0.1,0.3,0.4,0.7,0.5c1,0.5,1.1,0.2,1.2,0.1c0.5-0.1,1.1-0.5,1.7-1.6
									c3-5.1,2.9-14.8,2.9-14.8c0.1-5.5-0.5-7.6-0.8-8.8c-0.5-1.7-0.1-3.4-1-4.9C542.5,636.2,542,635.4,541.4,634.7z"/>
							</g>
						</g>
					</g>
					<g transform="matrix( 0.9879913330078125, 0, 0, 0.7599945068359375, -0.1,-13.1) ">
						<g>
							<g id="Cloth_1ch_head_0_Layer3_0_MEMBER_1_FILL_00000128461951491751915700000018175403098138398360_">
								
									<linearGradient id="SVGID_00000105402498904244229090000009743483654168471469_" gradientUnits="userSpaceOnUse" x1="3535.5188" y1="1803.0756" x2="3536.7517" y2="1803.0756" gradientTransform="matrix(1.4317 -4.673823e-02 -2.849953e-02 -1.1011 -5959.2007 3049.5522)">
									<stop  offset="0" style="stop-color:#FF4145"/>
									<stop  offset="1" style="stop-color:#EE252A"/>
								</linearGradient>
								<path style="fill:url(#SVGID_00000105402498904244229090000009743483654168471469_);" d="M522.5,874.6
									c0-0.5-0.1-0.9-0.4-1.3c-0.2-0.3-0.5-0.5-0.8-0.5c-0.3,0-0.6,0.2-0.9,0.5c-0.2,0.4-0.3,0.8-0.3,1.3c0,0.5,0.1,0.9,0.3,1.2
									c0.2,0.3,0.5,0.5,0.9,0.5c0.3,0,0.6-0.2,0.8-0.5C522.4,875.5,522.5,875.1,522.5,874.6z"/>
							</g>
						</g>
					</g>
					<g transform="matrix( 1, 0, 0, 1, 0,0) ">
						<g>
							<g id="Cloth_1ch_head_0_Layer0_0_FILL_00000030446668459196595860000014930860939075976895_">
								<path class="st10" d="M511.6,660.7c-0.4-1.2-1.2-2.3-2.5-3c-2-1.1-4-1-5.9,0.1c-0.6,0.4-1,0.7-1.1,1.1
									c0.4,0.7,0.9,1.3,1.7,1.8c0.9,0.6,1.8,1,2.8,1.1c0.9,0.1,1.9,0,2.8-0.2C510.2,661.4,510.9,661.1,511.6,660.7 M529.6,659.2
									c-0.2-0.4-0.7-0.7-1.3-1.1c-1-0.5-1.9-0.8-2.9-0.9c-1.2-0.1-2.4,0.1-3.6,0.6c-1.4,0.7-2.4,1.7-2.7,2.9
									c0.8,0.3,1.6,0.6,2.4,0.8c1.1,0.3,2.1,0.4,3.1,0.3c0.2,0,0.4,0,0.6,0c0.9-0.2,1.7-0.5,2.5-0.9
									C528.5,660.4,529.2,659.9,529.6,659.2z"/>
							</g>
						</g>
					</g>
					<g transform="matrix( -0.7544708251953125, -0.016265869140625, -0.018157958984375, 0.8441314697265625, 11.15,-37.15) ">
						<g transform="matrix( 1, 0, 0, 1, 0,0) ">
							<g>
								<g id="ch3eye_ball__0_Layer0_0_FILL_00000109013840185949676390000014115090933502000522_">
									<path class="st22" d="M-698.9,808.7c-0.8,0-1.6,0.3-2.2,0.9c-0.6,0.6-0.9,1.4-0.9,2.2c0,0.8,0.3,1.6,0.9,2.2
										c0.6,0.6,1.4,1,2.2,1c0.9,0,1.6-0.3,2.2-0.9c0.6-0.6,1-1.3,1-2.1c0-0.9-0.3-1.6-0.9-2.3C-697.3,809-698,808.7-698.9,808.7z
										"/>
								</g>
							</g>
						</g>
						<g transform="matrix( 1.2004852294921875, 0, 0, 1.2004852294921875, -269.35,-88.45) ">
							<g>
								<g id="ch3eye_ball__0_Layer0_0_MEMBER_0_MEMBER_0_FILL_00000026862279211771272360000017310713727523785096_">
									<path d="M-357.4,748.7c-0.7,0-1.3,0.8-1.3,1.4c0,0.6,0.5,1.2,1.2,1.2c0.7,0,1.2-0.7,1.3-1.3
										C-356.2,749.4-356.7,748.7-357.4,748.7z"/>
								</g>
							</g>
						</g>
						<g transform="matrix( 1.5006103515625, 0, 0, 1.5006103515625, -7.85,7.4) ">
							<g>
								<g id="ch3eye_ball__0_Layer0_0_MEMBER_0_MEMBER_1_FILL_00000148645892270281124160000003578737367039591353_">
									<path class="st10" d="M-460.4,535.7c0.1-0.1,0.1-0.2,0.1-0.3c0-0.1,0-0.2-0.1-0.3c-0.1-0.1-0.2-0.1-0.3-0.1
										c-0.1,0-0.2,0-0.3,0.1s-0.1,0.2-0.1,0.3c0,0.1,0,0.2,0.1,0.3c0.1,0.1,0.2,0.1,0.3,0.1
										C-460.6,535.8-460.5,535.8-460.4,535.7z"/>
								</g>
							</g>
						</g>
					</g>
					<g transform="matrix( -0.7393646240234375, -0.01593017578125, -0.017791748046875, 0.827239990234375, -13.95,-37.4) ">
						<g transform="matrix( 1, 0, 0, 1, 0,0) ">
							<g>
								<g id="ch3eye_ball__0_Layer0_0_FILL_00000062903630273389620010000016685344813706623133_">
									<path class="st22" d="M-723.9,825.3c-0.8,0-1.5,0.3-2.1,0.9c-0.6,0.6-0.9,1.4-0.9,2.2c0,0.8,0.3,1.6,0.8,2.2
										c0.6,0.6,1.3,1,2.1,1c0.8,0,1.5-0.3,2.1-0.9c0.6-0.6,0.9-1.3,0.9-2.1c0-0.9-0.3-1.6-0.8-2.3
										C-722.4,825.6-723.1,825.3-723.9,825.3z"/>
								</g>
							</g>
						</g>
						<g transform="matrix( 1.2004852294921875, 0, 0, 1.2004852294921875, -269.35,-88.45) ">
							<g>
								<g id="ch3eye_ball__0_Layer0_0_MEMBER_0_MEMBER_0_FILL_00000055686657852396090910000000304437863881612468_">
									<path d="M-378.5,762.5c-0.7,0-1.3,0.9-1.2,1.6c0.1,0.5,0.6,1,1.1,1c0.7,0,1.2-0.7,1.2-1.2
										C-377.3,763.1-377.9,762.5-378.5,762.5z"/>
								</g>
							</g>
						</g>
						<g transform="matrix( 1.5006103515625, 0, 0, 1.5006103515625, -7.85,7.4) ">
							<g>
								<g id="ch3eye_ball__0_Layer0_0_MEMBER_0_MEMBER_1_FILL_00000145025181711025602970000009110080021382682271_">
									<path class="st10" d="M-477.4,546.9c0.1-0.1,0.1-0.2,0.1-0.3c0-0.1,0-0.2-0.1-0.3c-0.1-0.1-0.2-0.1-0.3-0.1
										c-0.1,0-0.2,0-0.3,0.1s-0.1,0.2-0.1,0.3c0,0.1,0,0.2,0.1,0.3c0.1,0.1,0.2,0.1,0.3,0.1C-477.6,547-477.5,547-477.4,546.9z"
										/>
								</g>
							</g>
						</g>
					</g>
					<g transform="matrix( -0.7544708251953125, -0.016265869140625, -0.018157958984375, 0.8441314697265625, -0.95,-38.3) ">
						<g>
							<g id="Cloth_1ch_head_0_Layer0_0_MEMBER_2_FILL_00000082335960708225276930000006839350875889201822_">
								<path d="M-687.1,811.9c-1.2-1.4-2.5-1.9-3.1-2.1c-3.1-0.8-7.1,1-9.5,4.8c0,0-0.2,0.1-0.1,0.3c0,0.2,0.2,0.2,0.2,0.2
									c0.2,0,0.4,0,0.7-0.1c0.4,0.2,4.5,2.6,9.1,1c3-1.1,4.4-3.2,4.9-3.9C-685.6,812-686.4,811.9-687.1,811.9z M-695.8,811.9
									c2.5-2,7.8-1.7,8.4,1.2c-1.1,4.2-8.3,3.1-11.5,1.5C-698,813.4-696.9,812.5-695.8,811.9z"/>
							</g>
						</g>
					</g>
					<g transform="matrix( -0.7544708251953125, -0.016265869140625, -0.018157958984375, 0.8441314697265625, -0.95,-38.3) ">
						<g>
							<g id="Cloth_1ch_head_0_Layer0_0_MEMBER_3_FILL_00000137125288595315735660000006722325174151881630_">
								<path d="M-712.5,810.2c-1.6-0.7-3.1-0.7-4.1-0.7c-3.1,0.1-5.4,1.4-6.5,2.1c-0.7-0.1-1.5-0.2-2.2-0.3
									c0.6,0.7,4.6,4.9,10.7,4.8c2.5,0,4.4-0.7,5.7-1.3c0.4,0.1,0.8,0,0.6-0.5l0,0l0,0c0,0,0,0,0,0c0,0,0-0.1,0-0.1
									C-708.8,813.7-709.8,811.4-712.5,810.2z M-717,810.3c3-0.3,7.2,1.4,8,4.1c-4.3,1.9-10.4,1.8-13.4-2
									C-721.4,811.2-718.6,810.4-717,810.3z"/>
							</g>
						</g>
					</g>
					<g transform="matrix( -0.7544708251953125, -0.016265869140625, -0.018157958984375, 0.8441314697265625, -0.95,-38.3) ">
						<g>
							<g id="Cloth_1ch_head_0_Layer0_0_MEMBER_4_FILL_00000160882322730827812550000008235897501986352777_">
								<path d="M-689.6,804.2c0.6,0.1,1.9,0.2,2.7,1c0.7,0.7,0.7,1.5,0.7,1.5c0.1,0,0.2-2.1-1.3-3.3c-0.5-0.4-1.2-0.7-2-0.8
									c-2.2-0.4-5,0.5-8.5,2.4c0,0.2,0,0.3,0,0.5c0,0.4,0.1,0.7,0.1,1C-697,806-692.9,803.9-689.6,804.2z"/>
							</g>
						</g>
					</g>
					<g transform="matrix( -0.7544708251953125, -0.016265869140625, -0.018157958984375, 0.8441314697265625, -0.95,-38.3) ">
						<g>
							<g id="Cloth_1ch_head_0_Layer0_0_MEMBER_5_FILL_00000154404797232496526520000007089868902913125806_">
								<path d="M-708.9,805.7c0.1-0.2,0.3-0.4,0.3-0.8c0-0.2,0-0.4-0.1-0.6c-4.9-2.1-8.8-3-11.5-2.7c-2.8,0.3-5,1.2-6.7,2.9
									c1.6-0.4,3.5-0.7,5.6-0.8C-715.9,803.4-711.6,804.7-708.9,805.7z"/>
							</g>
						</g>
					</g>
				</g>
				<g transform="matrix( 1.0998382568359375, 0.017730712890625, -0.017730712890625, 1.0998382568359375, -2.05,-472) ">
					<path d="M554.9,667.2c-0.1,0.9-0.2,2.2-1,3.6c-1.4,2.3-3.8,3.2-4.8,3.5c3-3,2.7-5.1,2.5-5.6c-0.4-2.1-2.9-3.4-7.8-6
						c-1.9-1-1.8-0.8-3.6-1.8c-2.5-1.3-5.6-3-8.5-5.6c-1.6-1.4-3.7-3.7-5.6-7.1l0,0c-0.2-0.4-1.4-2.5-1.6-2.8
						c-1.9-5.1-5.9-10.5-11.7-10.4l-0.2-13.2c0.1,0,0.1,0,0.2,0c0-0.1,0.1-0.1,0.1-0.2c0,0,0-0.1,0.1-0.1c8.2-4,16.8-2.1,23.7,2.6
						c9.4,6.4,12.7,16.5,13.5,19.3c1.2,4.4,0.4,4.9,2.1,10.6C553.5,657.6,555.3,662.1,554.9,667.2z"/>
					<path d="M493.4,649.5c0.1-1.4,0.1-2.8,0.3-4.1c0.4-3.2,1-6.1,1.8-8.7c0.7-2.1,1.6-4.1,2.6-5.9c1.1-1.9,2.4-3.6,4-5.1
						c2-1.9,4-3.2,6.2-3.8c1.2-0.3,2.4-0.5,3.6-0.4l0.1,0c0.3,0,0.5,0,0.7,0.1c0,0,0.1,0,0.1,0l0.2,13.2l0,0c-0.3,0-0.6,0-0.9,0.1
						c-0.1,0-0.3,0-0.4,0.1c-0.2,0-0.5,0-0.7,0.1c-0.7,0.2-1.4,0.6-2.1,1.3c-1.5,1.4-2.7,3-3.7,4.9c-1,1.8-1.7,3.8-2.1,5.8
						c-0.4,2.1-0.6,3.7-0.7,5c-0.1,1.3,0,2.7,0.2,4.3l0.3,3.6c0.1,1.5,0.5,3.7,1.1,6.7c0,0.1,0.1,0.3,0.1,0.5c0.8,3.7,2,6.9,3.6,9.4
						l3.3,5.3l0,2.8c-0.3,1-0.7,1.9-1.2,2.8c-0.1-0.2-0.2-0.5-0.4-0.7c-0.7-1.2-1.6-2.6-2.8-4c-0.4-0.6-0.9-1.1-1.4-1.7
						c-1-1.2-1.8-2.1-2.3-2.7c1.1,2.4,1.5,4.5,1.6,5.9c0.2,2.4,0,5.7,0,5.7c0,0,0,0.3,0,0.3c0,0-1-4.6-2.4-8.3
						c-1.4-3.8-2.5-5.1-4-8.1c-1.3-2.6-2.9-6.5-3.9-11.7c-0.1-0.7-0.3-1.4-0.4-2.1C493.4,656.8,493.2,653.3,493.4,649.5z"/>
				</g>
				<g transform="matrix( 1, 0, 0, 1, 0,0) ">
					<g>
						<g id="Layer5_48_MEMBER_2_FILL_00000046320268181879086180000001597125104554930601_">
							<path class="st53" d="M553.1,279.8c-3.8-0.1-5.1-0.4-5.2,0c-0.1,0.5,2.3,2,5.1,2.2c3.3,0.2,6.3-1.6,6.2-2.1
								C559.1,279.5,557.5,279.8,553.1,279.8z"/>
						</g>
					</g>
				</g>
				<g transform="matrix( 0.3377532958984375, 0, 0, 0.3377532958984375, 3216.95,368.4) ">
					<g>
						<g id="Layer4_0_MEMBER_8_FILL_00000100361329977781674790000005198517757128520328_">
							<path class="st26" d="M-7891.1-276.1c0.5,0.1,1.9,0.6,3.7,0.2c3.6-0.6,6.3-3.6,6-4.2c-0.3-0.5-2.9,1.8-7.3,1.8
								c-3.9,0-6.3-1.8-6.6-1.2C-7895.6-279-7893.7-276.9-7891.1-276.1z"/>
						</g>
					</g>
				</g>
				<g>
					<path class="st54" d="M580.3,273.1c0,0.5-0.1,0.9-0.3,1.1c-0.4,0.5-1.2,0.5-1.6-0.1c-0.2-0.2-0.2-0.6-0.2-1c0-0.1,0-0.2,0-0.3
						c0.1-1,0.5-2.1,1-3.1c0,0,0,0,0,0c0.6,1,0.9,2,1.1,3C580.3,272.9,580.3,273,580.3,273.1z"/>
					<path class="st55" d="M580.7,272.6c0-0.2-0.1-0.5-0.2-0.7c-0.3-1.3-0.8-2.4-1.4-3.5c-0.6,1.2-1.1,2.5-1.4,3.8
						c0,0.1-0.1,0.2-0.1,0.4c-0.3,2.3,0.2,3.4,1.6,3.4c1.1,0,1.7-0.7,1.6-2.2C580.9,273.5,580.8,273,580.7,272.6z M580,274.1
						c-0.4,0.6-1.2,0.7-1.7,0c0,0,0,0,0,0c-0.3-0.4-0.3-0.8-0.3-1c0-0.1,0-0.2,0-0.3c0.1-1,0.5-2.1,1-3.1l0-0.2l0,0.2c0,0,0,0,0,0
						c0.6,1,0.9,2,1.1,3c0,0.1,0,0.2,0.1,0.4C580.3,273.5,580.2,273.9,580,274.1z"/>
				</g>
			</g>
			<g transform="matrix( 0.351959228515625, 0, 0, 0.351959228515625, 4965.5,580.6) ">
				<g transform="matrix( 1, 0, 0, 1, 0,0) ">
					<g>
						<g id="Seragu_0_Layer0_0_FILL_00000052817647709592832270000003662236448257100939_">
							<path class="st56" d="M-12400.9-776.4c-15-3.3-31.3-5.4-48.9-6.5c-2.7,157.6-5.4,315.1-8.1,472.7
								c-42.6,0.5-85.3,0.9-127.9,1.4c2,4,5.5,9.5,11.4,14.4c34.3,28.6,104.2-5,115.9-10.6
								C-12347-358.8-12398.4-758.1-12400.9-776.4z"/>
							<path class="st57" d="M-12395-778c-1.9,0.5-3.9,1-5.8,1.6l0,0.1c12.1,73,19.6,167.6,7,276.2c-5.9,50.3-15.2,95.8-25.8,136.1
								c-5,10.2-15.9,29-37.2,43.8c-36.2,25.2-75.4,20.1-85,18.6c-6.3,5.6-12.7,11.2-19,16.8c13.5,4.1,25.8-0.6,57.6,0.6
								c21.7,0.8,30.4-3.1,42.1-9.2c34.1-17.7,58.5-49.6,68.4-86.7c3.6-13.7,7-27.8,10.1-42.2c16.2-76.2,18-136,19.2-182.9
								c1.5-59.2-2-93.8-3.7-108.7c-2.4-21-5.5-38.6-8-51.6C-12383.1-770.6-12387.2-773.1-12395-778z"/>
							<path class="st58" d="M-12393.6-771.5c-5.2-1.6-10.6-3-16.2-4.3L-12393.6-771.5z"/>
						</g>
					</g>
				</g>
			</g>
			<g transform="matrix( 1, 0, 0, 1, 0,0) ">
				<g>
					<g id="Cloth_1lady11_top_0_Layer1_0_MEMBER_1_FILL_00000121971539366304177300000008968935643913284495_">
						<path class="st59" d="M575.6,296c0,13.6-10.7,26.4-24.8,22.5c-13.4-0.9-3.9-10.5-1.5-16.4c1.9-2.4,3.4-4.5,3.2-5
							c-0.7,0.3-9.9,4.8-14.9,7.2c-3.1,1.5-5.8,3.6-8,6.2c-2.3,2.7-4.6,6.4-6.5,11.1c-0.7,1.7-3.5,8-1.6,22.4
							c1.8,13.8,3.2,16.1,5.2,27.8c1.1,6.8,1.4,12.5,1.5,16.1c10.3,3.5,52.1,16.9,60.3,4.1c0.4-0.6,0.7-1.2,0.9-1.9
							c-1.9-7.1-3.7-14.2-5.6-21.2c0.1-2,0.2-5,0.6-8.6c1.2-13.9,3.4-21.6,5.2-32.3c1-5.7,2.1-14,2.5-24.4
							C586.6,301,581.1,298.5,575.6,296z M543.6,336.8c0,0,0-0.1,0-0.1C543.6,336.7,543.6,336.8,543.6,336.8L543.6,336.8z"/>
						<path class="st60" d="M543.6,336.7c0,0,0,0.1,0,0.1l0,0C543.6,336.8,543.6,336.7,543.6,336.7z"/>
						<path class="st61" d="M575.5,295.7L575.5,295.7c0-0.1,0-0.1,0-0.2C575.5,295.6,575.5,295.6,575.5,295.7z"/>
					</g>
				</g>
			</g>
			<g transform="matrix( 1, 0, 0, 1, 0,0) ">
				<g>
					<g id="Cloth_1lady11_top_0_Layer1_1_FILL_00000042713383907169705120000000191786494280106928_">
						<path class="st59" d="M464.1,448.8c13.8,5.2,75.9,28.2,98.5,26c3.4-0.3,6.5-1.3,6.5-1.3c14-3.1,24.9-14.3,27.3-28.5
							c1.2-6.7,1.8-14.4,1.1-22.9c-1.2-14.3-5.5-25.6-9-32.6c-0.2,0-1.5,0.1-1.7,0.7c0,0,0,0.1,0,0.1c0,0,0,0.1,0,0.1
							c-1.9,7-10.1,10.8-24.7,11.4l-0.3,0c-0.3,0-0.5,0-0.8,0c-0.7,0-1.4,0-2.1,0c-0.2,0-0.3,0-0.5,0c-0.2-0.2-0.5-0.3-0.7-0.3
							c-0.2-0.1-0.5-0.1-0.7,0c-0.1,0.1-0.3,0.1-0.4,0.3c-0.5-0.4-0.9-0.4-1.3-0.1c0,0.1-0.1,0.1-0.2,0.2c-0.6-0.4-1.2-0.6-1.7-0.5
							c-0.1,0-0.1,0-0.2,0.1c-0.1,0-0.1,0-0.2,0.1c-0.7-0.4-1.3-0.4-2,0c0,0-0.1,0-0.1-0.1c-0.7-0.4-1.5-0.4-2.2,0.1
							c-0.1-0.1-0.1-0.1-0.2-0.2c-0.5-0.3-1.2-0.3-2.1,0c-0.1,0-0.2,0.1-0.3,0.1c-5.7-0.1-11.1-0.6-16.2-1.4
							c-0.7-0.1-1.4-0.2-2.1-0.4c0,0.1,0,0.1,0,0.2c0,0.1,0,0.2-0.1,0.3c0,0.1,0,0.2-0.1,0.3c-0.1,0.2-0.1,0.3-0.2,0.7
							c-0.1,0.3-0.6,3.4-2,12c-7,1.7-14.3,5.3-22.9,9.4C485.2,430.9,472.1,440.6,464.1,448.8z"/>
					</g>
				</g>
				<path class="st59" d="M454.3,592.6c4.3,3.6,18.2,5.1,33.7,5.2c7.3,0,14.8-0.3,21.9-0.9l0,0c0.1,0,0.3,0,0.4,0l0,0
					c0.2,0,0.5,0,0.7-0.1c0.1,0,0.2,0,0.3,0c2-0.2,3.9-0.4,5.7-0.6c5.2-0.6,10-1.4,13.8-2.3c1.4-0.3,2.8-0.7,3.9-1.1
					c0.4-0.1,0.9-0.3,1.3-0.4l0,0c2.2-0.8,3.7-1.7,4.2-2.7c1.8,0.2,3.8,0.1,5.7-0.2c6.3-0.8,12.6-3.5,14.2-5.8
					c-4.7-25-9.8-50.4-15.5-76.1c-0.2-0.9-0.4-2-0.4-2c-1.5-6.6-2.5-11.5-4.2-17.6c-0.4-1.3-0.4-1.3-0.4-1.4
					c-0.5-6.6,20-13.4,41.4-18.9c-23.3-13.1-46.6-26.2-69.9-39.3c-5.7-0.3-16-0.2-27.2,5c-20.2,9.3-29.2,27.7-30.3,33.9
					c-1.9,11.1-3.4,23.1-4.3,35.9C447.1,538.6,450.1,569,454.3,592.6z"/>
			</g>
			<g transform="matrix( 1, 0, 0, 1, 0,0) ">
				<g>
					<g id="Cloth_1lady11_top_0_Layer1_1_MEMBER_6_FILL_00000036213901467217325700000007778451261602407074_">
						<path class="st62" d="M589.4,389.9c-1-3.9-2.1-7.7-3.1-11.6c-3.7,3.3-15.2,12.7-32.6,13.7c-11.7,0.7-20.8-2.7-25.5-4.9
							c-0.2,4.9-0.5,9.7-0.7,14.6c4.3,2.5,16.6,8.9,32.2,6.6c4.4-0.6,14.6-2.3,23.3-10.5C586.1,394.9,588.2,392,589.4,389.9z"/>
					</g>
				</g>
			</g>
			<g transform="matrix( 1, 0, 0, 1, 0,0) ">
				<g>
					<g id="Cloth_1lady11_top_0_Layer1_2_FILL_00000094616963818839334540000011737795895973816509_">
						<path class="st57" d="M581.6,296.6c-10.1,4.4-27.2,13.6-42.1,31.6c-8.4,10.2-13.6,20.3-16.9,28.1c0.1,3.5,0.6,7.6,2.1,12
							c0.3,1,0.7,1.9,1,2.8c21.2-23.5,42.4-47,63.6-70.5c0.9,0.3,1.8,0.6,2.6,0.9C589.4,300.2,585.9,298.5,581.6,296.6z"/>
						<path class="st57" d="M571.6,364c-10.8,23.3-10.6,29.2-20.5,45.7c0,0-6.3,10.6-13,19c-23,28.7-67.9,37.5-84.5,40.2
							c0-1,0.2-2,0.4-3.2c0.6-3.4,1.8-6.1,3-8c36.8-6.3,56.5-21,67.7-33.3c19.3-21.3,19.6-42.6,47.1-88.1
							c8.9-14.6,17.1-26,22.6-33.3c4.4,2.2,8.7,4.4,13.1,6.7c-4.2,4.3-10,10.6-16,18.9C582.4,340.8,577.6,351.1,571.6,364z"/>
						<path class="st56" d="M595.4,303.4c-1.4-0.8-2.8-1.6-4.3-2.4c-0.6-0.3-1.2-0.6-1.8-0.9c-15.3,8.5-37.6,24.2-54.1,51
							c-4.1,6.7-7.3,13.3-9.9,19.4c0.8,4.4,1.1,8.9,1.9,13.3c0.8,5.1,1,11.8-0.5,19.7c0,0.1,0,0.1,0,0.2c-1,5-3.7,9.2-8.5,11
							c-9.7,3.8-17.6,7.7-23.6,11.1c-8.6,4.8-16.8,9.4-25.6,17.9c-5.4,5.2-9.3,10.2-11.9,13.8c50.2-8.5,70.7-27.1,80.1-42.8
							c6.1-10.2,7.3-19.4,20-47.1c8.5-18.5,16.3-33.3,21.5-43l0,0C584.7,317.1,590.3,310,595.4,303.4z"/>
					</g>
				</g>
			</g>
			<g transform="matrix( 1, 0, 0, 1, 0,0) ">
				<g>
					<g id="Cloth_1lady11_top_0_Layer1_2_MEMBER_0_FILL_00000096754093110848016720000010019746020092651146_">
						<path class="st63" d="M555.2,361.2l-0.2,0.3c0,0,0.1,0,0.1,0L555.2,361.2z"/>
					</g>
				</g>
			</g>
			<path d="M588.2,282.6c-1.1,2.4-2.6,6.1-3.8,10.7c-3.4,12.3-1.3,17.1-2.5,28.1c-1.6,14.9-6.4,16-11.4,39.3c-1.3,6-2.1,11-2.5,14
				c-2.6-6.6-4.8-15.6-3.2-25.8c1.2-7.7,4.1-14.1,4-13.9c-2,4.1-3.9,9.2-5.2,15c-0.4,1.9-0.8,3.7-1,5.5c-0.9-6.3-1.5-13.7-0.9-22.2
				c1.1-18,6.7-32.2,11.2-41.3C577.9,288.9,583,285.8,588.2,282.6z"/>
			<path class="st57" d="M494.1,581.3c-3.8,1.6-11.5,4.1-21.3,3.3c-9.4-0.7-16.3-4.2-19.9-6.2c-0.5,7.4-1.1,14.8-1.6,22.2
				c3.1,1.9,7.7,4.3,13.7,5.9c6.3,1.7,11.5,1.7,13.7,1.7c7.7-0.2,13.9-2.2,17.7-3.8c4.9,1.2,14.7,3.1,26.6,0.1
				c9.5-2.4,16.2-6.8,20-9.7c1.6,0,6-0.1,10.3-3.1c5.6-3.9,7-9.8,7.3-11.2c-1.7-5.4-3.4-10.8-5.1-16.2c-1.3,1.8-3.5,4.3-6.8,6.3
				c-6,3.7-12,3.8-14.5,3.7c-3,2.4-10,7.4-20.4,8.9C504.9,584.5,497.7,582.5,494.1,581.3z"/>
		</g>
	</g>
	<path style="clip-path:url(#SVGID_00000057831999336041515320000002513288343670344325_);fill:#FCB99B;" d="M535.8,437.7
		c-1.8,1.6-3.6,3.1-5.4,4.7c-1.8,1.5-3.9,2.6-6.2,3.1c-1,0.2-2.1,0.6-3.2,1c-1.5,0.6-3.6,1.4-5.9,3.1c-0.6,0.4-2.8,2.1-4.9,5
		c-1.4,2-2.3,3.8-2.8,5.2c0.3,0.4,0.5,0.5,0.7,0.5c0.8,0.2,1.6-1.2,2.4-2c0,0,0.2-0.2,0.5-0.7c0,0-2.4,2.9-4.6,6.2
		c-1,1.5-1.9,3-1.4,3.6c0.1,0.2,0.3,0.2,0.4,0.3c0.8,0.2,1.7-0.9,3.7-3.2c1.3-1.4,3-3.2,3-3.2c0,0,0,0,0,0c0,0-0.1,0.2-3.2,4.5
		c-1.8,2.3-2.9,3.9-0.4,3.7c0.8-0.1,1.2-0.8,1.3-0.9c4-4.2,5.3-5.5,5.4-5.5c0.1,0.1-5.3,5.4-4.4,6.8c1.1,1.1,3-0.5,3.2-0.9
		c2-2.3,4.5-4.8,4.4-4.7c-0.2,0.2-2.7,2.7-2.3,3.2c1.9,2.2,14.8-12.1,13.8-10.6c2.3-2.6,5.2-5.5,9-8.3c2.2-1.6,4.3-2.9,6.2-4
		C541.9,442.2,538.9,440,535.8,437.7z"/>
	<g style="clip-path:url(#SVGID_00000057831999336041515320000002513288343670344325_);">
		<path class="st25" d="M603.4,343.5c-3.8,1.2-7.5,2.3-11.3,3.6c-1.8,0.6-3.5,1.2-5.3,1.9c-1,0.4-2,0.8-3,1
			c-0.4,10.8-0.8,21.5-1.2,32.3c-0.2,4.5-1,12.4-1.2,16.9c-17.8,16-34.9,28.7-52.7,44.7c1.1,1.3,2.5,2.9,4.5,4.4
			c1.1,0.9,2.2,1.6,3.2,2.1c35.5-22.7,59.5-36.3,61.1-37.7c1.1-0.9,1.9-2.1,1.9-2.1c0.6-1,0.9-1.9,1-2.5c1.2-11,4.1-26,4.6-38.4
			c0.4-9.3,0.5-18.2,0.4-26.8C604.8,343,604.1,343.2,603.4,343.5z"/>
	</g>
	<g style="clip-path:url(#SVGID_00000057831999336041515320000002513288343670344325_);">
		<circle class="st65" cx="258.4" cy="403.2" r="7.5"/>
		<path class="st19" d="M253.1,414.2c0,19,8,23.9,8.3,24.1c0.7,0.4,1.4,0.7,2.2,1.1c0.2,0.4,0.4,0.8,0.6,1.2
			c0.1-0.8,0.3-1.7,0.4-2.5c-1-0.8-2.3-2.2-3.4-4.2c-1.6-3.2-2.2-7.8-0.7-8.8c1-0.6,2.9,0.4,3.9,1.5c1,1.2,1.1,2.6,1.1,3.1
			c0.1,2.3,0.3,4.6,0.4,6.8l3.2-13.3l12.7-6.1l-11.8,9.2c0,0,4.5-0.6,6.6-1.2c4-1.1,7.5-2.9,10.3-4.6c4-2.5,6.5-4.8,6.5-4.8v7.3
			c2.1-4.3,2.9-7.4,3.2-9.5c0.3-2.6-0.3-3.8-0.3-3.8c-4.3-16-31.5-18.5-40.5-4.6C254.3,407.7,253.3,410.7,253.1,414.2z"/>
	</g>
	<g style="clip-path:url(#SVGID_00000057831999336041515320000002513288343670344325_);">
		<path class="st66" d="M211.6,578.7c6.7,3.9,12,4.5,15.7,4.2c7.3-0.5,9.4-4.2,21.6-7.9c5.2-1.5,8.7-2.6,13.6-2.6
			c7.9-0.1,10.8,2.2,17.6,1.5c3.8-0.4,8.2-1.6,12.9-4.5"/>
		<path class="st66" d="M211.3,582.3c6.4,4,11.5,4.6,14.9,4.4c7.3-0.3,9.4-4.3,21.6-7.9c5.2-1.5,8.7-2.6,13.6-2.6
			c8.2-0.1,10.8,2.1,17.6,1.5c3.3-0.3,8.1-1.3,13.8-5"/>
		<path class="st66" d="M211,585.6c6.6,4.2,11.8,4.7,15.2,4.6c7.3-0.4,9.3-4.2,21.6-7.9c5.2-1.5,8.7-2.6,13.6-2.6
			c8.1-0.1,10.8,2.2,17.6,1.5c3.4-0.3,7.9-1.4,13.2-4.7"/>
	</g>
	<path style="clip-path:url(#SVGID_00000057831999336041515320000002513288343670344325_);fill:#666666;" d="M437.1,479.4
		c0.9-0.6,1.8-1.2,2.8-2c1.5-1.2,2.7-2.5,3.6-3.6c0.6,0.4,1.3,0.8,1.9,1.2c-0.1,1.1-0.5,3.1-1.8,5.1c-1.6,2.6-3.7,3.9-4.7,4.5
		c0-0.8,0-2.2-0.7-3.7C437.8,480.3,437.4,479.8,437.1,479.4z"/>
	<g style="clip-path:url(#SVGID_00000057831999336041515320000002513288343670344325_);">
		<path class="st24" d="M437.1,479.4c-0.5,0.9-1.3,2.4-1.7,3.1c0,0-0.6,6-0.6,6c-0.7,6-1,12.1-1.7,18.1c0,0-0.2-0.2-0.2-0.2
			c1.3,0.1,2.5,0.1,3.8,0.2c-1.3,0.1-2.6,0.1-4,0.2c0.2-6.1,0.4-12.3,1.3-18.4c0,0,0.9-6,0.9-6C435.7,481.4,436.4,480.4,437.1,479.4
			L437.1,479.4z"/>
	</g>
	<g style="clip-path:url(#SVGID_00000057831999336041515320000002513288343670344325_);">
		<g id="a1_acton_3_Layer1_0_MEMBER_3_MEMBER_0_FILL_00000147910221286631099000000018226156720760645808_">
			<path class="st44" d="M609,345.5c1-7.4,2.7-19.4-3.9-29c-1.3-1.9-2.6-3.2-3.4-4c-3.3,3.9-6.8,8.4-10.2,13.6
				c-4.6,6.9-8.2,13.6-10.9,19.5c0.3,3.8,0.3,19.3,0.6,23.1c8.4-0.3,17.8-0.5,26.2-0.7C608.1,363.4,608.7,348.1,609,345.5z"/>
		</g>
	</g>
</g>
</svg>
