<?xml version="1.0" encoding="utf-8"?>
<!-- Generator: Adobe Illustrator 26.0.1, SVG Export Plug-In . SVG Version: 6.00 Build 0)  -->
<svg version="1.1" id="Layer_1" xmlns="http://www.w3.org/2000/svg" xmlns:xlink="http://www.w3.org/1999/xlink" x="0px" y="0px"
	 viewBox="0 0 818 734" style="enable-background:new 0 0 818 734;" xml:space="preserve">
<style type="text/css">
	.st0{fill:#BDDEEF;}
	.st1{fill:#99CCE0;}
	.st2{fill:#52A7C1;}
	.st3{fill:#FFFFFF;}
	.st4{fill:#B6DB97;}
	.st5{fill:#4A8755;}
	.st6{fill:#EBE356;}
	.st7{fill:#D34047;}
	.st8{fill:#DE9F7E;}
	.st9{fill:#D38A6A;}
	.st10{fill:#FCB856;}
	.st11{fill:#CE8065;}
	.st12{fill:#6B3628;}
	.st13{fill:#211E1F;}
	.st14{fill:#D3D3D3;}
	.st15{fill:#FFFFFF;stroke:#D3D3D3;stroke-width:2.3712;stroke-miterlimit:10;}
	.st16{fill:#B7303D;}
	.st17{fill:#DD9373;}
</style>
<g>
	<g>
		<g>
			<path class="st0" d="M266.1,186.2c-9.4,10-18.2,21.7-24,33.5c-12.2,24.9-13.2,60.5-9.5,87.7c2.5,18.8,13.5,44.9,8.1,63.9
				c-7.3,25.8-45.9,24.7-64.7,31.2c-17.3,5.9-33.7,20.5-42.5,38.3c-27.1,54.5,5.5,83.7,21.8,108c18.5,27.7-21.8,61.2,1.3,88.8
				c24.2,28.9,53.4,40.9,101.9,40.9c96,0,117.5,8.3,250.5-2.1c25.2-2,58.8-8.3,83.9-11.3c37.9-4.5,131.4-41,107-109.9
				c-18.1-51-112.9-43.2-81.1-112.9c20.8-45.6,59.9-108.9,11.3-149.2c-35.3-29.3-57.9-46.1-78.3-90.3
				c-22.4-48.4-53.9-74.7-103.4-79.3c-26.8-2.5-54-2.3-80.3,4.4c-32.1,8.1-63.9,23.5-89.6,46.4C274.3,177.8,270.1,181.9,266.1,186.2
				z"/>
			<g>
				<path class="st1" d="M601.1,502.9c0.4-5.2,0.5-10.3-0.4-15.5c-1.9-10.7-6.9-21-13.5-29.7c-6.2-8.1-12-13-20.5-18.9
					c-11.6-8-26.3-9.9-40.1-10.7c-10.7-0.7-21.6-0.5-32.4,0c-4.1,0.2-8.2,0.5-12.3,0.8c-1.8,0.1-3.5-0.3-5.2,0.4c2.1,1,4.2,3,6,4.6
					c4.8,4.3,8.4,10.6,12.2,15.7c4.7,6.5,8.8,13.3,13.8,19.6c8.9,11,22.2,20.4,36.5,22.6c13,2,27.9-1.3,40,5.1c0,0,12.1,6.4,14,28.6
					L601.1,502.9z"/>
				<path class="st1" d="M624.7,438.4c13.5-14.6,35.4-17.1,53-24.8c11.6-5.1,24-12.7,31.7-23c-2.7,13.9-0.8,28.9-2.5,43.2
					c-1.5,13.1-7,24.7-16.6,33.9c-18.2,17.5-47.8,11.7-64.5,31c-7.7,8.8-10.4,22.4-13.2,32.6c-0.1-10.9-1.3-23.8-1.4-27.7
					C611.2,503.5,605.6,458.8,624.7,438.4z"/>
				<path class="st2" d="M602.7,465c-3.1-11.9-13.4-25.9-22.3-34.1c-9.5-8.7-21.1-10.7-32.1-16.6c-5.8-3.1-10.6-7.3-12.5-13.9
					c-5.2-18.1,0.7-37.5,1.7-55.9c0.6-10.3,1.3-19.9-2.2-29.4c0.5,1.5,7.7,4.6,9.2,5.7c2.8,2,5.6,4,8.4,5.9
					c13.5,8.9,28.6,14.7,39.3,27.3c9.2,10.9,15.3,24.9,18.4,38.7c1.7,7.5,2.7,15.4,3,23c0.4,10.3-0.9,21.5-3.4,31.5
					c-2.3,9.3-2.2,23-3.9,32.3L602.7,465z"/>
				<path class="st3" d="M575.6,380.4c5.7,12.9,11.5,26.7,16.3,40.1c4.8,13.3,8.6,26.1,10.1,36.7l0,0c3,19,3.1,39.7,3.1,59.7
					c0,7.7-0.8,127.7-0.8,134.6c0,0.8,0.6,1.5,1.5,1.5c0.8,0,1.5-0.7,1.5-1.5c0-6.9,0.8-126.9,0.8-134.6c0-20,0-40.8-3.1-60.2
					l-1.4,0.2l1.4-0.2c-1.6-10.9-5.4-23.9-10.2-37.3c-4.8-13.4-10.7-27.4-16.4-40.3c-0.3-0.7-1.2-1.1-1.9-0.7
					C575.6,378.8,575.3,379.7,575.6,380.4z"/>
				<path class="st3" d="M532.7,451.3c10.9,1.7,22.9,4.6,33.4,9.7c10.5,5.1,19.5,12.4,24.4,22.9c3.2,6.7,5.6,15,6.5,22.3
					c0.2,1.3,0.3,4.3,0.4,8.6c0.3,12.8,0.4,36.8,0.4,61.2c0,34.3-0.2,69.3-0.2,75.2c0,0.8,0.7,1.5,1.5,1.5c0.8,0,1.5-0.7,1.5-1.5
					c0-5.9,0.2-40.9,0.2-75.2c0-16.3,0-32.3-0.2-45.1c-0.1-6.4-0.1-11.9-0.3-16.2c-0.1-4.3-0.2-7.3-0.4-8.8
					c-0.9-7.7-3.5-16.2-6.8-23.2c-5.4-11.3-14.9-19-25.8-24.3c-10.9-5.3-23.2-8.2-34.2-10c-0.8-0.1-1.5,0.4-1.7,1.2
					C531.4,450.4,531.9,451.2,532.7,451.3L532.7,451.3z"/>
				<path class="st3" d="M614.1,651.5c0-4.4,0-16.9,0-33c0-21.3,0.1-48.8,0.5-72.5c0.2-11.8,0.5-22.7,0.8-31.3c0.2-4.3,0.4-8,0.6-11
					c0.2-3,0.5-5.3,0.8-6.6c3.4-15.8,11-30.2,22.9-41.6c11.9-11.4,28.2-19.8,48.9-23.6c0.8-0.1,1.3-0.9,1.2-1.7
					c-0.1-0.8-0.9-1.3-1.7-1.2c-21.2,3.9-38,12.6-50.3,24.4c-12.4,11.8-20.3,26.8-23.8,43.1c-0.3,1.6-0.6,3.9-0.9,7
					c-0.9,10.7-1.3,30.1-1.6,51.6c-0.3,21.4-0.3,44.9-0.3,63.5c0,16.1,0,28.6,0,33c0,0.8,0.6,1.5,1.5,1.5
					C613.4,653,614.1,652.3,614.1,651.5z"/>
			</g>
			<g>
				<path class="st2" d="M547,624.2c5-0.5,10,1.4,9.5,7.1c11.8-4.4,19.8,6.4,19.8,14.3H289.1c-11.3-13.4,8-38.7,21.9-31.7
					c-2.4-8.8,6.1-14.5,11.6-12c-0.7,0.5,3-11.9,14.6-7.1c-0.3-12.2,9.8-15.6,19.1-9.7c1.2-10.1,15.5-19.2,22.1-7.9
					c-0.2-15.3,20-17.7,22.9-2.4c4.2-4.5,9.9-1.1,10.5,4.4c3.7-5,8-4.4,11.4,0.2c-10-25.2,28.2-32.8,29.8-9.6
					c5.9-9.8,18.8-3.7,16.4,5.8c5.5-4.9,14-2.5,13,5.9c7.6-8.1,27-8.5,28.3,8.5c4.5-4.9,10.5-3.5,11.7,3.4c6.7-0.8,12,2,10.6,9.4
					c3.1,0.2,7.5-0.1,8.6,7.5C541.5,610.6,551.9,613.1,547,624.2z"/>
				<path class="st2" d="M167.5,645.6c-5.1-19.6,24.5-30.5,32.5-11.2c-0.4-7.2-2.8-15.2,5.9-19.3c8.7-4.1,15.2,3.1,18.9,9.3
					c-9.9-16.7-5.6-37.6,17.3-43.2c24.4-6,36.4,6.5,37,31.8c1.7-11.6,23-14.1,24.2,2.4c8.9-3.1,10.3-11.9,22.9-10.8
					c11.1,1,16.3,8.1,20.5,18c0,0,25.4,0.9,19.5,23.2H167.5z"/>
			</g>
			<path class="st1" d="M681.5,660.4c0,18.4-122.7,33.3-274.2,33.3c-151.4,0-274.2-14.9-274.2-33.3c0-18.4,122.7-33.3,274.2-33.3
				C558.8,627.2,681.5,642.1,681.5,660.4z"/>
		</g>
		<g>
			<g>
				<g>
					<g>
						<path class="st1" d="M676.2,99.9l0,0.2l-1.2,6c-0.3,1-0.6,1.9-0.9,2.9l-1,2.9c-0.4,0.9-0.8,1.9-1.3,2.8l-1.3,2.8
							c-0.4,0.9-1.1,1.8-1.6,2.6l-1.6,2.6c-0.6,0.8-1.3,1.6-1.9,2.4l-1.9,2.4c-0.7,0.8-1.5,1.4-2.2,2.1l-2.2,2.1
							c-1.6,1.3-3.2,2.5-4.9,3.7l-3.7,2.1l0.1,2.1c0.1,1.4-0.1,2.4-0.1,3.6l-0.1,0.9l0,0.4l0,0.2l0,0.3l0,0.1L650,147
							c-0.2,1.3-0.4,2.5-0.8,3.7c-0.6,2.5-1.5,4.9-2.5,7.2l-1.7,3.4c-0.6,1.1-1.4,2.2-2,3.2c-1.5,2.1-3.1,4.1-4.9,5.9
							c-0.9,0.9-1.8,1.8-2.8,2.6c-1,0.8-1.9,1.7-3,2.4c-2.1,1.5-4.3,2.8-6.6,3.9c-1.2,0.5-2.3,1.1-3.5,1.5l-3.7,1.2
							c-2.5,0.6-5,1.2-7.5,1.4c-1.2,0.2-2.6,0.2-3.9,0.2l-2,0l-1.8-0.1l-1.7-0.2l-0.4,0l-0.4,0l-0.2-0.1l-0.9-0.2l-3.8-0.8
							c-1.2-0.3-2.4-0.8-3.6-1.2c-1.2-0.4-2.4-0.8-3.6-1.4L585,178l-3.2-2.1c-1.1-0.6-2.1-1.5-3.1-2.3c-1-0.9-2-1.6-2.9-2.5
							c-1.7-1.9-3.5-3.7-4.9-5.8c-0.9-1.2-1.7-2.4-2.4-3.8c-0.8,0.5-1.6,0.9-2.5,1.3l-2.7,1.3c-0.9,0.4-1.9,0.7-2.8,1
							c-1.8,0.8-3.8,1.2-5.7,1.7c-1.9,0.4-3.9,0.8-5.8,1.1c-2,0.1-3.9,0.5-5.9,0.4l-3,0c-1,0-1.9-0.2-2.8-0.2l-1.4-0.1l-0.7-0.1
							l-0.3,0l-0.5-0.1l-2.9-0.5c-1.9-0.4-3.9-0.8-5.7-1.4c-1.9-0.5-3.7-1.2-5.6-1.9c-1.8-0.8-3.6-1.6-5.4-2.6c-1.7-0.9-3.4-2-5-3.1
							c-1.6-1.1-3.2-2.4-4.7-3.7c-1.4-1.3-2.9-2.7-4.2-4.2c-0.7-0.7-1.3-1.5-1.9-2.3c-0.6-0.8-1.2-1.6-1.8-2.4
							c-1.2-1.7-2.2-3.4-3.1-5.2c-0.5-1-1-2.1-1.5-3.2l-1,0l-1-0.1l-2.2-0.2l-2.2-0.4c-1.5-0.4-3-0.8-4.3-1.4
							c-1.4-0.5-2.8-1.3-4.1-2.1l-1.9-1.3l-1.8-1.4c-1.1-1-2.2-2.1-3.1-3.3c-0.5-0.6-1-1.2-1.4-1.8c-0.4-0.6-0.9-1.2-1.2-1.9
							c-0.8-1.3-1.4-2.7-1.9-4.1c-0.5-1.4-0.9-2.9-1.2-4.3c-0.2-0.7-0.2-1.5-0.3-2.2c-0.1-0.7-0.2-1.5-0.1-2.3
							c0-0.7-0.1-1.7,0.1-2.3l0.2-2.1c0.3-1.5,0.5-2.9,1-4.4c0.4-1.4,1.1-2.8,1.7-4.1l1.1-1.9c0.4-0.6,0.9-1.2,1.3-1.8
							c0.4-0.6,0.9-1.1,1.4-1.7c0.5-0.6,1-1.1,1.5-1.6c0.6-0.6,1.3-1.2,1.9-1.7c-0.4-1.1-0.8-2.2-1.1-3.3c-0.4-1.7-0.8-3.5-0.9-5.4
							c-0.1-0.9-0.2-1.9-0.2-2.8l0.1-2.5l0.1-1.2l0-0.3l0-0.4l0-0.2l0.1-0.7l0.4-2.7c0.5-1.8,0.8-3.6,1.5-5.2c0.6-1.7,1.4-3.3,2.3-5
							c1-1.5,1.9-3.1,3-4.5c1.1-1.5,2.4-2.8,3.7-4.1c1.4-1.2,2.7-2.4,4.3-3.4c1.5-1.1,3.1-1.9,4.7-2.8c1.7-0.7,3.3-1.5,5.1-2
							c1.7-0.6,3.5-0.9,5.3-1.2c1.8-0.2,3.6-0.4,5.5-0.3c2,0,3.5,0.2,5.2,0.4c2.1,0.4,3.6,0.9,5.4,1.3c0.7,0.3,1.4,0.5,2.1,0.9
							l0.4-1.4c0.4-1.5,1.1-2.8,1.6-4.3c0.5-1.4,1.3-2.7,1.9-4.1c0.6-1.4,1.5-2.7,2.3-4l1.2-2l1.4-1.8c0.9-1.2,1.8-2.4,2.9-3.5
							c2-2.3,4.3-4.4,6.7-6.4c1.2-0.9,2.4-1.9,3.7-2.8l3.9-2.4l4.1-2.1c1.4-0.6,2.9-1.2,4.3-1.8c2.9-1,5.9-1.9,9-2.4
							c1.5-0.3,3.1-0.5,4.6-0.7l2.3-0.2c0.8,0,1.6,0,2.4,0c1.6,0,3.3-0.1,4.6,0.1l2.2,0.2l1.1,0.1l0.7,0.1l0.6,0.1
							c3.1,0.5,6.1,1.1,9.1,2.1c1.5,0.5,2.9,1,4.4,1.6l2.1,0.9l2.1,1c2.8,1.4,5.4,3,7.9,4.9c1.2,0.9,2.4,1.9,3.6,2.9
							c1.1,1,2.3,2.1,3.3,3.2c2.1,2.3,4.1,4.6,5.8,7.2c0.9,1.3,1.7,2.6,2.4,3.9c0.8,1.3,1.4,2.7,2.1,4.1c0.7,1.4,1.2,2.8,1.8,4.2
							c0.3,0.8,0.5,1.5,0.8,2.3l2.8,0.2l0.5,0.1l0.3,0.1l0.7,0.1l1.3,0.2l2.6,0.5c1.7,0.5,3.4,1,5.2,1.5c1.7,0.7,3.3,1.3,5,2
							c1.6,0.9,3.2,1.6,4.7,2.6c1.5,1,3.1,1.9,4.4,3.1c1.4,1.1,2.8,2.2,4.1,3.5c1.3,1.2,2.6,2.5,3.7,3.9l1.7,2l1.5,2.2
							c1.1,1.4,1.9,3,2.8,4.6c0.9,1.5,1.6,3.2,2.3,4.8c0.8,1.6,1.2,3.4,1.8,5c0.6,1.7,0.8,3.5,1.2,5.2c0.3,1.7,0.5,3.5,0.7,5.3
							c0.1,1.8,0.1,3.7,0.1,5.5L676.2,99.9z"/>
						<path class="st1" d="M492.2,159.7l0,0.1c0,0,0,0.4-0.2,1c-0.1,0.7-0.5,2.1-1.2,3.5c-0.7,1.4-1.8,3-3.3,4.4
							c-1.6,1.4-3.6,2.7-6,3.7c-2.4,0.9-5.2,1.4-8.1,1.3c-0.8-0.1-1.4-0.1-2.3-0.2c-0.7-0.1-1.2-0.2-2.1-0.4c-1.6-0.4-3-0.9-4.5-1.6
							c-2.9-1.5-5.6-3.6-7.5-6.6c-1.9-2.9-2.9-6.5-2.3-10.4c0.2-1.3,0.9-3.5,1.8-4.9c0.9-1.6,2.1-2.8,3.4-3.9c2.6-2.2,5.7-3.4,8.8-4
							c3-0.5,6.2-0.4,8.8,0.2c2.9,0.7,5.2,1.8,7.3,3.2c2,1.4,3.7,3.1,4.8,4.8c1.2,1.7,1.8,3.4,2.2,4.9c0.3,1.5,0.4,2.7,0.4,3.5
							C492.3,159.3,492.2,159.7,492.2,159.7z"/>
						<path class="st1" d="M460.7,184c0-0.5,0-1.1-0.3-1.9c-0.2-0.8-0.6-1.7-1.2-2.5c-0.6-0.8-1.4-1.7-2.4-2.4
							c-0.5-0.3-1.1-0.7-1.7-1c-0.3-0.1-0.7-0.3-1-0.4c-0.3-0.1-0.6-0.2-0.9-0.2c-1.4-0.4-2.9-0.4-4.5-0.3c-1.6,0.3-3.3,0.7-4.7,1.9
							c-0.4,0.2-0.7,0.6-1,0.9c-0.3,0.3-0.7,0.7-1,1.2l-0.4,0.8c-0.1,0.3-0.2,0.5-0.3,0.7l-0.2,0.5l-0.1,0.2l0,0.1l0,0.1l0,0
							l-0.1,0.3c-0.3,2.1,0.3,4.2,1.4,5.7c1.1,1.6,2.5,2.6,4.1,3.4c0.8,0.3,1.9,0.7,2.4,0.7l0.9,0.2l0.5,0.1l0.3,0l0.6,0
							c1.5,0,2.9-0.3,4.1-0.8c1.2-0.5,2.3-1.2,3.1-1.9c0.8-0.8,1.4-1.5,1.8-2.4c0.5-1,0.5-1.3,0.5-1.6c0.1-0.3,0.1-0.5,0.1-0.5
							l0.1-0.2C460.7,184.7,460.7,184.5,460.7,184z M457.1,184.2C457.1,184.2,457.1,184.2,457.1,184.2l0-0.1c0-0.1,0-0.1,0-0.1
							L457.1,184.2z"/>
					</g>
					<g>
						<g>
							<path class="st4" d="M548,113.4c-1.6,0.7-2.8,2-3.3,3.7c-6.7-0.4-13.4-1.7-20.1-1c-6.7,0.8-13.2,2.8-19.5,5
								c-0.8-1.5-2.3-2.3-3.9-2.3c-0.6-5.4-1.3-10.9-2-16.3c1.5-1.2,2.8-3,3.1-5c6.3-2.2,12.7-4.2,19.4-5c6.7-0.8,13.4,0.6,20.1,1
								c0.8,1.6,2.3,3.2,4.2,3.6C546.6,102.6,547.3,108,548,113.4z"/>
							<g>
								<path class="st5" d="M530.8,104.3c0.5,4.3-1.9,9.1-6.5,9.6c-4.7,0.5-8.2-3.8-8.7-8.1c-0.5-4.2,1.6-10.2,6.4-10.9
									C526.8,94.2,530.3,100.2,530.8,104.3z"/>
								<g>
									<path class="st4" d="M526.5,108.1c-0.5,0.5-1.1,0.9-2,1.1c0.1,0.6,0.1,0.9,0.2,1.5c-0.6,0.1-0.8,0.1-1.4,0.2
										c-0.1-0.6-0.1-0.9-0.2-1.5c-0.6,0-1.2,0-1.7-0.1c-0.5-0.1-1-0.3-1.5-0.5c0.2-0.6,0.3-0.8,0.4-1.4c0.9,0.5,1.7,0.7,2.7,0.6
										c-0.1-1.1-0.2-1.7-0.3-2.8c-0.6-0.1-1.2-0.2-1.6-0.3c-0.4-0.1-0.8-0.3-1.1-0.7c-0.3-0.3-0.5-0.8-0.6-1.4
										c-0.1-0.5,0-1,0.2-1.4c0.2-0.4,0.5-0.8,0.9-1.2c0.4-0.3,0.9-0.6,1.4-0.7c-0.1-0.6-0.1-0.9-0.2-1.5c0.6-0.1,0.8-0.1,1.4-0.2
										c0.1,0.6,0.1,0.9,0.2,1.5c0.5,0,1,0.1,1.5,0.3c0.5,0.2,0.9,0.4,1.3,0.7c-0.2,0.5-0.3,0.8-0.4,1.3c-0.7-0.5-1.5-0.8-2.3-0.8
										c0.1,1.2,0.2,1.8,0.4,2.9c0.6,0.1,1.2,0.2,1.6,0.4c0.4,0.2,0.8,0.4,1.1,0.8c0.3,0.3,0.5,0.8,0.6,1.4
										C527.1,107,526.9,107.6,526.5,108.1z M521.5,103.2c0.2,0.2,0.6,0.3,1,0.4c-0.1-1-0.2-1.6-0.3-2.6c-0.4,0.1-0.7,0.3-0.9,0.6
										c-0.2,0.3-0.3,0.6-0.2,0.9C521.1,102.8,521.3,103,521.5,103.2z M525,107.2c0.2-0.2,0.2-0.5,0.2-0.9c0-0.3-0.2-0.5-0.4-0.7
										c-0.2-0.2-0.5-0.3-0.9-0.4c0.1,1,0.2,1.5,0.3,2.4C524.6,107.6,524.9,107.5,525,107.2z"/>
								</g>
								<path class="st5" d="M541.2,91.4c-6.6-0.4-13.2-1.7-19.8-1c-6.5,0.7-12.9,2.7-19,4.9c-2,0.7-4,1.4-6,2.2
									c0.3,2,0.5,4.1,0.8,6.1c0.6,5.2,1.3,10.4,1.9,15.6c0.2,2,0.5,4.1,0.7,6.1c0,0,0,0,0,0c1.9-0.8,3.8-1.5,5.8-2.2c0,0,0,0,0,0
									c6.2-2.2,12.6-4.1,19.2-4.9c6.6-0.7,13.2,0.6,19.8,1c2.1,0.1,4.1,0.1,6.2-0.2c-0.3-2-0.5-4.1-0.8-6.1
									c-0.6-5.2-1.3-10.4-1.9-15.5c-0.3-2-0.5-4.1-0.8-6.1C545.3,91.5,543.2,91.5,541.2,91.4z M548,113.4c-1.6,0.7-2.8,2-3.3,3.7
									c-6.7-0.4-13.4-1.7-20.1-1c-6.7,0.8-13.2,2.8-19.5,5c-0.8-1.5-2.3-2.3-3.9-2.3c-0.6-5.4-1.3-10.9-2-16.3
									c1.5-1.2,2.8-3,3.1-5c6.3-2.2,12.7-4.2,19.4-5c6.7-0.8,13.4,0.6,20.1,1c0.8,1.6,2.3,3.2,4.2,3.6
									C546.6,102.6,547.3,108,548,113.4z"/>
							</g>
						</g>
					</g>
					<path class="st6" d="M610,54.8c-0.1,0.2-0.3,0.3-0.4,0.5c-0.5,0.6-1.2,1.1-2.1,1.5c-1.8,0.8-3.3,0.9-5.1,0.1
						c-0.7-0.3-1.3-0.7-1.9-1.1l4.7-2.1l-1-2.3l-5.4,2.4c-0.1-0.3-0.3-0.5-0.4-0.8c-0.1-0.3-0.3-0.6-0.4-1l5.4-2.4l-1-2.3l-4.7,2.1
						c0-0.7,0.2-1.4,0.4-2c0.6-1.8,1.7-2.9,3.5-3.7c0.7-0.3,1.4-0.5,2.2-0.5l0-2.7c-1.2,0-2.1,0.1-3.2,0.6c-2.8,1.2-4.5,3.1-5.3,6.1
						c-0.3,1.2-0.4,2.4-0.4,3.5l-2.2,1l1,2.3l1.7-0.7c0.1,0.3,0.2,0.7,0.4,1c0.1,0.3,0.2,0.5,0.4,0.8l-1.7,0.7l1,2.3l2.1-0.9
						c1,1.1,2.2,1.9,3.6,2.5c2.5,1,4.7,0.9,7.2-0.2c1.2-0.5,2.2-1.2,3.1-2.2L610,54.8z"/>
					<path class="st6" d="M574.3,134.1c-0.1,0.2-0.3,0.3-0.4,0.5c-0.5,0.6-1.2,1.1-2.1,1.5c-1.8,0.8-3.3,0.9-5.1,0.1
						c-0.7-0.3-1.3-0.7-1.9-1.1l4.7-2.1l-1-2.3l-5.4,2.4c-0.1-0.3-0.3-0.5-0.4-0.8c-0.1-0.3-0.3-0.6-0.4-1l5.4-2.4l-1-2.3l-4.7,2.1
						c0-0.7,0.2-1.4,0.4-2c0.6-1.8,1.7-2.9,3.5-3.7c0.7-0.3,1.4-0.5,2.2-0.5l0-2.7c-1.2,0-2.1,0.1-3.2,0.6c-2.8,1.2-4.5,3.1-5.3,6.1
						c-0.3,1.2-0.4,2.4-0.4,3.5l-2.2,1l1,2.3l1.7-0.7c0.1,0.3,0.2,0.7,0.4,1c0.1,0.3,0.2,0.5,0.4,0.8l-1.7,0.7l1,2.3l2.1-0.9
						c1,1.1,2.2,1.9,3.6,2.5c2.5,1,4.7,0.9,7.2-0.2c1.2-0.5,2.2-1.2,3.1-2.2L574.3,134.1z"/>
					<g>
						<g>
							<path class="st5" d="M558.1,71.3c-2.5,1-5.4,1.1-8.5,0.2l-2.2,5.2l-4.8-2l2.2-5.1c-2-1.1-3.8-2.3-5.4-3.7
								c-1.5-1.4-2.7-3-3.6-4.7l4-3.6c1.8,3.3,4.3,5.7,7.4,7.3l4.2-9.8c-1.9-1.4-3.4-2.8-4.6-4c-1.2-1.3-2-2.7-2.4-4.4
								c-0.4-1.7-0.2-3.6,0.6-5.6c0.7-1.7,1.8-3.1,3.2-4.1c1.4-1,3.1-1.7,5-2c1.9-0.3,3.9-0.1,6,0.5l2.2-5.2l4.8,2l-2.2,5.2
								c1.7,1,3.3,2.2,4.6,3.5c1.3,1.3,2.3,2.7,3,4.2l-4,3.6c-1.5-2.9-3.5-5-6-6.6l-4.3,10.2c1.9,1.4,3.4,2.7,4.5,3.9
								c1.1,1.2,1.9,2.6,2.3,4.2c0.4,1.6,0.2,3.4-0.6,5.4C562.4,68.5,560.6,70.3,558.1,71.3z M551.1,46.4c0.5,1,1.3,2,2.5,3.1
								l3.9-9.1c-1.5-0.3-2.8-0.2-3.9,0.3c-1.1,0.5-1.9,1.4-2.5,2.6C550.6,44.4,550.6,45.4,551.1,46.4z M555,66.1
								c1-0.5,1.8-1.3,2.3-2.6c0.4-1,0.4-1.9,0-2.8c-0.4-0.9-1.2-1.8-2.4-2.8l-3.6,8.4C552.8,66.7,554,66.6,555,66.1z"/>
						</g>
					</g>
					<g>
						<g>
							<path class="st5" d="M636.4,104.8c-1.6,0.6-3.4,0.7-5.4,0.2l-1.4,3.3l-3-1.3l1.4-3.2c-1.3-0.7-2.4-1.4-3.4-2.3
								c-1-0.9-1.7-1.9-2.3-3l2.5-2.2c1.2,2.1,2.7,3.6,4.6,4.6l2.6-6.2c-1.2-0.9-2.1-1.7-2.9-2.5c-0.7-0.8-1.2-1.7-1.5-2.8
								c-0.3-1.1-0.1-2.2,0.4-3.5c0.5-1.1,1.1-1.9,2-2.6c0.9-0.7,2-1.1,3.2-1.2c1.2-0.2,2.5-0.1,3.8,0.3l1.4-3.3l3,1.3l-1.4,3.3
								c1.1,0.6,2.1,1.4,2.9,2.2c0.8,0.8,1.5,1.7,1.9,2.7l-2.5,2.2c-0.9-1.8-2.2-3.2-3.8-4.1l-2.7,6.5c1.2,0.9,2.1,1.7,2.8,2.5
								c0.7,0.8,1.2,1.6,1.5,2.7c0.3,1,0.1,2.2-0.4,3.4C639.2,103.1,638,104.2,636.4,104.8z M632,89.1c0.3,0.6,0.8,1.3,1.6,1.9
								l2.4-5.7c-0.9-0.2-1.7-0.1-2.4,0.2c-0.7,0.3-1.2,0.9-1.5,1.6C631.8,87.9,631.8,88.5,632,89.1z M634.5,101.6
								c0.6-0.3,1.1-0.8,1.5-1.6c0.3-0.6,0.3-1.2,0-1.8c-0.3-0.6-0.8-1.1-1.5-1.8l-2.3,5.3C633.1,101.9,633.9,101.9,634.5,101.6z"/>
						</g>
					</g>
					<path class="st3" d="M590.4,93.9l-0.6,4.7l-17.2-2.3l0.4-3.1c2.1-0.6,4.6-2.4,5-5c0.1-0.5,0.1-1,0.1-1.5l-3.7-0.5l0.5-3.9
						l3,0.4c-0.1-1,0-2.1,0.1-3.1c0.6-4.8,4.5-7.4,9.6-6.7c2.1,0.3,3.6,0.9,4.3,1.5l-1.5,4.2c-0.7-0.5-1.7-0.9-3.1-1.1
						c-2.7-0.4-3.7,1.3-4,3.1c-0.1,1-0.1,1.9,0,2.9l5.2,0.7l-0.5,3.9l-4.7-0.6c-0.1,0.9-0.3,1.8-0.7,2.6c-0.5,0.9-1.2,1.8-2.2,2.4
						l0,0.1L590.4,93.9z"/>
					<path class="st3" d="M624.6,158.1l-0.4,3.2l-11.6-1.6l0.3-2.1c1.4-0.4,3.1-1.6,3.4-3.4c0-0.4,0.1-0.7,0.1-1l-2.5-0.3l0.4-2.6
						l2,0.3c0-0.7,0-1.4,0.1-2.1c0.4-3.2,3.1-5,6.5-4.6c1.4,0.2,2.4,0.6,2.9,1l-1,2.8c-0.4-0.3-1.1-0.6-2.1-0.7
						c-1.8-0.2-2.5,0.9-2.7,2.1c-0.1,0.7-0.1,1.3,0,1.9l3.5,0.5l-0.4,2.6l-3.2-0.4c-0.1,0.6-0.2,1.2-0.5,1.8
						c-0.3,0.6-0.8,1.2-1.5,1.6l0,0.1L624.6,158.1z"/>
					<g>
						<path class="st5" d="M599.7,140.1c-0.8-0.1-1.3-0.8-1.3-1.5l0-0.2c0.1-3.2,1.6-6.5,5-9.6c3.1-2.8,4.8-4.8,5.2-7.5
							c0.4-3-1.2-5.2-4.9-5.8c-1.4-0.2-2.9-0.1-4.2,0.3c-1.1,0.3-2.2-0.4-2.4-1.5v0c-0.2-1,0.4-2.1,1.4-2.4c2-0.6,4.6-0.8,6.9-0.5
							c6.7,0.9,9.2,5.5,8.6,9.9c-0.5,4-3.1,6.6-6.4,9.5c-3,2.7-4.3,5.2-4.5,8.2l0,0c-0.1,0.8-0.8,1.4-1.7,1.3L599.7,140.1z
							 M596.1,147.3c0.5-1.8,2-2.8,3.9-2.6c2.1,0.3,3.3,2,3,4.2c-0.2,1.7-1.3,2.9-2.9,3.2C597.4,152.4,595.4,149.8,596.1,147.3z"/>
					</g>
					<g>
						<path class="st5" d="M506.1,74.7c-0.3,0-0.5-0.3-0.5-0.6l0-0.1c0-1.3,0.6-2.6,2-3.8c1.2-1.1,1.9-1.9,2-3
							c0.2-1.2-0.5-2.1-1.9-2.3c-0.5-0.1-1.1,0-1.7,0.1c-0.4,0.1-0.9-0.1-1-0.6l0,0c-0.1-0.4,0.1-0.8,0.5-0.9
							c0.8-0.2,1.8-0.3,2.7-0.2c2.7,0.4,3.7,2.2,3.4,3.9c-0.2,1.6-1.2,2.6-2.5,3.8c-1.2,1.1-1.7,2-1.8,3.2l0,0
							c0,0.3-0.3,0.6-0.7,0.5L506.1,74.7z M504.7,77.5c0.2-0.7,0.8-1.1,1.5-1c0.8,0.1,1.3,0.8,1.2,1.6c-0.1,0.7-0.5,1.2-1.2,1.3
							C505.2,79.6,504.4,78.5,504.7,77.5z"/>
					</g>
				</g>
			</g>
		</g>
	</g>
	<g>
		<g>
			<path class="st7" d="M434.9,292.7c4.6-2.5,9.2-5.4,13-9.1c8.6,12.5,19.4,28.4,22.1,34.1c-5.5,4.1-17.9,12.4-23.4,20.8l-3.1-4.4
				l-11.7-16.9c-3.7-5.7-7.4-11.4-11.1-17.1C425.4,297.5,430.2,295.2,434.9,292.7z"/>
		</g>
		<g>
			<g>
				<path class="st8" d="M381.1,274.5c1,2.1,3.3,6.3,7.9,9.4c0.9,0.6,11.8,7.3,19.7,1.4c6.6-5,5.5-14.6,5.5-15.1
					c-2.2-13.4-2.9-23.3-2.8-24.7c0.1-1.9,0.4-3.8,0.4-3.8c0,0,0,0,0,0c0.2-1.9,0.5-3.8,0.8-5.6c-6-1.8-21.8-0.9-27.8,10.7
					c-2.3,4.4-3.2,10.2-1.7,18c0.1,1.1,0,2.5-0.2,4C382.5,271.2,381.8,273.1,381.1,274.5z"/>
				<path class="st9" d="M383.1,264.8c0,0.5,0,1,0,1.6c0,0.9-0.1,1.7-0.2,2.4c1.5-0.2,3.4-0.5,5.6-1.2c2.4-0.7,4.2-1.5,4.6-1.7
					c3.1-1.4,7.6-3.4,10.3-8c1.3-2.2,1.8-4.2,2.3-6.6c0.7-3.1,0.8-5.7,0.8-7.6c-3.5-1.1-13.7-3.8-20.4,1.6c-0.5,0.4-1,0.8-1.4,1.3
					C382.5,251.2,381.6,257,383.1,264.8z"/>
				<path class="st8" d="M367,229.6c0,0.1,0,0.2,0,0.3c0.1,0.6,0.3,1.3,0.6,1.9c0,0,0.2,0.4,1,2.2c0.4,0.9,0.8,5.7,1,12.4
					c0,1.1,0.2,2.8,0.7,4.9c0.5,2.6,1.5,6.8,4.7,11c0.7,1,1.9,2.3,3.5,3.7c0.6,0.5,1.5,0.8,2.3,0.7c0.8-0.1,1.6-0.2,2.6-0.4
					c0.2,0,0.5-0.1,0.9-0.2c2.5-0.5,5.3-1.3,8.4-2.5c1.9-0.7,4.1-1.5,5.7-2.3c3.5-1.8,6-5.1,6.7-9c0.6-2.4,0.7-4.7,1.3-7.1
					c0.2-1.5,0.4-2.9,0.6-4.4c0.1-0.1,0.1-0.2,0.1-0.2c0.3-0.2,0.4-0.1,0.9-0.2c4.5-0.8,7.3-6.6,8-8.2c3.2-6.7,4.2-20.5-4.8-28.2
					c-5.8-5-12.8-4.9-16.6-5c-5.5-0.1-28.7,3.6-27.5,23.3c0.1,1.6,0.1,3.2-0.1,4.7c0,0.2-0.1,0.4-0.1,0.6c0,0.1,0,0.2,0,0.3
					C366.9,228.6,366.9,229.1,367,229.6z"/>
				<path d="M406.5,231c-1.5,1.2-0.7,2.9-0.8,3.4c-0.4,0.4-1.9,0.9-2.4,1.3c-0.1-1.4-0.1-2.9-0.2-4.3c-0.2-1.8-0.8-2.9-1.3-3.6
					c-0.7-0.9-1.2-1.1-2.6-2.5c0,0-1.1-1.1-2.1-2.4c-2.7-3.5-3.9-7.3-4.2-8.6c-0.2-0.8-0.4-1.5-0.5-2c-1,0-2.4,0-4.2,0.2
					c-2.6,0.3-4.5,0.7-5.1,0.8c-7.1,1.5-11.5-1.5-14.4,0.9c-1.1,0.9-2.3,2.9-1.9,7.7c-2.8-7-1.8-11.6-1.2-13.6
					c4-12.6,24-18.5,36.5-11.9c3.5,1.9,5.8,4.4,7.2,6.1c3.5,0.8,5.5,2.4,6.5,3.4c5,4.9,4.7,13.4,4.4,21c0,1.2-0.2,2.3-0.2,2.3
					c-0.3,2.3-0.9,3.9-1,4.4c-1.3,4-3.2,15.6-4.7,19.5c-0.2,0.5-0.5,1.4-1.4,1.8c-0.6,0.3-1.2,0.3-1.6,0.3c-0.7-6-0.4-10.2,0-13
					c0,0,0-0.1,0-0.1c0.1-0.8,0.5-3.8,0.7-6.3c0.2-3.3,0.3-5-0.2-5.6C410.7,229.4,408.1,229.7,406.5,231z"/>
				<path id="XMLID_00000109015806951619154160000000948044555734715830_" class="st10" d="M422.2,219.5
					c-30.9-15.8-48-13.6-53.8-12.9c-1,0.2-2.5,2.2-2.3,5.5c-1.3,1.9-1.8,4.7-0.4,6c0,0,0,0.1,0,0.2c-0.2,0.8,0.5,1.5,1.3,1.6
					c6.4,0.5,21.8-4.9,50.9,11.9c0.7,0.5,1.6,0.4,2.1-0.2c0.5-0.7,1-1.7,1-3.3c1.7-1,1.8-4.3,1.3-5.2
					C422.7,221.2,422.8,219.7,422.2,219.5z"/>
				<path class="st8" d="M405,231.6c0.3-5.3,2.7-6.4,2.7-6.4c1.8-0.8,4.3,0,5.6,1.6c1,1.3,0.9,2.8,0.9,3.8c-0.1,2-0.9,3.4-1.9,5.3
					c-0.8,1.4-1.2,2.1-2,2.9c-1.6,1.4-3.4,1.6-4.4,1.7c-0.1-0.1-0.4-0.2-0.6-0.4c-1-1-0.5-2.6-0.4-7.4
					C404.9,232.7,405,232.2,405,231.6z"/>
			</g>
			<path class="st11" d="M377.9,257.1c-0.2-0.4,2.3-2.2,5.3-2.9c1.6-0.3,3.4-0.4,3.5-0.1c0.1,0.3-1.7,0.9-3.4,1.5
				C381.3,256.4,378.1,257.5,377.9,257.1z"/>
			<g>
				<path class="st3" d="M377.1,236.1c-1.6-2.7-4.2-3.3-5.4-2.5c-0.8,0.6-1,2-0.8,3.4C372.3,239.8,375.1,239.2,377.1,236.1z"/>
				
					<ellipse transform="matrix(0.9747 -0.2236 0.2236 0.9747 -43.2889 89.4396)" class="st12" cx="373.3" cy="235.9" rx="1.7" ry="2.7"/>
				<ellipse transform="matrix(0.9747 -0.2236 0.2236 0.9747 -43.316 89.3582)" cx="372.9" cy="235.9" rx="0.9" ry="1.4"/>
				
					<ellipse transform="matrix(0.9747 -0.2236 0.2236 0.9747 -43.1096 89.4562)" class="st3" cx="373.4" cy="235.1" rx="0.3" ry="0.4"/>
				<path class="st13" d="M370.9,236.9c-0.2-1.2,0.2-2.4,1-3c1.3-0.9,3,0.2,3.5,0.5c0.9,0.5,1.4,1.2,1.6,1.7
					c-0.2-0.5-0.7-1.4-1.7-2.1c-0.2-0.2-2.5-1.7-3.9-0.5C370.6,234.1,370.3,235.6,370.9,236.9z"/>
			</g>
			<path class="st11" d="M376.8,248.1c-0.1,0.2,0.9,1.3,2.2,1.5c2.2,0.4,4.2-1.8,4.1-2c-0.1-0.2-1.5,1.1-3.7,1
				C377.9,248.6,376.9,247.9,376.8,248.1z"/>
			<g>
				<path d="M394.6,229.2c-0.5-0.9-1.2-2-2.3-3.1c0,0,0,0,0,0c-0.6-0.6-1.4-1-2.3-1.1c-2.1-0.3-4.2-0.6-6.2-0.8
					c-0.2,0.1-0.5,0.4-0.7,0.9c-0.2,0.4-0.2,0.7-0.3,0.9c2.4,0.3,4.9,0.7,7.3,1c0.5,0.1,1.1,0.2,1.5,0.5
					C392.6,228.1,393.6,228.7,394.6,229.2z"/>
			</g>
			<g>
				<path d="M367.1,230.4c0.6-0.2,1.3-0.4,2.1-0.6c0.2,0,0.3-0.1,0.5-0.1l7-0.3c0-0.2,0-0.5-0.2-0.9c-0.2-0.5-0.4-0.8-0.6-0.9
					c-2,0.1-4,0.2-6,0.3c-0.5,0-1,0.2-1,0.2c-0.9,0.2-1.5,0.4-2,0.6c0,0.3-0.1,0.6,0,1.1C367,230,367.1,230.2,367.1,230.4z"/>
			</g>
			<g>
				<path class="st3" d="M383.9,235.9c0.3,0.2,0.7,0.5,1.3,0.7c1.3,0.5,2.4,0.3,3,0.2c2.2-0.4,3.7-1.8,4.3-2.3
					c-0.4-0.6-1.7-2.3-3.9-2.7c-0.6-0.1-1.8-0.4-2.9,0.3C383.9,233.2,383.9,235.8,383.9,235.9z"/>
				<g>
					<path class="st12" d="M385.4,234.7c0.3,1.3,1.4,2.2,2.4,1.9c1.1-0.2,1.8-1.4,1.5-2.7c-0.3-1.3-1.4-2.2-2.4-1.9
						S385.2,233.4,385.4,234.7z"/>
					<path d="M386,234.6c0.1,0.6,0.7,1.1,1.2,1c0.5-0.1,0.9-0.7,0.7-1.4c-0.1-0.6-0.7-1.1-1.2-1C386.2,233.4,385.9,234,386,234.6z"
						/>
					<path class="st3" d="M385.9,233.9c0,0.2,0.2,0.3,0.4,0.3s0.3-0.2,0.2-0.4c0-0.2-0.2-0.3-0.4-0.3S385.8,233.7,385.9,233.9z"/>
					<path d="M383.9,235.9c0.1-0.3,0.4-2.4,2.1-3.3c1.9-1.1,4.7-0.4,6.5,1.9C392.2,233,384.9,226.7,383.9,235.9z"/>
				</g>
			</g>
			<g>
				<path d="M407.2,243c0.7-0.1,0.9-1.4,0.8-2.7l-0.5,0.1c0.1,1.4-0.2,2.1-0.3,2.1c-0.2,0-0.6-0.7-0.7-2c-0.1-1.4,0.2-2.1,0.4-2.1
					c0.1-0.1,0.1-0.3,0-0.5c-0.7,0.1-0.9,1.4-0.8,2.6C406.1,241.8,406.5,243.1,407.2,243z"/>
			</g>
		</g>
		<g>
			<g>
				<g>
					<path class="st8" d="M442.1,293.9c-0.1-2.4,0.4-5.8-0.5-8.1c-8.5-1.6-18.9-9.3-25.4-12.8c-0.3-0.2-0.7-0.6-1-1
						c-0.6-1.1-1.1-2.5-1.4-3.9c-0.6,1-1.3,2-2,3c-1.9,2.7-4.2,5.2-7.2,6.7c-2.8,1.4-6.2,1.8-9.3,1.4c-3.2-0.4-6.1-1.6-8.5-3.9
						c-1.9-1.8-3.3-4.2-4.2-6.6c-0.2,0.6-0.3,1.2-0.6,1.8c0,0-17.7,13.5-28,15.4c-1.7,0.6-1.6,4.4-1.7,5.7
						c-0.3,4.2-0.9,10.3-0.6,14.4c0.4,6.5,1,12.9,1.6,19.4c0.6,6.1,0.4,12.1,2.5,18c1.4,4,3.9,7.5,4.9,11.7c1.1,4.4,1.2,8.8,1,13.2
						h70.5c0-2.3,0.1-4.6,0.4-6.9c0.4-3.2,1.1-6.4,2.3-9.5c1.3-3.4,3.5-6.4,4.5-9.9c1.1-3.5,1.5-7.1,1.8-10.7
						c0.5-6.1,0.6-12.3,0.7-18.4C442.3,307.2,442.3,299.6,442.1,293.9z"/>
				</g>
				<g>
					<path class="st7" d="M324.2,351.3c7.4-25.1,12.2-43.1,13.5-52c0.3-2.2,1.2-8.4,5.8-12c1.5-1.2,3.4-2,5.8-2.5
						c4.3-0.7,7.3-1,11.4-2.2l12,10.3c-6.1,22.4-12.1,44.8-18.2,67.2c-4.7-1.5-9.5-2.9-14.4-4.3
						C334.8,354.2,329.4,352.7,324.2,351.3z"/>
				</g>
				<path class="st8" d="M370.2,632.7c-0.9-5.9-2.3-14.2-4.3-24.5c-1.1-5.5-2.5-12.5-4.3-20.6c0,0,12.5-12.3,23.1-6.5
					c8,4.4,5.4,20.2,2.4,52.3c-0.3,3.5-0.6,6.5-0.9,8.7c-4.9,0-9.8,0-14.6,0C371.3,639.8,370.8,636.6,370.2,632.7z"/>
				<path class="st8" d="M429.9,632.7c0.9-5.9,2.3-14.2,4.3-24.5c1.1-5.5,2.5-12.5,4.3-20.6c0,0-12.5-12.4-23.1-6.5
					c-7.6,4.2-5.4,20.2-2.4,52.3c0.3,3.5,0.6,6.5,0.9,8.7c4.9,0,9.8,0,14.6,0C428.8,639.8,429.3,636.6,429.9,632.7z"/>
				<path class="st3" d="M348.3,437.1c-2.3,30.3-3.2,56.4-3.5,76.9c-0.7,51.3,2.2,67,13.7,76.3c9.6,7.8,22,8.6,31.4,7.9
					c2.4-12.4,4.6-25.9,6.3-40.3c1.7-15,2.7-29.1,3.1-42.2c-1.5-25.1-3-50.1-4.5-75.2C379.3,439.4,363.8,438.3,348.3,437.1z"/>
				<path class="st3" d="M446.4,435.2c6.4,19.8,20.5,137.1-10.9,162.8c-4.1,6.9-20.1,7.5-25.1,1.8c-2.4-12.8-4.7-26-6.8-39.6
					c-2.7-17.8-4.9-35-6.6-51.6c-1.1-6.9-1.9-14.4-2.3-22.5c-0.8-17.3,0.5-32.7,2.6-45.5C402.8,434.7,440.9,431.8,446.4,435.2z"/>
				<g>
					<g>
						<path class="st14" d="M388.4,524.9c1.2,15.4-8.8,31.4-23.3,36.9c5.3-5.3,10.1-10.7,14-16.9
							C383.2,538.6,385.9,531.9,388.4,524.9L388.4,524.9z"/>
					</g>
					<g>
						<path class="st14" d="M389.8,538c4.8,13.7-0.6,30.6-12.4,39c3.4-6.2,6.4-12.2,8.5-18.8C388.1,551.7,389.1,545,389.8,538
							L389.8,538z"/>
					</g>
					<g>
						<path class="st14" d="M407.3,528.2c3.8,5.8,7.2,11.6,11.2,17.2c3.9,5.7,8.2,10.8,12.4,16.4C418.5,555.3,409.2,542,407.3,528.2
							L407.3,528.2z"/>
					</g>
					<g>
						<path class="st14" d="M404.8,541.4c2.4,5.9,4.5,11.5,7.4,17.1c2.8,5.6,6.1,10.6,9.6,15.9C410.5,568,403.4,554.3,404.8,541.4
							L404.8,541.4z"/>
					</g>
					<g>
						<path class="st14" d="M387.2,510.2c0.1,11.3-8,22.4-18.8,25.9c3.5-4.2,7-8,10.1-12.4C381.3,520,384.8,514.2,387.2,510.2
							L387.2,510.2z"/>
					</g>
					<g>
						<path class="st14" d="M409,513.1c4.2,5,8.7,11.4,12.7,16.5c1.4,1.8,2.8,3.7,4.2,5.8c-2.4-0.8-4.5-2-6.5-3.5
							C413.8,527.3,409.4,520.5,409,513.1L409,513.1z"/>
					</g>
					<path class="st15" d="M411.8,456.2c1.2,3.6-0.1,8.6-0.1,12c-0.2,7.7,0,15.4,0.1,23.1c0.3,15.6,1.1,31.2,0.5,46.8
						c-0.1,2.2,0.1,4.9-0.7,7c-2.8,7.4-19.2,10-25.4-0.9c-2.4-4.2-2-10.4-2-15c0-8.1,0.6-16.2,1.3-24.3c1.3-14.9,2.7-29.8,4.4-44.7
						c0.8-7.1,9.8-9.4,15.7-8.5c1.8,0.3,3.7,0.9,5,2.3C411.1,454.6,411.5,455.4,411.8,456.2z"/>
				</g>
				<path class="st7" d="M346.2,285.7c23.7-7.5,30.9-11.2,31.6-13.1c0.1-0.3,0.7-1.9,2.1-2.7c0.8-0.5,2.8-0.5,2.8-0.5
					c-4.4,10-4.7,19.9,7.2,24.7c1.4,0.5,8.2,11.9,8.6,14.8c0,0,5-14.2,6.5-14.7c13.1-4.7,12.1-16.2,9.1-25.1
					c0.5,0.1,1.4,0.3,2.3,0.9c0.3,0.2,1.1,0.8,1.6,1.7c0.3,0.4,0.5,0.9,0.6,1.2c10.9,5.2,19.1,8.9,22.2,10.2
					c2.9,1.2,5.8,2.3,8.6,3.4c0,0.6,0,1.5,0,2.6c0.1,13.8-2.5,21.9-4.8,38.3c-1.5,10.9-3.1,23.5-4.5,49.1c-0.1,2.4-0.4,7.1,0.1,13.2
					c0.6,8.1,2.3,14,2.6,16.2c1.4,10.7,7,38,7.2,41.9c-13,4.5-33.2,9.8-58.1,9.2c-18.6-0.4-34.1-3.9-45.4-7.4
					c2.8-21,4.7-35.3,5.5-40.4c0.2-1.2,0.7-4.8,1.2-9.7c0.1-1.5,0.3-3.1,0.4-4.9c0.4-6.6,0.2-10.2,0.2-20.2c-0.1-15-0.2-14.2,0-20.1
					c0.6-12-3.2-27-3.2-27C348.6,319.6,346.6,307,346.2,285.7z"/>
				<g>
					<path d="M397.9,281.2c-1.2,0-8.7-0.2-12.9-5.8c-1-1.3-1.5-2.6-1.8-3.4c-0.4-1.1-0.6-2-0.7-2.8c0,0,0-0.1,0-0.1
						c0-0.1-0.3-0.9,0.1-1.6c0.1-0.1,0.2-0.3,0.4-0.5c0.1,0.4,0.1,1,0.3,1.7c0,0,0.7,3.1,2.4,5.7c2.4,3.6,11.9,8.2,20,4
						c5.7-3,7.6-8.8,8.1-10.2c0.1,0.1,0.3,0.5,0.5,1c0.1,0.3,0.1,0.9,0.1,1c-0.7,1.5-2.3,6.4-8.1,9.3
						C405.3,279.8,402.2,281.3,397.9,281.2z"/>
				</g>
				<g>
					<path d="M385.3,650.2c0.8,0.3,1.8,0.9,2.6,1.9c2,2.7,0.9,6.6-0.9,12.2c-1.4,4.5-3.2,9.7-5.3,15.4c-1,2-2.6,4.4-5.3,5.6
						c-7.6,3.5-19-3.9-19.7-10.9c-0.2-2.2,0.9-4.2,3-8c2.9-5.2,6.2-8.9,8.5-11.2C374,653.6,379.7,651.9,385.3,650.2z"/>
					<path class="st8" d="M369.2,650.2c-2.9,7.9-4.9,12.9-8.2,17.4c-0.6,0.8-1.8,2.2-2,4.4c0,0.4-0.2,2.9,1.4,4.9
						c0.5,0.6,0.8,0.7,3.3,2.3c3.3,2.1,3,2,3.8,2.5c1.6,0.9,4,2.1,6.5,1.7c3.8-0.7,5.7-4.8,5.9-5.4c0.6-1.8,1.1-3.5,1.7-5.3
						c1.2-3.7,1.8-5.8,3.1-9.9c1.1-3.7,1.7-5.5,1.7-6.2c0.3-3-0.4-4.4-0.5-8.6c-0.1-2.4,0.1-4.4,0.2-5.8c-2.2-0.6-5.2-1.1-8.8-0.9
						c-2.2,0.1-5.6-0.8-5.8,0.9C371.2,645.8,369.9,648.3,369.2,650.2z"/>
					<path d="M358.9,669.2c2.9,0.3,6.4,1,10.2,2.4c5.6,2,10,4.7,12.9,6.9c1-3.1,2-6.1,3-9.2c-1.5-1.7-4.3-4.6-8.9-6.7
						c-5-2.3-9.6-2.3-11.9-2.2C362.5,663.4,360.7,666.3,358.9,669.2z"/>
				</g>
				<g>
					<path d="M414.2,649.5c-0.8,0.3-1.9,0.8-2.7,1.8c-2.2,2.5-1.3,6.5,0.2,12.3c1.2,4.6,2.6,9.8,4.4,15.7c0.9,2.1,2.4,4.5,5,5.9
						c7.3,3.9,19.2-2.8,20.3-9.8c0.3-2.2-0.6-4.2-2.5-8.1c-2.6-5.4-5.7-9.2-7.8-11.7C425.4,653.6,419.8,651.5,414.2,649.5z"/>
					<path class="st8" d="M430.3,650.4c1.4,5,3.5,12.3,7.2,17.8c0.5,0.8,1.6,2.3,1.7,4.5c0,0.4,0.1,2.9-1.6,4.8
						c-0.5,0.6-0.8,0.7-3.4,2.1c-3.4,1.9-3.1,1.9-3.9,2.2c-1.7,0.8-4.1,1.9-6.6,1.3c-3.7-0.9-5.4-5.1-5.6-5.7
						c-0.5-1.8-0.9-3.6-1.4-5.4c-1-3.7-1.5-5.9-2.5-10.1c-0.9-3.7-1.4-5.6-1.4-6.3c-0.1-3.1,0.6-4.4,1-8.6c0.2-2.4,0.2-4.4,0.1-5.8
						c1.9-0.8,4.6-1.8,8.1-2.1c2.8-0.3,7-1.5,6.9,0.3C428.6,644.3,429.7,648,430.3,650.4z"/>
					<path d="M439.6,670c-2.9,0.2-6.4,0.7-10.3,1.8c-5.8,1.7-10.2,4.1-13.3,6.1c-0.8-3.1-1.7-6.2-2.5-9.3c1.5-1.6,4.6-4.4,9.2-6.1
						c5.2-2,9.7-1.8,12-1.5C436.3,664,437.9,667,439.6,670z"/>
				</g>
			</g>
			<path class="st10" d="M439.4,284.4c-0.6-5-5-5.4-6.4-5c-1.4-2.4-3.6-3.4-6.2-2.5c-0.5-1.7-4.5-2.9-5.5-2.1
				c0.3,8.1-1,85.8-10.9,114.4c-0.5,2.6,18.6,10.8,25.6,5.9C436.8,391.4,444.6,306.7,439.4,284.4z"/>
			<path class="st7" d="M349.1,429.6c-1.5,12.7-3.3,25.8-5.4,39.1c-0.9,5.7-1.8,11.3-2.8,16.8c12.2,4.6,30.2,9.8,52.5,10.8
				c27.1,1.3,49-4.2,62.7-8.8c-1.1-8.8-2.4-17.9-3.8-27.1c-1.5-9.5-3-18.8-4.7-27.8c-8.5,4.5-32,15.7-61.9,10.9
				C369.1,440.9,356.6,434.4,349.1,429.6z"/>
			<path class="st16" d="M390.2,294.4c-0.9,0.4-2.1,1.1-3.2,2.4c-2.8,3.1-2.3,6.4-3.5,6.6c-1.6,0.3-4-5.8-5.1-9.2
				c-0.9-2.7-2.2-7-2-12.8c0.1-3.7,0.8-6.7,1.4-8.8c0.1-0.4,0.5-1.6,1.8-2.4c1.4-0.9,2.8-0.8,3.2-0.7c-0.7,1-3.9,6.1-2.6,12.8
				C381.9,290.6,389.5,294.1,390.2,294.4z"/>
			<path class="st16" d="M404.8,294.3c0.8,0.5,2,1.3,3.1,2.6c2.6,3.2,1.9,6.5,3,6.8c1.6,0.4,4.4-5.5,5.7-8.8c1-2.6,2.7-6.8,2.9-12.6
				c0.1-2.7-0.1-5.1-0.5-7c-0.2-0.9-0.3-1.6-0.4-1.9c-0.2-0.8-0.4-1.6-0.6-2c-0.7-1.4-2.6-2-3.9-2.2c0.8,1.9,1.4,4.3,1.4,7.1
				C415.5,286.7,406.1,293.4,404.8,294.3z"/>
			<g>
				<path class="st16" d="M404.8,294.3c-1.5,3.5-2.9,7-4.2,10.5c-1.3,3.6-2.3,7-2.6,10.8c-0.7,7.5-0.8,15-0.7,22.5
					c0,3.8,0.1,7.5,0.2,11.3L397,349c2.7-0.1,5.5-0.2,8.2-0.2c-2.9,0.4-5.7,0.7-8.6,1.1c-0.8-7.7-1.2-15.4-1.1-23.2
					c0.2-5.7,0.4-11.5,1.9-17C399.4,304.4,401.8,299.2,404.8,294.3L404.8,294.3z"/>
			</g>
			<circle class="st16" cx="401.4" cy="314" r="1.7"/>
			<circle class="st16" cx="400.8" cy="330.3" r="1.7"/>
			<circle class="st16" cx="400.8" cy="344.5" r="1.7"/>
		</g>
		<path class="st16" d="M441.6,331.7c8.9-6.7,17.9-13.5,26.8-20.2c1.5,1.9,3,4.1,4.5,6.4c1.3,2.1,2.5,4.1,3.6,6
			c-8.7,6.6-17.3,13.1-26,19.7c-1.3-1.5-2.6-3.1-3.9-4.8C444.8,336.4,443.2,334,441.6,331.7z"/>
		<g>
			<path class="st8" d="M424.6,262.3c3.9,10.1,6.3,18.5,7.8,24.2c2,7.7,5.3,28.4,12.1,41.8c1.7,3.3,3.4,6.2,4.9,8.6
				c2.1,3.3,6.6,7.5,10.4,8.3c0,0,0.1,0,0.1,0c1.7,0.4,5.6,1.2,7.7,0.7c2.6-0.5,4.1-3.1,6.3-7c1.2-2.1,2.8-4.9,3-8.6
				c0.2-3.4-0.9-6.2-2-8.6c-3.2-6.5-18.4-30.7-39.7-63C431.7,260,428.2,261.2,424.6,262.3z"/>
			<g>
				<path class="st8" d="M410.4,235.1c0,1.2,0.6,3.4,2.3,7.3c1.8,4,0.4,4.3,3.7,9.4c1.4,2.2,1.9,2.5,3,3.8c0.5,0.6,0.9,1.1,1.1,1.4
					c0.4,0.5,1,1.3,1.8,2.3c0.5,0.6,1.1,1.4,1.8,2.2c0.2,0.5,0.5,1,0.7,1.5c0.3,0.7,0.5,1.3,0.8,1.9c1.1-0.7,2.3-1.3,3.5-2
					c2.4-1.2,4.7-2.1,6.8-2.8c-0.5-1.1-1.1-2.2-1.6-3.3c-0.1-1-0.2-2.3-0.4-3.9c-0.9-6.1-2.4-10.9-3.7-13.6c-2.2-4.7-3-7.2-5.4-9.9
					c-3.9-4.4-8.9-6.6-12.2-7.6c-0.2,0.3-0.8,1.2-0.6,2.5c0.4,2,2.5,2.9,2.6,2.9c4.8,3,7.5,7,8.1,9.8c0.5,2.6,0,5.1,0,5.1
					c-0.1,0.7-0.4,1.4-0.5,1.8c0,0-0.1,0-0.2,0c-0.7-0.1-2.5-0.5-4-2.1c-0.9-1-1.3-2-1.4-2.5c-0.2-0.7-0.6-2-1.9-3.3
					c-0.9-0.9-2.7-2.2-3.6-2c-0.1,0-0.2,0-0.3,0.1C410.6,234.2,410.5,234.5,410.4,235.1z"/>
			</g>
		</g>
		<path class="st16" d="M355.9,346.9c-10.3-3.1-20.5-6.2-30.8-9.2c-0.7,2.3-1.4,4.9-2,7.6c-0.5,2.4-0.9,4.7-1.3,6.9
			c10.4,3.1,20.8,6.1,31.3,9.2c0.7-1.6,1.4-3.6,1.9-5.9C355.8,352.1,356,349.1,355.9,346.9z"/>
		<g>
			<path class="st17" d="M379,290.8c-2.2-1.6-4.4-2.2-5.7-2.5c-0.7,1.5-1.8,3.5-3.4,5.7c0,0-0.7,1-1.4,1.9
				c-6.4,7.9-18.6,18.4-18.6,18.4c-9.4,8-16.8,15-21.1,23.6c-4.7,9.5-2.9,16.8-1.2,21.2c1.7,4.4,4.4,8,8.8,6.4
				c4.4-1.7,12.1-5.4,16.8-10.9c12.2-14.3,13.2-27.5,26-48.7c2-3.4,3.8-6.1,5-7.8C383.8,296.8,382.5,293.4,379,290.8z"/>
			<path class="st17" d="M398.2,273.9c-0.1-0.5-0.1-0.7-0.6-1.7c-0.5-1-1.7-1.7-1.7-1.7s-0.7-2-1.2-2.8c-0.5-0.8-4-1.3-4-1.3
				s1.4-3.4,2.2-4.3c0.8-0.9,5-4.1,6-5.6c1-1.5,0.6-2.9-0.7-3.3c-1.3-0.5-5.4,1.9-9.4,6c-4.1,4.2-9.4,10.5-9.4,10.5s-1.7-5.3-3.1-8
				c-1.4-2.7-5.7-4.3-6.9-3.3c-1.2,1,0.7,3.6,1.2,5.1c0.5,1.5,1.7,5,1.9,6.7c0.2,1.7-1.3,5.5-1.2,7.6c0.1,2.2,2.5,11.6,2.5,11.6
				s-0.3,0.8-0.9,2c0.2,0,0.3,0,0.5,0.1c3.5,2.6,7.2,4.6,10.9,6.9c1.9-2.8,3.8-5.4,4.3-5.9c1-1,6.9-7,7.7-8.3
				c0.8-1.4,3.1-4.3,3.4-6.5C399.9,275.3,398.3,274.4,398.2,273.9z"/>
		</g>
	</g>
</g>
</svg>
