<?xml version="1.0" encoding="utf-8"?>
<!-- Generator: Adobe Illustrator 26.0.1, SVG Export Plug-In . SVG Version: 6.00 Build 0)  -->
<svg version="1.1" id="Layer_1" xmlns="http://www.w3.org/2000/svg" xmlns:xlink="http://www.w3.org/1999/xlink" x="0px" y="0px"
	 viewBox="0 0 404 531.2" style="enable-background:new 0 0 404 531.2;" xml:space="preserve">
<style type="text/css">
	.st0{fill:#FFFFFF;}
	.st1{fill:#BDDEEF;}
	.st2{fill:none;stroke:#FFFFFF;stroke-width:1.515;stroke-miterlimit:10;}
	.st3{fill:#C098EA;}
	.st4{fill:#4C6580;}
	.st5{fill:#DE9F7E;}
	.st6{fill:#D38A6A;}
	.st7{fill:#D34047;}
	.st8{fill:#B7303D;}
	.st9{fill:#D3D3D3;}
	.st10{fill:#FFFFFF;stroke:#D3D3D3;stroke-width:2.4554;stroke-miterlimit:10;}
	.st11{fill:#CE8065;}
	.st12{fill:#6B3628;}
	.st13{fill:#FCB856;}
</style>
<path class="st0" d="M407.6,106.7c-5.3,8.9-13.7,14.7-23.2,14.7c-15.9,0-28.8-16.3-28.8-36.4c0-7,1.6-13.6,4.3-19.2
	C360,65.9,405.2,104.1,407.6,106.7"/>
<path class="st0" d="M-77.6,299.6c4.4-22.4,13.3-53.2,30.2-72.7c4.5-1.5,9.2-2.8,13.9-3.8c16.3-3.6,32.8-4.2,44.8-1.2
	c18.4,4.7,21.3-11.7,37.8-11.6s22.7,7.4,22.7,7.4"/>
<path class="st0" d="M-71.8,298.4c31.1-35.1,66.3-17.5,83.1-4.1c0,0-27,7.8-42.7,21.3c-21.2,16.1-27-5.7-50.3,11.7"/>
<path class="st0" d="M71.8,217.8c-30.3-4.7-15.7,43.6-50.4,36.1c-16.5-2.8-21.3-1.3-30.1,8.6c-29.5,18.7-36.5-17.5-63.2,35.9"/>
<path class="st0" d="M475.4,271.7c0-0.4,0-0.8,0-1.2c-5.7,2.8-11,4.6-15.8,5.3c-3.1,0.5-12.9,1.4-25,6.2
	c-13.9,5.6-24.4,13.6-29.8,17.9c-6.1,4.8-10.9,9.3-14.2,12.6c0,0-2.4-20.6,9.6-40s26-23.3,35.4-34.5c8-9.6,6.5-16.9,12.3-27.6
	c-7.6,4.6-16.4,8.5-26.6,7.5c-21.8-2.1-31.9-18.1-31.9-18.1s15.3-2.7,23.4-11.2s14.8-27,30.5-31.5c0.2-0.1,0.4-0.1,0.6-0.1
	C443.9,156.9,477.3,232,475.4,271.7"/>
<path class="st0" d="M156.1,484.1c-3,2.1-5.7,4.6-8.7,6.7c-2.3,1.6-4.7,3-7.1,4.4c2.1-2,4.1-4.2,5.9-6.5l-0.3-0.2
	c-2.5,1.9-4.4,4.6-6.5,7v0.2c-1,0.6-2,1.1-3.1,1.7c-4.6,2.5-9.5,4.7-14.2,7.1c2.9-2.4,5.3-5.3,8.4-7.6c0.2-0.1,0-0.4-0.2-0.3
	c-3.9,1.8-6.7,5.7-9.7,8.6l-0.1,0.2c-1.8,0.9-3.6,1.9-5.3,3c-0.3,0.2,0,0.6,0.3,0.5c7.6-3.5,15.1-7.1,22.5-11
	c6.3-3.3,14.1-7.3,18.4-13.2C156.6,484.3,156.3,484,156.1,484.1"/>
<path class="st0" d="M135.7,460.1c-3.3,4.8-5.6,10.5-8.4,15.6c-3.3,5.9-7.1,11.4-11.4,16.6l0.2,0.2c4.5-4.4,8-9.8,11.1-15.2
	c3.2-5.4,6.6-11.2,8.8-17C136.1,460.1,135.8,460,135.7,460.1"/>
<path class="st0" d="M134.1,436.5c-4.8,9.1-8.5,18.6-13.9,27.4l0.2,0.2c6.4-7.8,10.2-18.2,14-27.4L134.1,436.5z"/>
<path class="st0" d="M142.2,498.8c-2,0.4-3.9,1.1-5.8,1.8c-2.1,0.7-4.4,1.2-6.5,1.9v0.3c4.1-0.1,8.6-2.3,12.4-3.8L142.2,498.8z"/>
<path class="st0" d="M155.6,488c-1.2,0.5-2.3,1.2-3.4,1.8c-1.2,0.6-2.4,1.2-3.6,1.9c-0.2,0.1-0.1,0.4,0.1,0.3c2.3-0.9,5.5-1.9,7-3.8
	L155.6,488z"/>
<path class="st0" d="M286.8,475c-2.6-1.8-5.4-3.1-8-4.9c-2.9-2.1-5.5-4.6-8-7.2c-0.2-0.3-0.6,0.1-0.4,0.4c4.1,4.9,9.9,10.4,16.2,12
	L286.8,475z"/>
<path class="st0" d="M245.2,424.2c2.1,4.6,4.3,9.1,7,13.5c-0.2-7.1-0.6-14.4-0.1-21.5c0.1-0.6,0.9-0.6,1,0c0.3,4.3,0.3,8.6,0.3,12.9
	c0.5-0.9,0.9-1.8,1.2-2.8c0.5-1.5,0.3-3.1,0.5-4.7h0.3c1.2,2.8-0.3,6.2-2.1,8.5c0,3-0.1,5.9,0,8.8c0.1,7.3,0.4,14.6,0.9,21.9
	c2.7-8,6.2-15.5,8.4-23.7h0.3c-1.1,8.4-5,16.7-8.6,24.2l-0.1,0.1v0.5c0.7,9.4,1.8,18.7,3.7,27.9c5.1-8.7,8.6-17.4,11.7-27
	c0.1-0.2,0.4-0.1,0.3,0.1c-1.6,9.4-5.9,20-11.8,27.5H258c1.3,6.1,2.9,12.1,5,18c0.1,0.3-0.3,0.4-0.4,0.1
	c-5.2-14.1-7.7-28.9-9.1-43.8c-0.7-8.1-1.1-16.3-1.3-24.5c0-0.6,0-1.2-0.1-1.8c-3.1-4.2-6-9.1-7.2-14.2H245.2z"/>
<path class="st0" d="M217.3,484.1c3,2.1,5.7,4.6,8.7,6.7c2.3,1.6,4.7,3,7.1,4.4c-2.1-2-4.1-4.2-5.9-6.5l0.3-0.2
	c2.5,1.9,4.4,4.6,6.5,7v0.2c1,0.6,2,1.1,3.1,1.7c4.6,2.5,9.5,4.7,14.2,7.1c-2.9-2.4-5.3-5.3-8.4-7.6c-0.2-0.1,0-0.4,0.2-0.3
	c3.9,1.8,6.7,5.7,9.7,8.6l0.1,0.2c1.8,0.9,3.6,1.9,5.3,3c0.3,0.2,0,0.6-0.3,0.5c-7.6-3.5-15.1-7.1-22.5-11
	c-6.3-3.3-14.1-7.3-18.4-13.2C216.8,484.3,217.1,484,217.3,484.1"/>
<path class="st0" d="M265.9,506.2c1.1-0.7,2.1-1.4,3.1-2.1l0,0c1.6-3.1,3.8-5.8,5.4-8.9c1.8-3.4,3.3-7.1,4.3-10.9l0.3,0.1
	c-0.6,4-2.2,7.6-3.9,11.2c-1.1,2.3-2.4,5.1-4.2,7.2c3.8-2.6,7.5-5.4,11-8.3c2.5-6.6,5-13.2,7.5-19.8c0.1-0.2,0.5-0.1,0.4,0.1
	c-1.9,6.4-4,13-7.1,19c1.9-1.7,3.8-3.4,5.6-5.2c2-2,3.8-4.1,5.5-6.2l-0.1-0.2c1.1-4.3,2.7-8.7,4.3-12.9l0.3,0.1
	c-1.4,3.9-2,8.4-3.9,12.1c1.2-1.5,2.3-3.1,3.4-4.8c2.5-3.8,3.7-8,6-11.8c0.1-0.2,0.5-0.1,0.5,0.1c-0.4,3.9-2.9,7.9-4.9,11.2
	c-2.7,4.4-6,8.4-9.5,12.1c-5.1,5.4-11,10.4-17.3,14.4c2.3-0.2,4.5-0.3,6.8-0.9c3-0.8,5.8-2.3,8.5-3.8c0.2-0.1,0.4,0.2,0.2,0.3
	c-4.7,3-10.9,6.1-16.6,5c-1.8,1.1-3.6,2.1-5.4,3.1C265.9,506.6,265.7,506.3,265.9,506.2"/>
<path class="st0" d="M237.7,460.1c3.3,4.8,5.6,10.5,8.4,15.6c3.3,5.9,7.1,11.4,11.4,16.6l-0.2,0.2c-4.5-4.4-8-9.8-11.1-15.2
	c-3.2-5.4-6.6-11.2-8.8-17C237.3,460.1,237.6,460,237.7,460.1"/>
<path class="st0" d="M239.3,436.5c4.8,9.1,8.5,18.6,13.9,27.4l-0.2,0.2c-6.4-7.8-10.2-18.2-14-27.4L239.3,436.5z"/>
<path class="st0" d="M231.2,498.8c2,0.4,3.9,1.1,5.8,1.8c2.1,0.7,4.4,1.2,6.5,1.9v0.3c-4.1-0.1-8.6-2.3-12.4-3.8L231.2,498.8z"/>
<path class="st0" d="M217.8,488c1.2,0.5,2.3,1.2,3.4,1.8c1.2,0.6,2.4,1.2,3.6,1.9c0.2,0.1,0.1,0.4-0.1,0.3c-2.3-0.9-5.5-1.9-7-3.8
	L217.8,488z"/>
<path class="st0" d="M290.1,488.5c2.1-1.4,4.3-2.5,6.4-4c2.3-1.7,4.4-3.7,6.4-5.7c0.2-0.2,0.5,0.1,0.3,0.3c-3.3,3.9-7.9,8.3-13,9.6
	L290.1,488.5z"/>
<path class="st1" d="M367.2,201.5c0,9.8-6.3,17.8-14.1,17.8s-14.1-8-14.1-17.8s6.3-17.8,14.1-17.8S367.2,191.6,367.2,201.5"/>
<path class="st1" d="M52.1,156.4c0,1.5-0.9,2.7-2.1,2.7c-1.2,0-2.1-1.2-2.1-2.7s0.9-2.7,2.1-2.7C51.2,153.7,52.1,154.9,52.1,156.4"
	/>
<path class="st1" d="M69.9,161.4c0,1.5-0.9,2.7-2.1,2.7s-2.1-1.2-2.1-2.7s0.9-2.7,2.1-2.7C68.9,158.8,69.9,160,69.9,161.4"/>
<path class="st1" d="M129.2,81.8c0,1.5-0.9,2.7-2.1,2.7c-1.2,0-2.1-1.2-2.1-2.7s0.9-2.7,2.1-2.7C128.3,79.1,129.2,80.3,129.2,81.8"
	/>
<path class="st1" d="M406.1,318.2c0,1.5-0.9,2.7-2.1,2.7s-2.1-1.2-2.1-2.7s0.9-2.7,2.1-2.7S406.1,316.7,406.1,318.2"/>
<path class="st1" d="M413.3,311c0,1.5-0.9,2.7-2.1,2.7s-2.1-1.2-2.1-2.7s0.9-2.7,2.1-2.7S413.3,309.5,413.3,311"/>
<path class="st1" d="M65.6,147.7c0,2.4-1.5,4.3-3.4,4.3s-3.4-1.9-3.4-4.3s1.5-4.3,3.4-4.3S65.6,145.4,65.6,147.7"/>
<ellipse class="st2" cx="54.4" cy="306" rx="4.4" ry="5.6"/>
<ellipse class="st2" cx="303.9" cy="68.7" rx="4.4" ry="5.6"/>
<ellipse class="st2" cx="87.3" cy="50.9" rx="14.1" ry="17.7"/>
<ellipse class="st2" cx="-28.1" cy="367.5" rx="28.8" ry="36.4"/>
<path class="st3" d="M198.2,360.2c0.5,0,1,0,1.4,0l0,0C199.2,360.2,198.7,360.2,198.2,360.2"/>
<path class="st3" d="M196.7,360.2c0.5,0,0.9,0,1.4,0C197.6,360.2,197.2,360.2,196.7,360.2L196.7,360.2z"/>
<polyline class="st4" points="516.5,49 469.3,49 469.3,-11.3 "/>
<g>
	<g>
		<path class="st5" d="M271.3,257c-0.7-1.3-3.8-15.6-7.7-24.4c-4-8.8-12.1-26.8-10.4-43.6c3.1-8.3,18.8-6.7,20.8-4.9
			c1.8,8.6,8.5,57.1,8.3,72.9C281.9,259.7,272.8,262.1,271.3,257z"/>
		<path class="st5" d="M271.4,250c-0.4,0.2-0.7,0.4-1,0.6c-1.2,0.8-2.9,5.3-3.4,6.6c-1.5,3.4-1.8,3.2-3,6.7
			c-2.2,6.4-0.7,6.4-1.6,11.3c-0.4,2.5,0.6,8.2,0.1,9.9c-0.5,1.7,3.6,1.6,4.8-7c-0.3-1.4,1.9-5.3,1.9-5.3s2.4,6.5,2.1,8.3
			c-0.2,1.8-1.7,6.5-1.7,6.5s-4.2,2.4-3.2,6.3l0,0c0.1,0.2,0.3,0.4,0.6,0.3c2.5-0.7,9.4-3.9,11.6-6.5c0.8-0.9,1.6-4.6,3.2-12.3
			c1.1-5.3,0.9-10.8,0.4-16.1c-0.2-2.2,0.1-5.6-1.2-7.4c-1.3-1.9-4.3-3.3-6.5-3.1C273.5,249,272.4,249.4,271.4,250z"/>
		<g>
			<path class="st5" d="M248,134.6c-0.1,6.4-0.2,12.7-0.7,19.1c-0.3,3.7-0.8,7.5-1.9,11.1c-1.1,3.6-3.4,6.7-4.7,10.2
				c-1.2,3.2-1.9,6.5-2.4,9.8c-0.3,2.4-0.4,4.8-0.5,7.2h-73c0.3-4.6,0.1-9.1-1-13.6c-1.1-4.3-3.6-8-5.1-12.1
				c-2.2-6.1-2-12.3-2.6-18.7c-0.7-6.7-1.3-13.4-1.7-20.1c-0.3-4.3,0.4-10.6,0.7-14.9c0.1-1.3,0-5.3,1.7-5.9
				c10.6-1.9,28.9-15.9,28.9-15.9c0.7-1.6,1-3.8,1.2-6.1c0.1-0.9,0.1-1.8,0.1-2.8c0-2-0.1-4.1-0.2-5.9c4.9,2.7,11,3.4,16.5,3.4
				c5,0,10.1-0.7,14.8-2.2c-0.1,1.2-0.1,2.5-0.2,3.7c0,1,0,1.9,0.1,2.9c0.2,3.2,0.7,6.3,2,8.7c0.3,0.4,0.7,0.8,1,1
				c6.7,3.6,17.4,11.7,26.3,13.3c0.9,2.4,0.4,5.9,0.5,8.3C248.1,120.8,248.1,128.7,248,134.6z"/>
			<path class="st6" d="M218.1,80.8c0,0.6,0,1.2,0,1.8c-1.1,1.3-2.8,3.1-5.1,4.8c-2.9,2.1-5.9,4.3-10.1,4.5
				c-4.1,0.2-7.2-1.6-9.5-2.9c-3-1.7-5-3.7-6.2-5.2c0-0.6,0-1.3,0-2c0-2.1-0.1-4.1-0.2-5.9c4.9,2.7,11,3.4,16.5,3.4
				c5,0,10.1-0.7,14.8-2.2C218.1,78.2,218.1,79.5,218.1,80.8z"/>
			<path class="st5" d="M181.2,53.9c-0.5-1.8,0.5-2.3-1.5-3.2c-1.6-0.7-3.1,2.5-3.4,4.7c-0.4,2.2,1.9,10.1,3.2,11.3
				c1.3,1.1,3,1.5,3.4-0.4L181.2,53.9z"/>
			<path class="st5" d="M223.5,47.4c1,9.4,1.8,19.1-3.4,28.2c-0.4,0.8-2.1,3.6-5.1,6.6c-2.5,2.5-6.2,5.4-11.3,6.5c-1,0.2-2,0.2-3,0
				c-7.7-1.6-14.1-8.9-15.9-12c0,0,0,0,0,0c-0.2-0.3-0.5-0.7-0.7-1.2c-0.3-0.5-0.4-1-0.6-1.4c0,0,0,0,0,0
				c-1.8-4.9-2.3-18.8-2.6-26.7c-0.8-11,6-20.4,17.2-23.7c1.3-0.4,2.7-0.6,4.1-0.6h0c0.1,0,0.2,0,0.3,0c1.2,0,2.4,0.2,17,9
				C223.5,34.5,222.7,39.7,223.5,47.4z"/>
		</g>
		<g>
			<path class="st7" d="M126.1,180.8c0.8-10.4,12.1-53.5,13.6-60.3c1.7-7.8,4-13.6,12.1-15c4.4-0.8,7.5-1.1,11.8-2.3l12.4,10.6
				l-19.7,78.5C148,186.2,132.9,182.7,126.1,180.8z"/>
		</g>
		<g>
			<path class="st7" d="M277.7,181.3c-0.8-10.4-12.1-53.5-13.6-60.3c-1.7-7.8-3.9-13.3-12-14.7c-4.4-0.8-7.6-1.3-11.9-2.5l-8.6,18.4
				l15.8,70.7L277.7,181.3z"/>
			<path class="st8" d="M245.4,183.9c10.6-3.2,21.3-6.4,31.9-9.6c0.7,2.4,1.4,5,2.1,7.8c0.5,2.5,1,4.9,1.3,7.1
				c-10.8,3.2-21.6,6.3-32.4,9.5c-0.7-1.7-1.5-3.7-2-6.1C245.5,189.3,245.4,186.3,245.4,183.9z"/>
		</g>
		<path class="st5" d="M132.7,256.2c0.7-1.3,3.8-15.6,7.7-24.4c4-8.8,12.1-26.8,10.4-43.6c-3.1-8.3-18.8-6.7-20.8-4.9
			c-1.8,8.6-8.5,57.1-8.3,72.9C122.1,258.9,131.2,261.3,132.7,256.2z"/>
		<path class="st8" d="M157.2,183.9c-10.6-3.2-21.3-6.4-31.9-9.6c-0.7,2.4-1.4,5-2.1,7.8c-0.5,2.5-1,4.9-1.3,7.1
			c10.8,3.2,21.6,6.3,32.4,9.5c0.7-1.7,1.5-3.7,2-6.1C157.1,189.3,157.3,186.3,157.2,183.9z"/>
		<path class="st5" d="M132.6,250c0.4,0.2,0.7,0.4,1,0.6c1.2,0.8,2.9,5.3,3.4,6.6c1.5,3.4,1.8,3.2,3,6.7c2.2,6.4,0.7,6.4,1.6,11.3
			c0.4,2.5-0.6,8.2-0.1,9.9c0.5,1.7-3.6,1.6-4.8-7c0.3-1.4-1.9-5.3-1.9-5.3s-2.4,6.5-2.1,8.3c0.2,1.8,1.7,6.5,1.7,6.5
			s4.2,2.4,3.2,6.3l0,0c-0.1,0.2-0.3,0.4-0.6,0.3c-2.5-0.7-9.4-3.9-11.6-6.5c-0.8-0.9-1.6-4.6-3.2-12.3c-1.1-5.3-0.9-10.8-0.4-16.1
			c0.2-2.2-0.1-5.6,1.2-7.4c1.3-1.9,4.3-3.3,6.5-3.1C130.5,249,131.6,249.4,132.6,250z"/>
		<path class="st5" d="M173.4,465.7c-1-6.1-2.4-14.7-4.4-25.4c-1.1-5.7-2.6-12.9-4.5-21.4c0,0,12.9-12.7,24-6.7
			c8.3,4.5,5.6,21,2.5,54.1c-0.3,3.7-0.7,6.7-0.9,9c-5,0-10.1,0-15.1,0C174.5,473.1,174,469.7,173.4,465.7z"/>
		<path class="st5" d="M235.3,465.7c1-6.1,2.4-14.7,4.4-25.4c1.1-5.7,2.6-12.9,4.5-21.4c0,0-13-12.8-24-6.7
			c-7.9,4.4-5.6,21-2.5,54.1c0.3,3.7,0.7,6.7,0.9,9c5,0,10.1,0,15.1,0C234.1,473.1,234.6,469.7,235.3,465.7z"/>
		<path class="st0" d="M150.8,263.2c-2.4,31.4-3.3,58.4-3.6,79.6c-0.8,53.2,2.3,69.4,14.1,79c9.9,8.1,22.8,8.9,32.6,8.2
			c2.5-12.9,4.8-26.8,6.5-41.7c1.8-15.5,2.8-30.2,3.2-43.7c-1.6-25.9-3.1-51.9-4.7-77.8C182.9,265.6,166.8,264.4,150.8,263.2z"/>
		<path class="st0" d="M252.4,261.2c6.6,20.5,21.2,141.9-11.3,168.6c-4.3,7.1-20.8,7.7-26,1.9c-2.5-13.2-4.8-26.9-7-41
			c-2.8-18.4-5.1-36.3-6.9-53.5c-1.1-7.2-2-14.9-2.4-23.3c-0.9-17.9,0.5-33.8,2.7-47.1C207.1,260.8,246.7,257.7,252.4,261.2z"/>
		<g>
			<g>
				<path class="st9" d="M192.3,354.1c1.2,16-9.1,32.5-24.1,38.2c5.5-5.5,10.5-11,14.5-17.5C186.9,368.3,189.7,361.4,192.3,354.1
					L192.3,354.1z"/>
			</g>
			<g>
				<path class="st9" d="M193.7,367.7c5,14.2-0.6,31.7-12.8,40.4c3.5-6.4,6.7-12.6,8.8-19.5C192,381.9,193,375,193.7,367.7
					L193.7,367.7z"/>
			</g>
			<g>
				<path class="st9" d="M211.9,357.5c3.9,6.1,7.4,12,11.6,17.8c4.1,5.9,8.5,11.2,12.8,17C223.5,385.7,213.8,371.8,211.9,357.5
					L211.9,357.5z"/>
			</g>
			<g>
				<path class="st9" d="M209.2,371.2c2.4,6.1,4.7,11.9,7.7,17.7c2.9,5.8,6.4,11,9.9,16.5C215.1,398.7,207.8,384.5,209.2,371.2
					L209.2,371.2z"/>
			</g>
			<g>
				<path class="st9" d="M191.1,338.9c0.1,11.7-8.3,23.2-19.4,26.8c3.7-4.4,7.2-8.3,10.5-12.8C184.9,349,188.5,343,191.1,338.9
					L191.1,338.9z"/>
			</g>
			<g>
				<path class="st9" d="M213.6,341.9c4.4,5.2,9,11.8,13.2,17.1c1.5,1.9,2.9,3.8,4.4,6c-2.5-0.8-4.7-2.1-6.7-3.6
					C218.6,356.6,214.1,349.5,213.6,341.9L213.6,341.9z"/>
			</g>
			<path class="st10" d="M216.5,283c1.3,3.8-0.1,8.9-0.1,12.4c-0.2,8,0,16,0.1,23.9c0.3,16.1,1.2,32.3,0.5,48.4
				c-0.1,2.3,0.1,5.1-0.8,7.3c-2.9,7.7-19.9,10.4-26.3-0.9c-2.5-4.4-2.1-10.7-2.1-15.6c0-8.4,0.6-16.8,1.3-25.2
				c1.3-15.4,2.8-30.9,4.6-46.2c0.8-7.3,10.1-9.7,16.3-8.8c1.9,0.3,3.9,0.9,5.1,2.4C215.8,281.4,216.2,282.1,216.5,283z"/>
		</g>
		<path class="st7" d="M148.5,106.4c24.5-7.8,32-11.6,32.7-13.6c0.1-0.3,0.7-1.9,2.1-2.8c0.9-0.5,2.9-0.5,2.9-0.5
			c-4.5,10.4-4.9,20.6,7.5,25.6c1.4,0.6,8.5,12.3,9,15.3c0,0,5.2-14.7,6.7-15.2c13.6-4.9,12.6-16.7,9.5-25.9
			c0.5,0.1,1.4,0.3,2.3,0.9c0.3,0.2,1.1,0.8,1.7,1.8c0.3,0.5,0.5,0.9,0.6,1.2c11.3,5.4,19.8,9.2,22.9,10.6c3,1.2,6,2.4,8.9,3.5
			c0,0.6,0,1.5,0.1,2.6c0.1,14.3-2.6,22.7-4.9,39.6c-1.5,11.3-3.2,24.3-4.6,50.8c-0.1,2.5-0.4,7.4,0.1,13.7
			c0.6,8.4,2.4,14.5,2.7,16.8c1.4,11.1,7.3,39.4,7.4,43.4c-13.4,4.7-34.3,10.1-60.2,9.5c-19.3-0.4-35.3-4.1-47-7.7
			c2.9-21.7,4.9-36.6,5.7-41.9c0.2-1.2,0.8-4.9,1.2-10c0.1-1.6,0.3-3.2,0.4-5c0.4-6.8,0.2-10.6,0.2-20.9
			c-0.1-15.5-0.2-14.7,0.1-20.8c0.6-12.4-3.4-27.9-3.4-27.9C151.1,141.5,149,128.5,148.5,106.4z"/>
		<g>
			<path d="M202.1,101.7c-1.3,0-9-0.2-13.3-6c-1-1.4-1.5-2.7-1.9-3.5c-0.4-1.1-0.6-2.1-0.8-2.9c0,0,0-0.1,0-0.1c0-0.1-0.3-1,0.1-1.7
				c0.1-0.1,0.2-0.3,0.5-0.5c0.1,0.4,0.1,1,0.3,1.7c0,0,0.7,3.2,2.5,5.9c2.5,3.7,12.3,8.5,20.7,4.2c5.9-3.1,7.9-9.1,8.3-10.6
				c0.1,0.1,0.3,0.6,0.5,1c0.1,0.3,0.1,0.9,0.1,1c-0.7,1.6-2.4,6.7-8.4,9.6C209.8,100.3,206.6,101.8,202.1,101.7z"/>
		</g>
		<g>
			<path d="M180.7,69.3c-0.7,0-0.9-1.3-0.9-2.5l0.4,0.3c0,1.3,0.4,1.8,0.5,1.8c0.1,0,0.5-0.7,0.5-2c0-1.3-0.4-2-0.5-2
				c-0.1-0.1-0.1-0.3,0-0.4c0.7,0,0.9,1.3,0.9,2.5C181.6,68.1,181.3,69.3,180.7,69.3z"/>
		</g>
		<path class="st5" d="M222.7,53.9c0.5-1.8,0.2-2.6,1.9-3.3c1.7-0.6,3.1,2.5,3.4,4.7c0.4,2.2-1.9,10.1-3.2,11.3
			c-1.3,1.1-3,1.5-3.4-0.4L222.7,53.9z"/>
		<g>
			<path d="M223.6,69.3c0.7,0,0.9-1.3,0.9-2.5l-0.4,0.3c0,1.3-0.4,1.8-0.5,1.8s-0.5-0.7-0.5-2c0-1.3,0.4-2,0.5-2
				c0.1-0.1,0.1-0.3,0-0.4c-0.7,0-0.9,1.3-0.9,2.5C222.7,68.1,223,69.3,223.6,69.3z"/>
		</g>
		<path d="M221.7,58.5c0.2-0.4,0.4-0.7,0.6-1.1c0.3-1.9,0.7-3.9,1-5.8c0.8-2.1,1.6-4.8,2-8.1c0.6-4.7,0.7-9.2-1.8-12.7
			c-2-2.7-4.9-2.2-5.2-2.4c-11.1-18.2-34.1-1.7-36.7,4.4c-1,2.6-2.3,7-1.8,12.4c0.2,2.5,0.8,4.7,1.4,6.4c0.2,0.4,0.4,0.8,0.6,1.2
			c0.9,1.9,1,3.8,0.9,5.1c0.1,0.4,0.2,0.8,0.3,1.1c0.1-0.7,0.2-1.9,0.3-3.3c0.7-8.3,0.4-10.8,2.3-13.1c0.5-0.6,1.4-1.5,2.9-2.3
			c10.7,2.6,29.5-5.6,30-3.3c-0.1,1.1-0.1,2.7,0.2,4.6c0.5,2.7,1.4,4.6,1.8,5.4C221.3,49.3,222.3,52.8,221.7,58.5z"/>
		<g>
			<path class="st11" d="M196.1,75.6c-0.1,0.6,3.1,2.3,6.6,2.3c3.2,0,6.3-1.5,6.2-2.1c0-0.1-0.2-0.4-5.1-0.5
				C198.7,75.2,196.2,75.1,196.1,75.6z"/>
		</g>
		<g>
			<path class="st11" d="M199.5,69.6c-0.1,0.2,1.4,1.5,3.1,1.5c1.7,0,3.1-1.2,3-1.4c-0.1-0.2-1.2,0.5-3,0.5
				C200.7,70.2,199.5,69.4,199.5,69.6z"/>
		</g>
		<g>
			<path d="M186.1,53.4c0.6-0.7,1.5-1.6,2.7-2.4c0,0,0,0,0,0c0.7-0.4,1.5-0.6,2.3-0.5c1.9,0.2,3.8,0.4,5.8,0.6
				c0.1,0.2,0.4,0.5,0.5,1c0.1,0.4,0.1,0.7,0,0.9c-2.2-0.2-4.5-0.5-6.7-0.7c-0.5-0.1-1,0-1.5,0.1C188.2,52.7,187.2,53,186.1,53.4z"
				/>
		</g>
		<g>
			<path d="M218.6,53.4c-0.6-0.7-1.5-1.6-2.7-2.4c0,0,0,0,0,0c-0.7-0.4-1.5-0.6-2.3-0.5c-1.9,0.2-3.8,0.4-5.8,0.6
				c-0.1,0.2-0.4,0.5-0.5,1c-0.1,0.4-0.1,0.7,0,0.9c2.2-0.2,4.5-0.5,6.7-0.7c0.5-0.1,1,0,1.5,0.1C216.6,52.7,217.6,53,218.6,53.4z"
				/>
		</g>
		<g>
			<path d="M189.1,483.9c0.8,0.3,1.9,0.9,2.7,2c2.1,2.8,1,6.8-0.9,12.7c-1.5,4.6-3.3,10-5.5,16c-1,2.1-2.7,4.5-5.5,5.8
				c-7.8,3.6-19.7-4-20.4-11.3c-0.2-2.3,0.9-4.3,3.1-8.3c3-5.4,6.4-9.2,8.8-11.6C177.3,487.4,183.2,485.6,189.1,483.9z"/>
			<path class="st5" d="M172.4,483.9c-3,8.2-5.1,13.4-8.5,18c-0.6,0.8-1.8,2.3-2,4.5c0,0.4-0.3,3,1.4,5.1c0.5,0.6,0.8,0.8,3.4,2.4
				c3.4,2.2,3.1,2.1,3.9,2.6c1.7,0.9,4.2,2.2,6.8,1.7c3.9-0.7,5.9-5,6.2-5.6c0.6-1.8,1.2-3.7,1.8-5.5c1.2-3.8,1.9-6,3.2-10.3
				c1.2-3.8,1.7-5.7,1.8-6.4c0.3-3.2-0.4-4.6-0.5-8.9c-0.1-2.5,0.1-4.6,0.2-6c-2.3-0.6-5.4-1.1-9.1-0.9c-2.3,0.1-5.8-0.8-6,0.9
				C174.5,479.3,173.1,481.9,172.4,483.9z"/>
			<path d="M161.7,503.6c3,0.4,6.6,1.1,10.6,2.4c5.9,2,10.3,4.8,13.4,7.1c1-3.2,2.1-6.3,3.1-9.5c-1.5-1.8-4.5-4.8-9.2-6.9
				c-5.2-2.3-9.9-2.4-12.3-2.2C165.5,497.5,163.6,500.6,161.7,503.6z"/>
		</g>
		<g>
			<path d="M219,483.1c-0.8,0.3-1.9,0.8-2.8,1.8c-2.3,2.6-1.4,6.7,0.2,12.7c1.2,4.7,2.7,10.2,4.6,16.3c0.9,2.1,2.4,4.7,5.2,6.1
				c7.6,4.1,19.9-2.9,21-10.1c0.3-2.3-0.6-4.4-2.6-8.4c-2.7-5.5-5.9-9.6-8.1-12.1C230.6,487.3,224.8,485.2,219,483.1z"/>
			<path class="st5" d="M235.7,484.1c1.4,5.2,3.7,12.7,7.5,18.4c0.6,0.8,1.7,2.4,1.8,4.6c0,0.4,0.1,3-1.7,5
				c-0.5,0.6-0.9,0.7-3.5,2.2c-3.6,2-3.2,1.9-4.1,2.3c-1.8,0.8-4.3,2-6.9,1.3c-3.9-0.9-5.6-5.3-5.8-6c-0.5-1.9-1-3.7-1.5-5.6
				c-1-3.9-1.5-6.1-2.6-10.4c-0.9-3.8-1.4-5.8-1.4-6.5c-0.1-3.2,0.6-4.6,1-8.9c0.2-2.5,0.2-4.6,0.1-6c1.9-0.8,4.8-1.8,8.4-2.2
				c2.9-0.3,7.3-1.5,7.2,0.3C233.9,477.8,235,481.6,235.7,484.1z"/>
			<path d="M245.3,504.4c-3,0.2-6.7,0.7-10.7,1.8c-6,1.7-10.6,4.2-13.8,6.3c-0.9-3.2-1.7-6.4-2.6-9.6c1.6-1.7,4.7-4.5,9.6-6.4
				c5.3-2,10-1.8,12.4-1.5C241.9,498.1,243.6,501.3,245.3,504.4z"/>
		</g>
	</g>
	<g>
		<path class="st0" d="M197.1,58.7c-0.1-0.3-1-2.2-3-2.8c-2.1-0.6-4.5,0.5-5.7,2.7c0.4,0.4,1.9,1.6,4.2,1.6
			C195.1,60.3,196.7,59,197.1,58.7z"/>
		<path class="st12" d="M195,57.8c0.1,1.1-0.6,2.1-1.7,2.2c-1.1,0.1-2.1-0.6-2.2-1.7c-0.1-1.1,0.6-2.1,1.7-2.2
			C193.9,56,194.9,56.7,195,57.8z"/>
		<path d="M197.1,58.7c-1.4-2.5-4.3-3.4-6.8-1.8c-0.8,0.5-1.4,1.1-2,1.9c0.2-0.4,0.4-0.9,0.7-1.3C191.2,54.4,196,54.8,197.1,58.7
			L197.1,58.7z"/>
		<path d="M194.1,58c0.1,0.5-0.3,1-0.8,1.1c-0.5,0.1-1-0.3-1.1-0.8c-0.1-0.5,0.3-1,0.8-1.1C193.5,57.1,194,57.5,194.1,58z"/>
		<path class="st0" d="M192.6,57.5c0,0.2-0.1,0.4-0.4,0.5c-0.2,0-0.4-0.1-0.5-0.4c0-0.2,0.1-0.4,0.4-0.5
			C192.4,57.1,192.6,57.2,192.6,57.5z"/>
	</g>
	<g>
		<path class="st0" d="M207.6,58.8c0.1-0.3,0.9-2.3,2.9-2.9c2-0.6,4.5,0.4,5.8,2.6c-0.4,0.4-1.9,1.6-4.2,1.7
			C209.7,60.3,208,59.1,207.6,58.8z"/>
		<path class="st12" d="M209.7,57.9c-0.1,1.1,0.7,2.1,1.8,2.2c1.1,0.1,2.1-0.7,2.2-1.8c0.1-1.1-0.7-2.1-1.8-2.2
			C210.8,56,209.8,56.8,209.7,57.9z"/>
		<path d="M207.6,58.8c1.4-2.6,4.3-3.5,6.8-2c0.8,0.5,1.4,1.1,2,1.8c-0.2-0.4-0.4-0.8-0.7-1.2C213.4,54.3,208.6,54.9,207.6,58.8
			L207.6,58.8z"/>
		<path d="M210.7,58.1c-0.1,0.5,0.3,1,0.9,1.1c0.5,0.1,1-0.3,1.1-0.9c0.1-0.5-0.3-1-0.9-1.1C211.2,57.1,210.7,57.5,210.7,58.1z"/>
		<path class="st0" d="M212.1,57.5c0,0.2,0.1,0.4,0.4,0.5c0.2,0,0.4-0.1,0.5-0.4c0-0.2-0.1-0.4-0.4-0.5
			C212.3,57.1,212.1,57.2,212.1,57.5z"/>
	</g>
	<path id="XMLID_00000063633346854035686300000001734343085008519844_" class="st13" d="M178.6,38.2c9.9-8.1,42-6.9,46.9-5.6
		c0.8,0.3,1.9,2.3,1.3,5.3c0.9,1.9,1,4.6-0.3,5.5c0,0,0,0.1,0,0.2c0,0.7-0.6,1.3-1.3,1.3c-5.4-0.3-30.8-3.2-44.3,5
		c-0.6,0.4-1.4,0.2-1.7-0.5c-0.4-0.7-0.6-1.7-0.4-3.2c-1.4-1.1-1.1-4.2-0.6-4.9C178,39.8,178.2,38.5,178.6,38.2z"/>
	<path class="st13" d="M245.1,105.1c-0.6-5.1-5.2-5.6-6.6-5.1c-1.4-2.5-3.8-3.6-6.4-2.6c-0.5-1.8-4.6-3-5.7-2.2
		c0.3,8.3-1,88.8-11.3,118.5c-0.5,2.7,19.3,11.1,26.5,6.1C242.4,215.9,250.5,128.1,245.1,105.1z"/>
	<path class="st7" d="M151.5,255.4c-1.6,13.2-3.4,26.7-5.6,40.5c-0.9,5.9-1.9,11.7-2.9,17.4c12.7,4.8,31.3,10.1,54.3,11.2
		c28.1,1.3,50.8-4.4,64.9-9.1c-1.1-9.2-2.4-18.5-3.9-28.1c-1.5-9.9-3.1-19.5-4.8-28.8c-8.8,4.7-33.1,16.2-64.1,11.3
		C172.3,267.1,159.4,260.4,151.5,255.4z"/>
	<path class="st8" d="M194.2,115.4c-0.9,0.4-2.2,1.2-3.3,2.5c-2.9,3.2-2.4,6.6-3.6,6.8c-1.7,0.3-4.2-6-5.3-9.5
		c-0.9-2.8-2.3-7.2-2.1-13.2c0.1-3.8,0.8-7,1.5-9.1c0.1-0.4,0.5-1.6,1.8-2.5c1.4-1,2.9-0.8,3.3-0.7c-0.7,1-4.1,6.4-2.7,13.2
		C185.5,111.5,193.4,115.1,194.2,115.4z"/>
	<path class="st8" d="M209.3,115.3c0.9,0.5,2.1,1.3,3.2,2.7c2.7,3.4,1.9,6.7,3.2,7c1.7,0.4,4.6-5.7,5.9-9.1c1.1-2.7,2.8-7,3-13.1
		c0.1-2.8-0.1-5.2-0.5-7.2c-0.2-0.9-0.3-1.7-0.4-2c-0.2-0.9-0.4-1.6-0.6-2.1c-0.7-1.5-2.7-2.1-4.1-2.3c0.8,2,1.5,4.5,1.4,7.3
		C220.3,107.5,210.6,114.4,209.3,115.3z"/>
	<g>
		<path class="st8" d="M209.3,115.3c-1.6,3.6-3,7.2-4.4,10.9c0,0-0.9,2.7-0.9,2.7c-1,2.7-1.4,5.5-1.7,8.4
			c-0.8,7.7-0.8,15.5-0.7,23.3c0,3.9,0.1,7.8,0.2,11.7c0,0-0.5-0.4-0.5-0.4c2.8-0.1,5.7-0.2,8.5-0.2c-3,0.4-5.9,0.7-8.9,1.1
			c-0.8-8-1.3-16-1.1-24c0.2-5.9,0.4-11.9,2-17.6C203.6,125.7,206.2,120.4,209.3,115.3L209.3,115.3z"/>
	</g>
	<circle class="st8" cx="205.7" cy="135.7" r="1.8"/>
	<circle class="st8" cx="205.2" cy="152.6" r="1.8"/>
	<circle class="st8" cx="205.2" cy="167.3" r="1.8"/>
</g>
</svg>
