<?xml version="1.0" encoding="utf-8"?>
<!-- Generator: Adobe Illustrator 26.0.1, SVG Export Plug-In . SVG Version: 6.00 Build 0)  -->
<svg version="1.1" id="Layer_1" xmlns="http://www.w3.org/2000/svg" xmlns:xlink="http://www.w3.org/1999/xlink" x="0px" y="0px"
	 viewBox="0 0 819 595.9" style="enable-background:new 0 0 819 595.9;" xml:space="preserve">
<style type="text/css">
	.st0{clip-path:url(#SVGID_00000093870401351295117200000004862890387739970216_);}
	.st1{clip-path:url(#SVGID_00000015322312994169305590000003490535825636473240_);fill:#BDDEEF;}
	.st2{clip-path:url(#SVGID_00000015322312994169305590000003490535825636473240_);fill:#52A7C1;}
	.st3{opacity:0.4;clip-path:url(#SVGID_00000015322312994169305590000003490535825636473240_);}
	.st4{fill:#F7DFC6;}
	.st5{clip-path:url(#SVGID_00000015322312994169305590000003490535825636473240_);}
	.st6{fill:#D5B792;}
	.st7{fill:#DE9F7E;}
	.st8{fill:#CE8065;}
	.st9{fill:#B7303D;}
	.st10{fill:#FFFFFF;}
	.st11{fill:#D3D3D3;}
	.st12{fill:#FFFFFF;stroke:#D3D3D3;stroke-width:2.728;stroke-miterlimit:10;}
	.st13{fill:#D34047;}
	.st14{fill:#F8AC8B;}
	.st15{fill:#FCB856;}
	.st16{fill:#D38A6A;}
	.st17{fill:#6B3628;}
	.st18{fill:#211E1F;}
	.st19{fill:#FCB99B;}
	.st20{fill:#F79F95;}
	.st21{fill:#F38D82;}
	.st22{fill:#FC5491;}
	.st23{fill:#E74E6C;}
	.st24{fill:#0066A5;}
	.st25{fill:#CD070C;}
	.st26{fill:#3E8ACE;}
	.st27{fill:#E5060B;}
	.st28{fill:#CCCCCC;}
	.st29{fill:#431230;}
	.st30{fill:#580000;}
	.st31{fill:#990000;}
	.st32{fill:#F76467;}
	.st33{fill:url(#SVGID_00000036966613024417636060000015387622554769596051_);}
	.st34{fill:#EA906C;}
	.st35{fill:url(#SVGID_00000109730942813365425390000012985527969242624901_);}
	.st36{fill:#576B7D;}
	.st37{fill:#5E7389;}
	.st38{fill:#EA4E5A;}
	.st39{fill:#EE252A;}
	.st40{fill:#CF455E;}
	.st41{fill:#E7372E;}
	.st42{fill:#C21111;}
	.st43{fill:#FFCC00;}
</style>
<g>
	<g>
		<defs>
			<path id="SVGID_1_" d="M738.3,471.4c-2,1.6-4.2,2.9-6.6,3.9c-65.5,27.9-176.5,65.5-318.5,67.7c-133.6,2.1-240.6-27.9-307.5-52.7
				c-10.8-4-20.6-10.1-28.9-18c-4.1-3.9-8.5-8.5-12.8-13.9c-8.7-10.8-17.4-24.6-23.3-41.7c-2.4-7-20.4-61,2.6-98.4
				c0.8-1.4,1.8-2.7,2.7-4.1c13.8-19.1,31.9-22.1,54.6-23.3c2.9-0.1,6-0.3,9.1-0.4c3.8-0.1,7.6-0.3,11.6-0.5
				c5.4-0.3,11-0.6,16.9-1.2c16.5-1.7,34.8-5.3,54.9-13.9c4.3-1.9,8.4-3.8,12.3-5.9c81.5-42.9,76.3-126.6,169.3-158.4
				c52.3-17.9,99.3-7,111.8-4c57.9,14.2,97.4,52.5,142,99c3.2,3.3,6.4,6.7,9.7,10.1c16.8,17.5,21.3,24.7,30.1,36
				c1.2,1.5,2.5,3.2,3.9,4.9c5.7,7.1,13.4,16.1,25.9,29.6c6.3,6.7,12.2,12.9,17.8,18.6c33.3,34,54.4,50.9,64.5,67.6
				c4.1,6.8,6.4,13.6,6.9,21.5C788.3,412.1,780.3,438,738.3,471.4z"/>
		</defs>
		<clipPath id="SVGID_00000070078295239983013850000015427504612317826224_">
			<use xlink:href="#SVGID_1_"  style="overflow:visible;"/>
		</clipPath>
		<g style="clip-path:url(#SVGID_00000070078295239983013850000015427504612317826224_);">
			<defs>
				<path id="SVGID_00000160884625359527254700000011490286654467070344_" d="M738.3,471.4c-2,1.6-4.2,2.9-6.6,3.9
					c-65.5,27.9-176.5,65.5-318.5,67.7c-133.6,2.1-240.6-27.9-307.5-52.7c-10.8-4-20.6-10.1-28.9-18c-4.1-3.9-8.5-8.5-12.8-13.9
					c-8.7-10.8-17.4-24.6-23.3-41.7c-2.4-7-20.4-61,2.6-98.4c0.8-1.4,1.8-2.7,2.7-4.1c13.8-19.1,31.9-22.1,54.6-23.3
					c2.9-0.1,6-0.3,9.1-0.4c3.8-0.1,7.6-0.3,11.6-0.5c5.4-0.3,11-0.6,16.9-1.2c16.5-1.7,34.8-5.3,54.9-13.9
					c4.3-1.9,8.4-3.8,12.3-5.9c81.5-42.9,76.3-126.6,169.3-158.4c52.3-17.9,99.3-7,111.8-4c57.9,14.2,97.4,52.5,142,99
					c3.2,3.3,6.4,6.7,9.7,10.1c16.8,17.5,21.3,24.7,30.1,36c1.2,1.5,2.5,3.2,3.9,4.9c5.7,7.1,13.4,16.1,25.9,29.6
					c6.3,6.7,12.2,12.9,17.8,18.6c33.3,34,54.4,50.9,64.5,67.6c4.1,6.8,6.4,13.6,6.9,21.5C788.3,412.1,780.3,438,738.3,471.4z"/>
			</defs>
			<clipPath id="SVGID_00000137813555761983927430000004458055083517702794_">
				<use xlink:href="#SVGID_00000160884625359527254700000011490286654467070344_"  style="overflow:visible;"/>
			</clipPath>
			<path style="clip-path:url(#SVGID_00000137813555761983927430000004458055083517702794_);fill:#BDDEEF;" d="M738.3,471.4
				c-2,1.6-4.2,2.9-6.6,3.9c-65.5,27.9-176.5,65.5-318.5,67.7c-133.6,2.1-240.6-27.9-307.5-52.7c-10.8-4-20.6-10.1-28.9-18
				c-4.1-3.9-8.5-8.5-12.8-13.9c-8.7-10.8-17.4-24.6-23.3-41.7c-2.4-7-20.4-61,2.6-98.4c0.8-1.4,1.8-2.7,2.7-4.1
				c13.8-19.1,31.9-22.1,54.6-23.3c2.9-0.1,6-0.3,9.1-0.4c3.8-0.1,7.6-0.3,11.6-0.5c5.4-0.3,11-0.6,16.9-1.2
				c16.5-1.7,34.8-5.3,54.9-13.9c4.3-1.9,8.4-3.8,12.3-5.9c81.5-42.9,76.3-126.6,169.3-158.4c52.3-17.9,99.3-7,111.8-4
				c57.9,14.2,97.4,52.5,142,99c3.2,3.3,6.4,6.7,9.7,10.1c16.8,17.5,21.3,24.7,30.1,36c1.2,1.5,2.5,3.2,3.9,4.9
				c5.7,7.1,13.4,16.1,25.9,29.6c6.3,6.7,12.2,12.9,17.8,18.6c33.3,34,54.4,50.9,64.5,67.6c4.1,6.8,6.4,13.6,6.9,21.5
				C788.3,412.1,780.3,438,738.3,471.4z"/>
			<path style="clip-path:url(#SVGID_00000137813555761983927430000004458055083517702794_);fill:#52A7C1;" d="M4.2,453.2
				C170.7,466,297,470.2,381.8,471.6c45.4,0.7,68.5,0.7,92.1,0c131.6-3.8,237.5-23.9,308.4-41c10.6,14.1,22,34.5,20.1,57.8
				c-3.8,44.5-57.3,75.3-158.1,119.7c-91.1,40.1-415.3,183-567.9,27.6C52.7,611.7,11.9,558.7,4.2,453.2z"/>
			<g style="opacity:0.4;clip-path:url(#SVGID_00000137813555761983927430000004458055083517702794_);">
				<path class="st4" d="M260.8,218.2c-0.4-1.5-0.4-4.6,1.4-6.7c2.8-3.3,8.6-2.3,9.6-2.1c0.7-1.3,2.5-4.1,6-6c5.5-3,11-1.5,12.1-1.1
					c0.2-0.4,1.5-3.2,4.7-4.1c3.8-1,6.7,1.8,6.8,1.9c0.5-1,4.3-8.3,13-10.3c9.5-2.2,16.5,3.8,17.2,4.4c0.3-0.5,4.3-6.7,12-7
					c7.5-0.3,11.8,5.3,12.2,5.8c0.4-0.4,4-4.2,9.6-3.5c6,0.7,8.6,6.1,8.8,6.4c0.5-0.3,3.8-2.4,7.9-1.1c4.5,1.4,6,5.7,6.1,6.1
					c0.3-0.1,7.6-3.2,13.7,1.3c4.3,3.2,5.1,7.9,5.2,8.9c1.5-2.4,4.3-3.5,6.9-2.9c2.2,0.5,4,2.3,4.7,4.6c1.2-0.6,3.1-1.5,5.3-1
					c4,0.8,7.2,5.4,6.5,7.7c-1.3,4.6-18,3-38.9,2.3c-10.5-0.4-29.2,0.1-66.5,1C288.2,223.7,263,225.7,260.8,218.2z"/>
			</g>
			<g style="opacity:0.4;clip-path:url(#SVGID_00000137813555761983927430000004458055083517702794_);">
				<path class="st4" d="M497.6,202.3c-0.3-0.9-0.2-2.9,0.9-4.2c1.8-2.1,5.5-1.5,6.1-1.4c0.5-0.8,1.6-2.6,3.8-3.8
					c3.5-1.9,7-0.9,7.7-0.7c0.1-0.2,0.9-2.1,3-2.6c2.4-0.6,4.3,1.2,4.4,1.2c0.3-0.6,2.7-5.3,8.3-6.6c6-1.4,10.6,2.4,11,2.8
					c0.2-0.3,2.7-4.3,7.6-4.4c4.8-0.2,7.6,3.4,7.8,3.7c0.2-0.2,2.6-2.7,6.1-2.3c3.8,0.5,5.5,3.9,5.6,4.1c0.3-0.2,2.4-1.5,5-0.7
					c2.9,0.9,3.8,3.6,3.9,3.9c0.2-0.1,4.9-2.1,8.8,0.8c2.7,2,3.2,5,3.3,5.7c1-1.5,2.8-2.3,4.4-1.9c1.4,0.3,2.6,1.5,3,2.9
					c0.7-0.4,2-0.9,3.4-0.7c2.5,0.5,4.6,3.4,4.2,4.9c-0.8,3-11.5,1.9-24.8,1.5c-6.7-0.2-18.6,0.1-42.4,0.6
					C515,205.8,499,207.1,497.6,202.3z"/>
			</g>
			<g style="opacity:0.4;clip-path:url(#SVGID_00000137813555761983927430000004458055083517702794_);">
				<path class="st4" d="M413.4,162.5c-0.2-0.5-0.1-1.6,0.5-2.4c1-1.2,3.1-0.8,3.4-0.8c0.3-0.5,0.9-1.5,2.1-2.1
					c2-1.1,3.9-0.5,4.3-0.4c0.1-0.1,0.5-1.2,1.7-1.5c1.4-0.4,2.4,0.6,2.4,0.7c0.2-0.4,1.5-2.9,4.6-3.7c3.4-0.8,5.9,1.3,6.1,1.6
					c0.1-0.2,1.5-2.4,4.3-2.5c2.7-0.1,4.2,1.9,4.4,2.1c0.1-0.1,1.4-1.5,3.4-1.3c2.1,0.3,3.1,2.2,3.1,2.3c0.2-0.1,1.3-0.8,2.8-0.4
					c1.6,0.5,2.1,2,2.2,2.2c0.1,0,2.7-1.1,4.9,0.5c1.5,1.1,1.8,2.8,1.9,3.2c0.5-0.8,1.5-1.3,2.5-1c0.8,0.2,1.4,0.8,1.7,1.6
					c0.4-0.2,1.1-0.5,1.9-0.4c1.4,0.3,2.6,1.9,2.3,2.8c-0.5,1.7-6.4,1.1-13.9,0.8c-3.7-0.1-10.4,0-23.7,0.3
					C423.2,164.4,414.2,165.1,413.4,162.5z"/>
			</g>
			<g style="clip-path:url(#SVGID_00000137813555761983927430000004458055083517702794_);">
				<path class="st6" d="M402.4,386.7c0-0.4-0.3-0.7-0.7-0.7c-0.4,0-0.7,0.3-0.7,0.7s0.3,0.7,0.7,0.7
					C402.1,387.4,402.4,387.1,402.4,386.7z"/>
			</g>
			<path style="clip-path:url(#SVGID_00000137813555761983927430000004458055083517702794_);fill:#52A7C1;" d="M442,411.4
				c0-0.1,0.1-0.1,0.1-0.2c2.7-3.2,3.8-8.2,2.6-11.9c-1.6-4.8-6-7.9-10.6-7.8c-0.5-1.4-1.8-2.9-2.8-3.5c-0.4-0.2-0.8-0.4-1.2-0.5
				c-0.2-2.3-1.2-4.5-3.6-5.2c-1.1-0.3-2.4-0.2-3.8,0.2c-2.1-3-6.4-3.4-10.4-2.5l0,0c0,0,0,0,0,0c-0.6,0.1-1.3,0.3-1.9,0.5
				c0,0,0,0,0,0c-0.6,0.2-1.2,0.4-1.7,0.7c0,0,0,0-0.1,0c-0.3,0.1-0.5,0.2-0.8,0.4c0,0-0.1,0-0.1,0c-0.2,0.1-0.4,0.2-0.7,0.4
				c0,0-0.1,0-0.1,0c-0.2,0.1-0.4,0.3-0.6,0.4c0,0-0.1,0.1-0.1,0.1c-0.2,0.1-0.4,0.3-0.6,0.4c0,0,0,0,0,0c-2.8,2.2-4.7,5.7-5.4,9.4
				c-0.3,1.7-0.3,3.4,0,5c-1,0.3-2,0.9-2.6,1.8c-1,1.4-1.3,3.6-0.7,5.5c-3.1,1.8-3.6,6.6-2.7,10c0.3,1,0.7,1.8,1.2,2.5
				c-1.2,0.8-2,1.9-2.6,3.2c0,0,0,0,0,0l0,0c-1.5,0-3,0.3-4.4,1.2c-0.2,0.1-0.3,0.2-0.4,0.3c-2,1.5-3.5,3.8-4,6.2
				c-0.8,3.7,1.2,8.1,4,10.5c-0.3,0.4-0.5,0.8-0.7,1.3c-0.2,0.8-0.2,1.6,0.2,2.6c0.1,0.3,0.3,0.5,0.4,0.7c0.4,0.5,0.9,0.8,1.5,1
				c0.2,0.1,0.5,0.1,0.7,0.1c0.1,0,0.2,0,0.4,0c0.1,0,0.2,0,0.4,0c0.6-0.1,1.2-0.3,1.8-0.6c0,0.5,0.1,1,0.2,1.5
				c0.2,0.8,0.7,1.7,1.3,2.5c1,1.3,2.1,2.1,3.3,2.6c1.2,0.4,2.6,0.5,4.2,0.3c2.8-0.4,5.6-1.7,6.9-4.3c0.1-0.2,0.2-0.3,0.2-0.5
				c1.4,1.7,2.8,3.3,4.3,4.8c-0.5,3.3-0.9,6.6-1,9.9c-0.1,4.1-0.7,7.9-1.4,11.9c-0.4,2.5-0.9,5-0.8,7.5c0,0.9,0.1,1.7,0.2,2.6h12.8
				c0,0,0-0.1,0-0.1h0c-2.9-7.5-3.4-15.1-3.4-22.9c0-2.6,0.1-5.2,0.1-7.8c0-0.7,0-1.3,0-2c0-4.6-0.3-9-0.8-13.6
				c0.1-0.2,0.1-0.4,0.2-0.7c0.6-2.1,0.7-4.7-0.3-6.8c0-0.4,0-0.8,0.1-1.2c0,0,0-0.1,0-0.1c0-0.5,0.1-1.1,0.1-1.6c0,0,0-0.1,0-0.1
				c0-0.5,0.1-1.1,0.1-1.6c3.9,2.4,9.7,0.9,12.1-3.4c0.3-0.5,0.6-1.1,0.7-1.7c1.3,0.9,3.7,0.2,4.8-0.7c1-0.8,1.6-1.9,1.6-3.2v0v0
				c0-0.3-0.1-0.6-0.2-0.9c0,0,0,0,0,0c0.3-0.1,0.6-0.2,0.9-0.4c0.1-0.1,0.2-0.1,0.3-0.2c0.2-0.1,0.3-0.2,0.5-0.3
				c0.1-0.1,0.2-0.2,0.4-0.3c0.1-0.1,0.3-0.2,0.4-0.3c0.1-0.1,0.3-0.2,0.4-0.3c0.1-0.1,0.2-0.2,0.3-0.3
				C441.7,411.7,441.9,411.5,442,411.4z M413.3,424.5c0.1,0,0.2,0,0.3-0.1c0,0,0,0.1,0,0.1C413.4,424.6,413.3,424.6,413.3,424.5z
				 M411.4,443.7c0.2,0,0.3-0.1,0.5-0.1c0.1,0,0.2,0,0.2-0.1c0.2-0.1,0.5-0.2,0.7-0.2c0.1,0,0.2-0.1,0.2-0.1
				c0.2-0.1,0.3-0.1,0.4-0.2c0.1-0.1,0.2-0.1,0.3-0.2c0.1-0.1,0.2-0.1,0.3-0.2c0.1-0.1,0.2-0.1,0.3-0.2c-0.1,1.4-0.3,2.8-0.5,4.2
				C413.1,445.6,412.2,444.7,411.4,443.7C411.3,443.7,411.3,443.7,411.4,443.7z"/>
			<path style="clip-path:url(#SVGID_00000137813555761983927430000004458055083517702794_);fill:#52A7C1;" d="M183.2,358.7
				c0.9-3,0-6.1-3.4-8.3c-3.7-2.3-8.9-2.1-12.7,0.2c-0.9-1.7-2.5-3.1-4-4c-0.9-0.6-1.9-0.8-2.8-0.8c0.2-2.9-0.7-5.9-2.8-7.9
				c-1.6-1.5-3.5-2.4-5.5-2.6c-0.4-2.1-1.5-4-3-5.2c-1.4-1.1-3.6-1.9-5.5-1.4c-2.7-3.3-8.3-3.8-12.3-3.3c-5.5,0.7-8.4,4.1-9.4,8.7
				c-1.9-1.1-4.4-1-6.3,0.6c-1.7,1.5-2.5,3.9-2.1,6.1c-2.4-0.7-5-0.5-7.4,1.1c-1.5,1-2.6,2.4-3.3,4.1c-2.5-1.7-5.7-2.6-8.7-2.6
				c0,0,0,0,0,0c0,0,0,0,0,0c-0.4,0-0.7,0-1,0c0,0,0,0,0,0c-0.3,0-0.6,0.1-0.9,0.1c-0.1,0-0.2,0-0.2,0c-0.2,0-0.5,0.1-0.7,0.1
				c-0.1,0-0.2,0-0.2,0.1c-0.3,0.1-0.6,0.2-0.9,0.3c-1.5,0.5-2.9,1.3-3.9,2.2c-3,2.4-4.3,6-4.2,9.9c0,0.4,0,0.7,0,1.1
				c-1.1-0.3-2.3-0.2-3.4,0.7c-0.8,0.6-1.2,1.7-1.2,2.7c0,0.2,0,0.3,0,0.5c-4.3,0.4-8,3.6-9.9,7.6c-1.1,2.4-1.6,5-1.1,7.6
				c0.1,0.4,0.2,0.9,0.3,1.3c0.9,3,3.1,5.4,6.1,6.5c0.4,0.2,0.9,0.3,1.4,0.4c0,0.3,0.1,0.6,0.1,0.9c0.3,2,1.1,3.9,2.3,5.5
				c1.3,1.7,3.1,2.4,4.9,2.5c0.5,0,1.1,0,1.6-0.1c1.9-0.3,3.7-1.2,5.2-2.4c0.3,0.5,0.8,1,1.4,1.2c0.2,0.1,0.5,0.1,0.7,0.2
				c1.8,0.3,3.6-0.9,4.7-2.4c0.4,1.4,0.9,2.7,1.7,3.8c0.6,0.9,1.3,1.6,2.1,2.3c0.3,0.2,0.6,0.4,0.9,0.6c2.5,1.5,5.6,1.4,8.2,0.3
				c1.2,3.5,4.8,6.7,7.9,7.4c0.3,0.1,0.7,0.1,1,0.1c0.3,0,0.6,0,1,0c0.4,0,0.7,0,1.1-0.1c0.9-0.1,1.7-0.3,2.6-0.6
				c0.1,0,0.2-0.1,0.4-0.2c0.7,2,1.1,4.1,1.2,6.4c0.6,12.4-7,22.7-13,32.9c-5.5,9.4-7.2,19.6-5.1,30.3H117h11.7
				c-10.8-15.9-6.8-35.1-0.2-52.4c1.5-3.6,3-7.1,4.4-10.8c1-2.6,1.8-5.3,2.6-8c0.8,0.3,1.7,0.6,2.6,0.7c1.2,0.2,2.4,0.4,3.7,0.4
				c1,0,2-0.1,3.1-0.3c2.9-0.6,5.7-2.1,7.3-4.3c0.1-0.2,0.3-0.4,0.4-0.6c0.6,0.1,1.2,0.1,1.8,0.1c1.8-0.2,3.7-0.9,4.7-1.9
				c1.1-1,2-3.2,2.2-5.4c2,0.3,4.1,0.2,5.9-0.2c0.6-0.1,1.2-0.3,1.7-0.5c0.3-0.1,0.7-0.3,1-0.4c0.1,0,0.2-0.1,0.3-0.1
				c0.2-0.1,0.5-0.2,0.7-0.4c0.1,0,0.2-0.1,0.3-0.2c0.3-0.2,0.5-0.3,0.8-0.5c0,0,0.1,0,0.1-0.1c0.3-0.2,0.6-0.4,0.9-0.7c0,0,0,0,0,0
				c0.3-0.2,0.6-0.5,0.8-0.7c0,0,0.1-0.1,0.1-0.1c0.3-0.2,0.5-0.5,0.8-0.8c0,0,0,0,0,0c0.5-0.6,1-1.2,1.5-1.9c0,0,0,0,0,0h0
				c1-1.5,1.7-3.1,1.9-4.8c3.8-0.9,7.6-4.1,8.9-7.4C188.6,367.8,187.3,360.6,183.2,358.7z M129.4,401.5c-0.1,0-0.2,0.1-0.2,0.1
				c-0.8-0.5-1.5-1.1-2.2-1.8c0.7-0.7,1.3-1.5,1.8-2.3c0.6,0.6,1.3,1.2,2,1.7c-0.3,0.6-0.5,1.2-0.8,1.7
				C129.8,401.2,129.6,401.4,129.4,401.5z"/>
			<path style="clip-path:url(#SVGID_00000137813555761983927430000004458055083517702794_);fill:#52A7C1;" d="M42.5,446.3
				c0.1-2.3,3.4-4.5,6.3-5c4.8-0.8,6.5,3.2,13.3,5c4.4,1.2,8.1,0.6,15.4-0.4c8.6-1.2,8.7-2.8,14.3-3.1c8.4-0.5,9.4,2.9,18.6,3.8
				c10.4,1,12.1-3.1,21.9-2.1c9.3,1,8.9,4.9,18.3,7.2c14,3.6,19.9-3.7,34.5-1.2c11.6,2,10.5,8.2,20.2,9.5c13.5,1.9,17-8.4,30.4-7.2
				c13.9,1.4,15.7,12.9,27.6,12.1c10.3-0.6,13.5-9.5,22.5-7.6c7.2,1.6,8.7,8.2,14.6,7.8c5.4-0.4,5.6-6,11.4-8.5
				c11.8-5,23.7,12.7,35.8,8.5c7.7-2.6,7.1-11.1,14.2-11.8c8.4-0.8,11.4,11,21.6,11.4c8.6,0.4,12.2-7.7,19.2-5.4
				c5.6,1.8,5.4,7.9,10.7,9c6.2,1.3,10.3-6.1,15-4.6c2.3,0.8,4.9,3.7,5.9,13.2c-57.3,4.5-104.4,6.7-139.3,7.8
				c0,0.2-34.1,0.5-79.9-2.1c-46-2.8-103.7-8.5-155-25.7C55,455.1,42.2,451,42.5,446.3z"/>
			<path style="clip-path:url(#SVGID_00000137813555761983927430000004458055083517702794_);fill:#52A7C1;" d="M409.5,468.5
				c-0.3-2.3,2.5-5,5.3-6.1c4.6-1.6,7,2,14,2.6c4.6,0.4,8.1-0.8,15.1-3.2c8.2-2.8,8.1-4.3,13.5-5.6c8.2-2,9.7,1.2,19,0.4
				c10.4-0.8,11.4-5.2,21.2-5.9c9.3-0.7,9.7,3.2,19.3,3.8c14.4,1,18.9-7.2,33.7-7.3c11.7-0.1,11.8,6.2,21.5,5.7
				c13.6-0.6,15.2-11.3,28.7-12.5c13.9-1.1,17.8,9.9,29.3,7c10-2.5,11.6-11.8,20.7-11.5c7.4,0.3,10.1,6.5,15.8,5
				c5.3-1.3,4.4-6.9,9.7-10.4c10.8-7,25.5,8.2,36.7,1.9c7.1-4,5-12.2,11.8-14.2c8.1-2.3,13.2,8.8,23.3,7.4
				c8.6-1.1,10.6-9.8,17.9-8.8c5.9,0.8,6.7,6.8,12.1,7c6.3,0.2,9-7.8,14-7.2c2.4,0.3,5.5,2.8,8.1,11.9
				c-55.5,14.7-101.5,25.2-135.7,32.5c0,0.2-33.4,6.6-78.9,12.2c-45.7,5.4-103.5,10.1-157.1,2.4C423.4,475,410.1,473.1,409.5,468.5z
				"/>
		</g>
		<g style="clip-path:url(#SVGID_00000070078295239983013850000015427504612317826224_);">
			<g>
				<path class="st7" d="M528.6,418.2c-5.1-2.2-9.6-4.5-13.5-6.7c-0.8,1.3-1.6,2.5-2.4,3.8c-8.2-4.4-17-9.6-26.1-15.7
					c-9.2-6.2-17.4-12.4-24.7-18.3c-2.2,1.7-4.4,3.4-6.7,5.4c-2.1,1.8-4.1,3.6-6,5.3c9.8,10.6,18.6,20.1,26.6,28.7
					c2.3,2.4,12.5,13.4,23.3,21.6c0.3,0.2,0.9,0.7,1.9,1.4c7.1,5.3,13.3,9.4,18.4,12.4c3,1.8,6.8,1,8.9-1.8
					c3.7-5.1,6.5-8.1,12.5-18.9c1.8-3.3,4.1-7,6.8-11C541.9,423.1,535.5,421.2,528.6,418.2z"/>
				<g>
					<g>
						<path class="st7" d="M461.4,380.5c0,0-3.2-4.4-4.3-7.9c-0.3-0.9-0.5-2-0.5-2c-0.4-1.5-0.6-2.8-0.8-3.7
							c-1.6-0.5-3.6-1.2-5.7-2.3c-2.5-1.3-4.5-2.8-5.9-4.1l-2.1-1.2c-20-13.7-25.7-15.2-26.9-13.9c-0.1,0.1-0.7,0.8-0.8,1.8
							c-0.1,1.8,1.9,3.2,4,4.7c5,3.4,9.5,6.2,10.9,7c-1.1-0.6-2.5-0.5-3.4,0.2c-1.3,0.9-1.7,2.7-1,4.2c-0.3,0.1-1.3,0.7-1.8,2
							c-0.6,1.6,0.1,2.9,0.2,3.1c-0.4,0.7-1.1,2.1-1,3.9c0.1,4,3.7,6.2,4,6.4c3,3.2,7.7,7.4,14.6,10.5c3,1.3,5.7,2.2,8.2,2.8
							c3,2.7,6,5.4,9,8.1c3.8-3.7,7.7-7.3,11.5-11C466.8,386.2,464.1,383.3,461.4,380.5z"/>
						<g>
							<path class="st8" d="M431.7,378.5c1.4-1.3,0.9-4.1,0.7-4c-0.2,0-0.4,0.4-0.4,1.3c0,0.4-0.2,1.2-0.8,1.9
								c-1.1,1.3-2.9,1.2-3,1.1c0.2,0.1,0.4,0.3,0.8,0.4C430,379.5,431.1,379.1,431.7,378.5z"/>
							<path class="st8" d="M434,374.2c1.2-0.7,2.2-4.4,0.4-4.7c-0.8,0.8,1.1,2.7-1.5,4.2c-1.6,0.9-3.5-0.2-4.8-1.2
								c-0.7-0.6-1.5-1.3-2.2-1.9c1.6,3,4.2,4.7,6.4,4.3C432.7,374.9,433.3,374.7,434,374.2z"/>
							<path class="st8" d="M437,369.5c0.6-0.7,0.7-1.5,0.7-1.9c0.1-2.2-1.5-3.8-1.9-4.2c-0.5-0.5-1.3-1-2.3-1.5
								c-0.2-0.1-0.7-0.3-0.7-0.2c-0.1,0.1,1.6,0.9,2.8,2.5c0.3,0.5,1.8,2.5,1,3.9c-0.5,0.9-1.8,1.3-2.6,1.2c-0.3,0-0.9-0.1-1.5-0.5
								c0,0,0,0,0,0c-1-0.8-4.4-3.6-4.5-3.5c-0.1,0.1,1.8,2.7,4.6,4.4c0.5,0.3,1.1,0.7,2.1,0.7C435.1,370.5,436.2,370.4,437,369.5z"
								/>
							<path class="st8" d="M447.7,378.4c-1.4-2.1-3.7-6.4-3.9-12.1c-0.1-2.3,0.2-4.3,0.6-5.9c-0.2-0.1-0.4-0.3-0.6-0.4
								c-0.5,1.7-1.8,6.3,0,11.7C444.7,375,446.5,377.1,447.7,378.4z"/>
						</g>
					</g>
					<path class="st7" d="M445.8,357.6c0,0.2,0.2,1.6-0.8,2.4c-0.3,0.2-0.6,0.4-0.8,0.4c1.9,1.5,3.8,3,5.8,4.5c2,1.5,4.1,3,6.1,4.4
						c-0.1-2.9-1.7-8.8-2.3-10.5c-0.7-2.2-4.1-11.7-3.9-13.9c0-0.1,0-0.8-0.4-1.6c-0.2-0.5-0.7-0.9-1.2-0.9c-0.3,0-0.5,0.1-0.8,0.2
						c-1.3,0.7-2.9,5.3-3,5.7c-0.1,1.1,0,2.4,0.1,3.8C444.9,354.3,445.3,356.2,445.8,357.6z"/>
				</g>
				<g>
					<path class="st9" d="M641.3,443.3c23.1,49.4,28.7,96.1,29.8,144.3c-2.1-3.5-11.3-9.2-28.8-1"/>
					<g>
						<g>
							<path d="M617.3,768.9c2,1.4,3.9,6.3,1.3,9.2c-2.5,2.9-41.5,12.1-51.2,12.6c-5,0.3-10.3-1.2-13.1-4.5
								c-1.5-1.7-0.9-4.4,1.1-5.4c5.6-2.9,17.8-7.4,19.1-7.7C576.3,772.7,617.3,768.9,617.3,768.9z"/>
							<path class="st7" d="M614.9,762.9c2.3,4.6,2,7.6,1.5,9.4c-0.8,2.7-3.4,7.5-46.6,13.4c-3.3,0.5-6.7,0.1-9.8-0.9
								c-1.9-0.6-3.8-1.2-4.6-2.8c-0.5-1.1-0.3-2.2-0.3-2.5c0.3-1.3,1.2-2.4,2.4-3c0.7-0.4,1.3-0.7,2-1.1c0.4-0.2,0.8-0.4,1.1-0.6
								c3-1.8,6-3.5,8.9-5.3c3.3-2,6.5-4.2,9.5-6.7c3.5-2.9,5.8-5,7.3-8.1c2.3-4.8,1.5-9.6,1.2-11.7c-3.9-24.8-6.2-49.7-9.7-74.6
								c-1-6.8-2.1-17-2.7-29.6c10.3,0,20.5,0,30.8,0c1.1,3.3,2.6,8,4,13.8c3.7,15.7,4.2,29.3,4,38.3c-0.4,17-3.6,34.9-4,50
								c-0.1,4.9,0.3,8.2,1.3,12C612.2,757.4,613.8,760.8,614.9,762.9z"/>
							<path d="M582.7,787c-0.8-1.9-4.6-9.7-13-12.5c-2.5-0.9-4.9-1-6.8-1c1.1-1,2.3-2,3.7-3.1c3.1-2.3,6.1-3.7,8.7-4.7
								c2.4,0.5,5.5,1.3,8.7,3.1c7.8,4.3,11.4,11.1,12.7,14.1C592,784.2,587.4,785.6,582.7,787z"/>
						</g>
						<g>
							<path d="M661.9,772.6c2,1.4,3.9,6.3,1.3,9.2c-2.5,2.9-41.5,12.1-51.2,12.6c-5,0.3-10.3-1.2-13.1-4.5
								c-1.5-1.7-0.9-4.4,1.1-5.4c5.6-2.9,17.8-7.4,19.1-7.7C620.8,776.4,661.9,772.6,661.9,772.6z"/>
							<path class="st7" d="M659.5,766.7c2.3,4.6,2,7.6,1.5,9.4c-0.8,2.7-3.4,7.5-46.6,13.4c-3.3,0.5-6.7,0.1-9.8-0.9
								c-1.9-0.6-3.8-1.2-4.6-2.8c-0.5-1.1-0.3-2.2-0.3-2.5c0.3-1.3,1.2-2.4,2.4-3c0.7-0.4,1.3-0.7,2-1.1c0.4-0.2,0.8-0.4,1.1-0.6
								c3-1.8,6-3.5,8.9-5.3c3.3-2,6.5-4.2,9.5-6.7c3.5-2.9,5.8-5,7.3-8.1c2.3-4.8,1.5-9.6,1.2-11.7c-3.9-24.8-6.2-49.7-9.7-74.6
								c-1-6.8-2.1-17-2.7-29.6c10.3,0,20.5,0,30.8,0c1.1,3.3,2.6,8,4,13.8c3.7,15.7,4.2,29.3,4,38.3c-0.4,17-3.6,34.9-4,50
								c-0.1,4.9,0.3,8.2,1.3,12C656.8,761.2,658.4,764.6,659.5,766.7z"/>
							<path d="M627.2,790.7c-0.8-1.9-4.6-9.7-13-12.5c-2.5-0.9-4.9-1-6.8-1c1.1-1,2.3-2,3.7-3.1c3.1-2.3,6.1-3.7,8.7-4.7
								c2.4,0.5,5.5,1.3,8.7,3.1c7.8,4.3,11.4,11.1,12.7,14.1C636.6,788,631.9,789.4,627.2,790.7z"/>
						</g>
						<path class="st10" d="M555.2,538.9c-0.3,28.7,0.5,51.5,1.4,67.3c0,0,0.6,10.6,4.8,38.3c1.1,7.1,2.3,14.6,6.5,23.4
							c2.7,5.7,5.5,11.6,10.8,15.7c13,10.1,32.6,3.2,35.5,2.1c0.2-2.2,0.3-4.5,0.3-6.9c0.2-7,0-13.6-0.5-19.7
							c2.8,9.1,5.5,18.2,8.3,27.3c2,0.9,16.9,7.1,30.7-0.7c5.7-3.2,9.1-7.7,10.9-10.6c3.7-18.4,6.6-40.6,6.8-65.9
							c0.3-38.4-5.9-70.8-12.4-94.9c-14.9-0.1-34.7,1.2-57.1,7C582.5,526.1,567,532.7,555.2,538.9z"/>
						<g>
							<path class="st11" d="M614.2,634.9c7.8,5.9,15.4,11.2,24.1,15.4c2.9,1.4,5.8,2.7,8.9,4.2
								C633.7,655.8,619.5,647.4,614.2,634.9L614.2,634.9z"/>
						</g>
						<g>
							<path class="st11" d="M612.2,641.6c4,5.3,7.6,10.3,12,15c4.3,4.8,9,8.8,13.9,13.3C624.7,667.3,613.6,655.1,612.2,641.6
								L612.2,641.6z"/>
						</g>
						<g>
							<path class="st11" d="M617.7,622.5c6.4,5.3,12.5,10,20,13.3c2.4,1.1,5,2.1,7.7,3.3C633.9,642,620.7,633.9,617.7,622.5
								L617.7,622.5z"/>
						</g>
						<g>
							<path class="st11" d="M601.3,641.3c0.4,11.2-11.7,20.2-22.4,18.5c4.4-2.7,8.5-4.9,12.4-8
								C595.2,648.8,598.2,645.4,601.3,641.3L601.3,641.3z"/>
						</g>
						<g>
							<path class="st11" d="M596.1,632.2c1.2,10.3-9.6,18.9-19.2,19.2C583.6,644.9,590.9,640.1,596.1,632.2L596.1,632.2z"/>
						</g>
						<g>
							<path class="st11" d="M605.8,646.8c2.9,10.1-7,20.6-16.5,22.6C595.1,661.7,601.9,655.7,605.8,646.8L605.8,646.8z"/>
						</g>
						<path class="st12" d="M614.1,537.8c1.3,33.7,2.5,67.4,3.8,101.2c-0.6,1.4-2.8,5.8-7.3,7.4c-5.3,1.9-11.6-1-15.6-7.3
							c-4.6-24.4-8-53.4-7.4-85.6c0.1-8.4,0.5-16.4,1.1-24.1C597,532.2,605.5,535,614.1,537.8z"/>
					</g>
					<g>
						<path class="st13" d="M513.7,407.9c12.1,6.3,24.3,12.6,36.4,18.9c9.8-21.3,19.5-42.6,29.3-63.9c-1.9-3.7-6-10.7-14.1-16.3
							c-5.4-3.7-10.6-5.5-14.1-6.4c-0.3,0.3-0.6,0.6-0.9,1c-0.4,0.5-0.7,1-1,1.5c-5.2,9.9-10.6,19.8-16,29.8
							C526.8,384.6,520.3,396.4,513.7,407.9z"/>
						<path class="st9" d="M516.8,396.4c5.1,2.9,10.5,5.7,16.3,8.5c9.4,4.5,18.4,8.2,26.7,11.2c-3.2,4.8-6.5,9.6-9.7,14.4
							c-7.8-3.2-15.8-6.7-24-10.6c-6.1-2.9-12-5.8-17.6-8.7C511.3,406.3,514,401.3,516.8,396.4z"/>
					</g>
					<path class="st7" d="M569.2,349.8c1.3,18.9,20.8,32.1,39,30.8c18.6-1.4,36-18.1,34.1-36.1c-1.8-16.9-19.5-25.4-20.8-26
						c-3.3-1.6-13.5-6.2-25.4-3.1C581.4,319.1,568.1,333.4,569.2,349.8z"/>
					<path class="st14" d="M633.3,526.6c-4.1,3.6-7.5,10.2-8.4,14c-0.9,3.8-0.1,14.7-3.9,17.9c0.4,0.7,6.2,5.2,10.1-4.9"/>
					<path class="st13" d="M658.5,490.5c2.9,15.2,5.6,31.4,7.9,48.4c2.2,17,3.8,33.3,4.9,48.7c0.5,0,1.5,0.1,2.7-0.5
						c1.3-0.6,2-1.6,2.2-2c-6.1-39.2-12.2-78.3-18.4-117.5"/>
					<path class="st13" d="M551.8,589.3c12.1,3.8,31.6,8.2,48.5,9.1c27.7,1.4,50.2-4.6,64.3-9.8c-1.7-16.6-2.8-30.2-3.4-39.4
						c-6.7-96.1,1.5-157,2.1-160.5c0.1-0.4,0.7-3.5,1-7.7c0.1-1.4,0.2-2.8,0.2-4.2c0.7-14,3-27.9,3-35c-0.2-1.4-1.2-7.7-2.5-9.8
						c-2.4-4-8.5-6.4-29.6-11.4c-3.4-0.8-8.1-1.9-13.7-2.9c-1-0.4-2-0.8-3.1-1.3c-1.6-0.8-3-1.6-4.3-2.3c-0.1,1.1-0.3,2.7-0.8,4.5
						c0,0-1.3,5.2-4.7,10c-5.9,8.4-16.3,12-18,12.6c-1.2,4-2.3,8.6-3.1,13.6c-0.5,2.8-0.8,5.5-1,8.1c-0.9-6.7-1.7-13.5-2.6-20.3
						c-1.3-1.1-2.9-2.8-4.1-5.3c-3.2-6.7-0.2-13.2,0.3-14.6c-6.3,4.5-12,7.5-15.8,9.5c-5.6,3-10.6,5.3-13.4,8
						c-1.3,1.3-2.1,2.6-2.2,4.2c-0.1,0.8,0.1,1.5,0.2,1.9c3,28.2,5.2,51.8,6.7,69.1c3.2,35.9,3.5,41.9,3,47.8
						c-2.3,26.6-4,39.4-5.6,58.6c-1.1,12.3-1.6,18.5-1.9,26.2c-0.1,1.3-0.1,2.6-0.2,3.9C550.8,566.3,551.1,578.9,551.8,589.3z"/>
					<g>
						<path class="st9" d="M584.3,342.5c4.2,19.3,5.6,39.3,4.5,59c0,0,0,0.5,0,0.5c0,0-0.5,0-0.5,0c-2.9-0.2-5.9-0.4-8.8-0.7
							c2.9-0.2,5.9-0.2,8.8-0.4l-0.5,0.5C587.3,382.1,585.9,361.9,584.3,342.5L584.3,342.5z"/>
					</g>
					<path class="st9" d="M582.6,391.5c-0.2,0.5-0.2,1.1,0,1.6c0.4,0.7,1.2,1.1,1.9,0.8c0.5-0.2,0.9-0.8,0.9-1.5
						c0-0.8-0.6-1.5-1.2-1.7C583.6,390.6,582.9,390.8,582.6,391.5z"/>
					<path class="st9" d="M581.7,376.3c-0.2,0.5-0.2,1.1,0,1.6c0.4,0.7,1.2,1.1,1.9,0.8c0.5-0.2,0.9-0.8,0.9-1.5
						c0-0.8-0.6-1.5-1.2-1.7C582.7,375.4,582,375.6,581.7,376.3z"/>
					<path class="st9" d="M581.1,360.5c-0.2,0.5-0.2,1.1,0,1.6c0.4,0.7,1.2,1.1,1.9,0.8c0.5-0.2,0.9-0.8,0.9-1.5
						c0-0.8-0.6-1.5-1.2-1.7C582.1,359.6,581.4,359.9,581.1,360.5z"/>
					<path class="st15" d="M561.1,336.3c0.4-5.7,4.5-6.3,5.8-5.8c1.2-2.8,3.3-4,5.7-3c0.4-2,4.1-3.4,5.1-2.6
						c0,9.3,3.3,98.6,13.5,131.4c0.6,3-17.1,12.7-23.8,7.2C566.6,459.2,556.8,362,561.1,336.3z"/>
					<path class="st7" d="M665.6,514.6c-0.8,3.1-1.7,6.3-2.5,9.4c0.6,2.5,1.3,6.1,1.3,10.5c0,2.5,0.4,5.7-1.2,9.2
						c-2.6,5.6-3.4,9.3-7.3,11.2c-0.5,0.7-1.5,1.7-2.9,2.5c-1.9,1.1-3.7,1.3-4.6,1.4c-7.5,1.5-9.6,1-10,0c-0.3-0.7,0.4-2.1,1.1-2.9
						c0.8-0.8,1.6-0.9,2.4-1.2c2.1-0.8,3.3-2.6,4.1-3.7c2.2-3.2,1.9-6.8,1.7-8c-0.1-0.7-0.6-5-1.9-5.2c-0.3,0-0.8,0.1-1.6,1.4
						c-0.3,1.5-0.7,3.3-1.6,5.3c-0.6,1.3-1.2,2.4-1.8,3.4c-0.3,0.3-3.9,3.5-5.4,3.5c-0.3,0-0.6,0-0.8-0.2c-0.5-0.2-0.7-0.8-0.7-1.4
						c0-0.8,0.4-1.4,0.4-1.5c1.2-1.8,2.8-11.8,3.3-14.1c0.8-3.7,3-9.1,9.4-16c0-3.3,0.1-6.6,0.1-9.9
						C653.3,510.4,659.4,512.5,665.6,514.6z"/>
					<path class="st7" d="M636.6,358.4c-3.7,20.7,4.4,50.6,5.5,54.5c2.2,7.6,5.5,18.3,10.7,30.8c-0.7,10.5-1.3,21.3-1.8,32.3
						c-0.6,14.4-0.8,28.4-0.9,42c2.7,1,5.5,2,8.2,3c2.6,0.9,5.2,1.9,7.8,2.8c3.5-11.9,7.9-28.6,11.6-48.9c2.7-14.8,4.3-22.9,5-34.3
						c0.7-10.9-5.9-30.8-8.3-71.5c0,0-3.1-23.2-14.6-31.8c-2.3-1.7-4.6-1.8-4.6-1.8c-1.7,0-3.4,0.7-5.2,2.1
						C647.6,339.5,639.2,343.7,636.6,358.4z"/>
					<path class="st13" d="M686.5,426.3c-5.3,2.1-11.6,4.1-18.7,5.7c-10,2.2-19,3-26.4,3.1c-4.9-17.3-8.3-32.1-10.7-43.6
						c-4-19.2-4.7-27-2.8-36.4c0.8-3.9,5.2-24.3,16.4-26.7c4.1-0.9,10.5,0.5,13.4,1.1c3.6,0.8,5,0.9,7,1.7
						c2.8,4.3,5.1,10.9,7.3,18.7c4.1,14.5,5.3,23.8,9.8,49.8C682.8,405.6,684.4,414.9,686.5,426.3z"/>
					<path class="st9" d="M686,413.7c-6.7,1.5-13.8,2.9-21.2,4.2c-9.4,1.6-18.4,2.8-27,3.7c1.4,5.4,2.7,10.8,4.1,16.2
						c6.6,0.4,15.4,0.3,25.4-1.6c8.9-1.7,16.3-4.3,21.9-6.8C688.1,424.2,687,418.9,686,413.7z"/>
					<path class="st9" d="M584.3,342.5c-1.2-1.2-3.6-3.9-4.8-8c-1.6-5.7,0.5-10.3,1.1-11.9c-0.8,0.6-2,1.1-2.8,1.6
						c-1.1,0.4-1.3,4.2-1.5,5.5c-0.6,3.9,0.1,5,1.1,15c0.3,3,0.5,5.2,1.1,5.3c0.4,0.1,0.6-1.4,2.3-3.4c0.6-0.8,0.9-1.1,1.4-1.5
						c0.8-0.7,1.6-1,1.9-1.9C584.2,343,584.3,342.7,584.3,342.5z"/>
					<g>
						<path class="st7" d="M579.7,329.6c10.9,8.5,38-12.3,37-13c-6.8-4.4-6.6-16-5.5-26c0.4-3.9,1-7.6,1.4-10.5
							c-6.7-2.1-24.5-1.2-31.4,11.7c-2.6,4.9-3.7,11.5-2.1,20.3c0.8,1.5,1.2,3.1,1.5,4.6c0,0,0,0.1,0,0.1
							C581.5,322.9,578.9,328.2,579.7,329.6z"/>
						<path class="st16" d="M579.1,312.1c0.8,1.5,1.2,3.1,1.5,4.6c0,0,0,0.1,0,0.1c1.2-0.3,2.7-0.8,4.5-1.5c1.4-0.5,3.6-1.3,6.1-2.7
							c3.3-1.8,6.1-3.3,8.2-6.4c1-1.4,1.4-2.6,2.1-4.7c0.8-2.4,1.8-6,2.1-10.6c-6.9-4.6-15.4-4.7-20.7-0.5c-0.6,0.5-1.1,1-1.6,1.5
							C578.6,296.7,577.5,303.3,579.1,312.1z"/>
						<path class="st7" d="M559.2,272.7c0,0.1,0,0.3,0,0.4c0.1,0.7,0.3,1.4,0.7,2.1c0,0,0.3,0.5,1.1,2.5c0.5,1.1,0.9,6.4,1,13.9
							c0,1.3,0.2,3.1,0.7,5.6c0.6,2.9,1.6,7.7,5.1,12.4c0.8,1.1,2.1,2.6,3.9,4.2c0.7,0.6,1.6,0.9,2.6,0.8c0.9-0.1,1.8-0.2,2.9-0.4
							c0.2,0,0.5-0.1,1-0.3c2.8-0.6,6-1.4,9.5-2.7c2.1-0.8,4.7-1.6,6.5-2.5c4-1.9,6.8-5.7,7.7-10c0.7-2.7,0.8-5.3,1.5-8
							c0.2-1.7,0.5-3.3,0.7-5c0.1-0.1,0.1-0.2,0.1-0.2c0.4-0.2,0.5-0.1,1-0.2c5-0.8,8.3-7.3,9.1-9.1c3.7-7.5,5-23-5-31.8
							c-6.5-5.7-14.3-5.6-18.6-5.8c-6.2-0.2-32.4,3.7-31.2,25.9c0.1,1.8,0.1,3.6-0.2,5.3c0,0.2-0.1,0.5-0.1,0.7c0,0.1,0,0.2,0,0.4
							C559.1,271.6,559.1,272.1,559.2,272.7z"/>
						<path d="M605.5,274.8c-1.8,1.3-0.9,3.3-1,3.8c-0.5,0.5-2.3,1-2.8,1.5c0-1.6-0.1-3.2-0.1-4.8c-0.2-2-0.9-3.3-1.4-4.1
							c-0.8-1-1.4-1.3-3-2.8c0,0-1.3-1.2-2.5-2.7c-3.1-4-4.4-8.2-4.8-9.7c-0.3-0.9-0.4-1.7-0.5-2.2c-1.1,0-2.8,0-4.9,0.2
							c-3,0.3-5.2,0.7-6,0.9c-8.3,1.7-13.4-1.8-16.8,1c-1.3,1.1-2.7,3.3-2.3,8.7c-3.2-7.9-1.9-13.1-1.1-15.4
							c4.8-14.2,28.2-20.6,42.7-13.1c4.1,2.1,6.7,5,8.2,6.9c4.1,1,6.3,2.8,7.5,3.9c5.7,5.6,5.2,15.2,4.8,23.7
							c-0.1,1.4-0.3,2.6-0.3,2.6c-0.4,2.6-1.1,4.4-1.2,4.9c-1.6,4.5-4,17.6-5.8,22c-0.2,0.5-0.7,1.5-1.7,2c-0.7,0.4-1.4,0.4-1.9,0.3
							c-0.7-6.8-0.3-11.5,0.2-14.7c0,0,0-0.1,0-0.1c0.1-1,0.6-4.2,0.9-7.1c0.3-3.7,0.5-5.6-0.2-6.3
							C610.4,273,607.4,273.4,605.5,274.8z"/>
						<path id="XMLID_00000115492734274067191560000010110026376636275891_" class="st15" d="M623.8,261.9
							c-37.1-18.5-57.7-16.4-64.7-15.8c-1.2,0.3-3,2.4-2.7,6.1c-1.6,2.1-2.2,5.3-0.4,6.7c0,0,0,0.1-0.1,0.2
							c-0.2,0.9,0.6,1.7,1.6,1.8c7.7,0.7,26.2-5,61.2,14.6c0.8,0.6,1.9,0.5,2.5-0.2c0.6-0.7,1.2-1.9,1.2-3.7
							c2.1-1.1,2.2-4.8,1.6-5.8C624.3,263.9,624.5,262.2,623.8,261.9z"/>
						<path class="st7" d="M604.4,275.4c0.5-5.9,3.2-7.2,3.2-7.2c2-0.9,4.8,0,6.2,1.9c1.1,1.5,1,3.2,1,4.3c-0.1,2.2-1,3.8-2.3,6
							c-0.9,1.6-1.4,2.4-2.3,3.2c-1.8,1.5-3.9,1.8-4.9,1.9c-0.2-0.1-0.4-0.2-0.6-0.5c-1.1-1.1-0.6-3-0.4-8.3
							C604.2,276.6,604.3,276.1,604.4,275.4z"/>
					</g>
					<path class="st8" d="M567.5,302.2c-0.1-1.3,2.2-2.6,4-3c3.1-0.6,6.8,1,6.8,2.6c0,1.4-3.1,3-5.9,2.9
						C570.3,304.6,567.6,303.6,567.5,302.2z"/>
					<g>
						<path class="st10" d="M568.8,279.2c-1.8-3-4.7-3.8-6-2.9c-0.9,0.6-1.2,2.2-0.9,3.8C563.4,283.3,566.5,282.7,568.8,279.2z"/>
						
							<ellipse transform="matrix(0.9615 -0.2747 0.2747 0.9615 -54.9997 165.8002)" class="st17" cx="564.4" cy="279.3" rx="1.9" ry="2.9"/>
						<ellipse transform="matrix(0.9615 -0.2747 0.2747 0.9615 -55.0462 165.6904)" cx="564" cy="279.4" rx="1" ry="1.5"/>
						
							<ellipse transform="matrix(0.9615 -0.2747 0.2747 0.9615 -54.7323 165.7957)" class="st10" cx="564.5" cy="278.3" rx="0.3" ry="0.4"/>
						<path class="st18" d="M561.8,280.1c-0.2-1.4,0.2-2.8,1.2-3.4c1.5-1,3.4,0.3,3.9,0.6c1,0.6,1.5,1.4,1.8,1.9
							c-0.2-0.5-0.8-1.6-1.9-2.4c-0.2-0.2-2.8-1.9-4.4-0.7C561.5,276.9,561.2,278.5,561.8,280.1z"/>
					</g>
					<path class="st8" d="M568,294.2c-0.1,0.2,1,1.5,2.5,1.8c2.5,0.5,4.7-2,4.6-2.2c-0.1-0.2-1.7,1.2-4.2,1.1
						C569.2,294.7,568.1,294,568,294.2z"/>
					<g>
						<path d="M588.5,270.3c-0.9-0.7-2.2-1.5-3.8-2c0,0,0,0,0,0c-0.9-0.3-1.9-0.3-2.9,0c-2.3,0.7-4.5,1.4-6.8,2.1
							c-0.1,0.2-0.3,0.7-0.3,1.2c0,0.5,0.1,0.8,0.2,1c2.6-0.8,5.3-1.7,7.9-2.5c0.6-0.2,1.2-0.3,1.8-0.2
							C586,270,587.2,270.1,588.5,270.3z"/>
					</g>
					<g>
						<path d="M559.1,271.4c0.3,0,0.4,0.1,0.7,0.1l7.6,2.1c0.1-0.2,0.2-0.6,0.1-1c0-0.6-0.2-1-0.3-1.2c-2.2-0.6-4.4-1.2-6.5-1.8
							c-0.4-0.1-1-0.2-1.4-0.2c-0.1,0.3-0.1,0.6-0.1,1C559.2,270.7,559.2,271.1,559.1,271.4z"/>
					</g>
					<g>
						<path class="st10" d="M576.3,278.8c0.3,0.2,0.8,0.6,1.4,0.8c1.4,0.6,2.7,0.4,3.4,0.3c2.5-0.4,4.2-1.9,4.8-2.6
							c-0.4-0.6-1.8-2.6-4.3-3.1c-0.7-0.1-2-0.4-3.3,0.3C576.3,275.8,576.3,278.7,576.3,278.8z"/>
						<g>
							<path class="st17" d="M578.1,277.7c0.3,1.4,1.6,2.4,2.8,2.1c1.2-0.3,1.9-1.7,1.5-3.1c-0.3-1.4-1.6-2.4-2.8-2.1
								C578.4,274.9,577.7,276.3,578.1,277.7z"/>
							<path d="M578.7,277.6c0.2,0.7,0.8,1.2,1.4,1c0.6-0.1,0.9-0.8,0.8-1.6c-0.2-0.7-0.8-1.2-1.4-1
								C578.9,276.2,578.5,276.9,578.7,277.6z"/>
							<path class="st10" d="M580,276.4c0,0.2,0.2,0.4,0.4,0.4c0.2,0,0.3-0.3,0.3-0.5c0-0.2-0.2-0.4-0.4-0.4
								C580,275.9,579.9,276.1,580,276.4z"/>
							<path d="M576.3,278.8c0.1-0.4,0.5-2.7,2.4-3.7c2.1-1.2,5.3-0.4,7.3,2.3C585.7,275.6,577.5,268.5,576.3,278.8z"/>
						</g>
					</g>
					<g>
						<path d="M606.7,288.2c0.8-0.1,1-1.6,0.9-3l-0.5,0.1c0.1,1.5-0.2,2.3-0.4,2.3c-0.2,0-0.6-0.8-0.8-2.3c-0.1-1.5,0.3-2.4,0.4-2.4
							c0.1-0.2,0.1-0.3,0-0.5c-0.8,0.1-1,1.6-0.9,2.9C605.5,286.8,605.9,288.3,606.7,288.2z"/>
					</g>
					<path class="st9" d="M615.3,313.8c-0.6-0.3-1.4,0-1.5,0.7c-1,4.7-4,15.2-13.6,22.1c-3.3,2.3-6.5,3.7-9.3,4.5
						c1.6,3.9,2.6,7.2,3.3,9.6c0.5,1.7,0.7,2.8,1.5,3.1c1.8,0.7,4.6-2.8,7.2-6c3.1-3.9,7.2-9.1,12-15.4c1.3-2.1,2.7-4.5,4-7.1
						c1.3-2.7,2.4-5.2,3.3-7.5c-1.5-0.8-2.9-1.6-4.4-2.4C617,314.7,616.2,314.3,615.3,313.8z"/>
					<g>
						<path d="M590.1,336.7c5.9-0.2,10.3-4.6,13.9-8.4c2.8-3,6.7-7.6,9.9-14.3c-0.1-0.2-0.2-0.3-0.3-0.5c-0.2-0.3-0.4-0.5-0.6-0.7
							c-3.8,8.3-8.9,13.6-12.2,16.6c-4.4,4.1-9.1,7.2-13.5,5.7c-3.9-1.3-6.4-6.3-6.8-12.3c-0.1,0.2-0.3,0.5-0.4,0.9
							c-0.1,0.3-0.2,0.6-0.3,0.9c0.1,1,1.2,9.7,7,11.8C588.2,336.7,589.3,336.7,590.1,336.7z"/>
					</g>
				</g>
			</g>
			<g>
				<g>
					<g transform="matrix( 1, 0, 0, 1, 0,0) ">
						<g>
							<g id="Layer2_20_FILL_00000172435353776458622250000008726709782619287966_">
								<path class="st19" d="M260.6,361.1l0.4-0.3l0.4-0.2c7.9,0.6,14.9,5.6,21,14.8l-1-1.1c4.1,5.2,11.5,13.3,22.2,24.5
									c9.8,10.2,18.8,20.3,26.9,30.2c1.2,1.5,1.4,3.6,0.4,5.2l-0.3,0.5c0,0,0,0,0,0.1c-0.1,0.7-0.2,1.5-0.3,2.2
									c-0.6,2.8-1.6,5.2-3,7.2c-1,1.4-2,2.9-3.9,4.2c0,0,0,0,0,0c-1.8,1.2-4.1,0.9-5.6-0.6c-15.7-15.2-31.5-30.5-47.2-45.7
									c-0.5-0.5-1.1-0.8-1.8-1.1c-3-1-5.7-1-8.1,0.1c0,0-0.1,0-0.1,0c0,0,0-0.1,0-0.1c0-0.1,0-0.1,0-0.1l0,0
									c-1.6-5.1-2.6-10.1-2.9-15C256.8,377.1,257.9,368.9,260.6,361.1z"/>
							</g>
						</g>
					</g>
					<g transform="matrix( 1, 0, 0, 1, 0,0) ">
						<g>
							<g id="Layer2_21_FILL_00000033337238646774192100000001144485861131230612_">
								<path class="st20" d="M357.8,391.6l0.2,0.1l0.1,0L357.8,391.6L357.8,391.6 M363.7,374.9l-1,3.1c0.9,0.2,1.8,0.2,2.9,0
									l1.8-2.3l-2.4-0.7L363.7,374.9 M373.4,376.7c-1.4,2.7-3.1,4.5-4.9,5.7c0.2,0,0.4,0,0.5-0.1c0,0,0.1,0,0.2-0.1l2.3,0.4
									l0.7-0.4l0.2,0c1.3,0.4,2.5-0.4,3.7-2.4l0-0.2L373.4,376.7c0.1-0.1,0.1-0.1,0.1-0.1L373.4,376.7l0.1-0.1L373.4,376.7
									 M370.2,373.3l0.3,0.1l-0.3-0.3L370.2,373.3 M373.1,376.1l-0.1-0.1l-1.6-1.7c0,0.5-0.2,0.9-0.8,1.2
									c-0.4,0.3-0.9,0.5-1.4,0.5l-0.8-0.1c-0.5,1.1-1.5,3.1-2.9,5.9c0.6,0.7,1.3,1,2.2,0.8c2.1-1.3,3.9-3.4,5.4-6.3L373.1,376.1
									 M365.2,370.9l-0.1,0.2l1.2,0.6l0,0c0,0,0.1,0.1,0.1,0.1l3.3,1.3l-4.4-2.4C365.3,370.8,365.3,370.9,365.2,370.9L365.2,370.9
									z"/>
								<path class="st19" d="M372.9,347.2c0.1-0.2,0.2-0.6,0-1c0,0-0.2-0.3-0.7-0.4c-1.5-0.3-6.1,6.6-7.2,8.2
									c-1.2,1.7-2.9,4.2-5,7.1c0,0-5.3,8-6.5,13c-0.7,3.1-1.1,5-1.2,5.5c-0.1,0.5-0.2,1.1-0.4,1.8c-0.1,0.6-0.2,1.2-0.3,1.7l0,0
									c0,0,0,0.1,0,0.2c0,0-0.1,0.3-0.3,0.8c-0.1,0.3-0.3,0.6-0.4,0.9l-0.1,0.5l6,7.9l1.5-1.6c0,0,0.1-0.1,0.1-0.1l0,0l0-0.1
									c1.5-1.2,2.8-1.8,3.9-2.1c1-0.3,1.8-0.6,2.4-0.9c1.3-0.6,3.4-1.5,4.9-3.6c0.3-0.4,0.5-0.7,0.6-0.9c0.1-0.2,0.1-0.3,0.2-0.4
									c0.1-0.1,0.4-0.4,1.1-0.8l-2.4-0.3c-0.4,0.1-0.7,0.2-1.1,0.4l-0.1,0c-1.1,0-2.1-0.3-2.9-1.1l1.9-5.1l-0.9,1.2
									c-0.1,0.1-0.1,0.1-0.2,0.1c-1.1,0.6-2.3,0.5-3.4,0l0-0.1c0,0,0-0.1,0-0.2l1-2.9c-1.4-0.4-2.6-0.2-3.5,0.7
									c0.6,1.7,0.8,3.6,0.5,5.7c-0.5,1.9-1.5,3.3-2.8,4.1c0,0.1,0,0.2-0.1,0.2c0,0,0-0.1-0.1-0.1l0-0.1c0,0,0,0-0.1-0.1
									c1.3-1,2.1-2.4,2.5-4.1c0.4-2,0.3-3.9-0.5-5.7c0,0,0-0.1-0.1-0.1l0.1-0.2c0.1,0,0.2,0,0.3,0c1.2-1,2.6-1.3,4.2-1l1.8,0.1
									l0.5,0.2l2.6,0.9c0.5,0.2,1,0.2,1.4-0.2c0.7-0.3,1-0.8,1-1.4l-4.3-1.7l-0.9-0.2l-6.1-2.8c-2.9,0.3-4.1,1.1-3.7,2.2l-0.1,0
									c-0.1,0-0.1,0-0.1-0.1c0,0,0-0.1,0-0.2c0-0.1,0-0.1,0.1-0.2c0.1-1.3,1.4-1.9,3.8-2c0.1-0.1,0.1-0.1,0.2,0l0,0l5,2.2l0-0.2
									c0.5-1.4,0.4-3-0.3-4.9c0.1-1.8,0.5-3.2,0.8-4c1.5-4.6,4.3-6.1,6.5-11.1C372.4,349.1,372.7,347.9,372.9,347.2z M357.8,391.6
									l0.3,0.1l-0.1,0L357.8,391.6L357.8,391.6 M373.5,376.6l2.6,2.9c1.6-2.1,2-4.3,1.4-6.7c-0.3-0.6-0.6-1.1-1.1-1.5
									c-0.4-0.5-0.8-0.8-1.2-1c0.1,2.6-0.5,4.6-1.7,6.2L373.5,376.6L373.5,376.6C373.5,376.6,373.5,376.6,373.5,376.6
									 M371.6,367.6c-0.1,0-0.1,0.1-0.1,0.1c0,1.9-0.4,3.7-1.2,5.4l0.3,0.3l1,0.3l-0.1,0.6l1.6,1.7l0.1,0.1c1.2-2.2,1.8-4,1.8-5.2
									c0-1.2,0.1-1.9,0.1-2.1c-0.1-0.2-0.2-0.5-0.4-0.8c-0.3-0.4-0.7-0.5-0.9-0.6c-0.2-0.1-1-0.4-1.8-0.1
									C371.8,367.4,371.7,367.5,371.6,367.6z M369,363.8c-0.8-0.4-2-0.4-2.8,0.2c-0.4,0.3-0.6,0.8-0.8,1c0.2,1,0.3,1.9,0.3,3
									c0,0.2,0.1,0.4,0,0.6c-0.1,0.7-0.2,1.3-0.4,2l4.4,2.4c0.8-1.9,1.1-3.8,1.1-5.6c0-0.1,0-0.1,0-0.2c0-0.3,0.1-1-0.2-1.7
									C370.5,365.3,370.1,364.3,369,363.8z"/>
								<path class="st21" d="M372,382.7c0.1-0.1,0.3-0.1,0.4-0.2c0.1-0.1,0.2-0.1,0.3-0.2c-0.1,0-0.3,0-0.4-0.1l-0.2,0l-0.7,0.4
									l-2.3-0.4c-0.1,0-0.2,0-0.2,0.1c-0.1,0.1-0.3,0.1-0.5,0.1c1.9-1.1,3.5-3,4.9-5.7l0.1-0.1c1.2-1.5,1.7-3.6,1.7-6.2
									c0,0,0,0,0.1,0c0-0.1,0-0.1,0-0.2c0-0.1-0.1-0.2-0.1-0.4c0-0.2-0.1-0.3-0.1-0.5c0,0.4,0,0.9-0.1,1.6c0,1.2-0.6,3-1.8,5.2
									l0,0.1c-1.4,3-3.2,5.1-5.4,6.3c-0.9,0.1-1.7-0.1-2.2-0.8c1.4-2.8,2.4-4.7,2.9-5.9l0.8,0.1c0.5,0,1-0.1,1.4-0.5
									c0.6-0.4,0.8-0.8,0.8-1.2l0.1-0.6l-1-0.3l-0.3-0.1l0.1-0.2c0.3-0.7,0.6-1.5,0.8-2.6c0.2-1.1,0.3-2.1,0.3-2.8
									c-0.1-0.1-0.2-0.2-0.3-0.2c-0.1-0.1-0.2-0.1-0.3-0.1c0,0.8,0,1.9-0.2,3.1c-0.2,1.1-0.5,2-0.8,2.7l-3.3-1.3l-0.1-0.1l0,0
									l-1.2-0.6l0.1-0.2l0.1,0c0,0,0-0.1,0-0.2c0.2-0.7,0.3-1.3,0.4-2c0-0.2,0-0.4,0-0.6c0-1-0.1-2-0.3-3l0-0.1
									c-0.1,0-0.1-0.1-0.2-0.1c-0.2-0.2-0.3-0.3-0.4-0.6c-0.1-0.2-0.1-0.4-0.2-0.6c-0.3,1.2-0.4,1.9-0.2,2.1
									c0.7,1.9,0.8,3.6,0.3,4.9l0,0.2l-5-2.2l0,0c0,0-0.1,0-0.2,0c-2.4,0.1-3.6,0.8-3.8,2c-0.1,0.1-0.1,0.1-0.1,0.2
									c0,0.1,0,0.2,0,0.2c0,0,0,0.1,0.1,0.1l0.1,0c-0.5-1.1,0.7-1.9,3.7-2.2l6.1,2.8l0.9,0.2l4.3,1.7c0,0.6-0.3,1.1-1,1.4
									c-0.4,0.4-0.9,0.5-1.4,0.2l-2.6-0.9l-0.5-0.2l-1.8-0.1c-1.6-0.3-3,0-4.2,1c-0.1,0-0.2,0-0.3,0l-0.1,0.2c0,0,0,0.1,0.1,0.1
									c0.8,1.8,0.9,3.7,0.5,5.7c-0.4,1.8-1.3,3.1-2.5,4.1c0.1,0,0.1,0.1,0.1,0.1l0,0.1c0.1,0,0.1,0.1,0.1,0.1c0.1,0,0.1,0,0.1-0.2
									c1.3-0.9,2.3-2.2,2.8-4.1c0.3-2.1,0.2-4-0.5-5.7c0.9-0.9,2.1-1.1,3.5-0.7l-1,2.9c0,0.1,0,0.1,0,0.2l0,0.1
									c1.1,0.6,2.3,0.6,3.4,0c0.1,0,0.1-0.1,0.2-0.1l0.9-1.2l-1.9,5.1c0.8,0.7,1.7,1.1,2.9,1.1l0.1,0c0.4-0.2,0.7-0.3,1.1-0.4
									l2.3,0.3C371.5,382.9,371.8,382.8,372,382.7z M365.6,377.9c-1.1,0.3-2,0.3-2.9,0l1-3.1l1.3,0l2.4,0.7L365.6,377.9z"/>
							</g>
						</g>
					</g>
					<g transform="matrix( 1.8397216796875, -0.870635986328125, 0.870635986328125, 1.8397216796875, 534.85,394.8) ">
						<g>
							<g id="Layer2_22_FILL_00000137844282423821196050000007573005924732068795_">
								<path class="st22" d="M-68.5-45.3c-0.5-0.3-0.4-0.6,0.2-0.8c1,0.5,1.5,0.9,1.6,1c0,0.1-0.2,0.2-0.6,0.2L-68.5-45.3z"/>
							</g>
						</g>
					</g>
					<g transform="matrix( -1.5334320068359375, -1.398284912109375, 2.7427978515625, -3.00787353515625, 478.55,265.35) ">
						<g>
							<g id="Layer2_23_FILL_00000138553059634693093570000010875453288034988443_">
								<path class="st23" d="M1.3-38.3c0-0.1,0.1-0.2,0.4-0.2c0.3,0,0.6,0.2,1,0.7c-0.2,0.3-0.5,0.4-0.8,0.2L1.3-38.3z"/>
							</g>
						</g>
					</g>
					<g transform="matrix( -1.8056640625, -0.583587646484375, 1.0816497802734375, -3.3465576171875, 428.5,301) ">
						<g>
							<g id="Layer2_24_FILL_00000172435470536537178450000001172049401776954522_">
								<path class="st23" d="M14.6-25.8c0.1-0.1,0.3-0.1,0.5,0c0.2,0.1,0.1,0.4-0.4,0.9c-0.6,0.1-0.8,0.1-0.8-0.2L14.6-25.8z"/>
							</g>
						</g>
					</g>
					<g transform="matrix( -1.5334320068359375, -1.398284912109375, 2.7427978515625, -3.00787353515625, 483.1,256.5) ">
						<g>
							<g id="Layer2_25_FILL_00000016052515484132759410000001804204369321590703_">
								<path class="st23" d="M2.4-40.9c0-0.1,0.1-0.2,0.4-0.2c0.3,0,0.6,0.2,1,0.7c-0.2,0.3-0.5,0.4-0.8,0.2L2.4-40.9z"/>
							</g>
						</g>
					</g>
					<g transform="matrix( 1, 0, 0, 1, 0,0) ">
						<g>
							<g id="Layer2_31_FILL_00000176016631556789779280000014151457664956829589_">
								<path class="st24" d="M260.6,361.1l0.4-0.3l0.4-0.2c7.9,0.6,14.9,5.6,21,14.8l-1-1.1c4.1,5.2,11.5,13.3,22.2,24.5
									c1.5,1.5,2.9,3.1,4.4,4.6l-15.4,20l-22.7-22.1c-2-0.8-3.9-1.2-5.6-1.1c-0.7,0-1.4,0.1-2,0.3c-0.5,0.1-1,0.3-1.5,0.5
									c0,0-0.1,0-0.1,0c0,0,0-0.1,0-0.1c0-0.1,0-0.1,0-0.1l0,0c-0.7-2.2-1.2-4.4-1.7-6.5c-0.8-2.8-1.2-5.3-1.2-7.6
									c0-0.3-0.1-0.6-0.1-0.9C256.8,377.1,257.9,368.9,260.6,361.1z"/>
							</g>
						</g>
					</g>
					<g transform="matrix( 1, 0, 0, 1, 0,0) ">
						<g>
							<g id="Layer2_32_FILL_00000137110478223613424130000009501297343652338327_">
								<path class="st19" d="M316.5,444.8l-8.9-12.9c6.6-7.1,11.9-12.8,15.9-17.1c4.7-5,9.5-9.8,14.2-14.1c4.7-4.4,8.2-8.4,10.6-12
									c2.3-3.6,3.5-5.4,3.6-5.4c0,0,0.1,0,0.1,0.1l0,0.1c3.6-2.1,6.9-0.7,9.8,4.1c-3.4,7.3-5,10.7-5,10.2
									c-13,25.3-23.2,41.4-30.6,48.2C323.2,448.5,318.7,448,316.5,444.8z"/>
							</g>
						</g>
					</g>
				</g>
				<g>
					<g>
						<g transform="matrix( 0.351959228515625, 0, 0, 0.351959228515625, 4965.5,580.6) ">
							<g transform="matrix( 1, 0, 0, 1, 0,0) ">
								<g>
									<g id="Seragu_0_Layer0_0_FILL_00000091734436999988798840000017308676442826733238_">
										<path class="st25" d="M-13575.8,72.4l-4.9,52.3c-43.8,2.4-86.5-3.9-128.2-19l10.7-62.9
											C-13657.8,56-13617,65.9-13575.8,72.4z"/>
										<path class="st26" d="M-13573.8-635.9c18.8-2.1,39-2.6,60.5-1.6l-62.5,709.9c-41.2-6.5-82-16.3-122.4-29.6L-13573.8-635.9
											z"/>
										<path class="st25" d="M-13576.6-635.5l2.8-0.4l0,0.1l-124.3,678.7l-10.7,62.9c-10,0.3-18.2-5.9-24.6-18.6l136.5-719.5
											L-13576.6-635.5z"/>
										<path class="st27" d="M-13583.4-630.9c6.6-1.3,13.3-2.3,20.3-3.2L-13583.4-630.9z"/>
									</g>
								</g>
							</g>
						</g>
						<g transform="matrix( 1.31781005859375, 0, 0, 1.31781005859375, 4933.85,1176.35) ">
							<g transform="matrix( 1.0998382568359375, 0.017730712890625, -0.017730712890625, 1.0998382568359375, -2.05,-472) ">
								<g transform="matrix( 1, 0, 0, 1, 0,0) ">
									<g>
										<g id="Hair_1c2h_hair_ul_0_Layer0_0_MEMBER_0_FILL_00000056390299904916080430000015613820848971745970_">
											<path d="M-3231-133.7c0.1,0.1,0.3,0.3,0.5,0.4c0.5,0.6,1,1.2,1.5,1.8c2.8,3.6,4.8,7.6,5.9,11.9c1.1,4.3,1.5,8.7,1,13.3
												c-0.5,4.6-1.5,8.6-3,12.2c-1.5,3.5-3.5,5.9-5.9,7.2c-2.4,1.3-4.9,2.1-7.3,2.4c-2.3,0.3-4.6-0.2-7.1-1.4
												c-2.1-1-4.1-2.4-6.2-4.2c-2.8-2.6-5.1-5.5-7.1-8.7c-0.4-0.7-0.8-1.4-1.2-2.1c-1.2-2.3-2.3-4.7-3.1-7.3
												c-0.2-0.7-0.4-1.4-0.6-2.1c0-0.1-0.1-0.2-0.1-0.3c-1.3-5.1-1.3-10-0.2-14.7c1.3-5.2,3.9-9.1,7.8-11.7
												c2.6-1.7,5.6-2.7,8.9-2.9c3.2-0.2,6.4,0.4,9.4,1.7C-3235.3-137.1-3233.1-135.6-3231-133.7z"/>
										</g>
									</g>
								</g>
							</g>
							<g transform="matrix( 0.9983978271484375, -0.05657958984375, 0.0879364013671875, 0.996612548828125, -63.2,4.35) ">
								<g>
									<g transform="matrix( 1, 0, 0, 1, 0,0) ">
										<g>
											<g id="Cloth_1Lad1y_R_leg_0_Layer2_0_FILL_00000158718180756308825830000015941305161141702559_">
												<path class="st19" d="M-3474.8-545.1c0,0.1,0,0.2,0,0.3c0.3,1.4,0.6,2.7,0.9,4c0.3,1.3,0.7,2.7,1,4
													c0.1,0.2,0.1,0.4,0.2,0.5c1.3,4.9,2.5,8.6,3.4,11.4c0.6,2,1.1,3.5,1.7,4.3c0.6,0.8,1,1.3,1.1,1.5c0.2,0.5,0.6,1.2,0.9,2
													c0.1,0.2,0.2,0.5,0.3,0.7c0.3,1.4,0.3,2.4,0.1,3.2c-0.5,1.4-2,1.7-4.5,0.8c-1.7-0.6-4-1.8-6.8-3.6
													c-1.5-1.3-2.8-2.8-3.9-4.6c-1-3.6-2.5-6.7-4.3-9.2c-0.6-0.9-1.3-1.7-2-2.5c-1-1.7-1.5-3.2-1.4-4.7l0,0c0,0,0-0.1,0-0.1
													c0-0.1,0.1-0.2,0.1-0.3l0,0c0,0,0,0.1,0,0.1c0-0.2,0-0.4,0.1-0.6c0-0.2,0.4-0.9,1-2c0.3-0.5,0.5-0.9,0.6-1.2
													c0,0,0.1-0.1,0.1-0.1c0.3-0.4,0.6-1.5,0.7-3.1c0,0,0,0,0,0l0.3-2c0.8,0.3,1.3,0.4,1.5,0.5c2.1,0.7,5.1,1.1,8.8,1.2
													C-3474.7-544.8-3474.8-545-3474.8-545.1z"/>
											</g>
										</g>
									</g>
									<g transform="matrix( 1, 0, 0, 1, 0,0) ">
										<g>
											<g id="Cloth_1Lad1y_R_leg_0_Layer1_0_MEMBER_0_FILL_00000039117015098047539670000011707448355219749812_">
												<path class="st28" d="M-3476.7-515.4L-3476.7-515.4L-3476.7-515.4L-3476.7-515.4z"/>
											</g>
										</g>
									</g>
									<g transform="matrix( 1, 0, 0, 1, -34.5,0) ">
										<g transform="matrix( 1, 0, 0, 1, 0,0) ">
											<g>
												<g id="Hands_1s1hoe_rht_0_Layer1_0_FILL_00000001622670740277063600000007152242312577802386_">
													<path class="st29" d="M-3452.1-529.9L-3452.1-529.9L-3452.1-529.9L-3452.1-529.9 M-3428.1-504.9L-3428.1-504.9
														c0.3-0.1,0.5-0.2,0.7-0.4C-3427.6-505.2-3427.9-505.1-3428.1-504.9z"/>
													<path class="st30" d="M-3428-504.9L-3428-504.9c-1.4,0.6-4.3-0.1-8.8-2.1c-4.4-2-7.4-3.9-8.8-5.8
														c-0.9-1.3-1.6-2.5-2-3.5c-0.2-0.5-0.3-0.9-0.3-1.4c-0.9-6.2-1.7-10-2.6-11.2l0,0l0,0l0-0.1l0,0l0,0l0,0l0,0l-1.1-1.1
														c-0.1,0.1-0.1,0.2-0.2,0.3l0.1,0c-0.3,0.6-0.7,1.2-1,1.8c-1.2,2.5-2.2,5.6-3.1,9.2c0.5,0.1,0.9,0.1,1.4-0.2
														c0-0.1,0.1-0.3,0.1-0.4c0.5-3.2,1.3-5.5,2.4-7.1l1.4-2c0.1,0,0.1,0.1,0.2,0.2c0.9,1.2,1.7,5,2.5,11.2
														c0.1,0.4,0.2,0.9,0.3,1.4c0.4,1,1.1,2.2,2,3.5c1.4,1.8,4.3,3.8,8.7,5.7c4.4,1.9,7.3,2.6,8.6,2
														C-3428.3-504.7-3428.2-504.8-3428-504.9 M-3450.9-528.7L-3450.9-528.7L-3450.9-528.7
														C-3450.9-528.7-3450.9-528.7-3450.9-528.7z"/>
													<path class="st31" d="M-3431-517.2c-0.4-0.8-0.7-1.4-0.9-2c0.2,0.2,0.5,0.6,0.8,1.3c0.2,0.4,0.5,0.8,0.8,1.3
														c0.4,0.7,0.9,1.5,1.4,2.5c1.7,2.9,2.5,5,2.4,6.4c0,0.9-0.3,1.7-1,2.3c-0.2,0.1-0.4,0.3-0.7,0.4
														c-1.3,0.6-4.2-0.1-8.7-2.1c-4.4-2-7.4-3.9-8.8-5.8c-0.9-1.3-1.6-2.5-2-3.5c-0.2-0.5-0.3-0.9-0.3-1.4
														c-0.9-6.2-1.7-10-2.6-11.2l0,0l0,0l0-0.1l0,0l0,0l0,0l0,0l-1.1-1.1c-0.1,0.1-0.1,0.2-0.2,0.3l0,0l0.1,0
														c-0.3,0.6-0.7,1.2-1,1.8c-1.2,2.5-2.2,5.6-3.1,9.2c0.5,0.1,0.9,0.1,1.4-0.2c0,0.3-0.1,0.6-0.1,0.9c0,0.1,0,0.2,0,0.3
														c-0.5,0.2-1.1,0.3-1.7,0.1c-0.5-0.1-0.8-0.3-0.9-0.5c0.2-0.4,0.3-0.9,0.5-1.3c1.2-3.3,1.6-6.3,1.1-9
														c-0.4-1.6-0.2-3.5,0.5-5.6c0-0.1,0.1-0.2,0.1-0.2c0.6-1.7,1.3-3.2,2.1-4.3c0.1-0.1,0.2-0.2,0.2-0.3
														c-0.2,0.4-0.4,0.9-0.5,1.4c0,0.2-0.1,0.4-0.1,0.6c-0.1,1.5,0.4,3,1.4,4.7c0.7,0.8,1.4,1.6,2,2.5
														c1.8,2.5,3.2,5.6,4.3,9.2c1.1,1.8,2.4,3.3,3.9,4.6c8.7,5.5,12.4,5.4,11.2-0.4C-3430.8-516.7-3430.9-516.9-3431-517.2z"
														/>
												</g>
											</g>
										</g>
									</g>
								</g>
								<g>
									<g transform="matrix( 1, 0, 0, 1, 0,0) ">
										<g>
											<g id="Cloth_1Lad1y_R_leg_0_Layer2_0_FILL_00000183938590719989990000000005725800780358361761_">
												<path class="st19" d="M-3497.9-549.2c0,0.1,0,0.2,0,0.3c0.3,1.4,0.6,2.7,0.9,4c0.3,1.3,0.7,2.7,1,4
													c0.1,0.2,0.1,0.4,0.2,0.5c1.3,4.9,2.5,8.6,3.4,11.4c0.6,2,1.1,3.5,1.7,4.3c0.6,0.8,1,1.3,1.1,1.5c0.2,0.5,0.6,1.2,0.9,2
													c0.1,0.2,0.2,0.5,0.3,0.7c0.3,1.4,0.3,2.4,0.1,3.2c-0.5,1.4-2,1.7-4.4,0.8c-1.7-0.6-4-1.8-6.8-3.6
													c-1.5-1.3-2.8-2.8-3.9-4.6c-1-3.6-2.5-6.7-4.3-9.2c-0.6-0.9-1.3-1.7-2-2.5c-1-1.7-1.5-3.2-1.4-4.7l0,0c0,0,0-0.1,0-0.1
													c0-0.1,0.1-0.2,0.1-0.3l0,0c0,0,0,0.1,0,0.1c0-0.2,0-0.4,0.1-0.6c0-0.2,0.4-0.9,1-2c0.3-0.5,0.5-0.9,0.6-1.2
													c0,0,0.1-0.1,0.1-0.1c0.3-0.4,0.6-1.5,0.7-3.1c0,0,0,0,0,0l0.3-2c0.8,0.3,1.3,0.4,1.5,0.5c2.1,0.7,5.1,1.1,8.8,1.2
													C-3497.9-548.9-3497.9-549.1-3497.9-549.2z"/>
											</g>
										</g>
									</g>
									<g transform="matrix( 1, 0, 0, 1, 0,0) ">
										<g>
											<g id="Cloth_1Lad1y_R_leg_0_Layer1_0_MEMBER_0_FILL_00000051380878828715159430000002864905455457510815_">
												<path class="st28" d="M-3499.9-519.5L-3499.9-519.5L-3499.9-519.5L-3499.9-519.5z"/>
											</g>
										</g>
									</g>
									<g transform="matrix( 1, 0, 0, 1, -34.5,0) ">
										<g transform="matrix( 1, 0, 0, 1, 0,0) ">
											<g>
												<g id="Hands_1s1hoe_rht_0_Layer1_0_FILL_00000126306644930245479280000006006372173561744033_">
													<path class="st29" d="M-3475.2-534L-3475.2-534L-3475.2-534L-3475.2-534 M-3451.3-509L-3451.3-509
														c0.3-0.1,0.5-0.2,0.7-0.4C-3450.8-509.3-3451-509.2-3451.3-509z"/>
													<path class="st30" d="M-3451.2-509L-3451.2-509c-1.4,0.6-4.3-0.1-8.8-2.1c-4.4-2-7.4-3.9-8.8-5.8
														c-0.9-1.3-1.6-2.5-2-3.5c-0.2-0.5-0.3-0.9-0.3-1.4c-0.9-6.2-1.7-10-2.6-11.2l0,0l0,0l0-0.1l0,0l0,0l0,0l0,0l-1.1-1.1
														c-0.1,0.1-0.1,0.2-0.2,0.3l0.1,0c-0.3,0.6-0.7,1.2-1,1.8c-1.2,2.5-2.2,5.6-3.1,9.2c0.5,0.1,0.9,0.1,1.4-0.2
														c0-0.1,0.1-0.3,0.1-0.4c0.5-3.2,1.3-5.5,2.4-7.1l1.4-2c0.1,0,0.1,0.1,0.2,0.2c0.9,1.2,1.7,5,2.5,11.2
														c0.1,0.4,0.2,0.9,0.3,1.4c0.4,1,1.1,2.2,2,3.5c1.4,1.8,4.3,3.8,8.7,5.7c4.4,1.9,7.3,2.6,8.6,2
														C-3451.5-508.8-3451.3-508.9-3451.2-509 M-3474-532.8L-3474-532.8L-3474-532.8C-3474-532.8-3474-532.8-3474-532.8z"/>
													<path class="st31" d="M-3454.2-521.3c-0.4-0.8-0.7-1.4-0.9-2c0.2,0.2,0.5,0.6,0.8,1.3c0.2,0.4,0.5,0.8,0.8,1.3
														c0.4,0.7,0.9,1.5,1.4,2.5c1.7,2.9,2.5,5,2.4,6.4c0,0.9-0.3,1.7-1,2.3c-0.2,0.1-0.4,0.3-0.7,0.4
														c-1.3,0.6-4.2-0.1-8.7-2.1c-4.4-2-7.4-3.9-8.8-5.8c-0.9-1.3-1.6-2.5-2-3.5c-0.2-0.5-0.3-0.9-0.3-1.4
														c-0.9-6.2-1.7-10-2.6-11.2l0,0l0,0l0-0.1l0,0l0,0l0,0l0,0l-1.1-1.1c-0.1,0.1-0.1,0.2-0.2,0.3l0,0l0.1,0
														c-0.3,0.6-0.7,1.2-1,1.8c-1.2,2.5-2.2,5.6-3.1,9.2c0.5,0.1,0.9,0.1,1.4-0.2c0,0.3-0.1,0.6-0.1,0.9c0,0.1,0,0.2,0,0.3
														c-0.5,0.2-1.1,0.3-1.7,0.1c-0.5-0.1-0.8-0.3-0.9-0.5c0.2-0.4,0.3-0.9,0.5-1.3c1.2-3.3,1.6-6.3,1.1-9
														c-0.4-1.6-0.2-3.5,0.5-5.6c0-0.1,0-0.2,0.1-0.2c0.6-1.7,1.3-3.2,2.1-4.3c0.1-0.1,0.2-0.2,0.2-0.3
														c-0.2,0.4-0.4,0.9-0.5,1.4c0,0.2-0.1,0.4-0.1,0.6c-0.1,1.5,0.4,3,1.4,4.7c0.7,0.8,1.4,1.6,2,2.5
														c1.8,2.5,3.2,5.6,4.3,9.2c1.1,1.8,2.4,3.3,3.9,4.6c8.7,5.5,12.4,5.4,11.2-0.4C-3454-520.8-3454.1-521-3454.2-521.3z"/>
												</g>
											</g>
										</g>
										<g transform="matrix( 1, 0, 0, 1, 0,0) ">
											<g>
												<g id="Hands_1s1hoe_rht_0_Layer1_1_FILL_00000117635015685075745950000011448876795504347520_">
													<path class="st32" d="M-3477.2-540c0.3,2.2,0.7,3.6,1.1,4.2c-0.6,1.5-1.3,3.3-2.2,5.2l-0.1-3.8"/>
												</g>
											</g>
										</g>
									</g>
								</g>
							</g>
							<g transform="matrix( 1, 0, 0, 1, 0,0) ">
								<g>
									<g id="a1_acton_3_Layer11_0_MEMBER_3_MEMBER_0_FILL_00000102531879903548591380000012788598120622359173_">
										<path class="st24" d="M-3539.6-615.3c12.6,7.1,12.7,20.7,8.6,38.3l-20.2,0.4l-0.3-24C-3545.6-607-3545-614.2-3539.6-615.3
											z"/>
									</g>
								</g>
							</g>
							<g transform="matrix( 0.9995880126953125, 0.0284576416015625, -0.0284576416015625, 0.9995880126953125, -8.95,-341.75) ">
								<g transform="matrix( 1, 0, 0, 1, 0,0) ">
									<g>
										<g id="Body_1la3dy_body_0_Layer2_0_FILL_00000002349321545675964840000013089764416006833035_">
											
												<linearGradient id="SVGID_00000026865299117723815690000010755150904131011479_" gradientUnits="userSpaceOnUse" x1="-3992.0474" y1="254.6669" x2="-3921.052" y2="215.7995" gradientTransform="matrix(-1.3126 -0.1174 0.1174 -1.3126 -8814.4756 -329.9469)">
												<stop  offset="5.490200e-02" style="stop-color:#DA776A"/>
												<stop  offset="0.4078" style="stop-color:#EB9A90"/>
												<stop  offset="1" style="stop-color:#FA9A90"/>
											</linearGradient>
											<path style="fill:url(#SVGID_00000026865299117723815690000010755150904131011479_);" d="M-3598-167l-2.7-0.2
												c0.2-2.3,0.9-4.4,2.2-6.2C-3598.8-171.2-3598.7-169.1-3598-167z"/>
											<path class="st19" d="M-3598.5-173.4c0.1-0.2,0.4-0.5,1-1.1c0.5-0.6,1.9-1.4,4-2.6c2.1-1.2,5.1-2.2,8.8-2.9
												c10.3-1,17.7-2.8,22.3-5.4c9.5,4.2,15.5,7.1,18,8.6l0,0c4.1,1.5,6.2,3.9,8.4,5.5c2.6,1.8,4.3,3.7,4.5,5.5
												c0.3,2.4,1.3,3.4,1.4,5l-68-6.1C-3598.7-169.1-3598.8-171.2-3598.5-173.4z"/>
											<path class="st21" d="M-3562.3-185.7C-3562.3-185.7-3562.3-185.7-3562.3-185.7c9.6,4.2,15.6,7.1,18.1,8.6l0,0
												c4.1,1.5,7.2,3.1,9.5,4.8c-2.3-1.5-5.4-3.1-9.5-4.6l0,0c-2.5-1.5-8.5-4.4-18-8.6c-4.6,2.7-12,4.5-22.3,5.4
												c-3.7,0.8-6.7,1.7-8.8,2.9c-2.1,1.2-3.5,2.1-4,2.6c-0.6,0.6-0.9,1-1,1.1c-1.3,1.8-2.1,3.9-2.2,6.2l-0.2,0
												c0.2-2.6,1.1-4.8,2.7-6.7c0.8-1.1,2-2,3.5-2.7c2.6-1.6,5.9-2.8,10.1-3.6C-3574.4-181.2-3566.9-183.1-3562.3-185.7
												L-3562.3-185.7z"/>
										</g>
									</g>
								</g>
								<path class="st19" d="M-3583.5-178c1.9,1.2,4.3,4.1,7.3,8.6c3,4.6,8.6,6.5,16.8,5.8c8.2-0.7,13.4-2.3,15.8-4.7l0.1-0.1
									c1.1-1.1,1.8-2.4,2-4c0-0.2,0-0.3,0.1-0.5c0.1-1.2-0.1-2.2-0.7-2.9l0,0c-5.4-2.8-9.1-5.2-10.9-7.1c0-0.2-0.1-0.3-0.1-0.5
									c-0.3-1.2-0.5-2.3-0.5-3.4c0-0.3,0-0.6,0-0.9c0-0.2,0-0.4,0-0.7c0.1-0.2,0.1-0.4,0.1-0.5c0-0.1,0-0.1,0-0.2
									c0.2-1.4,0.6-2.9,1.2-4.2c0.8-4.6,0.1-7.8-2.4-9.6c-2.4-1.9-6.4-2.4-12.1-1.5c0,0,0,0-0.1,0c0,0,0,0,0,0
									c0,1.5-0.2,3-0.5,4.4c0,0.2-0.1,0.4-0.1,0.5c-0.2,1-0.4,1.6-0.6,2.1l0,0c-0.3,1-0.7,1.9-1.1,2.9c-0.4,0.9-0.9,1.9-1.4,2.8
									c-0.1,0.2-0.3,0.5-0.4,0.7c-0.3,0.5-0.7,1.1-1.1,1.6c-1.3,1.8-2.7,3.5-4.4,5.1l0,0c-1.5,1.3-3.3,2.3-5.3,3.1
									c-0.6,0.3-1.2,0.5-1.8,0.7c-1.1,0.3-1.9,0.4-2.3,0.6C-3586.2-179.8-3585.4-179.2-3583.5-178z"/>
								<g transform="matrix( 1, 0, 0, 1, 0,0) ">
									<g>
										<g id="Cloth_1ch_head_0_Layer3_0_MEMBER_0_FILL_00000132056744762042043300000012679552437661906362_">
											<path class="st34" d="M-3569.2-194.5c0.9,0.9,2.6,2.2,5.7,4.3c4,2.6,5.8,3,7.1,3.2c1,0.2,1.9,0.2,2.8,0.1
												c0-0.3,0-0.6,0-0.9c0-0.2,0-0.4,0-0.7c0.1-0.2,0.1-0.4,0.1-0.5c0-0.1,0-0.1,0-0.2c0.2-1.4,0.6-2.9,1.2-4.2
												c0.8-4.6,0.1-7.8-2.4-9.6c-2.4-1.9-6.4-2.4-12.1-1.5c0,0,0,0-0.1,0c0,0,0,0,0,0c0,1.5-0.2,3-0.5,4.4
												c0,0.2-0.1,0.4-0.1,0.5c-0.2,1-0.4,1.6-0.6,2.1l0,0C-3568.4-196.5-3568.8-195.5-3569.2-194.5z"/>
										</g>
									</g>
								</g>
							</g>
							<g transform="matrix( 1.0998382568359375, 0.017730712890625, -0.017730712890625, 1.0998382568359375, -2.05,-472) ">
								<g transform="matrix( 1, 0, 0, 1, 0,0) ">
									<g>
										<g id="Cloth_1ch_head_0_Layer3_0_MEMBER_0_FILL_00000053524783261714265730000007176029654845922446_">
											<path class="st19" d="M-3252.7-142.6c3.7-4.4,8.9-6.7,15.5-7.1c6-0.4,10.8,1.1,14.5,4.3c0,0,0.1,0.1,0.1,0.1
												c0.3,0.3,0.6,0.6,0.9,0.9c0,0,0,0,0,0c3.8,3.9,5.6,8,5.5,12.5c-0.2,4.4-0.6,7.7-1.3,10l0,0.2l-0.8,5
												c-0.2,1.5-0.7,3.6-1.5,6.5c-1,3.9-2.5,7-4.3,9.5l-3.1,4c-1.7,3.1-4.3,4.3-7.7,3.7c-1.2-0.2-2.8-0.6-6.4-3
												c-3.2-2.2-4.7-3.5-5.5-4.3c-3.9-4.1-4.8-9.7-5.1-12.6c-0.1,0.1-0.3,0.3-0.6,0.4c-0.9,0.4-1.8,0.1-2,0
												c-0.4-0.2-1-0.5-1.5-1.6c-2.5-5-1.9-14-1.9-14c0.3-5.1,1-7,1.4-8.1c0.6-1.5,1.4-3,2.3-4.4
												C-3253.8-141.2-3253.3-141.9-3252.7-142.6z"/>
										</g>
									</g>
								</g>
								<g transform="matrix( 0.9879913330078125, 0, 0, 0.7599945068359375, -0.1,-13.1) ">
									<g>
										<g id="Cloth_1ch_head_0_Layer3_0_MEMBER_1_FILL_00000008111627922444975190000004659690273210956698_">
											
												<linearGradient id="SVGID_00000031892031631131580270000016480440491916607379_" gradientUnits="userSpaceOnUse" x1="-4646.7456" y1="323.1649" x2="-4645.2324" y2="323.1649" gradientTransform="matrix(-1.4253 -0.1818 8.996731e-02 -1.0955 -8555.7695 -486.3751)">
												<stop  offset="0" style="stop-color:#FF4145"/>
												<stop  offset="1" style="stop-color:#EE252A"/>
											</linearGradient>
											<path style="fill:url(#SVGID_00000031892031631131580270000016480440491916607379_);" d="M-3269.4-147.5
												c0-0.5,0.2-0.8,0.4-1.1c0.2-0.3,0.5-0.4,0.8-0.4c0.3,0,0.6,0.2,0.8,0.5c0.2,0.3,0.3,0.8,0.2,1.2s-0.2,0.8-0.4,1.1
												c-0.2,0.3-0.5,0.4-0.8,0.4c-0.3,0-0.6-0.2-0.7-0.6C-3269.4-146.6-3269.5-147-3269.4-147.5z"/>
										</g>
									</g>
								</g>
								<path class="st10" d="M-3226.5-116.7c0.6,0.4,1.2,0.8,1.9,1.1c0.8,0.4,1.6,0.6,2.5,0.6c0.9,0,1.8-0.2,2.6-0.7
									c0.8-0.3,1.4-0.8,1.8-1.4c-0.1-0.3-0.4-0.7-0.9-1.1c-1.6-1.3-3.4-1.6-5.3-0.9C-3225.2-118.6-3226-117.8-3226.5-116.7"/>
								<path class="st10" d="M-3241.6-117.3c0.7,0.4,1.5,0.8,2.3,1c0.2,0,0.4,0.1,0.6,0.1c0.9,0.2,1.9,0.2,2.9,0
									c0.8-0.2,1.6-0.3,2.3-0.6c-0.3-1.1-1.1-2.1-2.4-2.9c-1.1-0.5-2.2-0.8-3.3-0.8c-0.9,0-1.9,0.2-2.8,0.7
									c-0.6,0.3-1.1,0.6-1.3,0.9C-3243-118.4-3242.4-117.8-3241.6-117.3z"/>
								<g transform="matrix( -0.7544708251953125, -0.016265869140625, -0.018157958984375, 0.8441314697265625, 11.15,-37.15) ">
									<g transform="matrix( 1, 0, 0, 1, 0,0) ">
										<g>
											<g id="ch3eye_ball__0_Layer0_0_FILL_00000018952705428083218960000013484359454767778483_">
												<path class="st17" d="M4306.6-16.1c0.8,0,1.5,0.2,2.1,0.8c0.6,0.6,0.9,1.3,0.9,2.1c0,0.8-0.2,1.5-0.8,2
													c-0.6,0.6-1.2,0.9-2,1c-0.8,0-1.5-0.2-2.1-0.8c-0.6-0.5-0.9-1.2-1-2c0-0.8,0.2-1.5,0.8-2.1
													C4305.1-15.8,4305.8-16.1,4306.6-16.1z"/>
											</g>
										</g>
									</g>
									<g transform="matrix( 1.2004852294921875, 0, 0, 1.2004852294921875, -269.35,-88.45) ">
										<g>
											<g id="ch3eye_ball__0_Layer0_0_MEMBER_0_MEMBER_0_FILL_00000113332002570780884660000010833749591018878899_">
												<path d="M3811.4,61.5c0.3,0,0.6,0.1,0.9,0.3c0.2,0.2,0.3,0.5,0.4,0.9c0,0.3-0.1,0.6-0.3,0.9c-0.2,0.3-0.5,0.4-0.8,0.4
													c-0.3,0-0.6-0.1-0.8-0.4c-0.2-0.2-0.4-0.5-0.4-0.8c0-0.3,0.1-0.7,0.3-0.9C3810.8,61.7,3811.1,61.5,3811.4,61.5z"/>
											</g>
										</g>
									</g>
									<g transform="matrix( 1.5006103515625, 0, 0, 1.5006103515625, -7.85,7.4) ">
										<g>
											<g id="ch3eye_ball__0_Layer0_0_MEMBER_0_MEMBER_1_FILL_00000165930397355405123370000003296271660435241612_">
												<path class="st10" d="M2875.1-14.1c-0.1-0.1-0.1-0.2-0.1-0.3c0-0.1,0-0.2,0.1-0.3c0.1-0.1,0.2-0.1,0.3-0.1
													c0.1,0,0.2,0,0.3,0.1c0.1,0.1,0.1,0.2,0.1,0.3c0,0.1,0,0.2-0.1,0.3c-0.1,0.1-0.2,0.1-0.3,0.1
													C2875.3-13.9,2875.1-14,2875.1-14.1z"/>
											</g>
										</g>
									</g>
								</g>
								<g transform="matrix( -0.7393646240234375, -0.01593017578125, -0.017791748046875, 0.827239990234375, -13.95,-37.4) ">
									<g transform="matrix( 1, 0, 0, 1, 0,0) ">
										<g>
											<g id="ch3eye_ball__0_Layer0_0_FILL_00000087382603081923715180000001473664961624559796_">
												<path class="st17" d="M4338.7-15.9c0.7-0.1,1.4,0.2,2,0.7c0.6,0.5,0.9,1.2,1,2c0.1,0.8-0.1,1.5-0.5,2.1
													c-0.5,0.6-1,1-1.8,1.1c-0.7,0.1-1.4-0.2-2-0.7c-0.6-0.5-0.9-1.1-1-1.9c-0.1-0.8,0.1-1.5,0.5-2.2
													C4337.3-15.5,4337.9-15.8,4338.7-15.9z"/>
											</g>
										</g>
									</g>
									<g transform="matrix( 1.2004852294921875, 0, 0, 1.2004852294921875, -269.35,-88.45) ">
										<g>
											<g id="ch3eye_ball__0_Layer0_0_MEMBER_0_MEMBER_0_FILL_00000154401446150505087780000016197828662538262931_">
												<path d="M3838.5,61.7c0.3,0,0.6,0.1,0.8,0.2c0.2,0.2,0.4,0.5,0.4,0.8c0,0.3,0,0.6-0.2,0.8c-0.2,0.3-0.4,0.4-0.7,0.4
													c-0.3,0-0.6-0.1-0.8-0.3c-0.2-0.2-0.4-0.5-0.4-0.8c0-0.3,0-0.6,0.2-0.9C3837.9,61.9,3838.2,61.7,3838.5,61.7z"/>
											</g>
										</g>
									</g>
									<g transform="matrix( 1.5006103515625, 0, 0, 1.5006103515625, -7.85,7.4) ">
										<g>
											<g id="ch3eye_ball__0_Layer0_0_MEMBER_0_MEMBER_1_FILL_00000116916411430761511030000001772816811232170687_">
												<path class="st10" d="M2896.9-13.8c-0.1-0.1-0.1-0.2-0.2-0.3c0-0.1,0-0.2,0.1-0.3c0.1-0.1,0.1-0.1,0.3-0.2
													c0.1,0,0.2,0,0.3,0.1c0.1,0.1,0.1,0.2,0.2,0.3c0,0.1,0,0.2-0.1,0.3c-0.1,0.1-0.2,0.1-0.3,0.2
													C2897-13.7,2896.9-13.7,2896.9-13.8z"/>
											</g>
										</g>
									</g>
								</g>
								<g transform="matrix( -0.7544708251953125, -0.016265869140625, -0.018157958984375, 0.8441314697265625, -0.95,-38.3) ">
									<g>
										<g id="Cloth_1ch_head_0_Layer0_0_MEMBER_2_FILL_00000137848766148319848970000005839885636104524982_">
											<path d="M4262.6-11.7c0.4,0.6,2,2.5,4.8,3.3c4.3,1.2,7.8-1.4,8.1-1.6c0.2,0,0.4,0,0.6,0c0,0,0.2-0.1,0.2-0.2
												c0-0.2-0.1-0.3-0.1-0.3c-2.5-3.3-6.3-4.7-9-3.7c-0.5,0.2-1.6,0.7-2.6,2.2C4263.9-12,4263.2-11.8,4262.6-11.7z
												 M4275.5-10.5c-2.8,1.7-9.1,3.3-10.6-0.5c0.2-2.7,5-3.4,7.5-1.7C4273.4-12.2,4274.5-11.5,4275.5-10.5z"/>
										</g>
									</g>
								</g>
								<g transform="matrix( -0.7544708251953125, -0.016265869140625, -0.018157958984375, 0.8441314697265625, -0.95,-38.3) ">
									<g>
										<g id="Cloth_1ch_head_0_Layer0_0_MEMBER_3_FILL_00000109021406751815028960000016835497266059028394_">
											<path d="M4284.6-10.6C4284.6-10.6,4284.6-10.6,4284.6-10.6C4284.6-10.5,4284.6-10.5,4284.6-10.6l-0.1,0.1l0,0
												c-0.2,0.4,0.2,0.5,0.5,0.4c1.2,0.5,3,1.1,5.3,1c5.7-0.1,9.3-4.1,9.8-4.8c-0.7,0.1-1.4,0.2-2.1,0.3
												c-1.1-0.7-3.2-1.8-6.1-1.8c-0.9,0-2.3,0-3.8,0.7C4285.8-13.4,4284.9-11.2,4284.6-10.6z M4297.5-12.8
												c-2.7,3.6-8.3,3.8-12.4,2.2c0.6-2.5,4.5-4.2,7.3-4C4294-14.5,4296.6-13.9,4297.5-12.8z"/>
										</g>
									</g>
								</g>
								<g transform="matrix( -0.7544708251953125, -0.016265869140625, -0.018157958984375, 0.8441314697265625, -0.95,-38.3) ">
									<g>
										<g id="Cloth_1ch_head_0_Layer0_0_MEMBER_4_FILL_00000106849302667219268860000014264548631690563493_">
											<path d="M4267.4-19.6c-0.6,0-1.9,0-2.7,0.7c-0.7,0.6-0.8,1.4-0.9,1.4c-0.1,0,0-2,1.6-3c0.5-0.4,1.2-0.6,2-0.6
												c2.1-0.2,4.8,0.8,8.1,3c0,0.2,0,0.3,0,0.5c0,0.3-0.1,0.6-0.2,0.9C4274.5-17.3,4270.7-19.6,4267.4-19.6z"/>
										</g>
									</g>
								</g>
								<g transform="matrix( -0.7544708251953125, -0.016265869140625, -0.018157958984375, 0.8441314697265625, -0.95,-38.3) ">
									<g>
										<g id="Cloth_1ch_head_0_Layer0_0_MEMBER_5_FILL_00000026122849274242684250000004762946803977338274_">
											<path d="M4284.6-17c-0.1-0.1-0.4-0.3-0.5-0.7c-0.1-0.2-0.1-0.4-0.1-0.5c3.8-3,6.9-4.8,9.5-5.2c2.5-0.4,4.8-0.1,6.8,1
												c-1.5,0-3.3,0.2-5.3,0.6C4290.1-20.6,4286.6-18.5,4284.6-17z"/>
										</g>
									</g>
								</g>
							</g>
							<g transform="matrix( 1.00958251953125, 0.0287322998046875, -0.0287322998046875, 1.00958251953125, -8.95,-341.85) ">
								<g transform="matrix( 1, 0, 0, 1, 0,0) ">
									<g transform="matrix( 1, 0, 0, 1, 0,0) ">
										<g>
											<g id="a1_acton_3_Layer1_0_MEMBER_0_FILL_00000075870443923084799960000012500499512915960963_">
												<path class="st19" d="M-3549.1-145.5l-0.8,3.3c-0.2,0.6-0.4,1.2-0.5,1.8c-0.2,0.8-0.8,2.9-1.8,6.2l-8.5,34.4l-0.4-0.4
													l0,0.2c-4.8-1-8.4-1.8-10.6-2.3c-1,2-1.1,0.9-0.4-3.2c0.8-11.6,1.7-20.9,2.5-27.9c0.2-1.5,0.3-2.9,0.4-4.2
													c0.8-7.4,1.2-12.7,1.4-15.9c-0.1-1.7-0.1-3.8,0.2-6.1c0.5-4,1.5-7.2,2.9-9.8c0,0,0,0.1,0,0.1
													C-3559.2-162-3554-154.1-3549.1-145.5z"/>
											</g>
										</g>
									</g>
									<g>
										<g id="a1_acton_3_Layer1_0_MEMBER_3_MEMBER_0_FILL_00000095328873713262541920000003466764482106720170_">
											<path class="st24" d="M-3569-150.5c0.5-8,1.9-14.3,4.3-18.7c2.7,3.5,5.4,7.3,8.1,11.4c2.9,4.4,5.5,8.7,7.8,12.8
												c-0.9,2.7-1.7,5.4-2.6,8.1l-17.8-4.9C-3569.2-144.9-3569.2-147.8-3569-150.5z"/>
										</g>
									</g>
								</g>
								<g transform="matrix( 1, 0, 0, 1, 0,0) ">
									<g>
										<g id="Cloth_1lady11_top_0_Layer1_0_MEMBER_1_FILL_00000029753723081984067090000010302084301562240388_">
											<path class="st24" d="M-3554.9-178.9c-0.3,9.6,0.1,17.3,0.6,22.6c0.9,10,2.4,17.2,2.5,30.1c0,3.4,0,6.1-0.1,8
												c-2.2,6.4-4.4,12.8-6.7,19.1c0,0.2,0.2,1,0.7,1.8c5.6,9.3,44.1,6.7,58.3-14.2c3-4.4,5.4-11.1,7.8-25
												c2.3-13.2,0.6-19.1,0.1-20.7c-2.4-7.8-7.3-12.9-10.4-15.5c-0.7-0.5-15.1-8.8-16-9.3c-0.2,0.4,1,2.5,2.6,4.8
												c1.8,5.6,9.9,15-2.5,14.9c-13.2,2.7-22.2-9.9-21.3-22.4C-3544.4-182.8-3549.6-180.8-3554.9-178.9z M-3512.6-144.9
												c0,0,0-0.1,0-0.1C-3512.6-144.9-3512.6-144.9-3512.6-144.9L-3512.6-144.9z"/>
											<path class="st36" d="M-3512.6-145c0,0,0,0.1,0,0.1l0,0C-3512.6-144.9-3512.6-144.9-3512.6-145z"/>
											<path class="st37" d="M-3539.1-184.9L-3539.1-184.9c0,0,0-0.1,0-0.2C-3539-185-3539-185-3539.1-184.9z"/>
										</g>
									</g>
								</g>
								<g transform="matrix( 1, 0, 0, 1, 0,0) ">
									<g>
										<g id="Cloth_1lady11_top_0_Layer1_1_FILL_00000001644535533289789410000007703795453764526982_">
											<path class="st24" d="M-3582.7,56.7c-2,16-2.4,30.3-1.9,42.6c1.6,2,4.3,4.5,8.1,6.4c9.7,4.8,19.4,1.4,21.6,0.5
												c1.9,1.5,7.7,5.6,16.1,5.8c6.4,0.1,11.2-2.1,13.5-3.3c1.5,0.9,9,5.1,18,2.5c5-1.4,8.3-4.4,9.9-6
												c0.6-21.2,0.5-43.9-0.7-67.8c-0.7-13-1.7-25.6-2.9-37.7c1.1-14,1.5-26.1,1.5-35.5c0,0,0.1-31.8-3.6-48.6
												c0,0-0.2-0.6-0.3-1.4c0-0.1,0-0.1,0-0.2c-0.7,0.1-1.3,0.1-2,0.2c-4.7,0.4-9.7,0.4-15,0.1c-0.1-0.1-0.2-0.1-0.3-0.2
												c-0.8-0.3-1.4-0.4-1.9-0.2c-0.1,0.1-0.2,0.1-0.2,0.2c-0.7-0.5-1.3-0.6-2.1-0.2c0,0,0,0-0.1,0.1c-0.6-0.5-1.2-0.5-1.9-0.2
												c0,0-0.1-0.1-0.1-0.1c-0.1,0-0.1-0.1-0.2-0.1c-0.4-0.1-1,0-1.6,0.4c0-0.1-0.1-0.1-0.1-0.2c-0.3-0.3-0.7-0.3-1.2,0
												c-0.1-0.1-0.2-0.2-0.3-0.3c-0.2-0.1-0.4-0.1-0.6,0c-0.2,0-0.4,0.1-0.6,0.3c-0.2,0-0.3,0-0.5-0.1c-0.7,0-1.3-0.1-1.9-0.2
												c-0.2,0-0.5-0.1-0.7-0.1l-0.3-0.1c-13.4-1.6-20.7-5.7-21.9-12.3c0,0,0,0,0-0.1c0,0,0-0.1,0-0.1c-0.1-0.5-1.3-0.7-1.5-0.8
												c-2.7,8.7-5.2,18-7.3,27.9c-6.4,30.3-7.5,57.8-6.4,80.6C-3576.3,21.9-3580.3,38.1-3582.7,56.7z"/>
										</g>
									</g>
								</g>
								<g transform="matrix( 1, 0, 0, 1, 0,0) ">
									<g>
										<g id="Cloth_1lady11_top_0_Layer1_1_MEMBER_6_FILL_00000017487499323849295680000009771953921636050094_">
											<path class="st38" d="M-3558.5-99.3c1.2-3.5,2.5-6.9,3.7-10.4c3.4,3.4,13.3,12.5,29,14.9c10.9,1.7,19.7-0.6,24.3-2.2
												c-1,4.7-2,9.5-3,14.2c-4.4,1.8-15.1,5.5-28,2.5c-4.1-0.9-13.3-3.2-20.7-11.3C-3555.8-94.5-3557.5-97.3-3558.5-99.3z"/>
										</g>
									</g>
								</g>
								<g transform="matrix( 1, 0, 0, 1, 0,0) ">
									<g>
										<g id="Cloth_1lady11_top_0_Layer1_2_FILL_00000073684285672542039500000006766182617378723767_">
											<path class="st25" d="M-3554.6-180.7c0.8-0.2,1.6-0.4,2.5-0.6c18.1,23.7,36.3,47.4,54.4,71.1c0.8-1.8,1.7-4.1,2.4-6.8
												c0.6-2.4,0.9-4.6,1-6.5c-2.3-7.7-6.4-18.1-13.9-28.9c-12.4-17.8-27.7-27.4-36.4-32
												C-3548.8-183-3552.1-181.8-3554.6-180.7z"/>
											<path class="st25" d="M-3547.7-135.3c4.1,14.4,8.5,29.2,13.3,44.3c10.5,32.7,21.9,63.3,33.7,91.8
												c0.5-7.8,1-15.6,1.5-23.4c-3.2-7.6-8-19.5-12.9-34.4c-13.2-40.5-12.3-59.4-26.5-90.3c-3.7-8.1-9.5-19.5-18.4-32.3
												c-4.2,1.7-8.3,3.5-12.5,5.2c4.1,4.3,9,10.4,13.4,18.5C-3551.7-148.1-3549.2-140.9-3547.7-135.3z"/>
											<path class="st26" d="M-3543.9-158.3L-3543.9-158.3c14.1,21.8,13.3,39,28.5,90.4c3.2,10.7,8.3,26.8,16.2,46
												c0.2-6.9,0.3-14,0.3-21.2c0-20.1-0.9-39.3-2.5-57.3c1.2-3.3,2.5-6.6,3.7-9.8c-0.4-2.1-0.9-4.1-1.5-6.2
												c-8.8-31.4-32.7-52.4-52.8-65.3c-0.6,0.2-1.1,0.5-1.7,0.7c-1.4,0.6-2.8,1.2-4.1,1.9
												C-3553.7-172.8-3549.1-165.9-3543.9-158.3z"/>
										</g>
									</g>
								</g>
								<g transform="matrix( 1, 0, 0, 1, 0,0) ">
									<g>
										<g id="Cloth_1lady11_top_0_Layer1_2_MEMBER_0_FILL_00000137123964201165332540000015177182013419476872_">
											<path class="st39" d="M-3525-123.3l0.2,0.3c0,0,0,0-0.1,0L-3525-123.3z"/>
										</g>
									</g>
								</g>
							</g>
							<path class="st19" d="M-3612.8-547.5l1-0.4c0,0,0,0,0,0c0.3-0.2,1-0.3,1.9-0.1c1.9,0.2,4.8,1,8.7,2.4l0,0.3l0.3,0.2
								c-0.1,3.2-0.1,5.6-0.1,7.1c0,1.6-0.1,3.2-0.3,5c-0.2,1.7-0.5,3.7-0.8,5.9c-0.4,2.2-0.6,4.4-0.9,6.7c-0.3,2.2-0.5,4.4-0.7,6.6
								c-0.2,2-0.2,4.1-0.1,6.2c0,1,0.2,2.1,0.4,3.1c0.1,0.8,0.2,1.5,0.2,2.2l0,0l0.4,2.6c0.2,1,0.4,1.8,0.7,2.4
								c0.4,1.1,0.9,2.2,1.5,3.1l0.1,0.3c0,0,0,0,0,0.1c0,0,0,0,0,0l2.8,5l0.1,0.1c0,0,0,0,0,0c0,0.1,0,0.1,0,0.1c0,0,0,0,0,0
								c0,0,0,0.1,0,0.1l0.1,0.2l0.9,2.6c0,0,0,0,0,0c0.2,0.5,0.3,1,0.4,1.5c0,0.4,0.1,0.7,0.1,1.1l0.1,0.3c0.1,0.3,0.2,0.6,0.2,0.8
								c0.1,0.3,0.2,0.6,0.2,0.9c0,0.2,0.1,0.4,0.1,0.6l0.1,0.2l0,0.1c0,0,0,0.1,0,0.1l0.1,0.6c0.3,1.2,0.8,2.5,1.2,3.9c0,0,0,0,0,0
								l0,0.1c0,0.1-0.1,0.2-0.2,0.2c-0.2,0.1-0.5-0.1-1-0.4c0,0-0.1,0-0.1,0c-0.1-0.1-0.2-0.2-0.2-0.3c-0.8-0.6-1.4-1.7-1.9-3.2
								c-0.1-0.3-0.1-0.5-0.2-0.8c-0.1-0.1-0.1-0.2-0.1-0.3c-0.7-2.2-1.5-3.6-2.2-4.1c0.2,1,0.3,2.1,0.3,3.2l0,0.3v0l0.2,2.4
								c0.2,1.1,0.3,2.1,0.4,3.2c0,0.2,0.1,0.4,0,0.6c0.2,3,0.1,4.8-0.3,5.4c-0.1,0.1-0.1,0.1-0.3,0.1c0,0,0,0.1,0,0.1
								c0,0,0,0-0.1,0c0,0-0.1,0-0.1,0c0,0,0,0,0,0c-0.1,0-0.3-0.3-1-3.4c-0.2-0.6-0.3-1.4-0.5-2.1c0-0.2-0.1-0.4-0.1-0.6
								c-0.2-0.7-0.4-1.4-0.5-2.3c0,0,0,0,0,0c0-0.1,0-0.1,0-0.2c0,0.1-0.1,0.2-0.1,0.2c0,0,0,0,0,0c0,0,0,0,0,0v0c0,0,0,0,0,0v0
								c0,0,0,0,0,0l0,0c0,0,0,0,0,0v0v0c0,0,0,0,0,0l0,0c0,1.2,0.1,2.3,0.1,3.3c0,0.3,0,0.5,0,0.8c0,0.7,0,1.4,0,2
								c0,0.5,0,1.1-0.1,1.7c-0.1,0.5-0.3,0.9-0.5,1.1c0,0-0.1,0.1-0.2,0.1c-0.1,0-0.1,0-0.2,0c0,0,0,0-0.1,0l-0.3,0c0,0,0,0,0,0
								c-0.2-0.9-0.3-1.7-0.4-2.6c0-0.2-0.1-0.5-0.1-0.7c0,0.2,0,0.3,0,0.5l0,0c0,0.4-0.1,0.6-0.2,0.8c0,0,0,0,0,0.1
								c0,0,0,0.1-0.1,0.1c0,0,0,0,0,0l-0.1,0c0,0,0,0,0,0c-0.4-0.3-0.8-0.9-1.3-2c0-0.2-0.1-0.4-0.2-0.6c0,0,0,0,0,0
								c0-0.1,0-0.2-0.1-0.2c0,0,0,0,0,0c0,0.1,0,0.1,0,0.2c0,0,0,0,0,0l-0.1,0.1c0,0.2,0,0.4-0.1,0.5c0,0.1-0.1,0.1-0.1,0.1
								c0,0,0,0,0,0s0,0,0,0l-0.1-0.2c-0.4-0.6-0.8-1.3-1.1-1.9c-1.4-2.6-2.3-5.3-2.8-7.8c-0.2-1.1-0.4-2-0.5-2.8l-0.2-1.3
								c-0.1-0.5-0.1-0.8-0.1-0.9l0-0.1c0,0,0,0,0,0c0-0.1,0.1-0.2,0.1-0.3l0-0.2l0.2-5.6c0,0,0,0,0,0c0,0,0,0,0,0
								c0.3-2.7,0.3-5.2,0-7.5c-0.5-1.8-1-4.1-1.8-6.9c-1.2-4.8-2.1-11.7-2.5-20.7l-0.1-1.8
								C-3614.5-538.1-3613.8-543.8-3612.8-547.5z"/>
							<g transform="matrix( -0.8372955322265625, -0.6854705810546875, 0.6887054443359375, -0.8151092529296875, 45.65,-272.1) ">
								<g>
									<g id="a1_acton_3_Layer1_0_MEMBER_2_MEMBER_0_FILL_00000036962586176075321900000014241970950562786988_">
										<path class="st40" d="M2691.5-2020.1c-0.4-0.4-0.7-0.7-0.8-1c0.1-0.3,0.3-0.4,0.5-0.4c0.2,0.1,0.6,0.5,1.2,1.2
											C2692.2-2019.7,2691.9-2019.7,2691.5-2020.1z"/>
									</g>
								</g>
							</g>
							<g transform="matrix( -0.845703125, -0.67535400390625, 0.678314208984375, -0.8234710693359375, 49.7,-270.4) ">
								<g>
									<g id="a1_acton_3_Layer1_0_MEMBER_2_MEMBER_1_FILL_00000106116194555726263660000002611038500654201733_">
										<path class="st40" d="M2722-1990.5c-0.4-0.4-0.6-0.7-0.8-1c0.2-0.3,0.3-0.4,0.5-0.3c0.2,0.1,0.6,0.5,1.2,1.2
											C2722.7-1990.1,2722.3-1990.1,2722-1990.5z"/>
									</g>
								</g>
							</g>
							<g transform="matrix( -0.661712646484375, -0.8506622314453125, 0.8587799072265625, -0.64080810546875, 61.65,-268.5) ">
								<g>
									<g id="a1_acton_3_Layer1_0_MEMBER_2_MEMBER_2_FILL_00000089532320295862255670000014950707057289264562_">
										<path class="st40" d="M2185.6-2584.6c-0.5-0.2-0.9-0.4-1.2-0.6c0-0.4,0.1-0.5,0.3-0.5c0.2,0,0.7,0.2,1.6,0.5
											C2186.4-2584.6,2186.2-2584.4,2185.6-2584.6z"/>
									</g>
								</g>
							</g>
							<g transform="matrix( -0.4580841064453125, -0.58892822265625, 0.8587799072265625, -0.64080810546875, 67.5,-267.45) ">
								<g>
									<g id="a1_acton_3_Layer1_0_MEMBER_2_MEMBER_3_FILL_00000020362634739953038480000007368509094051389367_">
										<path class="st40" d="M3166.5-2588.7c-0.7-0.1-1.3-0.2-1.7-0.3c0-0.2,0.2-0.4,0.5-0.4c0.3,0,1,0.1,2.3,0.3
											C3167.6-2588.7,3167.3-2588.6,3166.5-2588.7z"/>
									</g>
								</g>
							</g>
							<g transform="matrix( -0.2173309326171875, -1.14288330078125, 1.005157470703125, -0.174072265625, 46.9,-264.05) ">
								<g>
									<g id="a1_acton_3_Layer1_0_MEMBER_2_MEMBER_4_FILL_00000132070934889996009030000017343477396343345559_">
										<path class="st40" d="M715-3468.9c0.5,0.4,0.5,0.7,0,0.7c-0.5,0-1.2,0.2-2,0.4c0.1-0.4,0.2-0.6,0.4-0.7
											C713.5-3468.7,714-3468.8,715-3468.9z"/>
									</g>
								</g>
							</g>
							<g transform="matrix( 1.0998382568359375, 0.017730712890625, -0.017730712890625, 1.0998382568359375, -2.05,-472) ">
								<path d="M-3267.4-113.3c0,0.9,0,2.1,0.7,3.4c1.1,2.2,3.3,3.2,4.3,3.6c-0.9-1-2.3-3.1-2-5.4c0.6-3.6,5.1-5.4,7.5-6.3
									c1.8-0.7,3.5-1,4.7-1.2c0,0-0.1,0.1-0.1,0.1c5.6-1,9.6-5.4,13.1-9.9l0,0c0.3-0.3,1.5-2.2,1.6-2.5c2.1-4.6,6.2-9.4,11.6-8.9
									l1-12.2c-0.1,0-0.1,0-0.2,0c0-0.1-0.1-0.1,0-0.2c0,0,0-0.1-0.1-0.1c-7.4-4.3-15.5-3.1-22.2,0.8c-9.2,5.3-12.9,14.5-13.8,17
									c-1.4,4-0.7,4.5-2.7,9.7C-3265.4-122.2-3267.4-118.1-3267.4-113.3z"/>
								<path d="M-3209-125.5c0-1.3,0.1-2.6,0-3.8c-0.1-3-0.5-5.7-1.1-8.2c-0.5-2-1.2-3.9-2-5.6c-0.9-1.9-2-3.5-3.3-5
									c-1.7-1.9-3.5-3.2-5.5-4c-1.1-0.4-2.2-0.6-3.3-0.7l-0.1,0c-0.2,0-0.5,0-0.7,0c0,0-0.1,0-0.1,0l-1,12.2l0,0
									c0.3,0,0.6,0.1,0.8,0.2c0.1,0,0.3,0.1,0.4,0.1c0.2,0,0.4,0.1,0.7,0.2c0.7,0.3,1.3,0.7,1.9,1.3c1.3,1.4,2.3,3,3.1,4.8
									c0.8,1.8,1.3,3.6,1.5,5.5c0.2,2,0.3,3.5,0.3,4.7c0,1.2-0.2,2.5-0.4,4l-0.5,3.3c-0.2,1.4-0.7,3.4-1.4,6.1
									c0,0.1-0.1,0.3-0.1,0.4c-1,3.4-2.3,6.3-4,8.5l-3.4,4.7l-0.2,2.6c0.2,1,0.5,1.8,0.9,2.6c0.1-0.2,0.3-0.4,0.4-0.7
									c0.7-1.1,1.7-2.3,2.8-3.6c0.4-0.5,0.9-1,1.4-1.5c1-1,1.8-1.8,2.3-2.3c-1.2,2.2-1.7,4-1.9,5.4c-0.4,2.2-0.4,5.3-0.4,5.3
									c0,0-0.1,0.2-0.1,0.2c0,0,1.3-4.2,2.8-7.6c1.5-3.4,2.7-4.6,4.2-7.2c1.4-2.3,3.1-5.8,4.4-10.6c0.2-0.6,0.3-1.3,0.5-1.9
									C-3209.5-118.8-3209.1-122-3209-125.5z"/>
							</g>
							<path class="st25" d="M-3578.2-340.5c3.3,1.3,10,3.3,18.4,2.4c8.1-0.8,14-3.9,17-5.8c0.6,6.4,1.2,12.7,1.9,19.1
								c-2.6,1.7-6.6,3.9-11.7,5.4c-5.4,1.6-9.8,1.7-11.8,1.7c-6.7,0-12-1.6-15.3-2.9c-4.2,1.2-12.6,2.9-22.8,0.7
								c-8.2-1.8-14.1-5.5-17.4-7.9c-1.4,0.1-5.2,0-8.9-2.5c-4.9-3.2-6.2-8.3-6.5-9.4c1.3-4.7,2.7-9.4,4-14.1c1.2,1.5,3.1,3.6,6,5.3
								c5.2,3.1,10.4,3,12.5,2.9c2.6,2,8.8,6.1,17.7,7.2C-3587.5-337.5-3581.3-339.3-3578.2-340.5z"/>
						</g>
					</g>
					<g transform="matrix( 1, 0, 0, 1, 0,0) ">
						<g>
							<g id="Layer5_48_MEMBER_2_FILL_00000178195548469675230100000015981848671845075100_">
								<path class="st41" d="M248.7,331.6c-4.2-0.7-4.4-0.9-4.5-1.1c-0.2-1,3.9-3.8,7.2-2.5c2.2,0.8,3.8,3.2,3.3,4.1
									C254.5,332.3,254.1,332.5,248.7,331.6z"/>
							</g>
						</g>
					</g>
					<g transform="matrix( 0.3377532958984375, 0, 0, 0.3377532958984375, 3216.95,368.4) ">
						<g>
							<g id="Layer4_0_MEMBER_8_FILL_00000012437757878437859440000008632978135093099932_">
								<path class="st34" d="M-8777.7-132c-0.6,0.1-2.4,0.4-4.6-0.2c-4.4-1.2-7.3-5.2-6.8-5.8c0.4-0.6,3.3,2.5,8.7,3.1
									c4.7,0.5,7.9-1.4,8.2-0.7C-8771.8-135-8774.5-132.7-8777.7-132z"/>
							</g>
						</g>
					</g>
					<g>
						<path class="st42" d="M217.6,317.7c-0.1,0.7,0,1.1,0.3,1.4c0.5,0.7,1.4,0.7,1.9,0c0.2-0.3,0.4-0.7,0.4-1.1c0-0.1,0-0.2,0-0.4
							c0-1.3-0.3-2.6-0.8-3.9c0,0,0,0,0,0c-0.8,1.1-1.4,2.3-1.7,3.5C217.7,317.4,217.7,317.5,217.6,317.7z"/>
						<path class="st43" d="M216.8,318.5c-0.2,1.7,0.4,2.7,1.7,2.8c1.7,0.2,2.5-1.1,2.4-3.9c0-0.2,0-0.3,0-0.5
							c-0.2-1.7-0.6-3.4-1.2-4.9c-0.9,1.2-1.6,2.6-2.2,4.1c-0.1,0.3-0.2,0.5-0.3,0.8C217,317.5,216.9,318,216.8,318.5z M217.6,317.7
							c0-0.2,0.1-0.3,0.1-0.4c0.3-1.2,0.9-2.4,1.7-3.5c0,0,0,0,0,0l0-0.2l0,0.3c0.5,1.3,0.8,2.6,0.8,3.9c0,0.1,0,0.2,0,0.4
							c0,0.2-0.1,0.7-0.4,1.2c0,0,0,0,0,0c-0.6,0.7-1.6,0.6-2-0.3C217.6,318.6,217.6,318.2,217.6,317.7z"/>
					</g>
				</g>
			</g>
		</g>
	</g>
</g>
</svg>
