<?xml version="1.0" encoding="utf-8"?>
<!-- Generator: Adobe Illustrator 26.0.1, SVG Export Plug-In . SVG Version: 6.00 Build 0)  -->
<svg version="1.1" id="Layer_1" xmlns="http://www.w3.org/2000/svg" xmlns:xlink="http://www.w3.org/1999/xlink" x="0px" y="0px"
	 viewBox="0 0 1000 1000" style="enable-background:new 0 0 1000 1000;" xml:space="preserve">
<style type="text/css">
	.st0{clip-path:url(#SVGID_00000111912129872832502210000016116469906107517877_);}
	.st1{fill:#BDDEEF;}
	.st2{fill:#52A7C1;}
	.st3{opacity:0.45;}
	.st4{fill:#F7DFC6;}
	.st5{fill:#DE9F7E;}
	.st6{fill:#D38A6A;}
	.st7{fill:#D34047;}
	.st8{fill:#B7303D;}
	.st9{fill:#FFFFFF;}
	.st10{fill:#D3D3D3;}
	.st11{fill:#FFFFFF;stroke:#D3D3D3;stroke-width:2.3967;stroke-miterlimit:10;}
	.st12{fill:#6B3628;}
	.st13{fill:#FCB856;}
	.st14{fill:#DD9373;}
</style>
<g>
	<g>
		<g>
			<g>
				<defs>
					<path id="SVGID_1_" d="M729.7,399.5c-10.4-18.6-22.7-35-35.3-48.8c-2.3-2.6-46.4-39.8-46.4-39.8c-1.2-1-2.5-1.9-3.7-2.9
						c-35.2-29.5-62-83.1-159.8-74.9c-45.6,3.8-75.4,22.3-96.7,47.3c-6.4,7.5-12.1,15.6-17.2,24.2c-15.7,26.2-26.1,56.3-36.7,82.6
						c-14.1,34.7-64.3,40.2-82.4,80.5c-16.5,19-25.1,49-29.4,70.7c-3.1,15.6-4,27-4,27c-4.9,109.4,93.4,193.2,194.8,223.6
						c22.7,6.8,45.5,10.9,67.4,12c10.3,0.5,20.4,0.4,30.2-0.4c2-0.2,4-0.4,6-0.6c1.4-0.2,2.8-0.3,4.2-0.5c1.2-0.1,2.3-0.3,3.5-0.5
						c0.6-0.1,1.3-0.2,1.9-0.3c0.6-0.1,1.2-0.2,1.9-0.3c32.9-5.1,69.7-16.5,103.4-34.1c0.2-0.1,0.3-0.2,0.5-0.3
						c54.5-28.6,100.9-73.2,109.8-132.8c7.9-39,18.7-61.7,18.7-120C762.3,472.6,729.7,399.5,729.7,399.5z"/>
				</defs>
				<clipPath id="SVGID_00000146463347380162454140000015418677090044032934_">
					<use xlink:href="#SVGID_1_"  style="overflow:visible;"/>
				</clipPath>
				<g style="clip-path:url(#SVGID_00000146463347380162454140000015418677090044032934_);">
					<rect x="88.7" y="232.2" class="st1" width="784.1" height="618.6"/>
					<rect x="88.6" y="642.2" class="st2" width="784.1" height="266.7"/>
					<g class="st3">
						<path class="st4" d="M238.1,372.1c-0.5-1.7-0.4-5.1,1.6-7.5c3.2-3.7,9.7-2.6,10.8-2.4c0.8-1.5,2.9-4.6,6.8-6.8
							c6.2-3.4,12.4-1.6,13.6-1.3c0.2-0.4,1.6-3.6,5.3-4.6c4.3-1.1,7.5,2,7.7,2.2c0.6-1.1,4.8-9.3,14.6-11.6
							c10.7-2.5,18.6,4.3,19.4,4.9c0.3-0.6,4.8-7.5,13.4-7.8c8.4-0.3,13.3,5.9,13.8,6.5c0.4-0.4,4.5-4.7,10.7-4
							c6.8,0.8,9.7,6.9,9.9,7.2c0.5-0.3,4.3-2.7,8.8-1.3c5.1,1.6,6.7,6.4,6.9,6.9c0.3-0.2,8.6-3.6,15.4,1.4c4.8,3.5,5.7,8.9,5.9,10
							c1.7-2.7,4.9-4,7.8-3.3c2.5,0.6,4.5,2.6,5.3,5.1c1.3-0.7,3.5-1.6,6-1.1c4.4,0.9,8.1,6,7.3,8.7c-1.5,5.2-20.2,3.4-43.8,2.6
							c-11.8-0.4-32.8,0.1-74.7,1.1C268.9,378.2,240.7,380.4,238.1,372.1z"/>
					</g>
					<g class="st3">
						<path class="st4" d="M565.3,325.8c-0.3-1.1-0.3-3.3,1-4.8c2-2.4,6.2-1.7,6.9-1.5c0.5-1,1.8-3,4.3-4.3c4-2.2,7.9-1.1,8.7-0.8
							c0.1-0.3,1-2.3,3.4-2.9c2.7-0.7,4.8,1.3,4.9,1.4c0.4-0.7,3.1-5.9,9.3-7.4c6.8-1.6,11.9,2.7,12.4,3.1c0.2-0.4,3.1-4.8,8.6-5
							c5.3-0.2,8.5,3.8,8.8,4.2c0.3-0.3,2.9-3,6.8-2.5c4.3,0.5,6.2,4.4,6.3,4.6c0.3-0.2,2.7-1.7,5.6-0.8c3.2,1,4.3,4.1,4.4,4.4
							c0.2-0.1,5.5-2.3,9.8,0.9c3.1,2.3,3.6,5.7,3.8,6.4c1.1-1.7,3.1-2.5,5-2.1c1.6,0.4,2.9,1.6,3.4,3.3c0.8-0.5,2.2-1,3.8-0.7
							c2.8,0.6,5.2,3.8,4.7,5.6c-0.9,3.3-12.9,2.2-27.9,1.7c-7.5-0.3-20.9,0.1-47.7,0.7C585,329.7,567,331.1,565.3,325.8z"/>
					</g>
					<g class="st3">
						<path class="st4" d="M500.4,286c-0.2-0.6-0.2-1.8,0.6-2.7c1.1-1.3,3.4-0.9,3.8-0.9c0.3-0.5,1-1.6,2.4-2.4
							c2.2-1.2,4.4-0.6,4.9-0.4c0.1-0.1,0.6-1.3,1.9-1.6c1.5-0.4,2.7,0.7,2.7,0.8c0.2-0.4,1.7-3.3,5.2-4.1c3.8-0.9,6.6,1.5,6.9,1.8
							c0.1-0.2,1.7-2.7,4.8-2.8c3-0.1,4.7,2.1,4.9,2.3c0.1-0.2,1.6-1.7,3.8-1.4c2.4,0.3,3.4,2.4,3.5,2.6c0.2-0.1,1.5-1,3.1-0.4
							c1.8,0.6,2.4,2.3,2.4,2.4c0.1-0.1,3.1-1.3,5.5,0.5c1.7,1.3,2,3.2,2.1,3.6c0.6-0.9,1.7-1.4,2.8-1.2c0.9,0.2,1.6,0.9,1.9,1.8
							c0.5-0.3,1.3-0.6,2.1-0.4c1.6,0.3,2.9,2.1,2.6,3.1c-0.5,1.9-7.2,1.2-15.6,0.9c-4.2-0.1-11.7,0-26.6,0.4
							C511.3,288.2,501.3,289,500.4,286z"/>
					</g>
				</g>
			</g>
			<path class="st2" d="M730.9,505.4c-4.9-4.5-10.9-6.3-17-6.1c-0.6-2.8-2.1-5.4-3.8-7c-1.5-1.4-3.5-2.3-5.6-2.7
				c0-14.3-10.8-28.5-23.7-33.7c-12.7-5.2-26.1-2.8-36,5.1c-2.4-1.4-5.4-1.9-8.4-1.7c0,0,0,0,0,0c0,0,0,0,0,0
				c-1.1,0.1-2.1,0.2-3.2,0.4c0,0,0,0,0,0c-1,0.2-2,0.5-3,0.8c-0.1,0-0.2,0.1-0.3,0.1c-0.5,0.2-1,0.4-1.5,0.6
				c-0.1,0.1-0.3,0.1-0.4,0.2c-0.2,0.1-0.5,0.2-0.7,0.3c-0.2,0.1-0.4,0.2-0.6,0.3c-0.2,0.1-0.4,0.2-0.6,0.3c-0.3,0.2-0.7,0.4-1,0.6
				c-0.1,0.1-0.3,0.2-0.4,0.3c-0.3,0.2-0.6,0.4-0.9,0.6c-0.1,0-0.1,0.1-0.2,0.1c-0.4,0.3-0.7,0.5-1,0.8c-0.1,0.1-0.2,0.1-0.3,0.2
				c-0.3,0.3-0.6,0.6-0.9,0.9c-0.6,0.6-1.2,1.3-1.7,2c-1.3,1.8-2.4,3.8-3.1,5.9c-0.7,2.1-1.2,4.4-1.2,6.7c0,0.5,0,0.9,0,1.4
				c0,1.4,0.2,2.7,0.6,4c-2.2-0.5-4.6,0.4-6.1,2.5c-0.8,1.2-1.3,2.8-1.3,4.4c-0.8-0.1-1.6-0.2-2.4-0.2c-8.6-0.1-16.7,7-21.5,14.8
				c-0.4,0.7-0.8,1.4-1.2,2.2c-0.4,0.7-0.7,1.4-1.1,2.2c-0.6,1.4-1.2,2.9-1.5,4.2c-0.5,1.9-0.8,3.9-0.8,6c-0.1,9,4.5,18.7,13.1,21.3
				c1.6,6.5,6.6,12.5,12.3,15.1c0.3,0.1,0.6,0.3,0.9,0.4c1.6,0.5,3.5,0.8,5.5,0.8c3.2,0,6.5-0.8,9.4-2.3c0.7-0.4,1.4-0.8,2-1.2
				c0.2,0.3,0.4,0.7,0.6,1c0.1,0.2,0.2,0.3,0.4,0.5c1,1.2,2.3,2.3,3.8,2.8c0.9,0.3,1.9,0.4,2.9,0.3c1.3-0.2,2.9-1,4-2.2
				c1.4,1.1,3,1.9,4.7,2.7s3.4,1.4,5,1.9c2.3,0.7,4.8,1.3,7.5,1.7c-0.3,7.2-2,14.6-3,21c-1.8,11.3-4.2,22.4-6.6,33.6
				c-1,4.7-1.8,9.5-2.4,14.2c-0.4,3.4-1.5,8.3-0.8,12.1h17.3h8.7c0.8-4.4-1.1-9.2-1.5-13.6c-0.5-5.2-0.5-10.4-0.5-15.7
				c0.1-10.9,0.8-21.8,0.4-32.8c-0.1-1.9-0.2-3.7-0.3-5.6c0.2-1.7,0.3-3.4,0.6-5.2c0,0,0-0.1,0-0.1c0.4-3.1,1.3-6,2.5-8.9
				c0.5-0.1,0.9-0.3,1.4-0.4c0.7,0.6,1.4,1.1,2.2,1.5c0.2,0.1,0.5,0.2,0.7,0.3c0.9,0.4,1.9,0.5,2.9,0.5c1.7-0.1,3.3-0.7,4.8-1.8
				c0.8-0.6,1.6-1.3,2.2-2.1c1.4,1,2.9,1.8,4.6,2.3c0.8,0.2,1.7,0.4,2.6,0.4c0.9,0,1.8,0,2.8-0.2c4.4-0.7,7.6-3.1,10-6.2
				c1.1-1.4,1.9-3,2.7-4.7c0.6,0.1,1.2,0.2,1.8,0.2c0.1,0,0.3,0,0.4,0c0.6,0,1.2,0.1,1.8,0.1c0.1,0,0.2,0,0.3,0c0.5,0,1.1,0,1.6,0
				c0.1,0,0.2,0,0.3,0c0.6,0,1.2-0.1,1.8-0.2c0.1,0,0.2,0,0.3,0c0.6-0.1,1.1-0.2,1.7-0.3c0.1,0,0.1,0,0.2,0c0.6-0.1,1.2-0.3,1.8-0.4
				c0.1,0,0.2-0.1,0.3-0.1c1.2-0.3,2.4-0.8,3.5-1.3c0.1,0,0.2-0.1,0.2-0.1c0.6-0.3,1.2-0.5,1.7-0.8c0,0,0.1,0,0.1,0
				c0.6-0.3,1.1-0.6,1.7-0.9c0,0,0.1,0,0.1-0.1c0.6-0.3,1.1-0.7,1.7-1.1c0,0,0.1-0.1,0.1-0.1c1.1-0.8,2.2-1.6,3.2-2.4
				c0,0,0.1-0.1,0.1-0.1c1-0.9,2-1.8,2.9-2.9c0,0,0,0,0.1-0.1c0.5-0.5,0.9-1,1.3-1.6c0,0,0,0,0,0v0c1.9-2.4,3.4-5,4.5-7.9
				C740.4,523.4,738.8,512.6,730.9,505.4z"/>
			<path class="st2" d="M347.3,558.5c-3.3-3-7.4-4.3-11.5-4.2c-0.4-1.9-1.4-3.7-2.5-4.7c-1-0.9-2.4-1.6-3.8-1.8
				c0-9.7-7.3-19.3-16-22.8c-8.6-3.5-17.7-1.9-24.4,3.4c-1.7-1-3.6-1.3-5.7-1.2c0,0,0,0,0,0c0,0,0,0,0,0c-0.7,0-1.4,0.1-2.2,0.3
				c0,0,0,0,0,0c-0.7,0.1-1.4,0.3-2,0.6c-0.1,0-0.1,0-0.2,0.1c-0.3,0.1-0.7,0.3-1,0.4c-0.1,0-0.2,0.1-0.3,0.1
				c-0.2,0.1-0.3,0.1-0.5,0.2c-0.1,0.1-0.3,0.1-0.4,0.2c-0.1,0.1-0.3,0.1-0.4,0.2c-0.2,0.1-0.5,0.3-0.7,0.4
				c-0.1,0.1-0.2,0.1-0.3,0.2c-0.2,0.1-0.4,0.3-0.6,0.4c0,0-0.1,0.1-0.1,0.1c-0.2,0.2-0.5,0.4-0.7,0.5c-0.1,0-0.1,0.1-0.2,0.1
				c-0.2,0.2-0.4,0.4-0.6,0.6c-0.4,0.4-0.8,0.9-1.2,1.3c-0.9,1.2-1.6,2.6-2.1,4c-0.5,1.5-0.8,3-0.8,4.5c0,0.3,0,0.6,0,0.9
				c0,0.9,0.2,1.8,0.4,2.7c-1.5-0.3-3.1,0.3-4.2,1.7c-0.6,0.8-0.9,1.9-0.9,3c-0.5-0.1-1.1-0.1-1.6-0.1c-5.8-0.1-11.3,4.7-14.5,10
				c-0.3,0.5-0.6,1-0.8,1.5c-0.3,0.5-0.5,1-0.7,1.5c-0.4,1-0.8,1.9-1,2.9c-0.3,1.3-0.5,2.7-0.5,4.1c0,6.1,3,12.6,8.9,14.4
				c1.1,4.4,4.5,8.5,8.3,10.2c0.2,0.1,0.4,0.2,0.6,0.2c1.1,0.4,2.4,0.5,3.7,0.5c2.1,0,4.4-0.5,6.3-1.5c0.5-0.2,0.9-0.5,1.3-0.8
				c0.1,0.2,0.3,0.5,0.4,0.7c0.1,0.1,0.2,0.2,0.2,0.3c0.7,0.8,1.6,1.5,2.6,1.9c0.6,0.2,1.3,0.3,2,0.2c0.9-0.1,2-0.7,2.7-1.5
				c1,0.7,2,1.3,3.2,1.8c1.1,0.5,2.3,0.9,3.4,1.3c1.5,0.5,3.3,0.9,5.1,1.1c-0.2,4.8-1.4,9.9-2,14.2c-1.2,7.6-2.9,15.2-4.5,22.7
				c-0.7,3.2-1.2,6.4-1.7,9.6c-0.3,2.3-1,5.6-0.5,8.2h11.7h5.9c0.5-2.9-0.7-6.2-1-9.2c-0.3-3.5-0.4-7.1-0.3-10.6
				c0.1-7.4,0.5-14.8,0.3-22.2c0-1.3-0.1-2.5-0.2-3.8c0.1-1.2,0.2-2.3,0.4-3.5c0,0,0,0,0-0.1c0.3-2.1,0.9-4.1,1.7-6
				c0.3-0.1,0.6-0.2,0.9-0.3c0.5,0.4,1,0.7,1.5,1c0.2,0.1,0.3,0.2,0.5,0.2c0.6,0.3,1.3,0.4,2,0.3c1.1-0.1,2.3-0.5,3.2-1.2
				c0.6-0.4,1.1-0.9,1.5-1.4c0.9,0.7,2,1.2,3.1,1.5c0.6,0.2,1.1,0.2,1.8,0.3c0.6,0,1.2,0,1.9-0.1c3-0.5,5.2-2.1,6.8-4.2
				c0.7-1,1.3-2.1,1.8-3.2c0.4,0.1,0.8,0.1,1.2,0.2c0.1,0,0.2,0,0.3,0c0.4,0,0.8,0.1,1.2,0.1c0.1,0,0.1,0,0.2,0c0.4,0,0.7,0,1.1,0
				c0.1,0,0.1,0,0.2,0c0.4,0,0.8-0.1,1.2-0.1c0.1,0,0.1,0,0.2,0c0.4-0.1,0.8-0.1,1.1-0.2c0,0,0.1,0,0.1,0c0.4-0.1,0.8-0.2,1.2-0.3
				c0.1,0,0.1,0,0.2-0.1c0.8-0.2,1.6-0.5,2.4-0.9c0.1,0,0.1,0,0.2-0.1c0.4-0.2,0.8-0.4,1.2-0.6c0,0,0,0,0.1,0
				c0.4-0.2,0.8-0.4,1.1-0.6c0,0,0,0,0.1,0c0.4-0.2,0.8-0.5,1.1-0.7c0,0,0.1,0,0.1-0.1c0.7-0.5,1.5-1.1,2.2-1.7c0,0,0.1,0,0.1-0.1
				c0.7-0.6,1.3-1.3,2-1.9c0,0,0,0,0,0c0.3-0.3,0.6-0.7,0.9-1.1c0,0,0,0,0,0v0c1.3-1.6,2.3-3.4,3.1-5.4
				C353.7,570.6,352.7,563.4,347.3,558.5z"/>
		</g>
	</g>
	<g>
		<g>
			<g>
				<g>
					<path class="st5" d="M538.7,390.3c-0.1,6.2-0.2,12.4-0.7,18.6c-0.3,3.6-0.8,7.3-1.8,10.8c-1.1,3.5-3.3,6.6-4.6,10
						c-1.2,3.1-1.9,6.3-2.3,9.6c-0.3,2.3-0.4,4.7-0.4,7h-71.3c0.3-4.4,0.1-8.9-1-13.3c-1-4.2-3.5-7.8-4.9-11.8
						c-2.1-6-1.9-12-2.5-18.2c-0.6-6.5-1.3-13.1-1.6-19.6c-0.2-4.2,0.4-10.4,0.7-14.6c0.1-1.3,0-5.1,1.7-5.8
						c10.4-1.9,28.3-15.5,28.3-15.5c0.7-1.6,1-3.7,1.2-5.9c0.1-0.9,0.1-1.8,0.1-2.7c0-2-0.1-4-0.2-5.8c4.8,2.6,10.8,3.3,16.1,3.3
						c4.9,0,9.8-0.7,14.5-2.2c-0.1,1.2-0.1,2.4-0.2,3.7c0,0.9,0,1.9,0.1,2.8c0.2,3.1,0.7,6.1,2,8.5c0.3,0.4,0.6,0.8,1,1
						c6.6,3.5,17,11.4,25.6,13c0.9,2.3,0.4,5.7,0.5,8.1C538.8,376.9,538.8,384.5,538.7,390.3z"/>
					<path class="st6" d="M509.5,337.8c0,0.6,0,1.2,0,1.7c-1.1,1.2-2.7,3-5,4.7c-2.8,2.1-5.8,4.2-9.9,4.4c-4,0.2-7-1.6-9.2-2.9
						c-2.9-1.7-4.9-3.7-6.1-5c0-0.6,0-1.3,0-1.9c0-2-0.1-4-0.2-5.8c4.8,2.6,10.8,3.3,16.1,3.3c4.9,0,9.8-0.7,14.5-2.2
						C509.6,335.3,509.5,336.5,509.5,337.8z"/>
					<path class="st5" d="M473.6,311.5c-0.5-1.8,0.5-2.3-1.4-3.1c-1.6-0.7-3,2.4-3.4,4.6c-0.3,2.2,1.9,9.9,3.2,11
						c1.3,1.1,2.9,1.5,3.4-0.4L473.6,311.5z"/>
					<path class="st5" d="M514.8,305.1c0.9,9.2,1.8,18.7-3.3,27.6c-0.4,0.8-2.1,3.5-5,6.4c-2.5,2.5-6,5.3-11.1,6.4
						c-1,0.2-2,0.2-2.9,0c-7.5-1.6-13.7-8.6-15.5-11.7c0,0,0,0,0,0c-0.2-0.3-0.5-0.7-0.7-1.2c-0.3-0.5-0.4-0.9-0.6-1.3c0,0,0,0,0,0
						c-1.8-4.8-2.2-18.3-2.5-26.1c-0.8-10.7,5.8-19.9,16.7-23.1c1.3-0.4,2.7-0.6,4-0.6h0c0.1,0,0.2,0,0.3,0c1.2,0,2.4,0.2,16.6,8.8
						C514.8,292.6,514,297.7,514.8,305.1z"/>
				</g>
				<g>
					<path class="st7" d="M450.6,374.3c-4.7-2.5-9.3-5.4-13.1-9.2c-8.7,12.6-19.6,28.7-22.3,34.4c5.5,4.1,18.1,12.5,23.6,21l3.1-4.5
						l11.9-17.1c3.8-5.8,7.5-11.6,11.3-17.3C460.2,379.3,455.3,376.9,450.6,374.3z"/>
				</g>
				<path class="st8" d="M443.8,413.8c-9-6.8-18-13.6-27.1-20.4c-1.5,1.9-3,4.1-4.6,6.4c-1.4,2.1-2.6,4.1-3.7,6
					c8.8,6.6,17.5,13.3,26.3,19.9c1.3-1.5,2.6-3.1,3.9-4.9C440.6,418.5,442.3,416.1,443.8,413.8z"/>
				<path class="st5" d="M465.9,713.5c-0.9-5.9-2.3-14.3-4.3-24.8c-1.1-5.5-2.5-12.6-4.4-20.8c0,0,12.6-12.4,23.4-6.5
					c8.1,4.4,5.4,20.5,2.4,52.8c-0.3,3.6-0.6,6.6-0.9,8.8c-4.9,0-9.9,0-14.8,0C467,720.7,466.5,717.4,465.9,713.5z"/>
				<path class="st5" d="M526.3,713.5c0.9-5.9,2.3-14.3,4.3-24.8c1.1-5.5,2.5-12.6,4.4-20.8c0,0-12.7-12.5-23.4-6.5
					c-7.7,4.3-5.4,20.5-2.4,52.8c0.3,3.6,0.6,6.6,0.9,8.8c4.9,0,9.9,0,14.8,0C525.2,720.7,525.7,717.4,526.3,713.5z"/>
				<path class="st9" d="M443.9,515.9c-2.3,30.6-3.2,57-3.5,77.7c-0.8,51.9,2.2,67.7,13.8,77.2c9.7,7.9,22.3,8.7,31.8,8
					c2.5-12.6,4.7-26.2,6.3-40.7c1.7-15.2,2.7-29.4,3.1-42.7c-1.5-25.3-3.1-50.6-4.6-76C475.2,518.2,459.5,517,443.9,515.9z"/>
				<path class="st9" d="M543,513.9c6.4,20.1,20.7,138.5-11,164.6c-4.2,6.9-20.3,7.5-25.4,1.8c-2.4-12.9-4.7-26.3-6.8-40
					c-2.7-18-4.9-35.4-6.7-52.2c-1.1-7-1.9-14.6-2.3-22.7c-0.9-17.5,0.5-33,2.6-46C498.9,513.4,537.5,510.5,543,513.9z"/>
				<g>
					<g>
						<path class="st10" d="M484.4,604.5c1.2,15.6-8.9,31.7-23.5,37.3c5.4-5.4,10.2-10.8,14.2-17.1
							C479.1,618.4,481.9,611.7,484.4,604.5L484.4,604.5z"/>
					</g>
					<g>
						<path class="st10" d="M485.8,617.9c4.9,13.9-0.6,30.9-12.5,39.5c3.4-6.2,6.5-12.3,8.6-19C484.1,631.7,485,624.9,485.8,617.9
							L485.8,617.9z"/>
					</g>
					<g>
						<path class="st10" d="M503.5,607.9c3.8,5.9,7.3,11.7,11.3,17.4c4,5.7,8.3,10.9,12.5,16.6C514.8,635.3,505.4,621.9,503.5,607.9
							L503.5,607.9z"/>
					</g>
					<g>
						<path class="st10" d="M500.9,621.2c2.4,6,4.6,11.6,7.5,17.2c2.9,5.6,6.2,10.7,9.7,16.1C506.7,648.1,499.6,634.2,500.9,621.2
							L500.9,621.2z"/>
					</g>
					<g>
						<path class="st10" d="M483.2,589.7c0.1,11.4-8.1,22.7-19,26.2c1.8-2.2,3.6-4.2,5.4-6.3C474.6,603.7,479.2,596.4,483.2,589.7
							L483.2,589.7z"/>
					</g>
					<g>
						<path class="st10" d="M505.2,592.6c4.3,5.1,8.7,11.5,12.9,16.7c1.4,1.9,2.9,3.7,4.3,5.8c-2.4-0.8-4.6-2-6.5-3.5
							C510,607,505.6,600.1,505.2,592.6L505.2,592.6z"/>
					</g>
					<path class="st11" d="M508,535.1c1.2,3.7-0.1,8.7-0.1,12.1c-0.2,7.8,0,15.6,0.1,23.3c0.3,15.7,1.1,31.5,0.5,47.3
						c-0.1,2.3,0.1,4.9-0.7,7.1c-2.8,7.5-19.5,10.1-25.6-0.9c-2.4-4.3-2-10.5-2.1-15.2c0-8.2,0.6-16.4,1.3-24.6
						c1.3-15,2.8-30.1,4.5-45.1c0.8-7.2,9.9-9.5,15.9-8.6c1.9,0.3,3.8,0.9,5,2.3C507.3,533.6,507.7,534.3,508,535.1z"/>
				</g>
				<path class="st7" d="M546.6,526.6c-13.1,4.6-33.5,9.9-58.7,9.3c-18.8-0.4-34.5-4-45.9-7.5c2.8-21.2,4.8-35.7,5.6-40.9
					c0.2-1.2,0.7-4.8,1.2-9.8c0.1-1.5,0.3-3.2,0.4-4.9c0.4-6.6,0.2-10.3,0.1-20.4c-0.1-15.2-0.2-14.4,0.1-20.3
					c0.1-1.4,0.1-2.9,0-4.4c-0.2-6.8-1.4-13.8-2.3-18.2c-0.6-2.9-1-4.7-1-4.7c-1.9-7.6-4-19.7-4.6-40.1c0-0.6,0-1.3-0.1-2
					c2.3-0.7,4.5-1.5,6.6-2.1c10.7-3.5,17.3-6.1,21.1-8c1-0.5,1.9-1,2.5-1.4c1.2-0.7,1.8-1.3,1.9-1.8c0.1-0.3,0.7-1.9,2.1-2.7
					c0.9-0.5,2.9-0.5,2.9-0.5c-1.5,3.4-2.5,6.8-2.8,10c-0.2,1.9,0,3.7,0.4,5.4c0.3,1,0.7,2.1,1.2,3c0.3,0.5,0.6,0.9,0.9,1.4
					c1.6,2.1,4,3.9,7.5,5.2c1.4,0.6,8.3,12,8.7,15c0,0,5.1-14.3,6.6-14.9c13.3-4.8,12.3-16.4,9.2-25.3c0.5,0.1,1.4,0.3,2.3,0.9
					c0.3,0.2,1.1,0.8,1.7,1.7c0.3,0.5,0.5,0.9,0.6,1.2c11,5.3,19.3,9,22.4,10.3c2.9,1.2,5.8,2.4,8.7,3.4c0,0.6,0,1.5,0.1,2.6
					c0.1,14-2.6,22.2-4.8,38.7c-1.5,11-3.1,23.8-4.5,49.6c-0.1,2.5-0.4,7.2,0.1,13.4c0.6,8.2,2.3,14.2,2.6,16.4
					C540.8,495,546.5,522.6,546.6,526.6z"/>
				<g>
					<path d="M494,358.2c-1.2,0-8.8-0.2-13-5.9c-1-1.3-1.5-2.6-1.8-3.4c-0.4-1.1-0.6-2.1-0.7-2.8c0,0,0-0.1,0-0.1
						c0-0.1-0.3-0.9,0.1-1.6c0.1-0.1,0.2-0.3,0.4-0.5c0.1,0.4,0.1,1,0.3,1.7c0,0,0.7,3.1,2.5,5.7c2.4,3.6,12,8.3,20.2,4.1
						c5.8-3,7.7-8.9,8.1-10.4c0.1,0.1,0.3,0.5,0.5,1c0.1,0.3,0.1,0.9,0.1,1c-0.7,1.6-2.3,6.5-8.2,9.4
						C501.5,356.8,498.3,358.3,494,358.2z"/>
				</g>
				<g>
					<path d="M473,326.6c-0.6,0-0.9-1.3-0.9-2.4l0.4,0.3c0,1.3,0.3,1.7,0.5,1.7s0.5-0.7,0.5-2c0-1.3-0.4-2-0.5-2
						c-0.1-0.1-0.1-0.3,0-0.4c0.6,0,0.9,1.2,0.9,2.4S473.7,326.6,473,326.6z"/>
				</g>
				<path class="st5" d="M514,311.6c0.5-1.8,0.2-2.6,1.8-3.2c1.6-0.6,3,2.4,3.4,4.6c0.3,2.2-1.9,9.9-3.2,11
					c-1.3,1.1-2.9,1.5-3.4-0.4L514,311.6z"/>
				<g>
					<path d="M515,326.6c0.6,0,0.9-1.3,0.9-2.4l-0.4,0.3c0,1.3-0.3,1.7-0.5,1.7s-0.5-0.7-0.5-2c0-1.3,0.4-2,0.5-2
						c0.1-0.1,0.1-0.3,0-0.4c-0.6,0-0.9,1.2-0.9,2.4S514.3,326.6,515,326.6z"/>
				</g>
				<path d="M513.1,316c0.2-0.4,0.4-0.7,0.6-1.1c0.3-1.9,0.6-3.8,1-5.7c0.8-2,1.5-4.7,1.9-7.9c0.6-4.5,0.7-9-1.8-12.4
					c-1.9-2.6-4.8-2.1-5.1-2.3c-10.8-17.8-33.3-1.7-35.9,4.3c-1,2.5-2.2,6.8-1.8,12.1c0.2,2.5,0.8,4.5,1.3,6.2
					c0.2,0.4,0.4,0.8,0.6,1.2c0.8,1.9,0.9,3.7,0.9,4.9c0.1,0.4,0.2,0.7,0.3,1.1c0.1-0.7,0.2-1.8,0.3-3.3c0.7-8.1,0.4-10.5,2.3-12.8
					c0.5-0.6,1.3-1.5,2.8-2.2c10.4,2.6,28.8-5.4,29.2-3.3c-0.1,1-0.1,2.6,0.2,4.5c0.4,2.6,1.3,4.5,1.7,5.3
					C512.7,307,513.6,310.5,513.1,316z"/>
				<g>
					<path class="st6" d="M500.6,334.6c0.1-0.6-3-2.2-6.5-2.2c-3.2,0-6.1,1.4-6,2c0,0.1,0.2,0.4,5,0.5
						C498,335,500.5,335,500.6,334.6z"/>
				</g>
				<g>
					<path class="st6" d="M491.4,326.9c-0.1,0.2,1.3,1.5,3.1,1.5c1.7,0,3-1.2,2.9-1.4c-0.1-0.2-1.1,0.5-2.9,0.5
						C492.6,327.4,491.4,326.7,491.4,326.9z"/>
				</g>
				<g>
					<path d="M510,308.2c-0.6,0.7-1.5,1.6-2.7,2.3c0,0,0,0,0,0c-0.7,0.4-1.5,0.6-2.2,0.5c-1.9-0.2-3.7-0.4-5.6-0.6
						c-0.1-0.2-0.3-0.5-0.4-0.9c-0.1-0.4-0.1-0.7,0-0.9c2.2,0.2,4.4,0.5,6.6,0.7c0.5,0.1,1,0,1.4-0.1
						C508.1,308.8,509,308.5,510,308.2z"/>
				</g>
				<g>
					<path d="M478.4,308.2c0.6,0.7,1.5,1.6,2.7,2.3c0,0,0,0,0,0c0.7,0.4,1.5,0.6,2.2,0.5c1.9-0.2,3.7-0.4,5.6-0.6
						c0.1-0.2,0.3-0.5,0.4-0.9c0.1-0.4,0.1-0.7,0-0.9c-2.2,0.2-4.4,0.5-6.6,0.7c-0.5,0.1-1,0-1.4-0.1
						C480.4,308.8,479.4,308.5,478.4,308.2z"/>
				</g>
				<g>
					<path d="M481.3,731.2c0.8,0.3,1.9,0.9,2.6,1.9c2.1,2.7,0.9,6.7-0.9,12.4c-1.4,4.5-3.2,9.8-5.4,15.6c-1,2-2.6,4.4-5.4,5.7
						c-7.6,3.5-19.3-3.9-19.9-11c-0.2-2.3,0.9-4.2,3-8.1c3-5.3,6.3-9,8.6-11.3C469.8,734.7,475.5,732.9,481.3,731.2z"/>
					<path class="st5" d="M465,731.2c-3,8-4.9,13.1-8.3,17.5c-0.6,0.8-1.8,2.3-2,4.4c0,0.4-0.3,2.9,1.4,5c0.5,0.6,0.8,0.7,3.3,2.3
						c3.4,2.1,3,2.1,3.8,2.5c1.7,0.9,4.1,2.1,6.6,1.7c3.8-0.7,5.7-4.9,6-5.5c0.6-1.8,1.2-3.6,1.7-5.4c1.2-3.7,1.9-5.9,3.1-10
						c1.1-3.7,1.7-5.6,1.8-6.2c0.3-3.1-0.4-4.5-0.5-8.7c-0.1-2.5,0.1-4.5,0.2-5.8c-2.2-0.6-5.3-1.1-8.9-0.9
						c-2.3,0.1-5.7-0.8-5.9,0.9C467,726.8,465.7,729.3,465,731.2z"/>
					<path d="M454.5,750.5c2.9,0.3,6.4,1,10.3,2.4c5.7,2,10.1,4.7,13,6.9c1-3.1,2-6.2,3.1-9.3c-1.5-1.7-4.4-4.7-9-6.7
						c-5.1-2.3-9.7-2.3-12-2.2C458.2,744.6,456.4,747.5,454.5,750.5z"/>
				</g>
				<g>
					<path d="M510.5,730.5c-0.8,0.3-1.9,0.8-2.8,1.8c-2.2,2.6-1.3,6.6,0.2,12.4c1.2,4.6,2.7,9.9,4.5,15.9c0.9,2.1,2.4,4.6,5,6
						c7.4,4,19.4-2.8,20.5-9.9c0.3-2.3-0.6-4.3-2.6-8.2c-2.7-5.4-5.7-9.3-7.9-11.8C521.8,734.6,516.1,732.6,510.5,730.5z"/>
					<path class="st5" d="M526.8,731.5c1.4,5,3.6,12.4,7.3,18c0.5,0.8,1.6,2.4,1.7,4.5c0,0.4,0.1,3-1.7,4.9
						c-0.5,0.6-0.8,0.7-3.4,2.1c-3.5,1.9-3.1,1.9-4,2.3c-1.7,0.8-4.2,1.9-6.7,1.3c-3.8-0.9-5.4-5.2-5.7-5.8c-0.5-1.8-1-3.6-1.4-5.5
						c-1-3.8-1.5-6-2.5-10.2c-0.9-3.8-1.4-5.6-1.4-6.3c-0.1-3.1,0.6-4.5,1-8.7c0.2-2.5,0.2-4.5,0.1-5.8c1.9-0.8,4.7-1.8,8.2-2.1
						c2.8-0.3,7.1-1.5,7,0.3C525,725.3,526.1,729,526.8,731.5z"/>
					<path d="M536.1,751.3c-2.9,0.2-6.5,0.7-10.5,1.8c-5.8,1.7-10.3,4.1-13.4,6.2c-0.8-3.1-1.7-6.3-2.5-9.4c1.6-1.6,4.6-4.4,9.3-6.2
						c5.2-2,9.8-1.8,12.1-1.5C532.8,745.2,534.4,748.2,536.1,751.3z"/>
				</g>
				<g>
					<path class="st7" d="M537.9,374.3c4.7-2.5,9.3-5.4,13.1-9.2c8.7,12.6,19.6,28.7,22.3,34.4c-5.5,4.1-18.1,12.5-23.6,21l-3.1-4.5
						L534.7,399c-3.8-5.8-7.5-11.6-11.3-17.3C528.3,379.3,533.2,376.9,537.9,374.3z"/>
				</g>
				<path class="st8" d="M544.7,413.8c9-6.8,18-13.6,27.1-20.4c1.5,1.9,3,4.1,4.6,6.4c1.4,2.1,2.6,4.1,3.7,6
					c-8.8,6.6-17.5,13.3-26.3,19.9c-1.3-1.5-2.6-3.1-3.9-4.9C547.9,418.5,546.2,416.1,544.7,413.8z"/>
			</g>
			<g>
				<path class="st9" d="M489.1,315.8c-0.2-0.3-1.2-2.1-3.2-2.4c-2.1-0.4-4.3,0.9-5.3,3.2c0.4,0.3,2,1.4,4.3,1.2
					C487.3,317.5,488.8,316.1,489.1,315.8z"/>
				<path class="st12" d="M487,315.1c0.2,1-0.4,2.1-1.5,2.3c-1,0.2-2.1-0.4-2.3-1.5c-0.2-1,0.4-2.1,1.5-2.3
					C485.8,313.4,486.8,314.1,487,315.1z"/>
				<path d="M489.1,315.8c-1.6-2.3-4.5-2.9-6.8-1.1c-0.7,0.5-1.3,1.2-1.7,2c0.1-0.4,0.3-0.9,0.5-1.3
					C483,312.1,487.7,312.1,489.1,315.8L489.1,315.8z"/>
				<path d="M486.1,315.4c0.1,0.5-0.2,1-0.7,1.1c-0.5,0.1-1-0.2-1.1-0.7c-0.1-0.5,0.2-1,0.7-1.1C485.5,314.6,486,314.9,486.1,315.4z
					"/>
				<path class="st9" d="M484.6,315c0,0.2-0.1,0.4-0.3,0.5c-0.2,0-0.4-0.1-0.5-0.3c0-0.2,0.1-0.4,0.3-0.5
					C484.4,314.7,484.6,314.8,484.6,315z"/>
			</g>
			<g>
				<path class="st9" d="M499.3,315.2c0.2-0.3,1.4-1.9,3.5-2c2.1-0.1,4.2,1.4,4.9,3.8c-0.5,0.3-2.2,1.1-4.4,0.7
					C500.9,317.2,499.6,315.6,499.3,315.2z"/>
				<path class="st12" d="M501.4,314.9c-0.4,1,0.2,2.1,1.2,2.5c1,0.4,2.1-0.2,2.5-1.2c0.4-1-0.2-2.1-1.2-2.5
					C502.9,313.3,501.8,313.9,501.4,314.9z"/>
				<path d="M499.3,315.2c1.9-2.1,4.8-2.4,6.9-0.3c0.6,0.6,1.1,1.4,1.5,2.2c-0.1-0.5-0.2-0.9-0.4-1.3
					C505.7,312.3,501.1,311.8,499.3,315.2L499.3,315.2z"/>
				<path d="M502.3,315.3c-0.2,0.5,0.1,1,0.6,1.2c0.5,0.2,1-0.1,1.2-0.6c0.2-0.5-0.1-1-0.6-1.2C503,314.5,502.5,314.8,502.3,315.3z"
					/>
				<path class="st9" d="M503.8,315c-0.1,0.2,0,0.4,0.2,0.5c0.2,0.1,0.4,0,0.5-0.2c0.1-0.2,0-0.4-0.2-0.5
					C504.1,314.7,503.9,314.8,503.8,315z"/>
			</g>
			<path id="XMLID_00000024701843070616802730000012545537909800994694_" class="st13" d="M471,296.2c9.7-7.9,41-6.7,45.7-5.5
				c0.8,0.3,1.8,2.2,1.3,5.2c0.9,1.9,1,4.5-0.3,5.4c0,0,0,0.1,0,0.1c0,0.7-0.6,1.3-1.3,1.3c-5.3-0.3-30-3.1-43.2,4.9
				c-0.6,0.4-1.4,0.1-1.7-0.5c-0.4-0.6-0.6-1.6-0.4-3.1c-1.3-1.1-1-4.1-0.6-4.8C470.5,297.7,470.6,296.5,471,296.2z"/>
			<path class="st13" d="M535.9,361.5c-0.6-5-5-5.4-6.4-5c-1.4-2.4-3.7-3.5-6.2-2.5c-0.5-1.7-4.5-3-5.6-2.2c0.3,8.1-1,86.7-11,115.6
				c-0.5,2.6,18.8,10.9,25.9,5.9C533.3,469.6,541.2,384,535.9,361.5z"/>
			<path class="st7" d="M444.6,508.2c-1.5,12.9-3.3,26.1-5.5,39.6c-0.9,5.7-1.9,11.4-2.9,17c12.4,4.6,30.6,9.9,53,10.9
				c27.4,1.3,49.6-4.3,63.3-8.9c-1.1-8.9-2.4-18.1-3.8-27.4c-1.5-9.6-3.1-19-4.7-28.1c-8.6,4.6-32.3,15.8-62.6,11.1
				C464.8,519.6,452.2,513.1,444.6,508.2z"/>
			<path class="st8" d="M486.2,371.6c-0.9,0.4-2.1,1.2-3.3,2.4c-2.8,3.1-2.3,6.4-3.5,6.7c-1.6,0.3-4.1-5.8-5.2-9.3
				c-0.9-2.7-2.2-7-2.1-12.9c0.1-3.7,0.8-6.8,1.4-8.9c0.1-0.4,0.5-1.6,1.8-2.5c1.4-1,2.9-0.8,3.2-0.7c-0.7,1-4,6.2-2.6,12.9
				C477.8,367.8,485.5,371.3,486.2,371.6z"/>
			<path class="st8" d="M500.9,371.5c0.8,0.5,2,1.3,3.1,2.6c2.6,3.3,1.9,6.6,3.1,6.9c1.6,0.4,4.5-5.5,5.8-8.9
				c1.1-2.7,2.7-6.9,2.9-12.8c0.1-2.7-0.1-5.1-0.5-7.1c-0.2-0.9-0.3-1.6-0.4-1.9c-0.2-0.8-0.4-1.6-0.6-2.1c-0.7-1.4-2.6-2-4-2.2
				c0.8,1.9,1.4,4.3,1.4,7.1C511.7,363.8,502.3,370.6,500.9,371.5z"/>
			<g>
				<path class="st8" d="M500.9,371.5c-1.6,3.5-3,7-4.3,10.6c-1.3,3.6-2.3,7-2.6,10.9c-0.7,7.5-0.8,15.2-0.7,22.8
					c0,3.8,0.1,7.6,0.2,11.4l-0.5-0.4c2.8-0.1,5.5-0.2,8.3-0.2c-2.9,0.4-5.8,0.7-8.7,1.1c-0.8-7.8-1.2-15.6-1.1-23.4
					c0.2-5.8,0.4-11.6,1.9-17.2C495.5,381.6,497.9,376.5,500.9,371.5L500.9,371.5z"/>
			</g>
			<circle class="st8" cx="497.5" cy="391.4" r="1.8"/>
			<circle class="st8" cx="496.9" cy="407.9" r="1.8"/>
			<circle class="st8" cx="496.9" cy="422.2" r="1.8"/>
		</g>
		<g>
			<path class="st14" d="M462.4,340.1c-4.7,11.7-7.5,21.4-9.3,28c-4.8,18.4-5.6,30.3-14.2,45.9c-2.5,4.5-4.8,7.9-6.4,10
				c-1.5,0.5-3.7,1.1-6.4,1.7c-4.2,0.9-6.3,1.3-8,0.7c-3-1-4.7-3.7-6.9-7.3c-1.4-2.2-2.3-3.8-2.6-6.1c-0.5-3.9,1.2-7.1,2.1-8.7
				c4.4-8.1,20-33.6,41.7-67.7C455.7,337.9,459,339,462.4,340.1z"/>
			<path class="st14" d="M526.1,340.1c4.8,11.6,7.6,21.4,9.3,28c4.8,19,5.1,31.6,14.5,47.2c2.4,3.9,4.6,6.9,6.1,8.7
				c1.4,0.5,3.5,1.1,6.1,1.7c4,0.8,6,1.3,7.8,0.7c3.2-0.9,5-3.7,7.1-6.9c1.4-2.1,2.5-3.9,2.9-6.4c0.5-3.9-1.2-7.1-2.1-8.7
				c-4.4-8.1-20-33.6-41.7-67.7C532.8,337.9,529.5,339,526.1,340.1z"/>
			<path class="st14" d="M475.3,315.3c0,1.1-0.6,3.2-2.2,6.9c-1.7,3.8-0.4,4-3.5,8.8c-1.3,2-1.8,2.4-2.8,3.6c-0.5,0.6-0.8,1-1,1.3
				c-0.4,0.5-0.9,1.2-1.7,2.2c-0.5,0.6-1,1.3-1.7,2.1c-0.4,1.1-0.8,2.2-1.2,3.3c-1.1-0.7-2.2-1.3-3.5-1.9c-2.1-1.1-4.2-1.8-6-2.4
				c0.3-1.7,0.8-4.1,1.5-7c1.4-6.2,1.9-9.5,3.4-12.7c2.1-4.4,2.8-6.8,5.1-9.3c3.7-4.2,8.3-6.2,11.5-7.1c0.2,0.2,0.8,1.1,0.5,2.3
				c-0.3,1.9-2.3,2.7-2.4,2.7c-4.5,2.8-7,6.5-7.6,9.2c-0.5,2.4,0,4.8,0,4.8c0.1,0.7,0.3,1.3,0.5,1.7c0,0,0.1,0,0.2,0
				c0.7-0.1,2.4-0.5,3.7-1.9c0.9-0.9,1.2-1.9,1.3-2.4c0.1-0.6,0.6-1.9,1.7-3.1c0.9-0.9,2.5-2,3.4-1.9c0.1,0,0.2,0,0.3,0.1
				C475.1,314.5,475.3,314.8,475.3,315.3z"/>
		</g>
		<g>
			<path class="st14" d="M513.2,315.3c0,1.1,0.6,3.2,2.2,6.9c1.7,3.8,0.4,4,3.5,8.8c1.3,2,1.8,2.4,2.8,3.6c0.5,0.6,0.8,1,1,1.3
				c0.4,0.5,0.9,1.2,1.7,2.2c0.5,0.6,1,1.3,1.7,2.1c0.4,1.1,0.8,2.2,1.2,3.3c1.1-0.7,2.2-1.3,3.5-1.9c2.1-1.1,4.2-1.8,6-2.4
				c-0.3-1.7-0.8-4.1-1.5-7c-1.4-6.2-1.9-9.5-3.4-12.7c-2.1-4.4-2.8-6.8-5.1-9.3c-3.7-4.2-8.3-6.2-11.5-7.1
				c-0.2,0.2-0.8,1.1-0.5,2.3c0.3,1.9,2.3,2.7,2.4,2.7c4.5,2.8,7,6.5,7.6,9.2c0.5,2.4,0,4.8,0,4.8c-0.1,0.7-0.3,1.3-0.5,1.7
				c0,0-0.1,0-0.2,0c-0.7-0.1-2.4-0.5-3.7-1.9c-0.9-0.9-1.2-1.9-1.3-2.4c-0.1-0.6-0.6-1.9-1.7-3.1c-0.9-0.9-2.5-2-3.4-1.9
				c-0.1,0-0.2,0-0.3,0.1C513.4,314.5,513.2,314.8,513.2,315.3z"/>
		</g>
	</g>
</g>
</svg>
