<?xml version="1.0" encoding="utf-8"?>
<!-- Generator: Adobe Illustrator 26.0.1, SVG Export Plug-In . SVG Version: 6.00 Build 0)  -->
<svg version="1.1" id="Layer_1" xmlns="http://www.w3.org/2000/svg" xmlns:xlink="http://www.w3.org/1999/xlink" x="0px" y="0px"
	 viewBox="0 0 1000 1000" style="enable-background:new 0 0 1000 1000;" xml:space="preserve">
<style type="text/css">
	.st0{fill:#BDDEEF;}
	.st1{fill:#99CCE0;}
	.st2{fill:#FFFFFF;}
	.st3{fill:#444951;}
	.st4{fill:#FCA170;}
	.st5{fill:#EA916A;}
	.st6{fill:#A19AAD;}
	.st7{fill:#C0B8CF;}
	.st8{fill:#B5AEB0;}
	.st9{fill:#17140C;}
	.st10{fill:#E8E8E8;}
	.st11{fill:#754026;}
	.st12{fill:#FF9017;}
	.st13{fill:#FF3C00;}
	.st14{fill:#004345;}
	.st15{fill:#006370;}
	.st16{fill:#E5B19C;}
	.st17{fill:#A5A5A5;}
	.st18{fill:#BECCCA;}
	.st19{fill:#686B6B;}
	.st20{fill:#0D726E;}
	.st21{fill:#E6E6FF;}
	.st22{fill:#BFAD45;}
	.st23{fill:#6F7F87;}
	.st24{fill:#11B7AE;}
	.st25{fill:#BC2800;}
	.st26{fill:#D1DEE5;}
	.st27{fill:#576C7C;}
	.st28{fill:#52A7C1;}
	.st29{clip-path:url(#SVGID_00000105392473665835148370000011570570406710581903_);fill:#ADADAD;}
	.st30{clip-path:url(#SVGID_00000105392473665835148370000011570570406710581903_);}
	.st31{fill:#FFF8ED;}
	.st32{fill:#08161C;}
	.st33{fill:#00223D;}
	.st34{fill:#212121;}
	.st35{fill:#F28E62;}
	.st36{fill:#D33F33;}
	.st37{fill:none;stroke:#000000;stroke-miterlimit:10;}
	.st38{fill:#ADADAD;}
	.st39{fill:#4F2921;}
</style>
<g>
	<g>
		<path class="st0" d="M183.8,740.4c0,0-133.4-192.2-52.9-268.9c80.5-76.6,157.2-8.3,172.5-91c14.1-76.2,68-150.3,166-126.4
			C595.2,284.8,581.3,371.5,643.1,365c61.8-6.5,167.4-55,186.6,36.9c19.1,91.9-70.4,170.8-13.4,164.3c39.2-4.5,89.3-14.5,63.4,80.4
			c-16.5,60.4-40.5,93.8-40.5,93.8H183.8z"/>
		<g>
			<path class="st1" d="M167.4,686.8c23.9-10,50.1,15.4,50.1,15.4s-22.4-23.2-22.9-56.1c-0.3-23.4,20.3-57.5,27.6-58.7
				c7.3-1.2,27.1,20.7,32,62.4c2.2,19.5-7.5,48.7-7.5,48.7s17.2-39.7,54-40.5c2.8,9.7-7.2,31.1-14.7,43.8c-6.5,11-22.9,30.3-58.3,26
				C184.2,722.7,166.9,687.1,167.4,686.8z"/>
			<path class="st2" d="M213.9,604.2c3,6.5,6,12.7,9.7,18.8c-0.3-9.9-0.8-20.1-0.1-29.9c0.1-0.9,1.3-0.9,1.4,0
				c0.5,5.9,0.4,11.9,0.4,17.9c0.7-1.3,1.3-2.6,1.7-4c0.7-2.1,0.5-4.3,0.7-6.5l0.5-0.1c1.6,3.9-0.4,8.6-2.9,11.9
				c-0.1,4.1-0.1,8.2-0.1,12.3c0.1,10.2,0.5,20.4,1.2,30.5c3.8-11.1,8.6-21.7,11.8-33l0.5,0.1c-1.5,11.7-7,23.2-12,33.8l-0.2,0.1
				l0,0.7c0.9,13,2.5,26.1,5.1,38.9c7.2-12.1,12-24.3,16.2-37.7c0.1-0.3,0.5-0.2,0.5,0.1c-2.2,13-8.2,27.9-16.5,38.3l-0.1,0
				c1.8,8.5,4,16.9,6.9,25.1c0.1,0.4-0.5,0.6-0.6,0.2c-7.2-19.7-10.8-40.2-12.6-61c-1-11.3-1.5-22.7-1.8-34.1c0-0.8,0-1.7-0.1-2.6
				c-4.4-5.8-8.3-12.7-10-19.8L213.9,604.2z"/>
			<path class="st2" d="M175.1,687.7c4.2,2.9,7.9,6.5,12.1,9.4c3.2,2.2,6.5,4.2,9.9,6.1c-2.9-2.8-5.7-5.8-8.2-9l0.4-0.3
				c3.4,2.7,6.1,6.4,9,9.7l0,0.3c1.4,0.8,2.8,1.6,4.3,2.3c6.5,3.5,13.2,6.5,19.8,9.9c-4-3.4-7.5-7.4-11.7-10.6
				c-0.3-0.2,0-0.6,0.3-0.5c5.5,2.5,9.3,7.9,13.6,12l0.1,0.2c2.5,1.3,5,2.7,7.4,4.2c0.4,0.3,0.1,0.9-0.4,0.6
				c-10.5-4.9-21.1-9.9-31.3-15.4c-8.7-4.6-19.7-10.2-25.7-18.4C174.3,687.9,174.8,687.5,175.1,687.7z"/>
			<path class="st2" d="M242.8,718.5c1.5-1,2.9-1.9,4.4-2.9l0,0c2.2-4.3,5.3-8.1,7.6-12.4c2.5-4.8,4.6-9.9,5.9-15.2l0.4,0.1
				c-0.8,5.5-3,10.6-5.4,15.6c-1.5,3.2-3.4,7.1-5.9,10.1c5.3-3.7,10.4-7.5,15.3-11.6c3.4-9.2,7-18.4,10.5-27.7
				c0.1-0.3,0.6-0.2,0.5,0.1c-2.7,8.9-5.6,18.1-9.9,26.5c2.7-2.3,5.3-4.7,7.8-7.3c2.7-2.7,5.3-5.6,7.7-8.7l-0.1-0.3
				c1.6-6,3.8-12.1,6-17.9l0.4,0.1c-1.9,5.4-2.8,11.7-5.4,16.9c1.7-2.2,3.3-4.4,4.8-6.6c3.4-5.2,5.2-11.2,8.4-16.5
				c0.2-0.3,0.7-0.2,0.6,0.2c-0.5,5.4-4,11-6.8,15.6c-3.7,6.1-8.4,11.7-13.3,16.9c-7.1,7.5-15.3,14.5-24.2,20.1
				c3.2-0.3,6.3-0.4,9.5-1.2c4.2-1.1,8-3.2,11.8-5.3c0.3-0.2,0.6,0.3,0.3,0.5c-6.5,4.2-15.1,8.4-23.2,6.9c-2.5,1.5-5,3-7.5,4.3
				C242.8,719.1,242.6,718.7,242.8,718.5z"/>
			<path class="st2" d="M203.5,654.3c4.6,6.8,7.8,14.6,11.7,21.8c4.6,8.3,9.8,15.8,15.9,23.1l-0.3,0.3c-6.3-6.2-11.1-13.7-15.5-21.2
				c-4.4-7.5-9.1-15.6-12.3-23.7C203,654.2,203.4,654,203.5,654.3z"/>
			<path class="st2" d="M205.8,621.3c6.7,12.7,11.8,25.9,19.4,38.2l-0.3,0.3c-8.9-10.9-14.2-25.3-19.5-38.2L205.8,621.3z"/>
			<path class="st2" d="M194.4,708.1c2.8,0.5,5.5,1.5,8.1,2.5c3,1,6.1,1.7,9.1,2.7l-0.1,0.4c-5.7-0.1-12.1-3.2-17.2-5.3L194.4,708.1
				z"/>
			<path class="st2" d="M175.7,693.1c1.7,0.6,3.2,1.7,4.8,2.5c1.7,0.9,3.4,1.7,5,2.7c0.2,0.1,0.1,0.6-0.2,0.5
				c-3.2-1.2-7.6-2.6-9.8-5.3L175.7,693.1z"/>
			<path class="st2" d="M276.5,693.9c2.9-2,6.1-3.5,8.9-5.5c3.3-2.3,6.2-5.1,8.9-8c0.3-0.3,0.7,0.1,0.4,0.4
				c-4.6,5.4-11,11.6-18.1,13.4L276.5,693.9z"/>
		</g>
		<g>
			<path class="st2" d="M210.5,750.4c-0.2,0-0.3-0.1-0.4-0.2c-0.2-0.2-0.2-0.6,0.1-0.8l11.5-9.7c0.2-0.2,0.6-0.2,0.8,0.1
				c0.2,0.2,0.2,0.6-0.1,0.8l-11.5,9.7C210.8,750.3,210.7,750.4,210.5,750.4z"/>
		</g>
		<g>
			<g>
				<g>
					<g>
						<path class="st3" d="M510.7,599.1l-1.1,17.3l0,0.1l-1.7,27.9l-0.1,2.1l-0.5,8l-0.3,5.2l-0.4,5.8l-2.3,37.4l-0.2,3.3l-0.9,14.2
							v0l-0.1,1.5l-0.3,4.4l-0.2,2.8l-0.5,8.5l-0.3,4.9h-99.7l-0.3-4.9l-0.3-5l-0.4-6.2l-0.1-1.8l-0.3-4.1l0-0.1v0l-0.4-6.3
							l-1.5-23.3l-0.4-6.4l-1.7-25.3l0-0.2l-0.2-3.5l-0.6-9l-0.1-0.8l0,0l-0.4-5.7l-0.1-1l-1.8-27.2l0-0.3l-0.8-12.5
							c-0.7-10.3,5.8-19.1,14.1-19.1h89.8C504.8,580.1,511.3,588.8,510.7,599.1z"/>
						<g>
							<g>
								<path class="st2" d="M470.8,600.1c1.5,1.3,3,2.6,4.5,3.8c7.5,2.1,15.9,4.9,24.9,8.9c5.8,2.6,11.1,5.3,15.8,8.1
									c-0.1,2.2-0.2,5.6-0.7,9.7c-1.4,13.5-4.3,23.3-5.5,27.2c-2.4,8.6-5.3,21.3-6.7,39.4c0.7,12.3,1.4,24.6,2.1,36.8
									c-35.6-0.4-71.2-0.7-106.9-1.1c0.9-11.6,0.6-21.1,0.1-27.7c-0.9-12.4-2.8-21.8-9.3-55.5c-0.1-0.4-0.3-1.5-0.6-2.8
									c-1.2-5.5-2.6-9.5-2.9-10.3c-1.3-3.9-3.4-9.1-6.8-14.9c9-3.9,16.2-6.8,21.3-8.7c5.6-2.2,10.9-5.1,16.6-7
									c1.7-0.6,5.2-1.7,8.9-4.6c1.9-1.5,3.3-3,4.2-4.1l10.8-2.1l23.1,2.7L470.8,600.1z"/>
								<path class="st4" d="M469.5,602c0,0,0,2.7,0,3.3v6.9c0,0.4-1.5,8.5-1.5,8.5s-10.9,10.4-11.4,10.9
									c-0.5,0.5-12.1,1.1-12.1,1.1s-9.9-9.3-10.3-9.8c-0.4-0.5-1.1-9.5-1.1-10.1c0-0.5-0.2-3.5-0.3-4.9c0-0.3,0-0.6,0-0.7
									c0-0.6-0.4-4.2-0.4-4.2l1.5-5.9c0,0,18.1-0.4,19.3-0.4C454.4,596.6,469.5,602,469.5,602z"/>
								<path class="st5" d="M469.1,601.1c-0.4,0.7-0.8,1.4-1.2,2.1c-1,2.3-2.8,5.7-6.1,9.1c-2.9,3-7.3,7.4-12.7,6.9
									c-3.9-0.3-6.7-3-9.7-6c-3-2.9-4.8-5.9-5.8-8c-0.5-1-1-2-1.5-3.1c0,0,1.5-5.9,1.5-5.9C441.2,593.5,461.9,596.1,469.1,601.1z"
									/>
								<path class="st6" d="M455.1,642.9l5.5,24.8c2.2,9.8,3.2,19.8,3,29.8c-0.2,12.5-0.4,25-0.6,37.5c-7.7-0.2-15.4-0.3-23.1-0.5
									c0.5-14.2,1-28.4,1.5-42.6c0.2-4.9,0.6-9.8,1.4-14.7l5.2-34.4L455.1,642.9z"/>
								<path class="st7" d="M460.5,629.3c0,0-3-0.1-3.9-0.2s-3.5-0.5-4.8-0.4c-0.3,0-0.9-0.1-1.3-0.1c-0.6,0-1.5,0-2.2,0
									c-1.3,0.1-6.9,0.8-7.2,0.8c-0.2,0.1-0.6,0.6-0.6,0.6l7.5,12.7l7,0.1l7.5-12L460.5,629.3z"/>
								<path class="st8" d="M469.6,603c-0.4,3.8-2.1,10.5-5,14.3c-3,3.9-6.8,6.8-8.7,8c-1.9,1.2-3.4,2.7-4,3.4c1.5,0,4.5-0.1,7,2
									c0.6,0.5,7.9,6,7.9,6c1.9-2.8,4.7-7.7,6.2-14.2c1.6-7.1,1-13,0.4-16.4l-2-4.2l-0.6-0.7L469.6,603z"/>
								<path class="st8" d="M432.8,601.1c0,0-0.2,4.5,0.1,6.1c0.5,3.5,3.2,8,6.3,11.8c2.8,3.4,9.1,6.6,11.4,9.7
									c-2,0.1-5.3,0.6-9,2.3c-3.3,1.6-5.5,3.6-6.9,5c-2-3.2-4.9-8.9-6.2-16.4c-1.4-8.7,0.1-15.8,1.2-19.7l1.8-1.2L432.8,601.1z"/>
								<path class="st4" d="M476.5,570.7c0.6-0.3,0.8-0.6,1.4-0.4c0.4,0.1,1,0.6,1.2,1.1c0.3,0.8,0.6,2.2,0.1,3.9
									c-0.1,0.5-0.6,2.7-0.9,3.6c-0.4,1.1-0.8,4.5-1.2,5.3c-0.4,0.8-1,3.4-1.5,4.1c-0.5,0.7-0.9,1.9-2.4,2.2c-0.5,0.1-1-0.1-1-0.1
									s-0.9-9.3-0.8-11.2s1.9-5.6,2.1-6.5C473.7,571.8,476.5,570.7,476.5,570.7z"/>
								<path class="st4" d="M425.3,571.3c-0.6-0.3-0.7-0.6-1.4-0.5c-0.4,0.1-1,0.5-1.2,1.1c-0.3,0.8-0.6,2.2-0.2,3.9
									c0.1,0.5,0.5,2.7,0.9,3.6c0.4,1.2,0.8,4.5,1.1,5.4c0.3,0.8,1,3.4,1.5,4.2s0.9,2,2.4,2.2c0.5,0.1,1-0.1,1-0.1
									s1.1-9.3,0.9-11.2s-1.8-5.7-2-6.6C428.1,572.5,425.3,571.3,425.3,571.3z"/>
								<path class="st4" d="M476,565.6c0.8,23.9-12.1,51.4-25.4,51.5c-7.3,0.1-12.9-8-15.8-12.1c-6.6-9.5-6.8-19.6-7-31.8
									c-0.1-6,0.2-14.1,2.2-23.7c0.4-2.2,15.1-5.8,21.5-5.9c6.3,0.1,21.8,4.8,22.2,7C474.7,554.3,475.8,559.4,476,565.6z"/>
								<g>
									<path class="st5" d="M473.8,573.3c0.2-0.2,0.4-0.3,0.7-0.3c0.1,0,0.2,0,0.4,0.1c0.1-0.3,0.1-0.7,0.2-1
										c-0.2,0-0.3-0.1-0.5-0.1c-0.6,0-1.1,0.3-1.5,0.7c-0.4,0.5-0.8,1.1-1,1.7c-0.6,1.8-0.1,3.5,0.3,4.8c-0.7,0-1.3,0.4-1.6,0.9
										c-0.2,0.4-0.4,0.8-0.5,1.2c-0.3,1.2,0.1,2.2,0.3,2.7l0,0.1c0.1,0.2,0.1,0.4,0.2,0.5c-0.2-0.1-0.5-0.2-0.7-0.2
										c-0.7,0-1.2,0.3-1.6,0.9c-0.2,0.2-0.3,0.5-0.4,0.8c-0.8,1.9-0.2,3.5,0.5,5.1c0.4,0.9,0.7,1.9,0.9,3c0.2,1.2-0.1,1.8-0.8,3
										c-0.6,1-1.3,2.5-2.1,4.9c-0.9,2.7-1.3,5-1.5,6.6c0.4-0.4,0.8-0.9,1.2-1.3c0.2-1.4,0.6-3.1,1.2-5c1.7-5.3,3.2-5.5,2.9-8.3
										c-0.4-3-2.4-5.1-1.4-7.5c0.1-0.2,0.2-0.4,0.3-0.6c0.2-0.3,0.5-0.4,0.8-0.4c0.3,0,0.7,0.2,0.8,0.5c0.3,0.7,0.7,1.6,1,2.5
										c0-2.1,0.3-3-0.3-4.8c-0.2-0.4-0.5-1.2-0.3-2.2c0.1-0.3,0.2-0.6,0.4-0.9c0.2-0.3,0.5-0.5,0.8-0.5c0.3,0,0.7,0.2,0.8,0.5
										c0.2,0.5,0.5,1,0.7,1.6c0.3,0.6,0.5,1.3,0.8,2c-0.2-1.1-0.4-2.2-0.7-3.3c-0.2-0.5-0.3-1.1-0.5-1.6
										c-0.4-1.3-1.1-2.9-0.5-4.6C473.2,574.1,473.5,573.7,473.8,573.3z"/>
									<path class="st5" d="M435.2,602c-0.8-2.5-1.5-3.9-2.1-4.9c-0.7-1.2-0.9-1.7-0.8-3c0.1-1.1,0.5-2,0.9-3
										c0.6-1.6,1.3-3.2,0.5-5.1c-0.1-0.3-0.2-0.5-0.4-0.8c-0.4-0.5-1-0.9-1.6-0.9c-0.2,0-0.4,0-0.5,0.1c0.1-0.5,0.2-1.2,0-1.9
										c-0.1-0.4-0.2-0.8-0.5-1.2c-0.4-0.6-1-0.9-1.7-0.9c-0.1,0-0.1,0-0.2,0c0.1-0.3,0.2-0.6,0.3-0.8l0.1-0.3
										c0.4-1.3,1.1-3.1,0.4-5c-0.2-0.6-0.5-1.2-1-1.7c-0.2-0.3-0.6-0.5-0.9-0.6c0,0.4,0.1,0.9,0.1,1.2c0.3,0.4,0.6,0.9,0.8,1.4
										c0.6,1.8-0.1,3.4-0.5,4.6c-0.7,2.1-1.1,4.2-1.4,6.1c0.5-1.2,0.9-2.4,1.4-3.4c0,0,0,0,0,0c0.2-0.3,0.5-0.5,0.8-0.5
										c0.3,0,0.6,0.1,0.8,0.5c0.2,0.3,0.3,0.6,0.4,0.9c0.2,1-0.1,1.8-0.3,2.2c-0.6,1.5-0.4,2.4-0.4,4.1c0,0,0,0,0,0
										c0.4-1.2,0.9-2.3,1.3-3.2c0.2-0.4,0.5-0.5,0.8-0.5c0.3,0,0.6,0.1,0.8,0.4c0.1,0.2,0.2,0.4,0.3,0.6c1,2.5-1,4.5-1.4,7.5
										c-0.3,2.8,1.2,3,2.9,8.3c0.4,1.3,1,3.2,1.3,5.3c0.3,0.4,0.7,0.8,1.1,1.3C436.5,606.1,435.8,603.7,435.2,602z"/>
								</g>
								<path class="st9" d="M424,547.8c0.7-2.8,2.4-5.1,3.9-7.3c0.9-1.4,2.7-2.7,4.8-3.7c5.1-2.4,20.7-4.2,24.9-3.6
									c3.6,0.5,7.2,1.3,10.3,2.8c3.9,1.9,6,6,7.1,9.1c2.5,1.9,3.6,3.9,4.1,5.2c0.4,1.1,0.5,2-0.7,12.2c-0.2,1.8-0.5,4.4-1.3,7.6
									c-0.4,1.8-0.6,2.7-1.1,3.7c-0.5,1.1-1.5,2.8-1.8,3.9c-0.3,1-0.4,2.5-0.4,2.5c-0.3,0.1-0.5,0.2-0.8,0.3
									c0-4.8-1.1-8.4-2.8-11.1c-0.6-1-1-1.4-1.5-2.3c-1.8-3.6-0.9-7.7,0.2-10.6c-0.9,1.4-5.7,8.3-15.1,10.3
									c-9.2,2-16.2-2.1-17.7-3c-1-1-2-2.1-3.1-3.1c0,0.4,0.1,1.1,0,1.8c-0.1,1.5-0.6,2.5-0.8,3c-0.7,1.8-1.4,3.6-1.9,5.5
									c-1.2,3.8-1.5,7.1-1.5,9.3c-0.3,0.1-0.5,0.2-0.8,0.2c0,0-0.1-1.4-0.4-2.5c-0.3-1-1.3-2.8-1.8-3.9c-0.5-1.1-1.1-3.1-1.1-3.7
									c0-0.6-0.5-3-0.9-4.6c-0.3-1.5-0.5-3.1-0.6-4.6c-0.1-1.6-0.1-3.1,0-4.3c0-1.3,0.1-2.7,0.3-4
									C423.5,550.4,423.8,548.4,424,547.8z"/>
							</g>
							<g>
								<path class="st2" d="M411.9,608.3c-2.7,12.4-5.4,24.7-8.1,37.1c-7.5,6.7-9.6,19.1-11.5,28.5c-2.7,13.5-8.8,34.1-21.7,41.3
									c-4.7,2.7-10.6,2.4-14.4-1.4c-1.8-1.8-2.9-3.6-3.5-5.1c-3.1-7.4-0.6-14.9,0.6-17.9c8.5-23,17.1-45.9,25.6-68.9
									c6.2-2.5,12.3-5,18.5-7.6C402.4,612.2,407.2,610.2,411.9,608.3z"/>
							</g>
							<g>
								<path class="st2" d="M490.1,608.7c0.5,12.2,1,24.3,1.5,36.5c7.1,7.1,8.3,19.7,9.6,29.2c1.8,13.6-0.4,31.2,12,39.3
									c4.6,3,16.4,4.2,20.4,0.6c1.1-1,1.8-1.2,2.3-1.7c0,0,0.4-0.5,0.8-1.2c0.8-1.4,1.7-9.2,2.2-20c-7.6-23.5-15.2-46.9-22.8-70.4
									C507.5,616.9,498.8,612.8,490.1,608.7z"/>
							</g>
							<g>
								<g>
									<g>
										<g>
											<path class="st4" d="M477.4,592c0.3,2.5,1.1,6.9,2.5,12.3c1.2-3.8,2.6-10.1,1.8-17.6c-0.4-4-1.3-7.4-2.3-10.1
												c-0.2-0.7-1.2-0.8-1.6-0.2c-0.2,0.2-0.3,0.5-0.4,0.9c-0.3,1-0.1,1.8,0.1,2.3c0.7,2.6-0.3,3.3-0.3,8.6
												C477.2,588,477.2,589.8,477.4,592z"/>
											<path class="st4" d="M472.6,596.2l3.4,12.5c0.9-3.9,1.9-10.4,0.4-18.2c-0.8-3.9-2-7.2-3.2-9.8c-0.3-0.7-1.2-0.7-1.6-0.1
												c-0.2,0.3-0.3,0.6-0.4,0.9c-0.2,1,0.1,1.8,0.3,2.2c0.9,2.5,0,3.3,0.5,8.6C472.1,593.2,472.3,594.6,472.6,596.2z"/>
											<path class="st4" d="M485.5,625.8c-0.3-0.6-6.6-13.1-7-14.2c-0.1-0.3-0.2-0.7-0.2-0.7c-0.1-0.4,0-0.9,0.1-1.3
												c0.7-2,0.8-3.2,1.4-5.4c0.3-1.1,0.6-2.2,0.9-3.2c0.2-4,0.1-9.4-1.3-15.7c-1.1-4.8-2.7-8.8-4.2-11.9
												c-0.3-0.6-1.1-0.7-1.5-0.2c-0.3,0.4-0.6,0.9-0.8,1.4c-0.6,1.8,0.1,3.4,0.5,4.7c1.7,4.8,1.7,9.2,1.6,12.9
												c0,2.5-0.2,5.1-0.6,5.1c-0.5,0-0.7-3.4-2.4-8.2c-0.4-1.2-0.9-2.3-1.3-3.2c-0.3-0.7-1.2-0.7-1.6-0.1
												c-0.1,0.2-0.2,0.4-0.3,0.6c-1,2.5,1.1,4.5,1.4,7.5c0.3,2.8-1.2,3-2.9,8.3c-1,3.3-1.5,6-1.5,7.5c0,0.8-0.1,2.3,0.3,4.1
												c0.6,3.1,1.9,5.6,3.2,7.5l6.2,10.6C478.6,630.3,482.4,627.6,485.5,625.8z"/>
										</g>
									</g>
									<g>
										<g>
											<path class="st4" d="M424.2,592c-0.3,2.5-1.1,6.9-2.5,12.3c-1.2-3.8-2.6-10.1-1.8-17.6c0.4-4,1.3-7.4,2.3-10.1
												c0.2-0.7,1.2-0.8,1.6-0.2c0.2,0.2,0.3,0.5,0.4,0.9c0.3,1,0.1,1.8-0.1,2.3c-0.7,2.6,0.3,3.3,0.3,8.6
												C424.4,588,424.4,589.8,424.2,592z"/>
											<path class="st4" d="M428.8,597.6l-3.4,12.5c-0.9-3.9-1.9-10.4-0.4-18.2c0.8-3.9,2-7.2,3.2-9.8c0.3-0.7,1.2-0.7,1.6-0.1
												c0.2,0.3,0.3,0.6,0.4,0.9c0.2,1-0.1,1.8-0.3,2.2c-0.9,2.5,0,3.3-0.5,8.6C429.3,594.6,429.1,596,428.8,597.6z"/>
											<path class="st4" d="M426.2,632.1l6.2-10.6c1.2-1.6,2.6-4.2,3.2-7.5c0.9-4.9-0.5-9.1-1.3-11.6c-1.7-5.3-3.2-5.5-2.9-8.3
												c0.4-3,2.4-5.1,1.4-7.5c-0.1-0.2-0.2-0.4-0.3-0.6c-0.4-0.6-1.3-0.6-1.6,0.1c-0.4,0.9-0.8,1.9-1.3,3.2
												c-1.7,4.8-2,8.2-2.4,8.2c-0.4,0-0.6-2.7-0.6-5.1c0-3.6,0-8,1.6-12.9c0.4-1.3,1.1-2.9,0.5-4.7c-0.2-0.6-0.5-1-0.8-1.4
												c-0.4-0.5-1.2-0.4-1.5,0.2c-1.5,3.1-3.1,7.1-4.2,11.9c-1.4,6.3-1.5,11.7-1.3,15.7c0.3,1.1,0.6,2.1,0.9,3.2
												c0.7,2.2,0.2,1.9,0.9,4c0.1,0.4,0.2,0.9,0.1,1.3c0,0,0,0.3-0.2,0.7c-0.4,1.1-6.7,13.6-7,14.2
												C418.7,626.2,423,630.3,426.2,632.1z"/>
										</g>
									</g>
								</g>
							</g>
						</g>
					</g>
					<g>
						<path class="st10" d="M417.3,612.3c-20.9,25.3-41.7,50.7-62.6,76c-1.1,2.1-2.9,6.1-3.1,11.3c-0.1,2.6-0.2,7.6,2.5,11.5
							c4.3,6.3,13.1,8.8,21.8,5.3c11.1-4.4,17.7-14.5,21.6-22.1c11.6-22.2,23.5-45.4,36.3-70.8C428.3,619.7,422.8,616,417.3,612.3z"
							/>
					</g>
					<path class="st10" d="M483.3,615.3c27.2,34.3,46.5,60.6,52.7,70.6c1.3,2,4.3,7,4.4,13.7c0,2.8,0.2,9.7-4.4,14
						c-4.4,4.1-11.9,4.7-20.7,1.5c-11.6-4.2-17-15.7-20.4-23.2c-7.7-16.6-17.6-39.1-28.2-67C472.3,621.7,477.8,618.5,483.3,615.3z"
						/>
					<g>
						<path class="st5" d="M448,599.5c1.9,0.6,3.3,0.5,5.1-0.3C452.3,601.2,449.1,601.4,448,599.5z"/>
						<path class="st5" d="M456.4,606.6c-4.8-1.1-8.4-1.1-13.1-0.2C445.6,603.9,453.7,604,456.4,606.6z"/>
						<path class="st9" d="M446.1,581.9c-1.8-0.2-4.4-0.4-7.5,0c-4.1,0.5-7.1,1.8-7.3,1.5c-0.2-0.3,1.7-1.4,2.7-1.9
							c1.6-0.8,3.1-1.2,3.9-1.4c3.5-0.8,6.8-0.5,8.6-0.2c0,0.3,0.1,0.7,0,1.2C446.5,581.4,446.3,581.7,446.1,581.9z"/>
						<path class="st9" d="M454.3,581.9c1.8-0.2,4.4-0.4,7.5,0c4.1,0.5,7.1,1.8,7.3,1.5c0.2-0.3-1.7-1.4-2.7-1.9
							c-1.6-0.8-3.1-1.2-3.9-1.4c-3.5-0.8-6.8-0.5-8.6-0.2c0,0.3-0.1,0.7,0,1.2C454,581.4,454.2,581.7,454.3,581.9z"/>
						<g>
							<path d="M435.8,588.2c2.6,1.2,5,1.1,7.6-0.3C441.9,590.6,437.4,590.8,435.8,588.2L435.8,588.2z"/>
						</g>
						<g>
							<path d="M458,587.2c2.7,1.6,5.3,1.4,7.9-0.2C464.4,589.8,459.7,590.1,458,587.2L458,587.2z"/>
						</g>
					</g>
				</g>
			</g>
			<g>
				<g>
					<rect x="155.4" y="721.8" class="st11" width="539.6" height="17.2"/>
				</g>
				<g>
					<rect x="658.1" y="632.5" class="st12" width="23.1" height="83.1"/>
					<polygon class="st13" points="658.1,632.5 681.2,715.6 658.1,715.6 					"/>
					<g>
						<path class="st13" d="M663.4,691.3c0-4.4,3.3-8,7.5-8.6c-0.4-0.1-0.8-0.1-1.2-0.1c-4.8,0-8.7,3.9-8.7,8.7
							c0,4.8,3.9,8.7,8.7,8.7c0.4,0,0.8-0.1,1.2-0.1C666.7,699.3,663.4,695.7,663.4,691.3z"/>
						<path class="st14" d="M678.5,691.3c0-4.4-3.3-8-7.5-8.6c-4.2,0.6-7.5,4.2-7.5,8.6s3.3,8,7.5,8.6
							C675.2,699.3,678.5,695.7,678.5,691.3z"/>
					</g>
					<rect x="662.2" y="647.6" class="st2" width="13.9" height="21.6"/>
					<rect x="662.2" y="671.8" class="st2" width="13.9" height="5.6"/>
					<g>
						<path class="st15" d="M673.5,652.2h-8.9c-0.4,0-0.8-0.4-0.8-0.8s0.4-0.8,0.8-0.8h8.9c0.4,0,0.8,0.4,0.8,0.8
							S673.9,652.2,673.5,652.2z"/>
					</g>
					<g>
						<path class="st15" d="M673.5,655.9h-8.9c-0.4,0-0.8-0.4-0.8-0.8c0-0.4,0.4-0.8,0.8-0.8h8.9c0.4,0,0.8,0.4,0.8,0.8
							C674.3,655.6,673.9,655.9,673.5,655.9z"/>
					</g>
					<g>
						<path class="st15" d="M673.5,659.6h-8.9c-0.4,0-0.8-0.4-0.8-0.8c0-0.4,0.4-0.8,0.8-0.8h8.9c0.4,0,0.8,0.4,0.8,0.8
							C674.3,659.3,673.9,659.6,673.5,659.6z"/>
					</g>
					<g>
						<path class="st15" d="M673.5,663.3h-8.9c-0.4,0-0.8-0.4-0.8-0.8c0-0.4,0.4-0.8,0.8-0.8h8.9c0.4,0,0.8,0.4,0.8,0.8
							C674.3,663,673.9,663.3,673.5,663.3z"/>
					</g>
					<g>
						<path class="st15" d="M673.5,667h-8.9c-0.4,0-0.8-0.4-0.8-0.8s0.4-0.8,0.8-0.8h8.9c0.4,0,0.8,0.4,0.8,0.8S673.9,667,673.5,667
							z"/>
					</g>
				</g>
				<g>
					
						<rect x="630.1" y="630.5" transform="matrix(0.9876 0.1569 -0.1569 0.9876 113.3565 -92.3268)" class="st13" width="23.1" height="83.1"/>
					<g>
						<path class="st13" d="M632.8,688.2c0.7-4.4,4.5-7.4,8.8-7.3c-0.4-0.1-0.7-0.2-1.1-0.3c-4.7-0.8-9.2,2.5-9.9,7.2
							c-0.8,4.7,2.5,9.2,7.2,9.9c0.4,0.1,0.8,0.1,1.2,0.1C634.8,696.6,632.1,692.5,632.8,688.2z"/>
						<path class="st14" d="M647.7,690.5c0.7-4.4-2-8.4-6.1-9.7c-4.3-0.1-8.1,2.9-8.8,7.3c-0.7,4.4,2,8.4,6.1,9.7
							C643.2,697.9,647,694.9,647.7,690.5z"/>
					</g>
					
						<rect x="636.7" y="645.7" transform="matrix(0.9876 0.1568 -0.1568 0.9876 110.9403 -92.8329)" class="st2" width="13.9" height="21.6"/>
					
						<rect x="634.2" y="669.8" transform="matrix(0.9876 0.1568 -0.1568 0.9876 113.4294 -92.2355)" class="st2" width="13.9" height="5.6"/>
					<g>
						<path class="st15" d="M649,651.2c0,0-0.1,0-0.1,0l-8.8-1.4c-0.4-0.1-0.7-0.5-0.7-0.9c0.1-0.4,0.5-0.7,0.9-0.7l8.8,1.4
							c0.4,0.1,0.7,0.5,0.7,0.9C649.7,650.9,649.4,651.2,649,651.2z"/>
					</g>
					<g>
						<path class="st15" d="M648.4,654.8c0,0-0.1,0-0.1,0l-8.8-1.4c-0.4-0.1-0.7-0.5-0.7-0.9c0.1-0.4,0.5-0.7,0.9-0.7l8.8,1.4
							c0.4,0.1,0.7,0.5,0.7,0.9C649.1,654.5,648.8,654.8,648.4,654.8z"/>
					</g>
					<g>
						<path class="st15" d="M647.8,658.5c0,0-0.1,0-0.1,0l-8.8-1.4c-0.4-0.1-0.7-0.5-0.7-0.9c0.1-0.4,0.5-0.7,0.9-0.7l8.8,1.4
							c0.4,0.1,0.7,0.5,0.7,0.9C648.6,658.2,648.2,658.5,647.8,658.5z"/>
					</g>
					<g>
						<path class="st15" d="M647.3,662.1c0,0-0.1,0-0.1,0l-8.8-1.4c-0.4-0.1-0.7-0.5-0.7-0.9c0.1-0.4,0.5-0.7,0.9-0.7l8.8,1.4
							c0.4,0.1,0.7,0.5,0.7,0.9C648,661.8,647.6,662.1,647.3,662.1z"/>
					</g>
					<g>
						<path class="st15" d="M646.7,665.8c0,0-0.1,0-0.1,0l-8.8-1.4c-0.4-0.1-0.7-0.5-0.7-0.9c0.1-0.4,0.5-0.7,0.9-0.7l8.8,1.4
							c0.4,0.1,0.7,0.5,0.7,0.9C647.4,665.5,647.1,665.8,646.7,665.8z"/>
					</g>
				</g>
				<polygon class="st14" points="598.7,718.6 598.7,667.7 602.3,667.7 602.3,715.2 680.6,715.2 680.6,667.7 683.8,667.7 
					683.8,718.6 				"/>
				<polygon class="st16" points="695,727.5 155.4,728.2 155.4,722.3 695,721.5 				"/>
				<g>
					<g>
						<path class="st17" d="M393.6,716.2H290.4c-1.7,0-3-1.3-3-3v-63.9c0-1.7,1.3-3,3-3h103.2c1.7,0,3,1.3,3,3v63.9
							C396.6,714.8,395.3,716.2,393.6,716.2z"/>
						<path class="st18" d="M392.1,716.2H288.9c-1.7,0-3-1.3-3-3v-63.9c0-1.7,1.3-3,3-3h103.2c1.7,0,3,1.3,3,3v63.9
							C395.1,714.8,393.8,716.2,392.1,716.2z"/>
						<path class="st2" d="M349.8,683.7c0,4.8-4.2,8.7-9.3,8.7c-5.1,0-9.3-3.9-9.3-8.7s4.2-8.7,9.3-8.7
							C345.6,675,349.8,678.9,349.8,683.7z"/>
						<polygon class="st18" points="294.2,715.5 294.8,721.8 433.6,721.8 433.6,715.5 						"/>
						<polygon class="st19" points="394,715.5 394.2,721.8 441.1,721.8 441.1,715.5 						"/>
					</g>
					<polygon class="st19" points="294.3,721.8 390.9,715.5 294.2,716.2 					"/>
				</g>
			</g>
			<g>
				<g>
					<polygon class="st14" points="261.8,723.4 170.5,723.4 172,704.3 262.4,703.9 					"/>
					<polygon class="st20" points="261.8,723.4 206.9,723.4 171.7,707.7 172,704.3 262.4,703.9 					"/>
					<polygon class="st21" points="248.4,707.9 248.1,719.4 220.5,719.4 220.5,708.3 					"/>
					<polygon class="st21" points="218,708.3 218.2,719.4 213.8,719.4 213.4,708.3 					"/>
				</g>
				<g>
					<g>
						<polygon class="st22" points="258,703.9 260.3,686.2 255.1,686.7 165.5,695.6 165.7,697.3 256.5,689.2 254.5,702.2 166,702.3 
							165.9,703.7 						"/>
						<path class="st23" d="M255.7,694.7c0,0-3.5-6.3-6.7-4.8c-3.2,1.6-3.5,5.2-3.5,5.2l0.9,0.6c0,0,0.8-5,3.5-4.9
							c2.7,0,4.3,4.9,4.3,4.9s0.6,3.3-2.1,4.9c-2.7,1.6-4.4,0.2-4.8-0.5c-0.4-0.7-0.7-2.8-0.7-2.8l-1,0.1c0,0,0.1,3,1.2,4
							c1.2,1,3.5,1.5,5.5,0.6c1.4-0.6,2.9-2.5,2.9-2.5L255.7,694.7z"/>
					</g>
				</g>
			</g>
			<g>
				<g>
					<g>
						<polygon class="st24" points="560.2,694.8 560.6,697.2 563.6,698.8 561.3,698.7 612.1,718.7 614.9,717.8 616.1,711.1 						
							"/>
						<polygon class="st13" points="591.2,631.7 560.2,694.8 610.3,715.3 649.2,638.6 						"/>
						<polygon class="st25" points="649.2,638.6 618,652.4 608.4,714.5 579.6,702 560.2,694.8 591.2,631.7 						"/>
						<path class="st2" d="M649.2,638.6l1.8,1.8l-0.9,1.8l2.2-1.7l0.8,1.8c0,0-37.8,75.5-38.2,75.5c-0.4,0-2-0.1-2-0.1l1.5-2.3
							l-2.5,2.3l-1.6-2.4L649.2,638.6z"/>
					</g>
					<polygon class="st26" points="640.8,659.1 651.2,639.6 653.8,638.7 					"/>
					<polygon class="st26" points="623.4,694.7 640.7,661.2 640.7,665.9 					"/>
				</g>
				<g>
					<path class="st2" d="M527.6,710.3l16-0.1c8.2-6.5,25-46.1,25-46.1l57.3-2c0,0-21.8,50.6-29,56c-7.2,5.4-26.3-8.1-26.3-8.1
						L527.6,710.3z"/>
					<g>
						<polygon class="st27" points="602.7,665.8 620.3,665.2 619.6,666.1 602.1,666.6 						"/>
						<polygon class="st27" points="600.9,669.1 619.3,668.4 618.6,669.3 600.4,669.9 						"/>
						<polygon class="st27" points="605.2,672.2 618.2,671.6 617.6,672.5 604.6,673 						"/>
						<polygon class="st27" points="579.8,676.1 598.2,675.4 597.6,676.3 579.2,676.8 						"/>
						<polygon class="st27" points="567.1,679.6 615.2,678.1 614.6,679 566.5,680.3 						"/>
						<polygon class="st27" points="565.3,682.8 613.4,681.3 612.8,682.2 564.8,683.6 						"/>
						<polygon class="st27" points="563.6,686 611.6,684.6 611,685.5 563,686.8 						"/>
						<polygon class="st27" points="562.2,689.3 610.3,687.8 609.7,688.7 561.7,690 						"/>
						<polygon class="st27" points="561,692.5 609.1,691 608.5,691.9 560.5,693.3 						"/>
						<polygon class="st27" points="559.5,695.7 607.6,694.3 607,695.2 559,696.5 						"/>
						<polygon class="st27" points="557.5,699 605.6,697.5 605,698.4 557,699.8 						"/>
						<polygon class="st27" points="555.6,702.2 603.7,700.8 603.1,701.7 555.1,703 						"/>
						<polygon class="st27" points="553.9,705.4 602,704 601.3,704.9 553.3,706.2 						"/>
						<polygon class="st27" points="551.2,708.7 599.3,707.2 598.6,708.1 550.6,709.5 						"/>
						<polygon class="st27" points="549.4,711.9 597.5,710.5 596.9,711.4 548.8,712.7 						"/>
						<polygon class="st27" points="547.6,715.2 595.7,713.7 595.1,714.6 547.1,715.9 						"/>
						<polygon class="st27" points="545.8,718.4 593.9,717 593.3,717.8 545.3,719.2 						"/>
					</g>
					<path class="st24" d="M527.6,710.3c0,0,3.6,5.4,9.3,7.9c5.7,2.5,9.8,2.3,9.8,2.3l45.9-0.6c0,0-8.8-1.8-14.3-5.1
						s-7.8-4.8-7.8-4.8L527.6,710.3z"/>
				</g>
			</g>
		</g>
		<g>
			<rect x="122" y="737.2" class="st28" width="764.9" height="8.2"/>
		</g>
		<polyline class="st28" points="888.2,743.9 829.5,743.9 829.4,743.9 827.9,743.9 780.5,743.9 779.4,743.9 778,743.9 766.6,743.9 
			729,743.9 511.8,743.9 506.4,743.9 501.9,743.9 488.3,743.9 487.5,743.9 456.5,743.9 440.7,743.9 410.2,743.9 409.1,743.9 
			402.2,743.9 389,743.9 383.5,743.9 145.8,743.9 		"/>
		<g>
			<g>
				<rect x="378.6" y="346" class="st0" width="146.7" height="138.1"/>
				<g>
					<path class="st28" d="M528.4,487.3h-153V342.9h153V487.3z M381.7,481h140.5V349.2H381.7V481z"/>
				</g>
				<rect x="380.5" y="459.3" class="st28" width="142.9" height="21.7"/>
			</g>
			<g>
				<polygon class="st28" points="421.3,404.1 482.6,404.1 482.6,403.4 483.2,402.7 420.6,402.7 421.3,403.4 				"/>
				<rect x="422.6" y="397.2" class="st28" width="58.7" height="4.7"/>
				<rect x="424.3" y="390.9" class="st28" width="55.2" height="4.8"/>
				<rect x="439.8" y="377.3" class="st28" width="24.4" height="1.9"/>
				<path class="st28" d="M451.9,372.5c-3.3,0-6.4,1.3-8.7,3.3h17.4C458.3,373.8,455.3,372.5,451.9,372.5z"/>
				<polygon class="st28" points="421.5,407.6 482.4,407.6 482.8,406.4 421.1,406.4 				"/>
				<path class="st28" d="M475.2,380.2h-46.5v9.9h46.5V380.2z M438.2,388c-1.5,0-2.6-1.2-2.6-2.6c0-1.5,1.2-2.6,2.6-2.6
					c1.4,0,2.6,1.2,2.6,2.6C440.8,386.8,439.6,388,438.2,388z M462.1,388.2h-4.7v0.5h-11v-0.5h-4.7v-5.7h4.7V382h11v0.5h4.7V388.2z
					 M465.7,388c-1.5,0-2.6-1.2-2.6-2.6c0-1.5,1.2-2.6,2.6-2.6c1.4,0,2.6,1.2,2.6,2.6C468.3,386.8,467.2,388,465.7,388z"/>
				<rect x="424.5" y="424.4" class="st28" width="8.1" height="4.2"/>
				<rect x="424.5" y="417.8" class="st28" width="8.1" height="1.7"/>
				<path class="st28" d="M430.4,412.2c0-1.1-0.9-2-2-2c-1.1,0-2,0.9-2,2c0,1.1,0.9,2,2,2C429.5,414.2,430.4,413.3,430.4,412.2z"/>
				<path class="st28" d="M437.4,408.8v-0.4h-17.7v0.4v11.5h-1v0.8h2.9l0.3,0.8h-2.9l0.7,0.8v8h-1l0.3,0.8l0.7,0.8v0.8h-0.7v0.8h0.7
					v18.7v2v6.8h2.9v-6.8h11.9v6.8h2.9v-6.8v-2v-18.7h0.6v-0.8h-0.6v-0.8l0.6-0.8l0.3-0.8h-0.9v-8l0.6-0.8H435l0.3-0.8h2.9v-0.8
					h-0.9V408.8z M422.6,452.5v-18.7h11.9v18.7H422.6z M434.5,430.7h-11.9v-8h11.9V430.7z M422.6,417.1h11.9v3.3h-11.9V417.1z
					 M421.9,416.3l-0.3-0.8h13.8l-0.3,0.8H421.9z M425.6,412.2c0-1.5,1.2-2.8,2.8-2.8c1.5,0,2.8,1.2,2.8,2.8c0,1.5-1.2,2.8-2.8,2.8
					C426.8,415,425.6,413.7,425.6,412.2z"/>
				<path class="st28" d="M485.3,421.1v-0.8h-1v-11.5v-0.4h-17.7v0.4v11.5h-0.9v0.8h2.9l0.3,0.8h-2.9l0.6,0.8v8h-0.9l0.3,0.8
					l0.6,0.8v0.8h-0.6v0.8h0.6v18.7v2v6.8h2.9v-6.8h11.9v6.8h2.9v-6.8v-2v-18.7h0.7v-0.8h-0.7v-0.8l0.7-0.8l0.3-0.8h-1v-8l0.7-0.8
					H482l0.3-0.8H485.3z M469.4,452.5v-18.7h11.9v18.7H469.4z M481.3,430.7h-11.9v-8h11.9V430.7z M482.3,415.6l-0.3,0.8h-13.2
					l-0.3-0.8H482.3z M472.7,412.2c0-1.5,1.2-2.8,2.8-2.8c1.5,0,2.8,1.2,2.8,2.8c0,1.5-1.2,2.8-2.8,2.8
					C474,415,472.7,413.7,472.7,412.2z M469.4,417.1h11.9v3.3h-11.9V417.1z"/>
				<rect x="471.3" y="424.4" class="st28" width="8.1" height="4.2"/>
				<rect x="471.3" y="417.8" class="st28" width="8.1" height="1.7"/>
				<path class="st28" d="M477.6,412.2c0-1.1-0.9-2-2-2c-1.1,0-2,0.9-2,2c0,1.1,0.9,2,2,2C476.6,414.2,477.6,413.3,477.6,412.2z"/>
				<path class="st28" d="M452.9,410.5h-0.2l-0.2,1.8h-1.1l-0.2-1.8H451l-0.1-0.8h-12.2v10.7h0.7l0,0.7l-0.4,0.9h0.2l-0.5,0.7v0.6
					v7.5h0.9l-0.3,0.8l-0.6,0.8v0.8h0.6v0.8h-0.6v18.7v2v6.8h2.5v-38v-0.3c0-0.1,0-0.2,0-0.3l0,0l0.5-0.9h-0.2
					c0.7-4.8,4.6-8.2,9.3-8.2h2.1c4.7,0,8.7,3.5,9.3,8.2h-0.2l0.5,0.9c0,0.1,0,0.2,0,0.3v0.3v38h2.5v-6.8v-2v-18.7h-0.6v-0.8h0.6
					v-0.8l-0.6-0.8l-0.3-0.8h0.9v-7.5v-0.6l-0.5-0.7h0.2l-0.4-0.9v-0.7h0.7v-10.7H453L452.9,410.5z M459.5,415.5
					c-1.8-1.6-4.1-2.5-6.5-2.5h-2.1c-2.4,0-4.7,0.9-6.5,2.5c-1.7,1.5-2.9,3.7-3.2,6h-1.4l0.1-0.3v-0.8c0.5-5.3,5.3-9.5,10.9-9.5h0.1
					l0.2,1.8h1.9l0.2-1.8h0c5.6,0,10.4,4.2,10.9,9.5v0.8l0.1,0.3h-1.4C462.4,419.2,461.2,417.1,459.5,415.5z"/>
			</g>
		</g>
	</g>
	<g>
		<defs>
			<rect id="SVGID_1_" x="547.1" y="414.3" width="347.8" height="322.9"/>
		</defs>
		<clipPath id="SVGID_00000067220686345985209530000004170519037200790962_">
			<use xlink:href="#SVGID_1_"  style="overflow:visible;"/>
		</clipPath>
		<path style="clip-path:url(#SVGID_00000067220686345985209530000004170519037200790962_);fill:#ADADAD;" d="M774.8,504.2
			c-2.2,0.1-4.5,0.3-6.8,0.4c-8.2,0.7-15.9,1.7-23.1,3c7.6,3.1,15.2,6.1,22.8,9.2C770.1,512.6,772.5,508.4,774.8,504.2"/>
		<g style="clip-path:url(#SVGID_00000067220686345985209530000004170519037200790962_);">
			<g>
				<path class="st4" d="M607.5,527.3c-0.5-3.7-3.9-8.2-6.9-10.4c-3-2.2-4.6-4-7.7-6c-2.8-1.9-5.4-4.1-7.7-6.6
					c-0.3-0.3-0.6-0.2-0.7,0c-1.2,1.4-1.3,3.4-0.7,5.2c0.6,1.7,1.7,3.2,2.8,4.7c1.9,2.6,3.9,5.1,5.8,7.7c-5.5-1.1-9.2-1.4-13-3.9
					c-4.2-2.7-8.6-5.7-13.6-5.8c-1,0-1.7,0.6-2.3,1.4c3.3,2.7,6.4,5,10.2,7.1c4.6,2.5,3.8,11.4,8.2,14.1c7.4,4.6,17.8,5.2,26.4,6.5
					c1.1-1.8,1.5-4.4,1.5-6.5C608.1,532.5,607.8,530,607.5,527.3z"/>
				<path class="st4" d="M584.6,524.3c-3.2-1.8-7.2-2.4-10.2-4.5c-1.8-1.3-3.7-2.4-5.8-3.2c-0.9-0.4-1.7-0.7-2.7-0.7
					c-0.9,0-1.3,0.9-1.8,1.7c-0.1,0.1,16.7,12.6,18.2,13.8C584.2,529.7,585,526.8,584.6,524.3z"/>
				<path class="st4" d="M587.1,529c-3.2-1.8-7.2-2.4-10.2-4.5c-1.8-1.3-3.7-2.4-5.8-3.2c-0.9-0.4-1.7-0.7-2.7-0.7
					c-0.9,0-1.3,0.9-1.8,1.7c-0.1,0.1,16.7,12.6,18.2,13.8C586.7,534.4,587.5,531.5,587.1,529z"/>
				<path class="st4" d="M588.9,530.5c-3-1.1-6.5-1.1-9.4-2.5c-1.7-0.8-3.5-1.5-5.4-2c-0.8-0.2-1.6-0.3-2.4-0.2
					c-0.8,0.1-0.9,1-1.3,1.7c0,0.1,3.5,2,8,5.4c2.8,2,6.7,3.1,9.5,3.9C589.3,535.2,589.6,532.6,588.9,530.5z"/>
			</g>
			<path class="st4" d="M623.9,543.8c-5.7-4.7-11.3-9.7-16.6-14.9l-13.9,5.8c7.2,6.4,14.1,13.2,20.4,20.4L623.9,543.8z"/>
			<path class="st31" d="M617.4,536.5c-2-2.1-5.2-4.2-7.1-6.2c-4.8,3.9-8.9,8.5-12.3,13.7c2.5,2,4.7,4.3,7.2,6.2L617.4,536.5z"/>
			<path d="M737.8,560.3c-8.4,6.9-17.7,14-27.9,21c-14.1,9.7-27.6,17.9-40.3,24.8c-2.6-3.8-5.3-7.8-8-11.8c-3-4.6-5.8-9.1-8.5-13.5
				c15.1-12,44.8-40,59.6-58.1c9.1,1.1,8.2,7.6,14,13.1C732.5,541.3,733.8,553.8,737.8,560.3z"/>
			<g>
				<path class="st32" d="M696.5,921.1c-0.7,0.7-1.5,1.4-2.2,2.1c-0.3,2.6,0.3,4.1,1.1,5c0,0,0.6,0.7,4.3,2.6l0,0
					c6.6,0.6,14.9,0.8,24.4-0.6c6.4-0.9,12-2.4,16.8-3.9c0.6-1,1.2-1.9,1.7-2.9c0.6,0.8,1.2,1.6,1.7,2.4c3.1-1,6.3-2,9.4-3.1
					l-0.3-6.8l-10-3.1L696.5,921.1z"/>
				<path class="st32" d="M746.4,883.3c-7.1,0.9-13.4,1-20.5,1.9c-0.2,5.6-2.6,16.3-4,21.6l27.9-5.5
					C748.5,895.4,747.8,889.2,746.4,883.3z"/>
				<path class="st32" d="M749.2,897.8c-5.9-3.3-12.2-1.4-18.9-0.2l-4.9,0.8c-5.2,8.7-9,12.6-18.4,16.4c-2.8-0.8-6.8-0.1-9.1,1.6
					c-2.3,1.8-3.7,4.7-3.5,7.6c5.2,1.4,10.4,3.3,15.5,4.9c5.5,1.7,18.9-1.4,28.3-4.1c0,0,10.9-6.5,15.2-8.8
					C752.7,910.7,751.2,903,749.2,897.8z"/>
			</g>
			<g>
				<path class="st33" d="M754.3,896.9c1.7-33.1,21.7-77.2,9.9-123.6c-3.9-10.3-25.5-13.1-42.5-3.1c0,33.9,0.3,122.8-0.1,128.5
					C731.2,901,743.9,901.1,754.3,896.9z"/>
				<path d="M721.7,770.3c-0.5-32.4-3.1-120-3.1-120l56.4,0.4c-4.4,30.7-11.9,124.9-11.9,124.9L721.7,770.3z"/>
			</g>
			<g>
				<path class="st32" d="M835.1,929.7l14.1,2.7c7.3,1.2,14.8,0.6,21.8-1.6c0.5-0.1,1.2-0.4,1.9-0.8c1.2-0.7,2-1.5,2.5-2.1
					c0-1.7,0.1-3.5,0.1-5.2c-0.6-0.2-1.2-0.4-1.8-0.6c-15.5-3.1-30.9-6.3-46.4-9.4L818,921c0.3,1.9,0.2,3.7,0.5,5.6
					c3,0.9,5.6,1.8,8.8,2l2.2-4L835.1,929.7z"/>
				<path class="st32" d="M818.7,887.4c7.1-0.8,13.2-2.3,20.3-3c1.6,5.4,6.4,15.2,9.1,20l-28.4,1.4
					C819.6,899.6,818.8,893.5,818.7,887.4z"/>
				<path class="st32" d="M818,921c4.3,2.3,13.6,4,13.6,4c9.4,2.7,22.8,5.7,28.3,4.1c5.2-1.5,10.3-3.5,15.5-4.9
					c0.2-2.9-1.2-5.9-3.5-7.6c-2.3-1.7-6.3-2.4-9.1-1.6c-5.5-2.9-15.6-12.1-15.6-12.1l-7.7-5c-6.7-1.2-13-3.2-18.9,0.2
					C818.7,903.2,817.3,916,818,921z"/>
			</g>
			<path d="M805.3,648.1c6,36.4,12.7,71.6,19.1,116c0,0-33.3,11.2-41.9,11.5c-4.1-11-25.9-91.1-32.2-125.3L805.3,648.1z"/>
			<path class="st33" d="M821.9,754.7c13.1,45.6,23.6,138.7,23.6,138.7c-10.7,4.6-25.3,7.6-33.1,3.9c-12.2-48.9-26.6-76.6-30-122.2
				L821.9,754.7z"/>
			<path class="st34" d="M805.3,653.2c-1-1.8-4.6-3.3-5.5-5.1c-26.5,0.7-53.1,1.5-79.6,2.2c0,0,0.3,17.6-0.7,39.4
				c5.4,0.7,7.7,1,13,2.1c0.7-11-0.2-22.1,0.5-33.1c4.9,0.1,9.9,0.2,15.1,0.2c5.8,0,11.3-0.2,16.7-0.5c0.5,4.4,1.1,8.9,1.9,13.5
				c1.2,7.6,2.6,14.7,4.1,21.6c6.7-0.1,14.1-0.6,22.1-1.6c7-0.9,13.4-2.1,19.2-3.5C809.7,677.1,807.6,666.2,805.3,653.2z"/>
			<path class="st31" d="M802.1,650.8l-83-1.2c1.9-3.7,0.7-1.2,2.6-4.9c-1.8-2.9-3.6-5.8-5.3-8.7c2-2.7,4.1-4.5,6-7.2
				c-6.5-35.9-9.9-69.7-9.6-106.2c16.4-4.7,37.5-12.9,54.3-16.3c16.5,7.4,30.2,10.7,47.1,14.5c4.3,10.1,5.2,33.4,4.7,44.3
				c-0.5,10.9-2.7,21.6-4.9,32.3L802.1,650.8z"/>
			<path class="st4" d="M745.7,526.2c0.2-5.5,0-11.7-0.8-18.5c-0.6-5.1-1.4-9.9-2.4-14.1c8.9-3.5,17.9-7.1,26.8-10.6
				c-0.1,5,0.3,9,0.7,11.8c0.3,1.9,0.6,3.4,0.9,5.2c0.9,4.4,1.8,8,2.5,10.5c-7.1,4.7-14.1,9.4-21.2,14.1
				C750.1,525.1,747.9,525.7,745.7,526.2z"/>
			<path class="st35" d="M771,500.4c-0.4-1.9-0.8-4-1.1-6.2c-0.5-3.8-0.8-7.3-0.8-10.4c-8.8,3.3-17.7,6.5-26.5,9.8
				c1.4,5.5,1.9,10.2,2.6,15.5c3.3,0,8.4-0.4,14.1-2.4C764.5,504.9,768.5,502.4,771,500.4z"/>
			<path d="M740.9,480.8c-5.3,0.9,0.5-10.5-4.6-12.2c-5-1.7-6.1-0.6-11.2-2.1c-5.3-1.6-9.1-7.9-8.1-13.1c1.3-1.7,3.5-4.1,6.6-6.2
				c1.5-1,3.8-2.4,13.2-5.2c5.7-1.7,11.2-2.7,22.2-4.7c0.7-0.1,2.2-0.4,4.2-0.2c1.2,0.1,2.4,0.4,3.6,0.8c1.5,0.5,4.3,6.5,4.3,6.5
				c1.3,0.6,3.2,1.7,4.5,3.8c1.2,1.9,1.3,3.9,1.1,8c-0.2,3.1-0.5,7.2-1.4,12c-1.8,3.2-3.7,6.3-5.6,9.5c-2.7,4.5-5.4,9-8,13.4
				C753.4,488.5,748.4,484.8,740.9,480.8z"/>
			<g>
				<path class="st4" d="M766.2,481.1c-3.1,4.1-7.7,7.1-13.2,8.1c-11,2.1-21.7-4.6-24.8-15.1c-0.2-0.7-0.4-1.5-0.5-2.2l0,0
					c-0.1-0.6-0.2-1.2-0.3-1.8c-1.1-11.1,6.4-21.4,17.6-23.5c11.8-2.2,23.1,5.6,25.3,17.4C771.5,470.2,769.8,476.4,766.2,481.1z"/>
				<path class="st4" d="M728.5,464.2c0.1,5-0.4,9.4-0.8,14.7c-0.3,3.7,0.8,7.1,2.2,10.2c0.6,1.3,1.2,3.7,2.6,8
					c0.6,1.9,0.8,3.2,1.8,5.1c0.8,1.5,1.6,3.2,3.2,4.2c0.7,0.5,2.5,1.4,7.3,0.6c4.2-0.7,6.4-1.6,18-9.5c3.1-2.1,3.4-3.3,3.3-9.1
					c-0.1-3.9,0.6-12.2,0-14.5L728.5,464.2z"/>
				<g>
					<path class="st35" d="M736.5,489.8c-0.7-0.3-1.1-1-1.3-1.3c0.6,0.2,1.5,0.3,2.5,0.3c1.6-0.1,2.7-0.8,3.3-1.1
						c-0.1,0.3-0.3,0.8-0.7,1.2C739.5,489.8,737.8,490.5,736.5,489.8z"/>
					<path d="M745.7,472.5c1.1-0.7,2.6-1.5,4.4-2.2c0.6-0.2,1.9-0.7,3.5-1c3.6-0.7,6.1-0.2,6.1-0.6c0-0.3-1.4-0.9-2.8-1.2
						c-3.6-0.8-6.6,0.4-8,0.9c-0.9,0.4-2.2,1-3.6,2c-0.1,0.2-0.3,0.7-0.1,1.4C745.4,472.1,745.6,472.3,745.7,472.5z"/>
					<path d="M737,471.4c0.1,0.1,0.6,0.8,0.5,1.6c-0.1,0.3-0.2,0.6-0.3,0.8c-1.2-0.5-2.7-1-4.7-1.4c-0.7-0.1-1.9-0.4-3.6-0.5
						c-0.2,0-0.3,0-0.5,0c-0.2,0-0.5,0-0.7,0c-0.1-0.6-0.2-1.2-0.3-1.8c0.4-0.1,0.7-0.1,1.1-0.1c2-0.1,3.5,0.1,4.8,0.4
						C734.2,470.5,735.5,470.8,737,471.4z"/>
				</g>
				<g>
					<path class="st35" d="M744.4,494.1c1.5,0.8,1,3.1-0.8,3.1c-1.8,0-3.6,0.1-5.5,0.2c-0.3,0-0.6,0-0.9,0.1
						c-1.3,0.1-2.2-1.3-1.5-2.5c0.3-0.4,0.6-0.8,1.1-1.2c1.2-0.9,2.5-0.8,3.4-0.8C741.8,493,743.2,493.5,744.4,494.1z"/>
				</g>
			</g>
			<path d="M725.1,461.4c5.8-1.6,10.4-1.9,13.7-1.9c6.3,0,10.9,1.3,15.8-1.3c1.9-1,3.3-2.3,4.1-3.2c-0.5,2.1-0.9,5.1,0.2,8.2
				c0.9,2.5,2.2,3.4,3.6,5.9c1.1,2.1,2.3,5.3,2.2,10c1.2-0.2,2.3-0.4,3.5-0.5c-0.7,2.2-1.4,4.4-2.2,6.5c1.4,3.5,2.7,7,4.1,10.6
				c1.4-6.9,3.8-18.8,5.1-26.8c0.1-0.5,0.1-1.6,0.3-2.9c0.6-5.1-1.2-10.4-4.6-14.4c-3.3-3.9-8.1-6.6-13.2-7.7
				C745.5,441,730.6,450.1,725.1,461.4z"/>
			<g>
				<path class="st4" d="M765.7,473.2c0.9-0.9,2-1.6,3.2-1.8c1.2-0.3,2.6,0,3.5,0.8c1.2,1,1.6,2.8,1.4,4.4c-0.4,4.3-4,8-8.3,8.6
					c-0.7-0.3-1-1.1-0.8-1.8C765.9,480.1,766,476.6,765.7,473.2z"/>
				<path class="st35" d="M768.3,474.8c1-0.6,2.3-0.4,3.1,0.3c1.1,1,1.1,2.7,0.5,3.9c-0.7,1.3-1.9,2.1-3.2,2.7
					c-0.7,0.3-2.3,0.6-2.5-0.6c-0.1-0.6,0.5-0.9,0.8-1.3C768.1,478.2,766,476.1,768.3,474.8z"/>
			</g>
			<path class="st36" d="M751.1,530.1c-2.9-0.1-4.2-0.4-7.2-0.5c-2.2,18.8-4.7,37.8-7.6,57.3c-1.3,9.2-2.7,18.3-4.2,27.2
				c3.5,5.3,7.1,10.5,10.6,15.8c3.9-5.4,7.9-10.9,11.8-16.3C754.1,588.6,754.3,554.9,751.1,530.1z"/>
			<path d="M877,590.8c-8.5-11.7-18.3-24-29.6-36.8c-10.9-12.3-21.7-23.2-31.9-32.8c-2.1,1.3-5.2,19.8-3.3,40
				c0.9,10.3,4.3,16.8,4.3,16.8c11.7,13.4,42.3,39.2,42.3,39.2c5.4-4.3,10.7-8.6,16.1-13c2.1-1.7,3.6-4.3,3.7-7c0,0,0-0.1,0-0.1
				C878.7,594.1,877.6,591.8,877,590.8z"/>
			<rect x="719.1" y="644.2" transform="matrix(1 -4.433283e-03 4.433283e-03 1 -2.8659 3.3813)" width="84.4" height="7.8"/>
			
				<rect x="743.5" y="642.2" transform="matrix(1 -4.429542e-03 4.429542e-03 1 -2.8646 3.3466)" class="st37" width="21.1" height="12.4"/>
			<path d="M738.6,514.2c-12.6,54.6-8.7,115.1-9.4,171.5c-5.3-1.6-19.1-6.6-19.1-6.6c0.9-12.4,4.9-44.3,4.5-49.6
				c-0.5-6.2-0.9-12.4-1.4-18.6c-2.1-28.3-3.2-59.9-0.4-88.1C716,521.2,738.6,514.2,738.6,514.2z"/>
			<g>
				<path class="st34" d="M728.9,516.8c-0.1,0.2-0.2,0.4-0.3,0.6c-6.5,12.5-12.1,24.3-16.9,37.6c4.2,3.6,8.1,7.2,11.6,11.5
					c-3.7,3.6-7,6.1-10.6,9.7c6.3,11.6,13.7,27.8,16.5,40.9c1-38.3,2-70.5,9.4-102.8l0.7-0.8C735.8,514.5,732.4,515.6,728.9,516.8z"
					/>
			</g>
			<path class="st38" d="M736.9,514.1c-0.7,3.2-1.4,7.3-2.1,10.5c2.5-0.5,6.1-2,9.4-3.2L736.9,514.1z"/>
			<polygon class="st38" points="757.5,515.2 748.2,524 761.6,523.7 			"/>
			<path class="st31" d="M779.4,512.3c-1.4-3-2.8-5.4-4.6-8.1c-4.2,3.5-13.3,8.2-17.3,11c1.3,4.2,2.5,8.5,3.8,12.7
				C768.9,523.4,774.2,518.7,779.4,512.3z"/>
			<path class="st36" d="M757.8,516.4c0.7,2.5,1.5,5,2.2,7.5c-1.8,1.5-3.7,3.3-5.7,5.3c-1.1,1.2-2.1,2.3-3,3.4c-1.4,0.1-3,0.1-4.7,0
				c-1.1-0.1-2.1-0.2-3.1-0.3c-0.6-1.9-1.2-3.9-1.8-5.9c-0.9-3.1-1.6-6.1-2.2-9c1.1,0.6,2.4,1.5,3.7,2.6c1.6,1.3,2.7,2.7,3.5,3.8
				l1.3,0.2C751.4,521.4,754.6,518.9,757.8,516.4z"/>
			<path class="st31" d="M746.9,523.8c-3.7-2.8-7.1-5.9-10-9.6c2.5-2.4,5.2-4.6,8.1-6.7C745.6,512.3,746.9,523.8,746.9,523.8z"/>
			<path d="M809.4,633.1c-0.3,11.9,4.2,32.6,7.5,44c-12.4,6.2-27.6,9-41.4,7.8c-4.4-34.8-6.2-69.9-6-105c0.2-24.1,1.8-50.3,8.8-69.8
				c11.5,5.4,27.8,8.1,37.2,11.1c2.4,16.2,2.4,40.4,4.8,56.6C820.4,577.8,809.6,628.8,809.4,633.1z"/>
			<path class="st34" d="M794.2,552.9c-3.1-13-5.5-26.6-6.8-39.9c0,0-5.9-1.8-9-3.4l-0.2,0.5c0,0,0,0,0,0c-0.4,1.2-0.9,2.5-1.2,3.7
				c-6,19.1-7.4,43.5-7.5,66.1c-0.1,9.6,0,19.1,0.3,28.7c0.1,2.2,0.1,4.4,0.2,6.6c2.6-15.1,7.6-29.4,17.1-41.7
				c-3.5-3.3-7-6.9-10.5-10.2C782.2,559.6,788.3,556,794.2,552.9z"/>
			<path class="st35" d="M815.4,644.9c-2.2,3.2-6.5,7.5-6.5,7.5c-8.9-2.3-11.7-8.6-11.7-8.6c1.8-3.7,3.7-6.5,5.8-13.4
				c2.9,0.1,5.1,0.5,8.8,0.6C814.5,634.1,817.8,641.4,815.4,644.9z"/>
			<path class="st34" d="M810,658.2c0-0.5,1-4.3,1.1-4.8c-7-3.3-13.4-6.9-19.4-11.7c-1.4,1.3-2.8,3.6-3,4.7
				C793.8,652.4,802.3,656.8,810,658.2z"/>
			<path class="st35" d="M807.9,637.9c-2.7,0.3-5.4,0.6-8.1,0.9c-1.1,0.1-2.6,0.7-3.6,1.2c0,0-1.2,1.4-1.7,1.9
				c-1,1.2-2.4,2.8-3.7,3.4s-4.1,0.4-5-0.8c2.4-2.2,3.7-5.6,5.2-8.5c0,0,0.1-0.1,0.1-0.1c3.9-2.4,7.7-4.2,12-5.6
				C804.9,632.8,806.4,635.1,807.9,637.9z"/>
			<path d="M598.4,552.2c3.3-5.9,7.3-13.8,14.8-20.1c19.2,12.5,38.5,25,57.7,37.5c1.2,11.2,2.4,22.5,3.6,33.7
				c-1.6,0.9-3.3,1.8-4.9,2.7c-11.2-6-23.8-13.7-37-23.6C618.8,572.2,607.5,561.7,598.4,552.2z"/>
			<path class="st31" d="M809.1,627.7l-2.4,2.4c0,0,4.1,10.8,11.3,13.8l3.8-4L809.1,627.7z"/>
			<path d="M807.8,626.6c0,0,7.6,12.6,12.7,15.5c7.8-3.6,16.4-8.2,25.4-14.2c11.7-7.7,21.3-15.8,28.9-23.2c2.3-2.2,3.7-5.3,3.5-8.5
				c0-0.8-0.1-1.5-0.2-2c-1.6-7.5-10.7-13.4-22.8-13.8C834.9,600.3,828.1,606.8,807.8,626.6z"/>
			<g>
				<path class="st2" d="M748.1,477c0.6,0.4,1.9,1,3.5,1c2.7,0,4.4-1.8,4.9-2.3c-1-1-2.2-1.6-3.3-1.8c-0.5-0.1-1.1-0.2-1.9,0
					C749.3,474.2,748.3,476.4,748.1,477z"/>
				<path class="st39" d="M749.1,476c0.2,1.2,1.4,2.1,2.5,1.9c1.1-0.2,2-1.5,1.7-2.8c-0.1-0.4-0.3-0.8-0.6-1c0,0-0.2-0.3-0.5-0.3
					c-0.3,0-0.5,0.2-0.5,0.2c-0.4,0.1-0.8,0.2-1.1,0.4c-0.2,0.1-0.4,0.2-0.6,0.4c-0.4,0.3-0.7,0.6-0.9,1
					C749.1,475.8,749.1,475.9,749.1,476z"/>
				<path d="M752.2,475.7c0.1,0.8-0.4,1.4-1,1.4c-0.6,0-1.1-0.6-1.2-1.3c-0.1-0.7,0.4-1.4,1-1.4
					C751.6,474.3,752.1,474.9,752.2,475.7z"/>
				<path class="st2" d="M752.5,475.1c0,0.3-0.2,0.5-0.4,0.5c-0.2,0-0.5-0.2-0.5-0.5c0-0.3,0.1-0.5,0.4-0.5
					C752.3,474.6,752.5,474.8,752.5,475.1z"/>
				<path d="M748.1,477c0.3-0.5,1.2-2,3-2.6c2.8-0.9,5.1,1.1,5.3,1.3c-2-2.4-4.7-3-6.5-1.7C748.7,474.8,748.2,476.3,748.1,477z"/>
			</g>
			<g>
				<path class="st2" d="M737.1,477.6c-0.2,0.2-1.8,2.1-4.3,1.9c-1.7-0.1-2.8-1.1-3.2-1.4c0.4-0.4,1.1-1.2,2.2-1.7
					c0.3-0.1,1-0.4,1.8-0.4C735.4,475.9,736.7,477.2,737.1,477.6z"/>
				<path class="st39" d="M734.8,476.2c0.6,1,0.1,2.4-0.8,2.9c-0.9,0.5-2.5,0.2-3-0.9c-0.2-0.4-0.2-0.7-0.2-1.1c0-0.1,0-0.3,0.3-0.5
					c0.2-0.2,0.4-0.2,0.5-0.2c0.3-0.2,0.7-0.3,1.1-0.4c0.2-0.1,0.4-0.1,0.6-0.1c0.5,0,0.9,0,1.3,0.1
					C734.7,476.1,734.7,476.1,734.8,476.2z"/>
				<path d="M731.9,478c0.4,0.6,1.1,0.8,1.6,0.4c0.5-0.4,0.5-1.1,0.1-1.7c-0.4-0.6-1.1-0.8-1.6-0.4
					C731.6,476.6,731.5,477.4,731.9,478z"/>
				<path class="st2" d="M733.3,477.1c0,0.3,0.3,0.5,0.5,0.5c0.2,0,0.4-0.3,0.4-0.6c0-0.3-0.3-0.5-0.5-0.5
					C733.4,476.5,733.2,476.8,733.3,477.1z"/>
				<path d="M737.1,477.6c-0.3-0.2-2.5-1.8-5-1.1c-1.2,0.4-2,1.1-2.4,1.6c0.1-0.3,0.8-1.8,2.3-2.3
					C733.6,475.1,735.7,475.8,737.1,477.6z"/>
			</g>
		</g>
	</g>
</g>
</svg>
