<?xml version="1.0" encoding="utf-8"?>
<!-- Generator: Adobe Illustrator 16.0.0, SVG Export Plug-In . SVG Version: 6.00 Build 0)  -->
<!DOCTYPE svg PUBLIC "-//W3C//DTD SVG 1.1//EN" "http://www.w3.org/Graphics/SVG/1.1/DTD/svg11.dtd">
<svg version="1.1" id="Layer_3" xmlns="http://www.w3.org/2000/svg" xmlns:xlink="http://www.w3.org/1999/xlink" x="0px" y="0px"
	 width="165px" height="119px" viewBox="0 0 165 119" enable-background="new 0 0 165 119" xml:space="preserve">
<path fill="#FDF9E7" d="M42.169,109.086c0,0.592-3.255,0.986-7.299,0.986c-3.946,0-7.201-0.395-7.201-0.986
	c0-0.493,3.255-0.987,7.201-0.987C38.914,108.099,42.169,108.593,42.169,109.086z"/>
<path fill="#F05D48" d="M58.445,119.049c14.205,0,25.648-1.579,25.648-3.552s-11.443-3.551-25.648-3.551
	c-14.204,0-25.745,1.578-25.745,3.551s11.541,3.552,25.646,3.552H58.445z M125.026,117.864c16.868,0,30.579-1.973,30.579-4.241
	c0-2.367-13.711-4.24-30.579-4.24c-16.966,0-30.577,1.972-30.577,4.24C94.449,115.99,108.061,117.864,125.026,117.864z"/>
<path fill="#F05D48" d="M85.769,110.763c18.741,0,34.13-2.17,34.13-4.735c0-2.663-15.289-4.735-34.13-4.735
	c-18.939,0-34.229,2.072-34.229,4.735C51.54,108.593,66.83,110.763,85.769,110.763z M163.497,104.942
	c0,1.283-7.102,2.17-15.783,2.17c-8.777,0-15.782-0.985-15.782-2.17c0-1.184,7.005-2.171,15.782-2.171
	C156.396,102.771,163.497,103.759,163.497,104.942z M27.078,98.334C18.595,96.065,11.492,90.345,7.35,82.65
	c-4.242-7.497-5.425-16.275-3.354-24.562c2.269-8.285,8.877-14.795,17.262-16.868c10.062-2.169,20.222,3.453,27.817,10.259
	c3.156,2.762,6.115,5.92,9.765,7.991c3.748,2.269,8.285,3.254,12.134,1.578c4.636-1.973,7.002-7.003,9.271-11.541
	c5.328-11.245,12.922-21.307,22.39-29.395c9.569-7.891,21.702-13.021,34.033-12.922c7.692,0,15.781,2.269,21.108,7.891
	c6.904,6.906,8.088,17.954,6.017,27.62c-1.972,9.568-6.806,18.347-10.555,27.421c-4.34,8.879-6.018,18.841-4.636,28.606
	L26.979,98.334H27.078z"/>
<path fill="#F05D48" d="M78.667,39.051c2.466-3.847,4.241-7.99,5.325-12.429c1.184-5.918,0.197-12.034-3.847-16.571
	c-6.509-6.708-16.374-9.076-25.251-6.214c-3.452,1.282-6.017,4.143-6.905,7.595c-1.283,5.918,3.157,10.85,5.918,15.585
	c1.48,2.564,2.565,5.425,2.761,8.384c0,2.861-1.676,5.425-1.281,8.286c0.295,1.677,1.184,3.156,2.465,4.143
	c2.663,2.269,6.511,3.058,9.864,2.171C73.043,48.619,76.102,43.391,78.667,39.051L78.667,39.051z"/>
<path fill="#E7DFC2" d="M66.632,21.494H8.237c0,0-0.197,0-0.197,0.197v46.064l0.197,0.198h58.395c0.1,0,0.198,0,0.198-0.198V21.69
	C66.83,21.592,66.83,21.494,66.632,21.494z M48.877,44.575H43.55v-5.327h5.426L48.877,44.575L48.877,44.575z M49.371,39.249h5.424
	v5.327h-5.424V39.249z M37.237,44.97v5.327h-5.424V44.97H37.237z M31.813,44.575v-5.327h5.424v5.327H31.813z M37.73,44.97h5.327
	v5.327h-5.425L37.73,44.97L37.73,44.97z M37.73,44.575v-5.327h5.327v5.327H37.73L37.73,44.575z M43.55,38.756v-5.229h5.426v5.229
	H43.55L43.55,38.756z M43.057,38.756h-5.425v-5.229h5.425V38.756z M37.237,38.756h-5.424v-5.229h5.424V38.756z M31.32,38.756h-5.327
	v-5.229h5.425v5.229H31.32z M31.32,39.249v5.327h-5.327v-5.327h5.425H31.32z M25.697,44.575h-5.426v-5.327h5.426V44.575z
	 M19.778,44.575h-5.425v-5.327h5.425V44.575z M19.778,44.97v5.327h-5.425V44.97H19.778z M20.271,44.97h5.426v5.327h-5.426V44.97z
	 M26.091,44.97h5.425v5.327h-5.425V44.97z M31.516,50.691v5.325h-5.425v-5.325H31.516z M31.911,50.691h5.425v5.325h-5.425V50.691z
	 M37.829,50.691h5.327v5.325H37.73L37.829,50.691L37.829,50.691z M43.649,50.691h5.425v5.325h-5.623v-5.325H43.649z M43.649,50.297
	V44.97h5.425v5.327h-5.623H43.649z M49.371,44.97h5.424v5.327h-5.424V44.97z M55.289,44.97h5.326v5.327h-5.326V44.97z
	 M55.289,44.575v-5.327h5.326v5.327H55.289z M55.289,38.756v-5.229h5.326v5.229H55.289z M54.795,38.756h-5.424v-5.229h5.424V38.756z
	 M49.371,33.132v-5.228h5.424v5.228H49.371z M48.976,33.132h-5.524v-5.228h5.425L48.976,33.132L48.976,33.132z M43.057,33.132
	h-5.425v-5.228h5.425V33.132z M37.237,33.132h-5.424v-5.228h5.424V33.132z M31.32,33.132h-5.327v-5.228h5.425v5.228H31.32z
	 M25.697,33.132h-5.426v-5.228h5.426V33.132z M25.697,33.626v5.228h-5.426v-5.228H25.697z M19.778,38.854h-5.425v-5.228h5.425
	V38.854z M13.958,38.854H8.434v-5.228h5.425v5.228H13.958z M13.958,39.347v5.326H8.434v-5.326h5.425H13.958z M13.958,45.069v5.327
	H8.434V44.97h5.425L13.958,45.069z M13.958,50.79v5.326H8.434V50.79h5.425H13.958z M14.353,50.79h5.425v5.326h-5.425V50.79z
	 M20.271,50.79h5.426v5.326h-5.426V50.79z M25.697,56.51v5.229h-5.426v-5.327h5.426V56.51z M26.091,56.51h5.425v5.229h-5.425v-5.327
	V56.51z M32.01,56.51h5.327v5.229h-5.425v-5.327L32.01,56.51z M37.73,56.51h5.425v5.229H37.73v-5.327V56.51z M43.649,56.51h5.425
	v5.229h-5.623v-5.327L43.649,56.51z M49.469,56.51h5.425v5.229h-5.523v-5.327L49.469,56.51z M49.469,56.115V50.79h5.425v5.326
	H49.469L49.469,56.115z M55.388,50.79h5.327v5.326h-5.425L55.388,50.79L55.388,50.79z M61.108,50.79h5.425v5.326h-5.425V50.79z
	 M61.108,50.396V44.97h5.425v5.327L61.108,50.396L61.108,50.396z M61.108,44.673v-5.326h5.425v5.326H61.108z M61.108,38.854v-5.228
	h5.425v5.228H61.108z M61.108,33.132v-5.228h5.425v5.228H61.108z M60.714,33.132h-5.425v-5.228h5.425V33.132z M55.289,27.313v-5.425
	h5.425v5.425H55.289z M54.894,27.313h-5.523v-5.425h5.424L54.894,27.313L54.894,27.313z M48.976,27.313h-5.327v-5.425h5.425
	L48.976,27.313L48.976,27.313z M43.156,27.313H37.73v-5.425h5.425V27.313z M37.336,27.313h-5.425v-5.425h5.425V27.313z
	 M31.418,27.313h-5.327v-5.425h5.425v5.425H31.418z M25.697,27.313h-5.426v-5.425h5.426V27.313z M19.778,27.313h-5.425v-5.425h5.425
	V27.313z M19.778,27.807v5.228h-5.425v-5.228H19.778z M13.859,33.035H8.434v-5.228h5.425V33.035z M8.434,56.412h5.425v5.327H8.434
	V56.412z M14.353,56.412h5.327v5.327h-5.425v-5.327H14.353z M19.68,62.133v5.425h-5.425v-5.425h5.523H19.68z M20.172,62.133h5.426
	v5.425h-5.426V62.133z M25.993,62.133h5.425v5.425h-5.425V62.133z M31.911,62.133h5.326v5.425h-5.424L31.911,62.133L31.911,62.133z
	 M37.632,62.133h5.425v5.425h-5.425V62.133z M43.55,62.133h5.426v5.425h-5.524L43.55,62.133L43.55,62.133z M49.371,62.133h5.424
	v5.425h-5.424V62.133z M55.289,62.133h5.326v5.425h-5.326V62.133z M55.289,61.739v-5.327h5.326v5.327H55.289z M61.01,56.412h5.424
	v5.327H61.01V56.412z M66.435,27.214H61.01v-5.425h5.424V27.214z M13.859,21.888v5.425H8.434v-5.425H13.859z M8.434,62.133h5.425
	v5.425H8.434V62.133z M61.01,67.558v-5.425h5.424v5.425H61.01z"/>
<path fill="#FEDEA6" d="M32.108,34.711c0,0,1.381,11.64,7.892,13.711l11.836-3.353c0,0-7.102-3.256-7.892-10.358H32.108z"/>
<path fill="#F7F4E3" d="M25.993,45.463c0,0-0.986,13.316-5.919,15.684L10.9,57.3c0,0,5.425-3.75,5.918-11.837H25.993L25.993,45.463z
	 M56.571,25.34l-7.891,2.269l2.762,9.568l7.891-2.368L56.571,25.34z"/>
<path fill="#FDFDFD" d="M56.275,26.228l-6.904,1.973l1.775,6.116l6.707-1.972l-1.775-6.017L56.275,26.228z"/>
<path fill="#D2CDB8" d="M34.081,54.144l-6.116-1.678l-1.972,7.3l6.115,1.677L34.081,54.144z"/>
<path fill="#E7DFC2" d="M33.391,54.538l-5.13-1.381l-1.282,4.734l5.129,1.381L33.391,54.538z"/>
<path fill="#CCC6AD" d="M129.861,50.493h-2.663c-0.396,0-0.791,0.297-0.791,0.79c0,0.395,0.396,0.791,0.791,0.791h2.663
	c0.394,0,0.789-0.396,0.789-0.791C130.65,50.79,130.255,50.493,129.861,50.493z"/>
<path fill="#CCC6AD" d="M155.408,72.293L131.241,50.79c-1.183-0.986-2.959,0.69-1.676,1.776l23.969,21.503
	C154.719,75.055,156.493,73.377,155.408,72.293L155.408,72.293z M158.959,102.675h-2.268c-2.17-0.593-5.524-0.986-9.371-0.986
	c-3.749,0-7.102,0.394-9.272,0.986h-2.27v1.479c0,1.381,5.13,2.466,11.542,2.466c6.411,0,11.639-1.085,11.639-2.466
	C159.156,103.168,158.959,102.675,158.959,102.675z"/>
<path fill="#E7DFC2" d="M158.959,102.675c0,1.38-5.13,2.464-11.54,2.464c-6.511,0-11.641-1.084-11.641-2.464
	c0-1.383,5.229-2.565,11.641-2.565c0.888,0,1.677,0,2.563,0.099C155.112,100.504,158.959,101.491,158.959,102.675L158.959,102.675z"
	/>
<path fill="#E7DFC2" d="M149.982,100.208l-1.184,2.071v-2.071H149.982z"/>
<path fill="#E7DFC2" d="M153.633,72.786l-7.299,28.902c-0.296,1.479,1.973,2.169,2.367,0.689l7.3-28.9
	C156.396,71.898,154.027,71.307,153.633,72.786z"/>
<path fill="#E7DFC2" d="M155.901,71.701l-23.97-21.404c-1.184-0.987-2.958,0.689-1.775,1.676l24.069,21.603
	C155.31,74.561,157.185,72.885,155.901,71.701L155.901,71.701z M107.074,50.493c0,0,7.004-11.54,16.079-6.016
	c9.075,5.425,2.368,17.065,2.368,17.065L107.074,50.493z"/>
<path fill="#C1B894" d="M125.521,61.542c-0.592,0.788-3.75-0.099-7.694-2.172c-1.774-0.986-3.551-1.971-5.229-3.155
	c-3.649-2.566-6.017-4.933-5.524-5.723c0.493-0.788,3.256,0,6.906,1.776c2.367,1.184,4.636,2.467,6.706,3.947
	C123.942,58.582,125.914,60.752,125.521,61.542z"/>
<path fill="#FAC978" d="M120.687,56.313c-0.493,2.269-2.662,3.649-4.931,3.157c-1.974-0.395-3.256-2.17-3.256-4.143
	c0-1.184,0.593-2.269,1.48-3.059C116.348,53.453,118.616,54.735,120.687,56.313L120.687,56.313z"/>
<path fill="#E7DFC2" d="M130.551,49.113c-2.663,0-2.663,4.143,0,4.143S133.214,49.113,130.551,49.113z"/>
<path fill="#E7DFC2" d="M130.551,50.396c-1.085,0-1.085,1.677,0,1.677C131.538,52.073,131.538,50.396,130.551,50.396z
	 M154.619,70.419c-3.452,0-3.452,5.228,0,5.228C157.973,75.646,157.973,70.419,154.619,70.419z"/>
<path fill="#E7DFC2" d="M154.619,71.997c-1.381,0-1.381,2.071,0,2.071C156.001,74.068,156.001,71.997,154.619,71.997z"/>
<path fill="#536969" d="M42.169,97.052h-14.5c0,0-0.395,8.68,3.946,11.838c0.395,0.196,0.79,0.394,1.282,0.394h4.045
	c0.494,0,0.986-0.197,1.282-0.394C42.564,105.731,42.169,97.052,42.169,97.052z"/>
<path fill="#405050" d="M42.169,97.052c0,0.297-2.367,0.492-5.523,0.593c-2.959,0-6.018-0.198-8.977-0.593
	c3.059-0.295,6.018-0.493,9.075-0.493C39.803,96.559,42.169,96.757,42.169,97.052z"/>
<path fill="#536969" d="M44.241,99.616c-0.789-0.986-1.972-1.085-3.156-0.986c-0.987,0-0.987,1.578,0,1.578
	c0.789,0,1.677,0,2.17,0.789c0.395,0.789,0.295,1.774,0,2.467c-0.986,1.874-3.157,2.367-4.932,2.071
	c-0.494,0-0.887,0.395-0.887,0.888s0.394,0.689,0.887,0.788c1.973,0.297,4.143-0.295,5.523-1.873
	C45.227,103.759,45.622,101.292,44.241,99.616z"/>
<path opacity="0.5" fill="#54C1BB" enable-background="new    " d="M39.013,92.12c-1.085,1.085-2.269,2.366-2.367,3.945v1.579
	c-1.085,0-2.072,0-3.157,0c-0.295-0.198-0.592-0.593-0.789-0.987l-0.493-1.185c-0.197-0.689-0.197-1.479,0-2.168
	c0.493-1.777,2.071-3.257,1.973-5.131c0-1.183-0.691-2.268-1.479-3.155c-0.789-0.889-1.776-1.679-2.367-2.765
	c-0.986-1.774-0.986-4.142,0.395-5.719c1.282-1.578,3.452-2.27,5.425-1.578c1.972,0.789,3.255,2.958,2.958,4.931
	c-0.295,1.283-1.084,2.664-0.591,3.946c0.296,0.593,0.986,1.085,1.38,1.578c0.789,0.789,1.283,1.775,1.381,2.762
	C41.282,89.753,40.098,91.034,39.013,92.12z"/>
<path fill="#54C1BB" d="M49.371,98.925c0,0-9.174-36.693-4.933-41.133c4.143-4.537,38.47-6.51,42.315-3.057
	c3.748,3.353,3.454,44.189,3.454,44.189H49.371z"/>
<path fill="#8DD1CD" d="M86.656,54.735l-0.494-0.395c-11.343-0.691-31.761,1.283-34.917,4.735c-3.65,3.945,3.156,33.341,4.734,39.85
	h34.13C90.109,98.925,90.405,58.088,86.656,54.735z"/>
<g>
	<g>
		<g>
			<g>
				<g>
					<defs>
						<rect id="SVGID_1_" x="31.615" y="-8" width="77.532" height="106.925"/>
					</defs>
					<clipPath id="SVGID_2_">
						<use xlink:href="#SVGID_1_"  overflow="visible"/>
					</clipPath>
					<g clip-path="url(#SVGID_2_)">
						<g>
							<g transform="matrix( 0.9983978271484375, -0.05657958984375, 0.0879364013671875, 0.996612548828125, -63.2,4.35) ">
								<g>
									<g transform="matrix( 1, 0, 0, 1, 0,0) ">
										<g>
											<g id="Cloth_1Lad1y_R_leg_0_Layer2_0_FILL_00000076575795682175807310000002210267785123556241_">
												<path fill="#FCB99B" d="M150.905,181.841c0.001,0.098,0.001,0.098,0,0.198c0.197,0.689,0.493,1.478,0.691,2.17
													c0.197,0.689,0.493,1.38,0.69,2.168c0,0.099,0.098,0.199,0.098,0.297c0.986,2.564,1.776,4.637,2.367,6.018
													c0.396,1.085,0.79,1.874,1.183,2.269c0.396,0.395,0.592,0.689,0.691,0.789c0.197,0.295,0.395,0.591,0.592,0.986
													c0.099,0.099,0.098,0.297,0.198,0.395c0.198,0.689,0.295,1.282,0.197,1.677c-0.198,0.788-0.987,0.986-2.367,0.69
													c-0.986-0.296-2.269-0.79-3.847-1.676c-0.889-0.593-1.677-1.382-2.367-2.367c-0.691-1.875-1.678-3.553-2.761-4.834
													c-0.397-0.494-0.79-0.889-1.186-1.282c-0.591-0.889-0.986-1.677-0.986-2.467l0,0c0,0,0,0,0-0.098
													c0-0.098,0-0.098,0.001-0.198l0,0c0,0,0,0-0.001,0.1c0.001-0.1,0.001-0.197,0.001-0.297
													c0-0.099,0.197-0.492,0.395-1.085c0.098-0.295,0.197-0.493,0.296-0.691c0,0,0,0,0.098-0.098
													c0.199-0.197,0.297-0.789,0.297-1.775l0,0l0.099-1.086c0.393,0.1,0.691,0.198,0.887,0.197
													c1.183,0.296,2.861,0.396,4.932,0.199C151.005,182.038,151.004,181.939,150.905,181.841z"/>
											</g>
										</g>
									</g>
									<g transform="matrix( 1, 0, 0, 1, 0,0) ">
										<g>
											<g id="Cloth_1Lad1y_R_leg_0_Layer1_0_MEMBER_0_FILL_00000072268156333880351050000007199159742379337401_">
												<path fill="#CCCCCC" d="M151.3,198.116L151.3,198.116L151.3,198.116L151.3,198.116z"/>
											</g>
										</g>
									</g>
									<g transform="matrix( 1, 0, 0, 1, -34.5,0) ">
										<g transform="matrix( 1, 0, 0, 1, 0,0) ">
											<g>
												<g id="Hands_1s1hoe_rht_0_Layer1_0_FILL_00000145756974332066452380000006208132706478678153_">
													<path fill="#431230" d="M179.684,190.717L179.684,190.717L179.684,190.717L179.684,190.717 M193.988,203.245
														L193.988,203.245c0.198-0.099,0.295-0.197,0.395-0.295C194.186,203.05,194.086,203.147,193.988,203.245z"/>
													<path fill="#580000" d="M193.988,203.245L193.988,203.245c-0.791,0.395-2.368,0.099-4.932-0.789
														c-2.566-0.887-4.242-1.775-5.131-2.762c-0.591-0.691-0.985-1.283-1.283-1.875c-0.098-0.296-0.197-0.493-0.294-0.691
														c-0.79-3.353-1.381-5.327-1.974-6.017l0,0l0,0l0,0l0,0l0,0l0,0l0,0l-0.69-0.592c0,0.099-0.099,0.099-0.099,0.198l0,0
														c-0.197,0.296-0.296,0.691-0.493,0.987c-0.591,1.379-0.987,3.155-1.283,5.127c0.297,0.098,0.493,0,0.691-0.197
														c0-0.098-0.001-0.197-0.001-0.197c0.1-1.775,0.494-3.059,0.987-4.044l0.69-1.086c0,0,0.1,0.001,0.099,0.1
														c0.493,0.591,1.185,2.662,1.874,6.015c0.097,0.199,0.099,0.495,0.296,0.692c0.295,0.592,0.69,1.184,1.282,1.775
														c0.789,0.987,2.465,1.873,5.031,2.762c2.466,0.889,4.143,1.086,4.833,0.691
														C193.889,203.345,193.89,203.244,193.988,203.245 M180.375,191.31L180.375,191.31L180.375,191.31L180.375,191.31z"/>
													<path fill="#990000" d="M191.817,196.636c-0.196-0.393-0.492-0.787-0.591-0.985c0.098,0.098,0.297,0.294,0.494,0.69
														c0.097,0.197,0.295,0.394,0.493,0.69c0.296,0.395,0.592,0.788,0.888,1.281c1.084,1.481,1.578,2.567,1.677,3.354
														c0,0.495-0.099,0.987-0.395,1.283c-0.1,0.098-0.197,0.197-0.395,0.295c-0.691,0.395-2.269,0.198-4.834-0.691
														c-2.564-0.885-4.24-1.774-5.129-2.76c-0.592-0.692-0.987-1.283-1.283-1.875c-0.099-0.296-0.198-0.493-0.296-0.689
														c-0.788-3.356-1.38-5.328-1.973-6.019l0,0l0,0l0,0l0,0l0,0l0,0l0,0l-0.689-0.592c0,0.099-0.101,0.098-0.101,0.198l0,0
														l0,0c-0.196,0.296-0.295,0.69-0.492,0.986c-0.593,1.38-0.987,3.156-1.283,5.128c0.297,0.098,0.494,0.001,0.69-0.198
														c0.001,0.199,0,0.297,0,0.495c0,0.099,0,0.099-0.001,0.196c-0.295,0.1-0.592,0.198-0.887,0.198
														c-0.296,0-0.493-0.097-0.494-0.198c0.101-0.197,0.197-0.492,0.198-0.69c0.494-1.874,0.592-3.55,0.198-4.93
														c-0.295-0.888-0.296-1.875,0-3.058c-0.001-0.099-0.001-0.099-0.001-0.099c0.198-0.986,0.593-1.775,0.987-2.465
														c0-0.1,0.098-0.1,0.099-0.197c-0.098,0.294-0.197,0.492-0.197,0.788c-0.001,0.097,0,0.198-0.001,0.295
														c0,0.79,0.295,1.578,0.987,2.467c0.396,0.396,0.788,0.789,1.183,1.283c1.085,1.281,2.072,2.859,2.764,4.833
														c0.689,0.888,1.477,1.677,2.365,2.366c5.031,2.566,7.005,2.368,6.116-0.689
														C191.916,196.934,191.916,196.834,191.817,196.636z"/>
												</g>
											</g>
										</g>
									</g>
								</g>
								<g>
									<g transform="matrix( 1, 0, 0, 1, 0,0) ">
										<g>
											<g id="Cloth_1Lad1y_R_leg_0_Layer2_0_FILL_00000088103862309403257830000010891449596439722900_">
												<path fill="#FCB99B" d="M140.352,183.321c0,0.098,0,0.098-0.001,0.196c0.197,0.691,0.493,1.48,0.691,2.17
													c0.196,0.69,0.494,1.381,0.69,2.169c-0.001,0.099,0.099,0.197,0.099,0.297c0.986,2.565,1.774,4.636,2.367,6.018
													c0.394,1.085,0.79,1.873,1.183,2.268c0.395,0.395,0.592,0.689,0.69,0.789c0.199,0.297,0.396,0.592,0.593,0.987
													c0.099,0.099,0.098,0.296,0.197,0.394c0.196,0.69,0.295,1.283,0.197,1.677c-0.198,0.789-0.986,0.986-2.366,0.69
													c-0.987-0.295-2.269-0.788-3.847-1.676c-0.889-0.592-1.677-1.382-2.367-2.368c-0.691-1.874-1.677-3.551-2.764-4.832
													c-0.394-0.495-0.788-0.889-1.182-1.282c-0.592-0.888-0.986-1.679-0.988-2.467l0,0c0,0,0,0,0.001-0.1
													c0-0.097,0-0.097,0.001-0.197l0,0c0,0,0,0-0.001,0.1c0.001-0.1,0.001-0.198,0.001-0.297
													c0-0.099,0.197-0.492,0.394-1.085c0.1-0.296,0.198-0.494,0.296-0.692c0,0,0,0,0.1-0.097
													c0.196-0.199,0.294-0.79,0.295-1.777l0,0l0.098-1.085c0.395,0.099,0.692,0.199,0.887,0.198
													c1.185,0.297,2.862,0.395,4.933,0.199C140.45,183.518,140.45,183.419,140.352,183.321z"/>
											</g>
										</g>
									</g>
									<g transform="matrix( 1, 0, 0, 1, 0,0) ">
										<g>
											<g id="Cloth_1Lad1y_R_leg_0_Layer1_0_MEMBER_0_FILL_00000059999849920948596830000002632336705353042312_">
												<path fill="#CCCCCC" d="M140.746,199.596L140.746,199.596L140.746,199.596L140.746,199.596z"/>
											</g>
										</g>
									</g>
									<g transform="matrix( 1, 0, 0, 1, -34.5,0) ">
										<g transform="matrix( 1, 0, 0, 1, 0,0) ">
											<g>
												<g id="Hands_1s1hoe_rht_0_Layer1_0_FILL_00000108305542294529166310000011664953849176965271_">
													<path fill="#431230" d="M169.131,192.198L169.131,192.198L169.131,192.198L169.131,192.198 M183.433,204.626
														L183.433,204.626c0.196-0.099,0.296-0.197,0.395-0.296C183.629,204.528,183.532,204.529,183.433,204.626z"/>
													<path fill="#580000" d="M183.433,204.726L183.433,204.726c-0.79,0.393-2.367,0.098-4.932-0.79
														c-2.564-0.889-4.241-1.776-5.13-2.762c-0.592-0.69-0.986-1.283-1.281-1.875c-0.099-0.295-0.198-0.493-0.296-0.69
														c-0.789-3.353-1.381-5.327-1.972-6.017l0,0l0,0l0,0l0,0l0,0l0,0l0,0L169.131,192c0,0.1-0.1,0.1-0.099,0.198l0,0
														c-0.197,0.296-0.297,0.692-0.494,0.986c-0.592,1.38-0.986,3.157-1.281,5.129c0.295,0.098,0.493,0,0.69-0.197
														c0-0.099,0-0.197,0-0.197c0.099-1.776,0.493-3.058,0.986-4.045l0.69-1.086c0,0,0.1,0.002,0.099,0.099
														c0.493,0.592,1.183,2.664,1.874,6.018c0.098,0.197,0.098,0.493,0.295,0.69c0.296,0.592,0.691,1.184,1.283,1.776
														c0.789,0.986,2.466,1.873,5.029,2.763c2.468,0.887,4.145,1.084,4.835,0.688
														C183.335,204.825,183.334,204.724,183.433,204.726 M169.821,192.789L169.821,192.789L169.821,192.789L169.821,192.789z
														"/>
													<path fill="#990000" d="M181.264,198.116c-0.198-0.395-0.493-0.788-0.592-0.986c0.098,0.099,0.296,0.296,0.493,0.689
														c0.099,0.199,0.296,0.396,0.495,0.692c0.294,0.394,0.591,0.787,0.887,1.281c1.085,1.479,1.578,2.566,1.677,3.353
														c0,0.495-0.099,0.987-0.395,1.283c-0.098,0.099-0.197,0.198-0.395,0.297c-0.689,0.394-2.267,0.198-4.833-0.692
														c-2.565-0.886-4.241-1.775-5.13-2.761c-0.593-0.69-0.987-1.283-1.282-1.875c-0.099-0.295-0.199-0.492-0.296-0.69
														c-0.79-3.355-1.381-5.326-1.973-6.017l0,0l0,0l0,0l0,0l0,0l0,0l0,0l-0.691-0.592c0.002,0.099-0.098,0.098-0.098,0.197
														l0,0l0,0c-0.197,0.296-0.296,0.691-0.493,0.986c-0.592,1.38-0.986,3.156-1.284,5.129
														c0.297,0.098,0.494,0.001,0.691-0.199c-0.001,0.199-0.001,0.298-0.001,0.495c0,0.1,0,0.1-0.001,0.197
														c-0.294,0.099-0.592,0.198-0.886,0.198c-0.296,0.001-0.493-0.098-0.494-0.198c0.1-0.197,0.197-0.492,0.199-0.69
														c0.492-1.873,0.59-3.55,0.197-4.932c-0.295-0.888-0.296-1.874,0-3.056c0-0.1,0-0.1,0-0.1
														c0.196-0.986,0.591-1.775,0.986-2.466c0-0.098,0.098-0.098,0.098-0.196c-0.098,0.295-0.198,0.493-0.197,0.789
														c-0.001,0.098-0.001,0.196-0.001,0.295c0.002,0.789,0.296,1.578,0.988,2.468c0.393,0.395,0.789,0.788,1.183,1.281
														c1.085,1.282,2.072,2.86,2.761,4.833c0.691,0.889,1.481,1.678,2.368,2.368c5.032,2.565,7.004,2.367,6.116-0.69
														C181.362,198.414,181.362,198.215,181.264,198.116z"/>
												</g>
											</g>
										</g>
										<g transform="matrix( 1, 0, 0, 1, 0,0) ">
											<g>
												<g id="Hands_1s1hoe_rht_0_Layer1_1_FILL_00000158016068400342880750000008413525004043452554_">
													<path fill="#F76467" d="M167.75,188.943c0.296,1.183,0.591,1.971,0.789,2.169c-0.295,0.888-0.593,1.875-0.987,2.959
														L167.354,192"/>
												</g>
											</g>
										</g>
									</g>
								</g>
							</g>
							<g>
								<g>
									<g transform="matrix( 1.0998382568359375, 0.017730712890625, -0.017730712890625, 1.0998382568359375, -2.05,-472) ">
										<g transform="matrix( 1, 0, 0, 1, 0,0) ">
											<g>
												<g id="Hair_1c2h_hair_ul_0_Layer0_0_MEMBER_0_FILL_00000062880230801951130120000014898036921338783128_">
													<path d="M78.747,453.373c0.098,0.098,0.197,0.098,0.197,0.197c0.296,0.296,0.492,0.493,0.789,0.789
														c1.479,1.578,2.566,3.354,3.255,5.327c0.691,1.972,1.085,4.044,0.987,6.214c-0.099,2.17-0.395,4.143-0.888,5.918
														c-0.593,1.677-1.382,2.959-2.466,3.65c-1.086,0.691-2.268,1.184-3.354,1.381c-1.085,0.196-2.169,0.098-3.452-0.395
														c-0.986-0.394-2.071-0.987-3.058-1.775c-1.38-1.085-2.663-2.368-3.748-3.847c-0.197-0.295-0.494-0.591-0.69-0.887
														c-0.691-1.085-1.283-2.17-1.776-3.354c-0.098-0.296-0.296-0.591-0.395-0.986c0-0.099,0-0.099,0-0.099
														c-0.789-2.367-0.986-4.636-0.691-7.003c0.395-2.565,1.481-4.439,3.157-5.82c1.184-0.888,2.565-1.48,4.143-1.677
														c1.479-0.198,3.058-0.098,4.537,0.394C76.576,451.992,77.662,452.584,78.747,453.373z"/>
												</g>
											</g>
										</g>
									</g>
									
										<g transform="matrix( 0.9995880126953125, 0.0284576416015625, -0.0284576416015625, 0.9995880126953125, -8.95,-341.75) ">
										<g transform="matrix( 1, 0, 0, 1, 0,0) ">
											<g>
												<g id="Body_1la3dy_body_0_Layer2_0_FILL_00000002351369572706802150000008653383145983539602_">
													
														<linearGradient id="SVGID_3_" gradientUnits="userSpaceOnUse" x1="-1330.0645" y1="-145.1101" x2="-1326.16" y2="-142.9726" gradientTransform="matrix(-8.6232 0.2051 0.2051 8.6232 -11338.1738 1909.766)">
														<stop  offset="0.0549" style="stop-color:#DA776A"/>
														<stop  offset="0.4078" style="stop-color:#EB9A90"/>
														<stop  offset="1" style="stop-color:#FA9A90"/>
													</linearGradient>
													<path fill="url(#SVGID_3_)" d="M77.019,400.586l-1.281-0.001c-0.001-1.084,0.296-2.17,0.789-3.058
														C76.526,398.612,76.625,399.599,77.019,400.586z"/>
													<path fill="#FCB99B" d="M76.526,397.527c-0.001-0.098,0.197-0.295,0.394-0.592c0.197-0.295,0.788-0.788,1.776-1.38
														c0.985-0.691,2.268-1.184,4.043-1.776c4.834-0.888,8.286-2.071,10.358-3.453c4.636,1.579,7.594,2.763,8.876,3.355l0,0
														c1.973,0.591,3.059,1.578,4.243,2.268c1.282,0.789,2.171,1.578,2.367,2.466c0.198,1.087,0.691,1.579,0.889,2.367
														l-32.355-0.198C76.625,399.599,76.526,398.612,76.526,397.527z"/>
													<path fill="#F38D82" d="M93.196,390.327L93.196,390.327c4.734,1.578,7.694,2.762,8.878,3.354l0,0
														c1.972,0.493,3.551,1.185,4.634,1.874c-1.085-0.592-2.662-1.282-4.635-1.775l0,0
														C100.792,393.088,97.832,392.003,93.196,390.327c-2.072,1.479-5.523,2.663-10.356,3.551
														c-1.776,0.494-3.058,1.085-4.045,1.775c-0.987,0.692-1.578,1.085-1.775,1.382c-0.197,0.295-0.395,0.493-0.395,0.591
														c-0.593,0.889-0.79,1.875-0.789,3.058l-0.099,0c0-1.183,0.296-2.368,0.986-3.255c0.395-0.592,0.888-0.987,1.578-1.381
														c1.184-0.887,2.664-1.578,4.636-2.169C87.672,392.892,91.125,391.708,93.196,390.327L93.196,390.327z"/>
												</g>
											</g>
										</g>
										<path fill="#FCB99B" d="M83.431,394.765c0.888,0.493,2.17,1.776,3.748,3.747c1.578,2.073,4.34,2.762,8.186,2.074
											c3.847-0.692,6.314-1.579,7.299-2.86l0.1-0.099c0.494-0.593,0.79-1.184,0.789-1.973c0.001-0.099,0-0.198,0-0.198
											c0-0.591-0.098-0.986-0.394-1.38l0,0c-2.664-1.085-4.538-2.072-5.425-2.959c-0.001-0.099-0.099-0.197-0.099-0.197
											c-0.197-0.493-0.296-1.085-0.394-1.579c0-0.099,0-0.296-0.099-0.394c0.001-0.099,0-0.198,0.001-0.295
											c0-0.099-0.001-0.199-0.001-0.199l0.001-0.097c-0.001-0.692,0.196-1.381,0.394-2.072c0.197-2.17-0.297-3.65-1.48-4.439
											c-1.183-0.789-3.156-0.888-5.72-0.198l0,0l0,0c0,0.691,0,1.382-0.099,2.072c0,0.1,0,0.198,0,0.297
											c-0.099,0.493-0.098,0.789-0.197,0.986l0,0c-0.099,0.493-0.198,0.986-0.395,1.48c-0.197,0.494-0.296,0.888-0.592,1.381
											c-0.098,0.099-0.098,0.197-0.197,0.395c-0.099,0.296-0.296,0.493-0.395,0.789c-0.493,0.888-1.183,1.776-1.874,2.565l0,0
											c-0.691,0.691-1.48,1.282-2.367,1.678c-0.296,0.196-0.591,0.295-0.789,0.394c-0.494,0.197-0.888,0.295-1.085,0.395
											C82.149,394.075,82.543,394.272,83.431,394.765z"/>
										<g transform="matrix( 1, 0, 0, 1, 0,0) ">
											<g>
												<g id="Cloth_1ch_head_0_Layer3_0_MEMBER_0_FILL_00000137830112932544617120000010422980559407663517_">
													<path fill="#EA906C" d="M89.546,386.381c0.493,0.395,1.282,0.986,2.861,1.775c1.972,1.086,2.86,1.184,3.452,1.282
														c0.493,0,0.888,0.001,1.283-0.098c-0.001-0.098-0.001-0.297-0.099-0.395c-0.001-0.098,0.001-0.196,0-0.295
														c0-0.1-0.002-0.198-0.002-0.198l0.002-0.098c0-0.691,0.196-1.382,0.395-2.071c0.198-2.171-0.296-3.65-1.48-4.439
														c-1.184-0.788-3.156-0.888-5.721-0.197l0,0l0,0c0,0.689,0.001,1.38-0.099,2.071c0,0.099,0.001,0.197,0,0.296
														c-0.098,0.494-0.098,0.79-0.198,0.987l0,0C89.843,385.395,89.743,385.887,89.546,386.381z"/>
												</g>
											</g>
										</g>
									</g>
									<g transform="matrix( 1.0998382568359375, 0.017730712890625, -0.017730712890625, 1.0998382568359375, -2.05,-472) ">
										<g transform="matrix( 1, 0, 0, 1, 0,0) ">
											<g>
												<g id="Cloth_1ch_head_0_Layer3_0_MEMBER_0_FILL_00000168077044317469964840000006358206542176980365_">
													<path fill="#FCB99B" d="M68.094,450.118c1.578-2.171,3.945-3.551,7.004-3.946c2.861-0.395,5.129,0.099,7.003,1.48l0,0
														c0.197,0.099,0.297,0.198,0.493,0.394l0,0c1.974,1.677,2.959,3.551,3.059,5.623c0.097,2.071,0,3.65-0.198,4.834
														l0.001,0.099l-0.198,2.367c-0.099,0.691-0.197,1.775-0.493,3.157c-0.296,1.874-0.888,3.452-1.677,4.636l-1.283,2.071
														c-0.691,1.479-1.874,2.17-3.452,2.072c-0.593-0.099-1.382-0.197-3.157-1.183c-1.577-0.888-2.367-1.48-2.762-1.775
														c-2.071-1.776-2.663-4.341-2.86-5.722c-0.099,0.098-0.197,0.198-0.296,0.197c-0.395,0.197-0.494,0.099-0.494,0.099
														c-0.197-0.099-0.492-0.197-0.789-0.69c-1.38-2.269-1.38-6.51-1.38-6.51c-0.099-2.367,0.197-3.353,0.296-3.847
														c0.197-0.79,0-1.48,0.394-2.171C67.601,450.809,67.896,450.414,68.094,450.118z"/>
												</g>
											</g>
										</g>
										<g transform="matrix( 0.9879913330078125, 0, 0, 0.7599945068359375, -0.1,-13.1) ">
											<g>
												<g id="Cloth_1ch_head_0_Layer3_0_MEMBER_1_FILL_00000071529280455295497900000015879939814299914129_">
													
														<linearGradient id="SVGID_4_" gradientUnits="userSpaceOnUse" x1="-1245.6921" y1="-275.8998" x2="-1245.6089" y2="-275.8998" gradientTransform="matrix(-10.1872 -0.0497 0.0251 6.0287 -11952.5 2231.7139)">
														<stop  offset="0" style="stop-color:#FF4145"/>
														<stop  offset="1" style="stop-color:#EE252A"/>
													</linearGradient>
													<path fill="url(#SVGID_4_)" d="M80.46,619.123c-0.001-0.198,0.098-0.395,0.198-0.592
														c0.099-0.099,0.197-0.197,0.394-0.198c0.197,0,0.296,0.099,0.395,0.197c0.098,0.198,0.098,0.296,0.099,0.591
														c-0.001,0.197-0.098,0.395-0.1,0.592c-0.098,0.198-0.197,0.197-0.393,0.198c-0.198,0-0.296-0.098-0.395-0.197
														C80.558,619.517,80.46,619.32,80.46,619.123z"/>
												</g>
											</g>
										</g>
										<g transform="matrix( 1, 0, 0, 1, 0,0) ">
											<g>
												<g id="Cloth_1ch_head_0_Layer0_0_FILL_00000126296199644557259520000013711599546476217218_">
													<path fill="#FFFFFF" d="M81.41,461.462c0.296,0.197,0.69,0.296,0.986,0.394c0.395,0.099,0.789,0.099,1.183,0.099
														c0.493-0.099,0.889-0.197,1.184-0.493c0.395-0.198,0.592-0.493,0.789-0.789c-0.098-0.099-0.197-0.297-0.494-0.493
														c-0.887-0.494-1.774-0.494-2.662-0.001C81.903,460.475,81.607,460.87,81.41,461.462 M74.407,461.659
														c0.395,0.197,0.69,0.296,1.086,0.394c0.099,0.001,0.196,0,0.296,0c0.492,0.001,0.887,0,1.38-0.099
														c0.395-0.099,0.691-0.197,1.085-0.394c-0.196-0.493-0.592-0.986-1.183-1.283c-0.493-0.197-1.085-0.296-1.579-0.295
														c-0.394,0.099-0.887,0.197-1.282,0.394c-0.296,0.197-0.493,0.296-0.591,0.493
														C73.716,461.166,74.012,461.364,74.407,461.659z"/>
												</g>
											</g>
										</g>
										
											<g transform="matrix( -0.7544708251953125, -0.016265869140625, -0.018157958984375, 0.8441314697265625, 11.15,-37.15) ">
											<g transform="matrix( 1, 0, 0, 1, 0,0) ">
												<g>
													<g id="ch3eye_ball__0_Layer0_0_FILL_00000075133455149657654060000012052780641365636488_">
														<path fill="#6B3628" d="M-100.149,586.784c0.394,0.001,0.69,0.197,0.986,0.394c0.297,0.297,0.395,0.593,0.396,0.987
															c-0.002,0.394-0.197,0.69-0.495,0.887c-0.296,0.296-0.591,0.395-0.986,0.395c-0.394,0-0.692-0.196-0.987-0.493
															c-0.295-0.295-0.394-0.591-0.394-0.986c0-0.395,0.198-0.69,0.492-0.987
															C-100.84,586.883-100.544,586.784-100.149,586.784z"/>
													</g>
												</g>
											</g>
											<g transform="matrix( 1.2004852294921875, 0, 0, 1.2004852294921875, -269.35,-88.45) ">
												<g>
													<g id="ch3eye_ball__0_Layer0_0_MEMBER_0_MEMBER_0_FILL_00000029033733689119530470000006244167087986179770_">
														<path d="M140.779,563.012c0.295,0,0.592,0.395,0.493,0.691c-0.001,0.296-0.297,0.493-0.592,0.493
															c-0.297-0.001-0.493-0.296-0.493-0.592C140.187,563.308,140.384,563.012,140.779,563.012z"/>
													</g>
												</g>
											</g>
											<g transform="matrix( 1.5006103515625, 0, 0, 1.5006103515625, -7.85,7.4) ">
												<g>
													<g id="ch3eye_ball__0_Layer0_0_MEMBER_0_MEMBER_1_FILL_00000135683780985815512010000003640042746216417196_">
														<path fill="#FFFFFF" d="M-61.598,386.846l-0.099-0.099c0-0.099,0-0.099,0.099-0.099l0.099-0.098
															c0.098,0,0.098,0,0.098,0.098l0.098,0.099c0.001,0.099,0.001,0.099-0.098,0.099l-0.098,0.098L-61.598,386.846z"/>
													</g>
												</g>
											</g>
										</g>
										<g transform="matrix( -0.7393646240234375, -0.01593017578125, -0.017791748046875, 0.827239990234375, -13.95,-37.4) ">
											<g transform="matrix( 1, 0, 0, 1, 0,0) ">
												<g>
													<g id="ch3eye_ball__0_Layer0_0_FILL_00000125596522877997287110000005895756641162754964_">
														<path fill="#6B3628" d="M-146.361,598.034c0.393-0.001,0.69,0.197,0.889,0.394c0.196,0.295,0.394,0.591,0.295,0.986
															c0,0.395-0.199,0.691-0.395,0.888c-0.297,0.295-0.592,0.395-0.888,0.394c-0.393,0-0.689-0.198-0.887-0.494
															c-0.295-0.295-0.393-0.591-0.395-0.986c-0.001-0.395,0.197-0.691,0.394-0.986
															C-147.051,598.231-146.756,598.034-146.361,598.034z"/>
													</g>
												</g>
											</g>
											<g transform="matrix( 1.2004852294921875, 0, 0, 1.2004852294921875, -269.35,-88.45) ">
												<g>
													<g id="ch3eye_ball__0_Layer0_0_MEMBER_0_MEMBER_0_FILL_00000124873378236522534520000012584537645176800141_">
														<path d="M102.351,572.453c0.297,0.001,0.592,0.394,0.494,0.691c-0.099,0.197-0.296,0.395-0.493,0.394
															c-0.297,0-0.493-0.296-0.494-0.592C101.76,572.748,102.055,572.452,102.351,572.453z"/>
													</g>
												</g>
											</g>
											<g transform="matrix( 1.5006103515625, 0, 0, 1.5006103515625, -7.85,7.4) ">
												<g>
													<g id="ch3eye_ball__0_Layer0_0_MEMBER_0_MEMBER_1_FILL_00000004542020868041965720000005925638682124022426_">
														<path fill="#FFFFFF" d="M-92.241,394.477l-0.098-0.099c-0.001-0.098-0.001-0.098,0.098-0.098l0.099-0.099
															c0.099,0,0.099,0,0.099,0.099c-0.001,0.099,0.098,0.099,0.098,0.099c0,0.098,0,0.098-0.098,0.098l-0.099,0.099
															C-92.241,394.477-92.241,394.477-92.241,394.477z"/>
													</g>
												</g>
											</g>
										</g>
										<g transform="matrix( -0.7544708251953125, -0.016265869140625, -0.018157958984375, 0.8441314697265625, -0.95,-38.3) ">
											<g>
												<g id="Cloth_1ch_head_0_Layer0_0_MEMBER_2_FILL_00000044875357795920910110000011830391972454316199_">
													<path d="M-129.565,588.179c0.197,0.297,0.789,1.283,2.073,1.874c1.971,0.79,3.844-0.197,4.042-0.296
														c0.098,0,0.198,0.001,0.297,0c0,0,0.098,0,0.098-0.098c0-0.099,0-0.099,0-0.099c-0.987-1.677-2.663-2.564-4.046-2.269
														c-0.296,0.099-0.887,0.197-1.38,0.888C-128.873,588.18-129.17,588.18-129.565,588.179z M-123.351,589.56
														c-1.48,0.592-4.638,0.986-5.031-0.888c0.296-1.282,2.663-1.282,3.749-0.296
														C-124.238,588.673-123.844,589.067-123.351,589.56z"/>
												</g>
											</g>
										</g>
										<g transform="matrix( -0.7544708251953125, -0.016265869140625, -0.018157958984375, 0.8441314697265625, -0.95,-38.3) ">
											<g>
												<g id="Cloth_1ch_head_0_Layer0_0_MEMBER_3_FILL_00000163066644605660546550000016142418703217190580_">
													<path d="M-119.208,589.757L-119.208,589.757L-119.208,589.757L-119.208,589.757L-119.208,589.757
														c-0.098,0.297,0,0.297,0.197,0.297c0.494,0.296,1.381,0.592,2.467,0.691c2.761,0.197,4.537-1.579,4.832-1.874
														c-0.295,0-0.691,0.098-0.985,0.098c-0.494-0.395-1.481-0.986-2.862-1.085c-0.394,0-1.085-0.099-1.874,0.197
														C-118.519,588.475-119.011,589.462-119.208,589.757z M-112.994,589.165c-1.381,1.579-4.043,1.481-5.917,0.592
														c0.394-1.183,2.268-1.874,3.648-1.676C-114.573,588.18-113.389,588.574-112.994,589.165z"/>
												</g>
											</g>
										</g>
										<g transform="matrix( -0.7544708251953125, -0.016265869140625, -0.018157958984375, 0.8441314697265625, -0.95,-38.3) ">
											<g>
												<g id="Cloth_1ch_head_0_Layer0_0_MEMBER_4_FILL_00000096057894366736437290000016238127920316578186_">
													<path d="M-127.296,584.826c-0.297,0-0.89,0-1.185,0.394c-0.297,0.296-0.297,0.691-0.395,0.691
														c0,0,0.001-0.888,0.691-1.48c0.198-0.197,0.494-0.295,0.887-0.295c0.986-0.099,2.169,0.295,3.65,1.282
														c0,0.099-0.001,0.197-0.001,0.197c0.001,0.198,0,0.296-0.1,0.395C-124.041,585.813-125.718,584.727-127.296,584.826z"
														/>
												</g>
											</g>
										</g>
										<g transform="matrix( -0.7544708251953125, -0.016265869140625, -0.018157958984375, 0.8441314697265625, -0.95,-38.3) ">
											<g>
												<g id="Cloth_1ch_head_0_Layer0_0_MEMBER_5_FILL_00000154411107125058235450000000927241225677925544_">
													<path d="M-118.715,585.911c0-0.099-0.099-0.198-0.099-0.395c0-0.099-0.001-0.198,0-0.296
														c2.27-0.789,3.945-1.085,5.13-0.986c1.184,0.197,2.169,0.691,2.861,1.48c-0.691-0.198-1.482-0.395-2.468-0.494
														C-115.657,585.022-117.532,585.516-118.715,585.911z"/>
												</g>
											</g>
										</g>
									</g>
									<g transform="matrix( 1.0998382568359375, 0.017730712890625, -0.017730712890625, 1.0998382568359375, -2.05,-472) ">
										<path d="M62.274,464.519c0,0.395,0.099,0.987,0.493,1.579c0.591,0.986,1.676,1.381,2.17,1.479
											c-1.282-1.282-1.184-2.269-1.183-2.466c0.197-0.888,1.282-1.48,3.353-2.663c0.789-0.494,0.789-0.395,1.578-0.789
											c1.085-0.591,2.467-1.38,3.749-2.565c0.691-0.592,1.577-1.677,2.466-3.156l0,0c0.098-0.197,0.592-1.085,0.691-1.283
											c0.788-2.269,2.564-4.734,5.128-4.636l0.001-5.82l-0.099,0l0-0.099l0,0c-3.651-1.677-7.398-0.888-10.456,1.282
											c-4.143,2.86-5.524,7.398-5.82,8.582c-0.493,1.973-0.098,2.169-0.888,4.734C62.865,460.279,62.175,462.251,62.274,464.519
											z"/>
										<path d="M89.399,456.431c0-0.591-0.098-1.183-0.099-1.775c-0.197-1.382-0.491-2.663-0.887-3.847
											c-0.296-0.887-0.691-1.775-1.183-2.564c-0.493-0.888-1.085-1.579-1.777-2.269c-0.886-0.789-1.775-1.381-2.761-1.677
											c-0.492-0.099-1.085-0.197-1.578-0.197l0,0c-0.099,0-0.197,0-0.296-0.001c0,0,0,0-0.099,0.001l-0.001,5.819l0,0
											c0.1,0,0.297,0,0.394,0c0.1,0.001,0.1,0.001,0.198,0c0.098,0,0.198,0,0.297,0c0.295,0.098,0.591,0.296,0.887,0.592
											c0.691,0.591,1.184,1.282,1.677,2.17c0.395,0.789,0.79,1.677,0.986,2.564c0.198,0.889,0.296,1.678,0.297,2.171
											c0,0.592,0,1.184,0,1.874l-0.099,1.578c-0.099,0.691-0.197,1.676-0.395,2.959c0,0.099,0,0.099,0,0.197
											c-0.295,1.678-0.788,3.058-1.577,4.144l-1.38,2.367l-0.002,1.282c0.198,0.493,0.296,0.888,0.593,1.184
											c0.099-0.099,0.098-0.197,0.196-0.296c0.298-0.593,0.692-1.184,1.185-1.775c0.198-0.296,0.393-0.493,0.591-0.79
											c0.495-0.493,0.789-0.887,0.988-1.182c-0.495,1.084-0.593,1.971-0.692,2.663c-0.098,1.085,0.001,2.565,0.001,2.565
											l0,0.098c0,0,0.394-1.973,0.987-3.649c0.593-1.677,1.085-2.268,1.675-3.551c0.594-1.184,1.285-2.861,1.678-5.228
											c0.098-0.296,0.099-0.592,0.197-0.888C89.498,459.588,89.499,458.108,89.399,456.431z"/>
									</g>
									<g transform="matrix( 1, 0, 0, 1, 0,0) ">
										<g>
											<g id="Layer5_48_MEMBER_2_FILL_00000093883559977205957670000009130569508015816849_">
												<path fill="#E7372E" d="M77.384,43.983c1.677,0,2.269-0.099,2.269,0c0.098,0.197-1.086,0.888-2.269,0.888
													c-1.479,0.099-2.761-0.789-2.761-0.986C74.72,43.786,75.411,43.983,77.384,43.983z"/>
											</g>
										</g>
									</g>
									<g transform="matrix( 0.3377532958984375, 0, 0, 0.3377532958984375, 3216.95,368.4) ">
										<g>
											<g id="Layer4_0_MEMBER_8_FILL_00000045584756391971923970000015166113546304165804_">
												<path fill="#EA906C" d="M-9293.558-966.547c-0.198,0.097-0.79,0.197-1.679,0.097c-1.58-0.295-2.762-1.677-2.665-1.875
													c0.101-0.194,1.282,0.791,3.158,0.891c1.679,0,2.759-0.693,2.957-0.494
													C-9291.59-967.732-9292.475-966.844-9293.558-966.547z"/>
											</g>
										</g>
									</g>
									<g>
										<path fill="#C21111" d="M65.35,40.826c0,0.198,0.099,0.395,0.099,0.494c0.198,0.197,0.493,0.197,0.691,0
											c0.098-0.099,0.098-0.296,0.098-0.395v-0.099c0-0.493-0.197-0.887-0.395-1.381l0,0c-0.296,0.395-0.395,0.888-0.494,1.283
											C65.449,40.728,65.449,40.728,65.35,40.826z"/>
										<path fill="#FFCC00" d="M65.153,41.123c0,0.591,0.197,0.985,0.69,0.985c0.591,0,0.888-0.493,0.69-1.479
											c0-0.099,0-0.099,0-0.197c-0.099-0.592-0.296-1.184-0.592-1.677c-0.295,0.493-0.493,0.986-0.69,1.578
											c0,0.099-0.099,0.197-0.099,0.296C65.153,40.728,65.153,40.925,65.153,41.123z M65.35,40.826c0-0.098,0-0.098,0-0.197
											c0.099-0.395,0.297-0.888,0.494-1.282l0,0v-0.099v0.099c0.198,0.493,0.395,0.888,0.395,1.381v0.098
											c0,0.099,0,0.297-0.098,0.395l0,0c-0.198,0.296-0.592,0.296-0.691,0C65.449,41.123,65.35,41.024,65.35,40.826z"/>
									</g>
								</g>
								<g transform="matrix( 0.351959228515625, 0, 0, 0.351959228515625, 4965.5,580.6) ">
									<g transform="matrix( 1, 0, 0, 1, 0,0) ">
										<g>
											<g id="Seragu_0_Layer0_0_FILL_00000075876304104715927410000006809812809363158179_">
												<path fill="#3E8ACE" d="M-13949.131-1491.229c6.708-1.279,13.906-2.168,21.702-2.467
													c-0.2,69.642-0.498,139.378-0.694,209.021c18.842,0.588,37.682,1.188,56.524,1.773
													c-0.991,1.779-2.566,4.145-5.131,6.218c-15.388,12.328-45.965-3.158-51.095-5.719
													C-13976.751-1307.163-13950.415-1483.234-13949.131-1491.229z"/>
												<path fill="#CD070C" d="M-13950.908-1491.819c0.593,0.196,1.184,0.394,1.774,0.491l0,0
													c-6.016,32.158-10.16,73.883-5.62,122.018c2.169,22.294,5.82,42.516,10.16,60.368
													c2.068,4.539,6.806,12.924,16.078,19.631c15.78,11.44,33.141,9.567,37.383,8.976c2.762,2.567,5.526,5.033,8.285,7.597
													c-6.017,1.676-15.291,3.352-26.234,1.476c-26.93-4.634-41.035-27.028-43.5-31.168
													c-2.963-10.358-5.625-21.304-7.796-32.749c-6.509-33.834-6.706-60.268-6.805-80.986
													c-0.099-26.234,1.676-41.428,2.662-48.035c1.283-9.564,2.86-17.459,4.143-23.281
													C-13957.321-1488.76-13954.063-1490.24-13950.908-1491.819z"/>
												<path fill="#E5060B" d="M-13952.389-1489.157c2.37-0.687,4.736-1.282,7.202-1.774L-13952.389-1489.157z"/>
											</g>
										</g>
									</g>
								</g>
								<g transform="matrix( 1, 0, 0, 1, 0,0) ">
									<g>
										<g id="a1_acton_3_Layer11_0_MEMBER_3_MEMBER_0_FILL_00000155866068956845595980000017451444605251841446_">
											<path fill="#0066A5" d="M85.374,56.412c6.215,2.86,6.808,9.272,5.623,17.755l-9.567,0.986l-1.086-11.344
												C82.909,60.554,82.909,57.102,85.374,56.412z"/>
										</g>
									</g>
								</g>
								<g transform="matrix( 1, 0, 0, 1, 0,0) ">
									<g>
										<g id="Cloth_1lady11_top_0_Layer1_0_MEMBER_1_FILL_00000082333689310581940820000011880065102278301857_">
											<path fill="#0066A5" d="M59.925,54.143c0.099,4.537,0.493,8.285,0.887,10.851c0.69,4.734,1.579,8.187,2.072,14.303
												c0.098,1.578,0.198,2.957,0.198,3.847c-0.887,3.155-1.776,6.215-2.664,9.37c0.098,0.297,0.197,0.592,0.394,0.791
												c3.453,5.72,22.096,0.196,26.633-1.284c0.099-1.579,0.296-4.143,0.789-7.102c0.986-5.129,2.367-6.214,3.058-12.133
												c0.789-6.313-0.196-9.173-0.494-9.864c-1.38-3.65-3.846-5.918-5.425-7.102c-0.395-0.197-7.496-3.848-7.89-4.045
												c-0.099,0.099,0.493,0.987,1.38,2.072c0.987,2.663,5.129,6.904-0.788,7.2c-6.314,1.677-10.95-4.143-10.852-10.062
												C64.758,51.972,62.391,53.058,59.925,54.143z M81.034,69.234L81.034,69.234L81.034,69.234L81.034,69.234z"/>
											<path fill="#576B7D" d="M81.034,69.234L81.034,69.234L81.034,69.234L81.034,69.234z"/>
											<path fill="#5E7389" d="M67.324,50.789L67.324,50.789L67.324,50.789L67.324,50.789z"/>
										</g>
									</g>
								</g>
								<g transform="matrix( 1, 0, 0, 1, 0,0) ">
									<g>
										<g id="Cloth_1lady11_top_0_Layer1_1_FILL_00000104681675246294092130000012987063860377215882_">
											<path fill="#0066A5" d="M115.164,119.542c-6.115,2.17-33.734,11.836-43.796,10.554c-1.479-0.196-2.86-0.592-2.86-0.592
												c-6.215-1.479-10.851-6.608-11.838-12.823c-0.492-2.958-0.69-6.411-0.295-10.159c0.591-6.313,2.663-11.245,4.241-14.304
												c0.099,0,0.69,0.1,0.69,0.296l0,0l0,0c0.789,3.059,4.341,4.835,10.851,5.229h0.098c0.099,0,0.197,0,0.296,0
												c0.297,0,0.593,0,0.887,0c0.1,0,0.199,0,0.199,0c0.098-0.098,0.197-0.098,0.295-0.098c0.099,0,0.198,0,0.296,0
												c0.099,0,0.099,0.098,0.198,0.098c0.198-0.198,0.394-0.198,0.592,0c0,0,0,0.1,0.098,0.1
												c0.296-0.197,0.494-0.298,0.789-0.197h0.099c0,0,0,0,0.099,0c0.295-0.198,0.591-0.198,0.887,0l0,0
												c0.296-0.198,0.691-0.198,0.987,0.098l0.099-0.098c0.196-0.101,0.492-0.101,0.888,0c0,0,0.098,0,0.098,0.098
												c2.564,0,4.931-0.198,7.202-0.494c0.296,0,0.592-0.098,0.985-0.098v0.098v0.101v0.098c0,0.098,0,0.098,0.1,0.296
												c0,0.1,0.196,1.479,0.789,5.326c3.058,0.789,6.608,2.07,10.356,3.946C106.385,110.96,111.711,115.793,115.164,119.542z"
												/>
										</g>
									</g>
									<path fill="#0066A5" d="M118.22,183.164c-1.972,1.579-8.087,2.072-14.893,1.973c-3.157-0.098-6.512-0.295-9.666-0.592l0,0
										c-0.101,0-0.101,0-0.199,0l0,0c-0.098,0-0.197,0-0.295,0h-0.1c-0.887-0.098-1.676-0.196-2.565-0.296
										c-2.268-0.296-4.438-0.688-6.115-1.085c-0.59-0.197-1.182-0.295-1.676-0.493c-0.197-0.099-0.395-0.099-0.592-0.196l0,0
										c-0.986-0.396-1.578-0.79-1.875-1.283c-0.789,0.099-1.678,0-2.565-0.1c-2.763-0.394-5.523-1.676-6.214-2.662
										c2.269-11.048,4.833-22.193,7.498-33.537c0.098-0.395,0.197-0.889,0.197-0.889c0.69-2.959,1.183-5.03,1.973-7.693
										c0.197-0.592,0.197-0.592,0.197-0.592c0.296-2.96-8.68-6.115-18.149-8.681c10.456-5.522,20.812-11.146,31.269-16.67
										c2.465-0.099,7.102,0.099,11.936,2.466c8.877,4.34,12.625,12.528,13.118,15.289c0.69,4.932,1.283,10.259,1.579,15.881
										C121.872,159.293,120.292,172.71,118.22,183.164z"/>
								</g>
								<g transform="matrix( 1, 0, 0, 1, 0,0) ">
									<g>
										<g id="Cloth_1lady11_top_0_Layer1_1_MEMBER_6_FILL_00000052787272053366572480000000296819330801233579_">
											<path fill="#EA4E5A" d="M60.32,92.317c0.493-1.678,0.986-3.354,1.479-5.13c1.579,1.479,6.609,5.721,14.303,6.313
												c5.129,0.395,9.271-0.987,11.343-1.875c0.099,2.172,0.099,4.341,0.197,6.412c-1.874,1.086-7.398,3.748-14.302,2.663
												c-1.875-0.296-6.413-1.184-10.259-4.834C61.701,94.586,60.813,93.304,60.32,92.317z"/>
										</g>
									</g>
								</g>
								<g transform="matrix( 1, 0, 0, 1, 0,0) ">
									<g>
										<g id="Cloth_1lady11_top_0_Layer1_2_FILL_00000116953468982586993540000003597183257145275067_">
											<path fill="#CD070C" d="M60.024,53.255c0.395-0.099,0.789-0.296,1.183-0.395c9.174,10.555,18.347,21.208,27.422,31.763
												c0.197-0.396,0.296-0.789,0.493-1.184c0.69-1.973,0.987-3.748,0.987-5.327c-1.381-3.452-3.551-7.99-7.201-12.626
												C76.497,57.399,69,53.156,64.562,51.184C62.688,51.972,61.109,52.663,60.024,53.255z"/>
											<path fill="#CD070C" d="M68.408,81.072c4.538,10.455,4.439,13.021,8.581,20.419c0,0,2.664,4.734,5.625,8.482
												c9.862,12.922,29.689,17.163,36.989,18.545c0-0.396,0-0.889-0.1-1.382c-0.197-1.479-0.789-2.662-1.283-3.55
												c-16.176-3.158-24.758-9.767-29.591-15.289c-8.384-9.569-8.286-19.039-20.024-39.358
												c-3.748-6.511-7.299-11.639-9.666-14.895c-1.973,0.986-3.847,1.875-5.82,2.861c1.875,1.874,4.341,4.734,6.905,8.483
												C63.871,70.714,65.844,75.253,68.408,81.072z"/>
											<path fill="#3E8ACE" d="M65.745,63.711L65.745,63.711c2.269,4.34,5.523,10.949,9.075,19.235
												c5.326,12.33,5.819,16.373,8.386,21.011c3.944,7.003,12.921,15.387,35.015,19.63c-1.084-1.578-2.761-3.847-5.127-6.216
												c-3.847-3.847-7.398-6.017-11.147-8.187c-2.663-1.578-6.115-3.354-10.357-5.13c-2.072-0.887-3.649-2.662-3.945-4.931
												v-0.1c-0.592-3.552-0.295-6.511,0-8.778c0.395-1.973,0.79-3.947,1.184-5.819c-1.085-2.764-2.466-5.722-4.144-8.681
												c-7.102-12.035-16.866-19.137-23.476-23.083c-0.295,0.099-0.492,0.296-0.789,0.395c-0.691,0.296-1.283,0.69-1.973,0.986
												C60.616,57.003,62.982,60.16,65.745,63.711z"/>
										</g>
									</g>
								</g>
								<g transform="matrix( 1, 0, 0, 1, 0,0) ">
									<g>
										<g id="Cloth_1lady11_top_0_Layer1_2_MEMBER_0_FILL_00000060734292206282735130000011515964900174252984_">
											<path fill="#EE252A" d="M75.708,79.986l0.099,0.1l0,0L75.708,79.986z"/>
										</g>
									</g>
								</g>
								<path d="M61.799,44.97c0.493,1.084,1.085,2.761,1.579,4.735c1.38,5.424,0.394,7.595,0.887,12.428
									c0.592,6.608,2.663,7.102,4.735,17.46c0.494,2.661,0.79,4.834,0.987,6.214c1.183-2.86,2.268-6.905,1.677-11.442
									c-0.494-3.451-1.677-6.215-1.677-6.116c0.789,1.874,1.677,4.045,2.17,6.709c0.197,0.887,0.295,1.676,0.394,2.465
									c0.493-2.762,0.79-6.017,0.593-9.765c-0.296-7.99-2.664-14.303-4.539-18.348C66.336,47.83,64.068,46.351,61.799,44.97z"/>
								<path fill="#CD070C" d="M100.664,177.739c1.677,0.69,5.031,1.874,9.37,1.677c4.143-0.197,7.3-1.677,8.879-2.564
									c0.197,3.255,0.394,6.511,0.493,9.864c-1.381,0.788-3.453,1.874-6.116,2.467c-2.86,0.689-5.128,0.689-6.115,0.591
									c-3.453-0.197-6.115-1.085-7.793-1.775c-2.169,0.493-6.509,1.185-11.738-0.197c-4.143-1.085-7.102-3.156-8.78-4.438
									c-0.69,0-2.663-0.1-4.537-1.48c-2.466-1.775-2.959-4.438-3.059-5.03c0.79-2.367,1.58-4.733,2.369-7.102
									c0.591,0.788,1.479,1.874,2.959,2.861c2.564,1.675,5.228,1.774,6.313,1.774c1.281,1.085,4.34,3.354,8.877,4.143
									C95.929,179.12,99.084,178.33,100.664,177.739z"/>
							</g>
						</g>
					</g>
				</g>
				<g>
					<defs>
						<rect id="SVGID_5_" x="31.615" y="-8" width="77.532" height="106.925"/>
					</defs>
					<clipPath id="SVGID_6_">
						<use xlink:href="#SVGID_5_"  overflow="visible"/>
					</clipPath>
					<g clip-path="url(#SVGID_6_)">
						<g>
							<path fill="#FCB99B" d="M82.909,106.127c-5.229-2.17-10.752-4.734-16.375-7.694c-1.677-0.889-3.353-1.775-4.932-2.762
								c-2.17-6.806-4.242-13.712-6.412-20.518l8.681-2.761c0.592,1.774,1.183,3.551,1.677,5.522
								c1.282,4.735,2.17,9.272,2.663,13.317c5.227,3.057,10.457,6.116,15.586,9.173c-0.198,0.887-0.297,1.775-0.494,2.663
								C83.206,104.154,83.006,105.138,82.909,106.127z"/>
						</g>
					</g>
				</g>
			</g>
		</g>
	</g>
</g>
<path fill="#536969" d="M112.599,91.725c-0.986,0.986-1.578,2.17-1.973,3.452c-0.296,1.281-0.296,2.564-0.296,3.946l-0.297,0.295
	h-0.887l-0.297,0.296l-0.591-0.099c-0.296-0.197-0.789-0.099-1.185-0.197c-0.394,0-0.888-0.1-0.985-0.395
	c-0.296-0.296-0.296-0.592-0.296-0.789c-0.099-1.381-0.198-2.663,0.394-3.946l1.381-1.972l0.493-1.185
	c0.198-0.295,0.593-0.591,0.987-0.493c0.395,0,0.592,0.395,0.985,0.493l0.987-0.099C111.613,91.034,112.205,91.232,112.599,91.725z"
	/>
<path fill="#FCB99B" d="M81.725,105.634c3.552,1.577,7.2,2.762,11.047,3.452c0.493-0.889-4.537-2.564-4.537-2.564
	s7.003,1.48,7.201,0.689c0.196-0.689-6.608-2.465-6.608-2.465s8.087,1.479,8.187,0.592c0-0.79-7.102-2.367-7.102-2.367
	s6.806,0.394,6.806-0.296c0-0.986-13.908-2.467-13.908-2.467L81.725,105.634L81.725,105.634z"/>
<path fill="#FCB99B" d="M83.797,100.405c0,0,5.424-1.973,5.917-1.578c0.592,0.394-2.366,2.565-2.366,2.565L83.797,100.405z"/>
<path fill="#E7DFC2" d="M66.83,95.867H39.013c-0.296,0-0.492,0.297-0.395,0.592l4.834,17.756c0,0.197,0.394,0.494,0.69,0.494H71.96
	c0.295,0,0.492-0.297,0.394-0.592l-4.833-17.756C67.521,96.164,67.125,95.867,66.83,95.867z"/>
<path fill="#F7F4E3" d="M70.283,114.412L66.14,99.419c0-0.295-0.296-0.494-0.592-0.494H41.874c-0.198,0-0.295,0.199-0.295,0.494
	l4.142,14.993v0.198h24.66L70.283,114.412z"/>
<path fill="#405050" d="M40.987,97.248c0,0.296-0.296,0.594-0.593,0.594c-0.394-0.1-0.493-0.594-0.394-0.89
	c0.098-0.195,0.197-0.295,0.394-0.394C40.69,96.558,40.987,96.854,40.987,97.248z"/>
<path fill="#576E6E" d="M40.69,97.248l-0.296,0.296c-0.197,0-0.296-0.195-0.296-0.296c0-0.098,0.198-0.296,0.296-0.296
	C40.493,96.854,40.69,97.052,40.69,97.248z"/>
<path fill="#EBB254" d="M65.153,99.22H41.48c-0.296,0-0.493,0.198-0.395,0.396l4.142,14.994l0.099,0.493h24.562l-0.099-0.493
	l-4.143-14.994c0-0.197-0.297-0.492-0.593-0.492L65.153,99.22z"/>
<path fill="#FEDEA6" d="M69.79,114.61l-2.664-9.668H42.466l2.664,9.668l0.097,0.493H69.79V114.61L69.79,114.61z"/>
<path fill="#EBB254" d="M65.153,117.469h-24.66l4.933-2.366h24.462L65.153,117.469z"/>
<path fill="#FEDEA6" d="M96.422,70.616l50.01-8.385c0.789-0.196,1.578,0.493,1.578,1.283l-0.296,31.958
	c0,0.593-0.394,1.185-0.986,1.284l-48.826,10.159c-1.184,0.295-2.664-0.493-2.664-2.27V71.898
	C95.238,71.208,95.732,70.616,96.422,70.616L96.422,70.616z"/>
<path fill="#FAC978" d="M98.691,70.419l47.741-7.891c0.789-0.198,1.578,0.492,1.578,1.281l-0.196,31.663
	c0,0.691-0.493,1.185-1.086,1.382l-47.544,9.864c-0.888,0-1.676-0.592-1.676-1.381V71.8C97.508,71.109,98,70.517,98.691,70.419z"/>
<path fill="#EBB254" d="M120.292,87.089l-2.86,15.782l15.093-3.156L120.292,87.089z M119.603,115.99l-6.609-2.268
	c-0.986-0.396-0.986-1.974,0.1-2.17l11.244-2.862h0.593l6.51,1.974c0.985,0.296,0.985,1.873,0,2.17l-11.147,3.156H119.603z"/>
<path fill="#FEDEA6" d="M129.466,85.511c-0.099-0.593-0.592-0.889-1.085-0.789c-0.099,0-0.099,0-0.197,0l-7.004,1.281
	c-0.591,0-0.986,0.396-0.986,0.986l-0.197,29.099l15.093-4.34L129.466,85.511z M127.691,108.098
	c-2.072,0.199-4.044-2.071-4.438-5.128c-0.296-3.059,1.184-5.723,3.354-5.919c2.07-0.295,4.045,1.973,4.34,5.129
	C131.242,105.138,129.862,107.901,127.691,108.098z"/>
<path fill="#F5E2D5" d="M125.522,33.527c-7.201,0-13.021-5.819-13.021-13.021c0-7.201,5.82-13.02,13.021-13.02
	c7.199,0,13.02,5.819,13.02,13.02C138.542,27.708,132.721,33.527,125.522,33.527L125.522,33.527z M125.522,11.037
	c-5.13,0-9.372,4.143-9.372,9.371c0,5.228,4.143,9.371,9.372,9.371c5.227,0,9.37-4.143,9.37-9.371
	C134.892,15.18,130.651,11.037,125.522,11.037z"/>
<path fill="#F5E2D5" d="M120.687,23.761l-0.591-1.085l4.931-2.663L127,12.122l1.282,0.395l-2.268,8.385L120.687,23.761z"/>
<g>
	<g id="a1_acton_3_Layer1_0_MEMBER_3_MEMBER_0_FILL_00000065768875480088075460000009735519573308745350_">
		<path fill="#006293" d="M53.415,71.602c-0.888-2.761-2.368-7.3-0.888-12.035c0.395-1.084,0.789-1.973,1.085-2.367
			c1.48,1.578,3.157,3.453,4.735,5.523c2.564,3.354,4.537,6.608,6.017,9.47c0.098,0.79,0.197,1.479,0.197,2.27
			c-3.156,0.394-6.214,0.887-9.371,1.282C54.303,74.068,53.711,72.588,53.415,71.602z"/>
	</g>
</g>
<g>
	<path fill="#FCB99B" d="M82.909,106.127c-5.229-2.17-10.752-4.734-16.375-7.694c-1.677-0.889-3.353-1.775-4.932-2.762
		c-2.17-6.806-4.242-13.712-6.412-20.518l8.681-2.761c0.592,1.774,1.183,3.551,1.677,5.522c1.282,4.735,2.17,9.272,2.663,13.317
		c5.227,3.057,10.457,6.116,15.586,9.173c-0.198,0.887-0.297,1.775-0.494,2.663C83.206,104.154,83.006,105.138,82.909,106.127z"/>
</g>
</svg>
