<?xml version="1.0" encoding="utf-8"?>
<!-- Generator: Adobe Illustrator 26.0.1, SVG Export Plug-In . SVG Version: 6.00 Build 0)  -->
<svg version="1.1" id="Layer_1" xmlns="http://www.w3.org/2000/svg" xmlns:xlink="http://www.w3.org/1999/xlink" x="0px" y="0px"
	 viewBox="0 0 182 191" style="enable-background:new 0 0 182 191;" xml:space="preserve">
<style type="text/css">
	.st0{fill:#BDDEEF;}
	.st1{fill:#52A7C1;}
	.st2{fill:#99CCE0;}
	.st3{fill:#231F20;}
	.st4{fill:#DE9F7E;}
	.st5{fill:#FFFFFF;}
	.st6{fill:#D3D3D3;}
	.st7{fill:#D38A6A;}
	.st8{fill:#D34047;}
	.st9{fill:#CE8065;}
	.st10{fill:#FCB856;}
	.st11{fill:#B7303D;}
	.st12{fill:#DD9373;}
</style>
<g>
	<g>
		<g>
			<path class="st0" d="M51,36c-2.6,2.5-5.1,5.4-6.7,8.4c-3.4,6.3-3.7,15.2-2.6,22.1c0.7,4.7,3.8,11.3,2.3,16.1
				c-2,6.5-12.8,6.2-18,7.8c-4.8,1.5-9.4,5.2-11.8,9.6c-7.5,13.7,1.5,21,6.1,27.2c5.2,7-6.1,15.4,0.4,22.3
				c6.7,7.3,14.9,10.3,28.3,10.3c26.7,0,32.7,2.1,69.7-0.5c7-0.5,16.4-2.1,23.3-2.8c10.6-1.1,36.6-10.3,29.8-27.6
				c-5-12.8-31.4-10.9-22.6-28.4c5.8-11.5,16.7-27.4,3.1-37.5c-9.8-7.4-16.1-11.6-21.8-22.7c-6.2-12.2-15-18.8-28.8-19.9
				c-7.5-0.6-15-0.6-22.3,1.1c-8.9,2-17.8,5.9-24.9,11.7C53.3,33.9,52.1,34.9,51,36z"/>
			<g>
				<path class="st1" d="M138.4,114.5c-1-7.8,12.4-8.5,11.1-1.1c2.9-4.9,11.2-0.1,8.9,5.5c2.4-0.4,4.3,1.5,5.2,3.6
					c1.1,2.6,0.3,4.4-1.4,6.5c2.3,0,4.7,2,4.9,4.4c0.2,3.4-0.3,4.5-2.2,6.3c2.5,0.3,3.3,3.4,3.3,5.7c-0.1,3.5-1.9,4.3-4.9,4.9
					c-3.6,0.7-6.6,0.7-10.3,0.3c-3.1-0.4-6.4-1.5-9.6-1.5c-5.2,0-10.4-0.6-15.6-1.3c-3.5-0.5-8.4-0.2-10.6-3.3
					c-1.8-2.5-2.5-5.8-1.3-8.7c0.7-1.6,4.1-5.9,6.1-3.1c-2.8-2.3-2.8-4.5-2-7.2c0.9-2.6,3.9-5,6.6-3.6c-1.8-3.4-0.2-7.1,2.9-9.3
					C129.5,112.5,135.1,108.8,138.4,114.5z"/>
				<path class="st1" d="M97.3,137.1c-4.7-5.3,2.8-12.5,7.9-8.3c-4.3-8.4,10.7-13.2,11.2-4.3c3.8-4.8,12.3-2.2,10.4,4.4
					c7.2-2.2,10.7,7.4,6.3,10.9c3.8,0.9,4.4,6.6,1.7,8.8c-2.5,2-8.6,1.5-11.8,1.5c-4.3,0-8.6-0.3-12.7-0.6c-4.7-0.4-12.1,1.1-16-2.4
					c-1.7-1.5-3.7-2.9-2.8-7.3C92,138,95.7,134.4,97.3,137.1z"/>
				<path class="st1" d="M150.6,143.8c-2.5-2.8,1.5-6.7,4.2-4.5c-2.3-4.5,5.7-7.1,6-2.3c2-2.6,6.6-1.2,5.6,2.3
					c3.9-1.2,5.8,4,3.4,5.8c2,0.5,2.4,3.5,0.9,4.7c-1.3,1.1-4.6,0.8-6.3,0.8c-2.3,0-4.6-0.1-6.8-0.3c-2.5-0.2-6.5,0.6-8.6-1.3
					c-0.9-0.8-2-1.6-1.5-3.9C147.7,144.3,149.7,142.3,150.6,143.8z"/>
				<path class="st1" d="M28.8,141.3c-2.5-2.8,1.5-6.7,4.2-4.5c-2.3-4.5,5.7-7.1,6-2.3c2-2.6,6.6-1.2,5.6,2.3c3.9-1.2,5.8,4,3.4,5.8
					c2,0.5,2.4,3.5,0.9,4.7c-1.3,1.1-4.6,0.8-6.3,0.8c-2.3,0-4.6-0.1-6.8-0.3c-2.5-0.2-6.5,0.6-8.6-1.3c-0.9-0.8-2-1.6-1.5-3.9
					C25.9,141.8,28,139.8,28.8,141.3z"/>
			</g>
			<path class="st2" d="M176.6,155.4c0,8.5-37.9,15.4-84.6,15.4c-46.7,0-84.6-6.9-84.6-15.4c0-8.5,37.9-15.4,84.6-15.4
				C138.8,140.1,176.6,146.9,176.6,155.4z"/>
		</g>
	</g>
	<g>
		<g>
			<g>
				<g>
					<g>
						<path class="st3" d="M73.2,150.1c-0.1-0.2-0.2-0.5-0.3-0.7c0,0,0,0,0,0c0,0,0,0,0-0.1c0,0-0.1-0.1-0.1-0.1
							c0-0.1-0.1-0.1-0.1-0.2c0-0.1-0.1-0.1-0.1-0.2c-0.1-0.1-0.1-0.1-0.2-0.2c0,0,0,0-0.1-0.1c0,0,0,0,0,0c0,0-0.1-0.1-0.1-0.1
							c-0.1-0.1-0.4-0.1-0.7-0.2c0,0-1.2-0.4-2.4-0.7c-1.8-0.4-5.3,0.1-7,0.9c-1.7,0.8-3.7,1.1-5.7,1.3l-0.4,0.1
							c-2.3,0.3-4.5,0.7-6.6,1.8c-2.3,1.3-3.9,3.5-4,5.7c-0.1,1.4,0.4,2.8,1.4,3.9c1,1,2.4,1.6,3.8,1.6c0.1,0,0.2,0,0.2,0
							c6.9-0.3,13.8-2,20.1-4.8c0.3-0.1,0.6-0.3,0.9-0.5c0.3-0.2,0.6-0.4,0.9-0.6c0.2-0.2,0.3-0.4,0.4-0.7c0.3-0.6,0.4-1.2,0.5-1.9
							c0,0,0,0,0,0c0,0,0,0,0-0.1C73.7,152.9,73.6,151.4,73.2,150.1z"/>
						<g>
							<path class="st4" d="M73.7,148.2C73.6,148.2,73.6,148.2,73.7,148.2c-1.6,0.6-3.3,0.5-4.8,0.2c-2-0.4-4.5,0-6.4,0.8
								c-2,0.9-4.2,1.2-6.3,1.5c-2.1,0.3-4.3,0.7-6.2,1.7c-1.9,1-3.4,2.9-3.6,5c-0.2,2.5,1.9,4.6,4.4,4.5c6.8-0.3,13.5-1.9,19.7-4.7
								c0.3-0.1,0.5-0.3,0.7-0.4c0.7-0.6,1.5-1.1,2.4-1.4c1.5-0.6,2.6-1.1,3.2-1.4c0.2-1.2,0.7-2.7,0.3-4
								C76.7,148.4,75.1,147.7,73.7,148.2z"/>
						</g>
						<path class="st3" d="M50.8,151.5c0.8,1.4,2,3.7,2.4,6.8c0.2,1.7,0.1,3.1,0,4.2c2.1-0.4,4.3-0.8,6.4-1.2
							c0.1-1.3,0.1-3.2-0.3-5.3c-0.5-2.6-1.4-4.5-2.2-5.9C55,150.6,52.9,151.1,50.8,151.5z"/>
					</g>
					<g>
						<path class="st3" d="M111.7,150.5c0.1-0.2,0.2-0.5,0.3-0.7c0,0,0,0,0,0c0,0,0,0,0-0.1c0,0,0.1-0.1,0.1-0.1
							c0-0.1,0.1-0.1,0.1-0.2c0-0.1,0.1-0.1,0.1-0.2c0.1-0.1,0.1-0.1,0.2-0.2c0,0,0,0,0.1-0.1c0,0,0,0,0,0c0,0,0.1-0.1,0.1-0.1
							c0.1-0.1,0.4-0.1,0.7-0.2c0,0,1.2-0.4,2.4-0.7c1.8-0.4,5.3,0.1,7,0.9c1.7,0.8,3.7,1.1,5.7,1.3l0.4,0.1
							c2.3,0.3,4.5,0.7,6.6,1.8c2.3,1.3,3.9,3.5,4,5.7c0.1,1.4-0.4,2.8-1.4,3.9c-1,1-2.4,1.6-3.8,1.6c-0.1,0-0.2,0-0.2,0
							c-6.9-0.3-13.8-2-20.1-4.8c-0.3-0.1-0.6-0.3-0.9-0.5c-0.3-0.2-0.6-0.4-0.9-0.6c-0.2-0.2-0.3-0.4-0.4-0.7
							c-0.3-0.6-0.4-1.2-0.5-1.9c0,0,0,0,0,0c0,0,0,0,0-0.1C111.1,153.3,111.3,151.8,111.7,150.5z"/>
						<g>
							<path class="st4" d="M111.2,148.6C111.2,148.6,111.2,148.6,111.2,148.6c1.6,0.6,3.3,0.5,4.8,0.2c2-0.4,4.5,0,6.4,0.8
								c2,0.9,4.2,1.2,6.3,1.5c2.1,0.3,4.3,0.7,6.2,1.7c1.9,1,3.4,2.9,3.6,5c0.2,2.5-1.9,4.6-4.4,4.5c-6.8-0.3-13.5-1.9-19.7-4.7
								c-0.3-0.1-0.5-0.3-0.7-0.4c-0.7-0.6-1.5-1.1-2.4-1.4c-1.5-0.6-2.6-1.1-3.2-1.4c-0.2-1.2-0.7-2.7-0.3-4
								C108.2,148.9,109.8,148.1,111.2,148.6z"/>
						</g>
						<path class="st3" d="M134,151.9c-0.8,1.4-2,3.7-2.4,6.8c-0.2,1.7-0.1,3.1,0,4.2c-2.1-0.4-4.3-0.8-6.4-1.2
							c-0.1-1.3-0.1-3.2,0.3-5.3c0.5-2.6,1.4-4.5,2.2-5.9C129.9,151.1,131.9,151.5,134,151.9z"/>
					</g>
					<path class="st4" d="M96.9,151.9c-1.7-0.3-6.1-1.3-12.1-2.3c-2.7-0.5-6.2-1-10.3-1.6c0,0-3.5-7.9,1-11.8
						c3.4-2.9,10.3,1,24.5,7.9c0.4,0.2,1.5,0.8,3,1.5c2.9,1.3,5.5,2.2,7.3,2.8c-0.6,2.1-1.3,4.1-1.9,6.2
						C104.3,153.5,100.4,152.6,96.9,151.9z"/>
					<path class="st4" d="M86.9,151.9c1.7-0.3,6.1-1.3,12.1-2.3c2.7-0.5,6.2-1,10.3-1.6c0,0,3.5-7.9-1-11.8
						c-3.4-2.9-10.3,1-24.5,7.9c-0.4,0.2-1.5,0.8-3,1.5c-2.9,1.3-5.5,2.2-7.3,2.8c0.6,2.1,1.3,4.1,1.9,6.2
						C79.6,153.5,83.5,152.6,86.9,151.9z"/>
					<path class="st5" d="M139,139.4c0.2,3.8-6.7,7-11.7,9.2c-3.8,1.7-9.8,3.9-17.9,5.1c-0.9,0-4.5,0-7.5-2.2
						c-1.9-1.4-2.7-3.1-3.1-3.9c-0.5,0.4-2.8,2-6.3,1.9c-2.9-0.1-4.8-1.2-5.5-1.6c-0.5,1.1-2,3.7-5.3,5.2c-2.1,0.9-4.3,1.1-7.5,0.7
						c-12-1.6-17.9-5.1-17.9-5.1c-0.6-0.3-9.7-5.3-8.4-10.7c0.4-1.8,1.8-3.1,3.7-4.4c8.2-5.7,20.2-6.6,26-6.7c9.5,0,19,0,28.4,0
						c15,0.9,23.7,4.9,27.9,7.4C137.2,136,138.9,137.6,139,139.4z"/>
					<path class="st5" d="M92,142.9C91.9,143,91.9,143,92,142.9c-0.1,0.1-0.1,0.1-0.1,0C91.9,143,91.9,143,92,142.9z"/>
					<path class="st5" d="M91.8,143c0,0-0.1,0-0.1,0c0,0,0-0.1,0-0.1C91.7,143,91.8,143,91.8,143z"/>
					<g>
						<path class="st5" d="M82.8,127.1c0.6,0.6,1.4,1.6,2,3.1c2.8,6.1-1.4,10.6,1.3,14.9c1.5,2.4,4.6,3.9,7.3,3.7
							c0.3,0,3.7-0.3,5.5-2.9c2.9-4.2-1.5-9.1,1.3-15.3c0.7-1.5,1.5-2.5,2-3.1"/>
						<path class="st6" d="M82.8,127.1c1.6,1.6,2.7,3.6,3.2,5.9c0.8,3.3-0.7,6.7-0.1,9.9c1.1,5.3,8.8,7.2,12.3,3.1
							c1.5-1.6,1.5-3.8,1.2-5.9c-0.8-4.4-0.6-9.4,2.9-12.6c-3.1,3.5-3,8.1-2.1,12.5c0.5,2.2,0.4,4.9-1.3,6.7
							c-4.1,4.8-13,2.6-14.2-3.6c-0.5-3.4,1.1-6.7,0.6-10C85.2,130.9,84.2,128.9,82.8,127.1L82.8,127.1z"/>
					</g>
					<g>
						<path class="st6" d="M100.2,140.3c6.6,1.7,13.9,0.9,20.1-2.4c-5.9,3.8-13.3,5.5-20.5,4.3L100.2,140.3L100.2,140.3z"/>
					</g>
					<g>
						<path class="st6" d="M99.7,136.5c3.6,1.6,7.6,2.1,11.5,1.5c-2.9,0.9-6,1.2-9.1,0.9c-1-0.1-2.1-0.3-3.1-0.5L99.7,136.5
							L99.7,136.5z"/>
					</g>
					<g>
						<path class="st6" d="M85.7,139.4c-4.1,0.1-8.3-0.9-11.8-2.9c3.7,1.4,7.7,1.7,11.6,0.9C85.4,137.4,85.7,139.4,85.7,139.4
							L85.7,139.4z"/>
					</g>
					<g>
						<path class="st6" d="M85.3,142.3c-7.2,1.2-14.6-0.5-20.5-4.3c6.2,3.3,13.5,4.1,20.1,2.4L85.3,142.3L85.3,142.3z"/>
					</g>
				</g>
				<g>
					<g>
						<path class="st4" d="M111.5,92.9c0,2.6,0.1,5.2-0.1,7.7c-0.1,1.5-0.2,3-0.7,4.5c-0.4,1.5-1.3,2.8-1.8,4.2
							c-0.5,1.3-0.7,2.7-0.9,4c-0.1,1-0.1,1.9-0.1,2.9L78.4,117c0.1-1.8,0-3.7-0.5-5.5c-0.5-1.7-1.5-3.2-2.2-4.9
							c-0.9-2.5-0.9-5-1.2-7.5c-0.3-2.7-0.7-5.4-0.9-8.1c-0.1-1.7,0.1-4.3,0.1-6.1c0-0.5-0.1-2.1,0.6-2.4c3.8-2.3,7.5-4.5,11.3-6.8
							c0.2-0.4,0.3-0.8,0.4-1.1c0.1-0.4,0.3-0.8,0.3-1.4c0-0.4,0-0.7,0-1.1c0-0.8-0.1-1.7-0.2-2.4c2,1,4.5,1.3,6.7,1.2
							c2-0.1,4.1-0.4,6-1.1c0,0.5,0,1,0,1.5c0,0.4,0,0.8,0.1,1.2c0.1,1.3,0.3,2.5,0.9,3.5c0.1,0.2,0.3,0.3,0.4,0.4
							c2.8,1.4,7.2,4.6,10.8,5.1c0.4,0.9,0.2,2.4,0.3,3.4C111.4,87.3,111.5,90.5,111.5,92.9z"/>
						<path class="st7" d="M98.8,71.4c0,0.2,0,0.5,0,0.7c-0.4,0.5-1.1,1.3-2,2c-1.1,0.9-2.4,1.8-4.1,1.9c-1.6,0.1-2.9-0.6-3.9-1.1
							c-1.2-0.7-2.1-1.5-2.6-2c0-0.3,0-0.5,0-0.8c0-0.8-0.1-1.6-0.2-2.4c2,1,4.5,1.3,6.7,1.2c2-0.1,4.1-0.4,6-1.1
							C98.8,70.3,98.8,70.9,98.8,71.4z"/>
						<path class="st4" d="M83.8,60.9c-0.2-0.7,0.2-0.9-0.6-1.3c-0.7-0.3-1.3,1-1.4,1.9c-0.2,0.9,0.7,4.1,1.3,4.6
							c0.5,0.5,1.2,0.6,1.4-0.2L83.8,60.9z"/>
						<path class="st4" d="M101,58.5c0.3,3.8,0.6,7.8-1.5,11.4c-0.2,0.3-0.9,1.5-2.1,2.6c-1,1-2.5,2.2-4.6,2.6
							c-0.4,0.1-0.8,0.1-1.2,0c-3.1-0.7-5.7-3.7-6.4-4.9c0,0,0,0,0,0c-0.1-0.1-0.2-0.3-0.3-0.5c-0.1-0.2-0.2-0.4-0.2-0.6
							c0,0,0,0,0,0c-0.7-2-0.8-7.6-0.9-10.9c-0.3-4.4,2.5-8.2,7.1-9.5c0.5-0.2,1.1-0.2,1.7-0.2l0,0c0,0,0.1,0,0.1,0
							c0.5,0,1,0.1,6.8,3.7C101,53.2,100.7,55.4,101,58.5z"/>
						<g>
							<path class="st8" d="M63.7,106.3c0.3-4.2,3.9-16.5,4.5-19.2c0.7-3.2,1.6-5.5,4.9-6.1c1.8-0.3,3-0.4,4.8-0.9l5,4.3l-6.2,26.3
								C73.3,108.2,66.5,107.1,63.7,106.3z"/>
						</g>
						<g>
							<path class="st8" d="M122.1,109.8c-0.2-4.2-3.6-19.8-4.1-22.6c-0.6-3.2-1.4-5.5-4.6-6.2c-1.8-0.4-3-0.7-4.8-1.2l-3.8,7.3
								c1.5,8.3,2.9,16.6,4.4,24.9C113.5,111.3,117.8,110.5,122.1,109.8z"/>
						</g>
						<path class="st8" d="M75,110.1c0,0.7-0.1,1.2-0.1,1.7c-0.1,2.8,0,4,0,6.7c0,3-0.4,5.4-0.7,7.4c-0.3,1.7-0.6,3.1-0.9,4.2
							c-3,2.2-6,4.3-9.1,6.5c8.5-0.5,15.4-0.2,20.3,0.2c9.8,0.8,15.5,2.3,25.8,2.1c4.8-0.1,8.8-0.6,11.4-0.9
							c-3.3-2.8-6.6-5.7-9.9-8.5c-0.2-1.2-0.5-2.7-0.6-4.5c-0.2-2.6-0.1-4.5,0-5.5c0.6-10.7,1.2-16,1.9-20.6c0.9-6.9,2-10.3,2-16.1
							c0-0.5,0-0.8,0-1.1c-1.2-0.5-2.4-0.9-3.6-1.4c-4-1.6-7.8-3.4-11.3-5.2c-0.4-0.2-0.7-0.4-1.1-0.6c0.3,1,0.9,4-0.4,7.1
							c-0.7,1.5-1.6,2.6-2.3,3.3c-0.9,2.1-1.8,4.1-2.7,6.2c-0.2-1.2-3.1-6-3.6-6.2c-0.8-0.3-1.3-0.6-1.8-1c0,0-1-0.8-1.8-1.9
							c-1-1.6-1.4-4.2-0.7-7.1c-0.4,0.2-0.9,0.5-1.5,1c-0.4,0.4-0.7,0.7-0.9,1c-3.9,1.5-7.8,3-11.7,4.4c0.2,9,1,14.2,1.9,17.5
							C73.6,98.8,75.2,105.1,75,110.1z"/>
						<g>
							<path d="M92.5,80.1c-0.5,0-3.7,0.1-5.5-2.2c-0.4-0.5-0.7-1-0.8-1.4c-0.2-0.5-0.3-0.8-0.4-1.1c0,0,0,0,0,0
								c0-0.1-0.1-0.4,0-0.7c0-0.1,0.1-0.1,0.2-0.2c0,0.2,0.1,0.4,0.2,0.7c0,0,0.4,1.3,1.1,2.3c1.7,2.4,5.7,2.9,8.5,1.3
								c2.5-1.4,3.2-4,3.4-4.6c0,0.1,0.1,0.3,0.1,0.5c0,0.1,0,0.2,0,0.3c-0.1,0.3-0.5,1.8-1.6,2.9c-0.7,0.8-1.6,1.3-1.7,1.3
								C95.6,79.4,94.3,80,92.5,80.1z"/>
						</g>
						<g>
							<path d="M83.5,67.2c-0.3,0-0.4-0.5-0.4-1l0.2,0.1c0,0.5,0.1,0.7,0.2,0.7s0.2-0.3,0.2-0.8c0-0.5-0.1-0.8-0.2-0.8
								c0,0-0.1-0.1,0-0.2c0.3,0,0.4,0.5,0.4,1S83.8,67.2,83.5,67.2z"/>
						</g>
						<path class="st4" d="M100.6,61.1c0.2-0.7,0.1-1.1,0.8-1.3c0.7-0.2,1.2,1,1.4,1.9c0.1,0.9-0.8,4.1-1.4,4.5
							c-0.5,0.4-1.2,0.6-1.4-0.2L100.6,61.1z"/>
						<g>
							<path d="M100.9,67.4c0.3,0,0.4-0.5,0.4-1l-0.2,0.1c0,0.5-0.2,0.7-0.2,0.7c-0.1,0-0.2-0.3-0.2-0.8c0-0.5,0.2-0.8,0.2-0.8
								c0,0,0.1-0.1,0-0.2c-0.3,0-0.4,0.5-0.4,1C100.6,66.8,100.7,67.4,100.9,67.4z"/>
						</g>
						<path d="M100.2,63c0.1-0.1,0.2-0.3,0.3-0.4c0.1-0.8,0.3-1.6,0.4-2.4c0.3-0.8,0.7-2,0.8-3.3c0.3-1.9,0.3-3.7-0.7-5.2
							c-0.8-1.1-2-0.9-2.1-1c-4.4-7.4-13.8-0.9-14.9,1.6c-0.4,1-1,2.8-0.8,5c0.1,1,0.3,1.9,0.5,2.6c0.1,0.1,0.2,0.3,0.3,0.5
							c0.3,0.8,0.4,1.5,0.3,2.1c0,0.2,0.1,0.3,0.1,0.5c0-0.3,0.1-0.8,0.1-1.4c0.3-3.3,0.2-4.4,1-5.3c0.2-0.2,0.6-0.6,1.2-0.9
							c4.3,1.1,12-2.1,12.2-1.2c0,0.4-0.1,1.1,0.1,1.9c0.2,1.1,0.5,1.9,0.7,2.2C100.1,59.2,100.5,60.7,100.2,63z"/>
						<g>
							<path class="st9" d="M90,70.1c0,0.2,1.5,0.5,2.9,0.4c0.9,0,2.1-0.2,2.1-0.4c0-0.2-1.2-0.4-2.1-0.4C91.5,69.6,90,69.9,90,70.1
								z"/>
						</g>
						<g>
							<path class="st9" d="M91.1,67.4c0,0.1,0.5,0.6,1.3,0.6c0.7,0,1.3-0.5,1.2-0.6c0-0.1-0.5,0.2-1.2,0.2
								C91.7,67.6,91.2,67.3,91.1,67.4z"/>
						</g>
						<g>
							<path d="M85.8,60.7c0.3-0.3,0.6-0.6,1.1-0.9c0,0,0,0,0,0c0.3-0.2,0.6-0.2,0.9-0.2c0.8,0.1,1.6,0.2,2.3,0.3
								c0.1,0.1,0.1,0.2,0.2,0.4c0,0.2,0,0.3,0,0.4c-0.9-0.1-1.8-0.2-2.7-0.3c-0.2,0-0.4,0-0.6,0.1C86.7,60.5,86.2,60.6,85.8,60.7z"
								/>
						</g>
						<g>
							<path d="M99,60.9c-0.3-0.3-0.6-0.7-1.1-1c0,0,0,0,0,0c-0.3-0.2-0.6-0.2-0.9-0.2c-0.8,0.1-1.6,0.1-2.3,0.2
								c-0.1,0.1-0.1,0.2-0.2,0.4c0,0.2,0,0.3,0,0.4c0.9-0.1,1.8-0.2,2.7-0.3c0.2,0,0.4,0,0.6,0.1C98.2,60.6,98.6,60.7,99,60.9z"/>
						</g>
						<g>
							<path d="M94.5,62.4c0.6,1,1.7,1.4,2.8,0.8c0.3-0.2,0.6-0.4,0.8-0.8c-0.1,0.2-0.2,0.3-0.3,0.5C96.9,64.2,94.9,64,94.5,62.4
								L94.5,62.4z"/>
						</g>
						<g>
							<path d="M90.2,62.3c-0.6,1-1.7,1.4-2.8,0.8c-0.3-0.2-0.6-0.4-0.8-0.8c0.1,0.2,0.2,0.3,0.3,0.5C87.9,64.1,89.8,63.9,90.2,62.3
								L90.2,62.3z"/>
						</g>
						<path id="XMLID_00000049901226737396075970000017533059212458875295_" class="st10" d="M82.8,54.5c4.1-3.2,17.1-2.6,19-2.1
							c0.3,0.1,0.7,0.9,0.5,2.2c0.4,0.8,0.4,1.9-0.2,2.2c0,0,0,0,0,0.1c0,0.3-0.2,0.5-0.5,0.5c-2.2-0.1-12.5-1.4-18,1.8
							c-0.2,0.1-0.6,0.1-0.7-0.2c-0.1-0.3-0.3-0.7-0.2-1.3c-0.5-0.5-0.4-1.7-0.2-2C82.6,55.2,82.7,54.7,82.8,54.5z"/>
					</g>
					<path class="st10" d="M110.9,80.8c-0.2-2.1-2.1-2.3-2.7-2.1c-0.6-1-1.5-1.4-2.6-1c-0.2-0.7-1.9-1.2-2.3-0.9
						c0.1,3.4-0.4,36-4.6,48c-0.2,1.1,7.8,4.5,10.7,2.5C109.8,125.7,113.1,90.2,110.9,80.8z"/>
					<path class="st11" d="M90.3,85c-0.4,0.2-0.9,0.5-1.4,1c-1.2,1.3-1,2.7-1.5,2.8c-0.7,0.1-1.6-2.5-2.2-3.8
						c-0.2-0.7-0.7-1.8-1-3.4c-0.1-0.7-0.1-0.8-0.3-1.7c-0.4-1.8-0.6-2-0.6-2.5c0-0.6,0.5-1.6,2.4-2.6c-0.2,0.9-0.6,2.8,0.2,5.1
						C87.1,83.1,89.6,84.6,90.3,85z"/>
					<path class="st11" d="M96.4,85c0.4,0.1,0.9,0.3,1.5,0.8c1.3,1.1,1.3,2.5,1.9,2.5c0.7,0,1.3-2.6,1.6-4.1
						c0.1-0.9,0.3-2.1,0.3-3.7c0-0.1-0.1-0.7-0.2-1.8c-0.3-2.4-0.3-2.9-0.8-3.5c-0.2-0.3-0.6-0.6-1.4-0.8c0,0.7,0.1,1.4,0,2.1
						C99,80.2,97.6,83.1,96.4,85z"/>
					<g>
						<path class="st11" d="M96.4,85c-1.2,2.9-2.6,5.8-2.9,8.9c-0.4,4.7-0.3,9.5-0.2,14.2c0,0-0.2-0.2-0.2-0.2
							c1.1,0,2.3-0.1,3.4-0.1c-1.2,0.2-2.4,0.3-3.6,0.5c-0.5-5.6-0.9-11.3,0.4-16.9C94.1,89.2,95.1,87,96.4,85L96.4,85z"/>
					</g>
					<circle class="st11" cx="95" cy="93.2" r="0.7"/>
					<circle class="st11" cx="94.7" cy="100.1" r="0.7"/>
					<circle class="st11" cx="94.7" cy="106" r="0.7"/>
				</g>
				<path class="st12" d="M126.1,136.1c-11.4-15.4-14.4-21.2-14.5-23.1c0-1.3-0.1-3.8-0.1-3.8c0.2-0.5,0.4-0.8,0.7-1.2
					c0,0,0.4-0.6,1-1.1c1-0.9,3.8-2.3,6.8-1.4c0.6,0.2,1.5,0.5,2.5,1.3c0.6,1.6,1.2,3.1,1.8,4.7c3,8.5,5.2,16.7,6.8,24.5
					C129.4,136.1,127.7,136.1,126.1,136.1z"/>
			</g>
		</g>
		<path class="st12" d="M128.8,129.7c0.3,0.9,0.6,1.7,0.9,2.6c1.7,1.6,2.8,2.3,3.5,2.6c0.2,0.1,1.2,0.5,2.3,1.3
			c0.1,0.1,0.2,0.2,0.3,0.3c0.4,0.4,1.4,1.3,2.1,2.8c0.3,0.6,0.4,1.2,0.5,1.7c0,0.3-0.2,0.5-0.5,0.5c-0.2,0-0.4-0.1-0.7-0.2
			c-0.5-0.3-0.7-0.6-1.3-1.1c-0.3-0.3-0.8-0.6-1.4-1c-0.1,0.3-0.5,1.3-0.1,2.5c0.3,1,0.9,1.5,1.1,1.8c0.2-0.3,0.4-0.7,0.6-1
			c0.1-0.2,0.3-0.4,0.4-0.6c0,0,0.4-0.2,0.7-0.1c0.3,0.1,0.5,0.5,0.5,0.8c-0.1,0.9-0.3,1.9-0.7,3c0,0.1-0.1,0.2-0.1,0.3
			c-0.1,0.3-0.5,0.4-0.8,0.3c-0.3-0.2-0.7-0.4-1.1-0.7c-0.6-0.4-1-0.9-1.4-1.3c0.3,0.7,0.7,1.4,1.3,2.2c0.8,1.1,1.6,1.9,2.3,2.5
			c0.2,0.4,0.2,0.8,0,1c-0.2,0.2-0.5,0.1-0.8,0c-0.5-0.1-0.8-0.4-1-0.7c-0.6-0.6-1.2-1.2-1.9-1.8c0.8,1.3,1.2,1.8,1.5,2.1
			c0,0,0.1,0.2,0.3,0.4c0.2,0.2,0.3,0.5,0.2,0.7c0,0.1-0.1,0.2-0.2,0.3c-0.2,0.2-0.6,0.1-0.8,0c-0.8-0.6-1.7-1.4-2.6-2.5
			c-1.1-1.3-1.9-2.5-2.4-3.5c0.1,0.6,0.2,1.2,0.4,2c0.3,1,0.8,1.9,1.1,2.5c0.1,0.2,0.1,0.5-0.1,0.7c-0.2,0.2-0.5,0.2-0.5,0.2
			c-0.5-0.5-1.1-1.3-1.7-2.3c-0.7-1.1-1.1-2.3-1.9-5.5c-0.3-1.5-0.8-3.5-1.1-5.8c-0.7-1.5-1.5-2.9-2.2-4.4
			C125.4,131.3,127.1,130.5,128.8,129.7z"/>
		<path class="st11" d="M108.7,107.1c4.4-1.2,8.7-2.4,13.1-3.6c0.8,1.9,1.5,3.8,2.3,5.7c-4.6,1.3-9.3,2.6-13.9,3.9
			c-0.4-0.6-0.9-1.5-1.3-2.7C108.6,109,108.6,107.8,108.7,107.1z"/>
		<path class="st12" d="M58.5,136.1C69.9,120.8,73,115,73,113c0-1.3,0.1-3.8,0.1-3.8c-0.2-0.5-0.4-0.8-0.7-1.2c0,0-0.4-0.6-1-1.1
			c-1-0.9-3.8-2.3-6.8-1.4c-0.6,0.2-1.5,0.5-2.5,1.3c-0.6,1.6-1.2,3.1-1.8,4.7c-3,8.5-5.2,16.7-6.8,24.5
			C55.2,136.1,56.9,136.1,58.5,136.1z"/>
		<path class="st12" d="M55.8,129.7c-0.3,0.9-0.6,1.7-0.9,2.6c-1.7,1.6-2.8,2.3-3.5,2.6c-0.2,0.1-1.2,0.5-2.3,1.3
			c-0.1,0.1-0.2,0.2-0.3,0.3c-0.4,0.4-1.4,1.3-2.1,2.8c-0.3,0.6-0.4,1.2-0.5,1.7c0,0.3,0.2,0.5,0.5,0.5c0.2,0,0.4-0.1,0.7-0.2
			c0.5-0.3,0.7-0.6,1.3-1.1c0.3-0.3,0.8-0.6,1.4-1c0.1,0.3,0.5,1.3,0.1,2.5c-0.3,1-0.9,1.5-1.1,1.8c-0.2-0.3-0.4-0.7-0.6-1
			c-0.1-0.2-0.3-0.4-0.4-0.6c0,0-0.4-0.2-0.7-0.1c-0.3,0.1-0.5,0.5-0.5,0.8c0.1,0.9,0.3,1.9,0.7,3c0,0.1,0.1,0.2,0.1,0.3
			c0.1,0.3,0.5,0.4,0.8,0.3c0.3-0.2,0.7-0.4,1.1-0.7c0.6-0.4,1-0.9,1.4-1.3c-0.3,0.7-0.7,1.4-1.3,2.2c-0.8,1.1-1.6,1.9-2.3,2.5
			c-0.2,0.4-0.2,0.8,0,1c0.2,0.2,0.5,0.1,0.8,0c0.5-0.1,0.8-0.4,1-0.7c0.6-0.6,1.2-1.2,1.9-1.8c-0.8,1.3-1.2,1.8-1.5,2.1
			c0,0-0.1,0.2-0.3,0.4c-0.2,0.2-0.3,0.5-0.2,0.7c0,0.1,0.1,0.2,0.2,0.3c0.2,0.2,0.6,0.1,0.8,0c0.8-0.6,1.7-1.4,2.6-2.5
			c1.1-1.3,1.9-2.5,2.4-3.5c-0.1,0.6-0.2,1.2-0.4,2c-0.3,1-0.8,1.9-1.1,2.5c-0.1,0.2-0.1,0.5,0.1,0.7c0.2,0.2,0.5,0.2,0.5,0.2
			c0.5-0.5,1.1-1.3,1.7-2.3c0.7-1.1,1.1-2.3,1.9-5.5c0.3-1.5,0.8-3.5,1.1-5.8c0.7-1.5,1.5-2.9,2.2-4.4
			C59.2,131.3,57.5,130.5,55.8,129.7z"/>
		<path class="st11" d="M75.9,107.1c-4.4-1.2-8.7-2.4-13.1-3.6c-0.8,1.9-1.5,3.8-2.3,5.7c4.6,1.3,9.3,2.6,13.9,3.9
			c0.4-0.6,0.9-1.5,1.3-2.7C76,109,76,107.8,75.9,107.1z"/>
	</g>
</g>
</svg>
