<?xml version="1.0" encoding="utf-8"?>
<!-- Generator: Adobe Illustrator 26.0.1, SVG Export Plug-In . SVG Version: 6.00 Build 0)  -->
<svg version="1.1" id="Layer_1" xmlns="http://www.w3.org/2000/svg" xmlns:xlink="http://www.w3.org/1999/xlink" x="0px" y="0px"
	 viewBox="0 0 634.5 447" style="enable-background:new 0 0 634.5 447;" xml:space="preserve">
<style type="text/css">
	.st0{clip-path:url(#SVGID_00000044171249488638217180000004213460309517743528_);fill:#BDDEEF;}
	.st1{clip-path:url(#SVGID_00000103250557087206942880000016666099311210891173_);fill:#52A7C1;}
	.st2{clip-path:url(#SVGID_00000093135388090175596440000000030225529890932104_);}
	.st3{opacity:0.15;}
	.st4{clip-path:url(#SVGID_00000102545148476243691330000017491880913129000866_);fill:#281010;}
	.st5{clip-path:url(#SVGID_00000177448433525789937610000016148319082645467537_);fill:#281010;}
	.st6{fill:#381B19;}
	.st7{fill:#7A574E;}
	.st8{fill:#7B889B;}
	.st9{fill:#6B7B8E;}
	.st10{fill:#BDD8FF;}
	.st11{fill:#ACCFF9;}
	.st12{fill:#D7E9FF;}
	.st13{fill:#8897AA;}
	.st14{fill:#CE4A4A;}
	.st15{fill:#BF3D3D;}
	.st16{fill:#E55757;}
	.st17{fill:#442221;}
	.st18{fill:#F2C9A0;}
	.st19{fill:#DBAC89;}
	.st20{fill:#D3D3D3;}
	.st21{fill:#FFFFFF;}
	.st22{fill:#E4C77B;}
	.st23{fill:#292937;}
	.st24{fill:#1E1E29;}
	.st25{fill:#232330;}
	.st26{fill:#3A2317;}
	.st27{fill:#563A1F;}
	.st28{fill:#E8DCD6;}
	.st29{opacity:0.2;}
	.st30{fill:#42210B;}
	.st31{fill:#D8A188;}
	.st32{fill:#9F0102;}
	.st33{fill:#7C5342;}
	.st34{fill:#724A3B;}
	.st35{fill:#FFCB7E;}
	.st36{fill:#6B4337;}
	.st37{fill:#7F5546;}
	.st38{fill:#543730;}
	.st39{fill:#8E695C;}
	.st40{fill:#DE9F7E;}
	.st41{fill:#CE8065;}
	.st42{fill:#B7303D;}
	.st43{fill:#FFFFFF;stroke:#D3D3D3;stroke-width:1.8643;stroke-miterlimit:10;}
	.st44{fill:#D34047;}
	.st45{fill:#FCB856;}
	.st46{fill:#D38A6A;}
	.st47{fill:#6B3628;}
	.st48{fill:#211E1F;}
</style>
<g>
	<g>
		<defs>
			<path id="SVGID_1_" d="M16.2,283.9c-4.6-21.6-2.9-57.7,19.1-78.6c65.7-62.5,128.2-6.8,140.8-74.2
				C187.7,68.9,231.6,8.5,311.5,27.9c102.7,25,91.3,95.8,141.7,90.4c50.4-5.3,136.6-44.9,152.2,30.1c15.6,75-57.5,139.3-10.9,134.1
				c6.7,0.4,25.7,2.4,32.3,15c7.2,13.8-4.6,32.5-9.4,40c-31.1,49-221.2,120.4-437.8,56.2C120.3,376.2,29.9,348.1,16.2,283.9z"/>
		</defs>
		<clipPath id="SVGID_00000178891857757497833870000001826700475574322310_">
			<use xlink:href="#SVGID_1_"  style="overflow:visible;"/>
		</clipPath>
		<path style="clip-path:url(#SVGID_00000178891857757497833870000001826700475574322310_);fill:#BDDEEF;" d="M635.3,357.6
			c-3,11.3-8.2,21.7-15.1,30.8c-16.6,22.1-43.3,36.3-73,36.3H183.1c-37.2,0-72-12.1-100.4-32.8c-12.2-8.9-23.2-19.4-32.6-31.3
			C32.9,339,20.8,312.9,16.2,284c-4.9-30.3-1.4-59,19.1-78.6c65.7-62.5,128.2-6.8,140.8-74.2C187.7,69,231.6,8.6,311.5,28
			c102.7,25,91.3,95.8,141.7,90.4c50.4-5.3,136.6-44.9,152.2,30.1c15.6,75-57.5,139.3-10.9,134.1c32.3,3.6,43,24.6,43.8,49.3
			C638.5,340.8,637.4,349.4,635.3,357.6z"/>
	</g>
	<g>
		<defs>
			<path id="SVGID_00000115504642973203455220000004009771732886109349_" d="M16.2,283.9c-4.6-21.6-2.9-57.7,19.1-78.6
				c65.7-62.5,128.2-6.8,140.8-74.2C187.7,68.9,231.6,8.5,311.5,27.9c102.7,25,91.3,95.8,141.7,90.4c50.4-5.3,136.6-44.9,152.2,30.1
				c15.6,75-57.5,139.3-10.9,134.1c6.7,0.4,25.7,2.4,32.3,15c7.2,13.8-4.6,32.5-9.4,40c-31.1,49-220.2,124.8-436.8,60.6
				C121.4,380.6,29.9,348.1,16.2,283.9z"/>
		</defs>
		<clipPath id="SVGID_00000004527444077544919210000003875776647966329239_">
			<use xlink:href="#SVGID_00000115504642973203455220000004009771732886109349_"  style="overflow:visible;"/>
		</clipPath>
		<path style="clip-path:url(#SVGID_00000004527444077544919210000003875776647966329239_);fill:#52A7C1;" d="M765.1,286.4
			c0,0-12.3,56.3-22.7,80c-25,57.2-65,94.3-109.9,94.3H84.3c-56,0-108.5-31.3-151.1-84.9c-18.3-23.1-49.1-81.2-49.1-81.2
			L765.1,286.4z"/>
	</g>
	<g>
		<defs>
			<path id="SVGID_00000174595135852586808180000004287799330729012633_" d="M16.2,283.9c0-0.3-0.1-0.4-0.1-0.6
				c-1.2-6.6-8.5-51.6,19.2-78c65.7-62.5,128.2-6.8,140.8-74.2C187.7,68.9,231.6,8.5,311.5,27.9c102.7,25,91.3,95.8,141.7,90.4
				c50.4-5.3,136.6-44.9,152.2,30.1c15.6,75-57.5,139.3-10.9,134.1c6.1,0.6,21.4,3,27.7,14.2c8,14.1-3.6,33.5-8.6,42
				c-21.8,36.7-109.2,82.9-248.2,82.9c0,0-183,6-302.3-76.6C50.7,336.4,22.4,316.8,16.2,283.9z"/>
		</defs>
		<clipPath id="SVGID_00000152259570495228978580000014709242545189015442_">
			<use xlink:href="#SVGID_00000174595135852586808180000004287799330729012633_"  style="overflow:visible;"/>
		</clipPath>
		<g style="clip-path:url(#SVGID_00000152259570495228978580000014709242545189015442_);">
			<g>
				<g>
					<g class="st3">
						<g>
							<g>
								<g>
									<defs>
										<rect id="SVGID_00000057126769564688970550000009121576459127909799_" x="156.3" y="281.6" width="17.1" height="105.4"/>
									</defs>
									<clipPath id="SVGID_00000125576767947409311340000004329996728923349900_">
										<use xlink:href="#SVGID_00000057126769564688970550000009121576459127909799_"  style="overflow:visible;"/>
									</clipPath>
									
										<rect x="156.3" y="281.6" style="clip-path:url(#SVGID_00000125576767947409311340000004329996728923349900_);fill:#281010;" width="17.1" height="105.4"/>
								</g>
							</g>
						</g>
					</g>
				</g>
				<g>
					<g class="st3">
						<g>
							<g>
								<g>
									<defs>
										<rect id="SVGID_00000166653851079869789400000005561117662034899614_" x="460.6" y="281.6" width="17.1" height="105.4"/>
									</defs>
									<clipPath id="SVGID_00000050632036176937831250000011828416455717166508_">
										<use xlink:href="#SVGID_00000166653851079869789400000005561117662034899614_"  style="overflow:visible;"/>
									</clipPath>
									
										<rect x="460.6" y="281.6" style="clip-path:url(#SVGID_00000050632036176937831250000011828416455717166508_);fill:#281010;" width="17.1" height="105.4"/>
								</g>
							</g>
						</g>
					</g>
				</g>
				<path class="st6" d="M357.5,284h-82.9l-4.1-59c-0.9-12.7,9.2-23.5,22-23.5h47c12.8,0,22.8,10.8,22,23.5L357.5,284z"/>
				<g>
					<g>
						<rect x="217.5" y="142.5" class="st7" width="2.2" height="141.3"/>
					</g>
					<g>
						<path class="st7" d="M217.5,149.2v4.8l2.2-0.9v-9.3C219.7,143.8,219.1,146.9,217.5,149.2"/>
					</g>
					<g>
						<path class="st7" d="M219.7,143.8c0,0-1.1,4.5-9.1,17.4c-8.1,12.9-20.7,37.8-7.8,64.2c3.6,7.7,10.1,32.9-6.3,53.3h25.6
							c0,0,13.2-31.6,3.6-66.5C216,177.3,222,151.6,219.7,143.8"/>
					</g>
					<g>
						<path class="st7" d="M217.6,136.4l-1.1,3.3c-0.5,1.4,0.6,3,2.1,3c1.6,0,2.6-1.5,2.1-3l-1.1-3.3
							C219.3,135.4,217.9,135.4,217.6,136.4"/>
					</g>
					<g>
						<rect x="219.6" y="142.5" class="st8" width="2.2" height="141.3"/>
					</g>
					<g>
						<path class="st9" d="M219.6,149.2v4.8l2.2-0.9v-9.3C221.8,143.8,221.1,146.9,219.6,149.2"/>
					</g>
					<g>
						<rect x="219.6" y="142.5" class="st9" width="2.2" height="1.1"/>
					</g>
					<g>
						<path class="st10" d="M221.8,143.8c0,0,0.2,4.5-7.9,17.4c-8.1,12.9-15.5,37.8-2.6,64.2c3.6,7.7,9.1,32.9-7.4,53.3h20.3
							c0,0,13.2-31.6,3.6-66.5C218.1,177.3,224,151.6,221.8,143.8"/>
					</g>
					<g>
						<path class="st11" d="M211.3,225.5c-0.5-1-1-2.1-1.4-3.1c1.4,2,5.3,7.5,7.4,10.5c2.4,3.6,15.3,23.9-3.5,45.8h-9.9
							C220.4,258.3,214.9,233.2,211.3,225.5"/>
					</g>
					<g>
						<path class="st12" d="M230.9,229.7c-5-8-13.1-12.3-17.3-18.6c-7.1-10.6-4.2-27.1,1.8-39.8c4.3-9.1,6.1-18.8,6.9-23.5
							c0.4,10.7-2.9,34.2,5.5,64.5C229.4,218.2,230.4,224,230.9,229.7"/>
					</g>
					<g>
						<path class="st8" d="M219.7,136.4l-1.1,3.3c-0.5,1.4,0.6,3,2.1,3c1.6,0,2.6-1.5,2.1-3l-1.1-3.3
							C221.4,135.4,220,135.4,219.7,136.4"/>
					</g>
					<g>
						<path class="st13" d="M218.3,140.6c3.6-0.1,2.8-4.1,2.5-5.4c-0.4,0-0.6,0.1-0.8,0.6l-1.6,4.6
							C218.3,140.4,218.3,140.5,218.3,140.6"/>
					</g>
					<g>
						<rect x="416.2" y="142.5" class="st7" width="2.2" height="141.3"/>
					</g>
					<g>
						<path class="st7" d="M418.4,149.2v4.8l-2.2-0.9v-9.3C416.2,143.8,416.8,146.9,418.4,149.2"/>
					</g>
					<g>
						<path class="st7" d="M416.2,143.8c0,0,1.1,4.5,9.1,17.4c8.1,12.9,20.7,37.8,7.8,64.2c-3.6,7.7-10.2,32.9,6.3,53.3h-25.6
							c0,0-13.2-31.6-3.6-66.5C419.9,177.3,413.9,151.6,416.2,143.8"/>
					</g>
					<g>
						<path class="st7" d="M418.3,136.4l1.1,3.3c0.5,1.4-0.6,3-2.1,3s-2.6-1.5-2.1-3l1.1-3.3C416.7,135.4,417.9,135.4,418.3,136.4"
							/>
					</g>
					<g>
						<rect x="414.2" y="142.5" class="st8" width="2.2" height="141.3"/>
					</g>
					<g>
						<path class="st9" d="M416.3,149.2v4.8l-2.2-0.9v-9.3C414.2,143.8,414.7,146.9,416.3,149.2"/>
					</g>
					<g>
						<rect x="414.2" y="142.5" class="st9" width="2.2" height="1.1"/>
					</g>
					<g>
						<path class="st14" d="M414.2,143.8c0,0-0.2,4.5,7.9,17.4c8.1,12.9,15.5,37.8,2.6,64.2c-3.6,7.7-9.1,32.9,7.4,53.3h-20.3
							c0,0-13.2-31.6-3.6-66.5S411.9,151.6,414.2,143.8"/>
					</g>
					<g>
						<path class="st15" d="M424.6,225.5c0.5-1,1-2.1,1.4-3.1c-1.4,2-5.3,7.5-7.4,10.5c-2.4,3.6-15.3,23.9,3.5,45.8h9.9
							C415.6,258.3,421.1,233.2,424.6,225.5"/>
					</g>
					<g>
						<path class="st16" d="M405,229.7c5-8,13.1-12.3,17.3-18.6c7.1-10.6,4.2-27.1-1.8-39.8c-4.3-9.1-6.1-18.8-6.9-23.5
							c-0.4,10.7,2.9,34.2-5.5,64.5C406.5,218.2,405.5,224,405,229.7"/>
					</g>
					<g>
						<path class="st8" d="M416.2,136.4l1.1,3.3c0.5,1.4-0.6,3-2.1,3c-1.6,0-2.6-1.5-2.1-3l1.1-3.3
							C414.6,135.4,415.9,135.4,416.2,136.4"/>
					</g>
					<g>
						<path class="st13" d="M417.7,140.6c-3.6-0.1-2.8-4.1-2.5-5.4c0.4,0,0.6,0.1,0.8,0.6l1.6,4.6
							C417.6,140.4,417.7,140.5,417.7,140.6"/>
					</g>
					<path class="st6" d="M357.8,283.6h-82.9l-4.1-59c-0.9-12.7,9.2-23.5,22-23.5h47c12.8,0,22.8,10.8,22,23.5L357.8,283.6z"/>
					<g>
						<path class="st17" d="M271,227.1c1.6-10.6,10.6-18.8,21.8-18.8h47c11.1,0,20.3,8.3,21.8,18.8l0.1-2.6
							c0.9-12.7-9.2-23.5-22-23.5h-47c-12.8,0-22.8,10.8-22,23.5L271,227.1z"/>
						<g>
							<g>
								<g>
									<g id="XMLID_00000039825877086042979950000012372262117348987563_">
										<path class="st18" d="M336.2,215.5c0,5.1-7.6,9.3-17,9.3s-16.6-3.4-16.6-8.5c0-3,4.6-5.6,9.2-7.1v-15.3h14.8v15.3
											C331.3,210.6,336.2,212.5,336.2,215.5z"/>
										<path class="st19" d="M326.6,193.8V207c-1.5,0.6-4.4,1.6-8.2,1.3c-3-0.2-5.3-1.1-6.7-1.9v-12.7H326.6z"/>
										<path class="st20" d="M319.4,270.1c0,0-22.1-44.4-18.8-53.7c1.1-4,7.6-6.4,7.6-6.4s5.1,2.9,11.1,2.9
											c6.1,0,11.1-2.9,11.1-2.9s6,3.9,7.1,7.9C341,227.2,319.4,270.1,319.4,270.1z"/>
										<g>
											<polygon class="st21" points="327.3,206.7 319.4,212.9 324.6,221 330.6,210 											"/>
											<polygon class="st21" points="311.6,206.7 319.4,212.9 314.2,221 308.3,210 											"/>
										</g>
										<path class="st22" d="M321.1,286.4c0,0.9-0.8,1.7-1.7,1.7c-0.9,0-1.7-0.8-1.7-1.7s0.8-1.7,1.7-1.7
											C320.4,284.6,321.1,285.4,321.1,286.4z"/>
										<path class="st22" d="M321.1,304.2c0,0.9-0.8,1.7-1.7,1.7c-0.9,0-1.7-0.8-1.7-1.7s0.8-1.7,1.7-1.7
											C320.4,302.5,321.1,303.3,321.1,304.2z"/>
										<g>
											<g>
												<g>
													<path class="st23" d="M349.1,216.7c2.9,0,5.9,0.6,7.7,2.2c1.9,1.6,2.8,3.6,3.7,5.6c6.4,14.1,12.7,28.1,19.1,42.1
														c-1.2,0.8-2.6,1.4-4.1,1.9c0.2,0.6,0.4,1.1,0.6,1.7c-2.4,0.9-3.7,1.4-7.6,2.4c-1.8,0.4-4.5,0.3-6.4,0.4l0.1,0.8
														c-3.6,0.1-7.1,0.1-10.7-0.1c0,0-4.7-34.3-7.6-41.9C340.8,224.1,346.1,216.7,349.1,216.7z"/>
													<path class="st24" d="M362.1,272.9c0.4,0,0.7,0,1.1-0.1c-0.7-1.4-2.4-4.3-2.4-4.3S361.8,271.5,362.1,272.9z"/>
													<path class="st24" d="M376.7,268.1c-1.6-1.8-4.9-5.3-4.9-5.3s2.6,3.9,3.7,5.9c0-0.1-0.1-0.1-0.1-0.2
														C375.8,268.4,376.3,268.2,376.7,268.1z"/>
													<path class="st24" d="M347.8,237.2c-0.4-2.6,0.6-7,0.9-8.2c0.4-2.8-3.1-3.8-5.3-5.3c-0.6,2.4-0.7,5.2,0.4,8
														c2.9,7.6,7.6,41.9,7.6,41.9c1.9,0.1,3.7,0.2,5.5,0.2c-0.8-0.7-1.4-1.7-1.7-2.9C351.6,259,348.2,239.8,347.8,237.2z"/>
												</g>
											</g>
											<g>
												<g>
													<path class="st23" d="M289.9,216.7c-2.9,0-5.9,0.6-7.7,2.2c-1.9,1.6-2.8,3.6-3.7,5.6c-6.4,14.1-12.7,28.1-19.1,42.1
														c1.2,0.8,2.6,1.4,4.1,1.9c-0.2,0.6-0.4,1.1-0.6,1.7c2.4,0.9,3.7,1.4,7.6,2.4c1.8,0.4,4.5,0.3,6.4,0.4l-0.1,0.8
														c3.6,0.1,7.1,0.1,10.7-0.1c0,0,4.7-34.3,7.6-41.9C298,224.1,292.7,216.7,289.9,216.7z"/>
													<path class="st24" d="M276.8,272.9c-0.4,0-0.7,0-1.1-0.1c0.7-1.4,2.4-4.3,2.4-4.3S277.1,271.5,276.8,272.9z"/>
													<path class="st24" d="M262.2,268.1c1.6-1.8,4.9-5.3,4.9-5.3s-2.6,3.9-3.7,5.9c0-0.1,0.1-0.1,0.1-0.2
														C263,268.4,262.6,268.2,262.2,268.1z"/>
													<path class="st24" d="M291.1,237.2c0.4-2.6-0.6-7-0.9-8.2c-0.4-2.8,3.1-3.8,5.3-5.3c0.6,2.4,0.7,5.2-0.4,8
														c-2.9,7.6-7.6,41.9-7.6,41.9c-1.9,0.1-3.7,0.2-5.5,0.2c0.8-0.7,1.4-1.7,1.7-2.9C287.2,259,290.7,239.8,291.1,237.2z"/>
												</g>
											</g>
											<g>
												<g>
													<path class="st23" d="M354.3,322.1c-0.5-0.8-4.7-80.1-4.6-86.9c0-3.1,5.9-14.1,3.7-16.9c-2.1-2.8-18.6-6.5-21.3-7.1
														c-0.2-0.1-0.1,6.1-0.1,14.1c0,6.1-10.6,11.4-13.3,11.4c-2.7,0-13.3-4.9-13.3-11.2c0-7.9,0.2-13.9,0-13.8
														c-2.3,0.6-18.1,4.4-20,6.9c-2.2,2.8,3.7,13.8,3.7,16.9c0.1,6.9-4.1,86.2-4.6,86.9c-1.3,1.9,4.1,2.9,8,2.9
														c0,0,16.7,1.5,26,1.5c9.4,0,27.8-1.5,27.8-1.5C350.2,325,355.6,324,354.3,322.1z"/>
												</g>
												<g>
													<path class="st25" d="M323.9,234.7h25.8c0.5-3.6,5.7-13.8,3.6-16.4c-2.1-2.8-18.6-6.5-21.3-7.1
														c-0.2-0.1-0.1,6.1-0.1,14.1C332,229.2,327.7,232.7,323.9,234.7z"/>
													<path class="st25" d="M313.4,234.7c-3.8-2-8-5.4-8-9.4c0-7.9,0.2-13.9,0-13.8c-2.3,0.6-18.1,4.4-20,6.9
														c-2.1,2.6,3.1,12.8,3.6,16.4H313.4z"/>
												</g>
												<polygon class="st24" points="319.3,326.5 319.1,236.5 318.2,236.5 318.8,326.5 												"/>
												<polygon class="st24" points="308,234.7 309,234.7 307.9,316.4 												"/>
												<polygon class="st24" points="296.3,234.7 297.3,234.7 296.2,306.5 												"/>
												<polygon class="st24" points="341.8,234.7 342.7,234.7 341.6,309.8 												"/>
												<polygon class="st24" points="330.1,234.7 331,234.7 329.9,306.5 												"/>
											</g>
										</g>
									</g>
									<g id="XMLID_00000155834863653535210060000014559734089627266217_">
										<g>
											<g>
												<path class="st18" d="M342.2,182.1c0,1.1-0.3,3.1-1.7,5.4c-0.8,1.4-2.9,4.3-3.9,3.9c-0.8-0.3-0.4-2.8,0.4-7.3
													c0.6-3.1,1.1-4.5,2.3-5.2c0.2-0.1,1.2-0.7,1.9-0.3C342.3,179.1,342.2,181,342.2,182.1z"/>
												<path class="st18" d="M296.8,180.8c-0.1,0.5-0.4,1.9,1,4.7c0.2,0.5,2.9,5.7,4.4,5.2c1.5-0.5,0.8-6.2,0.7-7.4
													c-0.5-3.9-1.6-4.7-2.1-5c-0.2-0.1-1-0.5-1.9-0.3C297.3,178.5,296.8,180.5,296.8,180.8z"/>
											</g>
											<path class="st18" d="M318.3,206.4c-0.9,0-1.8-0.1-2.9-0.3c-3.9-0.9-6.3-3.7-7.6-5.1c-1.6-1.8-2.4-3.5-3-4.6
												c-3.9-8.1-4-17.5-3.8-22.2c0,0,0.4-11,4.5-14c0.4-0.3,0.6-0.4,1.2-0.7c1.9-0.9,4.2-0.9,12.3-2.4
												c8.6-1.6,10.7-2.4,12.5-2.1c0.5,0.1,0.7,0.2,0.9,0.3c5.1,2,5.4,11.8,5.6,18.3c0.2,5,0.4,16.2-4.5,23.2
												c-0.9,1.2-2.3,2.9-3.8,4.4c-2.7,2.7-4.1,4.1-6.3,4.7C321.6,206.5,319.6,206.5,318.3,206.4z"/>
										</g>
									</g>
								</g>
								<path class="st26" d="M336.6,186c-0.5-0.1,2.1-5.3,0.1-10.8c-0.3-0.8-1.6-2.4-2.4-5.1c-0.2-0.8-0.3-1.4-0.4-1.9
									c-0.7-0.3-1.9-0.8-3.4-1.3c-7.1-2.2-13.6-1.4-19.9-0.6c-1.3,0.2-3.2,0.5-5.5,0.9c0.4,1.4,0.2,2.4,0.1,3
									c-0.2,0.9-0.6,1.6-1.1,2.4c-0.4,0.7-0.7,1.2-0.8,1.3c-1.7,2.5-1.3,12.1-1.6,12.1c-0.1,0-0.1-0.3-0.4-1.4
									c-0.2-0.9-0.5-1.6-0.6-2.1c-0.2-1.4-0.9-1.5-1.5-2.9c-0.3-0.7-0.4-1.4-0.5-1.8c0-0.8,0.1-2.1,0.2-3.6
									c0.4-8.1,0.3-8.8,0.6-10.4c0.4-2.3,1.1-5.3,3.4-7.9c2.5-2.9,5.8-3.8,9.1-4.8c3.4-1,6.1-1.1,8.6-1.2c3.9-0.1,5.8-0.2,8.1,0.6
									c4.5,1.6,6.9,5.3,7.7,6.7c0.1-0.1,0.4-0.2,0.6-0.3c1.6-0.3,3.6,2,4.4,4c0.7,1.8,0.3,4.7-0.6,10.4c-0.1,0.4-0.3,1.6-0.5,3.1
									c-0.4,2.4-0.6,3.5-0.6,3.8C338.8,182.3,337.1,186.1,336.6,186z"/>
							</g>
							<path class="st26" d="M313.9,180.3c0.1,0.1,0.2,0.3,0.3,0.6c0.1,0.5-0.1,0.9-0.2,1c-0.8-0.1-1.6-0.2-2.5-0.3
								c-0.2,0-1.6-0.1-2.7-0.2c-1.2,0-3.1,0-5.5,0.2c1-0.6,0.9-1.5,3.1-1.9C308.9,179.5,312.7,180,313.9,180.3z"/>
							<path class="st26" d="M329,180c2.2,0.3,1.8,1.1,2.8,1.7c-2.4-0.3-4.3-0.3-5.5-0.2c-1.1,0-2.4,0.1-2.6,0.2
								c-0.8,0.1-1.7,0.2-2.4,0.3c-0.1-0.1-0.2-0.5-0.2-1c0.1-0.3,0.2-0.5,0.3-0.6C322.5,179.9,326.6,179.6,329,180z"/>
							<g>
								<g>
									<path class="st21" d="M312.1,186.7c-0.3,0.3-1.1,0.9-2.3,1c-1.8,0.2-3.1-0.9-3.4-1.1c0-0.1,1-1.6,2.9-1.6
										C311.2,185.1,312.1,186.6,312.1,186.7z"/>
								</g>
								<g>
									<path d="M312.1,186.7c-0.3-0.3-1.3-1-2.8-1c-1.5,0-2.6,0.7-2.9,0.9c0.6-1,1.7-1.6,2.9-1.6
										C311.2,185,312.1,186.6,312.1,186.7z"/>
								</g>
								<g>
									<path class="st27" d="M309.7,185.7c-0.4,0-0.8,0-1.1,0c-0.4,0.6-0.3,1.4,0.2,1.8c0.5,0.3,1.2,0.3,1.6-0.1
										c0.4-0.4,0.4-1,0.2-1.5C310.3,185.8,310,185.7,309.7,185.7z"/>
								</g>
								<g>
									<path d="M309.5,186.1c-0.3,0-0.5,0.2-0.6,0.4c-0.1,0.3,0.1,0.6,0.3,0.8c0.4,0.2,0.8-0.1,0.9-0.5
										C310.2,186.5,309.9,186.1,309.5,186.1z"/>
								</g>
								<g>
									<path class="st28" d="M309.2,186.1c-0.1,0-0.2,0-0.2,0.1c0,0.1,0,0.2,0.1,0.2c0.1,0,0.2,0,0.3-0.1
										C309.4,186.2,309.3,186.1,309.2,186.1z"/>
								</g>
							</g>
							<g>
								<g>
									<path class="st21" d="M325.9,185.1c0.9,0,1.6,0.3,1.8,0.4c0.7,0.4,1.1,0.9,1.2,1.2c-0.2,0.2-1.5,1.4-3.5,1.2
										c-1.3-0.1-2.1-0.8-2.4-1.1C323.2,186.7,324.2,185.2,325.9,185.1z"/>
								</g>
								<g>
									<path d="M325.2,185.2c1.4-0.3,2.8,0.3,3.7,1.5c-0.3-0.2-1.6-1.1-3.4-0.9c-1.3,0.1-2.2,0.7-2.5,1
										C323.2,186.6,323.9,185.5,325.2,185.2z"/>
								</g>
								<g>
									<path class="st27" d="M324.6,186c-0.3,0.5-0.2,1.1,0.2,1.5c0.4,0.4,1.1,0.5,1.6,0.1c0.5-0.4,0.7-1.2,0.2-1.8
										c-0.3,0-0.6-0.1-1,0C325.2,185.8,324.6,186,324.6,186z"/>
								</g>
								<g>
									<path d="M325.1,186.9c0.1,0.3,0.5,0.5,0.8,0.4c0.2-0.1,0.4-0.4,0.3-0.7c-0.1-0.3-0.3-0.4-0.6-0.4
										C325.3,186.2,325.1,186.6,325.1,186.9z"/>
								</g>
								<g>
									<path class="st28" d="M325.8,186.4c0,0.1,0.2,0.2,0.3,0.1c0.1,0,0.1-0.1,0.1-0.2c0-0.1-0.1-0.1-0.2-0.1
										C325.9,186.2,325.8,186.3,325.8,186.4z"/>
								</g>
							</g>
							<g>
								<g>
									<g>
										<g class="st29">
											<polygon class="st28" points="314,190.5 304.3,190.5 303.2,184.2 315.1,184.2 314.7,186.5 314.7,186.8 											"/>
										</g>
										<g>
											<path class="st30" d="M314.2,190.8h-10.1l-1.1-6.9h12.5L314.2,190.8z M304.5,190.3h9.3l1-5.9h-11.2L304.5,190.3z"/>
										</g>
									</g>
									<g>
										<g class="st29">
											<polygon class="st28" points="331,190 321.3,190 320.2,183.7 332.1,183.7 											"/>
										</g>
										<g>
											<path class="st30" d="M331.2,190.3h-10.1l-1.1-6.9h12.5L331.2,190.3z M321.5,189.8h9.3l1-5.9h-11.2L321.5,189.8z"/>
										</g>
									</g>
								</g>
								<g>
									<g>
										<path class="st30" d="M314.9,187l-0.2-0.4c0,0,2.9-3.1,6.1-0.3l-0.2,0.5C317.6,184.3,315,186.9,314.9,187z"/>
									</g>
								</g>
								<g>
									<polygon class="st30" points="303.5,187.3 299.2,179.3 298.8,177.8 303.9,187 									"/>
								</g>
								<g>
									<polygon class="st30" points="331.9,186.7 331.6,186.3 339.6,178 339.5,178.8 									"/>
								</g>
							</g>
							<path class="st31" d="M314.2,199c0,0.3,1.8,0.6,2.9,0.7c3,0.3,5.8-0.3,5.8-0.7c0-0.2-0.8-0.2-2.1-0.3
								C317.8,198.5,314.2,198.6,314.2,199z"/>
							<g>
								<path class="st19" d="M318.6,196.5c-0.9,0-1.8-0.6-1.8-0.9c0-0.1,0.6,0.1,1.9,0.1c1.2,0,1.9-0.3,1.9-0.1
									C320.6,195.8,319.6,196.5,318.6,196.5z"/>
							</g>
							<path class="st32" d="M314.9,220c1.1,1.6,2.2,3.3,3.4,4.9c-1.4,5.1-2.6,11.2-3.3,18.1c-0.9,8.9-0.6,16.7,0.1,23
								c3.2,0,6.5,0.1,9.7,0.1c0.6-6.1,0.9-14-0.3-23c-0.9-7.2-2.6-13.3-4.2-18.3c1.3-1.5,2.6-3,3.9-4.6c-0.8-1.2-1.6-2.4-2.4-3.7
								c-0.8-1.2-1.6-2.5-2.4-3.7C317.9,215.2,316.4,217.6,314.9,220z"/>
							<path class="st26" d="M318.3,197.2c0,0.2,0,0.4,0,0.6c0,0.2-0.1,0.4-0.1,0.6c-1,0-1.9,0-2.6,0.1c-1.4,0.1-1.9,0.3-2.3,0.5
								c-0.5,0.2-0.9,0.5-1.1,0.7c0.3-0.5,0.5-1,0.8-1.5c0.4-0.2,1-0.5,1.6-0.7C316.1,197.1,317.5,197.1,318.3,197.2z"/>
							<path class="st26" d="M318.6,197.3c0,0.2-0.1,0.5-0.1,0.8c0,0.1,0,0.2,0,0.3c1.1,0,2,0.1,2.7,0.2c1.2,0.1,1.8,0.2,2.3,0.5
								c0.5,0.2,0.9,0.5,1.1,0.7c-0.3-0.5-0.5-1-0.8-1.5c-0.4-0.2-0.9-0.5-1.6-0.7C320.8,197.1,319.5,197.2,318.6,197.3z"/>
						</g>
					</g>
					<g>
						<path class="st24" d="M360.3,266.9c-1.2-1.4-3.8-4.1-3.8-4.1s2,3,2.9,4.6c0-0.1-0.1-0.1-0.1-0.2
							C359.6,267.1,359.9,267,360.3,266.9"/>
					</g>
					<g>
						<path class="st24" d="M272.4,266.9c1.2-1.4,3.8-4.1,3.8-4.1s-2,3-2.9,4.6c0-0.1,0.1-0.1,0.1-0.2
							C273,267.1,272.7,267,272.4,266.9"/>
					</g>
				</g>
				<g>
					<path class="st22" d="M317.4,281.4c0,0.7-0.6,1.4-1.4,1.4c-0.7,0-1.4-0.6-1.4-1.4c0-0.7,0.6-1.4,1.4-1.4
						C316.8,280,317.4,280.6,317.4,281.4"/>
				</g>
				<g>
					<path class="st22" d="M317.4,295c0,0.7-0.6,1.4-1.4,1.4c-0.7,0-1.4-0.6-1.4-1.4c0-0.8,0.6-1.4,1.4-1.4
						C316.8,293.7,317.4,294.3,317.4,295"/>
				</g>
				<g>
					<path class="st24" d="M348.8,271c0.3,0,0.6,0,0.9,0c-0.6-1.1-1.9-3.3-1.9-3.3S348.6,270,348.8,271"/>
				</g>
				<g>
					<path class="st24" d="M360,267.3c-1.2-1.4-3.8-4.1-3.8-4.1s2,3,2.9,4.6c0-0.1-0.1-0.1-0.1-0.2
						C359.3,267.5,359.6,267.4,360,267.3"/>
				</g>
				<g>
					<path class="st24" d="M283.3,271c-0.3,0-0.6,0-0.9,0c0.6-1.1,1.9-3.3,1.9-3.3S283.5,270,283.3,271"/>
				</g>
				<g>
					<path class="st24" d="M272.1,267.3c1.2-1.4,3.8-4.1,3.8-4.1s-2,3-2.9,4.6c0-0.1,0.1-0.1,0.1-0.2
						C272.7,267.5,272.4,267.4,272.1,267.3"/>
				</g>
				<g>
					<rect x="164.6" y="266.5" class="st33" width="306.3" height="120.5"/>
				</g>
				<g>
					<rect x="164.6" y="266.5" class="st34" width="306.3" height="14.1"/>
				</g>
				<g>
					<path class="st35" d="M310.3,285.3H175.4c-1.6,0-3,1.4-3,3v89.4c0,1.6,1.4,3,3,3h134.9c1.6,0,3-1.4,3-3v-89.4
						C313.3,286.6,311.9,285.3,310.3,285.3"/>
				</g>
				<g>
					<path class="st34" d="M306.7,288.6h-128c-1.6,0-3,1.4-3,3v82.8c0,1.6,1.4,3,3,3h128.1c1.6,0,3-1.4,3-3v-82.8
						C309.7,289.9,308.4,288.6,306.7,288.6"/>
				</g>
				<path class="st35" d="M322.1,288.2v89.4c0,1.6,1.4,3,3,3h134.9c1.6,0,3-1.4,3-3v-89.4c0-1.6-1.4-3-3-3H325.1
					C323.5,285.3,322.1,286.6,322.1,288.2"/>
				<g>
					<path class="st34" d="M325.9,291.5v82.8c0,1.6,1.4,3,3,3h127.8c1.6,0,3-1.4,3-3v-82.8c0-1.6-1.4-3-3-3H328.9
						C327.3,288.6,325.9,289.9,325.9,291.5"/>
				</g>
				<g>
					<path class="st36" d="M162.2,271.6v3.1c0,1.7,1.4,3.1,3.1,3.1h304.8c1.7,0,3.1-1.4,3.1-3.1v-3.1H162.2z"/>
				</g>
				<g>
					<path class="st36" d="M302.3,293.8h-116c-1.5,0-2.7,1.2-2.7,2.7v75c0,1.5,1.2,2.7,2.7,2.7h116c1.5,0,2.7-1.2,2.7-2.7v-75
						C305,295,303.8,293.8,302.3,293.8"/>
				</g>
				<path class="st33" d="M300.7,292.7h-116c-1.5,0-2.7,1.2-2.7,2.7v75c0,1.5,1.2,2.7,2.7,2.7h116c1.5,0,2.7-1.2,2.7-2.7v-75
					C303.4,294,302.2,292.7,300.7,292.7"/>
				<g>
					<path class="st37" d="M268.2,292.7h-83.5c-1.5,0-2.7,1.2-2.7,2.7V343C257.8,342.8,267.2,305.2,268.2,292.7"/>
				</g>
				<g>
					<path class="st36" d="M452.4,293.8h-116c-1.5,0-2.7,1.2-2.7,2.7v75c0,1.5,1.2,2.7,2.7,2.7h116c1.5,0,2.7-1.2,2.7-2.7v-75
						C455.1,295,453.9,293.8,452.4,293.8"/>
				</g>
				<path class="st33" d="M450.8,292.7h-116c-1.5,0-2.7,1.2-2.7,2.7v75c0,1.5,1.2,2.7,2.7,2.7h116c1.5,0,2.7-1.2,2.7-2.7v-75
					C453.6,294,452.3,292.7,450.8,292.7"/>
				<g>
					<path class="st37" d="M418.3,292.7h-83.5c-1.5,0-2.7,1.2-2.7,2.7V343C407.9,342.8,417.3,305.2,418.3,292.7"/>
				</g>
				<g>
					<path class="st38" d="M350.5,307.3H285c-5.6,0-10.1-4.6-10.1-10.1c0-5.6,4.6-10.1,10.1-10.1h65.5c5.6,0,10.1,4.6,10.1,10.1
						C360.6,302.8,356.1,307.3,350.5,307.3"/>
				</g>
				<path class="st39" d="M358.5,297.2c0,4.5-3.6,8.2-8.2,8.2h-65c-3.8,0-6.9-2.5-7.9-6c-0.1-0.6-0.3-1.2-0.3-1.8c0-0.1,0-0.3,0-0.4
					s0-0.3,0-0.4c0.2-4.4,3.8-7.8,8.2-7.8h65C354.8,289,358.5,292.7,358.5,297.2z"/>
				<g>
					<path class="st38" d="M299.9,302.5v-1.4c0.1,0,0.3,0,0.5,0c0.3,0,0.5-0.1,0.6-0.2c0.1-0.1,0.2-0.4,0.2-0.7v-7.1h1.4v7
						c0,1.6-0.7,2.4-2.1,2.4C300.4,302.5,300.1,302.5,299.9,302.5"/>
				</g>
				<g>
					<path class="st38" d="M306,300.2v-7.1h1.4v7.1c0,0.6,0.3,0.9,0.8,0.9s0.8-0.3,0.8-0.9v-7.1h1.4v7.1c0,0.7-0.2,1.3-0.6,1.7
						c-0.4,0.4-0.9,0.6-1.6,0.6c-0.7,0-1.3-0.2-1.6-0.6C306.2,301.5,306,301,306,300.2"/>
				</g>
				<g>
					<path class="st38" d="M313.7,302.5v-9.3h2.3c0.7,0,1.3,0.2,1.6,0.6c0.4,0.4,0.6,0.9,0.6,1.7v4.7c0,0.7-0.2,1.3-0.6,1.7
						c-0.4,0.4-0.9,0.6-1.6,0.6H313.7z M315.1,301.1h0.9c0.2,0,0.4-0.1,0.6-0.2c0.1-0.1,0.2-0.4,0.2-0.7v-4.9c0-0.3-0.1-0.6-0.2-0.7
						c-0.1-0.1-0.3-0.2-0.6-0.2h-0.9V301.1z"/>
				</g>
				<g>
					<path class="st38" d="M321.4,300.2v-4.9c0-0.7,0.2-1.3,0.6-1.7c0.4-0.4,0.9-0.6,1.6-0.6c0.7,0,1.3,0.2,1.6,0.6
						c0.4,0.4,0.6,1,0.6,1.7v0.9h-1.4v-1c0-0.6-0.2-0.9-0.7-0.9c-0.6,0-0.9,0.3-0.9,0.9v5c0,0.6,0.3,0.9,0.9,0.9
						c0.4,0,0.7-0.3,0.7-0.9v-1.7h-0.6v-1.4h2.1v2.9c0,0.7-0.2,1.3-0.6,1.7c-0.4,0.4-0.9,0.6-1.6,0.6c-0.7,0-1.3-0.2-1.6-0.6
						C321.5,301.5,321.4,301,321.4,300.2"/>
				</g>
				<g>
					<polygon class="st38" points="328.9,302.5 328.9,293.2 332.9,293.2 332.9,294.5 330.4,294.5 330.4,297.1 332.4,297.1 
						332.4,298.4 330.4,298.4 330.4,301.1 332.9,301.1 332.9,302.5 					"/>
				</g>
			</g>
			<g>
				<path class="st40" d="M434.2,318.3c-3.5-1.5-6.6-3.1-9.3-4.6c-0.5,0.9-1.1,1.7-1.6,2.6c-5.6-3-11.6-6.6-17.9-10.7
					c-6.3-4.2-11.9-8.5-16.9-12.5c-1.5,1.1-3,2.4-4.6,3.7c-1.5,1.2-2.8,2.5-4.1,3.7c6.7,7.3,12.7,13.7,18.2,19.6
					c1.5,1.7,8.6,9.2,15.9,14.8c0.2,0.2,0.6,0.5,1.3,1c4.9,3.6,9.1,6.4,12.6,8.5c2,1.2,4.7,0.7,6.1-1.2c2.6-3.5,4.5-5.6,8.6-12.9
					c1.3-2.3,2.8-4.8,4.7-7.5C443.3,321.7,439,320.3,434.2,318.3z"/>
				<g>
					<g>
						<path class="st40" d="M388.3,292.5c0,0-2.2-3-2.9-5.4c-0.2-0.6-0.4-1.3-0.4-1.3c-0.3-1-0.4-1.9-0.5-2.5
							c-1.1-0.3-2.4-0.8-3.9-1.6c-1.7-0.9-3.1-1.9-4.1-2.8l-1.4-0.8c-13.7-9.3-17.5-10.4-18.4-9.5c-0.1,0.1-0.5,0.6-0.5,1.2
							c-0.1,1.2,1.3,2.2,2.8,3.2c3.4,2.3,6.5,4.2,7.4,4.8c-0.8-0.4-1.7-0.3-2.4,0.2c-0.9,0.6-1.2,1.8-0.7,2.9
							c-0.2,0.1-0.9,0.5-1.2,1.3c-0.4,1.1,0.1,2,0.2,2.1c-0.3,0.5-0.7,1.4-0.7,2.6c0.1,2.7,2.5,4.2,2.7,4.4c2,2.2,5.3,5.1,10,7.2
							c2,0.9,3.9,1.5,5.6,1.9c2,1.8,4.1,3.7,6.1,5.5c2.6-2.5,5.2-5,7.9-7.5C392,296.4,390.2,294.5,388.3,292.5z"/>
						<g>
							<path class="st41" d="M368,291.2c1-0.9,0.6-2.8,0.5-2.8c-0.1,0-0.3,0.3-0.3,0.9c0,0.2-0.1,0.8-0.5,1.3
								c-0.8,0.9-2,0.8-2.1,0.8c0.1,0.1,0.3,0.2,0.5,0.3C366.9,291.8,367.6,291.6,368,291.2z"/>
							<path class="st41" d="M369.6,288.3c0.8-0.5,1.5-3,0.3-3.2c-0.6,0.5,0.7,1.8-1,2.9c-1.1,0.6-2.4-0.1-3.3-0.8
								c-0.5-0.4-1-0.9-1.5-1.3c1.1,2,2.8,3.2,4.4,3C368.7,288.7,369.1,288.6,369.6,288.3z"/>
							<path class="st41" d="M371.6,285c0.4-0.5,0.5-1,0.5-1.3c0.1-1.5-1-2.6-1.3-2.9c-0.4-0.3-0.9-0.7-1.5-1
								c-0.2-0.1-0.5-0.2-0.5-0.2c-0.1,0.1,1.1,0.6,1.9,1.7c0.2,0.3,1.2,1.7,0.7,2.7c-0.4,0.6-1.3,0.9-1.8,0.8c-0.2,0-0.6-0.1-1-0.3
								c0,0,0,0,0,0c-0.7-0.5-3-2.5-3.1-2.4c-0.1,0.1,1.3,1.8,3.1,3c0.3,0.2,0.8,0.5,1.4,0.5C370.3,285.7,371.1,285.6,371.6,285z"/>
							<path class="st41" d="M378.9,291.1c-0.9-1.4-2.5-4.3-2.7-8.2c-0.1-1.6,0.1-2.9,0.4-4c-0.1-0.1-0.3-0.2-0.4-0.3
								c-0.4,1.1-1.3,4.3,0,8C376.9,288.7,378.1,290.2,378.9,291.1z"/>
						</g>
					</g>
					<path class="st40" d="M377.7,276.9c0,0.1,0.1,1.1-0.5,1.7c-0.2,0.2-0.4,0.2-0.5,0.3c1.3,1,2.6,2,4,3.1c1.4,1,2.8,2.1,4.1,3
						c0-2-1.2-6-1.5-7.2c-0.5-1.5-2.8-8-2.7-9.5c0-0.1,0-0.6-0.2-1.1c-0.2-0.3-0.5-0.6-0.8-0.6c-0.2,0-0.4,0.1-0.5,0.2
						c-0.9,0.5-2,3.6-2.1,3.9c0,0.8,0,1.6,0.1,2.6C377,274.7,377.3,275.9,377.7,276.9z"/>
				</g>
				<g>
					<path class="st42" d="M511.3,335.5c15.8,33.8,19.6,65.7,20.4,98.6c-1.4-2.4-7.7-6.3-19.7-0.7"/>
					<g>
						<g>
							<path d="M494.9,557.9c1.3,1,2.7,4.3,0.9,6.3c-1.7,2-28.3,8.3-35,8.6c-3.4,0.2-7.1-0.8-8.9-3c-1-1.2-0.6-3,0.8-3.7
								c3.9-2,12.2-5,13.1-5.3C466.8,560.5,494.9,557.9,494.9,557.9z"/>
							<path class="st40" d="M493.3,553.9c1.6,3.1,1.4,5.2,1,6.5c-0.6,1.8-2.3,5.1-31.9,9.2c-2.3,0.3-4.6,0.1-6.7-0.6
								c-1.3-0.4-2.6-0.8-3.1-1.9c-0.4-0.8-0.2-1.5-0.2-1.7c0.2-0.9,0.8-1.6,1.7-2.1c0.5-0.2,0.9-0.5,1.4-0.8
								c0.3-0.2,0.5-0.3,0.7-0.4c2-1.2,4.1-2.4,6.1-3.6c2.2-1.4,4.4-2.9,6.5-4.6c2.4-2,3.9-3.4,5-5.6c1.6-3.3,1.1-6.5,0.8-8
								c-2.6-16.9-4.3-34-6.6-51c-0.7-4.7-1.5-11.6-1.8-20.2c7,0,14,0,21,0c0.8,2.3,1.8,5.5,2.7,9.4c2.5,10.7,2.9,20,2.8,26.2
								c-0.3,11.6-2.5,23.8-2.7,34.2c-0.1,3.4,0.2,5.6,0.9,8.2C491.4,550.1,492.5,552.4,493.3,553.9z"/>
							<path d="M471.2,570.3c-0.6-1.3-3.1-6.6-8.9-8.6c-1.7-0.6-3.3-0.7-4.6-0.7c0.7-0.7,1.6-1.4,2.5-2.1c2.1-1.5,4.2-2.5,5.9-3.2
								c1.6,0.3,3.7,0.9,5.9,2.1c5.3,3,7.8,7.6,8.7,9.6C477.6,568.4,474.4,569.4,471.2,570.3z"/>
						</g>
						<g>
							<path d="M525.3,560.5c1.3,1,2.7,4.3,0.9,6.3c-1.7,2-28.3,8.3-35,8.6c-3.4,0.2-7.1-0.8-8.9-3c-1-1.2-0.6-3,0.8-3.7
								c3.9-2,12.2-5,13.1-5.3C497.3,563.1,525.3,560.5,525.3,560.5z"/>
							<path class="st40" d="M523.7,556.5c1.6,3.1,1.4,5.2,1,6.5c-0.6,1.8-2.3,5.1-31.9,9.2c-2.3,0.3-4.6,0.1-6.7-0.6
								c-1.3-0.4-2.6-0.8-3.1-1.9c-0.4-0.8-0.2-1.5-0.2-1.7c0.2-0.9,0.8-1.6,1.7-2.1c0.5-0.2,0.9-0.5,1.4-0.8
								c0.3-0.2,0.5-0.3,0.7-0.4c2-1.2,4.1-2.4,6.1-3.6c2.2-1.4,4.4-2.9,6.5-4.6c2.4-2,3.9-3.4,5-5.6c1.6-3.3,1.1-6.5,0.8-8
								c-2.6-16.9-4.3-34-6.6-51c-0.7-4.7-1.5-11.6-1.8-20.2c7,0,14,0,21,0c0.8,2.3,1.8,5.5,2.7,9.4c2.5,10.7,2.9,20,2.8,26.2
								c-0.3,11.6-2.5,23.8-2.7,34.2c-0.1,3.4,0.2,5.6,0.9,8.2C521.9,552.7,522.9,555,523.7,556.5z"/>
							<path d="M501.7,572.9c-0.6-1.3-3.1-6.6-8.9-8.6c-1.7-0.6-3.3-0.7-4.6-0.7c0.7-0.7,1.6-1.4,2.5-2.1c2.1-1.5,4.2-2.5,5.9-3.2
								c1.6,0.3,3.7,0.9,5.9,2.1c5.3,3,7.8,7.6,8.7,9.6C508.1,571,504.9,572,501.7,572.9z"/>
						</g>
						<path class="st21" d="M452.4,400.8c-0.2,19.6,0.4,35.2,1,46c0,0,0.4,7.3,3.3,26.2c0.7,4.8,1.6,9.9,4.4,16
							c1.9,3.9,3.8,7.9,7.4,10.7c8.9,6.9,22.3,2.2,24.3,1.4c0.1-1.5,0.2-3.1,0.2-4.7c0.1-4.8,0-9.3-0.3-13.5
							c1.9,6.2,3.8,12.4,5.6,18.7c1.4,0.6,11.6,4.9,21-0.5c3.9-2.2,6.2-5.3,7.5-7.3c2.5-12.6,4.5-27.8,4.6-45
							c0.2-26.3-4-48.4-8.5-64.8c-10.2-0.1-23.7,0.8-39,4.8C471.1,392,460.5,396.6,452.4,400.8z"/>
						<g>
							<path class="st20" d="M492.7,466.4c7,5.5,14.3,9.8,22.5,13.4C506,480.7,496.3,474.9,492.7,466.4L492.7,466.4z"/>
						</g>
						<g>
							<path class="st20" d="M491.3,471c5.1,7.3,10.9,13.5,17.7,19.4C499.9,488.5,492.3,480.2,491.3,471L491.3,471z"/>
						</g>
						<g>
							<path class="st20" d="M495.1,457.9c5.8,5,11.8,8.7,18.9,11.3C506.2,471.2,497.2,465.7,495.1,457.9L495.1,457.9z"/>
						</g>
						<g>
							<path class="st20" d="M483.9,470.8c0.3,7.7-8,13.8-15.3,12.6C474.6,480,479.9,476.5,483.9,470.8L483.9,470.8z"/>
						</g>
						<g>
							<path class="st20" d="M480.4,464.5c0.8,7.1-6.5,12.9-13.2,13.1C471.8,473.2,476.8,469.9,480.4,464.5L480.4,464.5z"/>
						</g>
						<g>
							<path class="st20" d="M487,474.5c1.9,7.1-4.7,14-11.3,15.4C479.7,484.7,484.4,480.6,487,474.5L487,474.5z"/>
						</g>
						<path class="st43" d="M492.6,400.1c0.9,23,1.7,46.1,2.6,69.1c-0.4,0.9-1.9,4-5,5.1c-3.6,1.3-7.9-0.7-10.7-5
							c-3.2-16.7-5.4-36.5-5.1-58.5c0.1-5.7,0.3-11.2,0.7-16.5C481,396.2,486.8,398.1,492.6,400.1z"/>
					</g>
					<g>
						<path class="st44" d="M424.1,311.3c8.3,4.3,16.6,8.6,24.9,12.9c6.7-14.6,13.3-29.1,20-43.7c-1.3-2.5-4.1-7.3-9.6-11.1
							c-3.7-2.5-7.2-3.8-9.7-4.4c-0.2,0.2-0.4,0.4-0.6,0.7c-0.3,0.4-0.5,0.7-0.7,1c-3.6,6.8-7.2,13.6-11,20.4
							C433,295.3,428.5,303.4,424.1,311.3z"/>
						<path class="st42" d="M426.2,303.4c3.5,2,7.2,3.9,11.2,5.8c6.4,3.1,12.5,5.6,18.3,7.6c-2.2,3.3-4.4,6.5-6.6,9.8
							c-5.3-2.2-10.8-4.6-16.4-7.2c-4.2-2-8.2-4-12-5.9C422.4,310.1,424.3,306.8,426.2,303.4z"/>
					</g>
					<path class="st40" d="M462,271.6c0.9,12.9,14.2,21.9,26.6,21c12.7-0.9,24.6-12.3,23.3-24.7c-1.2-11.5-13.3-17.4-14.2-17.8
						c-2.2-1.1-9.2-4.2-17.4-2.1C470.3,250.6,461.3,260.3,462,271.6z"/>
					<path class="st44" d="M523,367.7c2,10.4,3.8,21.4,5.4,33.1c1.5,11.6,2.6,22.7,3.3,33.3c0.3,0,1,0,1.8-0.3
						c0.9-0.4,1.4-1.1,1.5-1.4c-4.2-26.8-8.4-53.5-12.5-80.3"/>
					<path class="st44" d="M450.1,435.2c8.3,2.6,21.6,5.6,33.2,6.2c18.9,0.9,34.3-3.2,43.9-6.7c-0.7-10.4-1.6-19.5-2.3-26.9
						c-2.6-24.6-5.2-39.7-6-43.8c-0.6-3.1-1.1-5.6-1.4-7.3c-1-4.5-2.3-8.9-3.2-13.4c-1-5.4-0.8-10.6,0.2-15.7
						c1.2-5.6,3.4-11,6.2-16.2c4.1-7.6,5.2-11,5.6-13.3c0.4-2.4,0.6-4.2,0.6-5.2c0.1-0.9,0.1-1.9,0.1-2.9c0.4-9.6,0.5-21.3,0.5-26.2
						c-0.1-1-0.5-2.4-1.3-3.8c-1.6-2.7-4.6-5-19.1-8.4c-2.3-0.6-5.5-1.3-9.3-2c-0.7-0.3-1.4-0.6-2.1-0.9c-1.1-0.5-2.1-1.1-3-1.6
						c-0.1,0.8-0.2,1.8-0.5,3.1c0,0-0.9,3.6-3.2,6.9c-4,5.7-11.2,8.2-12.3,8.6c-0.8,2.8-1.6,5.9-2.1,9.3c-0.3,1.9-0.5,3.8-0.7,5.5
						c-0.6-4.6-1.2-9.2-1.8-13.8c-0.9-0.7-2-1.9-2.8-3.6c-2.2-4.6-0.2-9,0.2-10c-4.3,3.1-8.2,5.1-10.8,6.5c-3.8,2-7.3,3.6-9.2,5.5
						c-0.9,0.9-1.4,1.8-1.5,2.9c0,0.6,0,1,0.1,1.3c2.1,19.3,3.6,35.4,4.6,47.2c2.2,24.5,2.4,28.7,2,32.7c-1.6,18.1-2.7,26.9-3.8,40
						c-0.7,8.4-1.1,12.6-1.3,17.9c0,0.9-0.1,1.8-0.1,2.6C449.4,419.5,449.7,428.1,450.1,435.2z"/>
					<g>
						<path class="st42" d="M472.3,266.6c2.7,13.2,3.9,26.8,3.1,40.3c0,0,0,0.4,0,0.4s-0.3,0-0.3,0c-2-0.2-4-0.3-6-0.4
							c2-0.1,4-0.2,6-0.3c0,0-0.4,0.3-0.4,0.3c-0.2-6.7-0.5-13.5-0.9-20.2C473.5,280.1,472.6,273.2,472.3,266.6L472.3,266.6z"/>
					</g>
					<path class="st42" d="M471.1,300.1c-0.2,0.3-0.1,0.8,0,1.1c0.3,0.5,0.8,0.7,1.3,0.5c0.3-0.1,0.6-0.5,0.6-1c0-0.6-0.4-1-0.8-1.1
						C471.8,299.4,471.4,299.6,471.1,300.1z"/>
					<path class="st42" d="M470.6,289.7c-0.2,0.3-0.1,0.8,0,1.1c0.3,0.5,0.8,0.7,1.3,0.5c0.3-0.1,0.6-0.5,0.6-1c0-0.6-0.4-1-0.8-1.1
						C471.2,289,470.8,289.2,470.6,289.7z"/>
					<path class="st42" d="M470.1,278.9c-0.2,0.3-0.1,0.8,0,1.1c0.3,0.5,0.8,0.7,1.3,0.5c0.3-0.1,0.6-0.5,0.6-1c0-0.6-0.4-1-0.8-1.1
						C470.8,278.3,470.3,278.4,470.1,278.9z"/>
					<path class="st45" d="M456.5,262.3c0.3-3.9,3.1-4.3,4-4c0.8-1.9,2.3-2.7,3.9-2c0.3-1.3,2.8-2.4,3.5-1.8
						c0,6.3,2.3,67.4,9.2,89.8c0.4,2-11.7,8.7-16.3,4.9C460.2,346.3,453.5,279.9,456.5,262.3z"/>
					<path class="st40" d="M527.8,384.2c-0.6,2.1-1.2,4.3-1.7,6.4c0.4,1.7,0.9,4.2,0.9,7.1c0,1.7,0.3,3.9-0.8,6.3
						c-1.7,3.8-2.3,6.3-5,7.7c-0.4,0.5-1,1.1-2,1.7c-1.3,0.7-2.5,0.9-3.2,0.9c-5.1,1-6.6,0.6-6.8,0c-0.2-0.5,0.2-1.4,0.8-2
						c0.5-0.5,1.1-0.6,1.6-0.8c1.5-0.6,2.3-1.8,2.8-2.5c1.5-2.2,1.3-4.6,1.2-5.4c-0.1-0.5-0.4-3.4-1.3-3.5c-0.2,0-0.6,0.1-1.1,1
						c-0.2,1-0.5,2.2-1.1,3.6c-0.4,0.9-0.8,1.7-1.2,2.3c-0.2,0.2-2.7,2.4-3.7,2.4c-0.2,0-0.4,0-0.5-0.1c-0.3-0.2-0.5-0.6-0.4-0.9
						c0-0.6,0.3-1,0.3-1.1c0.8-1.2,1.9-8.1,2.2-9.6c0.5-2.5,2-6.2,6.4-10.9c0-2.3,0.1-4.5,0.1-6.8
						C519.5,381.3,523.6,382.7,527.8,384.2z"/>
					<path class="st40" d="M505.9,277.5c-2.5,14.1,3,34.6,3.8,37.3c1.5,5.2,3.8,12.5,7.3,21c-0.5,7.2-0.9,14.6-1.2,22.1
						c-0.4,9.9-0.6,19.4-0.6,28.7c1.9,0.7,3.7,1.4,5.6,2.1c1.8,0.6,3.6,1.3,5.3,1.9c2.4-8.1,5.4-19.5,7.9-33.4
						c1.9-10.1,2.9-15.7,3.4-23.4c0.5-7.4-4.1-21.1-5.7-48.9c0,0-2.1-15.9-9.9-21.8c-1.6-1.2-3.1-1.2-3.1-1.2
						c-1.2,0-2.3,0.5-3.5,1.4C513.4,264.7,507.7,267.5,505.9,277.5z"/>
					<path class="st44" d="M540,324c-3.6,1.4-7.9,2.8-12.8,3.9c-6.8,1.5-13,2-18,2.1c-3.3-11.8-5.7-22-7.3-29.8
						c-2.7-13.1-3.2-18.5-1.9-24.8c0.5-2.6,3.6-16.6,11.2-18.2c2.8-0.6,7.2,0.3,9.2,0.7c2.5,0.5,4.5,1.2,5.9,1.7
						c0.9,2.6,2.4,6.9,3.9,12.2c2.8,9.9,3.6,16.3,6.7,34C537.5,309.9,538.6,316.2,540,324z"/>
					<path class="st42" d="M539.6,315.4c-4.6,1-9.4,2-14.5,2.9c-6.4,1.1-12.6,1.9-18.4,2.5c0.9,3.7,1.9,7.4,2.8,11.1
						c4.5,0.3,10.5,0.2,17.4-1.1c6.1-1.2,11.1-3,15-4.7C541.1,322.5,540.4,318.9,539.6,315.4z"/>
					<path class="st42" d="M472.3,266.6c-0.8-0.8-2.5-2.7-3.3-5.5c-1.1-3.9,0.3-7.1,0.7-8.1c-0.6,0.4-1.3,0.7-1.9,1.1
						c-0.7,0.3-0.9,2.9-1,3.7c-0.4,2.6,0,3.4,0.7,10.3c0.2,2,0.3,3.6,0.8,3.6c0.3,0,0.4-1,1.6-2.4c0.4-0.5,0.6-0.8,1-1
						c0.6-0.5,1.1-0.7,1.3-1.3C472.3,266.9,472.3,266.7,472.3,266.6z"/>
					<g>
						<path class="st40" d="M469.2,257.7c7.5,5.8,26-8.4,25.3-8.9c-4.7-3-4.5-10.9-3.7-17.8c0.3-2.7,0.7-5.2,1-7.2
							c-4.6-1.4-16.7-0.9-21.5,8c-1.8,3.3-2.5,7.8-1.4,13.9c0.5,1.1,0.9,2.1,1,3.1c0,0,0,0,0,0.1
							C470.4,253.2,468.6,256.8,469.2,257.7z"/>
						<path class="st46" d="M468.7,245.8c0.5,1.1,0.9,2.1,1,3.1c0,0,0,0,0,0.1c0.8-0.2,1.9-0.5,3.1-1c1-0.4,2.4-0.9,4.2-1.9
							c2.3-1.2,4.2-2.3,5.6-4.4c0.7-1,0.9-1.8,1.4-3.2c0.6-1.7,1.2-4.1,1.4-7.3c-4.7-3.1-10.5-3.2-14.2-0.3c-0.4,0.3-0.8,0.7-1.1,1
							C468.4,235.3,467.6,239.8,468.7,245.8z"/>
						<path class="st40" d="M455.1,218.9c0,0.1,0,0.2,0,0.3c0.1,0.5,0.2,1,0.5,1.4c0,0,0.2,0.3,0.7,1.7c0.3,0.7,0.6,4.4,0.7,9.5
							c0,0.9,0.1,2.1,0.5,3.8c0.4,2,1.1,5.3,3.5,8.5c0.6,0.8,1.4,1.8,2.7,2.8c0.5,0.4,1.1,0.6,1.8,0.6c0.6,0,1.3-0.1,2-0.3
							c0.1,0,0.4-0.1,0.7-0.2c1.9-0.4,4.1-1,6.5-1.8c1.4-0.5,3.2-1.1,4.4-1.7c2.7-1.3,4.7-3.9,5.2-6.9c0.5-1.8,0.6-3.6,1-5.5
							c0.2-1.1,0.3-2.3,0.5-3.4c0-0.1,0.1-0.1,0.1-0.1c0.2-0.1,0.3-0.1,0.7-0.1c3.4-0.6,5.6-5,6.2-6.2c2.5-5.1,3.4-15.7-3.4-21.8
							c-4.4-3.9-9.8-3.9-12.7-3.9c-4.3-0.1-22.1,2.5-21.3,17.7c0.1,1.2,0,2.4-0.1,3.6c0,0.2,0,0.3-0.1,0.5c0,0.1,0,0.2,0,0.2
							C455.1,218.1,455.1,218.5,455.1,218.9z"/>
						<path d="M486.8,220.3c-1.2,0.9-0.6,2.2-0.7,2.6c-0.4,0.3-1.6,0.7-1.9,1c0-1.1-0.1-2.2-0.1-3.3c-0.1-1.4-0.6-2.2-1-2.8
							c-0.5-0.7-1-0.9-2.1-1.9c0,0-0.9-0.8-1.7-1.8c-2.1-2.7-3-5.6-3.3-6.7c-0.2-0.6-0.3-1.2-0.3-1.5c-0.8,0-1.9,0-3.3,0.1
							c-2.1,0.2-3.6,0.5-4.1,0.6c-5.7,1.1-9.1-1.2-11.5,0.6c-0.9,0.7-1.8,2.3-1.6,5.9c-2.2-5.4-1.3-9-0.8-10.5
							c3.3-9.7,19.3-14.1,29.2-8.9c2.8,1.4,4.6,3.4,5.6,4.7c2.8,0.7,4.3,1.9,5.2,2.7c3.9,3.8,3.6,10.4,3.3,16.2
							c0,0.9-0.2,1.8-0.2,1.8c-0.3,1.8-0.7,3-0.9,3.4c-1.1,3.1-2.7,12-3.9,15c-0.1,0.4-0.4,1-1.1,1.4c-0.5,0.3-1,0.3-1.3,0.2
							c-0.5-4.6-0.2-7.9,0.1-10c0,0,0,0,0-0.1c0.1-0.7,0.4-2.9,0.6-4.9c0.2-2.6,0.3-3.8-0.1-4.3
							C490.1,219.1,488.1,219.3,486.8,220.3z"/>
						<path id="XMLID_00000115492734274067191560000010110026376636275891_" class="st45" d="M499.3,211.5
							c-25.4-12.6-39.4-11.2-44.2-10.8c-0.8,0.2-2,1.6-1.9,4.2c-1.1,1.5-1.5,3.6-0.3,4.6c0,0,0,0.1,0,0.1c-0.1,0.6,0.4,1.2,1.1,1.2
							c5.2,0.5,17.9-3.4,41.8,10c0.5,0.4,1.3,0.3,1.7-0.2c0.4-0.5,0.8-1.3,0.8-2.6c1.4-0.8,1.5-3.3,1.1-4
							C499.7,212.8,499.8,211.7,499.3,211.5z"/>
						<path class="st40" d="M486,220.7c0.3-4,2.2-4.9,2.2-4.9c1.4-0.6,3.3,0,4.3,1.3c0.8,1,0.7,2.2,0.7,3c-0.1,1.5-0.7,2.6-1.5,4.1
							c-0.6,1.1-0.9,1.6-1.6,2.2c-1.2,1-2.6,1.2-3.4,1.3c-0.1-0.1-0.3-0.1-0.4-0.3c-0.7-0.8-0.4-2-0.3-5.7
							C485.9,221.6,486,221.2,486,220.7z"/>
					</g>
					<path class="st41" d="M460.8,239c-0.1-0.9,1.5-1.8,2.7-2.1c2.1-0.4,4.6,0.7,4.6,1.8c0,1-2.1,2-4,2
						C462.8,240.7,460.9,240,460.8,239z"/>
					<g>
						<path class="st21" d="M461.7,223.3c-1.2-2.1-3.2-2.6-4.1-2c-0.6,0.4-0.8,1.5-0.6,2.6C458,226.1,460.1,225.7,461.7,223.3z"/>
						
							<ellipse transform="matrix(0.9615 -0.2747 0.2747 0.9615 -43.7068 134.6126)" class="st47" cx="458.7" cy="223.3" rx="1.3" ry="2"/>
						<ellipse transform="matrix(0.9615 -0.2747 0.2747 0.9615 -43.7386 134.5376)" cx="458.4" cy="223.4" rx="0.7" ry="1"/>
						
							<ellipse transform="matrix(0.9615 -0.2747 0.2747 0.9615 -43.5241 134.6096)" class="st21" cx="458.8" cy="222.7" rx="0.2" ry="0.3"/>
						<path class="st48" d="M457,223.9c-0.2-1,0.2-1.9,0.8-2.3c1-0.7,2.3,0.2,2.7,0.4c0.7,0.4,1,1,1.2,1.3c-0.2-0.4-0.5-1.1-1.3-1.7
							c-0.2-0.1-1.9-1.3-3-0.5C456.7,221.7,456.5,222.8,457,223.9z"/>
					</g>
					<path class="st41" d="M461.2,233.5c-0.1,0.2,0.7,1,1.7,1.2c1.7,0.3,3.2-1.4,3.2-1.5c-0.1-0.1-1.2,0.8-2.9,0.8
						C462,233.9,461.3,233.4,461.2,233.5z"/>
					<g>
						<path d="M475.2,217.2c-0.6-0.5-1.5-1-2.6-1.4c0,0,0,0,0,0c-0.6-0.2-1.3-0.2-2,0c-1.5,0.5-3.1,1-4.6,1.5
							c-0.1,0.2-0.2,0.5-0.2,0.8c0,0.3,0.1,0.6,0.1,0.7c1.8-0.6,3.6-1.1,5.4-1.7c0.4-0.1,0.8-0.2,1.2-0.1
							C473.4,217,474.3,217.1,475.2,217.2z"/>
					</g>
					<g>
						<path d="M455.1,218c0.2,0,0.3,0,0.5,0.1l5.2,1.4c0.1-0.2,0.1-0.4,0.1-0.7c0-0.4-0.1-0.7-0.2-0.8c-1.5-0.4-3-0.8-4.5-1.2
							c-0.3-0.1-0.7-0.1-1-0.1c0,0.2-0.1,0.4-0.1,0.6C455.1,217.5,455.1,217.7,455.1,218z"/>
					</g>
					<g>
						<path class="st21" d="M466.9,223c0.2,0.2,0.5,0.4,1,0.6c1,0.4,1.8,0.3,2.3,0.2c1.7-0.3,2.9-1.3,3.3-1.8
							c-0.3-0.4-1.3-1.8-3-2.1c-0.5-0.1-1.4-0.3-2.2,0.2C466.8,221,466.9,222.9,466.9,223z"/>
						<g>
							<path class="st47" d="M468.1,222.3c0.2,1,1.1,1.6,1.9,1.4c0.8-0.2,1.3-1.2,1-2.1c-0.2-1-1.1-1.6-1.9-1.4
								C468.3,220.4,467.8,221.3,468.1,222.3z"/>
							<path d="M468.5,222.2c0.1,0.5,0.5,0.8,1,0.7c0.4-0.1,0.6-0.6,0.5-1.1c-0.1-0.5-0.5-0.8-1-0.7
								C468.6,221.3,468.4,221.7,468.5,222.2z"/>
							<path class="st21" d="M469.3,221.4c0,0.2,0.2,0.3,0.3,0.2c0.1,0,0.2-0.2,0.2-0.3c0-0.2-0.2-0.3-0.3-0.2
								C469.4,221.1,469.3,221.2,469.3,221.4z"/>
							<path d="M466.9,223c0-0.3,0.3-1.8,1.6-2.5c1.5-0.8,3.7-0.3,5,1.5C473.3,220.9,467.7,216,466.9,223z"/>
						</g>
					</g>
					<g>
						<path d="M487.6,229.5c0.5,0,0.7-1.1,0.6-2l-0.4,0.1c0.1,1-0.2,1.6-0.3,1.6c-0.1,0-0.4-0.5-0.5-1.6c-0.1-1,0.2-1.6,0.3-1.6
							c0.1-0.1,0.1-0.2,0-0.4c-0.5,0-0.7,1.1-0.6,2S487.1,229.5,487.6,229.5z"/>
					</g>
					<path class="st42" d="M493.5,246.9c-0.4-0.2-0.9,0-1,0.5c-0.7,3.2-2.7,10.4-9.3,15.1c-2.2,1.6-4.5,2.5-6.3,3.1
						c1.1,2.7,1.8,4.9,2.3,6.5c0.3,1.2,0.5,1.9,1,2.1c1.2,0.5,3.2-1.9,4.9-4.1c2.1-2.7,4.9-6.2,8.2-10.5c0.9-1.5,1.8-3.1,2.7-4.9
						c0.9-1.8,1.7-3.5,2.3-5.2c-1-0.5-2-1.1-3-1.7C494.7,247.6,494.1,247.3,493.5,246.9z"/>
					<g>
						<path d="M476.3,262.6c4-0.1,7-3.2,9.5-5.8c1.9-2,4.5-5.2,6.8-9.8c-0.1-0.1-0.1-0.2-0.2-0.4c-0.1-0.2-0.3-0.4-0.4-0.5
							c-2.6,5.7-6.1,9.3-8.3,11.3c-3,2.8-6.2,4.9-9.2,3.9c-2.7-0.9-4.4-4.3-4.7-8.4c-0.1,0.2-0.2,0.4-0.3,0.6
							c-0.1,0.2-0.1,0.4-0.2,0.6c0.1,0.7,0.8,6.7,4.8,8.1C475,262.6,475.7,262.6,476.3,262.6z"/>
					</g>
				</g>
			</g>
			<g>
				<path class="st40" d="M204.2,318.3c3.5-1.5,6.6-3.1,9.3-4.6c0.5,0.9,1.1,1.7,1.6,2.6c5.6-3,11.6-6.6,17.9-10.7
					c6.3-4.2,11.9-8.5,16.9-12.5c1.5,1.1,3,2.4,4.6,3.7c1.5,1.2,2.8,2.5,4.1,3.7c-6.7,7.3-12.7,13.7-18.2,19.6
					c-1.5,1.7-8.6,9.2-15.9,14.8c-0.2,0.2-0.6,0.5-1.3,1c-4.9,3.6-9.1,6.4-12.6,8.5c-2,1.2-4.7,0.7-6.1-1.2
					c-2.6-3.5-4.5-5.6-8.6-12.9c-1.3-2.3-2.8-4.8-4.7-7.5C195.1,321.7,199.5,320.3,204.2,318.3z"/>
				<g>
					<g>
						<path class="st40" d="M250.1,292.5c0,0,2.2-3,2.9-5.4c0.2-0.6,0.4-1.3,0.4-1.3c0.3-1,0.4-1.9,0.5-2.5c1.1-0.3,2.4-0.8,3.9-1.6
							c1.7-0.9,3.1-1.9,4.1-2.8l1.4-0.8c13.7-9.3,17.5-10.4,18.4-9.5c0.1,0.1,0.5,0.6,0.5,1.2c0.1,1.2-1.3,2.2-2.8,3.2
							c-3.4,2.3-6.5,4.2-7.4,4.8c0.8-0.4,1.7-0.3,2.4,0.2c0.9,0.6,1.2,1.8,0.7,2.9c0.2,0.1,0.9,0.5,1.2,1.3c0.4,1.1-0.1,2-0.2,2.1
							c0.3,0.5,0.7,1.4,0.7,2.6c-0.1,2.7-2.5,4.2-2.7,4.4c-2,2.2-5.3,5.1-10,7.2c-2,0.9-3.9,1.5-5.6,1.9c-2,1.8-4.1,3.7-6.1,5.5
							c-2.6-2.5-5.2-5-7.9-7.5C246.4,296.4,248.2,294.5,250.1,292.5z"/>
						<g>
							<path class="st41" d="M270.4,291.2c-1-0.9-0.6-2.8-0.5-2.8c0.1,0,0.3,0.3,0.3,0.9c0,0.2,0.1,0.8,0.5,1.3
								c0.8,0.9,2,0.8,2.1,0.8c-0.1,0.1-0.3,0.2-0.5,0.3C271.5,291.8,270.8,291.6,270.4,291.2z"/>
							<path class="st41" d="M268.8,288.3c-0.8-0.5-1.5-3-0.3-3.2c0.6,0.5-0.7,1.8,1,2.9c1.1,0.6,2.4-0.1,3.3-0.8
								c0.5-0.4,1-0.9,1.5-1.3c-1.1,2-2.8,3.2-4.4,3C269.7,288.7,269.3,288.6,268.8,288.3z"/>
							<path class="st41" d="M266.8,285c-0.4-0.5-0.5-1-0.5-1.3c-0.1-1.5,1-2.6,1.3-2.9c0.4-0.3,0.9-0.7,1.5-1
								c0.2-0.1,0.5-0.2,0.5-0.2c0.1,0.1-1.1,0.6-1.9,1.7c-0.2,0.3-1.2,1.7-0.7,2.7c0.4,0.6,1.3,0.9,1.8,0.8c0.2,0,0.6-0.1,1-0.3
								c0,0,0,0,0,0c0.7-0.5,3-2.5,3.1-2.4c0.1,0.1-1.3,1.8-3.1,3c-0.3,0.2-0.8,0.5-1.4,0.5C268.1,285.7,267.3,285.6,266.8,285z"/>
							<path class="st41" d="M259.5,291.1c0.9-1.4,2.5-4.3,2.7-8.2c0.1-1.6-0.1-2.9-0.4-4c0.1-0.1,0.3-0.2,0.4-0.3
								c0.4,1.1,1.3,4.3,0,8C261.5,288.7,260.3,290.2,259.5,291.1z"/>
						</g>
					</g>
					<path class="st40" d="M260.7,276.9c0,0.1-0.1,1.1,0.5,1.7c0.2,0.2,0.4,0.2,0.5,0.3c-1.3,1-2.6,2-4,3.1c-1.4,1-2.8,2.1-4.1,3
						c0-2,1.2-6,1.5-7.2c0.5-1.5,2.8-8,2.7-9.5c0-0.1,0-0.6,0.2-1.1c0.2-0.3,0.5-0.6,0.8-0.6c0.2,0,0.4,0.1,0.5,0.2
						c0.9,0.5,2,3.6,2.1,3.9c0,0.8,0,1.6-0.1,2.6C261.4,274.7,261.1,275.9,260.7,276.9z"/>
				</g>
				<g>
					<path class="st42" d="M127.1,335.5c-15.8,33.8-19.6,65.7-20.4,98.6c1.4-2.4,7.7-6.3,19.7-0.7"/>
					<g>
						<g>
							<path d="M143.5,557.9c-1.3,1-2.7,4.3-0.9,6.3c1.7,2,28.3,8.3,35,8.6c3.4,0.2,7.1-0.8,8.9-3c1-1.2,0.6-3-0.8-3.7
								c-3.9-2-12.2-5-13.1-5.3C171.6,560.5,143.5,557.9,143.5,557.9z"/>
							<path class="st40" d="M145.2,553.9c-1.6,3.1-1.4,5.2-1,6.5c0.6,1.8,2.3,5.1,31.9,9.2c2.3,0.3,4.6,0.1,6.7-0.6
								c1.3-0.4,2.6-0.8,3.1-1.9c0.4-0.8,0.2-1.5,0.2-1.7c-0.2-0.9-0.8-1.6-1.7-2.1c-0.5-0.2-0.9-0.5-1.4-0.8
								c-0.3-0.2-0.5-0.3-0.7-0.4c-2-1.2-4.1-2.4-6.1-3.6c-2.2-1.4-4.4-2.9-6.5-4.6c-2.4-2-3.9-3.4-5-5.6c-1.6-3.3-1.1-6.5-0.8-8
								c2.6-16.9,4.3-34,6.6-51c0.7-4.7,1.5-11.6,1.8-20.2c-7,0-14,0-21,0c-0.8,2.3-1.8,5.5-2.7,9.4c-2.5,10.7-2.9,20-2.8,26.2
								c0.3,11.6,2.5,23.8,2.7,34.2c0.1,3.4-0.2,5.6-0.9,8.2C147,550.1,145.9,552.4,145.2,553.9z"/>
							<path d="M167.2,570.3c0.6-1.3,3.1-6.6,8.9-8.6c1.7-0.6,3.3-0.7,4.6-0.7c-0.7-0.7-1.6-1.4-2.5-2.1c-2.1-1.5-4.2-2.5-5.9-3.2
								c-1.6,0.3-3.7,0.9-5.9,2.1c-5.3,3-7.8,7.6-8.7,9.6C160.8,568.4,164,569.4,167.2,570.3z"/>
						</g>
						<g>
							<path d="M113.1,560.5c-1.3,1-2.7,4.3-0.9,6.3c1.7,2,28.3,8.3,35,8.6c3.4,0.2,7.1-0.8,8.9-3c1-1.2,0.6-3-0.8-3.7
								c-3.9-2-12.2-5-13.1-5.3C141.1,563.1,113.1,560.5,113.1,560.5z"/>
							<path class="st40" d="M114.7,556.5c-1.6,3.1-1.4,5.2-1,6.5c0.6,1.8,2.3,5.1,31.9,9.2c2.3,0.3,4.6,0.1,6.7-0.6
								c1.3-0.4,2.6-0.8,3.1-1.9c0.4-0.8,0.2-1.5,0.2-1.7c-0.2-0.9-0.8-1.6-1.7-2.1c-0.5-0.2-0.9-0.5-1.4-0.8
								c-0.3-0.2-0.5-0.3-0.7-0.4c-2-1.2-4.1-2.4-6.1-3.6c-2.2-1.4-4.4-2.9-6.5-4.6c-2.4-2-3.9-3.4-5-5.6c-1.6-3.3-1.1-6.5-0.8-8
								c2.6-16.9,4.3-34,6.6-51c0.7-4.7,1.5-11.6,1.8-20.2c-7,0-14,0-21,0c-0.8,2.3-1.8,5.5-2.7,9.4c-2.5,10.7-2.9,20-2.8,26.2
								c0.3,11.6,2.5,23.8,2.7,34.2c0.1,3.4-0.2,5.6-0.9,8.2C116.5,552.7,115.5,555,114.7,556.5z"/>
							<path d="M136.7,572.9c0.6-1.3,3.1-6.6,8.9-8.6c1.7-0.6,3.3-0.7,4.6-0.7c-0.7-0.7-1.6-1.4-2.5-2.1c-2.1-1.5-4.2-2.5-5.9-3.2
								c-1.6,0.3-3.7,0.9-5.9,2.1c-5.3,3-7.8,7.6-8.7,9.6C130.4,571,133.6,572,136.7,572.9z"/>
						</g>
						<path class="st21" d="M186,400.8c0.2,19.6-0.4,35.2-1,46c0,0-0.4,7.3-3.3,26.2c-0.7,4.8-1.6,9.9-4.4,16
							c-1.9,3.9-3.8,7.9-7.4,10.7c-8.9,6.9-22.3,2.2-24.3,1.4c-0.1-1.5-0.2-3.1-0.2-4.7c-0.1-4.8,0-9.3,0.3-13.5
							c-1.9,6.2-3.8,12.4-5.6,18.7c-1.4,0.6-11.6,4.9-21-0.5c-3.9-2.2-6.2-5.3-7.5-7.3c-2.5-12.6-4.5-27.8-4.6-45
							c-0.2-26.3,4-48.4,8.5-64.8c10.2-0.1,23.7,0.8,39,4.8C167.4,392,177.9,396.6,186,400.8z"/>
						<g>
							<path class="st20" d="M145.7,466.4c-3.6,8.5-13.3,14.3-22.5,13.4C131.3,476.2,138.6,471.9,145.7,466.4L145.7,466.4z"/>
						</g>
						<g>
							<path class="st20" d="M147.1,471c-1,9.2-8.6,17.5-17.7,19.4C136.2,484.5,141.9,478.3,147.1,471L147.1,471z"/>
						</g>
						<g>
							<path class="st20" d="M143.3,457.9c-2.1,7.8-11.1,13.3-18.9,11.3C131.5,466.6,137.5,462.9,143.3,457.9L143.3,457.9z"/>
						</g>
						<g>
							<path class="st20" d="M154.5,470.8c4,5.7,9.3,9.2,15.3,12.6C162.5,484.6,154.2,478.4,154.5,470.8L154.5,470.8z"/>
						</g>
						<g>
							<path class="st20" d="M158,464.5c3.6,5.4,8.5,8.7,13.2,13.1C164.6,477.4,157.3,471.6,158,464.5L158,464.5z"/>
						</g>
						<g>
							<path class="st20" d="M151.4,474.5c2.7,6.1,7.3,10.2,11.3,15.4C156.1,488.5,149.5,481.5,151.4,474.5L151.4,474.5z"/>
						</g>
						<path class="st43" d="M145.8,400.1c-0.9,23-1.7,46.1-2.6,69.1c0.4,0.9,1.9,4,5,5.1c3.6,1.3,7.9-0.7,10.7-5
							c3.2-16.7,5.4-36.5,5.1-58.5c-0.1-5.7-0.3-11.2-0.7-16.5C157.4,396.2,151.6,398.1,145.8,400.1z"/>
					</g>
					<g>
						<path class="st44" d="M214.3,311.3c-8.3,4.3-16.6,8.6-24.9,12.9c-6.7-14.6-13.3-29.1-20-43.7c1.3-2.5,4.1-7.3,9.6-11.1
							c3.7-2.5,7.2-3.8,9.7-4.4c0.2,0.2,0.4,0.4,0.6,0.7c0.3,0.4,0.5,0.7,0.7,1c3.6,6.8,7.2,13.6,11,20.4
							C205.4,295.3,209.9,303.4,214.3,311.3z"/>
						<path class="st42" d="M212.2,303.4c-3.5,2-7.2,3.9-11.2,5.8c-6.4,3.1-12.5,5.6-18.3,7.6c2.2,3.3,4.4,6.5,6.6,9.8
							c5.3-2.2,10.8-4.6,16.4-7.2c4.2-2,8.2-4,12-5.9C216,310.1,214.1,306.8,212.2,303.4z"/>
					</g>
					<path class="st40" d="M176.4,271.6c-0.9,12.9-14.2,21.9-26.6,21c-12.7-0.9-24.6-12.3-23.3-24.7c1.2-11.5,13.3-17.4,14.2-17.8
						c2.2-1.1,9.2-4.2,17.4-2.1C168.1,250.6,177.1,260.3,176.4,271.6z"/>
					<path class="st44" d="M115.4,367.7c-2,10.4-3.8,21.4-5.4,33.1c-1.5,11.6-2.6,22.7-3.3,33.3c-0.3,0-1,0-1.8-0.3
						c-0.9-0.4-1.4-1.1-1.5-1.4c4.2-26.8,8.4-53.5,12.5-80.3"/>
					<path class="st44" d="M188.3,435.2c-8.3,2.6-21.6,5.6-33.2,6.2c-18.9,0.9-34.3-3.2-43.9-6.7c0.7-10.4,1.6-19.5,2.3-26.9
						c2.6-24.6,5.2-39.7,6-43.8c0.6-3.1,1.1-5.6,1.4-7.3c1-4.5,2.3-8.9,3.2-13.4c1-5.4,0.8-10.6-0.2-15.7c-1.2-5.6-3.4-11-6.2-16.2
						c-4.1-7.6-5.2-11-5.6-13.3c-0.4-2.4-0.6-4.2-0.6-5.2c-0.1-0.9-0.1-1.9-0.1-2.9c-0.4-9.6-0.5-21.3-0.5-26.2
						c0.1-1,0.5-2.4,1.3-3.8c1.6-2.7,4.6-5,19.1-8.4c2.3-0.6,5.5-1.3,9.3-2c0.7-0.3,1.4-0.6,2.1-0.9c1.1-0.5,2.1-1.1,3-1.6
						c0.1,0.8,0.2,1.8,0.5,3.1c0,0,0.9,3.6,3.2,6.9c4,5.7,11.2,8.2,12.3,8.6c0.8,2.8,1.6,5.9,2.1,9.3c0.3,1.9,0.5,3.8,0.7,5.5
						c0.6-4.6,1.2-9.2,1.8-13.8c0.9-0.7,2-1.9,2.8-3.6c2.2-4.6,0.2-9-0.2-10c4.3,3.1,8.2,5.1,10.8,6.5c3.8,2,7.3,3.6,9.2,5.5
						c0.9,0.9,1.4,1.8,1.5,2.9c0,0.6,0,1-0.1,1.3c-2.1,19.3-3.6,35.4-4.6,47.2c-2.2,24.5-2.4,28.7-2,32.7c1.6,18.1,2.7,26.9,3.8,40
						c0.7,8.4,1.1,12.6,1.3,17.9c0,0.9,0.1,1.8,0.1,2.6C189,419.5,188.8,428.1,188.3,435.2z"/>
					<g>
						<path class="st42" d="M166.1,266.6c-0.3,6.6-1.2,13.5-1.5,20.1c-0.4,6.7-0.7,13.4-0.9,20.2l-0.4-0.3c2,0.1,4,0.1,6,0.3
							c-2,0.2-4,0.3-6,0.4c0,0-0.3,0-0.3,0s0-0.4,0-0.4C162.2,293.4,163.4,279.8,166.1,266.6L166.1,266.6z"/>
					</g>
					<path class="st42" d="M167.3,300.1c0.2,0.3,0.1,0.8,0,1.1c-0.3,0.5-0.8,0.7-1.3,0.5c-0.3-0.1-0.6-0.5-0.6-1
						c0-0.6,0.4-1,0.8-1.1C166.6,299.4,167,299.6,167.3,300.1z"/>
					<path class="st42" d="M167.9,289.7c0.2,0.3,0.1,0.8,0,1.1c-0.3,0.5-0.8,0.7-1.3,0.5c-0.3-0.1-0.6-0.5-0.6-1
						c0-0.6,0.4-1,0.8-1.1C167.2,289,167.6,289.2,167.9,289.7z"/>
					<path class="st42" d="M168.3,278.9c0.2,0.3,0.1,0.8,0,1.1c-0.3,0.5-0.8,0.7-1.3,0.5c-0.3-0.1-0.6-0.5-0.6-1
						c0-0.6,0.4-1,0.8-1.1C167.6,278.3,168.1,278.4,168.3,278.9z"/>
					<path class="st45" d="M181.9,262.3c-0.3-3.9-3.1-4.3-4-4c-0.8-1.9-2.3-2.7-3.9-2c-0.3-1.3-2.8-2.4-3.5-1.8
						c0,6.3-2.3,67.4-9.2,89.8c-0.4,2,11.7,8.7,16.3,4.9C178.2,346.3,184.9,279.9,181.9,262.3z"/>
					<path class="st40" d="M110.6,384.2c0.6,2.1,1.2,4.3,1.7,6.4c-0.4,1.7-0.9,4.2-0.9,7.1c0,1.7-0.3,3.9,0.8,6.3
						c1.7,3.8,2.3,6.3,5,7.7c0.4,0.5,1,1.1,2,1.7c1.3,0.7,2.5,0.9,3.2,0.9c5.1,1,6.6,0.6,6.8,0c0.2-0.5-0.2-1.4-0.8-2
						c-0.5-0.5-1.1-0.6-1.6-0.8c-1.5-0.6-2.3-1.8-2.8-2.5c-1.5-2.2-1.3-4.6-1.2-5.4c0.1-0.5,0.4-3.4,1.3-3.5c0.2,0,0.6,0.1,1.1,1
						c0.2,1,0.5,2.2,1.1,3.6c0.4,0.9,0.8,1.7,1.2,2.3c0.2,0.2,2.7,2.4,3.7,2.4c0.2,0,0.4,0,0.5-0.1c0.3-0.2,0.5-0.6,0.4-0.9
						c0-0.6-0.3-1-0.3-1.1c-0.8-1.2-1.9-8.1-2.2-9.6c-0.5-2.5-2-6.2-6.4-10.9c0-2.3-0.1-4.5-0.1-6.8
						C118.9,381.3,114.8,382.7,110.6,384.2z"/>
					<path class="st40" d="M132.5,277.5c2.5,14.1-3,34.6-3.8,37.3c-1.5,5.2-3.8,12.5-7.3,21c0.5,7.2,0.9,14.6,1.2,22.1
						c0.4,9.9,0.6,19.4,0.6,28.7c-1.9,0.7-3.7,1.4-5.6,2.1c-1.8,0.6-3.6,1.3-5.3,1.9c-2.4-8.1-5.4-19.5-7.9-33.4
						c-1.9-10.1-2.9-15.7-3.4-23.4c-0.5-7.4,4.1-21.1,5.7-48.9c0,0,2.1-15.9,9.9-21.8c1.6-1.2,3.1-1.2,3.1-1.2
						c1.2,0,2.3,0.5,3.5,1.4C125,264.7,130.7,267.5,132.5,277.5z"/>
					<path class="st44" d="M98.4,324c3.6,1.4,7.9,2.8,12.8,3.9c6.8,1.5,13,2,18,2.1c3.3-11.8,5.7-22,7.3-29.8
						c2.7-13.1,3.2-18.5,1.9-24.8c-0.5-2.6-3.6-16.6-11.2-18.2c-2.8-0.6-7.2,0.3-9.2,0.7c-2.5,0.5-4.5,1.2-5.9,1.7
						c-0.9,2.6-2.4,6.9-3.9,12.2c-2.8,9.9-3.6,16.3-6.7,34C100.9,309.9,99.8,316.2,98.4,324z"/>
					<path class="st42" d="M98.8,315.4c4.6,1,9.4,2,14.5,2.9c6.4,1.1,12.6,1.9,18.4,2.5c-0.9,3.7-1.9,7.4-2.8,11.1
						c-4.5,0.3-10.5,0.2-17.4-1.1c-6.1-1.2-11.1-3-15-4.7C97.3,322.5,98,318.9,98.8,315.4z"/>
					<path class="st42" d="M166.1,266.6c0.8-0.8,2.5-2.7,3.3-5.5c1.1-3.9-0.3-7.1-0.7-8.1c0.6,0.4,1.3,0.7,1.9,1.1
						c0.7,0.3,0.9,2.9,1,3.7c0.4,2.6,0,3.4-0.7,10.3c-0.2,2-0.3,3.6-0.8,3.6c-0.3,0-0.4-1-1.6-2.4c-0.4-0.5-0.6-0.8-1-1
						c-0.6-0.5-1.1-0.7-1.3-1.3C166.2,266.9,166.1,266.7,166.1,266.6z"/>
					<g>
						<path class="st40" d="M169.2,257.7c-7.5,5.8-26-8.4-25.3-8.9c4.7-3,4.5-10.9,3.7-17.8c-0.3-2.7-0.7-5.2-1-7.2
							c4.6-1.4,16.7-0.9,21.5,8c1.8,3.3,2.5,7.8,1.4,13.9c-0.5,1.1-0.9,2.1-1,3.1c0,0,0,0,0,0.1C168,253.2,169.8,256.8,169.2,257.7z
							"/>
						<path class="st46" d="M169.7,245.8c-0.5,1.1-0.9,2.1-1,3.1c0,0,0,0,0,0.1c-0.8-0.2-1.9-0.5-3.1-1c-1-0.4-2.4-0.9-4.2-1.9
							c-2.3-1.2-4.2-2.3-5.6-4.4c-0.7-1-0.9-1.8-1.4-3.2c-0.6-1.7-1.2-4.1-1.4-7.3c4.7-3.1,10.5-3.2,14.2-0.3c0.4,0.3,0.8,0.7,1.1,1
							C170,235.3,170.8,239.8,169.7,245.8z"/>
						<path class="st40" d="M183.3,218.9c0,0.1,0,0.2,0,0.3c-0.1,0.5-0.2,1-0.5,1.4c0,0-0.2,0.3-0.7,1.7c-0.3,0.7-0.6,4.4-0.7,9.5
							c0,0.9-0.1,2.1-0.5,3.8c-0.4,2-1.1,5.3-3.5,8.5c-0.6,0.8-1.4,1.8-2.7,2.8c-0.5,0.4-1.1,0.6-1.8,0.6c-0.6,0-1.3-0.1-2-0.3
							c-0.1,0-0.4-0.1-0.7-0.2c-1.9-0.4-4.1-1-6.5-1.8c-1.4-0.5-3.2-1.1-4.4-1.7c-2.7-1.3-4.7-3.9-5.2-6.9c-0.5-1.8-0.6-3.6-1-5.5
							c-0.2-1.1-0.3-2.3-0.5-3.4c0-0.1-0.1-0.1-0.1-0.1c-0.2-0.1-0.3-0.1-0.7-0.1c-3.4-0.6-5.6-5-6.2-6.2
							c-2.5-5.1-3.4-15.7,3.4-21.8c4.4-3.9,9.8-3.9,12.7-3.9c4.3-0.1,22.1,2.5,21.3,17.7c-0.1,1.2,0,2.4,0.1,3.6
							c0,0.2,0,0.3,0.1,0.5c0,0.1,0,0.2,0,0.2C183.3,218.1,183.3,218.5,183.3,218.9z"/>
						<path d="M151.6,220.3c1.2,0.9,0.6,2.2,0.7,2.6c0.4,0.3,1.6,0.7,1.9,1c0-1.1,0.1-2.2,0.1-3.3c0.1-1.4,0.6-2.2,1-2.8
							c0.5-0.7,1-0.9,2.1-1.9c0,0,0.9-0.8,1.7-1.8c2.1-2.7,3-5.6,3.3-6.7c0.2-0.6,0.3-1.2,0.3-1.5c0.8,0,1.9,0,3.3,0.1
							c2.1,0.2,3.6,0.5,4.1,0.6c5.7,1.1,9.1-1.2,11.5,0.6c0.9,0.7,1.8,2.3,1.6,5.9c2.2-5.4,1.3-9,0.8-10.5
							c-3.3-9.7-19.3-14.1-29.2-8.9c-2.8,1.4-4.6,3.4-5.6,4.7c-2.8,0.7-4.3,1.9-5.2,2.7c-3.9,3.8-3.6,10.4-3.3,16.2
							c0,0.9,0.2,1.8,0.2,1.8c0.3,1.8,0.7,3,0.9,3.4c1.1,3.1,2.7,12,3.9,15c0.1,0.4,0.4,1,1.1,1.4c0.5,0.3,1,0.3,1.3,0.2
							c0.5-4.6,0.2-7.9-0.1-10c0,0,0,0,0-0.1c-0.1-0.7-0.4-2.9-0.6-4.9c-0.2-2.6-0.3-3.8,0.1-4.3
							C148.3,219.1,150.3,219.3,151.6,220.3z"/>
						<path id="XMLID_00000167378195107576952990000012376014234319193758_" class="st45" d="M139.1,211.5
							c25.4-12.6,39.4-11.2,44.2-10.8c0.8,0.2,2,1.6,1.9,4.2c1.1,1.5,1.5,3.6,0.3,4.6c0,0,0,0.1,0,0.1c0.1,0.6-0.4,1.2-1.1,1.2
							c-5.2,0.5-17.9-3.4-41.8,10c-0.5,0.4-1.3,0.3-1.7-0.2c-0.4-0.5-0.8-1.3-0.8-2.6c-1.4-0.8-1.5-3.3-1.1-4
							C138.7,212.8,138.6,211.7,139.1,211.5z"/>
						<path class="st40" d="M152.4,220.7c-0.3-4-2.2-4.9-2.2-4.9c-1.4-0.6-3.3,0-4.3,1.3c-0.8,1-0.7,2.2-0.7,3
							c0.1,1.5,0.7,2.6,1.5,4.1c0.6,1.1,0.9,1.6,1.6,2.2c1.2,1,2.6,1.2,3.4,1.3c0.1-0.1,0.3-0.1,0.4-0.3c0.7-0.8,0.4-2,0.3-5.7
							C152.5,221.6,152.4,221.2,152.4,220.7z"/>
					</g>
					<path class="st41" d="M177.6,239c0.1-0.9-1.5-1.8-2.7-2.1c-2.1-0.4-4.6,0.7-4.6,1.8c0,1,2.1,2,4,2
						C175.6,240.7,177.5,240,177.6,239z"/>
					<g>
						<path class="st21" d="M176.7,223.3c1.2-2.1,3.2-2.6,4.1-2c0.6,0.4,0.8,1.5,0.6,2.6C180.4,226.1,178.3,225.7,176.7,223.3z"/>
						
							<ellipse transform="matrix(0.2747 -0.9615 0.9615 0.2747 -84.4297 334.7556)" class="st47" cx="179.7" cy="223.3" rx="2" ry="1.3"/>
						<ellipse transform="matrix(0.2747 -0.9615 0.9615 0.2747 -84.2971 335.0833)" cx="180" cy="223.4" rx="1" ry="0.7"/>
						
							<ellipse transform="matrix(0.2747 -0.9615 0.9615 0.2747 -83.8594 334.2038)" class="st21" cx="179.6" cy="222.7" rx="0.3" ry="0.2"/>
						<path class="st48" d="M181.5,223.9c0.2-1-0.2-1.9-0.8-2.3c-1-0.7-2.3,0.2-2.7,0.4c-0.7,0.4-1,1-1.2,1.3
							c0.2-0.4,0.5-1.1,1.3-1.7c0.2-0.1,1.9-1.3,3-0.5C181.7,221.7,181.9,222.8,181.5,223.9z"/>
					</g>
					<path class="st41" d="M177.2,233.5c0.1,0.2-0.7,1-1.7,1.2c-1.7,0.3-3.2-1.4-3.2-1.5c0.1-0.1,1.2,0.8,2.9,0.8
						C176.4,233.9,177.1,233.4,177.2,233.5z"/>
					<g>
						<path d="M163.2,217.2c0.6-0.5,1.5-1,2.6-1.4c0,0,0,0,0,0c0.6-0.2,1.3-0.2,2,0c1.5,0.5,3.1,1,4.6,1.5c0.1,0.2,0.2,0.5,0.2,0.8
							c0,0.3-0.1,0.6-0.1,0.7c-1.8-0.6-3.6-1.1-5.4-1.7c-0.4-0.1-0.8-0.2-1.2-0.1C165,217,164.1,217.1,163.2,217.2z"/>
					</g>
					<g>
						<path d="M183.3,218c-0.2,0-0.3,0-0.5,0.1l-5.2,1.4c-0.1-0.2-0.1-0.4-0.1-0.7c0-0.4,0.1-0.7,0.2-0.8c1.5-0.4,3-0.8,4.5-1.2
							c0.3-0.1,0.7-0.1,1-0.1c0,0.2,0.1,0.4,0.1,0.6C183.3,217.5,183.3,217.7,183.3,218z"/>
					</g>
					<g>
						<path class="st21" d="M171.5,223c-0.2,0.2-0.5,0.4-1,0.6c-1,0.4-1.8,0.3-2.3,0.2c-1.7-0.3-2.9-1.3-3.3-1.8
							c0.3-0.4,1.3-1.8,3-2.1c0.5-0.1,1.4-0.3,2.2,0.2C171.6,221,171.5,222.9,171.5,223z"/>
						<g>
							<path class="st47" d="M170.3,222.3c-0.2,1-1.1,1.6-1.9,1.4c-0.8-0.2-1.3-1.2-1-2.1s1.1-1.6,1.9-1.4
								C170.1,220.4,170.6,221.3,170.3,222.3z"/>
							<path d="M169.9,222.2c-0.1,0.5-0.5,0.8-1,0.7c-0.4-0.1-0.6-0.6-0.5-1.1c0.1-0.5,0.5-0.8,1-0.7S170.1,221.7,169.9,222.2z"/>
							<path class="st21" d="M169.1,221.4c0,0.2-0.2,0.3-0.3,0.2c-0.1,0-0.2-0.2-0.2-0.3s0.2-0.3,0.3-0.2
								C169,221.1,169.1,221.2,169.1,221.4z"/>
							<path d="M171.5,223c0-0.3-0.3-1.8-1.6-2.5c-1.5-0.8-3.7-0.3-5,1.5C165.1,220.9,170.7,216,171.5,223z"/>
						</g>
					</g>
					<g>
						<path d="M150.8,229.5c-0.5,0-0.7-1.1-0.6-2l0.4,0.1c-0.1,1,0.2,1.6,0.3,1.6c0.1,0,0.4-0.5,0.5-1.6c0.1-1-0.2-1.6-0.3-1.6
							c-0.1-0.1-0.1-0.2,0-0.4c0.5,0,0.7,1.1,0.6,2C151.6,228.5,151.3,229.5,150.8,229.5z"/>
					</g>
					<path class="st42" d="M144.9,246.9c0.4-0.2,0.9,0,1,0.5c0.7,3.2,2.7,10.4,9.3,15.1c2.2,1.6,4.5,2.5,6.3,3.1
						c-1.1,2.7-1.8,4.9-2.3,6.5c-0.3,1.2-0.5,1.9-1,2.1c-1.2,0.5-3.2-1.9-4.9-4.1c-2.1-2.7-4.9-6.2-8.2-10.5
						c-0.9-1.5-1.8-3.1-2.7-4.9c-0.9-1.8-1.7-3.5-2.3-5.2c1-0.5,2-1.1,3-1.7C143.7,247.6,144.3,247.3,144.9,246.9z"/>
					<g>
						<path d="M162.1,262.6c-4-0.1-7-3.2-9.5-5.8c-1.9-2-4.5-5.2-6.8-9.8c0.1-0.1,0.1-0.2,0.2-0.4c0.1-0.2,0.3-0.4,0.4-0.5
							c2.6,5.7,6.1,9.3,8.3,11.3c3,2.8,6.2,4.9,9.2,3.9c2.7-0.9,4.4-4.3,4.7-8.4c0.1,0.2,0.2,0.4,0.3,0.6c0.1,0.2,0.1,0.4,0.2,0.6
							c-0.1,0.7-0.8,6.7-4.8,8.1C163.4,262.6,162.7,262.6,162.1,262.6z"/>
					</g>
				</g>
			</g>
		</g>
	</g>
</g>
</svg>
