<?xml version="1.0" encoding="utf-8"?>
<!-- Generator: Adobe Illustrator 16.0.0, SVG Export Plug-In . SVG Version: 6.00 Build 0)  -->
<!DOCTYPE svg PUBLIC "-//W3C//DTD SVG 1.1//EN" "http://www.w3.org/Graphics/SVG/1.1/DTD/svg11.dtd">
<svg version="1.1" id="Layer_2" xmlns="http://www.w3.org/2000/svg" xmlns:xlink="http://www.w3.org/1999/xlink" x="0px" y="0px"
	 width="1080px" height="1080px" viewBox="0 0 1080 1080" enable-background="new 0 0 1080 1080" xml:space="preserve">
<path fill="#FEDEA6" d="M833.556,679.479c-44.733,7.32-78.081-8.132-90.281-30.501c-9.76-17.486,14.64-60.187,34.974-69.946
	c61.002-29.688,219.603-42.294,252.138-20.334C1027.944,591.639,904.316,667.278,833.556,679.479z"/>
<path fill="#F5C371" d="M949.458,546.091c-58.968,0.406-117.122,10.979-172.43,31.72c-21.147,10.574-45.547,53.681-35.38,71.575
	c6.507,12.2,18.3,21.552,33.754,27.247c18.707,6.507,39.04,7.725,58.56,4.066c44.328-10.168,86.622-28.06,124.849-52.867
	c34.568-21.148,71.982-50.429,73.203-69.135v-0.406l-0.815-0.406C1018.593,548.936,986.871,545.683,949.458,546.091L949.458,546.091
	z M813.628,680.292c-34.973,0.813-58.967-14.232-68.727-31.721c-8.947-16.266,14.233-58.153,34.16-67.914
	c28.467-13.826,80.114-24.808,136.236-29.28c54.494-4.474,97.6-1.221,113.054,8.133c-1.627,15.455-29.28,40.669-71.979,66.694
	c-37.821,24.399-79.302,41.888-123.224,52.056C826.643,679.479,820.136,680.292,813.628,680.292z"/>
<path fill="#F5C371" d="M744.494,650.604l-1.22-2.845l286.704-89.874l1.22,2.439L744.494,650.604z"/>
<path fill="#F5C371" d="M939.697,547.717l-20.334,45.141l4.066,0.813l19.928-44.735l-4.066-1.219H939.697z M907.57,598.958
	l-3.659-0.814l17.079-49.207l3.254,0.814l-16.268,48.801L907.57,598.958z M923.43,647.759l-81.335-28.468l1.627-2.441l81.334,28.469
	l-1.626,2.032V647.759z M795.329,633.932l-3.661-0.407l16.268-65.882l3.659,0.408L795.329,633.932z M879.103,667.278l-73.2-36.6
	l2.033-2.44l73.2,36.601L879.103,667.278L879.103,667.278z M951.085,582.69l-0.814,2.847c8.134,1.628,30.907,4.881,56.122,8.134
	l0.406-2.44L951.085,582.69L951.085,582.69z"/>
<path fill="#FEDEA6" d="M826.235,720.147c-38.634-17.488-47.987-45.956-36.194-69.135c9.354-17.488,65.881-36.195,89.468-32.535
	c71.169,9.761,196.017,82.555,198.457,115.496C1046.246,757.152,888.049,748.207,826.235,720.147z"/>
<path fill="#F5C371" d="M871.783,616.444c-27.247,0.814-74.828,17.894-83.369,34.568c-6.505,11.385-6.505,25.213-0.813,37.007
	c8.134,15.045,21.555,27.247,37.82,33.347c28.873,13.014,81.742,23.181,138.269,26.027c43.922,2.439,97.603,0.406,115.903-12.201
	l0.406-0.813v-0.406c-2.848-33.754-128.104-106.956-200.083-117.124L871.783,616.444L871.783,616.444z M1005.984,745.768
	c-13.013,0-27.247,0-42.294-0.815c-46.359-1.22-92.722-10.166-136.234-26.025c-39.448-17.895-46.361-46.361-35.788-67.103
	c8.947-17.079,64.254-35.38,87.435-32.533c32.534,4.881,80.115,23.588,124.443,49.208c43.105,25.213,70.761,50.021,72.794,65.066
	C1065.358,740.48,1039.738,744.952,1005.984,745.768L1005.984,745.768z"/>
<path fill="#F5C371" d="M1077.56,735.6l-287.925-82.555l1.22-2.441l287.925,82.557L1077.56,735.6L1077.56,735.6z"/>
<path fill="#F5C371" d="M1023.88,679.072l-56.121,22.773l1.626,2.439l56.121-22.772L1023.88,679.072z M953.931,699.813l-2.034-2.44
	l56.936-27.246l2.439,2.438L953.931,699.813z M919.771,743.732l-31.722-62.628l3.253-1.219l32.128,62.627L919.771,743.732z
	 M841.282,667.278l-2.44-2.033l72.388-39.854l2.033,2.034L841.282,667.278z M870.157,735.192l-18.707-65.066l4.065-0.406
	l18.301,65.066h-4.066L870.157,735.192z M999.477,710.387l-3.252,1.627c10.574,11.793,21.554,23.586,32.535,34.973l3.254-1.627
	C1016.965,729.905,1004.357,716.079,999.477,710.387z"/>
<path fill="#FEDEA6" d="M239.813,391.554c29.28,21.554,36.601,59.375,27.653,89.875c-7.319,24.401-49.613,52.055-67.507,48.801
	c-53.681-9.354-147.216-99.635-149.249-143.149C74.297,354.546,193.453,358.208,239.813,391.554L239.813,391.554z"/>
<path fill="#F5C371" d="M271.533,466.382c1.627-11.387,0.813-22.773-2.44-33.754c-4.473-17.08-14.233-31.721-28.467-42.294
	c-31.313-18.707-67.102-28.061-103.702-27.654c-33.347-0.813-74.015,4.88-87.435,23.18l-0.407,0.407v0.813
	c2.033,44.734,96.381,135.421,150.469,144.775c18.706,3.661,61.813-24.807,69.134-49.613
	C269.906,476.955,271.127,471.669,271.533,466.382z M51.93,387.487c11.387-13.827,43.92-21.96,84.588-21.147
	c41.887,1.221,81.335,11.794,102.482,27.249c24.806,17.893,32.533,47.58,29.687,73.2c-0.406,4.88-1.22,9.354-2.846,14.234
	c-6.506,23.181-47.987,50.428-65.475,47.174c-35.787-10.979-67.915-30.907-93.535-58.154
	C74.297,438.729,53.557,407.415,51.93,387.487z"/>
<path fill="#F9CF88" d="M49.896,388.301l1.22-3.66l216.757,94.349l-1.22,3.659L49.896,388.301z"/>
<path fill="#F9CF88" d="M133.671,424.089l-1.219-3.254l-42.294,32.941l1.22,3.253L133.671,424.089z M100.731,465.162l43.107-39.04
	l1.627,2.846l-43.107,39.042L100.731,465.162z M167.019,367.154l2.439-1.22l24.4,81.334l-2.846,1.626l-24.4-81.334L167.019,367.154z
	 M174.338,519.657l54.495-56.935l1.626,3.254l-54.494,56.935L174.338,519.657z M204.433,375.288l2.44-0.814l14.234,85.402
	l-2.848,0.813L204.433,375.288z M112.118,411.888l-24.4-44.734l-2.439,2.034c11.386,19.926,20.739,37.82,24.4,44.734
	L112.118,411.888L112.118,411.888z"/>
<path fill="#FEDEA6" d="M209.719,392.775l-13.014-23.587c-39.041-77.269-69.948-193.984-55.714-233.837
	c41.48-17.08,168.769,86.214,202.93,164.702c19.52,41.481,14.234,90.688-13.827,126.882c-3.661,4.473-8.133,8.541-13.014,12.2
	c-23.993,16.673-54.901,16.268-82.555-13.013c-8.134-8.133-16.268-19.926-24.4-33.347H209.719z"/>
<path fill="#F5C371" d="M355.308,368.375c2.848-23.182-0.813-47.174-10.573-69.135c-23.587-46.36-57.341-87.027-98.821-119.155
	c-35.38-28.467-81.742-56.121-105.329-46.361v0.814c-7.319,19.114-4.473,56.527,7.32,104.515
	c13.827,54.087,34.16,106.141,61.001,154.942c6.914,12.201,15.047,23.587,24.401,33.753c26.027,27.248,57.341,32.128,84.181,13.014
	c4.88-3.661,9.354-8.133,13.421-12.606C345.141,411.075,353.681,390.334,355.308,368.375L355.308,368.375z M142.211,136.57
	c18.707-6.506,58.154,10.98,102.075,47.174c41.074,31.314,74.42,71.575,97.602,117.528c19.113,40.668,14.232,88.655-13.014,124.442
	c-3.66,4.88-8.133,8.947-13.013,12.2c-25.621,18.3-56.122,13.827-81.335-12.606c-7.32-8.134-15.454-19.521-23.586-33.348
	l-13.42-23.994c-36.601-74.015-69.135-190.323-55.308-230.99V136.57z"/>
<path fill="#F5C371" d="M140.178,136.57l2.033-2.44l188.697,291.584l-2.034,2.44L140.178,136.57z"/>
<path fill="#F5C371" d="M225.173,165.851l-2.44-0.406l-10.98,80.521l2.44,0.406L225.173,165.851z M221.92,261.826l16.267-84.996
	l2.44,0.813l-16.267,84.995L221.92,261.826z M177.999,325.267l86.621-1.221v4.067l-87.028,0.813v-4.066L177.999,325.267z
	 M295.528,375.693l27.246-110.208l2.847,0.813l-27.247,110.208L295.528,375.693z M202.806,379.354l85.402-18.301v3.66
	l-85.402,17.894V379.354z M194.266,215.058c-8.134-2.44-29.28-8.946-52.868-17.08l-0.813,3.66
	c23.587,8.134,44.734,14.641,52.868,17.081l0.813-4.067V215.058z"/>
<g>
	<path fill="#F5C371" d="M934.41,634.338c0,96.788-18.3,134.202-31.314,199.271l-0.405,4.066v0.406l-0.813,4.067v1.219l-0.407,0.408
		c-1.219,6.913-2.846,13.827-4.88,20.333v0.813l-1.626,4.068l-0.408,1.627c-0.813,2.033-1.626,4.473-2.438,6.505l-0.815,2.848
		c-260.27,118.342-558.768,118.342-819.038,0c-1.626-3.254-3.253-6.1-4.88-9.353c-10.574-21.147-18.707-43.108-24.4-65.882
		l-0.813-4.067c-0.407-2.438-1.22-4.88-1.627-7.319l-1.22-4.881v-2.847l-0.813-3.254l-0.407-2.845
		c-0.813-3.254-1.22-6.913-1.627-10.167v-4.068l-1.219-7.725c-0.813-10.982-1.221-22.369-0.407-33.349
		c37.414-28.467,46.768,7.319,81.334-18.707c25.214-21.96,68.729-34.568,68.729-34.568c-27.248-21.552-84.182-50.019-134.202,6.507
		c43.107-86.214,54.494-27.652,101.667-57.746c14.641-16.268,22.368-18.301,48.801-13.827
		c56.121,12.199,32.534-65.881,81.333-58.562c0,0-9.759-11.793-36.6-11.793c-26.84,0-31.313,26.028-61,18.706
		c-23.994-4.472-48.801-4.066-72.388,2.035c-7.32,1.627-15.047,3.659-22.367,6.099c30.093-67.1,113.461-76.048,136.642-133.389
		c17.487-43.921,34.975-93.534,61.001-137.049c37.415-70.354,109.395-115.494,189.103-118.342
		c161.856-13.826,206.183,74.829,264.338,124.036l6.1,4.88c-4.066,8.946-6.913,19.52-6.913,30.907
		c0,32.534,20.739,58.561,46.768,58.561c15.048,0,28.467-9.353,37.413-23.586c15.048,16.672,28.874,34.567,41.481,52.867
		c5.693,9.354,11.386,18.707,16.267,28.468c-25.62,6.913-36.602,36.6-49.613,50.427c-10.575,9.353-23.995,15.861-37.822,18.3
		c0,0,16.268,26.026,51.648,29.278c15.047,0.815,30.095-3.658,42.7-12.198c-9.353,17.487-6.913,29.281-19.52,44.734
		c-15.455,17.893-37.821,24.4-56.935,55.715c-19.927,31.313-16.268,64.254-16.268,64.254c20.333-20.742,44.734-37.008,71.168-48.802
		c13.014-5.693,26.84-8.945,40.667-10.166c7.728-1.221,16.268-4.067,25.214-8.946v2.032H934.41z"/>
</g>
<g>
	<path fill="#FEDEA6" d="M825.015,368.375c-8.539,14.233-22.365,23.586-37.413,23.586c-26.025,0-46.769-26.434-46.769-58.561
		c0-11.387,2.848-21.961,6.914-30.907C747.747,302.493,820.949,363.9,825.015,368.375z"/>
</g>
<g>
	<path fill="#FEDEA6" d="M405.329,645.725c0,43.92-28.467,79.301-62.628,79.301c-34.974,0-63.034-35.381-63.034-79.301
		c0-43.513,28.468-79.3,63.034-79.3C377.268,566.425,404.922,602.212,405.329,645.725L405.329,645.725z"/>
</g>
<g>
	<path fill="#FEDEA6" d="M375.642,328.113c0,2.44-1.627,4.067-3.66,4.067c-1.627,0-3.253-1.626-3.253-4.067s1.626-4.067,3.253-4.067
		C374.015,324.046,375.642,325.673,375.642,328.113z"/>
</g>
<g>
	<path fill="none" stroke="#FFFFFF" stroke-width="1.6" stroke-miterlimit="10" d="M254.453,698.999
		c4.067,0,7.321-4.066,7.321-9.354c0-4.878-2.848-8.945-6.914-8.945c-4.067,0-7.32,4.067-7.32,8.945
		C247.54,694.933,250.793,698.999,254.453,698.999L254.453,698.999z"/>
</g>
<g>
	<path fill="none" stroke="#FEDEA6" stroke-width="1.6" stroke-miterlimit="10" d="M657.467,315.914
		c4.066,0,7.319-4.067,7.319-8.947s-3.253-8.946-7.319-8.946s-6.914,4.065-6.914,8.946S653.4,315.914,657.467,315.914z"/>
</g>
<g>
	<path fill="none" stroke="#FEDEA6" stroke-width="1.6" stroke-miterlimit="10" d="M323.994,315.1
		c12.606,0,22.773-13.014,22.773-28.467c0-16.267-10.167-28.874-22.773-28.874c-12.199,0-22.367,12.606-22.367,28.467
		C301.627,302.493,311.795,314.693,323.994,315.1L323.994,315.1z"/>
</g>
<g>
	<path fill="none" stroke="#FEDEA6" stroke-width="1.6" stroke-miterlimit="10" d="M121.471,847.841
		c26.027,0,46.767-26.434,46.767-58.562c0-32.533-20.74-58.966-46.767-58.966c-25.621,0-46.36,26.433-46.36,58.966
		C75.111,821.815,95.85,847.841,121.471,847.841z"/>
</g>
<g>
	<g>
		<g>
			<g>
				<g>
					<defs>
						<path id="SVGID_1_" d="M-29.405,769.761C9.636,903.962,294.308,971.876,482.597,969.03
							c163.889-8.539,398.539-29.282,476.621-160.636c111.427-168.77,2.847-418.467-130.949-554.296
							C716.84,141.044,512.691,36.122,376.862,104.85c-65.067,32.533-134.609,115.088-174.87,189.917
							c-23.18,43.513-24.4,61.814-54.494,103.701C97.071,468.416,64.13,464.756,19.803,529.823
							c-39.447,57.747-50.427,114.683-54.494,141.523C-40.385,715.267-37.131,743.732-29.405,769.761z"/>
					</defs>
					<clipPath id="SVGID_2_">
						<use xlink:href="#SVGID_1_"  overflow="visible"/>
					</clipPath>
					<g clip-path="url(#SVGID_2_)">
						<g>
							<g>
								<g>
									<path fill="#DE9F7E" d="M417.529,982.043c0.813,1.627,2.033,3.661,2.846,5.288c2.44,4.88,4.881,9.759,6.508,15.048
										c3.253,10.166,5.693,20.739,6.507,31.313c0,2.847-9.354,19.521-11.794,21.554c-2.44,2.439-9.76,5.692-12.606,4.066
										c-0.407,0.813-6.914,3.659-5.286-4.066c-1.627-0.814-5.695-2.441,5.692-13.826h-0.406c-1.22-2.848-1.22-6.914-1.627-8.948
										c-0.813-4.881-1.626-10.573-4.473-15.047c-4.474-6.913-6.506-16.266-6.506-28.875
										c-0.407-3.658,10.979-15.858,14.234-15.047c0.405,0.815,1.22,1.221,2.033,2.036
										C414.683,977.164,416.31,979.604,417.529,982.043z"/>
									<path fill="#D38A6A" d="M408.989,1041.825c0.406,1.626,1.219,2.439,2.847,3.253c0.813,0.407,1.626,0.407,2.44,0
										c0.813-0.406,2.034-0.813,2.439-1.627c0.814-1.221,1.22-2.441,1.627-3.66c1.627-7.32,0.407-15.047-0.407-22.367
										c0,0,0-0.407-0.406-0.407c0,0-0.406,0-0.406,0.407c0.813,6.915,2.032,15.047,0.406,21.96
										c-0.406,1.221-0.813,2.441-1.627,3.662c-0.406,0.812-1.22,1.219-2.033,1.626c-0.813,0.406-1.221,0.406-2.034,0
										c-1.22-0.407-1.627-1.626-2.44-2.847C409.396,1041.825,408.989,1041.419,408.989,1041.825
										C408.989,1041.419,408.989,1041.419,408.989,1041.825L408.989,1041.825z"/>
								</g>
								<g>
									<path fill="#DE9F7E" d="M321.961,657.111c30.907,67.102,38.634,115.497,38.634,115.497
										c2.44,14.639,4.879,35.786,6.506,61.406c7.727,21.96,15.047,44.327,22.773,66.693c8.541,26.028,16.674,52.055,24.808,77.27
										c-6.101,4.474-12.2,8.539-17.894,13.013c-8.134-13.42-20.741-33.347-35.38-57.746
										c-28.061-45.956-41.888-69.136-44.734-75.236c-28.467-63.034-15.047-77.268-32.534-137.049
										c-4.473-15.858-9.354-34.974-9.354-51.648c0-10.166,3.66-18.707,9.354-27.246c2.44-3.254,4.88-5.692,7.727-6.508
										c4.473-1.625,8.54-0.405,10.167,0.409C314.235,640.031,321.147,654.673,321.961,657.111z"/>
									<path fill="#D34047" d="M369.135,828.729c-19.114-1.221-37.821-2.441-56.935-3.66
										c-4.065-46.768-7.726-93.942-11.793-140.711c0.407-3.658,4.473-26.432,25.214-39.446
										c10.167-6.507,20.333-7.727,26.027-7.727c8.948,25.213,18.3,59.782,21.147,101.67
										C375.642,774.234,373.203,804.734,369.135,828.729z"/>
									<path fill="#B7303D" d="M376.048,802.294c-12.607,0-25.62-0.406-39.04-1.221c-21.147-1.219-41.075-2.845-59.781-5.286
										c1.626,8.947,2.846,18.3,4.473,27.246c14.234,3.662,32.127,6.914,52.055,7.729c14.64,0.812,27.654,0.405,39.04-0.407
										C373.608,821.001,374.829,811.648,376.048,802.294z"/>
								</g>
								<path fill="#DE9F7E" d="M313.827,652.231c-0.406,37.007-37.005,65.068-72.386,64.661
									c-36.602-0.407-72.388-31.314-70.762-66.694c1.626-32.939,35.38-52.055,37.821-53.273c6.1-3.661,25.62-13.828,49.208-8.948
									C286.58,593.671,313.827,620.104,313.827,652.231z"/>
								<path fill="#D34047" d="M130.417,1055.651c0.814-37.414,1.627-75.234,2.44-112.648c2.44-113.868,3.66-161.042-2.033-227.329
									c-1.626-18.707-3.253-33.754-4.474-43.516c-0.406-4.473-0.406-13.826,3.661-23.992c5.287-12.609,14.64-19.522,18.707-21.962
									c19.52-10.166,39.04-20.739,58.56-30.905c2.034-0.814,3.661-2.035,5.694-2.848c2.847-1.627,5.694-3.254,8.134-4.881
									c0.406,2.033,0.813,5.287,2.033,8.54c0,0,3.253,10.167,10.167,19.113c12.2,15.456,33.347,21.554,36.6,22.369
									c2.848,7.726,5.288,16.673,7.728,26.432c1.219,5.286,2.033,10.575,2.847,15.861c0.813-13.42,2.032-26.434,2.846-39.854
									c2.44-2.438,5.286-5.693,7.32-10.572c5.693-13.421-1.22-26.028-2.44-28.468c12.606,8.134,24.4,13.42,32.126,16.674
									c10.981,5.286,21.554,8.946,27.248,14.232c2.847,2.44,4.473,4.88,4.88,8.134c0.406,1.627,0,2.848,0,3.659
									c-3.254,42.295-5.287,87.842-5.287,135.831c0,41.073,1.22,80.52,3.253,117.527c2.847,54.088,5.692,108.175,8.54,162.668
									C282.513,1057.685,206.466,1056.872,130.417,1055.651z"/>
								<g>
									<path fill="#B7303D" d="M283.327,639.625c-0.407,38.635-1.627,76.86,0,115.495l-1.22-0.813
										c5.693,0,11.386-0.406,17.487-0.406c-5.693,0.813-11.387,1.625-17.082,2.44H281.7v-1.221
										C276.821,716.893,278.041,677.852,283.327,639.625L283.327,639.625z"/>
								</g>
								<path fill="#B7303D" d="M292.274,735.192c0.406,0.814,0.406,2.035,0,3.253c-0.813,1.628-2.034,2.035-3.661,1.628
									c-0.813-0.407-2.033-1.219-2.033-2.846c0-1.628,0.813-2.848,2.033-3.254C290.24,733.565,291.461,733.974,292.274,735.192z"
									/>
								<path fill="#B7303D" d="M292.274,705.506c0.406,0.813,0.406,2.033,0,3.253c-0.813,1.628-2.034,2.034-3.661,1.628
									c-0.813-0.408-2.033-1.221-2.033-2.848s0.813-2.848,2.033-3.254C290.24,703.474,291.461,703.88,292.274,705.506z"/>
								<path fill="#B7303D" d="M291.867,674.6c0.407,0.813,0.407,2.033,0,3.252c-0.814,1.627-2.034,2.034-3.66,1.627
									c-0.814-0.406-2.034-1.219-2.034-2.846s0.814-2.848,2.034-3.254C289.833,672.973,291.053,673.379,291.867,674.6z"/>
								<path fill="#FCB856" d="M328.062,624.984c-1.627-10.979-9.354-11.794-12.2-10.573c-2.847-5.286-6.913-7.319-11.387-5.286
									c-0.814-3.66-8.541-6.102-10.167-4.474c1.221,18.3,4.473,193.169-11.387,258.237c-0.813,6.101,34.974,22.772,47.174,11.387
									C331.315,865.736,339.041,674.6,328.062,624.984z"/>
								<path fill="#DE9F7E" d="M182.065,809.207c23.994-16.266,47.581-32.533,71.575-48.801c2.847,4.474,6.1,9.354,8.946,13.828
									c31.721-25.622,63.441-51.242,95.162-76.862c2.44,3.253,5.693,7.319,10.167,11.387c4.067,3.66,7.728,6.1,10.98,8.134
									c-20.334,23.994-36.194,44.327-47.173,58.154c-18.707,24.4-30.908,41.073-53.275,61.001
									c-34.16,31.314-48.394,30.094-54.9,27.653c-3.253-1.219-5.693-3.252-9.76-7.727
									C205.246,846.62,193.045,831.573,182.065,809.207z"/>
								<path fill="#DD4756" d="M187.759,824.254c10.167-6.913,20.741-13.826,30.908-20.739
									c15.046-10.167,30.093-20.333,45.14-30.501c-13.826-29.688-23.586-54.087-30.093-70.761
									c-8.54-21.961-15.86-42.295-34.567-63.849c-15.86-18.301-25.214-20.334-31.314-20.334
									c-13.827,0.407-25.214,13.015-28.467,16.268c0,0-6.1,6.508-9.761,14.64c-10.572,22.774,3.661,62.628,33.348,125.663
									C169.458,787.247,177.592,804.326,187.759,824.254z"/>
								<path fill="#B7303D" d="M171.085,797.413c10.98-6.098,22.368-13.012,33.754-21.146c17.894-12.2,33.753-24.401,47.582-36.194
									c4.879,10.166,9.354,20.333,14.233,30.094c-9.354,10.166-22.367,22.774-39.447,34.567
									c-14.234,9.76-28.061,16.673-39.448,21.553C182.065,816.528,176.778,806.768,171.085,797.413z"/>
								<path fill="#B7303D" d="M283.327,639.625c2.44-2.44,6.506-8.134,8.54-16.268c2.44-11.386-2.034-19.927-3.254-23.179
									c1.627,1.219,4.067,2.033,5.694,2.845c2.033,0.814,2.847,8.134,3.66,10.574c1.626,7.321,0.406,9.76-0.408,29.281
									c-0.406,5.692-0.406,10.166-1.626,10.573c-0.814,0-1.22-2.849-4.88-6.508c-1.22-1.22-2.033-2.033-2.846-2.845
									c-1.627-1.221-3.254-1.627-4.067-3.254C283.733,640.438,283.327,640.031,283.327,639.625z"/>
								<g>
									<path fill="#DE9F7E" d="M291.053,614.005c-20.333,17.893-75.641-19.927-73.607-21.147
										c13.014-9.353,10.98-31.722,7.727-51.24c-1.22-7.728-2.847-14.642-4.066-20.334c13.013-4.881,47.58-5.286,62.627,19.521
										c5.694,9.353,8.541,21.96,6.507,39.447c-1.22,3.254-2.033,6.099-2.44,8.946l0,0
										C286.58,600.991,292.274,611.157,291.053,614.005z"/>
									<path fill="#D38A6A" d="M290.24,579.844c-1.22,3.253-2.033,6.101-2.44,8.947l0,0c-2.439-0.406-5.288-1.221-8.947-2.441
										c-2.846-0.813-7.32-2.033-12.199-4.472c-6.507-3.254-12.201-5.695-16.674-11.794c-2.034-2.847-2.847-4.88-4.473-8.948
										c-2.034-4.472-4.066-11.385-5.287-20.739c13.014-9.76,29.281-10.98,40.261-3.253c1.219,0.813,2.439,1.626,3.252,2.846
										C289.428,549.344,292.274,562.356,290.24,579.844z"/>
									<path fill="#DE9F7E" d="M319.927,504.61c0,0.406,0,0.406,0,0.813c0,1.22-0.406,2.846-1.22,4.066
										c0,0-0.406,0.814-1.626,4.881c-0.814,2.032-0.814,12.2-0.407,26.026c0,2.44,0,5.694-0.813,10.573
										c-0.814,5.288-2.035,14.641-8.134,23.587c-1.22,2.035-3.66,4.88-6.914,8.134c-1.22,1.221-2.846,2.033-4.474,2.033
										c-1.626,0-3.252,0-5.287-0.407c-0.406,0-0.813,0-2.033-0.405c-5.287-0.814-11.387-2.033-17.894-4.067
										c-4.066-1.22-8.947-2.44-12.2-4.066c-7.727-3.254-13.42-9.761-15.454-17.893c-1.627-4.881-2.033-9.761-3.66-14.642
										c-0.813-2.847-1.221-6.1-2.034-9.354c0-0.406-0.406-0.406-0.406-0.406c-0.814-0.407-0.814,0-2.034,0
										c-9.354-0.814-16.267-12.607-17.894-15.861c-7.727-13.419-11.793-41.887,6.1-59.374
										c11.387-11.386,26.027-11.794,33.754-12.607c11.387-1.22,60.594,3.253,60.594,44.734c0,3.253,0.407,6.507,0.813,9.76
										c0,0.406,0,0.814,0.408,1.219c0,0.408,0,0.408,0,0.814C319.927,502.576,319.927,503.796,319.927,504.61z"/>
									<path d="M234.12,513.557c3.254,2.44,2.033,6.1,2.033,6.914c0.813,0.813,4.474,1.627,5.288,2.44
										c0-2.848,0-6.101-0.408-8.947c0-3.66,1.221-6.1,2.034-7.727c1.22-2.033,2.44-2.44,5.287-5.694c0,0,2.44-2.44,4.067-5.286
										c5.287-7.727,7.319-15.861,7.727-18.707c0.407-1.627,0.407-3.254,0.813-4.067c2.033,0,5.286-0.407,8.946,0
										c5.694,0,9.761,0.813,11.387,1.219c15.454,2.034,24.807-4.879,31.314,0c2.439,1.627,5.286,5.694,5.286,15.86
										c4.88-15.047,2.033-24.4,0.407-28.466c-10.574-25.621-54.495-35.381-80.522-19.521c-7.32,4.474-11.793,10.167-14.64,13.827
										c-7.32,2.033-11.387,5.693-13.42,8.133c-10.167,10.979-8.133,28.874-6.507,44.328c0.407,2.44,0.813,4.88,0.813,4.88
										c0.813,4.878,2.44,8.133,2.847,8.946c3.253,8.134,9.354,32.127,13.014,40.261c0.407,0.813,1.221,2.848,3.253,3.66
										c1.22,0.813,2.846,0.406,3.66,0.406c0.407-12.605-0.813-21.554-2.033-27.247c0,0,0,0,0-0.406
										c-0.407-1.627-1.626-7.728-2.44-13.014c-0.813-6.913-1.626-10.167-0.406-11.793
										C224.766,510.709,230.459,511.117,234.12,513.557z"/>
									<path id="XMLID_00000037674744132090196540000013686549035238107049_" fill="#FCB856" d="M198.739,491.597
										c66.694-38.228,105.329-36.602,118.342-36.194c2.44,0.406,5.693,4.066,5.693,10.98c3.253,3.66,4.88,9.76,1.627,12.2
										c0,0,0,0,0,0.406c0.406,1.627-0.814,3.254-2.847,3.66c-14.233,2.034-49.208-6.507-111.835,33.753
										c-1.22,1.22-3.66,1.22-4.88,0c-1.22-1.22-2.439-3.253-2.439-6.913c-4.066-2.034-4.474-8.539-3.661-10.574
										C197.925,495.256,197.52,492.409,198.739,491.597z"/>
									<path fill="#DE9F7E" d="M236.153,514.37c-1.627-10.98-6.506-13.015-6.506-13.015c-4.067-1.219-8.947,0.408-11.388,4.067
										c-2.033,2.846-1.626,6.1-1.219,8.134c0.406,4.065,2.439,6.914,4.88,10.979c2.033,2.847,2.846,4.474,4.473,5.694
										c3.66,2.439,7.32,2.847,9.354,2.847c0.407,0,0.813-0.407,1.22-0.813c2.034-2.034,0.813-5.693,0-15.454
										C236.56,516.81,236.56,515.997,236.153,514.37z"/>
								</g>
								<path fill="#CE8065" d="M286.988,558.697c-0.408,1.22,7.726,6.507,14.64,4.474c2.847-0.814,5.693-3.254,5.287-4.067
									c-0.407-0.813-2.44-0.406-5.695,0C291.461,559.917,286.988,557.885,286.988,558.697z"/>
								<g>
									<path fill="#FFFFFF" d="M302.847,517.622c2.848-5.692,8.134-7.726,10.98-6.099c1.628,1.221,2.44,4.066,2.035,6.914
										C313.015,524.13,306.915,522.502,302.847,517.622z"/>
									
										<ellipse transform="matrix(-0.9877 -0.1563 0.1563 -0.9877 538.015 1075.6765)" fill="#6B3628" cx="311.29" cy="516.69" rx="4.067" ry="5.286"/>
									
										<ellipse transform="matrix(-0.9877 -0.1565 0.1565 -0.9877 538.5923 1076.1334)" cx="311.657" cy="516.865" rx="2.033" ry="2.847"/>
									<ellipse fill="#FFFFFF" cx="310.261" cy="515.364" rx="0.813" ry="0.813"/>
									<path d="M315.861,518.843c0.405-2.44-0.814-4.879-2.44-6.099c-2.847-1.627-6.506,0.813-7.321,1.626
										c-1.626,1.219-2.846,2.847-3.253,3.66c0.408-1.22,1.221-3.253,3.253-4.88c0.408-0.406,4.88-4.066,8.135-1.626
										C315.861,512.744,316.674,515.589,315.861,518.843z"/>
								</g>
								<path fill="#CE8065" d="M305.695,545.683c0.405,0.408-1.627,2.848-4.475,3.661c-4.472,1.22-8.946-3.253-8.946-3.661
									c0-0.405,3.254,2.034,7.726,1.627C303.66,546.497,305.287,545.277,305.695,545.683z"/>
								<g>
									<path d="M265.026,505.83c1.22-1.627,3.254-3.661,6.101-5.288l0,0c1.627-0.813,3.254-1.627,5.287-1.22
										c4.473,0,8.947,0.407,13.014,0.407c0.406,0.407,0.813,1.221,1.22,2.034c0.406,0.813,0.406,1.626,0,2.033
										c-5.287-0.406-10.167-0.406-15.453-0.813c-1.221,0-2.44,0-3.253,0.407C269.5,504.203,267.061,505.016,265.026,505.83z"/>
								</g>
								<g>
									<path d="M319.927,504.61c-0.406,0-1.22,0-1.626,0l-14.641,0.406c0-0.406,0-1.22,0.407-2.033
										c0.407-0.813,0.813-1.627,1.22-2.033c4.067,0,8.54-0.408,12.607-0.408c0.813,0,1.627,0,2.033,0.408
										c0,0.405,0,0.405,0,0.813C319.927,502.576,319.927,503.796,319.927,504.61z"/>
								</g>
								<g>
									<path fill="#FFFFFF" d="M288.613,518.03c-0.406,0.407-1.22,1.22-2.439,1.627c-2.44,1.22-4.88,1.22-6.101,0.813
										c-4.878-0.408-8.132-3.253-9.353-4.473c0.813-1.221,3.253-4.88,7.726-6.101c1.221-0.407,3.661-0.813,6.101,0
										C288.613,512.336,288.613,517.622,288.613,518.03z"/>
									<g>
										<path fill="#6B3628" d="M285.361,515.997c-0.408,2.846-2.44,4.879-4.88,4.473c-2.44-0.408-3.66-2.848-3.66-5.694
											c0.406-2.847,2.439-4.88,4.878-4.473C284.14,510.709,285.767,513.149,285.361,515.997z"/>
										<path d="M284.547,515.997c0,1.22-1.22,2.439-2.44,2.033c-1.221,0-2.035-1.22-1.626-2.847c0-1.219,1.219-2.439,2.439-2.033
											C283.733,513.149,284.547,514.37,284.547,515.997z"/>
										<path fill="#FFFFFF" d="M281.7,513.963c0,0.407-0.406,0.813-0.813,0.813c-0.406,0-0.814-0.406-0.406-0.813
											c0.406-0.407,0.406-0.814,0.813-0.814C281.701,513.149,281.7,513.557,281.7,513.963z"/>
										<path d="M288.613,518.03c-0.406,0-0.813-4.88-4.066-6.507c-3.661-2.034-9.353,1.626-13.827,4.879
											c3.253-6.913,10.167-9.353,13.827-7.319C288.613,511.117,289.021,517.622,288.613,518.03z"/>
									</g>
								</g>
								<g>
									<path d="M233.307,538.77c-1.22,0-2.033-2.846-2.033-5.286l0.813,0.406c0,2.847,0.813,4.474,1.22,4.474
										c0.406,0,1.219-1.627,1.219-4.474c0-2.847-0.813-4.474-1.219-4.474c-0.407-0.406-0.407-0.406,0-0.813
										c1.219,0,2.033,2.847,2.033,5.287C235.746,535.923,234.933,538.77,233.307,538.77z"/>
								</g>
								<path fill="#B7303D" d="M219.479,587.165c1.22-0.815,2.846,0,2.846,1.22c2.44,8.946,9.354,29.28,28.874,41.479
									c6.507,4.067,13.014,6.507,18.707,7.728c-2.846,7.727-4.473,14.232-5.286,19.113c-0.814,3.253-1.22,5.287-2.846,6.102
									c-3.254,1.626-9.354-4.881-14.642-10.982c-6.506-7.318-15.046-17.079-25.213-28.467c-2.847-4.066-5.694-8.54-8.541-13.421
									c-2.846-4.88-5.287-9.758-7.32-14.232c2.847-1.626,5.694-3.659,8.133-5.286
									C216.226,589.197,217.853,587.977,219.479,587.165z"/>
								<g>
									<path d="M271.533,629.053c-11.386,0.405-20.74-7.729-28.06-15.048c-5.694-5.286-13.827-14.234-21.147-26.84
										c0-0.407,0.407-0.815,0.407-1.221c0.407-0.407,0.813-1.221,0.813-1.628c8.541,15.862,19.114,25.62,25.621,30.907
										c8.947,7.321,18.707,13.015,27.247,9.761c7.32-2.846,11.794-13.013,11.794-24.806c0.406,0.406,0.406,0.813,0.813,1.626
										c0.407,0.813,0.407,1.219,0.813,1.626c0,2.034-1.22,19.114-12.606,23.994C275.194,628.644,273.161,629.053,271.533,629.053
										z"/>
								</g>
							</g>
							<g>
								<g>
									<path fill="#DE9F7E" d="M340.668,710.793c4.881-3.254,12.2-8.134,18.707-15.86c9.354-10.98,9.76-17.488,18.707-29.281
										c8.134-10.979,17.081-16.674,23.994-21.146c7.727-4.881,20.74-13.015,38.634-15.047c1.626,0,3.253-0.406,4.474-0.406
										c2.847,0,4.473,3.253,2.44,5.285c-1.627,1.628-3.253,2.847-5.694,4.066c-5.693,3.254-8.54,2.033-15.861,5.695
										c-2.44,1.219-7.319,3.659-11.386,8.945c-1.221,1.628-4.88,6.1-6.101,13.015c-0.406,2.032-0.406,4.066-0.406,5.287
										c5.694-2.848,9.76-6.102,12.607-8.54c2.846-2.441,4.066-4.475,8.134-7.728c4.473-3.66,7.32-6.102,8.946-5.287
										c1.627,1.221,0.813,6.913-1.626,11.387c-2.44,4.881-5.287,5.692-11.387,12.2c-1.221,1.221-2.847,3.254-6.1,7.32
										c-9.76,12.607-10.167,14.233-13.828,17.488c-2.846,2.439-7.319,5.692-15.047,7.318c-0.813,0.406-1.626,1.221-2.033,2.034
										c0,0-1.22,0.813-2.033,2.032c-1.626,1.626-10.167,11.387-21.96,25.214C356.121,727.061,348.395,718.927,340.668,710.793z"
										/>
									<path fill="#DE9F7E" d="M382.556,662.807c0,0,0-0.814,0.406-2.035c1.627-3.66,6.1-6.506,24.808-23.994
										c0.407-0.406,4.473-4.065,13.014-11.387c4.88-4.066,9.354-7.726,15.86-10.573c0.407,0,0.407,0,0.814-0.406
										c1.219-0.406,2.438,0,2.846,1.221c0.407,0.813,0.407,1.218,0.407,2.033c0.813,6.507-4.88,13.42-14.233,17.892l0,0l0,0
										c-13.827,9.354-23.994,25.622-23.994,25.622c-8.947,14.64-8.541,21.146-12.2,21.146
										C386.216,683.14,380.522,672.158,382.556,662.807z"/>
									<path fill="#DE9F7E" d="M373.608,673.785c5.695-12.199,25.214-34.566,27.655-36.601c1.22-0.813,2.033-2.033,3.66-4.066
										c0,0,6.914-8.54,16.267-14.641c0,0,0.406,0,0.813-0.407c1.221-0.405,2.034,0,2.44,1.221
										c0.407,0.813,0.407,2.033,0.407,2.033c-0.407,4.88-12.607,18.301-13.828,19.521c0,0-4.473,4.879-7.726,9.353
										c-12.607,17.08-4.88,32.533-13.826,41.073c-3.661,3.254-10.574,6.101-26.433,2.035
										C366.288,686.799,369.949,680.292,373.608,673.785z"/>
								</g>
							</g>
						</g>
					</g>
				</g>
				<g>
					<defs>
						<path id="SVGID_3_" d="M-29.405,769.761C9.636,903.962,294.308,971.876,482.597,969.03
							c163.889-8.539,398.539-29.282,476.621-160.636c111.427-168.77,2.847-418.467-130.949-554.296
							C716.84,141.044,512.691,36.122,376.862,104.85c-65.067,32.533-134.609,115.088-174.87,189.917
							c-23.18,43.513-24.4,61.814-54.494,103.701C97.071,468.416,64.13,464.756,19.803,529.823
							c-39.447,57.747-50.427,114.683-54.494,141.523C-40.385,715.267-37.131,743.732-29.405,769.761z"/>
					</defs>
					<clipPath id="SVGID_4_">
						<use xlink:href="#SVGID_3_"  overflow="visible"/>
					</clipPath>
					<g clip-path="url(#SVGID_4_)">
						<g>
							<path fill="#2554D8" d="M690.813,971.063c-34.567,4.881-69.134,9.762-103.294,14.642
								c-6.102,37.414-11.794,74.421-17.895,111.835c45.547-2.848,90.689-5.287,136.235-8.134
								c11.387-3.66,50.835-18.707,73.607-59.78c11.388-20.742,14.642-40.261,15.453-52.461
								C759.948,974.723,725.381,973.097,690.813,971.063z"/>
							<g>
								<g>
									<g>
										<path fill="#3770ED" d="M557.019,1019.458c15.046,0,29.687,0,44.733,0c4.066-33.348,8.134-66.695,11.794-100.043
											c4.065-96.787,8.134-163.481,13.014-183.815c1.219-4.879,5.692-22.774-2.034-41.074c-1.625-3.66-3.252-6.506-4.473-8.132
											c-1.221-0.815-11.794-8.949-25.214-4.881c-11.388,3.254-16.268,13.013-17.08,14.639
											c-5.286,49.208-9.761,100.043-13.42,152.504C560.679,907.215,558.237,964.557,557.019,1019.458z"/>
									</g>
									<path fill="#2554D8" d="M589.959,956.831l206.996-2.441c4.067-93.128,7.727-186.662,11.793-279.79
										c-26.839-9.354-54.087-19.115-80.926-28.468c-11.794-2.032-26.841-3.253-44.736-0.813
										c-10.166,1.221-19.113,3.253-26.84,5.285c-10.979,5.288-21.554,10.575-32.533,15.862
										c-10.981,5.286-21.555,10.573-32.534,15.859c0,13.421-0.814,135.422-1.627,271.252
										C589.959,953.983,589.959,956.831,589.959,956.831z"/>
									<path fill="#E09A61" d="M720.907,644.506c-3.253,3.253-8.133,7.318-14.64,10.979c-4.066,2.033-7.728,3.66-10.98,4.474
										c-3.66,6.102-6.915,12.2-10.574,18.302c-1.22-5.695-2.438-11.794-3.659-17.488c-1.221,0.407-3.254,0.407-5.287,0
										c-6.507-1.627-9.354-8.54-9.76-9.353c0-2.848,0-6.101,0-8.946l-0.813-55.715l54.9-0.813l0.406,47.174
										C720.907,637.185,720.907,640.846,720.907,644.506z"/>
									<path fill="#C47947" d="M720.907,633.524c-5.288,4.067-10.166,6.913-13.828,8.54c-10.573,4.881-19.112,6.101-23.993,6.101
										c-5.285,0.406-7.725-0.406-10.166-1.22c-2.848-1.221-5.287-2.846-6.913-4.473l-0.813-55.715l54.9-0.813L720.907,633.524z"
										/>
									<path fill="#0A338E" d="M798.175,945.037c-13.013,3.254-19.927,6.1-23.993,8.132c-0.813,0.408-3.66,1.626-7.32,2.441
										c-4.067,0.813-7.321,0.405-8.54,0.405c-0.407,0-0.814,0-0.814,0c-2.846-0.405-54.088-1.626-167.142-2.847
										c-0.813,10.98-1.627,21.961-2.846,32.942c59.78-0.407,119.969-0.815,179.749-1.221c10.166-3.255,20.333-6.1,30.094-9.353
										C797.769,964.963,798.175,954.795,798.175,945.037z"/>
									<g>
										<path fill="#3770ED" d="M742.054,1048.332c13.015,4.88,27.653,9.353,43.922,12.605c5.692,1.221,11.387,2.033,17.079,2.848
											c18.707-52.461,28.062-98.008,33.349-130.95c12.199-82.146,4.474-131.762-8.135-209.437
											c-3.66-23.992-8.134-45.139-20.333-47.986c-15.047-3.66-37.82,22.366-45.548,49.207
											c-6.508,21.554-2.032,39.855-0.406,48.801c6.099,28.874,11.794,71.168,9.353,130.136
											C761.981,951.542,752.222,999.938,742.054,1048.332z"/>
									</g>
								</g>
								<g>
									<g>
										<path fill="#E09A61" d="M689.188,644.506c-3.66,0.813-6.508,1.626-9.761,1.219c-8.541-1.219-13.826-7.727-21.96-17.893
											c-4.066-5.287-8.946-11.388-13.015-20.334c-4.881-10.573-6.1-19.521-8.134-30.095c-1.624-10.572-2.033-19.927-2.033-28.06
											c0,0-2.032-19.114-2.438-24.401c-0.407-4.88,12.199-29.281,13.826-32.941c18.3-15.453,58.562-19.52,85.401,1.627
											c16.267,14.639,21.147,29.688,22.368,36.194c3.253,14.64,0.812,26.841-1.628,39.04
											c-1.627,6.914-4.88,19.113-12.607,32.941c-2.846,5.287-8.54,14.64-19.113,24.807
											C705.047,640.438,692.033,644.1,689.188,644.506z"/>
										<path fill="#17140C" d="M748.562,481.022c-3.253-4.067-8.134-9.354-15.86-13.421c-14.233-7.726-28.061-6.1-41.074-4.473
											c-17.893,2.44-39.447,5.287-52.056,22.367c-7.318,10.167-8.945,21.147-10.166,30.501c-0.813,6.1-2.439,17.08,1.627,30.906
											c1.221,3.66,2.44,6.913,3.253,8.946c-0.406-5.286-0.406-11.793,0.814-19.926c1.219-7.321,3.253-13.013,5.287-17.487
											c4.88,1.22,10.572,2.034,15.859,2.44c31.314,3.66,58.562-2.847,78.08-9.76c-2.846,2.846-8.54,9.354-9.759,18.707
											c-0.407,2.44-0.813,6.914,0.813,11.387c1.626,4.067,4.474,6.1,6.1,7.726c3.255,3.66,4.474,11.794-3.658,30.096
											c2.438,0,7.725,0,8.945,0.813c6.507,4.066,6.507,10.168-1.221,26.434c-1.627,3.659-4.066,6.101-5.287,7.728
											c-0.812,0.813-2.032,2.439-4.474,5.286c-1.626,2.033-3.66,3.66-4.472,4.881c1.627,0,2.846-0.814,5.692-2.033
											c6.101-2.035,9.761-8.541,10.573-10.167c6.508-13.42,12.202-21.96,18.3-39.042c13.015-33.753,13.827-39.04,13.827-58.967
											c0-13.826-2.033-21.96-7.726-27.246C757.914,483.056,752.222,481.429,748.562,481.022z"/>
									</g>
									<path fill="#E09A61" d="M744.901,559.104c7.726-1.219,6.507,11.794,4.066,16.674c-2.033,4.88-5.287,16.674-10.574,20.333
										c-2.032,1.627-4.879,0-4.879-2.439C733.107,583.097,733.92,561.545,744.901,559.104z"/>
									<path fill="#C47947" d="M670.48,597.737c1.626,0,3.254,0.406,5.286,0.406c2.439,0,4.881-0.406,6.508-0.406
										c-1.627,2.848-4.068,4.067-6.913,3.66C672.106,600.585,670.48,598.144,670.48,597.737z"/>
									<path fill="#C47947" d="M672.106,621.73c0-0.406,2.034,0.408,5.287,0.408c4.473,0,6.507-0.814,6.507-0.408
										c0,0.408-2.847,2.441-6.507,2.441C674.141,623.766,672.106,622.139,672.106,621.73z"/>
									<path fill="#C47947" d="M661.533,610.752c0-0.815,3.66-0.815,12.607-0.815c16.266-0.405,19.928-1.218,19.928-0.405
										c0.405,1.626-10.168,7.318-21.148,6.101C666.82,614.817,661.126,611.972,661.533,610.752z"/>
									<path fill="#17140C" d="M657.873,551.783c-7.727-0.406-9.353-1.22-12.2-0.406c-5.286,1.219-7.728,4.881-8.54,4.473
										c-0.406-0.813,2.033-5.286,6.913-7.726c1.627-0.814,3.659-1.221,7.319-1.627c3.662-0.406,8.541-0.406,15.047,0.813
										c0.408,0.814,0.814,2.034,0.408,3.66c0,0.813-0.408,1.221-0.813,1.626C663.973,552.19,661.126,551.783,657.873,551.783z"/>
									<path fill="#17140C" d="M694.88,551.783c7.728-0.406,9.354-1.22,12.199-0.406c5.288,1.219,7.729,4.881,8.54,4.473
										c0.409-0.813-2.032-5.286-6.913-7.726c-1.627-0.814-3.659-1.221-7.319-1.627c-3.659-0.406-8.539-0.406-15.047,0.813
										c-0.405,0.814-0.813,2.034-0.405,3.66c0,0.813,0.405,1.221,0.812,1.626C688.372,552.19,691.221,551.783,694.88,551.783z"/>
									<g>
										<path fill="#FFFFFF" d="M686.34,566.017c1.627,1.221,4.881,3.253,9.354,4.067c7.319,1.219,13.012-2.441,14.64-3.659
											c-2.439-2.848-5.287-4.88-8.541-6.101c-1.219-0.407-2.846-1.221-5.287-0.814
											C691.221,559.917,687.154,564.798,686.34,566.017z"/>
										<path fill="#513328" d="M689.593,563.577c0,3.254,3.255,6.101,6.508,6.101c3.254,0,6.913-2.847,6.507-6.507
											c0-1.221-0.406-2.035-1.221-2.847c-0.813-0.407-2.032-0.813-2.847-0.813c-1.219,0-2.439,0-3.66,0.405
											c-0.812,0-1.221,0.407-1.627,0.813c-1.22,0.406-2.439,1.221-3.253,2.034C689.593,563.171,689.593,563.577,689.593,563.577
											z"/>
										<path d="M699.354,564.39c0,2.035-1.628,3.253-3.66,3.253c-1.626-0.405-3.254-2.032-2.847-4.065
											c0-2.032,1.626-3.253,3.658-3.253C698.134,560.324,699.354,562.356,699.354,564.39z"/>
										<path fill="#FFFFFF" d="M700.574,563.171c0,0.813-0.813,1.219-1.627,1.219s-1.221-0.813-1.221-1.626
											s0.813-1.219,1.221-1.219C700.166,561.545,700.981,562.356,700.574,563.171z"/>
										<path fill="#3B2314" d="M686.34,566.017c1.221-1.219,4.474-4.472,9.761-5.287c8.134-1.22,13.826,4.881,14.233,5.695
											c-4.474-6.915-11.794-9.354-17.486-6.915C689.188,561.136,687.154,564.798,686.34,566.017z"/>
									</g>
									<g>
										<path fill="#FFFFFF" d="M666.82,566.017c-1.22,0.814-8.134,6.101-16.268,3.661c-2.439-0.814-4.474-2.035-5.692-3.253
											c1.625-2.848,4.065-4.475,6.505-5.695c2.441-1.22,5.289-1.22,8.134-0.405c0.815,0.405,1.627,0.405,1.627,0.812
											C664.38,562.356,666.007,564.798,666.82,566.017z"/>
										<path fill="#513328" d="M661.126,564.39c0.407,3.661-2.847,6.101-5.692,6.101c-2.848,0-6.508-2.439-6.101-6.507
											c0-1.22,0.406-2.033,0.813-2.848c2.439-1.219,5.287-1.219,8.133-0.406c0.814,0,1.22,0.406,1.627,0.815
											C660.72,561.95,661.126,563.171,661.126,564.39z"/>
										<path d="M650.959,564.798c0.406,2.033,2.033,3.66,3.659,3.253c1.628,0,2.849-2.034,2.441-4.067
											c-0.405-2.033-2.032-3.659-3.659-3.254C651.773,561.136,650.959,562.764,650.959,564.798z"/>
										<path fill="#FFFFFF" d="M655.027,563.171c0,0.813,0.812,1.219,1.219,1.219c0.813,0,1.221-0.813,0.813-1.626
											c0-0.813-0.813-1.219-1.221-1.219C655.434,561.95,655.027,562.356,655.027,563.171z"/>
										<path fill="#3B2314" d="M666.82,566.017c-0.408-0.813-5.289-6.1-12.607-5.287c-5.287,0.815-8.54,4.475-9.353,5.287
											c0.406-1.219,2.439-5.692,6.505-7.319C656.654,557.07,663.159,559.917,666.82,566.017z"/>
									</g>
								</g>
							</g>
						</g>
						<path fill="#0A338E" d="M720.907,637.998c-2.034,3.254-4.879,8.134-10.166,12.605c-5.694,5.288-11.794,8.134-15.861,9.354
							c2.847,2.034,9.354,7.728,12.199,17.081c1.627,5.692,1.627,10.167,1.627,13.42c4.881-5.692,10.167-13.826,15.048-24.399
							c3.253-6.915,4.88-13.828,6.101-19.114c-1.221-1.627-2.848-3.255-4.474-4.881C724.16,640.438,722.535,639.219,720.907,637.998
							z"/>
						<path fill="#0A338E" d="M666.007,641.658c-1.627,0.814-2.848,1.627-4.881,3.253c-3.253,2.439-5.287,4.881-6.913,6.913
							c1.221,4.475,2.847,9.354,4.474,13.827c3.254,8.54,6.507,16.268,9.761,23.181c1.625-4.88,3.659-10.572,6.505-16.268
							c2.035-4.065,4.068-8.132,6.102-11.386c-1.627-0.813-10.981-4.067-13.826-13.014
							C666.412,645.318,666.007,643.285,666.007,641.658z"/>
						<path fill="#0A338E" d="M681.054,660.771l1.626,9.354c0.406,1.626,0.813,2.847,1.221,4.474l1.219,4.473l-2.033-4.473
							c-0.406-1.627-1.22-2.848-2.032-4.474l-3.254-8.947L681.054,660.771z"/>
						<path fill="#0A338E" d="M695.287,659.958c-3.254,6.508-6.506,13.015-9.76,19.521v-0.406
							c-0.813,10.98-1.627,21.96-2.034,32.941c-0.813,10.979-1.219,21.96-1.627,32.938c-1.219,21.961-1.628,43.922-2.033,65.882
							l-0.406-0.406c6.508,0.406,12.606,0.406,19.113,0.812c-6.507,0-12.606,0-19.113,0.409h-0.407v-0.814
							c0-10.979-0.405-21.96-0.405-32.939c0-10.981,0.405-21.961,0.813-32.942c0.406-10.979,1.221-21.96,2.032-32.938
							c0.815-10.981,2.034-21.961,3.254-32.941l0,0l0,0C687.967,672.564,691.627,666.06,695.287,659.958z"/>
					</g>
				</g>
			</g>
		</g>
	</g>
</g>
</svg>
