<?xml version="1.0" encoding="utf-8"?>
<!-- Generator: Adobe Illustrator 16.0.0, SVG Export Plug-In . SVG Version: 6.00 Build 0)  -->
<!DOCTYPE svg PUBLIC "-//W3C//DTD SVG 1.1//EN" "http://www.w3.org/Graphics/SVG/1.1/DTD/svg11.dtd">
<svg version="1.1" id="Layer_1" xmlns="http://www.w3.org/2000/svg" xmlns:xlink="http://www.w3.org/1999/xlink" x="0px" y="0px"
	 width="1080px" height="1080px" viewBox="0 0 1080 1080" enable-background="new 0 0 1080 1080" xml:space="preserve">
<g>
	<g>
		<g>
			<defs>
				<path id="SVGID_1_" d="M27.574,642.809c-7.83-36.766-4.936-98.213,32.511-133.787c111.83-106.383,218.213-11.574,239.66-126.298
					c19.745-105.873,94.468-208.681,230.468-175.66c174.809,42.553,155.404,163.064,241.191,153.872
					c85.787-9.021,232.511-76.425,259.063,51.234c26.554,127.66-97.872,237.106-18.553,228.256
					c11.404,0.681,43.745,4.085,54.979,25.531c12.255,23.49-7.83,55.319-16,68.086c-52.937,83.404-376.511,204.936-745.191,95.659
					C204.766,799.915,50.894,752.085,27.574,642.809z"/>
			</defs>
			<clipPath id="SVGID_2_">
				<use xlink:href="#SVGID_1_"  overflow="visible"/>
			</clipPath>
			<path clip-path="url(#SVGID_2_)" fill="#A5766B" d="M1081.361,768.255c-5.105,19.234-13.957,36.937-25.701,52.426
				c-28.256,37.617-73.703,61.787-124.256,61.787H311.659c-63.319,0-122.553-20.596-170.893-55.829
				c-20.766-15.149-39.49-33.021-55.49-53.277C56,736.596,35.404,692.17,27.574,642.979c-8.34-51.574-2.383-100.426,32.511-133.787
				c111.83-106.383,218.213-11.574,239.66-126.298c19.745-105.872,94.468-208.681,230.468-175.66
				c174.809,42.553,155.404,163.064,241.191,153.873c85.787-9.021,232.511-76.426,259.063,51.234
				c26.554,127.659-97.872,237.106-18.553,228.255c54.979,6.128,73.191,41.872,74.553,83.915
				C1086.809,739.659,1084.937,754.298,1081.361,768.255z"/>
		</g>
	</g>
	<g>
		<g>
			<defs>
				<path id="SVGID_3_" d="M27.574,642.809c-7.83-36.766-4.936-98.213,32.511-133.787c111.83-106.383,218.213-11.574,239.66-126.298
					c19.745-105.873,94.468-208.681,230.468-175.66c174.809,42.553,155.404,163.064,241.191,153.872
					c85.787-9.021,232.511-76.425,259.063,51.234c26.554,127.66-97.872,237.106-18.553,228.256
					c11.404,0.681,43.745,4.085,54.979,25.531c12.255,23.49-7.83,55.319-16,68.086c-52.937,83.404-374.809,212.425-743.489,103.148
					C206.638,807.404,50.894,752.085,27.574,642.809z"/>
			</defs>
			<clipPath id="SVGID_4_">
				<use xlink:href="#SVGID_3_"  overflow="visible"/>
			</clipPath>
			<path clip-path="url(#SVGID_4_)" fill="#996053" d="M1302.298,647.063c0,0-20.937,95.83-38.639,136.171
				c-42.553,97.361-110.638,160.511-187.063,160.511H143.489c-95.319,0-184.681-53.277-257.191-144.511
				c-31.149-39.319-83.574-138.213-83.574-138.213L1302.298,647.063z"/>
		</g>
	</g>
	<g>
		<g>
			<defs>
				<path id="SVGID_5_" d="M27.574,642.809c0-0.511-0.17-0.681-0.17-1.021c-2.042-11.234-14.468-87.83,32.681-132.766
					c111.83-106.383,218.213-11.574,239.66-126.298c19.745-105.873,94.468-208.681,230.468-175.66
					c174.809,42.553,155.404,163.064,241.191,153.872c85.787-9.021,232.511-76.425,259.063,51.234
					c26.554,127.66-97.872,237.106-18.553,228.256c10.383,1.021,36.426,5.106,47.148,24.17c13.617,24-6.127,57.021-14.638,71.489
					c-37.106,62.468-185.873,141.106-422.469,141.106c0,0-311.489,10.213-514.553-130.383
					C86.298,732.17,38.127,698.809,27.574,642.809z"/>
			</defs>
			<clipPath id="SVGID_6_">
				<use xlink:href="#SVGID_5_"  overflow="visible"/>
			</clipPath>
			<g clip-path="url(#SVGID_6_)">
				<g>
					<g>
						<g>
							<g opacity="0.15">
								<g>
									<g>
										<g>
											<defs>
												<rect id="SVGID_7_" x="266.042" y="638.894" width="29.106" height="179.404"/>
											</defs>
											<clipPath id="SVGID_8_">
												<use xlink:href="#SVGID_7_"  overflow="visible"/>
											</clipPath>
											<rect x="266.042" y="638.894" clip-path="url(#SVGID_8_)" fill="#281010" width="29.106" height="179.404"/>
										</g>
									</g>
								</g>
							</g>
						</g>
						<g>
							<g>
								<g opacity="0.15">
									<g>
										<g>
											<g>
												<defs>
													<rect id="SVGID_9_" x="784" y="638.894" width="29.106" height="179.404"/>
												</defs>
												<clipPath id="SVGID_10_">
													<use xlink:href="#SVGID_9_"  overflow="visible"/>
												</clipPath>
												<rect x="784" y="638.894" clip-path="url(#SVGID_10_)" fill="#281010" width="29.106" height="179.404"/>
											</g>
										</g>
									</g>
								</g>
							</g>
							<path fill="#381B19" d="M608.511,642.979H467.404l-6.979-100.426c-1.532-21.616,15.659-40,37.446-40h80
								c21.787,0,38.809,18.384,37.447,40L608.511,642.979z"/>
							<g>
								<g>
									<rect x="370.213" y="402.128" fill="#7A574E" width="3.744" height="240.511"/>
								</g>
								<g>
									<path fill="#7A574E" d="M370.213,413.532v8.17l3.744-1.532v-15.829C373.957,404.341,372.937,409.617,370.213,413.532"/>
								</g>
								<g>
									<path fill="#7A574E" d="M373.957,404.341c0,0-1.872,7.659-15.489,29.616c-13.787,21.958-35.233,64.341-13.276,109.277
										c6.128,13.106,17.191,56-10.724,90.723h43.575c0,0,22.468-53.787,6.127-113.191
										C367.659,461.361,377.872,417.617,373.957,404.341"/>
								</g>
								<g>
									<path fill="#7A574E" d="M370.383,391.745l-1.872,5.617c-0.852,2.383,1.021,5.106,3.574,5.106
										c2.724,0,4.426-2.553,3.574-5.106l-1.872-5.617C373.276,390.042,370.894,390.042,370.383,391.745"/>
								</g>
								<g>
									<rect x="373.787" y="402.128" fill="#7B889B" width="3.745" height="240.511"/>
								</g>
								<g>
									<path fill="#6B7B8E" d="M373.787,413.532v8.17l3.745-1.532v-15.829C377.532,404.341,376.341,409.617,373.787,413.532"/>
								</g>
								<g>
									<rect x="373.787" y="402.128" fill="#6B7B8E" width="3.745" height="1.872"/>
								</g>
								<g>
									<path fill="#BDD8FF" d="M377.532,404.341c0,0,0.34,7.659-13.447,29.616c-13.787,21.958-26.383,64.341-4.426,109.277
										c6.128,13.106,15.489,56-12.596,90.723h34.554c0,0,22.468-53.787,6.128-113.191
										C371.234,461.361,381.276,417.617,377.532,404.341"/>
								</g>
								<g>
									<path fill="#ACCFF9" d="M359.659,543.404c-0.851-1.702-1.702-3.574-2.383-5.276c2.383,3.404,9.021,12.766,12.596,17.872
										c4.085,6.128,26.043,40.681-5.957,77.957h-16.852C375.148,599.234,365.787,556.511,359.659,543.404"/>
								</g>
								<g>
									<path fill="#D7E9FF" d="M393.021,550.553c-8.511-13.616-22.298-20.936-29.447-31.659
										c-12.085-18.043-7.148-46.128,3.064-67.745c7.318-15.489,10.383-32,11.744-40c0.681,18.213-4.936,58.213,9.361,109.788
										C390.468,530.979,392.17,540.852,393.021,550.553"/>
								</g>
								<g>
									<path fill="#7B889B" d="M373.957,391.745l-1.872,5.617c-0.851,2.383,1.021,5.106,3.574,5.106
										c2.724,0,4.426-2.553,3.575-5.106l-1.873-5.617C376.852,390.042,374.468,390.042,373.957,391.745"/>
								</g>
								<g>
									<path fill="#8897AA" d="M371.574,398.894c6.128-0.17,4.767-6.979,4.256-9.191c-0.682,0-1.021,0.17-1.362,1.021
										l-2.723,7.829C371.574,398.553,371.574,398.724,371.574,398.894"/>
								</g>
								<g>
									<rect x="708.426" y="402.128" fill="#7A574E" width="3.744" height="240.511"/>
								</g>
								<g>
									<path fill="#7A574E" d="M712.17,413.532v8.17l-3.744-1.532v-15.829C708.426,404.341,709.447,409.617,712.17,413.532"/>
								</g>
								<g>
									<path fill="#7A574E" d="M708.426,404.341c0,0,1.872,7.659,15.489,29.616c13.787,21.958,35.234,64.341,13.276,109.277
										c-6.128,13.106-17.361,56,10.724,90.723h-43.574c0,0-22.469-53.787-6.128-113.191
										C714.724,461.361,704.511,417.617,708.426,404.341"/>
								</g>
								<g>
									<path fill="#7A574E" d="M712,391.745l1.872,5.617c0.852,2.383-1.021,5.106-3.574,5.106c-2.553,0-4.426-2.553-3.574-5.106
										l1.872-5.617C709.276,390.042,711.319,390.042,712,391.745"/>
								</g>
								<g>
									<rect x="705.021" y="402.128" fill="#7B889B" width="3.744" height="240.511"/>
								</g>
								<g>
									<path fill="#6B7B8E" d="M708.596,413.532v8.17l-3.745-1.532v-15.829C705.021,404.341,705.872,409.617,708.596,413.532"/>
								</g>
								<g>
									<rect x="705.021" y="402.128" fill="#6B7B8E" width="3.744" height="1.872"/>
								</g>
								<g>
									<path fill="#CE4A4A" d="M705.021,404.341c0,0-0.341,7.659,13.446,29.616c13.788,21.958,26.384,64.341,4.426,109.277
										c-6.128,13.106-15.489,56,12.596,90.723h-34.553c0,0-22.469-53.787-6.128-113.191S701.106,417.617,705.021,404.341"/>
								</g>
								<g>
									<path fill="#BF3D3D" d="M722.724,543.404c0.851-1.702,1.702-3.574,2.383-5.276c-2.383,3.404-9.021,12.766-12.596,17.872
										c-4.085,6.128-26.043,40.681,5.957,77.957h16.852C707.404,599.234,716.766,556.511,722.724,543.404"/>
								</g>
								<g>
									<path fill="#E55757" d="M689.361,550.553c8.511-13.616,22.298-20.936,29.447-31.659
										c12.085-18.043,7.148-46.128-3.063-67.745c-7.319-15.489-10.384-32-11.745-40c-0.681,18.213,4.937,58.213-9.361,109.788
										C691.915,530.979,690.213,540.852,689.361,550.553"/>
								</g>
								<g>
									<path fill="#7B889B" d="M708.426,391.745l1.872,5.617c0.852,2.383-1.021,5.106-3.574,5.106
										c-2.724,0-4.426-2.553-3.574-5.106l1.872-5.617C705.702,390.042,707.915,390.042,708.426,391.745"/>
								</g>
								<g>
									<path fill="#8897AA" d="M710.979,398.894c-6.127-0.17-4.766-6.979-4.255-9.191c0.681,0,1.021,0.17,1.361,1.021l2.724,7.829
										C710.809,398.553,710.979,398.724,710.979,398.894"/>
								</g>
								<path fill="#381B19" d="M609.021,642.298H467.915l-6.979-100.426c-1.532-21.617,15.659-40,37.446-40h80
									c21.787,0,38.809,18.383,37.447,40L609.021,642.298z"/>
								<g>
									<path fill="#442221" d="M461.276,546.128c2.724-18.043,18.043-32,37.106-32h80c18.894,0,34.554,14.127,37.106,32
										l0.17-4.426c1.532-21.617-15.659-40-37.446-40h-80c-21.787,0-38.809,18.383-37.447,40L461.276,546.128z"/>
									<g>
										<g>
											<g>
												<g id="XMLID_00000039825877086042979950000012372262117348987563_">
													<path fill="#F2C9A0" d="M572.256,526.383c0,8.681-12.937,15.83-28.937,15.83s-28.256-5.787-28.256-14.468
														c0-5.106,7.83-9.532,15.66-12.086v-26.042h25.191v26.042C563.915,518.043,572.256,521.276,572.256,526.383z"/>
													<path fill="#DBAC89" d="M555.915,489.447v22.468c-2.554,1.021-7.489,2.724-13.958,2.213
														c-5.105-0.341-9.021-1.873-11.404-3.234v-21.617h25.362V489.447z"/>
													<path fill="#D3D3D3" d="M543.659,619.319c0,0-37.616-75.574-32-91.404c1.873-6.809,12.937-10.894,12.937-10.894
														s8.681,4.936,18.894,4.936c10.383,0,18.894-4.936,18.894-4.936s10.213,6.638,12.085,13.446
														C580.426,546.298,543.659,619.319,543.659,619.319z"/>
													<g>
														<polygon fill="#FFFFFF" points="557.106,511.404 543.659,521.957 552.511,535.745 562.724,517.021 														"/>
														<polygon fill="#FFFFFF" points="530.383,511.404 543.659,521.957 534.809,535.745 524.766,517.021 														"/>
													</g>
													<path fill="#E4C77B" d="M546.553,647.063c0,1.532-1.361,2.894-2.894,2.894c-1.531,0-2.894-1.361-2.894-2.894
														c0-1.531,1.362-2.894,2.894-2.894C545.361,644,546.553,645.361,546.553,647.063z"/>
													<path fill="#E4C77B" d="M546.553,677.361c0,1.532-1.361,2.895-2.894,2.895c-1.531,0-2.894-1.362-2.894-2.895
														c0-1.531,1.362-2.894,2.894-2.894C545.361,674.468,546.553,675.83,546.553,677.361z"/>
													<g>
														<g>
															<g>
																<path fill="#292937" d="M594.213,528.426c4.936,0,10.042,1.021,13.106,3.744c3.233,2.724,4.766,6.128,6.298,9.532
																	c10.894,24,21.617,47.83,32.511,71.659c-2.043,1.362-4.426,2.384-6.979,3.234c0.34,1.021,0.681,1.872,1.021,2.894
																	c-4.085,1.532-6.298,2.383-12.936,4.085c-3.064,0.681-7.66,0.511-10.894,0.681l0.17,1.362
																	c-6.128,0.17-12.085,0.17-18.213-0.17c0,0-8-58.384-12.937-71.319C580.085,541.021,589.106,528.426,594.213,528.426
																	z"/>
																<path fill="#1E1E29" d="M616.341,624.085c0.681,0,1.191,0,1.872-0.17c-1.191-2.383-4.085-7.319-4.085-7.319
																	S615.83,621.702,616.341,624.085z"/>
																<path fill="#1E1E29" d="M641.191,615.915c-2.724-3.063-8.34-9.021-8.34-9.021s4.425,6.639,6.298,10.043
																	c0-0.171-0.171-0.171-0.171-0.341C639.659,616.426,640.511,616.085,641.191,615.915z"/>
																<path fill="#1E1E29" d="M592,563.319c-0.681-4.426,1.021-11.915,1.532-13.958c0.681-4.766-5.277-6.468-9.021-9.021
																	c-1.021,4.085-1.191,8.851,0.681,13.616c4.937,12.937,12.937,71.319,12.937,71.319
																	c3.233,0.171,6.298,0.341,9.361,0.341c-1.361-1.191-2.383-2.894-2.894-4.937
																	C598.468,600.426,592.681,567.745,592,563.319z"/>
															</g>
														</g>
														<g>
															<g>
																<path fill="#292937" d="M493.447,528.426c-4.937,0-10.043,1.021-13.106,3.744c-3.234,2.724-4.767,6.128-6.298,9.532
																	c-10.895,24-21.617,47.83-32.511,71.659c2.042,1.362,4.425,2.384,6.979,3.234c-0.341,1.021-0.681,1.872-1.021,2.894
																	c4.085,1.532,6.298,2.383,12.937,4.085c3.063,0.681,7.659,0.511,10.894,0.681l-0.171,1.362
																	c6.128,0.17,12.086,0.17,18.213-0.17c0,0,8-58.384,12.937-71.319C507.234,541.021,498.213,528.426,493.447,528.426z
																	"/>
																<path fill="#1E1E29" d="M471.148,624.085c-0.681,0-1.191,0-1.872-0.17c1.191-2.383,4.085-7.319,4.085-7.319
																	S471.659,621.702,471.148,624.085z"/>
																<path fill="#1E1E29" d="M446.298,615.915c2.724-3.063,8.341-9.021,8.341-9.021s-4.426,6.639-6.298,10.043
																	c0-0.171,0.17-0.171,0.17-0.341C447.659,616.426,446.979,616.085,446.298,615.915z"/>
																<path fill="#1E1E29" d="M495.489,563.319c0.681-4.426-1.021-11.915-1.532-13.958
																	c-0.681-4.766,5.277-6.468,9.021-9.021c1.021,4.085,1.191,8.851-0.681,13.616
																	c-4.937,12.937-12.937,71.319-12.937,71.319c-3.233,0.171-6.298,0.341-9.361,0.341
																	c1.361-1.191,2.383-2.894,2.894-4.937C488.852,600.426,494.809,567.745,495.489,563.319z"/>
															</g>
														</g>
														<g>
															<g>
																<path fill="#292937" d="M603.063,707.83c-0.851-1.362-8-136.341-7.829-147.915c0-5.276,10.042-24,6.298-28.766
																	c-3.575-4.767-31.66-11.064-36.256-12.086c-0.34-0.17-0.17,10.384-0.17,24c0,10.384-18.043,19.404-22.639,19.404
																	s-22.638-8.34-22.638-19.063c0-13.447,0.34-23.659,0-23.489c-3.915,1.021-30.809,7.489-34.043,11.744
																	c-3.744,4.767,6.298,23.49,6.298,28.767c0.171,11.744-6.979,146.724-7.829,147.915
																	c-2.213,3.233,6.979,4.936,13.616,4.936c0,0,28.426,2.554,44.256,2.554c16,0,47.319-2.554,47.319-2.554
																	C596.085,712.766,605.276,711.063,603.063,707.83z"/>
															</g>
															<g>
																<path fill="#232330" d="M551.319,559.063h43.915c0.851-6.127,9.702-23.489,6.127-27.914
																	c-3.574-4.767-31.659-11.064-36.255-12.086c-0.341-0.17-0.17,10.384-0.17,24
																	C565.106,549.702,557.787,555.659,551.319,559.063z"/>
																<path fill="#232330" d="M533.447,559.063c-6.469-3.404-13.617-9.191-13.617-16c0-13.446,0.34-23.659,0-23.489
																	c-3.915,1.021-30.809,7.489-34.043,11.745c-3.574,4.426,5.276,21.787,6.128,27.915h41.532V559.063z"/>
															</g>
															<polygon fill="#1E1E29" points="543.489,715.319 543.149,562.128 541.617,562.128 542.639,715.319 															
																"/>
															<polygon fill="#1E1E29" points="524.255,559.063 525.957,559.063 524.085,698.128 															"/>
															<polygon fill="#1E1E29" points="504.341,559.063 506.043,559.063 504.17,681.276 															"/>
															<polygon fill="#1E1E29" points="581.787,559.063 583.319,559.063 581.447,686.894 															"/>
															<polygon fill="#1E1E29" points="561.872,559.063 563.404,559.063 561.532,681.276 															"/>
														</g>
													</g>
												</g>
												<g id="XMLID_00000155834863653535210060000014559734089627266217_">
													<g>
														<g>
															<path fill="#F2C9A0" d="M582.468,469.532c0,1.872-0.511,5.276-2.894,9.191c-1.361,2.383-4.936,7.319-6.638,6.638
																c-1.362-0.511-0.681-4.766,0.681-12.425c1.021-5.277,1.872-7.66,3.915-8.852c0.34-0.17,2.042-1.191,3.233-0.511
																C582.639,464.426,582.468,467.659,582.468,469.532z"/>
															<path fill="#F2C9A0" d="M505.191,467.319c-0.17,0.851-0.681,3.233,1.702,8c0.341,0.851,4.937,9.702,7.489,8.851
																c2.554-0.851,1.361-10.553,1.191-12.596c-0.851-6.638-2.723-8-3.574-8.511c-0.341-0.17-1.702-0.851-3.234-0.511
																C506.043,463.404,505.191,466.809,505.191,467.319z"/>
														</g>
														<path fill="#F2C9A0" d="M541.787,510.894c-1.532,0-3.063-0.17-4.936-0.511c-6.639-1.531-10.724-6.298-12.937-8.681
															c-2.724-3.063-4.085-5.957-5.106-7.83c-6.639-13.787-6.809-29.787-6.468-37.787c0,0,0.681-18.724,7.659-23.83
															c0.681-0.51,1.021-0.681,2.043-1.191c3.233-1.531,7.148-1.531,20.936-4.085c14.639-2.724,18.213-4.085,21.276-3.574
															c0.852,0.17,1.192,0.34,1.532,0.511c8.681,3.404,9.191,20.085,9.532,31.148c0.34,8.511,0.681,27.575-7.66,39.489
															c-1.531,2.043-3.914,4.937-6.468,7.49c-4.596,4.596-6.979,6.979-10.724,8
															C547.404,511.063,544,511.063,541.787,510.894z"/>
													</g>
												</g>
											</g>
											<path fill="#3A2317" d="M572.937,476.17c-0.852-0.17,3.574-9.021,0.17-18.383c-0.511-1.361-2.724-4.085-4.085-8.681
												c-0.341-1.361-0.511-2.383-0.681-3.234c-1.191-0.511-3.234-1.361-5.787-2.213c-12.086-3.744-23.149-2.383-33.873-1.021
												c-2.213,0.34-5.446,0.851-9.361,1.531c0.681,2.383,0.341,4.085,0.17,5.106c-0.34,1.532-1.021,2.724-1.872,4.085
												c-0.681,1.191-1.191,2.043-1.361,2.213c-2.895,4.256-2.213,20.596-2.724,20.596c-0.171,0-0.171-0.511-0.681-2.383
												c-0.341-1.532-0.852-2.724-1.021-3.574c-0.341-2.383-1.532-2.554-2.554-4.937c-0.511-1.191-0.681-2.383-0.851-3.063
												c0-1.362,0.17-3.574,0.34-6.128c0.682-13.787,0.511-14.979,1.021-17.702c0.681-3.915,1.873-9.021,5.787-13.446
												c4.256-4.937,9.873-6.469,15.49-8.171c5.787-1.702,10.383-1.872,14.638-2.042c6.639-0.171,9.872-0.341,13.787,1.021
												c7.66,2.723,11.745,9.021,13.106,11.403c0.17-0.17,0.681-0.34,1.021-0.51c2.724-0.511,6.128,3.404,7.489,6.809
												c1.191,3.063,0.511,8-1.021,17.701c-0.17,0.682-0.511,2.724-0.851,5.277c-0.681,4.085-1.021,5.957-1.021,6.468
												C576.681,469.872,573.787,476.341,572.937,476.17z"/>
										</g>
										<path fill="#3A2317" d="M534.298,466.468c0.17,0.171,0.341,0.511,0.511,1.021c0.17,0.852-0.17,1.532-0.341,1.702
											c-1.361-0.17-2.724-0.34-4.255-0.511c-0.341,0-2.724-0.17-4.596-0.34c-2.043,0-5.277,0-9.362,0.34
											c1.702-1.021,1.532-2.553,5.277-3.233C525.787,465.106,532.256,465.957,534.298,466.468z"/>
										<path fill="#3A2317" d="M560,465.957c3.745,0.511,3.063,1.873,4.766,2.895c-4.085-0.511-7.318-0.511-9.361-0.341
											c-1.872,0-4.085,0.17-4.426,0.341c-1.361,0.17-2.894,0.34-4.085,0.51c-0.17-0.17-0.341-0.851-0.341-1.702
											c0.171-0.511,0.341-0.851,0.511-1.021C548.937,465.787,555.915,465.276,560,465.957z"/>
										<g>
											<g>
												<path fill="#FFFFFF" d="M531.234,477.361c-0.511,0.511-1.873,1.532-3.915,1.702c-3.063,0.341-5.276-1.531-5.787-1.872
													c0-0.17,1.702-2.724,4.936-2.724C529.702,474.639,531.234,477.191,531.234,477.361z"/>
											</g>
											<g>
												<path d="M531.234,477.361c-0.511-0.511-2.213-1.702-4.767-1.702c-2.553,0-4.425,1.191-4.936,1.532
													c1.021-1.702,2.894-2.724,4.936-2.724C529.702,474.468,531.234,477.191,531.234,477.361z"/>
											</g>
											<g>
												<path fill="#563A1F" d="M527.149,475.659c-0.682,0-1.362,0-1.873,0c-0.681,1.021-0.511,2.384,0.341,3.064
													c0.851,0.511,2.042,0.511,2.724-0.171c0.681-0.681,0.681-1.702,0.34-2.553
													C528.17,475.83,527.659,475.659,527.149,475.659z"/>
											</g>
											<g>
												<path d="M526.809,476.341c-0.511,0-0.852,0.34-1.021,0.681c-0.17,0.511,0.17,1.021,0.511,1.361
													c0.681,0.341,1.361-0.17,1.532-0.851C528,477.021,527.489,476.341,526.809,476.341z"/>
											</g>
											<g>
												<path fill="#E8DCD6" d="M526.298,476.341c-0.17,0-0.341,0-0.341,0.17s0,0.341,0.171,0.341c0.17,0,0.34,0,0.511-0.171
													C526.639,476.511,526.468,476.341,526.298,476.341z"/>
											</g>
										</g>
										<g>
											<g>
												<path fill="#FFFFFF" d="M554.724,474.639c1.531,0,2.724,0.511,3.063,0.681c1.191,0.681,1.872,1.531,2.043,2.042
													c-0.341,0.341-2.554,2.384-5.958,2.043c-2.213-0.17-3.574-1.361-4.085-1.872
													C550.128,477.361,551.83,474.809,554.724,474.639z"/>
											</g>
											<g>
												<path d="M553.532,474.809c2.383-0.511,4.766,0.511,6.298,2.553c-0.511-0.34-2.724-1.872-5.787-1.531
													c-2.213,0.17-3.745,1.191-4.256,1.702C550.128,477.191,551.319,475.319,553.532,474.809z"/>
											</g>
											<g>
												<path fill="#563A1F" d="M552.511,476.17c-0.511,0.852-0.341,1.873,0.341,2.554c0.681,0.681,1.872,0.851,2.723,0.17
													c0.852-0.681,1.191-2.042,0.341-3.063c-0.511,0-1.021-0.171-1.702,0C553.532,475.83,552.511,476.17,552.511,476.17z"/>
											</g>
											<g>
												<path d="M553.361,477.702c0.171,0.511,0.852,0.851,1.362,0.681c0.34-0.17,0.681-0.681,0.511-1.191
													c-0.171-0.511-0.511-0.681-1.021-0.681S553.361,477.191,553.361,477.702z"/>
											</g>
											<g>
												<path fill="#E8DCD6" d="M554.553,476.851c0,0.171,0.341,0.341,0.511,0.171c0.171,0,0.171-0.171,0.171-0.341
													s-0.171-0.17-0.341-0.17S554.553,476.681,554.553,476.851z"/>
											</g>
										</g>
										<g>
											<g>
												<g>
													<g opacity="0.2">
														<polygon fill="#E8DCD6" points="534.468,483.83 517.957,483.83 516.085,473.106 536.341,473.106 535.659,477.021 
															535.659,477.532 														"/>
													</g>
													<g>
														<path fill="#42210B" d="M534.809,484.341h-17.191l-1.872-11.745h21.276L534.809,484.341z M518.298,483.489h15.83
															l1.702-10.042h-19.064L518.298,483.489z"/>
													</g>
												</g>
												<g>
													<g opacity="0.2">
														<polygon fill="#E8DCD6" points="563.404,482.979 546.894,482.979 545.021,472.255 565.276,472.255 														"/>
													</g>
													<g>
														<path fill="#42210B" d="M563.745,483.489h-17.192l-1.872-11.744h21.276L563.745,483.489z M547.234,482.639h15.829
															l1.702-10.043h-19.063L547.234,482.639z"/>
													</g>
												</g>
											</g>
											<g>
												<g>
													<path fill="#42210B" d="M536,477.872l-0.341-0.681c0,0,4.937-5.276,10.384-0.511l-0.341,0.852
														C540.596,473.276,536.17,477.702,536,477.872z"/>
												</g>
											</g>
											<g>
												<polygon fill="#42210B" points="516.596,478.383 509.276,464.766 508.596,462.213 517.276,477.872 												"/>
											</g>
											<g>
												<polygon fill="#42210B" points="564.937,477.361 564.426,476.681 578.043,462.553 577.872,463.915 												"/>
											</g>
										</g>
										<path fill="#D8A188" d="M534.809,498.298c0,0.511,3.063,1.021,4.937,1.191c5.106,0.511,9.872-0.511,9.872-1.191
											c0-0.341-1.361-0.341-3.574-0.511C540.937,497.447,534.809,497.617,534.809,498.298z"/>
										<g>
											<path fill="#DBAC89" d="M542.298,494.043c-1.532,0-3.063-1.021-3.063-1.532c0-0.17,1.021,0.17,3.233,0.17
												c2.043,0,3.234-0.511,3.234-0.17S544,494.043,542.298,494.043z"/>
										</g>
										<path fill="#9F0102" d="M536,534.043c1.872,2.723,3.745,5.616,5.787,8.34c-2.383,8.681-4.426,19.064-5.617,30.809
											c-1.531,15.149-1.021,28.426,0.171,39.149c5.446,0,11.063,0.17,16.511,0.17c1.021-10.383,1.531-23.83-0.511-39.149
											c-1.532-12.255-4.426-22.638-7.149-31.148c2.213-2.554,4.426-5.106,6.639-7.83c-1.362-2.042-2.724-4.085-4.085-6.298
											c-1.362-2.042-2.724-4.255-4.086-6.298C541.106,525.872,538.553,529.957,536,534.043z"/>
										<path fill="#3A2317" d="M541.787,495.234c0,0.34,0,0.681,0,1.021c0,0.341-0.17,0.682-0.17,1.021
											c-1.702,0-3.234,0-4.426,0.171c-2.383,0.17-3.234,0.51-3.915,0.851c-0.851,0.341-1.531,0.852-1.872,1.191
											c0.511-0.851,0.851-1.702,1.361-2.553c0.682-0.341,1.702-0.852,2.724-1.191
											C538.043,495.063,540.426,495.063,541.787,495.234z"/>
										<path fill="#3A2317" d="M542.298,495.404c0,0.341-0.17,0.851-0.17,1.361c0,0.171,0,0.341,0,0.511
											c1.872,0,3.404,0.171,4.596,0.341c2.042,0.17,3.063,0.34,3.915,0.851c0.851,0.341,1.531,0.852,1.872,1.191
											c-0.511-0.851-0.852-1.702-1.361-2.553c-0.682-0.341-1.532-0.852-2.724-1.191
											C546.043,495.063,543.83,495.234,542.298,495.404z"/>
									</g>
								</g>
								<g>
									<path fill="#1E1E29" d="M613.276,613.872c-2.042-2.383-6.468-6.979-6.468-6.979s3.404,5.106,4.937,7.83
										c0-0.171-0.171-0.171-0.171-0.341C612.085,614.213,612.596,614.043,613.276,613.872"/>
								</g>
								<g>
									<path fill="#1E1E29" d="M463.659,613.872c2.043-2.383,6.469-6.979,6.469-6.979s-3.404,5.106-4.937,7.83
										c0-0.171,0.17-0.171,0.17-0.341C464.681,614.213,464.17,614.043,463.659,613.872"/>
								</g>
							</g>
							<g>
								<path fill="#E4C77B" d="M540.255,638.553c0,1.192-1.021,2.384-2.383,2.384c-1.191,0-2.383-1.021-2.383-2.384
									c0-1.191,1.021-2.383,2.383-2.383C539.234,636.17,540.255,637.191,540.255,638.553"/>
							</g>
							<g>
								<path fill="#E4C77B" d="M540.255,661.702c0,1.191-1.021,2.383-2.383,2.383c-1.191,0-2.383-1.021-2.383-2.383
									s1.021-2.383,2.383-2.383C539.234,659.489,540.255,660.511,540.255,661.702"/>
							</g>
							<g>
								<path fill="#1E1E29" d="M593.702,620.852c0.511,0,1.021,0,1.532,0c-1.021-1.873-3.234-5.617-3.234-5.617
									S593.361,619.148,593.702,620.852"/>
							</g>
							<g>
								<path fill="#1E1E29" d="M612.766,614.553c-2.042-2.383-6.468-6.979-6.468-6.979s3.404,5.106,4.937,7.83
									c0-0.17-0.171-0.17-0.171-0.341C611.574,614.894,612.085,614.724,612.766,614.553"/>
							</g>
							<g>
								<path fill="#1E1E29" d="M482.213,620.852c-0.511,0-1.021,0-1.532,0c1.021-1.873,3.234-5.617,3.234-5.617
									S482.553,619.148,482.213,620.852"/>
							</g>
							<g>
								<path fill="#1E1E29" d="M463.148,614.553c2.043-2.383,6.469-6.979,6.469-6.979s-3.404,5.106-4.937,7.83
									c0-0.17,0.171-0.17,0.171-0.341C464.17,614.894,463.659,614.724,463.148,614.553"/>
							</g>
							<g>
								<rect x="280.17" y="613.191" fill="#7C5342" width="521.362" height="205.106"/>
							</g>
							<g>
								<rect x="280.17" y="613.191" fill="#724A3B" width="521.362" height="24"/>
							</g>
							<g>
								<path fill="#FFCB7E" d="M528.17,645.191H298.553c-2.724,0-5.106,2.383-5.106,5.106v152.17c0,2.724,2.383,5.106,5.106,5.106
									H528.17c2.724,0,5.106-2.383,5.106-5.106v-152.17C533.276,647.404,530.894,645.191,528.17,645.191"/>
							</g>
							<g>
								<path fill="#724A3B" d="M522.043,650.809H304.17c-2.724,0-5.106,2.383-5.106,5.106v140.937c0,2.723,2.383,5.105,5.106,5.105
									h218.042c2.724,0,5.106-2.383,5.106-5.105V655.915C527.149,653.021,524.937,650.809,522.043,650.809"/>
							</g>
							<path fill="#FFCB7E" d="M548.256,650.128v152.17c0,2.724,2.383,5.106,5.105,5.106h229.617c2.724,0,5.106-2.383,5.106-5.106
								v-152.17c0-2.724-2.383-5.106-5.106-5.106H553.361C550.639,645.191,548.256,647.404,548.256,650.128"/>
							<g>
								<path fill="#724A3B" d="M554.724,655.745v140.936c0,2.724,2.383,5.106,5.106,5.106h217.531c2.724,0,5.106-2.383,5.106-5.106
									V655.745c0-2.724-2.383-5.106-5.106-5.106H559.83C557.106,650.809,554.724,653.021,554.724,655.745"/>
							</g>
							<g>
								<path fill="#6B4337" d="M276.085,621.872v5.277c0,2.894,2.383,5.276,5.277,5.276H800.17c2.894,0,5.277-2.383,5.277-5.276
									v-5.277H276.085z"/>
							</g>
							<g>
								<path fill="#6B4337" d="M514.553,659.659H317.106c-2.554,0-4.596,2.043-4.596,4.596v127.66c0,2.553,2.042,4.596,4.596,4.596
									h197.446c2.554,0,4.596-2.043,4.596-4.596v-127.66C519.148,661.702,517.106,659.659,514.553,659.659"/>
							</g>
							<path fill="#7C5342" d="M511.83,657.787H314.383c-2.553,0-4.596,2.043-4.596,4.596v127.66c0,2.553,2.043,4.596,4.596,4.596
								H511.83c2.553,0,4.596-2.043,4.596-4.596v-127.66C516.426,660,514.383,657.787,511.83,657.787"/>
							<g>
								<path fill="#7F5546" d="M456.511,657.787H314.383c-2.553,0-4.596,2.043-4.596,4.596v81.021
									C438.809,743.063,454.809,679.063,456.511,657.787"/>
							</g>
							<g>
								<path fill="#6B4337" d="M770.043,659.659H572.596c-2.553,0-4.596,2.043-4.596,4.596v127.66c0,2.553,2.043,4.596,4.596,4.596
									h197.447c2.553,0,4.596-2.043,4.596-4.596v-127.66C774.639,661.702,772.596,659.659,770.043,659.659"/>
							</g>
							<path fill="#7C5342" d="M767.319,657.787H569.872c-2.553,0-4.596,2.043-4.596,4.596v127.66c0,2.553,2.043,4.596,4.596,4.596
								h197.447c2.553,0,4.596-2.043,4.596-4.596v-127.66C772.085,660,769.872,657.787,767.319,657.787"/>
							<g>
								<path fill="#7F5546" d="M712,657.787H569.872c-2.553,0-4.596,2.043-4.596,4.596v81.021
									C694.298,743.063,710.298,679.063,712,657.787"/>
							</g>
							<g>
								<path fill="#543730" d="M596.596,682.639H485.106c-9.532,0-17.191-7.83-17.191-17.191c0-9.532,7.83-17.192,17.191-17.192
									h111.489c9.532,0,17.191,7.83,17.191,17.192C613.787,674.979,606.128,682.639,596.596,682.639"/>
							</g>
							<path fill="#8E695C" d="M610.213,665.447c0,7.659-6.128,13.957-13.958,13.957H485.617c-6.469,0-11.745-4.255-13.447-10.213
								c-0.17-1.021-0.511-2.042-0.511-3.063c0-0.171,0-0.511,0-0.681c0-0.171,0-0.511,0-0.682
								c0.341-7.489,6.469-13.276,13.958-13.276h110.639C603.915,651.489,610.213,657.787,610.213,665.447z"/>
							<g>
								<path fill="#543730" d="M510.468,674.468v-2.383c0.171,0,0.511,0,0.852,0c0.511,0,0.851-0.17,1.021-0.34
									c0.17-0.171,0.34-0.682,0.34-1.192v-12.085h2.383v11.915c0,2.724-1.191,4.085-3.574,4.085
									C511.319,674.468,510.809,674.468,510.468,674.468"/>
							</g>
							<g>
								<path fill="#543730" d="M520.852,670.553v-12.085h2.383v12.085c0,1.021,0.511,1.532,1.361,1.532
									c0.852,0,1.361-0.511,1.361-1.532v-12.085h2.384v12.085c0,1.192-0.341,2.213-1.021,2.895
									c-0.681,0.681-1.532,1.021-2.724,1.021s-2.213-0.34-2.724-1.021C521.191,672.766,520.852,671.915,520.852,670.553"/>
							</g>
							<g>
								<path fill="#543730" d="M533.957,674.468v-15.829h3.915c1.191,0,2.213,0.34,2.724,1.021
									c0.681,0.682,1.021,1.532,1.021,2.895v8c0,1.191-0.341,2.212-1.021,2.894c-0.681,0.681-1.532,1.021-2.724,1.021H533.957
									L533.957,674.468z M536.341,672.085h1.531c0.341,0,0.681-0.17,1.021-0.34c0.17-0.171,0.341-0.682,0.341-1.192v-8.34
									c0-0.511-0.171-1.021-0.341-1.191c-0.17-0.171-0.511-0.341-1.021-0.341h-1.531V672.085z"/>
							</g>
							<g>
								<path fill="#543730" d="M547.063,670.553v-8.34c0-1.191,0.341-2.213,1.021-2.894s1.532-1.021,2.724-1.021
									s2.213,0.341,2.724,1.021c0.681,0.681,1.021,1.702,1.021,2.894v1.532h-2.383v-1.702c0-1.021-0.34-1.532-1.191-1.532
									c-1.021,0-1.531,0.511-1.531,1.532v8.51c0,1.021,0.51,1.532,1.531,1.532c0.681,0,1.191-0.511,1.191-1.532v-2.894h-1.021
									v-2.383h3.574v4.937c0,1.191-0.341,2.213-1.021,2.894s-1.532,1.021-2.724,1.021s-2.213-0.341-2.723-1.021
									C547.234,672.766,547.063,671.915,547.063,670.553"/>
							</g>
							<g>
								<polygon fill="#543730" points="559.83,674.468 559.83,658.639 566.639,658.639 566.639,660.852 562.383,660.852 
									562.383,665.276 565.787,665.276 565.787,667.489 562.383,667.489 562.383,672.085 566.639,672.085 566.639,674.468 
																	"/>
							</g>
						</g>
						<g>
							<path fill="#DE9F7E" d="M739.063,701.361c-5.957-2.553-11.233-5.276-15.829-7.829c-0.852,1.531-1.873,2.894-2.724,4.425
								c-9.532-5.105-19.745-11.233-30.468-18.213c-10.724-7.148-20.256-14.468-28.767-21.276c-2.553,1.873-5.106,4.085-7.829,6.298
								c-2.554,2.043-4.767,4.256-6.979,6.298c11.404,12.426,21.617,23.319,30.979,33.362c2.553,2.894,14.638,15.659,27.063,25.191
								c0.341,0.34,1.021,0.851,2.213,1.702c8.34,6.128,15.489,10.894,21.446,14.468c3.404,2.043,8,1.191,10.383-2.043
								c4.426-5.957,7.66-9.531,14.639-21.957c2.213-3.915,4.766-8.17,8-12.766C754.553,707.149,747.234,704.766,739.063,701.361z"
								/>
							<g>
								<g>
									<path fill="#DE9F7E" d="M660.937,657.447c0,0-3.745-5.106-4.937-9.192c-0.341-1.021-0.681-2.212-0.681-2.212
										c-0.511-1.702-0.681-3.234-0.852-4.256c-1.872-0.511-4.085-1.361-6.638-2.724c-2.894-1.531-5.277-3.233-6.979-4.766
										l-2.384-1.361c-23.319-15.83-29.787-17.702-31.318-16.171c-0.171,0.171-0.852,1.021-0.852,2.043
										c-0.17,2.043,2.213,3.745,4.766,5.447c5.788,3.914,11.064,7.148,12.596,8.17c-1.361-0.681-2.894-0.511-4.085,0.34
										c-1.531,1.021-2.042,3.064-1.191,4.937c-0.34,0.17-1.531,0.852-2.042,2.213c-0.682,1.872,0.17,3.404,0.34,3.574
										c-0.511,0.852-1.191,2.383-1.191,4.426c0.17,4.596,4.255,7.148,4.596,7.489c3.404,3.745,9.021,8.681,17.021,12.256
										c3.404,1.531,6.639,2.553,9.532,3.233c3.404,3.063,6.979,6.298,10.383,9.362c4.426-4.256,8.851-8.511,13.446-12.767
										C667.234,664.085,664.17,660.852,660.937,657.447z"/>
									<g>
										<path fill="#CE8065" d="M626.383,655.234c1.702-1.532,1.021-4.767,0.852-4.767c-0.171,0-0.511,0.511-0.511,1.532
											c0,0.341-0.171,1.361-0.852,2.213c-1.361,1.532-3.404,1.361-3.574,1.361c0.17,0.171,0.511,0.341,0.852,0.511
											C624.511,656.255,625.702,655.915,626.383,655.234z"/>
										<path fill="#CE8065" d="M629.106,650.298c1.361-0.851,2.553-5.106,0.511-5.447c-1.021,0.852,1.191,3.064-1.702,4.937
											c-1.872,1.021-4.085-0.17-5.617-1.361c-0.851-0.681-1.702-1.532-2.553-2.213c1.872,3.404,4.766,5.446,7.489,5.106
											C627.574,650.979,628.256,650.809,629.106,650.298z"/>
										<path fill="#CE8065" d="M632.511,644.681c0.681-0.851,0.851-1.702,0.851-2.213c0.171-2.553-1.702-4.425-2.212-4.936
											c-0.682-0.511-1.532-1.191-2.554-1.702c-0.34-0.171-0.851-0.341-0.851-0.341c-0.171,0.17,1.872,1.021,3.233,2.894
											c0.341,0.511,2.043,2.894,1.191,4.596c-0.681,1.021-2.213,1.532-3.063,1.362c-0.341,0-1.021-0.171-1.702-0.511l0,0
											c-1.191-0.852-5.106-4.256-5.276-4.085c-0.171,0.17,2.213,3.063,5.276,5.106c0.511,0.34,1.361,0.851,2.383,0.851
											C630.298,645.872,631.659,645.702,632.511,644.681z"/>
										<path fill="#CE8065" d="M644.937,655.063c-1.532-2.383-4.256-7.318-4.596-13.957c-0.171-2.724,0.17-4.937,0.681-6.809
											c-0.171-0.17-0.511-0.341-0.681-0.511c-0.682,1.872-2.213,7.319,0,13.617
											C641.532,650.979,643.574,653.532,644.937,655.063z"/>
									</g>
								</g>
								<path fill="#DE9F7E" d="M642.894,630.894c0,0.17,0.17,1.872-0.851,2.894c-0.341,0.341-0.682,0.341-0.852,0.511
									c2.213,1.702,4.426,3.404,6.809,5.276c2.383,1.702,4.766,3.575,6.979,5.106c0-3.404-2.042-10.213-2.553-12.255
									c-0.852-2.554-4.766-13.617-4.596-16.171c0-0.17,0-1.021-0.341-1.872c-0.341-0.511-0.851-1.021-1.361-1.021
									c-0.341,0-0.681,0.171-0.852,0.341c-1.531,0.851-3.404,6.128-3.574,6.639c0,1.361,0,2.723,0.17,4.425
									C641.702,627.149,642.213,629.191,642.894,630.894z"/>
							</g>
							<g>
								<path fill="#B7303D" d="M870.298,730.639c26.894,57.531,33.361,111.829,34.724,167.829
									c-2.383-4.085-13.106-10.723-33.532-1.191"/>
								<g>
									<g>
										<path d="M842.383,1109.191c2.213,1.702,4.596,7.319,1.532,10.724c-2.894,3.404-48.171,14.128-59.574,14.638
											c-5.788,0.341-12.086-1.361-15.149-5.105c-1.702-2.043-1.021-5.106,1.361-6.299c6.639-3.404,20.767-8.51,22.299-9.021
											C794.553,1113.617,842.383,1109.191,842.383,1109.191z"/>
										<path fill="#DE9F7E" d="M839.659,1102.383c2.724,5.276,2.384,8.852,1.702,11.064c-1.021,3.063-3.914,8.681-54.298,15.659
											c-3.914,0.511-7.829,0.17-11.404-1.021c-2.212-0.681-4.425-1.361-5.276-3.233c-0.681-1.362-0.34-2.554-0.34-2.895
											c0.34-1.531,1.361-2.723,2.894-3.574c0.851-0.34,1.531-0.851,2.383-1.361c0.511-0.341,0.851-0.511,1.191-0.681
											c3.404-2.043,6.979-4.085,10.383-6.128c3.745-2.383,7.489-4.937,11.063-7.83c4.086-3.404,6.639-5.787,8.511-9.531
											c2.724-5.617,1.873-11.064,1.362-13.617c-4.426-28.766-7.319-57.872-11.234-86.809c-1.191-8-2.553-19.745-3.063-34.383
											c11.915,0,23.829,0,35.744,0c1.362,3.915,3.063,9.361,4.596,16c4.256,18.213,4.937,34.042,4.767,44.596
											c-0.511,19.744-4.256,40.511-4.596,58.213c-0.171,5.787,0.34,9.531,1.531,13.957
											C836.426,1095.915,838.298,1099.83,839.659,1102.383z"/>
										<path d="M802.043,1130.298c-1.021-2.213-5.277-11.234-15.149-14.639c-2.894-1.021-5.617-1.191-7.83-1.191
											c1.192-1.191,2.724-2.383,4.256-3.574c3.574-2.553,7.148-4.255,10.042-5.446c2.724,0.51,6.299,1.531,10.043,3.574
											c9.021,5.106,13.276,12.936,14.809,16.34C812.937,1127.063,807.489,1128.766,802.043,1130.298z"/>
									</g>
									<g>
										<path d="M894.128,1113.617c2.212,1.702,4.596,7.319,1.532,10.724c-2.895,3.404-48.171,14.127-59.575,14.638
											c-5.787,0.341-12.085-1.361-15.148-5.106c-1.702-2.042-1.021-5.106,1.361-6.298c6.639-3.404,20.767-8.511,22.298-9.021
											C846.468,1118.043,894.128,1113.617,894.128,1113.617z"/>
										<path fill="#DE9F7E" d="M891.404,1106.809c2.724,5.276,2.383,8.851,1.702,11.063c-1.021,3.064-3.915,8.681-54.298,15.66
											c-3.915,0.511-7.83,0.17-11.404-1.021c-2.213-0.681-4.426-1.361-5.276-3.234c-0.681-1.361-0.341-2.553-0.341-2.894
											c0.341-1.532,1.361-2.724,2.894-3.574c0.852-0.341,1.532-0.852,2.383-1.361c0.511-0.341,0.852-0.511,1.192-0.682
											c3.404-2.042,6.979-4.085,10.383-6.127c3.744-2.383,7.489-4.937,11.063-7.83c4.085-3.404,6.639-5.787,8.511-9.532
											c2.724-5.616,1.872-11.063,1.361-13.616c-4.426-28.767-7.318-57.873-11.233-86.809c-1.192-8-2.554-19.745-3.064-34.384
											c11.915,0,23.83,0,35.745,0c1.361,3.915,3.063,9.362,4.596,16c4.255,18.213,4.936,34.043,4.766,44.597
											c-0.511,19.744-4.255,40.51-4.596,58.212c-0.17,5.788,0.341,9.532,1.532,13.958
											C888.341,1100.341,890.043,1104.255,891.404,1106.809z"/>
										<path d="M853.957,1134.724c-1.021-2.213-5.276-11.234-15.148-14.639c-2.894-1.021-5.617-1.191-7.83-1.191
											c1.191-1.191,2.724-2.383,4.256-3.574c3.574-2.554,7.148-4.255,10.042-5.447c2.724,0.511,6.298,1.532,10.043,3.575
											c9.021,5.105,13.276,12.936,14.809,16.34C864.852,1131.489,859.404,1133.191,853.957,1134.724z"/>
									</g>
									<path fill="#FFFFFF" d="M770.043,841.787c-0.341,33.361,0.681,59.915,1.702,78.298c0,0,0.681,12.426,5.616,44.596
										c1.191,8.171,2.724,16.852,7.489,27.234c3.234,6.638,6.469,13.446,12.597,18.213c15.148,11.744,37.957,3.744,41.361,2.383
										c0.17-2.554,0.34-5.276,0.34-8c0.171-8.17,0-15.83-0.51-22.979c3.233,10.553,6.468,21.106,9.531,31.829
										c2.383,1.021,19.745,8.341,35.745-0.851c6.638-3.745,10.553-9.021,12.766-12.426c4.256-21.446,7.66-47.319,7.83-76.596
										c0.341-44.766-6.809-82.383-14.468-110.298c-17.362-0.17-40.341,1.361-66.384,8.17
										C801.872,826.809,783.83,834.639,770.043,841.787z"/>
									<g>
										<path fill="#D3D3D3" d="M838.639,953.447c11.914,9.361,24.34,16.681,38.298,22.808
											C861.276,977.787,844.766,967.915,838.639,953.447L838.639,953.447z"/>
									</g>
									<g>
										<path fill="#D3D3D3" d="M836.256,961.276c8.681,12.426,18.553,22.979,30.127,33.021
											C850.894,991.063,837.957,976.937,836.256,961.276L836.256,961.276z"/>
									</g>
									<g>
										<path fill="#D3D3D3" d="M842.724,938.979c9.872,8.511,20.085,14.809,32.17,19.234
											C861.617,961.617,846.298,952.256,842.724,938.979L842.724,938.979z"/>
									</g>
									<g>
										<path fill="#D3D3D3" d="M823.66,960.937c0.51,13.106-13.617,23.489-26.043,21.446
											C807.83,976.596,816.852,970.639,823.66,960.937L823.66,960.937z"/>
									</g>
									<g>
										<path fill="#D3D3D3" d="M817.702,950.213c1.361,12.085-11.063,21.957-22.468,22.298
											C803.063,965.021,811.574,959.404,817.702,950.213L817.702,950.213z"/>
									</g>
									<g>
										<path fill="#D3D3D3" d="M828.937,967.234c3.233,12.085-8,23.829-19.234,26.213
											C816.511,984.596,824.511,977.617,828.937,967.234L828.937,967.234z"/>
									</g>
									<path fill="#FFFFFF" stroke="#D3D3D3" stroke-width="1.8643" stroke-miterlimit="10" d="M838.468,840.596
										c1.532,39.149,2.894,78.468,4.426,117.617c-0.681,1.532-3.233,6.809-8.511,8.681c-6.127,2.213-13.446-1.191-18.213-8.511
										c-5.446-28.426-9.191-62.127-8.681-99.574c0.171-9.702,0.511-19.063,1.191-28.085
										C818.724,833.957,828.596,837.191,838.468,840.596z"/>
								</g>
								<g>
									<path fill="#D34047" d="M721.872,689.447c14.128,7.318,28.256,14.638,42.383,21.957
										c11.404-24.852,22.639-49.532,34.043-74.383c-2.213-4.256-6.979-12.426-16.341-18.894
										c-6.298-4.256-12.255-6.469-16.51-7.489c-0.341,0.34-0.682,0.681-1.021,1.191c-0.511,0.681-0.852,1.191-1.191,1.702
										c-6.128,11.574-12.256,23.148-18.724,34.723C737.021,662.213,729.361,676,721.872,689.447z"/>
									<path fill="#B7303D" d="M725.447,676c5.957,3.404,12.255,6.639,19.063,9.872c10.894,5.276,21.276,9.532,31.148,12.937
										c-3.744,5.617-7.489,11.063-11.233,16.681c-9.021-3.745-18.383-7.83-27.915-12.255
										c-7.149-3.404-13.958-6.809-20.426-10.043C718.979,687.404,722.213,681.787,725.447,676z"/>
								</g>
								<path fill="#DE9F7E" d="M786.383,621.872c1.532,21.958,24.17,37.277,45.277,35.745
									c21.616-1.532,41.872-20.937,39.659-42.043c-2.043-19.574-22.639-29.617-24.171-30.298
									c-3.744-1.872-15.659-7.148-29.616-3.574C800.511,586.128,785.191,602.639,786.383,621.872z"/>
								<path fill="#D34047" d="M890.213,785.447c3.404,17.701,6.468,36.425,9.191,56.34c2.553,19.745,4.426,38.639,5.617,56.681
									c0.511,0,1.702,0,3.063-0.511c1.532-0.681,2.383-1.872,2.554-2.383c-7.149-45.617-14.299-91.063-21.277-136.681"/>
								<path fill="#D34047" d="M766.128,900.341c14.127,4.425,36.766,9.531,56.511,10.553c32.17,1.532,58.383-5.446,74.723-11.404
									c-1.191-17.702-2.723-33.191-3.914-45.787c-4.426-41.872-8.852-67.574-10.213-74.553c-1.021-5.277-1.873-9.532-2.383-12.426
									c-1.703-7.66-3.915-15.149-5.447-22.809c-1.702-9.191-1.361-18.043,0.34-26.724c2.043-9.532,5.788-18.724,10.554-27.574
									c6.979-12.937,8.851-18.724,9.532-22.639c0.681-4.085,1.021-7.148,1.021-8.851c0.17-1.532,0.17-3.234,0.17-4.937
									c0.681-16.34,0.851-36.255,0.851-44.596c-0.17-1.702-0.851-4.085-2.213-6.468c-2.723-4.596-7.829-8.511-32.511-14.298
									c-3.914-1.021-9.361-2.213-15.829-3.404c-1.191-0.511-2.384-1.021-3.575-1.532c-1.872-0.851-3.574-1.872-5.105-2.724
									c-0.171,1.362-0.341,3.064-0.852,5.277c0,0-1.532,6.127-5.447,11.744c-6.809,9.702-19.063,13.958-20.936,14.639
									c-1.361,4.766-2.724,10.042-3.574,15.829c-0.511,3.234-0.852,6.469-1.191,9.362c-1.021-7.83-2.043-15.66-3.064-23.489
									c-1.531-1.191-3.404-3.234-4.766-6.128c-3.745-7.83-0.341-15.319,0.34-17.021c-7.318,5.276-13.957,8.681-18.383,11.064
									c-6.468,3.404-12.425,6.127-15.659,9.361c-1.532,1.532-2.383,3.063-2.554,4.937c0,1.021,0,1.702,0.171,2.212
									c3.574,32.852,6.128,60.256,7.829,80.341c3.745,41.702,4.086,48.852,3.404,55.659c-2.723,30.809-4.596,45.788-6.468,68.086
									c-1.191,14.298-1.872,21.446-2.213,30.468c0,1.532-0.17,3.063-0.17,4.426C764.937,873.617,765.447,888.255,766.128,900.341z
									"/>
								<g>
									<path fill="#B7303D" d="M803.915,613.361c4.596,22.469,6.638,45.617,5.276,68.596v0.682h-0.511
										c-3.404-0.341-6.809-0.511-10.213-0.682c3.404-0.17,6.809-0.34,10.213-0.51l-0.681,0.51
										c-0.34-11.404-0.852-22.979-1.532-34.383C805.957,636.341,804.426,624.596,803.915,613.361L803.915,613.361z"/>
								</g>
								<path fill="#B7303D" d="M801.872,670.383c-0.34,0.511-0.17,1.362,0,1.873c0.511,0.851,1.362,1.191,2.213,0.851
									c0.511-0.17,1.021-0.851,1.021-1.702c0-1.021-0.681-1.702-1.362-1.872C803.063,669.191,802.383,669.532,801.872,670.383z"/>
								<path fill="#B7303D" d="M801.021,652.681c-0.341,0.511-0.17,1.362,0,1.872c0.511,0.852,1.361,1.192,2.213,0.852
									c0.51-0.17,1.021-0.852,1.021-1.702c0-1.021-0.682-1.702-1.362-1.872C802.043,651.489,801.361,651.83,801.021,652.681z"/>
								<path fill="#B7303D" d="M800.17,634.298c-0.34,0.511-0.17,1.361,0,1.872c0.511,0.852,1.362,1.191,2.213,0.852
									c0.511-0.171,1.021-0.852,1.021-1.702c0-1.021-0.681-1.702-1.361-1.872C801.361,633.276,800.511,633.447,800.17,634.298z"/>
								<path fill="#FCB856" d="M777.021,606.043c0.511-6.639,5.276-7.319,6.809-6.809c1.361-3.234,3.915-4.596,6.638-3.404
									c0.511-2.213,4.767-4.085,5.958-3.064c0,10.724,3.914,114.724,15.659,152.852c0.681,3.404-19.915,14.809-27.744,8.34
									C783.319,749.021,771.915,636,777.021,606.043z"/>
								<path fill="#DE9F7E" d="M898.383,813.532c-1.021,3.574-2.043,7.319-2.894,10.894c0.681,2.894,1.532,7.148,1.532,12.085
									c0,2.894,0.511,6.638-1.361,10.724c-2.895,6.468-3.915,10.723-8.512,13.106c-0.681,0.851-1.701,1.872-3.404,2.894
									c-2.212,1.191-4.255,1.531-5.446,1.531c-8.681,1.702-11.234,1.021-11.574,0c-0.341-0.851,0.341-2.383,1.361-3.404
									c0.852-0.851,1.872-1.021,2.724-1.361c2.553-1.021,3.915-3.063,4.766-4.255c2.554-3.745,2.213-7.83,2.043-9.191
									c-0.17-0.852-0.681-5.788-2.213-5.958c-0.34,0-1.021,0.17-1.872,1.702c-0.341,1.702-0.852,3.745-1.872,6.128
									c-0.682,1.531-1.362,2.894-2.043,3.915c-0.341,0.34-4.596,4.085-6.298,4.085c-0.341,0-0.681,0-0.851-0.17
									c-0.512-0.341-0.852-1.021-0.682-1.532c0-1.021,0.511-1.702,0.511-1.872c1.362-2.043,3.234-13.788,3.745-16.341
									c0.851-4.255,3.404-10.554,10.894-18.554c0-3.914,0.17-7.659,0.17-11.574C884.256,808.596,891.234,810.979,898.383,813.532z
									"/>
								<path fill="#DE9F7E" d="M861.106,631.915c-4.255,24,5.106,58.894,6.468,63.489c2.554,8.851,6.469,21.276,12.426,35.744
									c-0.852,12.256-1.532,24.852-2.043,37.617c-0.681,16.852-1.021,33.021-1.021,48.852c3.233,1.191,6.298,2.383,9.531,3.574
									c3.064,1.021,6.128,2.213,9.021,3.234c4.085-13.787,9.191-33.191,13.447-56.852c3.233-17.191,4.936-26.723,5.787-39.829
									c0.851-12.596-6.979-35.915-9.702-83.234c0,0-3.574-27.063-16.852-37.106c-2.723-2.043-5.276-2.043-5.276-2.043
									c-2.042,0-3.915,0.852-5.957,2.384C873.872,610.128,864.17,614.894,861.106,631.915z"/>
								<path fill="#D34047" d="M919.148,711.063c-6.127,2.384-13.446,4.767-21.787,6.639c-11.574,2.553-22.127,3.404-30.638,3.574
									c-5.617-20.085-9.702-37.446-12.426-50.724c-4.596-22.298-5.446-31.489-3.233-42.212
									c0.851-4.426,6.127-28.256,19.063-30.979c4.766-1.021,12.255,0.511,15.659,1.191c4.256,0.852,7.66,2.043,10.043,2.895
									c1.531,4.425,4.085,11.744,6.639,20.766c4.766,16.851,6.127,27.744,11.404,57.872
									C914.894,687.063,916.766,697.787,919.148,711.063z"/>
								<path fill="#B7303D" d="M918.468,696.426c-7.829,1.702-16,3.404-24.681,4.936c-10.894,1.873-21.446,3.234-31.319,4.256
									c1.532,6.298,3.234,12.596,4.767,18.894c7.659,0.511,17.872,0.341,29.617-1.872c10.383-2.043,18.893-5.106,25.531-8
									C921.021,708.511,919.83,702.383,918.468,696.426z"/>
								<path fill="#B7303D" d="M803.915,613.361c-1.362-1.361-4.256-4.596-5.617-9.361c-1.872-6.639,0.511-12.085,1.191-13.787
									c-1.021,0.681-2.213,1.191-3.233,1.872c-1.192,0.511-1.532,4.937-1.703,6.298c-0.681,4.426,0,5.787,1.192,17.532
									c0.34,3.404,0.511,6.128,1.361,6.128c0.511,0,0.681-1.702,2.724-4.086c0.681-0.851,1.021-1.361,1.702-1.702
									c1.021-0.851,1.872-1.191,2.212-2.212C803.915,613.872,803.915,613.532,803.915,613.361z"/>
								<g>
									<path fill="#DE9F7E" d="M798.639,598.213c12.766,9.872,44.255-14.298,43.063-15.149c-8-5.106-7.659-18.553-6.298-30.298
										c0.511-4.596,1.191-8.851,1.702-12.255c-7.83-2.383-28.426-1.532-36.596,13.617c-3.063,5.617-4.255,13.276-2.383,23.659
										c0.851,1.872,1.531,3.574,1.702,5.276c0,0,0,0,0,0.171C800.681,590.553,797.617,596.681,798.639,598.213z"/>
									<path fill="#D38A6A" d="M797.787,577.957c0.852,1.873,1.532,3.575,1.702,5.277c0,0,0,0,0,0.17
										c1.362-0.341,3.234-0.852,5.276-1.702c1.702-0.681,4.086-1.532,7.149-3.234c3.915-2.042,7.149-3.915,9.532-7.489
										c1.191-1.702,1.531-3.063,2.383-5.446c1.021-2.894,2.042-6.979,2.383-12.426c-8-5.276-17.872-5.447-24.17-0.511
										c-0.682,0.511-1.362,1.191-1.873,1.702C797.276,560.085,795.915,567.745,797.787,577.957z"/>
									<path fill="#DE9F7E" d="M774.639,532.17c0,0.171,0,0.341,0,0.511c0.17,0.852,0.34,1.702,0.851,2.383
										c0,0,0.341,0.511,1.191,2.894c0.511,1.191,1.021,7.49,1.191,16.171c0,1.531,0.171,3.574,0.852,6.468
										c0.681,3.404,1.872,9.021,5.957,14.468c1.021,1.362,2.383,3.064,4.596,4.767c0.852,0.681,1.873,1.021,3.064,1.021
										c1.021,0,2.212-0.171,3.404-0.511c0.17,0,0.681-0.171,1.191-0.341c3.233-0.681,6.979-1.702,11.063-3.063
										c2.383-0.852,5.447-1.873,7.489-2.894c4.596-2.213,8-6.639,8.852-11.745c0.851-3.063,1.021-6.128,1.702-9.361
										c0.34-1.873,0.51-3.915,0.851-5.787c0-0.171,0.171-0.171,0.171-0.171c0.34-0.17,0.51-0.17,1.191-0.17
										c5.787-1.021,9.531-8.511,10.553-10.554c4.256-8.681,5.787-26.723-5.787-37.106c-7.489-6.638-16.681-6.638-21.617-6.638
										c-7.319-0.17-37.617,4.255-36.255,30.128c0.17,2.042,0,4.085-0.171,6.127c0,0.341,0,0.511-0.17,0.852c0,0.17,0,0.34,0,0.34
										C774.639,530.809,774.639,531.489,774.639,532.17z"/>
									<path d="M828.596,534.553c-2.043,1.532-1.021,3.745-1.191,4.426c-0.681,0.511-2.724,1.191-3.234,1.702
										c0-1.872-0.17-3.744-0.17-5.617c-0.17-2.383-1.021-3.744-1.702-4.766c-0.851-1.191-1.702-1.532-3.574-3.234
										c0,0-1.532-1.361-2.894-3.063c-3.575-4.596-5.106-9.532-5.617-11.404c-0.341-1.021-0.511-2.043-0.511-2.553
										c-1.361,0-3.234,0-5.617,0.17c-3.574,0.34-6.128,0.851-6.979,1.021c-9.702,1.872-15.489-2.043-19.574,1.021
										c-1.532,1.191-3.064,3.914-2.724,10.042c-3.745-9.191-2.213-15.319-1.361-17.872c5.616-16.511,32.851-24,49.701-15.149
										c4.767,2.383,7.83,5.787,9.532,8c4.767,1.191,7.319,3.234,8.852,4.596c6.638,6.469,6.128,17.702,5.616,27.575
										c0,1.531-0.34,3.063-0.34,3.063c-0.511,3.063-1.191,5.106-1.532,5.787c-1.872,5.276-4.596,20.426-6.638,25.532
										c-0.171,0.681-0.682,1.702-1.873,2.383c-0.851,0.511-1.702,0.511-2.213,0.34c-0.851-7.829-0.34-13.446,0.171-17.021
										c0,0,0,0,0-0.171c0.17-1.191,0.681-4.936,1.021-8.34c0.34-4.426,0.511-6.469-0.171-7.319
										C834.213,532.511,830.809,532.852,828.596,534.553z"/>
									<path id="XMLID_00000115492734274067191560000010110026376636275891_" fill="#FCB856" d="M849.872,519.574
										c-43.233-21.446-67.063-19.063-75.233-18.383c-1.362,0.341-3.404,2.724-3.234,7.149c-1.872,2.553-2.553,6.127-0.511,7.829
										v0.171c-0.17,1.021,0.681,2.042,1.872,2.042c8.852,0.852,30.469-5.787,71.149,17.021c0.851,0.681,2.213,0.511,2.894-0.341
										c0.681-0.851,1.361-2.212,1.361-4.425c2.383-1.362,2.554-5.617,1.873-6.809
										C850.553,521.787,850.724,519.915,849.872,519.574z"/>
									<path fill="#DE9F7E" d="M827.234,535.234c0.51-6.809,3.744-8.341,3.744-8.341c2.383-1.021,5.617,0,7.319,2.213
										c1.361,1.702,1.191,3.745,1.191,5.106c-0.17,2.553-1.191,4.426-2.553,6.979c-1.021,1.872-1.532,2.724-2.724,3.745
										c-2.043,1.702-4.426,2.042-5.787,2.213c-0.17-0.171-0.511-0.171-0.681-0.511c-1.192-1.362-0.681-3.404-0.511-9.702
										C827.063,536.766,827.234,536.085,827.234,535.234z"/>
								</g>
								<path fill="#CE8065" d="M784.341,566.383c-0.171-1.531,2.553-3.063,4.596-3.574c3.574-0.681,7.829,1.191,7.829,3.063
									c0,1.702-3.574,3.404-6.809,3.404C787.745,569.276,784.511,568.085,784.341,566.383z"/>
								<g>
									<path fill="#FFFFFF" d="M785.872,539.659c-2.042-3.574-5.446-4.425-6.979-3.404c-1.021,0.682-1.361,2.554-1.021,4.426
										C779.574,544.426,783.149,543.745,785.872,539.659z"/>
									
										<ellipse transform="matrix(-0.2747 -0.9615 0.9615 -0.2747 476.2357 1438.6028)" fill="#6B3628" cx="780.721" cy="539.678" rx="3.404" ry="2.212"/>
									
										<ellipse transform="matrix(-0.2749 -0.9615 0.9615 -0.2749 475.6254 1438.4141)" cx="780.223" cy="539.854" rx="1.702" ry="1.191"/>
									
										<ellipse transform="matrix(-0.2746 -0.9616 0.9616 -0.2746 477.4122 1437.4501)" fill="#FFFFFF" cx="780.916" cy="538.644" rx="0.51" ry="0.34"/>
									<path fill="#211E1F" d="M777.872,540.681c-0.34-1.702,0.341-3.233,1.362-3.915c1.702-1.191,3.914,0.341,4.596,0.682
										c1.191,0.681,1.702,1.701,2.042,2.212c-0.34-0.681-0.851-1.872-2.213-2.894c-0.34-0.17-3.233-2.213-5.106-0.851
										C777.361,536.937,777.021,538.809,777.872,540.681z"/>
								</g>
								<path fill="#CE8065" d="M785.021,557.021c-0.17,0.34,1.191,1.702,2.894,2.042c2.894,0.511,5.446-2.383,5.446-2.553
									c-0.17-0.17-2.042,1.361-4.936,1.361C786.383,557.702,785.191,556.851,785.021,557.021z"/>
								<g>
									<path d="M808.852,529.276c-1.021-0.851-2.554-1.702-4.426-2.383l0,0c-1.021-0.341-2.213-0.341-3.404,0
										c-2.554,0.852-5.277,1.702-7.83,2.554c-0.17,0.34-0.34,0.851-0.34,1.361s0.17,1.021,0.17,1.191
										c3.063-1.021,6.127-1.872,9.191-2.894c0.681-0.17,1.361-0.341,2.043-0.17C805.787,528.937,807.319,529.106,808.852,529.276
										z"/>
								</g>
								<g>
									<path d="M774.639,530.639c0.34,0,0.51,0,0.851,0.17l8.852,2.383c0.17-0.34,0.17-0.681,0.17-1.191
										c0-0.681-0.17-1.191-0.341-1.361c-2.553-0.682-5.106-1.362-7.659-2.043c-0.511-0.17-1.191-0.17-1.702-0.17
										c0,0.34-0.17,0.681-0.17,1.021C774.639,529.787,774.639,530.128,774.639,530.639z"/>
								</g>
								<g>
									<path fill="#FFFFFF" d="M794.724,539.148c0.34,0.341,0.851,0.682,1.702,1.021c1.702,0.682,3.063,0.511,3.914,0.341
										c2.895-0.511,4.937-2.213,5.617-3.063c-0.51-0.682-2.213-3.064-5.105-3.575c-0.852-0.17-2.384-0.511-3.745,0.341
										C794.553,535.745,794.724,538.979,794.724,539.148z"/>
									<g>
										<path fill="#6B3628" d="M796.766,537.957c0.341,1.702,1.873,2.724,3.234,2.384c1.361-0.341,2.213-2.043,1.702-3.575
											c-0.341-1.702-1.872-2.723-3.234-2.383C797.106,534.724,796.256,536.255,796.766,537.957z"/>
										<path d="M797.447,537.787c0.17,0.852,0.851,1.361,1.701,1.191c0.682-0.17,1.021-1.021,0.852-1.872
											c-0.17-0.852-0.852-1.361-1.702-1.191C797.617,536.255,797.276,536.937,797.447,537.787z"/>
										<path fill="#FFFFFF" d="M798.809,536.426c0,0.34,0.34,0.511,0.511,0.34c0.17,0,0.34-0.34,0.34-0.511
											c0-0.34-0.34-0.51-0.511-0.34C798.979,535.915,798.809,536.085,798.809,536.426z"/>
										<path d="M794.724,539.148c0-0.51,0.511-3.063,2.724-4.255c2.553-1.361,6.297-0.511,8.51,2.554
											C805.617,535.574,796.085,527.234,794.724,539.148z"/>
									</g>
								</g>
								<g>
									<path d="M829.957,550.213c0.852,0,1.191-1.872,1.021-3.404l-0.681,0.17c0.17,1.702-0.341,2.724-0.511,2.724
										s-0.681-0.851-0.851-2.724c-0.171-1.702,0.34-2.724,0.511-2.724c0.17-0.17,0.17-0.34,0-0.681
										c-0.852,0-1.191,1.873-1.021,3.404C828.596,548.511,829.106,550.213,829.957,550.213z"/>
								</g>
								<path fill="#B7303D" d="M840,579.83c-0.681-0.341-1.532,0-1.702,0.851c-1.191,5.447-4.596,17.702-15.83,25.702
									c-3.744,2.724-7.659,4.256-10.723,5.276c1.872,4.596,3.063,8.341,3.915,11.064c0.51,2.042,0.851,3.233,1.701,3.574
									c2.043,0.852,5.447-3.234,8.341-6.979c3.574-4.596,8.341-10.554,13.958-17.872c1.531-2.554,3.063-5.277,4.596-8.341
									c1.531-3.063,2.894-5.957,3.914-8.852c-1.702-0.851-3.404-1.872-5.105-2.894C842.043,581.021,841.021,580.511,840,579.83z"
									/>
								<g>
									<path d="M810.724,606.553c6.809-0.17,11.915-5.446,16.17-9.872c3.234-3.404,7.659-8.851,11.574-16.681
										c-0.17-0.17-0.17-0.341-0.34-0.681c-0.171-0.341-0.511-0.681-0.681-0.852c-4.426,9.702-10.384,15.83-14.128,19.234
										c-5.106,4.766-10.554,8.341-15.66,6.639c-4.596-1.532-7.489-7.319-8-14.298c-0.17,0.34-0.34,0.681-0.511,1.021
										c-0.17,0.341-0.17,0.682-0.34,1.021c0.17,1.191,1.361,11.404,8.17,13.787C808.511,606.553,809.702,606.553,810.724,606.553
										z"/>
								</g>
							</g>
						</g>
						<g>
							<path fill="#DE9F7E" d="M347.574,701.361c5.958-2.553,11.234-5.276,15.83-7.829c0.852,1.531,1.872,2.894,2.724,4.425
								c9.531-5.105,19.744-11.233,30.468-18.213c10.724-7.148,20.256-14.468,28.766-21.276c2.554,1.873,5.106,4.085,7.83,6.298
								c2.554,2.043,4.766,4.256,6.979,6.298c-11.404,12.426-21.617,23.319-30.979,33.362c-2.553,2.894-14.639,15.659-27.063,25.191
								c-0.341,0.34-1.021,0.851-2.213,1.702c-8.341,6.128-15.489,10.894-21.447,14.468c-3.404,2.043-8,1.191-10.383-2.043
								c-4.426-5.957-7.659-9.531-14.638-21.957c-2.213-3.915-4.767-8.17-8-12.766C332.085,707.149,339.574,704.766,347.574,701.361
								z"/>
							<g>
								<g>
									<path fill="#DE9F7E" d="M425.702,657.447c0,0,3.745-5.106,4.937-9.192c0.34-1.021,0.681-2.212,0.681-2.212
										c0.511-1.702,0.681-3.234,0.851-4.256c1.873-0.511,4.085-1.361,6.639-2.724c2.894-1.531,5.276-3.233,6.979-4.766
										l2.383-1.361c23.319-15.83,29.787-17.702,31.319-16.171c0.17,0.171,0.852,1.021,0.852,2.043
										c0.17,2.043-2.213,3.745-4.767,5.447c-5.787,3.914-11.063,7.148-12.596,8.17c1.362-0.681,2.894-0.511,4.085,0.34
										c1.532,1.021,2.043,3.064,1.192,4.937c0.34,0.17,1.531,0.852,2.042,2.213c0.681,1.872-0.17,3.404-0.341,3.574
										c0.511,0.852,1.192,2.383,1.192,4.426c-0.171,4.596-4.256,7.148-4.597,7.489c-3.404,3.745-9.021,8.681-17.021,12.256
										c-3.404,1.531-6.639,2.553-9.532,3.233c-3.404,3.063-6.979,6.298-10.383,9.362c-4.426-4.256-8.852-8.511-13.447-12.767
										C419.404,664.085,422.468,660.852,425.702,657.447z"/>
									<g>
										<path fill="#CE8065" d="M460.255,655.234c-1.702-1.532-1.021-4.767-0.851-4.767s0.511,0.511,0.511,1.532
											c0,0.341,0.17,1.361,0.851,2.213c1.362,1.532,3.404,1.361,3.575,1.361c-0.171,0.171-0.511,0.341-0.852,0.511
											C462.128,656.255,460.937,655.915,460.255,655.234z"/>
										<path fill="#CE8065" d="M457.532,650.298c-1.362-0.851-2.554-5.106-0.511-5.447c1.021,0.852-1.191,3.064,1.702,4.937
											c1.872,1.021,4.085-0.17,5.617-1.361c0.851-0.681,1.702-1.532,2.553-2.213c-1.872,3.404-4.766,5.446-7.489,5.106
											C459.063,650.979,458.383,650.809,457.532,650.298z"/>
										<path fill="#CE8065" d="M454.128,644.681c-0.681-0.851-0.852-1.702-0.852-2.213c-0.17-2.553,1.702-4.425,2.213-4.936
											c0.681-0.511,1.532-1.191,2.554-1.702c0.34-0.171,0.851-0.341,0.851-0.341c0.17,0.17-1.872,1.021-3.234,2.894
											c-0.34,0.511-2.042,2.894-1.191,4.596c0.681,1.021,2.213,1.532,3.064,1.362c0.34,0,1.021-0.171,1.702-0.511l0,0
											c1.191-0.852,5.105-4.256,5.276-4.085c0.17,0.17-2.213,3.063-5.276,5.106c-0.511,0.34-1.362,0.851-2.384,0.851
											C456.341,645.872,454.979,645.702,454.128,644.681z"/>
										<path fill="#CE8065" d="M441.702,655.063c1.532-2.383,4.255-7.318,4.596-13.957c0.17-2.724-0.17-4.937-0.681-6.809
											c0.17-0.17,0.511-0.341,0.681-0.511c0.681,1.872,2.213,7.319,0,13.617C445.106,650.979,443.063,653.532,441.702,655.063z"
											/>
									</g>
								</g>
								<path fill="#DE9F7E" d="M443.745,630.894c0,0.17-0.171,1.872,0.851,2.894c0.341,0.341,0.681,0.341,0.852,0.511
									c-2.213,1.702-4.426,3.404-6.809,5.276c-2.383,1.702-4.767,3.575-6.979,5.106c0-3.404,2.043-10.213,2.554-12.255
									c0.851-2.554,4.766-13.617,4.596-16.171c0-0.17,0-1.021,0.341-1.872c0.34-0.511,0.851-1.021,1.361-1.021
									c0.341,0,0.681,0.171,0.851,0.341c1.532,0.851,3.404,6.128,3.575,6.639c0,1.361,0,2.723-0.171,4.425
									C444.937,627.149,444.426,629.191,443.745,630.894z"/>
							</g>
							<g>
								<path fill="#B7303D" d="M216.34,730.639c-26.894,57.531-33.362,111.829-34.723,167.829
									c2.383-4.085,13.106-10.723,33.532-1.191"/>
								<g>
									<g>
										<path d="M244.255,1109.191c-2.213,1.702-4.596,7.319-1.532,10.724c2.894,3.404,48.17,14.128,59.574,14.638
											c5.787,0.341,12.085-1.361,15.149-5.105c1.701-2.043,1.021-5.106-1.362-6.299c-6.638-3.404-20.766-8.51-22.298-9.021
											C292.085,1113.617,244.255,1109.191,244.255,1109.191z"/>
										<path fill="#DE9F7E" d="M247.149,1102.383c-2.723,5.276-2.383,8.852-1.702,11.064c1.021,3.063,3.915,8.681,54.298,15.659
											c3.915,0.511,7.83,0.17,11.404-1.021c2.213-0.681,4.426-1.361,5.277-3.233c0.681-1.362,0.34-2.554,0.34-2.895
											c-0.34-1.531-1.361-2.723-2.894-3.574c-0.851-0.34-1.531-0.851-2.383-1.361c-0.511-0.341-0.851-0.511-1.191-0.681
											c-3.404-2.043-6.979-4.085-10.383-6.128c-3.745-2.383-7.489-4.937-11.064-7.83c-4.085-3.404-6.638-5.787-8.511-9.531
											c-2.723-5.617-1.872-11.064-1.362-13.617c4.426-28.766,7.319-57.872,11.234-86.809c1.191-8,2.553-19.745,3.063-34.383
											c-11.915,0-23.83,0-35.745,0c-1.361,3.915-3.063,9.361-4.596,16c-4.255,18.213-4.936,34.042-4.766,44.596
											c0.51,19.744,4.255,40.511,4.596,58.213c0.17,5.787-0.34,9.531-1.532,13.957
											C250.213,1095.915,248.34,1099.83,247.149,1102.383z"/>
										<path d="M284.596,1130.298c1.021-2.213,5.276-11.234,15.149-14.639c2.894-1.021,5.617-1.191,7.83-1.191
											c-1.191-1.191-2.723-2.383-4.255-3.574c-3.575-2.553-7.149-4.255-10.043-5.446c-2.723,0.51-6.298,1.531-10.042,3.574
											c-9.021,5.106-13.276,12.936-14.808,16.34C273.702,1127.063,279.149,1128.766,284.596,1130.298z"/>
									</g>
									<g>
										<path d="M192.511,1113.617c-2.213,1.702-4.596,7.319-1.532,10.724c2.894,3.404,48.17,14.127,59.575,14.638
											c5.787,0.341,12.085-1.361,15.149-5.106c1.702-2.042,1.021-5.106-1.362-6.298c-6.638-3.404-20.766-8.511-22.298-9.021
											C240.17,1118.043,192.511,1113.617,192.511,1113.617z"/>
										<path fill="#DE9F7E" d="M195.234,1106.809c-2.723,5.276-2.383,8.851-1.702,11.063c1.021,3.064,3.915,8.681,54.298,15.66
											c3.915,0.511,7.83,0.17,11.404-1.021c2.213-0.681,4.426-1.361,5.277-3.234c0.681-1.361,0.34-2.553,0.34-2.894
											c-0.34-1.532-1.362-2.724-2.894-3.574c-0.851-0.341-1.532-0.852-2.383-1.361c-0.51-0.341-0.851-0.511-1.191-0.682
											c-3.404-2.042-6.979-4.085-10.383-6.127c-3.745-2.383-7.489-4.937-11.064-7.83c-4.085-3.404-6.638-5.787-8.51-9.532
											c-2.724-5.616-1.873-11.063-1.362-13.616c4.425-28.767,7.319-57.873,11.234-86.809c1.191-8,2.553-19.745,3.064-34.384
											c-11.915,0-23.83,0-35.745,0c-1.362,3.915-3.064,9.362-4.596,16c-4.255,18.213-4.937,34.043-4.766,44.597
											c0.511,19.744,4.255,40.51,4.596,58.212c0.17,5.788-0.34,9.532-1.532,13.958
											C198.298,1100.341,196.596,1104.255,195.234,1106.809z"/>
										<path d="M232.681,1134.724c1.021-2.213,5.277-11.234,15.149-14.639c2.894-1.021,5.617-1.191,7.83-1.191
											c-1.191-1.191-2.724-2.383-4.255-3.574c-3.575-2.554-7.149-4.255-10.042-5.447c-2.724,0.511-6.298,1.532-10.042,3.575
											c-9.021,5.105-13.277,12.936-14.809,16.34C221.958,1131.489,227.404,1133.191,232.681,1134.724z"/>
									</g>
									<path fill="#FFFFFF" d="M316.596,841.787c0.341,33.361-0.681,59.915-1.702,78.298c0,0-0.681,12.426-5.617,44.596
										c-1.191,8.171-2.724,16.852-7.489,27.234c-3.234,6.638-6.468,13.446-12.596,18.213
										c-15.149,11.744-37.958,3.744-41.362,2.383c-0.17-2.554-0.34-5.276-0.34-8c-0.17-8.17,0-15.83,0.511-22.979
										c-3.234,10.553-6.468,21.106-9.532,31.829c-2.383,1.021-19.745,8.341-35.745-0.851
										c-6.639-3.745-10.553-9.021-12.766-12.426c-4.255-21.446-7.66-47.319-7.83-76.596
										c-0.341-44.766,6.808-82.383,14.468-110.298c17.362-0.17,40.34,1.361,66.383,8.17
										C284.936,826.809,302.809,834.639,316.596,841.787z"/>
									<g>
										<path fill="#D3D3D3" d="M248,953.447c-6.128,14.468-22.638,24.34-38.298,22.808
											C223.489,970.128,235.915,962.809,248,953.447L248,953.447z"/>
									</g>
									<g>
										<path fill="#D3D3D3" d="M250.383,961.276c-1.702,15.66-14.638,29.787-30.127,33.021
											C231.83,984.255,241.532,973.702,250.383,961.276L250.383,961.276z"/>
									</g>
									<g>
										<path fill="#D3D3D3" d="M243.915,938.979c-3.575,13.276-18.894,22.639-32.17,19.234
											C223.83,953.787,234.042,947.489,243.915,938.979L243.915,938.979z"/>
									</g>
									<g>
										<path fill="#D3D3D3" d="M262.979,960.937c6.809,9.702,15.83,15.659,26.043,21.446
											C276.596,984.426,262.468,973.872,262.979,960.937L262.979,960.937z"/>
									</g>
									<g>
										<path fill="#D3D3D3" d="M268.936,950.213c6.128,9.191,14.468,14.809,22.468,22.298
											C280.17,972.17,267.745,962.298,268.936,950.213L268.936,950.213z"/>
									</g>
									<g>
										<path fill="#D3D3D3" d="M257.702,967.234c4.596,10.383,12.425,17.361,19.234,26.213
											C265.702,991.063,254.468,979.148,257.702,967.234L257.702,967.234z"/>
									</g>
									<path fill="#FFFFFF" stroke="#D3D3D3" stroke-width="1.8643" stroke-miterlimit="10" d="M248.17,840.596
										c-1.532,39.149-2.894,78.468-4.426,117.617c0.681,1.532,3.234,6.809,8.511,8.681c6.127,2.213,13.447-1.191,18.213-8.511
										c5.447-28.426,9.191-62.127,8.681-99.574c-0.17-9.702-0.511-19.063-1.191-28.085
										C267.915,833.957,258.042,837.191,248.17,840.596z"/>
								</g>
								<g>
									<path fill="#D34047" d="M364.766,689.447c-14.127,7.318-28.255,14.638-42.383,21.957
										c-11.404-24.852-22.638-49.532-34.042-74.383c2.213-4.256,6.979-12.426,16.34-18.894
										c6.298-4.256,12.256-6.469,16.511-7.489c0.341,0.34,0.681,0.681,1.021,1.191c0.511,0.681,0.851,1.191,1.191,1.702
										c6.128,11.574,12.255,23.148,18.724,34.723C349.617,662.213,357.276,676,364.766,689.447z"/>
									<path fill="#B7303D" d="M361.191,676c-5.957,3.404-12.255,6.639-19.063,9.872c-10.894,5.276-21.276,9.532-31.149,12.937
										c3.745,5.617,7.489,11.063,11.234,16.681c9.021-3.745,18.383-7.83,27.915-12.255c7.148-3.404,13.957-6.809,20.425-10.043
										C367.659,687.404,364.426,681.787,361.191,676z"/>
								</g>
								<path fill="#DE9F7E" d="M300.255,621.872c-1.532,21.958-24.17,37.277-45.277,35.745
									c-21.617-1.532-41.872-20.937-39.659-42.043c2.042-19.574,22.638-29.617,24.17-30.298c3.745-1.872,15.66-7.148,29.617-3.574
									C286.128,586.128,301.447,602.639,300.255,621.872z"/>
								<path fill="#D34047" d="M196.426,785.447c-3.404,17.701-6.468,36.425-9.192,56.34c-2.553,19.745-4.425,38.639-5.617,56.681
									c-0.511,0-1.702,0-3.064-0.511c-1.532-0.681-2.383-1.872-2.553-2.383c7.149-45.617,14.298-91.063,21.276-136.681"/>
								<path fill="#D34047" d="M320.511,900.341c-14.128,4.425-36.766,9.531-56.511,10.553
									c-32.17,1.532-58.383-5.446-74.724-11.404c1.192-17.702,2.724-33.191,3.915-45.787c4.426-41.872,8.851-67.574,10.213-74.553
									c1.021-5.277,1.872-9.532,2.383-12.426c1.702-7.66,3.915-15.149,5.447-22.809c1.702-9.191,1.362-18.043-0.34-26.724
									c-2.042-9.532-5.787-18.724-10.553-27.574c-6.979-12.937-8.851-18.724-9.532-22.639c-0.681-4.085-1.021-7.148-1.021-8.851
									c-0.17-1.532-0.17-3.234-0.17-4.937c-0.681-16.34-0.851-36.255-0.851-44.596c0.17-1.702,0.851-4.085,2.212-6.468
									c2.724-4.596,7.83-8.511,32.511-14.298c3.915-1.021,9.362-2.213,15.83-3.404c1.191-0.511,2.383-1.021,3.574-1.532
									c1.873-0.851,3.575-1.872,5.106-2.724c0.17,1.362,0.34,3.064,0.851,5.277c0,0,1.532,6.127,5.447,11.744
									c6.809,9.702,19.064,13.958,20.936,14.639c1.362,4.766,2.724,10.042,3.575,15.829c0.511,3.234,0.851,6.469,1.191,9.362
									c1.021-7.83,2.042-15.66,3.064-23.489c1.532-1.191,3.404-3.234,4.766-6.128c3.745-7.83,0.34-15.319-0.341-17.021
									c7.319,5.276,13.958,8.681,18.383,11.064c6.468,3.404,12.425,6.127,15.66,9.361c1.531,1.532,2.383,3.063,2.553,4.937
									c0,1.021,0,1.702-0.17,2.212c-3.574,32.852-6.128,60.256-7.83,80.341c-3.744,41.702-4.085,48.852-3.404,55.659
									c2.724,30.809,4.596,45.788,6.469,68.086c1.191,14.298,1.872,21.446,2.212,30.468c0,1.532,0.171,3.063,0.171,4.426
									C321.702,873.617,321.361,888.255,320.511,900.341z"/>
								<g>
									<path fill="#B7303D" d="M282.724,613.361c-0.511,11.234-2.043,22.979-2.553,34.213
										c-0.681,11.404-1.192,22.809-1.532,34.383l-0.681-0.51c3.404,0.17,6.809,0.17,10.213,0.51
										c-3.404,0.341-6.809,0.511-10.213,0.682h-0.511v-0.682C276.085,658.979,278.128,635.83,282.724,613.361L282.724,613.361z"
										/>
								</g>
								<path fill="#B7303D" d="M284.766,670.383c0.34,0.511,0.17,1.362,0,1.873c-0.511,0.851-1.362,1.191-2.213,0.851
									c-0.511-0.17-1.021-0.851-1.021-1.702c0-1.021,0.681-1.702,1.362-1.872C283.574,669.191,284.255,669.532,284.766,670.383z"
									/>
								<path fill="#B7303D" d="M285.787,652.681c0.341,0.511,0.17,1.362,0,1.872c-0.511,0.852-1.361,1.192-2.213,0.852
									c-0.51-0.17-1.021-0.852-1.021-1.702c0-1.021,0.681-1.702,1.362-1.872C284.596,651.489,285.276,651.83,285.787,652.681z"/>
								<path fill="#B7303D" d="M286.468,634.298c0.34,0.511,0.17,1.361,0,1.872c-0.511,0.852-1.362,1.191-2.213,0.852
									c-0.511-0.171-1.021-0.852-1.021-1.702c0-1.021,0.681-1.702,1.362-1.872C285.276,633.276,286.128,633.447,286.468,634.298z"
									/>
								<path fill="#FCB856" d="M309.617,606.043c-0.511-6.639-5.277-7.319-6.809-6.809c-1.362-3.234-3.915-4.596-6.638-3.404
									c-0.511-2.213-4.766-4.085-5.958-3.064c0,10.724-3.915,114.724-15.66,152.852c-0.681,3.404,19.915,14.809,27.745,8.34
									C303.319,749.021,314.724,636,309.617,606.043z"/>
								<path fill="#DE9F7E" d="M188.255,813.532c1.021,3.574,2.042,7.319,2.894,10.894c-0.681,2.894-1.532,7.148-1.532,12.085
									c0,2.894-0.511,6.638,1.361,10.724c2.894,6.468,3.915,10.723,8.511,13.106c0.681,0.851,1.702,1.872,3.404,2.894
									c2.213,1.191,4.255,1.531,5.447,1.531c8.681,1.702,11.234,1.021,11.575,0c0.34-0.851-0.341-2.383-1.362-3.404
									c-0.851-0.851-1.873-1.021-2.724-1.361c-2.553-1.021-3.915-3.063-4.766-4.255c-2.553-3.745-2.213-7.83-2.042-9.191
									c0.17-0.852,0.681-5.788,2.212-5.958c0.34,0,1.021,0.17,1.873,1.702c0.34,1.702,0.851,3.745,1.872,6.128
									c0.681,1.531,1.362,2.894,2.043,3.915c0.34,0.34,4.596,4.085,6.298,4.085c0.34,0,0.681,0,0.851-0.17
									c0.51-0.341,0.851-1.021,0.681-1.532c0-1.021-0.511-1.702-0.511-1.872c-1.362-2.043-3.234-13.788-3.745-16.341
									c-0.851-4.255-3.404-10.554-10.894-18.554c0-3.914-0.17-7.659-0.17-11.574C202.383,808.596,195.404,810.979,188.255,813.532
									z"/>
								<path fill="#DE9F7E" d="M225.532,631.915c4.255,24-5.106,58.894-6.468,63.489c-2.553,8.851-6.468,21.276-12.426,35.744
									c0.851,12.256,1.532,24.852,2.042,37.617c0.681,16.852,1.021,33.021,1.021,48.852c-3.234,1.191-6.298,2.383-9.532,3.574
									c-3.064,1.021-6.128,2.213-9.021,3.234c-4.085-13.787-9.191-33.191-13.447-56.852c-3.234-17.191-4.936-26.723-5.787-39.829
									c-0.851-12.596,6.979-35.915,9.702-83.234c0,0,3.574-27.063,16.851-37.106c2.723-2.043,5.276-2.043,5.276-2.043
									c2.042,0,3.915,0.852,5.958,2.384C212.766,610.128,222.468,614.894,225.532,631.915z"/>
								<path fill="#D34047" d="M167.489,711.063c6.128,2.384,13.447,4.767,21.787,6.639c11.575,2.553,22.128,3.404,30.639,3.574
									c5.617-20.085,9.702-37.446,12.425-50.724c4.596-22.298,5.447-31.489,3.234-42.212c-0.851-4.426-6.128-28.256-19.064-30.979
									c-4.766-1.021-12.255,0.511-15.66,1.191c-4.255,0.852-7.66,2.043-10.042,2.895c-1.532,4.425-4.085,11.744-6.638,20.766
									c-4.766,16.851-6.128,27.744-11.404,57.872C171.745,687.063,169.873,697.787,167.489,711.063z"/>
								<path fill="#B7303D" d="M168.17,696.426c7.83,1.702,16,3.404,24.681,4.936c10.894,1.873,21.447,3.234,31.319,4.256
									c-1.532,6.298-3.234,12.596-4.766,18.894c-7.66,0.511-17.873,0.341-29.617-1.872c-10.383-2.043-18.894-5.106-25.532-8
									C165.617,708.511,166.809,702.383,168.17,696.426z"/>
								<path fill="#B7303D" d="M282.724,613.361c1.361-1.361,4.255-4.596,5.617-9.361c1.873-6.639-0.51-12.085-1.191-13.787
									c1.021,0.681,2.213,1.191,3.234,1.872c1.191,0.511,1.532,4.937,1.702,6.298c0.681,4.426,0,5.787-1.191,17.532
									c-0.34,3.404-0.511,6.128-1.362,6.128c-0.51,0-0.681-1.702-2.723-4.086c-0.681-0.851-1.021-1.361-1.702-1.702
									c-1.021-0.851-1.873-1.191-2.213-2.212C282.894,613.872,282.724,613.532,282.724,613.361z"/>
								<g>
									<path fill="#DE9F7E" d="M288,598.213c-12.766,9.872-44.255-14.298-43.064-15.149c8-5.106,7.66-18.553,6.298-30.298
										c-0.51-4.596-1.191-8.851-1.702-12.255c7.83-2.383,28.426-1.532,36.596,13.617c3.063,5.617,4.255,13.276,2.383,23.659
										c-0.851,1.872-1.532,3.574-1.702,5.276c0,0,0,0,0,0.171C285.958,590.553,289.021,596.681,288,598.213z"/>
									<path fill="#D38A6A" d="M288.851,577.957c-0.851,1.873-1.532,3.575-1.702,5.277c0,0,0,0,0,0.17
										c-1.362-0.341-3.234-0.852-5.277-1.702c-1.702-0.681-4.085-1.532-7.148-3.234c-3.915-2.042-7.149-3.915-9.532-7.489
										c-1.191-1.702-1.532-3.063-2.383-5.446c-1.021-2.894-2.042-6.979-2.383-12.426c8-5.276,17.872-5.447,24.17-0.511
										c0.681,0.511,1.362,1.191,1.873,1.702C289.362,560.085,290.724,567.745,288.851,577.957z"/>
									<path fill="#DE9F7E" d="M312,532.17c0,0.171,0,0.341,0,0.511c-0.17,0.852-0.341,1.702-0.852,2.383
										c0,0-0.34,0.511-1.191,2.894c-0.51,1.191-1.021,7.49-1.191,16.171c0,1.531-0.17,3.574-0.851,6.468
										c-0.681,3.404-1.872,9.021-5.958,14.468c-1.021,1.362-2.383,3.064-4.596,4.767c-0.851,0.681-1.873,1.021-3.064,1.021
										c-1.021,0-2.213-0.171-3.404-0.511c-0.17,0-0.681-0.171-1.191-0.341c-3.234-0.681-6.979-1.702-11.064-3.063
										c-2.383-0.852-5.447-1.873-7.489-2.894c-4.596-2.213-8-6.639-8.851-11.745c-0.851-3.063-1.021-6.128-1.702-9.361
										c-0.34-1.873-0.511-3.915-0.851-5.787c0-0.171-0.17-0.171-0.17-0.171c-0.341-0.17-0.511-0.17-1.192-0.17
										c-5.787-1.021-9.532-8.511-10.553-10.554c-4.255-8.681-5.788-26.723,5.787-37.106c7.489-6.638,16.681-6.638,21.617-6.638
										c7.319-0.17,37.618,4.255,36.255,30.128c-0.17,2.042,0,4.085,0.17,6.127c0,0.341,0,0.511,0.171,0.852c0,0.17,0,0.34,0,0.34
										C312,530.809,312,531.489,312,532.17z"/>
									<path d="M258.042,534.553c2.042,1.532,1.021,3.745,1.191,4.426c0.681,0.511,2.724,1.191,3.234,1.702
										c0-1.872,0.17-3.744,0.17-5.617c0.17-2.383,1.021-3.744,1.702-4.766c0.851-1.191,1.702-1.532,3.575-3.234
										c0,0,1.532-1.361,2.894-3.063c3.574-4.596,5.106-9.532,5.617-11.404c0.34-1.021,0.51-2.043,0.51-2.553
										c1.362,0,3.234,0,5.617,0.17c3.575,0.34,6.127,0.851,6.979,1.021c9.702,1.872,15.489-2.043,19.574,1.021
										c1.532,1.191,3.063,3.914,2.724,10.042c3.744-9.191,2.213-15.319,1.361-17.872c-5.617-16.511-32.851-24-49.702-15.149
										c-4.766,2.383-7.83,5.787-9.532,8c-4.766,1.191-7.319,3.234-8.851,4.596c-6.638,6.469-6.128,17.702-5.617,27.575
										c0,1.531,0.341,3.063,0.341,3.063c0.51,3.063,1.191,5.106,1.532,5.787c1.872,5.276,4.596,20.426,6.638,25.532
										c0.17,0.681,0.681,1.702,1.873,2.383c0.851,0.511,1.702,0.511,2.212,0.34c0.851-7.829,0.341-13.446-0.17-17.021
										c0,0,0,0,0-0.171c-0.17-1.191-0.681-4.936-1.021-8.34c-0.34-4.426-0.511-6.469,0.17-7.319
										C252.426,532.511,255.83,532.852,258.042,534.553z"/>
									<path id="XMLID_00000167378195107576952990000012376014234319193758_" fill="#FCB856" d="M236.766,519.574
										C280,498.128,303.83,500.511,312,501.191c1.361,0.341,3.404,2.724,3.234,7.149c1.872,2.553,2.553,6.127,0.511,7.829v0.171
										c0.17,1.021-0.682,2.042-1.873,2.042c-8.851,0.852-30.468-5.787-71.148,17.021c-0.852,0.681-2.213,0.511-2.894-0.341
										c-0.681-0.851-1.361-2.212-1.361-4.425c-2.383-1.362-2.553-5.617-1.873-6.809
										C236.085,521.787,235.915,519.915,236.766,519.574z"/>
									<path fill="#DE9F7E" d="M259.404,535.234c-0.511-6.809-3.745-8.341-3.745-8.341c-2.383-1.021-5.617,0-7.319,2.213
										c-1.362,1.702-1.191,3.745-1.191,5.106c0.17,2.553,1.191,4.426,2.553,6.979c1.021,1.872,1.532,2.724,2.724,3.745
										c2.042,1.702,4.425,2.042,5.787,2.213c0.17-0.171,0.511-0.171,0.681-0.511c1.191-1.362,0.681-3.404,0.511-9.702
										C259.574,536.766,259.404,536.085,259.404,535.234z"/>
								</g>
								<path fill="#CE8065" d="M302.298,566.383c0.17-1.531-2.553-3.063-4.596-3.574c-3.574-0.681-7.83,1.191-7.83,3.063
									c0,1.702,3.575,3.404,6.809,3.404C298.894,569.276,302.128,568.085,302.298,566.383z"/>
								<g>
									<path fill="#FFFFFF" d="M300.766,539.659c2.042-3.574,5.447-4.425,6.979-3.404c1.021,0.682,1.361,2.554,1.021,4.426
										C307.063,544.426,303.489,543.745,300.766,539.659z"/>
									
										<ellipse transform="matrix(-0.9615 -0.2747 0.2747 -0.9615 451.5025 1142.6034)" fill="#6B3628" cx="305.765" cy="539.684" rx="2.213" ry="3.404"/>
									
										<ellipse transform="matrix(-0.9616 -0.2746 0.2746 -0.9616 452.6124 1142.9474)" cx="306.295" cy="539.798" rx="1.192" ry="1.702"/>
									
										<ellipse transform="matrix(-0.9617 -0.274 0.274 -0.9617 452.1529 1140.4015)" fill="#FFFFFF" cx="305.707" cy="538.628" rx="0.34" ry="0.51"/>
									<path fill="#211E1F" d="M308.937,540.681c0.34-1.702-0.341-3.233-1.362-3.915c-1.702-1.191-3.915,0.341-4.596,0.682
										c-1.191,0.681-1.702,1.701-2.042,2.212c0.34-0.681,0.851-1.872,2.213-2.894c0.34-0.17,3.234-2.213,5.107-0.851
										C309.276,536.937,309.617,538.809,308.937,540.681z"/>
								</g>
								<path fill="#CE8065" d="M301.617,557.021c0.17,0.34-1.191,1.702-2.894,2.042c-2.894,0.511-5.447-2.383-5.447-2.553
									c0.17-0.17,2.043,1.361,4.937,1.361C300.255,557.702,301.447,556.851,301.617,557.021z"/>
								<g>
									<path d="M277.787,529.276c1.021-0.851,2.553-1.702,4.426-2.383l0,0c1.021-0.341,2.213-0.341,3.404,0
										c2.553,0.852,5.276,1.702,7.83,2.554c0.17,0.34,0.34,0.851,0.34,1.361s-0.17,1.021-0.17,1.191
										c-3.064-1.021-6.128-1.872-9.191-2.894c-0.681-0.17-1.362-0.341-2.043-0.17
										C280.851,528.937,279.319,529.106,277.787,529.276z"/>
								</g>
								<g>
									<path d="M312,530.639c-0.341,0-0.511,0-0.852,0.17l-8.851,2.383c-0.17-0.34-0.17-0.681-0.17-1.191
										c0-0.681,0.17-1.191,0.34-1.361c2.553-0.682,5.106-1.362,7.66-2.043c0.511-0.17,1.191-0.17,1.702-0.17
										c0,0.34,0.17,0.681,0.17,1.021C312,529.787,312,530.128,312,530.639z"/>
								</g>
								<g>
									<path fill="#FFFFFF" d="M291.915,539.148c-0.341,0.341-0.851,0.682-1.702,1.021c-1.702,0.682-3.064,0.511-3.915,0.341
										c-2.894-0.511-4.936-2.213-5.617-3.063c0.511-0.682,2.213-3.064,5.106-3.575c0.851-0.17,2.383-0.511,3.745,0.341
										C292.085,535.745,291.915,538.979,291.915,539.148z"/>
									<g>
										<path fill="#6B3628" d="M289.872,537.957c-0.34,1.702-1.872,2.724-3.234,2.384c-1.362-0.341-2.212-2.043-1.702-3.575
											c0.511-1.531,1.873-2.723,3.234-2.383C289.532,534.724,290.383,536.255,289.872,537.957z"/>
										<path d="M289.191,537.787c-0.17,0.852-0.851,1.361-1.702,1.191c-0.681-0.17-1.021-1.021-0.851-1.872
											c0.17-0.852,0.851-1.361,1.702-1.191S289.532,536.937,289.191,537.787z"/>
										<path fill="#FFFFFF" d="M287.83,536.426c0,0.34-0.341,0.511-0.511,0.34c-0.17,0-0.341-0.34-0.341-0.511
											c0-0.17,0.341-0.51,0.511-0.34C287.66,535.915,287.83,536.085,287.83,536.426z"/>
										<path d="M291.915,539.148c0-0.51-0.511-3.063-2.724-4.255c-2.553-1.361-6.298-0.511-8.511,2.554
											C281.021,535.574,290.553,527.234,291.915,539.148z"/>
									</g>
								</g>
								<g>
									<path d="M256.681,550.213c-0.851,0-1.191-1.872-1.021-3.404l0.681,0.17c-0.17,1.702,0.34,2.724,0.511,2.724
										s0.681-0.851,0.851-2.724c0.17-1.702-0.34-2.724-0.511-2.724c-0.17-0.17-0.17-0.34,0-0.681
										c0.851,0,1.191,1.873,1.021,3.404C258.042,548.511,257.532,550.213,256.681,550.213z"/>
								</g>
								<path fill="#B7303D" d="M246.638,579.83c0.681-0.341,1.532,0,1.702,0.851c1.191,5.447,4.596,17.702,15.83,25.702
									c3.745,2.724,7.659,4.256,10.723,5.276c-1.872,4.596-3.064,8.341-3.915,11.064c-0.51,2.042-0.851,3.233-1.702,3.574
									c-2.042,0.852-5.447-3.234-8.34-6.979c-3.574-4.596-8.34-10.554-13.958-17.872c-1.532-2.554-3.063-5.277-4.596-8.341
									c-1.532-3.063-2.894-5.957-3.915-8.852c1.702-0.851,3.404-1.872,5.106-2.894
									C244.596,581.021,245.617,580.511,246.638,579.83z"/>
								<g>
									<path d="M275.915,606.553c-6.809-0.17-11.915-5.446-16.17-9.872c-3.234-3.404-7.66-8.851-11.574-16.681
										c0.17-0.17,0.17-0.341,0.34-0.681c0.17-0.341,0.511-0.681,0.681-0.852c4.426,9.702,10.383,15.83,14.128,19.234
										c5.106,4.766,10.553,8.341,15.659,6.639c4.596-1.532,7.49-7.319,8-14.298c0.17,0.34,0.341,0.681,0.511,1.021
										c0.17,0.341,0.17,0.682,0.34,1.021c-0.17,1.191-1.361,11.404-8.17,13.787C278.128,606.553,276.936,606.553,275.915,606.553
										z"/>
								</g>
							</g>
						</g>
					</g>
				</g>
			</g>
		</g>
	</g>
</g>
</svg>
