<?xml version="1.0" encoding="utf-8"?>
<!-- Generator: Adobe Illustrator 26.0.1, SVG Export Plug-In . SVG Version: 6.00 Build 0)  -->
<svg version="1.1" id="Layer_1" xmlns="http://www.w3.org/2000/svg" xmlns:xlink="http://www.w3.org/1999/xlink" x="0px" y="0px"
	 viewBox="0 0 594 574.5" style="enable-background:new 0 0 594 574.5;" xml:space="preserve">
<style type="text/css">
	.st0{fill:#8892DB;}
	.st1{fill:#483291;}
	.st2{fill:#21263D;}
	.st3{fill:#D9CCFF;}
	.st4{fill:#FDFFFF;}
	.st5{fill:#2A1969;}
	.st6{fill:none;}
	.st7{fill:url(#SVGID_1_);}
	.st8{fill:#FFFFFF;}
	.st9{fill:none;stroke:#2A1969;stroke-width:3;stroke-miterlimit:10;}
	.st10{fill:#D34047;}
	.st11{fill:#DE9F7E;}
	.st12{fill:#D38A6A;}
	.st13{fill:#FCB856;}
	.st14{fill:#CE8065;}
	.st15{fill:#6B3628;}
	.st16{fill:#211E1F;}
	.st17{fill:#D3D3D3;}
	.st18{fill:#FFFFFF;stroke:#D3D3D3;stroke-width:3.1492;stroke-miterlimit:10;}
	.st19{fill:#B7303D;}
	.st20{fill:#DD9373;}
</style>
<path class="st0" d="M263.8,507.5C141.1,488.9,41.4,372.9,59.5,243.9C74.9,134,171.4,48.4,287,40.3c69.6-5.1,138.3,18.9,189.6,66.2
	c42.2,38.8,69.6,90.8,74.6,145.3C564.5,396.8,416.4,530.6,263.8,507.5"/>
<path class="st1" d="M404,509.2c2.7-30-17.1-73.7-51.9-75.5c-7.4-0.4-13,0.7-11.5,9c1,5.7,4.1,11,7.6,15.7
	c9,12.3,20.1,19.6,31.6,29.3c5.1,4.4,10,8.6,15.3,12.7c1.8,1.4,3.1,3,4.5,4.7c1,1.1,4,5.5,3.8,4.5l0.7-0.4L404,509.2z"/>
<path class="st2" d="M408.3,540.3c-0.2,0-0.5-0.2-0.5-0.4v-1.2c-0.2-3.6-0.7-14.4-4.8-29c-7.8-27.4-21.6-43.1-42.9-61.1
	c-0.2-0.2-0.2-0.5,0-0.7s0.5-0.2,0.6,0c21.4,18,35.4,34,43.1,61.6c2.8,9.5,4.4,19.3,4.9,29.2v1.1
	C408.7,540.1,408.6,540.3,408.3,540.3"/>
<path class="st3" d="M397.4,335.7c3.9,7.2-2.1,14.7-1.7,22.1c1.2,20.6,36.5,17.6,32.6,39.5c-0.8,4.4-3.5,8.3-6.5,11.5
	c-2.3,2.7-6.8,5.4-7.5,9.2c-1.3,7.3,9.4,11.9,13.3,16.4c5.6,6.8,7.5,16,1.8,23.4c-5.5,7-6.1,5.8-5.4,15.7c0.6,8.8-1.2,27-7.4,34.8
	c-7.6-38.8-20-33.8-34.9-35.1c-8.2-0.7-18.5-7-16.4-15.4c2.2-8.8,2.7-11,7.4-18c6.3-9.3-4-14.5-11.7-16.4
	c-10-2.6-11.6-5.3-14.4-16.7c-1.3-5-0.4-10,2.2-14.3c2.8-4.9,8.6-7,11.5-11.6c5.4-8.5-8.2-11.6-13.3-15.1c-5.6-4-7.5-8.9-5-15.3
	c1.2-3,3-5.5,5.7-7.1c2-1.2,6.2-1.3,7.5-3.3c1-1.6-0.7-5.4-0.4-7.5c0.2-2.6,1.3-5.1,3.2-7c5.7-5.1,13,1.9,19.3,2.6
	C384.7,329,393.3,327.9,397.4,335.7"/>
<path class="st2" d="M412,539.2h-0.1c-0.3,0-0.5-0.3-0.4-0.6l0,0c4.8-17.7,5.3-39.6,5-46.5c-0.7-20.6-4.9-42-12.5-63.8
	c-7.4-23.2-17-45.6-28.6-67c-0.1-0.3,0-0.5,0.2-0.7c0.2-0.1,0.5,0,0.6,0.2c11.6,19.7,20.2,43,28.6,67.2c7.4,20.6,11.7,42.2,12.6,64
	c0.3,7-0.2,29-5,46.8C412.4,539.1,412.2,539.2,412,539.2"/>
<path class="st2" d="M385,379.2c-0.3,0-0.5-0.3-0.4-0.6l0,0c1-4,1.8-9.7,2.4-16.2c0-0.3,0.2-0.5,0.5-0.4c0.3,0,0.4,0.2,0.4,0.5
	c-0.5,5.5-1.3,10.9-2.4,16.3c0,0.2-0.2,0.4-0.4,0.4 M390.4,392l-0.3-0.1l-7.3-4.4c-3.3-2-6.2-3.9-10-5.5c-0.2-0.1-0.4-0.4-0.3-0.6
	c0.1-0.3,0.4-0.4,0.6-0.3c3.6,1.6,7,3.5,10.2,5.7l7.3,4.3c0.2,0.2,0.2,0.5,0,0.7C390.6,391.8,390.5,391.9,390.4,392 M398.4,411.9
	c-0.3,0-0.5-0.3-0.4-0.6l0,0l2-8.2l2-9c0.1-0.2,0.4-0.3,0.6-0.3c0.3,0.1,0.4,0.3,0.4,0.6l-2.2,9l-1.9,8.1
	C398.9,411.8,398.7,411.9,398.4,411.9 M400.6,417.7l-0.2-0.1c-2-1.2-5-2.5-8.3-4c-3.4-1.4-7-2.9-9.9-4.6c-0.3-0.1-0.4-0.3-0.4-0.6
	c0.1-0.3,0.3-0.4,0.6-0.4c0.1,0,0.2,0.1,0.3,0.2c2.9,1.7,6.4,3.2,9.8,4.6c3.2,1.4,6.3,2.8,8.3,4c0.3,0.1,0.3,0.4,0.2,0.7
	L400.6,417.7 M408.5,440.3h-0.2c-0.2-0.1-0.4-0.4-0.3-0.6c2-5,3-7.4,5-11.9l1-2.4c0.1-0.3,0.4-0.4,0.6-0.3c0.3,0.1,0.4,0.4,0.3,0.6
	l-1,2.5c-1.8,3.9-3.5,7.9-5,11.9L408.5,440.3 M411.5,452.5h-0.3l-8.1-5.2c-3.9-2.4-6.7-4.1-9.7-6.6c-0.3-0.1-0.4-0.4-0.3-0.6
	c0.1-0.3,0.4-0.4,0.6-0.3c0.1,0,0.2,0.1,0.3,0.3c3,2.4,5.7,4.1,9.5,6.5c2.3,1.4,5,3,8.2,5.2c0.2,0.1,0.3,0.4,0.1,0.6L411.5,452.5
	 M415,470.2h-0.3c-0.2-0.1-0.3-0.4-0.2-0.6c1.3-3.2,3.3-6.7,5-9.7c1.1-2,2.2-3.8,2.9-5.3c0-0.2,0.4-0.3,0.6-0.2
	c0.2,0.1,0.3,0.4,0.2,0.6c-0.9,1.8-1.9,3.6-3,5.4c-1.6,3-3.6,6.4-4.9,9.5C415.3,470.1,415.1,470.2,415,470.2"/>
<path class="st1" d="M419.6,509.2c-2.7-30,17.2-73.7,52-75.5c7.3-0.4,12.9,0.7,11.4,9c-1,5.7-4,11-7.5,15.7
	c-9,12.3-20.2,19.6-31.6,29.3c-5.2,4.4-10,8.6-15.3,12.7c-1.8,1.4-3.2,3-4.6,4.7c-0.9,1.1-4,5.5-3.7,4.5L419.6,509.2L419.6,509.2z"
	/>
<path class="st2" d="M415.4,540.3c0.2,0,0.4-0.2,0.4-0.4v-1.2c0.3-3.6,0.8-14.4,4.9-29c7.7-27.4,21.6-43.1,42.8-61.1
	c0.1-0.2,0-0.5-0.2-0.7c-0.1-0.1-0.3-0.1-0.4,0c-21.4,18-35.3,34-43,61.6c-2.9,9.9-4.6,20-5,30.3
	C414.9,540.1,415.1,540.3,415.4,540.3"/>
<path class="st4" d="M427.5,568h-30.7l-11.7-46.6h54.2L427.5,568z"/>
<path class="st5" d="M427.6,568l-30.8,0.1h-0.2l-11.9-46.6l-0.1-0.5H412l27.2-0.1h0.6l-0.1,0.6l-3,11.6l-3,11.7l-3,11.6l-3.2,11.6
	L427.6,568z M427.6,568l2.7-11.7l2.8-11.7l2.8-11.7l2.9-11.6l0.5,0.6h-27.1l-27.1-0.1l0.3-0.5L397,568l-0.2-0.1l30.7,0.1H427.6z"/>
<path class="st6" d="M238.3,19.4c-13.8-13.4-35.6-15.2-48.6-4c-4,3.4-6.6,7.6-8,12.2c-13.5-12.4-34.1-14-46.6-3.2
	c-3.7,3.1-6.4,7.2-7.8,11.8C108,25.4,83.9,26,68.3,39.4c-16.5,14.2-17.9,38.1-4.6,57c-6.6,0.5-13,2.8-18,7
	c-12.6,11-12,30.4,1.5,43.5c4.5,4.3,9.8,7.3,15.3,9.1c-1.9,1-3.8,2.2-5.4,3.6c-11.7,10-11,28,1.4,40.1c12.5,12,32,13.7,43.8,3.6
	c2.6-2.3,4.8-5.1,6.2-8.3c22.4,17.2,53,18.8,71.5,2.9c13.3-11.4,17-29,11.8-45.8c7.7,1.5,15.6-0.1,21.3-5c4-3.4,6.5-8.2,7-13.4
	c11.4,1.6,22.8-1,31.3-8.3c15.5-13.4,14.7-37.2-1.9-53.2c-3.1-3-6.7-5.6-10.5-7.7l0.8-0.6C252.8,52.7,252.1,32.8,238.3,19.4
	L238.3,19.4z"/>
<radialGradient id="SVGID_1_" cx="-1475.9584" cy="-675.1365" r="100.5" gradientTransform="matrix(1.239 -1.0655 -2.1915 -2.1223 487.312 -2885.0242)" gradientUnits="userSpaceOnUse">
	<stop  offset="0" style="stop-color:#FFFFFF"/>
	<stop  offset="0.3" style="stop-color:#FBFDFE"/>
	<stop  offset="0.6" style="stop-color:#F1F8F9"/>
	<stop  offset="0.9" style="stop-color:#DEEFF2"/>
	<stop  offset="1" style="stop-color:#D3EAED"/>
</radialGradient>
<path class="st7" d="M212.7,17.3C199,3.9,177.1,2,164.2,13.3c-3.8,3.2-6.6,7.4-8.1,12.1c-13.5-12.3-34.1-13.8-46.5-3.2
	c-3.7,3.2-6.5,7.3-7.9,12c-19.3-11-43.4-10.3-59,3c-16.5,14.3-17.9,38.2-4.6,57.1c-6.6,0.5-13,2.8-18,7c-12.6,11-12,30.4,1.5,43.4
	c4.5,4.3,9.8,7.4,15.3,9.2c-1.9,0.9-3.8,2.1-5.4,3.5c-11.7,10.1-11,28,1.4,40.2c12.5,12,32.1,13.7,43.8,3.6c2.7-2.2,4.8-5,6.3-8.2
	c22.4,17.1,53,18.8,71.6,2.9c13.2-11.4,17-29,11.7-45.9c7.5,1.7,15.4-0.1,21.4-5c3.9-3.4,6.4-8.1,6.9-13.3
	c11.1,1.8,22.5-1.2,31.3-8.3C241.3,109.9,240.5,86,224,70c-3.2-3-6.7-5.6-10.6-7.7l0.8-0.7c13-11.1,12.3-31-1.5-44.4V17.3z"/>
<path class="st5" d="M212.6,17.4c-1-1-2-2-3.2-2.8c-1.1-0.8-2.2-1.7-3.5-2.4l-1.8-1.1l-1.9-1l-3.9-1.6l-2-0.7l-2-0.5
	c-1.4-0.3-2.8-0.7-4.2-0.8l-2-0.3h-6.4l-2.1,0.4l-1,0.1c-0.4,0-0.7,0.2-1,0.3l-2.1,0.5l-2,0.7l-1,0.3l-1,0.4l-1.9,1l-1.8,1l-0.9,0.6
	l-0.8,0.6l-1.7,1.3L163,15c-2.9,3-5.1,6.7-6.4,10.7l-0.2,0.5l-0.5-0.4l-3.1-2.5l-3.4-2.2l-1.7-1l-1.9-0.8c-1.2-0.6-2.5-1-3.7-1.5
	l-2-0.6l-1.9-0.5c-1.3-0.2-2.6-0.5-4-0.6l-2-0.2h-4l-2,0.2l-2,0.3l-0.9,0.1l-1,0.3l-1.9,0.5l-1.9,0.7l-0.9,0.3l-0.9,0.5l-1.8,0.8
	c-1,0.8-2.3,1.3-3.3,2.2L110,23l-1.5,1.4c-1.4,1.4-2.6,3-3.6,4.7l-1,1.7l-1.4,3.7l-0.3,0.9l-0.9-0.5l-3.4-1.7l-3.6-1.6l-3.6-1.3
	l-3.8-1c-1.2-0.4-2.5-0.6-3.7-0.8l-3.9-0.6c-2.5-0.3-5.1-0.4-7.7-0.3l-3.8,0.2l-3.9,0.6l-3.7,0.8c-1.3,0.3-2.5,0.8-3.7,1.2l-3.6,1.4
	l-3.4,1.8l-3.2,2l-3,2.4l-2.9,2.7l-2.5,2.9l-2.2,3.1l-1.9,3.4l-1.5,3.5l-1.2,3.7l-0.8,3.8L30.1,63l-0.2,2c-0.3,5.1,0.3,10.1,1.8,15
	l0.6,1.9l0.7,1.8l1.6,3.5l1.8,3.5l2.1,3.3l0.4,0.6h-0.7L35.5,95l-2.6,0.4c-1.7,0.4-3.4,0.9-5.1,1.6l-1.2,0.6l-1.2,0.6l-1.2,0.6
	l-1.1,0.8c-0.8,0.4-1.5,1-2.2,1.5l-0.5,0.4l-0.5,0.5l-1,1c-0.6,0.5-1.2,1.2-1.7,2l-0.9,1l-0.7,1l-0.7,1.2c-0.3,0.3-0.4,0.8-0.6,1.2
	c-0.4,0.8-0.9,1.5-1.1,2.4c-0.7,1.6-1.1,3.4-1.4,5.1l-0.3,2.7v2.7l0.2,2.6c0,1,0.3,1.8,0.4,2.7c0.5,1.7,1,3.4,1.7,5l0.5,1.3l0.6,1.2
	l1.3,2.3l1.5,2.2l1.7,2.1c1.2,1.4,2.4,2.7,3.8,3.9l2,1.7l2.2,1.5c3,2,6.3,3.6,9.7,4.7l0.7,0.2l-0.7,0.4l-3,1.7l-2.6,2.1
	c-0.8,0.8-1.7,1.6-2.4,2.5l-1,1.3l-1,1.4l-1.5,3c-0.3,0.5-0.4,1-0.6,1.6l-0.5,1.6c-0.3,1-0.6,2.2-0.7,3.3l-0.2,1.7v1.7l0.1,1.6
	l0.2,1.7l0.3,1.7c0,0.5,0.2,1.1,0.4,1.6l1,3.2l0.7,1.6l0.8,1.5c1,2,2.4,3.8,3.8,5.6l2.3,2.5l2.6,2.2l2.7,2l3,1.7l3,1.4
	c1,0.4,2.1,0.9,3.2,1.2l1.6,0.4l1.7,0.4c1,0.3,2.2,0.4,3.3,0.5l0.8,0.1H56l1.7,0.1c1.1,0,2.2,0,3.3-0.2c2.3-0.3,4.5-0.6,6.6-1.4
	l1.6-0.6l1.5-0.7c1-0.4,2-1,2.9-1.6l1.3-1l1.3-1l1.3-1.2l0.6-0.6l0.5-0.7l1-1.2l1-1.4l0.4-0.7l0.4-0.7l0.8-1.5l0.4-1l0.8,0.7
	c2.2,1.4,4.3,3,6.6,4.3l3.4,1.9l3.6,1.7l3.6,1.5l3.7,1.3l1.9,0.5l1.9,0.5c1.3,0.3,2.5,0.7,3.8,0.8l3.9,0.6l3.9,0.3
	c2.6,0.1,5.2,0.2,7.8-0.1l2-0.2l1.9-0.3c1.3-0.3,2.6-0.4,3.8-0.8l1.9-0.5l1.9-0.5l3.6-1.4l3.5-1.7c1.2-0.6,2.2-1.3,3.3-2l0.9-0.5
	l0.7-0.6l1.6-1.2l1.5-1.2l1.4-1.3l1.4-1.4l1.3-1.4l1.2-1.6l1.1-1.5l1-1.7l1-1.6c3.2-5.7,4.9-12.1,5-18.6c0.1-5.2-0.7-10.4-2.3-15.4
	l-0.4-1.5l1.6,0.2l2.3,0.4l2.3,0.1h2.3c0.7,0,1.5,0,2.3-0.2l2.2-0.4l2.2-0.7l2.1-0.8l2-1.1l1.9-1.3l0.9-0.7l0.8-0.8l1.6-1.6l1.3-1.8
	c0.3-0.7,0.8-1.3,1-2l1-2.1l0.5-2.2l0.4-2.2l0.2-1h1c4.3,0.6,8.6,0.6,12.9,0c6.5-1,12.5-3.7,17.6-7.8l2.3-2.3l1.1-1.2l1-1.2l0.6-0.6
	l0.4-0.7l0.9-1.4l1.6-2.8l0.7-1.5l0.5-1.5l0.6-1.5l0.4-1.6l0.4-1.6l0.2-1.6l0.3-3.2c0.1-2.2,0-4.4-0.4-6.6l-0.6-3.2l-0.9-3.1l-1.2-3
	c-0.4-1.1-1-2-1.4-3l-1.7-2.9l-0.9-1.4l-1-1.3l-1-1.3l-1-1.2l-2.3-2.5l-2.4-2.2l-2.6-2l-2.7-2l-2.8-1.7l-0.5-0.2l0.4-0.3
	c0.9-0.5,1.6-1.3,2.4-2l2.1-2.4l0.5-0.6l0.5-0.7l0.8-1.3l0.8-1.4l0.7-1.4c0.5-1,0.8-2,1.1-3l0.8-3l0.4-3.2v-3.2l-0.1-1.6l-0.2-1.6
	l-0.3-1.5l-0.2-0.8l-0.2-0.8l-0.4-1.5l-0.2-0.8l-0.3-0.7l-0.6-1.5l-0.3-0.7l-0.4-0.8l-0.7-1.4l-0.8-1.4c-0.6-0.8-1.1-1.8-1.8-2.6
	l-2-2.5L212.6,17.4L212.6,17.4z M212.8,17.2l2.2,2.3l2,2.5l1.8,2.7l0.8,1.4l0.8,1.4l0.3,0.7L221,29l0.6,1.5l0.3,0.7l0.3,0.8l0.4,1.5
	l0.3,0.8l0.1,0.8l0.3,1.6l0.2,1.6l0.2,1.6V43l-0.4,3.2l-0.8,3.1l-1,3l-0.8,1.5l-0.8,1.4l-0.9,1.4l-0.4,0.7l-0.5,0.6
	c-0.7,0.8-1.3,1.7-2.1,2.4c-0.8,0.8-1.5,1.6-2.4,2.2V62l2.8,1.7l2.8,1.9l2.7,2l2.5,2.3l2.3,2.4l1,1.3l1.1,1.3l1,1.3l1,1.4
	c0.6,1,1.3,1.9,1.8,2.9l1.5,3l1.3,3.1l1,3.2l0.6,3.3c0.4,2.3,0.6,4.5,0.5,6.8l-0.2,3.4L237,105l-0.3,1.6l-0.4,1.7l-0.6,1.6l-0.5,1.6
	l-0.7,1.5c-0.6,1-1,2.1-1.7,3l-0.9,1.5l-0.4,0.7l-0.6,0.7l-1,1.3l-1.2,1.3l-2.4,2.4c-5.2,4.5-11.6,7.4-18.4,8.4
	c-4.5,0.7-9,0.8-13.6,0.1l1.2-0.9l-0.4,2.5l-0.7,2.4c-0.2,0.8-0.6,1.6-1,2.3c-0.2,0.8-0.7,1.5-1.1,2.2l-1.5,2
	c-0.6,0.7-1.1,1.4-1.7,1.9l-0.9,0.8l-1,0.8l-2,1.4L183,149l-2.3,1l-2.4,0.6c-0.8,0.3-1.6,0.3-2.4,0.5c-0.9,0.2-1.7,0.2-2.5,0.2
	l-1.2,0.1h-1.3c-0.8,0-1.6,0-2.4-0.2l-2.5-0.3l1.2-1.4c1.6,5.2,2.3,10.6,2.3,16c-0.1,5.5-1.2,10.9-3.3,16l-1.8,3.6l-1,1.8l-1.2,1.7
	l-1.2,1.6l-1.2,1.6l-1.4,1.5l-1.5,1.5l-1.4,1.3l-1.6,1.3l-1.7,1.3l-0.8,0.6l-0.8,0.5c-1.2,0.7-2.3,1.5-3.5,2.1l-3.7,1.8l-3.8,1.4
	l-2,0.5l-2,0.5c-1.2,0.4-2.6,0.6-3.9,0.8l-2,0.3l-2,0.2c-2.7,0.2-5.4,0.3-8.1,0.2l-4-0.4l-4-0.6c-1.4-0.2-2.6-0.6-4-0.9l-2-0.5
	l-1.8-0.6l-3.9-1.3l-3.7-1.5c-2.4-1.2-4.8-2.3-7.1-3.8c-2.4-1.3-4.5-3-6.7-4.5l1.3-0.3l-0.8,1.6l-0.4,0.7l-0.5,0.8l-1,1.5l-1.2,1.4
	l-0.6,0.6l-0.6,0.6l-1.3,1.2l-1.4,1.1l-1.4,1c-1,0.7-2,1.3-3.1,1.8l-1.7,0.7l-1.6,0.6c-2.3,0.8-4.6,1.3-7,1.5l-3.4,0.1h-1.8
	l-0.9-0.1l-0.8-0.1c-1.2-0.2-2.4-0.3-3.5-0.6l-1.7-0.4l-1.7-0.5l-3.3-1.2l-3.1-1.5l-3-1.8l-2.9-2c-0.9-0.8-1.7-1.6-2.6-2.4l-2.4-2.6
	c-1.5-1.8-2.7-3.7-3.8-5.8l-0.8-1.5l-0.7-1.7c-0.5-1-0.8-2.2-1.1-3.3l-0.4-1.7l-0.3-1.7l-0.1-1.8l-0.1-1.7v-1.8l0.2-1.7
	c0.1-1.2,0.4-2.3,0.7-3.5l0.6-1.6l0.6-1.7c0.5-1,1-2,1.7-3l1-1.5l1-1.4c0.8-1,1.7-1.6,2.5-2.4l2.8-2.2l3-1.7v0.6
	c-3.5-1.1-6.7-2.7-9.8-4.7l-2.2-1.6l-2-1.7c-1.4-1.2-2.7-2.6-3.9-4l-1.7-2l-1.5-2.4c-0.5-0.7-1-1.5-1.3-2.3l-0.7-1.3l-0.5-1.2
	c-0.7-1.7-1.3-3.4-1.7-5.2L11,125l-0.2-2.7v-2.8l0.3-2.7c0.3-1.8,0.8-3.6,1.4-5.3l1.1-2.5l0.7-1.2l0.7-1.1l0.7-1.2l1-1
	c1.7-2.1,3.7-4,6-5.5l1.1-0.8l1.2-0.7l1.2-0.6l1.3-0.6c1.7-0.7,3.4-1.3,5.2-1.7l2.7-0.5l2.7-0.3l-0.3,0.7l-2.2-3.3l-2-3.5L32,84.1
	l-0.7-1.9l-0.6-1.9c-1.6-5.1-2.3-10.4-2.1-15.7c0-0.6,0-1.3,0.2-2l0.2-2c0.1-1.2,0.5-2.5,0.8-3.8l1.1-3.9l1.6-3.7l1.9-3.5l2.3-3.3
	l2.6-3l2.8-2.8l3.2-2.5l3.4-2.1l3.5-1.9l3.7-1.5c1.3-0.4,2.5-0.9,3.8-1.2l4-1l3.9-0.5c1.3,0,2.6-0.3,4-0.3c2.6,0,5.3,0,8,0.3
	l3.9,0.6l3.9,0.9l3.8,1l3.7,1.5l3.7,1.6l3.5,1.8l-1.2,0.5c1.3-4,3.6-7.7,6.5-10.7l1.5-1.4l1.7-1.3l0.8-0.6c0.3-0.3,0.6-0.4,1-0.6
	l1.7-1l2-1l0.9-0.4l1-0.4l2-0.6l2-0.5l1-0.3l1-0.1l2-0.3l2.1-0.1h4.1l2.1,0.2c1.4,0.1,2.7,0.5,4,0.7l2,0.6l2,0.6l3.9,1.6l1.8,0.9
	l1.8,1l3.4,2.3l3.2,2.7l-0.7,0.1c1.6-4.7,4.5-8.9,8.3-12.2l1.7-1.3l1-0.6l0.8-0.6l1.9-1l2-1l0.9-0.4l1-0.4l2-0.6l2.1-0.5l1-0.3
	l1.1-0.1l2.1-0.3l2.2-0.1h4.2l2.2,0.4c1.4,0,2.8,0.5,4.2,0.7l2,0.6l2,0.7c1.3,0.6,2.7,1,4,1.7l1.8,1l1.9,1l3.5,2.5L212.8,17.2
	L212.8,17.2z"/>
<path class="st8" d="M205.4,181.9c6.4,3.5,8.9,10.7,5.5,16.1c-3.4,5.4-11.3,7-17.7,3.5s-9-10.8-5.6-16.2S198.9,178.3,205.4,181.9
	 M228.1,211.3c-1,3.7-4.8,6-8.5,5c-3.8-0.7-6.3-4.4-5.5-8.2V208c1-3.7,4.8-6,8.5-5c0,0,0,0,0.1,0
	C226.5,203.8,228.9,207.5,228.1,211.3L228.1,211.3"/>
<path class="st6" d="M180.6,573h244.2"/>
<path class="st9" d="M76,573h399.2 M484.2,573H518"/>
<g>
	<g>
		<path class="st10" d="M326.8,266c6.2-3.3,12.2-7.1,17.2-12.1c11.4,16.5,25.8,37.7,29.3,45.2c-7.3,5.4-23.8,16.5-31,27.6l-4.1-5.9
			l-15.6-22.4c-4.9-7.6-9.9-15.2-14.8-22.8C314.2,272.5,320.5,269.4,326.8,266z"/>
	</g>
	<g>
		<g>
			<path class="st11" d="M255.3,241.9c1.3,2.8,4.3,8.4,10.5,12.4c1.1,0.7,15.6,9.8,26.2,1.8c8.8-6.6,7.3-19.4,7.3-20
				c-2.9-17.8-3.8-30.9-3.7-32.8c0.2-2.6,0.5-5,0.5-5c0,0,0,0,0,0c0.3-2.6,0.6-5,1-7.4c-8-2.4-28.9-1.2-36.9,14.2
				c-3,5.8-4.2,13.6-2.2,24c0.1,1.5,0,3.3-0.3,5.3C257.2,237.6,256.2,240.1,255.3,241.9z"/>
			<path class="st12" d="M258,229.1c0,0.7,0,1.3,0,2.1c0,1.2-0.2,2.3-0.3,3.2c2-0.3,4.5-0.7,7.4-1.6c3.2-1,5.6-2,6.2-2.3
				c4.2-1.9,10.1-4.6,13.7-10.6c1.8-2.9,2.4-5.6,3.1-8.7c0.9-4.1,1.1-7.6,1-10c-4.6-1.4-18.2-5.1-27,2.1c-0.6,0.5-1.3,1.1-1.9,1.8
				C257.2,210.9,256,218.7,258,229.1z"/>
			<path class="st11" d="M236.6,182.2c0,0.2,0,0.3,0.1,0.5c0.1,0.8,0.4,1.7,0.8,2.5c0,0,0.3,0.6,1.3,2.9c0.5,1.3,1.1,7.6,1.3,16.4
				c0,1.5,0.3,3.7,0.9,6.6c0.7,3.4,2,9.1,6.2,14.6c1,1.3,2.5,3,4.7,4.9c0.8,0.7,1.9,1.1,3,1c1-0.1,2.2-0.2,3.5-0.5
				c0.2,0,0.6-0.1,1.2-0.3c3.3-0.7,7.1-1.8,11.1-3.3c2.5-0.9,5.5-2,7.6-3c4.7-2.3,8-6.8,8.9-11.9c0.8-3.2,0.9-6.3,1.7-9.4
				c0.3-2,0.5-3.9,0.8-5.9c0.1-0.1,0.1-0.2,0.2-0.2c0.4-0.2,0.6-0.1,1.2-0.2c5.9-1,9.6-8.7,10.6-10.8c4.3-8.8,5.6-27.2-6.3-37.5
				c-7.7-6.6-17-6.5-22-6.6c-7.4-0.2-38.1,4.8-36.5,30.9c0.1,2.1,0.1,4.2-0.2,6.3c0,0.3-0.1,0.5-0.1,0.8c0,0.1,0,0.3,0,0.4
				C236.5,180.9,236.5,181.6,236.6,182.2z"/>
			<path d="M289.1,184.1c-2,1.6-1,3.9-1,4.5c-0.6,0.6-2.6,1.2-3.2,1.8c-0.1-1.9-0.2-3.8-0.2-5.7c-0.2-2.4-1-3.9-1.7-4.8
				c-0.9-1.2-1.7-1.5-3.5-3.3c0,0-1.5-1.4-2.9-3.2c-3.6-4.7-5.1-9.7-5.6-11.4c-0.3-1.1-0.5-2-0.6-2.6c-1.3,0-3.2,0-5.5,0.3
				c-3.5,0.3-5.9,0.9-6.8,1.1c-9.5,2-15.3-2-19.1,1.3c-1.5,1.3-3,3.9-2.5,10.2c-3.8-9.3-2.4-15.5-1.6-18.1
				c5.3-16.7,31.9-24.5,48.4-15.8c4.7,2.5,7.8,5.8,9.5,8c4.6,1.1,7.3,3.2,8.7,4.6c6.6,6.6,6.2,17.8,5.9,27.9
				c-0.1,1.6-0.3,3.1-0.3,3.1c-0.4,3-1.1,5.2-1.3,5.8c-1.7,5.3-4.2,20.7-6.2,26c-0.2,0.6-0.7,1.8-1.9,2.4c-0.8,0.4-1.6,0.5-2.2,0.4
				c-0.9-8-0.6-13.5-0.1-17.3c0,0,0-0.1,0-0.1c0.2-1.1,0.7-5,0.9-8.4c0.3-4.4,0.5-6.6-0.3-7.4C294.6,182.1,291.2,182.4,289.1,184.1z
				"/>
			<path id="XMLID_00000109015806951619154160000000948044555734715830_" class="st13" d="M309.9,168.8
				c-41-20.9-63.8-18.1-71.5-17.2c-1.3,0.3-3.3,2.9-3,7.3c-1.8,2.6-2.4,6.3-0.5,7.9c0,0,0,0.1-0.1,0.2c-0.2,1,0.7,2,1.8,2.1
				c8.5,0.6,28.9-6.5,67.6,15.8c0.9,0.6,2.1,0.5,2.8-0.3c0.7-0.9,1.3-2.3,1.3-4.4c2.3-1.4,2.4-5.7,1.8-6.9
				C310.5,171.1,310.6,169.2,309.9,168.8z"/>
			<path class="st11" d="M287.1,185c0.5-7,3.6-8.6,3.6-8.6c2.4-1.1,5.7,0,7.4,2.2c1.3,1.7,1.2,3.7,1.2,5.1c-0.1,2.6-1.2,4.5-2.6,7.1
				c-1.1,1.9-1.6,2.8-2.7,3.8c-2.1,1.8-4.5,2.2-5.8,2.3c-0.2-0.1-0.5-0.2-0.8-0.5c-1.3-1.3-0.7-3.5-0.6-9.8
				C286.9,186.4,287,185.8,287.1,185z"/>
		</g>
		<path class="st14" d="M251,218.8c-0.2-0.5,3.1-3,7.1-3.8c2.1-0.5,4.5-0.5,4.6-0.1c0.1,0.4-2.3,1.3-4.5,2
			C255.5,217.9,251.2,219.3,251,218.8z"/>
		<g>
			<path class="st8" d="M249.9,190.9c-2.1-3.5-5.6-4.4-7.1-3.4c-1.1,0.8-1.4,2.7-1,4.5C243.6,195.8,247.3,195,249.9,190.9z"/>
			
				<ellipse transform="matrix(0.9747 -0.2236 0.2236 0.9747 -36.4186 59.5895)" class="st15" cx="244.9" cy="190.6" rx="2.3" ry="3.5"/>
			<ellipse transform="matrix(0.9747 -0.2236 0.2236 0.9747 -36.4546 59.4814)" cx="244.4" cy="190.7" rx="1.2" ry="1.8"/>
			
				<ellipse transform="matrix(0.9747 -0.2236 0.2236 0.9747 -36.1805 59.6116)" class="st8" cx="245.1" cy="189.6" rx="0.3" ry="0.5"/>
			<path class="st16" d="M241.8,192c-0.3-1.7,0.2-3.3,1.4-4c1.7-1.1,4,0.3,4.6,0.6c1.1,0.7,1.8,1.6,2.1,2.2
				c-0.3-0.6-0.9-1.9-2.3-2.8c-0.3-0.2-3.3-2.2-5.2-0.7C241.3,188.2,241,190.2,241.8,192z"/>
		</g>
		<path class="st14" d="M249.6,206.8c-0.1,0.3,1.2,1.7,2.9,2c2.9,0.5,5.6-2.4,5.4-2.6c-0.1-0.2-2,1.5-4.9,1.3
			C251,207.5,249.7,206.6,249.6,206.8z"/>
		<g>
			<path d="M273.2,181.8c-0.7-1.2-1.6-2.7-3.1-4.1c0,0,0,0,0,0c-0.8-0.8-1.9-1.3-3.1-1.4c-2.8-0.4-5.5-0.7-8.3-1.1
				c-0.2,0.2-0.7,0.6-0.9,1.2c-0.2,0.5-0.3,0.9-0.3,1.2c3.2,0.4,6.5,0.9,9.7,1.3c0.7,0.1,1.4,0.3,2,0.7
				C270.5,180.3,271.8,181.1,273.2,181.8z"/>
		</g>
		<g>
			<path d="M236.8,183.4c0.8-0.3,1.8-0.6,2.7-0.8c0.2,0,0.4-0.1,0.6-0.1l9.3-0.4c0-0.3,0-0.7-0.2-1.2c-0.2-0.6-0.6-1-0.8-1.2
				c-2.7,0.1-5.3,0.2-8,0.3c-0.7,0-1.3,0.2-1.3,0.2c-1.1,0.2-2,0.6-2.6,0.8c0,0.4-0.1,0.8,0,1.4
				C236.6,182.8,236.7,183.1,236.8,183.4z"/>
		</g>
		<g>
			<path class="st8" d="M259.1,190.6c0.4,0.3,0.9,0.7,1.7,1c1.7,0.7,3.2,0.4,4,0.3c3-0.5,4.9-2.3,5.7-3.1c-0.5-0.7-2.2-3-5.2-3.6
				c-0.8-0.2-2.4-0.5-3.8,0.4C258.9,187,259.1,190.5,259.1,190.6z"/>
			<g>
				<path class="st15" d="M261.1,189c0.4,1.7,1.8,2.9,3.2,2.6c1.4-0.3,2.3-1.9,2-3.6s-1.8-2.9-3.2-2.6
					C261.6,185.7,260.7,187.3,261.1,189z"/>
				<path d="M261.8,188.9c0.2,0.9,0.9,1.4,1.6,1.3c0.7-0.1,1.2-1,1-1.8c-0.2-0.9-0.9-1.4-1.6-1.3
					C262.1,187.3,261.6,188.1,261.8,188.9z"/>
				<path class="st8" d="M261.6,188c0.1,0.3,0.3,0.5,0.5,0.4s0.4-0.3,0.3-0.6c-0.1-0.3-0.3-0.5-0.5-0.4
					C261.7,187.5,261.6,187.7,261.6,188z"/>
				<path d="M259.1,190.6c0.1-0.4,0.5-3.1,2.8-4.4c2.5-1.4,6.3-0.5,8.6,2.6C270.1,186.7,260.3,178.5,259.1,190.6z"/>
			</g>
		</g>
		<g>
			<path d="M289.9,200.1c0.9-0.1,1.2-1.9,1-3.5l-0.6,0.2c0.1,1.8-0.3,2.7-0.5,2.8c-0.2,0-0.8-0.9-0.9-2.7c-0.1-1.8,0.3-2.8,0.5-2.8
				c0.1-0.2,0.1-0.4,0-0.6c-0.9,0.1-1.2,1.9-1,3.5C288.5,198.4,289,200.2,289.9,200.1z"/>
		</g>
	</g>
	<g>
		<g>
			<g>
				<path class="st11" d="M336.3,267.7c-0.1-3.1,0.5-7.7-0.6-10.7c-11.3-2.1-25-12.4-33.7-17.1c-0.4-0.2-0.9-0.7-1.3-1.3
					c-0.9-1.5-1.5-3.3-1.9-5.2c-0.8,1.3-1.7,2.7-2.6,4c-2.5,3.5-5.6,6.9-9.6,8.9c-3.8,1.9-8.2,2.3-12.3,1.8
					c-4.3-0.5-8.2-2.1-11.3-5.1c-2.5-2.4-4.4-5.5-5.6-8.8c-0.2,0.8-0.4,1.7-0.7,2.4c0,0-23.5,17.9-37.1,20.4
					c-2.2,0.8-2.1,5.9-2.2,7.6c-0.4,5.5-1.2,13.6-0.9,19.2c0.5,8.6,1.3,17.2,2.2,25.8c0.8,8.1,0.5,16.1,3.3,23.9
					c1.9,5.3,5.1,10,6.5,15.5c1.5,5.8,1.6,11.7,1.3,17.5h93.6c0-3.1,0.2-6.1,0.6-9.2c0.5-4.3,1.5-8.5,3-12.6c1.7-4.5,4.6-8.5,6-13.1
					c1.4-4.6,2-9.4,2.4-14.2c0.7-8.1,0.8-16.3,0.9-24.5C336.5,285.4,336.5,275.3,336.3,267.7z"/>
			</g>
			<g>
				<path class="st10" d="M179.7,343.9c9.8-33.4,16.2-57.3,17.9-69c0.4-2.9,1.7-11.2,7.7-16c2-1.6,4.5-2.7,7.8-3.3
					c5.7-1,9.6-1.4,15.2-2.9l15.9,13.6c-8,29.7-16.1,59.5-24.1,89.2c-6.3-1.9-12.6-3.8-19.1-5.7
					C193.8,347.7,186.7,345.7,179.7,343.9z"/>
			</g>
			<path class="st11" d="M240.8,717.6c-1.2-7.8-3-18.8-5.7-32.6c-1.4-7.3-3.3-16.6-5.8-27.4c0,0,16.6-16.3,30.7-8.6
				c10.6,5.8,7.1,26.9,3.2,69.4c-0.4,4.7-0.8,8.6-1.1,11.5c-6.5,0-13,0-19.4,0C242.2,727,241.6,722.8,240.8,717.6z"/>
			<path class="st11" d="M320.1,717.6c1.2-7.8,3-18.8,5.7-32.6c1.4-7.3,3.3-16.6,5.8-27.4c0,0-16.6-16.4-30.7-8.6
				c-10.1,5.6-7.1,26.9-3.2,69.4c0.4,4.7,0.8,8.6,1.1,11.5c6.5,0,13,0,19.4,0C318.7,727,319.3,722.8,320.1,717.6z"/>
			<path class="st8" d="M211.8,457.9c-3,40.3-4.2,74.9-4.6,102.1c-1,68.2,2.9,89,18.1,101.4c12.7,10.3,29.3,11.4,41.8,10.5
				c3.2-16.5,6.1-34.4,8.3-53.5c2.3-19.9,3.6-38.7,4.1-56.1c-2-33.3-4-66.5-6-99.8C252.9,461,232.3,459.4,211.8,457.9z"/>
			<path class="st8" d="M342,455.3c8.4,26.3,27.2,182-14.4,216.2c-5.5,9.1-26.7,9.9-33.3,2.4c-3.2-17-6.2-34.5-9-52.6
				c-3.6-23.6-6.5-46.5-8.8-68.6c-1.4-9.2-2.5-19.2-3-29.9c-1.1-23,0.7-43.4,3.4-60.4C284,454.7,334.7,450.9,342,455.3z"/>
			<g>
				<g>
					<path class="st17" d="M265,574.4c1.6,20.5-11.7,41.6-30.9,49C249.2,608.8,258.4,594.4,265,574.4L265,574.4z"/>
				</g>
				<g>
					<path class="st17" d="M266.8,591.9c6.4,18.2-0.7,40.6-16.4,51.9c4.5-8.2,8.6-16.2,11.3-25C264.6,610,265.9,601.2,266.8,591.9
						L266.8,591.9z"/>
				</g>
				<g>
					<path class="st17" d="M290.2,578.8c5,7.8,9.6,15.4,14.9,22.9c5.2,7.5,10.9,14.4,16.4,21.7C305.1,615.1,292.5,597,290.2,578.8
						L290.2,578.8z"/>
				</g>
				<g>
					<path class="st17" d="M286.7,596.3c3.1,7.8,6,15.3,9.8,22.7c3.8,7.4,8.2,14.1,12.7,21.2C294.4,631.8,284.9,613.2,286.7,596.3
						L286.7,596.3z"/>
				</g>
				<g>
					<path class="st17" d="M263.4,554.9c0.2,14.8-10.7,29.9-24.9,34.4c2.4-2.9,4.8-5.6,7-8.3C252.5,572.9,257.9,564.2,263.4,554.9
						L263.4,554.9z"/>
				</g>
				<g>
					<path class="st17" d="M292.4,558.7c5.6,6.7,11.5,15.1,16.9,21.9c1.9,2.4,3.8,4.9,5.6,7.7c-3.2-1-6-2.7-8.6-4.7
						C298.7,577.6,292.9,568.6,292.4,558.7L292.4,558.7z"/>
				</g>
				<path class="st18" d="M296,483.2c1.6,4.8-0.1,11.4-0.2,15.9c-0.2,10.2,0,20.5,0.2,30.7c0.4,20.7,1.5,41.4,0.7,62.1
					c-0.1,3,0.1,6.5-1,9.3c-3.7,9.9-25.6,13.3-33.7-1.2c-3.2-5.6-2.7-13.8-2.7-20c0-10.8,0.8-21.6,1.7-32.3
					c1.7-19.8,3.6-39.6,5.9-59.3c1.1-9.4,13-12.4,20.9-11.3c2.4,0.4,5,1.2,6.6,3.1C295.1,481.1,295.7,482.1,296,483.2z"/>
			</g>
			<path class="st10" d="M208.9,256.8c31.5-10,41-14.9,42-17.4c0.2-0.4,0.9-2.5,2.7-3.5c1.1-0.6,3.7-0.7,3.7-0.7
				c-5.8,13.3-6.3,26.5,9.6,32.8c1.8,0.7,10.9,15.8,11.5,19.7c0,0,6.7-18.8,8.6-19.5c17.4-6.3,16.1-21.5,12.2-33.3
				c0.6,0.1,1.8,0.4,3,1.2c0.4,0.3,1.4,1,2.2,2.3c0.4,0.6,0.6,1.1,0.7,1.5c14.5,6.9,25.3,11.9,29.4,13.5c3.9,1.6,7.7,3.1,11.4,4.5
				c0,0.7,0.1,1.9,0.1,3.4c0.1,18.4-3.4,29.1-6.3,50.8c-2,14.4-4.1,31.2-5.9,65.2c-0.2,3.2-0.5,9.4,0.1,17.6
				c0.8,10.8,3,18.6,3.4,21.5c1.8,14.2,9.4,50.5,9.5,55.7c-17.2,6-44,13-77.2,12.2c-24.7-0.6-45.3-5.2-60.3-9.9
				c3.7-27.9,6.3-46.9,7.3-53.7c0.2-1.5,1-6.3,1.6-12.9c0.2-2,0.4-4.1,0.5-6.4c0.5-8.7,0.3-13.6,0.2-26.8
				c-0.1-19.9-0.3-18.9,0.1-26.6c0.7-15.9-4.3-35.8-4.3-35.8C212.2,301.8,209.5,285.1,208.9,256.8z"/>
			<g>
				<path d="M277.6,250.7c-1.6,0-11.6-0.3-17.1-7.7c-1.3-1.7-2-3.4-2.4-4.5c-0.5-1.5-0.8-2.7-1-3.7c0,0,0-0.1,0-0.1
					c-0.1-0.2-0.4-1.2,0.2-2.2c0.1-0.2,0.3-0.4,0.6-0.6c0.1,0.5,0.2,1.3,0.4,2.2c0,0,1,4.1,3.2,7.5c3.2,4.7,15.8,11,26.5,5.3
					c7.6-4,10.1-11.7,10.7-13.6c0.2,0.1,0.4,0.7,0.6,1.3c0.1,0.4,0.1,1.1,0.1,1.3c-0.9,2-3,8.5-10.8,12.3
					C287.5,249,283.3,250.9,277.6,250.7z"/>
			</g>
			<g>
				<path d="M260.9,740.9c1.1,0.4,2.4,1.2,3.5,2.5c2.7,3.5,1.2,8.7-1.2,16.3c-1.9,6-4.2,12.8-7.1,20.5c-1.3,2.7-3.5,5.8-7,7.5
					c-10,4.6-25.3-5.2-26.1-14.5c-0.3-3,1.1-5.6,4-10.6c3.9-6.9,8.2-11.8,11.3-14.9C245.8,745.4,253.4,743.1,260.9,740.9z"/>
				<path class="st11" d="M239.5,740.9c-3.9,10.5-6.5,17.2-10.9,23c-0.8,1-2.3,3-2.6,5.8c-0.1,0.5-0.3,3.9,1.8,6.5
					c0.7,0.8,1.1,1,4.3,3.1c4.4,2.8,3.9,2.7,5,3.3c2.2,1.2,5.4,2.8,8.7,2.2c5-0.9,7.5-6.4,7.9-7.2c0.8-2.4,1.5-4.7,2.3-7.1
					c1.6-4.9,2.4-7.7,4.1-13.2c1.5-4.9,2.2-7.3,2.3-8.2c0.4-4-0.5-5.9-0.6-11.4c-0.1-3.2,0.1-5.9,0.3-7.6c-2.9-0.7-6.9-1.4-11.7-1.2
					c-3,0.2-7.5-1-7.7,1.2C242.2,735,240.4,738.4,239.5,740.9z"/>
				<path d="M225.8,766.2c3.8,0.5,8.5,1.4,13.6,3.1c7.5,2.6,13.2,6.2,17.1,9.1c1.3-4.1,2.7-8.1,4-12.2c-1.9-2.3-5.7-6.1-11.8-8.8
					c-6.7-3-12.7-3.1-15.7-2.9C230.6,758.4,228.2,762.3,225.8,766.2z"/>
			</g>
			<g>
				<path d="M299.3,739.9c-1.1,0.4-2.5,1-3.6,2.3c-2.9,3.4-1.7,8.7,0.2,16.3c1.6,6.1,3.5,13.1,5.9,20.9c1.1,2.7,3.1,6,6.6,7.9
					c9.8,5.2,25.6-3.7,26.9-13c0.4-3-0.8-5.6-3.4-10.8c-3.5-7.1-7.5-12.3-10.4-15.5C314.1,745.3,306.7,742.6,299.3,739.9z"/>
				<path class="st11" d="M320.7,741.2c1.8,6.6,4.7,16.3,9.6,23.6c0.7,1.1,2.2,3.1,2.3,5.9c0,0.5,0.1,3.9-2.2,6.4
					c-0.7,0.8-1.1,0.9-4.5,2.8c-4.6,2.6-4.1,2.5-5.2,3c-2.3,1-5.5,2.5-8.8,1.7c-5-1.2-7.2-6.8-7.5-7.6c-0.6-2.4-1.3-4.8-1.9-7.2
					c-1.3-5-2-7.8-3.3-13.4c-1.2-4.9-1.8-7.4-1.9-8.3c-0.2-4.1,0.8-5.9,1.3-11.4c0.3-3.2,0.2-5.9,0.1-7.7c2.5-1.1,6.1-2.3,10.7-2.8
					c3.7-0.3,9.4-2,9.2,0.4C318.4,733.1,319.8,738,320.7,741.2z"/>
				<path d="M332.9,767.2c-3.8,0.2-8.5,0.9-13.7,2.4c-7.6,2.2-13.6,5.4-17.6,8.1c-1.1-4.1-2.2-8.2-3.3-12.4
					c2.1-2.1,6.1-5.8,12.3-8.2c6.9-2.6,12.9-2.3,15.9-2C328.6,759.2,330.8,763.2,332.9,767.2z"/>
			</g>
		</g>
		<path class="st13" d="M332.7,255.1c-0.8-6.6-6.6-7.2-8.5-6.6c-1.8-3.2-4.8-4.6-8.2-3.3c-0.6-2.3-5.9-3.9-7.4-2.8
			c0.4,10.7-1.3,113.9-14.5,152c-0.7,3.5,24.7,14.3,34,7.8C329.2,397.1,339.7,284.7,332.7,255.1z"/>
		<path class="st10" d="M212.7,447.9c-2,16.9-4.4,34.2-7.2,52c-1.2,7.5-2.5,15-3.8,22.3c16.3,6.1,40.2,13,69.7,14.3
			c36,1.7,65.1-5.6,83.2-11.7c-1.5-11.8-3.1-23.8-5-36c-1.9-12.7-4-25-6.2-37c-11.2,6-42.5,20.8-82.2,14.5
			C239.3,462.9,222.8,454.3,212.7,447.9z"/>
		<path class="st19" d="M267.4,268.3c-1.1,0.6-2.8,1.5-4.3,3.2c-3.7,4.1-3,8.5-4.6,8.7c-2.1,0.4-5.4-7.6-6.8-12.2
			c-1.2-3.6-3-9.3-2.7-17c0.2-4.9,1.1-8.9,1.9-11.7c0.1-0.5,0.7-2.1,2.4-3.2c1.9-1.2,3.8-1,4.2-0.9c-0.9,1.3-5.2,8.2-3.4,17
			C256.3,263.3,266.4,267.9,267.4,268.3z"/>
		<path class="st19" d="M286.8,268.2c1.1,0.6,2.7,1.7,4.1,3.5c3.4,4.3,2.5,8.6,4,9c2.1,0.5,5.9-7.3,7.6-11.7c1.4-3.5,3.6-9,3.8-16.8
			c0.1-3.6-0.2-6.7-0.6-9.3c-0.2-1.2-0.4-2.1-0.5-2.6c-0.3-1.1-0.5-2.1-0.8-2.7c-0.9-1.9-3.5-2.6-5.2-2.9c1,2.5,1.9,5.7,1.9,9.4
			C301,258.2,288.5,267,286.8,268.2z"/>
		<g>
			<path class="st19" d="M286.8,268.2c-3,6.8-5.8,13.9-7.9,21c-1.6,7.2-1.8,14.8-2,22.2c-0.2,10-0.1,20,0.2,30c0,0-0.6-0.5-0.6-0.5
				c3.6-0.1,7.3-0.2,10.9-0.2c-3.8,0.6-7.6,1-11.4,1.5c0,0-0.1-0.6-0.1-0.6c-1-10-1.5-20.1-1.3-30.1c0.2-7.6,0.5-15.2,2.5-22.6
				C279.6,281.6,282.8,274.8,286.8,268.2L286.8,268.2z"/>
		</g>
		<circle class="st19" cx="282.2" cy="294.3" r="2.3"/>
		<circle class="st19" cx="281.5" cy="316" r="2.3"/>
		<circle class="st19" cx="281.5" cy="334.8" r="2.3"/>
	</g>
	<path class="st19" d="M335.7,317.9c11.9-8.9,23.7-17.9,35.6-26.8c2,2.6,4,5.4,6,8.5c1.8,2.7,3.4,5.4,4.8,7.9
		c-11.5,8.7-23,17.4-34.5,26.1c-1.7-2-3.4-4.1-5.2-6.4C339.9,324.1,337.7,320.9,335.7,317.9z"/>
	<g>
		<path class="st11" d="M313.1,225.8c5.2,13.4,8.4,24.6,10.3,32.2c2.6,10.2,7.1,37.7,16,55.5c2.2,4.4,4.5,8.2,6.5,11.4
			c2.8,4.4,8.7,10,13.9,11c0,0,0.1,0,0.1,0c2.2,0.5,7.4,1.5,10.3,1c3.5-0.7,5.5-4.1,8.4-9.2c1.6-2.8,3.7-6.5,3.9-11.4
			c0.2-4.5-1.1-8.3-2.7-11.4c-4.3-8.6-24.4-40.8-52.7-83.7C322.5,222.7,317.8,224.2,313.1,225.8z"/>
		<g>
			<path class="st11" d="M294.3,189.5c0,1.5,0.8,4.5,3.1,9.8c2.3,5.4,0.5,5.7,4.9,12.4c1.9,2.9,2.5,3.4,4,5.1
				c0.7,0.8,1.2,1.5,1.5,1.9c0.5,0.7,1.3,1.7,2.4,3.1c0.7,0.8,1.4,1.8,2.4,2.9c0.3,0.6,0.6,1.3,0.9,2c0.4,0.9,0.7,1.7,1,2.5
				c1.4-0.9,3-1.7,4.7-2.6c3.2-1.6,6.3-2.8,9.1-3.7c-0.7-1.5-1.4-3-2.2-4.4c-0.1-1.3-0.2-3-0.5-5.2c-1.1-8.1-3.2-14.4-4.9-18
				c-3-6.3-4-9.6-7.2-13.2c-5.2-5.9-11.8-8.7-16.2-10.1c-0.2,0.3-1.1,1.6-0.8,3.3c0.5,2.6,3.3,3.8,3.4,3.8c6.3,4,10,9.2,10.7,13.1
				c0.7,3.4,0,6.8,0,6.8c-0.2,1-0.5,1.8-0.7,2.4c-0.1,0-0.1,0-0.2,0c-1-0.1-3.4-0.7-5.3-2.7c-1.2-1.3-1.7-2.6-1.9-3.4
				c-0.2-0.9-0.8-2.7-2.5-4.3c-1.2-1.2-3.5-2.9-4.8-2.7c-0.2,0-0.3,0.1-0.4,0.1C294.5,188.4,294.3,188.8,294.3,189.5z"/>
		</g>
	</g>
	<path class="st19" d="M221.9,338c-13.6-4.1-27.3-8.2-40.9-12.3c-0.9,3.1-1.8,6.5-2.6,10.1c-0.7,3.2-1.2,6.3-1.7,9.1
		c13.8,4.1,27.7,8.1,41.5,12.2c0.9-2.1,1.9-4.8,2.6-7.8C221.7,345,221.9,341.1,221.9,338z"/>
	<g>
		<path class="st20" d="M252.5,263.5c-2.9-2.1-5.8-3-7.5-3.3c-1,2-2.4,4.7-4.5,7.6c0,0-0.9,1.3-1.9,2.5
			c-8.5,10.5-24.7,24.4-24.7,24.4c-12.4,10.6-22.3,19.9-28,31.4c-6.2,12.6-3.8,22.3-1.6,28.2c2.2,5.9,5.8,10.7,11.7,8.5
			c5.9-2.2,16-7.1,22.3-14.5c16.2-19,17.6-36.6,34.5-64.6c2.7-4.5,5.1-8.1,6.6-10.3C258.9,271.6,257.2,267,252.5,263.5z"/>
		<path class="st20" d="M278,241.1c-0.1-0.7-0.1-1-0.8-2.3c-0.7-1.3-2.2-2.3-2.2-2.3s-0.9-2.6-1.6-3.7c-0.7-1-5.3-1.7-5.3-1.7
			s1.8-4.5,2.9-5.7c1.1-1.2,6.7-5.4,8-7.4c1.3-2,0.8-3.8-0.9-4.4c-1.7-0.6-7.1,2.5-12.5,8c-5.4,5.5-12.5,13.9-12.5,13.9
			s-2.3-7.1-4.1-10.6c-1.8-3.5-7.6-5.8-9.1-4.4c-1.6,1.3,0.9,4.7,1.6,6.7c0.6,2,2.2,6.6,2.5,8.9c0.3,2.3-1.7,7.3-1.6,10.2
			c0.1,2.9,3.3,15.4,3.3,15.4s-0.5,1.1-1.1,2.6c0.2,0,0.4,0,0.7,0.2c4.6,3.4,9.6,6.1,14.5,9.1c2.6-3.8,5.1-7.2,5.8-7.9
			c1.4-1.3,9.1-9.2,10.2-11.1c1.1-1.8,4.2-5.8,4.6-8.6C280.2,243,278.1,241.7,278,241.1z"/>
	</g>
</g>
</svg>
