<?xml version="1.0" encoding="utf-8"?>
<!-- Generator: Adobe Illustrator 16.0.0, SVG Export Plug-In . SVG Version: 6.00 Build 0)  -->
<!DOCTYPE svg PUBLIC "-//W3C//DTD SVG 1.1//EN" "http://www.w3.org/Graphics/SVG/1.1/DTD/svg11.dtd">
<svg version="1.1" id="Layer_1" xmlns="http://www.w3.org/2000/svg" xmlns:xlink="http://www.w3.org/1999/xlink" x="0px" y="0px"
	 width="1080px" height="1080px" viewBox="0 0 1080 1080" enable-background="new 0 0 1080 1080" xml:space="preserve">
<path fill="#6F7EC1" d="M792.754,689.843c-5.654-42.408,68.419-45.801,61.634-5.654c16.397-27.142,62.198-0.565,49.759,29.403
	c13.006-2.262,23.749,8.481,28.838,19.79c6.22,14.137,1.696,24.314-7.916,35.623c13.005,0,26.576,10.744,27.141,23.749
	c1.131,18.66-1.695,24.314-11.874,33.927c14.136,1.696,18.66,18.659,18.095,31.1c-0.566,19.225-10.179,23.749-27.707,27.142
	c-19.791,3.393-36.754,3.393-57.11,1.131c-16.963-1.696-35.623-7.917-53.151-7.917c-28.838,0-57.676-3.393-86.514-7.351
	c-19.225-2.262-46.366-1.131-58.806-18.094c-10.744-13.006-13.571-31.1-7.351-46.933c3.958-8.481,22.617-32.229,33.926-16.963
	c-15.832-13.005-15.832-24.88-11.309-39.581c5.089-14.137,22.053-26.576,36.754-19.226c-10.178-18.659-1.131-38.45,15.833-50.89
	c0,0,31.665-19.791,49.759,11.309V689.843z"/>
<path fill="#AEB4FC" d="M567.142,811.979c-26.011-28.272,15.267-67.854,43.539-45.236c-23.749-45.235,58.241-71.246,61.634-22.617
	c20.355-26.011,67.854-12.44,57.109,23.748c39.581-11.874,59.372,39.581,35.058,58.241c20.922,5.089,24.314,35.623,9.612,47.497
	c-13.57,10.744-47.497,8.481-65.025,8.481c-23.749,0-47.498-1.696-70.115-3.393c-26.011-2.262-66.723,5.655-88.21-13.005
	c-9.612-8.481-19.79-15.832-15.267-39.581C537.173,817.068,558.094,797.843,567.142,811.979L567.142,811.979z M857.215,849.299
	c-14.137-15.833,8.481-37.32,23.748-24.88c-12.439-25.445,32.23-39.581,33.928-13.005c11.309-14.137,36.754-6.786,31.099,13.005
	c22.053-6.22,32.23,22.618,19.226,32.796c11.309,2.262,13.57,19.225,5.654,26.011c-7.916,5.654-26.011,4.523-36.188,4.523
	l-37.885-1.696c-14.136-1.696-36.188,2.827-48.063-7.352c-5.655-4.523-11.31-8.481-8.482-21.486
	C841.382,851.561,852.691,840.816,857.215,849.299L857.215,849.299z"/>
<path fill="#6F7EC1" d="M70.681,910.366c0-43.539,209.215-79.162,466.492-79.162c257.843,0,466.492,35.623,466.492,79.162
	 M1003.665,910.366c0,46.933-209.215,84.817-466.492,84.817c-257.843,0-466.492-37.885-466.492-84.817"/>
<g>
	<g>
		<g>
			<defs>
				<rect id="SVGID_1_" x="794.45" y="452.356" width="180.942" height="147.016"/>
			</defs>
			<clipPath id="SVGID_2_">
				<use xlink:href="#SVGID_1_"  overflow="visible"/>
			</clipPath>
			<g clip-path="url(#SVGID_2_)">
				<path fill="#3F4553" d="M907.539,599.372l62.765-21.487l-31.665-92.733l-62.765,21.487c-2.262,0.565-3.958,3.393-2.827,5.654
					l28.272,83.687c1.131,2.827,3.958,3.958,5.654,3.393H907.539z"/>
				<path fill="#DDDDE3" d="M907.539,597.11L972,575.623l-30.534-89.34l-64.461,21.486c-1.696,0.565-2.262,2.262-1.696,3.958
					l28.272,83.687C904.146,597.11,905.843,597.676,907.539,597.11z"/>
				<path fill="#E2E5FF" d="M908.67,597.11l65.026-22.053l-30.534-89.341l-64.461,22.053c-1.696,0-2.827,1.696-2.262,3.393
					l28.272,83.686C905.843,596.545,907.539,597.11,908.67,597.11L908.67,597.11z"/>
				<path fill="#4E5567" d="M912.628,597.676l62.765-21.487l-31.665-92.733l-62.765,21.487c-2.827,0.565-3.958,3.393-3.393,5.654
					l28.838,83.687c0.565,2.827,3.393,3.958,5.654,3.393H912.628z"/>
				<path fill="#3F4553" d="M940.335,484.586l-1.696,0.565l31.665,92.733H972L940.335,484.586z"/>
				<path fill="#93BFA8" d="M949.382,557.529l1.131-3.394l3.394,1.696l-23.184-67.853c-0.565-1.131-1.696-1.131-2.827-0.565
					c-1.131,0-2.262,1.131-1.696,2.262l22.617,67.854H949.382z"/>
				<path fill="#3F4553" d="M807.455,508.9l42.409-49.193l-8.482-7.351l-42.408,49.759l8.481,7.351V508.9z"/>
				<path fill="#F2EDE4" d="M798.974,502.115l8.481,7.351l-12.439,6.785l-0.565-0.565L798.974,502.115z"/>
				<path fill="#3F4553" d="M795.581,516.251l2.827-1.696l-2.827-2.827l-1.131,3.958c0,0,0,0.565,1.131,0V516.251z"/>
				<path fill="#4E5567" d="M804.628,507.204l42.409-50.324l-2.828-2.262l-42.408,49.759L804.628,507.204z"/>
			</g>
		</g>
	</g>
	<g>
		<g>
			<defs>
				<rect id="SVGID_3_" x="240.314" y="28.272" width="197.906" height="197.905"/>
			</defs>
			<clipPath id="SVGID_4_">
				<use xlink:href="#SVGID_3_"  overflow="visible"/>
			</clipPath>
			<g clip-path="url(#SVGID_4_)">
				<path fill="#808AFF" d="M339.267,28.272c-54.848,0-98.953,44.104-98.953,98.953s44.105,98.953,98.953,98.953
					c54.849,0,98.953-44.104,98.953-98.953S394.115,28.272,339.267,28.272z M339.267,209.215c-45.235,0-81.989-36.754-81.989-81.99
					s36.754-81.99,81.989-81.99c45.236,0,81.99,36.754,81.99,81.99S384.503,209.215,339.267,209.215z"/>
				<path fill="#AEB4FC" d="M415.602,158.89c17.529-42.409-2.826-90.471-45.235-107.435c-42.408-16.963-90.471,2.827-107.434,44.67
					c-16.963,42.409,2.827,90.471,45.236,107.435c42.408,16.963,90.471-2.827,107.434-45.235V158.89z"/>
				<path fill="#808AFF" d="M339.267,52.586c-5.654,0-5.654,8.481,0,8.481C344.922,61.068,344.922,52.586,339.267,52.586z
					 M413.906,127.225c0-5.654-8.482-5.654-8.482,0S413.906,132.879,413.906,127.225z M339.267,201.864c5.655,0,5.655-9.047,0-9.047
					C333.612,192.817,333.612,201.864,339.267,201.864z M264.628,127.225c0,5.654,9.047,5.654,9.047,0
					S264.628,121.571,264.628,127.225z M374.89,151.539l-1.696-0.565l-35.623-20.921c-1.131-0.565-1.131-1.696-1.131-2.827V70.681
					c0-1.696,1.131-2.827,2.827-2.827s2.827,1.131,2.827,2.827v54.848l33.927,20.356c1.696,0.565,2.263,2.262,1.132,3.958
					C377.152,150.974,375.455,151.539,374.89,151.539z"/>
			</g>
		</g>
	</g>
	<path fill="#9BA3FF" d="M141.927,330.22l-1.696-11.309l-11.309,2.262c-1.696-5.089-5.089-9.613-9.047-13.571l6.785-9.613
		l-9.047-6.22l-6.785,9.047c-5.089-2.262-10.178-3.393-15.833-3.393l-2.262-11.309l-11.309,1.696l2.262,11.309
		c-5.655,1.696-10.178,4.523-14.136,8.481l-9.047-6.785l-6.785,10.178l9.613,5.655c-2.828,4.523-3.958,10.178-3.958,15.267
		l-11.309,2.262l1.696,11.309l11.309-2.262c2.262,5.655,5.655,9.613,9.047,13.571l-6.785,9.612l9.612,6.786l6.785-9.047
		c4.524,2.262,10.178,3.393,15.267,3.393l2.262,11.309l11.309-1.696l-1.696-11.309c5.089-2.262,9.612-5.089,13.571-9.047
		l9.612,6.785l6.22-9.047l-9.047-6.786c2.262-4.523,3.393-10.178,3.393-15.267L141.927,330.22z M96.691,342.66
		c-5.654,1.131-11.309-2.827-12.439-8.482c-1.131-5.654,3.393-11.309,9.047-12.439c5.655-0.565,11.309,2.827,12.44,9.047
		C106.869,337.005,102.911,342.094,96.691,342.66z"/>
	<path fill="#AEB4FC" d="M249.927,307.602v-13.571h-14.136c-1.131-6.785-3.958-13.005-7.916-18.094l10.178-10.178l-9.047-11.309
		l-11.309,11.309c-5.654-3.958-11.875-6.786-18.66-7.917v-14.701H184.9v14.136c-7.351,1.131-13.57,3.958-18.66,7.351l-10.178-9.613
		l-10.178,9.613l10.178,10.178c-3.958,5.655-6.786,11.309-7.917,18.094h-14.702v14.136h14.702c1.131,6.786,3.393,13.005,7.351,18.66
		l-10.178,10.178l10.178,9.612l10.178-9.612c5.655,3.393,11.309,6.22,18.66,7.351v14.702h14.136v-14.702
		c6.785-1.131,13.005-3.393,18.66-7.351l10.178,10.178l10.178-10.178l-10.178-9.613c3.958-5.654,6.785-11.309,7.916-18.66H249.927
		L249.927,307.602z M192.251,313.257c-7.351,0-13.571-5.655-13.571-13.005c0-7.351,5.654-13.005,13.571-13.005
		c7.351,0,13.005,5.654,13.005,13.005C205.256,307.602,199.602,313.257,192.251,313.257z"/>
	<g opacity="0.3">
		<path fill="#ECECEC" d="M918.848,202.995L813.11,179.246c-1.132,0-1.696-0.565-1.696-1.696v-0.565l13.57-59.372
			c0-1.131,1.131-1.696,2.262-1.696l105.738,23.749c1.131,0,1.696,1.696,1.696,2.262l-13.571,59.372
			C921.109,202.429,919.979,202.995,918.848,202.995z"/>
		<path fill="#F5F4F5" d="M813.11,177.55l13.005-59.938h0.565l105.738,23.749h0.565l-13.005,59.937h-1.132L813.11,177.55
			L813.11,177.55z"/>
		<path fill="#706F6E" d="M918.283,136.272l-76.336-16.963v1.696l75.77,16.963v-2.262L918.283,136.272z"/>
		<path fill="#585857" d="M834.597,127.791l-3.393-0.565l-0.565-1.131v-1.696l1.131-0.565l3.958,0.565v2.827L834.597,127.791
			L834.597,127.791z"/>
		<path fill="#5E5E5D" d="M831.204,126.66l0.565-2.827l3.393,0.565v2.827L831.204,126.66L831.204,126.66z"/>
		<path fill="#585857" d="M840.816,129.487l-3.393-1.131c0,0-0.565,0,0-0.565v-3.393c0,0,0.565-0.565,1.131,0h3.393l0.566,1.131
			v2.827h-1.697V129.487z"/>
		<path fill="#5E5E5D" d="M837.424,127.791l0.565-2.262h3.958v0.565l-0.565,2.262h-3.958V127.791z"/>
		<path fill="#585857" d="M847.602,130.618l-3.393-0.565l-1.131-1.131l0.566-2.262l1.131-0.565l3.393,0.565l1.131,1.131
			l-0.566,2.262C848.733,130.618,848.168,131.183,847.602,130.618z"/>
		<path fill="#5E5E5D" d="M844.209,129.487v-2.827l3.959,0.565v2.827L844.209,129.487z"/>
		<path fill="#585857" d="M853.822,132.314l-3.393-1.131l-0.566-0.565v-2.827h5.655c0,0,0.565,1.131,0,1.131v2.827
			c0,0-0.565,0.565-1.131,0L853.822,132.314z"/>
		<path fill="#5E5E5D" d="M850.995,130.618v-2.262h3.958v0.565l-0.565,2.827l-3.958-1.131H850.995z"/>
		<path fill="#585857" d="M860.607,133.445h-3.958v-3.958l1.131-0.565l3.393,0.565l0.565,1.131v2.262
			C861.738,133.445,860.607,134.011,860.607,133.445L860.607,133.445z"/>
		<path fill="#5E5E5D" d="M856.649,132.314l0.565-2.827l3.958,1.131v2.262h-0.565L856.649,132.314L856.649,132.314z"/>
		<path fill="#585857" d="M866.827,135.142l-3.393-0.565c-0.565,0-1.131-0.565-0.565-1.131v-2.262l1.131-1.131l3.393,1.131
			c0.565,0,1.131,0,1.131,1.131l-0.565,2.262L866.827,135.142L866.827,135.142z"/>
		<path fill="#5E5E5D" d="M863.435,133.445v-2.262H864l3.393,0.565v2.828L863.435,133.445L863.435,133.445z"/>
		<path fill="#585857" d="M873.612,136.838l-3.958-1.131l-0.565-1.131v-2.262l1.696-0.565l3.393,0.565l0.565,1.131l-0.565,2.262
			L873.612,136.838L873.612,136.838z"/>
		<path fill="#5E5E5D" d="M869.654,135.142l0.565-2.828l3.958,1.131l-0.565,2.262L869.654,135.142z"/>
		<path fill="#585857" d="M879.268,137.969l-3.394-0.565v-3.393c0-0.566,0.565-1.131,1.131-0.566h3.394
			c0.564,0.566,1.131,1.131,0.564,1.697v2.262l-1.131,0.565H879.268z"/>
		<path fill="#5E5E5D" d="M876.439,136.838v-2.827l3.959,0.565v2.827h-0.566L876.439,136.838L876.439,136.838z"/>
		<path fill="#585857" d="M886.053,139.665l-3.393-1.131l-0.566-0.565v-2.827c0,0,1.131-0.565,1.131,0h3.959v3.958h-1.131V139.665z"
			/>
		<path fill="#5E5E5D" d="M882.66,137.969v-2.827h0.565l3.393,1.131v2.262h-3.958V137.969z"/>
		<path fill="#585857" d="M892.272,141.361l-3.393-1.131c0,0-0.565-0.565,0-1.131v-2.262c0-0.565,0.565-1.131,1.131-0.565
			l3.393,0.565l0.565,1.131v2.262l-1.696,0.565V141.361z"/>
		<path fill="#5E5E5D" d="M888.88,139.665l0.565-2.827l3.958,0.565l-0.565,2.827L888.88,139.665z"/>
		<path fill="#585857" d="M899.058,142.492l-3.393-1.131l-1.131-0.565l0.565-2.827c0,0,0.565-0.565,1.131,0h3.393l0.565,1.131v2.827
			c0,0-0.565,0.565-1.131,0V142.492z"/>
		<path fill="#5E5E5D" d="M895.665,141.361v-2.827h3.958v2.827H895.665z"/>
		<path fill="#585857" d="M905.277,143.623l-3.393-0.565l-0.565-1.131v-2.262l1.696-0.565l3.393,0.565c0,0,0.565,0.565,0,1.131
			v2.262C906.408,143.623,905.843,144.188,905.277,143.623z"/>
		<path fill="#5E5E5D" d="M901.885,142.492l0.565-2.827l3.393,0.565v2.827L901.885,142.492L901.885,142.492z"/>
		<path fill="#585857" d="M912.063,145.319l-3.958-0.565c0,0-0.565-0.565,0-1.131v-2.827h4.524l0.564,1.131v2.827
			c-0.564,0-1.131,0.565-1.131,0V145.319z"/>
		<path fill="#5E5E5D" d="M908.67,143.623v-2.262l3.958,0.565l-0.565,2.827L908.67,143.623L908.67,143.623z"/>
		<path fill="#585857" d="M918.283,147.016l-3.394-1.131c-0.565,0-1.131,0-0.565-1.131v-2.262l1.131-0.565l3.393,0.565l1.131,1.131
			l-0.565,2.262c0,0.565-0.565,1.131-1.131,0.565L918.283,147.016z"/>
		<path fill="#5E5E5D" d="M914.891,145.319v-2.827h0.564l3.394,1.131v2.262L914.891,145.319L914.891,145.319z"/>
		<path fill="#585857" d="M924.503,148.146l-3.394-0.565l-0.564-1.131v-2.262l1.695-1.131l3.394,1.131c0,0,0.565,0,0,1.131v2.262
			L924.503,148.146z"/>
		<path fill="#5E5E5D" d="M921.109,147.016l0.566-2.827l3.958,0.565l-0.565,2.827l-3.959-1.131V147.016z"/>
		<path fill="#585857" d="M831.204,127.791l3.958,1.131l1.131,1.131l-1.131,4.524c0,0-0.565,0.565-1.131,0h-4.523l-0.565-1.697
			l1.131-3.958C830.073,128.356,830.073,127.791,831.204,127.791L831.204,127.791z"/>
		<path fill="#5E5E5D" d="M830.073,133.445l0.565-4.524l4.523,0.565l-0.565,4.524L830.073,133.445z"/>
		<path fill="#585857" d="M838.555,130.052l3.959,0.565l1.131,1.131l-1.131,4.524c0,0-0.566,0.565-1.132,0h-4.523v-5.655
			l1.696-1.131V130.052z"/>
		<path fill="#5E5E5D" d="M837.424,135.142l0.565-4.524l4.524,0.565l-0.566,4.524L837.424,135.142z"/>
		<path fill="#585857" d="M845.34,131.183l5.09,1.131c0,0,0.565,0.565,0,1.131v3.958l-1.697,1.131l-3.957-1.131l-1.131-1.131
			l1.131-4.524h1.131L845.34,131.183z"/>
		<path fill="#5E5E5D" d="M844.775,136.838l0.564-4.524l4.524,0.565l-0.565,4.524L844.775,136.838z"/>
		<path fill="#585857" d="M853.257,132.879l4.523,1.131l0.565,1.131l-1.131,3.958c0,0.565,0,1.131-1.131,1.131l-3.958-1.131
			l-1.131-1.131l1.131-4.523c0,0,0.565-0.566,1.131,0V132.879z"/>
		<path fill="#5E5E5D" d="M852.126,138.534l0.565-4.523l4.523,0.565l-0.565,4.523L852.126,138.534z"/>
		<path fill="#585857" d="M860.607,134.576l4.523,1.131l0.565,1.131l-1.131,3.958c0,0.565,0,1.131-1.131,1.131l-3.958-1.131
			l-1.131-1.131l1.131-4.523c0,0,0.565-0.565,1.131,0V134.576z"/>
		<path fill="#5E5E5D" d="M859.477,140.23l0.565-4.523l5.089,0.565L864,140.796L859.477,140.23z"/>
		<path fill="#585857" d="M867.958,136.272l4.523,1.131l0.565,1.131l-1.131,3.958c0,0.565,0,1.131-1.131,1.131l-3.958-1.131
			c-0.565,0-1.131-0.565-0.565-1.131l0.565-4.523c0,0,0.565-0.565,1.131,0V136.272z"/>
		<path fill="#5E5E5D" d="M866.827,141.361l1.131-3.958l4.523,0.565l-1.131,4.523L866.827,141.361L866.827,141.361z"/>
		<path fill="#585857" d="M875.309,137.969l4.523,1.131l0.566,1.131l-0.566,3.958l-1.131,1.131l-4.523-1.131
			c0,0-1.131-0.565-0.565-1.131l0.565-4.523c0,0,1.131-0.565,1.131,0V137.969z"/>
		<path fill="#5E5E5D" d="M874.178,143.623l1.131-4.523l4.523,0.565l-1.131,4.523L874.178,143.623z"/>
		<path fill="#585857" d="M883.225,139.665l3.959,1.131c0.565,0,1.131,0,0.565,1.131l-0.565,3.958c0,0.565-0.566,1.131-1.131,0.565
			l-4.523-0.565l-0.566-1.131l1.131-4.523L883.225,139.665L883.225,139.665z"/>
		<path fill="#5E5E5D" d="M881.529,144.754l1.131-4.523l4.523,1.131l-1.131,4.523L881.529,144.754z"/>
		<path fill="#585857" d="M890.576,141.361l3.958,1.131c0.565,0,1.131,0,1.131,1.131l-1.131,3.958c0,0.565-0.565,1.131-1.131,0.565
			l-4.523-0.565l-0.565-1.131l1.131-4.523L890.576,141.361L890.576,141.361z"/>
		<path fill="#5E5E5D" d="M888.88,147.016v-0.565l1.131-4.523l4.523,1.131l-0.565,4.523l-5.089-1.131V147.016z"/>
		<path fill="#585857" d="M897.927,143.058l3.958,1.131c0.565,0,1.131,0,1.131,1.131l-1.131,3.958c0,0.565-0.565,1.131-1.131,0.565
			l-4.523-0.565l-0.565-1.131l1.131-4.523L897.927,143.058L897.927,143.058z"/>
		<path fill="#5E5E5D" d="M896.23,148.146l1.131-4.523l4.523,1.131l-0.565,4.523L896.23,148.146L896.23,148.146z"/>
		<path fill="#585857" d="M905.277,144.754l4.523,1.131v1.131l-0.565,3.958l-1.131,0.565l-4.523-0.565c0,0-0.565-1.131,0-1.131
			v-4.523L905.277,144.754z"/>
		<path fill="#5E5E5D" d="M904.146,149.843l0.565-4.523l4.523,1.131l-0.565,4.523L904.146,149.843z"/>
		<path fill="#585857" d="M912.628,146.45l4.524,1.131c0,0,0.564,0,0,1.131v3.958l-1.697,0.565l-3.958-0.565l-1.131-1.131
			l1.131-4.523L912.628,146.45z"/>
		<path fill="#5E5E5D" d="M911.497,151.539l0.565-4.523l4.523,1.131l-0.564,4.523L911.497,151.539z"/>
		<path fill="#585857" d="M919.979,148.146l4.524,0.565l0.565,1.131l-1.131,4.524l-1.131,0.565l-3.958-1.131l-1.131-0.565
			l1.131-4.523L919.979,148.146L919.979,148.146z"/>
		<path fill="#5E5E5D" d="M918.848,153.235l0.566-4.523l4.523,1.131l-0.565,4.524L918.848,153.235z"/>
		<path fill="#585857" d="M829.508,135.142l4.523,0.565c0,0,0.565,0.565,0,1.131v4.523l-1.696,0.565l-3.958-1.131
			c-0.565,0-1.131,0-1.131-1.131l1.131-3.958C828.377,135.142,828.942,134.576,829.508,135.142z"/>
		<path fill="#5E5E5D" d="M828.377,140.23l0.565-4.523l4.523,0.565l-0.565,4.523h-4.523V140.23z"/>
		<path fill="#585857" d="M836.858,136.838l4.523,0.565l0.565,1.131l-1.131,4.523l-1.131,0.565l-3.958-1.131
			c-0.565,0-1.131,0-1.131-1.131l1.131-3.958C835.728,136.838,836.293,136.272,836.858,136.838L836.858,136.838z"/>
		<path fill="#5E5E5D" d="M835.728,141.927l0.565-4.523l4.523,0.565v4.523h-0.565L835.728,141.927z"/>
		<path fill="#585857" d="M844.209,137.969l4.524,1.131l0.565,1.131l-1.131,4.523c0,0,0,0.565-1.131,0h-3.959
			c-0.564-0.565-1.131-1.131-0.564-1.696l0.564-3.958L844.209,137.969L844.209,137.969z"/>
		<path fill="#5E5E5D" d="M843.078,143.623l0.566-4.523l5.089,0.565l-1.131,4.523L843.078,143.623z"/>
		<path fill="#585857" d="M851.561,139.665l4.523,1.131l0.565,1.131l-0.565,4.523c0,0-1.131,0.565-1.131,0h-4.523
			c-0.565-0.565-1.131-1.131-0.565-1.696l0.565-3.958L851.561,139.665z"/>
		<path fill="#5E5E5D" d="M850.995,145.319h-0.565l1.131-4.523l4.523,0.565l-1.131,4.523l-4.523-0.565H850.995z"/>
		<path fill="#585857" d="M858.911,141.361l4.523,1.131c0.565,0,1.131,0.565,0.565,1.131l-0.565,4.523c0,0-0.565,0.565-1.131,0
			h-4.523l-0.565-1.696l0.565-3.958L858.911,141.361z"/>
		<path fill="#5E5E5D" d="M857.78,147.016l1.131-4.523l4.523,0.565l-1.131,4.523L857.78,147.016z"/>
		<path fill="#585857" d="M866.827,143.058l3.958,1.131c0.565,0,1.131,0.565,0.565,1.131l-0.565,4.523c0,0-0.565,0.565-1.131,0
			l-4.523-0.565l-0.565-1.131l1.131-3.958C865.696,143.623,865.696,143.058,866.827,143.058L866.827,143.058z"/>
		<path fill="#5E5E5D" d="M865.131,148.712l1.131-4.523l4.523,0.565l-0.565,4.523L865.131,148.712z"/>
		<path fill="#585857" d="M873.612,144.754l4.524,1.131l1.131,1.131l-1.131,4.523h-1.132l-4.523-0.565l-0.565-1.131l1.131-3.958
			C873.047,145.319,873.047,144.754,873.612,144.754L873.612,144.754z"/>
		<path fill="#5E5E5D" d="M872.481,150.408l1.131-4.523l4.524,0.565l-0.566,4.523L872.481,150.408L872.481,150.408z"/>
		<path fill="#585857" d="M881.529,147.016h3.957l1.131,1.696l-1.131,3.958l-1.131,1.131l-4.523-1.131c0,0-0.565-0.565,0-1.131
			v-4.523H881.529z"/>
		<path fill="#5E5E5D" d="M880.398,152.104l0.564-4.523l4.524,0.565l-0.565,4.523L880.398,152.104z"/>
		<path fill="#585857" d="M888.88,148.146l4.523,1.131c0,0,0.565,0,0,1.131l-0.565,3.958l-1.131,1.131l-4.523-1.131
			c0,0-0.566-0.565,0-1.131v-4.523h1.696V148.146z"/>
		<path fill="#5E5E5D" d="M887.749,153.801l0.565-4.523l4.523,0.565l-0.565,4.524L887.749,153.801z"/>
		<path fill="#585857" d="M896.23,149.843l4.523,1.131c0,0,0.565,0,0,1.131v3.958l-1.696,1.131l-3.958-1.131l-1.131-1.131
			l1.131-4.524c0,0,0.565-0.565,1.131,0V149.843z"/>
		<path fill="#5E5E5D" d="M895.1,155.498l0.565-4.524l4.523,0.565l-0.565,4.524L895.1,155.498z"/>
		<path fill="#585857" d="M903.581,151.539l4.523,1.131l0.565,1.131l-1.131,3.958c0,0.565,0,1.131-1.131,1.131l-3.958-1.131
			l-1.131-1.131l1.131-4.524c0,0,0.565-0.565,1.131,0V151.539z"/>
		<path fill="#5E5E5D" d="M901.885,157.194l1.131-4.524l4.523,0.565v4.524h-0.565L901.885,157.194L901.885,157.194z"/>
		<path fill="#585857" d="M910.932,153.235l4.523,1.131l0.566,1.131l-1.131,3.958c0,0.565,0,1.131-1.131,0.565l-3.959-0.565
			c-0.565,0-1.131-0.565-0.565-1.131l0.565-4.523L910.932,153.235L910.932,153.235z"/>
		<path fill="#5E5E5D" d="M909.801,158.325l0.565-3.958h5.089v0.566l-1.131,4.523L909.801,158.325L909.801,158.325z"/>
		<path fill="#585857" d="M918.848,154.932l3.959,1.131l0.565,1.131l-0.565,3.958l-1.131,0.565l-4.523-0.565
			c-0.566,0-1.131-0.565-0.566-1.131l0.566-4.523l1.131-0.565H918.848z"/>
		<path fill="#5E5E5D" d="M917.152,160.021l1.131-4.523l4.523,1.131l-1.131,4.523L917.152,160.021z"/>
		<path fill="#585857" d="M828.377,141.361l3.958,1.696l0.565,0.565l-1.131,4.523l-1.131,0.565l-3.958-0.565l-0.565-1.131
			l0.565-4.523L828.377,141.361L828.377,141.361z"/>
		<path fill="#5E5E5D" d="M826.681,147.016l0.565-4.523l5.089,1.131l-1.131,4.523L826.681,147.016z"/>
		<path fill="#585857" d="M835.162,143.623l4.523,0.565l0.565,1.131l-0.565,4.523l-1.131,0.565l-4.523-1.131
			c-0.565,0-1.131,0-0.565-1.131l0.565-3.958L835.162,143.623z"/>
		<path fill="#5E5E5D" d="M834.031,148.712l1.131-4.523l4.523,1.131l-1.131,4.523L834.031,148.712z"/>
		<path fill="#585857" d="M842.514,145.319l4.523,0.565c0.565,0,1.131,0.565,0.565,1.131l-0.565,4.523l-1.131,0.565l-4.524-1.131
			l-0.565-1.131l0.565-3.958L842.514,145.319z"/>
		<path fill="#5E5E5D" d="M841.382,150.408l1.132-4.523l4.523,1.131l-1.131,4.523L841.382,150.408z"/>
		<path fill="#585857" d="M850.43,147.016l3.958,0.565c0.565,0,1.131,0.565,0.565,1.131l-0.565,4.523l-1.131,0.565l-4.524-1.131
			l-0.564-1.131l1.131-3.958C849.299,147.016,849.299,146.45,850.43,147.016L850.43,147.016z"/>
		<path fill="#5E5E5D" d="M848.733,152.67v-0.565l1.131-4.523l4.523,1.131l-0.565,4.523l-5.089-1.131V152.67z"/>
		<path fill="#585857" d="M857.78,148.712l3.958,0.565l1.131,1.131l-1.131,4.524l-1.131,0.565l-4.523-1.131l-0.565-1.131
			l1.131-3.958C856.649,148.712,856.649,148.146,857.78,148.712L857.78,148.712z"/>
		<path fill="#5E5E5D" d="M856.649,153.801v-4.523h0.565l4.523,0.565v0.565l-0.565,4.524L856.649,153.801z"/>
		<path fill="#585857" d="M865.131,150.408l3.958,0.565l1.131,1.131l-1.131,4.524l-1.131,0.565l-4.523-1.131c0,0-0.565,0,0-1.131
			v-3.958C864,150.408,864.565,149.843,865.131,150.408z"/>
		<path fill="#5E5E5D" d="M864,155.498l0.565-4.524l4.523,0.565l-0.565,4.524L864,155.498z"/>
		<path fill="#585857" d="M872.481,151.539l4.523,1.131c0,0,0.565,0.565,0,1.131v4.524h-6.22v-5.655L872.481,151.539z"/>
		<path fill="#5E5E5D" d="M871.351,157.194l0.565-4.524l4.523,0.565l-0.565,4.524L871.351,157.194z"/>
		<path fill="#585857" d="M879.832,153.235l4.524,1.131c0,0,0.565,0.565,0,1.131v4.523h-5.655l-1.131-1.696l1.131-3.958
			L879.832,153.235z"/>
		<path fill="#5E5E5D" d="M878.701,158.325l0.566-3.958l4.523,0.566l-0.566,4.523L878.701,158.325L878.701,158.325z"/>
		<path fill="#585857" d="M887.184,154.932l4.523,1.131l0.565,1.131l-1.131,4.523c0,0,0,0.565-1.131,0h-3.958l-1.131-1.696
			l1.131-3.958L887.184,154.932L887.184,154.932z"/>
		<path fill="#5E5E5D" d="M886.053,160.586l0.565-4.523l5.089,0.565l-1.131,4.523L886.053,160.586z"/>
		<path fill="#585857" d="M894.534,156.628l4.523,1.131l0.565,1.131l-1.131,4.523c0,0,0,0.565-1.131,0h-3.958
			c-0.565-0.565-1.131-1.131-0.565-1.696l0.565-3.958L894.534,156.628L894.534,156.628z"/>
		<path fill="#5E5E5D" d="M893.403,162.283l0.565-4.523h0.565l4.523,0.565l-1.131,4.523L893.403,162.283L893.403,162.283z"/>
		<path fill="#585857" d="M901.885,158.325l4.523,1.131l0.565,1.131l-0.565,3.958l-1.131,1.131l-4.523-1.131
			c-0.565,0-1.131-0.565-0.565-1.131l0.565-4.523c0,0,0.565-0.565,1.131,0V158.325z"/>
		<path fill="#5E5E5D" d="M900.754,163.979l1.131-4.523l4.523,0.565l-1.131,4.523L900.754,163.979z"/>
		<path fill="#585857" d="M909.235,160.021l4.524,1.131c0.564,0,1.131,0.565,0.564,1.131l-0.564,3.958l-1.131,1.131l-4.524-1.131
			l-0.565-1.131l0.565-4.523c0,0,1.131-0.565,1.131,0V160.021z"/>
		<path fill="#5E5E5D" d="M908.104,165.675l1.131-4.523l4.524,0.565l-1.131,4.523L908.104,165.675z"/>
		<path fill="#585857" d="M917.152,161.717l3.957,1.131c0.566,0,1.131,0,0.566,1.131l-0.566,3.958l-1.131,1.131l-4.523-1.131
			l-0.565-1.131l1.131-4.523c0,0,0-0.565,1.131,0L917.152,161.717z"/>
		<path fill="#5E5E5D" d="M915.455,167.372l1.131-4.523l4.523,0.565l-0.564,4.523L915.455,167.372z"/>
		<path fill="#585857" d="M826.115,148.712l4.523,1.131c0.565,0,1.131,0,0.565,1.131l-0.565,3.958c0,0.565-0.565,1.131-1.131,0.565
			l-4.523-0.565l-0.565-1.131l1.131-4.523L826.115,148.712z"/>
		<path fill="#5E5E5D" d="M824.984,153.801l1.131-4.523l4.523,1.131l-1.131,4.524L824.984,153.801z"/>
		<path fill="#585857" d="M834.031,150.408l3.958,1.131c0.565,0,1.131,0,1.131,1.131l-1.131,3.958c0,0.565-0.565,1.131-1.131,0.565
			l-4.523-0.565l-0.565-1.131l1.131-4.524L834.031,150.408L834.031,150.408z"/>
		<path fill="#5E5E5D" d="M832.335,155.498l1.131-4.524l4.523,1.131l-0.565,4.524L832.335,155.498z"/>
		<path fill="#585857" d="M841.382,152.104l3.958,1.131c0.566,0,1.131,0,1.131,1.131l-1.131,3.958c0,0.565-0.564,1.131-1.131,0.565
			l-4.523-0.565l-0.565-1.131l1.131-4.524L841.382,152.104L841.382,152.104z"/>
		<path fill="#5E5E5D" d="M839.686,157.194l1.131-4.524l4.523,1.131l-0.564,4.524L839.686,157.194L839.686,157.194z"/>
		<path fill="#585857" d="M848.733,153.801l3.958,1.131c0.565,0,1.131,0,1.131,1.131l-1.131,3.958l-1.131,0.565l-4.523-0.565
			c0,0-0.566-1.131,0-1.131v-4.523C847.037,154.366,848.733,153.801,848.733,153.801z"/>
		<path fill="#5E5E5D" d="M847.602,158.89l0.566-4.523l4.523,1.131l-0.565,4.523L847.602,158.89z"/>
		<path fill="#585857" d="M882.66,161.152l-26.576-5.654l-1.131,0.565l-1.131,4.523v0.565l27.141,6.22l1.132-0.565l1.131-4.523
			L882.66,161.152z"/>
		<path fill="#5E5E5D" d="M854.388,160.586l1.131-4.523l27.142,5.654v0.565l-1.131,4.523l-27.142-5.654V160.586z"/>
		<path fill="#585857" d="M885.487,162.283l4.523,0.565l0.565,1.131l-0.565,4.523l-1.131,0.565l-4.524-1.131l-0.564-1.131
			l0.564-3.958C884.355,162.283,884.922,161.717,885.487,162.283z"/>
		<path fill="#5E5E5D" d="M884.922,167.372h-0.566l1.131-4.523l4.524,0.565l-1.131,4.523h-4.524L884.922,167.372z"/>
		<path fill="#585857" d="M892.838,163.979l4.523,0.565c0.565,0,1.131,0.565,0.565,1.131l-0.565,4.524l-1.131,0.565l-4.523-1.131
			l-0.565-1.131l1.131-3.958C892.272,163.979,892.272,163.414,892.838,163.979z"/>
		<path fill="#5E5E5D" d="M891.707,169.068l1.131-4.523l4.523,0.565l-1.131,4.524L891.707,169.068z"/>
		<path fill="#585857" d="M900.754,165.11l3.958,1.131l1.131,1.131l-1.131,4.524c0,0-0.565,0.565-1.131,0h-4.523l-0.565-1.696
			l1.131-3.958C899.623,165.675,899.623,165.11,900.754,165.11L900.754,165.11z"/>
		<path fill="#5E5E5D" d="M899.058,170.765l1.131-4.524l4.523,0.565l-0.565,4.524L899.058,170.765z"/>
		<path fill="#585857" d="M907.539,166.806l4.523,1.131l1.131,1.131l-1.131,4.524c0,0-0.565,0.565-1.131,0h-4.523l-0.565-1.696
			l1.131-3.958C906.974,167.372,906.974,166.806,907.539,166.806L907.539,166.806z"/>
		<path fill="#5E5E5D" d="M906.974,172.461l0.565-4.524l4.523,0.565l-0.565,4.524L906.974,172.461z"/>
		<path fill="#585857" d="M915.455,168.502l3.959,1.131l1.131,1.131l-1.131,4.523c0,0-0.566,0.565-1.131,0h-4.524v-5.654
			L915.455,168.502z"/>
		<path fill="#5E5E5D" d="M914.324,174.157l0.566-4.523l4.523,0.565l-0.566,4.523L914.324,174.157z"/>
		<path fill="#EDEDED" d="M881.529,173.592l-22.053-5.089c-1.131,0-1.696,0-2.262,1.131l-2.262,11.874c0,1.131,0,1.696,1.131,2.262
			l22.053,4.523c0.564,0,1.695,0,1.695-1.131l2.828-11.309C882.66,174.723,882.66,173.592,881.529,173.592L881.529,173.592z"/>
		<path fill="#9D9B9B" d="M881.529,172.461l-22.053-4.524c-1.131,0-2.262,0-2.827,1.697l-2.827,11.309
			c0,1.696,0.565,2.827,2.262,3.393l21.486,5.089c1.697,0,2.828-0.565,3.393-2.262l2.262-11.309
			C883.225,174.157,883.225,173.026,881.529,172.461z M879.832,187.162c0,1.131-1.131,1.696-1.695,1.131l-22.053-4.523
			c-1.131,0-1.696-1.131-1.131-2.262l0,0l2.262-11.309c0-1.131,1.131-1.697,2.262-1.697l22.053,5.089l1.131,1.696L879.832,187.162
			L879.832,187.162z"/>
		<path fill="#DFDFDE" d="M856.084,175.288l-1.131,6.22c0,1.131,0,1.696,1.131,2.262l22.052,4.523c0.565,0,1.696,0,1.696-1.131
			l1.697-5.654L856.084,175.288L856.084,175.288z"/>
		<path fill="#D9D9DA" d="M868.523,178.681l-11.874-3.393l-1.131,5.654c0,1.131,0,1.696,1.131,2.262l11.309,2.262L868.523,178.681
			L868.523,178.681z"/>
		<path fill="#E3E1E1" d="M933.55,140.23l-107.435-24.314c0-0.565,0-0.565,0-1.131l10.743-61.633c0-1.696,1.696-2.827,3.393-2.262
			l108.565,24.314c1.697,0.565,2.828,2.262,2.262,3.958L935.246,139.1L933.55,140.23L933.55,140.23z"/>
		<path fill="#C7C7C6" d="M830.073,110.262l10.743-52.021c0-1.131,1.697-2.262,2.828-2.262l100.083,22.618
			c1.131,0,2.262,1.696,1.696,3.393l-13.005,50.89c0,1.697-1.696,2.262-2.827,1.697l-97.257-21.487
			C831.204,113.089,830.073,111.393,830.073,110.262z"/>
		<path fill="#C6E6F2" d="M831.204,110.262l10.178-52.021c0-1.131,1.132-1.696,2.263-1.696l99.518,22.618
			c1.131,0,2.262,1.696,1.696,2.827l-13.005,50.89c0,1.131-1.131,1.131-2.262,1.131l-97.257-22.053
			C831.77,111.958,831.204,110.827,831.204,110.262L831.204,110.262z"/>
		<path opacity="0.2" fill="#B6E0ED" enable-background="new    " d="M832.335,105.173l7.351-9.047
			c7.916-6.785,16.964-10.743,27.142-12.439c11.31-2.262,23.749-7.351,35.058-6.22c15.832,1.131,26.576,3.393,41.277,9.047
			l1.696-4.524c0-1.131,0-2.262-1.696-2.827l-99.518-22.618c-1.131,0-2.263,0.565-2.263,1.696L831.204,108L832.335,105.173z"/>
		<path fill="#585857" d="M918.283,136.272l-76.336-16.963v-0.565l76.9,16.963l-0.564,1.131V136.272z"/>
		<path fill="#3C3C3B" d="M893.403,65.026h1.131c0,0,0.565,0,0,0.565c0,0.565,0,1.131-0.565,0.565L893.403,65.026L893.403,65.026z"
			/>
		<path fill="#585857" d="M893.403,65.592l0.565-0.565l0.565,0.565c0,0,0,0.565-0.565,0c0,0-0.565,0,0,0H893.403z"/>
		<path fill="#B6E0ED" d="M893.969,65.592"/>
	</g>
	<path fill="#FDFFFC" d="M863.435,307.602c5.089-21.487,26.576-34.492,47.497-29.403c21.487,5.089,34.492,26.576,29.403,48.063
		c-3.393,14.702-14.701,26.011-29.403,29.403c-1.131,2.262-2.262,15.267-5.089,19.225c-1.131,2.262-2.827,2.262-5.089,1.696
		c-1.696,6.785-9.612,13.005-15.832,12.44c-4.523-0.565-8.482-3.393-9.613-7.917c-1.131-3.393-2.262-7.351-2.827-10.743
		c-2.827,0-4.523,0-3.958-2.828c0-5.654,5.654-19.225,5.654-21.487C864.565,335.875,860.042,321.173,863.435,307.602
		L863.435,307.602z"/>
	<path fill="#AEB4FC" d="M883.791,305.906c1.131-2.262,2.827-3.393,5.654-2.827c1.696,0,3.393,2.827,2.827,4.523
		s-1.696,2.827-2.827,3.393c1.131,5.655,2.262,11.309,2.262,16.963l2.262,15.267l19.225-28.272c-1.696-1.697,0-5.655,2.827-4.524
		c3.958,0.565,2.262,6.786-1.131,5.655c-7.351,10.178-14.136,20.921-20.355,31.665c-0.565,1.131-2.262,0.565-2.827-0.565
		c-1.696-5.654-2.262-11.309-2.828-16.963c0-6.785-1.695-13.005-2.262-19.225C884.922,309.864,883.225,308.167,883.791,305.906
		L883.791,305.906z"/>
	<path fill="#808AFF" d="M931.854,271.414l24.314-12.44c1.696-1.131,3.393,1.696,1.696,2.262l-23.749,13.005
		C931.854,275.372,929.592,271.979,931.854,271.414L931.854,271.414z M917.152,240.314c0-1.696,2.262,0,2.262,1.131
		c-1.697,8.481-3.959,16.963-6.786,24.879c0,1.696-3.393,1.131-2.827-1.131C911.497,257.277,913.193,248.23,917.152,240.314z
		 M879.268,237.487c2.262,2.262,3.393,5.089,4.523,7.351l3.958,7.916c1.131,2.262-2.827,3.393-3.394,1.131l-3.393-7.916
		l-3.393-6.786C877.005,238.052,878.701,236.921,879.268,237.487L879.268,237.487z"/>
</g>
<path fill="#8E97FD" d="M163.414,491.938c-22.052,1.696-37.885,20.921-36.188,42.408c0,0.565,0,1.131,0,1.696
	c2.262,21.487,22.618,37.885,44.67,35.623c22.052-2.262,38.45-22.053,36.188-44.104
	C205.822,506.073,185.466,489.676,163.414,491.938z"/>
<path fill="#A9B0FF" d="M153.235,523.603l-3.958-7.917v-0.565L153.235,523.603C153.801,523.037,153.235,523.603,153.235,523.603z
	 M203.56,550.743c-20.356,6.786-35.058-3.958-45.235-19.225C169.068,546.22,183.77,556.963,203.56,550.743L203.56,550.743z
	 M143.623,499.854l5.654,14.136l-0.565,0.565l-5.654-14.701H143.623z M157.194,530.953l-3.393-6.22v-1.131l3.958,6.22v1.131H157.194
	z M137.403,505.508l6.22,16.398v0.565C140.796,516.816,138.534,511.162,137.403,505.508z"/>
<path fill="#A9B0FF" d="M198.471,558.094c-20.356,6.786-35.058-3.393-45.236-18.659v-0.565
	C163.979,553.57,178.681,563.749,198.471,558.094z M152.67,537.738v1.131c-1.696-1.696-2.827-3.958-4.523-5.654l0.565-1.131
	L152.67,537.738z M148.146,530.953L148.146,530.953l-4.523-7.351l0.565-0.565L148.146,530.953z M154.366,510.031V508.9l3.958,7.351
	v0.565l-3.958-7.351V510.031z M206.387,544.523c-19.225,5.654-33.926-4.523-43.539-19.225l0.565-0.565
	c10.178,14.136,24.314,24.313,42.408,19.79H206.387z M158.325,518.513l0.565-0.565l3.958,5.655l-0.565,1.131L158.325,518.513
	L158.325,518.513z"/>
<path fill="#A9B0FF" d="M153.235,523.603L153.235,523.603c1.697-2.827,3.393-4.524,5.655-6.221
	c10.178-11.309,23.749-16.963,40.712-10.178c-16.963-5.654-30.534,0-40.712,10.743v0.565l-4.524,5.655L153.235,523.603l-4.523,7.916
	v1.131c-5.089,8.481-8.481,16.963-11.309,25.444c2.262-9.047,5.654-18.094,10.178-26.575l0.565-0.565L153.235,523.603z"/>
<path fill="#A9B0FF" d="M153.801,508.9L153.801,508.9c9.613-9.612,21.487-14.701,35.623-10.743h0.565
	c-14.701-2.827-26.01,2.262-35.057,11.309h-0.565c-3.958,3.958-7.351,8.481-10.178,13.571c-5.654,9.047-9.613,18.659-12.44,27.141
	c2.262-9.047,6.22-18.659,11.309-27.706l0.565-0.565l5.089-7.352v-0.565L153.801,508.9L153.801,508.9z M157.194,530.953
	c1.696-2.262,3.393-4.523,5.089-6.22l0.565-1.131c10.178-10.744,23.749-16.964,40.712-10.179
	c-16.963-5.654-29.968,0.565-39.581,11.31l-1.131,0.565l-4.523,5.654v0.565c-2.262,2.262-3.393,4.523-5.089,7.351v0.565
	c-5.089,7.916-8.481,15.832-10.743,23.749C145.885,551.874,150.974,541.131,157.194,530.953z"/>
<path fill="#AEB4FC" d="M227.309,441.612c0-0.565-1.131-0.565-1.131,0c0,3.958-1.131,7.351-2.827,10.744
	c-1.696,3.958-3.958,7.351-6.785,10.178l-3.958,2.262c1.131-1.696,1.131-3.393,1.131-5.089c-0.565-3.393-3.958-5.654-7.351-5.654
	c-2.827,0-5.654,1.131-6.785,3.958c-1.696,3.393,2.262,6.785,5.089,8.481l2.828,0.565l-0.566,0.565
	c-3.393,1.696-7.351,2.262-10.743,2.827l-5.655,0.565c-1.131,0-1.131,1.696,0,1.696l8.482-1.131
	c3.958-0.565,7.916-2.262,11.309-4.523c5.654-0.565,10.178-5.654,13.005-10.743l3.393-7.917
	C226.744,446.701,227.875,443.874,227.309,441.612z M207.519,465.361c-2.262,0-3.958-1.131-5.655-2.827
	c-0.565-0.565-1.131-1.131-1.131-1.696v-1.696l0.565-1.696l1.696-1.131l3.958-0.565c1.131,0,2.828,0,3.393,1.131
	c1.131,1.131,1.696,2.827,1.696,4.523s-1.131,3.393-2.262,4.523L207.519,465.361L207.519,465.361z"/>
<g>
	<g>
		<g>
			<g>
				<g>
					<path fill="#231F20" d="M430.304,889.445c-0.565-1.131-1.131-2.827-1.696-3.958l0,0c0,0,0,0,0-0.565l-0.565-0.565
						c0-0.565-0.565-0.565-0.565-1.131s-0.565-0.565-0.565-1.132c-0.565-0.564-0.565-0.564-1.131-1.131c0,0,0,0-0.565-0.565l0,0
						l-0.565-0.565c-0.565-0.565-2.262-0.565-3.958-1.131c0,0-6.785-2.262-13.571-3.958c-10.178-2.262-29.403,0.565-39.016,5.089
						c-9.612,4.524-20.921,6.221-31.665,7.352l-2.262,0.565c-13.005,1.696-25.444,3.958-36.754,10.178
						c-13.005,7.351-21.487,19.791-22.618,32.23c-0.565,7.916,2.262,15.832,7.917,21.487c5.654,5.654,13.005,9.047,20.921,9.047
						c0.565,0,1.131,0,1.131,0c38.451-1.696,77.466-11.31,112.524-27.142c1.696-0.565,3.393-1.696,5.089-2.827
						s3.393-2.262,5.089-3.393c1.131-1.131,1.696-2.262,2.262-3.958c1.696-3.393,2.262-6.786,2.827-10.179l0,0c0,0,0,0,0-0.565
						C433.131,905.277,432.565,896.796,430.304,889.445z"/>
					<g>
						<path fill="#DE9F7E" d="M433.131,879.267C433.131,879.267,432.565,879.267,433.131,879.267
							c-9.047,2.827-18.094,2.827-27.142,1.131c-11.309-2.262-24.88,0-36.188,4.524c-11.309,5.089-23.183,6.22-35.623,8.481
							c-11.874,1.696-24.313,3.958-35.058,9.612c-10.178,5.654-19.225,15.833-19.79,28.272
							c-1.131,14.136,10.743,25.445,24.879,24.88c37.884-1.697,75.769-10.744,110.828-26.576c1.696-0.565,2.827-1.696,3.958-2.262
							c3.958-3.393,8.481-6.22,13.57-7.916c7.916-3.393,14.701-6.221,18.094-7.917c1.132-6.785,3.958-15.267,1.696-22.617
							C450.094,880.397,441.047,876.439,433.131,879.267z"/>
					</g>
					<path fill="#231F20" d="M304.775,897.927c4.524,7.351,11.309,20.922,13.571,37.885c1.131,9.047,0.565,17.529,0,23.749
						c11.874-2.262,23.748-4.523,36.188-6.785c0.565-7.352,0.565-17.529-1.696-29.403c-2.827-14.137-7.916-25.445-12.439-32.796
						C327.958,892.838,316.649,895.1,304.775,897.927z"/>
				</g>
				<g>
					<path fill="#231F20" d="M646.304,891.707c0.565-1.131,1.131-2.827,1.696-3.958l0,0c0,0,0,0,0-0.565l0.565-0.565
						c0-0.565,0.565-0.565,0.565-1.131s0.565-0.565,0.565-1.131c0.565-0.565,0.565-0.565,1.131-1.131c0,0,0,0,0.565-0.565l0,0
						l0.565-0.566c0.565-0.565,2.262-0.565,3.958-1.131c0,0,6.785-2.262,13.571-3.958c10.178-2.262,29.402,0.565,39.016,5.089
						c9.612,4.524,20.921,6.221,31.665,7.352l2.262,0.565c13.005,1.696,25.444,3.958,36.754,10.178
						c13.005,7.351,21.486,19.791,22.617,32.23c0.565,7.916-2.262,15.832-7.916,21.487c-5.654,5.654-13.005,9.047-20.922,9.047
						c-0.565,0-1.131,0-1.131,0c-38.45-1.696-77.466-11.309-112.523-27.142c-1.696-0.565-3.393-1.696-5.089-2.827
						s-3.393-2.262-5.089-3.393c-1.131-1.131-1.696-2.262-2.262-3.958c-1.696-3.393-2.262-6.785-2.827-10.179l0,0c0,0,0,0,0-0.565
						C643.477,907.539,644.042,899.058,646.304,891.707z"/>
					<g>
						<path fill="#DE9F7E" d="M643.477,881.529C644.042,881.529,644.042,881.529,643.477,881.529
							c9.047,2.827,18.094,2.827,27.142,1.131c11.309-2.263,24.879,0,36.188,4.523c11.309,5.089,23.183,6.22,35.623,8.481
							c11.874,1.696,24.313,3.958,35.058,9.612c10.178,5.654,19.225,15.833,19.79,28.272c1.131,14.136-10.743,25.445-24.879,24.88
							c-37.885-1.697-75.771-10.744-110.828-26.576c-1.696-0.565-2.827-1.696-3.958-2.262c-3.958-3.393-8.481-6.22-13.57-7.916
							c-7.916-3.393-14.701-6.221-18.094-7.917c-1.132-6.785-3.959-15.267-1.696-22.617
							C626.513,882.66,635.561,878.701,643.477,881.529z"/>
					</g>
					<path fill="#231F20" d="M771.832,900.188c-4.523,7.351-11.309,20.922-13.57,37.885c-1.131,9.047-0.565,17.529,0,23.749
						c-11.874-2.262-23.749-4.523-36.188-6.785c-0.565-7.352-0.565-17.529,1.696-29.403c2.827-14.137,7.916-25.445,12.439-32.796
						C748.649,895.1,759.958,897.361,771.832,900.188z"/>
				</g>
				<path fill="#DE9F7E" d="M563.749,899.623c-9.048-1.696-34.492-7.351-67.854-13.005c-15.268-2.827-34.492-5.655-57.676-9.048
					c0,0-19.79-44.104,5.654-66.156c19.226-16.398,57.676,5.654,137.969,44.67c2.262,1.131,8.481,4.523,16.964,8.481
					c16.397,7.351,30.533,12.439,41.277,15.267c-3.393,11.31-7.351,23.184-10.744,34.492
					C605.026,908.67,582.974,904.146,563.749,899.623z"/>
				<path fill="#DE9F7E" d="M507.204,899.623c9.047-1.696,34.492-7.351,67.854-13.005c15.267-2.827,34.492-5.655,57.676-9.048
					c0,0,19.79-44.104-5.655-66.156c-19.225-16.398-57.675,5.654-137.969,44.67c-2.262,1.131-8.481,4.523-16.963,8.481
					c-16.397,7.351-30.534,12.439-41.277,15.267c3.393,11.31,7.351,23.184,10.743,34.492
					C465.927,908.67,487.979,904.146,507.204,899.623z"/>
				<path fill="#FFFFFF" d="M799.539,829.508c1.131,21.487-37.319,39.016-65.592,52.021c-21.486,9.612-54.848,22.052-100.083,28.837
					c-5.09,0-24.88,0-41.844-12.439c-10.743-7.916-15.267-16.964-16.963-22.053c-2.827,2.262-15.833,11.31-35.623,10.744
					c-15.833-0.565-27.142-6.786-30.534-9.048c-2.827,6.221-11.309,20.922-29.403,28.838c-11.874,5.089-24.313,6.22-42.408,3.958
					c-67.288-8.481-100.084-28.837-100.084-28.837c-3.393-1.697-54.282-29.403-47.497-60.503c2.262-9.612,9.612-17.529,20.355-24.88
					c46.367-32.23,113.09-36.754,146.451-37.885c53.151,0,106.304,0,159.455,0c84.251,4.523,132.88,27.707,156.628,41.277
					C789.927,810.848,798.974,819.33,799.539,829.508z"/>
				<path fill="#FFFFFF" d="M535.477,849.299C535.477,849.864,535.477,849.864,535.477,849.299c-0.565,0.565-0.565,0.565-0.565,0
					C534.911,849.864,535.477,849.299,535.477,849.299z"/>
				<path fill="#FFFFFF" d="M534.911,849.864h-0.565v-0.565L534.911,849.864z"/>
				<g>
					<path fill="#FFFFFF" d="M484.021,760.523c2.827,3.393,7.352,9.047,11.31,16.964c15.832,34.492-7.916,59.371,7.351,83.686
						c8.481,13.57,25.445,22.053,41.277,20.921c1.696,0,20.922-1.696,31.1-16.397c16.397-23.184-8.481-51.455,7.351-85.947
						c3.958-8.481,8.481-14.137,11.31-16.964"/>
					<path fill="#D3D3D3" d="M484.021,760.523c9.048,9.047,15.268,20.356,17.529,32.796c3.958,18.66-3.958,37.319-0.565,55.414
						c6.22,29.968,49.193,40.146,69.55,17.528c8.481-9.047,8.481-21.486,6.785-33.361c-4.523-24.879-3.393-52.586,16.397-70.681
						c-16.963,19.791-16.963,45.802-11.309,70.115c2.827,12.44,2.262,27.707-7.351,37.885
						c-22.618,27.142-72.942,14.702-79.728-20.355c-2.827-19.226,6.22-37.319,3.393-55.979
						C497.592,782.011,491.938,770.136,484.021,760.523L484.021,760.523z"/>
				</g>
				<g>
					<path fill="#D3D3D3" d="M581.843,834.597c36.754,9.612,78.031,5.089,112.523-13.005
						c-32.796,21.486-74.639,30.534-114.785,24.314L581.843,834.597L581.843,834.597z"/>
				</g>
				<g>
					<path fill="#D3D3D3" d="M579.016,813.11c20.356,9.047,42.408,11.874,64.461,8.481c-16.398,5.089-33.927,6.785-50.891,5.089
						c-5.654-0.565-11.309-1.696-17.528-2.827L579.016,813.11L579.016,813.11z"/>
				</g>
				<g>
					<path fill="#D3D3D3" d="M500.419,829.508c-23.184,0.565-46.366-5.089-66.157-16.397c20.922,7.916,43.539,9.612,65.026,5.089
						C499.288,818.765,500.419,829.508,500.419,829.508L500.419,829.508z"/>
				</g>
				<g>
					<path fill="#D3D3D3" d="M498.723,845.906c-40.146,6.22-81.989-2.828-114.785-24.314c35.058,18.094,75.77,22.617,112.523,13.005
						L498.723,845.906L498.723,845.906z"/>
				</g>
			</g>
			<g>
				<g>
					<path fill="#DE9F7E" d="M645.173,568.272c0,14.701,0,28.838-0.565,43.539c-0.565,8.481-1.131,16.963-3.393,25.445
						c-2.262,8.481-7.351,15.267-10.178,23.748c-2.263,7.352-3.959,14.702-4.524,22.618c-0.565,5.654-0.565,10.743-0.565,16.397
						l-166.24,3.958c0.565-10.178,0-20.921-2.827-31.099c-2.827-9.613-8.482-18.095-12.44-27.142
						c-5.089-13.57-5.089-27.707-6.785-42.408c-1.696-15.268-3.958-30.534-5.089-45.802c-0.565-9.612,0.565-24.313,0.565-33.927
						c0-2.827-0.565-11.874,3.393-13.57c20.922-12.439,42.408-25.445,63.33-37.885c1.131-2.262,1.696-4.523,2.262-6.22
						c0.565-2.262,1.696-4.523,1.696-7.916c0-2.262,0-3.958,0-6.22c0-4.524-0.565-9.048-1.131-13.571
						c11.309,5.654,25.445,7.351,37.885,6.785c11.309-0.565,22.618-2.262,33.361-5.654c0,2.827,0,5.654,0,8.481
						c0,2.262,0,4.524,0.565,6.786c0.565,7.351,1.696,14.136,5.089,19.79c0.565,1.131,1.696,1.696,2.262,2.262
						c15.268,7.916,40.146,25.445,60.503,28.838c2.262,5.089,1.131,13.57,1.696,19.225
						C644.607,537.173,645.173,555.267,645.173,568.272z"/>
					<path fill="#D38A6A" d="M573.927,447.832c0,1.131,0,2.828,0,3.959c-2.262,2.827-6.22,7.351-11.309,11.309
						c-6.221,5.089-13.006,10.178-22.618,10.743c-9.047,0.565-16.398-3.393-21.487-6.22c-6.785-3.958-11.874-8.481-14.701-11.309
						c0-1.696,0-2.827,0-4.523c0-4.524-0.565-9.048-1.131-13.571c11.309,5.654,25.445,7.351,37.885,6.785
						c11.309-0.565,22.618-2.262,33.361-5.654C573.927,442.178,573.927,445.005,573.927,447.832z"/>
					<path fill="#DE9F7E" d="M490.241,389.026c-1.131-3.958,1.131-5.089-3.394-7.351c-3.958-1.696-7.351,5.655-7.916,10.744
						c-1.131,5.089,3.958,23.184,6.785,25.445c2.828,2.262,6.786,3.393,7.917-1.131L490.241,389.026z"/>
					<path fill="#DE9F7E" d="M586.366,375.456c1.696,21.487,3.393,43.54-8.481,63.895c-1.131,1.696-5.089,7.916-11.874,14.702
						c-5.654,5.654-14.137,12.439-26.011,14.701c-2.262,0.565-4.523,0.565-6.785,0c-17.529-3.958-31.665-20.355-36.188-27.707l0,0
						c-0.565-0.565-1.131-1.696-1.696-2.827s-1.131-2.262-1.131-3.393l0,0c-3.958-11.309-4.523-42.974-5.089-61.068
						c-1.696-24.88,14.136-46.367,39.581-53.152c2.827-1.131,6.22-1.131,9.612-1.131l0,0h0.565c2.827,0,5.654,0.565,38.45,20.921
						C586.366,346.052,584.67,357.927,586.366,375.456z"/>
					<g>
						<path fill="#D34047" d="M377.152,643.477c1.695-23.749,22.052-92.733,25.444-108c3.958-17.529,9.047-31.1,27.707-33.927
							c10.178-1.696,16.963-2.262,27.142-5.089l28.271,24.314L450.66,668.356C430.869,654.22,392.419,648,377.152,643.477z"/>
					</g>
					<g>
						<path fill="#D34047" d="M705.11,663.267c-1.131-23.748-19.791-111.393-22.618-126.659
							c-3.393-18.095-7.916-30.534-26.011-34.492c-10.178-2.262-16.963-3.958-26.575-6.785l-20.922,41.277
							c7.916,46.366,16.397,93.299,24.314,139.665C657.047,671.749,680.796,667.791,705.11,663.267z"/>
					</g>
					<path fill="#D34047" d="M440.481,665.529c0,3.958-0.565,6.785-0.565,9.612c-0.565,15.832,0,22.617,0,37.885
						c0,16.963-2.262,29.969-3.958,41.277c-1.696,9.612-3.393,17.528-5.089,23.184c-16.963,12.439-33.927,24.313-50.89,36.754
						c47.497-2.827,86.513-1.131,113.654,1.131c54.848,4.523,86.513,13.005,144.754,11.874c27.142-0.565,49.193-3.393,64.461-5.089
						c-18.66-15.833-37.319-31.665-55.414-47.497c-1.131-6.786-2.827-15.268-3.393-25.445c-1.131-14.701-0.565-25.445,0-31.1
						c3.393-60.503,6.785-89.905,10.743-115.916c5.089-38.45,11.309-57.676,11.309-90.472c0-2.827,0-4.523,0-6.22
						c-6.785-2.827-13.57-5.089-20.355-7.916c-22.618-9.047-43.539-19.226-63.33-28.838c-1.696-1.131-3.958-2.262-5.654-3.393
						c1.696,5.654,5.089,22.618-2.262,40.146c-3.958,8.481-9.047,14.702-12.439,18.66c-5.09,11.309-10.179,23.183-15.268,34.492
						c-1.131-6.785-16.963-33.361-20.355-35.058c-4.523-1.696-7.352-3.393-10.179-5.655c0,0-5.654-4.523-10.178-10.743
						c-5.654-9.047-7.916-23.748-3.958-40.146c-2.262,1.131-5.089,2.827-8.481,5.654c-2.262,2.262-3.958,3.958-5.089,5.654
						c-22.053,8.482-43.54,16.398-65.592,24.88c1.131,50.325,5.654,79.728,10.178,98.388
						C432.565,601.634,441.612,637.257,440.481,665.529z"/>
					<g>
						<path d="M538.869,496.461c-2.827,0-20.356,0.565-31.1-12.439c-2.262-2.828-3.958-5.655-4.523-7.917
							c-1.131-2.262-1.696-4.523-2.262-6.22l0,0c0-0.565-0.565-2.262,0-3.958c0-0.565,0.565-0.565,1.131-1.131
							c0,1.131,0.565,2.262,1.131,3.958c0,0,2.262,7.351,6.22,13.005c9.612,13.006,31.665,15.833,47.497,7.352
							c14.137-7.917,18.095-22.618,19.226-26.011c0,0.565,0.565,1.696,0.565,2.827c0,0.565,0,1.131,0,1.696
							c0,1.696-2.827,10.178-8.481,16.397c-3.958,4.524-9.047,6.786-9.612,7.352C556.397,492.503,549.047,496.461,538.869,496.461z"
							/>
					</g>
					<g>
						<path d="M488.545,424.084c-1.697,0-2.262-2.827-2.262-5.654l1.131,0.565c0,2.827,0.564,3.958,1.131,3.958
							c0.564,0,1.131-1.696,1.131-4.523c0-2.828-0.566-4.524-1.131-4.524c0,0-0.566-0.565,0-1.131c1.696,0,2.262,2.827,2.262,5.655
							C490.807,421.257,489.676,424.084,488.545,424.084z"/>
					</g>
					<path fill="#DE9F7E" d="M584.104,390.157c1.131-3.958,0.565-6.22,4.523-7.351s6.786,5.655,7.917,10.744
						c0.565,5.089-4.524,23.184-7.917,25.445c-2.827,2.262-6.785,3.393-7.916-1.131L584.104,390.157z"/>
					<g>
						<path d="M586.366,425.215c1.696,0,2.262-2.827,2.262-5.654l-1.131,0.565c0,2.827-1.131,3.958-1.131,3.958
							c-0.565,0-1.131-1.696-1.131-4.523c0-2.828,1.131-4.523,1.131-4.523s0.565-0.566,0-1.132c-1.696,0-2.262,2.827-2.262,5.655
							C584.104,422.388,584.67,425.215,586.366,425.215z"/>
					</g>
					<path d="M581.843,400.335c0.565-0.565,1.131-1.696,1.696-2.262c0.565-4.523,1.696-9.047,2.262-13.005
						c1.696-4.523,3.958-10.743,4.523-18.66c1.697-10.743,1.697-20.921-3.958-28.837c-4.523-6.22-11.309-5.089-11.874-5.655
						c-24.88-41.843-77.466-4.523-83.686,9.047c-2.262,5.654-5.654,15.833-4.523,28.272c0.565,5.655,1.696,10.744,2.827,14.702
						c0.565,0.565,1.131,1.697,1.131,2.828c1.696,4.523,2.262,8.481,1.696,11.309c0,1.131,0.565,1.696,0.565,2.827
						c0-1.696,0.565-4.523,0.565-7.351c1.696-18.66,1.131-24.314,5.654-29.969c1.131-1.131,3.393-3.393,6.785-5.089
						c24.314,6.22,67.288-11.875,68.419-6.786c0,2.262-0.565,6.22,0.565,10.744c1.131,6.22,2.827,10.178,3.958,12.44
						C581.277,379.414,583.539,387.33,581.843,400.335z"/>
					<g>
						<path fill="#CE8065" d="M524.733,440.481c0,1.131,8.481,2.827,15.832,2.262c5.089,0,11.874-1.131,11.874-2.262
							s-6.22-2.262-11.874-2.262C533.215,438.22,524.733,439.351,524.733,440.481z"/>
					</g>
					<g>
						<path fill="#CE8065" d="M530.953,425.215c0,0.565,2.827,3.393,7.351,3.393c3.958,0,6.785-2.827,6.785-3.393
							s-2.827,1.131-6.785,1.131C533.78,426.346,531.519,424.649,530.953,425.215z"/>
					</g>
					<g>
						<path d="M500.984,387.896c1.696-1.696,3.393-3.393,6.22-5.089l0,0c1.696-1.131,3.393-1.131,5.089-1.131
							c4.523,0.565,8.481,1.131,13.006,1.696c0.565,0.565,0.565,1.131,1.131,2.262c0,1.131,0,1.696,0,2.262
							c-5.09-0.565-10.179-1.131-15.268-1.696c-1.131,0-2.262,0-3.393,0.565C506.073,386.765,503.812,387.33,500.984,387.896z"/>
					</g>
					<g>
						<path d="M575.058,388.461c-1.696-1.696-3.393-3.958-6.22-5.655l0,0c-1.696-1.131-3.393-1.131-5.089-1.131
							c-4.524,0.565-8.482,0.565-13.006,1.131c-0.565,0.565-0.565,1.131-1.131,2.262c0,1.131,0,1.697,0,2.262
							c5.089-0.565,10.179-1.131,15.268-1.696c1.131,0,2.262,0,3.393,0.565C570.534,387.33,572.796,387.896,575.058,388.461z"/>
					</g>
					<g>
						<path d="M550.178,397.508c3.393,5.654,9.613,7.916,15.268,4.523c1.696-1.131,3.393-2.262,4.523-4.523
							c-0.565,1.131-1.131,1.696-1.696,2.827C563.184,407.12,552.439,405.989,550.178,397.508L550.178,397.508z"/>
					</g>
					<g>
						<path d="M525.864,396.942c-3.394,5.654-9.613,7.916-15.268,4.523c-1.696-1.131-3.393-2.262-4.523-3.958
							c0.565,1.131,1.131,1.696,1.696,2.827C512.858,406.555,523.602,405.424,525.864,396.942L525.864,396.942z"/>
					</g>
					<path id="XMLID_00000049901226737396075970000017533059212458875295_" fill="#FCB856" d="M484.586,353.403
						c22.618-18.094,95.561-14.702,106.869-11.309c1.697,0.565,3.959,5.089,2.828,11.875c2.262,4.523,2.262,10.178-1.131,12.439
						c0,0,0,0,0,0.565c0,1.696-1.132,2.827-2.828,2.827c-12.439-0.565-70.115-7.916-100.648,10.178
						c-1.131,0.565-3.393,0.565-3.959-1.131c-0.564-1.696-1.695-3.958-1.131-7.351c-2.827-2.828-2.262-9.613-1.131-11.309
						C482.89,356.796,483.455,353.969,484.586,353.403z"/>
				</g>
				<path fill="#FCB856" d="M642.346,500.419c-1.131-11.874-11.875-12.439-15.268-11.874c-3.393-5.655-8.481-7.917-14.701-5.655
					c-1.131-3.958-10.743-6.785-13.005-5.089c0.565,19.226-2.262,201.864-25.445,269.718c-1.131,6.22,44.104,25.444,60.503,13.57
					C636.126,752.607,654.785,553.005,642.346,500.419z"/>
				<path fill="#B7303D" d="M526.43,524.168c-2.262,1.131-5.09,2.827-7.352,5.654c-6.785,7.351-5.654,15.267-8.481,15.267
					c-3.958,0.565-9.047-13.57-11.874-21.487c-1.131-3.958-3.958-10.178-5.654-19.225c-0.565-3.958-0.565-4.523-1.696-9.047
					c-2.263-9.613-3.394-11.31-3.394-14.137c0-3.393,2.828-8.481,13.571-14.701c-1.131,5.089-2.827,15.832,1.131,28.838
					C508.335,513.424,522.471,521.906,526.43,524.168z"/>
				<path fill="#B7303D" d="M560.356,524.168c2.262,0.565,5.089,1.696,8.481,4.523c7.351,6.22,7.351,14.136,10.178,14.136
					c3.958,0,7.351-14.701,9.047-23.184c0.565-5.089,1.696-11.874,1.696-20.355c0-0.565-0.565-3.958-1.131-10.178
					c-1.696-13.571-1.696-16.398-4.523-19.226c-1.131-1.696-3.393-3.393-7.916-4.523c0,3.958,0.565,7.916,0,11.874
					C575.058,497.592,567.142,513.424,560.356,524.168z"/>
				<g>
					<path fill="#B7303D" d="M560.356,524.168c-6.786,16.397-14.137,32.229-15.833,50.324c-2.262,26.576-1.696,53.151-1.131,79.728
						l-1.131-1.131c6.22,0,13.005-0.565,19.226-0.565c-6.786,1.131-13.571,1.696-20.356,2.827
						c-2.827-31.665-5.089-63.896,2.262-94.994C547.916,547.351,553.57,535.477,560.356,524.168L560.356,524.168z"/>
				</g>
				<circle fill="#B7303D" cx="552.439" cy="570.534" r="3.958"/>
				<circle fill="#B7303D" cx="551.309" cy="608.984" r="3.958"/>
				<circle fill="#B7303D" cx="551.309" cy="642.346" r="3.958"/>
			</g>
			<path fill="#DD9373" d="M727.162,811.414c-63.896-86.514-80.858-118.744-81.424-130.053c0-7.351-0.565-21.487-0.565-21.487
				c1.131-2.262,2.262-4.523,3.958-6.785c0,0,2.262-3.393,5.654-6.22c5.654-5.089,20.922-12.439,38.45-7.916
				c3.393,1.131,8.481,2.827,14.137,7.351c3.393,8.481,6.785,17.528,9.612,26.576c16.963,47.497,29.403,93.863,38.45,137.403
				C745.822,810.848,736.209,811.414,727.162,811.414z"/>
		</g>
	</g>
	<path fill="#DD9373" d="M742.43,775.226c1.696,5.089,3.393,9.612,5.089,14.701c9.612,9.047,15.832,13.005,19.79,14.136
		c1.131,0.566,6.786,2.828,12.44,6.786c0.565,0.565,1.131,1.131,1.696,1.131c2.262,2.262,7.916,6.785,11.874,15.267
		c1.696,3.393,2.262,6.785,2.262,9.612c0,1.696-1.131,2.827-2.827,2.827c-1.131,0-2.262-0.565-3.958-1.131
		c-2.827-1.696-3.958-3.393-6.785-6.22c-1.696-1.696-3.958-3.393-7.916-5.654c-0.565,1.696-2.827,7.351-0.565,14.136
		c1.696,5.654,5.089,8.482,6.22,10.179c1.131-1.696,2.262-3.393,3.393-5.655c0.565-1.131,1.696-2.262,2.262-3.393
		c0,0,2.262-1.131,3.958-0.565s2.827,2.827,2.827,4.523c-0.565,5.09-1.696,10.744-3.958,16.964c0,0.565-0.565,1.131-0.565,1.696
		c-0.565,1.696-2.827,2.262-4.523,1.696c-1.696-1.131-3.958-2.262-6.22-3.958c-3.393-2.262-5.654-5.089-7.917-7.351
		c1.696,3.958,3.959,7.916,7.352,12.439c4.523,6.22,9.047,10.743,13.005,13.57c1.131,2.262,1.131,4.524,0,5.655
		s-2.827,0.565-4.523,0c-2.827-0.565-4.523-2.262-5.654-3.958c-3.393-3.394-6.785-6.786-10.744-10.179
		c4.524,7.351,6.786,10.179,7.917,11.31c0,0,0.565,1.131,1.696,2.262s1.696,2.262,1.131,3.958c0,0.565-0.565,1.131-1.131,1.696
		c-1.131,1.131-3.393,0.565-4.523,0c-4.524-3.393-9.613-7.916-14.702-13.571c-6.22-7.351-10.743-14.136-13.57-19.79
		c0.565,3.393,1.131,6.785,2.262,10.743c1.696,5.654,3.958,10.178,6.22,14.136c0.565,1.131,0.565,2.828-0.565,3.959
		s-2.827,1.131-2.827,1.131c-2.827-2.828-6.22-7.352-9.612-13.006c-3.958-6.22-6.22-13.005-10.179-31.1
		c-1.696-8.481-4.523-19.225-6.22-32.23c-3.958-8.481-7.916-16.397-12.439-24.879C723.77,784.272,732.816,779.749,742.43,775.226z"
		/>
	<path fill="#B7303D" d="M629.906,648c24.313-6.785,49.193-13.57,73.508-19.791c4.523,10.744,8.481,21.487,13.005,31.665
		c-26.011,7.352-52.021,14.702-78.031,22.053c-2.262-3.393-5.089-7.916-7.351-15.267C628.774,659.309,629.34,652.523,629.906,648z"
		/>
	<path fill="#DD9373" d="M347.749,811.414c63.895-86.514,80.858-118.744,81.424-130.053c0-7.351,0.565-21.487,0.565-21.487
		c-1.131-2.262-2.262-4.523-3.958-6.785c0,0-2.262-3.393-5.654-6.22c-5.655-5.089-20.922-12.439-38.45-7.916
		c-3.393,1.131-8.482,2.827-14.137,7.351c-3.393,8.481-6.785,17.528-9.612,26.576c-16.964,47.497-29.403,93.863-38.45,137.403
		C329.089,810.848,338.701,811.414,347.749,811.414z"/>
	<path fill="#DD9373" d="M332.481,775.226c-1.696,5.089-3.393,9.612-5.089,14.701c-9.612,9.047-15.832,13.005-19.791,14.136
		c-1.131,0.566-6.785,2.828-12.439,6.786c-0.565,0.565-1.131,1.131-1.696,1.131c-2.262,2.262-7.916,6.785-11.874,15.267
		c-1.696,3.393-2.262,6.785-2.262,9.612c0,1.696,1.131,2.827,2.827,2.827c1.131,0,2.262-0.565,3.958-1.131
		c2.827-1.696,3.958-3.393,6.785-6.22c1.696-1.696,3.958-3.393,7.917-5.654c0.565,1.696,2.827,7.351,0.565,14.136
		c-1.696,5.654-5.089,8.482-6.22,10.179c-1.131-1.696-2.262-3.393-3.393-5.655c-0.565-1.131-1.696-2.262-2.262-3.393
		c0,0-2.262-1.131-3.958-0.565s-2.827,2.827-2.827,4.523c0.565,5.09,1.696,10.744,3.958,16.964c0,0.565,0.565,1.131,0.565,1.696
		c0.565,1.696,2.827,2.262,4.523,1.696c1.696-1.131,3.958-2.262,6.22-3.958c3.393-2.262,5.655-5.089,7.917-7.351
		c-1.696,3.958-3.958,7.916-7.351,12.439c-4.523,6.22-9.047,10.743-13.005,13.57c-1.131,2.262-1.131,4.524,0,5.655
		s2.827,0.565,4.523,0c2.827-0.565,4.523-2.262,5.654-3.958c3.393-3.394,6.786-6.786,10.743-10.179
		c-4.523,7.351-6.785,10.179-7.916,11.31c0,0-0.565,1.131-1.696,2.262s-1.696,2.262-1.131,3.958c0,0.565,0.565,1.131,1.131,1.696
		c1.131,1.131,3.393,0.565,4.524,0c4.523-3.393,9.613-7.916,14.702-13.571c6.22-7.351,10.743-14.136,13.57-19.79
		c-0.565,3.393-1.131,6.785-2.262,10.743c-1.696,5.654-3.958,10.178-6.22,14.136c-0.565,1.131-0.565,2.828,0.565,3.959
		s2.827,1.131,2.827,1.131c2.827-2.828,6.22-7.352,9.612-13.006c3.958-6.22,6.22-13.005,10.178-31.1
		c1.697-8.481,4.524-19.225,6.221-32.23c3.958-8.481,7.916-16.397,12.439-24.879C351.707,784.272,342.094,779.749,332.481,775.226z"
		/>
	<path fill="#B7303D" d="M445.005,648c-24.313-6.785-49.193-13.57-73.508-19.791c-4.523,10.744-8.481,21.487-13.005,31.665
		c26.011,7.352,52.021,14.702,78.031,22.053c2.262-3.393,5.089-7.916,7.351-15.267C446.136,659.309,445.57,652.523,445.005,648z"/>
</g>
</svg>
