<?xml version="1.0" encoding="utf-8"?>
<!-- Generator: Adobe Illustrator 16.0.0, SVG Export Plug-In . SVG Version: 6.00 Build 0)  -->
<!DOCTYPE svg PUBLIC "-//W3C//DTD SVG 1.1//EN" "http://www.w3.org/Graphics/SVG/1.1/DTD/svg11.dtd">
<svg version="1.1" id="Layer_2" xmlns="http://www.w3.org/2000/svg" xmlns:xlink="http://www.w3.org/1999/xlink" x="0px" y="0px"
	 width="185.5px" height="214.5px" viewBox="0 0 185.5 214.5" enable-background="new 0 0 185.5 214.5" xml:space="preserve">
<g>
	<g>
		<g id="Layer_1_1_">
			<path opacity="0.5" fill="#D196A8" enable-background="new    " d="M88.521,210.971c20.793,0,37.64-3.732,37.64-8.531
				c0-4.584-16.847-8.315-37.64-8.315c-20.791,0-37.638,3.731-37.638,8.423S67.729,210.971,88.521,210.971L88.521,210.971z"/>
			<path fill="#D196A8" d="M103.769,5.824c-0.853-2.239-4.158-2.239-6.61-1.813C85.75,6.463,73.061,10.622,61.972,14.14
				c-6.611,2.133-13.008,4.906-19.086,8.104c-1.813,1.066-3.945,2.986-2.879,4.798c0.747,1.386,2.56,1.386,4.052,1.172
				c15.674-1.599,31.241-5.437,45.849-11.409c4.264-1.493,8.21-3.731,11.729-6.504c1.065-1.066,2.346-2.666,1.919-4.265
				L103.769,5.824z M163.479,95.282c0.213,3.305-0.214,6.931-1.92,10.236v0.106l-0.106,0.106l-0.32,0.642
				c-1.492,2.664-3.731,4.798-6.396,6.183l-1.28,0.747c-11.303,4.905-23.458,7.357-35.719,7.251
				c-3.306,0.213-6.611,0.745-9.81,1.491c-10.982,2.561-21.326,7.465-32.415,9.916c-9.917,2.135-21.112,1.813-29.322-3.731
				c-1.813-1.066-3.199-2.771-4.051-4.584l-2.986-5.864l-0.427-0.854c-1.386-2.667-2.985-5.118-4.905-7.357
				c-0.639-0.747-1.279-1.493-1.918-2.132l-5.118-5.012L26.359,102l-0.427-0.427l-1.386-1.386c-8.21-9.17-11.835-21.645-9.703-33.8
				c2.773-14.714,13.435-26.763,27.83-31.135c6.931-2.239,14.395-3.199,21.645-4.584c14.715-2.666,29.002-7.145,42.651-13.221
				l6.824-3.198l0.746-0.321c7.145-3.732,14.714-6.397,22.497-8.103c3.413-0.534,6.931-0.747,10.235,0
				c8.851,2.132,15.143,11.195,15.143,20.365c0,10.449-6.825,20.044-6.611,30.388c0,3.731,1.067,7.357,2.452,10.662
				c1.387,3.306,3.199,6.398,5.012,9.384l0.427,0.533l3.838,5.864l-4.265,9.703L163.479,95.282z"/>
			<path fill="#D196A8" d="M177.767,38.877c-0.532-1.493-1.065-2.878-2.239-3.946c-2.132-1.919-5.864-1.705-8.209,0
				c-2.241,1.813-3.839,4.265-4.479,7.144c-0.746,4.479-0.534,7.571,0.853,12.262c0.639,2.24,1.706,4.585,3.519,6.184
				c1.813,1.6,4.479,2.346,6.717,1.387c2.133-0.854,3.412-2.986,4.265-5.119C180.006,50.927,179.899,44.635,177.767,38.877
				L177.767,38.877z"/>
			<path fill="#D196A8" d="M156.016,71.397c0.105,26.017-20.898,47.236-46.916,47.448c-25.908,0-46.915-21.325-46.915-47.448
				c0-26.123,21.007-47.448,46.915-47.448C135.01,23.949,156.016,45.274,156.016,71.397z"/>
			<path fill="#682136" d="M9.939,197.003h173.373v-0.64H9.939V197.003L9.939,197.003z M144.286,196.683v0.32v-0.64h-0.746
				c-0.106,0,0,0,0,0h-1.6c-0.107,0,0,0,0,0h-0.64c-0.107,0,0,0,0,0h-0.746c-0.106,0,0,0,0,0h-0.106c-0.107,0,0,0,0,0h-0.641
				c-0.106,0,0,0,0,0h-1.6c-0.106,0,0,0,0,0h-1.599c-0.107,0,0,0,0,0h-0.32c-0.106,0,0,0,0,0H96.519v0.64h39.237c0.105,0,0,0,0,0
				h0.427c0.106,0,0,0,0,0h0.427c0.107,0,0,0,0,0h1.066c0.106,0,0,0,0,0h0.746c0.105,0,0,0,0,0h0.533c0.107,0,0,0,0,0h1.6
				c0.107,0,0,0,0,0h0.107c0.106,0,0,0,0,0h0.106c0.105,0,0,0,0,0h0.745c0.107,0,0,0,0,0h0.64c0.108,0,0,0,0,0h1.599
				c0.107,0,0,0,0,0h0.641v-0.64L144.286,196.683L144.286,196.683z M96.624,196.363H15.483c-0.106,0,0,0,0,0h-1.066
				c-0.106,0,0,0,0,0H13.99c-0.106,0,0,0,0,0H13.67c-0.106,0,0,0,0,0h-0.533c-0.107,0,0,0,0,0H12.71c-0.106,0,0,0,0,0h-0.533
				c-0.107,0,0,0,0,0h-0.533c-0.107,0,0,0,0,0h-0.107c-0.106,0,0,0,0,0h-0.639c-0.107,0,0,0,0,0h-0.533c-0.107,0,0,0,0,0h-0.214
				c-0.106,0,0,0,0,0H9.939c-0.107,0,0,0,0,0v0.64h0.426c0.107,0,0,0,0,0h0.213c0.106,0,0,0,0,0h0.426c0.106,0,0,0,0,0h0.533
				c0.107,0,0,0,0,0h0.214c0.107,0,0,0,0,0h0.107c0.106,0,0,0,0,0h0.533c0.106,0,0,0,0,0h1.386c0.106,0,0,0,0,0h2.878
				c0.106,0,0,0,0,0h80.075L96.624,196.363L96.624,196.363z M9.939,196.683v0.32h0.426c0.107,0,0,0,0,0h1.172c0.107,0,0,0,0,0h0.107
				c0.107,0,0,0,0,0h0.107c0.107,0,0,0,0,0h0.107c0.106,0,0,0,0,0h0.106c0.105,0,0,0,0,0h1.813c0.106,0,0,0,0,0h0.639
				c0.107,0,0,0,0,0h2.24c0.106,0,0,0,0,0h80.075v-0.64H16.336c-0.106,0,0,0,0,0h-0.959c-0.107,0,0,0,0,0H14.31c-0.106,0,0,0,0,0
				h-0.64c-0.106,0,0,0,0,0h-0.533c-0.107,0,0,0,0,0h-1.493c-0.107,0,0,0,0,0h-0.107c-0.106,0,0,0,0,0h-0.106c-0.107,0,0,0,0,0
				h-1.28c-0.106,0,0,0,0,0H9.939c-0.107,0,0,0,0,0V196.683z M96.624,197.003h38.813c0.107,0,0,0,0,0h3.198c0.108,0,0,0,0,0h0.854
				c0.106,0,0,0,0,0h0.426c0.107,0,0,0,0,0h1.067c0.106,0,0,0,0,0h1.6c0.105,0,0,0,0,0h0.213c0.106,0,0,0,0,0h0.32c0.105,0,0,0,0,0
				h1.172c0.106,0,0,0,0,0h0.106v-0.64v0.745v-0.745h-0.427c-0.106,0,0,0,0,0h-0.106c-0.107,0,0,0,0,0h-0.107c-0.105,0,0,0,0,0
				h-0.212c-0.106,0,0,0,0,0h-0.532c-0.107,0,0,0,0,0h-2.239c-0.106,0,0,0,0,0h-1.067c-0.106,0,0,0,0,0h-0.426c-0.107,0,0,0,0,0
				h-0.32c-0.106,0,0,0,0,0h-0.533c-0.107,0,0,0,0,0h-3.093c-0.105,0,0,0,0,0h-0.853c-0.106,0,0,0,0,0H96.519v0.745L96.624,197.003z
				"/>
			<path opacity="0.3" enable-background="new    " d="M28.278,69.372c0,0,2.56-28.256,3.839-31.881
				c1.279-3.519,12.368-6.824,12.368-6.824l2.986-2.666l1.066-2.56v-1.706h8.637l1.065,45.636H28.278z M117.845,69.372
				c0,0,2.664-28.256,3.838-31.881c1.279-3.519,12.368-6.824,12.368-6.824l2.984-2.666l1.066-2.56v-1.706h8.637l1.066,45.636
				H117.845z"/>
			<path fill="#7E4A4E" fill-opacity="0.8" d="M115.817,48.047c-0.745,0-3.092-0.32-3.625,0.212
				c-0.854,0.853-0.64,2.667-2.346,2.667c-2.561,0-4.372-2.134-4.266-5.225c0.107-3.093,1.813-5.012,4.479-5.012
				c1.707,0,1.174,2.666,2.346,3.093c0.641,0.212,2.771,0,3.52,0c1.064,0,2.131-0.641,2.559-1.6c0.213-0.32,0.213-0.64,0.213-1.067
				l-0.106-17.38H72.635V40.37c0,1.493,1.386,2.56,2.878,2.666c0.747,0,1.493-0.32,2.025-0.853c0.854-0.854,2.347-2.133,3.945-2.133
				c2.667,0.106,4.479,2.239,4.373,5.331c-0.106,3.092-1.919,4.905-4.584,4.905c-1.6,0-3.093-1.279-3.839-2.133
				c-0.853-1.172-2.559-1.386-3.733-0.533c-0.746,0.533-1.065,1.387-1.065,2.24v19.512h45.528l0.427-18.553
				C118.59,49.327,117.31,48.047,115.817,48.047z"/>
			<path fill="#FB7C85" d="M112.726,48.047c-0.747,0-1.492,0.212-2.026,0.746c-0.746,0.854-2.238,2.134-3.944,2.134
				c-2.667-0.107-4.372-2.24-4.266-5.225c0.107-2.986,1.813-5.012,4.479-5.012c1.706,0,3.092,1.279,3.838,2.133
				c0.961,1.172,2.559,1.279,3.732,0.425c0.106-0.106,0.106-0.106,0.213-0.212c0.534-0.534,0.854-1.173,0.854-1.92l-0.214-17.38
				H69.436V40.37c0,1.493,1.492,2.56,2.985,2.666l1.066-0.213l0.959-0.64c0.747-0.854,2.239-2.133,3.945-2.133
				c2.666,0.106,4.371,2.239,4.265,5.331c0,2.878-1.813,4.905-4.478,4.905c-1.706,0-3.199-1.279-3.838-2.133
				c-0.959-1.172-2.559-1.279-3.731-0.426c-0.107,0.106-0.107,0.106-0.213,0.213c-0.533,0.533-0.854,1.172-0.854,1.919v19.512h45.53
				l0.318-18.553c0-1.066-0.64-2.133-1.599-2.56C113.471,48.047,113.151,48.047,112.726,48.047z"/>
			<path fill="#FEECD6" d="M28.492,41.01c0,1.493-1.28,2.773-2.772,2.773c-0.747,0-1.493-0.427-1.919-0.959
				c-0.854-0.854-2.24-2.133-3.945-2.133c-2.666,0-4.585,2.026-4.585,5.012c0,2.984,1.706,5.117,4.265,5.117
				c1.813,0,3.199-1.066,4.052-2.026l0.959-0.64l1.067-0.106c1.492,0.106,2.665,1.279,2.665,2.772l-0.213,18.553h41.264V49.86
				c0-1.067,0.64-2.133,1.706-2.56c1.066-0.426,2.346-0.106,3.092,0.748c0.747,0.959,2.133,2.132,3.839,2.132
				c2.665,0.106,4.585-1.92,4.585-4.905s-1.707-5.118-4.266-5.224c-1.813,0-3.199,1.279-4.052,2.133
				c-0.534,0.533-1.279,0.747-2.026,0.747c-1.492,0-2.985-1.066-2.879-2.56V23.736H28.278L28.492,41.01L28.492,41.01z
				 M118.483,41.01c0,1.493-1.28,2.773-2.772,2.773c-0.746,0-1.493-0.427-1.919-0.959c-0.854-0.854-2.134-2.133-3.945-2.133
				c-2.665,0-4.479,2.026-4.586,5.012c0,2.984,1.813,5.117,4.371,5.117c1.706,0,3.199-1.066,4.052-2.026l0.854-0.64l1.066-0.106
				c1.492,0.106,2.666,1.279,2.666,2.772l-0.32,18.553h41.263V49.86c0-1.173,0.747-2.133,1.813-2.56
				c1.068-0.426,2.24-0.106,2.986,0.748c0.747,0.959,2.133,2.132,3.947,2.132c2.558,0.106,4.476-1.92,4.476-4.905
				s-1.706-5.118-4.265-5.224c-1.705,0-3.198,1.279-4.051,2.133c-0.534,0.533-1.279,0.747-2.025,0.747
				c-1.493,0-2.881-1.066-2.881-2.56V23.736h-40.837L118.483,41.01L118.483,41.01z"/>
			<path fill="#F9F7F1" d="M113.151,30.348l1.6-3.306c-2.238-6.077,0.854-12.794,6.932-15.034
				c6.077-2.239,12.794,0.853,15.034,6.931c2.238,6.078-0.855,12.795-6.932,15.034c-4.584,1.707-9.703,0.321-12.901-3.305
				L113.151,30.348L113.151,30.348z"/>
			<path fill="#263238" d="M113.151,30.348h0.961l2.771,0.212l-0.214-0.212l0.214,0.212c3.092,3.625,8.104,4.905,12.581,3.412
				c6.079-2.026,9.384-8.637,7.358-14.714c-0.214-0.745-0.534-1.492-0.962-2.132l-0.425-0.64l-0.427-0.533l-0.213-0.32l-0.32-0.214
				l-0.426-0.533c-4.691-4.478-12.156-4.158-16.528,0.533c-2.878,3.093-3.944,7.571-2.665,11.623l-1.387,2.239l-0.319,0.641
				l-0.105,0.212v-0.212l0.318-0.641l1.174-2.452c-2.239-6.078,0.853-12.795,6.931-15.034c0.214-0.107,0.319-0.107,0.533-0.214
				c4.265-1.386,8.955-0.213,12.154,2.986l0.427,0.532l0.321,0.32l0.213,0.321l0.427,0.533l0.317,0.64
				c3.201,5.65,1.281,12.901-4.476,16.1c-4.905,2.772-11.09,1.707-14.716-2.453h0.106l-2.878-0.319L113.151,30.348L113.151,30.348z"
				/>
			<path fill="#FB7C85" d="M120.189,23.204l1.493-1.493l2.877,2.559l5.864-5.652l1.494,1.493l-7.463,6.931l-4.266-3.945V23.204z"/>
			<g>
				<g>
					<g>
						<g>
							<path d="M89.054,194.978c-0.534,0.426-1.065,1.919-0.213,2.771c0.853,0.852,12.795,2.986,15.781,2.879
								c1.491,0,3.092-0.533,3.839-1.6c0.427-0.533,0.213-1.386-0.428-1.6c-1.705-0.746-5.544-1.919-5.971-2.025
								C101.528,195.403,89.054,194.978,89.054,194.978z"/>
							<path fill="#DE9F7E" d="M89.588,193.164c-0.64,1.385-0.534,2.346-0.32,2.878c0.32,0.854,1.173,2.239,14.396,3.2
								c0.959,0.104,2.025-0.107,2.985-0.426c0.533-0.216,1.171-0.428,1.385-0.961c0.106-0.32,0.106-0.639,0-0.747
								c-0.105-0.426-0.427-0.745-0.747-0.853c-0.213-0.106-0.426-0.214-0.638-0.32c-0.107-0.107-0.213-0.107-0.32-0.107
								c-0.961-0.532-1.813-0.957-2.772-1.49c-1.066-0.534-2.027-1.174-2.985-1.814c-1.067-0.853-1.813-1.385-2.347-2.346
								c-0.745-1.386-0.64-2.878-0.533-3.519c0.747-7.57,1.067-15.14,1.601-22.817c0.212-2.133,0.319-5.225,0.319-8.957
								c-3.092,0.214-6.185,0.321-9.276,0.535c-0.32,1.064-0.64,2.452-0.96,4.264c-0.854,4.798-0.746,8.958-0.533,11.727
								c0.426,5.121,1.706,10.558,2.026,15.036c0.105,1.492,0,2.452-0.214,3.625C90.334,191.351,89.908,192.417,89.588,193.164z"/>
							<path d="M99.824,199.881c0.213-0.639,1.173-2.984,3.731-4.053c0.746-0.318,1.492-0.425,2.025-0.425
								c-0.32-0.32-0.746-0.532-1.172-0.854c-0.961-0.639-1.92-1.064-2.667-1.278c-0.745,0.214-1.599,0.533-2.559,1.067
								c-2.238,1.49-3.198,3.518-3.624,4.479C96.945,199.135,98.438,199.454,99.824,199.881z"/>
						</g>
						<g>
							<path d="M75.62,196.896c-0.534,0.425-1.066,1.92-0.214,2.771c0.854,0.854,12.794,2.985,15.781,2.879
								c1.492,0,3.092-0.533,3.839-1.6c0.425-0.533,0.213-1.387-0.428-1.601c-1.706-0.746-5.544-1.918-5.971-2.025
								C88.094,197.321,75.62,196.896,75.62,196.896z"/>
							<path fill="#DE9F7E" d="M76.153,195.083c-0.64,1.385-0.533,2.346-0.32,2.88c0.32,0.854,1.172,2.239,14.395,3.197
								c0.96,0.107,2.025-0.106,2.985-0.425c0.533-0.214,1.172-0.429,1.386-0.961c0.108-0.32,0.108-0.64,0-0.746
								c-0.106-0.428-0.427-0.747-0.747-0.854c-0.213-0.107-0.426-0.212-0.639-0.319c-0.106-0.106-0.213-0.106-0.32-0.106
								c-0.959-0.532-1.812-0.96-2.771-1.493c-1.067-0.534-2.027-1.173-2.985-1.812c-1.066-0.854-1.814-1.387-2.347-2.346
								c-0.746-1.389-0.639-2.88-0.533-3.521c0.747-7.569,1.066-15.141,1.6-22.816c0.214-2.134,0.319-5.224,0.319-8.958
								c-3.092,0.214-6.184,0.32-9.276,0.534c-0.319,1.066-0.639,2.453-0.959,4.265c-0.854,4.8-0.747,8.957-0.534,11.729
								c0.427,5.118,1.706,10.558,2.026,15.035c0.106,1.491,0,2.451-0.213,3.625C76.899,193.271,76.473,194.338,76.153,195.083z"/>
							<path d="M86.389,201.8c0.213-0.64,1.172-2.983,3.732-4.051c0.747-0.32,1.493-0.428,2.025-0.428
								c-0.32-0.318-0.747-0.532-1.173-0.854c-0.959-0.64-1.919-1.064-2.665-1.278c-0.747,0.214-1.6,0.532-2.559,1.066
								c-2.24,1.493-3.199,3.519-3.626,4.479C83.51,201.054,84.896,201.481,86.389,201.8z"/>
						</g>
						<path fill="#FFFFFF" d="M103.769,124.177c0.641,8.743,0.747,15.568,0.747,20.472c0,0,0,3.2-0.747,11.729
							c-0.213,2.135-0.426,4.479-1.6,7.146c-0.746,1.813-1.491,3.624-2.985,4.905c-3.732,3.304-9.81,1.492-10.769,1.278
							c-0.107-0.64-0.107-1.386-0.214-2.025c-0.106-1.278-0.212-2.453-0.32-3.732c-0.532,2.133-0.959,4.266-1.492,6.291
							c-1.067,0.428-5.225,1.92-9.809,0.106c-2.347-0.96-3.839-2.347-4.691-3.305c-0.961-5.757-1.813-12.263-2.026-19.513
							c-0.32-11.194,0.64-21.005,2.132-29.003c4.479-0.318,10.557-0.213,17.486,1.173
							C95.346,120.766,100.144,122.471,103.769,124.177z"/>
						<g>
							<path fill="#D3D3D3" d="M87.668,154.245c-1.387,3.839-5.545,6.718-9.703,6.505C81.483,159.043,84.682,156.91,87.668,154.245
								L87.668,154.245z"/>
						</g>
						<g>
							<path fill="#D3D3D3" d="M88.308,156.271c-0.214,4.16-3.412,7.999-7.357,9.064C83.83,162.563,86.282,159.684,88.308,156.271
								L88.308,156.271z"/>
						</g>
						<g>
							<path fill="#D3D3D3" d="M86.282,150.62c-0.746,3.519-4.584,6.184-8.103,5.544C81.377,154.673,83.83,153.073,86.282,150.62
								L86.282,150.62z"/>
						</g>
						<g>
							<path fill="#D3D3D3" d="M91.614,156.057c2.025,2.561,4.265,3.734,7.144,5.228C95.56,161.923,91.72,159.363,91.614,156.057
								L91.614,156.057z"/>
						</g>
						<g>
							<path fill="#D3D3D3" d="M93.106,153.181c1.813,2.45,3.839,3.519,6.185,5.437C96.305,158.725,92.893,156.271,93.106,153.181
								L93.106,153.181z"/>
						</g>
						<g>
							<path fill="#D3D3D3" d="M90.334,157.764c1.386,2.774,3.412,4.159,5.438,6.611C92.786,163.842,89.694,160.963,90.334,157.764
								L90.334,157.764z"/>
						</g>
						<path fill="#FFFFFF" stroke="#D3D3D3" stroke-width="0.7769" stroke-miterlimit="10" d="M85.962,124.924
							c0.213,10.235,0.427,20.472,0.64,30.707c0.213,0.426,0.959,1.707,2.346,2.133c1.599,0.534,3.519-0.532,4.585-2.451
							c0.959-7.464,1.493-16.314,0.746-26.125c-0.213-2.558-0.428-5.011-0.746-7.25C90.973,122.898,88.521,123.857,85.962,124.924z"
							/>
					</g>
					<g>
						<g>
							<g>
								<g>
									<path fill="#2554D8" d="M106.436,134.307c-3.306,1.066-7.571,2.132-12.476,2.56c-8.958,0.747-16.421-0.854-21.113-2.347
										c-0.212-3.305-0.426-6.61-0.639-9.915c-1.173,3.197-2.239,6.397-3.412,9.595c-0.106-25.055-0.32-50.219-0.427-75.276
										c4.478-1.6,8.85-3.093,13.329-4.691c1.919-0.32,4.478-0.533,7.356-0.214c1.706,0.214,3.199,0.534,4.479,0.854
										c1.813,0.853,3.519,1.706,5.331,2.666c1.813,0.853,3.519,1.706,5.332,2.665c0.105,14.822,0.319,29.962,0.959,45.528
										C105.367,115.434,105.901,124.924,106.436,134.307z"/>
									<path fill="#E09A61" d="M82.763,54.018c0.534,0.534,1.387,1.28,2.453,1.813c0.64,0.321,1.28,0.534,1.813,0.747
										c0.532,1.065,1.171,2.025,1.706,3.092c0.213-0.96,0.426-1.919,0.639-2.879c0.214,0,0.534,0.107,0.854,0
										c1.065-0.213,1.493-1.386,1.599-1.492c0-0.534,0-0.96,0-1.494l0.107-9.169l-9.063-0.107l-0.107,7.784
										C82.871,52.739,82.763,53.378,82.763,54.018z"/>
									<path fill="#C47947" d="M82.871,52.206c0.853,0.745,1.706,1.172,2.239,1.386c1.706,0.853,3.198,0.959,3.944,1.066
										c0.854,0,1.28-0.106,1.706-0.213c0.533-0.213,0.854-0.427,1.173-0.746l0.107-9.17l-9.063-0.106L82.871,52.206z"/>
									<g>
										<path fill="#3770ED" d="M86.922,94.749c0.107,0.534,0.214,2.345-0.96,4.052c-0.959,1.386-2.132,2.026-2.665,2.239
											c-5.864-4.691-11.729-9.277-17.7-13.968c-1.599-8.85-1.173-15.674-0.426-20.152c0.959-6.503,2.345-7.677,3.305-7.891
											c1.919-0.426,4.159,1.814,5.224,3.519c0.961,1.493,1.707,3.519,1.174,11.729c-0.107,2.239-0.427,5.332-0.853,8.85
											C78.285,86.965,82.657,90.804,86.922,94.749z"/>
									</g>
								</g>
								<g>
									<g>
										<path fill="#E09A61" d="M88.094,54.018c0.641,0.107,1.067,0.214,1.6,0.214c1.386-0.214,2.346-1.28,3.625-2.985
											c0.747-0.854,1.493-1.813,2.132-3.306c0.854-1.813,1.067-3.198,1.28-4.904c0.32-1.707,0.32-3.306,0.32-4.585
											c0,0,0.319-3.199,0.427-3.945c0.105-0.853-2.027-4.798-2.347-5.438c-3.092-2.559-9.596-3.198-14.074,0.213
											c-2.666,2.346-3.412,4.905-3.731,5.971c-0.534,2.453-0.107,4.479,0.319,6.398c0.213,1.174,0.854,3.199,2.133,5.438
											c0.534,0.853,1.386,2.451,3.092,4.051C85.429,53.271,87.561,53.911,88.094,54.018z"/>
										<path fill="#17140C" d="M78.285,27.148c0.533-0.64,1.387-1.492,2.559-2.239c2.348-1.279,4.692-0.96,6.717-0.746
											c2.986,0.427,6.505,0.853,8.53,3.625c1.175,1.6,1.493,3.519,1.708,5.012c0.105,0.959,0.425,2.878-0.215,5.01
											c-0.213,0.64-0.426,1.173-0.532,1.493c0.106-0.853,0.106-1.919-0.106-3.305c-0.214-1.174-0.534-2.134-0.854-2.879
											c-0.852,0.213-1.706,0.319-2.665,0.426c-5.225,0.534-9.703-0.426-12.901-1.6c0.533,0.534,1.387,1.6,1.599,3.092
											c0.107,0.427,0.213,1.067-0.106,1.813c-0.319,0.747-0.746,0.959-0.959,1.28c-0.533,0.639-0.746,1.919,0.533,4.905
											c-0.427,0-1.279,0-1.493,0.106c-1.066,0.641-1.066,1.706,0.214,4.372c0.319,0.64,0.639,0.96,0.852,1.279
											c0.107,0.107,0.319,0.426,0.747,0.854c0.32,0.32,0.532,0.64,0.746,0.746c-0.32,0-0.533-0.106-0.959-0.319
											c-1.067-0.32-1.6-1.386-1.707-1.706c-1.066-2.133-2.025-3.625-2.986-6.397c-2.131-5.544-2.239-6.397-2.239-9.702
											c0-2.239,0.32-3.626,1.28-4.479C76.686,27.362,77.646,27.148,78.285,27.148z"/>
									</g>
									<path fill="#E09A61" d="M78.818,39.944c-1.28-0.213-1.066,1.919-0.64,2.772c0.32,0.746,0.854,2.665,1.707,3.305
										c0.319,0.212,0.852,0,0.852-0.426C80.844,43.889,80.737,40.37,78.818,39.944z"/>
									<path fill="#C47947" d="M91.081,46.341c-0.213,0-0.534,0-0.853,0c-0.427,0-0.747,0-1.066-0.107
										c0.213,0.428,0.747,0.641,1.173,0.641C90.868,46.768,91.081,46.341,91.081,46.341z"/>
									<path fill="#C47947" d="M90.868,50.286c0,0-0.321,0-0.854,0c-0.746,0-1.066-0.106-1.066-0.106
										c0,0.106,0.533,0.426,1.066,0.319C90.44,50.499,90.868,50.286,90.868,50.286z"/>
									<path fill="#C47947" d="M92.573,48.474c0-0.107-0.64-0.107-2.133-0.107c-2.666-0.107-3.305-0.213-3.305-0.107
										c-0.106,0.214,1.599,1.174,3.518,0.959C91.72,49.112,92.68,48.687,92.573,48.474z"/>
									<path fill="#17140C" d="M93.213,38.664c1.279-0.107,1.494-0.213,2.026-0.107c0.852,0.214,1.279,0.747,1.385,0.747
										c0.107-0.107-0.319-0.853-1.064-1.279c-0.32-0.107-0.533-0.214-1.175-0.32c-0.533,0-1.385,0-2.452,0.106
										c0,0.107-0.107,0.321,0,0.64c0,0.106,0.107,0.213,0.107,0.32C92.146,38.771,92.68,38.771,93.213,38.664z"/>
									<path fill="#17140C" d="M87.136,38.664c-1.28,0-1.493-0.107-2.026,0c-0.854,0.213-1.28,0.746-1.387,0.746
										c-0.106-0.106,0.32-0.854,1.066-1.279c0.321-0.107,0.533-0.214,1.173-0.321c0.534,0,1.387,0,2.453,0.107
										c0,0.107,0.105,0.32,0,0.639c0,0.107-0.107,0.214-0.107,0.321C88.094,38.771,87.668,38.771,87.136,38.664z"/>
									<g>
										<path fill="#FFFFFF" d="M88.521,41.116c-0.32,0.213-0.746,0.533-1.491,0.64c-1.28,0.213-2.133-0.427-2.453-0.64
											c0.426-0.426,0.853-0.746,1.386-0.959c0.213-0.106,0.534-0.213,0.854-0.106C87.775,40.05,88.308,40.903,88.521,41.116z"/>
										<path fill="#513328" d="M87.989,40.69c0,0.533-0.534,0.959-1.067,0.959c-0.533,0-1.066-0.426-1.066-1.066
											c0-0.213,0.106-0.319,0.214-0.533c0.212-0.106,0.319-0.106,0.532-0.106c0.213,0,0.427,0,0.534,0.106
											c0.105,0,0.213,0.106,0.319,0.106c0.213,0.107,0.426,0.213,0.534,0.319C87.989,40.583,87.989,40.69,87.989,40.69z"/>
										<path d="M86.389,40.797c0,0.319,0.319,0.533,0.64,0.533c0.319,0,0.532-0.32,0.532-0.64s-0.32-0.533-0.532-0.533
											C86.602,40.157,86.389,40.476,86.389,40.797z"/>
										<path fill="#FFFFFF" d="M86.175,40.583c0,0.107,0.106,0.214,0.214,0.214c0.106,0,0.213-0.107,0.213-0.214
											c0-0.107-0.106-0.213-0.213-0.213C86.175,40.37,86.175,40.476,86.175,40.583z"/>
										<path fill="#3B2314" d="M88.521,41.116c-0.212-0.213-0.746-0.746-1.599-0.853c-1.386-0.213-2.24,0.853-2.346,0.959
											c0.746-1.066,1.919-1.6,2.879-1.173C88.094,40.264,88.415,40.797,88.521,41.116z"/>
									</g>
									<g>
										<path fill="#FFFFFF" d="M91.72,41.116c0.213,0.107,1.386,0.959,2.665,0.533c0.428-0.106,0.747-0.32,0.961-0.533
											c-0.319-0.426-0.639-0.746-1.066-0.959c-0.428-0.213-0.854-0.213-1.279-0.106c-0.107,0-0.214,0.106-0.32,0.106
											C92.146,40.476,91.826,40.797,91.72,41.116z"/>
										<path fill="#513328" d="M92.68,40.797c0,0.533,0.427,1.066,0.959,0.959c0.533,0,1.068-0.427,0.96-1.066
											c0-0.214-0.106-0.32-0.106-0.426c-0.426-0.213-0.854-0.213-1.279-0.107c-0.106,0-0.213,0.107-0.32,0.107
											C92.786,40.37,92.68,40.583,92.68,40.797z"/>
										<path d="M94.279,40.903c0,0.32-0.319,0.534-0.641,0.534c-0.319,0-0.426-0.321-0.426-0.64c0-0.321,0.32-0.533,0.639-0.533
											C94.172,40.264,94.385,40.583,94.279,40.903z"/>
										<path fill="#FFFFFF" d="M93.639,40.583c0,0.107-0.105,0.214-0.213,0.214c-0.106,0-0.213-0.107-0.213-0.214
											c0-0.107,0.106-0.213,0.213-0.213C93.533,40.37,93.639,40.476,93.639,40.583z"/>
										<path fill="#3B2314" d="M91.72,41.116c0.106-0.106,0.853-0.959,2.026-0.853c0.853,0.106,1.386,0.746,1.6,0.853
											c-0.106-0.213-0.319-0.853-1.066-1.172C93.426,39.623,92.359,40.05,91.72,41.116z"/>
									</g>
								</g>
							</g>
						</g>
						<path fill="#0A338E" d="M82.871,52.951c0.321,0.533,0.853,1.28,1.706,2.026c0.959,0.853,1.919,1.28,2.56,1.6
							c-0.427,0.32-1.493,1.279-2.026,2.772c-0.321,0.853-0.321,1.706-0.214,2.238c-0.746-0.959-1.705-2.238-2.453-4.051
							c-0.532-1.173-0.853-2.239-1.066-3.2c0.214-0.212,0.428-0.533,0.747-0.746C82.336,53.271,82.551,53.058,82.871,52.951z"/>
						<path fill="#0A338E" d="M91.826,53.484c0.214,0.107,0.533,0.32,0.747,0.533c0.533,0.427,0.853,0.854,1.173,1.174
							c-0.213,0.745-0.427,1.491-0.746,2.345c-0.533,1.386-1.067,2.665-1.6,3.838c-0.319-0.854-0.64-1.706-1.066-2.666
							c-0.32-0.639-0.64-1.279-0.96-1.919c0.32-0.107,1.813-0.639,2.346-2.132C91.826,54.125,91.826,53.804,91.826,53.484z"/>
						<path fill="#0A338E" d="M89.374,56.683l-0.32,1.494c0,0.213-0.106,0.532-0.213,0.746l-0.213,0.746l0.32-0.746
							c0.106-0.214,0.213-0.426,0.32-0.746l0.533-1.494H89.374z"/>
						<path fill="#0A338E" d="M87.029,56.471c0.532,1.066,1.065,2.132,1.599,3.198l0,0c0.107,1.813,0.213,3.626,0.32,5.438
							c0.106,1.812,0.213,3.625,0.32,5.438c0.213,3.625,0.213,7.25,0.32,10.77l0.106-0.107c-1.066,0-2.026,0.107-3.092,0.107
							c1.066,0,2.133,0,3.092,0h0.106v-0.107c0-1.812,0.107-3.625,0.107-5.438c0-1.813-0.107-3.625-0.107-5.438
							c-0.106-1.813-0.213-3.626-0.32-5.438c-0.106-1.813-0.319-3.625-0.533-5.438l0,0l0,0
							C88.201,58.603,87.668,57.537,87.029,56.471z"/>
					</g>
				</g>
			</g>
			<path fill="#2A2829" d="M92.68,75.13c0,1.493-1.28,2.772-2.772,2.772c-0.854,0-1.707-0.427-2.239-1.174
				c-0.747-1.066-2.133-2.345-3.838-2.559c-2.666-0.213-4.798,1.813-5.012,4.799c-0.319,3.092,1.386,5.331,4.052,5.65
				c1.811,0.106,3.305-1.066,4.265-1.813c0.533-0.533,1.385-0.854,2.132-0.746c1.493,0.107,2.666,1.386,2.559,2.986v0.107
				l-1.705,18.766l42.224,2.879l1.386-19.939c0.105-0.747,0.427-1.493,1.066-1.919c1.173-0.959,2.879-0.853,3.946,0.426l0,0
				c0.745,1.067,2.131,2.346,3.838,2.559c2.664,0.213,4.689-1.813,5.01-4.798c0.214-3.093-1.492-5.332-4.157-5.651
				c-1.707-0.106-3.199,1.066-4.266,1.813c-0.533,0.534-1.386,0.853-2.133,0.746c-1.491-0.106-2.878-1.386-2.771-2.878l1.173-16.954
				L93.639,57.43L92.68,75.13L92.68,75.13z"/>
			<path opacity="0.4" fill="#FB7C85" enable-background="new    " d="M92.68,75.13c0,1.493-1.28,2.772-2.772,2.772
				c-0.854,0-1.707-0.427-2.239-1.174c-0.747-1.066-2.133-2.345-3.838-2.559c-2.666-0.213-4.798,1.813-5.012,4.799
				c-0.319,3.092,1.386,5.331,4.052,5.65c1.811,0.106,3.305-1.066,4.265-1.813c0.533-0.533,1.385-0.854,2.132-0.746
				c1.493,0.107,2.666,1.386,2.559,2.986v0.107l-1.705,18.766l42.224,2.879l1.386-19.939c0.105-1.493,1.493-2.666,2.986-2.56l0,0
				c0.747,0,1.491,0.426,2.026,1.066c0.745,1.067,2.131,2.346,3.838,2.559c2.664,0.213,4.689-1.813,5.01-4.798
				c0.214-3.093-1.492-5.332-4.157-5.651c-1.707-0.106-3.199,1.066-4.266,1.813c-0.533,0.534-1.386,0.853-2.133,0.746
				c-1.491-0.106-2.878-1.386-2.771-2.878l1.173-16.954L93.639,57.43L92.68,75.13L92.68,75.13z"/>
			<path fill="#FB7C85" d="M89.801,75.024c-0.106,1.492-1.386,2.664-2.879,2.664c-0.852,0-1.6-0.425-2.133-1.172
				c-0.746-1.066-2.132-2.346-3.838-2.559c-2.666-0.213-4.691,1.813-5.011,4.797c-0.213,3.092,1.386,5.332,4.158,5.651
				c1.707,0.107,3.199-1.066,4.264-1.812c1.173-1.067,2.879-0.96,3.946,0.213l0,0c0.427,0.64,0.64,1.386,0.64,2.133l-1.707,18.873
				l42.224,2.879l1.388-19.939c0.104-1.493,1.385-2.666,2.878-2.666c0.853,0,1.599,0.426,2.131,1.172
				c0.748,0.959,2.134,2.346,3.84,2.453c2.665,0.32,4.691-1.707,5.011-4.692c0.321-2.986-1.385-5.332-4.157-5.651
				c-1.706-0.106-3.199,1.066-4.266,1.813c-0.533,0.533-1.279,0.746-2.025,0.746c-1.493-0.213-2.986-1.386-2.772-2.878l1.065-17.06
				L90.76,57.217L89.801,75.024L89.801,75.024z"/>
			<path fill="#FB7C85" d="M89.801,75.024V73.85l0.213-3.518l0.747-13.115l41.796,2.773h0.106
				c-0.318,5.864-0.745,11.621-1.064,17.486c0,0.32,0,0.533,0.212,0.747c0.32,0.532,0.746,0.959,1.173,1.173
				c0.533,0.32,1.067,0.427,1.707,0.427c0.533,0,1.065-0.321,1.492-0.64c0.96-0.853,2.025-1.494,3.198-1.813
				c1.174-0.32,2.56,0,3.52,0.746c1.065,0.854,1.706,1.919,1.812,3.2c0.214,1.279,0,2.559-0.426,3.732
				c-0.534,1.279-1.492,2.239-2.772,2.666c-0.64,0.106-1.279,0.213-1.919,0.106s-1.28-0.32-1.813-0.64s-1.065-0.746-1.493-1.28
				l-0.64-0.745l-0.745-0.534c-1.174-0.639-2.667-0.32-3.413,0.747c-0.318,0.427-0.534,1.067-0.534,1.706l-0.104,2.025
				l-1.279,17.594h-0.108l-42.224-2.772l1.067-12.369l0.427-5.758v-1.387c0-0.426,0-0.853-0.32-1.173
				c-0.426-0.745-1.279-1.279-2.133-1.279c-0.639,0-1.279,0.107-1.812,0.534l-0.427,0.319c-0.64,0.533-1.386,1.066-2.132,1.386
				c-2.239,0.854-4.799-0.213-5.651-2.452c0-0.107-0.107-0.214-0.107-0.32c-0.64-2.026-0.32-4.158,0.959-5.865
				c1.387-1.919,4.052-2.24,5.971-0.852c0,0,0.108,0,0.108,0.105c0.639,0.534,1.279,1.173,1.811,1.919
				c1.067,1.067,2.878,1.067,3.945,0c0.213-0.212,0.426-0.533,0.533-0.746L89.801,75.024v0.212
				c-0.106,1.492-1.493,2.666-2.985,2.452c-0.64-0.106-1.28-0.425-1.813-0.853c-0.532-0.746-1.172-1.386-1.919-1.919
				c-1.812-1.386-4.479-1.066-5.864,0.747c-0.853,1.066-1.279,2.346-1.173,3.731c0,0.64,0,1.387,0.32,2.027
				c0.214,0.64,0.64,1.279,1.066,1.812c1.172,1.067,2.985,1.387,4.479,0.748c0.746-0.319,1.386-0.748,2.132-1.28l0.427-0.426
				l0.532-0.321l1.279-0.212c0.959,0,1.813,0.533,2.346,1.386l0.426,1.279v1.387l-0.639,5.758l-1.066,12.262l42.116,2.771
				l1.066-17.592l0.213-1.92c0-1.6,1.28-2.985,2.986-2.985c0.853,0,1.599,0.319,2.131,0.853l0.641,0.853l1.387,1.066
				c1.6,1.066,3.732,0.853,5.119-0.426c0.532-0.428,0.852-1.067,1.064-1.494c0.534-1.173,0.64-2.452,0.428-3.625
				c-0.107-1.173-0.748-2.346-1.706-3.092c-0.747-0.534-1.601-0.853-2.453-0.853l-0.96,0.106c-1.066,0.32-2.131,0.96-2.984,1.813
				c-0.535,0.32-1.067,0.64-1.706,0.64c-0.64,0-1.279-0.106-1.813-0.427c-0.532-0.213-0.959-0.639-1.278-1.172l-0.213-0.959v-0.853
				l0.213-3.412l0.852-13.115h0.106L90.76,57.217l-0.747,13.008l-0.213,3.518V75.024L89.801,75.024z"/>
			<path fill="#FCA170" d="M86.602,96.135c0,0,1.387-1.387,2.239-1.493c0.853,0,2.026,0.212,2.239,0.212
				c0.212-0.106,0.853-0.64,1.066-0.212c0.213,0.427,0.746,1.919-1.066,2.346h-1.28c0,0,0.213,1.28,0.427,1.706l4.479,5.757
				c0,0,0.532,0.533,0.212,1.067c-0.32,0.533-1.386,0.212-1.386,0.212s-0.854,0.748-1.707,0.321
				c-0.426-0.107-0.853-0.321-1.279-0.64c-0.319,0.213-0.639,0.319-0.959,0.319c0,0-0.427,0-0.96-0.319
				c-0.747-0.427-2.453-2.559-4.585-5.544c-0.64-0.426-1.28-0.854-1.812-1.173c0.64-1.173,1.279-2.345,1.919-3.625
				C85.002,95.495,85.75,95.814,86.602,96.135z"/>
			<g>
				<path fill="#3770ED" d="M86.922,94.749c-1.706-1.493-3.412-3.092-5.011-4.584c-0.64,0.746-1.387,1.386-2.133,2.132
					c-1.279,1.173-2.666,2.132-3.838,2.878c2.452,1.919,4.904,3.946,7.463,5.865c0.534-0.213,1.707-0.854,2.667-2.239
					C87.136,96.988,87.029,95.175,86.922,94.749z"/>
			</g>
		</g>
		<path fill="#FCA170" d="M130.744,65c0,0,0.321-1.6,3.626-1.065c2.132,0.319,1.066,1.706,1.066,1.706
			c0.533,0.426,0.639,1.279,0.107,1.813c-0.107,0.106-0.32,0.212-0.427,0.32h0.212c0,0,1.706,0.959,0.32,2.452
			c0.212,0.534,0.212,1.172-0.213,1.599c-0.746,0.747-2.56-0.213-2.56-0.213s-2.559,0-2.665-0.64
			c-0.107-0.426,0.106-0.853,0.532-1.066l1.706-0.213c0,0-2.132,0-2.346-0.426c-0.426-0.853-0.319-1.6,2.346-1.493
			c0,0-1.919,0-2.132-0.427c-0.32-0.426,0-1.066,0.747-1.492l1.279-0.213C132.345,65.64,130.531,65.96,130.744,65z"/>
		<path fill="#A5A5A5" d="M87.668,109.569"/>
	</g>
</g>
</svg>
