<?xml version="1.0" encoding="utf-8"?>
<!-- Generator: Adobe Illustrator 26.0.1, SVG Export Plug-In . SVG Version: 6.00 Build 0)  -->
<svg version="1.1" id="Layer_1" xmlns="http://www.w3.org/2000/svg" xmlns:xlink="http://www.w3.org/1999/xlink" x="0px" y="0px"
	 viewBox="0 0 258 208" style="enable-background:new 0 0 258 208;" xml:space="preserve">
<style type="text/css">
	.st0{fill-rule:evenodd;clip-rule:evenodd;fill:#FEDEA6;}
	.st1{fill:#F5C371;}
	.st2{fill:#F9CF88;}
	.st3{fill:#FEDEA6;}
	.st4{fill:none;stroke:#FFFFFF;stroke-width:1.6;stroke-miterlimit:10;}
	.st5{fill:none;stroke:#FEDEA6;stroke-width:1.6;stroke-miterlimit:10;}
	.st6{clip-path:url(#SVGID_00000044873947891419709710000007047658025145266323_);}
	.st7{fill:#DE9F7E;}
	.st8{fill:#D38A6A;}
	.st9{fill:#D34047;}
	.st10{fill:#B7303D;}
	.st11{fill:#FCB856;}
	.st12{fill:#DD4756;}
	.st13{fill:#CE8065;}
	.st14{fill:#FFFFFF;}
	.st15{fill:#6B3628;}
	.st16{fill:#2554D8;}
	.st17{fill:#3770ED;}
	.st18{fill:#E09A61;}
	.st19{fill:#C47947;}
	.st20{fill:#0A338E;}
	.st21{fill:#17140C;}
	.st22{fill:#513328;}
	.st23{fill:#3B2314;}
</style>
<path class="st0" d="M196.4,136.8c-11,1.8-19.2-2-22.2-7.5c-2.4-4.3,3.6-14.8,8.6-17.2c15-7.3,54-10.4,62-5
	C244.2,115.2,213.8,133.8,196.4,136.8z"/>
<path class="st1" d="M224.9,104c-14.5,0.1-28.8,2.7-42.4,7.8c-5.2,2.6-11.2,13.2-8.7,17.6c1.6,3,4.5,5.3,8.3,6.7
	c4.6,1.6,9.6,1.9,14.4,1c10.9-2.5,21.3-6.9,30.7-13c8.5-5.2,17.7-12.4,18-17V107l-0.2-0.1C241.9,104.7,234.1,103.9,224.9,104
	L224.9,104z M191.5,137c-8.6,0.2-14.5-3.5-16.9-7.8c-2.2-4,3.5-14.3,8.4-16.7c7-3.4,19.7-6.1,33.5-7.2c13.4-1.1,24-0.3,27.8,2
	c-0.4,3.8-7.2,10-17.7,16.4c-9.3,6-19.5,10.3-30.3,12.8C194.7,136.8,193.1,137,191.5,137z"/>
<path class="st1" d="M174.5,129.7l-0.3-0.7l70.5-22.1l0.3,0.6L174.5,129.7z"/>
<path class="st1" d="M222.5,104.4l-5,11.1l1,0.2l4.9-11l-1-0.3L222.5,104.4z M214.6,117l-0.9-0.2l4.2-12.1l0.8,0.2l-4,12L214.6,117z
	 M218.5,129l-20-7l0.4-0.6l20,7l-0.4,0.5V129z M187,125.6l-0.9-0.1l4-16.2l0.9,0.1L187,125.6z M207.6,133.8l-18-9l0.5-0.6l18,9
	L207.6,133.8L207.6,133.8z M225.3,113l-0.2,0.7c2,0.4,7.6,1.2,13.8,2l0.1-0.6L225.3,113L225.3,113z"/>
<path class="st0" d="M194.6,146.8c-9.5-4.3-11.8-11.3-8.9-17c2.3-4.3,16.2-8.9,22-8c17.5,2.4,48.2,20.3,48.8,28.4
	C248.7,155.9,209.8,153.7,194.6,146.8z"/>
<path class="st1" d="M205.8,121.3c-6.7,0.2-18.4,4.4-20.5,8.5c-1.6,2.8-1.6,6.2-0.2,9.1c2,3.7,5.3,6.7,9.3,8.2
	c7.1,3.2,20.1,5.7,34,6.4c10.8,0.6,24,0.1,28.5-3l0.1-0.2v-0.1c-0.7-8.3-31.5-26.3-49.2-28.8L205.8,121.3L205.8,121.3z M238.8,153.1
	c-3.2,0-6.7,0-10.4-0.2c-11.4-0.3-22.8-2.5-33.5-6.4c-9.7-4.4-11.4-11.4-8.8-16.5c2.2-4.2,15.8-8.7,21.5-8c8,1.2,19.7,5.8,30.6,12.1
	c10.6,6.2,17.4,12.3,17.9,16C253.4,151.8,247.1,152.9,238.8,153.1L238.8,153.1z"/>
<path class="st1" d="M256.4,150.6l-70.8-20.3l0.3-0.6l70.8,20.3L256.4,150.6L256.4,150.6z"/>
<path class="st1" d="M243.2,136.7l-13.8,5.6l0.4,0.6l13.8-5.6L243.2,136.7z M226,141.8l-0.5-0.6l14-6.7l0.6,0.6L226,141.8z
	 M217.6,152.6l-7.8-15.4l0.8-0.3l7.9,15.4L217.6,152.6z M198.3,133.8l-0.6-0.5l17.8-9.8l0.5,0.5L198.3,133.8z M205.4,150.5l-4.6-16
	l1-0.1l4.5,16h-1L205.4,150.5z M237.2,144.4l-0.8,0.4c2.6,2.9,5.3,5.8,8,8.6l0.8-0.4C241.5,149.2,238.4,145.8,237.2,144.4z"/>
<path class="st0" d="M50.4,66c7.2,5.3,9,14.6,6.8,22.1c-1.8,6-12.2,12.8-16.6,12C27.4,97.8,4.4,75.6,3.9,64.9
	C9.7,56.9,39,57.8,50.4,66L50.4,66z"/>
<path class="st1" d="M58.2,84.4c0.4-2.8,0.2-5.6-0.6-8.3c-1.1-4.2-3.5-7.8-7-10.4c-7.7-4.6-16.5-6.9-25.5-6.8
	c-8.2-0.2-18.2,1.2-21.5,5.7l-0.1,0.1v0.2c0.5,11,23.7,33.3,37,35.6c4.6,0.9,15.2-6.1,17-12.2C57.8,87,58.1,85.7,58.2,84.4z M4.2,65
	C7,61.6,15,59.6,25,59.8c10.3,0.3,20,2.9,25.2,6.7c6.1,4.4,8,11.7,7.3,18c-0.1,1.2-0.3,2.3-0.7,3.5c-1.6,5.7-11.8,12.4-16.1,11.6
	c-8.8-2.7-16.7-7.6-23-14.3C9.7,77.6,4.6,69.9,4.2,65z"/>
<path class="st2" d="M3.7,65.2L4,64.3l53.3,23.2L57,88.4L3.7,65.2z"/>
<path class="st2" d="M24.3,74L24,73.2l-10.4,8.1l0.3,0.8L24.3,74z M16.2,84.1l10.6-9.6l0.4,0.7l-10.6,9.6L16.2,84.1z M32.5,60
	l0.6-0.3l6,20l-0.7,0.4l-6-20L32.5,60z M34.3,97.5l13.4-14l0.4,0.8l-13.4,14C34.7,98.3,34.3,97.5,34.3,97.5z M41.7,62l0.6-0.2
	l3.5,21L45.1,83L41.7,62z M19,71l-6-11l-0.6,0.5c2.8,4.9,5.1,9.3,6,11L19,71L19,71z"/>
<path class="st0" d="M43,66.3l-3.2-5.8C30.2,41.5,22.6,12.8,26.1,3C36.3-1.2,67.6,24.2,76,43.5c4.8,10.2,3.5,22.3-3.4,31.2
	c-0.9,1.1-2,2.1-3.2,3c-5.9,4.1-13.5,4-20.3-3.2c-2-2-4-4.9-6-8.2H43z"/>
<path class="st1" d="M78.8,60.3c0.7-5.7-0.2-11.6-2.6-17C70.4,31.9,62.1,21.9,51.9,14C43.2,7,31.8,0.2,26,2.6v0.2
	c-1.8,4.7-1.1,13.9,1.8,25.7c3.4,13.3,8.4,26.1,15,38.1c1.7,3,3.7,5.8,6,8.3c6.4,6.7,14.1,7.9,20.7,3.2c1.2-0.9,2.3-2,3.3-3.1
	C76.3,70.8,78.4,65.7,78.8,60.3L78.8,60.3z M26.4,3.3C31,1.7,40.7,6,51.5,14.9c10.1,7.7,18.3,17.6,24,28.9c4.7,10,3.5,21.8-3.2,30.6
	c-0.9,1.2-2,2.2-3.2,3c-6.3,4.5-13.8,3.4-20-3.1c-1.8-2-3.8-4.8-5.8-8.2L40,60.2C31,42,23,13.4,26.4,3.4V3.3z"/>
<path class="st1" d="M25.9,3.3l0.5-0.6l46.4,71.7L72.3,75L25.9,3.3z"/>
<path class="st1" d="M46.8,10.5l-0.6-0.1l-2.7,19.8l0.6,0.1L46.8,10.5z M46,34.1l4-20.9l0.6,0.2l-4,20.9L46,34.1z M35.2,49.7
	l21.3-0.3v1l-21.4,0.2v-1L35.2,49.7z M64.1,62.1L70.8,35l0.7,0.2l-6.7,27.1C64.8,62.3,64.1,62.1,64.1,62.1z M41.3,63l21-4.5v0.9
	l-21,4.4V63z M39.2,22.6c-2-0.6-7.2-2.2-13-4.2L26,19.3c5.8,2,11,3.6,13,4.2l0.2-1V22.6z"/>
<g>
	<path class="st1" d="M221.2,125.7c0,23.8-4.5,33-7.7,49l-0.1,1v0.1l-0.2,1v0.3l-0.1,0.1c-0.3,1.7-0.7,3.4-1.2,5v0.2l-0.4,1
		l-0.1,0.4c-0.2,0.5-0.4,1.1-0.6,1.6l-0.2,0.7c-64,29.1-137.4,29.1-201.4,0c-0.4-0.8-0.8-1.5-1.2-2.3c-2.6-5.2-4.6-10.6-6-16.2
		l-0.2-1c-0.1-0.6-0.3-1.2-0.4-1.8l-0.3-1.2v-0.7l-0.2-0.8l-0.1-0.7c-0.2-0.8-0.3-1.7-0.4-2.5v-1L0.1,156c-0.2-2.7-0.3-5.5-0.1-8.2
		c9.2-7,11.5,1.8,20-4.6c6.2-5.4,16.9-8.5,16.9-8.5c-6.7-5.3-20.7-12.3-33,1.6c10.6-21.2,13.4-6.8,25-14.2c3.6-4,5.5-4.5,12-3.4
		c13.8,3,8-16.2,20-14.4c0,0-2.4-2.9-9-2.9s-7.7,6.4-15,4.6c-5.9-1.1-12-1-17.8,0.5c-1.8,0.4-3.7,0.9-5.5,1.5
		C21,91.5,41.5,89.3,47.2,75.2c4.3-10.8,8.6-23,15-33.7c9.2-17.3,26.9-28.4,46.5-29.1c39.8-3.4,50.7,18.4,65,30.5l1.5,1.2
		c-1,2.2-1.7,4.8-1.7,7.6c0,8,5.1,14.4,11.5,14.4c3.7,0,7-2.3,9.2-5.8c3.7,4.1,7.1,8.5,10.2,13c1.4,2.3,2.8,4.6,4,7
		c-6.3,1.7-9,9-12.2,12.4c-2.6,2.3-5.9,3.9-9.3,4.5c0,0,4,6.4,12.7,7.2c3.7,0.2,7.4-0.9,10.5-3c-2.3,4.3-1.7,7.2-4.8,11
		c-3.8,4.4-9.3,6-14,13.7c-4.9,7.7-4,15.8-4,15.8c5-5.1,11-9.1,17.5-12c3.2-1.4,6.6-2.2,10-2.5c1.9-0.3,4-1,6.2-2.2v0.5L221.2,125.7
		z"/>
</g>
<g>
	<path class="st3" d="M194.3,60.3c-2.1,3.5-5.5,5.8-9.2,5.8c-6.4,0-11.5-6.5-11.5-14.4c0-2.8,0.7-5.4,1.7-7.6
		C175.3,44.1,193.3,59.2,194.3,60.3z"/>
</g>
<g>
	<path class="st3" d="M91.1,128.5c0,10.8-7,19.5-15.4,19.5c-8.6,0-15.5-8.7-15.5-19.5c0-10.7,7-19.5,15.5-19.5S91,117.8,91.1,128.5
		L91.1,128.5z"/>
</g>
<g>
	<path class="st3" d="M83.8,50.4c0,0.6-0.4,1-0.9,1c-0.4,0-0.8-0.4-0.8-1s0.4-1,0.8-1C83.4,49.4,83.8,49.8,83.8,50.4z"/>
</g>
<g>
	<path class="st4" d="M54,141.6c1,0,1.8-1,1.8-2.3c0-1.2-0.7-2.2-1.7-2.2s-1.8,1-1.8,2.2C52.3,140.6,53.1,141.6,54,141.6L54,141.6z"
		/>
</g>
<g>
	<path class="st5" d="M153.1,47.4c1,0,1.8-1,1.8-2.2s-0.8-2.2-1.8-2.2s-1.7,1-1.7,2.2S152.1,47.4,153.1,47.4z"/>
</g>
<g>
	<path class="st5" d="M71.1,47.2c3.1,0,5.6-3.2,5.6-7c0-4-2.5-7.1-5.6-7.1c-3,0-5.5,3.1-5.5,7C65.6,44.1,68.1,47.1,71.1,47.2
		L71.1,47.2z"/>
</g>
<g>
	<path class="st5" d="M21.3,178.2c6.4,0,11.5-6.5,11.5-14.4c0-8-5.1-14.5-11.5-14.5c-6.3,0-11.4,6.5-11.4,14.5S15,178.2,21.3,178.2z
		"/>
</g>
<g>
	<g>
		<g>
			<g>
				<defs>
					<path id="SVGID_1_" d="M-15.8,159c9.6,33,79.6,49.7,125.9,49c40.3-2.1,98-7.2,117.2-39.5C254.7,127,228,65.6,195.1,32.2
						c-27.4-27.8-77.6-53.6-111-36.7c-16,8-33.1,28.3-43,46.7c-5.7,10.7-6,15.2-13.4,25.5C15.3,84.9,7.2,84-3.7,100
						c-9.7,14.2-12.4,28.2-13.4,34.8C-18.5,145.6-17.7,152.6-15.8,159z"/>
				</defs>
				<clipPath id="SVGID_00000052102966932423832230000004913412290870245820_">
					<use xlink:href="#SVGID_1_"  style="overflow:visible;"/>
				</clipPath>
				<g style="clip-path:url(#SVGID_00000052102966932423832230000004913412290870245820_);">
					<g>
						<g>
							<g>
								<path class="st7" d="M94.1,211.2c0.2,0.4,0.5,0.9,0.7,1.3c0.6,1.2,1.2,2.4,1.6,3.7c0.8,2.5,1.4,5.1,1.6,7.7
									c0,0.7-2.3,4.8-2.9,5.3c-0.6,0.6-2.4,1.4-3.1,1c-0.1,0.2-1.7,0.9-1.3-1c-0.4-0.2-1.4-0.6,1.4-3.4l-0.1,0
									c-0.3-0.7-0.3-1.7-0.4-2.2c-0.2-1.2-0.4-2.6-1.1-3.7c-1.1-1.7-1.6-4-1.6-7.1c-0.1-0.9,2.7-3.9,3.5-3.7
									c0.1,0.2,0.3,0.3,0.5,0.5C93.4,210,93.8,210.6,94.1,211.2z"/>
								<path class="st8" d="M92,225.9c0.1,0.4,0.3,0.6,0.7,0.8c0.2,0.1,0.4,0.1,0.6,0c0.2-0.1,0.5-0.2,0.6-0.4
									c0.2-0.3,0.3-0.6,0.4-0.9c0.4-1.8,0.1-3.7-0.1-5.5c0,0,0-0.1-0.1-0.1c0,0-0.1,0-0.1,0.1c0.2,1.7,0.5,3.7,0.1,5.4
									c-0.1,0.3-0.2,0.6-0.4,0.9c-0.1,0.2-0.3,0.3-0.5,0.4c-0.2,0.1-0.3,0.1-0.5,0c-0.3-0.1-0.4-0.4-0.6-0.7c0,0-0.1-0.1-0.1,0
									C92,225.8,92,225.8,92,225.9L92,225.9z"/>
							</g>
							<g>
								<path class="st7" d="M70.6,131.3c7.6,16.5,9.5,28.4,9.5,28.4c0.6,3.6,1.2,8.8,1.6,15.1c1.9,5.4,3.7,10.9,5.6,16.4
									c2.1,6.4,4.1,12.8,6.1,19c-1.5,1.1-3,2.1-4.4,3.2c-2-3.3-5.1-8.2-8.7-14.2c-6.9-11.3-10.3-17-11-18.5c-7-15.5-3.7-19-8-33.7
									c-1.1-3.9-2.3-8.6-2.3-12.7c0-2.5,0.9-4.6,2.3-6.7c0.6-0.8,1.2-1.4,1.9-1.6c1.1-0.4,2.1-0.1,2.5,0.1
									C68.7,127.1,70.4,130.7,70.6,131.3z"/>
								<path class="st9" d="M82.2,173.5c-4.7-0.3-9.3-0.6-14-0.9c-1-11.5-1.9-23.1-2.9-34.6c0.1-0.9,1.1-6.5,6.2-9.7
									c2.5-1.6,5-1.9,6.4-1.9c2.2,6.2,4.5,14.7,5.2,25C83.8,160.1,83.2,167.6,82.2,173.5z"/>
								<path class="st10" d="M83.9,167c-3.1,0-6.3-0.1-9.6-0.3c-5.2-0.3-10.1-0.7-14.7-1.3c0.4,2.2,0.7,4.5,1.1,6.7
									c3.5,0.9,7.9,1.7,12.8,1.9c3.6,0.2,6.8,0.1,9.6-0.1C83.3,171.6,83.6,169.3,83.9,167z"/>
							</g>
							<path class="st7" d="M68.6,130.1c-0.1,9.1-9.1,16-17.8,15.9c-9-0.1-17.8-7.7-17.4-16.4c0.4-8.1,8.7-12.8,9.3-13.1
								c1.5-0.9,6.3-3.4,12.1-2.2C61.9,115.7,68.6,122.2,68.6,130.1z"/>
							<path class="st9" d="M23.5,229.3c0.2-9.2,0.4-18.5,0.6-27.7c0.6-28,0.9-39.6-0.5-55.9c-0.4-4.6-0.8-8.3-1.1-10.7
								c-0.1-1.1-0.1-3.4,0.9-5.9c1.3-3.1,3.6-4.8,4.6-5.4c4.8-2.5,9.6-5.1,14.4-7.6c0.5-0.2,0.9-0.5,1.4-0.7c0.7-0.4,1.4-0.8,2-1.2
								c0.1,0.5,0.2,1.3,0.5,2.1c0,0,0.8,2.5,2.5,4.7c3,3.8,8.2,5.3,9,5.5c0.7,1.9,1.3,4.1,1.9,6.5c0.3,1.3,0.5,2.6,0.7,3.9
								c0.2-3.3,0.5-6.5,0.7-9.8c0.6-0.6,1.3-1.4,1.8-2.6c1.4-3.3-0.3-6.4-0.6-7c3.1,2,6,3.3,7.9,4.1c2.7,1.3,5.3,2.2,6.7,3.5
								c0.7,0.6,1.1,1.2,1.2,2c0.1,0.4,0,0.7,0,0.9c-0.8,10.4-1.3,21.6-1.3,33.4c0,10.1,0.3,19.8,0.8,28.9c0.7,13.3,1.4,26.6,2.1,40
								C60.9,229.8,42.2,229.6,23.5,229.3z"/>
							<g>
								<path class="st10" d="M61.1,127c-0.1,9.5-0.4,18.9,0,28.4c0,0-0.3-0.2-0.3-0.2c1.4,0,2.8-0.1,4.3-0.1
									c-1.4,0.2-2.8,0.4-4.2,0.6l-0.2,0l0-0.3C59.5,146,59.8,136.4,61.1,127L61.1,127z"/>
							</g>
							<path class="st10" d="M63.3,150.5c0.1,0.2,0.1,0.5,0,0.8c-0.2,0.4-0.5,0.5-0.9,0.4c-0.2-0.1-0.5-0.3-0.5-0.7
								c0-0.4,0.2-0.7,0.5-0.8C62.8,150.1,63.1,150.2,63.3,150.5z"/>
							<path class="st10" d="M63.3,143.2c0.1,0.2,0.1,0.5,0,0.8c-0.2,0.4-0.5,0.5-0.9,0.4c-0.2-0.1-0.5-0.3-0.5-0.7
								c0-0.4,0.2-0.7,0.5-0.8C62.8,142.7,63.1,142.8,63.3,143.2z"/>
							<path class="st10" d="M63.2,135.6c0.1,0.2,0.1,0.5,0,0.8c-0.2,0.4-0.5,0.5-0.9,0.4c-0.2-0.1-0.5-0.3-0.5-0.7
								c0-0.4,0.2-0.7,0.5-0.8C62.7,135.2,63,135.3,63.2,135.6z"/>
							<path class="st11" d="M72.1,123.4c-0.4-2.7-2.3-2.9-3-2.6c-0.7-1.3-1.7-1.8-2.8-1.3c-0.2-0.9-2.1-1.5-2.5-1.1
								c0.3,4.5,1.1,47.5-2.8,63.5c-0.2,1.5,8.6,5.6,11.6,2.8C72.9,182.6,74.8,135.6,72.1,123.4z"/>
							<path class="st7" d="M36.2,168.7c5.9-4,11.7-8,17.6-12c0.7,1.1,1.5,2.3,2.2,3.4c7.8-6.3,15.6-12.6,23.4-18.9
								c0.6,0.8,1.4,1.8,2.5,2.8c1,0.9,1.9,1.5,2.7,2c-5,5.9-8.9,10.9-11.6,14.3c-4.6,6-7.6,10.1-13.1,15
								c-8.4,7.7-11.9,7.4-13.5,6.8c-0.8-0.3-1.4-0.8-2.4-1.9C41.9,177.9,38.9,174.2,36.2,168.7z"/>
							<path class="st12" d="M37.6,172.4c2.5-1.7,5.1-3.4,7.6-5.1c3.7-2.5,7.4-5,11.1-7.5c-3.4-7.3-5.8-13.3-7.4-17.4
								c-2.1-5.4-3.9-10.4-8.5-15.7c-3.9-4.5-6.2-5-7.7-5c-3.4,0.1-6.2,3.2-7,4c0,0-1.5,1.6-2.4,3.6c-2.6,5.6,0.9,15.4,8.2,30.9
								C33.1,163.3,35.1,167.5,37.6,172.4z"/>
							<path class="st10" d="M33.5,165.8c2.7-1.5,5.5-3.2,8.3-5.2c4.4-3,8.3-6,11.7-8.9c1.2,2.5,2.3,5,3.5,7.4
								c-2.3,2.5-5.5,5.6-9.7,8.5c-3.5,2.4-6.9,4.1-9.7,5.3C36.2,170.5,34.9,168.1,33.5,165.8z"/>
							<path class="st10" d="M61.1,127c0.6-0.6,1.6-2,2.1-4c0.6-2.8-0.5-4.9-0.8-5.7c0.4,0.3,1,0.5,1.4,0.7c0.5,0.2,0.7,2,0.9,2.6
								c0.4,1.8,0.1,2.4-0.1,7.2c-0.1,1.4-0.1,2.5-0.4,2.6c-0.2,0-0.3-0.7-1.2-1.6c-0.3-0.3-0.5-0.5-0.7-0.7c-0.4-0.3-0.8-0.4-1-0.8
								C61.2,127.2,61.1,127.1,61.1,127z"/>
							<g>
								<path class="st7" d="M63,120.7c-5,4.4-18.6-4.9-18.1-5.2c3.2-2.3,2.7-7.8,1.9-12.6c-0.3-1.9-0.7-3.6-1-5
									c3.2-1.2,11.7-1.3,15.4,4.8c1.4,2.3,2.1,5.4,1.6,9.7c-0.3,0.8-0.5,1.5-0.6,2.2c0,0,0,0,0,0C61.9,117.5,63.3,120,63,120.7z"
									/>
								<path class="st8" d="M62.8,112.3c-0.3,0.8-0.5,1.5-0.6,2.2c0,0,0,0,0,0c-0.6-0.1-1.3-0.3-2.2-0.6c-0.7-0.2-1.8-0.5-3-1.1
									c-1.6-0.8-3-1.4-4.1-2.9c-0.5-0.7-0.7-1.2-1.1-2.2c-0.5-1.1-1-2.8-1.3-5.1c3.2-2.4,7.2-2.7,9.9-0.8c0.3,0.2,0.6,0.4,0.8,0.7
									C62.6,104.8,63.3,108,62.8,112.3z"/>
								<path class="st7" d="M70.1,93.8c0,0.1,0,0.1,0,0.2c0,0.3-0.1,0.7-0.3,1c0,0-0.1,0.2-0.4,1.2c-0.2,0.5-0.2,3-0.1,6.4
									c0,0.6,0,1.4-0.2,2.6c-0.2,1.3-0.5,3.6-2,5.8c-0.3,0.5-0.9,1.2-1.7,2c-0.3,0.3-0.7,0.5-1.1,0.5c-0.4,0-0.8,0-1.3-0.1
									c-0.1,0-0.2,0-0.5-0.1c-1.3-0.2-2.8-0.5-4.4-1c-1-0.3-2.2-0.6-3-1c-1.9-0.8-3.3-2.4-3.8-4.4c-0.4-1.2-0.5-2.4-0.9-3.6
									c-0.2-0.7-0.3-1.5-0.5-2.3c0-0.1-0.1-0.1-0.1-0.1c-0.2-0.1-0.2,0-0.5,0c-2.3-0.2-4-3.1-4.4-3.9c-1.9-3.3-2.9-10.3,1.5-14.6
									c2.8-2.8,6.4-2.9,8.3-3.1c2.8-0.3,14.9,0.8,14.9,11c0,0.8,0.1,1.6,0.2,2.4c0,0.1,0,0.2,0.1,0.3c0,0.1,0,0.1,0,0.2
									C70.1,93.3,70.1,93.6,70.1,93.8z"/>
								<path d="M49,96c0.8,0.6,0.5,1.5,0.5,1.7c0.2,0.2,1.1,0.4,1.3,0.6c0-0.7,0-1.5-0.1-2.2c0-0.9,0.3-1.5,0.5-1.9
									c0.3-0.5,0.6-0.6,1.3-1.4c0,0,0.6-0.6,1-1.3c1.3-1.9,1.8-3.9,1.9-4.6c0.1-0.4,0.1-0.8,0.2-1c0.5,0,1.3-0.1,2.2,0
									c1.4,0,2.4,0.2,2.8,0.3c3.8,0.5,6.1-1.2,7.7,0c0.6,0.4,1.3,1.4,1.3,3.9c1.2-3.7,0.5-6,0.1-7c-2.6-6.3-13.4-8.7-19.8-4.8
									c-1.8,1.1-2.9,2.5-3.6,3.4c-1.8,0.5-2.8,1.4-3.3,2c-2.5,2.7-2,7.1-1.6,10.9c0.1,0.6,0.2,1.2,0.2,1.2c0.2,1.2,0.6,2,0.7,2.2
									c0.8,2,2.3,7.9,3.2,9.9c0.1,0.2,0.3,0.7,0.8,0.9c0.3,0.2,0.7,0.1,0.9,0.1c0.1-3.1-0.2-5.3-0.5-6.7c0,0,0,0,0-0.1
									c-0.1-0.4-0.4-1.9-0.6-3.2c-0.2-1.7-0.4-2.5-0.1-2.9C46.7,95.3,48.1,95.4,49,96z"/>
								<path id="XMLID_00000037674744132090196540000013686549035238107049_" class="st11" d="M40.3,90.6c16.4-9.4,25.9-9,29.1-8.9
									c0.6,0.1,1.4,1,1.4,2.7c0.8,0.9,1.2,2.4,0.4,3c0,0,0,0,0,0.1c0.1,0.4-0.2,0.8-0.7,0.9C67,88.9,58.4,86.8,43,96.7
									c-0.3,0.3-0.9,0.3-1.2,0c-0.3-0.3-0.6-0.8-0.6-1.7c-1-0.5-1.1-2.1-0.9-2.6C40.1,91.5,40,90.8,40.3,90.6z"/>
								<path class="st7" d="M49.5,96.2c-0.4-2.7-1.6-3.2-1.6-3.2c-1-0.3-2.2,0.1-2.8,1c-0.5,0.7-0.4,1.5-0.3,2
									c0.1,1,0.6,1.7,1.2,2.7c0.5,0.7,0.7,1.1,1.1,1.4c0.9,0.6,1.8,0.7,2.3,0.7c0.1,0,0.2-0.1,0.3-0.2c0.5-0.5,0.2-1.4,0-3.8
									C49.6,96.8,49.6,96.6,49.5,96.2z"/>
							</g>
							<path class="st13" d="M62,107.1c-0.1,0.3,1.9,1.6,3.6,1.1c0.7-0.2,1.4-0.8,1.3-1c-0.1-0.2-0.6-0.1-1.4,0
								C63.1,107.4,62,106.9,62,107.1z"/>
							<g>
								<path class="st14" d="M65.9,97c0.7-1.4,2-1.9,2.7-1.5c0.4,0.3,0.6,1,0.5,1.7C68.4,98.6,66.9,98.2,65.9,97z"/>
								
									<ellipse transform="matrix(0.1562 -0.9877 0.9877 0.1562 -38.2549 148.8142)" class="st15" cx="68" cy="96.8" rx="1.3" ry="1"/>
								<ellipse transform="matrix(0.1562 -0.9877 0.9877 0.1562 -38.1801 148.9559)" cx="68.1" cy="96.8" rx="0.7" ry="0.5"/>
								
									<ellipse transform="matrix(0.3213 -0.947 0.947 0.3213 -45.3196 129.5832)" class="st14" cx="67.7" cy="96.4" rx="0.2" ry="0.2"/>
								<path d="M69.1,97.3c0.1-0.6-0.2-1.2-0.6-1.5c-0.7-0.4-1.6,0.2-1.8,0.4c-0.4,0.3-0.7,0.7-0.8,0.9c0.1-0.3,0.3-0.8,0.8-1.2
									c0.1-0.1,1.2-1,2-0.4C69.1,95.8,69.3,96.5,69.1,97.3z"/>
							</g>
							<path class="st13" d="M66.6,103.9c0.1,0.1-0.4,0.7-1.1,0.9c-1.1,0.3-2.2-0.8-2.2-0.9c0-0.1,0.8,0.5,1.9,0.4
								C66.1,104.1,66.5,103.8,66.6,103.9z"/>
							<g>
								<path d="M56.6,94.1c0.3-0.4,0.8-0.9,1.5-1.3c0,0,0,0,0,0c0.4-0.2,0.8-0.4,1.3-0.3c1.1,0,2.2,0.1,3.2,0.1
									c0.1,0.1,0.2,0.3,0.3,0.5c0.1,0.2,0.1,0.4,0,0.5c-1.3-0.1-2.5-0.1-3.8-0.2c-0.3,0-0.6,0-0.8,0.1
									C57.7,93.7,57.1,93.9,56.6,94.1z"/>
							</g>
							<g>
								<path d="M70.1,93.8c-0.1,0-0.3,0-0.4,0l-3.6,0.1c0-0.1,0-0.3,0.1-0.5c0.1-0.2,0.2-0.4,0.3-0.5c1,0,2.1-0.1,3.1-0.1
									c0.2,0,0.4,0,0.5,0.1c0,0.1,0,0.1,0,0.2C70.1,93.3,70.1,93.6,70.1,93.8z"/>
							</g>
							<g>
								<path class="st14" d="M62.4,97.1c-0.1,0.1-0.3,0.3-0.6,0.4c-0.6,0.3-1.2,0.3-1.5,0.2c-1.2-0.1-2-0.8-2.3-1.1
									c0.2-0.3,0.8-1.2,1.9-1.5c0.3-0.1,0.9-0.2,1.5,0C62.4,95.7,62.4,97,62.4,97.1z"/>
								<g>
									<path class="st15" d="M61.6,96.6c-0.1,0.7-0.6,1.2-1.2,1.1s-0.9-0.7-0.9-1.4c0.1-0.7,0.6-1.2,1.2-1.1S61.7,95.9,61.6,96.6z
										"/>
									<path d="M61.4,96.6c0,0.3-0.3,0.6-0.6,0.5c-0.3,0-0.5-0.3-0.4-0.7c0-0.3,0.3-0.6,0.6-0.5C61.2,95.9,61.4,96.2,61.4,96.6z"
										/>
									<path class="st14" d="M60.7,96.1c0,0.1-0.1,0.2-0.2,0.2c-0.1,0-0.2-0.1-0.1-0.2s0.1-0.2,0.2-0.2S60.7,96,60.7,96.1z"/>
									<path d="M62.4,97.1c-0.1,0-0.2-1.2-1-1.6c-0.9-0.5-2.3,0.4-3.4,1.2c0.8-1.7,2.5-2.3,3.4-1.8C62.4,95.4,62.5,97,62.4,97.1z"
										/>
								</g>
							</g>
							<g>
								<path d="M48.8,102.2c-0.3,0-0.5-0.7-0.5-1.3l0.2,0.1c0,0.7,0.2,1.1,0.3,1.1c0.1,0,0.3-0.4,0.3-1.1c0-0.7-0.2-1.1-0.3-1.1
									c-0.1-0.1-0.1-0.1,0-0.2c0.3,0,0.5,0.7,0.5,1.3C49.4,101.5,49.2,102.2,48.8,102.2z"/>
							</g>
							<path class="st10" d="M45.4,114.1c0.3-0.2,0.7,0,0.7,0.3c0.6,2.2,2.3,7.2,7.1,10.2c1.6,1,3.2,1.6,4.6,1.9
								c-0.7,1.9-1.1,3.5-1.3,4.7c-0.2,0.8-0.3,1.3-0.7,1.5c-0.8,0.4-2.3-1.2-3.6-2.7c-1.6-1.8-3.7-4.2-6.2-7
								c-0.7-1-1.4-2.1-2.1-3.3c-0.7-1.2-1.3-2.4-1.8-3.5c0.7-0.4,1.4-0.9,2-1.3C44.6,114.6,45,114.3,45.4,114.1z"/>
							<g>
								<path d="M58.2,124.4c-2.8,0.1-5.1-1.9-6.9-3.7c-1.4-1.3-3.4-3.5-5.2-6.6c0-0.1,0.1-0.2,0.1-0.3c0.1-0.1,0.2-0.3,0.2-0.4
									c2.1,3.9,4.7,6.3,6.3,7.6c2.2,1.8,4.6,3.2,6.7,2.4c1.8-0.7,2.9-3.2,2.9-6.1c0.1,0.1,0.1,0.2,0.2,0.4
									c0.1,0.2,0.1,0.3,0.2,0.4c0,0.5-0.3,4.7-3.1,5.9C59.1,124.3,58.6,124.4,58.2,124.4z"/>
							</g>
						</g>
						<g>
							<g>
								<path class="st7" d="M75.2,144.5c1.2-0.8,3-2,4.6-3.9c2.3-2.7,2.4-4.3,4.6-7.2c2-2.7,4.2-4.1,5.9-5.2
									c1.9-1.2,5.1-3.2,9.5-3.7c0.4,0,0.8-0.1,1.1-0.1c0.7,0,1.1,0.8,0.6,1.3c-0.4,0.4-0.8,0.7-1.4,1c-1.4,0.8-2.1,0.5-3.9,1.4
									c-0.6,0.3-1.8,0.9-2.8,2.2c-0.3,0.4-1.2,1.5-1.5,3.2c-0.1,0.5-0.1,1-0.1,1.3c1.4-0.7,2.4-1.5,3.1-2.1c0.7-0.6,1-1.1,2-1.9
									c1.1-0.9,1.8-1.5,2.2-1.3c0.4,0.3,0.2,1.7-0.4,2.8c-0.6,1.2-1.3,1.4-2.8,3c-0.3,0.3-0.7,0.8-1.5,1.8
									c-2.4,3.1-2.5,3.5-3.4,4.3c-0.7,0.6-1.8,1.4-3.7,1.8c-0.2,0.1-0.4,0.3-0.5,0.5c0,0-0.3,0.2-0.5,0.5
									c-0.4,0.4-2.5,2.8-5.4,6.2C79,148.5,77.1,146.5,75.2,144.5z"/>
								<path class="st7" d="M85.5,132.7c0,0,0-0.2,0.1-0.5c0.4-0.9,1.5-1.6,6.1-5.9c0.1-0.1,1.1-1,3.2-2.8c1.2-1,2.3-1.9,3.9-2.6
									c0.1,0,0.1,0,0.2-0.1c0.3-0.1,0.6,0,0.7,0.3c0.1,0.2,0.1,0.3,0.1,0.5c0.2,1.6-1.2,3.3-3.5,4.4c0,0,0,0,0,0c0,0,0,0,0,0
									c-3.4,2.3-5.9,6.3-5.9,6.3c-2.2,3.6-2.1,5.2-3,5.2C86.4,137.7,85,135,85.5,132.7z"/>
								<path class="st7" d="M83.3,135.4c1.4-3,6.2-8.5,6.8-9c0.3-0.2,0.5-0.5,0.9-1c0,0,1.7-2.1,4-3.6c0,0,0.1,0,0.2-0.1
									c0.3-0.1,0.5,0,0.6,0.3c0.1,0.2,0.1,0.5,0.1,0.5c-0.1,1.2-3.1,4.5-3.4,4.8c0,0-1.1,1.2-1.9,2.3c-3.1,4.2-1.2,8-3.4,10.1
									c-0.9,0.8-2.6,1.5-6.5,0.5C81.5,138.6,82.4,137,83.3,135.4z"/>
							</g>
						</g>
					</g>
				</g>
				<g style="clip-path:url(#SVGID_00000052102966932423832230000004913412290870245820_);">
					<g>
						<path class="st16" d="M161.3,208.5c-8.5,1.2-17,2.4-25.4,3.6c-1.5,9.2-2.9,18.3-4.4,27.5c11.2-0.7,22.3-1.3,33.5-2
							c2.8-0.9,12.5-4.6,18.1-14.7c2.8-5.1,3.6-9.9,3.8-12.9C178.3,209.4,169.8,209,161.3,208.5z"/>
						<g>
							<g>
								<g>
									<path class="st17" d="M128.4,220.4c3.7,0,7.3,0,11,0c1-8.2,2-16.4,2.9-24.6c1-23.8,2-40.2,3.2-45.2
										c0.3-1.2,1.4-5.6-0.5-10.1c-0.4-0.9-0.8-1.6-1.1-2c-0.3-0.2-2.9-2.2-6.2-1.2c-2.8,0.8-4,3.2-4.2,3.6
										c-1.3,12.1-2.4,24.6-3.3,37.5C129.3,192.8,128.7,206.9,128.4,220.4z"/>
								</g>
								<path class="st16" d="M136.5,205l50.9-0.6c1-22.9,1.9-45.9,2.9-68.8c-6.6-2.3-13.3-4.7-19.9-7c-2.9-0.5-6.6-0.8-11-0.2
									c-2.5,0.3-4.7,0.8-6.6,1.3c-2.7,1.3-5.3,2.6-8,3.9s-5.3,2.6-8,3.9c0,3.3-0.2,33.3-0.4,66.7C136.5,204.3,136.5,205,136.5,205
									z"/>
								<path class="st18" d="M168.7,128.2c-0.8,0.8-2,1.8-3.6,2.7c-1,0.5-1.9,0.9-2.7,1.1c-0.9,1.5-1.7,3-2.6,4.5
									c-0.3-1.4-0.6-2.9-0.9-4.3c-0.3,0.1-0.8,0.1-1.3,0c-1.6-0.4-2.3-2.1-2.4-2.3c0-0.7,0-1.5,0-2.2l-0.2-13.7l13.5-0.2l0.1,11.6
									C168.7,126.4,168.7,127.3,168.7,128.2z"/>
								<path class="st19" d="M168.7,125.5c-1.3,1-2.5,1.7-3.4,2.1c-2.6,1.2-4.7,1.5-5.9,1.5c-1.3,0.1-1.9-0.1-2.5-0.3
									c-0.7-0.3-1.3-0.7-1.7-1.1l-0.2-13.7l13.5-0.2L168.7,125.5z"/>
								<path class="st20" d="M187.7,202.1c-3.2,0.8-4.9,1.5-5.9,2c-0.2,0.1-0.9,0.4-1.8,0.6c-1,0.2-1.8,0.1-2.1,0.1
									c-0.1,0-0.2,0-0.2,0c-0.7-0.1-13.3-0.4-41.1-0.7c-0.2,2.7-0.4,5.4-0.7,8.1c14.7-0.1,29.5-0.2,44.2-0.3
									c2.5-0.8,5-1.5,7.4-2.3C187.6,207,187.7,204.5,187.7,202.1z"/>
								<g>
									<path class="st17" d="M173.9,227.5c3.2,1.2,6.8,2.3,10.8,3.1c1.4,0.3,2.8,0.5,4.2,0.7c4.6-12.9,6.9-24.1,8.2-32.2
										c3-20.2,1.1-32.4-2-51.5c-0.9-5.9-2-11.1-5-11.8c-3.7-0.9-9.3,5.5-11.2,12.1c-1.6,5.3-0.5,9.8-0.1,12
										c1.5,7.1,2.9,17.5,2.3,32C178.8,203.7,176.4,215.6,173.9,227.5z"/>
								</g>
							</g>
							<g>
								<g>
									<path class="st18" d="M160.9,128.2c-0.9,0.2-1.6,0.4-2.4,0.3c-2.1-0.3-3.4-1.9-5.4-4.4c-1-1.3-2.2-2.8-3.2-5
										c-1.2-2.6-1.5-4.8-2-7.4c-0.4-2.6-0.5-4.9-0.5-6.9c0,0-0.5-4.7-0.6-6c-0.1-1.2,3-7.2,3.4-8.1c4.5-3.8,14.4-4.8,21,0.4
										c4,3.6,5.2,7.3,5.5,8.9c0.8,3.6,0.2,6.6-0.4,9.6c-0.4,1.7-1.2,4.7-3.1,8.1c-0.7,1.3-2.1,3.6-4.7,6.1
										C164.8,127.2,161.6,128.1,160.9,128.2z"/>
									<path class="st21" d="M175.5,88c-0.8-1-2-2.3-3.9-3.3c-3.5-1.9-6.9-1.5-10.1-1.1c-4.4,0.6-9.7,1.3-12.8,5.5
										c-1.8,2.5-2.2,5.2-2.5,7.5c-0.2,1.5-0.6,4.2,0.4,7.6c0.3,0.9,0.6,1.7,0.8,2.2c-0.1-1.3-0.1-2.9,0.2-4.9
										c0.3-1.8,0.8-3.2,1.3-4.3c1.2,0.3,2.6,0.5,3.9,0.6c7.7,0.9,14.4-0.7,19.2-2.4c-0.7,0.7-2.1,2.3-2.4,4.6
										c-0.1,0.6-0.2,1.7,0.2,2.8c0.4,1,1.1,1.5,1.5,1.9c0.8,0.9,1.1,2.9-0.9,7.4c0.6,0,1.9,0,2.2,0.2c1.6,1,1.6,2.5-0.3,6.5
										c-0.4,0.9-1,1.5-1.3,1.9c-0.2,0.2-0.5,0.6-1.1,1.3c-0.4,0.5-0.9,0.9-1.1,1.2c0.4,0,0.7-0.2,1.4-0.5
										c1.5-0.5,2.4-2.1,2.6-2.5c1.6-3.3,3-5.4,4.5-9.6c3.2-8.3,3.4-9.6,3.4-14.5c0-3.4-0.5-5.4-1.9-6.7
										C177.8,88.5,176.4,88.1,175.5,88z"/>
								</g>
								<path class="st18" d="M174.6,107.2c1.9-0.3,1.6,2.9,1,4.1c-0.5,1.2-1.3,4.1-2.6,5c-0.5,0.4-1.2,0-1.2-0.6
									C171.7,113.1,171.9,107.8,174.6,107.2z"/>
								<path class="st19" d="M156.3,116.7c0.4,0,0.8,0.1,1.3,0.1c0.6,0,1.2-0.1,1.6-0.1c-0.4,0.7-1,1-1.7,0.9
									C156.7,117.4,156.3,116.8,156.3,116.7z"/>
								<path class="st19" d="M156.7,122.6c0-0.1,0.5,0.1,1.3,0.1c1.1,0,1.6-0.2,1.6-0.1c0,0.1-0.7,0.6-1.6,0.6
									C157.2,123.1,156.7,122.7,156.7,122.6z"/>
								<path class="st19" d="M154.1,119.9c0-0.2,0.9-0.2,3.1-0.2c4-0.1,4.9-0.3,4.9-0.1c0.1,0.4-2.5,1.8-5.2,1.5
									C155.4,120.9,154,120.2,154.1,119.9z"/>
								<path class="st21" d="M153.2,105.4c-1.9-0.1-2.3-0.3-3-0.1c-1.3,0.3-1.9,1.2-2.1,1.1c-0.1-0.2,0.5-1.3,1.7-1.9
									c0.4-0.2,0.9-0.3,1.8-0.4c0.9-0.1,2.1-0.1,3.7,0.2c0.1,0.2,0.2,0.5,0.1,0.9c0,0.2-0.1,0.3-0.2,0.4
									C154.7,105.5,154,105.4,153.2,105.4z"/>
								<path class="st21" d="M162.3,105.4c1.9-0.1,2.3-0.3,3-0.1c1.3,0.3,1.9,1.2,2.1,1.1c0.1-0.2-0.5-1.3-1.7-1.9
									c-0.4-0.2-0.9-0.3-1.8-0.4c-0.9-0.1-2.1-0.1-3.7,0.2c-0.1,0.2-0.2,0.5-0.1,0.9c0,0.2,0.1,0.3,0.2,0.4
									C160.7,105.5,161.4,105.4,162.3,105.4z"/>
								<g>
									<path class="st14" d="M160.2,108.9c0.4,0.3,1.2,0.8,2.3,1c1.8,0.3,3.2-0.6,3.6-0.9c-0.6-0.7-1.3-1.2-2.1-1.5
										c-0.3-0.1-0.7-0.3-1.3-0.2C161.4,107.4,160.4,108.6,160.2,108.9z"/>
									<path class="st22" d="M161,108.3c0,0.8,0.8,1.5,1.6,1.5c0.8,0,1.7-0.7,1.6-1.6c0-0.3-0.1-0.5-0.3-0.7
										c-0.2-0.1-0.5-0.2-0.7-0.2c-0.3,0-0.6,0-0.9,0.1c-0.2,0-0.3,0.1-0.4,0.2c-0.3,0.1-0.6,0.3-0.8,0.5
										C161,108.2,161,108.3,161,108.3z"/>
									<path d="M163.4,108.5c0,0.5-0.4,0.8-0.9,0.8c-0.4-0.1-0.8-0.5-0.7-1c0-0.5,0.4-0.8,0.9-0.8
										C163.1,107.5,163.4,108,163.4,108.5z"/>
									<path class="st14" d="M163.7,108.2c0,0.2-0.2,0.3-0.4,0.3c-0.2,0-0.3-0.2-0.3-0.4c0-0.2,0.2-0.3,0.3-0.3
										C163.6,107.8,163.8,108,163.7,108.2z"/>
									<path class="st23" d="M160.2,108.9c0.3-0.3,1.1-1.1,2.4-1.3c2-0.3,3.4,1.2,3.5,1.4c-1.1-1.7-2.9-2.3-4.3-1.7
										C160.9,107.7,160.4,108.6,160.2,108.9z"/>
								</g>
								<g>
									<path class="st14" d="M155.4,108.9c-0.3,0.2-2,1.5-4,0.9c-0.6-0.2-1.1-0.5-1.4-0.8c0.4-0.7,1-1.1,1.6-1.4
										c0.6-0.3,1.3-0.3,2-0.1c0.2,0.1,0.4,0.1,0.4,0.2C154.8,108,155.2,108.6,155.4,108.9z"/>
									<path class="st22" d="M154,108.5c0.1,0.9-0.7,1.5-1.4,1.5c-0.7,0-1.6-0.6-1.5-1.6c0-0.3,0.1-0.5,0.2-0.7
										c0.6-0.3,1.3-0.3,2-0.1c0.2,0,0.3,0.1,0.4,0.2C153.9,107.9,154,108.2,154,108.5z"/>
									<path d="M151.5,108.6c0.1,0.5,0.5,0.9,0.9,0.8c0.4,0,0.7-0.5,0.6-1c-0.1-0.5-0.5-0.9-0.9-0.8
										C151.7,107.7,151.5,108.1,151.5,108.6z"/>
									<path class="st14" d="M152.5,108.2c0,0.2,0.2,0.3,0.3,0.3c0.2,0,0.3-0.2,0.2-0.4c0-0.2-0.2-0.3-0.3-0.3
										C152.6,107.9,152.5,108,152.5,108.2z"/>
									<path class="st23" d="M155.4,108.9c-0.1-0.2-1.3-1.5-3.1-1.3c-1.3,0.2-2.1,1.1-2.3,1.3c0.1-0.3,0.6-1.4,1.6-1.8
										C152.9,106.7,154.5,107.4,155.4,108.9z"/>
								</g>
							</g>
						</g>
					</g>
					<path class="st20" d="M168.7,126.6c-0.5,0.8-1.2,2-2.5,3.1c-1.4,1.3-2.9,2-3.9,2.3c0.7,0.5,2.3,1.9,3,4.2
						c0.4,1.4,0.4,2.5,0.4,3.3c1.2-1.4,2.5-3.4,3.7-6c0.8-1.7,1.2-3.4,1.5-4.7c-0.3-0.4-0.7-0.8-1.1-1.2
						C169.5,127.2,169.1,126.9,168.7,126.6z"/>
					<path class="st20" d="M155.2,127.5c-0.4,0.2-0.7,0.4-1.2,0.8c-0.8,0.6-1.3,1.2-1.7,1.7c0.3,1.1,0.7,2.3,1.1,3.4
						c0.8,2.1,1.6,4,2.4,5.7c0.4-1.2,0.9-2.6,1.6-4c0.5-1,1-2,1.5-2.8c-0.4-0.2-2.7-1-3.4-3.2C155.3,128.4,155.2,127.9,155.2,127.5z
						"/>
					<path class="st20" d="M158.9,132.2l0.4,2.3c0.1,0.4,0.2,0.7,0.3,1.1l0.3,1.1l-0.5-1.1c-0.1-0.4-0.3-0.7-0.5-1.1l-0.8-2.2
						L158.9,132.2z"/>
					<path class="st20" d="M162.4,132c-0.8,1.6-1.6,3.2-2.4,4.8l0-0.1c-0.2,2.7-0.4,5.4-0.5,8.1c-0.2,2.7-0.3,5.4-0.4,8.1
						c-0.3,5.4-0.4,10.8-0.5,16.2l-0.1-0.1c1.6,0.1,3.1,0.1,4.7,0.2c-1.6,0-3.1,0-4.7,0.1l-0.1,0l0-0.2c0-2.7-0.1-5.4-0.1-8.1
						c0-2.7,0.1-5.4,0.2-8.1c0.1-2.7,0.3-5.4,0.5-8.1c0.2-2.7,0.5-5.4,0.8-8.1l0,0l0,0C160.6,135.1,161.5,133.5,162.4,132z"/>
				</g>
			</g>
		</g>
	</g>
</g>
</svg>
