<?xml version="1.0" encoding="utf-8"?>
<!-- Generator: Adobe Illustrator 16.0.0, SVG Export Plug-In . SVG Version: 6.00 Build 0)  -->
<!DOCTYPE svg PUBLIC "-//W3C//DTD SVG 1.1//EN" "http://www.w3.org/Graphics/SVG/1.1/DTD/svg11.dtd">
<svg version="1.1" xmlns="http://www.w3.org/2000/svg" xmlns:xlink="http://www.w3.org/1999/xlink" x="0px" y="0px" width="176px"
	 height="159px" viewBox="0 0 176 159" enable-background="new 0 0 176 159" xml:space="preserve">
<g id="Layer_1">
	<g id="Layer_1_1_">
		<path fill="#7382EF" d="M84.5,159c19.055,0,34.5-2.686,34.5-6s-15.445-6-34.5-6c-19.054,0-34.5,2.686-34.5,6S65.446,159,84.5,159z
			"/>
		<path fill="#FDFFFC" d="M124.953,8.053c0.425,3.529-2.076,7.634-6.428,9.779c-2.373,1.171-5.17,1.148-7.484-0.132
			c-3.201-1.773-5.305-4.892-5.495-8.282c-0.179-3.18,1.325-6.628,4.095-8.289C115.036-2.104,124.229,2.041,124.953,8.053z"/>
		<path fill="#AEB4FC" d="M112.6,8.44c0.359,1.112,0.793,2.198,1.299,3.25c0.252,0.527,0.524,1.047,0.814,1.555
			c0.235,0.413,0.494,0.816,0.814,1.168c0.584,0.638,1.437,1.051,2.289,0.7c0.797-0.329,1.324-1.165,1.5-1.983
			c0.205-0.94,0.014-1.964-0.441-2.804c-0.471-0.866-1.238-1.528-2.156-1.884c-0.917-0.355-2-0.406-2.919-0.027
			c-0.991,0.409-1.479,1.336-1.835,2.292c-0.38,1.02-0.605,2.182-0.279,3.248c0.256,0.832,0.861,1.59,1.688,1.911
			c0.204,0.08,0.419,0.124,0.64,0.143c0.1,0.008,0.106-0.12,0.047-0.167c-0.516-0.39-1.025-0.78-1.537-1.169
			c0,0.052,0,0.104,0,0.156c1.166-0.501,2.314-1.194,3.047-2.262c0.621-0.909,0.822-2.094,0.431-3.137
			c-0.206-0.547-0.571-1.015-1.082-1.306c-0.039-0.022-0.104-0.013-0.124,0.031c-0.747,1.664-0.217,3.723,1.111,4.937
			c0.373,0.341,0.804,0.605,1.277,0.782c0.016-0.058,0.029-0.115,0.049-0.174c-0.924-0.327-1.852-0.652-2.771-0.979
			c-0.803-0.284-1.637-0.528-2.412-0.887c-0.622-0.288-1.261-0.716-1.441-1.418c-0.205-0.796,0.257-1.606,0.861-2.094
			c0.655-0.529,1.496-0.801,2.293-1.04c0.889-0.266,1.809-0.454,2.738-0.481c1.555-0.046,3.15,0.4,4.283,1.503
			c0.265,0.256,0.498,0.544,0.688,0.861c0.188,0.315,0.508,0.836,0.188,1.162c-0.26,0.265-0.719,0.317-1.061,0.402
			c-0.455,0.114-0.914,0.223-1.377,0.315c-1.666,0.333-3.451,0.421-4.996-0.401c-0.632-0.336-1.191-0.81-1.57-1.418
			c-0.225-0.362-0.412-0.785-0.402-1.217c0.01-0.377,0.193-0.713,0.459-0.971c0.949-0.922,2.615-0.988,3.764-0.435
			c0.561,0.27,1.039,0.714,1.25,1.309c0.24,0.678,0.102,1.411-0.257,2.022c-0.866,1.487-2.596,1.896-4.198,1.977
			c-0.424,0.021-0.848,0.024-1.271,0.026c-0.032,0-0.062,0.018-0.078,0.045c-0.298,0.525,0.206,1.055,0.61,1.342
			c0.578,0.409,1.209,0.743,1.867,1.004c0.646,0.256,1.328,0.442,2.02,0.536c0.641,0.088,1.367,0.086,1.923-0.291
			c0.501-0.341,0.839-0.973,0.642-1.578c-0.015-0.046-0.062-0.077-0.107-0.063c-0.448,0.131-0.828,0.393-1.193,0.675
			c-0.39,0.3-0.771,0.596-1.203,0.835c-0.855,0.477-1.83,0.77-2.816,0.742c-1.711-0.049-3.479-1.298-3.625-3.102
			c-0.039-0.484,0.045-0.995,0.313-1.407c0.267-0.415,0.709-0.661,1.183-0.771c0.934-0.216,1.911,0.069,2.714,0.549
			c0.411,0.246,0.79,0.545,1.137,0.878c0.314,0.306,0.582,0.679,0.938,0.943c0.39,0.292,0.814,0.291,1.27,0.156
			c0.512-0.153,1.016-0.341,1.51-0.539c0.987-0.393,1.967-0.85,2.875-1.4c0.352-0.213,0.68-0.487,0.78-0.903
			c0.101-0.406-0.026-0.825-0.211-1.188c-0.203-0.408-0.491-0.769-0.78-1.119c-0.277-0.334-0.58-0.658-0.945-0.896
			c-0.379-0.246-0.813-0.363-1.266-0.33c-0.521,0.039-1.013,0.234-1.511,0.384c-0.414,0.124-0.854,0.205-1.287,0.126
			c-0.228-0.04-1.09-0.384-0.582-0.638c0.167-0.083,0.356-0.085,0.537-0.073c0.246,0.016,0.49,0.05,0.729,0.102
			c0.437,0.092,0.856,0.238,1.258,0.434c1.647,0.805,2.789,2.397,2.884,4.245c0.05,0.93-0.159,1.876-0.634,2.683
			c-0.441,0.75-1.112,1.347-1.895,1.728c-0.769,0.377-1.648,0.544-2.501,0.435c-0.397-0.052-1-0.14-1.012-0.649
			c-0.008-0.382,0.276-0.746,0.633-0.86c0.525-0.17,1.095,0.032,1.591,0.208c0.11,0.039,0.151-0.129,0.049-0.174
			c-1.199-0.5-2.451-0.857-3.668-1.308c-1.191-0.442-2.383-0.985-3.32-1.86c-1.07-1-1.631-2.352-1.975-3.75
			c-0.273-1.119-0.813-3.011,0.455-3.737c0.551-0.314,1.231-0.238,1.813-0.066c0.676,0.199,1.291,0.559,1.883,0.93
			c0.662,0.417,1.31,0.877,1.894,1.397c0.293,0.259,0.543,0.56,0.586,0.963c0.043,0.392-0.082,0.791-0.26,1.136
			c-0.533,1.042-1.605,1.732-2.744,1.934c-0.57,0.101-1.17,0.076-1.726-0.094c-0.135-0.042-0.271-0.091-0.397-0.149
			c-0.152-0.069-0.301-0.157-0.468-0.18c-0.278-0.038-0.512,0.158-0.674,0.366c-0.332,0.425-0.37,1.007-0.229,1.512
			c0.158,0.572,0.539,1.021,1.039,1.335c0.557,0.352,1.213,0.521,1.854,0.641c0.791,0.147,1.594,0.25,2.396,0.314
			c0.801,0.063,1.633,0.117,2.436,0.039c0.67-0.065,1.219-0.357,1.495-0.992c0.485-1.121,0.188-2.51-0.526-3.462
			c-0.394-0.52-0.894-0.877-1.474-1.159c-0.618-0.3-1.481-0.699-1.493-1.508c-0.012-0.729,0.832-1.05,1.391-1.274
			c0.654-0.264,1.328-0.488,2.023-0.606c0.689-0.117,1.42-0.118,2.088,0.117c0.672,0.236,1.215,0.713,1.596,1.306
			c0.365,0.567,0.607,1.226,0.729,1.888c0.117,0.648,0.109,1.381-0.25,1.956c-0.742,1.192-2.412,0.884-3.479,0.376
			c-0.673-0.323-1.305-0.734-1.865-1.224c-0.273-0.237-0.539-0.492-0.773-0.771c-0.24-0.288-0.463-0.655-0.354-1.045
			c0.096-0.333,0.377-0.582,0.654-0.771c0.303-0.204,0.631-0.374,0.965-0.518c0.705-0.304,1.5-0.479,2.27-0.363
			c1.258,0.19,2.453,1.201,2.277,2.569c-0.072,0.575-0.383,1.11-0.896,1.391c-0.102,0.055-0.012,0.21,0.093,0.155
			c1.065-0.58,1.276-2.075,0.634-3.042c-0.793-1.194-2.356-1.483-3.67-1.142c-1.063,0.276-3.236,1.221-2.291,2.641
			c0.409,0.613,1.039,1.125,1.633,1.548c0.586,0.416,1.229,0.782,1.918,1.001c0.602,0.191,1.271,0.284,1.891,0.122
			c0.59-0.154,1.068-0.566,1.307-1.133c0.254-0.615,0.223-1.318,0.084-1.957c-0.146-0.674-0.406-1.344-0.805-1.908
			c-0.396-0.563-0.938-1.005-1.584-1.241c-0.66-0.239-1.377-0.25-2.064-0.15c-0.756,0.109-1.488,0.353-2.195,0.639
			c-0.541,0.219-1.217,0.479-1.436,1.076c-0.242,0.657,0.252,1.296,0.777,1.635c0.334,0.213,0.702,0.358,1.051,0.545
			c0.309,0.166,0.588,0.373,0.83,0.624c0.479,0.492,0.803,1.125,0.938,1.795c0.136,0.666,0.102,1.458-0.269,2.048
			c-0.468,0.75-1.438,0.69-2.211,0.683c-0.89-0.009-1.774-0.077-2.655-0.193c-1.332-0.177-3.281-0.38-3.838-1.845
			c-0.219-0.572-0.193-1.331,0.336-1.731c0.325-0.25,0.711,0.073,1.041,0.186c0.273,0.094,0.562,0.153,0.851,0.179
			c1.177,0.109,2.399-0.323,3.247-1.144c0.451-0.438,0.828-1.017,0.945-1.642c0.063-0.341,0.041-0.695-0.119-1.009
			c-0.164-0.321-0.453-0.559-0.726-0.785c-0.621-0.515-1.28-0.983-1.974-1.398c-0.604-0.363-1.235-0.697-1.932-0.851
			c-0.58-0.128-1.236-0.133-1.752,0.206c-0.531,0.35-0.764,0.952-0.796,1.568c-0.038,0.7,0.128,1.407,0.284,2.084
			c0.17,0.739,0.387,1.472,0.707,2.16c0.594,1.275,1.57,2.245,2.789,2.929c1.188,0.666,2.495,1.073,3.773,1.506
			c0.631,0.213,1.258,0.432,1.873,0.687c0.018-0.058,0.031-0.115,0.047-0.174c-0.493-0.174-1.032-0.353-1.563-0.239
			c-0.37,0.08-0.668,0.33-0.813,0.681c-0.125,0.306-0.105,0.676,0.152,0.904c0.316,0.281,0.866,0.317,1.271,0.337
			c1.793,0.087,3.58-0.942,4.387-2.549c0.848-1.696,0.639-3.829-0.52-5.331c-0.559-0.725-1.306-1.298-2.143-1.667
			c-0.42-0.186-0.861-0.322-1.314-0.4c-0.377-0.065-0.836-0.153-1.189,0.03c-0.129,0.066-0.242,0.179-0.257,0.33
			c-0.019,0.171,0.151,0.296,0.276,0.389c0.324,0.238,0.75,0.299,1.146,0.279c1.045-0.056,2.063-0.835,3.112-0.422
			c0.472,0.184,0.84,0.554,1.162,0.929c0.33,0.382,0.654,0.784,0.877,1.239c0.234,0.479,0.324,1.058-0.071,1.48
			c-0.177,0.186-0.397,0.314-0.617,0.439c-0.252,0.144-0.506,0.281-0.766,0.415c-1.044,0.539-2.13,0.994-3.245,1.354
			c-0.288,0.094-0.602,0.195-0.901,0.112c-0.253-0.069-0.456-0.245-0.637-0.428c-0.353-0.358-0.677-0.735-1.063-1.057
			c-0.733-0.604-1.608-1.067-2.565-1.162c-0.92-0.092-1.963,0.187-2.418,1.06c-0.414,0.795-0.304,1.78,0.101,2.554
			s1.1,1.391,1.896,1.741c1.877,0.824,3.977,0.061,5.498-1.127c0.408-0.318,0.816-0.646,1.322-0.792
			c-0.037-0.021-0.074-0.042-0.111-0.063c0.166,0.517-0.111,1.059-0.538,1.361c-0.493,0.352-1.147,0.366-1.729,0.298
			c-1.19-0.142-2.365-0.572-3.395-1.19c-0.413-0.248-1.424-0.818-1.072-1.437c-0.025,0.015-0.053,0.03-0.076,0.045
			c1.725-0.009,3.711-0.039,5.025-1.331c0.529-0.521,0.923-1.211,0.99-1.959c0.063-0.687-0.196-1.367-0.688-1.849
			c-0.97-0.952-2.612-1.132-3.841-0.635c-0.646,0.262-1.299,0.759-1.402,1.495c-0.109,0.788,0.41,1.607,0.939,2.146
			c1.197,1.217,2.977,1.585,4.625,1.467c1.039-0.073,2.058-0.311,3.063-0.563c0.358-0.089,0.801-0.154,1.071-0.432
			c0.283-0.289,0.188-0.675,0.035-1.006c-0.656-1.433-2.125-2.366-3.632-2.686c-1.879-0.397-3.924,0.038-5.672,0.761
			c-0.771,0.319-1.521,0.791-1.903,1.563c-0.341,0.69-0.31,1.485,0.188,2.087c0.476,0.572,1.211,0.868,1.894,1.113
			c0.998,0.36,2,0.707,3,1.061c0.495,0.176,0.991,0.35,1.487,0.526c0.106,0.039,0.154-0.134,0.047-0.174
			c-1.618-0.602-2.646-2.343-2.604-4.04c0.016-0.487,0.12-0.969,0.32-1.414c-0.042,0.01-0.082,0.021-0.124,0.032
			c0.911,0.519,1.271,1.605,1.178,2.608c-0.106,1.171-0.878,2.134-1.801,2.807c-0.548,0.399-1.149,0.713-1.771,0.979
			c-0.067,0.03-0.045,0.12,0,0.156c0.515,0.39,1.024,0.78,1.539,1.169c0.017-0.056,0.028-0.112,0.045-0.167
			c-0.873-0.072-1.584-0.7-1.965-1.461c-0.466-0.926-0.387-2.018-0.109-2.987c0.259-0.914,0.656-2.001,1.479-2.554
			c0.788-0.532,1.848-0.595,2.747-0.37c1.858,0.46,3.156,2.205,3.05,4.121c-0.045,0.835-0.426,1.718-1.137,2.196
			c-0.755,0.507-1.627,0.281-2.251-0.317c-0.349-0.334-0.623-0.739-0.866-1.153c-0.298-0.506-0.57-1.027-0.828-1.554
			c-0.529-1.084-0.979-2.208-1.353-3.355C112.738,8.284,112.566,8.331,112.6,8.44z"/>
		<defs>
			<filter id="Adobe_OpacityMaskFilter" filterUnits="userSpaceOnUse" x="-23.727" y="-37.368" width="190.727" height="141.368">
				<feColorMatrix  type="matrix" values="1 0 0 0 0  0 1 0 0 0  0 0 1 0 0  0 0 0 1 0"/>
			</filter>
		</defs>
		<mask maskUnits="userSpaceOnUse" x="-23.727" y="-37.368" width="190.727" height="141.368" id="mask0_362_221_1_">
			<rect fill="#FA6E5A" filter="url(#Adobe_OpacityMaskFilter)" width="176" height="114"/>
		</mask>
		<g mask="url(#mask0_362_221_1_)">
			<path fill="#808AFF" d="M12.773,35.447c-25.5,4.38-32-10.584-36.5-19.162v-53.653h88v98h-15.5
				C40.44,50.047,38.273,31.067,12.773,35.447z"/>
			<path fill="#808AFF" d="M115.773,35.447c25.5,4.38,32-10.584,36.5-19.162v-53.653h-88v98h15.5
				C88.106,50.047,90.273,31.067,115.773,35.447z"/>
			<g>
				<g>
					<g>
						<g>
							<defs>
								<rect id="SVGID_1_" x="150" y="44" width="14" height="17"/>
							</defs>
							<clipPath id="SVGID_2_">
								<use xlink:href="#SVGID_1_"  overflow="visible"/>
							</clipPath>
							<g clip-path="url(#SVGID_2_)">
								<path fill="#9BA3FF" d="M153.387,44H150v17h3.387V44z"/>
								<path fill="#9BA3FF" d="M158.693,49.714h-3.387V61h3.387V49.714z"/>
								<path fill="#9BA3FF" d="M164.007,55.1h-3.386V61h3.386V55.1z"/>
							</g>
						</g>
					</g>
				</g>
			</g>
			<g>
				<g>
					<g>
						<g>
							<defs>
								<rect id="SVGID_3_" x="135" y="78" width="32" height="26"/>
							</defs>
							<clipPath id="SVGID_4_">
								<use xlink:href="#SVGID_3_"  overflow="visible"/>
							</clipPath>
							<g clip-path="url(#SVGID_4_)">
								<path fill="#3F4553" d="M154.99,103.955l11.145-3.734l-5.587-16.4l-11.146,3.736c-0.438,0.146-0.674,0.614-0.522,1.047
									l5.054,14.83C154.08,103.866,154.553,104.102,154.99,103.955z"/>
								<path fill="#DDDDE3" d="M154.998,103.631l11.423-3.828l-5.383-15.797l-11.423,3.829c-0.282,0.093-0.434,0.396-0.34,0.681
									l5.037,14.78C154.41,103.575,154.716,103.725,154.998,103.631z"/>
								<path fill="#E2E5FF" d="M155.238,103.551l11.424-3.828l-5.383-15.797l-11.424,3.828c-0.281,0.094-0.436,0.396-0.338,0.68
									l5.032,14.781C154.65,103.494,154.957,103.648,155.238,103.551z"/>
								<path fill="#4E5567" d="M155.855,103.664L167,99.928l-5.587-16.396l-11.146,3.735c-0.438,0.146-0.677,0.612-0.522,1.049
									l5.053,14.83C154.945,103.579,155.418,103.809,155.855,103.664z"/>
								<path fill="#3F4553" d="M160.789,83.742l-0.24,0.08l5.588,16.4l0.239-0.08L160.789,83.742z"/>
								<path fill="#93BFA8" d="M162.381,96.553l0.249-0.525l0.522,0.269l-4.082-11.978c-0.073-0.211-0.256-0.192-0.469-0.119
									c-0.213,0.07-0.371,0.17-0.297,0.38L162.381,96.553z"/>
								<path fill="#3F4553" d="M137.338,88.09l7.502-8.82l-1.517-1.268l-7.501,8.82L137.338,88.09z"/>
								<path fill="#F2EDE4" d="M135.82,86.818l1.515,1.268l-2.188,1.193c-0.069,0.041-0.17-0.045-0.146-0.121L135.82,86.818z"/>
								<path fill="#3F4553" d="M135.15,89.283l0.593-0.323l-0.515-0.433l-0.223,0.631C134.98,89.234,135.078,89.32,135.15,89.283z"
									/>
								<path fill="#4E5567" d="M136.836,87.67l7.501-8.82l-0.515-0.431l-7.502,8.82L136.836,87.67z"/>
							</g>
						</g>
					</g>
				</g>
			</g>
			<g>
				<g>
					<g>
						<g>
							<defs>
								<rect id="SVGID_5_" x="37" y="3" width="35" height="35"/>
							</defs>
							<clipPath id="SVGID_6_">
								<use xlink:href="#SVGID_5_"  overflow="visible"/>
							</clipPath>
							<g clip-path="url(#SVGID_6_)">
								<path fill="#808AFF" d="M54.503,3C44.833,3,37,10.833,37,20.503c0,9.664,7.833,17.502,17.503,17.502
									c9.664,0,17.502-7.833,17.502-17.502C72,10.833,64.167,3,54.503,3z M54.503,35.045c-8.032,0-14.542-6.511-14.542-14.542
									c0-8.032,6.51-14.542,14.542-14.542c8.032,0,14.542,6.51,14.542,14.542C69.045,28.535,62.535,35.045,54.503,35.045z"/>
								<path fill="#AEB4FC" d="M67.921,26.11c3.099-7.41-0.396-15.929-7.807-19.027c-7.41-3.099-15.929,0.396-19.027,7.806
									c-3.099,7.41,0.396,15.929,7.806,19.027S64.822,33.52,67.921,26.11z"/>
								<path fill="#808AFF" d="M54.531,7.262c-1.021,0-1.025,1.587,0,1.587C55.556,8.849,55.557,7.262,54.531,7.262z"/>
								<path fill="#808AFF" d="M67.738,20.53c0-1.021-1.588-1.025-1.588,0C66.15,21.555,67.738,21.555,67.738,20.53z"/>
								<path fill="#808AFF" d="M54.469,33.738c1.021,0,1.025-1.587,0-1.587C53.449,32.151,53.443,33.738,54.469,33.738z"/>
								<path fill="#808AFF" d="M41.262,20.47c0,1.021,1.588,1.025,1.588,0C42.85,19.45,41.262,19.444,41.262,20.47z"/>
								<path fill="#808AFF" d="M60.754,24.753c-0.094,0-0.188-0.022-0.27-0.077l-6.257-3.721c-0.16-0.093-0.259-0.27-0.259-0.458
									v-10c0-0.292,0.237-0.529,0.529-0.529s0.529,0.237,0.529,0.529V20.2l5.998,3.566c0.254,0.149,0.336,0.474,0.182,0.728
									C61.113,24.659,60.937,24.753,60.754,24.753z"/>
							</g>
						</g>
					</g>
				</g>
			</g>
			<path fill="#9BA3FF" d="M19.621,56.407l-0.349-1.981l-2.025,0.345c-0.321-0.925-0.845-1.739-1.522-2.402l1.187-1.664
				l-1.662-1.153l-1.18,1.657c-0.852-0.414-1.802-0.642-2.793-0.635l-0.356-2.008L8.915,48.91l0.349,2.002
				c-0.936,0.317-1.76,0.835-2.43,1.505l-1.683-1.173l-1.166,1.643l1.676,1.167c-0.419,0.842-0.649,1.781-0.643,2.761L3,57.159
				l0.349,1.981l2.025-0.345c0.321,0.925,0.845,1.739,1.522,2.402L5.709,62.86l1.662,1.153l1.18-1.657
				c0.852,0.414,1.802,0.642,2.793,0.635L11.701,65l2.004-0.345l-0.349-2.002c0.936-0.317,1.76-0.835,2.43-1.505l1.683,1.174
				l1.167-1.643l-1.676-1.167c0.419-0.842,0.649-1.781,0.643-2.761L19.621,56.407z M11.632,58.622
				c-1.027,0.18-2.004-0.504-2.186-1.519c-0.182-1.015,0.51-1.981,1.536-2.16c1.027-0.18,2.004,0.504,2.186,1.519
				C13.35,57.477,12.665,58.443,11.632,58.622z"/>
			<path fill="#AEB4FC" d="M38.728,52.41v-2.492h-2.549c-0.188-1.201-0.656-2.305-1.341-3.258l1.809-1.788l-1.781-1.76l-1.802,1.781
				c-0.957-0.683-2.067-1.16-3.282-1.36V41h-2.521v2.52c-1.215,0.187-2.339,0.649-3.296,1.325l-1.809-1.788l-1.781,1.76l1.802,1.781
				c-0.691,0.946-1.173,2.043-1.375,3.245h-2.563v2.492h2.549c0.188,1.201,0.657,2.306,1.341,3.258l-1.809,1.788l1.781,1.76
				l1.802-1.781c0.957,0.684,2.067,1.16,3.282,1.36v2.533h2.521v-2.52c1.215-0.186,2.333-0.649,3.296-1.325l1.809,1.788l1.781-1.76
				l-1.802-1.781c0.691-0.945,1.173-2.043,1.376-3.244L38.728,52.41L38.728,52.41z M28.483,53.445c-1.292,0-2.346-1.036-2.346-2.319
				c0-1.277,1.047-2.319,2.346-2.319c1.292,0,2.347,1.036,2.347,2.319C30.822,52.403,29.775,53.445,28.483,53.445z"/>
			<g opacity="0.3">
				<path fill="#ECECEC" d="M156.995,33.897l-18.729-4.209c-0.184-0.04-0.3-0.223-0.257-0.407l2.358-10.5
					c0.04-0.183,0.224-0.3,0.406-0.257l18.729,4.213c0.186,0.04,0.3,0.224,0.257,0.407l-2.36,10.5
					C157.357,33.824,157.178,33.94,156.995,33.897z"/>
				<path fill="#F5F4F5" d="M138.318,29.441c-0.049-0.01-0.08-0.06-0.065-0.107l2.36-10.5c0.011-0.05,0.061-0.08,0.104-0.067
					l18.729,4.213c0.05,0.01,0.076,0.06,0.064,0.107l-2.363,10.5c-0.01,0.05-0.059,0.08-0.104,0.067L138.318,29.441z"/>
				<path fill="#706F6E" d="M156.867,22.141l-13.453-3.025l-0.055,0.244l13.453,3.025L156.867,22.141z"/>
				<path fill="#585857" d="M142.105,20.625l-0.621-0.14c-0.076-0.017-0.127-0.093-0.109-0.173l0.096-0.437
					c0.021-0.077,0.094-0.126,0.174-0.11l0.621,0.14c0.076,0.017,0.127,0.094,0.109,0.174l-0.096,0.437
					C142.259,20.592,142.182,20.642,142.105,20.625z"/>
				<path fill="#5E5E5D" d="M141.512,20.361c-0.011-0.003-0.018-0.013-0.014-0.023l0.096-0.437c0.004-0.01,0.014-0.017,0.024-0.014
					l0.62,0.14c0.01,0.003,0.017,0.014,0.014,0.023l-0.098,0.437c-0.002,0.01-0.012,0.017-0.022,0.013L141.512,20.361z"/>
				<path fill="#585857" d="M143.242,20.878l-0.62-0.14c-0.077-0.017-0.127-0.093-0.11-0.173l0.098-0.437
					c0.019-0.077,0.096-0.126,0.176-0.11l0.617,0.14c0.076,0.017,0.13,0.093,0.109,0.173l-0.096,0.437
					C143.396,20.849,143.318,20.896,143.242,20.878z"/>
				<path fill="#5E5E5D" d="M142.648,20.618c-0.01-0.003-0.02-0.013-0.017-0.023l0.101-0.437c0.002-0.01,0.013-0.017,0.021-0.013
					l0.621,0.14c0.011,0.003,0.019,0.013,0.015,0.023l-0.099,0.437c-0.003,0.01-0.015,0.017-0.021,0.013L142.648,20.618z"/>
				<path fill="#585857" d="M144.38,21.135l-0.621-0.14c-0.075-0.017-0.126-0.093-0.11-0.173l0.101-0.438
					c0.021-0.077,0.093-0.126,0.174-0.11l0.62,0.14c0.077,0.017,0.127,0.093,0.107,0.173l-0.098,0.437
					C144.533,21.102,144.457,21.152,144.38,21.135z"/>
				<path fill="#5E5E5D" d="M143.786,20.872c-0.011-0.003-0.017-0.014-0.013-0.023l0.097-0.437c0.003-0.01,0.013-0.017,0.022-0.013
					l0.621,0.14c0.01,0.003,0.016,0.014,0.014,0.023l-0.098,0.437c-0.006,0.01-0.016,0.017-0.022,0.013L143.786,20.872z"/>
				<path fill="#585857" d="M145.518,21.389l-0.621-0.14c-0.076-0.017-0.127-0.093-0.106-0.173l0.097-0.437
					c0.02-0.077,0.096-0.127,0.176-0.11l0.619,0.14c0.075,0.017,0.129,0.094,0.108,0.174l-0.099,0.438
					C145.671,21.359,145.594,21.409,145.518,21.389z"/>
				<path fill="#5E5E5D" d="M144.924,21.128c-0.01-0.003-0.017-0.013-0.014-0.023l0.097-0.437c0.003-0.01,0.013-0.017,0.022-0.014
					l0.621,0.14c0.011,0.003,0.017,0.014,0.014,0.023l-0.098,0.437c-0.002,0.01-0.012,0.017-0.022,0.013L144.924,21.128z"/>
				<path fill="#585857" d="M146.65,21.646l-0.619-0.14c-0.077-0.017-0.127-0.093-0.11-0.173l0.097-0.437
					c0.02-0.077,0.094-0.126,0.174-0.11l0.619,0.14c0.078,0.017,0.127,0.093,0.11,0.173l-0.096,0.437
					C146.809,21.616,146.73,21.662,146.65,21.646z"/>
				<path fill="#5E5E5D" d="M146.061,21.386c-0.01-0.003-0.017-0.014-0.013-0.023l0.097-0.437c0.004-0.01,0.017-0.017,0.023-0.013
					l0.62,0.14c0.01,0.003,0.017,0.014,0.014,0.023l-0.097,0.437c-0.003,0.01-0.014,0.017-0.023,0.013L146.061,21.386z"/>
				<path fill="#585857" d="M147.789,21.902l-0.621-0.14c-0.076-0.017-0.126-0.093-0.109-0.173l0.096-0.437
					c0.021-0.077,0.097-0.127,0.178-0.11l0.62,0.14c0.073,0.017,0.127,0.094,0.106,0.174l-0.097,0.437
					C147.945,21.869,147.869,21.919,147.789,21.902z"/>
				<path fill="#5E5E5D" d="M147.198,21.639c-0.011-0.003-0.017-0.013-0.013-0.023l0.097-0.437c0.003-0.01,0.013-0.017,0.022-0.014
					l0.617,0.14c0.014,0.003,0.02,0.014,0.018,0.023l-0.101,0.437c-0.003,0.01-0.013,0.017-0.021,0.013L147.198,21.639z"/>
				<path fill="#585857" d="M148.926,22.156l-0.619-0.141c-0.078-0.017-0.127-0.093-0.111-0.173l0.101-0.437
					c0.019-0.077,0.097-0.126,0.173-0.11l0.62,0.14c0.077,0.017,0.127,0.093,0.106,0.173l-0.096,0.437
					C149.083,22.126,149.003,22.176,148.926,22.156z"/>
				<path fill="#5E5E5D" d="M148.336,21.896c-0.01-0.003-0.018-0.014-0.014-0.023l0.097-0.437c0.003-0.01,0.015-0.017,0.024-0.013
					l0.619,0.14c0.011,0.003,0.018,0.013,0.014,0.023l-0.096,0.437c-0.004,0.01-0.018,0.017-0.024,0.014L148.336,21.896z"/>
				<path fill="#585857" d="M150.064,22.413l-0.621-0.14c-0.076-0.017-0.127-0.094-0.11-0.173l0.097-0.437
					c0.021-0.077,0.094-0.127,0.174-0.11l0.621,0.14c0.076,0.017,0.127,0.093,0.109,0.173l-0.098,0.437
					C150.217,22.383,150.141,22.43,150.064,22.413z"/>
				<path fill="#5E5E5D" d="M149.473,22.152c-0.01-0.003-0.016-0.013-0.013-0.023l0.097-0.437c0.004-0.01,0.014-0.017,0.023-0.014
					l0.62,0.14c0.01,0.003,0.017,0.013,0.014,0.023l-0.097,0.437c-0.004,0.01-0.014,0.017-0.023,0.013L149.473,22.152z"/>
				<path fill="#585857" d="M151.201,22.669l-0.62-0.14c-0.077-0.017-0.127-0.093-0.11-0.173l0.098-0.437
					c0.019-0.077,0.096-0.126,0.176-0.11l0.617,0.14c0.076,0.017,0.13,0.093,0.111,0.173l-0.098,0.437
					C151.355,22.636,151.277,22.687,151.201,22.669z"/>
				<path fill="#5E5E5D" d="M150.607,22.406c-0.01-0.003-0.02-0.014-0.017-0.023l0.101-0.437c0.002-0.01,0.013-0.017,0.021-0.013
					l0.62,0.14c0.01,0.003,0.02,0.013,0.016,0.023l-0.099,0.437c-0.003,0.01-0.015,0.017-0.021,0.014L150.607,22.406z"/>
				<path fill="#585857" d="M152.338,22.923l-0.62-0.14c-0.077-0.017-0.127-0.094-0.11-0.173l0.101-0.437
					c0.019-0.077,0.093-0.127,0.173-0.11l0.621,0.14c0.076,0.017,0.126,0.093,0.107,0.173l-0.098,0.437
					C152.492,22.893,152.415,22.943,152.338,22.923z"/>
				<path fill="#5E5E5D" d="M151.745,22.663c-0.011-0.003-0.017-0.013-0.015-0.023l0.098-0.437c0.003-0.01,0.014-0.017,0.023-0.013
					l0.621,0.14c0.01,0.003,0.016,0.013,0.012,0.023l-0.096,0.437c-0.007,0.01-0.017,0.017-0.023,0.013L151.745,22.663z"/>
				<path fill="#585857" d="M153.477,23.18l-0.621-0.14c-0.076-0.017-0.127-0.094-0.107-0.174l0.098-0.437
					c0.02-0.077,0.096-0.126,0.176-0.11l0.621,0.14c0.073,0.017,0.127,0.093,0.106,0.173l-0.101,0.437
					C153.629,23.15,153.553,23.197,153.477,23.18z"/>
				<path fill="#5E5E5D" d="M152.882,22.92c-0.01-0.003-0.017-0.014-0.014-0.023l0.097-0.437c0.004-0.01,0.014-0.017,0.023-0.013
					l0.621,0.14c0.01,0.003,0.017,0.013,0.013,0.023l-0.097,0.438c-0.004,0.01-0.017,0.017-0.023,0.013L152.882,22.92z"/>
				<path fill="#585857" d="M154.613,23.437l-0.62-0.14c-0.077-0.017-0.127-0.094-0.11-0.173l0.096-0.437
					c0.021-0.077,0.098-0.127,0.174-0.11l0.621,0.14c0.076,0.017,0.127,0.093,0.109,0.173l-0.096,0.437
					C154.766,23.403,154.689,23.454,154.613,23.437z"/>
				<path fill="#5E5E5D" d="M154.02,23.173c-0.011-0.003-0.017-0.014-0.014-0.023l0.098-0.437c0.002-0.01,0.016-0.017,0.022-0.013
					l0.621,0.14c0.01,0.003,0.017,0.013,0.013,0.023l-0.097,0.437c-0.003,0.01-0.013,0.017-0.022,0.014L154.02,23.173z"/>
				<path fill="#585857" d="M155.751,23.69l-0.621-0.14c-0.077-0.017-0.127-0.093-0.11-0.173l0.101-0.437
					c0.017-0.077,0.093-0.127,0.173-0.11l0.621,0.14c0.072,0.017,0.126,0.093,0.107,0.173l-0.098,0.437
					C155.904,23.66,155.827,23.71,155.751,23.69z"/>
				<path fill="#5E5E5D" d="M155.157,23.43c-0.011-0.003-0.017-0.013-0.013-0.023l0.096-0.438c0.004-0.01,0.014-0.017,0.023-0.013
					l0.617,0.14c0.014,0.003,0.02,0.013,0.016,0.023l-0.099,0.437c-0.004,0.01-0.014,0.017-0.021,0.014L155.157,23.43z"/>
				<path fill="#585857" d="M156.889,23.947l-0.621-0.141c-0.076-0.017-0.127-0.093-0.106-0.173l0.096-0.437
					c0.021-0.077,0.097-0.126,0.177-0.11l0.617,0.14c0.077,0.017,0.127,0.093,0.11,0.173l-0.099,0.437
					C157.042,23.917,156.965,23.964,156.889,23.947z"/>
				<path fill="#5E5E5D" d="M156.294,23.687c-0.01-0.003-0.017-0.013-0.013-0.023l0.097-0.437c0.003-0.01,0.013-0.017,0.022-0.013
					l0.621,0.14c0.011,0.003,0.017,0.013,0.014,0.023l-0.098,0.437c-0.002,0.01-0.016,0.017-0.022,0.013L156.294,23.687z"/>
				<path fill="#585857" d="M158.021,24.204l-0.619-0.14c-0.077-0.017-0.127-0.094-0.11-0.173l0.097-0.438
					c0.016-0.076,0.094-0.126,0.174-0.11l0.619,0.14c0.077,0.017,0.127,0.093,0.11,0.173l-0.097,0.437
					C158.18,24.17,158.102,24.221,158.021,24.204z"/>
				<path fill="#5E5E5D" d="M157.432,23.94c-0.01-0.003-0.017-0.013-0.013-0.023l0.097-0.437c0.004-0.01,0.017-0.017,0.023-0.014
					l0.62,0.14c0.01,0.003,0.017,0.013,0.013,0.023l-0.096,0.437c-0.004,0.01-0.014,0.017-0.024,0.013L157.432,23.94z"/>
				<path fill="#585857" d="M141.471,20.635l0.771,0.173c0.087,0.02,0.144,0.106,0.12,0.197l-0.17,0.754
					c-0.02,0.086-0.104,0.143-0.193,0.124l-0.77-0.174c-0.088-0.02-0.145-0.106-0.125-0.197l0.17-0.754
					C141.294,20.672,141.381,20.615,141.471,20.635z"/>
				<path fill="#5E5E5D" d="M141.258,21.585c-0.02-0.003-0.033-0.027-0.029-0.046l0.17-0.754c0.002-0.021,0.026-0.034,0.047-0.03
					l0.77,0.173c0.021,0.003,0.033,0.027,0.03,0.047l-0.17,0.754c-0.007,0.02-0.027,0.033-0.05,0.03L141.258,21.585z"/>
				<path fill="#585857" d="M142.782,20.932l0.767,0.173c0.088,0.02,0.143,0.107,0.123,0.197l-0.17,0.754
					c-0.02,0.087-0.105,0.144-0.195,0.124l-0.769-0.173c-0.086-0.02-0.144-0.107-0.123-0.197l0.17-0.754
					C142.605,20.965,142.691,20.912,142.782,20.932z"/>
				<path fill="#5E5E5D" d="M142.568,21.882c-0.021-0.003-0.033-0.027-0.029-0.047l0.17-0.753c0.003-0.02,0.025-0.034,0.046-0.03
					l0.769,0.173c0.021,0.003,0.033,0.027,0.029,0.047l-0.171,0.754c-0.003,0.02-0.026,0.033-0.046,0.03L142.568,21.882z"/>
				<path fill="#585857" d="M144.093,21.226l0.769,0.173c0.089,0.02,0.146,0.107,0.123,0.197l-0.17,0.754
					c-0.021,0.087-0.104,0.144-0.194,0.124L143.85,22.3c-0.086-0.021-0.144-0.107-0.123-0.197l0.17-0.754
					C143.917,21.262,144.007,21.206,144.093,21.226z"/>
				<path fill="#5E5E5D" d="M143.88,22.176c-0.021-0.003-0.034-0.026-0.03-0.047l0.17-0.753c0.004-0.02,0.026-0.034,0.047-0.03
					l0.771,0.173c0.021,0.003,0.033,0.027,0.029,0.047l-0.173,0.754c-0.004,0.02-0.023,0.033-0.047,0.03L143.88,22.176z"/>
				<path fill="#585857" d="M145.404,21.519l0.767,0.173c0.087,0.02,0.144,0.107,0.124,0.197l-0.171,0.754
					c-0.021,0.087-0.106,0.144-0.196,0.124l-0.768-0.173c-0.086-0.02-0.143-0.107-0.123-0.197l0.17-0.754
					C145.227,21.556,145.316,21.499,145.404,21.519z"/>
				<path fill="#5E5E5D" d="M145.191,22.473c-0.021-0.003-0.034-0.027-0.03-0.047l0.17-0.753c0.003-0.02,0.026-0.034,0.046-0.03
					l0.768,0.173c0.021,0.003,0.033,0.027,0.03,0.047l-0.17,0.754c-0.004,0.02-0.026,0.033-0.047,0.03L145.191,22.473z"/>
				<path fill="#585857" d="M146.715,21.816l0.768,0.173c0.086,0.02,0.146,0.107,0.123,0.197l-0.17,0.754
					c-0.021,0.086-0.104,0.144-0.194,0.124l-0.771-0.174c-0.087-0.02-0.143-0.106-0.123-0.196l0.17-0.754
					C146.541,21.849,146.628,21.796,146.715,21.816z"/>
				<path fill="#5E5E5D" d="M146.501,22.766c-0.021-0.003-0.033-0.026-0.03-0.046l0.17-0.754c0.004-0.02,0.027-0.033,0.047-0.03
					l0.771,0.174c0.021,0.003,0.033,0.026,0.026,0.046l-0.17,0.754c-0.002,0.02-0.023,0.034-0.047,0.03L146.501,22.766z"/>
				<path fill="#585857" d="M148.025,22.109l0.768,0.173c0.086,0.02,0.143,0.107,0.123,0.197l-0.17,0.754
					c-0.02,0.087-0.107,0.144-0.197,0.124l-0.767-0.173c-0.087-0.02-0.144-0.107-0.123-0.197l0.17-0.754
					C147.852,22.146,147.939,22.089,148.025,22.109z"/>
				<path fill="#5E5E5D" d="M147.813,23.06c-0.021-0.003-0.033-0.027-0.027-0.047l0.17-0.753c0.003-0.021,0.023-0.034,0.047-0.03
					l0.77,0.173c0.021,0.003,0.03,0.027,0.027,0.047l-0.17,0.753c-0.004,0.021-0.023,0.034-0.047,0.03L147.813,23.06z"/>
				<path fill="#585857" d="M149.337,22.406l0.767,0.173c0.088,0.02,0.146,0.106,0.123,0.197l-0.17,0.754
					c-0.02,0.086-0.104,0.143-0.197,0.123l-0.767-0.173c-0.087-0.02-0.143-0.107-0.122-0.197l0.17-0.754
					C149.163,22.439,149.25,22.386,149.337,22.406z"/>
				<path fill="#5E5E5D" d="M149.123,23.356c-0.02-0.003-0.033-0.026-0.03-0.046l0.171-0.754c0.002-0.02,0.026-0.033,0.047-0.03
					l0.77,0.173c0.021,0.003,0.029,0.027,0.027,0.046l-0.17,0.754c-0.004,0.02-0.024,0.034-0.047,0.03L149.123,23.356z"/>
				<path fill="#585857" d="M150.65,22.7l0.768,0.173c0.087,0.021,0.143,0.107,0.123,0.197l-0.17,0.753
					c-0.02,0.087-0.105,0.144-0.197,0.124l-0.767-0.173c-0.087-0.02-0.144-0.107-0.123-0.197l0.17-0.754
					C150.475,22.736,150.561,22.68,150.65,22.7z"/>
				<path fill="#5E5E5D" d="M150.434,23.65c-0.02-0.003-0.033-0.027-0.029-0.047l0.173-0.753c0.003-0.02,0.024-0.034,0.047-0.03
					l0.771,0.173c0.02,0.003,0.029,0.027,0.026,0.047l-0.17,0.754c-0.003,0.02-0.024,0.033-0.047,0.03L150.434,23.65z"/>
				<path fill="#585857" d="M151.961,22.993l0.768,0.173c0.086,0.02,0.146,0.107,0.123,0.197l-0.17,0.754
					c-0.02,0.087-0.104,0.144-0.197,0.124l-0.767-0.174c-0.087-0.02-0.144-0.106-0.122-0.197l0.17-0.753
					C151.785,23.03,151.871,22.973,151.961,22.993z"/>
				<path fill="#5E5E5D" d="M151.748,23.947c-0.02-0.003-0.033-0.027-0.03-0.047l0.171-0.754c0.004-0.02,0.026-0.033,0.047-0.03
					l0.77,0.173c0.021,0.003,0.029,0.027,0.027,0.047l-0.17,0.753c-0.004,0.02-0.024,0.034-0.047,0.03L151.748,23.947z"/>
				<path fill="#585857" d="M153.271,23.29l0.769,0.174c0.086,0.02,0.144,0.106,0.123,0.196l-0.17,0.754
					c-0.021,0.087-0.106,0.144-0.197,0.124l-0.767-0.173c-0.088-0.021-0.146-0.107-0.123-0.197l0.17-0.754
					C153.096,23.323,153.182,23.27,153.271,23.29z"/>
				<path fill="#5E5E5D" d="M153.059,24.241c-0.02-0.003-0.033-0.027-0.029-0.046l0.173-0.754c0.003-0.02,0.024-0.034,0.047-0.03
					l0.771,0.173c0.02,0.003,0.029,0.027,0.026,0.047l-0.17,0.754c-0.004,0.021-0.024,0.033-0.047,0.03L153.059,24.241z"/>
				<path fill="#585857" d="M154.583,23.583l0.767,0.173c0.088,0.02,0.146,0.107,0.125,0.197l-0.17,0.754
					c-0.021,0.087-0.104,0.144-0.197,0.124l-0.765-0.174c-0.087-0.02-0.143-0.106-0.122-0.196l0.17-0.754
					C154.407,23.62,154.493,23.563,154.583,23.583z"/>
				<path fill="#5E5E5D" d="M154.37,24.534c-0.021-0.003-0.034-0.026-0.03-0.046l0.17-0.754c0.004-0.02,0.027-0.034,0.047-0.03
					l0.771,0.173c0.021,0.003,0.03,0.027,0.026,0.047l-0.174,0.754c-0.003,0.021-0.022,0.033-0.046,0.03L154.37,24.534z"/>
				<path fill="#585857" d="M155.895,23.88l0.77,0.174c0.087,0.02,0.146,0.106,0.124,0.197l-0.17,0.753
					c-0.021,0.087-0.107,0.144-0.197,0.124l-0.771-0.173c-0.086-0.02-0.144-0.107-0.123-0.197l0.173-0.754
					C155.717,23.914,155.807,23.86,155.895,23.88z"/>
				<path fill="#5E5E5D" d="M155.682,24.831c-0.021-0.003-0.033-0.026-0.031-0.046l0.17-0.754c0.007-0.021,0.027-0.034,0.051-0.03
					l0.768,0.173c0.021,0.003,0.032,0.027,0.029,0.047l-0.17,0.754c-0.004,0.02-0.025,0.033-0.047,0.03L155.682,24.831z"/>
				<path fill="#585857" d="M157.205,24.174l0.768,0.173c0.086,0.02,0.146,0.107,0.123,0.197l-0.171,0.754
					c-0.021,0.087-0.106,0.144-0.196,0.124l-0.768-0.173c-0.086-0.02-0.143-0.107-0.123-0.197l0.174-0.754
					C157.027,24.21,157.118,24.154,157.205,24.174z"/>
				<path fill="#5E5E5D" d="M156.991,25.125c-0.021-0.003-0.033-0.027-0.03-0.047l0.171-0.754c0.003-0.02,0.026-0.033,0.046-0.03
					l0.768,0.174c0.021,0.003,0.033,0.026,0.029,0.047l-0.17,0.753c-0.003,0.02-0.022,0.034-0.046,0.03L156.991,25.125z"/>
				<path fill="#585857" d="M141.193,21.856l0.768,0.173c0.087,0.02,0.145,0.106,0.124,0.197l-0.17,0.754
					c-0.021,0.086-0.106,0.143-0.197,0.124l-0.767-0.174c-0.088-0.02-0.145-0.106-0.124-0.197l0.174-0.754
					C141.021,21.893,141.107,21.836,141.193,21.856z"/>
				<path fill="#5E5E5D" d="M140.98,22.807c-0.021-0.003-0.032-0.027-0.029-0.047l0.17-0.754c0.003-0.02,0.027-0.033,0.047-0.03
					l0.768,0.173c0.021,0.003,0.032,0.026,0.029,0.046l-0.17,0.754c-0.004,0.02-0.027,0.034-0.047,0.03L140.98,22.807z"/>
				<path fill="#585857" d="M142.509,22.152l0.767,0.174c0.091,0.02,0.146,0.106,0.123,0.197l-0.17,0.754
					c-0.02,0.086-0.104,0.143-0.192,0.123l-0.771-0.173c-0.086-0.02-0.144-0.106-0.123-0.197l0.17-0.754
					C142.332,22.186,142.419,22.133,142.509,22.152z"/>
				<path fill="#5E5E5D" d="M142.292,23.104c-0.021-0.003-0.033-0.027-0.03-0.047l0.17-0.754c0.004-0.02,0.027-0.033,0.047-0.03
					l0.771,0.174c0.021,0.003,0.033,0.026,0.026,0.047l-0.17,0.753c-0.002,0.02-0.023,0.034-0.047,0.03L142.292,23.104z"/>
				<path fill="#585857" d="M143.818,22.446l0.769,0.173c0.086,0.02,0.144,0.107,0.123,0.197l-0.17,0.754
					c-0.021,0.087-0.106,0.144-0.197,0.124l-0.767-0.173c-0.088-0.02-0.143-0.107-0.123-0.197l0.17-0.754
					C143.643,22.483,143.729,22.426,143.818,22.446z"/>
				<path fill="#5E5E5D" d="M143.605,23.397c-0.021-0.003-0.032-0.027-0.029-0.047l0.17-0.754c0.004-0.02,0.027-0.033,0.047-0.03
					l0.768,0.173c0.021,0.003,0.032,0.027,0.029,0.046l-0.17,0.754c-0.003,0.02-0.027,0.034-0.047,0.03L143.605,23.397z"/>
				<path fill="#585857" d="M145.13,22.74l0.767,0.173c0.088,0.02,0.146,0.107,0.125,0.197l-0.17,0.754
					c-0.021,0.087-0.104,0.144-0.197,0.124l-0.768-0.173c-0.087-0.02-0.144-0.107-0.123-0.197l0.17-0.754
					C144.953,22.776,145.04,22.72,145.13,22.74z"/>
				<path fill="#5E5E5D" d="M144.917,23.69c-0.021-0.003-0.034-0.027-0.03-0.047l0.17-0.754c0.004-0.02,0.027-0.033,0.047-0.03
					l0.771,0.173c0.021,0.003,0.033,0.027,0.026,0.047l-0.17,0.753c-0.004,0.021-0.023,0.034-0.047,0.03L144.917,23.69z"/>
				<path fill="#585857" d="M146.441,23.037l0.768,0.173c0.086,0.02,0.143,0.107,0.123,0.197l-0.17,0.754
					c-0.02,0.086-0.107,0.144-0.197,0.124l-0.767-0.174c-0.087-0.02-0.144-0.106-0.123-0.196l0.17-0.754
					C146.266,23.07,146.355,23.017,146.441,23.037z"/>
				<path fill="#5E5E5D" d="M146.229,23.987c-0.021-0.003-0.035-0.027-0.027-0.047l0.17-0.754c0.003-0.02,0.023-0.033,0.047-0.03
					l0.77,0.173c0.021,0.003,0.03,0.027,0.027,0.047l-0.17,0.754c-0.004,0.02-0.023,0.033-0.047,0.03L146.229,23.987z"/>
				<path fill="#585857" d="M147.752,23.33l0.768,0.173c0.086,0.02,0.146,0.107,0.123,0.197l-0.17,0.754
					c-0.02,0.086-0.104,0.144-0.197,0.123l-0.767-0.173c-0.087-0.02-0.144-0.106-0.124-0.197l0.17-0.754
					C147.575,23.367,147.665,23.31,147.752,23.33z"/>
				<path fill="#5E5E5D" d="M147.539,24.281c-0.02-0.003-0.033-0.027-0.03-0.046l0.171-0.754c0.002-0.021,0.026-0.034,0.047-0.03
					l0.77,0.173c0.021,0.003,0.029,0.027,0.027,0.047l-0.17,0.754c-0.004,0.02-0.024,0.033-0.047,0.03L147.539,24.281z"/>
				<path fill="#585857" d="M149.063,23.627l0.771,0.173c0.087,0.02,0.146,0.107,0.123,0.197l-0.17,0.754
					c-0.021,0.087-0.106,0.144-0.197,0.124l-0.771-0.173c-0.086-0.02-0.143-0.107-0.123-0.197l0.174-0.754
					C148.889,23.66,148.977,23.607,149.063,23.627z"/>
				<path fill="#5E5E5D" d="M148.85,24.578c-0.021-0.003-0.033-0.027-0.031-0.047l0.175-0.753c0.003-0.021,0.022-0.034,0.046-0.03
					l0.77,0.173c0.021,0.003,0.031,0.027,0.027,0.047l-0.17,0.754c-0.003,0.02-0.023,0.033-0.046,0.03L148.85,24.578z"/>
				<path fill="#585857" d="M150.374,23.92l0.767,0.173c0.088,0.02,0.146,0.107,0.123,0.197l-0.17,0.754
					c-0.02,0.086-0.104,0.144-0.197,0.124l-0.767-0.174c-0.086-0.02-0.144-0.106-0.123-0.197l0.17-0.753
					C150.2,23.957,150.287,23.9,150.374,23.92z"/>
				<path fill="#5E5E5D" d="M150.16,24.871c-0.02-0.003-0.033-0.026-0.03-0.046l0.17-0.754c0.005-0.02,0.027-0.034,0.048-0.03
					l0.769,0.173c0.021,0.003,0.03,0.027,0.028,0.047l-0.17,0.754c-0.004,0.02-0.024,0.033-0.048,0.03L150.16,24.871z"/>
				<path fill="#585857" d="M151.686,24.214l0.77,0.174c0.087,0.02,0.146,0.106,0.123,0.197l-0.172,0.753
					c-0.021,0.087-0.104,0.144-0.194,0.124l-0.771-0.173c-0.086-0.02-0.144-0.106-0.123-0.197l0.172-0.754
					C151.512,24.25,151.598,24.194,151.686,24.214z"/>
				<path fill="#5E5E5D" d="M151.471,25.165c-0.02-0.003-0.033-0.026-0.029-0.046l0.17-0.754c0.007-0.021,0.027-0.033,0.05-0.03
					l0.767,0.174c0.021,0.003,0.033,0.026,0.03,0.046l-0.17,0.754c-0.003,0.02-0.027,0.033-0.05,0.03L151.471,25.165z"/>
				<path fill="#585857" d="M152.995,24.511l0.769,0.174c0.086,0.02,0.146,0.106,0.123,0.196l-0.171,0.754
					c-0.021,0.087-0.106,0.144-0.196,0.124l-0.768-0.173c-0.087-0.02-0.143-0.107-0.123-0.197l0.17-0.754
					C152.822,24.544,152.909,24.491,152.995,24.511z"/>
				<path fill="#5E5E5D" d="M152.782,25.461c-0.021-0.003-0.033-0.026-0.03-0.046l0.17-0.754c0.004-0.02,0.027-0.033,0.047-0.03
					l0.768,0.174c0.021,0.003,0.033,0.026,0.029,0.046l-0.17,0.754c-0.003,0.02-0.027,0.033-0.047,0.03L152.782,25.461z"/>
				<path fill="#585857" d="M154.311,24.804l0.77,0.174c0.087,0.02,0.146,0.106,0.123,0.197l-0.172,0.754
					c-0.021,0.086-0.105,0.143-0.195,0.123l-0.77-0.173c-0.088-0.02-0.144-0.107-0.123-0.197l0.173-0.754
					C154.133,24.841,154.221,24.784,154.311,24.804z"/>
				<path fill="#5E5E5D" d="M154.093,25.755c-0.02-0.003-0.034-0.026-0.03-0.046l0.17-0.754c0.004-0.02,0.027-0.033,0.047-0.03
					l0.771,0.174c0.021,0.003,0.033,0.026,0.03,0.046l-0.17,0.754c-0.008,0.02-0.027,0.033-0.051,0.03L154.093,25.755z"/>
				<path fill="#585857" d="M155.621,25.101l0.768,0.174c0.086,0.02,0.146,0.106,0.123,0.197l-0.171,0.753
					c-0.021,0.087-0.106,0.144-0.196,0.124l-0.768-0.173c-0.087-0.02-0.143-0.107-0.123-0.197l0.17-0.754
					C155.443,25.135,155.531,25.081,155.621,25.101z"/>
				<path fill="#5E5E5D" d="M155.407,26.052c-0.021-0.003-0.033-0.026-0.03-0.046l0.17-0.754c0.004-0.02,0.027-0.033,0.047-0.03
					l0.768,0.173c0.021,0.004,0.033,0.027,0.029,0.047l-0.17,0.754c-0.003,0.02-0.025,0.033-0.046,0.03L155.407,26.052z"/>
				<path fill="#585857" d="M156.932,25.395l0.771,0.174c0.087,0.02,0.144,0.106,0.123,0.197l-0.173,0.754
					c-0.021,0.086-0.104,0.143-0.194,0.123l-0.771-0.173c-0.086-0.02-0.143-0.104-0.123-0.197l0.17-0.754
					C156.755,25.432,156.842,25.375,156.932,25.395z"/>
				<path fill="#5E5E5D" d="M156.718,26.346c-0.02-0.003-0.032-0.027-0.03-0.047l0.17-0.754c0.004-0.02,0.027-0.033,0.047-0.03
					l0.771,0.174c0.021,0.003,0.033,0.026,0.03,0.047l-0.17,0.753c-0.006,0.02-0.027,0.034-0.051,0.03L156.718,26.346z"/>
				<path fill="#585857" d="M140.921,23.077l0.767,0.173c0.088,0.02,0.146,0.106,0.125,0.197l-0.17,0.754
					c-0.021,0.086-0.104,0.143-0.197,0.124l-0.768-0.174c-0.087-0.02-0.144-0.106-0.123-0.197l0.17-0.754
					C140.748,23.113,140.835,23.057,140.921,23.077z"/>
				<path fill="#5E5E5D" d="M140.708,24.027c-0.021-0.003-0.034-0.027-0.031-0.047l0.171-0.754c0.004-0.02,0.026-0.033,0.047-0.03
					l0.77,0.173c0.021,0.003,0.031,0.026,0.027,0.047l-0.17,0.753c-0.004,0.02-0.023,0.034-0.047,0.03L140.708,24.027z"/>
				<path fill="#585857" d="M142.232,23.37l0.767,0.173c0.087,0.02,0.144,0.107,0.123,0.197l-0.17,0.754
					c-0.021,0.087-0.106,0.144-0.197,0.124l-0.767-0.174c-0.086-0.02-0.146-0.106-0.123-0.197l0.17-0.754
					C142.059,23.407,142.145,23.354,142.232,23.37z"/>
				<path fill="#5E5E5D" d="M142.02,24.324c-0.021-0.003-0.035-0.027-0.028-0.047l0.171-0.754c0.003-0.02,0.023-0.033,0.046-0.03
					l0.771,0.173c0.021,0.003,0.03,0.027,0.027,0.047l-0.171,0.754c-0.003,0.02-0.022,0.033-0.046,0.03L142.02,24.324z"/>
				<path fill="#585857" d="M143.542,23.667l0.769,0.173c0.086,0.02,0.146,0.107,0.123,0.197l-0.17,0.754
					c-0.021,0.087-0.104,0.144-0.197,0.124l-0.768-0.173c-0.087-0.02-0.145-0.107-0.123-0.197l0.17-0.754
					C143.369,23.704,143.456,23.647,143.542,23.667z"/>
				<path fill="#5E5E5D" d="M143.329,24.618c-0.021-0.003-0.033-0.027-0.03-0.047l0.17-0.754c0.004-0.02,0.027-0.033,0.047-0.03
					l0.771,0.173c0.021,0.003,0.03,0.027,0.026,0.047l-0.17,0.753c-0.002,0.021-0.023,0.034-0.047,0.03L143.329,24.618z"/>
				<path fill="#585857" d="M144.857,23.96l0.767,0.173c0.087,0.02,0.144,0.107,0.124,0.197l-0.17,0.754
					c-0.02,0.087-0.107,0.144-0.197,0.124l-0.768-0.173c-0.086-0.02-0.146-0.107-0.123-0.197l0.17-0.754
					C144.68,23.997,144.768,23.94,144.857,23.96z"/>
				<path fill="#5E5E5D" d="M144.641,24.911c-0.021-0.003-0.033-0.027-0.031-0.047l0.17-0.754c0.008-0.02,0.027-0.033,0.051-0.03
					l0.77,0.173c0.02,0.003,0.031,0.027,0.027,0.047l-0.17,0.754c-0.003,0.02-0.025,0.033-0.047,0.03L144.641,24.911z"/>
				<path fill="#585857" d="M146.168,24.257l0.768,0.173c0.086,0.021,0.146,0.107,0.123,0.197l-0.17,0.754
					c-0.021,0.086-0.104,0.143-0.197,0.123l-0.768-0.173c-0.087-0.02-0.143-0.107-0.123-0.197l0.17-0.754
					C145.991,24.291,146.078,24.237,146.168,24.257z"/>
				<path fill="#5E5E5D" d="M145.954,25.208c-0.021-0.003-0.033-0.027-0.03-0.047l0.17-0.754c0.004-0.02,0.027-0.033,0.047-0.03
					l0.771,0.173c0.021,0.003,0.03,0.027,0.026,0.047l-0.17,0.754c-0.002,0.02-0.022,0.033-0.045,0.03L145.954,25.208z"/>
				<path fill="#585857" d="M147.479,24.551l0.771,0.173c0.087,0.02,0.146,0.107,0.123,0.197l-0.17,0.754
					c-0.021,0.087-0.106,0.144-0.197,0.124l-0.771-0.173c-0.086-0.02-0.143-0.107-0.123-0.197l0.174-0.754
					C147.302,24.587,147.389,24.531,147.479,24.551z"/>
				<path fill="#5E5E5D" d="M147.266,25.501c-0.021-0.003-0.033-0.027-0.031-0.047l0.17-0.753c0.007-0.021,0.027-0.034,0.051-0.03
					l0.77,0.173c0.02,0.003,0.03,0.027,0.027,0.047l-0.17,0.754c-0.004,0.02-0.025,0.033-0.047,0.03L147.266,25.501z"/>
				<path fill="#585857" d="M148.79,24.844l0.767,0.173c0.088,0.02,0.146,0.107,0.123,0.197l-0.17,0.754
					c-0.02,0.087-0.107,0.144-0.197,0.124l-0.767-0.173c-0.086-0.02-0.144-0.107-0.123-0.197l0.17-0.754
					C148.613,24.881,148.7,24.828,148.79,24.844z"/>
				<path fill="#5E5E5D" d="M148.576,25.798c-0.02-0.003-0.033-0.027-0.03-0.047l0.17-0.753c0.003-0.021,0.027-0.034,0.048-0.03
					l0.769,0.173c0.021,0.003,0.03,0.027,0.028,0.047l-0.17,0.754c-0.004,0.02-0.024,0.033-0.048,0.03L148.576,25.798z"/>
				<path fill="#585857" d="M150.1,25.141l0.771,0.173c0.086,0.021,0.146,0.107,0.123,0.197l-0.174,0.753
					c-0.02,0.087-0.104,0.144-0.193,0.124l-0.77-0.173c-0.088-0.02-0.145-0.107-0.125-0.197l0.172-0.754
					C149.924,25.175,150.014,25.121,150.1,25.141z"/>
				<path fill="#5E5E5D" d="M149.887,26.092c-0.02-0.003-0.033-0.026-0.029-0.046l0.17-0.754c0.002-0.02,0.027-0.034,0.05-0.03
					l0.767,0.173c0.021,0.003,0.033,0.027,0.03,0.047l-0.17,0.754c-0.003,0.02-0.027,0.033-0.05,0.03L149.887,26.092z"/>
				<path fill="#585857" d="M151.411,25.435l0.767,0.174c0.088,0.02,0.146,0.106,0.124,0.197l-0.171,0.753
					c-0.02,0.087-0.105,0.144-0.195,0.124l-0.769-0.173c-0.086-0.02-0.144-0.106-0.123-0.197l0.17-0.754
					C151.234,25.471,151.324,25.415,151.411,25.435z"/>
				<path fill="#5E5E5D" d="M151.198,26.385c-0.021-0.003-0.034-0.026-0.03-0.046l0.17-0.754c0.003-0.02,0.025-0.033,0.046-0.03
					l0.769,0.174c0.021,0.003,0.033,0.026,0.029,0.046l-0.174,0.754c-0.003,0.02-0.025,0.033-0.046,0.03L151.198,26.385z"/>
				<path fill="#585857" d="M152.723,25.731l0.769,0.174c0.088,0.02,0.146,0.104,0.125,0.197l-0.175,0.753
					c-0.02,0.087-0.104,0.144-0.192,0.124l-0.771-0.173c-0.086-0.02-0.144-0.107-0.123-0.197l0.17-0.754
					C152.549,25.765,152.635,25.711,152.723,25.731z"/>
				<path fill="#5E5E5D" d="M152.508,26.682c-0.02-0.003-0.033-0.023-0.029-0.046l0.17-0.754c0.004-0.02,0.026-0.033,0.047-0.03
					l0.77,0.174c0.021,0.003,0.034,0.026,0.03,0.046l-0.17,0.754c-0.007,0.02-0.027,0.033-0.05,0.03L152.508,26.682z"/>
				<path fill="#585857" d="M154.033,26.025l0.767,0.174c0.087,0.02,0.144,0.106,0.124,0.197l-0.17,0.754
					c-0.02,0.086-0.107,0.143-0.197,0.123L153.79,27.1c-0.087-0.02-0.144-0.107-0.124-0.197l0.17-0.754
					C153.859,26.062,153.945,26.005,154.033,26.025z"/>
				<path fill="#5E5E5D" d="M153.818,26.976c-0.021-0.003-0.032-0.026-0.029-0.046l0.17-0.754c0.004-0.02,0.027-0.033,0.047-0.03
					l0.768,0.174c0.021,0.003,0.033,0.026,0.029,0.046l-0.17,0.754c-0.003,0.02-0.025,0.033-0.047,0.03L153.818,26.976z"/>
				<path fill="#585857" d="M155.344,26.319l0.768,0.173c0.09,0.02,0.146,0.106,0.123,0.197l-0.17,0.754
					c-0.021,0.086-0.104,0.143-0.194,0.124l-0.771-0.174c-0.086-0.02-0.143-0.106-0.123-0.197l0.17-0.754
					C155.17,26.355,155.257,26.299,155.344,26.319z"/>
				<path fill="#5E5E5D" d="M155.13,27.272c-0.021-0.003-0.032-0.026-0.03-0.046l0.17-0.754c0.004-0.02,0.027-0.033,0.047-0.03
					l0.771,0.173c0.021,0.004,0.034,0.027,0.029,0.047l-0.173,0.75c-0.002,0.02-0.022,0.034-0.045,0.03L155.13,27.272z"/>
				<path fill="#585857" d="M156.658,26.615l0.767,0.174c0.087,0.02,0.144,0.106,0.123,0.197l-0.17,0.754
					c-0.021,0.086-0.106,0.143-0.196,0.123l-0.768-0.173c-0.086-0.02-0.143-0.106-0.123-0.197l0.17-0.754
					C156.48,26.649,156.568,26.596,156.658,26.615z"/>
				<path fill="#5E5E5D" d="M156.441,27.566c-0.021-0.003-0.033-0.027-0.03-0.047l0.17-0.754c0.003-0.02,0.026-0.033,0.047-0.03
					l0.767,0.174c0.021,0.003,0.033,0.026,0.03,0.047l-0.17,0.753c-0.003,0.02-0.026,0.034-0.047,0.03L156.441,27.566z"/>
				<path fill="#585857" d="M140.646,24.297l0.768,0.173c0.087,0.021,0.145,0.107,0.124,0.197l-0.17,0.754
					c-0.021,0.086-0.106,0.143-0.197,0.123l-0.767-0.173c-0.088-0.02-0.146-0.107-0.125-0.197l0.172-0.754
					C140.471,24.334,140.561,24.277,140.646,24.297z"/>
				<path fill="#5E5E5D" d="M140.434,25.248c-0.02-0.003-0.033-0.027-0.029-0.047l0.173-0.754c0.003-0.021,0.024-0.033,0.047-0.03
					l0.771,0.173c0.02,0.003,0.029,0.027,0.026,0.047l-0.17,0.754c-0.003,0.02-0.024,0.033-0.047,0.03L140.434,25.248z"/>
				<path fill="#585857" d="M141.958,24.591l0.769,0.174c0.086,0.02,0.146,0.106,0.123,0.196l-0.17,0.754
					c-0.021,0.087-0.104,0.144-0.197,0.124l-0.768-0.173c-0.087-0.02-0.145-0.107-0.124-0.197l0.171-0.754
					C141.782,24.628,141.872,24.571,141.958,24.591z"/>
				<path fill="#5E5E5D" d="M141.745,25.542c-0.021-0.003-0.033-0.027-0.03-0.046l0.17-0.754c0.004-0.02,0.027-0.034,0.047-0.03
					l0.771,0.174c0.021,0.003,0.03,0.026,0.026,0.046l-0.17,0.754c-0.002,0.02-0.023,0.033-0.047,0.03L141.745,25.542z"/>
				<path fill="#585857" d="M143.27,24.888l0.771,0.173c0.086,0.02,0.146,0.107,0.123,0.197l-0.17,0.754
					c-0.021,0.087-0.106,0.144-0.197,0.124l-0.771-0.173c-0.086-0.02-0.144-0.107-0.123-0.197l0.177-0.754
					C143.096,24.921,143.184,24.868,143.27,24.888z"/>
				<path fill="#5E5E5D" d="M143.057,25.838c-0.021-0.003-0.035-0.027-0.031-0.047l0.17-0.754c0.007-0.02,0.027-0.033,0.05-0.03
					l0.769,0.173c0.021,0.003,0.032,0.027,0.029,0.047l-0.17,0.753c-0.004,0.021-0.025,0.034-0.047,0.03L143.057,25.838z"/>
				<path fill="#585857" d="M144.58,25.182l0.768,0.173c0.086,0.02,0.146,0.106,0.123,0.197l-0.171,0.754
					c-0.021,0.086-0.106,0.143-0.196,0.123l-0.767-0.173c-0.087-0.02-0.144-0.107-0.124-0.197l0.17-0.754
					C144.407,25.218,144.493,25.161,144.58,25.182z"/>
				<path fill="#5E5E5D" d="M144.367,26.132c-0.02-0.003-0.034-0.026-0.03-0.046l0.17-0.754c0.003-0.02,0.027-0.034,0.048-0.03
					l0.766,0.173c0.021,0.003,0.033,0.026,0.031,0.046l-0.17,0.754c-0.005,0.02-0.024,0.033-0.048,0.03L144.367,26.132z"/>
				<path fill="#585857" d="M150.59,26.532l-4.706-1.057c-0.087-0.02-0.17,0.033-0.19,0.12l-0.184,0.813
					c-0.013,0.061,0.024,0.12,0.084,0.134l4.75,1.067c0.086,0.02,0.176-0.037,0.196-0.124l0.17-0.754
					C150.734,26.642,150.68,26.552,150.59,26.532z"/>
				<path fill="#5E5E5D" d="M145.641,26.419l0.18-0.797c0.007-0.017,0.023-0.03,0.041-0.023l4.705,1.058
					c0.021,0.003,0.033,0.026,0.031,0.046l-0.171,0.754c-0.003,0.02-0.026,0.033-0.047,0.03L145.641,26.419z"/>
				<path fill="#585857" d="M151.139,26.656l0.769,0.173c0.088,0.02,0.145,0.107,0.125,0.197l-0.175,0.754
					c-0.02,0.087-0.104,0.144-0.192,0.124l-0.771-0.174c-0.086-0.02-0.144-0.106-0.123-0.197l0.17-0.753
					C150.961,26.692,151.048,26.636,151.139,26.656z"/>
				<path fill="#5E5E5D" d="M150.924,27.606c-0.02-0.003-0.033-0.027-0.029-0.047l0.17-0.754c0.004-0.02,0.026-0.033,0.047-0.03
					l0.77,0.173c0.021,0.003,0.034,0.027,0.03,0.047l-0.173,0.754c-0.004,0.02-0.024,0.033-0.047,0.03L150.924,27.606z"/>
				<path fill="#585857" d="M152.449,26.953l0.767,0.173c0.086,0.02,0.144,0.107,0.123,0.197l-0.17,0.754
					c-0.021,0.087-0.106,0.144-0.196,0.124l-0.768-0.174c-0.087-0.02-0.143-0.106-0.123-0.197l0.17-0.753
					C152.271,26.986,152.361,26.933,152.449,26.953z"/>
				<path fill="#5E5E5D" d="M152.234,27.903c-0.021-0.003-0.032-0.027-0.029-0.047l0.17-0.754c0.004-0.02,0.027-0.033,0.047-0.03
					l0.768,0.173c0.021,0.003,0.033,0.027,0.029,0.047l-0.17,0.754c-0.003,0.02-0.027,0.033-0.047,0.03L152.234,27.903z"/>
				<path fill="#585857" d="M153.759,27.246l0.767,0.173c0.091,0.02,0.146,0.107,0.125,0.197l-0.17,0.754
					c-0.021,0.087-0.104,0.144-0.194,0.124l-0.771-0.173c-0.086-0.02-0.144-0.107-0.123-0.197l0.17-0.753
					C153.582,27.283,153.672,27.226,153.759,27.246z"/>
				<path fill="#5E5E5D" d="M153.546,28.197c-0.021-0.003-0.032-0.027-0.03-0.047l0.17-0.754c0.004-0.02,0.027-0.033,0.047-0.03
					l0.771,0.173c0.021,0.003,0.033,0.027,0.029,0.047l-0.173,0.753c-0.004,0.021-0.021,0.034-0.047,0.03L153.546,28.197z"/>
				<path fill="#585857" d="M155.07,27.54l0.767,0.173c0.087,0.02,0.144,0.106,0.124,0.197l-0.17,0.754
					c-0.02,0.086-0.107,0.143-0.197,0.124l-0.767-0.174c-0.087-0.021-0.144-0.106-0.124-0.197l0.17-0.754
					C154.896,27.576,154.982,27.52,155.07,27.54z"/>
				<path fill="#5E5E5D" d="M154.855,28.49c-0.021-0.003-0.032-0.026-0.029-0.047l0.171-0.754c0.003-0.02,0.026-0.033,0.046-0.03
					l0.768,0.173c0.021,0.003,0.033,0.027,0.029,0.047l-0.17,0.754c-0.003,0.02-0.025,0.033-0.046,0.03L154.855,28.49z"/>
				<path fill="#585857" d="M156.381,27.836l0.768,0.173c0.086,0.02,0.146,0.107,0.123,0.197l-0.17,0.754
					c-0.02,0.087-0.104,0.144-0.197,0.124l-0.766-0.173c-0.088-0.02-0.145-0.107-0.125-0.197l0.17-0.754
					C156.208,27.87,156.295,27.816,156.381,27.836z"/>
				<path fill="#5E5E5D" d="M156.168,28.787c-0.02-0.003-0.033-0.027-0.029-0.047l0.17-0.754c0.002-0.02,0.026-0.033,0.047-0.03
					l0.77,0.173c0.021,0.003,0.029,0.027,0.027,0.047l-0.17,0.754c-0.004,0.02-0.024,0.033-0.047,0.03L156.168,28.787z"/>
				<path fill="#EDEDED" d="M150.354,28.66l-3.85-0.864c-0.173-0.04-0.346,0.07-0.383,0.244l-0.464,2.058
					c-0.04,0.174,0.069,0.347,0.243,0.384l3.85,0.864c0.173,0.04,0.348-0.07,0.384-0.244l0.464-2.058
					C150.637,28.87,150.527,28.7,150.354,28.66z"/>
				<path fill="#9D9B9B" d="M150.384,28.537l-3.85-0.864c-0.24-0.054-0.479,0.097-0.533,0.337l-0.464,2.058
					c-0.053,0.24,0.097,0.48,0.337,0.534l3.849,0.864c0.24,0.053,0.481-0.097,0.534-0.337l0.464-2.058
					C150.773,28.83,150.624,28.593,150.384,28.537z M150.137,31.102c-0.039,0.174-0.21,0.284-0.384,0.244l-3.849-0.864
					c-0.174-0.04-0.283-0.21-0.243-0.384l0.463-2.058c0.04-0.173,0.21-0.283,0.384-0.243l3.85,0.864
					c0.172,0.04,0.283,0.21,0.242,0.384L150.137,31.102z"/>
				<path fill="#DFDFDE" d="M145.889,29.083l-0.228,1.014c-0.04,0.173,0.069,0.347,0.243,0.384l3.85,0.864
					c0.173,0.04,0.346-0.07,0.383-0.244l0.229-1.014L145.889,29.083z"/>
				<path fill="#D9D9DA" d="M148.109,29.581l-2.221-0.5l-0.229,1.014c-0.04,0.173,0.067,0.347,0.241,0.383l1.908,0.431
					L148.109,29.581z"/>
				<path fill="#E3E1E1" d="M159.59,22.753l-18.898-4.25c-0.107-0.026-0.188-0.13-0.178-0.243l1.979-10.814
					c0.026-0.297,0.307-0.5,0.597-0.434l19.249,4.33c0.291,0.066,0.457,0.37,0.354,0.65l-2.838,10.617
					C159.813,22.716,159.703,22.78,159.59,22.753z"/>
				<path fill="#C7C7C6" d="M141.338,17.466l1.825-9.129c0.026-0.28,0.29-0.474,0.563-0.41l17.642,3.966
					c0.272,0.06,0.43,0.35,0.333,0.614l-2.254,9.029c-0.08,0.22-0.313,0.343-0.541,0.293l-17.204-3.869
					C141.471,17.91,141.318,17.696,141.338,17.466z"/>
				<path fill="#C6E6F2" d="M141.465,17.479l1.824-9.136c0.02-0.203,0.21-0.343,0.41-0.296l17.648,3.969
					c0.193,0.043,0.313,0.254,0.24,0.444l-2.261,9.036c-0.06,0.16-0.228,0.25-0.394,0.213l-17.215-3.873
					C141.561,17.8,141.448,17.646,141.465,17.479z"/>
				<path opacity="0.24" fill="#B6E0ED" enable-background="new    " d="M141.738,16.605c0.326-0.587,0.771-1.141,1.268-1.601
					c1.28-1.191,3.064-1.848,4.746-2.208c1.98-0.427,4.2-1.301,6.214-1.124c2.796,0.24,4.687,0.667,7.335,1.578l0.29-0.791
					c0.07-0.19-0.043-0.4-0.243-0.444L143.7,8.046c-0.196-0.043-0.392,0.097-0.41,0.296l-1.794,8.806
					C141.555,16.953,141.65,16.762,141.738,16.605z"/>
				<path fill="#585857" d="M156.852,22.139l-13.449-3.025l0.01-0.227l13.561,3.048L156.852,22.139z"/>
				<path fill="#3C3C3B" d="M152.473,9.548c0.021-0.083,0.104-0.137,0.188-0.117c0.083,0.021,0.137,0.104,0.114,0.187
					c-0.021,0.083-0.104,0.137-0.188,0.117C152.505,9.718,152.452,9.634,152.473,9.548z"/>
				<path fill="#585857" d="M152.516,9.558c0.017-0.06,0.073-0.097,0.133-0.083c0.063,0.014,0.1,0.074,0.084,0.134
					c-0.014,0.06-0.07,0.097-0.133,0.083C152.539,9.678,152.502,9.618,152.516,9.558z"/>
				<path fill="#B6E0ED" d="M152.579,9.574c0.006-0.023,0.03-0.04,0.053-0.033s0.04,0.03,0.033,0.053
					c-0.006,0.023-0.03,0.04-0.054,0.034C152.589,9.621,152.572,9.598,152.579,9.574z"/>
			</g>
			<path fill="#FDFFFC" d="M32.808,84.637c-0.897-3.791-4.688-6.129-8.459-5.229c-3.776,0.9-6.105,4.708-5.208,8.494
				c0.632,2.66,2.69,4.604,5.167,5.214c0.143,0.379,0.408,2.677,0.881,3.414c0.214,0.331,0.484,0.389,0.897,0.301
				c0.332,1.183,1.717,2.269,2.859,2.16c0.8-0.077,1.381-0.63,1.641-1.371c0.204-0.578,0.367-1.244,0.469-1.89
				c0.55-0.018,0.815-0.071,0.79-0.588c-0.046-0.896-1.014-3.361-1.05-3.74C32.553,89.729,33.409,87.18,32.808,84.637z"/>
			<path fill="#AEB4FC" d="M29.154,84.382c-0.107-0.384-0.484-0.64-0.882-0.542c-0.372,0.086-0.652,0.501-0.54,0.885
				c0.066,0.235,0.24,0.426,0.449,0.512c-0.153,0.992-0.347,1.973-0.428,2.976c-0.077,0.935-0.153,1.843-0.357,2.748
				c-1.105-1.663-2.207-3.319-3.424-4.899c0.336-0.322,0.082-1.045-0.484-0.91c-0.667,0.158-0.423,1.201,0.25,1.043
				c0.005,0,0.01-0.006,0.015-0.01c1.264,1.795,2.502,3.614,3.532,5.563c0.112,0.209,0.417,0.163,0.489-0.053
				c0.336-1.002,0.433-2.025,0.504-3.074c0.082-1.131,0.301-2.241,0.393-3.367C29.011,85.134,29.256,84.745,29.154,84.382z"/>
			<path fill="#808AFF" d="M20.668,78.201c-1.422-0.707-2.849-1.417-4.271-2.129c-0.295-0.143-0.565,0.282-0.27,0.44
				c1.386,0.767,2.777,1.53,4.164,2.297C20.699,79.035,21.076,78.405,20.668,78.201z"/>
			<path fill="#808AFF" d="M23.344,72.777c-0.117-0.261-0.454-0.072-0.428,0.164c0.173,1.474,0.719,2.978,1.146,4.4
				c0.107,0.348,0.642,0.23,0.556-0.133C24.267,75.744,23.961,74.153,23.344,72.777z"/>
			<path fill="#808AFF" d="M29.969,72.347c-0.367,0.322-0.591,0.834-0.82,1.264c-0.24,0.45-0.454,0.911-0.658,1.376
				c-0.163,0.378,0.464,0.578,0.622,0.189c0.189-0.476,0.393-0.937,0.627-1.392c0.199-0.394,0.489-0.778,0.606-1.202
				C30.413,72.352,30.137,72.193,29.969,72.347z"/>
		</g>
	</g>
</g>
<g id="Layer_2_1_">
	<g>
		<g>
			<g>
				<g>
					<path fill="#DE9F7E" d="M96.367,52.729c-0.027,1.622-0.055,3.258-0.18,4.879c-0.083,0.957-0.195,1.913-0.485,2.83
						c-0.292,0.927-0.859,1.718-1.207,2.62c-0.305,0.818-0.499,1.665-0.595,2.523c-0.084,0.61-0.111,1.22-0.111,1.831h-18.69
						c0.069-1.165,0.042-2.33-0.249-3.494c-0.277-1.095-0.916-2.039-1.304-3.106c-0.554-1.567-0.5-3.147-0.666-4.77
						c-0.167-1.706-0.333-3.424-0.429-5.144c-0.069-1.095,0.096-2.717,0.166-3.826c0.028-0.348,0-1.346,0.444-1.512
						c2.717-0.499,7.404-4.076,7.404-4.076c0.181-0.417,0.263-0.97,0.305-1.552c0.014-0.236,0.028-0.473,0.028-0.709
						c0-0.526-0.028-1.053-0.055-1.524c1.261,0.693,2.828,0.875,4.229,0.875c1.275,0,2.579-0.181,3.799-0.57
						c-0.014,0.306-0.041,0.625-0.041,0.958c0,0.25,0,0.485,0.014,0.735c0.041,0.804,0.18,1.608,0.513,2.218
						c0.084,0.11,0.166,0.208,0.264,0.25c1.72,0.928,4.464,2.995,6.724,3.396c0.236,0.611,0.111,1.512,0.125,2.135
						C96.383,49.208,96.395,51.217,96.367,52.729z"/>
					<path fill="#D38A6A" d="M88.715,38.961c0,0.152,0,0.305,0,0.458c-0.277,0.333-0.709,0.776-1.317,1.22
						c-0.735,0.54-1.512,1.11-2.593,1.151c-1.041,0.042-1.831-0.416-2.426-0.749c-0.763-0.445-1.29-0.957-1.595-1.317
						c0-0.166,0.014-0.333,0.014-0.5c0-0.526-0.014-1.04-0.055-1.524c1.261,0.693,2.828,0.875,4.229,0.875
						c1.275,0,2.579-0.181,3.799-0.57C88.729,38.31,88.715,38.629,88.715,38.961z"/>
					<path fill="#DE9F7E" d="M79.286,32.071c-0.124-0.459,0.125-0.598-0.374-0.819c-0.417-0.18-0.791,0.637-0.888,1.206
						c-0.096,0.583,0.5,2.592,0.832,2.885c0.333,0.277,0.763,0.374,0.889-0.111L79.286,32.071z"/>
					<path fill="#DE9F7E" d="M90.101,30.406c0.25,2.412,0.458,4.895-0.859,7.224c-0.111,0.194-0.541,0.929-1.304,1.677
						c-0.651,0.639-1.58,1.387-2.898,1.664c-0.249,0.056-0.513,0.056-0.761,0c-1.97-0.417-3.592-2.26-4.077-3.064l0,0
						c-0.055-0.083-0.125-0.179-0.18-0.304c-0.069-0.125-0.11-0.25-0.153-0.347l0,0c-0.457-1.261-0.583-4.797-0.665-6.835
						c-0.208-2.801,1.524-5.213,4.381-6.058c0.346-0.098,0.707-0.154,1.053-0.154l0,0c0.027,0,0.057,0,0.083,0
						c0.318,0,0.625,0.042,4.34,2.302C90.101,27.121,89.894,28.452,90.101,30.406z"/>
				</g>
				<g>
					<path fill="#D34047" d="M73.269,48.541c-1.233-0.665-2.44-1.427-3.425-2.412c-2.273,3.3-5.129,7.515-5.851,9.026
						c1.456,1.081,4.742,3.286,6.184,5.504l0.818-1.165l3.105-4.478c0.985-1.511,1.969-3.022,2.953-4.547
						C75.792,49.831,74.516,49.208,73.269,48.541z"/>
				</g>
				<path fill="#B7303D" d="M71.494,58.898c-2.371-1.789-4.728-3.563-7.1-5.352c-0.387,0.514-0.804,1.067-1.206,1.691
					c-0.36,0.541-0.679,1.083-0.957,1.581c2.287,1.733,4.589,3.48,6.877,5.214c0.333-0.404,0.68-0.819,1.026-1.276
					C70.648,60.12,71.092,59.495,71.494,58.898z"/>
				<path fill="#DE9F7E" d="M77.29,137.442c-0.25-1.553-0.597-3.757-1.138-6.488c-0.277-1.456-0.666-3.3-1.15-5.463
					c0,0,3.299-3.258,6.128-1.705c2.107,1.15,1.414,5.364,0.637,13.851c-0.083,0.944-0.166,1.719-0.221,2.302
					c-1.289,0-2.579,0-3.869,0C77.581,139.314,77.457,138.454,77.29,137.442z"/>
				<path fill="#DE9F7E" d="M93.123,137.442c0.25-1.553,0.596-3.757,1.137-6.488c0.278-1.456,0.665-3.3,1.15-5.463
					c0,0-3.313-3.271-6.128-1.705c-2.011,1.123-1.413,5.364-0.638,13.851c0.084,0.944,0.167,1.719,0.222,2.302
					c1.29,0,2.579,0,3.869,0C92.833,139.314,92.957,138.454,93.123,137.442z"/>
				<path fill="#FFFFFF" d="M71.508,85.63c-0.61,8.028-0.846,14.933-0.916,20.368c-0.194,13.601,0.583,17.746,3.619,20.215
					c2.538,2.065,5.837,2.288,8.333,2.106c0.652-3.285,1.22-6.862,1.664-10.676c0.457-3.979,0.707-7.723,0.818-11.188
					c-0.402-6.642-0.805-13.27-1.207-19.909C79.716,86.239,75.612,85.935,71.508,85.63z"/>
				<path fill="#FFFFFF" d="M97.491,85.117c1.69,5.254,5.42,36.313-2.885,43.133c-1.095,1.816-5.324,1.97-6.655,0.486
					c-0.638-3.384-1.233-6.891-1.788-10.496c-0.721-4.715-1.289-9.276-1.761-13.671c-0.276-1.831-0.499-3.827-0.609-5.962
					c-0.223-4.59,0.138-8.652,0.679-12.049C85.928,85.006,96.035,84.229,97.491,85.117z"/>
				<g>
					<g>
						<path fill="#D3D3D3" d="M82.129,108.867c0.319,4.076-2.343,8.306-6.156,9.775C79.009,115.689,80.77,112.902,82.129,108.867
							L82.129,108.867z"/>
					</g>
					<g>
						<path fill="#D3D3D3" d="M82.489,112.36c1.275,3.62-0.152,8.111-3.272,10.344c0.458-0.846,0.901-1.649,1.275-2.468
							C81.685,117.74,82.225,115.106,82.489,112.36L82.489,112.36z"/>
					</g>
					<g>
						<path fill="#D3D3D3" d="M87.147,109.755c1.013,1.554,1.899,3.077,2.967,4.562c1.04,1.498,2.163,2.87,3.272,4.34
							C90.143,117.006,87.591,113.359,87.147,109.755L87.147,109.755z"/>
					</g>
					<g>
						<path fill="#D3D3D3" d="M86.454,113.248c0.625,1.567,1.192,3.051,1.956,4.521c0.747,1.47,1.636,2.801,2.535,4.229
							C88.006,120.349,86.08,116.576,86.454,113.248L86.454,113.248z"/>
					</g>
					<g>
						<path fill="#D3D3D3" d="M81.809,104.985c0.056,2.925-2.162,5.989-4.978,6.85c0.486-0.583,0.957-1.11,1.4-1.65
							C79.633,108.563,80.7,106.829,81.809,104.985L81.809,104.985z"/>
					</g>
					<g>
						<path fill="#D3D3D3" d="M87.577,105.748c0.734,0.845,1.58,2.052,2.26,2.926c0.68,0.901,1.608,2.01,2.219,2.967
							C89.698,110.836,87.716,108.242,87.577,105.748L87.577,105.748z"/>
					</g>
					<path fill="#FFFFFF" stroke="#D3D3D3" stroke-width="4.53" stroke-miterlimit="10" d="M88.312,90.69
						c0.319,0.971-0.013,2.274-0.042,3.176c-0.041,2.038,0,4.075,0.029,6.114c0.068,4.118,0.305,8.262,0.139,12.38
						c-0.027,0.598,0.014,1.29-0.195,1.858c-0.734,1.969-5.102,2.648-6.724-0.235c-0.624-1.123-0.527-2.745-0.542-3.979
						c-0.014-2.149,0.153-4.298,0.333-6.448c0.334-3.937,0.722-7.902,1.179-11.825c0.222-1.886,2.593-2.482,4.159-2.247
						c0.486,0.069,0.999,0.236,1.318,0.609C88.133,90.274,88.242,90.469,88.312,90.69z"/>
				</g>
				<path fill="#D34047" d="M98.434,88.445c-3.438,1.191-8.776,2.578-15.391,2.439c-4.935-0.111-9.04-1.039-12.02-1.968
					c0.734-5.561,1.262-9.36,1.469-10.718c0.041-0.306,0.195-1.262,0.319-2.565c0.041-0.403,0.069-0.832,0.097-1.29
					c0.111-1.733,0.055-2.703,0.042-5.352c-0.028-3.979-0.055-3.772,0.014-5.311c0.014-0.374,0.014-0.763,0.014-1.15
					c-0.056-1.775-0.361-3.606-0.595-4.783c-0.154-0.75-0.264-1.221-0.264-1.221c-0.5-1.982-1.054-5.158-1.207-10.495
					c0-0.167-0.014-0.333-0.014-0.514c0.61-0.194,1.193-0.375,1.719-0.555c2.801-0.929,4.534-1.594,5.533-2.094
					c0.277-0.139,0.499-0.264,0.665-0.374c0.305-0.195,0.458-0.346,0.513-0.472c0.027-0.083,0.18-0.499,0.541-0.707
					c0.222-0.125,0.749-0.14,0.749-0.14c-0.388,0.889-0.652,1.776-0.721,2.608c-0.042,0.485-0.014,0.956,0.111,1.399
					c0.069,0.276,0.181,0.54,0.319,0.79c0.069,0.125,0.152,0.25,0.25,0.361c0.429,0.554,1.053,1.011,1.955,1.372
					c0.36,0.152,2.164,3.161,2.288,3.923c0,0,1.331-3.757,1.72-3.896c3.479-1.261,3.216-4.285,2.426-6.642
					c0.125,0.014,0.359,0.07,0.597,0.222c0.082,0.055,0.276,0.208,0.443,0.458c0.069,0.125,0.125,0.221,0.152,0.305
					c2.884,1.372,5.047,2.371,5.865,2.703c0.776,0.319,1.524,0.61,2.287,0.901c0,0.152,0.014,0.389,0.014,0.679
					c0.027,3.675-0.665,5.81-1.261,10.136c-0.403,2.885-0.806,6.226-1.179,13.004c-0.027,0.639-0.098,1.886,0.027,3.508
					c0.152,2.149,0.609,3.703,0.68,4.298C96.908,80.166,98.404,87.404,98.434,88.445z"/>
				<g>
					<path d="M84.638,44.313c-0.332-0.014-2.301-0.055-3.411-1.54c-0.25-0.345-0.402-0.679-0.471-0.901
						c-0.097-0.29-0.152-0.54-0.193-0.735c0,0,0-0.014-0.014-0.027c-0.014-0.027-0.083-0.25,0.028-0.43
						c0.013-0.027,0.055-0.083,0.11-0.125C80.7,40.666,80.728,40.818,80.77,41c0,0,0.194,0.817,0.638,1.497
						c0.637,0.942,3.148,2.19,5.297,1.067c1.524-0.791,2.024-2.33,2.135-2.717c0.027,0.028,0.083,0.139,0.125,0.263
						c0.028,0.069,0.028,0.236,0.014,0.264c-0.181,0.402-0.597,1.705-2.148,2.454C86.607,43.952,85.775,44.341,84.638,44.313z"/>
				</g>
				<g>
					<path d="M79.147,36.036c-0.166,0-0.235-0.333-0.235-0.638l0.11,0.069c0,0.333,0.097,0.444,0.125,0.444
						c0.027,0,0.125-0.18,0.125-0.513s-0.097-0.514-0.125-0.514c-0.028-0.027-0.028-0.069,0-0.11c0.166,0,0.235,0.319,0.235,0.624
						C79.397,35.703,79.313,36.036,79.147,36.036z"/>
				</g>
				<path fill="#DE9F7E" d="M89.894,32.099c0.124-0.458,0.055-0.68,0.484-0.833c0.429-0.166,0.79,0.638,0.888,1.206
					c0.097,0.583-0.5,2.593-0.832,2.885c-0.333,0.276-0.763,0.374-0.888-0.111L89.894,32.099z"/>
				<g>
					<path d="M90.143,36.036c0.166,0,0.235-0.333,0.235-0.638l-0.11,0.069c0,0.333-0.098,0.444-0.125,0.444
						c-0.042,0-0.125-0.18-0.125-0.513s0.097-0.514,0.125-0.514c0.027-0.027,0.027-0.069,0-0.11c-0.167,0-0.236,0.319-0.236,0.624
						C89.894,35.703,89.976,36.036,90.143,36.036z"/>
				</g>
				<path d="M89.643,33.262c0.056-0.096,0.111-0.18,0.153-0.276c0.083-0.5,0.165-0.999,0.25-1.483
					c0.193-0.541,0.401-1.235,0.513-2.08c0.152-1.194,0.18-2.357-0.472-3.246c-0.5-0.679-1.262-0.554-1.331-0.608
					c-2.828-4.659-8.721-0.445-9.401,1.136c-0.25,0.652-0.583,1.776-0.457,3.175c0.055,0.638,0.193,1.192,0.347,1.623
					c0.055,0.096,0.11,0.194,0.166,0.305c0.222,0.499,0.249,0.97,0.222,1.289c0.027,0.097,0.055,0.195,0.083,0.292
					c0.014-0.181,0.041-0.471,0.069-0.861c0.166-2.107,0.11-2.758,0.596-3.354c0.124-0.152,0.346-0.388,0.735-0.583
					c2.731,0.68,7.542-1.428,7.667-0.86c-0.027,0.277-0.027,0.694,0.056,1.179c0.111,0.693,0.347,1.165,0.458,1.386
					C89.561,30.891,89.796,31.808,89.643,33.262z"/>
				<g>
					<path fill="#D38A6A" d="M86.371,38.129c0.027-0.166-0.805-0.583-1.691-0.583c-0.832,0-1.608,0.375-1.58,0.528
						c0,0.027,0.041,0.096,1.302,0.125C85.691,38.227,86.344,38.24,86.371,38.129z"/>
				</g>
				<g>
					<path fill="#D38A6A" d="M83.958,36.104c-0.014,0.056,0.348,0.389,0.805,0.389c0.43,0,0.79-0.319,0.776-0.374
						c-0.014-0.041-0.291,0.125-0.763,0.125C84.278,36.258,83.973,36.063,83.958,36.104z"/>
				</g>
				<g>
					<path d="M88.853,31.211c-0.166,0.193-0.388,0.415-0.692,0.61l0,0c-0.181,0.11-0.375,0.152-0.583,0.124
						c-0.485-0.055-0.984-0.11-1.47-0.151c-0.041-0.041-0.082-0.126-0.111-0.25c-0.027-0.097-0.014-0.181-0.014-0.236
						c0.569,0.055,1.151,0.125,1.72,0.181c0.125,0.014,0.249,0,0.374-0.042C88.326,31.362,88.589,31.294,88.853,31.211z"/>
				</g>
				<g>
					<path d="M80.548,31.211c0.166,0.193,0.388,0.415,0.693,0.61l0,0c0.181,0.11,0.375,0.152,0.583,0.124
						c0.485-0.055,0.984-0.11,1.47-0.151c0.042-0.041,0.083-0.126,0.111-0.25c0.028-0.097,0.014-0.181,0.014-0.236
						c-0.568,0.055-1.15,0.125-1.718,0.181c-0.126,0.014-0.25,0-0.375-0.042C81.075,31.362,80.812,31.294,80.548,31.211z"/>
				</g>
				<g>
					<path d="M81.31,142.074c0.209,0.082,0.486,0.234,0.694,0.512c0.541,0.708,0.25,1.748-0.236,3.245
						c-0.374,1.192-0.846,2.564-1.414,4.089c-0.264,0.527-0.693,1.165-1.4,1.485c-1.997,0.929-5.046-1.026-5.212-2.898
						c-0.056-0.597,0.236-1.109,0.79-2.121c0.776-1.373,1.636-2.357,2.247-2.968C78.301,142.975,79.799,142.517,81.31,142.074z"/>
					<path fill="#DE9F7E" d="M77.04,142.074c-0.776,2.078-1.303,3.424-2.177,4.589c-0.153,0.208-0.458,0.597-0.513,1.15
						c-0.013,0.097-0.069,0.776,0.36,1.304c0.125,0.166,0.209,0.194,0.859,0.61c0.875,0.554,0.777,0.54,0.999,0.651
						c0.43,0.235,1.067,0.568,1.733,0.443c0.999-0.18,1.498-1.275,1.581-1.428c0.152-0.472,0.305-0.942,0.458-1.415
						c0.319-0.97,0.485-1.539,0.818-2.62c0.291-0.971,0.443-1.456,0.458-1.636c0.083-0.804-0.097-1.179-0.125-2.273
						c-0.013-0.652,0.028-1.179,0.056-1.526c-0.583-0.152-1.387-0.275-2.343-0.234c-0.597,0.027-1.498-0.209-1.539,0.234
						C77.581,140.909,77.22,141.574,77.04,142.074z"/>
					<path d="M74.309,147.107c0.763,0.096,1.691,0.262,2.704,0.623c1.497,0.527,2.635,1.233,3.424,1.816
						c0.264-0.804,0.527-1.622,0.804-2.428c-0.388-0.456-1.151-1.22-2.343-1.76c-1.331-0.596-2.538-0.609-3.134-0.582
						C75.265,145.567,74.78,146.344,74.309,147.107z"/>
				</g>
				<g>
					<path d="M88.964,141.879c-0.208,0.07-0.499,0.209-0.722,0.473c-0.581,0.679-0.346,1.733,0.041,3.258
						c0.306,1.206,0.694,2.606,1.181,4.16c0.221,0.541,0.623,1.191,1.315,1.565c1.941,1.04,5.104-0.734,5.367-2.592
						c0.082-0.597-0.168-1.124-0.68-2.163c-0.694-1.415-1.512-2.44-2.08-3.093C91.917,142.961,90.447,142.42,88.964,141.879z"/>
					<path fill="#DE9F7E" d="M93.234,142.129c0.359,1.317,0.942,3.258,1.913,4.715c0.139,0.207,0.43,0.623,0.458,1.178
						c0,0.111,0.027,0.776-0.431,1.275c-0.139,0.152-0.221,0.181-0.9,0.555c-0.915,0.514-0.819,0.5-1.04,0.596
						c-0.443,0.208-1.096,0.5-1.761,0.348c-0.985-0.236-1.428-1.359-1.484-1.525c-0.125-0.472-0.249-0.956-0.373-1.428
						c-0.264-0.984-0.404-1.567-0.666-2.662c-0.235-0.984-0.361-1.483-0.375-1.665c-0.042-0.804,0.167-1.163,0.264-2.273
						c0.055-0.65,0.042-1.178,0.027-1.524c0.486-0.209,1.221-0.473,2.136-0.555c0.735-0.07,1.872-0.402,1.845,0.082
						C92.763,140.521,93.055,141.491,93.234,142.129z"/>
					<path d="M95.674,147.328c-0.763,0.041-1.705,0.166-2.744,0.472c-1.525,0.443-2.705,1.082-3.522,1.622
						c-0.222-0.817-0.443-1.65-0.665-2.469c0.415-0.429,1.206-1.15,2.439-1.622c1.373-0.526,2.566-0.47,3.161-0.401
						C94.802,145.721,95.244,146.524,95.674,147.328z"/>
				</g>
				<g>
					<path fill="#D34047" d="M96.16,48.541c1.233-0.665,2.439-1.427,3.424-2.412c2.274,3.3,5.13,7.515,5.851,9.026
						c-1.454,1.081-4.741,3.286-6.184,5.504l-0.817-1.165l-3.105-4.478c-0.985-1.511-1.969-3.022-2.954-4.547
						C93.637,49.831,94.911,49.208,96.16,48.541z"/>
				</g>
				<path fill="#B7303D" d="M97.934,58.898c2.372-1.789,4.729-3.563,7.1-5.352c0.388,0.514,0.804,1.067,1.205,1.691
					c0.361,0.541,0.68,1.083,0.958,1.581c-2.289,1.733-4.589,3.48-6.878,5.214c-0.333-0.404-0.679-0.819-1.025-1.276
					C98.779,60.12,98.337,59.495,97.934,58.898z"/>
			</g>
			<g>
				<path fill="#FFFFFF" d="M83.375,33.193c-0.041-0.069-0.304-0.54-0.832-0.637c-0.541-0.098-1.123,0.235-1.386,0.832
					c0.11,0.083,0.526,0.36,1.123,0.319C82.891,33.651,83.279,33.291,83.375,33.193z"/>
				<path fill="#6B3628" d="M82.821,33.027c0.056,0.277-0.11,0.54-0.388,0.61c-0.277,0.056-0.541-0.111-0.61-0.389
					c-0.056-0.276,0.111-0.54,0.389-0.61C82.489,32.583,82.766,32.764,82.821,33.027z"/>
				<path d="M83.375,33.193c-0.43-0.61-1.191-0.762-1.774-0.291c-0.18,0.139-0.333,0.318-0.458,0.527
					c0.028-0.111,0.083-0.223,0.139-0.333C81.768,32.237,83.002,32.237,83.375,33.193L83.375,33.193z"/>
				<path d="M82.572,33.111c0.028,0.138-0.055,0.263-0.193,0.304c-0.139,0.029-0.264-0.055-0.306-0.194
					c-0.028-0.139,0.056-0.264,0.194-0.304C82.419,32.889,82.544,32.972,82.572,33.111z"/>
				<path fill="#FFFFFF" d="M82.198,32.999c0.014,0.056-0.028,0.112-0.083,0.126c-0.055,0.013-0.111-0.028-0.125-0.083
					c-0.014-0.055,0.028-0.111,0.083-0.124C82.129,32.902,82.184,32.943,82.198,32.999z"/>
			</g>
			<g>
				<path fill="#FFFFFF" d="M86.025,33.055c0.041-0.069,0.373-0.499,0.9-0.541c0.541-0.027,1.096,0.375,1.275,0.999
					c-0.125,0.069-0.568,0.291-1.151,0.181C86.44,33.567,86.107,33.166,86.025,33.055z"/>
				<path fill="#6B3628" d="M86.593,32.957c-0.097,0.264,0.041,0.555,0.305,0.652c0.264,0.098,0.555-0.042,0.652-0.305
					c0.097-0.264-0.042-0.555-0.305-0.651C86.968,32.556,86.677,32.695,86.593,32.957z"/>
				<path d="M86.025,33.055c0.498-0.555,1.274-0.624,1.802-0.083c0.165,0.165,0.29,0.36,0.388,0.581
					c-0.014-0.124-0.055-0.235-0.098-0.346C87.716,32.292,86.51,32.153,86.025,33.055L86.025,33.055z"/>
				<path d="M86.829,33.055c-0.043,0.125,0.027,0.277,0.152,0.319c0.124,0.041,0.277-0.028,0.318-0.153
					c0.043-0.125-0.028-0.277-0.152-0.318C87.009,32.861,86.87,32.93,86.829,33.055z"/>
				<path fill="#FFFFFF" d="M87.217,32.999c-0.015,0.056,0.014,0.112,0.069,0.139c0.057,0.015,0.111-0.013,0.139-0.069
					c0.014-0.055-0.014-0.111-0.069-0.139C87.3,32.917,87.23,32.943,87.217,32.999z"/>
			</g>
			<path id="XMLID_00000024701843070616802730000012545537909800994694_" fill="#FCB856" d="M78.621,28.063
				c2.538-2.065,10.759-1.76,11.979-1.441c0.207,0.083,0.471,0.582,0.334,1.358c0.234,0.485,0.262,1.164-0.084,1.414
				c0,0.014,0,0.029,0,0.042c0.014,0.18-0.153,0.333-0.333,0.333c-1.387-0.084-7.875-0.819-11.328,1.29
				c-0.152,0.097-0.36,0.042-0.443-0.125c-0.097-0.167-0.167-0.43-0.111-0.818c-0.347-0.291-0.277-1.067-0.139-1.261
				C78.482,28.465,78.509,28.16,78.621,28.063z"/>
			<path fill="#FCB856" d="M95.633,45.187c-0.152-1.317-1.317-1.428-1.691-1.317c-0.361-0.624-0.971-0.915-1.636-0.665
				c-0.125-0.445-1.18-0.776-1.47-0.569c0.068,2.135-0.25,22.724-2.885,30.308c-0.139,0.692,4.937,2.856,6.78,1.554
				C94.939,73.511,97.02,51.08,95.633,45.187z"/>
			<path fill="#D34047" d="M71.702,83.634c-0.402,3.369-0.874,6.835-1.442,10.371c-0.235,1.497-0.485,2.98-0.749,4.449
				c3.245,1.221,8.015,2.594,13.893,2.857c7.196,0.332,12.991-1.109,16.596-2.33c-0.291-2.342-0.624-4.742-0.998-7.195
				c-0.389-2.523-0.805-4.977-1.234-7.376c-2.246,1.206-8.471,4.146-16.402,2.896C76.999,86.628,73.698,84.91,71.702,83.634z"/>
			<path fill="#B7303D" d="M82.6,47.821c-0.221,0.11-0.555,0.305-0.86,0.638c-0.734,0.817-0.609,1.691-0.928,1.747
				c-0.43,0.069-1.067-1.526-1.359-2.427c-0.236-0.706-0.583-1.843-0.541-3.383c0.028-0.983,0.207-1.789,0.374-2.342
				c0.028-0.097,0.139-0.416,0.472-0.638c0.375-0.249,0.749-0.194,0.846-0.18c-0.181,0.264-1.04,1.622-0.68,3.383
				C80.396,46.823,82.406,47.738,82.6,47.821z"/>
			<path fill="#B7303D" d="M86.468,47.808c0.222,0.124,0.541,0.346,0.818,0.692c0.68,0.86,0.499,1.719,0.805,1.802
				c0.415,0.098,1.164-1.456,1.525-2.329c0.277-0.693,0.706-1.802,0.762-3.342c0.028-0.721-0.041-1.345-0.125-1.844
				c-0.041-0.236-0.083-0.43-0.097-0.514c-0.056-0.221-0.098-0.416-0.152-0.541c-0.181-0.374-0.693-0.526-1.04-0.581
				c0.207,0.499,0.375,1.136,0.375,1.871C89.297,45.797,86.815,47.558,86.468,47.808z"/>
			<g>
				<path fill="#B7303D" d="M86.468,47.808c-0.597,1.357-1.151,2.772-1.566,4.187c-0.318,1.427-0.346,2.967-0.402,4.422
					c-0.055,1.983-0.014,3.993,0.027,5.99l-0.125-0.111c0.637-0.027,1.539-0.027,2.177-0.041c-0.665,0.11-1.595,0.208-2.273,0.291
					c-0.209-2.039-0.32-4.09-0.278-6.129c0.042-1.511,0.11-3.036,0.499-4.52C85.026,50.455,85.664,49.11,86.468,47.808
					L86.468,47.808z"/>
			</g>
			<circle fill="#B7303D" cx="85.553" cy="53.006" r="0.458"/>
			<circle fill="#B7303D" cx="85.414" cy="57.332" r="0.458"/>
			<circle fill="#B7303D" cx="85.414" cy="61.089" r="0.458"/>
		</g>
		<g>
			<path fill="#DD9373" d="M76.36,39.585c-1.219,3.064-1.968,5.615-2.426,7.349c-1.275,4.824-1.469,7.93-3.715,12.021
				c-0.652,1.165-1.262,2.066-1.678,2.62c-0.402,0.125-0.971,0.292-1.664,0.445c-1.095,0.221-1.636,0.333-2.094,0.193
				c-0.804-0.249-1.233-0.97-1.816-1.913c-0.36-0.582-0.61-0.999-0.694-1.581c-0.138-1.013,0.319-1.859,0.542-2.273
				c1.164-2.108,5.227-8.79,10.926-17.748C74.6,38.989,75.487,39.28,76.36,39.585z"/>
			<path fill="#DD9373" d="M93.055,39.585c1.247,3.051,1.981,5.602,2.426,7.349c1.262,4.977,1.331,8.277,3.799,12.367
				c0.624,1.026,1.206,1.802,1.595,2.273c0.374,0.125,0.929,0.292,1.607,0.43c1.054,0.222,1.581,0.333,2.053,0.194
				c0.832-0.235,1.303-0.97,1.856-1.816c0.361-0.555,0.667-1.026,0.764-1.691c0.139-1.012-0.318-1.858-0.541-2.274
				c-1.164-2.107-5.227-8.79-10.926-17.747C94.814,38.989,93.941,39.28,93.055,39.585z"/>
			<path fill="#DD9373" d="M79.744,33.068c0,0.292-0.153,0.833-0.583,1.802c-0.43,0.985-0.097,1.069-0.916,2.302
				c-0.347,0.526-0.471,0.624-0.734,0.942c-0.125,0.152-0.222,0.277-0.264,0.346c-0.097,0.125-0.235,0.305-0.443,0.569
				c-0.125,0.152-0.264,0.333-0.444,0.541c-0.11,0.291-0.208,0.583-0.304,0.86c-0.278-0.167-0.583-0.347-0.915-0.514
				c-0.556-0.277-1.096-0.485-1.567-0.637c0.083-0.444,0.222-1.067,0.388-1.83c0.375-1.636,0.5-2.496,0.901-3.328
				c0.554-1.165,0.735-1.787,1.317-2.439c0.956-1.096,2.177-1.623,3.008-1.873c0.042,0.07,0.194,0.292,0.139,0.61
				c-0.083,0.486-0.61,0.708-0.638,0.708c-1.178,0.735-1.844,1.705-1.983,2.412c-0.125,0.639,0,1.262,0,1.262
				c0.042,0.18,0.084,0.333,0.125,0.43c0.014,0,0.028,0,0.042-0.015c0.181-0.026,0.625-0.124,0.984-0.498
				c0.223-0.236,0.306-0.486,0.347-0.625c0.042-0.167,0.139-0.499,0.458-0.804c0.221-0.223,0.651-0.527,0.887-0.5
				c0.028,0,0.056,0.015,0.083,0.027C79.702,32.861,79.744,32.93,79.744,33.068z"/>
		</g>
		<g>
			<path fill="#DD9373" d="M89.685,33.068c0,0.292,0.152,0.833,0.583,1.802c0.429,0.985,0.097,1.069,0.914,2.302
				c0.347,0.526,0.472,0.624,0.735,0.942c0.125,0.152,0.207,0.277,0.264,0.346c0.097,0.125,0.236,0.305,0.443,0.569
				c0.124,0.152,0.264,0.333,0.444,0.541c0.109,0.291,0.207,0.583,0.305,0.86c0.277-0.167,0.582-0.347,0.915-0.514
				c0.555-0.277,1.095-0.485,1.567-0.637c-0.084-0.444-0.223-1.067-0.389-1.83c-0.375-1.636-0.499-2.496-0.901-3.328
				c-0.555-1.165-0.735-1.787-1.317-2.439c-0.956-1.096-2.178-1.623-3.009-1.873c-0.041,0.07-0.193,0.292-0.139,0.61
				c0.083,0.486,0.61,0.708,0.638,0.708c1.179,0.735,1.845,1.705,1.982,2.412c0.126,0.639,0,1.262,0,1.262
				c-0.041,0.18-0.083,0.333-0.125,0.43c-0.013,0-0.026,0-0.041-0.015c-0.181-0.026-0.624-0.124-0.984-0.498
				c-0.222-0.236-0.305-0.486-0.347-0.625c-0.042-0.167-0.139-0.499-0.458-0.804c-0.221-0.223-0.651-0.527-0.887-0.5
				c-0.028,0-0.056,0.015-0.083,0.027C89.726,32.861,89.685,32.93,89.685,33.068z"/>
		</g>
	</g>
</g>
</svg>
