<?xml version="1.0" encoding="utf-8"?>
<!-- Generator: Adobe Illustrator 26.0.1, SVG Export Plug-In . SVG Version: 6.00 Build 0)  -->
<svg version="1.1" id="Layer_2_00000142135298931889433330000008483516648012494238_"
	 xmlns="http://www.w3.org/2000/svg" xmlns:xlink="http://www.w3.org/1999/xlink" x="0px" y="0px" viewBox="0 0 1080 1080"
	 style="enable-background:new 0 0 1080 1080;" xml:space="preserve">
<style type="text/css">
	.st0{fill:#808AFF;}
	.st1{clip-path:url(#SVGID_00000172442451379606313770000010347406425269677953_);}
	.st2{fill:#9BA3FF;}
	.st3{clip-path:url(#SVGID_00000069390960328130805750000010595994180646376846_);}
	.st4{fill:#3F4553;}
	.st5{fill:#DDDDE3;}
	.st6{fill:#E2E5FF;}
	.st7{fill:#4E5567;}
	.st8{fill:#93BFA8;}
	.st9{fill:#F2EDE4;}
	.st10{clip-path:url(#SVGID_00000078020606864537203900000011284914722146761394_);}
	.st11{fill:#AEB4FC;}
	.st12{opacity:0.3;}
	.st13{fill:#ECECEC;}
	.st14{fill:#F5F4F5;}
	.st15{fill:#706F6E;}
	.st16{fill:#585857;}
	.st17{fill:#5E5E5D;}
	.st18{fill:#EDEDED;}
	.st19{fill:#9D9B9B;}
	.st20{fill:#DFDFDE;}
	.st21{fill:#D9D9DA;}
	.st22{fill:#E3E1E1;}
	.st23{fill:#C7C7C6;}
	.st24{fill:#C6E6F2;}
	.st25{opacity:0.24;fill:#B6E0ED;enable-background:new    ;}
	.st26{fill:#3C3C3B;}
	.st27{fill:#B6E0ED;}
	.st28{fill:#FDFFFC;}
	.st29{fill:#7382EF;}
	.st30{fill:#DE9F7E;}
	.st31{fill:#D38A6A;}
	.st32{fill:#D34047;}
	.st33{fill:#B7303D;}
	.st34{fill:#FFFFFF;}
	.st35{fill:#D3D3D3;}
	.st36{fill:#FFFFFF;stroke:#D3D3D3;stroke-width:4.53;stroke-miterlimit:10;}
	.st37{fill:#6B3628;}
	.st38{fill:#FCB856;}
	.st39{fill:#DD9373;}
</style>
<g>
	<path class="st0" d="M88.6,233.6c-167.9,28.8-210.7-69.7-240.3-126.2v-353.2h579.4v645.2h-102C270.7,329.7,256.5,204.7,88.6,233.6z
		"/>
	<path class="st0" d="M766.7,233.6c167.9,28.8,210.7-69.7,240.3-126.2v-353.2H427.6v645.2h102C584.5,329.7,598.8,204.7,766.7,233.6z
		"/>
	<g>
		<g>
			<g>
				<g>
					<g>
						<defs>
							<rect id="SVGID_1_" x="992" y="289.9" width="92.2" height="111.9"/>
						</defs>
						<clipPath id="SVGID_00000029731890024014368800000000810116646767953299_">
							<use xlink:href="#SVGID_1_"  style="overflow:visible;"/>
						</clipPath>
						<g style="clip-path:url(#SVGID_00000029731890024014368800000000810116646767953299_);">
							<path class="st2" d="M1014.3,289.9H992v111.9h22.3V289.9L1014.3,289.9z"/>
							<path class="st2" d="M1049.3,327.5H1027v74.3h22.3V327.5z"/>
							<path class="st2" d="M1084.2,363H1062v38.8h22.3V363H1084.2z"/>
						</g>
					</g>
				</g>
			</g>
		</g>
	</g>
	<g>
		<g>
			<g>
				<g>
					<g>
						<defs>
							<rect id="SVGID_00000103944167998871249560000004449331794841434013_" x="893.3" y="513.7" width="210.7" height="171.2"/>
						</defs>
						<clipPath id="SVGID_00000031206682162719512100000007607788389040795309_">
							<use xlink:href="#SVGID_00000103944167998871249560000004449331794841434013_"  style="overflow:visible;"/>
						</clipPath>
						<g style="clip-path:url(#SVGID_00000031206682162719512100000007607788389040795309_);">
							<path class="st4" d="M1024.9,684.6l73.4-24.6l-36.8-108l-73.4,24.6c-2.9,1-4.4,4-3.4,6.9l33.3,97.6
								C1018.9,684,1022,685.6,1024.9,684.6z"/>
							<path class="st5" d="M1024.9,682.5l75.2-25.2l-35.4-104l-75.2,25.2c-1.9,0.6-2.9,2.6-2.2,4.5l33.2,97.3
								C1021.1,682.1,1023.1,683.1,1024.9,682.5z"/>
							<path class="st6" d="M1026.5,681.9l75.2-25.2l-35.4-104l-75.2,25.2c-1.9,0.6-2.9,2.6-2.2,4.5l33.1,97.3
								C1022.6,681.6,1024.7,682.6,1026.5,681.9z"/>
							<path class="st7" d="M1030.6,682.7l73.4-24.6l-36.8-107.9l-73.4,24.6c-2.9,1-4.4,4-3.4,6.9l33.3,97.6
								C1024.6,682.1,1027.7,683.6,1030.6,682.7z"/>
							<path class="st4" d="M1063.1,551.5l-1.6,0.5l36.8,108l1.6-0.5L1063.1,551.5z"/>
							<path class="st8" d="M1073.5,635.9l1.6-3.5l3.4,1.8l-26.9-78.8c-0.5-1.4-1.7-1.3-3.1-0.8s-2.4,1.1-2,2.5L1073.5,635.9z"/>
							<path class="st4" d="M908.7,580.2l49.4-58.1l-10-8.3l-49.4,58.1L908.7,580.2z"/>
							<path class="st9" d="M898.7,571.8l10,8.3l-14.4,7.9c-0.5,0.3-1.1-0.3-1-0.8L898.7,571.8z"/>
							<path class="st4" d="M894.3,588l3.9-2.1l-3.4-2.8l-1.5,4.2C893.1,587.7,893.8,588.3,894.3,588z"/>
							<path class="st7" d="M905.4,577.4l49.4-58.1l-3.4-2.8L902,574.6L905.4,577.4z"/>
						</g>
					</g>
				</g>
			</g>
		</g>
	</g>
	<g>
		<g>
			<g>
				<g>
					<g>
						<defs>
							<rect id="SVGID_00000051361237599972619590000012940814748958645383_" x="248.1" y="20" width="230.4" height="230.4"/>
						</defs>
						<clipPath id="SVGID_00000105389899383447293450000011330517234418532236_">
							<use xlink:href="#SVGID_00000051361237599972619590000012940814748958645383_"  style="overflow:visible;"/>
						</clipPath>
						<g style="clip-path:url(#SVGID_00000105389899383447293450000011330517234418532236_);">
							<path class="st0" d="M363.3,20c-63.7,0-115.2,51.6-115.2,115.2s51.6,115.2,115.2,115.2s115.2-51.6,115.2-115.2
								C478.5,71.5,426.9,20,363.3,20z M363.3,230.9c-52.9,0-95.7-42.9-95.7-95.7c0-52.9,42.9-95.7,95.7-95.7
								c52.9,0,95.7,42.9,95.7,95.7C459,188.1,416.2,230.9,363.3,230.9z"/>
							<path class="st11" d="M451.6,172.1C472,123.3,449,67.2,400.2,46.8C351.5,26.4,295.4,49.4,275,98.2s2.6,104.9,51.4,125.3
								S431.2,220.9,451.6,172.1z"/>
							<path class="st0" d="M363.5,48c-6.7,0-6.8,10.4,0,10.4C370.2,58.5,370.3,48,363.5,48z"/>
							<path class="st0" d="M450.4,135.4c0-6.7-10.5-6.8-10.5,0C440,142.1,450.4,142.1,450.4,135.4z"/>
							<path class="st0" d="M363.1,222.3c6.7,0,6.8-10.4,0-10.4C356.4,211.9,356.3,222.3,363.1,222.3z"/>
							<path class="st0" d="M276.1,135c0,6.7,10.5,6.8,10.5,0C286.6,128.3,276.1,128.2,276.1,135z"/>
							<path class="st0" d="M404.5,163.2c-0.6,0-1.2-0.1-1.8-0.5l-41.2-24.5c-1.1-0.6-1.7-1.8-1.7-3V69.3c0-1.9,1.6-3.5,3.5-3.5
								s3.5,1.6,3.5,3.5v63.9l39.5,23.5c1.7,1,2.2,3.1,1.2,4.8C406.8,162.5,405.7,163.2,404.5,163.2z"/>
						</g>
					</g>
				</g>
			</g>
		</g>
	</g>
	<path class="st2" d="M133.7,371.6l-2.3-13l-13.3,2.3c-2.1-6.1-5.6-11.4-10-15.8l7.8-11l-10.9-7.6l-7.8,10.9
		c-5.6-2.7-11.9-4.2-18.4-4.2L76.5,320l-13.2,2.3l2.3,13.2c-6.2,2.1-11.6,5.5-16,9.9l-11.1-7.7l-7.7,10.8l11,7.7
		c-2.8,5.5-4.3,11.7-4.2,18.2l-13.3,2.3l2.3,13l13.3-2.3c2.1,6.1,5.6,11.5,10,15.8L42.1,414l10.9,7.6l7.8-10.9
		c5.6,2.7,11.9,4.2,18.4,4.2l2.4,13.2l13.2-2.3l-2.3-13.2c6.2-2.1,11.6-5.5,16-9.9l11.1,7.7l7.7-10.8l-11-7.7
		c2.8-5.5,4.3-11.7,4.2-18.2L133.7,371.6z M81.1,386.1c-6.8,1.2-13.2-3.3-14.4-10c-1.2-6.7,3.4-13,10.1-14.2
		c6.8-1.2,13.2,3.3,14.4,10S87.9,385,81.1,386.1z"/>
	<path class="st11" d="M259.5,345.3v-16.4h-16.8c-1.2-7.9-4.3-15.2-8.8-21.5l11.9-11.8L234,284l-11.9,11.7c-6.3-4.5-13.6-7.6-21.6-9
		V270H184v16.6c-8,1.2-15.4,4.3-21.7,8.7l-11.9-11.8l-11.7,11.6l11.9,11.7c-4.5,6.2-7.7,13.5-9.1,21.4h-16.9v16.4h16.8
		c1.2,7.9,4.3,15.2,8.8,21.4l-11.9,12l11.7,11.6l11.9-11.7c6.3,4.5,13.6,7.6,21.6,9v16.7h16.6V387c8-1.2,15.4-4.3,21.7-8.7
		l11.9,11.8l11.7-11.6l-11.9-11.7c4.6-6.2,7.7-13.5,9.1-21.4L259.5,345.3L259.5,345.3L259.5,345.3z M192,352.1
		c-8.5,0-15.4-6.8-15.4-15.3c0-8.4,6.9-15.3,15.4-15.3s15.5,6.8,15.5,15.3C207.4,345.2,200.5,352.1,192,352.1z"/>
	<g class="st12">
		<path class="st13" d="M1038.1,223.4l-123.3-27.7c-1.2-0.3-2-1.5-1.7-2.7l15.5-69.1c0.3-1.2,1.5-2,2.7-1.7l123.3,27.7
			c1.2,0.3,2,1.5,1.7,2.7l-15.5,69.1C1040.5,222.9,1039.3,223.7,1038.1,223.4z"/>
		<path class="st14" d="M915.1,194c-0.3-0.1-0.5-0.4-0.4-0.7l15.5-69.1c0.1-0.3,0.4-0.5,0.7-0.4l123.3,27.7c0.3,0.1,0.5,0.4,0.4,0.7
			l-15.6,69.1c-0.1,0.3-0.4,0.5-0.7,0.4L915.1,194z"/>
		<path class="st15" d="M1037.2,146l-88.6-19.9l-0.4,1.6l88.6,19.9L1037.2,146z"/>
		<path class="st16" d="M940.1,136l-4.1-0.9c-0.5-0.1-0.8-0.6-0.7-1.1l0.6-2.9c0.1-0.5,0.6-0.8,1.1-0.7l4.1,0.9
			c0.5,0.1,0.8,0.6,0.7,1.1l-0.6,2.9C941.1,135.8,940.6,136.1,940.1,136z"/>
		<path class="st17" d="M936.1,134.2c-0.1,0-0.1-0.1-0.1-0.2l0.6-2.9c0-0.1,0.1-0.1,0.2-0.1l4.1,0.9c0.1,0,0.1,0.1,0.1,0.2l-0.6,2.9
			c0,0.1-0.1,0.1-0.1,0.1L936.1,134.2z"/>
		<path class="st16" d="M947.5,137.7l-4.1-0.9c-0.5-0.1-0.8-0.6-0.7-1.1l0.6-2.9c0.1-0.5,0.6-0.8,1.1-0.7l4.1,0.9
			c0.5,0.1,0.8,0.6,0.7,1.1l-0.6,2.9C948.6,137.5,948,137.8,947.5,137.7z"/>
		<path class="st17" d="M943.6,135.9c-0.1,0-0.1-0.1-0.1-0.2l0.6-2.9c0-0.1,0.1-0.1,0.1-0.1l4.1,0.9c0.1,0,0.1,0.1,0.1,0.2l-0.6,2.9
			c0,0.1-0.1,0.1-0.1,0.1L943.6,135.9z"/>
		<path class="st16" d="M955,139.3l-4.1-0.9c-0.5-0.1-0.8-0.6-0.7-1.1l0.6-2.9c0.1-0.5,0.6-0.8,1.1-0.7l4.1,0.9
			c0.5,0.1,0.8,0.6,0.7,1.1l-0.6,2.9C956,139.1,955.5,139.5,955,139.3z"/>
		<path class="st17" d="M951.1,137.6c-0.1,0-0.1-0.1-0.1-0.2l0.6-2.9c0-0.1,0.1-0.1,0.1-0.1l4.1,0.9c0.1,0,0.1,0.1,0.1,0.1l-0.6,2.9
			c0,0.1-0.1,0.1-0.1,0.1L951.1,137.6z"/>
		<path class="st16" d="M962.5,141l-4.1-0.9c-0.5-0.1-0.8-0.6-0.7-1.1l0.6-2.9c0.1-0.5,0.6-0.8,1.1-0.7l4.1,0.9
			c0.5,0.1,0.8,0.6,0.7,1.1l-0.6,2.9C963.5,140.8,963,141.2,962.5,141z"/>
		<path class="st17" d="M958.6,139.3c-0.1,0-0.1-0.1-0.1-0.2l0.6-2.9c0-0.1,0.1-0.1,0.1-0.1l4.1,0.9c0.1,0,0.1,0.1,0.1,0.1l-0.6,2.9
			c0,0.1-0.1,0.1-0.2,0.1L958.6,139.3z"/>
		<path class="st16" d="M970,142.7l-4.1-0.9c-0.5-0.1-0.8-0.6-0.7-1.1l0.6-2.9c0.1-0.5,0.6-0.8,1.1-0.7l4.1,0.9
			c0.5,0.1,0.8,0.6,0.7,1.1l-0.6,2.9C971,142.5,970.5,142.8,970,142.7z"/>
		<path class="st17" d="M966.1,141c-0.1,0-0.1-0.1-0.1-0.2l0.6-2.9c0-0.1,0.1-0.1,0.2-0.1l4.1,0.9c0.1,0,0.1,0.1,0.1,0.2l-0.6,2.9
			c0,0.1-0.1,0.1-0.2,0.1L966.1,141z"/>
		<path class="st16" d="M977.5,144.4l-4.1-0.9c-0.5-0.1-0.8-0.6-0.7-1.1l0.6-2.9c0.1-0.5,0.6-0.8,1.2-0.7l4.1,0.9
			c0.5,0.1,0.8,0.6,0.7,1.1l-0.6,2.9C978.5,144.2,978,144.5,977.5,144.4z"/>
		<path class="st17" d="M973.6,142.7c-0.1,0-0.1-0.1-0.1-0.2l0.6-2.9c0-0.1,0.1-0.1,0.1-0.1l4.1,0.9c0.1,0,0.1,0.1,0.1,0.2l-0.6,2.9
			c0,0.1-0.1,0.1-0.1,0.1L973.6,142.7z"/>
		<path class="st16" d="M985,146.1l-4.1-0.9c-0.5-0.1-0.8-0.6-0.7-1.1l0.6-2.9c0.1-0.5,0.6-0.8,1.1-0.7l4.1,0.9
			c0.5,0.1,0.8,0.6,0.7,1.1l-0.6,2.9C986,145.9,985.5,146.2,985,146.1z"/>
		<path class="st17" d="M981.1,144.4c-0.1,0-0.1-0.1-0.1-0.2l0.6-2.9c0-0.1,0.1-0.1,0.2-0.1l4.1,0.9c0.1,0,0.1,0.1,0.1,0.2l-0.6,2.9
			c0,0.1-0.1,0.1-0.2,0.1L981.1,144.4z"/>
		<path class="st16" d="M992.5,147.8l-4.1-0.9c-0.5-0.1-0.8-0.6-0.7-1.1l0.6-2.9c0.1-0.5,0.6-0.8,1.1-0.7l4.1,0.9
			c0.5,0.1,0.8,0.6,0.7,1.1l-0.6,2.9C993.5,147.6,993,147.9,992.5,147.8z"/>
		<path class="st17" d="M988.6,146c-0.1,0-0.1-0.1-0.1-0.2l0.6-2.9c0-0.1,0.1-0.1,0.2-0.1l4.1,0.9c0.1,0,0.1,0.1,0.1,0.2l-0.6,2.9
			c0,0.1-0.1,0.1-0.2,0.1L988.6,146z"/>
		<path class="st16" d="M999.9,149.4l-4.1-0.9c-0.5-0.1-0.8-0.6-0.7-1.1l0.6-2.9c0.1-0.5,0.6-0.8,1.1-0.7l4.1,0.9
			c0.5,0.1,0.8,0.6,0.7,1.1l-0.6,2.9C1001,149.2,1000.4,149.6,999.9,149.4z"/>
		<path class="st17" d="M996,147.7c-0.1,0-0.1-0.1-0.1-0.2l0.6-2.9c0-0.1,0.1-0.1,0.1-0.1l4.1,0.9c0.1,0,0.1,0.1,0.1,0.2l-0.6,2.9
			c0,0.1-0.1,0.1-0.1,0.1L996,147.7z"/>
		<path class="st16" d="M1007.4,151.1l-4.1-0.9c-0.5-0.1-0.8-0.6-0.7-1.1l0.6-2.9c0.1-0.5,0.6-0.8,1.1-0.7l4.1,0.9
			c0.5,0.1,0.8,0.6,0.7,1.1l-0.6,2.9C1008.4,150.9,1007.9,151.2,1007.4,151.1z"/>
		<path class="st17" d="M1003.5,149.4c-0.1,0-0.1-0.1-0.1-0.2l0.6-2.9c0-0.1,0.1-0.1,0.2-0.1l4.1,0.9c0.1,0,0.1,0.1,0.1,0.2
			l-0.6,2.9c0,0.1-0.1,0.1-0.2,0.1L1003.5,149.4z"/>
		<path class="st16" d="M1014.9,152.8l-4.1-0.9c-0.5-0.1-0.8-0.6-0.7-1.1l0.6-2.9c0.1-0.5,0.6-0.8,1.2-0.7l4.1,0.9
			c0.5,0.1,0.8,0.6,0.7,1.1l-0.6,2.9C1015.9,152.6,1015.4,152.9,1014.9,152.8z"/>
		<path class="st17" d="M1011,151.1c-0.1,0-0.1-0.1-0.1-0.1l0.6-2.9c0-0.1,0.1-0.1,0.2-0.1l4.1,0.9c0.1,0,0.1,0.1,0.1,0.2l-0.6,2.9
			c0,0.1-0.1,0.1-0.2,0.1L1011,151.1z"/>
		<path class="st16" d="M1022.4,154.5l-4.1-0.9c-0.5-0.1-0.8-0.6-0.7-1.1l0.6-2.9c0.1-0.5,0.6-0.8,1.1-0.7l4.1,0.9
			c0.5,0.1,0.8,0.6,0.7,1.1l-0.6,2.9C1023.4,154.3,1022.9,154.6,1022.4,154.5z"/>
		<path class="st17" d="M1018.5,152.8c-0.1,0-0.1-0.1-0.1-0.1l0.6-2.9c0-0.1,0.1-0.1,0.1-0.1l4.1,0.9c0.1,0,0.1,0.1,0.1,0.2
			l-0.6,2.9c0,0.1-0.1,0.1-0.1,0.1L1018.5,152.8z"/>
		<path class="st16" d="M1029.9,156.2l-4.1-0.9c-0.5-0.1-0.8-0.6-0.7-1.1l0.6-2.9c0.1-0.5,0.6-0.8,1.1-0.7l4.1,0.9
			c0.5,0.1,0.8,0.6,0.7,1.1l-0.6,2.9C1030.9,156,1030.4,156.3,1029.9,156.2z"/>
		<path class="st17" d="M1026,154.5c-0.1,0-0.1-0.1-0.1-0.2l0.6-2.9c0-0.1,0.1-0.1,0.2-0.1l4.1,0.9c0.1,0,0.1,0.1,0.1,0.2l-0.6,2.9
			c0,0.1-0.1,0.1-0.1,0.1L1026,154.5z"/>
		<path class="st16" d="M1037.4,157.9l-4.1-0.9c-0.5-0.1-0.8-0.6-0.7-1.1l0.6-2.9c0.1-0.5,0.6-0.8,1.2-0.7l4.1,0.9
			c0.5,0.1,0.8,0.6,0.7,1.1l-0.6,2.9C1038.4,157.7,1037.9,158,1037.4,157.9z"/>
		<path class="st17" d="M1033.5,156.1c-0.1,0-0.1-0.1-0.1-0.2l0.6-2.9c0-0.1,0.1-0.1,0.1-0.1l4.1,0.9c0.1,0,0.1,0.1,0.1,0.2
			l-0.6,2.9c0,0.1-0.1,0.1-0.1,0.1L1033.5,156.1z"/>
		<path class="st16" d="M1044.8,159.6l-4.1-0.9c-0.5-0.1-0.8-0.6-0.7-1.1l0.6-2.9c0.1-0.5,0.6-0.8,1.1-0.7l4.1,0.9
			c0.5,0.1,0.8,0.6,0.7,1.1l-0.6,2.9C1045.9,159.3,1045.4,159.7,1044.8,159.6z"/>
		<path class="st17" d="M1041,157.8c-0.1,0-0.1-0.1-0.1-0.2l0.6-2.9c0-0.1,0.1-0.1,0.2-0.1l4.1,0.9c0.1,0,0.1,0.1,0.1,0.2l-0.6,2.9
			c0,0.1-0.1,0.1-0.2,0.1L1041,157.8z"/>
		<path class="st16" d="M935.9,136.1l5.1,1.1c0.6,0.1,0.9,0.7,0.8,1.3l-1.1,5c-0.1,0.6-0.7,0.9-1.3,0.8l-5.1-1.1
			c-0.6-0.1-1-0.7-0.8-1.3l1.1-5C934.7,136.3,935.3,135.9,935.9,136.1z"/>
		<path class="st17" d="M934.5,142.3c-0.1,0-0.2-0.2-0.2-0.3l1.1-5c0-0.1,0.2-0.2,0.3-0.2l5.1,1.1c0.1,0,0.2,0.2,0.2,0.3l-1.1,5
			c0,0.1-0.2,0.2-0.3,0.2L934.5,142.3z"/>
		<path class="st16" d="M944.5,138l5,1.1c0.6,0.1,0.9,0.7,0.8,1.3l-1.1,5c-0.1,0.6-0.7,0.9-1.3,0.8l-5.1-1.1
			c-0.6-0.1-0.9-0.7-0.8-1.3l1.1-5C943.3,138.2,943.9,137.9,944.5,138z"/>
		<path class="st17" d="M943.1,144.3c-0.1,0-0.2-0.2-0.2-0.3l1.1-5c0-0.1,0.2-0.2,0.3-0.2l5.1,1.1c0.1,0,0.2,0.2,0.2,0.3l-1.1,5
			c0,0.1-0.2,0.2-0.3,0.2L943.1,144.3z"/>
		<path class="st16" d="M953.1,139.9l5.1,1.1c0.6,0.1,0.9,0.7,0.8,1.3l-1.1,5c-0.1,0.6-0.7,0.9-1.3,0.8l-5.1-1.1
			c-0.6-0.1-0.9-0.7-0.8-1.3l1.1-5C952,140.2,952.6,139.8,953.1,139.9z"/>
		<path class="st17" d="M951.7,146.2c-0.1,0-0.2-0.2-0.2-0.3l1.1-5c0-0.1,0.2-0.2,0.3-0.2l5.1,1.1c0.1,0,0.2,0.2,0.2,0.3l-1.1,5
			c0,0.1-0.2,0.2-0.3,0.2L951.7,146.2z"/>
		<path class="st16" d="M961.8,141.9l5,1.1c0.6,0.1,0.9,0.7,0.8,1.3l-1.1,5c-0.1,0.6-0.7,0.9-1.3,0.8l-5.1-1.1
			c-0.6-0.1-0.9-0.7-0.8-1.3l1.1-5C960.6,142.1,961.2,141.7,961.8,141.9z"/>
		<path class="st17" d="M960.4,148.2c-0.1,0-0.2-0.2-0.2-0.3l1.1-5c0-0.1,0.2-0.2,0.3-0.2l5.1,1.1c0.1,0,0.2,0.2,0.2,0.3l-1.1,5
			c0,0.1-0.2,0.2-0.3,0.2L960.4,148.2z"/>
		<path class="st16" d="M970.4,143.8l5.1,1.1c0.6,0.1,0.9,0.7,0.8,1.3l-1.1,5c-0.1,0.6-0.7,0.9-1.3,0.8l-5.1-1.1
			c-0.6-0.1-0.9-0.7-0.8-1.3l1.1-5C969.3,144,969.8,143.7,970.4,143.8z"/>
		<path class="st17" d="M969,150.1c-0.1,0-0.2-0.2-0.2-0.3l1.1-5c0-0.1,0.2-0.2,0.3-0.2l5.1,1.1c0.1,0,0.2,0.2,0.2,0.3l-1.1,5
			c0,0.1-0.2,0.2-0.3,0.2L969,150.1z"/>
		<path class="st16" d="M979,145.8l5.1,1.1c0.6,0.1,0.9,0.7,0.8,1.3l-1.1,5c-0.1,0.6-0.7,0.9-1.3,0.8l-5-1.1
			c-0.6-0.1-0.9-0.7-0.8-1.3l1.1-5C977.9,146,978.5,145.6,979,145.8z"/>
		<path class="st17" d="M977.6,152c-0.1,0-0.2-0.2-0.2-0.3l1.1-5c0-0.1,0.2-0.2,0.3-0.2l5.1,1.1c0.1,0,0.2,0.2,0.2,0.3l-1.1,5
			c0,0.1-0.2,0.2-0.3,0.2L977.6,152z"/>
		<path class="st16" d="M987.7,147.7l5,1.1c0.6,0.1,1,0.7,0.8,1.3l-1.1,5c-0.1,0.6-0.7,0.9-1.3,0.8l-5-1.1c-0.6-0.1-0.9-0.7-0.8-1.3
			l1.1-5C986.5,147.9,987.1,147.6,987.7,147.7z"/>
		<path class="st17" d="M986.3,154c-0.1,0-0.2-0.2-0.2-0.3l1.1-5c0-0.1,0.2-0.2,0.3-0.2l5.1,1.1c0.1,0,0.2,0.2,0.2,0.3l-1.1,5
			c0,0.1-0.2,0.2-0.3,0.2L986.3,154z"/>
		<path class="st16" d="M996.3,149.7l5.1,1.1c0.6,0.1,0.9,0.7,0.8,1.3l-1.1,5c-0.1,0.6-0.7,0.9-1.3,0.8l-5-1.1
			c-0.6-0.1-0.9-0.7-0.8-1.3l1.1-5C995.2,149.9,995.7,149.5,996.3,149.7z"/>
		<path class="st17" d="M994.9,155.9c-0.1,0-0.2-0.2-0.2-0.3l1.1-5c0-0.1,0.2-0.2,0.3-0.2l5.1,1.1c0.1,0,0.2,0.2,0.2,0.3l-1.1,5
			c0,0.1-0.2,0.2-0.3,0.2L994.9,155.9z"/>
		<path class="st16" d="M1004.9,151.6l5.1,1.1c0.6,0.1,1,0.7,0.8,1.3l-1.1,5c-0.1,0.6-0.7,0.9-1.3,0.8l-5-1.1
			c-0.6-0.1-0.9-0.7-0.8-1.3l1.1-5C1003.8,151.8,1004.3,151.4,1004.9,151.6z"/>
		<path class="st17" d="M1003.5,157.9c-0.1,0-0.2-0.2-0.2-0.3l1.1-5c0-0.1,0.2-0.2,0.3-0.2l5.1,1.1c0.1,0,0.2,0.2,0.2,0.3l-1.1,5
			c0,0.1-0.2,0.2-0.3,0.2L1003.5,157.9z"/>
		<path class="st16" d="M1013.6,153.5l5.1,1.1c0.6,0.1,0.9,0.7,0.8,1.3l-1.1,5c-0.1,0.6-0.7,0.9-1.3,0.8l-5-1.1
			c-0.6-0.1-0.9-0.7-0.8-1.3l1.1-5C1012.4,153.8,1013,153.4,1013.6,153.5z"/>
		<path class="st17" d="M1012.2,159.8c-0.1,0-0.2-0.2-0.2-0.3l1.1-5c0-0.1,0.2-0.2,0.3-0.2l5.1,1.1c0.1,0,0.2,0.2,0.2,0.3l-1.1,5
			c0,0.1-0.2,0.2-0.3,0.2L1012.2,159.8z"/>
		<path class="st16" d="M1022.2,155.5l5,1.1c0.6,0.1,1,0.7,0.8,1.3l-1.1,5c-0.1,0.6-0.7,0.9-1.3,0.8l-5-1.1
			c-0.6-0.1-0.9-0.7-0.8-1.3l1.1-5C1021,155.7,1021.6,155.3,1022.2,155.5z"/>
		<path class="st17" d="M1020.8,161.7c-0.1,0-0.2-0.2-0.2-0.3l1.1-5c0-0.1,0.2-0.2,0.3-0.2l5.1,1.1c0.1,0,0.2,0.2,0.2,0.3l-1.1,5
			c0,0.1-0.2,0.2-0.3,0.2L1020.8,161.7z"/>
		<path class="st16" d="M1030.8,157.4l5.1,1.1c0.6,0.1,1,0.7,0.8,1.3l-1.1,5c-0.1,0.6-0.7,0.9-1.3,0.8l-5.1-1.1
			c-0.6-0.1-0.9-0.7-0.8-1.3l1.1-5C1029.7,157.6,1030.3,157.3,1030.8,157.4z"/>
		<path class="st17" d="M1029.4,163.7c-0.1,0-0.2-0.2-0.2-0.3l1.1-5c0-0.1,0.2-0.2,0.3-0.2l5.1,1.1c0.1,0,0.2,0.2,0.2,0.3l-1.1,5
			c0,0.1-0.2,0.2-0.3,0.2L1029.4,163.7z"/>
		<path class="st16" d="M1039.5,159.4l5.1,1.1c0.6,0.1,0.9,0.7,0.8,1.3l-1.1,5c-0.1,0.6-0.7,0.9-1.3,0.8l-5.1-1.1
			c-0.6-0.1-0.9-0.7-0.8-1.3l1.1-5C1038.3,159.6,1038.9,159.2,1039.5,159.4z"/>
		<path class="st17" d="M1038.1,165.6c-0.1,0-0.2-0.2-0.2-0.3l1.1-5c0-0.1,0.2-0.2,0.3-0.2l5.1,1.1c0.1,0,0.2,0.2,0.2,0.3l-1.1,5
			c0,0.1-0.2,0.2-0.3,0.2L1038.1,165.6z"/>
		<path class="st16" d="M934.1,144.1l5.1,1.1c0.6,0.1,1,0.7,0.8,1.3l-1.1,5c-0.1,0.6-0.7,0.9-1.3,0.8l-5-1.1c-0.6-0.1-1-0.7-0.8-1.3
			l1.1-5C932.9,144.3,933.5,144,934.1,144.1z"/>
		<path class="st17" d="M932.6,150.4c-0.1,0-0.2-0.2-0.2-0.3l1.1-5c0-0.1,0.2-0.2,0.3-0.2l5.1,1.1c0.1,0,0.2,0.2,0.2,0.3l-1.1,5
			c0,0.1-0.2,0.2-0.3,0.2L932.6,150.4z"/>
		<path class="st16" d="M942.7,146l5,1.1c0.6,0.1,1,0.7,0.8,1.3l-1.1,5c-0.1,0.6-0.7,0.9-1.3,0.8l-5.1-1.1c-0.6-0.1-0.9-0.7-0.8-1.3
			l1.1-5C941.5,146.3,942.1,145.9,942.7,146z"/>
		<path class="st17" d="M941.3,152.3c-0.1,0-0.2-0.2-0.2-0.3l1.1-5c0-0.1,0.2-0.2,0.3-0.2l5.1,1.1c0.1,0,0.2,0.2,0.2,0.3l-1.1,5
			c0,0.1-0.2,0.2-0.3,0.2L941.3,152.3z"/>
		<path class="st16" d="M951.3,148l5.1,1.1c0.6,0.1,0.9,0.7,0.8,1.3l-1.1,5c-0.1,0.6-0.7,0.9-1.3,0.8l-5-1.1
			c-0.6-0.1-0.9-0.7-0.8-1.3l1.1-5C950.2,148.2,950.7,147.8,951.3,148z"/>
		<path class="st17" d="M949.9,154.2c-0.1,0-0.2-0.2-0.2-0.3l1.1-5c0-0.1,0.2-0.2,0.3-0.2l5.1,1.1c0.1,0,0.2,0.2,0.2,0.3l-1.1,5
			c0,0.1-0.2,0.2-0.3,0.2L949.9,154.2z"/>
		<path class="st16" d="M960,149.9l5,1.1c0.6,0.1,1,0.7,0.8,1.3l-1.1,5c-0.1,0.6-0.7,0.9-1.3,0.8l-5.1-1.1c-0.6-0.1-0.9-0.7-0.8-1.3
			l1.1-5C958.8,150.1,959.4,149.8,960,149.9z"/>
		<path class="st17" d="M958.6,156.2c-0.1,0-0.2-0.2-0.2-0.3l1.1-5c0-0.1,0.2-0.2,0.3-0.2l5.1,1.1c0.1,0,0.2,0.2,0.2,0.3l-1.1,5
			c0,0.1-0.2,0.2-0.3,0.2L958.6,156.2z"/>
		<path class="st16" d="M968.6,151.9l5.1,1.1c0.6,0.1,0.9,0.7,0.8,1.3l-1.1,5c-0.1,0.6-0.7,0.9-1.3,0.8l-5-1.1
			c-0.6-0.1-0.9-0.7-0.8-1.3l1.1-5C967.4,152.1,968,151.7,968.6,151.9z"/>
		<path class="st17" d="M967.2,158.1c-0.1,0-0.2-0.2-0.2-0.3l1.1-5c0-0.1,0.2-0.2,0.3-0.2l5.1,1.1c0.1,0,0.2,0.2,0.2,0.3l-1.1,5
			c0,0.1-0.2,0.2-0.3,0.2L967.2,158.1z"/>
		<path class="st16" d="M977.2,153.8l5.1,1.1c0.6,0.1,1,0.7,0.8,1.3l-1.1,5c-0.1,0.6-0.7,0.9-1.3,0.8l-5-1.1
			c-0.6-0.1-0.9-0.7-0.8-1.3l1.1-5C976.1,154,976.7,153.7,977.2,153.8z"/>
		<path class="st17" d="M975.8,160.1c-0.1,0-0.2-0.2-0.2-0.3l1.1-5c0-0.1,0.2-0.2,0.3-0.2l5.1,1.1c0.1,0,0.2,0.2,0.2,0.3l-1.1,5
			c0,0.1-0.2,0.2-0.3,0.2L975.8,160.1z"/>
		<path class="st16" d="M985.9,155.8l5.1,1.1c0.6,0.1,0.9,0.7,0.8,1.3l-1.1,5c-0.1,0.6-0.7,0.9-1.3,0.8l-5.1-1.1
			c-0.6-0.1-0.9-0.7-0.8-1.3l1.1-5C984.7,156,985.3,155.6,985.9,155.8z"/>
		<path class="st17" d="M984.5,162c-0.1,0-0.2-0.2-0.2-0.3l1.1-5c0-0.1,0.2-0.2,0.3-0.2l5.1,1.1c0.1,0,0.2,0.2,0.2,0.3l-1.1,5
			c0,0.1-0.2,0.2-0.3,0.2L984.5,162z"/>
		<path class="st16" d="M994.5,157.7l5,1.1c0.6,0.1,1,0.7,0.8,1.3l-1.1,5c-0.1,0.6-0.7,0.9-1.3,0.8l-5-1.1c-0.6-0.1-0.9-0.7-0.8-1.3
			l1.1-5C993.3,157.9,993.9,157.6,994.5,157.7z"/>
		<path class="st17" d="M993.1,163.9c-0.1,0-0.2-0.2-0.2-0.3l1.1-5c0-0.1,0.2-0.2,0.3-0.2l5,1.1c0.1,0,0.2,0.2,0.2,0.3l-1.1,5
			c0,0.1-0.2,0.2-0.3,0.2L993.1,163.9z"/>
		<path class="st16" d="M1003.1,159.6l5.1,1.1c0.6,0.1,1,0.7,0.8,1.3l-1.1,5c-0.1,0.6-0.7,0.9-1.3,0.8l-5.1-1.1
			c-0.6-0.1-0.9-0.7-0.8-1.3l1.1-5C1002,159.9,1002.5,159.5,1003.1,159.6z"/>
		<path class="st17" d="M1001.7,165.9c-0.1,0-0.2-0.2-0.2-0.3l1.1-5c0-0.1,0.2-0.2,0.3-0.2l5,1.1c0.1,0,0.2,0.2,0.2,0.3l-1.1,5
			c0,0.1-0.2,0.2-0.3,0.2L1001.7,165.9z"/>
		<path class="st16" d="M1011.7,161.6l5.1,1.1c0.6,0.1,0.9,0.7,0.8,1.3l-1.1,5c-0.1,0.6-0.7,0.9-1.3,0.8l-5.1-1.1
			c-0.6-0.1-0.9-0.7-0.8-1.3l1.1-5C1010.6,161.8,1011.2,161.4,1011.7,161.6z"/>
		<path class="st17" d="M1010.3,167.8c-0.1,0-0.2-0.2-0.2-0.3l1.1-5c0-0.1,0.2-0.2,0.3-0.2l5.1,1.1c0.1,0,0.2,0.2,0.2,0.3l-1.1,5
			c0,0.1-0.2,0.2-0.3,0.2L1010.3,167.8z"/>
		<path class="st16" d="M1020.4,163.5l5.1,1.1c0.6,0.1,0.9,0.7,0.8,1.3l-1.1,5c-0.1,0.6-0.7,0.9-1.3,0.8l-5.1-1.1
			c-0.6-0.1-0.9-0.7-0.8-1.3l1.1-5C1019.2,163.7,1019.8,163.4,1020.4,163.5z"/>
		<path class="st17" d="M1019,169.8c-0.1,0-0.2-0.2-0.2-0.3l1.1-5c0-0.1,0.2-0.2,0.3-0.2l5.1,1.1c0.1,0,0.2,0.2,0.2,0.3l-1.1,5
			c0,0.1-0.2,0.2-0.3,0.2L1019,169.8z"/>
		<path class="st16" d="M1029,165.5l5.1,1.1c0.6,0.1,0.9,0.7,0.8,1.3l-1.1,5c-0.1,0.6-0.7,0.9-1.3,0.8l-5.1-1.1
			c-0.6-0.1-0.9-0.7-0.8-1.3l1.1-5C1027.9,165.7,1028.4,165.3,1029,165.5z"/>
		<path class="st17" d="M1027.6,171.7c-0.1,0-0.2-0.2-0.2-0.3l1.1-5c0-0.1,0.2-0.2,0.3-0.2l5.1,1.1c0.1,0,0.2,0.2,0.2,0.3l-1.1,5
			c0,0.1-0.2,0.2-0.3,0.2L1027.6,171.7z"/>
		<path class="st16" d="M1037.7,167.4l5.1,1.1c0.6,0.1,0.9,0.7,0.8,1.3l-1.1,5c-0.1,0.6-0.7,0.9-1.3,0.8l-5.1-1.1
			c-0.6-0.1-0.9-0.7-0.8-1.3l1.1-5C1036.5,167.6,1037.1,167.3,1037.7,167.4z"/>
		<path class="st17" d="M1036.3,173.7c-0.1,0-0.2-0.2-0.2-0.3l1.1-5c0-0.1,0.2-0.2,0.3-0.2l5.1,1.1c0.1,0,0.2,0.2,0.2,0.3l-1.1,5
			c0,0.1-0.2,0.2-0.3,0.2L1036.3,173.7z"/>
		<path class="st16" d="M932.3,152.1l5,1.1c0.6,0.1,1,0.7,0.8,1.3l-1.1,5c-0.1,0.6-0.7,0.9-1.3,0.8l-5.1-1.1
			c-0.6-0.1-0.9-0.7-0.8-1.3l1.1-5C931.1,152.4,931.7,152,932.3,152.1z"/>
		<path class="st17" d="M930.9,158.4c-0.1,0-0.2-0.2-0.2-0.3l1.1-5c0-0.1,0.2-0.2,0.3-0.2l5.1,1.1c0.1,0,0.2,0.2,0.2,0.3l-1.1,5
			c0,0.1-0.2,0.2-0.3,0.2L930.9,158.4z"/>
		<path class="st16" d="M940.9,154.1l5,1.1c0.6,0.1,0.9,0.7,0.8,1.3l-1.1,5c-0.1,0.6-0.7,0.9-1.3,0.8l-5-1.1
			c-0.6-0.1-0.9-0.7-0.8-1.3l1.1-5C939.7,154.3,940.3,154,940.9,154.1z"/>
		<path class="st17" d="M939.5,160.3c-0.1,0-0.2-0.2-0.2-0.3l1.1-5c0-0.1,0.2-0.2,0.3-0.2l5.1,1.1c0.1,0,0.2,0.2,0.2,0.3l-1.1,5
			c0,0.1-0.2,0.2-0.3,0.2L939.5,160.3z"/>
		<path class="st16" d="M949.5,156l5.1,1.1c0.6,0.1,0.9,0.7,0.8,1.3l-1.1,5c-0.1,0.6-0.7,0.9-1.3,0.8l-5.1-1.1
			c-0.6-0.1-1-0.7-0.8-1.3l1.1-5C948.4,156.3,948.9,155.9,949.5,156z"/>
		<path class="st17" d="M948.1,162.3c-0.1,0-0.2-0.2-0.2-0.3l1.1-5c0-0.1,0.2-0.2,0.3-0.2l5.1,1.1c0.1,0,0.2,0.2,0.2,0.3l-1.1,5
			c0,0.1-0.2,0.2-0.3,0.2L948.1,162.3z"/>
		<path class="st16" d="M958.2,157.9l5,1.1c0.6,0.1,0.9,0.7,0.8,1.3l-1.1,5c-0.1,0.6-0.7,0.9-1.3,0.8l-5.1-1.1
			c-0.6-0.1-0.9-0.7-0.8-1.3l1.1-5C957,158.2,957.6,157.8,958.2,157.9z"/>
		<path class="st17" d="M956.7,164.2c-0.1,0-0.2-0.2-0.2-0.3l1.1-5c0-0.1,0.2-0.2,0.3-0.2l5.1,1.1c0.1,0,0.2,0.2,0.2,0.3l-1.1,5
			c0,0.1-0.2,0.2-0.3,0.2L956.7,164.2z"/>
		<path class="st16" d="M966.8,159.9l5.1,1.1c0.6,0.1,0.9,0.7,0.8,1.3l-1.1,5c-0.1,0.6-0.7,0.9-1.3,0.8l-5.1-1.1
			c-0.6-0.1-0.9-0.7-0.8-1.3l1.1-5C965.6,160.1,966.2,159.8,966.8,159.9z"/>
		<path class="st17" d="M965.4,166.2c-0.1,0-0.2-0.2-0.2-0.3l1.1-5c0-0.1,0.2-0.2,0.3-0.2l5.1,1.1c0.1,0,0.2,0.2,0.2,0.3l-1.1,5
			c0,0.1-0.2,0.2-0.3,0.2L965.4,166.2z"/>
		<path class="st16" d="M975.4,161.8l5.1,1.1c0.6,0.1,0.9,0.7,0.8,1.3l-1.1,5c-0.1,0.6-0.7,0.9-1.3,0.8l-5.1-1.1
			c-0.6-0.1-0.9-0.7-0.8-1.3l1.1-5C974.3,162.1,974.8,161.7,975.4,161.8z"/>
		<path class="st17" d="M974,168.1c-0.1,0-0.2-0.2-0.2-0.3l1.1-5c0-0.1,0.2-0.2,0.3-0.2l5.1,1.1c0.1,0,0.2,0.2,0.2,0.3l-1.1,5
			c0,0.1-0.2,0.2-0.3,0.2L974,168.1z"/>
		<path class="st16" d="M984.1,163.8l5,1.1c0.6,0.1,1,0.7,0.8,1.3l-1.1,5c-0.1,0.6-0.7,0.9-1.3,0.8l-5-1.1c-0.6-0.1-0.9-0.7-0.8-1.3
			l1.1-5C982.9,164,983.5,163.7,984.1,163.8z"/>
		<path class="st17" d="M982.7,170c-0.1,0-0.2-0.2-0.2-0.3l1.1-5c0-0.1,0.2-0.2,0.3-0.2l5,1.1c0.1,0,0.2,0.2,0.2,0.3l-1.1,5
			c0,0.1-0.2,0.2-0.3,0.2L982.7,170z"/>
		<path class="st16" d="M992.7,165.7l5.1,1.1c0.6,0.1,0.9,0.7,0.8,1.3l-1.1,5c-0.1,0.6-0.7,0.9-1.3,0.8l-5.1-1.1
			c-0.6-0.1-1-0.7-0.8-1.3l1.1-5C991.5,165.9,992.1,165.6,992.7,165.7z"/>
		<path class="st17" d="M991.3,172c-0.1,0-0.2-0.2-0.2-0.3l1.1-5c0-0.1,0.2-0.2,0.3-0.2l5,1.1c0.1,0,0.2,0.2,0.2,0.3l-1.1,5
			c0,0.1-0.2,0.2-0.3,0.2L991.3,172z"/>
		<path class="st16" d="M1001.3,167.7l5.1,1.1c0.6,0.1,1,0.7,0.8,1.3l-1.1,5c-0.1,0.6-0.7,0.9-1.3,0.8l-5.1-1.1
			c-0.6-0.1-0.9-0.7-0.8-1.3l1.1-5C1000.2,167.9,1000.7,167.5,1001.3,167.7z"/>
		<path class="st17" d="M999.9,173.9c-0.1,0-0.2-0.2-0.2-0.3l1.1-5c0-0.1,0.2-0.2,0.3-0.2l5.1,1.1c0.1,0,0.2,0.2,0.2,0.3l-1.1,5
			c0,0.1-0.2,0.2-0.3,0.2L999.9,173.9z"/>
		<path class="st16" d="M1010,169.6l5,1.1c0.6,0.1,1,0.7,0.8,1.3l-1.1,5c-0.1,0.6-0.7,0.9-1.3,0.8l-5.1-1.1
			c-0.6-0.1-0.9-0.7-0.8-1.3l1.1-5C1008.8,169.8,1009.4,169.5,1010,169.6z"/>
		<path class="st17" d="M1008.5,175.9c-0.1,0-0.2-0.2-0.2-0.3l1.1-5c0-0.1,0.2-0.2,0.3-0.2l5.1,1.1c0.1,0,0.2,0.2,0.2,0.3l-1.1,5
			c0,0.1-0.2,0.2-0.3,0.2L1008.5,175.9z"/>
		<path class="st16" d="M1018.6,171.5l5,1.1c0.6,0.1,0.9,0.7,0.8,1.3l-1.1,5c-0.1,0.6-0.7,0.9-1.3,0.8l-5-1.1
			c-0.6-0.1-0.9-0.7-0.8-1.3l1.1-5C1017.4,171.8,1018,171.4,1018.6,171.5z"/>
		<path class="st17" d="M1017.2,177.8c-0.1,0-0.2-0.2-0.2-0.3l1.1-5c0-0.1,0.2-0.2,0.3-0.2l5.1,1.1c0.1,0,0.2,0.2,0.2,0.3l-1.1,5
			c0,0.1-0.2,0.2-0.3,0.2L1017.2,177.8z"/>
		<path class="st16" d="M1027.2,173.5l5.1,1.1c0.6,0.1,0.9,0.7,0.8,1.3l-1.1,5c-0.1,0.6-0.7,0.9-1.3,0.8l-5.1-1.1
			c-0.6-0.1-0.9-0.7-0.8-1.3l1.1-5C1026.1,173.7,1026.6,173.3,1027.2,173.5z"/>
		<path class="st17" d="M1025.8,179.8c-0.1,0-0.2-0.2-0.2-0.3l1.1-5c0-0.1,0.2-0.2,0.3-0.2l5.1,1.1c0.1,0,0.2,0.2,0.2,0.3l-1.1,4.9
			c0,0.1-0.2,0.2-0.3,0.2L1025.8,179.8z"/>
		<path class="st16" d="M1035.9,175.4l5,1.1c0.6,0.1,0.9,0.7,0.8,1.3l-1.1,5c-0.1,0.6-0.7,0.9-1.3,0.8l-5.1-1.1
			c-0.6-0.1-0.9-0.7-0.8-1.3l1.1-5C1034.7,175.6,1035.3,175.3,1035.9,175.4z"/>
		<path class="st17" d="M1034.4,181.7c-0.1,0-0.2-0.2-0.2-0.3l1.1-5c0-0.1,0.2-0.2,0.3-0.2l5,1.1c0.1,0,0.2,0.2,0.2,0.3l-1.1,5
			c0,0.1-0.2,0.2-0.3,0.2L1034.4,181.7z"/>
		<path class="st16" d="M930.4,160.2l5.1,1.1c0.6,0.1,1,0.7,0.8,1.3l-1.1,5c-0.1,0.6-0.7,0.9-1.3,0.8l-5-1.1c-0.6-0.1-1-0.7-0.8-1.3
			l1.1-5C929.3,160.4,929.9,160,930.4,160.2z"/>
		<path class="st17" d="M929,166.4c-0.1,0-0.2-0.2-0.2-0.3l1.1-5c0-0.1,0.2-0.2,0.3-0.2l5.1,1.1c0.1,0,0.2,0.2,0.2,0.3l-1.1,5
			c0,0.1-0.2,0.2-0.3,0.2L929,166.4z"/>
		<path class="st16" d="M939.1,162.1l5.1,1.1c0.6,0.1,0.9,0.7,0.8,1.3l-1.1,5c-0.1,0.6-0.7,0.9-1.3,0.8l-5.1-1.1
			c-0.6-0.1-1-0.7-0.8-1.3l1.1-5C937.9,162.3,938.5,162,939.1,162.1z"/>
		<path class="st17" d="M937.7,168.4c-0.1,0-0.2-0.2-0.2-0.3l1.1-5c0-0.1,0.2-0.2,0.3-0.2l5.1,1.1c0.1,0,0.2,0.2,0.2,0.3l-1.1,5
			c0,0.1-0.2,0.2-0.3,0.2L937.7,168.4z"/>
		<path class="st16" d="M947.7,164.1l5.1,1.1c0.6,0.1,0.9,0.7,0.8,1.3l-1.1,5c-0.1,0.6-0.7,0.9-1.3,0.8l-5.1-1.1
			c-0.6-0.1-0.9-0.7-0.8-1.3l1.1-5C946.6,164.3,947.2,163.9,947.7,164.1z"/>
		<path class="st17" d="M946.3,170.3c-0.1,0-0.2-0.2-0.2-0.3l1.1-5c0-0.1,0.2-0.2,0.3-0.2l5.1,1.1c0.1,0,0.2,0.2,0.2,0.3l-1.1,5
			c0,0.1-0.2,0.2-0.3,0.2L946.3,170.3z"/>
		<path class="st16" d="M956.3,166l5.1,1.1c0.6,0.1,1,0.7,0.8,1.3l-1.1,5c-0.1,0.6-0.7,0.9-1.3,0.8l-5-1.1c-0.6-0.1-0.9-0.7-0.8-1.3
			l1.1-5C955.2,166.2,955.8,165.9,956.3,166z"/>
		<path class="st17" d="M954.9,172.2c-0.1,0-0.2-0.2-0.2-0.3l1.1-5c0-0.1,0.2-0.2,0.3-0.2l5,1.1c0.1,0,0.2,0.2,0.2,0.3l-1.1,5
			c0,0.1-0.2,0.2-0.3,0.2L954.9,172.2z"/>
		<path class="st16" d="M995.9,174.9l-31-7c-0.6-0.1-1.1,0.2-1.3,0.8l-1.2,5.3c-0.1,0.4,0.2,0.8,0.6,0.9l31.3,7
			c0.6,0.1,1.2-0.2,1.3-0.8l1.1-5C996.9,175.6,996.5,175,995.9,174.9z"/>
		<path class="st17" d="M963.3,174.1l1.2-5.2c0-0.1,0.2-0.2,0.3-0.2l31,7c0.1,0,0.2,0.2,0.2,0.3l-1.1,5c0,0.1-0.2,0.2-0.3,0.2
			L963.3,174.1z"/>
		<path class="st16" d="M999.5,175.7l5,1.1c0.6,0.1,1,0.7,0.8,1.3l-1.1,5c-0.1,0.6-0.7,0.9-1.3,0.8l-5.1-1.1
			c-0.6-0.1-0.9-0.7-0.8-1.3l1.1-5C998.4,175.9,998.9,175.6,999.5,175.7z"/>
		<path class="st17" d="M998.1,181.9c-0.1,0-0.2-0.2-0.2-0.3l1.1-5c0-0.1,0.2-0.2,0.3-0.2l5.1,1.1c0.1,0,0.2,0.2,0.2,0.3l-1.1,5
			c0,0.1-0.2,0.2-0.3,0.2L998.1,181.9z"/>
		<path class="st16" d="M1008.2,177.7l5,1.1c0.6,0.1,0.9,0.7,0.8,1.3l-1.1,5c-0.1,0.6-0.7,0.9-1.3,0.8l-5.1-1.1
			c-0.6-0.1-0.9-0.7-0.8-1.3l1.1-5C1007,177.9,1007.6,177.5,1008.2,177.7z"/>
		<path class="st17" d="M1006.7,183.9c-0.1,0-0.2-0.2-0.2-0.3l1.1-5c0-0.1,0.2-0.2,0.3-0.2l5.1,1.1c0.1,0,0.2,0.2,0.2,0.3l-1.1,5
			c0,0.1-0.2,0.2-0.3,0.2L1006.7,183.9z"/>
		<path class="st16" d="M1016.8,179.6l5,1.1c0.6,0.1,1,0.7,0.8,1.3l-1.1,5c-0.1,0.6-0.7,0.9-1.3,0.8l-5.1-1.1
			c-0.6-0.1-0.9-0.7-0.8-1.3l1.1-5C1015.6,179.8,1016.2,179.4,1016.8,179.6z"/>
		<path class="st17" d="M1015.4,185.8c-0.1,0-0.2-0.2-0.2-0.3l1.1-5c0-0.1,0.2-0.2,0.3-0.2l5.1,1.1c0.1,0,0.2,0.2,0.2,0.3l-1.1,5
			c0,0.1-0.1,0.2-0.3,0.2L1015.4,185.8z"/>
		<path class="st16" d="M1025.4,181.5l5,1.1c0.6,0.1,0.9,0.7,0.8,1.3l-1.1,5c-0.1,0.6-0.7,0.9-1.3,0.8l-5-1.1
			c-0.6-0.1-0.9-0.7-0.8-1.3l1.1-5C1024.3,181.8,1024.8,181.4,1025.4,181.5z"/>
		<path class="st17" d="M1024,187.8c-0.1,0-0.2-0.2-0.2-0.3l1.1-5c0-0.1,0.2-0.2,0.3-0.2l5.1,1.1c0.1,0,0.2,0.2,0.2,0.3l-1.1,5
			c0,0.1-0.2,0.2-0.3,0.2L1024,187.8z"/>
		<path class="st16" d="M1034,183.5l5.1,1.1c0.6,0.1,1,0.7,0.8,1.3l-1.1,5c-0.1,0.6-0.7,0.9-1.3,0.8l-5-1.1
			c-0.6-0.1-0.9-0.7-0.8-1.3l1.1-5C1032.9,183.7,1033.5,183.3,1034,183.5z"/>
		<path class="st17" d="M1032.6,189.7c-0.1,0-0.2-0.2-0.2-0.3l1.1-5c0-0.1,0.2-0.2,0.3-0.2l5.1,1.1c0.1,0,0.2,0.2,0.2,0.3l-1.1,5
			c0,0.1-0.2,0.2-0.3,0.2L1032.6,189.7z"/>
		<path class="st18" d="M994.4,188.9l-25.3-5.7c-1.1-0.3-2.3,0.5-2.5,1.6l-3.1,13.6c-0.3,1.1,0.5,2.3,1.6,2.5l25.3,5.7
			c1.1,0.3,2.3-0.5,2.5-1.6l3.1-13.6C996.2,190.3,995.5,189.2,994.4,188.9z"/>
		<path class="st19" d="M994.6,188.1l-25.3-5.7c-1.6-0.4-3.2,0.6-3.5,2.2l-3.1,13.6c-0.3,1.6,0.6,3.2,2.2,3.5l25.3,5.7
			c1.6,0.4,3.2-0.6,3.5-2.2l3.1-13.6C997.1,190,996.1,188.4,994.6,188.1z M992.9,205c-0.3,1.1-1.4,1.9-2.5,1.6l-25.3-5.7
			c-1.1-0.3-1.9-1.4-1.6-2.5l3-13.6c0.3-1.1,1.4-1.9,2.5-1.6l25.3,5.7c1.1,0.3,1.9,1.4,1.6,2.5L992.9,205z"/>
		<path class="st20" d="M965,191.7l-1.5,6.7c-0.3,1.1,0.5,2.3,1.6,2.5l25.3,5.7c1.1,0.3,2.3-0.5,2.5-1.6l1.5-6.7L965,191.7z"/>
		<path class="st21" d="M979.6,195l-14.6-3.3l-1.5,6.7c-0.3,1.1,0.4,2.3,1.6,2.5l12.6,2.8L979.6,195z"/>
		<path class="st22" d="M1055.2,150l-124.4-28c-0.7-0.2-1.2-0.9-1.2-1.6l13-71.2c0.2-2,2-3.3,3.9-2.9l126.7,28.5
			c1.9,0.4,3,2.4,2.3,4.3l-18.7,69.9C1056.6,149.8,1055.9,150.2,1055.2,150z"/>
		<path class="st23" d="M935,115.2l12-60.1c0.2-1.8,1.9-3.1,3.7-2.7l116.1,26.1c1.8,0.4,2.8,2.3,2.2,4l-14.8,59.4
			c-0.5,1.4-2.1,2.3-3.6,1.9l-113.3-25.5C935.9,118.1,934.9,116.7,935,115.2z"/>
		<path class="st24" d="M935.8,115.3l12-60.2c0.1-1.3,1.4-2.3,2.7-1.9l116.2,26.1c1.3,0.3,2.1,1.7,1.6,2.9l-14.9,59.5
			c-0.4,1.1-1.5,1.6-2.6,1.4l-113.3-25.5C936.5,117.4,935.7,116.4,935.8,115.3z"/>
		<path class="st25" d="M937.6,109.5c2.1-3.9,5.1-7.5,8.3-10.5c8.4-7.8,20.2-12.2,31.2-14.5c13-2.8,27.7-8.6,40.9-7.4
			c18.4,1.6,30.9,4.4,48.3,10.4l1.9-5.2c0.5-1.2-0.3-2.6-1.6-2.9l-116-26.2c-1.3-0.3-2.6,0.6-2.7,1.9l-11.8,58
			C936.4,111.8,937.1,110.6,937.6,109.5z"/>
		<path class="st16" d="M1037.1,146l-88.5-20l0.1-1.5l89.3,20.1L1037.1,146z"/>
		<path class="st26" d="M1008.3,63.1c0.1-0.5,0.7-0.9,1.2-0.8c0.5,0.1,0.9,0.7,0.8,1.2c-0.1,0.5-0.7,0.9-1.2,0.8
			C1008.5,64.2,1008.2,63.6,1008.3,63.1z"/>
		<path class="st16" d="M1008.6,63.1c0.1-0.4,0.5-0.6,0.9-0.5s0.6,0.5,0.6,0.9c-0.1,0.4-0.5,0.6-0.9,0.5
			C1008.7,63.9,1008.5,63.5,1008.6,63.1z"/>
		<path class="st27" d="M1009,63.2c0-0.2,0.2-0.3,0.3-0.2c0.1,0,0.3,0.2,0.2,0.3c0,0.2-0.2,0.3-0.4,0.2
			C1009.1,63.5,1009,63.4,1009,63.2z"/>
	</g>
	<path class="st28" d="M220.5,557.4c-5.9-25-30.9-40.3-55.7-34.4c-24.9,5.9-40.2,31-34.3,55.9c4.2,17.5,17.7,30.3,34,34.3
		c0.9,2.5,2.7,17.6,5.8,22.5c1.4,2.2,3.2,2.6,5.9,2c2.2,7.8,11.3,14.9,18.8,14.2c5.3-0.5,9.1-4.1,10.8-9c1.3-3.8,2.4-8.2,3.1-12.4
		c3.6-0.1,5.4-0.5,5.2-3.9c-0.3-5.9-6.7-22.1-6.9-24.6C218.8,590.9,224.4,574.2,220.5,557.4z"/>
	<path class="st11" d="M196.4,555.7c-0.7-2.5-3.2-4.2-5.8-3.6c-2.4,0.6-4.3,3.3-3.6,5.8c0.4,1.5,1.6,2.8,3,3.4
		c-1,6.5-2.3,13-2.8,19.6c-0.5,6.1-1,12.1-2.4,18.1c-7.3-10.9-14.5-21.9-22.5-32.3c2.2-2.1,0.5-6.9-3.2-6c-4.4,1-2.8,7.9,1.6,6.9
		c0,0,0.1,0,0.1-0.1c8.3,11.8,16.5,23.8,23.3,36.6c0.7,1.4,2.7,1.1,3.2-0.3c2.2-6.6,2.9-13.3,3.3-20.2c0.5-7.4,2-14.8,2.6-22.2
		C195.5,560.7,197.1,558.1,196.4,555.7z"/>
	<path class="st0" d="M140.6,515c-9.4-4.7-18.8-9.3-28.1-14c-1.9-0.9-3.7,1.9-1.8,2.9c9.1,5,18.3,10.1,27.4,15.1
		C140.8,520.5,143.2,516.4,140.6,515z"/>
	<path class="st0" d="M158.2,479.3c-0.8-1.7-3-0.5-2.8,1.1c1.1,9.7,4.7,19.6,7.5,29c0.7,2.3,4.2,1.5,3.7-0.9
		C164.2,498.9,162.2,488.4,158.2,479.3z"/>
	<path class="st0" d="M201.8,476.5c-2.4,2.1-3.9,5.5-5.4,8.3c-1.6,3-3,6-4.3,9.1c-1.1,2.5,3.1,3.8,4.1,1.2c1.2-3.1,2.6-6.2,4.1-9.2
		c1.3-2.6,3.2-5.1,4-7.9C204.7,476.5,202.9,475.5,201.8,476.5z"/>
</g>
<path class="st29" d="M560.8,1047c125.5,0,227.1-17.7,227.1-39.5c0-21.8-101.7-39.5-227.1-39.5s-227.1,17.7-227.1,39.5
	C333.7,1029.3,435.4,1047,560.8,1047z"/>
<path class="st28" d="M827.1,53.2c2.8,23.2-13.7,50.3-42.3,64.4c-15.6,7.7-34,7.6-49.3-0.9c-21.1-11.7-34.9-32.2-36.2-54.5
	c-1.2-20.9,8.7-43.6,27-54.6C761.8-13.6,822.4,13.6,827.1,53.2z"/>
<path class="st28" d="M728.3,128.9c0.6,5.2-1.6,11-6,15.6c-9.8,10.4-26.8,9.1-34.1-3.2c-1.7-2.9-2.7-6.1-2.9-9.5
	c-0.4-7,2.9-14.7,9.1-18.4C706.3,106.3,726.7,115.5,728.3,128.9z"/>
<path class="st28" d="M693.1,161.3c0.3,2.2-0.4,4.6-1.9,6.8c-5.2,7.7-16.9,7.4-20.8-1.1c-0.6-1.3-0.9-2.6-1-4.1
	c-0.2-3.9,1.6-8.1,5-10.1C681,148.9,692.2,154,693.1,161.3z"/>
<path class="st11" d="M745.8,55.8c2.4,7.3,5.2,14.5,8.6,21.4c1.7,3.5,3.5,6.9,5.4,10.2c1.6,2.7,3.3,5.4,5.4,7.7
	c3.8,4.2,9.5,6.9,15.1,4.6c5.2-2.2,8.7-7.7,9.9-13.1c1.3-6.2,0.1-12.9-2.9-18.5c-3.1-5.7-8.2-10.1-14.2-12.4
	c-6-2.3-13.2-2.7-19.2-0.2c-6.5,2.7-9.7,8.8-12.1,15.1c-2.5,6.7-4,14.4-1.8,21.4c1.7,5.5,5.7,10.5,11.1,12.6
	c1.3,0.5,2.8,0.8,4.2,0.9c0.7,0.1,0.7-0.8,0.3-1.1c-3.4-2.6-6.8-5.1-10.1-7.7c0,0.3,0,0.7,0,1c7.7-3.3,15.3-7.9,20.1-14.9
	c4.1-6,5.4-13.8,2.8-20.7c-1.4-3.6-3.8-6.7-7.1-8.6c-0.3-0.1-0.7-0.1-0.8,0.2c-4.9,11-1.4,24.5,7.3,32.5c2.5,2.2,5.3,4,8.4,5.1
	c0.1-0.4,0.2-0.8,0.3-1.1c-6.1-2.2-12.2-4.3-18.2-6.4c-5.3-1.9-10.8-3.5-15.9-5.8c-4.1-1.9-8.3-4.7-9.5-9.3
	c-1.3-5.2,1.7-10.6,5.7-13.8c4.3-3.5,9.9-5.3,15.1-6.8c5.9-1.8,11.9-3,18-3.2c10.2-0.3,20.7,2.6,28.2,9.9c1.7,1.7,3.3,3.6,4.5,5.7
	c1.2,2.1,3.4,5.5,1.2,7.6c-1.7,1.7-4.7,2.1-7,2.6c-3,0.7-6,1.5-9.1,2.1c-11,2.2-22.7,2.8-32.9-2.6c-4.1-2.2-7.8-5.3-10.3-9.3
	c-1.5-2.4-2.7-5.2-2.6-8c0.1-2.5,1.3-4.7,3-6.4c6.2-6.1,17.2-6.5,24.8-2.9c3.7,1.8,6.8,4.7,8.2,8.6c1.6,4.5,0.7,9.3-1.7,13.3
	c-5.7,9.8-17.1,12.5-27.6,13c-2.8,0.1-5.6,0.2-8.4,0.2c-0.2,0-0.4,0.1-0.5,0.3c-2,3.5,1.4,6.9,4,8.8c3.8,2.7,8,4.9,12.3,6.6
	s8.7,2.9,13.3,3.5c4.2,0.6,9,0.6,12.7-1.9c3.3-2.2,5.5-6.4,4.2-10.4c-0.1-0.3-0.4-0.5-0.7-0.4c-3,0.9-5.5,2.6-7.9,4.4
	c-2.6,2-5.1,3.9-7.9,5.5c-5.6,3.1-12.1,5.1-18.5,4.9c-11.3-0.3-22.9-8.5-23.9-20.4c-0.3-3.2,0.3-6.6,2-9.3c1.8-2.7,4.7-4.3,7.8-5.1
	c6.1-1.4,12.6,0.5,17.9,3.6c2.7,1.6,5.2,3.6,7.5,5.8c2.1,2,3.8,4.5,6.2,6.2c2.6,1.9,5.4,1.9,8.4,1c3.4-1,6.7-2.2,9.9-3.5
	c6.5-2.6,12.9-5.6,18.9-9.2c2.3-1.4,4.5-3.2,5.1-5.9c0.7-2.7-0.2-5.4-1.4-7.8c-1.3-2.7-3.2-5.1-5.1-7.4c-1.8-2.2-3.8-4.3-6.2-5.9
	c-2.5-1.6-5.4-2.4-8.3-2.2c-3.4,0.3-6.7,1.5-9.9,2.5c-2.7,0.8-5.6,1.3-8.5,0.8c-1.5-0.3-7.2-2.5-3.8-4.2c1.1-0.5,2.4-0.6,3.5-0.5
	c1.6,0.1,3.2,0.3,4.8,0.7c2.9,0.6,5.6,1.6,8.3,2.9c10.9,5.3,18.4,15.8,19,27.9c0.3,6.1-1,12.4-4.2,17.7c-2.9,4.9-7.3,8.9-12.5,11.4
	c-5.1,2.5-10.9,3.6-16.5,2.9c-2.6-0.3-6.6-0.9-6.7-4.3c-0.1-2.5,1.8-4.9,4.2-5.7c3.5-1.1,7.2,0.2,10.5,1.4c0.7,0.3,1-0.9,0.3-1.1
	c-7.9-3.3-16.1-5.6-24.1-8.6c-7.8-2.9-15.7-6.5-21.9-12.2c-7.1-6.6-10.7-15.5-13-24.7c-1.8-7.4-5.4-19.8,3-24.6
	c3.6-2.1,8.1-1.6,11.9-0.4c4.4,1.3,8.5,3.7,12.4,6.1c4.4,2.7,8.6,5.8,12.5,9.2c1.9,1.7,3.6,3.7,3.9,6.3c0.3,2.6-0.5,5.2-1.7,7.5
	c-3.5,6.9-10.6,11.4-18.1,12.7c-3.8,0.7-7.7,0.5-11.4-0.6c-0.9-0.3-1.8-0.6-2.6-1c-1-0.5-2-1-3.1-1.2c-1.8-0.3-3.4,1-4.4,2.4
	c-2.2,2.8-2.4,6.6-1.5,10c1,3.8,3.6,6.7,6.8,8.8c3.7,2.3,8,3.4,12.2,4.2c5.2,1,10.5,1.6,15.8,2.1c5.3,0.4,10.8,0.8,16,0.3
	c4.4-0.4,8-2.3,9.8-6.5c3.2-7.4,1.2-16.5-3.5-22.8c-2.6-3.4-5.9-5.8-9.7-7.6c-4.1-2-9.8-4.6-9.8-9.9c-0.1-4.8,5.5-6.9,9.2-8.4
	c4.3-1.7,8.7-3.2,13.3-4s9.3-0.8,13.7,0.8c4.4,1.6,8,4.7,10.5,8.6c2.4,3.7,4,8.1,4.8,12.4s0.7,9.1-1.6,12.9
	c-4.9,7.8-15.9,5.8-22.9,2.5c-4.4-2.1-8.6-4.8-12.3-8.1c-1.8-1.6-3.5-3.2-5.1-5.1c-1.6-1.9-3-4.3-2.3-6.9c0.6-2.2,2.5-3.8,4.3-5.1
	c2-1.3,4.2-2.5,6.4-3.4c4.6-2,9.9-3.2,14.9-2.4c8.3,1.2,16.1,7.9,15,16.9c-0.5,3.8-2.5,7.3-5.9,9.2c-0.7,0.4-0.1,1.4,0.6,1
	c7-3.8,8.4-13.7,4.2-20c-5.2-7.9-15.5-9.8-24.2-7.5c-7,1.8-21.3,8-15.1,17.4c2.7,4,6.8,7.4,10.8,10.2c3.8,2.7,8.1,5.1,12.6,6.6
	c4,1.3,8.4,1.9,12.4,0.8c3.9-1,7-3.7,8.6-7.5c1.7-4,1.5-8.7,0.6-12.9c-1-4.4-2.7-8.9-5.3-12.6c-2.6-3.7-6.2-6.6-10.4-8.2
	c-4.3-1.6-9.1-1.6-13.6-1c-5,0.7-9.8,2.3-14.5,4.2c-3.6,1.4-8,3.2-9.4,7.1c-1.6,4.3,1.7,8.5,5.1,10.8c2.2,1.4,4.6,2.4,6.9,3.6
	c2,1.1,3.9,2.5,5.5,4.1c3.1,3.2,5.3,7.4,6.2,11.8s0.7,9.6-1.8,13.5c-3.1,4.9-9.5,4.5-14.6,4.5c-5.9-0.1-11.7-0.5-17.5-1.3
	c-8.8-1.2-21.6-2.5-25.3-12.1c-1.4-3.8-1.3-8.8,2.2-11.4c2.1-1.6,4.7,0.5,6.9,1.2c1.8,0.6,3.7,1,5.6,1.2c7.7,0.7,15.8-2.1,21.4-7.5
	c3-2.9,5.4-6.7,6.2-10.8c0.4-2.2,0.3-4.6-0.8-6.6c-1.1-2.1-3-3.7-4.8-5.2c-4.1-3.4-8.4-6.5-13-9.2c-4-2.4-8.1-4.6-12.7-5.6
	c-3.8-0.8-8.1-0.9-11.5,1.4c-3.5,2.3-5,6.3-5.2,10.3c-0.2,4.6,0.8,9.3,1.9,13.7c1.1,4.9,2.5,9.7,4.7,14.2
	c3.9,8.4,10.4,14.8,18.4,19.3c7.8,4.4,16.4,7.1,24.9,9.9c4.2,1.4,8.3,2.8,12.3,4.5c0.1-0.4,0.2-0.8,0.3-1.1
	c-3.3-1.1-6.8-2.3-10.3-1.6c-2.4,0.5-4.4,2.2-5.3,4.5c-0.8,2-0.7,4.4,1,5.9c2.1,1.9,5.7,2.1,8.4,2.2c11.8,0.6,23.6-6.2,28.9-16.8
	c5.6-11.2,4.2-25.2-3.4-35.1c-3.7-4.8-8.6-8.5-14.1-11c-2.8-1.2-5.7-2.1-8.7-2.6c-2.5-0.4-5.5-1-7.8,0.2c-0.9,0.4-1.6,1.2-1.7,2.2
	c-0.1,1.1,1,2,1.8,2.6c2.1,1.6,4.9,2,7.5,1.8c6.9-0.4,13.6-5.5,20.5-2.8c3.1,1.2,5.5,3.6,7.7,6.1s4.3,5.2,5.8,8.2
	c1.5,3.2,2.1,7-0.5,9.7c-1.1,1.2-2.6,2.1-4.1,2.9c-1.7,0.9-3.3,1.9-5,2.7c-6.9,3.5-14,6.5-21.4,8.9c-1.9,0.6-3.9,1.3-5.9,0.7
	c-1.7-0.5-3-1.6-4.2-2.8c-2.3-2.4-4.4-4.8-7-7c-4.8-4-10.6-7-16.9-7.7c-6.1-0.6-12.9,1.2-15.9,7c-2.7,5.2-2,11.7,0.7,16.8
	c2.7,5.1,7.2,9.2,12.5,11.5c12.4,5.4,26.2,0.4,36.2-7.4c2.7-2.1,5.4-4.3,8.7-5.2c-0.2-0.1-0.5-0.3-0.7-0.4c1.1,3.4-0.7,7-3.5,9
	c-3.2,2.3-7.6,2.4-11.4,2c-7.8-0.9-15.6-3.8-22.3-7.8c-2.7-1.6-9.4-5.4-7.1-9.5c-0.2,0.1-0.3,0.2-0.5,0.3
	c11.4-0.1,24.4-0.3,33.1-8.8c3.5-3.4,6.1-8,6.5-12.9c0.4-4.5-1.3-9-4.5-12.2c-6.4-6.3-17.2-7.5-25.3-4.2c-4.3,1.7-8.5,5-9.2,9.8
	c-0.7,5.2,2.7,10.6,6.2,14.1c7.9,8,19.6,10.4,30.4,9.7c6.8-0.5,13.5-2,20.2-3.7c2.4-0.6,5.3-1,7.1-2.8c1.9-1.9,1.2-4.4,0.2-6.6
	c-4.3-9.4-14-15.6-23.9-17.7c-12.4-2.6-25.8,0.2-37.3,5c-5.1,2.1-10,5.2-12.5,10.3c-2.2,4.5-2,9.8,1.2,13.7c3.1,3.8,8,5.7,12.5,7.3
	c6.6,2.4,13.2,4.7,19.8,7c3.3,1.2,6.5,2.3,9.8,3.5c0.7,0.3,1-0.9,0.3-1.1c-10.7-4-17.4-15.4-17.1-26.6c0.1-3.2,0.8-6.4,2.1-9.3
	c-0.3,0.1-0.5,0.1-0.8,0.2c6,3.4,8.4,10.6,7.8,17.2c-0.7,7.7-5.8,14-11.9,18.5c-3.6,2.6-7.6,4.7-11.7,6.4c-0.4,0.2-0.3,0.8,0,1
	c3.4,2.6,6.8,5.1,10.1,7.7c0.1-0.4,0.2-0.7,0.3-1.1c-5.7-0.5-10.4-4.6-12.9-9.6c-3.1-6.1-2.5-13.3-0.7-19.7c1.7-6,4.3-13.2,9.7-16.8
	c5.2-3.5,12.2-3.9,18.1-2.4c12.2,3,20.8,14.5,20.1,27.1c-0.3,5.5-2.8,11.3-7.5,14.5c-5,3.3-10.7,1.8-14.8-2.1
	c-2.3-2.2-4.1-4.9-5.7-7.6c-2-3.3-3.7-6.8-5.4-10.2c-3.5-7.1-6.5-14.5-8.9-22.1C746.7,54.7,745.6,55.1,745.8,55.8z"/>
<g>
	<g>
		<g>
			<g>
				<path class="st30" d="M637.4,322.7c-0.2,11.7-0.4,23.5-1.3,35.2c-0.6,6.9-1.4,13.8-3.5,20.4c-2.1,6.7-6.2,12.4-8.7,18.9
					c-2.2,5.9-3.6,12-4.3,18.2c-0.6,4.4-0.8,8.8-0.8,13.2H484c0.5-8.4,0.3-16.8-1.8-25.2c-2-7.9-6.6-14.7-9.4-22.4
					c-4-11.3-3.6-22.7-4.8-34.4c-1.2-12.3-2.4-24.7-3.1-37.1c-0.5-7.9,0.7-19.6,1.2-27.6c0.2-2.5,0-9.7,3.2-10.9
					c19.6-3.6,53.4-29.4,53.4-29.4c1.3-3,1.9-7,2.2-11.2c0.1-1.7,0.2-3.4,0.2-5.1c0-3.8-0.2-7.6-0.4-11c9.1,5,20.4,6.3,30.5,6.3
					c9.2,0,18.6-1.3,27.4-4.1c-0.1,2.2-0.3,4.5-0.3,6.9c0,1.8,0,3.5,0.1,5.3c0.3,5.8,1.3,11.6,3.7,16c0.6,0.8,1.2,1.5,1.9,1.8
					c12.4,6.7,32.2,21.6,48.5,24.5c1.7,4.4,0.8,10.9,0.9,15.4C637.5,297.3,637.6,311.8,637.4,322.7z"/>
				<path class="st31" d="M582.2,223.4c0,1.1,0,2.2,0,3.3c-2,2.4-5.1,5.6-9.5,8.8c-5.3,3.9-10.9,8-18.7,8.3
					c-7.5,0.3-13.2-3-17.5-5.4c-5.5-3.2-9.3-6.9-11.5-9.5c0-1.2,0.1-2.4,0.1-3.6c0-3.8-0.1-7.5-0.4-11c9.1,5,20.4,6.3,30.5,6.3
					c9.2,0,18.6-1.3,27.4-4.1C582.3,218.7,582.2,221,582.2,223.4z"/>
				<path class="st30" d="M514.2,173.7c-0.9-3.3,0.9-4.3-2.7-5.9c-3-1.3-5.7,4.6-6.4,8.7c-0.7,4.2,3.6,18.7,6,20.8
					c2.4,2,5.5,2.7,6.4-0.8L514.2,173.7z"/>
				<path class="st30" d="M592.2,161.7c1.8,17.4,3.3,35.3-6.2,52.1c-0.8,1.4-3.9,6.7-9.4,12.1c-4.7,4.6-11.4,10-20.9,12
					c-1.8,0.4-3.7,0.4-5.5,0c-14.2-3-25.9-16.3-29.4-22.1c0,0,0,0,0,0c-0.4-0.6-0.9-1.3-1.3-2.2c-0.5-0.9-0.8-1.8-1.1-2.5
					c0,0,0,0,0,0c-3.3-9.1-4.2-34.6-4.8-49.3c-1.5-20.2,11-37.6,31.6-43.7c2.5-0.7,5.1-1.1,7.6-1.1h0c0.2,0,0.4,0,0.6,0
					c2.3,0,4.5,0.3,31.3,16.6C592.2,138,590.7,147.6,592.2,161.7z"/>
			</g>
			<g>
				<path class="st32" d="M470.8,292.5c-8.9-4.8-17.6-10.3-24.7-17.4c-16.4,23.8-37,54.2-42.2,65.1c10.5,7.8,34.2,23.7,44.6,39.7
					l5.9-8.4l22.4-32.3c7.1-10.9,14.2-21.8,21.3-32.8C489,301.8,479.8,297.3,470.8,292.5z"/>
			</g>
			<path class="st33" d="M458,367.2c-17.1-12.9-34.1-25.7-51.2-38.6c-2.8,3.7-5.8,7.7-8.7,12.2c-2.6,3.9-4.9,7.8-6.9,11.4
				c16.5,12.5,33.1,25.1,49.6,37.6c2.4-2.9,4.9-5.9,7.4-9.2C451.9,376,455.1,371.5,458,367.2z"/>
			<path class="st30" d="M499.8,933.7c-1.8-11.2-4.3-27.1-8.2-46.8c-2-10.5-4.8-23.8-8.3-39.4c0,0,23.8-23.5,44.2-12.3
				c15.2,8.3,10.2,38.7,4.6,99.9c-0.6,6.8-1.2,12.4-1.6,16.6c-9.3,0-18.6,0-27.9,0C501.9,947.2,501,941,499.8,933.7z"/>
			<path class="st30" d="M614,933.7c1.8-11.2,4.3-27.1,8.2-46.8c2-10.5,4.8-23.8,8.3-39.4c0,0-23.9-23.6-44.2-12.3
				c-14.5,8.1-10.2,38.7-4.6,99.9c0.6,6.8,1.2,12.4,1.6,16.6c9.3,0,18.6,0,27.9,0C611.9,947.2,612.8,941,614,933.7z"/>
			<path class="st34" d="M458.1,560c-4.4,57.9-6.1,107.7-6.6,146.9c-1.4,98.1,4.2,128,26.1,145.8c18.3,14.9,42.1,16.5,60.1,15.2
				c4.7-23.7,8.8-49.5,12-77c3.3-28.7,5.1-55.7,5.9-80.7c-2.9-47.9-5.8-95.7-8.7-143.6C517.3,564.4,487.7,562.2,458.1,560z"/>
			<path class="st34" d="M645.5,556.3c12.2,37.9,39.1,261.9-20.8,311.1c-7.9,13.1-38.4,14.2-48,3.5c-4.6-24.4-8.9-49.7-12.9-75.7
				c-5.2-34-9.3-66.9-12.7-98.6c-2-13.2-3.6-27.6-4.4-43c-1.6-33.1,1-62.4,4.9-86.9C562.1,555.5,635,549.9,645.5,556.3z"/>
			<g>
				<g>
					<path class="st35" d="M534.7,727.6c2.3,29.4-16.9,59.9-44.4,70.5C512.2,776.8,524.9,756.7,534.7,727.6L534.7,727.6z"/>
				</g>
				<g>
					<path class="st35" d="M537.3,752.8c9.2,26.1-1.1,58.5-23.6,74.6c3.3-6.1,6.5-11.9,9.2-17.8
						C531.5,791.6,535.4,772.6,537.3,752.8L537.3,752.8z"/>
				</g>
				<g>
					<path class="st35" d="M570.9,734c7.3,11.2,13.7,22.2,21.4,32.9c7.5,10.8,15.6,20.7,23.6,31.3C592.5,786.3,574.1,760,570.9,734
						L570.9,734z"/>
				</g>
				<g>
					<path class="st35" d="M565.9,759.2c4.5,11.3,8.6,22,14.1,32.6c5.4,10.6,11.8,20.2,18.3,30.5
						C577.1,810.4,563.2,783.2,565.9,759.2L565.9,759.2z"/>
				</g>
				<g>
					<path class="st35" d="M532.4,699.6c0.4,21.1-15.6,43.2-35.9,49.4c3.5-4.2,6.9-8,10.1-11.9C516.7,725.4,524.4,712.9,532.4,699.6
						L532.4,699.6z"/>
				</g>
				<g>
					<path class="st35" d="M574,705.1c5.3,6.1,11.4,14.8,16.3,21.1c4.9,6.5,11.6,14.5,16,21.4C589.3,741.8,575,723.1,574,705.1
						L574,705.1z"/>
				</g>
				<path class="st36" d="M579.3,596.5c2.3,7-0.1,16.4-0.3,22.9c-0.3,14.7,0,29.4,0.2,44.1c0.5,29.7,2.2,59.6,1,89.3
					c-0.2,4.3,0.1,9.3-1.4,13.4c-5.3,14.2-36.8,19.1-48.5-1.7c-4.5-8.1-3.8-19.8-3.9-28.7c-0.1-15.5,1.1-31,2.4-46.5
					c2.4-28.4,5.2-57,8.5-85.3c1.6-13.6,18.7-17.9,30-16.2c3.5,0.5,7.2,1.7,9.5,4.4C578,593.5,578.8,594.9,579.3,596.5z"/>
			</g>
			<path class="st32" d="M652.3,580.3c-24.8,8.6-63.3,18.6-111,17.6c-35.6-0.8-65.2-7.5-86.7-14.2c5.3-40.1,9.1-67.5,10.6-77.3
				c0.3-2.2,1.4-9.1,2.3-18.5c0.3-2.9,0.5-6,0.7-9.3c0.8-12.5,0.4-19.5,0.3-38.6c-0.2-28.7-0.4-27.2,0.1-38.3
				c0.1-2.7,0.1-5.5,0.1-8.3c-0.4-12.8-2.6-26-4.3-34.5c-1.1-5.4-1.9-8.8-1.9-8.8c-3.6-14.3-7.6-37.2-8.7-75.7
				c0-1.2-0.1-2.4-0.1-3.7c4.4-1.4,8.6-2.7,12.4-4c20.2-6.7,32.7-11.5,39.9-15.1c2-1,3.6-1.9,4.8-2.7c2.2-1.4,3.3-2.5,3.7-3.4
				c0.2-0.6,1.3-3.6,3.9-5.1c1.6-0.9,5.4-1,5.4-1c-2.8,6.4-4.7,12.8-5.2,18.8c-0.3,3.5-0.1,6.9,0.8,10.1c0.5,2,1.3,3.9,2.3,5.7
				c0.5,0.9,1.1,1.8,1.8,2.6c3.1,4,7.6,7.3,14.1,9.9c2.6,1.1,15.6,22.8,16.5,28.3c0,0,9.6-27.1,12.4-28.1
				c25.1-9.1,23.2-30.9,17.5-47.9c0.9,0.1,2.6,0.5,4.3,1.6c0.6,0.4,2,1.5,3.2,3.3c0.5,0.9,0.9,1.6,1.1,2.2
				c20.8,9.9,36.4,17.1,42.3,19.5c5.6,2.3,11,4.4,16.5,6.5c0,1.1,0.1,2.8,0.1,4.9c0.2,26.5-4.8,41.9-9.1,73.1
				c-2.9,20.8-5.8,44.9-8.5,93.8c-0.2,4.6-0.7,13.6,0.2,25.3c1.1,15.5,4.4,26.7,4.9,31C641.3,520.6,652.1,572.8,652.3,580.3z"/>
			<g>
				<path d="M552.8,262c-2.4-0.1-16.6-0.4-24.6-11.1c-1.8-2.5-2.9-4.9-3.4-6.5c-0.7-2.1-1.1-3.9-1.4-5.3c0,0,0-0.1-0.1-0.2
					c-0.1-0.2-0.6-1.8,0.2-3.1c0.1-0.2,0.4-0.6,0.8-0.9c0.1,0.8,0.3,1.9,0.6,3.2c0,0,1.4,5.9,4.6,10.8c4.6,6.8,22.7,15.8,38.2,7.7
					c11-5.7,14.6-16.8,15.4-19.6c0.2,0.2,0.6,1,0.9,1.9c0.2,0.5,0.2,1.7,0.1,1.9c-1.3,2.9-4.3,12.3-15.5,17.7
					C567,259.4,561,262.2,552.8,262z"/>
			</g>
			<g>
				<path d="M513.2,202.3c-1.2,0-1.7-2.4-1.7-4.6l0.8,0.5c0,2.4,0.7,3.2,0.9,3.2s0.9-1.3,0.9-3.7c0-2.4-0.7-3.7-0.9-3.7
					c-0.2-0.2-0.2-0.5,0-0.8c1.2,0,1.7,2.3,1.7,4.5C515,199.9,514.4,202.3,513.2,202.3z"/>
			</g>
			<path class="st30" d="M590.7,173.9c0.9-3.3,0.4-4.9,3.5-6c3.1-1.2,5.7,4.6,6.4,8.7c0.7,4.2-3.6,18.7-6,20.8
				c-2.4,2-5.5,2.7-6.4-0.8L590.7,173.9z"/>
			<g>
				<path d="M592.5,202.3c1.2,0,1.7-2.4,1.7-4.6l-0.8,0.5c0,2.4-0.7,3.2-0.9,3.2c-0.3,0-0.9-1.3-0.9-3.7c0-2.4,0.7-3.7,0.9-3.7
					c0.2-0.2,0.2-0.5,0-0.8c-1.2,0-1.7,2.3-1.7,4.5C590.7,199.9,591.3,202.3,592.5,202.3z"/>
			</g>
			<path d="M588.9,182.3c0.4-0.7,0.8-1.3,1.1-2c0.6-3.6,1.2-7.2,1.8-10.7c1.4-3.9,2.9-8.9,3.7-15c1.1-8.6,1.3-17-3.4-23.4
				c-3.6-4.9-9.1-4-9.6-4.4c-20.4-33.6-62.9-3.2-67.8,8.2c-1.8,4.7-4.2,12.8-3.3,22.9c0.4,4.6,1.4,8.6,2.5,11.7
				c0.4,0.7,0.8,1.4,1.2,2.2c1.6,3.6,1.8,7,1.6,9.3c0.2,0.7,0.4,1.4,0.6,2.1c0.1-1.3,0.3-3.4,0.5-6.2c1.2-15.2,0.8-19.9,4.3-24.2
				c0.9-1.1,2.5-2.8,5.3-4.2c19.7,4.9,54.4-10.3,55.3-6.2c-0.2,2-0.2,5,0.4,8.5c0.8,5,2.5,8.4,3.3,10
				C588.3,165.2,590,171.8,588.9,182.3z"/>
			<g>
				<path class="st31" d="M565.3,217.4c0.2-1.2-5.8-4.2-12.2-4.2c-6,0-11.6,2.7-11.4,3.8c0,0.2,0.3,0.7,9.4,0.9
					C560.4,218.1,565.1,218.2,565.3,217.4z"/>
			</g>
			<g>
				<path class="st31" d="M547.9,202.8c-0.1,0.4,2.5,2.8,5.8,2.8c3.1,0,5.7-2.3,5.6-2.7c-0.1-0.3-2.1,0.9-5.5,0.9
					C550.2,203.9,548,202.5,547.9,202.8z"/>
			</g>
			<g>
				<path d="M583.2,167.5c-1.2,1.4-2.8,3-5,4.4c0,0,0,0,0,0c-1.3,0.8-2.7,1.1-4.2,0.9c-3.5-0.4-7.1-0.8-10.6-1.1
					c-0.3-0.3-0.6-0.9-0.8-1.8c-0.2-0.7-0.1-1.3-0.1-1.7c4.1,0.4,8.3,0.9,12.4,1.3c0.9,0.1,1.8,0,2.7-0.3
					C579.4,168.6,581.3,168.1,583.2,167.5z"/>
			</g>
			<g>
				<path d="M523.3,167.5c1.2,1.4,2.8,3,5,4.4c0,0,0,0,0,0c1.3,0.8,2.7,1.1,4.2,0.9c3.5-0.4,7.1-0.8,10.6-1.1
					c0.3-0.3,0.6-0.9,0.8-1.8c0.2-0.7,0.1-1.3,0.1-1.7c-4.1,0.4-8.3,0.9-12.4,1.3c-0.9,0.1-1.8,0-2.7-0.3
					C527.1,168.6,525.2,168.1,523.3,167.5z"/>
			</g>
			<g>
				<path d="M528.8,967.1c1.5,0.6,3.5,1.7,5,3.7c3.9,5.1,1.8,12.6-1.7,23.4c-2.7,8.6-6.1,18.5-10.2,29.5c-1.9,3.8-5,8.4-10.1,10.7
					c-14.4,6.7-36.4-7.4-37.6-20.9c-0.4-4.3,1.7-8,5.7-15.3c5.6-9.9,11.8-17,16.2-21.4C507.1,973.6,517.9,970.3,528.8,967.1z"/>
				<path class="st30" d="M498,967.1c-5.6,15-9.4,24.7-15.7,33.1c-1.1,1.5-3.3,4.3-3.7,8.3c-0.1,0.7-0.5,5.6,2.6,9.4
					c0.9,1.2,1.5,1.4,6.2,4.4c6.3,4,5.6,3.9,7.2,4.7c3.1,1.7,7.7,4.1,12.5,3.2c7.2-1.3,10.8-9.2,11.4-10.3c1.1-3.4,2.2-6.8,3.3-10.2
					c2.3-7,3.5-11.1,5.9-18.9c2.1-7,3.2-10.5,3.3-11.8c0.6-5.8-0.7-8.5-0.9-16.4c-0.1-4.7,0.2-8.5,0.4-11c-4.2-1.1-10-2-16.9-1.7
					c-4.3,0.2-10.8-1.5-11.1,1.7C501.9,958.7,499.3,963.5,498,967.1z"/>
				<path d="M478.3,1003.4c5.5,0.7,12.2,1.9,19.5,4.5c10.8,3.8,19,8.9,24.7,13.1c1.9-5.8,3.8-11.7,5.8-17.5
					c-2.8-3.3-8.3-8.8-16.9-12.7c-9.6-4.3-18.3-4.4-22.6-4.2C485.2,992.3,481.7,997.9,478.3,1003.4z"/>
			</g>
			<g>
				<path d="M584,965.7c-1.5,0.5-3.6,1.5-5.2,3.4c-4.2,4.9-2.5,12.5,0.3,23.5c2.2,8.7,5,18.8,8.5,30c1.6,3.9,4.5,8.6,9.5,11.3
					c14,7.5,36.8-5.3,38.7-18.7c0.6-4.3-1.2-8.1-4.9-15.6c-5-10.2-10.9-17.6-15-22.3C605.3,973.5,594.7,969.6,584,965.7z"/>
				<path class="st30" d="M614.8,967.5c2.6,9.5,6.8,23.5,13.8,34c1,1.5,3.1,4.5,3.3,8.5c0,0.8,0.2,5.6-3.1,9.2c-1,1.1-1.6,1.3-6.5,4
					c-6.6,3.7-5.9,3.6-7.5,4.3c-3.2,1.5-7.9,3.6-12.7,2.5c-7.1-1.7-10.3-9.8-10.7-11c-0.9-3.4-1.8-6.9-2.7-10.3
					c-1.9-7.1-2.9-11.3-4.8-19.2c-1.7-7.1-2.6-10.7-2.7-12c-0.3-5.8,1.2-8.4,1.9-16.4c0.4-4.7,0.3-8.5,0.2-11
					c3.5-1.5,8.8-3.4,15.4-4c5.3-0.5,13.5-2.9,13.3,0.6C611.4,955.9,613.5,962.9,614.8,967.5z"/>
				<path d="M632.4,1005c-5.5,0.3-12.3,1.2-19.8,3.4c-11,3.2-19.5,7.8-25.4,11.7c-1.6-5.9-3.2-11.9-4.8-17.8
					c3-3.1,8.7-8.3,17.6-11.7c9.9-3.8,18.5-3.4,22.8-2.9C626.1,993.4,629.3,999.2,632.4,1005z"/>
			</g>
			<g>
				<path class="st32" d="M635.9,292.5c8.9-4.8,17.6-10.3,24.7-17.4c16.4,23.8,37,54.2,42.2,65.1c-10.5,7.8-34.2,23.7-44.6,39.7
					l-5.9-8.4l-22.4-32.3c-7.1-10.9-14.2-21.8-21.3-32.8C617.7,301.8,626.9,297.3,635.9,292.5z"/>
			</g>
			<path class="st33" d="M648.7,367.2c17.1-12.9,34.1-25.7,51.2-38.6c2.8,3.7,5.8,7.7,8.7,12.2c2.6,3.9,4.9,7.8,6.9,11.4
				c-16.5,12.5-33.1,25.1-49.6,37.6c-2.4-2.9-4.9-5.9-7.4-9.2C654.8,376,651.6,371.5,648.7,367.2z"/>
		</g>
		<g>
			<path class="st34" d="M543.7,181.8c-0.3-0.5-2.2-3.9-6-4.6c-3.9-0.7-8.1,1.7-10,6c0.8,0.6,3.8,2.6,8.1,2.3
				C540.2,185.1,543,182.5,543.7,181.8z"/>
			<path class="st37" d="M539.7,180.6c0.4,2-0.8,3.9-2.8,4.4c-2,0.4-3.9-0.8-4.4-2.8c-0.4-2,0.8-3.9,2.8-4.4
				C537.3,177.4,539.3,178.7,539.7,180.6z"/>
			<path d="M543.7,181.8c-3.1-4.4-8.6-5.5-12.8-2.1c-1.3,1-2.4,2.3-3.3,3.8c0.2-0.8,0.6-1.6,1-2.4
				C532.1,174.9,541,174.9,543.7,181.8L543.7,181.8z"/>
			<path d="M537.9,181.2c0.2,1-0.4,1.9-1.4,2.2c-1,0.2-1.9-0.4-2.2-1.4c-0.2-1,0.4-1.9,1.4-2.2C536.8,179.6,537.7,180.2,537.9,181.2
				z"/>
			<path class="st34" d="M535.2,180.4c0.1,0.4-0.2,0.8-0.6,0.9c-0.4,0.1-0.8-0.2-0.9-0.6c-0.1-0.4,0.2-0.8,0.6-0.9
				C534.7,179.7,535.1,180,535.2,180.4z"/>
		</g>
		<g>
			<path class="st34" d="M562.8,180.8c0.3-0.5,2.7-3.6,6.5-3.9c3.9-0.2,7.9,2.7,9.2,7.2c-0.9,0.5-4.1,2.1-8.3,1.3
				C565.8,184.5,563.4,181.6,562.8,180.8z"/>
			<path class="st37" d="M566.9,180.1c-0.7,1.9,0.3,4,2.2,4.7c1.9,0.7,4-0.3,4.7-2.2c0.7-1.9-0.3-4-2.2-4.7
				C569.6,177.2,567.5,178.2,566.9,180.1z"/>
			<path d="M562.8,180.8c3.6-4,9.2-4.5,13-0.6c1.2,1.2,2.1,2.6,2.8,4.2c-0.1-0.9-0.4-1.7-0.7-2.5C575,175.3,566.3,174.3,562.8,180.8
				L562.8,180.8z"/>
			<path d="M568.6,180.8c-0.3,0.9,0.2,2,1.1,2.3c0.9,0.3,2-0.2,2.3-1.1c0.3-0.9-0.2-2-1.1-2.3C569.9,179.4,568.9,179.9,568.6,180.8z
				"/>
			<path class="st34" d="M571.4,180.4c-0.1,0.4,0.1,0.8,0.5,1c0.4,0.1,0.8-0.1,1-0.5c0.1-0.4-0.1-0.8-0.5-1
				C572,179.8,571.5,180,571.4,180.4z"/>
		</g>
		<path id="XMLID_00000024701843070616802730000012545537909800994694_" class="st38" d="M509.4,144.8
			c18.3-14.9,77.6-12.7,86.4-10.4c1.5,0.6,3.4,4.2,2.4,9.8c1.7,3.5,1.9,8.4-0.6,10.2c0,0.1,0,0.2,0,0.3c0.1,1.3-1.1,2.4-2.4,2.4
			c-10-0.6-56.8-5.9-81.7,9.3c-1.1,0.7-2.6,0.3-3.2-0.9c-0.7-1.2-1.2-3.1-0.8-5.9c-2.5-2.1-2-7.7-1-9.1
			C508.4,147.7,508.6,145.5,509.4,144.8z"/>
		<path class="st38" d="M632.1,268.3c-1.1-9.5-9.5-10.3-12.2-9.5c-2.6-4.5-7-6.6-11.8-4.8c-0.9-3.2-8.5-5.6-10.6-4.1
			c0.5,15.4-1.8,163.9-20.8,218.6c-1,5,35.6,20.6,48.9,11.2C627.1,472.6,642.1,310.8,632.1,268.3z"/>
		<path class="st32" d="M459.5,545.6c-2.9,24.3-6.3,49.3-10.4,74.8c-1.7,10.8-3.5,21.5-5.4,32.1c23.4,8.8,57.8,18.7,100.2,20.6
			c51.9,2.4,93.7-8,119.7-16.8c-2.1-16.9-4.5-34.2-7.2-51.9c-2.8-18.2-5.8-35.9-8.9-53.2c-16.2,8.7-61.1,29.9-118.3,20.9
			C497.7,567.2,473.9,554.8,459.5,545.6z"/>
		<path class="st33" d="M538.1,287.3c-1.6,0.8-4,2.2-6.2,4.6c-5.3,5.9-4.4,12.2-6.7,12.6c-3.1,0.5-7.7-11-9.8-17.5
			c-1.7-5.1-4.2-13.3-3.9-24.4c0.2-7.1,1.5-12.9,2.7-16.9c0.2-0.7,1-3,3.4-4.6c2.7-1.8,5.4-1.4,6.1-1.3c-1.3,1.9-7.5,11.7-4.9,24.4
			C522.2,280.1,536.7,286.7,538.1,287.3z"/>
		<path class="st33" d="M566,287.2c1.6,0.9,3.9,2.5,5.9,5c4.9,6.2,3.6,12.4,5.8,13c3,0.7,8.4-10.5,11-16.8c2-5,5.1-13,5.5-24.1
			c0.2-5.2-0.3-9.7-0.9-13.3c-0.3-1.7-0.6-3.1-0.7-3.7c-0.4-1.6-0.7-3-1.1-3.9c-1.3-2.7-5-3.8-7.5-4.2c1.5,3.6,2.7,8.2,2.7,13.5
			C586.4,272.7,568.5,285.4,566,287.2z"/>
		<g>
			<path class="st33" d="M566,287.2c-4.3,9.8-8.3,20-11.3,30.2c-2.3,10.3-2.5,21.4-2.9,31.9c-0.4,14.3-0.1,28.8,0.2,43.2
				c0,0-0.9-0.8-0.9-0.8c4.6-0.2,11.1-0.2,15.7-0.3c-4.8,0.8-11.5,1.5-16.4,2.1c-1.5-14.7-2.3-29.5-2-44.2
				c0.3-10.9,0.8-21.9,3.6-32.6C555.6,306.3,560.2,296.6,566,287.2L566,287.2z"/>
		</g>
		<circle class="st33" cx="559.4" cy="324.7" r="3.3"/>
		<circle class="st33" cx="558.4" cy="355.9" r="3.3"/>
		<circle class="st33" cx="558.4" cy="383" r="3.3"/>
	</g>
	<g>
		<path class="st39" d="M493.1,227.9c-8.8,22.1-14.2,40.5-17.5,53c-9.2,34.8-10.6,57.2-26.8,86.7c-4.7,8.4-9.1,14.9-12.1,18.9
			c-2.9,0.9-7,2.1-12,3.2c-7.9,1.6-11.8,2.4-15.1,1.4c-5.8-1.8-8.9-7-13.1-13.8c-2.6-4.2-4.4-7.2-5-11.4c-1-7.3,2.3-13.4,3.9-16.4
			c8.4-15.2,37.7-63.4,78.8-128C480.4,223.6,486.8,225.7,493.1,227.9z"/>
		<path class="st39" d="M613.5,227.9c9,22,14.3,40.4,17.5,53c9.1,35.9,9.6,59.7,27.4,89.2c4.5,7.4,8.7,13,11.5,16.4
			c2.7,0.9,6.7,2.1,11.6,3.1c7.6,1.6,11.4,2.4,14.8,1.4c6-1.7,9.4-7,13.4-13.1c2.6-4,4.8-7.4,5.5-12.2c1-7.3-2.3-13.4-3.9-16.4
			c-8.4-15.2-37.7-63.4-78.8-128C626.2,223.6,619.9,225.7,613.5,227.9z"/>
		<path class="st39" d="M517.5,180.9c0,2.1-1.1,6-4.2,13c-3.1,7.1-0.7,7.7-6.6,16.6c-2.5,3.8-3.4,4.5-5.3,6.8
			c-0.9,1.1-1.6,2-1.9,2.5c-0.7,0.9-1.7,2.2-3.2,4.1c-0.9,1.1-1.9,2.4-3.2,3.9c-0.8,2.1-1.5,4.2-2.2,6.2c-2-1.2-4.2-2.5-6.6-3.7
			c-4-2-7.9-3.5-11.3-4.6c0.6-3.2,1.6-7.7,2.8-13.2c2.7-11.8,3.6-18,6.5-24c4-8.4,5.3-12.9,9.5-17.6c6.9-7.9,15.7-11.7,21.7-13.5
			c0.3,0.5,1.4,2.1,1,4.4c-0.6,3.5-4.4,5.1-4.6,5.1c-8.5,5.3-13.3,12.3-14.3,17.4c-0.9,4.6,0,9.1,0,9.1c0.3,1.3,0.6,2.4,0.9,3.1
			c0.1,0,0.2,0,0.3-0.1c1.3-0.2,4.5-0.9,7.1-3.6c1.6-1.7,2.2-3.5,2.5-4.5c0.3-1.2,1-3.6,3.3-5.8c1.6-1.6,4.7-3.8,6.4-3.6
			c0.2,0,0.4,0.1,0.6,0.2C517.2,179.4,517.5,179.9,517.5,180.9z"/>
	</g>
	<g>
		<path class="st39" d="M589.2,180.9c0,2.1,1.1,6,4.2,13c3.1,7.1,0.7,7.7,6.6,16.6c2.5,3.8,3.4,4.5,5.3,6.8c0.9,1.1,1.5,2,1.9,2.5
			c0.7,0.9,1.7,2.2,3.2,4.1c0.9,1.1,1.9,2.4,3.2,3.9c0.8,2.1,1.5,4.2,2.2,6.2c2-1.2,4.2-2.5,6.6-3.7c4-2,7.9-3.5,11.3-4.6
			c-0.6-3.2-1.6-7.7-2.8-13.2c-2.7-11.8-3.6-18-6.5-24c-4-8.4-5.3-12.9-9.5-17.6c-6.9-7.9-15.7-11.7-21.7-13.5
			c-0.3,0.5-1.4,2.1-1,4.4c0.6,3.5,4.4,5.1,4.6,5.1c8.5,5.3,13.3,12.3,14.3,17.4c0.9,4.6,0,9.1,0,9.1c-0.3,1.3-0.6,2.4-0.9,3.1
			c-0.1,0-0.2,0-0.3-0.1c-1.3-0.2-4.5-0.9-7.1-3.6c-1.6-1.7-2.2-3.5-2.5-4.5c-0.3-1.2-1-3.6-3.3-5.8c-1.6-1.6-4.7-3.8-6.4-3.6
			c-0.2,0-0.4,0.1-0.6,0.2C589.5,179.4,589.2,179.9,589.2,180.9z"/>
	</g>
</g>
</svg>
