<?xml version="1.0" encoding="utf-8"?>
<!-- Generator: Adobe Illustrator 26.0.1, SVG Export Plug-In . SVG Version: 6.00 Build 0)  -->
<svg version="1.1" id="Layer_1" xmlns="http://www.w3.org/2000/svg" xmlns:xlink="http://www.w3.org/1999/xlink" x="0px" y="0px"
	 viewBox="0 0 864 800" style="enable-background:new 0 0 864 800;" xml:space="preserve">
<style type="text/css">
	.st0{clip-path:url(#SVGID_00000111157606346423721440000011534341109606651819_);}
	.st1{fill:#FFEAD4;}
	.st2{fill:#D8B182;}
	.st3{clip-path:url(#SVGID_00000111157606346423721440000011534341109606651819_);fill:#E5C49D;}
	.st4{fill:#FFFFFF;}
	.st5{fill:#301F1D;}
	.st6{fill:#E09A61;}
	.st7{fill:#C47947;}
	.st8{fill:#231F20;}
	.st9{fill:#603813;}
	.st10{fill:#DC2428;}
	.st11{clip-path:url(#SVGID_00000111157606346423721440000011534341109606651819_);fill:#A5A4A4;}
	.st12{fill:#F4CCAB;}
	.st13{fill:#F69493;}
	.st14{fill:#ED2448;}
	.st15{fill:#FFC7D0;}
	.st16{fill:#1E1A14;}
	.st17{fill:#F4A671;}
	.st18{fill:#CE2026;}
	.st19{fill:#FFD7DC;}
	.st20{fill:#F5B4B8;}
	.st21{fill:#FCE9ED;}
	.st22{fill:#282125;}
	.st23{fill:#1F1A1C;}
	.st24{fill:#FFF7EF;}
	.st25{fill:#E59B9D;}
	.st26{fill:#F5EFEC;}
	.st27{fill:none;stroke:#2E2A2B;stroke-width:0.2788;stroke-linecap:round;stroke-linejoin:round;stroke-miterlimit:10;}
	.st28{fill:#443E42;}
	.st29{fill:#2E2A2B;}
	.st30{fill:#524A50;}
	.st31{fill:#F4D3BB;}
	.st32{fill:#DD915E;}
	.st33{fill:#EF6F7B;}
	.st34{fill:#96753B;}
	.st35{fill:#E5E5E5;}
	.st36{fill:#921F33;}
	.st37{fill:#CD3735;}
	.st38{fill:#140408;}
	.st39{fill:#F3914B;}
	.st40{fill:#FF9750;}
	.st41{opacity:0.72;clip-path:url(#SVGID_00000093889184265814587290000008412411767734598311_);}
	.st42{fill:#844949;}
	.st43{opacity:0.89;fill:#844949;}
	.st44{fill:#F95A71;}
	.st45{clip-path:url(#SVGID_00000111157606346423721440000011534341109606651819_);fill:#CE2026;}
</style>
<g>
	<defs>
		<path id="SVGID_1_" d="M806,587.6c27.1-73.6,1.1-153.3,1.1-153.3c-1.1-4.7-2-8.2-2.3-9.2c-7.1-27.1-28.7-93.7-85.5-143.1
			c-23.1-20.1-50.2-36.9-66.9-62.7c-17.1-26.4-21-58.8-27.3-89.5s-16.5-63.2-41.5-82.3C557.2,27.3,519,27.3,488.6,41
			s-54.2,38.9-73.6,66.1c-46,64.6-64.3,63-71.3,68c-37.1,26.1-73.8,37.3-92.9,41.9c-74.2,17.9-97-10.8-131.9,11.8
			c-50,32.4-47.5,120-47.3,124.8c2.6,63.8,39.7,85.4,24.5,125.1c-12.7,33-44.1,30.8-56.1,65.7c-13.6,39.4,9.3,80.5,16.3,93.1
			c49.2,88.5,185.7,106.5,242.1,113.1C531.2,778.1,767.7,691.9,806,587.6z"/>
	</defs>
	<clipPath id="SVGID_00000106140487097661020430000007193181363804988574_">
		<use xlink:href="#SVGID_1_"  style="overflow:visible;"/>
	</clipPath>
	<g style="clip-path:url(#SVGID_00000106140487097661020430000007193181363804988574_);">
		<path class="st1" d="M780.1,684.3c12.1-7.6,22.8-17.3,31-29c0-0.1,0.1-0.1,0.1-0.2c4.9-6.9,48.1-78.6,33.8-180.9
			c-2.9-20.9-16.3-116.3-88.2-180.5c-30.6-27.3-57-35.8-80.8-76.4c-11.7-20-9.8-25.6-30.9-77.8c-21-51.9-31.4-77.9-45.6-90.4
			C567.1,20.5,517.1,17.3,482,26.3C463.5,31,460.8,36.2,380.6,88c-37.5,24.3-56.4,36.5-61.7,38.2c-66.7,22-109.9-30.5-157.2-14.7
			c-43.7,14.6-59.1,76.7-73,136.8C28.8,508.4-1.1,638.4,34.1,687.6c50.5,70.5,142.1,80.2,285.7,95.4c0,0,158.4,13.8,378.5-56.2
			C723,718.8,759.7,697,780.1,684.3z"/>
	</g>
	<g style="clip-path:url(#SVGID_00000106140487097661020430000007193181363804988574_);">
		<path class="st2" d="M1039.9,542.1c-23.3,22.7-50.6,41.1-79.5,54.3c-0.3,0.6-0.6,1.2-0.9,1.8c-7.3,15.2-15.1,30-23.5,44.4
			c-13,22.4-27.3,43.9-42.7,64.3c-46.4,7.8-94.8,8.3-142,8.5c-286.9,1.2-573.8,2.5-860.6,3.8c-29.4-36.9-54.8-77.4-75.7-121
			c-0.3-0.6-0.6-1.2-0.9-1.8c-0.8-0.2-1.5-0.5-2.3-0.8c-5.2-1.8-11.1-4-17.5-6.9c4.3-9.7,11.2-18.4,20-24.3
			c18.8-12.6,45.3-12.5,64,0.3c-3.3-17.5,9.3-36.4,26.7-40.1c17.4-3.7,36.6,8.5,40.7,25.7c13-31.1,47.2-52,80.8-49.3
			c33.6,2.7,64,28.9,71.8,61.7c-5-37.3,26.9-74.9,64.5-77.3c37.6-2.4,73.5,29.6,76.8,67.2c10.9-27.6,36.6-49,65.8-54.6
			c29.2-5.6,61,4.6,81.4,26.3c7.1-31.4,34.1-57.3,65.7-63.2s66.1,8.8,83.9,35.6c11.6-34.2,47.2-58.5,83.2-56.9
			c36,1.7,69.3,29.2,77.7,64.3c20.2-25.6,54.8-39,87-33.6c32.2,5.3,60.6,29.1,71.6,59.8c15-21,40.9-33.8,66.7-32.8
			c25.8,1,50.7,15.6,64.1,37.7C1003.2,525.3,1025.1,529.6,1039.9,542.1z"/>
	</g>
	<path style="clip-path:url(#SVGID_00000106140487097661020430000007193181363804988574_);fill:#E5C49D;" d="M536.7,820.1
		L68.6,747.6c-71.1-11-71.5-113.3-0.5-124.8c167.3-27,362.9-40.4,579.1-21.3c48.5,4.3,95.3,10,140.5,16.8
		c72.6,10.9,81.3,112.1,11.8,135.5C710.5,783.6,621.6,812.8,536.7,820.1z"/>
	<g style="clip-path:url(#SVGID_00000106140487097661020430000007193181363804988574_);">
		<path class="st4" d="M199.9,395.6c0,7.3,1.1,13.2,2.5,13.2c1.4,0,2.6-5.9,2.6-13.2c0-7.3-1.1-13.2-2.5-13.2
			C201.1,382.4,199.9,388.3,199.9,395.6z"/>
		<g>
			<g>
				<g>
					<g>
						<g>
							<path class="st5" d="M189.5,803.7c0,0.3-0.1,0.7-0.1,1c-0.1,1.2-0.2,2.4-0.2,3.6c-0.2,7.8,2.2,15.6,6.7,22
								c0.3,0.4,0.6,0.8,0.9,1.2c2.9,3.9,9.6,11.6,15.3,10.9c4.6-0.5,4.4-3.2,3.1-6.1c0,0,0,0,0,0c-0.1-0.3-0.3-0.7-0.5-1.1
								c3.1,3.4,10.6,8.4,10.6,12.9c0,3.8-8.1,4.9-11.9,5.1c-5.4,0.2-12.3-0.7-15.5-5.6c-4.9-7.3-2.4-16.9-10.5-22.2
								c0,7.7,0,15.5,0,23.2c0,0.1-0.1,0.1-0.1,0.2c0,0,0,0-0.1,0.1c0,0-0.1,0-0.1,0c-0.1,0-1.4-0.1-3.3-0.1
								c-0.1-8.1-0.3-16.2-0.4-24.3c-0.8-1.5-1.5-3.6-1.6-6.1C181.3,810,188.5,804.4,189.5,803.7z"/>
						</g>
					</g>
					<g>
						<g>
							<path class="st6" d="M195.8,692.9c3.3,0,6.5,0,9.8,0c6,0,12,0,18,0c-0.5,4.8-1.2,10-2.2,15.5c-1.4,7.5-2.1,14.7-4.1,20.6
								c-3.1,24-7.2,47.4-10.3,71.4c2.8,21.8,4.3,29.2,5.2,30.6c0.1,0.2,1.2,1.9,2.4,4.3c0.2,0.3,0.3,0.7,0.5,1.1c0,0,0,0,0,0
								c1.3,2.9,1.4,5.6-3.1,6.1c-5.7,0.6-12.4-7.1-15.3-10.9c-0.3-0.4-0.6-0.8-0.9-1.2c-4.4-6.4-6.8-14.2-6.7-22
								c0-1.2,0.1-2.4,0.2-3.6c0-0.3,0.1-0.7,0.1-1c0.4-4.1,1.1-8.1,1.1-12.3c-0.1-5.8-0.8-11.7-1.4-17.5c-0.9-8.5-3.1-17.5-4-26
								c0-6.4-0.1-12.8-0.1-19.2C188.1,716.7,192.6,705,195.8,692.9z"/>
						</g>
					</g>
				</g>
			</g>
			<g>
				<g>
					<path class="st6" d="M151.3,802c0.1-0.3,0.1-0.3,0.2-0.6c3.4-10.7,3.3-20.3,2.7-31.7c-0.6-11.8-0.7-22.9,1.2-32.1
						c3.1-14.9,8.4-16.8,9.6-29.6c0.8-8.5,0.3-15.6-0.3-20.1c11.6,0.2,23.1,0.4,34.7,0.5c-0.5,6.8-1.2,12.5-1.9,16.9
						c-0.8,5-2.1,12.8-4.4,21.3c-0.3,1-1.6,5.8-3.3,10c-0.9,2.2-1.7,4.4-2.8,6.6c-0.1,0.2-0.2,0.4-0.3,0.6c0,0.1,0,0.1,0,0.1
						c-6.3,12.7-12.7,33.3-12.7,33.3c-3.7,12-6.3,19.9-8.7,27.9c1.4,8.5,1.9,19.3,3.3,27.9c0,0.1,0.1,0.3,0.1,0.4
						c0.1,0.9,0.7,3.4,0.8,4.3c0.3,4.4-1.7,9.4-6.7,8.7c-5.9-0.8-10.6-13-12.6-19.4C147,816.7,150,806.4,151.3,802z"/>
				</g>
			</g>
			<g>
				<g>
					<path class="st5" d="M151.4,801.4c0,0.2-0.1,0.4-0.2,0.6c-0.2,0.5-0.4,1.1-0.6,1.6c-1.8,5.3-1.4,14.2,0.5,22.6
						c1.7,7.8,4.5,15.2,11.4,16.2c5,0.7,6.5-1.9,6.2-6.3c-0.1-0.9-0.1-1.8-0.2-2.8c0-0.1-0.4-2.8-0.4-2.9c0.1,0.7,0.9,2.1,1.6,4
						c1.9,5.1,7,14.8,3.6,18.9c-3.3,4-14,2.3-19.2-2.9c0,0,0,0-0.1-0.1c-0.1-0.1-0.3-0.2-0.4-0.4c-2.3-2.4-3.3-5.4-3.8-8.5
						c0,0,0,0,0-0.1c-1.2-5.2-1.5-11.1-2.9-16.2c0,8.8,0,17.6,0,26.4c0,0.2-0.2,0.2-0.3,0.1c0,0.1-0.1,0.1-0.1,0.1
						c-0.8,0-1.7,0-2.5,0c-0.1,0-0.2-0.1-0.2-0.2c0,0,0,0,0,0c0,0,0,0,0-0.1c0-10.1,0-20.1,0-30.2
						C139,815.1,145.4,805.7,151.4,801.4z"/>
				</g>
			</g>
		</g>
		<path class="st6" d="M236.2,436.7c2.4,6.6,4.3,37.4,4.4,48.3c0.1,15.5-1.6,24.9-1.1,38.2c0.6,13.9,6.9,19.9,5.2,47.4
			c-0.8,13-2.7,28.8-2.6,34.7c3,4.3,7.1,21.8,2.1,33.4c0,2.9-3.9,7.1-5.4,7.9c-1.9,1.9-4.5,3-8.2,3c-1.5-1.5,0-7.1,2.7-10.6
			c-0.4-3.8-0.8-11.9-0.8-11.7c-0.6,4.1-1.7,10.4-5.2,11.8c0-0.2-0.1-0.8-0.4-0.8c1.2-5.3,2.1-12.3,1.5-19.9c2-6.2,4.9-7.4,3.7-12.7
			c-3.3-14.8-2.3-29.8-5.2-42.5c-3.5-15.1-2.6-23.4-3.2-39.5c-0.5-13.9-5.8-61.8-1.1-69.1L236.2,436.7z"/>
		<path d="M195.9,394.9c-0.1,17.2-11.9,31.6-30.2,31.5c-18.3-0.1-33.1-14.2-33-31.4c0.1-17.2,15-31.1,33.3-31
			C184.4,364.1,196,377.7,195.9,394.9z"/>
		<g>
			<path d="M211.8,362.2c-0.1,17.6-14.6,32.6-30,32.5c-15.4-0.1-29.2-15.1-29.1-32.7c0.2-28.3,18.4-33,31.5-33
				C195.3,329.1,211.9,332.8,211.8,362.2z"/>
		</g>
		<path class="st6" d="M219.4,426.7c-7.1,6.1-14.8,14.1-21.9,20.2c-23.4-1.8-37.7-11.6-45.7-18.7c-0.6-0.5-2.3-1.5-2.8-2.1
			c1.7-0.5,16.8-5,21-14.7c0.7-1.6,1.8-4.8,2.3-8.8c0-0.3,0.1-0.6,0.1-0.9c0,0,0-0.1,0-0.1c0.3-2.9,0.2-5.3,0-7.2
			c0-0.2-0.1-0.5-0.1-0.7c4.4,1.4,7.6,2.8,9.6,3.6c0.4,0.2,0.7,0.3,1,0.4c0.8,0.3,1.6,0.5,2,0.6c0,0,0.1,0,0.1,0c0,0,0,0,0,0
			c0.8,0.3,1.7,0.6,2.7,0.8c0,0,0,0,0,0c1.6,0.3,3,0.4,4.3,0.3c1.5,0.4,3,0.7,3.9,0.8c0,0.2-0.1,0.5-0.1,0.7c-0.3,2.1-0.2,4,0.1,5.5
			c0,0,0,0,0,0c0.1,0.6,0.2,1.1,0.3,1.6C198.6,417.1,208.1,424.2,219.4,426.7z"/>
		<path class="st7" d="M196,406.4c-2.2,2.1-4.3,2.8-5.4,3.1c-5.3,1.3-10.1-1.7-13.1-3.7c-2.3-1.4-3.9-3-5.1-4.3
			c0.3-2.9,0.2-5.3,0-7.2c0-0.2-0.1-0.5-0.1-0.7c4.4,1.4,7.6,2.8,9.6,3.6c0.4,0.2,0.7,0.3,1,0.4c0.8,0.3,1.6,0.5,2,0.6
			c0,0,0.1,0,0.1,0c0,0,0,0,0,0c0.8,0.3,1.7,0.6,2.7,0.8c0,0,0,0,0,0c1.6,0.3,3,0.4,4.3,0.3c1.5,0.4,3,0.7,3.9,0.8
			c0,0.2-0.1,0.5-0.1,0.7C195.7,403.1,195.8,404.9,196,406.4z"/>
		<path class="st6" d="M187.7,341.8c-0.3,0-0.5,0-0.7,0c-7.3-0.2-13.7,2-15.9,3.1c-7.8,3.9-10.2,18.4-9,28.8
			c1.6,13.9,14,32.1,27.7,32.7c7.2,0.3,18.3-13.5,19.3-31.4C210,357.1,207.7,342.4,187.7,341.8z"/>
		<path d="M190.7,342c-1.9-0.1-6.6-0.2-10.8,1.7c-0.8,0.4-3.2,1.7-5.1,4.3c-1,1.3-2,3-3.3,5.5c-1.2,2.2-1.3,2.5-2,3.3
			c-1.6,1.8-3,2.1-3.9,4.6c-1.9,5.2,0.6,13.6,0.7,17.8c0,0.2,0,1.1-0.3,1.2c-0.4,0.1-0.9-1.1-1.2-1c-0.5,0.1-0.7,2.1-0.4,7.4
			c-1.8-3.6-4.3-9.6-5.2-17.4c-0.9-7.8-2.3-19.2,5.1-25.7c4-3.6,8.8-3.9,16.2-4.5c5.8-0.4,16.8-1.2,22.6,5.9
			c1.9,2.3,2.7,4.7,3.1,6.5c-0.8-1.3-2.1-3.2-4.2-5C197.5,342.8,192.7,342.1,190.7,342z"/>
		<g>
			<path class="st8" d="M205.1,371.2c0.3,2.2-3.3,3-4,3.3c2.5-0.2,4.5-0.6,5.1-1.8L205.1,371.2z"/>
			<path class="st4" d="M196.4,373.5c0.9-2.3,3.8-4.1,5.5-4.2c1.2,0,3.4,1.9,4,3.2c-1.6,1.5-4.1,2.2-4.8,2.1
				c-1.2-0.1-2.6-0.2-4.4-0.9L196.4,373.5z"/>
			<path class="st9" d="M204.1,372.4c-0.3,1.5-1.8,2.5-3.3,2.1c-1.5-0.3-2.5-1.9-2.2-3.7c0.1-0.7,2.1-1.8,3.6-1.4
				C203.7,369.7,204.4,370.9,204.1,372.4z"/>
			<path class="st8" d="M202.9,372c-0.2,1-1,1.6-1.8,1.4c-0.8-0.2-1.2-1.1-1-2.1c0.2-1,1-1.6,1.8-1.4
				C202.7,370.1,203.1,371.1,202.9,372z"/>
			<path class="st4" d="M203,371.7c-0.1,0.2-0.2,0.4-0.4,0.3c-0.2,0-0.3-0.3-0.2-0.5c0.1-0.2,0.2-0.4,0.4-0.3
				C203,371.2,203.1,371.4,203,371.7z"/>
			<path class="st8" d="M196.1,373.4c0.9-2.9,3-4.8,5-4.9c1.4-0.1,3.3,0.4,4.1,1.9c0.2,0.4,0.4,1.2,1.3,2.3c0.3,0.4,0.5,0.7,0.7,0.9
				c-0.2,0-0.5,0-0.8-0.1c-0.3-0.1-0.6-0.3-0.7-0.4c-0.6-0.5-0.8-1-1.6-1.6c-1.2-0.9-3-1.4-4.4-0.8c-0.8,0.3-2.6,1.4-3.2,2.8
				L196.1,373.4z"/>
			<path class="st9" d="M197.2,363.4c0.3-0.1,0.8-0.2,1.4-0.3c3.9-0.6,4.7-0.5,5.4-0.3c0.2,0.1,1,0.3,1.8,1c0.7,0.6,1.9,2.4,2.3,3.3
				c-1.3-0.9-2.1-2-3.6-2.7c-2-0.8-3.5-0.1-5.4,0.5c-0.5,0.2-1.7,0.5-2.3,0.6L197.2,363.4z"/>
		</g>
		<g>
			<path class="st8" d="M175.2,371.5c-0.4,2.3,3.9,2.9,4.6,3.2c-2.9-0.2-5.4-0.8-6.1-2L175.2,371.5z"/>
			<path class="st4" d="M185.5,373.7c-0.2-0.6-0.7-1.7-1.9-2.7c-0.3-0.2-2.1-1.7-4.6-1.4c-3.1,0.3-4.7,2.9-4.8,3.2
				c0.8,0.6,2.8,1.9,5.7,2.1C182.6,375.1,184.6,374.2,185.5,373.7z"/>
			<path class="st9" d="M177,372.7c0.4,1.5,2.1,2.4,3.9,2.1c1.8-0.3,3-1.9,2.7-3.8c-0.1-0.7-2.4-1.7-4.3-1.4
				C177.6,370,176.6,371.2,177,372.7z"/>
			<path class="st8" d="M179.1,372.3c0.3,1,1.2,1.6,2.1,1.3c0.9-0.2,1.5-1.2,1.2-2.1c-0.3-1-1.2-1.6-2.1-1.3
				C179.4,370.4,178.8,371.4,179.1,372.3z"/>
			<path class="st4" d="M181.9,371.5c0.1,0.2,0.3,0.4,0.5,0.3c0.2,0,0.3-0.3,0.3-0.5c-0.1-0.2-0.3-0.4-0.5-0.3
				C181.9,371.1,181.8,371.3,181.9,371.5z"/>
			<path class="st9" d="M185.7,363.4c-0.4-0.1-1.7-0.3-2.5-0.4c-4.9-0.8-5.9-0.7-6.8-0.5c-0.3,0.1-1.3,0.3-2.4,1
				c-1,0.6-2.6,2.3-3.2,3.2c1.7-0.8,2.8-2,4.8-2.6c2.6-0.8,4.5,0,6.9,0.6c0.7,0.2,2.8,0.6,3.5,0.7L185.7,363.4z"/>
		</g>
		<path class="st7" d="M195.5,386.9c-0.4,0.4-1,1-1.8,1.3c-2.7,1-5.3-1.1-5.5-1.3c1,0.1,2.1,0.1,3.3,0.1
			C192.9,387,194.2,387,195.5,386.9z"/>
		<path class="st6" d="M165.7,376.1c0.8,3.6,0.3,8.6-1.4,9c-1.7,0.4-4-4-4.7-7.5c-0.8-3.6,0-6.8,1.7-7.2
			C162.9,370,164.9,372.5,165.7,376.1z"/>
		<g>
			<path class="st4" d="M195.9,394.9c0,0.6-1.8,1.2-4.3,1.2c-2.6,0.1-4.9-0.5-4.9-1.2c0-0.7,2.3-1.2,4.9-1.2
				C194.1,393.8,195.9,394.3,195.9,394.9z"/>
			<path class="st10" d="M194.1,394.4c-0.4,0.1-0.9,0.1-1.3,0.2c-0.6,0.1-1,0.1-1.4,0.1c-0.4,0-0.8,0-1.3-0.1
				c-0.8-0.1-1.3-0.4-1.5-0.6c-0.6-0.3-1.7-0.7-3.4-0.6c0.2,0.6,0.7,2.2,2.3,3.3c1.5,1.1,3.1,1,3.9,1c1,0,2.2,0,3.4-1
				c0.8-0.6,1.3-1.6,1.8-3.2C195.6,394.1,194.7,394.3,194.1,394.4z"/>
			<path class="st10" d="M192.2,392c-0.6-0.2-1.4-0.5-2.4-0.4c-0.9,0.1-1.4,0.3-2.7,0.9c-0.7,0.3-1.7,0.9-3,1.4
				c1.5,0.4,2.6,0.5,3.4,0.4c0.9-0.1,1.7-0.3,3.2-0.3c0.4,0,0.7,0,0.9,0c0.2,0,0.6,0,1,0c1.1,0.1,1.7,0.3,2.3,0.4
				c0.6,0.1,1.5,0.1,2.8-0.5c-1.1-0.6-1.8-1.1-2.4-1.5c-0.6-0.4-1.1-0.7-1.8-0.7C193,391.7,192.4,391.8,192.2,392z"/>
		</g>
		<path class="st4" d="M160.8,395.6c0,7.3,1.1,13.2,2.5,13.2c1.4,0,2.6-5.9,2.6-13.2c0-7.3-1.1-13.2-2.5-13.2
			C162,382.4,160.9,388.3,160.8,395.6z"/>
		<path class="st6" d="M188.4,423.3"/>
		<path d="M196.5,447.6c-19.1-3.2-38.2-6.3-57.3-9.5c0.9,2,8.2,17.7,12.3,26.7c0.6,1.3,1.5,3.3,2.7,6c1.6,3.7,3.1,7.1,3.9,9.5
			c2.9,8.1,2.6,17.9,2.5,19.3c-0.2,3.4-0.8,8.3-2.8,13.9c20.2-0.3,40.5-0.5,60.7-0.8c-0.4-1.3-0.8-2.9-1.1-4.8
			c-0.1-0.4-0.7-3.9-0.9-7.8c-0.6-12.7,4-23.9,4-23.9c1.2-2.5,2.1-4.6,2.7-6.1c2-5,3.1-9.6,3.5-12.5c0.4-2.8,0.4-5.6,0.4-5.6
			c0-0.1,0-0.2,0-0.3c0-9.5-5.2-18.9-5.2-18.9c-0.4-0.7-0.8-1.3-1.2-2C212.7,436.3,204.6,442,196.5,447.6z"/>
		<path d="M240.8,510"/>
		<g>
			<g>
				<path class="st10" d="M188,751.2c0,0-29.1,4-42.9-9.6c-14.4,5.7-43.7,0.6-47.9-10.3c23.9-55.6,24.6-76.7,24.6-76.7l65.9,15
					L188,751.2z"/>
				<path d="M149.5,721.6c-12.5,4.9-37.1,1.2-45.6-6.8c-2.4,4.8-4.3,10.7-6.8,16.5c4.3,10.9,33.5,16,47.9,10.3
					c13.8,13.6,42.9,9.6,42.9,9.6l-0.1-19.6C179.1,732.1,159.9,731.9,149.5,721.6z"/>
				<path class="st10" d="M187.6,675.6c0,0-24.2,3.5-35.7-8.5c-16.3,6.8-39.1-6.1-40.7-10.5c19.9-49.2,21.2-66.5,21.2-66.5
					l54.8,13.3L187.6,675.6z"/>
				<path d="M155.7,649.5c-10.4,4.3-31.7-0.2-38.8-7.4c-2,4.2-3.5,9.4-5.6,14.6c3.5,9.7,28.7,15.5,40.7,10.5
					c11.5,12,35.7,8.5,35.7,8.5l-0.1-17.3C180.3,658.8,164.3,658.6,155.7,649.5z"/>
				<path class="st10" d="M187.4,611.9c0,0-21.2,2.6-31.2-6.2c-10.5,3.7-33.3-1.7-36.4-8.7c5.8-12.3,11.5-25.4,17.1-39.2
					c7-17.3,16.9-32,22.1-47.9c10,0,19.1-0.1,29.1-0.1C187.8,543.8,187.6,577.8,187.4,611.9z"/>
				<path class="st10" d="M250.8,597c-3,7.1-21.2,12-31.7,8.4c-10,8.9-31.2,6.5-31.2,6.5c-0.4-24.1-0.7-48.3-1.1-72.4
					c-0.1-9.9-0.3-19.8-0.4-29.7c10.5,0,20.9,0,31.4,0c6.4,16.1,12.8,32.5,19.1,49.4C241.7,571.8,246.3,584.5,250.8,597z"/>
				<path d="M159.4,592.7c-9.1,3.2-28.5-1.3-34.7-6.5c-1.7,3.1-3.1,6.9-5,10.7c3.1,7.1,25.9,12.4,36.4,8.7c10,8.8,31.2,6.2,31.2,6.2
					l-0.1-12.7C181,599.5,167,599.4,159.4,592.7z"/>
			</g>
			<g>
				<path class="st10" d="M188,751.2c0,0,29.2,3.7,42.8-10c14.4,5.5,39-2.9,43.2-13.9c-4.2-18-8.1-32.4-11-42.2
					c0,0-1.1-3.7-9.5-31.1l0,0l-65.8,15.6L188,751.2z"/>
				<path d="M229.1,720.1c2.6,1.1,11.9,4.7,23.2,1.3c9.9-3,15.5-9.7,17.3-12.1c0.8,3.2,1.6,6.4,2.4,9.7c0.7,2.8,1.3,5.6,2,8.4
					c-4.2,11-28.8,19.4-43.2,13.9c-13.7,13.7-42.8,10-42.8,10l-0.1-19.6C196.6,732.1,218.7,730.4,229.1,720.1z"/>
				<path class="st10" d="M187.6,675.6c0,0,24.2,3.3,35.6-8.8c12,4.9,32.6,0.3,36.1-9.5C247.5,614,242,589.7,242,589.7l-54.7,13.8
					L187.6,675.6z"/>
				<path d="M220.8,649.7c2.6,1,10.8,3.8,20.4,0.8c6.2-2,11.9-6.2,14-8.2c0.6,2.4,1.3,4.9,2,7.4c0.7,2.6,1.5,5.2,2.2,7.8
					c-3.5,9.7-24.2,14.3-36.2,9.4c-11.4,12.1-35.6,8.8-35.6,8.8l-0.1-17.3c3.8,0.3,9.2,0.4,15.4-1
					C211.1,655.6,217.2,652.2,220.8,649.7z"/>
				<path d="M217,592.2c2.7,0.9,10.3,3,19.1-0.2c5.1-1.8,8.6-4.8,10.6-6.7c0.7,2,1.4,3.9,2.1,5.9c0.7,1.9,1.4,3.8,2.1,5.8
					c-3,7.1-21.7,12-32.2,8.4c-10,8.9-31.2,6.5-31.2,6.5l-0.1-12.7c3.5,0.3,8.1,0.3,13.5-0.7C208,597.1,213.5,594.3,217,592.2z"/>
			</g>
		</g>
		<path class="st6" d="M135.2,436.2c-2.5,6.6-4.7,37.4-4.9,48.2c-0.3,15.5,1.3,24.9,0.6,38.2c-0.7,13.9-7.1,19.8-5.8,47.4
			c0.6,13,2.4,28.8,2.2,34.7c-3,4.3-7.3,21.7-2.5,33.4c0,2.9,3.8,7.1,5.3,8c1.9,1.9,4.5,3.1,8.2,3.1c1.5-1.5,0.1-7.1-2.5-10.6
			c0.4-3.8,0.9-11.8,0.9-11.6c0,1.5,0.2,4.1,1.4,6.9c0,0,0.3,0.7,0.9,1.4c0.7,0.9,1.1,1.2,1.5,1.3c0.2,0.1,0.6,0.2,0.9,0
			c0.2-0.2,0.3-0.6,0.2-1c-0.5-2.5-0.6-3.7-0.8-6.8c-0.3-4-0.2-7.7,0-10.8c-1.9-6.2-3.9-8.3-3.4-13.7c1.4-15.6,2.5-28.8,5.6-41.5
			c3.7-15.1,2.9-23.4,3.6-39.5c0.7-13.9,9.9-61.3,5.2-68.6L135.2,436.2z"/>
		<path class="st10" d="M245.1,463.2c-1.5,1.1-4.2,2.6-7.8,3.4c-5.8,1.3-10.5-0.2-12.4-0.9c-4.5,1.7-10.7,3.5-18.3,3.9
			c-3.4,0.2-6.5,0-9.2-0.3c-5.4,1.4-10,1.9-13.2,2.1c-7.2,0.5-14.6,0.9-21.8-2.9c-3.4-1.8-5.7-4-7.1-5.5c-2.1,1.5-6,3.8-11.4,4.5
			c-9.8,1.3-17.1-3.8-18.9-5.1c-0.2-2.1-0.2-5.3,0.5-9c0.6-3.4,3.1-14.2,12.9-21.8c2.1-1.6,5.6-3.9,10.6-5.5
			c7.7,3.1,16.2,6.2,25.6,9c7.3,2.2,14.3,3.9,20.9,5.3c4.1-1.4,8.9-3.5,14.1-6.6c3.9-2.4,7.2-4.9,9.9-7.1c4.6,1,7.9,2.7,9.9,4
			c12.1,7.7,14.7,22,15.2,25.3C245.1,459.5,245.1,462.2,245.1,463.2z"/>
		<g>
			<path d="M245.1,463.2c-1.4,1.1-5,3.6-10.3,4.1c-4.7,0.5-8.3-0.8-10-1.6c-1.4,1.2-3.2,2.4-5.3,3.4c-9.5,4.4-19,1.4-22.2,0.2
				c-2.2,1.4-11,6.4-22.7,4.5c-11.1-1.8-17.7-8.8-19.5-10.8c-1.1,0.8-8.7,6.5-19.1,4.6c-5-0.9-8.7-3.1-11.2-5.3
				c-0.1-0.8-0.2-4.4,0.5-9c1.8,1.4,6.9,5.2,14.5,5.7c8.3,0.6,14.3-3.1,16.1-4.3c1.6,1.8,4.3,4.4,8.3,6.2c3.7,1.7,6.6,1.9,11.7,2.3
				c5.1,0.4,9.1,0.7,14.1-0.8c3.2-1,5.8-2.8,7.4-3.8c1.6,0.9,3.8,2.7,6.9,3.2c2.7,0.5,4.7,0.3,8.3,0c3.8-0.4,5.8-0.1,8.1-1.1
				c2.6-1.1,4.3-3.2,5.3-4.3c1,0.9,3.5,2.8,7.2,3.3c6,0.7,10.3-3.1,11-3.7C245.1,459.5,245.1,462.2,245.1,463.2z"/>
		</g>
		<path d="M208.3,358.3c-0.5-1.7-1.7-5.3-3.8-8c-5.3-6.5-13-7.2-14.3-7.3c-0.9-0.1-4.5-0.3-8.6,1.2c-1.3,0.4-3.1,1.1-5,2.7
			c-1.6,1.3-2.6,2.7-3.1,3.3c-0.5,0.7-0.5,0.9-2.6,4.4c-0.5,0.9-0.7,1.3-1.1,1.7c-0.9,1.2-1.9,1.9-2.6,2.4c0.5-1.6,1.2-3.3,2.1-5.1
			c1.5-2.8,4.8-9.3,12.1-12.7c1.5-0.7,8.6-4,16.4-1c1.3,0.5,9.5,3.6,10.8,11C209.3,353.6,208.9,356.9,208.3,358.3z"/>
		<path class="st8" d="M185.9,373.6l-0.4,0.2c-0.2-0.4-1.3-2.6-3.8-3.2c-2.1-0.5-4,0.3-4.9,0.9c-0.2,0.1-0.3,0.2-0.4,0.3
			c-0.1,0.1-0.1,0.1-0.2,0.2c-0.8,0.6-1.8,0.8-2.6,0.8c-0.3,0-0.6-0.1-0.9-0.2c-0.3-0.1-0.6-0.3-1-0.8c0.3,0,0.6,0.1,1,0.1
			c1.5-0.1,2.6-0.8,3.1-1.2h0c1.3-1.3,3.9-2.6,6.2-1.9C184.9,369.5,185.8,373.3,185.9,373.6z"/>
		<path class="st8" d="M176.8,371.5c-0.2,0.2-0.4,0.4-0.7,0.5c0.1-0.1,0.1-0.1,0.2-0.2C176.5,371.7,176.6,371.6,176.8,371.5z"/>
	</g>
	
		<rect x="470.3" y="0.9" style="clip-path:url(#SVGID_00000106140487097661020430000007193181363804988574_);fill:#A5A4A4;" width="14" height="824.9"/>
	
		<rect x="364.5" y="0.9" style="clip-path:url(#SVGID_00000106140487097661020430000007193181363804988574_);fill:#A5A4A4;" width="14" height="824.9"/>
	<g style="clip-path:url(#SVGID_00000106140487097661020430000007193181363804988574_);">
		<g>
			<path class="st12" d="M307.2,641.6l0,4.9c0,0,8.7,8.2,5.2,13.3c-3.1,2.4-4.1,4.4-5.3,2.8s-2-5.9-2.6-6.7
				c-0.6-0.8-0.8,2.7-1.8,2.6c-1.4-0.2-2.2-4.5-1.6-8.6l-2-5.9L307.2,641.6z"/>
		</g>
		<path class="st13" d="M268.5,877.6c10.1,2.2,27.2,5,27.7,1c-1-5.2-11.4-9.8-16.2-11.7c-1.4-0.6-2.4-0.9-2.4-0.9l1.6-12.1
			l-12.4-0.1l-0.3,16.9l0,0.5l-0.1,3.8C266.4,876.2,267.3,877.3,268.5,877.6z"/>
		<path class="st14" d="M268.2,877.5c5.2,1.2,7.9,1.8,19.6,3.4c1.6,0.2,4,0.6,6.9-0.2c0.8-0.2,1.5-0.5,2.1-0.8
			c1.2-0.6,1.4-2.2,0.5-3.2c-1.6-1.5-3.5-3.2-5.9-4.7c-5.2-3.5-10.2-5.2-13.7-6c-0.3,0.4-2,2.7-5.2,3.3c-3.1,0.5-5.4-1-5.8-1.3
			l-0.2,7.4C266.4,876.3,267.2,877.3,268.2,877.5z"/>
		<path class="st13" d="M178.6,844.8c6.8,7.8,18.7,20.1,21.4,17.2c2.2-4.8-3.3-14.7-6-19.1c-0.8-1.3-1.4-2.1-1.4-2.1l8.6-8.8
			l-9.9-7.5l-10.3,13.3l-0.3,0.4l-2.2,2.9C177.7,842.3,177.7,843.8,178.6,844.8z"/>
		<path class="st15" d="M257.5,777.6l0.4,5l5.6,78.4h18.9c11.6-38.5,15.8-70,17.4-92.3c2.1-29.2,1.7-70.8,2.1-104.3
			c0-1.5,0.1-6.6,0-13.3c0-4.2,0-6.5,0-6.5h-38.3l-0.3,7l-0.7,15.3l-3,66.5l-1.8,40.3L257.5,777.6z"/>
		<path class="st15" d="M183.7,829.4l14.6,10.9c10.7-8.7,25.1-21.8,39.9-39.7c11.5-13.8,17.2-20.8,22.4-31c20.3-40,15-91.2,17-109.3
			c0.4-3.5,0.7-6.5,1-9c0.3-3.2,0.6-5.6,0.7-6.8c0.1-0.6,0.1-1,0.1-1l-37.7-9.9c0,0-4.1,4.9-7.7,18.3c-0.3,1-2.4,8.3-3.3,16.9
			c-2.5,24.8,5.7,57.4,1.7,83.1C232.5,751.9,230.8,763,183.7,829.4z"/>
		<path class="st16" d="M256.7,521c2.4,13.7-8.5,25.8-22.4,24.8c-9.4-0.7-17.4-7.9-19-17.2c-2.4-13.7,8.5-25.8,22.4-24.8
			C247.1,504.5,255,511.7,256.7,521z"/>
		<g>
			<path class="st17" d="M300,654.3c-4.1,0.3-8.2,0.5-12.3,0.8c-1.8-6.8-3.5-13.9-5.1-21.3c-1.5-6.9-2.7-13.6-3.8-20
				c4.5-0.6,9-1.2,13.5-1.8c1.5,6.7,2.8,13.7,4.2,20.8C297.7,640.1,298.9,647.3,300,654.3z"/>
			<path class="st15" d="M258.7,622.6c5,0.1,10.7-0.1,16.9-0.9c8.6-1.1,16-2.9,22.1-4.9c-1.3-10.8-3-19.8-4.5-26.5
				c-6-27.9-12-36-18.2-40.7c-1.8-1.3-5.1-3.7-9-3.2c-5.5,0.7-10.5,7.7-11.3,17.2c0.4,9.7,0.9,19.7,1.6,29.8
				C257,603.5,257.8,613.2,258.7,622.6z"/>
			<path class="st18" d="M295.6,612.4c0.2,0,4.4,0.2,6.2,3.4c2,3.6-0.4,8.7-2.9,9.3c-2.1,0.5-3.2-2.4-5.8-2.1
				c-3.5,0.4-4.1,5.7-7.1,5.9c-3.1,0.2-4.5-5.1-7.7-4.8c-2.3,0.2-2.4,3.1-5.4,3.7c-1,0.2-2.6-0.2-5.9-1c-3.2-0.8-3.2-1-4.5-1
				c-2.9,0-3.7,1.5-5.3,1c-2-0.6-3.4-3.8-2.7-6.2c0.9-3.2,5.6-4.7,8.9-4.6c4.8,0.1,6.3,3.4,10.1,2.5c2.8-0.7,2.8-2.7,5.3-3
				c3.9-0.4,5.9,4.6,8.8,3.7c1.4-0.4,1.3-1.7,3.9-4C293.1,613.8,294.6,612.9,295.6,612.4z"/>
		</g>
		<path class="st19" d="M236.1,631.3c-3.4-13.8-6.5-24.7-8.8-32.2c-6-19.8-4.4-30.1-5.5-43.1c-0.2-2.9,1.3-5.6,3.9-6.9l22.4-10.3
			H266c1.6,1.1,3.6,2.5,5.8,4.3c0,0,0,0,0,0c0,0,3.7,3.2,6.8,6.7c2.4,2.7,9.1,34.1,8.6,78.3"/>
		<path class="st19" d="M319.9,704.1c-15.6,1.8-33.5,2.9-53.3,2.6c-17.9-0.3-34.3-1.9-48.8-4c0.1-0.1,0.1-0.2,0.2-0.3
			c-2.4-0.2-4.7-0.5-7.1-0.7c0.7-2,1.4-3.9,2.1-5.9c7.7-21.5,15.4-43,23.1-64.4c17-1.1,34.1-2.2,51.1-3.3c5.5,12,11,23.9,16.5,35.9
			c0.4,2.1,1,4.8,1.8,8c0,0,0.2,0.7,0.4,1.7c0,0,0.5,2.1,1,3.8c0.5,1.8,4.3,9.9,10.1,21.3c0.5,0.9,0.9,1.8,1.4,2.7
			C319,702.3,319.4,703.2,319.9,704.1z"/>
		<path class="st14" d="M178.3,844.5c3.5,4,5.3,6.1,13.7,14.4c1.2,1.2,2.9,2.9,5.7,3.9c0.8,0.3,1.5,0.5,2.2,0.6
			c1.3,0.2,2.5-0.9,2.2-2.3c-0.4-2.2-1-4.6-1.9-7.3c-2.1-5.9-5.1-10.2-7.5-13c-0.5,0.2-3.2,1-6.1-0.4c-2.8-1.4-3.7-4-3.9-4.5
			l-4.5,5.8C177.6,842.5,177.6,843.7,178.3,844.5z"/>
		<g>
			<g>
				<path class="st20" d="M284,686.8c13.4-6.7,17.3-18.2,17.3-18.2l-1.3-3l-1.3-3c0,0-11-5-25.1,0.2c-14.1,5.2-6.9,17.3-6.9,17.3
					S270.6,693.6,284,686.8z"/>
				<path class="st21" d="M281.9,683c9.5-4.3,19.3-14.6,19.3-14.6l-1.2-2.7l-1.2-2.7c0,0-14.2,0.1-23.8,4.1c-7.2,3-9.7,7.3-7.3,12.7
					C270,685.1,274.8,686.2,281.9,683z"/>
				<g>
					<g>
						<path class="st20" d="M298.4,661.9c0.4,1.4-1.2,1-2.6,0.5c-10.2-3.1-18.2-3-19.6-2.8c-3.2,0.5-6.7,2.1-7.9-1.8
							c-1.4-4.7,6.6-5.8,13.4-4.4C288,654.9,297.6,659.2,298.4,661.9z"/>
					</g>
					<g>
						<path class="st20" d="M301.6,669.3c-0.7-1.2-1.5,0.2-2.2,1.6c-4.7,9.6-10.2,15.3-11.4,16.2c-2.6,2-6.1,3.4-4,7
							c2.5,4.3,8.8-0.9,12.4-6.9C299.7,681.7,303.1,671.8,301.6,669.3z"/>
					</g>
				</g>
				<path class="st20" d="M269.7,674.1c-3,1.8-5.2,1.7-6.9,0.1c-2.2-2.1-1.3-5.9,0.5-8.9c2.8-4.7,9.5-4.7,11.7-0.8
					C277,668.1,272.8,672.3,269.7,674.1z"/>
				<path class="st21" d="M269.4,672.2c-1.4,1.6-3.7,2-5.2,0.7c-1.5-1.2-1.6-3.6-0.2-5.2c1.4-1.6,3.7-2,5.2-0.7
					C270.7,668.2,270.8,670.6,269.4,672.2z"/>
				<path class="st21" d="M273.9,667.4c-0.8,0.9-2,1.1-2.7,0.5c-0.7-0.6-0.7-1.8,0-2.7c0.8-0.9,2-1.1,2.7-0.5
					C274.7,665.3,274.7,666.5,273.9,667.4z"/>
				<path class="st21" d="M271,665c-0.5,0.8-1.4,1.1-2.1,0.7c-0.7-0.4-0.8-1.4-0.3-2.2c0.5-0.8,1.4-1.1,2.1-0.7
					C271.3,663.2,271.5,664.2,271,665z"/>
				<path class="st21" d="M267.7,664.7c-0.3,0.7-1,1.2-1.6,0.9c-0.6-0.2-0.9-1-0.6-1.8c0.3-0.7,1-1.2,1.6-0.9
					C267.7,663.2,268,664,267.7,664.7z"/>
				<path class="st20" d="M273.4,682.4c-3.3,1-4.8,2.6-4.8,5c0.1,3.1,3.4,5,6.8,5.8c5.3,1.2,10-3.7,8.5-8.1
					C282.7,681.2,276.8,681.4,273.4,682.4z"/>
				<path class="st21" d="M274.5,684c-2.1-0.1-3.9,1.4-4,3.3c-0.1,1.9,1.5,3.6,3.7,3.7c2.1,0.1,3.9-1.4,4-3.3
					C278.3,685.7,276.6,684.1,274.5,684z"/>
				<path class="st21" d="M281.1,684c-1.2-0.1-2.2,0.7-2.2,1.6c-0.1,1,0.9,1.8,2,1.8c1.2,0.1,2.2-0.7,2.2-1.6
					C283.2,684.8,282.3,684,281.1,684z"/>
				<path class="st21" d="M280.8,687.7c-0.9-0.2-1.8,0.3-2,1c-0.2,0.8,0.5,1.5,1.4,1.7c0.9,0.2,1.8-0.3,2-1
					C282.4,688.6,281.7,687.9,280.8,687.7z"/>
				<path class="st21" d="M278.8,690.3c-0.7-0.3-1.5-0.1-1.8,0.5c-0.3,0.6,0.1,1.3,0.9,1.6c0.7,0.3,1.5,0.1,1.8-0.5
					C279.9,691.4,279.5,690.6,278.8,690.3z"/>
			</g>
			<g>
				<path class="st20" d="M320.6,673.9c2.4-3.4,3.4-6,3.2-10.2c-0.5-9.1-6.3-18.8-17.9-21.4c-5-1-7.9,0.8-10.3,6.4
					c-2.5,5.8-4.6,12.1-2.1,17.9c2.1,4.8,8.2,9.4,13.5,10.9C315,679.8,317.5,678.1,320.6,673.9z"/>
				<path class="st21" d="M323.8,663.7c-0.3-6.6-3.4-13.4-9.4-17.7c-1.9,3.1-4.8,7.5-7,9.8c-4.8,5-12.2,6.7-11,9.4
					c1.2,2.7,10.2-1.4,14.2-1.4c4.9-0.1,10.3,0.9,13.2,1.6C323.8,664.8,323.8,664.3,323.8,663.7z"/>
				<g>
					<g>
						<path class="st22" d="M300.1,657.3c-1.3,0.6-2.7,0-3.3-1.3c-0.6-1.3,0-2.7,1.3-3.3c1.3-0.6,2.7,0,3.3,1.3
							C302,655.3,301.4,656.7,300.1,657.3z"/>
						<path class="st23" d="M299.3,656.6c-0.6,0.3-1.4,0-1.7-0.7c-0.3-0.6,0-1.4,0.7-1.7c0.6-0.3,1.4,0,1.7,0.7
							C300.2,655.6,299.9,656.3,299.3,656.6z"/>
						<path class="st24" d="M298,653.6c1-0.4,2.2,0,2.7,1.1c0.4,0.8,0.1,1.8-0.5,2.4c0.9-0.6,1.2-1.7,0.8-2.7
							c-0.5-1.1-1.8-1.6-2.9-1.1c-0.8,0.4-1.3,1.2-1.3,2.1C296.9,654.6,297.3,653.9,298,653.6z"/>
						<path class="st24" d="M299.7,655c-0.3,0.1-0.6,0-0.7-0.3c-0.1-0.3,0-0.6,0.3-0.7c0.3-0.1,0.6,0,0.7,0.3
							C300.1,654.6,300,654.9,299.7,655z"/>
						<path class="st24" d="M298.6,654.7c-0.2,0.1-0.4,0-0.5-0.2c-0.1-0.2,0-0.4,0.2-0.5c0.2-0.1,0.4,0,0.5,0.2
							C298.9,654.4,298.8,654.6,298.6,654.7z"/>
					</g>
					<g>
						<path class="st22" d="M304.9,668.3c-1.3,0.6-1.9,2-1.3,3.3c0.6,1.3,2,1.8,3.3,1.3c1.3-0.6,1.8-2,1.3-3.3
							C307.6,668.3,306.1,667.7,304.9,668.3z"/>
						<path class="st23" d="M304.8,669.3c-0.6,0.3-0.9,1-0.7,1.7c0.3,0.6,1,0.9,1.7,0.7c0.6-0.3,0.9-1,0.7-1.7
							C306.2,669.4,305.5,669.1,304.8,669.3z"/>
						<path class="st24" d="M306.2,672.3c1-0.4,1.5-1.6,1.1-2.7c-0.4-0.8-1.2-1.3-2.1-1.2c1-0.2,2.1,0.3,2.5,1.2
							c0.5,1.1,0,2.4-1.1,2.9c-0.8,0.4-1.8,0.2-2.4-0.5C304.7,672.5,305.5,672.6,306.2,672.3z"/>
						<path class="st24" d="M306.3,670.1c-0.3,0.1-0.4,0.4-0.3,0.7c0.1,0.3,0.4,0.4,0.7,0.3c0.3-0.1,0.4-0.4,0.3-0.7
							C306.9,670.1,306.6,670,306.3,670.1z"/>
						<path class="st24" d="M305.8,671.1c-0.2,0.1-0.3,0.3-0.2,0.5c0.1,0.2,0.3,0.3,0.5,0.2c0.2-0.1,0.3-0.3,0.2-0.5
							C306.2,671.1,305.9,671,305.8,671.1z"/>
					</g>
				</g>
				<g>
					<g>
						<path class="st20" d="M348.4,678.8c1.7-0.7,5.7-2.3,1.5-7c-3.2-3.6-6.7-5.5-9.7-6.5c-7.1-2.8-13.8-4.6-19.7-2.2
							c0,0-1.4,5-0.3,5.7c0,0,9.2,6.8,13.5,8.3C338.8,679.2,343.9,680.5,348.4,678.8z"/>
					</g>
					<g>
						<path class="st21" d="M341.9,675c7.8-1.2-4.1-7.3-6.4-8c-5.5-2.2-13-2.7-15.2-3.2c0,0-1.3,1.9-0.8,3.9c0,0,7.9,3.8,11.1,4.9
							C334.7,674.3,338.3,675.6,341.9,675z"/>
					</g>
				</g>
				<g>
					<g>
						<path class="st25" d="M322.7,632.6c-1.9-0.8-3.9-1.5-5.8-2.5c-0.5-0.3-1.1-0.6-1.7-0.8c-0.1,0.3-0.3,0.6-0.4,1
							c-2.4,4.9-4.3,15.7-4.3,15.7c0,0.5,4.5,3.9,4.5,3.9c5.6-3.7,9-8.3,12.2-14.4C325.5,634.6,324.3,633.3,322.7,632.6z"/>
					</g>
					<g>
						<path class="st21" d="M324.4,634.1c0,0-7.3-1.5-8.6,1.1c-1.9,3.8-5,11.4-5,11.4c0,0.3,3.4,2.9,3.4,2.9
							C315.8,647.3,321.3,640.3,324.4,634.1z"/>
					</g>
					<g>
						<path class="st20" d="M321.3,627.4c-1.4-1.3-5-0.9-8.7-0.5c-2.3,0.3-11.1,3.7-10.5,5.3c0.6,1.6,14.5,4.9,16.9,4.8
							C324,636.9,333.2,638.3,321.3,627.4z"/>
					</g>
				</g>
				<path class="st26" d="M296,670.4c2.1,0.4,3.5-5.2,2.9-6.4c-0.6-1.2-1.9-1.4-4.2-2.5c-1.3-0.6-2-0.2-2.4,0.4
					c0.1,1.6,0.4,3.1,1.1,4.6C294.1,667.9,295,669.2,296,670.4z"/>
				<g>
					<g>
						<path class="st27" d="M295.8,665.5c0,0-1,0.4-1.5,0.6c-0.5,0.2-1.4-0.3-0.6-1.7"/>
					</g>
					<g>
						<path class="st27" d="M295.7,665.4c0,0-1,0.4-1.5,0.6c-0.5,0.2-0.7,1.3,0.8,1.6"/>
					</g>
				</g>
				<g>
					<path class="st28" d="M297.2,667.3c-0.6-0.1-1.3-0.5-1.8-1c-0.3-0.3-0.6-1-0.6-1.4c0-0.7,0.2-1.4,0.5-2
						c0.2-0.3,1.4-1.3,2.5,1.4C299.1,667.2,297.5,667.4,297.2,667.3z"/>
					<g>
						<g>
							<path class="st29" d="M294.8,664.9c0.2,0.1,0.4,0.1,0.5,0c0.4-0.2,0.6-0.6,0.2-1.4c-0.1-0.2-0.2-0.4-0.3-0.5
								C295,663.5,294.8,664.2,294.8,664.9z"/>
							<path class="st29" d="M297.2,667.3c0-0.2-0.1-0.3-0.2-0.5c-0.3-0.8-0.8-1-1.2-0.8c-0.2,0.1-0.3,0.2-0.4,0.4
								C296,666.9,296.6,667.2,297.2,667.3z"/>
						</g>
					</g>
					<path class="st30" d="M298,665.8c0,0,0.2-0.8-0.8-2.1c-0.9-1.1-1.6-0.8-1.5-0.7c0,0.1,0.6,0.8,0.3,1.5
						C295.8,665.3,296.5,663.2,298,665.8z"/>
				</g>
				<g>
					<path class="st31" d="M294.3,663.7c-0.5,0.2-1,0-1.2-0.5c-0.2-0.5,0-1,0.5-1.2c0.5-0.2,1,0,1.2,0.5
						C295,663,294.8,663.5,294.3,663.7z"/>
					<path class="st31" d="M296.7,669.2c-0.5,0.2-1,0-1.2-0.5c-0.2-0.5,0-1,0.5-1.2c0.5-0.2,1,0,1.2,0.5
						C297.4,668.4,297.2,669,296.7,669.2z"/>
				</g>
			</g>
		</g>
		<path class="st17" d="M223.9,583.6c7.6,15,15.2,30,22.8,45.1c12.3,11.5,24.6,23,36.9,34.6c0.1,3.9,1.2,6.6,2,8.3
			c1.9,3.8,5.9,8.2,7.9,7.4c0.3-0.1,0.5-0.4,0.7-0.6c0.8,0.7,1.9,0.9,2.5,0.5c0.1-0.1,0.4-0.3,0.6-0.7c1.2,0.7,2.5,0.7,3.2,0.1
			c0.2-0.1,0.4-0.4,0.5-0.9c0.4,0,2.2-0.1,2.6-1.1c0.2-0.5,0-1.1-0.2-1.5c-1.2-2.9-6.4-7.4-7-8.8c-0.6-1.4,5.1,2.2,5.7,0.7
			c0.8-2-5.2-7.6-11.3-10.1c-11-12.9-21.9-25.7-32.9-38.6c-6.5-14.1-13.1-28.2-19.6-42.4C233.5,578.2,228.7,580.9,223.9,583.6z"/>
		<g>
			<g>
				<path class="st17" d="M268.6,521.6c-6.3-0.5-12.6-1-18.9-1.5c0.1,5.9,0.3,11.8,0.4,17.7c1.3,1,2.8,2.1,4.6,3.1
					c3.7,2.1,7.1,3.3,9.9,4c0.8-0.6,2.1-2,3-4c0.7-1.6,0.8-3,0.9-3.9C268.6,531.8,268.6,526.7,268.6,521.6z"/>
				<path class="st32" d="M268.5,531c-6.4-2.8-12.8-5.7-19.2-8.5c0.2,2.2,0.4,4.4,0.6,6.7c1.9,1.7,5,3.9,9.2,5.1
					c3.8,1.1,6,0.6,6.7,0.5c1.1-0.3,2-0.7,2.6-1C268.5,532.9,268.5,532,268.5,531z"/>
				<g>
					<path class="st17" d="M278.9,483.1c0.3,5.4,3.1,17.5,1.3,28.7c-1.8,10.9-8.3,23.2-18.1,20.9c-15.9-3.6-18.2-11.6-20.9-23.9
						c-2.2-10-3.5-20.2-3.7-25.8L278.9,483.1z"/>
					<path class="st16" d="M229.9,491.5c0.3,6.2,1,23.5,11.5,28.6c0.7,0.4,1.9,0.9,3.6,1.2c-1.3-3.2-2.6-6.8-3.7-10.6
						c-0.7-2.2-1.2-4.4-1.8-6.5c3.5,1.2,4.8,2.7,5.3,4c0.3,0.8,0.3,1.4,1.1,5.1c0.5,2.5,0.6,2.7,0.8,2.7c0.7,0-1-7,3.1-12.9
						c0.7-1,2.1-2.7,2.7-5.4c0.6-2.3,0.4-4.4,0.2-5.8c1.1-0.4,3-1.1,5.3-1.7c7.1-2,15.3-4.3,19.7-0.4c0.8,0.8,2.2,2.3,2.7,5.6
						c0.6-2.6,1.3-8.1-1.2-13.6c-4.6-10-16.7-13.1-24.7-12.9c-1.2,0-15.4,0.7-21.7,11.6C230.5,484.3,229.8,487.8,229.9,491.5z"/>
					<g>
						<path class="st33" d="M270.7,522.6c-0.2-0.3-1.6,0.7-4.3,0.8c-2.4,0.1-3.8-0.6-3.9-0.3c-0.2,0.4,1.7,2.4,4,2.3
							C269,525.3,271,523,270.7,522.6z"/>
						<path class="st32" d="M269.6,518.2c-0.4,0.3-0.9,0.6-1.6,0.7c-1.1,0.2-1.9-0.3-1.9-0.2c-0.1,0.1,1.6,1.4,2.7,0.8
							C269.4,519.1,269.6,518.4,269.6,518.2z"/>
						<path d="M271.1,503.8c0.6-0.3,2.8-1.3,5.5-0.7c1.5,0.4,2.5,1.1,3.1,1.6c-0.3-0.6-1.1-1.8-2.7-2.6c-2.7-1.4-5.4-0.2-5.8,0
							c0,0.2-0.1,0.5-0.1,0.8C271.1,503.2,271.1,503.5,271.1,503.8z"/>
						<path d="M262.8,504.8c-1.4-0.3-3.5-0.7-6-0.4c-1.7,0.2-3.2,0.5-4.3,0.9c0.8-0.7,2.1-1.5,3.9-2.1c3-1,5.6-0.5,6.8-0.2
							c0,0.3-0.1,0.6-0.2,1C263,504.3,262.9,504.6,262.8,504.8z"/>
					</g>
					<path class="st17" d="M245.6,508.1c0.2,3.3-0.4,6.5-2.9,6.7c-2.5,0.1-5.4-3.1-5.6-6.4c-0.2-3.3,1.1-5.9,3.6-6.1
						C243.2,502.2,245.4,504.8,245.6,508.1z"/>
				</g>
				<g>
					<path class="st4" d="M277.9,507.9c-0.3-0.3-0.7-0.7-1.3-1.1c-0.3-0.2-1.7-0.9-3.1-0.2c-1.2,0.5-1.8,1.7-1.9,2.1
						c0.3,0.3,1.3,1.2,2.8,1.2C276.5,510,277.8,508.1,277.9,507.9z"/>
					<path class="st34" d="M273.3,508c0-0.1-0.1-0.7,0.3-1.2c0.5-0.6,1.4-0.4,1.9-0.3c0.4,0.1,0.8,0.3,1,0.5
						c0.3,1.2-0.3,2.4-1.2,2.6C274.3,509.8,273.4,508.9,273.3,508z"/>
					<path d="M278.2,508.1c-0.1-0.3-0.9-1.7-2.3-2.1c-1.6-0.4-3.5,0.6-4.3,2.6c0.3-0.3,1.8-1.8,4.1-1.6
						C276.9,507.2,277.8,507.8,278.2,508.1z"/>
					<path d="M274.3,508.1c0-0.1,0-0.2,0-0.3c0.1-0.4,0.4-0.8,0.8-0.7c0.4,0.1,0.5,0.5,0.5,0.5c0.1,0.5-0.1,1-0.5,1.1
						C274.8,508.9,274.4,508.5,274.3,508.1z"/>
					<path class="st4" d="M274,507.9c0-0.1,0-0.1,0-0.1c0-0.2,0.2-0.4,0.4-0.3c0.2,0,0.2,0.2,0.3,0.2c0.1,0.2-0.1,0.5-0.3,0.5
						C274.2,508.2,274,508,274,507.9z"/>
				</g>
				<g>
					<path class="st4" d="M253.6,509.1c1.4-0.9,2.7-1.4,3.6-1.6c1.3-0.4,2.1-0.6,3.1-0.4c1.7,0.4,2.6,1.8,2.9,2.3
						c-0.6,0.4-2,1.5-4,1.6C256.2,511.2,254,509.4,253.6,509.1z"/>
					<path class="st34" d="M257,508.8c0-0.1-0.1-0.8,0.5-1.4c0.7-0.7,2-0.4,2.7-0.2c0.6,0.2,1.1,0.4,1.4,0.6c0.4,1.4-0.6,2.8-1.9,3
						C258.4,511,257.1,509.9,257,508.8z"/>
					<path d="M253.2,509.4c-0.1-0.1,3.8-4.3,7.4-2.8c1.6,0.7,2.4,2.2,2.7,2.9c-0.9-0.8-2-1.6-3.5-1.9
						C256.2,506.8,253.3,509.5,253.2,509.4z"/>
					<path d="M258.6,509c0-0.2,0-0.3,0-0.3c0.1-0.5,0.7-0.9,1.2-0.8c0.5,0.1,0.7,0.6,0.8,0.7c0.2,0.6-0.3,1.2-0.8,1.3
						C259.1,510,258.7,509.5,258.6,509z"/>
					<path class="st4" d="M258.1,508.7c0-0.1,0-0.1,0-0.2c0.1-0.2,0.3-0.4,0.6-0.4c0.2,0,0.3,0.3,0.4,0.3c0.1,0.3-0.1,0.6-0.4,0.6
						C258.4,509.2,258.1,508.9,258.1,508.7z"/>
				</g>
			</g>
		</g>
		<path class="st15" d="M269.7,612c-5.6,3.5-11.6,7-17.9,10.5c-5.4,3-10.7,5.8-15.9,8.4c-7.1-11.5-11.5-21.6-14.1-28.7
			c-10.7-28.7-5.9-41.2-4.6-44.4c0.9-2,2.6-5.7,6.2-7.3c5.1-2.2,12.9,1.4,18.4,9.3c4.2,8.6,8.7,17.5,13.6,26.6
			C260.1,595.4,264.9,603.9,269.7,612z"/>
		<path class="st18" d="M264.9,607.8c1.8-1.6,4.1-2.3,6-1.5c3.7,1.4,4,7.7,2,9.6c-1.6,1.5-3.9-0.5-6.1,1c-2.9,2-0.8,6.9-3.4,8.6
			c-2.6,1.7-6.4-2.3-9.1-0.5c-1.9,1.3-0.6,3.9-3,5.9c-2.1,1.8-5.1,2-5.6,2c-2.4,0.1-2.8-0.9-4.1-0.4c-2.6,0.8-2.3,4.5-4.4,5.1
			c-1.9,0.5-4.5-1.7-5.4-4.2c-1.3-3.5,0.8-7.8,3.1-8.4c2.2-0.5,3.6,2.4,5.5,1.7c1.5-0.6,0.9-2.5,3.1-5.3c0.7-0.9,2.1-2.6,4.2-3.3
			c3.1-0.9,5,1.3,6.5,0.2c1.7-1.2,0.1-4.3,1.7-5.5c1.7-1.3,4.3,1.2,6.6,0C264.1,611.9,264.7,609.7,264.9,607.8z"/>
	</g>
	<g style="clip-path:url(#SVGID_00000106140487097661020430000007193181363804988574_);">
		<path d="M153.6,668.6c10.9-2.1,21.7-4.2,32.6-6.4c7.6,2.5,15.2,5.1,22.8,7.6c0.2,28.5,0.5,57.1,0.7,85.6c-7.3,1.3-14.7,2.5-22,3.8
			c-1-21.8-2-43.6-2.9-65.4c-1.5,20.2-2.9,40.4-4.4,60.6c-11-1.1-22-2.2-33.1-3.3C149.3,723.6,151.5,696.1,153.6,668.6z"/>
		<path class="st17" d="M267.8,597.1c2.3,0,6.7-2,5.3-3.9c-0.9-0.2-7.7,0-8.9,0.1c1.9-2.3,5.2-3.5,6.9-5.9c2.7-6.4-5.9,0.5-7.8,0.9
			c-3.8,1.9-3.5,4.1-7,6.7c-1,0.7-5.4,4-6.6,4.9c0,0,0,0,0,0c-2.6,2.4-5.8,5.1-9.9,7.6c-1.9,1.2-3.8,2.1-5.6,2.9
			c0.6,1,1.2,2.1,1.8,3.2c0.9,1.7,1.6,3.2,2.1,4.7c3.5-1.7,7.1-3.4,10.6-5c1.1,0.2,3,0.3,5.1-0.4c2.8-0.9,4.4-2.7,5.2-3.5
			c2.5-2.8,1.5-3.8,3.6-5.7c0.8-0.7,3.3-2.7,6.6-3.2c0.7-0.1,2-0.3,3-1.3c0.1-0.1,1.1-1.1,0.8-1.7
			C272.3,596.3,267.4,597.1,267.8,597.1z"/>
		<g>
			<g>
				<path class="st4" d="M204.1,661c1.7-0.2,3,0.2,4.7,0c0.6-15,2-27.6,2.6-35.6c1.2-14,2.2-21.1,0.8-31.7
					c-1.2-9.2-3.5-16.5-5.3-21.2C206,602,205,631.5,204.1,661z"/>
				<path class="st35" d="M154.5,563.4c-1,1.5-1.5,3-2.5,6c-2.4,7.3-2.2,13.4-2.2,15.7c0.3,10,3.7,41.2,4.3,48.3
					c0.7,8,1.1,19.6-0.8,34.2c18.5,0.8,37,1.5,55.6,2.3c-0.3-15.1-0.4-24.5-0.6-29c0-0.9-0.1-3.6-0.1-7.3c0-1.9,0-3.9,0-6.2
					c0.4-30.2,4.5-44.4-2.4-57.1c-2.4-4.4-5.6-7.7-6.3-8.3c-2.5-2.5-6.8-6.8-13.4-8.1c-2.7-0.5-4.7-0.8-8.5,0.1
					C173,555,158.6,557.5,154.5,563.4z"/>
				<path class="st4" d="M168.6,565.4c2.6,2.5,1.9,3.9,9.2,21.7c0.2,0.4,0.3,0.7,0.4,1c3.1,7.3,10.2,16.1,21,20.5
					c16.2,6.8,31-0.4,33.1-1.5c2.9-10,5.4-14.8,7.7-14.4c3,0.5,5.5,10.3,7.4,29.5c-2.9-0.3-5.8-0.5-8.7-0.8
					c-2.7,1.9-6.6,4.3-11.5,6.6c-5.8,2.7-14.6,6.8-25.7,6.6c-12.9-0.2-22.2-6-26.6-8.8c-13.3-8.5-18.6-20-24-30.6
					c-1.9-3.8-5.1-11.3-4.7-19.9c0-0.7,0.4-6.8,2.9-9.7c1.1-1.2,3.4-3,4.7-3.5c0,0,0,0,0,0C155.7,561.1,163.4,560.3,168.6,565.4z"/>
			</g>
			<g>
				<g>
					<g>
						<path class="st17" d="M176.9,545.6l14.6,0.5l0.1,13.2c-0.3,1.5-0.6,2.9-0.9,4.4c-0.9-0.3-1.7-0.7-2.6-1
							c-1.3-0.6-2.6-1.2-3.7-1.7c0,0-8.2-4.5-8.2-4.5L176.9,545.6z"/>
						<path class="st32" d="M191.6,554.5l-0.1-7.2c-4.9-1.6-9.7-3.2-14.6-4.8c-0.1,2.4-0.2,4.9-0.2,7.3
							C180.4,552.3,185.5,554.6,191.6,554.5z"/>
						<path class="st16" d="M184.7,480.4c2.8,0.3,7.1,0.7,11.7,3.3c11.1,6.5,14.3,21,13.3,31c-0.3,2.5-0.8,4.6-1.1,5.8
							c0,0,0,0.1-0.1,0.1c-0.6,0.9-1.2,1.8-1.8,2.7c-2.1,3-4.2,5.5-6.3,7.8c-8.8-6.3-30.8,6.8-30.8,6.8c-1.1-0.3-2.8-0.9-4.5-1.9
							c-11-6.6-11.1-23.4-11.2-27.2c0-4.9,0-10.2,3.3-15.9c3.3-5.6,7.9-8.2,9.7-9.2C174.4,479.5,181.6,480.1,184.7,480.4z"/>
						<path class="st17" d="M209,523.4c-0.3-10.5,0.7-11.6,0.2-17.5c-0.3-2.9-0.9-7-2.9-11.9c0-0.1,0.1-0.4,0-0.8
							c-0.8-5-16.8-9.2-29.8-5.4c-3,0.9-8.2,2.9-13.6,7.9c-1.2,2.9-2.6,7.2-3,12.7c-0.9,12.3,4,21.4,6.4,25.6
							c3.2,5.8,6.6,11.7,13.7,14.7c4.2,1.8,8.2,1.8,10.7,1.6c0.9-0.1,2.5-0.3,4.4-0.9c6-2,9.1-6.8,10.2-8.4c2.6-4,3.3-7.8,3.6-9.8
							C209.2,528.6,209,527.2,209,523.4z"/>
						<g>
							<path d="M186.9,517.6c-4.2-0.5-8.2,0.2-12.3,1.4c1.7-1.3,3.8-2,5.9-2.4c2.1-0.5,4.3-0.6,6.5-0.3L186.9,517.6L186.9,517.6z"/>
						</g>
						<g>
							<path d="M198,515.9c3-0.7,6.3-0.7,9.3,0.5c-1.6,0-3.1,0-4.5,0.1c-1.5,0.1-3,0.4-4.4,0.8L198,515.9L198,515.9z"/>
						</g>
						<path class="st16" d="M171.4,503.2c0.6,1.6,1.3,4,1.3,7c-0.1,2.9-0.9,4.8-1.6,7.2c-0.8,2.6-1.6,6.5-1.7,11.5
							c-1.9-0.6-5.7-2.2-8.7-5.9c-0.8-1-2.2-3.8-3.6-9.1c-0.7-2.5-2.7-12.6,2.5-21.3c7.6-12.7,26.4-13.4,37.4-10.2
							c2.2,0.7,3.8,1.1,5.6,2.4c12.3,8.6,6.7,33.3,6.1,35.7c0.1-1.9,0-4.1-0.3-6.6c-0.6-3.9-1.7-7-2.7-9.3c-0.4,0.2-1.1,0.5-1.9,0.8
							c-3.7,1.4-14.7,5-26.5,0.7C175.9,505.6,173.8,504.7,171.4,503.2z"/>
						<g>
							<g>
								<path class="st32" d="M194.9,530.5c0.1,1.1-0.9,1.9-1.8,1.9c-0.8-0.1-1.5-0.8-1.6-1.7c0.1,0.1,0.8,0.7,1.9,0.5
									C194.2,531.2,194.7,530.7,194.9,530.5z"/>
							</g>
						</g>
						<g>
							<path class="st17" d="M167.4,522c-0.8-2.4-3.6-4.1-5.6-2.6c-3,2.3-2.7,7.9-0.9,11.1c1.1,1.9,3.6,4.2,5.3,2.8
								C168.4,531.6,168.8,526.7,167.4,522z"/>
						</g>
						<g>
							<path class="st36" d="M192.9,536.8c-3.3,0.1-6.4-1-7.2,0.8c-0.6,1.2,1,6.1,6.9,5.9c4.1-0.1,6.9-3.7,6.5-6
								C198.7,535.7,196.3,536.6,192.9,536.8z"/>
							<path class="st37" d="M185.6,539c0.5,1.9,2.5,4.6,6.9,4.5c2-0.1,3.7-1,4.9-2.1C194.6,538,189.7,536.9,185.6,539z"/>
							<path class="st4" d="M185.6,537.5c-0.1,0.1-0.1,0.3-0.1,0.5c4.7,2.8,11,2.2,12.2-1.6c-1.1-0.2-2.8,0.2-4.9,0.2
								C189.6,536.7,186.4,535.8,185.6,537.5z"/>
						</g>
					</g>
					<g>
						<g>
							<path class="st4" d="M186.6,522c-0.3,0.5-1,1.4-2.2,1.9c-1.9,0.8-4.3,0.3-6.2-1.4c0.4-0.5,1.3-1.3,2.6-1.8
								c0.8-0.3,1.8-0.8,3.2-0.5C185.5,520.6,186.3,521.6,186.6,522z"/>
							<path class="st34" d="M184.8,521c0.3,0.8,0.2,1.6-0.2,2.2c-0.3,0.4-0.8,0.7-1.3,0.8c0,0,0,0,0,0c0,0-0.6,0.1-1.2-0.1
								c-0.6-0.2-1.7-0.8-1.8-2c0-0.6,0.3-1.1,0.3-1.2c0.7-1,2.4-1.3,3.4-0.6C184.4,520.4,184.7,520.8,184.8,521z"/>
							<path class="st38" d="M184.3,521.6c0.3,0.6-0.1,1.2-0.1,1.3c-0.3,0.4-0.6,0.5-0.7,0.5c0,0,0,0,0,0c0,0-0.3,0.1-0.7,0
								c-0.2,0-0.7-0.2-1-0.7c0-0.1-0.3-0.6,0-1.2c0.3-0.7,1.3-0.8,2-0.6C183.7,521,184.1,521.2,184.3,521.6z"/>
							<path class="st4" d="M182.6,521.5c0.1,0.1,0,0.3,0,0.3c-0.1,0.1-0.1,0.1-0.2,0.1c0,0,0,0,0,0c0,0-0.1,0-0.2,0
								c0,0-0.2,0-0.2-0.2c0,0-0.1-0.1,0-0.3c0.1-0.2,0.3-0.2,0.5-0.1C182.4,521.4,182.5,521.4,182.6,521.5z"/>
							<path class="st38" d="M186.6,522c-0.2-0.3-1.3-2.2-3.4-2.5c-3-0.4-5.1,2.8-5,3c0.1,0.1,1.9-1.9,4.6-1.9
								C184.4,520.6,185.7,521.3,186.6,522z"/>
						</g>
					</g>
					<g>
						<g>
							<path class="st4" d="M206.3,521c-0.3,0.5-1,1.4-2.1,1.9c-1.8,0.8-4.1,0.3-5.9-1.4c0.4-0.5,1.2-1.3,2.5-1.8
								c0.7-0.3,1.7-0.8,3-0.5C205.2,519.6,206,520.6,206.3,521z"/>
							<path class="st34" d="M204.6,519.9c0.3,0.8,0.2,1.7-0.2,2.3c-0.3,0.4-0.8,0.7-1.2,0.8c0,0,0,0,0,0c0,0-0.5,0.1-1.1-0.1
								c-0.6-0.2-1.5-0.8-1.6-1.9c0-0.2-0.1-0.7,0.2-1.2c0.6-1,2.2-1.2,3.2-0.6C204.2,519.5,204.5,519.7,204.6,519.9z"/>
							<path class="st38" d="M204.1,520.6c0.3,0.6-0.1,1.2-0.1,1.3c-0.2,0.4-0.6,0.5-0.6,0.5c0,0,0,0,0,0c0,0-0.3,0.1-0.7,0
								c-0.2,0-0.7-0.2-1-0.7c0-0.1-0.3-0.6,0-1.2c0.3-0.7,1.3-0.8,1.9-0.6C203.6,520.1,203.9,520.2,204.1,520.6z"/>
							<path class="st4" d="M203.7,520.3c0.1,0.1,0,0.3,0,0.3c-0.1,0.1-0.1,0.1-0.1,0.1c0,0,0,0,0,0c0,0-0.1,0-0.2,0
								c0,0-0.2,0-0.2-0.2c0,0-0.1-0.1,0-0.3c0.1-0.2,0.3-0.2,0.4-0.1C203.6,520.2,203.7,520.2,203.7,520.3z"/>
							<path class="st38" d="M206.3,521c-0.1-0.3-1.2-2.2-3.3-2.5c-2.9-0.4-4.9,2.8-4.7,3c0.1,0.1,1.8-1.9,4.4-1.9
								C204.2,519.7,205.4,520.3,206.3,521z"/>
						</g>
					</g>
				</g>
			</g>
		</g>
	</g>
	<g style="clip-path:url(#SVGID_00000106140487097661020430000007193181363804988574_);">
		<g>
			<path class="st39" d="M489.7,300.7l-5.9-61.6c0,0-14.6-8.9-2.7-16.7c11.9-7.8,20.9,8.1,11.7,14.1l13.3,60.6L489.7,300.7z"/>
			<path class="st39" d="M521.9,309.2l52.4-33c0,0,1.3-17,13.7-9.9c12.4,7.1,2.2,22.3-7.3,16.8l-48.1,39.1L521.9,309.2z"/>
			<g>
				<polygon class="st40" points="739.2,245.5 865.5,336.8 868,338.7 866.5,339 836.9,345.1 783.5,356.2 727.8,367.8 676.8,378.4 
					507.3,413.7 482.6,332.9 571.2,302.7 624.2,284.7 642.9,278.3 684.9,264 720.4,251.9 				"/>
				<g>
					<defs>
						<polygon id="SVGID_00000025407184549120990350000012488214623126428567_" points="739.2,245.5 865.5,336.8 868,338.7 
							868,338.7 866.5,339 836.9,345.1 836.9,345.1 783.5,356.3 727.8,367.8 676.8,378.4 507.3,413.7 482.6,332.9 571.2,302.7 
							624.2,284.7 642.9,278.3 684.9,264 720.4,251.9 						"/>
					</defs>
					<clipPath id="SVGID_00000061457744520145732010000017583479764981241533_">
						<use xlink:href="#SVGID_00000025407184549120990350000012488214623126428567_"  style="overflow:visible;"/>
					</clipPath>
					<g style="opacity:0.72;clip-path:url(#SVGID_00000061457744520145732010000017583479764981241533_);">
						<path class="st42" d="M703.6,219.8l46.7,33.8c-9.7-1.8-20.5-2-29.9-1.6c-1.1,0-2.3,0.1-3.3,0.2c-15.7,0.9-25.3-19.3-14.5-31.3
							C702.9,220.5,703.3,220.1,703.6,219.8z"/>
						<path class="st42" d="M677,371.8c2.4-9.8,4.3-55.8,16.2-65.2c11.9-9.4,41.3-15.1,39.8,16.2c-1.5,31.3-7.2,80.4-28,83
							C684.1,408.5,674.4,382.1,677,371.8z"/>
						<path class="st42" d="M570,310.1c2.4-9.8,4.3-55.8,16.2-65.2c11.9-9.4,41.3-15.1,39.8,16.2c-1.5,31.3-7.2,80.4-28,83
							C577.2,346.8,567.5,320.5,570,310.1z"/>
						<path class="st42" d="M788.7,364.1c-8.4-14.4-39.8-48.6-25.4-62.7c14.4-14.1,87.5,22.4,71.4,55.2S794.6,374.2,788.7,364.1z"/>
						<path class="st42" d="M638.3,272.8c-8.4-14.4-39.8-48.6-25.4-62.7c14.4-14.1,87.5,22.4,71.4,55.2
							C668.3,298,644.3,283,638.3,272.8z"/>
						<path class="st42" d="M865.5,336.8l2.5,1.8l0,0l59,42.7c-3.9,2.8-8.8,4.2-14.4,3.1c-13.6-2.7-29.7-14.3-46.1-45.5
							C866.2,338.3,865.8,337.6,865.5,336.8z"/>
					</g>
				</g>
			</g>
			<g>
				<g>
					<path class="st40" d="M493.4,304.6c-0.9,0.2-22,5.9-37.8-4.1c-15.8-10-19.7-31.5-19.9-32.4l-0.2-1.3l1.3-0.4
						c0.9-0.2,22-5.9,37.8,4.1c15.8,10,19.7,31.5,19.9,32.4l0.2,1.3L493.4,304.6z"/>
					<path class="st40" d="M437.2,267.9c0,0,21.2-5.8,36.6,3.9c15.4,9.8,19.2,31.4,19.2,31.4s-21.2,5.8-36.6-3.9
						C441,289.5,437.2,267.9,437.2,267.9L437.2,267.9z M433.8,265.7l0.5,2.7c0.2,0.9,4.2,23.1,20.6,33.4c16.3,10.4,38.1,4.5,39,4.3
						l2.6-0.7l-0.5-2.7c-0.2-0.9-4.2-23.1-20.6-33.4c-16.3-10.3-38.1-4.5-39-4.3L433.8,265.7L433.8,265.7z"/>
				</g>
				<path class="st43" d="M490.8,302.3c0,0-15.9,4.4-27.4-2.9c-11.5-7.3-14.4-23.5-14.4-23.5s15.9-4.4,27.4,2.9
					C488,286.1,490.8,302.3,490.8,302.3z"/>
			</g>
			<g>
				<g>
					<path class="st40" d="M586.4,346.6c-9.3,2.7-17.8,2.9-25.1,0.6c-17.8-5.6-27.1-25.4-27.5-26.3l-0.6-1.2l1.2-0.7
						c0.2-0.1,5.2-3,12.5-5.1c9.3-2.7,17.8-2.9,25.1-0.6c17.8,5.6,27.1,25.4,27.5,26.3l0.6,1.2l-1.2,0.7
						C598.6,341.6,593.6,344.5,586.4,346.6z"/>
					<path class="st40" d="M547.2,315.3c6.9-2,15.8-3.3,24.3-0.6c17.4,5.5,26.6,25.4,26.6,25.4s-5,2.9-12.1,5
						c-6.9,2-15.8,3.3-24.3,0.6c-17.4-5.5-26.6-25.4-26.6-25.4S540.1,317.4,547.2,315.3L547.2,315.3z M546.4,312.5L546.4,312.5
						c-7.4,2.2-12.6,5.1-12.8,5.3l-2.4,1.4l1.1,2.5c0.4,0.9,10,21.2,28.4,27.1c7.7,2.4,16.4,2.2,26-0.6c7.4-2.2,12.6-5.1,12.8-5.3
						l2.4-1.4l-1.1-2.5c-0.4-0.9-10-21.2-28.4-27.1C564.7,309.5,556,309.7,546.4,312.5L546.4,312.5z"/>
				</g>
				<path class="st43" d="M537.4,320.7c0,0,14.2-8.3,27.2-4.2c13,4.1,19.9,19.1,19.9,19.1s-14.2,8.3-27.2,4.2
					C544.3,335.6,537.4,320.7,537.4,320.7z"/>
			</g>
			<path class="st40" d="M549.7,314.2c2.4,8.4,2.1,17.6-1.6,26.1l-56.3,130.4c-8.5,19.6-31.4,28.7-50.9,20.2
				c-11-4.8-18.7-14.1-21.8-24.8c-2.4-8.4-2.1-17.6,1.6-26.1l56.3-130.4c4-9.3,11.2-16.2,19.8-20c9.6-4.3,20.8-4.7,31.1-0.2
				c5.2,2.3,9.7,5.5,13.3,9.5C545.1,303.2,548.1,308.5,549.7,314.2z"/>
			<path class="st42" d="M494.2,329.2c0.9,3.2-0.9,6.5-4.1,7.5c-3.2,0.9-6.5-0.9-7.5-4.1c-0.9-3.2,0.9-6.5,4.1-7.5
				C489.9,324.2,493.3,326,494.2,329.2z"/>
			<path class="st42" d="M521.4,342.9c0.9,3.2-0.9,6.5-4.1,7.5s-6.5-0.9-7.5-4.1s0.9-6.5,4.1-7.5
				C517.1,337.8,520.5,339.7,521.4,342.9z"/>
			<path class="st43" d="M541.1,298.8c-7.1,10.8-16.8,17.8-27.3,13.5c-14.5-6.1-18.1-15-17.1-22.7c9.6-4.3,20.8-4.7,31.1-0.2
				C533.1,291.6,537.6,294.9,541.1,298.8z"/>
		</g>
		<path class="st44" d="M434.1,475.2c-2,7.1-4.5,17.5-6.3,30.2c-3.2,22.3-0.6,26.8-4.7,33.3c-12.8,20.3-58.1,8.2-59.2,14.3
			c-0.9,4.7,24.6,20.2,50.9,14.3c28.6-6.3,41.4-34.1,43.5-39.1c8.7-19.9,5.6-38.2,4.1-45.2c-2.5,0.5-5.6,0.9-9.2,0.6
			C443.4,482.9,436.7,477.6,434.1,475.2z"/>
		<g>
			<path class="st42" d="M461,485.2c-5.5,0.9-11.9,0.7-18.6-2.4c-18.9-8.6-21.5-28.5-21.6-29.4l6-0.7c0.1,0.7,2.3,17.4,18.1,24.6
				c15.6,7.1,29.6-4.4,30.2-4.9l3.9,4.6C478.5,477.5,471.3,483.5,461,485.2z"/>
		</g>
	</g>
	
		<rect x="577.6" y="0.9" style="clip-path:url(#SVGID_00000106140487097661020430000007193181363804988574_);fill:#A5A4A4;" width="14" height="824.9"/>
	
		<rect x="684.8" y="0.9" style="clip-path:url(#SVGID_00000106140487097661020430000007193181363804988574_);fill:#A5A4A4;" width="14" height="824.9"/>
	<path style="clip-path:url(#SVGID_00000106140487097661020430000007193181363804988574_);fill:#CE2026;" d="M170.8,554.9
		c0.1-0.5,1.5-0.9,1.6-0.9c1-0.2,1.6,0.1,2.5-0.4c0.4-0.2,0.6-0.4,0.8-0.5c2.3,1.2,5.3,3.1,8.4,6c2.8,2.7,4.8,5.3,6.1,7.4
		c-0.1-1.4,0-3,0.2-4.7c0.3-2.5,0.9-4.6,1.5-6.3c0.3,0,0.7,0,1.1,0.2c0.4,0.3,0.3,0.6,0.7,1c0.5,0.6,1.1,0.3,1.7,0.8
		c0.2,0.2,0.5,0.5,0.7,1.1c-1.6,3-3.2,6-4.9,9c1.2,0.9,2.8,2.4,4,4.6c2.5,4.4,2.1,8.8,1.9,10.4c-1.1-1.8-2.1-3.7-3.1-5.8
		c-1.5-3-2.6-5.9-3.6-8.6c0.1,1.6,0.2,3.5-0.1,5.6c-0.5,3.7-1.7,6.6-2.7,8.6c-0.5-1.4-1.3-4.1-1-7.6c0.3-3.6,1.8-6.2,2.6-7.5
		c-3.8-3.9-7.4-6.3-10.2-7.8C175.2,557.6,170.5,556,170.8,554.9z"/>
	<path style="clip-path:url(#SVGID_00000106140487097661020430000007193181363804988574_);fill:#CE2026;" d="M250.1,536.7
		c-2.6-0.5-5,0.7-5.7,2.6c-0.4,1.2-0.4,3,0.9,4.2c1,0.9,2.6,1.2,4,0.6c0,0.3,0,2.3,1.5,3.4c1.6,1.2,4.3,0.8,6.1-1.2
		c-0.9,2-0.2,4.2,1.3,5c1.7,0.9,4.5,0,5.3-2.6c0.7,1.5,2.4,2.2,3.9,1.7c1.4-0.5,2.2-2,1.9-3.6c0.3,0.1,1.5,0.5,2.3-0.2
		c1-0.7,1.1-2.8-0.4-4.7c0.2-0.4,0.5-1.3,0.3-2.4c-0.4-2.3-2.9-3.1-3-3.1c0,0.8,0.1,3.6-1.8,5.4c-2.6,2.6-6.9,1.4-8.6,0.9
		C253.6,541.5,251,538.1,250.1,536.7z"/>
	<path style="clip-path:url(#SVGID_00000106140487097661020430000007193181363804988574_);fill:#CE2026;" d="M260.1,550.6
		c-0.5,1.2-0.9,2.7-0.3,3.4c0.5,0.5,1.2,0.2,1.6,0.7c0.7,0.9-1,2.4-0.5,3.9c0.5,1.6,2.9,1.1,3.7,2.8c0.5,1.1-0.4,1.7,0.2,3.5
		c0.2,0.5,0.5,1.5,1.4,2.1c0.9,0.6,1.4,0.3,1.8,0.7c0.9,0.9-0.6,2.7,0.1,3.9c0.8,1.4,4.6,1.6,6.7-0.3c0.4-0.3,1.6-1.4,1.5-3
		c-0.1-1.2-1.1-2.3-2.4-2.8c-1-1.4-1.1-2.3-0.9-2.9c0.2-0.8,0.7-1,0.6-1.7c0-1-0.8-1.7-1.2-2c-1.2-1.1-2.2-0.9-2.4-1.6
		c-0.2-0.8,1.4-1.5,1.2-2.3c-0.2-0.7-1.9-0.5-2.3-1.4c-0.3-0.6,0.3-1.2,0.6-1.9c0.3-1,0-2.6-2.6-5.2
		C264.6,547.8,262.4,549.2,260.1,550.6z"/>
	<path style="clip-path:url(#SVGID_00000106140487097661020430000007193181363804988574_);fill:#CE2026;" d="M217.9,696.4
		c1.5,1.3,1.7,2,2.6,2.1c2.1,0.2,3.4-3.5,4.9-3.2c1.4,0.3,0.7,3.8,2.9,5.1c2,1.3,5.2-0.2,5.6-0.4c2.4-1.1,2.4-2.4,3.8-2.4
		c2.4-0.1,3,4.1,5.5,4.3c2.6,0.2,3.7-4.2,6.1-3.9c2.3,0.3,2.2,4.3,4.9,5.1c3.1,0.9,4.9-3.9,9.8-4.2c3.7-0.2,3.9,2.6,8.3,2.9
		c5.3,0.4,8.2-3.2,10.8-1.5c1.7,1.1,1,3,2.4,3.7c3,1.3,7.4-5.7,11-4.4c1.7,0.6,1.2,2.3,2.9,2.9c3.3,1.2,6.3-4.5,11-4.2
		c2.6,0.2,3.3,3.4,5.1,2.9c1.7-0.4,1.7-2.7,3.2-2.9c1.6-0.2,3.9,1.7,4,4.1c0.2,2.1-1.4,3.9-2.9,4.6c-1.6,0.7-2.2-0.2-4.2,0.3
		c-2.5,0.6-2.6,2.3-4.6,2.8c-2.5,0.6-3.6-1.8-6.6-2.2c-4.3-0.6-5.3,3.7-10.3,4.3c-5.3,0.6-6.7-3.9-12.4-3.2c-3.1,0.4-2.6,1.7-8,3.5
		c-3.3,1.1-6.9,2.2-10.7,1.1c-3.4-1-3.1-2.7-5.8-3.4c-6.2-1.6-10.7,6.5-15.8,4.7c-3.3-1.2-2.4-4.9-6.1-6.4c-3.6-1.4-5.3,1.9-12.5,2
		c-1.3,0-8,0.1-9.6-3.2c-0.5-1.2-0.2-2.4-1.2-3.1c-1.3-0.9-2.9,0.5-3.8-0.2c-1.8-1.3,0.5-10,4.1-10.4
		C214.6,693.6,217,695.6,217.9,696.4z"/>
</g>
</svg>
