<?xml version="1.0" encoding="utf-8"?>
<!-- Generator: Adobe Illustrator 26.0.1, SVG Export Plug-In . SVG Version: 6.00 Build 0)  -->
<svg version="1.1" id="Layer_1" xmlns="http://www.w3.org/2000/svg" xmlns:xlink="http://www.w3.org/1999/xlink" x="0px" y="0px"
	 viewBox="0 0 465 468" style="enable-background:new 0 0 465 468;" xml:space="preserve">
<style type="text/css">
	.st0{clip-path:url(#SVGID_00000096772346626969692850000015012479899260238257_);}
	.st1{fill:#F2D7B9;}
	.st2{clip-path:url(#SVGID_00000096772346626969692850000015012479899260238257_);fill:#E5C49D;}
	.st3{clip-path:url(#SVGID_00000096772346626969692850000015012479899260238257_);fill:#D8B182;}
	.st4{fill:#BC8E68;}
	.st5{fill:#E5C49D;}
	.st6{fill:#AA8159;}
	.st7{fill:#C69E7F;}
	.st8{fill:#C69A6A;}
	.st9{fill:#E09A61;}
	.st10{fill:#C47947;}
	.st11{fill:#FFFFFF;}
	.st12{fill:#4D4D4D;}
	.st13{fill:#8A5D3B;}
	.st14{fill:#3B2314;}
	.st15{fill:#DC2428;}
	.st16{fill:#BD1F22;}
	.st17{fill:#E2DCDC;}
	.st18{fill:#474747;}
</style>
<g>
	<g>
		<defs>
			<path id="SVGID_1_" d="M49.6,322.5c8.4-8.8,24.7-16.3,32-36.9c1.6-4.6,3.2-9.1,2.7-15c-2-23.9-35.5-38.7-50.3-55.6
				c-8.8-10.6-12.7-27.6-3-37.4c8.3-8.3,21.9-7.2,32.8-11.5c19.6-7.8,27-31.7,28.2-52.7C90.3,69.6,98.7,20.5,153,23
				c18.6,2,34.7,13.5,52.6,18.7c35,10.1,74.2-4.7,108.3,9.9c16.8,7.2,31,23.4,30.3,41.7c-0.7,18.8-16.4,36.1-11.6,54.3
				c13.2,37.7,66.6,21.2,89.8,48.7c39.1,47-40.6,57.8,5.4,108.5c3.1,5.4,24.5,61.4,1.8,100.3c-24.4,41.7-92.6,42.8-113.4,38.1
				c-7.7-1.7-17.4-4.4-17.4-4.4c-10.9-3-19.4-6-36-11.1c0,0-10.6-3.4-30.4-9c-48.5-13.9-135.2,39.1-164,1.3
				C48.1,393.4,28.3,344.8,49.6,322.5z"/>
		</defs>
		<clipPath id="SVGID_00000128447996510504724300000005752608083147911560_">
			<use xlink:href="#SVGID_1_"  style="overflow:visible;"/>
		</clipPath>
		<g style="clip-path:url(#SVGID_00000128447996510504724300000005752608083147911560_);">
			<path class="st1" d="M49.6,322.5c8.4-8.8,24.7-16.3,32-36.9c1.6-4.6,3.2-9.1,2.7-15c-2-23.9-35.5-38.7-50.3-55.6
				c-8.8-10.6-12.7-27.6-3-37.4c8.3-8.3,21.9-7.2,32.8-11.5c19.6-7.8,27-31.7,28.2-52.7C90.3,69.6,98.7,20.5,153,23
				c18.6,2,34.7,13.5,52.6,18.7c35,10.1,74.2-4.7,108.3,9.9c16.8,7.2,31,23.4,30.3,41.7c-0.7,18.8-16.4,36.1-11.6,54.3
				c13.2,37.7,66.6,21.2,89.8,48.7c39.1,47-40.6,57.8,5.4,108.5c3.1,5.4,24.5,61.4,1.8,100.3c-24.4,41.7-92.6,42.8-113.4,38.1
				c-7.7-1.7-17.4-4.4-17.4-4.4c-10.9-3-19.4-6-36-11.1c0,0-10.6-3.4-30.4-9c-48.5-13.9-135.2,39.1-164,1.3
				C48.1,393.4,28.3,344.8,49.6,322.5z"/>
		</g>
		<polygon style="clip-path:url(#SVGID_00000128447996510504724300000005752608083147911560_);fill:#E5C49D;" points="108.9,312.7 
			108.9,227.2 137.9,227.2 137.9,199.4 157.5,199.4 157.5,146.9 162.8,146.9 162.8,145.1 174.9,145.1 174.9,146.9 180.3,146.9 
			180.3,218.5 186.9,218.5 186.9,195.3 205.7,195.3 205.7,251.2 219.1,251.2 219.1,166.6 260.4,166.6 260.4,238.1 273.9,238.1 
			273.9,112.2 330.1,112.2 330.1,264.4 336.4,264.4 336.4,227.4 378,227.4 378,314.4 386.8,314.4 386.8,282.9 410.4,282.9 
			410.4,150.5 456.2,150.5 456.2,307.7 456.2,476.3 39.1,476.3 39.1,208.5 70.2,208.5 70.2,275.8 77.4,275.8 77.4,158.9 
			103.9,158.9 103.9,313.2 		"/>
		<polygon style="clip-path:url(#SVGID_00000128447996510504724300000005752608083147911560_);fill:#D8B182;" points="84.9,417.3 
			84.9,331.8 113.9,331.8 113.9,304.1 133.5,304.1 133.5,251.5 156.3,251.5 156.3,323.2 162.9,323.2 162.9,300 181.7,300 
			181.7,355.8 195.1,355.8 195.1,271.3 236.4,271.3 236.4,342.7 249.9,342.7 249.9,216.8 306.1,216.8 306.1,369 312.4,369 
			312.4,332 354,332 354,419.1 362.8,419.1 362.8,387.5 386.4,387.5 386.4,255.1 432.2,255.1 432.2,412.4 432.2,445.1 15.1,445.1 
			15.1,313.1 46.2,313.1 46.2,380.4 53.4,380.4 53.4,263.5 79.8,263.5 79.8,417.8 		"/>
		<g style="clip-path:url(#SVGID_00000128447996510504724300000005752608083147911560_);">
			<path class="st4" d="M123.1,331.8C123.1,331.8,123.1,331.8,123.1,331.8c-3.5,1.6-7.4,3.4-10.8,4.9c-0.4,0-1.2,0.2-1.8,0.3
				c0,0,0.1-0.1,0.1-0.1c-9.7,0.7-19.4,1.4-29.1,2.1c-9.1,0.7-18.2,1.3-27.3,2c2,1.8,3.9,3.6,5.9,5.3c-0.2,0-0.4,0.1-0.6,0.1
				c-8.5,2-16.9,4-25.4,5.9c0.1-10.3,0.2-20.6,0.3-30.9c2.8,1.2,6.9,2.9,12.2,4.2c5.8,1.4,9.9,1.6,25.5,2.2
				c9.8,0.4,15.1,0.5,20.1,0.7c9.1,0.4,16.5,0.8,21.2,1C116.8,330.3,120,331,123.1,331.8z"/>
			<g>
				<path class="st5" d="M358.9,331.9c2.2,3.2,4.4,6.4,6.6,9.6c8.5,6.3,16.9,12.6,25.4,18.9c-6.5-7.8-13.1-15.6-19.6-23.4
					c-0.6-0.1-1.3-0.2-1.8-0.3C366.3,335.2,362.3,333.4,358.9,331.9z"/>
				<path class="st4" d="M358.9,331.8C358.9,331.8,358.9,331.8,358.9,331.8c3.5,1.6,7.4,3.4,10.8,4.9c0.4,0,1.2,0.2,1.8,0.3
					c0,0-0.1-0.1-0.1-0.1c9.7,0.7,19.4,1.4,29.1,2.1c9.1,0.7,18.2,1.3,27.3,2c-2,1.8-3.9,3.6-5.9,5.3c0.2,0,0.4,0.1,0.6,0.1
					c8.5,2,16.9,4,25.4,5.9c-0.1-10.3-0.2-20.6-0.3-30.9c-2.8,1.2-6.9,2.9-12.2,4.2c-5.8,1.4-9.9,1.6-25.5,2.2
					c-9.8,0.4-15.1,0.5-20.1,0.7c-9.1,0.4-16.5,0.8-21.2,1C365.2,330.3,362.1,331,358.9,331.8z"/>
				<path class="st6" d="M371.3,336.8c6.6,7.8,13.1,15.7,19.7,23.5c2.2,1.6,4.4,3.3,6.6,4.9c4.4,12.1,8.7,24.1,13.1,36.2
					c-1.1-15.3-2.2-30.7-3.3-46c-2.3-5.5-4.6-11-6.9-16.5C390.7,338.2,381,337.5,371.3,336.8z"/>
				<path class="st7" d="M410.6,401.4c0.5,1.4,1,2.8,1.5,4.2c-0.8,7.1-1.5,14.3-2.3,21.4h30.3c-1-19.3-2.1-38.7-3.1-58
					c-4.9-7.5-9.8-15.1-14.6-22.6c-0.2,0-0.4-0.1-0.6-0.1c1.9-1.8,3.9-3.5,5.9-5.3c-9.1-0.7-18.2-1.3-27.3-2
					c2.3,5.5,4.6,11,6.9,16.5C408.4,370.8,409.5,386.1,410.6,401.4z"/>
				<path class="st6" d="M422.4,346.4c4.9,7.5,9.8,15.1,14.6,22.6c1,19.3,2,38.7,3.1,58h8.5c-0.3-24.9-0.5-49.8-0.8-74.7
					C439.3,350.4,430.9,348.4,422.4,346.4z"/>
			</g>
			<g>
				<path class="st8" d="M403.3,300.8L403.3,300.8c1.8,0.8,3.7,1.6,5.5,2.3c2-0.2,3.9-0.5,5.9-0.7c-1-0.9-2.1-1.8-3.1-2.6
					C408.9,300.1,406.1,300.5,403.3,300.8z"/>
				<path class="st1" d="M403.3,300.8c1.6,11.6,3.2,23.2,4.9,34.8c1.4,0,2.9-0.1,4.3-0.1c0.8-11,1.5-22,2.3-33.1c0,0,0,0-0.1,0
					c-2,0.2-3.9,0.5-5.9,0.7C407,302.4,405.2,301.6,403.3,300.8z"/>
			</g>
			<path class="st1" d="M87.2,300.8c-1.6,11.6-3.2,23.2-4.9,34.8c-1.4,0-2.9-0.1-4.3-0.1c-0.8-11-1.5-22-2.3-33.1c0,0,0,0,0.1,0
				c2,0.2,3.9,0.5,5.9,0.7C83.5,302.4,85.4,301.6,87.2,300.8z"/>
			<g>
				<g>
					<path class="st6" d="M81.3,324.1c-1.1,0-2.7-0.2-4.1-1.3c-0.4-0.3-1.4-1.2-1.1-2.3c0.2-0.6,0.7-1,1.6-1.2l0.4,1.7
						c0-0.1,0-0.2,0-0.2c0,0.1,0.1,0.2,0.5,0.5c1.3,1.1,3.5,0.8,3.5,0.8c1.2-0.2,2.2-0.7,2.8-1.2l0.1-1.8c0.6,0,2,0.1,2.3,1.2
						c0.1,0.3,0.1,0.7-0.2,1.3c-0.7,1.1-2.8,2.2-4.6,2.5C82.2,324.1,81.8,324.1,81.3,324.1z"/>
				</g>
			</g>
			<g>
				<g>
					<path class="st6" d="M80.7,312.1c-2.7,0-5.5-0.6-6.2-1.3c-0.2-0.2-0.4-0.6-0.3-0.9c0.1-1,1.3-1.2,2.1-1.3l0.1,0.9
						c1,0.3,3.1,0.7,5.4,0.5c1.6-0.1,3.1-0.4,3.9-0.7l0.1-1.2c0.8,0.1,2.2,0.3,2.3,1.4c0,0.3-0.1,0.6-0.3,0.9
						c-0.9,1-4.3,1.5-5.9,1.6C81.4,312.1,81.1,312.1,80.7,312.1z"/>
				</g>
			</g>
			<g>
				<path class="st6" d="M236.7,337.7c-1.6,0-3.2,0-4.7,0c-28.7-0.3-52.2-3.3-66.2-5.2c-36.9-4.8-58.2-8.6-71-10.9
					c-6.2-1.1-10.6-1.9-13.9-2.3l-0.1,0c-4.7-0.5-5.7-0.9-5.7-2.1c0-1,1.2-1.2,1.6-1.4l0.2,0.8c0.3,0.1,1.3,0.4,4.1,0.7l0.1,0
					c3.4,0.4,7.8,1.2,14,2.3c12.7,2.3,34.1,6.1,70.9,10.8c14,1.8,37.4,4.8,66,5.1c54.2,0.6,113-9,144.5-14.2
					c13.7-2.2,22.8-3.7,25.6-3.5c1.4,0.1,4-0.2,9.1-0.9c1-0.1,1.6-0.3,1.9-0.4l1.2-1.5c0.8,0.6,1.1,1.2,1,1.9
					c-0.2,1.4-2.1,1.8-3.9,2c-5.2,0.7-7.9,1.1-9.5,0.9c-2.6-0.2-12,1.3-25.1,3.5C346.1,328.5,289.7,337.7,236.7,337.7z M76.8,316.8
					l0.2,0.7c0,0,0-0.1,0-0.2C77,317.1,76.9,316.9,76.8,316.8z"/>
			</g>
			<g>
				<path class="st7" d="M123.1,331.9c-2.2,3.2-4.4,6.4-6.6,9.6C108,347.8,99.5,354,91,360.3c6.5-7.8,13.1-15.6,19.6-23.4
					c0.6-0.1,1.3-0.2,1.8-0.3C115.8,335.2,119.7,333.4,123.1,331.9z"/>
				<path class="st6" d="M110.7,336.8c-6.6,7.8-13.1,15.7-19.7,23.5c-2.2,1.6-4.4,3.3-6.6,4.9c-4.4,12.1-8.7,24.1-13.1,36.2
					c1.1-15.3,2.2-30.7,3.3-46c2.3-5.5,4.6-11,6.9-16.5C91.3,338.2,101,337.5,110.7,336.8z"/>
				<path class="st7" d="M71.4,401.4c-0.5,1.4-1,2.8-1.5,4.2c0.8,7.1,1.5,14.3,2.3,21.4H41.9c1-19.3,2.1-38.7,3.1-58
					c4.9-7.5,9.8-15.1,14.6-22.6c0.2,0,0.4-0.1,0.6-0.1c-1.9-1.8-3.9-3.5-5.9-5.3c9.1-0.7,18.2-1.3,27.3-2c-2.3,5.5-4.6,11-6.9,16.5
					C73.6,370.8,72.5,386.1,71.4,401.4z"/>
				<path class="st6" d="M59.6,346.4c-4.9,7.5-9.8,15.1-14.6,22.6c-1,19.3-2,38.7-3.1,58h-8.5c0.3-24.9,0.5-49.8,0.8-74.7
					C42.7,350.4,51.1,348.4,59.6,346.4z"/>
			</g>
			<g>
				<path class="st8" d="M87.2,300.8L87.2,300.8c-1.8,0.8-3.7,1.6-5.5,2.3c-2-0.2-3.9-0.5-5.9-0.7c1-0.9,2.1-1.8,3.1-2.6
					C81.6,300.1,84.4,300.5,87.2,300.8z"/>
			</g>
			<g>
				<g>
					<path class="st6" d="M409.9,326.2c-1.1,0-2.7-0.2-4.1-1.3c-0.4-0.3-1.4-1.2-1.1-2.3c0.2-0.6,0.7-1,1.6-1.2l0.4,1.7
						c0-0.1,0-0.2,0-0.2c0,0.1,0.1,0.2,0.5,0.5c1.3,1.1,3.5,0.8,3.5,0.8c1.2-0.2,2.2-0.7,2.8-1.2l0.1-1.8c0.6,0,2,0.1,2.3,1.2
						c0.1,0.3,0.1,0.7-0.2,1.3c-0.7,1.1-2.8,2.2-4.6,2.5C410.8,326.2,410.4,326.2,409.9,326.2z"/>
				</g>
			</g>
			<g>
				<g>
					<path class="st6" d="M409.3,314.2c-2.7,0-5.5-0.6-6.2-1.3c-0.2-0.2-0.4-0.6-0.3-0.9c0.1-1,1.3-1.2,2.1-1.3l0.1,0.9
						c1,0.3,3.1,0.7,5.4,0.5c1.6-0.1,3.1-0.4,3.9-0.7l0.1-1.2c0.8,0.1,2.2,0.3,2.3,1.4c0,0.3-0.1,0.6-0.3,0.9
						c-0.9,1-4.3,1.5-5.9,1.6C410,314.2,409.7,314.2,409.3,314.2z"/>
				</g>
			</g>
		</g>
	</g>
	<g>
		<g>
			<g>
				<path class="st9" d="M180.8,238.8c1,0.1,1.9,0.4,2.9,0.6l1.1,3.6c-1.6,0-2.6,0.9-4.1,2.8c-0.3,0.2-0.6,0.3-0.9,0.4
					c-0.8,0.3-1.9,0.4-3.5,1.1c-0.2,0.1-0.4,0-0.4-0.2c-0.1-1.5,2-1.7,3.1-2.5c-0.4,0.1-0.6,0.2-1.3,0.3c-1.8,0.3-2.8,0.5-3.1,0.6
					c-1.5,0.4-2.3,0.7-2.6,0.3c-0.2-0.2-0.2-0.4-0.1-0.6c-0.1,0-0.4-0.1-0.5-0.4c-0.1-0.3,0-0.7,0.5-1.1c-0.1-0.1-0.2-0.3-0.1-0.5
					c0.1-0.8,0.9-1.2,1-1.3c0-0.1,0.1-0.2,0.2-0.3c0.3-0.3,0.6-0.5,0.7-0.6c1.3-0.7,2-0.9,2-0.9c0.8-0.2,1.5-0.4,2.2-0.6
					C179.2,239.2,180.3,238.9,180.8,238.8z"/>
				<path class="st10" d="M173,241.8c1.1-0.8,2.9-1.4,4.4-1.5c-0.8,0.1-1.8,0.4-2.8,0.8c-0.7,0.3-1.3,0.6-1.8,0.9L173,241.8z"/>
				<path class="st10" d="M172,243.8c1.3-1.4,4.5-2.4,6.4-2.1c-0.9,0.1-2.1,0.2-3.4,0.7C173.7,242.8,172.7,243.3,172,243.8z"/>
				<path class="st10" d="M171.9,245.3c1.3-1.3,4.5-2.2,6.3-2.2c-1.2,0.2-2.6,0.5-4.2,1.1C173.2,244.6,172.5,244.9,171.9,245.3z"/>
			</g>
			<path class="st11" d="M185.5,243.8c-1.3-0.8-2.1-4.5-1.3-5.7c0.3-2.2,2.7-3.4,6.4-4.2c5.2-1.2,5.9-0.5,14.1-2.1
				c4.1-0.8,9-2.2,13.6-1.8c0.4,0,1,0.1,2.2,0.3c2.8,0.4,5.7,1,6.9,2.2c2.1,1.9,1.4,6.9-1.2,12c-1-0.4-2.6-1-4.5-1.4
				c-7.8-1.8-13.3,0-20.8,0.7C197.2,244.2,192,244.5,185.5,243.8z"/>
			<path class="st11" d="M181.6,247.3c0,0-5-9.2-2.9-11.2c1.1-1,5.4,1.9,5.4,1.9l1.3,5.7L181.6,247.3z"/>
		</g>
		<g>
			<g>
				<path class="st9" d="M290.7,238.9c-1,0.1-1.9,0.4-2.9,0.6l-1.1,3.6c1.6,0,2.6,0.9,4.1,2.8c0.3,0.2,0.6,0.3,0.9,0.4
					c0.8,0.3,1.9,0.4,3.5,1.1c0.2,0.1,0.4,0,0.4-0.2c0.1-1.5-2-1.7-3.1-2.5c0.4,0.1,0.6,0.2,1.3,0.3c1.8,0.3,2.8,0.5,3.1,0.6
					c1.5,0.4,2.3,0.7,2.6,0.3c0.2-0.2,0.2-0.4,0.1-0.6c0.1,0,0.4-0.1,0.5-0.4c0.1-0.3,0-0.7-0.5-1.1c0.1-0.1,0.2-0.3,0.1-0.5
					c-0.1-0.8-0.9-1.2-1-1.3c0-0.1-0.1-0.2-0.2-0.3c-0.3-0.3-0.6-0.5-0.7-0.6c-1.3-0.7-2-0.9-2-0.9c-0.8-0.2-1.5-0.4-2.2-0.6
					C292.2,239.3,291.2,239,290.7,238.9z"/>
				<path class="st10" d="M298.5,241.9c-1.1-0.8-2.9-1.4-4.4-1.5c0.8,0.1,1.8,0.4,2.8,0.8c0.7,0.3,1.3,0.6,1.8,0.9L298.5,241.9z"/>
				<path class="st10" d="M299.5,243.9c-1.3-1.4-4.5-2.4-6.4-2.1c0.9,0.1,2.1,0.2,3.4,0.7C297.8,242.9,298.8,243.5,299.5,243.9z"/>
				<path class="st10" d="M299.6,245.4c-1.3-1.3-4.5-2.2-6.3-2.2c1.2,0.2,2.6,0.5,4.2,1.1C298.2,244.7,298.9,245,299.6,245.4z"/>
			</g>
			<path class="st11" d="M286,243.9c1.3-0.8,2.1-4.5,1.3-5.7c-0.3-2.2-2.7-3.4-6.4-4.2c-5.2-1.2-5.9-0.5-14.1-2.1
				c-4.1-0.8-9-2.2-13.6-1.8c-0.4,0-1,0.1-2.2,0.3c-2.8,0.4-5.7,1-6.9,2.2c-2.1,1.9-1.4,6.9,1.2,12c1-0.4,2.6-1,4.5-1.4
				c7.8-1.8,13.3,0,20.8,0.7C274.2,244.4,279.5,244.6,286,243.9z"/>
			<path class="st11" d="M289.8,247.5c0,0,5-9.2,2.9-11.2c-1.1-1-5.4,1.9-5.4,1.9l-1.3,5.7L289.8,247.5z"/>
		</g>
		<g>
			<g>
				<g>
					<path class="st9" d="M246,304.2c1.1,3.2,1.3,6,0.9,8.6c-0.9,5.5-4.2,9.5-5.6,14.9c0,1.8,0,3.2,0.1,4.3c0.2,3.6,0.7,5.7-0.4,6.5
						c-0.3,0.2-0.7,0.3-1.1,0.3c-1,0.1-1.9-0.4-2.4-0.8c-1.4-1.2-1.1-3.6-1-5.8c0.1-1.3,0.1-2.4,0.3-3.1c-0.7-0.7-0.1-1.4,0.2-1.7
						c2.2-11.8-0.5-12.2,0.2-17.6c0.3-2.7,1.9-4.4,1.9-7.1c-0.2-2-2.4-5.7-1.2-9.5c-1.6-4.3-0.5-8.8-1.2-14c-0.2-1.7-0.7-3.7-1-5.3
						c-0.4,1.6-0.8,3.6-1,5.3c-0.7,5.2,0.4,9.7-1.2,14c1.1,3.7-1.1,7.5-1.2,9.5c0,2.7,1.6,4.4,1.9,7.1c0.7,5.5-2.1,5.8,0.2,17.6
						c0.3,0.3,0.9,1,0.2,1.7c0.2,0.8,0.2,1.8,0.3,3c0.1,1.6,0.2,3,0.1,4c-0.3,1.9-2.4,3.7-3.6,3.4c-1.5-0.4-1.6-4.2-1.6-4.5
						c0-1.4,0.3-1.8,0.4-3.7c0.1-1.5,0-2.7,0-3.5c-1.4-5.3-4.7-9.4-5.6-14.9c-0.4-2.6-0.1-5.4,0.9-8.6c3.7-11-5.2-17.3-2-30.8
						l12.3,0.3l12.3-0.3C251.2,286.9,242.3,293.2,246,304.2z"/>
					<g>
						<path class="st10" d="M227.6,230c1.3-1.1,5.2-0.7,6.7,0.3L227.6,230z"/>
						<path class="st10" d="M243.9,230c-1.3-1.1-5.2-0.7-6.7,0.3L243.9,230z"/>
					</g>
					<path class="st12" d="M248.2,274c-0.5-3.5-1.2-8.5-2.9-12.1c-3.6,0.4-15.3,0.4-18.9,0c-1.7,3.6-2.4,8.6-2.9,12.1
						c3.9,0.4,8.7,0.3,12.4,0.3C239.4,274.3,244.3,274.4,248.2,274z"/>
					<g>
						<g>
							<polygon class="st9" points="239.8,229.1 232,229.1 232.1,228.4 232.2,227 232.2,227 232.6,223.7 232.8,221.2 239,221.2 
								239.2,223.6 239.5,226.8 239.6,227 239.7,228.4 							"/>
							<path class="st10" d="M239.2,223.6c-0.7,0.5-1.3,0.9-1.8,1.1c-0.1,0.1-0.3,0.1-0.4,0.1c-0.4,0-0.7,0-1.1,0
								c-0.4,0-0.8,0-1.2,0c-0.2,0-0.3,0-0.4-0.1c-0.5-0.2-1.1-0.5-1.7-1l0.3-2.5h6.2L239.2,223.6z"/>
						</g>
						<g>
							<path class="st9" d="M241.3,215.2c1.8-0.8,1.1,1.9,0.8,2.9c-0.1,0.4-0.3,1.3-1,1.2L241.3,215.2z"/>
							<path class="st9" d="M230.3,215.2c-1.8-0.8-1.1,1.9-0.8,2.9c0.1,0.4,0.3,1.3,1,1.2L230.3,215.2z"/>
						</g>
						<path class="st9" d="M241.4,215.7c-0.1,1.1-0.1,2.2-0.1,3.1c-0.1,0.5-0.2,1.2-0.6,2c-0.1,0.3-0.5,1-1.1,1.7
							c-0.8,0.8-1.6,1.3-2.3,1.6c-0.1,0.1-0.3,0.1-0.4,0.1c-0.3,0-0.7,0-1,0c-0.3,0-0.7,0-1,0c-0.1,0-0.3,0-0.4-0.1
							c-0.6-0.3-1.5-0.7-2.3-1.6c-0.7-0.7-1-1.4-1.1-1.7c-0.4-0.8-0.5-1.5-0.6-2c0-0.9-0.1-2-0.1-3.1c-0.4-1.9,0.2-4.5,0.9-5.7
							c0.6-0.8,2.9-0.3,4.6-0.3c1.7,0,4-0.5,4.6,0.3C241.2,211.2,241.8,213.7,241.4,215.7z"/>
						<g>
							<path class="st11" d="M234.4,216.2c-0.2,0.1-0.7,0.3-1.2,0.3c-0.8,0-1.3-0.4-1.5-0.5c0.3-0.2,0.6-0.4,0.9-0.5
								c0.3-0.1,0.6-0.1,1,0c0.1,0,0.1,0.1,0.2,0.1C234.1,215.8,234.3,216.1,234.4,216.2z"/>
							<path class="st13" d="M233.9,215.9c0,0.3-0.4,0.6-0.8,0.5c-0.4,0-0.7-0.4-0.6-0.7c0-0.1,0.1-0.2,0.2-0.3c0.3-0.1,0.6-0.1,1,0
								c0.1,0,0.1,0.1,0.2,0.1C233.8,215.7,233.9,215.8,233.9,215.9z"/>
							<path d="M232.8,215.8c0,0.2,0.2,0.4,0.4,0.4c0.2,0,0.4-0.2,0.4-0.4c0-0.2-0.2-0.4-0.4-0.4C233,215.4,232.8,215.6,232.8,215.8
								z"/>
							<path class="st11" d="M232.7,215.7c0,0.1,0.1,0.1,0.1,0.1c0.1,0,0.1-0.1,0.1-0.1c0-0.1-0.1-0.1-0.1-0.1
								C232.7,215.6,232.7,215.7,232.7,215.7z"/>
							<path class="st14" d="M234.7,213.9c-0.9-0.2-2-0.3-3-0.2c-0.2,0-0.5,0.2-0.6,0.5c-0.1,0.2,0,0.4,0,0.5
								c0.1-0.1,0.3-0.2,0.6-0.3c0.3-0.1,0.7-0.1,1.5-0.1c0.4,0,0.9,0.1,1.5,0.2c0-0.1,0-0.1,0-0.2
								C234.7,214.2,234.7,214,234.7,213.9z"/>
							<path class="st14" d="M234.4,216.2c-0.1-0.1-0.6-0.6-1.3-0.7c-0.7-0.1-1.2,0.3-1.3,0.4c0,0,0.6-0.7,1.4-0.6
								C234,215.4,234.4,216.2,234.4,216.2z"/>
						</g>
						<g>
							<path class="st11" d="M237.3,216.2c0.2,0.1,0.7,0.3,1.2,0.3c0.8,0,1.3-0.4,1.5-0.5c-0.3-0.2-0.6-0.4-0.9-0.5
								c-0.3-0.1-0.6-0.1-1,0c-0.1,0-0.1,0.1-0.2,0.1C237.5,215.8,237.3,216.1,237.3,216.2z"/>
							<path class="st13" d="M237.8,215.9c0,0.3,0.4,0.6,0.8,0.5c0.4,0,0.7-0.4,0.6-0.7c0-0.1-0.1-0.2-0.2-0.3c-0.3-0.1-0.6-0.1-1,0
								c-0.1,0-0.1,0.1-0.2,0.1C237.8,215.7,237.8,215.8,237.8,215.9z"/>
							<path d="M238.8,215.8c0,0.2-0.2,0.4-0.4,0.4c-0.2,0-0.4-0.2-0.4-0.4c0-0.2,0.2-0.4,0.4-0.4
								C238.7,215.4,238.8,215.6,238.8,215.8z"/>
							<path class="st11" d="M239,215.7c0,0.1-0.1,0.1-0.1,0.1c-0.1,0-0.1-0.1-0.1-0.1c0-0.1,0.1-0.1,0.1-0.1
								C238.9,215.6,239,215.7,239,215.7z"/>
							<path class="st14" d="M237,213.9c0.9-0.2,2-0.3,3-0.2c0.2,0,0.5,0.2,0.6,0.5c0.1,0.2,0,0.4,0,0.5c-0.1-0.1-0.3-0.2-0.6-0.3
								c-0.3-0.1-0.7-0.1-1.5-0.1c-0.4,0-0.9,0.1-1.5,0.2c0-0.1,0-0.1,0-0.2C237,214.2,237,214,237,213.9z"/>
							<path class="st14" d="M237.3,216.2c0.1-0.1,0.6-0.6,1.3-0.7c0.7-0.1,1.2,0.3,1.3,0.4c0,0-0.6-0.7-1.4-0.6
								C237.7,215.4,237.3,216.2,237.3,216.2z"/>
						</g>
						<path d="M241.8,208.3c-0.7-1.1-3.4-2.3-5.9-2.4c-2.6,0-5.2,1.2-5.9,2.4c-1.5,1.5-1.2,5.3-0.6,7c0,0,0.2-0.4,1-0.1
							c-0.2-1,0.1-4.2,1.1-5.4c1.1-0.3,2.5-0.1,4.4,0c1.9-0.1,3.3-0.3,4.4,0c1,1.2,1.3,4.4,1.1,5.4c0.8-0.3,1,0.1,1,0.1
							C243,213.6,243.2,209.8,241.8,208.3z"/>
						<g>
							<g>
								<path class="st10" d="M236.9,219.2l-0.5,0.3c-0.3,0.2-0.7,0.2-1,0l-0.5-0.3l0.9,0.1c0.1,0,0.2,0,0.3,0L236.9,219.2z"/>
							</g>
						</g>
						<g>
							<path class="st10" d="M237.2,221.3c-0.4,0.1-1.5,0.5-2.7,0c-0.2-0.1-0.7-0.3-0.7-0.4c0-0.1,0.8,0,2,0c1.3,0,2.1-0.1,2.2,0
								C238,221.1,237.3,221.3,237.2,221.3z"/>
						</g>
						<g>
							<path class="st10" d="M236.6,222.4c0,0.1-0.3,0.1-0.7,0.1c-0.4,0-0.7,0-0.7-0.1c0-0.1,0.3-0.1,0.7-0.1
								C236.3,222.3,236.6,222.4,236.6,222.4z"/>
						</g>
					</g>
				</g>
				<g>
					<polygon class="st14" points="236.1,220.1 236.1,220.6 238.7,220.6 					"/>
					<path class="st14" d="M235.6,220.1v0.5c-0.5,0-1,0-1.4,0c-0.4,0-0.8,0-1.2,0c0,0,1.3-0.2,1.3-0.2
						C234.3,220.3,235.6,220.1,235.6,220.1z"/>
				</g>
				<g>
					<g>
						<path d="M235.5,337.8c-0.2-0.8-0.3-1.5-0.3-2c0,0-0.1-2.4-0.3-3.7c0,0,0-0.1,0-0.1c-0.1,0,0,2.2-0.2,2.2c0,0,0,0-0.1-0.1
							c-0.4-0.7-4.1-0.6-4.3-0.2c0,0-0.1,0.1-0.1,0.1c-0.1,0-0.2-2.1-0.3-2.1c0,0,0,0,0,0c-0.1,0.2-0.3,1.6-0.8,3.5
							c-0.1,0.3-0.5,0.8-0.6,1.4c-0.1,0.4-0.2,0.8-0.2,1.2c-0.1,1.1,0.6,2.1,0.9,2.5c1,1.1,3.2,1.2,5.3-0.2c0.5-0.3,0.8-0.8,0.9-1.3
							c0,0,0,0,0,0C235.6,338.5,235.6,338.1,235.5,337.8z"/>
					</g>
					<path d="M247,262.2c-1.8-2-10.8,0-10.8,0h-0.6c0,0-8.9-2-10.8,0c-8.9,38.6,4.5,69.9,4.5,69.9h6.1l0.2-56.9h0.5l0.2,56.9h6.2
						C242.5,332.1,255.8,300.9,247,262.2z"/>
					<g>
						<polygon class="st15" points="247,262.2 224.8,262.2 226.7,255.1 245.1,255.1 						"/>
						<path class="st16" d="M227.6,307.2c-6.1-24.7-1.8-45-1.8-45h8.8C234.6,262.2,235.7,299,227.6,307.2z"/>
					</g>
					<g>
						<polygon points="242.8,209.8 228.9,209.8 229.7,204.8 242,204.8 						"/>
						<g>
							<path class="st15" d="M221.1,209.5l0.3-1.3c0,0,0.1,0,0.2,0l0,0c0.1,0,0.4,0.1,0.6,0.1l0,0c0.6,0.1,1.4,0.3,2.5,0.4l0,0
								c2.2,0.3,5.4,0.6,9.6,0.6l0,0c4.1,0,9.2-0.3,15-1.2l0,0l0.2,1.4c-5.9,0.9-11,1.2-15.2,1.2l0,0
								C226,210.7,221.2,209.5,221.1,209.5L221.1,209.5z"/>
						</g>
					</g>
					<g>
						<g>
							<path class="st11" d="M235.3,226.8c-0.9-0.9-4.5-0.6-4.5-0.6l-0.6,1.4l5.6,0.3C235.9,227.8,235.6,227,235.3,226.8z"/>
							<path class="st11" d="M236.2,226.8c0.9-0.9,4.5-0.6,4.5-0.6l0.7,1.4l-5.7,0.2C235.6,227.8,236,227,236.2,226.8z"/>
						</g>
						<polygon class="st11" points="226.2,255.1 235.9,255.1 235.9,227.8 230.3,227.5 229.4,227.8 223.6,239.4 						"/>
						<polygon class="st11" points="245.5,255.1 235.9,255.1 235.9,227.8 241.5,227.5 242.3,227.8 248.2,239.4 						"/>
						<rect x="235.5" y="228.1" class="st17" width="0.5" height="27"/>
					</g>
					<g>
						<polygon points="232.8,229.1 234.3,252.3 224.6,253.9 220.6,230.4 229.4,227.8 						"/>
						<polygon points="238.9,229.1 237.4,252.3 247.2,253.9 251.1,230.4 242.3,227.8 						"/>
					</g>
				</g>
			</g>
			<path class="st18" d="M228.4,337.7c0,0.3,0,1.5,0.8,2.4c0.5,0.5,1,0.6,1.2,0.7c0.7,0.2,1.4,0.1,1.9,0c0.6-0.1,1.4-0.2,2.1-0.9
				c0.4-0.3,0.6-0.7,0.7-0.9c0.2-0.4,0.4-0.7,0.5-0.9c0,0.5,0,0.9,0,1.4c-0.2,0.4-0.6,1-1.2,1.5c-1.3,1.1-3.5,1.4-4.9,0.2
				c-0.3-0.2-0.8-0.7-1.1-1.5c-0.1-0.3-0.1-0.7-0.1-1.2C228.3,338.2,228.3,337.9,228.4,337.7z"/>
			<g>
				<path d="M235.9,337.8c0.2-0.8,0.3-1.5,0.3-2c0,0,0.1-2.4,0.3-3.7c0,0,0-0.1,0-0.1c0.1,0,0,2.2,0.2,2.2c0,0,0,0,0.1-0.1
					c0.4-0.7,4.1-0.6,4.3-0.2c0,0,0.1,0.1,0.1,0.1c0.1,0,0.2-2.1,0.3-2.1c0,0,0,0,0,0c0.1,0.2,0.3,1.6,0.8,3.5
					c0.1,0.3,0.5,0.8,0.6,1.4c0.1,0.4,0.2,0.8,0.2,1.2c0.1,1.1-0.6,2.1-0.9,2.5c-1,1.1-3.2,1.2-5.3-0.2c-0.5-0.3-0.8-0.8-0.9-1.3
					c0,0,0,0,0,0C235.9,338.5,235.8,338.1,235.9,337.8z"/>
			</g>
			<path class="st18" d="M243.1,337.7c0,0.3,0,1.5-0.8,2.4c-0.5,0.5-1,0.6-1.2,0.7c-0.7,0.2-1.4,0.1-1.9,0c-0.6-0.1-1.4-0.2-2.1-0.9
				c-0.4-0.3-0.6-0.7-0.7-0.9c-0.2-0.4-0.4-0.7-0.5-0.9c0,0.5,0,0.9,0,1.4c0.2,0.4,0.6,1,1.2,1.5c1.3,1.1,3.5,1.4,4.9,0.2
				c0.3-0.2,0.8-0.7,1.1-1.5c0.1-0.3,0.1-0.7,0.1-1.2C243.2,338.2,243.2,337.9,243.1,337.7z"/>
		</g>
	</g>
</g>
</svg>
