<?xml version="1.0" encoding="utf-8"?>
<!-- Generator: Adobe Illustrator 26.0.1, SVG Export Plug-In . SVG Version: 6.00 Build 0)  -->
<svg version="1.1" id="Layer_1" xmlns="http://www.w3.org/2000/svg" xmlns:xlink="http://www.w3.org/1999/xlink" x="0px" y="0px"
	 viewBox="0 0 1202 824" style="enable-background:new 0 0 1202 824;" xml:space="preserve">
<style type="text/css">
	.st0{clip-path:url(#SVGID_00000157278857071758992970000002992929964492598425_);}
	.st1{fill:#F2D7B9;}
	.st2{fill:#E5C49D;}
	.st3{fill:#D8B182;}
	.st4{fill:#FFFFFF;}
	.st5{fill:#CE8757;}
	.st6{fill:#E09A61;}
	.st7{fill:#4D4D4D;}
	.st8{fill:#DC2428;}
	.st9{fill:#BD1F22;}
	.st10{fill:#474747;}
	.st11{fill:#FCA170;}
	.st12{fill:#17140C;}
	.st13{fill:#462F2E;}
	.st14{fill:#E09D6C;}
	.st15{fill:#E08373;}
	.st16{fill:#E2DCDC;}
	.st17{fill:#AFABAC;}
	.st18{fill:#A8A8A8;}
	.st19{fill:#D1CBCD;}
	.st20{fill:#DCD3C4;}
	.st21{fill:#F7F4F0;}
	.st22{fill:#717677;}
	.st23{fill:#682C1E;}
	.st24{fill:#6C7072;}
	.st25{fill:#C47947;}
	.st26{fill:#3B2314;}
	.st27{fill:#3A3A3A;}
	.st28{fill:#FAD4AF;}
	.st29{clip-path:url(#SVGID_00000157278857071758992970000002992929964492598425_);fill:#DC2428;}
	.st30{fill:#D38753;}
</style>
<g>
	<defs>
		<path id="SVGID_1_" d="M1168.4,544.1c-3.9,17.8-9,41.2-21.3,65.9c-5.4,10.9-12.2,22-21,33c-27.6,34.7-60.5,50.9-77.4,58.9
			c-276.5,132-602.9,57-602.9,57c-112.2-25.8-212.9-48.9-291-117.8c-15.8-13.9-30.6-29.7-44.5-47.7C45,508.4,2.9,374,51.3,321.4
			c50.5-54.9,163.7-8.7,236.7-75.6c9.5-8.7,16.5-21.3,20.6-40.2c21.1-97,101.4-191.1,247.7-160.8c187.7,39,167,149.3,259.1,141.1
			s249.8-70,278.3,46.9c28.5,117-105.1,217.3-20,209c34.7-3.4,75.1-9.2,94.2,11.8C1183.2,470.4,1177.7,501.5,1168.4,544.1z"/>
	</defs>
	<clipPath id="SVGID_00000179647446817381812020000002808389480339660976_">
		<use xlink:href="#SVGID_1_"  style="overflow:visible;"/>
	</clipPath>
	<g style="clip-path:url(#SVGID_00000179647446817381812020000002808389480339660976_);">
		<path class="st1" d="M1168.4,544.1c-3.9,17.8-9,41.2-21.3,65.9c-5.4,10.9-12.2,22-21,33c-27.6,34.7-60.5,50.9-77.4,58.9
			c-276.5,132-602.9,57-602.9,57c-112.2-25.8-212.9-48.9-291-117.8c-15.8-13.9-30.6-29.7-44.5-47.7C45,508.4,2.9,374,51.3,321.4
			c50.5-54.9,163.7-8.7,236.7-75.6c9.5-8.7,16.5-21.3,20.6-40.2c21.1-97,101.4-191.1,247.7-160.8c187.7,39,167,149.3,259.1,141.1
			s249.8-70,278.3,46.9c28.5,117-105.1,217.3-20,209c34.7-3.4,75.1-9.2,94.2,11.8C1183.2,470.4,1177.7,501.5,1168.4,544.1z"/>
		<g>
			<path class="st2" d="M54.5,507.8c36.5-35.8,51.1-41.6,96.2-32c24.6,5.3,56.2,2.9,74.3-16.7c12.4-13.5,10.8-33.5,28.2-40.7
				c21.8-9.1,54.9,6.1,74.4,15.9c24.1,12.1,50,26.8,77,14.9c37.1-16.5,37.3-64.6,82.2-67.8c28.9-2.1,52.6,12.7,76.2,28
				c11.3,7.3,24.3,22.1,38.6,21.7c29.9-0.7,46.4-43.8,74.8-51.2c51.3-13.4,95.2,20.2,136.7,45.9c11.7,7.2,27.9,18.3,42.4,17.4
				c22.1-1.4,28-26.4,45-36.7c39.2-23.7,67.5,12,101.1,23.5c27.1,9.3,47.9-10,70.6-21.8c34.8-18,76.9-20.8,114.5-8.4
				c28.1,9.2,38.7,36.1,40.5,63.5c1.8,27.4-5.7,54.1-11.5,80.6c-6.3,29-8.3,57.7-11.7,87.1c-1.8,15.4-0.5,23.3-13.9,30.9
				c-14.9,8.4-41,8-57.3,5.6c-32-4.7-62.3-14.4-94.8-16.9c-33.9-2.7-67.9-2.3-101.8-4.8c-48.8-3.6-96.8-13-145.8-15.9
				c-43.4-2.6-86.8-3.8-130.2-7.1c-54.6-4-110.6-2.7-165.2-1.1c-71.6,2.1-142.5,3.4-213.3,16.7c-53.1,10-119.7,40.4-174.2,16.4
				c-15.8-7-24.7-18.1-29.7-34.3C71.3,600,66,577.3,61.4,556.2c-2.7-12.4,1.2-46.1-8.4-54.3"/>
		</g>
		<path class="st3" d="M1147.1,610c-5.4,10.9-12.2,22-21,33c-27.6,34.7-60.5,50.9-77.4,58.9c-276.5,132-602.9,57-602.9,57
			c-112.2-25.8-212.9-48.9-291-117.8c58.9-44.4,316.4-76.3,536.1-76.3C854.5,564.8,1039.2,582.6,1147.1,610z"/>
		<g>
			<path class="st4" d="M337.6,485.8c-2.4-0.1-4.9-0.3-7.3-0.4c0,0.2,0.1,0.5,0.1,0.9c0,5.2-7.3,9.1-12.9,12
				c-8.4,4.3-12.6,6.5-15.8,5c-6-2.8-5.6-14.3-5.5-15c0.4-8.7,6-14.5,7.7-16.2c0.5-0.2,1-0.2,1.4-0.1c3,0.4,5.3,5.9,6,13.5
				c4.7-1.5,7.7-3.1,9.8-4.3c1.2-0.7,3.6-2.3,6-1.5c0.4,0.1,0.7,0.3,0.9,0.4c1.1-1.5,2.3-2.9,3.4-4.4c0.9,0.4,2.8,1.5,4.3,3.7
				C337.6,482,337.6,484.8,337.6,485.8z"/>
			<g>
				<g>
					<path class="st5" d="M289.2,463.1c-0.8,0.6-1.8,1.2-3.1,1.7c-1.2,0.5-2.2,0.9-3.1,1.1c-0.8,0-1.8-0.1-3-0.6
						c-2.3-0.9-3.6-2.5-4.1-3.3c0.2-0.6,0.4-0.8,0.4-0.9c0,0,0.1-0.2,0.2-0.4c0,0,0,0,0,0c0,0,0-0.1,0.1-0.1
						c0.3-0.6,0.4-1.7,0.5-2.8c0.1-1.8,0-3.7,0-3.7l12,0.4c0,0-0.1,1.4-0.3,3.6c0,0.6-0.1,1.3-0.2,2c0,0.3,0,0.5,0,0.8
						c0,0,0,0.3,0,0.5C288.7,462.1,289.1,462.9,289.2,463.1z"/>
				</g>
				<g>
					<g>
						<g>
							<path class="st6" d="M300.8,597.8c1.9,5.6,2.3,10.5,1.6,15c-1.5,9.5-7.3,16.6-9.8,26c0,3.1,0.1,5.7,0.2,7.4
								c0.4,6.3,1.2,10-0.6,11.3c-0.6,0.4-1.3,0.4-1.9,0.5c-1.8,0.1-3.4-0.7-4.2-1.4c-2.5-2.1-2-6.2-1.7-10c0.2-2.3,0.3-4.2,0.5-5.4
								c-1.2-1.2-0.2-2.4,0.4-3c3.9-20.6-0.9-21.3,0.3-30.8c0.6-4.7,3.4-7.7,3.4-12.4c-0.3-3.4-4.1-10-2.1-16.6
								c-2.8-7.5-0.8-15.4-2.1-24.4c-0.4-2.9-1.1-6.5-1.8-9.3c-0.7,2.8-1.4,6.4-1.8,9.3c-1.3,9.1,0.7,16.9-2.1,24.4
								c2,6.5-1.9,13.1-2.1,16.6c0,4.8,2.8,7.7,3.4,12.4c1.2,9.5-3.6,10.2,0.3,30.8c0.6,0.6,1.6,1.8,0.4,3c0.4,1.5,0.4,3.2,0.6,5.2
								c0.2,2.7,0.4,5.2,0.1,7c-0.5,3.4-4.2,6.5-6.3,5.9c-2.6-0.8-2.8-7.3-2.8-7.9c0-2.4,0.5-3.2,0.7-6.5c0.2-2.6,0.1-4.8-0.1-6.1
								c-2.5-9.3-8.2-16.4-9.8-26c-0.7-4.6-0.3-9.5,1.6-15c6.4-19.2-9-30.2-3.5-53.8l21.4,0.6l21.4-0.6
								C309.8,567.6,294.4,578.7,300.8,597.8z"/>
							<path class="st7" d="M304.6,545.2c-1-6.2-2.2-14.8-5.1-21.2c-6.3,0.7-26.7,0.7-33.1,0c-3,6.4-4.2,15.1-5.1,21.2
								c6.8,0.7,15.3,0.5,21.7,0.5C289.3,545.6,297.7,545.9,304.6,545.2z"/>
						</g>
						<g>
							<g>
								<path d="M282.5,656.5c-0.4-1.5-0.5-2.6-0.5-3.5c0,0-0.1-4.2-0.5-6.5c0,0,0-0.1,0-0.1c-0.1,0-0.1,3.8-0.4,3.8
									c0,0-0.1-0.1-0.1-0.1c-0.7-1.3-7.2-1-7.5-0.4c0,0-0.1,0.2-0.1,0.2c-0.2,0-0.3-3.7-0.5-3.7c0,0-0.1,0.1-0.1,0.1
									c-0.2,0.4-0.5,2.8-1.4,6c-0.2,0.6-0.9,1.4-1.1,2.4c-0.1,0.6-0.3,1.5-0.4,2.1c-0.1,1.9,1,3.7,1.6,4.3c1.7,1.9,5.6,2,9.2-0.3
									c0.8-0.5,1.4-1.3,1.6-2.3c0,0,0,0,0,0C282.6,657.8,282.7,657.1,282.5,656.5z"/>
							</g>
							<path d="M302.4,524.6c-3.2-3.4-18.8,0-18.8,0h-1.1c0,0-15.6-3.4-18.8,0c-15.5,67.4,7.9,122,7.9,122h10.6l0.3-99.4h0.9
								l0.3,99.4h10.8C294.6,646.7,317.9,592,302.4,524.6z"/>
							<g>
								<polygon class="st8" points="302.4,524.6 263.8,524.6 267,512.2 299.2,512.2 								"/>
								<path class="st9" d="M268.6,603.1c-10.7-43.1-3.1-78.5-3.1-78.5h15.3C280.8,524.6,282.8,588.9,268.6,603.1z"/>
							</g>
							<g>
								<g>
									<path class="st4" d="M282.6,462.6c-0.3-0.5-0.7-0.7-1.1-0.8c-2-0.8-5.2-0.9-6.1-1c-0.7,1.1-1.3,2.1-2,3.2
										c3.1,0.3,6.3,0.5,9.4,0.8C282.9,464.4,283.1,463.4,282.6,462.6z"/>
									<path class="st4" d="M283.6,463c0.8-0.8,1.8-1,3.6-1.3c0.8-0.1,1.5-0.2,2.1-0.2c0.4,0.8,0.8,1.6,1.3,2.4
										c-2.5,0.2-5.1,0.3-7.6,0.5C283,464,283.2,463.5,283.6,463z"/>
								</g>
								<path class="st4" d="M266.3,512.2h16.8v-47.7l-9.7-0.4c-4.7,1.4-9.5,2.7-14.2,4.1c0.8,5.6,1.7,11.1,2.5,16.7L266.3,512.2z"
									/>
								<path class="st4" d="M303.8,472c-1.2,12.5-2.4,25.1-3.7,37.6c-0.1,0.8-0.2,1.7-0.2,2.5h-16.8v-47.7c2.5-0.2,5-0.4,7.4-0.5
									c0.7,0.4,1.4,0.8,2.2,1.2c2.2,1.2,4.4,2.4,6.7,3.7C300.9,469.9,302.4,470.9,303.8,472z"/>
							</g>
						</g>
					</g>
					<path class="st10" d="M270,656.3c0,0.5,0,2.6,1.5,4.2c0.8,0.8,1.7,1.1,2.1,1.3c1.3,0.4,2.4,0.2,3.3,0.1c1-0.2,2.4-0.4,3.6-1.5
						c0.6-0.6,1.1-1.3,1.3-1.5c0.4-0.6,0.7-1.2,0.8-1.6c0,0.8-0.1,1.6-0.1,2.5c-0.4,0.7-1,1.7-2.1,2.6c-2.3,1.8-6,2.4-8.5,0.4
						c-0.5-0.4-1.3-1.2-1.9-2.7c-0.1-0.5-0.3-1.3-0.2-2.2C269.8,657.2,269.9,656.7,270,656.3z"/>
					<g>
						<path d="M283.2,656.5c0.4-1.5,0.5-2.6,0.5-3.5c0,0,0.1-4.2,0.5-6.5c0,0,0-0.1,0-0.1c0.1,0,0.1,3.8,0.4,3.8
							c0,0,0.1-0.1,0.1-0.1c0.7-1.3,7.2-1,7.5-0.4c0,0,0.1,0.2,0.1,0.2c0.2,0,0.3-3.7,0.5-3.7c0,0,0.1,0.1,0.1,0.1
							c0.2,0.4,0.5,2.8,1.4,6c0.2,0.6,0.9,1.4,1.1,2.4c0.1,0.6,0.3,1.5,0.4,2.1c0.1,1.9-1,3.7-1.6,4.3c-1.7,1.9-5.6,2-9.2-0.3
							c-0.8-0.5-1.4-1.3-1.6-2.3c0,0,0,0,0,0C283.1,657.8,283,657.1,283.2,656.5z"/>
					</g>
					<path class="st10" d="M295.7,656.3c0,0.5,0,2.6-1.5,4.2c-0.8,0.8-1.7,1.1-2.1,1.3c-1.3,0.4-2.4,0.2-3.3,0.1
						c-1-0.2-2.4-0.4-3.6-1.5c-0.6-0.6-1.1-1.3-1.3-1.5c-0.4-0.6-0.7-1.2-0.8-1.6c0,0.8,0.1,1.6,0.1,2.5c0.4,0.7,1,1.7,2.1,2.6
						c2.3,1.8,6,2.4,8.5,0.4c0.5-0.4,1.3-1.2,1.9-2.7c0.1-0.5,0.3-1.3,0.2-2.2C295.9,657.2,295.8,656.7,295.7,656.3z"/>
				</g>
				<g>
					<g>
						<g>
							<g>
								<g>
									<g>
										<path class="st11" d="M296.9,442.1c0.3-0.1,0.4-0.3,0.7-0.2c0.2,0.1,0.5,0.3,0.6,0.6c0.1,0.4,0.2,1.1,0,2
											c-0.1,0.3-0.4,1.4-0.6,1.8c-0.3,0.6-0.6,2.3-0.8,2.7c-0.2,0.4-0.6,1.7-0.9,2c-0.3,0.4-0.5,1-1.3,1c-0.3,0-0.5-0.1-0.5-0.1
											s-0.2-4.7-0.1-5.7c0.2-0.9,1.1-2.8,1.2-3.2S296.9,442.1,296.9,442.1z"/>
										<path class="st11" d="M271,440.9c-0.3-0.2-0.4-0.3-0.7-0.3c-0.2,0-0.5,0.2-0.7,0.5c-0.2,0.4-0.4,1.1-0.2,1.9
											c0,0.3,0.2,1.4,0.3,1.9c0.2,0.6,0.3,2.3,0.4,2.7s0.4,1.8,0.6,2.1s0.4,1,1.1,1.2c0.3,0.1,0.5,0,0.5,0s0.8-4.6,0.8-5.6
											c0-1-0.7-2.9-0.8-3.4C272.4,441.6,271,440.9,271,440.9z"/>
										<path class="st11" d="M282.3,463c-1.3-0.1-2.6-0.4-2.9-0.8c-0.2-0.2-2.4-2.2-3-2.8c-0.5-0.6-1.9-2.3-2.2-2.8
											c-0.3-0.5-0.7-1.2-1.1-1.8c-0.4-0.5-0.4-1.3-0.5-1.6c-0.1-0.3-0.2-1.5-0.1-1.9c0-0.4,0-2.3-0.1-3
											c-0.1-0.7-0.1-1.1-0.2-1.9c-0.1-0.8,0-2.2,0.1-2.8c0-0.4,0-1.3,0-1.3s-0.2-4.1-0.3-5.2c-0.1-1.1,1.4-6.2,2-7
											c0.5-0.8,3.7-1.7,8.1-2.1c1-0.1,1.9-0.1,2.8-0.1l0.2,0c1,0.1,2.1,0.3,3.4,0.7c4.2,1.1,7.2,2.5,7.6,3.4
											c0.4,0.8,1,6.1,0.8,7.2c-0.2,1.1-1.2,5.1-1.2,5.1s-0.1,0.9-0.2,1.3c-0.1,0.6-0.2,2-0.4,2.8c-0.2,0.7-0.3,1.2-0.5,1.8
											c-0.2,0.7-0.5,2.6-0.6,3s-0.3,1.5-0.5,1.8c-0.1,0.3-0.3,1.1-0.8,1.5c-0.4,0.5-1,1.1-1.3,1.6c-0.4,0.4-2,1.9-2.7,2.4
											c-0.7,0.5-3.2,2.2-3.4,2.3C284.9,463,283.6,463,282.3,463L282.3,463z"/>
										<path class="st12" d="M271.1,429c0.4-1.4,1.4-2.5,2.2-3.6c0.5-0.7,1.4-1.3,2.5-1.7c2.6-1.1,10.6-1.5,12.6-1.1
											c1.8,0.4,3.6,0.9,5.1,1.7c1.9,1.1,2.9,3.2,3.3,4.8c1.2,1,1.7,2.1,1.9,2.8c0.2,0.6,0.2,1-0.7,6.1c-0.2,0.9-0.4,2.2-0.9,3.8
											c-0.3,0.9-0.4,1.3-0.7,1.8c-0.3,0.5-0.8,1.4-1,1.9c-0.2,0.5-0.3,1.2-0.3,1.2c-0.1,0-0.3,0.1-0.4,0.1
											c0.2-2.4-0.3-4.3-1.1-5.7c-0.3-0.5-0.5-0.7-0.7-1.2c-0.8-1.9-0.2-3.9,0.4-5.4c-0.5,0.7-3.1,4-7.9,4.8
											c-4.7,0.7-8.1-1.5-8.8-2c0.8,0.1,1.9,0.2,3.1,0c0.7-0.1,1.2-0.3,1.7-0.4c-0.9,0.1-2.3,0.1-4-0.3c-0.9-0.3-1.7-0.6-2.3-0.9
											c0,0.2,0,0.5-0.1,0.9c-0.1,0.7-0.4,1.3-0.5,1.5c-0.4,0.9-0.8,1.8-1.1,2.7c-0.7,1.9-1,3.5-1,4.6c-0.1,0-0.3,0.1-0.4,0.1
											c0,0,0-0.7-0.1-1.3c-0.1-0.5-0.6-1.4-0.8-2c-0.2-0.6-0.5-1.6-0.5-1.9c0-0.3-0.2-1.5-0.3-2.4c-0.1-0.8-0.2-1.6-0.2-2.4
											c0-0.8,0.1-1.6,0.1-2.2c0.1-0.6,0.1-1.4,0.3-2C270.8,430.3,271,429.3,271.1,429z"/>
									</g>
								</g>
							</g>
							<g>
								<path class="st5" d="M281.8,454.1c0.9,0.4,1.7,0.4,2.6,0C283.9,455.1,282.3,455.1,281.8,454.1z"/>
								<path class="st5" d="M286.4,457.5c-1.2,0-2.5,0-4-0.1c-1.2-0.1-2.3-0.3-3.2-0.5c0.9-0.1,2.1-0.2,3.4-0.1
									C284.1,456.8,285.4,457.2,286.4,457.5z"/>
								<g>
									<path d="M280.8,446.6c-1.4,0-2.9-0.1-4.3-0.3c0,0,0.2,0,0.2,0l-2.2,0.2l1.9-1.2l0.1,0c1.5,0.1,3,0.2,4.5,0.5
										C280.9,445.8,280.8,446.6,280.8,446.6L280.8,446.6z"/>
								</g>
								<g>
									<path d="M286,446.1c1.3-0.1,3.2-0.2,4.5,0c0,0,1.7,1.4,1.7,1.4l-2.1-0.5l0.2,0c-0.7,0-1.4,0-2.2,0c-0.7,0-1.4-0.1-2.2-0.2
										L286,446.1L286,446.1z"/>
								</g>
								<g>
									<path class="st13" d="M275.8,449.7c1.1,0.8,2.7,0.8,3.8,0.1C278.7,451,276.7,451,275.8,449.7L275.8,449.7z"/>
								</g>
								<g>
									<path class="st13" d="M287.1,449.9c1.2,1,2.7,1,4,0.1C290.2,451.3,287.9,451.3,287.1,449.9L287.1,449.9z"/>
								</g>
							</g>
						</g>
					</g>
				</g>
			</g>
		</g>
		<path class="st14" d="M337.9,476.7c0,0.1,0.5,0.3,0.6,0.6c0.3,1.4-5.8,3.9-5.7,4.1c0.1,0.2,4.3-1.4,9.1-3.2
			C340.1,477.4,338,476.5,337.9,476.7z"/>
		<g>
			<path class="st15" d="M531.7,589.4"/>
			<g>
				<g>
					<g>
						<path class="st6" d="M550.4,546.6c1.9,5.6,2.3,10.5,1.6,15c-1.5,9.5-7.3,16.6-9.8,26c0,3.1,0.1,5.7,0.2,7.4
							c0.4,6.3,1.2,10-0.6,11.3c-0.6,0.4-1.3,0.4-1.9,0.5c-1.8,0.1-3.4-0.7-4.2-1.4c-2.5-2.1-2-6.2-1.7-10c0.2-2.3,0.3-4.2,0.5-5.4
							c-1.2-1.2-0.2-2.4,0.4-3c3.9-20.6-0.9-21.3,0.3-30.8c0.6-4.7,3.4-7.7,3.4-12.4c-0.3-3.4-4.1-10-2.1-16.6
							c-2.8-7.5-0.8-15.4-2.1-24.4c-0.4-2.9-1.1-6.5-1.8-9.3c-0.7,2.8-1.4,6.4-1.8,9.3c-1.3,9.1,0.7,16.9-2.1,24.4
							c2,6.5-1.9,13.1-2.1,16.6c0,4.8,2.8,7.7,3.4,12.4c1.2,9.5-3.6,10.2,0.3,30.8c0.6,0.6,1.6,1.8,0.4,3c0.4,1.5,0.4,3.2,0.6,5.2
							c0.2,2.7,0.4,5.2,0.1,7c-0.5,3.4-4.2,6.5-6.3,5.9c-2.6-0.8-2.8-7.3-2.8-7.9c0-2.4,0.5-3.2,0.7-6.5c0.2-2.6,0.1-4.8-0.1-6.1
							c-2.5-9.3-8.2-16.4-9.8-26c-0.7-4.6-0.3-9.5,1.6-15c6.4-19.2-9-30.2-3.5-53.8l21.4,0.6l21.4-0.6
							C559.4,516.4,544,527.5,550.4,546.6z"/>
						<path class="st7" d="M554.2,494c-1-6.2-2.2-14.8-5.1-21.2c-6.3,0.7-26.7,0.7-33.1,0c-3,6.4-4.2,15.1-5.1,21.2
							c6.8,0.7,15.3,0.5,21.7,0.5C538.9,494.4,547.3,494.7,554.2,494z"/>
					</g>
					<g>
						<g>
							<path d="M532.1,605.3c-0.4-1.5-0.5-2.6-0.5-3.5c0,0-0.1-4.2-0.5-6.5c0,0,0-0.1,0-0.1c-0.1,0-0.1,3.8-0.4,3.8
								c0,0-0.1-0.1-0.1-0.1c-0.7-1.3-7.2-1-7.5-0.4c0,0-0.1,0.2-0.1,0.2c-0.2,0-0.3-3.7-0.5-3.7c0,0-0.1,0.1-0.1,0.1
								c-0.2,0.4-0.5,2.8-1.4,6c-0.2,0.6-0.9,1.4-1.1,2.4c-0.1,0.6-0.3,1.5-0.4,2.1c-0.1,1.9,1,3.7,1.6,4.3c1.7,1.9,5.6,2,9.2-0.3
								c0.8-0.5,1.4-1.3,1.6-2.3c0,0,0,0,0,0C532.2,606.6,532.2,605.9,532.1,605.3z"/>
						</g>
						<path d="M552,473.4c-3.2-3.4-18.8,0-18.8,0h-1.1c0,0-15.6-3.4-18.8,0c-15.5,67.4,7.9,122,7.9,122h10.6l0.3-99.4h0.9l0.3,99.4
							h10.8C544.2,595.5,567.5,540.8,552,473.4z"/>
						<g>
							<polygon class="st8" points="552,473.4 513.4,473.4 516.6,461 548.8,461 							"/>
							<path class="st9" d="M518.2,551.9c-10.7-43.1-3.1-78.5-3.1-78.5h15.3C530.4,473.4,532.4,537.7,518.2,551.9z"/>
						</g>
						<g>
							<g>
								<path class="st4" d="M532.2,411.4c-0.3-0.5-0.7-0.7-1.1-0.8c-2-0.8-5.2-0.9-6.1-1c-0.7,1.1-1.3,2.1-2,3.2
									c3.1,0.3,6.3,0.5,9.4,0.8C532.5,413.2,532.7,412.2,532.2,411.4z"/>
								<path class="st4" d="M533.2,411.8c0.8-0.8,1.8-1,3.6-1.3c0.8-0.1,1.5-0.2,2.1-0.2c0.4,0.8,0.8,1.6,1.3,2.4
									c-2.5,0.2-5.1,0.3-7.6,0.5C532.6,412.8,532.8,412.3,533.2,411.8z"/>
							</g>
							<polygon class="st4" points="515.9,461 532.7,461 532.7,413.2 523,412.8 521.4,413.3 511.3,433.6 							"/>
							<path class="st4" d="M553.4,420.8c-1.2,12.5-2.4,25.1-3.7,37.6c-0.1,0.8-0.2,1.7-0.2,2.5h-16.8v-47.7c2.5-0.2,5-0.4,7.4-0.5
								c0.7,0.4,1.4,0.8,2.2,1.2c2.2,1.2,4.4,2.4,6.7,3.7C550.5,418.7,551.9,419.7,553.4,420.8z"/>
							<rect x="531.9" y="413.9" class="st16" width="0.8" height="47.1"/>
						</g>
						<g>
							<polygon points="527.4,415.6 530,456 513,458.9 506.1,417.9 521.4,413.3 							"/>
							<path d="M553.4,420.8c-1.2,12.5-2.4,25.1-3.7,37.6l-14.4-2.5l2.6-40.4l4.3-1.6c2.2,1.2,4.4,2.4,6.7,3.7
								C550.5,418.7,551.9,419.7,553.4,420.8z"/>
						</g>
					</g>
				</g>
				<path class="st10" d="M519.6,605.1c0,0.5,0,2.6,1.5,4.2c0.8,0.8,1.7,1.1,2.1,1.3c1.3,0.4,2.4,0.2,3.3,0.1c1-0.2,2.4-0.4,3.6-1.5
					c0.6-0.6,1.1-1.3,1.3-1.5c0.4-0.6,0.7-1.2,0.8-1.6c0,0.8-0.1,1.6-0.1,2.5c-0.4,0.7-1,1.7-2.1,2.6c-2.3,1.8-6,2.4-8.5,0.4
					c-0.5-0.4-1.3-1.2-1.9-2.7c-0.1-0.5-0.3-1.3-0.2-2.2C519.4,606,519.5,605.5,519.6,605.1z"/>
				<g>
					<path d="M532.8,605.3c0.4-1.5,0.5-2.6,0.5-3.5c0,0,0.1-4.2,0.5-6.5c0,0,0-0.1,0-0.1c0.1,0,0.1,3.8,0.4,3.8c0,0,0.1-0.1,0.1-0.1
						c0.7-1.3,7.2-1,7.5-0.4c0,0,0.1,0.2,0.1,0.2c0.2,0,0.3-3.7,0.5-3.7c0,0,0.1,0.1,0.1,0.1c0.2,0.4,0.5,2.8,1.4,6
						c0.2,0.6,0.9,1.4,1.1,2.4c0.1,0.6,0.3,1.5,0.4,2.1c0.1,1.9-1,3.7-1.6,4.3c-1.7,1.9-5.6,2-9.2-0.3c-0.8-0.5-1.4-1.3-1.6-2.3
						c0,0,0,0,0,0C532.7,606.6,532.6,605.9,532.8,605.3z"/>
				</g>
				<path class="st10" d="M545.3,605.1c0,0.5,0,2.6-1.5,4.2c-0.8,0.8-1.7,1.1-2.1,1.3c-1.3,0.4-2.4,0.2-3.3,0.1
					c-1-0.2-2.4-0.4-3.6-1.5c-0.6-0.6-1.1-1.3-1.3-1.5c-0.4-0.6-0.7-1.2-0.8-1.6c0,0.8,0.1,1.6,0.1,2.5c0.4,0.7,1,1.7,2.1,2.6
					c2.3,1.8,6,2.4,8.5,0.4c0.5-0.4,1.3-1.2,1.9-2.7c0.1-0.5,0.3-1.3,0.2-2.2C545.5,606,545.4,605.5,545.3,605.1z"/>
			</g>
		</g>
		<g>
			<g>
				<g>
					<g>
						<path class="st17" d="M609.5,389.6c-27.4,36.9-9.9,234.9-28.9,235.7c-7.7,0.3-17.1,1.6-25.6,1.3c0,0-0.1,0-0.1,0
							c-3.3-0.1-6.4-0.5-9.2-1.2c-1.8-0.5-3.4-1.1-4.9-1.9c-4.7-2.5-7.8-6.9-8.2-14.2c0-0.2,0-0.4,0-0.7c0-0.8,0-1.6,0-2.4
							c1.7-37.3-0.5-68-0.9-75.2c-0.2-4.4-1.4-9.8-3.1-17c-4.2-17.2-9.4-25.4-19.8-49.9c-5.4-12.7-8.1-19.1-9.3-23.5
							c-5.8-20-4.4-37.9-2.3-49.9C526.1,368.6,576.3,384.5,609.5,389.6z"/>
						<g>
							<path class="st18" d="M561.4,624.5c0,0.6-0.1,1.2-0.1,1.8c-2.1,0.1-4.3,0.3-6.4,0.3c0,0-0.1,0-0.1,0
								c-3.3-0.1-6.4-0.5-9.2-1.2c0-0.3,0-0.6,0-0.9c0-5.5,3.5-10,7.9-10C557.8,614.6,561.4,619,561.4,624.5z"/>
							<path class="st18" d="M541.9,620.6c-0.3,1.1-0.7,2-1.2,2.9c-4.7-2.5-7.8-6.9-8.2-14.2c0-0.2,0-0.4,0-0.7
								c1.8,0,3.7,0.1,4.5,0.3C541.2,610.1,543.4,615.3,541.9,620.6z"/>
							<path class="st18" d="M581.5,624.5c-0.1-5.4-3.6-9.8-7.9-9.8c-4.4,0-7.9,4.5-7.9,10c0,0.6,0.1,1.1,0.1,1.7
								c4.6-0.3,9.1-0.8,13.1-0.9C579.8,625.4,580.7,625.1,581.5,624.5z"/>
						</g>
					</g>
					<g>
						<path class="st17" d="M663.7,481.8c0,0,22,46.7,23.1,124.5c-1.2,26.7,29.1,20.5,48.1,19c20.2-1.6-1.7-126.1,25.7-163.1
							C742.7,447,663.7,481.8,663.7,481.8z"/>
						<g>
							<path class="st18" d="M720.2,626.3c0.1-0.6,0.1-1.2,0.1-1.8c0-5.5-3.5-10-7.9-10c-4.4,0-7.9,4.5-7.9,10
								c0,0.6,0.1,1.2,0.1,1.7C709.6,626.8,714.9,626.7,720.2,626.3z"/>
							<path class="st18" d="M696.5,608.9c-3.5-1-6.4,2.8-8.4,6.6c2.1,5.8,6.8,8.7,12.7,10.1c0.7-1,1.2-2.1,1.5-3.4
								C703.7,616.9,700.7,610,696.5,608.9z"/>
							<path class="st18" d="M737.4,624.3c-0.1-5.4-3.6-9.8-7.9-9.8c-4.4,0-7.9,4.5-7.9,10c0,0.6,0.1,1.1,0.1,1.7
								c4.6-0.3,9.1-0.8,13.1-0.9C735.8,625.2,736.7,624.9,737.4,624.3z"/>
						</g>
					</g>
					<g>
						<path class="st19" d="M853.4,430.3c-5.6,39.4-19.4,50.2-25.7,91.3c-2.1,13.8-13,85.8-12.8,94.8c0.1,2.9-1.6,5.8-4.1,7.4
							c-0.8,0.6-1.7,1-2.7,1.2c-3.6,0.8-8.1,1.7-12.8,2.2c-0.9,0.1-1.7,0.2-2.6,0.3c-0.5,0.1-0.9,0.1-1.4,0.1c-0.2,0-0.5,0-0.7,0
							c-1.8,0.1-3.7,0.2-5.5,0.2c0,0,0,0-0.1,0c0,0-0.1,0-0.1,0c0,0,0,0,0,0c-2.7,0-5.3-0.2-7.8-0.6c-1.1-0.2-2.2-0.4-3.3-0.7
							c-4.5-1.2-8.3-3.3-10.9-6.7c-0.8-1-1.4-2.1-1.9-3.1c-1.8-4-1.8-8.1-1.8-10.5c0.1-33.3,0.2-81.9-17.7-110.2
							c-3.6-5.6-7.2-20.2-6.1-35.1c0.3-3.8,3.6-26.8,12.1-39.6c0,0,103.5-54.7,106.7-31.6C855.3,398,855.2,417.8,853.4,430.3z"/>
						<g>
							<path class="st18" d="M792.9,625.8c0,0.6-0.1,1.2-0.1,1.8c0,0,0,0,0,0c-0.5,0-0.9,0.1-1.4,0.1c-0.2,0-0.5,0-0.7,0
								c-1.9,0.1-3.7,0.2-5.5,0.2c0,0,0,0-0.1,0c0,0-0.1,0-0.1,0c0,0,0,0,0,0c-2.7,0-5.3-0.2-7.8-0.6c-0.1-0.5-0.1-1-0.1-1.5
								c0-5.5,3.5-10,7.9-10C789.3,615.9,792.9,620.3,792.9,625.8z"/>
							<path class="st18" d="M774.7,624.3c-0.2,0.8-0.5,1.6-0.9,2.3c-4.5-1.2-8.3-3.3-10.9-6.7c-0.8-1-1.4-2.1-1.9-3.1
								c2.1-3.2,5.5-5,8.7-4.1C774,613.8,776.2,619,774.7,624.3z"/>
							<path class="st18" d="M810.9,623.9c-0.8,0.6-1.7,1-2.7,1.2c-3.6,0.8-8.1,1.7-12.8,2.2c-0.1-0.4-0.1-0.8-0.1-1.3
								c0-5.5,3.5-10,7.9-10C806.9,616.1,810.1,619.4,810.9,623.9z"/>
						</g>
					</g>
					<path class="st19" d="M854.2,393.3c0,91.6-121.3,99.2-121.3,99.2s-41.1,10.6-91.6,7.2c-1.4-0.1-2.9-0.2-4.3-0.3
						c-21.5-1.8-46.3-2.7-66.7-15.1c-45.5-27.6-44.6-53.1-48.2-85c-0.1-0.7-0.2-1.5-0.3-2.2c-0.1-0.9-0.2-1.8-0.3-2.6
						c-4.8-35.4-1.2-65.5,3.5-76c0.3-0.8,0.7-1.4,1-2c0.1-0.1,0.1-0.2,0.2-0.3c0.3-0.4,0.5-0.7,0.8-0.9c0.1-0.1,0.1-0.1,0.2-0.2
						c10.4-8.7,57.8-56.5,57.8-56.5s5.6,4,18.1,8.2c12.4,4.2,31.6,8.6,58.8,9.5c55.6,1.9,75.4,10.4,98.1,12.9
						c20.1,2.3,56.7,11.4,78.4,48.3c5.7,9.7,10.1,20.9,12.4,33.8C851.9,377.8,854.2,385.9,854.2,393.3z"/>
					<path class="st17" d="M609.5,304.9c0,55.5-52.6,83.2-87.4,94.4c-0.1-0.7-0.2-1.5-0.3-2.2c-0.1-0.9-0.2-1.8-0.3-2.6
						c-4.8-35.4-1.2-65.5,3.5-76c0.3-0.8,0.7-1.4,1-2c0.1-0.1,0.1-0.2,0.2-0.3c0.3-0.4,0.5-0.7,0.8-0.9c0.1-0.1,0.1-0.1,0.2-0.2
						c10.4-8.7,57.8-56.5,57.8-56.5s5.6,4,18.1,8.2C607.1,277.9,609.5,290.5,609.5,304.9z"/>
					<g>
						<path class="st19" d="M545.6,464.5c0,0,29.6,35.2,24.4,141.8c-1.3,26.7,29,19.8,48.1,19c7.5-0.3,7.2-11.8,8.6-22.6
							c4.6-37.2-3-44.4,0.2-69.1c2.9-22.4,10.1-24,16.3-59.8c1.8-10.1,2.7-18.6,3.2-24.2C612.7,454.4,579.1,459.4,545.6,464.5z"/>
						<g>
							<path class="st18" d="M603.4,626.3c0.1-0.6,0.1-1.2,0.1-1.8c0-5.5-3.5-10-7.9-10c-4.4,0-7.9,4.5-7.9,10
								c0,0.6,0.1,1.2,0.1,1.7C592.7,626.8,598.1,626.7,603.4,626.3z"/>
							<path class="st18" d="M580.3,610.5c-3.5-1-7.2,1.2-9.2,5c2.1,5.8,6.8,8.7,12.7,10.1c0.7-1,1.2-2.1,1.5-3.4
								C586.7,616.9,584.5,611.7,580.3,610.5z"/>
							<path class="st18" d="M620.6,624.3c-0.1-5.4-3.6-9.8-7.9-9.8c-4.4,0-7.9,4.5-7.9,10c0,0.6,0.1,1.1,0.1,1.7
								c4.6-0.3,9.1-0.8,13.1-0.9C619,625.2,619.8,624.9,620.6,624.3z"/>
						</g>
					</g>
				</g>
			</g>
			<g>
				<path class="st17" d="M415.2,201.5c-21.3,4-31.7,24-41.6,43.2c-5.2,10-18.4,35.7-10.4,62.8c2.5,8.3,5.3,11.2,12.6,23.1
					c30.8,50.1,39,93.5,48.8,91.7c0.7-0.1,1.3-0.3,2.2-1.3c14.3-15.4,27.1-60.6,27.1-60.6l16.4-131.9
					C456.1,209.1,434.8,197.9,415.2,201.5z"/>
				<path class="st20" d="M462,352.2c0.8,4.9-96.9,106.9-105.7,109c2.7-3.9,5.6-8,8.7-12.3c27.9-38.9,69.8-91.8,74.1-103.7
					c1-2.9,2.6-4.6,4.5-5.4C450.4,337,460.9,345.6,462,352.2z"/>
				<path class="st21" d="M455.6,352.2c0.6,3.9-60.8,69-90.6,96.7c27.9-38.9,69.8-91.8,74.1-103.7c1-2.9,2.6-4.6,4.5-5.4
					C449.2,341.7,454.8,347.5,455.6,352.2z"/>
				<g>
					<path class="st19" d="M575.1,297.9c-3.4,46.3-45.3,109.2-86,106.2c-40.4-3-58.3-81.3-61.5-117.1c-3.5-38.4,14.9-82,36.1-84.9
						c14.3-2,22,15.6,43.9,13.6c15.1-1.4,17.8-10.2,30.8-9.5c20.4,1.2,33.9,24,35.4,26.6C588.2,257.8,576,285.5,575.1,297.9z"/>
					<path class="st17" d="M497,394.7c-24.3,18-45.7,29.9-60.6,37.4c-46.2,23.2-72.7,25.4-105.9,51.9
						c-16.8,13.4-28.1,27.3-34.9,36.8c1.2,2.9,2.8,8.4,0.3,12.6c-4,6.7-17.2,6.7-24.7,3.7c-3.1-1.2-5.2-2.9-5.4-4.8
						c-0.5-5.3,9-11.3,9-11.3c0.3-1,0.9-2.7,1.6-4.7c22.2-60.4,88.5-72.1,133.6-109.6c21.7-18,47.2-49.3,61.7-107.1
						c0.7-2.7,1.3-5.4,1.9-8.2C481.3,325.9,489.1,360.3,497,394.7z"/>
					<path class="st19" d="M497,390.8c-3.5,2.6-7,5.1-10.6,7.6l-2,1.4c-14.3,9.8-28.3,18.3-39.7,24.6l-2.1,1.2
						c-3.8,2.1-7.3,3.9-10.4,5.5c-7.7,3.9-14.9,7.2-21.7,10.1c-0.8,0.3-1.5,0.7-2.3,1c-10.2,4.3-19.4,7.8-28.1,11.3l-2.3,0.9h0
						c-7.8,3.1-15.1,6.2-22.4,9.9c-0.7,0.4-1.5,0.8-2.2,1.1c-5.1,2.6-10.1,5.6-15.3,9c-0.7,0.5-1.5,1-2.2,1.5
						c-3.1,2.2-6.3,4.5-9.5,7.1c-2.4,1.9-4.7,3.9-6.9,5.8c-0.7,0.6-1.4,1.2-2,1.8c-5.1,4.6-9.6,9.2-13.4,13.5
						c-0.6,0.6-1.1,1.3-1.7,1.9c-4.5,5.1-8.1,9.8-10.9,13.7c1.2,2.9,2.8,8.4,0.3,12.6c-3.4,5.6-13.1,6.5-20.6,4.9
						c-3.1-1.2-5.2-2.9-5.4-4.8c-0.5-5.3,9-11.3,9-11.3c0.3-1,0.9-2.7,1.6-4.7c1.5-4.1,3.2-8,5.1-11.7c0.4-0.9,0.9-1.7,1.4-2.6
						c2.2-4,4.6-7.7,7.3-11.3c0.8-1.1,1.6-2.1,2.5-3.2c4.6-5.7,9.7-10.9,15.1-15.6c1.1-1,2.3-1.9,3.4-2.9c4.7-3.8,9.6-7.4,14.7-10.7
						c0,0,0,0,0,0c1.8-1.2,3.5-2.3,5.3-3.4c0,0,0,0,0,0c1.7-1.1,3.4-2.1,5.1-3.1c0.3-0.2,0.6-0.4,0.9-0.6c5.2-3.1,10.5-6.1,15.9-9
						c0,0,0,0,0,0h0c1.4-0.8,2.7-1.5,4.1-2.2h0c1.1-0.6,2.2-1.2,3.3-1.8c0.2-0.1,0.5-0.3,0.7-0.4c0,0,0,0,0,0c5.4-3,10.9-6,16.2-9.1
						c1.5-0.8,2.9-1.7,4.4-2.6c8-4.8,15.8-9.8,23.2-15.5c0,0,0,0,0,0c1.2-0.9,2.3-1.8,3.4-2.7l0,0c0.5-0.4,0.9-0.8,1.4-1.1
						c5.5-4.6,11.3-10.6,17.3-18.1c0.9-1.1,1.8-2.3,2.7-3.5c4.6-6,9.1-12.8,13.6-20.4v0c0.6-1.1,1.3-2.2,1.9-3.4
						c11.2-19.7,21.5-44.2,28.5-72.4c5.3,23.3,11.5,51,17.3,76.6v0l0.7,3C493.7,376.2,495.4,383.7,497,390.8z"/>
					<g>
						<g>
							<path class="st17" d="M304,504c-0.6,0.6-1.1,1.3-1.7,1.9c-8.6-2.3-15.8-2.1-20.9-1.2c0.4-0.9,0.9-1.7,1.4-2.6
								C288.2,501.4,295.4,501.5,304,504z"/>
						</g>
						<g>
							<path class="st17" d="M319.5,488.6c-0.7,0.6-1.4,1.2-2,1.8c-13.3-3.5-23.1-1.2-27.4,0.4c0.8-1.1,1.6-2.1,2.5-3.2
								C298.1,486.1,307.5,485.1,319.5,488.6z"/>
						</g>
						<g>
							<path class="st17" d="M338.1,474.2c-0.7,0.5-1.5,1-2.2,1.5c-12-5.5-21.7-5.2-28.3-3.7c1.1-1,2.3-1.9,3.4-2.9
								C318,468.3,327.3,469,338.1,474.2z"/>
						</g>
						<g>
							<path class="st17" d="M355.6,464c-0.7,0.4-1.5,0.8-2.2,1.1c-7.2-5.6-14.2-8.3-21-8c-2.4,0.1-4.6,0.6-6.5,1.2
								c1.8-1.2,3.5-2.3,5.3-3.4c0,0,0,0,0,0c0.3,0,0.7,0,1-0.1C339.9,454.6,347.7,457.7,355.6,464z"/>
						</g>
						<g>
							<path class="st22" d="M336.3,451.8c0.3-0.2,0.6-0.4,0.9-0.6c-0.4,0.5-0.6,0.8-0.6,0.8L336.3,451.8z"/>
							<path class="st17" d="M380.2,453.3l-2.3,0.9h0c-8.1-8.3-16-12.3-23.7-12c-0.4,0-0.7,0-1.1,0.1c1.4-0.8,2.7-1.5,4.1-2.2h0
								C364.8,440.7,372.5,445.1,380.2,453.3z"/>
						</g>
						<g>
							<path class="st22" d="M360.5,438.2l0.7-0.4c0,0,0,0,0,0c0,0,0,0,0,0c-0.3,0.3-0.5,0.6-0.5,0.6L360.5,438.2z"/>
							<path class="st17" d="M410.5,441c-0.8,0.3-1.5,0.7-2.3,1c-9.6-9.4-19-13.9-28.1-13.6c-0.9,0-1.9,0.1-2.7,0.3
								c-0.1,0-0.2,0-0.2,0l4.6-2.6C391.2,426.3,400.9,431.3,410.5,441z"/>
						</g>
						<g>
							<path class="st17" d="M444.7,424.3l-2.1,1.2c-11.4-10.6-22.7-15.7-33.5-15.3c-1.4,0.1-2.8,0.2-4.1,0.4
								c1.2-0.9,2.3-1.8,3.4-2.7l0,0c0.2,0,0.4,0,0.5,0C420.6,407.4,432.6,412.9,444.7,424.3z"/>
						</g>
						<g>
							<path class="st17" d="M486.4,398.3l-2,1.4c-16.3-12.1-32.8-16.9-47.9-14c-3.6,0.7-6.7,1.8-9.4,3c0.9-1.1,1.8-2.3,2.7-3.5
								c1.9-0.7,4-1.2,6.2-1.7C447.3,381.3,465,382.2,486.4,398.3z"/>
						</g>
						<g>
							<path class="st17" d="M491.9,368.6c-12.9-7.2-25.7-9.7-37.6-7.4c-4.3,0.8-7.9,2.2-10.9,3.6c0.6-1.1,1.3-2.2,1.9-3.4
								c2.5-1,5.3-1.9,8.4-2.5c8.9-1.8,21.8-1.6,37.5,6.6v0L491.9,368.6z"/>
						</g>
					</g>
				</g>
				<path class="st17" d="M619.5,212c-7.6-2.1-16-1-16-1c-4.4,0.5-8.1,1.7-11.7,3.4c-4.9,2.2-8.1,4.3-11.1,6.2
					c-4.3,2.7-10.7,6.3-19.3,9.8c5.8,11.4,12.4,28.2,13.7,49c3.7,56.2-33.2,96-41.3,104.2c13.7,9.9,29.6,23.1,45.4,40.5
					c11.8,13,21.3,25.6,28.8,37c-1.2-5.6-2.5-13.2-3.4-22.3c0,0-1.3-12.8-1.1-25c0.5-28,36.7-58.9,47.4-99.2
					C665.3,260.3,626.9,214,619.5,212z"/>
			</g>
			<g>
				<path class="st23" d="M509.2,301.4c0,6.8-2.7,12.3-6.1,12.3c-3.4,0-6.1-5.5-6.1-12.3c0-6.8,2.7-12.3,6.1-12.3
					C506.5,289,509.2,294.5,509.2,301.4z"/>
				<path class="st4" d="M511.4,292.4c0,2.8-2.3,5.1-5.1,5.1c-2.8,0-5.1-2.3-5.1-5.1c0-2.8,2.3-5.1,5.1-5.1
					C509.1,287.2,511.4,289.5,511.4,292.4z"/>
			</g>
			<g>
				<path class="st23" d="M444.4,293.3c0,6.8-2.7,12.3-6.1,12.3c-3.4,0-6.1-5.5-6.1-12.3c0-6.8,2.7-12.3,6.1-12.3
					C441.6,281,444.4,286.5,444.4,293.3z"/>
				<path class="st4" d="M446.5,284.4c0,2.8-2.3,5.1-5.1,5.1c-2.8,0-5.1-2.3-5.1-5.1c0-2.8,2.3-5.1,5.1-5.1
					C444.2,279.2,446.5,281.5,446.5,284.4z"/>
			</g>
			<path class="st17" d="M739.5,491.7c0,0-3.6,1-7.6,1c-1.8-13.6-2.3-26.5-1.2-36.3c0.8-7.8,1.9-19.9,10.3-32.7
				C741,423.8,727.1,463.2,739.5,491.7z"/>
			<path class="st24" d="M641.3,499.6c-1.4-0.1-2.9-0.2-4.3-0.3c1.9-5.2,6.6-18.4,8.2-25.4c3.4-15.3,0.6-25.4,0.5-25.8
				C646,448.7,654.4,463.5,641.3,499.6z"/>
		</g>
		<path class="st17" d="M518.2,379.1c0,5.8-8.1,7.9-15.2,7.9s-12.9-4.7-12.9-10.6c0-5.8,5.8-10.6,12.9-10.6S518.2,373.2,518.2,379.1
			z"/>
		<path class="st20" d="M516.2,380.2c1,4.8-92.4,110.8-101.1,113.3c2.2-3.5,4.6-7.2,7.1-11c26.3-40.1,67.1-96.1,70.9-108.3
			c1-3.3,2.8-5.1,5-5.8C504.8,366,514.9,373.8,516.2,380.2z"/>
		<path class="st21" d="M510.7,380.2c0.8,3.9-60.7,74.6-88.4,102.3c26.3-40.1,67.1-96.1,70.9-108.3c1-3.3,2.8-5.1,5-5.8
			C503.8,369.9,509.7,375.4,510.7,380.2z"/>
		<path class="st11" d="M346.9,477.7c-0.2,0.9-1.6,1.6-4.2,3c-0.5,0.3-1.5,0.8-2.9,1.4c-0.8,0.3-1.3,0.6-1.8,0.8c0,0,0,0,0,0
			c-0.4,0.1-1.5,0.2-2.7-0.5c-0.6-0.3-1-0.7-1.3-1.1c0.4-0.4,1-0.8,1.7-1.2c1.2-0.7,2.4-1,3.2-1.1c-0.5-0.1-1.2-0.2-2-0.5
			c-0.2-0.1-0.4-0.2-0.6-0.3c-0.2-0.1-0.3-0.3-0.3-0.5c0-0.1,0.1-0.2,0.2-0.3c0.2-0.2,0.5-0.3,0.7-0.2c0.7,0.2,1.4,0.4,2.2,0.6
			c-0.5-0.4-0.9-0.6-1.2-0.8c-0.3-0.2-0.6-0.3-0.6-0.6c0-0.2,0.1-0.4,0.1-0.4c0.2-0.4,0.9-0.5,1.2-0.4c0.6,0.2,1.5,0.6,2.1,0.8
			c-0.5-0.5-0.9-0.8-1.2-1c-0.6-0.4-1-0.6-1.1-0.9c-0.1-0.3,0.1-0.5,0.2-0.7c0.2-0.1,0.5-0.2,0.7-0.3c0.3,0,0.7,0,1.2,0.2
			c1.3,0.4,2.1,1.4,2.3,1.8c-0.4-0.7-0.8-1.3-1.2-2c-0.4-0.7,0.3-1.5,1-1.1C345.4,474,347.3,476.2,346.9,477.7z"/>
		<g>
			<path class="st4" d="M853.1,478.3c-2.4-0.1-4.9-0.3-7.3-0.4c0,0.2,0.1,0.5,0.1,0.9c0,5.2-7.3,9.1-12.9,12
				c-8.4,4.3-12.6,6.5-15.8,5c-6-2.8-5.6-14.3-5.5-15c0.4-8.7,6-14.5,7.7-16.2c0.5-0.2,1-0.2,1.4-0.1c3,0.4,5.3,5.9,6,13.5
				c4.7-1.5,7.7-3.1,9.8-4.3c1.2-0.7,3.6-2.3,6-1.5c0.4,0.1,0.7,0.3,0.9,0.4c1.1-1.5,2.3-2.9,3.4-4.4c0.9,0.4,2.8,1.5,4.3,3.7
				C853.2,474.5,853.2,477.3,853.1,478.3z"/>
			<g>
				<g>
					<path class="st11" d="M804.7,455.6c-0.8,0.6-1.8,1.2-3.1,1.7c-1.2,0.5-2.2,0.9-3.1,1.1c-0.8,0-1.8-0.1-3-0.6
						c-2.3-0.9-3.6-2.5-4.1-3.3c0.2-0.6,0.4-0.8,0.4-0.9c0,0,0.1-0.2,0.2-0.4c0,0,0,0,0,0c0,0,0-0.1,0.1-0.1
						c0.3-0.6,0.4-1.7,0.5-2.8c0.1-1.8,0-3.7,0-3.7l12,0.4c0,0-0.1,1.4-0.3,3.6c0,0.6-0.1,1.3-0.2,2c0,0.3,0,0.5,0,0.8
						c0,0,0,0.3,0,0.5C804.3,454.6,804.7,455.4,804.7,455.6z"/>
					<path class="st25" d="M804.2,452.6c0,0.5,0,0.9,0,1.3c-0.4,0.3-1,0.7-1.8,1c-1.7,0.5-3.2,0-4.7-0.6c-1.2-0.5-3.1-1.4-5-3.2
						c0-1.5,0-2.9,0-4.4l12,0.4c0,0-0.1,1.4-0.3,3.6C804.3,451.2,804.3,451.9,804.2,452.6z"/>
				</g>
				<g>
					<g>
						<g>
							<path class="st6" d="M816.4,590.3c1.9,5.6,2.3,10.5,1.6,15c-1.5,9.5-7.3,16.6-9.8,26c0,3.1,0.1,5.7,0.2,7.4
								c0.4,6.3,1.2,10-0.6,11.3c-0.6,0.4-1.3,0.4-1.9,0.5c-1.8,0.1-3.4-0.7-4.2-1.4c-2.5-2.1-2-6.2-1.7-10c0.2-2.3,0.3-4.2,0.5-5.4
								c-1.2-1.2-0.2-2.4,0.4-3c3.9-20.6-0.9-21.3,0.3-30.8c0.6-4.7,3.4-7.7,3.4-12.4c-0.3-3.4-4.1-10-2.1-16.6
								c-2.8-7.5-0.8-15.4-2.1-24.4c-0.4-2.9-1.1-6.5-1.8-9.3c-0.7,2.8-1.4,6.4-1.8,9.3c-1.3,9.1,0.7,16.9-2.1,24.4
								c2,6.5-1.9,13.1-2.1,16.6c0,4.8,2.8,7.7,3.4,12.4c1.2,9.5-3.6,10.2,0.3,30.8c0.6,0.6,1.6,1.8,0.4,3c0.4,1.5,0.4,3.2,0.6,5.2
								c0.2,2.7,0.4,5.2,0.1,7c-0.5,3.4-4.2,6.5-6.3,5.9c-2.6-0.8-2.8-7.3-2.8-7.9c0-2.4,0.5-3.2,0.7-6.5c0.2-2.6,0.1-4.8-0.1-6.1
								c-2.5-9.3-8.2-16.4-9.8-26c-0.7-4.6-0.3-9.5,1.6-15c6.4-19.2-9-30.2-3.5-53.8l21.4,0.6l21.4-0.6
								C825.4,560.1,810,571.2,816.4,590.3z"/>
							<path class="st7" d="M820.1,537.7c-1-6.2-2.2-14.8-5.1-21.2c-6.3,0.7-26.7,0.7-33.1,0c-3,6.4-4.2,15.1-5.1,21.2
								c6.8,0.7,15.3,0.5,21.7,0.5C804.9,538.1,813.3,538.3,820.1,537.7z"/>
						</g>
						<g>
							<g>
								<path d="M798.1,649c-0.4-1.5-0.5-2.6-0.5-3.5c0,0-0.1-4.2-0.5-6.5c0,0,0-0.1,0-0.1c-0.1,0-0.1,3.8-0.4,3.8
									c0,0-0.1-0.1-0.1-0.1c-0.7-1.3-7.2-1-7.5-0.4c0,0-0.1,0.2-0.1,0.2c-0.2,0-0.3-3.7-0.5-3.7c0,0-0.1,0.1-0.1,0.1
									c-0.2,0.4-0.5,2.8-1.4,6c-0.2,0.6-0.9,1.4-1.1,2.4c-0.1,0.6-0.3,1.5-0.4,2.1c-0.1,1.9,1,3.7,1.6,4.3c1.7,1.9,5.6,2,9.2-0.3
									c0.8-0.5,1.4-1.3,1.6-2.3c0,0,0,0,0,0C798.2,650.3,798.2,649.6,798.1,649z"/>
							</g>
							<path d="M818,517.1c-3.2-3.4-18.8,0-18.8,0h-1.1c0,0-15.6-3.4-18.8,0c-15.5,67.4,7.9,122,7.9,122h10.6l0.3-99.4h0.9l0.3,99.4
								h10.8C810.2,639.2,833.5,584.5,818,517.1z"/>
							<g>
								<polygon class="st8" points="818,517.1 779.4,517.1 782.6,504.7 814.8,504.7 								"/>
								<path class="st9" d="M784.1,595.6c-10.7-43.1-3.1-78.5-3.1-78.5h15.3C796.4,517.1,798.4,581.4,784.1,595.6z"/>
							</g>
							<g>
								<g>
									<path class="st4" d="M798.2,455.1c-0.3-0.5-0.7-0.7-1.1-0.8c-2-0.8-5.2-0.9-6.1-1c-0.7,1.1-1.3,2.1-2,3.2
										c3.1,0.3,6.3,0.5,9.4,0.8C798.4,456.9,798.7,455.9,798.2,455.1z"/>
									<path class="st4" d="M799.2,455.5c0.8-0.8,1.8-1,3.6-1.3c0.8-0.1,1.5-0.2,2.1-0.2c0.4,0.8,0.8,1.6,1.3,2.4
										c-1.6,0.2-3.4,0.4-5.3,0.5c-0.8,0-1.6,0-2.3,0C798.7,456.2,799,455.8,799.2,455.5z"/>
								</g>
								<path class="st4" d="M781.8,504.7h16.8v-47.7l-9.7-0.4c-4.9,1.5-9.8,3.1-14.8,4.6c1,5.4,2,10.8,3.1,16.2L781.8,504.7z"/>
								<path class="st4" d="M819.4,464.5c-1.2,12.5-2.4,25.1-3.7,37.6c-0.1,0.8-0.2,1.7-0.2,2.5h-16.8v-47.7c2.5-0.2,5-0.4,7.4-0.5
									c0.7,0.4,1.4,0.8,2.2,1.2c2.2,1.2,4.4,2.4,6.7,3.7C816.5,462.4,817.9,463.4,819.4,464.5z"/>
							</g>
						</g>
					</g>
					<path class="st10" d="M785.6,648.8c0,0.5,0,2.6,1.5,4.2c0.8,0.8,1.7,1.1,2.1,1.3c1.3,0.4,2.4,0.2,3.3,0.1
						c1-0.2,2.4-0.4,3.6-1.5c0.6-0.6,1.1-1.3,1.3-1.5c0.4-0.6,0.7-1.2,0.8-1.6c0,0.8-0.1,1.6-0.1,2.5c-0.4,0.7-1,1.7-2.1,2.6
						c-2.3,1.8-6,2.4-8.5,0.4c-0.5-0.4-1.3-1.2-1.9-2.7c-0.1-0.5-0.3-1.3-0.2-2.2C785.4,649.7,785.5,649.2,785.6,648.8z"/>
					<g>
						<path d="M798.8,649c0.4-1.5,0.5-2.6,0.5-3.5c0,0,0.1-4.2,0.5-6.5c0,0,0-0.1,0-0.1c0.1,0,0.1,3.8,0.4,3.8c0,0,0.1-0.1,0.1-0.1
							c0.7-1.3,7.2-1,7.5-0.4c0,0,0.1,0.2,0.1,0.2c0.2,0,0.3-3.7,0.5-3.7c0,0,0.1,0.1,0.1,0.1c0.2,0.4,0.5,2.8,1.4,6
							c0.2,0.6,0.9,1.4,1.1,2.4c0.1,0.6,0.3,1.5,0.4,2.1c0.1,1.9-1,3.7-1.6,4.3c-1.7,1.9-5.6,2-9.2-0.3c-0.8-0.5-1.4-1.3-1.6-2.3
							c0,0,0,0,0,0C798.7,650.3,798.6,649.6,798.8,649z"/>
					</g>
					<path class="st10" d="M811.3,648.8c0,0.5,0,2.6-1.5,4.2c-0.8,0.8-1.7,1.1-2.1,1.3c-1.3,0.4-2.4,0.2-3.3,0.1
						c-1-0.2-2.4-0.4-3.6-1.5c-0.6-0.6-1.1-1.3-1.3-1.5c-0.4-0.6-0.7-1.2-0.8-1.6c0,0.8,0.1,1.6,0.1,2.5c0.4,0.7,1,1.7,2.1,2.6
						c2.3,1.8,6,2.4,8.5,0.4c0.5-0.4,1.3-1.2,1.9-2.7c0.1-0.5,0.3-1.3,0.2-2.2C811.5,649.7,811.4,649.2,811.3,648.8z"/>
				</g>
				<g>
					<g>
						<path class="st11" d="M799.7,454.1c2,0.4,3.1,0.1,3.5-0.1c0.9-0.3,1.4-0.8,2.3-1.8c1-1,2.2-2.5,3.6-4.3c1-1.9,1-3.6,1.3-5.8
							c0.3-1.6,0.6-4,0.8-5.5c0,0,0.7-3.7,0.8-4.7c0.2-1-2-5.9-2.3-6.7c-3.4-3.3-11.2-4.6-16.7-0.8c-3.4,2.6-4.5,5.5-4.9,6.8
							c-0.7,2.2-0.5,4-0.2,7.6c0.3,3.1,0.4,4.8,1.4,6.8c1.1,2.3,2.7,3.7,4,4.9C794.8,451.8,796.7,453.5,799.7,454.1z"/>
						<path class="st12" d="M789,419.7c1.1-0.8,2.1-1.3,2.5-1.4c1.8-0.7,2.9-0.6,9.4-0.4c3.4,0.1,4.7,0.2,6,1.1
							c0.8,0.6,1.2,1.3,1.5,1.8c0.7,0,1.8,0.1,2.8,0.8c1.2,0.8,1.6,3,1.8,4.4c0.2,1.6,0.2,3.1,0.1,4.4c-0.2,3.2-1,5.4-1.2,5.9
							c-0.3,0.7-0.6,1.3-0.8,1.7c0.1-1,0.2-2.4,0.1-3.9c-0.1-1.2-0.3-2.2-0.6-3c-0.3,0.1-0.7,0.3-1.2,0.4c0,0-1.5,0.6-2.7,0.8
							c-4.7,0.9-8.7-0.5-10.3-1.2c0.7,0,1.7,0,2.7-0.4c0.7-0.2,1.3-0.5,1.7-0.7c-0.8,0.3-2.5,0.7-4.5,0.2c-0.4-0.1-0.8-0.3-1.2-0.4
							c0,0.6-0.1,1.5-0.7,2.4c-0.6,0.8-0.8,0.9-1.3,1.2c-0.9,0.7-1.5,3.6-0.8,7.9c-0.5,0-1.5-0.1-1.7,0c-1.3,0.7-0.9,2-0.1,5.2
							c0,0.4,0.2,0.9,0.5,1.6c0.3,0.5,0.5,0.8,0.9,1.2c0.4,0.4,0.8,0.8,1,1c-0.3-0.1-0.7-0.3-1.3-0.6c0,0-0.8-0.5-1.4-1.4
							c-2.4-3.2-3.3-8.4-3.3-8.4c-1.9-10.5-2.2-10.2-1.9-11.7C785.2,426.3,785.5,422.3,789,419.7z"/>
					</g>
					<path class="st11" d="M789.4,437.1c-1.7-0.3-1.6,2.5-1.1,3.7c0.4,1.1,1,3.7,2,4.7c0.4,0.4,1.1,0.1,1.1-0.5
						C791.6,442.6,791.8,437.8,789.4,437.1z"/>
					<path class="st25" d="M803.5,445.7c-0.3,0-0.6,0-1,0c-0.5,0-0.9-0.1-1.3-0.2c0.2,0.5,0.8,0.9,1.3,0.8
						C803.1,446.2,803.4,445.7,803.5,445.7z"/>
					<path class="st25" d="M802.8,450.4c0-0.1-0.4,0-1,0c-0.8-0.1-1.3-0.3-1.3-0.2c0,0.1,0.6,0.5,1.3,0.5
						C802.3,450.7,802.8,450.4,802.8,450.4z"/>
					<path class="st25" d="M804.8,448.4c0-0.1-0.7-0.2-2.2-0.4c-1.2-0.2-1.7-0.2-2-0.2c-1.1,0-1.8-0.1-1.8,0.1
						c-0.1,0.3,1.8,1.3,3.9,1.2C803.7,449,804.8,448.7,804.8,448.4z"/>
					<path class="st12" d="M805.9,436.7c1.4,0.1,2.1,0.2,2.6,0.4c1.2,0.4,1.7,1,1.8,0.8c0.1-0.1-0.3-0.9-1-1.4
						c-0.5-0.3-0.9-0.5-1.3-0.6c-0.7-0.2-1.8-0.4-3.2-0.4c0.1,0.4,0.1,0.8,0.2,1.2C805.2,436.6,805.5,436.6,805.9,436.7z"/>
					<path class="st12" d="M801.5,435.1c0,0.5,0,1,0,1.5c-0.3-0.1-0.8-0.2-1.3-0.4c-0.7-0.1-1.7-0.3-2.9-0.1c-0.3,0.1-0.9,0.2-2,0.5
						c-0.9,0.2-1.1,0.3-1.2,0.2c-0.1-0.2,0.8-1.3,2-1.9c1.2-0.6,2.5-0.4,3.8-0.3C800.6,434.9,801.1,435,801.5,435.1z"/>
					<g>
						<path class="st26" d="M800.8,438.9c-0.2,0.2-0.9,0.8-2,0.9c-1.6,0.1-2.6-1.2-2.7-1.3c0.8,1.4,2.2,2,3.3,1.6
							C800.2,439.9,800.6,439.2,800.8,438.9z"/>
					</g>
					<g>
						<path class="st26" d="M804.6,439.2c0.1,0.1,1,1.3,2.4,1.2c1.1,0,1.8-0.8,1.9-0.9c-0.1,0.2-0.5,1-1.4,1.3
							C806.5,441.1,805.2,440.5,804.6,439.2z"/>
					</g>
				</g>
			</g>
		</g>
		<path class="st17" d="M880.8,443.8c-7,10.1-15.2,15.9-20.6,19.4c-33.6,22-83.4,39.1-99.9,44.6c0.7-0.4,1.8-1,3.1-1.8
			c12.6-7.1,29.3-15.6,67.2-31.6c15.5-6.6,20.2-8.3,27.2-13.5c7.3-5.4,14.8-11,18.8-20.6c6.4-15.4,0.6-33.4-8.5-44.9
			c-4.5-5.7-9.8-9.6-14.9-12.4c-0.8-4.1-1.7-8.2-2.4-11.7c-2.3-12.9-6.7-24.1-12.4-33.8c-5.2-8.9-11.3-16.1-17.8-22.1v0
			c13.8,8.5,47.8,31,64.3,62.4c4.8,9.1,6.3,16.4,7.5,23C894.3,411.8,891.1,429,880.8,443.8z"/>
		<path class="st27" d="M771.1,501.7c-0.6-0.2-1.6-0.5-2.8-0.8c-1.8-0.4-7.5-1.6-13.1,1.6c-5.7,3.2-7.5,8.9-7.9,10.2
			c1.6-1.2,3.1-2.5,4.7-3.7c-1.8,2-3.5,4-5.3,6c4.9-3.3,7.5-4.8,7.8-4.6c0.2,0.3-2.5,2.9-8.2,7.9c3.9-1.7,7.9-3.5,11.8-5.2
			c-4.2,3.5-6.3,5.4-6.1,5.6c0.2,0.3,3.7-1.9,10.4-6.4c-1.7,2.3-3.4,4.6-5.1,6.9c1.6-0.2,5.6-1.1,9.2-4.4c4.7-4.4,5.4-9.9,5.5-11.3
			C771.7,502.9,771.4,502.3,771.1,501.7z"/>
		<path class="st11" d="M859.1,467.5c-0.3,1.5-1.9,2.4-3.7,3.4c-1.1,0.6-2,0.9-2.7,1.2c-0.2,0.3-0.4,0.6-0.6,0.9
			c-0.3-0.6-0.7-1.3-1.2-2c-0.4-0.6-0.9-1-1.3-1.4c0.5-0.3,0.9-0.5,1.4-0.8c-0.4-0.4-0.7-0.7-1-0.8c-0.3-0.2-0.5-0.2-0.6-0.5
			c-0.1-0.2,0-0.5,0.2-0.7c0.7-0.6,2.5,0.6,2.5,0.5c0,0-0.5-0.4-1.3-0.9c-0.3-0.2-0.6-0.3-0.7-0.6c0-0.2,0.1-0.4,0.1-0.4
			c0.2-0.4,1-0.5,1.3-0.4c0.7,0.3,1.7,0.6,2.3,0.8c-0.1-0.2-0.2-0.6-0.5-0.9c-0.4-0.5-0.8-0.5-0.8-0.8c0-0.3,0.4-0.8,0.8-0.9
			c1.2-0.3,2.7,1.8,2.9,1.7c0,0,0-0.1-1.4-2.1c0,0,0,0,0,0c0,0-0.1-0.1-0.1-0.3c0,0,0-0.3,0.5-0.5
			C855.9,461.8,859.8,464.8,859.1,467.5z"/>
	</g>
	<g style="clip-path:url(#SVGID_00000179647446817381812020000002808389480339660976_);">
		<path class="st11" d="M609,456.6c-1.7,1.3-3.5,2.5-5.2,3.8c-0.2-0.6-0.5-1.3-0.8-1.9c-0.6-1.3-1.3-2.3-1.9-3.2
			c-0.4-0.2-0.8-0.5-1.4-0.9c-0.2-0.1-1-0.8-1.7-1.9c-0.6-0.9-1-1.8-1.2-2.5c-4.1-4.7-4.1-5.9-3.8-6.2c0.1-0.1,0.2-0.2,0.4-0.2
			c0.6-0.1,1.2,0.7,2.4,2c0.8,0.9,1.6,1.6,1.6,1.5c0,0-0.9-1.2-2-2.5c-1.2-1.3-1.9-2.1-2.2-3.3c-0.1-0.3-0.2-1,0.1-1.2
			c0.3-0.2,0.8,0,0.9,0.1c1.4,1.6,2.8,3.3,4.3,4.9c-1.5-2-3-4.1-4.5-6.1c0,0-0.2-0.5,0.1-0.9c0.2-0.3,0.7-0.4,1.1-0.2
			c1.7,2.1,3.4,4.2,5.2,6.3c-1-1.4-1.9-2.5-2.5-3.2c-0.8-0.9-1.5-1.7-1.2-2.3c0.1-0.3,0.5-0.4,0.6-0.4c0.7-0.2,1.7,0.5,4.4,4.1
			c0.8,1,1.8,2.4,2.9,4.1c0-1.2,0.1-4.3,0.8-4.4c0.6-0.1,1.6,2.1,2,4c0.5,2.2,0.1,4.1-0.2,5.3L609,456.6z"/>
		<g>
			<path class="st4" d="M597.9,462.1c0.5,2.6,4.4,4.7,9,5.5c1.2,15.3,12.3,26.4,24,26.7c11,0.3,18.5-9.1,19.5-10.3
				c2.5-7.5,4.9-15,7.4-22.5c-2.2,0.1-4.9,0.4-7.9,1.3c-5.4,1.6-9.3,4.3-11.7,6.2c-4.1,7.4-7.8,7.6-8.7,7.5c-2.2-0.1-3.5-1.6-10.2-8
				c-2.6-2.5-4.8-4.5-6.1-5.7c-0.7-3.6-1.5-7.1-2.2-10.7C602.2,453.6,597.3,458.8,597.9,462.1z"/>
		</g>
		<g>
			<g>
				<g>
					<path class="st4" d="M693.6,499c-0.2,0.1-1.6,0.7-3.5,0.9c-2.7,0.3-5.1-0.1-5.9-0.6c-6.4-3.5-5.4-16.2-5.2-17.9
						c0.9-9,5.8-15.4,8.7-18.5c0.8-0.2,2-0.3,3.3,0.1C700.4,466.1,700.1,496,693.6,499z"/>
					<g>
						<g>
							<path class="st11" d="M660.4,457.2c0.7,0.6,1.7,1.4,2.9,2c1.1,0.6,2.1,1.1,3,1.4c0.8,0.1,1.8,0,3-0.3
								c2.4-0.7,3.8-2.2,4.4-2.8c-0.2-0.6-0.3-0.9-0.3-1c0,0-0.1-0.2-0.2-0.4c0,0,0,0,0,0c0,0,0-0.1-0.1-0.1
								c-0.2-0.6-0.3-1.7-0.2-2.8c0.1-1.8,0.4-3.7,0.4-3.7l-11.9-0.8c0,0,0,1.4-0.1,3.6c0,0.6,0,1.3,0,2c0,0.3,0,0.5,0,0.8
								c0,0,0,0.3-0.1,0.5C660.9,456.2,660.5,457,660.4,457.2z"/>
						</g>
						<g>
							<g>
								<g>
									<g>
										<g>
											<g>
												<path class="st11" d="M653.7,434.3c-0.3-0.1-0.4-0.3-0.7-0.2c-0.2,0-0.5,0.3-0.6,0.6c-0.1,0.4-0.3,1.1-0.1,2
													c0.1,0.3,0.3,1.4,0.5,1.8c0.2,0.6,0.4,2.3,0.6,2.7s0.5,1.7,0.8,2.1c0.3,0.4,0.5,1,1.2,1.1c0.3,0,0.5-0.1,0.5-0.1
													s0.5-4.7,0.4-5.6s-0.9-2.8-1-3.3S653.7,434.3,653.7,434.3z"/>
												<path class="st11" d="M679.5,434.6c0.3-0.1,0.4-0.3,0.7-0.2c0.2,0,0.5,0.3,0.6,0.6c0.1,0.4,0.3,1.1,0.1,2
													c-0.1,0.3-0.3,1.4-0.4,1.8c-0.2,0.6-0.4,2.3-0.6,2.7s-0.5,1.7-0.7,2.1s-0.4,1-1.2,1.1c-0.3,0-0.5-0.1-0.5-0.1
													s-0.5-4.7-0.5-5.6c0.1-1,0.9-2.9,1-3.3C678.1,435.2,679.5,434.6,679.5,434.6z"/>
											</g>
										</g>
									</g>
								</g>
							</g>
						</g>
						<g>
							<g>
								<g>
									<path class="st11" d="M684.1,591.7c1.9,5.5,2.3,10.5,1.6,15c-1.5,9.6-7.3,16.6-9.8,26c-0.1,1.4-0.3,3.5-0.1,6.1
										c0.1,0.7,0.1,1.2,0.2,1.7c0.1,0.5,0.1,0.9,0.2,1.3c0.1,0.5,0.2,0.9,0.2,1.3c0.1,0.6,0.2,1.3,0.1,2.1c0,0.4,0,3.2-0.8,5.4
										c-0.3,0.1-0.5,0.2-0.8,0.3c-1,0.3-2.1,0.5-3.4,0.4h-0.1c-0.8,0-1.4-0.2-2-0.3c0,0,0,0,0,0c-1-1.1-1.7-2.4-1.9-3.8
										c-0.2-1.2-0.2-2.7-0.1-4.3c0-0.4,0-0.9,0.1-1.3c0-0.4,0.1-0.8,0.1-1.2c0-0.1,0-0.1,0-0.2c0.2-2.1,0.2-3.8,0.6-5.2
										c-1.2-1.2-0.2-2.4,0.4-3c3.9-20.6-0.9-21.3,0.3-30.8c0.6-4.7,3.3-7.7,3.4-12.4c-0.3-3.4-4.1-10-2.1-16.6
										c-2.8-7.5-0.8-15.4-2.1-24.4c-0.4-2.6-1-5.8-1.6-8.4c-0.1-0.3-0.1-0.6-0.2-0.9c-0.1,0.3-0.1,0.6-0.2,0.9
										c-0.1,0.5-0.2,1-0.3,1.6v0c-0.5,2.2-0.9,4.7-1.2,6.8c-1.3,9.1,0.7,16.9-2.1,24.4c2,6.5-1.9,13.1-2.1,16.6
										c0,4.8,2.8,7.7,3.4,12.4c1.2,9.5-3.7,10.2,0.3,30.8c0.6,0.6,1.6,1.8,0.4,3c0.3,1.2,0.4,3,0.5,5.4c0,0,0,0.1,0,0.1
										c0,0.4,0,0.7,0.1,1.1c0.2,3.5,0.5,7-1.8,8.9c-0.3,0.3-0.8,0.6-1.4,0.9c-0.4,0.1-0.8,0.1-1.3,0.2c-1.5,0.1-2.9-0.2-3.9-0.6
										c-1-1.4-0.6-4.4-0.2-8.9c0-0.5,0.1-0.9,0.1-1.4c0-0.1,0-0.3,0-0.4c0.1-1.8,0.2-4.3,0.2-7.4c-2.5-9.3-8.2-16.4-9.8-26
										c-0.7-4.6-0.2-9.5,1.6-15c6.3-18.8-8.6-29.9-3.8-52.6c0.1-0.4,0.2-0.8,0.2-1.1l21.4,0.6l21.4-0.6c0.1,0.4,0.2,0.8,0.2,1.1
										C692.7,561.9,677.8,572.9,684.1,591.7z"/>
									<path class="st7" d="M644.6,539.1c1-6.2,2.2-14.8,5.1-21.2c6.3,0.7,26.7,0.7,33.1,0c3,6.4,4.2,15.1,5.1,21.2
										c-6.8,0.7-15.3,0.5-21.7,0.5C659.8,539.5,651.4,539.7,644.6,539.1z"/>
								</g>
								<g>
									<path d="M646.7,518.5c3.2-3.4,18.8,0,18.8,0h1.1c0,0,15.6-3.4,18.8,0c15.5,67.4-7.9,122-7.9,122h-10.6l-0.3-99.4h-0.9
										l-0.3,99.4h-10.8C654.5,640.5,631.2,585.9,646.7,518.5z"/>
									<g>
										<polygon class="st8" points="646.7,518.5 685.4,518.5 682.1,506 649.9,506 										"/>
									</g>
									<g>
										<g>
											<path class="st4" d="M674.6,455.7c-8.7,0.1-12.1,0-12.7-0.1c-0.1,0-0.7-0.1-1.5-0.2c-0.2,0-0.4,0-0.6,0
												c-0.4,0.8-0.8,1.6-1.3,2.4c2.3,0.5,5.2,0.9,8.6,0.9c3.2,0,6-0.4,8.2-0.8C675.1,457.1,674.9,456.4,674.6,455.7z"/>
										</g>
										<path class="st4" d="M687.4,463c-0.7,13.4-2.1,27-4.2,40.8c-0.1,0.7-0.2,1.4-0.3,2.2H666v-47.7l9.7-0.4
											C679.6,459.6,683.5,461.3,687.4,463z"/>
										<path class="st4" d="M645.3,465.9c1.2,12.5,2.4,25.1,3.7,37.6c0.1,0.8,0.2,1.7,0.2,2.5H666v-47.7c-2.5-0.2-5-0.4-7.4-0.5
											c-0.7,0.4-1.4,0.8-2.2,1.2c-2.2,1.2-4.4,2.4-6.7,3.7C648.3,463.7,646.8,464.8,645.3,465.9z"/>
									</g>
								</g>
							</g>
						</g>
					</g>
				</g>
				<path class="st12" d="M666.9,456c1.3,0,2.6-0.3,3-0.7c0.2-0.2,2.5-2,3.1-2.7c0.6-0.6,2.1-2.2,2.4-2.7c0.3-0.5,0.8-1.2,1.2-1.7
					c0.4-0.5,0.5-1.3,0.6-1.6s0.2-1.4,0.3-1.8c0-0.4,0.1-2.3,0.3-3c0.1-0.7,0.2-1.1,0.3-1.9c0.1-0.8,0.1-2.2,0.1-2.8
					c0-0.4,0.1-1.3,0.1-1.3s0.5-4.1,0.6-5.2c0.1-1.1-1.1-6.3-1.6-7.1s-3.6-1.9-7.9-2.6c-1-0.2-1.9-0.2-2.8-0.3l-0.2,0
					c-1,0.1-2.2,0.2-3.4,0.5c-4.3,0.9-7.4,2.1-7.8,2.9c-0.4,0.8-1.4,6.1-1.2,7.1c0.2,1.1,0.9,5.2,0.9,5.2s0.1,0.9,0.1,1.3
					c0,0.6,0.1,2,0.2,2.8c0.2,0.7,0.2,1.2,0.4,1.9c0.2,0.7,0.4,2.6,0.4,3c0,0.4,0.2,1.6,0.3,1.8c0.1,0.3,0.3,1.1,0.7,1.6
					s0.9,1.2,1.2,1.6s1.9,2,2.5,2.6c0.7,0.6,3.1,2.4,3.3,2.5C664.4,455.8,665.7,456,666.9,456L666.9,456z"/>
				<path class="st12" d="M680.2,422.8c-0.4-1.4-1.2-2.6-2-3.7c-0.5-0.7-1.4-1.3-2.4-1.9c-2.5-1.2-10.4-2.1-12.6-1.8
					c-1.8,0.3-3.6,0.6-5.2,1.4c-2,0.9-3,3-3.6,4.6c-1.3,1-1.8,1.9-2.1,2.6c-0.2,0.6-0.3,1,0.4,6.1c0.1,0.9,0.3,2.2,0.7,3.8
					c0.2,0.9,0.3,1.4,0.6,1.9c0.3,0.6,0.7,1.4,0.9,2c0.2,0.5,0.2,1.2,0.2,1.2c0.1,0,0.3,0.1,0.4,0.1c0-2.4,0.6-4.2,1.4-5.6
					c0.3-0.5,0.5-0.7,0.8-1.2c0.9-1.8,0.5-3.9-0.1-5.4c0.5,0.7,2.9,4.2,7.6,5.2c4.6,1,8.2-1,8.9-1.5c-0.8,0.1-1.9,0.1-3.1-0.2
					c-0.7-0.1-1.2-0.3-1.7-0.5c0.9,0.2,2.3,0.3,4,0c1-0.2,1.8-0.5,2.4-0.8c0,0.2,0,0.5,0,0.9c0.1,0.7,0.3,1.3,0.4,1.5
					c0.4,0.9,0.7,1.8,1,2.8c0.6,1.9,0.7,3.6,0.7,4.7c0.1,0,0.3,0.1,0.4,0.1c0,0,0.1-0.7,0.2-1.2s0.6-1.4,0.9-2
					c0.3-0.6,0.5-1.6,0.6-1.9c0-0.3,0.3-1.5,0.5-2.3c0.2-0.8,0.3-1.6,0.3-2.3c0-0.8,0-1.6,0-2.2c0-0.6-0.1-1.4-0.1-2
					C680.4,424.1,680.3,423.1,680.2,422.8z"/>
			</g>
			<path d="M665.7,641.3c-0.1,1.8-0.1,3.7-0.1,5.6c0,0.9,0,1.8,0,2.6c-0.6,0.5-2,1.4-3.9,1.7c-0.4,0.1-0.8,0.1-1.3,0.2
				c-1.5,0.1-2.9-0.2-3.9-0.6c-1.5-0.5-2.4-1.3-2.8-1.6c0.2-2.6,0.3-5.2,0.5-7.8c0.6,0.2,1.3,0.3,2.1,0.5c0.9,0.1,1.8,0.2,2.8,0.3
				c2.3,0.1,4.3-0.3,5.8-0.7C665.1,641.5,665.4,641.4,665.7,641.3z"/>
			<path d="M678.3,649.3c-0.3,0.3-1.2,0.9-2.5,1.5c-0.3,0.1-0.5,0.2-0.8,0.3c-1,0.3-2.1,0.5-3.4,0.4h-0.1c-0.8,0-1.4-0.2-2-0.3
				c0,0,0,0,0,0c-1.5-0.4-2.6-1.2-3.2-1.5c0-0.9,0-1.8,0-2.6c0-1.9,0-3.8-0.1-5.6c0.4,0.1,0.8,0.2,1.2,0.4c0,0,0,0,0.1,0
				c1.4,0.3,3.3,0.6,5.4,0.6c1.2,0,2.4-0.2,3.4-0.4c0.1,0,0.1,0,0.2,0c0.5-0.1,0.9-0.2,1.3-0.3C678,644.1,678.1,646.7,678.3,649.3z"
				/>
		</g>
		<path class="st8" d="M658.4,457.7c2.2,0.5,5,1,8.2,1c3.6,0,6.6-0.4,8.9-0.9c0.7,0.3,1.4,0.6,2.2,1c-2.4,0.8-6.1,1.6-10.6,1.6
			c-4.4,0-8-0.9-10.4-1.7C657.2,458.3,657.8,458,658.4,457.7z"/>
		<path class="st10" d="M653.7,648.9c0.9,0.6,3,1.7,5.9,1.8c2.9,0.1,5.1-0.9,6.1-1.5c0,0.7,0,1.4,0,2.1c-1,0.5-3.1,1.5-5.8,1.5
			c-3.1,0-5.4-1.3-6.3-1.9C653.5,650.2,653.6,649.6,653.7,648.9z"/>
		<path class="st10" d="M666.3,649.2c0.9,0.5,3.1,1.5,6,1.4c2.9-0.1,5.1-1.3,6-1.9c0,0.7,0.1,1.4,0.1,2.1c-0.9,0.6-3,1.7-5.7,1.8
			c-3.1,0.2-5.5-0.9-6.4-1.4C666.2,650.5,666.3,649.8,666.3,649.2z"/>
	</g>
	<g style="clip-path:url(#SVGID_00000179647446817381812020000002808389480339660976_);">
		<path class="st11" d="M376,468c-1.7,1.3-3.5,2.5-5.2,3.8c-0.2-0.6-0.5-1.3-0.8-1.9c-0.6-1.3-1.3-2.3-1.9-3.2
			c-0.4-0.2-0.8-0.5-1.4-0.9c-0.2-0.1-1-0.8-1.7-1.9c-0.6-0.9-1-1.8-1.2-2.5c-4.1-4.7-4.1-5.9-3.8-6.2c0.1-0.1,0.2-0.2,0.4-0.2
			c0.6-0.1,1.2,0.7,2.4,2c0.8,0.9,1.6,1.6,1.6,1.5c0,0-0.9-1.2-2-2.5c-1.2-1.3-1.9-2.1-2.2-3.3c-0.1-0.3-0.2-1,0.1-1.2
			c0.3-0.2,0.8,0,0.9,0.1c1.4,1.6,2.8,3.3,4.3,4.9c-1.5-2-3-4.1-4.5-6.1c0,0-0.2-0.5,0.1-0.9c0.2-0.3,0.7-0.4,1.1-0.2
			c1.7,2.1,3.4,4.2,5.2,6.3c-1-1.4-1.9-2.5-2.5-3.2c-0.8-0.9-1.5-1.7-1.2-2.3c0.1-0.3,0.5-0.4,0.6-0.4c0.7-0.2,1.7,0.5,4.4,4.1
			c0.8,1,1.8,2.4,2.9,4.1c0-1.2,0.1-4.3,0.8-4.4c0.6-0.1,1.6,2.1,2,4c0.5,2.2,0.1,4.1-0.2,5.3L376,468z"/>
		<g>
			<path class="st4" d="M364.5,471.3c0.5,2.6,4.4,4.7,9,5.5c1.2,15.3,12.3,26.4,24,26.7c11,0.3,18.5-9.1,19.5-10.3
				c2.5-7.5,4.9-15,7.4-22.5c-2.2,0.1-4.9,0.4-7.9,1.3c-5.4,1.6-9.3,4.3-11.7,6.2c-4.1,7.4-7.8,7.6-8.7,7.5c-2.2-0.1-3.5-1.6-10.2-8
				c-2.6-2.5-4.8-4.5-6.1-5.7c-0.7-3.6-1.5-7.1-2.2-10.7C368.8,462.8,363.9,468,364.5,471.3z"/>
		</g>
		<g>
			<g>
				<g>
					<path class="st4" d="M460.1,508.2c-0.2,0.1-1.6,0.7-3.5,0.9c-2.7,0.3-5.1-0.1-5.9-0.6c-6.4-3.5-5.4-16.2-5.2-17.9
						c0.9-9,5.8-15.4,8.7-18.5c0.8-0.2,2-0.3,3.3,0.1C466.9,475.3,466.6,505.2,460.1,508.2z"/>
					<g>
						<g>
							<path class="st11" d="M426.9,466.4c0.7,0.6,1.7,1.4,2.9,2c1.1,0.6,2.1,1.1,3,1.4c0.8,0.1,1.8,0,3-0.3
								c2.4-0.7,3.8-2.2,4.4-2.8c-0.2-0.6-0.3-0.9-0.3-1c0,0-0.1-0.2-0.2-0.4c0,0,0,0,0,0c0,0,0-0.1-0.1-0.1
								c-0.2-0.6-0.3-1.7-0.2-2.8c0.1-1.8,0.4-3.7,0.4-3.7l-11.9-0.8c0,0,0,1.4-0.1,3.6c0,0.6,0,1.3,0,2c0,0.3,0,0.5,0,0.8
								c0,0,0,0.3-0.1,0.5C427.5,465.4,427,466.2,426.9,466.4z"/>
						</g>
						<g>
							<g>
								<g>
									<g>
										<g>
											<g>
												<path class="st11" d="M420.2,443.5c-0.3-0.1-0.4-0.3-0.7-0.2c-0.2,0-0.5,0.3-0.6,0.6c-0.1,0.4-0.3,1.1-0.1,2
													c0.1,0.3,0.3,1.4,0.5,1.8c0.2,0.6,0.4,2.3,0.6,2.7c0.2,0.4,0.5,1.7,0.8,2.1c0.3,0.4,0.5,1,1.2,1.1
													c0.3,0,0.5-0.1,0.5-0.1s0.5-4.7,0.4-5.6c-0.1-0.9-0.9-2.8-1-3.3C421.6,444.1,420.2,443.5,420.2,443.5z"/>
												<path class="st11" d="M446.1,443.9c0.3-0.1,0.4-0.3,0.7-0.2c0.2,0,0.5,0.3,0.6,0.6c0.1,0.4,0.3,1.1,0.1,2
													c-0.1,0.3-0.3,1.4-0.4,1.8c-0.2,0.6-0.4,2.3-0.6,2.7s-0.5,1.7-0.7,2.1s-0.4,1-1.2,1.1c-0.3,0-0.5-0.1-0.5-0.1
													s-0.5-4.7-0.5-5.6c0.1-1,0.9-2.9,1-3.3C444.7,444.4,446.1,443.9,446.1,443.9z"/>
											</g>
										</g>
									</g>
								</g>
							</g>
						</g>
						<g>
							<g>
								<g>
									<path class="st11" d="M450.7,600.9c1.9,5.5,2.3,10.5,1.6,15c-1.5,9.6-7.3,16.6-9.8,26c-0.1,1.4-0.3,3.5-0.1,6.1
										c0.1,0.7,0.1,1.2,0.2,1.7c0.1,0.5,0.1,0.9,0.2,1.3c0.1,0.5,0.2,0.9,0.2,1.3c0.1,0.6,0.2,1.3,0.1,2.1c0,0.4,0,3.2-0.8,5.4
										c-0.3,0.1-0.5,0.2-0.8,0.3c-1,0.3-2.1,0.5-3.4,0.4h-0.1c-0.8,0-1.4-0.2-2-0.3c0,0,0,0,0,0c-1-1.1-1.7-2.4-1.9-3.8
										c-0.2-1.2-0.2-2.7-0.1-4.3c0-0.4,0-0.9,0.1-1.3c0-0.4,0.1-0.8,0.1-1.2c0-0.1,0-0.1,0-0.2c0.2-2.1,0.2-3.8,0.6-5.2
										c-1.2-1.2-0.2-2.4,0.4-3c3.9-20.6-0.9-21.3,0.3-30.8c0.6-4.7,3.3-7.7,3.4-12.4c-0.3-3.4-4.1-10-2.1-16.6
										c-2.8-7.5-0.8-15.4-2.1-24.4c-0.4-2.6-1-5.8-1.6-8.4c-0.1-0.3-0.1-0.6-0.2-0.9c-0.1,0.3-0.1,0.6-0.2,0.9
										c-0.1,0.5-0.2,1-0.3,1.6v0c-0.5,2.2-0.9,4.7-1.2,6.8c-1.3,9.1,0.7,16.9-2.1,24.4c2,6.5-1.9,13.1-2.1,16.6
										c0,4.8,2.8,7.7,3.4,12.4c1.2,9.5-3.7,10.2,0.3,30.8c0.6,0.6,1.6,1.8,0.4,3c0.3,1.2,0.4,3,0.5,5.4c0,0,0,0.1,0,0.1
										c0,0.4,0,0.7,0.1,1.1c0.2,3.5,0.5,7-1.8,8.9c-0.3,0.3-0.8,0.6-1.4,0.9c-0.4,0.1-0.8,0.1-1.3,0.2c-1.5,0.1-2.9-0.2-3.9-0.6
										c-1-1.4-0.6-4.4-0.2-8.9c0-0.5,0.1-0.9,0.1-1.4c0-0.1,0-0.3,0-0.4c0.1-1.8,0.2-4.3,0.2-7.4c-2.5-9.3-8.2-16.4-9.8-26
										c-0.7-4.6-0.2-9.5,1.6-15c6.3-18.8-8.6-29.9-3.8-52.6c0.1-0.4,0.2-0.8,0.2-1.1l21.4,0.6l21.4-0.6c0.1,0.4,0.2,0.8,0.2,1.1
										C459.3,571.1,444.4,582.1,450.7,600.9z"/>
									<path class="st7" d="M411.1,548.3c1-6.2,2.2-14.8,5.1-21.2c6.3,0.7,26.7,0.7,33.1,0c3,6.4,4.2,15.1,5.1,21.2
										c-6.8,0.7-15.3,0.5-21.7,0.5C426.4,548.7,418,548.9,411.1,548.3z"/>
								</g>
								<g>
									<path d="M413.3,527.7c3.2-3.4,18.8,0,18.8,0h1.1c0,0,15.6-3.4,18.8,0c15.5,67.4-7.9,122-7.9,122h-10.6l-0.3-99.4h-0.9
										l-0.3,99.4h-10.8C421.1,649.8,397.7,595.1,413.3,527.7z"/>
									<g>
										<polygon class="st8" points="413.3,527.7 451.9,527.7 448.7,515.3 416.5,515.3 										"/>
									</g>
									<g>
										<g>
											<path class="st4" d="M441.2,464.9c-8.7,0.1-12.1,0-12.7-0.1c-0.1,0-0.7-0.1-1.5-0.2c-0.2,0-0.4,0-0.6,0
												c-0.4,0.8-0.8,1.6-1.3,2.4c2.3,0.5,5.2,0.9,8.6,0.9c3.2,0,6-0.4,8.2-0.8C441.7,466.3,441.4,465.6,441.2,464.9z"/>
										</g>
										<path class="st4" d="M454,472.2c-0.7,13.4-2.1,27-4.2,40.8c-0.1,0.7-0.2,1.4-0.3,2.2h-16.8v-47.7l9.7-0.4
											C446.2,468.8,450.1,470.5,454,472.2z"/>
										<path class="st4" d="M411.9,475.1c1.2,12.5,2.4,25.1,3.7,37.6c0.1,0.8,0.2,1.7,0.2,2.5h16.8v-47.7c-2.5-0.2-5-0.4-7.4-0.5
											c-0.7,0.4-1.4,0.8-2.2,1.2c-2.2,1.2-4.4,2.4-6.7,3.7C414.8,473,413.3,474,411.9,475.1z"/>
									</g>
								</g>
							</g>
						</g>
					</g>
				</g>
				<path class="st12" d="M433.5,465.2c1.3,0,2.6-0.3,3-0.7c0.2-0.2,2.5-2,3.1-2.7c0.6-0.6,2.1-2.2,2.4-2.7c0.3-0.5,0.8-1.2,1.2-1.7
					c0.4-0.5,0.5-1.3,0.6-1.6c0.1-0.3,0.2-1.4,0.3-1.8c0-0.4,0.1-2.3,0.3-3c0.1-0.7,0.2-1.1,0.3-1.9c0.1-0.8,0.1-2.2,0.1-2.8
					c0-0.4,0.1-1.3,0.1-1.3s0.5-4.1,0.6-5.2c0.1-1.1-1.1-6.3-1.6-7.1c-0.5-0.8-3.6-1.9-7.9-2.6c-1-0.2-1.9-0.2-2.8-0.3l-0.2,0
					c-1,0.1-2.2,0.2-3.4,0.5c-4.3,0.9-7.4,2.1-7.8,2.9c-0.4,0.8-1.4,6.1-1.2,7.1c0.2,1.1,0.9,5.2,0.9,5.2s0.1,0.9,0.1,1.3
					c0,0.6,0.1,2,0.2,2.8c0.2,0.7,0.2,1.2,0.4,1.9c0.2,0.7,0.4,2.6,0.4,3c0,0.4,0.2,1.6,0.3,1.8c0.1,0.3,0.3,1.1,0.7,1.6
					c0.4,0.5,0.9,1.2,1.2,1.6c0.3,0.5,1.9,2,2.5,2.6c0.7,0.6,3.1,2.4,3.3,2.5C430.9,465,432.2,465.2,433.5,465.2L433.5,465.2z"/>
				<path class="st12" d="M446.8,432c-0.4-1.4-1.2-2.6-2-3.7c-0.5-0.7-1.4-1.3-2.4-1.9c-2.5-1.2-10.4-2.1-12.6-1.8
					c-1.8,0.3-3.6,0.6-5.2,1.4c-2,0.9-3,3-3.6,4.6c-1.3,1-1.8,1.9-2.1,2.6c-0.2,0.6-0.3,1,0.4,6.1c0.1,0.9,0.3,2.2,0.7,3.8
					c0.2,0.9,0.3,1.4,0.6,1.9c0.3,0.6,0.7,1.4,0.9,2c0.2,0.5,0.2,1.2,0.2,1.2c0.1,0,0.3,0.1,0.4,0.1c0-2.4,0.6-4.2,1.4-5.6
					c0.3-0.5,0.5-0.7,0.8-1.2c0.9-1.8,0.5-3.9-0.1-5.4c0.5,0.7,2.9,4.2,7.6,5.2c4.6,1,8.2-1,8.9-1.5c-0.8,0.1-1.9,0.1-3.1-0.2
					c-0.7-0.1-1.2-0.3-1.7-0.5c0.9,0.2,2.3,0.3,4,0c1-0.2,1.8-0.5,2.4-0.8c0,0.2,0,0.5,0,0.9c0.1,0.7,0.3,1.3,0.4,1.5
					c0.4,0.9,0.7,1.8,1,2.8c0.6,1.9,0.7,3.6,0.7,4.7c0.1,0,0.3,0.1,0.4,0.1c0,0,0.1-0.7,0.2-1.2c0.2-0.5,0.6-1.4,0.9-2
					c0.3-0.6,0.5-1.6,0.6-1.9c0-0.3,0.3-1.5,0.5-2.3c0.2-0.8,0.3-1.6,0.3-2.3c0-0.8,0-1.6,0-2.2c0-0.6-0.1-1.4-0.1-2
					C447,433.3,446.8,432.3,446.8,432z"/>
			</g>
			<path d="M432.3,650.6c-0.1,1.8-0.1,3.7-0.1,5.6c0,0.9,0,1.8,0,2.6c-0.6,0.5-2,1.4-3.9,1.7c-0.4,0.1-0.8,0.1-1.3,0.2
				c-1.5,0.1-2.9-0.2-3.9-0.6c-1.5-0.5-2.4-1.3-2.8-1.6c0.2-2.6,0.3-5.2,0.5-7.8c0.6,0.2,1.3,0.3,2.1,0.5c0.9,0.1,1.8,0.2,2.8,0.3
				c2.3,0.1,4.3-0.3,5.8-0.7C431.7,650.7,432,650.6,432.3,650.6z"/>
			<path d="M444.9,658.5c-0.3,0.3-1.2,0.9-2.5,1.5c-0.3,0.1-0.5,0.2-0.8,0.3c-1,0.3-2.1,0.5-3.4,0.4h-0.1c-0.8,0-1.4-0.2-2-0.3
				c0,0,0,0,0,0c-1.5-0.4-2.6-1.2-3.2-1.5c0-0.9,0-1.8,0-2.6c0-1.9,0-3.8-0.1-5.6c0.4,0.1,0.8,0.2,1.2,0.4c0,0,0,0,0.1,0
				c1.4,0.3,3.3,0.6,5.4,0.6c1.2,0,2.4-0.2,3.4-0.4c0.1,0,0.1,0,0.2,0c0.5-0.1,0.9-0.2,1.3-0.3C444.5,653.3,444.7,655.9,444.9,658.5
				z"/>
			<path class="st10" d="M420.2,658.5c0.9,0.6,3,1.7,5.9,1.8c2.9,0.1,5.1-0.9,6.1-1.5c0,0.7,0,1.4,0,2.1c-1,0.5-3.1,1.5-5.8,1.5
				c-3.1,0-5.4-1.3-6.3-1.9C420.1,659.8,420.1,659.2,420.2,658.5z"/>
			<path class="st10" d="M432.9,658.7c0.9,0.5,3.1,1.5,6,1.4c2.9-0.1,5.1-1.3,6-1.9c0,0.7,0.1,1.4,0.1,2.1c-0.9,0.6-3,1.7-5.7,1.8
				c-3.1,0.2-5.5-0.9-6.4-1.4C432.8,660,432.8,659.4,432.9,658.7z"/>
		</g>
	</g>
	<g style="clip-path:url(#SVGID_00000179647446817381812020000002808389480339660976_);">
		<path class="st28" d="M702.7,277.7c-1.7-0.2-3.4-0.4-5.1-0.6c-0.3,2.2-0.6,4.5-0.8,6.7c2.1,0.2,4.1,0.4,6.2,0.6
			C702.8,282.3,702.7,280,702.7,277.7z"/>
		<path class="st11" d="M685.4,266.7c-0.2,0.4,0.5,0.8,0.3,1.3c-0.5,1.5-6.5-0.7-10.1,1.4c-5,2.9-5.7,15.1-1.2,18.2
			c3.1,2.2,8.8,0.1,10.8,3.3c0.5,0.8,0.4,1.5,1.2,2c2.3,1.6,7.2-1.3,7-2.1c-0.1-0.4-1.4-0.1-1.5-0.6c-0.3-1,5.6-2.3,7.5-6.6
			c1.3-2.8,0.3-5.7,0.2-5.9c-1.6-4.3-6.9-6-6.4-7.3c0.2-0.5,1.2-0.3,1.3-0.7C694.6,268.6,686.1,265.4,685.4,266.7z"/>
		<g>
			<path class="st11" d="M821.6,320c2.2,0.2,2.9,0.9,3.2,1.4c0.6,1.3-0.8,2.5-0.8,5.4c0,1.2,0.2,3.2,1,3.4c0.5,0.1,1-0.6,2.3-2.7
				c3.8-6.1,3.6-7.1,3.4-7.5c-0.4-0.9-1.2-1.4-3-2.4c-1.9-1.1-3.7-1.6-4.9-1.8C822.4,317.1,822,318.6,821.6,320z"/>
			<path d="M826.6,315.8c-0.7,1.3-1.5,2.5-2.2,3.8c-0.4,0.8-0.9,1.5-1.3,2.3c-14.4-5.4-28.9-11.5-43.5-18.6
				c-1.1-0.6-2.3-1.1-3.4-1.7c0.4-5.5,0.8-11.1,1.2-16.6c0-0.3,0-0.6,0.1-0.9c1.5,0.4,3.6,1,6.2,2c7.5,2.8,13.6,6.5,27.3,17.2
				C815.2,306.6,820.5,310.8,826.6,315.8z"/>
		</g>
		<path class="st11" d="M709,342.8c-0.5,1.1-0.9,2.3-1.4,3.4c-0.5,0.3-2.2,1.3-3.2,3.4c-1,2.2-0.6,4.1-0.4,4.7
			c0.6,0.7,1.1-1.9,1.6-2.9c-0.6,2.7-1.1,5.3-1.7,8c-0.2,1,0.8,0.8,1,0.2c0.8-2,2.1-5.5,2.1-5.5c0.3,0.1-1.2,4.3-2.1,6.6
			c0,0,0,0.2,0,0.2c-0.1,0.8,0.8,1.1,1.2,0.3c0,0,0.6-1.5,0.6-1.5c0.1-0.4,1.6-4.8,1.7-4.6c-0.5,1.7-0.7,2.8-1.3,4.5
			c-0.3,0.9,0.7,1.2,1,0.5c0,0,1.1-3.2,1.9-5c-0.4,1.3-0.8,2.1-1.2,3.4c-0.3,1,0.3,1.2,0.8,0.5c0.4-1.1,1.3-2.3,1.9-4
			c0.9-2.4,1.2-3.3,1.3-4.5c0.1-1.3,0-2.4-0.1-3.1c0.4-1.2,0.7-2.4,1.1-3.7C712.2,343.3,710.6,343.1,709,342.8z"/>
		<path class="st4" d="M704.7,342.6c1.4-1.9,2.8-3.9,4.1-5.8c-0.6-0.4-1.4-0.9-2.2-1.8c-3.5-3.9-2.1-8.8-2.1-16.6
			c0-12.9-3.7-18.7,0.9-25.2c0.3-0.5,0.6-0.9,0.9-1.1c-0.7-0.8-1.6-1.9-2.6-3.4c-1.4-2.2-2.9-4.5-3.2-7.5c0-0.3-0.2-3,0.7-5.1
			c4.2-9.1,30.1-5.8,36.2-4c0.2,0,0.8,0.2,1.7,0.5c5.3,1.4,9.2,2.2,10,2.3c3,0.6,11.2,2.7,33.2,9.4c-1.5,6.3-2.9,12.6-4.4,18.9
			c-8.5-1.5-17.2-2.9-26.3-4.2c-8.4-1.2-16.7-2.2-24.7-3.1c-2.3,9.8-3,17.7-3.2,23.5c-0.2,5.5,0,13.1-5.1,17.7
			c-0.6,0.5-1.2,0.9-1.6,1.2c2.2,3.5,3.2,6.9,2,8.1c-1,1-3.5,0.3-7.6-1C708.4,344.4,706.1,343.4,704.7,342.6z"/>
		<path class="st12" d="M683.4,266.7c-4.3-0.6-10.5,0.9-12.3,5c-0.5,1.2-0.6,2.3-0.6,2.9c-0.6,0.9-1.2,2.3-1.5,4
			c-0.7,4.3,1.1,9.1,4.7,11.5c1.1,0.7,2,1,3.5,1.4c7.4,2.1,14.2-0.2,18.4-2.3c0.8-0.4,2.3-1.3,3.5-2.9c1.6-2.1,2-4.2,2.2-5.2
			c-0.2-1.4-0.6-3.5-2.1-5.4c-0.4-0.5-0.8-1-1.5-1.6c-1.6-1.4-4.4-4-9-5.9C688.2,268,685.6,267,683.4,266.7z"/>
	</g>
	<path style="clip-path:url(#SVGID_00000179647446817381812020000002808389480339660976_);fill:#DC2428;" d="M425.2,467
		c2.2,0.5,5,1,8.2,1c3.6,0,6.6-0.4,8.9-0.9c0.7,0.3,1.4,0.6,2.2,1c-2.4,0.8-6.1,1.6-10.6,1.6c-4.4,0-8-0.9-10.4-1.7
		C424,467.6,424.6,467.3,425.2,467z"/>
	<path style="clip-path:url(#SVGID_00000179647446817381812020000002808389480339660976_);fill:#DC2428;" d="M270.8,464.7
		c1.2,0.6,3.1,1.5,5.6,1.8c2.6,0.3,4.7,0,6-0.4c-0.7,0.3-1.6,0.8-2.4,1.7c-1.9,2.1-2,4.7-2,5.4c0.7-0.7,1.4-1.5,2.1-2.5
		c1.2-1.7,1.9-3.3,2.3-4.6c0.1,1,0.4,2.5,1.3,4.2c1.5,2.6,3.8,3.8,4.7,4.2c-0.2-0.9-0.4-1.9-0.9-2.9c-1.2-2.6-3-4.3-4.1-5.2
		c1.1,0.1,2.3,0.2,3.8,0.1c2.3-0.2,4.2-0.8,5.5-1.3c-0.8-0.5-1.6-1-2.3-1.5c-1.5,0.5-3.1,1-4.7,1.4c-0.7,0.2-1.5,0.4-2.2,0.6
		c-0.1-0.1-0.3-0.2-0.6-0.3c-0.3,0-0.5,0-0.6,0.1c-1.4,0-3.2-0.2-5.1-0.6c-1.4-0.3-2.6-0.7-3.7-1.1
		C272.5,464,271.7,464.4,270.8,464.7z"/>
	<path style="clip-path:url(#SVGID_00000179647446817381812020000002808389480339660976_);fill:#DC2428;" d="M786.3,457.3
		c1.2,0.7,3.2,1.7,5.9,2c2.5,0.3,4.5,0,5.8-0.3c-0.6,0.3-1.4,0.8-2.2,1.6c-1.9,2.1-2,4.6-2,5.4c0.7-0.7,1.4-1.6,2.1-2.5
		c1.1-1.5,1.9-2.9,2.5-4.2c0.1,0.9,0.3,2.3,1.1,3.8c1.5,2.7,3.9,3.9,4.7,4.2c-0.2-0.9-0.5-1.9-0.9-2.9c-1-2.3-2.3-4-3.3-5
		c0.9,0,1.9,0,3-0.1c2.2-0.2,4-0.8,5.5-1.3c-0.8-0.5-1.6-1-2.3-1.5c-1.6,0.5-3.1,0.9-4.7,1.4c-0.5,0.2-1.1,0.3-1.6,0.5
		c-0.1-0.1-0.2-0.2-0.4-0.3c-0.4-0.2-0.7-0.1-0.8-0.1c-0.3,0-0.5,0.2-0.6,0.2c-1.4,0-3.2-0.2-5.1-0.6c-1.5-0.3-2.8-0.7-3.9-1.2
		C788.1,456.8,787.2,457,786.3,457.3z"/>
	<g style="clip-path:url(#SVGID_00000179647446817381812020000002808389480339660976_);">
		<g>
			<g>
				<path class="st11" d="M786.8,488.4c0,0,5.6,0.5,6.5,0.5c0,0,0.5,0,1.3-0.4c0,0,2.6-1.7,3.2-2.2s1.5-1.3,2-1.4
					c0.6-0.1,3.4-0.1,3.8,0c0.4,0.1,4.2,1.1,4.4,1.4c0.2,0.2-0.2,0.6-0.2,0.6s0.4,0.2,0.4,0.4c0,0.2-0.7,0.5-0.7,0.5
					s-0.2,0.9-0.8,0.9c0,0-0.1,0.6-0.8,0.7c-0.6,0-1.9-0.1-1.9-0.1s-1.4,0.3-1.9,0.3c0,0-0.5,0.7-1.2,1.3s-2.1,2.1-3.1,3
					c-1,0.9-1.7,0.9-3,0.9s-4,0.2-5.7,0.7c-4.9,1.3-4.6,0.4-5-2.8C783.7,489,786.8,488.4,786.8,488.4z"/>
				<g>
					<g>
						<g>
							<path class="st30" d="M806.8,488.6c-3.2-0.6-2.9-0.6-6.1,0c0.7-0.5,1.9-0.8,2.8-0.8C804.6,488,805.8,488.3,806.8,488.6z"/>
							<path class="st30" d="M807.6,487.8c-1.4-0.2-3.1-0.7-4.5-0.8c-0.9,0.1-1.9,0.2-2.7,0.3c0.8-0.4,2-0.6,3-0.6
								C804.7,486.9,806.3,487.3,807.6,487.8z"/>
							<path class="st30" d="M807.8,486.9c-1.4-0.3-3.1-0.7-4.4-1c-1.2,0-2.3,0.2-3.5,0.1c1-0.3,2.3-0.4,3.4-0.4
								C804.8,485.9,806.5,486.4,807.8,486.9z"/>
						</g>
					</g>
				</g>
			</g>
		</g>
		<path class="st4" d="M792.1,486.5c0.5,0.5,0.8,1.1,0.9,1.4c1.1-1.3,2.3-2.6,3.4-3.9c1.1,4.1,3.4,14,0.3,15.6
			c-0.8,0.4-2.3,0.5-5.4-1.9c-0.4,0.2-1,0.5-1.8,0.9c-4.9,2.2-7.9,1.8-18.8,2.2c-5.8,0.2-9.4,0.4-11.7-2.1c-0.1-0.2-0.3-0.3-0.4-0.5
			c-2.4-3.7-0.9-9.6,1.7-18.4c2.7-9.1,4.2-13.8,7.9-17.1c1.1-1,2.5-1.9,4.2-2c2.5-0.1,4.9,1.6,6.1,3.4c0.8,1.3,1.5,3.2-0.1,11.8
			c-0.5,2.7-1.3,6.4-2.7,10.8c3.4,0.2,6-0.1,7.8-0.3C787.4,486,790.3,484.9,792.1,486.5z"/>
	</g>
	<g style="clip-path:url(#SVGID_00000179647446817381812020000002808389480339660976_);">
		<g>
			<g>
				<path class="st11" d="M271.7,495c0,0,5.6,0.5,6.5,0.5c0,0,0.5,0,1.3-0.4c0,0,2.6-1.7,3.2-2.2c0.6-0.5,1.5-1.3,2-1.4
					c0.6-0.1,3.4-0.1,3.8,0s4.2,1.1,4.4,1.4c0.2,0.2-0.2,0.6-0.2,0.6s0.4,0.2,0.4,0.4c0,0.2-0.7,0.5-0.7,0.5s-0.2,0.9-0.8,0.9
					c0,0-0.1,0.6-0.8,0.7c-0.6,0-1.9-0.1-1.9-0.1s-1.4,0.3-1.9,0.3c0,0-0.5,0.7-1.2,1.3c-0.7,0.6-2.1,2.1-3.1,3
					c-1,0.9-1.7,0.9-3,0.9c-1.3,0-4,0.2-5.7,0.7c-4.9,1.3-4.6,0.4-5-2.8C268.7,495.6,271.7,495,271.7,495z"/>
				<g>
					<g>
						<g>
							<path class="st30" d="M291.7,495.2c-3.2-0.6-2.9-0.6-6.1,0c0.7-0.5,1.9-0.8,2.8-0.8C289.6,494.7,290.8,494.9,291.7,495.2z"/>
							<path class="st30" d="M292.6,494.4c-1.4-0.2-3.1-0.7-4.5-0.8c-0.9,0.1-1.9,0.2-2.7,0.3c0.8-0.4,2-0.6,3-0.6
								C289.7,493.5,291.3,493.9,292.6,494.4z"/>
							<path class="st30" d="M292.8,493.5c-1.4-0.3-3.1-0.7-4.4-1c-1.2,0-2.3,0.2-3.5,0.1c1-0.3,2.3-0.4,3.4-0.4
								C289.8,492.6,291.5,493,292.8,493.5z"/>
						</g>
					</g>
				</g>
			</g>
		</g>
		<path class="st4" d="M277.1,493.1c0.5,0.5,0.8,1.1,0.9,1.4c1.1-1.3,2.3-2.6,3.4-3.9c1.1,4.1,3.4,14,0.3,15.6
			c-0.8,0.4-2.3,0.5-5.4-1.9c-0.4,0.2-1,0.5-1.8,0.9c-4.9,2.2-7.9,1.8-18.8,2.2c-5.8,0.2-9.4,0.4-11.7-2.1c-0.1-0.2-0.3-0.3-0.4-0.5
			c-2.4-3.7-0.9-9.6,1.7-18.4c2.7-9.1,4.2-13.8,7.9-17.1c1.1-1,2.5-1.9,4.2-2c2.5-0.1,4.9,1.6,6.1,3.4c0.8,1.3,1.5,3.2-0.1,11.8
			c-0.5,2.7-1.3,6.4-2.7,10.8c3.4,0.2,6-0.1,7.8-0.3C272.3,492.6,275.3,491.5,277.1,493.1z"/>
	</g>
</g>
</svg>
