<?xml version="1.0" encoding="utf-8"?>
<!-- Generator: Adobe Illustrator 26.0.1, SVG Export Plug-In . SVG Version: 6.00 Build 0)  -->
<svg version="1.1" id="Layer_1" xmlns="http://www.w3.org/2000/svg" xmlns:xlink="http://www.w3.org/1999/xlink" x="0px" y="0px"
	 viewBox="0 0 824 708" style="enable-background:new 0 0 824 708;" xml:space="preserve">
<style type="text/css">
	.st0{clip-path:url(#SVGID_00000123415759067892762340000000318685242404060347_);fill:#FFEAD4;}
	.st1{clip-path:url(#SVGID_00000123415759067892762340000000318685242404060347_);}
	.st2{fill:#F6F0E2;}
	.st3{fill:#FFFFFF;}
	.st4{fill:#E8CAA7;}
	.st5{clip-path:url(#SVGID_00000123415759067892762340000000318685242404060347_);fill:#E8CAA7;}
	.st6{fill:#415CA0;}
	.st7{fill:#345389;}
	.st8{fill:#EBC9AF;}
	.st9{fill:#FCA170;}
	.st10{fill:#EF926A;}
	.st11{fill:#17140C;}
	.st12{fill:#8A5D3B;}
	.st13{fill:#3B2314;}
	.st14{fill:#F49064;}
	.st15{fill:#030202;}
	.st16{fill:#F99C73;}
	.st17{fill:none;stroke:#345389;stroke-width:1.0757;stroke-miterlimit:10;}
	.st18{fill:#3D3D3D;}
	.st19{fill:#A34F2E;}
	.st20{clip-path:url(#SVGID_00000123415759067892762340000000318685242404060347_);fill:#7C3A25;}
	.st21{fill:#E80F2E;}
	.st22{fill:#1021B5;}
	.st23{clip-path:url(#SVGID_00000123415759067892762340000000318685242404060347_);fill:#4F4E4E;}
	.st24{clip-path:url(#SVGID_00000123415759067892762340000000318685242404060347_);fill:#3A3A3A;}
	.st25{clip-path:url(#SVGID_00000123415759067892762340000000318685242404060347_);fill:#BCA18C;}
	.st26{fill:#D5B792;}
	.st27{opacity:0.5;}
	.st28{fill:#F7DFC6;}
	.st29{opacity:0.5;fill:#F7DFC6;}
	.st30{fill:#C5B68E;}
	.st31{fill:#C4B58D;}
	.st32{fill:#EACFAF;}
	.st33{opacity:0.5;fill:#EACFAF;}
	.st34{opacity:0.3;fill:#E8CAA7;}
	.st35{fill:#DFC39D;}
	.st36{fill:#CCB991;}
	.st37{fill:none;stroke:#C5B68E;stroke-width:8.122386e-02;stroke-miterlimit:10;}
	.st38{fill:#C4B596;}
	.st39{fill:#F7B89F;}
	.st40{fill:#D19182;}
	.st41{fill:#726562;}
	.st42{fill:#CCA279;}
	.st43{fill:#3F3F3F;}
	.st44{fill:#515151;}
	.st45{fill:#1E1E1E;}
	.st46{fill:#DC2428;}
	.st47{fill:none;stroke:#E2DCDC;stroke-width:2;stroke-miterlimit:10;}
	.st48{fill:#E09A61;}
	.st49{fill:none;}
	.st50{fill:#C47947;}
	.st51{fill:#847977;}
	.st52{fill:#EFB78E;}
</style>
<g>
	<g>
		<g>
			<defs>
				<path id="SVGID_1_" d="M85,577c-2.4-3.5-48.7-52.1-44.2-118.7c4-57.6,43.4-95.4,111.5-160.9c67.9-65.2,72.4-47.9,113.3-95
					c63.1-72.8,61.6-124.8,120-149.6c12.4-5.3,48.2-20.5,82.1-6.7c44.3,18,55.2,70.8,109.7,101.7c51.8,29.3,73.4,4.9,106,33.3
					c45.6,39.6,33.1,116.6,48.9,177.5c14.8,57.3,57.9,108.7,50.2,167.6c-6,45.4-42.4,80.6-82.4,95.6s-83.5,13.9-125.8,12.5
					c-95.7-3.1-192.4-9.1-287.6-5.3C224.9,631.5,128,639.1,85,577z"/>
			</defs>
			<clipPath id="SVGID_00000071561567586494340570000001479960654654898857_">
				<use xlink:href="#SVGID_1_"  style="overflow:visible;"/>
			</clipPath>
			<path style="clip-path:url(#SVGID_00000071561567586494340570000001479960654654898857_);fill:#FFEAD4;" d="M782.5,526.1
				c-6,45.4-42.4,80.6-82.4,95.6c-40,15.1-83.5,13.9-125.8,12.5c-95.7-3.1-192.4-9.1-287.6-5.3c-53.1,2.1-131.9,8-180.4-29.5
				c-8-6.2-15.2-13.6-21.3-22.5c-42.8-53.9-44.8-100-44.2-118.7c1.9-53.2,32.6-96,65.5-129.2c16.2-16.3,32.9-30.3,46.9-42.1
				c12.8-10.7,26.9-19.7,42.9-30.8c26.3-18.2,31.2-20.4,41.9-29.6c15.1-13.1,24.9-25.4,32.3-35.3c52.6-69.7,56-101.9,90-126.2
				c24.9-17.8,69.4-31.2,107.3-19.1c52.7,16.8,46.6,66,109.7,101.7c51.8,29.3,73.4,4.9,106,33.3c45.6,39.6,33.1,116.6,48.9,177.5
				C747.2,415.8,790.3,467.2,782.5,526.1z"/>
			<g style="clip-path:url(#SVGID_00000071561567586494340570000001479960654654898857_);">
				<path class="st2" d="M133.4,639.6c-5.7-12.2-14-34.1-14.9-62.5c-0.9-28.6,6.1-51,11.1-63.6c8.7,10.5,20.9,27.9,29.2,51.9
					c9.8,28.3,9.8,53,8.7,67.5C156.1,635.2,144.8,637.4,133.4,639.6z"/>
				<path class="st3" d="M149.9,636.6c-4.7-9.4-7.2-19.7-9.4-29.9c-6.3-30.7-9.1-61.9-11-93.1c2.1,31.2,5.2,62.4,11.8,93
					c2.3,10.1,4.9,20.3,9.6,29.5C150.9,636,149.9,636.6,149.9,636.6L149.9,636.6z"/>
			</g>
			<g style="clip-path:url(#SVGID_00000071561567586494340570000001479960654654898857_);">
				<path class="st4" d="M186.2,633.4c3.9-19.1,8.9-52.8,5.7-94.6c-3.3-42-13.5-73.3-20.2-90.6c-7.1,17.3-16.6,45.2-21.3,82.2
					c-5.6,43.5-2,79.6,1.3,100.6C163.1,631.8,174.7,632.6,186.2,633.4z"/>
				<path class="st3" d="M168.3,632c3.4-14.9,4.4-30.3,5.2-45.6c2-46,0.6-92.2-1.8-138.2c3,53.7,5.7,107.6,1.4,161.3
					c-0.7,7.7-1.7,15.3-3.4,22.9L168.3,632L168.3,632z"/>
			</g>
			<g style="clip-path:url(#SVGID_00000071561567586494340570000001479960654654898857_);">
				<path class="st2" d="M206.9,633.4c2.3-11.1,5.2-30.7,3.3-55c-1.9-24.4-7.8-42.6-11.8-52.7c-4.1,10.1-9.7,26.3-12.4,47.8
					c-3.2,25.3-1.1,46.3,0.7,58.5C193.5,632.4,200.2,632.9,206.9,633.4z"/>
				<path class="st3" d="M196.4,632.6c1.4-6.3,2.2-13.4,2.6-19.9c1.8-29,0.8-58.1-0.7-87c1.7,29,2.9,58.1,1.3,87.1
					c-0.4,6.5-1.2,13.6-2.5,20C197.2,632.8,196.4,632.6,196.4,632.6L196.4,632.6z"/>
			</g>
			<path style="clip-path:url(#SVGID_00000071561567586494340570000001479960654654898857_);fill:#E8CAA7;" d="M106.4,329.2v270.3
				c-8-6.2-15.2-13.6-21.3-22.5c-42.8-53.9-44.8-100-44.2-118.7C42.7,405.1,73.5,362.3,106.4,329.2z"/>
			<g style="clip-path:url(#SVGID_00000071561567586494340570000001479960654654898857_);">
				<g>
					<g>
						<path class="st6" d="M598.1,433.9c-1.1,12.1-4.8,21.3-7.6,26.7c0,7.4,0,14.7,0.1,22.1c-12.8-0.2-26.1-0.1-40,0.4
							c-14.9,0.5-29.2,1.4-42.9,2.6c0.1-2.4,0.1-4.9,0.1-7.4c0-2.4,0-4.8,0-7.1c-6.8-0.2-13.6-0.5-20.4-0.7c-1.6,0-3.1-0.8-4-2
							c-0.7-0.9-1.1-2-1.2-3.1c0-0.5-0.1-1,0-1.6c0.9-11.5,2.6-21.1,4.1-28.5c1-3.8,6.2-22.6,11-31c1.2-2.1,2.1-3.1,2.7-3.7
							c2.5-2.5,4.8-3.1,11.8-6.1c1.3-0.5,3.1-1.3,5.2-2.3c0,0,7-3.1,17.2-6.1c1.1-0.3,2.1-0.6,3-0.8c1.9-0.6,4.8-1.3,8.3-1.5
							c4.8-0.2,8.2,0.6,15.3,2.7c0.2,0.1,0.3,0.1,0.6,0.2c0,0,0,0,0,0c0.7,0.2,1.2,0.4,1.2,0.4c5.1,1.6,12.3,5.1,12.3,5.1
							c2.1,0.9,4.4,2,6.7,3.3c5.2,2.9,9.5,6.1,12.9,9c0.2,0.2,0.3,0.3,0.4,0.5C596.8,411.1,599.2,421.2,598.1,433.9z"/>
						<polygon class="st3" points="541.1,407.5 544.6,428 546.6,480 547.9,480 550,437.8 555.8,401.3 						"/>
						<path class="st7" d="M541.8,412.1c1.3-1.4,3.3-3.4,6.4-5.1c3.6-2,7-2.6,9.1-2.8c-1.7,2.5-3.3,4.9-5,7.4
							C548.8,411.7,545.3,411.9,541.8,412.1z"/>
						<path class="st7" d="M513.9,426.2c-1.7,9.1-3.4,18.1-5.1,27.2c1.6,0.5,3.1,1,4.7,1.6C513.6,445.4,513.8,435.8,513.9,426.2z"/>
						<path class="st8" d="M560.8,387.1c-2.7,1.7-6.5,4.6-10.1,9.2c-3.2,4.2-5,8.3-6,11.2c-0.3-2.6-1-6.4-3-10.5
							c-2.3-4.9-5.4-8.2-7.4-10c0-0.1,0-0.2,0-0.3c1.1-0.4,2.1-0.7,3-1c1.9-0.7,4.8-1.6,8.3-1.8
							C550.3,383.6,553.8,384.6,560.8,387.1z"/>
						<g>
							<g>
								<g>
									<polygon class="st9" points="560.7,397.2 559.5,384.9 559.4,383.8 559.3,383.1 558.6,376 535.2,376 534.5,383.5 
										534.4,384.2 534.3,385.3 533.1,397.7 									"/>
									<g>
										<path class="st9" d="M569.9,347c0.6-0.2,0.7-0.5,1.2-0.4c0.3,0.1,0.9,0.5,1.1,1c0.2,0.7,0.5,2,0.1,3.5
											c-0.1,0.5-0.5,2.4-0.8,3.2c-0.4,1-0.8,4.1-1.1,4.8c-0.3,0.7-0.9,3.1-1.4,3.7c-0.4,0.7-0.8,1.8-2.2,2
											c-0.5,0.1-0.9-0.1-0.9-0.1s-0.9-8.4-0.7-10c0.2-1.7,1.7-5.1,1.9-5.9C567.4,348,569.9,347,569.9,347z"/>
										<path class="st9" d="M523.9,347.5c-0.6-0.2-0.7-0.5-1.2-0.4c-0.3,0.1-0.9,0.5-1.1,1c-0.2,0.7-0.6,2-0.2,3.5
											c0.1,0.5,0.5,2.5,0.8,3.3c0.4,1,0.7,4.1,1,4.8c0.3,0.7,0.9,3.1,1.3,3.7c0.4,0.7,0.8,1.8,2.1,2c0.5,0.1,0.9-0.1,0.9-0.1
											s1-8.3,0.8-10c-0.1-1.7-1.6-5.1-1.8-5.9C526.4,348.6,523.9,347.5,523.9,347.5z"/>
										<path class="st10" d="M559.3,383.1c-0.8,0.8-1.5,1.6-2,2c-1.2,1.1-5.5,4.4-5.8,4.7c-0.7,0.7-3,1-5.3,1
											c-2.3-0.1-4.5-0.5-5.2-1.2c-0.3-0.3-4.5-3.8-5.6-5c-0.2-0.2-0.6-0.6-0.9-1l0.8-7.5h23.3L559.3,383.1z"/>
										<path class="st9" d="M546.2,387.5c-2.3-0.1-4.6-0.5-5.3-1.3c-0.3-0.3-4.5-3.8-5.6-5c-1-1-3.7-4.1-4.2-5
											c-0.6-0.9-1.4-2.2-2.1-3.2c-0.7-0.9-0.8-2.4-1-3c-0.2-0.5-0.4-2.7-0.4-3.5c0-0.7-0.2-4.3-0.5-5.6
											c-0.2-1.3-0.3-2.1-0.5-3.5c-0.3-1.5-0.2-4-0.2-5.2c0-0.8-0.1-2.5-0.1-2.5s-0.8-7.7-1-9.8c-0.2-2,1.9-11.8,2.8-13.3
											c0.9-1.5,6.5-3.5,14.1-4.8c1.8-0.3,3.4-0.4,4.9-0.5l0.3-0.1c1.8,0.1,3.8,0.4,6.1,0.9c7.6,1.6,13.1,3.9,13.9,5.5
											s2.4,11.4,2.1,13.4s-1.5,9.7-1.5,9.7s-0.2,1.7-0.2,2.5c-0.1,1.2-0.1,3.7-0.5,5.2c-0.3,1.4-0.4,2.2-0.7,3.5
											c-0.3,1.3-0.7,4.9-0.7,5.6s-0.4,2.9-0.6,3.4c-0.2,0.5-0.5,2-1.2,2.9c-0.7,0.9-1.6,2.2-2.2,3.1c-0.6,0.8-3.4,3.8-4.5,4.8
											c-1.2,1.1-5.5,4.4-5.8,4.7C550.8,387.2,548.5,387.6,546.2,387.5L546.2,387.5z"/>
										<path class="st11" d="M522.7,326.4c0.7-2.5,2.2-4.6,3.5-6.5c0.8-1.3,2.4-2.4,4.3-3.3c4.5-2.2,18.6-3.8,22.4-3.2
											c3.3,0.5,6.5,1.2,9.2,2.5c3.5,1.7,5.4,5.4,6.4,8.2c2.3,1.7,3.2,3.5,3.7,4.7c0.4,1,0.5,1.8-0.7,10.9
											c-0.2,1.6-0.5,3.9-1.2,6.8c-0.4,1.6-0.5,2.4-1,3.3c-0.5,1-1.3,2.6-1.6,3.5c-0.3,0.9-0.4,2.2-0.4,2.2
											c-0.2,0.1-0.5,0.2-0.7,0.3c0-4.3-1-7.5-2.5-10c-0.5-0.9-0.9-1.2-1.3-2.1c-1.6-3.3-0.8-6.9,0.2-9.6
											c-4.5,2.5-13.7,6.8-25,5.5c-2.7-0.3-5.2-0.9-7.3-1.6c0,0.4,0.1,0.9,0,1.6c-0.1,1.3-0.5,2.3-0.7,2.7
											c-0.7,1.6-1.2,3.3-1.8,4.9c-1.1,3.4-1.3,6.4-1.3,8.4c-0.2,0.1-0.5,0.1-0.7,0.2c0,0-0.1-1.3-0.4-2.2
											c-0.3-0.9-1.1-2.5-1.6-3.5c-0.5-1-1-2.8-1-3.3c0-0.5-0.5-2.7-0.8-4.2c-0.3-1.4-0.5-2.8-0.5-4.2c-0.1-1.4-0.1-2.8,0-3.9
											c0-1.2,0.1-2.4,0.2-3.6C522.3,328.7,522.6,326.9,522.7,326.4z"/>
									</g>
									<g>
										<path class="st3" d="M541.4,356.6c-0.7,0.4-2.2,1.2-4.2,1.3c-2.6,0-4.5-1.3-5.1-1.8c0.8-1,1.8-1.7,2.9-2
											c1.1-0.4,2.2-0.4,3.3,0c0.3,0.1,0.5,0.2,0.7,0.3C540.3,355,541.1,356.1,541.4,356.6z"/>
										<path class="st12" d="M538.8,355.6c0,1.3-1.4,2.3-2.6,2.2c-1.2-0.1-2.4-1.3-2.3-2.6c0-0.4,0.2-0.8,0.5-1.1
											c1.1-0.4,2.2-0.4,3.3,0c0.3,0.1,0.5,0.2,0.7,0.3C538.6,354.7,538.8,355.1,538.8,355.6z"/>
										<path d="M534.6,355.8c0,0.7,0.6,1.3,1.3,1.3c0.8,0,1.5-0.7,1.4-1.5c0-0.8-0.8-1.4-1.6-1.3
											C535.1,354.4,534.5,355,534.6,355.8z"/>
										<path class="st3" d="M536.7,355.4c0,0.2,0.2,0.3,0.3,0.3c0.2,0,0.3-0.2,0.3-0.3c0-0.2-0.2-0.3-0.3-0.3
											S536.7,355.2,536.7,355.4z"/>
										<path class="st13" d="M542,348.5c-5.9-1.1-10.4-1-11.6-0.2c-0.8,0.6-1.3,1.3-1.3,1.3c-0.4,0.7-0.6,1.3-0.7,1.7
											c0.5-0.3,1.2-0.7,2.1-1c1.3-0.4,2.6-0.6,5.7-0.3c1.5,0.1,3.5,0.4,5.9,0.8c0.1-0.2,0.1-0.5,0.1-0.7
											C542.2,349.5,542.1,348.9,542,348.5z"/>
										<path class="st13" d="M550.7,348.5c5.9-1.1,10.4-1,11.6-0.2c0.8,0.6,1.3,1.3,1.3,1.3c0.4,0.7,0.6,1.3,0.7,1.7
											c-0.5-0.3-1.2-0.7-2.1-1c-1.3-0.4-2.6-0.6-5.7-0.3c-1.5,0.1-3.5,0.4-5.9,0.8c-0.1-0.2-0.1-0.5-0.1-0.7
											C550.5,349.5,550.6,348.9,550.7,348.5z"/>
										<path class="st13" d="M541.4,356.6c-0.4-0.4-2.1-2.1-4.8-2.2c-2.4-0.1-4.1,1.3-4.6,1.7c0.1-0.1,1.8-2.8,4.8-2.6
											C539.8,353.7,541.3,356.4,541.4,356.6z"/>
									</g>
									<g>
										<path class="st3" d="M552.1,356.9c0.8,0.4,2.5,1.1,4.7,1c2.9-0.1,4.8-1.5,5.5-2.1c-1-0.9-2.1-1.5-3.3-1.8
											c-1.2-0.3-2.5-0.3-3.6,0.2c-0.3,0.1-0.5,0.2-0.8,0.3C553.2,355.2,552.4,356.4,552.1,356.9z"/>
										<path class="st12" d="M553.8,355.8c0.1,1.3,1.6,2.2,3,2c1.3-0.2,2.6-1.5,2.3-2.7c-0.1-0.4-0.3-0.8-0.6-1.1
											c-1.2-0.3-2.5-0.3-3.6,0.2c-0.3,0.1-0.5,0.2-0.8,0.3C553.9,354.9,553.8,355.3,553.8,355.8z"/>
										<path d="M557.5,355.6c0,0.8-0.6,1.4-1.4,1.4c-0.8,0-1.4-0.6-1.4-1.4c0-0.8,0.6-1.4,1.4-1.4
											C556.9,354.2,557.5,354.8,557.5,355.6z"/>
										<path class="st3" d="M557.6,355.3c0,0.2-0.1,0.3-0.3,0.3s-0.3-0.1-0.3-0.3c0-0.2,0.1-0.3,0.3-0.3S557.6,355.1,557.6,355.3
											z"/>
										<path class="st13" d="M552.1,356.9c0.4-0.4,2.2-2.2,5.1-2.5c2.7-0.2,4.6,1.1,5.1,1.4c-0.1-0.1-2.2-2.7-5.5-2.3
											C553.6,353.9,552.2,356.7,552.1,356.9z"/>
									</g>
									<g>
										<g>
											<path class="st14" d="M550.4,367.9c0.1,0.2-1.6,1.9-3.6,1.7c-1.6-0.1-2.9-1.4-2.8-1.6c0.1-0.2,1.1,0.6,2.8,0.7
												C548.9,368.8,550.3,367.8,550.4,367.9z"/>
										</g>
									</g>
									<g>
										<path class="st14" d="M549.1,376.6c-0.9,0-3.8,0.1-7.5-0.4c-1.3-0.2-1.9-0.3-1.9-0.4c0-0.4,3.6-0.8,7.2-0.8
											c3.4,0.1,6.9,0.7,6.9,1C553.8,376.4,551,376.6,549.1,376.6z"/>
									</g>
									<g>
										<path class="st14" d="M549.6,379.5c-0.2,0.2-1.3,1-2.8,1c-1.4,0-2.4-0.8-2.6-1c0.8,0,1.7,0.1,2.6,0.1
											C547.8,379.6,548.7,379.6,549.6,379.5z"/>
									</g>
									<g>
										<path class="st13" d="M546.5,371.4c0.1,0.2,0.3,0.7,0.4,1.2c0,0.5-0.1,1-0.1,1.2c-1.5,0.1-2.8,0-3.6-0.1
											c-1.8-0.2-2.3-0.5-3.5-0.4c-1.9,0.3-2.8,1.5-3.1,1.2c-0.2-0.3,0.5-2,2-2.7c1.5-0.7,2.5,0.1,5.3-0.1
											C545,371.8,546,371.6,546.5,371.4z"/>
									</g>
									<g>
										<path class="st13" d="M547.6,371.4c-0.1,0.2-0.3,0.7-0.4,1.2c0,0.5,0.1,1,0.1,1.2c1.5,0.1,2.8,0,3.6-0.1
											c1.8-0.2,2.3-0.5,3.5-0.4c1.9,0.3,2.8,1.5,3.1,1.2c0.2-0.3-0.5-2-2-2.7c-1.5-0.7-2.5,0.1-5.3-0.1
											C549.1,371.8,548.1,371.6,547.6,371.4z"/>
									</g>
								</g>
								<path class="st15" d="M567.6,352.2c-0.2,0-0.4,0.1-0.6,0.1c-0.2,0-0.3,0-0.5,0l0,0c-0.8-0.1-1.4-0.4-1.7-0.6
									c0,0-1.6-1-2.5-1.5c-0.5-0.3-1.1-0.5-1.6-0.6c-1.6-0.5-3.1-0.4-3.7-0.4c-0.3,0-0.7,0-1.2,0.1l0,0c-0.7,0.1-1.7,0.4-2.7,0.8
									c-1,0.4-1.7,0.9-2.2,1.3c-0.3,0.3-0.7,0.4-1,0.2c-0.3-0.1-0.5-0.4-0.6-0.6c-0.1-0.1-0.2-0.2-0.3-0.2l-4.1-0.1
									c-0.1,0-0.2,0.1-0.3,0.2c-0.1,0.2-0.3,0.4-0.6,0.5c-0.4,0.1-0.7,0-1-0.3c-0.5-0.4-1.2-0.9-2.2-1.4c-0.8-0.4-1.6-0.7-2.3-0.8
									l0,0c-0.7-0.2-1.3-0.2-1.6-0.3c-0.3,0-1-0.1-1.7,0c-1,0.1-2.3,0.3-3.5,0.9c-1,0.5-2.6,1.5-2.6,1.5c-0.1,0.1-0.3,0.2-0.5,0.3
									c-0.2,0.1-0.4,0.2-0.6,0.2c-0.2,0-0.3,0.1-0.5,0.1c-0.2,0-0.4,0-0.5,0c-0.2,0-0.4-0.1-0.6-0.1c0,0.1,0,0.3,0,0.4l0,0
									c0,0.7-0.1,1.3-0.1,2c0.3,0,0.6,0,0.9,0.1c0.1,0,0.2,0,0.3,0.1c0.1,0,0.2,0.1,0.3,0.2c0.2,0.2,0.1,0.5,0.1,0.6
									c0,0.2,0,0.4,0,0.6c0.1,0.6,0.2,1.4,0.5,2.3c0,0,0,0,0,0c0.2,0.6,0.5,1.3,0.8,1.9c0.3,0.5,0.6,1,1,1.6
									c0.4,0.5,0.9,1,1.5,1.5c2.3,1.6,4.8,1.4,5.4,1.4c0.6-0.1,2.6-0.3,4.4-1.9c1.3-1.2,1.8-2.6,2.3-3.8c0.6-1.6,0.8-2.9,0.8-3.9
									c0-0.1,0-0.1,0-0.2c-0.1-0.2-0.4-0.9-0.1-1.4c0.2-0.3,0.6-0.4,1-0.6c0.4-0.1,2.3-0.1,2.8,0c0.4,0.1,0.8,0.2,1,0.6
									c0.3,0.5,0,1.2-0.1,1.4c0,0,0,0.1,0,0.1c0,1,0.1,2.3,0.7,3.9c0.4,1.2,0.9,2.6,2.2,3.9c1.7,1.6,3.7,2,4.3,2.1
									c0.7,0.1,3.1,0.4,5.5-1.2c1.4-0.9,2.2-2.1,2.7-3c1.1-1.9,1.5-3.7,1.6-4.7c0-0.1,0-0.4,0.2-0.6c0.1-0.1,0.2-0.2,0.3-0.2
									c0,0,0.1,0,0.1,0c0.1,0,0.3-0.1,0.4-0.1c0.2,0,0.4,0,0.6,0C567.6,353.9,567.6,353.1,567.6,352.2z M543.2,356.2
									c-0.2,2.4-1.5,4-1.9,4.5c-0.5,0.5-1.3,1.5-2.8,2.1c-3,1.1-5.7-0.6-6-0.8c-0.3-0.2-1.8-1.2-2.6-2.9c-0.3-0.6-0.5-1.2-0.6-1.9
									c-0.1-0.7-0.1-1.3,0-1.9c0.1-0.8,0.3-1.4,0.5-1.8c0.2-0.4,0.9-2,2.5-2.9c1-0.6,1.9-0.7,3-0.7c0.4,0,0.8,0,1.3,0l0.1,0
									c1.2,0.1,2.8,0.1,4.3,1.1c0.5,0.3,1.4,0.9,2,2C543.3,354.3,543.3,355.5,543.2,356.2z M564.5,357.8c-0.6,3-3,4.4-3.4,4.7
									c-0.4,0.2-3.1,1.8-6,0.6c-1.5-0.6-2.3-1.6-2.8-2.2c-0.4-0.5-1.7-2.1-1.8-4.6c0-0.7-0.1-1.9,0.6-3.1c0.6-1.1,1.5-1.6,2-2
									c1.6-1,3.2-1,4.4-1c0.4,0,0.7,0,1.1,0l0,0c0.7,0,1.4,0.1,2.1,0.3c0.4,0.1,0.7,0.3,1.1,0.5c1.6,1,2.2,2.5,2.4,3
									C564.5,354.7,564.9,356.1,564.5,357.8z"/>
							</g>
							<path class="st7" d="M559.7,385.9c-1.2,1.5-2.5,3.1-3.8,4.7c-1.9,2.2-3.8,4.2-5.7,6.1c-0.3,16.3-0.7,32.6-1,48.8
								c-0.3,16.3-1.2,28.5-1,28.5c0.2,0,0.9-7.9,3.1-41.9c3.2-6.3,6.4-12.7,9.6-19c-1.9-0.9-3.8-1.8-5.7-2.7
								c1.9-1.8,3.7-3.7,5.6-5.5c-0.1-2.8,0-6.4,0.8-10.5c0.6-2.8,1.3-5.2,2.1-7.2C562.4,386.8,561,386.4,559.7,385.9z"/>
							<path class="st7" d="M534.2,386.1c-1.8,0.6-3.6,1.2-5.5,1.7c1.1,2.4,2.3,5.4,3.2,8.9c1,4.1,1.3,7.8,1.4,10.7
								c2.3,0.5,4.6,1,7,1.5c-1.9,1.4-3.8,2.7-5.8,4.1c3.3,6,6.5,12.1,9.8,18.1c1.2,35.6,1.8,43.2,2.1,43.2c0.5,0,1.2-15.5,0.5-28.9
								c-0.7-12.6-1.4-25.2-2.1-37.8c-1.4-4.5-3.4-9.7-6.6-15.2C536.8,390,535.5,387.9,534.2,386.1z"/>
							<path class="st7" d="M573.5,466.5c-13.9,2.5-29.9,4.5-47.5,5.2c-13.3,0.5-25.7,0.3-36.9-0.4c-1.7-0.2-2.9-0.8-3.6-1.1
								c-0.7-0.4-1.4-0.8-2.1-1.5c-0.7-0.9-1.1-2-1.2-3.1c5.8,6.8,27.7,3.6,44.9,3.2c13.4-0.3,25.3-1.7,35.6-3.5
								c-0.8-1.1-1.6-2.4-2.4-3.8c-0.9-1.5-1.6-3-2.2-4.3c-7.4,0.4-15.6,0.5-24.4,0c-7.3-0.4-14-1.1-20.2-2c-1.5-1.3-2.9-2.6-4.4-4
								c10.3,1.4,21.5,2.5,33.7,2.9c8.4,0.3,16.4,0.2,23.9-0.1c0.7,1.1,1.4,2.3,2.1,3.6C570.7,460.5,572.2,463.6,573.5,466.5z"/>
							<path class="st6" d="M482.2,465.5c12.5,2.1,27.7,3.6,44.9,3.2c13.4-0.3,25.3-1.7,35.6-3.5c-0.8-1.1-1.6-2.4-2.4-3.8
								c-0.9-1.5-1.6-3-2.2-4.3c-7.4,0.4-15.6,0.5-24.4,0c-7.3-0.4-14-1.1-20.2-2"/>
						</g>
						<g>
							<g>
								<path class="st16" d="M551.4,401.3c-0.2-0.5-0.4-1-0.5-1.2c0-0.1-0.1-0.2-0.1-0.2c0,0,0,0,0,0c0-0.1,0.2-0.5,0.3-0.6
									c0.1-0.1,0.1-0.2,0.2-0.3c0.9-1.6,1.7-3.4,1.7-5.3v-0.1l0-0.2c0-0.6,0-1.2,0-1.8c0,0,0,0,0,0c0.1-1.7,0.5-3.4,1.8-4.6
									c0.1-0.1,0.3-0.3,0.5-0.4c0.6-0.5,1.2-1,1.2-1.7c0-0.7-0.7-1.2-1.4-1.2c-0.6,0-1.3,0.2-2,0.7c-2.3,1.6-3.5,3.7-3.6,5.8
									c0,0.1-0.1,0.1-0.1,0.2c-0.1,0-0.2,0-0.2-0.1c-0.7-2.3-1.5-5-3.1-7c-1.6-1.8-4.4-3.1-6.8-2.1c-0.2,0.1-0.3,0.2-0.5,0.3
									c-0.4,0.3-0.8,0.7-0.7,1.2c0,0.2,0.1,0.4,0.2,0.5c0,0,0,0,0,0c0,0,0,0.1,0,0.1c0,0.1,0.1,0.2,0,0.2c0,0.2-0.1,0.3-0.2,0.4
									c0,0-0.1,0.1-0.1,0.1c-0.1,0.1-0.2,0.1-0.2,0.1c-0.3,0.1-0.7,0.2-1,0.3c-0.4,0.1-1.2,0.4-1.4,1c0,0.1-0.1,0.2-0.1,0.3
									c0,0.1,0,0.3,0.1,0.4v0c0,0.1,0,0.1,0,0.2c0,0.3-0.2,0.6-0.5,0.7c0,0-0.1,0-0.1,0h0c0,0,0,0,0,0c-0.9,0-1.2,0.1-1.9,0.4
									c-0.3,0.1-1.7,1-1.7,2.1c0,0.1,0,0.2,0.1,0.3c0,0,0,0,0,0c0,0,0,0.1,0,0.1c0,0.2,0,0.4-0.1,0.5c0,0.1-0.1,0.1-0.1,0.1
									c0,0,0,0-0.1,0c0,0,0,0-0.1,0c-0.3,0.2-0.6,0.6-0.7,1c-0.3,0.8,0.2,1.7,0.9,2.2c0.1,0.1,0.2,0.2,0.3,0.3
									c0.6,0.5,1.4,1.1,2.1,1.3c0.1,0,0.1,0.1,0.1,0.1c0.9,3,3.1,5.6,5.2,8c0.3,0.3,0.6,0.6,0.9,0.9c0.2,0.2,0.4,0.4,0.7,0.6
									c0.2,0.2,0.4,0.4,0.4,0.4c0.3,0.3,0.9,1,2.3,2.6c1.1-0.1,2.9-0.5,4.8-1.5c2.2-1.2,3.6-2.7,4.4-3.6
									C551.9,402.4,551.7,401.8,551.4,401.3z"/>
								<path class="st14" d="M543.8,409.5l1.3,3.4l1.6,4.5l8.7-8.3c-0.5-0.6-1-1.2-1.2-1.9c-0.1-0.3-0.3-0.7-0.4-1.2c0,0,0,0,0,0
									c-0.1-0.2-0.3-0.5-0.4-0.7c-0.2-0.5-0.6-1.4-1-2.3c-0.9,0.8-2.1,1.7-3.5,2.6c-2.1,1.3-4.1,2-5.7,2.5
									C543.3,408.6,543.5,409.1,543.8,409.5z"/>
							</g>
							<g>
								<path class="st14" d="M538,384.1c1.7-0.6,3.3-0.2,5,0.2c-1.6-0.4-3.4-1.2-4.8-1C538.4,383.6,538.2,384,538,384.1z"/>
							</g>
							<g>
								<path class="st14" d="M534.7,386.9c0.7,0,1.8,0,3.1,0.2c1.1,0.1,1.8,0.3,1.8,0.3c0,0-0.7-0.3-4.3-1.3
									C535.4,386.5,535.1,386.9,534.7,386.9z"/>
							</g>
							<g>
								<path class="st14" d="M531,390.5c0.7,0,1.5,0,2.4,0c1.1,0.1,2.1,0.3,2.9,0.6c-0.6-0.3-1.5-0.7-2.6-1c-1-0.2-1.9-0.3-2.6-0.3
									c0,0.1,0.1,0.2,0,0.4C531.1,390.4,531.1,390.4,531,390.5z"/>
							</g>
						</g>
						<path class="st6" d="M540.3,410.4c2.3-0.8,5-1.8,7.9-3.4c3.1-1.7,5.6-3.5,7.5-5.1c7.4,12.7,14.9,25.4,22.3,38.1
							c0.1-7,0.2-13.9,0.3-20.9c0.5,7.8,1,15.6,1.5,23.5c3.3,4.9,6.5,9.7,9.8,14.6c3.3-6.3,5.1-11.8,6-15.8c0,0,4.4-18.5-0.9-36.2
							c0-0.2-0.1-0.2,0-0.2c0.7,2.1,1.5,4.6,2.2,7.5c1.2,5.4,1.7,11.9,1.8,13.1c0,0.2,0,0.5,0.1,0.9c0,0,0.3,5.2,0.3,10.3
							c-0.2,19.9-0.3,35.6-8.1,39.4c-3.2,1.6-6.8,0.6-8.6,0.1C560.3,470,543,418.5,540.3,410.4z"/>
						<g>
							<path class="st7" d="M555.7,401.9c8.2,11.7,16.6,24.8,24.1,36.9c0,0-2.8,0.7-2.8,0.7c0.4-5.2,1-12.5,1.5-17.6
								c0,0,3.2,0.2,3.2,0.2c-0.1,5-0.3,15.1-0.4,20.1c0,0-0.2-0.8-0.2-0.8c1.6,2.5,3.1,5.1,4.7,7.6c1.6,2.5,3.1,5.1,4.6,7.7
								c0,0-1.6,0.2-1.6,0.2c2.2-5.2,4.5-10.4,6.8-15.5c-1.8,5.9-3.7,11.8-5.8,17.7c0,0-1-1.4-1-1.4c-3.5-4.9-6.9-9.8-10.2-14.7
								c0,0-0.2-0.3-0.2-0.3l0-0.4c0-5,0-15.1,0-20.1c0,0,3.2,0.2,3.2,0.2c-0.6,6.9-1.5,15.4-2.1,22.3c0,0-2.4-4.1-2.4-4.1
								C570,428.1,562.3,414.6,555.7,401.9L555.7,401.9z"/>
						</g>
						<path class="st17" d="M598.7,425.5"/>
					</g>
				</g>
			</g>
			<g style="clip-path:url(#SVGID_00000071561567586494340570000001479960654654898857_);">
				
					<rect x="297.7" y="565.2" transform="matrix(-1.836970e-16 1 -1 -1.836970e-16 961.7036 180.8024)" class="st18" width="185.6" height="12.1"/>
				
					<rect x="481.7" y="392.9" transform="matrix(-1.836970e-16 1 -1 -1.836970e-16 1116.7217 -3.1913)" class="st19" width="156.6" height="327.8"/>
				
					<rect x="637.1" y="565.2" transform="matrix(-1.836970e-16 1 -1 -1.836970e-16 1301.137 -158.6309)" class="st18" width="185.6" height="12.1"/>
			</g>
			
				<rect x="337.1" y="474" style="clip-path:url(#SVGID_00000071561567586494340570000001479960654654898857_);fill:#7C3A25;" width="447.7" height="17"/>
			<g style="clip-path:url(#SVGID_00000071561567586494340570000001479960654654898857_);">
				<path class="st3" d="M740.3,473.5c0.7-1.2,1.4-3.1,1.4-5.5c-0.1-2.2-0.8-3.9-1.4-5h56.3c0.8,1.5,1.2,3.1,1.3,4.7
					c0.1,2.5-0.6,4.5-1.3,5.8H740.3z"/>
				<path class="st21" d="M796.3,463.5c0.7,1.3,1.1,2.8,1.1,4.2c0.1,2.2-0.5,4.1-1.1,5.3h-55.2c0.6-1.3,1.1-3,1.1-5.1
					c0-1.8-0.5-3.3-1.1-4.5H796.3 M796.9,462.5c-19.2,0-38.4,0-57.5,0c0.5,0.8,1.7,2.7,1.8,5.5c0.1,3.1-1.3,5.3-1.8,6h57.5
					c0.5-0.9,1.7-3.3,1.5-6.4C798.3,465.2,797.4,463.4,796.9,462.5L796.9,462.5z"/>
			</g>
			<g style="clip-path:url(#SVGID_00000071561567586494340570000001479960654654898857_);">
				<path class="st3" d="M743.9,462c0.7-1.2,1.4-3.1,1.4-5.5c-0.1-2.2-0.8-3.9-1.4-5h56.3c0.8,1.5,1.2,3.1,1.3,4.7
					c0.1,2.5-0.6,4.5-1.3,5.8H743.9z"/>
				<path class="st22" d="M800,451.9c0.7,1.3,1.1,2.8,1.1,4.2c0.1,2.2-0.5,4.1-1.1,5.3h-55.2c0.6-1.3,1.1-3,1.1-5.1
					c0-1.8-0.5-3.3-1.1-4.5H800 M800.6,450.9c-19.2,0-38.4,0-57.5,0c0.5,0.8,1.7,2.7,1.8,5.5c0.1,3.1-1.3,5.3-1.8,6h57.5
					c0.5-0.9,1.7-3.3,1.5-6.4C802,453.7,801.1,451.8,800.6,450.9L800.6,450.9z"/>
			</g>
			
				<rect x="635.1" y="417.5" style="clip-path:url(#SVGID_00000071561567586494340570000001479960654654898857_);fill:#4F4E4E;" width="96.8" height="50.8"/>
			<polygon style="clip-path:url(#SVGID_00000071561567586494340570000001479960654654898857_);fill:#3A3A3A;" points="731.9,474 
				635,474 635,468.3 731.9,468.3 			"/>
			<polygon style="clip-path:url(#SVGID_00000071561567586494340570000001479960654654898857_);fill:#3A3A3A;" points="635.1,474 
				622.5,474 622.5,469.3 635.1,468.3 			"/>
			<path style="clip-path:url(#SVGID_00000071561567586494340570000001479960654654898857_);fill:#BCA18C;" d="M346.1,130.3"/>
			<g style="clip-path:url(#SVGID_00000071561567586494340570000001479960654654898857_);">
				<rect x="367.3" y="205.7" class="st4" width="138.9" height="86.1"/>
				<g>
					<path class="st26" d="M508.3,293.9H365.2v-90.3h143.1V293.9z M369.4,289.7h134.7v-81.9H369.4V289.7z"/>
				</g>
				<g class="st27">
					<g>
						<g>
							<rect x="435.7" y="232.9" class="st4" width="10.8" height="33.7"/>
							<rect x="429.4" y="232.9" class="st28" width="6.3" height="33.7"/>
							<rect x="428.9" y="232.2" class="st4" width="18.1" height="0.7"/>
							<rect x="428.9" y="232.2" class="st28" width="6.8" height="0.7"/>
						</g>
						<g>
							<g>
								<polygon class="st28" points="434.2,228.3 434.2,232.2 431.8,232.2 								"/>
								<polygon class="st29" points="434.2,228.3 434.2,232.2 431.8,232.2 								"/>
							</g>
							<polygon class="st30" points="441.6,228.3 441.6,232.2 444,232.2 							"/>
							<rect x="434.6" y="224.4" class="st4" width="4.2" height="7.8"/>
							<rect x="438.8" y="224.4" class="st4" width="3.5" height="7.8"/>
							
								<rect x="442.3" y="224.4" transform="matrix(-1 -1.224647e-16 1.224647e-16 -1 885.5979 456.5927)" class="st30" width="0.9" height="7.8"/>
							
								<rect x="432.5" y="224.4" transform="matrix(-1 -1.224647e-16 1.224647e-16 -1 867.1423 456.5927)" class="st28" width="2" height="7.8"/>
						</g>
						<g>
							<rect x="436.4" y="218.2" class="st4" width="1.9" height="4.9"/>
							<rect x="438.3" y="218.2" class="st4" width="1.6" height="4.9"/>
							
								<rect x="439.9" y="218.2" transform="matrix(-1 -1.224647e-16 1.224647e-16 -1 880.2376 441.1942)" class="st30" width="0.4" height="4.9"/>
							
								<rect x="435.5" y="218.2" transform="matrix(-1 -1.224647e-16 1.224647e-16 -1 871.8829 441.1942)" class="st4" width="0.9" height="4.9"/>
							<path class="st31" d="M438,223h-1.3v-2.9c0-0.4,0.3-0.7,0.7-0.7l0,0c0.4,0,0.7,0.3,0.7,0.7V223z"/>
							<rect x="435.1" y="217.8" class="st28" width="5.5" height="0.3"/>
							<g>
								<path class="st32" d="M437.9,212.5c0,0-0.2,0-0.2,0.3c0,0.3,0,0.4,0,0.4h0.2h0.2c0,0,0-0.2,0-0.4
									C438.1,212.6,437.9,212.5,437.9,212.5z"/>
								<path class="st32" d="M437.2,213.3c-0.3,0.2-0.5,0.4-0.5,0.9h1.2h1.2c0-0.4-0.3-0.7-0.5-0.9
									C438.2,213.1,437.6,213.1,437.2,213.3z"/>
								<path class="st33" d="M439.1,214.2h-0.5c0-0.3-0.2-0.5-0.4-0.6c-0.3-0.2-0.7-0.2-1,0c-0.2,0.1-0.4,0.3-0.4,0.6h-0.1
									c0-0.4,0.3-0.7,0.5-0.9c0.4-0.2,0.9-0.2,1.3,0C438.9,213.5,439.1,213.7,439.1,214.2z"/>
								<path class="st32" d="M436.6,214.2c-0.6,0.3-1.1,0.8-1.1,1.7h2.4h2.4c0-0.9-0.5-1.4-1.1-1.7
									C438.4,213.8,437.4,213.8,436.6,214.2z"/>
								<path class="st33" d="M440.3,215.9h-0.9c0-0.7-0.4-1.1-0.8-1.3c-0.6-0.3-1.4-0.3-2.1,0c-0.4,0.2-0.8,0.6-0.8,1.3h-0.2
									c0-0.9,0.5-1.4,1.1-1.7c0.8-0.5,1.9-0.5,2.7,0C439.8,214.5,440.3,215,440.3,215.9z"/>
								<g>
									<rect x="435.5" y="215.9" class="st32" width="0.2" height="1.9"/>
									<rect x="437" y="215.9" class="st32" width="0.2" height="1.9"/>
									<rect x="438.6" y="215.9" class="st32" width="0.2" height="1.9"/>
									<rect x="440.1" y="215.9" class="st32" width="0.2" height="1.9"/>
								</g>
							</g>
						</g>
						<g>
							<rect x="439.4" y="220.4" class="st4" width="1" height="2.6"/>
							<rect x="440.4" y="220.4" class="st4" width="0.9" height="2.6"/>
							
								<rect x="441.3" y="220.4" transform="matrix(-1 -1.224647e-16 1.224647e-16 -1 882.8397 443.4361)" class="st30" width="0.2" height="2.6"/>
							
								<rect x="438.9" y="220.4" transform="matrix(-1 -1.224647e-16 1.224647e-16 -1 878.3231 443.4361)" class="st28" width="0.5" height="2.6"/>
							<path class="st28" d="M441.3,219.4c-0.1-0.1-0.2-0.2-0.3-0.3c-0.5-0.4-1.2-0.4-1.6,0c-0.1,0.1-0.2,0.2-0.3,0.3
								c-0.3,0.4-0.3,1-0.3,1h1.4h1.4C441.7,220.4,441.7,219.8,441.3,219.4z"/>
						</g>
						<g>
							<rect x="432.3" y="224.1" class="st30" width="11.2" height="0.3"/>
							<rect x="434.6" y="223" class="st4" width="4.2" height="1.1"/>
							<rect x="438.8" y="223" class="st4" width="3.5" height="1.1"/>
							
								<rect x="442.3" y="223" transform="matrix(-1 -1.224647e-16 1.224647e-16 -1 885.5979 447.1838)" class="st30" width="0.9" height="1.1"/>
							
								<rect x="432.5" y="223" transform="matrix(-1 -1.224647e-16 1.224647e-16 -1 867.1423 447.1838)" class="st28" width="2" height="1.1"/>
						</g>
						<g>
							<path class="st28" d="M435.6,212.6c0-0.2,0-0.5-0.1-0.7c-0.1-0.3-0.2-0.7-0.4-0.7c-0.2,0-0.4,0.4-0.4,0.7
								c-0.1,0.2-0.1,0.5-0.1,0.7l-0.4,10.4h1h1L435.6,212.6z"/>
							<path class="st29" d="M436,223h-0.3l-0.5-10.9c0-0.2,0-0.5-0.1-0.7c0,0,0-0.1,0-0.1c0.2,0,0.3,0.4,0.4,0.7
								c0.1,0.2,0.1,0.5,0.1,0.7L436,223z"/>
						</g>
						<g>
							<g>
								<g>
									<rect x="438.1" y="260.1" class="st30" width="2" height="3.4"/>
									<rect x="438" y="259.6" class="st30" width="2.3" height="0.3"/>
								</g>
								<g>
									<rect x="442.2" y="260.1" class="st30" width="2" height="3.4"/>
									<rect x="442" y="259.6" class="st30" width="2.3" height="0.3"/>
								</g>
							</g>
							<g>
								<g>
									<rect x="438.1" y="253.4" class="st30" width="2" height="3.4"/>
									<rect x="438" y="252.9" class="st30" width="2.3" height="0.3"/>
								</g>
								<g>
									<rect x="442.2" y="253.4" class="st30" width="2" height="3.4"/>
									<rect x="442" y="252.9" class="st30" width="2.3" height="0.3"/>
								</g>
							</g>
							<g>
								<g>
									<rect x="438.1" y="246.8" class="st30" width="2" height="3.4"/>
									<rect x="438" y="246.3" class="st30" width="2.3" height="0.3"/>
								</g>
								<g>
									<rect x="442.2" y="246.8" class="st30" width="2" height="3.4"/>
									<rect x="442" y="246.3" class="st30" width="2.3" height="0.3"/>
								</g>
							</g>
							<g>
								<g>
									<rect x="438.1" y="240.1" class="st30" width="2" height="3.4"/>
									<rect x="438" y="239.6" class="st30" width="2.3" height="0.3"/>
								</g>
								<g>
									<rect x="442.2" y="240.1" class="st30" width="2" height="3.4"/>
									<rect x="442" y="239.6" class="st30" width="2.3" height="0.3"/>
								</g>
							</g>
						</g>
						<g>
							<polygon class="st34" points="446.5,265 435.7,265.5 435.7,264.5 446.5,264 							"/>
							<polygon class="st34" points="446.5,258.3 435.7,258.8 435.7,257.9 446.5,257.3 							"/>
							<polygon class="st34" points="446.5,251.6 435.7,252.2 435.7,251.2 446.5,250.7 							"/>
							<polygon class="st34" points="446.5,245 435.7,245.5 435.7,244.6 446.5,244 							"/>
							<polygon class="st34" points="446.5,238.3 435.7,238.9 435.7,237.9 446.5,237.4 							"/>
						</g>
						<g>
							<polygon class="st34" points="435.7,264.5 435.7,265.5 429.4,266.7 429.4,265.8 							"/>
							<polygon class="st34" points="435.7,257.9 435.7,258.8 429.4,260 429.4,259.1 							"/>
							<polygon class="st34" points="435.7,251.2 435.7,252.2 429.4,253.4 429.4,252.4 							"/>
							<polygon class="st34" points="435.7,244.6 435.7,245.5 429.4,246.7 429.4,245.8 							"/>
							<polygon class="st34" points="435.7,237.9 435.7,238.9 429.4,240.1 429.4,239.1 							"/>
						</g>
						<g>
							<g>
								<g>
									<rect x="430.6" y="254.2" class="st30" width="1.3" height="3.1"/>
									<rect x="430.5" y="253.7" class="st30" width="1.5" height="0.3"/>
								</g>
								<g>
									<rect x="433.2" y="254.2" class="st30" width="1.3" height="3.1"/>
									<rect x="433.1" y="253.7" class="st30" width="1.5" height="0.3"/>
								</g>
							</g>
							<g>
								<g>
									<rect x="430.6" y="247.4" class="st30" width="1.3" height="3.1"/>
									<rect x="430.5" y="246.9" class="st30" width="1.5" height="0.3"/>
								</g>
								<g>
									<rect x="433.2" y="247.4" class="st30" width="1.3" height="3.1"/>
									<rect x="433.1" y="246.9" class="st30" width="1.5" height="0.3"/>
								</g>
							</g>
							<g>
								<g>
									<rect x="430.6" y="260.6" class="st30" width="1.3" height="3.1"/>
									<rect x="430.5" y="260.1" class="st30" width="1.5" height="0.3"/>
								</g>
								<g>
									<rect x="433.2" y="260.6" class="st30" width="1.3" height="3.1"/>
									<rect x="433.1" y="260.1" class="st30" width="1.5" height="0.3"/>
								</g>
							</g>
							<g>
								<g>
									<rect x="430.6" y="240.8" class="st30" width="1.3" height="3.1"/>
									<rect x="430.5" y="240.3" class="st30" width="1.5" height="0.3"/>
								</g>
								<g>
									<rect x="433.2" y="240.8" class="st30" width="1.3" height="3.1"/>
									<rect x="433.1" y="240.3" class="st30" width="1.5" height="0.3"/>
								</g>
							</g>
							<g>
								<g>
									<rect x="430.6" y="234.7" class="st30" width="1.3" height="3.1"/>
									<rect x="430.5" y="234.3" class="st30" width="1.5" height="0.3"/>
								</g>
								<g>
									<rect x="433.2" y="234.7" class="st30" width="1.3" height="3.1"/>
									<rect x="433.1" y="234.3" class="st30" width="1.5" height="0.3"/>
								</g>
							</g>
						</g>
						<g>
							<polygon class="st28" points="436.7,228.3 436.7,232.2 434.2,232.2 							"/>
							<polygon class="st29" points="436.7,228.3 436.7,232.2 434.2,232.2 							"/>
							<polygon class="st30" points="436.7,228.3 436.7,232.2 439.2,232.2 							"/>
						</g>
						<g>
							<g>
								<rect x="439.7" y="226.9" class="st31" width="1.7" height="3.7"/>
								<rect x="439.7" y="226.3" class="st31" width="1.7" height="0.3"/>
							</g>
							<g>
								<rect x="433" y="226.9" class="st31" width="1.1" height="3.7"/>
								<rect x="433" y="226.3" class="st31" width="1.1" height="0.3"/>
							</g>
						</g>
						<g>
							<g>
								<rect x="438.5" y="264.9" class="st28" width="0.6" height="1.7"/>
								
									<rect x="439.1" y="264.9" transform="matrix(-1 -1.224647e-16 1.224647e-16 -1 880.7519 531.4225)" class="st35" width="2.5" height="1.7"/>
								
									<rect x="439.9" y="265.5" transform="matrix(-1 -1.224647e-16 1.224647e-16 -1 880.7519 532.0566)" class="st30" width="0.9" height="1.1"/>
							</g>
							<polygon class="st28" points="440.1,264.9 440.1,263.7 438.1,264.9 							"/>
							<polygon class="st36" points="440.1,264.9 440.1,263.7 442,264.9 							"/>
						</g>
						<g>
							<line class="st37" x1="429.4" y1="232.9" x2="446.5" y2="232.9"/>
							<line class="st37" x1="428.9" y1="232.6" x2="447" y2="232.6"/>
							<polyline class="st37" points="437.2,266.6 437.2,233.8 445,233.8 445,266.6 							"/>
							<polyline class="st37" points="430.2,266.6 430.2,233.8 434.9,233.8 434.9,266.6 							"/>
							<line class="st37" x1="440.4" y1="220.4" x2="440.4" y2="223"/>
							<line class="st37" x1="438.9" y1="223" x2="438.9" y2="232.2"/>
							<line class="st37" x1="438.3" y1="218.2" x2="438.3" y2="223"/>
							<line class="st37" x1="436.4" y1="218.2" x2="436.4" y2="223"/>
							<line class="st37" x1="437" y1="225.3" x2="438.9" y2="225.3"/>
							<line class="st37" x1="437.5" y1="226.6" x2="438.9" y2="226.6"/>
							<line class="st37" x1="443.1" y1="235.3" x2="445" y2="235.3"/>
							<line class="st37" x1="440.7" y1="236.5" x2="444.3" y2="236.5"/>
							<line class="st37" x1="442.5" y1="238.9" x2="445" y2="238.9"/>
							<line class="st37" x1="439.7" y1="238.9" x2="441.7" y2="238.9"/>
							<line class="st37" x1="436.2" y1="226.6" x2="436.7" y2="226.6"/>
							<line class="st37" x1="438.2" y1="227.8" x2="435.7" y2="227.8"/>
							<path class="st37" d="M435.9,226.3"/>
						</g>
					</g>
					<g>
						<rect x="416.2" y="266.6" class="st28" width="3" height="5.2"/>
						<rect x="419.1" y="266.6" class="st28" width="5.2" height="5.2"/>
						
							<rect x="432.6" y="266.6" transform="matrix(-1 -1.224647e-16 1.224647e-16 -1 873.4942 538.3519)" class="st4" width="8.3" height="5.2"/>
						<rect x="424.4" y="266.6" class="st28" width="8.2" height="5.2"/>
						
							<rect x="454.4" y="266.6" transform="matrix(-1 -1.224647e-16 1.224647e-16 -1 911.696 538.3519)" class="st36" width="3" height="5.2"/>
						
							<rect x="449.1" y="266.6" transform="matrix(-1 -1.224647e-16 1.224647e-16 -1 903.476 538.3519)" class="st35" width="5.2" height="5.2"/>
						
							<rect x="440.9" y="266.6" transform="matrix(-1 -1.224647e-16 1.224647e-16 -1 890.025 538.3519)" class="st4" width="8.2" height="5.2"/>
						<rect x="416.2" y="266.6" class="st29" width="3" height="5.2"/>
						<rect x="419" y="268" class="st4" width="0.3" height="3.7"/>
						<rect x="424.2" y="268" class="st4" width="0.3" height="3.7"/>
						<rect x="432.4" y="268" class="st36" width="0.3" height="3.7"/>
						<rect x="440.9" y="268" class="st36" width="0.3" height="3.7"/>
						<rect x="449" y="268" class="st36" width="0.3" height="3.7"/>
						<rect x="454.2" y="268" class="st36" width="0.3" height="3.7"/>
						<g>
							<line class="st37" x1="416.8" y1="267.8" x2="423.2" y2="267.8"/>
							<line class="st37" x1="416.2" y1="266.6" x2="457.3" y2="266.6"/>
							<line class="st37" x1="445.6" y1="267.8" x2="455.5" y2="267.8"/>
							<line class="st37" x1="443.1" y1="267.8" x2="444.7" y2="267.8"/>
							<line class="st37" x1="420.6" y1="268.9" x2="423.2" y2="268.9"/>
							<line class="st37" x1="437.6" y1="268.9" x2="440.9" y2="268.9"/>
							<line class="st37" x1="419.8" y1="270.1" x2="421.5" y2="270.1"/>
							<line class="st37" x1="428.3" y1="270.1" x2="431.7" y2="270.1"/>
							<line class="st37" x1="449.2" y1="270.1" x2="452.5" y2="270.1"/>
							<line class="st37" x1="433.8" y1="270.1" x2="439.7" y2="270.1"/>
							<line class="st37" x1="425.4" y1="271.3" x2="432.6" y2="271.3"/>
							<line class="st37" x1="441.6" y1="271.3" x2="446.8" y2="271.3"/>
						</g>
					</g>
				</g>
				<path class="st26" d="M506.2,288.8v3H368c0.2-0.6,0.4-1.3,0.6-1.9c1.3-4.3,2.8-8.5,4.3-12.4c6.3-0.1,12.7-0.1,19.1-0.1
					c5.6,0,11.1,0,16.6,0.1c2.5-1.9,5-3.8,7.5-5.7c13.7,0,27.5,0,41.2,0c3.8,2.3,9.4,5.4,16.9,7.9c1.5,0.5,3.1,1,5.3,1.6
					c11.6,2.7,17,0.3,23.1,4.3C503.7,286.3,505,287.3,506.2,288.8z"/>
				<g>
					<path class="st38" d="M382.8,253.5c0-0.1-0.1-0.1-0.1-0.1c-0.1,0-0.1,0.1-0.1,0.1c0,0.1,0.1,0.1,0.1,0.1
						C382.7,253.6,382.8,253.6,382.8,253.5z"/>
					<path class="st38" d="M398.3,253.5c0-0.1-0.1-0.1-0.1-0.1c-0.1,0-0.1,0.1-0.1,0.1c0,0.1,0.1,0.1,0.1,0.1
						C398.3,253.6,398.3,253.6,398.3,253.5z"/>
					<path class="st38" d="M377.2,260.2c0-0.1-0.1-0.1-0.1-0.1c-0.1,0-0.1,0.1-0.1,0.1c0,0.1,0.1,0.1,0.1,0.1
						C377.2,260.3,377.2,260.3,377.2,260.2z"/>
					<path class="st38" d="M404,260.2c0-0.1-0.1-0.1-0.1-0.1c-0.1,0-0.1,0.1-0.1,0.1c0,0.1,0.1,0.1,0.1,0.1
						C404,260.3,404,260.3,404,260.2z"/>
					<path class="st26" d="M408.7,277.4l-1.1-4.6h0c0-0.1-0.3-0.3-0.8-0.4v-1.4c0,0,0,0,0,0v-1h0v-0.2h0v-0.4c0-0.2-0.2-0.3-0.3-0.3
						c-0.2,0-0.3,0.2-0.3,0.3v0.1h-0.4v-0.1c0-0.1,0-0.1,0-0.2l0,0l-0.2-2.4l0-0.2l0.1,0l0,0l0.2,0l0,0l0,0h0c0.1,0,0.2-0.1,0.3-0.1
						c0.1-0.1,0.1-0.2,0.1-0.3c0-0.1,0-0.2-0.1-0.2c-0.5-1-1-2-1.6-3l-0.1-0.2c0,0,0-0.1-0.1-0.1c0,0,0,0,0,0c0,0,0,0,0,0
						c0,0-0.1-0.1-0.2-0.1v-0.9h1.9l-0.6-0.7l0.6-0.7h-2h-0.1v1.4h0v1c0,0-0.1,0.1-0.1,0.1l-0.9,1.7c-0.1,0-0.1,0-0.2,0h-0.3
						c-0.5,0-1,0.2-1.3,0.6v-0.7v-1h0v-0.2h0v-0.4c0-0.2-0.2-0.3-0.3-0.3s-0.3,0.2-0.3,0.3v0.1h-0.4v-0.1c0-0.1,0-0.1,0-0.2
						l-0.2-2.4l0-0.2l0.4,0l0,0l0,0c0.1,0,0.1,0,0.2-0.1c0,0,0,0,0.1-0.1c0-0.1,0.1-0.1,0.1-0.2c0-0.1,0-0.2-0.1-0.3
						c-0.5-1-1-2-1.6-3l-0.1-0.2c0,0,0-0.1-0.1-0.1c0,0,0,0,0,0c0,0,0,0,0,0c0,0-0.1-0.1-0.2-0.1V255h1.9l-0.6-0.7l0.6-0.7h-2h-0.1
						v1.4h0v1c0,0-0.1,0.1-0.1,0.1l-1.6,3.1c-0.1,0.3,0,0.7,0.3,0.7l0.3,0l0,0.2l-0.2,2.8h-0.3v-0.1c0-0.2-0.2-0.3-0.3-0.3
						c-0.2,0-0.3,0.2-0.3,0.3v0.1v0.3v0.2h0v1.1v0.2c-0.4,0.2-0.7,0.5-0.9,0.9h-0.3v-1.2h0V264h0v-0.6c0-0.3-0.2-0.5-0.5-0.5
						s-0.5,0.2-0.5,0.5v0.2h-0.6v-0.2c0-0.1,0-0.2-0.1-0.2l0,0l-0.3-3.5l0-0.2l0,0l0.2,0c0,0,0,0,0,0l0.3,0c0.2,0,0.3-0.1,0.4-0.2
						c0.1-0.1,0.1-0.2,0.1-0.3c0-0.1,0-0.1,0-0.2c0-0.1,0-0.2-0.1-0.3c-0.8-1.5-1.5-3-2.4-4.4l-0.1-0.1c0,0,0-0.1-0.1-0.1
						c0,0,0,0,0-0.1c0,0,0,0,0,0c-0.1-0.1-0.1-0.1-0.2-0.1v-1.4h2.8l-0.9-1l0.9-1h-2.9h-0.2v2h0v1.4c-0.1,0-0.1,0.1-0.2,0.2
						l-2.3,4.5c-0.2,0.4,0,1,0.4,1l0.5,0v0l0,0.2l-0.3,4l0,0H388v-0.2c0-0.3-0.2-0.5-0.5-0.5c-0.3,0-0.5,0.2-0.5,0.5v0.2h0v0.8h0
						v1.2h-0.5c-0.2-0.5-0.6-0.8-1.1-1v-0.2v-1h0v-0.2h0v-0.4c0-0.2-0.2-0.3-0.3-0.3s-0.3,0.2-0.3,0.3v0.1h-0.4v-0.1
						c0-0.1,0-0.1,0-0.2l-0.2-2.4l0-0.2l0.4,0c0.3,0,0.4-0.4,0.3-0.7c-0.5-1-1-2-1.6-3l-0.1-0.2c0,0,0-0.1-0.1-0.1c0,0,0,0,0,0
						c0,0,0,0,0,0c0,0-0.1-0.1-0.2-0.1V255h1.9l-0.6-0.7l0.6-0.7h-2h-0.1v1.4h0v1c0,0-0.1,0.1-0.1,0.1l-1.6,3.1
						c-0.1,0.3,0,0.7,0.3,0.7l0.3,0l0,0.2l-0.2,2.8h-0.3v-0.1c0-0.2-0.2-0.3-0.3-0.3c-0.2,0-0.3,0.2-0.3,0.3v0.1v0.3v0.2h0v1.1v0.4
						c-0.3-0.2-0.7-0.4-1.1-0.4h-0.3c-0.2,0-0.3,0-0.4,0.1c-0.3-0.5-0.6-1.1-0.9-1.6l-0.1-0.2c0,0,0-0.1-0.1-0.1c0,0,0,0,0,0
						c0,0,0,0,0,0c0,0-0.1-0.1-0.2-0.1v-0.9h1.9l-0.6-0.7l0.6-0.7h-2H377v1.4h0v1c0,0-0.1,0.1-0.1,0.1l-1.6,3.1
						c-0.1,0.3,0,0.7,0.3,0.7l0.3,0l0,0l0,0.1l-0.2,2.8l0,0h-0.3v-0.1c0-0.2-0.2-0.3-0.3-0.3s-0.3,0.2-0.3,0.3v0.4h0v0.2h0v2.4
						c-0.4,0.1-0.6,0.2-0.6,0.3h0l-1.1,4.6h8.9l0,0h0h6.9v-0.1v-4.2h0c0,0,0,0,0,0c0-1.2,1-2.2,2.2-2.2c0.2,0,0.4,0,0.6,0.1
						c0.9,0.3,1.6,1.1,1.6,2.1v4.2v0.1h6.6l0,0H408.7z M388.9,265.7C388.9,265.7,388.9,265.7,388.9,265.7
						C388.9,265.7,388.9,265.7,388.9,265.7c0-0.1,0-0.1,0.1-0.2c0,0,0-0.1,0.1-0.1c0.1-0.1,0.1-0.2,0.2-0.3c0,0,0-0.1,0.1-0.1l0,0
						c0,0,0.1,0,0.1-0.1c0,0,0.1-0.1,0.1-0.1c0,0,0.1-0.1,0.1-0.1c0,0,0,0,0,0c0,0,0.1,0,0.1-0.1h0c0.2-0.1,0.4-0.2,0.6-0.2
						c0,0,0,0,0,0c0.1,0,0.1,0,0.2,0c0.1,0,0.2,0,0.3,0c0.1,0,0.2,0,0.3,0.1c0,0,0,0,0,0c0.1,0,0.2,0.1,0.3,0.1h0c0,0,0,0,0,0
						c0,0,0.1,0,0.1,0.1c0,0,0,0,0,0c0,0,0,0,0.1,0.1c0,0,0,0,0.1,0c0,0,0.1,0,0.1,0.1c0,0,0,0,0,0c0,0,0.1,0.1,0.1,0.1c0,0,0,0,0,0
						c0,0,0.1,0.1,0.1,0.1c0,0,0.1,0.1,0.1,0.1c0,0,0.1,0.1,0.1,0.1c0,0,0,0.1,0.1,0.1c0,0,0,0,0,0h0c0,0.1,0.1,0.2,0.1,0.3
						c0,0,0,0,0,0c0,0.1,0,0.1,0,0.2c0,0,0,0,0,0c0,0,0,0,0,0c0,0.1,0,0.1,0,0.2c0,0,0,0,0,0v0.3v0.1v0.3v1.3h-0.6l0-0.3
						c0-0.2-0.2-0.4-0.5-0.4h-1.1c-0.3,0-0.5,0.2-0.5,0.4l0,0.3h-1v-1.6c0,0,0,0,0,0v0v-0.3h0c0,0,0,0,0,0c0-0.1,0-0.1,0-0.2
						c0,0,0-0.1,0-0.1c0,0,0-0.1,0-0.1c0,0,0-0.1,0-0.1C388.9,265.8,388.9,265.7,388.9,265.7z M390.5,260.3c0.1,0,0.1,0,0.2,0
						c0.2,0,0.3,0,0.4,0c0.3,0.2,0.5,0.5,0.5,0.8v1h-1.8v-1c0-0.3,0.2-0.6,0.5-0.8C390.3,260.3,390.4,260.3,390.5,260.3z
						 M404.6,267.8v0.7h-0.4h-0.1h-0.7v-0.7c0,0,0,0,0,0c0-0.1,0-0.3,0.1-0.4h0c0.1-0.1,0.1-0.2,0.2-0.2c0,0,0.1,0,0.1-0.1
						c0.1,0,0.1,0,0.2,0c0,0,0,0,0,0c0,0,0,0,0,0c0,0,0,0,0,0c0,0,0,0,0.1,0c0,0,0,0,0,0c0,0,0.1,0,0.1,0c0,0,0,0,0,0
						C404.5,267.3,404.6,267.6,404.6,267.8z M377.2,267.2c0,0,0.1,0,0.1,0c0,0,0,0,0.1,0c0,0,0.1,0,0.1,0c0,0,0,0,0.1,0
						c0.1,0,0.2,0.1,0.2,0.2c0.1,0.1,0.1,0.2,0.1,0.4v0.7h-0.4h-0.3h-0.6v-0.7c0,0,0,0,0,0c0-0.2,0.1-0.4,0.3-0.6
						C377,267.2,377.1,267.2,377.2,267.2z M405.3,271.4v0.2v1.2h-1.1h-0.1h-1.3v-0.5v-0.7c0,0,0,0,0,0v0v-0.2c0-0.3,0.1-0.5,0.2-0.7
						h0h0l0,0l0,0c0,0,0,0,0,0l0,0c0.1-0.2,0.3-0.3,0.5-0.4h0c0.2-0.1,0.4-0.1,0.6-0.1c0,0,0,0,0.1,0v0.1c0,0,0,0,0,0v0
						c0,0,0.1,0,0.1,0c0,0,0,0,0,0c0.1,0,0.3,0.1,0.4,0.1h0C405,270.5,405.3,270.9,405.3,271.4z M376.6,270.3
						c0.2-0.1,0.4-0.1,0.6-0.1c0.1,0,0.2,0,0.2,0c0,0,0,0,0,0c0.1,0,0.2,0.1,0.3,0.1h0c0.4,0.2,0.7,0.6,0.7,1.1v0.2v1.2h-1h-0.3
						h-1.3v-0.5v-0.7c0,0,0,0,0,0v0v-0.2C375.9,270.9,376.2,270.5,376.6,270.3L376.6,270.3z"/>
					<path class="st38" d="M390.7,250.2c0-0.1-0.1-0.2-0.2-0.2s-0.2,0.1-0.2,0.2c0,0.1,0.1,0.2,0.2,0.2S390.7,250.3,390.7,250.2z"/>
				</g>
			</g>
			<g style="clip-path:url(#SVGID_00000071561567586494340570000001479960654654898857_);">
				<g>
					<g>
						<path class="st3" d="M316.4,545.5c-39-2-71.5-22.7-82-50.5c-7.2-19.1-4.5-41.7-3-48.2c1.6-6.7,1.7-14,7.2-19.2
							c3.6-3.4,7.8-4.7,10.6-5.3c4.3,1.2,8.7,2.4,13,3.6c1.2,0.3,2.7,0.9,4,2c0,0,2.3,2,3.3,5.5c1.3,4.5,5.8,33.2,11.3,72.6
							C292.6,519.2,304.5,532.4,316.4,545.5z"/>
						<g id="_x36__00000147202560008804550680000014360736980569837975_">
							<path class="st39" d="M198.3,702.8c3.1,0,5.7-2.2,5.7-4.9V579.4c0-2.7-2.6-4.9-5.7-4.9c-3.1,0-5.7,2.2-5.7,4.9v118.5
								C192.6,700.6,195.2,702.8,198.3,702.8z"/>
							<path class="st40" d="M212.3,702.8c3.1,0,5.7-2.2,5.7-4.9V579.4c0-2.7-2.6-4.9-5.7-4.9c-3.1,0-5.7,2.2-5.7,4.9v118.5
								C206.6,700.6,209.1,702.8,212.3,702.8z"/>
							<path class="st39" d="M265.5,702.8c3.1,0,5.7-2.2,5.7-4.9V579.4c0-2.7-2.6-4.9-5.7-4.9c-3.1,0-5.7,2.2-5.7,4.9v118.5
								C259.8,700.6,262.3,702.8,265.5,702.8z"/>
							<path class="st40" d="M278.5,702.8c3.1,0,5.7-2.2,5.7-4.9V579.4c0-2.7-2.6-4.9-5.7-4.9c-3.1,0-5.7,2.2-5.7,4.9v118.5
								C272.8,700.6,275.3,702.8,278.5,702.8z"/>
							<path class="st41" d="M209.6,428.8c-11.6,48.3-2.7,72.6,8.7,85.9c20.5,24,65.1,25.5,74.3,53.9c2.4,7.3,3.5,22.2,2.6,24.3
								c-0.9,2-2.8,3.6-5.2,3.5c-3,0.5-6.3-4.2-8.2-5.8c-5.8-5.8-13.6-9-21.8-9c0,0-51.8,0-51.8,0c-6.1,0.1-14.8-0.8-22.5-6
								c-15.7-10.7-16.8-32.2-20.2-77.5c-1.1-14.4-3-40.2-5.9-74.4c7.1-0.6,15.9-0.8,25.9,0.3C194.9,425,203,426.9,209.6,428.8z"/>
						</g>
						<path class="st42" d="M373.8,703.5h-44.3c-2.1,0-3.9-1.8-3.7-4c0.4-4.6,1.5-11.5,1.2-14.6c0.2-2.7-3.7-37.3-4-40.8h27.8
							l-4.5,35.7c-0.5,4.2,2,8.2,6,9.6c5.4,1.8,11.6,2.6,15.7,3.6c3.6,0.9,6.8,2.1,8.7,4.6C378.6,700,376.8,703.5,373.8,703.5z"/>
						<path class="st43" d="M324.4,698.9c0,0.7,0.2,1.3,0.4,2.1c0.4,1.5,1.8,2.6,3.4,2.6h45.9c0.6-0.2,3.5-1.1,3.9-3
							c0.5-2.2-2.3-5.5-7.5-6.8c1.8,0.8,2.6,1.5,2.5,2c-0.4,2.1-16.2,1.6-47.6-1.6C324.4,696.2,324.3,697.9,324.4,698.9z"/>
						<path d="M354.7,672.3c-15.6,5.7-36.3,0-36.3,0c-2-31-4-52.1-6-83.1c-31.9-8.8-63.8-17.6-95.7-26.4c-2.9-12.3-5.8-24.7-8.7-37
							c20.7-1.9,41.3-3.7,62-5.6c22.5,12,44.9,24.1,67.4,36.1c9.4,5.7,15.2,15.8,15.4,26.7C353.4,613.6,354,639.4,354.7,672.3z"/>
						<path class="st42" d="M364.5,703.5h-44.3c-2.1,0-3.9-1.8-3.7-4c0.4-4.6,1.5-11.5,1.2-14.6c0.2-2.7-3.7-37.3-4-40.8h27.8
							l-4.5,35.7c-0.5,4.2,2,8.2,6,9.6c5.4,1.8,11.6,2.6,15.7,3.6c3.6,0.9,6.8,2.1,8.7,4.6C369.3,700,367.5,703.5,364.5,703.5z"/>
						<path class="st44" d="M315.2,700c0.1,1,0.5,1.8,0.5,1.8c0.4,0.8,1,1.3,1.3,1.5c0.2,0.1,0.3,0.1,0.5,0.2h47.3
							c0.8-0.2,4.4-1.1,4.8-3c0.5-2.8-5.9-5.8-6.5-6c-1.3-0.6-2.5-1-3.4-1.2c1.1,0.8,1.6,1.4,1.5,2c-0.6,2.5-15.2,1.8-44-2.2
							C315.6,695.9,315,698.5,315.2,700z"/>
						<path class="st45" d="M345.4,672.3c-10.4-2.2-22.9-3-36.3,0c-1.5,0.3-2.9,0.7-4.3,1.1c-0.3-10.1-0.8-23.8-2-40.2
							c-2-28.6-3.5-33.7-7.1-38.4c-7-9.3-18-12.1-39.9-17.5c-26.5-6.6-40.1-5.7-48.4-14.5c-5.2-5.5-7.7-12.6-8.7-19.7
							c-0.2-1.1-0.3-2.2-0.4-3.2c-0.4-5-0.2-9.8,0.3-14.1c23.6-2.1,47.1-4.2,70.7-6.3c1.9-0.2,3.7-0.3,5.6-0.5
							c2.5,1.9,5,3.9,7.6,5.7c16,11.9,33.2,23,48.7,35.3c7.5,5.9,11.9,14.9,12.2,24.4C344,614.8,344.7,639.9,345.4,672.3z"/>
						<path class="st3" d="M270.1,518.7c-0.2,0.2-0.5,0.5-0.7,0.7c-0.3,0.3-0.7,0.6-1,0.9c-4.1,3.7-9.1,7.4-15.2,10.7
							c-21.6,11.7-43.4,10.5-54.8,8.8c-1.1-0.2-2.1-0.3-3-0.5c0,0,0-0.6-0.1-1.8c-0.2-2.7-0.6-8.2-1-14.6c0-0.3,0-0.7-0.1-1
							c-0.1-1.2-0.8-14.4-1.3-29.3c-0.6-22.6-0.3-44.6-0.1-56.4c0-2.5,1.2-4.9,3.2-6.5c9.6-6.2,19.1-12.3,28.7-18.5
							c7.2,2.6,14.4,5.2,21.6,7.8c2.4-0.1,4.7-0.3,7.1-0.4c1.3,1,2.6,2.2,3.9,3.4c3.6,3.5,6.4,7,8.6,10.2c0.1,1.5,2,39.1,4,78.2
							C269.7,510.4,270.1,518.6,270.1,518.7z"/>
						<path d="M270.1,518.7c-0.6,0.5-1.1,1.1-1.8,1.6c-2.1-1.5-4.1-2.9-6.2-4.4c-3.3-31.9-6.6-63.8-9.9-95.6
							c0.6-1.1,1.1-2.1,1.7-3.2c1.1,0.8,2.8,2.3,4.6,4.2c0,0,4.2,4.5,7.1,10.8C268.7,438.8,271.7,472.5,270.1,518.7z"/>
						<path d="M250.2,513.2c-7.1,6.2-14,9.7-18.6,11.6c-7.5,3.1-13.7,4-18.7,4.8c-7.4,1.1-13.7,1.1-18.3,0.9
							c-0.1-2.1-0.4-5.1-0.6-8.7c-0.9-14.5-1.1-22.3-1.3-29.3c-0.6-22.6-0.3-44.6-0.1-56.4c0-2.5,1.2-4.9,3.2-6.5
							c9.6-6.2,19.1-12.3,28.7-18.5c3,0.8,6.3,1.7,9.7,2.9c4.4,1.5,8.3,3.2,11.8,4.9C247.5,450.3,248.8,481.8,250.2,513.2z"/>
						<path class="st46" d="M282.5,524.6c-11,5.2-25.7,11-43.8,14.7c-15,3.1-28.7,3.9-40,3.8c-0.2-1.1-0.3-2.2-0.4-3.2
							c-1.1-0.2-2.1-0.3-3-0.5c0,0,0-0.6-0.1-1.8c-0.2-2.7-0.6-8.2-1-14.6c11-0.2,23.6-1.1,37.4-3.4c14.4-2.3,27.2-5.6,38.1-9.1
							c0.8,2.3,1.8,4,2.6,5.1c1.7,2.5,3.7,4.1,6.5,6.4C280.3,523,281.6,524,282.5,524.6z"/>
						<path class="st47" d="M250.1,415.7c0.9,12.7,1.7,25.6,2.4,38.7c1.2,22.4,1.9,44.2,2.2,65.4"/>
						<path class="st3" d="M304.4,548.5c-1.1,2.4-4.2,9-9.4,9.2c-4.4,0.1-9.2-4.6-10.7-11.6c-8.1-2.4-16.6-5.3-25.5-8.8
							c-19.1-7.5-35.6-16.1-49.5-24.6c-2.4-6.7-22.3-63.2-18.5-77.3c1.1-4,3.9-6.2,3.9-6.2c3.7-3.3,9.2-4,13.2-3.1
							c8.2,1.8,12.3,10.5,15.8,18c2.1,4.4,4.1,9.2,6.8,25.3c1.7,9.8,3.1,18.5,4.2,26.1c9.3,3.9,20.1,9.1,31.5,16.2
							c10.6,6.6,19.5,13.5,26.7,19.7c4.2,0.2,8.3,0.3,12.5,0.5C306.2,534.3,307.8,541.3,304.4,548.5z"/>
						<g>
							<path class="st48" d="M326.1,551C326.1,551,326.1,551,326.1,551c2.1,1.7,3.7,3,4.6,3.8c2.1,1.7,3.5,2.9,3.2,3.7
								c-0.1,0.4-0.6,0.6-0.7,0.6c-0.7,0.2-1.3-0.2-2.5-1c-1.2-0.9-1.9-1.3-2.4-1.8c-0.9-0.8-2.3-1.9-4.3-3c1.6,1,2.8,1.9,3.7,2.6
								c2.2,1.7,2.6,2.2,2.5,2.5c-0.1,0.2-0.5,0.3-1,0.3c-2.9,0-5.9-2.2-8.1-3.4c-1.3-0.7-3.3-1.8-5.9-2.6c-1.4,0-4.1-0.2-7.1-1.7
								c-2.6-1.3-4.2-3.1-5.1-4.1c-0.3-0.1-0.5-0.3-0.8-0.4c0.4-1.5,0.8-3.3,1-5.4c0.2-2,0.2-3.7,0.1-5.2c0.8,0.5,1.6,0.9,2.4,1.4
								c0.7,0,1.6,0,2.8,0.1c0,0,2.8,0.3,5.6,1.5c6.1,2.7,21.9,14.4,20.7,16.1c-0.1,0.1-0.3,0.2-0.4,0.2c-1,0.2-1.7-1.6-4-3.5
								c-1.1-0.9-2-1.4-2-1.4c1,0.7,1.8,1.3,2.4,1.7c3.4,2.5,4,3.5,4.1,4.5c0,0.2,0.1,0.8-0.2,1c-0.7,0.4-2.6-1.5-3.5-2.4
								c-0.6-0.5-1.3-1-1.9-1.6C328.1,552.6,327.1,551.8,326.1,551z"/>
						</g>
						<path class="st3" d="M232.8,401.7c10.7,3.5,17.7,9,19.2,13.2c1.6,4.3,0.5,7.5,0.5,7.5c-0.3,0.9-0.7,1.6-1,2.1
							c-0.3-2-1.5-8.2-6.8-13.4c-6.2-6.1-13.7-6.6-15.5-6.7C230.4,403.5,231.6,402.6,232.8,401.7z"/>
						<g>
							<path class="st49" d="M250.6,421.1"/>
						</g>
						<g>
							<path d="M215.4,378.2c0.7,2.8,1.7,5.9,3.2,9.2c2.8,6.4,6.3,11.3,9.3,14.7c6.5,3.6,14.4,3.4,20.6-0.4
								c6.7-4.1,11.5-12.5,9.5-17.9C255.1,376.4,238,373.9,215.4,378.2z"/>
							<g>
								<g>
									<g>
										<path class="st48" d="M233.9,409.2c-2.5-0.2-4.5,0.5-5.6,1c0.9-3.2-0.1-10.5-1.6-13.1c2.8-0.7,6.8-1.4,11.6-1.2
											c4.9,0.2,8.9,1.3,11.7,2.3c0,3.3,0,6.7-0.1,10.2c-0.1,4.2-0.4,8.2-0.7,12C243.4,415.9,242.7,411,233.9,409.2z"/>
										<path class="st50" d="M249.6,398.3c-0.1,2.3-0.3,4.7-0.4,7c0,0.3,0,0.7,0,1c-2.4,0-4.2-0.1-5.5-0.2
											c-0.5-0.1-1.5-0.2-2.9-0.3c-1.5-0.1-2.6-0.2-2.7-0.2c-1.4-0.1-4.3-1.3-10.6-6.3c-0.4-0.8-0.7-1.6-1.1-2.4
											c0.9-0.6,1.7-1.1,2.6-1.7c3.1,0.3,6.2,0.6,9.3,0.9c0.4,0.1,0.9,0.1,1.3,0.2c0.3,0,0.5,0.1,0.8,0.1
											c1.4,0.2,3.7,0.7,3.7,0.7C246.4,397.6,248.3,398,249.6,398.3z"/>
									</g>
									<path class="st48" d="M264.4,373.8c-0.5,4.1-0.9,8.2-1.2,11.8c-0.3,1.8-1,4.5-2.6,7.5c-0.7,1.3-2.1,2.9-4.8,6.1
										c-3.3,4-4.6,5.1-6.3,5.4c-0.6,0.1-0.8,0.1-3.2,0c-4-0.1-4.4,0-6.3-0.2c-2.9-0.3-5-1.3-6.4-2c-2.7-1.3-4.2-2.7-6.9-5.3
										c-2.6-2.5-4-4.2-4.7-5.7c-0.6-1.2-1.9-3.1-1.8-7.9c0.1-3.6,0.2-7.9,0.1-12.2c-1.3-7.6,1.8-17.2,4.9-21.6
										c2.8-3.1,11.9-0.4,18.7,0c6.8,0.5,15.9-0.9,18.2,2.5c0.9,2.5,1.9,5.8,2.4,9.7C265,366.7,264.8,370.7,264.4,373.8z"/>
									<g>
										<path class="st3" d="M241.2,374.7c-0.7,0.5-2.1,1.3-4,1.4c-3.2,0.2-5.5-1.5-6.1-1.9c1.1-1.1,2.4-1.9,3.7-2.3
											c0.5-0.2,1.3-0.4,2.2-0.2C239.4,371.9,240.9,374.1,241.2,374.7z"/>
										<path class="st12" d="M239.9,373.6c-0.1,1.4-1.6,2.5-2.9,2.4c-1.4-0.1-2.8-1.4-2.5-2.9c0.1-0.5,0.3-0.9,0.6-1.2
											c0.4-0.1,0.9-0.2,1.3-0.2c0.5,0,1,0.1,1.5,0.3c0.3,0.1,0.5,0.2,0.7,0.3c0.5,0.3,0.9,0.6,1.3,1
											C239.9,373.3,239.9,373.5,239.9,373.6z"/>
										<path d="M235.8,373.5c0,0.9,0.7,1.5,1.5,1.4c0.8-0.1,1.4-0.8,1.4-1.6c0-0.8-0.6-1.5-1.4-1.4
											C236.5,372,235.8,372.7,235.8,373.5z"/>
										<path class="st3" d="M236.3,373.1c0,0.3,0.3,0.6,0.6,0.6c0.3,0,0.5-0.3,0.5-0.6c0-0.3-0.3-0.6-0.6-0.6
											C236.6,372.5,236.3,372.8,236.3,373.1z"/>
										<path class="st13" d="M242.9,364.7c-3.4-0.1-7.9,0.3-12.6,1.7c-0.9,0.3-2.2,1.3-2.4,2.7c-0.1,0.9,0.5,1.7,0.8,2.1
											c0.5-0.5,1.3-1.2,2.4-1.8c1.4-0.8,2.9-1.4,6.4-1.9c1.6-0.2,3.7-0.5,6-0.6c0-0.2,0-0.5-0.1-0.8
											C243.3,365.6,243.1,365,242.9,364.7z"/>
										<path class="st13" d="M241.2,374.7c-0.4-0.5-1.7-2-3.9-2.5c-3.4-0.7-5.9,1.7-6.2,1.9c2.1-2.7,5.3-3.6,7.6-2.5
											C240.3,372.4,241,374,241.2,374.7z"/>
									</g>
									<g>
										<path class="st3" d="M251.7,375c0.6,0.4,3.8,2.6,7.4,1.4c1.1-0.3,1.9-0.9,2.6-1.4c-0.9-1.1-1.9-1.9-3.1-2.4
											c-1.2-0.5-2.4-0.6-3.7-0.2c-0.4,0.1-0.7,0.3-0.8,0.3C252.8,373.3,252.1,374.4,251.7,375z"/>
										<path class="st12" d="M254.4,374.2c-0.1,1.5,1.4,2.6,2.7,2.6c1.4-0.1,2.8-1.4,2.7-2.8c0-0.5-0.2-0.9-0.5-1.2
											c-1.2-0.5-2.4-0.6-3.7-0.2c-0.3,0.1-0.6,0.2-0.8,0.3C254.6,373.2,254.4,373.7,254.4,374.2z"/>
										<path d="M259.2,374.3c-0.1,0.9-0.8,1.5-1.6,1.4c-0.8-0.1-1.3-0.8-1.2-1.7c0.1-0.9,0.8-1.5,1.6-1.4
											C258.7,372.7,259.3,373.4,259.2,374.3z"/>
										<path class="st3" d="M257.8,373.8c0,0.3-0.3,0.6-0.6,0.5c-0.3,0-0.5-0.3-0.5-0.6c0-0.3,0.3-0.6,0.6-0.5
											C257.6,373.2,257.8,373.5,257.8,373.8z"/>
										<path class="st13" d="M252,365.1c2.9-0.1,6.4,0.2,9.6,1.4c0.6,0.2,1.4,1,1.4,2.1c0,0.8-0.3,1.4-0.5,1.8
											c-0.3-0.4-0.8-0.9-1.5-1.3c-0.9-0.6-1.9-1-4.5-1.3c-1.3-0.2-2.9-0.3-5-0.3c0-0.2,0-0.5,0.1-0.7
											C251.6,366,251.8,365.5,252,365.1z"/>
										<path class="st13" d="M251.7,375c0.2-0.3,2.4-2.6,5.6-2.3c2.5,0.3,4,1.9,4.3,2.3c-0.2-0.5-1.1-2.3-3-3
											C256.4,371.1,253.4,372.3,251.7,375z"/>
									</g>
									<path d="M264.6,344.3c-2.6-2.3-9.5-7.7-19.9-8.7c-3.3-0.3-15.6-1.6-24.4,7.3c-10.4,10.5-7.1,26.2-6.9,27
										c0.5,4.3,1.9,10.4,5.4,16.8c1.6,3,3.5,5.6,5.1,7.6c-0.4-0.8-1-2.1-1.4-3.6c-0.4-1.7-0.5-2.9-0.5-4.8c0-1.5-0.1-3.8-0.2-7.2
										c0.5-0.1,1.9,0.2,1.9-0.3c-0.3-4.8,0.3-7.9,1.1-10c0.9-2.5,2.1-3.7,3-6.8c0.8-2.8,0.8-5.3,0.7-7c3.6-1.7,10.4-4.3,19.3-3.9
										c5.5,0.3,10,1.6,13.1,2.8c-0.1,3.8,0.5,6.6,1.2,8.5c1,2.9,2.2,4.8,2.5,8.2c0.1,1.8-0.1,3.3-0.3,4.2
										c0.6-2.4,1.2-5.1,1.6-7.9C267,357.6,265.9,349.9,264.6,344.3z"/>
									<g>
										<g>
											<path class="st50" d="M251.1,386.4c0,0.1-0.7,0.4-2.1,0.9c-1.3,0.6-2.8,0.5-4-0.1c-1.4-0.6-2-0.9-2-1
												c0.1-0.2,1.2,0,3.4,0.6c0.4,0.1,0.8,0.1,1.3,0C249.9,386.4,251.1,386.3,251.1,386.4z"/>
										</g>
									</g>
									<g>
										<path class="st50" d="M249.3,395.6c-2.8,0.1-3.1,0-5.2,0.1c-3.3,0.2-4.6,0.5-4.6,0.3c-0.1-0.3,2.8-1.7,6.3-2
											c4.5-0.5,8.6,0.9,8.6,1.3C254.3,395.4,252.7,395.5,249.3,395.6z"/>
									</g>
									<g>
										<path class="st50" d="M249.3,398.1c0,0.3-1.4,1-2.8,1c-1.5,0-2.9-0.7-2.8-1.1c0.1-0.4,1.8-0.3,2.8-0.3
											C247.5,397.7,249.2,397.7,249.3,398.1z"/>
									</g>
								</g>
								<g>
									<polygon class="st13" points="248.8,389.8 248.6,391.5 257.3,392.6 									"/>
									<polygon class="st13" points="245.6,389.5 245.9,391.2 235.6,393.3 									"/>
								</g>
								<g>
									<path d="M265.6,351.9c-17.2,0-34.2,0-50.9,0.1c0.2-5.9,0.4-11.8,0.6-17.6c16.2-0.2,32.7-0.5,49.4-0.8
										C265,339.7,265.3,345.8,265.6,351.9z"/>
									<g>
										<path class="st46" d="M187.7,350l1.4-5.1c0,0,0.3,0.1,0.8,0.2l0,0c0.6,0.1,1.4,0.3,2.6,0.5l0,0c2.3,0.4,5.7,1.1,10.2,1.7
											l0,0c8.8,1.2,21.7,2.5,37.8,2.6l0,0c15.8,0.1,28.6-0.8,49.6-3.8l0,0l0.8,4.9c-21.2,3.1-34.3,4.2-50.4,4.1l0,0
											C207.4,354.8,187.9,350,187.7,350L187.7,350z"/>
									</g>
								</g>
								<g>
									<path class="st48" d="M222.2,372.3c-0.1-1.5-1.4-2.6-2.9-2.3c-3.6,0.7-1.6,8.6-0.4,11.6c0.5,1.4,1,5,3.8,4.5L222.2,372.3z"
										/>
								</g>
							</g>
						</g>
					</g>
					<path class="st51" d="M159.1,423.6c3.6,0.6,8.9,2,14.6,5.3c10.9,6.4,15.9,15.8,17.7,19.2c3.7,7.2,4.2,12.7,4.3,43.5
						c0,7.8,0.1,18.7,1.3,40.4c0.2,4.8,0.5,9.1,0.8,13c0.4,6.4,5.2,11.6,11.6,12.5c19,2.7,44,6.6,54.6,9.8c0.3,0.1,1.4,0.4,2.8,0.9
						c15.1,5.6,19.6,13.3,21,16.2c2.2,4.5,3.2,10,1.8,10.9c-1.8,1-5.7-6.7-14.6-11.3c-4-2.1-7.7-2.9-19-3.5
						c-13.9-0.8-25.1-0.7-30.2-0.5c-18.9,0.4-23.9,1.2-32-1.6c-5.6-1.9-9.8-4.5-12.5-6.4c-1.6-1.5-3.6-3.5-5.5-6.2
						c-2.4-3.4-3.7-6.7-4.5-9.2l-3.1-18.3C165.1,500,162.1,461.8,159.1,423.6z"/>
					<path class="st3" d="M225.4,404.7c7.9,1.2,13.3,4,16.4,5.9c4.3,2.7,6,5.2,6.7,6.2c2,3,2.7,5.9,3,7.7c-2.8-2.4-6.7-5.3-11.6-7.8
						c-5.9-3-11.3-4.6-15.4-5.5C224.7,409.1,225.1,406.9,225.4,404.7z"/>
					<g>
						<path class="st52" d="M329.2,557c-1.8-1.3-3.7-2.4-5.4-3.9C325.8,554.1,327.7,555.3,329.2,557L329.2,557z"/>
					</g>
					<g>
						<path class="st52" d="M332.8,553.5c-1.8-1.3-3.7-2.4-5.4-3.9C329.4,550.6,331.3,551.8,332.8,553.5L332.8,553.5z"/>
					</g>
					<g>
						<path class="st52" d="M332.8,556.6c-2.3-1.7-4.3-3.5-6.4-5.3C328.8,552.7,330.9,554.6,332.8,556.6L332.8,556.6z"/>
					</g>
				</g>
			</g>
		</g>
	</g>
</g>
</svg>
