<?xml version="1.0" encoding="utf-8"?>
<!-- Generator: Adobe Illustrator 26.0.1, SVG Export Plug-In . SVG Version: 6.00 Build 0)  -->
<svg version="1.1" id="Layer_1" xmlns="http://www.w3.org/2000/svg" xmlns:xlink="http://www.w3.org/1999/xlink" x="0px" y="0px"
	 viewBox="0 0 852.1 570.1" style="enable-background:new 0 0 852.1 570.1;" xml:space="preserve">
<style type="text/css">
	.st0{fill:#FFE6C7;}
	.st1{fill:#D5B792;}
	.st2{fill:#E5C49D;}
	.st3{fill:#FFFFFF;}
	.st4{fill:#444951;}
	.st5{fill:#89909B;}
	.st6{fill:#FCA170;}
	.st7{fill:#CE8757;}
	.st8{fill:#A19AAD;}
	.st9{fill:#C0B8CF;}
	.st10{fill:#B5AEB0;}
	.st11{fill:#17140C;}
	.st12{fill:#D3905E;}
	.st13{fill:#E8E8E8;}
	.st14{fill:#462F2E;}
	.st15{fill:#754026;}
	.st16{fill:#FF9017;}
	.st17{fill:#FF3C00;}
	.st18{fill:#004345;}
	.st19{fill:#006370;}
	.st20{fill:#E5B19C;}
	.st21{fill:#A5A5A5;}
	.st22{fill:#BECCCA;}
	.st23{fill:#686B6B;}
	.st24{fill:#0D726E;}
	.st25{fill:#E6E6FF;}
	.st26{fill:#BFAD45;}
	.st27{fill:#6F7F87;}
	.st28{fill:#11B7AE;}
	.st29{fill:#BC2800;}
	.st30{fill:#D1DEE5;}
	.st31{fill:#576C7C;}
	.st32{clip-path:url(#SVGID_00000182505287161643000170000017219706764286051212_);}
	.st33{fill:#FFF8ED;}
	.st34{fill:#00223D;}
	.st35{fill:#08161C;}
	.st36{fill:#C9C9C9;}
	.st37{fill:#8CC1D5;}
	.st38{fill:#F28E62;}
	.st39{fill:#EA825E;}
	.st40{fill:#D33423;}
	.st41{fill:#002C47;}
	.st42{fill:#ADADAD;}
	.st43{fill:#8A5D3B;}
	.st44{fill:#3B2314;}
	.st45{fill:none;}
</style>
<g>
	<path class="st0" d="M112.5,524.6c0,0-133.4-192.2-52.9-268.9c80.5-76.6,157.2-8.3,172.5-91c14.1-76.2,68-150.3,166-126.4
		C523.9,69,510,155.7,571.8,149.2c61.8-6.5,167.4-55,186.6,36.9c19.1,91.9-70.4,170.8-13.4,164.3c39.2-4.5,89.3-14.5,63.4,80.4
		c-16.5,60.4-40.5,93.8-40.5,93.8H112.5z"/>
	<g>
		<g>
			<path class="st1" d="M495.9,287.3H368.4v-85.5h127.5V287.3z M373.6,282.1h117.1V207H373.6V282.1z"/>
		</g>
		<path class="st1" d="M473.6,274.8l-2.6-10.6h0c-0.1-0.3-0.8-0.6-1.9-0.8v-3.1c0,0,0,0,0,0v-2.3h0v-0.6h0v-0.9
			c0-0.4-0.4-0.8-0.8-0.8c-0.4,0-0.8,0.4-0.8,0.8v0.3h-1v-0.3c0-0.1,0-0.2-0.1-0.3l0,0l-0.5-5.6l0-0.4l0.3,0l0,0l0.4,0l0.1,0l0,0h0
			c0.2,0,0.4-0.1,0.6-0.3c0.1-0.2,0.2-0.4,0.2-0.7c0-0.2,0-0.4-0.1-0.5c-1.2-2.3-2.3-4.7-3.7-6.9l-0.2-0.4c0-0.1-0.1-0.1-0.1-0.2
			c0,0,0-0.1,0-0.1c0,0,0,0,0,0c-0.1-0.1-0.2-0.2-0.4-0.2v-2.1h4.4l-1.4-1.6l1.4-1.6h-4.7h-0.3v3.1h0v2.2c-0.1,0.1-0.2,0.2-0.3,0.3
			l-2,3.9c-0.2,0-0.3,0-0.5,0H459c-1.2,0-2.2,0.5-2.9,1.4v-1.7v-2.3h0V242h0V241c0-0.4-0.4-0.8-0.8-0.8s-0.8,0.4-0.8,0.8v0.3h-1V241
			c0-0.1,0-0.2-0.1-0.4l-0.5-5.6l0-0.4l0.8,0l0,0l0,0c0.2,0,0.3,0,0.4-0.1c0.1,0,0.1-0.1,0.2-0.2c0.1-0.1,0.2-0.3,0.2-0.4
			c0-0.3,0-0.5-0.1-0.8c-1.2-2.3-2.3-4.7-3.7-6.9l-0.2-0.4c0-0.1-0.1-0.1-0.1-0.2c0,0,0-0.1,0-0.1c0,0,0,0,0,0
			c-0.1-0.1-0.2-0.2-0.4-0.2v-2.1h4.4l-1.4-1.6l1.4-1.6h-4.7h-0.3v3.1h0v2.2c-0.1,0.1-0.2,0.2-0.3,0.3l-3.6,7.1
			c-0.3,0.7,0.1,1.6,0.7,1.6l0.8,0l0,0.4l-0.5,6.3h-0.7V241c0-0.4-0.4-0.8-0.8-0.8c-0.4,0-0.8,0.4-0.8,0.8v0.3v0.7v0.6h0v2.5v0.4
			c-0.9,0.4-1.6,1.1-2,2h-0.8v-2.7h0V244h0v-1.3c0-0.6-0.5-1.1-1.1-1.1c-0.6,0-1.1,0.5-1.1,1.1v0.4h-1.5v-0.4c0-0.2-0.1-0.4-0.1-0.5
			l0,0l-0.7-8l0-0.4l0-0.1l0.5,0c0,0,0,0,0,0l0.7,0c0.3,0,0.6-0.2,0.8-0.4c0.1-0.2,0.2-0.4,0.3-0.6c0-0.1,0-0.2,0-0.4
			c0-0.3-0.1-0.5-0.2-0.8c-1.8-3.4-3.4-6.9-5.4-10.2l-0.2-0.3c0-0.1-0.1-0.2-0.2-0.2c0,0-0.1-0.1-0.1-0.1c0,0,0,0,0,0.1
			c-0.2-0.2-0.3-0.3-0.5-0.3v-3.1h6.4l-2-2.3l2-2.3h-6.7h-0.5v4.5h0v3.2c-0.2,0.1-0.3,0.3-0.4,0.5l-5.3,10.2c-0.5,1,0.1,2.2,1,2.3
			l1.1,0v0l0,0.5l-0.8,9.1l0,0h-1.1v-0.4c0-0.6-0.5-1.1-1.1-1.1c-0.6,0-1.1,0.5-1.1,1.1v0.4h0v1.7h0v2.7h-1
			c-0.4-1.1-1.3-1.9-2.4-2.2v-0.5v-2.3h0V242h0V241c0-0.4-0.4-0.8-0.8-0.8c-0.4,0-0.8,0.4-0.8,0.8v0.3h-1V241c0-0.1,0-0.2-0.1-0.4
			l-0.5-5.6l0-0.4l0.8,0c0.6,0,1-0.9,0.7-1.5c-1.2-2.3-2.3-4.7-3.7-6.9l-0.2-0.4c0-0.1-0.1-0.1-0.1-0.2c0,0,0-0.1,0-0.1c0,0,0,0,0,0
			c-0.1-0.1-0.2-0.2-0.4-0.2v-2.1h4.4l-1.4-1.6l1.4-1.6h-4.7h-0.3v3.1h0v2.2c-0.1,0.1-0.2,0.2-0.3,0.3l-3.6,7.1
			c-0.3,0.7,0.1,1.6,0.7,1.6l0.8,0l0,0.4l-0.5,6.3h-0.7V241c0-0.4-0.4-0.8-0.8-0.8c-0.4,0-0.8,0.4-0.8,0.8v0.3v0.7v0.6h0v2.5v1
			c-0.7-0.6-1.5-0.9-2.4-0.9h-0.7c-0.3,0-0.7,0.1-1,0.1c-0.6-1.2-1.3-2.5-2-3.6l-0.2-0.4c0-0.1-0.1-0.1-0.1-0.2c0,0,0-0.1,0-0.1
			c0,0,0,0,0,0c-0.1-0.1-0.2-0.2-0.4-0.2v-2.1h4.4l-1.4-1.6l1.4-1.6h-4.7h-0.3v3.1h0v2.2c-0.1,0.1-0.2,0.2-0.3,0.3l-3.6,7.1
			c-0.3,0.7,0.1,1.6,0.7,1.6l0.8,0l0,0.1l0,0.3l-0.5,6.3l0,0h-0.7v-0.3c0-0.4-0.4-0.8-0.8-0.8s-0.8,0.4-0.8,0.8v0.9h0v0.6h0v5.6
			c-0.8,0.2-1.3,0.4-1.3,0.7h0l-2.6,10.6h20.4l0,0h0.1h15.8v-0.2v-9.7h0c0,0,0,0,0-0.1c0-2.7,2.2-5,5-5c0.5,0,0.9,0.1,1.4,0.2
			c2.1,0.6,3.6,2.5,3.6,4.8v9.7v0.2h15.2l0,0H473.6z M428.4,247.9C428.4,247.9,428.4,247.9,428.4,247.9c0-0.1,0-0.1,0-0.1
			c0-0.1,0.1-0.2,0.1-0.2c0-0.1,0.1-0.2,0.1-0.3c0.1-0.3,0.3-0.5,0.5-0.7c0.1-0.1,0.1-0.1,0.2-0.2l0.1-0.1c0.1-0.1,0.1-0.1,0.2-0.2
			c0.1-0.1,0.1-0.1,0.2-0.2c0.1-0.1,0.2-0.1,0.3-0.2c0,0,0,0,0.1,0c0.1-0.1,0.2-0.1,0.2-0.1h0c0.4-0.2,0.9-0.4,1.4-0.4
			c0,0,0.1,0,0.1,0c0.2,0,0.3,0,0.5,0c0.3,0,0.5,0,0.7,0.1c0.2,0,0.4,0.1,0.6,0.2c0,0,0,0,0,0c0.2,0.1,0.4,0.2,0.6,0.3h0
			c0,0,0,0,0,0c0.1,0,0.2,0.1,0.2,0.1c0,0,0.1,0,0.1,0.1c0.1,0,0.1,0.1,0.2,0.1c0,0,0.1,0.1,0.1,0.1c0.1,0,0.1,0.1,0.2,0.1
			c0,0,0,0,0.1,0.1c0.1,0.1,0.1,0.1,0.2,0.2c0,0,0,0,0,0c0.1,0.1,0.2,0.2,0.2,0.3c0.1,0.1,0.1,0.2,0.2,0.3c0.1,0.1,0.1,0.2,0.2,0.3
			c0.1,0.1,0.1,0.2,0.2,0.3c0,0,0,0,0,0h0c0.1,0.2,0.2,0.4,0.2,0.6c0,0,0,0,0,0c0,0.1,0.1,0.3,0.1,0.5c0,0,0,0,0,0.1c0,0,0,0,0,0.1
			c0,0.2,0,0.3,0,0.5c0,0,0,0,0,0v0.7v0.2v0.6v2.9h-1.4l0-0.6c0-0.5-0.5-0.9-1.1-0.9h-2.5c-0.6,0-1.1,0.4-1.1,0.9l0,0.6h-2.4v-3.6
			c0,0,0,0,0,0V250v-0.7h0c0,0,0,0,0,0c0-0.1,0-0.2,0-0.4c0-0.1,0-0.2,0-0.3c0-0.1,0-0.1,0-0.2c0-0.1,0-0.2,0.1-0.3
			C428.4,248.1,428.4,248,428.4,247.9z M432,235.5c0.1,0,0.2,0,0.4,0c0.4,0,0.7,0,1-0.1c0.6,0.4,1.1,1,1.1,1.8v2.2h-4.2v-2.2
			c0-0.8,0.4-1.5,1.1-1.8C431.6,235.5,431.8,235.5,432,235.5z M464.4,252.7v1.6h-1h-0.3h-1.6v-1.5c0,0,0,0,0,0
			c0-0.3,0.1-0.6,0.3-0.8h0c0.1-0.2,0.3-0.3,0.5-0.5c0.1,0,0.2-0.1,0.3-0.1c0.1,0,0.3-0.1,0.4-0.1c0,0,0.1,0,0.1,0c0,0,0,0,0.1,0
			c0,0,0.1,0,0.1,0c0,0,0.1,0,0.1,0c0,0,0,0,0.1,0c0.1,0,0.2,0.1,0.3,0.1c0,0,0,0,0,0C464.1,251.7,464.4,252.1,464.4,252.7z
			 M401.6,251.2c0.1,0,0.2,0,0.3,0c0,0,0.1,0,0.1,0c0.1,0,0.1,0,0.2,0.1c0,0,0.1,0,0.1,0.1c0.2,0.1,0.4,0.3,0.5,0.5
			c0.2,0.2,0.3,0.5,0.3,0.8v1.6h-0.9h-0.6h-1.4v-1.5c0,0,0,0,0,0c0-0.5,0.3-1,0.7-1.3C401.1,251.3,401.3,251.2,401.6,251.2z
			 M465.9,261v0.5v2.6h-2.5h-0.3h-3.1V263v-1.5c0,0,0,0,0,0v0V261c0-0.6,0.2-1.1,0.5-1.6h0h0.1l0,0l0,0c0,0,0,0,0,0l0,0
			c0.3-0.4,0.6-0.7,1-0.9h0c0.4-0.2,0.9-0.3,1.4-0.3c0,0,0.1,0,0.1,0v0.1c0,0,0,0,0,0v0c0.1,0,0.2-0.1,0.3-0.1c0,0,0,0,0.1,0
			c0.3,0.1,0.6,0.2,0.8,0.3h0C465.3,258.9,465.9,259.9,465.9,261z M400.2,258.4c0.4-0.2,0.9-0.3,1.4-0.3c0.2,0,0.3,0,0.5,0
			c0,0,0.1,0,0.1,0c0.3,0.1,0.5,0.1,0.8,0.3h0c0.9,0.5,1.5,1.5,1.5,2.6v0.5v2.6h-2.3h-0.6h-2.9V263v-1.5c0,0,0,0,0,0v0V261
			C398.7,259.9,399.3,258.9,400.2,258.4L400.2,258.4z"/>
		<path class="st1" d="M373.6,282.1c2.3-1.1,4.7-2.3,7.2-3.4c4.7-2.1,9.2-4,13.6-5.7c11.2,0.5,22.5,1.1,33.7,1.6c3.3,0,6.6,0,9.9,0
			c11.9,0.1,23.7,0.2,35.6,0.2c6,2.8,12,5.6,18,8.4C452.3,282.8,412.9,282.5,373.6,282.1z"/>
	</g>
	<g>
		<path class="st2" d="M96.1,471c23.9-10,50.1,15.4,50.1,15.4s-22.4-23.2-22.9-56.1c-0.3-23.4,20.3-57.5,27.6-58.7
			c7.3-1.2,27.1,20.7,32,62.4c2.2,19.5-7.5,48.7-7.5,48.7s17.2-39.7,54-40.5c2.8,9.7-7.2,31.1-14.7,43.8c-6.5,11-22.9,30.3-58.3,26
			C112.9,506.8,95.6,471.2,96.1,471z"/>
		<path class="st3" d="M142.6,388.3c3,6.5,6,12.7,9.7,18.8c-0.3-9.9-0.8-20.1-0.1-29.9c0.1-0.9,1.3-0.9,1.4,0
			c0.5,5.9,0.4,11.9,0.4,17.9c0.7-1.3,1.3-2.6,1.7-4c0.7-2.1,0.5-4.3,0.7-6.5l0.5-0.1c1.6,3.9-0.4,8.6-2.9,11.9
			c-0.1,4.1-0.1,8.2-0.1,12.3c0.1,10.2,0.5,20.4,1.2,30.5c3.8-11.1,8.6-21.7,11.8-33l0.5,0.1c-1.5,11.7-7,23.2-12,33.8l-0.2,0.1
			l0,0.7c0.9,13,2.5,26.1,5.1,38.9c7.2-12.1,12-24.3,16.2-37.7c0.1-0.3,0.5-0.2,0.5,0.1c-2.2,13-8.2,27.9-16.5,38.3l-0.1,0
			c1.8,8.5,4,16.9,6.9,25.1c0.1,0.4-0.5,0.6-0.6,0.2c-7.2-19.7-10.8-40.2-12.6-61c-1-11.3-1.5-22.7-1.8-34.1c0-0.8,0-1.7-0.1-2.6
			c-4.4-5.8-8.3-12.7-10-19.8L142.6,388.3z"/>
		<path class="st3" d="M103.8,471.9c4.2,2.9,7.9,6.5,12.1,9.4c3.2,2.2,6.5,4.2,9.9,6.1c-2.9-2.8-5.7-5.8-8.2-9l0.4-0.3
			c3.4,2.7,6.1,6.4,9,9.7l0,0.3c1.4,0.8,2.8,1.6,4.3,2.3c6.5,3.5,13.2,6.5,19.8,9.9c-4-3.4-7.5-7.4-11.7-10.6
			c-0.3-0.2,0-0.6,0.3-0.5c5.5,2.5,9.3,7.9,13.6,12l0.1,0.2c2.5,1.3,5,2.7,7.4,4.2c0.4,0.3,0.1,0.9-0.4,0.6
			c-10.5-4.9-21.1-9.9-31.3-15.4c-8.7-4.6-19.7-10.2-25.7-18.4C103,472.1,103.5,471.6,103.8,471.9z"/>
		<path class="st3" d="M171.5,502.7c1.5-1,2.9-1.9,4.4-2.9l0,0c2.2-4.3,5.3-8.1,7.6-12.4c2.5-4.8,4.6-9.9,5.9-15.2l0.4,0.1
			c-0.8,5.5-3,10.6-5.4,15.6c-1.5,3.2-3.4,7.1-5.9,10.1c5.3-3.7,10.4-7.5,15.3-11.6c3.4-9.2,7-18.4,10.5-27.7
			c0.1-0.3,0.6-0.2,0.5,0.1c-2.7,8.9-5.6,18.1-9.9,26.5c2.7-2.3,5.3-4.7,7.8-7.3c2.7-2.7,5.3-5.6,7.7-8.7l-0.1-0.3
			c1.6-6,3.8-12.1,6-17.9l0.4,0.1c-1.9,5.4-2.8,11.7-5.4,16.9c1.7-2.2,3.3-4.4,4.8-6.6c3.4-5.2,5.2-11.2,8.4-16.5
			c0.2-0.3,0.7-0.2,0.6,0.2c-0.5,5.4-4,11-6.8,15.6c-3.7,6.1-8.4,11.7-13.3,16.9c-7.1,7.5-15.3,14.5-24.2,20.1
			c3.2-0.3,6.3-0.4,9.5-1.2c4.2-1.1,8-3.2,11.8-5.3c0.3-0.2,0.6,0.3,0.3,0.5c-6.5,4.2-15.1,8.4-23.2,6.9c-2.5,1.5-5,3-7.5,4.3
			C171.5,503.3,171.3,502.8,171.5,502.7z"/>
		<path class="st3" d="M132.2,438.4c4.6,6.8,7.8,14.6,11.7,21.8c4.6,8.3,9.8,15.8,15.9,23.1l-0.3,0.3c-6.3-6.2-11.1-13.7-15.5-21.2
			c-4.4-7.5-9.1-15.6-12.3-23.7C131.7,438.3,132.1,438.2,132.2,438.4z"/>
		<path class="st3" d="M134.5,405.5c6.7,12.7,11.8,25.9,19.4,38.2l-0.3,0.3c-8.9-10.9-14.2-25.3-19.5-38.2L134.5,405.5z"/>
		<path class="st3" d="M123.1,492.3c2.8,0.5,5.5,1.5,8.1,2.5c3,1,6.1,1.7,9.1,2.7l-0.1,0.4c-5.7-0.1-12.1-3.2-17.2-5.3L123.1,492.3z
			"/>
		<path class="st3" d="M104.4,477.2c1.7,0.6,3.2,1.7,4.8,2.5c1.7,0.9,3.4,1.7,5,2.7c0.2,0.1,0.1,0.6-0.2,0.5
			c-3.2-1.2-7.6-2.6-9.8-5.3L104.4,477.2z"/>
		<path class="st3" d="M205.2,478c2.9-2,6.1-3.5,8.9-5.5c3.3-2.3,6.2-5.1,8.9-8c0.3-0.3,0.7,0.1,0.4,0.4c-4.6,5.4-11,11.6-18.1,13.4
			L205.2,478z"/>
	</g>
	<g>
		<path class="st3" d="M139.2,534.6c-0.2,0-0.3-0.1-0.4-0.2c-0.2-0.2-0.2-0.6,0.1-0.8l11.5-9.7c0.2-0.2,0.6-0.2,0.8,0.1
			c0.2,0.2,0.2,0.6-0.1,0.8l-11.5,9.7C139.5,534.5,139.4,534.6,139.2,534.6z"/>
	</g>
	<g>
		<g>
			<g>
				<g>
					<path class="st4" d="M440.1,383.2l-1.1,17.3l0,0.1l-1.7,27.9l-0.1,2.1l-0.5,8l-0.3,5.2l-0.4,5.8l-2.3,37.4l-0.2,3.3l-0.9,14.2
						v0l-0.1,1.5l-0.3,4.4l-0.2,2.7l-0.5,8.5l-0.3,4.9h-99.7l-0.3-4.9l-0.3-5l-0.4-6.2l-0.1-1.8l-0.3-4.1l0-0.1v0l-0.4-6.3
						l-1.5-23.3l-0.4-6.4l-1.7-25.3l0-0.2l-0.2-3.5l-0.6-9l-0.1-0.8l0,0l-0.4-5.7l-0.1-1l-1.8-27.2l0-0.3l-0.8-12.5
						c-0.7-10.3,5.8-19.1,14.1-19.1H426C434.2,364.3,440.8,373,440.1,383.2z"/>
					<polygon class="st4" points="331.1,509.2 331.1,517 330.9,516.9 318.4,511.9 318.4,526.8 313,526.8 313,503.5 316.9,504.7 
						316.9,504.7 317.3,504.9 330.4,509 					"/>
					<polygon class="st4" points="441.2,503.5 441.2,526.8 435.8,526.8 435.8,511.9 432.1,513.4 423.1,517 423.1,509.2 432.6,506.2 
						437.3,504.7 437.4,504.7 					"/>
					<path class="st5" d="M369,364.3c0,0,35.2,2,48.8,40.2c13.5,38.2,15.1,81.9,15.1,81.9l8.5-102.9c0.8-10.2-5.6-19.1-13.9-19.1
						H369z"/>
					<g>
						<g>
							<path class="st3" d="M399.5,384.3c0.6,0.7,4.2,3.7,4.5,3.8c0.2,0.1,3.9,1.1,8.3,2.3c5.2,1.8,10.8,4,16.7,6.6
								c5.8,2.6,11.1,5.4,15.8,8.1c-0.1,2.2-0.2,5.6-0.7,9.7c-1.4,13.5-4.3,23.3-5.5,27.2c-2.4,8.6-5.3,21.3-6.7,39.4
								c0.7,12.3,1.4,24.6,2.1,36.8c-35.6-0.4-71.2-0.7-106.9-1.1c0.9-11.6,0.6-21.1,0.1-27.7c-0.9-12.4-2.8-21.8-9.3-55.5
								c-0.1-0.4-0.3-1.5-0.6-2.8c-1.2-5.5-2.6-9.5-2.9-10.3c-1.3-3.9-3.4-9.1-6.8-14.9c17-8.2,26.8-11.9,32.9-13.5
								c1.2-0.3,9.5-2.5,14-6.8c0.5-0.5,4.2-4.1,4.2-4.1l10.8-2.1l23.1,2.7L399.5,384.3z"/>
							<path class="st6" d="M398.2,386.1c0,0,0,2.7,0,3.3v6.9c0,0.4-1.5,8.5-1.5,8.5s-10.9,10.4-11.4,10.9
								c-0.5,0.5-12.1,1.1-12.1,1.1s-9.9-9.3-10.3-9.8c-0.4-0.5-1.1-9.5-1.1-10.1c0-0.5-0.2-3.5-0.3-4.9c0-0.3,0-0.6,0-0.7
								c0-0.6-0.4-4.2-0.4-4.2l1.5-5.9c0,0,18.1-0.4,19.3-0.4C383,380.8,398.2,386.1,398.2,386.1z"/>
							<path class="st7" d="M398.2,386.1c0,0,0,2.7,0,3.3v1.4c-1,1.3-4.2,4.7-5.5,5.8c-1.5,1.4-7,5.6-7.4,6
								c-0.9,0.9-3.8,1.3-6.6,1.2c-2.9-0.1-5.8-0.6-6.7-1.6c-0.4-0.4-5.6-4.9-7.1-6.3c-0.8-0.8-2.2-2.5-3.5-3.9c0-0.3,0-0.6,0-0.7
								c0-0.6-0.4-4.2-0.4-4.2l1.5-5.9c0,0,18.1-0.4,19.3-0.4C383,380.8,398.2,386.1,398.2,386.1z"/>
							<path class="st8" d="M383.8,427l5.5,24.8c2.2,9.8,3.2,19.8,3,29.8c-0.2,12.5-0.4,25-0.6,37.5c-7.7-0.2-15.4-0.3-23.1-0.5
								c0.5-14.2,1-28.4,1.5-42.6c0.2-4.9,0.6-9.8,1.4-14.7l5.2-34.4L383.8,427z"/>
							<path class="st9" d="M389.2,413.5c0,0-3-0.1-3.9-0.2c-0.8-0.1-3.5-0.5-4.8-0.4c-0.3,0-0.9-0.1-1.3-0.1c-0.6,0-1.5,0-2.2,0
								c-1.3,0.1-6.9,0.8-7.2,0.8c-0.2,0.1-0.6,0.6-0.6,0.6l7.5,12.7l7,0.1l7.5-12L389.2,413.5z"/>
							<path class="st10" d="M398.3,387.1c-0.4,3.8-2.1,10.5-5,14.3c-3,3.9-6.8,6.8-8.7,8s-3.4,2.7-4,3.4c1.5,0,4.5-0.1,7,2
								c0.6,0.5,7.9,6,7.9,6c1.9-2.8,4.7-7.7,6.2-14.2c1.6-7.1,1-13,0.4-16.4l-2-4.2l-0.6-0.7L398.3,387.1z"/>
							<path class="st10" d="M361.5,385.2c0,0-0.2,4.5,0.1,6.1c0.5,3.5,3.2,8,6.3,11.8c2.8,3.4,9.1,6.6,11.4,9.7
								c-2,0.1-5.3,0.6-9,2.3c-3.3,1.6-5.5,3.6-6.9,5c-2-3.2-4.9-8.9-6.2-16.4c-1.4-8.7,0.1-15.8,1.2-19.7l1.8-1.2L361.5,385.2z"/>
							<path class="st6" d="M405.2,354.9c0.6-0.3,0.8-0.6,1.4-0.4c0.4,0.1,1,0.6,1.2,1.1c0.3,0.8,0.6,2.2,0.1,3.9
								c-0.1,0.5-0.6,2.7-0.9,3.6c-0.4,1.1-0.8,4.5-1.2,5.3c-0.4,0.8-1,3.4-1.5,4.1s-0.9,1.9-2.4,2.2c-0.5,0.1-1-0.1-1-0.1
								s-0.9-9.3-0.8-11.2c0.2-1.9,1.9-5.6,2.1-6.5C402.4,356,405.2,354.9,405.2,354.9z"/>
							<path class="st6" d="M354,355.5c-0.6-0.3-0.7-0.6-1.4-0.5c-0.4,0.1-1,0.5-1.2,1.1c-0.3,0.8-0.6,2.2-0.2,3.9
								c0.1,0.5,0.5,2.7,0.9,3.6c0.4,1.2,0.8,4.5,1.1,5.4c0.3,0.8,1,3.4,1.5,4.2c0.5,0.7,0.9,2,2.4,2.2c0.5,0.1,1-0.1,1-0.1
								s1.1-9.3,0.9-11.2s-1.8-5.7-2-6.6C356.8,356.6,354,355.5,354,355.5z"/>
							<path class="st6" d="M378.9,401.4c-2.6-0.1-5.1-0.6-5.9-1.4c-0.3-0.4-5-4.3-6.2-5.6c-1.1-1.1-4.1-4.6-4.7-5.6
								c-0.6-1-1.5-2.5-2.3-3.5c-0.8-1-0.9-2.7-1.2-3.3c-0.2-0.6-0.5-3-0.5-3.8c0-0.8-0.3-4.8-0.5-6.3c-0.2-1.4-0.3-2.4-0.6-3.9
								c-0.3-1.7-0.2-4.5-0.2-5.8c0-0.9-0.1-2.8-0.1-2.8s-0.9-8.6-1.2-10.9c-0.2-2.3,2.1-13.1,3.1-14.8c1-1.7,7.2-3.9,15.7-5.3
								c2-0.3,3.8-0.5,5.5-0.6l0.3-0.1c2,0.1,4.3,0.4,6.8,1c8.4,1.8,14.6,4.4,15.4,6.1c0.9,1.7,2.7,12.7,2.3,14.9
								c-0.4,2.2-1.7,10.8-1.7,10.8s-0.2,1.9-0.2,2.8c-0.1,1.3-0.1,4.2-0.5,5.8c-0.3,1.5-0.5,2.5-0.8,3.9c-0.3,1.4-0.8,5.4-0.8,6.2
								c-0.1,0.8-0.4,3.2-0.7,3.8c-0.3,0.6-0.5,2.2-1.3,3.2c-0.8,1-1.8,2.5-2.5,3.4c-0.7,0.9-3.8,4.2-5,5.3
								c-1.3,1.2-6.1,4.9-6.5,5.2C383.9,401.1,381.3,401.5,378.9,401.4L378.9,401.4z"/>
							<path class="st11" d="M352.7,332c0.7-2.8,2.4-5.1,3.9-7.3c0.9-1.4,2.7-2.7,4.8-3.7c5.1-2.4,20.7-4.2,24.9-3.6
								c3.6,0.5,7.2,1.3,10.3,2.8c3.9,1.9,6,6,7.1,9.1c2.5,1.9,3.6,3.9,4.1,5.2c0.4,1.1,0.5,2-0.7,12.2c-0.2,1.8-0.5,4.4-1.3,7.6
								c-0.4,1.8-0.6,2.7-1.1,3.7c-0.5,1.1-1.5,2.8-1.8,3.9c-0.3,1-0.4,2.5-0.4,2.5c-0.3,0.1-0.5,0.2-0.8,0.3
								c0-4.8-1.1-8.4-2.8-11.1c-0.6-1-1-1.4-1.5-2.3c-1.8-3.6-0.9-7.7,0.2-10.6c-0.9,1.4-5.7,8.3-15.1,10.3c-9.2,2-16.2-2.1-17.7-3
								c1.6,0.1,3.7,0.2,6.1-0.4c1.3-0.3,2.4-0.7,3.4-1c-1.8,0.3-4.6,0.6-7.9-0.1c-1.9-0.4-3.5-1-4.7-1.6c0,0.4,0.1,1.1,0,1.8
								c-0.1,1.5-0.6,2.5-0.8,3c-0.7,1.8-1.4,3.6-1.9,5.5c-1.2,3.8-1.5,7.1-1.5,9.3c-0.3,0.1-0.5,0.2-0.8,0.2c0,0-0.1-1.4-0.4-2.5
								c-0.3-1-1.3-2.8-1.8-3.9c-0.5-1.1-1.1-3.1-1.1-3.7c0-0.6-0.5-3-0.9-4.6c-0.3-1.5-0.5-3.1-0.6-4.6c-0.1-1.6-0.1-3.1,0-4.3
								c0-1.3,0.1-2.7,0.3-4C352.2,334.6,352.5,332.5,352.7,332z"/>
						</g>
						<g>
							<path class="st3" d="M340.6,392.4c-2.7,12.4-5.4,24.7-8.1,37.1c-7.5,6.7-9.6,19.1-11.5,28.5c-2.7,13.5-8.8,34.1-21.7,41.3
								c-4.7,2.7-10.6,2.4-14.4-1.4c-1.8-1.8-2.9-3.6-3.5-5.1c-3.1-7.4-0.6-14.9,0.6-17.9c8.5-23,17.1-45.9,25.6-68.9
								c5-2.9,10.9-5.8,17.6-8.5C330.8,395.3,336,393.7,340.6,392.4z"/>
						</g>
						<g>
							<path class="st3" d="M418.8,392.8c0.5,12.2,1,24.3,1.5,36.5c7.1,7.1,8.3,19.7,9.6,29.2c1.8,13.6-0.4,31.2,12,39.3
								c4.6,3,16.4,4.2,20.4,0.6c1.1-1,1.8-1.2,2.3-1.7c0,0,0.4-0.5,0.8-1.2c0.8-1.4,1.7-9.2,2.2-20c-7.6-23.5-15.2-46.9-22.8-70.4
								C436.1,401,427.5,396.9,418.8,392.8z"/>
						</g>
						<g>
							<g>
								<g>
									<g>
										<path class="st12" d="M406.1,376.1c0.3,2.5,1.1,6.9,2.5,12.3c1.2-3.8,2.6-10.1,1.8-17.6c-0.4-4-1.3-7.4-2.3-10.1
											c-0.2-0.7-1.2-0.8-1.6-0.2c-0.2,0.2-0.3,0.5-0.4,0.9c-0.3,1-0.1,1.8,0.1,2.3c0.7,2.6-0.3,3.3-0.3,8.6
											C405.9,372.2,405.9,374,406.1,376.1z"/>
										<path class="st12" d="M401.3,380.4l3.4,12.5c0.9-3.9,1.9-10.4,0.4-18.2c-0.8-3.9-2-7.2-3.2-9.8c-0.3-0.7-1.2-0.7-1.6-0.1
											c-0.2,0.3-0.3,0.6-0.4,0.9c-0.2,1,0.1,1.8,0.3,2.2c0.9,2.5,0,3.3,0.5,8.6C400.8,377.4,401,378.7,401.3,380.4z"/>
										<path class="st12" d="M414.2,410c-0.3-0.6-6.6-13.1-7-14.2c-0.1-0.3-0.2-0.7-0.2-0.7c-0.1-0.4,0-0.9,0.1-1.3
											c0.7-2,0.8-3.2,1.4-5.4c0.3-1.1,0.6-2.2,0.9-3.2c0.2-4,0.1-9.4-1.3-15.7c-1.1-4.8-2.7-8.8-4.2-11.9
											c-0.3-0.6-1.1-0.7-1.5-0.2c-0.3,0.4-0.6,0.9-0.8,1.4c-0.6,1.8,0.1,3.4,0.5,4.7c1.7,4.8,1.7,9.2,1.6,12.9
											c0,2.5-0.2,5.1-0.6,5.1c-0.5,0-0.7-3.4-2.4-8.2c-0.4-1.2-0.9-2.3-1.3-3.2c-0.3-0.7-1.2-0.7-1.6-0.1
											c-0.1,0.2-0.2,0.4-0.3,0.6c-1,2.5,1.1,4.5,1.4,7.5c0.3,2.8-1.2,3-2.9,8.3c-1,3.3-1.5,6-1.5,7.5c0,0.8-0.1,2.3,0.3,4.1
											c0.6,3.1,1.9,5.6,3.2,7.5l6.2,10.6C407.3,414.5,411.1,411.7,414.2,410z"/>
									</g>
								</g>
								<g>
									<g>
										<path class="st12" d="M352.9,376.1c-0.3,2.5-1.1,6.9-2.5,12.3c-1.2-3.8-2.6-10.1-1.8-17.6c0.4-4,1.3-7.4,2.3-10.1
											c0.2-0.7,1.2-0.8,1.6-0.2c0.2,0.2,0.3,0.5,0.4,0.9c0.3,1,0.1,1.8-0.1,2.3c-0.7,2.6,0.3,3.3,0.3,8.6
											C353.1,372.2,353.1,374,352.9,376.1z"/>
										<path class="st12" d="M357.7,380.4l-3.4,12.5c-0.9-3.9-1.9-10.4-0.4-18.2c0.8-3.9,2-7.2,3.2-9.8c0.3-0.7,1.2-0.7,1.6-0.1
											c0.2,0.3,0.3,0.6,0.4,0.9c0.2,1-0.1,1.8-0.3,2.2c-0.9,2.5,0,3.3-0.5,8.6C358.2,377.4,358,378.7,357.7,380.4z"/>
										<path class="st12" d="M354.9,416.2l6.2-10.6c1.2-1.6,2.6-4.2,3.2-7.5c0.9-4.9-0.5-9.1-1.3-11.6c-1.7-5.3-3.2-5.5-2.9-8.3
											c0.4-3,2.4-5.1,1.4-7.5c-0.1-0.2-0.2-0.4-0.3-0.6c-0.4-0.6-1.3-0.6-1.6,0.1c-0.4,0.9-0.8,1.9-1.3,3.2
											c-1.7,4.8-2,8.2-2.4,8.2c-0.4,0-0.6-2.7-0.6-5.1c0-3.6,0-8,1.6-12.9c0.4-1.3,1.1-2.9,0.5-4.7c-0.2-0.6-0.5-1-0.8-1.4
											c-0.4-0.5-1.2-0.4-1.5,0.2c-1.5,3.1-3.1,7.1-4.2,11.9c-1.4,6.3-1.5,11.7-1.3,15.7c0.3,1.1,0.6,2.1,0.9,3.2
											c0.7,2.2,0.2,1.9,0.9,4c0.1,0.4,0.2,0.9,0.1,1.3c0,0,0,0.3-0.2,0.7c-0.4,1.1-6.7,13.6-7,14.2
											C347.4,410.3,351.7,414.5,354.9,416.2z"/>
									</g>
								</g>
							</g>
						</g>
					</g>
				</g>
				<g>
					<path class="st13" d="M339.4,395.5c-18.7,25.7-37.3,51.3-56,77c-1.1,2.1-2.9,6.1-3.1,11.3c-0.1,2.6-0.2,7.6,2.5,11.5
						c4.3,6.3,13.1,8.8,21.8,5.3c11.2-4.5,17.7-14.7,21.6-22.1c10.4-19.8,22.1-41.2,36.5-67.3C354.9,405.9,347.2,400.7,339.4,395.5z
						"/>
				</g>
				<path class="st13" d="M417.7,399.4c23.8,34.7,41,60.9,47.1,70.7c1.2,1.9,4.3,6.9,4.4,13.7c0,2.8,0.2,9.7-4.4,14
					c-4.4,4.1-11.9,4.7-20.7,1.5c-11.3-4.1-16.6-15.3-20.4-23.2c-10.3-21.6-19.5-42.4-28-62.3C403,408.9,410.3,404.2,417.7,399.4z"
					/>
				<g>
					<path class="st7" d="M376.7,383.7c1.9,0.6,3.3,0.5,5.1-0.3C381,385.3,377.8,385.5,376.7,383.7z"/>
					<path class="st7" d="M385.1,390.8c-4.8-1.1-8.4-1.1-13.1-0.2C374.3,388.1,382.4,388.2,385.1,390.8z"/>
					<g>
						<path class="st14" d="M385.8,365c4.4,0.9,9,0,12.9-2.3c-1.6,1.7-3.7,2.9-6,3.6c-2.3,0.6-4.8,0.7-7.1,0.1L385.8,365L385.8,365z
							"/>
					</g>
					<g>
						<path class="st14" d="M373.1,367.2c-4.7,1.3-10-0.2-13.2-3.6c2,1.1,4.1,2,6.3,2.3c2.2,0.4,4.4,0.3,6.6,0L373.1,367.2
							L373.1,367.2z"/>
					</g>
					<g>
						<path class="st14" d="M364.5,372.4c2.3,1.5,5.3,1.3,7.6-0.3C370.3,374.5,366.4,374.7,364.5,372.4L364.5,372.4z"/>
					</g>
					<g>
						<path class="st14" d="M386.7,371.4c2.5,1.8,5.5,1.6,7.9-0.2C392.9,373.8,388.5,374,386.7,371.4L386.7,371.4z"/>
					</g>
				</g>
			</g>
		</g>
		<g>
			<g>
				<rect x="84.1" y="506" class="st15" width="539.6" height="17.2"/>
			</g>
			<g>
				<rect x="586.8" y="416.6" class="st16" width="23.1" height="83.1"/>
				<polygon class="st17" points="586.8,416.6 609.9,499.8 586.8,499.8 				"/>
				<g>
					<path class="st17" d="M592.1,475.5c0-4.4,3.3-8,7.5-8.6c-0.4-0.1-0.8-0.1-1.2-0.1c-4.8,0-8.7,3.9-8.7,8.7s3.9,8.7,8.7,8.7
						c0.4,0,0.8-0.1,1.2-0.1C595.4,483.5,592.1,479.9,592.1,475.5z"/>
					<path class="st18" d="M607.2,475.5c0-4.4-3.3-8-7.5-8.6c-4.2,0.6-7.5,4.2-7.5,8.6s3.3,8,7.5,8.6
						C603.9,483.5,607.2,479.9,607.2,475.5z"/>
				</g>
				<rect x="590.9" y="431.7" class="st3" width="13.9" height="21.6"/>
				<rect x="590.9" y="456" class="st3" width="13.9" height="5.6"/>
				<g>
					<path class="st19" d="M602.2,436.4h-8.9c-0.4,0-0.8-0.4-0.8-0.8c0-0.4,0.4-0.8,0.8-0.8h8.9c0.4,0,0.8,0.4,0.8,0.8
						C603,436,602.6,436.4,602.2,436.4z"/>
				</g>
				<g>
					<path class="st19" d="M602.2,440.1h-8.9c-0.4,0-0.8-0.4-0.8-0.8c0-0.4,0.4-0.8,0.8-0.8h8.9c0.4,0,0.8,0.4,0.8,0.8
						C603,439.7,602.6,440.1,602.2,440.1z"/>
				</g>
				<g>
					<path class="st19" d="M602.2,443.8h-8.9c-0.4,0-0.8-0.4-0.8-0.8c0-0.4,0.4-0.8,0.8-0.8h8.9c0.4,0,0.8,0.4,0.8,0.8
						C603,443.4,602.6,443.8,602.2,443.8z"/>
				</g>
				<g>
					<path class="st19" d="M602.2,447.5h-8.9c-0.4,0-0.8-0.4-0.8-0.8c0-0.4,0.4-0.8,0.8-0.8h8.9c0.4,0,0.8,0.4,0.8,0.8
						C603,447.1,602.6,447.5,602.2,447.5z"/>
				</g>
				<g>
					<path class="st19" d="M602.2,451.2h-8.9c-0.4,0-0.8-0.4-0.8-0.8c0-0.4,0.4-0.8,0.8-0.8h8.9c0.4,0,0.8,0.4,0.8,0.8
						C603,450.8,602.6,451.2,602.2,451.2z"/>
				</g>
			</g>
			<g>
				
					<rect x="558.8" y="414.7" transform="matrix(0.9876 0.1569 -0.1569 0.9876 78.6189 -83.8139)" class="st17" width="23.1" height="83.1"/>
				<g>
					<path class="st17" d="M561.5,472.3c0.7-4.4,4.5-7.4,8.8-7.3c-0.4-0.1-0.7-0.2-1.1-0.3c-4.7-0.8-9.2,2.5-9.9,7.2
						c-0.8,4.7,2.5,9.2,7.2,9.9c0.4,0.1,0.8,0.1,1.2,0.1C563.5,480.7,560.8,476.7,561.5,472.3z"/>
					<path class="st18" d="M576.4,474.7c0.7-4.4-2-8.4-6.1-9.7c-4.3-0.1-8.1,2.9-8.8,7.3c-0.7,4.4,2,8.4,6.1,9.7
						C571.9,482.1,575.7,479,576.4,474.7z"/>
				</g>
				
					<rect x="565.4" y="429.9" transform="matrix(0.9876 0.1568 -0.1568 0.9876 76.2038 -84.3201)" class="st3" width="13.9" height="21.6"/>
				
					<rect x="562.9" y="453.9" transform="matrix(0.9876 0.1568 -0.1568 0.9876 78.6924 -83.7227)" class="st3" width="13.9" height="5.6"/>
				<g>
					<path class="st19" d="M577.7,435.3c0,0-0.1,0-0.1,0l-8.8-1.4c-0.4-0.1-0.7-0.5-0.7-0.9c0.1-0.4,0.5-0.7,0.9-0.7l8.8,1.4
						c0.4,0.1,0.7,0.5,0.7,0.9C578.4,435,578.1,435.3,577.7,435.3z"/>
				</g>
				<g>
					<path class="st19" d="M577.1,439c0,0-0.1,0-0.1,0l-8.8-1.4c-0.4-0.1-0.7-0.5-0.7-0.9c0.1-0.4,0.5-0.7,0.9-0.7l8.8,1.4
						c0.4,0.1,0.7,0.5,0.7,0.9C577.8,438.7,577.5,439,577.1,439z"/>
				</g>
				<g>
					<path class="st19" d="M576.5,442.6c0,0-0.1,0-0.1,0l-8.8-1.4c-0.4-0.1-0.7-0.5-0.7-0.9c0.1-0.4,0.5-0.7,0.9-0.7l8.8,1.4
						c0.4,0.1,0.7,0.5,0.7,0.9C577.3,442.3,576.9,442.6,576.5,442.6z"/>
				</g>
				<g>
					<path class="st19" d="M576,446.3c0,0-0.1,0-0.1,0l-8.8-1.4c-0.4-0.1-0.7-0.5-0.7-0.9c0.1-0.4,0.5-0.7,0.9-0.7l8.8,1.4
						c0.4,0.1,0.7,0.5,0.7,0.9C576.7,446,576.3,446.3,576,446.3z"/>
				</g>
				<g>
					<path class="st19" d="M575.4,449.9c0,0-0.1,0-0.1,0l-8.8-1.4c-0.4-0.1-0.7-0.5-0.7-0.9c0.1-0.4,0.5-0.7,0.9-0.7l8.8,1.4
						c0.4,0.1,0.7,0.5,0.7,0.9C576.1,449.7,575.8,449.9,575.4,449.9z"/>
				</g>
			</g>
			<polygon class="st18" points="527.4,502.7 527.4,451.9 530.9,451.9 530.9,499.4 609.3,499.4 609.3,451.9 612.5,451.9 
				612.5,502.7 			"/>
			<polygon class="st20" points="623.7,511.6 84.1,512.4 84.1,506.4 623.7,505.7 			"/>
			<g>
				<g>
					<path class="st21" d="M322.3,500.3H219.1c-1.7,0-3-1.3-3-3v-63.9c0-1.7,1.3-3,3-3h103.2c1.7,0,3,1.3,3,3v63.9
						C325.3,499,324,500.3,322.3,500.3z"/>
					<path class="st22" d="M320.8,500.3H217.6c-1.7,0-3-1.3-3-3v-63.9c0-1.7,1.3-3,3-3h103.2c1.7,0,3,1.3,3,3v63.9
						C323.8,499,322.5,500.3,320.8,500.3z"/>
					<path class="st3" d="M278.5,467.8c0,4.8-4.2,8.7-9.3,8.7s-9.3-3.9-9.3-8.7s4.2-8.7,9.3-8.7S278.5,463,278.5,467.8z"/>
					<polygon class="st22" points="222.9,499.7 223.4,506 362.3,506 362.3,499.7 					"/>
					<polygon class="st23" points="322.7,499.7 322.9,506 369.8,506 369.8,499.7 					"/>
				</g>
				<polygon class="st23" points="223,506 319.6,499.7 222.9,500.3 				"/>
			</g>
		</g>
		<g>
			<g>
				<polygon class="st18" points="190.5,507.6 99.2,507.6 100.7,488.5 191.1,488.1 				"/>
				<polygon class="st24" points="190.5,507.6 135.6,507.6 100.4,491.9 100.7,488.5 191.1,488.1 				"/>
				<polygon class="st25" points="177.1,492 176.8,503.6 149.2,503.6 149.2,492.5 				"/>
				<polygon class="st25" points="146.7,492.5 146.9,503.6 142.5,503.6 142.1,492.5 				"/>
			</g>
			<g>
				<g>
					<polygon class="st26" points="186.7,488.1 189,470.3 183.8,470.8 94.2,479.8 94.4,481.4 185.2,473.4 183.2,486.3 94.7,486.4 
						94.6,487.8 					"/>
					<path class="st27" d="M184.4,478.8c0,0-3.5-6.3-6.7-4.8c-3.2,1.6-3.5,5.2-3.5,5.2l0.9,0.6c0,0,0.8-5,3.5-4.9
						c2.7,0,4.3,4.9,4.3,4.9s0.6,3.3-2.1,4.9c-2.7,1.6-4.4,0.2-4.8-0.5c-0.4-0.7-0.7-2.8-0.7-2.8l-1,0.1c0,0,0.1,3,1.2,4
						c1.2,1,3.5,1.5,5.5,0.6c1.4-0.6,2.9-2.5,2.9-2.5L184.4,478.8z"/>
				</g>
			</g>
		</g>
		<g>
			<g>
				<g>
					<polygon class="st28" points="488.9,479 489.3,481.4 492.3,483 490,482.9 540.8,502.8 543.5,502 544.8,495.3 					"/>
					<polygon class="st17" points="519.9,415.9 488.9,479 539,499.5 577.9,422.7 					"/>
					<polygon class="st29" points="577.9,422.7 546.7,436.5 537.1,498.7 508.3,486.2 488.9,479 519.9,415.9 					"/>
					<path class="st3" d="M577.9,422.7l1.8,1.8l-0.9,1.8l2.2-1.7l0.8,1.8c0,0-37.8,75.5-38.2,75.5c-0.4,0-2-0.1-2-0.1l1.5-2.3
						l-2.5,2.3l-1.6-2.4L577.9,422.7z"/>
				</g>
				<polygon class="st30" points="569.4,443.3 579.9,423.8 582.5,422.8 				"/>
				<polygon class="st30" points="552.1,478.9 569.4,445.4 569.4,450.1 				"/>
			</g>
			<g>
				<path class="st3" d="M456.3,494.4l16-0.1c8.2-6.5,25-46.1,25-46.1l57.3-2c0,0-21.8,50.6-29,56c-7.2,5.4-26.3-8.1-26.3-8.1
					L456.3,494.4z"/>
				<g>
					<polygon class="st31" points="531.4,450 549,449.3 548.3,450.2 530.8,450.8 					"/>
					<polygon class="st31" points="529.6,453.2 547.9,452.6 547.3,453.5 529.1,454 					"/>
					<polygon class="st31" points="533.9,456.4 546.9,455.8 546.2,456.7 533.3,457.1 					"/>
					<polygon class="st31" points="508.5,460.2 526.9,459.6 526.3,460.5 507.9,461 					"/>
					<polygon class="st31" points="495.8,463.7 543.9,462.3 543.2,463.2 495.2,464.5 					"/>
					<polygon class="st31" points="494,466.9 542.1,465.5 541.5,466.4 493.5,467.7 					"/>
					<polygon class="st31" points="492.2,470.2 540.3,468.7 539.7,469.6 491.7,471 					"/>
					<polygon class="st31" points="490.9,473.4 539,472 538.4,472.9 490.4,474.2 					"/>
					<polygon class="st31" points="489.7,476.7 537.8,475.2 537.2,476.1 489.1,477.4 					"/>
					<polygon class="st31" points="488.2,479.9 536.3,478.4 535.7,479.3 487.6,480.7 					"/>
					<polygon class="st31" points="486.2,483.1 534.3,481.7 533.7,482.6 485.7,483.9 					"/>
					<polygon class="st31" points="484.3,486.4 532.4,484.9 531.8,485.8 483.8,487.1 					"/>
					<polygon class="st31" points="482.6,489.6 530.7,488.2 530,489.1 482,490.4 					"/>
					<polygon class="st31" points="479.9,492.8 527.9,491.4 527.3,492.3 479.3,493.6 					"/>
					<polygon class="st31" points="478.1,496.1 526.2,494.6 525.5,495.5 477.5,496.9 					"/>
					<polygon class="st31" points="476.3,499.3 524.4,497.9 523.8,498.8 475.8,500.1 					"/>
					<polygon class="st31" points="474.5,502.6 522.6,501.1 522,502 474,503.3 					"/>
				</g>
				<path class="st28" d="M456.3,494.4c0,0,3.6,5.4,9.3,7.9c5.7,2.5,9.8,2.3,9.8,2.3l45.9-0.6c0,0-8.8-1.8-14.3-5.1
					c-5.6-3.2-7.8-4.8-7.8-4.8L456.3,494.4z"/>
			</g>
		</g>
	</g>
	<g>
		<g>
			<defs>
				<polygon id="SVGID_1_" points="815.5,524 490,526.8 481,207.8 806.4,201.3 				"/>
			</defs>
			<clipPath id="SVGID_00000037681693588905319700000002572207698330193085_">
				<use xlink:href="#SVGID_1_"  style="overflow:visible;"/>
			</clipPath>
			<g style="clip-path:url(#SVGID_00000037681693588905319700000002572207698330193085_);">
				<g>
					<path class="st6" d="M544.6,319.1c-0.6-3.7-4.2-8.1-7.2-10.2c-3.1-2.1-4.8-3.8-7.9-5.8c-2.8-1.8-5.5-3.9-7.9-6.3
						c-0.3-0.3-0.6-0.1-0.7,0c-1.1,1.4-1.2,3.5-0.6,5.2c0.6,1.7,1.8,3.2,2.9,4.6c2,2.5,4,5,6,7.5c-5.5-0.9-9.2-1.1-13.1-3.5
						c-4.3-2.6-8.8-5.5-13.8-5.4c-1,0-1.6,0.7-2.2,1.4c3.3,2.6,6.6,4.9,10.4,6.8c4.7,2.4,4.1,11.3,8.6,13.9
						c7.6,4.4,17.9,4.7,26.5,5.8c1-1.9,1.3-4.4,1.3-6.6C545.3,324.2,545,321.7,544.6,319.1z"/>
					<path class="st6" d="M521.6,316.7c-3.3-1.7-7.3-2.2-10.4-4.2c-1.8-1.2-3.8-2.2-5.9-3c-0.9-0.3-1.8-0.6-2.7-0.6
						c-0.9,0-1.2,1-1.7,1.7c-0.1,0.2,17,12.2,18.6,13.3C521.3,322.1,522.1,319.2,521.6,316.7z"/>
					<path class="st6" d="M524.3,321.4c-3.3-1.7-7.3-2.2-10.4-4.2c-1.8-1.2-3.8-2.2-5.9-3c-0.9-0.3-1.8-0.6-2.7-0.6
						c-0.9,0-1.2,1-1.7,1.7c-0.1,0.2,17,12.2,18.6,13.3C524,326.7,524.7,323.8,524.3,321.4z"/>
					<path class="st6" d="M526.2,322.8c-3-1-6.6-0.9-9.4-2.2c-1.7-0.8-3.6-1.4-5.4-1.8c-0.8-0.2-1.6-0.3-2.4-0.2
						c-0.8,0.1-0.9,1-1.3,1.7c0,0.1,3.5,1.9,8.1,5.1c2.8,2,6.8,2.9,9.6,3.7C526.7,327.4,526.9,324.8,526.2,322.8z"/>
				</g>
				<path class="st6" d="M561.5,335.1c-5.9-4.6-11.5-9.4-17-14.4l-13.8,6.2c7.4,6.2,14.4,12.8,21,19.8L561.5,335.1z"/>
				<path class="st33" d="M554.8,328c-2.1-2-5.3-4.1-7.3-6c-4.7,4-8.7,8.8-11.9,14c2.5,1.9,4.8,4.1,7.4,6L554.8,328z"/>
				<path class="st34" d="M675.8,348.4c-10.3,14.4-38.2,36.7-62.8,45.7c-10.2-2.3-15.7-15.6-21.3-22.8
					c14.8-12.4,43.6-41.3,57.9-59.7c9.1,0.9,8.4,7.4,14.4,12.7C669.9,329.5,671.6,342,675.8,348.4z"/>
				<g>
					<path class="st35" d="M644.7,710.2c-0.7,0.7-1.4,1.5-2.2,2.2c-0.2,2.6,0.4,4.1,1.2,4.9c0,0,0.6,0.7,4.4,2.5l0,0
						c6.6,0.4,14.9,0.4,24.3-1.3c6.4-1.1,12-2.7,16.6-4.3c0.6-1,1.1-2,1.7-3c0.6,0.8,1.2,1.6,1.8,2.3c3.1-1.1,6.2-2.2,9.3-3.3
						l-0.5-6.8l-10.1-2.9L644.7,710.2z"/>
					<path class="st35" d="M693.5,671c-7.1,1.1-13.3,1.3-20.4,2.5c-0.1,5.6-2.2,16.4-3.4,21.7l27.8-6.3
						C695.9,683,695.1,676.9,693.5,671z"/>
					<path class="st35" d="M696.6,685.4c-6-3.2-12.3-1.1-18.9,0.4l-4.9,1c-5,8.8-8.6,12.9-17.9,16.9c-2.8-0.8-6.8,0.1-9,1.8
						c-2.3,1.8-3.6,4.8-3.3,7.7c5.2,1.3,10.5,3,15.7,4.4c5.6,1.5,18.8-1.9,28.2-4.9c0,0,10.7-6.8,15-9.3
						C700.5,698.2,698.8,690.5,696.6,685.4z"/>
				</g>
				<g>
					<path class="st34" d="M701.8,684.4c0.8-33.1,19.5-77.7,6.4-123.8c-4.2-10.2-25.8-12.4-42.6-1.9c1,33.9,3.8,122.7,3.5,128.4
						C678.8,689.1,691.5,688.9,701.8,684.4z"/>
					<path class="st34" d="M665.6,558.7c-1.4-32.4-6.5-119.8-6.5-119.8l56.4-1.2c-3.6,30.8-8.4,125.2-8.4,125.2L665.6,558.7z"/>
				</g>
				<g>
					<path class="st35" d="M783.5,714.9l14.1,2.3c7.3,1,14.8,0.2,21.8-2.2c0.5-0.2,1.2-0.4,1.9-0.8c1.2-0.7,2-1.6,2.4-2.2
						c0-1.7,0-3.5,0-5.2c-0.6-0.2-1.2-0.3-1.8-0.5c-15.5-2.7-31.1-5.4-46.6-8.1l-9.1,8.4c0.4,1.9,0.3,3.7,0.7,5.6
						c3,0.9,5.7,1.6,8.8,1.7l2.1-4.1L783.5,714.9z"/>
					<path class="st35" d="M765.9,673.1c7.1-1,13.1-2.6,20.2-3.6c1.7,5.3,6.9,15,9.6,19.7l-28.4,2.2
						C767.1,685.2,766.1,679.1,765.9,673.1z"/>
					<path class="st35" d="M766.1,706.7c4.4,2.2,13.8,3.7,13.8,3.7c9.5,2.4,23,5.1,28.4,3.3c5.1-1.7,10.2-3.8,15.4-5.3
						c0.1-2.9-1.4-5.8-3.7-7.5c-2.3-1.6-6.4-2.2-9.1-1.3c-5.6-2.7-15.9-11.7-15.9-11.7l-7.9-4.8c-6.7-1.1-13.1-2.8-18.9,0.7
						C766.3,688.8,765.3,701.7,766.1,706.7z"/>
				</g>
				<path class="st34" d="M745.7,434.2c7,36.2,14.7,71.2,22.3,115.4c0,0-32.9,12.2-41.6,12.7c-4.4-10.9-28.5-90.4-35.7-124.4
					L745.7,434.2z"/>
				<path class="st34" d="M765.3,540.3c14.3,45.2,27.5,138,27.5,138c-10.6,4.9-25.1,8.3-33,4.9c-13.5-48.5-28.7-75.8-33.5-121.3
					L765.3,540.3z"/>
				<path class="st36" d="M745.9,439.3c-1-1.8-4.7-3.1-5.7-4.9l-62.1,3.8c0,0.1,0.1,0.1,0.1,0.2l-17.6,0.4c0,0,0.8,17.5,0.4,39.4
					c5.4,0.6,7.7,0.8,13.1,1.7c0.4-11-0.8-22.1-0.5-33.1c11.3,0.1,19-0.5,29.7-0.9c0,0,7.6,23.4,11.5,35c11.5-1.2,27.7-3.6,38.6-6.7
					C750.9,463.1,748.6,452.2,745.9,439.3z"/>
				<path class="st37" d="M742.6,437.1l-83,1.1c1.8-3.8,0.6-1.2,2.4-5c-1.9-2.8-3.7-5.7-5.6-8.5c1.9-2.7,3.9-4.6,5.8-7.3
					c-7.6-35.7-11.8-69.4-12.6-105.8c16.3-5.2,37.1-13.9,53.8-17.8c16.7,7,30.5,9.8,47.5,13.1c4.6,9.9,6.2,33.3,5.9,44.2
					c-0.2,10.9-2.1,21.7-4,32.4L742.6,437.1z"/>
				<path class="st6" d="M682.7,314.1c0-5.5-0.3-11.7-1.3-18.5c-0.7-5.1-1.7-9.8-2.8-14c8.8-3.8,17.6-7.6,26.5-11.4
					c0.2,5.1,0.8,10.9,1.8,17.1c0.8,4.8,1.8,9.3,2.9,13.3c-6.9,3.9-13.8,7.7-20.7,11.6C687.1,312.8,684.9,313.5,682.7,314.1z"/>
				<path class="st38" d="M706.5,284.9c-0.5-4.6-1.1-9.2-1.6-13.8c-8.7,3.5-17.5,7-26.2,10.5c0.6,2.5,1.2,5.1,1.8,7.8
					c0.8,3.9,1.3,7.6,1.8,11c3.5-1,8.3-2.8,13.5-6.1C700.7,291.1,704.2,287.6,706.5,284.9z"/>
				<path class="st35" d="M676.6,268.8c-5.3,1,0.2-10.5-5-12.1c-5.1-1.5-6.2-0.4-11.3-1.8c-5.3-1.4-9.3-7.6-8.5-12.9
					c1.2,0.1,3.1,0.1,5.4-0.7c1.9-0.6,3.3-1.5,4.1-2.2c-0.7-0.6-2.1-2-2.9-4.3c-0.5-1.7-0.7-3.5-0.3-5.2c5.6,1.1,10.1,0.9,13.1,0.4
					c5.8-0.8,10.5-2.9,22.1-5.4c2.8-0.6,5.2-0.5,7.7,0.3c1.5,0.5,4.5,6.4,4.5,6.4c1.3,0.5,3.2,1.6,4.6,3.6c1.2,1.9,1.5,3.9,1.4,8
					c-0.1,3.1-0.3,7.2-1,12c-1.8,3.2-3.5,6.4-5.3,9.7c-2.6,4.6-5.1,9.2-7.7,13.7C689.4,276.2,684.3,272.6,676.6,268.8z"/>
				<g>
					<path class="st6" d="M701.9,268.4c-3,4.2-7.5,7.3-13,8.4c-11,2.4-21.8-4-25.2-14.4c-0.2-0.7-0.4-1.4-0.6-2.2l0,0
						c-0.1-0.6-0.2-1.2-0.3-1.8c-1.4-11.1,5.8-21.6,16.9-23.9c11.7-2.5,23.2,4.9,25.8,16.6C707,257.4,705.4,263.6,701.9,268.4z"/>
					<path class="st6" d="M663.8,252.6c0.3,5-0.2,9.4-0.4,14.7c-0.2,3.7,1,7,2.5,10.2c0.8,1.7,1.7,5.3,4.7,13c0.8,2,0.6,2.6,2.5,3.6
						c2.1,1,6,1.1,8.1,1c5.5-0.3,16.9-9.4,17.8-10c3.1-2.2,3.3-3.4,3-9.2c-0.2-3.9,0.3-12.2-0.4-14.5L663.8,252.6z"/>
					<g>
						<path class="st39" d="M672.7,276.9c-0.7-0.3-1.1-0.9-1.3-1.3c0.6,0.1,1.5,0.3,2.5,0.2c1.6-0.2,2.7-0.8,3.2-1.2
							c-0.1,0.3-0.3,0.8-0.7,1.3C675.6,276.7,674,277.5,672.7,276.9z"/>
						<path class="st35" d="M681.2,260.4c1.1-0.7,2.5-1.5,4.3-2.3c0.6-0.3,1.8-0.7,3.4-1.1c3.6-0.8,6.1-0.4,6.1-0.8
							c0-0.3-1.4-0.8-2.8-1.1c-3.8-0.7-6.9,0.7-7.9,1.2c-1,0.5-2.5,1.3-4.1,2.7C680.6,259.4,680.9,259.9,681.2,260.4z"/>
						<path class="st35" d="M673.3,260.3c-0.2,0.5-0.4,1-0.6,1.6c-1.2-0.5-2.8-1-4.7-1.3c-0.7-0.1-2-0.3-3.6-0.4c-0.2,0-0.3,0-0.5,0
							c-0.2,0-0.5,0-0.7,0c-0.1-0.6-0.2-1.2-0.3-1.8c0.4-0.1,0.7-0.1,1.1-0.2c2.2-0.3,4,0.1,4.8,0.3
							C669.8,258.7,671.4,259.2,673.3,260.3z"/>
					</g>
					<g>
						<path class="st38" d="M684.5,283.4c-3.2-0.1-6.6,0-10.2,0.4c-1.1,0.1-2.2,0.2-3.2,0.4c0-0.5,0.1-2.6,1.8-3.9
							c1.2-0.9,2.5-0.9,3.4-0.9C680.4,279.3,683.6,282.5,684.5,283.4z"/>
					</g>
				</g>
				<path class="st35" d="M660.3,249.9c5.7-1.8,10.4-2.2,13.6-2.3c6.3-0.1,10.9,1,15.8-1.8c1.9-1.1,3.2-2.4,4-3.3
					c-0.5,2.1-0.8,5.1,0.4,8.2c1,2.5,2.3,3.4,3.7,5.8c1.2,2,2.4,5.2,2.4,9.9c1.1-0.2,2.3-0.4,3.4-0.6c-0.7,2.2-1.3,4.4-2,6.6
					c1.5,3.5,2.9,7,4.4,10.4c1.2-6.9,3.3-18.9,4.3-26.9c0.1-0.5,0.1-1.6,0.2-2.9c0.5-5.1-1.5-10.4-5-14.2c-3.5-3.8-8.3-6.3-13.4-7.3
					C680.1,228.9,665.5,238.4,660.3,249.9z"/>
				<g>
					<path class="st6" d="M701.2,260.5c0.9-0.9,1.9-1.6,3.1-1.9s2.6-0.1,3.5,0.7c1.3,1,1.7,2.8,1.6,4.4c-0.3,4.3-3.8,8.1-8.1,8.8
						c-0.7-0.3-1-1.1-0.8-1.7C701.6,267.4,701.6,263.9,701.2,260.5z"/>
					<path class="st38" d="M703.8,262c1-0.6,2.3-0.5,3.1,0.2c1.1,0.9,1.2,2.6,0.6,3.9c-0.6,1.3-1.9,2.2-3.2,2.8
						c-0.7,0.3-2.3,0.7-2.5-0.5c-0.1-0.6,0.5-0.9,0.8-1.3C703.7,265.5,701.6,263.4,703.8,262z"/>
				</g>
				<path class="st40" d="M688.2,317.8c-2.9,0-4.3-0.3-7.2-0.3c-1.7,18.8-3.7,38-5.9,57.5c-1.1,9.2-2.2,18.3-3.4,27.3
					c3.7,5.2,7.4,10.3,11.1,15.5c3.8-5.5,7.6-11.1,11.4-16.6C692.9,376.2,692.1,342.5,688.2,317.8z"/>
				<path class="st34" d="M792,395.1c-8.4-31-25.4-73.7-39.6-88c-2.4,0.7-10.7,17.5-14.7,37.4c-2,10.1-0.7,17.3-0.7,17.3
					c7.4,16.2,29.2,49.7,29.2,49.7s17.2-4.1,22-6.7C790.9,403.3,792.6,397.5,792,395.1z"/>
				
					<rect x="659.5" y="431.6" transform="matrix(0.9995 -3.261038e-02 3.261038e-02 0.9995 -13.8288 23.1153)" class="st35" width="84.4" height="7.8"/>
				<path class="st34" d="M675.2,302.2c-11,54.9-13,115.3-12.1,171.7c-5.4-1.4-11.8-6-11.8-6c0.5-12.4,3.7-44.4,3.1-49.7
					c-0.6-6.2-1.3-12.4-1.9-18.6c-2.9-28.2-4.9-59.8-2.9-88.1C652.9,309.9,675.2,302.2,675.2,302.2z"/>
				<g>
					<path class="st41" d="M665.6,305.1c-0.1,0.2-0.2,0.4-0.3,0.6c-6.1,12.7-11.4,24.6-15.9,38.1c4.3,3.5,8.3,6.9,11.9,11.1
						c-3.6,3.7-6.8,6.3-10.4,10c6.6,11.4,9.7,25.6,12.9,38.6c1.5-34.3,4.8-68.7,11.3-101.2l0.7-0.9
						C672.5,302.6,669.1,303.9,665.6,305.1z"/>
				</g>
				<path class="st42" d="M673.6,302.3c-0.7,3.2-1.1,7.4-1.8,10.6c2.5-0.6,6-2.2,9.3-3.5L673.6,302.3z"/>
				<polygon class="st42" points="694.2,302.8 685.2,311.8 698.6,311.1 				"/>
				<path class="st33" d="M716,299.2c-1.5-2.9-2.9-5.3-4.8-8c-1.2-0.1-2.4-0.1-3.6-0.2c0.2,0.7,0.3,1.5,0.5,2.2
					c-1.7,1.3-3.6,2.6-5.5,3.9c-2.9,2-5.7,3.8-8.5,5.5c1.4,4.2,2.8,8.5,4.2,12.6C705.8,310.7,711,305.8,716,299.2z"/>
				<path class="st40" d="M694.8,303.9c0.7,2.5,1.5,5,2.2,7.5c-1.8,1.5-3.7,3.4-5.5,5.5c-1.1,1.2-2,2.3-2.9,3.5
					c-1.4,0.1-3,0.2-4.7,0.1c-1.1,0-2.1-0.1-3.1-0.2c-0.7-1.9-1.3-3.9-1.9-5.9c-1-3.1-1.8-6.1-2.5-9c1.1,0.6,2.4,1.4,3.8,2.5
					c1.6,1.3,2.8,2.6,3.6,3.7l1.3,0.1C688.4,309.1,691.6,306.5,694.8,303.9z"/>
				<path class="st33" d="M683.8,311.6c-3.8-2.7-7.3-5.7-10.3-9.4c2.5-2.5,5.1-4.8,7.9-6.9C682.2,300.2,683.8,311.6,683.8,311.6z"/>
				<path class="st34" d="M749.5,419.1c0,11.9,5.1,32.5,8.7,43.8c-12.2,6.6-27.3,9.7-41.2,9c-5.4-34.6-8.2-69.7-8.9-104.8
					c-0.5-24.1,0.3-50.3,6.8-70c11.6,5.1,28.1,7.3,37.5,10c2.9,16.1,3.5,40.3,6.4,56.4C758.8,363.5,749.5,414.8,749.5,419.1z"/>
				<path class="st41" d="M732,339.4c-3.4-12.9-6.2-26.4-7.9-39.7c0,0-5.9-1.6-9.1-3.2l-0.2,0.5c0,0,0,0,0,0
					c-0.4,1.2-0.8,2.5-1.1,3.8c-5.4,19.2-6.1,43.7-5.7,66.3c0.2,9.6,0.6,19.1,1.1,28.7c0.1,2.2,0.2,4.4,0.4,6.6
					c2.2-15.2,6.8-29.6,15.9-42.1c-3.6-3.2-7.2-6.7-10.8-9.9C720.1,346.5,726.1,342.7,732,339.4z"/>
				<g>
					
						<rect x="711" y="395.3" transform="matrix(0.211 -0.9775 0.9775 0.211 157.1139 1074.7537)" class="st17" width="66.5" height="89.5"/>
					<polygon class="st16" points="789,418.3 790.4,421.9 776.4,477 697.4,463.3 695.7,459.5 708.3,400.9 					"/>
				</g>
				<path class="st38" d="M756.7,459.3c0.8,3.2,1.6,8.2,0,13.7c-0.3,1.3-0.8,2.4-1.2,3.5c-0.3,0.3-0.7,0.9-1.3,1.3
					c-2.5,2-5.8,1.5-8,1.1c-2.5-0.4-5.2-0.8-7-3.1c-0.9-1.1-1.2-2.4-1.4-3.2c0.5,0.1,1,0.2,1.5,0.3c0-1.7-0.1-3.6-0.5-5.7
					c-0.5-2.8-1.2-5.1-1.9-7c1-0.9,2.5-2,4.6-3c1.9-0.9,3.7-1.3,4.9-1.4C749.9,457,753.3,458.2,756.7,459.3z"/>
				<path class="st38" d="M746.2,462.4c-2.1,1.5-4.1,2.9-6.2,4.4c-0.8,0.6-1.8,1.8-2.4,2.6c0,0-0.4,1.6-0.5,2.3
					c-0.2,1.4-0.7,3.3-1.5,4.4c-0.8,1.1-3.1,2.1-4.4,1.6c0.9-2.8,0.5-6.1,0.5-9.2c0,0,0-0.1,0-0.1c2.4-4.1,4.8-7.1,4.8-7.1
					c0.2-0.3,0.5-0.7,1-1.2c0.8-0.2,2.7-0.6,4.9,0C744.4,460.7,745.6,461.8,746.2,462.4z"/>
				<path class="st34" d="M536.2,344.3c3.1-6,6.9-14,14.2-20.5c11.7,8.5,14.6,11.5,28.1,20c8.6,5.4,22.6,10.5,30.6,15.9
					c9.3,6.2-4.8,27.3,3.9,34.4c-4.1,1.5-7.5,1.9-11,1.2c-11-2.3-23-8.7-33.8-17.8C554.8,366,544.2,356,536.2,344.3z"/>
				<path class="st33" d="M742.7,453.4l-1,3.3c0,0,8.8,7.5,16.5,6.6l1.4-5.4L742.7,453.4z"/>
				<path class="st34" d="M741,453.1c0,0,12.8,7.4,18.7,7.4c17.5-19.9,25.3-37.2,32.1-60.7c0,0-0.3-5.6-4.8-8.9
					c-5-3.6-20.8-3.3-26.6-1C752.1,416.9,749.3,426,741,453.1z"/>
				<g>
					<path class="st3" d="M683.7,264.8c0.7,0.4,1.9,1,3.5,0.9c2.7-0.1,4.4-1.9,4.8-2.5c-1.1-0.9-2.2-1.5-3.3-1.7
						c-0.5-0.1-1.1-0.2-1.9,0C684.9,262,683.9,264.3,683.7,264.8z"/>
					<path class="st43" d="M685.1,264.1c0.3,0.7,1.2,1.7,2.4,1.5c1.5-0.3,1.8-2.2,1.7-2.8c-0.1-0.4-0.3-0.8-0.6-1
						c-0.1-0.1-0.2-0.2-0.4-0.3c-0.3-0.1-0.5-0.1-0.6-0.1c-0.3,0-0.7,0-1.2,0.2c-0.3,0.1-0.7,0.3-1,0.7c-0.1,0.1-0.4,0.6-0.4,1.2
						C684.9,263.5,685,263.8,685.1,264.1z"/>
					<path d="M688.3,263.3c0.1,0.7-0.5,1.4-1.2,1.5c-0.7,0-1.3-0.5-1.4-1.2c-0.1-0.7,0.4-1.4,1.1-1.5
						C687.6,262,688.3,262.6,688.3,263.3z"/>
					<path class="st3" d="M688.5,262.9c0,0.3-0.1,0.5-0.4,0.6c-0.2,0-0.5-0.2-0.5-0.5c0-0.3,0.1-0.5,0.4-0.5
						C688.3,262.4,688.5,262.6,688.5,262.9z"/>
					<path class="st44" d="M683.7,264.8c0.3-0.5,1.2-2.1,2.9-2.7c2.7-1,5.1,1,5.4,1.2c-2.1-2.3-4.8-2.9-6.6-1.5
						C684.3,262.6,683.9,264.1,683.7,264.8z"/>
				</g>
				<g>
					<path class="st3" d="M672.7,265.7c-0.2,0.2-1.7,2.1-4.2,2c-1.7-0.1-2.9-1-3.2-1.3c0.4-0.5,1-1.2,2.1-1.7c0.3-0.1,1-0.4,1.8-0.5
						C671,264.1,672.4,265.4,672.7,265.7z"/>
					<path class="st43" d="M670.7,264.4c0.6,1,0.2,2.4-0.8,3c-1,0.6-2.5,0.3-3.1-0.8c-0.2-0.4-0.2-0.7-0.2-1.1
						c0-0.2,0.1-0.4,0.2-0.7c0.1-0.1,0.2-0.3,1.1-0.6c0.4-0.1,0.6-0.2,0.9-0.2c0.3,0,0.9-0.1,1.6,0.2
						C670.6,264.2,670.6,264.3,670.7,264.4z"/>
					<path d="M667.7,266.7c0.4,0.5,1.1,0.7,1.7,0.3c0.6-0.4,0.7-1.3,0.2-1.9c-0.4-0.5-1.2-0.6-1.7-0.2
						C667.4,265.4,667.3,266.2,667.7,266.7z"/>
					<path class="st3" d="M669,265.2c0,0.2,0.2,0.4,0.4,0.3c0.2,0,0.3-0.2,0.3-0.4c0-0.2-0.2-0.4-0.4-0.3
						C669.1,264.8,669,265,669,265.2z"/>
					<path class="st44" d="M672.7,265.7c-0.4-0.2-2.2-1.4-4.5-0.9c-1.5,0.3-2.5,1.2-2.9,1.6c0.1-0.3,0.7-1.8,2.2-2.4
						C669.2,263.3,671.3,263.9,672.7,265.7z"/>
				</g>
			</g>
		</g>
		<rect x="50.7" y="521.3" class="st2" width="764.9" height="8.2"/>
	</g>
	<polyline class="st45" points="816.9,528 758.2,528 758.1,528 756.6,528 709.2,528 708.1,528 706.7,528 695.3,528 657.7,528 
		440.5,528 435.1,528 430.6,528 417,528 416.2,528 385.2,528 369.4,528 338.9,528 337.8,528 330.9,528 317.7,528 312.2,528 
		74.5,528 	"/>
</g>
</svg>
