<?xml version="1.0" encoding="utf-8"?>
<!-- Generator: Adobe Illustrator 26.0.1, SVG Export Plug-In . SVG Version: 6.00 Build 0)  -->
<svg version="1.1" id="Layer_1" xmlns="http://www.w3.org/2000/svg" xmlns:xlink="http://www.w3.org/1999/xlink" x="0px" y="0px"
	 viewBox="0 0 700 634" style="enable-background:new 0 0 700 634;" xml:space="preserve">
<style type="text/css">
	.st0{fill:#FFE6C7;}
	.st1{fill:#E5C49D;}
	.st2{fill:#D5B792;}
	.st3{fill:#FFFFFF;}
	.st4{fill:#E09A61;}
	.st5{fill:#C47947;}
	.st6{fill:#8A5D3B;}
	.st7{fill:#3B2314;}
	.st8{fill:#DC2428;}
	.st9{fill:#E2DCDC;}
	.st10{fill:#FFAD42;}
	.st11{fill:#FB8E21;}
	.st12{fill:#4F352D;}
	.st13{opacity:0.15;}
	.st14{fill:#D3905E;}
	.st15{fill:#EFB78E;}
	.st16{fill:#141312;}
	.st17{fill:#161616;}
	.st18{fill:#060534;}
	.st19{fill:#BD1F22;}
</style>
<g>
	<g>
		<path class="st0" d="M522.9,76.3c9.4,10,18.2,21.7,24,33.5c12.2,24.9,13.2,60.5,9.5,87.7c-2.5,18.8-13.5,44.9-8.1,63.9
			c7.3,25.8,45.9,24.7,64.7,31.2c17.3,5.9,33.7,20.5,42.5,38.3c27.1,54.5-5.5,83.7-21.8,108c-18.5,27.7,21.8,61.2-1.3,88.8
			c-24.2,28.9-53.4,40.9-101.9,40.9c-96,0-117.5,8.3-250.5-2.1c-25.2-2-58.8-8.3-83.9-11.3c-37.9-4.5-131.4-41-107-109.9
			c18.1-51,112.9-43.2,81.1-112.9c-20.8-45.6-59.9-108.9-11.3-149.2c35.3-29.3,57.9-46.1,78.3-90.3c22.4-48.4,53.9-74.7,103.4-79.3
			c26.8-2.5,54-2.3,80.3,4.4c32.1,8.1,63.9,23.5,89.6,46.4C514.6,68,518.8,72,522.9,76.3z"/>
		<g>
			<path class="st1" d="M190,393c-0.4-5.2-0.5-10.3,0.4-15.5c1.9-10.7,6.9-21,13.5-29.7c6.2-8.1,12-13,20.5-18.9
				c11.6-8,26.3-9.9,40.1-10.7c10.7-0.7,21.6-0.5,32.4,0c4.1,0.2,8.2,0.5,12.3,0.8c1.8,0.1,3.5-0.3,5.2,0.4c-2.1,1-4.2,3-6,4.6
				c-4.8,4.3-8.4,10.6-12.2,15.7c-4.7,6.5-8.8,13.3-13.8,19.6c-8.9,11-22.2,20.4-36.5,22.6c-13,2-27.9-1.3-40,5.1
				c0,0-12.1,6.4-14,28.6L190,393z"/>
			<path class="st1" d="M166.5,328.5c-13.5-14.6-35.4-17.1-53-24.8c-11.6-5.1-24-12.7-31.7-23c2.7,13.9,0.8,28.9,2.5,43.2
				c1.5,13.1,7,24.7,16.6,33.9c18.2,17.5,47.8,11.7,64.5,31c7.7,8.8,10.4,22.4,13.2,32.6c0.1-10.9,1.3-23.8,1.4-27.7
				C179.9,393.7,185.5,349,166.5,328.5z"/>
			<path class="st2" d="M188.4,355.1c3.1-11.9,13.4-25.9,22.3-34.1c9.5-8.7,21.1-10.7,32.1-16.6c5.8-3.1,10.6-7.3,12.5-13.9
				c5.2-18.1-0.7-37.5-1.7-55.9c-0.6-10.3-1.3-19.9,2.2-29.4c-0.5,1.5-7.7,4.6-9.2,5.7c-2.8,2-5.6,4-8.4,5.9
				c-13.5,8.9-28.6,14.7-39.3,27.3c-9.2,10.9-15.3,24.9-18.4,38.7c-1.7,7.5-2.7,15.4-3,23c-0.4,10.3,0.9,21.5,3.4,31.5
				c2.3,9.3,2.2,23,3.9,32.3L188.4,355.1z"/>
			<path class="st3" d="M215.5,270.5c-5.7,12.9-11.5,26.7-16.3,40.1c-4.8,13.3-8.6,26.1-10.1,36.7l0,0c-3,19-3.1,39.7-3.1,59.7
				c0,7.7,0.8,127.7,0.8,134.6c0,0.8-0.6,1.5-1.5,1.5s-1.5-0.7-1.5-1.5c0-6.9-0.8-126.9-0.8-134.6c0-20,0-40.8,3.1-60.2l1.4,0.2
				l-1.4-0.2c1.6-10.9,5.4-23.9,10.2-37.3c4.8-13.4,10.7-27.4,16.4-40.3c0.3-0.7,1.2-1.1,1.9-0.7C215.5,269,215.8,269.8,215.5,270.5
				z"/>
			<path class="st3" d="M258.4,341.4c-10.9,1.7-22.9,4.6-33.4,9.7c-10.5,5.1-19.5,12.4-24.4,22.9c-3.2,6.7-5.6,15-6.5,22.3
				c-0.2,1.3-0.3,4.3-0.4,8.6c-0.3,12.8-0.4,36.8-0.4,61.2c0,34.3,0.2,69.3,0.2,75.2c0,0.8-0.7,1.5-1.5,1.5c-0.8,0-1.5-0.7-1.5-1.5
				c0-5.9-0.2-40.9-0.2-75.2c0-16.3,0-32.3,0.2-45.1c0.1-6.4,0.1-11.9,0.3-16.2c0.1-4.3,0.2-7.3,0.4-8.8c0.9-7.7,3.5-16.2,6.8-23.2
				c5.4-11.3,14.9-19,25.8-24.3c10.9-5.3,23.2-8.2,34.2-10c0.8-0.1,1.5,0.4,1.7,1.2C259.7,340.6,259.2,341.3,258.4,341.4
				L258.4,341.4z"/>
			<path class="st3" d="M177,541.7c0-4.4,0-16.9,0-33c0-21.3-0.1-48.8-0.5-72.5c-0.2-11.8-0.5-22.7-0.8-31.3c-0.2-4.3-0.4-8-0.6-11
				c-0.2-3-0.5-5.3-0.8-6.6c-3.4-15.8-11-30.2-22.9-41.6c-11.9-11.4-28.2-19.8-48.9-23.6c-0.8-0.1-1.3-0.9-1.2-1.7
				c0.1-0.8,0.9-1.3,1.7-1.2c21.2,3.9,38,12.6,50.3,24.4c12.4,11.8,20.3,26.8,23.8,43.1c0.3,1.6,0.6,3.9,0.9,7
				c0.9,10.7,1.3,30.1,1.6,51.6c0.3,21.4,0.3,44.9,0.3,63.5c0,16.1,0,28.6,0,33c0,0.8-0.6,1.5-1.5,1.5
				C177.7,543.1,177,542.5,177,541.7z"/>
		</g>
		<g>
			<path class="st1" d="M244.1,514.4c-5-0.5-10,1.4-9.5,7.1c-11.8-4.4-19.8,6.4-19.8,14.3H502c11.3-13.4-8-38.7-21.9-31.7
				c2.4-8.8-6.1-14.5-11.6-12c0.7,0.5-3-11.9-14.6-7.1c0.3-12.2-9.8-15.6-19.1-9.7c-1.2-10.1-15.5-19.2-22.1-7.9
				c0.2-15.3-20-17.7-22.9-2.4c-4.2-4.5-9.9-1.1-10.5,4.4c-3.7-5-8-4.4-11.4,0.2c10-25.2-28.2-32.8-29.8-9.6
				c-5.9-9.8-18.8-3.7-16.4,5.8c-5.5-4.9-14-2.5-13,5.9c-7.6-8.1-27-8.5-28.3,8.5c-4.5-4.9-10.5-3.5-11.7,3.4
				c-6.7-0.8-12,2-10.6,9.4c-3.1,0.2-7.5-0.1-8.6,7.5C249.6,500.7,239.2,503.2,244.1,514.4z"/>
			<path class="st1" d="M623.6,535.8c5.1-19.6-24.5-30.5-32.5-11.2c0.4-7.2,2.8-15.2-5.9-19.3c-8.7-4.1-15.2,3.1-18.9,9.3
				c9.9-16.7,5.6-37.6-17.3-43.2c-24.4-6-36.4,6.5-37,31.8c-1.7-11.6-23-14.1-24.2,2.4c-8.9-3.1-10.3-11.9-22.9-10.8
				c-11.1,1-16.3,8.1-20.5,18c0,0-25.4,0.9-19.5,23.2H623.6z"/>
		</g>
		<path class="st2" d="M110,550.6c0,18.4,122.7,33.3,274.2,33.3c151.4,0,274.2-14.9,274.2-33.3c0-18.4-122.7-33.3-274.2-33.3
			C232.8,517.3,110,532.2,110,550.6z"/>
	</g>
	<g>
		<g>
			<g>
				<g>
					<path class="st3" d="M458.4,429.4c2.2-6.8-0.2-12.6-0.9-14.2c-5.9-14.8-11.8-29.6-17.7-44.5c-5.1,3.3-10.2,6.6-15.3,9.8
						c-1.8,15.3-3.6,30.6-5.4,45.8c1.4,1.9,3.5,4.6,6.7,7.3c5.2,4.5,10.4,9.1,17.4,8.5C449.9,441.6,456.1,436.2,458.4,429.4z"/>
					<g>
						<g>
							<g>
								<g>
									<g>
										<polygon class="st4" points="390,349.8 357.1,349.7 357.4,346.8 358,341 358,340.9 359.5,327.1 360.5,316.6 386.7,316.7 
											387.7,326.7 389.1,340.4 389.1,341.1 389.7,347.1 										"/>
										<path class="st5" d="M387.7,326.7c-2.8,2.3-5.6,3.8-7.7,4.7c-0.6,0.3-1.2,0.4-1.9,0.3c-1.5-0.1-3.1-0.1-4.8-0.1
											c-1.7,0-3.3,0-4.9,0.1c-0.6,0-1.3-0.1-1.9-0.3c-2-0.9-4.5-2.2-7.1-4.3l1.1-10.5l26.2,0.1L387.7,326.7z"/>
									</g>
									<g>
										<path class="st4" d="M394,289c7.3-4.1,5.5,7.7,4.3,11.9c-0.4,1.5-0.6,5.6-3.6,5.3L394,289z"/>
										<path class="st4" d="M347.5,293.3c-7.9-2.7-4,8.6-2.1,12.5c0.7,1.4,1.6,5.4,4.5,4.5L347.5,293.3z"/>
									</g>
									<path class="st4" d="M394.4,290.9c0.1,4.7,0.4,9.3,0.6,13.3c0,2.1-0.3,5.2-1.6,8.7c-0.4,1.2-1.6,4.3-4.2,7.5
										c-3,3.9-6.4,6.2-8.9,7.6c-0.6,0.3-1.2,0.5-1.8,0.5c-1.4,0.1-2.9,0.2-4.4,0.3c-1.5,0.1-2.9,0.3-4.3,0.5
										c-0.6,0.1-1.3,0-1.9-0.2c-2.7-0.9-6.5-2.6-10.2-5.8c-3.1-2.8-4.8-5.5-5.5-6.6c-1.9-3.2-2.7-6.3-3.1-8.3
										c-0.5-4-1.1-8.6-1.8-13.2c-2.5-8.1-0.8-19,1.7-24.3c2.4-3.8,12.3-2.5,19.5-3.2c7.3-0.7,16.7-3.8,19.8-0.5
										C391.7,272.1,395.4,282.5,394.4,290.9z"/>
									<g>
										<path class="st3" d="M365.1,296c-0.8,0.5-2.6,1.5-5.1,1.6c-3.2,0.2-5.6-1.2-6.4-1.8c1-1.1,2.2-1.9,3.5-2.4
											c1.3-0.5,2.7-0.6,4.1-0.2c0.3,0.1,0.6,0.2,0.9,0.3C363.7,294.2,364.7,295.4,365.1,296z"/>
										<path class="st6" d="M362.6,294.9c0,1.5-1.6,2.6-3.1,2.6c-1.5-0.1-3-1.4-2.9-2.8c0-0.5,0.2-0.9,0.6-1.2
											c1.3-0.5,2.7-0.6,4.1-0.2c0.3,0.1,0.6,0.2,0.9,0.3C362.4,293.9,362.6,294.4,362.6,294.9z"/>
										<path d="M358.3,294.9c0.1,0.9,0.8,1.5,1.7,1.4c0.9-0.1,1.5-0.8,1.4-1.7c-0.1-0.9-0.8-1.5-1.7-1.4
											C358.8,293.3,358.2,294.1,358.3,294.9z"/>
										<path class="st3" d="M357.5,294.7c0,0.3,0.3,0.6,0.6,0.5c0.3,0,0.6-0.3,0.5-0.6c0-0.3-0.3-0.6-0.6-0.5
											C357.8,294.1,357.5,294.4,357.5,294.7z"/>
										<path class="st7" d="M365.2,286.2c-3.9-0.5-8.5-0.6-13,0.3c-0.8,0.2-2,0.9-2.4,2.2c-0.2,0.8,0.1,1.6,0.4,2.1
											c0.5-0.4,1.2-0.9,2.2-1.3c1.4-0.6,2.8-0.9,6.3-0.9c1.7,0,4,0,6.6,0.3c0-0.2,0.1-0.5,0.1-0.8
											C365.5,287.2,365.4,286.6,365.2,286.2z"/>
										<path class="st7" d="M365.1,296c-0.5-0.4-2.6-2.3-5.9-2.2c-3,0-5,1.6-5.6,2.1c0.1-0.2,2.1-3.2,5.9-3.1
											C363.1,292.8,365,295.8,365.1,296z"/>
									</g>
									<g>
										<path class="st3" d="M377.1,294.9c0.9,0.4,2.9,1,5.3,0.7c3.2-0.4,5.2-2.2,5.9-2.9c-1.2-0.9-2.5-1.5-3.9-1.7
											c-1.4-0.2-2.8,0-4,0.5c-0.3,0.1-0.6,0.3-0.8,0.5C378.2,292.9,377.4,294.3,377.1,294.9z"/>
										<path class="st6" d="M379.4,293.4c0.3,1.5,2.1,2.3,3.5,2c1.5-0.3,2.7-1.9,2.3-3.3c-0.1-0.5-0.4-0.8-0.8-1.1
											c-1.4-0.2-2.8,0-4,0.5c-0.3,0.1-0.6,0.3-0.8,0.5C379.4,292.3,379.3,292.8,379.4,293.4z"/>
										<path d="M383.7,292.6c0.1,0.9-0.6,1.6-1.4,1.7c-0.9,0.1-1.6-0.6-1.7-1.4c-0.1-0.9,0.6-1.6,1.4-1.7
											C382.8,291.1,383.6,291.7,383.7,292.6z"/>
										<path class="st3" d="M384.3,292.2c0,0.3-0.2,0.6-0.5,0.6c-0.3,0-0.6-0.2-0.6-0.5c0-0.3,0.2-0.6,0.5-0.6
											C384,291.7,384.3,291.9,384.3,292.2z"/>
										<path class="st7" d="M375.2,285.3c3.7-1.2,8.2-2.2,12.8-2.1c0.8,0,2.2,0.6,2.7,1.7c0.4,0.8,0.2,1.6,0,2.1
											c-0.5-0.3-1.4-0.6-2.4-0.9c-1.4-0.3-2.9-0.4-6.4,0.2c-1.7,0.3-3.9,0.8-6.5,1.5c-0.1-0.2-0.2-0.5-0.2-0.8
											C375.1,286.4,375.2,285.7,375.2,285.3z"/>
										<path class="st7" d="M377.1,294.9c0.4-0.5,2.2-2.7,5.4-3.3c3-0.5,5.2,0.7,5.8,1.1c-0.1-0.1-2.7-2.8-6.3-2
											C378.5,291.4,377.2,294.6,377.1,294.9z"/>
									</g>
									<path d="M393.1,259.7c-3.4-4.5-15.2-8.6-26-7.7c-10.8,1.1-21.7,7.3-24.2,12.3c-5.6,6.7-2.9,23,0.2,29.8
										c0,0,0.8-1.9,4.3-0.8c-1.3-4.3-1.2-17.7,2.6-23.2c4.4-1.8,10.4-1.5,18.5-1.9c8.1-1.1,13.9-2.5,18.5-1.6
										c4.8,4.7,7.4,17.9,6.8,22.4c3.3-1.7,4.4,0,4.4,0C400.2,281.8,399.9,265.3,393.1,259.7z"/>
									<g>
										<g>
											<path class="st5" d="M376.7,307.6c0.1,0.2-1.8,1.8-4.2,2c-2.4,0.2-4.5-1-4.5-1.2c0-0.2,1.7,0.4,4.4,0.2
												C375.1,308.3,376.6,307.4,376.7,307.6z"/>
										</g>
									</g>
									<g>
										<path class="st5" d="M370,318c-0.1-0.7,1.5-1.8,3.1-2c1.7-0.2,3.7,0.6,3.7,1.4c0,0.8-1.9,1.5-3.5,1.6
											C371.9,319,370.1,318.7,370,318z"/>
									</g>
									<g>
										<path class="st5" d="M376.8,321.3c0,0.2-1.3,0.5-3,0.7c-1.7,0.2-3,0.1-3.1-0.1c0-0.2,1.3-0.5,3-0.7
											C375.4,321.1,376.8,321.1,376.8,321.3z"/>
									</g>
								</g>
							</g>
							<g>
								<polygon class="st7" points="373.6,311.9 373.7,313.8 384.9,312.7 								"/>
								<path class="st7" d="M371.6,312l0.2,1.9c-2,0.2-4,0.4-6,0.6c-1.7,0.2-3.4,0.3-5.1,0.5c0,0,5.4-1.4,5.5-1.5
									C366.1,313.5,371.6,312,371.6,312z"/>
							</g>
							<g>
								<polygon points="397.9,265.5 339.3,270.9 340.7,249.7 392.7,244.9 								"/>
								<g>
									<path class="st8" d="M306.4,272.8l0.9-5.8c0,0,0.3,0,0.9,0.1l0,0c0.6,0.1,1.5,0.2,2.7,0.3l0,0c2.4,0.3,6,0.6,10.7,0.8l0,0
										c9.4,0.4,23.2,0.4,40.7-1.2l0,0c17.5-1.6,38.7-4.9,62.9-11l0,0l1.4,5.7c-24.5,6.2-46,9.5-63.8,11.1l0,0
										C327.3,276.2,306.6,272.9,306.4,272.8L306.4,272.8z"/>
								</g>
							</g>
						</g>
						<g>
							<g>
								<g>
									<g>
										<polygon class="st8" points="423.7,489.8 329.8,489.8 337.7,459.5 415.9,459.5 										"/>
									</g>
									<g>
										<g>
											<path class="st3" d="M374.4,339.1c-3.7-3.9-18.9-2.5-18.9-2.5l-2.4,5.8l23.7,1.1C376.8,343.6,375.4,340.2,374.4,339.1z"
												/>
											<path class="st3" d="M378,339.1c3.7-3.9,18.9-2.5,18.9-2.5l3.1,6l-24.4,0.9C375.7,343.6,377,340.2,378,339.1z"/>
										</g>
										<polygon class="st3" points="335.8,459.5 376.8,459.5 376.8,343.5 353.1,342.4 349.3,343.6 324.6,393 										"/>
										<polygon class="st3" points="417.7,459.5 376.8,459.5 376.8,343.5 400.4,342.4 404.2,343.6 428.9,393 										"/>
										<rect x="374.9" y="345.1" class="st9" width="2" height="114.5"/>
									</g>
									<g>
										<polygon points="363.7,349.2 370.2,447.4 328.8,454.4 312.1,354.8 349.3,343.6 										"/>
										<polygon points="389.8,349.2 383.3,447.4 424.7,454.4 441.4,354.8 404.2,343.6 										"/>
									</g>
								</g>
							</g>
						</g>
					</g>
					<path class="st3" d="M324.1,403.5c-0.1,4.4-0.2,8.8-0.4,13.3c-0.5,10.5,8.5,3,7.4,12.5c-0.6,0.5-11.1,9.1-21.7,6.7
						c-4.9-1.1-9.1-4.3-9.1-4.3c0,0,0,0-0.1,0c-3-2.2-4.6-5.9-4.3-9.6c2.3-38.2-1.1-52.7,3.1-60.3c1.3-2.3,4.1-7.4,8.9-8.2
						c2.2-0.3,4,0.3,5.1,0.8L324.1,403.5z"/>
					<g>
						<g>
							<g>
								<polygon class="st10" points="436.8,318.3 374.7,324.6 374.3,319.8 436.4,313.5 								"/>
								<polygon class="st11" points="440.4,317.9 436.8,318.3 436.7,317.4 436.4,313.5 439.9,313.2 								"/>
								<path class="st11" d="M356.7,323.1l8.5,0.2l0.3,0.7c1.3,1.6,4.1,1,6.1,0.8l3-0.3l-0.5-4.7l-17.6,1.8L356.7,323.1z"/>
								<path class="st12" d="M384,320.1c0,0.3-0.9,0.7-2.1,0.8c-1.2,0.1-2.2,0-2.2-0.4s0.9-0.7,2.1-0.8
									C383,319.6,383.9,319.8,384,320.1z"/>
								<path class="st12" d="M393.4,319.2c0,0.3-0.9,0.7-2.1,0.8c-1.2,0.1-2.2,0-2.2-0.4c0-0.3,0.9-0.7,2.1-0.8
									C392.4,318.7,393.4,318.9,393.4,319.2z"/>
								<path class="st12" d="M402.9,318.2c0,0.3-0.9,0.7-2.1,0.8c-1.2,0.1-2.2,0-2.2-0.4c0-0.3,0.9-0.7,2.1-0.8
									C401.8,317.7,402.8,317.9,402.9,318.2z"/>
								<path class="st12" d="M412.3,317.3c0,0.3-0.9,0.7-2.1,0.8c-1.2,0.1-2.2,0-2.2-0.4c0-0.3,0.9-0.7,2.1-0.8
									C411.3,316.8,412.3,316.9,412.3,317.3z"/>
								<path class="st12" d="M421.7,316.3c0,0.3-0.9,0.7-2.1,0.8c-1.2,0.1-2.2,0-2.2-0.4c0-0.3,0.9-0.7,2.1-0.8
									C420.7,315.8,421.7,316,421.7,316.3z"/>
								<path class="st12" d="M431.2,315.4c0,0.3-0.9,0.7-2.1,0.8c-1.2,0.1-2.2,0-2.2-0.4c0-0.3,0.9-0.7,2.1-0.8
									C430.2,314.9,431.2,315,431.2,315.4z"/>
								<path class="st13" d="M440.4,317.9l-3.5,0.4l-62.1,6.3l-3,0.3c-2.1,0.2-4.8,0.8-6.1-0.8l-0.3-0.7l0.9,0l8.5,0.4l62.1-6.3
									l3.5-0.4L440.4,317.9z"/>
							</g>
							<g>
								<path class="st14" d="M442,321.1c-0.3,0.8-1.2,1.1-2,1.5c-0.2,0.1-0.5,0.2-0.7,0.3c-1.9,0.8-3.1,2.5-4,4.4c0,0,0,0,0,0
									c-0.3,0.7-0.6,1.4-0.8,2.1l-0.1,0.3l0,0.1c-0.8,2.1-2.5,3.8-4.1,5.2c-0.1,0.1-0.2,0.2-0.4,0.3c-0.2,0.1-0.6,0.5-0.6,0.6
									c0,0,0,0,0,0c0,0,0,0.1,0,0.2c0,0,0,0,0,0.1c0,0.3,0.1,0.8,0.1,1.5c0.1,1.7,0.2,4.1,0.3,5.2c0,0,0,0.1,0,0.1
									c0,0.3,0.1,0.7,0.1,1c0,0,0,0,0,0c0,0.6,0,1.1,0,1.5c0,1,0.3,1.9,0.6,2.7l-13.3,5.7l0.1-5.7l0-4.4c0,0,0,0,0,0
									c-0.1-1.3-0.4-2.5-0.9-3.7c-0.3-0.7-0.6-1.4-0.9-2.1c-0.1-0.2-0.2-0.4-0.3-0.6c-0.2-0.3-0.3-0.7-0.5-1
									c-0.2-0.4-0.4-0.9-0.6-1.4c-1.4-3.7-2.8-7.5-2.5-11.3c0-0.1,0-0.1-0.1-0.2c-0.7-0.5-1.3-1.6-1.8-2.4
									c-0.1-0.2-0.2-0.3-0.3-0.5c-0.5-0.8-0.7-2,0-2.9c0.3-0.3,0.7-0.7,1.2-0.8c0,0,0.1,0,0.1,0c0,0,0,0,0.1,0
									c0.1,0,0.1-0.1,0.2-0.1c0.2-0.1,0.3-0.3,0.4-0.5c0,0,0-0.1,0-0.1c0,0,0,0,0,0c0-0.1,0-0.3,0.1-0.4c0.5-1.2,2.5-1.6,2.9-1.7
									c0.9-0.1,1.3-0.1,2.3,0.3c0,0,0,0,0.1,0c0,0,0.1,0,0.2,0c0.4,0,0.7-0.2,0.8-0.5c0-0.1,0.1-0.5,0.1-0.7
									c0.1-0.1,0.1-0.2,0.2-0.3c0.5-0.6,1.5-0.5,2-0.5c0.4,0,0.9,0.1,1.3,0.2c0.1,0,0.4,0,0.5-0.1c0.2-0.1,0.3-0.2,0.4-0.4
									c0-0.1,0.1-0.2,0.1-0.3c0,0,0-0.1,0-0.1c0,0,0,0,0,0c0-0.2,0-0.4,0-0.7c0.2-0.6,0.8-0.9,1.4-1.1c0.2-0.1,0.5-0.1,0.7-0.1
									c3.1-0.2,5.8,2.5,6.8,5.2c1.1,3,0.8,6.3,0.6,9.2c0,0.1,0.1,0.2,0.1,0.2c0.1,0,0.2,0,0.2-0.1c1-2.4,3.3-4.2,6.5-5.1
									c1-0.3,1.9-0.3,2.5,0C441.7,319.5,442.3,320.4,442,321.1z"/>
								<path class="st15" d="M430.4,348.2l-13.3,5.7l0.1-5.7l0.2-2.7c0-0.6-0.1-1.2-0.1-1.7c0,0,0,0,0,0c-0.1-2.1,0-1.8-0.9-3.7
									c3.5,0.1,7.3-1.7,13-3.8c0,0.3,0.1,0.8,0.1,1.5c0.1,1.7,0.2,4.1,0.3,5.2c0,0,0,0.1,0,0.1c0,0.3,0.1,0.7,0.1,1c0,0,0,0,0,0
									c0,0.6,0,1.1,0,1.5C429.8,346.5,430.1,347.3,430.4,348.2z"/>
								<g>
									<path class="st5" d="M425.4,314.1c0.3,0.2,1.4,1,1.6,0.7c0.2-0.2-0.8-1.3-1.1-1.5c-1.3-0.9-3.9-1.5-3.9-1.4
										c-0.1,0.2-0.2,0.3-0.4,0.4C421.6,312.4,424.3,313.4,425.4,314.1z"/>
								</g>
								<g>
									<path class="st5" d="M418.6,315.5c0.3,0.2,0.6,0.3,0.9,0.5c0.3,0.2,0.6,0.4,0.8,0.5c0.6,0.4,1.5,0.8,1.6,0.7
										c0.3-0.2-0.6-1-0.9-1.3c-0.6-0.6-3.5-2.2-3.5-2.1c-0.1,0.3-0.5,0.6-0.8,0.5C416.7,314.3,418,315.1,418.6,315.5z"/>
								</g>
								<g>
									<path class="st5" d="M415,318.7c0.4,0.3,1.5,1.1,1.7,0.9c0.2-0.3-0.8-1.4-1-1.6c-1.2-1.1-4.3-1.9-4.3-1.9
										c0,0.2-0.2,0.4-0.4,0.5C410.9,316.6,413.8,317.8,415,318.7z"/>
								</g>
							</g>
						</g>
						<g>
							<path class="st14" d="M357.7,343.4c0,0-0.1,0-0.1,0.1c0.1,0,0.2-0.1,0.3-0.2C357.8,343.3,357.7,343.3,357.7,343.4z
								 M404.2,321.3c-0.5-2-2-2.6-4.3-3.5c0.4-0.2,0.3-1.1,0-1.3c0,0-0.6-0.8-3.8-1.5c-7.6-1.5-11.9-0.8-14.7,1.1
								c-2.3,1.5-3.4,4.4-5.8,9.8c-0.7,1.6-1.2,2.9-1.5,3.8c-2,2.1-4.3,4.4-6.9,6.7c-3.2,2.8-6.4,5-9.2,6.9c1-0.4,4.2,0.4,13.5,5.6
								c1.7-2.7,4.2-5.9,7.6-9c2.2-2.1,4.4-3.8,6.4-5.1c4.7-5.7,5.6-7.8,13.9-6.2c2.8,0.1,1.7-1.7,0.5-2.7c2.2,0.8,6-0.1,2.3-3.1
								C402.6,323.2,404.4,322.3,404.2,321.3z M391.3,317.8c0.2-0.1,0.5-0.1,0.7-0.2c0.5-0.2,2.7-0.5,4.6-0.3c0.5,0,0.9,0.1,1.3,0.2
								c-1-0.1-2-0.1-2.9-0.1c0,0-0.1,0-0.1,0c-0.5,0-1.1,0.1-1.7,0.2c0,0,0,0,0,0c-0.9,0.1-1.9,0.3-3,0.6
								C390.4,318.1,390.8,318,391.3,317.8z M396.8,320.4c-2.9-0.5-5.4,0.2-6.7,0.7c1.8-1.2,6.4-1.2,8.1-0.5
								C397.5,320.5,397,320.5,396.8,320.4z"/>
							<path class="st5" d="M397.9,317.5c-1-0.1-2-0.1-2.9-0.1c0,0-0.1,0-0.1,0c-0.5,0-1.1,0.1-1.7,0.2c0,0,0,0,0,0
								c-0.9,0.1-1.9,0.3-3,0.6c0.3-0.1,0.7-0.3,1.1-0.4c0.2-0.1,0.5-0.1,0.7-0.2c0.5-0.2,2.7-0.5,4.6-0.3
								C397.1,317.3,397.5,317.4,397.9,317.5z"/>
							<path class="st5" d="M398.2,320.6c-0.7-0.1-1.2-0.2-1.4-0.2c-2.9-0.5-5.4,0.2-6.7,0.7C391.9,319.9,396.5,319.9,398.2,320.6z"
								/>
							<path class="st5" d="M398.3,325.2c-0.8-0.2-3.3-0.7-5.8-0.6C395.7,324.3,397.5,325,398.3,325.2z"/>
						</g>
					</g>
					<g>
						<path class="st3" d="M463.7,422.6c1.5-10.9-2.4-33.4-14.7-58.6c-3-6.1-4.3-13.3-12.6-16.3c-5.9-0.4-13.9,0.1-18.8,5.3
							c-6.8,7.2-2.1,17.5,5.1,52.8c5.8,28.9,6.9,33,15.3,35.9c6.1,2.1,13-1.9,14-2.4C461.3,434.1,463.4,424.1,463.7,422.6z"/>
						<path class="st3" d="M406.9,344.9c19.8-10.2,31.4-13.3,34.5-9.4c2.1,2.6,0.5,8.4-4.9,17.4l-17.5,4.9c-1.3-0.2-4.8-1-7.9-4.1
							C407.7,350.3,407,346.2,406.9,344.9z"/>
					</g>
					<g>
						<path class="st3" d="M331.2,429.4c8.4-7.2,26-28.3,36.8-54.2c3.2-7.7,7.1-13.4,2.6-19.9c-7.3-7.9-13.1-9.2-16.7-9.1
							c-11.4,0.3-15,14.2-36.1,42.7c-15.4,20.8-24.4,28.2-21.3,35.3c3,6.8,13.2,9.1,16.9,9.6C315.2,434.2,323.6,435.9,331.2,429.4z"
							/>
						<path class="st3" d="M384.9,347c-17.5-14.2-28.3-19.8-32.2-16.7c-2.7,2.1-2.2,8.1,1.3,18.1l16.3,8.6c1.3,0.1,4.9,0.1,8.6-2.3
							C383.1,352.1,384.5,348.2,384.9,347z"/>
					</g>
				</g>
				<path d="M499,503.3c5.6-7.7,6.7-17.6,2.8-25.6c-4.9-10.1-17.1-15.6-29.1-12.7c-20.4,5.4-45.6,10.3-74.6,12.1
					c-41.1,2.4-76-2.3-101.9-7.9c-16.4-1.5-29.6,8-31.6,19.4c-1.7,9.8,5.4,18,6.6,19.4c23.1,7.3,53.3,14.3,88.9,16.1
					C420.1,527,468.7,514.1,499,503.3z"/>
				<path class="st16" d="M405.2,548.6c-4.5,4.9-2.6,14,3.5,16.8c15.1,6.9,31.5,10.7,48,11.2c5.1,0.2,9.3-5.2,9-10.3
					c-0.3-5.1-4-9.6-8.4-12.1c-4.5-2.5-9.6-3.4-14.7-4.1c-5.1-0.7-10.2-1.4-14.9-3.5C420.2,543.4,410.2,543.1,405.2,548.6
					L405.2,548.6z"/>
				<path class="st4" d="M393.5,557.7c44.1,17.3,53.3,13.7,55.7,10.2c1.5-2.3,0.7-5.6,0.6-5.9c-2-7.3-14.2-10.2-28.8-13.7
					c-5.4-1.3-5.6-1.8-10.4-2.3c-3.5-0.4-7.1-0.8-10.4-2.1c-3-1.2-6.5,1.4-7.3,4.6C392,551.6,393,554.9,393.5,557.7z"/>
				<path class="st17" d="M407.9,534.2c-2.2,6.2-4.6,12.5-7.1,18.9c-1.8,4.5-3.5,8.9-5.3,13.3c-25.7-11.9-47.1-19-62.5-23.3
					c-1.7-0.5-37.6-10.7-59-27c-3.2-2.5-8.8-7.1-11.2-14.9c-0.4-1.2-3-10.2,1.1-18.6c5-10.1,18.1-15.9,32.3-13.4
					c24,15.1,49.1,30.2,75.5,45.1C383.9,521.1,395.9,527.8,407.9,534.2z"/>
				<path class="st16" d="M363.7,544.4c4.5,4.9,2.6,14-3.5,16.8c-15.1,6.9-31.5,10.7-48,11.2c-5.1,0.2-9.3-5.2-9-10.3
					c0.3-5.1,4-9.6,8.4-12.1c4.5-2.5,9.6-3.4,14.7-4.1c5.1-0.7,10.2-1.4,14.9-3.5C348.6,539.3,358.7,538.9,363.7,544.4L363.7,544.4z
					"/>
				<path class="st4" d="M375.3,553.6c-7.1,3.1-41.4,17.9-48.7,8.5c-1.1-1.4-1.9-3.8-1.4-6.1c1.4-6.4,13-9.4,22.7-11.8
					c5-1.3,5.1-1.7,10.4-2.3c3.5-0.4,7.1-0.8,10.4-2.1c3-1.2,6.5,1.4,7.3,4.6C376.9,547.4,375.9,550.8,375.3,553.6z"/>
				<path class="st17" d="M505.7,498.2c-2.7,7.6-8.4,11.9-10.8,13.7c-12.4,9.2-58.5,30.2-122.4,55c-1.1-5.6-2.5-11.6-4.4-18
					c-1.9-6.6-4-12.6-6.2-18.1c36.9-21.9,73.8-43.9,110.7-65.8c14.1-2.6,27.3,3.2,32.3,13.4C509.5,487.4,506.1,497.2,505.7,498.2z"
					/>
			</g>
			<g>
				<path class="st18" d="M490.8,287.1L490.8,287.1l-3.8-26c-0.1-0.8-0.8-1.4-1.6-1.5l-18-2.1l-0.5,0.1l-0.3,0l0,0l-0.3,0l-0.4,0.1
					l-0.2,0l-0.3,0.3l-0.2,0.3c0,0.1-0.1,0.2-0.1,0.3l0,0c0,0.1,0,0.2,0,0.3c0,0.1,0,0.1,0,0.2l3.7,25.1c-1,0.3-1.9,0.8-2.8,1.4
					c-2.5,2-3.5,4.8-2.3,6.3c1.3,1.5,4.2,1.1,6.6-1c2.5-2.1,3.6-4.8,2.3-6.3l0,0l-2.6-17.9l14.3,1.7l2.6,17.9
					c-1,0.3-1.9,0.8-2.8,1.4c-2.5,2-3.6,4.8-2.3,6.3c1.3,1.5,4.2,1.1,6.6-1C491.3,291,492,288.6,490.8,287.1z"/>
			</g>
			<path class="st18" d="M556.2,247.6L556.2,247.6l-1.5-23c0-0.7-0.6-1.3-1.3-1.4l-15.6-3.1l-0.4,0l-0.2,0l0,0l-0.2,0l-0.4,0l-0.2,0
				l-0.3,0.2l-0.2,0.2c0,0.1-0.1,0.2-0.1,0.3l0,0c0,0.1,0,0.1,0,0.2c0,0.1,0,0.1,0,0.2l1.5,22.2c-0.9,0.2-1.7,0.6-2.5,1.1
				c-2.3,1.6-3.4,3.9-2.4,5.3c1,1.4,3.6,1.2,5.9-0.4c2.3-1.6,3.4-3.9,2.4-5.3l0,0l-1.1-15.8l12.4,2.5l1.1,15.8
				c-0.9,0.2-1.7,0.6-2.5,1.1c-2.3,1.6-3.4,3.9-2.4,5.3c1,1.4,3.6,1.2,5.9-0.4C556.4,251,557.1,248.9,556.2,247.6z"/>
			<path class="st18" d="M494.3,227.3c-0.8-0.6-1.9-0.5-2.5,0.3c-0.4,0.6-0.5,1.3-0.2,1.9l10.8,23c-0.9,0.6-1.6,1.3-2.2,2.2
				c-1.8,2.6-2,5.6-0.4,6.7c1.6,1.1,4.3-0.2,6.1-2.8c1.8-2.7,2-5.6,0.4-6.7l0,0l-8.6-18.3c1.4,0.6,9.9,4.3,11.2,7.2
				c0.5,0.8,1.6,1.1,2.4,0.7c0.9-0.5,1.2-1.6,0.7-2.5c0,0,0,0,0,0C510.1,235.2,496.8,229.3,494.3,227.3z"/>
			<path class="st18" d="M598.8,179.3c-0.8-0.6-1.9-0.5-2.5,0.3c-0.4,0.6-0.5,1.3-0.2,1.9l10.8,23c-0.9,0.6-1.6,1.3-2.2,2.2
				c-1.8,2.6-2,5.6-0.4,6.7c1.6,1.1,4.3-0.2,6.1-2.8c1.8-2.7,2-5.6,0.4-6.7l0,0l-8.6-18.3c1.4,0.6,9.9,4.3,11.2,7.2
				c0.5,0.8,1.6,1.1,2.4,0.7c0.9-0.5,1.2-1.6,0.7-2.5c0,0,0,0,0,0C614.6,187.2,601.3,181.3,598.8,179.3z"/>
			<path class="st18" d="M522.3,185c0-1-0.8-1.8-1.8-1.8c-0.7,0-1.3,0.4-1.6,1.1l-11,22.9c-1-0.3-2-0.4-3.1-0.4
				c-3.2,0.2-5.6,2-5.4,3.9c0.2,1.9,2.8,3.2,6,2.9c3.2-0.3,5.6-2,5.4-3.9l0,0l8.7-18.2c0.4,1.4,2.9,10.4,1.5,13.2
				c-0.3,0.9,0.1,1.9,1,2.3c0.9,0.4,2-0.1,2.3-1c0,0,0,0,0,0C526.2,202.3,522.3,188.2,522.3,185z"/>
			<path class="st18" d="M594.9,230.8c0-1-0.8-1.8-1.8-1.8c-0.7,0-1.3,0.4-1.6,1.1l-11,22.9c-1-0.3-2-0.4-3.1-0.4
				c-3.2,0.2-5.6,2-5.4,3.9c0.2,1.9,2.8,3.2,6,2.9c3.2-0.3,5.6-2,5.4-3.9l0,0l8.7-18.2c0.4,1.4,2.9,10.4,1.5,13.2
				c-0.3,0.9,0.1,1.9,1,2.3c0.9,0.4,2-0.1,2.3-1c0,0,0,0,0,0C598.8,248.1,595,234,594.9,230.8z"/>
			<g>
				<path class="st18" d="M564.5,187.4L564.5,187.4l9.7-24.4c0.3-0.8,0.1-1.6-0.6-2.1L559.1,150l-0.4-0.2l-0.2-0.1l0,0l-0.2-0.1
					l-0.4-0.2l-0.2-0.1l-0.4,0.1l-0.3,0.2c-0.1,0.1-0.2,0.1-0.3,0.2l0,0c0,0.1-0.1,0.2-0.1,0.2c0,0.1-0.1,0.1-0.1,0.2l-9.4,23.6
					c-1-0.2-2.1-0.3-3.1-0.1c-3.1,0.5-5.5,2.4-5.1,4.3c0.4,1.9,3,3,6.2,2.5c3.2-0.5,5.5-2.4,5.1-4.3l0,0l6.7-16.8l11.5,8.6
					l-6.7,16.8c-1-0.2-2.1-0.3-3.1-0.1c-3.1,0.5-5.5,2.4-5.1,4.3c0.4,1.9,3,3,6.2,2.5C562.9,191.1,564.8,189.3,564.5,187.4z"/>
			</g>
		</g>
	</g>
	<path class="st19" d="M338.3,475.3c0.8,1.4,2.1,3.9,2.5,7.2c0.2,1.2,0.5,4.1-0.6,7.2c-1.3,3.8-4,5.7-5.5,7.2
		c-5.8,5.8-3.6,16.4-3.7,21.1c-0.1,8-7.3,19.4-38.1,33.8c6,1.4,14.9,2.7,25.2,1.2c18.9-2.8,42.5-14.8,43.7-29.5
		c0.4-5.1-2.1-7.5-0.9-15.6c0.8-5.2,2.3-7.5,4.9-15.2c1.4-4.1,2.9-9.3,4.2-15.4C359.5,476.7,348.9,476,338.3,475.3z"/>
</g>
</svg>
