<?xml version="1.0" encoding="utf-8"?>
<!-- Generator: Adobe Illustrator 26.0.1, SVG Export Plug-In . SVG Version: 6.00 Build 0)  -->
<svg version="1.1" id="Layer_1" xmlns="http://www.w3.org/2000/svg" xmlns:xlink="http://www.w3.org/1999/xlink" x="0px" y="0px"
	 viewBox="0 0 844 676" style="enable-background:new 0 0 844 676;" xml:space="preserve">
<style type="text/css">
	.st0{clip-path:url(#SVGID_00000128474364873105411790000008115920223818972069_);fill:#FFEAD4;}
	.st1{clip-path:url(#SVGID_00000128474364873105411790000008115920223818972069_);fill:#E5C49D;}
	.st2{clip-path:url(#SVGID_00000128474364873105411790000008115920223818972069_);}
	.st3{fill:#C6B28A;}
	.st4{fill:#E5C49D;}
	.st5{fill:#D8B182;}
	.st6{fill:#F7DFC6;}
	.st7{clip-path:url(#SVGID_00000128474364873105411790000008115920223818972069_);fill:none;}
	.st8{fill:#235368;}
	.st9{fill:#8E8B5E;}
	.st10{fill:#595634;}
	.st11{fill:#B75846;}
	.st12{fill:#994936;}
	.st13{fill:#89432E;}
	.st14{fill:#FAD4AF;}
	.st15{fill:#E8E8E8;}
	.st16{fill:#EFB78E;}
	.st17{fill:#2C3133;}
	.st18{fill:#6DA8C6;}
	.st19{fill:#F59F18;}
	.st20{fill:#C47712;}
	.st21{fill:#D89360;}
	.st22{fill:#303030;}
	.st23{fill:#1E1E1E;}
	.st24{fill:#E09A61;}
	.st25{fill:#FFFFFF;}
	.st26{fill:#DC2428;}
	.st27{fill:none;stroke:#E2DCDC;stroke-width:1.3832;stroke-miterlimit:10;}
	.st28{fill:none;}
	.st29{fill:#C47947;}
	.st30{fill:#8A5D3B;}
	.st31{fill:#3B2314;}
</style>
<g>
	<g>
		<defs>
			<path id="SVGID_1_" d="M822,441.7c-0.2,1.8-1,9.2-3.3,19c0,0-4.3,17.6-13,34.6c-34.7,67.3-142,108.8-142,108.8
				c-31.9,12.3-100.7,35.1-228.3,34.2c-146.4-1.1-255.3-1.9-331.4-79.5c-46-47-62.3-104.2-69-138.8c-7.3-39-20.1-103.3,14.8-136.5
				c82.4-78.5,161-8.5,176.7-93.2c14.5-78.1,69.6-153.9,170-129.4C525.5,92.2,511.2,181,574.5,174.4c63.3-6.6,171.5-56.4,191.1,37.8
				c19.6,94.2-72.1,174.9-13.7,168.2c43.6-5,52.7-1.6,62.1,6.6C826.3,397.9,823.9,422.5,822,441.7z"/>
		</defs>
		<clipPath id="SVGID_00000062885614792620508230000003762748138978446256_">
			<use xlink:href="#SVGID_1_"  style="overflow:visible;"/>
		</clipPath>
		<path style="clip-path:url(#SVGID_00000062885614792620508230000003762748138978446256_);fill:#FFEAD4;" d="M817.4,460.3
			c-0.2,0.8-0.4,1.6-0.6,2.4c-9,33-20.2,58.1-28.7,74.4c-7.4,14.2-12.8,21.6-12.8,21.6H104.1c0,0-46.7-67.3-69-138.8
			C19.3,369.1,15.7,316,49.9,283.4c82.4-78.5,161-8.5,176.7-93.2c14.5-78.1,69.6-153.9,170-129.4C525.5,92.2,511.2,181,574.5,174.4
			c63.3-6.6,171.5-56.4,191.1,37.8c19.6,94.2-72.1,174.9-13.7,168.2C791.6,375.8,842.4,365.7,817.4,460.3z"/>
		<path style="clip-path:url(#SVGID_00000062885614792620508230000003762748138978446256_);fill:#E5C49D;" d="M838.8,422.2
			c-7.6,19.1-8.9,34.5-8.6,45c0.5,21.8,7.8,41.5-3.1,66.4c-2.1,4.7-8.5,18.7-36,48.8c-24,26.4-45.1,44.2-48.8,47.2
			c-85.7,69.5-623.3,38.5-697.5-70.5C31.5,539.7,5,499.9,5,499.9c-1.8-5-3.4-10.5-4.4-16.4c-6.4-35.6,8.3-65.9,16.9-80.4
			c107.1-14.7,230.3-24.7,366.6-23.9C557.6,380.3,711,398.6,838.8,422.2z"/>
		<g style="clip-path:url(#SVGID_00000062885614792620508230000003762748138978446256_);">
			<g>
				<path class="st3" d="M503.8,123.3c5.5-8.6,5.9-20.5,4.3-34.6c-1.2-10.5-4.9-17.5-5-17.9l-2.2,0.8c0.1,0.3,10.7,30.3-1.3,48.9
					L503.8,123.3z"/>
			</g>
			<g>
				<path class="st3" d="M507.4,95l0.4-5c-13.1-1-25.3-5.8-32.5-15.9c-5.4-7.6-7.7-15.1-7.7-15.2l-2.2,0.4c0.1,0.3,1.7,8.4,7.8,16.8
					C478.6,84,489.1,93.6,507.4,95z"/>
			</g>
			<g>
				<path class="st3" d="M589.3,104.1c10.2-8.3,15.4-22.6,19.1-40.3c2.7-13.2,1.1-23.3,1.1-23.7l-3,0.1c0,0.4,0.8,41.1-21.2,59
					L589.3,104.1z"/>
			</g>
			<g>
				<path class="st3" d="M598.5,97l-1.6-6.2c16.4-4.1,30.8-12.7,37.7-27c5.2-10.7,6.5-20.8,6.5-20.9L644,43c0,0.4-0.4,11-6.2,22.9
					C632.5,76.9,621.3,91.3,598.5,97z"/>
			</g>
			<path class="st4" d="M409.8,146.8c-0.8-0.1-55.3,18.2-55.3,46.5c0,28.3,50.9,39.6,77.6,32.4c26.7-7.2,64.9-3.6,84.4,9.7
				c19.5,13.2,48.1-30.8,105.2-18.8c57.2,12,81.9,0.6,115.1-17.6c33.2-18.3,54.8,14.3,84.2,8c29.4-6.2,45.5-51.1,4.2-65.8
				c-41.3-14.6-200.4-32-229.7-29.1C566.2,114.9,409.8,146.8,409.8,146.8z"/>
			<g>
				<path class="st5" d="M566.4,442.4c0,0,16.4-48.8,20-89.1c4-44.5-7.6-91.8,0.6-119.6c9.6-32.7-4-86.6-9.7-121.6
					c0,0,35.7,93.3,28,115.3c-7.2,20.7,0.3,83,7.3,121.6c7,38.6-7.7,69.4,0,93.4C612.5,442.4,578.1,453.9,566.4,442.4z"/>
				<g>
					<path class="st5" d="M596.3,289.8l-4.3-3.7c0.3-0.3,6.3-7.4,17.8-15.2c10.5-7.2,27.8-16.3,50.3-19.1c41-5.1,98-45.2,100.3-79.2
						l5.7,0.4c-1.1,17.2-14.8,37-37.4,54.3c-21.2,16.3-46.6,27.5-67.8,30.2C619.8,262.6,601.6,299.7,596.3,289.8z"/>
				</g>
				<g>
					<path class="st5" d="M602.9,204.4l-1.3-5.5c0.2-0.1,12.9-3.2,28.4-12.3c14.2-8.4,35.5-22.8,47.9-48.2l3.4,1.7
						c-13.1,26.7-33.6,42.8-48.6,51.5C616.4,201.1,603.4,204.2,602.9,204.4z M602.2,201.6l-0.7-2.8c0,0,0,0,0,0L602.2,201.6z"/>
				</g>
				<g>
					<path class="st5" d="M636.2,186.9c-8.7-7.7-12.7-20.6-15.1-36.4c-1.8-11.8,0-20.6,0-21l2.7,0.2c0,0.4-2.5,36.2,16.2,52.9
						L636.2,186.9z"/>
				</g>
				<g>
					<path class="st5" d="M659.5,173.1c-1.2,0-2.3,0-3.5-0.1l0.2-5.7c26.2,0.8,43.4-7.4,53.2-14.4c10.7-7.6,15.2-15.5,15.3-15.5
						l2.5,1.4c-0.2,0.4-3.3,10.1-14.8,18.4C702.1,164.5,685.4,173.1,659.5,173.1z"/>
				</g>
				<g>
					<path class="st5" d="M577.7,241.3c-69.5,0-133.3-63.6-158.7-86.3c-4.5-4-8.8-7.9-9.9-8.4c0,0,0.3,0.1,0.8,0.1v-5.7
						c2,0,3.8,1.5,12.9,9.7c25.8,23,99.6,83.9,169.3,79.7l-4,10.8C585.6,241.4,580.1,241.3,577.7,241.3z"/>
				</g>
				<g>
					<path class="st5" d="M441.2,214.4c-17.5,0-31.3-4.2-41.6-7.3c-20-6.1-28.3-17.1-28.8-17.5l1.6-1.9c0.1,0.1,10.1,8.4,29.1,14.1
						c17.6,5.3,46.6,9.6,85.4-0.5l6.4,7.7C475.8,213.6,454.8,214.4,441.2,214.4z"/>
				</g>
				<g>
					<path class="st5" d="M517.4,215.7l-5.2-2.3c16.7-36.8-3.1-74.4-3.3-74.7l2.1-1.4c0.3,0.4,6.2,9.8,10,24.2
						C524.6,174.8,526.8,195.1,517.4,215.7z"/>
				</g>
				<g>
					<path class="st5" d="M518.5,173.1c-14.7,0-26.6-15.7-33.5-23.5c-1.7-1.9-4.1-5.8-4.8-4.9c0,0-1.3-1.4-0.8-1.4l1.7,0.3
						c1.8,1.5,3.1,1,7,5.4c6.5,7.4,19.1,19.3,31.8,18.3l0.4,5.6C519.7,173.1,519.1,173.1,518.5,173.1z"/>
				</g>
				<g>
					<path class="st5" d="M586.6,170.3c-22.8-3.2-35.6-13.8-42.4-22.2c-7.4-9.2-9.3-17.6-9.4-17.9l5.5-1.2c0,0.1,1.8,7.7,8.5,15.8
						c8.9,10.9,21.9,17.6,38.6,19.9L586.6,170.3z"/>
				</g>
				<g>
					<path class="st5" d="M623.7,157.2l-1.9-5.3c14-5.1,25.9-14,30.7-27.1c3.6-9.9,3.8-18.8,3.8-18.9l2.5-0.2
						c0,0.4,0.6,9.7-3.4,20.6C651.7,136.5,643.2,150.1,623.7,157.2z"/>
				</g>
				<g>
					<path class="st5" d="M735,230.2c-2.9,0-6.9-0.3-9.8-0.5l2-8.3c17.4,0.9,33.1-0.9,46.8-5.5c10.8-3.6,20.4-9,28.4-15.9
						c7.1-6.1,11.7-12.4,14.2-16.6c2.8-4.5,3.9-7.7,3.9-7.7l5.4,1.9c-0.2,0.6-4.9,13.8-19.5,26.5c-8.6,7.4-18.8,13.2-30.3,17.1
						C763.9,225.3,749.8,230.2,735,230.2z"/>
				</g>
			</g>
			<path class="st6" d="M279.6,170.3c0,0,19.5,15.2,47.2,10.8c27.7-4.4,47.6-13.8,73.6-4.6c26,9.2,84.9,14.7,130.4-3.7
				c45.5-18.4,91.9-33.6,142-17.5c50.1,16.1,77,27.2,114.1,15c37.1-12.1,58,26.1,100.5,6.2c42.5-19.9,14.5-50-18.4-56.2
				c-32.9-6.2-83.9-46.3-143.3-37.1c-59.4,9.3-113.6-16.1-170.4-3.9c-56.8,12.2-86.7,30.9-144.2,26.3
				C353.6,101,236.2,136.1,279.6,170.3z"/>
			<path class="st6" d="M502.8,81.8c0,0-35.1,3.6-55,10.8c-19.9,7.2-65.5,2.9-48.1-19.4c17.3-22.3,30.2-36.7,69-32.4
				c38.8,4.3,77.5,8.6,88.5,18.7C568.1,69.6,518,84,502.8,81.8z"/>
			<path class="st6" d="M588.1,49.8c14.7-3.4,39.5,10.6,63.9,22.2c24.4,11.6,74.9,3.5,54.6-30.5c-20.4-34-35.7-56-84.3-51.4
				c-48.6,4.6-97.3,9.2-111.5,23.6C496.7,28.2,548.2,59,588.1,49.8z"/>
		</g>
		<g style="clip-path:url(#SVGID_00000062885614792620508230000003762748138978446256_);">
			<g>
				<path class="st3" d="M51.5,89.8c5.5-8.6,5.9-20.5,4.3-34.6c-1.2-10.5-4.9-17.5-5-17.9l-2.2,0.8c0.1,0.3,10.7,30.3-1.3,48.9
					L51.5,89.8z"/>
			</g>
			<g>
				<path class="st3" d="M55.1,61.5l0.4-5c-13.1-1-25.3-5.8-32.5-15.9c-5.4-7.6-7.7-15.1-7.7-15.2L13,26c0.1,0.3,1.7,8.4,7.8,16.8
					C26.4,50.5,36.8,60.1,55.1,61.5z"/>
			</g>
			<g>
				<path class="st3" d="M137,70.7c10.2-8.3,15.4-22.6,19.1-40.3c2.7-13.2,1.1-23.3,1.1-23.7l-3,0.1c0,0.4,0.8,41.1-21.2,59
					L137,70.7z"/>
			</g>
			<g>
				<path class="st3" d="M146.2,63.5l-1.6-6.2c16.4-4.1,30.8-12.7,37.7-27c5.2-10.7,6.5-20.8,6.5-20.9l2.9,0.1
					c0,0.4-0.4,11-6.2,22.9C180.2,43.4,169,57.8,146.2,63.5z"/>
			</g>
			<path class="st4" d="M-42.5,113.4c-0.8-0.1-55.3,18.2-55.3,46.5c0,28.3,50.9,39.6,77.6,32.4c26.7-7.2,64.9-3.6,84.4,9.7
				c19.5,13.2,48.1-30.8,105.2-18.8c57.2,12,81.9,0.6,115.1-17.6c33.2-18.3,54.8,14.3,84.2,8c29.4-6.2,45.5-51.1,4.2-65.8
				c-41.3-14.6-200.4-32-229.7-29.1C113.9,81.5-42.5,113.4-42.5,113.4z"/>
			<g>
				<path class="st5" d="M114.1,408.9c0,0,16.4-48.8,20-89.1c4-44.5-7.6-91.8,0.6-119.6c9.6-32.7-4-86.6-9.7-121.6
					c0,0,35.7,93.3,28,115.3c-7.2,20.7,0.3,83,7.3,121.6c7,38.6-7.7,69.4,0,93.4C160.2,408.9,125.9,420.4,114.1,408.9z"/>
				<g>
					<path class="st5" d="M144,256.3l-4.3-3.7c0.3-0.3,6.3-7.4,17.8-15.2c10.5-7.2,27.8-16.3,50.3-19.1c41-5.1,98-45.2,100.3-79.2
						l5.7,0.4c-1.1,17.2-14.8,37-37.4,54.3c-21.2,16.3-46.6,27.5-67.8,30.2C167.6,229.1,149.3,266.3,144,256.3z"/>
				</g>
				<g>
					<path class="st5" d="M150.6,170.9l-1.3-5.5c0.2-0.1,12.9-3.2,28.4-12.3c14.2-8.4,35.5-22.8,47.9-48.2l3.4,1.7
						c-13.1,26.7-33.6,42.8-48.6,51.5C164.1,167.6,151.1,170.8,150.6,170.9z M149.9,168.2l-0.7-2.8c0,0,0,0,0,0L149.9,168.2z"/>
				</g>
				<g>
					<path class="st5" d="M183.9,153.5c-8.7-7.7-12.7-20.6-15.1-36.4c-1.8-11.8,0-20.6,0-21l2.7,0.2c0,0.4-2.5,36.2,16.2,52.9
						L183.9,153.5z"/>
				</g>
				<g>
					<path class="st5" d="M207.2,139.6c-1.2,0-2.3,0-3.5-0.1l0.2-5.7c26.2,0.8,43.4-7.4,53.2-14.4c10.7-7.6,15.2-15.5,15.3-15.5
						l2.5,1.4c-0.2,0.4-3.3,10.1-14.8,18.4C249.8,131,233.1,139.6,207.2,139.6z"/>
				</g>
				<g>
					<path class="st5" d="M125.4,207.8c-69.5,0-133.3-63.6-158.7-86.3c-4.5-4-8.8-7.9-9.9-8.4c0,0,0.3,0.1,0.8,0.1v-5.7
						c2,0,3.8,1.5,12.9,9.7c25.8,23,99.6,83.9,169.3,79.7l-4,10.8C133.3,208,127.8,207.8,125.4,207.8z"/>
				</g>
				<g>
					<path class="st5" d="M-11.1,180.9c-17.5,0-31.3-4.2-41.6-7.3c-20-6.1-28.3-17.1-28.8-17.5l1.6-1.9c0.1,0.1,10.1,8.4,29.1,14.1
						c17.6,5.3,46.6,9.6,85.4-0.5l6.4,7.7C23.5,180.1,2.6,180.9-11.1,180.9z"/>
				</g>
				<g>
					<path class="st5" d="M65.2,182.3l-5.2-2.3c16.7-36.8-3.1-74.4-3.3-74.7l2.1-1.4c0.3,0.4,6.2,9.8,10,24.2
						C72.3,141.4,74.6,161.6,65.2,182.3z"/>
				</g>
				<g>
					<path class="st5" d="M66.3,139.7c-14.7,0-26.6-15.7-33.5-23.5c-1.7-1.9-4.1-5.8-4.8-4.9c0,0-1.3-1.4-0.8-1.4l1.7,0.3
						c1.8,1.5,3.1,1,7,5.4c6.5,7.4,19.1,19.3,31.8,18.3l0.4,5.6C67.4,139.6,66.8,139.7,66.3,139.7z"/>
				</g>
				<g>
					<path class="st5" d="M134.3,136.9c-22.8-3.2-35.6-13.8-42.4-22.2c-7.4-9.2-9.3-17.6-9.4-17.9l5.5-1.2c0,0.1,1.8,7.7,8.5,15.8
						c8.9,10.9,21.9,17.6,38.6,19.9L134.3,136.9z"/>
				</g>
				<g>
					<path class="st5" d="M171.4,123.8l-1.9-5.3c14-5.1,25.9-14,30.7-27.1c3.6-9.9,3.8-18.8,3.8-18.9l2.5-0.2
						c0,0.4,0.6,9.7-3.4,20.6C199.5,103.1,190.9,116.7,171.4,123.8z"/>
				</g>
				<g>
					<path class="st5" d="M282.7,196.8c-2.9,0-6.9-0.3-9.8-0.5l2-8.3c17.4,0.9,33.1-0.9,46.8-5.5c10.8-3.6,20.4-9,28.4-15.9
						c7.1-6.1,11.7-12.4,14.2-16.6c2.8-4.5,3.9-7.7,3.9-7.7l5.4,1.9c-0.2,0.6-4.9,13.8-19.5,26.5c-8.6,7.4-18.8,13.2-30.3,17.1
						C311.7,191.8,297.5,196.8,282.7,196.8z"/>
				</g>
			</g>
			<path class="st6" d="M-172.7,136.9c0,0,19.5,15.2,47.2,10.8c27.7-4.4,47.6-13.8,73.6-4.6c26,9.2,84.9,14.7,130.4-3.7
				s91.9-33.6,142-17.5c50.1,16.1,77,27.2,114.1,15c37.1-12.1,58,26.1,100.5,6.2c42.5-19.9,14.5-50-18.4-56.2
				c-32.9-6.2-83.9-46.3-143.3-37.1C214,59.1,159.8,33.7,103,45.9C46.3,58.2,16.4,76.9-41.2,72.2
				C-98.7,67.6-216.1,102.6-172.7,136.9z"/>
			<path class="st6" d="M50.5,48.4c0,0-35.1,3.6-55,10.8c-19.9,7.2-65.5,2.9-48.1-19.4c17.3-22.3,30.2-36.7,69-32.4
				C55.2,11.7,94,16,104.9,26.1C115.8,36.1,65.7,50.5,50.5,48.4z"/>
			<path class="st6" d="M135.8,16.3c14.7-3.4,39.5,10.6,63.9,22.2C224.1,50.2,274.7,42,254.3,8C234-26,218.6-48,170-43.4
				c-48.6,4.6-97.3,9.2-111.5,23.6C44.4-5.3,96,25.5,135.8,16.3z"/>
		</g>
		<path style="clip-path:url(#SVGID_00000062885614792620508230000003762748138978446256_);fill:none;" d="M104.1,558.8
			c0,0-136.6-196.9-54.1-275.4c82.4-78.5,161-8.5,176.7-93.2c14.5-78.1,69.6-153.9,170-129.4C525.5,92.2,511.2,181,574.5,174.4
			c63.3-6.6,171.5-56.4,191.1,37.8c19.6,94.2-72.1,174.9-13.7,168.2c40.1-4.6,91.5-14.8,64.9,82.3c-16.9,61.8-41.5,96.1-41.5,96.1
			H104.1z"/>
		<path style="clip-path:url(#SVGID_00000062885614792620508230000003762748138978446256_);fill:none;" d="M104.1,558.8
			c0,0-136.6-196.9-54.1-275.4c82.4-78.5,161-8.5,176.7-93.2c14.5-78.1,69.6-153.9,170-129.4C525.5,92.2,511.2,181,574.5,174.4
			c63.3-6.6,171.5-56.4,191.1,37.8c19.6,94.2-72.1,174.9-13.7,168.2c40.1-4.6,91.5-14.8,64.9,82.3c-16.9,61.8-41.5,96.1-41.5,96.1
			H104.1z"/>
	</g>
	<g>
		<g>
			<path class="st5" d="M167.6,483.5c-9.5,0.8-20.7,3.8-19.7,9.6c0.3,1.8,1.8,3.4,3.9,4.7c1.9,1.2,3.9,2.2,6.1,3.2
				c9.8,4.5,10.3,12.6,1.4,17.6c-4.7,2.6-9.8,5.7-9.8,9.4c0,4.4,7.5,7.8,15.2,9.3c15.7,2.9,32.9,0.3,49.5-0.3
				c28-1.1,55.4,3.7,83.2,5.7c6.9,0.5,15.4-2.8,27.3-1.2c10.8,1.5,14.9,4.6,27.9,7.1c10.5,2,18.5,2.1,25,2.2
				c14.5,0.2,36.2,0.2,58-11c4.5-2.3,19.6-10.1,18.4-15.4c-1.4-6.1-23.8-6.5-35.3-5.9c-10.5,0.6-38.9,3.6-50.1,3.4
				c-0.6,0-4.2-1-8.8-2c-11.1-2.4-7.5-11.5,4.5-11.2c4,0.1,7.9,0.2,11.8,0.3c39,0.9,78.4-2.8,114.7-10.8c7.4-1.6,16.1-4.7,13.7-9.2
				c-0.5-0.9-1.4-1.7-2.6-2.4c-8.5-5.1-21.6-6.3-33.8-7.2C435.6,476.9,368.5,466.2,167.6,483.5z"/>
			<g>
				<path class="st8" d="M542,416.7c0.8-1.1,1.6-2.2,2.5-3.3c0.4-0.5,0.8-1,0.9-1.6c0.1-0.4,0.1-0.9-0.1-1.2
					c-0.2-0.3-0.7-0.5-1.1-0.4c-0.4,0-0.8,0.2-1.1,0.4c-1.3,0.8-2.3,2.1-3.2,3.3L542,416.7z"/>
				<path class="st6" d="M237.5,491.4c-4.5,0.6-9.8,2.5-9.3,6c0.2,1.1,0.9,2.1,1.9,2.8c0.9,0.7,1.9,1.3,3,1.9
					c4.7,2.7,5,7.6,0.8,10.7c-2.2,1.6-4.6,3.5-4.6,5.8c0.1,2.7,3.7,4.7,7.3,5.6c7.5,1.7,15.7,0,23.6-0.5c13.3-0.8,26.5,1.9,39.8,2.9
					c13.6,1.1,28.9-0.1,38.2-7.3c0.4-0.3,0.7-0.6,0.9-0.9c1.5-2.5-2.2-4.1-5.3-5c-1.4-0.4-2.8-0.8-4.2-1.1c-5.3-1.4-3.7-7,2-6.9
					c1.9,0,3.8,0.1,5.6,0.1c18.6,0.3,37.4-2.3,54.6-7.4c3.5-1,7.6-3,6.4-5.7c-0.2-0.6-0.7-1.1-1.3-1.5c-4.1-3-10.4-3.7-16.2-4.2
					C365.2,485.4,333.1,479.4,237.5,491.4z"/>
				<path class="st9" d="M554.7,406.1c-1.6-1.4-3.2-2.6-5-3.8c-0.1-0.1-0.2-0.1-0.4-0.1c-0.1,0-0.2,0.2-0.3,0.3
					c-0.6,0.9-1.2,1.8-1.8,2.7c1.8,1.5,3.7,2.8,5.7,3.9c0.7-1,1.3-1.9,2-2.9L554.7,406.1z"/>
				<g>
					<path class="st10" d="M535.8,395c-15.9-11-32.1-21.4-48.8-31.1c-16-9.4-32.3-18.4-49.4-25.7c-16.4-7-33.5-12.4-51.3-14.3
						c-15.1-1.6-30.7-0.3-45.2,4.3c-14.1,4.4-27.3,12.1-37.2,23.1c-1.2,1.4-2.4,2.8-3.6,4.3c-0.4,0.5,0.3,1.2,0.7,0.7
						c9.1-11.8,21.8-20.4,35.7-25.5c14.1-5.2,29.3-7.2,44.3-6.3c17.8,1.1,35.2,6.1,51.6,12.8c16.8,6.9,32.9,15.5,48.6,24.6
						c16.4,9.4,32.5,19.5,48.1,30.1c2,1.3,3.9,2.7,5.9,4.1C535.8,396.2,536.3,395.4,535.8,395L535.8,395z"/>
				</g>
				<g>
					<path class="st10" d="M467.2,353.3c-1.3,1.6-2.5,3.3-3.8,4.9c-0.2,0.2-0.2,0.5,0,0.7c0.2,0.2,0.5,0.2,0.7,0
						c1.3-1.6,2.5-3.3,3.8-4.9c0.2-0.2,0.2-0.5,0-0.7C467.7,353.1,467.4,353.1,467.2,353.3L467.2,353.3z"/>
				</g>
				<g>
					<path class="st10" d="M463.6,358.4c0.6,1.5,0.1,3.3-1.1,4.3c-0.3,0.2-0.6,0.4-1,0.6c-0.3,0.1-0.8,0.3-1,0c-0.1-0.3-0.1-0.7,0-1
						c0.1-0.5,0.3-1,0.6-1.5c0.5-0.9,1.4-1.9,2.6-1.8c0.3,0,0.5-0.1,0.6-0.3c0.1-0.2-0.1-0.5-0.3-0.6c-1.4-0.2-2.6,0.6-3.4,1.7
						c-0.4,0.6-0.6,1.2-0.8,1.8c-0.2,0.5-0.3,1.1-0.2,1.7c0.1,0.5,0.5,1,1.1,1.1c0.6,0.1,1.3-0.2,1.8-0.4c0.9-0.5,1.6-1.3,2.1-2.3
						c0.5-1.1,0.6-2.4,0.1-3.5c-0.1-0.2-0.3-0.4-0.6-0.3C463.7,357.9,463.5,358.2,463.6,358.4L463.6,358.4z"/>
				</g>
				<g>
					<path class="st10" d="M374.7,323.7c-0.9,1.2-1.8,2.4-2.7,3.5c-0.2,0.2-0.2,0.5,0,0.7c0.2,0.2,0.5,0.2,0.7,0
						c0.9-1.2,1.8-2.4,2.7-3.5c0.2-0.2,0.2-0.5,0-0.7C375.2,323.6,374.8,323.5,374.7,323.7L374.7,323.7z"/>
				</g>
				<g>
					<path class="st10" d="M372,327.6c0.2,0.6,0.3,1,0.1,1.6c-0.1,0.5-0.4,1-0.9,1.4c0,0,0,0-0.1,0.1c-0.1,0-0.1,0.1-0.2,0.1
						c-0.2,0.1-0.2,0.1-0.4,0.2c-0.1,0-0.3,0.1-0.4,0.1c0,0-0.1,0-0.1,0c0,0,0,0-0.1,0c0,0.1,0-0.2,0-0.1c0-0.1,0-0.1,0-0.2
						c0,0,0-0.1,0-0.1c0,0.1,0,0,0,0c0-0.1,0-0.2,0.1-0.2c0.1-0.4,0.2-0.7,0.4-1c0.3-0.6,1-1.3,1.7-1.2c0.3,0,0.5-0.1,0.6-0.3
						c0.1-0.2-0.1-0.5-0.3-0.6c-1.1-0.2-2,0.4-2.6,1.3c-0.3,0.4-0.5,0.9-0.6,1.4c-0.1,0.4-0.2,0.8-0.1,1.3c0.1,0.4,0.4,0.8,0.9,0.9
						c0.5,0.1,1-0.1,1.4-0.3c0.7-0.4,1.2-1,1.5-1.7c0.4-0.8,0.4-1.8,0.1-2.6c-0.1-0.2-0.3-0.4-0.6-0.3
						C372.1,327,371.9,327.3,372,327.6L372,327.6z"/>
				</g>
				<g>
					<path class="st10" d="M518.9,384c-1.4,1.9-2.5,3.9-4,5.8c-0.2,0.2-0.2,0.5,0,0.7c0.2,0.2,0.5,0.2,0.7,0c1.4-1.9,2.5-3.9,4-5.8
						c0.2-0.2,0.2-0.5,0-0.7C519.4,383.8,519.1,383.8,518.9,384L518.9,384z"/>
				</g>
				<g>
					<path class="st10" d="M515.1,390c0.6,1.4,0.1,3.1-1.1,4.1c-0.3,0.2-0.6,0.4-0.9,0.5c-0.3,0.1-0.7,0.3-0.9,0
						c-0.1-0.3-0.1-0.7,0-1c0.1-0.5,0.3-1,0.5-1.4c0.5-0.9,1.3-1.8,2.4-1.6c0.3,0,0.5-0.1,0.6-0.3c0.1-0.2-0.1-0.5-0.3-0.6
						c-1.3-0.2-2.5,0.5-3.2,1.6c-0.4,0.5-0.6,1.1-0.8,1.7c-0.2,0.5-0.3,1.1-0.2,1.6c0.1,0.5,0.5,1,1,1c0.6,0.1,1.2-0.1,1.7-0.4
						c0.9-0.5,1.6-1.3,2-2.2c0.5-1.1,0.6-2.3,0.1-3.4c-0.1-0.2-0.3-0.4-0.6-0.3C515.2,389.5,515,389.8,515.1,390L515.1,390z"/>
				</g>
				<g>
					<g>
						<g>
							<g id="_x36__00000158740307593408281090000016924117434239756958_">
								<path class="st11" d="M629.3,540.3c-2.1,0-3.9-1.5-3.9-3.3v-89.9c0-1.8,1.7-3.3,3.9-3.3s3.9,1.5,3.9,3.3V537
									C633.2,538.9,631.5,540.3,629.3,540.3z"/>
								<path class="st12" d="M619.9,540.3c-2.1,0-3.9-1.5-3.9-3.3v-89.9c0-1.8,1.7-3.3,3.9-3.3s3.9,1.5,3.9,3.3V537
									C623.7,538.9,622,540.3,619.9,540.3z"/>
								<path class="st11" d="M584,540.3c-2.1,0-3.9-1.5-3.9-3.3v-89.8c0-1.8,1.7-3.3,3.9-3.3s3.9,1.5,3.9,3.3V537
									C587.8,538.8,586.1,540.3,584,540.3z"/>
								<path class="st12" d="M575.2,540.3c-2.1,0-3.9-1.5-3.9-3.3v-89.8c0-1.8,1.7-3.3,3.9-3.3s3.9,1.5,3.9,3.3V537
									C579,538.8,577.3,540.3,575.2,540.3z"/>
								<path class="st13" d="M559.1,446.1c0-2.1,1.5-3.9,3.3-3.9h81.1c1.8,0,3.3,1.7,3.3,3.9c0,2.1-1.5,18.7-3.3,18.7h-81.1
									C560.6,464.8,559.1,448.2,559.1,446.1z"/>
							</g>
						</g>
					</g>
				</g>
				<path class="st14" d="M549.9,416.1c-0.5,0.3-0.9,0.6-1.6,1.2c-1.9,1.5-2.8,3.9-3.5,6.2c-0.3,0.8-0.5,1.7-0.4,2.5
					c0.2,0.8,0.9,1.6,1.7,1.6c-0.1,1.2,1.3,2.3,2.4,1.9c0.2,0.9,0.8,1.6,1.6,1.9c0.4,0.1,0.7,0.2,1.1,0.3c0.5,0.2,0.8,0.5,1.3,0.7
					c1.4,0.7,3.3,0.1,4.1-1.2c0.8-1.3-2.5-0.1-1.5-4c2.6-0.6,4.9-4.1,3.8-6.5c-0.1-0.3-0.3-0.6-0.3-0.9c0-0.4,0.2-0.8,0.5-1.2
					c0.6-0.8,2.4-2.3,4.9-4.1c-0.7-0.4-1.4-0.8-2.1-1.2c-2-1.2-3.8-2.5-5.2-3.8C554.1,413.1,551.7,415,549.9,416.1z"/>
				<path class="st15" d="M552.9,409.1c1.5,8.1,6.6,12.8,10.3,12.2c2.5-0.4,4.1-3,4.9-4.5c10.2-6.1,20.4-12.3,30.5-18.4
					c2.4-12.7,4.9-25.3,7.3-38c-1.2-7.9-4.1-13.1-7-13.2c-0.6,0-1.6,0.2-2.8,1.4c-0.8,1.2-1.6,2.5-2.3,3.8
					c-6.5,11.9-7.5,24.1-7,33.4c-7,7.1-14,14.2-21.1,21.3c-1.9,0.2-3.9,0.4-6,0.7C557.4,408.2,555,408.6,552.9,409.1z"/>
				<path class="st16" d="M552.5,421.8c-3,0.6-6.5,7.9,2.5,5.6c4.6-1.8,1.3-7.4,1.3-7.4S555.7,422.8,552.5,421.8z"/>
				<path class="st17" d="M551.7,412.1c-0.3,3.3,0.2,6.6,1.4,9.7c0.3,0.7,0.6,1.4,0.4,2.1c-0.1,0.4-0.3,0.8-0.6,1.1
					c-0.5,0.6-1.1,1.2-1.9,1.4c-0.6,0.1-1.3,0-1.8-0.2c-1.9-0.8-3.3-2.4-4.9-3.6c-0.1-0.1-0.3-0.2-0.4-0.2c-0.3,0-0.6,0.2-0.8,0.4
					c-0.8,0.4-1.7-0.1-2.4-0.7c-1-0.9-1.8-1.8-2.7-2.8c-0.4-0.3-0.8-0.6-1-1.1c-0.2-0.5-0.1-1.1,0.3-1.4c-0.6-0.4-0.8-1.4-0.3-2
					c0.5-0.6,1.5-0.6,2-0.1c0.4-0.9,1.5-1.5,2.5-1.2c0.8,0.3,1.3,1,2,1.5c0.7,0.5,1.5,0.8,2.2,1.2c0.7,0.4,1.4,1.2,1.3,2
					c0,0.1,0,0.3,0,0.4c0,0.4,0.4,0.7,0.8,0.7c0.4,0,0.8-0.1,1.1-0.4c1.1-0.9,1.2-2.5,1.1-4s-0.3-3,0.5-4.2c0.3,0.4,0.7,0.7,1.1,0.9
					L551.7,412.1z"/>
				<path class="st8" d="M549.9,420.6c0.6,0.3,0.8,1.2,0.4,1.8c-0.3,0.5-1.1,0.6-1.6,0.3c-0.5-0.3-0.7-1-0.5-1.5
					c0.3-0.5,1-0.8,1.5-0.5L549.9,420.6z"/>
				<path class="st18" d="M541.9,414.6c-0.8,1.5-2,2.8-3.4,3.8L541.9,414.6z"/>
				<path class="st18" d="M540.1,415.4c-0.4,0.4-0.9,0.8-1.4,1.1L540.1,415.4z"/>
				<path class="st14" d="M569,408.3c0.1,1.6,0.3,3,0.6,4.1c-3.9,3.7-7.1,5.2-9,5.9c-2.4,0.8-3.1,0.5-3.5,0.2
					c-0.6-0.6-0.8-1.8,0-2.4c-0.6,0.6-1.6,0.6-2.2,0.1c-0.6-0.5-0.8-1.3-0.5-2c0-0.1,0.1-0.2,0.1-0.3c-0.6,0.2-1.3,0.4-2,0.3
					c-0.4,0-0.8-0.1-1.2-0.3c-0.6-0.4-0.8-1.3-0.5-1.9c-0.9,0.3-2-0.2-2.4-1c-0.6-1.1-0.2-2.6,0.7-3.5c0.8-1,2-1.5,3.1-2.1
					c1.6-0.8,3.3-1.6,5-2.2c2.6-0.9,7.6-0.5,10.9-0.8c0.6,0,1.1,0,1.6,0C569.3,403.8,568.9,405.9,569,408.3z"/>
				<path class="st14" d="M545,425.4c1.2-0.6,2.4-1.1,3.6-1.7c0.8-0.4,1.6-0.7,2.5-0.8c0.6,0,1.1,0.6,1,1.2
					c-0.1,0.3-0.2,0.6-0.4,0.9c-0.4,0.6-0.9,1-1.4,1.5c1.1-1.1,2.6-2.3,4.1-1.9c0.2,0,0.3,0.1,0.4,0.2c0.2,0.3,0,1-0.2,1.2
					c-0.6,0.7-1.2,1.1-1.8,1.8c0.5-1.1,1.6-1.8,2.8-1.9c0.4,0,0.8,0.1,0.9,0.4c0,0.2,0,0.7-0.1,0.9c-0.3,0.8-0.7,1.2-1.2,2
					c0.2-0.4,0.5-0.9,0.9-1.1c0.4-0.2,1.1-0.2,1.4,0.1c0.2,0.2,0.2,0.8,0.2,1.1c-0.3,1.1-1.4,2.5-2.4,3c-1,0.5-1.5,0.1-2.6-0.3
					c-1.1-0.3-2-1-2.9-1.6c-1-0.7-2.1-1.5-3-2.3L545,425.4z"/>
				<g>
					<path class="st8" d="M538.9,419.1c1.2-1.6,2.6-3,4.1-4.4c0.2-0.2,0.2-0.5,0-0.7c-0.2-0.2-0.5-0.2-0.7,0
						c-1.5,1.3-2.9,2.8-4.1,4.4c-0.2,0.2-0.2,0.5,0,0.7C538.4,419.3,538.8,419.3,538.9,419.1L538.9,419.1z"/>
				</g>
				<g>
					<path class="st8" d="M540.1,420.2c1.4-1.3,2.7-2.6,3.9-4.1c0.2-0.2,0.2-0.5,0-0.7c-0.2-0.2-0.5-0.2-0.7,0
						c-1.2,1.5-2.5,2.8-3.9,4.1c-0.2,0.2-0.2,0.5,0,0.7C539.6,420.4,539.9,420.4,540.1,420.2L540.1,420.2z"/>
				</g>
				<g>
					<path class="st8" d="M541.1,421.3c1.3-1.5,2.7-2.9,4.2-4.2c0.2-0.2,0.2-0.5,0-0.7c-0.2-0.2-0.5-0.2-0.7,0
						c-1.5,1.3-2.9,2.7-4.2,4.2c-0.2,0.2-0.2,0.5,0,0.7C540.6,421.5,540.9,421.5,541.1,421.3L541.1,421.3z"/>
				</g>
				<g>
					<path class="st8" d="M542.1,422.3c1.6-1.2,3-2.6,4.1-4.3c0.2-0.2,0-0.6-0.2-0.7c-0.3-0.1-0.5,0-0.7,0.2c-1,1.5-2.3,2.8-3.7,3.9
						c-0.2,0.2-0.3,0.4-0.2,0.7C541.5,422.3,541.8,422.4,542.1,422.3L542.1,422.3z"/>
				</g>
				<g>
					<path class="st8" d="M543.5,414.8c-0.3-5.6-3.3-10.6-7.5-14.2c-4.7-4.1-10.7-6.3-16.7-8c-11.9-3.5-23.9-6.7-34.9-12.7
						c-5.4-2.9-10.5-6.4-15-10.6c-4.5-4.2-7.8-9.6-12.3-13.8c-4.6-4.3-10.5-6.4-16.5-8c-7.1-2-14.3-3.9-21.5-5.8
						c-7.2-1.9-14.3-3.9-21.5-5.8c-7.3-2-14.5-4.1-21.8-5.9c-1.4-0.3-2.8-0.5-4.2-0.3c-1.8,0.3-3.5,1-5.2,1.6
						c-3.6,1.3-7.1,2.6-10.7,3.9c-7,2.5-13.9,5.1-20.9,7.6c-7.1,2.6-14.2,5.2-21.4,7.8c-3.3,1.2-6.8,2.3-10.1,3.7
						c-2.3,1-4.5,2.3-5.2,4.8c-0.9,2.9,0.3,6.1,0.9,8.9c0.7,3.4,1.4,6.9,2,10.3c1.3,7.2,2.4,14.4,3,21.7c1.2,14.1,0.7,28.4-3,42.1
						c-3.3,11.9-8.8,25.7-3.5,37.9c1,2.4,2.4,4.5,4.2,6.3c0.5,0.5,1.2-0.3,0.7-0.7c-9.4-9.3-6.2-24.7-2.7-35.8
						c2-6.5,3.8-12.9,4.8-19.6c0.9-6.6,1.3-13.3,1.1-19.9c-0.3-13.7-2.5-27.2-5.2-40.6c-0.3-1.6-0.7-3.2-1-4.8
						c-0.4-1.8-0.8-3.7-0.2-5.5c0.9-3.1,4.5-4.1,7.2-5.1c6.8-2.5,13.6-5,20.4-7.4c13.6-5,27.3-9.9,40.9-14.9c1.6-0.6,3.3-1.3,5-1.3
						c1.8,0,3.5,0.5,5.2,1c3.6,1,7.2,1.9,10.7,2.9c7.1,1.9,14.2,3.8,21.2,5.7c7,1.9,14,3.8,21,5.7c6.3,1.7,12.9,3,18.9,5.9
						c2.8,1.4,5.4,3.1,7.6,5.4c2.2,2.2,4,4.7,5.9,7c3.7,4.5,8,8.4,12.7,11.8c9.6,6.7,20.7,11.1,31.8,14.4c11.3,3.4,25.3,5.4,32,16.3
						c1.5,2.5,2.5,5.2,2.6,8.1C542.6,415.5,543.6,415.5,543.5,414.8L543.5,414.8z"/>
				</g>
				<path class="st19" d="M548.4,400.4c0.7,0.4,1.1,1.2,0.9,2c-0.2,0.7-0.5,1.3-1,1.8c-0.8,0.8-2.2,1.2-3.3,0.9
					c-0.7-0.2-1.3-0.7-1.9-1.2c-1-0.8-1.9-1.6-2.9-2.3c-1-0.8-2.1-1.7-3.1-2.5c-0.9-0.7-1.8-1.5-2.1-2.7c0-0.1,0-0.1,0-0.2
					c-0.1-1.4,1.4-2.3,2.6-1.7L548.4,400.4z"/>
				<g>
					<path class="st20" d="M536.4,397.8c0.8-0.5,1.4-1.3,1.6-2.2c0-0.1,0-0.3-0.1-0.4c-0.1-0.1-0.2-0.2-0.3-0.2
						c-0.2-0.1-0.6,0.1-0.6,0.4c0,0.1,0,0.2-0.1,0.3c0,0.1,0,0.1,0,0.2c0,0,0,0,0,0.1c0,0,0,0.1,0,0c0-0.1,0,0,0,0c0,0,0,0,0,0.1
						c0,0,0,0.1-0.1,0.1c0,0.1-0.1,0.2-0.2,0.3c0,0,0,0,0,0.1c0,0,0.1-0.1,0,0c0,0-0.1,0.1-0.1,0.1c-0.1,0.1-0.1,0.1-0.2,0.2
						c0,0-0.1,0.1-0.1,0.1c0.1-0.1,0,0,0,0c-0.1,0.1-0.2,0.1-0.3,0.2c-0.2,0.1-0.3,0.5-0.2,0.7C535.9,397.8,536.2,397.9,536.4,397.8
						L536.4,397.8z"/>
				</g>
				<g>
					<path class="st20" d="M537.7,398.2c1.7,1.7,3.5,3.2,5.4,4.6c0.2,0.2,0.6,0,0.7-0.2c0.1-0.3,0-0.5-0.2-0.7
						c-1.8-1.3-3.6-2.8-5.2-4.5C537.9,397,537.2,397.7,537.7,398.2L537.7,398.2z"/>
				</g>
				<g>
					<path class="st20" d="M540.9,398.7c1.1,0.7,2.2,1.5,3.3,2.2c0.2,0.2,0.6,0,0.7-0.2c0.1-0.3,0-0.5-0.2-0.7
						c-1.1-0.7-2.2-1.5-3.3-2.2c-0.2-0.2-0.6,0-0.7,0.2C540.6,398.2,540.7,398.5,540.9,398.7L540.9,398.7z"/>
				</g>
				<g>
					<path class="st8" d="M300.4,500c-1.2-0.3-2.8-0.5-3.4,0.9c-0.6,1.3,0.8,2.1,1.8,2.5c2.5,1.1,5.1,1.8,7.8,2
						c2.7,0.2,5.5-0.1,8.1-0.8c1.2-0.3,2.5-0.7,3.4-1.5c0.8-0.7,1.1-1.9,0.4-2.8c-0.9-1-2.4-1-3.6-1.1c-1.8-0.2-3.5-0.4-5.3-0.5
						c-0.6-0.1-0.6,0.9,0,1c1.3,0.1,2.6,0.3,3.9,0.4c1.1,0.1,2.3,0.1,3.4,0.4c0.8,0.2,1.4,0.8,0.8,1.6c-0.6,0.8-1.7,1.1-2.6,1.3
						c-4.3,1.3-9,1.3-13.3,0c-1.2-0.4-2.4-0.8-3.5-1.4c-0.5-0.3-0.6-0.7-0.1-1.1c0.5-0.4,1.3-0.1,1.9,0
						C300.8,501.1,301,500.1,300.4,500L300.4,500z"/>
				</g>
				<g>
					<path class="st8" d="M309.1,496.8c3.2-0.3,6.5-0.2,9.7,0.5c2.5,0.5,5.2,1.7,6.2,4.2c0.5,1.3,0.5,2.7-0.3,3.8
						c-0.4,0.5,0.5,1,0.9,0.5c1.6-2.3,0.6-5.5-1.4-7.2c-2.4-2.1-5.8-2.6-8.8-2.8c-2.1-0.2-4.1-0.2-6.2,0
						C308.4,495.8,308.4,496.8,309.1,496.8L309.1,496.8z"/>
				</g>
				<g>
					<path class="st8" d="M293.3,506.8c3.9,2.5,8.7,3.2,13.2,2.2c0.6-0.1,0.3-1.1-0.3-1c-4.2,1-8.7,0.2-12.4-2.1
						C293.2,505.6,292.8,506.5,293.3,506.8L293.3,506.8z"/>
				</g>
				<g>
					<path class="st8" d="M285.1,508.8c3.6,2.5,7.7,4,12.1,4.3c0.6,0.1,0.6-1,0-1c-4.1-0.3-8.1-1.8-11.5-4.2
						C285,507.6,284.6,508.5,285.1,508.8L285.1,508.8z"/>
				</g>
				<g>
					<path class="st8" d="M351.5,496.9c4.9,1.5,10.1,1.7,15.1,0.6c1.4-0.3,2.8-0.7,4.2-1.2c0.6-0.2,0.3-1.2-0.3-1
						c-6,2.3-12.6,2.5-18.7,0.6C351.1,495.7,350.9,496.7,351.5,496.9L351.5,496.9z"/>
				</g>
				<g>
					<path class="st8" d="M365.3,492.2c3.9-0.9,7.8-1.7,11.7-2.6c0.6-0.1,0.3-1.1-0.3-1c-3.9,0.9-7.8,1.7-11.7,2.6
						C364.4,491.4,364.7,492.4,365.3,492.2L365.3,492.2z"/>
				</g>
				<g>
					<path class="st8" d="M246.6,515c-0.7-0.5-1.5,0-1.9,0.7c-0.4,0.7-0.4,1.6-0.1,2.3c0.5,1.6,1.7,2.8,3.2,3.4
						c0.9,0.3,1.8,0.4,2.7,0.2c0.3,0,0.4-0.4,0.3-0.6c-0.1-0.3-0.4-0.4-0.6-0.3c-1.5,0.3-3.1-0.5-4-1.6c-0.5-0.6-0.8-1.3-0.8-2
						c0-0.3,0.1-0.7,0.3-1c0.1-0.1,0.2-0.2,0.3-0.2c0.1,0,0.1,0,0.2,0C246.7,516.3,247.1,515.4,246.6,515L246.6,515z"/>
				</g>
				<g>
					<path class="st8" d="M246.7,502.7c1.8,1.5,2.2,4.1,1.1,6.1c-0.3,0.6,0.6,1.1,0.9,0.5c1.4-2.4,0.8-5.6-1.3-7.4
						C246.9,501.5,246.2,502.2,246.7,502.7L246.7,502.7z"/>
				</g>
				<g>
					<path class="st8" d="M250.7,501c1.4,1.3,2.3,3.1,2.3,5c0,0.6,1,0.6,1,0c0-2.2-0.9-4.3-2.6-5.7
						C250.9,499.8,250.2,500.5,250.7,501L250.7,501z"/>
				</g>
			</g>
			<g>
				<path class="st16" d="M551.1,412.3c1.1-0.4,2.1-0.9,3-1.6c0.1-0.1,0.2-0.3,0.1-0.4c-0.1-0.1-0.3-0.2-0.4-0.1
					c-0.9,0.7-1.8,1.2-2.8,1.5c-0.2,0.1-0.3,0.2-0.2,0.4C550.7,412.3,550.9,412.4,551.1,412.3L551.1,412.3z"/>
			</g>
			<g>
				<path class="st16" d="M556.9,412.6c-0.7,0.7-1.6,1.2-2.5,1.6c0-0.1,0.1-0.2,0.1-0.3c-0.6,0.2-1.3,0.4-2,0.3
					c0-0.1,0.1-0.2,0.2-0.2c1.4-0.3,2.7-0.9,3.7-1.9C556.7,411.9,557.1,412.3,556.9,412.6z"/>
			</g>
			<g>
				<path class="st16" d="M557.5,416.3c1.2-0.3,2.3-0.9,3.1-1.8c0.3-0.3-0.2-0.7-0.4-0.4c-0.8,0.8-1.8,1.4-2.9,1.7
					C557,415.8,557.2,416.4,557.5,416.3L557.5,416.3z"/>
			</g>
			<g>
				<path class="st8" d="M307,502.2C307,502.2,306.9,502.2,307,502.2c-0.3,0-0.6-0.3-0.5-0.6c0.3-3.3,0.1-8.1-2.7-12.6
					c-0.6-0.9-1.3-1.9-2-2.7c-0.2-0.2-0.2-0.5,0-0.7c0.2-0.2,0.6-0.2,0.7,0c0.8,0.9,1.5,1.8,2.1,2.8c2.9,4.8,3.2,9.9,2.8,13.3
					C307.5,502,307.2,502.2,307,502.2z"/>
			</g>
		</g>
		<g>
			<g>
				<g>
					<path class="st21" d="M521.7,539.1h30.7c1.5,0,2.7-1.3,2.6-2.7c-0.2-3.2-1-8-0.8-10.1c-0.1-1.8,2.5-25.8,2.7-28.3h-19.2
						l3.1,24.7c0.4,2.9-1.4,5.7-4.2,6.6c-3.8,1.2-8.1,1.8-10.9,2.5c-2.5,0.6-4.7,1.5-6.1,3.2C518.4,536.7,519.6,539.1,521.7,539.1z"
						/>
					<path class="st22" d="M518.2,537.1c0.2,0.6,0.7,1.8,1.9,2.7c0.4,0.3,0.8,0.5,1.2,0.6c10.7-0.1,21.3-0.2,32-0.2
						c0.8,0,1.5-0.5,1.8-1.2c0,0,0,0,0,0c0.3-0.8,0.3-1.5,0.3-2C543,537,530.6,537.1,518.2,537.1z"/>
					<path class="st23" d="M555.5,536.2c-0.1,0.7-0.4,1.3-0.4,1.3c0,0,0,0.1,0,0.1c-0.4,0.7-1.1,1.1-1.9,1.1h-32
						c-0.5-0.1-3.1-0.7-3.3-2.1c-0.3-1.9,4.1-4,4.5-4.2c0.9-0.4,1.7-0.7,2.4-0.8c3.9-1.3,7.9-2.5,11.8-3.8c0.3,0.1,1.1,0.3,1.7,1.1
						c0.9,1.2,0.6,2.5,0.6,2.7c-0.9,0.4-1.4,0.8-1.3,1.1c0.1,0.3,1,0.5,2.8,0.5c3.9-0.4,8.5-1,13.8-1.7
						C555.2,533.4,555.7,535.2,555.5,536.2z"/>
					<path class="st23" d="M534.9,517.5c10.8,3.9,25.1,0,25.1,0c1.4-21.4,2.8-36.1,4.2-57.5c22.1-6.1,44.1-12.2,66.2-18.3
						c2-8.5,4-17.1,6-25.6c-14.3-1.3-28.6-2.6-42.9-3.9c-15.5,8.3-31.1,16.6-46.6,25c-6.5,3.9-10.5,10.9-10.7,18.5
						C535.8,476.9,535.4,494.8,534.9,517.5z"/>
					<path class="st24" d="M528.2,539.1h30.7c1.5,0,2.7-1.3,2.6-2.7c-0.2-3.2-1-8-0.8-10.1c-0.1-1.8,2.5-25.8,2.7-28.3h-19.2
						l3.1,24.7c0.4,2.9-1.4,5.7-4.2,6.6c-3.8,1.2-8.1,1.8-10.9,2.5c-2.5,0.6-4.9,2.1-6.1,3.2C524.6,536.5,526.1,539.1,528.2,539.1z"
						/>
					<path class="st23" d="M524.9,537.5c0.2,0.6,0.7,1.8,1.9,2.7c0.4,0.3,0.8,0.5,1.2,0.6c10.7-0.1,21.3-0.2,32-0.2
						c0.8,0,1.5-0.5,1.8-1.2c0,0,0,0,0,0c0.3-0.8,0.3-1.5,0.3-2C549.7,537.4,537.3,537.5,524.9,537.5z"/>
					<path d="M562.3,536.7c-0.1,0.7-0.4,1.3-0.4,1.3c0,0,0,0.1,0,0.1c-0.4,0.7-1.1,1.1-1.9,1.1h-32c-0.5-0.1-3.1-0.7-3.3-2.1
						c-0.3-1.9,4.1-4,4.5-4.2c0.9-0.4,1.7-0.7,2.4-0.8c3.9-1.3,7.9-2.5,11.8-3.8c0.3,0.1,1.1,0.3,1.7,1.1c0.9,1.2,0.6,2.5,0.6,2.7
						c-0.9,0.4-1.4,0.8-1.3,1.1c0.1,0.3,1,0.5,2.8,0.5c3.9-0.4,8.5-1,13.8-1.7C561.9,533.8,562.4,535.6,562.3,536.7z"/>
					<path d="M541.4,517.5c4.3,0.9,9.6,1.7,15.7,1.7c4.7,0,8.9-0.4,12.4-0.9c0.2-7,0.6-16.5,1.4-27.8c1.4-19.8,2.4-23.3,4.9-26.6
						c4.8-6.5,12.4-8.4,27.6-12.1c19.8-4.9,30.2-5.7,33.4-10c3.5-4.6,4.8-11.3,5.1-12.9c1.1-5.6,0.6-10.4,0.1-13.4
						c-4.4-0.2-8.4-0.4-12.1-0.7c-2.7-0.2-6.7-0.4-11.4-0.9c-0.7-0.1-1.1-0.1-1.3-0.1c-3.3-0.3-9.1-0.2-19.6,1.3
						c-4,2.4-7.4,4.3-9.6,5.5c-3.3,1.8-11.2,6.1-28.8,14.7c-5.1,2.5-6.2,3-7.9,4.5c-4.9,4.3-8.3,10.1-8.4,16.9
						C542.3,477.7,541.8,495.1,541.4,517.5z"/>
					<path class="st25" d="M593.4,411.3c0.2,0.2,0.3,0.3,0.5,0.5c0.2,0.2,0.5,0.4,0.7,0.7c0.5,0.5,8,6.1,10.5,7.4
						c4.7,2.4,18.8,3.7,36.2-1.2c1-8.4,2-16.9,2.8-25.7c1.3-13.3,2.2-26.3,2.7-38.7c-0.7-1.5-1.5-3-2.2-4.5
						c-6.6-4.1-13.3-8.3-19.9-12.4c-4.9,1.7-9.9,3.4-14.8,5.1c-1.6-0.1-3.3-0.2-4.9-0.3c-0.9,0.7-1.8,1.5-2.7,2.4
						c-2.5,2.4-4.4,4.8-5.9,7c-0.1,1.1-1.4,27-2.8,54.1C593.7,405.5,593.4,411.2,593.4,411.3z"/>
					<path d="M593.4,411.3c0.4,0.4,0.8,0.7,1.2,1.1c1.4-1,2.9-2,4.3-3.1c2.3-22,4.5-44.1,6.8-66.1c-0.4-0.7-0.8-1.5-1.2-2.2
						c-0.7,0.6-1.9,1.6-3.2,2.9c0,0-2.9,3.1-4.9,7.5C594.4,356,592.3,379.3,593.4,411.3z"/>
					<path d="M607.2,407.5c4.9,4.3,9.7,6.7,12.8,8c2.3,1,6.8,2.8,13,3.3c3.4,0.3,6.3,0.1,8.4-0.2c1.4-7.6,2.7-15.5,3.9-23.5
						c1.2-7.9,2.3-15.6,3.2-23.1c0.7-4.1,1.2-10.7-1.5-17.9c-0.6-1.7-1.4-3.2-2.2-4.5c-6.6-4.3-13.2-8.5-19.8-12.8
						c-2.1,0.5-4.4,1.2-6.7,2c-3,1.1-5.8,2.2-8.2,3.4C609.1,364,608.1,385.7,607.2,407.5z"/>
					<path class="st26" d="M584.8,415.4c6.1,3.1,16.5,7.3,30.1,8.4c11.7,0.9,21.3-1,27.6-2.7c0.1-2.2,0.3-4.5,0.5-6.8
						c0.4-4.7,0.9-9.2,1.4-13.5c-9.1,2.1-19.7,3.9-31.7,4.6c-6.8,0.4-13.1,0.4-18.9,0.1c-0.6,1.6-1.3,2.8-1.8,3.5
						c-1.2,1.7-2.5,2.8-4.5,4.4C586.4,414.3,585.5,414.9,584.8,415.4z"/>
					<path class="st27" d="M607.2,340.1c-0.6,8.8-1.2,17.7-1.7,26.8c-0.8,15.5-1.3,30.6-1.5,45.2"/>
					<path class="st25" d="M567.3,411.3c0.7,2.2,2.2,7,5.8,7.8c3.5,0.9,8.2-2.3,10.8-8.1c6.6,1,16.8,1.7,28.8-0.6
						c10.9-2.1,19.3-6,24.9-9.1c3.9-8.8,6.7-16.4,8.7-22.3c4.8-14.4,5.2-20.2,2.6-25.2c-1.1-2.1-2.4-3.5-3.3-4.4
						c-4.7-3.1-8.2-2.5-9.2-2.3c-5.6,1.3-8.9,8-10.9,12.4c-0.4,0.8-0.7,1.5-1.1,2.4c-1.8,4.6-2.5,8.1-3.6,15
						c-0.8,4.9-1.4,8.7-1.8,10.7c-5.7,0.5-13,1.8-21.1,4.5c-6.6,2.2-12.2,5-16.5,7.5c-4.5-0.4-9-0.8-13.5-1.2
						C567.1,400.6,565.5,405.6,567.3,411.3z"/>
					<path class="st25" d="M619.2,330.4c-7.4,2.4-12.3,6.3-13.3,9.2c-1.1,3-0.3,5.2-0.3,5.2c0.2,0.6,0.5,1.1,0.7,1.4
						c0.2-1.4,1-5.7,4.7-9.3c4.3-4.2,9.5-4.6,10.7-4.6C620.9,331.6,620.1,331,619.2,330.4z"/>
					<g>
						<path class="st28" d="M606.9,343.8"/>
					</g>
					<g>
						<path d="M629.3,313.7c-0.4,1.9-1.1,4.1-2,6.5c-1.8,4.5-4.2,7.8-6.2,10.2c-4.5,2.5-10,2.4-14.3-0.1c-4.6-2.7-8-8.2-6.8-11.8
							C601.6,313.4,613.1,311.3,629.3,313.7z"/>
						<g>
							<g>
								<g>
									<path class="st24" d="M616.9,335.2c0.8,0.1,1.6,0.1,2.4,0.2c1.8,0.1,3.5,0.3,5.3,0.5c-0.5-1.1-1.1-2.7-1.4-4.7
										c-0.4-3.1,0.1-5.7,0.6-7.2c-3.4,0.8-6.8,1.5-10.3,2.3c-2.7,0.6-5.3,1.1-7.9,1.7c0.1,2.2,0.2,4.5,0.3,6.8
										c0.2,2.8,0.5,5.5,0.8,8.1C610.5,339.7,610.8,336.4,616.9,335.2z"/>
									<path class="st29" d="M605.8,327.9c0.1,1.6,0.3,3.1,0.4,4.7c0,0.2,0,0.5,0,0.7c1.6,0,2.9-0.1,3.7-0.2c0.4,0,1-0.1,2-0.2
										c0.7-0.1,1.2-0.1,1.2-0.1c0.6,0,2.9-0.5,5.7-2.1c1.1-0.6,2.6-1.7,4.2-3.3c0-0.4,0.1-0.9,0.2-1.5c0.2-0.8,0.4-1.5,0.7-2.1
										c-1.4,0.6-2.7,1.2-4.1,1.7c-2.2,0.2-4.4,0.5-6.5,0.7c-0.3,0-0.6,0.1-0.9,0.2c-0.2,0-0.4,0.1-0.5,0.1
										c-1,0.2-2.6,0.5-2.6,0.5C607.9,327.4,606.7,327.7,605.8,327.9z"/>
								</g>
								<path class="st24" d="M595.3,311.9c0.4,2.7,0.8,5.4,1.1,7.7c0.2,1.2,0.8,3,1.9,4.9c0.5,0.8,1.4,1.9,3.3,4
									c2.3,2.6,3.2,3.3,4.4,3.5c0.4,0.1,0.5,0.1,2.2,0c2.7-0.1,3,0,4.3-0.1c2-0.2,3.4-0.9,4.4-1.4c1.8-0.9,2.9-1.9,4.7-3.7
									c1.8-1.7,2.7-3,3.2-4c0.4-0.8,1.3-2.1,1.1-5.4c-0.1-2.5-0.3-5.4-0.4-8.4c0.7-5.3-1.8-11.7-4.1-14.6c-2-2-8.3,0.2-13,0.9
									c-4.6,0.6-10.7,0.1-12.1,2.4c-0.5,1.7-1.1,3.9-1.3,6.5C594.7,307.3,595,309.9,595.3,311.9z"/>
								<g>
									<path class="st25" d="M610.9,311.9c0.5,0.3,1.5,0.8,2.8,0.8c2.2,0.1,3.8-1.1,4.2-1.5c-0.8-0.7-1.7-1.2-2.7-1.4
										c-0.4-0.1-0.9-0.2-1.5-0.1C612.1,310,611.1,311.5,610.9,311.9z"/>
									<path class="st30" d="M611.8,311.1c0.1,0.9,1.1,1.6,2.1,1.5c1-0.1,1.9-1,1.7-2c-0.1-0.3-0.2-0.6-0.5-0.8
										c-0.3-0.1-0.6-0.1-0.9-0.1c-0.4,0-0.7,0.1-1,0.3c-0.2,0.1-0.3,0.2-0.5,0.2c-0.3,0.2-0.6,0.5-0.9,0.7
										C611.8,311,611.8,311.1,611.8,311.1z"/>
									<path d="M614.5,311.2c0,0.6-0.4,1-1,1c-0.5,0-1-0.5-1-1c0-0.6,0.4-1,0.9-1C614,310.2,614.5,310.7,614.5,311.2z"/>
									<path class="st25" d="M614,310.7c0,0.2-0.2,0.4-0.4,0.4c-0.2,0-0.4-0.2-0.4-0.4c0-0.2,0.2-0.4,0.4-0.4
										C613.8,310.3,614,310.5,614,310.7z"/>
									<path class="st31" d="M609.3,306.4c2.3-0.7,5.3-1.3,8.7-1.2c0.6,0,1.7,0.4,2.1,1.3c0.2,0.6,0,1.2-0.2,1.5
										c-0.4-0.2-1.1-0.5-1.9-0.7c-1.1-0.3-2.2-0.4-4.7-0.1c-1.1,0.1-2.5,0.3-4.1,0.7c0-0.1-0.1-0.3-0.1-0.5
										C609.2,307.1,609.3,306.7,609.3,306.4z"/>
									<path class="st31" d="M610.9,311.9c0.3-0.4,1.1-1.4,2.6-1.8c2.3-0.6,4.2,1,4.4,1.1c-1.5-1.8-3.8-2.3-5.3-1.5
										C611.5,310.4,611.1,311.5,610.9,311.9z"/>
								</g>
								<g>
									<path class="st25" d="M603.8,312.4c-0.4,0.3-2.5,1.8-4.9,1.1c-0.7-0.2-1.3-0.5-1.7-0.9c0.5-0.8,1.2-1.3,2-1.7
										c0.8-0.3,1.6-0.4,2.4-0.2c0.3,0.1,0.5,0.1,0.5,0.2C603,311.3,603.5,312,603.8,312.4z"/>
									<path class="st30" d="M602,311.9c0.1,1-0.8,1.8-1.8,1.8c-0.9,0-1.9-0.8-1.9-1.8c0-0.3,0.1-0.6,0.3-0.8
										c0.8-0.3,1.6-0.4,2.4-0.2c0.2,0,0.4,0.1,0.5,0.2C601.8,311.3,601.9,311.6,602,311.9z"/>
									<path d="M599,312.4c0.1,0.6,0.6,1,1.1,0.9c0.5-0.1,0.9-0.6,0.8-1.2c-0.1-0.6-0.6-1-1.1-0.9
										C599.2,311.3,598.9,311.8,599,312.4z"/>
									<path class="st25" d="M599.8,312c0,0.2,0.2,0.4,0.4,0.3c0.2,0,0.3-0.2,0.3-0.4c0-0.2-0.2-0.4-0.4-0.3
										C599.9,311.6,599.8,311.8,599.8,312z"/>
									<path class="st31" d="M603.6,306.7c-1.9-0.4-4.2-0.6-6.4-0.3c-0.4,0.1-1,0.5-1.2,1.2c-0.1,0.5,0,1,0.1,1.2
										c0.2-0.2,0.6-0.5,1.1-0.7c0.7-0.3,1.4-0.4,3.1-0.3c0.9,0,2,0.2,3.3,0.4c0-0.1,0-0.3,0.1-0.5
										C603.8,307.3,603.7,306.9,603.6,306.7z"/>
									<path class="st31" d="M603.8,312.4c-0.2-0.2-1.7-1.7-3.8-1.3c-1.6,0.2-2.6,1.4-2.8,1.6c0.1-0.3,0.7-1.6,1.9-2.1
										C600.6,310,602.6,310.6,603.8,312.4z"/>
								</g>
								<path d="M594.5,292.6c1.6-1.6,6.1-5.5,13-6.7c2.3-0.4,10.8-1.9,17.2,3.7c7.8,6.8,5.9,17.7,5.7,18.3c-0.3,3-1.1,7.2-3.4,11.8
									c-1.1,2.1-2.3,3.9-3.5,5.3c0.3-0.6,0.6-1.4,0.9-2.5c0.3-1.2,0.2-2,0.2-3.3c0-1,0-2.6,0-4.9c-0.3-0.1-1.4,0.2-1.4-0.2
									c0.1-3.3-0.4-5.4-1.1-6.8c-0.7-1.7-1.6-2.5-2.3-4.5c-0.7-1.9-0.7-3.6-0.7-4.7c-2.6-1-7.4-2.5-13.4-1.8
									c-3.7,0.4-6.7,1.5-8.7,2.4c0.2,2.5-0.2,4.4-0.6,5.6c-0.6,1.9-1.4,3.2-1.4,5.5c0,1.2,0.1,2.2,0.3,2.8
									c-0.5-1.6-0.9-3.3-1.2-5.2C593.2,301.4,593.7,296.3,594.5,292.6z"/>
								<g>
									<g>
										<path class="st29" d="M605,320c0,0.1,0.3,0.3,1,0.6c0.6,0.4,1.3,0.3,1.8-0.1c0.6-0.4,0.9-0.6,0.9-0.7c0-0.1-0.5,0-1.5,0.4
											c-0.2,0-0.4,0.1-0.6,0C605.5,320,605,319.9,605,320z"/>
									</g>
								</g>
								<g>
									<path class="st29" d="M607.9,326.4c3.1-0.2,5.7-1.6,5.7-2c-0.1-0.3-1.7,0.3-5.6,0.5c-3.6,0.3-5.2,0.1-5.2,0.3
										C602.7,325.6,605.2,326.5,607.9,326.4z"/>
								</g>
								<g>
									<path class="st29" d="M606,327.8c0,0.2,0.9,0.7,1.9,0.6c1,0,2-0.5,1.9-0.8c-0.1-0.2-1.3-0.2-1.9-0.2
										C607.2,327.5,606,327.5,606,327.8z"/>
								</g>
							</g>
							<g>
								<polygon class="st31" points="606.1,322.5 606.3,323.7 600.5,324.4 								"/>
								<polygon class="st31" points="608.1,322.4 608.2,323.5 615.4,323.1 								"/>
							</g>
							<g>
								<path d="M594,297.6c11.5-0.7,23.1-1.4,35-2.1c-0.3-4.1-0.6-8.1-0.9-12.1c-11.5,0.7-22.9,1.5-34,2.2
									C594.1,289.6,594,293.6,594,297.6z"/>
								<g>
									<path class="st26" d="M649.2,292.8l-1.2-3.6c0,0-0.2,0.1-0.6,0.2l0,0c-0.4,0.1-1.1,0.3-2,0.5l0,0c-1.7,0.4-4.3,1-7.6,1.7
										l0,0c-6.5,1.3-15.7,2.7-27,3.5l0,0c-10.7,0.8-19.1,0.7-32.5-0.4l0,0l-0.4,3.1c13.5,1.2,22.2,1.4,33,0.7l0,0
										C634.5,297.1,649,292.9,649.2,292.8L649.2,292.8z"/>
								</g>
							</g>
							<g>
								<path class="st24" d="M624.2,309.8c0-1,1-1.8,2-1.7c2.6,0.4,1.4,5.8,0.6,8c-0.3,0.9-0.6,3.5-2.6,3.2L624.2,309.8z"/>
							</g>
						</g>
					</g>
				</g>
				<path class="st25" d="M624.4,332.4c-5.5,0.8-9.2,2.8-11.3,4.1c-3,1.9-4.2,3.6-4.6,4.3c-1.4,2.1-1.9,4.1-2.1,5.4
					c2-1.7,4.6-3.6,8-5.4c4.1-2.1,7.8-3.2,10.7-3.8C624.8,335.4,624.6,333.9,624.4,332.4z"/>
			</g>
		</g>
	</g>
</g>
</svg>
