<?xml version="1.0" encoding="utf-8"?>
<!-- Generator: Adobe Illustrator 26.0.1, SVG Export Plug-In . SVG Version: 6.00 Build 0)  -->
<svg version="1.1" id="Layer_1" xmlns="http://www.w3.org/2000/svg" xmlns:xlink="http://www.w3.org/1999/xlink" x="0px" y="0px"
	 viewBox="0 0 636 662" style="enable-background:new 0 0 636 662;" xml:space="preserve">
<style type="text/css">
	.st0{fill:#FFE6C7;}
	.st1{fill:#E5C49D;}
	.st2{fill:#D8B182;}
	.st3{fill:#A3A3A3;}
	.st4{fill:#FFFFFF;}
	.st5{fill:#5F7BB7;}
	.st6{clip-path:url(#SVGID_00000020362016780120547560000000638017488871349403_);}
	.st7{fill:#E09A61;}
	.st8{fill:#C47947;}
	.st9{fill:#4D4D4D;}
	.st10{fill:#8A5D3B;}
	.st11{fill:#3B2314;}
	.st12{fill:#DC2428;}
	.st13{fill:#BD1F22;}
	.st14{fill:#E2DCDC;}
	.st15{fill:#474747;}
	.st16{fill:#999999;}
	.st17{fill:none;}
	.st18{fill:#38393A;}
	.st19{fill:#262728;}
	.st20{fill:#828282;}
	.st21{fill:#EF6A0F;}
	.st22{opacity:0.23;fill:#262728;}
	.st23{fill:#4F5051;}
	.st24{fill:#393A3B;}
	.st25{fill:#65657C;}
	.st26{fill:#272829;}
	.st27{fill:#4D4D62;}
	.st28{fill:#19191A;}
	.st29{fill:#242463;}
	.st30{fill:#37374A;}
	.st31{fill:#F4EAC1;}
	.st32{fill:#1C1C65;}
	.st33{fill:#EBDA9B;}
	.st34{fill:#CFBCA9;}
	.st35{fill:#BFA892;}
	.st36{fill:#35357D;}
	.st37{fill:#C7B29E;}
	.st38{fill:#2F3031;}
	.st39{fill:#FAD4AF;}
	.st40{fill:#EFB78E;}
	.st41{opacity:0.35;fill:#7F7F7D;}
	.st42{opacity:0.25;fill:url(#SVGID_00000080900259983429990300000012425725947507334280_);}
</style>
<g>
	<g>
		<path class="st0" d="M595.4,403.3c-1.6,10.6-6.7,27.3-19,41.9c-2.1,2.5-4.4,4.9-6.7,7.2c-8.7,8.5-19,15.4-29.8,20.4
			c-0.1,0.2-0.2,0.4-0.3,0.7c-2.7,5.7-5.7,11.2-8.8,16.7c-4.9,8.4-10.2,16.4-16,24.1c-45,59.7-116.3,95.7-192.5,94.8
			c-72.2-0.9-139.3-34.8-183.3-90.2c-11-13.8-20.5-29-28.4-45.4c-0.1-0.2-0.2-0.4-0.3-0.7c-0.3-0.1-0.6-0.2-0.9-0.3
			c-1.9-0.7-4.1-1.5-6.6-2.6c-4.8-2.1-10.3-5.1-16.1-9.2c-7.2-5.1-13.5-11.3-18.8-19c-32.4-40.8-33.9-75.6-33.4-89.7
			c2.1-58.9,41.9-117.5,85-129.6c2.8-0.8,11.5-3,44.1-11.8c25.7-6.9,38.7-10.5,45.2-19.9c7.1-10.3,4.3-21.1,4-32.8
			c-1-40.9,30.9-81.3,63.3-103.4c1.9-1.3,41.4-27.1,81.1-14.4c39.8,12.7,35.2,49.9,83,76.9c8.9,5,16.6,8,23.5,9.7
			c21.8,5.6,30.4,2.5,43.4,7c23.2,8,33.9,33.9,34.8,36.3c13.9,34.9-21.9,52.6-20.7,94.2C523.1,326.1,603.5,348,595.4,403.3z"/>
		<g>
			<path class="st1" d="M569.6,452.5c-8.7,8.5-19,15.4-29.8,20.4c-0.1,0.2-0.2,0.4-0.3,0.7c-2.7,5.7-5.7,11.2-8.8,16.7
				c-4.9,8.4-10.2,16.4-16,24.1c-17.4,2.9-35.5,3.1-53.2,3.2c-107.5,0.5-215,0.9-322.6,1.4c-11-13.8-20.5-29-28.4-45.4
				c-0.1-0.2-0.2-0.4-0.3-0.7c-0.3-0.1-0.6-0.2-0.9-0.3c-1.9-0.7-4.1-1.5-6.6-2.6c1.6-3.7,4.2-6.9,7.5-9.1c7-4.7,17-4.7,24,0.1
				c-1.2-6.5,3.5-13.6,10-15c6.5-1.4,13.7,3.2,15.2,9.7c4.9-11.7,17.7-19.5,30.3-18.5c12.6,1,24,10.8,26.9,23.1
				c-1.9-14,10.1-28.1,24.2-29c14.1-0.9,27.6,11.1,28.8,25.2c4.1-10.4,13.7-18.4,24.6-20.5c10.9-2.1,22.9,1.7,30.5,9.8
				c2.6-11.8,12.8-21.5,24.6-23.7s24.8,3.3,31.5,13.3c4.3-12.8,17.7-21.9,31.2-21.3c13.5,0.6,26,10.9,29.1,24.1
				c7.6-9.6,20.6-14.6,32.6-12.6s22.7,10.9,26.8,22.4c5.6-7.9,15.3-12.7,25-12.3c9.7,0.4,19,5.9,24,14.1
				C555.8,446.2,564,447.8,569.6,452.5z"/>
		</g>
		<g>
			<path class="st2" d="M539.5,473.5c-2.7,5.7-5.7,11.2-8.8,16.7c-42.8,73.9-122.5,119.9-208.5,118.9
				c-90.2-1.1-172.5-53.8-211.6-135.5H539.5z"/>
		</g>
		<g>
			<g>
				<path class="st3" d="M119.9,464.8c0.2,0.3,0.3,0.6,0.5,0.9c-0.1,0-0.2,0-0.3,0L119.9,464.8z"/>
			</g>
			<g>
				<g>
					<path class="st4" d="M191.5,367.6c0.7-7.8-9.3-11.6-15.8-22.1c-3.2-5.3-6.5-13.6-5.6-26.6c-8.5-12.4-7.8-30.4,1.7-42.1
						c9.5-11.7,27-16,40.9-10.2c-1.3-19.3-1.1-42,14.3-53.8c5.4-4.1,12.2-6.3,17.8-10.2c9.6-6.7,15.1-17.7,23.5-25.9
						c10.6-10.2,25.9-15.4,40.5-13.6s28.2,10.5,36,23c31.4-6.8,44.4-1.6,50.2,5.4c4.9,5.9,2.6,10.8,8.3,16.9
						c11.1,11.9,26.9,1.3,41.9,10.6c15.2,9.4,20.9,33.6,17.7,51c-3.3,17.6-14.3,20.4-12.6,33.8c1.8,13.7,13.8,14.1,19,32.2
						c0.7,2.4,5.9,21.5-3.7,32c-5.5,6.1-10.5,3.3-17.3,9.6c-8.9,8.4-5.4,18.1-10.9,27.1c-8.5,13.9-31.3,13.8-45.3,14.8
						c-26.5,1.9-51.5-12.3-78-15c-13.4-1.4-26.9,0.3-40.4-0.1c-10.6-0.3-32.3-5.8-75.1-16.4c-3.4-0.8-12-3.1-13-8.1
						C184.7,375.7,190.9,373.5,191.5,367.6z"/>
				</g>
				<g>
					<rect x="201" y="371.2" class="st5" width="243" height="73.8"/>
					<path class="st5" d="M201,298.4v73.8h40.5v-73.8H201z M206.5,302.4H236v65.7h-29.6V302.4z"/>
					<path class="st5" d="M241.5,298.4v73.8H282v-73.8H241.5z M246.9,302.4h29.6v65.7h-29.6V302.4z"/>
					<path class="st5" d="M321.9,341.8c-0.2,0-0.4,0-0.6,0c-0.2,0-0.4,0-0.6,0c-1.4-0.1-2.6-0.3-3.6-0.5v11.6c0.3,0.1,0.7,0.2,1,0.3
						c0.3,0.1,0.7,0.2,1,0.2c0.2,0.1,0.5,0.1,0.7,0.1c0.2,0,0.4,0.1,0.6,0.1c0.4,0.1,0.9,0.1,1.4,0.1c0.2,0,0.5,0,0.7,0v-11.9
						C322.3,341.8,322.1,341.8,321.9,341.8z M317,357.7v10.4h-12.3c0,0,0,0.1,0,0.1c0.1,0.3,0.2,0.6,0.2,0.9
						c0.1,0.3,0.2,0.6,0.2,0.9c0.1,0.3,0.1,0.6,0.2,0.9c0,0.1,0,0.1,0,0.2c0.1,0.3,0.1,0.6,0.2,1h9.8l0.2-1h4.2
						c0.1,0.3,0.1,0.6,0.2,1h2c0.1-0.3,0.2-0.7,0.3-1h0.1v-13.5L317,357.7z M321.9,341.8c-0.2,0-0.4,0-0.6,0c-0.2,0-0.4,0-0.6,0
						c-1.4-0.1-2.6-0.3-3.6-0.5v27h-12.3c0,0,0,0.1,0,0.1c0.1,0.3,0.2,0.6,0.2,0.9c0.1,0.3,0.2,0.6,0.2,0.9c0.1,0.3,0.1,0.6,0.2,0.9
						c0,0.1,0,0.1,0,0.2c0.1,0.3,0.1,0.6,0.2,1h9.8l0.2-1h4.2c0.1,0.3,0.1,0.6,0.2,1h2c0.1-0.3,0.2-0.7,0.3-1h0.1v-29.4
						C322.3,341.8,322.1,341.8,321.9,341.8z M282,298.4v73.8h40.5v-73.8H282z M317,368.2h-29.6v-65.7H317V368.2z"/>
					<path class="st5" d="M327.7,306.8L327.7,306.8c-0.1-0.1-0.1-0.2-0.2-0.3c-0.1-0.1-0.1-0.2-0.1-0.3c0-0.1,0-0.1-0.1-0.2
						c0-0.1,0-0.1-0.1-0.2c0,0.1,0,0.3-0.1,0.4c0,0.1-0.1,0.3-0.2,0.4c0,0.1-0.1,0.1-0.2,0.2c0,0.1-0.1,0.1-0.1,0.1
						c-0.3,0.3-0.7,0.5-1.2,0.5c-0.9-0.1-1.7-0.9-1.9-1.8c-0.2,0.2-0.4,0.4-0.7,0.6c-0.2,0.1-0.3,0.3-0.5,0.4v51l5.4,0V307
						C327.9,306.9,327.8,306.8,327.7,306.8z M327.7,306.8L327.7,306.8c-0.1-0.1-0.1-0.2-0.2-0.3c-0.1-0.1-0.1-0.2-0.1-0.3
						c0-0.1,0-0.1-0.1-0.2c0-0.1,0-0.1-0.1-0.2c0,0.1,0,0.3-0.1,0.4c0,0.1-0.1,0.3-0.2,0.4c0,0.1-0.1,0.1-0.2,0.2
						c0,0.1-0.1,0.1-0.1,0.1c-0.3,0.3-0.7,0.5-1.2,0.5c-0.9-0.1-1.7-0.9-1.9-1.8c-0.2,0.2-0.4,0.4-0.7,0.6c-0.2,0.1-0.3,0.3-0.5,0.4
						v51l5.4,0V307C327.9,306.9,327.8,306.8,327.7,306.8z M322.5,298.4v73.8H363v-73.8H322.5z M327.9,302.4h29.6v65.7h-29.6V302.4z"
						/>
					<path class="st5" d="M363,298.4v73.8h40.5v-73.8H363z M368.4,302.4H398v65.7h-29.6V302.4z"/>
					<path class="st5" d="M403.5,298.4v73.8H444v-73.8H403.5z M408.9,302.4h29.6v65.7h-29.6V302.4z"/>
				</g>
				<g>
					<g>
						<defs>
							<rect id="SVGID_1_" x="267.2" y="306.1" width="104.1" height="117.8"/>
						</defs>
						<clipPath id="SVGID_00000085962179304482730880000011057322247933504427_">
							<use xlink:href="#SVGID_1_"  style="overflow:visible;"/>
						</clipPath>
						<g style="clip-path:url(#SVGID_00000085962179304482730880000011057322247933504427_);">
							<g>
								<g>
									<path class="st7" d="M278,447.8c0,1.1,0,2.2,0.1,3.3C278.1,450,278,448.8,278,447.8z M279.9,457.2c0,0-0.1-0.1-0.2-0.2
										c0.1,0.1,0.1,0.2,0.2,0.3C280,457.3,279.9,457.2,279.9,457.2z M287.1,455.8c0.2-1.7,0.3-3.8,0.5-5.7
										C287.3,453.5,287.2,455.2,287.1,455.8z M290.9,454.3c0,0,0.1,0,0.1-0.1C291,454.2,291,454.3,290.9,454.3z M290.6,454.3
										c0.1,0,0.1,0,0.2,0C290.8,454.3,290.7,454.3,290.6,454.3z M278,447c0,0.2,0,0.5,0,0.7C278,447.5,278,447.3,278,447L278,447
										z"/>
									<path class="st7" d="M340,491.8c2,5.8,2.5,11,1.7,15.8c-1.6,10.1-7.7,17.5-10.3,27.3c0,3.3,0.1,6,0.2,7.8
										c0.4,6.6,1.3,10.6-0.6,11.9c-0.6,0.4-1.4,0.5-2,0.5c-1.9,0.1-3.6-0.7-4.4-1.5c-2.7-2.2-2.1-6.5-1.8-10.6
										c0.2-2.5,0.3-4.4,0.6-5.6c-1.3-1.3-0.2-2.5,0.4-3.1c4.1-21.7-1-22.4,0.3-32.4c0.6-4.9,3.5-8.1,3.5-13.1
										c-0.3-3.6-4.3-10.5-2.3-17.4c-2.9-7.9-0.9-16.2-2.2-25.7c-0.4-3.1-1.2-6.8-1.9-9.8c-0.7,2.9-1.4,6.7-1.9,9.8
										c-1.3,9.5,0.7,17.8-2.2,25.7c2.1,6.9-2,13.8-2.3,17.4c0,5,2.9,8.2,3.5,13.1c1.2,10-3.8,10.7,0.3,32.4
										c0.6,0.6,1.7,1.9,0.4,3.1c0.4,1.6,0.5,3.3,0.6,5.5c0.2,2.9,0.4,5.5,0.1,7.4c-0.5,3.5-4.4,6.8-6.6,6.2
										c-2.8-0.8-2.9-7.7-2.9-8.3c0-2.5,0.5-3.3,0.8-6.8c0.2-2.7,0.1-5-0.1-6.5c-2.6-9.8-8.7-17.3-10.3-27.3
										c-0.8-4.8-0.3-10,1.7-15.8c6.7-20.2-9.5-31.8-3.7-56.6l22.6,0.6l22.6-0.6C349.5,460,333.3,471.7,340,491.8z"/>
									<g>
										<path class="st8" d="M306.2,355.5c2.4-2,9.6-1.3,12.3,0.5L306.2,355.5z"/>
										<path class="st8" d="M336.1,355.5c-2.4-2-9.6-1.3-12.3,0.5L336.1,355.5z"/>
										<path class="st8" d="M362.7,456.9c0.9-2.4,1.1-5.8,0.4-8.5c0.1,1.5,0.2,3.3-0.1,5.3c-0.2,1.3-0.4,2.5-0.7,3.6L362.7,456.9
											z"/>
										<path class="st8" d="M359.6,459.6c1.8-3,2-9.1,0.5-12.3c0.3,1.6,0.7,3.8,0.5,6.4C360.5,456.1,360,458.1,359.6,459.6z"/>
										<path class="st8" d="M357,460.5c1.7-2.9,1.6-9.1,0.7-12.2c0.3,2.2,0.4,4.9,0.1,8C357.6,457.8,357.3,459.2,357,460.5z"/>
										<path class="st8" d="M279.6,456.9c-0.9-2.4-1.1-5.8-0.4-8.5c-0.1,1.5-0.2,3.3,0.1,5.3c0.2,1.3,0.4,2.5,0.7,3.6
											L279.6,456.9z"/>
										<path class="st8" d="M282.7,459.6c-1.8-3-2-9.1-0.5-12.3c-0.3,1.6-0.6,3.8-0.5,6.4C281.8,456.1,282.3,458.1,282.7,459.6z"
											/>
										<path class="st8" d="M285.3,460.5c-1.7-2.9-1.6-9.1-0.7-12.2c-0.3,2.2-0.4,4.9-0.1,8C284.7,457.8,285,459.2,285.3,460.5z"
											/>
									</g>
									<path class="st9" d="M344,436.4c-1-6.5-2.3-15.6-5.4-22.3c-6.7,0.8-28.1,0.8-34.8,0c-3.1,6.7-4.4,15.8-5.4,22.3
										c7.2,0.7,16.1,0.5,22.8,0.5C327.9,436.9,336.8,437.1,344,436.4z"/>
									<g>
										<g>
											<polygon class="st7" points="328.5,353.7 314.3,353.7 314.4,352.5 314.7,350 314.7,349.9 315.3,343.9 315.7,339.4 
												327.1,339.4 327.5,343.8 328.1,349.7 328.1,350 328.4,352.6 											"/>
											<path class="st8" d="M327.5,343.8c-1.2,1-2.4,1.6-3.3,2c-0.3,0.1-0.5,0.2-0.8,0.1c-0.7,0-1.4,0-2.1,0c-0.7,0-1.4,0-2.1,0
												c-0.3,0-0.6,0-0.8-0.1c-0.9-0.4-2-1-3.1-1.8l0.5-4.6h11.3L327.5,343.8z"/>
										</g>
										<g>
											<path class="st7" d="M331.4,328.3c3.3-1.5,2.1,3.5,1.4,5.3c-0.2,0.6-0.5,2.4-1.8,2.1L331.4,328.3z"/>
											<path class="st7" d="M311.2,328.3c-3.3-1.5-2.1,3.5-1.4,5.3c0.2,0.6,0.5,2.4,1.8,2.1L311.2,328.3z"/>
										</g>
										<path class="st7" d="M331.5,329.1c-0.1,2-0.2,4-0.3,5.8c-0.1,0.9-0.3,2.2-1,3.7c-0.2,0.5-0.9,1.8-2.1,3.1
											c-1.4,1.5-3,2.4-4.2,2.9c-0.3,0.1-0.5,0.2-0.8,0.2c-0.6,0-1.3,0-1.9,0c-0.6,0-1.3,0-1.9,0c-0.3,0-0.5,0-0.8-0.2
											c-1.1-0.5-2.7-1.4-4.2-2.9c-1.2-1.3-1.9-2.6-2.1-3.1c-0.7-1.5-0.9-2.8-1-3.7c-0.1-1.7-0.1-3.8-0.3-5.8
											c-0.8-3.6,0.4-8.2,1.7-10.4c1.2-1.5,5.4-0.6,8.5-0.6c3.2,0,7.4-1,8.5,0.6C331.1,320.9,332.3,325.5,331.5,329.1z"/>
										<g>
											<path class="st4" d="M318.7,330.1c-0.4,0.2-1.2,0.5-2.3,0.5c-1.4-0.1-2.3-0.8-2.7-1c0.5-0.4,1-0.8,1.6-0.9
												c0.6-0.1,1.2-0.1,1.8,0.1c0.1,0,0.3,0.1,0.4,0.2C318.2,329.3,318.5,329.9,318.7,330.1z"/>
											<path class="st10" d="M317.7,329.6c-0.1,0.6-0.8,1.1-1.4,1c-0.7-0.1-1.3-0.7-1.1-1.3c0-0.2,0.1-0.4,0.3-0.5
												c0.6-0.1,1.2-0.1,1.8,0.1c0.1,0,0.3,0.1,0.4,0.2C317.6,329.1,317.7,329.4,317.7,329.6z"/>
											<path d="M315.8,329.4c0,0.4,0.3,0.7,0.7,0.7c0.4,0,0.7-0.3,0.7-0.7c0-0.4-0.3-0.7-0.7-0.7
												C316.1,328.7,315.8,329,315.8,329.4z"/>
											<path class="st4" d="M315.5,329.3c0,0.1,0.1,0.3,0.3,0.3s0.3-0.1,0.3-0.3c0-0.1-0.1-0.3-0.3-0.3S315.5,329.2,315.5,329.3
												z"/>
											<path class="st11" d="M319.1,325.9c-1.6-0.4-3.6-0.6-5.6-0.4c-0.3,0-0.9,0.3-1.1,0.9c-0.1,0.4,0,0.7,0.1,0.9
												c0.2-0.1,0.6-0.3,1-0.5c0.6-0.2,1.2-0.3,2.8-0.2c0.7,0.1,1.7,0.2,2.8,0.4c0-0.1,0.1-0.2,0.1-0.4
												C319.2,326.4,319.2,326.1,319.1,325.9z"/>
											<path class="st11" d="M318.7,330.1c-0.2-0.2-1-1.1-2.5-1.2c-1.3-0.1-2.2,0.5-2.5,0.7c0.1-0.1,1-1.3,2.7-1.1
												C318,328.7,318.6,330,318.7,330.1z"/>
										</g>
										<g>
											<path class="st4" d="M323.9,330.1c0.4,0.2,1.2,0.5,2.3,0.5c1.4-0.1,2.3-0.8,2.7-1c-0.5-0.4-1-0.8-1.6-0.9
												c-0.6-0.1-1.2-0.1-1.8,0.1c-0.1,0-0.3,0.1-0.4,0.2C324.4,329.3,324.1,329.9,323.9,330.1z"/>
											<path class="st10" d="M324.9,329.6c0.1,0.6,0.8,1.1,1.4,1c0.7-0.1,1.3-0.7,1.1-1.3c0-0.2-0.1-0.4-0.3-0.5
												c-0.6-0.1-1.2-0.1-1.8,0.1c-0.1,0-0.3,0.1-0.4,0.2C325,329.1,324.9,329.4,324.9,329.6z"/>
											<path d="M326.8,329.4c0,0.4-0.3,0.7-0.7,0.7c-0.4,0-0.7-0.3-0.7-0.7c0-0.4,0.3-0.7,0.7-0.7
												C326.5,328.7,326.8,329,326.8,329.4z"/>
											<path class="st4" d="M327.1,329.3c0,0.1-0.1,0.3-0.3,0.3s-0.3-0.1-0.3-0.3c0-0.1,0.1-0.3,0.3-0.3
												S327.1,329.2,327.1,329.3z"/>
											<path class="st11" d="M323.5,325.9c1.6-0.4,3.6-0.6,5.6-0.4c0.3,0,0.9,0.3,1.1,0.9c0.1,0.4,0,0.7-0.1,0.9
												c-0.2-0.1-0.6-0.3-1-0.5c-0.6-0.2-1.2-0.3-2.8-0.2c-0.7,0.1-1.7,0.2-2.8,0.4c0-0.1-0.1-0.2-0.1-0.4
												C323.4,326.4,323.4,326.1,323.5,325.9z"/>
											<path class="st11" d="M323.9,330.1c0.2-0.2,1-1.1,2.5-1.2c1.3-0.1,2.2,0.5,2.5,0.7c-0.1-0.1-1-1.3-2.7-1.1
												C324.6,328.7,324,330,323.9,330.1z"/>
										</g>
										<path d="M332.2,315.6c-1.3-2.1-6.2-4.3-10.9-4.3c-4.7,0-9.6,2.3-10.9,4.3c-2.7,2.7-2.2,9.8-1.1,12.8c0,0,0.4-0.8,1.9-0.2
											c-0.4-1.9,0.2-7.7,2.1-9.9c2-0.6,4.5-0.2,8.1-0.1c3.5-0.2,6.1-0.5,8.1,0.1c1.9,2.2,2.5,8,2.1,9.9c1.5-0.6,1.9,0.2,1.9,0.2
											C334.4,325.4,334.9,318.3,332.2,315.6z"/>
										<g>
											<g>
												<path class="st8" d="M323.2,335.6l-0.9,0.5c-0.6,0.3-1.3,0.3-1.9,0l-0.9-0.5l1.6,0.2c0.2,0,0.4,0,0.6,0L323.2,335.6z"/>
											</g>
										</g>
										<g>
											<path class="st8" d="M323.9,339.5c-0.7,0.2-2.8,0.9-5,0c-0.4-0.2-1.3-0.6-1.3-0.8c0.1-0.3,1.4,0,3.7,0c2.5,0,3.9-0.2,4,0
												C325.3,339.1,324,339.5,323.9,339.5z"/>
										</g>
										<g>
											<path class="st8" d="M322.7,341.5c0,0.1-0.6,0.2-1.3,0.2c-0.7,0-1.3-0.1-1.3-0.2c0-0.1,0.6-0.2,1.3-0.2
												C322.1,341.4,322.7,341.4,322.7,341.5z"/>
										</g>
									</g>
								</g>
								<g>
									<polygon class="st11" points="321.7,337.3 321.7,338.1 326.6,338.1 									"/>
									<path class="st11" d="M320.9,337.3v0.8c-0.9,0-1.8,0-2.6,0c-0.7,0-1.5,0-2.2,0c0,0,2.4-0.4,2.4-0.4
										C318.4,337.7,320.8,337.3,320.9,337.3z"/>
								</g>
								<g>
									<g>
										<path d="M320.7,553.6c-0.4-1.5-0.5-2.8-0.5-3.6c0,0-0.1-4.4-0.5-6.8c0,0,0-0.1,0-0.1c-0.1,0-0.1,4-0.4,4.1
											c0,0-0.1-0.1-0.1-0.1c-0.7-1.3-7.6-1.1-7.9-0.5c0,0-0.1,0.2-0.2,0.2c-0.2,0-0.3-3.9-0.5-3.9c0,0-0.1,0.1-0.1,0.1
											c-0.2,0.5-0.5,3-1.5,6.3c-0.2,0.6-1,1.5-1.2,2.5c-0.2,0.7-0.4,1.6-0.4,2.3c-0.1,2,1.1,3.9,1.7,4.6c1.8,2,5.9,2.1,9.7-0.3
											c0.8-0.5,1.5-1.4,1.7-2.4c0,0,0,0,0,0C320.8,555,320.9,554.2,320.7,553.6z"/>
									</g>
									<path d="M341.7,414.8c-3.4-3.6-19.8,0-19.8,0h-1.1c0,0-16.4-3.6-19.8,0c-16.3,71,8.3,128.5,8.3,128.5h11.2l0.3-104.7h0.9
										l0.3,104.7h11.4C333.5,543.2,358.1,485.7,341.7,414.8z"/>
									<g>
										<polygon class="st12" points="341.7,414.8 301,414.8 304.5,401.7 338.3,401.7 										"/>
										<path class="st13" d="M306.1,497.4c-11.3-45.4-3.2-82.7-3.2-82.7H319C319,414.8,321.1,482.4,306.1,497.4z"/>
									</g>
									<g>
										<polygon points="334,318.3 308.6,318.3 310,309.2 332.6,309.2 										"/>
										<g>
											<path class="st12" d="M294.3,317.8l0.6-2.5c0,0,0.1,0,0.4,0.1l0,0c0.3,0.1,0.6,0.1,1.2,0.2l0,0c1,0.2,2.6,0.5,4.6,0.8
												l0,0c4,0.6,10,1.1,17.6,1.1l0,0c7.6,0,16.9-0.6,27.6-2.2l0,0l0.4,2.5c-10.8,1.7-20.2,2.3-28,2.3l0,0
												C303.2,320.1,294.4,317.8,294.3,317.8L294.3,317.8z"/>
										</g>
									</g>
									<g>
										<path class="st4" d="M295.9,402.4c-4.7,4.5-12.7,5.9-16.4,2.8c-2.4-2-2-5,0.6-22.2c2.6-17.2,4-25.6,8.2-27.3
											c1.4-0.5,3.1-0.4,5.1,0.5l5.8,25.2c0.4,4.3,0.7,8.5,1.1,12.8C299.9,396,299,399.5,295.9,402.4z"/>
										<path class="st4" d="M294.3,444.3c0,0-18.8,4.3-21.2-0.5c-1.2-2.4,6.1-8.7,6.1-8.7l10.8,0.6L294.3,444.3z"/>
										<g>
											<path class="st4" d="M320.4,349.5c-1.6-1.7-8.2-1.1-8.2-1.1l-1,2.5l10.2,0.5C321.4,351.4,320.8,350,320.4,349.5z"/>
											<path class="st4" d="M322,349.5c1.6-1.7,8.2-1.1,8.2-1.1l1.3,2.6l-10.5,0.4C320.9,351.4,321.5,350,322,349.5z"/>
										</g>
										<polygon class="st4" points="303.7,401.7 321.4,401.7 321.4,351.4 311.2,351 309.5,351.5 298.8,372.8 										"/>
										<path class="st4" d="M364.1,404c1.8-2.4,1-5.7,0.4-8.4c-6.7-29.4-7.2-38.9-12.5-39.7c-0.8-0.1-1.7,0-2.6,0.4l-5.8,25.2
											c-4.1,9.3-2.2,18.9,3.6,23C352.3,408.2,361.2,408.1,364.1,404z"/>
										<path class="st4" d="M348.5,444.3c0,0,18.8,4.3,21.2-0.5c1.2-2.4-6.1-8.7-6.1-8.7l-10.8,0.6L348.5,444.3z"/>
										<polygon class="st4" points="339.1,401.7 321.4,401.7 321.4,351.4 331.6,351 333.3,351.5 344,372.8 										"/>
										<rect x="320.6" y="352.1" class="st14" width="0.8" height="49.6"/>
									</g>
									<g>
										<polygon points="315.8,353.9 318.6,396.4 300.6,399.4 293.4,356.3 309.5,351.5 										"/>
										<polygon points="327,353.9 324.2,396.4 342.1,399.4 349.4,356.3 333.3,351.5 										"/>
									</g>
								</g>
							</g>
							<path class="st15" d="M307.6,553.4c0,0.5,0,2.8,1.5,4.4c0.8,0.9,1.8,1.2,2.2,1.3c1.4,0.4,2.5,0.3,3.5,0.1
								c1.1-0.2,2.5-0.4,3.8-1.6c0.7-0.6,1.1-1.3,1.3-1.6c0.4-0.7,0.7-1.3,0.9-1.7c0,0.9-0.1,1.7-0.1,2.6c-0.4,0.8-1,1.8-2.2,2.7
								c-2.4,1.9-6.4,2.5-9,0.5c-0.5-0.4-1.4-1.3-2-2.8c-0.1-0.6-0.3-1.3-0.2-2.3C307.4,554.4,307.5,553.8,307.6,553.4z"/>
							<g>
								<path d="M321.5,553.6c0.4-1.5,0.5-2.8,0.5-3.6c0,0,0.1-4.4,0.5-6.8c0,0,0-0.1,0-0.1c0.1,0,0.1,4,0.4,4.1
									c0,0,0.1-0.1,0.1-0.1c0.7-1.3,7.6-1.1,7.9-0.5c0,0,0.1,0.2,0.2,0.2c0.2,0,0.3-3.9,0.5-3.9c0,0,0.1,0.1,0.1,0.1
									c0.2,0.5,0.5,3,1.5,6.3c0.2,0.6,1,1.5,1.2,2.5c0.2,0.7,0.4,1.6,0.4,2.3c0.1,2-1.1,3.9-1.7,4.6c-1.8,2-5.9,2.1-9.7-0.3
									c-0.8-0.5-1.5-1.4-1.7-2.4c0,0,0,0,0,0C321.4,555,321.3,554.2,321.5,553.6z"/>
							</g>
							<path class="st15" d="M334.7,553.4c0,0.5,0,2.8-1.5,4.4c-0.8,0.9-1.8,1.2-2.2,1.3c-1.4,0.4-2.5,0.3-3.5,0.1
								c-1.1-0.2-2.5-0.4-3.8-1.6c-0.7-0.6-1.1-1.3-1.3-1.6c-0.4-0.7-0.7-1.3-0.9-1.7c0,0.9,0.1,1.7,0.1,2.6c0.4,0.8,1,1.8,2.2,2.7
								c2.4,1.9,6.4,2.5,9,0.5c0.5-0.4,1.4-1.3,2-2.8c0.1-0.6,0.3-1.3,0.2-2.3C334.9,554.4,334.8,553.8,334.7,553.4z"/>
						</g>
					</g>
				</g>
				<g>
					<path class="st16" d="M384.7,332.5L384.7,332.5l0.7-1.8L384.7,332.5z"/>
					<polygon class="st16" points="406.2,296 404.3,300.8 397.6,299.6 404.3,300.8 406.2,296 406.2,296 					"/>
					<path class="st17" d="M356.9,387c-0.2,0-0.3,0.1-0.5,0.1C356.6,387.1,356.8,387,356.9,387C356.9,387,356.9,387,356.9,387"/>
					<path class="st18" d="M285.1,507c-0.1,1.9-0.2,3.9-0.3,5.8c-0.2,3.2-0.5,6.3-0.8,9.5c-0.3,3.6-0.8,7.3-1.2,10.9
						c-0.5,4.1-3.4,7.3-7.1,8.4h0c-0.9,0.3-1.8,0.4-2.8,0.4h-35.4c-2.7,0-5.2-1.1-7.1-2.9c-0.6-0.6-1.1-1.3-1.6-2
						c-0.3-0.5-0.5-1-0.8-1.6c-0.2-0.6-0.4-1.1-0.5-1.7c-3.6-20.6-6.4-41.1-8.2-61.4c0-0.4-0.1-0.9-0.1-1.3
						c-0.8-8.7-1.4-17.4-1.8-26.1c-0.4-8.4-0.6-16.8-0.7-25.1c0-5.5,4.5-10,10-10h37.5c4.4,0,8.3,2.9,9.6,7.1c0,0.1,0,0.2,0.1,0.2h0
						v0c0.1,0.2,0.1,0.5,0.2,0.7c0.1,0.3,0.2,0.7,0.3,1v0h0c0.6,1.9,1.2,3.8,1.7,5.7l0,0c0.5,1.9,1,3.7,1.5,5.6c0,0,0,0.1,0,0.1
						c0.4,1.6,0.8,3.1,1.2,4.7c0.1,0.5,0.2,0.9,0.3,1.4c0,0,0,0,0,0c0.6,2.8,1.2,5.7,1.8,8.5c0.9,4.7,1.6,9.5,2.3,14.3v0
						c0.5,4.2,1,8.3,1.3,12.6c0,0.2,0,0.3,0,0.5C285.5,483.8,285.7,495.3,285.1,507z"/>
					<path class="st18" d="M424.3,419.9c0,8.3-0.3,16.7-0.7,25.1c-0.4,8.3-1,16.6-1.7,25l-0.2,2.4c-0.2,1.8-0.3,3.6-0.5,5.4
						c0,0.3-0.1,0.6-0.1,0.9c-0.3,3.1-0.6,6.3-1,9.4c-0.2,1.5-0.3,3-0.5,4.6c-0.1,1.1-0.3,2.2-0.4,3.4c-0.2,1.4-0.4,2.8-0.5,4.2
						c-0.5,4.1-1.1,8.1-1.7,12.2c-0.3,2.3-0.7,4.7-1.1,7c-0.4,2.4-0.8,4.8-1.2,7.2c0,0.1,0,0.3-0.1,0.4c-0.4,2.3-0.8,4.5-1.2,6.8v0
						c-0.1,0.3-0.1,0.5-0.2,0.8c0,0,0,0.1,0,0.1c-0.1,0.3-0.2,0.5-0.3,0.8c0,0,0,0,0,0c-0.1,0.2-0.2,0.4-0.3,0.6
						c0,0.1-0.1,0.2-0.1,0.3c-0.1,0.2-0.2,0.4-0.4,0.7c-0.1,0.2-0.3,0.5-0.5,0.7c-0.2,0.2-0.3,0.5-0.5,0.7c0,0,0,0,0,0
						c-0.2,0.2-0.3,0.4-0.5,0.6c-0.1,0.1-0.1,0.1-0.2,0.2c-0.1,0.2-0.3,0.3-0.5,0.4c-0.4,0.3-0.8,0.6-1.2,0.8
						c-0.3,0.2-0.7,0.4-1,0.6c-0.1,0.1-0.2,0.1-0.4,0.2c-0.5,0.2-1.1,0.4-1.7,0.5c-0.1,0-0.2,0.1-0.3,0.1c-0.2,0-0.3,0.1-0.5,0.1
						c-0.2,0-0.4,0.1-0.6,0.1c-0.2,0-0.5,0-0.7,0h-35.4c-2.5,0-4.8-0.9-6.6-2.5c-0.4-0.4-0.8-0.8-1.1-1.2c-1.2-1.4-2-3.2-2.2-5.2
						c-0.2-1.9-0.5-3.9-0.7-5.8c-0.2-1.7-0.4-3.4-0.5-5.1c-0.2-1.6-0.3-3.2-0.4-4.8c-0.1-1.6-0.2-3.2-0.4-4.8
						c-0.3-4.5-0.5-9-0.6-13.4c0-1.3,0-2.5,0-3.8c-0.1-7.8,0.2-15.6,0.8-23.2c0-0.4,0.1-0.8,0.1-1.2c0.2-2.1,0.4-4.1,0.6-6.2
						c0.2-1.8,0.4-3.6,0.6-5.5v0c0.6-4.9,1.4-9.8,2.3-14.6c0-0.1,0-0.3,0.1-0.4c0.3-1.5,0.6-3,0.9-4.5c0.4-2.1,0.9-4.3,1.4-6.4
						c0.7-3,1.5-5.9,2.3-8.9c0.6-2.2,1.3-4.5,2-6.7c0.1-0.2,0.2-0.5,0.2-0.8c0,0,0,0,0,0c0-0.1,0.1-0.3,0.1-0.4
						c0.3-1,0.8-1.9,1.4-2.8c1.8-2.6,4.9-4.3,8.2-4.3h37.5c3.9,0,7.3,2.2,8.9,5.4C423.9,416.7,424.3,418.3,424.3,419.9z"/>
					<path class="st16" d="M259.3,409.9h-6.2c0,0,0,0,0,0L259.3,409.9C259.3,409.9,259.3,409.9,259.3,409.9L259.3,409.9z"/>
					<path class="st19" d="M259.3,409.9h-6.2c1.4,19.1,0.7,38.8-1.9,59c-0.6,5-4.9,8.8-10,8.8h-21.4c1.8,18.6,4.4,37.3,7.7,56.1
						c0.8,4.8,5,8.3,9.9,8.3h11.5c-1.4-13.3-2.1-26.5-2.2-39.6c0-3.5,2.9-6.4,6.4-6.4h23.2c-4.4-21.9-9.7-51.6-9.2-65.4
						c0-0.4,0.1-0.8,0.1-1.1c0.3-1.6,1.3-3,2.6-3.9l4.7-6.8c-0.2-0.6-0.4-1.1-0.5-1.7C273.2,416.8,267.6,413.4,259.3,409.9
						L259.3,409.9z"/>
					<path class="st16" d="M383.5,409.9C383.5,409.9,383.5,409.9,383.5,409.9l9.7,0c0,0,0,0,0,0H383.5z"/>
					<path class="st20" d="M414.7,527.1c-0.4,2.3-0.8,4.5-1.2,6.8c-0.5,2.9-2.2,5.3-4.6,6.8c2.4-1.5,4.1-3.9,4.6-6.7
						C413.9,531.6,414.3,529.4,414.7,527.1L414.7,527.1L414.7,527.1z"/>
					<path class="st19" d="M393.2,409.9h-9.7c-5.8,2.4-10.2,4.8-12.7,6.2l11.6,9.4c2.2,1,3.7,3.2,3.7,5.8c-0.1,8-2,25.9-11,64.9
						h23.7c3.5,0,6.4,2.9,6.4,6.4c-0.1,13.1-0.8,26.3-2.2,39.6h0.6c1.9,0,3.8-0.5,5.3-1.5c2.4-1.5,4.1-3.9,4.6-6.8
						c0.4-2.3,0.8-4.5,1.2-6.8c0.2-1.2,0.4-2.3,0.6-3.5c2.5-15.3,4.5-30.6,6-45.8h-16.1c-5.1,0-9.3-3.8-10-8.8
						C392.5,448.8,391.8,429.1,393.2,409.9L393.2,409.9z"/>
					<path class="st21" d="M368.8,417.3c0,0,22.7-14.4,47.5-14.8c3.1-0.1,4.4-4,1.8-5.8c-2.5-1.7-6-3.4-10.9-4.2
						c-13.1-2.1-40.5,7.4-46.9,19.8C353.8,424.7,368.8,417.3,368.8,417.3L368.8,417.3z"/>
					<path class="st22" d="M415.7,398.5c-19,0-35.2,6.1-35.2,6.1s-3.1,0.8-5.8,0.8c-2.5,0-4.7-0.7-4.1-3.1c-2.3,1.5-4.4,3.1-6.2,4.7
						l-1.1,3l7.6,6.1c6.1-3.5,25.1-13.3,45.4-13.6c2.2,0,3.5-2.1,3.1-3.9C418.1,398.5,416.9,398.5,415.7,398.5L415.7,398.5z"/>
					<path class="st21" d="M274,417.3c0,0-22.7-14.4-47.5-14.8c-3.1-0.1-4.4-4-1.8-5.8c2.5-1.7,6-3.4,10.9-4.2
						c13.1-2.1,40.5,7.4,46.9,19.8C289.1,424.7,274,417.3,274,417.3L274,417.3z"/>
					<path class="st16" d="M223.4,398.7c-0.2,1.2,0.3,2.6,1.5,3.3C223.8,401.3,223.2,399.9,223.4,398.7L223.4,398.7z"/>
					<path class="st22" d="M225.8,398.5c-0.8,0-1.6,0-2.4,0c0,0,0,0.1,0,0.1c-0.2,1.2,0.3,2.6,1.5,3.3c0.5,0.3,1,0.5,1.7,0.5
						c24.8,0.4,47.5,14.8,47.5,14.8s0.5,0.2,1.2,0.6l5.6-8.2c-1.5-1.9-3.4-3.7-5.6-5.3c0.9,2.8-1,3.6-3.4,3.6
						c-2.9,0-6.5-1.1-6.5-1.1S246.8,398.5,225.8,398.5L225.8,398.5z"/>
					<path class="st23" d="M392,580.7h-22.6c-3.3,0-6-2.4-6.4-5.7c-3.4-26.3-1.7-51.2,5.7-74.4c0.9-2.7,3.3-4.5,6.1-4.5h24
						c3.5,0,6.4,2.9,6.4,6.4c-0.1,24-2.6,48.3-6.9,72.9C397.8,578.5,395.1,580.7,392,580.7L392,580.7z"/>
					<path class="st23" d="M259.9,580.7h22.6c3.3,0,6-2.4,6.4-5.7c3.4-26.3,1.7-51.2-5.7-74.4c-0.9-2.7-3.3-4.5-6.1-4.5h-24
						c-3.5,0-6.4,2.9-6.4,6.4c0.1,24,2.6,48.3,6.9,72.9C254.1,578.5,256.8,580.7,259.9,580.7L259.9,580.7z"/>
					<path class="st20" d="M361.5,542.1L361.5,542.1c-0.3,6.2-0.2,12.5,0.2,18.8C361.3,554.6,361.2,548.3,361.5,542.1L361.5,542.1z"
						/>
					<path class="st20" d="M398.3,575.5c0,0.1,0,0.2-0.1,0.3C398.3,575.6,398.3,575.6,398.3,575.5c0.4-2.4,0.8-4.9,1.2-7.3
						C399.2,570.6,398.8,573,398.3,575.5z M398.2,576.1C398.2,576.1,398.2,576.1,398.2,576.1C398.2,576.1,398.2,576.1,398.2,576.1
						C398.2,576.2,398.2,576.2,398.2,576.1z"/>
					<path class="st24" d="M387.5,496.2h-12.3c-0.2,1-0.5,2.1-0.7,3.2c-1,4.3-2.1,8.7-3.2,13.5h2.2c2.9,0,5.1,2.7,4.5,5.6l-1.9,9.1
						h0l-2.3,11h0l0,0l0,0c0,0.2-0.1,0.3-0.1,0.5c-0.3,1-1,1.8-1.8,2.4c0,0,0,0,0,0c0,0,0,0,0,0c-0.7,0.5-1.6,0.8-2.5,0.8h-7.6
						c-0.3,6.2-0.2,12.5,0.2,18.8c0.3,4.7,0.7,9.4,1.3,14.1c0,0.4,0.1,0.7,0.2,1.1c0.4,1.4,1.3,2.6,2.5,3.4c1.1,0.7,2.3,1.2,3.7,1.2
						H392c1.2,0,2.3-0.3,3.3-0.9c1.6-0.9,2.7-2.5,3-4.4c0.5-3,1-6.1,1.5-9.1c0.1-0.6,0.2-1.1,0.3-1.7h-8.8c-3.3,0-6-2.4-6.4-5.7
						C382.1,537,382.8,516,387.5,496.2L387.5,496.2z"/>
					<path class="st24" d="M276.3,496.2h-10.1c1.2,6.2,2.1,12.5,2.6,18.9c0.8-1.3,2.2-2.2,3.9-2.2h7.1
						C278.8,508.4,277.6,502.6,276.3,496.2L276.3,496.2z"/>
					<path class="st20" d="M286.5,579.4C286.5,579.4,286.5,579.4,286.5,579.4C286.5,579.4,286.5,579.4,286.5,579.4
						C286.6,579.4,286.6,579.3,286.5,579.4C286.6,579.3,286.6,579.4,286.5,579.4z M289,575.1c0,0.2-0.1,0.3-0.1,0.5
						C288.9,575.4,288.9,575.2,289,575.1c0.1-0.8,0.2-1.6,0.3-2.4C289.2,573.5,289.1,574.3,289,575.1z M288.8,576
						c0-0.1,0.1-0.2,0.1-0.3c0,0,0-0.1,0-0.1C288.9,575.7,288.8,575.8,288.8,576C288.8,575.9,288.8,576,288.8,576z"/>
					<path class="st24" d="M269.1,522.3c0.3,10.2-0.2,20.7-1.6,31.4c-0.4,3.2-3.1,5.7-6.4,5.7H251c0.8,5.4,1.6,10.7,2.6,16.1
						c0.2,1,0.6,1.9,1.1,2.6c0.3,0.5,0.7,0.9,1.2,1.2c1.1,0.9,2.5,1.4,4.1,1.4h22.7c0.7,0,1.3-0.1,1.9-0.3c2.3-0.7,4.1-2.8,4.4-5.4
						c1.4-11.2,2-22.2,1.5-32.9h-12.9c-1.2,0-2.3-0.4-3.1-1.2c0,0,0,0,0,0c0,0,0,0,0,0c-0.7-0.6-1.1-1.4-1.4-2.3l-2-8.3L269.1,522.3
						L269.1,522.3z"/>
					<path class="st25" d="M369.1,542.1h-91.5c-2.1,0-4-1.4-4.5-3.5l-4.9-20.1c-0.7-2.9,1.5-5.7,4.5-5.7h100.7
						c2.9,0,5.1,2.7,4.5,5.5l-4.3,20.1C373.2,540.6,371.3,542.1,369.1,542.1L369.1,542.1z"/>
					<path class="st26" d="M373.4,512.8h-2.2c0,0,0,0,0,0L373.4,512.8c2.9,0,5.1,2.7,4.5,5.6l-1.9,9.1h0l1.9-9.1
						C378.5,515.5,376.3,512.8,373.4,512.8L373.4,512.8z"/>
					<path class="st24" d="M268.7,515.1c-0.1,0.2-0.2,0.3-0.3,0.5C268.5,515.4,268.6,515.2,268.7,515.1L268.7,515.1L268.7,515.1z"/>
					<path class="st17" d="M371.7,541.4C371.7,541.4,371.7,541.4,371.7,541.4C371.6,541.4,371.6,541.4,371.7,541.4
						c-0.1,0.1-0.2,0.1-0.3,0.2c-0.1,0-0.1,0.1-0.2,0.1c-0.1,0.1-0.3,0.1-0.4,0.2 M371.7,541.3c0.1-0.1,0.2-0.2,0.3-0.2l0.5-0.5
						c0,0,0,0,0,0l0.1,0l0.2-0.2l0-0.1l0,0l0.2-0.2l0.1-0.1c0,0,0,0,0.1-0.1l0,0l0-0.1v0c0.1-0.1,0.1-0.2,0.2-0.3
						c0.1-0.1,0.1-0.2,0.1-0.3 M373.5,539L373.5,539c0,0.1-0.1,0.2-0.1,0.4c0,0.1-0.1,0.2-0.2,0.3v0l0,0.1l0,0c0,0,0,0,0,0
						c0,0,0,0,0,0L373,540l-0.2,0.2l0,0l0,0.1l-0.2,0.2l-0.1,0c0,0,0,0,0,0l-0.5,0.5c-0.1,0.1-0.2,0.2-0.3,0.2c0,0,0,0,0,0
						 M373.6,538.5L373.6,538.5L373.6,538.5L373.6,538.5L373.6,538.5L373.6,538.5 M373.6,538.5L373.6,538.5L373.6,538.5"/>
					<path class="st17" d="M275,541.4C275,541.4,275,541.4,275,541.4c-0.1,0-0.1-0.1-0.1-0.1c-0.1,0-0.1-0.1-0.2-0.1
						c-0.1-0.1-0.2-0.2-0.3-0.2c0,0,0,0,0,0 M274,540.5C274,540.4,274,540.4,274,540.5C274,540.4,274,540.4,274,540.5
						C274,540.5,274,540.5,274,540.5C274,540.5,274,540.5,274,540.5z M269.9,513.8C269.9,513.8,269.9,513.8,269.9,513.8L269.9,513.8
						c-0.1,0-0.1,0.1-0.1,0.1c0,0,0,0,0,0l0,0c0,0,0,0,0,0C269.8,513.9,269.8,513.9,269.9,513.8c0,0,0,0,0.1-0.1
						C270,513.7,269.9,513.7,269.9,513.8z M269.7,513.9L269.7,513.9C269.7,513.9,269.7,513.9,269.7,513.9
						C269.7,513.9,269.7,513.9,269.7,513.9C269.7,513.9,269.7,513.9,269.7,513.9z M271.7,512.9L271.7,512.9c0.1,0,0.1,0,0.2,0
						L271.7,512.9z M272.7,512.8c-0.1,0-0.2,0-0.3,0c-0.1,0-0.1,0-0.2,0c0,0,0,0-0.1,0c0.1,0,0.1,0,0.2,0
						C272.4,512.8,272.5,512.8,272.7,512.8l7.1,0v0H272.7z"/>
					<path class="st27" d="M373.4,512.8h-2.2c-0.8,3.1-1.5,6.2-2.4,9.5h-87c0,0,0,0,0,0h0c0,0-0.8-3.6-2.1-9.5h-5.8
						c-1.7,0-3.1,0.9-3.9,2.2c-0.1,0.2-0.2,0.3-0.3,0.5c-0.4,0.9-0.5,1.9-0.3,3l2.9,11.8l2,8.3c0.2,0.9,0.7,1.7,1.4,2.3
						c0,0-1.2,0-1.2,0c0,0,1.2,0,1.2,0c0.8,0.8,1.9,1.2,3.1,1.2h90.3c0.9,0,1.8-0.3,2.5-0.8c0,0,0,0,0,0c0,0,0,0,0,0
						c0.8-0.6,1.5-1.4,1.8-2.4c0.1-0.2,0.1-0.3,0.1-0.5l0,0l0,0h-77.9c-2.1,0-4-0.5-4.5-1.3l-4.9-7.5c-0.7-1.1,1.5-2.1,4.5-2.1h85.1
						l1.9-9.1C378.5,515.5,376.3,512.8,373.4,512.8L373.4,512.8z"/>
					<path class="st18" d="M358.8,406.6c-2.7-18.4-18.5-32.5-37.6-32.5c-19.1,0-34.9,14.1-37.6,32.5c-0.3,1.8-0.4,3.7-0.4,5.6
						c0,9,3.1,17.2,8.3,23.7l14.2,0.9c-8.2-5.2-13.6-14.2-13.6-24.6c0-1.9,0.2-3.8,0.5-5.6c2.6-13.4,14.4-23.5,28.5-23.5
						c14.1,0,25.9,10.1,28.5,23.5c0.4,1.8,0.5,3.7,0.5,5.6c0,11.6-6.8,21.7-16.7,26.3l14.2,0.9c7.1-6.9,11.5-16.5,11.5-27.2
						C359.2,410.2,359,408.4,358.8,406.6L358.8,406.6z"/>
					<polygon class="st21" points="384.4,427 380.7,441.4 347.7,439.3 333.5,438.5 305.7,436.8 291.4,435.9 272.1,434.7 
						267.3,429.4 283,406.6 359,406.6 384.4,427 					"/>
					<path class="st22" d="M300.8,406.6h-8.2h-9.1H283l-2.1,3.1l-5.6,8.2l-5.4,7.9c0.8-0.6,1.8-0.9,2.9-1c0.2,0,0.4,0,0.6,0
						c0,0,0,0,0,0l106.6,0.2c0.9,0,1.8,0.2,2.6,0.5l-10-8h-16.3c-0.1,0-0.2,0-0.3,0c-0.1,0-0.2,0-0.3,0h-59.8L300.8,406.6
						L300.8,406.6z"/>
					<path class="st21" d="M273.3,424.7l106.6,0.2c3.5,0,6.3,2.9,6.3,6.4c-0.1,9.6-2.9,33.4-17.4,91.1h-87c0,0-15.5-68.4-14.8-91.6
						C267.2,427.4,270,424.7,273.3,424.7L273.3,424.7z"/>
					<path class="st28" d="M269.8,425.7c-1.3,0.9-2.3,2.3-2.6,3.9C267.5,428,268.5,426.6,269.8,425.7L269.8,425.7L269.8,425.7z"/>
					<path class="st29" d="M272.7,424.7c-1.1,0.1-2,0.5-2.9,1l0,0C270.7,425.2,271.6,424.8,272.7,424.7L272.7,424.7z"/>
					<path class="st26" d="M374.4,499.3c-1,4.3-2.1,8.7-3.2,13.5h0C372.3,508.1,373.4,503.6,374.4,499.3L374.4,499.3z"/>
					<polyline class="st17" points="371.2,512.8 371.2,512.8 371.2,512.8 371.2,512.8 371.2,512.8 					"/>
					<path class="st30" d="M371.2,512.8L371.2,512.8c-0.8,3.1-1.5,6.2-2.4,9.5h-87c0,0,0,0,0,0h87
						C369.6,519.1,370.4,515.9,371.2,512.8L371.2,512.8z"/>
					<path class="st22" d="M370.3,498.1c-3.4-0.2-6.7-0.6-9.9-1.3c-1.4-0.3-2.8-0.6-4.1-1c-0.2-0.1-0.4-0.1-0.6-0.2
						c-1-0.3-1.9-0.6-2.9-0.9c-1.4-0.5-2.8-1-4.2-1.5c-1.4-0.6-2.8-1.2-4.2-1.8c-1.5-0.7-2.9-1.4-4.3-2.2c-1.7-1-3.4-2-5.1-3.2
						c-1.5-1.1-3-2.2-4.5-3.3c-1.4-1.1-2.8-2.3-4.1-3.5c-1.7-1.6-3.3-3.3-4.9-5c-0.5-0.6-1-1.1-1.5-1.7c-0.2-0.2-0.4-0.4-0.5-0.7
						c-0.8-1-1.5-2-2.3-3v0c-0.9-1.2-1.7-2.5-2.5-3.8c-3.8-6.1-6.7-12.8-8.5-20c-0.5-2-0.9-4.1-1.3-6.3c-0.1-0.7-0.2-1.4-0.3-2.1
						c0-0.2-0.1-0.5-0.1-0.7v0c-0.3-1.9-0.6-3.8-0.8-5.6c-0.3-1.9-0.5-3.8-0.7-5.6l-6.8,0l-1.2,0h-1.7l-8,0l-7.8,0h-1.2l-2.9,0h0
						c-0.1,0-0.2,0-0.3,0c-0.1,0-0.2,0-0.3,0c-0.2,0-0.3,0-0.5,0.1c0,0,0,0-0.1,0c-0.1,0-0.2,0-0.2,0.1c-0.1,0-0.2,0.1-0.3,0.1
						c0,0-0.1,0-0.1,0c-0.2,0.1-0.4,0.1-0.6,0.2c-0.1,0-0.2,0.1-0.3,0.1c0,0-0.1,0-0.1,0.1c0,0-0.1,0-0.1,0.1c0,0-0.1,0-0.1,0.1
						c0,0,0,0,0,0c0,0,0,0-0.1,0c0,0,0,0,0,0c0,0-0.1,0.1-0.1,0.1c0,0-0.1,0.1-0.1,0.1c0,0,0,0,0,0c0,0,0,0,0,0c0,0,0,0,0,0
						c-0.1,0-0.2,0.1-0.2,0.2c-0.1,0-0.1,0.1-0.2,0.1l-0.4,0.4c0,0,0,0-0.1,0.1c-0.1,0.1-0.1,0.1-0.2,0.2c0,0,0,0.1-0.1,0.1
						c0,0,0,0,0,0c0,0,0,0,0,0c0,0,0,0,0,0c0,0,0,0,0,0c0,0,0,0,0,0v0l-0.3,0.4l-0.3,0.5c0,0,0,0,0,0c0,0,0,0,0,0.1v0l-0.1,0.3
						l-0.1,0.1c0,0.1-0.1,0.2-0.1,0.3c0,0,0,0,0,0.1c0,0,0,0,0,0c0,0,0,0,0,0.1c0,0,0,0,0,0c0,0.1-0.1,0.1-0.1,0.2v0l0,0
						c0,0.1-0.1,0.2-0.1,0.3c0,0,0,0,0,0c0,0.1,0,0.2-0.1,0.3c-0.1,0.4-0.1,0.7-0.1,1.1c0,1,0,2.2,0,3.4c0,0.1,0,0.3,0,0.4
						c0,0.1,0,0.2,0,0.3s0,0.2,0,0.4c0,0.3,0,0.6,0,0.8v0.1c0,0,0,0,0,0c0,0,0,0,0,0v0c0,0.2,0,0.4,0,0.6v0c0,0.3,0,0.5,0,0.8
						c0,0.4,0.1,0.9,0.1,1.3c0,0.1,0,0.2,0,0.4c0,0.3,0,0.6,0.1,0.9c0,0.1,0,0.1,0,0.2c0,0.2,0,0.4,0,0.6v0.1c0,0.3,0.1,0.6,0.1,0.9
						c0,0.2,0,0.4,0,0.5c0,0.3,0.1,0.7,0.1,1c0,0.3,0.1,0.5,0.1,0.8c0,0.2,0,0.5,0.1,0.8v0.1c0,0.1,0,0.1,0,0.2
						c0,0.2,0.1,0.5,0.1,0.7c0,0.1,0,0.3,0,0.4c0,0.1,0,0.1,0,0.2c0,0,0,0,0,0.1c0.1,0.5,0.1,1.1,0.2,1.6c0.1,0.6,0.1,1.1,0.2,1.7
						c0,0,0,0.1,0,0.1c0,0.1,0,0.3,0,0.5c0,0.3,0.1,0.6,0.1,0.9c0,0.1,0,0.3,0,0.4c0,0.2,0.1,0.5,0.1,0.8c0,0.3,0.1,0.7,0.1,1
						c0,0.3,0.1,0.7,0.1,1c0,0.3,0.1,0.5,0.1,0.8c0,0.2,0,0.3,0.1,0.5c0,0.2,0.1,0.3,0.1,0.5c0,0.2,0.1,0.4,0.1,0.6c0,0,0,0.1,0,0.1
						c0,0.2,0.1,0.4,0.1,0.6c0.1,0.7,0.2,1.4,0.3,2.1c0,0.1,0,0.2,0.1,0.4c0,0.2,0,0.3,0.1,0.5c0.1,0.3,0.1,0.6,0.1,0.9l0.1,1
						c0.1,0.9,0.3,1.8,0.4,2.7c0,0.3,0.1,0.6,0.1,0.9c0,0,0,0.1,0,0.1c0,0,0,0,0,0.1c0.1,0.5,0.2,1.1,0.3,1.6c0,0.2,0.1,0.4,0.1,0.5
						c0,0.2,0.1,0.4,0.1,0.6c0.1,0.3,0.1,0.6,0.2,0.9c0.1,0.7,0.2,1.4,0.3,2c0,0.2,0.1,0.3,0.1,0.5c0.2,1,0.3,1.9,0.5,2.9
						c0,0.1,0,0.1,0,0.2c0.2,0.9,0.3,1.8,0.5,2.8c0.1,0.3,0.1,0.7,0.2,1c0.1,0.4,0.2,0.9,0.2,1.3c0,0.1,0.1,0.3,0.1,0.4
						c0,0.2,0.1,0.4,0.1,0.6c0.1,0.5,0.2,1,0.3,1.4c0.2,1,0.4,1.9,0.5,2.9c0.1,0.7,0.3,1.4,0.4,2.1c0,0.2,0.1,0.3,0.1,0.5
						c0.1,0.3,0.1,0.6,0.2,0.9c0.1,0.2,0.1,0.5,0.1,0.7c0,0.2,0.1,0.4,0.1,0.7c0,0.2,0.1,0.3,0.1,0.5c0.1,0.3,0.1,0.5,0.2,0.8
						c0,0,0,0.1,0,0.1c0,0.2,0.1,0.4,0.1,0.5c0,0.1,0,0.2,0,0.2c0.2,0.8,0.3,1.6,0.5,2.3c0,0.3,0.1,0.6,0.2,0.8c0,0,0,0.1,0,0.1
						c0.1,0.5,0.2,1.1,0.3,1.6c0.1,0.3,0.1,0.5,0.2,0.8c0,0.1,0,0.2,0,0.3c0,0.2,0.1,0.4,0.1,0.6c0.1,0.3,0.1,0.5,0.2,0.8
						c0,0.1,0,0.1,0,0.2c0,0.1,0.1,0.3,0.1,0.4c0,0,0,0.1,0,0.1c0,0.1,0,0.1,0.1,0.2c0.2,0.8,0.3,1.7,0.5,2.5c0,0.2,0.1,0.3,0.1,0.5
						c0,0.1,0.1,0.3,0.1,0.4c0.1,0.2,0.1,0.4,0.1,0.6c0,0.1,0,0.2,0.1,0.3c0.1,0.6,0.2,1.2,0.4,1.8c0,0.2,0.1,0.4,0.1,0.6
						c0,0.1,0.1,0.3,0.1,0.5c0,0,0,0.1,0,0.1c0,0,0,0.1,0,0.1c0,0.1,0,0.1,0,0.2c0,0.1,0,0.1,0,0.2c0.1,0.3,0.1,0.6,0.2,0.9
						c0,0,0,0.1,0,0.1c0,0.1,0,0.1,0,0.2c0,0.1,0,0.2,0.1,0.3c0.1,0.3,0.1,0.5,0.2,0.8c0,0.1,0.1,0.3,0.1,0.5c0,0.1,0,0.1,0,0.2
						c0,0.1,0,0.1,0,0.2c0,0.1,0,0.1,0,0.2c0,0.1,0.1,0.3,0.1,0.4v0h0c0,0.2,0.1,0.3,0.1,0.5c0.1,0.4,0.1,0.7,0.2,1
						c0.1,0.4,0.2,0.9,0.3,1.3c0.1,0.3,0.1,0.5,0.2,0.8c0,0.1,0,0.1,0,0.2c0,0.2,0.1,0.3,0.1,0.5c0.1,0.2,0.1,0.5,0.2,0.7
						c0,0.1,0.1,0.3,0.1,0.4c0,0.1,0,0.1,0,0.2c0,0.2,0.1,0.4,0.1,0.6c0,0.1,0,0.1,0,0.2c0,0.1,0,0.2,0,0.2c0,0.1,0,0.2,0.1,0.2
						s0,0.2,0,0.2c0,0.1,0,0.1,0.1,0.2c0,0.1,0,0.2,0.1,0.3c0,0,0,0.1,0,0.1c0,0.1,0,0.1,0,0.2c0,0.1,0,0.2,0.1,0.2
						c0.1,0.3,0.1,0.5,0.1,0.7c0,0.1,0,0.1,0,0.1c0,0,0,0,0,0c0,0,0,0,0,0.1c0,0,0,0.1,0,0.1c0,0,0,0,0,0.1c0,0.1,0.1,0.2,0.1,0.3
						c0,0,0,0,0,0c0,0,0,0,0,0v0c0,0,0,0,0,0c0,0,0,0,0,0c0,0,0,0,0,0h87c0.2-0.8,0.4-1.6,0.6-2.4c0.2-1,0.5-1.9,0.7-2.9
						c0.2-0.6,0.3-1.3,0.5-1.9c0.1-0.2,0.1-0.5,0.2-0.7c0-0.1,0.1-0.3,0.1-0.4c0.1-0.4,0.2-0.8,0.3-1.2v0c0.1-0.3,0.1-0.6,0.2-0.9
						c0.1-0.3,0.1-0.6,0.2-0.9c0.1-0.3,0.2-0.7,0.2-1c0-0.2,0.1-0.4,0.1-0.6c0-0.1,0-0.1,0-0.2c0.1-0.6,0.3-1.1,0.4-1.7
						c0-0.2,0.1-0.4,0.1-0.6c0.4-1.5,0.7-3,1.1-4.5c0.3-1.1,0.5-2.2,0.8-3.2c0.1-0.4,0.2-0.7,0.3-1.1
						C373.2,498.2,371.7,498.2,370.3,498.1z M293.9,434.5c0.4,0.1,0.8,0.3,1.2,0.4c0.2,0.1,0.5,0.2,0.7,0.3c0.6,0.3,1.3,0.6,1.9,1h0
						c0,0,0.1,0,0.1,0.1c0.2,0.1,0.3,0.2,0.5,0.3c0.2,0.1,0.4,0.3,0.6,0.4c0.4,0.3,0.7,0.6,1.1,0.9c1.2,1.1,2.2,2.4,2.9,3.8
						c0.2,0.4,0.4,0.8,0.5,1.2c0.1,0.2,0.1,0.4,0.2,0.7c0.1,0.2,0.1,0.4,0.2,0.7s0.1,0.4,0.1,0.7c0,0.2,0.1,0.3,0.1,0.5
						c0,0.1,0,0.2,0,0.3c0,0.1,0,0.3,0,0.4c0,0.2,0,0.5,0,0.8c0,0.5,0,1-0.1,1.4c0,0.1,0,0.1,0,0.2c0,0.1,0,0.3-0.1,0.4
						c0,0.2-0.1,0.3-0.1,0.5c-0.1,0.3-0.1,0.6-0.2,0.8c-0.1,0.2-0.1,0.4-0.2,0.6c0,0,0,0,0,0.1c-0.1,0.2-0.1,0.4-0.2,0.6
						c-0.1,0.2-0.2,0.4-0.3,0.6c0,0.1-0.1,0.2-0.1,0.3c0,0.1-0.1,0.2-0.1,0.3c-0.1,0.2-0.2,0.4-0.3,0.5c0,0,0,0,0,0c0,0,0,0-0.1,0.1
						c0,0.1-0.1,0.1-0.1,0.2c-0.1,0.1-0.2,0.3-0.3,0.4c-0.1,0.1-0.2,0.3-0.3,0.4c-0.1,0.1-0.1,0.2-0.2,0.3c-0.1,0.1-0.2,0.2-0.3,0.3
						c-0.1,0.1-0.2,0.2-0.2,0.3c0,0,0,0,0,0c0,0,0,0-0.1,0c0,0-0.1,0.1-0.1,0.1c-0.1,0.1-0.2,0.2-0.3,0.3c-0.1,0.1-0.2,0.2-0.3,0.3
						c-0.2,0.2-0.4,0.4-0.6,0.6c0,0-0.1,0.1-0.1,0.1c-0.1,0.1-0.1,0.1-0.2,0.2c0,0-0.1,0.1-0.2,0.1c-0.4,0.3-0.8,0.6-1.3,0.9
						c-0.2,0.1-0.4,0.2-0.6,0.4c-0.1,0.1-0.2,0.1-0.4,0.2c-0.1,0-0.1,0.1-0.2,0.1c-0.1,0.1-0.2,0.1-0.3,0.2
						c-0.2,0.1-0.4,0.2-0.6,0.3c-0.1,0-0.1,0-0.1,0.1c0,0,0,0,0,0c0,0,0,0-0.1,0c0,0-0.1,0-0.1,0c-0.2,0.1-0.3,0.1-0.5,0.2
						c-0.1,0.1-0.3,0.1-0.4,0.1c-0.1,0-0.2,0.1-0.3,0.1c0,0,0,0,0,0c0,0,0,0-0.1,0c-0.1,0-0.2,0.1-0.3,0.1v0c0,0,0,0,0,0
						c-0.1,0-0.2,0.1-0.3,0.1c-0.2,0.1-0.5,0.1-0.7,0.2c-0.1,0-0.2,0-0.3,0.1c0,0,0,0-0.1,0c0,0,0,0-0.1,0c-0.1,0-0.1,0-0.2,0
						c-0.1,0-0.2,0-0.2,0c-0.1,0-0.3,0.1-0.4,0.1c-0.1,0-0.2,0-0.3,0c-0.2,0-0.4,0-0.6,0.1c0,0-0.1,0-0.1,0c-0.1,0-0.1,0-0.2,0h-0.1
						c-0.1,0-0.2,0-0.3,0h-0.1c0,0,0,0,0,0c-0.1,0-0.1,0-0.2,0h-0.1c-0.2,0-0.3,0-0.5,0c-0.3,0-0.7,0-1,0c-0.1,0-0.1,0-0.2,0
						c-0.1,0-0.2,0-0.3,0h0c-0.1,0-0.1,0-0.2,0h-0.1c0,0,0,0-0.1,0c0,0-0.1,0-0.1,0c-0.1,0-0.2,0-0.3,0c-0.2,0-0.4-0.1-0.6-0.1h0
						c0,0,0,0,0,0c0,0,0,0-0.1,0c-0.2-0.1-0.5-0.1-0.7-0.1c-0.2,0-0.3-0.1-0.5-0.1c-0.2-0.1-0.5-0.1-0.7-0.2c-0.1,0-0.2-0.1-0.3-0.1
						v0c-0.1,0-0.3-0.1-0.4-0.1c-0.1,0-0.2-0.1-0.3-0.1c-0.2-0.1-0.3-0.1-0.5-0.2c0,0-0.1,0-0.1-0.1c0,0-0.1,0-0.1-0.1
						c-0.1,0-0.2-0.1-0.3-0.1c-0.1,0-0.1-0.1-0.2-0.1c-0.1,0-0.2-0.1-0.2-0.1c-0.1,0-0.3-0.1-0.4-0.2c0,0,0,0,0,0v0c0,0,0,0,0,0
						c0,0-0.1,0-0.1-0.1c-0.2-0.1-0.4-0.2-0.7-0.4c-0.1,0-0.1-0.1-0.2-0.1c0,0,0,0,0,0c-0.2-0.1-0.5-0.3-0.7-0.4
						c-0.5-0.3-0.9-0.7-1.3-1c-0.2-0.2-0.4-0.4-0.6-0.6c-0.2-0.2-0.4-0.4-0.6-0.6c-0.1-0.2-0.3-0.3-0.4-0.5
						c-0.2-0.2-0.4-0.5-0.6-0.7c0,0,0,0,0,0c-0.1-0.2-0.3-0.4-0.4-0.6c-0.1-0.2-0.2-0.3-0.3-0.5c0-0.1-0.1-0.2-0.1-0.2
						c0,0,0-0.1-0.1-0.1c-0.1-0.2-0.2-0.4-0.3-0.7c0-0.1-0.1-0.2-0.1-0.3c-0.1-0.1-0.1-0.3-0.1-0.4c0,0,0,0,0,0
						c-0.1-0.2-0.1-0.4-0.2-0.7c0-0.1,0-0.1-0.1-0.2c0-0.1-0.1-0.3-0.1-0.5c0-0.1-0.1-0.2-0.1-0.3c0-0.2-0.1-0.3-0.1-0.5
						c-0.1-0.6-0.1-1.1-0.1-1.7c0-0.1,0-0.2,0-0.3c0-0.1,0-0.2,0-0.3c0-0.2,0-0.4,0-0.5c0-0.1,0-0.1,0-0.2c0-0.1,0-0.2,0.1-0.3
						c0-0.1,0-0.2,0-0.4c0,0,0-0.1,0-0.1c0-0.2,0.1-0.4,0.1-0.6c0,0,0-0.1,0-0.1c0.1-0.3,0.1-0.5,0.2-0.8c0,0,0-0.1,0-0.1
						c0-0.1,0-0.1,0.1-0.2c0-0.1,0-0.1,0.1-0.2c0.1-0.3,0.2-0.6,0.3-0.8c0,0,0-0.1,0-0.1c0-0.1,0.1-0.2,0.2-0.3
						c0.1-0.2,0.2-0.4,0.3-0.6c0.1-0.1,0.2-0.3,0.3-0.4c0.1-0.1,0.2-0.3,0.3-0.4c0.1-0.1,0.2-0.3,0.3-0.4c0,0,0-0.1,0.1-0.1
						c0,0,0.1-0.1,0.1-0.1c0.1-0.1,0.1-0.1,0.2-0.2c0-0.1,0.1-0.1,0.1-0.2c0.3-0.4,0.6-0.7,0.9-1c0.2-0.2,0.3-0.3,0.5-0.5
						c0.2-0.1,0.3-0.3,0.5-0.4c0,0,0,0,0,0c0.2-0.1,0.3-0.3,0.5-0.4c0.1-0.1,0.1-0.1,0.2-0.1c0.1-0.1,0.2-0.1,0.3-0.2l0,0
						c0,0,0,0,0.1,0c0.2-0.1,0.4-0.2,0.5-0.4c0.1-0.1,0.2-0.1,0.3-0.2c0.3-0.2,0.5-0.3,0.8-0.4c0.1,0,0.1,0,0.2-0.1
						c0.1-0.1,0.2-0.1,0.2-0.1c0.1,0,0.1-0.1,0.2-0.1h0c0.2-0.1,0.4-0.2,0.6-0.3c0.1,0,0.1-0.1,0.2-0.1c0,0,0.1,0,0.1,0
						c0.3-0.1,0.5-0.2,0.8-0.3c0.4-0.1,0.8-0.3,1.3-0.4c0.3-0.1,0.6-0.1,0.9-0.2c0.2,0,0.3-0.1,0.5-0.1c0.2,0,0.5-0.1,0.7-0.1
						c0.4-0.1,0.9-0.1,1.4-0.1c0.3,0,0.5,0,0.8,0c0.3,0,0.5,0,0.8,0c0.2,0,0.3,0,0.5,0c0.7,0.1,1.3,0.1,2,0.2c0.1,0,0.3,0.1,0.4,0.1
						c0.2,0,0.5,0.1,0.7,0.2C293.3,434.4,293.6,434.4,293.9,434.5z"/>
					<path class="st31" d="M304,447c0,7.3-6.9,13.2-15.4,13.2c-8.5,0-15.4-5.9-15.4-13.2c0-7.3,6.9-13.2,15.4-13.2
						C297.1,433.7,304,439.7,304,447L304,447z"/>
					<path class="st31" d="M377.6,447c0,7.3-6.9,13.2-15.4,13.2c-8.5,0-15.4-5.9-15.4-13.2c0-7.3,6.9-13.2,15.4-13.2
						C370.7,433.7,377.6,439.7,377.6,447L377.6,447z"/>
					<path class="st32" d="M303.9,448.6C303.9,448.6,303.9,448.6,303.9,448.6c-0.9,6.5-7.4,11.6-15.3,11.6c-3.3,0-6.4-0.9-9-2.5
						c2.5,1.6,5.6,2.5,9,2.5C296.5,460.2,303,455.1,303.9,448.6L303.9,448.6z"/>
					<path class="st33" d="M283.1,434.6c-5.8,1.9-9.9,6.7-9.9,12.3c0,4.4,2.5,8.3,6.4,10.7c2.5,1.6,5.6,2.5,9,2.5
						c7.9,0,14.3-5.1,15.3-11.6c-1.7,0.6-3.6,0.9-5.5,0.9c-8.5,0-15.4-5.9-15.4-13.2C283,435.7,283,435.1,283.1,434.6L283.1,434.6z"
						/>
					<path class="st17" d="M373.1,456.3L373.1,456.3L373.1,456.3C373.1,456.3,373.1,456.3,373.1,456.3
						C373.1,456.3,373.1,456.3,373.1,456.3c0.2-0.2,0.4-0.4,0.6-0.6c0,0,0.1-0.1,0.1-0.1c0.2-0.2,0.4-0.4,0.6-0.7c0,0,0,0,0,0
						c0,0,0,0,0,0c0,0,0.1-0.1,0.1-0.1c0.1-0.1,0.1-0.2,0.2-0.3c0,0,0,0,0.1-0.1c0.1-0.1,0.2-0.2,0.2-0.3c0,0,0,0,0,0c0,0,0,0,0,0
						c0.2-0.2,0.3-0.5,0.5-0.7c0,0,0,0,0,0c0,0,0,0,0,0c0,0,0,0,0,0c0,0,0,0,0-0.1c0.1-0.2,0.3-0.5,0.4-0.7 M350.9,455.9
						c0.1,0.1,0.1,0.1,0.2,0.2c0.1,0.1,0.1,0.1,0.2,0.1c0.3,0.3,0.6,0.5,0.9,0.8c0.1,0,0.1,0.1,0.2,0.1c0.2,0.1,0.4,0.3,0.6,0.4
						c0.1,0.1,0.1,0.1,0.2,0.1c0.3,0.2,0.7,0.4,1,0.6c0,0,0,0,0.1,0c0.1,0.1,0.2,0.1,0.3,0.1c0.1,0,0.2,0.1,0.2,0.1
						c0.1,0,0.1,0.1,0.2,0.1c0.2,0.1,0.4,0.2,0.6,0.2c0.5,0.2,0.9,0.4,1.4,0.5c0.1,0,0.2,0.1,0.3,0.1c0.1,0,0.1,0,0.2,0
						c0,0,0.1,0,0.1,0c0,0,0,0,0,0c0,0,0.1,0,0.1,0c0,0,0,0,0.1,0c0,0,0,0,0,0c0,0,0,0,0,0c0,0,0.1,0,0.1,0c0.1,0,0.3,0.1,0.4,0.1
						c0,0,0,0,0,0c0.2,0.1,0.5,0.1,0.7,0.1c0.1,0,0.2,0,0.3,0c0,0,0,0,0,0c0.1,0,0.2,0,0.3,0.1c0.2,0,0.3,0,0.5,0.1c0,0,0,0,0.1,0
						c0.1,0,0.2,0,0.3,0c0.6,0.1,1.1,0.1,1.7,0.1c0.2,0,0.4,0,0.5,0c0,0,0,0,0,0c0.1,0,0.2,0,0.2,0c0.3,0,0.5,0,0.8-0.1
						c0,0,0,0,0.1,0c0,0,0,0,0,0c0,0,0,0,0.1,0c0.3,0,0.6-0.1,0.9-0.1c0.2,0,0.3,0,0.5-0.1c0.2,0,0.4-0.1,0.7-0.1
						c0.2,0,0.4-0.1,0.7-0.1c0,0,0.1,0,0.1,0c0,0,0,0,0,0c0,0,0,0,0,0c0,0,0.1,0,0.1,0c0.2,0,0.4-0.1,0.6-0.2
						c0.2-0.1,0.5-0.2,0.7-0.2c0,0,0,0,0,0c0,0,0,0,0.1,0c0.1,0,0.1,0,0.1-0.1c0.1,0,0.2-0.1,0.3-0.1c0.2-0.1,0.3-0.1,0.5-0.2
						c0.1,0,0.1,0,0.2-0.1c0.1,0,0.1,0,0.2-0.1c0.1,0,0.2-0.1,0.3-0.1c0.1,0,0.2-0.1,0.3-0.2c0,0,0.1,0,0.1-0.1
						c0.2-0.1,0.3-0.2,0.5-0.3c0.2-0.1,0.4-0.2,0.6-0.4c0.1,0,0.2-0.1,0.3-0.2c0.1-0.1,0.3-0.2,0.5-0.3c0,0,0.1,0,0.1-0.1
						c0.1,0,0.1-0.1,0.2-0.1c0.1,0,0.1-0.1,0.2-0.1c0.1,0,0.1-0.1,0.2-0.1c0.1-0.1,0.2-0.2,0.3-0.2 M373.1,456.3L373.1,456.3
						L373.1,456.3c-0.1,0.1-0.2,0.2-0.3,0.2c0,0-0.1,0.1-0.2,0.1c0,0-0.1,0.1-0.2,0.1c0,0-0.1,0.1-0.2,0.1c0,0-0.1,0-0.1,0.1
						c-0.1,0.1-0.3,0.2-0.5,0.3c-0.1,0.1-0.2,0.1-0.3,0.2c-0.2,0.1-0.4,0.2-0.6,0.4c-0.2,0.1-0.3,0.2-0.5,0.3c0,0-0.1,0-0.1,0.1
						c-0.1,0-0.1,0.1-0.2,0.1c0,0-0.1,0-0.1,0.1c-0.1,0.1-0.2,0.1-0.3,0.1c-0.1,0-0.1,0-0.2,0.1c-0.1,0-0.1,0-0.2,0.1
						c-0.2,0.1-0.3,0.1-0.5,0.2c-0.1,0-0.2,0.1-0.3,0.1c0,0-0.1,0-0.1,0.1c0,0,0,0-0.1,0c0,0,0,0,0,0c-0.2,0.1-0.5,0.2-0.7,0.2
						c-0.2,0.1-0.4,0.1-0.6,0.2c0,0-0.1,0-0.1,0c0,0,0,0,0,0c0,0-0.1,0-0.1,0c-0.2,0-0.4,0.1-0.7,0.1c-0.2,0-0.4,0.1-0.7,0.1
						c-0.2,0-0.3,0.1-0.5,0.1c-0.2,0-0.4,0.1-0.6,0.1c-0.1,0-0.2,0-0.3,0c0,0,0,0-0.1,0c0,0,0,0,0,0c0,0,0,0,0,0c0,0,0,0,0,0
						c-0.1,0-0.2,0-0.3,0c-0.1,0-0.2,0-0.4,0c-0.1,0-0.1,0-0.1,0s-0.1,0-0.1,0c0,0-0.1,0-0.1,0c0,0,0,0,0,0c-0.2,0-0.3,0-0.5,0
						c-0.5,0-1,0-1.6-0.1c-0.1,0-0.1,0-0.2,0c-0.1,0-0.2,0-0.3,0c0,0,0,0-0.1,0c-0.2,0-0.3,0-0.5-0.1c-0.1,0-0.1,0-0.2,0
						c0,0-0.1,0-0.1,0c-0.1,0-0.2,0-0.3,0c-0.1,0-0.2,0-0.3-0.1c-0.1,0-0.1,0-0.1,0c-0.1,0-0.2,0-0.3-0.1c0,0,0,0,0,0
						c-0.1,0-0.3-0.1-0.4-0.1c-0.1,0-0.1,0-0.1,0c0,0,0,0,0,0s0,0,0,0c0,0,0,0-0.1,0c0,0-0.1,0-0.1,0c0,0,0,0,0,0c0,0,0,0-0.1,0
						c-0.1,0-0.3-0.1-0.4-0.1c0,0-0.1,0-0.1,0c-0.5-0.1-1-0.3-1.4-0.5c-0.1,0-0.1-0.1-0.2-0.1c-0.1-0.1-0.3-0.1-0.4-0.2
						c0,0-0.1,0-0.1,0c-0.1,0-0.2-0.1-0.2-0.1c0,0-0.1,0-0.1-0.1c0,0-0.1,0-0.1-0.1c0,0,0,0-0.1,0c-0.3-0.2-0.7-0.4-1-0.6
						c-0.1,0-0.2-0.1-0.2-0.1c-0.2-0.1-0.4-0.2-0.6-0.4c-0.1-0.1-0.1-0.1-0.2-0.1c-0.3-0.2-0.6-0.5-0.9-0.8c-0.1,0-0.1-0.1-0.2-0.1
						c-0.1-0.1-0.1-0.1-0.2-0.2c-0.1-0.1-0.2-0.2-0.3-0.3c-0.1-0.1-0.2-0.2-0.2-0.3 M376.1,452.6
						C376.1,452.6,376.1,452.7,376.1,452.6c-0.2,0.3-0.3,0.5-0.5,0.8c0,0,0,0,0,0.1c0,0,0,0,0,0c0,0,0,0,0,0c0,0,0,0,0,0
						c-0.2,0.2-0.3,0.5-0.5,0.7c0,0,0,0,0,0c0,0,0,0,0,0c-0.1,0.1-0.2,0.2-0.2,0.3c0,0,0,0-0.1,0.1c-0.1,0.1-0.2,0.2-0.3,0.4
						c0,0,0,0,0,0c-0.2,0.2-0.4,0.4-0.6,0.7c0,0-0.1,0.1-0.1,0.1c-0.2,0.2-0.4,0.4-0.6,0.5c0,0,0,0,0,0v0c0,0,0,0,0,0 M376.1,452.6
						C376.1,452.6,376.1,452.6,376.1,452.6"/>
					<path class="st33" d="M356.7,434.6c-5.8,1.9-9.9,6.7-9.9,12.3c0,3.3,1.4,6.3,3.8,8.7c2.8,2.8,7,4.6,11.6,4.6
						c6.1,0,11.4-3.1,13.9-7.6c0,0,0,0,0,0c0,0,0,0,0,0c0.7-1.3,1.2-2.6,1.4-4c-1.7,0.6-3.6,0.9-5.5,0.9c-8.5,0-15.4-5.9-15.4-13.2
						C356.6,435.7,356.7,435.1,356.7,434.6L356.7,434.6z"/>
					<polygon class="st31" points="365.7,465.1 356.8,517.6 300.1,517.6 291.2,465 302,465 307,465 312,465 317.1,465 321.2,465 
						326.3,465 335.7,465 341.5,465.1 346.5,465.1 351.5,465.1 360.7,465.1 					"/>
					<polygon class="st18" points="326.3,465 326.8,517.6 323,517.6 321.2,465 					"/>
					<polygon class="st18" points="317.1,465 319.8,517.6 316,517.6 312,465 					"/>
					<polygon class="st18" points="307,465 312.2,517.6 308.3,517.6 302,465 					"/>
					<polygon class="st18" points="296.2,465 303.9,517.6 300.1,517.6 291.2,465 					"/>
					<polygon class="st18" points="365.7,465.1 356.8,517.6 353,517.6 360.7,465.1 					"/>
					<polygon class="st18" points="356.5,465.1 349.8,517.6 346,517.6 351.5,465.1 					"/>
					<polygon class="st18" points="346.5,465.1 342.2,517.6 338.4,517.6 341.5,465.1 					"/>
					<polygon class="st18" points="335.7,465 333.9,517.6 330.1,517.6 330.6,465 					"/>
					<polyline class="st17" points="377.1,328.6 377.1,328.6 377.1,328.6 377.1,328.6 377.1,328.6 					"/>
					<polygon class="st34" points="359.4,378.8 358.7,381.6 358.7,381.6 359.4,378.8 359.4,378.8 					"/>
					<polygon class="st35" points="358.7,381.6 357.9,385 358.7,381.6 358.7,381.6 					"/>
					<path class="st36" d="M351,415.2L351,415.2c0.1,0.1,0.2,0.2,0.3,0.3C351.2,415.4,351.1,415.3,351,415.2z M354.8,417.3
						C354.8,417.3,354.8,417.3,354.8,417.3c0.1,0,0.1,0,0.1,0C354.9,417.3,354.8,417.3,354.8,417.3z M356.4,417.4
						C356.4,417.4,356.4,417.4,356.4,417.4C356.5,417.4,356.4,417.4,356.4,417.4C356.4,417.4,356.4,417.4,356.4,417.4z M358.5,417
						c-0.1,0-0.3,0.1-0.4,0.1C358.3,417.1,358.4,417,358.5,417C358.6,417,358.6,417,358.5,417L358.5,417
						C358.6,417,358.6,417,358.5,417z M358.8,416.9C358.8,416.9,358.9,416.9,358.8,416.9L358.8,416.9
						C358.8,416.9,358.8,416.9,358.8,416.9z M359,416.9C358.9,416.9,358.9,416.9,359,416.9C358.9,416.9,358.9,416.9,359,416.9
						c0,0,0.1,0,0.2-0.1C359.1,416.8,359,416.8,359,416.9z M360,416.4C360,416.4,360.1,416.4,360,416.4
						C360.1,416.4,360.1,416.4,360,416.4C360.1,416.4,360.1,416.4,360,416.4z M360.3,416.3C360.3,416.3,360.3,416.3,360.3,416.3
						C360.3,416.3,360.3,416.3,360.3,416.3c0.1,0,0.2-0.1,0.2-0.1C360.4,416.3,360.4,416.3,360.3,416.3z M361.2,415.9
						C361.2,415.9,361.2,415.9,361.2,415.9l0.4-1.2L361.2,415.9z"/>
					<path class="st29" d="M356.2,417.4L356.2,417.4c-0.1,0-0.2,0-0.3,0c-0.1,0-0.2,0-0.3,0h0c0.1,0,0.2,0,0.3,0
						C356,417.4,356.1,417.4,356.2,417.4L356.2,417.4z"/>
					<polyline class="st17" points="302.6,383 302.6,383 302.6,383 					"/>
					<path class="st37" d="M304,388.7L304,388.7c0,0.1-0.1,0.3-0.1,0.4C303.9,389,303.9,388.8,304,388.7L304,388.7z"/>
					<path class="st38" d="M302.7,383c0.5,1.1,0.9,2.3,1.1,3.1c0.2,1.2,0.3,1.9,0.2,2.5l0,0c0.1-0.6,0-1.3-0.2-2.5
						C303.6,385.3,303.2,384.2,302.7,383L302.7,383z"/>
					<path class="st17" d="M301.8,391.5c0.1-0.1,0.3-0.2,0.4-0.4 M303.8,389.1C303.8,389.1,303.8,389.1,303.8,389.1
						c-0.1,0.2-0.2,0.4-0.3,0.6c0,0,0,0.1-0.1,0.1c-0.1,0.1-0.1,0.2-0.2,0.2 M281.8,386.9c0,0.1,0,0.2,0,0.3L281.8,386.9
						L281.8,386.9z M281.9,388.6c0-0.1,0-0.2,0-0.3c0,0.2,0,0.4,0.1,0.6C281.9,388.8,281.9,388.7,281.9,388.6z"/>
					<path class="st17" d="M283.6,394.3C283.6,394.3,283.6,394.3,283.6,394.3C283.6,394.3,283.6,394.3,283.6,394.3
						C283.7,394.3,283.7,394.3,283.6,394.3C283.6,394.3,283.6,394.3,283.6,394.3"/>
					<path class="st17" d="M334.5,385.9L334.5,385.9"/>
					<polyline class="st17" points="356.4,387.2 356.4,387.2 356.4,387.2 356.4,387.2 356.4,387.2 					"/>
					<path class="st17" d="M356.4,386.9C356.4,386.9,356.4,386.9,356.4,386.9c0,0.1,0,0.2,0,0.3c0,0,0,0,0,0
						C356.4,387.1,356.4,387,356.4,386.9"/>
					<path class="st38" d="M354.7,394.2c-0.4,0.5-1.2,1-2,1.4C353.5,395.2,354.2,394.7,354.7,394.2
						C354.7,394.2,354.7,394.2,354.7,394.2L354.7,394.2z"/>
					<g>
						<path class="st39" d="M354,388.3c0,0,0.1,4.1-1.2,6c-1.3,1.8-6.8,2.9-7.7,1.1c-3.6,0.4-4.1-1.2-4.1-1.2s-3,0.2-2.7-1.9
							c-1.9-1.7-1.9-2-1.5-4.2c0.4-2.2,2.6-6.2,4.8-7.3c2.3-1.2,5.1-1.9,9,2.2C354.2,386.4,354,388.3,354,388.3L354,388.3z"/>
						<path class="st40" d="M345.2,395.4c0.4-0.7,1-1.5,1.8-2.3c0.9-0.9,1.9-1.5,2.6-1.9c-0.5,0.7-1.1,1.5-2,2.4
							C346.7,394.4,345.9,395,345.2,395.4z"/>
						<path class="st40" d="M347.4,388.1c-1.2,1-2.4,2-3.6,3.2c-1,1-1.9,2-2.7,2.9c0.3-0.9,1-2.2,2.3-3.6
							C344.9,389.1,346.5,388.4,347.4,388.1z"/>
						<path class="st40" d="M344.6,384.5c-1.1,0.9-2.5,2.1-3.8,3.8c-1.1,1.5-1.9,2.9-2.5,4c0.2-0.9,0.6-2.7,2-4.5
							C341.8,385.8,343.7,384.9,344.6,384.5z"/>
					</g>
					<g>
						<path class="st39" d="M286.8,389.6c0,0,0.3,4.1,1.7,5.8c1.4,1.7,7,2.3,7.7,0.4c3.6,0.1,4-1.5,4-1.5s3,0,2.6-2.2
							c1.7-1.9,1.7-2.1,1.2-4.3c-0.6-2.2-3.1-5.9-5.5-6.9c-2.4-1-5.2-1.5-8.8,3C286.5,387.7,286.8,389.6,286.8,389.6L286.8,389.6z"
							/>
						<path class="st40" d="M296.3,395.9c-0.6-0.6-1.4-1.4-2.2-2.1c-0.9-0.7-1.7-1.3-2.5-1.7c0.5,0.7,1.3,1.4,2.3,2.2
							C294.7,395,295.5,395.5,296.3,395.9z"/>
						<path class="st40" d="M293.4,388.8c1,1.2,2.2,2.1,3.3,3l1.8,1.3c0.6,0.4,1.2,0.8,1.8,1.3c-0.3-0.5-0.8-1.1-1.4-1.7
							c-0.6-0.6-1.2-1-1.8-1.5C296.1,390.5,294.9,389.7,293.4,388.8z"/>
						<path class="st40" d="M295.9,384.9c1.1,1.4,2.4,2.5,3.6,3.6c0.6,0.5,1.2,1.1,1.8,1.7c0.6,0.6,1.1,1.2,1.6,1.9
							c-0.5-1-1.2-2.4-2.4-3.7C298.8,386.6,297.1,385.5,295.9,384.9z"/>
					</g>
				</g>
			</g>
			<g>
				<path class="st41" d="M409.1,287.9c0,0,10.2,8.1,21-6.4s4.8-46.9,5.3-66.6c0.6-19.7,19.4-54,19.4-54s-16.5,26.2-16.8,64.6
					s2.2,49.4-3.7,59.5C428.4,295.1,410.5,292.2,409.1,287.9z"/>
				<path class="st41" d="M430.8,206.1c0,0,6.4,24.7-1.5,48.7c-7.9,24-16.5,26.8-16.5,26.8s11.8,7.1,15.8-8.4
					C432.6,257.6,438,227.2,430.8,206.1z"/>
				<path class="st41" d="M442.2,226.4c-1.7,24.5-2,52.8-5,63.1c-2.9,10.3-16.9,5.6-16.9,5.6s18.9,18.3,23.7-4.7
					S442.2,226.4,442.2,226.4z"/>
			</g>
			<path class="st3" d="M240.1,277.4c-2.6-20.9,12.9-37.1,33.8-35.8c6.2,0.4,12.3,2.4,17.6,5.7c-5.6-2.5-11.6-4-17.7-4.1
				C253.5,242.9,240.1,257.2,240.1,277.4L240.1,277.4z"/>
			<path class="st3" d="M371.6,233.3c12.5,7.7,16.9,24.2,8.4,36.5c-2.6,3.8-6.2,7-10.3,9c5.6-4.2,10-9.9,11.8-16.6
				C384.5,251.4,379.8,240.6,371.6,233.3L371.6,233.3z"/>
		</g>
		
			<linearGradient id="SVGID_00000007396403441918118360000006677704377998162109_" gradientUnits="userSpaceOnUse" x1="246.946" y1="327.1241" x2="391.3688" y2="327.1241">
			<stop  offset="0.4118" style="stop-color:#E3F4FF"/>
			<stop  offset="0.7063" style="stop-color:#E1F3FF"/>
			<stop  offset="0.8516" style="stop-color:#D9F0FF"/>
			<stop  offset="0.9639" style="stop-color:#CCEAFF"/>
			<stop  offset="1" style="stop-color:#C6E7FF"/>
		</linearGradient>
		<path style="opacity:0.25;fill:url(#SVGID_00000007396403441918118360000006677704377998162109_);" d="M391.4,398.7
			c-9.5,3.6-18.9,7.3-28.4,10.9c-0.2-0.1-0.4-0.1-0.5-0.2c-1.9-0.7-3.6-1.7-4.9-2.8c-11.9,0-23.8,0-35.8,0c-12.9,0-25.8,0-38.7,0
			c-0.7,1-1.4,2.1-2.1,3.1c-11.3-3.6-22.6-7.3-34-10.9c0-51.4,0-102.7,0-154.1h144.4V398.7z"/>
		<g>
			<path class="st21" d="M242.9,398.7c0,0,0-154.1,0-154.1v-2.2c4.2-1.9,8.7-3.8,13-5.1c36.3-10.9,80.6-11.8,117.3-2.8
				c6.1,1.6,12.2,3.4,18.1,6.1c0,0,4,1.8,4,1.8s0,2.2,0,2.2v154.1h-8V244.6c0,0,4,4,4,4c-5.8,2.7-11.9,4.4-18.1,6.1
				c-29.6,7.3-60.2,7.6-90.3,3.4c-12.2-1.9-24.6-4.6-36.1-9.4c0,0,4-4,4-4s0,154.1,0,154.1H242.9L242.9,398.7z"/>
		</g>
		<g>
			<polygon class="st18" points="375.9,332.5 387.6,294.3 409.1,288.9 404.3,300.8 397.6,299.6 383.8,334.9 375.9,332.5 			"/>
			<polygon class="st19" points="392.3,293.1 387.6,294.3 381.7,313.8 377.1,328.6 379,329.6 379,329.6 384.7,332.5 385.9,329.6 
				381.6,328.3 392.3,293.1 			"/>
			<polygon class="st19" points="399.2,295.5 397.6,299.6 404.3,300.8 406.2,296 399.2,295.5 			"/>
			<path class="st18" d="M350.7,414.9l21.4-88.9l18.1,9.3l-29.1,80.5C361.2,415.9,354.7,419.9,350.7,414.9L350.7,414.9z"/>
			<path class="st19" d="M372.1,326l-12.7,52.8l-0.7,2.8l-0.8,3.4l-7.2,29.9c1.5,1.8,3.2,2.4,4.9,2.5c0.1,0,0.2,0,0.3,0
				c0.1,0,0.2,0,0.3,0c2.7-0.1,5-1.5,5-1.5l0.7-2c-0.9-0.4-1.9-1-2.7-2l19.9-82.3l-1.9-1l0,0L372.1,326L372.1,326z"/>
		</g>
	</g>
	<g>
		<path class="st3" d="M281.6,196.5c9.3,11.2,22.7,18.8,37.2,20.1c4.8,0.5,9.7,0.4,14.5-0.3C314.3,222.4,291.7,213.7,281.6,196.5
			L281.6,196.5z"/>
		<path class="st3" d="M202.3,286.9c-11.8,8.4-15.7,22.5-9.2,35.6C183.5,310.8,188.4,292.7,202.3,286.9L202.3,286.9z"/>
	</g>
</g>
</svg>
