<?xml version="1.0" encoding="utf-8"?>
<!-- Generator: Adobe Illustrator 26.0.1, SVG Export Plug-In . SVG Version: 6.00 Build 0)  -->
<svg version="1.1" id="Layer_1" xmlns="http://www.w3.org/2000/svg" xmlns:xlink="http://www.w3.org/1999/xlink" x="0px" y="0px"
	 viewBox="0 0 700 650" style="enable-background:new 0 0 700 650;" xml:space="preserve">
<style type="text/css">
	.st0{clip-path:url(#SVGID_00000031895829422182053490000014098600518656712091_);}
	.st1{fill:#E9D3AF;}
	.st2{fill:#C6A27B;}
	.st3{fill:#D5B792;}
	.st4{fill:#E09A61;}
	.st5{fill:#C47947;}
	.st6{fill:#FFFFFF;}
	.st7{fill:#8A5D3B;}
	.st8{fill:#3B2314;}
	.st9{fill:#DC2428;}
	.st10{fill:none;stroke:#F8AE38;stroke-width:3.1794;stroke-miterlimit:10;}
	.st11{fill:#E2DCDC;}
	.st12{fill:#C6C6C6;}
	.st13{fill:#F2F2F2;}
	.st14{clip-path:url(#SVGID_00000031895829422182053490000014098600518656712091_);fill:#FFFFFF;}
	.st15{clip-path:url(#SVGID_00000031895829422182053490000014098600518656712091_);fill:#96511D;}
	.st16{fill:#ABA1A5;}
	.st17{fill:#C3BCBE;}
	.st18{fill:#DCD8D9;}
	.st19{fill:#DE8A00;}
	.st20{fill:#E39C33;}
	.st21{fill:#DA7200;}
	.st22{fill:#E83F12;}
	.st23{fill:#2D2A37;}
	.st24{fill:#45424D;}
	.st25{fill:#050311;}
	.st26{fill:#F97D19;}
	.st27{fill:#F46839;}
	.st28{fill:#F04E12;}
	.st29{fill:#E6E4E5;}
	.st30{fill:#005388;}
	.st31{fill:#FF7629;}
	.st32{fill:#FF5F00;}
	.st33{fill:#7E1620;}
	.st34{fill:#EFAD9B;}
	.st35{fill:#882730;}
	.st36{fill:#EBDEC4;}
	.st37{fill:#F8B674;}
</style>
<g>
	<defs>
		<path id="SVGID_1_" d="M179.7,100c-10.8,10-21,21.6-27.7,33.4c-14.1,24.8-15.2,60.3-11,87.4c2.9,18.7,15.6,44.7,9.4,63.7
			c-8.5,25.7-53.1,24.6-74.8,31.1c-20,5.9-39,20.4-49.2,38.1c-31.3,54.3,6.3,83.4,25.2,107.7c21.4,27.6-25.2,61,1.6,88.5
			c28,28.8,61.7,40.8,117.7,40.8c110.9,0,135.8,8.3,289.5-2.1c29.1-2,67.9-8.3,97-11.3c43.8-4.5,151.9-40.8,123.7-109.5
			c-20.9-50.8-130.5-43-93.7-112.5c24-45.5,69.2-108.6,13-148.7c-40.8-29.2-66.9-45.9-90.5-90c-25.9-48.3-62.3-74.4-119.5-79
			c-31-2.5-62.4-2.3-92.8,4.3c-37.1,8-73.8,23.4-103.6,46.2C189.2,91.6,184.4,95.7,179.7,100z"/>
	</defs>
	<clipPath id="SVGID_00000108287336573397825160000007851595403830560164_">
		<use xlink:href="#SVGID_1_"  style="overflow:visible;"/>
	</clipPath>
	<g style="clip-path:url(#SVGID_00000108287336573397825160000007851595403830560164_);">
		<path class="st1" d="M162.2,75c-12,10.5-23.2,22.7-30.6,35.1c-15.5,26.1-16.8,63.3-12.1,91.8c3.2,19.7,17.2,47,10.4,66.9
			c-9.3,27-58.5,25.9-82.5,32.6c-22,6.2-43,21.5-54.2,40.1c-34.5,57,7,87.6,27.7,113.1c23.6,29-27.8,64.1,1.7,93
			c30.9,30.2,68.1,42.8,129.8,42.8c122.3,0,149.7,8.7,319.1-2.2c32.1-2.1,74.9-8.7,106.9-11.9c48.3-4.7,167.5-42.9,136.4-115.1
			c-23-53.4-143.8-45.2-103.3-118.2c26.5-47.8,76.3-114,14.4-156.2c-44.9-30.6-73.7-48.2-99.8-94.6c-28.6-50.7-68.6-78.2-131.7-83
			c-34.1-2.6-68.8-2.4-102.3,4.6c-40.9,8.4-81.4,24.6-114.2,48.6C172.7,66.3,167.4,70.5,162.2,75z"/>
		<g>
			<path class="st2" d="M580.2,465.9c-4.7-43.4,56.6-47.2,50.8-6.2c13.5-27.4,51.3-0.5,40.9,30.5c11-2.4,19.8,8.5,24,20.1
				c5.1,14.2,1.3,24.5-6.5,36c10.6-0.2,21.7,11.1,22.4,24.4c1,19.2-1.5,24.9-10,35.1c11.7,1.4,15.3,18.7,14.9,31.5
				c-0.5,19.7-8.5,24-22.6,27.2c-16.6,3.8-30.4,4-47.2,1.5c-14.1-2.1-29.2-8.2-43.8-8.1c-23.9,0.3-47.6-3.3-71.2-7.4
				c-15.9-2.7-38.3-1.1-48.6-18.5c-8.4-14.1-11.4-32-5.8-48.2c3-8.8,18.6-33,27.7-17.5c-12.9-12.8-13-25.2-9-39.8
				c4-14.7,18-27.6,30.1-20c-8.1-19-1-39.3,13.4-51.5C539.5,455.1,565.2,434.2,580.2,465.9z"/>
			<path class="st2" d="M142.6,451.3c-4.7-43.4,56.6-47.2,50.8-6.2c13.5-27.4,51.3-0.5,40.9,30.5c11-2.4,19.8,8.5,24,20.1
				c5.1,14.2,1.3,24.5-6.5,36c10.6-0.2,21.7,11.1,22.4,24.4c1,19.2-1.5,24.9-10,35.1c11.7,1.4,15.3,18.7,14.9,31.5
				c-0.5,19.7-8.5,24-22.6,27.2c-16.6,3.8-30.4,4-47.2,1.5c-14.1-2.1-29.2-8.2-43.8-8.1c-23.9,0.3-47.6-3.3-71.2-7.4
				c-15.9-2.7-38.3-1.1-48.6-18.5c-8.4-14.1-11.4-32-5.8-48.2c3-8.8,18.6-33,27.7-17.5c-12.9-12.8-13-25.2-9-39.8
				c4-14.7,18-27.6,30.1-20c-8.1-19-1-39.3,13.4-51.5C101.8,440.5,127.6,419.6,142.6,451.3z"/>
			<path class="st2" d="M340.6,504.1c-21.7-29.3,12.7-69.6,36.1-46.2c-19.5-47,48.8-73.6,51.3-23.9c17.2-26.7,56.4-12.4,47.7,24.3
				c33.1-12.1,49.1,41,29.1,60.5c17.3,5,20.3,36.7,7.8,48.8c-11.3,11-39.3,8.4-54,8.4c-19.5,0-39.2-1.4-58.2-3.4
				c-21.5-2.2-55.3,5.9-73.1-13.4c-7.9-8.5-16.8-16.2-12.8-40.4C316.1,509.5,333.2,489,340.6,504.1z"/>
		</g>
		<path class="st3" d="M734.5,601.1c0,35.3-173.4,63.9-387.4,63.9c-213.9,0-387.4-28.6-387.4-63.9c0-35.3,173.4-63.9,387.4-63.9
			C561,537.2,734.5,565.8,734.5,601.1z"/>
	</g>
	<g style="clip-path:url(#SVGID_00000108287336573397825160000007851595403830560164_);">
		<g>
			<g>
				<g>
					<g>
						<g>
							<polygon class="st4" points="374.6,407 333.5,407 333.9,403.3 334.6,396 334.6,396 336.3,378.7 337.7,365.5 370.4,365.5 
								371.7,378.1 373.4,395.3 373.5,396.1 374.3,403.6 							"/>
							<path class="st5" d="M371.7,378.1c-3.5,2.9-6.9,4.7-9.6,5.9c-0.7,0.3-1.5,0.5-2.4,0.4c-1.9-0.1-3.9-0.1-6-0.1
								c-2.1,0-4.1,0-6.1,0.1c-0.8,0-1.6-0.1-2.4-0.4c-2.5-1.1-5.7-2.7-8.9-5.3l1.3-13.1h32.7L371.7,378.1z"/>
						</g>
						<g>
							<path class="st4" d="M383,333.4c9.6-4.3,6,10.2,4.1,15.3c-0.7,1.9-1.4,6.9-5.1,6.2L383,333.4z"/>
							<path class="st4" d="M324.5,333.4c-9.6-4.3-6,10.2-4.1,15.3c0.7,1.9,1.4,6.9,5.1,6.2L324.5,333.4z"/>
						</g>
						<path class="st4" d="M383.2,335.8c-0.4,5.8-0.6,11.7-0.7,16.7c-0.3,2.6-1,6.4-3,10.7c-0.7,1.4-2.5,5.1-6,8.9
							c-4.2,4.5-8.7,7-12,8.4c-0.7,0.3-1.5,0.5-2.3,0.4c-1.8-0.1-3.6-0.1-5.5-0.1c-1.9,0-3.7,0-5.4,0.1c-0.8,0-1.6-0.1-2.3-0.4
							c-3.3-1.4-7.8-4-12-8.4c-3.5-3.8-5.4-7.5-6-8.9c-2-4.3-2.7-8.1-3-10.7c-0.2-5-0.3-10.9-0.7-16.7c-2.2-10.4,1.1-23.7,4.9-30.1
							c3.4-4.5,15.6-1.7,24.7-1.7c9.1,0,21.3-2.8,24.7,1.7C382.1,312.1,385.4,325.5,383.2,335.8z"/>
						<g>
							<path class="st6" d="M346.2,338.8c-1.1,0.6-3.5,1.6-6.6,1.4c-4-0.2-6.8-2.2-7.7-2.9c1.4-1.3,3-2.2,4.7-2.6
								c1.7-0.4,3.5-0.4,5.1,0.2c0.4,0.1,0.7,0.3,1.1,0.5C344.7,336.5,345.8,338.1,346.2,338.8z"/>
							<path class="st7" d="M343.2,337.2c-0.1,1.8-2.3,3.1-4.2,2.9c-1.9-0.2-3.6-2-3.3-3.9c0.1-0.6,0.4-1.1,0.8-1.5
								c1.7-0.4,3.5-0.4,5.1,0.2c0.4,0.1,0.7,0.3,1.1,0.5C343,335.9,343.3,336.5,343.2,337.2z"/>
							<path d="M337.8,336.7c0,1.1,0.9,2,2,2c1.1,0,2-0.9,2-2c0-1.1-0.9-2-2-2C338.7,334.7,337.8,335.6,337.8,336.7z"/>
							<path class="st6" d="M336.9,336.4c0,0.4,0.3,0.7,0.7,0.7s0.7-0.3,0.7-0.7c0-0.4-0.3-0.7-0.7-0.7S336.9,335.9,336.9,336.4z"/>
							<path class="st8" d="M347.5,326.7c-4.7-1.1-10.5-1.7-16.2-1.1c-1,0.1-2.7,0.9-3.2,2.5c-0.4,1,0,2,0.2,2.6
								c0.6-0.4,1.6-0.9,2.9-1.4c1.8-0.6,3.6-0.8,8-0.4c2.1,0.2,4.9,0.5,8.2,1.1c0.1-0.3,0.2-0.6,0.2-1
								C347.7,328,347.6,327.2,347.5,326.7z"/>
							<path class="st8" d="M346.2,338.8c-0.6-0.6-3-3.1-7.1-3.5c-3.8-0.3-6.4,1.5-7.2,2c0.1-0.2,3-3.8,7.7-3.2
								C344.1,334.6,346.1,338.5,346.2,338.8z"/>
						</g>
						<g>
							<path class="st6" d="M361.3,338.8c1.1,0.6,3.5,1.6,6.6,1.4c4-0.2,6.8-2.2,7.7-2.9c-1.4-1.3-3-2.2-4.7-2.6
								c-1.7-0.4-3.5-0.4-5.1,0.2c-0.4,0.1-0.7,0.3-1.1,0.5C362.8,336.5,361.7,338.1,361.3,338.8z"/>
							<path class="st7" d="M364.3,337.2c0.1,1.8,2.3,3.1,4.2,2.9c1.9-0.2,3.6-2,3.3-3.9c-0.1-0.6-0.4-1.1-0.8-1.5
								c-1.7-0.4-3.5-0.4-5.1,0.2c-0.4,0.1-0.7,0.3-1.1,0.5C364.4,335.9,364.2,336.5,364.3,337.2z"/>
							<path d="M369.7,336.7c0,1.1-0.9,2-2,2c-1.1,0-2-0.9-2-2c0-1.1,0.9-2,2-2C368.8,334.7,369.7,335.6,369.7,336.7z"/>
							<path class="st6" d="M370.6,336.4c0,0.4-0.3,0.7-0.7,0.7c-0.4,0-0.7-0.3-0.7-0.7c0-0.4,0.3-0.7,0.7-0.7
								C370.2,335.6,370.6,335.9,370.6,336.4z"/>
							<path class="st8" d="M360,326.7c4.7-1.1,10.5-1.7,16.2-1.1c1,0.1,2.7,0.9,3.2,2.5c0.4,1,0,2-0.2,2.6
								c-0.6-0.4-1.6-0.9-2.9-1.4c-1.8-0.6-3.6-0.8-8-0.4c-2.1,0.2-4.9,0.5-8.2,1.1c-0.1-0.3-0.2-0.6-0.2-1
								C359.7,328,359.9,327.2,360,326.7z"/>
							<path class="st8" d="M361.3,338.8c0.6-0.6,3-3.1,7.1-3.5c3.8-0.3,6.4,1.5,7.2,2c-0.1-0.2-3-3.8-7.7-3.2
								C363.4,334.6,361.4,338.5,361.3,338.8z"/>
						</g>
						<path d="M385.2,296.8c-3.7-6-17.9-12.4-31.5-12.5c-13.6,0.1-27.9,6.6-31.5,12.5c-7.8,7.8-6.3,28.4-3.2,37.1
							c0,0,1.2-2.3,5.5-0.5c-1.1-5.5,0.5-22.2,6-28.6c5.7-1.7,13.1-0.7,23.3-0.2c10.2-0.5,17.6-1.5,23.3,0.2
							c5.4,6.4,7.1,23.2,6,28.6c4.3-1.8,5.5,0.5,5.5,0.5C391.5,325.2,393,304.6,385.2,296.8z"/>
						<g>
							<g>
								<path class="st5" d="M359.3,354.6l-2.7,1.4c-1.7,0.8-3.7,0.8-5.4,0l-2.7-1.4l4.6,0.7c0.6,0.1,1.1,0.1,1.7,0L359.3,354.6z"/>
							</g>
						</g>
						<g>
							<path class="st5" d="M361.2,365.9c-2.1,0.7-8,2.6-14.6,0c-1.2-0.5-3.9-1.6-3.7-2.3c0.2-0.7,4,0,10.8,0.1
								c7.1,0.1,11.3-0.6,11.5,0.1C365.3,364.6,361.7,365.8,361.2,365.9z"/>
						</g>
						<g>
							<path class="st5" d="M357.9,371.7c0,0.3-1.7,0.5-3.8,0.5c-2.1,0-3.8-0.2-3.8-0.5c0-0.3,1.7-0.5,3.8-0.5
								C356.2,371.2,357.9,371.5,357.9,371.7z"/>
						</g>
					</g>
				</g>
				<g>
					<polygon class="st8" points="354.9,359.5 354.9,361.9 368.9,361.9 					"/>
					<path class="st8" d="M352.5,359.5v2.4c-2.5,0-5.1,0-7.6,0c-2.2,0-4.3,0-6.5,0c0,0,6.9-1.2,7-1.2
						C345.4,360.7,352.4,359.5,352.5,359.5z"/>
				</g>
				<g>
					<g>
						<polygon points="390.5,304.6 316.9,304.6 321,278.3 386.4,278.3 						"/>
						<g>
							<path class="st9" d="M275.6,303.2l1.8-7.2c0,0,0.3,0.1,1.1,0.3l0,0c0.7,0.2,1.9,0.4,3.3,0.7l0,0c3,0.6,7.4,1.4,13.3,2.2l0,0
								c11.7,1.6,28.9,3.2,50.9,3.2l0,0c22,0,48.8-1.6,79.7-6.4l0,0l1.1,7.3c-31.3,4.9-58.4,6.5-80.8,6.5l0,0
								C301.3,309.8,275.9,303.3,275.6,303.2L275.6,303.2z"/>
						</g>
					</g>
				</g>
			</g>
		</g>
		<path class="st10" d="M325.9,389.9"/>
		<g>
			<path class="st6" d="M438.5,550.2c-4.9,1.3-9.3-0.6-11.7-1.5c-21.1-7.7-29.8-38.2-31.2-43.4c2.6,18.8,4.4,39.1,4.9,60.7
				c0.1,6.2,0.1,12.2,0.1,18.1c-30.2-0.7-60.5-1.5-90.7-2.2c-0.5-12.3-0.8-25-0.7-38.2c0-11.4,0.3-22.4,0.7-33.1
				c-14.6,23.7-32.8,37.9-44,33.9c-10.4-3.8-13-22.8-15.3-43.4c-2.2-19.4-0.3-33.3,1.8-47.9c2.8-19.3,5.9-39.5,16.3-42.2
				c2.1-0.5,4-0.3,5.3,0.1c0.2,0.1,2.5,2.2,5.2,1.4c1.1-0.3,1.8-1,2.1-1.4c3.5-1.1,6.9-2.2,10.4-3.3c11.4-3.7,22.9-7.4,34.3-11.1
				c1.2-2.3,2.5-4.7,3.7-7c0.9-0.2,19.2-3.5,23.6,4.5c0.4,0.7,0.7,1.5,0.8,2.5c0.2-0.9,0.6-1.7,1-2.4c5-7.9,22.7-3.9,23.9-3.6
				c0.5,2,1,4,1.6,6c18.4,4.8,36.8,9.6,55.2,14.4c1.6-0.7,3.9-1.3,6.3-0.8c5.7,1.3,11,8.7,15.6,36.7c8.1,49.6-0.5,75.6-3.4,83.3
				C450.4,540.9,445.7,548.4,438.5,550.2z"/>
		</g>
	</g>
	<g style="clip-path:url(#SVGID_00000108287336573397825160000007851595403830560164_);">
		<polygon class="st9" points="413.6,580 296.1,580 306,542.2 403.8,542.2 		"/>
		<g>
			<path class="st6" d="M351.9,391.5c-4.6-4.8-23.6-3.2-23.6-3.2l-3,7.3l29.6,1.4C354.9,397.1,353.2,392.9,351.9,391.5z"/>
			<path class="st6" d="M356.5,391.5c4.6-4.8,23.6-3.2,23.6-3.2l3.8,7.5l-30.5,1.2C353.5,397.1,355.2,392.9,356.5,391.5z"/>
		</g>
		<polygon class="st6" points="303.6,542.2 354.8,542.2 354.8,397 325.3,395.7 320.5,397.1 289.7,458.9 		"/>
		<polygon class="st6" points="406.1,542.2 354.8,542.2 354.8,397 384.4,395.7 389.2,397.1 420,458.9 		"/>
		<rect x="352.5" y="398.9" class="st11" width="2.5" height="143.2"/>
		<g>
			<polygon points="338.6,404.1 346.7,526.9 294.9,535.7 273.9,411.1 320.5,397.1 			"/>
			<polygon points="371.1,404.1 363,526.9 414.8,535.7 435.8,411.1 389.2,397.1 			"/>
		</g>
	</g>
	<g style="clip-path:url(#SVGID_00000108287336573397825160000007851595403830560164_);">
		<g>
			<path class="st5" d="M310.3,375.9c0.3-2.2,0.3-4.4-0.1-6.6c-0.2-1.2-0.5-2.4-1.6-3c-0.4-0.2-0.8-0.3-1.3-0.3
				c-1.1-0.1-2.3,0.2-2.9,1.1c-0.4,0.6-0.6,1.4-0.6,2.1c-0.3,2.7-0.5,5.4-0.5,8.1c2-0.1,4.2-0.3,6.1-0.4
				C309.9,376.7,309.7,376,310.3,375.9z"/>
			<path class="st12" d="M334.6,369.5c2.7-1.1,7.1-2.4,12.6-2.1c4.3,0.2,10.8,1.6,10.9,3.4c0,1.9-7.4,4.6-14.4,3.7
				c-4-0.5-7.1-2.1-9.1-3.3c-16.9-1.5-33.7-3.1-50.6-4.6c0.4-1.2,0.9-2.4,1.3-3.6C301.7,365.2,318.1,367.4,334.6,369.5z"/>
			<path class="st5" d="M301.5,402.7c2.8-2.1,4.8-5.2,5.6-8.6s0.4-7.1-1.1-10.2c-2.7,0.2-5.2,1.6-6.6,3.9c-1.4,2.3-1.7,5.1-1.3,7.7
				C298.6,398.1,300.1,400.4,301.5,402.7z"/>
			<path class="st4" d="M286.4,414.1c0.9-9.2-1.3-18.7-6.1-26.7c-0.6-0.9-1.2-1.9-1.2-2.9c-0.1-1.7,1-3.2,2.1-4.5
				c0.7-4.3,4.2-7.3,7.5-10.1c2-1.8,4.1-3.6,6.4-5c1.4-0.9,2.9-1.6,4.4-2.3c2.4-1.2,4.7-2.3,7.1-3.5c0.8-0.4,1.8-0.8,2.6-0.4
				c0.9,0.4,1.1,1.6,0.8,2.6s-1.1,1.6-1.8,2.3c-2,1.8-4,3.6-6.4,5c4.4,1.3,8.6,3.4,12.4,6.2c0.6,0.5,1.3,1,1.5,1.7
				c0.2,0.7-0.2,1.7-1,1.8c1,0.9,1.4,2.2,2.1,3.3c0.6,1,1.1,2.1,0.8,3.2c-0.2,0.8-0.9,1.5-1.7,1.7c-0.8,0.2-1.7-0.1-2.3-0.7
				c0.5,0.8,0.8,1.6,1,2.5c0.1,0.5,0.2,1,0,1.4c-0.3,0.6-0.9,0.8-1.5,0.8c-0.6,0-1.2-0.3-1.7-0.5c-0.7-0.4-1.4-0.8-2-1.3
				c-0.2-0.2-0.5-0.4-0.7-0.4c-0.5-0.1-1,0.3-1.4,0.6c-1.3,1.1-2.8,2-4.3,2.8c-0.1,1.6-0.2,2.8-0.1,4.4c2.3,2.7,3.7,6.4,4,10
				c0.2,3.6-0.8,7.2-2.8,10.2C297.7,415.4,292.4,414.8,286.4,414.1z"/>
		</g>
		<path class="st13" d="M308.5,419.4c-0.3,7.6-0.8,19.2-0.9,33.4c-0.5,50.5-1.5,67.6-9.8,83.7c-1.2,2.4-9.7,9.5-21,10
			c-1.6,0.1-7,0.3-10.9-1.8c-3.3-1.8-12-8.9-6-50.8c2.7-18.9,8.5-45.9,22.4-77.6c0.7-0.6,7.8-6.3,16.5-3.8
			C304.4,414,307.5,418.1,308.5,419.4z"/>
		<path class="st13" d="M282.3,416.3c-1.8-0.9-5.9-3.4-8.8-8.3c-3.2-5.4-3.2-10.7-3.1-12.7c5.8,1.5,14.2,3.3,24.6,4
			c13,0.9,20.4-0.5,22.4,3.1c1.3,2.3,0.5,6.9-8.9,17C299.7,418.4,291,417.3,282.3,416.3z"/>
	</g>
	<path style="clip-path:url(#SVGID_00000108287336573397825160000007851595403830560164_);fill:#FFFFFF;" d="M460.2,503.4
		c-0.6,7.4-1.1,14.9-1.5,22.5c-1.6,28-2.2,55.1-2,81.1c-14.4,0.6-28.7,1.1-43.1,1.7c-0.5-9.9-1.1-19.8-1.7-29.9
		c-1-15-2.1-29.7-3.3-44.2c3.1,1.4,6.1,2.8,9.2,4.3C431.9,527.1,446.1,515.3,460.2,503.4z"/>
	<path style="clip-path:url(#SVGID_00000108287336573397825160000007851595403830560164_);fill:#96511D;" d="M525.4,599.9
		l-33.5-37.1c-3.7-4.1-13.2-6.9-23.7-6.9h-240c-10.5,0-20,2.7-23.7,6.9l-33.5,37.1c-2.3,2.5-1.7,5.1,0.9,7.2h352.7
		C527,605,527.6,602.4,525.4,599.9z"/>
	<g style="clip-path:url(#SVGID_00000108287336573397825160000007851595403830560164_);">
		<g>
			<path class="st16" d="M369.4,562.3c-0.4,0.1-1.3-1.8-2.4-4.9c-0.1-0.4-0.3-0.8-0.4-1.2c-0.1-0.4-0.3-0.9-0.4-1
				c-0.1-0.1-0.1-0.1-0.1-0.1c0,0-0.1,0-0.2,0c-0.3,0-0.7,0.1-1.3,0.2c-2.3,0.5-4.8,1.3-7.3,2.3c-1.2,0.5-2.4,1.1-3.5,1.6
				c-0.6,0.3-1.1,0.6-1.6,0.9c-0.3,0.2-0.5,0.3-0.8,0.4l-0.4,0.2l-0.2,0.1c-0.1,0-0.1,0-0.1,0.1c-0.4,0.2-0.6,0.8-0.3,1.2
				c0,0.1,0.1,0.2,0.2,0.3c0.1,0,0.1,0.1,0.2,0.1l0.3,0.2c0.4,0.3,0.8,0.5,1.2,0.7c3,1.8,5.1,2.8,4.9,3.2c-0.1,0.3-2.6,0-6.1-1.4
				c-0.4-0.2-0.9-0.4-1.4-0.6c-0.1-0.1-0.2-0.1-0.4-0.2c-0.1-0.1-0.3-0.2-0.5-0.3c-0.3-0.2-0.6-0.5-0.8-0.8
				c-0.5-0.6-0.7-1.4-0.6-2.2c0.1-0.8,0.5-1.6,1.3-2.2c0.1-0.1,0.2-0.2,0.3-0.2l0.2-0.1l0.4-0.3c0.3-0.2,0.5-0.3,0.8-0.5
				c0.5-0.3,1.1-0.7,1.7-1c1.2-0.7,2.5-1.3,3.8-1.8c2.7-1.1,5.5-1.9,8-2.3c0.6-0.1,1.4-0.2,2.3-0.1c0.4,0.1,1,0.2,1.4,0.5
				c0.5,0.3,0.8,0.6,1,1c0.4,0.7,0.4,1.3,0.5,1.7c0.1,0.4,0.1,0.9,0.2,1.3C369.8,560.2,369.9,562.2,369.4,562.3z"/>
		</g>
		<path class="st17" d="M449.7,573c0-8.7-22-15.7-49.1-15.7c-27.1,0-49.1,7-49.1,15.7c0,5.4,10.8,15.5,13.3,17.8
			c3.4,3.1,16,7.7,35.8,7.7c19.8,0,32.2-4.7,35.8-7.7C439.4,588.2,449.7,578.4,449.7,573z"/>
		<ellipse class="st18" cx="400.5" cy="573" rx="46.8" ry="14.1"/>
		<path class="st16" d="M385.9,589.4c-5.6-0.6-11.5-0.9-17.4-3.2c2.3,2.8,4.9,6.2,7.2,9.6c3.6,1,8.1,1.8,13.2,2.4
			C387.8,595.2,386.8,592.3,385.9,589.4z"/>
		<g>
			<path class="st19" d="M446.9,573.6c-0.2-0.2-0.7-0.3-1-0.3c-0.1-0.1-0.2-0.2-0.4-0.3c-0.3-0.2-0.8-0.4-1.2-0.6c0-0.1,0-0.3,0-0.4
				c0-0.4-0.3-0.7-0.3-1.1c-0.2-0.8-1.3-1-2-0.6c-0.2-0.2-0.3-0.5-0.5-0.7c-0.4-0.5-1.2-0.3-1.6,0.2c-0.3-0.4-0.7-0.8-1.3-0.9
				c-0.5-0.2-1.1,0.1-1.4,0.4c-0.1,0-0.2-0.1-0.2-0.1c-0.2-0.1-0.5-0.1-0.7-0.2c-0.2-0.4-0.4-0.8-0.8-1.2c-0.6-0.6-1.6-1.1-2.6-0.8
				c-0.4,0.1-0.7,0.4-0.9,0.7c-0.1-0.1-0.3-0.3-0.5-0.4c-0.6-0.3-1.3-0.4-2-0.4c-0.3,0-0.7,0-1,0.1c0,0,0,0,0,0
				c-0.6-0.9-1.4-1.5-2.4-2.1c-0.6-0.4-1.3,0.1-1.4,0.6c-0.5-0.4-1.1-0.7-1.6-0.8c-0.6-0.2-1.5,0.1-1.8,0.6
				c-0.2,0.3-0.2,0.6-0.2,0.9c-0.3-0.5-0.8-0.8-1.4-1.1c-0.3-0.2-0.6-0.3-1-0.4c-0.3-0.1-0.7-0.1-1-0.1c-0.2,0-0.4,0-0.6,0.1
				c-0.7-0.8-1.7-1.4-2.6-1.9c-0.3-0.2-0.8-0.2-1,0c-0.1,0-0.1,0.1-0.2,0.1c0,0,0,0,0,0c-0.3,0.2-0.4,0.6-0.3,0.9c0,0,0,0,0,0
				c-0.3,0.1-0.5,0.2-0.8,0.4c-0.2,0.1-0.4,0.3-0.6,0.5c0,0,0,0-0.1,0.1c-0.1-0.3-0.4-0.5-0.7-0.7c-0.2-0.1-0.4-0.3-0.6-0.4
				c-0.2-0.1-0.5-0.2-0.7-0.2c-0.3-0.1-0.6-0.1-0.9,0.1c-0.2,0.2-0.4,0.5-0.3,0.7c0.1,0.3,0.3,0.7,0.5,1c-0.1-0.1-0.1-0.1-0.2-0.1
				c-0.3-0.1-0.5-0.2-0.8-0.3c0.1-0.9-0.8-1.8-2.1-1.6c-0.3,0-0.9,0.2-1.6,0.4c0,0-0.1-0.1-0.1-0.1c-0.3-0.3-0.8-0.6-1.2-0.8
				c-0.4-0.2-0.9-0.4-1.1-0.5c-0.6-0.3-1.4-0.2-1.8,0.3c-0.5,0.5-0.3,1.1,0.1,1.6c0.1,0.1,0.2,0.2,0.3,0.3c-0.1,0-0.2-0.1-0.3-0.1
				c-0.1,0-0.1,0-0.2-0.1c0,0,0,0-0.1,0c-0.1,0-0.2-0.1-0.2-0.1c0,0-0.1,0-0.1-0.1c0.1,0.1,0.1,0.1,0,0c-0.1,0-0.1,0,0,0
				c-0.1,0-0.1-0.1-0.2-0.1c-0.1,0-0.1,0-0.2-0.1c0,0,0,0,0,0c0,0,0,0,0,0c-0.1,0-0.1,0-0.2-0.1c0.1,0,0.1,0,0.2,0.1
				c-0.4-0.3-0.8-0.4-1.3-0.2c-0.4,0.1-0.8,0.6-0.7,1c0,0.1,0,0.3,0.1,0.4c0,0.2,0.1,0.4,0.2,0.6c0,0.1,0.1,0.2,0.2,0.2
				c-0.4,0-0.8,0-1.3,0c0.1-0.7-0.4-1.2-0.8-1.7c0,0,0,0,0-0.1c-0.1-0.1-0.1-0.2-0.2-0.3c-0.2-0.2-0.3-0.3-0.4-0.5
				c-0.5-0.7-1.7-0.6-2,0.2c-0.1,0.2-0.1,0.4-0.1,0.5c-0.9-0.5-2.2-0.7-3-0.9c-0.7-0.2-1.5,0.2-1.7,0.7c0,0.1-0.1,0.1-0.1,0.2
				c-0.1-0.1-0.1-0.2-0.2-0.3c0.1,0.1,0,0.1,0-0.1c-0.1-0.2-0.1-0.3-0.2-0.5c-0.2-0.6-0.9-1-1.6-0.9c-0.7,0.1-1.2,0.6-1.2,1.2
				c0,0.5,0,1,0.1,1.5c-0.7-0.4-1.4-0.7-2.2-0.8c-0.7-0.1-1.6,0.4-1.3,1.1c0.1,0.3,0.2,0.5,0.4,0.8c0,0,0.1,0.1,0.1,0.1
				c-0.2-0.1-0.4-0.1-0.6-0.2c0,0,0,0,0,0c0,0,0-0.1,0-0.1c-0.3-1-1.9-1.6-3-1.5c-0.8,0-1.1,0.7-0.8,1.2c0.1,0.3,0.4,0.6,0.7,0.8
				c0,0,0,0.1,0,0.1c-1-0.1-2.1,0.1-2.9,0.5c-0.5,0.3-0.7,0.8-0.5,1.2c-0.2,0-0.3,0.1-0.4,0.1c0-0.1-0.1-0.3-0.1-0.4
				c0-0.1,0-0.1,0-0.2c-0.1-0.6-1-1.1-1.6-0.6c0,0,0,0-0.1,0.1c0.1-0.4,0.1-0.8-0.3-1c-0.4-0.3-1-0.2-1.3,0.1
				c-0.5,0.4-1.4,1.2-1.8,1.9c-0.3,0-0.5,0-0.7,0c-1.1,0-1.3,1.2-0.5,1.7c0,0,0,0,0,0c-0.1,0-0.3,0.1-0.4,0.1
				c-0.2-0.4-0.5-0.7-0.7-1.1c-0.6-0.7-2.1-0.5-2,0.5c0,0.5,0,1,0.1,1.5c-0.1,0-0.2,0.1-0.4,0.1c-0.4-0.2-0.9-0.3-1.4-0.5
				c-0.6-0.2-1.3-0.3-2-0.3c-0.9,0.1-1.5,0.8-1.1,1.6c0.2,0.3,0.4,0.5,0.7,0.8c-0.3,0.2-0.6,0.3-0.9,0.5c0-0.2,0.1-0.3,0.1-0.5
				c0.1-0.5-0.5-1-1.1-0.7c-0.6,0.3-1,0.7-1.2,1.2c-0.2-0.3-0.3-0.6-0.4-0.9c-0.1-0.5-1.1-0.5-1.1,0c-0.1,0.5-0.2,1-0.1,1.5
				c-0.2,0-0.4,0-0.6,0.1c-0.5,0.2-0.8,0.6-0.8,1.1c-0.1,0.7,0.2,1.4,0.7,1.9c0.3,0.4,0.8,0.7,1.3,0.8c6.3,5.6,23.7,9.6,44.3,9.6
				c21.9,0,40.2-4.5,45.4-10.6c0-0.1-0.1-0.1-0.2-0.2c0.1-0.1,0.2-0.1,0.3-0.2c0.5-0.4,0.8-0.9,1-1.4
				C447.3,574.3,447.3,573.9,446.9,573.6z M425.7,568C425.7,568,425.7,568.1,425.7,568C425.7,568.1,425.7,568.1,425.7,568
				C425.7,568,425.7,568,425.7,568z M421.6,567.2C421.6,567.2,421.7,567.2,421.6,567.2c0.1,0.1,0.1,0.1,0.1,0.1c0,0,0.1,0.1,0.1,0.1
				c-0.1,0-0.2,0-0.2,0C421.6,567.3,421.6,567.2,421.6,567.2C421.6,567.1,421.6,567.1,421.6,567.2z M409.5,566.1c0,0-0.1,0-0.1,0
				c0-0.1,0-0.1-0.1-0.2C409.3,566,409.4,566.1,409.5,566.1z M386,566.5c0,0,0-0.1,0-0.1c0,0,0.1,0,0.1,0
				C386.1,566.5,386,566.5,386,566.5C386,566.5,386,566.5,386,566.5z"/>
		</g>
		<g>
			<g>
				<path class="st20" d="M423.1,576.7c0.7,0,1.6,0,2.2-0.3c0.2-0.1,0.4-0.5,0.1-0.7c-0.7-0.5-1.8-0.3-2.6,0
					C422.2,575.9,422.5,576.7,423.1,576.7L423.1,576.7z"/>
			</g>
			<g>
				<path class="st20" d="M426.4,577.8c0.5,0.2,1.3,0.5,1.8,0c0.2-0.1,0.2-0.4,0-0.6c-0.4-0.3-1-0.2-1.5-0.2
					C426.2,577.1,426,577.6,426.4,577.8L426.4,577.8z"/>
			</g>
			<g>
				<path class="st20" d="M428.9,579.9c0.5,0.4,1.4,0.8,1.9,0.1c0.2-0.2,0.1-0.5-0.1-0.7c-0.2-0.2-0.5-0.2-0.7-0.3
					c-0.3-0.2-0.7-0.3-1,0C428.6,579.2,428.6,579.7,428.9,579.9L428.9,579.9z"/>
			</g>
			<g>
				<path class="st20" d="M433.1,580.6c0.3,0.2,0.7,0.3,1.1,0.2c0.4-0.1,0.6-0.3,0.7-0.7c0-0.2-0.2-0.3-0.3-0.4
					c0.1,0-0.3-0.1-0.2-0.1c-0.1,0-0.3,0-0.4,0c-0.1,0-0.2,0-0.4,0C432.9,579.5,432.5,580.3,433.1,580.6L433.1,580.6z"/>
			</g>
			<g>
				<path class="st20" d="M430.3,577.8c0.6,0.2,1.5,0.3,1.7-0.4c0.1-0.2,0-0.3-0.2-0.4c-0.4-0.2-0.8,0-1.2-0.1
					C429.9,576.8,429.7,577.6,430.3,577.8L430.3,577.8z"/>
			</g>
			<g>
				<path class="st20" d="M429.6,576.8c0.3-0.1,0.7,0,1-0.3c0.1-0.1,0.2-0.4,0.1-0.6c-0.4-0.4-0.9-0.3-1.4-0.2
					C428.4,575.9,428.8,577,429.6,576.8L429.6,576.8z"/>
			</g>
			<g>
				<path class="st20" d="M436.4,572.3c0.7-0.3,1.2,0.2,1.9,0.2c0.5,0,0.8,0,1.3,0.1c0.4,0.1,0.7,0.3,1.1,0.2c0.1,0,0.2-0.1,0.2-0.2
					c0.1-0.5-0.6-0.7-1.1-0.8c-0.3,0-0.6,0-0.9,0.1c-0.3,0.1-0.5,0.4-0.8,0.5c0.1,0,0.1,0.1,0.2,0.1c0.2-1.1-1.6-0.9-2.2-0.5
					C435.8,572.1,436.1,572.4,436.4,572.3L436.4,572.3z"/>
			</g>
			<g>
				<path class="st20" d="M443,575.3c0.6-0.1,1.3,0,2,0c0.8,0,0.9-0.9,0.2-1.1c-0.9-0.3-1.7,0.1-2.4,0.5
					C442.3,574.9,442.5,575.4,443,575.3L443,575.3z"/>
			</g>
			<g>
				<path class="st20" d="M433.3,570.1c0.4,0.1,0.8,0.2,1.3,0.1c0.2,0,0.4-0.2,0.4-0.4c0-0.2-0.1-0.4-0.3-0.5
					c-0.5-0.3-1.2-0.1-1.6,0.2C432.9,569.7,433,570.1,433.3,570.1L433.3,570.1z"/>
			</g>
			<g>
				<path class="st20" d="M415.4,584.7c0.7-0.3,0.9,0.1,1.5,0.3c0.4,0.1,0.7,0,1-0.1c0.5-0.2,0.9-0.3,1.5-0.3c0.4,0,0.6,0,1-0.2
					c0.1-0.1,0.1-0.2,0.1-0.4c-0.3-1.1-2-0.6-2.7-0.2c-0.3,0.2-0.4,0.3-0.8,0.2c-0.3-0.1-0.4-0.2-0.7-0.2c-0.5,0-0.9,0.1-1.3,0.4
					C414.6,584.4,415,584.8,415.4,584.7L415.4,584.7z"/>
			</g>
			<g>
				<path class="st20" d="M425.2,584.1c0.2-0.2,0.5-0.1,0.8-0.2c0.7-0.1,0.6-1,0-1.2c-0.7-0.2-1.3,0.2-1.7,0.7
					c-0.2,0.2-0.1,0.6,0.2,0.7C424.6,584.3,424.9,584.3,425.2,584.1L425.2,584.1z"/>
			</g>
			<g>
				<path class="st20" d="M409.7,579.6c0.2-0.1,0.5-0.2,0.8-0.2c0.3,0,0.5,0.1,0.8,0c0.4-0.1,0.5-0.4,0.5-0.7
					c-0.1-0.6-0.9-0.7-1.5-0.6c-0.6,0.1-0.9,0.4-1.3,0.8C408.6,579.2,409.1,579.9,409.7,579.6L409.7,579.6z"/>
			</g>
			<g>
				<path class="st20" d="M412.6,582.1c0.4-0.1,0.8,0,1.1-0.1c0.4-0.1,0.6-0.5,0.2-0.8c-0.5-0.4-1.2-0.2-1.8,0
					C411.5,581.4,412,582.2,412.6,582.1L412.6,582.1z"/>
			</g>
			<g>
				<path class="st20" d="M399.7,581.9c0.4-0.1,1.3-0.4,1.5,0.2c0.1,0.4,0.6,0.5,0.9,0.3c0.8-0.3,1.5-0.1,2.3,0
					c0.8,0.1,1-0.9,0.4-1.2c-1.1-0.5-2.3-0.3-3.3,0.3c0.3,0.1,0.6,0.2,0.9,0.3c-0.6-1.2-1.9-1.1-3-0.5
					C399,581.5,399.2,582.1,399.7,581.9L399.7,581.9z"/>
			</g>
			<g>
				<path class="st20" d="M402.4,584.6c0.4-0.2,0.9-0.1,1.3-0.1c0.4,0.1,0.8-0.1,0.9-0.4c0.1-0.3,0-0.7-0.3-0.9
					c-1-0.4-2-0.1-2.7,0.6C401.2,584.2,401.8,584.9,402.4,584.6L402.4,584.6z"/>
			</g>
			<g>
				<path class="st20" d="M400.6,579.2c0.3,0,0.5,0,0.8,0c0.1,0,0.3,0.1,0.4,0c0.1-0.1,0.2-0.1,0,0c0.1,0,0.1,0,0.2,0
					c0.2-0.1,0.3-0.2,0.2-0.3c0-0.1-0.1-0.1-0.1-0.2c0.1,0.1-0.1-0.1-0.1-0.1c-0.1-0.1-0.4-0.2-0.6-0.2c-0.4-0.1-0.8,0-1.2,0.2
					C399.7,578.7,400.1,579.3,400.6,579.2L400.6,579.2z"/>
			</g>
			<g>
				<path class="st20" d="M401.6,575.3c0.2,0,0.4,0,0.7,0c0.1,0,0.2,0.1,0.4,0.1c0.2,0,0.3,0,0.5,0c0.3,0,0.5-0.4,0.4-0.6
					c-0.4-0.8-1.6-0.8-2.4-0.4C400.5,574.7,401,575.5,401.6,575.3L401.6,575.3z"/>
			</g>
			<g>
				<path class="st20" d="M388.4,577C388.6,576.8,388.3,576.9,388.4,577c0.2-0.1,0.2-0.1,0.3-0.1c0.1,0,0.3-0.1,0.4-0.1
					c0.3,0,0.5,0,0.8,0.1c0.7,0.3,1.6-0.5,0.9-1c-0.5-0.4-1.2-0.5-1.8-0.4c-0.6,0.2-1,0.5-1.1,1.1
					C387.9,576.8,388.1,577.1,388.4,577L388.4,577z"/>
			</g>
			<g>
				<path class="st20" d="M390.4,574.3c0.6,0,1.1,0.2,1.6,0.5c0.6,0.3,1.2-0.3,0.9-0.8c-0.3-0.4-0.8-0.7-1.4-0.8
					c-0.6-0.1-1,0.1-1.4,0.4C389.8,573.9,390,574.3,390.4,574.3L390.4,574.3z"/>
			</g>
			<g>
				<path class="st20" d="M392,571.1c0.7-0.2,1.3,0,1.9,0.1c0.6,0,0.9-0.6,0.5-1c-0.4-0.4-1-0.4-1.5-0.4c-0.6,0-1,0.3-1.4,0.6
					C391.1,570.7,391.5,571.3,392,571.1L392,571.1z"/>
			</g>
			<g>
				<path class="st20" d="M385.4,575.8c0.4-0.3,0.7,0,0.9,0.3c0.4,0.4,1.1,0.4,1.3-0.1c0.1-0.1,0.2-0.2,0.3-0.3
					c0.2-0.1,0.2-0.3,0.1-0.5c0,0,0-0.1-0.1-0.1c-0.2-0.1-0.4-0.2-0.6-0.1c-0.2,0.1-0.3,0.2-0.6,0.2c0.3,0.2,0.6,0.4,0.9,0.6
					c0-0.6-0.6-1.2-1.4-1.3c-0.7-0.1-1.4,0.2-1.7,0.8C384.2,575.7,385,576.1,385.4,575.8L385.4,575.8z"/>
			</g>
			<g>
				<path class="st20" d="M387.5,573.6c0.6-0.2,1.3-0.1,1.9-0.2c0.5-0.1,0.7-0.8,0.2-1c-0.9-0.4-1.9,0-2.5,0.6
					C386.7,573.1,387,573.7,387.5,573.6L387.5,573.6z"/>
			</g>
			<g>
				<path class="st20" d="M386.5,570.1c0.5,0.1,1-0.1,1.5,0c0.4,0.1,0.9,0.1,1.2-0.2c0.2-0.2,0.2-0.6-0.2-0.7
					c-0.2,0-0.4-0.3-0.5-0.3c-0.3-0.1-0.6-0.1-0.9-0.1c-0.6,0.1-1.1,0.4-1.3,0.8C386.2,569.9,386.3,570.1,386.5,570.1L386.5,570.1z"
					/>
			</g>
			<g>
				<path class="st20" d="M386.6,568.2c0.5-0.1,1.1,0.2,1.6-0.1c0.3-0.2,0.4-0.5,0.1-0.8c-0.3-0.3-0.8-0.3-1.2-0.2
					c-0.3,0.1-0.6,0.3-0.9,0.4C385.9,567.8,386.2,568.3,386.6,568.2L386.6,568.2z"/>
			</g>
			<g>
				<path class="st20" d="M392.6,566.2c0.5-0.1,1,0,1.5,0c0.3,0,0.5-0.3,0.5-0.5c0-0.2-0.1-0.4-0.3-0.6c-0.7-0.4-1.7-0.1-2.3,0.3
					c-0.2,0.1-0.2,0.4-0.1,0.6C392,566.2,392.3,566.3,392.6,566.2L392.6,566.2z"/>
			</g>
			<g>
				<path class="st20" d="M407.9,567.5c0.4-0.2,0.9,0,1.2,0.1c0.4,0.1,0.7-0.1,0.9-0.4c0.1-0.3,0-0.6-0.3-0.8
					c-0.4-0.2-1-0.2-1.4-0.1c-0.2,0.1-0.4,0.2-0.5,0.3c-0.2,0.1-0.2,0.3-0.4,0.4C407.1,567.3,407.5,567.7,407.9,567.5L407.9,567.5z"
					/>
			</g>
			<g>
				<path class="st20" d="M412.4,565.9c0.1,0,0.1-0.1,0.2-0.1c0,0-0.1,0,0,0c0.1,0,0.3,0.1,0.5,0.1c0.3,0.1,0.6,0.2,0.9,0.3
					c0.6,0.2,1.2-0.6,0.7-1c-0.4-0.3-0.9-0.5-1.5-0.4c-0.5,0-0.8,0.3-1.1,0.6C411.8,565.7,412.1,566,412.4,565.9L412.4,565.9z"/>
			</g>
			<g>
				<path class="st20" d="M412.9,571.2c0.4-0.1,0.9,0,1.3,0c0.5,0.1,0.8,0.1,1.2-0.1c0.2-0.1,0.2-0.2,0.2-0.4
					c-0.2-1.2-2.4-0.7-3.2-0.3C412,570.7,412.3,571.3,412.9,571.2L412.9,571.2z"/>
			</g>
			<g>
				<path class="st20" d="M416.5,569.8c0.1,0,0.1,0.1,0.2,0.1c-0.1-0.1-0.2-0.1-0.2-0.2c0.2,0.3,0.6,0.4,1,0.5c0.5,0.1,1,0,1.4-0.3
					c0.5-0.4,0.2-1.1-0.4-1.2c-0.4-0.1-0.7,0-1.1,0.1c-0.3,0.1-0.6,0.1-0.8,0.3c0.2-0.1,0.3-0.1,0.5-0.2c-0.1,0-0.1,0-0.2,0
					C416.2,568.9,416,569.5,416.5,569.8L416.5,569.8z"/>
			</g>
			<g>
				<path class="st20" d="M401,571.5c0,0.5,0.4,0.9,0.9,1c0.3,0,0.6,0,0.8,0c0.3-0.1,0.5-0.1,0.8-0.2c0.7-0.4,0.3-1.2-0.4-1.2
					c-0.3,0-0.6,0.1-0.9,0.2c0,0-0.1,0-0.1,0c0.1,0,0.1,0,0,0c0.1,0,0.2,0.1,0.2,0.2C402.2,570.6,401.1,570.8,401,571.5L401,571.5z"
					/>
			</g>
			<g>
				<path class="st20" d="M404.5,573.1c0.1,0,0.2-0.1,0.4,0c0.1,0,0.3,0.1,0.4,0.1c0.3,0,0.6-0.2,0.6-0.4c0-0.7-1.2-0.6-1.7-0.5
					C403.6,572.3,403.9,573.2,404.5,573.1L404.5,573.1z"/>
			</g>
			<g>
				<path class="st20" d="M398.7,573.6c0.3,0.1,0.6,0.1,0.9,0.1c0.2,0,0.6,0,0.7,0c0.6,0.2,1.3-0.6,0.7-1c-0.4-0.3-0.8-0.2-1.3-0.2
					c-0.4,0.1-0.8,0.1-1.2,0.3C398.2,573,398.3,573.4,398.7,573.6L398.7,573.6z"/>
			</g>
			<g>
				<path class="st20" d="M397.7,577.7c-0.1-0.3-0.2-0.4-0.6-0.5c-0.3-0.1-0.5-0.1-0.8,0c-0.6,0.1-1.2,0.5-1,1.1
					c0.1,0.3,0.4,0.4,0.7,0.4c0.3,0,0.5-0.1,0.7-0.2c0.2-0.1,0.4-0.1,0.6-0.2c0.2-0.1,0.2-0.2,0.3-0.3c0,0.1,0,0.1,0,0
					C397.7,577.8,397.7,577.7,397.7,577.7L397.7,577.7z"/>
			</g>
			<g>
				<path class="st20" d="M397.1,581.5c0.3-0.1,0.7,0.2,0.8,0.3c0.3,0.3,0.7,0.5,1.2,0.2c0.2-0.1,0.2-0.4,0.1-0.5
					c-0.1-0.2-0.3-0.3-0.5-0.4c-0.2-0.1-0.4-0.3-0.7-0.3c-0.5,0-0.8,0.2-1.1,0.5C396.7,581.4,396.9,581.6,397.1,581.5L397.1,581.5z"
					/>
			</g>
			<g>
				<path class="st20" d="M396.2,585.9c0.5-0.3,1.1-0.1,1.6,0.1c0.6,0.3,1.5-0.5,0.8-0.9c-0.9-0.6-2.1-0.5-3,0.1
					C395.2,585.5,395.6,586.2,396.2,585.9L396.2,585.9z"/>
			</g>
			<g>
				<path class="st20" d="M402.9,586.2c0.2,0,0.4,0,0.6,0c0.2,0,0.4,0,0.5,0c0.4,0,0.7-0.6,0.2-0.7c-0.3-0.1-0.6-0.1-0.9-0.1
					c-0.3,0-0.5,0.2-0.7,0.5C402.5,585.9,402.7,586.2,402.9,586.2L402.9,586.2z"/>
			</g>
			<g>
				<path class="st20" d="M408.8,585.8c0.3,0,0.7,0.1,1,0.2c0.6,0.1,0.9-0.4,0.6-0.8c-0.2-0.2-0.6-0.3-1-0.4c-0.4,0-0.7,0.1-0.9,0.4
					C408.2,585.4,408.4,585.8,408.8,585.8L408.8,585.8z"/>
			</g>
			<g>
				<path class="st20" d="M413.3,585.7c0.5,0,1,0,1.5,0c0.8,0,0.9-1,0.2-1.2c-0.6-0.1-1.1-0.1-1.7-0.1c-0.4,0-0.7,0.3-0.7,0.6
					C412.6,585.4,412.9,585.7,413.3,585.7L413.3,585.7z"/>
			</g>
			<g>
				<path class="st20" d="M428.6,583.9c0.1,0,0.2,0,0.4,0c0.2,0,0.4-0.1,0.5-0.1c0.3-0.1,0.7-0.1,1-0.2c0.8-0.2,0.5-1.1-0.2-1.1
					c-0.5,0-1,0.1-1.3,0.3c-0.2,0.1-0.3,0.2-0.5,0.4c-0.1,0.2-0.1,0.4-0.2,0.5C428.3,583.8,428.4,584,428.6,583.9L428.6,583.9z"/>
			</g>
			<g>
				<path class="st20" d="M431.3,582.7c0.6,0.1,1.1,0.2,1.7,0.1c0.6-0.1,0.6-0.9,0-1c-0.6-0.1-1.1,0-1.7,0.1
					C430.9,582,430.9,582.6,431.3,582.7L431.3,582.7z"/>
			</g>
			<g>
				<path class="st20" d="M379.2,582c0.3-0.2,0.5-0.2,0.9-0.2c0.4-0.1,0.8-0.4,0.5-0.8c-0.2-0.4-0.8-0.3-1.2-0.2
					c-0.4,0.1-0.7,0.3-1,0.5c-0.3,0.2-0.2,0.6,0,0.8C378.5,582.2,378.9,582.2,379.2,582L379.2,582z"/>
			</g>
			<g>
				<path class="st20" d="M383.8,580.2c0.2-0.2,0.9,0.3,1.1,0.4c0.4,0.1,0.7,0.1,1.1,0.1c0.4,0,0.8-0.1,1.2,0c0.4,0.1,0.6,0.2,1,0
					c0.2-0.1,0.3-0.2,0.3-0.4c-0.3-1-1.7-0.6-2.5-0.4c-0.9,0.2-1.8-0.6-2.5,0.1C383.2,580.1,383.6,580.4,383.8,580.2L383.8,580.2z"
					/>
			</g>
			<g>
				<path class="st20" d="M383,582.8c0.4-0.2,0.7,0,1.1,0.2c0.3,0.1,0.6,0.2,0.9,0.1c0.7-0.1,1.7-0.2,2.1-0.8c0.2-0.3,0-0.6-0.3-0.7
					c-0.5-0.1-0.8,0-1.2,0.2c-0.3,0.1-0.5,0.2-0.8,0.2c-0.2,0-0.4-0.1-0.6-0.1c-0.6-0.2-1.1,0.1-1.4,0.6
					C382.5,582.7,382.7,582.9,383,582.8L383,582.8z"/>
			</g>
			<g>
				<path class="st20" d="M381.9,585c0.4-0.2,0.8-0.1,1.1-0.3c0.3-0.1,0.3-0.5,0-0.6c-0.6-0.2-1.1,0.1-1.6,0.4
					C381.1,584.7,381.6,585.2,381.9,585L381.9,585z"/>
			</g>
			<g>
				<path class="st20" d="M384.5,585.4c1.2-0.3,2.5,0.8,3.7,0.1c0.5-0.3,0.3-0.9-0.3-1c-0.4,0-0.8,0-1.2-0.1
					c-0.3-0.1-0.7-0.1-1.1-0.2c-0.6,0-1.1,0.2-1.5,0.7C384,585.2,384.3,585.4,384.5,585.4L384.5,585.4z"/>
			</g>
			<g>
				<path class="st20" d="M381.7,577.3c0.4,0.1,0.7,0.2,1,0.3c0.4,0,0.8,0.1,1.1,0c0.6-0.1,0.6-0.9,0-1c-0.4,0-0.7,0-1,0
					c-0.3,0-0.7,0.1-1,0.2C381.5,576.8,381.4,577.2,381.7,577.3L381.7,577.3z"/>
			</g>
			<g>
				<path class="st20" d="M374.8,581.6c0.5,0.4,1.4,0.7,2,0.4c0.3-0.2,0.3-0.4,0.1-0.7c-0.4-0.5-1.5-0.4-2-0.1
					C374.6,581.3,374.6,581.5,374.8,581.6L374.8,581.6z"/>
			</g>
			<g>
				<path class="st20" d="M369.3,581c0.5,0.3,0.9,0.6,1.5,0.7c0.5,0.1,1.2,0.3,1.7,0c0.2-0.1,0.3-0.4,0.1-0.6
					c-0.4-0.3-1-0.4-1.5-0.4c-0.6-0.1-1.1-0.1-1.7,0C369.2,580.7,369.1,580.9,369.3,581L369.3,581z"/>
			</g>
			<g>
				<path class="st20" d="M364.6,579.1c0.5,0,1-0.2,1.4,0c0.5,0.2,0.8,0.5,1.3,0.5c0.2,0,0.4-0.1,0.5-0.2c0.3-0.6-0.9-1.1-1.4-1.2
					c-0.8-0.2-1.9-0.2-2.2,0.6C364.2,578.9,364.4,579.1,364.6,579.1L364.6,579.1z"/>
			</g>
			<g>
				<path class="st20" d="M359.6,577.9c0.4,0.1,0.8,0.1,1.2,0.1c0.5,0,0.9,0.1,1.3,0.3c0.8,0.3,1.5-0.7,0.7-1
					c-0.9-0.4-2.9-0.7-3.4,0.4C359.3,577.7,359.5,577.8,359.6,577.9L359.6,577.9z"/>
			</g>
			<g>
				<path class="st20" d="M362.2,574.8c0.3-0.1,0.6,0,0.9,0.1c0.3,0.1,0.5-0.3,0.3-0.4c-0.4-0.3-0.9-0.3-1.4-0.1
					C361.8,574.5,361.9,574.9,362.2,574.8L362.2,574.8z"/>
			</g>
			<g>
				<path class="st20" d="M368,572.4c0.3-0.1,0.5,0,0.8,0c0.2,0,0.5,0.1,0.7,0c0.1,0,0.1-0.1,0.1-0.2c-0.1-0.7-1.3-0.5-1.8-0.3
					C367.5,572.1,367.7,572.5,368,572.4L368,572.4z"/>
			</g>
			<g>
				<path class="st20" d="M372.1,570.9c0.5,0.1,1,0.2,1.5,0.1c0.6-0.2,0.5-0.9-0.1-0.9c-0.5,0-1,0.1-1.5,0.3
					C371.7,570.5,371.8,570.8,372.1,570.9L372.1,570.9z"/>
			</g>
			<g>
				<path class="st20" d="M372.2,569.5c0.1-0.1,0.2-0.2,0.3-0.3c0-0.1-0.1-0.2-0.2-0.2c-0.2,0-0.3,0.1-0.5,0.1
					C371.4,569.2,371.8,569.7,372.2,569.5L372.2,569.5z"/>
			</g>
			<g>
				<path class="st20" d="M372.5,573.9c0.2,0,0.4,0,0.6-0.1c0.4-0.1,0.4-0.7,0-0.8c-0.2-0.1-0.4-0.1-0.6-0.1
					C371.7,572.8,371.7,573.9,372.5,573.9L372.5,573.9z"/>
			</g>
		</g>
		<g>
			<g>
				<path class="st21" d="M428.4,579.3c2.6-0.1,4.8,0.8,7.3,1.1c2.1,0.2,5.2-0.1,6.9-1.3c0.3-0.2,0.2-0.8-0.3-0.9
					c-1.4-0.2-2.7-0.1-4.1,0.1c-1.6,0.3-2.7,0.3-4.2,0.1c-0.3,0-0.6,0-0.9,0c-1.2,0-2.1-0.2-3.2-0.2c-1,0-1.2,0-1.7,0.7
					C428.1,579.1,428.2,579.3,428.4,579.3L428.4,579.3z"/>
			</g>
			<g>
				<path class="st21" d="M413.5,580.5c0.3,0.6,0.9,1.1,1.3,1.7c0.3,0.4,0.4,0.9,0.7,1.2c0.5,0.6,1.2,0.8,2.1,0.7
					c0.5-0.1,1-0.4,1.5-0.5c0.6-0.1,1.1,0.2,1.7,0.3c1.2,0.1,2.7-0.3,3.7-0.6c0.4-0.1,0.6-0.6,0.3-0.8c-0.7-0.5-1.1-0.5-2.1-0.3
					c-1.3,0.2-2.4-0.1-3.6,0c-0.5,0-1,0.4-1.4,0.4c-1.1,0-1.1-0.5-1.5-1.1c-0.5-0.8-1.1-1.4-2.2-1.6
					C413.6,579.7,413.3,580.2,413.5,580.5L413.5,580.5z"/>
			</g>
			<g>
				<path class="st21" d="M427.5,582c0.1,0,0.4,0.1,0.6,0.1c0.3,0.1,0.5,0.1,0.8,0.1c0.7,0,1.2-0.4,1.1-1c0-0.2-0.3-0.3-0.6-0.4
					c0.2,0-0.3,0-0.3,0c-0.1,0-0.2,0-0.3,0c-0.3,0-0.5,0-0.8,0.1c-0.5,0.1-0.9,0.3-1,0.7C427,581.9,427.3,582.1,427.5,582L427.5,582
					z"/>
			</g>
			<g>
				<path class="st21" d="M427,580.8c0.6,0.1,1.2,0.1,1.4-0.4c0.1-0.2-0.1-0.3-0.2-0.4c-0.3-0.2-0.7-0.1-1.1-0.1
					C426.5,579.9,426.3,580.7,427,580.8L427,580.8z"/>
			</g>
			<g>
				<path class="st21" d="M420.9,574.5c1.4,1.2,3.6,0.4,5.3,0.8c1.3,0.3,3,0.5,4-0.5c0.2-0.2,0.1-0.5-0.2-0.6
					c-0.7-0.2-1.3-0.1-2.1-0.1c-0.8,0-1.4-0.3-2.2-0.4c-0.9-0.1-1.8,0.1-2.7,0.1c-0.9,0-1.4-0.1-2.2,0.2
					C420.8,574.1,420.8,574.4,420.9,574.5L420.9,574.5z"/>
			</g>
			<g>
				<path class="st21" d="M402.3,578.2c-1.6,0.5,0.4,1.8,1,2.1c0.9,0.5,1,1.2,1.7,1.7c0.2,0.2,0.5,0.3,0.6,0.5
					c0.1,0.2-0.1,0.9-0.1,1.2c0,0.7,1,0.8,1.4,0.3c0.4-0.5,0.5-1.5,0.3-2.1c-0.3-0.6-1-0.6-1.4-1.1c-0.4-0.5-0.5-1-1.1-1.3
					c-0.4-0.2-0.8-0.3-1.2-0.6c-0.3-0.2-0.6-0.6-0.9-0.8C402.4,578.2,402.4,578.2,402.3,578.2L402.3,578.2z"/>
			</g>
			<g>
				<path class="st21" d="M408.5,584.6c0.4,0.3,0.8,0.4,1.3,0.5c0.5,0,1.1-0.1,1.4-0.6c0.2-0.3,0-0.7-0.4-0.8
					c-0.6-0.2-1.5,0.2-2.1,0.3C408.4,584,408.3,584.4,408.5,584.6L408.5,584.6z"/>
			</g>
			<g>
				<path class="st21" d="M387,583c-2,0.7,0.1,2.7,1.4,2.8c1.5,0.2,2.8-0.4,4.2,0c0.8,0.3,1.5,0.6,2.2,0c0.1-0.1,0.1-0.2,0-0.3
					c-0.8-0.7-1.8-1.3-2.9-1.4c-0.7,0-1.3,0.1-2,0.2c-0.5,0.1-1.4,0.2-1.9-0.1c-0.4-0.2-0.5-0.8-0.6-1.2
					C387.3,583.1,387.2,583,387,583L387,583z"/>
			</g>
			<g>
				<path class="st21" d="M396.7,583.8c0.2,0,0.5,0.1,0.8,0.1c0.3,0,0.4-0.1,0.7-0.1c0.1,0,0.1-0.2,0-0.2c-0.2-0.1-0.4-0.2-0.7-0.1
					c-0.3,0-0.5,0.1-0.8,0.1C396.6,583.6,396.6,583.8,396.7,583.8L396.7,583.8z"/>
			</g>
			<g>
				<path class="st21" d="M396.2,580.5c0.7,0.3,2,0.4,2.6,0c0.5-0.3,0.4-0.8-0.1-1c-0.4-0.1-0.9,0-1.3,0.1c-0.4,0.1-0.8,0.2-1.2,0.4
					C396,580.1,395.9,580.4,396.2,580.5L396.2,580.5z"/>
			</g>
			<g>
				<path class="st21" d="M396.6,576.3c0.2,0.7,1.1,1.2,1.9,1c0.5-0.1,0.9-0.4,1.2-0.7c0.4-0.4,0.4-0.7,0.2-1.2
					c-0.1-0.1-0.2-0.2-0.4-0.2c-0.3,0-0.5,0.1-0.7,0.2c-0.2,0.2-0.4,0.4-0.6,0.5c-0.3,0.2-0.8,0.4-1.1,0.2
					C396.9,575.8,396.5,576.1,396.6,576.3L396.6,576.3z"/>
			</g>
			<g>
				<path class="st21" d="M401.3,574.5c0.5,0,0.9,0.3,1.3,0.4c0.4,0.1,0.8,0.2,1.2,0.2c0.7,0,1.8-0.5,1.3-1.2
					c-0.3-0.5-1.1-0.2-1.7-0.3c-0.9-0.1-1.5-0.1-2.4,0.2C400.6,573.9,400.8,574.5,401.3,574.5L401.3,574.5z"/>
			</g>
			<g>
				<path class="st21" d="M375.1,581.6c0.9-0.1,1.6-0.6,2.4-0.9c1.2-0.5,1.8-0.6,3.1-0.5c1.1,0.1,3.3,0,3.2-1.4
					c0-0.1-0.1-0.2-0.2-0.3c-0.8-0.2-1.7,0.1-2.5,0.2c-0.8,0-1.6-0.2-2.4,0c-1.4,0.3-3.6,1.2-4,2.6
					C374.6,581.5,374.8,581.7,375.1,581.6L375.1,581.6z"/>
			</g>
			<g>
				<path class="st21" d="M383.4,577.6c0.3-0.4,1.6-0.2,2.1-0.2c0.7,0.1,1.5,0.2,2.1-0.4c0.3-0.3,0.1-0.7-0.2-0.8
					c-0.5-0.2-1-0.1-1.6-0.1c-0.5,0-0.9,0-1.4,0.1c-0.8,0.2-1,0.7-1.3,1.3C383.2,577.6,383.4,577.7,383.4,577.6L383.4,577.6z"/>
			</g>
			<g>
				<path class="st21" d="M361.8,576.5c0.8,0,1.1,0,1.9,0.5c0.3,0.2,0.4,0.4,0.7,0.5c0.8,0.4,1.8,0.4,2.6,0.8c1.2,0.5,2.5,1,3.3-0.2
					c0.1-0.2,0-0.4-0.2-0.5c-0.9-0.3-1.7-0.6-2.6-1c-0.9-0.4-1.9-0.5-2.7-1c-1.2-0.6-2.1-0.9-3.3-0.1
					C361.1,575.9,361.2,576.5,361.8,576.5L361.8,576.5z"/>
			</g>
			<g>
				<path class="st21" d="M381.1,573c1.8,0.7,3.6,0.2,4.7-1.2c0.2-0.2-0.1-0.5-0.4-0.4c-1.3,0.2-2.6,1.2-4,1
					C381,572.3,380.6,572.8,381.1,573L381.1,573z"/>
			</g>
			<g>
				<path class="st21" d="M388,569.7c0.6,0.1,1.3-0.1,1.9,0c0.6,0.1,1,0.5,1.6,0.5c0.4,0,0.8-0.3,0.8-0.7c-0.1-0.8-0.9-1.2-1.8-1.3
					c-0.4-0.1-0.9-0.1-1.3,0.1c-0.5,0.1-0.9,0.4-1.3,0.5C387.3,568.9,387.4,569.6,388,569.7L388,569.7z"/>
			</g>
			<g>
				<path class="st21" d="M386.1,567.3c0.6,0.1,1.1,0.2,1.7,0.2c0.6,0,1-0.1,1.5-0.4c0.2-0.2,0.3-0.4,0-0.6
					c-0.2-0.1-0.4-0.3-0.6-0.3c-0.2-0.1-0.5,0-0.7,0c-0.5,0-1.1,0-1.6,0C385.6,566.1,385.3,567.2,386.1,567.3L386.1,567.3z"/>
			</g>
			<g>
				<path class="st21" d="M412.1,565.5c0.2,0.1,0.4,0.2,0.6,0.3c0.2,0.1,0.5,0.1,0.8,0.1c0.5,0.1,1,0.2,1.5-0.1
					c0.2-0.1,0.3-0.3,0.2-0.4c-0.2-0.5-0.7-0.7-1.3-0.8c-0.3,0-0.6-0.1-0.9,0c-0.4,0-0.5,0.2-0.8,0.3
					C411.8,564.9,411.8,565.3,412.1,565.5L412.1,565.5z"/>
			</g>
			<g>
				<path class="st21" d="M399.6,586.8c0.9-0.1,1.7-0.1,2.5-0.2c0.5,0,1.1-0.2,1-0.7c-0.1-0.7-1.1-0.7-1.7-0.7
					c-0.8,0-1.6,0.2-2.3,0.6C398.6,586.2,399,586.9,399.6,586.8L399.6,586.8z"/>
			</g>
			<g>
				<path class="st21" d="M365.2,581.5c0.7,0.4,1.2,0.2,1.9,0.4c0.7,0.2,1.2,0.7,1.8,1c0.9,0.4,2.1,0.3,2.4-0.6
					c0-0.1-0.1-0.3-0.2-0.3c-1,0.1-1.9-0.7-2.8-1.1c-0.4-0.2-0.8-0.3-1.3-0.3c-0.6,0-1.1,0.3-1.6,0.4
					C365.1,581,365,581.3,365.2,581.5L365.2,581.5z"/>
			</g>
			<g>
				<path class="st21" d="M376.8,583.7c0.4,0,0.8,0,1.2,0.1c0.2,0,0.4-0.1,0.6-0.3c0,0,0,0,0,0c-0.1,0.1-0.1,0.1-0.2,0.2
					c0,0,0,0,0.1,0c0.2-0.1,0.3-0.4,0.2-0.6c0,0,0,0,0,0c0-0.2-0.2-0.4-0.5-0.4c-0.5-0.1-0.9-0.1-1.4-0.1c-0.3,0-0.6,0.2-0.6,0.6
					C376.2,583.4,376.5,583.7,376.8,583.7L376.8,583.7z"/>
			</g>
			<g>
				<path class="st21" d="M355.4,576.3c0.6,0.4,1.4-0.2,1.9-0.4c-0.2,0-0.3,0.1-0.5,0.1c-0.3-0.2-0.4-0.2-0.2,0
					c0,0.1,0.1,0.1,0.2,0.2c0.1,0.2,0.3,0.3,0.5,0.4c0.6,0.4,1.3-0.2,1.2-0.8c-0.1-0.8-1.1-1.8-2.1-1.2
					C355.8,574.9,354.6,575.8,355.4,576.3L355.4,576.3z"/>
			</g>
			<g>
				<path class="st21" d="M361.2,579.4c0.2,0.1,0.4,0.2,0.7,0.2c0.7,0,0.6-0.8,0-0.9c-0.1,0-0.2,0-0.3,0
					C361,578.6,360.8,579.2,361.2,579.4L361.2,579.4z"/>
			</g>
		</g>
		<g>
			<path class="st22" d="M401.1,576.7c0.7,1.5,1.6,3.2,2.8,4.3c0.7,0.7,1.6,1.3,2.3,2c0.7,0.7,1.2,1.2,2.3,1.5
				c0.6,0.2,1.3,0,1.7-0.4c2.6-2-0.2-4.3-2.2-5.5c-1.9-1.1-2.3-3.3-4.5-4.1C402.2,574.1,400.5,575.5,401.1,576.7L401.1,576.7z"/>
		</g>
		<g>
			<path class="st22" d="M408.6,569.8c0.9,0.3,1.6,0,2.5-0.2c2.1-0.5,4.2-0.5,6.3-0.7c2.2-0.2,5.7-0.8,5.6-3.2
				c0-0.2-0.2-0.5-0.5-0.5c-1.5-0.3-3.1,0.3-4.7,0.4c-2.1,0.2-4.2,0-6.2,0.6C411,566.4,406.3,568.9,408.6,569.8L408.6,569.8z"/>
		</g>
		<g>
			<path class="st22" d="M384.1,565.3c1.4,0.5,3,0.9,4.3,1.7c1.4,0.8,2.6,1.9,4.1,2.5c1.6,0.7,3.2-1,2-2.2c-1.4-1.3-3.6-2.9-5.6-3.5
				c-2-0.6-3.4,0-4.9,1C383.8,565,384,565.2,384.1,565.3L384.1,565.3z"/>
		</g>
		<g>
			<g>
				<path class="st23" d="M396.7,579.5c-0.5-1.6-1-3.2-1.5-4.8c-0.1-0.4-0.4-0.9-0.9-0.8c-0.2,0-0.4,0.2-0.6,0.4
					c-0.5,0.5-4.8,4.4-6.5,6.4c-0.4,0.4-0.7,0.9-0.8,1.4c-0.2,1.1,0.6,2.1,1.6,2.7c1.1,0.6,2.4,0.7,3.6,0.8c1.7,0.1,3.5,0,4.6-1.1
					c0.7-0.6,0.9-1.5,0.9-2.4C397.2,581.2,397,580.4,396.7,579.5z"/>
			</g>
			<g>
				<path class="st24" d="M394.7,576.2c0.4,0.2,0.7,0.5,1,0.8c0.1,0.1,0.2,0.3,0.4,0.4c-0.3-0.9-0.6-1.8-0.9-2.8
					c-0.1-0.4-0.4-0.9-0.9-0.8c-0.2,0-0.4,0.2-0.6,0.4c-0.4,0.4-3.4,3.1-5.4,5.2c1.6-0.9,2.7-2.3,4.4-3
					C393.4,576.1,394.1,576,394.7,576.2z"/>
			</g>
			<g>
				<path class="st25" d="M388.8,582.6c-0.8-0.3-1.6-0.7-1.9-1.4c-0.2,0.3-0.3,0.6-0.4,0.9c-0.2,1.1,0.6,2.1,1.6,2.7
					c1.1,0.6,2.4,0.7,3.6,0.8c1.7,0.1,3.5,0,4.6-1.1c0.5-0.5,0.8-1.2,0.9-1.9c-0.5,0.2-1.1,0.4-1.7,0.5
					C393.3,583.6,390.9,583.4,388.8,582.6z"/>
			</g>
			<path class="st26" d="M394.8,578.3c-0.1-0.1-0.1-0.2-0.2-0.3c0-0.6-0.7-1-1.3-0.7c-1.4,0.6-3.1,3-1.4,4.1
				C393.8,582.6,395.4,579.7,394.8,578.3z M392.3,579.6C392.3,579.6,392.3,579.6,392.3,579.6C392.3,579.6,392.3,579.6,392.3,579.6
				C392.3,579.7,392.3,579.7,392.3,579.6z"/>
		</g>
		<g>
			<g>
				<path class="st23" d="M420.2,567.6c-1.3,1.2-2.5,2.4-3.8,3.6c-0.3,0.3-0.6,0.7-0.4,1c0.1,0.1,0.4,0.1,0.6,0.1
					c0.7,0,6.4,0.1,9-0.2c0.6-0.1,1.2-0.1,1.7-0.4c1.1-0.5,1.7-1.6,1.8-2.5c0-0.9-0.4-1.7-0.9-2.4c-0.7-1-1.6-1.9-3.1-1.9
					c-0.9,0-1.9,0.4-2.7,0.9C421.5,566.4,420.8,567,420.2,567.6z"/>
			</g>
			<g>
				<path class="st24" d="M418,570.6c0-0.3,0.2-0.7,0.3-1c0.1-0.2,0.2-0.3,0.2-0.5c-0.7,0.7-1.5,1.4-2.2,2.1c-0.3,0.3-0.6,0.7-0.4,1
					c0.1,0.1,0.4,0.1,0.6,0.1c0.5,0,4.5,0,7.3-0.1c-1.6-0.3-3.4-0.2-4.9-0.6C418.5,571.4,418,571.1,418,570.6z"/>
			</g>
			<g>
				<path class="st25" d="M426.7,570.2c0.1,0.6,0,1.3-0.4,1.9c0.3-0.1,0.7-0.1,1-0.3c1.1-0.5,1.7-1.6,1.8-2.5c0-0.9-0.4-1.7-0.9-2.4
					c-0.7-1-1.6-1.9-3.1-1.9c-0.7,0-1.5,0.3-2.2,0.6c0.5,0.2,0.9,0.4,1.3,0.6C425.5,567.1,426.5,568.6,426.7,570.2z"/>
			</g>
			<path class="st26" d="M419.9,569.4c-0.1,0.1-0.2,0.2-0.2,0.3c-0.6,0.3-0.6,0.9-0.1,1.1c1.2,0.5,4.3-0.1,4.5-1.6
				C424.3,567.4,420.9,568.2,419.9,569.4z M422.3,570C422.3,570,422.3,570,422.3,570C422.3,569.9,422.3,569.9,422.3,570
				C422.3,569.9,422.3,569.9,422.3,570z"/>
		</g>
		<g>
			<g>
				<path class="st23" d="M396.4,566.1c0.5,1.1,0.9,2.1,1.4,3.2c0.1,0.3,0.4,0.6,0.8,0.6c0.2,0,0.4-0.1,0.6-0.2c0.5-0.3,5-2.8,6.6-4
					c0.4-0.3,0.7-0.6,0.9-0.9c0.3-0.7-0.5-1.4-1.6-1.8c-1.1-0.4-2.3-0.5-3.6-0.6c-1.6-0.1-3.5-0.1-4.7,0.6c-0.7,0.4-1,1-1,1.6
					C395.9,565,396.2,565.6,396.4,566.1z"/>
			</g>
			<g>
				<path class="st24" d="M398.3,568.4c-0.4-0.1-0.7-0.4-1-0.6c-0.1-0.1-0.2-0.2-0.3-0.3c0.3,0.6,0.5,1.2,0.8,1.9
					c0.1,0.3,0.4,0.6,0.8,0.6c0.2,0,0.4-0.1,0.6-0.2c0.4-0.2,3.5-2,5.5-3.3c-1.6,0.5-2.8,1.4-4.5,1.9
					C399.6,568.5,398.9,568.6,398.3,568.4z"/>
			</g>
			<g>
				<path class="st25" d="M404.4,564.4c0.8,0.2,1.5,0.5,1.9,1c0.2-0.2,0.4-0.4,0.4-0.6c0.3-0.7-0.5-1.4-1.6-1.8
					c-1.1-0.4-2.3-0.5-3.6-0.6c-1.6-0.1-3.5-0.1-4.7,0.6c-0.5,0.3-0.8,0.8-0.9,1.2c0.6-0.1,1.1-0.2,1.7-0.3
					C399.9,563.6,402.3,563.8,404.4,564.4z"/>
			</g>
			<path class="st26" d="M398.3,567c0.1,0.1,0.1,0.2,0.2,0.2c-0.1,0.4,0.6,0.7,1.3,0.5c1.4-0.3,3.2-1.9,1.5-2.7
				C399.3,564.2,397.7,566.1,398.3,567z M400.8,566.2C400.8,566.2,400.8,566.2,400.8,566.2C400.8,566.2,400.8,566.2,400.8,566.2
				C400.8,566.2,400.8,566.2,400.8,566.2z"/>
		</g>
		<g>
			<g>
				<path class="st23" d="M426.2,580.3c0.1-1.5-1.7-2.3-3.2-2.8c-3.3-1.2-7.3-2.3-10.9-3.3c-0.9-0.2-1.7,0.6-1.3,1.3
					c0.9,1.5,1.9,3,3,4.5c1,1.3,2.1,2.7,3.8,3.2c1.3,0.4,2.7,0.2,4,0c1.3-0.2,2.7-0.5,3.7-1.3C425.9,581.4,426.2,580.8,426.2,580.3z
					"/>
			</g>
			<g>
				<g>
					<path class="st24" d="M418.4,576.1c0.3,0,0.6,0,0.9,0.1c-2.3-0.7-4.8-1.4-7.1-2c-0.9-0.2-1.7,0.6-1.3,1.3
						c0.5,0.7,0.9,1.5,1.4,2.2c0.3-0.2,0.5-0.4,0.9-0.6C414.7,576.2,416.6,576,418.4,576.1z"/>
				</g>
				<g>
					<path class="st25" d="M426.1,579.5c-2,1.4-4.7,2.2-7.3,1.9c-2-0.2-3.8-1-5.3-2.2c0.2,0.2,0.3,0.4,0.5,0.7
						c1,1.3,2.1,2.7,3.8,3.2c1.3,0.4,2.7,0.2,4,0c1.3-0.2,2.7-0.5,3.7-1.3c0.5-0.4,0.8-1,0.8-1.5C426.3,580,426.2,579.8,426.1,579.5
						z"/>
				</g>
			</g>
			<path class="st26" d="M417.8,579.8c0.2,0,0.3,0,0.4,0c0.6,0.3,1.3-0.1,1.3-0.7c0-1.4-1.9-3.7-3.6-2.9
				C413.7,577.3,416,579.7,417.8,579.8z M417.4,577.3C417.4,577.3,417.4,577.3,417.4,577.3C417.4,577.3,417.4,577.3,417.4,577.3
				C417.4,577.3,417.4,577.3,417.4,577.3z"/>
		</g>
		<g>
			<g>
				<path class="st23" d="M374.1,564.5c1.3-1,3.1-0.3,4.5,0.4c3.2,1.5,6.6,3.5,9.8,5.3c0.8,0.5,0.5,1.5-0.4,1.7
					c-2,0.3-4,0.6-5.9,0.8c-1.8,0.2-3.8,0.3-5.3-0.5c-1.1-0.6-1.8-1.7-2.5-2.7c-0.6-1-1.3-2.1-1.1-3.3
					C373.3,565.4,373.6,564.9,374.1,564.5z"/>
			</g>
			<g>
				<g>
					<path class="st24" d="M382.7,567.2c-0.2-0.2-0.4-0.4-0.6-0.6c2.1,1.1,4.3,2.3,6.3,3.5c0.8,0.5,0.5,1.5-0.4,1.7
						c-0.9,0.2-1.9,0.3-2.8,0.4c0-0.3,0-0.6,0-0.9C385,569.7,383.9,568.3,382.7,567.2z"/>
				</g>
				<g>
					<path class="st25" d="M374.8,564.1c0,2.3,1,4.5,2.9,6.1c1.4,1.2,3.3,2,5.3,2.2c-0.3,0-0.6,0.1-0.9,0.1
						c-1.8,0.2-3.8,0.3-5.3-0.5c-1.1-0.6-1.8-1.7-2.5-2.7c-0.6-1-1.3-2.1-1.1-3.3c0.1-0.6,0.4-1.1,0.9-1.5
						C374.3,564.3,374.5,564.2,374.8,564.1z"/>
				</g>
			</g>
			<path class="st26" d="M379.7,569.9c-0.1-0.1-0.2-0.2-0.2-0.3c-0.6-0.2-0.7-0.9-0.2-1.3c1.2-0.9,4.5-1.1,4.9,0.7
				C384.6,571.1,380.9,571.1,379.7,569.9z M382.2,568.6C382.2,568.6,382.2,568.6,382.2,568.6C382.2,568.6,382.2,568.6,382.2,568.6
				C382.3,568.6,382.3,568.6,382.2,568.6z"/>
		</g>
		<g>
			<path class="st22" d="M417.5,573.8c1.4,0.3,2.8,0.1,4.2,0.4c1.7,0.3,3.3,0.8,5,1c2.7,0.3,7.1,0.6,8.5-1.9
				c0.3-0.6,0.2-1.3-0.5-1.6c-1.6-0.9-3.1-0.4-4.8-0.3c-2.1,0.2-4.1,0-6.1-0.3c-2.3-0.4-5.7-0.9-6.9,1.4
				C416.6,573,416.8,573.7,417.5,573.8L417.5,573.8z"/>
		</g>
		<g>
			<g>
				<path class="st27" d="M362.5,569.6c-0.4,1.3-0.2,2.8,0.5,4.1c1.2,2.2,3.7,4.3,6.9,5c3.2,0.6,6.5-0.7,8.1-2.8
					c1.9-2.5,1-5-1.3-7.1c-0.4-0.4-1.3-0.3-1.6,0.1c-0.8,1.2-0.4,2.6-1,3.9c-0.4,0.8-1.8,1.5-3,1.2c-1.3-0.3-2.1-1.6-2.5-2.5
					c-0.5-1.3-0.6-2.7-0.9-4C367.4,566.8,362.9,568.2,362.5,569.6z"/>
			</g>
			<g>
				<path class="st27" d="M354.6,572.7c1.5-0.6,2.7-1.5,4.1-2.1c1.9-0.8,3.9-1.2,6.1-1.4c0.1,0,0.1-0.1,0-0.1
					C361,568.6,356.8,570.3,354.6,572.7C354.6,572.6,354.6,572.7,354.6,572.7L354.6,572.7z"/>
			</g>
			<g>
				<path class="st27" d="M354.4,569.3c4.3-1.4,8.5-1.4,12.8-0.1c0.1,0,0.1-0.1,0.1-0.1c-3.9-1.8-9.1-1.7-13,0.1
					C354.2,569.2,354.3,569.3,354.4,569.3L354.4,569.3z"/>
			</g>
			<g>
				<path class="st28" d="M369,573.7c0.1-0.2-0.1-0.4-0.4-0.3c-0.9,0.3-1.5,1-2.3,1.4c-0.7,0.3-1.4,0.5-2.2,0.5
					c0.2,0.2,0.3,0.4,0.5,0.6C366.4,575.8,368.3,574.7,369,573.7z"/>
				<path class="st28" d="M371.2,574.6c0-0.2-0.4-0.3-0.6-0.1c-0.6,0.7-0.7,1.6-1.3,2.3c-0.5,0.5-1,0.9-1.7,1.2
					c0.3,0.1,0.5,0.2,0.8,0.3l0,0C370.2,577.6,371.4,575.8,371.2,574.6z"/>
				<path class="st28" d="M373.7,574.1c-0.1-0.1-0.4-0.1-0.4,0.1c0.1,0.8,0.6,1.6,0.5,2.4c-0.1,0.8-0.5,1.4-1,2
					c0.4,0,0.7-0.1,1.1-0.2C375,577.1,375.3,575.1,373.7,574.1z"/>
				<path class="st28" d="M375.4,573.4c0.4,0.4,1,0.7,1.5,1.1c0.3,0.2,0.9,0.7,1.1,1.1c0.2-0.3,0.3-0.5,0.5-0.8
					c-0.1-0.2-0.3-0.3-0.4-0.5c-0.6-0.6-1.4-1.2-2.4-1.3C375.4,573.1,375.3,573.3,375.4,573.4z"/>
				<path class="st28" d="M364.8,570.7c-0.1,0-0.1,0.1-0.1,0.1c-0.1,0.1-0.1,0.2-0.1,0.3c0.1,0.3,0.5,0.4,0.8,0.3
					c0.2-0.1,0.3-0.2,0.4-0.3C365.7,570.7,365.1,570.5,364.8,570.7z"/>
			</g>
		</g>
		<g>
			<g>
				<path class="st27" d="M428.5,567.7c-0.9,1.1-1.4,2.5-1.3,3.9c0.1,2.5,1.6,5.2,4.2,6.8c2.7,1.6,6.3,1.4,8.7,0
					c2.9-1.7,3.1-4.3,1.8-7c-0.2-0.5-1.1-0.7-1.5-0.4c-1.3,0.9-1.5,2.3-2.6,3.3c-0.7,0.6-2.3,0.8-3.3,0.2c-1.1-0.7-1.3-2.2-1.3-3.1
					c0.1-1.3,0.6-2.7,0.9-4C434.4,566.6,429.5,566.5,428.5,567.7z"/>
			</g>
			<g>
				<path class="st27" d="M419.9,568c1.6-0.1,3.1-0.5,4.8-0.7c2.1-0.1,4.2,0.1,6.2,0.7c0.1,0,0.1-0.1,0.1-0.1
					C427.6,566.3,422.9,566.5,419.9,568C419.9,567.9,419.9,568,419.9,568L419.9,568z"/>
			</g>
			<g>
				<path class="st27" d="M421.2,564.7c4.6,0.1,8.4,1.5,11.9,4c0.1,0.1,0.2,0,0.1-0.1c-2.9-3-7.7-4.5-12.1-4.1
					C421,564.6,421.1,564.7,421.2,564.7L421.2,564.7z"/>
			</g>
			<g>
				<path class="st28" d="M432.8,573.5c0.2-0.1,0.1-0.4-0.2-0.4c-1,0-1.8,0.5-2.7,0.6c-0.8,0.1-1.5,0-2.3-0.2
					c0.1,0.2,0.2,0.5,0.2,0.7C429.5,574.7,431.8,574.3,432.8,573.5z"/>
				<path class="st28" d="M434.5,575.1c0.1-0.2-0.2-0.4-0.5-0.3c-0.8,0.5-1.3,1.2-2.2,1.7c-0.7,0.3-1.3,0.5-2.1,0.5
					c0.2,0.2,0.4,0.4,0.6,0.6l0,0C432.2,577.5,434.1,576.3,434.5,575.1z"/>
				<path class="st28" d="M437,575.5c-0.1-0.1-0.4-0.2-0.4,0c-0.3,0.8-0.1,1.6-0.6,2.4c-0.4,0.7-1.1,1.1-1.8,1.5
					c0.4,0.1,0.7,0.1,1.1,0.1C436.9,578.7,438.1,576.9,437,575.5z"/>
				<path class="st28" d="M438.9,575.4c0.2,0.5,0.6,1,0.9,1.5c0.2,0.3,0.5,0.9,0.6,1.4c0.3-0.2,0.5-0.4,0.7-0.6
					c-0.1-0.2-0.1-0.4-0.2-0.6c-0.3-0.7-0.8-1.6-1.7-2C439.1,575.1,438.8,575.2,438.9,575.4z"/>
				<path class="st28" d="M430.2,569.4c-0.1,0-0.1,0-0.2,0.1c-0.1,0-0.2,0.1-0.2,0.2c0,0.3,0.3,0.5,0.6,0.5c0.2,0,0.4-0.1,0.5-0.2
					C431.1,569.7,430.6,569.4,430.2,569.4z"/>
			</g>
		</g>
		<g>
			<g>
				<path class="st27" d="M411.1,574.1c0.2-1.4-0.2-2.8-1.1-4c-1.5-2.1-4.3-3.9-7.5-4.2c-3.3-0.3-6.3,1.4-7.6,3.6
					c-1.5,2.7-0.2,5.1,2.4,6.9c0.4,0.3,1.3,0.1,1.5-0.3c0.6-1.3,0-2.6,0.4-3.9c0.3-0.8,1.6-1.7,2.8-1.6c1.3,0.1,2.4,1.3,2.8,2.2
					c0.7,1.2,1,2.7,1.5,3.9C406.6,577.5,410.9,575.6,411.1,574.1z"/>
			</g>
			<g>
				<path class="st27" d="M418.4,570.2c-1.3,0.8-2.4,1.8-3.8,2.6c-1.7,1-3.7,1.7-5.8,2c-0.1,0-0.1,0.1,0,0.1
					C412.7,574.9,416.6,572.8,418.4,570.2C418.5,570.2,418.5,570.2,418.4,570.2L418.4,570.2z"/>
			</g>
			<g>
				<path class="st27" d="M419.2,573.6c-4.1,1.9-8.2,2.3-12.7,1.5c-0.1,0-0.1,0.1-0.1,0.1c4.2,1.4,9.3,0.7,12.9-1.5
					C419.4,573.6,419.3,573.5,419.2,573.6L419.2,573.6z"/>
			</g>
			<g>
				<path class="st28" d="M404.1,570.8c-0.1,0.2,0.2,0.4,0.4,0.2c0.8-0.4,1.3-1.2,2.1-1.6c0.7-0.4,1.4-0.6,2.1-0.7
					c-0.2-0.2-0.4-0.3-0.6-0.5C406.3,568.4,404.5,569.7,404.1,570.8z"/>
				<path class="st28" d="M401.7,570.1c0.1,0.2,0.4,0.3,0.6,0.1c0.5-0.8,0.5-1.6,0.9-2.4c0.4-0.6,0.9-1,1.5-1.3
					c-0.3-0.1-0.6-0.2-0.9-0.2l0,0C402.3,567.1,401.3,568.9,401.7,570.1z"/>
				<path class="st28" d="M399.3,570.9c0.2,0.1,0.4,0,0.4-0.2c-0.2-0.8-0.8-1.5-0.8-2.3c0-0.8,0.3-1.5,0.7-2.1
					c-0.4,0.1-0.7,0.2-1,0.3C397.6,568,397.5,570.1,399.3,570.9z"/>
				<path class="st28" d="M397.7,571.7c-0.5-0.4-1.1-0.6-1.7-0.9c-0.3-0.2-1-0.6-1.3-1c-0.1,0.3-0.3,0.5-0.3,0.8
					c0.2,0.2,0.4,0.3,0.5,0.4c0.7,0.5,1.6,1,2.6,1C397.7,572.1,397.9,571.8,397.7,571.7z"/>
				<path class="st28" d="M408.7,573.3c0.1,0,0.1-0.1,0.1-0.1c0.1-0.1,0.1-0.2,0.1-0.3c-0.1-0.2-0.5-0.3-0.8-0.2
					c-0.2,0.1-0.3,0.2-0.3,0.4C407.7,573.4,408.3,573.5,408.7,573.3z"/>
			</g>
		</g>
		<g>
			<path class="st22" d="M372.7,582c1.4,0.4,2.1-0.4,3.1-1.1c1.6-1.3,2.9-1.9,4.9-2.5c1.8-0.6,7.1-3,5.3-5.4
				c-1.3-1.9-4.9,0.4-6.3,0.9c-3.6,1.4-6.3,2.5-7.9,5.8c-0.2,0.5-0.4,1.2,0,1.6C372.1,581.6,372.3,581.9,372.7,582L372.7,582z"/>
		</g>
		<g>
			<path class="st16" d="M424.1,587.1c0.2,0,0.5,0.3,1.2,1c0.6,0.7,1.6,1.7,2.6,2.9c0.3,0.3,0.6,0.6,0.9,1c0.2,0.2,0.3,0.3,0.4,0.4
				c0.1,0.1,0.3,0.2,0.4,0.3c0.6,0.4,1.4,0.7,2.3,0.7c0.4,0,0.9,0,1.3-0.1l0.3-0.1l0.3-0.1c0.3-0.1,0.6-0.2,0.9-0.4
				c1.2-0.5,2.4-1,3.6-1.5c1.2-0.5,2.4-1.1,3.5-1.6c0.6-0.3,1.1-0.5,1.6-0.8c0.5-0.3,1.1-0.6,1.1-0.7c0.3-0.3,0.4-0.8,0.2-1.2
				c-0.1-0.1-0.1-0.2-0.2-0.3c-0.1-0.1-0.4-0.3-0.6-0.4c-0.4-0.2-0.8-0.5-1.1-0.7c-2.9-1.8-4.8-2.7-4.7-3.1c0.2-0.3,2.5,0,5.9,1.4
				c0.4,0.2,0.9,0.4,1.3,0.6c0.2,0.1,0.4,0.2,0.7,0.4c0.3,0.2,0.6,0.4,0.9,0.7c0.5,0.6,0.8,1.3,0.9,2c0,0.8-0.3,1.6-0.9,2.2
				c-0.3,0.3-0.7,0.6-0.9,0.8c-0.3,0.2-0.5,0.3-0.8,0.5c-0.5,0.3-1.1,0.6-1.7,0.9c-1.2,0.6-2.4,1.2-3.6,1.7
				c-1.3,0.6-2.5,1.1-3.7,1.5c-0.3,0.1-0.6,0.2-0.9,0.3l-0.6,0.2L434,596c-0.8,0.2-1.6,0.2-2.4,0.1c-1.5-0.2-2.9-0.8-3.8-1.6
				c-0.2-0.2-0.5-0.4-0.6-0.6c-0.2-0.2-0.4-0.5-0.5-0.7c-0.2-0.4-0.5-0.7-0.7-1.1c-0.9-1.4-1.5-2.6-1.8-3.5
				c-0.2-0.4-0.3-0.8-0.3-1.1C423.9,587.3,424,587.2,424.1,587.1z"/>
		</g>
	</g>
	<g style="clip-path:url(#SVGID_00000108287336573397825160000007851595403830560164_);">
		<path class="st18" d="M316.9,573.5L316.9,573.5c0,0.3,0,0.6-0.1,0.9c-0.2,1.7-0.8,3.4-1.7,5.1c-1.7,3.3-4.7,6.4-8.4,9
			c-6.3,4.5-14.8,7.5-23.2,7.5c-8.4,0-16.9-3.1-23.2-7.5c-3.7-2.6-6.7-5.8-8.4-9.1c-0.9-1.7-1.5-3.4-1.7-5.1c0-0.3-0.1-0.6-0.1-0.8
			v0c0.5-9.2,16.9-12.9,30.6-13.3h0.1c0.4,0,0.8,0,1.2,0c0.5,0,1,0,1.5,0c0.5,0,1,0,1.5,0c0.4,0,0.8,0,1.2,0h0.1
			C300.1,560.6,316.4,564.3,316.9,573.5z"/>
		<path class="st29" d="M317,574c0,0.1,0,0.2,0,0.2c0,0.1,0,0.1-0.1,0.2c-2.7,5.7-16.6,10.1-33.3,10.1c-16.7,0-30.6-4.4-33.3-10.1
			c0-0.1-0.1-0.1-0.1-0.2c0-0.1,0-0.2,0-0.2c0-0.1,0-0.3,0-0.4v0c0.5-9.2,16.9-12.9,30.6-13.3h0.1c0.4,0,0.8,0,1.2,0
			c0.5,0,1,0,1.5,0c0.5,0,1,0,1.5,0c0.4,0,0.8,0,1.2,0h0.1c13.8,0.4,30.1,4.1,30.6,13.3v0C317,573.7,317,573.8,317,574z"/>
		<path class="st17" d="M312.3,574C312.3,574,312.3,574,312.3,574c-3.3,5.1-14.9,8.8-28.8,8.8c-13.9,0-25.5-3.7-28.8-8.8
			c0,0,0,0,0,0c0.2-6.2,13-11.2,28.8-11.2C299.3,562.8,312.1,567.8,312.3,574z"/>
		<g>
			<path class="st30" d="M315.2,579.5c-1.7,3.3-4.7,6.4-8.4,9c-6.3,2.7-14.4,4.2-23.2,4.2c-8.8,0-16.9-1.6-23.2-4.2
				c-3.7-2.6-6.7-5.8-8.4-9.1c4.9,6.1,17.5,10.4,31.7,10.4C297.7,589.9,310.2,585.6,315.2,579.5z"/>
		</g>
		<path class="st31" d="M312.3,574C312.3,574,312.3,574,312.3,574c-3.3,5.1-14.9,8.8-28.8,8.8c-13.9,0-25.5-3.7-28.8-8.8
			c0,0,0,0,0,0s0,0,0,0c3.3-5.1,14.9-8.8,28.8-8.8C297.4,565.2,309,569,312.3,574C312.3,574,312.3,574,312.3,574z"/>
		<g>
			<path class="st32" d="M269.4,579.9c-0.7-0.6-0.4-1.7,0.3-2.3c0.7-0.6,1.8-0.9,2.8-1.2c1-0.3,2-0.5,3-0.8c1.2-0.3,2.7-0.9,2.7-1.9
				c0-0.4-0.2-0.8-0.3-1.2c-0.2-1.4,1.8-2.4,3.6-2.6c1.8-0.2,3.7-0.1,5.2-0.9c-1.3-1.6-4.2-1.7-6.5-1.2c-2.3,0.5-4.5,1.5-6.8,1.6
				c-1.8,0-3.7-0.5-5.4,0.1c-1.5,0.6-2.3,2-3.6,2.9c-1,0.7-2.3,1.1-3.5,1.5c-1.2,0.4-2.5,0.9-3.2,1.8c-0.3,0.3-0.4,0.6-0.5,1
				c3.7,2.8,10.1,4.9,17.9,5.8c-0.9-0.6-1.8-1.3-2.9-1.6C271.3,580.5,270.1,580.5,269.4,579.9z"/>
			<path class="st32" d="M304.5,577.2c-1.8-0.2-3.7,0.7-5.2,0c-0.6-0.3-1-0.7-1.6-1c-1.5-0.7-3.5,0-4.9,0.9c-1.4,0.9-2.7,2-4.5,2.2
				c-0.8,0.1-1.7-0.1-2.5,0c-2.3,0.3-3.6,2.3-5.4,3.5c1,0,2.1,0.1,3.1,0.1c9.5,0,17.9-1.7,23.3-4.5
				C306.3,577.8,305.4,577.3,304.5,577.2z"/>
		</g>
		<g>
			<g>
				<path class="st33" d="M291.5,572.4c-1-0.3-2.6-0.6-3.1-0.4c-0.7,0.2-1.2,0.7-1.8,1.1c-0.9,0.7-1.8,1.4-2.6,2.1
					c0.5,0.6,1.2,1.2,1.9,1.6C288,575.6,289.9,574.1,291.5,572.4z"/>
			</g>
			<g>
				<path class="st34" d="M285.9,576.8c0.1,0,0.1,0.1,0.2,0.1c0.2,0.1,0.3,0.2,0.5,0.2c0.2,0,0.3-0.1,0.5-0.2
					c1.9-1.3,3.6-2.7,5.1-4.2c-0.1-0.1-0.4-0.2-0.6-0.2C289.9,574.1,288,575.6,285.9,576.8z"/>
			</g>
		</g>
		<g>
			<path class="st35" d="M288.8,570c-0.9-0.5-1.9-0.7-2.9-0.8c-0.3,0-0.6,0-0.8,0.1c-0.3,0.2-0.4,0.5-0.5,0.8
				c-0.3,0.9-0.4,1.8-0.5,2.7c1.4-0.8,3.3-1.5,4.7-2.4c0.1-0.1,0.3-0.2,0.2-0.3C289,570.1,288.9,570,288.8,570z"/>
		</g>
		<g>
			<g>
				<path class="st35" d="M300.3,571.6c0-0.1-0.1-0.2-0.2-0.3c-0.1,0-0.2-0.1-0.3-0.1c-2.6,0-4.8-0.7-7.4-0.7
					c-0.6,0.8-1,1.7-1.3,2.6c0,0.1-0.1,0.2,0,0.3c0.1,0.1,0.2,0.1,0.3,0.2c2.6,1,5.6,1,8.5,0.9c0.1,0,0.2,0,0.3-0.1
					c0.1-0.1,0.1-0.2,0.2-0.2C300.7,573.4,300.6,572.4,300.3,571.6z"/>
			</g>
			<g>
				<path class="st34" d="M292.8,573.2c1.3,0.7,3.2,0.7,4.6,0.4c0.1,0,0.1-0.2,0-0.2c-1.4-0.3-3.1-0.5-4.6-0.3
					C292.7,573.1,292.7,573.2,292.8,573.2L292.8,573.2z"/>
			</g>
			<g>
				<path class="st34" d="M293.6,572.3c1.9,0.2,3.7,0.6,5.6,0.6c0.1,0,0.1-0.1,0-0.1C297.3,572.3,295.6,572.3,293.6,572.3
					C293.6,572.3,293.6,572.3,293.6,572.3L293.6,572.3z"/>
			</g>
			<g>
				<path class="st34" d="M292.4,571.5c1.3,0.3,2.5,0.4,3.9,0.4c0.1,0,0.1-0.1,0-0.1C295,571.5,293.8,571.4,292.4,571.5
					C292.3,571.4,292.3,571.5,292.4,571.5L292.4,571.5z"/>
			</g>
		</g>
		<g>
			<g>
				<path class="st36" d="M283.1,568.4c-0.1-0.1-0.2-0.2-0.3-0.2c-0.5,0.1-1,0.3-1.4,0.6c-0.7,0.4-1.4,1-1.3,1.7
					c0.1,0.8,1.3,1.3,2.2,1.2c-0.2-0.1-0.3-0.3-0.4-0.4C281.1,570.3,281.8,569,283.1,568.4z"/>
			</g>
			<g>
				<path class="st37" d="M284.9,570.2c0,0,0.1-0.1,0.1-0.1c0-0.1-0.1-0.2-0.2-0.3c-0.5-0.3-1.1-0.9-1.6-1.3c-1.3,0.6-2,1.8-1.2,2.8
					c0.1,0.1,0.3,0.3,0.4,0.4c0,0,0.1,0,0.1,0C283.5,571.5,284.3,570.9,284.9,570.2z"/>
			</g>
		</g>
		<g>
			<g>
				<path class="st36" d="M290.8,575.8c0,0.1,0.1,0.2,0.1,0.3c0.5,0.1,1,0.1,1.6,0.1c0.9,0,1.8-0.3,2.2-0.9c0.4-0.7-0.2-1.6-1.2-1.9
					c0,0.2,0.1,0.4,0.1,0.5C293.7,575.1,292.3,575.9,290.8,575.8z"/>
			</g>
			<g>
				<path class="st37" d="M290.4,573.6c-0.1,0-0.1,0-0.2,0.1c-0.1,0.1-0.1,0.2,0,0.4c0.2,0.4,0.3,1.2,0.5,1.8
					c1.5,0.1,2.9-0.7,2.9-1.9c0-0.2-0.1-0.3-0.1-0.5c0,0-0.1,0-0.1,0C292.4,573.1,291.3,573.3,290.4,573.6z"/>
			</g>
		</g>
		<g>
			<path class="st36" d="M294.3,569.9c-0.5-0.5-1-0.9-1.6-1.3c-1.2,0.4-2.9,0.8-3.8,1.4c-0.2,0.2-0.4,0.3-0.5,0.6
				c0,0.2,0.1,0.5,0.2,0.7c0.2,0.3,0.4,0.6,0.7,0.8c0.3,0.2,0.8,0.4,1.2,0.3c0.3,0,0.5-0.2,0.7-0.3c1-0.6,1.9-1.1,2.9-1.7
				c0.1-0.1,0.3-0.2,0.3-0.3C294.4,570.1,294.3,570,294.3,569.9z"/>
		</g>
		<g>
			<path class="st36" d="M276.6,569.3c-0.5-0.5-1-0.9-1.6-1.3c-1.2,0.4-2.9,0.8-3.8,1.4c-0.2,0.2-0.4,0.3-0.5,0.6
				c0,0.2,0.1,0.5,0.2,0.7c0.2,0.3,0.4,0.6,0.7,0.8c0.3,0.2,0.8,0.4,1.2,0.3c0.3,0,0.5-0.2,0.7-0.3c1-0.6,1.9-1.1,2.9-1.7
				c0.1-0.1,0.3-0.2,0.3-0.3C276.8,569.5,276.7,569.4,276.6,569.3z"/>
		</g>
		<g>
			<path class="st36" d="M287.5,573.6c-0.2-0.3-2.4-1.5-2.9-1.5c-0.5,0-1.1,0.1-1.3,0.4c-0.2,0.2-0.2,0.5-0.2,0.8c0,0.4,0,0.8,0,1.2
				c0,0.1,0,0.3,0.2,0.4c0.1,0,0.1,0,0.2,0c1.3,0,2.6-0.2,3.8-0.6c0.1,0,0.3-0.1,0.3-0.2C287.8,574,287.6,573.8,287.5,573.6z"/>
		</g>
		<g>
			<g>
				<path class="st33" d="M275.2,571c-0.1-0.1-0.2-0.2-0.4-0.2c-0.1,0-0.2,0-0.3,0.1c-2.2,1-4.6,1.4-6.8,2.5c0,1,0.2,1.9,0.6,2.8
					c0,0.1,0.1,0.2,0.2,0.3c0.1,0.1,0.2,0.1,0.4,0c2.9-0.2,5.4-1.5,7.9-2.8c0.1-0.1,0.2-0.1,0.2-0.2c0-0.1,0-0.2,0-0.3
					C276.7,572.4,276,571.6,275.2,571z"/>
			</g>
			<g>
				<path class="st34" d="M269.8,575.6c1.6,0,3.2-0.7,4.2-1.6c0.1-0.1,0-0.2-0.2-0.2c-1.4,0.3-3,0.9-4.1,1.7
					C269.7,575.5,269.7,575.6,269.8,575.6L269.8,575.6z"/>
			</g>
			<g>
				<path class="st34" d="M269.9,574.5c1.8-0.6,3.5-1,5.2-1.8c0.1,0,0-0.1,0-0.1C273.1,572.9,271.6,573.7,269.9,574.5
					C269.9,574.5,269.9,574.5,269.9,574.5L269.9,574.5z"/>
			</g>
			<g>
				<path class="st34" d="M268.4,574.3c1.3-0.3,2.4-0.7,3.6-1.3c0.1,0,0-0.1-0.1-0.1C270.6,573.2,269.5,573.6,268.4,574.3
					C268.3,574.2,268.3,574.3,268.4,574.3L268.4,574.3z"/>
			</g>
		</g>
		<g>
			<g>
				<path class="st35" d="M281.2,574.2c-0.1-0.8-0.6-2.1-1-2.4c-0.6-0.4-1.3-0.6-2-0.7c-1.2-0.3-2.3-0.6-3.5-0.9
					c-0.4,0.7-0.7,1.4-0.8,2.1C276,573.2,278.5,573.8,281.2,574.2z"/>
			</g>
			<g>
				<path class="st34" d="M273.7,572.2c0,0.1,0,0.1,0,0.2c0,0.2,0,0.3,0.1,0.5c0.1,0.1,0.3,0.2,0.4,0.2c2.3,0.7,4.6,1.3,7,1.6
					c0-0.1,0-0.3,0-0.6C278.5,573.8,276,573.2,273.7,572.2z"/>
			</g>
		</g>
		<g>
			<path class="st33" d="M278,574.3c-0.5,0.2-0.9,0.4-1.2,0.8c-0.2,0.3-0.2,0.6-0.3,0.9c-0.1,0.5,0,1.1,0.5,1.3
				c0.4,0.2,0.9,0.1,1.3,0c0.7-0.1,1.4-0.3,2.1-0.6c0.7-0.2,1.5-0.6,1.8-1.1c0.3-0.4,0.3-0.9,0.3-1.4c0-0.1,0-0.3,0-0.5
				c0-0.7-0.9-1.2-1.7-0.9C279.9,573.4,279,573.8,278,574.3z"/>
		</g>
	</g>
</g>
</svg>
