<?xml version="1.0" encoding="utf-8"?>
<!-- Generator: Adobe Illustrator 26.0.1, SVG Export Plug-In . SVG Version: 6.00 Build 0)  -->
<svg version="1.1" id="Layer_1" xmlns="http://www.w3.org/2000/svg" xmlns:xlink="http://www.w3.org/1999/xlink" x="0px" y="0px"
	 viewBox="0 0 1000 1000" style="enable-background:new 0 0 1000 1000;" xml:space="preserve">
<style type="text/css">
	.st0{clip-path:url(#SVGID_00000162329877628658587870000002609098814618541187_);}
	.st1{fill:#F2D7B9;}
	.st2{clip-path:url(#SVGID_00000162329877628658587870000002609098814618541187_);fill:#E5C49D;}
	.st3{clip-path:url(#SVGID_00000162329877628658587870000002609098814618541187_);fill:#D8B182;}
	.st4{fill:#D5B792;}
	.st5{fill-rule:evenodd;clip-rule:evenodd;fill:#23AEB5;}
	.st6{fill-rule:evenodd;clip-rule:evenodd;fill:#E09A61;}
	.st7{fill:#E09A61;}
	.st8{fill:#FFFFFF;}
	.st9{fill:#DC2428;}
	.st10{fill:#301F1D;}
	.st11{fill:#352D2D;}
	.st12{fill:none;stroke:#301F1D;stroke-width:0.4577;stroke-miterlimit:10;}
	.st13{fill:#C47947;}
	.st14{fill:#231F20;}
	.st15{fill:#603813;}
	.st16{fill:#CE0D28;}
	.st17{fill:#BC1E26;}
	.st18{fill:#271917;}
	.st19{fill:#D7935D;}
</style>
<g>
	<g>
		<defs>
			<path id="SVGID_1_" d="M850.8,653.6c14.1-17.6,20.2-13.2,31.3-29.2c136.5-195.9-90-377.2-138.8-423.6
				c-35.2-33.4-79-75.2-104.4-94.2c-83.5-62.5-207.6-49.6-220.2-48c-85.6,11-204.8,61.1-245.5,159.9
				c-40.6,98.6,0.9,236.8-44.2,272.6c-5.2,4.1-28.5,23.3-52.3,55.8c-3.4,4.7-6.6,10.1-9.8,16.9c-33.5,72.6,39.9,172.3,50.4,186.6
				c76.9,104.5,198.2,132.1,270,147.3c163,34.6,394.2,19.2,429.6-76.7C834.1,774.4,803.6,712.5,850.8,653.6z"/>
		</defs>
		<clipPath id="SVGID_00000158710164920543542260000000737219882175354298_">
			<use xlink:href="#SVGID_1_"  style="overflow:visible;"/>
		</clipPath>
		<g style="clip-path:url(#SVGID_00000158710164920543542260000000737219882175354298_);">
			<path class="st1" d="M878.9,668c15.2-19,21.7-14.3,33.7-31.4c82-117.7,36.8-289.1-67.9-378.5c-2.3-2-16.9-16.2-45.3-43.5
				c-21.5-20.6-33.1-31.6-36.4-34.7c-42.3-40.6-77-91.8-91.6-109.8c-74.8-92.4-244.8-83.2-272-81.7C344-8.5,242.6-3,180,72.4
				c-38.8,46.7-48.5,102.9-51.8,122.1c-9.5,55.1-3.7,62.7,3.2,152.2c3.9,50.8,0.7,105.9-30.5,146.1c-33.3,43-51,43.7-67,78.4
				c-36.1,78.2,43,185.7,54.3,201.1C171,885.1,301.9,914.8,379.3,931.2c175.7,37.2,424.9,20.7,463.1-82.7
				C860.9,798.2,828.1,731.6,878.9,668z"/>
		</g>
		<polygon style="clip-path:url(#SVGID_00000158710164920543542260000000737219882175354298_);fill:#E5C49D;" points="17.4,514.1 
			932.9,514.1 903.2,957.8 55,936.4 		"/>
		<path style="clip-path:url(#SVGID_00000158710164920543542260000000737219882175354298_);fill:#D8B182;" d="M556.7,775.9
			c4.9,2.7,14.4,8.1,19.6,19.6c0.6,1.3,7.6,17.5,0,31.3c-4.9,8.9-15.3,13.1-36.2,21.6c-18,7.3-24.7,7.5-34.3,15.7
			c-8.8,7.5-6.5,10.1-13.7,15.7c-20,15.4-49.9,4.5-53.9,2.9c-6.9-2.6-20.8-7.9-21.6-16.7c-0.6-7.3,8.6-10.1,17.6-21.6
			c13.8-17.4,6.2-28,16.7-44.1c11.9-18.4,34.2-23.5,50.9-27.4C515.1,769.9,536.6,764.9,556.7,775.9z"/>
		<path style="clip-path:url(#SVGID_00000158710164920543542260000000737219882175354298_);fill:#D8B182;" d="M546.4,527.8
			c6.7,6.7,12.4,14.5,10.3,20.6c-6.8,19.3-91.4,15.8-96.2-3.7c-1.4-5.6,4.2-11.4,7-14.3C483.1,514.3,514.2,513.5,546.4,527.8z"/>
		<path style="clip-path:url(#SVGID_00000158710164920543542260000000737219882175354298_);fill:#D8B182;" d="M288.2,644.4
			c6.7,2.4,12.5,6.9,16.3,12.9c2.4,3.9,3.6,7.8,2.5,11.1c-6.8,19.3-91.4,15.8-96.2-3.7c-1.4-5.6,4.2-11.4,7-14.3
			C232,635.7,259.1,633.8,288.2,644.4z"/>
		<path style="clip-path:url(#SVGID_00000158710164920543542260000000737219882175354298_);fill:#D8B182;" d="M797.4,649.4
			c6.8,2.1,12.9,6.1,17,12c2.7,3.8,4.1,7.6,3.1,11c-5.7,19.7-90.4,20.9-96.3,1.8c-1.7-5.5,3.5-11.6,6.2-14.7
			C740.8,643.9,767.7,640.5,797.4,649.4z"/>
		<g style="clip-path:url(#SVGID_00000158710164920543542260000000737219882175354298_);">
			<g>
				<path class="st4" d="M545.6,194.6H406.5v-93.3h139.1V194.6z M412.2,188.9H540V107H412.2V188.9z"/>
			</g>
			<path class="st4" d="M521.3,180.9l-2.8-11.6h0c-0.1-0.3-0.8-0.7-2.1-0.9v-3.4c0,0,0,0,0,0v-2.6h0v-0.6h0v-1
				c0-0.5-0.4-0.9-0.9-0.9c-0.5,0-0.9,0.4-0.9,0.9v0.3h-1.1v-0.3c0-0.1,0-0.3-0.1-0.4l0,0l-0.5-6.1l0-0.4l0.3,0l0,0l0.4,0l0.1,0l0,0
				h0c0.3,0,0.5-0.1,0.6-0.3c0.2-0.2,0.2-0.5,0.2-0.8c0-0.2-0.1-0.4-0.2-0.6c-1.3-2.5-2.5-5.1-4-7.5l-0.2-0.4c0-0.1-0.1-0.1-0.1-0.2
				c0,0,0-0.1,0-0.1c0,0,0,0,0,0c-0.1-0.1-0.2-0.2-0.4-0.2v-2.3h4.8l-1.5-1.7l1.5-1.7h-5.1h-0.4v3.4h0v2.4c-0.1,0.1-0.2,0.2-0.3,0.4
				l-2.2,4.3c-0.2,0-0.4,0-0.5,0h-0.8c-1.3,0-2.4,0.6-3.1,1.5v-1.8v-2.5h0v-0.6h0v-1c0-0.5-0.4-0.9-0.9-0.9c-0.5,0-0.9,0.4-0.9,0.9
				v0.3h-1.1v-0.3c0-0.1,0-0.3-0.1-0.4l-0.5-6.1l0-0.4l0.9,0l0,0l0,0c0.2,0,0.3-0.1,0.5-0.2c0.1,0,0.1-0.1,0.2-0.2
				c0.1-0.1,0.2-0.3,0.2-0.5c0.1-0.3,0-0.6-0.1-0.9c-1.3-2.5-2.5-5.1-4-7.5l-0.2-0.4c0-0.1-0.1-0.1-0.1-0.2c0,0,0-0.1,0-0.1
				c0,0,0,0,0,0c-0.1-0.1-0.2-0.2-0.4-0.2v-2.3h4.8l-1.5-1.7l1.5-1.7h-5.1h-0.4v3.4h0v2.4c-0.1,0.1-0.2,0.2-0.3,0.4l-4,7.7
				c-0.4,0.7,0.1,1.7,0.8,1.7l0.9,0l0,0.4l-0.6,6.9h-0.8v-0.3c0-0.5-0.4-0.9-0.9-0.9c-0.5,0-0.9,0.4-0.9,0.9v0.3v0.7v0.6h0v2.8v0.5
				c-1,0.4-1.8,1.2-2.2,2.2H486v-2.9h0v-0.9h0v-1.5c0-0.7-0.6-1.3-1.3-1.3s-1.3,0.6-1.3,1.3v0.4h-1.6v-0.4c0-0.2-0.1-0.4-0.1-0.6
				l0,0l-0.8-8.7l0-0.5l0-0.1l0.5,0c0,0,0,0,0,0l0.8,0c0.4,0,0.7-0.2,0.9-0.5c0.1-0.2,0.3-0.4,0.3-0.7c0-0.1,0-0.3,0-0.4
				c0-0.3-0.1-0.6-0.2-0.8c-2-3.7-3.7-7.5-5.9-11.1l-0.2-0.3c-0.1-0.1-0.1-0.2-0.2-0.3c0,0-0.1-0.1-0.1-0.1c0,0,0,0,0,0.1
				c-0.2-0.2-0.4-0.3-0.6-0.4v-3.4h6.9l-2.2-2.5l2.2-2.5H476h-0.5v4.9h0v3.5c-0.2,0.1-0.3,0.3-0.4,0.5l-5.7,11.2
				c-0.5,1,0.1,2.5,1.1,2.5l1.3,0v0l-0.1,0.6l-0.9,10l0,0h-1.1v-0.4c0-0.7-0.6-1.3-1.3-1.3c-0.7,0-1.3,0.6-1.3,1.3v0.4h0v1.9h0v2.9
				H466c-0.5-1.2-1.5-2-2.7-2.4v-0.5v-2.5h0v-0.6h0v-1c0-0.5-0.4-0.9-0.9-0.9c-0.5,0-0.9,0.4-0.9,0.9v0.3h-1.1v-0.3
				c0-0.1,0-0.3-0.1-0.4l-0.5-6.1l0-0.4l0.9,0c0.7,0,1.1-0.9,0.7-1.7c-1.3-2.5-2.5-5.1-4-7.5l-0.2-0.4c0-0.1-0.1-0.1-0.1-0.2
				c0,0,0-0.1,0-0.1c0,0,0,0,0,0c-0.1-0.1-0.2-0.2-0.4-0.2v-2.3h4.8l-1.5-1.7l1.5-1.7h-5.1h-0.4v3.4h0v2.4c-0.1,0.1-0.2,0.2-0.3,0.4
				l-4,7.7c-0.4,0.7,0.1,1.7,0.8,1.7l0.9,0l0,0.4l-0.6,6.9H452v-0.3c0-0.5-0.4-0.9-0.9-0.9c-0.5,0-0.9,0.4-0.9,0.9v0.3v0.7v0.6h0
				v2.8v1.1c-0.7-0.6-1.6-1-2.7-1h-0.8c-0.4,0-0.7,0.1-1.1,0.2c-0.7-1.3-1.4-2.7-2.2-4l-0.2-0.4c0-0.1-0.1-0.1-0.1-0.2
				c0,0,0-0.1,0-0.1c0,0,0,0,0,0c-0.1-0.1-0.2-0.2-0.4-0.2v-2.3h4.8l-1.5-1.7l1.5-1.7h-5.1h-0.4v3.4h0v2.4c-0.1,0.1-0.2,0.2-0.3,0.4
				l-4,7.7c-0.4,0.7,0.1,1.7,0.8,1.7l0.9,0l0,0.1l0,0.3l-0.6,6.9l0,0h-0.8v-0.3c0-0.5-0.4-0.9-0.9-0.9c-0.5,0-0.9,0.4-0.9,0.9v1h0
				v0.6h0v6.1c-0.9,0.2-1.4,0.5-1.5,0.8h0l-2.8,11.6h22.3l0,0h0.1h17.3v-0.3v-10.6h0c0,0,0,0,0-0.1c0-3,2.4-5.4,5.4-5.4
				c0.5,0,1,0.1,1.5,0.2c2.3,0.7,3.9,2.7,3.9,5.2v10.6v0.3H499l0,0H521.3z M472,151.6C472,151.6,472,151.6,472,151.6
				c0-0.1,0-0.1,0.1-0.1c0-0.1,0.1-0.2,0.1-0.3c0-0.1,0.1-0.2,0.2-0.3c0.2-0.3,0.3-0.5,0.6-0.8c0.1-0.1,0.1-0.1,0.2-0.2l0.1-0.1
				c0.1-0.1,0.1-0.1,0.2-0.2c0.1-0.1,0.1-0.1,0.2-0.2c0.1-0.1,0.2-0.1,0.3-0.2c0,0,0,0,0.1,0c0.1-0.1,0.2-0.1,0.3-0.2h0
				c0.5-0.2,1-0.4,1.5-0.5c0,0,0.1,0,0.1,0c0.2,0,0.4,0,0.5,0c0.3,0,0.5,0,0.8,0.1c0.2,0,0.5,0.1,0.7,0.2c0,0,0,0,0,0
				c0.2,0.1,0.4,0.2,0.6,0.3h0c0,0,0,0,0,0c0.1,0,0.2,0.1,0.3,0.2c0,0,0.1,0,0.1,0.1c0.1,0,0.1,0.1,0.2,0.1c0,0,0.1,0.1,0.1,0.1
				c0.1,0,0.1,0.1,0.2,0.2c0,0,0,0,0.1,0.1c0.1,0.1,0.2,0.1,0.2,0.2c0,0,0,0,0,0c0.1,0.1,0.2,0.2,0.2,0.3c0.1,0.1,0.2,0.2,0.2,0.3
				c0.1,0.1,0.1,0.2,0.2,0.3c0.1,0.1,0.1,0.2,0.2,0.3c0,0,0,0,0,0h0c0.1,0.2,0.2,0.4,0.3,0.7c0,0,0,0,0,0c0,0.2,0.1,0.3,0.1,0.5
				c0,0,0,0.1,0,0.1c0,0,0,0.1,0,0.1c0,0.2,0,0.4,0,0.6c0,0,0,0,0,0v0.8v0.2v0.6v3.2h-1.6l0-0.7c0-0.5-0.5-1-1.2-1h-2.7
				c-0.6,0-1.2,0.4-1.2,1l0,0.7h-2.6V154c0,0,0,0,0,0v-0.1v-0.7h0c0,0,0,0,0,0c0-0.1,0-0.3,0-0.4c0-0.1,0-0.2,0-0.3
				c0-0.1,0-0.1,0-0.2c0-0.1,0-0.2,0.1-0.3C472,151.8,472,151.7,472,151.6z M475.9,138.1c0.1,0,0.3,0,0.4,0c0.4,0,0.8,0,1.1-0.1
				c0.7,0.4,1.2,1.1,1.2,2v2.5h-4.6v-2.5c0-0.9,0.5-1.6,1.2-2C475.5,138.1,475.7,138.1,475.9,138.1z M511.3,156.8v1.7h-1.1h-0.3
				h-1.7v-1.7c0,0,0,0,0,0c0-0.3,0.1-0.6,0.3-0.9h0c0.1-0.2,0.3-0.4,0.5-0.5c0.1-0.1,0.2-0.1,0.3-0.1c0.1,0,0.3-0.1,0.4-0.1
				c0,0,0.1,0,0.1,0c0,0,0,0,0.1,0c0,0,0.1,0,0.1,0c0.1,0,0.1,0,0.1,0c0,0,0,0,0.1,0c0.1,0,0.2,0.1,0.3,0.1c0,0,0,0,0,0
				C511,155.7,511.3,156.2,511.3,156.8z M442.7,155.2c0.1,0,0.2,0,0.3,0c0,0,0.1,0,0.1,0c0.1,0,0.1,0,0.2,0.1c0,0,0.1,0,0.1,0.1
				c0.2,0.1,0.4,0.3,0.5,0.5c0.2,0.3,0.3,0.6,0.3,0.9v1.7h-0.9h-0.6h-1.6v-1.7c0,0,0,0,0,0c0-0.6,0.3-1.1,0.8-1.4
				C442.2,155.3,442.5,155.2,442.7,155.2z M512.9,165.9v0.5v2.9h-2.7h-0.3h-3.3v-1.2v-1.7c0,0,0,0,0,0v0v-0.5c0-0.6,0.2-1.2,0.5-1.7
				h0h0.1l0,0l0,0c0,0,0,0,0,0l0,0c0.3-0.4,0.7-0.8,1.1-1h0c0.4-0.2,1-0.4,1.5-0.4c0.1,0,0.1,0,0.2,0v0.1c0,0,0,0,0,0v0
				c0.1,0,0.2-0.1,0.3-0.1c0,0,0.1,0,0.1,0c0.3,0.1,0.6,0.2,0.9,0.3h0C512.2,163.6,512.9,164.7,512.9,165.9z M441.3,163.1
				c0.4-0.2,1-0.4,1.5-0.4c0.2,0,0.4,0,0.6,0c0,0,0.1,0,0.1,0c0.3,0.1,0.6,0.2,0.8,0.3h0c1,0.5,1.7,1.6,1.7,2.8v0.5v2.9h-2.5h-0.6
				h-3.2v-1.2v-1.7c0,0,0,0,0,0v0v-0.5C439.6,164.7,440.2,163.6,441.3,163.1L441.3,163.1z"/>
			<path class="st4" d="M412.2,188.9c2.5-1.2,5.2-2.5,7.8-3.7c5.1-2.3,10-4.4,14.9-6.3c12.3,0.6,24.5,1.2,36.8,1.7
				c3.6,0,7.2,0,10.8,0c12.9,0.1,25.9,0.2,38.8,0.3c6.6,3.1,13.1,6.1,19.7,9.2C498.1,189.7,455.1,189.3,412.2,188.9z"/>
		</g>
	</g>
	<g>
		<g>
			<path class="st5" d="M279.4,450.9"/>
			<g>
				<g>
					<path class="st6" d="M282,381.5c-2.9-6.5-4.6-8.9-5.5-9.9c-0.2-0.2-1.1-1.1-2.3-2.5c-0.4-0.4-0.7-0.9-1.2-1.5
						c-1.5-2.1-2.5-4.1-3-5.4c-0.1-0.4-0.2-0.9-0.2-1.6c0.1-0.8,0.3-1.5,0.5-1.8c1.6,2.1,3.2,4.2,4.7,6.2c0.2-1.1,1-5.6-1.8-9.9
						c-1.6-2.5-3.7-3.8-4.8-4.4c-0.4-0.6-1-1.6-1.3-3c-0.2-0.7-0.2-1.3-0.2-1.9c2,1.3,4,2.6,6.1,3.9c1.6,1,3.1,1.9,4.7,2.8
						c1.2,0.7,2.2,1.9,2.5,3.3c0.4,1.7,0.9,3.5,1.3,5.4c0.4,2,0.8,4,1.1,5.9c2.1,3.3,4.2,6.5,6.3,9.8
						C286.6,378.6,284.3,380.1,282,381.5z"/>
					<g>
						<g>
							<path class="st6" d="M313.3,416.6c-2.6,1.7-5.2,3.4-7.8,5.2c-0.4-0.1-0.9-0.2-1.4-0.4c0,0,0,0,0,0c-4.1-1.1-8.5-2.5-13.1-4.2
								c-6.4-2.3-12.1-4.9-17.2-7.4c-1.6-4.7-3.2-9.4-4.8-14c1.4,0.5,3.4,1.2,5.9,2.1c8.3,2.9,14.7,5.2,19.9,7.3
								c0.2,0.1,0.4,0.2,0.6,0.2c4.5,1.9,10.5,4.6,17.4,8.7c0.1,0.2,0.3,0.4,0.4,0.7C313.2,415,313.3,415.7,313.3,416.6z"/>
						</g>
						<g>
							<path class="st7" d="M313.3,416.6c0,1-0.3,2.3-1.1,3.4c-1.7,2.1-5,2.8-8.1,1.4c0,0,0,0,0,0c-0.1-0.1-0.3-0.2-0.5-0.2
								c-3-5.3-5.9-10.6-8.9-16c-0.9-1.7-1.9-3.5-2.8-5.2c-3.4-6.2-6.6-12.4-9.8-18.5c-0.4-0.8-0.8-1.6-1.2-2.4
								c-0.8-1.5-1.6-3.1-2.4-4.6c0,0-0.1-0.1-0.1-0.1c0.9-0.3,2-0.7,3.2-1.4c1.3-0.7,2.3-1.5,3.1-2.2c0,0,0,0,0,0
								c7.4,10.1,14.8,21.1,22,33.1c2.1,3.4,4.1,6.9,5.9,10.2c0.1,0.2,0.3,0.4,0.4,0.7C313.2,415,313.3,415.7,313.3,416.6z"/>
						</g>
					</g>
				</g>
				<g>
					<path class="st6" d="M229.7,381.5c2.9-6.5,4.6-8.9,5.5-9.9c0.2-0.2,1.1-1.1,2.3-2.5c0.4-0.4,0.7-0.9,1.2-1.5
						c1.5-2.1,2.5-4.1,3-5.4c0.1-0.4,0.2-0.9,0.2-1.6c-0.1-0.8-0.3-1.5-0.5-1.8c-1.6,2.1-3.2,4.2-4.7,6.2c-0.2-1.1-1-5.6,1.8-9.9
						c1.6-2.5,3.7-3.8,4.8-4.4c0.4-0.6,1-1.6,1.3-3c0.2-0.7,0.2-1.3,0.2-1.9c-2,1.3-4,2.6-6.1,3.9c-1.6,1-3.1,1.9-4.7,2.8
						c-1.2,0.7-2.2,1.9-2.5,3.3c-0.4,1.7-0.9,3.5-1.3,5.4c-0.4,2-0.8,4-1.1,5.9c-2.1,3.3-4.2,6.5-6.3,9.8
						C225.2,378.6,227.4,380.1,229.7,381.5z"/>
					<g>
						<g>
							<path class="st6" d="M198.4,416.6c2.6,1.7,5.2,3.4,7.8,5.2c0.4-0.1,0.9-0.2,1.4-0.4c0,0,0,0,0,0c4.1-1.1,8.5-2.5,13.1-4.2
								c6.4-2.3,12.1-4.9,17.2-7.4c1.6-4.7,3.2-9.4,4.8-14c-1.4,0.5-3.4,1.2-5.9,2.1c-8.3,2.9-14.7,5.2-19.9,7.3
								c-0.2,0.1-0.4,0.2-0.6,0.2c-4.5,1.9-10.5,4.6-17.4,8.7c-0.1,0.2-0.3,0.4-0.4,0.7C198.6,415,198.4,415.7,198.4,416.6z"/>
						</g>
						<g>
							<path class="st7" d="M198.4,416.6c0,1,0.3,2.3,1.1,3.4c1.7,2.1,5,2.8,8.1,1.4c0,0,0,0,0,0c0.1-0.1,0.3-0.2,0.5-0.2
								c3-5.3,5.9-10.6,8.9-16c0.9-1.7,1.9-3.5,2.8-5.2c3.4-6.2,6.6-12.4,9.8-18.5c0.4-0.8,0.8-1.6,1.2-2.4c0.8-1.5,1.6-3.1,2.4-4.6
								c0,0,0.1-0.1,0.1-0.1c-0.9-0.3-2-0.7-3.2-1.4c-1.3-0.7-2.3-1.5-3.1-2.2c0,0,0,0,0,0c-7.4,10.1-14.8,21.1-22,33.1
								c-2.1,3.4-4.1,6.9-5.9,10.2c-0.1,0.2-0.3,0.4-0.4,0.7C198.6,415,198.4,415.7,198.4,416.6z"/>
						</g>
					</g>
				</g>
			</g>
		</g>
		<g>
			<g>
				<g>
					<g>
						<path class="st8" d="M242,380.5c0,4.1-0.4,7.4-0.8,7.4c-0.5,0-0.8-3.3-0.8-7.4c0-4.1,0.4-7.4,0.8-7.4
							C241.6,373.1,242,376.4,242,380.5z"/>
						<path class="st8" d="M268.7,380.5c0,4.1,0.4,7.4,0.8,7.4c0.5,0,0.8-3.3,0.8-7.4c0-4.1-0.4-7.4-0.8-7.4
							C269.1,373.1,268.7,376.4,268.7,380.5z"/>
					</g>
					<g>
						<g>
							<path class="st7" d="M254.4,641.5c0.1,0.8-0.3,2.5-0.5,4h-7.9c0.1-1.7-0.1-2.7-0.3-4.3v0c0-0.2,0-0.4-0.1-0.6
								c-0.2-1.4,0.8-3.6,0.1-5.9c-3-9.2-6.2-22.1-8.8-31.4c-2.5-9.3-2.4-17.4,0.5-26.1c3.2-9.6,0.4-17.6-5-46.8
								c-1-5.4-2.6-13.8-4.3-24.5c9-3.1,17.9-6.1,26.9-9.2c-0.1,29.8,0,50.9,0.3,60.4c0.2,7,0.2,9.5-0.4,14.1
								c-0.9,6.4-2.1,7.9-2.1,12.7c0.1,4.9,1.3,7.5,2.2,11c2,7.6-2.7,35.4-2,42.8C253.1,638.6,254.3,640.1,254.4,641.5z"/>
						</g>
						<g>
							<path class="st7" d="M281.4,530.5c-5.5,29.1-8.3,37.1-5,46.8c2.9,8.7,3.1,16.8,0.5,26.1c-2.5,9.3-5.8,22.2-8.8,31.4
								c-0.7,2.2,0.3,4.4,0.1,5.9c-0.2,1.9-0.5,2.9-0.4,4.8h-7.9c-0.2-1.5-0.5-3.2-0.4-4c0.1-1.3,1.3-2.8,1.4-3.6
								c0.7-7.5-4-35.2-2-42.8c0.9-3.5,2.2-6.1,2.2-11c0-4.8-1.2-6.4-2.1-12.7c-0.6-4.6-0.7-7.1-0.4-14.1c0.3-9.5,0.4-30.6,0.3-60.4
								c9,3.1,17.9,6.1,26.9,9.2C283.9,516.7,282.4,525.2,281.4,530.5z"/>
						</g>
					</g>
					<g>
						<g>
							<g>
								<g>
									<g>
										<path class="st7" d="M225.3,400.8c1.2-1,2.6-1.7,4.1-2.2C227.9,399.2,226.5,399.8,225.3,400.8z"/>
										<path class="st7" d="M229.4,398.6c7.5-2.5,17.8-0.1,19.3-11.4c0.1-0.9,0.2-2,0.2-3.1c1.7,0,5.2,0.1,6.8,0.3
											c1.6-0.2,5.1-0.3,6.8-0.3c0,1,0,1.9,0.1,2.7c1.4,12.1,12.5,9,20.2,12C281.6,398.9,253.1,419.1,229.4,398.6z"/>
										<path class="st7" d="M274.2,452.2c1.5,4.3,3.1,8.8,4.7,13.3c-6.8,2.2-16,2.1-23.2,1.5c0,0-0.1,0-0.1,0
											c-4.2,0.1-8.4,0.2-12.6,0.2c-3.6,0-7.2,0-10.7,0c2.1-5.9,4.2-11.9,6.3-17.8h34.3c0.1,0.2,0.1,0.4,0.2,0.6
											C273.4,450.6,273.7,451.3,274.2,452.2z"/>
									</g>
									<path class="st7" d="M255.7,495.3c-0.2,0-0.4,0.5-0.7,1.5c0.4,3.5,0.6,7,0.7,10.4c0.1-3.5,0.3-7,0.7-10.6
										C256.2,495.8,255.9,495.3,255.7,495.3z"/>
									<g>
										<g>
											<path d="M272.5,361.3c0,9.8-7.6,17.7-17,17.7c-9.4,0-17-7.9-17-17.7c0-17.3,10.3-18.5,17-18.5
												C262.2,342.8,272.5,343.8,272.5,361.3z"/>
										</g>
										<path class="st7" d="M268,369.9c-0.7,1.9-0.6,4.8,0.4,5.1c1,0.4,2.5-1.8,3.2-3.7c0.7-1.9,0.4-3.8-0.6-4.2
											C270.1,366.7,268.7,368,268,369.9z"/>
										<path class="st7" d="M243,369.9c0.7,1.9,0.7,4.8-0.3,5.1c-1,0.4-2.7-1.8-3.4-3.7c-0.7-1.9-0.4-3.8,0.6-4.2
											C240.9,366.7,242.3,368,243,369.9z"/>
										<path d="M255.9,349.6c-0.1,0-0.3,0-0.4,0c-0.1,0-0.3,0-0.4,0c-13.5,0-14.7,9.2-14.7,20c0,10.8,10.2,19.5,15.2,19.5
											c5,0,15.2-8.8,15.1-19.5C270.6,358.7,269.1,349.6,255.9,349.6z"/>
									</g>
									<path class="st7" d="M287.3,402L287.3,402c-3.2,5-4.6,8.3-8.7,10.7c4.1,8.2-0.8,14-1.4,14.9c0,0,0,0,0,0.1
										c-0.3,9.5-5.9,16.2-4.3,21.7h-34.3c1.7-5.5-4-12.2-4.3-21.7v0c0,0,0,0-0.1-0.1c-1.2-1.8-1.6-2-2.2-3.3
										c-1-2.4-1.6-6.2,0.8-11.6c-4.1-2.4-5.5-5.7-8.7-10.7v0c0.2-0.2,0.4-0.4,0.6-0.6c0.1-0.1,0.2-0.2,0.3-0.3
										c0.1-0.1,0.2-0.1,0.2-0.2c1.2-1,2.6-1.6,4.1-2.2c0,0,0,0,0,0c0,0,0,0,0,0c23.6,20.6,52.2,0.4,53.4,0.3
										c0.7,0.3,1.3,0.6,1.9,0.9c0.1,0.1,0.3,0.2,0.4,0.3c0.1,0.1,0.2,0.2,0.4,0.2c0,0,0,0,0,0c0.1,0.1,0.2,0.2,0.4,0.3
										c0.1,0.1,0.2,0.2,0.3,0.3c0.2,0.2,0.5,0.4,0.7,0.7C287.1,401.7,287.2,401.8,287.3,402z"/>
									<path class="st7" d="M229.4,398.6L229.4,398.6C229.4,398.6,229.4,398.6,229.4,398.6C229.4,398.6,229.4,398.6,229.4,398.6z"
										/>
									<path class="st7" d="M284.8,399.8c-0.6-0.4-1.3-0.7-1.9-0.9c0,0,0,0,0,0C283.5,399.1,284.2,399.4,284.8,399.8z"/>
								</g>
								<g>
									<path d="M287.3,402c-1.2-1.5-2.7-2.4-4.4-3.1c-0.7-0.3-29.6,20.4-53.4-0.3c-2,0.8-3.8,1.6-5.2,3.4
										c-1.5,3.9,4.1,18.3,8.9,24.4c0.6,0.7,1.1,1.2,1.2,1.3c0.3,9.5,5.9,16.2,4.3,21.7h34.3c-1.7-5.5,4-12.2,4.3-21.7
										c0.3-0.3,0.7-0.7,1.2-1.3c2.9-3.4,4.1-6.8,5.9-12.9C285.2,410,286.3,406.2,287.3,402z"/>
									<g>
										<path class="st9" d="M255.7,406.9v21.6c0,0-17.3,3.9-21.5-4.7c-0.6,0-2.5-0.3-5.1-1c-2.3-0.7-5-1.8-7.5-3.6
											c-2-1.4-3.8-3.3-5.2-5.8c-0.3-0.6-0.6-1.2-0.8-1.8c-0.9-2.1-1.2-4-1.4-5.6c0.9-1,2.4-2.4,4.4-3.8c1.1-0.7,2.3-1.4,3.7-2
											c2.8-1.2,5.4-1.7,7.2-1.9c0,0,0.1,0,0.1,0c3.6,1.7,7.8,3.5,12.6,5C247.2,405.1,251.7,406.2,255.7,406.9z"/>
										<path class="st9" d="M297.2,406.1c-0.1,1.6-0.5,3.6-1.4,5.6c-0.2,0.6-0.5,1.2-0.8,1.8c-1.4,2.5-3.2,4.3-5.1,5.8
											c-3.1,2.2-6.5,3.4-9,4c-1.8,0.4-3.1,0.6-3.6,0.6h0c-4.2,7.6-21.5,4.7-21.5,4.7v-21.6c3.7-0.5,8.2-1.4,13.1-2.9
											c5.1-1.6,9.4-3.6,12.9-5.5c0,0,0,0,0,0c0,0,0,0,0,0c1.8,0.2,4.4,0.6,7.3,1.9c0.7,0.3,1.4,0.7,2.1,1
											C294,402.9,296,404.8,297.2,406.1z"/>
									</g>
									<g>
										<g>
											<path class="st9" d="M255.7,592c0,0-17.2,2.3-25.3-5.8c-8.5,3.3-24.7,0.3-27.2-6.2c14.3-32.8,13.6-45.3,13.6-45.3
												l38.9,9.1V592z"/>
											<path d="M233.1,574.5c-7.4,2.9-20.9,0.6-25.9-4.1c-1.4,2.8-2.5,6.3-4,9.7c2.5,6.5,18.7,9.5,27.2,6.2
												c8.1,8.1,25.3,5.8,25.3,5.8v-11.6C250.6,580.7,239.2,580.6,233.1,574.5z"/>
											<path class="st9" d="M255.7,547.4c0,0-14.3,2-21.1-5.1c-7.1,2.9-20.6,0.2-22.6-5.5c11.9-29,11.3-40.1,11.3-40.1l32.4,8
												V547.4z"/>
											<path d="M236.9,531.8c-6.1,2.5-17.4,0.6-21.5-3.7c-1.2,2.5-2.1,5.5-3.4,8.6c2.1,5.7,15.5,8.4,22.6,5.5
												c6.7,7.1,21.1,5.1,21.1,5.1v-10.2C251.4,537.4,242,537.2,236.9,531.8z"/>
											<path class="st9" d="M255.7,509.7c0,0-12.5,1.5-18.4-3.7c-6.2,2.1-18,0.2-19.8-4c3.4-7.3,6.9-15,10.2-23.1
												c4.2-10.2,7.8-20.1,10.9-29.5c5.9,0,11.9,0,17.8,0C256.2,469.4,256,489.6,255.7,509.7z"/>
											<path class="st9" d="M294.3,501.9c-1.8,4.2-13.6,6.2-19.8,4c-5.9,5.2-18.4,3.7-18.4,3.7c-0.2-14.3-0.3-28.5-0.5-42.8
												c-0.1-5.9-0.1-11.7-0.2-17.6h17.8c0.3,0.9,0.6,1.9,1,2.8c1.5,4.3,3.1,8.8,4.7,13.3c1.6,4.4,3.4,8.9,5.2,13.4
												C287.5,487,290.9,494.7,294.3,501.9z"/>
											<path d="M239.3,498.3c-5.4,1.9-15.2,0.4-18.8-2.7c-1,1.8-1.9,4.1-3,6.3c1.8,4.2,13.6,6.2,19.8,4
												c5.9,5.2,18.4,3.7,18.4,3.7v-7.5C252,502.4,243.7,502.3,239.3,498.3z"/>
										</g>
										<g>
											<path class="st9" d="M255.7,592c0,0,17.2,2.3,25.3-5.8c8.5,3.3,24.7,0.3,27.2-6.2c-14.3-32.8-13.6-45.3-13.6-45.3
												l-38.9,9.1V592z"/>
											<path d="M278.4,574.5c7.4,2.9,20.9,0.6,25.9-4.1c1.4,2.8,2.5,6.3,4,9.7c-2.5,6.5-18.7,9.5-27.2,6.2
												c-8.1,8.1-25.3,5.8-25.3,5.8v-11.6C260.9,580.7,272.2,580.6,278.4,574.5z"/>
											<path class="st9" d="M255.7,547.4c0,0,14.3,2,21.1-5.1c7.1,2.9,20.6,0.2,22.6-5.5c-11.9-29-11.3-40.1-11.3-40.1l-32.4,8
												V547.4z"/>
											<path d="M274.6,531.8c6.1,2.5,17.4,0.6,21.5-3.7c1.2,2.5,2.1,5.5,3.4,8.6c-2.1,5.7-15.5,8.4-22.6,5.5
												c-6.7,7.1-21.1,5.1-21.1,5.1v-10.2C260,537.4,269.5,537.2,274.6,531.8z"/>
											<path d="M272.2,498.3c5.4,1.9,15.4,0.2,19.1-2.9c1,1.8,1.9,4.3,3,6.5c-1.8,4.2-13.9,6.2-20.1,4
												c-5.9,5.2-18.4,3.7-18.4,3.7v-7.5C259.5,502.4,267.8,502.3,272.2,498.3z"/>
										</g>
									</g>
								</g>
							</g>
						</g>
						<path class="st9" d="M229.7,398.5c5.3,2.2,14.4,5.1,26,5.1c11.6,0,20.7-2.9,26-5.1c-2.5,2.8-9.1,9.7-19.9,11.9
							c-2,0.4-17.5,3.3-27.7-6.4C231.9,402,230.6,399.9,229.7,398.5z"/>
					</g>
					<path d="M242,371.3c-0.8-6.5-0.4-8.9,0.1-9.8c0.1-0.1,0.6-0.9,1.3-2.1c1.1-1.9,1.4-3.1,1.8-3.8c1.7-3.3,6.2-3.8,7.9-4.1
						c5.1-0.8,10.6,1.1,12,3.6c0.2,0.4,0.6,1.4,1.5,2.6c0.8,1.2,1.5,2,1.5,2.1c0.6,0.8,1.1,3.3,1,11.2c0.2-1.2,0.3-2.4,0.5-3.6
						c3.5-5.5,3.7-12.5,0.3-17.9c-5.3-8.5-15.7-7.6-16.5-7.6c-1.5,0.1-6.9,0.8-10.7,5.1c-4.6,5.1-5.2,13.4-1.5,20.6
						C241.5,368.9,241.8,370.1,242,371.3z"/>
				</g>
				<path d="M274,387.5c0,9.6-8.3,17.4-18.5,17.4c-10.2,0-18.5-7.8-18.5-17.4c0-9.6,8.3-17.4,18.5-17.4
					C265.8,370.1,274,377.9,274,387.5z"/>
				<path d="M244.8,422c2.3,0.1,5.7-0.2,9.2-1.9c0.7-0.4,1.4-0.8,2-1.2c1,0.7,2.3,1.4,3.9,2c2.8,1,5.3,1.1,7,1.1
					c-0.5,1.3-0.9,2.5-1.4,3.8c-6.2-0.2-12.5-0.4-18.7-0.7C246.1,424,245.5,423,244.8,422z"/>
				<g>
					<path class="st10" d="M255.8,659.6c-0.1,0.5-0.3,1.1-0.6,1.7c0,0,0,0,0,0c-0.3,0.6-0.6,1-0.9,1.4c-1.4,0-2.9,0.1-4.3,0.1
						c-0.2,0-0.4,0-0.6,0c-0.2,0-0.4,0-0.6,0c-1.4,0-2.9-0.1-4.3-0.1c-0.3-0.3-0.6-0.8-0.8-1.3c0,0,0,0,0-0.1
						c-0.3-0.7-0.5-1.3-0.6-1.7c0.2-0.8,0.5-2,0.7-3.4c0.1-0.4,0.2-1.8,0.2-3.8c-0.1-3.3-0.7-4.3-0.6-7.5c0-1,0.1-1.5,0.1-1.7
						c0.2-1.6,0.7-2.7,1.4-4.2c0.3-0.7,0.8-1.7,1.4-2.9c0.3-0.3,1.4-1,2.9-1c0.1,0,0.2,0,0.2,0h0.1c0.1,0,0.1,0,0.2,0
						c1.5,0,2.5,0.7,2.9,1c0.6,1.1,1.1,2.1,1.4,2.9c0.7,1.5,1.1,2.7,1.4,4.2c0,0.2,0.1,0.7,0.1,1.7c0.1,3.2-0.5,4.2-0.6,7.5
						c-0.1,2,0.1,3.4,0.2,3.8C255.2,657.6,255.5,658.8,255.8,659.6z"/>
					<path class="st11" d="M255.2,661.4C255.2,661.4,255.2,661.4,255.2,661.4c-0.3,0.6-0.6,1-0.9,1.4c-1.4,0-2.9,0.1-4.3,0.1
						c-0.2,0-0.4,0-0.6,0c-0.2,0-0.4,0-0.6,0c-1.4,0-2.9-0.1-4.3-0.1c-0.3-0.3-0.6-0.8-0.8-1.3c0.2-0.4,0.4-0.8,0.6-1.4
						c0.2-0.7,1.2-3.5,0.7-7.7c-0.3-2.6-0.7-2.5-0.7-4.5c0-1.7,0-3.7,1.3-4.9c1.7-1.5,6.4-1.2,7.7,0c1.4,1.2,1.4,3.2,1.3,4.9
						c0,2.1-0.5,2-0.7,4.5c-0.5,4.3,0.5,7.1,0.7,7.7C254.8,660.5,255,661,255.2,661.4z"/>
					<path class="st12" d="M249.1,662.9c-0.1,0-0.2,0-0.3,0v0H249.1z"/>
					<path d="M254.1,647.6c-0.6,0.4-1.5,1.1-2.2,2.2c-1.2,1.8-1.4,3.6-1.5,5.1c-0.2,2.7-0.3,4.2-0.3,8.2c-0.2,0-0.4,0-0.6,0h-0.5
						c-0.2,0-0.4,0-0.6,0c0-4-0.1-5.5-0.3-8.2c-0.1-1.5-0.2-3.3-1.5-5.1c-0.7-1.1-1.6-1.8-2.2-2.2c-0.4-1.2,1.1-4.2,4.7-4
						C252.9,643.3,254.4,646.4,254.1,647.6z"/>
				</g>
				<g>
					<path class="st10" d="M271.1,659.6c-0.1,0.5-0.3,1.1-0.6,1.7c0,0,0,0,0,0c-0.3,0.6-0.6,1-0.9,1.4c-1.4,0-2.9,0.1-4.3,0.1
						c-0.2,0-0.4,0-0.6,0c-0.2,0-0.4,0-0.6,0c-1.4,0-2.9-0.1-4.3-0.1c-0.3-0.3-0.6-0.8-0.8-1.3c0,0,0,0,0-0.1
						c-0.3-0.7-0.5-1.3-0.6-1.7c0.2-0.8,0.5-2,0.7-3.4c0.1-0.4,0.2-1.8,0.2-3.8c-0.1-3.3-0.7-4.3-0.6-7.5c0-1,0.1-1.5,0.1-1.7
						c0.2-1.6,0.7-2.7,1.4-4.2c0.3-0.7,0.8-1.7,1.4-2.9c0.3-0.3,1.4-1,2.9-1c0.1,0,0.2,0,0.2,0h0.1c0.1,0,0.1,0,0.2,0
						c1.5,0,2.5,0.7,2.9,1c0.6,1.1,1.1,2.1,1.4,2.9c0.7,1.5,1.1,2.7,1.4,4.2c0,0.2,0.1,0.7,0.1,1.7c0.1,3.2-0.5,4.2-0.6,7.5
						c-0.1,2,0.1,3.4,0.2,3.8C270.5,657.6,270.8,658.8,271.1,659.6z"/>
					<path class="st11" d="M270.5,661.4C270.5,661.4,270.5,661.4,270.5,661.4c-0.3,0.6-0.6,1-0.9,1.4c-1.4,0-2.9,0.1-4.3,0.1
						c-0.2,0-0.4,0-0.6,0c-0.2,0-0.4,0-0.6,0c-1.4,0-2.9-0.1-4.3-0.1c-0.3-0.3-0.6-0.8-0.8-1.3c0.2-0.4,0.4-0.8,0.6-1.4
						c0.2-0.7,1.2-3.5,0.7-7.7c-0.3-2.6-0.7-2.5-0.7-4.5c0-1.7,0-3.7,1.3-4.9c1.7-1.5,6.4-1.2,7.7,0c1.4,1.2,1.4,3.2,1.3,4.9
						c0,2.1-0.5,2-0.7,4.5c-0.5,4.3,0.5,7.1,0.7,7.7C270.1,660.5,270.3,661,270.5,661.4z"/>
					<path class="st12" d="M264.4,662.9c-0.1,0-0.2,0-0.3,0v0H264.4z"/>
					<path d="M269.4,647.6c-0.6,0.4-1.5,1.1-2.2,2.2c-1.2,1.8-1.4,3.6-1.5,5.1c-0.2,2.7-0.3,4.2-0.3,8.2c-0.2,0-0.4,0-0.6,0h-0.5
						c-0.2,0-0.4,0-0.6,0c0-4-0.1-5.5-0.3-8.2c-0.1-1.5-0.2-3.3-1.5-5.1c-0.7-1.1-1.6-1.8-2.2-2.2c-0.4-1.2,1.1-4.2,4.7-4
						C268.3,643.3,269.8,646.4,269.4,647.6z"/>
				</g>
			</g>
		</g>
		<path d="M255.7,421.5v7c0,0-15,6.1-21.5-4.7c-0.6,0-2.5-0.3-5.1-1c0,0-0.1,0-0.1,0c-0.3-0.1-0.5-0.2-0.8-0.3
			c-0.2-0.1-0.4-0.1-0.6-0.2c-0.3-0.1-0.6-0.2-0.9-0.3c-0.7-0.3-1.4-0.6-2.1-0.9c-0.2-0.1-0.5-0.2-0.7-0.4c-0.8-0.4-1.6-0.9-2.3-1.5
			c-2-1.4-3.8-3.3-5.2-5.8c-0.3-0.6-0.6-1.2-0.8-1.8c-0.9-2.1-1.2-4-1.4-5.6c0.9-1,2.4-2.4,4.4-3.8c0.2,1.2,1.8,8.7,8.8,12.4
			c3.2,1.7,6.2,1.9,8,1.9C239,423.8,251.8,422.2,255.7,421.5z"/>
		<path d="M297.2,406.1c-0.1,1.6-0.5,3.6-1.4,5.6c-0.2,0.6-0.5,1.2-0.8,1.8c-1.4,2.5-3.2,4.3-5.1,5.8c-0.8,0.6-1.6,1.1-2.4,1.5
			c-0.4,0.2-0.7,0.4-1.1,0.6c-1.2,0.6-2.3,1-3.4,1.3c-0.3,0.1-0.6,0.2-0.9,0.3c-0.1,0-0.3,0.1-0.4,0.1c-0.2,0.1-0.5,0.1-0.7,0.2
			c-1.8,0.4-3.1,0.6-3.6,0.6h0c-4.2,8.6-21.5,4.7-21.5,4.7v-7c4,0.7,16.8,2.3,20.3-4.9c1.3-0.1,6.2-0.7,10.3-4.9
			c4.1-4.1,4.7-9,4.8-10.4C294,402.9,296,404.8,297.2,406.1z"/>
	</g>
	<g>
		<g>
			<path class="st6" d="M474.1,257.6c3.4-6.1,5.3-8.4,6.5-9.1c0.2-0.1,1.3-0.9,2.9-2c0.4-0.3,0.9-0.7,1.5-1.2
				c0.9-0.8,2.2-1.9,3.2-3.5c0.2-0.4,1.8-2.7,1.3-3.3c-0.3-0.3-1.1,0-1.7,0.4c-1.4,1.1-2.8,2.2-4.3,3.3c0-0.8-0.2-6.3,3.9-9.6
				c1.4-1.1,2.8-1.7,3.9-1.9c1.7-2.4,2.3-3.9,1.9-4.4c-0.3-0.3-0.9-0.3-1.9,0.1c-0.6,0.2-1.5,0.6-2.6,0.9c-3.2,1.1-3.8,1.3-5.3,1.8
				c-1.4,0.5-2.6,1.5-3.2,2.8c-0.8,1.6-1.6,3.4-2.4,5.2c-0.9,2-1.7,3.9-2.4,5.7c-2.4,3.4-4.9,6.7-7.3,10.1
				C470.1,254.5,472.1,256.1,474.1,257.6z"/>
		</g>
		<g>
			<g>
				<g>
					<path class="st7" d="M504.8,540.3c0.2,1.1-0.2,2.1-0.7,3.1c-0.6,1.1-1.1,2.1-1.7,2.8c0,0,0-0.4,0-0.4c-0.6-0.5-0.7-0.7-0.7-0.9
						c-0.1,0.6-0.7,1-1.2,0.9c-0.6-0.1-1-0.8-0.8-1.5c-0.2,0.6-0.7,1-1.1,1c-0.7,0-1.5-0.9-1.4-2.2c0,0.1-0.4,0.7-1,0.8
						c-0.6,0-1.4-0.7-1.3-1.8c-0.1,0-0.4,0.3-0.7,0.3c-0.5-1.4-0.6-2.8-0.5-4.1c0,0,0,0,0,0c0.1-0.2,0.1-0.4,0.2-0.6
						c0,0,0.6-1.7,1.3-4.2c0.1-0.3,0.2-0.6,0.2-0.9l0,0c0.1-0.4,0.2-0.9,0.4-1.4c0.1-0.2,0.2-0.5,0.2-1c0.6-3.3,0.2-4.3,0-6.4v0
						c0-0.2,0-0.4-0.1-0.6c-0.2-1.5,0.9-3.8,0.1-6.1c-3.1-9.5-6.5-23-9.1-32.6c-2.6-9.7-2.5-18.1,0.5-27.1c3.4-10,0.4-18.3-5.2-48.6
						c-1-5.6-2.7-14.4-4.5-25.5c9.3-3.2,18.6-6.4,27.9-9.5c-0.1,31,0,52.9,0.3,62.8c0.2,7.3,0.2,9.9-0.4,14.6
						c-0.9,6.6-2.2,8.2-2.1,13.2c0.1,5.1,1.4,7.8,2.3,11.4c2.1,7.9-2.8,36.8-2.1,44.5c0.1,0.8,1.3,2.3,1.4,3.7
						c0.1,1.2-0.6,4.2-0.6,5.8c0,0.7,0,0.5,0.2,3c0,0.3,0,0.5,0.1,0.8c0.3,4.7,0,4.2,0.3,6.1C504.7,540,504.7,540.2,504.8,540.3z"/>
					<path class="st10" d="M504.8,542.2c-0.4,1.1-1.9,4.9-4.9,5.1c-2.2,0.2-4.3-1.7-5.2-3.2c-0.4-0.7-0.6-1.4-0.7-1.7
						c-0.5-1.4-0.6-2.8-0.5-4.1c0,0,0,0,0,0c0.3-3,1.6-5.4,1.7-5.6l0,0c0.1,0.8,0.5,2.3,1.6,3.7c0.7,0.9,1.6,2,2.9,2.1
						c1.8,0.1,3.1-1.8,3.5-2.3c0.9-1.3,1-2.6,1.1-3.3C504.9,534.1,506.4,538,504.8,542.2z"/>
				</g>
				<g>
					<path class="st7" d="M510.1,539.9c0,0.1,0,0.3-0.1,0.4c-0.2,1.1,0.2,2.1,0.8,3.1c0.6,1.1,1,2.1,1.7,2.8c0,0,0,0,0,0
						c0.6-0.5,0.6-1.1,0.7-1.3c0.1,0.6,0.7,1,1.2,0.9c0.6-0.1,1-0.8,0.8-1.5c0.2,0.6,0.7,1,1.1,1c0.7,0,1.5-0.9,1.4-2.2
						c0,0.1,0.4,0.7,1,0.8c0.6,0,1.4-0.7,1.3-1.8c0.1,0,0.4,0.3,0.7,0.3c0.5-1.4,0.6-2.8,0.5-4.1c0,0,0,0,0,0
						c-0.1-0.2-0.1-0.4-0.2-0.6c0,0-0.7-2.1-1.5-5l0,0c-0.1-0.4-0.2-0.9-0.4-1.4c-0.1-0.2-0.2-0.5-0.2-1c-0.6-3.6-0.2-4.4,0.1-7
						c0.2-1.5-0.9-3.8-0.1-6.1c3.1-9.5,6.5-23,9.1-32.6c2.6-9.7,2.5-18.1-0.5-27.1c-3.4-10-0.4-18.3,5.2-48.6
						c1-5.6,2.7-14.4,4.5-25.5c-9.3-3.2-18.6-6.4-27.9-9.5c0.1,31,0,52.9-0.3,62.8c-0.2,7.3-0.2,9.9,0.4,14.6
						c0.9,6.6,2.2,8.2,2.1,13.2c-0.1,5.1-1.4,7.8-2.3,11.4c-2.1,7.9,2.8,36.8,2.1,44.5c-0.1,0.8-1.3,2.3-1.4,3.7
						c-0.1,1.2,0.6,4.2,0.6,5.8c0,0.7,0,0.5-0.2,3c0,0.3,0,0.5-0.1,0.8C510.1,538.5,510.4,538,510.1,539.9z"/>
				</g>
			</g>
			<g>
				<g>
					<g>
						<g>
							<g>
								<g>
									<path class="st7" d="M538.9,275.1c1.5,4,2.8,23,2.9,29.6c0.1,9.5-0.9,15.3-0.5,23.5c0.4,8.5,4.3,12.2,3.4,29.1
										c-0.4,8-1.6,17.7-1.5,21.3c1.8,2.6,4.4,13.4,1.4,20.5c0,1.8-2.4,4.4-3.3,4.9c-1.2,1.2-2.8,1.9-5,1.9
										c-0.9-0.9,0-4.4,1.6-6.5c-0.2-2.4-0.5-7.3-0.5-7.2c-0.4,2.5-1,6.4-3.1,7.2c0-0.1-0.1-0.5-0.2-0.5c0.7-3.3,1.2-7.6,0.9-12.2
										c1.2-3.8,3-4.6,2.2-7.8c-2.1-9.1-1.5-18.3-3.3-26.1c-2.2-9.3-1.7-14.4-2.1-24.3c-0.4-8.5-3.8-37.9-0.9-42.4L538.9,275.1z"
										/>
									<g>
										<path class="st6" d="M476.1,291c-6.9,2.1-13.8,4.2-20.7,6.3c-0.9,0.3-2.7,0.8-4.1-0.1c-1.6-1.1-2.1-3.7-1.6-5.6
											c0.7-3.1,4-4.6,8.4-6.7c3.4-1.6,8.6-4.1,16.1-7.6C474.8,281.8,475.5,286.4,476.1,291z"/>
									</g>
								</g>
								<g>
									<path class="st13" d="M546,391.2c0,0.7-0.7,8.7-1.8,1.2c0.7,7.5-2.2,11.1-2.9,11.1c0.2-2,2.4-6.7,1.3-10.7
										c0,1.3-0.5,5.7-0.7,6.9c-1,5.3-4.4,6.8-3.8,5.4c0.8-2,4-6,2.7-11.1c0.3,8-4.2,11.8-4.4,12.1c1,0,2.6-0.1,3.5-0.8
										c2.2-1.2,3.9-3.3,4.6-4.4c0.3-0.5,0.5-1.7,0.6-2.3c0.2-0.8,0.5-1.2,0.6-1.8C545.7,395.7,546.1,393,546,391.2L546,391.2z"/>
								</g>
							</g>
							<path d="M525.2,260.1c0,10-8.6,18.1-19.2,18.1c-10.6,0-19.2-8.1-19.2-18.1c0-10,8.6-18.1,19.2-18.1
								C516.6,242,525.2,250.1,525.2,260.1z"/>
							<g>
								<path class="st7" d="M474.5,274c1.2-1.1,2.7-1.8,4.2-2.3C477.2,272.3,475.8,272.9,474.5,274z"/>
								<path class="st7" d="M478.8,271.6c7.8-2.6,18.5-0.1,20.1-11.8c0.1-1,0.2-2,0.2-3.2c1.8,0,5.4,0.1,7.1,0.3
									c1.6-0.2,5.3-0.3,7.1-0.3c0,1,0.1,2,0.2,2.8c1.5,12.6,13,9.4,21,12.5C533.1,272,503.4,293,478.8,271.6z"/>
								<path class="st7" d="M525.3,327.3c1.5,4.5,3.2,9.1,4.9,13.8c-7.1,2.3-16.6,2.1-24.1,1.5c0,0-0.1,0-0.1,0
									c-4.3,0.1-8.7,0.2-13.1,0.2c-3.8,0-7.5,0-11.1,0c2.2-6.2,4.4-12.4,6.6-18.5H524c0.1,0.2,0.1,0.5,0.2,0.7
									C524.5,325.7,524.8,326.5,525.3,327.3z"/>
								<path class="st13" d="M513.3,259.4c-2.7,2.2-5.4,3.5-7.4,3.5c-1.9,0-4.5-1.1-7-3.1c0.1-1,0.2-2,0.2-3.2
									c1.8,0,5.4,0.1,7.1,0.3c1.6-0.2,5.3-0.3,7.1-0.3C513.2,257.6,513.2,258.6,513.3,259.4z"/>
							</g>
							<path class="st7" d="M506.1,372.2c-0.2,0-0.5,0.6-0.7,1.6c0.4,3.7,0.6,7.3,0.7,10.8c0.1-3.6,0.3-7.3,0.7-11
								C506.6,372.7,506.3,372.2,506.1,372.2z"/>
							<g>
								<g>
									<path d="M523.6,232.9c0,10.2-7.9,18.4-17.7,18.4s-17.7-8.3-17.7-18.4c0-17.9,10.8-19.3,17.7-19.3
										C512.9,213.6,523.6,214.7,523.6,232.9z"/>
								</g>
								<path class="st7" d="M518.9,241.8c-0.7,2-0.6,4.9,0.4,5.3c1,0.4,2.6-1.9,3.4-3.9c0.7-2,0.5-3.9-0.6-4.3
									C521.1,238.5,519.6,239.8,518.9,241.8z"/>
								<path class="st7" d="M492.9,241.8c0.7,2,0.8,4.9-0.3,5.3c-1,0.4-2.8-1.9-3.5-3.9c-0.7-2-0.5-3.9,0.6-4.3
									C490.7,238.5,492.2,239.8,492.9,241.8z"/>
								<path class="st7" d="M506.2,222.2c-0.1,0-0.3,0-0.4,0c-0.1,0-0.3,0-0.4,0c-13.1,0-14.2,8.9-14.2,19.2
									c0,10.4,9.9,18.8,14.7,18.8c4.8,0,14.6-8.4,14.6-18.8C520.5,231,519,222.2,506.2,222.2z"/>
								<path class="st13" d="M508.1,247.1c-0.3,0.2-1.3,0.8-2.6,0.8c-1.3,0-2.2-0.6-2.6-0.8c0.7,0.1,1.6,0.2,2.5,0.2
									C506.5,247.3,507.3,247.2,508.1,247.1z"/>
								<g>
									<path class="st14" d="M496.3,238.1c-0.3,1.3,2.1,1.9,2.6,2.1c-1.7-0.3-3.1-0.6-3.4-1.3L496.3,238.1z"/>
									<path class="st8" d="M502.2,239.9c-0.5-1.4-2.4-2.6-3.6-2.7c-0.8-0.1-2.5,0.9-3,1.6c1,0.9,2.7,1.5,3.2,1.5
										c0.8,0,1.8,0,3.2-0.3L502.2,239.9z"/>
									<path class="st15" d="M497.1,238.8c0.1,0.9,1.1,1.5,2.2,1.4c1.1-0.1,1.9-1,1.8-2c0-0.4-1.3-1.1-2.4-1
										C497.6,237.3,497,238,497.1,238.8z"/>
									<path class="st14" d="M498.1,238.6c0.1,0.6,0.6,1,1.2,0.9c0.5-0.1,0.9-0.6,0.8-1.2c-0.1-0.6-0.6-1-1.2-0.9
										C498.4,237.5,498,238.1,498.1,238.6z"/>
									<path class="st8" d="M498,238.4c0,0.1,0.1,0.2,0.3,0.2c0.1,0,0.2-0.1,0.2-0.3c0-0.1-0.1-0.2-0.3-0.2
										C498.1,238.2,498,238.3,498,238.4z"/>
									<path class="st14" d="M502.2,239.9c-0.4-1.7-1.5-3.1-2.9-3.3c-1-0.1-2.3,0.2-2.9,1c-0.2,0.2-0.5,0.7-1.2,1.3
										c-0.2,0.2-0.4,0.4-0.5,0.5c0.1,0,0.3,0,0.6,0c0.3,0,0.4-0.1,0.5-0.2c0.5-0.3,0.6-0.5,1.2-0.8c0.9-0.4,2.2-0.7,3.2-0.2
										C500.6,238.3,501.8,239,502.2,239.9L502.2,239.9z"/>
									<path class="st15" d="M501.9,234c-0.2-0.1-0.8-0.2-1.2-0.3c-2.6-0.6-3.2-0.5-3.6-0.5c-0.2,0-0.7,0.1-1.3,0.5
										c-0.5,0.3-1.4,1.3-1.8,1.8c1-0.4,1.6-1.1,2.6-1.4c1.4-0.4,2.4,0.1,3.7,0.5c0.4,0.1,1.3,0.4,1.7,0.5L501.9,234z"/>
								</g>
								<g>
									<path class="st14" d="M515.9,238.1c0.3,1.3-2.1,1.9-2.6,2.1c1.7-0.3,3.1-0.6,3.4-1.3L515.9,238.1z"/>
									<path class="st8" d="M510,239.9c0.5-1.4,2.4-2.6,3.6-2.7c0.8-0.1,2.5,0.9,3,1.6c-1,0.9-2.7,1.5-3.2,1.5
										c-0.8,0-1.8,0-3.2-0.3L510,239.9z"/>
									<path class="st15" d="M515.1,238.8c-0.1,0.9-1.1,1.5-2.2,1.4c-1.1-0.1-1.9-1-1.8-2c0-0.4,1.3-1.1,2.4-1
										C514.6,237.3,515.2,238,515.1,238.8z"/>
									<path class="st14" d="M514.1,238.6c-0.1,0.6-0.6,1-1.2,0.9c-0.5-0.1-0.9-0.6-0.8-1.2c0.1-0.6,0.6-1,1.2-0.9
										C513.8,237.5,514.2,238.1,514.1,238.6z"/>
									<path class="st8" d="M514.2,238.4c0,0.1-0.1,0.2-0.3,0.2c-0.1,0-0.2-0.1-0.2-0.3c0-0.1,0.1-0.2,0.3-0.2
										C514.1,238.2,514.2,238.3,514.2,238.4z"/>
									<path class="st14" d="M510,239.9c0.4-1.7,1.5-3.1,2.9-3.3c1-0.1,2.3,0.2,2.9,1c0.2,0.2,0.5,0.7,1.2,1.3
										c0.2,0.2,0.4,0.4,0.5,0.5c-0.1,0-0.3,0-0.6,0c-0.3,0-0.4-0.1-0.5-0.2c-0.5-0.3-0.6-0.5-1.2-0.8c-0.9-0.4-2.2-0.7-3.2-0.2
										C511.5,238.3,510.4,239,510,239.9L510,239.9z"/>
									<path class="st15" d="M510.1,234c0.2-0.1,0.9-0.2,1.3-0.3c2.6-0.6,3.2-0.5,3.6-0.5c0.2,0,0.7,0.1,1.3,0.5
										c0.5,0.3,1.4,1.3,1.8,1.8c-1-0.4-1.6-1.1-2.6-1.4c-1.4-0.4-2.4,0.1-3.7,0.5c-0.4,0.1-1.5,0.4-1.8,0.5L510.1,234z"/>
								</g>
								<path class="st8" d="M509.4,252.5c0,0.4-1.5,0.8-3.4,0.8c-1.9,0-3.4-0.3-3.4-0.8c0-0.4,1.5-0.8,3.4-0.8
									C507.9,251.7,509.4,252,509.4,252.5z"/>
								<path class="st9" d="M508.1,252.1c-0.7,0.2-1.4,0.3-2.2,0.3c-0.8,0-1.4-0.1-2.2-0.3c-0.7-0.2-1.4-0.6-2.2-0.4
									c0.9,2.1,1.7,2.7,4.3,2.7c2.6,0,3.4-0.6,4.3-2.7C509.4,251.5,508.8,251.9,508.1,252.1z"/>
								<path class="st9" d="M505.9,250.5c-0.3-0.1-0.8-0.2-1.4-0.1c-0.6,0.1-1,0.3-1.8,0.7c-0.4,0.2-1.1,0.5-1.9,0.8
									c0.9,0.2,1.6,0.3,2.1,0.2c0.6,0,1.1-0.2,2.2-0.2c0.3,0,0.5,0,0.7,0c0.2,0,0.4,0,0.8,0c0.9,0.1,1.1,0.4,2.1,0.4
									c0.2,0,0.7,0,1.3-0.2c0.3-0.1,0.6-0.2,0.8-0.3c-0.2,0-0.5-0.1-0.8-0.2c-0.3-0.1-0.5-0.2-1.1-0.4c-0.8-0.3-1.4-0.6-2-0.7
									c-0.1,0-0.2,0-0.3,0C506.4,250.4,506.1,250.4,505.9,250.5z"/>
							</g>
							<path class="st7" d="M538.9,275.1L538.9,275.1c-3.4,5.2-4.8,8.7-9,11.1c4.3,8.5-0.8,14.6-1.4,15.5c0,0,0,0.1,0,0.1
								c-0.3,9.9-6.2,16.9-4.4,22.6h-35.6c1.7-5.7-4.2-12.7-4.4-22.6v0c0,0,0-0.1-0.1-0.1c-1.3-1.9-1.7-2.1-2.3-3.5
								c-1.1-2.5-1.6-6.5,0.8-12c-4.2-2.5-5.7-5.9-9-11.1v0c0.2-0.2,0.4-0.5,0.6-0.7c0.1-0.1,0.2-0.2,0.3-0.3
								c0.1-0.1,0.2-0.2,0.2-0.2c1.3-1.1,2.7-1.7,4.2-2.3c0,0,0,0,0,0c0,0,0,0,0,0c24.6,21.4,54.3,0.4,55.5,0.3c0.7,0.3,1.4,0.6,2,1
								c0.1,0.1,0.3,0.2,0.4,0.3c0.1,0.1,0.3,0.2,0.4,0.3c0,0,0,0,0,0c0.1,0.1,0.3,0.2,0.4,0.3c0.1,0.1,0.2,0.2,0.4,0.3
								c0.3,0.2,0.5,0.5,0.7,0.7C538.7,274.9,538.8,275,538.9,275.1z"/>
							<path class="st7" d="M478.8,271.6L478.8,271.6C478.8,271.6,478.8,271.6,478.8,271.6C478.8,271.6,478.8,271.6,478.8,271.6z"/>
							<path class="st7" d="M536.3,272.9c-0.6-0.4-1.3-0.7-2-1c0,0,0,0,0,0C535,272.2,535.7,272.5,536.3,272.9z"/>
						</g>
						<g>
							<path class="st8" d="M491.9,252.8c0,4.2-0.4,7.7-0.9,7.7c-0.5,0-0.9-3.4-0.9-7.7c0-4.2,0.4-7.7,0.9-7.7
								C491.5,245.1,491.9,248.6,491.9,252.8z"/>
							<path class="st8" d="M519.6,252.8c0,4.2,0.4,7.7,0.9,7.7c0.5,0,0.9-3.4,0.9-7.7c0-4.2-0.4-7.7-0.9-7.7
								C520,245.1,519.6,248.6,519.6,252.8z"/>
						</g>
						<g>
							<path d="M538.9,275.1c-1.3-1.5-2.8-2.5-4.6-3.2c-0.8-0.3-30.8,21.3-55.6-0.3c-2.1,0.8-3.9,1.6-5.4,3.5
								c-1.5,4,4.3,19.1,9.3,25.3c0.6,0.8,1.2,1.2,1.2,1.4c0.3,9.9,6.2,16.9,4.4,22.6H524c-1.7-5.7,4.2-12.7,4.4-22.6
								c0.3-0.3,0.7-0.8,1.2-1.4c3-3.5,4.3-7.1,6.1-13.4C536.8,283.5,537.9,279.5,538.9,275.1z"/>
							<g>
								<path class="st9" d="M506.1,280.3v22c0,0-18.3,4-22.7-4.7c-0.6,0-2.6-0.2-5.3-1c0,0-0.1,0-0.1,0c-2.3-0.7-5.1-1.7-7.6-3.5
									c-0.1-0.1-0.2-0.1-0.3-0.2c-2.1-1.5-4-3.4-5.5-5.9c-0.4-0.6-0.6-1.2-0.9-1.8c0-0.1-0.1-0.2-0.1-0.3c-0.8-2-1.2-3.8-1.3-5.4
									c1-1.1,2.5-2.5,4.7-3.8c0.7-0.4,2-1.3,3.9-2.1c1.7-0.7,4.4-1.6,7.9-2c3.8,1.8,8.2,3.6,13.1,5.2
									C497.1,278.4,501.9,279.5,506.1,280.3z"/>
								<path d="M506.1,295.5v6.8c0,0-16.5,6-22.7-4.7c-0.6,0-2.7-0.3-5.4-1c-2.3-0.7-5.1-1.7-7.6-3.5c4,1.3,8.6,0.9,14.6-2.7
									C488.7,297.9,502,296.2,506.1,295.5z"/>
								<path class="st9" d="M506.1,302.8c0,0,18,4.1,22.3-4.9c11.2,6.8,17.8,2.3,23.8-3.7c-9.1-21.3-19.1-22.7-19.1-22.7
									c-3.6,1.9-8,4-13.4,5.7c-5.1,1.6-9.8,2.5-13.6,3.1C506.1,287.8,506.1,295.3,506.1,302.8z"/>
								<path d="M527.2,290.4c10.2,6.2,16.6,3,22.2-2.1c1,1.8,1.9,3.8,2.9,6c-6,6-12.6,10.9-23.8,4.2c-5.2,10.1-22.3,4.9-22.3,4.9
									l0-7.8C510.3,296.2,523.6,297.9,527.2,290.4z"/>
							</g>
							<g>
								<g>
									<path class="st9" d="M506.1,472.8c0,0-17.9,2.4-26.3-6c-8.9,3.4-25.7,0.3-28.3-6.5c14.8-34.1,14.2-47.1,14.2-47.1l40.5,9.4
										V472.8z"/>
									<path d="M482.6,454.5c-7.7,3-21.7,0.6-26.9-4.3c-1.5,2.9-2.6,6.5-4.2,10.1c2.6,6.7,19.4,9.9,28.3,6.5
										c8.4,8.4,26.3,6,26.3,6v-12C500.8,461,489,460.9,482.6,454.5z"/>
									<path class="st9" d="M506.1,426.4c0,0-14.9,2.1-21.9-5.3c-7.4,3-21.4,0.2-23.5-5.7c12.3-30.2,11.8-41.7,11.8-41.7l33.7,8.3
										V426.4z"/>
									<path d="M486.6,410.2c-6.4,2.6-18,0.6-22.4-3.8c-1.2,2.6-2.2,5.8-3.5,8.9c2.1,6,16.2,8.8,23.5,5.7c7,7.4,21.9,5.3,21.9,5.3
										v-10.6C501.7,416,491.9,415.8,486.6,410.2z"/>
									<path class="st9" d="M506.1,387.2c0,0-13,1.5-19.2-3.9c-6.5,2.2-18.7,0.2-20.6-4.2c3.6-7.6,7.1-15.6,10.6-24
										c4.4-10.6,8.1-20.9,11.4-30.7c6.2,0,12.3,0,18.5,0C506.6,345.3,506.4,366.2,506.1,387.2z"/>
									<path class="st9" d="M546.3,379.1c-1.9,4.4-14.1,6.4-20.6,4.2c-6.1,5.4-19.2,3.9-19.2,3.9c-0.2-14.8-0.3-29.7-0.5-44.5
										c-0.1-6.1-0.1-12.2-0.2-18.3h18.5c0.3,1,0.7,2,1,3c1.5,4.5,3.2,9.1,4.9,13.8c1.7,4.6,3.5,9.2,5.5,13.9
										C539.1,363.5,542.7,371.5,546.3,379.1z"/>
									<path d="M489,375.3c-5.6,1.9-15.8,0.4-19.6-2.8c-1.1,1.9-1.9,4.2-3.1,6.6c1.9,4.4,14.1,6.4,20.6,4.2
										c6.1,5.4,19.2,3.9,19.2,3.9v-7.8C502.2,379.6,493.6,379.4,489,375.3z"/>
								</g>
								<g>
									<path class="st9" d="M506.1,472.8c0,0,17.9,2.4,26.3-6c8.9,3.4,25.7,0.3,28.3-6.5c-14.8-34.1-14.2-47.1-14.2-47.1
										l-40.5,9.4V472.8z"/>
									<path d="M529.7,454.5c7.7,3,21.7,0.6,26.9-4.3c1.5,2.9,2.6,6.5,4.2,10.1c-2.6,6.7-19.4,9.9-28.3,6.5
										c-8.4,8.4-26.3,6-26.3,6v-12C511.5,461,523.3,460.9,529.7,454.5z"/>
									<path class="st9" d="M506.1,426.4c0,0,14.9,2.1,21.9-5.3c7.4,3,21.4,0.2,23.5-5.7c-12.3-30.2-11.8-41.7-11.8-41.7
										l-33.7,8.3V426.4z"/>
									<path d="M525.7,410.2c6.4,2.6,18,0.6,22.4-3.8c1.2,2.6,2.2,5.8,3.5,8.9c-2.1,6-16.2,8.8-23.5,5.7c-7,7.4-21.9,5.3-21.9,5.3
										v-10.6C510.6,416,520.4,415.8,525.7,410.2z"/>
									<path d="M523.3,375.3c5.6,1.9,16,0.2,19.8-3c1.1,1.9,2,4.4,3.1,6.8c-1.9,4.4-14.5,6.4-20.9,4.2c-6.1,5.4-19.2,3.9-19.2,3.9
										v-7.8C510.1,379.6,518.6,379.4,523.3,375.3z"/>
								</g>
							</g>
						</g>
					</g>
				</g>
			</g>
			<path class="st10" d="M510,542.2c0.4,1.1,1.9,4.9,4.9,5.1c2.2,0.2,4.3-1.7,5.2-3.2c0.4-0.7,0.6-1.4,0.7-1.7
				c0.5-1.4,0.6-2.8,0.5-4.1c0,0,0,0,0,0c-0.3-3-1.6-5.4-1.7-5.6l0,0c-0.1,0.5-0.3,1-0.5,1.6c-0.3,0.8-0.6,1.6-1,2.2
				c-0.2,0.3-1.1,1.8-2.8,1.9c-2,0.2-3.4-1.7-3.8-2.2c-0.9-1.3-1.1-2.6-1.1-3.3C509.9,534.1,508.4,538,510,542.2z"/>
			<path class="st10" d="M505.1,534.8c-0.8-4.4-0.6-6.4-0.3-7.5c0.1-0.2,0.3-1,0.3-2c0-1-0.3-1.8-0.5-2.2c-0.5,2-0.5,3.7-0.5,4.8
				c0.1,1.5,0.2,3.1,0.2,4.6c-0.1,1.3-0.1,1.8-0.5,2.9C503.9,534.9,504.7,535.3,505.1,534.8z"/>
			<path class="st10" d="M509.7,534.8c0.8-4.4,0.6-6.4,0.3-7.5c-0.1-0.2-0.3-1-0.3-2c0-1,0.3-1.8,0.5-2.2c0.5,2,0.5,3.7,0.5,4.8
				c-0.1,1.5-0.2,3.1-0.2,4.6c0.1,1.3,0.1,1.8,0.5,2.9C510.9,534.9,510.1,535.3,509.7,534.8z"/>
			<path class="st10" d="M496.2,529.5c-0.1,0.9-0.2,1.3-0.4,1.8c-0.2,0.6-0.4,1-0.4,1.5c-0.1,0.4,0,0.8,0.1,1c0,0-0.1,0-0.2,0
				c-0.1,0-0.1,0-0.2-0.1c-0.1,0-0.3,0-0.4,0c0.1-0.3,0.3-0.6,0.5-1l0,0c0.1-0.4,0.2-0.9,0.4-1.4c0.1-0.2,0.2-0.5,0.2-1
				c0.6-3.3,0.2-4.3,0-6.4v0c0.4,0.8,0.5,1.5,0.6,2C496.6,527.1,496.5,528,496.2,529.5z"/>
			<path class="st10" d="M518.6,529.5c0.1,0.9,0.2,1.3,0.4,1.8c0.2,0.6,0.4,1,0.4,1.5c0.1,0.4,0,0.8-0.1,1c0,0,0.1,0,0.2,0
				c0.1,0,0.1,0,0.2-0.1c0.1,0,0.3,0,0.4,0c-0.1-0.3-0.3-0.6-0.5-1l0,0c-0.1-0.4-0.2-0.9-0.4-1.4c-0.1-0.2-0.2-0.5-0.2-1
				c-0.6-3.3-0.2-4.3,0-6.4v0c-0.4,0.8-0.5,1.5-0.6,2C518.2,527.1,518.4,528,518.6,529.5z"/>
			<path d="M491.9,243.2c-0.8-6.8-0.5-9.3,0.1-10.2c0.1-0.1,0.6-1,1.3-2.2c1.2-1.9,1.5-3.2,1.9-3.9c1.7-3.5,6.5-4,8.2-4.2
				c5.3-0.8,11.1,1.1,12.5,3.7c0.2,0.4,0.6,1.4,1.6,2.7c0.9,1.2,1.6,2.1,1.6,2.1c0.6,0.8,1.2,3.5,1,11.6c0.2-1.2,0.3-2.5,0.5-3.7
				c3.7-5.7,3.8-13,0.3-18.6c-5.5-8.8-16.4-8-17.1-7.9c-1.6,0.2-7.1,0.8-11.1,5.3c-4.8,5.3-5.4,13.9-1.5,21.5
				C491.4,240.7,491.6,242,491.9,243.2z"/>
		</g>
		<path d="M485,290.4c-0.9,1.4-1.7,2.7-2.6,4.1c-0.2,0.2-1.9,1.2-4.3,2.1c0,0-0.1,0-0.1,0c-2.3-0.7-5.1-1.7-7.6-3.5
			c-0.1-0.1-0.2-0.1-0.3-0.2c-2.1-1.5-4-3.4-5.5-5.9c-0.4-0.6-0.6-1.2-0.9-1.8c0-0.1-0.1-0.2-0.1-0.3c-0.8-2-1.2-3.8-1.3-5.4
			c1-1.1,2.5-2.5,4.7-3.8c0.4,1.4,2.9,9.9,10.9,13.4C480.6,290.1,483.2,290.4,485,290.4z"/>
		<g>
			<path class="st7" d="M478.2,251.1c-7.6,15.4-15.2,30.8-22.8,46.2c-0.9,0.3-4.5,1.4-7.2-0.5c-3.5-2.4-4.5-8.9-0.6-14.8
				c8.5-11.9,17-23.9,25.5-35.8c1,0.6,2.2,1.5,3.4,2.7C477.1,249.7,477.7,250.4,478.2,251.1z"/>
		</g>
	</g>
	<g>
		<g>
			<g>
				<g>
					<g>
						<g>
							<g>
								<path class="st10" d="M767.7,639.4c0,0.2,0,0.4,0.1,0.6c0.1,0.8,0.1,1.5,0.1,2.3c0.1,4.9-1.4,9.7-4.2,13.7
									c-0.2,0.3-0.4,0.5-0.5,0.8c-1.8,2.4-6,7.2-9.6,6.8c-2.9-0.3-2.7-2-2-3.8c0,0,0,0,0,0c0.1-0.2,0.2-0.4,0.3-0.7
									c-2,2.2-6.6,5.2-6.6,8.1c0,2.4,5.1,3.1,7.4,3.2c3.4,0.1,7.7-0.5,9.7-3.5c3.1-4.6,1.5-10.6,6.6-13.9c0,4.8,0,9.7,0,14.5
									c0,0.1,0,0.1,0.1,0.1c0,0,0,0,0,0c0,0,0,0,0.1,0c0,0,0.9,0,2.1-0.1c0.1-5.1,0.2-10.6,0.3-15.7c0.5-1,0.9-1.7,1-3.3
									C772.8,643.3,768.3,639.8,767.7,639.4z"/>
							</g>
						</g>
						<g>
							<g>
								<path class="st7" d="M763.8,570.1c-2,0-4.1,0-6.1,0c-3.8,0-7.5,0-11.3,0c0.3,3,0.7,6.2,1.4,9.7c0.9,4.7,1.3,9.2,2.5,12.8
									c1.9,15,4.5,29.7,6.4,44.6c-1.7,13.6-2.7,18.2-3.3,19.1c-0.1,0.1-0.8,1.2-1.5,2.7c-0.1,0.2-0.2,0.4-0.3,0.7c0,0,0,0,0,0
									c-0.8,1.8-0.9,3.5,2,3.8c3.6,0.4,7.8-4.4,9.6-6.8c0.2-0.3,0.4-0.5,0.5-0.8c2.8-4,4.3-8.8,4.2-13.7c0-0.8-0.1-1.5-0.1-2.3
									c0-0.2,0-0.4-0.1-0.6c-0.3-2.5-0.7-5.1-0.7-7.7c0-3.7,0.5-7.3,0.9-10.9c0.6-5.3,1.9-10.9,2.5-16.3c0-4,0.1-8,0.1-12
									C768.5,585,765.7,577.7,763.8,570.1z"/>
							</g>
						</g>
					</g>
				</g>
				<g>
					<g>
						<path class="st7" d="M791.6,638.3c0-0.2,0-0.2-0.1-0.4c-2.1-6.7-2.1-12.7-1.7-19.8c0.4-7.4,0.4-14.3-0.7-20.1
							c-1.9-9.3-5.3-10.5-6-18.5c-0.5-5.3-0.2-9.7,0.2-12.6c-7.2,0.1-14.4,0.2-21.7,0.3c0.3,4.2,0.8,7.8,1.2,10.5
							c0.5,3.1,1.3,8,2.8,13.3c0.2,0.6,1,3.6,2.1,6.3c0.6,1.4,1,2.8,1.7,4.1c0.1,0.1,0.1,0.2,0.2,0.4c0,0,0,0.1,0,0.1
							c4,7.9,7.9,20.8,7.9,20.8c2.3,7.5,4,12.4,5.4,17.5c-0.9,5.3-1.2,12-2.1,17.5c0,0.1-0.1,0.2-0.1,0.3c-0.1,0.6-0.4,2.1-0.5,2.7
							c-0.2,2.7,1.1,5.9,4.2,5.4c3.7-0.5,6.7-8.1,7.8-12.1C794.2,647.5,792.4,641,791.6,638.3z"/>
					</g>
				</g>
				<g>
					<g>
						<path class="st10" d="M791.5,637.9c0,0.1,0.1,0.2,0.1,0.4c0.1,0.3,0.2,0.7,0.3,1c1.2,3.3,0.9,8.9-0.3,14.1
							c-1.1,4.8-2.8,9.5-7.2,10.1c-3.1,0.4-4.1-1.2-3.9-3.9c0-0.6,0.1-1.2,0.1-1.7c0-0.1,0.3-1.7,0.3-1.8c-0.1,0.4-0.5,1.3-1,2.5
							c-1.2,3.2-4.4,9.2-2.3,11.8c2.1,2.5,8.8,1.4,12-1.8c0,0,0,0,0,0c0.1-0.1,0.2-0.1,0.2-0.2c1.4-1.5,2-3.4,2.3-5.3c0,0,0,0,0,0
							c0.7-3.2,0.9-7,1.8-10.1c0,5.5,0,11,0,16.5c0,0.1,0.1,0.1,0.2,0.1c0,0,0,0.1,0.1,0.1c0.5,0,1,0,1.6,0c0.1,0,0.1-0.1,0.1-0.1
							c0,0,0,0,0,0c0,0,0,0,0,0c0-6.3,0-12.6,0-18.9C799.2,646.5,795.2,640.6,791.5,637.9z"/>
					</g>
				</g>
			</g>
			<path class="st7" d="M738.5,410c-1.5,4.1-2.7,23.4-2.7,30.2c-0.1,9.7,1,15.5,0.7,23.9c-0.4,8.7-4.3,12.4-3.3,29.6
				c0.5,8.1,1.7,18,1.6,21.7c-1.8,2.7-4.4,13.6-1.3,20.9c0,1.8,2.4,4.4,3.4,5c1.2,1.2,2.8,1.9,5.1,1.9c0.9-0.9,0-4.5-1.7-6.6
				c0.2-2.4,0.5-7.4,0.5-7.3c0.4,2.5,1.1,6.5,3.2,7.3c0-0.1,0.1-0.5,0.2-0.5c-0.8-3.3-1.3-7.7-1-12.4c-1.3-3.9-3-4.6-2.3-8
				c2.1-9.2,1.4-18.6,3.3-26.6c2.2-9.4,1.6-14.7,2-24.7c0.3-8.7,3.6-38.6,0.7-43.2L738.5,410z"/>
			<path d="M753.8,384.8c1.1,10.7,9.3,19,20.7,17.8c11.4-1.2,19.7-10.8,18.6-21.5c-1.1-10.7-11.2-18.5-22.6-17.3
				C759.2,365,752.7,374.1,753.8,384.8z"/>
			<path class="st8" d="M762.3,385.5c0.5,4.5,0.1,8.3-0.7,8.4c-0.9,0.1-1.9-3.5-2.4-8.1c-0.5-4.5-0.1-8.3,0.7-8.4
				C760.8,377.4,761.9,381,762.3,385.5z"/>
			<g>
				<path d="M752.9,365.4c1.1,10.9,11,19.4,20.6,18.4c9.6-1,17.2-11.1,16.1-22.1c-1.8-17.6-13.4-19.4-21.6-18.6
					C761.2,343.9,751.1,347.1,752.9,365.4z"/>
			</g>
			<path class="st7" d="M749,403.8c4.5,3.8,9.2,8.8,13.7,12.6c14.6-1.1,23.6-7.3,28.6-11.7c0.4-0.3,1.4-0.9,1.8-1.3
				c-1.1-0.3-10.5-3.1-13.1-9.2c-0.4-1-1.1-3-1.5-5.5c0-0.2,0-0.4-0.1-0.6c0,0,0-0.1,0-0.1c-0.2-1.8-0.1-3.3,0-4.5
				c0-0.1,0-0.3,0-0.4c-2.7,0.9-4.8,1.8-6,2.3c-0.2,0.1-0.5,0.2-0.7,0.2c-0.5,0.2-1,0.3-1.2,0.4c0,0,0,0-0.1,0c0,0,0,0,0,0
				c-0.5,0.2-1.1,0.4-1.7,0.5c0,0,0,0,0,0c-1,0.2-1.9,0.2-2.7,0.2c-1,0.2-1.9,0.4-2.4,0.5c0,0.2,0,0.3,0.1,0.5
				c0.2,1.3,0.1,2.5,0,3.4c0,0,0,0,0,0c-0.1,0.4-0.1,0.7-0.2,1C762,397.7,756,402.2,749,403.8z"/>
			<path class="st13" d="M763.6,391.1c1.4,1.3,2.7,1.8,3.4,1.9c3.3,0.8,6.3-1.1,8.2-2.3c1.4-0.9,2.5-1.9,3.2-2.7
				c-0.2-1.8-0.1-3.3,0-4.5c0-0.1,0-0.3,0-0.4c-2.7,0.9-4.8,1.8-6,2.3c-0.2,0.1-0.5,0.2-0.7,0.2c-0.5,0.2-1,0.3-1.2,0.4
				c0,0,0,0-0.1,0c0,0,0,0,0,0c-0.5,0.2-1.1,0.4-1.7,0.5c0,0,0,0,0,0c-1,0.2-1.9,0.2-2.7,0.2c-1,0.2-1.9,0.4-2.4,0.5
				c0,0.2,0,0.3,0.1,0.5C763.8,389,763.7,390.1,763.6,391.1z"/>
			<path class="st7" d="M766.7,351.3c0.2,0,0.3,0,0.4-0.1c4.5-0.6,8.7,0.4,10.1,1c5.1,2,7.4,10.9,7.3,17.4
				c-0.2,8.8-6.8,20.8-15.3,22c-4.4,0.6-12.2-7.3-13.9-18.4C753.7,362.1,754.3,352.8,766.7,351.3z"/>
			<path d="M764.8,351.6c1.2-0.2,4.1-0.5,6.8,0.4c0.5,0.2,2.1,0.9,3.5,2.4c0.7,0.8,1.4,1.8,2.4,3.2c0.9,1.3,1,1.5,1.4,1.9
				c1.1,1,2,1.1,2.7,2.6c1.5,3.1,0.4,8.5,0.6,11.1c0,0.1,0,0.7,0.2,0.7c0.2,0.1,0.5-0.7,0.7-0.7c0.3,0,0.5,1.3,0.7,4.6
				c0.9-2.3,2.1-6.2,2.2-11.1c0.1-4.9,0.3-12.1-4.7-15.7c-2.7-2-5.7-1.9-10.3-1.8c-3.7,0.1-10.5,0.3-13.7,5c-1,1.5-1.4,3.1-1.5,4.2
				c0.4-0.9,1.1-2.1,2.3-3.4C760.6,352.5,763.6,351.8,764.8,351.6z"/>
			<g>
				<path class="st14" d="M757.6,370.6c0,1.4,2.2,1.6,2.7,1.8c-1.6,0-2.8-0.1-3.3-0.8L757.6,370.6z"/>
				<path class="st8" d="M763.1,371.6c-0.7-1.4-2.6-2.4-3.7-2.3c-0.8,0.1-2,1.4-2.3,2.2c1.1,0.8,2.7,1.1,3.1,1
					c0.7-0.1,1.6-0.3,2.7-0.8L763.1,371.6z"/>
				<path class="st15" d="M758.3,371.3c0.3,0.9,1.3,1.4,2.2,1.1c0.9-0.3,1.4-1.3,1.1-2.5c-0.1-0.5-1.4-1-2.3-0.7
					C758.4,369.6,758,370.4,758.3,371.3z"/>
				<path class="st14" d="M759,371c0.2,0.6,0.7,0.9,1.2,0.7c0.5-0.2,0.7-0.8,0.5-1.4c-0.2-0.6-0.7-0.9-1.2-0.7
					C759.1,369.8,758.8,370.4,759,371z"/>
				<path class="st8" d="M760.1,370.5c0,0.1,0.2,0.2,0.3,0.2c0.1,0,0.2-0.2,0.1-0.3c0-0.1-0.2-0.2-0.3-0.2
					C760.1,370.3,760.1,370.4,760.1,370.5z"/>
				<path class="st14" d="M763.3,371.4c-0.7-1.8-2.1-2.8-3.4-2.7c-0.9,0-2,0.5-2.4,1.4c-0.1,0.3-0.2,0.8-0.6,1.5
					c-0.2,0.3-0.3,0.5-0.4,0.6c0.1,0,0.3,0,0.5-0.1c0.2-0.1,0.3-0.2,0.4-0.3c0.4-0.4,0.4-0.7,0.9-1.1c0.7-0.6,1.8-1,2.7-0.8
					c0.5,0.2,1.7,0.7,2.2,1.6L763.3,371.4z"/>
				<path class="st15" d="M761.8,367.2c-0.2,0.1-0.5,0.2-0.9,0.3c-0.8,0.2-1.8,0.6-3.1,0.7c-1.1,0.1-2.2,0.1-2.2-0.1
					c0-0.1,0.6-0.2,1.8-0.6c1-0.3,1.7-0.6,3-1.1c0.6-0.2,1-0.4,1.4-0.6L761.8,367.2z"/>
			</g>
			<g>
				<path class="st14" d="M776.2,369c0.4,1.4-2.2,2-2.7,2.3c1.8-0.3,3.3-0.8,3.7-1.6L776.2,369z"/>
				<path class="st8" d="M769.9,371c0.1-0.4,0.3-1.1,1-1.8c0.2-0.2,1.2-1.2,2.8-1.2c2,0,3.1,1.5,3.2,1.7c-0.5,0.4-1.6,1.3-3.4,1.6
					C771.8,371.7,770.5,371.3,769.9,371z"/>
				<path class="st15" d="M775.2,369.9c-0.1,1-1.2,1.6-2.3,1.5c-1.1-0.1-2-1-1.9-2.2c0-0.5,1.4-1.2,2.6-1.1
					C774.7,368.2,775.3,368.9,775.2,369.9z"/>
				<path class="st14" d="M773.8,369.8c-0.1,0.6-0.7,1-1.2,1c-0.6-0.1-1-0.6-0.9-1.2c0.1-0.6,0.7-1,1.2-1
					C773.6,368.6,773.9,369.2,773.8,369.8z"/>
				<path class="st8" d="M773.4,369.1c0,0.1-0.2,0.2-0.3,0.2c-0.1,0-0.2-0.1-0.2-0.3c0-0.1,0.2-0.2,0.3-0.2
					C773.4,368.9,773.5,369,773.4,369.1z"/>
				<path class="st15" d="M769,365.7c0.4,0,0.9,0.1,1.6,0.2c2.2,0.3,3,0.4,4.3,0.4c0.6,0,1,0,1.6-0.1c1-0.2,1.8-0.5,2.3-0.8
					c-1.5,0.2-2.6,0.1-3.4,0c-1.1-0.1-1.7-0.2-4.4-0.7c-0.9-0.2-1.7-0.3-2.2-0.4L769,365.7z"/>
			</g>
			<path class="st13" d="M764.5,379.8c0.3,0.2,0.7,0.5,1.2,0.7c1.7,0.5,3.2-1,3.3-1.1c-0.6,0.1-1.3,0.2-2,0.3
				C766.2,379.7,765.3,379.8,764.5,379.8z"/>
			<path class="st7" d="M782.4,371.3c-0.3,2.3,0.3,5.4,1.4,5.5c1.1,0.1,2.2-2.7,2.5-5c0.3-2.3-0.4-4.2-1.5-4.4
				C783.8,367.4,782.7,369.1,782.4,371.3z"/>
			<g>
				<path class="st16" d="M764.5,385.3c0.2,0.2,0.9-0.4,2.3-0.5c2.1-0.2,3.4,0.7,3.5,0.4c0.2-0.3-1.7-2.4-3.7-2
					C765.2,383.4,764.2,385,764.5,385.3z"/>
			</g>
			<path class="st8" d="M786.6,383.2c0.5,4.5,0.1,8.3-0.7,8.4c-0.9,0.1-1.9-3.5-2.4-8.1c-0.5-4.5-0.1-8.3,0.7-8.4
				C785.1,375,786.1,378.6,786.6,383.2z"/>
			<path class="st7" d="M768.4,401.6"/>
			<path d="M763.3,416.8c11.9-2,23.9-4,35.8-5.9c-0.6,1.3-5.1,11.1-7.7,16.7c-0.4,0.8-0.9,2.1-1.7,3.7c-1,2.3-1.9,4.5-2.5,5.9
				c-1.8,5.1-1.6,11.2-1.5,12c0.1,2.2,0.5,5.2,1.7,8.7c-12.6-0.2-25.3-0.3-37.9-0.5c0.2-0.8,0.5-1.8,0.7-3c0-0.3,0.5-2.4,0.6-4.9
				c0.4-8-2.5-14.9-2.5-14.9c-0.8-1.5-1.3-2.9-1.7-3.8c-1.2-3.1-1.9-6-2.2-7.8c-0.2-1.8-0.2-3.5-0.2-3.5c0-0.1,0-0.2,0-0.2
				c0-6,3.2-11.8,3.2-11.8c0.2-0.4,0.5-0.8,0.7-1.2C753.2,409.8,758.2,413.3,763.3,416.8z"/>
			<path d="M735.6,455.8"/>
			<g>
				<g>
					<path class="st9" d="M768.6,606.5c0,0,18.2,2.5,26.8-6c9,3.5,27.3,0.4,29.9-6.4c-14.9-34.7-15.3-47.9-15.3-47.9l-41.2,9.4
						L768.6,606.5z"/>
					<path d="M792.7,588.1c7.8,3.1,23.2,0.7,28.5-4.3c1.5,3,2.7,6.7,4.2,10.3c-2.7,6.8-20.9,10-29.9,6.4c-8.6,8.5-26.8,6-26.8,6
						l0.1-12.2C774.2,594.6,786.1,594.5,792.7,588.1z"/>
					<path class="st9" d="M768.8,559.3c0,0,15.1,2.2,22.3-5.3c10.2,4.2,24.4-3.8,25.4-6.5c-12.4-30.7-13.3-41.6-13.3-41.6l-34.3,8.3
						L768.8,559.3z"/>
					<path d="M788.8,543c6.5,2.7,19.8-0.2,24.2-4.6c1.2,2.6,2.2,5.9,3.5,9.1c-2.2,6.1-17.9,9.7-25.4,6.5c-7.2,7.5-22.3,5.3-22.3,5.3
						l0-10.8C773.4,548.8,783.4,548.6,788.8,543z"/>
					<path class="st9" d="M769,519.5c0,0,13.3,1.6,19.5-3.9c6.6,2.3,20.8-1,22.7-5.5c-3.6-7.7-7.2-15.9-10.7-24.5
						c-4.4-10.8-10.5-20-13.8-30c-6.3,0-11.9-0.1-18.2-0.1C768.7,476.9,768.9,498.2,769,519.5z"/>
					<path class="st9" d="M729.4,510.2c1.9,4.4,13.2,7.5,19.8,5.3c6.2,5.5,19.5,4,19.5,4c0.2-15.1,0.4-30.2,0.7-45.2
						c0.1-6.2,0.2-12.4,0.3-18.6c-6.5,0-13.1,0-19.6,0c-4,10-8,20.3-12,30.8C735,494.4,732.2,502.4,729.4,510.2z"/>
					<path d="M786.5,507.5c5.7,2,17.8-0.8,21.7-4.1c1.1,1.9,2,4.3,3.1,6.7c-1.9,4.4-16.2,7.7-22.7,5.5c-6.3,5.5-19.5,3.9-19.5,3.9
						l0-7.9C773,511.8,781.7,511.7,786.5,507.5z"/>
				</g>
				<g>
					<path class="st9" d="M768.6,606.5c0,0-18.2,2.3-26.8-6.2c-9,3.5-24.4-1.8-27-8.7c2.6-11.3,5.1-20.2,6.9-26.4
						c0,0,0.7-2.3,6-19.5l0,0l41.1,9.7L768.6,606.5z"/>
					<path d="M742.9,587.1c-1.6,0.7-7.5,3-14.5,0.8c-6.2-1.9-9.7-6.1-10.8-7.6c-0.5,2-1,4-1.5,6.1c-0.4,1.8-0.8,3.5-1.2,5.2
						c2.6,6.9,18,12.2,27,8.7c8.5,8.6,26.8,6.2,26.8,6.2l0.1-12.2C763.2,594.6,749.4,593.6,742.9,587.1z"/>
					<path class="st9" d="M768.8,559.3c0,0-15.2,2.1-22.2-5.5c-7.5,3.1-20.4,0.2-22.5-5.9c7.4-27.1,10.8-42.3,10.8-42.3l34.2,8.6
						L768.8,559.3z"/>
					<path d="M748.1,543.1c-1.6,0.6-6.8,2.4-12.8,0.5c-3.9-1.2-7.5-3.8-8.7-5.1c-0.4,1.5-0.8,3.1-1.2,4.6c-0.5,1.6-0.9,3.3-1.4,4.9
						c2.2,6.1,15.1,8.9,22.7,5.9c7.1,7.6,22.2,5.5,22.2,5.5l0-10.8c-2.4,0.2-5.8,0.2-9.6-0.6C754.2,546.8,750.4,544.7,748.1,543.1z"
						/>
					<path d="M750.5,507.2c-1.7,0.5-6.5,1.9-11.9-0.1c-3.2-1.1-5.4-3-6.6-4.2c-0.4,1.2-0.9,2.5-1.3,3.7c-0.4,1.2-0.9,2.4-1.3,3.6
						c1.9,4.4,13.6,7.5,20.1,5.3c6.2,5.5,19.5,4,19.5,4l0-7.9c-2.2,0.2-5.1,0.2-8.4-0.5C756.1,510.2,752.7,508.5,750.5,507.2z"/>
				</g>
			</g>
			<path class="st7" d="M801.6,409.7c1.6,4.1,2.9,23.4,3.1,30.1c0.2,9.7-0.8,15.6-0.4,23.9c0.4,8.7,4.4,12.4,3.6,29.6
				c-0.4,8.1-1.5,18-1.4,21.7c1.9,2.7,4.6,13.6,1.6,20.9c0,1.8-2.4,4.5-3.3,5c-1.2,1.2-2.8,1.9-5.1,1.9c-0.9-0.9,0-4.5,1.6-6.6
				c-0.3-2.4-0.6-7.4-0.6-7.3c0,1-0.1,2.6-0.9,4.3c0,0-0.2,0.4-0.6,0.9c-0.4,0.6-0.7,0.7-0.9,0.8c-0.1,0-0.4,0.1-0.5,0
				c-0.1-0.1-0.2-0.3-0.1-0.6c0.3-1.5,0.3-2.3,0.5-4.2c0.2-2.5,0.1-4.8,0-6.7c1.2-3.9,2.5-5.2,2.1-8.6c-0.9-9.8-1.6-18-3.5-25.9
				c-2.3-9.4-1.8-14.6-2.3-24.7c-0.4-8.7-6.2-38.3-3.3-42.9L801.6,409.7z"/>
			<path class="st9" d="M732.9,426.5c1,0.7,2.6,1.7,4.9,2.1c3.6,0.8,6.5-0.1,7.7-0.6c2.8,1.1,6.7,2.2,11.5,2.4
				c2.1,0.1,4.1,0,5.8-0.2c3.4,0.8,6.3,1.2,8.3,1.3c4.5,0.3,9.1,0.6,13.6-1.8c2.1-1.1,3.6-2.5,4.4-3.4c1.3,0.9,3.7,2.4,7.1,2.8
				c6.1,0.8,10.7-2.4,11.8-3.2c0.1-1.3,0.1-3.3-0.3-5.6c-0.4-2.2-1.9-8.9-8-13.6c-1.3-1-3.5-2.4-6.6-3.4c-4.8,2-10.1,3.9-16,5.6
				c-4.6,1.4-8.9,2.5-13,3.3c-2.5-0.9-5.6-2.2-8.8-4.1c-2.5-1.5-4.5-3-6.2-4.5c-2.9,0.6-4.9,1.7-6.2,2.5c-7.6,4.8-9.2,13.7-9.5,15.8
				C732.9,424.3,732.9,426,732.9,426.5z"/>
			<g>
				<path d="M732.9,426.5c0.9,0.7,3.1,2.2,6.4,2.6c2.9,0.3,5.2-0.5,6.2-1c0.9,0.8,2,1.5,3.3,2.1c5.9,2.8,11.9,0.9,13.9,0.1
					c1.4,0.8,6.9,4,14.2,2.8c7-1.1,11-5.5,12.2-6.7c0.7,0.5,5.4,4,11.9,2.9c3.1-0.6,5.4-2,7-3.3c0-0.5,0.1-2.7-0.3-5.6
					c-1.1,0.9-4.3,3.3-9.1,3.6c-5.2,0.4-8.9-1.9-10.1-2.7c-1,1.1-2.7,2.7-5.2,3.9c-2.3,1-4.2,1.2-7.3,1.4c-3.2,0.2-5.7,0.4-8.8-0.5
					c-2-0.6-3.6-1.8-4.6-2.4c-1,0.6-2.4,1.7-4.3,2c-1.7,0.3-3,0.2-5.2,0c-2.4-0.2-3.6,0-5.1-0.7c-1.6-0.7-2.7-2-3.3-2.7
					c-0.6,0.6-2.2,1.8-4.5,2c-3.8,0.5-6.5-1.9-6.9-2.3C732.9,424.3,732.9,426,732.9,426.5z"/>
			</g>
			<path d="M754.8,362.8c0.2-1.1,0.7-3.4,1.9-5.2c2.9-4.4,7.7-5.3,8.4-5.4c0.6-0.1,2.8-0.4,5.4,0.2c0.8,0.2,2,0.5,3.2,1.4
				c1.1,0.7,1.8,1.5,2.1,1.9c0.4,0.4,0.4,0.5,1.9,2.6c0.4,0.5,0.5,0.7,0.8,1c0.6,0.7,1.3,1.1,1.8,1.3c-0.4-1-0.9-2-1.6-3.1
				c-1.1-1.7-3.5-5.5-8.3-7.2c-1-0.3-5.6-2-10.3,0.4c-0.8,0.4-5.7,2.8-6.1,7.5C754,359.9,754.4,361.9,754.8,362.8z"/>
			<path class="st14" d="M769.7,370.9l0.2,0.1c0.1-0.3,0.7-1.7,2.1-2.2c1.3-0.5,2.5,0,3.1,0.3c0.1,0.1,0.2,0.1,0.3,0.2
				c0,0,0.1,0.1,0.1,0.1c0.5,0.3,1.1,0.4,1.6,0.3c0.2,0,0.4-0.1,0.5-0.2c0.2-0.1,0.4-0.2,0.6-0.5c-0.2,0-0.4,0.1-0.6,0.1
				c-0.9,0-1.6-0.3-2-0.6l0,0c-0.9-0.7-2.6-1.4-4-0.8C770,368.4,769.7,370.8,769.7,370.9z"/>
			<path class="st14" d="M775.2,369.1c0.1,0.1,0.3,0.2,0.4,0.3c0,0-0.1-0.1-0.1-0.1C775.4,369.2,775.3,369.2,775.2,369.1z"/>
		</g>
		<path d="M794.2,652.9c0,0,0.9-1.9,1.9-2.4l0,19h-1.9V652.9z"/>
		<path d="M771.6,651.8c0,0-1.6,0.9-2.5,1.1l0,14.7h2.2L771.6,651.8z"/>
	</g>
	<g>
		<g>
			<g>
				<g>
					<g>
						<path d="M489.7,647.2c1.1,14.3,11.4,25.6,26.3,24.3c15.2-1.2,26.8-14.3,25.6-29.1c-1.2-14.8-14.6-25.3-29.7-23.5
							C497.1,620.6,488.6,632.9,489.7,647.2z"/>
						<path class="st8" d="M500.6,648.2c0.5,6.1-0.1,11.1-1.2,11.2c-1.1,0.1-2.4-4.8-2.9-10.8c-0.5-6.1,0.1-11.1,1.2-11.2
							C498.8,637.3,500.1,642.1,500.6,648.2z"/>
						<g>
							<path d="M489.1,621.3c1.1,14.5,13.6,26,26.1,24.7c12.7-1.3,23.5-15.3,22.2-30.3c-2-22.7-17.4-26.2-28.1-24.7
								C500.3,592.3,487.2,597,489.1,621.3z"/>
						</g>
						<path class="st7" d="M482.8,674.6c1.6,2.4,4,5.3,7.3,8.3c3.7,3.3,7.4,5.5,10.2,6.9c9.4-1.3,17.7-2.5,25.5-3.7
							c4.4-0.6,10.2-1.1,14.7-5.5c1.7-1.7,2.7-3.4,3.4-4.6c-1.7-0.6-11.2-4.3-16.9-11.6c-4.2-5.4-5.3-11.4-5.3-11.6
							c0-0.4-0.1-0.8-0.1-0.8c0,0,0-0.1,0-0.1c-0.2-2.4-0.1-4.5,0.1-6.2c0-0.2,0.1-0.4,0.1-0.6c-3.6,1.2-6.3,2.4-8,3
							c-0.3,0.1-0.6,0.2-0.9,0.3c-0.7,0.2-1.4,0.4-1.6,0.5c0,0-0.1,0-0.1,0c0,0,0,0,0,0c-0.7,0.3-1.4,0.5-2.2,0.7c0,0,0,0,0,0
							c-1.3,0.3-2.5,0.3-3.5,0.2c-1.3,0.3-2.5,0.5-3.2,0.7c0,0.2,0,0.4,0.1,0.6c0.2,1.8,0.1,3.3-0.1,4.6c0,0,0,0,0,0
							c-0.1,0.5-0.2,0.9-0.3,1.4C499.4,666.7,489.1,672,482.8,674.6z"/>
						<path class="st13" d="M502.1,655.7c1.7,1.8,3.4,2.4,4.3,2.7c4.3,1.2,8.3-1.4,10.8-3c1.9-1.2,3.3-2.5,4.3-3.6
							c-0.2-2.4-0.1-4.5,0.1-6.2c0-0.2,0.1-0.4,0.1-0.6c-3.6,1.2-6.3,2.4-8,3c-0.3,0.1-0.6,0.2-0.9,0.3c-0.7,0.2-1.4,0.4-1.6,0.5
							c0,0-0.1,0-0.1,0c0,0,0,0,0,0c-0.7,0.3-1.4,0.5-2.2,0.7c0,0,0,0,0,0c-1.3,0.3-2.5,0.3-3.5,0.2c-1.3,0.3-2.5,0.5-3.2,0.7
							c0,0.2,0,0.4,0.1,0.6C502.4,652.9,502.3,654.4,502.1,655.7z"/>
						<path class="st7" d="M507.2,602.1c0.2,0,0.4-0.1,0.5-0.1c5.9-0.9,11.3,0.3,13.2,1c6.7,2.5,9.6,14.7,9.3,23.6
							c-0.5,12-9.6,28.4-20.8,29.9c-5.8,0.8-15.6-10-17.4-24.8C490.2,617,491.2,604.5,507.2,602.1z"/>
						<path d="M504.7,602.6c1.5-0.3,5.3-0.9,8.9,0.3c0.7,0.2,2.7,1.1,4.5,3.1c0.9,1,1.8,2.4,3.1,4.3c1.2,1.8,1.2,2,1.8,2.6
							c1.4,1.4,2.6,1.5,3.5,3.6c1.9,4.2,0.4,11.6,0.5,15.2c0,0.2,0,0.9,0.3,1c0.3,0.1,0.7-1,1-1c0.4,0,0.7,1.8,0.8,6.3
							c1.3-3.2,3-8.5,3.3-15.3c0.3-6.8,0.7-16.6-5.9-21.4c-3.6-2.6-7.5-2.4-13.6-2.1c-4.8,0.3-13.7,0.8-17.9,7.2
							c-1.3,2.1-1.9,4.2-2.1,5.7c0.5-1.2,1.5-2.9,3-4.6C499.3,603.9,503.2,602.8,504.7,602.6z"/>
						<g>
							<path class="st14" d="M495,628.3c-0.1,1.9,2.8,2.2,3.4,2.4c-2,0-3.6-0.1-4.2-1.1L495,628.3z"/>
							<path class="st8" d="M502,629.5c-0.9-1.9-3.3-3.1-4.7-3c-1,0.1-2.6,1.8-3,3c1.3,1.1,3.4,1.5,4,1.4c1-0.2,2-0.4,3.5-1.1
								L502,629.5z"/>
							<path class="st15" d="M495.8,629.1c0.4,1.2,1.6,1.9,2.8,1.5c1.2-0.4,1.9-1.8,1.5-3.3c-0.1-0.6-1.8-1.3-3-0.9
								C496,626.9,495.5,627.9,495.8,629.1z"/>
							<path class="st14" d="M496.8,628.8c0.2,0.8,0.9,1.2,1.5,1c0.6-0.2,0.9-1.1,0.6-1.8c-0.2-0.8-0.9-1.2-1.5-1
								C496.8,627.2,496.5,628,496.8,628.8z"/>
							<path class="st8" d="M498.2,628.1c0.1,0.2,0.2,0.3,0.4,0.2c0.1-0.1,0.2-0.2,0.1-0.4c-0.1-0.2-0.2-0.3-0.4-0.2
								C498.2,627.7,498.1,627.9,498.2,628.1z"/>
							<path class="st14" d="M502.3,629.3c-0.9-2.4-2.7-3.7-4.3-3.6c-1.1,0-2.6,0.7-3.2,1.9c-0.2,0.4-0.3,1-0.9,2
								c-0.2,0.3-0.4,0.6-0.5,0.8c0.1,0,0.4,0,0.6-0.1c0.3-0.1,0.4-0.3,0.5-0.4c0.5-0.5,0.6-0.9,1.2-1.4c0.9-0.8,2.3-1.4,3.5-1.1
								c0.7,0.2,2.2,0.9,2.8,2.1L502.3,629.3z"/>
							<path class="st15" d="M500.4,623.6c-0.3,0.1-0.7,0.2-1.1,0.4c-1,0.3-2.4,0.8-4,0.9c-1.3,0.2-2.8,0.1-2.8-0.1
								c0-0.1,0.8-0.2,2.4-0.8c1.2-0.4,2.2-0.8,3.9-1.6c0.7-0.3,1.3-0.6,1.8-0.8L500.4,623.6z"/>
						</g>
						<g>
							<path class="st14" d="M519.2,625.9c0.4,1.9-3,2.8-3.6,3.1c2.4-0.4,4.4-1.1,4.9-2.2L519.2,625.9z"/>
							<path class="st8" d="M510.9,628.7c0.1-0.5,0.5-1.5,1.4-2.4c0.2-0.2,1.6-1.6,3.7-1.6c2.6,0,4,2.1,4.2,2.3
								c-0.6,0.6-2.2,1.8-4.6,2.3C513.3,629.6,511.6,629,510.9,628.7z"/>
							<path class="st15" d="M517.8,627.1c-0.2,1.3-1.6,2.2-3.1,2.1c-1.5-0.1-2.6-1.4-2.4-2.9c0.1-0.6,1.9-1.7,3.4-1.6
								C517.2,624.8,518,625.8,517.8,627.1z"/>
							<path class="st14" d="M516,626.9c-0.2,0.8-0.9,1.4-1.7,1.3c-0.8-0.1-1.3-0.8-1.1-1.7c0.1-0.8,0.9-1.4,1.7-1.3
								C515.7,625.4,516.2,626.1,516,626.9z"/>
							<path class="st8" d="M515.5,626.1c0,0.2-0.2,0.3-0.4,0.3c-0.2,0-0.3-0.2-0.3-0.4c0-0.2,0.2-0.3,0.4-0.3
								C515.4,625.7,515.5,625.9,515.5,626.1z"/>
							<path class="st15" d="M509.8,621.5c0.5,0,1.2,0.1,2,0.2c2.9,0.3,3.9,0.5,5.6,0.5c0.7,0,1.3,0,2.1-0.2
								c1.3-0.2,2.4-0.7,3.1-1.1c-1.9,0.2-3.5,0.2-4.6,0.1c-1.4-0.1-2.2-0.3-5.7-0.9c-1.2-0.2-2.2-0.4-2.9-0.5L509.8,621.5z"/>
						</g>
						<path class="st13" d="M503.6,640.6c0.3,0.3,0.8,0.7,1.6,0.9c2.2,0.6,4.2-1.4,4.4-1.5c-0.8,0.1-1.7,0.3-2.7,0.3
							C505.7,640.4,504.6,640.5,503.6,640.6z"/>
						<path class="st7" d="M527.4,629c-0.4,3.1,0.3,7.3,1.7,7.5c1.4,0.2,3.1-3.7,3.5-6.8c0.4-3.1-0.4-5.8-1.9-6
							C529.3,623.5,527.8,625.9,527.4,629z"/>
						<g>
							<path class="st16" d="M503.4,647.9c0.2,0.3,1.2-0.5,3-0.7c2.7-0.3,4.4,0.9,4.6,0.6c0.2-0.5-2.2-3.3-4.7-2.8
								C504.4,645.4,503.1,647.5,503.4,647.9z"/>
						</g>
						<path class="st8" d="M532.7,645.2c0.5,6.2-0.1,11.4-1.2,11.5c-1.2,0.1-2.5-4.9-3-11.1c-0.5-6.2,0.1-11.4,1.2-11.5
							C530.8,634,532.2,638.9,532.7,645.2z"/>
						<path class="st7" d="M508,671.4"/>
						<path d="M500.7,693c15.2-2.5,30.7-5.1,46.4-7.7c-3.7,9.7-7.6,22.1-9.8,36.8c-1.8,11.7-2.2,22.2-2,31.1
							c-17.4-2-34.7-3.9-52.1-5.9c0.3-1.1,0.6-2.4,0.9-4.1c0.1-0.3,0.6-3.3,0.8-6.6c0.5-10.8-3-20.2-3-20.2
							c-0.9-2.1-1.6-3.8-2.1-5.1c-1.5-4.2-2.3-8-2.6-10.4c-0.3-2.3-0.2-4.6-0.2-4.6c0-0.1,0-0.2,0-0.3c0.1-7.8,4.1-15.3,4.1-15.3
							c0.3-0.5,0.6-1.1,0.9-1.6C488.1,683.7,494.3,688.3,500.7,693z"/>
						<path class="st9" d="M461,703c1.3,1.1,4,3,8,3.8c4.4,0.9,7.9,0,9.5-0.6c3.4,1.5,8.3,3,14.2,3.5c2.7,0.2,5.1,0.1,7.3-0.1
							c4.3,1.2,8,1.7,10.6,2c5.8,0.5,11.9,1.1,17.7-2.1c2.8-1.5,4.7-3.3,5.8-4.6c1.7,1.3,5,3.3,9.5,4c8.3,1.3,14.5-3,16-4.2
							c0.1-1.9,0.1-4.6-0.6-7.8c-0.6-3-2.9-12.2-11.3-18.7c-1.8-1.4-4.7-3.3-8.8-4.6c-6,2.5-12.4,5-19.1,7.4
							c-5.2,1.9-10.3,3.5-15.3,5.1c-3.6-1.7-7.8-4-12.2-7.5c-2.4-1.9-4.5-3.8-6.3-5.7c-3,0.7-6.8,2-10.5,4.5
							C463.5,685.8,461.4,699.9,461,703z"/>
						<path d="M491.6,617.8c0.3-1.4,1-4.6,2.6-7c3.8-5.9,10-7.3,11-7.5c0.7-0.1,3.6-0.7,7,0.1c1.1,0.3,2.6,0.6,4.2,1.7
							c1.4,0.9,2.3,2,2.7,2.5c0.5,0.6,0.5,0.7,2.4,3.4c0.5,0.7,0.7,1,1,1.4c0.8,0.9,1.7,1.5,2.3,1.8c-0.5-1.3-1.2-2.7-2.1-4.2
							c-1.4-2.2-4.5-7.4-10.7-9.5c-1.2-0.4-7.2-2.5-13.4,0.8c-1,0.5-7.4,3.9-8,10.2C490.6,614,491.1,616.7,491.6,617.8z"/>
						<path class="st14" d="M510.6,628.6l0.3,0.1c0.1-0.3,0.9-2.3,2.9-3c1.7-0.6,3.3-0.1,4.1,0.3c0.2,0.1,0.3,0.2,0.4,0.2
							c0.1,0,0.1,0.1,0.2,0.1c0.7,0.4,1.5,0.5,2.2,0.4c0.3,0,0.5-0.1,0.7-0.3c0.2-0.1,0.5-0.3,0.8-0.7c-0.2,0.1-0.5,0.1-0.8,0.1
							c-1.2,0.1-2.2-0.4-2.6-0.7l0,0c-1.1-1-3.4-1.8-5.2-1.1C511.1,625.1,510.6,628.4,510.6,628.6z"/>
						<path class="st14" d="M517.9,626c0.2,0.1,0.4,0.3,0.6,0.4c-0.1,0-0.1-0.1-0.2-0.1C518.2,626.2,518,626.1,517.9,626z"/>
					</g>
				</g>
				<g>
					<path d="M461,703c1.1,1.1,4.6,4,9.8,4.4c3.4,0.3,6.2-0.6,7.6-1.1c1.1,1,2.5,2,4.1,2.9c7.3,3.8,14.9,1.5,17.4,0.5
						c1.8,1.2,8.8,5.6,18.2,4.2c9.1-1.4,14.4-7.2,15.9-8.9c0.9,0.7,7.4,5.7,16.1,4.3c4.2-0.7,7.3-2.6,9.4-4.4c0-0.7,0.1-3.8-0.6-7.8
						c-1.5,1.2-5.8,4.4-12.2,4.8c-7,0.4-12-2.8-13.5-3.9c-1.3,1.5-3.5,3.7-6.7,5.2c-3,1.4-5.4,1.5-9.5,1.8
						c-4.1,0.3-7.4,0.4-11.4-0.9c-2.5-0.8-4.6-2.4-5.9-3.2c-1.2,0.8-3,2.2-5.5,2.6c-2.1,0.4-3.7,0.2-6.5-0.1c-2.9-0.3-4.5-0.1-6.3-1
						c-2-1-3.2-2.7-4.1-3.6c-1.2,0.5-3.6,1.3-6.6,1.1c-4.6-0.4-7.5-3-8.4-3.9c-0.5,1.6-0.9,3.4-1.2,5.3
						C461.2,701.7,461.1,702.4,461,703z"/>
				</g>
			</g>
			<path class="st17" d="M537.6,806.3c-5.7,6-14,6.3-20.3,6.5c0,0-21.2-0.5-41.7-15.6c-4.4-3.3-7.8-6.3-10-8.3
				c-0.1-0.1-0.1-0.1-0.1-0.1c0,0,0,0,0,0c0,0,6.9-16.3,18.5-43.7c4.8,2.2,11,4.5,18.5,5.9c13.7,2.5,25.2,0.8,32.4-0.9
				c7.2,15.5,8.1,28.5,8,36C542.9,793.8,542.7,800.9,537.6,806.3z"/>
			<g>
				<g>
					<g>
						<g>
							<g>
								<g>
									<path class="st18" d="M470.1,832.2c0.1,0.2,0.1,0.5,0.1,0.7c0.1,0.9,0.3,1.8,0.4,2.7c0.6,5.7-0.7,11.6-3.6,16.6
										c-0.2,0.3-0.4,0.6-0.6,0.9c-1.9,3-6.4,9.1-10.6,8.9c-3.4-0.1-3.4-2.1-2.7-4.3c0,0,0,0,0,0c0.1-0.3,0.2-0.5,0.3-0.8
										c-2.1,2.7-7.3,6.8-7,10.1c0.2,2.8,6.2,3.2,9,3.1c4-0.2,9-1.3,11.1-5c3.2-5.7,0.8-12.6,6.4-16.9c0.5,5.7,0.9,11.4,1.3,17.1
										c0,0.1,0,0.1,0.1,0.1c0,0,0,0,0,0c0,0,0.1,0,0.1,0c0.1,0,1.1-0.1,2.4-0.3c-0.4-6-0.8-12.6-1.1-18.6c0.5-1.2,1-2.1,0.9-3.9
										C476.5,836.3,470.8,832.6,470.1,832.2z"/>
								</g>
							</g>
							<g>
								<g>
									<path class="st19" d="M485.7,794.3c-5.1,12.5-10.3,24.9-15.4,37.4c-0.1,0.2-0.1,0.5-0.2,0.7c0,0.1,0.1,0.3,0.1,0.5
										c0,0,0.2,1.4,0.4,2.7c0.6,5.8-0.7,11.6-3.6,16.6c-0.2,0.3-0.4,0.6-0.6,0.9c-1.9,3-6.4,9.1-10.6,9c-2.2-0.1-3-0.9-3.1-2.1
										c0-0.7,0.1-1.4,0.4-2.2c0.1-0.3,0.2-0.6,0.3-0.8c0.7-1.9,1.4-3.2,1.5-3.3c0.3-1.9,0.6-3.8,1-5.7c1.3-7,2.9-13.6,4.7-19.7
										c0.9-5.2,1.8-10.4,2.7-15.6c1.2-7.1,2.5-14.1,3.7-21.2C473.3,792.3,479.5,793.3,485.7,794.3z"/>
								</g>
							</g>
						</g>
						<path d="M473,848.1c0,0,2.3-1.1,2.8-1.7L477,865l-2.7,0.4L473,848.1z"/>
					</g>
					<g>
						<g>
							<g>
								<g>
									<path class="st10" d="M493.9,835.5c0.1,0.2,0.1,0.5,0.1,0.7c0.1,0.9,0.3,1.8,0.4,2.7c0.6,5.7-0.7,11.6-3.6,16.6
										c-0.2,0.3-0.4,0.6-0.6,0.9c-1.9,3-6.4,9.1-10.6,8.9c-3.4-0.1-3.4-2.1-2.7-4.3c0,0,0,0,0,0c0.1-0.3,0.2-0.5,0.3-0.8
										c-2.1,2.7-7.3,6.8-7,10.1c0.2,2.8,6.2,3.2,9,3.1c4-0.2,9-1.3,11.1-5c3.2-5.7,0.8-12.6,6.4-16.9c0.5,5.7,0.9,11.4,1.3,17.1
										c0,0.1,0,0.1,0.1,0.1c0,0,0,0,0,0c0,0,0.1,0,0.1,0c0.1,0,1.1-0.1,2.4-0.3c-0.4-6-0.8-12.3-1.1-18.3
										c0.5-1.2,0.9-2.4,0.9-4.2C500.3,839.6,494.6,835.9,493.9,835.5z"/>
								</g>
							</g>
							<g>
								<g>
									<path class="st7" d="M509.5,797.6c-5.1,12.5-10.3,24.9-15.4,37.4c-0.1,0.2-0.1,0.5-0.2,0.7c0,0.1,0.1,0.3,0.1,0.5
										c0,0,0.2,1.4,0.4,2.7c0.6,5.8-0.7,11.6-3.6,16.6c-0.2,0.3-0.4,0.6-0.6,0.9c-1.9,3-6.4,9.1-10.6,9c-2.2-0.1-3-0.9-3.1-2.1
										c0-0.7,0.1-1.4,0.4-2.2c0.1-0.3,0.2-0.6,0.3-0.8c0.7-1.9,1.4-3.2,1.5-3.3c0.3-1.9,0.6-3.8,1-5.7c1.3-7,2.9-13.6,4.7-19.7
										c0.9-5.2,1.8-10.4,2.7-15.6c1.2-7.1,2.5-14.1,3.7-21.2C497.1,795.6,503.3,796.6,509.5,797.6z"/>
								</g>
							</g>
						</g>
					</g>
				</g>
			</g>
			<g>
				<g>
					<g>
						<path class="st9" d="M497.1,844.2c3.1,0.4,6.9,0.6,11.2,0.2c8.1-0.8,14.4-3.5,18.4-5.6c9.4,4.3,26.9-0.7,28.8-9.7
							c0-6.3-0.4-13.5-1.7-21.3c-0.6-3.9-1.4-7.5-2.3-10.9c0.8-0.7,1.6-1.4,2.3-2.1c-1.2-7.1-3.1-15.6-6.5-24.9
							c-4.5-12.4-10.2-22.2-15.2-29.5c-3-1.7-7.5-3.9-13.3-4.9c-10-1.8-18.2,0.6-22.1,2.1c-5.2,16.2-10.9,41.9-7.2,72.9
							C491,823.5,493.9,834.8,497.1,844.2z"/>
						<path class="st9" d="M498.3,844.1c-3.3,0.3-7.4,0.4-11.9-0.2c-8.7-1.1-15.5-4.2-19.8-6.6c-3.3,0.8-10.5,2.1-18.9-0.5
							c-11.6-3.6-17.6-12.2-19.2-14.8c7.1-19.7,14.2-39.5,21.3-59.2c14.8,4.7,29.6,9.4,44.5,14.2C495.6,799.3,497,821.7,498.3,844.1
							z"/>
					</g>
					<g>
						<path d="M524.2,825.7c2.9,1,7.7,2.4,13.8,1.9c8.5-0.6,14.6-4.3,17.2-6.2c0.1,2.1,0.1,4.2,0.1,6.4c0,1.7,0,3.4-0.1,5
							c-2.1,6.4-19.7,9.4-29,5.9c-8.5,8.4-28.3,6-28.3,6l-0.6-12.6c3,0.4,7.4,0.6,12.5-0.4C516.6,830.4,521.4,827.6,524.2,825.7z"/>
						<path d="M467.2,823.9c-2.4,0.5-11.9,2.4-21.6-3c-7.3-4.1-10.9-10.1-12.2-12.6c-1.2,3.3-2.4,6.7-3.6,10
							c-0.5,1.3-0.9,2.5-1.4,3.8c1.4,2.4,6.8,11.3,18.2,15.3c9.1,3.2,17,1.5,20,0.7c4.8,2.8,9,4.2,11.8,4.9c0,0,4.3,1.1,19.6,1.7
							l0,0l-0.6-12.6C491.3,832.3,475.3,830.9,467.2,823.9z"/>
					</g>
				</g>
				<g>
					<g>
						<path class="st9" d="M498.4,737.5c-0.1,2.2-0.1,4.4-0.2,6.5l-0.2,2.8l-0.2,3.9l-0.1,1.5l-0.1,2.1l-0.2,4.4l0,0.7l0,0.3
							l-0.1,1.9l-0.1,2.3l-0.9,16.1l-0.5,9.2l-0.1,1.4l0,0l-0.4,7.6l-0.1,1.5l-0.3,5.8c0,0-9.3,0.5-17.8-3.2c-3.6-1.6-7-3.9-9.5-7.3
							c-0.2,0.1-0.5,0.2-0.7,0.2c-1.5,0.4-3.1,0.6-4.8,0.7c-1.3,0-10.2-0.2-19.7-7.1c-2.2-1.6-5.2-4.1-8.3-7.9
							c2.4-5.1,4.3-9.3,5.5-12.1c4-9,6.2-14.7,10.9-22.6c0.4-0.8,0.8-1.4,1-1.7c0.8-1.2,1.6-2.4,2.5-3.6c0.9-1.2,2.1-2.7,3.6-4.2
							l0,0c2.1-1.9,5.5-4.5,10.2-5.9c6.1-1.8,11.1-1.1,14.1-0.6C489.7,731.5,495.3,735.1,498.4,737.5z"/>
					</g>
					<g>
						<path d="M467.5,795c3.3,3.5,6.6,5.8,9.5,7.3c19.2,10.4,41.1,0.5,45-1.3c2.4,1.1,6.1,2.4,10.5,2.6c11.5,0.4,19.4-7,21.2-8.8
							c-0.4-2.2-0.8-4.4-1.3-6.8c-0.5-2.3-1.1-4.6-1.6-6.7c-2,1.7-8.4,6.7-17.8,6.8c-5,0.1-9-1.3-11.4-2.4
							c-3.3,1.9-13.7,7.3-27.6,5.5c-12.7-1.7-20.9-8.4-23.8-11.1c-2.9,0.5-8.7,1.2-15.5-1.1c-8.4-2.8-13.3-8.4-15.1-10.7
							c-1.1,2.4-2.2,4.9-3.3,7.3c-0.8,1.7-1.6,3.5-2.4,5.2c2,2.6,6.4,7.7,13.9,11.1C456.5,796,464.2,795.4,467.5,795z"/>
					</g>
				</g>
				<path d="M451.5,744.4c2.7,2,4.8,2.6,5.8,2.8c1.3,0.2,3.5,0.4,5.2,0.4c0.2,0,0.4,0,0.5,0c0,0,0.1,0.1,0.1,0.1
					c0.9,1.4,2.1,2.7,3.4,3.8c8,6.9,21.9,9.2,21.9,9.2l0,0l0.8-2.8l2.3-8.2c-5.6-1.3-17.6-4.9-22.4-12.5c-1.7,0.4-5.5,0.9-8.8-1.2
					c-0.5-0.3-0.9-0.6-1.2-0.9c-1.4,1.1-3,2.6-4.6,4.7C453.1,741.5,452.2,743.1,451.5,744.4z"/>
				<path d="M488.3,760.8c0,0,4.2,1.7,9.7,2.9c4.2,0.9,9.1,1.5,13.6,0.8c1.8-0.3,3.5-0.8,5.1-1.5c0.9,0.6,1.8,1.1,2.7,1.5
					c9.8,4.8,20.5,2,26,0.1c-0.4-1.4-0.9-2.8-1.5-4.4c-0.9-2.4-1.9-4.6-2.9-6.6c-2,0.7-4.7,1.5-8,1.6c-6.9,0.2-12.1-2.6-14.3-4
					c-3.5,1-8.9,2-15.5,1.4c-1.4-0.1-2.7-0.3-3.9-0.5c-3.1-0.6-5.8-1.4-7.9-2.2l0,0l-2.3,8.2L488.3,760.8z"/>
			</g>
			<g>
				<g>
					<path class="st7" d="M548,754.8c2.5-15.9,6.1-36.3,8.6-52.3c-2.2,0.2-6.1,2.2-8.7,2.2c-3.6,0-6.4,0.4-9.2,0
						c-1.4,14.4-2.7,30.6-4.1,45C539.1,751.4,543.6,753.1,548,754.8z"/>
				</g>
				<path class="st7" d="M498,758.2c-1,0-1.7,0.1-2.2,0.2c-0.4,0.1-0.8,0.2-1.1,0.3c-2.3,0.7-3.6,1.9-6.3,2c-0.2,0-0.4,0-0.5,0l0,0
					c0,0-0.1,0-0.3,0c0,0,0,0,0,0c-4.9-0.1-8.3-1-10.6-1.8c-0.9-0.3-2.5-0.9-2.4-1.3c0.1-0.5,2.6-0.5,4.8-0.4
					c-2.1-0.3-3.7-0.5-5-0.7c-0.5,0-1.5-0.1-1.9-0.8c0-0.1-0.2-0.4-0.1-0.8c0.3-0.6,1.7-0.5,4.1-0.5c2.5,0,4.2-0.1,4.3-0.1
					c0,0-1.4-0.1-3.9-0.2c-3.3-0.1-5.1-0.1-5.3-0.8c-0.1-0.3,0.1-0.7,0.2-0.8c0.5-0.7,1.5-0.6,2.1-0.6c1.4,0,3.1,0,5.3-0.1
					c-5.1,0.1-5.7-0.8-5.8-1.1c-0.1-0.3,0.1-0.6,0.3-0.8c0.5-0.6,1.5-0.5,2-0.5c2.2,0.1,4.3,0,6.5,0c0.7,0,1.7,0,3-0.1
					c-0.5-0.3-1.5-0.9-2.3-1.9c-0.3-0.4-1.1-1.5-0.9-1.9c0.3-0.5,2.6,0.1,11.2,4.9c0.1,0.1,0.2,0.1,0.3,0.2c0.7,0.3,1.5,0.6,2.5,0.8
					c0.9,0.2,1.7,0.3,2.4,0.4c-0.3,0.5-0.7,1.4-0.8,2.4C497.2,755.9,497.7,757.5,498,758.2z"/>
				<g>
					<g>
						<path class="st7" d="M541.8,748.2l-48.8,3.6l-0.6,6.8c0,0,30,4,49.6,2.2c3.2-0.3,6.3-3.6,6.1-6.8
							C547.8,751,544.8,748,541.8,748.2z"/>
					</g>
				</g>
			</g>
			<g>
				<path class="st7" d="M462.2,702c-3.1,13.1-6.2,26.2-9.4,39.2c0.1,1.3,0.3,2.7,0.4,4c4.4,0.5,8.9,0.9,13.3,1.4
					c3.9-14.4,7.8-28.7,11.7-43.1C472.9,703,467.5,702.5,462.2,702z"/>
				<path class="st7" d="M484.1,745.1c3.1,0.4,6.1,0.7,9.2,1.1c0.6-0.4,1.5-0.9,2.6-1.5c2.4-1.3,3.8-2,5.7-2.2c0.4,0,0.6,0,4.4,0.5
					c1,0.1,2.8,0.4,3.8,0.5c0,0.3-0.2,1.1-0.7,1.8c-0.4,0.5-0.8,0.7-1.1,0.9c0.9,0.3,2.1,0.5,3.6,0.6c1.2,0,2.6,0.1,4.2-0.5
					c1.5-0.6,2.3-1.3,3-0.9c0.4,0.2,0.5,0.7,0.6,0.9c0.3,1-0.6,1.8-0.6,1.9c0.1,0.1,0.6,0.5,0.6,1.3c0,0.7-0.3,1.3-0.9,1.7
					c0.1,0.1,0.4,0.9,0.1,1.7c-0.4,0.8-1.2,1.3-2.2,1.2c0.1,0.4,0.2,0.9,0,1.5c-0.2,0.6-0.8,1.4-3.4,2.2c-2.2,0.7-4.5,0.9-7,0.8
					c-2-0.1-4.8-0.2-8.1-1.4c-1.5-0.6-2.7-1.2-3.5-1.7c-2.9,0-5.8-0.1-8.7-0.1C485.1,751.8,484.6,748.5,484.1,745.1z"/>
				<path class="st7" d="M493.3,746.2c-7.5-1.6-15-3.2-22.5-4.8c-0.2-0.1-1.2-0.5-1.8-1.6c-0.6-1.3-0.1-2.4,0-2.6
					c-5.3,1.1-10.7,2.2-16,3.3c-0.5,1.5-1.7,5.8,0.5,9c0.6,0.9,1.3,1.4,1.9,1.8c5.8,4,18.2,3.9,19.8,3.9c4,0,10.4-0.1,19.1,0
					C493.9,752.3,493.6,749.2,493.3,746.2z"/>
			</g>
			<g>
				<path d="M461,703c1.1,1.1,4.6,4,9.8,4.4c3.4,0.3,6.2-0.6,7.6-1.1c1.1,1,2.5,2,4.1,2.9c7.3,3.8,14.9,1.5,17.4,0.5
					c1.8,1.2,8.8,5.6,18.2,4.2c9.1-1.4,14.4-7.2,15.9-8.9c0.9,0.7,7.4,5.7,16.1,4.3c4.2-0.7,7.3-2.6,9.4-4.4c0-0.7,0.1-3.8-0.6-7.8
					c-1.5,1.2-5.8,4.4-12.2,4.8c-7,0.4-12-2.8-13.5-3.9c-1.3,1.5-3.5,3.7-6.7,5.2c-3,1.4-5.4,1.5-9.5,1.8c-4.1,0.3-7.4,0.4-11.4-0.9
					c-2.5-0.8-4.6-2.4-5.9-3.2c-1.2,0.8-3,2.2-5.5,2.6c-2.1,0.4-3.7,0.2-6.5-0.1c-2.9-0.3-4.5-0.1-6.3-1c-2-1-3.2-2.7-4.1-3.6
					c-1.2,0.5-3.6,1.3-6.6,1.1c-4.6-0.4-7.5-3-8.4-3.9c-0.5,1.6-0.9,3.4-1.2,5.3C461.2,701.7,461.1,702.4,461,703z"/>
			</g>
		</g>
		<path d="M496.8,851.4c0,0,2.5-1,2.9-1.3l1.1,18.3l-2.6,0.3L496.8,851.4z"/>
	</g>
</g>
</svg>
