<?xml version="1.0" encoding="utf-8"?>
<!-- Generator: Adobe Illustrator 26.0.1, SVG Export Plug-In . SVG Version: 6.00 Build 0)  -->
<svg version="1.1" id="Layer_1" xmlns="http://www.w3.org/2000/svg" xmlns:xlink="http://www.w3.org/1999/xlink" x="0px" y="0px"
	 viewBox="0 0 1000 1000" style="enable-background:new 0 0 1000 1000;" xml:space="preserve">
<style type="text/css">
	.st0{clip-path:url(#SVGID_00000091002756472845813860000002775517479598783932_);fill:#F2D7B9;}
	.st1{clip-path:url(#SVGID_00000052809953035684976620000013353966079229782719_);fill:#D8B182;}
	.st2{clip-path:url(#SVGID_00000039856453915874051400000012823771566656281988_);}
	.st3{opacity:0.15;}
	.st4{clip-path:url(#SVGID_00000157301761816631014900000004479848224718846125_);fill:#281010;}
	.st5{clip-path:url(#SVGID_00000018935034879580276810000010262356622484323975_);fill:#281010;}
	.st6{fill:#7A574E;}
	.st7{fill:#7B889B;}
	.st8{fill:#6B7B8E;}
	.st9{fill:#BDD8FF;}
	.st10{fill:#ACCFF9;}
	.st11{fill:#D7E9FF;}
	.st12{fill:#8897AA;}
	.st13{fill:#CE4A4A;}
	.st14{fill:#BF3D3D;}
	.st15{fill:#E55757;}
	.st16{fill:#381B19;}
	.st17{fill:#442221;}
	.st18{fill:#F2C9A0;}
	.st19{fill:#DBAC89;}
	.st20{fill:#D3D3D3;}
	.st21{fill:#FFFFFF;}
	.st22{fill:#E4C77B;}
	.st23{fill:#292937;}
	.st24{fill:#1E1E29;}
	.st25{fill:#232330;}
	.st26{fill:#3A2317;}
	.st27{fill:#563A1F;}
	.st28{fill:#E8DCD6;}
	.st29{opacity:0.2;}
	.st30{fill:#42210B;}
	.st31{fill:#D8A188;}
	.st32{fill:#9F0102;}
	.st33{fill:#7C5342;}
	.st34{fill:#724A3B;}
	.st35{fill:#FFCB7E;}
	.st36{fill:#6B4337;}
	.st37{fill:#7F5546;}
	.st38{fill:#543730;}
	.st39{fill:#8E695C;}
	.st40{fill:#474747;}
	.st41{fill:#E09A61;}
	.st42{fill:#C47947;}
	.st43{fill:#8A5D3B;}
	.st44{fill:#3B2314;}
	.st45{fill:#DC2428;}
	.st46{fill:#E2DCDC;}
	.st47{fill:#BD1F22;}
	.st48{fill:none;}
</style>
<g>
	<g>
		<defs>
			<path id="SVGID_1_" d="M72.2,593.9c-6.4-30.3-4-80.8,26.8-110.1c92-87.6,179.6-9.5,197.2-104c16.2-87.1,77.7-171.7,189.7-144.5
				c143.8,35,127.9,134.2,198.5,126.7c70.6-7.4,191.4-62.9,213.2,42.2S817.1,599.4,882.3,592c9.4,0.6,36,3.4,45.2,21
				c10.1,19.4-6.5,45.5-13.2,56c-43.6,68.6-309.9,168.6-613.3,78.7C218.1,723.2,91.4,683.9,72.2,593.9z"/>
		</defs>
		<clipPath id="SVGID_00000107574950478867064620000001096304753427257505_">
			<use xlink:href="#SVGID_1_"  style="overflow:visible;"/>
		</clipPath>
		<path style="clip-path:url(#SVGID_00000107574950478867064620000001096304753427257505_);fill:#F2D7B9;" d="M939.5,697.1
			c-4.2,15.8-11.5,30.4-21.1,43.2c-23.3,30.9-60.6,50.9-102.3,50.9H306c-52.1,0-100.9-16.9-140.6-45.9
			c-17.1-12.5-32.5-27.2-45.7-43.8c-24.1-30.4-41-67-47.5-107.5c-6.9-42.4-2-82.7,26.8-110.1c92-87.6,179.6-9.5,197.2-104
			c16.2-87.1,77.7-171.7,189.7-144.5c143.8,35,127.9,134.2,198.5,126.7c70.6-7.4,191.4-62.9,213.2,42.2s-80.5,195.2-15.3,187.8
			c45.2,5.1,60.2,34.4,61.3,69C944,673.6,942.5,685.7,939.5,697.1z"/>
	</g>
	<g>
		<defs>
			<path id="SVGID_00000060002839587496358540000004562613682274293949_" d="M72.2,593.9c-6.4-30.3-4-80.8,26.8-110.1
				c92-87.6,179.6-9.5,197.2-104c16.2-87.1,77.7-171.7,189.7-144.5c143.8,35,127.9,134.2,198.5,126.7
				c70.6-7.4,191.4-62.9,213.2,42.2S817.1,599.4,882.3,592c9.4,0.6,36,3.4,45.2,21c10.1,19.4-6.5,45.5-13.2,56
				c-43.6,68.6-308.5,174.8-611.9,84.9C219.5,729.4,91.4,683.9,72.2,593.9z"/>
		</defs>
		<clipPath id="SVGID_00000131338362184879422660000004671472360467233455_">
			<use xlink:href="#SVGID_00000060002839587496358540000004562613682274293949_"  style="overflow:visible;"/>
		</clipPath>
		<path style="clip-path:url(#SVGID_00000131338362184879422660000004671472360467233455_);fill:#D8B182;" d="M1121.3,597.4
			c0,0-17.3,78.9-31.8,112c-35,80.1-91.1,132.1-153.9,132.1h-768c-78.4,0-152-43.8-211.7-119c-25.7-32.4-68.8-113.8-68.8-113.8
			L1121.3,597.4z"/>
	</g>
	<g>
		<defs>
			<path id="SVGID_00000154428415617362624020000003730300362621743287_" d="M72.2,593.9c-0.1-0.4-0.1-0.6-0.1-0.8
				c-1.7-9.2-11.9-72.3,26.9-109.3c92-87.6,179.6-9.5,197.2-104c16.2-87.1,77.7-171.7,189.7-144.5c143.8,35,127.9,134.2,198.5,126.7
				c70.6-7.4,191.4-62.9,213.2,42.2c21.8,105.1-80.5,195.2-15.3,187.8c8.6,0.9,30,4.2,38.8,19.8c11.2,19.8-5,46.9-12,58.8
				c-30.5,51.4-153,116.1-347.8,116.1c0,0-256.4,8.5-423.4-107.3C120.5,667.4,81,639.9,72.2,593.9z"/>
		</defs>
		<clipPath id="SVGID_00000147935174075134501870000001104824936961184142_">
			<use xlink:href="#SVGID_00000154428415617362624020000003730300362621743287_"  style="overflow:visible;"/>
		</clipPath>
		<g style="clip-path:url(#SVGID_00000147935174075134501870000001104824936961184142_);">
			<g>
				<g>
					<g class="st3">
						<g>
							<g>
								<g>
									<defs>
										<rect id="SVGID_00000069379574933122302020000004228070388719185556_" x="268.5" y="590.7" width="24" height="147.7"/>
									</defs>
									<clipPath id="SVGID_00000034810452825179406120000000540772693250748564_">
										<use xlink:href="#SVGID_00000069379574933122302020000004228070388719185556_"  style="overflow:visible;"/>
									</clipPath>
									
										<rect x="268.5" y="590.7" style="clip-path:url(#SVGID_00000034810452825179406120000000540772693250748564_);fill:#281010;" width="24" height="147.7"/>
								</g>
							</g>
						</g>
					</g>
				</g>
				<g>
					<g class="st3">
						<g>
							<g>
								<g>
									<defs>
										<rect id="SVGID_00000142136451127482463640000013807419481676910733_" x="694.7" y="590.7" width="24" height="147.7"/>
									</defs>
									<clipPath id="SVGID_00000047763236653556887770000002372952934869737615_">
										<use xlink:href="#SVGID_00000142136451127482463640000013807419481676910733_"  style="overflow:visible;"/>
									</clipPath>
									
										<rect x="694.7" y="590.7" style="clip-path:url(#SVGID_00000047763236653556887770000002372952934869737615_);fill:#281010;" width="24" height="147.7"/>
								</g>
							</g>
						</g>
					</g>
				</g>
				<g>
					<rect x="353.8" y="396.4" class="st6" width="3.1" height="198"/>
				</g>
				<g>
					<path class="st6" d="M353.8,405.8v6.7l3.1-1.2v-13C356.9,398.2,356.1,402.5,353.8,405.8"/>
				</g>
				<g>
					<path class="st6" d="M356.9,398.2c0,0-1.5,6.3-12.8,24.4s-29,52.9-10.9,89.9c5,10.8,14.2,46.1-8.8,74.6h35.9
						c0,0,18.5-44.3,5-93.1C351.7,445.2,360.1,409.1,356.9,398.2"/>
				</g>
				<g>
					<path class="st6" d="M354,387.8l-1.6,4.6c-0.7,2,0.8,4.2,3,4.2s3.7-2.1,3-4.2l-1.6-4.6C356.3,386.5,354.4,386.5,354,387.8"/>
				</g>
				<g>
					<rect x="356.7" y="396.4" class="st7" width="3.1" height="198"/>
				</g>
				<g>
					<path class="st8" d="M356.7,405.8v6.7l3.1-1.2v-13C359.8,398.2,358.9,402.5,356.7,405.8"/>
				</g>
				<g>
					<rect x="356.7" y="396.4" class="st8" width="3.1" height="1.5"/>
				</g>
				<g>
					<path class="st9" d="M359.8,398.2c0,0,0.3,6.3-11,24.4s-21.7,52.9-3.6,89.9c5,10.8,12.7,46.1-10.4,74.6h28.5
						c0,0,18.5-44.3,5-93.1C354.6,445.2,362.9,409.1,359.8,398.2"/>
				</g>
				<g>
					<path class="st10" d="M345.1,512.6c-0.7-1.4-1.4-2.9-2-4.3c2,2.8,7.4,10.5,10.3,14.7c3.4,5,21.5,33.5-4.9,64.1h-13.8
						C357.8,558.6,350.1,523.4,345.1,512.6"/>
				</g>
				<g>
					<path class="st11" d="M372.6,518.5c-7-11.2-18.3-17.3-24.2-26.1c-10-14.9-5.9-38,2.5-55.8c6-12.8,8.6-26.3,9.6-32.9
						c0.6,15-4.1,47.9,7.7,90.3C370.5,502.4,371.9,510.6,372.6,518.5"/>
				</g>
				<g>
					<path class="st7" d="M356.9,387.8l-1.6,4.6c-0.7,2,0.8,4.2,3,4.2s3.7-2.1,3-4.2l-1.6-4.6C359.2,386.5,357.3,386.5,356.9,387.8"
						/>
				</g>
				<g>
					<path class="st12" d="M354.9,393.7c5-0.2,3.9-5.8,3.5-7.6c-0.5,0-0.9,0.2-1.1,0.8l-2.2,6.5
						C354.9,393.5,354.9,393.6,354.9,393.7"/>
				</g>
				<g>
					<rect x="632.2" y="396.4" class="st6" width="3.1" height="198"/>
				</g>
				<g>
					<path class="st6" d="M635.2,405.8v6.7l-3.1-1.2v-13C632.2,398.2,633,402.5,635.2,405.8"/>
				</g>
				<g>
					<path class="st6" d="M632.2,398.2c0,0,1.5,6.3,12.8,24.4s29,52.9,10.9,89.9c-5,10.8-14.3,46.1,8.8,74.6h-35.9
						c0,0-18.5-44.3-5-93.1S629,409.1,632.2,398.2"/>
				</g>
				<g>
					<path class="st6" d="M635.1,387.8l1.6,4.6c0.7,2-0.8,4.2-3,4.2s-3.7-2.1-3-4.2l1.6-4.6C632.8,386.5,634.6,386.5,635.1,387.8"/>
				</g>
				<g>
					<rect x="629.3" y="396.4" class="st7" width="3.1" height="198"/>
				</g>
				<g>
					<path class="st8" d="M632.3,405.8v6.7l-3.1-1.2v-13C629.3,398.2,630.1,402.5,632.3,405.8"/>
				</g>
				<g>
					<rect x="629.3" y="396.4" class="st8" width="3.1" height="1.5"/>
				</g>
				<g>
					<path class="st13" d="M629.3,398.2c0,0-0.3,6.3,11,24.4s21.7,52.9,3.6,89.9c-5,10.8-12.7,46.1,10.4,74.6h-28.5
						c0,0-18.5-44.3-5-93.1S626.1,409.1,629.3,398.2"/>
				</g>
				<g>
					<path class="st14" d="M643.9,512.6c0.7-1.4,1.4-2.9,2-4.3c-2,2.8-7.4,10.5-10.3,14.7c-3.4,5-21.5,33.5,4.9,64.1h13.8
						C631.3,558.6,639,523.4,643.9,512.6"/>
				</g>
				<g>
					<path class="st15" d="M616.5,518.5c7-11.2,18.3-17.3,24.2-26.1c10-14.9,5.9-38-2.5-55.8c-6-12.8-8.6-26.3-9.6-32.9
						c-0.6,15,4.1,47.9-7.7,90.3C618.5,502.4,617.2,510.6,616.5,518.5"/>
				</g>
				<g>
					<path class="st7" d="M632.2,387.8l1.6,4.6c0.7,2-0.8,4.2-3,4.2s-3.7-2.1-3-4.2l1.6-4.6C629.9,386.5,631.7,386.5,632.2,387.8"/>
				</g>
				<g>
					<path class="st12" d="M634.2,393.7c-5-0.2-3.9-5.8-3.5-7.6c0.5,0,0.9,0.2,1.1,0.8l2.2,6.5C634.1,393.5,634.2,393.6,634.2,393.7
						"/>
				</g>
				<path class="st16" d="M550.3,594H434.2l-5.7-82.6c-1.2-17.8,12.9-32.9,30.8-32.9h65.9c17.9,0,32,15.1,30.8,32.9L550.3,594z"/>
				<g>
					<path class="st17" d="M428.7,514.9c2.2-14.8,14.9-26.4,30.6-26.4h65.9c15.6,0,28.4,11.6,30.6,26.4l0.2-3.6
						c1.2-17.8-12.9-32.9-30.8-32.9h-65.9c-17.9,0-32,15.1-30.8,32.9L428.7,514.9z"/>
					<g>
						<g>
							<g>
								<g id="XMLID_00000154399475662638998950000016484416445643717560_">
									<path class="st18" d="M520.1,498.6c0,7.2-10.7,13-23.8,13s-23.3-4.7-23.3-11.9c0-4.2,6.4-7.8,12.9-9.9v-21.5h20.8v21.5
										C513.2,491.8,520.1,494.4,520.1,498.6z"/>
									<path class="st19" d="M506.7,468.2v18.6c-2.1,0.9-6.2,2.2-11.5,1.8c-4.2-0.3-7.4-1.6-9.4-2.6v-17.8H506.7z"/>
									<path class="st20" d="M496.6,575.2c0,0-31-62.2-26.3-75.2c1.5-5.6,10.7-8.9,10.7-8.9s7.2,4,15.6,4c8.5,0,15.6-4,15.6-4
										s8.4,5.5,9.9,11C526.8,515,496.6,575.2,496.6,575.2z"/>
									<g>
										<polygon class="st21" points="507.6,486.4 496.6,495 503.9,506.4 512.2,491 										"/>
										<polygon class="st21" points="485.6,486.4 496.6,495 489.3,506.4 481,491 										"/>
									</g>
									<path class="st22" d="M499,598c0,1.3-1.1,2.4-2.4,2.4s-2.4-1.1-2.4-2.4s1.1-2.4,2.4-2.4C498,595.5,499,596.6,499,598z"/>
									<path class="st22" d="M499,622.9c0,1.3-1.1,2.4-2.4,2.4s-2.4-1.1-2.4-2.4s1.1-2.4,2.4-2.4C498,620.5,499,621.6,499,622.9z"
										/>
									<g>
										<g>
											<g>
												<path class="st23" d="M538.1,500.3c4.1,0,8.2,0.9,10.8,3.1c2.6,2.3,3.9,5.1,5.2,7.9c8.9,19.7,17.8,39.3,26.7,59
													c-1.7,1.1-3.7,2-5.8,2.6c0.3,0.8,0.5,1.6,0.8,2.4c-3.4,1.2-5.2,2-10.6,3.3c-2.5,0.6-6.3,0.4-8.9,0.6l0.2,1.1
													c-5,0.2-10,0.2-15-0.2c0,0-6.6-48.1-10.7-58.7C526.6,510.7,534,500.3,538.1,500.3z"/>
												<path class="st24" d="M556.3,579.1c0.5,0,1,0,1.6-0.1c-1-2-3.4-6-3.4-6S555.9,577.1,556.3,579.1z"/>
												<path class="st24" d="M576.8,572.3c-2.2-2.5-6.9-7.4-6.9-7.4s3.6,5.5,5.2,8.3c0-0.1-0.1-0.2-0.1-0.3
													C575.6,572.7,576.2,572.5,576.8,572.3z"/>
												<path class="st24" d="M536.3,529c-0.6-3.7,0.9-9.8,1.2-11.5c0.6-3.9-4.3-5.3-7.4-7.4c-0.9,3.4-1,7.3,0.6,11.2
													c4.1,10.6,10.7,58.7,10.7,58.7c2.6,0.2,5.2,0.3,7.7,0.3c-1.1-1-2-2.4-2.4-4C541.7,559.6,536.9,532.7,536.3,529z"/>
											</g>
										</g>
										<g>
											<g>
												<path class="st23" d="M455.2,500.3c-4.1,0-8.2,0.9-10.8,3.1c-2.6,2.3-3.9,5.1-5.2,7.9c-8.9,19.7-17.8,39.3-26.7,59
													c1.7,1.1,3.7,2,5.8,2.6c-0.3,0.8-0.5,1.6-0.8,2.4c3.4,1.2,5.2,2,10.6,3.3c2.5,0.6,6.3,0.4,8.9,0.6l-0.2,1.1
													c5,0.2,10,0.2,15-0.2c0,0,6.6-48.1,10.7-58.7C466.6,510.7,459.2,500.3,455.2,500.3z"/>
												<path class="st24" d="M436.9,579.1c-0.5,0-1,0-1.6-0.1c1-2,3.4-6,3.4-6S437.3,577.1,436.9,579.1z"/>
												<path class="st24" d="M416.4,572.3c2.2-2.5,6.9-7.4,6.9-7.4s-3.6,5.5-5.2,8.3c0-0.1,0.1-0.2,0.1-0.3
													C417.6,572.7,417,572.5,416.4,572.3z"/>
												<path class="st24" d="M456.9,529c0.6-3.7-0.9-9.8-1.2-11.5c-0.6-3.9,4.3-5.3,7.4-7.4c0.9,3.4,1,7.3-0.6,11.2
													c-4.1,10.6-10.7,58.7-10.7,58.7c-2.6,0.2-5.2,0.3-7.7,0.3c1.1-1,2-2.4,2.4-4C451.5,559.6,456.3,532.7,456.9,529z"/>
											</g>
										</g>
										<g>
											<g>
												<path class="st23" d="M545.5,648c-0.7-1.1-6.6-112.2-6.5-121.8c0-4.4,8.2-19.8,5.2-23.7c-3-3.9-26.1-9.1-29.9-10
													c-0.3-0.1-0.1,8.5-0.1,19.7c0,8.6-14.9,15.9-18.6,15.9c-3.8,0-18.6-6.9-18.6-15.7c0-11,0.3-19.5,0-19.4
													c-3.2,0.9-25.4,6.2-28,9.6c-3.1,3.9,5.2,19.4,5.2,23.7c0.1,9.7-5.8,120.8-6.5,121.8c-1.8,2.7,5.8,4,11.2,4.1
													c0,0,23.4,2.1,36.4,2.1c13.1,0,39-2.1,39-2.1C539.7,652,547.3,650.7,545.5,648z"/>
											</g>
											<g>
												<path class="st25" d="M502.8,525.5H539c0.7-5.1,8-19.3,5.1-23c-3-3.9-26.1-9.1-29.9-10c-0.3-0.1-0.1,8.5-0.1,19.7
													C514.2,517.8,508.2,522.7,502.8,525.5z"/>
												<path class="st25" d="M488.1,525.5c-5.3-2.8-11.2-7.6-11.2-13.2c0-11,0.3-19.5,0-19.4c-3.2,0.9-25.4,6.2-28,9.6
													c-2.9,3.7,4.4,18,5.1,23H488.1z"/>
											</g>
											<polygon class="st24" points="496.4,654.2 496.1,528.1 494.9,528.1 495.7,654.2 											"/>
											<polygon class="st24" points="480.6,525.5 482,525.5 480.4,640 											"/>
											<polygon class="st24" points="464.2,525.5 465.6,525.5 464,626.1 											"/>
											<polygon class="st24" points="527.9,525.5 529.2,525.5 527.7,630.7 											"/>
											<polygon class="st24" points="511.5,525.5 512.8,525.5 511.3,626.1 											"/>
										</g>
									</g>
								</g>
								<g id="XMLID_00000154427959328100708610000001670688209716795272_">
									<g>
										<g>
											<path class="st18" d="M528.4,451.8c-0.1,1.6-0.4,4.4-2.4,7.6c-1.2,2-4.1,6-5.4,5.4c-1.1-0.5-0.5-3.9,0.6-10.2
												c0.8-4.3,1.5-6.3,3.2-7.3c0.2-0.1,1.6-1,2.7-0.4C528.6,447.7,528.5,450.3,528.4,451.8z"/>
											<path class="st18" d="M464.8,450c-0.2,0.7-0.5,2.7,1.4,6.7c0.3,0.7,4,8,6.2,7.3c2.2-0.7,1.2-8.7,0.9-10.3
												c-0.7-5.4-2.3-6.6-3-7c-0.3-0.2-1.4-0.7-2.7-0.4C465.6,446.8,465,449.6,464.8,450z"/>
										</g>
										<path class="st18" d="M495,485.9c-1.2-0.1-2.5-0.1-4-0.4c-5.4-1.2-8.9-5.1-10.6-7.1c-2.2-2.5-3.4-4.9-4.1-6.4
											c-5.5-11.4-5.7-24.6-5.4-31.1c0,0,0.5-15.5,6.3-19.6c0.5-0.4,0.9-0.6,1.6-1c2.6-1.2,5.9-1.3,17.2-3.3
											c12.1-2.2,15-3.4,17.5-3c0.6,0.1,0.9,0.2,1.3,0.4c7.1,2.8,7.5,16.5,7.8,25.7c0.2,7,0.6,22.8-6.3,32.5
											c-1.2,1.7-3.3,4.1-5.3,6.2c-3.8,3.8-5.7,5.8-8.8,6.6C499.6,486.1,496.8,486,495,485.9z"/>
									</g>
								</g>
							</g>
							<path class="st26" d="M520.6,457.3c-0.7-0.2,2.9-7.4,0.1-15.1c-0.4-1.1-2.2-3.4-3.3-7.2c-0.3-1.1-0.5-2-0.6-2.6
								c-1-0.4-2.6-1.1-4.7-1.8c-9.9-3.1-19-2-27.8-0.8c-1.8,0.2-4.4,0.6-7.7,1.3c0.5,1.9,0.3,3.4,0.1,4.2c-0.3,1.2-0.9,2.2-1.5,3.3
								c-0.6,1-1,1.7-1.1,1.8c-2.4,3.5-1.8,16.9-2.2,16.9c-0.1,0-0.2-0.4-0.6-1.9c-0.3-1.3-0.7-2.3-0.8-2.9c-0.3-2-1.3-2.1-2.1-4.1
								c-0.4-1-0.6-1.9-0.7-2.5c0.1-1.2,0.1-2.9,0.2-5.1c0.5-11.3,0.4-12.3,0.9-14.5c0.6-3.2,1.5-7.4,4.7-11.1
								c3.6-4.1,8.1-5.4,12.7-6.7c4.7-1.4,8.5-1.5,12-1.6c5.5-0.2,8.2-0.3,11.3,0.8c6.3,2.2,9.6,7.5,10.7,9.4
								c0.2-0.1,0.5-0.3,0.9-0.4c2.2-0.4,5,2.8,6.2,5.7c1,2.5,0.4,6.5-0.8,14.6c-0.1,0.5-0.4,2.2-0.7,4.4c-0.5,3.3-0.8,4.9-0.9,5.3
								C523.7,452.2,521.3,457.5,520.6,457.3z"/>
						</g>
						<path class="st26" d="M488.9,449.3c0.1,0.2,0.3,0.5,0.4,0.9c0.1,0.7-0.1,1.2-0.2,1.4c-1.1-0.1-2.3-0.3-3.5-0.4
							c-0.3,0-2.2-0.2-3.7-0.2c-1.7-0.1-4.3-0.1-7.7,0.3c1.4-0.8,1.2-2.1,4.3-2.6C481.9,448.2,487.2,448.9,488.9,449.3z"/>
						<path class="st26" d="M510,448.8c3,0.5,2.5,1.5,3.9,2.3c-3.4-0.4-6-0.4-7.6-0.3c-1.6,0.1-3.4,0.2-3.7,0.2
							c-1.2,0.1-2.3,0.2-3.4,0.4c-0.1-0.2-0.3-0.7-0.2-1.4c0.1-0.4,0.3-0.7,0.4-0.9C501,448.7,506.6,448.3,510,448.8z"/>
						<g>
							<g>
								<path class="st21" d="M486.4,458.3c-0.4,0.4-1.6,1.3-3.2,1.5c-2.6,0.3-4.4-1.3-4.7-1.6c0.1-0.1,1.4-2.2,4-2.2
									C485,456,486.3,458.2,486.4,458.3z"/>
							</g>
							<g>
								<path d="M486.4,458.3c-0.4-0.4-1.8-1.3-3.9-1.4c-2.1-0.1-3.6,0.9-4.1,1.3c0.8-1.4,2.4-2.3,4.1-2.2
									C485,456,486.3,458.2,486.4,458.3z"/>
							</g>
							<g>
								<path class="st27" d="M482.9,456.9c-0.6-0.1-1.1,0-1.5,0c-0.6,0.8-0.4,1.9,0.3,2.5c0.7,0.5,1.6,0.4,2.2-0.2
									c0.5-0.5,0.6-1.4,0.2-2C483.8,457.1,483.4,457,482.9,456.9z"/>
							</g>
							<g>
								<path d="M482.7,457.5c-0.4,0-0.7,0.2-0.8,0.6c-0.1,0.5,0.1,0.9,0.4,1.1c0.5,0.2,1.2-0.1,1.2-0.7
									C483.6,458,483.2,457.5,482.7,457.5z"/>
							</g>
							<g>
								<path class="st28" d="M482.3,457.5c-0.1,0-0.2,0.1-0.3,0.2c0,0.1,0,0.3,0.2,0.3c0.1,0.1,0.3,0,0.4-0.2
									C482.5,457.6,482.4,457.5,482.3,457.5z"/>
							</g>
						</g>
						<g>
							<g>
								<path class="st21" d="M505.6,456.1c1.3-0.1,2.2,0.4,2.6,0.6c1,0.5,1.5,1.2,1.7,1.6c-0.3,0.3-2.2,2-4.8,1.7
									c-1.8-0.2-3-1.2-3.4-1.6C501.8,458.2,503.2,456.2,505.6,456.1z"/>
							</g>
							<g>
								<path d="M504.7,456.2c1.9-0.4,4,0.4,5.2,2.1c-0.5-0.3-2.2-1.5-4.7-1.3c-1.8,0.2-3.1,1-3.6,1.5
									C501.9,458.2,502.8,456.6,504.7,456.2z"/>
							</g>
							<g>
								<path class="st27" d="M503.9,457.3c-0.4,0.7-0.3,1.5,0.2,2c0.6,0.6,1.6,0.7,2.2,0.2c0.7-0.5,0.9-1.7,0.3-2.5
									c-0.4,0-0.8-0.1-1.3,0C504.7,457.1,503.9,457.3,503.9,457.3z"/>
							</g>
							<g>
								<path d="M504.6,458.6c0.1,0.5,0.7,0.7,1.1,0.6c0.3-0.1,0.5-0.5,0.5-0.9c-0.1-0.4-0.5-0.6-0.8-0.6
									C504.9,457.6,504.5,458.1,504.6,458.6z"/>
							</g>
							<g>
								<path class="st28" d="M505.5,457.9c0,0.2,0.2,0.2,0.4,0.2c0.1,0,0.2-0.2,0.2-0.3c0-0.1-0.2-0.2-0.3-0.2
									C505.6,457.6,505.5,457.8,505.5,457.9z"/>
							</g>
						</g>
						<g>
							<g>
								<g>
									<g class="st29">
										<polygon class="st28" points="489,463.7 475.4,463.7 473.9,454.8 490.5,454.8 490,458 489.9,458.5 										"/>
									</g>
									<g>
										<path class="st30" d="M489.3,464.1h-14.2l-1.6-9.7H491L489.3,464.1z M475.7,463.4h13l1.4-8.2h-15.7L475.7,463.4z"/>
									</g>
								</g>
								<g>
									<g class="st29">
										<polygon class="st28" points="512.8,463 499.2,463 497.7,454.1 514.3,454.1 										"/>
									</g>
									<g>
										<path class="st30" d="M513.1,463.4h-14.2l-1.6-9.7h17.5L513.1,463.4z M499.5,462.6h13l1.4-8.2h-15.7L499.5,462.6z"/>
									</g>
								</g>
							</g>
							<g>
								<g>
									<path class="st30" d="M490.2,458.8l-0.3-0.6c0,0,4-4.3,8.5-0.4l-0.3,0.7C494.1,455,490.4,458.6,490.2,458.8z"/>
								</g>
							</g>
							<g>
								<polygon class="st30" points="474.3,459.1 468.2,448 467.7,445.9 474.9,458.7 								"/>
							</g>
							<g>
								<polygon class="st30" points="514.1,458.3 513.6,457.7 524.9,446.1 524.7,447.2 								"/>
							</g>
						</g>
						<path class="st31" d="M489.2,475.5c0,0.4,2.5,0.8,4,1c4.2,0.5,8.2-0.5,8.1-0.9c0-0.2-1.2-0.3-2.9-0.5
							C494.3,474.8,489.3,474.9,489.2,475.5z"/>
						<g>
							<path class="st19" d="M495.4,472.1c-1.3,0-2.5-0.9-2.5-1.2c0-0.2,0.9,0.2,2.7,0.1c1.7,0,2.6-0.4,2.6-0.2
								C498.2,471,496.9,472.1,495.4,472.1z"/>
						</g>
						<path class="st32" d="M490.2,504.9c1.6,2.3,3.1,4.6,4.7,6.9c-1.9,7.2-3.7,15.7-4.6,25.4c-1.2,12.4-0.8,23.4,0.1,32.3
							c4.5,0,9.1,0.1,13.6,0.1c0.9-8.5,1.3-19.6-0.4-32.2c-1.3-10-3.6-18.6-5.9-25.6c1.8-2.1,3.7-4.3,5.5-6.4
							c-1.1-1.7-2.2-3.4-3.3-5.2c-1.1-1.7-2.2-3.5-3.4-5.2C494.5,498.3,492.4,501.6,490.2,504.9z"/>
						<path class="st26" d="M495.1,473c0,0.3,0,0.6,0,0.9c0,0.3-0.1,0.6-0.1,0.9c-1.5,0-2.7,0-3.6,0.1c-2,0.2-2.7,0.4-3.2,0.7
							c-0.7,0.3-1.2,0.7-1.5,1c0.4-0.7,0.7-1.4,1.1-2.1c0.6-0.3,1.3-0.7,2.2-1C492,472.8,493.9,472.9,495.1,473z"/>
						<path class="st26" d="M495.5,473.1c-0.1,0.3-0.1,0.7-0.1,1.1c0,0.2,0,0.3,0,0.5c1.5,0,2.8,0.1,3.8,0.2
							c1.7,0.2,2.5,0.3,3.2,0.7c0.7,0.3,1.2,0.7,1.5,1c-0.4-0.7-0.7-1.4-1.1-2.1c-0.6-0.3-1.3-0.7-2.2-1
							C498.5,472.8,496.6,472.9,495.5,473.1z"/>
					</g>
				</g>
				<g>
					<path class="st22" d="M494.1,590.4c0,1-0.8,1.9-1.9,1.9c-1,0-1.9-0.8-1.9-1.9c0-1,0.8-1.9,1.9-1.9
						C493.3,588.5,494.1,589.3,494.1,590.4"/>
				</g>
				<g>
					<path class="st22" d="M494.1,609.5c0,1-0.8,1.9-1.9,1.9c-1,0-1.9-0.8-1.9-1.9s0.8-1.9,1.9-1.9
						C493.3,607.7,494.1,608.5,494.1,609.5"/>
				</g>
				<g>
					<path class="st24" d="M538.1,575.9c0.4,0,0.8,0,1.2,0c-0.8-1.6-2.6-4.6-2.6-4.6S537.8,574.4,538.1,575.9"/>
				</g>
				<g>
					<path class="st24" d="M553.8,570.7c-1.7-1.9-5.3-5.7-5.3-5.7s2.8,4.2,4,6.4c0-0.1-0.1-0.2-0.1-0.3
						C552.9,571,553.3,570.8,553.8,570.7"/>
				</g>
				<g>
					<path class="st24" d="M446.4,575.9c-0.4,0-0.8,0-1.2,0c0.8-1.6,2.6-4.6,2.6-4.6S446.7,574.4,446.4,575.9"/>
				</g>
				<g>
					<path class="st24" d="M430.7,570.7c1.7-1.9,5.3-5.7,5.3-5.7s-2.8,4.2-4,6.4c0-0.1,0.1-0.2,0.1-0.3
						C431.6,571,431.1,570.8,430.7,570.7"/>
				</g>
				<g>
					<rect x="280.1" y="569.6" class="st33" width="429.1" height="168.8"/>
				</g>
				<g>
					<rect x="280.1" y="569.6" class="st34" width="429.1" height="19.8"/>
				</g>
				<g>
					<path class="st35" d="M484.2,595.8h-189c-2.3,0-4.2,1.9-4.2,4.2v125.3c0,2.3,1.9,4.2,4.2,4.2h189c2.3,0,4.2-1.9,4.2-4.2V600
						C488.4,597.7,486.5,595.8,484.2,595.8"/>
				</g>
				<g>
					<path class="st34" d="M479.2,600.5H299.9c-2.3,0-4.2,1.9-4.2,4.2v116c0,2.3,1.9,4.2,4.2,4.2h179.4c2.3,0,4.2-1.9,4.2-4.2v-116
						C483.4,602.3,481.5,600.5,479.2,600.5"/>
				</g>
				<path class="st35" d="M500.8,600v125.3c0,2.3,1.9,4.2,4.2,4.2h189c2.3,0,4.2-1.9,4.2-4.2V600c0-2.3-1.9-4.2-4.2-4.2H505
					C502.7,595.8,500.8,597.7,500.8,600"/>
				<g>
					<path class="st34" d="M506.1,604.6v116c0,2.3,1.9,4.2,4.2,4.2h179.1c2.3,0,4.2-1.9,4.2-4.2v-116c0-2.3-1.9-4.2-4.2-4.2H510.3
						C508,600.5,506.1,602.3,506.1,604.6"/>
				</g>
				<g>
					<path class="st36" d="M276.7,576.7v4.4c0,2.4,2,4.4,4.4,4.4h427c2.4,0,4.4-2,4.4-4.4v-4.4H276.7z"/>
				</g>
				<g>
					<path class="st36" d="M473,607.8H310.5c-2.1,0-3.8,1.7-3.8,3.8v105.1c0,2.1,1.7,3.8,3.8,3.8H473c2.1,0,3.8-1.7,3.8-3.8V611.6
						C476.8,609.5,475.1,607.8,473,607.8"/>
				</g>
				<path class="st33" d="M470.8,606.3H308.3c-2.1,0-3.8,1.7-3.8,3.8v105.1c0,2.1,1.7,3.8,3.8,3.8h162.5c2.1,0,3.8-1.7,3.8-3.8
					V610.1C474.6,608,472.9,606.3,470.8,606.3"/>
				<g>
					<path class="st37" d="M425.3,606.3h-117c-2.1,0-3.8,1.7-3.8,3.8v66.6C410.7,676.4,423.8,623.7,425.3,606.3"/>
				</g>
				<g>
					<path class="st36" d="M683.3,607.8H520.8c-2.1,0-3.8,1.7-3.8,3.8v105.1c0,2.1,1.7,3.8,3.8,3.8h162.5c2.1,0,3.8-1.7,3.8-3.8
						V611.6C687.1,609.5,685.4,607.8,683.3,607.8"/>
				</g>
				<path class="st33" d="M681.1,606.3H518.6c-2.1,0-3.8,1.7-3.8,3.8v105.1c0,2.1,1.7,3.8,3.8,3.8h162.5c2.1,0,3.8-1.7,3.8-3.8
					V610.1C684.9,608,683.2,606.3,681.1,606.3"/>
				<g>
					<path class="st37" d="M635.5,606.3h-117c-2.1,0-3.8,1.7-3.8,3.8v66.6C621,676.4,634.1,623.7,635.5,606.3"/>
				</g>
				<g>
					<path class="st38" d="M540.5,626.7h-91.7c-7.8,0-14.2-6.4-14.2-14.2s6.4-14.2,14.2-14.2h91.7c7.9,0,14.2,6.4,14.2,14.2
						C554.7,620.4,548.3,626.7,540.5,626.7"/>
				</g>
				<path class="st39" d="M551.7,612.5c0,6.3-5.1,11.5-11.5,11.5h-91.1c-5.3,0-9.7-3.5-11.1-8.4c-0.2-0.8-0.4-1.7-0.4-2.5
					c0-0.2,0-0.4,0-0.6s0-0.4,0-0.6c0.3-6.1,5.3-10.9,11.5-10.9h91.1C546.5,601,551.7,606.2,551.7,612.5z"/>
				<g>
					<path class="st38" d="M469.7,619.9V618c0.2,0,0.4,0,0.7,0c0.4,0,0.7-0.1,0.9-0.3c0.2-0.2,0.3-0.5,0.3-1v-9.9h2v9.8
						c0,2.2-1,3.3-2.9,3.3C470.3,619.9,469.9,619.9,469.7,619.9"/>
				</g>
				<g>
					<path class="st38" d="M478.2,616.8v-9.9h2v10c0,0.8,0.4,1.3,1.1,1.3s1.1-0.4,1.1-1.3v-10h2v9.9c0,1-0.3,1.8-0.8,2.4
						c-0.5,0.6-1.3,0.8-2.3,0.8s-1.8-0.3-2.3-0.8C478.5,618.6,478.2,617.8,478.2,616.8"/>
				</g>
				<g>
					<path class="st38" d="M489,619.9v-13h3.2c1,0,1.8,0.3,2.3,0.8s0.8,1.3,0.8,2.4v6.6c0,1-0.3,1.8-0.8,2.4s-1.3,0.8-2.3,0.8H489z
						 M491,618h1.2c0.3,0,0.6-0.1,0.8-0.3c0.2-0.2,0.3-0.5,0.3-1v-6.8c0-0.4-0.1-0.8-0.3-1c-0.2-0.2-0.4-0.3-0.8-0.3H491V618z"/>
				</g>
				<g>
					<path class="st38" d="M499.7,616.8V610c0-1,0.3-1.8,0.8-2.4c0.5-0.6,1.3-0.8,2.3-0.8s1.8,0.3,2.3,0.8c0.5,0.6,0.8,1.4,0.8,2.4
						v1.3h-2v-1.4c0-0.9-0.3-1.3-1-1.3c-0.8,0-1.2,0.4-1.2,1.3v7c0,0.8,0.4,1.3,1.2,1.3c0.6,0,1-0.4,1-1.3v-2.4H503v-1.9h2.9v4.1
						c0,1-0.3,1.8-0.8,2.4c-0.5,0.6-1.3,0.8-2.3,0.8s-1.8-0.3-2.3-0.8C499.9,618.6,499.7,617.8,499.7,616.8"/>
				</g>
				<g>
					<polygon class="st38" points="510.3,619.9 510.3,606.9 515.9,606.9 515.9,608.7 512.4,608.7 512.4,612.4 515.2,612.4 
						515.2,614.2 512.4,614.2 512.4,618 515.9,618 515.9,619.9 					"/>
				</g>
			</g>
			<g>
				<g>
					<g>
						<path class="st40" d="M783,1008c0.2,1.5,0.4,3,0.7,4.5c0.2,1.2,0.4,2.4,0.6,3.5c-0.1,0.5-0.2,1-0.3,1.5
							c0.5,2.5,1.1,7.6-1,13.2c-0.9,2.4-2.5,6.9-7.2,10c-1,0.7-4.9,3.1-10.3,2.9c-2.2-0.1-5.4-0.2-8.1-2.6
							c-3.9-3.5-3.4-9.2-3.3-10.1c2-0.2,22.6-2.9,27.8-17C782.4,1012.3,782.9,1010.4,783,1008z"/>
						<path class="st41" d="M757.7,1016.9c1.5-3.8,2.9-7.6,4.4-11.4c-0.3-3.9-0.7-7.8-1-11.7c6.7-0.8,13.4-1.6,20.1-2.4
							c0.2,3.6,0.4,7.2,0.7,10.7c0.3,2.1,0.5,4.6,0.5,7.4c0,2.4-0.2,4.6-0.5,6.5C773.7,1016.3,765.7,1016.6,757.7,1016.9z"/>
						<g>
							<path d="M755.9,1021c1.3-4.5,3.7-10.3,4.9-13.2c0.1-0.3,0.5-1.2,0.8-2.4c0.2-0.6,0.3-1.1,0.3-1.4c0,0.5,0.1,1,0.1,1.5
								c-0.2,0.6-0.4,1.5-0.7,2.6c-0.3,1.5-0.9,3.8-0.6,3.9c0.1,0,0.2-0.2,0.3-0.2c1.1-1.5,7.2-5.5,14.1-3.4
								c2.7,0.8,3.3,2.4,4.5,1.9c1.8-0.6,2.2-4.5,2.1-7.8c0.4,1.3,0.9,3.2,1.2,5.5c0.2,1.3,2.9,23.1-8.9,29.5
								c-6.6,3.6-16.7,1.8-19.1-2.8c-0.6-1.2-0.7-2.5-0.8-4.3C754,1027.9,754.4,1026.2,755.9,1021z"/>
						</g>
					</g>
					<g>
						<g>
							<path class="st40" d="M710.8,1040.2c4.5,4.6,17.4,1.9,23.8-5.3c2.1-2.4,3.7-5.8,6.8-12.5c0,0.1,0,0.2,0,0.3
								c0.3,0.1,0.7,0.2,1,0.2c0.3-0.8,0.6-1.6,1-2.3c0.5-1.3,1.1-2.5,1.6-3.8c-0.1-0.7-0.2-1.4-0.4-2c-0.1-1.2-0.2-2.5-0.4-3.9
								c-0.1-0.7-0.3-1.4-0.4-2c-0.5,0.9-1.2,2.1-2.1,3.6c-6.4,10.8-9.6,16.1-12.1,18.5c-3.2,3-9,5.7-20.7,4.2
								C708.9,1036.5,709.2,1038.7,710.8,1040.2z"/>
						</g>
						<path class="st41" d="M716.4,1022.1c1.9-3.7,3.7-7.5,5.6-11.2c0.6-0.8,1.2-1.9,1.6-3.2c1.3-3.7,0.6-7,0.1-8.5
							c6-1.2,12-2.3,18.1-3.5c0.4,3.5,0.8,6.9,1.2,10.4c-0.4,1.8-0.9,3.8-1.6,5.9c-1.7,4.9-4,8.9-6,11.9
							C729,1023.2,722.7,1022.7,716.4,1022.1z"/>
						<g>
							<path d="M739.3,1019.4c1.9-4.2,3.4-7.9,4.6-10.6c-0.3-1-0.5-1.9-0.6-2.5c-0.1-0.6-0.2-1-0.3-1c-0.1,0-0.2,0.8-0.3,1.6
								c-1.2,2.5-2.2,4.4-2.7,5.4c-0.2,0.3-0.6,1-1.3,1.3c-0.3,0.1-0.6,0.1-0.7,0.1c-0.5-0.1-1.9-2-2.3-2.3c0,0-2.4-2.4-8-2.3
								c-1.2,0-3.7,0.9-6.7,3.9c1.9-4.1,2.3-4.4,2.3-4.4c0,0,0,0,0,0c0,0-0.1,0-0.2,0.1c-15.7,20.7-14,26.8-14,26.8
								c3.1,4.6,13.5,4.7,19.5,0.6c1.3-0.9,2.1-1.8,3.6-3.6C734.9,1029.3,736.2,1026.4,739.3,1019.4z"/>
						</g>
					</g>
					<g>
						<path d="M743.8,510.3c-0.5,3.6-1.3,7.7-2.7,12.2c-2.6,8.5-6.4,15.2-9.6,20c-7.8,5.5-17.8,6.4-26.2,2.5
							c-9-4.2-16.4-14.2-14.6-21.3C693.2,513.6,714.4,508,743.8,510.3z"/>
						<g>
							<g>
								<g>
									<path class="st41" d="M733.7,556.8c-0.8-3.3-1.4-7.1-1.9-11.1c-0.3-2.6-0.5-5.1-0.6-7.4c-0.1-1.7-0.1-3.3-0.1-4.8
										c0-0.1,0-0.2,0-0.3c-5.3,1.1-10.8,2.3-16.5,3.8c-0.4,0.1-0.8,0.2-1.2,0.3c-4.7,1.2-9.3,2.5-13.7,3.8
										c-0.1,0-0.2,0.1-0.3,0.1c0.2,0.3,0.3,0.7,0.5,1.1c0.8,1.9,1.8,4.6,2.2,8c0.2,1.5,0.3,3.1,0.2,4.8c-0.2,3.7-1.1,6.7-1.9,8.8
										C711.5,561.4,722.6,559.1,733.7,556.8z"/>
									<path class="st42" d="M699.7,540.9c0.1,0.4,0.1,0.8,0.2,1.2c0.8,1.9,1.8,4.6,2.2,8c0.8,0.2,2,0.4,3.4,0.4
										c2.4,0.1,4.1-0.4,6.3-0.9c4.6-1,5.5-1,7-1.4c2.1-0.6,7-2.4,12.4-10.1c-0.1-1.7-0.1-3.3-0.1-4.8c-5.9,1.3-11.8,2.5-17.7,3.8
										C708.7,538.3,704.1,539.6,699.7,540.9z"/>
								</g>
								<path class="st41" d="M680.9,511.6c1.3,5.1,2.3,10.3,3.2,14.8c0.6,2.3,1.9,5.6,4.4,9.1c1,1.5,3,3.4,6.9,7.1
									c4.8,4.6,6.5,5.8,8.8,5.9c0.7,0,1,0.1,4.1-0.4c5-0.7,5.6-0.6,7.9-1.1c3.6-0.7,6.1-2.3,7.8-3.4c3.2-2,4.9-4.1,8-7.8
									c3-3.5,4.4-5.9,5.2-8c0.6-1.6,2-4.1,1.2-10.2c-0.6-4.6-1.4-10-1.9-15.4c0.5-9.9-4.8-21.6-9.4-26.7c-4-3.5-15.1,1.2-23.7,2.7
									c-8.5,1.6-20.2,1.1-22.7,5.7c-0.8,3.3-1.5,7.6-1.6,12.6C679.1,502.7,680,507.8,680.9,511.6z"/>
								<g>
									<path class="st21" d="M710.5,509.4c1,0.5,2.9,1.3,5.3,1.2c4.1-0.1,6.7-2.6,7.4-3.3c-1.6-1.3-3.3-2-5-2.3
										c-0.7-0.1-1.7-0.3-2.8,0C712.3,505.7,710.8,508.7,710.5,509.4z"/>
									<path class="st43" d="M712,507.8c0.3,1.7,2.3,2.9,4,2.6c1.8-0.3,3.3-2.2,2.8-4c-0.2-0.6-0.5-1.1-1-1.4
										c-0.6-0.1-1.1-0.1-1.7-0.1c-0.6,0.1-1.3,0.3-1.8,0.6c-0.3,0.2-0.6,0.3-0.9,0.5c-0.6,0.4-1.1,0.9-1.5,1.4
										C712,507.6,712,507.7,712,507.8z"/>
									<path d="M717.2,507.2c0.1,1.1-0.6,2-1.6,2c-1,0-1.9-0.8-2-1.8c-0.1-1,0.6-2,1.6-2C716.1,505.3,717.1,506.1,717.2,507.2z"/>
									<path class="st21" d="M717.8,506.5c0,0.4-0.2,0.8-0.6,0.8c-0.4,0-0.7-0.3-0.8-0.7c0-0.4,0.2-0.8,0.6-0.8
										C717.4,505.7,717.8,506,717.8,506.5z"/>
									<path class="st44" d="M705.4,501.9c3.3-2.9,8-6.1,13.8-8.5c1.1-0.4,3.2-0.6,4.5,0.7c0.9,0.8,1,2.1,0.9,2.7
										c-0.9-0.1-2.2-0.1-3.8,0.2c-2,0.3-3.9,1-7.8,3.4c-1.8,1.1-4,2.5-6.3,4.3c-0.2-0.2-0.4-0.5-0.5-0.8
										C705.7,503.1,705.5,502.4,705.4,501.9z"/>
									<path class="st44" d="M710.5,509.4c0.4-0.7,1.9-2.8,4.6-3.7c4.2-1.4,7.8,1.3,8.1,1.6c-3.1-3.1-7.2-3.8-10-2.1
										C711.4,506.5,710.7,508.6,710.5,509.4z"/>
								</g>
								<g>
									<path class="st21" d="M697.2,511.3c-0.6,0.6-4.4,3.8-9.2,2.9c-1.4-0.3-2.6-0.8-3.4-1.4c0.9-1.5,2.2-2.7,3.6-3.5
										c1.4-0.8,3-1.1,4.6-0.8c0.5,0.1,0.9,0.2,1.1,0.3C695.6,509.4,696.7,510.6,697.2,511.3z"/>
									<path class="st43" d="M693.7,510.7c0.3,1.9-1.4,3.5-3.1,3.7c-1.8,0.1-3.7-1.3-3.9-3.2c0-0.6,0.1-1.2,0.4-1.6
										c1.4-0.8,3-1.1,4.6-0.8c0.4,0.1,0.7,0.2,1.1,0.3C693.3,509.5,693.6,510.1,693.7,510.7z"/>
									<path d="M687.7,511.5c0.3,1.1,1.3,1.8,2.2,1.6c1-0.2,1.6-1.3,1.3-2.3c-0.3-1.1-1.3-1.8-2.2-1.6
										C688,509.4,687.4,510.4,687.7,511.5z"/>
									<path class="st21" d="M690.4,510.5c0.1,0.4,0.5,0.7,0.8,0.6c0.4-0.1,0.6-0.5,0.5-0.9c-0.1-0.4-0.5-0.7-0.8-0.6
										C690.5,509.7,690.3,510.1,690.4,510.5z"/>
									<path class="st44" d="M697.5,502.5c-3.4-1.6-7.6-2.9-11.9-3.1c-0.8,0-2.1,0.5-2.7,1.8c-0.4,0.9-0.3,1.8-0.2,2.4
										c0.5-0.3,1.4-0.6,2.4-0.8c1.4-0.3,2.8-0.3,6,0.6c1.6,0.4,3.6,1.1,6,2.1c0.1-0.3,0.2-0.6,0.3-0.9
										C697.5,503.7,697.5,503,697.5,502.5z"/>
									<path class="st44" d="M697.2,511.3c-0.3-0.3-3.4-2.9-7.5-2.1c-3.1,0.7-4.8,3-5.2,3.5c0.2-0.7,1-3.1,3.4-4.3
										C690.7,507.1,694.6,508.2,697.2,511.3z"/>
								</g>
								<path d="M676.5,474.2c2.9-3.2,10.9-11.2,24-13.9c4.2-0.9,19.6-4.3,32,5.7c14.6,11.8,12.8,32.2,12.6,33.3
									c-0.1,5.5-0.9,13.4-4.4,22.1c-1.7,4.1-3.6,7.6-5.4,10.4c0.4-1.1,0.9-2.7,1.2-4.8c0.3-2.2,0.2-3.8,0-6.1
									c-0.2-1.9-0.4-4.9-0.7-9.1c-0.6-0.1-2.4,0.5-2.4-0.1c-0.4-6.2-1.6-9.9-2.8-12.5c-1.5-3.1-3.2-4.4-4.8-8.2
									c-1.5-3.5-1.8-6.6-1.9-8.7c-4.8-1.6-13.9-3.9-25-2.2c-7,1.1-12.5,3.5-16.2,5.5c0.7,4.8,0.3,8.5-0.2,10.9
									c-0.8,3.8-2.2,6.4-2,10.8c0.1,2.3,0.6,4.2,0.9,5.3c-1.2-3-2.2-6.2-3.1-9.9C675.3,491.5,675.6,481.5,676.5,474.2z"/>
								<g>
									<g>
										<path class="st42" d="M699.6,525.8c0,0.2,0.9,0.4,2.8,0.9c1.7,0.5,3.6,0.3,5.1-0.7c1.7-0.9,2.5-1.5,2.4-1.6
											c-0.1-0.2-1.5,0.2-4.2,1.2c-0.5,0.1-1.1,0.2-1.6,0.2C701.1,525.5,699.6,525.6,699.6,525.8z"/>
									</g>
								</g>
								<g>
									<path class="st42" d="M706.3,535.3c4.9-0.5,7.5,0,7.5-0.4c0.1-0.4-3.5-1.9-7.5-1.5c-3.8,0.4-6.9,2.4-6.7,2.8
										C699.6,536.5,701.8,535.7,706.3,535.3z"/>
								</g>
								<g>
									<path class="st42" d="M703.6,540.3c0,0.4,1.9,1.1,3.7,0.8c1.9-0.2,3.6-1.4,3.5-1.8c-0.1-0.5-2.4-0.2-3.6,0
										C705.8,539.6,703.6,539.9,703.6,540.3z"/>
								</g>
							</g>
							<g>
								<polygon class="st44" points="702.6,528.7 703.3,530.8 692.6,534.2 								"/>
								<polygon class="st44" points="706.5,528.1 706.3,530.3 719.7,531.7 								"/>
							</g>
							<g>
								<path d="M676.3,484.1c21.9-2.4,43.4-4.8,64.5-7.2c-1.1-7.4-2.2-14.9-3.3-22.3c-20.6,2-41.5,4-62.7,6.1
									C675.3,468.5,675.8,476.3,676.3,484.1z"/>
								<g>
									<path class="st45" d="M774.9,470.4l-2.5-6.3c0,0-0.3,0.1-1,0.4l0,0c-0.7,0.2-1.8,0.6-3.2,1.1l0,0
										c-2.8,0.9-7.1,2.2-12.7,3.6l0,0c-11,2.8-27.2,6.2-47.6,8.7l0,0c-20,2.4-36.4,3.1-63.5,2.3l0,0l-0.3,6.3
										c27.4,0.9,44.1,0.4,64.5-2.1l0,0C750.6,479.4,774.6,470.5,774.9,470.4L774.9,470.4z"/>
								</g>
							</g>
							<g>
								<path class="st41" d="M734.3,503.8c-0.1-1.8,1.4-3.5,3.4-3.4c4.7,0.3,3.2,10.6,2.1,14.7c-0.5,1.8-0.6,6.5-4.2,6.3
									L734.3,503.8z"/>
							</g>
						</g>
					</g>
					<g>
						<path class="st41" d="M830,790.8c0,0.6,0.1,1.1,0.1,1.7l0,0.1c0.1,2.6,0,5.3,0.1,8.1l0,0c0,0,0.1,2.9-1,9.1
							c-0.1,0.8-0.4,2.2-1.5,3.5c-0.3,0.3-0.5,0.6-0.7,0.7c0,0,0,0,0,0c-0.1,0.1-0.3,0.2-0.4,0.3c0,0.1-0.1,0.2-0.1,0.4
							c-0.3,1.2-1.2,3.9-3.9,4.4c-0.7,0.1-1.6-0.2-2.2-0.5c-1,2.5-2.5,3-3.7,2.6c-1.1-0.4-1.8-1.6-2-2c-0.7,0.1-1.7,0.2-2.5-0.5
							c-1.8-1.4-1.5-4.7-2.1-11.5c-0.1-1.3-0.7-5.5-1.8-13.7c0-0.2-0.1-0.4-0.1-0.5c0-0.2-0.1-0.3-0.1-0.5c-0.2-1.4-0.4-2.8-0.6-4.2
							c-1.3,4.8,0,12.3-4.1,13.6c0,0,0,0,0,0c0,0-0.1,0-0.1,0c-0.1,0-0.2,0.1-0.3,0.1c-0.1,0-0.1,0-0.2,0c-0.1,0-0.3,0-0.5,0
							c0,0,0,0,0,0c-0.2,0-0.3,0-0.4-0.1c-0.1,0-0.1-0.1-0.2-0.1c-0.1-0.1-0.2-0.1-0.3-0.2c0,0,0-0.1-0.1-0.1
							c-0.1-0.1-0.1-0.1-0.1-0.2c-0.1-0.1-0.1-0.3-0.2-0.4c0-0.1,0-0.3,0-0.4c1-10.1-1.1-15.2,0.2-19.8c3.6-5.5,5.8-9.3,6.2-13.6
							c0.3-3.9-1-6.8-1.5-8c-4.8-12.3-8.7-30.6-14.5-58.3c-1.8-8.5-2.7-12.8-2.8-13.5c-1.2-5.7-1.2-5.9-1.8-8.6
							c-4.6-18.7-10.1-33.4-14-43c-3.9,10.1-8.2,25.1-9.1,43.6c-1,21.8,3.3,39.3,7,50.2c-10.7,3-24.2,5.9-39.9,7.1
							c-15.3,1.1-28.7,0.3-39.4-1c2.2-13.4,3.8-33.4-0.6-56.7c-0.2-0.9-1.4-6.3-3.1-13.2c-1.3-5.5-2.5-10.5-3.6-14.6
							c-0.7-2.7-1.3-5-1.8-7c-0.2,1.7-0.4,3.3-0.6,4.9l-27.5-23.8c0.7-9.6,1.5-16.3,1.9-19.5c1-8.8,2.1-16,2.9-20.8
							c4.5-2.7,9-5.5,13.6-8.3c8.1-5,16-10.1,23.9-15.1c0.6-1,1.2-2,1.8-3l18.3,3.1c6.9-2.2,13.8-4.5,20.6-6.7
							c9.6,2,20,4.7,31.1,8.2c7.3,2.3,14.1,4.8,20.5,7.4c5.5,9.1,8.4,17,10.1,22.6c0.9,3,3,12.9,6.6,32.6c2.6,14.5,4.3,18.6,6.6,28
							c0,0,1.1,4.6,2.4,11c6.9,34.5,7.5,72.2,7.5,72.2c0.1,6.2,0.1,15-0.3,25.8c1.1,2.3,2.3,4.4,3.4,6.5c2.4,4.3,3.9,9,4.3,14
							C829.6,785.4,829.8,788.1,830,790.8z"/>
						<g>
							<path class="st42" d="M750.5,566.1c-5.9-4.9-21.8-0.6-27.4,5.7L750.5,566.1z"/>
							<path class="st42" d="M687.1,575.6c4.2-6,18.7-6.6,24.7-2.2L687.1,575.6z"/>
							<path class="st42" d="M827.2,813.5c1.9-5.1,2-13.3,0.1-20.1c0.5,3.6,0.7,8,0.4,12.8c-0.2,3.1-0.7,5.8-1.2,8.2L827.2,813.5z"
								/>
							<path class="st42" d="M820.4,818.3c3.7-6.1,3.6-20.5-0.2-29c1,4,1.9,9.4,1.9,15.6C822.1,810.6,821.3,815.1,820.4,818.3z"/>
							<path class="st42" d="M814.8,818.9c3.4-5.8,2.5-20.6,0.2-28.4c0.9,5.3,1.5,11.8,1.1,18.9C815.8,813,815.3,816.2,814.8,818.9z
								"/>
						</g>
						<g>
							<path class="st21" d="M797.3,746.3c4.5,5.2,19.7,6.9,23.3,2.3c16.6-5.6,8-21.8-0.6-75.7c-9.1-56.9-19.4-119.8-39-105.5
								l-8.4,68.7C772.5,636.2,780.4,743.6,797.3,746.3z"/>
							<path class="st21" d="M792.1,765.5c0,0,41.5,8.1,45.1-3.1c1.8-5.7-15.3-21.1-15.3-21.1l-23.5,0.5L792.1,765.5z"/>
							<g>
								<path class="st21" d="M714.7,554.5c1.5-1.9,3.7-2.6,9.8-4.2c3.4-0.9,7.8-1.9,12.9-2.9c0.3,2.3,0.6,4.7,0.9,7
									c-8.3,1.9-16.6,3.8-24.9,5.7C713.2,558.7,713.1,556.4,714.7,554.5z"/>
								<path class="st21" d="M711.3,555.2c-1.4-1.1-3.1-1.2-5.7-1.4c-1.8-0.2-4.6-0.2-7.9,0.4c-0.4,2.4-0.7,4.7-1.1,7.1
									c5.6-0.3,11.3-0.7,16.9-1C713.5,559.4,713.4,556.8,711.3,555.2z"/>
							</g>
							<path class="st21" d="M767.3,688c-15.1,1.2-30,2.3-44.9,3.4c-2.9-43.9-5.8-87.8-8.7-131.8c8.2-1.7,16.4-3.5,24.6-5.2
								c1.2,0.3,2.4,0.6,3.7,0.9c9.7,19,19.3,38.1,29,57.2C769.7,637.7,768.5,662.9,767.3,688z"/>
							<path class="st21" d="M655.6,686.1c-5.7,7.2-18,5.7-20.1,5.4c-7.7-4-15.4-7.9-23.1-11.9c1.4-2.9,4.5-8.9,8.2-16.7
								c25.2-52.9,34.4-86.8,45-85.4c1.2,0.2,2.4,0.8,3.6,1.9c3.2,23,6.3,46,9.5,69c-3.6,8.9-8.8,19.1-16.3,29.4
								C660,680.8,657.8,683.6,655.6,686.1c-6.7,1.8-13.4,3.6-20.1,5.4c-24.4-12.2-42.8-22.4-52.5-28.2c-3.2-1.9-10.2-6.1-15-14.1
								c-2.1-3.5-3.1-6.7-3.7-9.1c-0.7-3.1-1.6-7.4,0.1-12.2c1.3-3.6,3.9-6.8,6.4-8.4c7.1-4.4,17.7,1.2,28.1,6.5
								c42.1,21.5,46.1,21,51.6,29.6C652,658,663.4,676.2,655.6,686.1z"/>
							<path class="st21" d="M688.1,694.6c11.4-1,22.8-2.1,34.3-3.1c-2.9-43.9-5.8-87.8-8.7-131.8c-5.7,0.5-11.5,1-17.2,1.5
								c-2,1-3.9,2.1-5.8,3.1c-5.2,19.2-10.3,38.3-15.5,57.2C679.5,645.7,683.8,670.1,688.1,694.6z"/>
							<path class="st46" d="M720.2,691.6c0.7-0.1,1.4-0.1,2.1-0.2c-2.8-43.4-5.6-86.9-8.4-130.4c-1,0.1-1.9,0.2-2.9,0.4
								C714.2,604.8,717.2,648.2,720.2,691.6z"/>
						</g>
						<g>
							<path d="M722.3,568.3c1.7,36.9,3.4,73.8,5.1,110.7c14.8,2,29.6,4,44.3,6.1c1.9-19.4,3.7-39.1,5.2-59.3
								c1.5-19.8,2.8-39.3,3.9-58.4c-5.9-2.2-12.2-4.4-18.8-6.5c-7-2.2-13.7-4-20.1-5.6C735.4,559.6,728.9,564,722.3,568.3z"/>
							<path d="M704.4,568.9c3.3,37.1,6.5,74.1,9.8,111.2c-9.7,2.9-19.3,5.8-29,8.8c-6.2-37.1-12.5-74.2-18.7-111.3
								c8.1-4.4,16.1-8.9,24.2-13.3C695.3,565.7,699.8,567.3,704.4,568.9z"/>
						</g>
						<path d="M690.8,893.8c4.4,28.9,12.1,66.5,25.9,109.5c10.8-0.5,21.5-1,32.2-1.4c-6.3-34.2-11.7-71.3-15.6-111.2
							c-4.1-42.2-8.7-81.7-8.9-118.1c0.7-0.1,1.6,0,2.3-0.1c0.6,37.5,5.5,77.9,10.1,121.1c4.1,38.5,9.6,74.5,15.9,107.8
							c11.9-0.5,23.8-0.9,35.6-1.4c5-31.8,8.5-68.4,8.4-108.9c-0.1-71.6-11.4-132.7-24-179.8c-4-1.3-9.6-2.7-16.5-3.3
							c-2.3-0.2-5.1-0.4-8.2-0.4c-7.9,0-14.6,1.3-19.7,2.6l-2.5-0.1c-2.7-1.6-9.4-4.9-18.4-4.6c-10.9,0.4-18.3,5.9-20.6,7.8
							c-0.3,2.9-0.9,7.3-1.4,12.7C683.3,748.4,678.2,811.7,690.8,893.8z"/>
						<g>
							<path class="st45" d="M685.6,723.5c29.4-2.5,58.8-5.1,88.4-7.6c-2.7-9.5-5.5-18.9-8.2-28.4c-25.6,2.3-51.1,4.7-76.5,7
								C688.1,704.1,686.9,713.8,685.6,723.5z"/>
							<path class="st47" d="M743.8,775.7c5.1,44.9,16.7,81.9,27.9,109.6c3.4-13.8,6.7-30.6,8.6-50c2.6-26.8,1.5-49.3,0-65.1
								c-1.4-14.8-4.2-33.3-9.7-54c-9.8,0.9-19.6,1.8-29.4,2.6C740.9,735.9,741.5,755,743.8,775.7z"/>
						</g>
					</g>
				</g>
				<g>
					<path class="st41" d="M522.5,616.5c-7.4,1.8-9.8-9-1.4-6l-0.1,0C524.7,609.5,526.3,615.5,522.5,616.5z"/>
					<path class="st41" d="M522.6,612.1c-10.2-0.4-6.1-11.4-0.8-6.3c0-0.1-0.1-0.1,0.1,0c0.1,0.1,0.4,0.1,0.6,0.1c0,0,0.1,0,0,0
						C526.3,605.7,526.5,612,522.6,612.1z"/>
					<path class="st41" d="M522.5,607l-2.9-0.9c-3.8-1-2.1-7.1,1.7-5.9c0,0,2.9,0.9,2.9,0.9C528,602.1,526.3,608.2,522.5,607z"/>
					<path class="st41" d="M555.8,611.1c-1.6-1.1-4-2.9-6.1-5.9c-2.4-3.3-2.6-5.5-3.7-7.2c-1.9-2.7-7.2,3.4-20.7-2.2l-4.9,19.8
						c0,0,12.5,11,29.3,10.5c2.7,1.6,5.3,3.2,8,4.8c2.6-4.9,5.2-9.7,7.8-14.6C562.3,614.7,559,612.9,555.8,611.1z"/>
					<path class="st41" d="M536.9,599.1c-3.2-2.9-33.2-10.4-32.8-3.9c0,2.6,3.1,2.3,4.9,2.5c6.7,0.7,13.5,2.5,19.6,5.5
						c3.2,1.1,6.5,5.7,9.8,2.4C540.3,603.5,539.4,600.1,536.9,599.1z"/>
					<path class="st41" d="M528.3,584.6c3.9,7.5,7.8,15.2,11.2,22.9c2.9,6.5,11.3,1.8,8.6-4.8c-4.5-11.2-8.9-14.5-15.6-21
						C530.3,579.6,526.8,582,528.3,584.6z"/>
					<path class="st42" d="M524.6,615.4c0.9-1.5-0.3-3.9-0.5-3.8c-0.2,0.1-0.2,0.5,0,1.3c0.1,0.3,0.2,1.1-0.2,1.9
						c-0.6,1.5-2.2,1.9-2.4,1.9c0.2,0.1,0.5,0.1,0.8,0.1C523.4,616.7,524.3,616.1,524.6,615.4z"/>
					<path class="st42" d="M525.4,610.9c0.9-1,0.7-4.6-1-4.3c-0.5,0.9,1.7,2.1-0.1,4.2c-1.2,1.3-3.2,0.8-4.6,0.3
						c-0.8-0.4-1.7-0.7-2.5-1.1c2.3,2.2,5.1,3,6.9,2C524.5,611.9,525,611.6,525.4,610.9z"/>
					<path class="st42" d="M526.3,606c1.2-1.9,0.2-4.7-2-5.3l0,0c-2.8-0.6-3.5-0.6-3.5-0.5c0,0.1,0.6,0.5,3.2,1.4
						c3.2,0.9,1.8,6-1.4,5c0,0,0,0,0,0c-1.3-0.5-4.9-2-5-1.8c-0.1,0.1,3.6,3.7,6.7,2.7C524.6,607.4,525.6,607,526.3,606z"/>
					<path class="st42" d="M543.3,613.1c-1.8-1.5-5.1-4.6-7-9.6c-0.7-2-1.1-3.9-1.2-5.4c-0.2-0.1-0.4-0.1-0.7-0.2
						c0,1.6,0.2,6.2,3.3,10.4C539.7,610.9,541.9,612.3,543.3,613.1z"/>
				</g>
				<line class="st48" x1="661.2" y1="688.6" x2="661.2" y2="688.6"/>
				<g>
					<path class="st21" d="M562.7,599.8c0,0-27.8,23.9-21.4,35.8c3.2,6,23.5,5.4,23.5,5.4l9.1-19.7L562.7,599.8z"/>
				</g>
				<path class="st21" d="M611.6,623.7"/>
			</g>
			<g>
				<g>
					<g>
						<path class="st40" d="M206.8,1008c-0.2,1.5-0.4,3-0.7,4.5c-0.2,1.2-0.4,2.4-0.6,3.5c0.1,0.5,0.2,1,0.3,1.5
							c-0.5,2.5-1.1,7.6,1,13.2c0.9,2.4,2.5,6.9,7.2,10c1,0.7,4.9,3.1,10.3,2.9c2.2-0.1,5.4-0.2,8.1-2.6c3.9-3.5,3.4-9.2,3.3-10.1
							c-2-0.2-22.6-2.9-27.8-17C207.4,1012.3,206.9,1010.4,206.8,1008z"/>
						<path class="st41" d="M232.1,1016.9c-1.5-3.8-2.9-7.6-4.4-11.4c0.3-3.9,0.7-7.8,1-11.7c-6.7-0.8-13.4-1.6-20.1-2.4
							c-0.2,3.6-0.4,7.2-0.7,10.7c-0.3,2.1-0.5,4.6-0.5,7.4c0,2.4,0.2,4.6,0.5,6.5C216.1,1016.3,224.1,1016.6,232.1,1016.9z"/>
						<g>
							<path d="M233.9,1021c-1.3-4.5-3.7-10.3-4.9-13.2c-0.1-0.3-0.5-1.2-0.8-2.4c-0.2-0.6-0.3-1.1-0.3-1.4c0,0.5-0.1,1-0.1,1.5
								c0.2,0.6,0.4,1.5,0.7,2.6c0.3,1.5,0.9,3.8,0.6,3.9c-0.1,0-0.2-0.2-0.3-0.2c-1.1-1.5-7.2-5.5-14.1-3.4
								c-2.7,0.8-3.3,2.4-4.5,1.9c-1.8-0.6-2.2-4.5-2.1-7.8c-0.4,1.3-0.9,3.2-1.2,5.5c-0.2,1.3-2.9,23.1,8.9,29.5
								c6.6,3.6,16.7,1.8,19.1-2.8c0.6-1.2,0.7-2.5,0.8-4.3C235.8,1027.9,235.4,1026.2,233.9,1021z"/>
						</g>
					</g>
					<g>
						<g>
							<path class="st40" d="M279,1040.2c-4.5,4.6-17.4,1.9-23.8-5.3c-2.1-2.4-3.7-5.8-6.8-12.5c0,0.1,0,0.2,0,0.3
								c-0.3,0.1-0.7,0.2-1,0.2c-0.3-0.8-0.6-1.6-1-2.3c-0.5-1.3-1.1-2.5-1.6-3.8c0.1-0.7,0.2-1.4,0.4-2c0.1-1.2,0.2-2.5,0.4-3.9
								c0.1-0.7,0.3-1.4,0.4-2c0.5,0.9,1.2,2.1,2.1,3.6c6.4,10.8,9.6,16.1,12.1,18.5c3.2,3,9,5.7,20.7,4.2
								C280.9,1036.5,280.6,1038.7,279,1040.2z"/>
						</g>
						<path class="st41" d="M273.4,1022.1c-1.9-3.7-3.7-7.5-5.6-11.2c-0.6-0.8-1.2-1.9-1.6-3.2c-1.3-3.7-0.6-7-0.1-8.5
							c-6-1.2-12-2.3-18.1-3.5c-0.4,3.5-0.8,6.9-1.2,10.4c0.4,1.8,0.9,3.8,1.6,5.9c1.7,4.9,4,8.9,6,11.9
							C260.8,1023.2,267.1,1022.7,273.4,1022.1z"/>
						<g>
							<path d="M250.5,1019.4c-1.9-4.2-3.4-7.9-4.6-10.6c0.3-1,0.5-1.9,0.6-2.5c0.1-0.6,0.2-1,0.3-1c0.1,0,0.2,0.8,0.3,1.6
								c1.2,2.5,2.2,4.4,2.7,5.4c0.2,0.3,0.6,1,1.3,1.3c0.3,0.1,0.6,0.1,0.7,0.1c0.5-0.1,1.9-2,2.3-2.3c0,0,2.4-2.4,8-2.3
								c1.2,0,3.7,0.9,6.7,3.9c-1.9-4.1-2.3-4.4-2.3-4.4c0,0,0,0,0,0c0,0,0.1,0,0.2,0.1c15.7,20.7,14,26.8,14,26.8
								c-3.1,4.6-13.5,4.7-19.5,0.6c-1.3-0.9-2.1-1.8-3.6-3.6C254.9,1029.3,253.6,1026.4,250.5,1019.4z"/>
						</g>
					</g>
					<g>
						<path d="M246,510.3c0.5,3.6,1.3,7.7,2.7,12.2c2.6,8.5,6.4,15.2,9.6,20c7.8,5.5,17.8,6.4,26.2,2.5c9-4.2,16.4-14.2,14.6-21.3
							C296.6,513.6,275.4,508,246,510.3z"/>
						<g>
							<g>
								<g>
									<path class="st41" d="M256.1,556.8c0.8-3.3,1.4-7.1,1.9-11.1c0.3-2.6,0.5-5.1,0.6-7.4c0.1-1.7,0.1-3.3,0.1-4.8
										c0-0.1,0-0.2,0-0.3c5.3,1.1,10.8,2.3,16.5,3.8c0.4,0.1,0.8,0.2,1.2,0.3c4.7,1.2,9.3,2.5,13.7,3.8c0.1,0,0.2,0.1,0.3,0.1
										c-0.2,0.3-0.3,0.7-0.5,1.1c-0.8,1.9-1.8,4.6-2.2,8c-0.2,1.5-0.3,3.1-0.2,4.8c0.2,3.7,1.1,6.7,1.9,8.8
										C278.3,561.4,267.2,559.1,256.1,556.8z"/>
									<path class="st42" d="M290.1,540.9c-0.1,0.4-0.1,0.8-0.2,1.2c-0.8,1.9-1.8,4.6-2.2,8c-0.8,0.2-2,0.4-3.4,0.4
										c-2.4,0.1-4.1-0.4-6.3-0.9c-4.6-1-5.5-1-7-1.4c-2.1-0.6-7-2.4-12.4-10.1c0.1-1.7,0.1-3.3,0.1-4.8
										c5.9,1.3,11.8,2.5,17.7,3.8C281.1,538.3,285.7,539.6,290.1,540.9z"/>
								</g>
								<path class="st41" d="M308.9,511.6c-1.3,5.1-2.3,10.3-3.2,14.8c-0.6,2.3-1.9,5.6-4.4,9.1c-1,1.5-3,3.4-6.9,7.1
									c-4.8,4.6-6.5,5.8-8.8,5.9c-0.7,0-1,0.1-4.1-0.4c-5-0.7-5.6-0.6-7.9-1.1c-3.6-0.7-6.1-2.3-7.8-3.4c-3.2-2-4.9-4.1-8-7.8
									c-3-3.5-4.4-5.9-5.2-8c-0.6-1.6-2-4.1-1.2-10.2c0.6-4.6,1.4-10,1.9-15.4c-0.5-9.9,4.8-21.6,9.4-26.7
									c4-3.5,15.1,1.2,23.7,2.7c8.5,1.6,20.2,1.1,22.7,5.7c0.8,3.3,1.5,7.6,1.6,12.6C310.7,502.7,309.8,507.8,308.9,511.6z"/>
								<g>
									<path class="st21" d="M279.3,509.4c-1,0.5-2.9,1.3-5.3,1.2c-4.1-0.1-6.7-2.6-7.4-3.3c1.6-1.3,3.3-2,5-2.3
										c0.7-0.1,1.7-0.3,2.8,0C277.5,505.7,279,508.7,279.3,509.4z"/>
									<path class="st43" d="M277.8,507.8c-0.3,1.7-2.3,2.9-4,2.6c-1.8-0.3-3.3-2.2-2.8-4c0.2-0.6,0.5-1.1,1-1.4
										c0.6-0.1,1.1-0.1,1.7-0.1c0.6,0.1,1.3,0.3,1.8,0.6c0.3,0.2,0.6,0.3,0.9,0.5c0.6,0.4,1.1,0.9,1.5,1.4
										C277.8,507.6,277.8,507.7,277.8,507.8z"/>
									<path d="M272.6,507.2c-0.1,1.1,0.6,2,1.6,2c1,0,1.9-0.8,2-1.8c0.1-1-0.6-2-1.6-2C273.7,505.3,272.7,506.1,272.6,507.2z"/>
									<path class="st21" d="M272,506.5c0,0.4,0.2,0.8,0.6,0.8c0.4,0,0.7-0.3,0.8-0.7c0-0.4-0.2-0.8-0.6-0.8
										C272.4,505.7,272,506,272,506.5z"/>
									<path class="st44" d="M284.4,501.9c-3.3-2.9-8-6.1-13.8-8.5c-1.1-0.4-3.2-0.6-4.5,0.7c-0.9,0.8-1,2.1-0.9,2.7
										c0.9-0.1,2.2-0.1,3.8,0.2c2,0.3,3.9,1,7.8,3.4c1.8,1.1,4,2.5,6.3,4.3c0.2-0.2,0.4-0.5,0.5-0.8
										C284.1,503.1,284.3,502.4,284.4,501.9z"/>
									<path class="st44" d="M279.3,509.4c-0.4-0.7-1.9-2.8-4.6-3.7c-4.2-1.4-7.8,1.3-8.1,1.6c3.1-3.1,7.2-3.8,10-2.1
										C278.4,506.5,279.1,508.6,279.3,509.4z"/>
								</g>
								<g>
									<path class="st21" d="M292.6,511.3c0.6,0.6,4.4,3.8,9.2,2.9c1.4-0.3,2.6-0.8,3.4-1.4c-0.9-1.5-2.2-2.7-3.6-3.5
										c-1.4-0.8-3-1.1-4.6-0.8c-0.5,0.1-0.9,0.2-1.1,0.3C294.2,509.4,293.1,510.6,292.6,511.3z"/>
									<path class="st43" d="M296.1,510.7c-0.3,1.9,1.4,3.5,3.1,3.7c1.8,0.1,3.7-1.3,3.9-3.2c0-0.6-0.1-1.2-0.4-1.6
										c-1.4-0.8-3-1.1-4.6-0.8c-0.4,0.1-0.7,0.2-1.1,0.3C296.5,509.5,296.2,510.1,296.1,510.7z"/>
									<path d="M302.1,511.5c-0.3,1.1-1.3,1.8-2.2,1.6c-1-0.2-1.6-1.3-1.3-2.3c0.3-1.1,1.3-1.8,2.2-1.6
										C301.8,509.4,302.4,510.4,302.1,511.5z"/>
									<path class="st21" d="M299.4,510.5c-0.1,0.4-0.5,0.7-0.8,0.6c-0.4-0.1-0.6-0.5-0.5-0.9c0.1-0.4,0.5-0.7,0.8-0.6
										C299.3,509.7,299.5,510.1,299.4,510.5z"/>
									<path class="st44" d="M292.3,502.5c3.4-1.6,7.6-2.9,11.9-3.1c0.8,0,2.1,0.5,2.7,1.8c0.4,0.9,0.3,1.8,0.2,2.4
										c-0.5-0.3-1.4-0.6-2.4-0.8c-1.4-0.3-2.8-0.3-6,0.6c-1.6,0.4-3.6,1.1-6,2.1c-0.1-0.3-0.2-0.6-0.3-0.9
										C292.3,503.7,292.3,503,292.3,502.5z"/>
									<path class="st44" d="M292.6,511.3c0.3-0.3,3.4-2.9,7.5-2.1c3.1,0.7,4.8,3,5.2,3.5c-0.2-0.7-1-3.1-3.4-4.3
										C299.1,507.1,295.2,508.2,292.6,511.3z"/>
								</g>
								<path d="M313.3,474.2c-2.9-3.2-10.9-11.2-24-13.9c-4.2-0.9-19.6-4.3-32,5.7c-14.6,11.8-12.8,32.2-12.6,33.3
									c0.1,5.5,0.9,13.4,4.4,22.1c1.7,4.1,3.6,7.6,5.4,10.4c-0.4-1.1-0.9-2.7-1.2-4.8c-0.3-2.2-0.2-3.8,0-6.1
									c0.2-1.9,0.4-4.9,0.7-9.1c0.6-0.1,2.4,0.5,2.4-0.1c0.4-6.2,1.6-9.9,2.8-12.5c1.5-3.1,3.2-4.4,4.8-8.2
									c1.5-3.5,1.8-6.6,1.9-8.7c4.8-1.6,13.9-3.9,25-2.2c7,1.1,12.5,3.5,16.2,5.5c-0.7,4.8-0.3,8.5,0.2,10.9
									c0.8,3.8,2.2,6.4,2,10.8c-0.1,2.3-0.6,4.2-0.9,5.3c1.2-3,2.2-6.2,3.1-9.9C314.5,491.5,314.2,481.5,313.3,474.2z"/>
								<g>
									<g>
										<path class="st42" d="M290.2,525.8c0,0.2-0.9,0.4-2.8,0.9c-1.7,0.5-3.6,0.3-5.1-0.7c-1.7-0.9-2.5-1.5-2.4-1.6
											c0.1-0.2,1.5,0.2,4.2,1.2c0.5,0.1,1.1,0.2,1.6,0.2C288.7,525.5,290.2,525.6,290.2,525.8z"/>
									</g>
								</g>
								<g>
									<path class="st42" d="M283.5,535.3c-4.9-0.5-7.5,0-7.5-0.4c-0.1-0.4,3.5-1.9,7.5-1.5c3.8,0.4,6.9,2.4,6.7,2.8
										C290.2,536.5,288,535.7,283.5,535.3z"/>
								</g>
								<g>
									<path class="st42" d="M286.2,540.3c0,0.4-1.9,1.1-3.7,0.8c-1.9-0.2-3.6-1.4-3.5-1.8c0.1-0.5,2.4-0.2,3.6,0
										C284,539.6,286.2,539.9,286.2,540.3z"/>
								</g>
							</g>
							<g>
								<polygon class="st44" points="287.2,528.7 286.5,530.8 297.2,534.2 								"/>
								<polygon class="st44" points="283.3,528.1 283.5,530.3 270.1,531.7 								"/>
							</g>
							<g>
								<path d="M313.5,484.1c-21.9-2.4-43.4-4.8-64.5-7.2c1.1-7.4,2.2-14.9,3.3-22.3c20.6,2,41.5,4,62.7,6.1
									C314.5,468.5,314,476.3,313.5,484.1z"/>
								<g>
									<path class="st45" d="M214.9,470.4l2.5-6.3c0,0,0.3,0.1,1,0.4l0,0c0.7,0.2,1.8,0.6,3.2,1.1l0,0c2.8,0.9,7.1,2.2,12.7,3.6
										l0,0c11,2.8,27.2,6.2,47.6,8.7l0,0c20,2.4,36.4,3.1,63.5,2.3l0,0l0.3,6.3c-27.4,0.9-44.1,0.4-64.5-2.1l0,0
										C239.2,479.4,215.2,470.5,214.9,470.4L214.9,470.4z"/>
								</g>
							</g>
							<g>
								<path class="st41" d="M255.5,503.8c0.1-1.8-1.4-3.5-3.4-3.4c-4.7,0.3-3.2,10.6-2.1,14.7c0.5,1.8,0.6,6.5,4.2,6.3
									L255.5,503.8z"/>
							</g>
						</g>
					</g>
					<g>
						<path class="st41" d="M159.8,790.8c0,0.6-0.1,1.1-0.1,1.7l0,0.1c-0.1,2.6,0,5.3-0.1,8.1l0,0c0,0-0.1,2.9,1,9.1
							c0.1,0.8,0.4,2.2,1.5,3.5c0.3,0.3,0.5,0.6,0.7,0.7c0,0,0,0,0,0c0.1,0.1,0.3,0.2,0.4,0.3c0,0.1,0.1,0.2,0.1,0.4
							c0.3,1.2,1.2,3.9,3.9,4.4c0.7,0.1,1.6-0.2,2.2-0.5c1,2.5,2.5,3,3.7,2.6c1.1-0.4,1.8-1.6,2-2c0.7,0.1,1.7,0.2,2.5-0.5
							c1.8-1.4,1.5-4.7,2.1-11.5c0.1-1.3,0.7-5.5,1.8-13.7c0-0.2,0.1-0.4,0.1-0.5c0-0.2,0.1-0.3,0.1-0.5c0.2-1.4,0.4-2.8,0.6-4.2
							c1.3,4.8,0,12.3,4.1,13.6c0,0,0,0,0,0c0,0,0.1,0,0.1,0c0.1,0,0.2,0.1,0.3,0.1c0.1,0,0.1,0,0.2,0c0.1,0,0.3,0,0.5,0
							c0,0,0,0,0,0c0.2,0,0.3,0,0.4-0.1c0.1,0,0.1-0.1,0.2-0.1c0.1-0.1,0.2-0.1,0.3-0.2c0,0,0-0.1,0.1-0.1c0.1-0.1,0.1-0.1,0.1-0.2
							c0.1-0.1,0.1-0.3,0.2-0.4c0-0.1,0-0.3,0-0.4c-1-10.1,1.1-15.2-0.2-19.8c-3.6-5.5-5.8-9.3-6.2-13.6c-0.3-3.9,1-6.8,1.5-8
							c4.8-12.3,8.7-30.6,14.5-58.3c1.8-8.5,2.7-12.8,2.8-13.5c1.2-5.7,1.2-5.9,1.8-8.6c4.6-18.7,10.1-33.4,14-43
							c3.9,10.1,8.2,25.1,9.1,43.6c1,21.8-3.3,39.3-7,50.2c10.7,3,24.2,5.9,39.9,7.1c15.3,1.1,28.7,0.3,39.4-1
							c-2.2-13.4-3.8-33.4,0.6-56.7c0.2-0.9,1.4-6.3,3.1-13.2c1.3-5.5,2.5-10.5,3.6-14.6c0.7-2.7,1.3-5,1.8-7
							c0.2,1.7,0.4,3.3,0.6,4.9l27.5-23.8c-0.7-9.6-1.5-16.3-1.9-19.5c-1-8.8-2.1-16-2.9-20.8c-4.5-2.7-9-5.5-13.6-8.3
							c-8.1-5-16-10.1-23.9-15.1c-0.6-1-1.2-2-1.8-3l-18.3,3.1c-6.9-2.2-13.8-4.5-20.6-6.7c-9.6,2-20,4.7-31.1,8.2
							c-7.3,2.3-14.1,4.8-20.5,7.4c-5.5,9.1-8.4,17-10.1,22.6c-0.9,3-3,12.9-6.6,32.6c-2.6,14.5-4.3,18.6-6.6,28c0,0-1.1,4.6-2.4,11
							c-6.9,34.5-7.5,72.2-7.5,72.2c-0.1,6.2-0.1,15,0.3,25.8c-1.1,2.3-2.3,4.4-3.4,6.5c-2.4,4.3-3.9,9-4.3,14
							C160.2,785.4,160,788.1,159.8,790.8z"/>
						<g>
							<path class="st42" d="M239.3,566.1c5.9-4.9,21.8-0.6,27.4,5.7L239.3,566.1z"/>
							<path class="st42" d="M302.7,575.6c-4.2-6-18.7-6.6-24.7-2.2L302.7,575.6z"/>
							<path class="st42" d="M162.6,813.5c-1.9-5.1-2-13.3-0.1-20.1c-0.5,3.6-0.7,8-0.4,12.8c0.2,3.1,0.7,5.8,1.2,8.2L162.6,813.5z"
								/>
							<path class="st42" d="M169.4,818.3c-3.7-6.1-3.6-20.5,0.2-29c-1,4-1.9,9.4-1.9,15.6C167.7,810.6,168.5,815.1,169.4,818.3z"/>
							<path class="st42" d="M175,818.9c-3.4-5.8-2.5-20.6-0.2-28.4c-0.9,5.3-1.5,11.8-1.1,18.9C174,813,174.5,816.2,175,818.9z"/>
						</g>
						<g>
							<path class="st21" d="M192.5,746.3c-4.5,5.2-19.7,6.9-23.3,2.3c-16.6-5.6-8-21.8,0.6-75.7c9.1-56.9,19.4-119.8,39-105.5
								l8.4,68.7C217.3,636.2,209.4,743.6,192.5,746.3z"/>
							<path class="st21" d="M197.7,765.5c0,0-41.5,8.1-45.1-3.1c-1.8-5.7,15.3-21.1,15.3-21.1l23.5,0.5L197.7,765.5z"/>
							<g>
								<path class="st21" d="M275.1,554.5c-1.5-1.9-3.7-2.6-9.8-4.2c-3.4-0.9-7.8-1.9-12.9-2.9c-0.3,2.3-0.6,4.7-0.9,7
									c8.3,1.9,16.6,3.8,24.9,5.7C276.6,558.7,276.7,556.4,275.1,554.5z"/>
								<path class="st21" d="M278.5,555.2c1.4-1.1,3.1-1.2,5.7-1.4c1.8-0.2,4.6-0.2,7.9,0.4c0.4,2.4,0.7,4.7,1.1,7.1
									c-5.6-0.3-11.3-0.7-16.9-1C276.3,559.4,276.4,556.8,278.5,555.2z"/>
							</g>
							<path class="st21" d="M222.5,688c15.1,1.2,30,2.3,44.9,3.4c2.9-43.9,5.8-87.8,8.7-131.8c-8.2-1.7-16.4-3.5-24.6-5.2
								c-1.2,0.3-2.4,0.6-3.7,0.9c-9.7,19-19.3,38.1-29,57.2C220.1,637.7,221.3,662.9,222.5,688z"/>
							<path class="st21" d="M334.2,686.1c5.7,7.2,18,5.7,20.1,5.4c7.7-4,15.4-7.9,23.1-11.9c-1.4-2.9-4.5-8.9-8.2-16.7
								c-25.2-52.9-34.4-86.8-45-85.4c-1.2,0.2-2.4,0.8-3.6,1.9c-3.2,23-6.3,46-9.5,69c3.6,8.9,8.8,19.1,16.3,29.4
								C329.8,680.8,332,683.6,334.2,686.1c6.7,1.8,13.4,3.6,20.1,5.4c24.4-12.2,42.8-22.4,52.5-28.2c3.2-1.9,10.2-6.1,15-14.1
								c2.1-3.5,3.1-6.7,3.7-9.1c0.7-3.1,1.6-7.4-0.1-12.2c-1.3-3.6-3.9-6.8-6.4-8.4c-7.1-4.4-17.7,1.2-28.1,6.5
								c-42.1,21.5-46.1,21-51.6,29.6C337.8,658,326.4,676.2,334.2,686.1z"/>
							<path class="st21" d="M301.7,694.6c-11.4-1-22.8-2.1-34.3-3.1c2.9-43.9,5.8-87.8,8.7-131.8c5.7,0.5,11.5,1,17.2,1.5
								c2,1,3.9,2.1,5.8,3.1c5.2,19.2,10.3,38.3,15.5,57.2C310.3,645.7,306,670.1,301.7,694.6z"/>
							<path class="st46" d="M269.6,691.6c-0.7-0.1-1.4-0.1-2.1-0.2c2.8-43.4,5.6-86.9,8.4-130.4c1,0.1,1.9,0.2,2.9,0.4
								C275.6,604.8,272.6,648.2,269.6,691.6z"/>
						</g>
						<g>
							<path d="M267.5,568.3c-1.7,36.9-3.4,73.8-5.1,110.7c-14.8,2-29.6,4-44.3,6.1c-1.9-19.4-3.7-39.1-5.2-59.3
								c-1.5-19.8-2.8-39.3-3.9-58.4c5.9-2.2,12.2-4.4,18.8-6.5c7-2.2,13.7-4,20.1-5.6C254.4,559.6,260.9,564,267.5,568.3z"/>
							<path d="M285.4,568.9c-3.3,37.1-6.5,74.1-9.8,111.2c9.7,2.9,19.3,5.8,29,8.8c6.2-37.1,12.5-74.2,18.7-111.3
								c-8.1-4.4-16.1-8.9-24.2-13.3C294.5,565.7,290,567.3,285.4,568.9z"/>
						</g>
						<path d="M299,893.8c-4.4,28.9-12.1,66.5-25.9,109.5c-10.8-0.5-21.5-1-32.2-1.4c6.3-34.2,11.7-71.3,15.6-111.2
							c4.1-42.2,8.7-81.7,8.9-118.1c-0.7-0.1-1.6,0-2.3-0.1c-0.6,37.5-5.5,77.9-10.1,121.1c-4.1,38.5-9.6,74.5-15.9,107.8
							c-11.9-0.5-23.8-0.9-35.6-1.4c-5-31.8-8.5-68.4-8.4-108.9c0.1-71.6,11.4-132.7,24-179.8c4-1.3,9.6-2.7,16.5-3.3
							c2.3-0.2,5.1-0.4,8.2-0.4c7.9,0,14.6,1.3,19.7,2.6l2.5-0.1c2.7-1.6,9.4-4.9,18.4-4.6c10.9,0.4,18.3,5.9,20.6,7.8
							c0.3,2.9,0.9,7.3,1.4,12.7C306.5,748.4,311.6,811.7,299,893.8z"/>
						<g>
							<path class="st45" d="M304.2,723.5c-29.4-2.5-58.8-5.1-88.4-7.6c2.7-9.5,5.5-18.9,8.2-28.4c25.6,2.3,51.1,4.7,76.5,7
								C301.7,704.1,302.9,713.8,304.2,723.5z"/>
							<path class="st47" d="M246,775.7c-5.1,44.9-16.7,81.9-27.9,109.6c-3.4-13.8-6.7-30.6-8.6-50c-2.6-26.8-1.5-49.3,0-65.1
								c1.4-14.8,4.2-33.3,9.7-54c9.8,0.9,19.6,1.8,29.4,2.6C248.9,735.9,248.3,755,246,775.7z"/>
						</g>
					</g>
				</g>
				<g>
					<path class="st41" d="M467.3,616.5c7.4,1.8,9.8-9,1.4-6l0.1,0C465.1,609.5,463.5,615.5,467.3,616.5z"/>
					<path class="st41" d="M467.2,612.1c10.2-0.4,6.1-11.4,0.8-6.3c0-0.1,0.1-0.1-0.1,0c-0.1,0.1-0.4,0.1-0.6,0.1c0,0-0.1,0,0,0
						C463.5,605.7,463.3,612,467.2,612.1z"/>
					<path class="st41" d="M467.3,607l2.9-0.9c3.8-1,2.1-7.1-1.7-5.9c0,0-2.9,0.9-2.9,0.9C461.8,602.1,463.5,608.2,467.3,607z"/>
					<path class="st41" d="M434,611.1c1.6-1.1,4-2.9,6.1-5.9c2.4-3.3,2.6-5.5,3.7-7.2c1.9-2.7,7.2,3.4,20.7-2.2l4.9,19.8
						c0,0-12.5,11-29.3,10.5c-2.7,1.6-5.3,3.2-8,4.8c-2.6-4.9-5.2-9.7-7.8-14.6C427.5,614.7,430.8,612.9,434,611.1z"/>
					<path class="st41" d="M452.9,599.1c3.2-2.9,33.2-10.4,32.8-3.9c0,2.6-3.1,2.3-4.9,2.5c-6.7,0.7-13.5,2.5-19.6,5.5
						c-3.2,1.1-6.5,5.7-9.8,2.4C449.5,603.5,450.4,600.1,452.9,599.1z"/>
					<path class="st41" d="M461.5,584.6c-3.9,7.5-7.8,15.2-11.2,22.9c-2.9,6.5-11.3,1.8-8.6-4.8c4.5-11.2,8.9-14.5,15.6-21
						C459.5,579.6,463,582,461.5,584.6z"/>
					<path class="st42" d="M465.2,615.4c-0.9-1.5,0.3-3.9,0.5-3.8c0.2,0.1,0.2,0.5,0,1.3c-0.1,0.3-0.2,1.1,0.2,1.9
						c0.6,1.5,2.2,1.9,2.4,1.9c-0.2,0.1-0.5,0.1-0.8,0.1C466.4,616.7,465.5,616.1,465.2,615.4z"/>
					<path class="st42" d="M464.4,610.9c-0.9-1-0.7-4.6,1-4.3c0.5,0.9-1.7,2.1,0.1,4.2c1.2,1.3,3.2,0.8,4.6,0.3
						c0.8-0.4,1.7-0.7,2.5-1.1c-2.3,2.2-5.1,3-6.9,2C465.3,611.9,464.8,611.6,464.4,610.9z"/>
					<path class="st42" d="M463.5,606c-1.2-1.9-0.2-4.7,2-5.3l0,0c2.8-0.6,3.5-0.6,3.5-0.5c0,0.1-0.6,0.5-3.2,1.4
						c-3.2,0.9-1.8,6,1.4,5c0,0,0,0,0,0c1.3-0.5,4.9-2,5-1.8c0.1,0.1-3.6,3.7-6.7,2.7C465.2,607.4,464.2,607,463.5,606z"/>
					<path class="st42" d="M446.5,613.1c1.8-1.5,5.1-4.6,7-9.6c0.7-2,1.1-3.9,1.2-5.4c0.2-0.1,0.4-0.1,0.7-0.2
						c0,1.6-0.2,6.2-3.3,10.4C450.1,610.9,447.9,612.3,446.5,613.1z"/>
				</g>
				<line class="st48" x1="328.6" y1="688.6" x2="328.6" y2="688.6"/>
				<g>
					<path class="st21" d="M427.1,599.8c0,0,27.8,23.9,21.4,35.8c-3.2,6-23.5,5.4-23.5,5.4l-9.1-19.7L427.1,599.8z"/>
				</g>
				<path class="st21" d="M378.2,623.7"/>
			</g>
		</g>
	</g>
</g>
</svg>
