<?xml version="1.0" encoding="utf-8"?>
<!-- Generator: Adobe Illustrator 26.0.1, SVG Export Plug-In . SVG Version: 6.00 Build 0)  -->
<svg version="1.1" id="Layer_1" xmlns="http://www.w3.org/2000/svg" xmlns:xlink="http://www.w3.org/1999/xlink" x="0px" y="0px"
	 viewBox="0 0 1000 1000" style="enable-background:new 0 0 1000 1000;" xml:space="preserve">
<style type="text/css">
	.st0{clip-path:url(#SVGID_00000163060507807115003600000018066897251397038503_);}
	.st1{clip-path:url(#SVGID_00000041981044962234910110000005943384220786997946_);fill:#F2D7B9;}
	.st2{clip-path:url(#SVGID_00000041981044962234910110000005943384220786997946_);fill:#D8B182;}
	.st3{clip-path:url(#SVGID_00000041981044962234910110000005943384220786997946_);}
	.st4{fill:#E5C49D;}
	.st5{fill:none;stroke:#FFFFFF;stroke-width:1.4981;stroke-miterlimit:10;}
	.st6{fill:#474747;}
	.st7{fill:#E09A61;}
	.st8{fill:#C47947;}
	.st9{fill:#FFFFFF;}
	.st10{fill:#8A5D3B;}
	.st11{fill:#3B2314;}
	.st12{fill:#DC2428;}
	.st13{fill:#E2DCDC;}
	.st14{fill:#BD1F22;}
	.st15{fill:#D8B182;}
</style>
<g>
	<g>
		<defs>
			<path id="SVGID_1_" d="M737.7,441.9c-0.2,0-0.4,0.1-0.5,0.1C737.3,442,737.5,441.9,737.7,441.9c-0.7-1.3-1.4-2.5-2.1-3.7
				c-0.7-1.2-1.4-2.5-2.2-3.7c-0.7-1.2-1.5-2.4-2.2-3.6c-1.5-2.4-3-4.7-4.5-7c-0.6-1-1.3-1.9-1.9-2.9c-0.5-0.8-1-1.5-1.6-2.3
				c-0.6-0.8-1.2-1.7-1.8-2.5c-0.6-0.8-1.2-1.7-1.8-2.5c-1.6-2.2-3.2-4.3-4.9-6.5c-0.8-1.1-1.6-2.1-2.4-3.1c-1.7-2.1-3.3-4.1-5-6.1
				c-0.8-1-1.7-2-2.5-3c-0.8-1-1.7-1.9-2.5-2.9c-0.8-0.9-1.7-1.9-2.5-2.8c-1.2-1.4-13.7-12.1-25.9-22.4c-12.1-10.4-24-20.3-24-20.3
				c-1.3-1-2.6-2.1-3.9-3.2c-37.9-31.7-66.6-89.3-171.8-80.5c-49,4.1-81.1,24-104,50.8c-1.7-0.9-3.6-1.4-5.6-1.4
				c-8.1,0-14.7,8.3-14.7,18.6c0,3.2,0.7,6.2,1.8,8.9c-16.8,28.2-28.1,60.6-39.4,88.8C297,466,243,471.8,223.6,515.1
				c-17.7,20.4-27,52.6-31.6,76c-3.3,16.8-4.3,29-4.3,29c-0.1,2.8-0.2,5.6-0.2,8.5c0,1,0,2,0,3c0,1,0,2,0.1,3.1c0,0.6,0,1.3,0.1,1.9
				c0,0.3,0,0.6,0,0.9c0.1,1.4,0.1,2.7,0.2,4.1c0,0.1,0,0.1,0,0.2c0.1,1.7,0.2,3.3,0.4,4.9c0.1,0.8,0.2,1.7,0.3,2.5
				c0.1,1,0.2,1.9,0.3,2.9c0.1,0.7,0.2,1.3,0.3,1.9c0.1,0.7,0.2,1.3,0.3,1.9c0.1,0.6,0.2,1.3,0.3,1.9c0.1,0.7,0.2,1.3,0.3,1.9
				c0.1,0.6,0.2,1.2,0.3,1.8c0,0.1,0.1,0.2,0.1,0.3c0.2,1,0.4,2,0.6,2.9c0,0,0,0,0,0c0.2,0.8,0.3,1.7,0.5,2.5
				c0.2,0.8,0.4,1.7,0.5,2.5c0.2,0.8,0.4,1.7,0.6,2.5c0.4,1.7,0.8,3.3,1.3,4.9c3.6,13.1,8.5,25.7,14.6,37.8c0.4,0.8,0.8,1.5,1.2,2.3
				c0.4,0.7,0.7,1.4,1.1,2.1c0.3,0.5,0.6,1.1,0.9,1.6c50.2,22.9,138.9,55.6,253.8,57.7c127.5,2.3,225.6-34.2,277.3-57.7
				c0.2-0.6,0.4-1.2,0.7-1.8c0.3-0.7,0.5-1.5,0.8-2.2c0.2-0.7,0.5-1.4,0.7-2.1c0.1-0.4,0.2-0.8,0.4-1.2c0.3-0.8,0.5-1.7,0.8-2.5
				c0-0.1,0.1-0.2,0.1-0.3c0.2-0.8,0.5-1.6,0.7-2.4c0.3-1,0.5-1.9,0.8-2.9c0.2-1,0.5-2,0.7-2.9c0.2-1,0.5-1.9,0.7-2.9
				c0.2-0.7,0.3-1.4,0.4-2.1c0-0.1,0.1-0.3,0.1-0.4c0.1-0.3,0.1-0.5,0.2-0.8c0.1-0.8,0.3-1.7,0.4-2.5c0-0.1,0-0.1,0-0.2
				c0.2-0.9,0.3-1.9,0.5-2.9c8.5-41.9,20.1-66.4,20.1-129v-0.1C772.6,520.4,737.7,441.9,737.7,441.9z"/>
		</defs>
		<clipPath id="SVGID_00000178900233837757192260000005154252015698174642_">
			<use xlink:href="#SVGID_1_"  style="overflow:visible;"/>
		</clipPath>
		<g style="clip-path:url(#SVGID_00000178900233837757192260000005154252015698174642_);">
			<g>
				<defs>
					<path id="SVGID_00000070092770285887743380000004460482324494642875_" d="M738.5,471.4c-10.6-18.9-23-35.6-35.9-49.6
						c-0.1,0.2-0.3,0.4-0.4,0.7c0.1-0.2,0.3-0.4,0.4-0.7c-2.3-2.6-47.1-40.4-47.1-40.4l0,0c-1.3-1-2.5-2-3.7-3
						c-35.8-30-63-84.4-162.4-76.1c-46.3,3.9-76.6,22.7-98.3,48c-6.5,7.6-12.3,15.9-17.5,24.6c-15.9,26.6-26.5,57.2-37.3,84
						c-14.3,35.3-65.3,40.8-83.7,81.8c-16.8,19.3-25.5,49.7-29.9,71.9c-3.2,15.9-4.1,27.5-4.1,27.5c-5,111.2,94.9,196.3,197.9,227.1
						c23.1,6.9,46.3,11.1,68.5,12.2c10.5,0.5,20.8,0.4,30.7-0.4c2-0.2,4-0.4,6.1-0.6c1.4-0.2,2.8-0.3,4.2-0.5
						c1.2-0.1,2.4-0.3,3.6-0.5c0.7-0.1,1.3-0.2,2-0.3c0.6-0.1,1.3-0.2,1.9-0.3c33.4-5.1,70.8-16.8,105.1-34.7
						c0.2-0.1,0.3-0.2,0.5-0.3c55.3-29,102.5-74.3,111.5-134.9c1.3-8.5,12.1-34.3,15.6-71.4C773.2,562.7,752.9,504.1,738.5,471.4z
						 M661.5,428c0,0,0.1,0.1,0.1,0.1C661.5,428,661.5,428,661.5,428z"/>
				</defs>
				<clipPath id="SVGID_00000077297020594665273790000009224425188562628482_">
					<use xlink:href="#SVGID_00000070092770285887743380000004460482324494642875_"  style="overflow:visible;"/>
				</clipPath>
				<path style="clip-path:url(#SVGID_00000077297020594665273790000009224425188562628482_);fill:#F2D7B9;" d="M738.5,471.4
					c-10.6-18.9-23-35.6-35.9-49.6c-2.3-2.6-47.1-40.4-47.1-40.4c-1.3-1-2.5-2-3.7-3c-35.8-30-63-84.4-162.4-76.1
					c-46.3,3.9-76.6,22.7-98.3,48c-6.5,7.6-12.3,15.9-17.5,24.6c-15.9,26.6-26.5,57.2-37.3,84c-14.3,35.3-65.3,40.8-83.7,81.8
					c-16.8,19.3-25.5,49.7-29.9,71.9c-3.2,15.9-4.1,27.5-4.1,27.5c-5,111.2,94.9,196.3,197.9,227.1c23.1,6.9,46.3,11.1,68.5,12.2
					c10.5,0.5,20.8,0.4,30.7-0.4c2-0.2,4-0.4,6.1-0.6c1.4-0.2,2.8-0.3,4.2-0.5c1.2-0.1,2.4-0.3,3.6-0.5c0.7-0.1,1.3-0.2,2-0.3
					c0.6-0.1,1.3-0.2,1.9-0.3c33.4-5.1,70.8-16.8,105.1-34.7c0.2-0.1,0.3-0.2,0.5-0.3c55.3-29,102.5-74.3,111.5-134.9
					c8-39.6,19-62.7,19-121.9C771.6,545.7,738.5,471.4,738.5,471.4z"/>
				<path style="clip-path:url(#SVGID_00000077297020594665273790000009224425188562628482_);fill:#D8B182;" d="M190.4,668.1h624.2
					v20.9L630.3,915.4c0,0-272.3-6.7-288.4-16.6S201.5,682.4,201.5,682.4"/>
				<g style="clip-path:url(#SVGID_00000077297020594665273790000009224425188562628482_);">
					<path class="st4" d="M351,470.9c0,1.5-0.9,2.6-2.1,2.6c-1.2,0-2.1-1.2-2.1-2.6c0-1.5,0.9-2.6,2.1-2.6
						C350.1,468.2,351,469.4,351,470.9z"/>
					<path class="st4" d="M368.6,475.9c0,1.5-0.9,2.6-2.1,2.6c-1.2,0-2.1-1.2-2.1-2.6s0.9-2.6,2.1-2.6
						C367.6,473.2,368.6,474.4,368.6,475.9z"/>
					<path class="st4" d="M427.3,397.1c0,1.5-0.9,2.6-2.1,2.6c-1.2,0-2.1-1.2-2.1-2.6s0.9-2.6,2.1-2.6
						C426.3,394.5,427.3,395.6,427.3,397.1z"/>
					<path class="st4" d="M701.1,630.9c0,1.5-0.9,2.6-2.1,2.6s-2.1-1.2-2.1-2.6c0-1.5,0.9-2.6,2.1-2.6S701.1,629.5,701.1,630.9z"/>
					<path class="st4" d="M708.3,623.8c0,1.5-0.9,2.6-2.1,2.6c-1.2,0-2.1-1.2-2.1-2.6c0-1.5,0.9-2.6,2.1-2.6
						C707.3,621.1,708.3,622.3,708.3,623.8z"/>
					<ellipse class="st4" cx="361" cy="462.3" rx="3.4" ry="4.2"/>
					<path class="st4" d="M357.6,618.8c0,3-2,5.5-4.4,5.5c-2.4,0-4.4-2.5-4.4-5.5c0-3,2-5.5,4.4-5.5
						C355.7,613.3,357.6,615.8,357.6,618.8z"/>
					<path class="st4" d="M604.4,384.1c0,3-2,5.5-4.4,5.5c-2.4,0-4.4-2.5-4.4-5.5c0-3,2-5.5,4.4-5.5
						C602.5,378.6,604.4,381.1,604.4,384.1z"/>
					<ellipse class="st5" cx="385.8" cy="366.5" rx="13.9" ry="17.5"/>
				</g>
			</g>
		</g>
		<g style="clip-path:url(#SVGID_00000178900233837757192260000005154252015698174642_);">
			<g>
				<g>
					<path class="st6" d="M446.6,1255.8c-0.2,2.2-0.4,4.5-0.6,6.8c-0.2,1.8-0.4,3.6-0.6,5.4c0.2,0.7,0.4,1.5,0.5,2.2
						c-0.5,3.9-1,11.5,2.7,19.9c1.5,3.5,4.5,10.2,11.8,14.5c1.6,0.9,7.7,4.3,15.9,3.5c3.3-0.3,8.2-0.9,12-4.7
						c5.6-5.7,4.3-14.2,4.1-15.5c-3.1-0.2-34.4-2.4-43.5-23.1C447.8,1262.3,446.9,1259.3,446.6,1255.8z"/>
					<path class="st7" d="M485.6,1266.8c-2.5-5.6-5.1-11.2-7.6-16.8c0.2-5.9,0.3-11.8,0.5-17.7c-10.2-0.6-20.4-1.2-30.6-1.9
						c0,5.4,0,10.9,0,16.3c-0.2,3.3-0.3,7.1,0,11.2c0.3,3.6,0.8,6.9,1.3,9.8C461.3,1267.4,473.4,1267.1,485.6,1266.8z"/>
					<g>
						<path d="M488.7,1272.9c-2.4-6.7-6.6-15.2-8.6-19.5c-0.2-0.5-0.8-1.8-1.5-3.6c-0.3-0.9-0.5-1.6-0.6-2c0,0.7,0,1.5-0.1,2.2
							c0.3,0.9,0.7,2.2,1.2,3.8c0.7,2.2,1.7,5.7,1.3,5.8c-0.1,0.1-0.4-0.2-0.4-0.3c-1.9-2.2-11.4-7.7-21.6-3.9
							c-4,1.5-4.8,3.9-6.7,3.4c-2.8-0.8-3.7-6.6-3.9-11.5c-0.5,2-1,4.9-1.3,8.4c-0.1,1.9-2.3,35.1,16.2,43.7
							c10.3,4.8,25.4,1.2,28.6-5.9c0.8-1.8,0.8-3.8,0.8-6.5C492.2,1283.3,491.4,1280.7,488.7,1272.9z"/>
					</g>
				</g>
				<g>
					<g>
						<path class="st6" d="M558.6,1297.9c-6.3,7.4-26.2,4.5-36.5-5.9c-3.4-3.4-6.2-8.5-11.4-18.3c0,0.1,0,0.3,0,0.4
							c-0.5,0.1-1,0.3-1.6,0.4c-0.5-1.1-1.1-2.3-1.7-3.4c-0.9-1.9-1.9-3.7-2.8-5.5c0.1-1,0.2-2.1,0.4-3.1c0-1.8,0.1-3.8,0.3-6
							c0.1-1.1,0.3-2.1,0.4-3.1c0.8,1.2,2,3.1,3.5,5.3c10.6,15.8,16,23.5,20,26.8c5.1,4.3,14.1,7.8,31.7,4.4
							C561,1292,560.7,1295.3,558.6,1297.9z"/>
					</g>
					<path class="st7" d="M548.4,1271c-3.1-5.5-6.3-10.9-9.4-16.4c-0.9-1.2-1.9-2.8-2.7-4.7c-2.2-5.5-1.5-10.5-0.9-12.9
						c-9.2-1.2-18.4-2.4-27.6-3.6c-0.3,5.3-0.6,10.5-0.8,15.8c0.7,2.7,1.7,5.6,3,8.7c3,7.3,6.8,13.1,10.2,17.4
						C529.5,1273.9,538.9,1272.4,548.4,1271z"/>
					<g>
						<path d="M513.6,1269.1c-3.2-6.2-5.9-11.6-7.9-15.6c0.3-1.6,0.5-2.9,0.7-3.8c0.1-0.9,0.2-1.6,0.4-1.6c0.2,0,0.4,1.2,0.6,2.4
							c2,3.7,3.7,6.5,4.6,7.9c0.3,0.5,1,1.5,2.1,1.8c0.5,0.1,0.9,0.1,1,0c0.7-0.2,2.6-3.2,3.2-3.7c0,0,3.4-3.8,11.8-4.3
							c1.8-0.1,5.6,1,10.5,5.3c-3.3-5.9-3.8-6.4-3.8-6.4c0,0,0.1,0,0.1,0c0,0,0.1,0,0.3,0.2c25.6,29.8,23.6,39.2,23.6,39.2
							c-4.2,7.2-20,8.4-29.3,2.7c-2-1.2-3.3-2.5-5.8-5.1C521.2,1283.5,518.8,1279.3,513.6,1269.1z"/>
					</g>
				</g>
				<g>
					<path d="M454.3,505.7c1.6,5.3,3.9,11.2,7.1,17.5c6.1,12,13.4,21.1,19.5,27.4c13,6.2,28.1,5.1,39.7-2.9
						c12.4-8.6,20.9-25.4,16.4-35.5C530.6,497.8,497.5,494.9,454.3,505.7z"/>
					<g>
						<g>
							<g>
								<path class="st7" d="M481.2,572.5c0.3-5.2,0.4-10.9,0-17.1c-0.2-4-0.6-7.7-1-11.3c-0.3-2.5-0.7-5-1.1-7.3
									c0-0.1,0-0.3-0.1-0.4c8.1,0.3,16.7,0.7,25.5,1.4c0.6,0.1,1.2,0.1,1.8,0.1c7.4,0.6,14.5,1.4,21.4,2.2c0.2,0,0.4,0,0.5,0.1
									c-0.2,0.5-0.3,1.1-0.5,1.8c-0.8,3.1-1.5,7.4-1.3,12.5c0.1,2.2,0.4,4.6,1,7.2c1.2,5.4,3.3,9.7,5.1,12.6
									C515.4,573.7,498.2,573.1,481.2,572.5z"/>
								<path class="st8" d="M527.9,540.2c0,0.6,0,1.2,0,1.9c-0.8,3.1-1.5,7.4-1.3,12.5c-1.1,0.5-2.8,1-5,1.5
									c-3.6,0.7-6.2,0.5-9.6,0.3c-7.1-0.4-8.5-0.1-10.9-0.3c-3.3-0.3-11-1.8-21-11.9c-0.3-2.5-0.7-5-1.1-7.3
									c9.2,0.4,18.3,0.8,27.3,1.2C513.8,538.6,521,539.4,527.9,540.2z"/>
							</g>
							<path class="st7" d="M548.4,491.8c-0.6,8-0.8,16-1.1,22.9c-0.4,3.5-1.4,8.8-4.2,14.7c-1.2,2.5-3.6,5.8-8.6,12.3
								c-6,8.1-8.3,10.3-11.6,11c-1.1,0.2-1.4,0.3-6.2,0.4c-7.6,0.2-8.5,0.5-12.1,0.4c-5.6-0.2-9.7-1.9-12.5-3.1
								c-5.3-2.2-8.3-4.8-13.9-9.5c-5.3-4.5-8.1-7.8-9.8-10.6c-1.3-2.2-4.1-5.7-4.4-15c-0.3-7-0.5-15.3-1.1-23.5
								c-3.3-14.6,1.7-33.4,7.2-42.3c5-6.2,22.9-2.1,36.1-1.9c13.1,0.2,30.5-3.4,35.3,2.8c2.1,4.8,4.2,11,5.6,18.4
								C548.9,478,548.8,485.9,548.4,491.8z"/>
							<g>
								<path class="st9" d="M503.8,496c-1.3,1-4,2.7-7.6,3.1c-6.1,0.8-10.7-2.2-11.9-3.1c2-2.3,4.4-3.9,6.9-4.8
									c1-0.4,2.5-0.8,4.2-0.7C500.1,490.9,503.1,495,503.8,496z"/>
								<path class="st10" d="M501.1,494c0,2.7-2.7,4.9-5.3,4.9c-2.7,0-5.5-2.4-5.2-5.3c0.1-0.9,0.5-1.7,1.1-2.4
									c0.8-0.3,1.6-0.5,2.5-0.6c1,0,2,0.1,2.9,0.4c0.5,0.1,1,0.3,1.5,0.6c1,0.5,1.9,1.1,2.6,1.8C501,493.6,501.1,493.8,501.1,494z
									"/>
								<path d="M493.2,494.3c0.1,1.6,1.5,2.8,3,2.6c1.5-0.2,2.6-1.6,2.5-3.2c-0.1-1.6-1.4-2.8-2.9-2.6
									C494.3,491.3,493.1,492.7,493.2,494.3z"/>
								<path class="st9" d="M492.1,493.4c0,0.6,0.6,1.1,1.1,1c0.6-0.1,1-0.6,1-1.2c0-0.6-0.5-1.1-1.1-1
									C492.5,492.2,492.1,492.8,492.1,493.4z"/>
								<path class="st11" d="M503.9,478c-6.6-0.4-15.3,0-24.4,2.5c-1.7,0.5-4.4,2.3-4.7,5c-0.3,1.8,0.8,3.3,1.4,4.1
									c1-0.9,2.6-2.1,4.7-3.3c2.7-1.5,5.7-2.4,12.5-3.2c3.1-0.4,7.1-0.7,11.5-0.8c0-0.4,0-0.9-0.1-1.5
									C504.7,479.7,504.3,478.7,503.9,478z"/>
								<path class="st11" d="M503.8,496c-0.8-0.9-3.5-3.7-7.8-4.3c-6.6-1-11.3,3.9-11.7,4.4c3.8-5.4,9.8-7.6,14.3-5.6
									C501.7,491.8,503.2,494.8,503.8,496z"/>
							</g>
							<g>
								<path class="st9" d="M524.1,495.4c1.1,0.7,7.6,4.5,14.5,2c2.1-0.8,3.7-1.9,4.8-3c-1.8-2.1-3.9-3.5-6.2-4.3
									c-2.3-0.8-4.8-0.8-7.1,0c-0.8,0.3-1.4,0.6-1.5,0.7C526,492.2,524.7,494.3,524.1,495.4z"/>
								<path class="st10" d="M529.1,493.6c0,2.9,2.9,4.9,5.6,4.7c2.6-0.3,5.3-2.9,5-5.7c-0.1-0.9-0.5-1.7-1-2.3
									c-2.3-0.8-4.8-0.8-7.1,0c-0.5,0.2-1.1,0.4-1.5,0.7C529.4,491.7,529.1,492.6,529.1,493.6z"/>
								<path d="M538.3,493.3c-0.1,1.7-1.4,3-2.9,2.9c-1.5-0.1-2.6-1.5-2.5-3.1c0.1-1.7,1.4-3,2.9-2.9
									C537.3,490.2,538.5,491.6,538.3,493.3z"/>
								<path class="st9" d="M534.1,492.5c0,0.6-0.5,1.1-1.1,1.1c-0.6,0-1-0.6-1-1.2c0-0.6,0.5-1.1,1.1-1.1
									C533.7,491.3,534.1,491.9,534.1,492.5z"/>
								<path class="st11" d="M524.1,475.4c5.7,0.2,12.2,1.4,18.2,4.2c1,0.5,2.5,2.2,2.4,4.3c-0.1,1.5-0.9,2.7-1.3,3.3
									c-0.5-0.7-1.4-1.8-2.6-2.8c-1.7-1.4-3.6-2.3-8.5-3.3c-2.4-0.5-5.6-1.1-9.5-1.4c0-0.4,0.1-0.9,0.2-1.4
									C523.3,477,523.7,476,524.1,475.4z"/>
								<path class="st11" d="M524.1,495.4c0.4-0.5,4.3-5.2,10.6-5c4.8,0.2,7.9,3.2,8.6,4c-0.5-0.9-2.3-4.4-6.1-5.5
									C532.7,487.6,527.1,490.1,524.1,495.4z"/>
							</g>
							<path d="M545.6,434.8c-5.2-4.1-19.2-13.9-39.3-14.6c-6.5-0.3-30.4-1.4-46.3,16.7c-18.8,21.4-10.9,51.2-10.3,52.8
								c1.5,8.2,4.7,19.8,12.2,31.9c3.5,5.7,7.3,10.4,10.7,14.1c-0.9-1.5-2.1-3.9-3-6.9c-1-3.2-1.2-5.6-1.5-9.1
								c-0.2-2.9-0.6-7.4-1.2-13.8c0.9-0.3,3.7,0.1,3.6-0.8c-1-9.3-0.2-15.2,1.1-19.3c1.5-5,3.7-7.4,5-13.4
								c1.3-5.6,1.1-10.4,0.7-13.5c6.7-3.6,19.7-9.4,36.7-9.6c10.7-0.1,19.5,2,25.5,4c0.2,7.3,1.7,12.7,3.1,16.2
								c2.2,5.5,4.8,9,5.7,15.5c0.5,3.5,0.2,6.3,0,8.2c1-4.7,1.8-9.9,2.2-15.5C551.7,460.3,548.8,445.5,545.6,434.8z"/>
							<g>
								<g>
									<path class="st8" d="M524.1,517.6c0.1,0.2-1.2,0.9-3.9,2c-2.4,1.2-5.3,1.3-7.8,0.2c-2.7-1-4-1.6-4-1.8
										c0.1-0.3,2.3,0,6.6,0.8c0.8,0.1,1.6,0.1,2.4-0.1C521.9,517.6,524,517.3,524.1,517.6z"/>
								</g>
							</g>
							<g>
								<path class="st8" d="M521.8,535.3c-2.1,0.5-5.6,1.2-10.1,1c-4.5-0.2-9.5-1.5-9.5-2.3c0-0.6,2.8-0.7,12.3-1.4
									c12.8-1,16.3-1.5,16.4-0.9C531.2,532.6,525.8,534.4,521.8,535.3z"/>
							</g>
							<g>
								<path class="st8" d="M521.8,540.3c0.1,0.6-2.5,2.1-5.3,2.2c-2.9,0.1-5.7-1.1-5.6-1.8c0.1-0.7,3.5-0.8,5.4-0.9
									C518.3,539.8,521.7,539.6,521.8,540.3z"/>
							</g>
						</g>
						<g>
							<polygon class="st11" points="518.5,524 518.8,527.3 535.7,525.9 							"/>
							<polygon class="st11" points="515.1,524.3 515.3,527.6 495,529.2 							"/>
						</g>
						<g>
							<path d="M548.4,449.5c-33.2,1.9-65.9,3.8-98.1,5.6c-0.3-11.4-0.5-22.7-0.8-34.1c31.2-2.2,62.9-4.5,95.1-6.8
								C545.9,426,547.2,437.7,548.4,449.5z"/>
							<g>
								<path class="st12" d="M397.8,454.1l2.1-10c0,0,0.5,0.1,1.6,0.3l0,0c1.1,0.2,2.8,0.4,5,0.8l0,0c4.5,0.6,11.1,1.4,19.8,2.1
									l0,0c17.2,1.4,42.1,2.4,73.2,0.9l0,0c30.5-1.4,55.1-4.7,95.3-12.7l0,0l2.1,9.3c-40.6,8.3-65.7,11.7-96.7,13.3l0,0
									C436.3,461.3,398.2,454.2,397.8,454.1L397.8,454.1z"/>
							</g>
						</g>
						<g>
							<path class="st7" d="M466.8,493.6c-0.3-2.8-3.1-4.9-5.9-4.2c-6.9,1.7-2.1,16.7,0.5,22.5c1.2,2.6,2.5,9.5,7.9,8.3L466.8,493.6
								z"/>
						</g>
					</g>
				</g>
				<g>
					<path class="st7" d="M616.9,929.9c0,0-0.1,9.7-2.8,16.9c-0.5,1.4-2,4.5-2.4,5.3c-0.5,0.9-1,1.7-1,1.7c-0.1,0.1-0.2,0.3-0.3,0.4
						c-0.3,1-1.4,6.5-4.7,9.2c-0.8,0.6-1.8,0.8-2.4,0.7c-1.4,4.3-3,5.9-4.3,6.1c-1.1,0.2-1.8-1-2-1.4c-0.8,0.6-1.9,1.4-2.8,1
						c-2-0.7-1.2-5.8-1.2-15.1c0-1.8-0.2-7.4-0.7-18.6c-0.2-4.5,0.1-5.9,0-8.1c-2.6,8.4-1.1,20.4-7.9,24.5c-0.8,0.5-1.6-0.2-1.4-1.4
						c1.6-11,1.1-17.4,1.4-22.8c0.1-2.2,0.4-4.2,0.9-6.3c7.5-15.5,10.6-23.3,7.7-33.7c-5.6-20.1-6.5-32.3-12.1-53
						c-5.6-20.5-2.5-24-6.1-64.7c-1.5-17.7-4.3-42.9-9.9-73.5c-1.5,7.7-3.6,19.1-6.1,33.1c-1.9,10.6-3.3,18.9-3.5,20.3
						c-4.6,35.7-0.3,65.7,4.3,85.8c-16,3-36.1,5.4-59.4,5.1c-23.9-0.3-44.6-3.4-61-7c4.5-16.9,9.5-43.7,6-76.5
						c-3-27.8-11-50-17.7-65c-5.1,14.8-12,37.6-17.3,66.2c-0.8,4.1-0.8,4.4-2,13.1c-0.2,1.1-1.1,7.7-3,20.7
						c-6.2,42.4-10.3,70.3-16.5,89.4c-0.6,1.9-2.3,6.4-1.5,12.3c0.9,6.4,4.7,12,10.6,19.9c2.3,6.8-0.3,14.6,2.1,29.8
						c0,0.2,0,0.4,0,0.6c0,0.2-0.1,0.4-0.2,0.7c-0.1,0.1-0.1,0.2-0.2,0.3c0,0-0.1,0.1-0.1,0.1c-0.1,0.2-0.2,0.3-0.4,0.4
						c-0.1,0.1-0.2,0.1-0.3,0.2c-0.2,0.1-0.4,0.2-0.7,0.2c0,0,0,0,0,0c-0.2,0-0.5,0-0.7,0c-0.1,0-0.2,0-0.3,0
						c-0.2,0-0.4-0.1-0.5-0.1c-0.1,0-0.1,0-0.2-0.1c0,0-0.1,0-0.1,0c-6.3-1.6-5.1-13-7.4-20.1c-0.2,2.1-0.4,4.2-0.5,6.3
						c0,0.2,0,0.5-0.1,0.8c0,0.3,0,0.5-0.1,0.8c-1,12.6-1.5,18.8-1.5,20.9c-0.3,10.3,0.6,15.3-2,17.5c-1.2,1-2.7,1.1-3.7,0.9
						c-0.3,0.6-1.2,2.5-2.8,3.1c-1.8,0.8-4,0.2-5.8-3.5c-0.9,0.6-2.3,1.1-3.3,1c-4-0.4-5.6-4.5-6.2-6.2c-0.1-0.3-0.2-0.5-0.2-0.6
						c-0.2-0.1-0.4-0.2-0.6-0.4c0,0,0,0,0,0c-0.4-0.3-0.8-0.6-1.2-1.1c-1.7-1.8-2.3-4-2.5-5.2c-2.2-9.3-2.3-13.7-2.3-13.7V947
						c-0.1-4.3-0.5-8.3-0.6-12.2l0-0.2c0-0.9,0-1.7,0-2.6c0-4.2,0.2-8.1,0.3-11.7c0.3-7.5,2-14.8,5.3-21.5c1.5-3.2,3.1-6.5,4.6-10.1
						c-1.7-16.2-2.5-29.5-2.9-38.9c0,0-2.5-57,4.7-109.7c1.3-9.8,2.6-16.9,2.6-16.9c2.6-14.4,4.7-20.9,7.4-43
						c3.6-30.1,5.8-45.2,6.9-49.8c2-8.5,5.7-20.7,13.1-35c9.4-4.4,19.5-8.8,30.3-13c16.3-6.3,31.8-11.3,46.2-15.2
						c10.6,2.7,21.2,5.5,31.8,8.2l27.3-6.3c1,1.5,2,3,3,4.4c12.3,6.9,24.7,13.8,37.4,20.7c7.1,3.9,14.2,7.6,21.2,11.3
						c1.6,7.3,3.9,18.1,6.3,31.2c2.6,14.6,13.4,76.6,12.7,165.8c-0.2,21.4-1.1,49.7-4,83.2c2.1,6.1,4.9,10.4,6.2,16.1
						C616.6,909,617,918.8,616.9,929.9z"/>
					<g>
						<path class="st8" d="M455.1,585.3c8.4-8,32.9-2.9,41.8,6.1L455.1,585.3z"/>
						<path class="st8" d="M551.7,594c-6.9-8.7-28.8-8.2-37.5-1L551.7,594z"/>
						<path class="st8" d="M611.1,953.1c2.5-8.3,3.3-19.6,2-27.8c0.1,4.7,0,10.6-0.8,17.4c-0.5,4.4-1.2,8.5-2,12.1L611.1,953.1z"/>
						<path class="st8" d="M603.4,964.2c4.6-11,5.9-31,2.7-40.7c0.7,5.1,1.1,12.1,0.5,20.7C606,952.1,604.6,959,603.4,964.2z"/>
						<path class="st8" d="M597,968.8c4.4-10.6,4.8-31,3.1-40.7c0.5,7,0.5,15.8-0.7,26.2C598.8,959.6,598,964.5,597,968.8z"/>
						<path class="st8" d="M362,966.1c-3.4-7.6-4.2-20-2.1-30.3c-0.4,5.5-0.4,12.2,0.6,19.4c0.6,4.7,1.5,8.8,2.5,12.3L362,966.1z"/>
						<path class="st8" d="M372.6,972.8c-6.2-8.9-7.4-30.7-2.4-43.8c-1.1,6.2-2,14.4-1.4,23.7C369.4,961.1,371,967.9,372.6,972.8z"
							/>
						<path class="st8" d="M381.2,973.1c-5.7-8.5-5.6-30.9-2.9-42.9c-0.9,8-1.2,17.9,0.1,28.6C379.1,964.2,380.1,969,381.2,973.1z"
							/>
					</g>
					<g>
						<path class="st9" d="M401,861.8c-6.3,8.2-29.1,12.3-35,5.6c-25.6-7-14.1-32.2-6-114.3c8.6-86.8,18.4-182.7,49.2-163l19,103.1
							C428.3,693.2,426.2,856.1,401,861.8z"/>
						<path class="st9" d="M410.6,890.3c0,0-62,16.1-68.4-0.6c-3.3-8.5,21.1-33.3,21.1-33.3l35.5-1.4L410.6,890.3z"/>
						<g>
							<path class="st9" d="M508.2,564.5c-2.4-2.7-5.9-3.6-15.2-5.4c-5.3-1-11.9-2.1-19.7-3.2c-0.2,3.6-0.5,7.1-0.7,10.7
								c12.7,2.1,25.4,4.3,38.1,6.4C510.9,570.8,510.7,567.4,508.2,564.5z"/>
							<path class="st9" d="M513.4,565.2c2-1.8,4.5-2.1,8.4-2.7c2.8-0.4,6.9-0.7,12-0.1c0.8,3.5,1.6,7.1,2.3,10.6
								c-8.5,0-17.1,0-25.7,0C510.5,571.8,510.4,567.9,513.4,565.2z"/>
						</g>
						<path class="st9" d="M440.9,771c22.9,0.4,45.6,0.7,68.2,1.1c0.4-66.6,0.7-133.2,1.1-199.9c-12.5-1.9-25-3.8-37.6-5.6
							c-1.8,0.6-3.6,1.1-5.5,1.7c-12.8,29.6-25.7,59.3-38.6,89C432.7,695.3,436.8,733.2,440.9,771z"/>
						<path class="st9" d="M583.3,876.8c5,4.9,22.5,0,26.9-7.7c17.9-14,11.4-65.6,7.3-132.2c-4.5-72.3-9.8-154.5-34.4-142.1
							l-18.7,94C564.4,688.9,561.7,881.5,583.3,876.8z"/>
						<path class="st9" d="M567.7,899.8c0,0,45.8,12.9,54.2-2.6c4.2-7.7-11.1-29.3-11.1-29.3l-27.8,4.3L567.7,899.8z"/>
						<path class="st9" d="M561.2,773.7c-17.3-0.5-34.7-1-52.1-1.6c0.4-66.6,0.7-133.2,1.1-199.9c8.7,0.2,17.4,0.4,26.1,0.6
							c3,1.4,6.1,2.7,9.1,4.1c9.6,28.6,19.1,56.9,28.6,84.9C569.7,699.1,565.5,736.4,561.2,773.7z"/>
						<path class="st13" d="M512.3,772.1c-1.1,0-2.2,0-3.3,0c0.3-65.9,0.5-131.8,0.8-197.7c1.5,0.1,2.9,0.2,4.4,0.3
							C513.6,640.5,513,706.3,512.3,772.1z"/>
					</g>
					<g>
						<path d="M497.9,586.1c0.8,55.9,1.6,111.8,2.4,167.7c-22.1,4.4-44.3,8.8-66.4,13.2c-4.7-29.1-9.1-58.8-13.4-89
							c-4.1-29.8-7.9-59.1-11.3-87.9c8.7-3.9,18-7.8,27.9-11.5c10.4-3.9,20.4-7.4,29.9-10.3C477.4,574.2,487.7,580.2,497.9,586.1z"
							/>
						<path d="M525,585.3c-1.5,56.3-3.1,112.6-4.6,168.8c14.9,3.5,29.7,7,44.6,10.6c6-56.6,12.1-113.2,18.1-169.9
							c-12.6-6-25.2-11.9-37.8-17.9C538.6,579.7,531.8,582.5,525,585.3z"/>
					</g>
					<path d="M575.3,1074.9c-4.1,44.1-12.1,101.6-29.1,167.8c-16.3,0.3-32.6,0.5-48.8,0.8c6.3-52.2,11.1-108.8,13.3-169.4
						c2.3-64.1,5.6-124.2,2.7-179.3c-1.1-0.1-2.4,0.1-3.5,0.1c2.5,56.7-1.2,118.2-4.2,183.9c-2.7,58.5-7.7,113.4-14.1,164.3
						c-18,0.4-36,0.8-53.9,1.2c-10.5-47.5-19.1-102.5-22.7-163.7c-6.4-108.1,5-201.5,19.8-273.7c5.9-2.3,14.3-4.9,24.6-6.6
						c3.5-0.6,7.7-1.1,12.3-1.3c12-0.6,22.2,0.6,30,2.1l3.8-0.5c4-2.6,13.7-8.3,27.3-8.6c16.5-0.4,28.1,7.3,31.8,9.9
						c0.8,4.3,2,10.9,3.3,19C573.4,854.6,586.9,949.7,575.3,1074.9z"/>
					<g>
						<path class="st12" d="M567.6,817.1c-44.6-1.1-89.3-2.3-134.2-3.4c3.3-14.6,6.5-29.1,9.8-43.6c38.9,1.2,77.6,2.4,116.2,3.6
							C562.1,788.1,564.8,802.6,567.6,817.1z"/>
						<path class="st14" d="M484.4,901.3c-3.6,68.2-17.8,125.3-32.1,168.1c-6.4-20.5-12.9-45.6-17.5-74.7
							c-6.3-40.3-6.8-74.3-5.9-98.3c0.8-22.5,3.3-50.6,9.6-82.5c14.9,0.4,29.7,0.9,44.6,1.3C485.2,840.9,486.1,869.8,484.4,901.3z"
							/>
					</g>
				</g>
			</g>
		</g>
	</g>
	<g>
		<path class="st15" d="M729.8,287.3c-0.8-36.7-30.7-66.2-67.6-66.2c-22.4,0-42.3,10.9-54.6,27.7c-4-1.9-8.4-3-13.1-3
			c-16.6,0-30.1,13.5-30.1,30.1c0,0.8,0,1.6,0.1,2.4c-13.1,7-22,20.7-22,36.6c0,22.9,18.6,41.4,41.4,41.4c6.8,0,13.2-1.6,18.8-4.5
			c6.8,16.6,23.2,28.3,42.3,28.3c17.6,0,32.8-9.9,40.5-24.5c6.7,4.8,14.9,7.7,23.8,7.7c22.5,0,40.8-18.2,40.8-40.8
			C750.2,307.5,742,294.3,729.8,287.3z"/>
		<path class="st15" d="M621.2,359.3c0,11.5-9.3,20.9-20.9,20.9c-11.5,0-20.9-9.3-20.9-20.9c0-11.5,9.3-20.9,20.9-20.9
			C611.9,338.4,621.2,347.7,621.2,359.3z"/>
		<path class="st15" d="M592.7,389.2c0,7.3-5.9,13.1-13.1,13.1c-7.3,0-13.1-5.9-13.1-13.1c0-7.3,5.9-13.1,13.1-13.1
			C586.8,376.1,592.7,381.9,592.7,389.2z"/>
		<path class="st15" d="M586.1,414.2c0,3.6-2.9,6.6-6.6,6.6c-3.6,0-6.6-2.9-6.6-6.6c0-3.6,2.9-6.6,6.6-6.6
			C583.2,407.6,586.1,410.6,586.1,414.2z"/>
	</g>
</g>
</svg>
