<?xml version="1.0" encoding="utf-8"?>
<!-- Generator: Adobe Illustrator 26.0.1, SVG Export Plug-In . SVG Version: 6.00 Build 0)  -->
<svg version="1.1" id="Layer_1" xmlns="http://www.w3.org/2000/svg" xmlns:xlink="http://www.w3.org/1999/xlink" x="0px" y="0px"
	 viewBox="0 0 1000 768" style="enable-background:new 0 0 1000 768;" xml:space="preserve">
<style type="text/css">
	.st0{fill:#F2D7B9;}
	.st1{clip-path:url(#SVGID_00000111892682848634253020000010921305589330192821_);}
	.st2{fill:#E09A61;}
	.st3{fill:#C47947;}
	.st4{fill:#FFFFFF;}
	.st5{fill:#8A5D3B;}
	.st6{fill:#3B2314;}
	.st7{fill:#DC2428;}
	.st8{clip-path:url(#SVGID_00000111181314051950699560000017379977277862921347_);}
	.st9{clip-path:url(#SVGID_00000054226883238232582710000002456729528501537666_);}
	.st10{clip-path:url(#SVGID_00000143608702485721194340000016787241835466815108_);}
	.st11{clip-path:url(#SVGID_00000055675427377050058880000015905758771373227654_);}
	.st12{fill:#D38854;}
	.st13{clip-path:url(#SVGID_00000018918782452416559290000010389331305816894642_);}
</style>
<g>
	<g>
		<path class="st0" d="M312.6,191.1c0,55.6-37.2,102.5-88.1,117.1c-2,0.6-4,1.1-6,1.6c-8.9,2.1-18.1,3.2-27.7,3.2
			c-7.7,0-15.1-0.7-22.4-2.1c-1.1-0.2-2.2-0.4-3.3-0.7c-54.9-11.8-96.1-60.6-96.1-119.1c0-67.3,54.6-121.8,121.8-121.8
			C258.1,69.2,312.6,123.8,312.6,191.1z"/>
		<path class="st0" d="M625.6,191.1c0,57.1-39.2,105-92.2,118.2c-0.6,0.2-1.3,0.3-2,0.5c-8.9,2.1-18.1,3.2-27.6,3.2
			c-8.8,0-17.4-0.9-25.7-2.7c-0.1,0-0.1,0-0.2,0c-54.8-11.9-95.9-60.7-95.9-119.1c0-67.3,54.6-121.8,121.8-121.8
			C571.1,69.2,625.6,123.8,625.6,191.1z"/>
		<path class="st0" d="M934.7,191.1c0,56.9-39.1,104.8-91.9,118.1c-0.8,0.2-1.5,0.4-2.3,0.6c-8.9,2.1-18.1,3.2-27.7,3.2
			c-8.8,0-17.4-0.9-25.7-2.7c-0.2,0-0.4-0.1-0.6-0.1c-54.6-12-95.5-60.7-95.5-119c0-67.3,54.5-121.8,121.8-121.8
			S934.7,123.8,934.7,191.1z"/>
		<path class="st0" d="M312.6,576.9c0,56.7-38.7,104.3-91.1,117.9c-1,0.3-2.1,0.5-3.1,0.8c-8.9,2.1-18.1,3.2-27.7,3.2
			c-8.3,0-16.5-0.8-24.3-2.4c-0.4-0.1-0.9-0.2-1.3-0.3c-54.9-11.8-96.1-60.6-96.1-119.1c0-67.3,54.6-121.8,121.8-121.8
			C258.1,455.1,312.6,509.6,312.6,576.9z"/>
		<path class="st0" d="M625.6,576.9c0,57.8-40.2,106.2-94.2,118.7c-0.7,0.2-1.4,0.3-2,0.5c-8.2,1.8-16.8,2.7-25.6,2.7
			c-8.8,0-17.4-0.9-25.7-2.7c-1.3-0.3-2.5-0.6-3.8-0.9c-53-13.2-92.4-61.1-92.4-118.2c0-67.3,54.6-121.8,121.8-121.8
			C571.1,455.1,625.6,509.6,625.6,576.9z"/>
		<path class="st0" d="M934.7,576.9c0,57.8-40.2,106.2-94.2,118.7c-1.1,0.3-2.3,0.5-3.4,0.7c-7.8,1.6-15.9,2.4-24.2,2.4
			c-8.8,0-17.4-0.9-25.7-2.7c-1.7-0.4-3.4-0.8-5.1-1.2c-52.4-13.7-91-61.3-91-117.9c0-67.3,54.5-121.8,121.8-121.8
			S934.7,509.6,934.7,576.9z"/>
	</g>
	<g>
		<defs>
			<path id="SVGID_1_" d="M312.6,191.1c0,56.7-38.7,104.3-91.1,117.9c-1,0.3-2.1,0.5-3.1,0.8c-8.9,2.1-18.1,3.2-27.7,3.2
				c-8.8,0-17.4-0.9-25.7-2.7c-0.9-0.2-1.9-0.4-2.8-0.6c-53.6-12.8-93.4-61-93.4-118.5c0-67.3,54.5-121.8,121.8-121.8
				C258.1,69.2,312.6,123.8,312.6,191.1z"/>
		</defs>
		<clipPath id="SVGID_00000166653309430054425700000006190640467191755905_">
			<use xlink:href="#SVGID_1_"  style="overflow:visible;"/>
		</clipPath>
		<g style="clip-path:url(#SVGID_00000166653309430054425700000006190640467191755905_);">
			<g>
				<g>
					<g>
						<polygon class="st2" points="228.8,349 151.3,349 152,342 153.3,328.3 153.4,328.2 156.7,295.6 159.2,270.8 220.9,270.8 
							223.3,294.5 226.5,326.8 226.7,328.4 228.1,342.6 						"/>
						<path class="st3" d="M223.3,294.5c-6.6,5.5-13.1,8.9-18.1,11.1c-1.4,0.6-2.9,0.9-4.4,0.8c-3.6-0.1-7.4-0.2-11.3-0.2
							c-4,0-7.8,0.1-11.5,0.2c-1.5,0.1-3-0.2-4.4-0.8c-4.7-2-10.7-5.2-16.8-10l2.5-24.8h61.7L223.3,294.5z"/>
					</g>
					<g>
						<path class="st2" d="M244.5,210.3c18.1-8.1,11.2,19.3,7.6,28.8c-1.3,3.5-2.7,12.9-9.6,11.6L244.5,210.3z"/>
						<path class="st2" d="M134.4,210.3c-18.1-8.1-11.2,19.3-7.6,28.8c1.3,3.5,2.7,12.9,9.6,11.6L134.4,210.3z"/>
					</g>
					<path class="st2" d="M245,214.8c-0.8,11-1.1,22-1.4,31.5c-0.5,4.9-1.9,12.1-5.6,20.2c-1.3,2.7-4.7,9.6-11.4,16.8
						c-7.8,8.4-16.4,13.2-22.6,15.9c-1.4,0.6-2.8,0.9-4.3,0.8c-3.4-0.1-6.9-0.1-10.4-0.1c-3.5,0-6.9,0.1-10.2,0.1
						c-1.5,0-3-0.2-4.3-0.8c-6.2-2.7-14.8-7.5-22.6-15.9c-6.7-7.2-10.1-14.1-11.4-16.8c-3.7-8-5.1-15.3-5.6-20.2
						c-0.3-9.4-0.7-20.5-1.4-31.5c-4.1-19.5,2.2-44.7,9.2-56.7c6.4-8.4,29.3-3.2,46.5-3.2c17.2,0,40.1-5.2,46.5,3.2
						C242.8,170.1,249.1,195.3,245,214.8z"/>
					<g>
						<path class="st4" d="M175.2,220.4c-2.1,1.1-6.5,3-12.4,2.7c-7.6-0.3-12.8-4.1-14.6-5.5c2.6-2.4,5.6-4.1,8.8-4.9
							c3.2-0.8,6.5-0.7,9.6,0.4c0.7,0.2,1.4,0.6,2,0.9C172.4,216,174.4,219.1,175.2,220.4z"/>
						<path class="st5" d="M169.6,217.4c-0.3,3.5-4.4,5.9-7.9,5.4c-3.5-0.5-6.8-3.8-6.2-7.3c0.2-1.1,0.8-2,1.6-2.8
							c3.2-0.8,6.5-0.7,9.6,0.4c0.7,0.2,1.4,0.6,2,0.9C169.3,215,169.7,216.1,169.6,217.4z"/>
						<path d="M159.4,216.5c0,2,1.7,3.7,3.7,3.7c2,0,3.7-1.7,3.7-3.7c0-2-1.7-3.7-3.7-3.7C161,212.8,159.4,214.4,159.4,216.5z"/>
						<path class="st4" d="M157.7,215.8c0,0.8,0.6,1.4,1.4,1.4s1.4-0.6,1.4-1.4c0-0.8-0.6-1.4-1.4-1.4S157.7,215,157.7,215.8z"/>
						<path class="st6" d="M201.2,202.4c8.9,2.1,19.7,3.3,30.5,2.1c1.9-0.2,5-1.8,6-4.6c0.7-1.9,0-3.9-0.4-4.9
							c-1.2,0.7-3.1,1.8-5.6,2.6c-3.3,1.1-6.8,1.5-15,0.8c-4-0.3-9.3-0.9-15.5-2.1c-0.2,0.6-0.3,1.2-0.4,2
							C200.8,200,201,201.4,201.2,202.4z"/>
						<path class="st6" d="M175.2,220.4c-1-1.1-5.7-5.9-13.4-6.5c-7.1-0.6-12.1,2.8-13.5,3.7c0.3-0.4,5.7-7.1,14.4-6.1
							C171.2,212.5,175,219.9,175.2,220.4z"/>
					</g>
					<g>
						<path class="st4" d="M203.6,220.4c2.1,1.1,6.5,3,12.4,2.7c7.6-0.3,12.8-4.1,14.6-5.5c-2.6-2.4-5.6-4.1-8.8-4.9
							c-3.2-0.8-6.5-0.7-9.6,0.4c-0.7,0.2-1.4,0.6-2,0.9C206.5,216,204.4,219.1,203.6,220.4z"/>
						<path class="st5" d="M209.3,217.4c0.3,3.5,4.4,5.9,7.9,5.4c3.5-0.5,6.8-3.8,6.2-7.3c-0.2-1.1-0.8-2-1.6-2.8
							c-3.2-0.8-6.5-0.7-9.6,0.4c-0.7,0.2-1.4,0.6-2,0.9C209.6,215,209.2,216.1,209.3,217.4z"/>
						<path d="M219.5,216.5c0,2-1.7,3.7-3.7,3.7c-2,0-3.7-1.7-3.7-3.7c0-2,1.7-3.7,3.7-3.7C217.8,212.8,219.5,214.4,219.5,216.5z"/>
						<path class="st4" d="M221.2,215.8c0,0.8-0.6,1.4-1.4,1.4s-1.4-0.6-1.4-1.4c0-0.8,0.6-1.4,1.4-1.4S221.2,215,221.2,215.8z"/>
						<path class="st6" d="M177.6,202.4c-8.9,2.1-19.7,3.3-30.5,2.1c-1.9-0.2-5-1.8-6-4.6c-0.7-1.9,0-3.9,0.4-4.9
							c1.2,0.7,3.1,1.8,5.6,2.6c3.3,1.1,6.8,1.5,15,0.8c4-0.3,9.3-0.9,15.5-2.1c0.2,0.6,0.3,1.2,0.4,2
							C178.1,200,177.9,201.4,177.6,202.4z"/>
						<path class="st6" d="M203.6,220.4c1-1.1,5.7-5.9,13.4-6.5c7.1-0.6,12.1,2.8,13.5,3.7c-0.3-0.4-5.7-7.1-14.4-6.1
							C207.6,212.5,203.9,219.9,203.6,220.4z"/>
					</g>
					<path d="M248.8,141.3c-6.9-11.2-33.7-23.4-59.4-23.6c-25.7,0.1-52.5,12.4-59.4,23.6c-14.6,14.6-11.9,53.5-6,69.9
						c0,0,2.3-4.3,10.3-0.9c-2.1-10.3,1-41.9,11.2-54c10.7-3.3,24.6-1.3,43.9-0.4c19.2-0.9,33.2-2.9,43.9,0.4
						c10.2,12.1,13.4,43.7,11.2,54c8.1-3.4,10.3,0.9,10.3,0.9C260.7,194.8,263.4,155.9,248.8,141.3z"/>
					<g>
						<g>
							<path class="st3" d="M199.9,250.3l-5.2,2.6c-3.2,1.6-7,1.6-10.2,0l-5.2-2.6l8.6,1.2c1.1,0.2,2.1,0.2,3.2,0L199.9,250.3z"/>
						</g>
					</g>
					<g>
						<path class="st3" d="M171.2,264.7c4.1-0.4,15.8-1.3,26.8,6c2,1.4,6.4,4.6,5.9,5.7c-0.6,1.3-7.4-1.7-19.8-4.7
							c-13.1-3.2-21.1-3.6-21-5C163,265.4,170.3,264.7,171.2,264.7z"/>
					</g>
					<g>
						<path class="st3" d="M190.8,282.3c-0.1,0.5-3.3,0.1-7.1-0.9c-3.8-1-6.8-2.3-6.6-2.8c0.1-0.5,3.3-0.1,7.1,0.9
							C187.9,280.5,190.9,281.8,190.8,282.3z"/>
					</g>
				</g>
			</g>
			<g>
				<polygon class="st6" points="191.9,260 191.1,264.4 217.2,269.3 				"/>
				<path class="st6" d="M187.5,259.1l-0.8,4.4c-4.7-0.9-9.4-1.8-14.1-2.6c-4-0.7-8-1.5-12-2.2c0.1,0,13.3,0.2,13.4,0.2
					C174.1,258.9,187.4,259.1,187.5,259.1z"/>
			</g>
			<g>
				<g>
					<polygon points="258.8,156 120.1,156 127.8,106.4 251,106.4 					"/>
					<g>
						<path class="st7" d="M42.3,153.4l3.5-13.5c0,0,0.6,0.2,2,0.5l0,0c1.4,0.3,3.5,0.8,6.3,1.3l0,0c5.6,1.1,14,2.6,25,4.1l0,0
							c22,3,54.4,6,95.8,6l0,0c41.5,0,91.9-3,150.1-12.1l0,0l2.2,13.8c-58.9,9.2-110.1,12.3-152.3,12.3l0,0
							C90.6,165.8,42.7,153.5,42.3,153.4L42.3,153.4z"/>
					</g>
				</g>
			</g>
		</g>
	</g>
	<g>
		<defs>
			<path id="SVGID_00000091710858500787345750000010508742700199187898_" d="M312.6,576.9c0,56.7-38.7,104.3-91.1,117.9
				c-1,0.3-2.1,0.5-3.1,0.8c-8.9,2.1-18.1,3.2-27.7,3.2c-8.8,0-17.4-0.9-25.7-2.7c-0.9-0.2-1.9-0.4-2.8-0.6
				c-53.6-12.8-93.4-61-93.4-118.5c0-67.3,54.5-121.8,121.8-121.8C258.1,455.1,312.6,509.6,312.6,576.9z"/>
		</defs>
		<clipPath id="SVGID_00000036954439037675121230000017694720632678165947_">
			<use xlink:href="#SVGID_00000091710858500787345750000010508742700199187898_"  style="overflow:visible;"/>
		</clipPath>
		<g style="clip-path:url(#SVGID_00000036954439037675121230000017694720632678165947_);">
			<g>
				<g>
					<g>
						<polygon class="st2" points="228.8,734.8 151.3,734.8 152,727.8 153.3,714.2 153.4,714 156.7,681.5 159.2,656.7 220.9,656.7 
							223.3,680.4 226.5,712.7 226.7,714.3 228.1,728.5 						"/>
						<path class="st3" d="M223.3,680.4c-6.6,5.5-13.1,8.9-18.1,11.1c-1.4,0.6-2.9,0.9-4.4,0.8c-3.6-0.1-7.4-0.2-11.3-0.2
							c-4,0-7.8,0.1-11.5,0.2c-1.5,0.1-3-0.2-4.4-0.8c-4.7-2-10.7-5.2-16.8-10l2.5-24.8h61.7L223.3,680.4z"/>
					</g>
					<g>
						<path class="st2" d="M244.5,596.1c18.1-8.1,11.2,19.3,7.6,28.8c-1.3,3.5-2.7,12.9-9.6,11.6L244.5,596.1z"/>
						<path class="st2" d="M134.4,596.1c-18.1-8.1-11.2,19.3-7.6,28.8c1.3,3.5,2.7,12.9,9.6,11.6L134.4,596.1z"/>
					</g>
					<path class="st2" d="M245,600.7c-0.8,11-1.1,22-1.4,31.5c-0.5,4.9-1.9,12.1-5.6,20.2c-1.3,2.7-4.7,9.6-11.4,16.8
						c-7.8,8.4-16.4,13.2-22.6,15.9c-1.4,0.6-2.8,0.9-4.3,0.8c-3.4-0.1-6.9-0.1-10.4-0.1c-3.5,0-6.9,0.1-10.2,0.1
						c-1.5,0-3-0.2-4.3-0.8c-6.2-2.7-14.8-7.5-22.6-15.9c-6.7-7.2-10.1-14.1-11.4-16.8c-3.7-8-5.1-15.3-5.6-20.2
						c-0.3-9.4-0.7-20.5-1.4-31.5c-4.1-19.5,2.2-44.7,9.2-56.7c6.4-8.4,29.3-3.2,46.5-3.2c17.2,0,40.1-5.2,46.5,3.2
						C242.8,556,249.1,581.2,245,600.7z"/>
					<g>
						<path class="st4" d="M175.5,604.2c-1.9,1.4-6,3.9-11.8,4.5c-7.6,0.8-13.3-2.1-15.2-3.2c2.2-2.8,4.9-4.9,7.9-6.1
							c3-1.3,6.3-1.7,9.5-1c0.7,0.1,1.4,0.3,2.1,0.6C172,600.3,174.6,603,175.5,604.2z"/>
						<path class="st5" d="M169.5,602c0.3,3.5-3.4,6.5-7,6.5c-3.6,0.1-7.3-2.8-7.2-6.2c0-1.1,0.5-2.1,1.1-3c3-1.3,6.3-1.7,9.5-1
							c0.7,0.1,1.4,0.3,2.1,0.6C168.9,599.7,169.4,600.8,169.5,602z"/>
						<path d="M159.3,602.7c0.3,2,2.2,3.4,4.2,3.1c2-0.3,3.4-2.2,3.1-4.2c-0.3-2-2.2-3.4-4.2-3.1C160.4,598.8,159,600.7,159.3,602.7
							z"/>
						<path class="st4" d="M157.5,602.3c0.1,0.8,0.8,1.3,1.6,1.2c0.8-0.1,1.3-0.8,1.2-1.6c-0.1-0.8-0.8-1.3-1.6-1.2
							S157.4,601.5,157.5,602.3z"/>
						<path class="st6" d="M201.2,588.3c8.9,2.1,19.7,3.3,30.5,2.1c1.9-0.2,5-1.8,6-4.6c0.7-1.9,0-3.9-0.4-4.9
							c-1.2,0.7-3.1,1.8-5.6,2.6c-3.3,1.1-6.8,1.5-15,0.8c-4-0.3-9.3-0.9-15.5-2.1c-0.2,0.6-0.3,1.2-0.4,2
							C200.8,585.8,201,587.3,201.2,588.3z"/>
						<path class="st6" d="M175.5,604.2c-1.2-1-6.5-5-14.3-4.4c-7.1,0.5-11.6,4.6-12.8,5.7c0.2-0.4,4.6-7.9,13.4-8.2
							C170.4,597,175.2,603.7,175.5,604.2z"/>
					</g>
					<g>
						<path class="st4" d="M203.3,603.7c1.9,1.4,5.9,4.1,11.7,4.9c7.5,1.1,13.3-1.7,15.3-2.7c-2.1-2.9-4.8-5-7.7-6.4
							c-3-1.4-6.3-1.9-9.5-1.3c-0.7,0.1-1.5,0.3-2.1,0.5C206.9,599.9,204.3,602.6,203.3,603.7z"/>
						<path class="st5" d="M209.4,601.8c-0.4,3.5,3.2,6.6,6.8,6.7c3.6,0.2,7.4-2.5,7.4-6c0-1.1-0.4-2.2-1-3c-3-1.4-6.3-1.9-9.5-1.3
							c-0.7,0.1-1.5,0.3-2.1,0.5C210.1,599.5,209.5,600.6,209.4,601.8z"/>
						<path d="M219.6,602.8c-0.4,2-2.3,3.3-4.3,3c-2-0.4-3.3-2.3-3-4.3c0.4-2,2.3-3.3,4.3-3C218.6,598.8,220,600.8,219.6,602.8z"/>
						<path class="st4" d="M221.3,602.4c-0.1,0.8-0.9,1.3-1.6,1.1s-1.3-0.9-1.1-1.6c0.1-0.8,0.9-1.3,1.6-1.1
							S221.5,601.7,221.3,602.4z"/>
						<path class="st6" d="M177.6,588.3c-8.9,2.1-19.7,3.3-30.5,2.1c-1.9-0.2-5-1.8-6-4.6c-0.7-1.9,0-3.9,0.4-4.9
							c1.2,0.7,3.1,1.8,5.6,2.6c3.3,1.1,6.8,1.5,15,0.8c4-0.3,9.3-0.9,15.5-2.1c0.2,0.6,0.3,1.2,0.4,2
							C178.1,585.8,177.9,587.3,177.6,588.3z"/>
						<path class="st6" d="M203.3,603.7c1.2-0.9,6.7-4.8,14.4-4c7.1,0.7,11.4,4.9,12.6,6.1c-0.2-0.4-4.3-8-13.1-8.6
							C208.7,596.7,203.6,603.3,203.3,603.7z"/>
					</g>
					<path d="M248.8,527.1c-6.9-11.2-33.7-23.4-59.4-23.6c-25.7,0.1-52.5,12.4-59.4,23.6c-14.6,14.6-11.9,53.5-6,69.9
						c0,0,2.3-4.3,10.3-0.9c-2.1-10.3,1-41.9,11.2-54c10.7-3.3,24.6-1.3,43.9-0.4c19.2-0.9,33.2-2.9,43.9,0.4
						c10.2,12.1,13.4,43.7,11.2,54c8.1-3.4,10.3,0.9,10.3,0.9C260.7,580.6,263.4,541.8,248.8,527.1z"/>
					<g>
						<g>
							<path class="st3" d="M199.9,636.1l-5.2,2.6c-3.2,1.6-7,1.6-10.2,0l-5.2-2.6l8.6,1.2c1.1,0.2,2.1,0.2,3.2,0L199.9,636.1z"/>
						</g>
					</g>
					<g>
						<path class="st3" d="M196.7,664c0,0.5-3.2,0.8-7.2,0.7c-3.9-0.2-7.1-0.7-7.1-1.3c0-0.5,3.2-0.8,7.2-0.7
							C193.6,662.9,196.7,663.5,196.7,664z"/>
					</g>
					<g>
						<path class="st3" d="M188.6,653.3c10.5-0.1,19.3,5.3,19,6.4c-0.3,0.9-6.8-1.5-18.5-1.6c-12,0-18.8,2.5-19.1,1.6
							C169.6,658.6,178.2,653.3,188.6,653.3z"/>
					</g>
				</g>
			</g>
			<g>
				<polygon class="st6" points="192.4,644 191.6,648.4 217.6,653.3 				"/>
				<path class="st6" d="M186,643.7l0.6,4.5c-4.7,0.7-9.4,1.4-14.2,2.1c-4,0.6-8,1.2-12.1,1.8c0.1,0,12.6-4.1,12.7-4.1
					C173.2,647.8,185.9,643.7,186,643.7z"/>
			</g>
			<g>
				<g>
					<polygon points="258.8,541.8 120.1,541.8 127.8,492.3 251,492.3 					"/>
					<g>
						<path class="st7" d="M42.3,539.2l3.5-13.5c0,0,0.6,0.2,2,0.5l0,0c1.4,0.3,3.5,0.8,6.3,1.3l0,0c5.6,1.1,14,2.6,25,4.1l0,0
							c22,3,54.4,6,95.8,6l0,0c41.5,0,91.9-3,150.1-12.1l0,0l2.2,13.8c-58.9,9.2-110.1,12.3-152.3,12.3l0,0
							C90.6,551.6,42.7,539.3,42.3,539.2L42.3,539.2z"/>
					</g>
				</g>
			</g>
		</g>
	</g>
	<g>
		<defs>
			<path id="SVGID_00000170996876218133787690000014635211812346704827_" d="M934.7,191.1c0,56.7-38.7,104.3-91.1,117.9
				c-1,0.3-2.1,0.5-3.1,0.8c-8.9,2.1-18.1,3.2-27.7,3.2c-8.8,0-17.4-0.9-25.7-2.7c-0.9-0.2-1.9-0.4-2.8-0.6
				c-53.6-12.8-93.4-61-93.4-118.5c0-67.3,54.5-121.8,121.8-121.8C880.2,69.2,934.7,123.8,934.7,191.1z"/>
		</defs>
		<clipPath id="SVGID_00000095302430433608314780000005967879885125388731_">
			<use xlink:href="#SVGID_00000170996876218133787690000014635211812346704827_"  style="overflow:visible;"/>
		</clipPath>
		<g style="clip-path:url(#SVGID_00000095302430433608314780000005967879885125388731_);">
			<g>
				<g>
					<g>
						<polygon class="st2" points="850.9,349 773.4,349 774.1,342 775.4,328.3 775.5,328.2 778.8,295.6 781.3,270.8 843,270.8 
							845.4,294.5 848.6,326.8 848.8,328.4 850.2,342.6 						"/>
						<path class="st3" d="M845.4,294.5c-6.6,5.5-13.1,8.9-18.1,11.1c-1.4,0.6-2.9,0.9-4.4,0.8c-3.6-0.1-7.4-0.2-11.3-0.2
							c-4,0-7.8,0.1-11.5,0.2c-1.5,0.1-3-0.2-4.4-0.8c-4.7-2-10.7-5.2-16.8-10l2.5-24.8H843L845.4,294.5z"/>
					</g>
					<g>
						<path class="st2" d="M866.6,210.3c18.1-8.1,11.2,19.3,7.6,28.8c-1.3,3.5-2.7,12.9-9.6,11.6L866.6,210.3z"/>
						<path class="st2" d="M756.5,210.3c-18.1-8.1-11.2,19.3-7.6,28.8c1.3,3.5,2.7,12.9,9.6,11.6L756.5,210.3z"/>
					</g>
					<path class="st2" d="M867.1,214.8c-0.8,11-1.1,22-1.4,31.5c-0.5,4.9-1.9,12.1-5.6,20.2c-1.3,2.7-4.7,9.6-11.4,16.8
						c-7.8,8.4-16.4,13.2-22.6,15.9c-1.4,0.6-2.8,0.9-4.3,0.8c-3.4-0.1-6.9-0.1-10.4-0.1c-3.5,0-6.9,0.1-10.2,0.1
						c-1.5,0-3-0.2-4.3-0.8c-6.2-2.7-14.8-7.5-22.6-15.9c-6.7-7.2-10.1-14.1-11.4-16.8c-3.7-8-5.1-15.3-5.6-20.2
						c-0.3-9.4-0.7-20.5-1.4-31.5c-4.1-19.5,2.2-44.7,9.2-56.7c6.4-8.4,29.3-3.2,46.5-3.2c17.2,0,40.1-5.2,46.5,3.2
						C864.9,170.1,871.2,195.3,867.1,214.8z"/>
					<g>
						<path class="st6" d="M798.2,192.3c-9.1,0.6-19.8,2.6-29.8,6.9c-1.7,0.7-4.3,3.2-4.4,6.2c-0.1,2,1.1,3.7,1.8,4.6
							c0.9-1.1,2.4-2.6,4.6-4.1c2.8-2,6-3.4,14.1-5.2c4-0.9,9.2-1.8,15.4-2.5c0-0.6-0.1-1.3-0.2-2
							C799.4,194.6,798.7,193.3,798.2,192.3z"/>
						<path class="st6" d="M770.6,215.6c1.2,1,6.4,5.2,14.1,4.9c7.1-0.3,11.7-4.2,13-5.3c-0.2,0.4-4.8,7.7-13.6,7.7
							C775.5,222.9,770.9,216,770.6,215.6z"/>
					</g>
					<g>
						<path class="st6" d="M825.5,191.1c9.1,1.3,19.6,4.1,29.2,9.1c1.7,0.9,4,3.5,3.9,6.5c-0.1,2-1.4,3.6-2.2,4.4
							c-0.9-1.1-2.2-2.8-4.2-4.4c-2.7-2.2-5.8-3.8-13.7-6.2c-3.9-1.2-9-2.5-15.2-3.7c0.1-0.6,0.2-1.2,0.4-2
							C824.1,193.2,824.9,192,825.5,191.1z"/>
						<path class="st6" d="M851.8,214.4c-1.1,1.1-6,5.6-13.7,5.8c-7.1,0.2-12-3.4-13.3-4.4c0.3,0.4,5.3,7.4,14.1,6.8
							C847.4,222.1,851.5,214.9,851.8,214.4z"/>
					</g>
					<path d="M870.9,141.3c-6.9-11.2-33.7-23.4-59.4-23.6c-25.7,0.1-52.5,12.4-59.4,23.6c-14.6,14.6-11.9,53.5-6,69.9
						c0,0,2.3-4.3,10.3-0.9c-2.1-10.3,1-41.9,11.2-54c10.7-3.3,24.6-1.3,43.9-0.4c19.2-0.9,33.2-2.9,43.9,0.4
						c10.2,12.1,13.4,43.7,11.2,54c8.1-3.4,10.3,0.9,10.3,0.9C882.8,194.8,885.5,155.9,870.9,141.3z"/>
					<g>
						<g>
							<path class="st3" d="M822,250.3l-5.2,2.6c-3.2,1.6-7,1.6-10.2,0l-5.2-2.6l8.6,1.2c1.1,0.2,2.1,0.2,3.2,0L822,250.3z"/>
						</g>
					</g>
					<g>
						<path class="st3" d="M812.4,265.5c10.5-0.1,19.3,5.3,19,6.4c-0.3,0.9-6.8-1.5-18.5-1.6c-12,0-18.8,2.5-19.1,1.6
							C793.5,270.8,802.1,265.6,812.4,265.5z"/>
					</g>
					<g>
						<path class="st3" d="M819.3,282.5c0,0.5-3.2,1-7.1,1c-3.9,0-7.1-0.4-7.1-1c0-0.5,3.2-1,7.1-1
							C816.1,281.5,819.3,282,819.3,282.5z"/>
					</g>
				</g>
			</g>
			<g>
				<polygon class="st6" points="814.4,256.8 813.5,261.2 839.4,266.7 				"/>
				<path class="st6" d="M808.3,256.6l1,4.4c-4.7,1.1-9.3,2.1-14,3.2c-4,0.9-7.9,1.8-11.9,2.7c0.1,0,12.3-5.1,12.3-5.1
					C795.9,261.8,808.2,256.6,808.3,256.6z"/>
			</g>
			<g>
				<g>
					<polygon points="880.9,156 742.2,156 749.9,106.4 873.1,106.4 					"/>
					<g>
						<path class="st7" d="M664.4,153.4l3.5-13.5c0,0,0.6,0.2,2,0.5l0,0c1.4,0.3,3.5,0.8,6.3,1.3l0,0c5.6,1.1,14,2.6,25,4.1l0,0
							c22,3,54.4,6,95.8,6l0,0c41.5,0,91.9-3,150.1-12.1l0,0l2.2,13.8c-58.9,9.2-110.1,12.3-152.3,12.3l0,0
							C712.7,165.8,664.8,153.5,664.4,153.4L664.4,153.4z"/>
					</g>
				</g>
			</g>
		</g>
	</g>
	<g>
		<defs>
			<path id="SVGID_00000038411885763489599200000000867979241134016442_" d="M625.5,191.1c0,56.7-38.7,104.3-91.1,117.9
				c-1,0.3-2.1,0.5-3.1,0.8c-8.9,2.1-18.1,3.2-27.7,3.2c-8.8,0-17.4-0.9-25.7-2.7c-0.9-0.2-1.9-0.4-2.8-0.6
				c-53.6-12.8-93.4-61-93.4-118.5c0-67.3,54.5-121.8,121.8-121.8C570.9,69.2,625.5,123.8,625.5,191.1z"/>
		</defs>
		<clipPath id="SVGID_00000098217933005718231860000011209945105211342211_">
			<use xlink:href="#SVGID_00000038411885763489599200000000867979241134016442_"  style="overflow:visible;"/>
		</clipPath>
		<g style="clip-path:url(#SVGID_00000098217933005718231860000011209945105211342211_);">
			<g>
				<g>
					<g>
						<polygon class="st2" points="541.7,349 464.1,349 464.8,342 466.2,328.3 466.2,328.2 469.5,295.6 472,270.8 533.7,270.8 
							536.1,294.5 539.4,326.8 539.6,328.4 541,342.6 						"/>
						<path class="st3" d="M536.1,294.5c-6.6,5.5-13.1,8.9-18.1,11.1c-1.4,0.6-2.9,0.9-4.4,0.8c-3.6-0.1-7.4-0.2-11.3-0.2
							c-4,0-7.8,0.1-11.5,0.2c-1.5,0.1-3-0.2-4.4-0.8c-4.7-2-10.7-5.2-16.8-10l2.5-24.8h61.7L536.1,294.5z"/>
					</g>
					<g>
						<path class="st2" d="M557.4,210.3c18.1-8.1,11.2,19.3,7.6,28.8c-1.3,3.5-2.7,12.9-9.6,11.6L557.4,210.3z"/>
						<path class="st2" d="M447.2,210.3c-18.1-8.1-11.2,19.3-7.6,28.8c1.3,3.5,2.7,12.9,9.6,11.6L447.2,210.3z"/>
					</g>
					<path class="st2" d="M557.8,214.8c-0.8,11-1.1,22-1.4,31.5c-0.5,4.9-1.9,12.1-5.6,20.2c-1.3,2.7-4.7,9.6-11.4,16.8
						c-7.8,8.4-16.4,13.2-22.6,15.9c-1.4,0.6-2.8,0.9-4.3,0.8c-3.4-0.1-6.9-0.1-10.4-0.1c-3.5,0-6.9,0.1-10.2,0.1
						c-1.5,0-3-0.2-4.3-0.8c-6.2-2.7-14.8-7.5-22.6-15.9c-6.7-7.2-10.1-14.1-11.4-16.8c-3.7-8-5.1-15.3-5.6-20.2
						c-0.3-9.4-0.7-20.5-1.4-31.5c-4.1-19.5,2.2-44.7,9.2-56.7c6.4-8.4,29.3-3.2,46.5-3.2c17.2,0,40.1-5.2,46.5,3.2
						C555.7,170.1,562,195.3,557.8,214.8z"/>
					<g>
						<path class="st4" d="M488.1,220.4c-2.1,1.1-6.5,3-12.4,2.7c-7.6-0.3-12.8-4.1-14.6-5.5c2.6-2.4,5.6-4.1,8.8-4.9
							c3.2-0.8,6.5-0.7,9.6,0.4c0.7,0.2,1.4,0.6,2,0.9C485.2,216,487.3,219.1,488.1,220.4z"/>
						<path class="st5" d="M482.5,217.4c-0.3,3.5-4.4,5.9-7.9,5.4c-3.5-0.5-6.8-3.8-6.2-7.3c0.2-1.1,0.8-2,1.6-2.8
							c3.2-0.8,6.5-0.7,9.6,0.4c0.7,0.2,1.4,0.6,2,0.9C482.2,215,482.6,216.1,482.5,217.4z"/>
						<path d="M472.2,216.5c0,2,1.7,3.7,3.7,3.7c2,0,3.7-1.7,3.7-3.7c0-2-1.7-3.7-3.7-3.7C473.9,212.8,472.2,214.4,472.2,216.5z"/>
						<path class="st4" d="M470.6,215.8c0,0.8,0.6,1.4,1.4,1.4c0.8,0,1.4-0.6,1.4-1.4c0-0.8-0.6-1.4-1.4-1.4
							C471.2,214.4,470.6,215,470.6,215.8z"/>
						<path class="st6" d="M490.5,197.6c-8.9-2.1-19.7-3.3-30.5-2.1c-1.9,0.2-5,1.8-6,4.6c-0.7,1.9,0,3.9,0.4,4.9
							c1.2-0.7,3.1-1.8,5.6-2.6c3.3-1.1,6.8-1.5,15-0.8c4,0.3,9.3,0.9,15.5,2.1c0.2-0.6,0.3-1.2,0.4-2
							C491,200,490.7,198.6,490.5,197.6z"/>
						<path class="st6" d="M488.1,220.4c-1-1.1-5.7-5.9-13.4-6.5c-7.1-0.6-12.1,2.8-13.5,3.7c0.3-0.4,5.7-7.1,14.4-6.1
							C484.1,212.5,487.8,219.9,488.1,220.4z"/>
					</g>
					<g>
						<path class="st4" d="M516.5,220.4c2.1,1.1,6.5,3,12.4,2.7c7.6-0.3,12.8-4.1,14.6-5.5c-2.6-2.4-5.6-4.1-8.8-4.9
							c-3.2-0.8-6.5-0.7-9.6,0.4c-0.7,0.2-1.4,0.6-2,0.9C519.4,216,517.3,219.1,516.5,220.4z"/>
						<path class="st5" d="M522.1,217.4c0.3,3.5,4.4,5.9,7.9,5.4c3.5-0.5,6.8-3.8,6.2-7.3c-0.2-1.1-0.8-2-1.6-2.8
							c-3.2-0.8-6.5-0.7-9.6,0.4c-0.7,0.2-1.4,0.6-2,0.9C522.4,215,522,216.1,522.1,217.4z"/>
						<path d="M532.4,216.5c0,2-1.7,3.7-3.7,3.7c-2,0-3.7-1.7-3.7-3.7c0-2,1.7-3.7,3.7-3.7C530.7,212.8,532.4,214.4,532.4,216.5z"/>
						<path class="st4" d="M534,215.8c0,0.8-0.6,1.4-1.4,1.4s-1.4-0.6-1.4-1.4c0-0.8,0.6-1.4,1.4-1.4S534,215,534,215.8z"/>
						<path class="st6" d="M514.1,197.6c8.9-2.1,19.7-3.3,30.5-2.1c1.9,0.2,5,1.8,6,4.6c0.7,1.9,0,3.9-0.4,4.9
							c-1.2-0.7-3.1-1.8-5.6-2.6c-3.3-1.1-6.8-1.5-15-0.8c-4,0.3-9.3,0.9-15.5,2.1c-0.2-0.6-0.3-1.2-0.4-2
							C513.6,200,513.9,198.6,514.1,197.6z"/>
						<path class="st6" d="M516.5,220.4c1-1.1,5.7-5.9,13.4-6.5c7.1-0.6,12.1,2.8,13.5,3.7c-0.3-0.4-5.7-7.1-14.4-6.1
							C520.5,212.5,516.8,219.9,516.5,220.4z"/>
					</g>
					<path d="M561.7,141.3c-6.9-11.2-33.7-23.4-59.4-23.6c-25.7,0.1-52.5,12.4-59.4,23.6c-14.6,14.6-11.9,53.5-6,69.9
						c0,0,2.3-4.3,10.3-0.9c-2.1-10.3,1-41.9,11.2-54c10.7-3.3,24.6-1.3,43.9-0.4c19.2-0.9,33.2-2.9,43.9,0.4
						c10.2,12.1,13.4,43.7,11.2,54c8.1-3.4,10.3,0.9,10.3,0.9C573.6,194.8,576.3,155.9,561.7,141.3z"/>
					<g>
						<g>
							<path class="st3" d="M512.8,250.3l-5.2,2.6c-3.2,1.6-7,1.6-10.2,0l-5.2-2.6l8.6,1.2c1.1,0.2,2.1,0.2,3.2,0L512.8,250.3z"/>
						</g>
					</g>
					<g>
						<path class="st3" d="M503.1,280.4c-11.9,0-22.2-9.4-21.1-12.1c0.7-1.7,5.7,0,20.4,0.2c15.4,0.2,20.9-1.7,21.6,0.2
							C524.9,271.4,514.7,280.4,503.1,280.4z"/>
					</g>
					<g>
						<path class="st3" d="M510.1,284.8c0,0.5-3.2,1-7.1,1c-3.9,0-7.1-0.4-7.1-1c0-0.5,3.2-1,7.1-1
							C506.9,283.8,510.1,284.3,510.1,284.8z"/>
					</g>
				</g>
			</g>
			<g>
				<polygon class="st6" points="504.4,259.5 504.4,264 531,264 				"/>
				<path class="st6" d="M499.9,259.5v4.5c-4.8,0-9.5,0-14.3,0c-4.1,0-8.1,0-12.2,0c0.1,0,13.1-2.2,13.2-2.2
					C486.7,261.8,499.8,259.5,499.9,259.5z"/>
			</g>
			<g>
				<g>
					<polygon points="571.7,156 432.9,156 440.7,106.4 563.9,106.4 					"/>
					<g>
						<path class="st7" d="M355.1,153.4l3.5-13.5c0,0,0.6,0.2,2,0.5l0,0c1.4,0.3,3.5,0.8,6.3,1.3l0,0c5.6,1.1,14,2.6,25,4.1l0,0
							c22,3,54.4,6,95.8,6l0,0c41.5,0,91.9-3,150.1-12.1l0,0l2.2,13.8c-58.9,9.2-110.1,12.3-152.3,12.3l0,0
							C403.5,165.8,355.6,153.5,355.1,153.4L355.1,153.4z"/>
					</g>
				</g>
			</g>
		</g>
	</g>
	<g>
		<defs>
			<path id="SVGID_00000125585148090300638690000008072569853759809967_" d="M934.7,576.9c0,56.7-38.7,104.3-91.1,117.9
				c-1,0.3-2.1,0.5-3.1,0.8c-8.9,2.1-18.1,3.2-27.7,3.2c-8.8,0-17.4-0.9-25.7-2.7c-0.9-0.2-1.9-0.4-2.8-0.6
				c-53.6-12.8-93.4-61-93.4-118.5c0-67.3,54.5-121.8,121.8-121.8C880.1,455.1,934.7,509.6,934.7,576.9z"/>
		</defs>
		<clipPath id="SVGID_00000085222685858940092670000002223677563747606193_">
			<use xlink:href="#SVGID_00000125585148090300638690000008072569853759809967_"  style="overflow:visible;"/>
		</clipPath>
		<g style="clip-path:url(#SVGID_00000085222685858940092670000002223677563747606193_);">
			<g>
				<g>
					<g>
						<polygon class="st2" points="850.8,734.8 773.3,734.8 774,727.8 775.4,714.2 775.4,714 778.7,681.5 781.2,656.7 842.9,656.7 
							845.3,680.4 848.6,712.7 848.7,714.3 850.2,728.5 						"/>
						<path class="st3" d="M845.3,680.4c-6.6,5.5-13.1,8.9-18.1,11.1c-1.4,0.6-2.9,0.9-4.4,0.8c-3.6-0.1-7.4-0.2-11.3-0.2
							c-4,0-7.8,0.1-11.5,0.2c-1.5,0.1-3-0.2-4.4-0.8c-4.7-2-10.7-5.2-16.8-10l2.5-24.8h61.7L845.3,680.4z"/>
					</g>
					<g>
						<path class="st2" d="M866.6,596.1c18.1-8.1,11.2,19.3,7.6,28.8c-1.3,3.5-2.7,12.9-9.6,11.6L866.6,596.1z"/>
						<path class="st2" d="M756.4,596.1c-18.1-8.1-11.2,19.3-7.6,28.8c1.3,3.5,2.7,12.9,9.6,11.6L756.4,596.1z"/>
					</g>
					<path class="st2" d="M867,600.7c-0.8,11-1.1,22-1.4,31.5c-0.5,4.9-1.9,12.1-5.6,20.2c-1.3,2.7-4.7,9.6-11.4,16.8
						c-7.8,8.4-16.4,13.2-22.6,15.9c-1.4,0.6-2.8,0.9-4.3,0.8c-3.4-0.1-6.9-0.1-10.4-0.1c-3.5,0-6.9,0.1-10.2,0.1
						c-1.5,0-3-0.2-4.3-0.8c-6.2-2.7-14.8-7.5-22.6-15.9c-6.7-7.2-10.1-14.1-11.4-16.8c-3.7-8-5.1-15.3-5.6-20.2
						c-0.3-9.4-0.7-20.5-1.4-31.5c-4.1-19.5,2.2-44.7,9.2-56.7c6.4-8.4,29.3-3.2,46.5-3.2c17.2,0,40.1-5.2,46.5,3.2
						C864.8,556,871.1,581.2,867,600.7z"/>
					<g>
						<path class="st4" d="M797.2,606.2c-2.1,1.1-6.5,3-12.4,2.7c-7.6-0.3-12.8-4.1-14.6-5.5c2.6-2.4,5.6-4.1,8.8-4.9
							c3.2-0.8,6.5-0.7,9.6,0.4c0.7,0.2,1.4,0.6,2,0.9C794.4,601.9,796.5,605,797.2,606.2z"/>
						<path class="st5" d="M791.6,603.2c-0.3,3.5-4.4,5.9-7.9,5.4c-3.5-0.5-6.8-3.8-6.2-7.3c0.2-1.1,0.8-2,1.6-2.8
							c3.2-0.8,6.5-0.7,9.6,0.4c0.7,0.2,1.4,0.6,2,0.9C791.3,600.9,791.7,602,791.6,603.2z"/>
						<path d="M781.4,602.3c0,2,1.7,3.7,3.7,3.7c2,0,3.7-1.7,3.7-3.7c0-2-1.7-3.7-3.7-3.7C783.1,598.6,781.4,600.3,781.4,602.3z"/>
						<path class="st4" d="M779.7,601.7c0,0.8,0.6,1.4,1.4,1.4c0.8,0,1.4-0.6,1.4-1.4c0-0.8-0.6-1.4-1.4-1.4
							C780.4,600.3,779.7,600.9,779.7,601.7z"/>
						<path class="st6" d="M799,576.9c-9.2,0.2-19.9,1.7-30.1,5.4c-1.8,0.7-4.4,2.9-4.7,6c-0.2,2,0.9,3.7,1.6,4.6
							c1-1,2.6-2.5,4.7-3.9c2.9-1.9,6.2-3.1,14.3-4.5c4-0.7,9.2-1.4,15.5-1.8c0-0.6,0-1.3-0.1-2C800.1,579.2,799.5,577.9,799,576.9z
							"/>
						<path class="st6" d="M797.2,606.2c-1-1.1-5.7-5.9-13.4-6.5c-7.1-0.6-12.1,2.8-13.5,3.7c0.3-0.4,5.7-7.1,14.4-6.1
							C793.2,598.4,797,605.7,797.2,606.2z"/>
					</g>
					<g>
						<path class="st4" d="M825.7,606.2c2.1,1.1,6.5,3,12.4,2.7c7.6-0.3,12.8-4.1,14.6-5.5c-2.6-2.4-5.6-4.1-8.8-4.9
							c-3.2-0.8-6.5-0.7-9.6,0.4c-0.7,0.2-1.4,0.6-2,0.9C828.5,601.9,826.5,605,825.7,606.2z"/>
						<path class="st5" d="M831.3,603.2c0.3,3.5,4.4,5.9,7.9,5.4c3.5-0.5,6.8-3.8,6.2-7.3c-0.2-1.1-0.8-2-1.6-2.8
							c-3.2-0.8-6.5-0.7-9.6,0.4c-0.7,0.2-1.4,0.6-2,0.9C831.6,600.9,831.2,602,831.3,603.2z"/>
						<path d="M841.5,602.3c0,2-1.7,3.7-3.7,3.7c-2,0-3.7-1.7-3.7-3.7c0-2,1.7-3.7,3.7-3.7C839.9,598.6,841.5,600.3,841.5,602.3z"/>
						<path class="st4" d="M843.2,601.7c0,0.8-0.6,1.4-1.4,1.4s-1.4-0.6-1.4-1.4c0-0.8,0.6-1.4,1.4-1.4S843.2,600.9,843.2,601.7z"/>
						<path class="st6" d="M824.3,576.9c9.1,0.9,19.7,3.3,29.5,7.9c1.7,0.8,4.2,3.3,4.2,6.3c0,2.1-1.2,3.7-2,4.5
							c-0.9-1.1-2.4-2.7-4.4-4.2c-2.8-2.1-5.9-3.6-13.9-5.6c-3.9-1-9.1-2.1-15.3-3c0-0.6,0.1-1.3,0.3-2
							C823.1,579.1,823.7,577.8,824.3,576.9z"/>
						<path class="st6" d="M825.7,606.2c1-1.1,5.7-5.9,13.4-6.5c7.1-0.6,12.1,2.8,13.5,3.7c-0.3-0.4-5.7-7.1-14.4-6.1
							C829.7,598.4,825.9,605.7,825.7,606.2z"/>
					</g>
					<path d="M870.9,527.1c-6.9-11.2-33.7-23.4-59.4-23.6c-25.7,0.1-52.5,12.4-59.4,23.6c-14.6,14.6-11.9,53.5-6,69.9
						c0,0,2.3-4.3,10.3-0.9c-2.1-10.3,1-41.9,11.2-54c10.7-3.3,24.6-1.3,43.9-0.4c19.2-0.9,33.2-2.9,43.9,0.4
						c10.2,12.1,13.4,43.7,11.2,54c8.1-3.4,10.3,0.9,10.3,0.9C882.7,580.6,885.5,541.8,870.9,527.1z"/>
					<g>
						<g>
							<path class="st3" d="M821.9,636.1l-5.2,2.6c-3.2,1.6-7,1.6-10.2,0l-5.2-2.6l8.6,1.2c1.1,0.2,2.1,0.2,3.2,0L821.9,636.1z"/>
						</g>
					</g>
					<g>
						<path class="st3" d="M827.4,661.4c-3.9,2.6-9.3,4.9-15.2,4.9c-5.4,0-10.5-2-14.3-4.3c-4.6-2.9-7.4-6.3-6.9-7.8
							c0.7-1.7,5.7,0,20.4,0.2c15.4,0.2,20.9-1.6,21.6,0.2C833.6,655.9,831.3,658.8,827.4,661.4z"/>
					</g>
					<g>
						<path class="st12" d="M827.4,661.4c-3.9,2.6-9.3,4.9-15.2,4.9c-5.4,0-10.5-2-14.3-4.3c2.1-1.9,9.9-3,15.7-2.8
							C818.2,659.2,824.3,660,827.4,661.4z"/>
					</g>
					<g>
						<path class="st3" d="M819.3,670.7c0,0.5-3.2,1-7.1,1c-3.9,0-7.1-0.4-7.1-1c0-0.5,3.2-1,7.1-1
							C816.1,669.7,819.3,670.1,819.3,670.7z"/>
					</g>
				</g>
			</g>
			<g>
				<polygon class="st6" points="813.6,645.4 813.6,649.9 840.1,649.9 				"/>
				<path class="st6" d="M809.1,645.4v4.5c-4.8,0-9.5,0-14.3,0c-4.1,0-8.1,0-12.2,0c0.1,0,13.1-2.2,13.2-2.2
					C795.8,647.6,809,645.4,809.1,645.4z"/>
			</g>
			<g>
				<g>
					<polygon points="880.8,541.8 742.1,541.8 749.8,492.3 873.1,492.3 					"/>
					<g>
						<path class="st7" d="M664.3,539.2l3.5-13.5c0,0,0.6,0.2,2,0.5l0,0c1.4,0.3,3.5,0.8,6.3,1.3l0,0c5.6,1.1,14,2.6,25,4.1l0,0
							c22,3,54.4,6,95.8,6l0,0c41.5,0,91.9-3,150.1-12.1l0,0l2.2,13.8c-58.9,9.2-110.1,12.3-152.3,12.3l0,0
							C712.7,551.6,664.8,539.3,664.3,539.2L664.3,539.2z"/>
					</g>
				</g>
			</g>
			<path class="st3" d="M813.8,657.9c-0.2,0-1.6,0.4-2.2,1.8c-0.4,0.8-0.2,1.6-0.2,1.9c0.2-0.5,0.8-1.5,2-2.2
				c1.9-1.1,3.9-0.6,4.3-0.5C816.4,658.6,815.1,658.2,813.8,657.9z"/>
		</g>
	</g>
	<g>
		<defs>
			<path id="SVGID_00000061465083048852926540000018260934252526502785_" d="M625.6,576.9c0,56.7-38.7,104.3-91.1,117.9
				c-1,0.3-2.1,0.5-3.1,0.8c-8.9,2.1-18.1,3.2-27.7,3.2c-8.8,0-17.4-0.9-25.7-2.7c-0.9-0.2-1.9-0.4-2.8-0.6
				c-53.6-12.8-93.4-61-93.4-118.5c0-67.3,54.5-121.8,121.8-121.8C571,455.1,625.6,509.6,625.6,576.9z"/>
		</defs>
		<clipPath id="SVGID_00000102520153141577921150000000284031990671535286_">
			<use xlink:href="#SVGID_00000061465083048852926540000018260934252526502785_"  style="overflow:visible;"/>
		</clipPath>
		<g style="clip-path:url(#SVGID_00000102520153141577921150000000284031990671535286_);">
			<g>
				<g>
					<g>
						<polygon class="st2" points="541.7,734.8 464.2,734.8 464.9,727.8 466.3,714.2 466.3,714 469.6,681.5 472.1,656.7 
							533.8,656.7 536.2,680.4 539.5,712.7 539.7,714.3 541.1,728.5 						"/>
						<path class="st3" d="M536.2,680.4c-6.6,5.5-13.1,8.9-18.1,11.1c-1.4,0.6-2.9,0.9-4.4,0.8c-3.6-0.1-7.4-0.2-11.3-0.2
							c-4,0-7.8,0.1-11.5,0.2c-1.5,0.1-3-0.2-4.4-0.8c-4.7-2-10.7-5.2-16.8-10l2.5-24.8h61.7L536.2,680.4z"/>
					</g>
					<g>
						<path class="st2" d="M557.5,596.1c18.1-8.1,11.2,19.3,7.6,28.8c-1.3,3.5-2.7,12.9-9.6,11.6L557.5,596.1z"/>
						<path class="st2" d="M447.3,596.1c-18.1-8.1-11.2,19.3-7.6,28.8c1.3,3.5,2.7,12.9,9.6,11.6L447.3,596.1z"/>
					</g>
					<path class="st2" d="M557.9,600.7c-0.8,11-1.1,22-1.4,31.5c-0.5,4.9-1.9,12.1-5.6,20.2c-1.3,2.7-4.7,9.6-11.4,16.8
						c-7.8,8.4-16.4,13.2-22.6,15.9c-1.4,0.6-2.8,0.9-4.3,0.8c-3.4-0.1-6.9-0.1-10.4-0.1c-3.5,0-6.9,0.1-10.2,0.1
						c-1.5,0-3-0.2-4.3-0.8c-6.2-2.7-14.8-7.5-22.6-15.9c-6.7-7.2-10.1-14.1-11.4-16.8c-3.7-8-5.1-15.3-5.6-20.2
						c-0.3-9.4-0.7-20.5-1.4-31.5c-4.1-19.5,2.2-44.7,9.2-56.7c6.4-8.4,29.3-3.2,46.5-3.2c17.2,0,40.1-5.2,46.5,3.2
						C555.8,556,562.1,581.2,557.9,600.7z"/>
					<g>
						<path class="st4" d="M488.2,606.2c-2.1,1.1-6.5,3-12.4,2.7c-7.6-0.3-12.8-4.1-14.6-5.5c2.6-2.4,5.6-4.1,8.8-4.9
							c3.2-0.8,6.5-0.7,9.6,0.4c0.7,0.2,1.4,0.6,2,0.9C485.3,601.9,487.4,605,488.2,606.2z"/>
						<path class="st5" d="M482.6,603.2c-0.3,3.5-4.4,5.9-7.9,5.4c-3.5-0.5-6.8-3.8-6.2-7.3c0.2-1.1,0.8-2,1.6-2.8
							c3.2-0.8,6.5-0.7,9.6,0.4c0.7,0.2,1.4,0.6,2,0.9C482.3,600.9,482.6,602,482.6,603.2z"/>
						<path d="M472.3,602.3c0,2,1.7,3.7,3.7,3.7c2,0,3.7-1.7,3.7-3.7c0-2-1.7-3.7-3.7-3.7C474,598.6,472.3,600.3,472.3,602.3z"/>
						<path class="st4" d="M470.7,601.7c0,0.8,0.6,1.4,1.4,1.4s1.4-0.6,1.4-1.4c0-0.8-0.6-1.4-1.4-1.4S470.7,600.9,470.7,601.7z"/>
						<path class="st6" d="M492.5,589.5c-8.1-4.4-18.2-8.4-28.8-10.1c-1.9-0.3-5.3,0.4-7,2.9c-1.2,1.7-1.1,3.7-0.9,4.8
							c1.4-0.4,3.5-0.9,6-1c3.5-0.2,6.9,0.3,14.7,3.2c3.8,1.4,8.7,3.4,14.4,6.1c0.3-0.5,0.6-1.1,0.9-1.8
							C492.3,592,492.5,590.6,492.5,589.5z"/>
						<path class="st6" d="M488.2,606.2c-1-1.1-5.7-5.9-13.4-6.5c-7.1-0.6-12.1,2.8-13.5,3.7c0.3-0.4,5.7-7.1,14.4-6.1
							C484.2,598.4,487.9,605.7,488.2,606.2z"/>
					</g>
					<g>
						<path class="st4" d="M516.6,606.2c2.1,1.1,6.5,3,12.4,2.7c7.6-0.3,12.8-4.1,14.6-5.5c-2.6-2.4-5.6-4.1-8.8-4.9
							c-3.2-0.8-6.5-0.7-9.6,0.4c-0.7,0.2-1.4,0.6-2,0.9C519.5,601.9,517.4,605,516.6,606.2z"/>
						<path class="st5" d="M522.2,603.2c0.3,3.5,4.4,5.9,7.9,5.4c3.5-0.5,6.8-3.8,6.2-7.3c-0.2-1.1-0.8-2-1.6-2.8
							c-3.2-0.8-6.5-0.7-9.6,0.4c-0.7,0.2-1.4,0.6-2,0.9C522.5,600.9,522.1,602,522.2,603.2z"/>
						<path d="M532.5,602.3c0,2-1.7,3.7-3.7,3.7c-2,0-3.7-1.7-3.7-3.7c0-2,1.7-3.7,3.7-3.7C530.8,598.6,532.5,600.3,532.5,602.3z"/>
						<path class="st4" d="M534.1,601.7c0,0.8-0.6,1.4-1.4,1.4c-0.8,0-1.4-0.6-1.4-1.4c0-0.8,0.6-1.4,1.4-1.4
							C533.5,600.3,534.1,600.9,534.1,601.7z"/>
						<path class="st6" d="M511.9,588.2c7.9-4.7,17.8-9.1,28.4-11.2c1.8-0.4,5.3,0.2,7.1,2.6c1.2,1.6,1.2,3.7,1.1,4.8
							c-1.4-0.3-3.5-0.8-6.1-0.8c-3.5,0-6.9,0.6-14.5,3.7c-3.7,1.5-8.6,3.7-14.1,6.7c-0.3-0.5-0.6-1.1-0.9-1.8
							C512.2,590.7,511.9,589.3,511.9,588.2z"/>
						<path class="st6" d="M516.6,606.2c1-1.1,5.7-5.9,13.4-6.5c7.1-0.6,12.1,2.8,13.5,3.7c-0.3-0.4-5.7-7.1-14.4-6.1
							C520.6,598.4,516.9,605.7,516.6,606.2z"/>
					</g>
					<path d="M561.8,527.1c-6.9-11.2-33.7-23.4-59.4-23.6c-25.7,0.1-52.5,12.4-59.4,23.6c-14.6,14.6-11.9,53.5-6,69.9
						c0,0,2.3-4.3,10.3-0.9c-2.1-10.3,1-41.9,11.2-54c10.7-3.3,24.6-1.3,43.9-0.4c19.2-0.9,33.2-2.9,43.9,0.4
						c10.2,12.1,13.4,43.7,11.2,54c8.1-3.4,10.3,0.9,10.3,0.9C573.6,580.6,576.4,541.8,561.8,527.1z"/>
					<g>
						<g>
							<path class="st3" d="M512.9,636.1l-5.2,2.6c-3.2,1.6-7,1.6-10.2,0l-5.2-2.6l8.6,1.2c1.1,0.2,2.1,0.2,3.2,0L512.9,636.1z"/>
						</g>
					</g>
					<g>
						<g>
							<path class="st3" d="M509.2,585.9c0.1,0.4-3.6,3-8.1,3c-4.5,0-8.2-2.6-8.1-3c0.1-0.4,3.1,1.1,8.1,1.1
								C506.1,587,509.1,585.5,509.2,585.9z"/>
						</g>
					</g>
					<g>
						<g>
							<path class="st3" d="M509.2,589.3c0.1,0.4-3.6,3-8.1,3c-4.5,0-8.2-2.6-8.1-3c0.1-0.4,3.1,1.1,8.1,1.1
								C506.1,590.4,509.1,589,509.2,589.3z"/>
						</g>
					</g>
					<g>
						<g>
							<path class="st3" d="M509.2,592.8c0.1,0.4-3.6,3-8.1,3c-4.5,0-8.2-2.6-8.1-3c0.1-0.4,3.1,1.1,8.1,1.1
								C506.1,593.8,509.1,592.4,509.2,592.8z"/>
						</g>
					</g>
					<g>
						<path class="st3" d="M504.1,657.6c-13.1,0-20.5,2.3-20.8,1.5c-0.2-1,9.1-5.8,20.4-5.9c11.5-0.1,21.2,4.9,20.9,5.9
							C524.5,659.9,517.1,657.6,504.1,657.6z"/>
					</g>
					<g>
						<path class="st3" d="M510.2,670.7c0,0.5-3.2,1-7.1,1c-3.9,0-7.1-0.4-7.1-1c0-0.5,3.2-1,7.1-1
							C507,669.7,510.2,670.1,510.2,670.7z"/>
					</g>
				</g>
			</g>
			<g>
				<polygon class="st6" points="504.9,643.8 504.4,648.2 530.7,651.5 				"/>
				<path class="st6" d="M499.4,643.9l0.8,4.4c-4.7,0.9-9.4,1.8-14.1,2.6c-4,0.7-8,1.5-12,2.2c0.1,0,12.5-4.6,12.5-4.6
					C486.8,648.5,499.3,643.9,499.4,643.9z"/>
			</g>
			<g>
				<g>
					<polygon points="571.7,541.8 433,541.8 440.8,492.3 564,492.3 					"/>
					<g>
						<path class="st7" d="M355.2,539.2l3.5-13.5c0,0,0.6,0.2,2,0.5l0,0c1.4,0.3,3.5,0.8,6.3,1.3l0,0c5.6,1.1,14,2.6,25,4.1l0,0
							c22,3,54.4,6,95.8,6l0,0c41.5,0,91.9-3,150.1-12.1l0,0l2.2,13.8c-58.9,9.2-110.1,12.3-152.3,12.3l0,0
							C403.6,551.6,355.7,539.3,355.2,539.2L355.2,539.2z"/>
					</g>
				</g>
			</g>
		</g>
	</g>
</g>
</svg>
