<?xml version="1.0" encoding="utf-8"?>
<!-- Generator: Adobe Illustrator 26.0.1, SVG Export Plug-In . SVG Version: 6.00 Build 0)  -->
<svg version="1.1" id="Layer_1" xmlns="http://www.w3.org/2000/svg" xmlns:xlink="http://www.w3.org/1999/xlink" x="0px" y="0px"
	 viewBox="0 0 712.5 667.5" style="enable-background:new 0 0 712.5 667.5;" xml:space="preserve">
<style type="text/css">
	.st0{clip-path:url(#SVGID_00000096043261949015664780000008199923582372511930_);}
	.st1{fill:#E9D3AF;}
	.st2{fill:#C6A27B;}
	.st3{fill:#D5B792;}
	.st4{fill:#E09A61;}
	.st5{fill:#C47947;}
	.st6{fill:#FFFFFF;}
	.st7{fill:#8A5D3B;}
	.st8{fill:#3B2314;}
	.st9{fill:#DC2428;}
	.st10{fill:none;stroke:#F8AE38;stroke-width:3.1794;stroke-miterlimit:10;}
	.st11{fill:#E2DCDC;}
	.st12{fill:#C6C6C6;}
	.st13{fill:#F2F2F2;}
	.st14{clip-path:url(#SVGID_00000096043261949015664780000008199923582372511930_);fill:#FFFFFF;}
	.st15{clip-path:url(#SVGID_00000096043261949015664780000008199923582372511930_);fill:#96511D;}
	.st16{fill:#ABA1A5;}
	.st17{fill:#C3BCBE;}
	.st18{fill:#DCD8D9;}
	.st19{fill:#DE8A00;}
	.st20{fill:#E39C33;}
	.st21{fill:#DA7200;}
	.st22{fill:#E83F12;}
	.st23{fill:#2D2A37;}
	.st24{fill:#45424D;}
	.st25{fill:#050311;}
	.st26{fill:#F97D19;}
	.st27{fill:#F46839;}
	.st28{fill:#F04E12;}
	.st29{fill:#E6E4E5;}
	.st30{fill:#005388;}
	.st31{fill:#FF7629;}
	.st32{fill:#FF5F00;}
	.st33{fill:#7E1620;}
	.st34{fill:#EFAD9B;}
	.st35{fill:#882730;}
	.st36{fill:#EBDEC4;}
	.st37{fill:#F8B674;}
</style>
<g>
	<defs>
		<path id="SVGID_1_" d="M185.9,118.8c-10.8,10-21,21.6-27.7,33.4c-14.1,24.8-15.2,60.3-11,87.4c2.9,18.7,15.6,44.7,9.4,63.7
			c-8.5,25.7-53.1,24.6-74.8,31.1c-20,5.9-39,20.4-49.2,38.1C1.3,426.9,39,455.9,57.8,480.2c21.4,27.6-25.2,61,1.6,88.5
			c28,28.8,61.7,40.8,117.7,40.8c110.9,0,135.8,8.3,289.5-2.1c29.1-2,67.9-8.3,97-11.3c43.8-4.5,151.9-40.8,123.7-109.5
			c-20.9-50.8-130.5-43-93.7-112.5c24-45.5,69.2-108.6,13-148.7c-40.8-29.2-66.9-45.9-90.5-90c-25.9-48.3-62.3-74.4-119.5-79
			c-31-2.5-62.4-2.3-92.8,4.3c-37.1,8-73.8,23.4-103.6,46.2C195.4,110.5,190.6,114.5,185.9,118.8z"/>
	</defs>
	<clipPath id="SVGID_00000111872730861589916460000013028867891485501865_">
		<use xlink:href="#SVGID_1_"  style="overflow:visible;"/>
	</clipPath>
	<g style="clip-path:url(#SVGID_00000111872730861589916460000013028867891485501865_);">
		<path class="st1" d="M168.5,93.9c-12,10.5-23.2,22.7-30.6,35.1c-15.5,26.1-16.8,63.3-12.1,91.8c3.2,19.7,17.2,47,10.4,66.9
			c-9.3,27-58.5,25.9-82.5,32.6c-22,6.2-43,21.5-54.2,40.1c-34.5,57,7,87.6,27.7,113.1c23.6,29-27.8,64.1,1.7,93
			c30.9,30.2,68.1,42.8,129.8,42.8c122.3,0,149.7,8.7,319.1-2.2c32.1-2.1,74.9-8.7,106.9-11.9c48.3-4.7,167.5-42.9,136.4-115.1
			c-23-53.4-143.8-45.2-103.3-118.2c26.5-47.8,76.3-114,14.4-156.2c-44.9-30.6-73.7-48.2-99.8-94.6c-28.6-50.7-68.6-78.2-131.7-83
			c-34.1-2.6-68.8-2.4-102.3,4.6c-40.9,8.4-81.4,24.6-114.2,48.6C179,85.1,173.7,89.4,168.5,93.9z"/>
		<g>
			<path class="st2" d="M586.5,484.8c-4.7-43.4,56.6-47.2,50.8-6.2c13.5-27.4,51.3-0.5,40.9,30.5c11-2.4,19.8,8.5,24,20.1
				c5.1,14.2,1.3,24.5-6.5,36c10.6-0.2,21.7,11.1,22.4,24.4c1,19.2-1.5,24.9-10,35.1c11.7,1.4,15.3,18.7,14.9,31.5
				c-0.5,19.7-8.5,24-22.6,27.2c-16.6,3.8-30.4,4-47.2,1.5c-14.1-2.1-29.2-8.2-43.8-8.1c-23.9,0.3-47.6-3.3-71.2-7.4
				c-15.9-2.7-38.3-1.1-48.6-18.5c-8.4-14.1-11.4-32-5.8-48.2c3-8.8,18.6-33,27.7-17.5c-12.9-12.8-13-25.2-9-39.8
				c4-14.7,18-27.6,30.1-20c-8.1-19-1-39.3,13.4-51.5C545.7,473.9,571.4,453.1,586.5,484.8z"/>
			<path class="st2" d="M148.8,470.2c-4.7-43.4,56.6-47.2,50.8-6.2c13.5-27.4,51.3-0.5,40.9,30.5c11-2.4,19.8,8.5,24,20.1
				c5.1,14.2,1.3,24.5-6.5,36c10.6-0.2,21.7,11.1,22.4,24.4c1,19.2-1.5,24.9-10,35.1c11.7,1.4,15.3,18.7,14.9,31.5
				c-0.5,19.7-8.5,24-22.6,27.2c-16.6,3.8-30.4,4-47.2,1.5c-14.1-2.1-29.2-8.2-43.8-8.1c-23.9,0.3-47.6-3.3-71.2-7.4
				c-15.9-2.7-38.3-1.1-48.6-18.5c-8.4-14.1-11.4-32-5.8-48.2c3-8.8,18.6-33,27.7-17.5c-12.9-12.8-13-25.2-9-39.8
				c4-14.7,18-27.6,30.1-20c-8.1-19-1-39.3,13.4-51.5C108.1,459.3,133.8,438.5,148.8,470.2z"/>
			<path class="st2" d="M346.9,523c-21.7-29.3,12.7-69.6,36.1-46.2c-19.5-47,48.8-73.6,51.3-23.9c17.2-26.7,56.4-12.4,47.7,24.3
				c33.1-12.1,49.1,41,29.1,60.5c17.3,5,20.3,36.7,7.8,48.8c-11.3,11-39.3,8.4-54,8.4c-19.5,0-39.2-1.4-58.2-3.4
				c-21.5-2.2-55.3,5.9-73.1-13.4c-7.9-8.5-16.8-16.2-12.8-40.4C322.3,528.4,339.5,507.9,346.9,523z"/>
		</g>
		<path class="st3" d="M740.7,620c0,35.3-173.4,63.9-387.4,63.9C139.4,683.9-34,655.3-34,620c0-35.3,173.4-63.9,387.4-63.9
			C567.3,556,740.7,584.7,740.7,620z"/>
	</g>
	<g style="clip-path:url(#SVGID_00000111872730861589916460000013028867891485501865_);">
		<g>
			<g>
				<g>
					<g>
						<g>
							<polygon class="st4" points="380.9,425.9 339.7,425.9 340.1,422.2 340.8,414.9 340.8,414.8 342.6,397.5 343.9,384.4 
								376.7,384.4 377.9,397 379.7,414.1 379.8,414.9 380.5,422.5 							"/>
							<path class="st5" d="M377.9,397c-3.5,2.9-6.9,4.7-9.6,5.9c-0.7,0.3-1.5,0.5-2.4,0.4c-1.9-0.1-3.9-0.1-6-0.1
								c-2.1,0-4.1,0-6.1,0.1c-0.8,0-1.6-0.1-2.4-0.4c-2.5-1.1-5.7-2.7-8.9-5.3l1.3-13.1h32.7L377.9,397z"/>
						</g>
						<g>
							<path class="st4" d="M389.2,352.3c9.6-4.3,6,10.2,4.1,15.3c-0.7,1.9-1.4,6.9-5.1,6.2L389.2,352.3z"/>
							<path class="st4" d="M330.8,352.3c-9.6-4.3-6,10.2-4.1,15.3c0.7,1.9,1.4,6.9,5.1,6.2L330.8,352.3z"/>
						</g>
						<path class="st4" d="M389.5,354.7c-0.4,5.8-0.6,11.7-0.7,16.7c-0.3,2.6-1,6.4-3,10.7c-0.7,1.4-2.5,5.1-6,8.9
							c-4.2,4.5-8.7,7-12,8.4c-0.7,0.3-1.5,0.5-2.3,0.4c-1.8-0.1-3.6-0.1-5.5-0.1c-1.9,0-3.7,0-5.4,0.1c-0.8,0-1.6-0.1-2.3-0.4
							c-3.3-1.4-7.8-4-12-8.4c-3.5-3.8-5.4-7.5-6-8.9c-2-4.3-2.7-8.1-3-10.7c-0.2-5-0.3-10.9-0.7-16.7c-2.2-10.4,1.1-23.7,4.9-30.1
							c3.4-4.5,15.6-1.7,24.7-1.7c9.1,0,21.3-2.8,24.7,1.7C388.3,331,391.6,344.3,389.5,354.7z"/>
						<g>
							<path class="st6" d="M352.4,357.6c-1.1,0.6-3.5,1.6-6.6,1.4c-4-0.2-6.8-2.2-7.7-2.9c1.4-1.3,3-2.2,4.7-2.6
								c1.7-0.4,3.5-0.4,5.1,0.2c0.4,0.1,0.7,0.3,1.1,0.5C350.9,355.3,352,357,352.4,357.6z"/>
							<path class="st7" d="M349.5,356c-0.1,1.8-2.3,3.1-4.2,2.9c-1.9-0.2-3.6-2-3.3-3.9c0.1-0.6,0.4-1.1,0.8-1.5
								c1.7-0.4,3.5-0.4,5.1,0.2c0.4,0.1,0.7,0.3,1.1,0.5C349.3,354.8,349.5,355.4,349.5,356z"/>
							<path d="M344,355.6c0,1.1,0.9,2,2,2c1.1,0,2-0.9,2-2c0-1.1-0.9-2-2-2C344.9,353.6,344,354.5,344,355.6z"/>
							<path class="st6" d="M343.2,355.2c0,0.4,0.3,0.7,0.7,0.7c0.4,0,0.7-0.3,0.7-0.7c0-0.4-0.3-0.7-0.7-0.7
								C343.5,354.5,343.2,354.8,343.2,355.2z"/>
							<path class="st8" d="M353.7,345.5c-4.7-1.1-10.5-1.7-16.2-1.1c-1,0.1-2.7,0.9-3.2,2.5c-0.4,1,0,2,0.2,2.6
								c0.6-0.4,1.6-0.9,2.9-1.4c1.8-0.6,3.6-0.8,8-0.4c2.1,0.2,4.9,0.5,8.2,1.1c0.1-0.3,0.2-0.6,0.2-1
								C354,346.8,353.9,346.1,353.7,345.5z"/>
							<path class="st8" d="M352.4,357.6c-0.6-0.6-3-3.1-7.1-3.5c-3.8-0.3-6.4,1.5-7.2,2c0.1-0.2,3-3.8,7.7-3.2
								C350.3,353.5,352.3,357.4,352.4,357.6z"/>
						</g>
						<g>
							<path class="st6" d="M367.5,357.6c1.1,0.6,3.5,1.6,6.6,1.4c4-0.2,6.8-2.2,7.7-2.9c-1.4-1.3-3-2.2-4.7-2.6
								c-1.7-0.4-3.5-0.4-5.1,0.2c-0.4,0.1-0.7,0.3-1.1,0.5C369,355.3,367.9,357,367.5,357.6z"/>
							<path class="st7" d="M370.5,356c0.1,1.8,2.3,3.1,4.2,2.9c1.9-0.2,3.6-2,3.3-3.9c-0.1-0.6-0.4-1.1-0.8-1.5
								c-1.7-0.4-3.5-0.4-5.1,0.2c-0.4,0.1-0.7,0.3-1.1,0.5C370.7,354.8,370.5,355.4,370.5,356z"/>
							<path d="M375.9,355.6c0,1.1-0.9,2-2,2c-1.1,0-2-0.9-2-2c0-1.1,0.9-2,2-2C375.1,353.6,375.9,354.5,375.9,355.6z"/>
							<path class="st6" d="M376.8,355.2c0,0.4-0.3,0.7-0.7,0.7s-0.7-0.3-0.7-0.7c0-0.4,0.3-0.7,0.7-0.7S376.8,354.8,376.8,355.2z"
								/>
							<path class="st8" d="M366.3,345.5c4.7-1.1,10.5-1.7,16.2-1.1c1,0.1,2.7,0.9,3.2,2.5c0.4,1,0,2-0.2,2.6
								c-0.6-0.4-1.6-0.9-2.9-1.4c-1.8-0.6-3.6-0.8-8-0.4c-2.1,0.2-4.9,0.5-8.2,1.1c-0.1-0.3-0.2-0.6-0.2-1
								C366,346.8,366.1,346.1,366.3,345.5z"/>
							<path class="st8" d="M367.5,357.6c0.6-0.6,3-3.1,7.1-3.5c3.8-0.3,6.4,1.5,7.2,2c-0.1-0.2-3-3.8-7.7-3.2
								C369.7,353.5,367.7,357.4,367.5,357.6z"/>
						</g>
						<path d="M391.5,315.7c-3.7-6-17.9-12.4-31.5-12.5c-13.6,0.1-27.9,6.6-31.5,12.5c-7.8,7.8-6.3,28.4-3.2,37.1
							c0,0,1.2-2.3,5.5-0.5c-1.1-5.5,0.5-22.2,6-28.6c5.7-1.7,13.1-0.7,23.3-0.2c10.2-0.5,17.6-1.5,23.3,0.2
							c5.4,6.4,7.1,23.2,6,28.6c4.3-1.8,5.5,0.5,5.5,0.5C397.8,344,399.3,323.4,391.5,315.7z"/>
						<g>
							<g>
								<path class="st5" d="M365.5,373.5l-2.7,1.4c-1.7,0.8-3.7,0.8-5.4,0l-2.7-1.4l4.6,0.7c0.6,0.1,1.1,0.1,1.7,0L365.5,373.5z"/>
							</g>
						</g>
						<g>
							<path class="st5" d="M367.5,384.8c-2.1,0.7-8,2.6-14.6,0c-1.2-0.5-3.9-1.6-3.7-2.3c0.2-0.7,4,0,10.8,0.1
								c7.1,0.1,11.3-0.6,11.5,0.1C371.6,383.4,367.9,384.6,367.5,384.8z"/>
						</g>
						<g>
							<path class="st5" d="M364.1,390.6c0,0.3-1.7,0.5-3.8,0.5c-2.1,0-3.8-0.2-3.8-0.5c0-0.3,1.7-0.5,3.8-0.5
								C362.4,390.1,364.1,390.3,364.1,390.6z"/>
						</g>
					</g>
				</g>
				<g>
					<polygon class="st8" points="361.1,378.4 361.1,380.8 375.2,380.8 					"/>
					<path class="st8" d="M358.7,378.4v2.4c-2.5,0-5.1,0-7.6,0c-2.2,0-4.3,0-6.5,0c0,0,6.9-1.2,7-1.2
						C351.7,379.6,358.7,378.4,358.7,378.4z"/>
				</g>
				<g>
					<g>
						<polygon points="396.8,323.5 323.2,323.5 327.3,297.2 392.7,297.2 						"/>
						<g>
							<path class="st9" d="M281.9,322.1l1.8-7.2c0,0,0.3,0.1,1.1,0.3l0,0c0.7,0.2,1.9,0.4,3.3,0.7l0,0c3,0.6,7.4,1.4,13.3,2.2l0,0
								c11.7,1.6,28.9,3.2,50.9,3.2l0,0c22,0,48.8-1.6,79.7-6.4l0,0l1.1,7.3c-31.3,4.9-58.4,6.5-80.8,6.5l0,0
								C307.6,328.7,282.2,322.1,281.9,322.1L281.9,322.1z"/>
						</g>
					</g>
				</g>
			</g>
		</g>
		<path class="st10" d="M332.2,408.7"/>
		<g>
			<path class="st6" d="M444.7,569.1c-4.9,1.3-9.3-0.6-11.7-1.5c-21.1-7.7-29.8-38.2-31.2-43.4c2.6,18.8,4.4,39.1,4.9,60.7
				c0.1,6.2,0.1,12.2,0.1,18.1c-30.2-0.7-60.5-1.5-90.7-2.2c-0.5-12.3-0.8-25-0.7-38.2c0-11.4,0.3-22.4,0.7-33.1
				c-14.6,23.7-32.8,37.9-44,33.9c-10.4-3.8-13-22.8-15.3-43.4c-2.2-19.4-0.3-33.3,1.8-47.9c2.8-19.3,5.9-39.5,16.3-42.2
				c2.1-0.5,4-0.3,5.3,0.1c0.2,0.1,2.5,2.2,5.2,1.4c1.1-0.3,1.8-1,2.1-1.4c3.5-1.1,6.9-2.2,10.4-3.3c11.4-3.7,22.9-7.4,34.3-11.1
				c1.2-2.3,2.5-4.7,3.7-7c0.9-0.2,19.2-3.5,23.6,4.5c0.4,0.7,0.7,1.5,0.8,2.5c0.2-0.9,0.6-1.7,1-2.4c5-7.9,22.7-3.9,23.9-3.6
				c0.5,2,1,4,1.6,6c18.4,4.8,36.8,9.6,55.2,14.4c1.6-0.7,3.9-1.3,6.3-0.8c5.7,1.3,11,8.7,15.6,36.7c8.1,49.6-0.5,75.6-3.4,83.3
				C456.7,559.8,452,567.2,444.7,569.1z"/>
		</g>
	</g>
	<g style="clip-path:url(#SVGID_00000111872730861589916460000013028867891485501865_);">
		<polygon class="st9" points="419.9,598.9 302.3,598.9 312.2,561 410.1,561 		"/>
		<g>
			<path class="st6" d="M358.2,410.4c-4.6-4.8-23.6-3.2-23.6-3.2l-3,7.3l29.6,1.4C361.1,415.9,359.4,411.7,358.2,410.4z"/>
			<path class="st6" d="M362.7,410.4c4.6-4.8,23.6-3.2,23.6-3.2l3.8,7.5l-30.5,1.2C359.8,415.9,361.5,411.7,362.7,410.4z"/>
		</g>
		<polygon class="st6" points="309.9,561 361.1,561 361.1,415.9 331.5,414.5 326.8,416 295.9,477.7 		"/>
		<polygon class="st6" points="412.3,561 361.1,561 361.1,415.9 390.7,414.5 395.4,416 426.3,477.7 		"/>
		<rect x="358.8" y="417.8" class="st11" width="2.5" height="143.2"/>
		<g>
			<polygon points="344.8,423 352.9,545.8 301.2,554.6 280.2,430 326.8,416 			"/>
			<polygon points="377.4,423 369.3,545.8 421.1,554.6 442,430 395.4,416 			"/>
		</g>
	</g>
	<g style="clip-path:url(#SVGID_00000111872730861589916460000013028867891485501865_);">
		<g>
			<path class="st5" d="M316.5,394.7c0.3-2.2,0.3-4.4-0.1-6.6c-0.2-1.2-0.5-2.4-1.6-3c-0.4-0.2-0.8-0.3-1.3-0.3
				c-1.1-0.1-2.3,0.2-2.9,1.1c-0.4,0.6-0.6,1.4-0.6,2.1c-0.3,2.7-0.5,5.4-0.5,8.1c2-0.1,4.2-0.3,6.1-0.4
				C316.2,395.5,316,394.8,316.5,394.7z"/>
			<path class="st12" d="M340.9,388.4c2.7-1.1,7.1-2.4,12.6-2.1c4.3,0.2,10.8,1.6,10.9,3.4c0,1.9-7.4,4.6-14.4,3.7
				c-4-0.5-7.1-2.1-9.1-3.3c-16.9-1.5-33.7-3.1-50.6-4.6c0.4-1.2,0.9-2.4,1.3-3.6C307.9,384.1,324.4,386.2,340.9,388.4z"/>
			<path class="st5" d="M307.8,421.5c2.8-2.1,4.8-5.2,5.6-8.6c0.8-3.4,0.4-7.1-1.1-10.2c-2.7,0.2-5.2,1.6-6.6,3.9
				c-1.4,2.3-1.7,5.1-1.3,7.7C304.8,417,306.4,419.2,307.8,421.5z"/>
			<path class="st4" d="M292.6,432.9c0.9-9.2-1.3-18.7-6.1-26.7c-0.6-0.9-1.2-1.9-1.2-2.9c-0.1-1.7,1-3.2,2.1-4.5
				c0.7-4.3,4.2-7.3,7.5-10.1c2-1.8,4.1-3.6,6.4-5c1.4-0.9,2.9-1.6,4.4-2.3c2.4-1.2,4.7-2.3,7.1-3.5c0.8-0.4,1.8-0.8,2.6-0.4
				c0.9,0.4,1.1,1.6,0.8,2.6s-1.1,1.6-1.8,2.3c-2,1.8-4,3.6-6.4,5c4.4,1.3,8.6,3.4,12.4,6.2c0.6,0.5,1.3,1,1.5,1.7
				c0.2,0.7-0.2,1.7-1,1.8c1,0.9,1.4,2.2,2.1,3.3c0.6,1,1.1,2.1,0.8,3.2c-0.2,0.8-0.9,1.5-1.7,1.7c-0.8,0.2-1.7-0.1-2.3-0.7
				c0.5,0.8,0.8,1.6,1,2.5c0.1,0.5,0.2,1,0,1.4c-0.3,0.6-0.9,0.8-1.5,0.8c-0.6,0-1.2-0.3-1.7-0.5c-0.7-0.4-1.4-0.8-2-1.3
				c-0.2-0.2-0.5-0.4-0.7-0.4c-0.5-0.1-1,0.3-1.4,0.6c-1.3,1.1-2.8,2-4.3,2.8c-0.1,1.6-0.2,2.8-0.1,4.4c2.3,2.7,3.7,6.4,4,10
				c0.2,3.6-0.8,7.2-2.8,10.2C304,434.2,298.6,433.7,292.6,432.9z"/>
		</g>
		<path class="st13" d="M314.7,438.3c-0.3,7.6-0.8,19.2-0.9,33.4c-0.5,50.5-1.5,67.6-9.8,83.7c-1.2,2.4-9.7,9.5-21,10
			c-1.6,0.1-7,0.3-10.9-1.8c-3.3-1.8-12-8.9-6-50.8c2.7-18.9,8.5-45.9,22.4-77.6c0.7-0.6,7.8-6.3,16.5-3.8
			C310.7,432.9,313.8,437,314.7,438.3z"/>
		<path class="st13" d="M288.5,435.1c-1.8-0.9-5.9-3.4-8.8-8.3c-3.2-5.4-3.2-10.7-3.1-12.7c5.8,1.5,14.2,3.3,24.6,4
			c13,0.9,20.4-0.5,22.4,3.1c1.3,2.3,0.5,6.9-8.9,17C306,437.2,297.3,436.2,288.5,435.1z"/>
	</g>
	<path style="clip-path:url(#SVGID_00000111872730861589916460000013028867891485501865_);fill:#FFFFFF;" d="M466.5,522.3
		c-0.6,7.4-1.1,14.9-1.5,22.5c-1.6,28-2.2,55.1-2,81.1c-14.4,0.6-28.7,1.1-43.1,1.7c-0.5-9.9-1.1-19.8-1.7-29.9
		c-1-15-2.1-29.7-3.3-44.2c3.1,1.4,6.1,2.8,9.2,4.3C438.2,546,452.3,534.1,466.5,522.3z"/>
	<path style="clip-path:url(#SVGID_00000111872730861589916460000013028867891485501865_);fill:#96511D;" d="M531.6,618.7
		l-33.5-37.1c-3.7-4.1-13.2-6.9-23.7-6.9h-240c-10.5,0-20,2.7-23.7,6.9l-33.5,37.1c-2.3,2.5-1.7,5.1,0.9,7.2h352.7
		C533.3,623.8,533.9,621.2,531.6,618.7z"/>
	<g style="clip-path:url(#SVGID_00000111872730861589916460000013028867891485501865_);">
		<g>
			<path class="st16" d="M375.7,581.1c-0.4,0.1-1.3-1.8-2.4-4.9c-0.1-0.4-0.3-0.8-0.4-1.2c-0.1-0.4-0.3-0.9-0.4-1
				c-0.1-0.1-0.1-0.1-0.1-0.1c0,0-0.1,0-0.2,0c-0.3,0-0.7,0.1-1.3,0.2c-2.3,0.5-4.8,1.3-7.3,2.3c-1.2,0.5-2.4,1.1-3.5,1.6
				c-0.6,0.3-1.1,0.6-1.6,0.9c-0.3,0.2-0.5,0.3-0.8,0.4l-0.4,0.2l-0.2,0.1c-0.1,0-0.1,0-0.1,0.1c-0.4,0.2-0.6,0.8-0.3,1.2
				c0,0.1,0.1,0.2,0.2,0.3c0.1,0,0.1,0.1,0.2,0.1l0.3,0.2c0.4,0.3,0.8,0.5,1.2,0.7c3,1.8,5.1,2.8,4.9,3.2c-0.1,0.3-2.6,0-6.1-1.4
				c-0.4-0.2-0.9-0.4-1.4-0.6c-0.1-0.1-0.2-0.1-0.4-0.2c-0.1-0.1-0.3-0.2-0.5-0.3c-0.3-0.2-0.6-0.5-0.8-0.8
				c-0.5-0.6-0.7-1.4-0.6-2.2c0.1-0.8,0.5-1.6,1.3-2.2c0.1-0.1,0.2-0.2,0.3-0.2l0.2-0.1l0.4-0.3c0.3-0.2,0.5-0.3,0.8-0.5
				c0.5-0.3,1.1-0.7,1.7-1c1.2-0.7,2.5-1.3,3.8-1.8c2.7-1.1,5.5-1.9,8-2.3c0.6-0.1,1.4-0.2,2.3-0.1c0.4,0.1,1,0.2,1.4,0.5
				c0.5,0.3,0.8,0.6,1,1c0.4,0.7,0.4,1.3,0.5,1.7c0.1,0.4,0.1,0.9,0.2,1.3C376.1,579,376.1,581.1,375.7,581.1z"/>
		</g>
		<path class="st17" d="M455.9,591.9c0-8.7-22-15.7-49.1-15.7c-27.1,0-49.1,7-49.1,15.7c0,5.4,10.8,15.5,13.3,17.8
			c3.4,3.1,16,7.7,35.8,7.7c19.8,0,32.2-4.7,35.8-7.7C445.7,607.1,455.9,597.3,455.9,591.9z"/>
		<ellipse class="st18" cx="406.8" cy="591.9" rx="46.8" ry="14.1"/>
		<path class="st16" d="M392.1,608.2c-5.6-0.6-11.5-0.9-17.4-3.2c2.3,2.8,4.9,6.2,7.2,9.6c3.6,1,8.1,1.8,13.2,2.4
			C394,614,393,611.1,392.1,608.2z"/>
		<g>
			<path class="st19" d="M453.2,592.4c-0.2-0.2-0.7-0.3-1-0.3c-0.1-0.1-0.2-0.2-0.4-0.3c-0.3-0.2-0.8-0.4-1.2-0.6c0-0.1,0-0.3,0-0.4
				c0-0.4-0.3-0.7-0.3-1.1c-0.2-0.8-1.3-1-2-0.6c-0.2-0.2-0.3-0.5-0.5-0.7c-0.4-0.5-1.2-0.3-1.6,0.2c-0.3-0.4-0.7-0.8-1.3-0.9
				c-0.5-0.2-1.1,0.1-1.4,0.4c-0.1,0-0.2-0.1-0.2-0.1c-0.2-0.1-0.5-0.1-0.7-0.2c-0.2-0.4-0.4-0.8-0.8-1.2c-0.6-0.6-1.6-1.1-2.6-0.8
				c-0.4,0.1-0.7,0.4-0.9,0.7c-0.1-0.1-0.3-0.3-0.5-0.4c-0.6-0.3-1.3-0.4-2-0.4c-0.3,0-0.7,0-1,0.1c0,0,0,0,0,0
				c-0.6-0.9-1.4-1.5-2.4-2.1c-0.6-0.4-1.3,0.1-1.4,0.6c-0.5-0.4-1.1-0.7-1.6-0.8c-0.6-0.2-1.5,0.1-1.8,0.6
				c-0.2,0.3-0.2,0.6-0.2,0.9c-0.3-0.5-0.8-0.8-1.4-1.1c-0.3-0.2-0.6-0.3-1-0.4c-0.3-0.1-0.7-0.1-1-0.1c-0.2,0-0.4,0-0.6,0.1
				c-0.7-0.8-1.7-1.4-2.6-1.9c-0.3-0.2-0.8-0.2-1,0c-0.1,0-0.1,0.1-0.2,0.1c0,0,0,0,0,0c-0.3,0.2-0.4,0.6-0.3,0.9c0,0,0,0,0,0
				c-0.3,0.1-0.5,0.2-0.8,0.4c-0.2,0.1-0.4,0.3-0.6,0.5c0,0,0,0-0.1,0.1c-0.1-0.3-0.4-0.5-0.7-0.7c-0.2-0.1-0.4-0.3-0.6-0.4
				c-0.2-0.1-0.5-0.2-0.7-0.2c-0.3-0.1-0.6-0.1-0.9,0.1c-0.2,0.2-0.4,0.5-0.3,0.7c0.1,0.3,0.3,0.7,0.5,1c-0.1-0.1-0.1-0.1-0.2-0.1
				c-0.3-0.1-0.5-0.2-0.8-0.3c0.1-0.9-0.8-1.8-2.1-1.6c-0.3,0-0.9,0.2-1.6,0.4c0,0-0.1-0.1-0.1-0.1c-0.3-0.3-0.8-0.6-1.2-0.8
				c-0.4-0.2-0.9-0.4-1.1-0.5c-0.6-0.3-1.4-0.2-1.8,0.3c-0.5,0.5-0.3,1.1,0.1,1.6c0.1,0.1,0.2,0.2,0.3,0.3c-0.1,0-0.2-0.1-0.3-0.1
				c-0.1,0-0.1,0-0.2-0.1c0,0,0,0-0.1,0c-0.1,0-0.2-0.1-0.2-0.1c0,0-0.1,0-0.1-0.1c0.1,0.1,0.1,0.1,0,0c-0.1,0-0.1,0,0,0
				c-0.1,0-0.1-0.1-0.2-0.1c-0.1,0-0.1,0-0.2-0.1c0,0,0,0,0,0c0,0,0,0,0,0c-0.1,0-0.1,0-0.2-0.1c0.1,0,0.1,0,0.2,0.1
				c-0.4-0.3-0.8-0.4-1.3-0.2c-0.4,0.1-0.8,0.6-0.7,1c0,0.1,0,0.3,0.1,0.4c0,0.2,0.1,0.4,0.2,0.6c0,0.1,0.1,0.2,0.2,0.2
				c-0.4,0-0.8,0-1.3,0c0.1-0.7-0.4-1.2-0.8-1.7c0,0,0,0,0-0.1c-0.1-0.1-0.1-0.2-0.2-0.3c-0.2-0.2-0.3-0.3-0.4-0.5
				c-0.5-0.7-1.7-0.6-2,0.2c-0.1,0.2-0.1,0.4-0.1,0.5c-0.9-0.5-2.2-0.7-3-0.9c-0.7-0.2-1.5,0.2-1.7,0.7c0,0.1-0.1,0.1-0.1,0.2
				c-0.1-0.1-0.1-0.2-0.2-0.3c0.1,0.1,0,0.1,0-0.1c-0.1-0.2-0.1-0.3-0.2-0.5c-0.2-0.6-0.9-1-1.6-0.9c-0.7,0.1-1.2,0.6-1.2,1.2
				c0,0.5,0,1,0.1,1.5c-0.7-0.4-1.4-0.7-2.2-0.8c-0.7-0.1-1.6,0.4-1.3,1.1c0.1,0.3,0.2,0.5,0.4,0.8c0,0,0.1,0.1,0.1,0.1
				c-0.2-0.1-0.4-0.1-0.6-0.2c0,0,0,0,0,0c0,0,0-0.1,0-0.1c-0.3-1-1.9-1.6-3-1.5c-0.8,0-1.1,0.7-0.8,1.2c0.1,0.3,0.4,0.6,0.7,0.8
				c0,0,0,0.1,0,0.1c-1-0.1-2.1,0.1-2.9,0.5c-0.5,0.3-0.7,0.8-0.5,1.2c-0.2,0-0.3,0.1-0.4,0.1c0-0.1-0.1-0.3-0.1-0.4
				c0-0.1,0-0.1,0-0.2c-0.1-0.6-1-1.1-1.6-0.6c0,0,0,0-0.1,0.1c0.1-0.4,0.1-0.8-0.3-1c-0.4-0.3-1-0.2-1.3,0.1
				c-0.5,0.4-1.4,1.2-1.8,1.9c-0.3,0-0.5,0-0.7,0c-1.1,0-1.3,1.2-0.5,1.7c0,0,0,0,0,0c-0.1,0-0.3,0.1-0.4,0.1
				c-0.2-0.4-0.5-0.7-0.7-1.1c-0.6-0.7-2.1-0.5-2,0.5c0,0.5,0,1,0.1,1.5c-0.1,0-0.2,0.1-0.4,0.1c-0.4-0.2-0.9-0.3-1.4-0.5
				c-0.6-0.2-1.3-0.3-2-0.3c-0.9,0.1-1.5,0.8-1.1,1.6c0.2,0.3,0.4,0.5,0.7,0.8c-0.3,0.2-0.6,0.3-0.9,0.5c0-0.2,0.1-0.3,0.1-0.5
				c0.1-0.5-0.5-1-1.1-0.7c-0.6,0.3-1,0.7-1.2,1.2c-0.2-0.3-0.3-0.6-0.4-0.9c-0.1-0.5-1.1-0.5-1.1,0c-0.1,0.5-0.2,1-0.1,1.5
				c-0.2,0-0.4,0-0.6,0.1c-0.5,0.2-0.8,0.6-0.8,1.1c-0.1,0.7,0.2,1.4,0.7,1.9c0.3,0.4,0.8,0.7,1.3,0.8c6.3,5.6,23.7,9.6,44.3,9.6
				c21.9,0,40.2-4.5,45.4-10.6c0-0.1-0.1-0.1-0.2-0.2c0.1-0.1,0.2-0.1,0.3-0.2c0.5-0.4,0.8-0.9,1-1.4
				C453.5,593.2,453.5,592.7,453.2,592.4z M431.9,586.9C431.9,586.9,432,586.9,431.9,586.9C431.9,586.9,431.9,586.9,431.9,586.9
				C431.9,586.9,431.9,586.9,431.9,586.9z M427.9,586C427.9,586,427.9,586.1,427.9,586c0.1,0.1,0.1,0.1,0.1,0.1c0,0,0.1,0.1,0.1,0.1
				c-0.1,0-0.2,0-0.2,0C427.8,586.1,427.8,586,427.9,586C427.8,586,427.8,586,427.9,586z M415.7,585c0,0-0.1,0-0.1,0
				c0-0.1,0-0.1-0.1-0.2C415.6,584.9,415.7,584.9,415.7,585z M392.3,585.4c0,0,0-0.1,0-0.1c0,0,0.1,0,0.1,0
				C392.3,585.3,392.3,585.4,392.3,585.4C392.3,585.4,392.3,585.4,392.3,585.4z"/>
		</g>
		<g>
			<g>
				<path class="st20" d="M429.3,595.5c0.7,0,1.6,0,2.2-0.3c0.2-0.1,0.4-0.5,0.1-0.7c-0.7-0.5-1.8-0.3-2.6,0
					C428.4,594.8,428.7,595.6,429.3,595.5L429.3,595.5z"/>
			</g>
			<g>
				<path class="st20" d="M432.7,596.7c0.5,0.2,1.3,0.5,1.8,0c0.2-0.1,0.2-0.4,0-0.6c-0.4-0.3-1-0.2-1.5-0.2
					C432.5,595.9,432.3,596.5,432.7,596.7L432.7,596.7z"/>
			</g>
			<g>
				<path class="st20" d="M435.1,598.7c0.5,0.4,1.4,0.8,1.9,0.1c0.2-0.2,0.1-0.5-0.1-0.7c-0.2-0.2-0.5-0.2-0.7-0.3
					c-0.3-0.2-0.7-0.3-1,0C434.9,598.1,434.9,598.5,435.1,598.7L435.1,598.7z"/>
			</g>
			<g>
				<path class="st20" d="M439.4,599.5c0.3,0.2,0.7,0.3,1.1,0.2c0.4-0.1,0.6-0.3,0.7-0.7c0-0.2-0.2-0.3-0.3-0.4
					c0.1,0-0.3-0.1-0.2-0.1c-0.1,0-0.3,0-0.4,0c-0.1,0-0.2,0-0.4,0C439.2,598.4,438.8,599.2,439.4,599.5L439.4,599.5z"/>
			</g>
			<g>
				<path class="st20" d="M436.6,596.7c0.6,0.2,1.5,0.3,1.7-0.4c0.1-0.2,0-0.3-0.2-0.4c-0.4-0.2-0.8,0-1.2-0.1
					C436.2,595.7,436,596.5,436.6,596.7L436.6,596.7z"/>
			</g>
			<g>
				<path class="st20" d="M435.8,595.6c0.3-0.1,0.7,0,1-0.3c0.1-0.1,0.2-0.4,0.1-0.6c-0.4-0.4-0.9-0.3-1.4-0.2
					C434.7,594.8,435,595.9,435.8,595.6L435.8,595.6z"/>
			</g>
			<g>
				<path class="st20" d="M442.7,591.1c0.7-0.3,1.2,0.2,1.9,0.2c0.5,0,0.8,0,1.3,0.1c0.4,0.1,0.7,0.3,1.1,0.2c0.1,0,0.2-0.1,0.2-0.2
					c0.1-0.5-0.6-0.7-1.1-0.8c-0.3,0-0.6,0-0.9,0.1c-0.3,0.1-0.5,0.4-0.8,0.5c0.1,0,0.1,0.1,0.2,0.1c0.2-1.1-1.6-0.9-2.2-0.5
					C442.1,590.9,442.4,591.2,442.7,591.1L442.7,591.1z"/>
			</g>
			<g>
				<path class="st20" d="M449.2,594.2c0.6-0.1,1.3,0,2,0c0.8,0,0.9-0.9,0.2-1.1c-0.9-0.3-1.7,0.1-2.4,0.5
					C448.6,593.8,448.8,594.3,449.2,594.2L449.2,594.2z"/>
			</g>
			<g>
				<path class="st20" d="M439.6,589c0.4,0.1,0.8,0.2,1.3,0.1c0.2,0,0.4-0.2,0.4-0.4c0-0.2-0.1-0.4-0.3-0.5
					c-0.5-0.3-1.2-0.1-1.6,0.2C439.2,588.5,439.2,588.9,439.6,589L439.6,589z"/>
			</g>
			<g>
				<path class="st20" d="M421.6,603.5c0.7-0.3,0.9,0.1,1.5,0.3c0.4,0.1,0.7,0,1-0.1c0.5-0.2,0.9-0.3,1.5-0.3c0.4,0,0.6,0,1-0.2
					c0.1-0.1,0.1-0.2,0.1-0.4c-0.3-1.1-2-0.6-2.7-0.2c-0.3,0.2-0.4,0.3-0.8,0.2c-0.3-0.1-0.4-0.2-0.7-0.2c-0.5,0-0.9,0.1-1.3,0.4
					C420.9,603.3,421.3,603.7,421.6,603.5L421.6,603.5z"/>
			</g>
			<g>
				<path class="st20" d="M431.4,602.9c0.2-0.2,0.5-0.1,0.8-0.2c0.7-0.1,0.6-1,0-1.2c-0.7-0.2-1.3,0.2-1.7,0.7
					c-0.2,0.2-0.1,0.6,0.2,0.7C430.9,603.1,431.2,603.1,431.4,602.9L431.4,602.9z"/>
			</g>
			<g>
				<path class="st20" d="M415.9,598.4c0.2-0.1,0.5-0.2,0.8-0.2c0.3,0,0.5,0.1,0.8,0c0.4-0.1,0.5-0.4,0.5-0.7
					c-0.1-0.6-0.9-0.7-1.5-0.6c-0.6,0.1-0.9,0.4-1.3,0.8C414.8,598.1,415.4,598.7,415.9,598.4L415.9,598.4z"/>
			</g>
			<g>
				<path class="st20" d="M418.8,601c0.4-0.1,0.8,0,1.1-0.1c0.4-0.1,0.6-0.5,0.2-0.8c-0.5-0.4-1.2-0.2-1.8,0
					C417.8,600.3,418.2,601.1,418.8,601L418.8,601z"/>
			</g>
			<g>
				<path class="st20" d="M406,600.8c0.4-0.1,1.3-0.4,1.5,0.2c0.1,0.4,0.6,0.5,0.9,0.3c0.8-0.3,1.5-0.1,2.3,0c0.8,0.1,1-0.9,0.4-1.2
					c-1.1-0.5-2.3-0.3-3.3,0.3c0.3,0.1,0.6,0.2,0.9,0.3c-0.6-1.2-1.9-1.1-3-0.5C405.2,600.3,405.5,600.9,406,600.8L406,600.8z"/>
			</g>
			<g>
				<path class="st20" d="M408.6,603.4c0.4-0.2,0.9-0.1,1.3-0.1c0.4,0.1,0.8-0.1,0.9-0.4c0.1-0.3,0-0.7-0.3-0.9
					c-1-0.4-2-0.1-2.7,0.6C407.5,603.1,408.1,603.8,408.6,603.4L408.6,603.4z"/>
			</g>
			<g>
				<path class="st20" d="M406.8,598.1c0.3,0,0.5,0,0.8,0c0.1,0,0.3,0.1,0.4,0c0.1-0.1,0.2-0.1,0,0c0.1,0,0.1,0,0.2,0
					c0.2-0.1,0.3-0.2,0.2-0.3c0-0.1-0.1-0.1-0.1-0.2c0.1,0.1-0.1-0.1-0.1-0.1c-0.1-0.1-0.4-0.2-0.6-0.2c-0.4-0.1-0.8,0-1.2,0.2
					C406,597.6,406.4,598.2,406.8,598.1L406.8,598.1z"/>
			</g>
			<g>
				<path class="st20" d="M407.8,594.2c0.2,0,0.4,0,0.7,0c0.1,0,0.2,0.1,0.4,0.1c0.2,0,0.3,0,0.5,0c0.3,0,0.5-0.4,0.4-0.6
					c-0.4-0.8-1.6-0.8-2.4-0.4C406.8,593.5,407.2,594.3,407.8,594.2L407.8,594.2z"/>
			</g>
			<g>
				<path class="st20" d="M394.7,595.8C394.9,595.7,394.6,595.8,394.7,595.8c0.2-0.1,0.2-0.1,0.3-0.1c0.1,0,0.3-0.1,0.4-0.1
					c0.3,0,0.5,0,0.8,0.1c0.7,0.3,1.6-0.5,0.9-1c-0.5-0.4-1.2-0.5-1.8-0.4c-0.6,0.2-1,0.5-1.1,1.1
					C394.1,595.7,394.4,596,394.7,595.8L394.7,595.8z"/>
			</g>
			<g>
				<path class="st20" d="M396.7,593.2c0.6,0,1.1,0.2,1.6,0.5c0.6,0.3,1.2-0.3,0.9-0.8c-0.3-0.4-0.8-0.7-1.4-0.8
					c-0.6-0.1-1,0.1-1.4,0.4C396,592.8,396.3,593.2,396.7,593.2L396.7,593.2z"/>
			</g>
			<g>
				<path class="st20" d="M398.2,590c0.7-0.2,1.3,0,1.9,0.1c0.6,0,0.9-0.6,0.5-1c-0.4-0.4-1-0.4-1.5-0.4c-0.6,0-1,0.3-1.4,0.6
					C397.4,589.5,397.7,590.2,398.2,590L398.2,590z"/>
			</g>
			<g>
				<path class="st20" d="M391.7,594.6c0.4-0.3,0.7,0,0.9,0.3c0.4,0.4,1.1,0.4,1.3-0.1c0.1-0.1,0.2-0.2,0.3-0.3
					c0.2-0.1,0.2-0.3,0.1-0.5c0,0,0-0.1-0.1-0.1c-0.2-0.1-0.4-0.2-0.6-0.1c-0.2,0.1-0.3,0.2-0.6,0.2c0.3,0.2,0.6,0.4,0.9,0.6
					c0-0.6-0.6-1.2-1.4-1.3c-0.7-0.1-1.4,0.2-1.7,0.8C390.5,594.5,391.2,595,391.7,594.6L391.7,594.6z"/>
			</g>
			<g>
				<path class="st20" d="M393.8,592.4c0.6-0.2,1.3-0.1,1.9-0.2c0.5-0.1,0.7-0.8,0.2-1c-0.9-0.4-1.9,0-2.5,0.6
					C393,592,393.3,592.6,393.8,592.4L393.8,592.4z"/>
			</g>
			<g>
				<path class="st20" d="M392.8,589c0.5,0.1,1-0.1,1.5,0c0.4,0.1,0.9,0.1,1.2-0.2c0.2-0.2,0.2-0.6-0.2-0.7c-0.2,0-0.4-0.3-0.5-0.3
					c-0.3-0.1-0.6-0.1-0.9-0.1c-0.6,0.1-1.1,0.4-1.3,0.8C392.5,588.8,392.6,589,392.8,589L392.8,589z"/>
			</g>
			<g>
				<path class="st20" d="M392.9,587.1c0.5-0.1,1.1,0.2,1.6-0.1c0.3-0.2,0.4-0.5,0.1-0.8c-0.3-0.3-0.8-0.3-1.2-0.2
					c-0.3,0.1-0.6,0.3-0.9,0.4C392.2,586.7,392.4,587.2,392.9,587.1L392.9,587.1z"/>
			</g>
			<g>
				<path class="st20" d="M398.8,585.1c0.5-0.1,1,0,1.5,0c0.3,0,0.5-0.3,0.5-0.5c0-0.2-0.1-0.4-0.3-0.6c-0.7-0.4-1.7-0.1-2.3,0.3
					c-0.2,0.1-0.2,0.4-0.1,0.6C398.3,585,398.6,585.1,398.8,585.1L398.8,585.1z"/>
			</g>
			<g>
				<path class="st20" d="M414.1,586.3c0.4-0.2,0.9,0,1.2,0.1c0.4,0.1,0.7-0.1,0.9-0.4c0.1-0.3,0-0.6-0.3-0.8
					c-0.4-0.2-1-0.2-1.4-0.1c-0.2,0.1-0.4,0.2-0.5,0.3c-0.2,0.1-0.2,0.3-0.4,0.4C413.4,586.1,413.8,586.5,414.1,586.3L414.1,586.3z"
					/>
			</g>
			<g>
				<path class="st20" d="M418.6,584.8c0.1,0,0.1-0.1,0.2-0.1c0,0-0.1,0,0,0c0.1,0,0.3,0.1,0.5,0.1c0.3,0.1,0.6,0.2,0.9,0.3
					c0.6,0.2,1.2-0.6,0.7-1c-0.4-0.3-0.9-0.5-1.5-0.4c-0.5,0-0.8,0.3-1.1,0.6C418.1,584.5,418.3,584.9,418.6,584.8L418.6,584.8z"/>
			</g>
			<g>
				<path class="st20" d="M419.1,590c0.4-0.1,0.9,0,1.3,0c0.5,0.1,0.8,0.1,1.2-0.1c0.2-0.1,0.2-0.2,0.2-0.4
					c-0.2-1.2-2.4-0.7-3.2-0.3C418.2,589.5,418.6,590.1,419.1,590L419.1,590z"/>
			</g>
			<g>
				<path class="st20" d="M422.7,588.6c0.1,0,0.1,0.1,0.2,0.1c-0.1-0.1-0.2-0.1-0.2-0.2c0.2,0.3,0.6,0.4,1,0.5c0.5,0.1,1,0,1.4-0.3
					c0.5-0.4,0.2-1.1-0.4-1.2c-0.4-0.1-0.7,0-1.1,0.1c-0.3,0.1-0.6,0.1-0.8,0.3c0.2-0.1,0.3-0.1,0.5-0.2c-0.1,0-0.1,0-0.2,0
					C422.4,587.7,422.2,588.3,422.7,588.6L422.7,588.6z"/>
			</g>
			<g>
				<path class="st20" d="M407.3,590.3c0,0.5,0.4,0.9,0.9,1c0.3,0,0.6,0,0.8,0c0.3-0.1,0.5-0.1,0.8-0.2c0.7-0.4,0.3-1.2-0.4-1.2
					c-0.3,0-0.6,0.1-0.9,0.2c0,0-0.1,0-0.1,0c0.1,0,0.1,0,0,0c0.1,0,0.2,0.1,0.2,0.2C408.4,589.5,407.3,589.7,407.3,590.3
					L407.3,590.3z"/>
			</g>
			<g>
				<path class="st20" d="M410.8,591.9c0.1,0,0.2-0.1,0.4,0c0.1,0,0.3,0.1,0.4,0.1c0.3,0,0.6-0.2,0.6-0.4c0-0.7-1.2-0.6-1.7-0.5
					C409.8,591.2,410.1,592.1,410.8,591.9L410.8,591.9z"/>
			</g>
			<g>
				<path class="st20" d="M405,592.4c0.3,0.1,0.6,0.1,0.9,0.1c0.2,0,0.6,0,0.7,0c0.6,0.2,1.3-0.6,0.7-1c-0.4-0.3-0.8-0.2-1.3-0.2
					c-0.4,0.1-0.8,0.1-1.2,0.3C404.5,591.9,404.6,592.3,405,592.4L405,592.4z"/>
			</g>
			<g>
				<path class="st20" d="M404,596.5c-0.1-0.3-0.2-0.4-0.6-0.5c-0.3-0.1-0.5-0.1-0.8,0c-0.6,0.1-1.2,0.5-1,1.1
					c0.1,0.3,0.4,0.4,0.7,0.4c0.3,0,0.5-0.1,0.7-0.2c0.2-0.1,0.4-0.1,0.6-0.2c0.2-0.1,0.2-0.2,0.3-0.3c0,0.1,0,0.1,0,0
					C404,596.7,404,596.6,404,596.5L404,596.5z"/>
			</g>
			<g>
				<path class="st20" d="M403.4,600.3c0.3-0.1,0.7,0.2,0.8,0.3c0.3,0.3,0.7,0.5,1.2,0.2c0.2-0.1,0.2-0.4,0.1-0.5
					c-0.1-0.2-0.3-0.3-0.5-0.4c-0.2-0.1-0.4-0.3-0.7-0.3c-0.5,0-0.8,0.2-1.1,0.5C403,600.3,403.2,600.4,403.4,600.3L403.4,600.3z"/>
			</g>
			<g>
				<path class="st20" d="M402.4,604.7c0.5-0.3,1.1-0.1,1.6,0.1c0.6,0.3,1.5-0.5,0.8-0.9c-0.9-0.6-2.1-0.5-3,0.1
					C401.4,604.3,401.9,605,402.4,604.7L402.4,604.7z"/>
			</g>
			<g>
				<path class="st20" d="M409.2,605c0.2,0,0.4,0,0.6,0c0.2,0,0.4,0,0.5,0c0.4,0,0.7-0.6,0.2-0.7c-0.3-0.1-0.6-0.1-0.9-0.1
					c-0.3,0-0.5,0.2-0.7,0.5C408.8,604.8,409,605,409.2,605L409.2,605z"/>
			</g>
			<g>
				<path class="st20" d="M415.1,604.7c0.3,0,0.7,0.1,1,0.2c0.6,0.1,0.9-0.4,0.6-0.8c-0.2-0.2-0.6-0.3-1-0.4c-0.4,0-0.7,0.1-0.9,0.4
					C414.5,604.3,414.7,604.7,415.1,604.7L415.1,604.7z"/>
			</g>
			<g>
				<path class="st20" d="M419.5,604.6c0.5,0,1,0,1.5,0c0.8,0,0.9-1,0.2-1.2c-0.6-0.1-1.1-0.1-1.7-0.1c-0.4,0-0.7,0.3-0.7,0.6
					C418.8,604.3,419.2,604.6,419.5,604.6L419.5,604.6z"/>
			</g>
			<g>
				<path class="st20" d="M434.9,602.8c0.1,0,0.2,0,0.4,0c0.2,0,0.4-0.1,0.5-0.1c0.3-0.1,0.7-0.1,1-0.2c0.8-0.2,0.5-1.1-0.2-1.1
					c-0.5,0-1,0.1-1.3,0.3c-0.2,0.1-0.3,0.2-0.5,0.4c-0.1,0.2-0.1,0.4-0.2,0.5C434.5,602.7,434.7,602.8,434.9,602.8L434.9,602.8z"/>
			</g>
			<g>
				<path class="st20" d="M437.6,601.5c0.6,0.1,1.1,0.2,1.7,0.1c0.6-0.1,0.6-0.9,0-1c-0.6-0.1-1.1,0-1.7,0.1
					C437.1,600.8,437.1,601.4,437.6,601.5L437.6,601.5z"/>
			</g>
			<g>
				<path class="st20" d="M385.4,600.9c0.3-0.2,0.5-0.2,0.9-0.2c0.4-0.1,0.8-0.4,0.5-0.8c-0.2-0.4-0.8-0.3-1.2-0.2
					c-0.4,0.1-0.7,0.3-1,0.5c-0.3,0.2-0.2,0.6,0,0.8C384.8,601.1,385.1,601.1,385.4,600.9L385.4,600.9z"/>
			</g>
			<g>
				<path class="st20" d="M390.1,599.1c0.2-0.2,0.9,0.3,1.1,0.4c0.4,0.1,0.7,0.1,1.1,0.1c0.4,0,0.8-0.1,1.2,0c0.4,0.1,0.6,0.2,1,0
					c0.2-0.1,0.3-0.2,0.3-0.4c-0.3-1-1.7-0.6-2.5-0.4c-0.9,0.2-1.8-0.6-2.5,0.1C389.4,599,389.8,599.2,390.1,599.1L390.1,599.1z"/>
			</g>
			<g>
				<path class="st20" d="M389.2,601.7c0.4-0.2,0.7,0,1.1,0.2c0.3,0.1,0.6,0.2,0.9,0.1c0.7-0.1,1.7-0.2,2.1-0.8
					c0.2-0.3,0-0.6-0.3-0.7c-0.5-0.1-0.8,0-1.2,0.2c-0.3,0.1-0.5,0.2-0.8,0.2c-0.2,0-0.4-0.1-0.6-0.1c-0.6-0.2-1.1,0.1-1.4,0.6
					C388.7,601.6,389,601.8,389.2,601.7L389.2,601.7z"/>
			</g>
			<g>
				<path class="st20" d="M388.2,603.9c0.4-0.2,0.8-0.1,1.1-0.3c0.3-0.1,0.3-0.5,0-0.6c-0.6-0.2-1.1,0.1-1.6,0.4
					C387.4,603.6,387.8,604,388.2,603.9L388.2,603.9z"/>
			</g>
			<g>
				<path class="st20" d="M390.8,604.2c1.2-0.3,2.5,0.8,3.7,0.1c0.5-0.3,0.3-0.9-0.3-1c-0.4,0-0.8,0-1.2-0.1
					c-0.3-0.1-0.7-0.1-1.1-0.2c-0.6,0-1.1,0.2-1.5,0.7C390.3,604,390.5,604.3,390.8,604.2L390.8,604.2z"/>
			</g>
			<g>
				<path class="st20" d="M388,596.2c0.4,0.1,0.7,0.2,1,0.3c0.4,0,0.8,0.1,1.1,0c0.6-0.1,0.6-0.9,0-1c-0.4,0-0.7,0-1,0
					c-0.3,0-0.7,0.1-1,0.2C387.7,595.6,387.6,596.1,388,596.2L388,596.2z"/>
			</g>
			<g>
				<path class="st20" d="M381,600.5c0.5,0.4,1.4,0.7,2,0.4c0.3-0.2,0.3-0.4,0.1-0.7c-0.4-0.5-1.5-0.4-2-0.1
					C380.9,600.1,380.9,600.4,381,600.5L381,600.5z"/>
			</g>
			<g>
				<path class="st20" d="M375.5,599.9c0.5,0.3,0.9,0.6,1.5,0.7c0.5,0.1,1.2,0.3,1.7,0c0.2-0.1,0.3-0.4,0.1-0.6
					c-0.4-0.3-1-0.4-1.5-0.4c-0.6-0.1-1.1-0.1-1.7,0C375.5,599.5,375.3,599.8,375.5,599.9L375.5,599.9z"/>
			</g>
			<g>
				<path class="st20" d="M370.9,598c0.5,0,1-0.2,1.4,0c0.5,0.2,0.8,0.5,1.3,0.5c0.2,0,0.4-0.1,0.5-0.2c0.3-0.6-0.9-1.1-1.4-1.2
					c-0.8-0.2-1.9-0.2-2.2,0.6C370.5,597.8,370.7,597.9,370.9,598L370.9,598z"/>
			</g>
			<g>
				<path class="st20" d="M365.8,596.7c0.4,0.1,0.8,0.1,1.2,0.1c0.5,0,0.9,0.1,1.3,0.3c0.8,0.3,1.5-0.7,0.7-1
					c-0.9-0.4-2.9-0.7-3.4,0.4C365.6,596.6,365.7,596.7,365.8,596.7L365.8,596.7z"/>
			</g>
			<g>
				<path class="st20" d="M368.5,593.6c0.3-0.1,0.6,0,0.9,0.1c0.3,0.1,0.5-0.3,0.3-0.4c-0.4-0.3-0.9-0.3-1.4-0.1
					C368,593.3,368.2,593.7,368.5,593.6L368.5,593.6z"/>
			</g>
			<g>
				<path class="st20" d="M374.2,591.3c0.3-0.1,0.5,0,0.8,0c0.2,0,0.5,0.1,0.7,0c0.1,0,0.1-0.1,0.1-0.2c-0.1-0.7-1.3-0.5-1.8-0.3
					C373.8,591,373.9,591.4,374.2,591.3L374.2,591.3z"/>
			</g>
			<g>
				<path class="st20" d="M378.3,589.8c0.5,0.1,1,0.2,1.5,0.1c0.6-0.2,0.5-0.9-0.1-0.9c-0.5,0-1,0.1-1.5,0.3
					C378,589.4,378.1,589.7,378.3,589.8L378.3,589.8z"/>
			</g>
			<g>
				<path class="st20" d="M378.4,588.3c0.1-0.1,0.2-0.2,0.3-0.3c0-0.1-0.1-0.2-0.2-0.2c-0.2,0-0.3,0.1-0.5,0.1
					C377.7,588.1,378.1,588.6,378.4,588.3L378.4,588.3z"/>
			</g>
			<g>
				<path class="st20" d="M378.7,592.7c0.2,0,0.4,0,0.6-0.1c0.4-0.1,0.4-0.7,0-0.8c-0.2-0.1-0.4-0.1-0.6-0.1
					C378,591.6,378,592.8,378.7,592.7L378.7,592.7z"/>
			</g>
		</g>
		<g>
			<g>
				<path class="st21" d="M434.6,598.1c2.6-0.1,4.8,0.8,7.3,1.1c2.1,0.2,5.2-0.1,6.9-1.3c0.3-0.2,0.2-0.8-0.3-0.9
					c-1.4-0.2-2.7-0.1-4.1,0.1c-1.6,0.3-2.7,0.3-4.2,0.1c-0.3,0-0.6,0-0.9,0c-1.2,0-2.1-0.2-3.2-0.2c-1,0-1.2,0-1.7,0.7
					C434.3,597.9,434.5,598.1,434.6,598.1L434.6,598.1z"/>
			</g>
			<g>
				<path class="st21" d="M419.8,599.4c0.3,0.6,0.9,1.1,1.3,1.7c0.3,0.4,0.4,0.9,0.7,1.2c0.5,0.6,1.2,0.8,2.1,0.7
					c0.5-0.1,1-0.4,1.5-0.5c0.6-0.1,1.1,0.2,1.7,0.3c1.2,0.1,2.7-0.3,3.7-0.6c0.4-0.1,0.6-0.6,0.3-0.8c-0.7-0.5-1.1-0.5-2.1-0.3
					c-1.3,0.2-2.4-0.1-3.6,0c-0.5,0-1,0.4-1.4,0.4c-1.1,0-1.1-0.5-1.5-1.1c-0.5-0.8-1.1-1.4-2.2-1.6
					C419.9,598.6,419.6,599,419.8,599.4L419.8,599.4z"/>
			</g>
			<g>
				<path class="st21" d="M433.8,600.9c0.1,0,0.4,0.1,0.6,0.1c0.3,0.1,0.5,0.1,0.8,0.1c0.7,0,1.2-0.4,1.1-1c0-0.2-0.3-0.3-0.6-0.4
					c0.2,0-0.3,0-0.3,0c-0.1,0-0.2,0-0.3,0c-0.3,0-0.5,0-0.8,0.1c-0.5,0.1-0.9,0.3-1,0.7C433.2,600.8,433.5,601,433.8,600.9
					L433.8,600.9z"/>
			</g>
			<g>
				<path class="st21" d="M433.2,599.7c0.6,0.1,1.2,0.1,1.4-0.4c0.1-0.2-0.1-0.3-0.2-0.4c-0.3-0.2-0.7-0.1-1.1-0.1
					C432.7,598.7,432.6,599.6,433.2,599.7L433.2,599.7z"/>
			</g>
			<g>
				<path class="st21" d="M427.1,593.4c1.4,1.2,3.6,0.4,5.3,0.8c1.3,0.3,3,0.5,4-0.5c0.2-0.2,0.1-0.5-0.2-0.6
					c-0.7-0.2-1.3-0.1-2.1-0.1c-0.8,0-1.4-0.3-2.2-0.4c-0.9-0.1-1.8,0.1-2.7,0.1c-0.9,0-1.4-0.1-2.2,0.2
					C427,593,427,593.2,427.1,593.4L427.1,593.4z"/>
			</g>
			<g>
				<path class="st21" d="M408.6,597.1c-1.6,0.5,0.4,1.8,1,2.1c0.9,0.5,1,1.2,1.7,1.7c0.2,0.2,0.5,0.3,0.6,0.5
					c0.1,0.2-0.1,0.9-0.1,1.2c0,0.7,1,0.8,1.4,0.3c0.4-0.5,0.5-1.5,0.3-2.1c-0.3-0.6-1-0.6-1.4-1.1c-0.4-0.5-0.5-1-1.1-1.3
					c-0.4-0.2-0.8-0.3-1.2-0.6c-0.3-0.2-0.6-0.6-0.9-0.8C408.7,597.1,408.6,597.1,408.6,597.1L408.6,597.1z"/>
			</g>
			<g>
				<path class="st21" d="M414.8,603.4c0.4,0.3,0.8,0.4,1.3,0.5c0.5,0,1.1-0.1,1.4-0.6c0.2-0.3,0-0.7-0.4-0.8
					c-0.6-0.2-1.5,0.2-2.1,0.3C414.7,602.8,414.5,603.2,414.8,603.4L414.8,603.4z"/>
			</g>
			<g>
				<path class="st21" d="M393.3,601.9c-2,0.7,0.1,2.7,1.4,2.8c1.5,0.2,2.8-0.4,4.2,0c0.8,0.3,1.5,0.6,2.2,0c0.1-0.1,0.1-0.2,0-0.3
					c-0.8-0.7-1.8-1.3-2.9-1.4c-0.7,0-1.3,0.1-2,0.2c-0.5,0.1-1.4,0.2-1.9-0.1c-0.4-0.2-0.5-0.8-0.6-1.2
					C393.6,602,393.4,601.9,393.3,601.9L393.3,601.9z"/>
			</g>
			<g>
				<path class="st21" d="M403,602.7c0.2,0,0.5,0.1,0.8,0.1c0.3,0,0.4-0.1,0.7-0.1c0.1,0,0.1-0.2,0-0.2c-0.2-0.1-0.4-0.2-0.7-0.1
					c-0.3,0-0.5,0.1-0.8,0.1C402.8,602.4,402.8,602.6,403,602.7L403,602.7z"/>
			</g>
			<g>
				<path class="st21" d="M402.5,599.4c0.7,0.3,2,0.4,2.6,0c0.5-0.3,0.4-0.8-0.1-1c-0.4-0.1-0.9,0-1.3,0.1c-0.4,0.1-0.8,0.2-1.2,0.4
					C402.3,599,402.2,599.3,402.5,599.4L402.5,599.4z"/>
			</g>
			<g>
				<path class="st21" d="M402.8,595.2c0.2,0.7,1.1,1.2,1.9,1c0.5-0.1,0.9-0.4,1.2-0.7c0.4-0.4,0.4-0.7,0.2-1.2
					c-0.1-0.1-0.2-0.2-0.4-0.2c-0.3,0-0.5,0.1-0.7,0.2c-0.2,0.2-0.4,0.4-0.6,0.5c-0.3,0.2-0.8,0.4-1.1,0.2
					C403.1,594.7,402.7,594.9,402.8,595.2L402.8,595.2z"/>
			</g>
			<g>
				<path class="st21" d="M407.5,593.3c0.5,0,0.9,0.3,1.3,0.4c0.4,0.1,0.8,0.2,1.2,0.2c0.7,0,1.8-0.5,1.3-1.2
					c-0.3-0.5-1.1-0.2-1.7-0.3c-0.9-0.1-1.5-0.1-2.4,0.2C406.9,592.7,407.1,593.4,407.5,593.3L407.5,593.3z"/>
			</g>
			<g>
				<path class="st21" d="M381.4,600.5c0.9-0.1,1.6-0.6,2.4-0.9c1.2-0.5,1.8-0.6,3.1-0.5c1.1,0.1,3.3,0,3.2-1.4
					c0-0.1-0.1-0.2-0.2-0.3c-0.8-0.2-1.7,0.1-2.5,0.2c-0.8,0-1.6-0.2-2.4,0c-1.4,0.3-3.6,1.2-4,2.6
					C380.9,600.4,381.1,600.5,381.4,600.5L381.4,600.5z"/>
			</g>
			<g>
				<path class="st21" d="M389.7,596.4c0.3-0.4,1.6-0.2,2.1-0.2c0.7,0.1,1.5,0.2,2.1-0.4c0.3-0.3,0.1-0.7-0.2-0.8
					c-0.5-0.2-1-0.1-1.6-0.1c-0.5,0-0.9,0-1.4,0.1c-0.8,0.2-1,0.7-1.3,1.3C389.4,596.5,389.6,596.5,389.7,596.4L389.7,596.4z"/>
			</g>
			<g>
				<path class="st21" d="M368.1,595.4c0.8,0,1.1,0,1.9,0.5c0.3,0.2,0.4,0.4,0.7,0.5c0.8,0.4,1.8,0.4,2.6,0.8c1.2,0.5,2.5,1,3.3-0.2
					c0.1-0.2,0-0.4-0.2-0.5c-0.9-0.3-1.7-0.6-2.6-1c-0.9-0.4-1.9-0.5-2.7-1c-1.2-0.6-2.1-0.9-3.3-0.1
					C367.3,594.7,367.5,595.4,368.1,595.4L368.1,595.4z"/>
			</g>
			<g>
				<path class="st21" d="M387.3,591.9c1.8,0.7,3.6,0.2,4.7-1.2c0.2-0.2-0.1-0.5-0.4-0.4c-1.3,0.2-2.6,1.2-4,1
					C387.2,591.2,386.9,591.7,387.3,591.9L387.3,591.9z"/>
			</g>
			<g>
				<path class="st21" d="M394.3,588.5c0.6,0.1,1.3-0.1,1.9,0c0.6,0.1,1,0.5,1.6,0.5c0.4,0,0.8-0.3,0.8-0.7
					c-0.1-0.8-0.9-1.2-1.8-1.3c-0.4-0.1-0.9-0.1-1.3,0.1c-0.5,0.1-0.9,0.4-1.3,0.5C393.5,587.8,393.7,588.5,394.3,588.5L394.3,588.5
					z"/>
			</g>
			<g>
				<path class="st21" d="M392.4,586.1c0.6,0.1,1.1,0.2,1.7,0.2c0.6,0,1-0.1,1.5-0.4c0.2-0.2,0.3-0.4,0-0.6
					c-0.2-0.1-0.4-0.3-0.6-0.3c-0.2-0.1-0.5,0-0.7,0c-0.5,0-1.1,0-1.6,0C391.8,585,391.6,586,392.4,586.1L392.4,586.1z"/>
			</g>
			<g>
				<path class="st21" d="M418.3,584.3c0.2,0.1,0.4,0.2,0.6,0.3c0.2,0.1,0.5,0.1,0.8,0.1c0.5,0.1,1,0.2,1.5-0.1
					c0.2-0.1,0.3-0.3,0.2-0.4c-0.2-0.5-0.7-0.7-1.3-0.8c-0.3,0-0.6-0.1-0.9,0c-0.4,0-0.5,0.2-0.8,0.3
					C418.1,583.8,418,584.2,418.3,584.3L418.3,584.3z"/>
			</g>
			<g>
				<path class="st21" d="M405.9,605.6c0.9-0.1,1.7-0.1,2.5-0.2c0.5,0,1.1-0.2,1-0.7c-0.1-0.7-1.1-0.7-1.7-0.7
					c-0.8,0-1.6,0.2-2.3,0.6C404.9,605,405.2,605.7,405.9,605.6L405.9,605.6z"/>
			</g>
			<g>
				<path class="st21" d="M371.5,600.3c0.7,0.4,1.2,0.2,1.9,0.4c0.7,0.2,1.2,0.7,1.8,1c0.9,0.4,2.1,0.3,2.4-0.6
					c0-0.1-0.1-0.3-0.2-0.3c-1,0.1-1.9-0.7-2.8-1.1c-0.4-0.2-0.8-0.3-1.3-0.3c-0.6,0-1.1,0.3-1.6,0.4
					C371.3,599.8,371.3,600.2,371.5,600.3L371.5,600.3z"/>
			</g>
			<g>
				<path class="st21" d="M383.1,602.5c0.4,0,0.8,0,1.2,0.1c0.2,0,0.4-0.1,0.6-0.3c0,0,0,0,0,0c-0.1,0.1-0.1,0.1-0.2,0.2
					c0,0,0,0,0.1,0c0.2-0.1,0.3-0.4,0.2-0.6c0,0,0,0,0,0c0-0.2-0.2-0.4-0.5-0.4c-0.5-0.1-0.9-0.1-1.4-0.1c-0.3,0-0.6,0.2-0.6,0.6
					C382.5,602.3,382.8,602.5,383.1,602.5L383.1,602.5z"/>
			</g>
			<g>
				<path class="st21" d="M361.6,595.2c0.6,0.4,1.4-0.2,1.9-0.4c-0.2,0-0.3,0.1-0.5,0.1c-0.3-0.2-0.4-0.2-0.2,0
					c0,0.1,0.1,0.1,0.2,0.2c0.1,0.2,0.3,0.3,0.5,0.4c0.6,0.4,1.3-0.2,1.2-0.8c-0.1-0.8-1.1-1.8-2.1-1.2
					C362.1,593.8,360.8,594.6,361.6,595.2L361.6,595.2z"/>
			</g>
			<g>
				<path class="st21" d="M367.4,598.3c0.2,0.1,0.4,0.2,0.7,0.2c0.7,0,0.6-0.8,0-0.9c-0.1,0-0.2,0-0.3,0
					C367.2,597.4,367,598,367.4,598.3L367.4,598.3z"/>
			</g>
		</g>
		<g>
			<path class="st22" d="M407.3,595.5c0.7,1.5,1.6,3.2,2.8,4.3c0.7,0.7,1.6,1.3,2.3,2c0.7,0.7,1.2,1.2,2.3,1.5
				c0.6,0.2,1.3,0,1.7-0.4c2.6-2-0.2-4.3-2.2-5.5c-1.9-1.1-2.3-3.3-4.5-4.1C408.5,592.9,406.8,594.4,407.3,595.5L407.3,595.5z"/>
		</g>
		<g>
			<path class="st22" d="M414.8,588.7c0.9,0.3,1.6,0,2.5-0.2c2.1-0.5,4.2-0.5,6.3-0.7c2.2-0.2,5.7-0.8,5.6-3.2
				c0-0.2-0.2-0.5-0.5-0.5c-1.5-0.3-3.1,0.3-4.7,0.4c-2.1,0.2-4.2,0-6.2,0.6C417.2,585.3,412.5,587.8,414.8,588.7L414.8,588.7z"/>
		</g>
		<g>
			<path class="st22" d="M390.4,584.1c1.4,0.5,3,0.9,4.3,1.7c1.4,0.8,2.6,1.9,4.1,2.5c1.6,0.7,3.2-1,2-2.2c-1.4-1.3-3.6-2.9-5.6-3.5
				c-2-0.6-3.4,0-4.9,1C390.1,583.8,390.2,584.1,390.4,584.1L390.4,584.1z"/>
		</g>
		<g>
			<g>
				<path class="st23" d="M403,598.4c-0.5-1.6-1-3.2-1.5-4.8c-0.1-0.4-0.4-0.9-0.9-0.8c-0.2,0-0.4,0.2-0.6,0.4
					c-0.5,0.5-4.8,4.4-6.5,6.4c-0.4,0.4-0.7,0.9-0.8,1.4c-0.2,1.1,0.6,2.1,1.6,2.7c1.1,0.6,2.4,0.7,3.6,0.8c1.7,0.1,3.5,0,4.6-1.1
					c0.7-0.6,0.9-1.5,0.9-2.4C403.5,600.1,403.2,599.2,403,598.4z"/>
			</g>
			<g>
				<path class="st24" d="M401,595.1c0.4,0.2,0.7,0.5,1,0.8c0.1,0.1,0.2,0.3,0.4,0.4c-0.3-0.9-0.6-1.8-0.9-2.8
					c-0.1-0.4-0.4-0.9-0.9-0.8c-0.2,0-0.4,0.2-0.6,0.4c-0.4,0.4-3.4,3.1-5.4,5.2c1.6-0.9,2.7-2.3,4.4-3
					C399.6,595,400.4,594.8,401,595.1z"/>
			</g>
			<g>
				<path class="st25" d="M395,601.5c-0.8-0.3-1.6-0.7-1.9-1.4c-0.2,0.3-0.3,0.6-0.4,0.9c-0.2,1.1,0.6,2.1,1.6,2.7
					c1.1,0.6,2.4,0.7,3.6,0.8c1.7,0.1,3.5,0,4.6-1.1c0.5-0.5,0.8-1.2,0.9-1.9c-0.5,0.2-1.1,0.4-1.7,0.5
					C399.5,602.4,397.1,602.3,395,601.5z"/>
			</g>
			<path class="st26" d="M401,597.1c-0.1-0.1-0.1-0.2-0.2-0.3c0-0.6-0.7-1-1.3-0.7c-1.4,0.6-3.1,3-1.4,4.1
				C400.1,601.4,401.7,598.5,401,597.1z M398.5,598.5C398.6,598.5,398.6,598.5,398.5,598.5C398.6,598.5,398.6,598.5,398.5,598.5
				C398.6,598.6,398.5,598.6,398.5,598.5z"/>
		</g>
		<g>
			<g>
				<path class="st23" d="M426.4,586.5c-1.3,1.2-2.5,2.4-3.8,3.6c-0.3,0.3-0.6,0.7-0.4,1c0.1,0.1,0.4,0.1,0.6,0.1
					c0.7,0,6.4,0.1,9-0.2c0.6-0.1,1.2-0.1,1.7-0.4c1.1-0.5,1.7-1.6,1.8-2.5c0-0.9-0.4-1.7-0.9-2.4c-0.7-1-1.6-1.9-3.1-1.9
					c-0.9,0-1.9,0.4-2.7,0.9C427.7,585.2,427.1,585.9,426.4,586.5z"/>
			</g>
			<g>
				<path class="st24" d="M424.2,589.5c0-0.3,0.2-0.7,0.3-1c0.1-0.2,0.2-0.3,0.2-0.5c-0.7,0.7-1.5,1.4-2.2,2.1
					c-0.3,0.3-0.6,0.7-0.4,1c0.1,0.1,0.4,0.1,0.6,0.1c0.5,0,4.5,0,7.3-0.1c-1.6-0.3-3.4-0.2-4.9-0.6
					C424.8,590.3,424.3,590,424.2,589.5z"/>
			</g>
			<g>
				<path class="st25" d="M432.9,589c0.1,0.6,0,1.3-0.4,1.9c0.3-0.1,0.7-0.1,1-0.3c1.1-0.5,1.7-1.6,1.8-2.5c0-0.9-0.4-1.7-0.9-2.4
					c-0.7-1-1.6-1.9-3.1-1.9c-0.7,0-1.5,0.3-2.2,0.6c0.5,0.2,0.9,0.4,1.3,0.6C431.8,586,432.7,587.4,432.9,589z"/>
			</g>
			<path class="st26" d="M426.1,588.3c-0.1,0.1-0.2,0.2-0.2,0.3c-0.6,0.3-0.6,0.9-0.1,1.1c1.2,0.5,4.3-0.1,4.5-1.6
				C430.6,586.3,427.1,587.1,426.1,588.3z M428.5,588.8C428.5,588.8,428.5,588.8,428.5,588.8C428.5,588.8,428.5,588.8,428.5,588.8
				C428.6,588.8,428.6,588.8,428.5,588.8z"/>
		</g>
		<g>
			<g>
				<path class="st23" d="M402.7,585c0.5,1.1,0.9,2.1,1.4,3.2c0.1,0.3,0.4,0.6,0.8,0.6c0.2,0,0.4-0.1,0.6-0.2c0.5-0.3,5-2.8,6.6-4
					c0.4-0.3,0.7-0.6,0.9-0.9c0.3-0.7-0.5-1.4-1.6-1.8c-1.1-0.4-2.3-0.5-3.6-0.6c-1.6-0.1-3.5-0.1-4.7,0.6c-0.7,0.4-1,1-1,1.6
					C402.2,583.9,402.4,584.5,402.7,585z"/>
			</g>
			<g>
				<path class="st24" d="M404.6,587.3c-0.4-0.1-0.7-0.4-1-0.6c-0.1-0.1-0.2-0.2-0.3-0.3c0.3,0.6,0.5,1.2,0.8,1.9
					c0.1,0.3,0.4,0.6,0.8,0.6c0.2,0,0.4-0.1,0.6-0.2c0.4-0.2,3.5-2,5.5-3.3c-1.6,0.5-2.8,1.4-4.5,1.9
					C405.9,587.4,405.2,587.4,404.6,587.3z"/>
			</g>
			<g>
				<path class="st25" d="M410.7,583.2c0.8,0.2,1.5,0.5,1.9,1c0.2-0.2,0.4-0.4,0.4-0.6c0.3-0.7-0.5-1.4-1.6-1.8
					c-1.1-0.4-2.3-0.5-3.6-0.6c-1.6-0.1-3.5-0.1-4.7,0.6c-0.5,0.3-0.8,0.8-0.9,1.2c0.6-0.1,1.1-0.2,1.7-0.3
					C406.2,582.4,408.6,582.6,410.7,583.2z"/>
			</g>
			<path class="st26" d="M404.6,585.9c0.1,0.1,0.1,0.2,0.2,0.2c-0.1,0.4,0.6,0.7,1.3,0.5c1.4-0.3,3.2-1.9,1.5-2.7
				C405.6,583.1,403.9,585,404.6,585.9z M407.1,585.1C407.1,585.1,407,585.1,407.1,585.1C407,585.1,407,585.1,407.1,585.1
				C407.1,585,407.1,585,407.1,585.1z"/>
		</g>
		<g>
			<g>
				<path class="st23" d="M432.5,599.1c0.1-1.5-1.7-2.3-3.2-2.8c-3.3-1.2-7.3-2.3-10.9-3.3c-0.9-0.2-1.7,0.6-1.3,1.3
					c0.9,1.5,1.9,3,3,4.5c1,1.3,2.1,2.7,3.8,3.2c1.3,0.4,2.7,0.2,4,0c1.3-0.2,2.7-0.5,3.7-1.3C432.2,600.2,432.5,599.7,432.5,599.1z
					"/>
			</g>
			<g>
				<g>
					<path class="st24" d="M424.7,595c0.3,0,0.6,0,0.9,0.1c-2.3-0.7-4.8-1.4-7.1-2c-0.9-0.2-1.7,0.6-1.3,1.3
						c0.5,0.7,0.9,1.5,1.4,2.2c0.3-0.2,0.5-0.4,0.9-0.6C421,595,422.9,594.9,424.7,595z"/>
				</g>
				<g>
					<path class="st25" d="M432.4,598.4c-2,1.4-4.7,2.2-7.3,1.9c-2-0.2-3.8-1-5.3-2.2c0.2,0.2,0.3,0.4,0.5,0.7
						c1,1.3,2.1,2.7,3.8,3.2c1.3,0.4,2.7,0.2,4,0c1.3-0.2,2.7-0.5,3.7-1.3c0.5-0.4,0.8-1,0.8-1.5
						C432.5,598.9,432.5,598.6,432.4,598.4z"/>
				</g>
			</g>
			<path class="st26" d="M424,598.7c0.2,0,0.3,0,0.4,0c0.6,0.3,1.3-0.1,1.3-0.7c0-1.4-1.9-3.7-3.6-2.9
				C420,596.1,422.3,598.6,424,598.7z M423.7,596.2C423.7,596.2,423.7,596.2,423.7,596.2C423.7,596.2,423.7,596.2,423.7,596.2
				C423.6,596.2,423.6,596.1,423.7,596.2z"/>
		</g>
		<g>
			<g>
				<path class="st23" d="M380.3,583.4c1.3-1,3.1-0.3,4.5,0.4c3.2,1.5,6.6,3.5,9.8,5.3c0.8,0.5,0.5,1.5-0.4,1.7
					c-2,0.3-4,0.6-5.9,0.8c-1.8,0.2-3.8,0.3-5.3-0.5c-1.1-0.6-1.8-1.7-2.5-2.7c-0.6-1-1.3-2.1-1.1-3.3
					C379.5,584.3,379.8,583.7,380.3,583.4z"/>
			</g>
			<g>
				<g>
					<path class="st24" d="M389,586c-0.2-0.2-0.4-0.4-0.6-0.6c2.1,1.1,4.3,2.3,6.3,3.5c0.8,0.5,0.5,1.5-0.4,1.7
						c-0.9,0.2-1.9,0.3-2.8,0.4c0-0.3,0-0.6,0-0.9C391.2,588.6,390.2,587.2,389,586z"/>
				</g>
				<g>
					<path class="st25" d="M381.1,583c0,2.3,1,4.5,2.9,6.1c1.4,1.2,3.3,2,5.3,2.2c-0.3,0-0.6,0.1-0.9,0.1c-1.8,0.2-3.8,0.3-5.3-0.5
						c-1.1-0.6-1.8-1.7-2.5-2.7c-0.6-1-1.3-2.1-1.1-3.3c0.1-0.6,0.4-1.1,0.9-1.5C380.6,583.2,380.8,583.1,381.1,583z"/>
				</g>
			</g>
			<path class="st26" d="M386,588.8c-0.1-0.1-0.2-0.2-0.2-0.3c-0.6-0.2-0.7-0.9-0.2-1.3c1.2-0.9,4.5-1.1,4.9,0.7
				C390.9,589.9,387.2,589.9,386,588.8z M388.5,587.4C388.5,587.5,388.5,587.5,388.5,587.4C388.5,587.5,388.5,587.5,388.5,587.4
				C388.6,587.5,388.6,587.5,388.5,587.4z"/>
		</g>
		<g>
			<path class="st22" d="M423.8,592.7c1.4,0.3,2.8,0.1,4.2,0.4c1.7,0.3,3.3,0.8,5,1c2.7,0.3,7.1,0.6,8.5-1.9
				c0.3-0.6,0.2-1.3-0.5-1.6c-1.6-0.9-3.1-0.4-4.8-0.3c-2.1,0.2-4.1,0-6.1-0.3c-2.3-0.4-5.7-0.9-6.9,1.4
				C422.9,591.8,423.1,592.5,423.8,592.7L423.8,592.7z"/>
		</g>
		<g>
			<g>
				<path class="st27" d="M368.7,588.5c-0.4,1.3-0.2,2.8,0.5,4.1c1.2,2.2,3.7,4.3,6.9,5c3.2,0.6,6.5-0.7,8.1-2.8
					c1.9-2.5,1-5-1.3-7.1c-0.4-0.4-1.3-0.3-1.6,0.1c-0.8,1.2-0.4,2.6-1,3.9c-0.4,0.8-1.8,1.5-3,1.2c-1.3-0.3-2.1-1.6-2.5-2.5
					c-0.5-1.3-0.6-2.7-0.9-4C373.7,585.6,369.1,587,368.7,588.5z"/>
			</g>
			<g>
				<path class="st27" d="M360.9,591.5c1.5-0.6,2.7-1.5,4.1-2.1c1.9-0.8,3.9-1.2,6.1-1.4c0.1,0,0.1-0.1,0-0.1
					C367.3,587.5,363,589.2,360.9,591.5C360.8,591.5,360.9,591.5,360.9,591.5L360.9,591.5z"/>
			</g>
			<g>
				<path class="st27" d="M360.6,588.1c4.3-1.4,8.5-1.4,12.8-0.1c0.1,0,0.1-0.1,0.1-0.1c-3.9-1.8-9.1-1.7-13,0.1
					C360.4,588,360.5,588.2,360.6,588.1L360.6,588.1z"/>
			</g>
			<g>
				<path class="st28" d="M375.2,592.5c0.1-0.2-0.1-0.4-0.4-0.3c-0.9,0.3-1.5,1-2.3,1.4c-0.7,0.3-1.4,0.5-2.2,0.5
					c0.2,0.2,0.3,0.4,0.5,0.6C372.6,594.7,374.6,593.6,375.2,592.5z"/>
				<path class="st28" d="M377.5,593.5c0-0.2-0.4-0.3-0.6-0.1c-0.6,0.7-0.7,1.6-1.3,2.3c-0.5,0.5-1,0.9-1.7,1.2
					c0.3,0.1,0.5,0.2,0.8,0.3h0C376.4,596.4,377.6,594.7,377.5,593.5z"/>
				<path class="st28" d="M380,593c-0.1-0.1-0.4-0.1-0.4,0.1c0.1,0.8,0.6,1.6,0.5,2.4c-0.1,0.8-0.5,1.4-1,2c0.4,0,0.7-0.1,1.1-0.2
					C381.3,596,381.6,594,380,593z"/>
				<path class="st28" d="M381.6,592.3c0.4,0.4,1,0.7,1.5,1.1c0.3,0.2,0.9,0.7,1.1,1.1c0.2-0.3,0.3-0.5,0.5-0.8
					c-0.1-0.2-0.3-0.3-0.4-0.5c-0.6-0.6-1.4-1.2-2.4-1.3C381.7,592,381.5,592.2,381.6,592.3z"/>
				<path class="st28" d="M371,589.6c-0.1,0-0.1,0.1-0.1,0.1c-0.1,0.1-0.1,0.2-0.1,0.3c0.1,0.3,0.5,0.4,0.8,0.3
					c0.2-0.1,0.3-0.2,0.4-0.3C372,589.6,371.4,589.4,371,589.6z"/>
			</g>
		</g>
		<g>
			<g>
				<path class="st27" d="M434.8,586.5c-0.9,1.1-1.4,2.5-1.3,3.9c0.1,2.5,1.6,5.2,4.2,6.8c2.7,1.6,6.3,1.4,8.7,0
					c2.9-1.7,3.1-4.3,1.8-7c-0.2-0.5-1.1-0.7-1.5-0.4c-1.3,0.9-1.5,2.3-2.6,3.3c-0.7,0.6-2.3,0.8-3.3,0.2c-1.1-0.7-1.3-2.2-1.3-3.1
					c0.1-1.3,0.6-2.7,0.9-4C440.6,585.5,435.8,585.3,434.8,586.5z"/>
			</g>
			<g>
				<path class="st27" d="M426.2,586.8c1.6-0.1,3.1-0.5,4.8-0.7c2.1-0.1,4.2,0.1,6.2,0.7c0.1,0,0.1-0.1,0.1-0.1
					C433.9,585.2,429.2,585.3,426.2,586.8C426.2,586.8,426.2,586.8,426.2,586.8L426.2,586.8z"/>
			</g>
			<g>
				<path class="st27" d="M427.4,583.6c4.6,0.1,8.4,1.5,11.9,4c0.1,0.1,0.2,0,0.1-0.1c-2.9-3-7.7-4.5-12.1-4.1
					C427.3,583.5,427.3,583.6,427.4,583.6L427.4,583.6z"/>
			</g>
			<g>
				<path class="st28" d="M439.1,592.4c0.2-0.1,0.1-0.4-0.2-0.4c-1,0-1.8,0.5-2.7,0.6c-0.8,0.1-1.5,0-2.3-0.2
					c0.1,0.2,0.2,0.5,0.2,0.7C435.7,593.6,438,593.1,439.1,592.4z"/>
				<path class="st28" d="M440.7,594c0.1-0.2-0.2-0.4-0.5-0.3c-0.8,0.5-1.3,1.2-2.2,1.7c-0.7,0.3-1.3,0.5-2.1,0.5
					c0.2,0.2,0.4,0.4,0.6,0.6l0,0C438.5,596.4,440.4,595.2,440.7,594z"/>
				<path class="st28" d="M443.3,594.3c-0.1-0.1-0.4-0.2-0.4,0c-0.3,0.8-0.1,1.6-0.6,2.4c-0.4,0.7-1.1,1.1-1.8,1.5
					c0.4,0.1,0.7,0.1,1.1,0.1C443.2,597.5,444.4,595.8,443.3,594.3z"/>
				<path class="st28" d="M445.1,594.2c0.2,0.5,0.6,1,0.9,1.5c0.2,0.3,0.5,0.9,0.6,1.4c0.3-0.2,0.5-0.4,0.7-0.6
					c-0.1-0.2-0.1-0.4-0.2-0.6c-0.3-0.7-0.8-1.6-1.7-2C445.3,593.9,445.1,594.1,445.1,594.2z"/>
				<path class="st28" d="M436.4,588.3c-0.1,0-0.1,0-0.2,0.1c-0.1,0-0.2,0.1-0.2,0.2c0,0.3,0.3,0.5,0.6,0.5c0.2,0,0.4-0.1,0.5-0.2
					C437.3,588.6,436.9,588.2,436.4,588.3z"/>
			</g>
		</g>
		<g>
			<g>
				<path class="st27" d="M417.3,593c0.2-1.4-0.2-2.8-1.1-4c-1.5-2.1-4.3-3.9-7.5-4.2c-3.3-0.3-6.3,1.4-7.6,3.6
					c-1.5,2.7-0.2,5.1,2.4,6.9c0.4,0.3,1.3,0.1,1.5-0.3c0.6-1.3,0-2.6,0.4-3.9c0.3-0.8,1.6-1.7,2.8-1.6c1.3,0.1,2.4,1.3,2.8,2.2
					c0.7,1.2,1,2.7,1.5,3.9C412.8,596.3,417.2,594.4,417.3,593z"/>
			</g>
			<g>
				<path class="st27" d="M424.7,589.1c-1.3,0.8-2.4,1.8-3.8,2.6c-1.7,1-3.7,1.7-5.8,2c-0.1,0-0.1,0.1,0,0.1
					C418.9,593.8,422.9,591.6,424.7,589.1C424.7,589.1,424.7,589.1,424.7,589.1L424.7,589.1z"/>
			</g>
			<g>
				<path class="st27" d="M425.4,592.4c-4.1,1.9-8.2,2.3-12.7,1.5c-0.1,0-0.1,0.1-0.1,0.1c4.2,1.4,9.3,0.7,12.9-1.5
					C425.7,592.5,425.5,592.4,425.4,592.4L425.4,592.4z"/>
			</g>
			<g>
				<path class="st28" d="M410.3,589.7c-0.1,0.2,0.2,0.4,0.4,0.2c0.8-0.4,1.3-1.2,2.1-1.6c0.7-0.4,1.4-0.6,2.1-0.7
					c-0.2-0.2-0.4-0.3-0.6-0.5C412.6,587.2,410.8,588.6,410.3,589.7z"/>
				<path class="st28" d="M407.9,589c0.1,0.2,0.4,0.3,0.6,0.1c0.5-0.8,0.5-1.6,0.9-2.4c0.4-0.6,0.9-1,1.5-1.3
					c-0.3-0.1-0.6-0.2-0.9-0.2l0,0C408.6,585.9,407.6,587.8,407.9,589z"/>
				<path class="st28" d="M405.5,589.7c0.2,0.1,0.4,0,0.4-0.2c-0.2-0.8-0.8-1.5-0.8-2.3c0-0.8,0.3-1.5,0.7-2.1
					c-0.4,0.1-0.7,0.2-1,0.3C403.8,586.9,403.8,588.9,405.5,589.7z"/>
				<path class="st28" d="M404,590.6c-0.5-0.4-1.1-0.6-1.7-0.9c-0.3-0.2-1-0.6-1.3-1c-0.1,0.3-0.3,0.5-0.3,0.8
					c0.2,0.2,0.4,0.3,0.5,0.4c0.7,0.5,1.6,1,2.6,1C404,590.9,404.1,590.7,404,590.6z"/>
				<path class="st28" d="M414.9,592.1c0.1,0,0.1-0.1,0.1-0.1c0.1-0.1,0.1-0.2,0.1-0.3c-0.1-0.2-0.5-0.3-0.8-0.2
					c-0.2,0.1-0.3,0.2-0.3,0.4C414,592.2,414.6,592.4,414.9,592.1z"/>
			</g>
		</g>
		<g>
			<path class="st22" d="M379,600.9c1.4,0.4,2.1-0.4,3.1-1.1c1.6-1.3,2.9-1.9,4.9-2.5c1.8-0.6,7.1-3,5.3-5.4
				c-1.3-1.9-4.9,0.4-6.3,0.9c-3.6,1.4-6.3,2.5-7.9,5.8c-0.2,0.5-0.4,1.2,0,1.6C378.4,600.5,378.6,600.8,379,600.9L379,600.9z"/>
		</g>
		<g>
			<path class="st16" d="M430.3,606c0.2,0,0.5,0.3,1.2,1c0.6,0.7,1.6,1.7,2.6,2.9c0.3,0.3,0.6,0.6,0.9,1c0.2,0.2,0.3,0.3,0.4,0.4
				c0.1,0.1,0.3,0.2,0.4,0.3c0.6,0.4,1.4,0.7,2.3,0.7c0.4,0,0.9,0,1.3-0.1l0.3-0.1l0.3-0.1c0.3-0.1,0.6-0.2,0.9-0.4
				c1.2-0.5,2.4-1,3.6-1.5c1.2-0.5,2.4-1.1,3.5-1.6c0.6-0.3,1.1-0.5,1.6-0.8c0.5-0.3,1.1-0.6,1.1-0.7c0.3-0.3,0.4-0.8,0.2-1.2
				c-0.1-0.1-0.1-0.2-0.2-0.3c-0.1-0.1-0.4-0.3-0.6-0.4c-0.4-0.2-0.8-0.5-1.1-0.7c-2.9-1.8-4.8-2.7-4.7-3.1c0.2-0.3,2.5,0,5.9,1.4
				c0.4,0.2,0.9,0.4,1.3,0.6c0.2,0.1,0.4,0.2,0.7,0.4c0.3,0.2,0.6,0.4,0.9,0.7c0.5,0.6,0.8,1.3,0.9,2c0,0.8-0.3,1.6-0.9,2.2
				c-0.3,0.3-0.7,0.6-0.9,0.8c-0.3,0.2-0.5,0.3-0.8,0.5c-0.5,0.3-1.1,0.6-1.7,0.9c-1.2,0.6-2.4,1.2-3.6,1.7
				c-1.3,0.6-2.5,1.1-3.7,1.5c-0.3,0.1-0.6,0.2-0.9,0.3l-0.6,0.2l-0.6,0.1c-0.8,0.2-1.6,0.2-2.4,0.1c-1.5-0.2-2.9-0.8-3.8-1.6
				c-0.2-0.2-0.5-0.4-0.6-0.6c-0.2-0.2-0.4-0.5-0.5-0.7c-0.2-0.4-0.5-0.7-0.7-1.1c-0.9-1.4-1.5-2.6-1.8-3.5
				c-0.2-0.4-0.3-0.8-0.3-1.1C430.1,606.2,430.2,606,430.3,606z"/>
		</g>
	</g>
	<g style="clip-path:url(#SVGID_00000111872730861589916460000013028867891485501865_);">
		<path class="st18" d="M323.2,592.4L323.2,592.4c0,0.3,0,0.6-0.1,0.9c-0.2,1.7-0.8,3.4-1.7,5.1c-1.7,3.3-4.7,6.4-8.4,9
			c-6.3,4.5-14.8,7.5-23.2,7.5c-8.4,0-16.9-3.1-23.2-7.5c-3.7-2.6-6.7-5.8-8.4-9.1c-0.9-1.7-1.5-3.4-1.7-5.1c0-0.3-0.1-0.6-0.1-0.8
			v0c0.5-9.2,16.9-12.9,30.6-13.3h0.1c0.4,0,0.8,0,1.2,0c0.5,0,1,0,1.5,0c0.5,0,1,0,1.5,0c0.4,0,0.8,0,1.2,0h0.1
			C306.3,579.5,322.7,583.2,323.2,592.4z"/>
		<path class="st29" d="M323.2,592.8c0,0.1,0,0.2,0,0.2c0,0.1,0,0.1-0.1,0.2c-2.7,5.7-16.6,10.1-33.3,10.1
			c-16.7,0-30.6-4.4-33.3-10.1c0-0.1-0.1-0.1-0.1-0.2c0-0.1,0-0.2,0-0.2c0-0.1,0-0.3,0-0.4v0c0.5-9.2,16.9-12.9,30.6-13.3h0.1
			c0.4,0,0.8,0,1.2,0c0.5,0,1,0,1.5,0c0.5,0,1,0,1.5,0c0.4,0,0.8,0,1.2,0h0.1c13.8,0.4,30.1,4.1,30.6,13.3v0
			C323.2,592.5,323.2,592.7,323.2,592.8z"/>
		<path class="st17" d="M318.5,592.9C318.6,592.9,318.6,592.9,318.5,592.9c-3.3,5.1-14.9,8.8-28.8,8.8c-13.9,0-25.5-3.7-28.8-8.8
			c0,0,0,0,0,0c0.2-6.2,13-11.2,28.8-11.2C305.6,581.7,318.4,586.7,318.5,592.9z"/>
		<g>
			<path class="st30" d="M321.4,598.3c-1.7,3.3-4.7,6.4-8.4,9c-6.3,2.7-14.4,4.2-23.2,4.2c-8.8,0-16.9-1.6-23.2-4.2
				c-3.7-2.6-6.7-5.8-8.4-9.1c4.9,6.1,17.5,10.4,31.7,10.4C303.9,608.8,316.5,604.5,321.4,598.3z"/>
		</g>
		<path class="st31" d="M318.6,592.9C318.6,592.9,318.6,592.9,318.6,592.9c-3.3,5.1-14.9,8.8-28.8,8.8c-13.9,0-25.5-3.7-28.8-8.8
			c0,0,0,0,0,0s0,0,0,0c3.3-5.1,14.9-8.8,28.8-8.8C303.6,584.1,315.3,587.8,318.6,592.9C318.6,592.9,318.6,592.9,318.6,592.9z"/>
		<g>
			<path class="st32" d="M275.6,598.7c-0.7-0.6-0.4-1.7,0.3-2.3c0.7-0.6,1.8-0.9,2.8-1.2c1-0.3,2-0.5,3-0.8c1.2-0.3,2.7-0.9,2.7-1.9
				c0-0.4-0.2-0.8-0.3-1.2c-0.2-1.4,1.8-2.4,3.6-2.6c1.8-0.2,3.7-0.1,5.2-0.9c-1.3-1.6-4.2-1.7-6.5-1.2c-2.3,0.5-4.5,1.5-6.8,1.6
				c-1.8,0-3.7-0.5-5.4,0.1c-1.5,0.6-2.3,2-3.6,2.9c-1,0.7-2.3,1.1-3.5,1.5c-1.2,0.4-2.5,0.9-3.2,1.8c-0.3,0.3-0.4,0.6-0.5,1
				c3.7,2.8,10.1,4.9,17.9,5.8c-0.9-0.6-1.8-1.3-2.9-1.6C277.5,599.3,276.3,599.4,275.6,598.7z"/>
			<path class="st32" d="M310.7,596.1c-1.8-0.2-3.7,0.7-5.2,0c-0.6-0.3-1-0.7-1.6-1c-1.5-0.7-3.5,0-4.9,0.9c-1.4,0.9-2.7,2-4.5,2.2
				c-0.8,0.1-1.7-0.1-2.5,0c-2.3,0.3-3.6,2.3-5.4,3.5c1,0,2.1,0.1,3.1,0.1c9.5,0,17.9-1.7,23.3-4.5
				C312.5,596.6,311.7,596.2,310.7,596.1z"/>
		</g>
		<g>
			<g>
				<path class="st33" d="M297.8,591.3c-1-0.3-2.6-0.6-3.1-0.4c-0.7,0.2-1.2,0.7-1.8,1.1c-0.9,0.7-1.8,1.4-2.6,2.1
					c0.5,0.6,1.2,1.2,1.9,1.6C294.3,594.5,296.1,593,297.8,591.3z"/>
			</g>
			<g>
				<path class="st34" d="M292.2,595.7c0.1,0,0.1,0.1,0.2,0.1c0.2,0.1,0.3,0.2,0.5,0.2c0.2,0,0.3-0.1,0.5-0.2
					c1.9-1.3,3.6-2.7,5.1-4.2c-0.1-0.1-0.4-0.2-0.6-0.2C296.1,593,294.3,594.5,292.2,595.7z"/>
			</g>
		</g>
		<g>
			<path class="st35" d="M295.1,588.8c-0.9-0.5-1.9-0.7-2.9-0.8c-0.3,0-0.6,0-0.8,0.1c-0.3,0.2-0.4,0.5-0.5,0.8
				c-0.3,0.9-0.4,1.8-0.5,2.7c1.4-0.8,3.3-1.5,4.7-2.4c0.1-0.1,0.3-0.2,0.2-0.3C295.3,588.9,295.2,588.9,295.1,588.8z"/>
		</g>
		<g>
			<g>
				<path class="st35" d="M306.6,590.4c0-0.1-0.1-0.2-0.2-0.3c-0.1,0-0.2-0.1-0.3-0.1c-2.6,0-4.8-0.7-7.4-0.7
					c-0.6,0.8-1,1.7-1.3,2.6c0,0.1-0.1,0.2,0,0.3c0.1,0.1,0.2,0.1,0.3,0.2c2.6,1,5.6,1,8.5,0.9c0.1,0,0.2,0,0.3-0.1
					c0.1-0.1,0.1-0.2,0.2-0.2C306.9,592.2,306.9,591.3,306.6,590.4z"/>
			</g>
			<g>
				<path class="st34" d="M299,592c1.3,0.7,3.2,0.7,4.6,0.4c0.1,0,0.1-0.2,0-0.2c-1.4-0.3-3.1-0.5-4.6-0.3
					C299,591.9,299,592,299,592L299,592z"/>
			</g>
			<g>
				<path class="st34" d="M299.8,591.2c1.9,0.2,3.7,0.6,5.6,0.6c0.1,0,0.1-0.1,0-0.1C303.6,591.1,301.8,591.2,299.8,591.2
					C299.8,591.2,299.8,591.2,299.8,591.2L299.8,591.2z"/>
			</g>
			<g>
				<path class="st34" d="M298.6,590.4c1.3,0.3,2.5,0.4,3.9,0.4c0.1,0,0.1-0.1,0-0.1C301.2,590.3,300,590.2,298.6,590.4
					C298.6,590.3,298.6,590.3,298.6,590.4L298.6,590.4z"/>
			</g>
		</g>
		<g>
			<g>
				<path class="st36" d="M289.4,587.3c-0.1-0.1-0.2-0.2-0.3-0.2c-0.5,0.1-1,0.3-1.4,0.6c-0.7,0.4-1.4,1-1.3,1.7
					c0.1,0.8,1.3,1.3,2.2,1.2c-0.2-0.1-0.3-0.3-0.4-0.4C287.3,589.1,288,587.9,289.4,587.3z"/>
			</g>
			<g>
				<path class="st37" d="M291.1,589c0,0,0.1-0.1,0.1-0.1c0-0.1-0.1-0.2-0.2-0.3c-0.5-0.3-1.1-0.9-1.6-1.3c-1.3,0.6-2,1.8-1.2,2.8
					c0.1,0.1,0.3,0.3,0.4,0.4c0,0,0.1,0,0.1,0C289.7,590.4,290.5,589.7,291.1,589z"/>
			</g>
		</g>
		<g>
			<g>
				<path class="st36" d="M297,594.7c0,0.1,0.1,0.2,0.1,0.3c0.5,0.1,1,0.1,1.6,0.1c0.9,0,1.8-0.3,2.2-0.9c0.4-0.7-0.2-1.6-1.2-1.9
					c0,0.2,0.1,0.4,0.1,0.5C299.9,594,298.5,594.7,297,594.7z"/>
			</g>
			<g>
				<path class="st37" d="M296.6,592.4c-0.1,0-0.1,0-0.2,0.1c-0.1,0.1-0.1,0.2,0,0.4c0.2,0.4,0.3,1.2,0.5,1.8
					c1.5,0.1,2.9-0.7,2.9-1.9c0-0.2-0.1-0.3-0.1-0.5c0,0-0.1,0-0.1,0C298.7,591.9,297.6,592.1,296.6,592.4z"/>
			</g>
		</g>
		<g>
			<path class="st36" d="M300.5,588.8c-0.5-0.5-1-0.9-1.6-1.3c-1.2,0.4-2.9,0.8-3.8,1.4c-0.2,0.2-0.4,0.3-0.5,0.6
				c0,0.2,0.1,0.5,0.2,0.7c0.2,0.3,0.4,0.6,0.7,0.8c0.3,0.2,0.8,0.4,1.2,0.3c0.3,0,0.5-0.2,0.7-0.3c1-0.6,1.9-1.1,2.9-1.7
				c0.1-0.1,0.3-0.2,0.3-0.3C300.7,588.9,300.6,588.9,300.5,588.8z"/>
		</g>
		<g>
			<path class="st36" d="M282.9,588.2c-0.5-0.5-1-0.9-1.6-1.3c-1.2,0.4-2.9,0.8-3.8,1.4c-0.2,0.2-0.4,0.3-0.5,0.6
				c0,0.2,0.1,0.5,0.2,0.7c0.2,0.3,0.4,0.6,0.7,0.8c0.3,0.2,0.8,0.4,1.2,0.3c0.3,0,0.5-0.2,0.7-0.3c1-0.6,1.9-1.1,2.9-1.7
				c0.1-0.1,0.3-0.2,0.3-0.3C283,588.4,282.9,588.3,282.9,588.2z"/>
		</g>
		<g>
			<path class="st36" d="M293.8,592.5c-0.2-0.3-2.4-1.5-2.9-1.5c-0.5,0-1.1,0.1-1.3,0.4c-0.2,0.2-0.2,0.5-0.2,0.8c0,0.4,0,0.8,0,1.2
				c0,0.1,0,0.3,0.2,0.4c0.1,0,0.1,0,0.2,0c1.3,0,2.6-0.2,3.8-0.6c0.1,0,0.3-0.1,0.3-0.2C294,592.8,293.9,592.7,293.8,592.5z"/>
		</g>
		<g>
			<g>
				<path class="st33" d="M281.5,589.9c-0.1-0.1-0.2-0.2-0.4-0.2c-0.1,0-0.2,0-0.3,0.1c-2.2,1-4.6,1.4-6.8,2.5c0,1,0.2,1.9,0.6,2.8
					c0,0.1,0.1,0.2,0.2,0.3c0.1,0.1,0.2,0.1,0.4,0c2.9-0.2,5.4-1.5,7.9-2.8c0.1-0.1,0.2-0.1,0.2-0.2c0-0.1,0-0.2,0-0.3
					C282.9,591.3,282.3,590.5,281.5,589.9z"/>
			</g>
			<g>
				<path class="st34" d="M276,594.4c1.6,0,3.2-0.7,4.2-1.6c0.1-0.1,0-0.2-0.2-0.2c-1.4,0.3-3,0.9-4.1,1.7
					C275.9,594.4,276,594.4,276,594.4L276,594.4z"/>
			</g>
			<g>
				<path class="st34" d="M276.2,593.4c1.8-0.6,3.5-1,5.2-1.8c0.1,0,0-0.1,0-0.1C279.4,591.7,277.9,592.5,276.2,593.4
					C276.2,593.3,276.2,593.4,276.2,593.4L276.2,593.4z"/>
			</g>
			<g>
				<path class="st34" d="M274.6,593.2c1.3-0.3,2.4-0.7,3.6-1.3c0.1,0,0-0.1-0.1-0.1C276.8,592,275.8,592.5,274.6,593.2
					C274.5,593.1,274.6,593.2,274.6,593.2L274.6,593.2z"/>
			</g>
		</g>
		<g>
			<g>
				<path class="st35" d="M287.4,593c-0.1-0.8-0.6-2.1-1-2.4c-0.6-0.4-1.3-0.6-2-0.7c-1.2-0.3-2.3-0.6-3.5-0.9
					c-0.4,0.7-0.7,1.4-0.8,2.1C282.3,592.1,284.8,592.7,287.4,593z"/>
			</g>
			<g>
				<path class="st34" d="M280,591.1c0,0.1,0,0.1,0,0.2c0,0.2,0,0.3,0.1,0.5c0.1,0.1,0.3,0.2,0.4,0.2c2.3,0.7,4.6,1.3,7,1.6
					c0-0.1,0-0.3,0-0.6C284.8,592.7,282.3,592.1,280,591.1z"/>
			</g>
		</g>
		<g>
			<path class="st33" d="M284.3,593.1c-0.5,0.2-0.9,0.4-1.2,0.8c-0.2,0.3-0.2,0.6-0.3,0.9c-0.1,0.5,0,1.1,0.5,1.3
				c0.4,0.2,0.9,0.1,1.3,0c0.7-0.1,1.4-0.3,2.1-0.6c0.7-0.2,1.5-0.6,1.8-1.1c0.3-0.4,0.3-0.9,0.3-1.4c0-0.1,0-0.3,0-0.5
				c0-0.7-0.9-1.2-1.7-0.9C286.2,592.2,285.2,592.7,284.3,593.1z"/>
		</g>
	</g>
</g>
</svg>
