<?xml version="1.0" encoding="utf-8"?>
<!-- Generator: Adobe Illustrator 26.0.1, SVG Export Plug-In . SVG Version: 6.00 Build 0)  -->
<svg version="1.1" id="Layer_1" xmlns="http://www.w3.org/2000/svg" xmlns:xlink="http://www.w3.org/1999/xlink" x="0px" y="0px"
	 viewBox="0 0 756 810" style="enable-background:new 0 0 756 810;" xml:space="preserve">
<style type="text/css">
	.st0{clip-path:url(#SVGID_00000005243097259065743470000016760534407165911436_);fill:#F2D7B9;}
	.st1{clip-path:url(#SVGID_00000005243097259065743470000016760534407165911436_);}
	.st2{fill:#D5B792;}
	.st3{clip-path:url(#SVGID_00000005243097259065743470000016760534407165911436_);fill:#D8B182;}
	.st4{fill:#E5C49D;}
	.st5{fill:none;stroke:#FFFFFF;stroke-width:1.9819;stroke-miterlimit:10;}
	.st6{fill:#5D5D5D;}
	.st7{fill:#23426F;}
	.st8{fill:#E6E6E6;}
	.st9{fill:#D3915F;}
	.st10{fill:#301F1D;}
	.st11{fill:#E09A61;}
	.st12{fill:#DC2428;}
	.st13{fill:#C47947;}
	.st14{fill:#231F20;}
	.st15{fill:#FFFFFF;}
	.st16{fill:#603813;}
	.st17{fill:#D7B26B;}
	.st18{fill:#FAD899;}
</style>
<g>
	<g>
		<defs>
			<path id="SVGID_1_" d="M702.3,245.7c-14-25-30.5-47-47.4-65.7c-0.2,0.3-0.4,0.6-0.5,0.9c0.2-0.3,0.4-0.6,0.5-0.9
				c-3.1-3.4-62.4-53.4-62.4-53.4l0,0c-1.7-1.3-3.3-2.6-4.9-4C540.3,83,504.3,11,372.8,22c-61.3,5.1-101.4,30-130,63.5
				c-8.6,10-16.3,21-23.2,32.6c-21,35.2-35.1,75.7-49.3,111.1c-18.9,46.7-86.4,54-110.7,108.2c-22.2,25.5-33.7,65.8-39.6,95.1
				c-4.2,21-5.4,36.3-5.4,36.3C8.1,615.7,140.2,728.4,276.5,769.2c30.5,9.1,61.2,14.7,90.6,16.2c13.9,0.7,27.5,0.5,40.6-0.6
				c2.7-0.2,5.4-0.5,8.1-0.8c1.9-0.2,3.7-0.4,5.6-0.7c1.6-0.2,3.2-0.4,4.7-0.6c0.9-0.1,1.7-0.2,2.6-0.4c0.8-0.1,1.7-0.2,2.5-0.4
				c44.2-6.8,93.6-22.2,139-45.9c0.2-0.1,0.4-0.2,0.7-0.4c73.2-38.4,135.6-98.3,147.5-178.5c1.7-11.2,16-45.3,20.7-94.4
				C748.2,366.5,721.5,288.9,702.3,245.7z M600.5,188.2c0,0,0.1,0.1,0.1,0.1C600.6,188.3,600.5,188.3,600.5,188.2z"/>
		</defs>
		<clipPath id="SVGID_00000057864037983331457040000011579281027300196508_">
			<use xlink:href="#SVGID_1_"  style="overflow:visible;"/>
		</clipPath>
		<path style="clip-path:url(#SVGID_00000057864037983331457040000011579281027300196508_);fill:#F2D7B9;" d="M702.3,245.7
			c-14-25-30.5-47-47.4-65.7c-3.1-3.4-62.4-53.4-62.4-53.4c-1.7-1.3-3.3-2.6-4.9-4C540.3,83,504.3,11,372.8,22
			c-61.3,5.1-101.4,30-130,63.5c-8.6,10-16.3,21-23.2,32.6c-21,35.2-35.1,75.7-49.3,111.1c-18.9,46.7-86.4,54-110.7,108.2
			c-22.2,25.5-33.7,65.8-39.6,95.1c-4.2,21-5.4,36.3-5.4,36.3C8.1,615.7,140.2,728.4,276.5,769.2c30.5,9.1,61.2,14.7,90.6,16.2
			c13.9,0.7,27.5,0.5,40.6-0.6c2.7-0.2,5.4-0.5,8.1-0.8c1.9-0.2,3.7-0.4,5.6-0.7c1.6-0.2,3.2-0.4,4.7-0.6c0.9-0.1,1.7-0.2,2.6-0.4
			c0.8-0.1,1.7-0.2,2.5-0.4c44.2-6.8,93.6-22.2,139-45.9c0.2-0.1,0.4-0.2,0.7-0.4c73.2-38.4,135.6-98.3,147.5-178.5
			c10.6-52.5,25.1-83,25.1-161.3C746.1,343.9,702.3,245.7,702.3,245.7z"/>
		<g style="clip-path:url(#SVGID_00000057864037983331457040000011579281027300196508_);">
			<g>
				<path class="st2" d="M498.9,325.1H302.8V193.7h196.1V325.1z M310.8,317.1h180.1V201.7H310.8V317.1z"/>
			</g>
			<path class="st2" d="M464.6,306l-4-16.3h0c-0.1-0.5-1.2-0.9-2.9-1.3v-4.8c0,0,0,0,0,0V280h0v-0.9h0v-1.4c0-0.7-0.5-1.2-1.2-1.2
				c-0.7,0-1.2,0.5-1.2,1.2v0.4h-1.6v-0.4c0-0.2-0.1-0.4-0.1-0.5l0,0l-0.7-8.5l0-0.6l0.5,0l0,0l0.6,0l0.2,0l0,0h0
				c0.4,0,0.7-0.2,0.9-0.5c0.2-0.3,0.3-0.7,0.3-1.1c0-0.3-0.1-0.6-0.2-0.8c-1.9-3.5-3.6-7.2-5.6-10.6l-0.3-0.6
				c-0.1-0.1-0.1-0.2-0.2-0.3c0,0,0-0.1-0.1-0.1c0,0,0,0,0,0.1c-0.2-0.2-0.3-0.3-0.5-0.3v-3.3h6.8l-2.1-2.4l2.1-2.4h-7.2h-0.5v4.8h0
				v3.4c-0.2,0.1-0.3,0.3-0.4,0.5l-3.1,6.1c-0.3,0-0.5-0.1-0.8-0.1h-1.1c-1.8,0-3.4,0.8-4.4,2.1V260v-3.6h0v-0.9h0v-1.4
				c0-0.7-0.5-1.2-1.2-1.2c-0.7,0-1.2,0.5-1.2,1.2v0.4h-1.6v-0.4c0-0.2-0.1-0.4-0.1-0.5l-0.7-8.6l0-0.6l1.3,0l0,0l0,0
				c0.2,0,0.5-0.1,0.7-0.2c0.1-0.1,0.2-0.2,0.2-0.3c0.1-0.2,0.2-0.4,0.3-0.7c0.1-0.4,0-0.8-0.2-1.2c-1.9-3.5-3.6-7.2-5.6-10.6
				l-0.3-0.6c-0.1-0.1-0.1-0.2-0.2-0.3c0,0,0-0.1-0.1-0.1c0,0,0,0,0,0.1c-0.2-0.2-0.3-0.3-0.5-0.3v-3.3h6.8l-2.1-2.4l2.1-2.4h-7.2
				h-0.5v4.8h0v3.4c-0.2,0.1-0.3,0.3-0.4,0.5l-5.6,10.9c-0.5,1,0.1,2.4,1.1,2.4l1.2,0l0,0.6l-0.8,9.7h-1.1v-0.4
				c0-0.7-0.5-1.2-1.2-1.2c-0.7,0-1.2,0.5-1.2,1.2v0.4v1v0.9h0v3.9v0.7c-1.4,0.6-2.5,1.7-3.1,3.1h-1.2v-4.1h0v-1.2h0v-2.1
				c0-1-0.8-1.8-1.8-1.8c-1,0-1.8,0.8-1.8,1.8v0.6h-2.2v-0.6c0-0.3-0.1-0.6-0.2-0.8l0,0l-1.1-12.3l-0.1-0.7l0-0.2l0.7,0c0,0,0,0,0,0
				l1.1,0c0.5,0,1-0.3,1.3-0.7c0.2-0.3,0.4-0.6,0.4-1c0-0.2,0.1-0.4,0-0.6c0-0.4-0.1-0.8-0.3-1.2c-2.8-5.2-5.3-10.6-8.3-15.7
				l-0.2-0.5c-0.1-0.1-0.2-0.3-0.3-0.4c0-0.1-0.1-0.1-0.1-0.2c0,0,0,0.1,0,0.1c-0.2-0.2-0.5-0.4-0.8-0.5v-4.8h9.8l-3.1-3.5l3.1-3.5
				h-10.4H400v7h0.1v5c-0.2,0.2-0.5,0.4-0.6,0.7l-8.1,15.8c-0.8,1.5,0.1,3.5,1.6,3.5l1.8,0v0l-0.1,0.8l-1.2,14l0,0h-1.6v-0.6
				c0-1-0.8-1.8-1.8-1.8c-1,0-1.8,0.8-1.8,1.8v0.6h0v2.7h0v4.1h-1.6c-0.7-1.6-2-2.9-3.8-3.4V260v-3.6h0v-0.9h0v-1.4
				c0-0.7-0.5-1.2-1.2-1.2s-1.2,0.5-1.2,1.2v0.4h-1.6v-0.4c0-0.2-0.1-0.4-0.1-0.5L378,245l0-0.6l1.3,0c1,0,1.6-1.3,1-2.4
				c-1.9-3.5-3.6-7.2-5.6-10.6l-0.3-0.6c-0.1-0.1-0.1-0.2-0.2-0.3c0,0,0-0.1-0.1-0.1c0,0,0,0,0,0.1c-0.2-0.2-0.3-0.3-0.5-0.3v-3.3
				h6.8l-2.1-2.4l2.1-2.4h-7.2h-0.5v4.8h0v3.4c-0.2,0.1-0.3,0.3-0.4,0.5l-5.6,10.9c-0.5,1,0.1,2.4,1.1,2.4l1.2,0l0,0.6l-0.8,9.7
				h-1.1v-0.4c0-0.7-0.5-1.2-1.2-1.2c-0.7,0-1.2,0.5-1.2,1.2v0.4v1v0.9h0v3.9v1.6c-1-0.9-2.3-1.4-3.7-1.4h-1.1c-0.5,0-1,0.1-1.5,0.2
				c-1-1.9-2-3.8-3.1-5.6l-0.3-0.6c-0.1-0.1-0.1-0.2-0.2-0.3c0,0,0-0.1-0.1-0.1c0,0,0,0,0,0.1c-0.2-0.2-0.3-0.3-0.5-0.3v-3.3h6.8
				l-2.1-2.4l2.1-2.4h-7.2H353v4.8h0v3.4c-0.2,0.1-0.3,0.3-0.4,0.5l-5.6,10.9c-0.5,1,0.1,2.4,1.1,2.4l1.2,0l0,0.2l0,0.4l-0.8,9.7
				l0,0h-1.1v-0.4c0-0.7-0.5-1.2-1.2-1.2c-0.7,0-1.2,0.5-1.2,1.2v1.4h0v0.9h0v8.6c-1.2,0.3-2,0.7-2.1,1.1h0l-4,16.3h31.4l0,0h0.1
				h24.3v-0.4v-14.9h0c0,0,0-0.1,0-0.1c0-4.2,3.4-7.6,7.6-7.6c0.7,0,1.5,0.1,2.1,0.3c3.2,0.9,5.5,3.8,5.5,7.3v15v0.4h23.3l0,0H464.6
				z M395.1,264.6C395.1,264.6,395.1,264.6,395.1,264.6c0-0.1,0-0.1,0.1-0.2c0-0.1,0.1-0.3,0.2-0.4c0.1-0.2,0.1-0.3,0.2-0.5
				c0.2-0.4,0.5-0.8,0.8-1.1c0.1-0.1,0.2-0.2,0.3-0.3l0.1-0.1c0.1-0.1,0.2-0.2,0.3-0.3c0.1-0.1,0.2-0.2,0.3-0.3
				c0.1-0.1,0.3-0.2,0.4-0.3c0,0,0.1,0,0.1-0.1c0.1-0.1,0.3-0.2,0.4-0.2h0c0.7-0.4,1.4-0.6,2.1-0.7c0,0,0.1,0,0.1,0
				c0.2,0,0.5,0,0.8,0c0.4,0,0.8,0,1.1,0.1c0.3,0.1,0.6,0.1,0.9,0.2c0,0,0,0,0.1,0c0.3,0.1,0.6,0.2,0.9,0.4h0c0,0,0,0,0,0
				c0.1,0.1,0.3,0.1,0.4,0.2c0.1,0,0.1,0.1,0.1,0.1c0.1,0.1,0.2,0.1,0.2,0.2c0.1,0,0.1,0.1,0.2,0.1c0.1,0.1,0.2,0.1,0.3,0.2
				c0,0,0.1,0,0.1,0.1c0.1,0.1,0.2,0.2,0.3,0.3c0,0,0,0,0,0c0.1,0.1,0.2,0.3,0.3,0.4c0.1,0.1,0.2,0.3,0.3,0.4
				c0.1,0.1,0.2,0.3,0.3,0.4c0.1,0.2,0.2,0.3,0.2,0.5c0,0,0,0,0,0h0c0.1,0.3,0.3,0.6,0.4,1c0,0,0,0,0,0c0.1,0.2,0.1,0.5,0.1,0.7
				c0,0,0,0.1,0,0.1c0,0,0,0.1,0,0.1c0,0.3,0.1,0.5,0.1,0.8c0,0,0,0,0,0v1.1v0.3v0.9v4.4h-2.2l0-1c0-0.8-0.8-1.4-1.7-1.4H400
				c-0.9,0-1.6,0.6-1.7,1.4l0,1h-3.6v-5.6c0,0,0,0,0,0v-0.1v-1h0c0,0,0,0,0-0.1c0-0.2,0-0.4,0-0.6c0-0.2,0-0.3,0.1-0.5
				c0-0.1,0-0.2,0-0.3c0-0.1,0.1-0.3,0.1-0.4C395,264.9,395.1,264.8,395.1,264.6z M400.6,245.6c0.2,0,0.4,0,0.6,0
				c0.5,0,1.1,0,1.6-0.1c1,0.5,1.7,1.6,1.7,2.8v3.5H398v-3.5c0-1.2,0.7-2.3,1.6-2.8C400,245.6,400.3,245.6,400.6,245.6z M450.5,272
				v2.4h-1.6h-0.4H446V272c0,0,0,0,0,0c0-0.5,0.1-0.9,0.4-1.3h0c0.2-0.3,0.5-0.5,0.8-0.7c0.1-0.1,0.3-0.1,0.5-0.2
				c0.2-0.1,0.4-0.1,0.6-0.1c0.1,0,0.1,0,0.1,0c0,0,0.1,0,0.1,0c0.1,0,0.1,0,0.2,0c0.1,0,0.1,0,0.2,0.1c0,0,0.1,0,0.1,0
				c0.1,0,0.3,0.1,0.4,0.2c0,0,0,0,0,0C450,270.4,450.5,271.1,450.5,272z M353.8,269.7c0.1,0,0.3,0,0.4,0c0.1,0,0.1,0,0.2,0.1
				c0.1,0,0.2,0.1,0.3,0.1c0.1,0,0.1,0,0.2,0.1c0.3,0.2,0.6,0.4,0.8,0.7c0.2,0.4,0.4,0.8,0.4,1.3v2.4h-1.3h-0.9h-2.2V272
				c0,0,0,0,0,0c0-0.8,0.5-1.6,1.1-2C353.1,269.8,353.4,269.7,353.8,269.7z M452.7,284.7v0.7v4.1h-3.8h-0.4h-4.7v-1.7v-2.3
				c0,0,0,0,0,0v-0.1v-0.7c0-0.9,0.3-1.7,0.7-2.4h0h0.1l0,0l0-0.1c0,0,0,0,0,0l0,0c0.4-0.6,1-1.1,1.6-1.4h0c0.6-0.3,1.3-0.5,2.1-0.5
				c0.1,0,0.2,0,0.2,0v0.2c0,0,0,0,0,0v0c0.1-0.1,0.3-0.1,0.4-0.1c0,0,0.1,0,0.1,0c0.5,0.1,0.9,0.2,1.3,0.5h0
				C451.7,281.5,452.7,283,452.7,284.7z M351.7,280.8c0.6-0.3,1.3-0.5,2.1-0.5c0.3,0,0.5,0,0.8,0.1c0,0,0.1,0,0.1,0
				c0.4,0.1,0.8,0.2,1.2,0.4h0c1.4,0.7,2.4,2.2,2.4,4v0.7v4.1h-3.6h-0.9h-4.5v-1.7v-2.3c0,0,0,0,0,0v-0.1v-0.7
				C349.4,283,350.3,281.5,351.7,280.8L351.7,280.8z"/>
			<path class="st2" d="M310.8,317.1c3.6-1.7,7.3-3.5,11.1-5.2c7.2-3.2,14.1-6.2,20.9-8.8c17.3,0.8,34.6,1.6,51.9,2.4
				c5.1,0,10.2,0,15.3,0c18.2,0.1,36.5,0.2,54.7,0.4c9.2,4.3,18.5,8.7,27.7,13C431.8,318.3,371.3,317.7,310.8,317.1z"/>
		</g>
		<path style="clip-path:url(#SVGID_00000057864037983331457040000011579281027300196508_);fill:#D8B182;" d="M-22.7,597h825.8v18.5
			L559.3,815.3c0,0-360.2-5.9-381.5-14.7C156.6,791.8-8,609.6-8,609.6"/>
		<g style="clip-path:url(#SVGID_00000057864037983331457040000011579281027300196508_);">
			<path class="st4" d="M189.8,245c0,1.9-1.2,3.5-2.8,3.5s-2.8-1.6-2.8-3.5s1.2-3.5,2.8-3.5S189.8,243.1,189.8,245z"/>
			<path class="st4" d="M213,251.6c0,1.9-1.2,3.5-2.8,3.5s-2.8-1.6-2.8-3.5s1.2-3.5,2.8-3.5S213,249.7,213,251.6z"/>
			<path class="st4" d="M290.7,147.4c0,1.9-1.2,3.5-2.8,3.5c-1.5,0-2.8-1.6-2.8-3.5s1.2-3.5,2.8-3.5
				C289.4,143.9,290.7,145.4,290.7,147.4z"/>
			<path class="st4" d="M653,456.7c0,1.9-1.2,3.5-2.8,3.5c-1.5,0-2.8-1.6-2.8-3.5s1.2-3.5,2.8-3.5C651.7,453.2,653,454.8,653,456.7z
				"/>
			<path class="st4" d="M662.4,447.3c0,1.9-1.2,3.5-2.8,3.5s-2.8-1.6-2.8-3.5s1.2-3.5,2.8-3.5S662.4,445.3,662.4,447.3z"/>
			<ellipse class="st4" cx="203" cy="233.7" rx="4.5" ry="5.6"/>
			<path class="st4" d="M198.6,440.7c0,4-2.6,7.3-5.8,7.3c-3.2,0-5.8-3.3-5.8-7.3c0-4,2.6-7.3,5.8-7.3
				C196,433.4,198.6,436.7,198.6,440.7z"/>
			<path class="st4" d="M525,130.3c0,4-2.6,7.3-5.8,7.3c-3.2,0-5.8-3.3-5.8-7.3c0-4,2.6-7.3,5.8-7.3C522.5,123,525,126.2,525,130.3z
				"/>
			<ellipse class="st5" cx="235.9" cy="107" rx="18.4" ry="23.2"/>
			<ellipse class="st4" cx="23.6" cy="501.8" rx="37.7" ry="47.6"/>
		</g>
	</g>
	<g>
		<g>
			<path class="st6" d="M282.5,520.2c-0.6-1.1-14.5-26.6-10.1-42.4l6.4,0.8c-3.1,11.2,6,31.1,9.8,38L282.5,520.2z"/>
			<path class="st6" d="M345.2,504.2c-0.6-1.1-15.1-25.8-11.4-41.1l6.2,0.8c-2.6,10.8,7,30.2,10.9,36.8L345.2,504.2z"/>
			<path class="st6" d="M382.1,704.5c4.5-80.3,8.7-155.9-20.6-168.7l-3.3,7.6c24.9,10.9,20.2,87.4,15.7,161.3L382.1,704.5z"/>
			<path class="st6" d="M461.2,675.3c-2.6,0.3-5.2,0.5-7.9,0.8c0.5-10.7,0.7-21.8,0.5-33.2c-0.9-52.6-10.1-99-21.7-137.6l2.8-6.6
				c13.8,39.5,25.3,88.1,26.6,144C461.9,653.9,461.7,664.8,461.2,675.3z"/>
			<path class="st6" d="M317.1,672.7l8.3-0.9c0.6-18,0.3-36.9,0-56.5c-0.9-57-1.8-117,23.5-128.7l-2.8-5.7
				c-29.9,13.7-29.3,73.4-28.6,135.6C317.6,636,317.8,654.9,317.1,672.7z"/>
			<path class="st6" d="M256,690.3c2.2-73.2,4.4-149.1,31-163.4l-2.6-7.1c-31.5,16.9-34.1,92.1-36.8,171.9L256,690.3z"/>
			<path class="st7" d="M326.8,354.6c-18.4-0.1-54.8,9-65,25.4c-10.5,16.8-3.6,100.8,6.6,106.9c10.3,6.1,71.5-12.3,84.4-32.9
				C365.3,433.9,364.1,354.8,326.8,354.6z"/>
			<path class="st7" d="M341.7,502.6c-24.2,5.1-81.6,16.9-70.6,25.5c11.1,8.7,99.9,27,128.4,23.4c28.1-3.5,83.7-23.2,85.8-27.2
				C494.5,505.7,370.6,496.6,341.7,502.6z"/>
			<path class="st8" d="M455.9,508.5c-36.2-7.3-95.4-9.8-114.2-5.8c-5,1-11.3,2.4-18.1,3.9l0.3,0.2c-12.1,3.7-38.9,11.2-13.2,17.2
				c25.7,6,72,16.1,108.6,8.5C455,525.1,475.9,517.3,455.9,508.5z"/>
			<path class="st8" d="M352.8,453.9c11.6-18.5,11.5-88-18.2-98c-8.7,0.7-41.5,4.5-56,22.8c-8.1,10.2-10.2,79.9,5,90.8
				c15.3,11,44.5,1.6,58.2-4.8C346.6,461.2,350.4,457.6,352.8,453.9z"/>
		</g>
		<g>
			<g>
				<g>
					<g>
						<g>
							<path class="st9" d="M398.6,380c-1.7,3-3.4,6-5.1,9.1c3.6,15.3,7.1,30.6,10.7,45.9c20.2,0.4,40.4,0.9,60.6,1.3
								c0.3-3.8,0.6-7.6,0.9-11.4c-14.4-1.5-28.8-3.1-43.2-4.6c-2.5-12.7-5-25.4-7.5-38.1C409.6,381.4,404.1,380.7,398.6,380z"/>
						</g>
						<g>
							<g>
								<g>
									<g>
										<g>
											<g>
												<g>
													<g>
														<g>
															<g>
																<path class="st10" d="M461.1,659c0,0.4-0.1,0.8-0.1,1.2c-0.1,1.4-0.2,2.9-0.3,4.3c-0.2,9.3,2.7,18.6,7.9,26.2
																	c0.3,0.5,0.7,1,1,1.5c3.4,4.6,11.5,13.8,18.3,13.1c5.5-0.6,5.2-3.9,3.7-7.3c0,0,0,0,0,0c-0.2-0.4-0.4-0.8-0.6-1.3
																	c3.7,4.1,12.6,10,12.6,15.4c0,4.6-9.7,5.9-14.2,6.1c-6.4,0.3-14.6-0.9-18.5-6.7c-5.9-8.7-2.9-20.2-12.5-26.5
																	c0,9.2,0,18.4,0,27.7c0,0.1-0.1,0.2-0.1,0.2c0,0,0,0.1-0.1,0.1c0,0-0.1,0-0.1,0c-0.1,0-1.7-0.1-4-0.2
																	c-0.2-9.7-0.4-19.3-0.5-29c-0.9-1.8-1.8-4.3-1.9-7.3C451.4,666.5,460,659.8,461.1,659z"/>
															</g>
														</g>
														<g>
															<g>
																<path class="st11" d="M468.6,526.8c5.6-1.6,9.4-0.8,11.7,0c10.9,4.1,17.4,21.5,14,43c-3.6,28.6-8.6,56.6-12.3,85.2
																	c3.3,26,5.1,34.8,6.2,36.5c0.1,0.2,1.4,2.2,2.9,5.1c0.2,0.4,0.4,0.8,0.6,1.3c0,0,0,0,0,0c1.5,3.4,1.7,6.7-3.7,7.3
																	c-6.8,0.7-14.8-8.4-18.3-13.1c-0.4-0.5-0.7-1-1-1.5c-5.3-7.7-8.2-16.9-7.9-26.2c0-1.5,0.1-2.9,0.3-4.3
																	c0-0.4,0.1-0.8,0.1-1.2c0.5-4.9,1.3-9.7,1.3-14.6c-0.1-7-0.9-13.9-1.7-20.8c-1.1-10.2-3.7-20.9-4.8-31.1
																	c-0.1-7.6-0.1-15.3-0.2-22.9C459.6,555.1,464.9,541.2,468.6,526.8z"/>
															</g>
														</g>
													</g>
												</g>
												<g>
													<g>
														<path class="st11" d="M415.5,656.9c0.1-0.3,0.1-0.3,0.2-0.7c4-12.8,3.9-24.2,3.3-37.8c-0.7-14-0.9-27.3,1.4-38.3
															c3.6-17.7,10-20,11.5-35.3c1-10.2,0.3-18.6-0.4-24c13.8,0.2,27.6,0.4,41.3,0.6c-0.6,8.1-1.5,14.9-2.3,20.1
															c-0.9,6-2.5,15.3-5.3,25.5c-0.3,1.1-1.9,7-3.9,11.9c-1.1,2.6-2,5.3-3.3,7.9c-0.1,0.2-0.2,0.5-0.3,0.7
															c0,0.1,0,0.1,0,0.1c-7.6,15.1-15.2,39.7-15.2,39.7c-4.4,14.3-7.6,23.8-10.3,33.3c1.6,10.2,2.3,23,3.9,33.3
															c0,0.1,0.1,0.4,0.1,0.5c0.1,1.1,0.8,4,0.9,5.1c0.4,5.2-2.1,11.2-8.1,10.3c-7-1-12.7-15.5-15-23.2
															C410.5,674.5,414,662.1,415.5,656.9z"/>
													</g>
												</g>
												<g>
													<g>
														<path class="st10" d="M415.7,656.2c0,0.2-0.1,0.4-0.2,0.7c-0.2,0.6-0.4,1.3-0.7,2c-2.2,6.3-1.7,16.9,0.6,27
															c2.1,9.3,5.4,18.1,13.6,19.3c6,0.8,7.7-2.3,7.4-7.5c-0.1-1.1-0.2-2.2-0.3-3.3c0-0.1-0.5-3.3-0.5-3.4
															c0.2,0.8,1,2.5,1.9,4.8c2.3,6,8.4,17.6,4.3,22.6c-3.9,4.8-16.7,2.7-23-3.5c0,0-0.1-0.1-0.1-0.1
															c-0.2-0.1-0.3-0.3-0.5-0.4c-2.8-2.8-3.9-6.4-4.5-10.2c0,0,0,0,0-0.1c-1.4-6.2-1.8-13.3-3.5-19.3c0,10.5,0,21,0,31.5
															c0,0.2-0.2,0.2-0.3,0.2c0,0.1-0.1,0.1-0.2,0.1c-1,0-2,0-3,0c-0.2,0-0.2-0.1-0.2-0.3c0,0,0,0,0,0c0,0,0,0,0-0.1
															c0-12,0-24,0-36C400.9,672.6,408.6,661.4,415.7,656.2z"/>
													</g>
												</g>
											</g>
											<g>
												<g>
													<path class="st12" d="M454.2,644.4c0,0-24.7,9.8-39.4-2.7c-10.6,8.8-34.7,8.5-40.3-2.4c1.6-15.9,2.5-29.3,3-40.5
														c0,0.2,0,0.4,0.1,0.6c0.5-5.8,0.9-11.1,1.2-16.1c0.1-1.4,0.1-2.8,0.2-4.1c0-0.2,0-0.5,0-0.7c0.2-5,0.3-9.5,0.3-13.3
														c0-1.5,0-2.9,0-4.2c0-3.3-0.2-6-0.4-8.7l9.1-0.2l15.9-0.4l26.3-0.6l4.5-0.1l4.5,21.7l2.1,10.2L454.2,644.4z"/>
													<path class="st12" d="M454.2,644.4c0,0,28.1-1.3,38-20.5c15.8,3.5,39.2-12.6,40.8-27.4c-9.1-21.4-17-38-22.5-49.3
														c-1-2-2-4-3-6c-5.6-10.9-11.4-20.9-17.2-30C471,525,452.5,538.3,434.7,551L454.2,644.4z"/>
												</g>
												<g>
													<path d="M414,618.8c-9.2,7.9-29.6,8.7-37.9,1.9c-0.8,5.5-1,12.1-1.6,18.7c5.6,10.8,29.7,11.2,40.3,2.4
														c14.7,12.6,39.4,2.7,39.4,2.7l-4.7-22.5C441.8,624.4,425.1,628,414,618.8z"/>
													<path d="M485.3,599c2.8,0.7,13,2.8,23.5-4.2c9.5-6.3,13.6-16.1,14.8-19.6c1.7,3.7,3.4,7.5,5.1,11.4
														c1.5,3.4,2.9,6.7,4.3,10c-1.6,14.8-25,30.9-40.8,27.4c-9.9,19.2-38,20.5-38,20.5l-4.7-22.5
														C457.6,620.6,477.9,613.7,485.3,599z"/>
												</g>
											</g>
											<g>
												<g>
													<path class="st12" d="M446.5,587.3c0,0-0.7,0.4-1.9,1.1c-0.2,0.1-0.3,0.2-0.5,0.3c-0.2,0.1-0.4,0.2-0.6,0.3
														c-0.2,0.1-0.4,0.2-0.7,0.4c-0.1,0.1-0.2,0.1-0.4,0.2c-0.3,0.2-0.7,0.4-1.1,0.6c-0.3,0.1-0.6,0.3-1,0.5
														c-0.1,0-0.1,0.1-0.2,0.1c-0.2,0.1-0.5,0.2-0.8,0.3c-0.5,0.2-1,0.4-1.5,0.6c-0.2,0.1-0.3,0.1-0.5,0.2
														c-0.5,0.2-1.1,0.5-1.7,0.7c-0.3,0.1-0.7,0.2-1,0.4c-0.5,0.2-1,0.4-1.6,0.5c-1.5,0.5-3,0.9-4.6,1.2
														c-0.2,0-0.3,0.1-0.5,0.1c-0.7,0.1-1.4,0.3-2.1,0.4c-0.4,0.1-0.7,0.1-1.1,0.1c-0.2,0-0.4,0.1-0.7,0.1
														c-0.3,0-0.6,0.1-0.9,0.1c-0.2,0-0.4,0-0.7,0c0,0-0.1,0-0.2,0c-0.2,0-0.4,0-0.6,0c-0.2,0-0.4,0-0.6,0
														c-0.1,0-0.3,0-0.4,0c-0.3,0-0.6,0-0.9,0c-0.2,0-0.5,0-0.7,0c-0.1,0-0.3,0-0.4,0c-0.1,0-0.1,0-0.2,0
														c-0.3,0-0.5,0-0.8-0.1c-0.3,0-0.7-0.1-1-0.1c-2.3-0.4-4.5-1.1-6.7-2.2c-0.2,0.2-0.3,0.4-0.5,0.6l-0.1,0.1
														c-0.1,0.1-0.2,0.2-0.4,0.4c-0.1,0.1-0.2,0.2-0.3,0.3c0,0,0,0,0,0c-3.1,3-6.9,5-10.9,6.3c0,0,0,0,0,0
														c-8.2,2.5-17.1,1.9-22.7,0.3c-2.4-0.7-4.2-1.5-5-2.4c0,0-0.1-0.1-0.1-0.1c1.1-5.8,1.9-11.2,2.6-16.1
														c0.2-1.4,0.4-2.8,0.5-4.1c0-0.2,0.1-0.5,0.1-0.7c0.6-5,1.1-9.5,1.4-13.3c0.1-1.5,0.2-2.9,0.3-4.2
														c0.2-2.6,0.2-4.8,0.2-7c0-0.6,0-1.2,0-1.7c0-0.3,0-0.5,0-0.8c0-1.1-0.1-2.2-0.2-3.3c0-0.1,0-0.1,0-0.2
														c0-0.5-0.1-1-0.1-1.5c0,0,0,0,0-0.1c-0.1-1.3-0.3-2.5-0.5-3.6c0-0.2-0.1-0.4-0.1-0.6v0c-0.3-1.6-0.6-3.1-0.9-4.6
														c0-0.2-0.1-0.3-0.1-0.5c-0.4-1.7-0.8-3.2-1.3-4.7c0-0.1,0-0.1-0.1-0.2c-0.6-2.1-1.3-3.9-1.9-5.4c9.3-3,18.6-5.9,28.1-9
														c3.7-1.2,7.4-2.4,11.2-3.6c0.5-0.2,1.1-0.3,1.6-0.5c1.9-0.6,3.7-1.2,5.6-1.8l1.4,3.5l1.9,4.8l0.7,1.9l1,2.6l2.2,5.5
														l0.3,0.8l0.1,0.3l0.9,2.3l1.1,2.8l7.8,19.9l4.5,11.4l0.7,1.8v0l3.7,9.4L446.5,587.3z"/>
													<path class="st12" d="M505.9,544.2c-3.9,7.5-13,14.5-21.9,17.2c-2.1,0.6-4.3,1-6.3,1.1c-0.3,0-0.7,0-1,0
														c-1.7,5.4-5.1,9.8-9,13.2c-9.1,8.2-21.1,11.5-21.1,11.5l-3.6-9.1l-3.7-9.4v0l-0.7-1.8l-4.5-11.4l-7.8-19.9l-1.1-2.8
														l-0.9-2.3l-0.1-0.3l-0.3-0.8l-2.2-5.5l-1-2.6l-0.7-1.9l-1.9-4.8l-1.4-3.5c0.8-0.9,14.1-15.9,14.9-16.8
														c0.7-0.8,13.6-15.4,14.3-16.2c5.9,1.2,10.8,2.9,14.9,4.7c1.5,0.7,2.8,1.3,4.1,2c0,0,0,0,0,0c2.5,1.3,4.6,2.6,6.3,3.8
														c1.6,1.1,3.2,2.3,4.6,3.5c0.7,0.6,1.4,1.2,2.1,1.8c8.8,7.9,15,17.4,20.8,26.5c2.2,3.4,3.9,6.4,5.1,8.4c0,0,0,0,0,0
														c0.2,0.3,0.4,0.7,0.6,1c1.2,2.1,2.4,4.3,3.5,6.3C508,538.8,507.3,541.5,505.9,544.2z"/>
												</g>
												<g>
													<path d="M476.6,562.5c-2.7,5.7-6,10-9,13.2c-19.9,21.2-51.7,17.9-57.4,17.2c-3.1,3.5-7.3,5.8-12.2,7.6
														c-10.5,3.7-23.1,3.7-27.8-2.2c1.1-5.8,1.9-11.2,2.6-16.1c9.9,2.3,26.9-1.6,33.6-9.5c24.5,7.2,48.7-8.1,60.4-27.7
														c12-0.1,28.4-12.5,31.6-24.8c3.2,5.1,6.4,10.5,9.4,15.8C508.9,548.3,490.4,562.6,476.6,562.5z"/>
												</g>
											</g>
											<path d="M362.3,301.8c-2,20.5-17.6,36.2-39.3,34.1c-21.7-2.1-37.7-20.4-35.7-40.9c2-20.5,21.2-35.3,43-33.2
												C352,263.9,364.3,281.4,362.3,301.8z"/>
											<g>
												<path d="M384.7,264.7c-2,20.9-20.9,37.1-39.2,35.3c-18.3-1.8-33-21.1-31-42c3.3-33.6,25.5-37.2,41-35.7
													C368.7,223.6,388.1,229.8,384.7,264.7z"/>
											</g>
											<path class="st11" d="M392.2,338c-8.5,7.3-17.6,16.8-26.1,24.1c-27.9-2.1-45-13.9-54.5-22.4c-0.7-0.6-2.7-1.8-3.4-2.5
												c2.1-0.5,20-6,25.1-17.5c0.8-1.9,2.2-5.7,2.8-10.5c0-0.4,0.1-0.7,0.1-1.1c0-0.1,0-0.1,0-0.2c0.4-3.4,0.2-6.4,0-8.6
												c0-0.3-0.1-0.6-0.1-0.8c5.2,1.6,9.1,3.4,11.4,4.3c0.5,0.2,0.9,0.3,1.2,0.4c1,0.3,2,0.6,2.3,0.7c0,0,0.1,0,0.1,0
												c0,0,0,0,0.1,0c1,0.4,2,0.7,3.3,1c0,0,0,0,0,0c1.9,0.4,3.6,0.4,5.2,0.4c1.8,0.4,3.6,0.8,4.7,1c0,0.3-0.1,0.6-0.1,0.9
												c-0.3,2.6-0.2,4.7,0.1,6.5c0,0,0,0,0,0c0.1,0.7,0.2,1.4,0.4,2C367.4,326.5,378.8,335,392.2,338z"/>
											<path class="st13" d="M364.4,313.8c-2.6,2.5-5.2,3.4-6.5,3.7c-6.4,1.6-12-2.1-15.6-4.4c-2.7-1.7-4.7-3.6-6.1-5.1
												c0.4-3.4,0.2-6.4,0-8.6c0-0.3-0.1-0.6-0.1-0.8c5.2,1.6,9.1,3.4,11.4,4.3c0.5,0.2,0.9,0.3,1.2,0.4c1,0.3,2,0.6,2.3,0.7
												c0,0,0.1,0,0.1,0c0,0,0,0,0.1,0c1,0.4,2,0.7,3.3,1c0,0,0,0,0,0c1.9,0.4,3.6,0.4,5.2,0.4c1.8,0.4,3.6,0.8,4.7,1
												c0,0.3-0.1,0.6-0.1,0.9C364,309.8,364.1,312,364.4,313.8z"/>
											<path class="st11" d="M358.3,237.9c-0.3,0-0.6-0.1-0.8-0.1c-8.7-1-16.5,0.8-19.3,1.9c-9.7,3.8-14.1,20.8-13.8,33.2
												c0.4,16.7,13.1,39.6,29.3,41.8c8.5,1.1,23.3-14.1,26.3-35.2C383.2,258.4,382,240.7,358.3,237.9z"/>
											<path d="M361.9,238.4c-2.2-0.3-7.8-1-13,0.8c-1,0.4-4,1.7-6.6,4.5c-1.4,1.5-2.7,3.4-4.6,6.2c-1.7,2.5-1.8,2.8-2.7,3.7
												c-2,2-3.8,2.2-5.1,5.1c-2.8,5.9-0.8,16.3-1.1,21.2c0,0.2-0.1,1.3-0.5,1.4c-0.5,0.1-0.9-1.3-1.4-1.3c-0.6,0-1,2.5-1.3,8.8
												c-1.7-4.4-4.1-11.8-4.3-21.2c-0.2-9.4-0.6-23,8.9-30c5.2-3.8,10.9-3.7,19.7-3.5c7,0.2,20.1,0.5,26.2,9.5
												c2,2.9,2.7,5.9,3,8.1c-0.8-1.7-2.1-4.1-4.4-6.4C369.9,240.1,364.2,238.8,361.9,238.4z"/>
											<g>
												<path class="st14" d="M375.8,274.7c0.1,2.7-4.2,3.1-5,3.5c3,0,5.4-0.2,6.2-1.6L375.8,274.7z"/>
												<path class="st15" d="M365.2,276.5c1.3-2.7,5-4.5,7-4.4c1.4,0.1,3.9,2.6,4.4,4.2c-2,1.6-5.1,2.2-5.9,2
													c-1.4-0.3-3-0.5-5.2-1.5L365.2,276.5z"/>
												<path class="st16" d="M374.3,276c-0.6,1.7-2.4,2.7-4.2,2.2c-1.8-0.5-2.8-2.5-2.2-4.7c0.2-0.9,2.7-1.9,4.4-1.3
													C374.1,272.8,374.9,274.3,374.3,276z"/>
												<path class="st14" d="M373.1,276.4c-0.4,1.1-1.6,1.7-2.5,1.3c-0.9-0.3-1.5-1.6-1.2-2.7c0.4-1.1,1.7-1.7,2.5-1.3
													C372.8,274,373.4,275.3,373.1,276.4z"/>
												<path class="st15" d="M371.6,274.5c-0.1,0.3-0.3,0.4-0.5,0.3c-0.2-0.1-0.3-0.3-0.2-0.6c0.1-0.3,0.3-0.4,0.5-0.3
													C371.6,274,371.6,274.2,371.6,274.5z"/>
												<path class="st14" d="M364.9,276.3c1.4-3.4,4-5.3,6.5-5.2c1.6,0,3.8,0.9,4.7,2.7c0.2,0.5,0.4,1.5,1.2,2.9
													c0.3,0.5,0.6,0.9,0.7,1.1c-0.2,0-0.6,0-0.9-0.2c-0.4-0.2-0.7-0.4-0.8-0.5c-0.7-0.7-0.8-1.3-1.7-2
													c-1.4-1.2-3.4-2-5.2-1.5c-1,0.3-3.3,1.3-4.2,3L364.9,276.3z"/>
												<path class="st16" d="M367.1,265.6c0.4,0,1-0.1,1.7-0.1c4.6-0.3,5.6-0.1,6.4,0.2c0.3,0.1,1.2,0.5,2.1,1.4
													c0.8,0.8,2,3,2.4,4.2c-1.5-1.2-2.3-2.7-4-3.6c-2.3-1.2-4.2-0.5-6.5-0.1c-0.7,0.1-2.1,0.4-2.8,0.5L367.1,265.6z"/>
											</g>
											<g>
												<path class="st14" d="M340.3,271.8c-0.7,2.6,4.3,3.9,5.2,4.3c-3.5-0.5-6.4-1.5-7.1-3.1L340.3,271.8z"/>
												<path class="st15" d="M352.3,275.5c-0.2-0.7-0.7-2.1-1.9-3.4c-0.3-0.3-2.3-2.2-5.3-2.2c-3.7,0-5.9,3-6.1,3.3
													c0.9,0.8,3.1,2.5,6.5,3.1C348.6,276.8,351.2,276,352.3,275.5z"/>
												<path class="st16" d="M342.4,273.4c0.3,1.8,2.3,3.1,4.4,2.9c2.2-0.2,3.8-2,3.6-4.2c-0.1-0.9-2.7-2.3-4.9-2.1
													C343.4,270.3,342.1,271.6,342.4,273.4z"/>
												<path class="st14" d="M344.5,273.7c0.2,1.2,1.3,2,2.4,1.8c1.1-0.2,1.9-1.2,1.7-2.4c-0.2-1.2-1.3-2-2.4-1.8
													C345.1,271.5,344.3,272.5,344.5,273.7z"/>
												<path class="st15" d="M345.8,272.3c0,0.3,0.3,0.5,0.5,0.4c0.3,0,0.4-0.3,0.4-0.5c0-0.3-0.3-0.5-0.5-0.4
													C345.9,271.8,345.8,272,345.8,272.3z"/>
												<path class="st16" d="M353.6,264.3c-0.5-0.1-2-0.5-2.9-0.7c-5.7-1.4-7-1.5-8-1.3c-0.4,0.1-1.6,0.2-3,0.9
													c-1.2,0.6-3.3,2.5-4.2,3.5c2.2-0.8,3.6-2,6-2.5c3.2-0.6,5.3,0.5,8.2,1.5c0.8,0.3,3.3,1,4.1,1.3L353.6,264.3z"/>
											</g>
											<path class="st13" d="M362.4,293.2c-0.5,0.5-1.3,1-2.3,1.3c-3.3,0.9-6.2-1.9-6.4-2.1c1.2,0.2,2.5,0.3,3.9,0.5
												C359.3,293,360.9,293.1,362.4,293.2z"/>
											<path class="st11" d="M328.4,276.2c0.5,4.3-0.6,10.2-2.6,10.5c-2,0.3-4.3-5.2-4.8-9.5c-0.5-4.3,0.7-8,2.8-8.3
												C325.8,268.6,327.9,271.9,328.4,276.2z"/>
											<g>
												<path class="st15" d="M362,302.5c-0.1,0.7-2.3,1.2-5.2,1c-3.1-0.2-5.8-1.1-5.7-1.9c0.1-0.8,2.9-1.2,6-0.9
													C360,301,362.1,301.8,362,302.5z"/>
												<path class="st12" d="M359.9,301.8c-0.5,0-1,0.1-1.6,0.1c-0.8,0-1.2,0-1.7,0c-0.4,0-0.9-0.1-1.5-0.2
													c-0.9-0.3-1.5-0.7-1.8-0.8c-0.7-0.5-1.9-1-4-1.1c0.1,0.7,0.6,2.7,2.4,4.2c1.7,1.4,3.5,1.5,4.5,1.6
													c1.2,0.1,2.7,0.2,4.1-0.8c1-0.7,1.7-1.8,2.5-3.6C361.7,301.6,360.6,301.7,359.9,301.8z"/>
												<path class="st12" d="M357.9,298.6c-0.7-0.3-1.6-0.7-2.8-0.7c-1,0-1.7,0.1-3.3,0.7c-0.8,0.3-2.1,0.9-3.8,1.3
													c1.7,0.7,3.1,0.8,4,0.8c1,0,2-0.1,3.8,0c0.5,0,0.8,0.1,1.1,0.1c0.3,0,0.7,0,1.2,0.1c1.3,0.2,2,0.6,2.6,0.8
													c0.7,0.2,1.8,0.3,3.3-0.3c-1.3-0.8-2-1.5-2.6-2c-0.6-0.5-1.2-0.9-2-1C358.9,298.4,358.2,298.5,357.9,298.6z"/>
											</g>
											<path class="st15" d="M320.6,298.8c-0.8,8.7-0.2,15.8,1.5,16c1.7,0.2,3.7-6.7,4.5-15.4c0.8-8.7,0.2-15.8-1.5-16
												C323.4,283.2,321.4,290.1,320.6,298.8z"/>
											<path class="st11" d="M355.2,333.9"/>
											<path d="M365,362.9c-22.8-3.8-45.5-7.6-68.3-11.3c1.1,2.4,9.8,21.1,14.7,31.8c0.7,1.5,1.8,4,3.2,7.1
												c1.9,4.4,3.7,8.5,4.7,11.3c3.5,9.6,3,21.4,2.9,23c-0.2,4.1-1,9.9-3.3,16.5c23.6-0.2,47.2-0.3,70.8-0.5
												c-0.7-6.3-0.9-11.6-0.9-15.5c0.1-17,3.4-25.8,4.8-28.5c0,0,0,0,0,0c1.5-2.9,2.5-5.4,3.2-7.2c2.3-6,3.7-11.5,4.1-14.9
												c0.4-3.4,0.5-6.6,0.5-6.6c0-0.2,0-0.3,0-0.4c-0.1-11.4-6.2-22.5-6.2-22.5c-0.5-0.8-0.9-1.6-1.4-2.4
												C384.2,349.5,374.6,356.2,365,362.9z"/>
											<g>
												<path class="st12" d="M479.7,491.6c-0.2,0.2-0.5,0.5-0.7,0.7c-0.2,0.2-0.5,0.4-0.7,0.7c-3.1,2.9-6.7,5.7-10.5,7.9
													c-0.3,0.2-0.6,0.4-0.9,0.5c-0.5,0.3-1.1,0.6-1.6,0.9c-0.2,0.1-0.5,0.3-0.7,0.4c-0.8,0.4-1.7,0.8-2.5,1.2
													c-0.2,0.1-0.4,0.2-0.6,0.3c-0.4,0.2-0.7,0.3-1.1,0.4c-0.3,0.1-0.6,0.2-0.8,0.3c-0.1,0-0.1,0-0.2,0.1
													c-0.3,0.1-0.6,0.2-0.9,0.3c-0.3,0.1-0.6,0.2-0.9,0.3c-0.3,0.1-0.6,0.2-0.9,0.3c-0.3,0.1-0.6,0.2-0.9,0.2
													c-0.2,0.1-0.4,0.1-0.6,0.1c-0.7,0.2-1.4,0.3-2,0.4c-6.4,8-12.9,13.9-18.5,18.4c-2.2,1.7-4.2,3.2-6,4.5
													c-1.5,1-3,2.1-4.6,3.1c-4.8,3.2-10.1,6.3-16.1,8.7c-3.1,1.2-6.5,2.2-10,2.8c-3.1,0.5-6.3,0.8-9.6,0.6
													c-3.1-0.1-5.6-0.5-7.3-0.9c-0.9,0.9-1.9,1.8-3,2.7c-2.4,1.9-4.7,3.2-6.7,4.2c0-1.5-0.2-3.5-0.7-5.6
													c-0.5-2.1-1.4-4.3-2.9-6c-0.6-0.7-1.2-1.3-2-1.8c-1.2-0.8-2.7-1.2-2.9-1.3c-2.5-0.7-25.6-0.6-32.9-3.1
													c-15.3-5.1-19.1-39.8-16.3-62.6c1.5-12.7,5.2-22.7,8-29c5.9-0.1,11.8-0.2,17.7-0.3c16.9-0.2,33.6-0.3,50.1-0.1
													c0.6,4.3,2.8,16.5,13,26.2c18.1,17.1,43.8,9.8,45.1,9.4c6.3,1.3,11.7,3.1,16.1,5.1c1.6,0.7,3.1,1.4,4.4,2.1c0,0,0,0,0,0
													c2.7,1.4,4.9,2.8,6.7,4.1C476.4,489,478.1,490.3,479.7,491.6z"/>
											</g>
											<path class="st12" d="M423,381.5c-1.8,1.3-5,3.2-9.3,4.1c-6.9,1.5-12.5-0.2-14.8-1.1c-5.3,2-12.8,4.1-21.9,4.6
												c-4.1,0.2-7.7,0-11-0.3c-6.5,1.6-11.9,2.2-15.8,2.5c-8.6,0.6-17.4,1.1-26-3.4c-4.1-2.2-6.8-4.8-8.5-6.6
												c-2.5,1.8-7.1,4.5-13.5,5.4c-11.7,1.5-20.4-4.6-22.5-6.1c-0.2-2.6-0.2-6.3,0.6-10.8c0.7-4.1,3.7-17,15.4-26
												c2.5-1.9,6.7-4.6,12.6-6.5c9.2,3.7,19.4,7.4,30.5,10.7c8.7,2.6,17.1,4.7,24.9,6.4c4.8-1.7,10.6-4.1,16.8-7.9
												c4.7-2.8,8.6-5.8,11.8-8.5c5.5,1.2,9.4,3.2,11.8,4.7c14.5,9.1,17.5,26.2,18.2,30.2C422.9,377.1,422.9,380.4,423,381.5z"
												/>
											<g>
												<path class="st11" d="M393.5,437.9c-0.6,6.2-0.5,4.4-1.1,10.6c-26,1.3-56-0.1-88.4-7.6c-6-1.4-11.8-2.9-17.4-4.5
													c-1.4-18.8-2.9-37.7-4.3-56.5c2.3,1.4,7.3,4,14.2,4.3c5.8,0.2,10.4-1.4,12.8-2.5c0.6,11.7,1.2,23.3,1.8,35
													c14,4.1,28.6,8,43.5,11.9C367.9,432,380.8,435.1,393.5,437.9z"/>
											</g>
											<g>
												<path d="M423,381.5c-1.7,1.3-6,4.3-12.2,4.9c-5.6,0.6-9.9-1-11.9-1.9c-1.7,1.4-3.8,2.9-6.3,4
													c-11.3,5.3-22.7,1.7-26.5,0.3c-2.9,1.7-13.2,7.4-27.1,5.3c-12.8-2-20.7-9.5-23.1-12c-2.3,1.6-7.4,4.8-14.6,5.3
													c-1.4,0.1-6.8,0.4-13.2-2.1c-3.8-1.5-6.5-3.4-8.3-4.9c-0.1-1-0.3-5.2,0.6-10.8c2.1,1.7,8.2,6.2,17.3,6.9
													c9.9,0.7,17.1-3.7,19.3-5.1c1.9,2.1,5.1,5.2,9.8,7.4c4.4,2,7.9,2.3,13.9,2.7c6.1,0.5,10.9,0.8,16.9-1
													c3.8-1.1,7-3.3,8.8-4.5c1.9,1.1,4.5,3.2,8.3,3.8c3.2,0.6,5.6,0.4,9.9-0.1c4.5-0.4,6.9-0.1,9.7-1.3
													c3.1-1.4,5.1-3.8,6.3-5.1c1.2,1.1,4.2,3.3,8.6,3.9c7.2,0.9,12.3-3.7,13.1-4.4C422.9,377.1,422.9,380.4,423,381.5z"/>
											</g>
											<path class="st14" d="M352.7,275.4l-0.5,0.2c-0.2-0.5-1.3-3.2-4.1-4.2c-2.4-0.9-4.8-0.1-5.9,0.5
												c-0.2,0.1-0.4,0.2-0.6,0.3c-0.1,0.1-0.2,0.1-0.3,0.2c-1,0.6-2.2,0.8-3.1,0.6c-0.4-0.1-0.7-0.2-1-0.4
												c-0.3-0.2-0.7-0.5-1.1-1c0.4,0.1,0.8,0.2,1.2,0.2c1.8,0.1,3.1-0.7,3.8-1.1l0,0c1.7-1.4,4.9-2.6,7.5-1.6
												C352,270.5,352.7,275.1,352.7,275.4z"/>
											<path class="st14" d="M342.2,271.9c-0.3,0.2-0.5,0.4-0.8,0.5c0.1-0.1,0.2-0.1,0.3-0.2C341.8,272.1,342,272,342.2,271.9z"
												/>
											<path d="M481.9,493.5c-4.9,4.1-9.8,6.5-13.5,7.8c-1.2,0.4-2.3,0.8-3.1,1c-0.2,0.1-0.4,0.1-0.6,0.2c0,0.1,0,0.1-0.1,0.2
												c-0.7,2.1-1.7,4.2-3,6.1c-7.9,11.7-24.8,19.4-24.8,19.4v0l-2-3.3l-5.8-9.7c6.7-3.6,20.8-12.5,24.4-23.9
												c2.2-0.6,6.6-1.9,11.3-5c1.1-0.8,2.3-1.6,3.4-2.6c0,0,0,0,0,0c2.7,1.4,4.9,2.8,6.7,4.1c1.7,1.2,3.4,2.4,5,3.7
												C480.4,492.2,481.2,492.8,481.9,493.5z"/>
											<path d="M436.6,528.2c0,0-4.8,3.7-11.5,7.2c-5.1,2.6-11.2,5.1-17.2,5.8c-2.4,0.3-4.8,0.3-7.1-0.2c-0.9,1-1.8,2-2.9,2.9
												c-6.9,5.9-18,10.1-26.4,10.4c0-1.2-0.1-2.3-0.2-3.5c0-0.1,0-0.2,0-0.2c0-0.5-0.1-1.1-0.2-1.6c0,0,0,0,0-0.1
												c-0.2-1.4-0.3-2.7-0.6-3.9c-0.5-2.1-1.4-4.3-2.9-6c0.5,0,1.1,0,1.7,0c1.7-0.1,3.5-0.3,5.4-0.7
												c10.8-2.2,17.3-9.2,19.5-11.7c4.9,0,12.1-0.6,20.3-3.7c1.7-0.6,3.3-1.3,4.8-2.1c3.8-1.8,6.9-3.8,9.3-5.6v0l5.8,9.7
												L436.6,528.2z"/>
										</g>
									</g>
									<g>
										<g>
											<path class="st13" d="M414.7,441.3c0,0,2.1,1.5,6.3,0.4c2.7-0.7,9-3.7,14.6-4.7c2-0.3,0.3-3.6-3.7-3
												c-1.9,0.3-5.3,0.4-6.2,0.5c-2.4,0.1-4.8-3.6-4.8-3.6L414.7,441.3z"/>
										</g>
										<g>
											<path class="st11" d="M411.6,441.2c3.1,0.8,5.8,2,9.9-1.3c2.9-2.3,5.5-4.8,7.7-6.9c2.7,0.4,6.4,1,7,1.7
												c0.9,1.1,3.2,4.4,4.5,6.2c1.3,1.8,3.2,0.9,2.6-0.5c-0.5-1.4-2.6-6.3-3.7-7.3c-1.1-1-3.1-2.3-3.1-2.3s4.8,1.2,6.2,1.9
												c1.5,0.7,5.9,5,6.9,5.6c1,0.6,2.9-0.6,1.9-2.5c1.7,0.9,3-1.5,1.9-2.8c-1.1-1.2-4.8-5.6-6.5-6.7c-1-0.6-3.9-1.1-5.2-1.7
												c-1-0.4-0.7-0.6-0.2-0.6c2.9,0.1,5,0.6,8.8,0.5c3.1-0.1,4.2-2.4,1.3-2.8c-1.4-0.2-7.1-1.1-11.3-1.6
												c-2.4-0.2-6.1,2-9.2,3.4c-5.4,2.5-13.3,6.1-14.5,6.1c-7.4,0.5-13.7,0-13.7,0l-1.3,10.7
												C401.5,440.4,409.3,440.6,411.6,441.2z"/>
										</g>
										<g>
											<g>
												<path class="st13" d="M438.2,427c0,0,1.7,0.4,3.5,0.9l0,0c1.8,0.5,3.8,1.1,4.4,1.5l0,0c1.2,0.9,5.6,6,5.6,6l0,0l0,0
													c0.1,0.1,0.1,0.3,0,0.4l0,0c-0.1,0.1-0.3,0.1-0.4,0l0,0c0,0-1.1-1.3-2.4-2.7l0,0c-1.2-1.4-2.7-2.9-3.2-3.3l0,0
													c-0.5-0.3-2.4-1-4.3-1.5l0,0c-1.8-0.5-3.5-0.9-3.5-0.9l0,0c-0.1,0-0.2-0.2-0.2-0.3l0,0c0-0.1,0.1-0.2,0.2-0.2l0,0
													C438.1,427,438.1,427,438.2,427L438.2,427z"/>
											</g>
										</g>
									</g>
								</g>
							</g>
						</g>
					</g>
				</g>
			</g>
		</g>
		<path class="st17" d="M476.5,403.3c18.7-24.2,37.3-48.5,56-72.7c-4.7,14.4-9.3,28.9-14,43.3C504.5,383.7,490.5,393.5,476.5,403.3z
			"/>
		<path class="st18" d="M540.3,335.2c-5.6,12.4-11.1,24.8-16.7,37.2c-15.7,10.3-31.4,20.6-47.1,30.9
			C497.8,380.6,519,357.9,540.3,335.2z"/>
		<path class="st17" d="M545.2,344.2c-18.9,35.6-37.7,71.3-56.6,106.9c-16.5,17.5-33.1,35-49.6,52.5c12.5-33.4,25-66.9,37.5-100.3
			C499.4,383.6,522.3,363.9,545.2,344.2z"/>
		<path d="M411.9,429.5l-6.1,1.9l-21.4-69.5c0.2-0.4,0.8-1.5,2.2-2.1c1.9-0.8,3.6,0.1,3.9,0.2C397.6,383.2,404.8,406.4,411.9,429.5z
			"/>
		<path class="st18" d="M476.5,403.3c-12.5,33.4-25,66.9-37.5,100.3c-6-6-20-18.2-41.9-23.9c-18.8-4.8-34.5-2.5-42.6-0.7
			c-7-38.5-14-76.9-20.9-115.3c22.6,1.2,51.5,5,83.8,15.1C440.7,385.9,460.5,394.8,476.5,403.3z"/>
		<path class="st11" d="M472.5,438.8c-0.2-1,4.8-4.1,9.2-3.1c3.2,0.7,3.5,4.3,8.5,6.7c1,0.5,1.9,0.8,2.5,1c0.5-1,1.1-2,1.6-3
			c0.8,0.5,2.5,1.5,3,3.4c0.2,0.9,0.2,1.6-0.2,3.2c-0.8,3.9-1.2,5.8-2.1,7.2c-1.6,2.5-3.7,3.8-4.6,4.2c-1.1,0.7-2.2,1-3.2,1.3
			c-3.3,1.1-5.8,1.1-14.4,0.5c-7.2-0.5-10.7-0.8-11.1-2.3c-0.1-0.3-0.1-0.9,0.2-1.4c0.6-0.8,1.8-0.8,2.6-0.9c2.2,0,4.5,0,7,0
			c-3.5-0.4-6.5-0.9-8.6-1.3c-5.2-1-6.9-1.7-7.4-3.1c-0.3-0.7-0.3-1.7,0.2-2.4c1-1.3,3.5-0.6,8.6,0.4c6.3,1.3,9,1.7,9,1.6
			c0,0-0.6-0.4-12.6-3.7c-4.1-1.1-7.2-2-7.8-4.3c-0.1-0.3-0.3-1.1,0.1-1.7c0.8-1.3,3.6-1,10.5,0.8c7.1,1.9,12.8,4,12.8,3.9
			c0,0-2.8-1.4-7.8-3.1c-7.7-2.7-11.9-3.4-12.2-5.7c0-0.1-0.1-0.9,0.4-1.4c1.1-1.4,4.4-0.8,16.3,3.1c0,0,8.8,2.8,8.8,2.6
			c0,0-0.1,0-0.3-0.1c-2.9-0.8-4.5-1.3-6.5-1.9C472.8,439,472.5,439,472.5,438.8z"/>
	</g>
</g>
</svg>
