<?xml version="1.0" encoding="utf-8"?>
<!-- Generator: Adobe Illustrator 16.0.0, SVG Export Plug-In . SVG Version: 6.00 Build 0)  -->
<!DOCTYPE svg PUBLIC "-//W3C//DTD SVG 1.1//EN" "http://www.w3.org/Graphics/SVG/1.1/DTD/svg11.dtd">
<svg version="1.1" id="Layer_1" xmlns="http://www.w3.org/2000/svg" xmlns:xlink="http://www.w3.org/1999/xlink" x="0px" y="0px"
	 width="664px" height="598px" viewBox="0 0 664 598" enable-background="new 0 0 664 598" xml:space="preserve">
<g>
	<defs>
		<rect id="SVGID_1_" x="-31.15" y="-72" width="700.461" height="700.461"/>
	</defs>
	<clipPath id="SVGID_2_">
		<use xlink:href="#SVGID_1_"  overflow="visible"/>
	</clipPath>
	<path clip-path="url(#SVGID_2_)" fill="#E3F4FF" d="M144.498,518.734c-26.054-24.278-52.724-49.387-68.258-81.985
		c-15.535-32.6-17.514-74.896,4.479-103.188c12.455-16.021,31.138-26.013,42.79-42.674c20.894-29.873,13.565-71.099,5.543-107.083
		S114.265,106.31,135.882,77c19.695-26.701,56.099-32.807,88.371-30.372c32.271,2.434,64.605,11.266,96.586,6.151
		c26.099-4.175,50.787-17.525,77.192-17.389c31.901,0.165,62.664,22.31,74.05,53.303c6.474,17.624,7.532,38.21,19.631,52.269
		c16.171,18.788,44.778,17.909,65.5,31c24.485,15.467,33.941,47.976,34.258,77.768c0.315,29.793-6.419,59.372-5.293,89.143
		c1.721,45.484,21.418,92.73,4.735,134.812c-9.532,24.047-29.93,42.028-52.437,53.367c-22.508,11.34-47.257,16.814-71.727,22.191
		c-34.181,7.51-69.083,15.063-103.793,10.945c-26.334-3.122-51.695-12.895-78.115-15.078c-25.495-2.107-51.101,2.924-76.651,1.74
		c-25.55-1.186-53.038-10.375-66.536-32.969"/>
</g>
<g>
	<defs>
		<path id="SVGID_3_" d="M320.839,52.78c-31.982,5.114-64.314-3.717-96.586-6.151C191.981,44.194,155.576,50.3,135.882,77
			c-21.617,29.31-14.852,70.818-6.829,106.802c8.022,35.985,15.351,77.212-5.543,107.084c-11.652,16.66-30.337,26.653-42.791,42.674
			c-21.994,28.293-20.015,70.588-4.48,103.188c15.536,32.598,42.205,57.707,68.259,81.985l-2.843-4.852
			c13.498,22.594,40.985,31.783,66.536,32.969c11.893,0.552,23.798-0.244,35.7-1.039c13.666-0.914,27.323-1.827,40.951-0.701
			c26.42,2.184,51.781,11.956,78.115,15.078c34.71,4.117,69.612-3.435,103.793-10.945c24.47-5.377,49.219-10.852,71.727-22.191
			c22.507-11.338,42.904-29.32,52.437-53.367c16.683-42.082-3.013-89.328-4.735-134.812c-1.126-29.771,5.608-59.351,5.292-89.144
			c-0.315-29.792-9.771-62.299-34.257-77.767c-20.722-13.091-49.33-12.212-65.5-31c-12.099-14.058-13.157-34.645-19.631-52.269
			c-11.387-30.993-42.149-53.138-74.05-53.303c-0.136-0.001-0.266-0.001-0.402-0.001C371.377,35.392,346.804,48.627,320.839,52.78"
			/>
	</defs>
	<clipPath id="SVGID_4_">
		<use xlink:href="#SVGID_3_"  overflow="visible"/>
	</clipPath>
	<path clip-path="url(#SVGID_4_)" fill="#BDDEEF" d="M-7.979,367.91c205.389,0.117,410.778,0.232,616.167,0.347
		c11.296,0.006,24.47,1.224,30.788,13.231c4.612,8.766,3.808,20.301,2.825,30.8c-3.587,38.252-7.172,76.505-10.757,114.757
		c-1.422,15.154-3.248,31.452-11.492,42.461c-10.288,13.736-26.898,14.645-41.751,14.644c-181.609-0.018-363.22-0.034-544.829-0.052
		c-12.519-0.002-26.916-1.131-34.496-13.907c-5.494-9.258-5.581-21.866-5.433-33.498c0.717-56.064,1.433-112.13,2.15-168.193"/>
</g>
<g>
	<defs>
		<rect id="SVGID_5_" x="-31.15" y="-72" width="700.461" height="700.461"/>
	</defs>
	<clipPath id="SVGID_6_">
		<use xlink:href="#SVGID_5_"  overflow="visible"/>
	</clipPath>
	<path clip-path="url(#SVGID_6_)" fill="#F67444" d="M201.264,527.867l-1.394-17.14l6.476,8.569l-8.732-18.556l7.3,4.149
		l-8.658-17.536l5.787,6.015l-3.71-22.486l2.968,8.904l5.045-20.183v7.271l11.278-19.212l0.593,5.927l14.691-18.058
		c0,0-1.633,5.226-1.633,4.78s14.454-14.045,14.454-14.045l-18.757-24.48l-23.122,6.916l5.166,0.625l-27.899,16.45h7.866
		l-23.15,16.76l8.864-1.93c0,0-20.438,29.68-19.845,28.789c0.592-0.891,10.239-8.459,10.239-8.014c0,0.446-4.6,31.984-4.6,31.984
		l4.007-9.576l5.045,35.467l1.483-13.207l10.982,23.15l-0.891-11.279l16.769,20.924l-6.826-16.916l13.207,16.025L201.264,527.867z"
		/>
	<path clip-path="url(#SVGID_6_)" fill="#F67444" d="M310.963,383.542c-18.011,0.991-59.577,0.92-100.865,28.419
		c-42.149,28.07-43.29,54.583-40.915,73.621s17.268,33.266,25,30.6c7.733-2.667-10.751-26.637,0.204-46.738
		c10.955-20.102,37.303-35.031,50.417-42.656c18.938-11.012,67.136-13.833,72.331-14.754c5.195-0.92,29.796-26.681,28.263-27.706
		C343.862,383.301,310.963,383.542,310.963,383.542"/>
	<path clip-path="url(#SVGID_6_)" fill="#F67444" d="M418.328,441.689c-2.55,4.757-19.375,3.874-26.484,3.278
		c-1.52-0.125-2.949,0.575-3.741,1.751c-2.325,3.426-11.536,3.062-26.827,3.762c-12.482,0.575-15.361-4.363-15.956-7.376
		c-0.253-1.246-1.423-2.171-2.837-2.179c-4.722-0.021-14.69-0.419-23.046-3.291c-11.389-3.902-23.745-0.918-45.173-8.385
		c-21.42-7.481-9.771-23.311-9.638-28.958c0.202-8.181-3.223-9.483-4.875-18.568c-1.695-9.303,0.049-16.502,2.031-24.678
		c6.577-27.15,28.901-63.811,31.479-68c6.83-8.482,11.712-15.046,14.982-19.585c2.55-3.537,5.52-7.795,10.276-13.456
		c0.721-0.862,1.274-1.506,1.814-2.129c0.441-0.512,0.869-1.009,1.366-1.598c0.518-0.609,1.106-1.317,1.862-2.235
		c1.023-1.247,1.997-2.458,2.915-3.628c1.681-2.143,3.194-4.132,4.517-5.926c0.217-0.294,0.428-0.575,0.631-0.854
		c3.375,0.168,7.425,0.112,11.614,1.961c2.415,1.072,4.7,1.709,6.871,2.039c1.001,0.146,1.975,0.231,2.928,0.26
		c0.357,0.013,0.708,0.021,1.058,0.013c0.77,0.217,1.534,0.428,2.284,0.617c0,0,10.838,2.769,22.835,2.753
		c9.219-0.013,27.547-2.867,48.792-12.89c1.056,4.033,1.812,6.502,2.32,8.042c0.153,0.464,0.677,2.077,1.358,4.28
		c0.217,0.701,0.421,1.409,0.624,2.108c13.792,48.591-0.188,97.477-17.189,134.237c0,0-9.471,23.347-8.966,35.64
		c0.111,2.633,1.821,5.008,4.449,6.171C421.971,429.881,421.284,436.177,418.328,441.689"/>
	<path clip-path="url(#SVGID_6_)" fill="#C66A4E" d="M386.941,324.207c2.022-1.05,4.732,0.809,3.692,2.691
		c-10.049,18.153-8.135,24.635-11.037,36.316c-3.541,14.254-1.896,41.556,0.009,49.117s3.754,19.556,3.754,19.556
		s-12.324-31.777-11.879-50.854c0.445-19.076,5.186-36.624,0.848-47.077c-5.026-12.117-0.031-11.11,4.662-8.577
		c2.32,1.252,5.205,1.295,7.55,0.077L386.941,324.207z"/>
	<path clip-path="url(#SVGID_6_)" fill="#C66A4E" d="M308.569,266.494c-1.722,6.655-3.868,32.789-0.215,39.599
		c3.651,6.811,3.678,12.714,3.507,20.505c-0.168,7.792,3.307,33.131,7.124,37.518c3.818,4.389,19.483,29.168,24.205,39.152
		c4.72,9.981,6.581,27.61,6.654,28.949l0.073,1.34c0,0,2.225-13.791-1.394-25.435c-3.619-11.645-18.573-34.31-22.434-39.5
		c-3.863-5.19-11.07-27.943-10.291-35.494c0.777-7.551,0.088-20.134-3.369-28.833C308.971,295.597,308.569,266.494,308.569,266.494"
		/>
	<path clip-path="url(#SVGID_6_)" fill="#C66A4E" d="M267.696,385.527c5.95,16.099,11.191,24.717,19.469,28.899
		s8.931,5.227,8.931,5.227s-15.429-4.123-20.494-9.528C270.536,404.722,267.696,385.527,267.696,385.527"/>
	<path clip-path="url(#SVGID_6_)" fill="#CCCCCC" d="M417.979,441.094c0.392,1.341,1.259,2.408,1.921,3.072
		c0.376,0.377,1.066,0.212,1.188-0.284c0.214-0.87,0.384-2.187-0.008-3.525c-0.677-2.316-1.919-4.027-2.775-3.824
		C417.448,436.736,417.302,438.779,417.979,441.094"/>
	<path clip-path="url(#SVGID_6_)" fill="#CCCCCC" d="M410.592,444.909c0.393,1.339,1.259,2.408,1.921,3.071
		c0.376,0.378,1.067,0.212,1.188-0.284c0.213-0.872,0.383-2.188-0.008-3.526c-0.678-2.316-1.92-4.026-2.775-3.823
		C410.061,440.551,409.916,442.593,410.592,444.909"/>
	<path clip-path="url(#SVGID_6_)" fill="#CCCCCC" d="M401.605,445.036c0.084,1.383,0.694,2.588,1.194,3.358
		c0.283,0.438,0.998,0.401,1.228-0.063c0.402-0.815,0.862-2.075,0.779-3.457c-0.146-2.392-0.979-4.295-1.863-4.249
		C402.059,440.67,401.46,442.645,401.605,445.036"/>
	<path clip-path="url(#SVGID_6_)" fill="#CCCCCC" d="M379.243,447.6c0.208,1.372,0.927,2.527,1.495,3.258
		c0.323,0.415,1.031,0.326,1.218-0.152c0.329-0.843,0.674-2.131,0.464-3.503c-0.362-2.373-1.367-4.206-2.244-4.098
		C379.298,443.215,378.88,445.227,379.243,447.6"/>
	<path clip-path="url(#SVGID_6_)" fill="#CCCCCC" d="M370.248,449.358c0.161,1.378,0.836,2.554,1.377,3.3
		c0.308,0.426,1.019,0.357,1.223-0.117c0.358-0.833,0.748-2.11,0.588-3.487c-0.277-2.382-1.215-4.244-2.096-4.16
		C370.459,444.979,369.97,446.978,370.248,449.358"/>
	<path clip-path="url(#SVGID_6_)" fill="#CCCCCC" d="M361.337,449.142c-0.108,1.383,0.329,2.646,0.719,3.466
		c0.221,0.468,0.934,0.511,1.226,0.077c0.514-0.764,1.145-1.962,1.254-3.344c0.188-2.39-0.375-4.371-1.258-4.426
		C362.394,444.859,361.525,446.752,361.337,449.142"/>
	<path clip-path="url(#SVGID_6_)" fill="#CCCCCC" d="M353.085,448.277c-0.335,1.354-0.112,2.661,0.138,3.524
		c0.141,0.491,0.838,0.632,1.2,0.24c0.633-0.688,1.456-1.786,1.791-3.139c0.581-2.339,0.351-4.374-0.514-4.547
		C354.836,444.184,353.664,445.939,353.085,448.277"/>
	<path clip-path="url(#SVGID_6_)" fill="none" stroke="#020202" stroke-width="4.192" stroke-miterlimit="10" d="M424.502,470.781
		c1.963,0.116,16.763,1.244,26.157,14.292c10.211,14.181,5.102,30.031,4.584,31.55c18.093-0.74,31.992-9.697,35.057-21.572
		c1.557-6.033,0.239-12.525-2.667-17.146C479.172,464.446,453.708,461.229,424.502,470.781z"/>
	<path clip-path="url(#SVGID_6_)" fill="none" stroke="#020202" stroke-width="4.192" stroke-miterlimit="10" d="M470.884,476.983
		c-1.618,4.405-3.236,8.81-4.854,13.214"/>
	<path clip-path="url(#SVGID_6_)" fill="none" stroke="#020202" stroke-width="4.192" stroke-miterlimit="10" d="M459.02,479.68
		c5.482,1.978,10.966,3.955,16.449,5.933"/>
	<path clip-path="url(#SVGID_6_)" fill="none" stroke="#020202" stroke-width="4.192" stroke-miterlimit="10" d="M449.844,483.988
		c-14.791,4.878-29.582,9.756-44.374,14.634"/>
	<path clip-path="url(#SVGID_6_)" fill="none" stroke="#020202" stroke-width="4.192" stroke-miterlimit="10" d="M401.582,482.646
		c14.283-4.597,27.799-0.273,32.628,8.629c2.788,5.142,2.107,10.755,1.349,14.022"/>
	<path clip-path="url(#SVGID_6_)" fill="none" stroke="#020202" stroke-width="4.192" stroke-miterlimit="10" d="M384.593,492.624
		c6.281-2.362,13.344-1.122,18.337,3.236c7.318,6.387,6.027,15.836,5.933,16.448"/>
	<path clip-path="url(#SVGID_6_)" fill-rule="evenodd" clip-rule="evenodd" fill="#F67444" d="M338.551,120.242
		c-5.939-3.022-11.879-6.045-17.817-9.068c-3.095-1.584-11.043-5.116-21-3.489c-3.976,0.65-10.761,1.759-14.124,6.56
		c-6.229,8.894,0.805,28.298,13.731,34.808C317.61,158.25,344.638,140.178,338.551,120.242"/>
	<path clip-path="url(#SVGID_6_)" fill-rule="evenodd" clip-rule="evenodd" fill="#FFF9EB" d="M334.311,127.813
		c-11.996-4.258-23.993-8.517-35.99-12.775c-7.827,14.458-4.275,30.285,4.514,35.903
		C315.927,159.31,339.177,144.086,334.311,127.813"/>
	<path clip-path="url(#SVGID_6_)" fill-rule="evenodd" clip-rule="evenodd" fill="#C66A4E" d="M431.686,246.709
		c-30.316,14.731-83.957,17.127-111.352,7.167c0.441-0.512,0.869-1.009,1.366-1.598c0.518-0.609,1.106-1.317,1.862-2.235
		c1.023-1.247,1.997-2.458,2.915-3.628c1.681-2.143,3.194-4.132,4.517-5.926c2.921-0.035,6.227,0.049,9.682,1.359
		c3.418,1.31,6.549,1.8,9.435,1.786c0.51,0,1.029-0.015,1.527-0.049c0.469,0.105,0.939,0.21,1.401,0.309
		c1.135,0.237,2.249,0.447,3.342,0.63c1.696,0.283,17.145,2.508,22.835,2.753c9.645,0.415,27.498-3.296,48.535-12.033
		c0.883,2.293,1.746,4.689,2.577,7.185C430.809,243.879,431.262,245.306,431.686,246.709"/>
	<path clip-path="url(#SVGID_6_)" fill-rule="evenodd" clip-rule="evenodd" fill="#F67444" d="M391.428,113.558
		c12.423-0.089,39.259-27.128,49.645-23.887c10.386,3.242-3.255,42.59-11.703,54.349
		C420.921,155.778,367.532,130.116,391.428,113.558"/>
	<path clip-path="url(#SVGID_6_)" fill-rule="evenodd" clip-rule="evenodd" fill="#FFF9EB" d="M395.341,121.303
		c9.972-0.072,31.517-21.777,39.853-19.175c8.337,2.602-2.613,34.19-9.396,43.629C419.016,155.196,376.158,134.596,395.341,121.303"
		/>
	<path clip-path="url(#SVGID_6_)" fill-rule="evenodd" clip-rule="evenodd" fill="#C66A4E" d="M401.184,116.768
		c11.619,0.162,17.733-1.741,21.833-2.871s-0.732,4.072-4.627,4.64c-3.895,0.568,7.573,3.867,11.874,2.255
		c4.302-1.611-0.453,4.144-6.26,3.407c-5.807-0.737,8.407,5.532,9.271,10.965C434.138,140.597,402.886,124.107,401.184,116.768"/>
	<path clip-path="url(#SVGID_6_)" fill-rule="evenodd" clip-rule="evenodd" fill="#F67444" d="M360.771,113.923
		c36.684-3.558,70.645,9.462,83.894,37.996c1.521,3.275-10.968-8.746-8.677-5.899c8.803,10.938,14.085,20.673,14.988,33.205
		c0.309,4.281-11.525-12.625-7.565-4.803c8.284,16.365,12.711,27.41,8.502,39.287c-7.722,21.788-31.201,29.632-75.238,33.904
		c-47.058,4.564-72.76,2.625-84.618-19.826c-7.153-13.539-5.805-28.991,1.149-43.032c1.619-3.267-9.486,10.24-9.291,6.638
		c0.629-11.579,4.16-21.783,9.633-31.156c3.841-6.581-7.491,2.922-6.416,0.082C296.681,135.083,329.327,116.973,360.771,113.923"/>
	<path clip-path="url(#SVGID_6_)" fill="#342010" d="M467.665,230.085c-0.229,0.022-0.466-0.031-0.673-0.167
		c-27.724-18.285-63.625-19.45-80.991-15.773c-0.565,0.121-1.116-0.241-1.235-0.803c-0.12-0.563,0.241-1.116,0.803-1.235
		c17.711-3.749,54.313-2.564,82.569,16.074c0.48,0.316,0.613,0.962,0.296,1.441C468.255,229.894,467.968,230.056,467.665,230.085
		 M278.289,248.451c-0.302,0.029-0.616-0.073-0.845-0.307c-0.403-0.41-0.398-1.069,0.013-1.473
		c24.149-23.718,59.842-31.914,77.943-31.639c0.575,0.009,1.035,0.482,1.024,1.058c-0.008,0.575-0.484,1.037-1.057,1.025
		c-17.749-0.272-52.758,7.772-76.45,31.042C278.739,248.331,278.518,248.428,278.289,248.451 M468.492,212.47
		c-0.182,0.019-0.369-0.011-0.546-0.094c-29.996-14.257-65.711-10.426-82.399-4.371c-0.542,0.195-1.138-0.084-1.333-0.624
		c-0.197-0.541,0.082-1.137,0.623-1.334c17.017-6.173,53.431-10.083,84.001,4.448c0.521,0.247,0.74,0.868,0.494,1.388
		C469.17,212.224,468.845,212.436,468.492,212.47 M274.092,231.324c-0.352,0.035-0.713-0.111-0.939-0.417
		c-0.341-0.462-0.244-1.114,0.218-1.456c27.211-20.136,63.696-23.294,81.582-20.506c0.568,0.089,0.957,0.622,0.869,1.189
		c-0.089,0.568-0.623,0.957-1.189,0.869c-17.541-2.736-53.325,0.367-80.022,20.122C274.453,231.241,274.273,231.307,274.092,231.324
		 M467.906,197.142c-0.143,0.014-0.289-0.001-0.433-0.049c-31.49-10.553-66.486-2.463-82.325,5.549
		c-0.514,0.26-1.141,0.055-1.4-0.459c-0.259-0.514-0.054-1.141,0.459-1.399c16.152-8.171,51.833-16.423,83.929-5.667
		c0.545,0.183,0.838,0.772,0.655,1.318C468.658,196.837,468.303,197.104,467.906,197.142 M271.722,216.168
		c-0.396,0.038-0.797-0.154-1.007-0.523c-0.283-0.499-0.109-1.134,0.39-1.419c29.434-16.724,66.034-15.482,83.454-10.567
		c0.554,0.156,0.876,0.732,0.72,1.285c-0.157,0.554-0.73,0.877-1.286,0.719c-17.083-4.819-52.981-6.034-81.858,10.373
		C272.004,216.111,271.863,216.154,271.722,216.168"/>
	<path clip-path="url(#SVGID_6_)" fill="#8FDDE1" d="M347.547,192.385c-0.859,0.474-1.72,0.948-2.58,1.423
		c-0.652,0.517-1.532,0.433-2.226,0.841c-0.538,0.25-1.096,0.351-1.687,0.252c-2.181-0.36-4.188-1.154-6.187-2.125
		c-3.181-1.546-4.593-4.176-5.047-7.449c-0.123-0.876-0.476-1.663-0.59-2.521c2.41-1.418,5.162-1.504,7.805-2.014
		c2.18-0.184,2.664,1.325,3.023,3.002c0.377,1.763-0.087,3.659,1.004,5.335c0.348-1.952,0.166-3.903-0.096-5.85
		c-0.115-0.862-0.457-1.718,0.023-2.574c2.372-1.471,5.07-1.667,7.737-1.978c1.018,0.5,0.865,1.599,1.235,2.43
		C351.195,185.338,350.488,189.103,347.547,192.385"/>
	<path clip-path="url(#SVGID_6_)" fill="#FAFBFB" d="M340.952,194.459c-1.423,0.427-2.868,0.566-4.356,0.474
		c-4.144-0.256-6.768-2.278-7.755-6.24c-0.352-1.414-0.363-2.912-0.548-4.368c-0.102-0.813,0.179-1.277,1.052-1.271
		c0.414,0.187,1.02-0.06,1.141,0.732c1.083,7.063,2.811,8.848,9.909,10.358C340.594,194.187,340.767,194.352,340.952,194.459"/>
	<path clip-path="url(#SVGID_6_)" fill="#324545" d="M337.198,181.359c1.23-0.88,2.665-0.333,3.988-0.57
		c0.29,2.547,0.632,5.091,0.837,7.646c0.063,0.763,0.454,2.074-0.746,2.132c-0.987,0.048-1.497-1.04-1.585-2.078
		c-0.153-1.828-0.345-3.655-0.413-5.486C339.226,181.551,338.527,181.104,337.198,181.359"/>
	<path clip-path="url(#SVGID_6_)" fill="#232530" d="M338.68,196.784c-2.356,0.124-5.031-0.257-7.461-1.847
		c-1.911-1.25-3.037-2.833-3.539-3.667c-1.868-3.1-1.81-6.343-1.468-8.436c-0.922,0.123-1.708,0.222-2.308,0.296
		c-0.586,0.068-1.116-0.343-1.19-0.926c-0.075-0.583,0.337-1.117,0.92-1.194l3.814-0.501c0.004,0,0.008-0.001,0.013-0.001
		c3.068-0.431,6.26-0.943,9.285-1.493c4.593-0.835,9.306-1.845,14.006-2.999c0.573-0.141,1.152,0.21,1.293,0.782
		c0.139,0.573-0.211,1.151-0.783,1.292c-4.744,1.166-9.499,2.183-14.134,3.026c-2.828,0.514-5.798,0.996-8.683,1.409
		c-0.372,1.672-0.676,4.755,1.064,7.643c0.328,0.544,1.266,1.923,2.878,2.979c4.767,3.119,11.069,0.48,11.773,0.169
		c0.538-0.238,1.17,0.005,1.408,0.545c0.239,0.54-0.004,1.169-0.545,1.408C344.274,195.603,341.747,196.622,338.68,196.784"/>
	<path clip-path="url(#SVGID_6_)" fill="#8FDDE1" d="M398.824,185.528c0.904,0.381,1.809,0.762,2.713,1.143
		c0.704,0.446,1.569,0.27,2.302,0.602c0.561,0.193,1.127,0.234,1.703,0.075c2.131-0.588,4.045-1.59,5.928-2.765
		c3.002-1.873,4.129-4.636,4.236-7.939c0.029-0.883,0.298-1.703,0.321-2.569c-2.546-1.155-5.292-0.953-7.972-1.181
		c-2.188,0.046-2.511,1.596-2.691,3.304c-0.19,1.793,0.47,3.63-0.437,5.411c-0.552-1.904-0.576-3.863-0.521-5.828
		c0.024-0.869,0.274-1.755-0.294-2.557c-2.513-1.214-5.216-1.125-7.902-1.152c-0.96,0.604-0.691,1.681-0.973,2.547
		C394.455,178.905,395.554,182.573,398.824,185.528"/>
	<path clip-path="url(#SVGID_6_)" fill="#FAFBFB" d="M405.6,186.897c1.461,0.275,2.912,0.261,4.383,0.014
		c4.094-0.69,6.49-2.978,7.054-7.022c0.201-1.444,0.057-2.934,0.085-4.401c0.018-0.82-0.313-1.25-1.179-1.153
		c-0.393,0.229-1.02,0.047-1.058,0.847c-0.334,7.139-1.863,9.095-8.764,11.343C405.928,186.588,405.772,186.771,405.6,186.897"/>
	<path clip-path="url(#SVGID_6_)" fill="#324545" d="M407.955,173.475c-1.316-0.746-2.687-0.052-4.026-0.148
		c-0.02,2.565-0.093,5.131-0.029,7.693c0.019,0.765-0.232,2.109,0.966,2.042c0.987-0.056,1.38-1.191,1.358-2.232
		c-0.04-1.834-0.04-3.671-0.165-5.5C405.959,173.879,406.606,173.361,407.955,173.475"/>
	<path clip-path="url(#SVGID_6_)" fill="#232530" d="M408.104,188.97c2.354-0.124,4.976-0.786,7.226-2.621
		c1.769-1.445,2.723-3.137,3.134-4.018c1.531-3.279,1.132-6.499,0.57-8.544c0.931,0.025,1.723,0.041,2.327,0.051
		c0.59,0.008,1.075-0.458,1.087-1.045c0.012-0.588-0.453-1.075-1.041-1.09l-3.846-0.098c-0.004,0-0.009,0-0.014,0
		c-3.097-0.104-6.324-0.279-9.39-0.507c-4.657-0.347-9.449-0.854-14.246-1.508c-0.584-0.08-1.122,0.33-1.202,0.914
		c-0.079,0.584,0.33,1.123,0.914,1.203c4.838,0.659,9.674,1.171,14.373,1.521c2.866,0.213,5.873,0.38,8.783,0.487
		c0.546,1.625,1.173,4.659-0.254,7.713c-0.269,0.576-1.055,2.047-2.549,3.266c-4.412,3.603-10.956,1.642-11.689,1.408
		c-0.561-0.181-1.163,0.127-1.343,0.689s0.129,1.164,0.69,1.344C402.416,188.384,405.037,189.131,408.104,188.97"/>
	<path clip-path="url(#SVGID_6_)" fill="#3E2409" d="M384.932,164.748c0.76,1.146,0.217,1.665-0.919,1.605
		c-0.695-0.038-1.371-0.443-2.055-0.683c-1.051-1.11-2.279-2.088-2.818-3.587c-0.287-0.799-0.343-1.752,0.5-2.145
		c0.801-0.373,1.035,0.573,1.358,1.099C381.977,162.632,383.293,163.858,384.932,164.748"/>
	<path clip-path="url(#SVGID_6_)" fill="#3E2409" d="M366.256,162.033c0.161,1.951-2.889,5.493-4.871,5.672
		c-0.421,0.038-0.697-0.145-0.893-0.489c-0.222-0.392-0.036-0.743,0.228-0.986c1.625-1.503,3.118-3.094,3.951-5.206
		c0.133-0.338,0.512-0.547,0.913-0.307C366.074,161.009,366.208,161.505,366.256,162.033"/>
	<path clip-path="url(#SVGID_6_)" fill="#4B2E0F" d="M381.428,166.286c1.214,0.411,2.429,0.82,3.643,1.231
		c0.635,0.94,0.332,1.506-0.732,1.651c-1.458,0.199-2.723-0.26-3.7-1.37C379.648,166.673,380.276,166.328,381.428,166.286"/>
	<path clip-path="url(#SVGID_6_)" fill="#4C2E0F" d="M362.132,170.36c-0.563-0.019-1.33,0.132-1.495-0.779
		c-0.124-0.676,2.957-2.378,4.218-2.389c0.414-0.003,0.733,0.093,0.815,0.531C365.852,168.686,363.759,170.274,362.132,170.36"/>
	<path clip-path="url(#SVGID_6_)" fill="#361E06" d="M367.183,219.113c-1.637,0.784-3.105,0.891-3.529,0.302
		c-0.559-0.776,0.805-2.621,1.005-2.891c0.958-1.296,2.103-1.955,2.4-2.128c0.547-0.32,6.573-3.367,6.325-5.768
		c-0.195-1.885-4.924-2.846-8.076-7.899c-7.118-8.787,27.325-13.333,12.899,4.482c-1.988,2.215-1.612,3.896,1.097,4.881
		c1.857,1.186,10.589,5.404,8.055,7.75c-0.948,1.102-2.096,0.801-3.132-0.051c-2.995-3.829-8.241-6.147-12.251-2.642
		C370.489,216.725,369.564,217.003,367.183,219.113"/>
	<path clip-path="url(#SVGID_6_)" fill="#BDECFF" d="M428.861,200.735c-0.1,2.111-1.239,3.907-2.213,3.936
		c-0.972,0.028-1.68-1.713-1.839-3.936c-0.225-3.14,1.265-5.591,2.025-6.67C427.615,195.211,429.006,197.625,428.861,200.735"/>
	<path clip-path="url(#SVGID_6_)" fill="#FFFFFF" d="M428.236,201.133c-0.114,0.75-0.591,1.348-0.938,1.322
		c-0.349-0.027-0.535-0.676-0.509-1.476c0.039-1.13,0.664-1.948,0.977-2.305C428.001,199.113,428.405,200.027,428.236,201.133"/>
	<path clip-path="url(#SVGID_6_)" fill="#BDECFF" d="M365.684,165.43c-0.098,2.111-1.238,3.907-2.212,3.936
		c-0.971,0.029-1.679-1.712-1.838-3.936c-0.225-3.14,1.265-5.591,2.025-6.67C364.438,159.906,365.83,162.32,365.684,165.43"/>
	<path clip-path="url(#SVGID_6_)" fill="#FFFFFF" d="M365.061,165.827c-0.114,0.75-0.591,1.35-0.939,1.322
		c-0.349-0.026-0.536-0.674-0.508-1.476c0.039-1.129,0.664-1.949,0.976-2.306C364.825,163.807,365.229,164.722,365.061,165.827"/>
	<path clip-path="url(#SVGID_6_)" fill="#BDECFF" d="M418.459,150.746c-0.098,2.111-1.239,3.908-2.212,3.936
		c-0.972,0.029-1.681-1.712-1.839-3.936c-0.225-3.14,1.264-5.591,2.025-6.67C417.214,145.222,418.604,147.636,418.459,150.746"/>
	<path clip-path="url(#SVGID_6_)" fill="#FFFFFF" d="M417.835,151.143c-0.114,0.75-0.591,1.35-0.938,1.323
		c-0.349-0.027-0.535-0.675-0.509-1.476c0.038-1.13,0.664-1.949,0.976-2.306C417.599,149.123,418.005,150.038,417.835,151.143"/>
	<path clip-path="url(#SVGID_6_)" fill="#BDECFF" d="M328.249,154.823c-0.099,2.111-1.238,3.908-2.212,3.936
		c-0.972,0.029-1.679-1.712-1.838-3.936c-0.225-3.14,1.265-5.591,2.025-6.67C327.004,149.3,328.394,151.713,328.249,154.823"/>
	<path clip-path="url(#SVGID_6_)" fill="#FFFFFF" d="M327.625,155.221c-0.114,0.75-0.591,1.349-0.938,1.323
		c-0.349-0.027-0.536-0.675-0.509-1.476c0.039-1.129,0.664-1.948,0.976-2.306C327.389,153.2,327.795,154.115,327.625,155.221"/>
	<path clip-path="url(#SVGID_6_)" fill="#BDECFF" d="M342.505,175.744c-0.1,2.111-1.24,3.907-2.212,3.937
		c-0.972,0.028-1.68-1.713-1.839-3.937c-0.225-3.14,1.265-5.592,2.025-6.671C341.259,170.22,342.649,172.634,342.505,175.744"/>
	<path clip-path="url(#SVGID_6_)" fill="#FFFFFF" d="M341.881,176.142c-0.115,0.75-0.592,1.349-0.939,1.322
		c-0.349-0.026-0.536-0.675-0.509-1.475c0.039-1.13,0.665-1.949,0.976-2.307C341.644,174.121,342.05,175.036,341.881,176.142"/>
	<path clip-path="url(#SVGID_6_)" fill="#BDECFF" d="M373.749,140.914c-0.098,2.111-1.238,3.908-2.212,3.936
		c-0.972,0.029-1.68-1.712-1.838-3.936c-0.224-3.14,1.264-5.591,2.025-6.67C372.504,135.39,373.894,137.804,373.749,140.914"/>
	<path clip-path="url(#SVGID_6_)" fill="#FFFFFF" d="M373.125,141.311c-0.114,0.75-0.589,1.349-0.938,1.323
		c-0.349-0.027-0.536-0.676-0.509-1.477c0.039-1.129,0.663-1.949,0.976-2.306C372.889,139.291,373.295,140.206,373.125,141.311"/>
	<path clip-path="url(#SVGID_6_)" fill="#BDECFF" d="M338.433,234.955c-0.098,2.111-1.239,3.907-2.212,3.936
		c-0.973,0.029-1.68-1.712-1.838-3.936c-0.224-3.14,1.264-5.591,2.024-6.67C337.187,229.432,338.578,231.845,338.433,234.955"/>
	<path clip-path="url(#SVGID_6_)" fill="#FFFFFF" d="M337.809,235.353c-0.115,0.75-0.59,1.349-0.938,1.322
		c-0.35-0.027-0.535-0.675-0.509-1.476c0.04-1.129,0.664-1.949,0.977-2.307C337.572,233.333,337.978,234.247,337.809,235.353"/>
	<path clip-path="url(#SVGID_6_)" fill="#BDECFF" d="M367.726,241.455c-0.098,2.111-1.238,3.907-2.212,3.936
		c-0.972,0.028-1.68-1.712-1.838-3.936c-0.224-3.14,1.264-5.591,2.025-6.67C366.481,235.931,367.872,238.345,367.726,241.455"/>
	<path clip-path="url(#SVGID_6_)" fill="#FFFFFF" d="M367.102,241.852c-0.114,0.75-0.589,1.35-0.938,1.323
		c-0.349-0.027-0.536-0.676-0.509-1.476c0.04-1.131,0.663-1.95,0.976-2.307C366.867,239.832,367.272,240.747,367.102,241.852"/>
	<path clip-path="url(#SVGID_6_)" fill="#BDECFF" d="M393.106,272.355c-0.099,2.111-1.24,3.907-2.212,3.935
		c-0.972,0.029-1.68-1.713-1.838-3.935c-0.226-3.141,1.264-5.592,2.024-6.671C391.861,266.831,393.251,269.245,393.106,272.355"/>
	<path clip-path="url(#SVGID_6_)" fill="#FFFFFF" d="M392.482,272.752c-0.115,0.75-0.591,1.35-0.939,1.322
		c-0.349-0.026-0.535-0.675-0.507-1.476c0.038-1.129,0.662-1.948,0.976-2.305C392.246,270.732,392.651,271.646,392.482,272.752"/>
	<path clip-path="url(#SVGID_6_)" fill="#BDECFF" d="M308.319,305.042c-0.097,2.111-1.238,3.907-2.212,3.936
		c-0.973,0.029-1.679-1.712-1.838-3.936c-0.224-3.14,1.265-5.591,2.025-6.67C307.073,299.519,308.464,301.932,308.319,305.042"/>
	<path clip-path="url(#SVGID_6_)" fill="#FFFFFF" d="M307.695,305.439c-0.115,0.75-0.591,1.35-0.938,1.323
		c-0.349-0.027-0.536-0.676-0.509-1.476c0.039-1.129,0.664-1.948,0.976-2.306C307.459,303.42,307.864,304.334,307.695,305.439"/>
	<path clip-path="url(#SVGID_6_)" fill="#BDECFF" d="M269.727,323.458c-0.098,2.11-1.239,3.906-2.212,3.935
		c-0.973,0.029-1.679-1.712-1.838-3.935c-0.224-3.141,1.265-5.592,2.024-6.671C268.481,317.934,269.873,320.348,269.727,323.458"/>
	<path clip-path="url(#SVGID_6_)" fill="#FFFFFF" d="M269.104,323.855c-0.115,0.75-0.591,1.349-0.938,1.322
		c-0.349-0.026-0.537-0.675-0.509-1.476c0.039-1.129,0.664-1.948,0.976-2.305C268.867,321.835,269.272,322.75,269.104,323.855"/>
	<path clip-path="url(#SVGID_6_)" fill="#BDECFF" d="M437.657,238.042c-0.099,2.111-1.239,3.908-2.212,3.936
		c-0.972,0.029-1.68-1.711-1.838-3.936c-0.226-3.14,1.264-5.591,2.023-6.67C436.412,232.519,437.803,234.932,437.657,238.042"/>
	<path clip-path="url(#SVGID_6_)" fill="#FFFFFF" d="M437.033,238.439c-0.115,0.75-0.59,1.35-0.939,1.323
		c-0.349-0.026-0.535-0.675-0.507-1.476c0.038-1.129,0.663-1.948,0.976-2.306C436.797,236.42,437.203,237.334,437.033,238.439"/>
	<path clip-path="url(#SVGID_6_)" fill="#BDECFF" d="M403.217,250.429c-0.097,2.111-1.238,3.907-2.212,3.936
		c-0.973,0.029-1.679-1.713-1.839-3.936c-0.223-3.14,1.266-5.591,2.026-6.67C401.973,244.905,403.363,247.319,403.217,250.429"/>
	<path clip-path="url(#SVGID_6_)" fill="#FFFFFF" d="M402.594,250.826c-0.115,0.75-0.591,1.35-0.938,1.322
		c-0.349-0.026-0.536-0.675-0.509-1.476c0.038-1.129,0.664-1.948,0.976-2.305C402.358,248.806,402.763,249.721,402.594,250.826"/>
	<path clip-path="url(#SVGID_6_)" fill="#BDECFF" d="M336.391,271.159c-0.099,2.111-1.239,3.907-2.213,3.936
		c-0.972,0.028-1.678-1.713-1.838-3.936c-0.224-3.14,1.265-5.591,2.025-6.67C335.145,265.635,336.535,268.049,336.391,271.159"/>
	<path clip-path="url(#SVGID_6_)" fill="#FFFFFF" d="M335.767,271.556c-0.115,0.75-0.592,1.348-0.938,1.322
		c-0.35-0.027-0.537-0.676-0.51-1.476c0.039-1.129,0.664-1.948,0.977-2.306C335.53,269.535,335.936,270.451,335.767,271.556"/>
	<path clip-path="url(#SVGID_6_)" fill="#BDECFF" d="M313.151,257.123c-0.099,2.111-1.238,3.907-2.212,3.935
		c-0.972,0.029-1.68-1.712-1.838-3.935c-0.225-3.141,1.264-5.592,2.025-6.671C311.906,251.599,313.296,254.012,313.151,257.123"/>
	<path clip-path="url(#SVGID_6_)" fill="#FFFFFF" d="M312.527,257.519c-0.115,0.75-0.591,1.35-0.938,1.323
		c-0.349-0.026-0.536-0.675-0.509-1.475c0.039-1.13,0.664-1.95,0.976-2.307C312.292,255.499,312.696,256.415,312.527,257.519"/>
	<path clip-path="url(#SVGID_6_)" fill="#BDECFF" d="M323.419,372.615c-0.098,2.11-1.238,3.907-2.212,3.936
		c-0.973,0.028-1.68-1.712-1.839-3.936c-0.224-3.142,1.264-5.592,2.026-6.671C322.173,367.091,323.564,369.504,323.419,372.615"/>
	<path clip-path="url(#SVGID_6_)" fill="#FFFFFF" d="M322.795,373.013c-0.115,0.749-0.59,1.349-0.939,1.322
		c-0.349-0.027-0.536-0.676-0.507-1.478c0.039-1.129,0.663-1.947,0.975-2.305C322.56,370.991,322.964,371.907,322.795,373.013"/>
	<path clip-path="url(#SVGID_6_)" fill="#BDECFF" d="M388.449,371.92c-0.099,2.112-1.239,3.908-2.212,3.936
		c-0.974,0.029-1.68-1.713-1.838-3.936c-0.225-3.141,1.263-5.591,2.024-6.67C387.203,366.396,388.594,368.81,388.449,371.92"/>
	<path clip-path="url(#SVGID_6_)" fill="#FFFFFF" d="M387.825,372.317c-0.115,0.75-0.59,1.349-0.939,1.322
		c-0.349-0.027-0.535-0.675-0.508-1.476c0.039-1.13,0.662-1.949,0.976-2.306C387.588,370.297,387.994,371.212,387.825,372.317"/>
	<path clip-path="url(#SVGID_6_)" fill="#BDECFF" d="M343.95,428.671c-0.1,2.111-1.241,3.907-2.213,3.937s-1.679-1.713-1.838-3.937
		c-0.226-3.14,1.264-5.59,2.025-6.67C342.704,423.148,344.094,425.562,343.95,428.671"/>
	<path clip-path="url(#SVGID_6_)" fill="#FFFFFF" d="M343.325,429.069c-0.115,0.749-0.591,1.349-0.938,1.322
		c-0.349-0.027-0.536-0.675-0.508-1.477c0.038-1.129,0.663-1.948,0.976-2.307C343.089,427.048,343.494,427.964,343.325,429.069"/>
	<path clip-path="url(#SVGID_6_)" fill="#BDECFF" d="M306.235,435.704c-0.098,2.111-1.238,3.908-2.212,3.936
		c-0.972,0.029-1.68-1.713-1.838-3.936c-0.224-3.14,1.264-5.591,2.025-6.671C304.99,430.181,306.38,432.595,306.235,435.704"/>
	<path clip-path="url(#SVGID_6_)" fill="#FFFFFF" d="M305.611,436.102c-0.115,0.75-0.59,1.35-0.938,1.322
		c-0.349-0.027-0.536-0.675-0.508-1.475c0.038-1.131,0.663-1.95,0.976-2.307C305.375,434.081,305.78,434.996,305.611,436.102"/>
	<path clip-path="url(#SVGID_6_)" fill="#BDECFF" d="M363.643,336.25c-0.099,2.111-1.239,3.907-2.212,3.936
		c-0.973,0.029-1.68-1.711-1.838-3.936c-0.225-3.14,1.263-5.59,2.024-6.67C362.397,330.727,363.788,333.14,363.643,336.25"/>
	<path clip-path="url(#SVGID_6_)" fill="#FFFFFF" d="M363.019,336.647c-0.115,0.75-0.59,1.349-0.939,1.322
		c-0.349-0.026-0.534-0.676-0.507-1.476c0.039-1.129,0.662-1.948,0.976-2.306C362.782,334.627,363.188,335.542,363.019,336.647"/>
	<path clip-path="url(#SVGID_6_)" fill="#BDECFF" d="M395.148,423.809c-0.099,2.111-1.239,3.906-2.212,3.936
		c-0.972,0.028-1.68-1.713-1.838-3.936c-0.225-3.141,1.264-5.591,2.025-6.671C393.902,418.284,395.293,420.698,395.148,423.809"/>
	<path clip-path="url(#SVGID_6_)" fill="#FFFFFF" d="M394.524,424.206c-0.114,0.75-0.591,1.349-0.938,1.321
		c-0.349-0.026-0.536-0.675-0.509-1.476c0.039-1.13,0.663-1.948,0.976-2.305C394.288,422.186,394.693,423.101,394.524,424.206"/>
	<path clip-path="url(#SVGID_6_)" fill="#BDECFF" d="M321.377,405.393c-0.099,2.11-1.239,3.907-2.212,3.937
		c-0.973,0.028-1.679-1.713-1.839-3.937c-0.224-3.141,1.265-5.591,2.025-6.671C320.131,399.869,321.522,402.282,321.377,405.393"/>
	<path clip-path="url(#SVGID_6_)" fill="#FFFFFF" d="M320.752,405.79c-0.115,0.75-0.591,1.349-0.938,1.323
		c-0.349-0.027-0.536-0.676-0.508-1.478c0.038-1.129,0.663-1.947,0.975-2.306C320.517,403.77,320.922,404.686,320.752,405.79"/>
	<path clip-path="url(#SVGID_6_)" fill="#BDECFF" d="M377.467,457.212c-0.1,2.111-1.239,3.908-2.212,3.937
		c-0.973,0.029-1.68-1.713-1.839-3.937c-0.225-3.14,1.264-5.591,2.025-6.67C376.221,451.689,377.612,454.103,377.467,457.212"/>
	<path clip-path="url(#SVGID_6_)" fill="#FFFFFF" d="M376.842,457.609c-0.114,0.75-0.59,1.35-0.938,1.323
		c-0.349-0.027-0.536-0.675-0.507-1.477c0.037-1.129,0.663-1.949,0.975-2.307C376.606,455.59,377.012,456.504,376.842,457.609"/>
	<path clip-path="url(#SVGID_6_)" fill="#BDECFF" d="M422.553,276.462c-0.1,2.111-1.24,3.907-2.214,3.936
		c-0.972,0.028-1.679-1.713-1.838-3.936c-0.226-3.14,1.265-5.591,2.025-6.67C421.307,270.938,422.696,273.352,422.553,276.462"/>
	<path clip-path="url(#SVGID_6_)" fill="#FFFFFF" d="M421.928,276.859c-0.115,0.75-0.591,1.349-0.938,1.322
		c-0.349-0.027-0.536-0.676-0.509-1.476c0.038-1.13,0.663-1.948,0.976-2.305C421.691,274.839,422.097,275.754,421.928,276.859"/>
	<path clip-path="url(#SVGID_6_)" fill="#BDECFF" d="M438.36,308.129c-0.098,2.112-1.238,3.907-2.212,3.937
		c-0.972,0.029-1.68-1.712-1.84-3.937c-0.223-3.14,1.266-5.59,2.026-6.67C437.114,302.606,438.506,305.019,438.36,308.129"/>
	<path clip-path="url(#SVGID_6_)" fill="#FFFFFF" d="M437.736,308.527c-0.115,0.75-0.591,1.349-0.938,1.323
		c-0.349-0.027-0.535-0.676-0.509-1.476c0.039-1.13,0.663-1.949,0.976-2.307C437.501,306.507,437.905,307.421,437.736,308.527"/>
	<path clip-path="url(#SVGID_6_)" fill="#BDECFF" d="M450.784,344.641c-0.1,2.111-1.239,3.907-2.212,3.936
		c-0.973,0.029-1.681-1.712-1.84-3.936c-0.225-3.14,1.265-5.591,2.025-6.671C449.538,339.117,450.93,341.531,450.784,344.641"/>
	<path clip-path="url(#SVGID_6_)" fill="#FFFFFF" d="M450.159,345.037c-0.114,0.751-0.59,1.35-0.938,1.324
		c-0.349-0.027-0.534-0.676-0.509-1.476c0.038-1.13,0.663-1.949,0.976-2.307C449.924,343.018,450.329,343.933,450.159,345.037"/>
	<path clip-path="url(#SVGID_6_)" fill="#BDECFF" d="M372.381,287.519c-0.175,4.634-2.215,8.576-3.953,8.638
		c-1.74,0.063-3.003-3.758-3.287-8.638c-0.402-6.892,2.26-12.271,3.619-14.639C370.156,275.395,372.641,280.691,372.381,287.519"/>
	<path clip-path="url(#SVGID_6_)" fill="#FFFFFF" d="M371.266,288.391c-0.206,1.646-1.055,2.96-1.677,2.902
		c-0.623-0.059-0.957-1.482-0.908-3.238c0.068-2.48,1.184-4.279,1.744-5.062C370.843,283.956,371.569,285.965,371.266,288.391"/>
	<path clip-path="url(#SVGID_6_)" fill="#BDECFF" d="M417.472,367.472c-0.176,4.634-2.216,8.576-3.954,8.639
		c-1.738,0.062-3.003-3.76-3.286-8.639c-0.401-6.89,2.26-12.27,3.62-14.639C415.244,355.348,417.73,360.646,417.472,367.472"/>
	<path clip-path="url(#SVGID_6_)" fill="#FFFFFF" d="M416.355,368.344c-0.204,1.647-1.055,2.96-1.678,2.902
		c-0.623-0.059-0.955-1.482-0.908-3.238c0.068-2.479,1.185-4.278,1.743-5.061C415.934,363.909,416.658,365.918,416.355,368.344"/>
	<path clip-path="url(#SVGID_6_)" fill="#BDECFF" d="M408.467,318.315c-0.176,4.634-2.215,8.576-3.953,8.638
		c-1.738,0.063-3.003-3.759-3.287-8.638c-0.402-6.891,2.261-12.27,3.621-14.639C406.241,306.191,408.727,311.488,408.467,318.315"/>
	<path clip-path="url(#SVGID_6_)" fill="#FFFFFF" d="M407.351,319.187c-0.204,1.646-1.055,2.959-1.676,2.901
		c-0.624-0.058-0.957-1.481-0.909-3.238c0.068-2.479,1.186-4.277,1.744-5.062C406.93,314.752,407.654,316.761,407.351,319.187"/>
	<path clip-path="url(#SVGID_6_)" fill="#BDECFF" d="M284.465,407.025c-0.176,4.634-2.215,8.576-3.954,8.639
		c-1.738,0.063-3.001-3.76-3.286-8.639c-0.4-6.891,2.26-12.27,3.62-14.639C282.239,394.902,284.724,400.2,284.465,407.025"/>
	<path clip-path="url(#SVGID_6_)" fill="#FFFFFF" d="M283.35,407.897c-0.206,1.647-1.056,2.961-1.679,2.902
		c-0.623-0.058-0.957-1.482-0.908-3.238c0.068-2.479,1.186-4.277,1.744-5.061C282.926,403.464,283.652,405.472,283.35,407.897"/>
	<path clip-path="url(#SVGID_6_)" fill="#BDECFF" d="M286.858,367.472c-0.175,4.634-2.215,8.576-3.954,8.639
		c-1.738,0.062-3.003-3.76-3.287-8.639c-0.401-6.89,2.26-12.27,3.621-14.639C284.632,355.348,287.118,360.646,286.858,367.472"/>
	<path clip-path="url(#SVGID_6_)" fill="#FFFFFF" d="M285.744,368.344c-0.206,1.647-1.056,2.96-1.679,2.902
		c-0.623-0.059-0.956-1.482-0.908-3.238c0.069-2.479,1.185-4.278,1.744-5.061C285.321,363.909,286.045,365.918,285.744,368.344"/>
	<path clip-path="url(#SVGID_6_)" fill="#BDECFF" d="M226.07,412.329c-0.176,4.634-2.215,8.576-3.953,8.638
		c-1.739,0.063-3.003-3.758-3.287-8.638c-0.401-6.892,2.259-12.271,3.62-14.639C223.844,400.206,226.329,405.502,226.07,412.329"/>
	<path clip-path="url(#SVGID_6_)" fill="#FFFFFF" d="M224.955,413.201c-0.205,1.647-1.055,2.96-1.678,2.902
		c-0.623-0.059-0.957-1.482-0.909-3.239c0.069-2.479,1.185-4.277,1.744-5.06C224.532,408.768,225.257,410.775,224.955,413.201"/>
	<path clip-path="url(#SVGID_6_)" fill="#BDECFF" d="M204.895,448.038c-0.176,4.635-2.215,8.576-3.953,8.639
		c-1.739,0.063-3.003-3.76-3.287-8.639c-0.401-6.89,2.26-12.27,3.62-14.639C202.668,435.914,205.153,441.213,204.895,448.038"/>
	<path clip-path="url(#SVGID_6_)" fill="#FFFFFF" d="M203.779,448.91c-0.206,1.647-1.055,2.961-1.678,2.902
		c-0.623-0.058-0.957-1.482-0.908-3.238c0.069-2.479,1.185-4.277,1.744-5.061C203.357,444.477,204.081,446.484,203.779,448.91"/>
	<path clip-path="url(#SVGID_6_)" fill="#BDECFF" d="M179.39,501.115c-0.176,4.634-2.214,8.576-3.953,8.639s-3.003-3.76-3.286-8.639
		c-0.402-6.891,2.26-12.271,3.619-14.64C177.164,488.992,179.65,494.289,179.39,501.115"/>
	<path clip-path="url(#SVGID_6_)" fill="#FFFFFF" d="M178.275,501.987c-0.205,1.647-1.055,2.961-1.677,2.902
		c-0.624-0.058-0.957-1.482-0.909-3.238c0.068-2.479,1.185-4.277,1.743-5.062C177.853,497.553,178.578,499.561,178.275,501.987"/>
	<path clip-path="url(#SVGID_6_)" fill="#BDECFF" d="M175.741,453.966c-0.176,4.633-2.215,8.575-3.953,8.638
		c-1.739,0.063-3.003-3.759-3.287-8.638c-0.401-6.892,2.26-12.271,3.62-14.64C173.515,441.843,176,447.14,175.741,453.966"/>
	<path clip-path="url(#SVGID_6_)" fill="#FFFFFF" d="M174.625,454.837c-0.206,1.646-1.055,2.961-1.678,2.902
		c-0.624-0.058-0.957-1.482-0.909-3.237c0.068-2.479,1.185-4.278,1.743-5.062C174.203,450.404,174.928,452.411,174.625,454.837"/>
	<path clip-path="url(#SVGID_6_)" fill="#BDECFF" d="M240.544,432.14c-0.103,2.697-1.29,4.992-2.303,5.028
		c-1.012,0.037-1.748-2.188-1.913-5.028c-0.234-4.014,1.315-7.146,2.107-8.524C239.247,425.08,240.694,428.165,240.544,432.14"/>
	<path clip-path="url(#SVGID_6_)" fill="#FFFFFF" d="M239.894,432.646c-0.12,0.96-0.615,1.724-0.977,1.689
		c-0.363-0.033-0.557-0.863-0.529-1.885c0.042-1.444,0.69-2.49,1.016-2.947C239.648,430.065,240.07,431.233,239.894,432.646"/>
	<path clip-path="url(#SVGID_6_)" fill="#BDECFF" d="M201.252,420.037c-0.102,2.699-1.289,4.994-2.301,5.03
		c-1.012,0.036-1.749-2.188-1.914-5.03c-0.234-4.012,1.315-7.145,2.108-8.523C199.957,412.978,201.403,416.063,201.252,420.037"/>
	<path clip-path="url(#SVGID_6_)" fill="#FFFFFF" d="M200.603,420.545c-0.12,0.959-0.614,1.724-0.978,1.689
		c-0.362-0.033-0.556-0.862-0.528-1.885c0.041-1.443,0.69-2.491,1.015-2.945C200.357,417.965,200.779,419.132,200.603,420.545"/>
	<path clip-path="url(#SVGID_6_)" fill="#BDECFF" d="M194.022,491.171c-0.102,2.697-1.29,4.993-2.302,5.028
		c-1.012,0.038-1.749-2.188-1.914-5.028c-0.234-4.013,1.315-7.145,2.107-8.524C192.727,484.111,194.173,487.196,194.022,491.171"/>
	<path clip-path="url(#SVGID_6_)" fill="#FFFFFF" d="M193.373,491.678c-0.12,0.959-0.614,1.725-0.977,1.69
		c-0.362-0.034-0.557-0.862-0.529-1.885c0.041-1.445,0.689-2.491,1.016-2.947C193.127,489.098,193.549,490.266,193.373,491.678"/>
	<path clip-path="url(#SVGID_6_)" fill="#BDECFF" d="M263.581,417.141c-0.176,4.634-2.215,8.575-3.954,8.638
		s-3.003-3.76-3.287-8.638c-0.401-6.891,2.26-12.271,3.62-14.64C261.354,405.018,263.84,410.314,263.581,417.141"/>
	<path clip-path="url(#SVGID_6_)" fill="#FFFFFF" d="M262.465,418.013c-0.206,1.646-1.055,2.96-1.677,2.901
		c-0.624-0.058-0.957-1.482-0.909-3.238c0.069-2.479,1.185-4.276,1.743-5.061C262.043,413.579,262.769,415.586,262.465,418.013"/>
	<path clip-path="url(#SVGID_6_)" fill="#BDECFF" d="M245.71,398.012c-0.176,4.634-2.214,8.576-3.953,8.639
		c-1.739,0.063-3.003-3.759-3.288-8.639c-0.4-6.892,2.26-12.271,3.621-14.639C243.484,385.889,245.969,391.186,245.71,398.012"/>
	<path clip-path="url(#SVGID_6_)" fill="#FFFFFF" d="M244.595,398.884c-0.206,1.647-1.055,2.96-1.678,2.902
		c-0.624-0.059-0.957-1.482-0.909-3.238c0.068-2.48,1.186-4.278,1.744-5.061C244.172,394.45,244.897,396.458,244.595,398.884"/>
	<path clip-path="url(#SVGID_6_)" fill="#BDECFF" d="M386.859,240.873c-0.175,4.633-2.214,8.575-3.953,8.638
		c-1.739,0.063-3.003-3.759-3.286-8.638c-0.402-6.891,2.26-12.271,3.62-14.64C384.634,228.749,387.119,234.046,386.859,240.873"/>
	<path clip-path="url(#SVGID_6_)" fill="#FFFFFF" d="M385.745,241.745c-0.206,1.646-1.056,2.959-1.677,2.901
		c-0.624-0.058-0.957-1.482-0.909-3.239c0.068-2.479,1.185-4.277,1.744-5.06C385.322,237.311,386.047,239.318,385.745,241.745"/>
	<path clip-path="url(#SVGID_6_)" fill="#BDECFF" d="M312.164,194.646c-0.176,4.633-2.215,8.576-3.954,8.638
		c-1.738,0.062-3.003-3.76-3.286-8.638c-0.402-6.892,2.26-12.271,3.62-14.64C309.938,182.522,312.422,187.819,312.164,194.646"/>
	<path clip-path="url(#SVGID_6_)" fill="#FFFFFF" d="M311.048,195.518c-0.206,1.646-1.055,2.96-1.677,2.902
		c-0.624-0.058-0.957-1.483-0.908-3.238c0.068-2.48,1.184-4.278,1.743-5.062C310.625,191.084,311.351,193.091,311.048,195.518"/>
	<path clip-path="url(#SVGID_6_)" fill="#BDECFF" d="M468.249,271.402c-0.176,4.634-2.215,8.576-3.953,8.639
		c-1.739,0.062-3.003-3.76-3.286-8.639c-0.402-6.891,2.26-12.271,3.619-14.64C466.022,259.279,468.508,264.576,468.249,271.402"/>
	<path clip-path="url(#SVGID_6_)" fill="#FFFFFF" d="M467.134,272.274c-0.205,1.646-1.055,2.96-1.678,2.902
		c-0.624-0.058-0.956-1.482-0.908-3.239c0.068-2.479,1.186-4.277,1.743-5.06C466.711,267.84,467.437,269.848,467.134,272.274"/>
	<path clip-path="url(#SVGID_6_)" fill="#BDECFF" d="M330.964,329.954c-0.177,4.634-2.215,8.576-3.954,8.638
		c-1.739,0.063-3.003-3.759-3.286-8.638c-0.401-6.89,2.26-12.27,3.62-14.64C328.738,317.831,331.224,323.127,330.964,329.954"/>
	<path clip-path="url(#SVGID_6_)" fill="#FFFFFF" d="M329.849,330.827c-0.206,1.646-1.056,2.959-1.678,2.901
		c-0.623-0.058-0.957-1.482-0.908-3.239c0.068-2.48,1.186-4.278,1.744-5.06C329.426,326.393,330.151,328.399,329.849,330.827"/>
	<path clip-path="url(#SVGID_6_)" fill="#BDECFF" d="M369.284,395.387c-0.175,4.634-2.215,8.576-3.953,8.639
		c-1.74,0.062-3.003-3.76-3.288-8.639c-0.402-6.892,2.26-12.271,3.621-14.64C367.059,383.264,369.543,388.56,369.284,395.387"/>
	<path clip-path="url(#SVGID_6_)" fill="#FFFFFF" d="M368.168,396.258c-0.205,1.647-1.055,2.961-1.678,2.903
		c-0.624-0.059-0.957-1.482-0.908-3.239c0.068-2.479,1.186-4.277,1.743-5.06C367.747,391.825,368.471,393.832,368.168,396.258"/>
	<path clip-path="url(#SVGID_6_)" fill="#BDECFF" d="M434.168,181.715c-0.099,2.111-1.238,3.907-2.213,3.936
		c-0.972,0.028-1.679-1.712-1.838-3.936c-0.226-3.14,1.265-5.592,2.025-6.67C432.923,176.19,434.313,178.605,434.168,181.715"/>
	<path clip-path="url(#SVGID_6_)" fill="#FFFFFF" d="M433.544,182.112c-0.115,0.75-0.591,1.349-0.938,1.321
		c-0.349-0.026-0.536-0.674-0.509-1.475c0.038-1.13,0.663-1.948,0.975-2.307C433.309,180.091,433.713,181.007,433.544,182.112"/>
	<path clip-path="url(#SVGID_6_)" fill="#BDECFF" d="M403.176,175.049c-0.1,2.111-1.239,3.908-2.212,3.936
		c-0.974,0.029-1.681-1.712-1.839-3.936c-0.225-3.14,1.264-5.591,2.025-6.67C401.93,169.525,403.32,171.939,403.176,175.049"/>
	<path clip-path="url(#SVGID_6_)" fill="#FFFFFF" d="M402.551,175.446c-0.115,0.75-0.59,1.35-0.938,1.322
		c-0.349-0.026-0.535-0.674-0.509-1.476c0.039-1.129,0.664-1.949,0.976-2.306C402.315,173.426,402.721,174.341,402.551,175.446"/>
	<path clip-path="url(#SVGID_6_)" fill="#BDECFF" d="M356.658,209.83c-0.099,2.111-1.239,3.907-2.212,3.937
		c-0.973,0.029-1.681-1.713-1.838-3.937c-0.225-3.14,1.263-5.59,2.024-6.67C355.412,204.307,356.803,206.72,356.658,209.83"/>
	<path clip-path="url(#SVGID_6_)" fill="#FFFFFF" d="M356.033,210.228c-0.114,0.751-0.59,1.35-0.938,1.323
		c-0.349-0.026-0.535-0.675-0.508-1.476c0.039-1.129,0.664-1.948,0.975-2.306C355.797,208.208,356.203,209.122,356.033,210.228"/>
	<path clip-path="url(#SVGID_6_)" fill="#BDECFF" d="M331.406,202.368c-0.099,2.111-1.238,3.907-2.211,3.936
		c-0.973,0.028-1.681-1.713-1.839-3.936c-0.225-3.14,1.264-5.591,2.025-6.67C330.162,196.845,331.552,199.258,331.406,202.368"/>
	<path clip-path="url(#SVGID_6_)" fill="#FFFFFF" d="M330.783,202.766c-0.114,0.75-0.59,1.348-0.938,1.322
		c-0.349-0.027-0.537-0.676-0.509-1.476c0.039-1.129,0.664-1.948,0.976-2.305C330.547,200.746,330.953,201.66,330.783,202.766"/>
	<path clip-path="url(#SVGID_6_)" fill-rule="evenodd" clip-rule="evenodd" fill="#F67444" d="M321.277,111.558
		c-2.674,5.761-5.475,10.245-7.667,13.41c-4.342,6.271-11.766,16.867-24.53,21.785c-3.395,1.309-8.913,3.435-11.493,1.03
		c-1.531-1.428-1.678-4.126,0.171-11.665c3.108-12.665,4.712-18.984,8.748-22.815C294.164,106.035,308.122,105.672,321.277,111.558"
		/>
</g>
</svg>
