<?xml version="1.0" encoding="utf-8"?>
<!-- Generator: Adobe Illustrator 26.0.1, SVG Export Plug-In . SVG Version: 6.00 Build 0)  -->
<svg version="1.1" id="Layer_1" xmlns="http://www.w3.org/2000/svg" xmlns:xlink="http://www.w3.org/1999/xlink" x="0px" y="0px"
	 viewBox="0 0 664 598" style="enable-background:new 0 0 664 598;" xml:space="preserve">
<style type="text/css">
	.st0{clip-path:url(#SVGID_00000172421317040183914730000009638161804796401078_);}
	.st1{clip-path:url(#SVGID_00000147211151326369693160000002207309536629342110_);fill:#F2D7B9;}
	.st2{clip-path:url(#SVGID_00000147211151326369693160000002207309536629342110_);}
	.st3{fill:#D5B792;}
	.st4{fill:#E5C49D;}
	.st5{fill:none;stroke:#FFFFFF;stroke-width:1.5985;stroke-miterlimit:10;}
	.st6{fill:#DBDBDB;}
	.st7{fill:#FFFFFF;}
	.st8{fill:#FCA170;}
	.st9{fill:#C47947;}
	.st10{fill:#CE2026;}
	.st11{opacity:0.24;fill:#BDB3AD;}
	.st12{fill:#BDB3AD;}
	.st13{fill:#17140C;}
	.st14{fill:#8C6434;}
	.st15{fill:#A07240;}
	.st16{fill:#3B2314;}
	.st17{fill:#D38E5B;}
	.st18{fill:#D6905C;}
	.st19{fill:#E09A61;}
	.st20{fill:#DC2428;}
	.st21{fill:none;stroke:#E2DCDC;stroke-width:3.3926;stroke-miterlimit:10;}
	.st22{fill:none;}
	.st23{fill:#8A5D3B;}
	.st24{fill:#EFEFEF;}
</style>
<g>
	<defs>
		<path id="SVGID_1_" d="M25.5,435.2c28.9,63.4,109.6,81.3,164.3,94.6c49.4,12,91.1,7.4,133,7.8c131.8,1.5,230.4-16.1,277.9-84.8
			c64.1-92.7-4.1-242.2-65.9-317.7c-24.8-30.3-83.3-101.7-178.8-109c-4.4-0.3-89.6-5.6-158.4,49.5c-11.1,8.9-32.5,36.9-74.9,92.6
			c-45.3,59.5-68.1,89.5-74.9,103.6C31.9,304.6-2.1,374.6,25.5,435.2z"/>
	</defs>
	<clipPath id="SVGID_00000139270372145669521770000012604850755017191329_">
		<use xlink:href="#SVGID_1_"  style="overflow:visible;"/>
	</clipPath>
	<g style="clip-path:url(#SVGID_00000139270372145669521770000012604850755017191329_);">
		<g>
			<defs>
				<path id="SVGID_00000181775729231229779220000013040199306236875165_" d="M583.9,223.7c-11.3-20.2-24.6-37.9-38.3-53
					c-0.1,0.2-0.3,0.5-0.4,0.7c0.1-0.2,0.3-0.5,0.4-0.7c-2.5-2.8-50.3-43.1-50.3-43.1l0,0c-1.3-1-2.7-2.1-4-3.2
					c-38.2-32-67.2-90-173.2-81.2c-49.4,4.1-81.8,24.2-104.8,51.2c-7,8.1-13.1,17-18.7,26.3c-17,28.4-28.3,61.1-39.8,89.6
					c-15.2,37.6-69.7,43.6-89.3,87.2c-17.9,20.5-27.2,53.1-31.9,76.7c-3.4,16.9-4.3,29.3-4.3,29.3C24,522.2,130.5,613,240.5,645.9
					c24.6,7.4,49.4,11.8,73.1,13c11.2,0.6,22.2,0.4,32.8-0.5c2.1-0.2,4.3-0.4,6.5-0.7c1.5-0.2,3-0.3,4.5-0.5
					c1.3-0.2,2.5-0.3,3.8-0.5c0.7-0.1,1.4-0.2,2.1-0.3c0.7-0.1,1.3-0.2,2-0.3c35.6-5.5,75.5-17.9,112.1-37c0.2-0.1,0.4-0.2,0.5-0.3
					c59-31,109.4-79.3,119-143.9c1.3-9,12.9-36.6,16.7-76.1C621,321.1,599.4,258.6,583.9,223.7z M501.8,177.4c0,0,0.1,0.1,0.1,0.1
					C501.8,177.5,501.8,177.4,501.8,177.4z"/>
			</defs>
			<clipPath id="SVGID_00000112597924471094644540000012379520010676443561_">
				<use xlink:href="#SVGID_00000181775729231229779220000013040199306236875165_"  style="overflow:visible;"/>
			</clipPath>
			<path style="clip-path:url(#SVGID_00000112597924471094644540000012379520010676443561_);fill:#F2D7B9;" d="M583.9,223.7
				c-11.3-20.2-24.6-37.9-38.3-53c-2.5-2.8-50.3-43.1-50.3-43.1c-1.3-1-2.7-2.1-4-3.2c-38.2-32-67.2-90-173.2-81.2
				c-49.4,4.1-81.8,24.2-104.8,51.2c-7,8.1-13.1,17-18.7,26.3c-17,28.4-28.3,61.1-39.8,89.6c-15.2,37.6-69.7,43.6-89.3,87.2
				c-17.9,20.5-27.2,53.1-31.9,76.7c-3.4,16.9-4.3,29.3-4.3,29.3C24,522.2,130.5,613,240.5,645.9c24.6,7.4,49.4,11.8,73.1,13
				c11.2,0.6,22.2,0.4,32.8-0.5c2.1-0.2,4.3-0.4,6.5-0.7c1.5-0.2,3-0.3,4.5-0.5c1.3-0.2,2.5-0.3,3.8-0.5c0.7-0.1,1.4-0.2,2.1-0.3
				c0.7-0.1,1.3-0.2,2-0.3c35.6-5.5,75.5-17.9,112.1-37c0.2-0.1,0.4-0.2,0.5-0.3c59-31,109.4-79.3,119-143.9
				c8.5-42.3,20.3-66.9,20.3-130.1C619.2,303,583.9,223.7,583.9,223.7z"/>
			<g style="clip-path:url(#SVGID_00000112597924471094644540000012379520010676443561_);">
				<g>
					<path class="st3" d="M419.8,287.8H261.7v-106h158.1V287.8z M268.1,281.4h145.2v-93.1H268.1V281.4z"/>
				</g>
				<path class="st3" d="M392.2,272.3l-3.2-13.2h0c-0.1-0.4-1-0.8-2.4-1v-3.8c0,0,0,0,0,0v-2.9h0v-0.7h0v-1.1c0-0.5-0.4-1-1-1
					c-0.5,0-1,0.4-1,1v0.3h-1.3v-0.3c0-0.2,0-0.3-0.1-0.4l0,0l-0.6-6.9l0-0.5l0.4,0l0,0l0.5,0l0.1,0l0,0h0c0.3,0,0.6-0.1,0.7-0.4
					c0.2-0.2,0.3-0.6,0.3-0.9c0-0.2-0.1-0.4-0.2-0.7c-1.5-2.8-2.9-5.8-4.5-8.6l-0.2-0.5c0-0.1-0.1-0.2-0.2-0.2c0,0,0-0.1-0.1-0.1
					c0,0,0,0,0,0c-0.1-0.1-0.3-0.2-0.4-0.3v-2.7h5.5l-1.7-1.9l1.7-1.9h-5.8h-0.4v3.9h0v2.8c-0.1,0.1-0.3,0.2-0.4,0.4l-2.5,4.9
					c-0.2,0-0.4,0-0.6,0H374c-1.4,0-2.7,0.7-3.6,1.7v-2.1v-2.9h0v-0.7h0v-1.1c0-0.5-0.4-1-1-1s-1,0.4-1,1v0.3h-1.3v-0.3
					c0-0.2,0-0.3-0.1-0.4l-0.6-6.9l0-0.5l1,0l0,0l0,0c0.2,0,0.4-0.1,0.5-0.2c0.1-0.1,0.1-0.1,0.2-0.2c0.1-0.2,0.2-0.3,0.2-0.6
					c0.1-0.3,0-0.7-0.1-1c-1.5-2.8-2.9-5.8-4.5-8.6l-0.2-0.5c0-0.1-0.1-0.2-0.2-0.2c0,0,0-0.1-0.1-0.1c0,0,0,0,0,0
					c-0.1-0.1-0.3-0.2-0.4-0.3v-2.7h5.5l-1.7-1.9l1.7-1.9h-5.8h-0.4v3.9h0v2.8c-0.1,0.1-0.3,0.2-0.4,0.4l-4.5,8.8
					c-0.4,0.8,0.1,1.9,0.9,1.9l1,0l0,0.5l-0.7,7.8h-0.9v-0.3c0-0.5-0.4-1-1-1c-0.5,0-1,0.4-1,1v0.3v0.8v0.7h0v3.2v0.5
					c-1.1,0.5-2,1.4-2.5,2.5h-1v-3.3h0v-1h0v-1.7c0-0.8-0.6-1.4-1.4-1.4c-0.8,0-1.4,0.6-1.4,1.4v0.5h-1.8v-0.5
					c0-0.2-0.1-0.5-0.2-0.7l0,0l-0.9-9.9l0-0.5l0-0.1l0.6,0c0,0,0,0,0,0l0.9,0c0.4,0,0.8-0.2,1-0.5c0.2-0.2,0.3-0.5,0.3-0.8
					c0-0.2,0-0.3,0-0.5c0-0.3-0.1-0.6-0.2-0.9c-2.2-4.2-4.3-8.6-6.7-12.6l-0.2-0.4c-0.1-0.1-0.1-0.2-0.2-0.3c0-0.1-0.1-0.1-0.1-0.2
					c0,0,0,0,0,0.1c-0.2-0.2-0.4-0.3-0.6-0.4v-3.8h7.9l-2.5-2.8l2.5-2.8h-8.3h-0.6v5.6h0v4c-0.2,0.1-0.4,0.3-0.5,0.6l-6.5,12.7
					c-0.6,1.2,0.1,2.8,1.3,2.8l1.4,0v0l-0.1,0.7l-1,11.3l0,0h-1.3v-0.5c0-0.8-0.6-1.4-1.4-1.4c-0.8,0-1.4,0.6-1.4,1.4v0.5h0v2.2h0
					v3.3h-1.3c-0.5-1.3-1.7-2.3-3-2.7v-0.6v-2.9h0v-0.7h0v-1.1c0-0.5-0.4-1-1-1s-1,0.4-1,1v0.3h-1.3v-0.3c0-0.2,0-0.3-0.1-0.4
					l-0.6-6.9l0-0.5l1,0c0.8,0,1.3-1.1,0.8-1.9c-1.5-2.8-2.9-5.8-4.5-8.6l-0.2-0.5c0-0.1-0.1-0.2-0.2-0.2c0,0,0-0.1-0.1-0.1
					c0,0,0,0,0,0c-0.1-0.1-0.3-0.2-0.4-0.3v-2.7h5.5l-1.7-1.9l1.7-1.9h-5.8H318v3.9h0v2.8c-0.1,0.1-0.3,0.2-0.4,0.4l-4.5,8.8
					c-0.4,0.8,0.1,1.9,0.9,1.9l1,0l0,0.5l-0.7,7.8h-0.9v-0.3c0-0.5-0.4-1-1-1c-0.5,0-1,0.4-1,1v0.3v0.8v0.7h0v3.2v1.3
					c-0.8-0.7-1.9-1.1-3-1.1h-0.9c-0.4,0-0.8,0.1-1.2,0.2c-0.8-1.5-1.6-3-2.5-4.5l-0.2-0.5c0-0.1-0.1-0.2-0.2-0.2c0,0,0-0.1-0.1-0.1
					c0,0,0,0,0,0c-0.1-0.1-0.3-0.2-0.4-0.3v-2.7h5.5l-1.7-1.9l1.7-1.9h-5.8h-0.4v3.9h0v2.8c-0.1,0.1-0.3,0.2-0.4,0.4l-4.5,8.8
					c-0.4,0.8,0.1,1.9,0.9,1.9l1,0l0,0.1l0,0.3l-0.7,7.8l0,0h-0.9v-0.3c0-0.5-0.4-1-1-1c-0.5,0-1,0.4-1,1v1.1h0v0.7h0v6.9
					c-1,0.2-1.6,0.6-1.7,0.9h0l-3.2,13.2h25.3l0,0h0.1h19.6V272v-12h0c0,0,0,0,0-0.1c0-3.4,2.8-6.2,6.2-6.2c0.6,0,1.2,0.1,1.7,0.2
					c2.6,0.7,4.4,3.1,4.4,5.9V272v0.3h18.8l0,0H392.2z M336.1,239C336.1,239,336.1,239,336.1,239c0-0.1,0-0.1,0.1-0.2
					c0-0.1,0.1-0.2,0.1-0.3c0.1-0.1,0.1-0.3,0.2-0.4c0.2-0.3,0.4-0.6,0.6-0.9c0.1-0.1,0.1-0.2,0.2-0.2l0.1-0.1
					c0.1-0.1,0.1-0.1,0.2-0.2c0.1-0.1,0.2-0.1,0.3-0.2c0.1-0.1,0.2-0.2,0.3-0.2c0,0,0.1,0,0.1,0c0.1-0.1,0.2-0.1,0.3-0.2h0
					c0.5-0.3,1.1-0.5,1.7-0.6c0,0,0.1,0,0.1,0c0.2,0,0.4,0,0.6,0c0.3,0,0.6,0,0.9,0.1c0.3,0,0.5,0.1,0.8,0.2c0,0,0,0,0,0
					c0.3,0.1,0.5,0.2,0.7,0.3h0c0,0,0,0,0,0c0.1,0.1,0.2,0.1,0.3,0.2c0,0,0.1,0.1,0.1,0.1c0.1,0,0.1,0.1,0.2,0.1
					c0.1,0,0.1,0.1,0.2,0.1c0.1,0,0.1,0.1,0.2,0.2c0,0,0,0,0.1,0.1c0.1,0.1,0.2,0.2,0.3,0.3c0,0,0,0,0,0c0.1,0.1,0.2,0.2,0.3,0.3
					c0.1,0.1,0.2,0.2,0.3,0.3c0.1,0.1,0.2,0.2,0.2,0.4c0.1,0.1,0.1,0.3,0.2,0.4c0,0,0,0,0,0h0c0.1,0.2,0.2,0.5,0.3,0.8c0,0,0,0,0,0
					c0.1,0.2,0.1,0.4,0.1,0.6c0,0,0,0.1,0,0.1c0,0,0,0.1,0,0.1c0,0.2,0,0.4,0,0.6c0,0,0,0,0,0v0.9v0.2v0.7v3.6h-1.8l0-0.8
					c0-0.6-0.6-1.1-1.3-1.1h-3c-0.7,0-1.3,0.5-1.3,1.1l0,0.8h-2.9v-4.5c0,0,0,0,0,0v-0.1v-0.8h0c0,0,0,0,0-0.1c0-0.2,0-0.3,0-0.5
					c0-0.1,0-0.3,0.1-0.4c0-0.1,0-0.1,0-0.2c0-0.1,0.1-0.2,0.1-0.3C336.1,239.2,336.1,239.1,336.1,239z M340.6,223.7
					c0.2,0,0.3,0,0.5,0c0.4,0,0.9,0,1.3-0.1c0.8,0.4,1.3,1.3,1.3,2.3v2.8h-5.2v-2.8c0-1,0.5-1.8,1.3-2.3
					C340.1,223.6,340.3,223.7,340.6,223.7z M380.8,244.9v1.9h-1.3h-0.4h-2V245c0,0,0,0,0,0c0-0.4,0.1-0.7,0.3-1h0
					c0.2-0.2,0.4-0.4,0.6-0.6c0.1-0.1,0.2-0.1,0.4-0.1c0.2-0.1,0.3-0.1,0.5-0.1c0,0,0.1,0,0.1,0c0,0,0,0,0.1,0c0,0,0.1,0,0.1,0
					c0.1,0,0.1,0,0.2,0c0,0,0,0,0.1,0c0.1,0,0.2,0.1,0.3,0.1c0,0,0,0,0,0C380.4,243.7,380.8,244.3,380.8,244.9z M302.9,243.1
					c0.1,0,0.2,0,0.3,0c0.1,0,0.1,0,0.2,0c0.1,0,0.2,0,0.3,0.1c0.1,0,0.1,0,0.1,0.1c0.3,0.1,0.5,0.3,0.6,0.6c0.2,0.3,0.3,0.6,0.3,1
					v1.9h-1.1h-0.7h-1.8V245c0,0,0,0,0,0c0-0.7,0.4-1.3,0.9-1.6C302.2,243.2,302.5,243.1,302.9,243.1z M382.6,255.2v0.6v3.3h-3.1
					h-0.4h-3.8v-1.4v-1.9c0,0,0,0,0,0v0v-0.6c0-0.7,0.2-1.4,0.6-1.9h0h0.1l0,0l0,0c0,0,0,0,0,0l0,0c0.3-0.5,0.8-0.9,1.3-1.2h0
					c0.5-0.3,1.1-0.4,1.7-0.4c0.1,0,0.1,0,0.2,0v0.2c0,0,0,0,0,0v0c0.1,0,0.2-0.1,0.4-0.1c0,0,0.1,0,0.1,0c0.4,0.1,0.7,0.2,1.1,0.4
					h0C381.8,252.6,382.6,253.8,382.6,255.2z M301.2,252c0.5-0.3,1.1-0.4,1.7-0.4c0.2,0,0.4,0,0.6,0.1c0,0,0.1,0,0.1,0
					c0.3,0.1,0.7,0.2,1,0.3h0c1.1,0.6,1.9,1.8,1.9,3.2v0.6v3.3h-2.9h-0.7h-3.6v-1.4v-1.9c0,0,0,0,0,0v0v-0.6
					C299.2,253.8,300,252.7,301.2,252L301.2,252z"/>
				<path class="st3" d="M268.1,281.4c2.9-1.4,5.9-2.8,8.9-4.2c5.8-2.6,11.4-5,16.9-7.1c13.9,0.7,27.9,1.3,41.8,2
					c4.1,0,8.2,0,12.3,0c14.7,0.1,29.4,0.2,44.1,0.3c7.4,3.5,14.9,7,22.3,10.5C365.7,282.3,316.9,281.8,268.1,281.4z"/>
			</g>
			<g style="clip-path:url(#SVGID_00000112597924471094644540000012379520010676443561_);">
				<path class="st4" d="M170.5,223.2c0,1.6-1,2.8-2.2,2.8c-1.2,0-2.2-1.3-2.2-2.8s1-2.8,2.2-2.8
					C169.5,220.4,170.5,221.6,170.5,223.2z"/>
				<path class="st4" d="M189.3,228.5c0,1.6-1,2.8-2.2,2.8c-1.2,0-2.2-1.3-2.2-2.8s1-2.8,2.2-2.8
					C188.3,225.7,189.3,226.9,189.3,228.5z"/>
				<path class="st4" d="M251.9,144.4c0,1.6-1,2.8-2.2,2.8c-1.2,0-2.2-1.3-2.2-2.8s1-2.8,2.2-2.8
					C250.9,141.6,251.9,142.9,251.9,144.4z"/>
				<path class="st4" d="M544.1,393.9c0,1.6-1,2.8-2.2,2.8s-2.2-1.3-2.2-2.8s1-2.8,2.2-2.8S544.1,392.4,544.1,393.9z"/>
				<path class="st4" d="M551.7,386.3c0,1.6-1,2.8-2.2,2.8c-1.2,0-2.2-1.3-2.2-2.8c0-1.6,1-2.8,2.2-2.8
					C550.7,383.5,551.7,384.8,551.7,386.3z"/>
				<ellipse class="st4" cx="181.2" cy="214.1" rx="3.6" ry="4.5"/>
				<path class="st4" d="M177.6,381c0,3.2-2.1,5.9-4.7,5.9c-2.6,0-4.7-2.6-4.7-5.9c0-3.2,2.1-5.9,4.7-5.9
					C175.5,375.2,177.6,377.8,177.6,381z"/>
				<path class="st4" d="M440.9,130.6c0,3.2-2.1,5.9-4.7,5.9c-2.6,0-4.7-2.6-4.7-5.9c0-3.2,2.1-5.9,4.7-5.9
					C438.8,124.8,440.9,127.4,440.9,130.6z"/>
				<ellipse class="st5" cx="207.7" cy="111.8" rx="14.9" ry="18.7"/>
				<ellipse class="st4" cx="36.5" cy="430.3" rx="30.4" ry="38.4"/>
			</g>
		</g>
	</g>
	<g style="clip-path:url(#SVGID_00000139270372145669521770000012604850755017191329_);">
		<g>
			<g>
				<g>
					<g>
						<path class="st6" d="M423.7,385.8c-7-1.3-12.1-0.1-15.8,2.5c-5.6,3.9-6.8,10.8-7.4,13.5c-2.6,13.5-10,56-19.4,113.9
							c-10.5,26.8-21,53.5-31.5,80.3c9.7,3.9,19.3,7.8,29,11.7c15.4-32.8,30.8-65.7,46.2-98.5c6-65.3,8.9-97.9,8.9-97.9c0,0,0,0,0,0
							C433.8,411.2,439.1,388.7,423.7,385.8z"/>
					</g>
					<path class="st7" d="M415.4,552.9l118.4-1.3c6.7-48.9,19-163,7.3-168.3c-11.7-5.4-40.6-9-72.3-8.6
						c-24.5,0.3-51.2,5.4-56.2,13.4C408.1,395.2,409.3,525.8,415.4,552.9z"/>
					<path class="st8" d="M492.5,375.2c0,0-3.3,9.8-20.2,10c-16.9,0.2-20.4-9.6-20.4-9.6l-0.5-44.4l40.5-0.5L492.5,375.2z"/>
					<path class="st8" d="M492,330.7l0.5,44.4c0,0-3.3,9.8-20.2,10c-16.9,0.2-20.4-9.6-20.4-9.6l-0.5-44.4L492,330.7z"/>
					<path class="st9" d="M492,330.7l0.3,30.1c-4.2,3.8-8.2,6-11.1,7.4c-7.1,3.4-13,4.1-16.1,4.2c-3.4,0.2-5.3-0.2-6.9-0.8
						c-3.3-1.3-5.4-3.6-6.4-4.9l-0.4-35.4L492,330.7z"/>
					<path class="st10" d="M534.5,546c-7.4,1.9-11.4,3.1-13.7,4.2c-0.5,0.3-1.6,0.6-3.7,1c-2.8,0.5-5.1,0.8-6,0.8
						c-3,0.1-27-0.3-95.7,1.1l0.2,16.6l96.1-1.1c3.4,0,6.7-0.6,9.9-1.5c4.1-1.3,8.3-2.5,12.4-3.8C534.2,557.6,534.4,551.8,534.5,546
						z"/>
					<g>
						<path class="st6" d="M523.2,603.5c5.6,1,25.6,4.5,29.9,5.2c3.7-20.6,18.9-95.5,18.9-95.5S562,399.7,562,399.6
							c-0.9-6.6-11.8-16.2-21.9-15.7c-8.4,0.4-16.5,8.4-21.9,21c-2.6,6.1-3.2,12.9-1.9,19.4c5.7,28.7,11.4,57.3,17.2,86
							C530.1,541.4,526.7,572.4,523.2,603.5z"/>
					</g>
					<g>
						<path class="st10" d="M505.9,369.8c-0.8-0.5-1.8-0.7-3.1-0.3c-4.7,1.4-3.2,0.2-5.2-3c-1.7-2.7-5.2-1.2-5.2-1.2
							s-0.2,8.6-16.3,19.4c-1.6-1.9-3.6-1.1-4.7-0.5c0,0-2.6-2.2-5.1,0.4c-4.8-2.7-11.2-7.8-14.4-17.2c0,0-7.6-1.8-10,2.9
							c-3.8,7.5-10.6,1-9.2,6.9c0,0,9.6,12.8,23.8,13.9c-7.9,5.5-13.2,12.9-9,27.9c5.2,18.2-1.9,33.6-1.9,33.6
							c21.5-6.4,20.7-39.4,20.2-49.1c-0.4-8,3.2-11.4,4.5-12.4c0.4-0.1,0.8-0.3,1.2-0.6c0.6,0.2,1.1,0.3,1.7,0.4
							c0.8,1.7,1.5,5.1-0.7,10.1c-3.5,7.7-15.6,31.1,13,66.8c0,0-9.9-22.9-0.5-41.3c12.1-23.6,4.6-28.9-2.8-35.1
							c10.3,3.1,25.7,4,31.6-15C513.8,376.3,507.9,371,505.9,369.8z"/>
						<g>
							<g>
								<path class="st10" d="M465.5,385.7c0.3-0.4,0.6-0.8,0.8-1.1c-4.8-2.7-11.2-7.8-14.4-17.2c0,0-7.6-1.8-10,2.9
									c-3.8,7.5-10.6,1-9.2,6.9c0,0,9.6,12.8,23.8,13.9c2.2-1.6,5.1-2.6,8.6-2.8c0,0,0.1,0,0.1,0
									C465,387.3,465.1,386.3,465.5,385.7z"/>
								<path class="st10" d="M505.9,369.8c-0.8-0.5-1.8-0.7-3.1-0.3c-4.7,1.4-3.2,0.2-5.2-3c-1.7-2.7-5.2-1.2-5.2-1.2
									s-0.2,8.6-16.3,19.4c0.2,0.2,0.3,0.4,0.5,0.6c0.8,1.4,1,2.5,0.8,3.4c0.2,0,0.3,0,0.4,0c1.8,0.7,3.2,1.5,4.4,2.5
									c10.3,3.1,25.7,4,31.6-15C513.8,376.3,507.9,371,505.9,369.8z"/>
							</g>
							<path class="st11" d="M484.7,394.3c-1.3-2.3-3.6-4.2-6.9-5.5c-0.1,0-0.2,0-0.4,0c-0.4,1.5-2.1,2.2-4.2,2
								c0.8,1.7,1.5,5.1-0.7,10.1c-0.2,0.4-0.4,0.9-0.6,1.4c1.8-2.9,3.4-5.9,3.6-9.3c0-0.7,1.1-0.5,1.2,0c0.5,1.8,1.2,3.4,1.3,5.2
								c0,0.8,0.1,1.7,0.1,2.5c1.1-2.9,0.9-6,0.5-9.2c-0.1-0.5,0.7-0.8,1.1-0.4c2.9,3.2,4.5,7.5,3.5,11.6c-0.8,3.5-2.8,6.5-5,9.4
								C483.6,407.4,485.9,400.8,484.7,394.3z"/>
							<path class="st11" d="M470.3,391c-2.9,1.2-4.6-0.8-5.1-2.7c0,0-0.1,0-0.1,0c-4.1,0.2-7.3,1.6-9.7,3.7
								c-4.1,6.8-4.3,14.9-0.4,22c-1.2-4-2-7.9-1.5-12.1c0.7-4.9,4.2-9,8.7-11.6c0.6-0.3,1.3,0.2,1,0.8c-1.7,3.3-3.2,6.7-3.3,10.3
								c0.4-0.9,0.8-1.8,1.2-2.7c0.9-2,2.3-3.6,3.5-5.3c0.4-0.5,1.6-0.3,1.3,0.4c-1.2,3.8-0.7,7.6,0,11.5c0-0.6,0-1.2-0.1-1.7
								C465.4,395.4,469,392,470.3,391z"/>
							<path class="st12" d="M476.2,384.9c0.1-0.1,0.1-0.2,0.2-0.3c-0.1,0.1-0.2,0.1-0.3,0.2C476.1,384.8,476.2,384.8,476.2,384.9z"
								/>
							<path class="st11" d="M458,389.2c-4.9,1.5-8.2-0.4-13.1-1.7c3.3,1.8,7.3,3.2,11.6,3.6c2.2-1.6,5.1-2.6,8.6-2.8
								c0,0,0.1,0,0.1,0c-0.2-1-0.1-1.9,0.3-2.5c0.3-0.5,0.6-0.8,0.9-1.1c-1.7-0.9-3.4-2-4.7-3c7.2,7.7-5,1.2-7.4-0.3
								c2.1,1.7,4.4,3.2,6.4,5c0.3,0.3,0.1,0.5-0.3,0.5c-6.5-0.9-12.7-4.4-17.5-7.6C448.9,387.5,460.2,388.5,458,389.2z"/>
							<path class="st11" d="M485.1,389.9c-0.5,0-0.6-0.7-0.1-0.8c3.4-1,12-3.5,17.4-12.6c-8.4,9.9-18.1,10.2-20.7,10.9
								c-0.5,0.1-0.8-0.5-0.3-0.7c3.2-1.7,10-3.5,13.3-9.6c-7.2,6-15.8,8.5-17,8.2c-1.2-0.3,1.2-1.8,1.8-2.7c-1,0.7-2.1,1.5-3.2,2.3
								c0.2,0.2,0.3,0.4,0.5,0.6c0.8,1.4,1,2.5,0.8,3.4c0.2,0,0.3,0,0.4,0c1.8,0.7,3.3,1.6,4.5,2.6c8.8,2.7,21.1,3.9,27.8-7.2
								C502.4,393.3,490,390.1,485.1,389.9z"/>
						</g>
					</g>
				</g>
				<g>
					<g>
						<path class="st8" d="M469.4,369.2c-6.8,1-10.5-0.5-11.9-1.1c-2.8-1.3-4.6-3.2-7.4-6.6c-3.1-3.7-7.1-8.9-11.4-15.7
							c-3.1-6.6-2.5-12.6-3.1-20.2c-0.5-5.6-1.2-13.7-1.4-18.8c0,0-1.4-12.9-1.8-16.3c-0.4-3.4,8.2-19.7,9.4-22.2
							c12.4-10.5,39.4-13.1,57.4,1c11.1,9.8,14.2,19.9,15.2,24.3c1.7,7.5,0.8,13.7-1.2,26.1c-1.7,10.5-2.6,16.2-6.5,23
							c-4.4,7.6-9.9,11.9-14.9,15.7C486.7,362.4,479.6,367.7,469.4,369.2z"/>
						<path class="st13" d="M514,253.8c-3.5-3-6.9-4.8-8.1-5.4c-5.9-2.9-9.7-2.8-32.2-3.5c-11.5-0.4-16-0.6-20.6,2.4
							c-2.9,1.9-4.6,4.2-5.5,5.9c-2.3-0.2-6.3-0.1-9.8,2c-4.2,2.5-6.2,9.9-7.1,14.5c-1.1,5.4-1.5,10.4-1.4,14.9
							c0.1,11.1,2.3,18.6,2.9,20.4c0.8,2.6,1.7,4.6,2.3,6.1c-0.2-3.6-0.2-8.1,0.6-13.3c0.7-3.9,1.6-7.3,2.6-10.1
							c0.9,0.5,2.3,1.1,3.9,1.8c0,0,4.9,2.3,9.1,3.4c15.8,4.3,29.8,0.2,35.5-1.8c-2.3-0.1-5.6-0.5-9.3-1.8c-2.4-0.9-4.3-1.9-5.8-2.8
							c2.8,1.2,8.5,3,15.3,1.7c1.5-0.3,2.9-0.7,4.1-1.2c-0.1,2.2,0.1,5.2,1.9,8.3c1.7,2.9,2.7,3.1,4.1,4.4c2.8,2.5,4.4,12.6,1,27.3
							c1.6-0.1,5.1,0,5.9,0.5c4.4,2.6,2.8,7-0.7,17.7c-0.2,1.3-0.8,3.2-2,5.2c-1,1.6-2,2.6-3.4,3.9c-1.5,1.4-2.8,2.4-3.8,3.1
							c1.2,0.1,2.8,0,4.7-0.6c4.2-1.5,6.3-4.9,6.9-6c4.4-8.9,7-16.3,11.4-27.7c6.4-22.5,10-32.5,9.4-39.7
							C525.2,277.1,525.2,263.5,514,253.8z"/>
					</g>
					<path class="st8" d="M508.6,313.2c5.9-0.8,4.9,9,3.1,12.8c-1.7,3.7-4.2,12.6-8,15.5c-1.5,1.1-3.7,0-3.8-1.9
						C499.6,331.6,500.2,315.1,508.6,313.2z"/>
					<path class="st9" d="M458.4,339.2c1,0.1,2.2,0.2,3.4,0.2c1.7,0,3.2-0.2,4.5-0.4c-1,1.8-2.9,2.8-4.7,2.5
						C459.6,341.2,458.6,339.5,458.4,339.2z"/>
					<path class="st9" d="M459.5,355.5c0.1-0.2,1.2,0.1,3.4,0.2c2.9,0,4.4-0.6,4.5-0.4c0.1,0.3-2,1.6-4.5,1.5
						C461.1,356.7,459.5,355.7,459.5,355.5z"/>
					<path class="st9" d="M452.3,348.1c0.1-0.9,6-1.2,9.7-1.2c5.3,0,12.2,0.9,12.2,1.9c0,0.9-6,1.9-11.6,1.7
						C457.6,350.2,452.3,348.9,452.3,348.1z"/>
					<path class="st13" d="M452,307.9c-4.8,0.2-7.2,0.3-8.9,0.7c-4.1,1-6,3-6.4,2.5c-0.5-0.5,1.2-3.1,3.6-4.7
						c1.6-1.1,3.2-1.5,4.7-1.7c2.4-0.4,6.2-0.8,11.1-0.7c-0.3,1.3-0.6,2.6-0.9,3.9C454.5,307.8,453.4,307.9,452,307.9z"/>
					<path class="st13" d="M467.5,303.7c-0.1,1.7-0.2,3.4-0.3,5.2c1.1-0.3,2.7-0.7,4.7-0.9c2.5-0.3,5.9-0.7,9.8,0.2
						c1.1,0.3,3,0.9,6.8,2.3c2.9,1,3.7,1.4,3.9,1.1c0.5-0.7-2.3-4.6-6.3-6.8c-4.1-2.3-8.5-2-13-1.8
						C470.7,303.2,468.8,303.4,467.5,303.7z"/>
					<g>
						<path class="st7" d="M469.2,317.9c1.1,0.8,3.2,2.2,6.3,2.7c5,0.7,8.8-1.7,9.8-2.4c-1.7-1.9-3.6-3.3-5.6-4
							c-0.8-0.3-2-0.7-3.5-0.6C472.3,313.7,469.8,317.1,469.2,317.9z"/>
						<path class="st14" d="M471.5,316.3c0,2.2,2.2,4.1,4.4,4.1c2.2,0,4.5-2,4.3-4.3c-0.1-0.8-0.4-1.4-0.9-2c-0.7-0.2-1.3-0.4-2-0.5
							c-0.8,0-1.6,0.1-2.4,0.3c-0.4,0.1-0.8,0.3-1.2,0.4c-0.9,0.4-1.6,0.9-2.1,1.4C471.5,316,471.5,316.1,471.5,316.3z"/>
						<path class="st15" d="M472,316.1c0,1.6,1.5,3.6,3.6,3.7c2.1,0.1,3.6-1.7,3.8-3.1c0.1-0.9-0.2-1.8-0.2-1.8
							c-0.2-0.5-0.4-0.8-0.6-1.1c-0.6-0.2-1.2-0.4-1.8-0.5c-0.7,0-1.4,0.1-2.1,0.3c-0.5,0.2-0.9,0.3-1.1,0.4
							c-0.7,0.4-1.2,0.8-1.6,1.1C472.1,315.5,472,315.8,472,316.1z"/>
						<path d="M477.9,316.7c-0.1,1.4-1.2,2.3-2.5,2.1c-1.2-0.2-2.1-1.4-2-2.7c0.1-1.3,1.2-2.3,2.4-2.1
							C477.1,314.1,478,315.3,477.9,316.7z"/>
						<path class="st7" d="M478.9,315.9c0,0.5-0.5,0.9-1,0.8c-0.5-0.1-0.8-0.5-0.8-1c0-0.5,0.5-0.9,0.9-0.8
							C478.5,314.9,478.9,315.4,478.9,315.9z"/>
						<path class="st16" d="M469.2,317.9c0.7-0.8,2.9-3,6.5-3.5c5.5-0.8,9.3,3.3,9.6,3.7c-3-4.5-8-6.3-11.8-4.8
							C471,314.5,469.7,316.9,469.2,317.9z"/>
					</g>
					<g>
						<path class="st7" d="M456.1,317.9c-0.8,0.6-5.5,4.1-10.9,2.3c-1.6-0.5-2.9-1.4-3.8-2.2c1.2-1.8,2.8-3.1,4.5-3.8
							c1.7-0.7,3.6-0.9,5.4-0.3c0.6,0.2,1.1,0.4,1.2,0.5C454.5,315.3,455.6,317,456.1,317.9z"/>
						<path class="st14" d="M452.2,316.7c0.2,2.4-1.9,4.2-4,4.1c-2-0.1-4.3-1.6-4.1-4.5c0-0.7,0.3-1.4,0.6-2
							c1.7-0.7,3.6-0.9,5.4-0.3c0.4,0.1,0.8,0.3,1.2,0.5C451.8,315.1,452.1,315.8,452.2,316.7z"/>
						<path class="st15" d="M451.4,316.4c0.2,2.2-1.6,3.9-3.4,3.8c-1.8-0.1-3.7-1.5-3.6-4.2c0-0.7,0.2-1.3,0.5-1.8
							c1.5-0.7,3.1-0.8,4.7-0.3c0.4,0.1,0.7,0.3,1,0.4C451.1,314.9,451.4,315.6,451.4,316.4z"/>
						<path d="M445.4,317.1c0.2,1.4,1.3,2.4,2.4,2.2c1.1-0.1,1.9-1.3,1.8-2.7c-0.2-1.4-1.3-2.4-2.4-2.2
							C446,314.5,445.2,315.7,445.4,317.1z"/>
						<path class="st7" d="M448.2,316c0.1,0.5,0.5,0.9,0.9,0.8c0.4,0,0.7-0.5,0.7-1c-0.1-0.5-0.5-0.9-0.9-0.8
							C448.4,315,448.1,315.4,448.2,316z"/>
						<path class="st16" d="M456.1,317.9c-0.4-0.4-3.6-4.1-8.4-3.6c-3.7,0.4-5.8,3-6.3,3.7c0.3-0.8,1.5-3.7,4.3-4.8
							C449.1,311.8,453.5,313.6,456.1,317.9z"/>
					</g>
				</g>
			</g>
		</g>
		<g>
			<g>
				<g>
					<path class="st17" d="M253,435.5c2.7-1.7,6.6-4.5,10.2-9.1c5.4-6.8,5.1-11.3,9.8-18.9c4.4-7.1,9.6-11.2,13.6-14.3
						c4.5-3.5,11.9-9.2,23-11.4c1-0.2,2-0.4,2.8-0.5c1.7-0.2,2.9,1.8,1.7,3.2c-0.9,1-1.9,2-3.2,2.9c-3.4,2.3-5.2,1.7-9.5,4.3
						c-1.5,0.9-4.3,2.7-6.5,6.1c-0.7,1.1-2.7,4.1-3,8.4c-0.1,1.4,0,2.5,0.1,3.3c3.3-2.2,5.7-4.3,7.2-5.8c1.5-1.5,2.4-2.9,4.7-5.2
						c2.5-2.5,4.3-4.2,5.2-3.8c1.1,0.6,0.8,4.2-0.4,7.1c-1.3,3.1-3,3.7-6.3,8.1c-0.6,0.8-1.5,2.2-3.3,4.9c-5.4,8.3-5.6,9.4-7.6,11.4
						c-1.6,1.7-4.3,3.8-8.8,5.3c-0.8,0.8-1.7,1.7-2.5,2.6c-5.1,5.6-8.4,11.6-10.7,16.9C264,445.8,258.5,440.7,253,435.5z"/>
					<path class="st18" d="M275.5,405.5c0-0.1,0-0.6,0.2-1.2c0.7-2.2,3.4-4.3,13.9-16c0.1-0.2,2.6-2.7,7.5-7.7
						c2.8-2.8,5.3-5.3,9.3-7.4c0.1-0.1,0.3-0.1,0.4-0.2c0.7-0.3,1.5,0,1.8,0.7c0.2,0.4,0.3,0.8,0.4,1.2c0.8,3.9-2.4,8.6-7.7,11.9
						c0,0,0,0-0.1,0c0,0,0,0-0.1,0c-8.1,6.5-13.3,16.9-13.3,16.9c-4.7,9.4-4.1,13.5-6.3,13.6C278.9,417.7,274.7,411.3,275.5,405.5z"
						/>
					<path class="st19" d="M270.6,412.6c2.8-7.8,13.7-22.6,15-24c0.6-0.7,1.2-1.5,2-2.6c0,0,3.9-5.7,9.1-9.8
						c0.1-0.1,0.3-0.1,0.5-0.2c0.6-0.3,1.4,0,1.7,0.6c0.3,0.6,0.4,1.1,0.4,1.3c0,2.9-6.8,11.8-7.5,12.8c0,0-2.4,3.1-4.2,6.1
						c-6.7,11.1-1.3,20.4-6.4,25.9c-2,2.2-6.3,4.3-16.1,2.7C266.9,421.1,268.8,416.8,270.6,412.6z"/>
				</g>
			</g>
			<g>
				<g>
					<g>
						<path class="st7" d="M277.9,597.7c-11.3-5.5-61.1-31.3-81-88.3c-9.4-26.8-12.9-48.8-5.1-81.7c2.7-11.4,2.8-23.8,12.2-32.5
							c6.1-5.8,13.3-8,18-9c4.6-0.1,13.6,0.4,22,6.1c1,0.7,3.9,2.7,6.9,6.2c6.6,7.5,8.6,15.8,9.5,19.5c2.9,12.1,7.4,54.1,10.3,110.9
							C273.1,551.8,275.5,574.7,277.9,597.7z"/>
						<path class="st7" d="M257.5,549.6c-0.4,0.4-0.8,0.8-1.2,1.1c-0.6,0.5-1.1,1.1-1.7,1.6c-1.3,1.1-18.4,14.2-25.8,18.1
							c-10.8,5.9-45,16.7-91.8,14.9c0-11.4,0-22.8,0-34.2c-0.1-0.7-0.2-1.5-0.3-2.2c-3.4-25-6.9-50-10.4-75
							c-0.6-1.9-1.3-4.1-1.9-6.5c-3.1-11.7-5.8-28.6-1.6-46.8c0.9-3.7,2-7.5,3.5-11.3c0.2-0.6,0.5-1.2,0.7-1.8
							c0.4-1,0.8-1.9,1.2-2.7c0.3-0.7,0.6-1.3,1-2c0.5-0.9,0.9-1.8,1.3-2.5c0.4-0.8,0.8-1.4,1.1-2c16.3-10.2,32.6-20.3,48.9-30.5
							c12.1,4.1,24.2,8.3,36.3,12.4c4-0.2,8-0.4,12-0.7c2.2,1.8,4.4,3.7,6.7,5.8c6.1,5.9,10.9,11.9,14.5,17.2
							c0.1,2.5,3.2,63.1,6.5,127.5c0.1,1.7,0.2,3.4,0.3,5.1C256.8,535.5,257.5,549.5,257.5,549.6z"/>
						<path d="M258,531c-0.5-0.3-1-0.5-1.5-0.8c-5.4-2.9-10.7-5.9-16.1-8.8c-2.3-22.8-4.5-45.9-6.6-69.4c-1.8-21-3.5-41.8-5-62.3
							c1.1-2.4,2.2-4.8,3.2-7.3c1.1,1,2.2,2,3.4,3.1c6,5.7,10.7,11.6,14.5,17.2C254.8,413.2,259.4,462.3,258,531z"/>
						<path d="M223,520.9c-1.6,0.9-3.1,1.8-4.7,2.7c-35.1,17.3-67.5,23.4-81.7,25.4c-3.4-25-6.9-50-10.4-75
							c-0.6-1.9-1.3-4.1-1.9-6.5c-2.8-22-4.2-34.4-1.6-46.8c0.8-3.7,1.9-7.4,3.5-11.3c0.2-0.6,0.5-1.2,0.7-1.8
							c1.2-2.9,2.5-5.4,3.5-7.3c0.4-0.8,0.8-1.4,1.1-2c16.2-10.4,32.4-20.9,48.6-31.3c5.2,1.3,10.7,2.9,16.5,5
							c7.4,2.6,14.1,5.5,20.1,8.3c0.1,1.9,1.6,35.7,3.1,71.3C221.5,486.3,223,519.2,223,520.9z"/>
						<path class="st20" d="M212.2,589.9c-27.2,1.8-52.6,1.9-75.8,1c0.2-13.2,0.4-26.5,0.6-39.7c31.4,0.5,64.7-0.7,99.6-4.1
							c7-0.7,13.9-1.5,20.7-2.3c0.6,13.5,1.1,27,1.7,40.4C244.2,587.2,228.6,588.8,212.2,589.9z"/>
						<path class="st21" d="M223.7,374.9c1.6,21.5,3,43.4,4.1,65.6c0.8,15.4,1.9,35,2.7,61c0.3,10.1,0.5,18.6,0.6,24.6"/>
						<path class="st7" d="M194.3,351.1c18.1,5.9,30.1,15.3,32.6,22.5c2.6,7.4,0.8,12.7,0.8,12.7c-0.5,1.6-1.2,2.8-1.7,3.5
							c-0.5-3.5-2.5-13.9-11.5-22.8c-10.5-10.3-23.2-11.2-26.3-11.4C190.2,354.1,192.2,352.6,194.3,351.1z"/>
						<g>
							<path class="st22" d="M224.5,384.1"/>
						</g>
						<g>
							<path d="M172.2,310.1c0.8,4.8,2.2,10.2,4.3,16c4,11.1,9.5,19.7,14.2,25.8c10.7,6.6,24.1,7,35,1.3c11.5-6.1,20.6-19.2,18-28.1
								C240.1,312.4,212.1,306.1,172.2,310.1z"/>
							<g>
								<g>
									<g>
										<path class="st19" d="M226.4,388c-3-4-8.4-10.2-16.9-15.2c-10.6-6.2-20.6-7.6-25.9-8c0.7-3.1,1.3-6.7,1.6-10.6
											c0.3-4.2,0.2-8.1-0.1-11.6c-0.2-2.8-0.6-5.3-1.1-7.6c8,2.6,16.4,5,25.1,7.4c1.9,0.5,3.7,1,5.6,1.5c0,0,0.1,0,0.1,0
											c3.8,1,7.6,1.9,11.3,2.8c-0.3,4.2-0.5,8.6-0.6,13.1c0,1.5-0.1,3.1-0.1,4.7C225.4,372.8,225.8,380.7,226.4,388z"/>
										<path class="st9" d="M226,346.7c-0.3,4.2-0.5,8.6-0.6,13.1c-4-0.5-5.9-0.6-6.9-0.6c-0.2,0-1.2,0-2.6,0
											c-0.6,0-1.2,0-1.9-0.1c0,0-0.6,0-1.4-0.1c0,0-1.5-0.1-2.9-0.3c-0.8-0.1-6.9-1.2-14.5-6.5c-2.8-1.9-6.6-5-10.4-9.6
											c0-0.8,0-1.6-0.1-2.4c-0.2-1.9-0.5-3.5-0.9-5c3.1,1.8,6.2,3.7,9.3,5.5c5.4,0.7,10.7,1.4,15.9,2.1c0.7,0.1,1.4,0.3,2.1,0.4
											c0.4,0.1,0.9,0.2,1.3,0.2c0.6,0.1,1.3,0.3,2,0.4c0,0,0.1,0,0.1,0C218.5,344.8,222.3,345.8,226,346.7z"/>
									</g>
									<path class="st19" d="M255.6,309.5c-1.4,6.5-2.5,13.2-3.5,18.8c-0.7,2.9-2.2,7.2-5.2,11.8c-1.3,2-3.7,4.4-8.6,9.5
										c-6,6.2-8.2,7.8-11.1,8.2c-1,0.1-1.3,0.1-5.4-0.2c-6.6-0.6-7.4-0.4-10.5-0.8c-4.8-0.7-8.3-2.6-10.6-3.8
										c-4.4-2.4-6.8-4.9-11.2-9.6c-4.2-4.4-6.3-7.5-7.5-10.2c-0.9-2.1-3-5.4-2.1-13.5c0.6-6.1,1.4-13.3,1.9-20.4
										c-1.2-13,5.6-28.6,11.6-35.4c5.2-4.6,20.4,1.5,31.8,3.5c11.2,2,26.1,1.4,29.4,7.2c1.2,4.2,2.2,9.6,2.5,16
										C257.5,298.1,256.6,304.6,255.6,309.5z"/>
									<g>
										<path class="st7" d="M216,309.5c-1.3,0.6-3.8,1.6-7.1,1.5c-5.4-0.3-9-3.6-9.9-4.5c2.1-1.6,4.5-2.6,6.8-2.9
											c0.9-0.1,2.3-0.3,3.8,0.1C213.6,304.7,215.6,308.6,216,309.5z"/>
										<path class="st23" d="M214,307.4c-0.4,2.3-3.1,3.7-5.4,3.3c-2.4-0.4-4.4-2.9-3.7-5.3c0.2-0.8,0.7-1.4,1.3-1.9
											c0.8-0.1,1.5-0.1,2.2-0.1c0.9,0.2,1.7,0.4,2.4,0.8c0.4,0.2,0.8,0.5,1.2,0.7c0.8,0.6,1.5,1.2,2,1.9
											C214.1,307.1,214.1,307.3,214,307.4z"/>
										<path d="M207.6,307.8c-0.2,1.4,0.8,2.6,2.2,2.7c1.3,0.1,2.5-1,2.6-2.3c0.2-1.3-0.8-2.5-2.1-2.7
											C209,305.4,207.7,306.4,207.6,307.8z"/>
										<path class="st7" d="M207.1,306.5c-0.1,0.5,0.3,1,0.8,1c0.5,0,1-0.4,1-0.9c0.1-0.5-0.3-1-0.8-1
											C207.6,305.6,207.2,306,207.1,306.5z"/>
										<path class="st16" d="M221.1,296.5c-5.4-2.2-12.7-4.2-21.1-4.7c-1.6-0.1-4.4,0.7-5.4,2.7c-0.7,1.4-0.3,3,0.1,3.8
											c1.1-0.5,2.8-1,4.9-1.4c2.7-0.5,5.4-0.4,11.4,0.8c2.7,0.6,6.1,1.4,9.8,2.6c0.1-0.3,0.2-0.7,0.3-1.2
											C221.3,298,221.2,297.1,221.1,296.5z"/>
										<path class="st16" d="M216,309.5c-0.6-0.9-2.4-3.7-6.1-4.9c-5.6-1.9-10.4,1.5-10.9,1.8c4.1-4,9.8-4.8,13.3-2.5
											C214.9,305.7,215.8,308.4,216,309.5z"/>
									</g>
									<g>
										<path class="st7" d="M233.4,312.2c0.8,0.7,5.7,4.9,11.8,3.8c1.8-0.3,3.3-1,4.4-1.7c-1.1-2-2.7-3.5-4.5-4.5
											c-1.8-1-3.8-1.4-5.9-1.1c-0.7,0.1-1.2,0.3-1.4,0.3C235.5,309.8,234.1,311.4,233.4,312.2z"/>
										<path class="st23" d="M237.9,311.5c-0.4,2.4,1.7,4.5,3.9,4.7c2.2,0.2,4.8-1.6,5-4c0.1-0.8-0.1-1.5-0.5-2.1
											c-1.8-1-3.8-1.4-5.9-1.1c-0.5,0.1-0.9,0.2-1.4,0.3C238.5,310,238,310.7,237.9,311.5z"/>
										<path d="M245.6,313.7c-0.3,1.4-1.6,2.2-2.9,1.9c-1.2-0.3-2-1.6-1.6-3c0.3-1.4,1.6-2.2,2.9-1.9
											C245.2,311,245.9,312.3,245.6,313.7z"/>
										<path class="st7" d="M242.5,311.6c-0.1,0.5-0.6,0.8-1.1,0.7c-0.5-0.1-0.7-0.6-0.6-1.1c0.1-0.5,0.6-0.8,1.1-0.7
											C242.4,310.6,242.6,311.1,242.5,311.6z"/>
										<path class="st16" d="M235,298.3c4.8-0.7,10.4-0.7,15.7,0.8c0.9,0.2,2.4,1.4,2.7,3.2c0.2,1.2-0.3,2.3-0.6,2.9
											c-0.6-0.5-1.4-1.3-2.6-1.9c-1.6-0.9-3.3-1.3-7.5-1.5c-2.1-0.1-4.9,0-8.1,0.3c0-0.4-0.1-0.8,0-1.2
											C234.5,299.8,234.8,298.9,235,298.3z"/>
										<path class="st16" d="M233.4,312.2c0.4-0.4,4.4-3.7,9.6-2.5c4,0.9,6.1,3.9,6.5,4.6c-0.3-0.8-1.3-3.9-4.2-5.5
											C241.8,307,236.7,308.3,233.4,312.2z"/>
									</g>
									<path d="M259.7,262.1c-3.8-4.1-14.3-14.2-31.2-17.9c-4.6-1-26.1-5.7-42.6,7.1c-15.8,12.3-21.5,36.3-13.5,59.4
										c1.7,5.9,3.5,10.6,4.8,14.1c1.2,2.9,2.3,5.6,4.3,8.6c1.1,1.6,2.1,2.9,2.9,3.7c-0.4-1.2-0.8-3-1.1-5.2
										c-0.4-3.1-0.4-5.4-0.2-8.1c0.1-2.5,0.3-6.5,0.6-12.1c0.8-0.1,3.3,0.5,3.3-0.3c0.2-8.2,1.7-13.2,3.3-16.5
										c2-4.1,4.2-5.9,6.1-10.9c1.8-4.6,2.2-8.7,2.2-11.5c6.4-2.1,18.4-5.2,33.1-3c9.1,1.4,16.2,4.4,21,6.8
										c-0.7,6.1,0,10.7,0.8,13.8c1.2,4.8,3,8,2.9,13.5c0,2.9-0.5,5.3-1,6.8c1.3-3.8,2.6-8,3.5-12.6
										C261.8,283.9,261.1,271.3,259.7,262.1z"/>
									<g>
										<g>
											<path class="st9" d="M231.4,326.9c0,0.2-0.8,0.7-2.4,1.4c-1.5,0.9-3.2,0.7-4.4-0.4c-1.4-1-2.1-1.6-2.1-1.8
												c0.1-0.2,1.3,0.1,3.7,1.1c0.5,0.1,0.9,0.2,1.4,0.1C230.2,326.8,231.4,326.6,231.4,326.9z"/>
										</g>
									</g>
									<g>
										<path class="st9" d="M224.8,344.2c-5.4-0.6-12.2-2.8-12.1-4.6c0.2-1.8,8-3.4,14.7-1.4c3.4,1,7.5,3.3,7.2,4.7
											C234.3,344.5,228.6,344.6,224.8,344.2z"/>
									</g>
									<g>
										<path class="st9" d="M227.3,347.3c0,0.6-2.5,1.4-4.8,1.1c-2.5-0.3-4.7-1.7-4.5-2.3c0.2-0.6,3.1-0.2,4.8,0
											C224.4,346.3,227.3,346.7,227.3,347.3z"/>
									</g>
								</g>
								<g>
									<path class="st16" d="M229,331.4c-0.4,1.1-0.7,2.2-1.1,3.3c3.5,1.3,6.9,2.5,10.4,3.8C235.1,336.1,232.1,333.7,229,331.4z"
										/>
									<path class="st16" d="M223.9,331.1l-0.4,2.8c-5.2-0.1-10.4-0.2-15.6-0.3C213.2,332.8,218.5,332,223.9,331.1z"/>
								</g>
								<g>
									<path d="M260.3,274.5c-28-2.9-56.5-5.9-85.6-8.9c1.2-9.9,2.3-19.8,3.5-29.7c28.2,3.1,55.8,6.1,83,9
										C261,254.8,260.7,264.7,260.3,274.5z"/>
									<g>
										<path class="st20" d="M125.6,256.9l3.3-8.6c0,0,0.5,0.2,1.5,0.5l0,0c1.1,0.3,2.6,0.8,4.7,1.5l0,0c4.2,1.2,10.4,3,18.4,4.9
											l0,0c15.7,3.8,38.2,8.4,65.7,11.6l0,0c26.1,3,46.8,3.7,79.8,2.6l0,0l0.6,7.8c-33.3,1.5-54.5,1-81-1.9l0,0
											C161.2,269,126,257,125.6,256.9L125.6,256.9z"/>
									</g>
								</g>
								<g>
									<path class="st19" d="M185,301.1c0.1-2.4-2.2-4.6-4.8-4.4c-6.4,0.6-3.9,14.2-2.3,19.5c0.7,2.4,1.1,8.5,6.1,8.1L185,301.1z"
										/>
								</g>
							</g>
						</g>
						<path class="st24" d="M263.9,441.8c1.5,1.6,7.1,8.1,6.4,16.8c-0.2,2.3-0.8,4.2-1.4,5.8c-5.1,9.3-12.8,21.7-23.9,34.9
							c-20.1,23.9-37.9,45.4-59.3,44.3c-27.4-1.3-44.7-36.7-54.4-56.6c-22.7-46.5-8.3-80.4-7.5-82.1c2.4-4.6,5.9-7.6,5.9-7.6
							c5.9-4.9,14.7-7,22.4-5.3c13.9,3,20.8,17.8,26.8,30.5c1.4,3,2.3,5.3,2.6,6c3.9,9.8,9.9,26.8,16.8,54.3
							c7.3-7,13-12.8,16.7-16.7c8.4-8.8,18-16.3,27-24.6c1.6-1.5,4.4-4,8.7-4.7C258.1,435.9,263.4,441.2,263.9,441.8z"/>
						<path class="st24" d="M250.7,437c0-3.6,0.2-7.4,0.6-11.4c0.4-5.1,1.1-9.9,1.8-14.3c14.6,6,22.6,14.7,26.4,19.7
							c3.7,4.8,13.2,17.1,8.6,23.9c-3,4.6-11.4,5.3-20,3.3C262.3,451.1,256.5,444,250.7,437z"/>
					</g>
					<path class="st7" d="M181.7,356.2c13.4,2,22.6,6.8,27.8,10c7.3,4.6,10.2,8.8,11.4,10.5c3.4,5.1,4.6,10,5.1,13.1
						c-4.8-4.1-11.4-8.9-19.7-13.2c-10-5.1-19.2-7.8-26.2-9.3C180.7,363.6,181.2,359.9,181.7,356.2z"/>
				</g>
			</g>
		</g>
	</g>
</g>
</svg>
