<?xml version="1.0" encoding="utf-8"?>
<!-- Generator: Adobe Illustrator 26.0.1, SVG Export Plug-In . SVG Version: 6.00 Build 0)  -->
<svg version="1.1" id="Layer_1" xmlns="http://www.w3.org/2000/svg" xmlns:xlink="http://www.w3.org/1999/xlink" x="0px" y="0px"
	 viewBox="0 0 826 742" style="enable-background:new 0 0 826 742;" xml:space="preserve">
<style type="text/css">
	.st0{clip-path:url(#SVGID_00000013190237602088937490000009113257330008568497_);fill:#F2D7B9;}
	.st1{clip-path:url(#SVGID_00000013190237602088937490000009113257330008568497_);}
	.st2{fill:#D8B182;}
	.st3{clip-path:url(#SVGID_00000013190237602088937490000009113257330008568497_);fill:#9B795A;}
	
		.st4{clip-path:url(#SVGID_00000013190237602088937490000009113257330008568497_);fill:url(#SVGID_00000081631148467870995480000012634650400290372518_);}
	.st5{fill:#DBDBDB;}
	.st6{fill:#BD8F76;}
	.st7{fill:#D49F82;}
	.st8{fill:#E4AB8B;}
	.st9{fill:#FABA97;}
	.st10{fill:#FFFFFF;}
	.st11{fill:#FCA170;}
	.st12{fill:#C47947;}
	.st13{fill:#DC2428;}
	.st14{fill:#CE2026;}
	.st15{opacity:0.24;fill:#BDB3AD;}
	.st16{fill:#BDB3AD;}
	.st17{fill:#17140C;}
	.st18{fill:#8C6434;}
	.st19{fill:#A07240;}
	.st20{fill:#3B2314;}
	.st21{fill:#E09A61;}
	.st22{fill:#8A5D3B;}
	.st23{fill:#E2DCDC;}
	.st24{fill:#BD1F22;}
	.st25{fill:#E5E5E5;}
	.st26{fill:#F4A671;}
	.st27{fill:#DD915E;}
	.st28{fill:#1E1A14;}
	.st29{fill:#921F33;}
	.st30{fill:#CD3735;}
	.st31{fill:#96753B;}
	.st32{fill:#140408;}
</style>
<g>
	<defs>
		<path id="SVGID_1_" d="M793.1,511.6c-0.8,2.8-1.7,5.8-2.7,9c-1.6,4.9-3.3,9.7-5,14.2c-0.2,0.4-0.3,0.8-0.5,1.2
			c-14.1,36.5-54.5,61.2-100,61.2c0,0-339.1,0-493.3,0c-49.8,0-95.2-24-116.8-61.8c-0.2-0.4-0.4-0.7-0.6-1.1
			c-4.3-7.6-8.5-15.5-12.4-23.7c-22.5-47-35.1-101.6,3.8-132.8c77.9-62.5,152.1-6.8,167-74.2c13.7-62.2,65.8-122.6,160.7-103.1
			c121.8,25,108.4,95.8,168.2,90.5C621.2,285.6,723.5,246,742,321c18.5,75-68.2,139.3-13,134C765.4,451.5,811.6,443.8,793.1,511.6z"
			/>
	</defs>
	<clipPath id="SVGID_00000061450898917465286800000000369844809119825295_">
		<use xlink:href="#SVGID_1_"  style="overflow:visible;"/>
	</clipPath>
	<path style="clip-path:url(#SVGID_00000061450898917465286800000000369844809119825295_);fill:#F2D7B9;" d="M793.1,505.4
		c-0.8,2.8-1.7,5.7-2.7,8.8c-1.6,4.8-3.3,9.5-5,13.9c-0.2,0.4-0.3,0.8-0.5,1.2c-14.1,35.8-54.5,59.9-100,59.9c0,0-339.1,0-493.3,0
		c-49.8,0-95.2-23.5-116.8-60.6c-0.2-0.3-0.4-0.7-0.6-1c-4.3-7.4-8.5-15.2-12.4-23.2c-22.5-46-35.1-99.6,3.8-130.2
		c77.9-61.3,152.1-6.7,167-72.8c13.7-61,65.8-120.2,160.7-101.1c121.8,24.5,108.4,93.9,168.2,88.7c59.8-5.2,162.1-44,180.6,29.5
		c18.5,73.5-68.2,136.6-13,131.4C765.4,446.4,811.6,438.9,793.1,505.4z"/>
	<g style="clip-path:url(#SVGID_00000061450898917465286800000000369844809119825295_);">
		<path class="st2" d="M-0.3,626.1c-6.3-9.4-7.1-21.3-0.6-30.8s20.9-15.8,34.2-13.7s23.5,13.2,20.3,23.6
			c-3.2-20.1,15.1-41.3,40.2-46.6s53.7,6,62.8,24.9c-2.9-13,12.5-25.7,29.2-27.2c16.7-1.5,32.9,5.8,43.5,15.9s16.5,22.6,22.3,35
			c3.5-21.2,27.3-39.5,54.3-41.8s54.5,11.5,62.8,31.6c-1.3-19.3,13.8-38.8,36.3-47s50.9-4.4,68.2,9c3.9-16.5,30.1-23.9,51.2-21.9
			c31.5,3,59.9,20.3,71.2,43.5c5.7-19.6,28.8-35.6,54.2-37.5c25.4-1.9,51.2,10.3,60.7,28.8c12.6-16.5,30.6-31.2,53.4-38.1
			c22.8-6.9,50.7-4.6,67.8,8.6c17.1,13.3,19.1,38,1.2,51.2c-14.3,10.6-35.6,11.6-54.8,14.5c-56.7,8.4-112.1,37.3-167.6,26.3
			c-18.2-3.6-35.4-11.5-54.3-11.3c-26.4,0.4-53.3,16.6-77.3,8.3c-9.1-3.1-16.4-9.6-26.2-11.1c-12.8-1.9-24.8,5.1-36.4,9.9
			c-32.2,13.4-73.6,11-102.2-5.9c-44.2,17.5-93.7,26.3-142.8,25.5c-37-0.6-73.6-6.7-110.7-5.6c-13.3,0.4-26.9,1.7-39.9-0.5
			C8,641.7-4.7,635-7.7,624.8"/>
	</g>
	<polygon style="clip-path:url(#SVGID_00000061450898917465286800000000369844809119825295_);fill:#9B795A;" points="784.9,602.6 
		134.6,602.6 200,571.5 719.6,571.5 	"/>
	
		<linearGradient id="SVGID_00000029745312503737351330000017926243433176823959_" gradientUnits="userSpaceOnUse" x1="736.5305" y1="738.8924" x2="736.5305" y2="738.8924">
		<stop  offset="0.4118" style="stop-color:#E3F4FF"/>
		<stop  offset="0.6431" style="stop-color:#E0F3FF"/>
		<stop  offset="0.8143" style="stop-color:#D7EEFF"/>
		<stop  offset="0.966" style="stop-color:#C7E7FF"/>
		<stop  offset="0.9706" style="stop-color:#C6E7FF"/>
	</linearGradient>
	
		<path style="clip-path:url(#SVGID_00000061450898917465286800000000369844809119825295_);fill:url(#SVGID_00000029745312503737351330000017926243433176823959_);" d="
		M736.5,738.9"/>
	<g style="clip-path:url(#SVGID_00000061450898917465286800000000369844809119825295_);">
		<g>
			<path class="st5" d="M614.2,574.4c-13.2,1.9-26.5,3.7-39.7,5.6c-14.8,13.3-29.6,26.5-44.4,39.8c29.9,0,59.9,0,89.8,0
				c4.3-1.5,19.5-7.2,28.3-23c4.4-7.9,5.6-15.4,5.9-20.2C640.7,575.9,627.4,575.1,614.2,574.4z"/>
			<g>
				<g>
					<g>
						<path class="st6" d="M530,617.7c-0.7,0.1-3.3-1.4-4-1.2c0,0-1.5,5.1-1.9,6.9c-0.4,1.9-1.6,5.9-1.6,5.9
							c-0.1,0.3,0.1,0.6,0.4,0.7c0.3,0.2,0.7,0,0.9-0.3c0.2-0.4,2.1-5,2.6-6.5C526.9,621.7,530,617.7,530,617.7z"/>
						<path class="st7" d="M529,617.9c-4.5-0.3-5.9-0.1-7.2,5.4c-1.3,5.4-0.9,7.2-0.9,7.2c-0.1,0.3,0.1,0.7,0.4,0.8
							c0.4,0.2,0.8,0,1-0.4c0,0,0.9-5.2,1.4-6.3C524.2,623.5,529,617.9,529,617.9z"/>
						<path class="st8" d="M518.7,631.8c0.4,0.1,0.8-0.1,1-0.5l1.2-4.4c0.1-0.4,2-3.2,2-3.2c0,0,4.7-5.4,4.7-5.4c-2.8-3-8.6,8-8.6,8
							c-0.2,0.3-0.6,4.2-0.7,4.6C518.1,631.3,518.3,631.7,518.7,631.8z"/>
						<path class="st9" d="M543.2,608.3c0.3,0.6,0.8,3.1-0.3,6.1c-0.5,1.2-2.9,5.1-4.4,7.9c-1.5,2.8-2.1,4.7-2.5,5.9
							c-0.4,1.2-1.2,1.4-1.7,0.7c-0.2-0.2-1.7-2.7,0-6c2.7-5.4-0.4-5.3-0.4-5.3s-4.8-0.6-7.7,1.7c0,0-2.3,2-3.4,3.4
							c-1.1,1.5-5,7.4-5.2,7.8l0,0c-0.2,0.3-0.6,0.5-1,0.3c-0.3-0.2-0.5-0.6-0.3-0.9c0.2-0.4,3.6-7.4,4.6-9c1.1-1.5,5.7-8.1,6-8.6
							c1.6-2.4,5.8-6.7,8.3-7.6c0,0,4.4-12.4,6.7-16.6c0,0,10.2,1.9,11,6.1L543.2,608.3z"/>
					</g>
					<g>
						<path class="st5" d="M581,456.8c-4.7-0.9-8.1-0.1-10.6,1.7c-3.7,2.6-4.6,7.2-4.9,9.1c-1.7,9-6.7,37.6-13,76.4
							c-7.1,18-14.1,35.9-21.2,53.9c6.5,2.6,13,5.2,19.5,7.8c10.3-22,20.7-44.1,31-66.1c4-43.8,6-65.7,6-65.7c0,0,0,0,0,0
							C587.8,473.9,591.3,458.8,581,456.8z"/>
					</g>
					<path class="st10" d="M575.5,569l79.4-0.9c4.5-32.8,12.7-109.4,4.9-113c-7.9-3.6-27.2-6-48.5-5.8c-16.4,0.2-34.3,3.7-37.7,9
						C570.5,463.1,571.4,550.8,575.5,569z"/>
					<path class="st11" d="M627.2,449.7c0,0-2.2,6.6-13.5,6.7c-11.3,0.1-13.7-6.4-13.7-6.4l-0.3-29.8l27.2-0.3L627.2,449.7z"/>
					<path class="st11" d="M626.9,419.9l0.3,29.8c0,0-2.2,6.6-13.5,6.7c-11.3,0.1-13.7-6.4-13.7-6.4l-0.3-29.8L626.9,419.9z"/>
					<path class="st12" d="M626.9,419.9l0.2,20.2c-2.8,2.5-5.5,4.1-7.4,5c-4.7,2.3-8.7,2.7-10.8,2.8c-2.3,0.1-3.6-0.2-4.6-0.6
						c-2.2-0.9-3.6-2.4-4.3-3.3l-0.3-23.8L626.9,419.9z"/>
					<path class="st13" d="M655.4,564.3c-5,1.3-7.7,2.3-9.2,3.1c-0.4,0.2-1.4,0.7-2.8,0.9c-1.9,0.4-3.4,0.1-3.7,0
						c-2-0.3-18.1-0.2-64.2,0.7c0,3.7,0.1,7.4,0.1,11.2c22.6-0.3,45.3-0.5,67.9-0.8c3.9-1.2,7.7-2.3,11.6-3.5
						C655.2,572.1,655.3,568.2,655.4,564.3z"/>
					<g>
						<path class="st6" d="M656.8,625.9c0.5,0.4,3.5,0.8,4,1.3c0,0-1.9,4.9-2.8,6.6c-0.9,1.7-2.5,5.6-2.5,5.6
							c-0.1,0.3-0.4,0.4-0.7,0.3c-0.4-0.1-0.6-0.4-0.5-0.7c0.1-0.4,1.5-5.2,2-6.7C656.8,630.9,656.8,625.9,656.8,625.9z"/>
						<path class="st7" d="M658.3,627.4c3.9,2.4,4.8,3.4,2.5,8.4c-2.4,5.1-3.6,7.7-3.6,7.7c-0.1,0.3-0.5,0.5-0.9,0.4
							c-0.4-0.1-0.7-0.5-0.6-0.9c0,0,1.9-6.7,2.2-7.8C658.2,634,658.3,627.4,658.3,627.4z"/>
						<path class="st8" d="M658.1,645.8c-0.4-0.1-0.6-0.5-0.5-0.9l0,0c0.1-0.4,2-9.3,2-9.3c0,0-0.4-7-0.4-7c4.2-0.8,2,11.3,2,11.3
							c0,0.4-1.9,5.1-2.1,5.5C658.9,645.8,658.5,646,658.1,645.8z"/>
						<path class="st9" d="M652.8,611.6c-0.6,0.3-2.6,2-3.6,5c-0.4,1.2-0.8,5.7-1.4,8.8c-0.6,3.1-1.3,4.9-1.7,6.1
							c-0.4,1.2,0.1,1.8,0.9,1.6c0.2,0,3-1.2,3.7-4.8c1.2-5.8,3.6-4,3.6-4s4.2,2.3,5.2,5.8c0,0,0.6,2.9,0.6,4.7
							c-0.1,1.8-0.6,8.8-0.7,9.2l0,0c-0.1,0.4,0.2,0.7,0.6,0.8c0.4,0.1,0.7-0.2,0.8-0.5c0.1-0.4,1.7-8,1.8-9.8
							c0.1-1.8,0.5-9.7,0.5-10.2c0.2-2.8-0.5-8.6-2-10.8c0,0,4.2-12.4,5-17c0,0-9.5-4.4-12.7-1.5L652.8,611.6z"/>
					</g>
					<g>
						<path class="st5" d="M647.8,602.9c3.8,0.6,17.2,3,20.1,3.5c2.5-13.8,12.7-64.1,12.7-64.1s-6.8-76.2-6.8-76.2
							c-0.6-4.4-7.9-10.8-14.7-10.5c-5.6,0.3-11.1,5.6-14.7,14.1c-1.7,4.1-2.1,8.7-1.2,13c3.8,19.2,7.7,38.5,11.5,57.7
							C652.4,561.2,650.1,582.1,647.8,602.9z"/>
					</g>
					<g>
						<path class="st14" d="M636.2,446.1c-0.5-0.3-1.2-0.5-2.1-0.2c-3.2,0.9-2.1,0.2-3.5-2c-1.1-1.8-3.5-0.8-3.5-0.8
							s-0.1,5.8-10.9,13c-1.1-1.3-2.4-0.7-3.2-0.3c0,0-1.7-1.5-3.4,0.3c-3.2-1.8-7.5-5.3-9.7-11.6c0,0-5.1-1.2-6.7,1.9
							c-2.6,5-7.1,0.7-6.2,4.6c0,0,6.4,8.6,16,9.3c-5.3,3.7-8.9,8.7-6,18.7c3.5,12.2-1.3,22.5-1.3,22.5c14.4-4.3,13.9-26.4,13.5-33
							c-0.3-5.4,2.2-7.7,3-8.3c0.3-0.1,0.5-0.2,0.8-0.4c0.4,0.1,0.8,0.2,1.1,0.2c0.5,1.2,1,3.4-0.5,6.8c-2.3,5.2-10.5,20.9,8.7,44.8
							c0,0-6.6-15.4-0.3-27.7c8.1-15.8,3.1-19.4-1.9-23.5c6.9,2.1,17.3,2.7,21.2-10.1C641.5,450.5,637.5,446.9,636.2,446.1z"/>
						<g>
							<g>
								<path class="st14" d="M609.1,456.8c0.2-0.3,0.4-0.5,0.6-0.7c-3.2-1.8-7.5-5.3-9.7-11.6c0,0-5.1-1.2-6.7,1.9
									c-2.6,5-7.1,0.7-6.2,4.6c0,0,6.4,8.6,16,9.3c1.5-1,3.4-1.7,5.8-1.9c0,0,0,0,0.1,0C608.7,457.8,608.8,457.2,609.1,456.8z"/>
								<path class="st14" d="M636.2,446.1c-0.5-0.3-1.2-0.5-2.1-0.2c-3.2,0.9-2.1,0.2-3.5-2c-1.1-1.8-3.5-0.8-3.5-0.8
									s-0.1,5.8-10.9,13c0.1,0.1,0.2,0.3,0.3,0.4c0.6,0.9,0.7,1.7,0.5,2.3c0.1,0,0.2,0,0.3,0c1.2,0.4,2.2,1,3,1.7
									c6.9,2.1,17.3,2.7,21.2-10.1C641.5,450.5,637.5,446.9,636.2,446.1z"/>
							</g>
							<path class="st15" d="M621.9,462.5c-0.9-1.5-2.4-2.8-4.6-3.7c0,0-0.1,0-0.3,0c-0.3,1-1.4,1.5-2.8,1.3c0.5,1.2,1,3.4-0.5,6.8
								c-0.1,0.3-0.3,0.6-0.4,0.9c1.2-2,2.3-3.9,2.4-6.2c0-0.4,0.7-0.4,0.8,0c0.3,1.2,0.8,2.3,0.8,3.5c0,0.6,0,1.1,0.1,1.7
								c0.7-2,0.6-4,0.3-6.1c0-0.4,0.5-0.6,0.7-0.3c1.9,2.2,3,5,2.4,7.8c-0.6,2.3-1.9,4.4-3.4,6.3
								C621.2,471.3,622.8,466.9,621.9,462.5z"/>
							<path class="st15" d="M612.3,460.3c-2,0.8-3.1-0.5-3.4-1.8c0,0-0.1,0-0.1,0c-2.8,0.2-4.9,1.1-6.5,2.5
								c-2.8,4.5-2.9,10-0.3,14.7c-0.8-2.7-1.4-5.3-1-8.1c0.4-3.3,2.8-6.1,5.8-7.8c0.4-0.2,0.9,0.2,0.7,0.5
								c-1.2,2.2-2.2,4.5-2.2,6.9c0.3-0.6,0.5-1.2,0.8-1.8c0.6-1.3,1.5-2.4,2.4-3.6c0.3-0.4,1-0.2,0.9,0.3c-0.8,2.6-0.5,5.1,0,7.7
								c0-0.4,0-0.8-0.1-1.1C609,463.3,611.4,461,612.3,460.3z"/>
							<path class="st16" d="M616.3,456.2c0-0.1,0.1-0.1,0.1-0.2C616.3,456.1,616.3,456.1,616.3,456.2
								C616.2,456.2,616.2,456.2,616.3,456.2z"/>
							<path class="st15" d="M604,459.1c-3.3,1-5.5-0.3-8.8-1.2c2.2,1.2,4.9,2.2,7.8,2.4c1.5-1,3.4-1.7,5.8-1.9c0,0,0.1,0,0.1,0
								c-0.1-0.6-0.1-1.3,0.2-1.7c0.2-0.3,0.4-0.6,0.6-0.8c-1.1-0.6-2.3-1.3-3.1-2c4.8,5.1-3.3,0.8-5-0.2c1.4,1.1,2.9,2.2,4.3,3.4
								c0.2,0.2,0.1,0.4-0.2,0.3c-4.4-0.6-8.5-2.9-11.7-5.1C597.9,458,605.5,458.6,604,459.1z"/>
							<path class="st15" d="M622.2,459.6c-0.3,0-0.4-0.4-0.1-0.5c2.3-0.6,8.1-2.3,11.6-8.5c-5.6,6.6-12.1,6.8-13.9,7.3
								c-0.3,0.1-0.5-0.3-0.2-0.5c2.1-1.2,6.7-2.3,8.9-6.4c-4.9,4-10.6,5.7-11.4,5.5c-0.8-0.2,0.8-1.2,1.2-1.8
								c-0.7,0.5-1.4,1-2.1,1.5c0.1,0.1,0.2,0.3,0.3,0.4c0.6,0.9,0.7,1.7,0.5,2.3c0.1,0,0.2,0,0.3,0c1.2,0.5,2.2,1.1,3.1,1.8
								c5.9,1.8,14.2,2.6,18.7-4.9C633.9,461.8,625.5,459.7,622.2,459.6z"/>
						</g>
					</g>
				</g>
				<g>
					<g>
						<path class="st11" d="M611.7,445.7c-4.6,0.6-7-0.3-8-0.8c-1.9-0.9-3.1-2.1-5-4.4c-2.1-2.5-4.8-6-7.7-10.5
							c-2.1-4.4-1.6-8.5-2.1-13.5c-0.3-3.8-0.8-9.2-1-12.6c0,0-0.9-8.7-1.2-11c-0.3-2.3,5.5-13.2,6.3-14.9c8.4-7,26.4-8.8,38.5,0.7
							c7.4,6.6,9.5,13.4,10.2,16.3c1.2,5.1,0.5,9.2-0.8,17.5c-1.1,7.1-1.7,10.9-4.3,15.4c-3,5.1-6.7,8-10,10.6
							C623.3,441.1,618.5,444.7,611.7,445.7z"/>
						<path class="st17" d="M641.6,368.2c-2.4-2-4.6-3.2-5.5-3.6c-4-1.9-6.5-1.9-21.6-2.4c-7.7-0.2-10.8-0.4-13.8,1.6
							c-1.9,1.3-3.1,2.8-3.7,4c-1.6-0.1-4.2-0.1-6.6,1.3c-2.8,1.7-4.2,6.6-4.8,9.7c-0.7,3.7-1,7-1,10c0,7.4,1.6,12.5,1.9,13.7
							c0.5,1.7,1.1,3.1,1.5,4.1c-0.2-2.4-0.1-5.5,0.4-8.9c0.4-2.6,1.1-4.9,1.8-6.8c0.6,0.3,1.5,0.7,2.6,1.2c0,0,3.3,1.5,6.1,2.3
							c10.6,2.9,20,0.1,23.8-1.2c-1.6-0.1-3.8-0.3-6.2-1.2c-1.6-0.6-2.9-1.3-3.9-1.9c1.9,0.8,5.7,2,10.3,1.1c1-0.2,2-0.5,2.8-0.8
							c-0.1,1.5,0.1,3.5,1.3,5.5c1.2,2,1.8,2.1,2.7,2.9c1.9,1.7,3,8.4,0.7,18.3c1.1,0,3.4,0,4,0.3c3,1.8,1.9,4.7-0.5,11.9
							c-0.2,0.9-0.5,2.1-1.3,3.5c-0.7,1.1-1.4,1.7-2.3,2.6c-1,0.9-1.9,1.6-2.5,2.1c0.8,0,1.9,0,3.2-0.4c2.8-1,4.2-3.3,4.6-4
							c3-6,4.7-10.9,7.6-18.6c4.3-15.1,6.7-21.8,6.3-26.6C649.2,383.9,649.2,374.8,641.6,368.2z"/>
					</g>
					<path class="st11" d="M638,408.1c3.9-0.5,3.3,6,2.1,8.6c-1.1,2.5-2.8,8.4-5.4,10.4c-1,0.8-2.5,0-2.6-1.3
						C631.9,420.5,632.3,409.4,638,408.1z"/>
					<path class="st12" d="M604.3,425.6c0.7,0.1,1.5,0.1,2.3,0.1c1.1,0,2.1-0.1,3-0.3c-0.7,1.2-1.9,1.9-3.2,1.7
						C605.1,426.9,604.4,425.8,604.3,425.6z"/>
					<path class="st12" d="M605.1,436.5c0-0.1,0.8,0.1,2.3,0.1c1.9,0,3-0.4,3-0.3c0.1,0.2-1.4,1.1-3,1
						C606.1,437.3,605,436.7,605.1,436.5z"/>
					<path class="st12" d="M600.3,431.5c0.1-0.4,1.7-0.3,5.7-0.4c7.3-0.2,9-0.6,9.1-0.2c0.2,0.7-4.5,3.3-9.5,2.7
						C602.8,433.3,600.2,432.1,600.3,431.5z"/>
					<path class="st17" d="M600,404.6c-3.2,0.1-4.8,0.2-6,0.5c-2.8,0.7-4,2-4.3,1.7c-0.3-0.4,0.8-2.1,2.4-3.2c1.1-0.7,2.1-1,3.2-1.2
						c1.6-0.3,4.1-0.6,7.5-0.5c-0.2,0.9-0.4,1.8-0.6,2.6C601.7,404.5,600.9,404.5,600,404.6z"/>
					<path class="st17" d="M610.4,401.7c-0.1,1.2-0.1,2.3-0.2,3.5c0.7-0.2,1.8-0.4,3.1-0.6c1.7-0.2,4-0.5,6.6,0.2
						c0.7,0.2,2,0.6,4.6,1.6c1.9,0.7,2.5,0.9,2.6,0.7c0.3-0.5-1.5-3.1-4.2-4.6c-2.7-1.5-5.7-1.3-8.7-1.2
						C612.6,401.4,611.3,401.6,610.4,401.7z"/>
					<g>
						<path class="st10" d="M611.6,411.3c0.7,0.6,2.2,1.5,4.2,1.8c3.4,0.5,5.9-1.2,6.6-1.6c-1.1-1.3-2.4-2.2-3.8-2.7
							c-0.6-0.2-1.4-0.5-2.3-0.4C613.7,408.5,612,410.8,611.6,411.3z"/>
						<path class="st18" d="M613.1,410.2c0,1.5,1.5,2.7,2.9,2.7c1.5,0,3-1.3,2.9-2.9c-0.1-0.5-0.3-1-0.6-1.3
							c-0.5-0.2-0.9-0.3-1.4-0.3c-0.5,0-1.1,0.1-1.6,0.2c-0.3,0.1-0.6,0.2-0.8,0.3c-0.6,0.3-1.1,0.6-1.4,1
							C613.1,410,613.1,410.1,613.1,410.2z"/>
						<path class="st19" d="M613.4,410.1c0,1.1,1,2.4,2.4,2.5c1.4,0,2.4-1.1,2.6-2.1c0.1-0.6-0.1-1.2-0.1-1.2
							c-0.1-0.3-0.3-0.6-0.4-0.7c-0.4-0.2-0.8-0.3-1.2-0.3c-0.5,0-1,0.1-1.4,0.2c-0.3,0.1-0.6,0.2-0.7,0.3c-0.5,0.2-0.8,0.5-1.1,0.7
							C613.5,409.7,613.4,409.9,613.4,410.1z"/>
						<path d="M617.4,410.5c-0.1,0.9-0.8,1.5-1.7,1.4c-0.8-0.1-1.4-0.9-1.3-1.8c0.1-0.9,0.8-1.5,1.6-1.4
							C616.9,408.7,617.5,409.5,617.4,410.5z"/>
						<path class="st10" d="M618,409.9c0,0.3-0.3,0.6-0.6,0.6c-0.3,0-0.6-0.3-0.5-0.7c0-0.3,0.3-0.6,0.6-0.6
							C617.8,409.3,618.1,409.6,618,409.9z"/>
						<path class="st20" d="M611.6,411.3c0.5-0.5,2-2,4.3-2.3c3.7-0.5,6.2,2.2,6.5,2.5c-2-3-5.4-4.3-7.9-3.2
							C612.7,409,611.9,410.6,611.6,411.3z"/>
					</g>
					<g>
						<path class="st10" d="M602.8,411.3c-0.5,0.4-3.7,2.8-7.3,1.6c-1.1-0.4-1.9-0.9-2.6-1.5c0.8-1.2,1.9-2.1,3-2.6
							c1.2-0.5,2.4-0.6,3.6-0.2c0.4,0.1,0.7,0.3,0.8,0.3C601.7,409.5,602.4,410.6,602.8,411.3z"/>
						<path class="st18" d="M600.2,410.4c0.1,1.6-1.3,2.8-2.7,2.8c-1.4-0.1-2.9-1.1-2.8-3c0-0.5,0.2-1,0.4-1.3
							c1.2-0.5,2.4-0.6,3.6-0.2c0.3,0.1,0.6,0.2,0.8,0.3C599.9,409.4,600.1,409.9,600.2,410.4z"/>
						<path class="st19" d="M599.6,410.2c0.1,1.5-1.1,2.6-2.3,2.5c-1.2-0.1-2.5-1-2.4-2.8c0-0.5,0.1-0.9,0.4-1.2
							c1-0.5,2.1-0.5,3.2-0.2c0.2,0.1,0.5,0.2,0.7,0.3C599.4,409.3,599.6,409.7,599.6,410.2z"/>
						<path d="M595.6,410.7c0.1,0.9,0.8,1.6,1.6,1.5c0.8-0.1,1.3-0.9,1.2-1.8c-0.1-0.9-0.8-1.6-1.6-1.5
							C596,409,595.5,409.8,595.6,410.7z"/>
						<path class="st10" d="M597.4,410c0,0.3,0.3,0.6,0.6,0.6c0.3,0,0.5-0.3,0.4-0.7c0-0.3-0.3-0.6-0.6-0.6
							C597.6,409.3,597.4,409.6,597.4,410z"/>
						<path class="st20" d="M602.8,411.3c-0.2-0.3-2.4-2.8-5.6-2.4c-2.5,0.3-3.9,2-4.3,2.5c0.2-0.5,1-2.5,2.9-3.2
							C598.1,407.2,601.1,408.4,602.8,411.3z"/>
					</g>
				</g>
			</g>
		</g>
		<g>
			<g>
				<g>
					<path d="M361.8,411.6c0.7,2.9,1.8,6.2,3.3,9.7c2.9,6.7,6.6,11.8,9.7,15.4c6.8,3.8,15.1,3.6,21.6-0.4c7-4.3,12.1-13.1,10-18.7
						C403.4,409.6,385.5,407.1,361.8,411.6z"/>
					<g>
						<g>
							<g>
								<path class="st21" d="M374.3,448.6c0.3-2.8,0.5-5.9,0.5-9.3c0-2.2-0.1-4.2-0.2-6.1c-0.1-1.4-0.2-2.7-0.4-4
									c0-0.1,0-0.1,0-0.2c4.4,0.4,9,0.9,13.8,1.5c0.3,0,0.7,0.1,1,0.1c4,0.6,7.8,1.2,11.5,1.8c0.1,0,0.2,0,0.3,0.1
									c-0.1,0.3-0.2,0.6-0.3,1c-0.5,1.6-1,3.9-1.1,6.7c0,1.2,0.1,2.5,0.3,3.9c0.5,3,1.5,5.3,2.4,7
									C392.8,450.3,383.5,449.4,374.3,448.6z"/>
								<path class="st12" d="M400.6,432.5c0,0.3,0,0.7,0,1c-0.5,1.6-1,3.9-1.1,6.7c-0.6,0.2-1.6,0.5-2.7,0.6
									c-2,0.3-3.4,0.1-5.2-0.1c-3.8-0.4-4.6-0.3-5.9-0.5c-1.8-0.3-5.9-1.3-11-7.1c-0.1-1.4-0.2-2.7-0.4-4c5,0.5,9.9,1,14.8,1.5
									C393,431.3,396.9,431.9,400.6,432.5z"/>
							</g>
							<path class="st21" d="M413.2,406.9c-0.6,4.3-0.9,8.6-1.3,12.4c-0.3,1.9-1,4.7-2.7,7.8c-0.7,1.3-2.2,3-5,6.4
								c-3.5,4.2-4.8,5.3-6.6,5.6c-0.6,0.1-0.8,0.1-3.4,0c-4.1-0.1-4.6,0-6.6-0.2c-3-0.3-5.2-1.3-6.7-2c-2.8-1.4-4.4-2.9-7.2-5.6
								c-2.7-2.6-4.1-4.4-5-6c-0.6-1.3-2-3.2-1.9-8.2c0.1-3.8,0.2-8.3,0.1-12.7c-1.3-8,1.9-18,5.2-22.7c2.9-3.2,12.4-0.4,19.6,0.1
								c7.1,0.5,16.6-0.9,19,2.6c1,2.7,2,6.1,2.5,10.2C413.9,399.5,413.6,403.7,413.2,406.9z"/>
							<g>
								<path class="st10" d="M388.9,407.8c-0.8,0.5-2.2,1.3-4.2,1.5c-3.3,0.3-5.7-1.5-6.3-2c1.2-1.2,2.5-2,3.9-2.4
									c0.6-0.2,1.4-0.4,2.3-0.3C387,405,388.5,407.3,388.9,407.8z"/>
								<path class="st22" d="M387.5,406.7c-0.1,1.5-1.6,2.6-3,2.5c-1.5-0.1-2.9-1.5-2.6-3c0.1-0.5,0.3-0.9,0.7-1.3
									c0.5-0.1,0.9-0.2,1.3-0.2c0.5,0,1.1,0.1,1.6,0.3c0.3,0.1,0.5,0.2,0.8,0.3c0.5,0.3,1,0.7,1.3,1
									C387.5,406.5,387.5,406.6,387.5,406.7z"/>
								<path d="M383.2,406.6c0,0.9,0.7,1.6,1.5,1.5c0.8-0.1,1.4-0.8,1.4-1.7c0-0.9-0.7-1.5-1.5-1.5
									C383.9,405,383.2,405.7,383.2,406.6z"/>
								<path class="st10" d="M382.7,406.1c0,0.3,0.3,0.6,0.6,0.6c0.3,0,0.6-0.3,0.6-0.6c0-0.3-0.3-0.6-0.6-0.6
									C382.9,405.5,382.6,405.8,382.7,406.1z"/>
								<path class="st20" d="M391.1,399.6c-3.4-1.1-8-2-13.1-1.9c-0.9,0-2.6,0.6-3.2,2c-0.4,0.9,0,1.9,0.2,2.4
									c0.7-0.3,1.6-0.8,2.9-1.1c1.6-0.4,3.3-0.5,7,0c1.7,0.2,3.8,0.6,6.2,1.1c0.1-0.2,0.1-0.5,0.1-0.8
									C391.2,400.6,391.1,400.1,391.1,399.6z"/>
								<path class="st20" d="M388.9,407.8c-0.4-0.5-1.8-2.1-4.1-2.6c-3.6-0.7-6.2,1.8-6.5,2c2.2-2.8,5.5-3.8,7.9-2.6
									C387.9,405.5,388.6,407.2,388.9,407.8z"/>
							</g>
							<g>
								<path class="st10" d="M399.9,408.2c0.6,0.4,4,2.7,7.8,1.5c1.1-0.4,2-0.9,2.7-1.5c-0.9-1.2-2-2-3.2-2.5
									c-1.2-0.5-2.6-0.6-3.8-0.2c-0.4,0.1-0.8,0.3-0.8,0.3C401,406.5,400.3,407.6,399.9,408.2z"/>
								<path class="st22" d="M402.7,407.3c-0.1,1.5,1.4,2.8,2.9,2.7c1.4-0.1,2.9-1.4,2.9-2.9c0-0.5-0.2-0.9-0.5-1.3
									c-1.2-0.5-2.6-0.6-3.8-0.2c-0.3,0.1-0.6,0.2-0.8,0.3C402.9,406.3,402.7,406.8,402.7,407.3z"/>
								<path d="M407.7,407.4c-0.1,0.9-0.9,1.6-1.7,1.5c-0.8-0.1-1.4-0.9-1.3-1.8c0.1-0.9,0.9-1.6,1.7-1.5
									C407.2,405.8,407.8,406.5,407.7,407.4z"/>
								<path class="st10" d="M405.4,406.9c0,0.3-0.3,0.6-0.6,0.6c-0.3,0-0.5-0.3-0.5-0.7c0-0.3,0.3-0.6,0.6-0.6
									C405.2,406.2,405.4,406.5,405.4,406.9z"/>
								<path class="st20" d="M398.9,399.5c2.9-0.9,6.5-1.5,10-1.2c0.6,0.1,1.7,0.6,2,1.8c0.2,0.8,0.1,1.5-0.1,1.9
									c-0.4-0.3-1-0.7-1.8-1c-1.1-0.4-2.2-0.5-4.9-0.2c-1.3,0.2-3.1,0.5-5.1,1c-0.1-0.2-0.1-0.5-0.1-0.8
									C398.7,400.5,398.8,399.9,398.9,399.5z"/>
								<path class="st20" d="M399.9,408.2c0.2-0.3,2.5-2.7,5.9-2.4c2.6,0.3,4.2,2,4.5,2.4c-0.2-0.5-1.1-2.4-3.1-3.2
									C404.8,404.2,401.7,405.4,399.9,408.2z"/>
							</g>
							<path d="M413.4,376c-2.7-2.4-10-8.1-20.8-9.1c-3.5-0.3-16.4-1.7-25.6,7.6c-10.9,11-7.5,27.4-7.2,28.3
								c0.6,4.5,2,10.9,5.6,17.6c1.7,3.2,3.6,5.8,5.4,8c-0.4-0.9-1-2.2-1.4-3.8c-0.4-1.8-0.5-3.1-0.5-5c0-1.6-0.1-4-0.2-7.5
								c0.5-0.1,2,0.2,2-0.3c-0.3-5.1,0.4-8.3,1.2-10.4c1-2.6,2.2-3.9,3.1-7.1c0.9-3,0.9-5.6,0.8-7.3c3.7-1.8,10.9-4.5,20.2-4.1
								c5.8,0.3,10.5,1.7,13.7,3c-0.1,4,0.6,6.9,1.2,8.9c1,3,2.3,5,2.6,8.6c0.1,1.9-0.1,3.4-0.3,4.4c0.7-2.5,1.2-5.3,1.6-8.3
								C415.9,390,414.8,381.9,413.4,376z"/>
							<g>
								<g>
									<path class="st12" d="M399.3,420.2c0,0.1-0.7,0.4-2.2,1c-1.3,0.6-2.9,0.5-4.2-0.1c-1.4-0.6-2.1-1-2.1-1.1
										c0.1-0.2,1.2,0,3.6,0.6c0.4,0.1,0.9,0.1,1.3,0C398,420.1,399.2,420,399.3,420.2z"/>
								</g>
							</g>
							<g>
								<path class="st12" d="M397.4,429.8c-1.2,0.2-3.1,0.4-5.5,0.1c-2.4-0.3-5.1-1.2-5-1.6c0-0.3,1.6-0.2,6.7-0.2
									c7,0,8.9-0.1,8.9,0.3C402.6,428.7,399.6,429.5,397.4,429.8z"/>
							</g>
							<g>
								<path class="st12" d="M397.3,432.4c0,0.4-1.4,1-2.9,1c-1.6,0-3-0.8-3-1.1c0.1-0.4,1.9-0.3,3-0.3
									C395.4,432,397.3,432,397.3,432.4z"/>
							</g>
						</g>
						<g>
							<polygon class="st20" points="396.1,423.5 396.1,425.3 405.3,425.3 							"/>
							<polygon class="st20" points="394.2,423.5 394.2,425.3 383.2,425.3 							"/>
						</g>
						<g>
							<path d="M414.5,384c-18,0-35.8,0-53.3,0.1c0.2-6.2,0.4-12.3,0.6-18.5c17-0.3,34.2-0.5,51.7-0.8
								C413.8,371.2,414.2,377.6,414.5,384z"/>
							<g>
								<path class="st13" d="M332.8,382l1.5-5.4c0,0,0.3,0.1,0.9,0.2l0,0c0.6,0.1,1.5,0.3,2.7,0.6l0,0c2.4,0.5,6,1.1,10.7,1.7l0,0
									c9.3,1.3,22.7,2.6,39.6,2.7l0,0c16.5,0.1,30-0.8,52-4l0,0l0.8,5.1c-22.2,3.3-36,4.4-52.8,4.3l0,0
									C353.4,387,333,382,332.8,382L332.8,382z"/>
							</g>
						</g>
						<g>
							<path class="st21" d="M368.9,405.4c-0.1-1.5-1.5-2.7-3.1-2.5c-3.8,0.7-1.6,9-0.4,12.2c0.5,1.4,1.1,5.2,4,4.7L368.9,405.4z"/>
						</g>
					</g>
				</g>
				<g>
					<path d="M403.6,627.1c-1,0.3-1.9,0.6-2.9,0.9c3.8,3.4,8.1,7.8,12.2,13.1h-64.3c-1.6-10.6-2.1-19.9-2-29.3
						c0.2-13.4,1.6-24.4,2.7-31.2c8.4-2.4,16.8-4.8,25.1-7.2c8.4,0.5,17,1,25.7,1.3c6.1,0.2,12.1,0.4,18,0.5
						c1.1,2.1,2.7,5.4,4.5,9.4c6.9,15.2,10.5,26.9,11.4,29.7c4.3,12.9,13.1,19.3,21.8,26.7h-38.4
						C413.4,635.8,408.6,631.1,403.6,627.1z"/>
					<g>
						<path class="st12" d="M361.2,456.8c4.6-4.3,17.9-1.6,22.7,3.3L361.2,456.8z"/>
						<path class="st12" d="M413.6,461.5c-3.7-4.7-15.6-4.4-20.3-0.6L413.6,461.5z"/>
					</g>
					<g>
						<g>
							<path class="st10" d="M390,445.5c-1.3-1.5-3.2-2-8.2-2.9c-2.9-0.5-6.5-1.2-10.7-1.8c-0.1,1.9-0.3,3.9-0.4,5.8
								c6.9,1.2,13.8,2.3,20.7,3.5C391.5,448.9,391.4,447.1,390,445.5z"/>
							<path class="st10" d="M392.8,445.9c1.1-1,2.5-1.2,4.6-1.5c1.5-0.2,3.7-0.4,6.5-0.1c0.4,1.9,0.8,3.8,1.3,5.7
								c-4.6,0-9.3,0-13.9,0C391.2,449.5,391.2,447.4,392.8,445.9z"/>
						</g>
						<path class="st10" d="M353.5,557.5c12.4,0.2,24.7,0.4,37,0.6c0.2-36.1,0.4-72.2,0.6-108.4c-6.8-1-13.6-2-20.4-3.1
							c-1,0.3-2,0.6-3,0.9c-7,16.1-13.9,32.2-20.9,48.3C349,516.5,351.3,537,353.5,557.5z"/>
						<path class="st10" d="M458.5,597.4c1.8,3.5,3.6,7,5.4,10.6c3.4,0.1,9.2-0.1,15.6-2.7c8.7-3.5,13.8-9.3,16-12.1
							c-6.9-2.7-13.7-5.4-20.6-8.1c0.1-1.1,0.2-2.7,0.1-4.6c-0.7-19.2-17.6-27.7-25.8-41.3c-19.9-33.1-5.1-76.1-15.4-77.7
							c-1-0.2-2.1,0-3.3,0.6l-10.2,51c-1.5,3.4-11.3,26.8,0.7,51.9C432.5,588.7,454.8,596.2,458.5,597.4z"/>
						<path class="st10" d="M418.8,559c-9.4-0.3-18.8-0.6-28.3-0.9c0.2-36.1,0.4-72.2,0.6-108.4c4.7,0.1,9.4,0.2,14.1,0.3
							c1.6,0.7,3.3,1.5,4.9,2.2c5.2,15.5,10.4,30.9,15.5,46.1C423.3,518.5,421.1,538.8,418.8,559z"/>
						<path class="st23" d="M392.2,558.1c-0.6,0-1.2,0-1.8,0c0.1-35.7,0.3-71.5,0.4-107.2c0.8,0,1.6,0.1,2.4,0.1
							C392.9,486.7,392.6,522.4,392.2,558.1z"/>
					</g>
					<g>
						<path d="M384.4,457.2c0.4,30.3,0.9,60.7,1.3,91c-12,2.4-24,4.8-36,7.2c-2.5-15.8-5-31.9-7.2-48.3c-2.2-16.1-4.3-32-6.1-47.7
							c4.7-2.1,9.7-4.2,15.1-6.3c5.6-2.1,11.1-4,16.2-5.6C373.3,450.8,378.9,454,384.4,457.2z"/>
						<path d="M399.1,456.8c-0.8,30.5-1.7,61.1-2.5,91.6c8.1,1.9,16.1,3.8,24.2,5.7c3.3-30.7,6.5-61.4,9.8-92.1
							c-6.8-3.2-13.7-6.5-20.5-9.7C406.5,453.8,402.8,455.3,399.1,456.8z"/>
					</g>
					<g>
						<path class="st24" d="M393.4,625.3c8.1,36.2,9.1,68,7.9,92.5c-6.3-9.7-13.4-21.9-20.1-36.5c-8.9-19.4-14.5-38.6-17.5-50.4
							c-3.4-13.4-6.8-30.3-8.5-50.1c8.3-0.1,16.6-0.2,24.9-0.3C385,593.7,389.7,608.6,393.4,625.3z"/>
						<path class="st13" d="M422.2,582.6c-24.2-0.6-48.4-1.2-72.8-1.9c1.8-7.9,3.5-15.8,5.3-23.7c21.1,0.6,42.1,1.3,63,1.9
							C419.2,566.8,420.7,574.7,422.2,582.6z"/>
					</g>
				</g>
			</g>
			<path class="st10" d="M362.8,598.7c1.1,3.8,2.3,7.6,3.4,11.3c10.5-2.8,21.1-5.6,31.6-8.4c-5.3-3.2-10.6-6.5-15.9-9.7
				c0.4-1.1,0.8-2.8,1.1-4.9c2.1-17.9-17.6-25-26.8-45.2c-6.5-14.3,1.3-15.2-5.5-55.3c-3.1-18.1-6.2-27-12.4-28.7
				c-5.4-1.5-10.9,3.3-12.6,4.6c-12.7,9.8-12.3,29.1-11.6,51c0.9,28.4,1.1,42.7,10.4,56.9C336.1,587.8,353.6,595.5,362.8,598.7z"/>
		</g>
	</g>
	<g style="clip-path:url(#SVGID_00000061450898917465286800000000369844809119825295_);">
		<g>
			<g>
				<g>
					<g>
						<g>
							<path class="st10" d="M254.5,570.3c3,14.6,13,23.1,16.3,25.8c-2.2,6.2-2.4,11.6-0.1,13c2.2,1.4,6.3-1.3,10.8-4.2
								c4-2.6,6.8-5.2,8.6-7.1c-4.1-2.1-8.2-4.2-12.2-6.2c0.1-7.9-0.1-16.6-1.1-26c-1.5-14.8-4.2-27.8-7.3-38.7
								C268.4,528,249.4,546,254.5,570.3z"/>
							<path class="st25" d="M274.8,613.3c-0.4-12.8-0.9-25.8-1.7-39.2c-0.9-16.2-2.2-32-3.6-47.2c-2.4-4.3-5.1-7.4-7-9.3
								c-5.1-5.1-10.9-8.2-15-9c-3-0.6-5.3-0.9-9.5,0.1c-5.2,1.2-21.3,3.9-25.9,10.6c-1.2,1.7-1.7,3.3-2.8,6.7
								c-1.9,5.8-2.4,11-2.4,14.4c0,0,0,0,0,0c0,0,0,1.5,0,3.1c0,1.2,3.1,32.6,7.3,75.3C234.4,616.9,254.6,615.1,274.8,613.3z"/>
						</g>
						<g>
							<g>
								<path class="st26" d="M237.4,499.9l15.7,0.5l0.1,14.2c-0.3,3.3-0.7,6.5-1,9.8c-1.2-1.6-2.5-3.2-3.7-4.9
									c-0.7-0.9-1.7-2-3.1-3.2c0,0-8.9-4.8-8.9-4.8L237.4,499.9z"/>
								<path class="st27" d="M253.2,509.4l-0.1-7.8c-5.2-1.7-10.4-3.4-15.7-5.2c-0.1,2.6-0.2,5.3-0.3,7.9
									C241.1,507,246.6,509.5,253.2,509.4z"/>
								<path class="st28" d="M245.7,429.7c3,0.3,7.7,0.7,12.6,3.6c12,6.9,15.4,22.6,14.3,33.4c-0.3,2.7-0.8,4.9-1.2,6.3
									c0,0,0,0.1-0.1,0.1c-0.6,1-1.2,1.9-1.9,2.9c-2.2,3.2-4.5,6-6.7,8.4c-9.5-6.8-33.2,7.3-33.2,7.3c-1.2-0.3-3-0.9-4.8-2.1
									c-11.9-7.1-12-25.2-12-29.3c0-5.2,0-11,3.6-17.1c3.5-6,8.5-8.9,10.4-9.9C234.7,428.8,242.4,429.4,245.7,429.7z"/>
								<path class="st26" d="M271.8,476c-0.3-11.3,0.8-12.4,0.2-18.8c-0.3-3.1-1-7.5-3.1-12.8c0-0.1,0.1-0.5,0-0.9
									c-0.8-5.3-18.1-9.9-32.1-5.8c-3.2,1-8.8,3.1-14.6,8.5c-1.3,3.1-2.8,7.8-3.2,13.7c-1,13.2,4.3,23,6.9,27.6
									c3.5,6.2,7.1,12.6,14.7,15.8c4.5,1.9,8.8,2,11.5,1.8c1-0.1,2.7-0.3,4.7-1c6.4-2.2,9.8-7.3,11-9c2.8-4.3,3.5-8.3,3.9-10.6
									C272.1,481.6,271.9,480.1,271.8,476z"/>
								<g>
									<path d="M248.1,469.7c-4.5-0.5-8.8,0.3-13.2,1.5c1.9-1.4,4.1-2.1,6.4-2.6c2.3-0.5,4.6-0.6,7-0.4
										C248.3,468.3,248.1,469.7,248.1,469.7L248.1,469.7z"/>
								</g>
								<g>
									<path d="M260.1,467.9c3.3-0.7,6.8-0.7,10,0.5c-1.7,0-3.3,0-4.9,0.1c-1.6,0.1-3.2,0.4-4.7,0.8L260.1,467.9L260.1,467.9z"/>
								</g>
								<path class="st28" d="M231.4,454.2c0.7,1.8,1.4,4.4,1.4,7.5c-0.1,3.2-1,5.2-1.7,7.8c-0.8,2.9-1.7,7-1.8,12.4
									c-2-0.7-6.1-2.3-9.3-6.3c-0.9-1.1-2.3-4-3.9-9.8c-0.7-2.6-2.9-13.5,2.7-22.9c8.2-13.6,28.4-14.5,40.2-10.9
									c2.4,0.7,4.1,1.2,6.1,2.6c13.2,9.3,7.2,35.8,6.6,38.4c0.1-2,0-4.4-0.3-7.1c-0.6-4.2-1.8-7.6-2.9-10c-0.4,0.2-1.1,0.5-2,0.9
									c-3.9,1.5-15.8,5.4-28.5,0.7C236.3,456.8,234,455.8,231.4,454.2z"/>
								<g>
									<g>
										<path class="st27" d="M256.7,483.7c0.1,1.2-1,2.1-2,2c-0.9-0.1-1.6-0.8-1.7-1.8c0.1,0.1,0.9,0.7,2,0.6
											C256,484.4,256.6,483.8,256.7,483.7z"/>
									</g>
								</g>
								<g>
									<path class="st26" d="M227.1,474.5c-0.8-2.6-3.9-4.4-6-2.8c-3.3,2.5-2.9,8.5-1,11.9c1.2,2,3.9,4.5,5.7,3
										C228.2,484.8,228.7,479.5,227.1,474.5z"/>
								</g>
								<g>
									<path class="st29" d="M254.5,490.3c-3.5,0.1-6.9-1-7.8,0.8c-0.6,1.3,1.1,6.6,7.4,6.4c4.4-0.1,7.4-4,6.9-6.5
										C260.8,489.2,258.3,490.2,254.5,490.3z"/>
									<path class="st30" d="M246.8,492.7c0.5,2,2.6,5,7.4,4.8c2.2-0.1,4-1,5.2-2.3C256.5,491.7,251.1,490.5,246.8,492.7z"/>
									<path class="st10" d="M246.8,491.2c-0.1,0.1-0.1,0.3-0.1,0.5c5,3.1,11.8,2.4,13.1-1.7c-1.2-0.2-3.1,0.2-5.3,0.2
										C251,490.2,247.6,489.3,246.8,491.2z"/>
								</g>
							</g>
							<g>
								<g>
									<path class="st10" d="M247.8,474.5c-0.4,0.6-1.1,1.5-2.3,2.1c-2.1,0.9-4.7,0.3-6.7-1.5c0.5-0.5,1.4-1.4,2.8-2
										c0.8-0.3,2-0.8,3.4-0.5C246.6,473,247.5,474.1,247.8,474.5z"/>
									<path class="st31" d="M245.9,473.4c0.3,0.8,0.2,1.8-0.2,2.3c-0.3,0.4-0.9,0.7-1.4,0.9c0,0,0,0,0,0c0,0-0.6,0.1-1.3-0.1
										c-0.6-0.2-1.8-0.9-1.9-2.1c0-0.7,0.3-1.2,0.3-1.2c0.7-1.1,2.6-1.4,3.7-0.6C245.4,472.8,245.7,473.1,245.9,473.4z"/>
									<path class="st32" d="M245.3,474c0.3,0.7-0.1,1.3-0.2,1.4c-0.3,0.4-0.7,0.6-0.7,0.6c0,0,0,0,0,0c0,0-0.3,0.1-0.7,0
										c-0.2,0-0.8-0.2-1.1-0.8c0-0.1-0.3-0.7,0-1.2c0.4-0.7,1.4-0.9,2.1-0.6C244.7,473.4,245.1,473.6,245.3,474z"/>
									<path class="st10" d="M243.4,473.9c0.1,0.2,0,0.3,0,0.3c-0.1,0.1-0.2,0.1-0.2,0.1c0,0,0,0,0,0c0,0-0.1,0-0.2,0
										c0,0-0.2,0-0.3-0.2c0,0-0.1-0.2,0-0.3c0.1-0.2,0.3-0.2,0.5-0.1C243.3,473.8,243.4,473.8,243.4,473.9z"/>
									<path class="st32" d="M247.8,474.5c-0.2-0.3-1.4-2.4-3.7-2.7c-3.3-0.4-5.5,3.1-5.4,3.2c0.1,0.2,2.1-2,5-2
										C245.4,473,246.8,473.7,247.8,474.5z"/>
								</g>
							</g>
							<g>
								<g>
									<path class="st10" d="M269,473.4c-0.3,0.6-1,1.5-2.2,2.1c-2,0.9-4.4,0.3-6.3-1.5c0.5-0.5,1.3-1.4,2.6-2
										c0.8-0.3,1.9-0.8,3.2-0.5C267.8,471.9,268.7,473,269,473.4z"/>
									<path class="st31" d="M267.1,472.3c0.4,0.9,0.2,1.9-0.2,2.5c-0.3,0.4-0.8,0.7-1.3,0.9c0,0,0,0,0,0c0,0-0.6,0.1-1.2-0.1
										c-0.6-0.2-1.6-0.9-1.7-2c0-0.2-0.1-0.8,0.2-1.3c0.7-1.1,2.4-1.3,3.5-0.6C266.7,471.7,267,472,267.1,472.3z"/>
									<path class="st32" d="M266.6,473c0.3,0.7-0.1,1.3-0.1,1.4c-0.3,0.4-0.7,0.6-0.7,0.6c0,0,0,0,0,0c0,0-0.3,0.1-0.7,0
										c-0.2,0-0.7-0.2-1-0.8c0-0.1-0.3-0.7,0-1.2c0.3-0.7,1.3-0.9,2-0.6C266.1,472.4,266.4,472.6,266.6,473z"/>
									<path class="st10" d="M266.2,472.7c0.1,0.2,0,0.3,0,0.3c-0.1,0.1-0.2,0.1-0.2,0.1c0,0,0,0,0,0c0,0-0.1,0-0.2,0
										c0,0-0.2,0-0.2-0.2c0,0-0.1-0.2,0-0.3c0.1-0.2,0.3-0.2,0.5-0.1C266.1,472.5,266.1,472.6,266.2,472.7z"/>
									<path class="st32" d="M269,473.4c-0.2-0.3-1.3-2.4-3.5-2.7c-3.1-0.4-5.2,3.1-5.1,3.2c0.1,0.2,2-2,4.7-2
										C266.7,472,268,472.7,269,473.4z"/>
								</g>
							</g>
						</g>
					</g>
				</g>
			</g>
			<path class="st14" d="M231.6,510.1c0.1-0.6,1.6-1,1.7-1c1-0.3,1.7,0.1,2.7-0.4c0.4-0.2,0.7-0.4,0.8-0.5c2.5,1.3,5.7,3.3,9,6.4
				c3,2.9,5.2,5.7,6.6,8c0-1.6,0.1-3.3,0.2-5.1c0.1-2.4,0.4-4.7,0.6-6.9c0.2,0,0.6,0,0.9,0.1c0.9,0.3,1,0.8,1.9,1.3
				c0.9,0.5,1.6,0.3,1.9,0.9c0.2,0.3,0.2,0.6,0.1,0.8c-1.5,3.4-3.1,6.7-4.6,10.1c1.1,0.8,3,2.3,4.3,5c1.9,3.7,1.6,7.2,1.4,8.5
				c-0.9-1-1.8-2.2-2.7-3.7c-2.2-3.4-3.2-6.7-3.8-9.2c0.1,1.7,0.2,3.7-0.1,6.1c-0.5,4-1.8,7.1-2.9,9.2c-0.6-1.5-1.4-4.4-1.1-8.2
				c0.4-3.9,1.9-6.7,2.8-8.1c-4.1-4.2-8-6.8-11-8.3C236.3,513.1,231.3,511.3,231.6,510.1z"/>
		</g>
		<path class="st10" d="M212.8,517c-4.7,0.6-9.8,9.9-8.2,23.2c3.2,23.2,6.3,46.4,9.5,69.6c-0.3,0.8-3.2,8.7,0,11.6
			c2.9,2.7,9.5-0.3,14.8-2.6c4.5-2,7.9-4.4,10-6.1c-4.3-3-8.6-6-12.9-9c1.1-7.5,2-15.7,2.4-24.5c0.8-17.9-0.5-33.8-2.6-47.2
			C222.7,522.7,217,516.4,212.8,517z"/>
	</g>
</g>
</svg>
