<?xml version="1.0" encoding="utf-8"?>
<!-- Generator: Adobe Illustrator 26.0.1, SVG Export Plug-In . SVG Version: 6.00 Build 0)  -->
<svg version="1.1" id="Layer_1" xmlns="http://www.w3.org/2000/svg" xmlns:xlink="http://www.w3.org/1999/xlink" x="0px" y="0px"
	 viewBox="0 0 826 742" style="enable-background:new 0 0 826 742;" xml:space="preserve">
<style type="text/css">
	.st0{fill:#FFE6C7;}
	.st1{fill:#E5C49D;}
	.st2{fill:#D8B182;}
	.st3{fill:#A3A3A3;}
	.st4{fill:#FFFFFF;}
	.st5{fill:#5F7BB7;}
	.st6{clip-path:url(#SVGID_00000147929047670114199250000001203174935373140370_);}
	.st7{fill:#E09A61;}
	.st8{fill:#C47947;}
	.st9{fill:#4D4D4D;}
	.st10{fill:#8A5D3B;}
	.st11{fill:#3B2314;}
	.st12{fill:#DC2428;}
	.st13{fill:#BD1F22;}
	.st14{fill:#E2DCDC;}
	.st15{fill:#474747;}
	.st16{fill:#999999;}
	.st17{fill:none;}
	.st18{fill:#38393A;}
	.st19{fill:#262728;}
	.st20{fill:#828282;}
	.st21{fill:#EF6A0F;}
	.st22{opacity:0.23;fill:#262728;}
	.st23{fill:#4F5051;}
	.st24{fill:#393A3B;}
	.st25{fill:#65657C;}
	.st26{fill:#272829;}
	.st27{fill:#4D4D62;}
	.st28{fill:#19191A;}
	.st29{fill:#242463;}
	.st30{fill:#37374A;}
	.st31{fill:#F4EAC1;}
	.st32{fill:#1C1C65;}
	.st33{fill:#EBDA9B;}
	.st34{fill:#CFBCA9;}
	.st35{fill:#BFA892;}
	.st36{fill:#35357D;}
	.st37{fill:#C7B29E;}
	.st38{fill:#2F3031;}
	.st39{fill:#FAD4AF;}
	.st40{fill:#EFB78E;}
	.st41{opacity:0.35;fill:#7F7F7D;}
	.st42{opacity:0.25;fill:url(#SVGID_00000007402118161867317320000005756172157473356969_);}
	.st43{fill:#4C6580;}
</style>
<g>
	<g>
		<path class="st0" d="M753.3,452.8c-1.9,12.7-8,32.6-22.7,50c-2.5,3-5.2,5.9-8,8.6c-10.4,10.1-22.6,18.4-35.5,24.3
			c-0.1,0.3-0.3,0.5-0.4,0.8c-3.2,6.8-6.8,13.4-10.5,19.9c-5.8,10-12.2,19.6-19.1,28.8c-53.7,71.2-138.8,114.2-229.7,113.1
			c-86.2-1-166.2-41.5-218.7-107.6c-13.1-16.5-24.5-34.6-33.9-54.1c-0.1-0.3-0.3-0.5-0.4-0.8c-0.3-0.1-0.7-0.2-1.1-0.4
			c-2.3-0.8-5-1.8-7.8-3.1c-5.7-2.5-12.3-6-19.2-11c-8.5-6.1-16.1-13.5-22.5-22.6C85.2,450,83.4,408.4,84,391.6
			c2.5-70.2,49.9-140.2,101.5-154.6c3.3-0.9,13.7-3.6,52.7-14c30.7-8.2,46.2-12.6,53.9-23.8c8.5-12.3,5.1-25.2,4.8-39.1
			c-1.1-48.8,36.9-97,75.6-123.3c2.2-1.5,49.4-32.4,96.8-17.2c47.5,15.2,42,59.5,99,91.8c10.6,6,19.8,9.5,28.1,11.6
			c26.1,6.7,36.2,3,51.7,8.3c27.7,9.5,40.4,40.4,41.6,43.3c16.5,41.7-26.1,62.8-24.7,112.4C667.1,360.6,763.1,386.7,753.3,452.8z"/>
		<g>
			<path class="st1" d="M722.6,511.4c-10.4,10.1-22.6,18.4-35.5,24.3c-0.1,0.3-0.3,0.5-0.4,0.8c-3.2,6.8-6.8,13.4-10.5,19.9
				c-5.8,10-12.2,19.6-19.1,28.8c-20.7,3.5-42.4,3.7-63.5,3.8c-128.3,0.5-256.6,1.1-384.9,1.7c-13.1-16.5-24.5-34.6-33.9-54.1
				c-0.1-0.3-0.3-0.5-0.4-0.8c-0.3-0.1-0.7-0.2-1.1-0.4c-2.3-0.8-5-1.8-7.8-3.1c1.9-4.4,5-8.2,9-10.9c8.4-5.6,20.2-5.6,28.6,0.1
				c-1.5-7.8,4.2-16.3,11.9-17.9c7.8-1.7,16.4,3.8,18.2,11.5c5.8-13.9,21.1-23.3,36.1-22c15,1.2,28.6,12.9,32.1,27.6
				c-2.2-16.7,12.1-33.5,28.9-34.6c16.8-1.1,32.9,13.3,34.3,30c4.9-12.4,16.4-21.9,29.4-24.4c13.1-2.5,27.3,2.1,36.4,11.7
				c3.2-14,15.2-25.6,29.4-28.3c14.2-2.6,29.6,3.9,37.5,15.9c5.2-15.3,21.1-26.2,37.2-25.4c16.1,0.7,31,13.1,34.7,28.7
				c9-11.4,24.5-17.4,38.9-15c14.4,2.4,27.1,13,32,26.8c6.7-9.4,18.3-15.1,29.8-14.7c11.5,0.4,22.7,7,28.6,16.9
				C706.1,503.9,715.9,505.8,722.6,511.4z"/>
		</g>
		<g>
			<path class="st2" d="M686.6,536.5c-3.2,6.8-6.8,13.4-10.5,19.9c-51.1,88.2-146.2,143-248.8,141.8
				c-107.7-1.3-205.8-64.2-252.5-161.7H686.6z"/>
		</g>
		<g>
			<g>
				<path class="st3" d="M185.9,526.1c0.2,0.4,0.4,0.7,0.6,1.1c-0.1,0-0.2,0-0.3,0L185.9,526.1z"/>
			</g>
			<g>
				<g>
					<path class="st4" d="M271.4,410.1c0.9-9.3-11.1-13.8-18.9-26.4c-3.9-6.3-7.7-16.2-6.7-31.7c-10.2-14.8-9.3-36.3,2-50.3
						c11.4-13.9,32.2-19.1,48.8-12.1c-1.6-23.1-1.3-50.1,17.1-64.1c6.5-4.9,14.5-7.5,21.2-12.2c11.5-7.9,18-21.2,28-30.9
						c12.6-12.2,30.9-18.3,48.3-16.2s33.7,12.5,42.9,27.5c37.5-8.1,53-1.9,59.9,6.4c5.9,7.1,3.1,12.9,9.9,20.2
						c13.2,14.1,32.1,1.5,50,12.6c18.1,11.2,25,40.1,21.2,60.9c-3.9,21-17.1,24.4-15,40.3c2.1,16.3,16.5,16.8,22.7,38.4
						c0.8,2.9,7,25.6-4.4,38.1c-6.6,7.3-12.6,3.9-20.7,11.5c-10.6,10-6.4,21.5-13,32.3c-10.1,16.6-37.4,16.5-54,17.7
						c-31.6,2.3-61.5-14.7-93.1-17.9c-16-1.6-32.1,0.3-48.2-0.1c-12.7-0.3-38.5-6.9-89.7-19.5c-4.1-1-14.4-3.7-15.6-9.6
						C263.3,419.7,270.7,417.2,271.4,410.1z"/>
				</g>
				<g>
					<rect x="282.7" y="414.5" class="st5" width="289.9" height="88.1"/>
					<path class="st5" d="M282.7,327.6v88.1h48.3v-88.1H282.7z M289.2,332.4h35.3v78.4h-35.3V332.4z"/>
					<path class="st5" d="M331.1,327.6v88.1h48.3v-88.1H331.1z M337.6,332.4h35.3v78.4h-35.3V332.4z"/>
					<path class="st5" d="M427,379.4c-0.2,0-0.5,0-0.7,0c-0.3,0-0.5,0-0.7,0c-1.6-0.1-3.1-0.4-4.3-0.6v13.8c0.4,0.1,0.8,0.3,1.3,0.4
						c0.4,0.1,0.8,0.2,1.2,0.3c0.3,0.1,0.5,0.1,0.8,0.2c0.3,0,0.5,0.1,0.8,0.1c0.5,0.1,1.1,0.1,1.6,0.1c0.3,0,0.6,0,0.8,0v-14.2
						C427.5,379.4,427.2,379.4,427,379.4z M421.2,398.3v12.5h-14.6c0,0,0,0.1,0,0.1c0.1,0.3,0.2,0.7,0.3,1.1
						c0.1,0.4,0.2,0.7,0.3,1.1c0.1,0.3,0.2,0.7,0.3,1.1c0,0.1,0,0.2,0.1,0.3c0.1,0.4,0.2,0.8,0.2,1.2h11.7l0.3-1.2h5
						c0.1,0.4,0.2,0.8,0.2,1.2h2.4c0.1-0.4,0.2-0.8,0.3-1.2h0.1v-16.2L421.2,398.3z M427,379.4c-0.2,0-0.5,0-0.7,0
						c-0.3,0-0.5,0-0.7,0c-1.6-0.1-3.1-0.4-4.3-0.6v32.2h-14.6c0,0,0,0.1,0,0.1c0.1,0.3,0.2,0.7,0.3,1.1c0.1,0.4,0.2,0.7,0.3,1.1
						c0.1,0.3,0.2,0.7,0.3,1.1c0,0.1,0,0.2,0.1,0.3c0.1,0.4,0.2,0.8,0.2,1.2h11.7l0.3-1.2h5c0.1,0.4,0.2,0.8,0.2,1.2h2.4
						c0.1-0.4,0.2-0.8,0.3-1.2h0.1v-35.1C427.5,379.4,427.2,379.4,427,379.4z M379.4,327.6v88.1h48.3v-88.1H379.4z M421.2,410.8
						h-35.3v-78.4h35.3V410.8z"/>
					<path class="st5" d="M433.9,337.5L433.9,337.5c-0.1-0.1-0.2-0.2-0.2-0.3c-0.1-0.1-0.1-0.2-0.2-0.3c0-0.1-0.1-0.1-0.1-0.2
						c0-0.1,0-0.2-0.1-0.3c0,0.2,0,0.3-0.1,0.5c0,0.2-0.1,0.3-0.2,0.5c0,0.1-0.1,0.2-0.2,0.2c0,0.1-0.1,0.1-0.1,0.2
						c-0.4,0.4-0.9,0.6-1.4,0.6c-1.1-0.1-2-1-2.3-2.1c-0.3,0.3-0.5,0.5-0.8,0.7c-0.2,0.2-0.4,0.3-0.6,0.5v60.9l6.5,0v-60.5
						C434.1,337.7,434,337.6,433.9,337.5z M433.9,337.5L433.9,337.5c-0.1-0.1-0.2-0.2-0.2-0.3c-0.1-0.1-0.1-0.2-0.2-0.3
						c0-0.1-0.1-0.1-0.1-0.2c0-0.1,0-0.2-0.1-0.3c0,0.2,0,0.3-0.1,0.5c0,0.2-0.1,0.3-0.2,0.5c0,0.1-0.1,0.2-0.2,0.2
						c0,0.1-0.1,0.1-0.1,0.2c-0.4,0.4-0.9,0.6-1.4,0.6c-1.1-0.1-2-1-2.3-2.1c-0.3,0.3-0.5,0.5-0.8,0.7c-0.2,0.2-0.4,0.3-0.6,0.5
						v60.9l6.5,0v-60.5C434.1,337.7,434,337.6,433.9,337.5z M427.7,327.6v88.1H476v-88.1H427.7z M434.2,332.4h35.3v78.4h-35.3V332.4
						z"/>
					<path class="st5" d="M476,327.6v88.1h48.3v-88.1H476z M482.5,332.4h35.3v78.4h-35.3V332.4z"/>
					<path class="st5" d="M524.4,327.6v88.1h48.3v-88.1H524.4z M530.9,332.4h35.3v78.4h-35.3V332.4z"/>
				</g>
				<g>
					<g>
						<defs>
							<rect id="SVGID_1_" x="361.7" y="336.7" width="124.2" height="140.6"/>
						</defs>
						<clipPath id="SVGID_00000011752126514322870660000012554802372739250824_">
							<use xlink:href="#SVGID_1_"  style="overflow:visible;"/>
						</clipPath>
						<g style="clip-path:url(#SVGID_00000011752126514322870660000012554802372739250824_);">
							<g>
								<g>
									<path class="st7" d="M374.6,505.8c0,1.3,0,2.6,0.1,4C374.8,508.4,374.7,507.1,374.6,505.8z M376.9,517
										c-0.1-0.1-0.1-0.1-0.2-0.2c0.1,0.1,0.2,0.3,0.3,0.4C376.9,517.1,376.9,517.1,376.9,517z M385.5,515.3
										c0.2-2.1,0.4-4.5,0.6-6.8C385.7,512.6,385.5,514.6,385.5,515.3z M390,513.6c0.1,0,0.1-0.1,0.1-0.1
										C390.1,513.5,390.1,513.5,390,513.6z M389.7,513.6c0.1,0,0.2,0,0.2,0C389.8,513.6,389.8,513.6,389.7,513.6z M374.6,504.9
										c0,0.3,0,0.6,0,0.8C374.6,505.5,374.7,505.2,374.6,504.9L374.6,504.9z"/>
									<path class="st7" d="M448.6,558.4c2.3,7,2.9,13.1,2,18.9c-1.9,12-9.2,20.9-12.3,32.6c-0.1,3.9,0.1,7.1,0.2,9.3
										c0.5,7.9,1.6,12.6-0.8,14.2c-0.7,0.5-1.6,0.6-2.4,0.6c-2.3,0.2-4.3-0.9-5.3-1.7c-3.2-2.6-2.5-7.8-2.1-12.6
										c0.2-2.9,0.3-5.3,0.7-6.7c-1.5-1.5-0.3-3,0.5-3.7c4.9-25.9-1.2-26.7,0.3-38.7c0.7-5.9,4.2-9.6,4.2-15.6
										c-0.4-4.3-5.2-12.6-2.7-20.8c-3.5-9.5-1-19.3-2.7-30.7c-0.5-3.7-1.4-8.2-2.2-11.7c-0.8,3.5-1.7,8-2.2,11.7
										c-1.6,11.4,0.8,21.2-2.6,30.7c2.5,8.2-2.3,16.5-2.7,20.8c0,6,3.5,9.7,4.2,15.6c1.5,12-4.6,12.8,0.3,38.7
										c0.7,0.7,2,2.2,0.5,3.7c0.5,1.9,0.5,4,0.8,6.6c0.3,3.4,0.5,6.5,0.1,8.8c-0.6,4.2-5.3,8.1-7.9,7.4c-3.3-0.9-3.5-9.2-3.5-9.9
										c0-3,0.6-4,0.9-8.2c0.2-3.3,0.1-6-0.1-7.7c-3.1-11.7-10.3-20.6-12.3-32.6c-0.9-5.7-0.3-11.9,2-18.9
										c8-24.1-11.4-37.9-4.4-67.5l26.9,0.7l26.9-0.7C460,520.4,440.6,534.3,448.6,558.4z"/>
									<g>
										<path class="st8" d="M408.3,395.7c2.8-2.3,11.4-1.6,14.6,0.7L408.3,395.7z"/>
										<path class="st8" d="M444,395.7c-2.8-2.3-11.4-1.6-14.6,0.7L444,395.7z"/>
										<path class="st8" d="M475.6,516.7c1.1-2.8,1.3-6.9,0.5-10.1c0.2,1.8,0.2,3.9-0.1,6.4c-0.2,1.6-0.5,3-0.8,4.3L475.6,516.7z
											"/>
										<path class="st8" d="M472,519.9c2.1-3.6,2.4-10.8,0.6-14.7c0.4,1.9,0.8,4.6,0.6,7.7C473,515.7,472.5,518.1,472,519.9z"/>
										<path class="st8" d="M468.9,520.9c2-3.4,1.9-10.9,0.9-14.6c0.3,2.6,0.5,5.8,0.1,9.5C469.6,517.7,469.3,519.4,468.9,520.9z
											"/>
										<path class="st8" d="M376.6,516.7c-1.1-2.8-1.3-6.9-0.5-10.1c-0.2,1.8-0.2,3.9,0.1,6.4c0.2,1.6,0.5,3,0.8,4.3L376.6,516.7
											z"/>
										<path class="st8" d="M380.3,519.9c-2.1-3.6-2.4-10.8-0.6-14.7c-0.4,1.9-0.8,4.6-0.6,7.7
											C379.2,515.7,379.7,518.1,380.3,519.9z"/>
										<path class="st8" d="M383.3,520.9c-2-3.4-1.9-10.9-0.9-14.6c-0.3,2.6-0.5,5.8-0.1,9.5
											C382.6,517.7,382.9,519.4,383.3,520.9z"/>
									</g>
									<path class="st9" d="M453.3,492.2c-1.2-7.7-2.7-18.6-6.5-26.6c-8,0.9-33.6,0.9-41.5,0c-3.8,8-5.3,18.9-6.5,26.6
										c8.6,0.8,19.2,0.6,27.2,0.6C434.2,492.8,444.8,493.1,453.3,492.2z"/>
									<g>
										<g>
											<polygon class="st7" points="434.9,393.6 417.9,393.6 418.1,392.1 418.4,389.1 418.4,389 419.1,381.9 419.7,376.5 
												433.2,376.5 433.7,381.7 434.4,388.7 434.5,389.1 434.8,392.2 											"/>
											<path class="st8" d="M433.7,381.7c-1.4,1.2-2.9,2-4,2.4c-0.3,0.1-0.6,0.2-1,0.2c-0.8,0-1.6,0-2.5,0c-0.9,0-1.7,0-2.5,0
												c-0.3,0-0.7,0-1-0.2c-1-0.4-2.3-1.1-3.7-2.2l0.5-5.4h13.5L433.7,381.7z"/>
										</g>
										<g>
											<path class="st7" d="M438.4,363.2c4-1.8,2.5,4.2,1.7,6.3c-0.3,0.8-0.6,2.8-2.1,2.5L438.4,363.2z"/>
											<path class="st7" d="M414.2,363.2c-4-1.8-2.5,4.2-1.7,6.3c0.3,0.8,0.6,2.8,2.1,2.5L414.2,363.2z"/>
										</g>
										<path class="st7" d="M438.5,364.2c-0.2,2.4-0.2,4.8-0.3,6.9c-0.1,1.1-0.4,2.7-1.2,4.4c-0.3,0.6-1,2.1-2.5,3.7
											c-1.7,1.8-3.6,2.9-5,3.5c-0.3,0.1-0.6,0.2-1,0.2c-0.7,0-1.5,0-2.3,0c-0.8,0-1.5,0-2.2,0c-0.3,0-0.7,0-1-0.2
											c-1.4-0.6-3.2-1.6-5-3.5c-1.5-1.6-2.2-3.1-2.5-3.7c-0.8-1.8-1.1-3.4-1.2-4.4c-0.1-2.1-0.1-4.5-0.3-6.9
											c-0.9-4.3,0.5-9.8,2-12.4c1.4-1.8,6.4-0.7,10.2-0.7c3.8,0,8.8-1.1,10.2,0.7C438,354.4,439.4,359.9,438.5,364.2z"/>
										<g>
											<path class="st4" d="M423.2,365.4c-0.5,0.2-1.4,0.6-2.7,0.6c-1.7-0.1-2.8-0.9-3.2-1.2c0.6-0.5,1.2-0.9,1.9-1.1
												c0.7-0.2,1.4-0.2,2.1,0.1c0.2,0.1,0.3,0.1,0.4,0.2C422.5,364.5,423,365.1,423.2,365.4z"/>
											<path class="st10" d="M421.9,364.7c-0.1,0.8-1,1.3-1.7,1.2c-0.8-0.1-1.5-0.8-1.4-1.6c0-0.2,0.2-0.4,0.3-0.6
												c0.7-0.2,1.4-0.2,2.1,0.1c0.2,0.1,0.3,0.1,0.4,0.2C421.9,364.2,422,364.5,421.9,364.7z"/>
											<path d="M419.7,364.6c0,0.4,0.4,0.8,0.8,0.8c0.4,0,0.8-0.4,0.8-0.8c0-0.4-0.4-0.8-0.8-0.8
												C420.1,363.7,419.7,364.1,419.7,364.6z"/>
											<path class="st4" d="M419.3,364.4c0,0.2,0.1,0.3,0.3,0.3c0.2,0,0.3-0.1,0.3-0.3c0-0.2-0.1-0.3-0.3-0.3
												C419.5,364.1,419.3,364.2,419.3,364.4z"/>
											<path class="st11" d="M423.7,360.4c-2-0.5-4.3-0.7-6.7-0.5c-0.4,0-1.1,0.4-1.3,1c-0.1,0.4,0,0.8,0.1,1.1
												c0.3-0.2,0.7-0.4,1.2-0.6c0.7-0.2,1.5-0.3,3.3-0.2c0.9,0.1,2,0.2,3.4,0.5c0-0.1,0.1-0.3,0.1-0.4
												C423.8,360.9,423.8,360.6,423.7,360.4z"/>
											<path class="st11" d="M423.2,365.4c-0.2-0.2-1.3-1.3-2.9-1.4c-1.6-0.1-2.7,0.6-3,0.8c0.1-0.1,1.2-1.6,3.2-1.3
												C422.3,363.7,423.1,365.3,423.2,365.4z"/>
										</g>
										<g>
											<path class="st4" d="M429.4,365.4c0.5,0.2,1.4,0.6,2.7,0.6c1.7-0.1,2.8-0.9,3.2-1.2c-0.6-0.5-1.2-0.9-1.9-1.1
												c-0.7-0.2-1.4-0.2-2.1,0.1c-0.2,0.1-0.3,0.1-0.4,0.2C430,364.5,429.6,365.1,429.4,365.4z"/>
											<path class="st10" d="M430.6,364.7c0.1,0.8,1,1.3,1.7,1.2c0.8-0.1,1.5-0.8,1.4-1.6c0-0.2-0.2-0.4-0.3-0.6
												c-0.7-0.2-1.4-0.2-2.1,0.1c-0.2,0.1-0.3,0.1-0.4,0.2C430.7,364.2,430.6,364.5,430.6,364.7z"/>
											<path d="M432.9,364.6c0,0.4-0.4,0.8-0.8,0.8c-0.4,0-0.8-0.4-0.8-0.8c0-0.4,0.4-0.8,0.8-0.8
												C432.5,363.7,432.9,364.1,432.9,364.6z"/>
											<path class="st4" d="M433.2,364.4c0,0.2-0.1,0.3-0.3,0.3c-0.2,0-0.3-0.1-0.3-0.3c0-0.2,0.1-0.3,0.3-0.3
												C433.1,364.1,433.2,364.2,433.2,364.4z"/>
											<path class="st11" d="M428.9,360.4c2-0.5,4.3-0.7,6.7-0.5c0.4,0,1.1,0.4,1.3,1c0.1,0.4,0,0.8-0.1,1.1
												c-0.3-0.2-0.7-0.4-1.2-0.6c-0.7-0.2-1.5-0.3-3.3-0.2c-0.9,0.1-2,0.2-3.4,0.5c0-0.1-0.1-0.3-0.1-0.4
												C428.8,360.9,428.8,360.6,428.9,360.4z"/>
											<path class="st11" d="M429.4,365.4c0.2-0.2,1.3-1.3,2.9-1.4c1.6-0.1,2.7,0.6,3,0.8c-0.1-0.1-1.2-1.6-3.2-1.3
												C430.3,363.7,429.5,365.3,429.4,365.4z"/>
										</g>
										<path d="M439.3,348.1c-1.5-2.5-7.4-5.1-13-5.2c-5.6,0-11.5,2.7-13,5.2c-3.2,3.2-2.6,11.7-1.3,15.3c0,0,0.5-0.9,2.3-0.2
											c-0.5-2.3,0.2-9.2,2.5-11.8c2.3-0.7,5.4-0.3,9.6-0.1c4.2-0.2,7.3-0.6,9.6,0.1c2.2,2.7,2.9,9.6,2.5,11.8
											c1.8-0.7,2.3,0.2,2.3,0.2C441.9,359.8,442.5,351.3,439.3,348.1z"/>
										<g>
											<g>
												<path class="st8" d="M428.6,372l-1.1,0.6c-0.7,0.4-1.5,0.4-2.2,0l-1.1-0.6l1.9,0.3c0.2,0,0.5,0,0.7,0L428.6,372z"/>
											</g>
										</g>
										<g>
											<path class="st8" d="M429.4,376.6c-0.9,0.3-3.3,1.1-6,0c-0.5-0.2-1.6-0.7-1.5-0.9c0.1-0.3,1.7,0,4.5,0
												c2.9,0,4.7-0.2,4.7,0C431.1,376.1,429.6,376.6,429.4,376.6z"/>
										</g>
										<g>
											<path class="st8" d="M428,379c0,0.1-0.7,0.2-1.6,0.2c-0.9,0-1.6-0.1-1.6-0.2c0-0.1,0.7-0.2,1.6-0.2
												C427.3,378.8,428,378.9,428,379z"/>
										</g>
									</g>
								</g>
								<g>
									<polygon class="st11" points="426.8,374 426.8,375 432.6,375 									"/>
									<path class="st11" d="M425.8,374v1c-1,0-2.1,0-3.1,0c-0.9,0-1.8,0-2.7,0c0,0,2.9-0.5,2.9-0.5
										C422.9,374.5,425.7,374,425.8,374z"/>
								</g>
								<g>
									<g>
										<path d="M425.6,632c-0.4-1.8-0.6-3.3-0.6-4.3c0,0-0.2-5.2-0.6-8.1c0,0,0-0.1,0-0.1c-0.1,0-0.1,4.8-0.5,4.8
											c-0.1,0-0.1-0.1-0.1-0.1c-0.8-1.6-9.1-1.3-9.4-0.5c0,0-0.2,0.2-0.2,0.2c-0.2,0-0.3-4.6-0.6-4.6c0,0-0.1,0.1-0.1,0.1
											c-0.2,0.5-0.6,3.5-1.8,7.6c-0.2,0.7-1.1,1.8-1.4,3c-0.2,0.8-0.4,1.9-0.5,2.7c-0.2,2.4,1.3,4.6,2,5.5
											c2.2,2.3,7,2.5,11.5-0.3c1-0.6,1.8-1.7,2.1-2.9c0,0,0,0,0,0C425.7,633.7,425.8,632.8,425.6,632z"/>
									</g>
									<path d="M450.7,466.4c-4-4.3-23.6,0-23.6,0h-1.4c0,0-19.6-4.3-23.6,0c-19.5,84.7,9.9,153.3,9.9,153.3h13.3l0.4-124.9h1.1
										l0.4,124.9h13.6C440.8,619.7,470.2,551.1,450.7,466.4z"/>
									<g>
										<polygon class="st12" points="450.7,466.4 402.1,466.4 406.2,450.8 446.6,450.8 										"/>
										<path class="st13" d="M408.1,565c-13.5-54.1-3.8-98.6-3.8-98.6h19.3C423.5,466.4,426.1,547.1,408.1,565z"/>
									</g>
									<g>
										<polygon points="441.5,351.3 411.1,351.3 412.8,340.4 439.8,340.4 										"/>
										<g>
											<path class="st12" d="M394,350.7l0.8-3c0,0,0.1,0,0.4,0.1l0,0c0.3,0.1,0.8,0.2,1.4,0.3l0,0c1.2,0.2,3.1,0.6,5.5,0.9l0,0
												c4.8,0.7,11.9,1.3,21,1.3l0,0c9.1,0,20.2-0.7,32.9-2.7l0,0l0.5,3c-12.9,2-24.1,2.7-33.4,2.7l0,0
												C404.6,353.4,394.1,350.7,394,350.7L394,350.7z"/>
										</g>
									</g>
									<g>
										<path class="st4" d="M396,451.7c-5.6,5.3-15.2,7.1-19.6,3.4c-2.8-2.4-2.4-6,0.7-26.5c3-20.6,4.8-30.6,9.7-32.5
											c1.6-0.6,3.6-0.4,6.1,0.6l6.9,30.1c0.4,5.1,0.9,10.2,1.3,15.3C400.8,444,399.7,448.2,396,451.7z"/>
										<path class="st4" d="M394,501.6c0,0-22.5,5.1-25.3-0.6c-1.4-2.8,7.3-10.3,7.3-10.3l12.9,0.7L394,501.6z"/>
										<g>
											<path class="st4" d="M425.2,388.6c-1.9-2-9.8-1.3-9.8-1.3l-1.2,3l12.2,0.6C426.4,390.8,425.7,389.1,425.2,388.6z"/>
											<path class="st4" d="M427.1,388.6c1.9-2,9.8-1.3,9.8-1.3l1.6,3.1l-12.6,0.5C425.8,390.8,426.5,389.1,427.1,388.6z"/>
										</g>
										<polygon class="st4" points="405.2,450.8 426.4,450.8 426.4,390.8 414.2,390.3 412.2,390.9 399.5,416.4 										"/>
										<path class="st4" d="M477.4,453.6c2.1-2.9,1.2-6.8,0.5-10c-8-35.1-8.6-46.4-14.9-47.4c-1-0.1-2,0-3.1,0.5l-6.9,30.1
											c-4.9,11.1-2.6,22.5,4.3,27.5C463.3,458.5,473.9,458.5,477.4,453.6z"/>
										<path class="st4" d="M458.8,501.6c0,0,22.5,5.1,25.3-0.6c1.4-2.8-7.3-10.3-7.3-10.3l-12.9,0.7L458.8,501.6z"/>
										<polygon class="st4" points="447.5,450.8 426.4,450.8 426.4,390.8 438.6,390.3 440.6,390.9 453.3,416.4 										"/>
										<rect x="425.4" y="391.6" class="st14" width="1" height="59.2"/>
									</g>
									<g>
										<polygon points="419.7,393.7 423,444.5 401.6,448.1 393,396.6 412.2,390.9 										"/>
										<polygon points="433.1,393.7 429.8,444.5 451.2,448.1 459.8,396.6 440.6,390.9 										"/>
									</g>
								</g>
							</g>
							<path class="st15" d="M409.9,631.8c0,0.6-0.1,3.3,1.8,5.2c1,1,2.1,1.4,2.7,1.6c1.6,0.5,3,0.3,4.2,0.1c1.3-0.2,3-0.5,4.6-1.9
								c0.8-0.7,1.4-1.6,1.6-1.9c0.5-0.8,0.8-1.5,1-2c0,1-0.1,2.1-0.1,3.1c-0.4,0.9-1.2,2.2-2.6,3.3c-2.9,2.3-7.6,3-10.7,0.5
								c-0.6-0.5-1.7-1.5-2.4-3.3c-0.2-0.7-0.3-1.6-0.3-2.7C409.7,633,409.8,632.3,409.9,631.8z"/>
							<g>
								<path d="M426.5,632c0.4-1.8,0.6-3.3,0.6-4.3c0,0,0.2-5.2,0.6-8.1c0,0,0-0.1,0-0.1c0.1,0,0.1,4.8,0.5,4.8
									c0.1,0,0.1-0.1,0.1-0.1c0.8-1.6,9.1-1.3,9.4-0.5c0,0,0.2,0.2,0.2,0.2c0.2,0,0.3-4.6,0.6-4.6c0,0,0.1,0.1,0.1,0.1
									c0.2,0.5,0.6,3.5,1.8,7.6c0.2,0.7,1.1,1.8,1.4,3c0.2,0.8,0.4,1.9,0.5,2.7c0.2,2.4-1.3,4.6-2,5.5c-2.2,2.3-7,2.5-11.5-0.3
									c-1-0.6-1.8-1.7-2.1-2.9c0,0,0,0,0,0C426.4,633.7,426.3,632.8,426.5,632z"/>
							</g>
							<path class="st15" d="M442.2,631.8c0,0.6,0.1,3.3-1.8,5.2c-1,1-2.1,1.4-2.7,1.6c-1.6,0.5-3,0.3-4.2,0.1
								c-1.3-0.2-3-0.5-4.6-1.9c-0.8-0.7-1.4-1.6-1.6-1.9c-0.5-0.8-0.8-1.5-1-2c0,1,0.1,2.1,0.1,3.1c0.4,0.9,1.2,2.2,2.6,3.3
								c2.9,2.3,7.6,3,10.7,0.5c0.6-0.5,1.7-1.5,2.4-3.3c0.2-0.7,0.3-1.6,0.3-2.7C442.5,633,442.4,632.3,442.2,631.8z"/>
						</g>
					</g>
				</g>
				<g>
					<path class="st16" d="M502,368.2L502,368.2l0.8-2.1L502,368.2z"/>
					<polygon class="st16" points="527.6,324.6 525.3,330.4 517.4,329 525.3,330.4 527.6,324.6 527.6,324.6 					"/>
					<path class="st17" d="M468.8,433.3c-0.2,0.1-0.4,0.1-0.6,0.2C468.4,433.4,468.6,433.3,468.8,433.3
						C468.8,433.3,468.8,433.3,468.8,433.3"/>
					<path class="st18" d="M383.1,576.5c-0.1,2.3-0.2,4.6-0.4,6.9c-0.2,3.8-0.5,7.6-0.9,11.4c-0.4,4.3-0.9,8.7-1.5,13
						c-0.6,4.9-4,8.7-8.5,10.1h0c-1.1,0.3-2.2,0.5-3.4,0.5h-42.2c-3.3,0-6.3-1.3-8.5-3.5c-0.7-0.7-1.4-1.5-1.9-2.4
						c-0.3-0.6-0.7-1.2-0.9-1.9c-0.3-0.7-0.4-1.4-0.6-2.1c-4.3-24.6-7.7-49-9.8-73.3c0-0.5-0.1-1-0.1-1.6
						c-0.9-10.4-1.6-20.8-2.1-31.1c-0.5-10-0.7-20-0.8-30c0-6.6,5.4-11.9,12-11.9h44.8c5.3,0,9.9,3.4,11.5,8.4
						c0,0.1,0.1,0.2,0.1,0.3h0v0c0.1,0.3,0.2,0.6,0.3,0.8c0.1,0.4,0.3,0.8,0.4,1.2v0h0c0.7,2.3,1.4,4.6,2,6.8l0,0
						c0.6,2.2,1.2,4.4,1.8,6.7c0,0,0,0.1,0,0.1c0.5,1.9,0.9,3.7,1.4,5.6c0.1,0.6,0.3,1.1,0.4,1.7c0,0,0,0,0,0
						c0.8,3.4,1.5,6.8,2.1,10.2c1.1,5.7,2,11.3,2.7,17.1v0c0.6,5,1.2,10,1.6,15c0,0.2,0,0.4,0,0.6
						C383.6,548.7,383.8,562.5,383.1,576.5z"/>
					<path class="st18" d="M549.2,472.6c-0.1,10-0.3,19.9-0.8,30c-0.5,9.9-1.1,19.8-2,29.8l-0.3,2.9c-0.2,2.1-0.4,4.3-0.6,6.4
						c0,0.3-0.1,0.7-0.1,1c-0.4,3.7-0.8,7.5-1.2,11.2c-0.2,1.8-0.4,3.6-0.6,5.4c-0.1,1.3-0.3,2.7-0.5,4c-0.2,1.7-0.4,3.4-0.6,5.1
						c-0.6,4.9-1.3,9.7-2,14.6c-0.4,2.8-0.8,5.6-1.3,8.4c-0.4,2.9-0.9,5.7-1.4,8.6c0,0.2-0.1,0.3-0.1,0.5c-0.5,2.7-0.9,5.4-1.4,8.1
						v0c-0.1,0.3-0.1,0.6-0.2,1c0,0,0,0.1,0,0.1c-0.1,0.3-0.2,0.6-0.3,0.9c0,0,0,0,0,0c-0.1,0.3-0.2,0.5-0.3,0.8
						c0,0.1-0.1,0.2-0.1,0.3c-0.1,0.3-0.3,0.5-0.4,0.8c-0.2,0.3-0.4,0.6-0.6,0.9c-0.2,0.3-0.4,0.5-0.6,0.8c0,0,0,0,0,0
						c-0.2,0.2-0.4,0.5-0.6,0.7c-0.1,0.1-0.2,0.2-0.2,0.2c-0.2,0.2-0.4,0.3-0.6,0.5c-0.4,0.4-0.9,0.7-1.4,1
						c-0.4,0.3-0.8,0.5-1.3,0.7c-0.1,0.1-0.3,0.1-0.4,0.2c-0.6,0.3-1.3,0.5-2,0.6c-0.1,0-0.3,0.1-0.4,0.1c-0.2,0-0.4,0.1-0.6,0.1
						c-0.3,0-0.5,0.1-0.8,0.1c-0.3,0-0.6,0-0.9,0h-42.2c-3,0-5.8-1.1-7.9-3c-0.5-0.4-1-0.9-1.4-1.4c-1.4-1.7-2.4-3.8-2.7-6.2
						c-0.3-2.3-0.6-4.6-0.8-6.9c-0.2-2-0.4-4.1-0.6-6.1c-0.2-1.9-0.3-3.8-0.5-5.7c-0.2-1.9-0.3-3.8-0.4-5.7
						c-0.3-5.4-0.6-10.7-0.7-16c0-1.5,0-3-0.1-4.5c-0.1-9.3,0.3-18.6,1-27.7c0-0.5,0.1-0.9,0.1-1.4c0.2-2.5,0.4-4.9,0.7-7.4
						c0.2-2.2,0.5-4.4,0.8-6.5v0c0.8-5.8,1.7-11.6,2.8-17.4c0-0.2,0.1-0.3,0.1-0.5c0.3-1.8,0.7-3.6,1.1-5.3c0.5-2.6,1.1-5.1,1.7-7.6
						c0.8-3.6,1.8-7.1,2.8-10.6c0.7-2.7,1.5-5.3,2.4-8c0.1-0.3,0.2-0.6,0.3-0.9c0,0,0,0,0,0c0-0.2,0.1-0.3,0.1-0.5
						c0.4-1.2,0.9-2.3,1.6-3.3c2.2-3.2,5.8-5.1,9.8-5.1h44.8c4.6,0,8.7,2.6,10.7,6.5C548.7,468.7,549.2,470.6,549.2,472.6z"/>
					<path class="st16" d="M352.3,460.6h-7.4c0,0,0,0,0,0L352.3,460.6C352.3,460.6,352.3,460.6,352.3,460.6L352.3,460.6z"/>
					<path class="st19" d="M352.3,460.6h-7.4c1.6,22.8,0.8,46.3-2.3,70.5c-0.8,6-5.8,10.6-11.9,10.6h-25.5
						c2.2,22.2,5.3,44.5,9.2,66.9c1,5.7,6,9.8,11.8,9.8h13.7c-1.6-15.8-2.6-31.6-2.6-47.2c0-4.2,3.4-7.6,7.7-7.6h27.7
						c-5.2-26.1-11.5-61.6-11-78.1c0-0.5,0.1-0.9,0.2-1.3c0.4-1.9,1.6-3.6,3.2-4.6l5.6-8.1c-0.2-0.7-0.4-1.4-0.6-2
						C368.9,468.8,362.3,464.7,352.3,460.6L352.3,460.6z"/>
					<path class="st16" d="M500.5,460.6C500.5,460.6,500.5,460.6,500.5,460.6l11.5,0c0,0,0,0,0,0H500.5z"/>
					<path class="st20" d="M537.7,600.4c-0.5,2.7-0.9,5.4-1.4,8.1c-0.6,3.4-2.7,6.3-5.5,8.1c2.8-1.7,4.9-4.6,5.5-8.1
						C536.8,605.8,537.2,603.1,537.7,600.4L537.7,600.4L537.7,600.4z"/>
					<path class="st19" d="M512.1,460.6h-11.5c-6.9,2.9-12.2,5.7-15.1,7.3l13.9,11.2c2.6,1.2,4.5,3.9,4.4,7
						c-0.1,9.6-2.4,30.9-13.2,77.4h28.3c4.2,0,7.7,3.4,7.7,7.6c-0.1,15.6-1,31.4-2.6,47.2h0.7c2.3,0,4.5-0.7,6.3-1.8
						c2.8-1.7,4.9-4.6,5.5-8.1c0.5-2.7,0.9-5.4,1.4-8.1c0.2-1.4,0.5-2.8,0.7-4.2c3-18.3,5.4-36.5,7.2-54.7h-19.3
						c-6.1,0-11.1-4.5-11.9-10.6C511.3,507,510.4,483.4,512.1,460.6L512.1,460.6z"/>
					<path class="st21" d="M483,469.4c0,0,27.1-17.2,56.7-17.7c3.7-0.1,5.2-4.8,2.2-6.9c-3-2.1-7.2-4-13-5
						c-15.6-2.6-48.3,8.8-56,23.6C465,478.2,483,469.4,483,469.4L483,469.4z"/>
					<path class="st22" d="M538.9,447c-22.6,0-42,7.3-42,7.3s-3.7,0.9-6.9,0.9c-3,0-5.6-0.8-4.9-3.8c-2.8,1.8-5.3,3.6-7.4,5.6
						l-1.3,3.6l9,7.3c7.3-4.1,29.9-15.9,54.2-16.3c2.6,0,4.2-2.5,3.7-4.6C541.8,447,540.3,447,538.9,447L538.9,447z"/>
					<path class="st21" d="M369.9,469.4c0,0-27.1-17.2-56.7-17.7c-3.7-0.1-5.2-4.8-2.2-6.9c3-2.1,7.2-4,13-5
						c15.6-2.6,48.3,8.8,56,23.6C387.8,478.2,369.9,469.4,369.9,469.4L369.9,469.4z"/>
					<path class="st16" d="M309.5,447.2c-0.3,1.5,0.4,3.1,1.7,3.9C309.9,450.3,309.2,448.7,309.5,447.2L309.5,447.2z"/>
					<path class="st22" d="M312.4,447c-0.9,0-1.9,0-2.8,0c0,0.1,0,0.1,0,0.2c-0.3,1.5,0.4,3.1,1.7,3.9c0.6,0.3,1.2,0.6,2,0.6
						c29.5,0.5,56.6,17.7,56.6,17.7s0.6,0.3,1.5,0.7l6.7-9.8c-1.8-2.2-4-4.4-6.7-6.4c1.1,3.3-1.2,4.2-4,4.2c-3.4,0-7.7-1.4-7.7-1.4
						S337.4,447,312.4,447L312.4,447z"/>
					<path class="st23" d="M510.7,664.5h-27c-3.9,0-7.1-2.9-7.6-6.8c-4-31.3-2.1-61,6.8-88.8c1-3.2,4-5.4,7.3-5.4h28.6
						c4.2,0,7.7,3.4,7.7,7.6c-0.2,28.7-3.1,57.7-8.3,87C517.6,661.8,514.4,664.5,510.7,664.5L510.7,664.5z"/>
					<path class="st23" d="M353.1,664.5h27c3.9,0,7.1-2.9,7.6-6.8c4-31.3,2.1-61-6.8-88.8c-1-3.2-4-5.4-7.3-5.4h-28.6
						c-4.2,0-7.7,3.4-7.7,7.6c0.2,28.7,3.1,57.7,8.3,87C346.1,661.8,349.3,664.5,353.1,664.5L353.1,664.5z"/>
					<path class="st20" d="M474.2,618.4L474.2,618.4c-0.3,7.4-0.2,14.9,0.2,22.5C474,633.3,473.9,625.8,474.2,618.4L474.2,618.4z"/>
					<path class="st20" d="M518.2,658.1c0,0.1,0,0.2-0.1,0.3C518.2,658.4,518.2,658.3,518.2,658.1c0.5-2.9,1-5.8,1.5-8.7
						C519.2,652.4,518.7,655.2,518.2,658.1z M518,659C518,658.9,518,658.9,518,659C518,658.9,518,659,518,659
						C518,659,518,659,518,659z"/>
					<path class="st24" d="M505.2,563.5h-14.7c-0.3,1.2-0.6,2.5-0.9,3.8c-1.2,5.1-2.5,10.4-3.9,16.1h2.6c3.5,0,6.1,3.2,5.4,6.6
						l-2.3,10.8h0l-2.8,13.1h0l0,0l0,0c0,0.2-0.1,0.4-0.2,0.6c-0.4,1.2-1.2,2.2-2.2,2.8c0,0,0,0,0,0c0,0,0,0,0,0
						c-0.9,0.6-1.9,0.9-3,0.9h-9.1c-0.3,7.4-0.2,14.9,0.2,22.5c0.3,5.6,0.9,11.2,1.6,16.8c0.1,0.4,0.1,0.9,0.3,1.3
						c0.5,1.7,1.6,3.1,2.9,4.1c1.3,0.9,2.8,1.4,4.4,1.4h27c1.4,0,2.8-0.4,3.9-1.1c1.9-1.1,3.2-3,3.6-5.2c0.6-3.6,1.2-7.2,1.8-10.8
						c0.1-0.7,0.2-1.4,0.3-2.1h-10.5c-3.9,0-7.1-2.9-7.6-6.8C498.9,612.3,499.7,587.2,505.2,563.5L505.2,563.5z"/>
					<path class="st24" d="M372.6,563.5h-12.1c1.5,7.4,2.5,14.9,3,22.5c0.9-1.6,2.7-2.7,4.7-2.7h8.4
						C375.5,578.1,374.1,571.2,372.6,563.5L372.6,563.5z"/>
					<path class="st20" d="M384.8,662.8C384.8,662.8,384.8,662.8,384.8,662.8C384.8,662.9,384.8,662.8,384.8,662.8
						c0,0,0.1,0,0.1-0.1C384.9,662.8,384.8,662.8,384.8,662.8z M387.7,657.7c0,0.2-0.1,0.4-0.1,0.6
						C387.6,658.1,387.7,657.9,387.7,657.7c0.1-1,0.3-1.9,0.4-2.9C387.9,655.8,387.8,656.7,387.7,657.7z M387.5,658.8
						c0-0.1,0.1-0.3,0.1-0.4c0,0,0-0.1,0-0.1c0,0.1-0.1,0.3-0.1,0.4C387.5,658.7,387.5,658.8,387.5,658.8z"/>
					<path class="st24" d="M364,594.7c0.4,12.2-0.2,24.7-1.9,37.4c-0.5,3.8-3.7,6.8-7.6,6.8h-12.1c0.9,6.4,1.9,12.8,3.1,19.2
						c0.2,1.2,0.7,2.2,1.3,3.1c0.4,0.5,0.9,1,1.4,1.5c1.3,1.1,3,1.7,4.8,1.7h27c0.8,0,1.6-0.1,2.3-0.4c2.8-0.9,4.9-3.3,5.3-6.4
						c1.7-13.4,2.4-26.5,1.8-39.3h-15.4c-1.4,0-2.7-0.5-3.7-1.4c0,0,0,0,0,0c0,0,0,0,0,0c-0.8-0.7-1.4-1.7-1.6-2.7l-2.4-9.9
						L364,594.7L364,594.7z"/>
					<path class="st25" d="M483.3,618.4H374.1c-2.5,0-4.7-1.7-5.3-4.2l-5.9-24c-0.8-3.5,1.8-6.8,5.3-6.8h120.2
						c3.5,0,6.1,3.2,5.4,6.6l-5.1,24C488.2,616.6,485.9,618.4,483.3,618.4L483.3,618.4z"/>
					<path class="st26" d="M488.4,583.4h-2.6c0,0,0,0,0,0L488.4,583.4c3.5,0,6.1,3.2,5.4,6.6l-2.3,10.8h0l2.3-10.8
						C494.5,586.6,491.9,583.4,488.4,583.4L488.4,583.4z"/>
					<path class="st24" d="M363.6,586.1c-0.1,0.2-0.2,0.4-0.3,0.6C363.3,586.5,363.4,586.3,363.6,586.1L363.6,586.1L363.6,586.1z"/>
					<path class="st17" d="M486.4,617.5C486.4,617.5,486.4,617.5,486.4,617.5C486.3,617.5,486.3,617.5,486.4,617.5
						c-0.2,0.1-0.3,0.2-0.4,0.2c-0.1,0-0.1,0.1-0.2,0.1c-0.2,0.1-0.3,0.2-0.5,0.2 M486.4,617.4c0.1-0.1,0.3-0.2,0.4-0.3l0.6-0.6
						c0,0,0,0,0,0l0.1-0.1l0.2-0.3l0-0.1l0,0l0.2-0.3l0.1-0.2c0,0,0-0.1,0.1-0.1l0-0.1l0-0.1v0c0.1-0.1,0.1-0.3,0.2-0.4
						c0.1-0.1,0.1-0.3,0.2-0.4 M488.5,614.7L488.5,614.7c-0.1,0.2-0.1,0.3-0.2,0.4c-0.1,0.1-0.1,0.3-0.2,0.4v0l0,0.1l0,0.1
						c0,0,0,0,0,0c0,0,0,0,0,0.1l-0.1,0.2l-0.2,0.3l0,0l0,0.1l-0.2,0.3l-0.1,0.1c0,0,0,0,0,0l-0.6,0.6c-0.1,0.1-0.2,0.2-0.4,0.3
						c0,0,0,0,0,0 M488.7,614L488.7,614L488.7,614L488.7,614L488.7,614L488.7,614 M488.7,614L488.7,614L488.7,614"/>
					<path class="st17" d="M371.1,617.5C371.1,617.5,371.1,617.5,371.1,617.5c-0.1,0-0.1-0.1-0.1-0.1c-0.1,0-0.1-0.1-0.2-0.2
						c-0.1-0.1-0.2-0.2-0.3-0.3c0,0,0,0,0,0 M369.9,616.4C369.8,616.3,369.8,616.3,369.9,616.4C369.8,616.3,369.8,616.4,369.9,616.4
						C369.9,616.4,369.9,616.4,369.9,616.4C369.9,616.4,369.9,616.4,369.9,616.4z M364.9,584.5C364.9,584.5,364.9,584.5,364.9,584.5
						L364.9,584.5c-0.1,0-0.1,0.1-0.2,0.1c0,0,0,0,0,0l0,0c0,0,0,0,0,0c0,0,0,0,0.1-0.1c0.1-0.1,0.1-0.1,0.2-0.2
						C365,584.5,365,584.5,364.9,584.5z M364.7,584.7L364.7,584.7C364.7,584.7,364.7,584.7,364.7,584.7
						C364.7,584.7,364.7,584.7,364.7,584.7C364.7,584.7,364.7,584.7,364.7,584.7z M367.1,583.5L367.1,583.5c0.1,0,0.2,0,0.3,0
						L367.1,583.5z M368.3,583.4c-0.1,0-0.3,0-0.4,0c-0.1,0-0.1,0-0.2,0c0,0,0,0-0.1,0c0.1,0,0.1,0,0.2,0
						C368,583.4,368.1,583.4,368.3,583.4l8.4,0v0H368.3z"/>
					<path class="st27" d="M488.4,583.4h-2.6c-0.9,3.7-1.8,7.5-2.8,11.4H379.2c0,0,0,0,0,0h0c0,0-1-4.3-2.5-11.4h-7
						c-2,0-3.7,1.1-4.7,2.7c-0.1,0.2-0.2,0.4-0.3,0.6c-0.5,1.1-0.6,2.3-0.3,3.5l3.4,14.1l2.4,9.9c0.3,1.1,0.8,2,1.6,2.7
						c0,0-1.5,0-1.5,0c0,0,1.5,0,1.5,0c1,0.9,2.3,1.4,3.7,1.4h107.8c1.1,0,2.1-0.3,3-0.9c0,0,0,0,0,0c0,0,0,0,0,0
						c1-0.7,1.8-1.7,2.2-2.8c0.1-0.2,0.1-0.4,0.2-0.6l0,0l0,0h-93c-2.5,0-4.7-0.6-5.3-1.6l-5.9-9c-0.8-1.3,1.8-2.5,5.3-2.5h101.6
						l2.3-10.8C494.5,586.6,491.9,583.4,488.4,583.4L488.4,583.4z"/>
					<path class="st18" d="M471,456.6c-3.2-21.9-22.1-38.8-44.9-38.8c-22.8,0-41.7,16.8-44.9,38.8c-0.3,2.2-0.5,4.4-0.5,6.7
						c0,10.7,3.7,20.6,9.9,28.3l17,1.1c-9.8-6.1-16.2-17-16.2-29.4c0-2.3,0.2-4.5,0.6-6.7c3.1-16,17.2-28.1,34-28.1
						c16.9,0,31,12.1,34,28.1c0.4,2.1,0.6,4.4,0.6,6.7c0,13.9-8.2,25.9-20,31.4l17,1c8.4-8.2,13.7-19.7,13.7-32.4
						C471.5,461,471.3,458.8,471,456.6L471,456.6z"/>
					<polygon class="st21" points="501.6,481 497.2,498.1 457.8,495.7 440.8,494.7 407.6,492.6 390.7,491.6 367.5,490.2 
						361.8,483.9 380.6,456.6 471.3,456.6 501.6,481 					"/>
					<path class="st22" d="M401.9,456.6H392h-10.9h-0.6l-2.5,3.7l-6.7,9.8l-6.5,9.4c1-0.7,2.2-1.1,3.4-1.2c0.2,0,0.5,0,0.8,0
						c0,0,0,0,0,0l127.2,0.3c1.1,0,2.1,0.2,3.1,0.7l-11.9-9.6h-19.4c-0.1,0-0.3,0-0.4,0c-0.1,0-0.3,0-0.4,0h-71.4L401.9,456.6
						L401.9,456.6z"/>
					<path class="st21" d="M369.1,478.2l127.2,0.3c4.2,0,7.5,3.4,7.5,7.6c-0.1,11.5-3.4,39.9-20.7,108.7H379.2
						c0,0-18.5-81.6-17.6-109.3C361.7,481.4,365,478.2,369.1,478.2L369.1,478.2z"/>
					<path class="st28" d="M364.9,479.5c-1.6,1.1-2.7,2.7-3.2,4.6C362.1,482.2,363.3,480.6,364.9,479.5L364.9,479.5L364.9,479.5z"/>
					<path class="st29" d="M368.3,478.3c-1.3,0.1-2.4,0.6-3.4,1.2l0,0C365.9,478.8,367,478.4,368.3,478.3L368.3,478.3z"/>
					<path class="st26" d="M489.7,567.3c-1.2,5.1-2.5,10.4-3.9,16.1h0C487.2,577.8,488.5,572.4,489.7,567.3L489.7,567.3z"/>
					<polyline class="st17" points="485.8,583.4 485.8,583.4 485.8,583.4 485.8,583.4 485.8,583.4 					"/>
					<path class="st30" d="M485.8,583.4L485.8,583.4c-0.9,3.7-1.8,7.5-2.8,11.4H379.2c0,0,0,0,0,0H483
						C484,590.9,484.9,587.1,485.8,583.4L485.8,583.4z"/>
					<path class="st22" d="M484.7,565.8c-4-0.2-8-0.8-11.8-1.6c-1.7-0.3-3.3-0.7-4.9-1.2c-0.2-0.1-0.5-0.1-0.7-0.2
						c-1.2-0.3-2.3-0.7-3.4-1c-1.7-0.5-3.3-1.2-5-1.8c-1.7-0.7-3.4-1.4-5-2.2c-1.7-0.8-3.4-1.7-5.1-2.6c-2.1-1.2-4.1-2.4-6.1-3.8
						c-1.8-1.3-3.6-2.6-5.4-4c-1.7-1.3-3.3-2.7-4.9-4.2c-2-1.9-4-3.9-5.8-6c-0.6-0.7-1.2-1.4-1.8-2.1c-0.2-0.3-0.4-0.5-0.6-0.8
						c-0.9-1.2-1.8-2.3-2.7-3.6v0c-1-1.5-2-2.9-3-4.5c-4.5-7.2-8-15.2-10.1-23.8c-0.6-2.4-1.1-5-1.5-7.5c-0.1-0.8-0.3-1.6-0.4-2.5
						c0-0.3-0.1-0.5-0.1-0.8v0c-0.3-2.3-0.7-4.5-1-6.7c-0.3-2.3-0.6-4.5-0.9-6.7l-8.2,0l-1.4,0h-2l-9.5,0l-9.3,0h-1.4l-3.4,0h0
						c-0.1,0-0.2,0-0.4,0c-0.1,0-0.2,0-0.4,0c-0.2,0-0.4,0-0.6,0.1c0,0,0,0-0.1,0c-0.1,0-0.2,0-0.3,0.1c-0.1,0-0.2,0.1-0.3,0.1
						c0,0-0.1,0-0.1,0c-0.2,0.1-0.5,0.2-0.7,0.2c-0.1,0.1-0.3,0.1-0.4,0.2c-0.1,0-0.1,0-0.2,0.1c-0.1,0-0.1,0-0.2,0.1
						c0,0-0.1,0-0.1,0.1c0,0,0,0,0,0c0,0,0,0-0.1,0c0,0,0,0,0,0c0,0-0.1,0.1-0.1,0.1c0,0-0.1,0.1-0.2,0.1c0,0,0,0,0,0c0,0,0,0,0,0
						c0,0,0,0,0,0c-0.1,0.1-0.2,0.1-0.3,0.2c-0.1,0-0.1,0.1-0.2,0.2l-0.5,0.5c0,0-0.1,0-0.1,0.1c-0.1,0.1-0.2,0.2-0.2,0.3
						c0,0,0,0.1-0.1,0.1c0,0,0,0,0,0c0,0,0,0,0,0c0,0,0,0,0,0c0,0,0,0,0,0c0,0,0,0,0,0v0l-0.4,0.5l-0.4,0.6c0,0,0,0,0,0
						c0,0,0,0,0,0.1v0l-0.2,0.4l-0.1,0.1c0,0.1-0.1,0.2-0.1,0.3c0,0,0,0,0,0.1c0,0,0,0,0,0c0,0,0,0,0,0.1c0,0,0,0,0,0
						c0,0.1-0.1,0.2-0.1,0.3v0l0,0c0,0.1-0.1,0.2-0.1,0.3c0,0,0,0,0,0c0,0.1-0.1,0.2-0.1,0.3c-0.1,0.4-0.2,0.9-0.2,1.3
						c0,1.3,0,2.6,0,4c0,0.2,0,0.3,0,0.5c0,0.1,0,0.2,0,0.4s0,0.3,0,0.4c0,0.3,0,0.7,0,1v0.1c0,0,0,0,0,0c0,0,0,0,0,0v0
						c0,0.2,0,0.4,0,0.7v0c0,0.3,0,0.6,0,0.9c0,0.5,0.1,1,0.1,1.5c0,0.1,0,0.3,0,0.4c0,0.3,0,0.7,0.1,1c0,0.1,0,0.2,0,0.3
						c0,0.2,0,0.4,0.1,0.7v0.1c0,0.3,0.1,0.7,0.1,1c0,0.2,0,0.4,0.1,0.6c0,0.4,0.1,0.8,0.1,1.2c0,0.3,0.1,0.6,0.1,1
						c0,0.3,0.1,0.6,0.1,0.9v0.1c0,0.1,0,0.1,0,0.2c0,0.3,0.1,0.6,0.1,0.9c0,0.2,0,0.3,0,0.5c0,0.1,0,0.2,0,0.2c0,0,0,0,0,0.1
						c0.1,0.6,0.1,1.3,0.2,1.9c0.1,0.7,0.2,1.3,0.3,2c0,0,0,0.1,0,0.1c0,0.2,0,0.4,0.1,0.5c0,0.3,0.1,0.7,0.1,1c0,0.2,0,0.3,0.1,0.5
						c0,0.3,0.1,0.6,0.1,0.9c0.1,0.4,0.1,0.8,0.2,1.2c0.1,0.4,0.1,0.8,0.2,1.2c0,0.3,0.1,0.6,0.1,1c0,0.2,0.1,0.4,0.1,0.5
						c0,0.2,0.1,0.4,0.1,0.6c0,0.2,0.1,0.5,0.1,0.7c0,0,0,0.1,0,0.1c0,0.3,0.1,0.5,0.1,0.8c0.1,0.8,0.3,1.7,0.4,2.5
						c0,0.1,0,0.3,0.1,0.4c0,0.2,0.1,0.4,0.1,0.6c0.1,0.3,0.1,0.7,0.2,1.1l0.2,1.1c0.2,1.1,0.3,2.1,0.5,3.2c0.1,0.3,0.1,0.7,0.2,1.1
						c0,0,0,0.1,0,0.2c0,0,0,0,0,0.1c0.1,0.7,0.2,1.3,0.3,2c0,0.2,0.1,0.4,0.1,0.6c0,0.2,0.1,0.4,0.1,0.7c0.1,0.4,0.1,0.8,0.2,1.1
						c0.1,0.8,0.3,1.6,0.4,2.4c0,0.2,0.1,0.4,0.1,0.6c0.2,1.2,0.4,2.3,0.6,3.5c0,0.1,0,0.1,0,0.2c0.2,1.1,0.4,2.2,0.6,3.3
						c0.1,0.4,0.1,0.8,0.2,1.2c0.1,0.5,0.2,1,0.3,1.5c0,0.2,0.1,0.3,0.1,0.5c0,0.3,0.1,0.5,0.1,0.7c0.1,0.6,0.2,1.1,0.3,1.7
						c0.2,1.1,0.4,2.3,0.6,3.4c0.2,0.8,0.3,1.7,0.5,2.5c0,0.2,0.1,0.4,0.1,0.6c0.1,0.4,0.1,0.7,0.2,1.1c0.1,0.3,0.1,0.6,0.2,0.8
						c0,0.3,0.1,0.5,0.2,0.8c0,0.2,0.1,0.4,0.1,0.6c0.1,0.3,0.1,0.6,0.2,1c0,0,0,0.1,0,0.1c0,0.2,0.1,0.4,0.1,0.6c0,0.1,0,0.2,0,0.3
						c0.2,1,0.4,1.9,0.6,2.8c0.1,0.3,0.1,0.7,0.2,1c0,0,0,0.1,0,0.1c0.1,0.6,0.3,1.3,0.4,1.9c0.1,0.3,0.1,0.6,0.2,0.9
						c0,0.1,0,0.2,0.1,0.3c0,0.2,0.1,0.5,0.1,0.7c0.1,0.3,0.1,0.6,0.2,1c0,0.1,0,0.2,0.1,0.3c0,0.2,0.1,0.3,0.1,0.5c0,0,0,0.1,0,0.2
						c0,0.1,0,0.2,0.1,0.3c0.2,1,0.4,2,0.6,2.9c0,0.2,0.1,0.4,0.1,0.6c0,0.2,0.1,0.4,0.1,0.5c0.1,0.3,0.1,0.5,0.2,0.7
						c0,0.1,0,0.2,0.1,0.3c0.2,0.7,0.3,1.4,0.4,2.1c0,0.2,0.1,0.5,0.1,0.7c0,0.2,0.1,0.4,0.1,0.5c0,0,0,0.1,0,0.1c0,0,0,0.1,0,0.1
						c0,0.1,0,0.2,0.1,0.2c0,0.1,0,0.2,0,0.2c0.1,0.4,0.2,0.7,0.2,1.1c0,0,0,0.1,0,0.1c0,0.1,0,0.1,0,0.2c0,0.1,0.1,0.3,0.1,0.4
						c0.1,0.3,0.1,0.6,0.2,0.9c0,0.2,0.1,0.4,0.1,0.5c0,0.1,0,0.2,0,0.2c0,0.1,0,0.2,0.1,0.2c0,0.1,0,0.2,0,0.3
						c0,0.2,0.1,0.4,0.1,0.5v0h0c0,0.2,0.1,0.4,0.1,0.6c0.1,0.4,0.2,0.8,0.3,1.2c0.1,0.5,0.2,1,0.3,1.6c0.1,0.3,0.1,0.6,0.2,0.9
						c0,0.1,0,0.1,0,0.2c0,0.2,0.1,0.4,0.1,0.5c0.1,0.3,0.1,0.6,0.2,0.8c0,0.2,0.1,0.3,0.1,0.5c0,0.1,0,0.2,0,0.2
						c0.1,0.2,0.1,0.5,0.2,0.7c0,0.1,0,0.1,0,0.2c0,0.1,0,0.2,0.1,0.3c0,0.1,0,0.2,0.1,0.3c0,0.1,0,0.2,0.1,0.3c0,0.1,0,0.2,0.1,0.3
						c0,0.1,0.1,0.2,0.1,0.3c0,0,0,0.1,0,0.1c0,0.1,0,0.2,0.1,0.2c0,0.1,0,0.2,0.1,0.3c0.1,0.3,0.1,0.6,0.2,0.8c0,0.1,0,0.1,0,0.2
						c0,0,0,0,0,0c0,0,0,0,0,0.1c0,0,0,0.1,0,0.1c0,0,0,0,0,0.1c0,0.2,0.1,0.3,0.1,0.4c0,0,0,0,0,0c0,0,0,0,0,0v0c0,0,0,0,0,0
						c0,0,0,0,0,0c0,0,0,0,0,0H483c0.3-1,0.5-1.9,0.7-2.9c0.3-1.2,0.6-2.3,0.8-3.4c0.2-0.8,0.4-1.5,0.6-2.3c0.1-0.3,0.1-0.5,0.2-0.8
						c0-0.2,0.1-0.3,0.1-0.5c0.1-0.5,0.2-1,0.4-1.5v0c0.1-0.3,0.2-0.7,0.3-1c0.1-0.4,0.2-0.7,0.3-1.1c0.1-0.4,0.2-0.8,0.3-1.2
						c0.1-0.2,0.1-0.4,0.2-0.7c0-0.1,0-0.1,0-0.2c0.2-0.7,0.3-1.4,0.5-2.1c0-0.2,0.1-0.5,0.2-0.7c0.4-1.8,0.9-3.6,1.3-5.3
						c0.3-1.3,0.6-2.6,0.9-3.9c0.1-0.4,0.2-0.9,0.3-1.3C488.2,566,486.4,565.9,484.7,565.8z M393.6,490c0.5,0.2,1,0.3,1.4,0.5
						c0.3,0.1,0.6,0.2,0.8,0.4c0.8,0.3,1.5,0.7,2.2,1.2h0c0,0,0.1,0.1,0.1,0.1c0.2,0.1,0.4,0.3,0.6,0.4c0.2,0.2,0.5,0.3,0.7,0.5
						c0.5,0.3,0.9,0.7,1.3,1.1c1.4,1.3,2.6,2.9,3.4,4.6c0.2,0.5,0.4,1,0.6,1.4c0.1,0.3,0.2,0.5,0.3,0.8c0.1,0.3,0.1,0.5,0.2,0.8
						c0.1,0.3,0.1,0.5,0.2,0.8c0,0.2,0.1,0.4,0.1,0.6c0,0.1,0,0.3,0,0.4c0,0.2,0,0.3,0,0.5c0,0.3,0,0.6,0,0.9c0,0.6,0,1.1-0.1,1.7
						c0,0.1,0,0.1,0,0.2c0,0.2,0,0.3-0.1,0.5c0,0.2-0.1,0.4-0.1,0.6c-0.1,0.3-0.2,0.7-0.3,1c-0.1,0.3-0.2,0.5-0.3,0.8c0,0,0,0,0,0.1
						c-0.1,0.2-0.2,0.4-0.3,0.7c-0.1,0.2-0.2,0.5-0.3,0.7c0,0.1-0.1,0.2-0.2,0.3c0,0.1-0.1,0.2-0.2,0.3c-0.1,0.2-0.2,0.4-0.4,0.6
						c0,0,0,0,0,0c0,0,0,0-0.1,0.1c0,0.1-0.1,0.2-0.2,0.2c-0.1,0.2-0.2,0.3-0.3,0.5c-0.1,0.2-0.3,0.4-0.4,0.5
						c-0.1,0.1-0.2,0.2-0.3,0.3c-0.1,0.1-0.2,0.3-0.3,0.4c-0.1,0.1-0.2,0.2-0.3,0.3c0,0,0,0,0,0c0,0,0,0-0.1,0c0,0-0.1,0.1-0.1,0.2
						c-0.1,0.1-0.2,0.2-0.3,0.3c-0.1,0.1-0.2,0.2-0.3,0.3c-0.3,0.2-0.5,0.5-0.8,0.7c0,0-0.1,0.1-0.1,0.1c-0.1,0.1-0.2,0.1-0.3,0.2
						c-0.1,0-0.1,0.1-0.2,0.2c-0.5,0.4-1,0.7-1.5,1c-0.2,0.2-0.5,0.3-0.8,0.4c-0.1,0.1-0.3,0.2-0.4,0.2c-0.1,0-0.1,0.1-0.2,0.1
						c-0.1,0.1-0.3,0.1-0.4,0.2c-0.2,0.1-0.5,0.2-0.7,0.3c-0.1,0-0.1,0-0.2,0.1c0,0,0,0,0,0c0,0,0,0-0.1,0c0,0-0.1,0-0.1,0
						c-0.2,0.1-0.4,0.2-0.6,0.2c-0.2,0.1-0.3,0.1-0.5,0.2c-0.1,0-0.2,0.1-0.3,0.1c0,0,0,0,0,0c0,0,0,0-0.1,0c-0.1,0-0.2,0.1-0.4,0.1
						v0c0,0,0,0,0,0c-0.1,0-0.3,0.1-0.4,0.1c-0.3,0.1-0.6,0.1-0.9,0.2c-0.1,0-0.2,0.1-0.3,0.1c0,0-0.1,0-0.1,0c0,0-0.1,0-0.1,0
						c-0.1,0-0.2,0-0.3,0c-0.1,0-0.2,0-0.3,0.1c-0.2,0-0.4,0.1-0.5,0.1c-0.1,0-0.3,0-0.4,0.1c-0.2,0-0.5,0-0.7,0.1c0,0-0.1,0-0.1,0
						c-0.1,0-0.2,0-0.3,0h-0.1c-0.1,0-0.2,0-0.3,0h-0.1c0,0,0,0,0,0c-0.1,0-0.2,0-0.2,0h-0.1c-0.2,0-0.4,0-0.6,0c-0.4,0-0.8,0-1.2,0
						c-0.1,0-0.2,0-0.3,0c-0.1,0-0.3,0-0.4,0h0c-0.1,0-0.2,0-0.2,0h-0.1c0,0-0.1,0-0.1,0c-0.1,0-0.1,0-0.2,0c-0.1,0-0.2,0-0.3,0
						c-0.3,0-0.5-0.1-0.8-0.1h0c0,0,0,0,0,0c0,0-0.1,0-0.1,0c-0.3-0.1-0.6-0.1-0.9-0.2c-0.2,0-0.4-0.1-0.6-0.1
						c-0.3-0.1-0.6-0.2-0.9-0.2c-0.1,0-0.2-0.1-0.4-0.1v0c-0.2,0-0.3-0.1-0.5-0.2c-0.1,0-0.3-0.1-0.4-0.1c-0.2-0.1-0.4-0.1-0.6-0.2
						c-0.1,0-0.1,0-0.2-0.1c0,0-0.1,0-0.1-0.1c-0.1,0-0.3-0.1-0.4-0.2c-0.1,0-0.2-0.1-0.2-0.1c-0.1,0-0.2-0.1-0.3-0.1
						c-0.2-0.1-0.3-0.1-0.5-0.2c0,0,0,0,0,0v0c0,0,0,0-0.1,0c0,0-0.1,0-0.1-0.1c-0.3-0.1-0.5-0.3-0.8-0.5c-0.1,0-0.1-0.1-0.2-0.1
						c0,0,0,0,0,0c-0.3-0.2-0.5-0.3-0.8-0.5c-0.5-0.4-1.1-0.8-1.6-1.2c-0.3-0.2-0.5-0.5-0.7-0.7c-0.2-0.2-0.5-0.5-0.7-0.7
						c-0.2-0.2-0.3-0.4-0.5-0.6c-0.2-0.3-0.5-0.6-0.7-0.9c0,0,0,0,0-0.1c-0.2-0.2-0.3-0.5-0.5-0.7c-0.1-0.2-0.2-0.4-0.3-0.5
						c-0.1-0.1-0.1-0.2-0.1-0.3c0,0-0.1-0.1-0.1-0.2c-0.1-0.3-0.3-0.5-0.4-0.8c-0.1-0.1-0.1-0.3-0.2-0.4c-0.1-0.2-0.1-0.3-0.2-0.5
						c0,0,0,0,0,0c-0.1-0.3-0.2-0.5-0.3-0.8c0-0.1,0-0.2-0.1-0.3c-0.1-0.2-0.1-0.4-0.1-0.6c0-0.1-0.1-0.3-0.1-0.4
						c0-0.2-0.1-0.4-0.1-0.6c-0.1-0.7-0.2-1.4-0.2-2.1c0-0.1,0-0.2,0-0.3c0-0.1,0-0.2,0-0.3c0-0.2,0-0.4,0-0.6c0-0.1,0-0.2,0-0.2
						c0-0.1,0-0.3,0.1-0.4c0-0.1,0-0.3,0.1-0.4c0,0,0-0.1,0-0.2c0-0.2,0.1-0.5,0.1-0.7c0,0,0-0.1,0-0.1c0.1-0.3,0.2-0.6,0.3-1
						c0,0,0-0.1,0-0.1c0-0.1,0-0.2,0.1-0.3c0-0.1,0-0.1,0.1-0.2c0.1-0.3,0.3-0.7,0.4-1c0,0,0-0.1,0-0.1c0.1-0.1,0.1-0.3,0.2-0.4
						c0.1-0.3,0.3-0.5,0.4-0.7c0.1-0.2,0.2-0.3,0.3-0.5c0.1-0.2,0.2-0.3,0.3-0.5c0.1-0.2,0.2-0.3,0.4-0.5c0,0,0.1-0.1,0.1-0.1
						c0,0,0.1-0.1,0.1-0.1c0.1-0.1,0.1-0.1,0.2-0.2c0-0.1,0.1-0.2,0.2-0.2c0.4-0.4,0.7-0.8,1.1-1.2c0.2-0.2,0.4-0.4,0.6-0.5
						c0.2-0.2,0.4-0.3,0.6-0.5c0,0,0,0,0.1,0c0.2-0.2,0.4-0.3,0.6-0.5c0.1-0.1,0.2-0.1,0.2-0.2c0.1-0.1,0.2-0.2,0.4-0.2l0,0
						c0,0,0,0,0.1,0c0.2-0.1,0.4-0.3,0.7-0.4c0.1-0.1,0.3-0.1,0.4-0.2c0.3-0.2,0.6-0.4,1-0.5c0.1,0,0.1-0.1,0.2-0.1
						c0.1-0.1,0.2-0.1,0.3-0.2c0.1,0,0.1-0.1,0.2-0.1h0c0.2-0.1,0.5-0.2,0.7-0.3c0.1,0,0.1-0.1,0.2-0.1c0,0,0.1,0,0.1,0
						c0.3-0.1,0.6-0.2,1-0.3c0.5-0.2,1-0.3,1.5-0.4c0.4-0.1,0.7-0.2,1.1-0.2c0.2,0,0.4-0.1,0.6-0.1c0.3,0,0.5-0.1,0.8-0.1
						c0.5-0.1,1.1-0.1,1.6-0.1c0.3,0,0.6,0,0.9,0c0.3,0,0.6,0,0.9,0c0.2,0,0.4,0,0.6,0c0.8,0.1,1.6,0.2,2.4,0.3
						c0.2,0,0.3,0.1,0.5,0.1c0.3,0,0.6,0.1,0.9,0.2C392.9,489.8,393.2,489.9,393.6,490z"/>
					<path class="st31" d="M405.6,504.8c0,8.7-8.2,15.8-18.3,15.8c-10.1,0-18.3-7.1-18.3-15.8c0-8.7,8.2-15.8,18.3-15.8
						C397.4,489,405.6,496.1,405.6,504.8L405.6,504.8z"/>
					<path class="st31" d="M493.5,504.8c0,8.7-8.2,15.8-18.3,15.8c-10.1,0-18.3-7.1-18.3-15.8c0-8.7,8.2-15.8,18.3-15.8
						C485.3,489,493.5,496.1,493.5,504.8L493.5,504.8z"/>
					<path class="st32" d="M405.5,506.7C405.5,506.7,405.5,506.7,405.5,506.7c-1.1,7.8-8.8,13.9-18.2,13.9c-4,0-7.7-1.1-10.7-3
						c3,1.9,6.7,3,10.7,3C396.7,520.6,404.4,514.5,405.5,506.7L405.5,506.7z"/>
					<path class="st33" d="M380.7,490.1c-6.9,2.3-11.8,8-11.8,14.7c0,5.3,3,10,7.6,12.8c3,1.9,6.7,3,10.7,3
						c9.4,0,17.1-6.1,18.2-13.9c-2,0.7-4.2,1-6.6,1c-10.1,0-18.3-7.1-18.3-15.8C380.6,491.3,380.6,490.7,380.7,490.1L380.7,490.1z"
						/>
					<path class="st17" d="M488.1,516L488.1,516L488.1,516C488,516,488,516,488.1,516C488.1,516,488.1,516,488.1,516
						c0.3-0.2,0.5-0.4,0.7-0.7c0,0,0.1-0.1,0.1-0.1c0.3-0.3,0.5-0.5,0.8-0.8c0,0,0,0,0,0c0,0,0,0,0,0c0,0,0.1-0.1,0.1-0.1
						c0.1-0.1,0.2-0.2,0.3-0.3c0,0,0,0,0.1-0.1c0.1-0.1,0.2-0.2,0.3-0.4c0,0,0,0,0,0c0,0,0,0,0,0c0.2-0.3,0.4-0.5,0.6-0.8
						c0,0,0,0,0,0c0,0,0,0,0,0c0,0,0,0,0,0c0,0,0,0,0-0.1c0.2-0.3,0.3-0.5,0.5-0.8 M461.6,515.5c0.1,0.1,0.2,0.2,0.3,0.2
						c0.1,0.1,0.1,0.1,0.2,0.2c0.4,0.3,0.7,0.6,1.1,0.9c0.1,0.1,0.2,0.1,0.3,0.2c0.2,0.2,0.5,0.3,0.7,0.5c0.1,0.1,0.2,0.1,0.3,0.2
						c0.4,0.3,0.8,0.5,1.2,0.7c0,0,0,0,0.1,0c0.1,0.1,0.2,0.1,0.3,0.2c0.1,0,0.2,0.1,0.3,0.1c0.1,0,0.2,0.1,0.2,0.1
						c0.2,0.1,0.4,0.2,0.7,0.3c0.5,0.2,1.1,0.4,1.7,0.6c0.1,0,0.2,0.1,0.3,0.1c0.1,0,0.2,0,0.2,0.1c0,0,0.1,0,0.1,0c0,0,0,0,0,0
						c0,0,0.1,0,0.1,0c0,0,0,0,0.1,0c0,0,0,0,0,0c0,0,0,0,0,0c0,0,0.1,0,0.2,0c0.2,0,0.3,0.1,0.5,0.1c0,0,0,0,0.1,0
						c0.3,0.1,0.6,0.1,0.9,0.2c0.1,0,0.2,0,0.3,0c0,0,0,0,0,0c0.1,0,0.2,0,0.3,0.1c0.2,0,0.4,0,0.6,0.1c0,0,0,0,0.1,0
						c0.1,0,0.2,0,0.3,0c0.7,0.1,1.4,0.1,2.1,0.1c0.2,0,0.4,0,0.6,0c0,0,0,0,0,0c0.1,0,0.2,0,0.3,0c0.3,0,0.6,0,0.9-0.1
						c0,0,0.1,0,0.1,0c0,0,0,0,0,0c0,0,0,0,0.1,0c0.4,0,0.7-0.1,1-0.1c0.2,0,0.4-0.1,0.6-0.1c0.3,0,0.5-0.1,0.8-0.2
						c0.3,0,0.5-0.1,0.8-0.2c0,0,0.1,0,0.1,0c0,0,0,0,0,0c0,0,0,0,0,0c0,0,0.1,0,0.1,0c0.3-0.1,0.5-0.1,0.7-0.2
						c0.3-0.1,0.6-0.2,0.8-0.3c0,0,0,0,0,0c0,0,0.1,0,0.1,0c0.1,0,0.1,0,0.2-0.1c0.1,0,0.3-0.1,0.4-0.2c0.2-0.1,0.4-0.2,0.6-0.3
						c0.1,0,0.1,0,0.2-0.1c0.1,0,0.1-0.1,0.2-0.1c0.1,0,0.2-0.1,0.3-0.2c0.1,0,0.3-0.1,0.4-0.2c0,0,0.1,0,0.1-0.1
						c0.2-0.1,0.4-0.2,0.6-0.3c0.2-0.1,0.5-0.3,0.7-0.4c0.1-0.1,0.2-0.1,0.3-0.2c0.2-0.1,0.4-0.2,0.5-0.4c0,0,0.1-0.1,0.1-0.1
						c0.1,0,0.1-0.1,0.2-0.2c0.1,0,0.1-0.1,0.2-0.1c0.1,0,0.1-0.1,0.2-0.2c0.1-0.1,0.2-0.2,0.4-0.3 M488.1,516L488.1,516L488.1,516
						c-0.1,0.1-0.2,0.2-0.4,0.3c-0.1,0.1-0.1,0.1-0.2,0.2c-0.1,0-0.1,0.1-0.2,0.1c-0.1,0-0.1,0.1-0.2,0.2c0,0-0.1,0.1-0.1,0.1
						c-0.2,0.1-0.4,0.3-0.5,0.4c-0.1,0.1-0.2,0.2-0.3,0.2c-0.2,0.2-0.5,0.3-0.7,0.4c-0.2,0.1-0.4,0.2-0.6,0.3c0,0-0.1,0-0.1,0.1
						c-0.1,0-0.2,0.1-0.3,0.1c0,0-0.1,0.1-0.1,0.1c-0.1,0.1-0.2,0.1-0.3,0.2c-0.1,0-0.1,0.1-0.2,0.1c-0.1,0-0.1,0-0.2,0.1
						c-0.2,0.1-0.4,0.2-0.6,0.3c-0.1,0-0.3,0.1-0.4,0.2c-0.1,0-0.1,0-0.2,0.1c0,0-0.1,0-0.1,0c0,0,0,0,0,0c-0.3,0.1-0.5,0.2-0.8,0.3
						c-0.2,0.1-0.5,0.1-0.7,0.2c0,0-0.1,0-0.2,0c0,0,0,0,0,0c0,0-0.1,0-0.1,0c-0.3,0.1-0.5,0.1-0.8,0.2c-0.3,0.1-0.5,0.1-0.8,0.2
						c-0.2,0-0.4,0.1-0.6,0.1c-0.2,0-0.5,0.1-0.7,0.1c-0.1,0-0.2,0-0.3,0c0,0,0,0-0.1,0c0,0,0,0,0,0c0,0,0,0,0,0c0,0,0,0-0.1,0
						c-0.1,0-0.2,0-0.3,0c-0.1,0-0.3,0-0.4,0c-0.1,0-0.1,0-0.2,0s-0.1,0-0.2,0c0,0-0.1,0-0.1,0c0,0,0,0,0,0c-0.2,0-0.4,0-0.6,0
						c-0.6,0-1.3,0-1.9-0.1c-0.1,0-0.1,0-0.2,0c-0.1,0-0.2,0-0.3,0c0,0,0,0-0.1,0c-0.2,0-0.4,0-0.6-0.1c-0.1,0-0.2,0-0.3,0
						c0,0-0.1,0-0.1,0c-0.1,0-0.2,0-0.3,0c-0.1,0-0.2,0-0.3-0.1c-0.1,0-0.1,0-0.2,0c-0.1,0-0.3,0-0.4-0.1c0,0,0,0-0.1,0
						c-0.2,0-0.4-0.1-0.5-0.1c-0.1,0-0.1,0-0.2,0c0,0,0,0,0,0s0,0,0,0c0,0,0,0-0.1,0c0,0-0.1,0-0.1,0c0,0,0,0,0,0c0,0-0.1,0-0.1,0
						c-0.2,0-0.3-0.1-0.5-0.1c0,0-0.1,0-0.1,0c-0.6-0.2-1.2-0.4-1.7-0.6c-0.1,0-0.2-0.1-0.3-0.1c-0.2-0.1-0.4-0.2-0.5-0.2
						c0,0-0.1,0-0.1,0c-0.1,0-0.2-0.1-0.3-0.1c-0.1,0-0.1-0.1-0.2-0.1c0,0-0.1,0-0.1-0.1c0,0,0,0-0.1,0c-0.4-0.2-0.8-0.4-1.2-0.7
						c-0.1-0.1-0.2-0.1-0.3-0.2c-0.2-0.1-0.5-0.3-0.7-0.5c-0.1-0.1-0.2-0.1-0.3-0.2c-0.4-0.3-0.8-0.6-1.1-0.9
						c-0.1,0-0.1-0.1-0.2-0.2c-0.1-0.1-0.2-0.2-0.3-0.2c-0.1-0.1-0.2-0.2-0.4-0.3c-0.1-0.1-0.2-0.2-0.3-0.3 M491.7,511.6
						C491.7,511.6,491.7,511.6,491.7,511.6c-0.2,0.4-0.4,0.6-0.5,0.9c0,0,0,0.1-0.1,0.1c0,0,0,0,0,0c0,0,0,0,0,0c0,0,0,0,0,0
						c-0.2,0.3-0.4,0.6-0.6,0.8c0,0,0,0,0,0c0,0,0,0,0,0c-0.1,0.1-0.2,0.3-0.3,0.4c0,0,0,0-0.1,0.1c-0.1,0.2-0.3,0.3-0.4,0.4
						c0,0,0,0,0,0.1c-0.3,0.3-0.5,0.5-0.8,0.8c0,0-0.1,0.1-0.1,0.1c-0.2,0.2-0.4,0.4-0.7,0.6c0,0,0,0-0.1,0v0c0,0,0,0,0,0
						 M491.7,511.6C491.7,511.6,491.7,511.6,491.7,511.6"/>
					<path class="st33" d="M468.6,490.1c-6.9,2.3-11.8,8-11.8,14.7c0,4,1.7,7.6,4.5,10.3c3.4,3.3,8.3,5.4,13.9,5.4
						c7.3,0,13.6-3.7,16.6-9c0,0,0,0,0,0c0,0,0,0,0,0c0.8-1.5,1.4-3.1,1.6-4.8c-2,0.7-4.3,1-6.6,1c-10.1,0-18.3-7.1-18.3-15.8
						C468.4,491.3,468.5,490.7,468.6,490.1L468.6,490.1z"/>
					<polygon class="st31" points="479.3,526.5 468.7,589.1 401,589.1 390.3,526.3 403.3,526.3 409.3,526.3 415.2,526.3 
						421.2,526.4 426.2,526.4 432.2,526.4 443.4,526.4 450.4,526.4 456.4,526.4 462.3,526.4 473.3,526.4 					"/>
					<polygon class="st18" points="432.2,526.4 432.8,589.1 428.3,589.1 426.2,526.4 					"/>
					<polygon class="st18" points="421.2,526.4 424.5,589.1 419.9,589.1 415.2,526.3 					"/>
					<polygon class="st18" points="409.3,526.3 415.4,589.1 410.8,589.1 403.3,526.3 					"/>
					<polygon class="st18" points="396.3,526.3 405.5,589.1 401,589.1 390.3,526.3 					"/>
					<polygon class="st18" points="479.3,526.5 468.7,589.1 464.1,589.1 473.3,526.4 					"/>
					<polygon class="st18" points="468.3,526.4 460.3,589.1 455.8,589.1 462.3,526.4 					"/>
					<polygon class="st18" points="456.4,526.4 451.2,589.1 446.7,589.1 450.4,526.4 					"/>
					<polygon class="st18" points="443.4,526.4 441.4,589.1 436.8,589.1 437.4,526.4 					"/>
					<polyline class="st17" points="492.9,363.6 492.9,363.6 492.9,363.6 492.9,363.6 492.9,363.6 					"/>
					<polygon class="st34" points="471.7,423.5 470.9,426.9 470.9,426.9 471.7,423.5 471.7,423.5 					"/>
					<polygon class="st35" points="470.9,426.9 470,430.9 470.9,426.9 470.9,426.9 					"/>
					<path class="st36" d="M461.7,467L461.7,467c0.1,0.1,0.2,0.2,0.3,0.3C461.9,467.2,461.8,467.1,461.7,467z M466.3,469.5
						C466.3,469.5,466.3,469.5,466.3,469.5c0.1,0,0.1,0,0.1,0C466.4,469.5,466.3,469.5,466.3,469.5z M468.2,469.5
						C468.2,469.5,468.2,469.5,468.2,469.5C468.2,469.5,468.2,469.5,468.2,469.5C468.2,469.5,468.2,469.5,468.2,469.5z M470.7,469.1
						c-0.2,0-0.3,0.1-0.5,0.1C470.4,469.2,470.5,469.1,470.7,469.1C470.7,469.1,470.8,469.1,470.7,469.1L470.7,469.1
						C470.8,469.1,470.8,469.1,470.7,469.1z M471,469C471.1,469,471.1,469,471,469L471,469C471.1,469,471.1,469,471,469z
						 M471.2,468.9C471.2,468.9,471.2,468.9,471.2,468.9C471.1,468.9,471.2,468.9,471.2,468.9c0.1,0,0.2,0,0.3-0.1
						C471.4,468.8,471.3,468.9,471.2,468.9z M472.5,468.4C472.5,468.4,472.5,468.4,472.5,468.4C472.6,468.4,472.6,468.4,472.5,468.4
						C472.6,468.4,472.5,468.4,472.5,468.4z M472.8,468.3C472.8,468.3,472.8,468.3,472.8,468.3C472.8,468.3,472.8,468.3,472.8,468.3
						c0.1,0,0.2-0.1,0.3-0.1C473,468.2,472.9,468.2,472.8,468.3z M473.9,467.7C473.9,467.7,473.9,467.7,473.9,467.7l0.5-1.4
						L473.9,467.7z"/>
					<path class="st29" d="M467.9,469.6L467.9,469.6c-0.2,0-0.3,0-0.4,0c-0.1,0-0.2,0-0.3,0h-0.1c0.1,0,0.3,0,0.4,0
						C467.7,469.6,467.8,469.6,467.9,469.6L467.9,469.6z"/>
					<polyline class="st17" points="404,428.5 404,428.5 404,428.5 					"/>
					<path class="st37" d="M405.6,435.3L405.6,435.3c0,0.2-0.1,0.3-0.1,0.5C405.5,435.6,405.6,435.4,405.6,435.3L405.6,435.3z"/>
					<path class="st38" d="M404,428.5c0.6,1.4,1.1,2.7,1.3,3.7c0.2,1.4,0.4,2.2,0.3,3l0,0c0.1-0.7,0-1.6-0.3-3
						C405.1,431.2,404.7,429.9,404,428.5L404,428.5z"/>
					<path class="st17" d="M403,438.6c0.2-0.2,0.3-0.3,0.5-0.4 M405.4,435.8C405.4,435.8,405.4,435.8,405.4,435.8
						c-0.1,0.3-0.2,0.5-0.4,0.7c0,0,0,0.1-0.1,0.1c-0.1,0.1-0.1,0.2-0.2,0.3 M379.2,433.1c0,0.1,0,0.2,0,0.3L379.2,433.1
						L379.2,433.1z M379.3,435.2c0-0.1,0-0.2,0-0.4c0,0.2,0,0.5,0.1,0.7C379.3,435.5,379.3,435.4,379.3,435.2z"/>
					<path class="st17" d="M381.3,442C381.3,442,381.3,442,381.3,442C381.4,442,381.4,442,381.3,442C381.4,442,381.4,442,381.3,442
						C381.4,442,381.4,442,381.3,442"/>
					<path class="st17" d="M442.1,432L442.1,432"/>
					<polyline class="st17" points="468.1,433.5 468.1,433.5 468.1,433.5 468.1,433.5 468.1,433.5 					"/>
					<path class="st17" d="M468.1,433.1C468.1,433.1,468.1,433.1,468.1,433.1c0,0.1,0,0.2,0,0.3c0,0,0,0,0,0
						C468.1,433.3,468.1,433.2,468.1,433.1"/>
					<path class="st38" d="M466.1,441.9c-0.5,0.6-1.4,1.2-2.4,1.6C464.7,443,465.6,442.5,466.1,441.9
						C466.1,441.9,466.1,441.9,466.1,441.9L466.1,441.9z"/>
					<g>
						<path class="st39" d="M465.3,434.8c0,0,0.1,4.9-1.4,7.1c-1.5,2.2-8.1,3.5-9.1,1.3c-4.3,0.5-4.9-1.4-4.9-1.4s-3.5,0.3-3.3-2.3
							c-2.2-2.1-2.3-2.3-1.8-5c0.5-2.6,3.1-7.4,5.8-8.8c2.7-1.4,6.1-2.3,10.8,2.6C465.5,432.6,465.3,434.8,465.3,434.8L465.3,434.8z
							"/>
						<path class="st40" d="M454.8,443.3c0.5-0.8,1.2-1.8,2.2-2.7c1.1-1.1,2.2-1.8,3.1-2.2c-0.6,0.8-1.3,1.8-2.4,2.8
							C456.6,442.1,455.6,442.8,454.8,443.3z"/>
						<path class="st40" d="M457.4,434.6c-1.4,1.1-2.8,2.4-4.3,3.9c-1.2,1.2-2.3,2.3-3.3,3.4c0.4-1,1.2-2.7,2.8-4.2
							C454.4,435.8,456.3,435,457.4,434.6z"/>
						<path class="st40" d="M454.1,430.3c-1.3,1-3,2.5-4.5,4.6c-1.3,1.7-2.3,3.4-2.9,4.8c0.2-1.1,0.7-3.2,2.4-5.4
							C450.8,431.8,453,430.7,454.1,430.3z"/>
					</g>
					<g>
						<path class="st39" d="M385.2,436.4c0,0,0.3,4.9,2,7c1.7,2,8.4,2.7,9.2,0.5c4.3,0.1,4.8-1.8,4.8-1.8s3.5-0.1,3.1-2.6
							c2-2.3,2.1-2.5,1.4-5.1c-0.7-2.6-3.7-7.1-6.5-8.2c-2.8-1.2-6.3-1.7-10.5,3.6C384.8,434.2,385.2,436.4,385.2,436.4L385.2,436.4
							z"/>
						<path class="st40" d="M396.4,443.8c-0.7-0.8-1.6-1.6-2.7-2.5c-1.1-0.8-2.1-1.5-3-2c0.6,0.8,1.5,1.7,2.7,2.6
							C394.5,442.8,395.6,443.4,396.4,443.8z"/>
						<path class="st40" d="M393,435.4c1.2,1.4,2.6,2.5,4,3.5l2.1,1.5c0.7,0.5,1.4,1,2.1,1.6c-0.4-0.5-0.9-1.3-1.7-2.1
							c-0.7-0.7-1.4-1.2-2.2-1.7C396.3,437.5,394.8,436.5,393,435.4z"/>
						<path class="st40" d="M396,430.8c1.4,1.6,2.8,2.9,4.3,4.3c0.7,0.7,1.4,1.3,2.1,2c0.7,0.7,1.4,1.4,1.9,2.3
							c-0.6-1.2-1.5-2.8-2.9-4.4C399.4,432.8,397.4,431.5,396,430.8z"/>
					</g>
				</g>
			</g>
			<g>
				<path class="st41" d="M531,315c0,0,12.1,9.6,25.1-7.6c12.9-17.2,5.7-55.9,6.4-79.5c0.7-23.6,23.1-64.4,23.1-64.4
					s-19.6,31.3-20.1,77.1c-0.4,45.8,2.6,58.9-4.4,71C554.1,323.6,532.7,320.1,531,315z"/>
				<path class="st41" d="M556.9,217.4c0,0,7.7,29.5-1.8,58.1s-19.7,32-19.7,32s14,8.4,18.8-10.1
					C559.1,278.8,565.5,242.6,556.9,217.4z"/>
				<path class="st41" d="M570.5,241.6c-2,29.2-2.4,63-5.9,75.3c-3.5,12.3-20.2,6.7-20.2,6.7s22.5,21.8,28.2-5.6
					C578.4,290.6,570.5,241.6,570.5,241.6z"/>
			</g>
			<path class="st3" d="M329.4,302.4c-3.1-24.9,15.3-44.3,40.3-42.7c7.4,0.5,14.7,2.9,21,6.8c-6.7-3-13.8-4.8-21.1-4.9
				C345.4,261.4,329.4,278.4,329.4,302.4L329.4,302.4z"/>
			<path class="st3" d="M486.3,249.8c14.9,9.2,20.2,28.9,10.1,43.6c-3.1,4.6-7.4,8.4-12.2,10.8c6.7-5,11.9-11.8,14.1-19.9
				C501.7,271.5,496,258.5,486.3,249.8L486.3,249.8z"/>
		</g>
		
			<linearGradient id="SVGID_00000127030840102563646160000002149425485510541746_" gradientUnits="userSpaceOnUse" x1="337.5635" y1="361.8223" x2="509.8946" y2="361.8223">
			<stop  offset="0.4118" style="stop-color:#E3F4FF"/>
			<stop  offset="0.7063" style="stop-color:#E1F3FF"/>
			<stop  offset="0.8516" style="stop-color:#D9F0FF"/>
			<stop  offset="0.9639" style="stop-color:#CCEAFF"/>
			<stop  offset="1" style="stop-color:#C6E7FF"/>
		</linearGradient>
		<path style="opacity:0.25;fill:url(#SVGID_00000127030840102563646160000002149425485510541746_);" d="M509.9,447.2
			c-11.3,4.3-22.6,8.7-33.9,13c-0.2-0.1-0.4-0.1-0.7-0.2c-2.3-0.8-4.3-2.1-5.8-3.4c-14.2,0-28.4,0-42.7,0c-15.4,0-30.8,0-46.2,0
			c-0.8,1.2-1.7,2.4-2.5,3.7c-13.5-4.4-27-8.7-40.5-13.1c0-61.3,0-122.6,0-183.9h172.3V447.2z"/>
		<g>
			<path class="st21" d="M332.8,447.2c0,0,0-183.9,0-183.9v-2.7l4.8-2.1c43.2-17.2,105.9-18.5,150.8-7.3c9,2.3,17.9,5.3,26.3,9.5
				c0,0,0,2.6,0,2.6s0,183.9,0,183.9h-9.5c0,0,0-183.9,0-183.9l4.8,4.8c-38.9,16.2-87.9,17.1-129.2,11.2
				c-14.6-2.3-29.3-5.5-43.1-11.2c0,0,4.8-4.8,4.8-4.8s0,183.9,0,183.9S332.8,447.2,332.8,447.2L332.8,447.2z"/>
		</g>
		<g>
			<polygon class="st18" points="491.5,368.2 505.4,322.7 531,316.2 525.3,330.4 517.4,329 500.9,371 491.5,368.2 			"/>
			<polygon class="st19" points="511.1,321.3 505.4,322.7 498.3,345.9 492.9,363.6 495.2,364.7 495.2,364.8 502,368.2 503.3,364.8 
				498.2,363.2 511.1,321.3 			"/>
			<polygon class="st19" points="519.2,324.1 517.4,329 525.3,330.4 527.6,324.6 519.2,324.1 			"/>
			<path class="st18" d="M461.4,466.6l25.6-106l21.6,11.1l-34.7,96.1C473.9,467.7,466.2,472.5,461.4,466.6L461.4,466.6z"/>
			<path class="st19" d="M486.9,360.5l-15.2,63l-0.8,3.4l-1,4l-8.6,35.7c1.8,2.2,3.9,2.9,5.9,3c0.1,0,0.2,0,0.3,0c0.1,0,0.2,0,0.3,0
				c3.2-0.1,6-1.8,6-1.8l0.9-2.4c-1.1-0.4-2.2-1.2-3.2-2.4l23.7-98.2l-2.3-1.2l0,0L486.9,360.5L486.9,360.5z"/>
		</g>
	</g>
	<g>
		<path class="st3" d="M378.9,206c11.1,13.3,27.1,22.4,44.4,24c5.7,0.6,11.5,0.4,17.4-0.3C418,236.9,391,226.5,378.9,206L378.9,206z
			"/>
		<path class="st3" d="M284.2,313.8c-14,10.1-18.7,26.9-11,42.5C261.9,342.3,267.7,320.8,284.2,313.8L284.2,313.8z"/>
	</g>
</g>
<circle class="st43" cx="425.3" cy="439.6" r="0.8"/>
<circle class="st43" cx="425.9" cy="432.3" r="0.8"/>
<circle class="st43" cx="422.4" cy="410.3" r="0.8"/>
</svg>
