<?xml version="1.0" encoding="utf-8"?>
<!-- Generator: Adobe Illustrator 26.0.1, SVG Export Plug-In . SVG Version: 6.00 Build 0)  -->
<svg version="1.1" id="Layer_1" xmlns="http://www.w3.org/2000/svg" xmlns:xlink="http://www.w3.org/1999/xlink" x="0px" y="0px"
	 viewBox="0 0 826 742" style="enable-background:new 0 0 826 742;" xml:space="preserve">
<style type="text/css">
	.st0{clip-path:url(#SVGID_00000120534632734403000260000000621695169571115447_);}
	.st1{fill:#F2D7B9;}
	.st2{fill:#E5C49D;}
	.st3{fill:#D8B182;}
	.st4{fill:#EF303E;}
	.st5{fill:#C4233E;}
	.st6{fill:#414042;}
	.st7{fill:#58595B;}
	.st8{fill:#F24C4C;}
	.st9{fill:#395E99;}
	.st10{fill:#FFFFFF;}
	.st11{fill:#D1D1D1;}
	.st12{fill:#F4A671;}
	.st13{clip-path:url(#SVGID_00000031909149084880577920000012165746432950313633_);}
	.st14{fill:#F4CCAB;}
	.st15{fill:#211511;}
	.st16{fill:#E5E5E5;}
	.st17{fill:#DD915E;}
	.st18{fill:#1E1A14;}
	.st19{fill:#921F33;}
	.st20{fill:#CD3735;}
	.st21{fill:#96753B;}
	.st22{fill:#140408;}
	.st23{fill:#CE2026;}
	.st24{fill:#89513A;}
	.st25{fill:#B5794D;}
	.st26{fill:#E09A61;}
	.st27{fill:#301F1D;}
	.st28{fill:#DC2428;}
	.st29{fill:#C47947;}
	.st30{fill:#231F20;}
	.st31{fill:#603813;}
	.st32{fill:#F5B4B8;}
	.st33{fill:#FCE9ED;}
	.st34{fill:#282125;}
	.st35{fill:#1F1A1C;}
	.st36{fill:#FFF7EF;}
	.st37{fill:#E59B9D;}
	.st38{fill:#F5EFEC;}
	.st39{fill:none;stroke:#2E2A2B;stroke-width:0.1576;stroke-linecap:round;stroke-linejoin:round;stroke-miterlimit:10;}
	.st40{fill:#443E42;}
	.st41{fill:#2E2A2B;}
	.st42{fill:#524A50;}
	.st43{fill:#F4D3BB;}
	.st44{fill:#FFC7D0;}
	.st45{fill:#262626;}
	.st46{fill:#FFD7DC;}
	.st47{fill:#EF6F7B;}
	.st48{clip-path:url(#SVGID_00000120534632734403000260000000621695169571115447_);fill:#CE2026;}
	.st49{clip-path:url(#SVGID_00000120534632734403000260000000621695169571115447_);fill:#262626;}
	.st50{clip-path:url(#SVGID_00000120534632734403000260000000621695169571115447_);fill:#020202;}
</style>
<g>
	<g>
		<defs>
			<path id="SVGID_1_" d="M793.3,564.9C680,776.6,158.2,747.7,59.7,598.3C-23.7,471.8,43,359.5,142.5,317.6
				c-0.1-1.7,121.2-26.4,122.2-43.3c9.7-14.1,5.9-28.9,5.5-44.8c3.6-84.4,88-184.9,197.6-161.1c55.5,17.1,66.9,101.7,145.7,118.5
				c29.9,7.7,41.5,3.4,59.3,9.5c31.8,10.9,46.3,46.3,47.6,49.6c18.9,47.8-29.9,71.9-28.3,128.8C694.5,459.3,804.5,489.2,793.3,564.9
				z"/>
		</defs>
		<clipPath id="SVGID_00000098942083262936657180000007530209703726648234_">
			<use xlink:href="#SVGID_1_"  style="overflow:visible;"/>
		</clipPath>
		<g style="clip-path:url(#SVGID_00000098942083262936657180000007530209703726648234_);">
			<path class="st1" d="M793.3,564.9C680,776.6,158.2,747.7,59.7,598.3C-23.7,471.8,43,359.5,142.5,317.6
				c-0.1-1.7,121.2-26.4,122.2-43.3c9.7-14.1,5.9-28.9,5.5-44.8c3.6-84.4,88-184.9,197.6-161.1c55.5,17.1,66.9,101.7,145.7,118.5
				c29.9,7.7,41.5,3.4,59.3,9.5c31.8,10.9,46.3,46.3,47.6,49.6c18.9,47.8-29.9,71.9-28.3,128.8C694.5,459.3,804.5,489.2,793.3,564.9
				z"/>
			<path class="st2" d="M821.4,567.1c-2.8,11-9,29.9-24.8,49.6C674.8,769,148.7,763.5,23.3,594.9C1.1,565-4.7,535.2-6.3,515.5
				c142.8-6,292.9-9.5,449.7-9.6c121.9,0,239.7,2,353.2,5.7C813.9,527.8,825.7,545.2,821.4,567.1z"/>
			<ellipse class="st3" cx="401.7" cy="597.4" rx="279" ry="83.3"/>
		</g>
		<g style="clip-path:url(#SVGID_00000098942083262936657180000007530209703726648234_);">
			<g>
				<g>
					<g id="_x35__00000043417104844204580300000008880095762657899684_">
						<g>
							<path class="st4" d="M366.2,558.6C366.3,558.6,366.3,558.6,366.2,558.6c1.8-2,4.3-3.3,6.9-3.4c1,0,1.8,0.1,2.5,0.3
								c1.2,0.3,2.1,1.5,2,2.8l0,0c0,0-8.9,5.5-10.6,4.3c-0.3-0.2-0.6-0.4-0.8-0.7C365.4,561,365.4,559.6,366.2,558.6z"/>
							<path class="st5" d="M366.8,559.1C366.9,559.1,366.9,559.1,366.8,559.1c1.7-1.8,4-2.9,6.4-3.2c0.9-0.1,1.6,0,2.2,0.1
								c1.1,0.2,1.8,1.1,1.6,2.1l0,0c0,0-8.3,5-9.8,4.2c-0.3-0.1-0.5-0.3-0.6-0.5C365.9,561.1,366,559.9,366.8,559.1z"/>
						</g>
						<g>
							
								<rect x="379.6" y="558.1" transform="matrix(-0.8899 0.4561 -0.4561 -0.8899 976.0403 881.6785)" class="st6" width="4" height="1"/>
							<g>
								<g>
									
										<rect x="378.6" y="558.6" transform="matrix(0.8899 -0.4561 0.4561 0.8899 -213.4104 234.8631)" class="st4" width="2.6" height="1.9"/>
								</g>
								<path class="st7" d="M349.7,568.5c0-0.5,0.1-1,0.4-1.4l0.5,0.9L349.7,568.5z"/>
								<path class="st8" d="M346.4,568.2c2.4-1.3,5.5-3,8.8-4.7c0.3-0.1,0.6-0.3,0.8-0.4c1.5-0.8,3-1.6,4.4-2.4l1.5,0.5l-16.7,8.6
									C345.4,569.1,345.8,568.5,346.4,568.2z"/>
								<path class="st4" d="M345.4,571.3c-0.1-0.2-0.2-0.4-0.2-0.6c-0.1-0.3-0.1-0.7,0-1l16.7-8.6l0.9,0.3l0.4,3.5l0.2,1.9l0.1-0.8
									l12-6.2l0.1,0.2l0.6,1l0.7,1.1l-28.7,14.7L345.4,571.3z"/>
								<polygon class="st5" points="377,562.2 377.2,562.5 376.2,563 375.4,563.4 374.4,563.9 372.4,564.9 371.4,565.5 
									370.6,565.9 370.1,566.2 368.9,568.6 357.2,574.7 355.1,574 354.8,574.1 354.4,574.3 350.2,576.5 349.7,576.8 349,577.2 
									348.5,577.4 348.3,576.9 								"/>
								<polygon class="st9" points="358.1,566.2 359.7,566.7 363.2,565 363.3,566.2 363.5,566.1 363.6,567.2 352.6,572.8 
									351.1,572 351,569.8 								"/>
								<g>
									<path class="st6" d="M367.2,567.1c1.7,3.3,5.7,4.6,9,2.9c3.3-1.7,4.6-5.7,2.9-9c-1.7-3.3-5.7-4.6-9-2.9
										C366.9,559.8,365.6,563.8,367.2,567.1z"/>
									<g>
										<path class="st6" d="M370.4,557.3l1.4-0.7c0.4-0.2,0.8,0,0.9,0.4l0.3,1.2l-2.5,0.5l-0.3-0.6
											C370,557.9,370.1,557.5,370.4,557.3z"/>
										<path class="st6" d="M375.9,558.9l-2.5-0.8l0-0.6c0-0.3,0.3-0.6,0.6-0.6l1.6,0.1c0.4,0,0.7,0.4,0.5,0.8L375.9,558.9z"/>
										<path class="st6" d="M378.1,561l-1.7-2l0.3-0.5c0.2-0.3,0.6-0.4,0.8-0.2l1.4,0.9c0.3,0.2,0.4,0.7,0.1,1L378.1,561z"/>
										<path class="st6" d="M378.5,561.3l0.6-0.3c0.3-0.2,0.7,0,0.8,0.3l0.7,1.4c0.2,0.4,0,0.8-0.4,0.9l-1.2,0.3L378.5,561.3z"/>
										<path class="st6" d="M379.1,564.3l0.6,0c0.3,0,0.6,0.3,0.6,0.6l-0.1,1.6c0,0.4-0.4,0.7-0.8,0.5l-1.2-0.4L379.1,564.3z"/>
										<path class="st6" d="M378.7,567.6c0.3,0.2,0.4,0.6,0.2,0.8l-0.9,1.4c-0.2,0.3-0.7,0.4-1,0.1l-0.8-0.9l2-1.7L378.7,567.6z"
											/>
										<path class="st6" d="M373.4,569.8l2.5-0.5l0.3,0.6c0.2,0.3,0,0.7-0.3,0.8l-1.4,0.7c-0.4,0.2-0.8,0-0.9-0.4L373.4,569.8z"
											/>
										<path class="st6" d="M370.4,569.2l2.5,0.8l0,0.6c0,0.3-0.3,0.6-0.6,0.6l-1.6-0.1c-0.4,0-0.7-0.4-0.5-0.8L370.4,569.2z"/>
										<path class="st6" d="M367.3,567.9l0.9-0.8l1.7,2l-0.3,0.5c-0.2,0.3-0.6,0.4-0.8,0.2l-1.4-0.9
											C367.1,568.7,367,568.2,367.3,567.9z"/>
										<path class="st6" d="M367.9,566.8l-0.6,0.3c-0.3,0.2-0.7,0-0.8-0.3l-0.7-1.4c-0.2-0.4,0-0.8,0.4-0.9l1.2-0.3L367.9,566.8z
											"/>
										<path class="st6" d="M367.2,563.7l-0.6,0c-0.3,0-0.6-0.3-0.6-0.6l0.1-1.6c0-0.4,0.4-0.7,0.8-0.5l1.2,0.4L367.2,563.7z"/>
										<path class="st6" d="M367.6,560.4c-0.3-0.2-0.4-0.6-0.2-0.8l0.9-1.4c0.2-0.3,0.7-0.4,1-0.1l0.8,0.9l-2,1.7L367.6,560.4z"
											/>
									</g>
									<path class="st10" d="M369.4,566c-1.1-2.1-0.2-4.7,1.9-5.8c1-0.5,2.1-0.6,3-0.3l-2.6,8.2C370.7,567.7,369.9,567,369.4,566z
										"/>
									<path class="st11" d="M374.3,559.9c1.1,0.3,2.2,1.1,2.7,2.2c1.1,2.1,0.2,4.7-1.9,5.8c-1.1,0.6-2.4,0.6-3.5,0.2L374.3,559.9
										z"/>
									<path class="st6" d="M371.1,565.1c0.6,1.1,2,1.6,3.1,1c1.1-0.6,1.6-2,1-3.1c-0.6-1.1-2-1.6-3.1-1
										C371,562.6,370.6,564,371.1,565.1z"/>
									<g>
										<path class="st6" d="M373,560.1c0.2-0.1,0.5,0,0.6,0.2c0.1,0.2,0,0.5-0.2,0.6c-0.2,0.1-0.5,0-0.6-0.2
											C372.7,560.5,372.8,560.2,373,560.1z"/>
										<path class="st6" d="M375.5,560.8c0.3,0.1,0.4,0.3,0.4,0.6c-0.1,0.3-0.3,0.4-0.6,0.4c-0.3-0.1-0.4-0.3-0.4-0.6
											C375,560.9,375.3,560.8,375.5,560.8z"/>
										<path class="st6" d="M376.4,563c0.2-0.2,0.5-0.1,0.7,0.1c0.2,0.2,0.1,0.5-0.1,0.7c-0.2,0.2-0.5,0.1-0.7-0.1
											C376.1,563.4,376.2,563.1,376.4,563z"/>
										<path class="st6" d="M376.3,565.2c0.3,0,0.5,0.2,0.4,0.5c0,0.3-0.2,0.5-0.5,0.4c-0.3,0-0.5-0.2-0.4-0.5
											C375.8,565.4,376,565.2,376.3,565.2z"/>
										<path class="st6" d="M374.1,566.9c0.2-0.2,0.5-0.2,0.7,0c0.2,0.2,0.2,0.5,0,0.7c-0.2,0.2-0.5,0.2-0.7,0
											C373.9,567.4,373.9,567.1,374.1,566.9z"/>
										<path class="st6" d="M372,566.8c0.3,0,0.5,0.2,0.5,0.4c0,0.3-0.1,0.5-0.4,0.5c-0.3,0-0.5-0.2-0.5-0.4
											C371.6,567,371.8,566.8,372,566.8z"/>
										<path class="st6" d="M369.9,565.5c0.1-0.2,0.4-0.3,0.6-0.1c0.2,0.1,0.3,0.4,0.1,0.6c-0.1,0.2-0.4,0.3-0.6,0.1
											C369.8,566,369.7,565.7,369.9,565.5z"/>
										<path class="st6" d="M369.9,563.8c-0.2,0.1-0.5-0.1-0.6-0.3c-0.1-0.2,0.1-0.5,0.3-0.6c0.2-0.1,0.5,0.1,0.6,0.3
											C370.3,563.5,370.2,563.8,369.9,563.8z"/>
										<path class="st6" d="M371.2,560.9c0.2,0.1,0.4,0.4,0.3,0.6c-0.1,0.2-0.4,0.4-0.6,0.2c-0.2-0.1-0.4-0.4-0.3-0.6
											C370.6,560.9,370.9,560.8,371.2,560.9z"/>
									</g>
									<path class="st4" d="M372.1,564.6c0.3,0.6,1,0.8,1.6,0.5c0.6-0.3,0.8-1,0.5-1.6c-0.3-0.6-1-0.8-1.6-0.5
										C372,563.3,371.8,564,372.1,564.6z"/>
								</g>
								<g>
									<path class="st6" d="M348.1,579.4c1.3,2.6,4.5,3.6,7.1,2.3s3.6-4.5,2.3-7.1c-1.3-2.6-4.5-3.6-7.1-2.3
										C347.8,573.6,346.8,576.8,348.1,579.4z"/>
									<path class="st10" d="M349.4,578.7c-1-1.9-0.2-4.2,1.7-5.1c1-0.5,2.1-0.5,3-0.2l-2.3,7.3
										C350.7,580.3,349.9,579.7,349.4,578.7z"/>
									<path class="st11" d="M354,573.4c0.9,0.3,1.7,1,2.1,1.9c1,1.9,0.2,4.2-1.7,5.1c-0.9,0.5-1.9,0.5-2.8,0.3L354,573.4z"/>
									<path class="st6" d="M351.6,577.6c0.3,0.6,1.1,0.9,1.8,0.6c0.6-0.3,0.9-1.1,0.6-1.8c-0.3-0.6-1.1-0.9-1.8-0.6
										C351.5,576.1,351.3,576.9,351.6,577.6z"/>
									<g>
										<circle class="st6" cx="352.8" cy="573.8" r="0.4"/>
										<path class="st6" d="M354.9,574.1c0.2,0.1,0.4,0.3,0.3,0.5c-0.1,0.2-0.3,0.4-0.5,0.3c-0.2-0.1-0.4-0.3-0.3-0.5
											C354.4,574.2,354.6,574.1,354.9,574.1z"/>
										<path class="st6" d="M355.6,576c0.2-0.1,0.4-0.1,0.6,0.1c0.1,0.2,0.1,0.4-0.1,0.6c-0.2,0.1-0.4,0.1-0.6-0.1
											C355.4,576.4,355.4,576.2,355.6,576z"/>
										<path class="st6" d="M355.5,578c0.2,0,0.4,0.2,0.4,0.4c0,0.2-0.2,0.4-0.4,0.4c-0.2,0-0.4-0.2-0.4-0.4
											C355.1,578.2,355.3,578,355.5,578z"/>
										<path class="st6" d="M353.6,579.5c0.2-0.2,0.4-0.2,0.6,0c0.2,0.2,0.2,0.4,0,0.6c-0.2,0.2-0.4,0.2-0.6,0
											C353.5,580,353.4,579.7,353.6,579.5z"/>
										<path class="st6" d="M351.7,579.4c0.2,0,0.4,0.1,0.5,0.4c0,0.2-0.1,0.4-0.4,0.5c-0.2,0-0.4-0.1-0.5-0.4
											C351.4,579.6,351.5,579.4,351.7,579.4z"/>
										<path class="st6" d="M349.8,578.3c0.1-0.2,0.4-0.2,0.6-0.1c0.2,0.1,0.2,0.4,0.1,0.6c-0.1,0.2-0.4,0.2-0.6,0.1
											C349.7,578.7,349.7,578.5,349.8,578.3z"/>
										<path class="st6" d="M349.9,576.8c-0.2,0.1-0.5-0.1-0.5-0.3c-0.1-0.2,0.1-0.5,0.3-0.5c0.2-0.1,0.5,0.1,0.5,0.3
											C350.2,576.5,350.1,576.7,349.9,576.8z"/>
										<path class="st6" d="M351,574.2c0.2,0.1,0.3,0.3,0.2,0.5c-0.1,0.2-0.3,0.3-0.5,0.2c-0.2-0.1-0.3-0.3-0.2-0.5
											C350.5,574.2,350.8,574.1,351,574.2z"/>
									</g>
								</g>
								<g>
									<path class="st6" d="M345.4,571.3l0.1,0.1l1-0.5c0.1-0.1,0.2-0.1,0.2-0.2c0-0.1,0-0.2,0-0.3c-0.1-0.2-0.3-0.3-0.5-0.2
										l-0.9,0.5C345.3,570.9,345.3,571.1,345.4,571.3z"/>
									<path class="st6" d="M345.7,571.8l0.4,0.7l1-0.5c0.1-0.1,0.2-0.1,0.2-0.2c0-0.1,0-0.2,0-0.3c-0.1-0.2-0.3-0.3-0.5-0.2
										L345.7,571.8z"/>
									<path class="st6" d="M346.2,572.8l0.4,0.7l1-0.5c0.1-0.1,0.2-0.1,0.2-0.2c0-0.1,0-0.2,0-0.3c-0.1-0.2-0.3-0.3-0.5-0.2
										L346.2,572.8z"/>
									<path class="st6" d="M346.7,573.9l0.4,0.7l1-0.5c0.1-0.1,0.2-0.1,0.2-0.2c0-0.1,0-0.2,0-0.3c-0.1-0.2-0.3-0.3-0.5-0.2
										L346.7,573.9z"/>
									
										<rect x="357.2" y="562.6" transform="matrix(0.8899 -0.4561 0.4561 0.8899 -217.2141 225.6323)" class="st6" width="3.3" height="0.4"/>
									
										<rect x="357.6" y="563.3" transform="matrix(0.8899 -0.4561 0.4561 0.8899 -217.5023 225.8803)" class="st6" width="3.3" height="0.4"/>
									
										<rect x="357.9" y="564.1" transform="matrix(0.8899 -0.4561 0.4561 0.8899 -217.7905 226.1283)" class="st6" width="3.3" height="0.4"/>
								</g>
								<path class="st6" d="M360.3,560.3c0.3,0.2,0.6,0.3,1,0.4l-0.1,0.2l0.8,0.5l0.1-0.6c0.7,0,1.3-0.1,1.7-0.3l0,0
									c0.4-0.2,0.6-0.4,0.6-0.7c0.1-0.7-1-1.3-2.3-1.4c-0.7-0.1-1.4,0.1-1.9,0.3c-0.4,0.2-0.6,0.4-0.6,0.7
									C359.6,559.7,359.9,560.1,360.3,560.3z M363.8,559.2l-1.7,1.2l-0.6-0.1l-1-1.4c0.4-0.1,1-0.2,1.5-0.2
									C362.8,558.7,363.5,558.9,363.8,559.2z M363.8,560.2c-0.4,0.2-0.9,0.3-1.4,0.3l1.7-1.2c0.1,0.1,0.2,0.3,0.2,0.4
									C364.2,559.9,364,560.1,363.8,560.2L363.8,560.2z M359.9,559.4c0-0.2,0.2-0.4,0.4-0.5c0,0,0,0,0,0l1,1.4l0,0.1
									c-0.3-0.1-0.7-0.2-0.9-0.3C360.1,559.9,359.9,559.6,359.9,559.4z"/>
							</g>
						</g>
					</g>
					<g>
						<path class="st12" d="M380.4,556c2.4,2.2,1.8,6.1-1.2,7.4c-0.3,0.1-0.6,0.2-1,0.3c-2,0.4-3.8,0.6-3.8,0.6s-3.6,2.8-4.9,2.9
							c-1.5,0.2-2.3-0.4-2.3-1c0-0.6,2.8-2.4,3.6-3.2c0.9-0.7,2.8-2.2,2.8-2.2l-4.1-1.9c0,0-6,3.7-7.1,3.5c-1.1-0.2-1.3-0.5-1.3-0.5
							s-2.7,1.4-3.7-0.3c4.7-4.1,7.4-5.5,8.9-6.1C367.5,554.9,379.1,554.9,380.4,556C380.3,556,380.4,556,380.4,556z"/>
						<path class="st12" d="M381.2,560.2c0,0-3.2,0.3-5.1-0.4c-1.9-0.7-7.9-3.9-7.9-3.9s-3.7,1.9-4.7,2.5c-1,0.7-2.8,2.5-4,2.7
							c-1.2,0.2-2.1-0.3-1.9-0.7c0.2-0.4,3.6-4,4.1-4.5c0.5-0.5,4.7-3.2,6-3.5c1.3-0.4,7.1,0.4,10.4,1.7
							C381.3,555.4,381.5,559.5,381.2,560.2z"/>
					</g>
					<path class="st12" d="M380.7,558.4c0.6,1.1,0.3,2.4,0.9,2.5c0.4,0.1,0.6-0.4,1.7-0.8c0.5-0.2,0.9-0.3,1.5-0.3
						c0.8-0.1,2-0.3,3.7-0.4c-0.3-2.2-0.6-4.5-0.9-6.7c-1.8,0.7-3.2,1-4.2,1c-2.6,0.2-5.8-0.4-6.1-0.4c-1.5-0.2-3.1-0.2-3.1-0.2
						s0.5,1.6,0.7,1.8C376.7,557.3,379.6,556.4,380.7,558.4z"/>
					<g>
						<defs>
							<path id="SVGID_00000013192912052293614370000005794657308086975671_" d="M367.9,557.1c1.2,0,2.6-0.1,3.8,0.8
								c1.2,0.8,1.6,2.2,1.8,3.1c-1.8,1.1-4.7,2.5-8.4,3.2c-3.5,0.6-10.7,1.1-11.7-1.5c-0.7-1.9,1.6-5.2,4.4-6.4
								C360.7,555.1,361.6,557.2,367.9,557.1z"/>
						</defs>
						<clipPath id="SVGID_00000049191979123508803950000009191769567054003628_">
							<use xlink:href="#SVGID_00000013192912052293614370000005794657308086975671_"  style="overflow:visible;"/>
						</clipPath>
						
							<g id="_x35__00000126282477653371581290000011124775987308628146_" style="clip-path:url(#SVGID_00000049191979123508803950000009191769567054003628_);">
							<g>
								<path class="st4" d="M366.2,558.6C366.3,558.6,366.3,558.6,366.2,558.6c1.8-2,4.3-3.3,6.9-3.4c1,0,1.8,0.1,2.5,0.3
									c1.2,0.3,2.1,1.5,2,2.8l0,0c0,0-8.9,5.5-10.6,4.3c-0.3-0.2-0.6-0.4-0.8-0.7C365.4,561,365.4,559.6,366.2,558.6z"/>
								<path class="st5" d="M366.8,559.1C366.9,559.1,366.9,559.1,366.8,559.1c1.7-1.8,4-2.9,6.4-3.2c0.9-0.1,1.6,0,2.2,0.1
									c1.1,0.2,1.8,1.1,1.6,2.1l0,0c0,0-8.3,5-9.8,4.2c-0.3-0.1-0.5-0.3-0.6-0.5C365.9,561.1,366,559.9,366.8,559.1z"/>
							</g>
							<g>
								
									<rect x="379.6" y="558.1" transform="matrix(-0.8899 0.4561 -0.4561 -0.8899 976.0403 881.6785)" class="st6" width="4" height="1"/>
								<g>
									<g>
										
											<rect x="378.6" y="558.6" transform="matrix(0.8899 -0.4561 0.4561 0.8899 -213.4104 234.8631)" class="st4" width="2.6" height="1.9"/>
									</g>
									<path class="st7" d="M349.7,568.5c0-0.5,0.1-1,0.4-1.4l0.5,0.9L349.7,568.5z"/>
									<path class="st8" d="M346.4,568.2c2.4-1.3,5.5-3,8.8-4.7c0.3-0.1,0.6-0.3,0.8-0.4c1.5-0.8,3-1.6,4.4-2.4l1.5,0.5l-16.7,8.6
										C345.4,569.1,345.8,568.5,346.4,568.2z"/>
									<path class="st4" d="M345.4,571.3c-0.1-0.2-0.2-0.4-0.2-0.6c-0.1-0.3-0.1-0.7,0-1l16.7-8.6l0.9,0.3l0.4,3.5l0.2,1.9
										l0.1-0.8l12-6.2l0.1,0.2l0.6,1l0.7,1.1l-28.7,14.7L345.4,571.3z"/>
									<polygon class="st5" points="377,562.2 377.2,562.5 376.2,563 375.4,563.4 374.4,563.9 372.4,564.9 371.4,565.5 
										370.6,565.9 370.1,566.2 368.9,568.6 357.2,574.7 355.1,574 354.8,574.1 354.4,574.3 350.2,576.5 349.7,576.8 349,577.2 
										348.5,577.4 348.3,576.9 									"/>
									<polygon class="st9" points="358.1,566.2 359.7,566.7 363.2,565 363.3,566.2 363.5,566.1 363.6,567.2 352.6,572.8 
										351.1,572 351,569.8 									"/>
									<g>
										<path class="st6" d="M367.2,567.1c1.7,3.3,5.7,4.6,9,2.9c3.3-1.7,4.6-5.7,2.9-9c-1.7-3.3-5.7-4.6-9-2.9
											C366.9,559.8,365.6,563.8,367.2,567.1z"/>
										<g>
											<path class="st6" d="M370.4,557.3l1.4-0.7c0.4-0.2,0.8,0,0.9,0.4l0.3,1.2l-2.5,0.5l-0.3-0.6
												C370,557.9,370.1,557.5,370.4,557.3z"/>
											<path class="st6" d="M375.9,558.9l-2.5-0.8l0-0.6c0-0.3,0.3-0.6,0.6-0.6l1.6,0.1c0.4,0,0.7,0.4,0.5,0.8L375.9,558.9z"/>
											<path class="st6" d="M378.1,561l-1.7-2l0.3-0.5c0.2-0.3,0.6-0.4,0.8-0.2l1.4,0.9c0.3,0.2,0.4,0.7,0.1,1L378.1,561z"/>
											<path class="st6" d="M378.5,561.3l0.6-0.3c0.3-0.2,0.7,0,0.8,0.3l0.7,1.4c0.2,0.4,0,0.8-0.4,0.9l-1.2,0.3L378.5,561.3z"
												/>
											<path class="st6" d="M379.1,564.3l0.6,0c0.3,0,0.6,0.3,0.6,0.6l-0.1,1.6c0,0.4-0.4,0.7-0.8,0.5l-1.2-0.4L379.1,564.3z"/>
											<path class="st6" d="M378.7,567.6c0.3,0.2,0.4,0.6,0.2,0.8l-0.9,1.4c-0.2,0.3-0.7,0.4-1,0.1l-0.8-0.9l2-1.7L378.7,567.6z
												"/>
											<path class="st6" d="M373.4,569.8l2.5-0.5l0.3,0.6c0.2,0.3,0,0.7-0.3,0.8l-1.4,0.7c-0.4,0.2-0.8,0-0.9-0.4L373.4,569.8z"
												/>
											<path class="st6" d="M370.4,569.2l2.5,0.8l0,0.6c0,0.3-0.3,0.6-0.6,0.6l-1.6-0.1c-0.4,0-0.7-0.4-0.5-0.8L370.4,569.2z"/>
											<path class="st6" d="M367.3,567.9l0.9-0.8l1.7,2l-0.3,0.5c-0.2,0.3-0.6,0.4-0.8,0.2l-1.4-0.9
												C367.1,568.7,367,568.2,367.3,567.9z"/>
											<path class="st6" d="M367.9,566.8l-0.6,0.3c-0.3,0.2-0.7,0-0.8-0.3l-0.7-1.4c-0.2-0.4,0-0.8,0.4-0.9l1.2-0.3L367.9,566.8
												z"/>
											<path class="st6" d="M367.2,563.7l-0.6,0c-0.3,0-0.6-0.3-0.6-0.6l0.1-1.6c0-0.4,0.4-0.7,0.8-0.5l1.2,0.4L367.2,563.7z"/>
											<path class="st6" d="M367.6,560.4c-0.3-0.2-0.4-0.6-0.2-0.8l0.9-1.4c0.2-0.3,0.7-0.4,1-0.1l0.8,0.9l-2,1.7L367.6,560.4z"
												/>
										</g>
										<path class="st10" d="M369.4,566c-1.1-2.1-0.2-4.7,1.9-5.8c1-0.5,2.1-0.6,3-0.3l-2.6,8.2C370.7,567.7,369.9,567,369.4,566
											z"/>
										<path class="st11" d="M374.3,559.9c1.1,0.3,2.2,1.1,2.7,2.2c1.1,2.1,0.2,4.7-1.9,5.8c-1.1,0.6-2.4,0.6-3.5,0.2
											L374.3,559.9z"/>
										<path class="st6" d="M371.1,565.1c0.6,1.1,2,1.6,3.1,1c1.1-0.6,1.6-2,1-3.1c-0.6-1.1-2-1.6-3.1-1
											C371,562.6,370.6,564,371.1,565.1z"/>
										<g>
											<path class="st6" d="M373,560.1c0.2-0.1,0.5,0,0.6,0.2c0.1,0.2,0,0.5-0.2,0.6c-0.2,0.1-0.5,0-0.6-0.2
												C372.7,560.5,372.8,560.2,373,560.1z"/>
											<path class="st6" d="M375.5,560.8c0.3,0.1,0.4,0.3,0.4,0.6c-0.1,0.3-0.3,0.4-0.6,0.4c-0.3-0.1-0.4-0.3-0.4-0.6
												C375,560.9,375.3,560.8,375.5,560.8z"/>
											<path class="st6" d="M376.4,563c0.2-0.2,0.5-0.1,0.7,0.1c0.2,0.2,0.1,0.5-0.1,0.7c-0.2,0.2-0.5,0.1-0.7-0.1
												C376.1,563.4,376.2,563.1,376.4,563z"/>
											<path class="st6" d="M376.3,565.2c0.3,0,0.5,0.2,0.4,0.5c0,0.3-0.2,0.5-0.5,0.4c-0.3,0-0.5-0.2-0.4-0.5
												C375.8,565.4,376,565.2,376.3,565.2z"/>
											<path class="st6" d="M374.1,566.9c0.2-0.2,0.5-0.2,0.7,0c0.2,0.2,0.2,0.5,0,0.7c-0.2,0.2-0.5,0.2-0.7,0
												C373.9,567.4,373.9,567.1,374.1,566.9z"/>
											<path class="st6" d="M372,566.8c0.3,0,0.5,0.2,0.5,0.4c0,0.3-0.1,0.5-0.4,0.5c-0.3,0-0.5-0.2-0.5-0.4
												C371.6,567,371.8,566.8,372,566.8z"/>
											<path class="st6" d="M369.9,565.5c0.1-0.2,0.4-0.3,0.6-0.1c0.2,0.1,0.3,0.4,0.1,0.6c-0.1,0.2-0.4,0.3-0.6,0.1
												C369.8,566,369.7,565.7,369.9,565.5z"/>
											<path class="st6" d="M369.9,563.8c-0.2,0.1-0.5-0.1-0.6-0.3c-0.1-0.2,0.1-0.5,0.3-0.6c0.2-0.1,0.5,0.1,0.6,0.3
												C370.3,563.5,370.2,563.8,369.9,563.8z"/>
											<path class="st6" d="M371.2,560.9c0.2,0.1,0.4,0.4,0.3,0.6c-0.1,0.2-0.4,0.4-0.6,0.2c-0.2-0.1-0.4-0.4-0.3-0.6
												C370.6,560.9,370.9,560.8,371.2,560.9z"/>
										</g>
										<path class="st4" d="M372.1,564.6c0.3,0.6,1,0.8,1.6,0.5c0.6-0.3,0.8-1,0.5-1.6c-0.3-0.6-1-0.8-1.6-0.5
											C372,563.3,371.8,564,372.1,564.6z"/>
									</g>
									<g>
										<path class="st6" d="M348.1,579.4c1.3,2.6,4.5,3.6,7.1,2.3s3.6-4.5,2.3-7.1c-1.3-2.6-4.5-3.6-7.1-2.3
											C347.8,573.6,346.8,576.8,348.1,579.4z"/>
										<path class="st10" d="M349.4,578.7c-1-1.9-0.2-4.2,1.7-5.1c1-0.5,2.1-0.5,3-0.2l-2.3,7.3
											C350.7,580.3,349.9,579.7,349.4,578.7z"/>
										<path class="st11" d="M354,573.4c0.9,0.3,1.7,1,2.1,1.9c1,1.9,0.2,4.2-1.7,5.1c-0.9,0.5-1.9,0.5-2.8,0.3L354,573.4z"/>
										<path class="st6" d="M351.6,577.6c0.3,0.6,1.1,0.9,1.8,0.6c0.6-0.3,0.9-1.1,0.6-1.8c-0.3-0.6-1.1-0.9-1.8-0.6
											C351.5,576.1,351.3,576.9,351.6,577.6z"/>
										<g>
											<circle class="st6" cx="352.8" cy="573.8" r="0.4"/>
											<path class="st6" d="M354.9,574.1c0.2,0.1,0.4,0.3,0.3,0.5c-0.1,0.2-0.3,0.4-0.5,0.3c-0.2-0.1-0.4-0.3-0.3-0.5
												C354.4,574.2,354.6,574.1,354.9,574.1z"/>
											<path class="st6" d="M355.6,576c0.2-0.1,0.4-0.1,0.6,0.1c0.1,0.2,0.1,0.4-0.1,0.6c-0.2,0.1-0.4,0.1-0.6-0.1
												C355.4,576.4,355.4,576.2,355.6,576z"/>
											<path class="st6" d="M355.5,578c0.2,0,0.4,0.2,0.4,0.4c0,0.2-0.2,0.4-0.4,0.4c-0.2,0-0.4-0.2-0.4-0.4
												C355.1,578.2,355.3,578,355.5,578z"/>
											<path class="st6" d="M353.6,579.5c0.2-0.2,0.4-0.2,0.6,0c0.2,0.2,0.2,0.4,0,0.6c-0.2,0.2-0.4,0.2-0.6,0
												C353.5,580,353.4,579.7,353.6,579.5z"/>
											<path class="st6" d="M351.7,579.4c0.2,0,0.4,0.1,0.5,0.4c0,0.2-0.1,0.4-0.4,0.5c-0.2,0-0.4-0.1-0.5-0.4
												C351.4,579.6,351.5,579.4,351.7,579.4z"/>
											<path class="st6" d="M349.8,578.3c0.1-0.2,0.4-0.2,0.6-0.1c0.2,0.1,0.2,0.4,0.1,0.6c-0.1,0.2-0.4,0.2-0.6,0.1
												C349.7,578.7,349.7,578.5,349.8,578.3z"/>
											<path class="st6" d="M349.9,576.8c-0.2,0.1-0.5-0.1-0.5-0.3c-0.1-0.2,0.1-0.5,0.3-0.5c0.2-0.1,0.5,0.1,0.5,0.3
												C350.2,576.5,350.1,576.7,349.9,576.8z"/>
											<path class="st6" d="M351,574.2c0.2,0.1,0.3,0.3,0.2,0.5c-0.1,0.2-0.3,0.3-0.5,0.2c-0.2-0.1-0.3-0.3-0.2-0.5
												C350.5,574.2,350.8,574.1,351,574.2z"/>
										</g>
									</g>
									<g>
										<path class="st6" d="M345.4,571.3l0.1,0.1l1-0.5c0.1-0.1,0.2-0.1,0.2-0.2c0-0.1,0-0.2,0-0.3c-0.1-0.2-0.3-0.3-0.5-0.2
											l-0.9,0.5C345.3,570.9,345.3,571.1,345.4,571.3z"/>
										<path class="st6" d="M345.7,571.8l0.4,0.7l1-0.5c0.1-0.1,0.2-0.1,0.2-0.2c0-0.1,0-0.2,0-0.3c-0.1-0.2-0.3-0.3-0.5-0.2
											L345.7,571.8z"/>
										<path class="st6" d="M346.2,572.8l0.4,0.7l1-0.5c0.1-0.1,0.2-0.1,0.2-0.2c0-0.1,0-0.2,0-0.3c-0.1-0.2-0.3-0.3-0.5-0.2
											L346.2,572.8z"/>
										<path class="st6" d="M346.7,573.9l0.4,0.7l1-0.5c0.1-0.1,0.2-0.1,0.2-0.2c0-0.1,0-0.2,0-0.3c-0.1-0.2-0.3-0.3-0.5-0.2
											L346.7,573.9z"/>
										
											<rect x="357.2" y="562.6" transform="matrix(0.8899 -0.4561 0.4561 0.8899 -217.2141 225.6323)" class="st6" width="3.3" height="0.4"/>
										
											<rect x="357.6" y="563.3" transform="matrix(0.8899 -0.4561 0.4561 0.8899 -217.5023 225.8803)" class="st6" width="3.3" height="0.4"/>
										
											<rect x="357.9" y="564.1" transform="matrix(0.8899 -0.4561 0.4561 0.8899 -217.7905 226.1283)" class="st6" width="3.3" height="0.4"/>
									</g>
									<path class="st6" d="M360.3,560.3c0.3,0.2,0.6,0.3,1,0.4l-0.1,0.2l0.8,0.5l0.1-0.6c0.7,0,1.3-0.1,1.7-0.3l0,0
										c0.4-0.2,0.6-0.4,0.6-0.7c0.1-0.7-1-1.3-2.3-1.4c-0.7-0.1-1.4,0.1-1.9,0.3c-0.4,0.2-0.6,0.4-0.6,0.7
										C359.6,559.7,359.9,560.1,360.3,560.3z M363.8,559.2l-1.7,1.2l-0.6-0.1l-1-1.4c0.4-0.1,1-0.2,1.5-0.2
										C362.8,558.7,363.5,558.9,363.8,559.2z M363.8,560.2c-0.4,0.2-0.9,0.3-1.4,0.3l1.7-1.2c0.1,0.1,0.2,0.3,0.2,0.4
										C364.2,559.9,364,560.1,363.8,560.2L363.8,560.2z M359.9,559.4c0-0.2,0.2-0.4,0.4-0.5c0,0,0,0,0,0l1,1.4l0,0.1
										c-0.3-0.1-0.7-0.2-0.9-0.3C360.1,559.9,359.9,559.6,359.9,559.4z"/>
								</g>
							</g>
						</g>
					</g>
				</g>
				<g>
					<g>
						<path class="st14" d="M464.4,598.1c4.6-1.2,9.3-2.3,13.9-3.5c0,3.4,0,6.9,0.1,10.3c-4.7,0.9-9.3,1.7-14,2.6
							C464.4,604.4,464.4,601.3,464.4,598.1z"/>
						<path class="st15" d="M477.6,595.3c0,5.9-0.1,11.9-0.4,18.1c-0.1,3.2-0.3,6.4-0.5,9.6c0.3,0.8,0.9,1.9,2,2.6
							c2.5,1.5,6.1,0.2,7.9-1.6c2.3-2.2,2-5.3,1.6-14.3c-0.1-3.2-0.3-8.3-0.5-14.7c-1.5-2.4-4.3-3.5-6.6-2.8
							C478.8,592.8,477.8,595,477.6,595.3z"/>
					</g>
					<path d="M456.2,579c0.3,2.3,0.4,5.3-0.8,8.4c-3.9,10.4-17.7,12.4-19.2,12.6c-4.4,0.6-8.1-0.1-10.5-0.7
						c15.2-3.1,30.4-6.1,45.6-9.2c0,8,0.1,16,0.1,24c-26.6,4-53.2,8.1-79.8,12.1c-1.7-0.3-12-2.6-16.7-11.8c-1.6-3-2.1-6-2.2-8.2
						c-1.3-0.2-3.1-0.6-5-1.7c-3.9-2.4-6.7-7.2-6.3-12c0.4-6.1,5.7-11.5,12.8-12.3c11.2-1.8,22.4-3.6,33.6-5.5
						C423.9,576.2,440.1,577.6,456.2,579z"/>
					<g>
						<g>
							<g>
								<path class="st10" d="M413.2,547.8c-8,9.2-20.4,9.2-22.5,9.1c-1.5,5-3.9,8.6-6,8.5c-2.1-0.1-3.5-3.8-5-7.7
									c-1.4-3.5-2-6.6-2.3-8.6c3.6,0.5,7.2,1.1,10.8,1.6c4-4.1,8.5-9.5,12.8-16.4c6.1-9.9,9.4-19.2,11.3-26.2
									C422,521.3,421.9,537.9,413.2,547.8z"/>
								<path class="st16" d="M408,577.1c0.3-10.2,0.8-20.6,1.4-31.2c0.8-12.9,1.7-25.5,2.9-37.6c1.9-3.4,4-5.9,5.6-7.4
									c4.1-4.1,8.7-6.6,11.9-7.2c2.4-0.5,4.2-0.7,7.6,0.1c4.1,1,17,3.1,20.7,8.4c0.9,1.3,1.4,2.7,2.2,5.4
									c1.5,4.6,1.9,8.8,1.9,11.5c0,0,0,0,0,0c0,0,0,1.2,0,2.5c0,1-2.4,26-5.8,59.9C440.3,580,424.1,578.6,408,577.1z"/>
							</g>
							<g>
								<g>
									<path class="st12" d="M437.8,486.8l-12.5,0.4l-0.1,11.3c0.3,2.6,0.5,5.2,0.8,7.8c1-1.3,2-2.6,2.9-3.9
										c0.5-0.7,1.3-1.6,2.5-2.6c0,0,7-3.8,7-3.8L437.8,486.8z"/>
									<path class="st17" d="M425.2,494.3l0.1-6.2c4.2-1.4,8.3-2.7,12.5-4.1c0.1,2.1,0.1,4.2,0.2,6.3
										C434.8,492.5,430.5,494.4,425.2,494.3z"/>
									<path class="st18" d="M431.2,430.8c-2.4,0.2-6.1,0.6-10,2.8c-9.5,5.5-12.3,18-11.4,26.6c0.2,2.2,0.6,3.9,1,5
										c0,0,0,0.1,0.1,0.1c0.5,0.8,1,1.5,1.5,2.3c1.8,2.5,3.6,4.7,5.4,6.7c7.5-5.4,26.4,5.8,26.4,5.8c1-0.3,2.4-0.7,3.9-1.6
										c9.4-5.7,9.5-20.1,9.6-23.3c0-4.2,0-8.8-2.9-13.6c-2.8-4.8-6.8-7.1-8.3-7.9C440,430.1,433.9,430.6,431.2,430.8z"/>
									<path class="st12" d="M410.4,467.7c0.2-9-0.6-9.9-0.2-15c0.2-2.5,0.8-6,2.5-10.2c0-0.1-0.1-0.4,0-0.7
										c0.7-4.3,14.4-7.9,25.5-4.6c2.6,0.8,7,2.5,11.6,6.8c1,2.5,2.2,6.2,2.6,10.9c0.8,10.5-3.4,18.3-5.5,21.9
										c-2.8,5-5.6,10.1-11.7,12.6c-3.6,1.5-7,1.6-9.2,1.4c-0.8-0.1-2.1-0.2-3.8-0.8c-5.1-1.8-7.8-5.8-8.7-7.2
										c-2.2-3.4-2.8-6.6-3.1-8.4C410.2,472.2,410.3,471,410.4,467.7z"/>
									<g>
										<path d="M429.2,461.6c3.6-0.3,7.6,0.3,10.6,2.4c-1.8-0.5-3.5-1-5.2-1.2c-1.8-0.2-3.5-0.2-5.3,0
											C429.3,462.7,429.2,461.6,429.2,461.6L429.2,461.6z"/>
									</g>
									<g>
										<path d="M419.5,462.4c-2.5-0.7-5-0.8-7.7-0.7c1.2-0.5,2.6-0.7,3.9-0.8c1.3-0.1,2.7,0.1,4,0.4L419.5,462.4L419.5,462.4z"/>
									</g>
									<path class="st18" d="M442.6,450.4c-0.5,1.4-1.1,3.5-1.1,6c0.1,2.5,0.8,4.1,1.4,6.2c0.7,2.3,1.4,5.6,1.4,9.9
										c1.6-0.5,4.9-1.8,7.4-5.1c0.7-0.9,1.9-3.2,3.1-7.8c0.6-2.1,2.3-10.8-2.1-18.2c-6.5-10.8-22.6-11.5-32.1-8.7
										c-1.9,0.6-3.3,1-4.8,2.1c-10.5,7.4-5.7,28.5-5.2,30.6c-0.1-1.6,0-3.5,0.3-5.7c0.5-3.3,1.4-6,2.3-8c0.3,0.1,0.9,0.4,1.6,0.7
										c3.1,1.2,12.6,4.3,22.7,0.6C438.7,452.4,440.5,451.7,442.6,450.4z"/>
									<g>
										<g>
											<path class="st17" d="M422.5,473.8c-0.1,0.9,0.8,1.7,1.6,1.6c0.7,0,1.3-0.7,1.3-1.4c-0.1,0.1-0.7,0.6-1.6,0.5
												C423,474.4,422.6,473.9,422.5,473.8z"/>
										</g>
									</g>
									<g>
										<path class="st12" d="M446,466.5c0.7-2.1,3.1-3.5,4.8-2.2c2.6,2,2.3,6.8,0.8,9.5c-0.9,1.6-3.1,3.6-4.6,2.4
											C445.1,474.8,444.8,470.5,446,466.5z"/>
									</g>
									<g>
										<path class="st19" d="M424.2,479.2c2.8,0.1,5.5-0.8,6.2,0.7c0.5,1.1-0.9,5.2-5.9,5.1c-3.5-0.1-5.9-3.2-5.5-5.2
											C419.2,478.3,421.2,479.1,424.2,479.2z"/>
										<path class="st20" d="M430.4,481.1c-0.4,1.6-2.1,4-5.9,3.9c-1.7-0.1-3.2-0.8-4.2-1.8C422.6,480.3,426.9,479.3,430.4,481.1
											z"/>
										<path class="st10" d="M430.4,479.8c0,0.1,0.1,0.2,0.1,0.4c-4,2.4-9.4,1.9-10.5-1.4c0.9-0.1,2.4,0.2,4.2,0.2
											C427,479.1,429.7,478.3,430.4,479.8z"/>
									</g>
								</g>
								<g>
									<g>
										<path class="st10" d="M429.5,466.5c0.3,0.5,0.9,1.2,1.9,1.7c1.6,0.7,3.7,0.3,5.3-1.2c-0.4-0.4-1.1-1.1-2.2-1.6
											c-0.7-0.3-1.6-0.6-2.7-0.4C430.5,465.3,429.8,466.2,429.5,466.5z"/>
										<path class="st21" d="M431.1,465.7c-0.3,0.7-0.2,1.4,0.2,1.9c0.3,0.3,0.7,0.6,1.1,0.7c0,0,0,0,0,0c0,0,0.5,0.1,1-0.1
											c0.5-0.1,1.5-0.7,1.5-1.7c0-0.5-0.2-0.9-0.3-1c-0.6-0.9-2-1.1-2.9-0.5C431.4,465.2,431.2,465.5,431.1,465.7z"/>
										<path class="st22" d="M431.5,466.2c-0.2,0.5,0.1,1,0.1,1.1c0.2,0.3,0.6,0.4,0.6,0.5c0,0,0,0,0,0c0,0,0.3,0.1,0.6,0
											c0.2,0,0.6-0.2,0.9-0.6c0-0.1,0.3-0.5,0-1c-0.3-0.6-1.1-0.7-1.7-0.5C432,465.7,431.7,465.8,431.5,466.2z"/>
										<path class="st10" d="M433,466.1c-0.1,0.1,0,0.2,0,0.2c0.1,0.1,0.1,0.1,0.1,0.1c0,0,0,0,0,0c0,0,0.1,0,0.1,0
											c0,0,0.1,0,0.2-0.1c0,0,0.1-0.1,0-0.2c-0.1-0.1-0.3-0.2-0.4-0.1C433.1,466,433,466,433,466.1z"/>
										<path class="st22" d="M429.5,466.5c0.1-0.2,1.1-1.9,3-2.1c2.6-0.3,4.4,2.4,4.3,2.6c-0.1,0.1-1.7-1.6-4-1.6
											C431.5,465.3,430.3,465.9,429.5,466.5z"/>
									</g>
								</g>
								<g>
									<g>
										<path class="st10" d="M412.6,465.7c0.3,0.5,0.8,1.2,1.8,1.7c1.6,0.7,3.5,0.3,5-1.2c-0.4-0.4-1-1.1-2.1-1.6
											c-0.6-0.3-1.5-0.6-2.6-0.4C413.6,464.5,412.9,465.4,412.6,465.7z"/>
										<path class="st21" d="M414.1,464.7c-0.3,0.7-0.2,1.5,0.2,2c0.2,0.3,0.7,0.6,1,0.7c0,0,0,0,0,0c0,0,0.5,0.1,1-0.1
											c0.5-0.2,1.3-0.7,1.4-1.6c0-0.1,0.1-0.6-0.2-1.1c-0.5-0.9-1.9-1-2.8-0.5C414.4,464.3,414.2,464.6,414.1,464.7z"/>
										<path class="st22" d="M414.6,465.3c-0.2,0.5,0.1,1.1,0.1,1.1c0.2,0.3,0.5,0.4,0.6,0.5c0,0,0,0,0,0c0,0,0.3,0.1,0.6,0
											c0.2,0,0.6-0.2,0.8-0.6c0-0.1,0.2-0.5,0-1c-0.3-0.6-1.1-0.7-1.6-0.5C415,464.9,414.7,465,414.6,465.3z"/>
										<path class="st10" d="M414.9,465.1c-0.1,0.1,0,0.2,0,0.2c0,0.1,0.1,0.1,0.1,0.1c0,0,0,0,0,0c0,0,0.1,0,0.1,0
											c0,0,0.1,0,0.2-0.1c0,0,0.1-0.1,0-0.2c-0.1-0.1-0.2-0.2-0.4-0.1C415,465,414.9,465,414.9,465.1z"/>
										<path class="st22" d="M412.6,465.7c0.1-0.2,1-1.9,2.8-2.1c2.5-0.3,4.2,2.4,4.1,2.6c-0.1,0.1-1.6-1.6-3.8-1.6
											C414.5,464.5,413.4,465.1,412.6,465.7z"/>
									</g>
								</g>
							</g>
						</g>
						<path class="st12" d="M404.1,574.1c-1.5,0.4-2.9,0.8-4.4,1.2c-2.6,0-4.9,0.3-6.8,0.6c-2.5,0.5-6.4,1.5-6.3,2.2
							c0,0.2,0.4,0.4,1.1,0.7c0.9,0.4,1.7,0.4,2.2,0.4c-1.5,0.7-3,1.4-4.5,2.1c-2.7,1.3-5.5,2.5-8.2,3.8c-0.5,0.2-0.7,0.7-0.6,1
							c0.1,0.4,0.8,0.7,1.4,0.3c2.9-0.9,5.9-1.8,8.8-2.6c-3.1,1.3-6.2,2.6-9.3,3.9c-0.4,0.3-0.6,0.8-0.4,1.2
							c0.2,0.5,0.8,0.7,1.4,0.5c7.1-2.9,10.9-4.2,10.8-4.1c-3.1,1.5-6.1,3-9.2,4.5c-0.3,0.3-0.4,0.8-0.2,1.2
							c0.2,0.4,0.7,0.6,1.2,0.4c3.5-1.4,6.9-2.9,10.4-4.3c-2.2,1.2-4.5,2.4-6.7,3.6c-0.2,0.3-0.2,0.7,0,1c0.2,0.4,0.7,0.6,1.1,0.4
							c3.1-1.1,6.1-2.1,9.2-3.2c1.1-0.2,3.5-0.8,5.8-2.7c1.6-1.4,2.5-2.9,3-3.8c1.5-0.6,3.1-1.2,4.6-1.8
							C407.1,578.4,405.6,576.2,404.1,574.1z"/>
					</g>
					<path class="st10" d="M444.1,516c-1,10.3-2.2,20.7-3.4,31.2c-0.4,3.7-0.9,7.4-1.3,11.1c-11.1,4.8-22.1,9.6-33.2,14.4
						c-3.7-0.1-7.3-0.1-11-0.2c0.9,1.7,2.2,4,3.9,6.7c3.6,5.8,4.7,6.3,5.5,6.5c3.1,0.4,6-4.7,6.3-5.4c14.9-3.7,29.8-7.4,44.7-11.1
						c0.5-11.7,1.4-24,2.9-36.9c0.8-6.9,1.7-13.7,2.8-20.2"/>
				</g>
				<path class="st23" d="M442.5,494.9c-0.1-0.5-1.3-0.8-1.3-0.8c-0.8-0.2-1.3,0-2.1-0.3c-0.3-0.1-0.5-0.3-0.7-0.4
					c-2,1-4.6,2.7-7.2,5.1c-2.4,2.3-4.1,4.6-5.2,6.4c0-1.3-0.1-2.7-0.2-4.1c-0.1-1.9-0.3-3.7-0.5-5.5c-0.2,0-0.4,0-0.8,0.1
					c-0.7,0.2-0.8,0.6-1.5,1c-0.7,0.4-1.2,0.3-1.5,0.7c-0.1,0.2-0.1,0.5-0.1,0.6c1.2,2.7,2.4,5.3,3.7,8c-0.9,0.6-2.4,1.9-3.5,4
					c-1.5,3-1.3,5.8-1.1,6.8c0.7-0.8,1.5-1.8,2.2-2.9c1.7-2.7,2.6-5.3,3-7.3c-0.1,1.3-0.1,3,0.1,4.8c0.4,3.2,1.5,5.7,2.3,7.4
					c0.5-1.2,1.1-3.5,0.9-6.5c-0.3-3.1-1.5-5.4-2.2-6.5c3.3-3.4,6.4-5.4,8.8-6.7C438.7,497.3,442.7,495.8,442.5,494.9z"/>
			</g>
			<g>
				<g>
					<polygon class="st24" points="600.3,496.7 637.2,614.4 647.8,614.4 610,493.7 					"/>
					<polygon class="st24" points="575.4,496.7 612.3,614.4 622.8,614.4 585,493.7 					"/>
					<polygon class="st24" points="480.7,614.4 491.3,614.4 528.1,496.7 518.5,493.7 					"/>
					<polygon class="st24" points="509.3,614.4 519.9,614.4 556.8,496.7 547.1,493.7 					"/>
				</g>
				<ellipse class="st25" cx="566.9" cy="491.3" rx="58.5" ry="9"/>
				<g>
					<g>
						<g>
							<g>
								<g>
									<path class="st26" d="M532.1,369.3c-2.4,6.7-4.7,13.4-7.1,20c-4.7-3.8-9.4-7.6-14.1-11.3c0.7-2.7,1.5-5.4,2.2-8.1
										C519.5,369.6,525.8,369.4,532.1,369.3z"/>
								</g>
							</g>
						</g>
					</g>
					<g>
						<g>
							<g>
								<g>
									<g>
										<path class="st27" d="M489.1,596.6c0.1,0.3,0.1,0.7,0.2,1c0.2,1.2,0.3,2.4,0.4,3.6c0.7,7.8-1.3,15.7-5.3,22.4
											c-0.3,0.4-0.5,0.9-0.8,1.3c-2.7,4.1-8.9,12.2-14.6,11.9c-4.6-0.2-4.6-3-3.5-5.9c0,0,0,0,0,0c0.1-0.4,0.3-0.7,0.4-1.1
											c-2.9,3.6-10.1,9.1-9.8,13.6c0.2,3.8,8.4,4.4,12.2,4.4c5.4-0.1,12.2-1.5,15.2-6.6c4.5-7.6,1.4-17.1,9.1-22.9
											c0.5,7.8,1,15.5,1.4,23.2c0,0.1,0.1,0.1,0.1,0.1c0,0,0,0,0.1,0.1c0,0,0.1,0,0.1,0c0.1,0,1.4-0.1,3.3-0.3
											c-0.4-8.1-0.7-16.2-1.1-24.4c0.7-1.6,1.3-3.7,1.2-6.2C497.7,602.4,490.1,597.3,489.1,596.6z"/>
									</g>
								</g>
								<g>
									<g>
										<path class="st26" d="M475.9,486.1c-4.8-1.1-8-0.2-9.8,0.6c-9,4-13.5,18.9-9.5,36.8c4.5,23.8,10.2,47.1,14.7,70.9
											c-1.4,22-2.5,29.5-3.3,30.9c-0.1,0.2-1.1,1.9-2.1,4.5c-0.1,0.4-0.3,0.7-0.4,1.1c0,0,0,0,0,0c-1.1,3-1.1,5.7,3.5,5.9
											c5.7,0.3,12-7.9,14.6-11.9c0.3-0.4,0.5-0.8,0.8-1.3c4-6.7,6-14.6,5.3-22.4c-0.1-1.2-0.3-2.4-0.4-3.6
											c-0.1-0.3-0.1-0.7-0.2-1c-0.7-4.1-1.6-8.1-1.8-12.2c-0.3-5.9,0.1-11.7,0.3-17.6c0.4-8.6,2-17.7,2.4-26.3
											c-0.4-6.4-0.7-12.8-1.1-19.3C485,509.4,479.8,498,475.9,486.1z"/>
									</g>
								</g>
							</g>
						</g>
						<g>
							<g>
								<g>
									<g>
										<path class="st27" d="M523.7,603.3c0.1,0.3,0.1,0.7,0.2,1c0.2,1.2,0.3,2.4,0.4,3.6c0.7,7.8-1.3,15.7-5.3,22.4
											c-0.3,0.4-0.5,0.9-0.8,1.3c-2.7,4.1-8.9,12.2-14.6,11.9c-4.6-0.2-4.6-3-3.5-5.9c0,0,0,0,0,0c0.1-0.4,0.3-0.7,0.4-1.1
											c-2.9,3.6-10.1,9.1-9.8,13.6c0.2,3.8,8.4,4.4,12.2,4.4c5.4-0.1,12.2-1.5,15.2-6.6c4.5-7.6,1.4-17.1,9.1-22.9
											c0.5,7.8,1,15.5,1.4,23.2c0,0.1,0.1,0.1,0.1,0.1c0,0,0,0,0.1,0.1c0,0,0.1,0,0.1,0c0.1,0,1.4-0.1,3.3-0.3
											c-0.4-8.1-0.7-16.2-1.1-24.4c0.7-1.6,1.3-3.7,1.2-6.2C532.2,609.1,524.6,603.9,523.7,603.3z"/>
									</g>
								</g>
								<g>
									<g>
										<path class="st26" d="M510.5,492.8c-4.8-1.1-8-0.2-9.8,0.6c-9,4-13.5,18.9-9.5,36.8c4.5,23.8,10.2,47.1,14.7,70.9
											c-1.4,22-2.5,29.5-3.3,30.9c-0.1,0.2-1.1,1.9-2.1,4.5c-0.1,0.4-0.3,0.7-0.4,1.1c0,0,0,0,0,0c-1.1,3-1.1,5.7,3.5,5.9
											c5.7,0.3,12-7.9,14.6-11.9c0.3-0.4,0.5-0.8,0.8-1.3c4-6.7,6-14.6,5.3-22.4c-0.1-1.2-0.3-2.4-0.4-3.6
											c-0.1-0.3-0.1-0.7-0.2-1c-0.7-4.1-1.6-8.1-1.8-12.2c-0.3-5.9,0.1-11.7,0.3-17.6c0.4-8.6,2-17.7,2.4-26.3
											c-0.4-6.4-0.7-12.8-1.1-19.3C519.6,516.1,514.4,504.7,510.5,492.8z"/>
									</g>
								</g>
							</g>
						</g>
					</g>
					<g>
						<g>
							<path class="st28" d="M501.7,592.2c0,0,21.4,6.5,32.8-5.1c9.5,6.6,29.7,4.6,33.6-4.9c-2.5-13.2-4.2-24.4-5.4-33.7
								c0,0.2,0,0.3,0,0.5c-0.9-4.8-1.6-9.3-2.1-13.4c-0.2-1.2-0.3-2.3-0.5-3.4c0-0.2,0-0.4-0.1-0.6c-0.5-4.2-0.9-7.9-1.2-11.1
								c-0.1-1.3-0.2-2.4-0.3-3.5c-0.2-2.8-0.3-5.1-0.3-7.3l-7.6,0.5l-13.4,0.8l-22.1,1.4l-3.8,0.2l-2.3,18.5l-1.1,8.7L501.7,592.2z
								"/>
							<path class="st28" d="M501.7,592.2c0,0-23.6,0.9-33.3-14.5c-13,4.1-33.8-7.8-36.1-20.1c6.1-18.6,11.5-33.1,15.4-42.9
								c0.7-1.7,1.4-3.5,2.1-5.3c3.9-9.5,8-18.3,12.2-26.4c17.2,10.2,33.6,20,49.4,29.4L501.7,592.2z"/>
						</g>
						<g>
							<path d="M533.6,567.8c8.3,6,25.4,5.2,31.9-1.1c1.1,4.6,1.7,10.1,2.7,15.6c-3.9,9.5-24.1,11.5-33.6,4.9
								c-11.4,11.6-32.8,5.1-32.8,5.1L504,573C510.7,574.5,524.9,576.4,533.6,567.8z"/>
							<path d="M472.4,556.3c-2.3,0.8-10.7,3.2-20-1.9c-8.4-4.6-12.5-12.5-13.8-15.4c-1.2,3.2-2.3,6.5-3.5,9.9c-1,2.9-2,5.8-2.9,8.7
								c2.4,12.3,23.1,24.1,36.1,20.1c9.7,15.4,33.3,14.5,33.3,14.5L504,573C497.2,572.4,479.7,568.2,472.4,556.3z"/>
						</g>
					</g>
					<g>
						<g>
							<path class="st28" d="M504.1,543.7c0,0,0.6,0.3,1.6,0.8c0.1,0.1,0.3,0.1,0.4,0.2c0.2,0.1,0.4,0.2,0.6,0.2
								c0.2,0.1,0.4,0.2,0.6,0.3c0.1,0,0.2,0.1,0.3,0.1c0.3,0.1,0.6,0.3,1,0.4c0.3,0.1,0.6,0.2,0.9,0.3c0,0,0.1,0,0.2,0.1
								c0.2,0.1,0.4,0.2,0.7,0.2c0.4,0.1,0.8,0.3,1.3,0.4c0.1,0.1,0.3,0.1,0.4,0.1c0.5,0.2,1,0.3,1.5,0.4c0.3,0.1,0.6,0.2,0.9,0.2
								c0.4,0.1,0.9,0.2,1.4,0.3c1.3,0.3,2.6,0.5,3.9,0.7c0.1,0,0.3,0,0.4,0.1c0.6,0.1,1.2,0.1,1.8,0.2c0.3,0,0.6,0,1,0
								c0.2,0,0.4,0,0.6,0c0.3,0,0.5,0,0.8,0c0.2,0,0.4,0,0.6,0c0,0,0.1,0,0.1,0c0.2,0,0.3,0,0.5,0c0.2,0,0.3,0,0.5,0
								c0.1,0,0.2,0,0.4,0c0.3,0,0.5,0,0.8-0.1c0.2,0,0.4-0.1,0.6-0.1c0.1,0,0.2,0,0.3-0.1c0,0,0.1,0,0.1,0c0.2,0,0.4-0.1,0.6-0.1
								c0.3-0.1,0.6-0.1,0.9-0.2c1.9-0.5,3.7-1.2,5.4-2.3c0.2,0.1,0.3,0.3,0.5,0.4l0.1,0.1c0.1,0.1,0.2,0.2,0.3,0.3
								c0.1,0.1,0.2,0.1,0.2,0.2c0,0,0,0,0,0c2.8,2.3,6.1,3.7,9.6,4.5c0,0,0,0,0,0c7,1.5,14.5,0.3,19-1.4c2-0.7,3.4-1.6,4-2.4
								c0,0,0.1-0.1,0.1-0.1c-1.3-4.8-2.4-9.2-3.3-13.3c-0.3-1.2-0.5-2.3-0.7-3.4c0-0.2-0.1-0.4-0.1-0.6c-0.9-4.2-1.6-7.9-2.1-11.1
								c-0.2-1.2-0.4-2.4-0.5-3.5c-0.3-2.1-0.5-4-0.7-5.8c0-0.5-0.1-1-0.1-1.5c0-0.2,0-0.4,0-0.7c0-0.9-0.1-1.8,0-2.8
								c0-0.1,0-0.1,0-0.2c0-0.4,0-0.8,0-1.3c0,0,0,0,0,0c0-1.1,0.1-2.1,0.2-3.1c0-0.2,0-0.3,0-0.5l0,0c0.1-1.4,0.3-2.7,0.4-3.9
								c0-0.1,0-0.3,0.1-0.4c0.2-1.4,0.5-2.8,0.7-4c0-0.1,0-0.1,0-0.2c0.4-1.8,0.8-3.4,1.2-4.7c-8-1.8-16-3.6-24.2-5.5
								c-3.2-0.7-6.4-1.5-9.6-2.2c-0.5-0.1-0.9-0.2-1.4-0.3c-1.6-0.4-3.2-0.7-4.8-1.1l-0.9,3l-1.2,4.1l-0.5,1.6l-0.7,2.3l-1.4,4.8
								l-0.2,0.7l-0.1,0.3l-0.6,2l-0.7,2.5l-5.1,17.2l-2.9,9.9l-0.5,1.5l0,0l-2.4,8.2L504.1,543.7z"/>
							<path class="st28" d="M451.3,511.9c3.8,6,11.9,11.2,19.6,12.8c1.8,0.4,3.7,0.6,5.4,0.5c0.3,0,0.6,0,0.9-0.1
								c1.8,4.4,4.9,7.8,8.5,10.5c8.2,6.2,18.5,8.1,18.5,8.1l2.3-7.8l2.4-8.2l0,0l0.5-1.5l2.9-9.9l5.1-17.2l0.7-2.5l0.6-2l0.1-0.3
								l0.2-0.7l1.4-4.8l0.7-2.3l0.5-1.6l1.2-4.1l0.9-3c-0.7-0.7-12.9-12.3-13.6-13c-0.7-0.6-12.5-11.9-13.1-12.5
								c-4.8,1.4-8.9,3.2-12.2,5c-1.2,0.7-2.3,1.3-3.3,2c0,0,0,0,0,0c-2,1.3-3.6,2.5-5,3.6c-1.3,1-2.5,2.1-3.6,3.2
								c-0.5,0.5-1.1,1.1-1.6,1.6c-6.8,7.2-11.3,15.7-15.6,23.6c-1.6,3-2.8,5.6-3.7,7.4c0,0,0,0,0,0c-0.1,0.3-0.3,0.6-0.4,0.9
								c-0.9,1.9-1.7,3.7-2.5,5.6C449.1,507.5,449.9,509.8,451.3,511.9z"/>
						</g>
						<g>
							<path d="M477.1,525.2c2.7,4.6,5.7,8,8.5,10.5c18.2,16.4,44.6,11.3,49.3,10.3c2.9,2.7,6.5,4.4,10.8,5.5
								c9,2.4,19.6,1.5,23.1-3.8c-1.3-4.8-2.4-9.2-3.3-13.3c-8.2,2.7-22.7,0.5-28.9-5.5c-20,7.8-41.4-3.3-52.6-18.9
								c-10,0.7-24.7-8.4-28.3-18.5c-2.3,4.5-4.6,9.3-6.8,13.9C449.1,515.6,465.6,526.2,477.1,525.2z"/>
						</g>
					</g>
					<path d="M542.2,300.1c3.1,17,17.3,29.1,35.4,25.8c18.1-3.3,30.2-19.8,27-36.8c-3.1-17-20.3-28.1-38.3-24.8
						C548.2,267.6,539.1,283.1,542.2,300.1z"/>
					<path class="st10" d="M544.7,296.3c0.6,7.3,0,13.3-1.4,13.4c-1.4,0.1-3-5.7-3.7-13c-0.6-7.3,0-13.3,1.4-13.4
						C542.5,283.2,544.1,289,544.7,296.3z"/>
					<g>
						<path d="M532.1,268.5c3.2,17.3,20.1,29.6,35.3,26.9c15.2-2.8,26.2-20,23-37.4c-5.1-27.9-24-29.4-36.9-27
							C542.6,233,526.8,239.5,532.1,268.5z"/>
					</g>
					<path class="st26" d="M531.8,331c7.7,5.5,16,12.8,23.6,18.3c23.2-3.8,36.7-14.8,44.1-22.6c0.6-0.6,2.1-1.7,2.7-2.3
						c-1.8-0.3-16.2-1.9-22.3-12.9c-0.8-1.5-2.2-4.6-3.1-8.6c-0.1-0.4-0.2-0.8-0.2-0.9c-0.7-3.4-0.7-6.2-0.6-8.1
						c-7.7,2.9-15.4,5.7-23.2,8.6c0.1,0.2,0.1,0.5,0.2,0.7c0.4,2.1,0.5,4,0.4,5.5c0,0,0,0,0,0c0,0.6-0.1,1.2-0.2,1.7
						C551.8,319.6,541.9,325.7,531.8,331z"/>
					<path class="st29" d="M553.4,308.8c2.4,1.9,4.6,2.4,5.7,2.6c5.4,0.9,9.9-2.6,12.8-4.8c2.1-1.6,3.7-3.3,4.8-4.7
						c-0.5-2.8-0.7-5.3-0.6-7.2c0-0.2,0-0.5,0-0.7c-4.3,1.8-7.4,3.5-9.3,4.4c-0.4,0.2-0.7,0.3-1,0.5c-0.8,0.3-1.6,0.6-1.9,0.8
						c0,0-0.1,0-0.1,0c0,0,0,0,0,0c-0.8,0.4-1.7,0.7-2.7,1c0,0,0,0,0,0c-1.5,0.4-3,0.6-4.3,0.7c-1.5,0.5-3,0.9-3.8,1.2
						c0.1,0.2,0.1,0.5,0.2,0.7C553.5,305.4,553.5,307.3,553.4,308.8z"/>
					<path class="st26" d="M552.3,244.2c0.3-0.1,0.5-0.1,0.6-0.1c7.2-1.5,13.9-0.5,16.3,0.2c8.4,2.5,13.3,16.4,13.9,26.9
						c0.9,14-8.2,34.1-21.6,37.1c-7,1.6-20.5-10.1-24.6-27.6C532.9,263.2,532.6,248.2,552.3,244.2z"/>
					<path d="M549.4,244.9c1.9-0.4,6.5-1.4,11-0.2c0.9,0.2,3.4,1.2,5.8,3.3c1.2,1.1,2.5,2.6,4.3,4.9c1.6,2,1.7,2.2,2.5,2.9
						c1.8,1.5,3.3,1.6,4.7,3.9c2.8,4.8,1.8,13.6,2.4,17.7c0,0.2,0.2,1.1,0.5,1.1c0.4,0.1,0.7-1.2,1-1.2c0.5,0,1,2,1.7,7.3
						c1.1-3.8,2.6-10.2,2.1-18.1c-0.5-7.9-1.1-19.3-9.6-24.5c-4.6-2.8-9.4-2.4-16.8-1.6c-5.8,0.6-16.8,1.8-21.3,9.8
						c-1.4,2.6-1.8,5.2-1.9,7c0.5-1.4,1.5-3.6,3.2-5.7C542.8,246.9,547.4,245.3,549.4,244.9z"/>
					<g>
						<path class="st30" d="M541.1,277.3c0.1,2.3,3.8,2.3,4.5,2.5c-2.5,0.2-4.5,0.2-5.3-0.9L541.1,277.3z"/>
						<path class="st10" d="M550,278c-1.3-2.2-4.5-3.4-6.2-3.2c-1.2,0.2-3,2.4-3.4,3.8c1.8,1.2,4.4,1.4,5.1,1.3
							c1.2-0.3,2.5-0.6,4.2-1.6L550,278z"/>
						<path class="st31" d="M542.4,278.3c0.6,1.4,2.2,2,3.7,1.4c1.4-0.6,2.1-2.2,1.5-4c-0.3-0.7-2.4-1.4-3.8-0.8
							C542.3,275.5,541.8,276.8,542.4,278.3z"/>
						<path class="st30" d="M543.4,278.4c0.4,0.9,1.5,1.3,2.2,1c0.7-0.3,1.3-1.5,0.9-2.4c-0.4-0.9-1.6-1.2-2.3-0.8
							C543.4,276.5,543,277.5,543.4,278.4z"/>
						<path class="st10" d="M545.2,276.9c0.1,0.2,0.3,0.3,0.5,0.2c0.2-0.1,0.2-0.3,0.1-0.5c-0.1-0.2-0.3-0.3-0.5-0.2
							C545.2,276.4,545.1,276.6,545.2,276.9z"/>
						<path class="st30" d="M550.3,277.8c-1.4-2.8-3.5-3.9-5.6-3.6c-1.4,0.2-3.2,1-3.7,2.6c-0.2,0.4-0.4,1-1.1,2.2
							c-0.2,0.4-0.4,0.8-0.5,1c0.2,0,0.5-0.1,0.8-0.2c0.3-0.2,0.5-0.4,0.6-0.5c0.5-0.6,0.7-0.9,1.4-1.5c1.1-1.1,2.7-1.9,4.2-1.6
							c0.9,0.2,2.7,0.6,3.6,2L550.3,277.8z"/>
						<path class="st31" d="M547.5,268.1c-0.3,0-0.9,0-1.5,0c-3.9,0-4.7,0.3-5.3,0.6c-0.2,0.1-0.9,0.5-1.6,1.3
							c-0.6,0.7-1.5,2.7-1.7,3.7c1.2-1.1,1.7-2.4,3.1-3.3c1.8-1.2,3.5-0.7,5.5-0.5c0.6,0.1,1.8,0.2,2.3,0.2L547.5,268.1z"/>
					</g>
					<path class="st29" d="M552.5,290.1c0.5,0.4,1.1,0.8,2,0.9c2.8,0.5,5-2.1,5.2-2.2c-1,0.2-2.1,0.5-3.2,0.7
						C555.1,289.7,553.8,289.9,552.5,290.1z"/>
					<path class="st26" d="M580.1,274.2c-0.1,3.6,1.2,8.5,2.9,8.6c1.7,0.1,3.2-4.6,3.4-8.3c0.1-3.6-1.2-6.7-2.9-6.8
						C581.7,267.7,580.2,270.5,580.1,274.2z"/>
					<g>
						<path class="st10" d="M553.4,298.1c0.1,0.6,2,0.8,4.4,0.4c2.6-0.4,4.8-1.3,4.7-2c-0.1-0.7-2.5-0.8-5.1-0.3
							C555.1,296.6,553.3,297.5,553.4,298.1z"/>
						<path class="st28" d="M555.1,297.3c0.4,0,0.9,0,1.3,0c0.6,0,1-0.1,1.4-0.1c0.3-0.1,0.8-0.1,1.3-0.3c0.7-0.3,1.2-0.7,1.4-0.8
							c0.6-0.4,1.5-0.9,3.3-1.2c-0.1,0.6-0.3,2.3-1.7,3.7c-1.3,1.3-2.8,1.5-3.7,1.7c-1,0.2-2.2,0.3-3.5-0.4
							c-0.9-0.5-1.6-1.4-2.3-2.8C553.7,297.2,554.5,297.3,555.1,297.3z"/>
						<path class="st28" d="M556.7,294.5c0.5-0.3,1.3-0.7,2.3-0.8c0.9-0.1,1.4,0,2.8,0.4c0.7,0.2,1.9,0.6,3.2,0.8
							c-1.4,0.7-2.5,0.9-3.3,1c-0.9,0.1-1.7,0-3.2,0.3c-0.4,0.1-0.7,0.1-0.9,0.2c-0.2,0-0.6,0.1-1,0.2c-1.1,0.3-1.6,0.6-2.2,0.8
							c-0.6,0.2-1.5,0.4-2.8,0c1-0.8,1.6-1.4,2.1-1.9c0.5-0.5,0.9-0.9,1.6-1C555.8,294.4,556.4,294.4,556.7,294.5z"/>
					</g>
					<path class="st10" d="M586.4,292c0.6,7.3,0,13.3-1.4,13.4c-1.4,0.1-3-5.7-3.7-13c-0.6-7.3,0-13.3,1.4-13.4
						C584.2,278.9,585.8,284.7,586.4,292z"/>
					<path class="st26" d="M562.5,325"/>
					<path d="M556.5,349.9c18.8-4.8,37.6-9.6,56.4-14.4c-0.8,2.1-6.7,18.4-10,27.7c-0.5,1.3-1.2,3.4-2.1,6.2
						c-1.3,3.8-2.5,7.4-3.1,9.8c-2.2,8.3-1,18.1-0.8,19.5c0.5,3.4,1.5,8.2,3.9,13.6c-19.8,1.5-39.6,3.1-59.4,4.6
						c0.2-5.3-0.1-9.7-0.4-13c-1.3-14.2-4.7-21.4-6-23.5c0,0,0,0,0,0c-1.4-2.4-2.5-4.4-3.2-5.8c-2.4-4.8-3.9-9.3-4.5-12.2
						c-0.6-2.8-0.9-5.5-0.9-5.5c0-0.1,0-0.2,0-0.3c-0.8-9.5,3.5-19.3,3.5-19.3c0.3-0.7,0.7-1.4,1-2.1
						C539.4,340.1,547.9,345,556.5,349.9z"/>
					<g>
						<path class="st28" d="M469.5,465.9c0.2,0.2,0.4,0.4,0.6,0.5c0.2,0.2,0.4,0.3,0.6,0.5c2.8,2.2,6,4.3,9.3,5.9
							c0.3,0.1,0.5,0.3,0.8,0.4c0.5,0.2,1,0.4,1.4,0.6c0.2,0.1,0.4,0.2,0.6,0.3c0.7,0.3,1.4,0.6,2.2,0.8c0.2,0.1,0.3,0.1,0.5,0.2
							c0.3,0.1,0.6,0.2,0.9,0.3c0.2,0.1,0.5,0.1,0.7,0.2c0,0,0.1,0,0.1,0c0.2,0.1,0.5,0.1,0.7,0.2c0.3,0.1,0.5,0.1,0.8,0.2
							c0.3,0.1,0.5,0.1,0.8,0.2c0.3,0.1,0.5,0.1,0.8,0.1c0.2,0,0.4,0.1,0.5,0.1c0.6,0.1,1.2,0.1,1.7,0.2
							c5.9,6.2,11.8,10.8,16.8,14.1c1.9,1.3,3.8,2.4,5.4,3.3c1.3,0.7,2.7,1.5,4.1,2.3c4.2,2.3,8.9,4.6,14.1,6.1
							c2.7,0.8,5.6,1.4,8.6,1.6c2.6,0.2,5.3,0.2,8.1-0.2c2.6-0.3,4.7-0.8,6.1-1.2c0.8,0.7,1.7,1.4,2.7,2c2.1,1.4,4.2,2.4,5.9,3
							c-0.1-1.3-0.1-3,0.2-4.7c0.3-1.8,0.9-3.7,2-5.3c0.4-0.6,0.9-1.1,1.5-1.6c1-0.8,2.2-1.2,2.3-1.3c2.1-0.7,21.4-2.3,27.4-4.9
							c12.5-5.4,14.7-33.4,10.8-52.3c-2.2-10.5-5.3-20.1-8-25.2c-4.9,0.3-12.2,0.8-17.1,1.1c-14.2,1-28.2,2.2-42,3.5
							c-0.2,3.7-1.1,14-9,22.9c-13.8,7.4-23.5,9.8-29.9,10.6c-2.7,0.3-11.1,1-20.3,6c-1.5,0.8-2.8,1.6-3.6,2.1c0,0,0,0,0,0
							c-2.1,1.4-3.9,2.7-5.4,3.9C472,463.6,470.7,464.7,469.5,465.9z"/>
					</g>
					<path class="st28" d="M509.2,369.7c1.6,1,4.4,2.3,8.1,2.8c5.9,0.8,10.5-1.1,12.3-2c4.6,1.3,11,2.6,18.6,2.3
						c3.4-0.1,6.5-0.5,9.2-1c5.5,0.9,10.2,1,13.4,1c7.3-0.1,14.7-0.3,21.5-4.7c3.3-2.1,5.4-4.5,6.6-6.1c2.2,1.3,6.3,3.3,11.7,3.5
						c9.9,0.4,16.8-5.3,18.5-6.7c0-2.2-0.2-5.3-1.2-9c-0.9-3.4-4.3-14-14.7-20.7c-2.2-1.4-5.9-3.4-11-4.5
						c-7.4,3.8-15.7,7.6-24.8,11.2c-7.1,2.8-14,5.1-20.4,7.1c-4.2-1.1-9.2-2.7-14.6-5.4c-4.1-2-7.6-4.2-10.5-6.3
						c-4.6,1.4-7.7,3.4-9.6,4.8c-11.5,8.7-12.8,23.2-13.1,26.6C508.9,366,509.1,368.7,509.2,369.7z"/>
					<g>
						<path d="M509.2,369.7c1.5,1,5.3,3.1,10.6,3.2c4.7,0.1,8.2-1.5,9.8-2.4c1.6,1.1,3.4,2.1,5.6,2.9c9.8,3.6,19.1-0.2,22.2-1.7
							c2.5,1.2,11.6,5.3,23,2.5c10.6-2.5,16.7-9.4,18.5-11.7c2,1.2,6.5,3.5,12.6,3.4c1.2,0,5.8-0.1,10.9-2.7
							c3.1-1.5,5.2-3.3,6.6-4.7c0-0.8-0.1-4.4-1.2-9c-1.7,1.6-6.5,5.8-14,7c-8.3,1.3-14.6-1.9-16.5-2.9c-1.4,1.9-3.9,4.7-7.7,6.9
							c-3.5,2-6.5,2.5-11.5,3.3c-5,0.8-9.1,1.4-14.2,0.4c-3.2-0.7-6.1-2.3-7.7-3.1c-1.5,1.1-3.5,3-6.6,3.8c-2.7,0.7-4.7,0.7-8.3,0.7
							c-3.8,0-5.8,0.4-8.2-0.4c-2.7-0.9-4.5-2.8-5.7-3.9c-0.9,1-3.3,3.1-6.9,3.9c-6,1.3-10.6-2.2-11.3-2.8
							C508.9,366,509.1,368.7,509.2,369.7z"/>
					</g>
					<g>
						<g>
							<path class="st30" d="M570.6,272.3c0.7,2.2-3.3,3.6-4,4c2.9-0.7,5.2-1.7,5.7-3.1L570.6,272.3z"/>
							<path class="st10" d="M560.8,276.3c0.1-0.6,0.4-1.8,1.4-3c0.2-0.3,1.8-2,4.3-2.2c3.1-0.2,5.1,2.1,5.3,2.3
								c-0.7,0.7-2.4,2.4-5.3,3.1C563.9,277.1,561.8,276.6,560.8,276.3z"/>
							<path class="st31" d="M568.2,274.1c-0.1,1.5-1.3,2.5-3.2,2.5c-1.8,0-2.7-1.1-2.7-2.9c0-0.8,1.5-2.3,3.3-2.3
								C567.5,271.4,568.3,272.6,568.2,274.1z"/>
							<path class="st30" d="M566.8,274.5c-0.1,1-0.9,1.7-1.9,1.7c-0.9,0-1.6-0.9-1.6-1.9c0.1-1,0.9-1.7,1.9-1.7
								C566.2,272.7,566.9,273.5,566.8,274.5z"/>
							<path class="st10" d="M566.2,273.4c0,0.2-0.2,0.4-0.4,0.4c-0.2,0-0.4-0.2-0.4-0.4c0-0.2,0.2-0.4,0.4-0.4
								C566.1,273,566.2,273.2,566.2,273.4z"/>
							<path class="st31" d="M558.8,266.1c0.4-0.1,1.7-0.6,2.4-0.8c4.7-1.6,5.7-1.7,6.7-1.7c0.3,0,1.3,0.1,2.5,0.5
								c1,0.4,3,1.8,3.7,2.6c-1.9-0.5-3.1-1.5-5.2-1.7c-2.7-0.3-4.4,0.8-6.7,1.8c-0.6,0.3-2.7,1.1-3.3,1.4L558.8,266.1z"/>
						</g>
						<path class="st30" d="M560.4,276.2l0.4,0.1c0.1-0.4,0.9-2.8,3.1-3.8c1.9-0.9,4-0.4,5,0c0.2,0.1,0.4,0.2,0.5,0.2
							c0.1,0,0.2,0.1,0.2,0.1c0.9,0.4,1.9,0.5,2.7,0.3c0.3-0.1,0.6-0.2,0.8-0.4c0.2-0.2,0.6-0.4,0.8-0.9c-0.3,0.1-0.6,0.2-1,0.2
							c-1.5,0.2-2.7-0.3-3.3-0.6l0,0c-1.5-1-4.3-1.9-6.4-0.8C560.6,272,560.4,275.9,560.4,276.2z"/>
					</g>
					<path class="st30" d="M568.2,271.5c0.2,0.2,0.5,0.3,0.7,0.4c-0.1,0-0.2-0.1-0.2-0.1C568.6,271.7,568.4,271.6,568.2,271.5z"/>
					<path d="M467.8,467.7c4.4,3.1,8.7,4.7,11.9,5.6c1,0.3,1.9,0.5,2.7,0.6c0.2,0,0.4,0.1,0.6,0.1c0,0.1,0,0.1,0.1,0.2
						c0.7,1.7,1.8,3.4,3,4.9c7.4,9.3,22.2,14.5,22.2,14.5l0,0l1.4-2.9l4.2-8.5c-5.9-2.6-18.3-9-22.1-18.3c-1.9-0.3-5.7-1.1-9.8-3.4
						c-1-0.5-2-1.2-3-1.9c0,0,0,0,0,0c-2.1,1.4-3.9,2.7-5.4,3.9c-1.4,1.1-2.7,2.3-3.9,3.5C468.9,466.5,468.3,467.1,467.8,467.7z"/>
					<path d="M508.2,493.6c0,0,4.3,2.8,10.1,5.2c4.4,1.8,9.7,3.5,14.8,3.6c2,0.1,4-0.1,5.9-0.6c0.8,0.8,1.7,1.5,2.7,2.3
						c6.2,4.5,15.8,7.2,22.9,6.9c0-1-0.1-2,0-3c0-0.1,0-0.1,0-0.2c0-0.4,0-0.9,0-1.3c0,0,0,0,0-0.1c0-1.1,0.1-2.3,0.2-3.3
						c0.3-1.8,0.9-3.7,2-5.3c-0.5,0-0.9,0.1-1.4,0.1c-1.4,0.1-3,0-4.6-0.2c-9.2-1.1-15.2-6.4-17.2-8.4c-4.1,0.3-10.2,0.3-17.3-1.6
						c-1.5-0.4-2.9-0.9-4.2-1.4c-3.3-1.3-6.1-2.7-8.2-4l0,0l-4.2,8.5L508.2,493.6z"/>
				</g>
			</g>
			<g>
				<g>
					<g>
						<path class="st26" d="M529.7,376c-4.8,14.7-9.7,29.5-14.5,44.2c-17.4,4.6-34.8,9.2-52.2,13.8c-0.9-2.7-1.9-5.4-2.8-8
							c14.6-7.2,29.2-14.3,43.9-21.5c2.7-10.4,5.5-20.8,8.2-31.2C518,374.2,523.9,375.1,529.7,376z"/>
					</g>
					<g>
						<g>
							<path class="st26" d="M454.2,437.8c0,0-1.2,1.7-4.6,1.9c-2.2,0.2-7.8-0.4-12.2,0.3c-1.6,0.3-1.2-2.6,2-3.2
								c1.5-0.3,4.1-1.1,4.8-1.2c1.8-0.5,2.6-3.9,2.6-3.9L454.2,437.8z"/>
						</g>
						<g>
							<path class="st26" d="M456.5,436.9c-2.2,1.4-3.9,3-7.8,1.6c-2.8-1-5.4-2.2-7.6-3.2c-2,1-4.6,2.4-4.9,3.1
								c-0.4,1-1.3,4.1-1.7,5.8c-0.5,1.7-2.1,1.5-2.1,0.3c0.1-1.2,0.3-5.4,0.9-6.4c0.6-1,1.7-2.6,1.7-2.6s-3.3,2.1-4.2,3
								c-0.9,0.9-3.1,5.3-3.7,6c-0.6,0.7-2.4,0.3-2.1-1.4c-1.1,1.1-2.7-0.4-2.1-1.6c0.5-1.2,2.1-5.4,3.2-6.7
								c0.6-0.7,2.6-1.9,3.5-2.6c0.6-0.6,0.4-0.6,0-0.5c-2.2,0.8-3.6,1.8-6.5,2.7c-2.4,0.8-3.8-0.7-1.7-1.8c1-0.5,5-2.7,8.1-4.1
								c1.7-0.8,5.1-0.1,7.8,0.2c4.7,0.5,11.6,1.1,12.5,0.9c5.7-1.6,10.3-3.6,10.3-3.6l3.8,7.7C463.9,433.6,458.1,435.8,456.5,436.9
								z"/>
						</g>
						<g>
							<g>
								<path class="st29" d="M432.8,433.2c0,0-1.2,0.7-2.4,1.6l0,0c-1.3,0.9-2.6,1.8-2.9,2.3l0,0c-0.7,1-2.6,6-2.6,6l0,0l0,0
									c0,0.1,0,0.2,0.1,0.3l0,0c0.1,0,0.2,0,0.3-0.1l0,0c0,0,0.5-1.3,1.1-2.6l0,0c0.6-1.4,1.2-2.9,1.5-3.3l0,0
									c0.3-0.4,1.6-1.4,2.8-2.2l0,0c1.2-0.8,2.4-1.6,2.4-1.6l0,0c0.1-0.1,0.1-0.2,0.1-0.3l0,0c0-0.1-0.1-0.1-0.2-0.1l0,0
									C432.9,433.1,432.9,433.2,432.8,433.2L432.8,433.2z"/>
							</g>
						</g>
					</g>
					<g>
						<path class="st26" d="M599.5,412.6c-16.7,14.8-33.5,29.6-50.2,44.3c3.8,5,2.3,3,6.1,8l60.6-39.5c1.6-1,2.7-2.8,2.9-4.7
							c2.3-20.7,4.7-41.4,7-62.2c-2,1.5-6,4.3-11.9,5.2c-4.2,0.7-7.6,0.2-9.8-0.3c-0.8,14.6-1.6,29.2-2.5,43.8c0,0.2,0,0.5,0,0.8
							C601.7,408.1,601.7,410.7,599.5,412.6z"/>
					</g>
				</g>
				<g>
					<path d="M509.2,369.7c1.5,1,5.3,3.1,10.6,3.2c4.7,0.1,8.2-1.5,9.8-2.4c1.6,1.1,3.4,2.1,5.6,2.9c9.8,3.6,19.1-0.2,22.2-1.7
						c2.5,1.2,11.6,5.3,23,2.5c10.6-2.5,16.7-9.4,18.5-11.7c2,1.2,6.5,3.5,12.6,3.4c1.2,0,5.8-0.1,10.9-2.7c3.1-1.5,5.2-3.3,6.6-4.7
						c0-0.8-0.1-4.4-1.2-9c-1.7,1.6-6.5,5.8-14,7c-8.3,1.3-14.6-1.9-16.5-2.9c-1.4,1.9-3.9,4.7-7.7,6.9c-3.5,2-6.5,2.5-11.5,3.3
						c-5,0.8-9.1,1.4-14.2,0.4c-3.2-0.7-6.1-2.3-7.7-3.1c-1.5,1.1-3.5,3-6.6,3.8c-2.7,0.7-4.7,0.7-8.3,0.7c-3.8,0-5.8,0.4-8.2-0.4
						c-2.7-0.9-4.5-2.8-5.7-3.9c-0.9,1-3.3,3.1-6.9,3.9c-6,1.3-10.6-2.2-11.3-2.8C508.9,366,509.1,368.7,509.2,369.7z"/>
				</g>
			</g>
			<path class="st26" d="M552.3,454.1c-2.8,2.4-5.6,4.9-8.3,7.3c-2.7,0.5-4.9,1.1-6.5,1.6c-4.5,1.3-6.8,2-8.3,3.7
				c-0.4,0.4-0.5,0.6-2.7,4.7c-1.2,2.1-2.1,3.8-2.7,4.8c0.5,0.5,0.9,0.5,1.1,0.5c0.7,0,1.3-0.7,2.2-1.8c0.2-0.3,0.4-0.5,0.5-0.7
				c0,0-2.4,2.9-4.6,6.3c-1,1.5-1.9,3-1.4,3.6c0.1,0.2,0.3,0.2,0.4,0.3c0.8,0.2,1.7-0.9,3.7-3.2c1.3-1.5,3-3.3,3-3.3c0,0,0,0,0,0
				c0,0-0.1,0.2-3.2,4.5c-1.8,2.4-2.9,3.9-0.4,3.7c0.8-0.1,1.2-0.8,1.3-0.9c4-4.2,5.3-5.6,5.4-5.5c0.1,0.1-5.3,5.5-4.3,6.8
				c1.1,1.1,3-0.5,3.2-1c2-2.3,4.5-4.9,4.4-4.8c-0.2,0.2-2.6,2.3-2.3,3.2c1.9,2.2,14.8-12.2,13.8-10.7c2.2-2.6,5.2-5.5,9-8.4
				c2.2-1.6,4.3-3,6.2-4C558.5,458.6,555.4,456.4,552.3,454.1z"/>
		</g>
		<g style="clip-path:url(#SVGID_00000098942083262936657180000007530209703726648234_);">
			<path class="st18" d="M266.2,457.9c1.5,11.8-8.4,21.7-20.2,20.2c-8-1-14.5-7.5-15.5-15.5c-1.5-11.8,8.4-21.7,20.2-20.2
				C258.7,443.4,265.2,449.8,266.2,457.9z"/>
			<g>
				<g>
					<path class="st32" d="M313.3,569.3c7.6-3.8,9.8-10.3,9.8-10.3l-0.7-1.7l-0.7-1.7c0,0-6.2-2.8-14.2,0.1c-8,3-3.9,9.8-3.9,9.8
						S305.7,573.1,313.3,569.3z"/>
					<path class="st33" d="M312.1,567.1c5.4-2.4,10.9-8.3,10.9-8.3l-0.7-1.5l-0.7-1.5c0,0-8,0-13.5,2.3c-4.1,1.7-5.5,4.1-4.1,7.2
						C305.3,568.3,308,568.9,312.1,567.1z"/>
					<g>
						<g>
							<path class="st32" d="M321.4,555.2c0.2,0.8-0.7,0.5-1.5,0.3c-5.8-1.8-10.3-1.7-11.1-1.6c-1.8,0.3-3.8,1.2-4.4-1
								c-0.8-2.7,3.7-3.3,7.6-2.5C315.5,551.2,320.9,553.7,321.4,555.2z"/>
						</g>
						<g>
							<path class="st32" d="M323.2,559.4c-0.4-0.7-0.9,0.1-1.2,0.9c-2.6,5.4-5.8,8.7-6.4,9.2c-1.5,1.1-3.5,1.9-2.3,3.9
								c1.4,2.4,5-0.5,7-3.9C322.1,566.4,324,560.8,323.2,559.4z"/>
						</g>
					</g>
					<path class="st32" d="M305.2,562.1c-1.7,1-3,1-3.9,0c-1.2-1.2-0.7-3.3,0.3-5.1c1.6-2.7,5.4-2.7,6.6-0.4
						C309.3,558.7,306.9,561,305.2,562.1z"/>
					<path class="st33" d="M305,561c-0.8,0.9-2.1,1.1-2.9,0.4c-0.8-0.7-0.9-2-0.1-2.9c0.8-0.9,2.1-1.1,2.9-0.4
						C305.7,558.8,305.8,560.1,305,561z"/>
					<path class="st33" d="M307.5,558.3c-0.4,0.5-1.1,0.6-1.5,0.3c-0.4-0.3-0.4-1,0-1.5c0.4-0.5,1.1-0.6,1.5-0.3
						C308,557.1,308,557.8,307.5,558.3z"/>
					<path class="st33" d="M305.9,557c-0.3,0.5-0.8,0.6-1.2,0.4c-0.4-0.2-0.5-0.8-0.2-1.2c0.3-0.5,0.8-0.6,1.2-0.4
						C306.1,555.9,306.2,556.5,305.9,557z"/>
					<path class="st33" d="M304,556.8c-0.2,0.4-0.6,0.7-0.9,0.5c-0.3-0.1-0.5-0.6-0.3-1c0.2-0.4,0.6-0.7,0.9-0.5
						C304,555.9,304.2,556.3,304,556.8z"/>
					<path class="st32" d="M307.2,566.8c-1.9,0.6-2.7,1.5-2.7,2.8c0,1.7,1.9,2.8,3.9,3.3c3,0.7,5.6-2.1,4.8-4.6
						C312.5,566.1,309.1,566.2,307.2,566.8z"/>
					<path class="st33" d="M307.9,567.6c-1.2-0.1-2.2,0.8-2.3,1.9c-0.1,1.1,0.9,2,2.1,2.1c1.2,0.1,2.2-0.8,2.3-1.9
						C310,568.6,309.1,567.7,307.9,567.6z"/>
					<path class="st33" d="M311.6,567.6c-0.7,0-1.2,0.4-1.2,0.9c0,0.5,0.5,1,1.1,1c0.7,0,1.2-0.4,1.2-0.9
						C312.8,568.1,312.3,567.7,311.6,567.6z"/>
					<path class="st33" d="M311.4,569.8c-0.5-0.1-1,0.1-1.1,0.6c-0.1,0.4,0.3,0.9,0.8,1c0.5,0.1,1-0.1,1.1-0.6
						C312.3,570.3,312,569.9,311.4,569.8z"/>
					<path class="st33" d="M310.3,571.2c-0.4-0.2-0.9,0-1,0.3c-0.1,0.3,0.1,0.8,0.5,0.9c0.4,0.2,0.9,0,1-0.3
						C310.9,571.8,310.7,571.4,310.3,571.2z"/>
				</g>
				<g>
					<path class="st32" d="M333.9,561.9c1.4-1.9,1.9-3.4,1.8-5.8c-0.3-5.2-3.6-10.7-10.1-12.1c-2.9-0.6-4.5,0.5-5.8,3.6
						c-1.4,3.3-2.6,6.9-1.2,10.1c1.2,2.7,4.7,5.3,7.6,6.2C330.7,565.3,332.2,564.4,333.9,561.9z"/>
					<path class="st33" d="M335.7,556.2c-0.2-3.7-1.9-7.6-5.3-10c-1.1,1.7-2.7,4.2-4,5.6c-2.7,2.8-6.9,3.8-6.2,5.3
						c0.7,1.5,5.7-0.8,8-0.8c2.7,0,5.8,0.5,7.5,0.9C335.7,556.8,335.7,556.5,335.7,556.2z"/>
					<g>
						<g>
							<path class="st34" d="M322.3,552.6c-0.7,0.3-1.6,0-1.9-0.7c-0.3-0.7,0-1.6,0.7-1.9c0.7-0.3,1.6,0,1.9,0.7
								C323.4,551.4,323.1,552.3,322.3,552.6z"/>
							<path class="st35" d="M321.9,552.2c-0.4,0.2-0.8,0-0.9-0.4c-0.2-0.4,0-0.8,0.4-0.9c0.4-0.2,0.8,0,1,0.4
								C322.4,551.6,322.2,552,321.9,552.2z"/>
							<path class="st36" d="M321.2,550.5c0.6-0.3,1.3,0,1.5,0.6c0.2,0.5,0.1,1-0.3,1.3c0.5-0.3,0.7-1,0.5-1.5
								c-0.3-0.6-1-0.9-1.6-0.6c-0.5,0.2-0.8,0.7-0.7,1.2C320.5,551,320.8,550.7,321.2,550.5z"/>
							<path class="st36" d="M322.1,551.3c-0.2,0.1-0.3,0-0.4-0.2c-0.1-0.2,0-0.3,0.2-0.4c0.2-0.1,0.3,0,0.4,0.2
								C322.3,551,322.3,551.2,322.1,551.3z"/>
							<path class="st36" d="M321.5,551.1c-0.1,0-0.2,0-0.3-0.1c0-0.1,0-0.2,0.1-0.3c0.1,0,0.2,0,0.3,0.1
								C321.7,550.9,321.6,551.1,321.5,551.1z"/>
						</g>
						<g>
							<path class="st34" d="M325,558.8c-0.7,0.3-1,1.1-0.7,1.9c0.3,0.7,1.1,1,1.9,0.7c0.7-0.3,1-1.1,0.7-1.9
								C326.6,558.8,325.8,558.5,325,558.8z"/>
							<path class="st35" d="M325,559.4c-0.4,0.2-0.5,0.6-0.4,0.9c0.2,0.4,0.6,0.5,0.9,0.4c0.4-0.2,0.5-0.6,0.4-1
								C325.8,559.4,325.4,559.2,325,559.4z"/>
							<path class="st36" d="M325.8,561.1c0.6-0.3,0.9-0.9,0.6-1.5c-0.2-0.5-0.7-0.7-1.2-0.7c0.6-0.1,1.2,0.1,1.4,0.7
								c0.3,0.6,0,1.3-0.6,1.6c-0.5,0.2-1,0.1-1.4-0.3C324.9,561.2,325.4,561.2,325.8,561.1z"/>
							<path class="st36" d="M325.8,559.8c-0.2,0.1-0.2,0.2-0.2,0.4c0.1,0.2,0.2,0.2,0.4,0.2s0.2-0.2,0.2-0.4
								C326.2,559.8,326,559.8,325.8,559.8z"/>
							<path class="st36" d="M325.5,560.4c-0.1,0-0.1,0.2-0.1,0.3c0,0.1,0.2,0.1,0.3,0.1c0.1,0,0.1-0.2,0.1-0.3
								C325.8,560.4,325.6,560.3,325.5,560.4z"/>
						</g>
					</g>
					<g>
						<g>
							<path class="st32" d="M349.6,564.7c1-0.4,3.2-1.3,0.8-4c-1.8-2-3.8-3.1-5.5-3.7c-4-1.6-7.8-2.6-11.2-1.3c0,0-0.8,2.8-0.2,3.2
								c0,0,5.2,3.8,7.6,4.7C344.2,564.9,347.1,565.7,349.6,564.7z"/>
						</g>
						<g>
							<path class="st33" d="M346,562.6c4.4-0.7-2.3-4.1-3.6-4.5c-3.1-1.2-7.4-1.6-8.6-1.8c0,0-0.8,1.1-0.5,2.2c0,0,4.5,2.1,6.3,2.8
								C341.9,562.2,343.9,562.9,346,562.6z"/>
						</g>
					</g>
					<g>
						<g>
							<path class="st37" d="M335.1,538.6c-1.1-0.5-2.2-0.9-3.3-1.4c-0.3-0.1-0.6-0.3-1-0.4c-0.1,0.2-0.2,0.4-0.3,0.5
								c-1.4,2.8-2.4,8.9-2.4,8.9c0,0.3,2.5,2.2,2.5,2.2c3.2-2.1,5.1-4.7,6.9-8.1C336.7,539.8,336,539,335.1,538.6z"/>
						</g>
						<g>
							<path class="st33" d="M336.1,539.5c0,0-4.2-0.9-4.8,0.6c-1,2.1-2.8,6.5-2.8,6.5c0,0.2,1.9,1.6,1.9,1.6
								C331.2,546.9,334.3,543,336.1,539.5z"/>
						</g>
						<g>
							<path class="st32" d="M334.3,535.7c-0.8-0.7-2.8-0.5-4.9-0.3c-1.3,0.1-6.3,2.1-6,3c0.3,0.9,8.2,2.8,9.6,2.7
								C335.9,541,341,541.8,334.3,535.7z"/>
						</g>
					</g>
					<path class="st38" d="M320,560c1.2,0.2,2-3,1.6-3.6c-0.3-0.7-1.1-0.8-2.4-1.4c-0.7-0.4-1.1-0.1-1.4,0.2
						c0.1,0.9,0.2,1.8,0.6,2.6C318.9,558.5,319.4,559.3,320,560z"/>
					<g>
						<g>
							<path class="st39" d="M319.9,557.2c0,0-0.5,0.2-0.8,0.4c-0.3,0.1-0.8-0.2-0.3-0.9"/>
						</g>
						<g>
							<path class="st39" d="M319.9,557.2c0,0-0.5,0.2-0.8,0.4c-0.3,0.1-0.4,0.7,0.5,0.9"/>
						</g>
					</g>
					<g>
						<path class="st40" d="M320.7,558.2c-0.3-0.1-0.7-0.3-1-0.6c-0.1-0.2-0.3-0.6-0.3-0.8c0-0.4,0.1-0.8,0.3-1.1
							c0.1-0.2,0.8-0.7,1.4,0.8C321.8,558.2,320.9,558.3,320.7,558.2z"/>
						<g>
							<g>
								<path class="st41" d="M319.4,556.9c0.1,0,0.2,0,0.3,0c0.2-0.1,0.3-0.4,0.1-0.8c0-0.1-0.1-0.2-0.2-0.3
									C319.5,556.1,319.3,556.5,319.4,556.9z"/>
								<path class="st41" d="M320.7,558.2c0-0.1,0-0.2-0.1-0.3c-0.2-0.4-0.5-0.5-0.7-0.5c-0.1,0-0.2,0.1-0.2,0.2
									C320,558,320.4,558.2,320.7,558.2z"/>
							</g>
						</g>
						<path class="st42" d="M321.1,557.4c0,0,0.1-0.5-0.4-1.2c-0.5-0.6-0.9-0.5-0.9-0.4c0,0.1,0.3,0.5,0.2,0.9
							C319.9,557.1,320.3,555.9,321.1,557.4z"/>
					</g>
					<g>
						<path class="st43" d="M319.1,556.2c-0.3,0.1-0.6,0-0.7-0.3c-0.1-0.3,0-0.6,0.3-0.7c0.3-0.1,0.6,0,0.7,0.3
							C319.5,555.8,319.4,556.1,319.1,556.2z"/>
						<path class="st43" d="M320.4,559.3c-0.3,0.1-0.6,0-0.7-0.3c-0.1-0.3,0-0.6,0.3-0.7c0.3-0.1,0.6,0,0.7,0.3
							C320.8,558.9,320.7,559.2,320.4,559.3z"/>
					</g>
				</g>
			</g>
			<path class="st12" d="M301,493.4c4.9,15.3,9.9,30.7,14.8,46c1.4,0.9,4.6,3.2,6.2,7.3c2.7,6.7-0.1,13.7-0.7,13.7
				c-0.5,0-0.4-6.7-0.7-6.8c-0.5,0-0.1,8.3-1.5,8.3c-1.3,0-1-2.4-1.6-8.7c0.3,6.7,0.4,8.1-0.2,8.2c-0.9,0.2-0.9-1.3-2.2-7.8
				c-0.1,3.2,0,4-0.7,4c-0.6,0-0.7-1.9-2-5.2c-1.3-3.2-1.8-3.4-2.5-5.8c0,0,0,0,0,0c-0.4-2.1-0.1-3.8-0.1-4
				c0.1-1.1-3.6-10.6-16.6-39.7C295.8,499.7,298.4,496.5,301,493.4z"/>
			<path class="st44" d="M286.2,501.4c-2.3-6-5.6-17.5-0.2-27.2c0.4-0.7,0.8-1.3,1.2-2c1.6,0.6,3.7,1.4,5.8,2.8c0,0,0.6,0.4,1.3,0.9
				c7.7,5.8,13.9,22.8,13.9,22.8c1.1,3.1,2.5,7.2,3.8,12.3c-5.9,2.7-11.8,5.5-17.6,8.2C291.6,513.3,288.9,507.3,286.2,501.4z"/>
			<g>
				<g>
					<path class="st12" d="M276.2,572.3c0.7,11.8,1.4,23.6,2.1,35.5c-0.2,0.7-0.4,1.9-0.9,3.4c-1.3,4.4-3.1,10.6-8.3,14.6
						c-0.8,0.6-4.6,3.6-6.6,2.4c-1.5-1-1.2-4.1-1-6.2c0.3-3.2,1.3-5,2.9-9.5c0.9-2.6,1.6-4.7,2-6.3c-1.7-9.3-3.4-18.5-5.2-27.8
						C266.3,576.3,271.2,574.3,276.2,572.3z"/>
					<path class="st45" d="M263.2,623.7c0.9,0.8,2.2,0.5,2.7,0.4c2.1-0.4,4.4-2.3,9.2-10.6c1.2-2.1,2.3-4.1,3.2-5.9
						c0.2,0.6,0.4,1.3,0.6,2.1c0.3,1.2,0.5,2.3,0.6,3.3c-0.9,2.2-1.7,3.7-2.3,4.5c-0.1,0.3-0.4,0.7-0.7,1.1c-0.6,1-1.1,1.7-1.7,2.7
						c-4.3,6.7-5.1,9-8.1,11.1c-0.3,0.2-1.4,0.9-3,1.2c-0.7,0.1-2.9,0.6-4.3-0.7c0,0-0.1-0.1-0.1-0.1c-1.3-1.3-1.4-3.2-1.4-3.9
						c-0.1-2.4,0.9-4.9,1.9-7.2c2-4.5,3.5-7.1,3.6-7.1c0.2,0.1-1.4,3-1.2,6.7C262.4,622.1,262.5,623.1,263.2,623.7z"/>
					<path class="st12" d="M244.6,591.4c-2.2,6-5,12.7-8.7,19.8c-2.9,5.6-5.9,10.5-8.9,15c-1.2,1.8-2.4,3.5-3.5,5.1
						c0.1,1,0.1,2,0.2,2.9c0.1,1.4,0.2,2.7,0.2,4.1c0.1,1.1-0.5,2.2-1.6,2.7c-0.1,0-0.1,0.1-0.2,0.1c-1.2,0.6-2.6,1.4-4,2.6
						c-3.7,3.1-3.8,5.7-6.6,9c-0.6,0.7-1.3,1.4-2,2.1c0,0,0,0,0,0c-4.3,3.3-10.2,4.3-12,2.4c-0.1-0.1-0.1-0.1-0.1-0.2
						c-0.1-2,0.9-4.8,1.5-6.7c1.2-3.3,2.5-5.7,4.1-7.8c3-4.1,6.5-7.1,9.9-13.1c0.9-1.6,1.7-3.6,2.7-6.7c0.6-1.9,1.4-4.2,2.3-7
						c3-9.3,5-17.2,6.3-22.9C231.1,592.2,237.8,591.8,244.6,591.4z"/>
					<path class="st44" d="M210.6,626.8c6.2,0.7,12.5,1.4,18.7,2c5.3-12.1,10.7-24.2,16-36.4c1.4-3.1,3-6.3,4.9-9.6
						c3.9-7,8.2-13,12.2-18c-6.6-3-13.2-6-19.8-9c-3.2,1.3-9.8,4.4-15.5,11.3c-6,7.4-7.6,15-8.2,18.4
						C216.2,599.4,213.4,613.1,210.6,626.8z"/>
					<path class="st44" d="M260.6,603.6c7.1-0.3,14.2-0.5,21.3-0.8c-0.9-8.7-0.9-21,2.9-34.8c1.6-5.6,3.5-10.5,5.5-14.7
						c-6.2-6.1-15.3-7.5-22.3-3.7c-8.2,4.4-9.3,13.8-9.4,14.6C259.2,577.3,259.9,590.4,260.6,603.6z"/>
				</g>
				<path class="st46" d="M299.5,567.1c-0.8,0.2-1.2,0.4-1.8,0.7c-2.2,1.2-2.1,2.1-3.5,2.5c-2.7,0.9-4.3-2.2-6.8-1.6
					c-3.1,0.8-3.2,6.5-5.3,6.6c-2,0.1-3.1-4.7-5.4-4.6c-0.8,0.1-1.3,0.7-2,1.6c-3.3,3.9-5.5,6.5-7.6,6.6c-2.8,0.2-3.3-4.4-6.6-4.9
					c-4.3-0.6-6.6,7-11,6.5c-3.4-0.4-4.3-5.2-8.5-5.2c-0.2,0-1.4,0.2-3.9,0.5c-3.7,0.5-4,0.6-4.6,0.3c-2.2-1-1.1-4.3-3.3-5.8
					c-2.6-1.8-6.5,1.2-7.9-0.5c-0.9-1.1,0.6-2.6-0.3-4.6c-0.2-0.5-0.6-0.9-1-1.2c1.9-2.5,3.8-4.7,5.7-6.7c7.1-7.4,14.4-12,19.1-14.5
					c0.6-10.2,0.9-18.7,1-25.3c0.3-12.8,0-14.8-1.1-17.3c-3.6-8.6-11.7-13.1-9.9-17c0.3-0.7,1.4-1.7,3.6-3.9
					c1.6-1.5,2.9-2.7,3.9-3.5c0,0,4.5-2.2,10.1-4c0.2-0.1,0.4-0.1,0.6-0.2c0.6-0.2,1.1-0.3,1.7-0.5c0.2,0,0.3-0.1,0.5-0.1
					c0.2-0.1,0.4-0.1,0.6-0.1c4.3-1.1,10.6-1.7,18.1-1.4h0c0.1,0,0.1,0,0.2,0c0.5,0,1,0.1,1.6,0.1c0.2,0,0.4,0,0.6,0
					c3.5,0.3,7.4,1.1,11.5,2.8c1,0.4,2.1,0.8,3.3,1.5c1.6,0.8,2.8,1.8,3.8,2.6c-2.6,7.7-5.4,19.1-4.6,32.9c0,0.3,0,0.6,0.1,1
					c1,12.7,2.9,21.8,4.1,27.5c1.7,8.1,2.9,14.3,3.7,19.2C299,561.5,299.4,564.7,299.5,567.1z"/>
				<path class="st12" d="M236.1,522.7c-0.6,2,0.2,4.2,2,5.4c4.7,3.2,8.2,5.4,9.4,6.2c2.3,1.4,4.5,2.3,4.5,2.3c0,0,0,0,0,0l0,0
					c3.2,1.4,5.1,1.6,7.6,3.2c5.5,3.5,8.2,9.5,7.3,10.1c-1.1,0.7-4.3-5.2-4.6-4.9c-0.4,0.3,5,6.7,3.8,7.5c-1,0.8-2.2-1.3-6.6-5.9
					c4.4,5.1,5.2,6.2,4.8,6.6c-0.6,0.7-1.5-0.5-6.5-4.9c1.9,2.6,2.4,3.1,1.9,3.6c-0.5,0.4-1.7-1-4.7-2.9c-3-1.8-3.5-1.6-5.5-3.1
					c-0.4-0.3-0.7-0.6-1-0.8c-1-0.8-1.4-1.3-2.4-2.3c-1.6-1.6-4.4-2.8-5.5-3.3c-2.5-1.2-6.5-3.3-12.4-6.6c-1.8-1-2.8-3.1-2.4-5.2
					c2.2-11.8,4.3-23.6,6.5-35.4c3.5,2.3,7,4.5,10.5,6.8C240.5,507,238.3,514.9,236.1,522.7z"/>
				<path class="st44" d="M222.3,507.3c5.1-11.5,9.1-19.8,10.3-21.9c1.3-2.2,2.7-3.9,2.7-3.9c0.4-0.4,0.8-0.8,1.2-1.3
					c2.9-2.8,5.9-4.3,7.8-5.2c1.4,6.4,2.7,12.7,4.1,19.1c-1.7,6.6-3.5,13.3-5.2,19.9C236.2,511.8,229.3,509.5,222.3,507.3z"/>
			</g>
			<g>
				<path class="st12" d="M276.4,458.9c-5.4-0.7-10.7-1.4-16.1-2.1c-0.1,4.4-0.2,8.9-0.3,13.3c0.9,1.1,2,2.2,3.3,3.4
					c3.1,2.7,6.3,4.3,8.7,5.1c0.7-0.5,1.9-1.6,2.8-3.3c0.7-1.3,0.9-2.5,0.9-3.3C275.9,467.7,276.1,463.3,276.4,458.9z"/>
				<path class="st17" d="M275.9,467c-5.3-2.7-10.7-5.4-16-8.1c0.1,1.9,0.2,3.8,0.3,5.7c1.6,1.5,4.1,3.6,7.6,4.8
					c3.2,1.1,5.1,0.8,5.7,0.7c1-0.2,1.8-0.5,2.3-0.7C275.8,468.6,275.9,467.8,275.9,467z"/>
				<g>
					<path class="st12" d="M286.9,426.4c0,4.6,1.9,15.1-0.1,24.6c-2,9.3-8.1,19.5-16.4,17.1c-13.5-3.8-15.1-10.7-16.8-21.3
						c-1.4-8.6-2.1-17.5-2.1-22.2L286.9,426.4z"/>
					<path class="st18" d="M244.6,431.5c0,5.3-0.1,20.1,8.6,24.9c0.6,0.3,1.6,0.8,3,1.1c-1-2.8-1.9-5.9-2.7-9.2
						c-0.5-1.9-0.9-3.8-1.2-5.6c2.9,1.1,4,2.5,4.4,3.7c0.2,0.7,0.2,1.2,0.7,4.4c0.3,2.1,0.4,2.3,0.5,2.3c0.6,0-0.5-6.1,3.2-10.9
						c0.6-0.8,1.9-2.2,2.6-4.5c0.6-2,0.5-3.8,0.4-5c1-0.3,2.6-0.8,4.6-1.3c6.1-1.4,13.3-3,16.8,0.6c0.7,0.7,1.8,2.1,2,4.9
						c0.6-2.2,1.5-6.8-0.4-11.7c-3.5-8.8-13.7-11.9-20.6-12.1c-1,0-13.2-0.1-19.1,9C245.4,425.3,244.6,428.3,244.6,431.5z"/>
					<g>
						<path class="st47" d="M278.1,459.8c-0.1-0.3-1.4,0.5-3.8,0.5c-2.1,0-3.2-0.7-3.3-0.4c-0.2,0.4,1.4,2.1,3.3,2.2
							C276.5,462.1,278.3,460.2,278.1,459.8z"/>
						<path class="st17" d="M277.4,456c-0.3,0.2-0.8,0.4-1.4,0.5c-1,0.1-1.6-0.3-1.7-0.3c0,0.1,1.3,1.3,2.3,0.8
							C277.2,456.8,277.3,456.2,277.4,456z"/>
						<path d="M279.3,443.8c0.6-0.3,2.5-1,4.7-0.4c1.2,0.4,2.1,1,2.6,1.5c-0.2-0.5-0.9-1.6-2.2-2.4c-2.3-1.3-4.6-0.4-5-0.3
							c0,0.2-0.1,0.4-0.1,0.7C279.3,443.3,279.3,443.6,279.3,443.8z"/>
						<path d="M272.1,444.3c-1.2-0.4-3-0.7-5.1-0.6c-1.5,0.1-2.8,0.3-3.7,0.6c0.7-0.5,1.9-1.2,3.4-1.6c2.6-0.7,4.8-0.2,5.8,0.2
							c0,0.2-0.1,0.5-0.2,0.8C272.3,443.9,272.2,444.1,272.1,444.3z"/>
					</g>
					<path class="st12" d="M257.3,446.4c0,2.9-0.6,5.6-2.8,5.6c-2.2,0-4.5-2.9-4.5-5.7c0-2.9,1.2-5,3.4-5
						C255.5,441.2,257.3,443.5,257.3,446.4z"/>
				</g>
			</g>
			<path class="st45" d="M224.3,637.9c0.1,1.2-0.6,2.3-1.7,2.9c-0.1,0.1-0.2,0.1-0.3,0.2c-0.1,0-0.1,0.1-0.2,0.1
				c-1.1,0.6-2.4,1.4-3.7,2.5c-3.2,2.8-3.5,5.5-6.8,9.2c-0.6,0.7-1.3,1.3-2.1,1.9c0,0,0,0,0,0c-4.3,3.3-10.2,4.3-12,2.4
				c-0.1-0.1-0.1-0.1-0.1-0.2c-1.4-1.8,0-5.8,0.2-6.4c0,0,0.1-0.3,0.3-0.6c1.1-2.5,2.8-4.9,2.8-4.9c2.1-2.9,4.1-4.8,4.2-4.8
				c0,0-1,0.9-1.8,2.3c-0.4,0.8-2.2,3.7-1.1,5.6c0.3,0.5,1.3,1.5,2.6,1.6c1.8,0.2,6.5-3.1,16.1-12.6c0.8-0.8,1.8-1.8,2.9-3
				c0.1-0.1,0.3-0.3,0.4-0.4C224.2,635.1,224.3,636.5,224.3,637.9z"/>
		</g>
		<g style="clip-path:url(#SVGID_00000098942083262936657180000007530209703726648234_);">
			<path class="st10" d="M284.9,447.6c-0.2-0.3-0.6-0.7-1.2-1c-0.3-0.2-1.5-0.8-2.9-0.3c-1.2,0.4-1.8,1.4-1.9,1.7
				c0.2,0.2,1.2,1.1,2.6,1.2C283.5,449.3,284.8,447.8,284.9,447.6z"/>
			<path class="st21" d="M280.5,447.4c0,0,0-0.6,0.3-1c0.5-0.5,1.3-0.3,1.8-0.2c0.4,0.1,0.7,0.3,0.9,0.4c0.2,1-0.4,2-1.3,2.2
				C281.4,449,280.6,448.2,280.5,447.4z"/>
			<path d="M285.2,447.8c-0.1-0.3-0.7-1.5-2.1-1.9c-1.5-0.4-3.3,0.4-4.2,2c0.3-0.2,1.8-1.5,3.9-1.2
				C284,446.9,284.8,447.5,285.2,447.8z"/>
			<path d="M281.5,447.6c0-0.1,0-0.2,0-0.2c0.1-0.3,0.5-0.6,0.8-0.5c0.3,0.1,0.5,0.4,0.5,0.5c0.1,0.4-0.2,0.9-0.6,0.9
				C281.9,448.3,281.6,447.9,281.5,447.6z"/>
			<path class="st10" d="M281.2,447.4c0-0.1,0-0.1,0-0.1c0-0.2,0.2-0.3,0.4-0.3c0.2,0,0.2,0.2,0.2,0.2c0,0.2-0.1,0.4-0.3,0.4
				C281.4,447.7,281.3,447.5,281.2,447.4z"/>
		</g>
		<g style="clip-path:url(#SVGID_00000098942083262936657180000007530209703726648234_);">
			<path class="st10" d="M264.9,447.5c1-0.6,1.9-0.8,2.5-1c0.9-0.2,1.5-0.4,2.2-0.2c1.1,0.3,1.7,1.3,1.9,1.7c-0.4,0.3-1.4,0.9-2.8,1
				C266.5,449.1,265.1,447.8,264.9,447.5z"/>
			<path class="st21" d="M267.2,447.4c0,0,0-0.6,0.4-0.9c0.5-0.5,1.4-0.2,1.9-0.1c0.4,0.1,0.8,0.3,1,0.5c0.2,1-0.5,1.9-1.4,2
				C268.1,449,267.3,448.2,267.2,447.4z"/>
			<path d="M264.6,447.7c-0.1-0.1,2.8-2.8,5.2-1.7c1.1,0.5,1.6,1.6,1.7,2.1c-0.6-0.6-1.3-1.2-2.3-1.4
				C266.8,446,264.6,447.8,264.6,447.7z"/>
			<path d="M268.3,447.7c0-0.1,0-0.2,0-0.2c0.1-0.3,0.5-0.6,0.9-0.5c0.3,0.1,0.5,0.4,0.5,0.5c0.1,0.4-0.2,0.8-0.6,0.9
				C268.6,448.3,268.3,448,268.3,447.7z"/>
			<path class="st10" d="M268,447.4c0-0.1,0-0.1,0-0.1c0-0.1,0.2-0.3,0.4-0.2c0.2,0,0.2,0.2,0.2,0.2c0,0.2-0.1,0.4-0.3,0.4
				C268.1,447.7,268,447.6,268,447.4z"/>
		</g>
		<path style="clip-path:url(#SVGID_00000098942083262936657180000007530209703726648234_);fill:#CE2026;" d="M259.5,468.7
			c-2.2-0.4-4.3,0.6-4.9,2.3c-0.4,1-0.3,2.6,0.8,3.6c0.9,0.8,2.2,1,3.4,0.5c0,0.2,0,2,1.3,2.9c1.4,1,3.7,0.7,5.2-1
			c-0.8,1.7-0.1,3.6,1.1,4.3c1.5,0.8,3.8,0,4.6-2.2c0.6,1.3,2.1,1.9,3.3,1.4c1.2-0.4,1.9-1.7,1.7-3c0.2,0.1,1.3,0.4,1.9-0.1
			c0.8-0.6,0.9-2.4-0.3-4c0.2-0.3,0.4-1.1,0.3-2c-0.4-1.9-2.4-2.6-2.5-2.7c0,0.7,0.1,3-1.5,4.6c-2.2,2.2-5.9,1.2-7.3,0.8
			C262.5,472.8,260.3,469.9,259.5,468.7z"/>
		<path style="clip-path:url(#SVGID_00000098942083262936657180000007530209703726648234_);fill:#CE2026;" d="M268.1,479.7
			c-0.7,0.9-1.3,2.1-0.9,2.8c0.3,0.5,0.9,0.4,1.2,0.9c0.4,0.9-1.3,1.8-1.1,3.1c0.1,1.4,2.2,1.5,2.5,3.1c0.2,1.1-0.7,1.3-0.5,2.9
			c0,0.4,0.1,1.3,0.7,2c0.6,0.7,1.1,0.5,1.4,1c0.6,1-1,2.1-0.7,3.2c0.4,1.4,3.5,2.2,5.6,1.1c0.4-0.2,1.6-0.9,1.8-2.2
			c0.1-1.1-0.4-2.2-1.4-2.8c-0.6-1.3-0.4-2.1-0.2-2.6c0.3-0.6,0.7-0.7,0.9-1.3c0.2-0.8-0.4-1.6-0.6-1.9c-0.8-1.2-1.7-1.2-1.7-1.8
			c0-0.7,1.5-1,1.4-1.7c0-0.7-1.5-0.8-1.6-1.6c-0.1-0.6,0.5-0.9,0.8-1.5c0.5-0.8,0.5-2.2-1.1-4.9C272.5,478.3,270.3,479,268.1,479.7
			z"/>
		<path style="clip-path:url(#SVGID_00000098942083262936657180000007530209703726648234_);fill:#CE2026;" d="M307.3,564.2
			c-0.2,0.7-2.1,1.3-5.8,2.4c-0.9,0.3-1.5,0.4-2,0.6c-0.8,0.2-1.2,0.4-1.8,0.7c-2.2,1.2-2.1,2.1-3.5,2.5c-2.7,0.9-4.3-2.2-6.8-1.6
			c-3.1,0.8-3.2,6.5-5.3,6.6c-2,0.1-3.1-4.7-5.4-4.6c-0.8,0.1-1.3,0.7-2,1.6c-3.3,3.9-5.5,6.5-7.6,6.6c-2.8,0.2-3.3-4.4-6.6-4.9
			c-4.3-0.6-6.6,7-11,6.5c-3.4-0.4-4.3-5.2-8.5-5.2c-0.2,0-1.4,0.2-3.9,0.5c-3.7,0.5-4,0.6-4.6,0.3c-2.2-1-1.1-4.3-3.3-5.8
			c-2.6-1.8-6.5,1.2-7.9-0.5c-0.9-1.1,0.6-2.6-0.3-4.6c-0.2-0.5-0.6-0.9-1-1.2c-1.4-1.2-3.6-1.3-3.8-2.4c-0.3-2.2,7.4-6.2,9.5-4.4
			c1.3,1.2-0.1,4.1,1.1,4.7c0.9,0.4,1.7-1.4,3.3-1.4c2.8-0.1,4,5,6.9,4.9c0.7,0,0.5-0.3,2-0.6c0,0,2.1-0.5,3.9-0.3
			c3.9,0.3,4.7,5.3,8,5.7c2.4,0.3,2.7-2.4,6.8-4.3c3-1.4,6.3-1.2,12.9-0.9c6.5,0.3,7.5,1.1,9.8,0c3.4-1.6,3.2-4.1,6.3-4.9
			c3.6-1,5.5,2.1,8.3,0.9c1.7-0.7,2.5-2.4,3.2-3.9c0.6-1.4,1-2.6,1.9-2.6c1.1,0.1,1,2.1,3.3,5.1
			C305.6,562.6,307.5,563.1,307.3,564.2z"/>
		<path style="clip-path:url(#SVGID_00000098942083262936657180000007530209703726648234_);fill:#262626;" d="M217.6,643.5
			c0.2,0.6,0.4,1.2,0.6,1.8c2.2-1.6,4.3-3.3,6.5-4.9c-0.1-1.3-0.2-2.5-0.3-3.8C222.1,638.9,219.8,641.2,217.6,643.5z"/>
		<path style="clip-path:url(#SVGID_00000098942083262936657180000007530209703726648234_);fill:#262626;" d="M277.2,617.1
			c0,0.5,0.1,1,0.1,1.5c0.1,0.2,0.1,0.3,0.2,0.5c0.8-1.6,1.7-3.3,2.5-4.9c-0.2-0.8-0.3-1.6-0.6-2.5c-0.2-0.9-0.5-1.7-0.7-2.4
			C277.9,611.3,277.1,614,277.2,617.1z"/>
		<path style="clip-path:url(#SVGID_00000098942083262936657180000007530209703726648234_);fill:#020202;" d="M277.2,617.5
			c-0.3,0.4-0.6,0.9-0.8,1.3c0.4,0.1,0.8,0.2,1.2,0.3C277.5,618.5,277.4,618,277.2,617.5z"/>
		<path style="clip-path:url(#SVGID_00000098942083262936657180000007530209703726648234_);fill:#CE2026;" d="M221.8,504.1
			c1.2-0.2,1.6,1.7,3.6,1.9c1.6,0.1,2.4-1,3.4-0.4c0.8,0.5,0.4,1.5,1.2,2.1c1.4,1,3.9-1.6,5.6-0.6c1,0.6,0.5,1.8,1.6,2.4
			c1.4,0.8,2.6-0.9,4.1-0.2c1.1,0.5,1,1.7,2.6,2.4c0.6,0.2,0.8,0.2,0.9,0.4c0.6,1-1.5,4.4-3.7,4.4c-1.1,0-1.2-0.9-3.1-1.6
			c-1.9-0.7-2.3,0-4-0.6c-2.2-0.8-2.2-2.2-3.9-2.3c-1.6-0.1-2,1.1-3.4,0.8c-1.6-0.3-1.6-2.3-3.3-2.8c-1.7-0.5-2.9,1.1-3.6,0.5
			C218.5,509.6,219.9,504.3,221.8,504.1z"/>
		<path style="clip-path:url(#SVGID_00000098942083262936657180000007530209703726648234_);fill:#CE2026;" d="M291.7,517.4
			c0.2-1.1,1.1-2.2,2.2-2.3c1.2-0.2,1.7,0.9,2.6,0.6c1.2-0.4,0.8-2.3,2.1-3c1.4-0.8,2.8,0.8,4.1,0c1.2-0.7,0.6-2.3,1.8-2.9
			c1.4-0.7,3.1,1.2,4.3,0.4c0.7-0.5,0.4-1.3,1.3-2c0.8-0.6,2-0.7,2.7-0.2c1.4,1,0.6,4.8-1,5.5c-0.6,0.2-0.8-0.1-1.7-0.1
			c-1.7,0.1-2,1.3-4.2,2.2c-1.9,0.8-2.7,0.3-3.8,1.3c-0.9,0.8-0.6,1.3-1.5,1.9c-1.2,0.8-2.2-0.1-3.7,0.6c-1.4,0.7-1.3,1.8-2.2,1.9
			C293.5,521.4,291.4,519.4,291.7,517.4z"/>
	</g>
</g>
</svg>
