<?xml version="1.0" encoding="utf-8"?>
<!-- Generator: Adobe Illustrator 26.0.1, SVG Export Plug-In . SVG Version: 6.00 Build 0)  -->
<svg version="1.1" id="Layer_1" xmlns="http://www.w3.org/2000/svg" xmlns:xlink="http://www.w3.org/1999/xlink" x="0px" y="0px"
	 viewBox="0 0 819 595.9" style="enable-background:new 0 0 819 595.9;" xml:space="preserve">
<style type="text/css">
	.st0{clip-path:url(#SVGID_00000013883821244602915250000012567979377194654617_);}
	.st1{clip-path:url(#SVGID_00000095324869103797437060000007083843739447996834_);fill:#FFE6C7;}
	.st2{clip-path:url(#SVGID_00000095324869103797437060000007083843739447996834_);fill:#D5B792;}
	.st3{opacity:0.5;clip-path:url(#SVGID_00000095324869103797437060000007083843739447996834_);}
	.st4{fill:#F7DFC6;}
	.st5{clip-path:url(#SVGID_00000095324869103797437060000007083843739447996834_);}
	.st6{fill:#D5B792;}
	.st7{fill:#E09A61;}
	.st8{fill:#FFFFFF;}
	.st9{fill:#301F1D;}
	.st10{fill:#C47947;}
	.st11{fill:#231F20;}
	.st12{fill:#603813;}
	.st13{fill:#DC2428;}
	.st14{fill:#474747;}
	.st15{fill:#8A5D3B;}
	.st16{fill:#3B2314;}
	.st17{fill:#E2DCDC;}
	.st18{fill:#BD1F22;}
	.st19{fill:none;}
</style>
<g>
	<defs>
		<path id="SVGID_1_" d="M757.4,478.1c-2.1,1.7-4.4,3.1-6.9,4.1c-69.3,29.5-186.7,69.3-336.9,71.6c-141.3,2.2-254.5-29.5-325.4-55.8
			c-11.4-4.2-21.8-10.7-30.6-19.1c-4.3-4.1-9-9-13.6-14.7c-9.2-11.4-18.4-26-24.6-44.1c-2.6-7.4-21.6-64.5,2.8-104.1
			c0.9-1.5,1.9-2.9,2.9-4.3c14.6-20.2,33.8-23.4,57.7-24.6c3.1-0.2,6.3-0.3,9.6-0.4c4-0.1,8.1-0.3,12.3-0.5
			c5.7-0.3,11.7-0.7,17.9-1.3c17.5-1.8,36.8-5.6,58-14.7c4.6-2,8.9-4,13-6.2c86.2-45.4,80.8-133.9,179.1-167.6
			C428,77.4,477.8,89,491,92.2c61.3,15,103.1,55.5,150.2,104.7c3.4,3.5,6.8,7.1,10.2,10.7c17.7,18.6,22.6,26.1,31.8,38.1
			c1.3,1.6,2.6,3.3,4.1,5.2c6,7.5,14.2,17.1,27.4,31.4c6.6,7.1,12.9,13.7,18.8,19.7c35.2,36,57.6,53.9,68.2,71.6
			c4.4,7.2,6.8,14.4,7.3,22.7C810.3,415.4,801.8,442.8,757.4,478.1z"/>
	</defs>
	<clipPath id="SVGID_00000138550524598309629600000011459649783085914546_">
		<use xlink:href="#SVGID_1_"  style="overflow:visible;"/>
	</clipPath>
	<g style="clip-path:url(#SVGID_00000138550524598309629600000011459649783085914546_);">
		<defs>
			<path id="SVGID_00000100353765644294930520000006402566605551523721_" d="M757.4,478.1c-2.1,1.7-4.4,3.1-6.9,4.1
				c-69.3,29.5-186.7,69.3-336.9,71.6c-141.3,2.2-254.5-29.5-325.4-55.8c-11.4-4.2-21.8-10.7-30.6-19.1c-4.3-4.1-9-9-13.6-14.7
				c-9.2-11.4-18.4-26-24.6-44.1c-2.6-7.4-21.6-64.5,2.8-104.1c0.9-1.5,1.9-2.9,2.9-4.3c14.6-20.2,33.8-23.4,57.7-24.6
				c3.1-0.2,6.3-0.3,9.6-0.4c4-0.1,8.1-0.3,12.3-0.5c5.7-0.3,11.7-0.7,17.9-1.3c17.5-1.8,36.8-5.6,58-14.7c4.6-2,8.9-4,13-6.2
				c86.2-45.4,80.8-133.9,179.1-167.6C428,77.4,477.8,89,491,92.2c61.3,15,103.1,55.5,150.2,104.7c3.4,3.5,6.8,7.1,10.2,10.7
				c17.7,18.6,22.6,26.1,31.8,38.1c1.3,1.6,2.6,3.3,4.1,5.2c6,7.5,14.2,17.1,27.4,31.4c6.6,7.1,12.9,13.7,18.8,19.7
				c35.2,36,57.6,53.9,68.2,71.6c4.4,7.2,6.8,14.4,7.3,22.7C810.3,415.4,801.8,442.8,757.4,478.1z"/>
		</defs>
		<clipPath id="SVGID_00000057113928873651305430000003342824772716951743_">
			<use xlink:href="#SVGID_00000100353765644294930520000006402566605551523721_"  style="overflow:visible;"/>
		</clipPath>
		<path style="clip-path:url(#SVGID_00000057113928873651305430000003342824772716951743_);fill:#FFE6C7;" d="M757.4,478.1
			c-2.1,1.7-4.4,3.1-6.9,4.1c-69.3,29.5-186.7,69.3-336.9,71.6c-141.3,2.2-254.5-29.5-325.4-55.8c-11.4-4.2-21.8-10.7-30.6-19.1
			c-4.3-4.1-9-9-13.6-14.7c-9.2-11.4-18.4-26-24.6-44.1c-2.6-7.4-21.6-64.5,2.8-104.1c0.9-1.5,1.9-2.9,2.9-4.3
			c14.6-20.2,33.8-23.4,57.7-24.6c3.1-0.2,6.3-0.3,9.6-0.4c4-0.1,8.1-0.3,12.3-0.5c5.7-0.3,11.7-0.7,17.9-1.3
			c17.5-1.8,36.8-5.6,58-14.7c4.6-2,8.9-4,13-6.2c86.2-45.4,80.8-133.9,179.1-167.6C428,77.4,477.8,89,491,92.2
			c61.3,15,103.1,55.5,150.2,104.7c3.4,3.5,6.8,7.1,10.2,10.7c17.7,18.6,22.6,26.1,31.8,38.1c1.3,1.6,2.6,3.3,4.1,5.2
			c6,7.5,14.2,17.1,27.4,31.4c6.6,7.1,12.9,13.7,18.8,19.7c35.2,36,57.6,53.9,68.2,71.6c4.4,7.2,6.8,14.4,7.3,22.7
			C810.3,415.4,801.8,442.8,757.4,478.1z"/>
		<path style="clip-path:url(#SVGID_00000057113928873651305430000003342824772716951743_);fill:#D5B792;" d="M-19.2,458.8
			c176.2,13.6,309.7,18,399.4,19.5c52.3,0.8,78.5,1.3,97.4,0c145.6-9.7,207.9-57.6,287.4-24.4c20.1,8.4,56.1,18.9,60.1,42.2
			c8.3,49.3-131,110.7-167.2,126.7C561.6,665.3,218.5,816.4,57.1,652C32.1,626.5-11.1,570.5-19.2,458.8z"/>
		<g style="opacity:0.5;clip-path:url(#SVGID_00000057113928873651305430000003342824772716951743_);">
			<path class="st4" d="M-69.6,295.2c-1.1-3.6-0.9-11.1,3.4-16.1c6.9-8,20.8-5.6,23.2-5.2c1.8-3.2,6.2-10,14.6-14.6
				c13.4-7.3,26.7-3.5,29.4-2.7c0.4-0.9,3.5-7.8,11.4-9.9c9.3-2.4,16.3,4.4,16.5,4.7c1.2-2.4,10.4-20,31.4-24.9
				c23-5.3,40.1,9.2,41.7,10.6c0.8-1.2,10.4-16.2,29-16.9c18.1-0.7,28.7,12.8,29.6,14.1c0.9-0.9,9.7-10.2,23.1-8.6
				c14.5,1.8,20.9,14.8,21.2,15.6c1.1-0.7,9.2-5.8,19-2.7c11,3.4,14.5,13.8,14.8,14.8c0.7-0.3,18.5-7.8,33.2,3.1
				c10.4,7.6,12.3,19.1,12.7,21.6c3.7-5.7,10.5-8.6,16.8-7.1c5.4,1.3,9.8,5.5,11.4,11c2.8-1.6,7.6-3.5,12.8-2.5
				c9.6,1.9,17.4,13,15.8,18.8c-3.1,11.2-43.6,7.3-94.3,5.6c-25.4-0.9-70.6,0.2-161,2.3C-3.3,308.4-64.1,313.2-69.6,295.2z"/>
		</g>
		<g style="opacity:0.5;clip-path:url(#SVGID_00000057113928873651305430000003342824772716951743_);">
			<path class="st4" d="M280.3,183.7c-0.7-2.3-0.6-7.1,2.2-10.3c4.4-5.1,13.3-3.6,14.8-3.3c1.1-2.1,3.9-6.4,9.3-9.3
				c8.5-4.7,17-2.3,18.7-1.7c0.2-0.5,2.2-5,7.2-6.3c5.9-1.5,10.4,2.8,10.5,3c0.8-1.5,6.6-12.8,20-15.9c14.6-3.4,25.5,5.8,26.6,6.8
				c0.5-0.8,6.6-10.3,18.5-10.8c11.5-0.4,18.3,8.2,18.9,9c0.6-0.6,6.2-6.5,14.7-5.5c9.3,1.1,13.3,9.4,13.5,9.9
				c0.7-0.5,5.8-3.7,12.1-1.7c7,2.2,9.2,8.8,9.4,9.4c0.5-0.2,11.8-5,21.2,2c6.6,4.9,7.9,12.2,8.1,13.8c2.3-3.7,6.7-5.5,10.7-4.5
				c3.5,0.8,6.2,3.5,7.2,7c1.8-1,4.8-2.2,8.2-1.6c6.1,1.2,11.1,8.3,10.1,12c-2,7.2-27.8,4.7-60.1,3.6c-16.2-0.6-45,0.1-102.6,1.5
				C322.6,192.1,283.8,195.2,280.3,183.7z"/>
		</g>
		<g style="opacity:0.5;clip-path:url(#SVGID_00000057113928873651305430000003342824772716951743_);">
			<path class="st4" d="M481.5,259.6c-0.4-1.3-0.3-3.9,1.2-5.7c2.5-2.9,7.4-2,8.3-1.8c0.6-1.1,2.2-3.6,5.2-5.2
				c4.8-2.6,9.5-1.3,10.5-1c0.1-0.3,1.3-2.8,4-3.5c3.3-0.9,5.8,1.6,5.9,1.7c0.4-0.9,3.7-7.1,11.2-8.9c8.2-1.9,14.3,3.3,14.9,3.8
				c0.3-0.4,3.7-5.8,10.3-6c6.4-0.2,10.2,4.6,10.6,5c0.3-0.3,3.5-3.6,8.2-3c5.2,0.6,7.4,5.3,7.6,5.5c0.4-0.3,3.3-2.1,6.8-1
				c3.9,1.2,5.2,4.9,5.3,5.3c0.3-0.1,6.6-2.8,11.8,1.1c3.7,2.7,4.4,6.8,4.5,7.7c1.3-2,3.7-3,6-2.5c1.9,0.5,3.5,2,4,3.9
				c1-0.6,2.7-1.3,4.6-0.9c3.4,0.7,6.2,4.6,5.6,6.7c-1.1,4-15.5,2.6-33.6,2c-9.1-0.3-25.1,0.1-57.3,0.8
				C505.1,264.3,483.5,266.1,481.5,259.6z"/>
		</g>
		<g style="clip-path:url(#SVGID_00000057113928873651305430000003342824772716951743_);">
			<path class="st6" d="M402,388.5c0-0.4-0.3-0.7-0.7-0.7c-0.4,0-0.7,0.3-0.7,0.7s0.3,0.7,0.7,0.7C401.7,389.3,402,388.9,402,388.5z
				"/>
			<path class="st6" d="M513,500.8l-7.1-29.2h0c-0.2-0.9-2.1-1.7-5.3-2.3v-8.5c0,0,0,0,0,0v-6.4h0v-1.5h0v-2.5c0-1.2-1-2.2-2.2-2.2
				c-1.2,0-2.2,1-2.2,2.2v0.8h-2.8v-0.8c0-0.3-0.1-0.7-0.2-1l0,0L492,434l-0.1-1l0.9,0l0,0l1.1,0l0.3,0l0,0h0c0.7,0,1.2-0.3,1.6-0.8
				c0.4-0.5,0.6-1.2,0.6-2c0-0.5-0.1-1-0.4-1.5c-3.3-6.3-6.4-12.8-10.1-19l-0.5-1c-0.1-0.2-0.2-0.4-0.3-0.5c0-0.1-0.1-0.1-0.1-0.2
				c0,0,0,0.1,0,0.1c-0.3-0.3-0.6-0.5-1-0.6v-5.9H496l-3.8-4.3l3.8-4.3h-12.8h-0.9v8.6h0.1v6.2c-0.3,0.2-0.6,0.5-0.8,0.9l-5.6,10.8
				c-0.5-0.1-0.9-0.1-1.4-0.1h-1.9c-3.2,0-6,1.4-7.9,3.7v-4.6v-6.4h0v-1.6h0V408c0-1.2-1-2.2-2.2-2.2c-1.2,0-2.2,1-2.2,2.2v0.8h-2.8
				V408c0-0.4-0.1-0.7-0.3-1l-1.3-15.3l-0.1-1l2.2,0l0,0l0,0c0.4,0,0.8-0.1,1.2-0.4c0.2-0.1,0.3-0.3,0.4-0.4
				c0.3-0.3,0.4-0.8,0.5-1.2c0.1-0.7,0-1.5-0.3-2.2c-3.3-6.3-6.4-12.8-10.1-19l-0.5-1c-0.1-0.2-0.2-0.4-0.3-0.5
				c0-0.1-0.1-0.1-0.1-0.2c0,0,0,0.1,0,0.1c-0.3-0.3-0.6-0.5-1-0.6v-5.9h12.1l-3.8-4.3l3.8-4.3h-12.8h-0.9v8.6h0.1v6.2
				c-0.3,0.2-0.6,0.5-0.8,0.9l-10,19.5c-0.9,1.8,0.2,4.3,1.9,4.3l2.2,0l-0.1,1l-1.5,17.4h-2V408c0-1.2-1-2.2-2.2-2.2
				c-1.2,0-2.2,1-2.2,2.2v0.8v1.8v1.6h0v7v1.2c-2.5,1.1-4.5,3.1-5.5,5.6h-2.2v-7.4h0v-2.2h0v-3.7c0-1.7-1.4-3.2-3.2-3.2
				s-3.2,1.4-3.2,3.2v1.1h-4v-1.1c0-0.5-0.1-1-0.4-1.5l0,0l-1.9-22l-0.1-1.2l0-0.3l1.3,0c0,0,0,0,0,0l1.9,0c1,0,1.8-0.5,2.3-1.2
				c0.4-0.5,0.6-1.1,0.8-1.8c0.1-0.3,0.1-0.7,0.1-1c0-0.7-0.2-1.4-0.6-2.1c-4.9-9.3-9.4-19-14.8-28l-0.4-0.8
				c-0.1-0.3-0.3-0.5-0.5-0.7c-0.1-0.1-0.1-0.2-0.2-0.4c0,0,0,0.1,0,0.2c-0.4-0.4-0.9-0.7-1.4-0.9v-8.5h17.5l-5.5-6.2l5.5-6.2h-18.5
				h-1.3v12.4h0.1v8.9c-0.4,0.3-0.8,0.7-1.1,1.3L382,380.7c-1.4,2.6,0.2,6.2,2.8,6.2l3.2,0.1v0l-0.1,1.5l-2.2,25.1l0,0h-2.9v-1.1
				c0-1.7-1.4-3.2-3.2-3.2c-1.7,0-3.2,1.4-3.2,3.2v1.1h0v4.8h0v7.4h-2.9c-1.2-2.9-3.7-5.1-6.7-6v-1.3v-6.4h0v-1.6h0V408
				c0-1.2-1-2.2-2.2-2.2c-1.2,0-2.2,1-2.2,2.2v0.8h-2.8V408c0-0.4-0.1-0.7-0.3-1l-1.3-15.3l-0.1-1l2.2,0c1.8,0,2.8-2.4,1.8-4.2
				c-3.3-6.3-6.4-12.8-10.1-19l-0.5-1c-0.1-0.2-0.2-0.4-0.3-0.5c0-0.1-0.1-0.1-0.1-0.2c0,0,0,0.1,0,0.1c-0.3-0.3-0.6-0.5-1-0.6v-5.9
				h12.1l-3.8-4.3l3.8-4.3h-12.8h-0.9v8.6h0.1v6.2c-0.3,0.2-0.6,0.5-0.8,0.9l-10,19.5c-0.9,1.8,0.2,4.3,1.9,4.3l2.2,0l-0.1,1
				l-1.5,17.4h-2V408c0-1.2-1-2.2-2.2-2.2c-1.2,0-2.2,1-2.2,2.2v0.8v1.8v1.6h0v7v2.8c-1.8-1.5-4.1-2.5-6.7-2.5h-1.9
				c-1,0-1.9,0.1-2.8,0.4c-1.7-3.4-3.5-6.8-5.5-10l-0.5-1c-0.1-0.2-0.2-0.4-0.3-0.5c0-0.1-0.1-0.1-0.1-0.2c0,0,0,0.1,0,0.1
				c-0.3-0.3-0.6-0.5-1-0.6v-5.9h12.1l-3.8-4.3l3.8-4.3h-12.8h-0.9v8.6h0.1v6.2c-0.3,0.2-0.6,0.5-0.8,0.9l-10,19.5
				c-0.9,1.8,0.2,4.3,1.9,4.3l2.2,0l0,0.3l-0.1,0.7l-1.5,17.4l0,0h-2v-0.8c0-1.2-1-2.2-2.2-2.2c-1.2,0-2.2,1-2.2,2.2v2.5h0v1.5h0
				v15.3c-2.2,0.6-3.6,1.2-3.7,2h0l-7.1,29.2h56.2l0,0h0.1h43.5v-0.7v-26.6h0c0,0,0-0.1,0-0.1c0-7.5,6.1-13.6,13.6-13.6
				c1.3,0,2.6,0.2,3.8,0.5c5.7,1.6,9.8,6.9,9.8,13.1v26.8v0.7h41.7l0,0H513z M388.7,426.9C388.7,426.9,388.8,426.8,388.7,426.9
				c0-0.2,0.1-0.3,0.1-0.4c0.1-0.2,0.2-0.5,0.3-0.7c0.1-0.3,0.2-0.6,0.4-0.8c0.4-0.7,0.9-1.4,1.4-2c0.1-0.2,0.3-0.3,0.5-0.5l0.1-0.1
				c0.2-0.1,0.3-0.3,0.5-0.5c0.2-0.2,0.4-0.3,0.6-0.5c0.2-0.2,0.5-0.4,0.7-0.5c0,0,0.1-0.1,0.2-0.1c0.2-0.1,0.4-0.3,0.7-0.4h0
				c1.2-0.6,2.5-1,3.8-1.2c0.1,0,0.2,0,0.2,0c0.4-0.1,0.9-0.1,1.3-0.1c0.7,0,1.4,0,2,0.2c0.6,0.1,1.1,0.3,1.7,0.4c0,0,0.1,0,0.1,0
				c0.6,0.2,1.1,0.4,1.6,0.7h0c0,0,0,0,0,0c0.2,0.1,0.5,0.2,0.7,0.4c0.1,0,0.2,0.1,0.3,0.2c0.2,0.1,0.3,0.2,0.4,0.3
				c0.1,0.1,0.2,0.1,0.3,0.3c0.2,0.1,0.3,0.2,0.5,0.4c0,0,0.1,0.1,0.1,0.1c0.2,0.2,0.4,0.4,0.6,0.6c0,0,0,0,0,0
				c0.2,0.2,0.4,0.5,0.6,0.7c0.2,0.2,0.4,0.5,0.6,0.8c0.2,0.3,0.4,0.5,0.5,0.8c0.1,0.3,0.3,0.6,0.4,0.8c0,0,0,0,0,0h0
				c0.3,0.5,0.5,1.1,0.6,1.7c0,0,0,0,0,0c0.1,0.4,0.2,0.8,0.3,1.2c0,0.1,0,0.1,0,0.2c0,0.1,0,0.1,0,0.2c0.1,0.5,0.1,0.9,0.1,1.4
				c0,0,0,0,0,0v1.9v0.5v1.6v8h-3.9l0-1.8c0-1.4-1.4-2.5-3-2.5h-6.7c-1.6,0-2.9,1.1-3,2.5l0,1.8h-6.5v-9.9c0,0,0,0,0,0v-0.2v-1.8h0
				c0,0,0-0.1,0-0.1c0-0.3,0-0.7,0-1c0-0.3,0.1-0.6,0.1-0.8c0-0.2,0-0.3,0.1-0.5c0.1-0.2,0.1-0.5,0.2-0.8
				C388.6,427.3,388.6,427.1,388.7,426.9z M398.6,392.8c0.3,0,0.7,0,1,0c1,0,1.9-0.1,2.8-0.2c1.8,1,3,2.9,3,5v6.2h-11.5v-6.2
				c0-2.2,1.2-4,2.9-5C397.4,392.8,398,392.8,398.6,392.8z M487.7,440v4.3H485h-0.8h-4.4V440c0,0,0,0,0,0c0-0.8,0.3-1.6,0.7-2.2h0
				c0.3-0.5,0.8-0.9,1.4-1.3c0.3-0.1,0.5-0.2,0.8-0.3c0.4-0.1,0.7-0.2,1.1-0.2c0.1,0,0.2,0,0.3,0c0,0,0.1,0,0.1,0c0.1,0,0.2,0,0.3,0
				c0.1,0,0.2,0,0.4,0.1c0,0,0.1,0,0.1,0c0.3,0.1,0.5,0.2,0.7,0.3c0,0,0,0,0,0C486.9,437.2,487.7,438.5,487.7,440z M314.9,436
				c0.2,0,0.5,0,0.7,0.1c0.1,0,0.2,0,0.4,0.1c0.2,0,0.4,0.1,0.6,0.2c0.1,0,0.2,0.1,0.3,0.1c0.6,0.3,1,0.7,1.4,1.2
				c0.4,0.6,0.7,1.4,0.7,2.3v4.3h-2.4h-1.6h-4V440c0,0,0,0,0,0c0-1.5,0.8-2.8,2-3.5C313.5,436.2,314.2,436,314.9,436z M491.8,462.8
				v1.3v7.3H485h-0.8h-8.4v-3v-4.2c0,0,0,0,0,0v-0.1v-1.3c0-1.6,0.5-3.1,1.3-4.3h0h0.1l0-0.1l0-0.1c0,0,0,0,0,0l0,0
				c0.7-1.1,1.7-2,2.9-2.6h0c1.1-0.6,2.4-0.9,3.8-0.9c0.1,0,0.3,0,0.4,0v0.4c0,0,0,0,0,0v0c0.3-0.1,0.5-0.2,0.8-0.2
				c0.1,0,0.1,0,0.2,0c0.8,0.1,1.6,0.4,2.3,0.8h0C490,457.1,491.8,459.7,491.8,462.8z M311.2,455.7c1.1-0.6,2.4-0.9,3.8-0.9
				c0.5,0,0.9,0,1.4,0.1c0.1,0,0.1,0,0.2,0c0.8,0.1,1.5,0.4,2.1,0.8h0c2.5,1.3,4.2,4,4.2,7.1v1.3v7.3h-6.4h-1.6h-8v-3v-4.2
				c0,0,0,0,0,0v-0.1v-1.3C306.9,459.7,308.6,457.1,311.2,455.7L311.2,455.7z"/>
		</g>
	</g>
	<g style="clip-path:url(#SVGID_00000138550524598309629600000011459649783085914546_);">
		<g>
			<g>
				<g>
					<g>
						<g>
							<g>
								<path class="st7" d="M357.3,399.7c3.4-2.6,11.6-9.1,12.7-14.6c0.2-0.9,0.5-2.7-0.4-3.4c-0.8-0.6-2.3-0.2-3.9,0.9l0.1,0
									C362.9,388.3,360.1,394,357.3,399.7z"/>
								<path class="st7" d="M364.8,384.5c8.5-3.7,1.4-11.5-1.4-5.5c0-0.1,0.1-0.1,0,0c-0.1,0.1-0.3,0.2-0.4,0.3c0,0-0.1,0,0,0
									C359.6,380.4,361.5,385.7,364.8,384.5z"/>
								<path class="st7" d="M363.2,380.2l2.2-1.7c2.9-2.1-0.6-6.6-3.4-4.4c0,0-2.2,1.7-2.2,1.7C357,378,360.4,382.4,363.2,380.2z"
									/>
								<path class="st7" d="M335.7,399.3c1.8-6,3.6-12,5.4-18c1.5,0.2,4.5,0.2,7.7-1.2c5.4-2.3,7.7-7.1,8.3-8.3
									c3.6,4.9,7.1,9.9,10.7,14.8c-1.1,2.2-2.6,4.6-4.6,7.1c-6.1,7.6-13.6,11.3-18.2,13C342,404.3,338.8,401.8,335.7,399.3z"/>
								<path class="st7" d="M348,380c3.3-3.9,6.5-6.7,9.2-8.7c6.8-5.1,16.2-9.6,17.5-8c0.2,0.2,0.2,0.5,0.2,0.8
									c-0.3,2.3-2.5,3.4-4,4.2c-5.5,2.9-9.8,6.1-14,10.6c-1.9,1.6-3.1,5.1-5.5,5.5c-0.4,0.1-1.2,0.2-2-0.3
									C348.2,383.6,347.7,381.9,348,380z"/>
								<path class="st7" d="M348.7,374.2c-0.3,0.6-0.3,1.2-0.2,2.1c0.7,4.6,2.5,6.7,3,10.7c0.2,1.7,0.3,2.9-0.5,3.7
									c-1.3,1.4-3.5,0.8-6.1,1.1c-2.1,0.3-5.1,1.3-8.5,4.9c0.5-4.6,1.5-10.3,3.6-16.6c1.5-4.3,3.2-8,4.8-11.1
									c0.2-0.5,0.8-0.5,0.8-0.5c2.1-1.1,3.2-0.1,6.1-0.7c1.2-0.3,1.9-0.6,2.3-0.2c0.3,0.3,0.2,0.8,0.2,1.2
									c-0.2,1.7-1.3,2.8-1.4,2.9C351.2,373.3,349.5,372.7,348.7,374.2z"/>
							</g>
							<g>
								<path class="st7" d="M346.4,406.2c-6.8,7.4-12.1,13.2-15.1,16.6c0,0-19.9,21.1-31.9,30.7c-3.6,2.9-7.8-0.9-8-5.6l-0.9-17.2
									c15.3-12.3,31.5-23.2,46.8-35.5c1,1.2,2,2.5,3,3.7C342.3,401.5,344.4,403.9,346.4,406.2z"/>
							</g>
						</g>
					</g>
				</g>
			</g>
			<path class="st7" d="M297.9,425.8c1.2,1.9,2.3,3.8,2.3,3.8c0.8,1.3,1.5,2.5,2.3,3.8c1.2,5.7,0.8,10.8-0.2,14.5
				c-0.7,2.5-2.1,5.8-4.9,6.7c-3.8,1.4-9.6-2.3-13.7-9.3c-10.5-14.2-21-28.5-31.4-42.7c7.7-3.7,15.5-7.5,23.2-11.2
				C287.5,409.7,296.2,423.1,297.9,425.8z"/>
		</g>
		<g>
			<path class="st8" d="M238.9,333.5c-0.5,7.9,0.2,14.3,1.7,14.5c1.5,0.1,3.2-6.2,3.7-14.1c0.5-7.9-0.2-14.3-1.7-14.5
				C241.2,319.3,239.5,325.6,238.9,333.5z"/>
			<g>
				<g>
					<g>
						<g>
							<g>
								<path class="st9" d="M199.6,773.1c-0.1,0.4-0.1,0.7-0.2,1.1c-0.2,1.3-0.4,2.6-0.5,3.9c-0.7,8.4,1.3,16.9,5.7,24.2
									c0.3,0.5,0.6,0.9,0.9,1.4c2.9,4.4,9.6,13.1,15.8,12.9c5-0.2,5-3.2,3.8-6.4c0,0,0,0,0,0c-0.1-0.4-0.3-0.8-0.5-1.2
									c3.2,3.9,10.8,9.8,10.5,14.7c-0.3,4.1-9.1,4.8-13.2,4.7c-5.8-0.1-13.2-1.7-16.4-7.1c-4.8-8.2-1.4-18.4-9.8-24.7
									c-0.5,8.4-1.1,16.7-1.6,25c0,0.1-0.1,0.1-0.1,0.2c0,0,0,0-0.1,0.1c0,0-0.1,0-0.1,0c-0.1,0-1.6-0.2-3.6-0.4
									c0.4-8.8,0.8-17.5,1.2-26.3c-0.7-1.7-1.4-4-1.3-6.7C190.4,779.3,198.6,773.8,199.6,773.1z"/>
							</g>
						</g>
						<g>
							<g>
								<path class="st7" d="M214.1,654c3.5,0.2,7,0.4,10.6,0.7c6.5,0.4,13,0.8,19.4,1.3c-0.8,5.1-1.9,10.7-3.5,16.6
									c-2.1,7.9-3.3,15.7-5.8,21.9c-4.9,25.7-11.1,50.7-16,76.4c1.5,23.7,2.6,31.8,3.5,33.3c0.1,0.2,1.2,2.1,2.3,4.8
									c0.2,0.4,0.3,0.8,0.5,1.2c0,0,0,0,0,0c1.2,3.2,1.2,6.2-3.8,6.4c-6.2,0.3-12.9-8.5-15.8-12.9c-0.3-0.5-0.6-0.9-0.9-1.4
									c-4.3-7.2-6.4-15.7-5.7-24.2c0.1-1.3,0.3-2.6,0.5-3.9c0.1-0.4,0.1-0.7,0.2-1.1c0.7-4.4,1.7-8.7,2-13.2
									c0.3-6.3-0.1-12.6-0.3-18.9c-0.4-9.3-2.2-19.1-2.5-28.4c0.4-6.9,0.8-13.8,1.2-20.8C204.2,679.1,209.8,666.8,214.1,654z"/>
							</g>
						</g>
					</g>
				</g>
				<g>
					<g>
						<path class="st7" d="M158.5,768.6c0.1-0.3,0.1-0.3,0.2-0.6c4.4-11.3,5-21.7,5.1-34c0.2-12.7,0.8-24.7,3.5-34.6
							c4.3-15.8,10.2-17.5,12.4-31.3c1.5-9.1,1.3-16.8,1-21.7c12.4,1,24.9,2,37.3,3c-1,7.3-2.2,13.4-3.2,18.1
							c-1.2,5.4-3.1,13.7-6.2,22.7c-0.3,1-2.1,6.2-4.2,10.6c-1.1,2.3-2.1,4.6-3.4,6.9c-0.1,0.2-0.2,0.4-0.4,0.6c0,0.1,0,0.1-0.1,0.1
							c-7.7,13.2-16,35.1-16,35.1c-4.8,12.7-8.2,21.1-11.3,29.5c0.9,9.3,0.7,20.9,1.6,30.4c0,0.1,0.1,0.4,0.1,0.5
							c0,1,0.5,3.7,0.5,4.7c0,4.8-2.5,10-7.9,8.9c-6.3-1.3-10.6-14.8-12.2-21.8C153,784.2,156.9,773.2,158.5,768.6z"/>
					</g>
				</g>
				<g>
					<g>
						<path class="st9" d="M158.7,768c-0.1,0.2-0.1,0.4-0.2,0.6c-0.2,0.6-0.5,1.1-0.7,1.7c-2.4,5.5-2.5,15.2-1.1,24.4
							c1.3,8.5,3.8,16.7,11.2,18.2c5.4,1.1,7.1-1.6,7.1-6.4c0-1,0-2-0.1-3c0-0.1-0.3-3-0.3-3.1c0.1,0.7,0.8,2.3,1.5,4.5
							c1.7,5.6,6.6,16.4,2.6,20.7c-3.8,4.1-15.3,1.5-20.6-4.5c0,0,0-0.1-0.1-0.1c-0.1-0.1-0.3-0.3-0.4-0.4c-2.3-2.7-3.2-6-3.5-9.5
							c0,0,0,0,0-0.1c-0.9-5.7-0.9-12.1-2-17.7c-0.6,9.5-1.2,19-1.8,28.5c0,0.2-0.2,0.2-0.3,0.1c0,0.1-0.1,0.1-0.2,0.1
							c-0.9-0.1-1.8-0.1-2.7-0.2c-0.2,0-0.2-0.1-0.1-0.3c0,0,0,0,0,0c0,0,0,0,0-0.1c0.7-10.9,1.4-21.7,2.1-32.6
							C144.4,781.9,152,772.2,158.7,768z"/>
					</g>
				</g>
			</g>
			<path d="M234.8,332.4c-1.3,18.6-15,33.3-34.8,31.9c-19.7-1.4-34.7-17.6-33.4-36.2c1.3-18.6,18.3-32.6,38.1-31.2
				C224.4,298.4,236.1,313.8,234.8,332.4z"/>
			<g>
				<path d="M254.1,298.2c-1.3,18.9-18,34.2-34.6,33c-16.6-1.2-30.4-18.3-29.1-37.3c2.1-30.5,22.1-34.4,36.3-33.4
					C238.6,261.4,256.3,266.5,254.1,298.2z"/>
			</g>
			<path class="st7" d="M257.8,368.4c-8.1,6.1-16.9,14.2-25,20.3c-25.1-3.5-39.9-15.1-48-23.4c-0.6-0.6-2.3-1.8-2.9-2.4
				c1.9-0.4,18.4-4.3,23.7-14.4c0.8-1.6,2.3-5.1,3.1-9.3c0.1-0.3,0.1-0.6,0.2-1c0,0,0-0.1,0-0.2c0.5-3.1,0.6-5.7,0.5-7.8
				c0-0.3,0-0.5,0-0.7c4.6,1.8,8,3.6,10.1,4.5c0.4,0.2,0.8,0.4,1.1,0.5c0.9,0.3,1.7,0.7,2.1,0.8c0,0,0.1,0,0.1,0c0,0,0,0,0,0
				c0.8,0.4,1.8,0.8,2.9,1c0,0,0,0,0,0c1.7,0.4,3.2,0.6,4.7,0.6c1.6,0.5,3.2,0.9,4.2,1.2c-0.1,0.3-0.1,0.5-0.2,0.8
				c-0.4,2.3-0.4,4.3-0.3,5.9c0,0,0,0,0,0c0.1,0.7,0.1,1.3,0.2,1.8C236.1,356.5,245.9,364.9,257.8,368.4z"/>
			<path class="st10" d="M234.1,344.9c-2.5,2.1-4.9,2.7-6.1,3c-5.8,1.1-10.8-2.6-13.9-4.8c-2.3-1.7-4-3.5-5.2-4.9
				c0.5-3.1,0.6-5.7,0.5-7.8c0-0.3,0-0.5,0-0.7c4.6,1.8,8,3.6,10.1,4.5c0.4,0.2,0.8,0.4,1.1,0.5c0.9,0.3,1.7,0.7,2.1,0.8
				c0,0,0.1,0,0.1,0c0,0,0,0,0,0c0.8,0.4,1.8,0.8,2.9,1c0,0,0,0,0,0c1.7,0.4,3.2,0.6,4.7,0.6c1.6,0.5,3.2,0.9,4.2,1.2
				c-0.1,0.3-0.1,0.5-0.2,0.8C233.9,341.3,233.9,343.2,234.1,344.9z"/>
			<path class="st7" d="M229.5,274.6c-0.3,0-0.5-0.1-0.7-0.1c-7.9-0.7-14.9,1.2-17.4,2.2c-8.7,3.7-12.3,19.2-11.7,30.5
				c0.8,15.1,12.9,35.6,27.6,37.2c7.7,0.8,20.7-13.3,23-32.5C252.6,292.6,251.1,276.6,229.5,274.6z"/>
			<path d="M232.7,275c-2-0.2-7.1-0.7-11.8,1.1c-0.9,0.4-3.6,1.6-5.8,4.3c-1.2,1.4-2.3,3.1-4,5.7c-1.5,2.3-1.6,2.6-2.3,3.4
				c-1.8,1.8-3.4,2.1-4.5,4.7c-2.4,5.5-0.3,14.8-0.4,19.2c0,0.2,0,1.2-0.4,1.2c-0.4,0.1-0.9-1.2-1.3-1.2c-0.5,0-0.9,2.3-1,8
				c-1.7-4-4-10.6-4.5-19.1c-0.5-8.5-1.1-20.8,7.3-27.4c4.6-3.6,9.8-3.7,17.8-3.7c6.3,0,18.2-0.1,24,7.9c1.8,2.6,2.6,5.3,2.9,7.2
				c-0.7-1.5-2-3.6-4.2-5.7C240.1,276.3,234.9,275.3,232.7,275z"/>
			<g>
				<path class="st11" d="M246.2,307.5c-0.2,0.5-0.8,1.6-1.9,2.4c-0.8,0.6-1.7,0.9-2.2,1c0.7,0,1.8,0,3.2-0.5
					c0.9-0.4,1.6-0.9,2.1-1.3L246.2,307.5z"/>
				<path class="st8" d="M236.7,309.4c1-3,3.8-4.7,6.2-4.1c2.5,0.6,3.5,3.3,3.6,3.5c-0.8,0.8-2.7,2.2-4.9,2.1
					c-1.1,0-2.6-0.5-2.9-0.6c-0.8-0.2-1.4-0.5-1.8-0.7L236.7,309.4z"/>
				<path class="st12" d="M245.8,308.3c-0.5,1.6-2.1,2.5-3.7,2.1c-1.6-0.4-2.6-2.2-2.1-4.2c0.2-0.8,2.4-1.7,4-1.3
					C245.5,305.4,246.2,306.7,245.8,308.3z"/>
				<path class="st11" d="M245,307.9c-0.3,1-1.2,1.6-2,1.3c-0.8-0.3-1.2-1.3-0.9-2.3c0.3-1,1.2-1.6,2-1.3
					C244.9,305.8,245.3,306.9,245,307.9z"/>
				<path class="st8" d="M242.3,307.1c-0.1,0.2-0.3,0.4-0.5,0.3c-0.2-0.1-0.3-0.3-0.2-0.5c0.1-0.2,0.3-0.4,0.5-0.3
					C242.3,306.7,242.4,306.9,242.3,307.1z"/>
				<path class="st11" d="M236.4,309.2c1.2-3.1,3.5-4.9,5.8-4.9c1.5,0,3.5,0.7,4.3,2.3c0.2,0.4,0.4,1.3,1.2,2.6
					c0.3,0.4,0.5,0.8,0.7,1c-0.2,0-0.5,0-0.9-0.1c-0.4-0.1-0.6-0.4-0.7-0.5c-0.6-0.6-0.8-1.2-1.6-1.8c-1.3-1-3.1-1.7-4.7-1.2
					c-0.9,0.3-2.9,1.3-3.7,2.8L236.4,309.2z"/>
				<path class="st12" d="M236.2,300.6c0.3-0.2,0.8-0.5,1.5-0.8c3.9-2.1,4.8-2.2,5.6-2.3c0.3,0,1.2,0,2.3,0.4c1,0.3,2.9,1.7,3.7,2.5
					c-1.7-0.4-3-1.3-4.8-1.4c-2.4-0.1-3.8,1.2-5.7,2.5c-0.5,0.4-1.7,1.1-2.2,1.4L236.2,300.6z"/>
			</g>
			<g>
				<path class="st11" d="M214,305.8c-0.5,2.4,4,3.4,4.8,3.8c-3.2-0.4-5.8-1.2-6.5-2.6L214,305.8z"/>
				<path class="st8" d="M225,308.9c-0.2-0.6-0.7-1.9-1.8-3c-0.4-0.4-2.2-2-4.9-1.9c-3.1,0.2-4.8,2.5-5,2.8c0.6,0.6,2.5,2.4,5.5,3
					C221.8,310.3,224.2,309.3,225,308.9z"/>
				<path class="st12" d="M216.4,306.7c0.3,1.7,2.1,3.2,4.1,3c1.4-0.2,2.7-1.2,3.1-2.6c0.2-0.7,0.2-1.4,0.1-1.7
					c-1.1-1.4-2.9-2.1-4.5-1.8c-1.4,0.3-2.3,1.2-2.6,1.6C216.4,305.5,216.3,306,216.4,306.7z"/>
				<path class="st11" d="M218.7,306.4c0.2,1,1.2,1.8,2.2,1.6c1-0.2,1.6-1.1,1.4-2.2c-0.2-1-1.2-1.8-2.2-1.6
					C219.1,304.4,218.5,305.4,218.7,306.4z"/>
				<path class="st8" d="M218.5,305.2c0,0.2,0.3,0.4,0.5,0.4c0.2,0,0.4-0.3,0.3-0.5c0-0.2-0.3-0.4-0.5-0.4
					C218.6,304.7,218.4,304.9,218.5,305.2z"/>
				<path class="st12" d="M225.9,298.9c-0.4-0.2-1.7-0.8-2.4-1.2c-4.8-2.4-5.9-2.7-6.9-2.8c-0.3,0-1.4-0.1-2.8,0.2
					c-1.2,0.3-3.4,1.5-4.4,2.3c2.1-0.3,3.6-1.1,5.8-1c2.9,0.1,4.6,1.5,6.9,3c0.6,0.4,2.7,1.6,3.4,1.9L225.9,298.9z"/>
			</g>
			<path class="st10" d="M234.8,323.8c-0.4,0.4-1.1,1-2.1,1.3c-3,0.9-5.7-1.6-5.8-1.8c1.1,0.1,2.3,0.3,3.5,0.3
				C232,323.7,233.4,323.8,234.8,323.8z"/>
			<path class="st7" d="M203.4,310.1c0.6,3.9-0.3,9.3-2.1,9.6c-1.8,0.3-4-4.6-4.6-8.5c-0.6-3.9,0.5-7.3,2.3-7.6
				C200.9,303.3,202.8,306.2,203.4,310.1z"/>
			<g>
				<path class="st13" d="M224.7,329.1c-1.5,0.7-2.6,1.5-3.3,2.1c3.5-0.4,5.9-0.7,9.5-0.3c0.8,0.1,1.5,0.2,2.3,0.4
					c0.3,0.1,0.6,0.2,0.9,0.3c0.8,0.3,1.5,0.7,1.9,0.9c-0.1-0.7-0.5-2.1-1.7-3.1c-0.5-0.4-0.9-0.6-1.3-0.7c-2.4-1-4.8-0.6-5.7-0.4
					C227.1,328.3,226,328.5,224.7,329.1z"/>
			</g>
			<path class="st8" d="M196.8,330.8c-0.5,7.9,0.2,14.3,1.7,14.5c1.5,0.1,3.2-6.2,3.7-14.1c0.5-7.9-0.2-14.3-1.7-14.5
				C199,316.6,197.4,322.9,196.8,330.8z"/>
			<path class="st7" d="M224.6,362.5"/>
			<path d="M231.7,389.3c-20.4-4.7-40.8-9.5-61.1-14.2c0.9,2.3,7.7,19.7,11.4,29.6c0.5,1.4,1.4,3.7,2.5,6.6
				c1.5,4.1,2.8,7.9,3.6,10.5c2.6,8.9,1.5,19.5,1.3,21c-0.5,3.7-1.5,8.9-3.9,14.8c21.8,1.1,43.7,2.2,65.5,3.3
				c-0.3-1.4-0.6-3.2-0.9-5.3c-0.1-0.4-0.5-4.2-0.4-8.5c0.3-13.8,6-25.5,6-25.5c1.5-2.6,2.6-4.8,3.3-6.4c2.5-5.3,4-10.1,4.6-13.3
				c0.6-3,0.8-6,0.8-6c0-0.1,0-0.3,0-0.4c0.6-10.3-4.3-20.7-4.3-20.7c-0.4-0.7-0.7-1.5-1.1-2.2C249.9,378.3,240.8,383.8,231.7,389.3
				z"/>
			<g>
				<g>
					<path class="st13" d="M201.6,716.3c0,0-31.7,2.3-45.6-13.3c-15.9,5.1-47.2-2.3-51-14.4c29.6-58.3,31.8-81.1,31.8-81.1
						l70.1,20.8L201.6,716.3z"/>
					<path d="M162.2,681.8c-13.8,4.4-40.1-1.3-48.8-10.5c-2.9,5-5.3,11.2-8.4,17.3c3.8,12.1,35.1,19.5,51,14.4
						c13.9,15.6,45.6,13.3,45.6,13.3l1.3-21.1C193.4,695.1,172.7,693.6,162.2,681.8z"/>
					<path class="st13" d="M206.5,634.8c0,0-26.4,2.1-37.9-11.6c-18,6.2-41.7-9.3-43.2-14.1c24.8-51.7,27.5-70.3,27.5-70.3
						l58.2,18.1L206.5,634.8z"/>
					<path d="M173.8,604.3c-11.5,4-34.2-2.5-41.3-10.6c-2.4,4.4-4.5,9.9-7.1,15.3c3.1,10.7,29.9,18.7,43.2,14.1
						c11.5,13.7,37.9,11.6,37.9,11.6l1.1-18.7C199.7,616,182.5,614.7,173.8,604.3z"/>
					<path class="st13" d="M210.6,565.9c0,0-23.1,1.3-33.3-8.8c-11.6,3.2-35.8-4.1-38.7-11.9c7.1-12.9,14.2-26.6,21.1-41.1
						c8.8-18.2,20.4-33.4,27.2-50.2c10.8,0.6,20.6,1.2,31.4,1.9C215.7,492.5,213.2,529.2,210.6,565.9z"/>
					<path class="st13" d="M280,554.3c-3.8,7.5-23.7,11.5-34.8,6.9c-11.4,8.9-34.1,4.8-34.1,4.8c1.3-26.1,2.6-52.1,3.8-78.2
						c0.5-10.7,1-21.4,1.6-32.1c11.3,0.7,22.6,1.4,33.9,2.1c5.8,17.8,11.6,36,17.2,54.6C272,526.5,276.1,540.5,280,554.3z"/>
					<path d="M181.7,543.4c-10,2.8-30.7-3.4-37-9.4c-2.1,3.2-3.8,7.3-6.1,11.2c2.8,7.9,27.1,15.2,38.7,11.9
						c10.2,10.2,33.3,8.8,33.3,8.8l0.8-13.7C204.5,552.2,189.4,551.1,181.7,543.4z"/>
				</g>
				<g>
					<path class="st13" d="M201.6,716.3c0,0,31.2,6,46.9-7.8c15.2,7,42.3-0.5,47.6-12c-3.2-19.8-6.5-35.5-9-46.3
						c0,0-0.9-4.1-8.1-34.3l0,0l-72.1,12.3L201.6,716.3z"/>
					<path d="M248.1,685.6c2.7,1.4,12.6,5.9,25,3c10.9-2.6,17.4-9.4,19.5-11.9c0.7,3.5,1.3,7,2,10.6c0.5,3.1,1.1,6.2,1.5,9.2
						c-5.2,11.6-32.4,19-47.6,12c-15.7,13.8-46.9,7.8-46.9,7.8l1.3-21.1C212.3,696.3,236.3,696,248.1,685.6z"/>
					<path class="st13" d="M206.5,634.8c0,0,25.9,5.2,39-7c12.6,6.1,35.2,2.5,39.6-7.7c-9.7-47.7-14-74.2-14-74.2l-60,11.1
						L206.5,634.8z"/>
					<path d="M244.1,609.1c2.7,1.3,11.4,4.9,22,2.2c6.8-1.7,13.3-5.8,15.7-7.9c0.5,2.7,1.1,5.4,1.6,8.1c0.6,2.9,1.2,5.7,1.9,8.5
						c-4.4,10.2-27.1,13.8-39.8,7.7c-13.1,12.3-39,7-39,7l1.1-18.7c4.1,0.6,9.9,1,16.7,0C233.2,614.7,240,611.5,244.1,609.1z"/>
					<path d="M243.9,546.8c2.8,1.1,10.9,3.9,20.6,1.1c5.7-1.6,9.6-4.6,11.9-6.5c0.6,2.2,1.3,4.3,1.9,6.5c0.6,2.1,1.2,4.2,1.8,6.4
						c-3.8,7.5-24.3,11.4-35.4,6.9c-11.3,8.9-34.1,4.8-34.1,4.8l0.8-13.7c3.7,0.6,8.8,0.9,14.6,0.1
						C233.9,551.4,240,548.8,243.9,546.8z"/>
				</g>
			</g>
			<path class="st7" d="M166.4,372.8c-3.2,6.9-7.7,40-8.6,51.7c-1.4,16.7-0.3,26.9-2,41.3c-1.7,14.9-9,20.9-9.5,50.7
				c-0.2,14,0.6,31.2,0,37.6c-3.5,4.4-9.4,22.9-5,35.9c-0.2,3.1,3.6,8,5.2,9c1.9,2.2,4.6,3.6,8.6,3.9c1.7-1.5,0.6-7.7-2-11.6
				c0.7-4.1,1.8-12.7,1.8-12.5c-0.1,1.7-0.1,4.4,1.1,7.5c0,0,0.3,0.8,0.9,1.6c0.7,1,1.1,1.3,1.5,1.5c0.2,0.1,0.6,0.3,0.9,0.1
				c0.3-0.2,0.4-0.6,0.3-1c-0.4-2.7-0.3-4.1-0.4-7.4c-0.1-4.4,0.3-8.3,0.8-11.6c-1.7-6.8-3.7-9.2-2.8-15c2.6-16.7,4.7-30.9,8.9-44.4
				c5-16,4.7-25.1,6.7-42.3c1.7-14.9,14.9-65.4,10.3-73.7L166.4,372.8z"/>
			<path class="st13" d="M289.3,405.9c-1.8,1.6-6.4,5.3-13.5,6.5c-6.9,1.2-12.3-0.7-14.6-1.6c-4.9,1.5-11.8,3-20,2.9
				c-3.7-0.1-7-0.4-9.9-0.9c-6,1.1-10.9,1.3-14.4,1.3c-7.8,0-15.8,0-23.3-4.6c-3.6-2.2-5.9-4.7-7.3-6.4c-2.3,1.4-6.7,3.7-12.6,4.1
				c-10.7,0.7-18.2-5.3-20-6.8c0-2.3,0.1-5.7,1.1-9.7c0.9-3.7,4.3-15.1,15.4-22.6c2.4-1.6,6.3-3.8,11.8-5.2
				c8.1,3.9,17.1,7.8,27,11.5c7.7,2.9,15.2,5.2,22.2,7.2c4.5-1.2,9.9-3.1,15.6-6.1c4.4-2.3,8.1-4.7,11.2-7c3.8,1.3,8.5,3.5,13.1,7
				C284.4,385.7,288.2,400.6,289.3,405.9z"/>
			<g>
				<path d="M289.3,405.9c-1.7,1.6-8,7.2-17.5,7.3c-4.7,0-8.4-1.3-10.6-2.4c-1.6,1.2-3.6,2.4-6,3.3c-10.5,4.1-20.6,0.2-24-1.3
					c-2.5,1.3-12.3,6.1-24.8,3.3c-11.9-2.7-18.5-10.7-20.3-13c-1.2,0.8-9.8,6.4-20.9,3.7c-5.3-1.3-9.1-4-11.7-6.4
					c0-0.9,0.1-4.8,1.1-9.7c1.8,1.7,7.1,6.1,15.3,7.2c8.9,1.2,15.6-2.3,17.7-3.5c1.6,2,4.3,5,8.5,7.3c3.8,2.1,7,2.5,12.4,3.3
					c5.4,0.8,9.8,1.3,15.3,0.1c3.5-0.8,6.5-2.6,8.2-3.6c1.6,1.1,3.9,3.1,7.3,3.9c2.9,0.7,5.1,0.6,9,0.5c4.1-0.1,6.3,0.3,8.9-0.6
					c2.9-1.1,4.8-3.2,6-4.3c1.1,0.6,6.2,3.4,12.7,1.8c6.2-1.5,9.4-5.9,10.2-7c0.6,1.5,1.2,3.1,1.8,4.9
					C288.5,402.5,288.9,404.3,289.3,405.9z"/>
			</g>
			<path d="M250.7,293.8c-0.4-1.8-1.5-5.9-3.6-8.9c-5.3-7.4-13.5-8.7-14.9-8.9c-1-0.1-4.8-0.6-9.3,0.7c-1.4,0.4-3.4,1-5.5,2.5
				c-1.8,1.3-3,2.7-3.5,3.4c-0.6,0.8-0.6,0.9-3.1,4.5c-0.6,0.9-0.9,1.3-1.3,1.8c-1.1,1.2-2.2,2-3,2.4c0.6-1.7,1.5-3.5,2.6-5.4
				c1.8-2.9,5.8-9.7,13.9-12.9c1.6-0.6,9.5-3.7,17.8,0c1.4,0.6,10,4.6,10.9,12.6C252,288.8,251.3,292.3,250.7,293.8z"/>
			<path class="st11" d="M225.4,308.7l-0.4,0.2c-0.2-0.4-1.3-2.8-3.8-3.7c-2.2-0.7-4.3,0.1-5.4,0.6c-0.2,0.1-0.4,0.2-0.5,0.3
				c-0.1,0.1-0.2,0.1-0.2,0.2c-0.9,0.6-1.9,0.8-2.8,0.6c-0.3,0-0.7-0.1-0.9-0.3c-0.3-0.1-0.7-0.4-1-0.9c0.3,0.1,0.7,0.1,1.1,0.1
				c1.6,0,2.8-0.7,3.4-1.1l0,0c1.5-1.3,4.4-2.5,6.8-1.6C224.6,304.3,225.3,308.5,225.4,308.7z"/>
			<path class="st11" d="M215.8,305.8c-0.2,0.2-0.5,0.4-0.7,0.5c0.1-0.1,0.2-0.1,0.2-0.2C215.4,306.1,215.5,305.9,215.8,305.8z"/>
		</g>
		<path class="st12" d="M244.7,310.6"/>
	</g>
	<g style="clip-path:url(#SVGID_00000138550524598309629600000011459649783085914546_);">
		<path class="st10" d="M358.6,372c-1.7,2.1-6.6,6.5-1.7,7.9c-1.5,0.2-3.2-1-2.9-2.7c0-0.5,0.2-1,0.5-1.4
			C355.7,374.2,357,372.9,358.6,372L358.6,372z"/>
	</g>
	<g style="clip-path:url(#SVGID_00000138550524598309629600000011459649783085914546_);">
		<path class="st10" d="M362.5,374.8c-2.2,2.2-6.2,6-4.3,9.2c0.3,0.4,0.9,0.5,1.4,0.4c-0.5,0.2-1.2,0.3-1.7-0.1
			C355,381.1,359.5,376.2,362.5,374.8L362.5,374.8z"/>
	</g>
	<g style="clip-path:url(#SVGID_00000138550524598309629600000011459649783085914546_);">
		<path class="st10" d="M364.9,379.4c-1.1,2-3,3.5-3.9,5.6c-0.4,0.8-0.6,1.5,0.4,2c0.4,0.2,0.8,0.3,1.3,0.3
			c-0.5,0.1-0.9,0.2-1.4,0.1c-1.3-0.3-1.4-1.6-1-2.6C361.1,382.4,363.2,380.9,364.9,379.4L364.9,379.4z"/>
	</g>
	<g style="clip-path:url(#SVGID_00000138550524598309629600000011459649783085914546_);">
		<g>
			<g>
				<path class="st14" d="M699.4,804.2c0.2,1.5,0.5,3.1,0.7,4.6c0.2,1.2,0.4,2.4,0.6,3.7c-0.1,0.5-0.2,1-0.3,1.5
					c0.5,2.6,1.2,7.8-1,13.7c-0.9,2.4-2.6,7.1-7.5,10.4c-1,0.7-5.1,3.3-10.7,3c-2.3-0.1-5.6-0.3-8.4-2.7c-4.1-3.7-3.5-9.6-3.4-10.4
					c2.1-0.2,23.5-3,28.8-17.6C698.9,808.7,699.4,806.6,699.4,804.2z"/>
				<path class="st7" d="M673.3,813.4c1.5-3.9,3-7.9,4.5-11.8c-0.4-4-0.7-8.1-1.1-12.1c6.9-0.8,13.9-1.7,20.8-2.5
					c0.2,3.7,0.4,7.4,0.7,11.1c0.3,2.2,0.5,4.8,0.5,7.7c0,2.5-0.2,4.8-0.5,6.8C689.9,812.8,681.6,813.1,673.3,813.4z"/>
				<g>
					<path d="M671.4,817.7c1.3-4.7,3.9-10.7,5.1-13.7c0.1-0.3,0.5-1.3,0.8-2.5c0.2-0.6,0.3-1.1,0.3-1.4c0,0.5,0.1,1,0.1,1.5
						c-0.2,0.6-0.4,1.5-0.7,2.7c-0.4,1.5-0.9,3.9-0.6,4.1c0.1,0,0.2-0.2,0.3-0.2c1.2-1.6,7.5-5.7,14.6-3.5c2.8,0.9,3.4,2.5,4.7,2
						c1.9-0.7,2.2-4.7,2.2-8c0.4,1.4,0.9,3.3,1.2,5.7c0.2,1.3,3,23.9-9.3,30.5c-6.8,3.7-17.3,1.9-19.8-2.9c-0.6-1.2-0.7-2.6-0.8-4.4
						C669.4,824.9,669.8,823.1,671.4,817.7z"/>
				</g>
			</g>
			<g>
				<g>
					<path class="st14" d="M624.6,837.6c4.6,4.8,18.1,2,24.7-5.5c2.2-2.5,3.9-6,7.1-13c0,0.1,0,0.2,0,0.3c0.4,0.1,0.7,0.2,1.1,0.2
						c0.3-0.8,0.7-1.6,1-2.4c0.6-1.3,1.1-2.6,1.7-3.9c-0.1-0.7-0.2-1.4-0.4-2.1c-0.1-1.2-0.2-2.6-0.5-4.1c-0.1-0.7-0.3-1.4-0.4-2.1
						c-0.5,0.9-1.3,2.2-2.2,3.7c-6.6,11.2-10,16.7-12.6,19.2c-3.3,3.1-9.3,5.9-21.5,4.3C622.7,833.7,623,836,624.6,837.6z"/>
				</g>
				<path class="st7" d="M630.5,818.8c1.9-3.9,3.8-7.7,5.8-11.6c0.6-0.9,1.2-2,1.7-3.3c1.3-3.8,0.6-7.3,0.1-8.9
					c6.2-1.2,12.5-2.4,18.7-3.6c0.4,3.6,0.8,7.2,1.2,10.8c-0.4,1.9-0.9,3.9-1.7,6.1c-1.8,5.1-4.1,9.2-6.2,12.3
					C643.5,820,637,819.4,630.5,818.8z"/>
				<g>
					<path d="M654.2,816.1c1.9-4.4,3.5-8.1,4.7-11c-0.3-1.1-0.5-1.9-0.6-2.6c-0.1-0.6-0.2-1.1-0.3-1.1c-0.1,0-0.2,0.9-0.3,1.7
						c-1.2,2.6-2.3,4.6-2.8,5.6c-0.2,0.4-0.6,1.1-1.3,1.3c-0.3,0.1-0.6,0.1-0.7,0.1c-0.5-0.1-1.9-2.1-2.4-2.4c0,0-2.5-2.4-8.3-2.4
						c-1.3,0-3.8,0.9-6.9,4.1c2-4.2,2.4-4.5,2.3-4.5c0,0,0,0,0,0c0,0-0.1,0-0.2,0.1c-16.2,21.5-14.5,27.8-14.5,27.8
						c3.2,4.8,14,4.9,20.2,0.6c1.3-0.9,2.1-1.9,3.7-3.7C649.6,826.2,651,823.3,654.2,816.1z"/>
				</g>
			</g>
			<g>
				<path d="M658.8,288.4c-0.5,3.8-1.4,8-2.8,12.6c-2.7,8.8-6.6,15.8-10,20.7c-8,5.7-18.4,6.7-27.1,2.6c-9.4-4.4-17-14.7-15.2-22.1
					C606.4,291.8,628.4,286.1,658.8,288.4z"/>
				<g>
					<g>
						<g>
							<path class="st7" d="M648.4,336.6c-0.8-3.5-1.5-7.3-2-11.5c-0.3-2.7-0.5-5.3-0.6-7.7c-0.1-1.7-0.1-3.4-0.1-5
								c0-0.1,0-0.2,0-0.3c-5.5,1.1-11.2,2.4-17.1,3.9c-0.4,0.1-0.8,0.2-1.2,0.3c-4.9,1.3-9.6,2.6-14.2,4c-0.1,0-0.2,0.1-0.4,0.1
								c0.2,0.3,0.4,0.7,0.5,1.2c0.9,2,1.9,4.8,2.3,8.3c0.2,1.5,0.3,3.2,0.2,4.9c-0.2,3.8-1.1,6.9-2,9.1
								C625.4,341.3,636.9,338.9,648.4,336.6z"/>
							<path class="st10" d="M613.2,320.2c0.1,0.4,0.1,0.8,0.2,1.3c0.9,2,1.9,4.8,2.3,8.3c0.8,0.2,2,0.4,3.5,0.4
								c2.5,0.1,4.3-0.4,6.5-0.9c4.7-1.1,5.7-1,7.3-1.4c2.2-0.6,7.2-2.5,12.8-10.5c-0.1-1.7-0.1-3.4-0.1-5
								c-6.1,1.3-12.2,2.6-18.3,3.9C622.5,317.5,617.7,318.8,613.2,320.2z"/>
						</g>
						<path class="st7" d="M593.7,289.8c1.3,5.3,2.4,10.7,3.3,15.3c0.7,2.3,2,5.8,4.5,9.4c1.1,1.5,3.1,3.5,7.2,7.4
							c5,4.8,6.8,6,9.1,6.1c0.8,0,1,0.1,4.3-0.4c5.2-0.8,5.8-0.7,8.2-1.1c3.7-0.8,6.3-2.4,8.1-3.5c3.3-2.1,5.1-4.2,8.3-8
							c3.1-3.6,4.6-6.2,5.4-8.3c0.6-1.7,2.1-4.3,1.3-10.6c-0.6-4.8-1.4-10.4-1.9-16c0.5-10.2-5-22.3-9.7-27.7
							c-4.1-3.6-15.7,1.2-24.6,2.8c-8.8,1.6-21,1.2-23.5,5.9c-0.8,3.5-1.6,7.9-1.7,13.1C591.8,280.5,592.7,285.8,593.7,289.8z"/>
						<g>
							<path class="st8" d="M624.4,287.5c1,0.5,3,1.3,5.5,1.2c4.2-0.2,7-2.7,7.7-3.4c-1.6-1.3-3.4-2.1-5.2-2.4
								c-0.7-0.1-1.8-0.3-2.9,0C626.3,283.6,624.7,286.8,624.4,287.5z"/>
							<path class="st15" d="M625.9,285.9c0.3,1.8,2.4,3,4.2,2.7c1.8-0.3,3.4-2.3,2.9-4.2c-0.2-0.6-0.5-1.1-1-1.5
								c-0.6-0.1-1.2-0.1-1.7-0.1c-0.7,0.1-1.3,0.3-1.9,0.6c-0.3,0.2-0.6,0.3-0.9,0.5c-0.6,0.5-1.1,1-1.5,1.5
								C625.9,285.6,625.9,285.7,625.9,285.9z"/>
							<path d="M631.3,285.2c0.1,1.1-0.7,2.1-1.7,2.1c-1,0-1.9-0.8-2-1.9c-0.1-1.1,0.6-2,1.6-2.1
								C630.2,283.2,631.1,284.1,631.3,285.2z"/>
							<path class="st8" d="M631.9,284.4c0,0.4-0.3,0.8-0.7,0.8c-0.4,0-0.8-0.3-0.8-0.7c0-0.4,0.2-0.8,0.6-0.8
								C631.5,283.7,631.9,284,631.9,284.4z"/>
							<path class="st16" d="M619,279.7c3.4-3,8.3-6.4,14.3-8.8c1.1-0.5,3.3-0.6,4.7,0.7c0.9,0.9,1,2.1,1,2.8
								c-0.9-0.1-2.3-0.1-3.9,0.2c-2.1,0.3-4.1,1.1-8.1,3.5c-1.9,1.1-4.1,2.6-6.6,4.4c-0.2-0.2-0.4-0.5-0.6-0.8
								C619.4,280.9,619.2,280.2,619,279.7z"/>
							<path class="st16" d="M624.4,287.5c0.5-0.7,1.9-2.9,4.8-3.8c4.4-1.4,8.1,1.3,8.4,1.6c-3.2-3.2-7.5-4-10.3-2.2
								C625.3,284.4,624.6,286.6,624.4,287.5z"/>
						</g>
						<g>
							<path class="st8" d="M610.5,289.5c-0.7,0.6-4.6,3.9-9.5,3c-1.5-0.3-2.7-0.9-3.6-1.4c1-1.6,2.3-2.8,3.7-3.6
								c1.5-0.8,3.1-1.1,4.8-0.8c0.6,0.1,1,0.2,1.1,0.3C608.9,287.5,610,288.8,610.5,289.5z"/>
							<path class="st15" d="M607,288.8c0.3,1.9-1.4,3.7-3.2,3.8c-1.8,0.1-3.9-1.4-4-3.3c0-0.6,0.1-1.2,0.4-1.7
								c1.5-0.8,3.1-1.1,4.8-0.8c0.4,0.1,0.8,0.2,1.1,0.3C606.5,287.6,606.9,288.2,607,288.8z"/>
							<path d="M600.7,289.7c0.3,1.1,1.3,1.8,2.3,1.6c1-0.2,1.6-1.3,1.4-2.4c-0.3-1.1-1.3-1.8-2.3-1.6
								C601,287.5,600.4,288.6,600.7,289.7z"/>
							<path class="st8" d="M603.5,288.6c0.1,0.4,0.5,0.7,0.9,0.6c0.4-0.1,0.6-0.5,0.5-0.9c-0.1-0.4-0.5-0.7-0.9-0.6
								C603.6,287.8,603.4,288.2,603.5,288.6z"/>
							<path class="st16" d="M610.8,280.3c-3.5-1.7-7.9-3-12.4-3.2c-0.8,0-2.2,0.5-2.8,1.9c-0.4,0.9-0.3,1.9-0.2,2.4
								c0.6-0.3,1.4-0.7,2.5-0.9c1.4-0.3,2.9-0.3,6.2,0.7c1.6,0.4,3.8,1.1,6.2,2.1c0.1-0.3,0.2-0.6,0.3-0.9
								C610.8,281.6,610.9,280.9,610.8,280.3z"/>
							<path class="st16" d="M610.5,289.5c-0.4-0.3-3.5-3-7.7-2.1c-3.2,0.7-5,3.1-5.4,3.7c0.2-0.7,1.1-3.2,3.5-4.4
								C603.9,285.1,607.9,286.2,610.5,289.5z"/>
						</g>
						<path d="M589.1,251c3-3.3,11.3-11.6,24.8-14.4c4.3-0.9,20.3-4.4,33.2,5.9c15.2,12.3,13.3,33.3,13,34.5
							c-0.1,5.7-0.9,13.9-4.6,22.9c-1.7,4.2-3.7,7.8-5.6,10.8c0.4-1.1,1-2.8,1.3-5c0.3-2.3,0.2-3.9,0-6.3c-0.2-2-0.4-5.1-0.8-9.5
							c-0.6-0.1-2.5,0.5-2.5-0.1c-0.4-6.4-1.6-10.3-2.9-12.9c-1.6-3.2-3.3-4.6-4.9-8.5c-1.5-3.6-1.9-6.9-2-9
							c-4.9-1.7-14.4-4.1-25.9-2.2c-7.2,1.2-12.9,3.6-16.8,5.7c0.7,5,0.3,8.8-0.3,11.3c-0.8,4-2.2,6.6-2.1,11.1
							c0.1,2.4,0.6,4.3,1,5.5c-1.2-3.1-2.3-6.5-3.2-10.2C587.9,268.9,588.1,258.6,589.1,251z"/>
						<g>
							<g>
								<path class="st10" d="M613.1,304.4c0,0.2,0.9,0.5,2.9,0.9c1.8,0.6,3.7,0.3,5.3-0.8c1.7-1,2.5-1.5,2.5-1.7
									c-0.1-0.2-1.6,0.2-4.4,1.3c-0.5,0.2-1.1,0.2-1.7,0.2C614.6,304.2,613.1,304.2,613.1,304.4z"/>
							</g>
						</g>
						<g>
							<path class="st10" d="M620,314.3c5.1-0.5,7.8,0,7.8-0.4c0.1-0.5-3.7-2-7.8-1.6c-3.9,0.4-7.1,2.5-7,2.9
								C613.1,315.6,615.4,314.7,620,314.3z"/>
						</g>
						<g>
							<path class="st10" d="M617.2,319.5c0,0.4,1.9,1.1,3.8,0.9c1.9-0.2,3.7-1.4,3.6-1.8c-0.1-0.5-2.4-0.2-3.8,0
								C619.5,318.7,617.2,319,617.2,319.5z"/>
						</g>
					</g>
					<g>
						<polygon class="st16" points="616.2,307.5 616.9,309.6 605.8,313.2 						"/>
						<polygon class="st16" points="620.2,306.8 620,309.1 633.8,310.6 						"/>
					</g>
					<g>
						<path d="M588.9,261.2c22.6-2.5,44.9-5,66.9-7.5c-1.1-7.7-2.3-15.4-3.4-23.1c-21.3,2.1-43,4.2-65,6.3
							C587.8,245.1,588.4,253.1,588.9,261.2z"/>
						<g>
							<path class="st13" d="M691.1,247.1l-2.6-6.5c0,0-0.3,0.1-1.1,0.4l0,0c-0.7,0.3-1.8,0.6-3.3,1.1l0,0
								c-2.9,0.9-7.4,2.2-13.1,3.7l0,0c-11.4,2.9-28.1,6.5-49.3,9l0,0c-20.7,2.5-37.8,3.2-65.8,2.3l0,0l-0.3,6.5
								c28.4,0.9,45.7,0.4,66.8-2.1l0,0C665.9,256.3,690.8,247.2,691.1,247.1L691.1,247.1z"/>
						</g>
					</g>
					<g>
						<path class="st7" d="M649,281.6c-0.1-1.9,1.5-3.7,3.5-3.5c4.8,0.4,3.3,11,2.2,15.2c-0.5,1.9-0.6,6.7-4.4,6.5L649,281.6z"/>
					</g>
				</g>
			</g>
			<g>
				<path class="st7" d="M748.2,579.1c0,0.6,0.1,1.2,0.1,1.8l0,0.1c0.1,2.6,0,5.4,0.1,8.4l0,0.1c0,0,0.1,3-1,9.5
					c-0.1,0.8-0.4,2.3-1.5,3.6c-0.3,0.3-0.5,0.6-0.8,0.8c0,0,0,0,0,0c-0.1,0.1-0.3,0.2-0.4,0.3c0,0.1-0.1,0.2-0.1,0.4
					c-0.3,1.2-1.3,4.1-4,4.5c-0.7,0.1-1.7-0.2-2.3-0.6c-1.1,2.6-2.6,3.1-3.8,2.7c-1.1-0.4-1.8-1.6-2.1-2c-0.7,0.1-1.7,0.2-2.6-0.5
					c-1.9-1.4-1.5-4.9-2.1-11.9c-0.1-1.4-0.7-5.6-1.9-14.2c0-0.2-0.1-0.4-0.1-0.6c0-0.2-0.1-0.3-0.1-0.5c-0.2-1.5-0.4-2.9-0.6-4.3
					c-1.3,4.9,0,12.7-4.2,14.1c0,0,0,0-0.1,0c0,0-0.1,0-0.1,0c-0.1,0-0.2,0.1-0.4,0.1c-0.1,0-0.1,0-0.2,0c-0.2,0-0.3,0-0.5,0
					c0,0,0,0,0,0c-0.2,0-0.3,0-0.5-0.1c-0.1,0-0.1-0.1-0.2-0.1c-0.1-0.1-0.2-0.2-0.3-0.3c0,0,0-0.1-0.1-0.1
					c-0.1-0.1-0.1-0.1-0.1-0.2c-0.1-0.1-0.2-0.3-0.2-0.4c0-0.1,0-0.3,0-0.4c1-10.5-1.1-15.7,0.2-20.5c3.7-5.7,6.1-9.6,6.4-14.1
					c0.3-4-1-7.1-1.5-8.3c-5-12.8-9-31.7-15-60.5c-1.9-8.8-2.8-13.2-2.9-14c-1.2-5.9-1.2-6.1-1.9-8.9c-4.8-19.4-10.5-34.6-14.6-44.6
					c-4,10.5-8.5,26-9.4,45.1c-1,22.6,3.5,40.7,7.3,52c-11.1,3.1-25.1,6.1-41.4,7.3c-15.9,1.2-29.7,0.4-40.8-1
					c2.3-13.9,4-34.6-0.6-58.8c-0.2-0.9-1.5-6.5-3.2-13.7c-1.4-5.8-2.6-10.9-3.7-15.2c-0.7-2.8-1.3-5.2-1.8-7.2
					c-0.2,1.7-0.4,3.4-0.6,5.1l-28.5-24.7c0.7-10,1.5-16.9,1.9-20.2c1.1-9.1,2.2-16.6,3-21.6c4.6-2.8,9.3-5.7,14.1-8.6
					c8.4-5.2,16.6-10.4,24.7-15.7c0.6-1,1.2-2.1,1.9-3.1l18.9,3.2c7.1-2.3,14.3-4.6,21.4-6.9c10,2.1,20.8,4.8,32.2,8.5
					c7.6,2.4,14.7,5,21.3,7.7c5.7,9.5,8.7,17.6,10.4,23.4c0.9,3.1,3.1,13.3,6.8,33.8c2.7,15,4.5,19.3,6.9,29.1c0,0,1.1,4.8,2.5,11.4
					c7.1,35.7,7.8,74.8,7.8,74.8c0.1,6.4,0.1,15.6-0.4,26.7c1.1,2.4,2.4,4.6,3.6,6.7c2.5,4.5,4,9.4,4.5,14.5
					C747.8,573.6,748,576.3,748.2,579.1z"/>
				<g>
					<path class="st10" d="M665.8,346.2c-6.1-5.1-22.6-0.6-28.3,5.9L665.8,346.2z"/>
					<path class="st10" d="M600.1,356.1c4.3-6.2,19.4-6.8,25.6-2.3L600.1,356.1z"/>
					<path class="st10" d="M745.3,602.6c2-5.3,2.1-13.8,0.1-20.8c0.5,3.8,0.8,8.3,0.4,13.3c-0.2,3.2-0.7,6.1-1.2,8.5L745.3,602.6z"
						/>
					<path class="st10" d="M738.3,607.7c3.9-6.3,3.8-21.3-0.2-30c1,4.2,2,9.8,1.9,16.1C740,599.6,739.2,604.2,738.3,607.7z"/>
					<path class="st10" d="M732.4,608.3c3.5-6,2.5-21.4,0.2-29.5c0.9,5.5,1.6,12.2,1.1,19.6C733.5,602.1,733,605.4,732.4,608.3z"/>
				</g>
				<g>
					<path class="st8" d="M714.3,533c4.6,5.3,20.4,7.2,24.1,2.4c17.2-5.8,8.3-22.6-0.7-78.4c-9.5-59-20.1-124.1-40.4-109.4
						l-8.7,71.2C688.6,418.9,696.8,530.1,714.3,533z"/>
					<path class="st8" d="M708.9,552.8c0,0,43,8.4,46.8-3.3c1.9-6-15.8-21.9-15.8-21.9l-24.4,0.5L708.9,552.8z"/>
					<g>
						<path class="st8" d="M628.7,334.2c1.5-1.9,3.9-2.7,10.1-4.3c3.6-0.9,8.1-2,13.4-3c0.3,2.4,0.6,4.9,0.9,7.3
							c-8.6,2-17.2,4-25.8,5.9C627.1,338.6,627.1,336.2,628.7,334.2z"/>
						<path class="st8" d="M625.1,334.9c-1.5-1.1-3.2-1.3-5.9-1.5c-1.9-0.2-4.7-0.2-8.2,0.4c-0.4,2.4-0.8,4.9-1.2,7.3
							c5.8-0.4,11.7-0.7,17.6-1.1C627.4,339.3,627.3,336.6,625.1,334.9z"/>
					</g>
					<path class="st8" d="M683.2,472.6c-15.6,1.2-31.1,2.4-46.6,3.6c-3-45.5-6-91-9-136.6c8.5-1.8,17-3.6,25.5-5.4
						c1.3,0.3,2.5,0.6,3.8,0.9c10,19.7,20,39.5,30.1,59.2C685.7,420.4,684.5,446.5,683.2,472.6z"/>
					<path class="st8" d="M567.4,470.6c-5.9,7.4-18.6,5.9-20.9,5.6c-8-4.1-16-8.2-24-12.3c1.5-3,4.6-9.3,8.5-17.3
						c26.1-54.8,35.7-90,46.6-88.5c1.3,0.2,2.5,0.8,3.7,1.9c3.3,23.8,6.5,47.6,9.8,71.5c-3.7,9.3-9.1,19.8-16.9,30.4
						C572,465.1,569.7,468,567.4,470.6c-7,1.9-13.9,3.7-20.9,5.6c-25.3-12.6-44.3-23.2-54.4-29.2c-3.3-1.9-10.6-6.3-15.5-14.6
						c-2.2-3.7-3.3-7-3.8-9.5c-0.7-3.2-1.7-7.7,0.1-12.6c1.4-3.7,4-7,6.6-8.7c7.3-4.6,18.4,1.2,29.2,6.7
						c43.7,22.3,47.7,21.7,53.5,30.6C563.7,441.5,575.6,460.4,567.4,470.6z"/>
					<path class="st8" d="M601.1,479.4c11.8-1.1,23.7-2.2,35.6-3.2c-3-45.5-6-91-9-136.6c-6,0.5-11.9,1-17.8,1.5
						c-2,1.1-4,2.1-6.1,3.2c-5.4,19.9-10.7,39.7-16,59.2C592.2,428.7,596.7,454,601.1,479.4z"/>
					<path class="st17" d="M634.5,476.3c0.7-0.1,1.5-0.1,2.2-0.2c-2.9-45-5.8-90.1-8.7-135.1c-1,0.1-2,0.2-3,0.4
						C628.1,386.4,631.3,431.3,634.5,476.3z"/>
				</g>
				<g>
					<path d="M636.6,348.5c1.8,38.3,3.5,76.5,5.3,114.8c15.3,2.1,30.6,4.2,45.9,6.3c2-20.1,3.8-40.6,5.4-61.4
						c1.6-20.5,2.9-40.7,4.1-60.5c-6.1-2.3-12.6-4.6-19.5-6.7c-7.3-2.3-14.2-4.2-20.9-5.8C650.2,339.5,643.4,344,636.6,348.5z"/>
					<path d="M618,349.1c3.4,38.4,6.8,76.8,10.1,115.2c-10,3-20,6-30.1,9.1c-6.5-38.4-12.9-76.9-19.4-115.4
						c8.4-4.6,16.7-9.2,25.1-13.8C608.6,345.8,613.3,347.5,618,349.1z"/>
				</g>
				<path d="M603.9,685.9c4.6,30,12.5,68.9,26.8,113.5c11.1-0.5,22.3-1,33.4-1.5C657.7,762.5,652,724,648,682.7
					c-4.2-43.7-9-84.6-9.3-122.4c0.7-0.1,1.6,0,2.4-0.1c0.6,38.9,5.7,80.8,10.5,125.5c4.2,39.9,9.9,77.2,16.4,111.8
					c12.3-0.5,24.6-1,36.9-1.4c5.2-32.9,8.8-70.9,8.8-112.9c-0.1-74.2-11.8-137.5-24.9-186.3c-4.2-1.3-10-2.8-17.1-3.5
					c-2.4-0.2-5.3-0.4-8.5-0.4c-8.2,0.1-15.2,1.3-20.4,2.7l-2.6-0.2c-2.8-1.6-9.7-5.1-19-4.8c-11.3,0.4-18.9,6.1-21.3,8.1
					c-0.4,3-0.9,7.6-1.4,13.1C596.1,535.2,590.8,600.8,603.9,685.9z"/>
				<g>
					<path class="st13" d="M598.6,509.3c30.4-2.6,61-5.3,91.6-7.9c-2.8-9.8-5.7-19.6-8.5-29.4c-26.5,2.4-52.9,4.8-79.3,7.3
						C601.1,489.3,599.9,499.3,598.6,509.3z"/>
					<path class="st18" d="M658.9,563.5c5.3,46.5,17.3,84.9,28.9,113.6c3.5-14.3,6.9-31.7,8.9-51.8c2.7-27.8,1.6-51.1,0-67.4
						c-1.5-15.3-4.3-34.5-10-56c-10.2,0.9-20.3,1.8-30.4,2.7C655.8,522.2,656.5,542,658.9,563.5z"/>
				</g>
			</g>
		</g>
		<g>
			<path class="st7" d="M429.5,398.5c-7.7,1.9-10.1-9.4-1.5-6.2l-0.1,0C431.8,391.2,433.4,397.5,429.5,398.5z"/>
			<path class="st7" d="M429.6,393.9c-10.6-0.4-6.3-11.8-0.9-6.5c0-0.1-0.1-0.1,0.1,0c0.1,0.1,0.4,0.1,0.6,0.1c0,0,0.1,0,0,0
				C433.4,387.3,433.7,393.8,429.6,393.9z"/>
			<path class="st7" d="M429.5,388.6l-3-0.9c-3.9-1.1-2.2-7.3,1.7-6.1c0,0,3,0.9,3,0.9C435.2,383.6,433.4,389.8,429.5,388.6z"/>
			<path class="st7" d="M464,392.9c-1.7-1.1-4.1-3-6.3-6.1c-2.5-3.5-2.7-5.7-3.9-7.5c-1.9-2.8-7.5,3.5-21.4-2.3l-5.1,20.5
				c0,0,13,11.4,30.4,10.9c2.8,1.7,5.5,3.3,8.3,5c2.7-5,5.4-10.1,8.1-15.1C470.8,396.6,467.4,394.7,464,392.9z"/>
			<path class="st7" d="M444.5,380.4c-3.3-3-34.4-10.8-34-4c0.1,2.7,3.2,2.4,5,2.6c7,0.8,14,2.6,20.3,5.7c3.3,1.1,6.7,5.9,10.1,2.5
				C447.9,385,447,381.5,444.5,380.4z"/>
			<path class="st7" d="M435.5,365.4c4.1,7.8,8.1,15.7,11.6,23.8c3,6.8,11.7,1.9,8.9-5c-4.7-11.6-9.3-15.1-16.1-21.7
				C437.6,360.3,434,362.7,435.5,365.4z"/>
			<path class="st10" d="M431.7,397.3c0.9-1.6-0.3-4-0.5-4c-0.2,0.1-0.2,0.5,0,1.3c0.1,0.3,0.2,1.1-0.2,2c-0.7,1.5-2.3,1.9-2.5,2
				c0.2,0.1,0.5,0.1,0.9,0.1C430.5,398.7,431.3,398,431.7,397.3z"/>
			<path class="st10" d="M432.6,392.7c0.9-1,0.7-4.7-1-4.4c-0.5,1,1.8,2.1-0.1,4.3c-1.2,1.4-3.3,0.9-4.8,0.3
				c-0.9-0.4-1.7-0.7-2.6-1.1c2.4,2.3,5.3,3.1,7.2,2.1C431.6,393.7,432.1,393.3,432.6,392.7z"/>
			<path class="st10" d="M433.4,387.5c1.3-2,0.2-4.9-2.1-5.5l0,0c-2.9-0.6-3.6-0.7-3.6-0.5s0.6,0.5,3.4,1.5c3.4,0.9,1.8,6.2-1.5,5.2
				c0,0,0,0,0,0c-1.3-0.5-5.1-2-5.2-1.9c-0.1,0.1,3.8,3.9,7,2.8C431.7,389,432.7,388.6,433.4,387.5z"/>
			<path class="st10" d="M451.1,394.9c-1.9-1.5-5.3-4.8-7.2-10c-0.8-2.1-1.1-4-1.2-5.6c-0.2-0.1-0.5-0.1-0.7-0.2
				c0,1.7,0.2,6.4,3.5,10.8C447.4,392.7,449.7,394.2,451.1,394.9z"/>
		</g>
		<line class="st19" x1="573.2" y1="473.2" x2="573.2" y2="473.2"/>
		<g>
			<path class="st8" d="M471.2,381.2c0,0-28.8,24.7-22.2,37.1c3.3,6.2,24.4,5.6,24.4,5.6l9.4-20.4L471.2,381.2z"/>
		</g>
		<path class="st8" d="M521.8,405.9"/>
	</g>
</g>
</svg>
