<?xml version="1.0" encoding="utf-8"?>
<!-- Generator: Adobe Illustrator 26.0.1, SVG Export Plug-In . SVG Version: 6.00 Build 0)  -->
<svg version="1.1" id="Layer_1" xmlns="http://www.w3.org/2000/svg" xmlns:xlink="http://www.w3.org/1999/xlink" x="0px" y="0px"
	 viewBox="0 0 854 544" style="enable-background:new 0 0 854 544;" xml:space="preserve">
<style type="text/css">
	.st0{fill:#E9D3AF;}
	.st1{fill:#D3915F;}
	.st2{fill:#D5B792;}
	.st3{fill:#21263D;}
	.st4{fill:#FFEAD4;}
	.st5{fill:#E5C49D;}
	.st6{fill:#B1D8FC;}
	.st7{fill:#46738C;}
	.st8{fill:#0F131C;}
	.st9{fill:#19232D;}
	.st10{fill:#9BC2E0;}
	.st11{fill:#6B95AF;}
	.st12{fill:#301F1D;}
	.st13{fill:#E09A61;}
	.st14{fill:#DC2428;}
	.st15{fill:#C47947;}
	.st16{fill:#231F20;}
	.st17{fill:#FFFFFF;}
	.st18{fill:#603813;}
	.st19{fill:#B59B76;}
	.st20{fill:#E2C294;}
	.st21{fill:#A0A0A0;}
	.st22{fill:#777777;}
	.st23{fill:#E2E2E2;}
	.st24{fill:#C7D3D8;}
	.st25{fill:#FCFCFC;}
	.st26{fill:#FF335A;}
	.st27{fill:#103C89;}
	.st28{fill:#754026;}
	.st29{fill:#E5E5E5;}
	.st30{fill:#111111;}
	.st31{fill:#EAA77A;}
</style>
<path class="st0" d="M833.1,431.3c-9.9,36.3-22.4,63.5-31.4,80.3c-6.9,12.9-11.8,19.7-11.8,19.7H91.7c0,0-7.1-10.2-17.2-27
	c-35-58.4-105.8-196-39.2-259.4c85.8-81.7,167.5-8.9,183.8-96.9C234.2,66.6,291.6-12.3,396,13.2c134.1,32.6,119.3,125.1,185.1,118.1
	c65.8-6.9,178.4-58.7,198.8,39.3c20.4,97.9-75,182-14.3,175C807.3,340.9,860.7,330.2,833.1,431.3z"/>
<g>
	<g>
		<path class="st1" d="M442.7,207.6c-1.6,2.9-3.2,5.7-4.8,8.6c3.4,14.5,6.8,28.9,10.1,43.4c19.1,0.4,38.2,0.8,57.3,1.2
			c0.3-3.6,0.6-7.2,0.9-10.8c-13.6-1.4-27.2-2.9-40.8-4.3c-2.3-12-4.7-24-7-36C453.1,209,447.9,208.3,442.7,207.6z"/>
	</g>
	<g>
		<g>
			<g>
				<path class="st2" d="M798.8,516.6c-6.9,12.8-11.7,19.4-11.7,19.4H94.9c0,0-7-10.1-17-26.7c84.3-5.6,196-9,318.6-9
					C565.9,500.4,714.6,506.9,798.8,516.6z"/>
				<g>
					<g>
						<g>
							<path class="st2" d="M126.6,457.9c2.8-31.7-18.2-78.1-55-80c-7.8-0.4-13.7,0.8-12.2,9.5c1,6,4.4,11.7,8,16.6
								c9.6,13,21.3,20.7,33.5,31.1c5.5,4.7,10.6,9.1,16.2,13.4c1.9,1.5,3.3,3.1,4.8,5c1,1.2,4.2,5.8,4,4.8L126.6,457.9z"/>
						</g>
						<g>
							<path class="st3" d="M131.1,490.9c-0.2,0-0.5-0.2-0.5-0.4c0-0.3,0-0.7-0.1-1.2c-0.2-3.8-0.8-15.3-5.1-30.7
								c-8.2-29-22.8-45.7-45.4-64.8c-0.2-0.2-0.2-0.5-0.1-0.7c0.2-0.2,0.5-0.2,0.7-0.1c22.7,19.2,37.4,36,45.7,65.3
								c4.4,15.5,4.9,27.1,5.1,30.9c0,0.6,0,1,0.1,1.2C131.6,490.6,131.4,490.9,131.1,490.9C131.2,490.9,131.1,490.9,131.1,490.9z"
								/>
						</g>
					</g>
					<g>
						<g>
							<path class="st4" d="M119.6,274.1c4.1,7.6-2.3,15.6-1.8,23.4c1.3,21.8,38.7,18.7,34.5,41.8c-0.8,4.7-3.7,8.8-6.8,12.2
								c-2.5,2.8-7.3,5.7-8,9.8c-1.4,7.7,10,12.5,14.1,17.4c6,7.1,7.9,17,1.9,24.8c-5.8,7.5-6.5,6.2-5.7,16.7
								c0.7,9.3-1.3,28.6-7.8,36.8c-8.1-41.1-21.1-35.8-36.9-37.2c-8.7-0.8-19.7-7.4-17.4-16.3c2.3-9.3,2.9-11.6,7.9-19
								c6.7-10-4.2-15.4-12.4-17.5c-10.5-2.7-12.2-5.6-15.3-17.7c-1.3-5.2-0.4-10.5,2.3-15.2c3-5.1,9.1-7.5,12.2-12.2
								c5.7-9-8.6-12.3-14.1-16c-6-4.1-7.9-9.4-5.2-16.1c1.3-3.1,3.1-5.9,6-7.6c2.1-1.2,6.5-1.3,7.9-3.5c1.1-1.7-0.6-5.8-0.4-8
								c0.3-2.7,1.3-5.4,3.4-7.3c6.1-5.5,13.8,1.9,20.4,2.7C106.1,267,115.1,265.9,119.6,274.1z"/>
						</g>
						<g>
							<path class="st3" d="M135,489.7c0,0-0.1,0-0.1,0c-0.3-0.1-0.4-0.3-0.3-0.6c5.1-18.8,5.5-42,5.3-49.3
								c-0.7-21.8-5.2-44.5-13.3-67.5c-8.9-25.5-18-50.2-30.3-71c-0.1-0.2-0.1-0.5,0.2-0.7c0.2-0.1,0.5-0.1,0.7,0.2
								c12.3,20.9,21.4,45.6,30.3,71.2c8.1,23.2,12.6,46,13.3,67.8c0.3,7.4-0.2,30.7-5.3,49.6C135.4,489.6,135.2,489.7,135,489.7z"
								/>
						</g>
						<g>
							<path class="st3" d="M106.5,320.2c0,0-0.1,0-0.1,0c-0.3-0.1-0.4-0.3-0.4-0.6c1-4.3,1.8-10.3,2.5-17.2c0-0.3,0.3-0.5,0.5-0.4
								c0.3,0,0.5,0.3,0.4,0.5c-0.7,7-1.6,13-2.5,17.3C106.9,320.1,106.7,320.2,106.5,320.2z"/>
						</g>
						<g>
							<path class="st3" d="M112.1,333.7c-0.1,0-0.2,0-0.2-0.1c-3-1.7-5.4-3.2-7.7-4.6c-3.6-2.2-6.6-4.1-10.7-5.9
								c-0.2-0.1-0.4-0.4-0.3-0.6c0.1-0.2,0.4-0.4,0.6-0.3c4.1,1.8,7.2,3.7,10.8,5.9c2.3,1.4,4.7,2.9,7.7,4.6
								c0.2,0.1,0.3,0.4,0.2,0.7C112.5,333.6,112.3,333.7,112.1,333.7z"/>
						</g>
						<g>
							<path class="st3" d="M120.7,354.9c0,0-0.1,0-0.1,0c-0.3-0.1-0.4-0.3-0.4-0.6c0.5-2.4,1.3-5.4,2.1-8.7
								c0.8-3.3,1.6-6.7,2.2-9.5c0.1-0.3,0.3-0.4,0.6-0.4c0.3,0.1,0.4,0.3,0.4,0.6c-0.6,2.8-1.5,6.2-2.2,9.5
								c-0.8,3.3-1.5,6.3-2.1,8.7C121.1,354.7,120.9,354.9,120.7,354.9z"/>
						</g>
						<g>
							<path class="st3" d="M123,361c-0.1,0-0.2,0-0.3-0.1c-2.1-1.3-5.3-2.7-8.7-4.2c-3.6-1.6-7.3-3.2-10.5-4.9
								c-0.2-0.1-0.3-0.4-0.2-0.7c0.1-0.2,0.4-0.3,0.7-0.2c3.1,1.8,6.8,3.4,10.4,4.9c3.4,1.5,6.7,2.9,8.9,4.2
								c0.2,0.1,0.3,0.4,0.2,0.7C123.3,360.9,123.1,361,123,361z"/>
						</g>
						<g>
							<path class="st3" d="M131.3,385c-0.1,0-0.1,0-0.2,0c-0.3-0.1-0.4-0.4-0.3-0.6c2-5.3,3.1-7.9,5.2-12.6l1.1-2.6
								c0.1-0.2,0.4-0.4,0.6-0.3c0.2,0.1,0.4,0.4,0.3,0.6l-1.1,2.6c-2.1,4.7-3.2,7.3-5.2,12.6C131.7,384.9,131.5,385,131.3,385z"/>
						</g>
						<g>
							<path class="st3" d="M134.5,397.9c-0.1,0-0.2,0-0.3-0.1c-3.5-2.3-6.2-4-8.6-5.5c-4.1-2.5-7-4.4-10.3-6.9
								c-0.2-0.2-0.2-0.5-0.1-0.7c0.2-0.2,0.5-0.2,0.7-0.1c3.2,2.5,6.1,4.4,10.2,6.9c2.4,1.5,5.2,3.2,8.6,5.5
								c0.2,0.1,0.3,0.4,0.1,0.7C134.8,397.8,134.6,397.9,134.5,397.9z"/>
						</g>
						<g>
							<path class="st3" d="M138.1,416.6c-0.1,0-0.1,0-0.2,0c-0.2-0.1-0.4-0.4-0.3-0.6c1.4-3.4,3.5-7,5.3-10.2
								c1.2-2.1,2.3-4,3.1-5.6c0.1-0.2,0.4-0.3,0.6-0.2c0.2,0.1,0.3,0.4,0.2,0.6c-0.8,1.6-1.9,3.6-3.1,5.7
								c-1.8,3.2-3.9,6.8-5.2,10.1C138.5,416.5,138.3,416.6,138.1,416.6z"/>
						</g>
					</g>
					<g>
						<g>
							<path class="st2" d="M143.1,457.9c-2.8-31.7,18.2-78.1,55-80c7.8-0.4,13.7,0.8,12.2,9.5c-1,6-4.4,11.7-8,16.6
								c-9.6,13-21.3,20.7-33.5,31.1c-5.5,4.7-10.6,9.1-16.2,13.4c-1.9,1.5-3.3,3.1-4.8,5c-1,1.2-4.2,5.8-4,4.8L143.1,457.9z"/>
						</g>
						<g>
							<path class="st3" d="M138.6,490.9c0.2,0,0.5-0.2,0.5-0.4c0-0.3,0-0.7,0.1-1.2c0.2-3.8,0.8-15.3,5.1-30.7
								c8.2-29,22.8-45.7,45.4-64.8c0.2-0.2,0.2-0.5,0.1-0.7c-0.2-0.2-0.5-0.2-0.7-0.1c-22.7,19.2-37.4,36-45.7,65.3
								c-4.4,15.5-4.9,27.1-5.1,30.9c0,0.6,0,1-0.1,1.2C138.1,490.6,138.3,490.9,138.6,490.9C138.6,490.9,138.6,490.9,138.6,490.9z"
								/>
						</g>
					</g>
					<polygon class="st5" points="151.5,520.2 118.9,520.2 106.5,470.9 163.9,470.9 					"/>
				</g>
			</g>
			<g>
				<g>
					<g>
						<g>
							<g>
								<rect x="398.9" y="384.6" class="st6" width="18.9" height="34"/>
							</g>
							<g>
								<rect x="395.5" y="381.5" class="st7" width="25.6" height="8.8"/>
							</g>
							<g>
								<rect x="397.4" y="410.6" class="st7" width="21.9" height="62.9"/>
							</g>
						</g>
						<g>
							<g>
								<path class="st8" d="M518,499.9c0,5.3-4.3,9.6-9.6,9.6c-5.3,0-9.6-4.3-9.6-9.6c0-5.3,4.3-9.6,9.6-9.6
									C513.7,490.3,518,494.6,518,499.9z"/>
							</g>
							<g>
								<g>
									<path class="st7" d="M512.7,497.3c-0.5,0-1,0-1.5-0.2l-104.3-20.6c-4.3-0.8-7.1-5-6.2-9.3c0.8-4.3,5-7.1,9.3-6.2
										l104.3,20.6c4.3,0.8,7.1,5,6.2,9.3C519.7,494.7,516.4,497.3,512.7,497.3z"/>
								</g>
							</g>
						</g>
						<g>
							<g>
								<path class="st8" d="M295.9,501.3c0,3.9,3.2,7.1,7.1,7.1c3.9,0,7.1-3.2,7.1-7.1c0-3.9-3.2-7.1-7.1-7.1
									C299.1,494.2,295.9,497.4,295.9,501.3z"/>
							</g>
							<g>
								<g>
									<path class="st7" d="M304.6,497.3c0.5,0,1,0,1.5-0.2l104.3-20.6c4.3-0.8,7.1-5,6.2-9.3c-0.8-4.3-5-7.1-9.3-6.2l-104.3,20.6
										c-4.3,0.8-7.1,5-6.2,9.3C297.6,494.7,300.9,497.3,304.6,497.3z"/>
								</g>
							</g>
						</g>
						<g>
							<g>
								<path class="st8" d="M398.7,507.5c0,5.3,4.3,9.6,9.6,9.6c5.3,0,9.6-4.3,9.6-9.6c0-5.3-4.3-9.6-9.6-9.6
									C403,497.9,398.7,502.2,398.7,507.5z"/>
							</g>
						</g>
						<g>
							<g>
								<path class="st7" d="M408.6,503.3c4.4,0,7.9-3.5,7.9-7.9v-27.2c0-4.4-3.5-7.9-7.9-7.9c-4.4,0-7.9,3.5-7.9,7.9v27.2
									C400.8,499.8,404.3,503.3,408.6,503.3z"/>
							</g>
						</g>
					</g>
					<g>
						<g>
							<g>
								<g>
									<path class="st7" d="M462.6,378c-1.2,0-2.3-0.3-3.4-1c-2.9-1.9-3.8-5.8-2-8.7c0.2-0.2,15.6-24.6,24.3-42.5
										c3.3-6.7,3.7-12.8,1.2-16.9c-2.1-3.4-6.3-5.3-11.7-5.3h-58.3c-3.5,0-6.3-2.8-6.3-6.3c0-3.5,2.8-6.3,6.3-6.3h58.3
										c9.8,0,17.9,4.1,22.4,11.2c4.9,7.9,4.7,18.3-0.6,29.1c-9.1,18.4-24.4,42.6-25,43.6C466.8,376.9,464.7,378,462.6,378z"/>
								</g>
							</g>
							<g>
								<g>
									<path class="st6" d="M490.7,326.7c-0.1,0-0.2,0-0.3-0.1c-0.3-0.2-0.4-0.5-0.3-0.8c3.5-7.1,3.2-14.8-0.7-21
										c-3.7-5.9-10.1-9.6-16.7-9.6h-22.2c-0.3,0-0.6-0.3-0.6-0.6c0-0.3,0.3-0.6,0.6-0.6h22.2c7.1,0,13.9,3.9,17.8,10.2
										c4.1,6.6,4.4,14.8,0.7,22.3C491.2,326.6,491,326.7,490.7,326.7z"/>
								</g>
							</g>
						</g>
						<g>
							<g>
								<path class="st9" d="M514.2,382.9h-65.9c-15.3,0-26.8-4.9-34.2-14.6c-7.1-9.3-10.4-22.5-10.4-41.6V189.4
									c0-5.2,4.2-9.5,9.5-9.5c5.2,0,9.5,4.2,9.5,9.5v137.3c0,34.4,12.1,37.3,25.6,37.3h65.9c5.2,0,9.5,4.2,9.5,9.5
									C523.7,378.6,519.5,382.9,514.2,382.9z"/>
							</g>
						</g>
						<g>
							<polygon class="st10" points="408.6,376.2 322.5,376.2 302.6,350.4 302.6,179.9 408.6,179.9 							"/>
						</g>
						<g>
							<path class="st11" d="M399.2,326.7V189.4c0-5.2,4.2-9.5,9.5-9.5c5.2,0,9.5,4.2,9.5,9.5v137.3c0,34.4,12.1,37.3,25.6,37.3h-37
								C401.6,355,399.2,343,399.2,326.7z"/>
						</g>
						<g>
							<path class="st7" d="M494.1,353.9c-5.1,0-182.4,0-182.4,0s8,12.6,17.3,12.6c9.3,0,184.3,0,184.3,0S507.6,353.9,494.1,353.9z"
								/>
						</g>
						<g>
							<path class="st7" d="M423.4,363.9h68.4h18.7c5.2,0,9.5,4.2,9.5,9.5c0,5.2-4.2,9.5-9.5,9.5h-87.1c-15.3,0-15.8-17.4-16.7-18.9
								H423.4z"/>
						</g>
						<g>
							<g>
								<path class="st7" d="M431.1,382.9h-93.4c-15.3,0-26.8-4.9-34.2-14.6c-7.1-9.3-10.4-22.5-10.4-41.6V189.4
									c0-5.2,4.2-9.5,9.5-9.5c5.2,0,9.5,4.2,9.5,9.5v137.3c0,34.4,12.1,37.3,25.6,37.3h93.4c5.2,0,9.5,4.2,9.5,9.5
									C440.5,378.6,436.3,382.9,431.1,382.9z"/>
							</g>
						</g>
						<g>
							<g>
								<path class="st7" d="M410.2,246.8H321c-1,0-1.9-0.8-1.9-1.9c0-1,0.8-1.9,1.9-1.9h89.2c1,0,1.9,0.8,1.9,1.9
									C412.1,246,411.3,246.8,410.2,246.8z"/>
							</g>
						</g>
					</g>
					<g>
						<g>
							<g>
								<g>
									<g>
										<g>
											<path class="st12" d="M501.8,471.3c0,0.4-0.1,0.8-0.1,1.1c-0.1,1.4-0.2,2.7-0.3,4.1c-0.2,8.8,2.5,17.5,7.5,24.8
												c0.3,0.5,0.6,0.9,1,1.4c3.3,4.4,10.9,13,17.3,12.3c5.2-0.5,5-3.7,3.5-6.9c0,0,0,0,0,0c-0.2-0.4-0.4-0.8-0.5-1.2
												c3.5,3.9,11.9,9.5,11.9,14.6c0,4.3-9.1,5.6-13.4,5.7c-6.1,0.3-13.8-0.8-17.5-6.3c-5.5-8.2-2.7-19.1-11.8-25
												c0,8.7,0,17.4,0,26.1c0,0.1-0.1,0.2-0.1,0.2c0,0,0,0.1-0.1,0.1c0,0-0.1,0-0.1,0c-0.1,0-1.6-0.1-3.7-0.1
												c-0.2-9.1-0.3-18.3-0.5-27.4c-0.9-1.7-1.7-4.1-1.8-6.9C492.6,478.4,500.7,472.1,501.8,471.3z"/>
										</g>
									</g>
									<g>
										<g>
											<path class="st13" d="M508.9,346.5c5.3-1.6,8.9-0.8,11,0c10.3,3.8,16.5,20.3,13.2,40.7c-3.4,27-8.1,53.5-11.6,80.5
												c3.1,24.6,4.9,32.9,5.9,34.5c0.1,0.2,1.4,2.1,2.7,4.9c0.2,0.4,0.4,0.8,0.5,1.2c0,0,0,0,0,0c1.4,3.2,1.6,6.4-3.5,6.9
												c-6.4,0.7-14-8-17.3-12.3c-0.3-0.5-0.7-0.9-1-1.4c-5-7.2-7.7-16-7.5-24.8c0-1.4,0.1-2.7,0.3-4.1c0-0.4,0.1-0.8,0.1-1.1
												c0.5-4.6,1.2-9.2,1.2-13.8c-0.1-6.6-0.9-13.1-1.6-19.7c-1-9.6-3.5-19.7-4.5-29.4c0-7.2-0.1-14.5-0.1-21.7
												C500.3,373.2,505.3,360.1,508.9,346.5z"/>
										</g>
									</g>
								</g>
							</g>
							<g>
								<g>
									<path class="st13" d="M458.7,469.4c0.1-0.3,0.1-0.3,0.2-0.6c3.8-12.1,3.7-22.9,3.1-35.7c-0.7-13.3-0.8-25.8,1.3-36.2
										c3.4-16.8,9.5-18.9,10.8-33.4c0.9-9.6,0.3-17.6-0.4-22.7c13,0.2,26,0.4,39.1,0.6c-0.6,7.7-1.4,14.1-2.1,19
										c-0.9,5.7-2.4,14.4-5,24.1c-0.3,1.1-1.8,6.6-3.7,11.3c-1,2.5-1.9,5-3.1,7.4c-0.1,0.2-0.2,0.4-0.3,0.7c0,0.1,0,0.1,0,0.1
										c-7.2,14.3-14.3,37.6-14.3,37.6c-4.2,13.5-6.2,23.5-8.8,32.6c1.6,9.6,1.2,20.7,2.7,30.4c0,0.1,0.1,0.4,0.1,0.5
										c0.1,1,0.8,3.8,0.9,4.8c0.3,5-2,10.6-7.6,9.8c-6.6-0.9-12-14.7-14.2-21.9C453.9,486,457.3,474.3,458.7,469.4z"/>
								</g>
							</g>
							<g>
								<g>
									<path class="st12" d="M458.9,468.8c0,0.2-0.1,0.4-0.2,0.6c-0.2,0.6-0.4,1.2-0.6,1.8c-2.1,5.9-1.6,16,0.5,25.5
										c1.9,8.7,5.1,17.1,12.9,18.2c5.7,0.8,7.3-2.1,7-7.1c-0.1-1-0.2-2.1-0.3-3.1c0-0.1-0.5-3.1-0.5-3.2c0.2,0.8,1,2.3,1.8,4.5
										c2.2,5.7,7.9,16.7,4.1,21.4c-3.7,4.5-15.8,2.5-21.7-3.3c0,0-0.1-0.1-0.1-0.1c-0.2-0.1-0.3-0.3-0.4-0.4
										c-2.6-2.7-3.7-6.1-4.2-9.6c0,0,0,0,0-0.1c-1.3-5.8-1.7-12.6-3.3-18.2c0,9.9,0,19.8,0,29.7c0,0.2-0.2,0.2-0.3,0.2
										c0,0.1-0.1,0.1-0.2,0.1c-0.9,0-1.9,0-2.8,0c-0.2,0-0.2-0.1-0.2-0.3c0,0,0,0,0,0c0,0,0,0,0-0.1c0-11.3,0-22.7,0-34
										C444.9,484.2,452.2,473.6,458.9,468.8z"/>
								</g>
							</g>
						</g>
						<g>
							<g>
								<path class="st14" d="M495.3,457.6c0,0-23.4,9.3-37.3-2.6c-10,8.3-32.8,8-38.1-2.2c1.5-15,2.4-27.7,2.9-38.3
									c0,0.2,0,0.4,0.1,0.6c0.5-5.5,0.9-10.5,1.1-15.2c0.1-1.3,0.1-2.6,0.2-3.9c0-0.2,0-0.5,0-0.7c0.2-4.7,0.3-9,0.3-12.6
									c0-1.4,0-2.7,0-4c0-3.1-0.1-5.7-0.4-8.2l8.6-0.2l15.1-0.3l24.9-0.6l4.3-0.1l4.3,20.5l2,9.6L495.3,457.6z"/>
								<path class="st14" d="M495.3,457.6c0,0,26.5-1.3,35.9-19.4c15,3.3,37.1-11.9,38.6-25.9c-8.6-20.2-16.1-36-21.3-46.6
									c-0.9-1.9-1.9-3.8-2.8-5.7c-5.3-10.3-10.7-19.8-16.2-28.4c-18.3,13.1-35.8,25.6-52.5,37.6L495.3,457.6z"/>
							</g>
							<g>
								<path d="M457.3,433.3c-8.7,7.5-28,8.3-35.8,1.8c-0.8,5.2-0.9,11.4-1.5,17.7c5.3,10.2,28.1,10.6,38.1,2.2
									c13.9,11.9,37.3,2.6,37.3,2.6l-4.4-21.3C483.6,438.6,467.8,442.1,457.3,433.3z"/>
								<path d="M524.7,414.6c2.6,0.6,12.2,2.6,22.2-4c9-6,12.8-15.2,14-18.5c1.6,3.5,3.2,7.1,4.8,10.8c1.4,3.2,2.7,6.3,4.1,9.4
									c-1.5,14-23.6,29.2-38.6,25.9c-9.4,18.1-35.9,19.4-35.9,19.4l-4.4-21.3C498.4,435,517.6,428.6,524.7,414.6z"/>
							</g>
						</g>
						<g>
							<g>
								<path class="st14" d="M488,403.6c0,0-0.6,0.4-1.8,1.1c-0.1,0.1-0.3,0.2-0.5,0.3c-0.2,0.1-0.4,0.2-0.6,0.3
									c-0.2,0.1-0.4,0.2-0.7,0.3c-0.1,0.1-0.2,0.1-0.4,0.2c-0.3,0.2-0.7,0.3-1,0.5c-0.3,0.1-0.6,0.3-0.9,0.4
									c-0.1,0-0.1,0.1-0.2,0.1c-0.2,0.1-0.5,0.2-0.7,0.3c-0.4,0.2-0.9,0.4-1.4,0.6c-0.2,0.1-0.3,0.1-0.5,0.2
									c-0.5,0.2-1,0.4-1.6,0.6c-0.3,0.1-0.6,0.2-1,0.4c-0.5,0.2-1,0.3-1.5,0.5c-1.4,0.4-2.8,0.8-4.3,1.2c-0.2,0-0.3,0.1-0.5,0.1
									c-0.7,0.1-1.3,0.2-2,0.3c-0.4,0.1-0.7,0.1-1.1,0.1c-0.2,0-0.4,0.1-0.6,0.1c-0.3,0-0.6,0.1-0.9,0.1c-0.2,0-0.4,0-0.6,0
									c0,0-0.1,0-0.1,0c-0.2,0-0.4,0-0.5,0c-0.2,0-0.4,0-0.5,0c-0.1,0-0.3,0-0.4,0c-0.3,0-0.6,0-0.9,0c-0.2,0-0.4,0-0.6,0
									c-0.1,0-0.2,0-0.4,0c-0.1,0-0.1,0-0.2,0c-0.2,0-0.5,0-0.7-0.1c-0.3,0-0.7-0.1-1-0.1c-2.2-0.4-4.3-1-6.3-2.1
									c-0.2,0.2-0.3,0.4-0.5,0.5l-0.1,0.1c-0.1,0.1-0.2,0.2-0.3,0.3c-0.1,0.1-0.2,0.2-0.2,0.2c0,0,0,0,0,0
									c-2.9,2.9-6.5,4.8-10.3,5.9c0,0,0,0,0,0c-7.7,2.4-16.2,1.8-21.4,0.3c-2.3-0.6-4-1.5-4.7-2.3c0,0-0.1-0.1-0.1-0.1
									c1-5.5,1.8-10.5,2.5-15.2c0.2-1.3,0.4-2.6,0.5-3.9c0-0.2,0.1-0.4,0.1-0.7c0.6-4.7,1-8.9,1.3-12.6c0.1-1.4,0.2-2.7,0.3-4
									c0.2-2.4,0.2-4.6,0.2-6.6c0-0.6,0-1.1,0-1.6c0-0.3,0-0.5,0-0.7c0-1-0.1-2-0.2-3.1c0-0.1,0-0.1,0-0.2c0-0.5-0.1-0.9-0.1-1.4
									c0,0,0,0,0-0.1c-0.1-1.2-0.3-2.3-0.5-3.4c0-0.2-0.1-0.4-0.1-0.5v0c-0.3-1.5-0.5-2.9-0.9-4.3c0-0.2-0.1-0.3-0.1-0.5
									c-0.4-1.6-0.8-3-1.2-4.4c0-0.1,0-0.1-0.1-0.2c-0.6-2-1.2-3.7-1.8-5.1c8.8-2.8,17.6-5.6,26.6-8.5c3.5-1.1,7-2.2,10.6-3.4
									c0.5-0.2,1-0.3,1.5-0.5c1.8-0.6,3.5-1.1,5.3-1.7l1.3,3.3l1.8,4.5l0.7,1.8l1,2.5l2,5.2l0.3,0.8l0.1,0.3l0.9,2.2l1.1,2.7
									l7.4,18.8l4.2,10.8l0.7,1.7v0l3.5,8.9L488,403.6z"/>
								<path class="st14" d="M544.1,362.9c-3.7,7.1-12.3,13.7-20.7,16.2c-2,0.6-4,1-6,1.1c-0.3,0-0.7,0-1,0
									c-1.6,5.1-4.8,9.2-8.5,12.5c-8.6,7.7-20,10.9-20,10.9l-3.4-8.6l-3.5-8.9v0l-0.7-1.7l-4.2-10.8l-7.4-18.8l-1.1-2.7l-0.9-2.2
									l-0.1-0.3l-0.3-0.8l-2-5.2l-1-2.5l-0.7-1.8l-1.8-4.5l-1.3-3.3c0.7-0.8,13.3-15,14-15.8c0.7-0.8,12.9-14.5,13.5-15.3
									c5.5,1.1,10.2,2.7,14.1,4.5c1.4,0.6,2.7,1.3,3.9,1.9c0,0,0,0,0,0c2.3,1.2,4.3,2.5,5.9,3.6c1.5,1.1,3,2.1,4.4,3.3
									c0.7,0.5,1.3,1.1,1.9,1.7c8.4,7.5,14.2,16.5,19.7,25c2.1,3.2,3.7,6,4.8,8c0,0,0,0,0,0c0.2,0.3,0.4,0.6,0.5,1
									c1.2,2,2.3,4,3.3,6C546.1,357.7,545.4,360.4,544.1,362.9z"/>
							</g>
							<g>
								<path d="M516.4,380.2c-2.6,5.4-5.6,9.5-8.5,12.5c-18.8,20.1-48.9,16.9-54.2,16.2c-3,3.3-6.9,5.5-11.6,7.2
									c-9.9,3.5-21.8,3.5-26.2-2.1c1-5.5,1.8-10.5,2.5-15.2c9.4,2.2,25.5-1.5,31.8-9c23.1,6.8,46-7.7,57.1-26.2
									c11.3-0.1,26.8-11.8,29.9-23.4c3,4.9,6,10,8.9,14.9C547,366.8,529.5,380.3,516.4,380.2z"/>
							</g>
						</g>
						<path d="M410.3,132.1c-0.1,19.4-13.4,35.6-34.1,35.5c-20.6-0.1-37.3-16-37.2-35.4c0.1-19.4,16.9-35.1,37.6-35
							C397.2,97.3,410.4,112.7,410.3,132.1z"/>
						<g>
							<path d="M428.1,95.2c-0.1,19.8-16.4,36.8-33.8,36.7c-17.4-0.1-32.9-17-32.8-36.8c0.2-31.9,20.8-37.2,35.5-37.1
								C409.5,57.9,428.3,62.1,428.1,95.2z"/>
						</g>
						<path class="st13" d="M436.7,168c-8,6.9-16.7,15.9-24.7,22.8c-26.3-2-42.5-13.1-51.5-21.1c-0.7-0.6-2.5-1.7-3.2-2.3
							c1.9-0.5,18.9-5.7,23.7-16.5c0.8-1.8,2-5.4,2.6-9.9c0-0.3,0.1-0.7,0.1-1c0-0.1,0-0.1,0-0.2c0.3-3.2,0.2-6,0-8.2
							c0-0.3-0.1-0.5-0.1-0.8c4.9,1.6,8.6,3.2,10.8,4.1c0.4,0.2,0.8,0.3,1.2,0.4c1,0.3,1.8,0.6,2.2,0.7c0,0,0.1,0,0.1,0
							c0,0,0,0,0.1,0c0.9,0.3,1.9,0.7,3.1,0.9c0,0,0,0,0,0c1.8,0.4,3.4,0.4,4.9,0.3c1.7,0.4,3.4,0.7,4.4,0.9c0,0.3-0.1,0.6-0.1,0.8
							c-0.3,2.4-0.2,4.5,0.1,6.2c0,0,0,0,0,0c0.1,0.7,0.2,1.3,0.4,1.8C413.2,157.1,424,165.2,436.7,168z"/>
						<path class="st15" d="M410.4,145.1c-2.5,2.4-4.9,3.2-6.1,3.5c-6,1.5-11.4-1.9-14.8-4.1c-2.5-1.6-4.4-3.4-5.8-4.8
							c0.3-3.2,0.2-6,0-8.2c0-0.3-0.1-0.5-0.1-0.8c4.9,1.6,8.6,3.2,10.8,4.1c0.4,0.2,0.8,0.3,1.2,0.4c1,0.3,1.8,0.6,2.2,0.7
							c0,0,0.1,0,0.1,0c0,0,0,0,0.1,0c0.9,0.3,1.9,0.7,3.1,0.9c0,0,0,0,0,0c1.8,0.4,3.4,0.4,4.9,0.3c1.7,0.4,3.4,0.7,4.4,0.9
							c0,0.3-0.1,0.6-0.1,0.8C410,141.3,410.1,143.4,410.4,145.1z"/>
						<path class="st13" d="M401,72.3c-0.3,0-0.5,0-0.7,0c-8.2-0.2-15.5,2.2-18,3.5c-8.8,4.4-11.5,20.8-10.2,32.5
							c1.8,15.7,15.7,36.2,31.2,36.8c8.1,0.3,20.7-15.2,21.8-35.4C426.1,89.5,423.5,72.9,401,72.3z"/>
						<path d="M404.3,72.5c-2.1-0.1-7.4-0.3-12.2,1.9c-1,0.4-3.6,2-5.8,4.8c-1.1,1.5-2.2,3.4-3.8,6.2c-1.4,2.5-1.5,2.8-2.2,3.7
							c-1.7,2-3.4,2.4-4.4,5.2c-2.2,5.8,0.7,15.4,0.8,20c0,0.2,0,1.2-0.3,1.3c-0.4,0.1-1-1.2-1.4-1.1c-0.5,0.1-0.7,2.4-0.5,8.4
							c-2-4-4.9-10.8-5.9-19.6c-1-8.8-2.5-21.6,5.8-29c4.6-4.1,9.9-4.5,18.2-5c6.6-0.5,18.9-1.3,25.5,6.7c2.1,2.6,3.1,5.4,3.5,7.3
							c-0.9-1.5-2.4-3.7-4.7-5.6C412,73.4,406.6,72.6,404.3,72.5z"/>
						<g>
							<path class="st16" d="M420.6,105.4c0.3,2.5-3.7,3.3-4.5,3.7c2.8-0.2,5-0.6,5.7-2L420.6,105.4z"/>
							<path class="st17" d="M410.8,108c1-2.6,4.3-4.7,6.2-4.7c1.4,0,3.9,2.1,4.5,3.6c-1.8,1.7-4.6,2.5-5.4,2.4
								c-1.4-0.1-2.9-0.2-5-1L410.8,108z"/>
							<path class="st18" d="M419.4,106.7c-0.4,1.7-2.1,2.8-3.8,2.4c-1.7-0.4-2.8-2.1-2.5-4.2c0.1-0.8,2.3-2,4.1-1.6
								C419,103.7,419.8,105,419.4,106.7z"/>
							<path class="st16" d="M418.1,106.3c-0.3,1.1-1.2,1.8-2,1.5c-0.9-0.2-1.3-1.3-1.1-2.4c0.3-1.1,1.2-1.8,2-1.5
								C417.8,104.2,418.3,105.3,418.1,106.3z"/>
							<path class="st17" d="M418.3,105.9c-0.1,0.2-0.3,0.4-0.5,0.4c-0.2-0.1-0.3-0.3-0.2-0.5c0.1-0.2,0.3-0.4,0.5-0.4
								C418.2,105.4,418.3,105.7,418.3,105.9z"/>
							<path class="st16" d="M410.4,107.8c1-3.3,3.3-5.4,5.7-5.5c1.5-0.1,3.7,0.5,4.6,2.1c0.3,0.4,0.5,1.4,1.4,2.6
								c0.3,0.4,0.6,0.8,0.8,1c-0.2,0-0.5,0-0.9-0.1c-0.4-0.1-0.7-0.3-0.8-0.4c-0.7-0.6-0.9-1.1-1.8-1.8c-1.4-1-3.4-1.6-5-0.9
								c-0.9,0.4-2.9,1.5-3.7,3.2L410.4,107.8z"/>
							<path class="st18" d="M411.6,96.6c0.4-0.1,0.9-0.2,1.6-0.3c4.3-0.7,5.3-0.6,6-0.3c0.3,0.1,1.1,0.4,2.1,1.1
								c0.8,0.7,2.1,2.7,2.6,3.7c-1.5-1-2.4-2.3-4.1-3c-2.3-0.9-4-0.1-6.1,0.5c-0.6,0.2-1.9,0.5-2.6,0.7L411.6,96.6z"/>
						</g>
						<g>
							<path class="st16" d="M386.9,105.7c-0.4,2.5,4.4,3.3,5.2,3.6c-3.3-0.2-6.1-0.9-6.9-2.3L386.9,105.7z"/>
							<path class="st17" d="M398.5,108.2c-0.2-0.6-0.8-1.9-2.1-3c-0.3-0.3-2.3-1.9-5.2-1.6c-3.5,0.4-5.3,3.3-5.4,3.6
								c0.9,0.6,3.1,2.1,6.4,2.3C395.2,109.7,397.5,108.7,398.5,108.2z"/>
							<path class="st18" d="M388.9,107.1c0.4,1.7,2.4,2.8,4.4,2.4c2-0.4,3.4-2.2,3.1-4.2c-0.1-0.8-2.8-2-4.8-1.6
								C389.5,104,388.5,105.4,388.9,107.1z"/>
							<path class="st16" d="M391.3,106.7c0.3,1.1,1.4,1.7,2.4,1.5c1-0.2,1.6-1.3,1.4-2.4c-0.3-1.1-1.4-1.8-2.4-1.5
								C391.6,104.5,391,105.6,391.3,106.7z"/>
							<path class="st17" d="M394.4,105.7c0.1,0.2,0.3,0.4,0.5,0.3c0.2-0.1,0.4-0.3,0.3-0.5c-0.1-0.2-0.3-0.4-0.5-0.3
								C394.5,105.2,394.3,105.5,394.4,105.7z"/>
							<path class="st18" d="M398.8,96.6c-0.5-0.1-1.9-0.3-2.8-0.4c-5.5-0.9-6.7-0.8-7.7-0.5c-0.3,0.1-1.5,0.3-2.7,1.1
								c-1.1,0.7-2.9,2.6-3.6,3.7c2-0.9,3.2-2.2,5.4-2.9c2.9-0.9,5.1,0,7.8,0.7c0.8,0.2,3.2,0.7,4,0.8L398.8,96.6z"/>
						</g>
						<path class="st15" d="M409.7,123.1c-0.4,0.5-1.1,1.1-2.1,1.4c-3,1.1-6-1.3-6.2-1.4c1.2,0.1,2.4,0.1,3.7,0.1
							C406.8,123.2,408.3,123.2,409.7,123.1z"/>
						<path class="st13" d="M376.1,110.9c0.9,4,0.3,9.7-1.6,10.1c-1.9,0.5-4.5-4.5-5.3-8.5c-0.9-4,0-7.6,1.9-8.1
							C373,104,375.3,106.9,376.1,110.9z"/>
						<g>
							<path class="st17" d="M410.3,132.1c0,0.7-2.1,1.3-4.8,1.4c-3,0.1-5.6-0.5-5.6-1.3c0-0.8,2.6-1.4,5.6-1.4
								C408.2,130.8,410.3,131.4,410.3,132.1z"/>
							<path class="st14" d="M408.2,131.6c-0.5,0.1-1,0.1-1.5,0.2c-0.7,0.1-1.1,0.1-1.6,0.1c-0.4,0-0.9,0-1.5-0.1
								c-0.9-0.2-1.5-0.5-1.7-0.6c-0.7-0.4-1.9-0.7-3.9-0.7c0.2,0.6,0.8,2.5,2.6,3.7c1.7,1.2,3.4,1.1,4.4,1.1c1.1,0,2.5-0.1,3.8-1.1
								c0.9-0.7,1.5-1.8,2-3.6C409.8,131.2,408.9,131.5,408.2,131.6z"/>
							<path class="st14" d="M406,128.8c-0.7-0.3-1.5-0.5-2.7-0.4c-1,0.1-1.6,0.3-3,1c-0.8,0.4-1.9,1-3.4,1.5c1.7,0.5,3,0.5,3.9,0.4
								c1-0.1,1.9-0.3,3.6-0.3c0.4,0,0.8,0,1,0c0.3,0,0.7,0,1.1,0c1.2,0.1,1.9,0.4,2.6,0.5c0.7,0.1,1.7,0.1,3.1-0.6
								c-1.3-0.6-2-1.2-2.7-1.7c-0.7-0.4-1.2-0.8-2-0.8C407,128.5,406.3,128.7,406,128.8z"/>
						</g>
						<path class="st17" d="M370.7,132.9c0,8.2,1.2,14.9,2.8,14.9c1.6,0,2.9-6.7,2.9-14.9c0-8.2-1.2-14.9-2.8-14.9
							C372,118,370.7,124.6,370.7,132.9z"/>
						<path class="st13" d="M401.7,164.1"/>
						<path d="M410.9,191.5c-21.5-3.6-43-7.1-64.6-10.7c1.1,2.3,9.3,20,13.9,30.1c0.7,1.4,1.7,3.7,3,6.8c1.8,4.1,3.5,8,4.4,10.7
							c3.3,9.1,2.9,20.2,2.8,21.7c-0.2,3.9-1,9.4-3.1,15.6c22.3-0.2,44.6-0.3,66.9-0.5c-0.7-5.9-0.8-10.9-0.8-14.6
							c0.1-16,3.2-24.4,4.5-26.9c0,0,0,0,0,0c1.4-2.8,2.4-5.1,3.1-6.9c2.2-5.7,3.5-10.8,3.9-14.1c0.4-3.2,0.4-6.3,0.4-6.3
							c0-0.2,0-0.3,0-0.4c-0.1-10.8-5.8-21.3-5.8-21.3c-0.4-0.7-0.9-1.5-1.3-2.2C429.1,178.8,420,185.2,410.9,191.5z"/>
						<g>
							<path class="st14" d="M519.3,313.1c-0.2,0.2-0.4,0.4-0.7,0.6c-0.2,0.2-0.4,0.4-0.7,0.6c-3,2.8-6.4,5.4-9.9,7.5
								c-0.3,0.2-0.6,0.3-0.9,0.5c-0.5,0.3-1,0.6-1.5,0.9c-0.2,0.1-0.5,0.2-0.7,0.4c-0.8,0.4-1.6,0.8-2.3,1.1
								c-0.2,0.1-0.4,0.2-0.6,0.2c-0.3,0.1-0.7,0.3-1,0.4c-0.3,0.1-0.5,0.2-0.8,0.3c-0.1,0-0.1,0-0.2,0.1c-0.3,0.1-0.5,0.2-0.8,0.3
								c-0.3,0.1-0.6,0.2-0.9,0.3c-0.3,0.1-0.6,0.2-0.9,0.3c-0.3,0.1-0.6,0.2-0.9,0.2c-0.2,0.1-0.4,0.1-0.6,0.1
								c-0.6,0.2-1.3,0.3-1.9,0.4c-6.1,7.5-12.2,13.2-17.5,17.3c-2.1,1.6-4,3-5.7,4.2c-1.4,1-2.8,2-4.3,2.9c-4.5,3-9.6,6-15.2,8.2
								c-3,1.2-6.1,2.1-9.4,2.6c-2.9,0.5-5.9,0.7-9.1,0.6c-2.9-0.1-5.3-0.5-6.9-0.8c-0.8,0.8-1.8,1.7-2.9,2.5
								c-2.2,1.8-4.4,3.1-6.3,4c0-1.4-0.2-3.3-0.7-5.3c-0.5-2-1.3-4.1-2.7-5.7c-0.5-0.6-1.2-1.2-1.9-1.7c-1.1-0.8-2.5-1.2-2.7-1.2
								c-2.4-0.6-24.2-0.6-31.1-2.9c-14.5-4.8-18-37.6-15.4-59.2c1.5-12,4.9-21.5,7.5-27.4c5.5-0.1,11.1-0.2,16.7-0.3
								c16-0.2,31.8-0.3,47.3-0.1c0.5,4.1,2.6,15.6,12.3,24.8c17.1,16.2,41.4,9.3,42.6,8.9c6,1.2,11,3,15.2,4.8
								c1.5,0.7,2.9,1.4,4.2,2c0,0,0,0,0,0c2.5,1.3,4.6,2.7,6.4,3.9C516.3,310.7,517.8,311.9,519.3,313.1z"/>
						</g>
						<path class="st14" d="M465.7,209.1c-1.7,1.2-4.7,3-8.8,3.9c-6.5,1.4-11.8-0.2-14-1c-5,1.9-12.1,3.9-20.7,4.3
							c-3.8,0.2-7.3,0-10.4-0.3c-6.1,1.5-11.3,2.1-14.9,2.3c-8.1,0.5-16.4,1.1-24.6-3.3c-3.8-2-6.5-4.5-8-6.2
							c-2.3,1.7-6.8,4.3-12.8,5.1c-11.1,1.4-19.3-4.3-21.3-5.8c-0.2-2.4-0.2-6,0.5-10.2c0.7-3.9,3.5-16,14.5-24.6
							c2.4-1.8,6.3-4.4,11.9-6.1c8.7,3.5,18.3,7,28.9,10.2c8.2,2.5,16.1,4.4,23.5,6c4.6-1.6,10.1-3.9,15.9-7.4
							c4.4-2.7,8.1-5.5,11.2-8.1c5.2,1.1,8.9,3.1,11.2,4.5c13.7,8.6,16.6,24.8,17.2,28.5C465.6,205,465.7,208,465.7,209.1z"/>
						<g>
							<path d="M465.7,209.1c-1.6,1.3-5.7,4-11.6,4.6c-5.3,0.5-9.3-0.9-11.2-1.8c-1.6,1.4-3.6,2.7-6,3.8c-10.7,5-21.5,1.6-25.1,0.3
								c-2.7,1.6-12.5,7-25.6,5c-12.1-1.8-19.6-8.9-21.9-11.3c-2.2,1.5-7,4.5-13.8,5c-1.3,0.1-6.5,0.4-12.5-2
								c-3.6-1.4-6.2-3.2-7.9-4.6c-0.1-0.9-0.3-4.9,0.5-10.2c2,1.6,7.8,5.9,16.4,6.5c9.4,0.6,16.1-3.5,18.2-4.8c1.8,2,4.8,4.9,9.3,7
								c4.1,1.9,7.5,2.2,13.2,2.6c5.7,0.4,10.3,0.7,15.9-0.9c3.6-1.1,6.6-3.2,8.3-4.2c1.8,1.1,4.2,3,7.8,3.6c3,0.5,5.3,0.3,9.4,0
								c4.3-0.4,6.6-0.1,9.2-1.2c2.9-1.3,4.8-3.6,6-4.9c1.1,1,4,3.2,8.1,3.7c6.8,0.8,11.7-3.5,12.4-4.2
								C465.6,205,465.7,208,465.7,209.1z"/>
						</g>
						<path class="st16" d="M398.9,108l-0.4,0.2c-0.2-0.4-1.5-2.9-4.2-3.6c-2.3-0.6-4.5,0.3-5.5,1c-0.2,0.1-0.4,0.3-0.5,0.4
							c-0.1,0.1-0.2,0.1-0.2,0.2c-0.9,0.6-2,0.9-2.9,0.9c-0.4,0-0.7-0.1-1-0.2c-0.3-0.1-0.7-0.4-1.1-0.9c0.3,0.1,0.7,0.1,1.1,0.1
							c1.7-0.1,2.9-0.9,3.5-1.4h0c1.4-1.4,4.4-2.9,7-2.2C397.8,103.5,398.9,107.8,398.9,108z"/>
						<path class="st16" d="M388.7,105.7c-0.2,0.2-0.5,0.4-0.7,0.6c0.1-0.1,0.2-0.1,0.2-0.2C388.3,105.9,388.5,105.8,388.7,105.7z"
							/>
						<path d="M521.4,314.9c-4.6,3.9-9.3,6.1-12.8,7.4c-1.1,0.4-2.1,0.7-3,1c-0.2,0.1-0.4,0.1-0.6,0.2c0,0.1,0,0.1-0.1,0.2
							c-0.6,2-1.6,3.9-2.9,5.8c-7.5,11.1-23.5,18.4-23.5,18.4v0l-1.9-3.1l-5.5-9.1c6.3-3.4,19.7-11.8,23.1-22.6
							c2.1-0.5,6.3-1.8,10.7-4.8c1.1-0.7,2.2-1.5,3.2-2.4c0,0,0,0,0,0c2.5,1.3,4.6,2.7,6.4,3.9c1.6,1.1,3.2,2.3,4.7,3.5
							C520,313.7,520.7,314.3,521.4,314.9z"/>
						<path d="M478.7,347.7c0,0-4.5,3.5-10.8,6.8c-4.8,2.5-10.6,4.8-16.3,5.5c-2.3,0.3-4.5,0.2-6.7-0.2c-0.8,1-1.7,1.9-2.8,2.8
							c-6.5,5.6-17,9.5-25,9.9c0-1.1-0.1-2.2-0.2-3.3c0-0.1,0-0.1,0-0.2c0-0.5-0.1-1-0.2-1.5c0,0,0,0,0-0.1
							c-0.1-1.3-0.3-2.5-0.5-3.7c-0.5-2-1.3-4.1-2.7-5.7c0.5,0,1,0,1.6,0c1.6-0.1,3.3-0.3,5.1-0.6c10.2-2.1,16.4-8.6,18.4-11.1
							c4.6,0,11.5-0.6,19.2-3.5c1.6-0.6,3.2-1.3,4.6-1.9c3.6-1.7,6.6-3.6,8.8-5.3v0l5.5,9.1L478.7,347.7z"/>
					</g>
				</g>
				<g>
					<g>
						<path class="st19" d="M521.5,246.5c0,0,1.9,1.3,5.7,0.3c2.5-0.7,8.2-3.4,13.4-4.3c1.8-0.3,0.3-3.3-3.3-2.7
							c-1.8,0.3-4.9,0.4-5.7,0.4c-2.2,0.1-4.3-3.2-4.3-3.2L521.5,246.5z"/>
					</g>
					<g>
						<path class="st20" d="M518.7,246.4c2.9,0.7,5.3,1.8,9-1.2c2.6-2.1,5.1-4.4,7-6.3c2.5,0.3,5.9,0.9,6.4,1.5c0.8,1,2.9,4,4.1,5.6
							c1.2,1.7,2.9,0.8,2.4-0.4c-0.5-1.2-2.4-5.7-3.4-6.7c-1-0.9-2.8-2.1-2.8-2.1s4.4,1,5.7,1.7c1.3,0.7,5.4,4.6,6.3,5.1
							c0.9,0.6,2.7-0.6,1.7-2.3c1.6,0.8,2.8-1.4,1.7-2.5c-1-1.1-4.3-5.1-5.9-6.1c-0.9-0.6-3.6-1-4.8-1.5c-0.9-0.4-0.6-0.5-0.1-0.5
							c2.7,0.1,4.6,0.6,8,0.5c2.8-0.1,3.8-2.2,1.2-2.6c-1.2-0.2-6.5-1-10.3-1.4c-2.2-0.2-5.5,1.8-8.4,3.1
							c-4.9,2.3-12.2,5.5-13.2,5.6c-6.8,0.5-12.5,0-12.5,0l-1.2,9.7C509.5,245.7,516.6,245.9,518.7,246.4z"/>
					</g>
					<g>
						<g>
							<path class="st19" d="M543,233.5c0,0,1.5,0.4,3.2,0.8l0,0c1.7,0.5,3.4,1,4,1.4l0,0c1.1,0.8,5.1,5.5,5.1,5.5l0,0l0,0
								c0.1,0.1,0.1,0.3,0,0.4l0,0c-0.1,0.1-0.3,0.1-0.4,0l0,0c0,0-1-1.2-2.1-2.5l0,0c-1.1-1.3-2.4-2.6-2.9-3l0,0
								c-0.4-0.3-2.2-0.9-3.9-1.3l0,0c-1.7-0.5-3.2-0.8-3.2-0.8l0,0c-0.1,0-0.2-0.2-0.2-0.3l0,0c0-0.1,0.1-0.2,0.2-0.2l0,0
								C542.9,233.5,542.9,233.5,543,233.5L543,233.5z"/>
						</g>
					</g>
				</g>
				<g>
					<g>
						<path class="st15" d="M457.9,265.6c0,0,2,1.4,6,0.3c2.6-0.7,8.5-3.5,13.8-4.4c1.9-0.3,0.3-3.4-3.5-2.8
							c-1.8,0.3-5.1,0.4-5.9,0.5c-2.3,0.1-4.5-3.4-4.5-3.4L457.9,265.6z"/>
					</g>
					<g>
						<path class="st13" d="M454.9,265.5c3,0.8,5.5,1.9,9.4-1.3c2.7-2.2,5.2-4.5,7.3-6.5c2.6,0.4,6.1,0.9,6.7,1.6
							c0.8,1,3,4.1,4.2,5.8c1.2,1.7,3,0.9,2.5-0.4c-0.5-1.3-2.4-5.9-3.5-6.9c-1-1-2.9-2.2-2.9-2.2s4.5,1.1,5.9,1.8
							c1.4,0.7,5.6,4.7,6.5,5.3c0.9,0.6,2.8-0.6,1.8-2.3c1.6,0.8,2.9-1.5,1.8-2.6c-1.1-1.2-4.5-5.3-6.2-6.3c-0.9-0.6-3.7-1.1-5-1.6
							c-0.9-0.4-0.6-0.6-0.1-0.5c2.8,0.1,4.7,0.6,8.3,0.5c2.9-0.1,3.9-2.3,1.2-2.7c-1.3-0.2-6.7-1.1-10.7-1.5
							c-2.3-0.2-5.7,1.8-8.7,3.2c-5.1,2.3-12.6,5.7-13.7,5.8c-7,0.5-13,0-13,0l-1.3,10.1C445.4,264.7,452.8,264.9,454.9,265.5z"/>
					</g>
					<g>
						<g>
							<path class="st15" d="M480.1,252.1c0,0,1.6,0.4,3.3,0.8l0,0c1.7,0.5,3.6,1,4.2,1.5l0,0c1.1,0.8,5.3,5.7,5.3,5.7l0,0l0,0
								c0.1,0.1,0.1,0.3,0,0.4l0,0c-0.1,0.1-0.3,0.1-0.4,0l0,0c0,0-1-1.2-2.2-2.5l0,0c-1.2-1.3-2.5-2.7-3-3.1l0,0
								c-0.4-0.3-2.3-0.9-4-1.4l0,0c-1.7-0.5-3.3-0.8-3.3-0.8l0,0c-0.1,0-0.2-0.2-0.2-0.3l0,0c0-0.1,0.1-0.2,0.2-0.2l0,0
								C480,252.1,480.1,252.1,480.1,252.1L480.1,252.1z"/>
						</g>
					</g>
				</g>
				<g>
					<g>
						<rect x="499.7" y="263.8" class="st21" width="107.4" height="5.5"/>
					</g>
					<g>
						<rect x="459.6" y="263.8" class="st22" width="40.1" height="5.5"/>
					</g>
					<g>
						<g>
							<path class="st21" d="M515.2,194.9h21.1l-10.1,71.4H505c-3.2,0-5.4-2.6-4.9-5.8l8.5-59.9C509,197.5,512,194.9,515.2,194.9z"
								/>
						</g>
						<g>
							<path class="st23" d="M608.7,260.6c-0.5,3.2-3.4,5.8-6.6,5.8h-95.2c-3.2,0-5.4-2.6-4.9-5.8l8.5-59.9c0.5-3.2,3.4-5.8,6.6-5.8
								h95.2c3.2,0,5.4,2.6,4.9,5.8L608.7,260.6z"/>
						</g>
						<g>
							<path class="st24" d="M617.1,201.2l-8.4,59.4c-0.5,3.2-3.4,5.8-6.6,5.8h-95.2c-0.1,0-0.3,0-0.4,0
								C545.7,213,607.5,202.5,617.1,201.2z"/>
						</g>
						<g>
							<path class="st25" d="M552.4,225.6c-0.7,5.2,2.9,9.4,8,9.4c5.2,0,10-4.2,10.7-9.4c0.7-5.2-2.9-9.4-8-9.4
								C557.9,216.2,553.1,220.4,552.4,225.6z"/>
						</g>
					</g>
					<g>
						<polygon class="st21" points="459.6,265.7 501.7,265.9 499.7,263.8 459.6,263.8 						"/>
					</g>
				</g>
				<g>
					<path class="st13" d="M447.5,254.7c0.1,5.9,0,4.2,0.1,10.1c-24.2,4-52.6,5.9-83.8,2.4c-5.8-0.6-11.4-1.5-16.8-2.4
						c-3.4-17.5-6.7-35-10.1-52.6c2.3,1.1,7.3,3,13.8,2.5c5.5-0.4,9.6-2.4,11.7-3.7c1.8,10.9,3.7,21.8,5.5,32.6
						c13.6,2.3,27.7,4.5,42.2,6.5C422.8,251.9,435.3,253.4,447.5,254.7z"/>
				</g>
				<g>
					<g>
						<g>
							<path class="st7" d="M343.7,378c-1.2,0-2.3-0.3-3.4-1c-2.9-1.9-3.8-5.8-2-8.7c0.2-0.2,15.6-24.6,24.4-42.5
								c3.3-6.7,3.7-12.8,1.2-16.9c-2.1-3.4-6.3-5.3-11.7-5.3H294c-3.5,0-6.3-2.8-6.3-6.3c0-3.5,2.8-6.3,6.3-6.3h58.3
								c9.8,0,17.9,4.1,22.4,11.2c4.9,7.9,4.7,18.3-0.6,29.1c-9.1,18.4-24.4,42.6-25,43.6C347.9,376.9,345.8,378,343.7,378z"/>
						</g>
					</g>
					<g>
						<g>
							<path class="st6" d="M372.8,326.7c-0.1,0-0.2,0-0.3-0.1c-0.3-0.2-0.4-0.5-0.3-0.8c3.5-7.1,3.2-14.8-0.7-21
								c-3.7-5.9-10.1-9.6-16.8-9.6h-22.2c-0.3,0-0.6-0.3-0.6-0.6c0-0.3,0.3-0.6,0.6-0.6h22.2c7.1,0,13.9,3.9,17.8,10.2
								c4.1,6.6,4.4,14.8,0.7,22.3C373.2,326.6,373,326.7,372.8,326.7z"/>
						</g>
					</g>
				</g>
			</g>
			<g>
				<g>
					<path class="st26" d="M261.6,253.5l-75.9,0c-4.4,0-7.9,3.5-7.9,7.9l0,0c0,4.4,3.5,7.9,7.9,7.9l75.9,0
						C258.3,263.7,257.7,258.3,261.6,253.5z"/>
				</g>
				<g>
					<g>
						<path class="st17" d="M259.1,267h-73.4c-3,0-5.5-2.5-5.5-5.5c0-3.1,2.5-5.6,5.5-5.6h73.1C257.4,259.3,257.5,263,259.1,267z"/>
					</g>
				</g>
				<g>
					<path class="st27" d="M271.1,237.7l-75.9,0c-4.4,0-7.9,3.5-7.9,7.9v0c0,4.4,3.5,7.9,7.9,7.9l75.9,0
						C267.8,247.9,267.2,242.5,271.1,237.7z"/>
				</g>
				<g>
					<g>
						<path class="st17" d="M268.6,251.2h-73.4c-3,0-5.5-2.5-5.5-5.5c0-3.1,2.5-5.6,5.5-5.6h73.1C266.9,243.5,267,247.2,268.6,251.2
							z"/>
					</g>
				</g>
			</g>
			<g>
				<rect x="160.3" y="490.3" class="st28" width="524.4" height="7.6"/>
			</g>
			<g>
				<g>
					<path class="st29" d="M667.2,265.3l-25.2,0.5c-1,0-1.7,0.8-1.7,1.8c0,1,0.8,1.7,1.8,1.7l25.2-0.5c1,0,1.7-0.8,1.7-1.8
						C669,266.1,668.2,265.3,667.2,265.3z"/>
				</g>
				<g>
					<path class="st30" d="M673.1,264.8l-8.4,0.2c-0.3,0-0.6,1-0.5,2.2s0.3,2.1,0.6,2.1l8.4-0.2c0.3,0,0.6-1,0.5-2.2
						C673.7,265.8,673.4,264.8,673.1,264.8z"/>
				</g>
				<g>
					<path class="st30" d="M641.8,266l-2.4,0c-0.1,0-0.1,0.7-0.1,1.6c0,0.9,0.1,1.6,0.2,1.6l2.4,0c0.1,0,0.1-0.7,0.1-1.6
						C641.9,266.7,641.9,266,641.8,266z"/>
				</g>
				<g>
					<path class="st30" d="M640.1,266.6l-1.5,0c-0.1,0-0.1,0.5-0.1,1c0,0.6,0.1,1,0.1,1l1.5,0c0.1,0,0.1-0.5,0.1-1
						C640.3,267.1,640.2,266.6,640.1,266.6z"/>
				</g>
			</g>
		</g>
		<g>
			<rect x="160.3" y="281.4" class="st31" width="15.4" height="252.4"/>
		</g>
		<g>
			<rect x="669.3" y="281.4" class="st31" width="15.4" height="252.4"/>
		</g>
		<g>
			<g>
				<path class="st28" d="M153.4,287.1h554c4.9,0,8.9-4,8.9-8.9v0c0-4.9-4-8.9-8.9-8.9h-554c-4.9,0-8.9,4-8.9,8.9v0
					C144.6,283.1,148.5,287.1,153.4,287.1z"/>
			</g>
		</g>
		<g>
			<rect x="44.8" y="530.2" class="st2" width="771.3" height="7.1"/>
		</g>
	</g>
</g>
</svg>
