<?xml version="1.0" encoding="utf-8"?>
<!-- Generator: Adobe Illustrator 26.0.1, SVG Export Plug-In . SVG Version: 6.00 Build 0)  -->
<svg version="1.1" id="Layer_1" xmlns="http://www.w3.org/2000/svg" xmlns:xlink="http://www.w3.org/1999/xlink" x="0px" y="0px"
	 viewBox="0 0 1000 1000" style="enable-background:new 0 0 1000 1000;" xml:space="preserve">
<style type="text/css">
	.st0{clip-path:url(#SVGID_00000160907992998323923260000016915533259879294355_);}
	.st1{fill:#F2D7B9;}
	.st2{opacity:0.5;}
	.st3{fill:#F7DFC6;}
	.st4{fill:#D5B792;}
	.st5{opacity:0.5;fill:#FFFFFF;}
	.st6{fill:#3F1D0E;}
	.st7{fill:#EF997B;}
	.st8{fill:#FFAB86;}
	.st9{fill:#60351E;}
	.st10{fill:#0C0203;}
	.st11{fill:#754C24;}
	.st12{fill:#FCFCFC;}
	.st13{opacity:0.57;fill:#AF9D9A;}
	.st14{fill:url(#SVGID_00000109008960868106823840000009313772969640930699_);}
	.st15{fill:#42210B;}
	.st16{fill:#FFFFFF;}
	.st17{fill:url(#SVGID_00000050635857892693916780000006102454393901678268_);}
	.st18{fill:#CE0F0F;}
	.st19{opacity:0.5;fill:#E0F4F9;}
	.st20{fill:#57BFA3;}
	.st21{fill:#EE5D5D;}
	.st22{fill:#FFD5F1;}
	.st23{fill:#DB8FB7;}
	.st24{fill:#FF9494;}
	.st25{fill:#F8A9D4;}
	.st26{fill:#FFEFFC;}
	.st27{fill:#EDF6F7;}
	.st28{fill:#FACDCD;}
	.st29{fill:#E00E5A;}
</style>
<g>
	<g>
		<defs>
			<path id="SVGID_1_" d="M881.5,335.3c-16.2-28.9-35.2-54.4-54.9-75.9c-3.6-4-72.1-61.8-72.1-61.8c-1.9-1.5-3.8-3-5.7-4.6
				c-54.8-45.9-96.3-129.1-248.4-116.4C429.5,82.5,383.2,111.2,350,150c-10,11.6-18.8,24.3-26.8,37.7c-24.3,40.8-40.6,87.6-57,128.5
				c-21.9,54-99.9,62.5-128.1,125.1c-25.6,29.5-39,76.1-45.8,110c-4.8,24.3-6.2,42-6.2,42C78.5,763.3,231.3,893.6,389,940.7
				c35.3,10.6,70.8,16.9,104.8,18.7c16.1,0.8,31.8,0.6,47-0.7c3.1-0.3,6.2-0.6,9.3-0.9c2.1-0.2,4.3-0.5,6.5-0.8
				c1.8-0.2,3.6-0.5,5.5-0.7c1-0.1,2-0.3,3-0.4c1-0.1,1.9-0.3,2.9-0.4c51.1-7.9,108.3-25.7,160.8-53.1c0.3-0.1,0.5-0.3,0.8-0.4
				c84.7-44.4,156.8-113.8,170.6-206.4c12.2-60.7,29.1-96,29.1-186.6C932.2,448.9,881.5,335.3,881.5,335.3z"/>
		</defs>
		<clipPath id="SVGID_00000069388300417021599010000003663814802701215892_">
			<use xlink:href="#SVGID_1_"  style="overflow:visible;"/>
		</clipPath>
		<g style="clip-path:url(#SVGID_00000069388300417021599010000003663814802701215892_);">
			<rect x="-115.1" y="75.2" class="st1" width="1218.9" height="961.6"/>
			<g class="st2">
				<path class="st3" d="M-115.4,420.3c-1.4-4.6-1.2-14.2,4.3-20.7c8.8-10.3,26.7-7.2,29.7-6.6c2.3-4.1,7.9-12.8,18.6-18.6
					c17.1-9.3,34.1-4.5,37.6-3.5c0.5-1.1,4.5-10,14.5-12.6c11.9-3.1,20.8,5.6,21.2,6c1.5-3.1,13.3-25.7,40.1-31.9
					c29.4-6.8,51.3,11.7,53.4,13.6c1-1.6,13.3-20.7,37.1-21.6c23.1-0.8,36.7,16.4,37.9,18c1.1-1.2,12.5-13.1,29.6-11
					c18.6,2.3,26.7,18.9,27.2,19.9c1.4-0.9,11.7-7.4,24.3-3.5c14,4.4,18.6,17.7,19,19c1-0.4,23.6-10,42.6,4
					c13.3,9.8,15.8,24.5,16.2,27.7c4.7-7.3,13.4-11,21.5-9.1c6.9,1.6,12.5,7.1,14.5,14.1c3.6-2,9.7-4.5,16.4-3.2
					c12.3,2.4,22.3,16.6,20.2,24c-4,14.4-55.8,9.3-120.7,7.1c-32.5-1.1-90.4,0.3-206.1,3C-30.4,437.1-108.3,443.4-115.4,420.3z"/>
			</g>
			<path class="st4" d="M-140.5,914.2c-0.1-11.6,23.1-30.3,69.4-67.7c101.9-82.3,202.4-112.8,250-124.6c8.2-2,15.6-3.6,30.3-6.7
				c149.5-31.7,188.3,0,240.5-33.5c49.6-31.8,29.9-68.8,79.6-91.8c35.3-16.4,50.3,0,146,2.5c96.7,2.6,102.9-13.5,135.3,3.2
				c28.3,14.6,43.3,37.1,98.3,65.1c7.1,3.6,12,5.7,18.1,10.8c26.6,22.4,38.6,61,35.6,93.1c-7.5,78.2-105.1,112.1-95.6,133.7
				c19.8,45.1,298.7-49.2,314.6-16.4c5.6,11.6-38.9,58.3-98.2,82.9C732.7,1110.6-139.9,1044-140.5,914.2z"/>
			<g class="st2">
				<path class="st3" d="M382.1,225.8c-0.9-2.9-0.8-9.1,2.8-13.2c5.6-6.6,17-4.6,18.9-4.2c1.5-2.6,5-8.1,11.9-11.9
					c10.9-6,21.8-2.9,24-2.2c0.3-0.7,2.9-6.4,9.3-8.1c7.6-2,13.3,3.6,13.5,3.8c1-2,8.5-16.4,25.6-20.4c18.7-4.4,32.7,7.5,34.1,8.7
					c0.6-1,8.5-13.2,23.6-13.8c14.7-0.5,23.4,10.5,24.2,11.5c0.7-0.8,8-8.3,18.9-7c11.9,1.5,17,12,17.3,12.7
					c0.9-0.6,7.5-4.7,15.5-2.2c9,2.8,11.8,11.3,12.1,12.1c0.6-0.3,15.1-6.4,27.1,2.5c8.5,6.2,10.1,15.6,10.4,17.6
					c3-4.7,8.5-7,13.7-5.8c4.4,1,8,4.5,9.3,9c2.3-1.3,6.2-2.9,10.5-2c7.8,1.5,14.2,10.6,12.9,15.3c-2.6,9.2-35.6,6-77,4.6
					c-20.7-0.7-57.6,0.2-131.4,1.9C436.2,236.6,386.5,240.6,382.1,225.8z"/>
			</g>
			<g class="st2">
				<path class="st3" d="M770.3,402.7c-0.5-1.6-0.4-5.1,1.5-7.4c3.1-3.7,9.5-2.6,10.6-2.4c0.8-1.5,2.8-4.5,6.6-6.6
					c6.1-3.3,12.2-1.6,13.4-1.2c0.2-0.4,1.6-3.6,5.2-4.5c4.2-1.1,7.4,2,7.5,2.1c0.6-1.1,4.7-9.1,14.3-11.4c10.5-2.4,18.3,4.2,19,4.8
					c0.3-0.6,4.7-7.4,13.2-7.7c8.2-0.3,13.1,5.8,13.5,6.4c0.4-0.4,4.4-4.6,10.5-3.9c6.6,0.8,9.5,6.7,9.7,7.1
					c0.5-0.3,4.2-2.6,8.7-1.2c5,1.5,6.6,6.3,6.8,6.8c0.3-0.2,8.4-3.6,15.2,1.4c4.7,3.5,5.6,8.7,5.8,9.8c1.7-2.6,4.8-3.9,7.7-3.2
					c2.5,0.6,4.4,2.5,5.2,5c1.3-0.7,3.4-1.6,5.9-1.1c4.4,0.9,7.9,5.9,7.2,8.6c-1.4,5.1-19.9,3.3-43,2.5c-11.6-0.4-32.2,0.1-73.4,1.1
					C800.5,408.7,772.8,410.9,770.3,402.7z"/>
			</g>
			<g>
				<path class="st4" d="M668.5,452c0-0.5-0.4-0.9-0.9-0.9c-0.5,0-0.9,0.4-0.9,0.9s0.4,0.9,0.9,0.9
					C668.1,452.9,668.5,452.5,668.5,452z"/>
				<path class="st4" d="M810.7,595.7l-9.1-37.3h0c-0.2-1.1-2.7-2.2-6.7-3v-10.9c0,0,0,0,0,0v-8.2h0v-2h0V531c0-1.5-1.3-2.8-2.8-2.8
					c-1.5,0-2.8,1.3-2.8,2.8v1h-3.6v-1c0-0.4-0.1-0.9-0.3-1.2l0,0l-1.7-19.6l-0.1-1.3l1.1,0l0,0l1.4,0l0.4,0l0,0h0
					c0.9,0,1.6-0.4,2.1-1.1c0.5-0.7,0.8-1.6,0.7-2.5c0-0.6-0.2-1.3-0.5-1.9c-4.3-8-8.2-16.4-12.9-24.3l-0.7-1.3
					c-0.1-0.2-0.3-0.5-0.4-0.6c-0.1-0.1-0.1-0.2-0.2-0.3c0,0,0,0.1,0,0.1c-0.4-0.4-0.8-0.7-1.2-0.8v-7.6h15.5l-4.9-5.5l4.9-5.5
					h-16.4h-1.1v11h0.1v7.9c-0.4,0.3-0.7,0.6-1,1.2l-7.1,13.9c-0.6-0.1-1.2-0.1-1.8-0.1H759c-4.1,0-7.7,1.9-10.1,4.8v-5.9v-8.2h0v-2
					h0v-3.3c0-1.5-1.3-2.8-2.8-2.8s-2.8,1.3-2.8,2.8v1h-3.6v-1c0-0.5-0.1-0.9-0.3-1.2l-1.7-19.6l-0.1-1.3l2.9,0.1l0,0l0,0
					c0.6,0,1.1-0.2,1.5-0.5c0.2-0.2,0.4-0.4,0.6-0.6c0.3-0.4,0.6-1,0.7-1.6c0.2-0.9,0.1-1.9-0.4-2.8c-4.3-8-8.2-16.4-12.9-24.3
					l-0.7-1.3c-0.1-0.2-0.3-0.5-0.4-0.6c-0.1-0.1-0.1-0.2-0.2-0.3c0,0,0,0.1,0,0.1c-0.4-0.4-0.8-0.7-1.2-0.8v-7.6h15.5l-4.9-5.5
					l4.9-5.5h-16.4h-1.1v11h0.1v7.9c-0.4,0.3-0.7,0.6-1,1.2l-12.8,25c-1.2,2.3,0.2,5.5,2.5,5.5l2.8,0.1l-0.1,1.3l-1.9,22.3h-2.6v-1
					c0-1.5-1.3-2.8-2.8-2.8c-1.5,0-2.8,1.3-2.8,2.8v1v2.3v2h0v8.9v1.5c-3.2,1.4-5.7,3.9-7,7.2h-2.8v-9.5h-0.1v-2.9h0.1v-4.7
					c0-2.2-1.8-4-4-4s-4,1.8-4,4v1.4h-5.1v-1.4c0-0.7-0.2-1.3-0.5-1.9l0,0l-2.4-28.2l-0.1-1.5l0-0.3l1.6,0c0,0,0,0,0,0l2.5,0.1
					c1.2,0,2.3-0.6,3-1.5c0.5-0.6,0.8-1.4,1-2.3c0.1-0.4,0.1-0.9,0.1-1.3c0-0.9-0.3-1.8-0.7-2.7c-6.3-11.9-12.1-24.3-19-35.8
					l-0.6-1.1c-0.2-0.3-0.4-0.6-0.6-0.9c-0.1-0.2-0.2-0.3-0.3-0.5c0,0,0,0.1,0.1,0.2c-0.5-0.6-1.2-1-1.8-1.1v-10.9h22.4l-7.1-8
					l7.1-8h-23.7h-1.7v15.9h0.1v11.4c-0.6,0.4-1.1,0.9-1.4,1.7L643,442c-1.7,3.4,0.3,7.9,3.6,8l4,0.1v0l-0.2,1.9l-2.8,32.1l0,0h-3.7
					v-1.4c0-2.2-1.8-4-4-4c-2.2,0-4,1.8-4,4v1.4h0v6.2h0v9.5h-3.7c-1.5-3.7-4.7-6.6-8.6-7.7v-1.7v-8.2h0v-2h0v-3.3
					c0-1.5-1.3-2.8-2.8-2.8s-2.8,1.3-2.8,2.8v1h-3.6v-1c0-0.5-0.1-0.9-0.3-1.2l-1.7-19.6l-0.1-1.3l2.9,0.1c2.3,0,3.6-3,2.3-5.4
					c-4.3-8-8.2-16.4-12.9-24.3l-0.7-1.3c-0.1-0.2-0.3-0.5-0.4-0.6c-0.1-0.1-0.1-0.2-0.2-0.3c0,0,0,0.1,0,0.1
					c-0.4-0.4-0.8-0.7-1.2-0.8v-7.6h15.5l-4.9-5.5l4.9-5.5h-16.4H600v11h0.1v7.9c-0.4,0.3-0.7,0.6-1,1.2l-12.8,25
					c-1.2,2.3,0.2,5.5,2.5,5.5l2.8,0.1l-0.1,1.3l-1.9,22.3h-2.6v-1c0-1.5-1.3-2.8-2.8-2.8c-1.5,0-2.8,1.3-2.8,2.8v1v2.3v2h0v8.9v3.6
					c-2.3-2-5.3-3.2-8.6-3.2h-2.5c-1.2,0-2.4,0.2-3.5,0.5c-2.2-4.3-4.5-8.7-7-12.8l-0.7-1.3c-0.1-0.2-0.3-0.5-0.4-0.6
					c-0.1-0.1-0.1-0.2-0.2-0.3c0,0,0,0.1,0,0.1c-0.4-0.4-0.8-0.7-1.2-0.8v-7.6h15.5l-4.9-5.5l4.9-5.5h-16.4h-1.1v11h0.1v7.9
					c-0.4,0.3-0.7,0.6-1,1.2l-12.8,25c-1.2,2.3,0.2,5.5,2.5,5.5l2.8,0.1l0,0.4l-0.1,1l-1.9,22.2l0,0h-2.6v-1c0-1.5-1.3-2.8-2.8-2.8
					s-2.8,1.3-2.8,2.8v3.3h0v2h0v19.6c-2.8,0.7-4.6,1.6-4.7,2.5h0l-9.1,37.3h71.9l0,0h0.2h55.7v-0.8v-34.1h0c0-0.1,0-0.1,0-0.2
					c0-9.6,7.8-17.5,17.5-17.5c1.7,0,3.3,0.3,4.9,0.7c7.3,2.1,12.6,8.8,12.6,16.8v34.3v0.8h53.3l0,0H810.7z M651.5,501.1
					C651.5,501.1,651.6,501.1,651.5,501.1c0-0.2,0.1-0.3,0.2-0.5c0.1-0.3,0.2-0.6,0.4-0.9c0.1-0.4,0.3-0.7,0.5-1
					c0.5-0.9,1.1-1.8,1.8-2.5c0.2-0.2,0.4-0.4,0.6-0.6l0.2-0.2c0.2-0.2,0.4-0.4,0.6-0.6c0.2-0.2,0.5-0.4,0.7-0.6
					c0.3-0.3,0.6-0.5,0.9-0.7c0.1,0,0.1-0.1,0.2-0.1c0.3-0.2,0.6-0.3,0.9-0.5h0c1.5-0.8,3.2-1.3,4.9-1.6c0.1,0,0.2,0,0.3,0
					c0.6-0.1,1.1-0.1,1.7-0.1c0.9,0,1.8,0.1,2.6,0.2c0.7,0.1,1.5,0.3,2.2,0.6c0,0,0.1,0,0.1,0c0.7,0.3,1.4,0.6,2.1,0.9h0
					c0,0,0,0,0,0c0.3,0.1,0.6,0.3,0.9,0.5c0.1,0.1,0.2,0.1,0.3,0.2c0.2,0.1,0.4,0.3,0.6,0.4c0.1,0.1,0.3,0.2,0.4,0.3
					c0.2,0.1,0.4,0.3,0.6,0.5c0.1,0.1,0.1,0.1,0.2,0.2c0.3,0.2,0.5,0.5,0.7,0.7c0,0,0,0,0,0c0.3,0.3,0.5,0.6,0.8,0.9
					c0.3,0.3,0.5,0.6,0.7,1c0.3,0.3,0.5,0.7,0.6,1c0.2,0.4,0.4,0.7,0.5,1.1c0,0,0,0,0,0h0c0.3,0.7,0.6,1.4,0.8,2.2c0,0,0,0,0,0
					c0.1,0.5,0.2,1,0.3,1.6c0,0.1,0,0.2,0,0.2c0,0.1,0,0.2,0,0.3c0.1,0.6,0.1,1.2,0.1,1.8c0,0,0,0,0,0.1v2.5v0.7v2.1v10.2h-5l0-2.2
					c0-1.7-1.7-3.1-3.8-3.1h-8.6c-2.1,0-3.8,1.4-3.8,3.1l0,2.2h-8.3v-12.7c0,0,0,0,0,0v-0.2v-2.3h0c0-0.1,0-0.1,0-0.1
					c0-0.4,0-0.9,0.1-1.3c0-0.4,0.1-0.7,0.1-1.1c0-0.2,0.1-0.4,0.1-0.6c0.1-0.3,0.1-0.6,0.3-1C651.3,501.7,651.4,501.4,651.5,501.1z
					 M664.2,457.5c0.4,0,0.9,0,1.3,0c1.3,0,2.5-0.1,3.6-0.2c2.3,1.3,3.8,3.7,3.8,6.4v7.9h-14.8v-7.9c0-2.8,1.5-5.2,3.8-6.4
					C662.6,457.4,663.4,457.5,664.2,457.5z M778.3,517.9v5.5h-3.6h-1H768v-5.4c0,0,0,0,0,0c0-1.1,0.3-2.1,0.9-2.9h0
					c0.4-0.7,1-1.2,1.7-1.6c0.3-0.2,0.7-0.3,1-0.4c0.5-0.1,0.9-0.2,1.4-0.2c0.1,0,0.2,0,0.3,0c0.1,0,0.1,0,0.2,0c0.1,0,0.3,0,0.4,0
					c0.2,0,0.3,0.1,0.5,0.1c0.1,0,0.1,0,0.2,0c0.3,0.1,0.6,0.2,0.9,0.4c0,0,0,0,0,0C777.2,514.3,778.3,515.9,778.3,517.9z
					 M557,512.8c0.3,0,0.6,0,0.9,0.1c0.1,0,0.3,0.1,0.5,0.1c0.3,0,0.5,0.1,0.7,0.3c0.1,0,0.3,0.1,0.4,0.2c0.7,0.4,1.3,0.9,1.7,1.6
					c0.6,0.8,0.9,1.8,0.9,2.9v5.5h-3H557H552v-5.5c0,0,0,0,0,0c0-1.9,1-3.6,2.6-4.5C555.3,513,556.1,512.8,557,512.8z M783.4,547.1
					v1.7v9.3h-8.7h-1h-10.8v-3.8v-5.3c0,0,0,0,0,0v-0.1v-1.7c0-2,0.6-3.9,1.6-5.5h0h0.2l0-0.1l0-0.1c0,0,0,0,0,0l0,0
					c0.9-1.4,2.2-2.5,3.7-3.3h0c1.4-0.8,3.1-1.2,4.8-1.2c0.2,0,0.4,0,0.5,0v0.5c0,0,0,0,0,0v0c0.3-0.1,0.7-0.2,1-0.3
					c0.1,0,0.2,0,0.3-0.1c1.1,0.2,2.1,0.5,3,1h0C781.2,539.7,783.4,543.2,783.4,547.1z M552.2,538c1.4-0.8,3.1-1.2,4.8-1.2
					c0.6,0,1.2,0,1.8,0.1c0.1,0,0.2,0,0.3,0.1c1,0.2,1.9,0.5,2.7,1h0c3.3,1.7,5.4,5.1,5.4,9.1v1.7v9.3h-8.2H557h-10.3v-3.8v-5.3
					c0,0,0,0,0,0v-0.1v-1.7C546.8,543.2,549,539.8,552.2,538L552.2,538z"/>
			</g>
		</g>
	</g>
	<g>
		<path class="st5" d="M807,835.3c-8.4,1.7-16.5,3.3-24.3,4.8c-4.9,0.9-9.7,1.8-14.4,2.6c-6.8,1.2-13.3,2.3-19.6,3.3
			c-5.9,1-11.6,1.9-17.1,2.7c-14.1,2.1-26.6,3.8-37.3,5.1c-150.6,18.3-272.6,7.9-358.9,0c-43.3-3.9-78.8-8.5-102.5-11.8
			c3-24.2,9-61,21.9-104.2c27.8-93.7,68.1-150.9,97.5-201.7c32.5-56.2,73.2-141.8,100.9-262.8c42-1.8,84-3.5,126.1-5.3
			c4,91.1,28.1,154.1,47.9,193.3c54.5,108.1,130,142.8,164.7,258C806.5,767.7,807.8,809.8,807,835.3z"/>
		<g>
			<g>
				<path class="st5" d="M549.7,162.4c-0.2-0.6-0.5-1.2-0.9-1.7c-7-24-12.2-41.1-33.2-41.1c-21,0-26.2,17.1-33.2,41
					c-0.4,0.5-0.7,1.1-0.9,1.7c-14.4,44.3-33.4,134.7-48.8,214.7h165.9C583.1,297.1,564.2,206.8,549.7,162.4z"/>
			</g>
			
				<ellipse transform="matrix(0.9214 -0.3887 0.3887 0.9214 -42.7639 217.099)" class="st6" cx="515.2" cy="214.2" rx="44.8" ry="44.8"/>
			<path class="st6" d="M480.3,149.5c-2.2,4.3-5.3,11.8-6,21.6c-1.6,20.3,8.1,35,10.5,38.4c19.3,0,38.6,0,57.8,0
				c1.6-1.7,13.7-15.3,12.3-35.6c-0.8-12-5.9-20.3-8.1-23.5C524.6,150,502.4,149.7,480.3,149.5z"/>
			<g>
				<g>
					<g>
						<g>
							<path class="st7" d="M529,206.5c0-0.1,0-0.2-0.1-0.2c-0.1-0.1-0.2-0.2-0.4-0.2h-26.4c-0.1,0-0.1,0-0.2,0
								c-0.2,0.1-0.3,0.2-0.3,0.4c0,1.1,0,4.4,0,8.5c0,0.7,0,1.4,0,2.1c0,0.7,0,1.5,0,2.2c-0.1,3.3-0.2,6.9-0.4,10
								c0,0.7-0.1,1.4-0.1,2c0,0.5-0.1,1-0.1,1.5c3.2,1,7.5,2,12.7,2.2c6.8,0.2,12.4-1,16-2.2C529.6,228.6,529,206.8,529,206.5z"/>
							<path class="st8" d="M579.6,257c-3-2.4-6.5-4.1-10.1-5.3l-3.8-1.2l-31.4-9.5c-1.2-0.4-2.2-1.1-2.9-2.1
								c-0.7-1-1.2-2.2-1.4-3.4c-0.1-0.8-0.3-1.7-0.4-2.8c-3.7,1-8.8,2-14.9,1.9c-5.6-0.1-10.3-1-13.8-1.9c0,0.8-0.2,1.7-0.3,2.8
								c-0.4,2.5-1.8,4.8-4.3,5.5l-35.2,10.7c-3.2,1-6.2,2.4-8.8,4.3c-13.9,10.2-7.8,27-8.4,30.1c0,0.3,71.5,47.3,71.5,47.3
								l70.5-46.8c0.3,0,0-0.2,0-0.5C585.3,283.2,592.5,267.3,579.6,257z"/>
							<g>
								<path class="st8" d="M550.9,154.8c0,0.3,0,0.6,0,0.9c0,1,0.1,2,0.1,3c0,0.6,0,1.2,0,1.8c0,3.7-0.3,6.3-0.4,6.8
									c0,0,0,0.1,0,0.1c0,0-0.1,10.2-2.4,25.4c-0.5,3.5-1.3,6.6-2.5,9.3c-0.8,2-1.8,3.8-2.9,5.5c0,0,0,0,0,0
									c-3.9,5.9-9.5,10.2-16.3,15c-11.3,8-22.5,1.1-22.5,1.1l-9.6-6.6c0,0-1.1-1-2.7-2.6c-0.9-1-1.9-2.1-2.9-3.5
									c-0.2-0.3-0.4-0.6-0.6-0.9c-0.4-0.6-0.9-1.2-1.3-1.9c-1.3-2-2.3-4.2-2.9-6.4c-2.1-8.1-5.8-28.9-5.8-28.9
									c-0.2-2.9-0.3-5.5-0.3-8c0-1.2,0-2.4,0-3.5c0.3-25.8,8.4-31.5,14.2-37.6c0.2-0.2,0.4-0.4,0.6-0.6
									c6.6-7.2,28.6-10.3,45.1,0.6c1.8,1.2,3.3,2.6,4.6,4.1c0.3,0.4,0.7,0.8,1,1.2c0.6,0.9,1.2,1.8,1.8,2.8c0,0,0,0.1,0.1,0.1
									C549.2,138.9,550.5,147.7,550.9,154.8z"/>
								<g>
									<path class="st8" d="M486.3,178.8c0,6-0.4,15.4-4.4,15.4c-4,0-10.2-9.3-10.2-15.4s3.3-10.9,7.3-10.9
										C483,167.9,486.3,172.7,486.3,178.8z"/>
								</g>
								<g>
									<path class="st8" d="M542.7,178.8c0,6,0.4,15.4,4.4,15.4c4,0,10.2-9.3,10.2-15.4s-3.3-10.9-7.3-10.9
										S542.7,172.7,542.7,178.8z"/>
								</g>
								<g>
									<path class="st9" d="M484,174.1l-1.4-1.1c0,0,3.8,0.2,6.6-1.1c2.8-1.3,7-3.2,10.6-1.3c3.6,1.9,4,2.7,4,2.7L494,177
										L484,174.1z"/>
									<path d="M488.1,175.4c0,0-1.4,1.7-4.8-1.8c0,0,3.6,0.5,8.2-1.9s9-1.1,11.9,1.2C506.4,175.2,488.1,175.4,488.1,175.4z"/>
									<g>
										<g>
											<path class="st10" d="M505.8,175.8c0.5,0.6,1.1,1.2,1.6,1.8c0,0-0.5-0.3-2.1,0.7c-1.6,1-3.5,2.2-5.6,2.5
												c-2.1,0.3-5,0.5-7.7-0.8c-2.7-1.3-4.2-4.4-4.2-4.4l13.2-1.9C502.7,174.3,504.2,175.1,505.8,175.8z"/>
											<path d="M500.2,180.7c-0.1,0-0.3,0.1-0.4,0.1c-2.2,0.3-5,0.5-7.7-0.8c-2.7-1.3-4.2-4.4-4.2-4.4l-0.1-0.1l13.3-2l1.1,0.5
												l3.7,1.7l2.1,2.2l-0.5-0.3c0,0-0.5-0.2-2,0.7l-0.3,0.2C503.6,179.4,502,180.3,500.2,180.7z M488,175.6
												c0.3,0.6,1.7,3.1,4.1,4.2c2.6,1.3,5.5,1.1,7.6,0.7c1.9-0.3,3.7-1.3,5.3-2.3l0.3-0.2c1-0.6,1.6-0.7,1.9-0.7l-1.4-1.6
												l-4.7-2.1L488,175.6z"/>
										</g>
										<path class="st11" d="M504.9,178.2c0,0-9.3,8.5-18.5-2.4l1.5-1l4.3-1.5L504.9,178.2z"/>
										<path class="st12" d="M507.1,177.4c-0.4-0.1-0.9,0.1-1.4,0.4c-1.8,1-4.5,3.4-9.7,2.9c-4-0.3-5.9-2.1-6.9-3.5
											c-0.6-1-0.8-1.8-0.8-1.8l0.8-0.5c1.3-1.5,2.9-2.4,4.6-2.8c2.5-0.7,5.1-0.4,7,0.1c0.6,0.1,1.1,0.4,1.6,0.7
											C504.9,174.5,507.1,177.4,507.1,177.4z"/>
										<path class="st13" d="M507.1,177.4c-0.4-0.1-0.9,0.1-1.4,0.4c-0.5-0.5-1.5-1.2-2.8-1.8c-0.5-0.2-1-0.4-1.6-0.6
											c0,0-0.1,0-0.1,0c-0.1,0-0.2,0-0.3-0.1c-2.3-0.6-5.3-0.7-8.8,0.7l0,0c-1.2,0.5-2.1,0.9-3,1.2c-0.6-1-0.8-1.8-0.8-1.8
											l0.8-0.5c1.3-1.5,2.9-2.4,4.6-2.8c2.5-0.7,5.1-0.4,7,0.1c0.6,0.1,1.1,0.4,1.6,0.7C504.9,174.5,507.1,177.4,507.1,177.4z"
											/>
										
											<linearGradient id="SVGID_00000067237034579360548650000015177172143132514706_" gradientUnits="userSpaceOnUse" x1="252.7263" y1="718.2985" x2="254.1129" y2="713.9307" gradientTransform="matrix(0.9798 -0.2002 0.2002 0.9798 105.6971 -473.2854)">
											<stop  offset="0" style="stop-color:#8C6239"/>
											<stop  offset="1" style="stop-color:#603813"/>
										</linearGradient>
										<path style="fill:url(#SVGID_00000067237034579360548650000015177172143132514706_);" d="M502.9,174.5
											c0.1,0.5,0.1,1,0.1,1.5c0,0,0,0,0,0c-0.3,2.1-2,4-4.4,4.5c-3,0.6-5.8-1.1-6.4-3.9c0-0.2-0.1-0.4-0.1-0.6l0,0
											c-0.1-1.5,0.5-2.9,1.5-3.9c2.5-0.7,5.1-0.4,7,0.1c0.6,0.1,1.1,0.4,1.6,0.7C502.6,173.4,502.8,173.9,502.9,174.5z"/>
										<path class="st15" d="M502.9,174.5c0.1,0.5,0.1,1,0.1,1.5c-0.4-0.2-1-0.4-1.6-0.6c0,0-0.1,0-0.1,0c-0.1,0-0.2,0-0.3-0.1
											c-2-0.5-5-0.6-8.8,0.7l0,0c-0.1-1.5,0.5-2.9,1.5-3.9c2.5-0.7,5.1-0.4,7,0.1c0.6,0.1,1.1,0.4,1.6,0.7
											C502.6,173.4,502.8,173.9,502.9,174.5z"/>
										<g>
											<circle cx="497.4" cy="176" r="1.5"/>
											<path d="M497.7,177.6c-0.9,0.2-1.7-0.4-1.9-1.3c-0.2-0.9,0.4-1.7,1.3-1.9c0.9-0.2,1.7,0.4,1.9,1.3
												C499.1,176.6,498.6,177.4,497.7,177.6z M497.1,174.6c-0.8,0.2-1.3,0.9-1.1,1.7c0.2,0.8,0.9,1.3,1.7,1.1
												c0.8-0.2,1.3-0.9,1.1-1.7C498.6,175,497.9,174.5,497.1,174.6z"/>
										</g>
										<g>
											<path class="st10" d="M506.7,176.8c0,0-5.7-6.9-13-4c-0.8,0.3-5,3.9-7.5,2.9c-0.6-0.2-1.2-1.2-1.2-1.2s1.7,0.7,4.8-1
												c3.1-1.7,5.9-5,13.2-0.8C504.3,173.4,506.7,176.8,506.7,176.8z"/>
											<path d="M506.6,176.8c-0.1-0.1-5.7-6.8-12.9-4c-0.2,0.1-0.6,0.3-1,0.6c-1.6,1.1-4.6,3.1-6.6,2.3
												c-0.6-0.2-1.3-1.2-1.3-1.2l-0.2-0.3l0.3,0.1c0,0,1.7,0.7,4.7-1c0.4-0.2,0.9-0.5,1.3-0.8c2.7-1.7,5.7-3.6,12,0
												c1.3,0.8,3.6,4,3.7,4.1L506.6,176.8z M495.3,172.2c4.8-1,8.7,1.9,10.4,3.5c-0.8-1-2-2.5-2.8-3c-6.2-3.5-9.2-1.6-11.8,0
												c-0.5,0.3-0.9,0.6-1.3,0.8c-2.4,1.4-4,1.2-4.6,1.1c0.2,0.3,0.7,0.8,1,1c1.9,0.7,4.8-1.2,6.4-2.3c0.5-0.3,0.9-0.6,1.1-0.6
												C494.2,172.5,494.8,172.3,495.3,172.2z"/>
										</g>
										<path d="M489.4,174.6c-0.3-0.1-0.5-0.1-0.7-0.3c-0.2-0.1-0.4-0.2-0.6-0.4c-0.3-0.3-0.6-0.6-0.9-1
											c-0.3-0.3-0.5-0.7-0.7-1.1l-0.3-0.6l-0.3-0.6l0.3,0.6l0.3,0.6c0.2,0.4,0.5,0.7,0.8,1c0.3,0.3,0.6,0.6,0.9,0.9
											c0.3,0.2,0.7,0.4,1.1,0.5L489.4,174.6z"/>
										<path d="M489.2,175.1c-0.3-0.1-0.5-0.1-0.7-0.3c-0.2-0.1-0.4-0.2-0.6-0.4c-0.3-0.3-0.6-0.6-0.9-1
											c-0.3-0.3-0.5-0.7-0.7-1.1l-0.3-0.6l-0.3-0.6l0.3,0.6l0.3,0.6c0.2,0.4,0.5,0.7,0.8,1c0.3,0.3,0.6,0.6,0.9,0.9
											c0.3,0.2,0.7,0.4,1.1,0.5L489.2,175.1z"/>
										<path d="M491.7,173.7c-0.3-0.1-0.5-0.1-0.7-0.3c-0.2-0.1-0.4-0.2-0.6-0.4c-0.3-0.3-0.6-0.6-0.9-1
											c-0.3-0.3-0.5-0.7-0.7-1.1l-0.3-0.6l-0.3-0.6l0.3,0.6l0.3,0.6c0.2,0.4,0.5,0.7,0.8,1c0.3,0.3,0.6,0.6,0.9,0.9
											c0.3,0.2,0.7,0.4,1.1,0.5L491.7,173.7z"/>
										<path d="M490.7,174.2c-0.3-0.1-0.5-0.1-0.7-0.3c-0.2-0.1-0.4-0.2-0.6-0.4c-0.3-0.3-0.6-0.6-0.9-1
											c-0.3-0.3-0.5-0.7-0.7-1.1l-0.3-0.6l-0.3-0.6l0.3,0.6l0.3,0.6c0.2,0.4,0.5,0.7,0.8,1c0.3,0.3,0.6,0.6,0.9,0.9
											c0.3,0.2,0.7,0.4,1.1,0.5L490.7,174.2z"/>
										<path d="M492.3,173.3c-0.3-0.1-0.5-0.1-0.7-0.3c-0.2-0.1-0.4-0.2-0.6-0.4c-0.3-0.3-0.6-0.6-0.9-1
											c-0.3-0.3-0.5-0.7-0.7-1.1l-0.3-0.6l-0.3-0.6l0.3,0.6l0.3,0.6c0.2,0.4,0.5,0.7,0.8,1c0.3,0.3,0.6,0.6,0.9,0.9
											c0.3,0.2,0.7,0.4,1.1,0.5L492.3,173.3z"/>
										<path d="M493.9,172.5c-0.3,0-0.5,0-0.7-0.1c-0.2-0.1-0.4-0.2-0.6-0.3c-0.4-0.2-0.8-0.5-1.1-0.7c-0.3-0.3-0.6-0.6-0.9-0.9
											l-0.4-0.5l-0.4-0.5l0.4,0.5l0.4,0.5c0.3,0.3,0.6,0.6,1,0.8c0.3,0.3,0.7,0.5,1.1,0.6c0.4,0.2,0.8,0.3,1.2,0.2L493.9,172.5z
											"/>
										<path d="M492.8,172.9c-0.3,0-0.5,0-0.7-0.1c-0.2-0.1-0.4-0.2-0.6-0.3c-0.4-0.2-0.8-0.5-1.1-0.7c-0.3-0.3-0.6-0.6-0.9-0.9
											l-0.4-0.5l-0.4-0.5l0.4,0.5l0.4,0.5c0.3,0.3,0.6,0.6,1,0.8c0.3,0.3,0.7,0.5,1.1,0.6c0.4,0.2,0.8,0.3,1.2,0.2L492.8,172.9z
											"/>
										<path d="M491.4,173.4c-0.3,0-0.5,0-0.7-0.1c-0.2-0.1-0.4-0.2-0.6-0.3c-0.4-0.2-0.8-0.5-1.1-0.7c-0.3-0.3-0.6-0.6-0.9-0.9
											l-0.4-0.5l-0.4-0.5l0.4,0.5l0.4,0.5c0.3,0.3,0.6,0.6,1,0.8c0.3,0.3,0.7,0.5,1.1,0.6c0.4,0.2,0.8,0.3,1.2,0.2L491.4,173.4z
											"/>
										<path d="M495,172.2c-0.4-0.1-0.8-0.3-1.1-0.5c-0.3-0.2-0.6-0.5-0.8-0.8c-0.3-0.3-0.5-0.6-0.7-0.9l-0.3-0.5l-0.2-0.5
											l0.3,0.5l0.3,0.5c0.2,0.3,0.4,0.6,0.7,0.9c0.3,0.3,0.5,0.5,0.9,0.7c0.3,0.2,0.7,0.3,1,0.4L495,172.2z"/>
										<path d="M490.3,174c-0.3,0.1-0.5,0-0.7,0c-0.2,0-0.4-0.1-0.7-0.1c-0.4-0.1-0.8-0.3-1.2-0.5c-0.4-0.2-0.7-0.5-1.1-0.8
											l-0.5-0.4l-0.5-0.5l0.5,0.4l0.5,0.4c0.4,0.2,0.7,0.5,1.1,0.7c0.4,0.2,0.8,0.3,1.2,0.4c0.4,0.1,0.8,0.1,1.2,0L490.3,174z"
											/>
										<path d="M489.1,174.4c-0.3,0.1-0.5,0-0.7,0c-0.2,0-0.4-0.1-0.7-0.1c-0.4-0.1-0.8-0.3-1.2-0.5c-0.4-0.2-0.7-0.5-1.1-0.8
											l-0.5-0.4l-0.5-0.5l0.5,0.4l0.5,0.4c0.4,0.2,0.7,0.5,1.1,0.7c0.4,0.2,0.8,0.3,1.2,0.4c0.4,0.1,0.8,0.1,1.2,0L489.1,174.4z
											"/>
										<path d="M489,175c-0.3,0.1-0.5,0-0.7,0c-0.2,0-0.4-0.1-0.7-0.1c-0.4-0.1-0.8-0.3-1.2-0.5c-0.4-0.2-0.7-0.5-1.1-0.8
											l-0.5-0.4l-0.5-0.5l0.5,0.4l0.5,0.4c0.4,0.2,0.7,0.5,1.1,0.7c0.4,0.2,0.8,0.3,1.2,0.4c0.4,0.1,0.8,0.1,1.2,0L489,175z"/>
										<path d="M491.5,173.4c-0.3,0.1-0.5,0-0.7,0c-0.2,0-0.4-0.1-0.7-0.1c-0.4-0.1-0.8-0.3-1.2-0.5c-0.4-0.2-0.7-0.5-1.1-0.8
											l-0.5-0.4l-0.5-0.5l0.5,0.4l0.5,0.4c0.4,0.2,0.7,0.5,1.1,0.7c0.4,0.2,0.8,0.3,1.2,0.4c0.4,0.1,0.8,0.1,1.2,0L491.5,173.4z
											"/>
										<path d="M494.3,172.6c-0.5-0.1-0.8-0.3-1.2-0.5c-0.4-0.2-0.7-0.5-0.9-0.8c-0.3-0.3-0.5-0.6-0.7-1l-0.3-0.5l-0.3-0.5
											l0.3,0.5l0.3,0.5c0.2,0.3,0.5,0.6,0.8,0.9c0.3,0.3,0.6,0.5,0.9,0.7c0.3,0.2,0.7,0.3,1.1,0.4L494.3,172.6z"/>
										<path d="M493.3,172.9c-0.3,0-0.5-0.1-0.7-0.2c-0.2-0.1-0.4-0.2-0.6-0.4c-0.4-0.3-0.7-0.6-0.9-0.9
											c-0.3-0.3-0.5-0.7-0.7-1.1l-0.3-0.6l-0.3-0.6l0.3,0.6l0.3,0.5c0.2,0.3,0.5,0.7,0.8,1c0.3,0.3,0.6,0.6,1,0.8
											c0.3,0.2,0.7,0.4,1.1,0.4L493.3,172.9z"/>
										<path d="M492,173.2c-0.3-0.2-0.6-0.4-0.8-0.7c-0.2-0.3-0.4-0.6-0.5-0.9c-0.1-0.3-0.2-0.6-0.3-1l-0.1-0.5l0-0.5l0.1,0.5
											l0.1,0.5c0.1,0.3,0.2,0.6,0.3,0.9c0.1,0.3,0.3,0.6,0.5,0.8c0.2,0.2,0.5,0.5,0.7,0.6L492,173.2z"/>
										<path d="M493.4,172.7c-0.3-0.2-0.6-0.4-0.8-0.7c-0.2-0.3-0.4-0.6-0.5-0.9c-0.1-0.3-0.2-0.6-0.3-1l-0.1-0.5l0-0.5l0.1,0.5
											l0.1,0.5c0.1,0.3,0.2,0.6,0.3,0.9c0.1,0.3,0.3,0.6,0.5,0.8c0.2,0.2,0.5,0.5,0.7,0.6L493.4,172.7z"/>
										<path d="M494.8,172.3c-0.3-0.2-0.6-0.4-0.8-0.7c-0.2-0.3-0.4-0.6-0.5-0.9c-0.1-0.3-0.2-0.6-0.3-1l-0.1-0.5l0-0.5l0.1,0.5
											l0.1,0.5c0.1,0.3,0.2,0.6,0.3,0.9c0.1,0.3,0.3,0.6,0.5,0.8c0.2,0.2,0.5,0.5,0.7,0.6L494.8,172.3z"/>
										<path d="M495.4,171.8c-0.3-0.2-0.5-0.4-0.7-0.7c-0.2-0.3-0.4-0.5-0.5-0.8c-0.1-0.3-0.2-0.6-0.3-0.9c0-0.2-0.1-0.3-0.1-0.5
											l0-0.5l0.1,0.5c0,0.2,0.1,0.3,0.1,0.5c0.1,0.3,0.2,0.6,0.3,0.9c0.1,0.3,0.3,0.5,0.5,0.8c0.2,0.2,0.4,0.4,0.7,0.5
											L495.4,171.8z"/>
										<path d="M496.3,171.7c-0.3-0.2-0.5-0.4-0.7-0.6c-0.2-0.2-0.4-0.5-0.5-0.8c-0.1-0.3-0.2-0.6-0.3-0.9
											c-0.1-0.3-0.1-0.6-0.1-0.9c0.1,0.3,0.1,0.6,0.2,0.9c0.1,0.3,0.2,0.6,0.3,0.8c0.1,0.3,0.3,0.5,0.5,0.7
											c0.2,0.2,0.4,0.4,0.7,0.5L496.3,171.7z"/>
										<path d="M497.1,171.8c-0.2-0.2-0.3-0.5-0.4-0.7c-0.1-0.2-0.1-0.5-0.2-0.8c0-0.3,0-0.5,0-0.8c0-0.3,0.1-0.5,0.2-0.8
											c0,0.3-0.1,0.5-0.1,0.8c0,0.3,0,0.5,0,0.8c0,0.2,0.1,0.5,0.2,0.7c0.1,0.2,0.2,0.4,0.4,0.6L497.1,171.8z"/>
										<path d="M497,171.7c-0.3-0.2-0.5-0.4-0.7-0.6c-0.2-0.2-0.3-0.5-0.5-0.8c-0.1-0.3-0.2-0.6-0.3-0.8
											c-0.1-0.3-0.1-0.6-0.1-0.9c0,0.3,0.1,0.6,0.2,0.8c0.1,0.3,0.2,0.5,0.3,0.8c0.1,0.2,0.3,0.5,0.5,0.7
											c0.2,0.2,0.4,0.4,0.6,0.5L497,171.7z"/>
										<path d="M496.8,171.5c0.2,0,0.5-0.2,0.7-0.4c0.2-0.2,0.4-0.4,0.6-0.6c0.2-0.2,0.3-0.5,0.5-0.7c0.1-0.2,0.3-0.5,0.4-0.8
											c-0.1,0.3-0.2,0.5-0.3,0.8c-0.1,0.3-0.3,0.5-0.4,0.8c-0.2,0.2-0.3,0.5-0.6,0.7c-0.2,0.2-0.4,0.4-0.8,0.5L496.8,171.5z"/>
										<path d="M498.2,171.8c0.2,0,0.5-0.1,0.7-0.3c0.2-0.1,0.4-0.3,0.6-0.5c0.2-0.2,0.3-0.4,0.5-0.6c0.1-0.2,0.3-0.4,0.4-0.7
											c-0.1,0.2-0.2,0.5-0.3,0.7c-0.1,0.2-0.3,0.5-0.4,0.7c-0.2,0.2-0.3,0.4-0.5,0.6c-0.2,0.2-0.4,0.3-0.7,0.4L498.2,171.8z"/>
										<path d="M497.9,171c0.2,0.1,0.5,0.1,0.7,0.1c0.3,0,0.5-0.1,0.7-0.2c0.2-0.1,0.5-0.2,0.7-0.3c0.2-0.1,0.4-0.3,0.6-0.4
											c-0.2,0.2-0.4,0.3-0.6,0.5c-0.2,0.1-0.4,0.3-0.7,0.4c-0.2,0.1-0.5,0.2-0.8,0.3c-0.3,0-0.5,0.1-0.8,0L497.9,171z"/>
										<path d="M496.4,171c0.2,0,0.4-0.1,0.6-0.2c0.2-0.1,0.4-0.3,0.6-0.4c0.2-0.2,0.3-0.4,0.5-0.6c0.1-0.2,0.3-0.4,0.4-0.6
											c-0.1,0.2-0.2,0.4-0.3,0.7c-0.1,0.2-0.3,0.4-0.4,0.6c-0.2,0.2-0.3,0.4-0.6,0.5c-0.2,0.1-0.4,0.3-0.7,0.3L496.4,171z"/>
										<path d="M497.5,171.7c0.2,0,0.5-0.2,0.7-0.3c0.2-0.2,0.4-0.4,0.6-0.6c0.2-0.2,0.3-0.4,0.5-0.7c0.1-0.2,0.3-0.5,0.4-0.7
											c-0.1,0.3-0.2,0.5-0.3,0.8c-0.1,0.3-0.3,0.5-0.4,0.7c-0.2,0.2-0.4,0.5-0.6,0.6c-0.2,0.2-0.5,0.4-0.8,0.4L497.5,171.7z"/>
										<path d="M500.5,171.7c0.2,0.1,0.4,0.1,0.6,0.1c0.2,0,0.4,0,0.6-0.1c0.2-0.1,0.4-0.1,0.6-0.2c0.2-0.1,0.4-0.2,0.5-0.3
											c-0.2,0.1-0.3,0.3-0.5,0.4c-0.2,0.1-0.4,0.2-0.6,0.3c-0.2,0.1-0.4,0.1-0.6,0.1c-0.2,0-0.4,0-0.7-0.1L500.5,171.7z"/>
										<path d="M500.4,172c0.2,0,0.4-0.1,0.6-0.1c0.2-0.1,0.4-0.2,0.6-0.3c0.2-0.1,0.3-0.3,0.5-0.5c0.2-0.2,0.3-0.4,0.4-0.5
											c-0.1,0.2-0.2,0.4-0.4,0.6c-0.1,0.2-0.3,0.4-0.5,0.5c-0.2,0.2-0.4,0.3-0.6,0.4c-0.2,0.1-0.4,0.2-0.7,0.2L500.4,172z"/>
										<path d="M501.4,172.3c0.2,0.1,0.4,0.1,0.7,0c0.2,0,0.4-0.1,0.7-0.2c0.2-0.1,0.4-0.2,0.6-0.3c0.2-0.1,0.4-0.3,0.6-0.4
											c-0.2,0.2-0.4,0.3-0.5,0.4c-0.2,0.1-0.4,0.3-0.6,0.4c-0.2,0.1-0.4,0.2-0.7,0.2c-0.2,0-0.5,0.1-0.8,0L501.4,172.3z"/>
										<path d="M499.5,171.8c0.2,0,0.4-0.1,0.6-0.3c0.2-0.1,0.4-0.3,0.6-0.5c0.2-0.2,0.3-0.4,0.5-0.6c0.1-0.2,0.3-0.4,0.4-0.7
											c-0.1,0.2-0.2,0.5-0.3,0.7c-0.1,0.2-0.3,0.4-0.4,0.6c-0.2,0.2-0.3,0.4-0.5,0.5c-0.2,0.2-0.4,0.3-0.7,0.3L499.5,171.8z"/>
										<path d="M502.2,173c0.2,0,0.3-0.1,0.5-0.2c0.2-0.1,0.3-0.2,0.4-0.4c0.1-0.1,0.2-0.3,0.4-0.5c0.1-0.2,0.2-0.3,0.3-0.5
											c-0.1,0.2-0.1,0.4-0.2,0.5c-0.1,0.2-0.2,0.3-0.3,0.5c-0.1,0.2-0.3,0.3-0.4,0.4c-0.2,0.1-0.3,0.2-0.6,0.3L502.2,173z"/>
										<path d="M503.7,173.9c0.1,0,0.2-0.1,0.4-0.1c0.1-0.1,0.2-0.1,0.3-0.2c0.2-0.2,0.3-0.4,0.5-0.6c-0.1,0.2-0.2,0.5-0.4,0.7
											c-0.2,0.2-0.4,0.4-0.7,0.4L503.7,173.9z"/>
										<path d="M502.8,173c0.3,0,0.6-0.1,0.8-0.3c0.2-0.2,0.4-0.4,0.6-0.7c-0.1,0.3-0.3,0.5-0.5,0.7c-0.2,0.2-0.5,0.4-0.8,0.4
											L502.8,173z"/>
										<path class="st16" d="M496.3,175.3c0,0.2-0.1,0.4-0.3,0.4c-0.2,0-0.4-0.1-0.4-0.3c0-0.2,0.1-0.4,0.3-0.4
											S496.3,175.1,496.3,175.3z"/>
										<g>
											<line class="st10" x1="506.6" y1="176.7" x2="507.3" y2="177.5"/>
											
												<rect x="506.8" y="176.5" transform="matrix(0.7471 -0.6647 0.6647 0.7471 10.5018 381.7456)" width="0.2" height="1.1"/>
										</g>
									</g>
									<path class="st9" d="M505.8,164.8c0,0-10.6-2.8-17.9-0.8c-1,0.3-4.8,4-4.8,4s3-5.1,5-6s9.4-2.3,16-0.6c0,0,0.3,1.7,0.5,2.5
										c0,0,0.1-2.1-0.2-2.6c0,0,0.4,0.6,0.5,2.7c0,0,0.3-1.5-0.1-2.5c0,0,0.7,1.2,0.3,2.8c0,0,0.5-1.5,0.5-2.6
										c0,0,0.3,1.1-0.2,2.6c0,0,0.6-0.9,0.9-1.9c0,0-0.1,1.4-0.7,2.2c0,0,0.8-0.9,0.9-1.5C506.5,163,506.3,164.5,505.8,164.8z"/>
								</g>
								<g>
									<path class="st9" d="M545.1,176.9l1.5-0.9c0,0-3.8-0.3-6.3-2.1c-2.5-1.7-6.4-4.2-10.3-2.8c-3.8,1.4-4.3,2.1-4.3,2.1
										l9.1,5.2L545.1,176.9z"/>
									<path d="M540.8,177.5c0,0,1.2,1.9,5-1.1c0,0-3.6,0-7.8-3.1c-4.2-3.1-8.7-2.4-12-0.6C522.8,174.7,540.8,177.5,540.8,177.5z"
										/>
									<g>
										<g>
											<path class="st10" d="M523.3,175.4c-0.6,0.5-1.3,1-1.9,1.5c0,0,0.5-0.2,2,1c1.5,1.2,3.2,2.7,5.2,3.3
												c2,0.6,4.9,1.2,7.7,0.4c2.8-0.9,4.7-3.7,4.7-3.7l-12.8-3.8C526.6,174.4,524.9,174.9,523.3,175.4z"/>
											<path d="M523.6,178.1l-0.3-0.2c-1.4-1.1-1.9-1-1.9-1l-0.6,0.2l2.4-1.9l3.9-1.1l1.1-0.3l12.9,3.9l-0.1,0.1
												c0,0-1.9,2.9-4.8,3.8c-2.8,0.9-5.6,0.3-7.8-0.4c-0.1,0-0.3-0.1-0.4-0.1C526.4,180.4,524.9,179.2,523.6,178.1z M528.3,174
												l-5,1.4l-1.7,1.3c0.3,0,0.9,0.3,1.8,1l0.3,0.2c1.4,1.2,3,2.5,4.9,3c2.1,0.6,4.9,1.2,7.7,0.4c2.5-0.8,4.2-3.1,4.6-3.6
												L528.3,174z"/>
										</g>
										<path class="st11" d="M523.8,177.9c0,0,8,9.7,18.7,0.4l-1.3-1.2l-4-2.1L523.8,177.9z"/>
										<path class="st12" d="M521.7,176.8c0.4,0,0.8,0.2,1.3,0.6c1.6,1.2,3.9,4,9.2,4.3c4,0.2,6.2-1.2,7.3-2.4
											c0.8-0.9,1.1-1.6,1.1-1.7l-0.7-0.6c-1.1-1.7-2.5-2.8-4.1-3.4c-2.4-1-5-1.1-7-0.9c-0.6,0.1-1.1,0.2-1.7,0.5
											C524.4,174.2,521.7,176.8,521.7,176.8z"/>
										<path class="st13" d="M521.7,176.8c0.4,0,0.8,0.2,1.3,0.6c0.6-0.4,1.6-0.9,3-1.4c0.5-0.2,1.1-0.3,1.7-0.4c0,0,0.1,0,0.1,0
											c0.1,0,0.2,0,0.3,0c2.3-0.3,5.3,0.1,8.6,2l0,0c1.1,0.6,2,1.2,2.7,1.6c0.8-0.9,1.1-1.6,1.1-1.7l-0.7-0.6
											c-1.1-1.7-2.5-2.8-4.1-3.4c-2.4-1-5-1.1-7-0.9c-0.6,0.1-1.1,0.2-1.7,0.5C524.4,174.2,521.7,176.8,521.7,176.8z"/>
										
											<linearGradient id="SVGID_00000170968690001327018480000012016003043871184035_" gradientUnits="userSpaceOnUse" x1="-5228.6045" y1="-828.4129" x2="-5227.2183" y2="-832.7806" gradientTransform="matrix(-0.9401 -0.341 -0.341 0.9401 -4666.4375 -823.2958)">
											<stop  offset="0" style="stop-color:#8C6239"/>
											<stop  offset="1" style="stop-color:#603813"/>
										</linearGradient>
										<path style="fill:url(#SVGID_00000170968690001327018480000012016003043871184035_);" d="M526.3,174.5
											c-0.2,0.5-0.3,1-0.3,1.5c0,0,0,0,0,0c0,2.2,1.4,4.2,3.7,5.1c2.8,1,5.9-0.3,6.9-2.9c0.1-0.2,0.1-0.4,0.2-0.6l0,0
											c0.3-1.4-0.1-2.9-1-4.1c-2.4-1-5-1.1-7-0.9c-0.6,0.1-1.1,0.2-1.7,0.5C526.8,173.5,526.5,174,526.3,174.5z"/>
										<path class="st15" d="M526.3,174.5c-0.2,0.5-0.3,1-0.3,1.5c0.4-0.1,1-0.3,1.7-0.3c0,0,0.1,0,0.1,0c0.1,0,0.2,0,0.3,0
											c2-0.2,5,0.1,8.6,2l0,0c0.3-1.4-0.1-2.9-1-4.1c-2.4-1-5-1.1-7-0.9c-0.6,0.1-1.1,0.2-1.7,0.5
											C526.8,173.5,526.5,174,526.3,174.5z"/>
										<g>
											<circle cx="531.6" cy="176.8" r="1.5"/>
											<path d="M530.1,176.3c0.3-0.8,1.2-1.3,2.1-1c0.8,0.3,1.3,1.2,1,2.1c-0.3,0.8-1.2,1.3-2.1,1
												C530.2,178,529.8,177.1,530.1,176.3z M530.2,176.3c-0.3,0.7,0.1,1.6,0.9,1.8c0.7,0.3,1.6-0.1,1.8-0.9
												c0.3-0.7-0.1-1.6-0.9-1.8C531.3,175.2,530.5,175.6,530.2,176.3z"/>
										</g>
										<g>
											<path class="st10" d="M522.3,176.2c0,0,6.6-6,13.4-2.1c0.8,0.5,4.4,4.6,7,4c0.6-0.1,1.4-1,1.4-1s-1.8,0.5-4.6-1.7
												c-2.8-2.2-5.2-5.8-13-2.8C525.1,173.3,522.3,176.2,522.3,176.2z"/>
											<path d="M522.2,176.2c0.1-0.1,2.9-3,4.3-3.5c6.8-2.6,9.5-0.3,11.9,1.8c0.4,0.3,0.8,0.7,1.2,1c2.7,2.1,4.5,1.7,4.5,1.7
												l0.3-0.1l-0.2,0.2c0,0-0.8,0.9-1.4,1c-2.1,0.4-4.7-2-6.2-3.3c-0.4-0.4-0.7-0.7-0.9-0.8c-6.6-3.8-13.2,2-13.3,2.1
												L522.2,176.2z M535.8,174.1c0.2,0.1,0.5,0.4,1,0.8c1.4,1.3,4,3.6,6,3.2c0.4-0.1,0.9-0.5,1.2-0.8c-0.6,0-2.2-0.1-4.4-1.8
												c-0.4-0.3-0.8-0.6-1.2-1c-2.4-2-5-4.3-11.7-1.8c-0.9,0.3-2.3,1.6-3.2,2.5c2-1.3,6.3-3.6,10.8-2
												C534.7,173.5,535.2,173.8,535.8,174.1z"/>
										</g>
										<path d="M539.7,176.6c0.3,0,0.5-0.1,0.7-0.2c0.2-0.1,0.4-0.2,0.6-0.3c0.4-0.2,0.7-0.5,1-0.8c0.3-0.3,0.6-0.6,0.8-1
											l0.4-0.5l0.3-0.6l-0.4,0.5l-0.4,0.5c-0.3,0.3-0.6,0.6-0.9,0.9c-0.3,0.3-0.7,0.5-1,0.7c-0.4,0.2-0.8,0.3-1.1,0.3
											L539.7,176.6z"/>
										<path d="M539.8,177.1c0.3,0,0.5-0.1,0.7-0.2c0.2-0.1,0.4-0.2,0.6-0.3c0.4-0.2,0.7-0.5,1-0.8c0.3-0.3,0.6-0.6,0.8-1
											l0.4-0.5l0.3-0.6l-0.4,0.5l-0.4,0.5c-0.3,0.3-0.6,0.6-0.9,0.9c-0.3,0.3-0.7,0.5-1,0.7c-0.4,0.2-0.8,0.3-1.1,0.3
											L539.8,177.1z"/>
										<path d="M537.5,175.4c0.3,0,0.5-0.1,0.7-0.2c0.2-0.1,0.4-0.2,0.6-0.3c0.4-0.2,0.7-0.5,1-0.8c0.3-0.3,0.6-0.6,0.8-1
											l0.4-0.5l0.3-0.6l-0.4,0.5l-0.4,0.5c-0.3,0.3-0.6,0.6-0.9,0.9c-0.3,0.3-0.7,0.5-1,0.7c-0.4,0.2-0.8,0.3-1.1,0.3
											L537.5,175.4z"/>
										<path d="M538.4,176c0.3,0,0.5-0.1,0.7-0.2c0.2-0.1,0.4-0.2,0.6-0.3c0.4-0.2,0.7-0.5,1-0.8c0.3-0.3,0.6-0.6,0.8-1l0.4-0.5
											l0.3-0.6l-0.4,0.5l-0.4,0.5c-0.3,0.3-0.6,0.6-0.9,0.9c-0.3,0.3-0.7,0.5-1,0.7c-0.4,0.2-0.8,0.3-1.1,0.3L538.4,176z"/>
										<path d="M537,174.9c0.3,0,0.5-0.1,0.7-0.2c0.2-0.1,0.4-0.2,0.6-0.3c0.4-0.2,0.7-0.5,1-0.8c0.3-0.3,0.6-0.6,0.8-1l0.4-0.5
											l0.3-0.6l-0.4,0.5l-0.4,0.5c-0.3,0.3-0.6,0.6-0.9,0.9c-0.3,0.3-0.7,0.5-1,0.7c-0.4,0.2-0.8,0.3-1.1,0.3L537,174.9z"/>
										<path d="M535.6,173.9c0.3,0,0.5,0,0.7,0c0.2,0,0.4-0.1,0.7-0.2c0.4-0.1,0.8-0.3,1.2-0.6c0.4-0.2,0.7-0.5,1-0.8l0.5-0.4
											l0.4-0.5l-0.5,0.4l-0.5,0.4c-0.3,0.3-0.7,0.5-1.1,0.7c-0.4,0.2-0.8,0.4-1.2,0.5c-0.4,0.1-0.8,0.2-1.2,0.1L535.6,173.9z"/>
										<path d="M536.5,174.4c0.3,0,0.5,0,0.7,0c0.2,0,0.4-0.1,0.7-0.2c0.4-0.1,0.8-0.3,1.2-0.6c0.4-0.2,0.7-0.5,1-0.8l0.5-0.4
											l0.4-0.5l-0.5,0.4l-0.5,0.4c-0.3,0.3-0.7,0.5-1.1,0.7c-0.4,0.2-0.8,0.4-1.2,0.5c-0.4,0.1-0.8,0.2-1.2,0.1L536.5,174.4z"/>
										<path d="M537.9,175.1c0.3,0,0.5,0,0.7,0c0.2,0,0.4-0.1,0.7-0.2c0.4-0.1,0.8-0.3,1.2-0.6c0.4-0.2,0.7-0.5,1-0.8l0.5-0.4
											l0.4-0.5l-0.5,0.4l-0.5,0.4c-0.3,0.3-0.7,0.5-1.1,0.7c-0.4,0.2-0.8,0.4-1.2,0.5c-0.4,0.1-0.8,0.2-1.2,0.1L537.9,175.1z"/>
										<path d="M534.5,173.4c0.4,0,0.8-0.2,1.2-0.3c0.3-0.2,0.7-0.4,0.9-0.7c0.3-0.2,0.5-0.5,0.8-0.8l0.3-0.5l0.3-0.5l-0.3,0.4
											l-0.4,0.4c-0.3,0.3-0.5,0.5-0.8,0.8c-0.3,0.2-0.6,0.4-0.9,0.6c-0.3,0.1-0.7,0.2-1,0.2L534.5,173.4z"/>
										<path d="M538.9,175.9c0.3,0.1,0.5,0.1,0.7,0.1c0.2,0,0.4,0,0.7,0c0.4-0.1,0.9-0.2,1.3-0.4c0.4-0.2,0.8-0.4,1.2-0.6
											l0.5-0.4l0.5-0.4l-0.5,0.3l-0.6,0.3c-0.4,0.2-0.8,0.4-1.2,0.5c-0.4,0.1-0.8,0.2-1.2,0.3c-0.4,0-0.9,0-1.2-0.1L538.9,175.9
											z"/>
										<path d="M540,176.5c0.3,0.1,0.5,0.1,0.7,0.1c0.2,0,0.4,0,0.7,0c0.4-0.1,0.9-0.2,1.3-0.4c0.4-0.2,0.8-0.4,1.2-0.6l0.5-0.4
											l0.5-0.4l-0.5,0.3l-0.6,0.3c-0.4,0.2-0.8,0.4-1.2,0.5c-0.4,0.1-0.8,0.2-1.2,0.3c-0.4,0-0.9,0-1.2-0.1L540,176.5z"/>
										<path d="M540,177.1c0.3,0.1,0.5,0.1,0.7,0.1c0.2,0,0.4,0,0.7,0c0.4-0.1,0.9-0.2,1.3-0.4c0.4-0.2,0.8-0.4,1.2-0.6l0.5-0.4
											l0.5-0.4l-0.5,0.3l-0.6,0.3c-0.4,0.2-0.8,0.4-1.2,0.5c-0.4,0.1-0.8,0.2-1.2,0.3c-0.4,0-0.9,0-1.2-0.1L540,177.1z"/>
										<path d="M537.7,175.1c0.3,0.1,0.5,0.1,0.7,0.1c0.2,0,0.4,0,0.7,0c0.4-0.1,0.9-0.2,1.3-0.4c0.4-0.2,0.8-0.4,1.2-0.6
											l0.5-0.4l0.5-0.4l-0.5,0.3l-0.6,0.3c-0.4,0.2-0.8,0.4-1.2,0.5c-0.4,0.1-0.8,0.2-1.2,0.3c-0.4,0-0.9,0-1.2-0.1L537.7,175.1
											z"/>
										<path d="M535.1,173.9c0.5,0,0.9-0.1,1.3-0.3c0.4-0.2,0.7-0.4,1-0.7c0.3-0.3,0.6-0.6,0.9-0.9l0.4-0.5l0.4-0.5l-0.4,0.5
											l-0.4,0.4c-0.3,0.3-0.6,0.6-0.9,0.8c-0.3,0.2-0.7,0.4-1,0.6c-0.4,0.1-0.8,0.2-1.1,0.2L535.1,173.9z"/>
										<path d="M536,174.3c0.3,0,0.5-0.1,0.7-0.1c0.2-0.1,0.4-0.2,0.6-0.3c0.4-0.2,0.7-0.5,1.1-0.8c0.3-0.3,0.6-0.6,0.9-0.9
											l0.4-0.5l0.4-0.5l-0.4,0.5l-0.4,0.5c-0.3,0.3-0.6,0.6-0.9,0.9c-0.3,0.3-0.7,0.5-1.1,0.7c-0.4,0.2-0.8,0.3-1.1,0.3
											L536,174.3z"/>
										<path d="M537.3,174.9c0.4-0.1,0.6-0.4,0.9-0.6c0.2-0.2,0.4-0.5,0.6-0.8c0.2-0.3,0.3-0.6,0.4-0.9l0.1-0.5l0.1-0.5l-0.2,0.5
											l-0.2,0.5c-0.1,0.3-0.3,0.6-0.5,0.9c-0.2,0.3-0.4,0.5-0.6,0.7c-0.2,0.2-0.5,0.4-0.8,0.5L537.3,174.9z"/>
										<path d="M536,174.2c0.4-0.1,0.6-0.4,0.9-0.6c0.2-0.2,0.4-0.5,0.6-0.8c0.2-0.3,0.3-0.6,0.4-0.9l0.1-0.5l0.1-0.5l-0.2,0.5
											l-0.2,0.5c-0.1,0.3-0.3,0.6-0.5,0.9c-0.2,0.3-0.4,0.5-0.6,0.7c-0.2,0.2-0.5,0.4-0.8,0.5L536,174.2z"/>
										<path d="M534.7,173.5c0.4-0.1,0.6-0.4,0.9-0.6c0.2-0.2,0.4-0.5,0.6-0.8c0.2-0.3,0.3-0.6,0.4-0.9l0.1-0.5l0.1-0.5l-0.2,0.5
											l-0.2,0.5c-0.1,0.3-0.3,0.6-0.5,0.9c-0.2,0.3-0.4,0.5-0.6,0.7c-0.2,0.2-0.5,0.4-0.8,0.5L534.7,173.5z"/>
										<path d="M534.2,172.9c0.3-0.1,0.6-0.3,0.8-0.5c0.2-0.2,0.4-0.5,0.6-0.8c0.2-0.3,0.3-0.6,0.4-0.9c0.1-0.1,0.1-0.3,0.1-0.4
											l0.1-0.5l-0.1,0.4c-0.1,0.1-0.1,0.3-0.2,0.4c-0.1,0.3-0.3,0.6-0.5,0.8c-0.2,0.2-0.4,0.5-0.6,0.7c-0.2,0.2-0.5,0.4-0.8,0.4
											L534.2,172.9z"/>
										<path d="M533.3,172.7c0.3-0.1,0.6-0.3,0.8-0.5c0.2-0.2,0.4-0.4,0.6-0.7c0.2-0.3,0.3-0.5,0.4-0.8c0.1-0.3,0.2-0.6,0.3-0.9
											c-0.1,0.3-0.2,0.6-0.3,0.8c-0.1,0.3-0.3,0.5-0.5,0.8c-0.2,0.2-0.4,0.4-0.6,0.6c-0.2,0.2-0.5,0.3-0.7,0.4L533.3,172.7z"/>
										<path d="M532.5,172.7c0.2-0.2,0.4-0.4,0.5-0.6c0.1-0.2,0.2-0.5,0.3-0.7c0.1-0.3,0.1-0.5,0.1-0.8c0-0.3,0-0.5,0-0.8
											c0,0.3,0,0.5,0,0.8c0,0.3-0.1,0.5-0.2,0.7c-0.1,0.2-0.2,0.5-0.3,0.7c-0.1,0.2-0.3,0.4-0.5,0.5L532.5,172.7z"/>
										<path d="M532.6,172.6c0.3-0.1,0.6-0.3,0.8-0.5c0.2-0.2,0.4-0.4,0.6-0.7c0.2-0.2,0.3-0.5,0.4-0.8c0.1-0.3,0.2-0.6,0.3-0.8
											c-0.1,0.3-0.2,0.5-0.3,0.8c-0.1,0.3-0.3,0.5-0.4,0.7c-0.2,0.2-0.4,0.4-0.6,0.6c-0.2,0.2-0.5,0.3-0.7,0.4L532.6,172.6z"/>
										<path d="M532.8,172.5c-0.2-0.1-0.4-0.3-0.6-0.5c-0.2-0.2-0.3-0.4-0.5-0.7c-0.1-0.2-0.3-0.5-0.4-0.8
											c-0.1-0.3-0.2-0.5-0.3-0.8c0.1,0.3,0.1,0.6,0.2,0.8c0.1,0.3,0.2,0.5,0.3,0.8c0.1,0.3,0.3,0.5,0.5,0.7
											c0.2,0.2,0.4,0.4,0.7,0.6L532.8,172.5z"/>
										<path d="M531.4,172.5c-0.2-0.1-0.4-0.2-0.6-0.4c-0.2-0.2-0.3-0.4-0.5-0.6c-0.1-0.2-0.3-0.4-0.4-0.7
											c-0.1-0.2-0.2-0.5-0.3-0.7c0.1,0.3,0.1,0.5,0.2,0.7c0.1,0.2,0.2,0.5,0.3,0.7c0.1,0.2,0.3,0.4,0.5,0.6
											c0.2,0.2,0.4,0.4,0.7,0.5L531.4,172.5z"/>
										<path d="M531.8,171.8c-0.2,0-0.5,0-0.7-0.1c-0.2-0.1-0.5-0.2-0.7-0.3c-0.2-0.1-0.4-0.3-0.6-0.4c-0.2-0.2-0.4-0.3-0.6-0.5
											c0.2,0.2,0.3,0.4,0.5,0.6c0.2,0.2,0.4,0.4,0.6,0.5c0.2,0.1,0.5,0.3,0.7,0.4c0.3,0.1,0.5,0.1,0.8,0.1L531.8,171.8z"/>
										<path d="M533.2,172c-0.2,0-0.4-0.2-0.6-0.3c-0.2-0.1-0.3-0.3-0.5-0.5c-0.1-0.2-0.3-0.4-0.4-0.6c-0.1-0.2-0.2-0.4-0.3-0.7
											c0.1,0.2,0.1,0.5,0.2,0.7c0.1,0.2,0.2,0.5,0.3,0.7c0.1,0.2,0.3,0.4,0.5,0.6c0.2,0.2,0.4,0.3,0.7,0.4L533.2,172z"/>
										<path d="M532.1,172.6c-0.2-0.1-0.5-0.2-0.6-0.4c-0.2-0.2-0.4-0.4-0.5-0.7c-0.2-0.2-0.3-0.5-0.4-0.8
											c-0.1-0.3-0.2-0.5-0.3-0.8c0.1,0.3,0.1,0.6,0.2,0.8c0.1,0.3,0.2,0.5,0.3,0.8c0.1,0.3,0.3,0.5,0.5,0.7
											c0.2,0.2,0.4,0.4,0.7,0.5L532.1,172.6z"/>
										<path d="M529.1,172.1c-0.2,0-0.4,0-0.6,0c-0.2,0-0.4-0.1-0.6-0.2c-0.2-0.1-0.4-0.2-0.5-0.3c-0.2-0.1-0.3-0.3-0.5-0.4
											c0.1,0.2,0.3,0.3,0.5,0.4c0.2,0.1,0.3,0.3,0.5,0.4c0.2,0.1,0.4,0.2,0.6,0.2c0.2,0,0.4,0.1,0.7,0L529.1,172.1z"/>
										<path d="M529.1,172.4c-0.2,0-0.4-0.1-0.6-0.2c-0.2-0.1-0.4-0.3-0.5-0.4c-0.2-0.2-0.3-0.3-0.4-0.5
											c-0.1-0.2-0.2-0.4-0.3-0.6c0.1,0.2,0.2,0.4,0.3,0.6c0.1,0.2,0.2,0.4,0.4,0.6c0.2,0.2,0.3,0.3,0.5,0.5
											c0.2,0.1,0.4,0.3,0.7,0.3L529.1,172.4z"/>
										<path d="M528.1,172.6c-0.2,0-0.4,0-0.6-0.1c-0.2-0.1-0.4-0.2-0.6-0.3c-0.2-0.1-0.4-0.3-0.6-0.4c-0.2-0.2-0.3-0.3-0.5-0.5
											c0.2,0.2,0.3,0.4,0.5,0.5c0.2,0.2,0.4,0.3,0.6,0.5c0.2,0.1,0.4,0.3,0.6,0.3c0.2,0.1,0.5,0.1,0.7,0.1L528.1,172.6z"/>
										<path d="M530.1,172.3c-0.2-0.1-0.4-0.2-0.6-0.3c-0.2-0.2-0.3-0.3-0.5-0.5c-0.1-0.2-0.3-0.4-0.4-0.6
											c-0.1-0.2-0.2-0.5-0.3-0.7c0.1,0.2,0.1,0.5,0.2,0.7c0.1,0.2,0.2,0.5,0.3,0.7c0.1,0.2,0.3,0.4,0.5,0.6
											c0.2,0.2,0.4,0.3,0.7,0.4L530.1,172.3z"/>
										<path d="M527.3,173.2c-0.2,0-0.3-0.2-0.5-0.3c-0.1-0.1-0.3-0.3-0.4-0.4c-0.1-0.2-0.2-0.3-0.3-0.5
											c-0.1-0.2-0.1-0.4-0.2-0.6c0,0.2,0.1,0.4,0.2,0.6c0.1,0.2,0.1,0.4,0.2,0.5c0.1,0.2,0.2,0.3,0.4,0.5
											c0.1,0.1,0.3,0.3,0.5,0.4L527.3,173.2z"/>
										<path d="M525.7,173.9c-0.1,0-0.2-0.1-0.3-0.2c-0.1-0.1-0.2-0.2-0.3-0.3c-0.2-0.2-0.3-0.5-0.4-0.7c0.1,0.3,0.2,0.5,0.3,0.7
											c0.2,0.2,0.4,0.4,0.6,0.5L525.7,173.9z"/>
										<path d="M526.6,173c-0.3-0.1-0.5-0.2-0.8-0.4c-0.2-0.2-0.4-0.5-0.5-0.8c0.1,0.3,0.2,0.6,0.4,0.8c0.2,0.2,0.5,0.4,0.8,0.5
											L526.6,173z"/>
										<path class="st16" d="M532.7,176.3c-0.1,0.2,0,0.4,0.2,0.5s0.4,0,0.5-0.2c0.1-0.2,0-0.4-0.2-0.5
											C533,176,532.8,176.1,532.7,176.3z"/>
										<g>
											<line class="st10" x1="522.4" y1="176.1" x2="521.6" y2="176.8"/>
											<rect x="521.5" y="176.4" transform="matrix(0.7666 -0.6421 0.6421 0.7666 8.5008 376.3596)" width="1.1" height="0.2"/>
										</g>
									</g>
									<path class="st9" d="M524.9,164.6c0,0,10.9-1.2,17.8,1.8c0.9,0.4,4.1,4.7,4.1,4.7s-2.2-5.5-4-6.7c-1.8-1.2-9-3.6-15.7-2.9
										c0,0-0.6,1.7-0.8,2.4c0,0,0.2-2.1,0.6-2.5c0,0-0.4,0.5-0.9,2.6c0,0-0.1-1.6,0.4-2.5c0,0-0.9,1-0.7,2.7c0,0-0.2-1.6-0.1-2.7
										c0,0-0.5,1-0.1,2.6c0,0-0.5-1-0.6-2c0,0-0.1,1.4,0.4,2.3c0,0-0.6-1-0.6-1.6C524.5,162.6,524.4,164.1,524.9,164.6z"/>
								</g>
							</g>
						</g>
						<path class="st18" d="M526.5,207.8c-0.5,0.6-4.8,6-12.2,5.8c-7.1-0.1-11.2-5.3-11.7-5.9c0.5,0,1.4,0,2.5-0.1
							c3.3-0.4,4.6-1.7,6.8-1.3c0.6,0.1,1.5,0.4,2.5,1.2c1.6-1,2.9-1.1,3.8-1c1.9,0.1,2.7,1.2,4.9,1.6
							C524.5,208.1,525.7,207.9,526.5,207.8z"/>
						<path class="st7" d="M519.3,197.7c0.2,0.5-2.4,2.7-5.4,2.5c-3-0.2-5.3-2.6-5.1-3.1c0.2-0.4,2,0.7,5.4,0.9
							C517.4,198.2,519.1,197.4,519.3,197.7z"/>
					</g>
					<path class="st6" d="M550.3,172.8c3.7-7,8.2-18.4,7.7-32.4c-0.3-7.1-1-17.6-8.3-24.6c-3.8-3.6-11-7.8-15.2-5.3
						c0,0-0.1,0.1-0.2,0.1c0,0-2.1,1.4-2.9,5.1c-0.6,2.8,1.2,8.5,5.8,14.4c-0.1,6.3,1.3,10.9,2.7,14c1.3,2.8,3.7,4.3,6.1,9.1
						c0.4,0.8,1.5,3,2.4,5.9C549.3,162.1,550.4,166.8,550.3,172.8z"/>
					<g>
						<path class="st9" d="M513.9,110.8c-22.8,3-33.4,23.2-34.3,25.1c-5.3,11.3-5.9,25.1-2,37c0.2,0.4,0.4,0.9,0.7,1.3
							c-0.3-2.7-0.3-6.6,0.9-11.1c2.4-8.6,8.9-16.2,16.7-19.9c7.6-3.7,10-0.5,26.9-5.2c5.9-1.6,8.1-2.7,10.1-4.1
							c6.8-4.8,9.4-12.4,10.4-16.6C539.7,115.1,528.5,108.9,513.9,110.8z"/>
						<path class="st6" d="M540.2,112.8c-16.8-16.6-37.8-11.9-37.8-11.9c-14.5,3.3-22.3,14.6-24,17.2c-16,23.4-1.6,53.2-0.7,54.9
							c-0.5-1.5-6.8-21.4,5.4-35.9c6.1-7.3,16.5-12.7,26.6-12.5c7.4,0.2,11.3,3.3,19.8,1.9c5.8-1,10.2-3.4,13.1-5.5
							c1.9-0.1,2.3-0.7,2.5-1c0.5-1.1-1-2.8-3.1-5.3C541.1,113.8,540.4,113.1,540.2,112.8z"/>
					</g>
				</g>
			</g>
			<path class="st16" d="M515.1,275.8c-15.1,0-27.5,1.8-36.5,3.8c-9.1,2-14.7,20-11.5,28.7c4.4,11.9,18.8,47.3,18.8,47.3h28.9h0.3
				h28.9c0,0,14.4-35.2,18.8-47.1c3.2-8.8-2.4-26.7-11.5-28.7C542,277.7,529.5,275.8,515.1,275.8z"/>
			<g>
				<path class="st16" d="M613.9,714.1c-28.3,29.3-62.4,46.4-99,46.4c-36.6,0-70.7-17.1-99-46.4c-37.7,71.2-80.4,139.7-80.4,139.7
					S432.9,865,473,865c33.4,0,60,0,83.8,0c40.1,0,137.5-11.2,137.5-11.2S651.7,785.3,613.9,714.1z"/>
				<path class="st16" d="M514.9,760.5c36.6,0,70.7-17.1,99-46.4c-27.3-51.5-52-104.3-56.1-133.7c-5.9-42.3,23.6-116.5,17.9-158.8
					c-2.5-18.1-21.4-50.8-31.6-66c-2-3-5.9-8.4-9.8-13.7v-8.4l-7.4-1.5c-2-2.6-3.3-4.3-3.3-4.3l-8.8,1.8l-8.8-1.8
					c0,0-1.3,1.7-3.3,4.3l-7.4,1.5v8.4c-3.9,5.3-7.8,10.6-9.8,13.7c-10.2,15.2-29.1,47.9-31.6,66c-5.7,42.3,23.8,116.5,17.9,158.8
					c-4.1,29.3-28.8,82.2-56.1,133.7C444.2,743.4,478.3,760.5,514.9,760.5z"/>
			</g>
			<path class="st8" d="M455.4,264.4c0,0-4.9-7.3-7.3-3.8c-11.8,17.3-30.8,94.5-30.8,94.5c-3.1,9.9,3.1,20.2,13.2,22.2
				c0,0,62.3,18.2,81.2,10.4c3.6-1.5,7.6-8.5,3.4-11.1c-18.1-11-68.5-21-68.5-21s19.8-49.1,23.7-75.7
				C471.1,274.2,455.4,264.4,455.4,264.4z"/>
			<path class="st8" d="M575.8,264.4c0,0,4.9-7.3,7.3-3.8c11.8,17.3,30.8,94.5,30.8,94.5c3.1,9.9-3.1,20.2-13.2,22.2
				c0,0-62.3,18.2-81.2,10.4c-3.6-1.5-7.6-8.5-3.4-11.1c18.1-11,68.5-21,68.5-21s-19.8-49.1-23.7-75.7
				C560.1,274.2,575.8,264.4,575.8,264.4z"/>
			<path class="st5" d="M604,303.8H425.9c-1.1-1.6-1.3-3.6-0.4-5.3c1.1-2.1,3.3-2.6,3.6-2.7c-1.9-1.3-2.5-3.8-1.5-5.6
				c0.8-1.6,2.7-2.4,4.6-2.1c-1-1.1-1.4-2.8-0.9-4.2c0.6-1.6,2-2.6,3.7-2.7c-0.2-0.2-1.1-1.5-0.8-3.2c0.3-1.6,1.7-2.9,3.4-3.3
				c32.8,8.7,59.2,9.3,77.3,9.4c19.5,0,79.2-9.4,79.2-9.4c0.3,0.2,1.8,1,2.5,2.8c0.7,1.9-0.1,3.5-0.2,3.8c0.6,0.4,2.1,1.5,2.9,3.6
				c1,2.5,0.3,4.7,0.1,5.4c0.5,0.4,1.9,1.6,2.5,3.8c0.5,1.7,0.2,3.1,0,3.7c0.4,0.3,1.3,1,1.9,2.4C604.5,301.9,604.1,303.3,604,303.8
				z"/>
			<path class="st19" d="M551,315.6c-6,0.9-20.9,1.4-36.2,1.5c-15.2,0-30.1-0.5-36.2-1.5c-2-0.3-5.7-0.7-7.4-1.3
				c1.5,6.2,4.9,14,7.4,18c9.9,16,23.3,21.1,36.2,20.4c12.9,0.6,26.3-4.4,36.2-20.4c2.5-4,5.8-11.8,7.4-18
				C556.6,314.8,552.9,315.3,551,315.6z"/>
			<g>
				<ellipse class="st20" cx="521.9" cy="374.4" rx="24.1" ry="23.6"/>
				<path class="st20" d="M497.8,350.8c5.9,3.2,8,10.6,4.8,16.5c-3.2,5.9-10.6,8-16.5,4.8c-5.9-3.2-18-23.7-18-23.7
					S491.9,347.6,497.8,350.8z"/>
				<path class="st20" d="M550.4,375.8c-4.9,2.8-11.1,1-13.9-3.9c-2.8-4.9-1-11.1,3.9-13.9s25-2.3,25-2.3S555.3,373,550.4,375.8z"/>
				<path class="st20" d="M531.6,405.7c-2.1-4-0.7-9,3.3-11.1c4-2.1,9-0.7,11.1,3.3c2.1,4,1.5,20.1,1.5,20.1
					S533.7,409.7,531.6,405.7z"/>
				<path class="st20" d="M495.9,393.2c3.5-5.4,10.7-7,16.1-3.6c5.4,3.5,7,10.7,3.6,16.1c-3.5,5.4-24,15.8-24,15.8
					S492.4,398.6,495.9,393.2z"/>
				<path class="st20" d="M534.1,349.3c-0.5,5.6-5.4,9.7-10.9,9.2c-5.6-0.5-9.7-5.4-9.2-10.9c0.5-5.6,12-21.8,12-21.8
					S534.6,343.7,534.1,349.3z"/>
				<g>
					<path class="st21" d="M546,374c0,3.5-2.9,10.9-6.4,10.9s-6.4-7.4-6.4-10.9c0-3.5,2.9-6.4,6.4-6.4S546,370.5,546,374z"/>
					<path class="st21" d="M533.1,393c0-3.5,2.9-10.9,6.4-10.9s6.4,7.4,6.4,10.9c0,3.5-2.9,6.4-6.4,6.4S533.1,396.6,533.1,393z"/>
					<path class="st21" d="M537.4,372.3c2.5,2.5,5.7,9.8,3.2,12.3c-2.5,2.5-9.8-0.7-12.3-3.2c-2.5-2.5-2.5-6.6,0-9.1
						C530.8,369.8,534.9,369.8,537.4,372.3z"/>
					<path class="st21" d="M541.7,394.8c-2.5-2.5-5.7-9.8-3.2-12.3c2.5-2.5,9.8,0.7,12.3,3.2c2.5,2.5,2.5,6.6,0,9.1
						C548.3,397.3,544.2,397.3,541.7,394.8z"/>
					<path class="st21" d="M530.1,377.1c3.5,0,10.9,2.9,10.9,6.4c0,3.5-7.4,6.4-10.9,6.4s-6.4-2.9-6.4-6.4
						C523.7,380,526.5,377.1,530.1,377.1z"/>
					<path class="st21" d="M549.1,390c-3.5,0-10.9-2.9-10.9-6.4c0-3.5,7.4-6.4,10.9-6.4c3.5,0,6.4,2.9,6.4,6.4
						C555.5,387.1,552.6,390,549.1,390z"/>
					<path class="st21" d="M528.3,385.7c2.5-2.5,9.8-5.7,12.3-3.2c2.5,2.5-0.7,9.8-3.2,12.3c-2.5,2.5-6.6,2.5-9.1,0
						C525.8,392.3,525.8,388.2,528.3,385.7z"/>
					<path class="st21" d="M550.8,381.4c-2.5,2.5-9.8,5.7-12.3,3.2c-2.5-2.5,0.7-9.8,3.2-12.3c2.5-2.5,6.6-2.5,9.1,0
						C553.3,374.8,553.3,378.9,550.8,381.4z"/>
				</g>
				<g>
					<path class="st22" d="M519.1,349.2c0,3.6-2.9,11-6.5,11c-3.6,0-6.5-7.4-6.5-11s2.9-6.5,6.5-6.5
						C516.2,342.7,519.1,345.6,519.1,349.2z"/>
					<path class="st22" d="M506.2,368.3c0-3.6,2.9-11,6.5-11c3.6,0,6.5,7.4,6.5,11c0,3.6-2.9,6.5-6.5,6.5
						C509.1,374.7,506.2,371.8,506.2,368.3z"/>
					<path class="st22" d="M510.5,347.4c2.5,2.5,5.7,9.8,3.2,12.3c-2.5,2.5-9.8-0.7-12.3-3.2c-2.5-2.5-2.5-6.6,0-9.1
						C503.9,344.9,507.9,344.9,510.5,347.4z"/>
					<path class="st22" d="M514.8,370.1c-2.5-2.5-5.7-9.8-3.2-12.3c2.5-2.5,9.8,0.7,12.3,3.2c2.5,2.5,2.5,6.6,0,9.1
						C521.4,372.6,517.3,372.6,514.8,370.1z"/>
					<path class="st22" d="M503.1,352.3c3.6,0,11,2.9,11,6.5s-7.4,6.5-11,6.5c-3.6,0-6.5-2.9-6.5-6.5S499.5,352.3,503.1,352.3z"/>
					<path class="st22" d="M522.2,365.2c-3.6,0-11-2.9-11-6.5s7.4-6.5,11-6.5c3.6,0,6.5,2.9,6.5,6.5S525.8,365.2,522.2,365.2z"/>
					<path class="st22" d="M501.3,360.9c2.5-2.5,9.8-5.7,12.3-3.2c2.5,2.5-0.7,9.8-3.2,12.3c-2.5,2.5-6.6,2.5-9.1,0
						C498.8,367.5,498.8,363.4,501.3,360.9z"/>
					<path class="st22" d="M524,356.6c-2.5,2.5-9.8,5.7-12.3,3.2c-2.5-2.5,0.7-9.8,3.2-12.3c2.5-2.5,6.6-2.5,9.1,0
						C526.5,350,526.5,354,524,356.6z"/>
				</g>
				<g>
					<path class="st21" d="M522.7,378.1c0,4-3.2,12.3-7.2,12.3c-4,0-7.2-8.3-7.2-12.3c0-4,3.2-7.2,7.2-7.2
						C519.4,370.9,522.7,374.1,522.7,378.1z"/>
					<path class="st21" d="M508.3,399.4c0-4,3.2-12.3,7.2-12.3c4,0,7.2,8.3,7.2,12.3c0,4-3.2,7.2-7.2,7.2
						C511.5,406.6,508.3,403.3,508.3,399.4z"/>
					<path class="st21" d="M513,376.1c2.8,2.8,6.4,10.9,3.6,13.8c-2.8,2.8-10.9-0.8-13.8-3.6c-2.8-2.8-2.8-7.4,0-10.2
						C505.7,373.3,510.2,373.3,513,376.1z"/>
					<path class="st21" d="M517.9,401.3c-2.8-2.8-6.4-10.9-3.6-13.8c2.8-2.8,10.9,0.8,13.8,3.6c2.8,2.8,2.8,7.4,0,10.2
						C525.3,404.1,520.7,404.1,517.9,401.3z"/>
					<path class="st21" d="M504.8,381.5c4,0,12.3,3.2,12.3,7.2c0,4-8.3,7.2-12.3,7.2c-4,0-7.2-3.2-7.2-7.2
						C497.6,384.8,500.9,381.5,504.8,381.5z"/>
					<path class="st21" d="M526.1,395.9c-4,0-12.3-3.2-12.3-7.2c0-4,8.3-7.2,12.3-7.2c4,0,7.2,3.2,7.2,7.2
						C533.3,392.7,530.1,395.9,526.1,395.9z"/>
					<path class="st21" d="M502.9,391.2c2.8-2.8,10.9-6.4,13.8-3.6c2.8,2.8-0.8,10.9-3.6,13.8c-2.8,2.8-7.4,2.8-10.2,0
						C500.1,398.5,500.1,394,502.9,391.2z"/>
					<path class="st21" d="M528.1,386.3c-2.8,2.8-10.9,6.4-13.8,3.6c-2.8-2.8,0.8-10.9,3.6-13.8c2.8-2.8,7.4-2.8,10.2,0
						C530.9,378.9,530.9,383.5,528.1,386.3z"/>
				</g>
				<path class="st23" d="M552,393.8c0,2.9-11.5,1.1-11.5,1.1s10.3,5.3,8.6,7.6c-1.7,2.3-9.9-5.9-9.9-5.9s5.2,10.4,2.5,11.2
					c-2.7,0.9-4.6-10.6-4.6-10.6s-1.8,11.5-4.6,10.6c-2.7-0.9,2.5-11.2,2.5-11.2s-8.2,8.2-9.9,5.9c-1.7-2.3,8.6-7.6,8.6-7.6
					s-11.5,1.8-11.5-1.1c0-2.9,11.5-1.1,11.5-1.1s-10.3-5.3-8.6-7.6c1.7-2.3,9.9,5.9,9.9,5.9s-5.2-10.4-2.5-11.2
					c2.7-0.9,4.6,10.6,4.6,10.6s1.8-11.5,4.6-10.6c2.7,0.9-2.5,11.2-2.5,11.2s8.2-8.2,9.9-5.9c1.7,2.3-8.6,7.6-8.6,7.6
					S552,390.9,552,393.8z"/>
				<path class="st24" d="M504.4,387.1c0,0.8-2.8,1.3-3,2c-0.2,0.8,2,2.6,1.6,3.2c-0.4,0.7-3-0.3-3.6,0.2c-0.6,0.6,0.4,3.2-0.2,3.6
					c-0.7,0.4-2.5-1.8-3.2-1.6c-0.8,0.2-1.2,3-2,3c-0.8,0-1.3-2.8-2-3c-0.8-0.2-2.6,2-3.2,1.6c-0.7-0.4,0.3-3-0.2-3.6
					c-0.6-0.6-3.2,0.4-3.6-0.2c-0.4-0.7,1.8-2.5,1.6-3.2c-0.2-0.8-3-1.2-3-2c0-0.8,2.8-1.3,3-2c0.2-0.8-2-2.6-1.6-3.2
					c0.4-0.7,3,0.3,3.6-0.2c0.6-0.6-0.4-3.2,0.2-3.6c0.7-0.4,2.5,1.8,3.2,1.6c0.8-0.2,1.2-3,2-3c0.8,0,1.3,2.8,2,3
					c0.8,0.2,2.6-2,3.2-1.6c0.7,0.4-0.3,3,0.2,3.6c0.6,0.6,3.2-0.4,3.6,0.2c0.4,0.7-1.8,2.5-1.6,3.2
					C501.6,385.8,504.4,386.3,504.4,387.1z"/>
				<path class="st25" d="M539.8,376.6c0,0.8-2.8,1.3-3,2c-0.2,0.8,2,2.6,1.6,3.2c-0.4,0.7-3-0.3-3.6,0.2c-0.6,0.6,0.4,3.2-0.2,3.6
					c-0.7,0.4-2.5-1.8-3.2-1.6c-0.8,0.2-1.2,3-2,3c-0.8,0-1.3-2.8-2-3c-0.8-0.2-2.6,2-3.2,1.6c-0.7-0.4,0.3-3-0.2-3.6
					c-0.6-0.6-3.2,0.4-3.6-0.2c-0.4-0.7,1.8-2.5,1.6-3.2c-0.2-0.8-3-1.2-3-2c0-0.8,2.8-1.3,3-2c0.2-0.8-2-2.6-1.6-3.2
					c0.4-0.7,3,0.3,3.6-0.2c0.6-0.6-0.4-3.2,0.2-3.6c0.7-0.4,2.5,1.8,3.2,1.6c0.8-0.2,1.2-3,2-3c0.8,0,1.3,2.8,2,3
					c0.8,0.2,2.6-2,3.2-1.6c0.7,0.4-0.3,3,0.2,3.6c0.6,0.6,3.2-0.4,3.6,0.2c0.4,0.7-1.8,2.5-1.6,3.2
					C537,375.3,539.8,375.7,539.8,376.6z"/>
				<g>
					<g>
						<path class="st23" d="M509.7,397.4c0,1.9-1.5,5.8-3.4,5.8c-1.9,0-3.4-3.9-3.4-5.8c0-1.9,1.5-3.4,3.4-3.4
							C508.2,394,509.7,395.5,509.7,397.4z"/>
						<path class="st23" d="M503,407.4c0-1.9,1.5-5.8,3.4-5.8c1.9,0,3.4,3.9,3.4,5.8s-1.5,3.4-3.4,3.4
							C504.5,410.8,503,409.3,503,407.4z"/>
						<path class="st23" d="M505.2,396.5c1.3,1.3,3,5.2,1.7,6.5s-5.2-0.4-6.5-1.7c-1.3-1.3-1.3-3.5,0-4.8
							C501.7,395.2,503.9,395.2,505.2,396.5z"/>
						<path class="st23" d="M507.5,408.4c-1.3-1.3-3-5.2-1.7-6.5c1.3-1.3,5.2,0.4,6.5,1.7c1.3,1.3,1.3,3.5,0,4.8
							C511,409.7,508.8,409.7,507.5,408.4z"/>
						<path class="st23" d="M501.3,399c1.9,0,5.8,1.5,5.8,3.4c0,1.9-3.9,3.4-5.8,3.4c-1.9,0-3.4-1.5-3.4-3.4
							C497.9,400.5,499.5,399,501.3,399z"/>
						<path class="st23" d="M511.4,405.8c-1.9,0-5.8-1.5-5.8-3.4c0-1.9,3.9-3.4,5.8-3.4s3.4,1.5,3.4,3.4
							C514.7,404.3,513.2,405.8,511.4,405.8z"/>
						<path class="st23" d="M500.4,403.6c1.3-1.3,5.2-3,6.5-1.7c1.3,1.3-0.4,5.2-1.7,6.5c-1.3,1.3-3.5,1.3-4.8,0
							C499.1,407,499.1,404.9,500.4,403.6z"/>
						<path class="st23" d="M512.3,401.3c-1.3,1.3-5.2,3-6.5,1.7c-1.3-1.3,0.4-5.2,1.7-6.5c1.3-1.3,3.5-1.3,4.8,0
							C513.6,397.8,513.6,400,512.3,401.3z"/>
					</g>
				</g>
				<path class="st22" d="M522.5,410.4c1.9,1.9,1.9,4.9,0,6.7c-1.9,1.9-4.9,1.9-6.7,0c-1.9-1.9-1.9-4.9,0-6.7
					C517.6,408.6,520.6,408.6,522.5,410.4z"/>
				<circle class="st25" cx="526.4" cy="401.4" r="5.4"/>
				<circle class="st24" cx="517.1" cy="390" r="3.5"/>
				<g>
					<path class="st21" d="M533.9,348.6c0,3.5-2.9,10.9-6.4,10.9c-3.5,0-6.4-7.4-6.4-10.9c0-3.5,2.9-6.4,6.4-6.4
						C531,342.1,533.9,345,533.9,348.6z"/>
					<path class="st21" d="M521,367.5c0-3.5,2.9-10.9,6.4-10.9c3.5,0,6.4,7.4,6.4,10.9c0,3.5-2.9,6.4-6.4,6.4
						C523.9,374,521,371.1,521,367.5z"/>
					<path class="st21" d="M525.3,346.8c2.5,2.5,5.7,9.8,3.2,12.3c-2.5,2.5-9.8-0.7-12.3-3.2c-2.5-2.5-2.5-6.6,0-9.1
						C518.7,344.3,522.8,344.3,525.3,346.8z"/>
					<path class="st21" d="M529.6,369.3c-2.5-2.5-5.7-9.8-3.2-12.3c2.5-2.5,9.8,0.7,12.3,3.2c2.5,2.5,2.5,6.6,0,9.1
						C536.2,371.8,532.1,371.8,529.6,369.3z"/>
					<path class="st21" d="M517.9,351.6c3.5,0,10.9,2.9,10.9,6.4c0,3.5-7.4,6.4-10.9,6.4c-3.5,0-6.4-2.9-6.4-6.4
						C511.5,354.5,514.4,351.6,517.9,351.6z"/>
					<path class="st21" d="M536.9,364.5c-3.5,0-10.9-2.9-10.9-6.4c0-3.5,7.4-6.4,10.9-6.4c3.5,0,6.4,2.9,6.4,6.4
						C543.3,361.6,540.5,364.5,536.9,364.5z"/>
					<path class="st21" d="M516.2,360.2c2.5-2.5,9.8-5.7,12.3-3.2c2.5,2.5-0.7,9.8-3.2,12.3c-2.5,2.5-6.6,2.5-9.1,0
						C513.7,366.8,513.7,362.7,516.2,360.2z"/>
					<path class="st21" d="M538.7,355.9c-2.5,2.5-9.8,5.7-12.3,3.2c-2.5-2.5,0.7-9.8,3.2-12.3c2.5-2.5,6.6-2.5,9.1,0
						C541.2,349.3,541.2,353.4,538.7,355.9z"/>
				</g>
				<g>
					<path class="st24" d="M530.8,353c0,1.9-1.5,5.8-3.4,5.8c-1.9,0-3.4-3.9-3.4-5.8c0-1.9,1.5-3.4,3.4-3.4
						C529.3,349.7,530.8,351.2,530.8,353z"/>
					<path class="st24" d="M524,363.1c0-1.9,1.5-5.8,3.4-5.8c1.9,0,3.4,3.9,3.4,5.8c0,1.9-1.5,3.4-3.4,3.4
						C525.6,366.4,524,364.9,524,363.1z"/>
					<path class="st24" d="M526.3,352.1c1.3,1.3,3,5.2,1.7,6.5c-1.3,1.3-5.2-0.4-6.5-1.7c-1.3-1.3-1.3-3.5,0-4.8
						C522.8,350.8,525,350.8,526.3,352.1z"/>
					<path class="st24" d="M528.6,364c-1.3-1.3-3-5.2-1.7-6.5c1.3-1.3,5.2,0.4,6.5,1.7c1.3,1.3,1.3,3.5,0,4.8
						C532,365.3,529.9,365.3,528.6,364z"/>
					<path class="st24" d="M522.4,354.7c1.9,0,5.8,1.5,5.8,3.4s-3.9,3.4-5.8,3.4s-3.4-1.5-3.4-3.4S520.6,354.7,522.4,354.7z"/>
					<path class="st24" d="M532.4,361.4c-1.9,0-5.8-1.5-5.8-3.4s3.9-3.4,5.8-3.4s3.4,1.5,3.4,3.4S534.3,361.4,532.4,361.4z"/>
					<path class="st24" d="M521.5,359.2c1.3-1.3,5.2-3,6.5-1.7c1.3,1.3-0.4,5.2-1.7,6.5c-1.3,1.3-3.5,1.3-4.8,0
						C520.2,362.7,520.2,360.5,521.5,359.2z"/>
					<path class="st24" d="M533.4,356.9c-1.3,1.3-5.2,3-6.5,1.7c-1.3-1.3,0.4-5.2,1.7-6.5c1.3-1.3,3.5-1.3,4.8,0
						C534.7,353.4,534.7,355.6,533.4,356.9z"/>
				</g>
				<path class="st26" d="M523.8,365.9c0,4.3-17.2,1.6-17.2,1.6s15.5,7.9,12.9,11.4c-2.5,3.5-14.9-8.8-14.9-8.8s7.9,15.5,3.8,16.9
					c-4.1,1.3-6.9-15.8-6.9-15.8s-2.8,17.2-6.9,15.8c-4.1-1.3,3.8-16.9,3.8-16.9s-12.3,12.3-14.9,8.8c-2.5-3.5,12.9-11.4,12.9-11.4
					s-17.2,2.7-17.2-1.6c0-4.3,17.2-1.6,17.2-1.6s-15.5-7.9-12.9-11.4c2.5-3.5,14.9,8.8,14.9,8.8s-7.9-15.5-3.8-16.9
					c4.1-1.3,6.9,15.8,6.9,15.8s2.8-17.2,6.9-15.8c4.1,1.3-3.8,16.9-3.8,16.9s12.3-12.3,14.9-8.8c2.5,3.5-12.9,11.4-12.9,11.4
					S523.8,361.5,523.8,365.9z"/>
			</g>
		</g>
		<g class="st2">
			<path class="st16" d="M276.2,847.6c4.3-30.4,14.2-76.9,40.3-127.2c29.6-57.1,56.7-73.9,81.8-123.3
				c16.6-32.6,34.8-84.1,32.5-160.3c-1.4,74.5-22.1,122.3-40.7,152.1c-18.6,29.9-31.7,36.2-66.9,91.1c-31.2,48.6-41.5,75.8-47.1,93
				c-9.4,29.3-12.9,54.9-14.2,72.7C266.7,846.4,271.5,847,276.2,847.6z"/>
			<path class="st16" d="M409.5,643.1c-17.5,23.2-31.4,43.3-41.5,58.3c-24.5,36.5-38.5,57.5-51.5,87.4c-10.8,24.7-17,46.2-20.6,61
				c5.8,0.6,11.5,1.2,17.3,1.8c5.9-23.1,13.7-48.1,24-74.3C358.8,722.4,385.2,677.7,409.5,643.1z"/>
		</g>
		<g class="st2">
			<path class="st16" d="M782.7,840.1c-4.9,0.9-9.7,1.8-14.4,2.6c-4.5-30.4-14.5-75.8-39.9-124.8c-29.6-57.1-56.6-73.9-81.8-123.3
				c-16.6-32.6-34.8-84.1-32.5-160.2c1.4,74.5,22.1,122.3,40.7,152.1c18.6,29.9,31.7,36.2,66.9,91.1c31.2,48.6,41.5,75.8,47.1,93
				C777.6,798.2,781.2,822.5,782.7,840.1z"/>
			<path class="st16" d="M748.7,846.1c-5.9,1-11.6,1.9-17.1,2.7c-5.9-23-13.7-47.8-23.9-74c-21.6-54.9-48-99.6-72.3-134.2
				c17.5,23.2,31.4,43.3,41.5,58.3c24.5,36.5,38.5,57.5,51.5,87.4C738.9,810.3,745.1,831.2,748.7,846.1z"/>
		</g>
		<g>
			<path class="st16" d="M551.6,124.5c-11.1-6.7-23.8-12.6-36.4-12.4c-12.6-0.2-25.2,5.7-36.4,12.4c0,2.1,0,4.1,0,6.2
				c11.9-1.7,24.1-5.1,36.4-4.9c12.2-0.2,24.5,3.2,36.4,4.9C551.6,128.6,551.6,126.6,551.6,124.5z"/>
			<path class="st16" d="M495.7,117c-0.4,0-0.7-0.2-0.9-0.5c-0.3-0.5-0.1-1,0.4-1.3c1.8-1,3.2-3.1,4.6-5.4c2-3.2,4.3-6.9,8.6-6.9
				c0,0,0,0,0,0c1.4,0,2.7,0.5,3.7,1.5c1,1,1.6,2.4,1.5,3.8c0,1.2-0.6,2.2-1.4,3c-0.9,0.8-2,1.2-3.2,1.2c-1,0-1.9-0.4-2.6-1.2
				c-0.7-0.7-1-1.7-1-2.6c0.1-1.7,1.6-3.1,3.3-3c0.5,0,1,0.5,1,1c0,0.5-0.5,0.9-1,0.9c-0.7,0-1.3,0.5-1.3,1.2c0,0.5,0.2,0.9,0.5,1.3
				c0.3,0.3,0.8,0.5,1.3,0.6c0.7,0,1.3-0.2,1.8-0.6c0.5-0.4,0.8-1,0.8-1.7c0-0.9-0.3-1.8-1-2.4c-0.6-0.6-1.4-0.9-2.3-0.9h0
				c-3.2,0-5,2.9-6.9,6c-1.5,2.4-3,4.8-5.3,6.1C496,116.9,495.8,117,495.7,117z"/>
			<path class="st16" d="M478.9,125.5c-0.3,0-0.7-0.2-0.9-0.5c-0.3-0.5-0.1-1,0.4-1.3c1.9-1,3.4-3.9,5-6.7c2.3-4.3,4.7-8.8,9-8.8
				c0,0,0,0,0,0c1.4,0,2.7,0.5,3.7,1.5c1,1,1.6,2.4,1.5,3.8c0,1.2-0.6,2.2-1.4,3c-0.9,0.8-2,1.2-3.2,1.2c-1,0-1.9-0.4-2.6-1.2
				c-0.7-0.7-1-1.7-1-2.6c0.1-1.7,1.6-3.1,3.3-3c0.5,0,1,0.5,1,1c0,0.5-0.5,0.9-1,0.9c-0.7,0-1.3,0.5-1.3,1.2c0,0.5,0.2,0.9,0.5,1.3
				c0.3,0.3,0.8,0.5,1.3,0.6c0.7,0,1.3-0.2,1.8-0.6c0.5-0.4,0.8-1,0.8-1.7c0-0.9-0.3-1.8-1-2.4c-0.6-0.6-1.4-0.9-2.3-0.9
				c0,0,0,0,0,0c-3.1,0-5.2,4-7.3,7.8c-1.7,3.2-3.4,6.3-5.8,7.5C479.2,125.4,479.1,125.5,478.9,125.5z"/>
			<path class="st16" d="M534.8,117c-0.2,0-0.3,0-0.5-0.1c-2.3-1.2-3.8-3.7-5.3-6.1c-1.9-3.1-3.7-6-6.9-6h0c-0.9,0-1.7,0.3-2.3,0.9
				c-0.6,0.7-1,1.5-1,2.4c0,0.7,0.3,1.3,0.8,1.7c0.5,0.4,1.1,0.7,1.8,0.6c0.5,0,0.9-0.2,1.3-0.6c0.3-0.3,0.5-0.8,0.5-1.3
				c0-0.7-0.6-1.2-1.3-1.2c-0.5,0-1-0.4-1-0.9c0-0.5,0.4-1,1-1c1.8-0.1,3.3,1.3,3.3,3c0,1-0.3,1.9-1,2.6c-0.7,0.7-1.6,1.1-2.6,1.2
				c-1.2,0-2.3-0.4-3.2-1.2c-0.9-0.8-1.4-1.9-1.4-3c-0.1-1.4,0.5-2.8,1.5-3.8c1-1,2.3-1.5,3.7-1.5h0c4.3,0,6.6,3.7,8.6,6.9
				c1.4,2.3,2.7,4.4,4.6,5.4c0.5,0.3,0.7,0.8,0.4,1.3C535.5,116.8,535.2,117,534.8,117z"/>
			<path class="st16" d="M551.6,125.5c-0.2,0-0.3,0-0.5-0.1c-2.4-1.3-4-4.3-5.8-7.5c-2.1-3.8-4.2-7.8-7.3-7.8c0,0,0,0,0,0
				c-0.9,0-1.7,0.3-2.3,0.9c-0.6,0.7-1,1.5-1,2.4c0,0.6,0.3,1.3,0.8,1.7c0.5,0.4,1.1,0.7,1.8,0.6c0.5,0,0.9-0.2,1.3-0.6
				c0.3-0.3,0.5-0.8,0.5-1.3c0-0.7-0.6-1.2-1.3-1.2c-0.5,0-1-0.4-1-0.9c0-0.5,0.4-1,1-1c1.8-0.1,3.3,1.3,3.3,3c0,1-0.3,1.9-1,2.6
				c-0.7,0.7-1.6,1.1-2.6,1.2c-1.2,0-2.3-0.4-3.2-1.2c-0.9-0.8-1.4-1.9-1.4-3c-0.1-1.4,0.5-2.8,1.5-3.8c1-1,2.3-1.5,3.7-1.5
				c0,0,0,0,0,0c4.3,0,6.7,4.5,9,8.8c1.5,2.8,3.1,5.8,4.9,6.7c0.5,0.3,0.7,0.8,0.4,1.3C552.3,125.3,552,125.5,551.6,125.5z"/>
			<path class="st16" d="M517.8,100.7c2.5-3.9-0.6-9.2-2.5-12.4l0,0v0c-2,3.2-5.1,8.5-2.5,12.4c0,0-1.4-0.6-2.5-0.2
				c-0.1,2.7,1.4,5.4,5,7v0l0,0c3.7-1.6,5.1-4.3,5-7C519.2,100.1,517.8,100.7,517.8,100.7z"/>
			<path class="st16" d="M499.6,104.8c1.7-2.6-0.4-6.1-1.7-8.2l0,0v0c-1.3,2.1-3.3,5.6-1.7,8.2c0,0-0.9-0.4-1.7-0.1
				c-0.1,1.8,0.9,3.5,3.3,4.6v0l0,0c2.4-1.1,3.4-2.8,3.3-4.6C500.5,104.4,499.6,104.8,499.6,104.8z"/>
			<path class="st16" d="M534.4,104.8c1.7-2.6-0.4-6.1-1.7-8.2l0,0v0c-1.3,2.1-3.3,5.6-1.7,8.2c0,0-0.9-0.4-1.7-0.1
				c-0.1,1.8,0.9,3.5,3.3,4.6v0l0,0c2.4-1.1,3.4-2.8,3.3-4.6C535.3,104.4,534.4,104.8,534.4,104.8z"/>
			<path class="st16" d="M553.3,116.9c1.7-2.6-0.4-6.1-1.7-8.2l0,0v0c-1.3,2.1-3.3,5.6-1.7,8.2c0,0-0.9-0.4-1.7-0.1
				c-0.1,1.8,0.9,3.5,3.3,4.6v0l0,0c2.4-1.1,3.4-2.8,3.3-4.6C554.2,116.5,553.3,116.9,553.3,116.9z"/>
			<path class="st16" d="M480.6,116.9c1.7-2.6-0.4-6.1-1.7-8.2l0,0v0c-1.3,2.1-3.3,5.6-1.7,8.2c0,0-0.9-0.4-1.7-0.1
				c-0.1,1.8,0.9,3.5,3.3,4.6v0l0,0c2.4-1.1,3.4-2.8,3.3-4.6C481.5,116.5,480.6,116.9,480.6,116.9z"/>
			<path class="st16" d="M498.6,108.6h-0.6h-0.6c0,0-0.7,1.6-0.6,3c0.1,1.4,1.3,2.1,1.3,2.1s1.2-0.8,1.3-2.1
				C499.3,110.2,498.6,108.6,498.6,108.6z"/>
			<path class="st16" d="M533.4,108.6h-0.6h-0.6c0,0-0.7,1.6-0.6,3c0.1,1.4,1.3,2.1,1.3,2.1s1.2-0.8,1.3-2.1
				C534.1,110.2,533.4,108.6,533.4,108.6z"/>
			<path class="st16" d="M552.3,120.8h-0.6H551c0,0-0.7,1.6-0.6,3c0.1,1.4,1.3,2.1,1.3,2.1s1.2-0.8,1.3-2.1
				C553,122.4,552.3,120.8,552.3,120.8z"/>
			<path class="st16" d="M479.5,120.8h-0.6h-0.6c0,0-0.7,1.6-0.6,3c0.1,1.4,1.3,2.1,1.3,2.1s1.2-0.8,1.3-2.1
				C480.2,122.4,479.5,120.8,479.5,120.8z"/>
			<path class="st27" d="M553.3,116.9c1.7-2.6-0.4-6.1-1.7-8.2l0,0v0c-1.3,2.1-3.3,5.6-1.7,8.2c0,0-0.9-0.4-1.7-0.1
				c0,1.6,0.7,3.1,2.6,4.2c-0.1,0.3-0.3,0.7-0.4,1.3c-1.2-1.4-2.3-3.4-3.3-5.4c-2.3-4.3-4.7-8.8-9-8.8c0,0,0,0,0,0
				c-1.4,0-2.7,0.5-3.7,1.5c-0.2,0.2-0.3,0.4-0.5,0.6c-0.1-0.6-0.3-1-0.4-1.3c1.8-1.1,2.6-2.6,2.5-4.2c-0.8-0.3-1.7,0.1-1.7,0.1
				c1.7-2.6-0.4-6.1-1.7-8.2l0,0v0c-1.3,2.1-3.3,5.6-1.7,8.2c0,0-0.9-0.4-1.7-0.1c0,1.6,0.7,3.1,2.5,4.2c-0.2,0.4-0.4,1.3-0.5,2.1
				c-0.2-0.4-0.5-0.8-0.7-1.2c-2-3.2-4.3-6.9-8.6-6.9h0c-0.9,0-1.8,0.2-2.6,0.7c0.5-1,0.7-2.1,0.7-3.2c-1.2-0.4-2.5,0.2-2.5,0.2
				c2.5-3.9-0.6-9.2-2.5-12.4l0,0v19.1l0,0c0.8-0.3,1.5-0.7,2.1-1.2c-0.3,0.6-0.4,1.3-0.3,2c0,1.2,0.6,2.2,1.4,3
				c0.5,0.5,1.1,0.8,1.8,1c-1.6-0.2-3.3-0.2-4.9-0.2c0,0,0,0,0,0v13.7c0,0,0,0,0,0c12.2-0.2,24.5,3.2,36.4,4.9c0-1.6,0-3.2,0-4.8
				c0,0,1.2-0.8,1.3-2.1c0-1.1-0.4-2.2-0.5-2.7c1.9-1.1,2.6-2.6,2.6-4.2C554.2,116.5,553.3,116.9,553.3,116.9z M521.7,112.5
				c1,0,1.9-0.5,2.6-1.2c0.7-0.7,1-1.7,1-2.6c-0.1-1.7-1.6-3.1-3.3-3c-0.5,0-1,0.5-1,1c0,0.5,0.5,0.9,1,0.9c0.7,0,1.3,0.5,1.3,1.2
				c0,0.5-0.2,0.9-0.5,1.3c-0.3,0.3-0.8,0.5-1.3,0.6c-0.7,0-1.3-0.2-1.8-0.6c-0.5-0.4-0.8-1-0.8-1.7c0-0.9,0.3-1.8,1-2.4
				c0.6-0.6,1.4-0.9,2.3-0.9h0c3.2,0,5,2.9,6.9,6c0.9,1.5,1.8,3,3,4.2C528.6,113.8,525.1,113,521.7,112.5z M538.5,117.5
				c0.7-0.2,1.3-0.5,1.7-1c0.7-0.7,1-1.7,1-2.6c-0.1-1.7-1.6-3.1-3.3-3c-0.5,0-1,0.5-1,1c0,0.5,0.5,0.9,1,0.9c0.7,0,1.3,0.5,1.3,1.2
				c0,0.5-0.2,0.9-0.5,1.3c-0.3,0.3-0.8,0.5-1.3,0.6c-0.7,0-1.3-0.2-1.8-0.6c-0.5-0.4-0.8-1-0.8-1.7c0-0.9,0.3-1.8,1-2.4
				c0.6-0.6,1.4-0.9,2.3-0.9c0,0,0,0,0,0c3.1,0,5.2,4,7.3,7.8c0.9,1.7,1.8,3.3,2.7,4.7C545,120.7,541.8,119,538.5,117.5z"/>
			<path class="st28" d="M551.6,126.7c-0.1,0-0.1,0-0.2,0l-0.6-0.3c-0.2-0.1-0.2-0.3-0.1-0.4c0.1-0.1,0.3-0.2,0.5-0.1l0.6,0.3
				c0.2,0.1,0.2,0.3,0.1,0.4C551.9,126.7,551.7,126.7,551.6,126.7z"/>
			<path class="st28" d="M550,125.7c-0.1,0-0.1,0-0.2,0c-0.4-0.2-0.7-0.4-1.1-0.6c-0.2-0.1-0.2-0.3-0.1-0.4c0.1-0.2,0.3-0.2,0.5-0.1
				c0.4,0.2,0.7,0.4,1.1,0.6c0.2,0.1,0.2,0.3,0.1,0.4C550.2,125.7,550.1,125.7,550,125.7z M480.6,125.7c-0.1,0-0.2-0.1-0.3-0.2
				c-0.1-0.2,0-0.3,0.1-0.4c0.4-0.2,0.7-0.4,1.1-0.6c0.2-0.1,0.4,0,0.5,0.1c0.1,0.2,0,0.3-0.1,0.4c-0.4,0.2-0.7,0.4-1.1,0.6
				C480.7,125.7,480.6,125.7,480.6,125.7z M547.7,124.5c-0.1,0-0.1,0-0.2,0c-0.4-0.2-0.8-0.4-1.1-0.6c-0.2-0.1-0.2-0.3-0.1-0.4
				c0.1-0.2,0.3-0.2,0.4-0.1c0.4,0.2,0.8,0.4,1.1,0.6c0.2,0.1,0.2,0.3,0.1,0.4C548,124.4,547.8,124.5,547.7,124.5z M482.8,124.4
				c-0.1,0-0.2-0.1-0.3-0.2c-0.1-0.2,0-0.3,0.1-0.4c0.4-0.2,0.8-0.4,1.1-0.6c0.2-0.1,0.4,0,0.4,0.1c0.1,0.2,0,0.3-0.1,0.4
				c-0.4,0.2-0.8,0.4-1.1,0.6C482.9,124.4,482.9,124.4,482.8,124.4z M545.5,123.2c-0.1,0-0.1,0-0.2,0c-0.4-0.2-0.8-0.4-1.1-0.6
				c-0.2-0.1-0.2-0.3-0.1-0.4s0.3-0.2,0.4-0.1c0.4,0.2,0.8,0.4,1.1,0.6c0.2,0.1,0.2,0.3,0.1,0.4
				C545.7,123.1,545.6,123.2,545.5,123.2z M485.1,123.2c-0.1,0-0.2-0.1-0.3-0.2c-0.1-0.2,0-0.3,0.1-0.4c0.4-0.2,0.8-0.4,1.1-0.6
				c0.2-0.1,0.4,0,0.4,0.1c0.1,0.2,0,0.3-0.1,0.4c-0.4,0.2-0.8,0.4-1.1,0.6C485.2,123.2,485.1,123.2,485.1,123.2z M543.2,122
				c-0.1,0-0.1,0-0.2,0c-0.4-0.2-0.8-0.4-1.2-0.6c-0.2-0.1-0.2-0.3-0.1-0.4c0.1-0.2,0.3-0.2,0.4-0.1c0.4,0.2,0.8,0.4,1.2,0.6
				c0.2,0.1,0.2,0.3,0.1,0.4C543.4,121.9,543.3,122,543.2,122z M487.4,122c-0.1,0-0.2-0.1-0.3-0.2c-0.1-0.2,0-0.3,0.1-0.4
				c0.4-0.2,0.8-0.4,1.2-0.6c0.2-0.1,0.4,0,0.4,0.1c0.1,0.2,0,0.3-0.1,0.4c-0.4,0.2-0.8,0.4-1.2,0.6C487.5,122,487.4,122,487.4,122z
				 M540.9,120.9c0,0-0.1,0-0.1,0c-0.4-0.2-0.8-0.4-1.2-0.5c-0.2-0.1-0.2-0.3-0.2-0.4c0.1-0.2,0.3-0.2,0.4-0.2
				c0.4,0.2,0.8,0.4,1.2,0.6c0.2,0.1,0.2,0.3,0.1,0.4C541.1,120.8,541,120.9,540.9,120.9z M489.7,120.9c-0.1,0-0.2-0.1-0.3-0.2
				c-0.1-0.2,0-0.3,0.1-0.4c0.4-0.2,0.8-0.4,1.2-0.6c0.2-0.1,0.4,0,0.4,0.1c0.1,0.2,0,0.3-0.2,0.4c-0.4,0.2-0.8,0.4-1.2,0.5
				C489.8,120.8,489.7,120.9,489.7,120.9z M538.5,119.8c0,0-0.1,0-0.1,0c-0.4-0.2-0.8-0.3-1.2-0.5c-0.2-0.1-0.2-0.3-0.2-0.4
				c0.1-0.2,0.3-0.2,0.4-0.2c0.4,0.2,0.8,0.3,1.2,0.5c0.2,0.1,0.2,0.3,0.2,0.4C538.7,119.7,538.6,119.8,538.5,119.8z M492,119.8
				c-0.1,0-0.2-0.1-0.3-0.2c-0.1-0.2,0-0.3,0.2-0.4c0.4-0.2,0.8-0.3,1.2-0.5c0.2-0.1,0.4,0,0.4,0.2c0.1,0.2,0,0.3-0.2,0.4
				c-0.4,0.2-0.8,0.3-1.2,0.5C492.1,119.8,492.1,119.8,492,119.8z M536.1,118.8c0,0-0.1,0-0.1,0c-0.4-0.2-0.8-0.3-1.2-0.5
				c-0.2-0.1-0.3-0.3-0.2-0.4c0.1-0.2,0.3-0.2,0.4-0.2c0.4,0.2,0.8,0.3,1.2,0.5c0.2,0.1,0.2,0.3,0.2,0.4
				C536.4,118.7,536.2,118.8,536.1,118.8z M494.4,118.8c-0.1,0-0.2-0.1-0.3-0.2c-0.1-0.2,0-0.3,0.2-0.4c0.4-0.2,0.8-0.3,1.2-0.5
				c0.2-0.1,0.4,0,0.4,0.2c0.1,0.2,0,0.3-0.2,0.4c-0.4,0.2-0.8,0.3-1.2,0.5C494.5,118.7,494.5,118.8,494.4,118.8z M533.7,117.8
				c0,0-0.1,0-0.1,0c-0.4-0.2-0.8-0.3-1.2-0.4c-0.2-0.1-0.3-0.2-0.2-0.4c0.1-0.2,0.3-0.3,0.4-0.2c0.4,0.1,0.8,0.3,1.2,0.4
				c0.2,0.1,0.3,0.2,0.2,0.4C533.9,117.7,533.8,117.8,533.7,117.8z M496.8,117.8c-0.1,0-0.3-0.1-0.3-0.2c-0.1-0.2,0-0.3,0.2-0.4
				c0.4-0.2,0.8-0.3,1.2-0.4c0.2-0.1,0.4,0,0.4,0.2c0.1,0.2,0,0.3-0.2,0.4c-0.4,0.1-0.8,0.3-1.2,0.4
				C496.9,117.8,496.9,117.8,496.8,117.8z M499.3,117c-0.1,0-0.3-0.1-0.3-0.2c-0.1-0.2,0-0.3,0.2-0.4c0.4-0.1,0.8-0.3,1.2-0.4
				c0.2-0.1,0.4,0,0.4,0.2c0.1,0.2,0,0.3-0.2,0.4c-0.4,0.1-0.8,0.3-1.2,0.4C499.4,117,499.3,117,499.3,117z M531.2,117
				c0,0-0.1,0-0.1,0c-0.4-0.1-0.8-0.3-1.2-0.4c-0.2-0.1-0.3-0.2-0.2-0.4c0.1-0.2,0.2-0.3,0.4-0.2c0.4,0.1,0.8,0.3,1.2,0.4
				c0.2,0.1,0.3,0.2,0.2,0.4C531.5,116.9,531.4,117,531.2,117z M501.8,116.2c-0.1,0-0.3-0.1-0.3-0.2c-0.1-0.2,0-0.3,0.2-0.4
				c0.4-0.1,0.8-0.2,1.3-0.3c0.2,0,0.4,0.1,0.4,0.2c0,0.2-0.1,0.3-0.2,0.4C502.7,116,502.3,116.1,501.8,116.2
				C501.8,116.2,501.8,116.2,501.8,116.2z M528.7,116.2C528.7,116.2,528.7,116.2,528.7,116.2c-0.5-0.1-0.9-0.2-1.3-0.3
				c-0.2,0-0.3-0.2-0.2-0.4c0-0.2,0.2-0.3,0.4-0.2c0.4,0.1,0.8,0.2,1.3,0.3c0.2,0,0.3,0.2,0.2,0.4
				C529,116.1,528.9,116.2,528.7,116.2z M504.3,115.6c-0.1,0-0.3-0.1-0.3-0.2c0-0.2,0.1-0.3,0.2-0.4c0.4-0.1,0.9-0.2,1.3-0.3
				c0.2,0,0.4,0.1,0.4,0.2c0,0.2-0.1,0.3-0.3,0.4C505.2,115.4,504.8,115.5,504.3,115.6C504.3,115.6,504.3,115.6,504.3,115.6z
				 M526.2,115.6C526.2,115.6,526.2,115.6,526.2,115.6c-0.5-0.1-0.9-0.2-1.3-0.3c-0.2,0-0.3-0.2-0.3-0.4c0-0.2,0.2-0.3,0.4-0.2
				c0.4,0.1,0.9,0.2,1.3,0.3c0.2,0,0.3,0.2,0.2,0.4C526.5,115.5,526.4,115.6,526.2,115.6z M506.8,115c-0.2,0-0.3-0.1-0.3-0.3
				c0-0.2,0.1-0.3,0.3-0.4c0.4-0.1,0.9-0.1,1.3-0.2c0.2,0,0.3,0.1,0.4,0.3c0,0.2-0.1,0.3-0.3,0.4C507.7,114.9,507.3,114.9,506.8,115
				C506.9,115,506.9,115,506.8,115z M523.7,115C523.7,115,523.6,115,523.7,115c-0.5-0.1-0.9-0.2-1.3-0.2c-0.2,0-0.3-0.2-0.3-0.4
				c0-0.2,0.2-0.3,0.4-0.3c0.4,0.1,0.9,0.1,1.3,0.2c0.2,0,0.3,0.2,0.3,0.4C524,114.9,523.8,115,523.7,115z M509.4,114.6
				c-0.2,0-0.3-0.1-0.3-0.3c0-0.2,0.1-0.3,0.3-0.4c0.4-0.1,0.9-0.1,1.3-0.1c0.2,0,0.3,0.1,0.4,0.3c0,0.2-0.1,0.3-0.3,0.3
				C510.3,114.5,509.9,114.6,509.4,114.6C509.4,114.6,509.4,114.6,509.4,114.6z M521.1,114.6C521.1,114.6,521.1,114.6,521.1,114.6
				c-0.5-0.1-0.9-0.1-1.3-0.1c-0.2,0-0.3-0.2-0.3-0.3c0-0.2,0.2-0.3,0.4-0.3c0.4,0,0.9,0.1,1.3,0.1c0.2,0,0.3,0.2,0.3,0.4
				C521.4,114.5,521.3,114.6,521.1,114.6z M512,114.4c-0.2,0-0.3-0.1-0.3-0.3c0-0.2,0.1-0.3,0.3-0.3c0.4,0,0.9,0,1.3-0.1
				c0.2,0,0.3,0.1,0.3,0.3c0,0.2-0.1,0.3-0.3,0.3C512.9,114.3,512.4,114.4,512,114.4C512,114.4,512,114.4,512,114.4z M518.5,114.4
				C518.5,114.4,518.5,114.4,518.5,114.4c-0.5,0-0.9,0-1.3-0.1c-0.2,0-0.3-0.2-0.3-0.3c0-0.2,0.2-0.3,0.3-0.3c0,0,0,0,0,0
				c0.4,0,0.9,0,1.3,0.1c0.2,0,0.3,0.2,0.3,0.3C518.8,114.3,518.7,114.4,518.5,114.4z M515.3,114.3c-0.2,0-0.5,0-0.7,0
				c-0.2,0-0.3-0.1-0.3-0.3c0-0.2,0.1-0.3,0.3-0.3l0,0c0.2,0,0.5,0,0.7,0c0.2,0,0.4,0,0.6,0h0c0.2,0,0.3,0.1,0.3,0.3
				c0,0.2-0.1,0.3-0.3,0.3C515.7,114.3,515.5,114.3,515.3,114.3z"/>
			<path class="st28" d="M478.9,126.7c-0.1,0-0.2-0.1-0.3-0.2c-0.1-0.1,0-0.3,0.1-0.4l0.6-0.3c0.2-0.1,0.4,0,0.5,0.1
				c0.1,0.1,0,0.3-0.1,0.4l-0.6,0.3C479,126.7,479,126.7,478.9,126.7z"/>
			<path class="st28" d="M478.9,129.2c-0.2,0-0.3-0.1-0.3-0.3c0-0.2,0.1-0.3,0.3-0.4c0.4-0.1,0.9-0.1,1.3-0.2c0.2,0,0.3,0.1,0.4,0.3
				c0,0.2-0.1,0.3-0.3,0.4C479.8,129,479.4,129.1,478.9,129.2C478.9,129.2,478.9,129.2,478.9,129.2z M550.4,129
				C550.4,129,550.4,129,550.4,129c-0.5-0.1-0.9-0.1-1.4-0.2c-0.2,0-0.3-0.2-0.3-0.4c0-0.2,0.2-0.3,0.4-0.3c0.4,0.1,0.9,0.1,1.3,0.2
				c0.2,0,0.3,0.2,0.3,0.4C550.7,128.9,550.6,129,550.4,129z M481.5,128.8c-0.2,0-0.3-0.1-0.3-0.3c0-0.2,0.1-0.3,0.3-0.4
				c0.4-0.1,0.9-0.1,1.3-0.2c0.2,0,0.3,0.1,0.4,0.3c0,0.2-0.1,0.3-0.3,0.4C482.4,128.6,482,128.7,481.5,128.8
				C481.5,128.8,481.5,128.8,481.5,128.8z M547.8,128.6C547.8,128.6,547.8,128.6,547.8,128.6c-0.5-0.1-0.9-0.1-1.4-0.2
				c-0.2,0-0.3-0.2-0.3-0.4c0-0.2,0.2-0.3,0.4-0.3c0.4,0.1,0.9,0.1,1.3,0.2c0.2,0,0.3,0.2,0.3,0.4
				C548.1,128.5,548,128.6,547.8,128.6z M484.1,128.4c-0.2,0-0.3-0.1-0.3-0.3c0-0.2,0.1-0.3,0.3-0.4c0.4-0.1,0.9-0.1,1.3-0.2
				c0.2,0,0.4,0.1,0.4,0.3c0,0.2-0.1,0.3-0.3,0.4C485,128.2,484.6,128.3,484.1,128.4C484.1,128.3,484.1,128.4,484.1,128.4z
				 M545.2,128.1C545.2,128.1,545.2,128.1,545.2,128.1c-0.5-0.1-0.9-0.2-1.4-0.2c-0.2,0-0.3-0.2-0.3-0.4c0-0.2,0.2-0.3,0.4-0.3
				c0.4,0.1,0.9,0.2,1.3,0.2c0.2,0,0.3,0.2,0.3,0.4C545.5,128,545.4,128.1,545.2,128.1z M486.7,127.9c-0.2,0-0.3-0.1-0.3-0.3
				c0-0.2,0.1-0.3,0.3-0.4c0.4-0.1,0.9-0.2,1.3-0.2c0.2,0,0.4,0.1,0.4,0.3c0,0.2-0.1,0.3-0.3,0.4
				C487.6,127.7,487.2,127.8,486.7,127.9C486.7,127.9,486.7,127.9,486.7,127.9z M542.6,127.7C542.6,127.7,542.6,127.7,542.6,127.7
				c-0.5-0.1-0.9-0.2-1.4-0.2c-0.2,0-0.3-0.2-0.3-0.4c0-0.2,0.2-0.3,0.4-0.3c0.4,0.1,0.9,0.2,1.3,0.2c0.2,0,0.3,0.2,0.3,0.4
				C542.9,127.6,542.8,127.7,542.6,127.7z M489.2,127.4c-0.2,0-0.3-0.1-0.3-0.3c0-0.2,0.1-0.3,0.3-0.4l1.3-0.2
				c0.2,0,0.4,0.1,0.4,0.3c0,0.2-0.1,0.3-0.3,0.4L489.2,127.4C489.3,127.4,489.3,127.4,489.2,127.4z M540,127.2
				C540,127.2,540,127.2,540,127.2l-1.4-0.2c-0.2,0-0.3-0.2-0.3-0.4c0-0.2,0.2-0.3,0.4-0.3l1.3,0.2c0.2,0,0.3,0.2,0.3,0.4
				C540.3,127.1,540.2,127.2,540,127.2z M491.8,126.9c-0.2,0-0.3-0.1-0.3-0.3c0-0.2,0.1-0.3,0.3-0.4l1.3-0.2c0.2,0,0.4,0.1,0.4,0.3
				c0,0.2-0.1,0.3-0.3,0.4L491.8,126.9C491.9,126.9,491.8,126.9,491.8,126.9z M537.5,126.7C537.4,126.7,537.4,126.7,537.5,126.7
				c-0.5-0.1-0.9-0.2-1.4-0.2c-0.2,0-0.3-0.2-0.3-0.4c0-0.2,0.2-0.3,0.4-0.3c0.4,0.1,0.9,0.2,1.3,0.2c0.2,0,0.3,0.2,0.3,0.4
				C537.7,126.6,537.6,126.7,537.5,126.7z M494.4,126.5c-0.2,0-0.3-0.1-0.3-0.3c0-0.2,0.1-0.3,0.3-0.4c0.4-0.1,0.9-0.2,1.3-0.2
				c0.2,0,0.4,0.1,0.4,0.3c0,0.2-0.1,0.3-0.3,0.4C495.3,126.3,494.9,126.4,494.4,126.5C494.4,126.5,494.4,126.5,494.4,126.5z
				 M534.9,126.2C534.8,126.2,534.8,126.2,534.9,126.2c-0.5-0.1-0.9-0.2-1.4-0.2c-0.2,0-0.3-0.2-0.3-0.4c0-0.2,0.2-0.3,0.4-0.3
				c0.4,0.1,0.9,0.1,1.3,0.2c0.2,0,0.3,0.2,0.3,0.4C535.2,126.1,535,126.2,534.9,126.2z M497,126c-0.2,0-0.3-0.1-0.3-0.3
				c0-0.2,0.1-0.3,0.3-0.4c0.4-0.1,0.9-0.1,1.3-0.2c0.2,0,0.3,0.1,0.4,0.3c0,0.2-0.1,0.3-0.3,0.4C497.9,125.9,497.5,125.9,497,126
				C497,126,497,126,497,126z M532.3,125.8C532.3,125.8,532.2,125.8,532.3,125.8c-0.5-0.1-0.9-0.1-1.3-0.2c-0.2,0-0.3-0.2-0.3-0.4
				c0-0.2,0.2-0.3,0.4-0.3c0.4,0.1,0.9,0.1,1.3,0.2c0.2,0,0.3,0.2,0.3,0.4C532.6,125.7,532.4,125.8,532.3,125.8z M499.6,125.6
				c-0.2,0-0.3-0.1-0.3-0.3c0-0.2,0.1-0.3,0.3-0.4c0.4-0.1,0.9-0.1,1.3-0.2c0.2,0,0.3,0.1,0.4,0.3c0,0.2-0.1,0.3-0.3,0.4
				C500.5,125.4,500.1,125.5,499.6,125.6C499.6,125.6,499.6,125.6,499.6,125.6z M529.7,125.4C529.7,125.4,529.7,125.4,529.7,125.4
				c-0.5-0.1-0.9-0.1-1.3-0.2c-0.2,0-0.3-0.2-0.3-0.4c0-0.2,0.2-0.3,0.4-0.3c0.4,0.1,0.9,0.1,1.3,0.2c0.2,0,0.3,0.2,0.3,0.4
				C530,125.3,529.8,125.4,529.7,125.4z M502.2,125.2c-0.2,0-0.3-0.1-0.3-0.3c0-0.2,0.1-0.3,0.3-0.4c0.4-0.1,0.9-0.1,1.3-0.2
				c0.2,0,0.3,0.1,0.4,0.3c0,0.2-0.1,0.3-0.3,0.4C503.1,125.1,502.7,125.1,502.2,125.2C502.2,125.2,502.2,125.2,502.2,125.2z
				 M527.1,125C527.1,125,527.1,125,527.1,125c-0.5-0.1-0.9-0.1-1.3-0.2c-0.2,0-0.3-0.2-0.3-0.4c0-0.2,0.2-0.3,0.4-0.3
				c0.4,0.1,0.9,0.1,1.3,0.2c0.2,0,0.3,0.2,0.3,0.4C527.4,124.9,527.2,125,527.1,125z M504.8,124.9c-0.2,0-0.3-0.1-0.3-0.3
				c0-0.2,0.1-0.3,0.3-0.4c0.4-0.1,0.9-0.1,1.3-0.1c0.2,0,0.3,0.1,0.4,0.3c0,0.2-0.1,0.3-0.3,0.3
				C505.7,124.8,505.3,124.8,504.8,124.9C504.8,124.9,504.8,124.9,504.8,124.9z M524.5,124.7C524.5,124.7,524.4,124.7,524.5,124.7
				c-0.5,0-0.9-0.1-1.3-0.1c-0.2,0-0.3-0.2-0.3-0.3c0-0.2,0.2-0.3,0.4-0.3c0.4,0,0.9,0.1,1.3,0.1c0.2,0,0.3,0.2,0.3,0.3
				C524.8,124.6,524.6,124.7,524.5,124.7z M507.4,124.6c-0.2,0-0.3-0.1-0.3-0.3c0-0.2,0.1-0.3,0.3-0.3c0.4,0,0.9-0.1,1.3-0.1
				c0.2,0,0.3,0.1,0.4,0.3c0,0.2-0.1,0.3-0.3,0.3C508.3,124.5,507.9,124.6,507.4,124.6C507.4,124.6,507.4,124.6,507.4,124.6z
				 M521.9,124.5C521.8,124.5,521.8,124.5,521.9,124.5c-0.5,0-0.9-0.1-1.3-0.1c-0.2,0-0.3-0.2-0.3-0.3c0-0.2,0.2-0.3,0.3-0.3
				c0.4,0,0.9,0.1,1.3,0.1c0.2,0,0.3,0.2,0.3,0.3C522.2,124.4,522,124.5,521.9,124.5z M510,124.4c-0.2,0-0.3-0.1-0.3-0.3
				c0-0.2,0.1-0.3,0.3-0.3c0.4,0,0.9,0,1.3-0.1c0.2,0,0.3,0.1,0.3,0.3c0,0.2-0.1,0.3-0.3,0.3C510.9,124.4,510.5,124.4,510,124.4
				C510,124.4,510,124.4,510,124.4z M519.2,124.3C519.2,124.3,519.2,124.3,519.2,124.3c-0.5,0-0.9,0-1.3,0c-0.2,0-0.3-0.1-0.3-0.3
				c0-0.2,0.2-0.3,0.3-0.3c0.4,0,0.9,0,1.3,0c0.2,0,0.3,0.2,0.3,0.3C519.6,124.2,519.4,124.3,519.2,124.3z M512.7,124.3
				c-0.2,0-0.3-0.1-0.3-0.3c0-0.2,0.1-0.3,0.3-0.3c0.4,0,0.9,0,1.3,0c0.2,0,0.3,0.1,0.3,0.3c0,0.2-0.1,0.3-0.3,0.3
				C513.5,124.3,513.1,124.3,512.7,124.3C512.7,124.3,512.7,124.3,512.7,124.3z M515.3,124.3c-0.2,0-0.3-0.1-0.3-0.3
				c0-0.2,0.1-0.3,0.3-0.3c0.4,0,0.8,0,1.1,0l0.2,0c0.2,0,0.3,0.1,0.3,0.3c0,0.2-0.1,0.3-0.3,0.3c0,0,0,0,0,0l-0.2,0
				C516,124.3,515.7,124.3,515.3,124.3C515.3,124.3,515.3,124.3,515.3,124.3z"/>
			<path class="st29" d="M515.3,116.3c-0.9-0.8-2.3-0.8-3.1,0c-0.9,0.8-0.9,2.2,0,3l3.1,3l3.1-3c0.9-0.8,0.9-2.2,0-3
				C517.5,115.4,516.1,115.4,515.3,116.3z"/>
			<path class="st29" d="M516.6,103.5c0,0.7-0.6,1.3-1.4,1.3s-1.4-0.6-1.4-1.3c0-0.7,0.6-1.3,1.4-1.3S516.6,102.8,516.6,103.5z"/>
			<path class="st29" d="M515.9,97.3c0,0.3-0.3,0.6-0.6,0.6c-0.4,0-0.6-0.3-0.6-0.6c0-0.3,0.3-0.6,0.6-0.6
				C515.6,96.7,515.9,96.9,515.9,97.3z"/>
			<path class="st29" d="M533.8,106.7c0,0.6-0.5,1-1.1,1c-0.6,0-1.1-0.5-1.1-1c0-0.6,0.5-1,1.1-1
				C533.4,105.6,533.8,106.1,533.8,106.7z"/>
			<path class="st29" d="M533.3,102.1c0,0.3-0.2,0.5-0.5,0.5c-0.3,0-0.5-0.2-0.5-0.5c0-0.3,0.2-0.5,0.5-0.5
				C533,101.6,533.3,101.8,533.3,102.1z"/>
			<path class="st29" d="M552.7,118.8c0,0.6-0.5,1-1.1,1c-0.6,0-1.1-0.5-1.1-1c0-0.6,0.5-1,1.1-1
				C552.2,117.8,552.7,118.2,552.7,118.8z"/>
			<path class="st29" d="M552.1,114.2c0,0.3-0.2,0.5-0.5,0.5c-0.3,0-0.5-0.2-0.5-0.5c0-0.3,0.2-0.5,0.5-0.5
				C551.9,113.8,552.1,114,552.1,114.2z"/>
			<path class="st29" d="M480,118.8c0,0.6-0.5,1-1.1,1c-0.6,0-1.1-0.5-1.1-1c0-0.6,0.5-1,1.1-1C479.5,117.8,480,118.2,480,118.8z"/>
			<path class="st29" d="M479.4,114.2c0,0.3-0.2,0.5-0.5,0.5c-0.3,0-0.5-0.2-0.5-0.5c0-0.3,0.2-0.5,0.5-0.5
				C479.2,113.8,479.4,114,479.4,114.2z"/>
			<path class="st29" d="M499,106.7c0,0.6-0.5,1-1.1,1c-0.6,0-1.1-0.5-1.1-1c0-0.6,0.5-1,1.1-1C498.5,105.6,499,106.1,499,106.7z"/>
			<path class="st29" d="M498.4,102.1c0,0.3-0.2,0.5-0.5,0.5c-0.3,0-0.5-0.2-0.5-0.5c0-0.3,0.2-0.5,0.5-0.5
				C498.2,101.6,498.4,101.8,498.4,102.1z"/>
		</g>
	</g>
</g>
</svg>
