<?xml version="1.0" encoding="utf-8"?>
<!-- Generator: Adobe Illustrator 26.0.1, SVG Export Plug-In . SVG Version: 6.00 Build 0)  -->
<svg version="1.1" id="Layer_1" xmlns="http://www.w3.org/2000/svg" xmlns:xlink="http://www.w3.org/1999/xlink" x="0px" y="0px"
	 viewBox="0 0 1000 1000" style="enable-background:new 0 0 1000 1000;" xml:space="preserve">
<style type="text/css">
	.st0{clip-path:url(#SVGID_00000153691813356019710770000013301987281631514510_);fill:#FFEAD4;}
	.st1{clip-path:url(#SVGID_00000153691813356019710770000013301987281631514510_);}
	.st2{fill:#F6F0E2;}
	.st3{fill:#FFFFFF;}
	.st4{fill:#E8CAA7;}
	.st5{clip-path:url(#SVGID_00000153691813356019710770000013301987281631514510_);fill:#E8CAA7;}
	.st6{fill:#415CA0;}
	.st7{fill:#345389;}
	.st8{fill:#EBC9AF;}
	.st9{fill:#FCA170;}
	.st10{fill:#EF926A;}
	.st11{fill:#17140C;}
	.st12{fill:#8A5D3B;}
	.st13{fill:#3B2314;}
	.st14{fill:#F49064;}
	.st15{fill:#030202;}
	.st16{fill:#F99C73;}
	.st17{fill:none;stroke:#345389;stroke-width:1.0757;stroke-miterlimit:10;}
	.st18{fill:#3D3D3D;}
	.st19{fill:#A34F2E;}
	.st20{clip-path:url(#SVGID_00000153691813356019710770000013301987281631514510_);fill:#7C3A25;}
	.st21{fill:#E80F2E;}
	.st22{fill:#1021B5;}
	.st23{clip-path:url(#SVGID_00000153691813356019710770000013301987281631514510_);fill:#4F4E4E;}
	.st24{clip-path:url(#SVGID_00000153691813356019710770000013301987281631514510_);fill:#3A3A3A;}
	.st25{clip-path:url(#SVGID_00000153691813356019710770000013301987281631514510_);fill:#BCA18C;}
	.st26{fill:#D5B792;}
	.st27{opacity:0.5;}
	.st28{fill:#F7DFC6;}
	.st29{opacity:0.5;fill:#F7DFC6;}
	.st30{fill:#C5B68E;}
	.st31{fill:#C4B58D;}
	.st32{fill:#EACFAF;}
	.st33{opacity:0.5;fill:#EACFAF;}
	.st34{opacity:0.3;fill:#E8CAA7;}
	.st35{fill:#DFC39D;}
	.st36{fill:#CCB991;}
	.st37{fill:none;stroke:#C5B68E;stroke-width:8.122386e-02;stroke-miterlimit:10;}
	.st38{fill:#C4B596;}
	.st39{fill:#F7B89F;}
	.st40{fill:#D19182;}
	.st41{fill:#726562;}
	.st42{fill:#CCA279;}
	.st43{fill:#3F3F3F;}
	.st44{fill:#515151;}
	.st45{fill:#1E1E1E;}
	.st46{fill:#DC2428;}
	.st47{fill:none;stroke:#E2DCDC;stroke-width:2;stroke-miterlimit:10;}
	.st48{fill:#E09A61;}
	.st49{fill:none;}
	.st50{fill:#C47947;}
	.st51{fill:#847977;}
	.st52{fill:#EFB78E;}
</style>
<g>
	<g>
		<g>
			<defs>
				<path id="SVGID_1_" d="M173,694.7c-2.4-3.5-48.7-52.1-44.2-118.7c4-57.6,43.4-95.4,111.5-160.9c67.9-65.2,72.4-47.9,113.3-95
					c63.1-72.8,61.6-124.8,120-149.6c12.4-5.3,48.2-20.5,82.1-6.7c44.3,18,55.2,70.8,109.7,101.7c51.8,29.3,73.4,4.9,106,33.3
					c45.6,39.6,33.1,116.6,48.9,177.5c14.8,57.3,57.9,108.7,50.2,167.6c-6,45.4-42.4,80.6-82.4,95.6s-83.5,13.9-125.8,12.5
					c-95.7-3.1-192.4-9.1-287.6-5.3C312.9,749.2,216,756.8,173,694.7z"/>
			</defs>
			<clipPath id="SVGID_00000143616196048997532250000014405533632580166020_">
				<use xlink:href="#SVGID_1_"  style="overflow:visible;"/>
			</clipPath>
			<path style="clip-path:url(#SVGID_00000143616196048997532250000014405533632580166020_);fill:#FFEAD4;" d="M870.5,643.8
				c-6,45.4-42.4,80.6-82.4,95.6c-40,15.1-83.5,13.9-125.8,12.5c-95.7-3.1-192.4-9.1-287.6-5.3c-53.1,2.1-131.9,8-180.4-29.5
				c-8-6.2-15.2-13.6-21.3-22.5c-42.8-53.9-44.8-100-44.2-118.7c1.9-53.2,32.6-96,65.5-129.2c16.2-16.3,32.9-30.3,46.9-42.1
				c12.8-10.7,26.9-19.7,42.9-30.8c26.3-18.2,31.2-20.4,41.9-29.6c15.1-13.1,24.9-25.4,32.3-35.3c52.6-69.7,56-101.9,90-126.2
				c24.9-17.8,69.4-31.2,107.3-19.1c52.7,16.8,46.6,66,109.7,101.7c51.8,29.3,73.4,4.9,106,33.3c45.6,39.6,33.1,116.6,48.9,177.5
				C835.2,533.5,878.2,584.9,870.5,643.8z"/>
			<g style="clip-path:url(#SVGID_00000143616196048997532250000014405533632580166020_);">
				<path class="st2" d="M221.4,757.3c-5.7-12.2-14-34.1-14.9-62.5c-0.9-28.6,6.1-51,11.1-63.6c8.7,10.5,20.9,27.9,29.2,51.9
					c9.8,28.3,9.8,53,8.7,67.5C244.1,752.9,232.7,755.1,221.4,757.3z"/>
				<path class="st3" d="M237.9,754.3c-4.7-9.4-7.2-19.7-9.4-29.9c-6.3-30.7-9.1-61.9-11-93.1c2.1,31.2,5.2,62.4,11.8,93
					c2.3,10.1,4.9,20.3,9.6,29.5C238.9,753.7,237.9,754.3,237.9,754.3L237.9,754.3z"/>
			</g>
			<g style="clip-path:url(#SVGID_00000143616196048997532250000014405533632580166020_);">
				<path class="st4" d="M274.2,751.1c3.9-19.1,8.9-52.8,5.7-94.6c-3.3-42-13.5-73.3-20.2-90.6c-7.1,17.3-16.6,45.2-21.3,82.2
					c-5.6,43.5-2,79.6,1.3,100.6C251.1,749.5,262.7,750.3,274.2,751.1z"/>
				<path class="st3" d="M256.2,749.7c3.4-14.9,4.4-30.3,5.2-45.6c2-46,0.6-92.2-1.8-138.2c3,53.7,5.7,107.6,1.4,161.3
					c-0.7,7.7-1.7,15.3-3.4,22.9L256.2,749.7L256.2,749.7z"/>
			</g>
			<g style="clip-path:url(#SVGID_00000143616196048997532250000014405533632580166020_);">
				<path class="st2" d="M294.9,751.1c2.3-11.1,5.2-30.7,3.3-55c-1.9-24.4-7.8-42.6-11.8-52.7c-4.1,10.1-9.7,26.3-12.4,47.8
					c-3.2,25.3-1.1,46.3,0.7,58.5C281.4,750.1,288.2,750.6,294.9,751.1z"/>
				<path class="st3" d="M284.4,750.3c1.4-6.3,2.2-13.4,2.6-19.9c1.8-29,0.8-58.1-0.7-87c1.7,29,2.9,58.1,1.3,87.1
					c-0.4,6.5-1.2,13.6-2.5,20C285.2,750.5,284.4,750.3,284.4,750.3L284.4,750.3z"/>
			</g>
			<path style="clip-path:url(#SVGID_00000143616196048997532250000014405533632580166020_);fill:#E8CAA7;" d="M194.3,446.9v270.3
				c-8-6.2-15.2-13.6-21.3-22.5c-42.8-53.9-44.8-100-44.2-118.7C130.7,522.8,161.4,480,194.3,446.9z"/>
			<g style="clip-path:url(#SVGID_00000143616196048997532250000014405533632580166020_);">
				<g>
					<g>
						<path class="st6" d="M686.1,551.6c-1.1,12.1-4.8,21.3-7.6,26.7c0,7.4,0,14.7,0.1,22.1c-12.8-0.2-26.1-0.1-40,0.4
							c-14.9,0.5-29.2,1.4-42.9,2.6c0.1-2.4,0.1-4.9,0.1-7.4c0-2.4,0-4.8,0-7.1c-6.8-0.2-13.6-0.5-20.4-0.7c-1.6,0-3.1-0.8-4-2
							c-0.7-0.9-1.1-2-1.2-3.1c0-0.5-0.1-1,0-1.6c0.9-11.5,2.6-21.1,4.1-28.5c1-3.8,6.2-22.6,11-31c1.2-2.1,2.1-3.1,2.7-3.7
							c2.5-2.5,4.8-3.1,11.8-6.1c1.3-0.5,3.1-1.3,5.2-2.3c0,0,7-3.1,17.2-6.1c1.1-0.3,2.1-0.6,3-0.8c1.9-0.6,4.8-1.3,8.3-1.5
							c4.8-0.2,8.2,0.6,15.3,2.7c0.2,0.1,0.3,0.1,0.6,0.2c0,0,0,0,0,0c0.7,0.2,1.2,0.4,1.2,0.4c5.1,1.6,12.3,5.1,12.3,5.1
							c2.1,0.9,4.4,2,6.7,3.3c5.2,2.9,9.5,6.1,12.9,9c0.2,0.2,0.3,0.3,0.4,0.5C684.8,528.8,687.2,538.9,686.1,551.6z"/>
						<polygon class="st3" points="629.1,525.2 632.6,545.7 634.6,597.7 635.9,597.7 638,555.5 643.8,519 						"/>
						<path class="st7" d="M629.8,529.8c1.3-1.4,3.3-3.4,6.4-5.1c3.6-2,7-2.6,9.1-2.8c-1.7,2.5-3.3,4.9-5,7.4
							C636.8,529.4,633.3,529.6,629.8,529.8z"/>
						<path class="st7" d="M601.9,543.9c-1.7,9.1-3.4,18.1-5.1,27.2c1.6,0.5,3.1,1,4.7,1.6C601.6,563.1,601.7,553.5,601.9,543.9z"/>
						<path class="st8" d="M648.8,504.8c-2.7,1.7-6.5,4.6-10.1,9.2c-3.2,4.2-5,8.3-6,11.2c-0.3-2.6-1-6.4-3-10.5
							c-2.3-4.9-5.4-8.2-7.4-10c0-0.1,0-0.2,0-0.3c1.1-0.4,2.1-0.7,3-1c1.9-0.7,4.8-1.6,8.3-1.8
							C638.3,501.3,641.7,502.3,648.8,504.8z"/>
						<g>
							<g>
								<g>
									<polygon class="st9" points="648.7,514.9 647.5,502.6 647.4,501.5 647.3,500.8 646.6,493.7 623.2,493.7 622.4,501.2 
										622.4,501.9 622.3,503 621,515.4 									"/>
									<g>
										<path class="st9" d="M657.9,464.7c0.6-0.2,0.7-0.5,1.2-0.4c0.3,0.1,0.9,0.5,1.1,1c0.2,0.7,0.5,2,0.1,3.5
											c-0.1,0.5-0.5,2.4-0.8,3.2c-0.4,1-0.8,4.1-1.1,4.8c-0.3,0.7-0.9,3.1-1.4,3.7c-0.4,0.7-0.8,1.8-2.2,2
											c-0.5,0.1-0.9-0.1-0.9-0.1s-0.9-8.4-0.7-10c0.2-1.7,1.7-5.1,1.9-5.9C655.4,465.7,657.9,464.7,657.9,464.7z"/>
										<path class="st9" d="M611.9,465.2c-0.6-0.2-0.7-0.5-1.2-0.4c-0.3,0.1-0.9,0.5-1.1,1c-0.2,0.7-0.6,2-0.2,3.5
											c0.1,0.5,0.5,2.5,0.8,3.3c0.4,1,0.7,4.1,1,4.8c0.3,0.7,0.9,3.1,1.3,3.7c0.4,0.7,0.8,1.8,2.1,2c0.5,0.1,0.9-0.1,0.9-0.1
											s1-8.3,0.8-10c-0.1-1.7-1.6-5.1-1.8-5.9S611.9,465.2,611.9,465.2z"/>
										<path class="st10" d="M647.3,500.8c-0.8,0.8-1.5,1.6-2,2c-1.2,1.1-5.5,4.4-5.8,4.7c-0.7,0.7-3,1-5.3,1
											c-2.3-0.1-4.5-0.5-5.2-1.2c-0.3-0.3-4.5-3.8-5.6-5c-0.2-0.2-0.6-0.6-0.9-1l0.8-7.5h23.3L647.3,500.8z"/>
										<path class="st9" d="M634.2,505.2c-2.3-0.1-4.6-0.5-5.3-1.3c-0.3-0.3-4.5-3.8-5.6-5c-1-1-3.7-4.1-4.2-5s-1.4-2.2-2.1-3.2
											c-0.7-0.9-0.8-2.4-1-3c-0.2-0.5-0.4-2.7-0.4-3.5c0-0.7-0.2-4.3-0.5-5.6c-0.2-1.3-0.3-2.1-0.5-3.5c-0.3-1.5-0.2-4-0.2-5.2
											c0-0.8-0.1-2.5-0.1-2.5s-0.8-7.7-1-9.8c-0.2-2,1.9-11.8,2.8-13.3c0.9-1.5,6.5-3.5,14.1-4.8c1.8-0.3,3.4-0.4,4.9-0.5
											l0.3-0.1c1.8,0.1,3.8,0.4,6.1,0.9c7.6,1.6,13.1,3.9,13.9,5.5c0.8,1.5,2.4,11.4,2.1,13.4c-0.3,2-1.5,9.7-1.5,9.7
											s-0.2,1.7-0.2,2.5c-0.1,1.2-0.1,3.7-0.5,5.2c-0.3,1.4-0.4,2.2-0.7,3.5c-0.3,1.3-0.7,4.9-0.7,5.6c0,0.7-0.4,2.9-0.6,3.4
											c-0.2,0.5-0.5,2-1.2,2.9c-0.7,0.9-1.6,2.2-2.2,3.1c-0.6,0.8-3.4,3.8-4.5,4.8c-1.2,1.1-5.5,4.4-5.8,4.7
											C638.8,504.9,636.4,505.3,634.2,505.2L634.2,505.2z"/>
										<path class="st11" d="M610.7,444.1c0.7-2.5,2.2-4.6,3.5-6.5c0.8-1.3,2.4-2.4,4.3-3.3c4.5-2.2,18.6-3.8,22.4-3.2
											c3.3,0.5,6.5,1.2,9.2,2.5c3.5,1.7,5.4,5.4,6.4,8.2c2.3,1.7,3.2,3.5,3.7,4.7c0.4,1,0.5,1.8-0.7,10.9
											c-0.2,1.6-0.5,3.9-1.2,6.8c-0.4,1.6-0.5,2.4-1,3.3c-0.5,1-1.3,2.6-1.6,3.5c-0.3,0.9-0.4,2.2-0.4,2.2
											c-0.2,0.1-0.5,0.2-0.7,0.3c0-4.3-1-7.5-2.5-10c-0.5-0.9-0.9-1.2-1.3-2.1c-1.6-3.3-0.8-6.9,0.2-9.6
											c-4.5,2.5-13.7,6.8-25,5.5c-2.7-0.3-5.2-0.9-7.3-1.6c0,0.4,0.1,0.9,0,1.6c-0.1,1.3-0.5,2.3-0.7,2.7
											c-0.7,1.6-1.2,3.3-1.8,4.9c-1.1,3.4-1.3,6.4-1.3,8.4c-0.2,0.1-0.5,0.1-0.7,0.2c0,0-0.1-1.3-0.4-2.2
											c-0.3-0.9-1.1-2.5-1.6-3.5c-0.5-1-1-2.8-1-3.3c0-0.5-0.5-2.7-0.8-4.2c-0.3-1.4-0.5-2.8-0.5-4.2c-0.1-1.4-0.1-2.8,0-3.9
											c0-1.2,0.1-2.4,0.2-3.6C610.3,446.4,610.5,444.6,610.7,444.1z"/>
									</g>
									<g>
										<path class="st3" d="M629.3,474.3c-0.7,0.4-2.2,1.2-4.2,1.3c-2.6,0-4.5-1.3-5.1-1.8c0.8-1,1.8-1.7,2.9-2
											c1.1-0.4,2.2-0.4,3.3,0c0.3,0.1,0.5,0.2,0.7,0.3C628.3,472.7,629,473.8,629.3,474.3z"/>
										<path class="st12" d="M626.7,473.3c0,1.3-1.4,2.3-2.6,2.2c-1.2-0.1-2.4-1.3-2.3-2.6c0-0.4,0.2-0.8,0.5-1.1
											c1.1-0.4,2.2-0.4,3.3,0c0.2,0.1,0.5,0.2,0.7,0.3C626.6,472.4,626.7,472.8,626.7,473.3z"/>
										<path d="M622.5,473.5c0,0.7,0.6,1.3,1.3,1.3c0.8,0,1.5-0.7,1.4-1.5c0-0.8-0.8-1.4-1.6-1.3
											C623,472.1,622.5,472.7,622.5,473.5z"/>
										<path class="st3" d="M624.7,473.1c0,0.2,0.2,0.3,0.3,0.3c0.2,0,0.3-0.2,0.3-0.3c0-0.2-0.2-0.3-0.3-0.3
											C624.8,472.7,624.7,472.9,624.7,473.1z"/>
										<path class="st13" d="M629.9,466.2c-5.9-1.1-10.4-1-11.6-0.2c-0.8,0.6-1.3,1.3-1.3,1.3c-0.4,0.7-0.6,1.3-0.7,1.7
											c0.5-0.3,1.2-0.7,2.1-1c1.3-0.4,2.6-0.6,5.7-0.3c1.5,0.1,3.5,0.4,5.9,0.8c0.1-0.2,0.1-0.5,0.1-0.7
											C630.1,467.2,630,466.6,629.9,466.2z"/>
										<path class="st13" d="M638.7,466.2c5.9-1.1,10.4-1,11.6-0.2c0.8,0.6,1.3,1.3,1.3,1.3c0.4,0.7,0.6,1.3,0.7,1.7
											c-0.5-0.3-1.2-0.7-2.1-1c-1.3-0.4-2.6-0.6-5.7-0.3c-1.5,0.1-3.5,0.4-5.9,0.8c-0.1-0.2-0.1-0.5-0.1-0.7
											C638.5,467.2,638.6,466.6,638.7,466.2z"/>
										<path class="st13" d="M629.3,474.3c-0.4-0.4-2.1-2.1-4.8-2.2c-2.4-0.1-4.1,1.3-4.6,1.7c0.1-0.1,1.8-2.8,4.8-2.6
											C627.8,471.4,629.3,474.1,629.3,474.3z"/>
									</g>
									<g>
										<path class="st3" d="M640,474.6c0.8,0.4,2.5,1.1,4.7,1c2.9-0.1,4.8-1.5,5.5-2.1c-1-0.9-2.1-1.5-3.3-1.8
											c-1.2-0.3-2.5-0.3-3.6,0.2c-0.3,0.1-0.5,0.2-0.8,0.3C641.1,472.9,640.3,474.1,640,474.6z"/>
										<path class="st12" d="M641.8,473.5c0.1,1.3,1.6,2.2,3,2c1.3-0.2,2.6-1.5,2.3-2.7c-0.1-0.4-0.3-0.8-0.6-1.1
											c-1.2-0.3-2.5-0.3-3.6,0.2c-0.3,0.1-0.5,0.2-0.8,0.3C641.9,472.6,641.7,473,641.8,473.5z"/>
										<path d="M645.5,473.3c0,0.8-0.6,1.4-1.4,1.4c-0.8,0-1.4-0.6-1.4-1.4c0-0.8,0.6-1.4,1.4-1.4
											C644.8,471.9,645.5,472.5,645.5,473.3z"/>
										<path class="st3" d="M645.6,473c0,0.2-0.1,0.3-0.3,0.3s-0.3-0.1-0.3-0.3c0-0.2,0.1-0.3,0.3-0.3S645.6,472.8,645.6,473z"/>
										<path class="st13" d="M640,474.6c0.4-0.4,2.2-2.2,5.1-2.5c2.7-0.2,4.6,1.1,5.1,1.4c-0.1-0.1-2.2-2.7-5.5-2.3
											C641.6,471.6,640.1,474.4,640,474.6z"/>
									</g>
									<g>
										<g>
											<path class="st14" d="M638.3,485.6c0.1,0.2-1.6,1.9-3.6,1.7c-1.6-0.1-2.9-1.4-2.8-1.6c0.1-0.2,1.1,0.6,2.8,0.7
												C636.9,486.5,638.3,485.5,638.3,485.6z"/>
										</g>
									</g>
									<g>
										<path class="st14" d="M637.1,494.3c-0.9,0-3.8,0.1-7.5-0.4c-1.3-0.2-1.9-0.3-1.9-0.4c0-0.4,3.6-0.8,7.2-0.8
											c3.4,0.1,6.9,0.7,6.9,1C641.7,494.1,639,494.3,637.1,494.3z"/>
									</g>
									<g>
										<path class="st14" d="M637.6,497.2c-0.2,0.2-1.3,1-2.8,1c-1.4,0-2.4-0.8-2.6-1c0.8,0,1.7,0.1,2.6,0.1
											C635.8,497.3,636.7,497.3,637.6,497.2z"/>
									</g>
									<g>
										<path class="st13" d="M634.5,489.1c0.1,0.2,0.3,0.7,0.4,1.2c0,0.5-0.1,1-0.1,1.2c-1.5,0.1-2.8,0-3.6-0.1
											c-1.8-0.2-2.3-0.5-3.5-0.4c-1.9,0.3-2.8,1.5-3.1,1.2c-0.2-0.3,0.5-2,2-2.7c1.5-0.7,2.5,0.1,5.3-0.1
											C633,489.5,633.9,489.3,634.5,489.1z"/>
									</g>
									<g>
										<path class="st13" d="M635.5,489.1c-0.1,0.2-0.3,0.7-0.4,1.2c0,0.5,0.1,1,0.1,1.2c1.5,0.1,2.8,0,3.6-0.1
											c1.8-0.2,2.3-0.5,3.5-0.4c1.9,0.3,2.8,1.5,3.1,1.2c0.2-0.3-0.5-2-2-2.7c-1.5-0.7-2.5,0.1-5.3-0.1
											C637,489.5,636.1,489.3,635.5,489.1z"/>
									</g>
								</g>
								<path class="st15" d="M655.6,469.9c-0.2,0-0.4,0.1-0.6,0.1c-0.2,0-0.3,0-0.5,0l0,0c-0.8-0.1-1.4-0.4-1.7-0.6
									c0,0-1.6-1-2.5-1.5c-0.5-0.3-1.1-0.5-1.6-0.6c-1.6-0.5-3.1-0.4-3.7-0.4c-0.3,0-0.7,0-1.2,0.1l0,0c-0.7,0.1-1.7,0.4-2.7,0.8
									c-1,0.4-1.7,0.9-2.2,1.3c-0.3,0.3-0.7,0.4-1,0.2c-0.3-0.1-0.5-0.4-0.6-0.6c-0.1-0.1-0.2-0.2-0.3-0.2l-4.1-0.1
									c-0.1,0-0.2,0.1-0.3,0.2c-0.1,0.2-0.3,0.4-0.6,0.5c-0.4,0.1-0.7,0-1-0.3c-0.5-0.4-1.2-0.9-2.2-1.4c-0.8-0.4-1.6-0.7-2.3-0.8
									l0,0c-0.7-0.2-1.3-0.2-1.6-0.3c-0.3,0-1-0.1-1.7,0c-1,0.1-2.3,0.3-3.5,0.9c-1,0.5-2.6,1.5-2.6,1.5c-0.1,0.1-0.3,0.2-0.5,0.3
									c-0.2,0.1-0.4,0.2-0.6,0.2c-0.2,0-0.3,0.1-0.5,0.1c-0.2,0-0.4,0-0.5,0c-0.2,0-0.4-0.1-0.6-0.1c0,0.1,0,0.3,0,0.4l0,0
									c0,0.7-0.1,1.3-0.1,2c0.3,0,0.6,0,0.9,0.1c0.1,0,0.2,0,0.3,0.1c0.1,0,0.2,0.1,0.3,0.2c0.2,0.2,0.1,0.5,0.1,0.6
									c0,0.2,0,0.4,0,0.6c0.1,0.6,0.2,1.4,0.5,2.3c0,0,0,0,0,0c0.2,0.6,0.5,1.3,0.8,1.9c0.3,0.5,0.6,1,1,1.6
									c0.4,0.5,0.9,1,1.5,1.5c2.3,1.6,4.8,1.4,5.4,1.4c0.6-0.1,2.6-0.3,4.4-1.9c1.3-1.2,1.8-2.6,2.3-3.8c0.6-1.6,0.8-2.9,0.8-3.9
									c0-0.1,0-0.1,0-0.2c-0.1-0.2-0.4-0.9-0.1-1.4c0.2-0.3,0.6-0.4,1-0.6c0.4-0.1,2.3-0.1,2.8,0c0.4,0.1,0.8,0.2,1,0.6
									c0.3,0.5,0,1.2-0.1,1.4c0,0,0,0.1,0,0.1c0,1,0.1,2.3,0.7,3.9c0.4,1.2,0.9,2.6,2.2,3.9c1.7,1.6,3.7,2,4.3,2.1
									c0.7,0.1,3.1,0.4,5.5-1.2c1.4-0.9,2.2-2.1,2.7-3c1.1-1.9,1.5-3.7,1.6-4.7c0-0.1,0-0.4,0.2-0.6c0.1-0.1,0.2-0.2,0.3-0.2
									c0,0,0.1,0,0.1,0c0.1,0,0.3-0.1,0.4-0.1c0.2,0,0.4,0,0.6,0C655.6,471.6,655.6,470.8,655.6,469.9z M631.2,473.9
									c-0.2,2.4-1.5,4-1.9,4.5c-0.5,0.5-1.3,1.5-2.8,2.1c-3,1.1-5.7-0.6-6-0.8s-1.8-1.2-2.6-2.9c-0.3-0.6-0.5-1.2-0.6-1.9
									c-0.1-0.7-0.1-1.3,0-1.9c0.1-0.8,0.3-1.4,0.5-1.8c0.2-0.4,0.9-2,2.5-2.9c1-0.6,1.9-0.7,3-0.7c0.4,0,0.8,0,1.3,0l0.1,0
									c1.2,0.1,2.8,0.1,4.3,1.1c0.5,0.3,1.4,0.9,2,2C631.3,472,631.2,473.2,631.2,473.9z M652.5,475.5c-0.6,3-3,4.4-3.4,4.7
									c-0.4,0.2-3.1,1.8-6,0.6c-1.5-0.6-2.3-1.6-2.8-2.2c-0.4-0.5-1.7-2.1-1.8-4.6c0-0.7-0.1-1.9,0.6-3.1c0.6-1.1,1.5-1.6,2-2
									c1.6-1,3.2-1,4.4-1c0.4,0,0.7,0,1.1,0l0,0c0.7,0,1.4,0.1,2.1,0.3c0.4,0.1,0.7,0.3,1.1,0.5c1.6,1,2.2,2.5,2.4,3
									C652.4,472.4,652.8,473.8,652.5,475.5z"/>
							</g>
							<path class="st7" d="M647.6,503.6c-1.2,1.5-2.5,3.1-3.8,4.7c-1.9,2.2-3.8,4.2-5.7,6.1c-0.3,16.3-0.7,32.6-1,48.8
								c-0.3,16.3-1.2,28.5-1,28.5c0.2,0,0.9-7.9,3.1-41.9c3.2-6.3,6.4-12.7,9.6-19c-1.9-0.9-3.8-1.8-5.7-2.7
								c1.9-1.8,3.7-3.7,5.6-5.5c-0.1-2.8,0-6.4,0.8-10.5c0.6-2.8,1.3-5.2,2.1-7.2C650.4,504.5,649,504.1,647.6,503.6z"/>
							<path class="st7" d="M622.1,503.8c-1.8,0.6-3.6,1.2-5.5,1.7c1.1,2.4,2.3,5.4,3.2,8.9c1,4.1,1.3,7.8,1.4,10.7
								c2.3,0.5,4.6,1,7,1.5c-1.9,1.4-3.8,2.7-5.8,4.1c3.3,6,6.5,12.1,9.8,18.1c1.2,35.6,1.8,43.2,2.1,43.2c0.5,0,1.2-15.5,0.5-28.9
								c-0.7-12.6-1.4-25.2-2.1-37.8c-1.4-4.5-3.4-9.7-6.6-15.2C624.8,507.7,623.5,505.6,622.1,503.8z"/>
							<path class="st7" d="M661.5,584.2c-13.9,2.5-29.9,4.5-47.5,5.2c-13.3,0.5-25.7,0.3-36.9-0.4c-1.7-0.2-2.9-0.8-3.6-1.1
								c-0.7-0.4-1.4-0.8-2.1-1.5c-0.7-0.9-1.1-2-1.2-3.1c5.8,6.8,27.7,3.6,44.9,3.2c13.4-0.3,25.3-1.7,35.6-3.5
								c-0.8-1.1-1.6-2.4-2.4-3.8c-0.9-1.5-1.6-3-2.2-4.3c-7.4,0.4-15.6,0.5-24.4,0c-7.3-0.4-14-1.1-20.2-2c-1.5-1.3-2.9-2.6-4.4-4
								c10.3,1.4,21.5,2.5,33.7,2.9c8.4,0.3,16.4,0.2,23.9-0.1c0.7,1.1,1.4,2.3,2.1,3.6C658.7,578.2,660.2,581.3,661.5,584.2z"/>
							<path class="st6" d="M570.2,583.2c12.5,2.1,27.7,3.6,44.9,3.2c13.4-0.3,25.3-1.7,35.6-3.5c-0.8-1.1-1.6-2.4-2.4-3.8
								c-0.9-1.5-1.6-3-2.2-4.3c-7.4,0.4-15.6,0.5-24.4,0c-7.3-0.4-14-1.1-20.2-2"/>
						</g>
						<g>
							<g>
								<path class="st16" d="M639.4,519c-0.2-0.5-0.4-1-0.5-1.2c0-0.1-0.1-0.2-0.1-0.2c0,0,0,0,0,0c0-0.1,0.2-0.5,0.3-0.6
									c0.1-0.1,0.1-0.2,0.2-0.3c0.9-1.6,1.7-3.4,1.7-5.3v-0.1l0-0.2c0-0.6,0-1.2,0-1.8c0,0,0,0,0,0c0.1-1.7,0.5-3.4,1.8-4.6
									c0.1-0.1,0.3-0.3,0.5-0.4c0.6-0.5,1.2-1,1.2-1.7c0-0.7-0.7-1.2-1.4-1.2c-0.6,0-1.3,0.2-2,0.7c-2.3,1.6-3.5,3.7-3.6,5.8
									c0,0.1-0.1,0.1-0.1,0.2c-0.1,0-0.2,0-0.2-0.1c-0.7-2.3-1.5-5-3.1-7c-1.6-1.8-4.4-3.1-6.8-2.1c-0.2,0.1-0.3,0.2-0.5,0.3
									c-0.4,0.3-0.8,0.7-0.7,1.2c0,0.2,0.1,0.4,0.2,0.5c0,0,0,0,0,0c0,0,0,0.1,0,0.1c0,0.1,0.1,0.2,0,0.2c0,0.2-0.1,0.3-0.2,0.4
									c0,0-0.1,0.1-0.1,0.1c-0.1,0.1-0.2,0.1-0.2,0.1c-0.3,0.1-0.7,0.2-1,0.3c-0.4,0.1-1.2,0.4-1.4,1c0,0.1-0.1,0.2-0.1,0.3
									c0,0.1,0,0.3,0.1,0.4v0c0,0.1,0,0.1,0,0.2c0,0.3-0.2,0.6-0.5,0.7c0,0-0.1,0-0.1,0h0c0,0,0,0,0,0c-0.9,0-1.2,0.1-1.9,0.4
									c-0.3,0.1-1.7,1-1.7,2.1c0,0.1,0,0.2,0.1,0.3c0,0,0,0,0,0c0,0,0,0.1,0,0.1c0,0.2,0,0.4-0.1,0.5c0,0.1-0.1,0.1-0.1,0.1
									c0,0,0,0-0.1,0c0,0,0,0-0.1,0c-0.3,0.2-0.6,0.6-0.7,1c-0.3,0.8,0.2,1.7,0.9,2.2c0.1,0.1,0.2,0.2,0.3,0.3
									c0.6,0.5,1.4,1.1,2.1,1.3c0.1,0,0.1,0.1,0.1,0.1c0.9,3,3.1,5.6,5.2,8c0.3,0.3,0.6,0.6,0.9,0.9c0.2,0.2,0.4,0.4,0.7,0.6
									c0.2,0.2,0.4,0.4,0.4,0.4c0.3,0.3,0.9,1,2.3,2.6c1.1-0.1,2.9-0.5,4.8-1.5c2.2-1.2,3.6-2.7,4.4-3.6
									C639.9,520.1,639.6,519.5,639.4,519z"/>
								<path class="st14" d="M631.8,527.2l1.3,3.4l1.6,4.5l8.7-8.3c-0.5-0.6-1-1.2-1.2-1.9c-0.1-0.3-0.3-0.7-0.4-1.2c0,0,0,0,0,0
									c-0.1-0.2-0.3-0.5-0.4-0.7c-0.2-0.5-0.6-1.4-1-2.3c-0.9,0.8-2.1,1.7-3.5,2.6c-2.1,1.3-4.1,2-5.7,2.5
									C631.2,526.3,631.5,526.8,631.8,527.2z"/>
							</g>
							<g>
								<path class="st14" d="M626,501.8c1.7-0.6,3.3-0.2,5,0.2c-1.6-0.4-3.4-1.2-4.8-1C626.3,501.3,626.2,501.7,626,501.8z"/>
							</g>
							<g>
								<path class="st14" d="M622.7,504.6c0.7,0,1.8,0,3.1,0.2c1.1,0.1,1.8,0.3,1.8,0.3c0,0-0.7-0.3-4.3-1.3
									C623.4,504.2,623.1,504.6,622.7,504.6z"/>
							</g>
							<g>
								<path class="st14" d="M619,508.2c0.7,0,1.5,0,2.4,0c1.1,0.1,2.1,0.3,2.9,0.6c-0.6-0.3-1.5-0.7-2.6-1c-1-0.2-1.9-0.3-2.6-0.3
									c0,0.1,0.1,0.2,0,0.4C619.1,508.1,619,508.1,619,508.2z"/>
							</g>
						</g>
						<path class="st6" d="M628.3,528.1c2.3-0.8,5-1.8,7.9-3.4c3.1-1.7,5.6-3.5,7.5-5.1c7.4,12.7,14.9,25.4,22.3,38.1
							c0.1-7,0.2-13.9,0.3-20.9c0.5,7.8,1,15.6,1.5,23.5c3.3,4.9,6.5,9.7,9.8,14.6c3.3-6.3,5.1-11.8,6-15.8c0,0,4.4-18.5-0.9-36.2
							c0-0.2-0.1-0.2,0-0.2c0.7,2.1,1.5,4.6,2.2,7.5c1.2,5.4,1.7,11.9,1.8,13.1c0,0.2,0,0.5,0.1,0.9c0,0,0.3,5.2,0.3,10.3
							c-0.2,19.9-0.3,35.6-8.1,39.4c-3.2,1.6-6.8,0.6-8.6,0.1C648.3,587.7,631,536.2,628.3,528.1z"/>
						<g>
							<path class="st7" d="M643.7,519.6c8.2,11.7,16.6,24.8,24.1,36.9c0,0-2.8,0.7-2.8,0.7c0.4-5.2,1-12.5,1.5-17.6
								c0,0,3.2,0.2,3.2,0.2c-0.1,5-0.3,15.1-0.4,20.1c0,0-0.2-0.8-0.2-0.8c1.6,2.5,3.1,5.1,4.7,7.6c1.6,2.5,3.1,5.1,4.6,7.7
								l-1.6,0.2c2.2-5.2,4.5-10.4,6.8-15.5c-1.8,5.9-3.7,11.8-5.8,17.7c0,0-1-1.4-1-1.4c-3.5-4.9-6.9-9.8-10.2-14.7
								c0,0-0.2-0.3-0.2-0.3c0,0,0-0.4,0-0.4c0-5,0-15.1,0-20.1c0,0,3.2,0.2,3.2,0.2c-0.6,6.9-1.5,15.4-2.1,22.3
								c0,0-2.4-4.1-2.4-4.1C658,545.8,650.2,532.3,643.7,519.6L643.7,519.6z"/>
						</g>
						<path class="st17" d="M686.7,543.2"/>
					</g>
				</g>
			</g>
			<g style="clip-path:url(#SVGID_00000143616196048997532250000014405533632580166020_);">
				
					<rect x="385.6" y="682.9" transform="matrix(-1.836970e-16 1 -1 -1.836970e-16 1167.3727 210.5333)" class="st18" width="185.6" height="12.1"/>
				
					<rect x="569.6" y="510.6" transform="matrix(-1.836970e-16 1 -1 -1.836970e-16 1322.3907 26.5396)" class="st19" width="156.6" height="327.8"/>
				
					<rect x="725.1" y="682.9" transform="matrix(-1.836970e-16 1 -1 -1.836970e-16 1506.806 -128.9)" class="st18" width="185.6" height="12.1"/>
			</g>
			
				<rect x="425.1" y="591.7" style="clip-path:url(#SVGID_00000143616196048997532250000014405533632580166020_);fill:#7C3A25;" width="447.7" height="17"/>
			<g style="clip-path:url(#SVGID_00000143616196048997532250000014405533632580166020_);">
				<path class="st3" d="M828.2,591.2c0.7-1.2,1.4-3.1,1.4-5.5c-0.1-2.2-0.8-3.9-1.4-5h56.3c0.8,1.5,1.2,3.1,1.3,4.7
					c0.1,2.5-0.6,4.5-1.3,5.8H828.2z"/>
				<path class="st21" d="M884.3,581.2c0.7,1.3,1.1,2.8,1.1,4.2c0.1,2.2-0.5,4.1-1.1,5.3h-55.2c0.6-1.3,1.1-3,1.1-5.1
					c0-1.8-0.5-3.3-1.1-4.5H884.3 M884.9,580.2c-19.2,0-38.4,0-57.5,0c0.5,0.8,1.7,2.7,1.8,5.5c0.1,3.1-1.3,5.3-1.8,6h57.5
					c0.5-0.9,1.7-3.3,1.5-6.4C886.3,582.9,885.4,581.1,884.9,580.2L884.9,580.2z"/>
			</g>
			<g style="clip-path:url(#SVGID_00000143616196048997532250000014405533632580166020_);">
				<path class="st3" d="M831.9,579.7c0.7-1.2,1.4-3.1,1.4-5.5c-0.1-2.2-0.8-3.9-1.4-5h56.3c0.8,1.5,1.2,3.1,1.3,4.7
					c0.1,2.5-0.6,4.5-1.3,5.8H831.9z"/>
				<path class="st22" d="M887.9,569.6c0.7,1.3,1.1,2.8,1.1,4.2c0.1,2.2-0.5,4.1-1.1,5.3h-55.2c0.6-1.3,1.1-3,1.1-5.1
					c0-1.8-0.5-3.3-1.1-4.5H887.9 M888.5,568.6c-19.2,0-38.4,0-57.5,0c0.5,0.8,1.7,2.7,1.8,5.5c0.1,3.1-1.3,5.3-1.8,6h57.5
					c0.5-0.9,1.7-3.3,1.5-6.4C889.9,571.4,889.1,569.5,888.5,568.6L888.5,568.6z"/>
			</g>
			
				<rect x="723.1" y="535.2" style="clip-path:url(#SVGID_00000143616196048997532250000014405533632580166020_);fill:#4F4E4E;" width="96.8" height="50.8"/>
			<polygon style="clip-path:url(#SVGID_00000143616196048997532250000014405533632580166020_);fill:#3A3A3A;" points="819.8,591.7 
				723,591.7 723,586 819.9,586 			"/>
			<polygon style="clip-path:url(#SVGID_00000143616196048997532250000014405533632580166020_);fill:#3A3A3A;" points="723.1,591.7 
				710.5,591.7 710.5,587 723.1,586 			"/>
			<path style="clip-path:url(#SVGID_00000143616196048997532250000014405533632580166020_);fill:#BCA18C;" d="M434.1,248"/>
			<g style="clip-path:url(#SVGID_00000143616196048997532250000014405533632580166020_);">
				<rect x="455.3" y="323.4" class="st4" width="138.9" height="86.1"/>
				<g>
					<path class="st26" d="M596.3,411.6H453.2v-90.3h143.1V411.6z M457.4,407.4h134.7v-81.9H457.4V407.4z"/>
				</g>
				<g class="st27">
					<g>
						<g>
							<rect x="523.7" y="350.6" class="st4" width="10.8" height="33.7"/>
							<rect x="517.3" y="350.6" class="st28" width="6.3" height="33.7"/>
							<rect x="516.9" y="349.9" class="st4" width="18.1" height="0.7"/>
							<rect x="516.9" y="349.9" class="st28" width="6.8" height="0.7"/>
						</g>
						<g>
							<g>
								<polygon class="st28" points="522.2,346 522.2,349.9 519.7,349.9 								"/>
								<polygon class="st29" points="522.2,346 522.2,349.9 519.7,349.9 								"/>
							</g>
							<polygon class="st30" points="529.5,346 529.5,349.9 532,349.9 							"/>
							<rect x="522.6" y="342.1" class="st4" width="4.2" height="7.8"/>
							<rect x="526.8" y="342.1" class="st4" width="3.5" height="7.8"/>
							
								<rect x="530.3" y="342.1" transform="matrix(-1 -1.224647e-16 1.224647e-16 -1 1061.5361 691.9927)" class="st30" width="0.9" height="7.8"/>
							
								<rect x="520.5" y="342.1" transform="matrix(-1 -1.224647e-16 1.224647e-16 -1 1043.0806 691.9927)" class="st28" width="2" height="7.8"/>
						</g>
						<g>
							<rect x="524.4" y="335.9" class="st4" width="1.9" height="4.9"/>
							<rect x="526.3" y="335.9" class="st4" width="1.6" height="4.9"/>
							
								<rect x="527.9" y="335.9" transform="matrix(-1 -1.224647e-16 1.224647e-16 -1 1056.1759 676.5942)" class="st30" width="0.4" height="4.9"/>
							
								<rect x="523.4" y="335.9" transform="matrix(-1 -1.224647e-16 1.224647e-16 -1 1047.8212 676.5942)" class="st4" width="0.9" height="4.9"/>
							<path class="st31" d="M526,340.7h-1.3v-2.9c0-0.4,0.3-0.7,0.7-0.7l0,0c0.4,0,0.7,0.3,0.7,0.7V340.7z"/>
							<rect x="523.1" y="335.5" class="st28" width="5.5" height="0.3"/>
							<g>
								<path class="st32" d="M525.9,330.2c0,0-0.2,0-0.2,0.3s0,0.4,0,0.4h0.2h0.2c0,0,0-0.2,0-0.4S525.9,330.2,525.9,330.2z"/>
								<path class="st32" d="M525.2,331c-0.3,0.2-0.5,0.4-0.5,0.9h1.2h1.2c0-0.4-0.3-0.7-0.5-0.9
									C526.1,330.8,525.6,330.8,525.2,331z"/>
								<path class="st33" d="M527.1,331.9h-0.5c0-0.3-0.2-0.5-0.4-0.6c-0.3-0.2-0.7-0.2-1,0c-0.2,0.1-0.4,0.3-0.4,0.6h-0.1
									c0-0.4,0.3-0.7,0.5-0.9c0.4-0.2,0.9-0.2,1.3,0C526.8,331.2,527.1,331.4,527.1,331.9z"/>
								<path class="st32" d="M524.5,331.9c-0.6,0.3-1.1,0.8-1.1,1.7h2.4h2.4c0-0.9-0.5-1.4-1.1-1.7
									C526.4,331.5,525.4,331.5,524.5,331.9z"/>
								<path class="st33" d="M528.3,333.6h-0.9c0-0.7-0.4-1.1-0.8-1.3c-0.6-0.3-1.4-0.3-2.1,0c-0.4,0.2-0.8,0.6-0.8,1.3h-0.2
									c0-0.9,0.5-1.4,1.1-1.7c0.8-0.5,1.9-0.5,2.7,0C527.8,332.2,528.3,332.7,528.3,333.6z"/>
								<g>
									<rect x="523.4" y="333.6" class="st32" width="0.2" height="1.9"/>
									<rect x="525" y="333.6" class="st32" width="0.2" height="1.9"/>
									<rect x="526.5" y="333.6" class="st32" width="0.2" height="1.9"/>
									<rect x="528.1" y="333.6" class="st32" width="0.2" height="1.9"/>
								</g>
							</g>
						</g>
						<g>
							<rect x="527.4" y="338.1" class="st4" width="1" height="2.6"/>
							<rect x="528.4" y="338.1" class="st4" width="0.9" height="2.6"/>
							
								<rect x="529.3" y="338.1" transform="matrix(-1 -1.224647e-16 1.224647e-16 -1 1058.778 678.8361)" class="st30" width="0.2" height="2.6"/>
							
								<rect x="526.9" y="338.1" transform="matrix(-1 -1.224647e-16 1.224647e-16 -1 1054.2614 678.8361)" class="st28" width="0.5" height="2.6"/>
							<path class="st28" d="M529.3,337.1c-0.1-0.1-0.2-0.2-0.3-0.3c-0.5-0.4-1.2-0.4-1.6,0c-0.1,0.1-0.2,0.2-0.3,0.3
								c-0.3,0.4-0.3,1-0.3,1h1.4h1.4C529.6,338.1,529.6,337.5,529.3,337.1z"/>
						</g>
						<g>
							<rect x="520.3" y="341.8" class="st30" width="11.2" height="0.3"/>
							<rect x="522.6" y="340.7" class="st4" width="4.2" height="1.1"/>
							<rect x="526.8" y="340.7" class="st4" width="3.5" height="1.1"/>
							
								<rect x="530.3" y="340.7" transform="matrix(-1 -1.224647e-16 1.224647e-16 -1 1061.5361 682.5838)" class="st30" width="0.9" height="1.1"/>
							
								<rect x="520.5" y="340.7" transform="matrix(-1 -1.224647e-16 1.224647e-16 -1 1043.0806 682.5838)" class="st28" width="2" height="1.1"/>
						</g>
						<g>
							<path class="st28" d="M523.6,330.3c0-0.2,0-0.5-0.1-0.7c-0.1-0.3-0.2-0.7-0.4-0.7s-0.4,0.4-0.4,0.7c-0.1,0.2-0.1,0.5-0.1,0.7
								l-0.4,10.4h1h1L523.6,330.3z"/>
							<path class="st29" d="M524,340.7h-0.3l-0.5-10.9c0-0.2,0-0.5-0.1-0.7c0,0,0-0.1,0-0.1c0.2,0,0.3,0.4,0.4,0.7
								c0.1,0.2,0.1,0.5,0.1,0.7L524,340.7z"/>
						</g>
						<g>
							<g>
								<g>
									<rect x="526.1" y="377.8" class="st30" width="2" height="3.4"/>
									<rect x="525.9" y="377.3" class="st30" width="2.3" height="0.3"/>
								</g>
								<g>
									<rect x="530.1" y="377.8" class="st30" width="2" height="3.4"/>
									<rect x="530" y="377.3" class="st30" width="2.3" height="0.3"/>
								</g>
							</g>
							<g>
								<g>
									<rect x="526.1" y="371.1" class="st30" width="2" height="3.4"/>
									<rect x="525.9" y="370.6" class="st30" width="2.3" height="0.3"/>
								</g>
								<g>
									<rect x="530.1" y="371.1" class="st30" width="2" height="3.4"/>
									<rect x="530" y="370.6" class="st30" width="2.3" height="0.3"/>
								</g>
							</g>
							<g>
								<g>
									<rect x="526.1" y="364.5" class="st30" width="2" height="3.4"/>
									<rect x="525.9" y="364" class="st30" width="2.3" height="0.3"/>
								</g>
								<g>
									<rect x="530.1" y="364.5" class="st30" width="2" height="3.4"/>
									<rect x="530" y="364" class="st30" width="2.3" height="0.3"/>
								</g>
							</g>
							<g>
								<g>
									<rect x="526.1" y="357.8" class="st30" width="2" height="3.4"/>
									<rect x="525.9" y="357.3" class="st30" width="2.3" height="0.3"/>
								</g>
								<g>
									<rect x="530.1" y="357.8" class="st30" width="2" height="3.4"/>
									<rect x="530" y="357.3" class="st30" width="2.3" height="0.3"/>
								</g>
							</g>
						</g>
						<g>
							<polygon class="st34" points="534.5,382.7 523.7,383.2 523.7,382.2 534.5,381.7 							"/>
							<polygon class="st34" points="534.5,376 523.7,376.5 523.7,375.6 534.5,375 							"/>
							<polygon class="st34" points="534.5,369.3 523.7,369.9 523.7,368.9 534.5,368.4 							"/>
							<polygon class="st34" points="534.5,362.7 523.7,363.2 523.7,362.3 534.5,361.7 							"/>
							<polygon class="st34" points="534.5,356 523.7,356.6 523.7,355.6 534.5,355.1 							"/>
						</g>
						<g>
							<polygon class="st34" points="523.7,382.2 523.7,383.2 517.3,384.4 517.3,383.5 							"/>
							<polygon class="st34" points="523.7,375.6 523.7,376.5 517.3,377.7 517.3,376.8 							"/>
							<polygon class="st34" points="523.7,368.9 523.7,369.9 517.3,371.1 517.3,370.1 							"/>
							<polygon class="st34" points="523.7,362.3 523.7,363.2 517.3,364.4 517.3,363.5 							"/>
							<polygon class="st34" points="523.7,355.6 523.7,356.6 517.3,357.8 517.3,356.8 							"/>
						</g>
						<g>
							<g>
								<g>
									<rect x="518.6" y="371.9" class="st30" width="1.3" height="3.1"/>
									<rect x="518.5" y="371.4" class="st30" width="1.5" height="0.3"/>
								</g>
								<g>
									<rect x="521.2" y="371.9" class="st30" width="1.3" height="3.1"/>
									<rect x="521.1" y="371.4" class="st30" width="1.5" height="0.3"/>
								</g>
							</g>
							<g>
								<g>
									<rect x="518.6" y="365.1" class="st30" width="1.3" height="3.1"/>
									<rect x="518.5" y="364.6" class="st30" width="1.5" height="0.3"/>
								</g>
								<g>
									<rect x="521.2" y="365.1" class="st30" width="1.3" height="3.1"/>
									<rect x="521.1" y="364.6" class="st30" width="1.5" height="0.3"/>
								</g>
							</g>
							<g>
								<g>
									<rect x="518.6" y="378.3" class="st30" width="1.3" height="3.1"/>
									<rect x="518.5" y="377.8" class="st30" width="1.5" height="0.3"/>
								</g>
								<g>
									<rect x="521.2" y="378.3" class="st30" width="1.3" height="3.1"/>
									<rect x="521.1" y="377.8" class="st30" width="1.5" height="0.3"/>
								</g>
							</g>
							<g>
								<g>
									<rect x="518.6" y="358.5" class="st30" width="1.3" height="3.1"/>
									<rect x="518.5" y="358" class="st30" width="1.5" height="0.3"/>
								</g>
								<g>
									<rect x="521.2" y="358.5" class="st30" width="1.3" height="3.1"/>
									<rect x="521.1" y="358" class="st30" width="1.5" height="0.3"/>
								</g>
							</g>
							<g>
								<g>
									<rect x="518.6" y="352.4" class="st30" width="1.3" height="3.1"/>
									<rect x="518.5" y="352" class="st30" width="1.5" height="0.3"/>
								</g>
								<g>
									<rect x="521.2" y="352.4" class="st30" width="1.3" height="3.1"/>
									<rect x="521.1" y="352" class="st30" width="1.5" height="0.3"/>
								</g>
							</g>
						</g>
						<g>
							<polygon class="st28" points="524.7,346 524.7,349.9 522.2,349.9 							"/>
							<polygon class="st29" points="524.7,346 524.7,349.9 522.2,349.9 							"/>
							<polygon class="st30" points="524.7,346 524.7,349.9 527.1,349.9 							"/>
						</g>
						<g>
							<g>
								<rect x="527.7" y="344.6" class="st31" width="1.7" height="3.7"/>
								<rect x="527.7" y="344" class="st31" width="1.7" height="0.3"/>
							</g>
							<g>
								<rect x="521" y="344.6" class="st31" width="1.1" height="3.7"/>
								<rect x="521" y="344" class="st31" width="1.1" height="0.3"/>
							</g>
						</g>
						<g>
							<g>
								<rect x="526.4" y="382.6" class="st28" width="0.6" height="1.7"/>
								
									<rect x="527.1" y="382.6" transform="matrix(-1 -1.224647e-16 1.224647e-16 -1 1056.6902 766.8225)" class="st35" width="2.5" height="1.7"/>
								
									<rect x="527.9" y="383.2" transform="matrix(-1 -1.224647e-16 1.224647e-16 -1 1056.6902 767.4566)" class="st30" width="0.9" height="1.1"/>
							</g>
							<polygon class="st28" points="528,382.6 528,381.4 526.1,382.6 							"/>
							<polygon class="st36" points="528,382.6 528,381.4 530,382.6 							"/>
						</g>
						<g>
							<line class="st37" x1="517.3" y1="350.6" x2="534.5" y2="350.6"/>
							<line class="st37" x1="516.9" y1="350.3" x2="535" y2="350.3"/>
							<polyline class="st37" points="525.2,384.3 525.2,351.5 533,351.5 533,384.3 							"/>
							<polyline class="st37" points="518.2,384.3 518.2,351.5 522.8,351.5 522.8,384.3 							"/>
							<line class="st37" x1="528.4" y1="338.1" x2="528.4" y2="340.7"/>
							<line class="st37" x1="526.9" y1="340.7" x2="526.9" y2="349.9"/>
							<line class="st37" x1="526.3" y1="335.9" x2="526.3" y2="340.7"/>
							<line class="st37" x1="524.4" y1="335.9" x2="524.4" y2="340.7"/>
							<line class="st37" x1="525" y1="343" x2="526.9" y2="343"/>
							<line class="st37" x1="525.5" y1="344.3" x2="526.9" y2="344.3"/>
							<line class="st37" x1="531.1" y1="353" x2="533" y2="353"/>
							<line class="st37" x1="528.7" y1="354.2" x2="532.3" y2="354.2"/>
							<line class="st37" x1="530.4" y1="356.6" x2="533" y2="356.6"/>
							<line class="st37" x1="527.7" y1="356.6" x2="529.6" y2="356.6"/>
							<line class="st37" x1="524.2" y1="344.3" x2="524.7" y2="344.3"/>
							<line class="st37" x1="526.1" y1="345.5" x2="523.7" y2="345.5"/>
							<path class="st37" d="M523.9,344"/>
						</g>
					</g>
					<g>
						<rect x="504.1" y="384.3" class="st28" width="3" height="5.2"/>
						<rect x="507.1" y="384.3" class="st28" width="5.2" height="5.2"/>
						
							<rect x="520.6" y="384.3" transform="matrix(-1 -1.224647e-16 1.224647e-16 -1 1049.4325 773.7518)" class="st4" width="8.3" height="5.2"/>
						<rect x="512.3" y="384.3" class="st28" width="8.2" height="5.2"/>
						
							<rect x="542.3" y="384.3" transform="matrix(-1 -1.224647e-16 1.224647e-16 -1 1087.6343 773.7518)" class="st36" width="3" height="5.2"/>
						
							<rect x="537.1" y="384.3" transform="matrix(-1 -1.224647e-16 1.224647e-16 -1 1079.4142 773.7518)" class="st35" width="5.2" height="5.2"/>
						
							<rect x="528.9" y="384.3" transform="matrix(-1 -1.224647e-16 1.224647e-16 -1 1065.9631 773.7518)" class="st4" width="8.2" height="5.2"/>
						<rect x="504.1" y="384.3" class="st29" width="3" height="5.2"/>
						<rect x="506.9" y="385.7" class="st4" width="0.3" height="3.7"/>
						<rect x="512.2" y="385.7" class="st4" width="0.3" height="3.7"/>
						<rect x="520.4" y="385.7" class="st36" width="0.3" height="3.7"/>
						<rect x="528.8" y="385.7" class="st36" width="0.3" height="3.7"/>
						<rect x="536.9" y="385.7" class="st36" width="0.3" height="3.7"/>
						<rect x="542.1" y="385.7" class="st36" width="0.3" height="3.7"/>
						<g>
							<line class="st37" x1="504.7" y1="385.5" x2="511.1" y2="385.5"/>
							<line class="st37" x1="504.1" y1="384.3" x2="545.3" y2="384.3"/>
							<line class="st37" x1="533.6" y1="385.5" x2="543.5" y2="385.5"/>
							<line class="st37" x1="531" y1="385.5" x2="532.6" y2="385.5"/>
							<line class="st37" x1="508.6" y1="386.6" x2="511.1" y2="386.6"/>
							<line class="st37" x1="525.5" y1="386.6" x2="528.9" y2="386.6"/>
							<line class="st37" x1="507.8" y1="387.8" x2="509.5" y2="387.8"/>
							<line class="st37" x1="516.3" y1="387.8" x2="519.7" y2="387.8"/>
							<line class="st37" x1="537.1" y1="387.8" x2="540.5" y2="387.8"/>
							<line class="st37" x1="521.7" y1="387.8" x2="527.7" y2="387.8"/>
							<line class="st37" x1="513.4" y1="389" x2="520.6" y2="389"/>
							<line class="st37" x1="529.6" y1="389" x2="534.7" y2="389"/>
						</g>
					</g>
				</g>
				<path class="st26" d="M594.2,406.5v3H456c0.2-0.6,0.4-1.3,0.6-1.9c1.3-4.3,2.8-8.5,4.3-12.4c6.3-0.1,12.7-0.1,19.1-0.1
					c5.6,0,11.1,0,16.6,0.1c2.5-1.9,5-3.8,7.5-5.7c13.7,0,27.5,0,41.2,0c3.8,2.3,9.4,5.4,16.9,7.9c1.5,0.5,3.1,1,5.3,1.6
					c11.6,2.7,17,0.3,23.1,4.3C591.7,404,593,405,594.2,406.5z"/>
				<g>
					<path class="st38" d="M470.8,371.2c0-0.1-0.1-0.1-0.1-0.1c-0.1,0-0.1,0.1-0.1,0.1c0,0.1,0.1,0.1,0.1,0.1
						C470.7,371.3,470.8,371.3,470.8,371.2z"/>
					<path class="st38" d="M486.3,371.2c0-0.1-0.1-0.1-0.1-0.1c-0.1,0-0.1,0.1-0.1,0.1c0,0.1,0.1,0.1,0.1,0.1
						C486.3,371.3,486.3,371.3,486.3,371.2z"/>
					<path class="st38" d="M465.2,377.9c0-0.1-0.1-0.1-0.1-0.1c-0.1,0-0.1,0.1-0.1,0.1c0,0.1,0.1,0.1,0.1,0.1
						C465.2,378,465.2,378,465.2,377.9z"/>
					<path class="st38" d="M492,377.9c0-0.1-0.1-0.1-0.1-0.1s-0.1,0.1-0.1,0.1c0,0.1,0.1,0.1,0.1,0.1S492,378,492,377.9z"/>
					<path class="st26" d="M496.6,395.1l-1.1-4.6h0c0-0.1-0.3-0.3-0.8-0.4v-1.4c0,0,0,0,0,0v-1h0v-0.2h0v-0.4c0-0.2-0.2-0.3-0.3-0.3
						c-0.2,0-0.3,0.2-0.3,0.3v0.1h-0.4v-0.1c0-0.1,0-0.1,0-0.2l0,0l-0.2-2.4l0-0.2l0.1,0l0,0l0.2,0l0,0l0,0h0c0.1,0,0.2-0.1,0.3-0.1
						c0.1-0.1,0.1-0.2,0.1-0.3c0-0.1,0-0.2-0.1-0.2c-0.5-1-1-2-1.6-3l-0.1-0.2c0,0,0-0.1-0.1-0.1c0,0,0,0,0,0c0,0,0,0,0,0
						c0,0-0.1-0.1-0.2-0.1v-0.9h1.9l-0.6-0.7l0.6-0.7h-2h-0.1v1.4h0v1c0,0-0.1,0.1-0.1,0.1l-0.9,1.7c-0.1,0-0.1,0-0.2,0h-0.3
						c-0.5,0-1,0.2-1.3,0.6v-0.7v-1h0v-0.2h0v-0.4c0-0.2-0.2-0.3-0.3-0.3s-0.3,0.2-0.3,0.3v0.1h-0.4v-0.1c0-0.1,0-0.1,0-0.2
						l-0.2-2.4l0-0.2l0.4,0l0,0l0,0c0.1,0,0.1,0,0.2-0.1c0,0,0,0,0.1-0.1c0-0.1,0.1-0.1,0.1-0.2c0-0.1,0-0.2-0.1-0.3
						c-0.5-1-1-2-1.6-3l-0.1-0.2c0,0,0-0.1-0.1-0.1c0,0,0,0,0,0c0,0,0,0,0,0c0,0-0.1-0.1-0.2-0.1v-0.9h1.9l-0.6-0.7l0.6-0.7h-2H486
						v1.4h0v1c0,0-0.1,0.1-0.1,0.1l-1.6,3.1c-0.1,0.3,0,0.7,0.3,0.7l0.3,0l0,0.2l-0.2,2.8h-0.3v-0.1c0-0.2-0.2-0.3-0.3-0.3
						c-0.2,0-0.3,0.2-0.3,0.3v0.1v0.3v0.2h0v1.1v0.2c-0.4,0.2-0.7,0.5-0.9,0.9h-0.3v-1.2h0v-0.4h0v-0.6c0-0.3-0.2-0.5-0.5-0.5
						c-0.3,0-0.5,0.2-0.5,0.5v0.2h-0.6v-0.2c0-0.1,0-0.2-0.1-0.2l0,0l-0.3-3.5l0-0.2l0,0l0.2,0c0,0,0,0,0,0l0.3,0
						c0.2,0,0.3-0.1,0.4-0.2c0.1-0.1,0.1-0.2,0.1-0.3c0-0.1,0-0.1,0-0.2c0-0.1,0-0.2-0.1-0.3c-0.8-1.5-1.5-3-2.4-4.4l-0.1-0.1
						c0,0,0-0.1-0.1-0.1c0,0,0,0,0-0.1c0,0,0,0,0,0c-0.1-0.1-0.1-0.1-0.2-0.1V370h2.8l-0.9-1l0.9-1h-2.9h-0.2v2h0v1.4
						c-0.1,0-0.1,0.1-0.2,0.2l-2.3,4.5c-0.2,0.4,0,1,0.4,1l0.5,0v0l0,0.2l-0.3,4l0,0H476v-0.2c0-0.3-0.2-0.5-0.5-0.5
						c-0.3,0-0.5,0.2-0.5,0.5v0.2h0v0.8h0v1.2h-0.5c-0.2-0.5-0.6-0.8-1.1-1v-0.2v-1h0v-0.2h0v-0.4c0-0.2-0.2-0.3-0.3-0.3
						s-0.3,0.2-0.3,0.3v0.1h-0.4v-0.1c0-0.1,0-0.1,0-0.2l-0.2-2.4l0-0.2l0.4,0c0.3,0,0.4-0.4,0.3-0.7c-0.5-1-1-2-1.6-3l-0.1-0.2
						c0,0,0-0.1-0.1-0.1c0,0,0,0,0,0c0,0,0,0,0,0c0,0-0.1-0.1-0.2-0.1v-0.9h1.9l-0.6-0.7l0.6-0.7h-2h-0.1v1.4h0v1
						c0,0-0.1,0.1-0.1,0.1l-1.6,3.1c-0.1,0.3,0,0.7,0.3,0.7l0.3,0l0,0.2l-0.2,2.8h-0.3v-0.1c0-0.2-0.2-0.3-0.3-0.3
						c-0.2,0-0.3,0.2-0.3,0.3v0.1v0.3v0.2h0v1.1v0.4c-0.3-0.2-0.7-0.4-1.1-0.4h-0.3c-0.2,0-0.3,0-0.4,0.1c-0.3-0.5-0.6-1.1-0.9-1.6
						l-0.1-0.2c0,0,0-0.1-0.1-0.1c0,0,0,0,0,0c0,0,0,0,0,0c0,0-0.1-0.1-0.2-0.1v-0.9h1.9l-0.6-0.7l0.6-0.7h-2H465v1.4h0v1
						c0,0-0.1,0.1-0.1,0.1l-1.6,3.1c-0.1,0.3,0,0.7,0.3,0.7l0.3,0l0,0l0,0.1l-0.2,2.8l0,0h-0.3v-0.1c0-0.2-0.2-0.3-0.3-0.3
						s-0.3,0.2-0.3,0.3v0.4h0v0.2h0v2.4c-0.4,0.1-0.6,0.2-0.6,0.3h0l-1.1,4.6h8.9l0,0h0h6.9V395v-4.2h0c0,0,0,0,0,0
						c0-1.2,1-2.2,2.2-2.2c0.2,0,0.4,0,0.6,0.1c0.9,0.3,1.6,1.1,1.6,2.1v4.2v0.1h6.6l0,0H496.6z M476.9,383.4
						C476.9,383.4,476.9,383.4,476.9,383.4C476.9,383.4,476.9,383.4,476.9,383.4c0-0.1,0-0.1,0.1-0.2c0,0,0-0.1,0.1-0.1
						c0.1-0.1,0.1-0.2,0.2-0.3c0,0,0-0.1,0.1-0.1l0,0c0,0,0.1,0,0.1-0.1c0,0,0.1-0.1,0.1-0.1c0,0,0.1-0.1,0.1-0.1c0,0,0,0,0,0
						c0,0,0.1,0,0.1-0.1h0c0.2-0.1,0.4-0.2,0.6-0.2c0,0,0,0,0,0c0.1,0,0.1,0,0.2,0c0.1,0,0.2,0,0.3,0c0.1,0,0.2,0,0.3,0.1
						c0,0,0,0,0,0c0.1,0,0.2,0.1,0.3,0.1h0c0,0,0,0,0,0c0,0,0.1,0,0.1,0.1c0,0,0,0,0,0c0,0,0,0,0.1,0.1c0,0,0,0,0.1,0
						c0,0,0.1,0,0.1,0.1c0,0,0,0,0,0c0,0,0.1,0.1,0.1,0.1c0,0,0,0,0,0c0,0,0.1,0.1,0.1,0.1c0,0,0.1,0.1,0.1,0.1c0,0,0.1,0.1,0.1,0.1
						c0,0,0,0.1,0.1,0.1c0,0,0,0,0,0h0c0,0.1,0.1,0.2,0.1,0.3c0,0,0,0,0,0c0,0.1,0,0.1,0,0.2c0,0,0,0,0,0c0,0,0,0,0,0
						c0,0.1,0,0.1,0,0.2c0,0,0,0,0,0v0.3v0.1v0.3v1.3h-0.6l0-0.3c0-0.2-0.2-0.4-0.5-0.4h-1.1c-0.3,0-0.5,0.2-0.5,0.4l0,0.3h-1v-1.6
						c0,0,0,0,0,0v0V384h0c0,0,0,0,0,0c0-0.1,0-0.1,0-0.2c0,0,0-0.1,0-0.1c0,0,0-0.1,0-0.1c0,0,0-0.1,0-0.1
						C476.9,383.5,476.9,383.4,476.9,383.4z M478.5,378c0.1,0,0.1,0,0.2,0c0.2,0,0.3,0,0.4,0c0.3,0.2,0.5,0.5,0.5,0.8v1h-1.8v-1
						c0-0.3,0.2-0.6,0.5-0.8C478.3,378,478.4,378,478.5,378z M492.6,385.5v0.7h-0.4H492h-0.7v-0.7c0,0,0,0,0,0c0-0.1,0-0.3,0.1-0.4
						h0c0.1-0.1,0.1-0.2,0.2-0.2c0,0,0.1,0,0.1-0.1c0.1,0,0.1,0,0.2,0c0,0,0,0,0,0c0,0,0,0,0,0c0,0,0,0,0,0c0,0,0,0,0.1,0
						c0,0,0,0,0,0c0,0,0.1,0,0.1,0c0,0,0,0,0,0C492.5,385,492.6,385.3,492.6,385.5z M465.2,384.9c0,0,0.1,0,0.1,0c0,0,0,0,0.1,0
						c0,0,0.1,0,0.1,0c0,0,0,0,0.1,0c0.1,0,0.2,0.1,0.2,0.2c0.1,0.1,0.1,0.2,0.1,0.4v0.7h-0.4h-0.3h-0.6v-0.7c0,0,0,0,0,0
						c0-0.2,0.1-0.4,0.3-0.6C465,384.9,465.1,384.9,465.2,384.9z M493.2,389.1v0.2v1.2h-1.1H492h-1.3V390v-0.7c0,0,0,0,0,0v0v-0.2
						c0-0.3,0.1-0.5,0.2-0.7h0h0l0,0l0,0c0,0,0,0,0,0l0,0c0.1-0.2,0.3-0.3,0.5-0.4h0c0.2-0.1,0.4-0.1,0.6-0.1c0,0,0,0,0.1,0v0.1
						c0,0,0,0,0,0v0c0,0,0.1,0,0.1,0c0,0,0,0,0,0c0.1,0,0.3,0.1,0.4,0.1h0C493,388.2,493.2,388.6,493.2,389.1z M464.6,388
						c0.2-0.1,0.4-0.1,0.6-0.1c0.1,0,0.2,0,0.2,0c0,0,0,0,0,0c0.1,0,0.2,0.1,0.3,0.1h0c0.4,0.2,0.7,0.6,0.7,1.1v0.2v1.2h-1h-0.3
						h-1.3V390v-0.7c0,0,0,0,0,0v0v-0.2C463.9,388.6,464.2,388.2,464.6,388L464.6,388z"/>
					<path class="st38" d="M478.7,367.9c0-0.1-0.1-0.2-0.2-0.2c-0.1,0-0.2,0.1-0.2,0.2c0,0.1,0.1,0.2,0.2,0.2
						C478.6,368,478.7,368,478.7,367.9z"/>
				</g>
			</g>
			<g style="clip-path:url(#SVGID_00000143616196048997532250000014405533632580166020_);">
				<g>
					<g>
						<path class="st3" d="M404.3,663.2c-39-2-71.5-22.7-82-50.5c-7.2-19.1-4.5-41.7-3-48.2c1.6-6.7,1.7-14,7.2-19.2
							c3.6-3.4,7.8-4.7,10.6-5.3c4.3,1.2,8.7,2.4,13,3.6c1.2,0.3,2.7,0.9,4,2c0,0,2.3,2,3.3,5.5c1.3,4.5,5.8,33.2,11.3,72.6
							C380.6,636.9,392.5,650.1,404.3,663.2z"/>
						<g id="_x36__00000147202560008804550680000014360736980569837975_">
							<path class="st39" d="M286.3,820.5c3.1,0,5.7-2.2,5.7-4.9V697.1c0-2.7-2.6-4.9-5.7-4.9c-3.1,0-5.7,2.2-5.7,4.9v118.5
								C280.6,818.3,283.1,820.5,286.3,820.5z"/>
							<path class="st40" d="M300.3,820.5c3.1,0,5.7-2.2,5.7-4.9V697.1c0-2.7-2.6-4.9-5.7-4.9c-3.1,0-5.7,2.2-5.7,4.9v118.5
								C294.6,818.3,297.1,820.5,300.3,820.5z"/>
							<path class="st39" d="M353.4,820.5c3.1,0,5.7-2.2,5.7-4.9V697.1c0-2.7-2.6-4.9-5.7-4.9c-3.1,0-5.7,2.2-5.7,4.9v118.5
								C347.7,818.3,350.3,820.5,353.4,820.5z"/>
							<path class="st40" d="M366.4,820.5c3.1,0,5.7-2.2,5.7-4.9V697.1c0-2.7-2.6-4.9-5.7-4.9c-3.1,0-5.7,2.2-5.7,4.9v118.5
								C360.7,818.3,363.3,820.5,366.4,820.5z"/>
							<path class="st41" d="M297.6,546.5c-11.6,48.3-2.7,72.6,8.7,85.9c20.5,24,65.1,25.5,74.3,53.9c2.4,7.3,3.5,22.2,2.6,24.3
								c-0.9,2-2.8,3.6-5.2,3.5c-3,0.5-6.3-4.2-8.2-5.8c-5.8-5.8-13.6-9-21.8-9c0,0-51.8,0-51.8,0c-6.1,0.1-14.8-0.8-22.5-6
								c-15.7-10.7-16.8-32.2-20.2-77.5c-1.1-14.4-3-40.2-5.9-74.4c7.1-0.6,15.9-0.8,25.9,0.3C282.9,542.7,291,544.6,297.6,546.5z"
								/>
						</g>
						<path class="st42" d="M461.7,821.2h-44.3c-2.1,0-3.9-1.8-3.7-4c0.4-4.6,1.5-11.5,1.2-14.6c0.2-2.7-3.7-37.3-4-40.8h27.8
							l-4.5,35.7c-0.5,4.2,2,8.2,6,9.6c5.4,1.8,11.6,2.6,15.7,3.6c3.6,0.9,6.8,2.1,8.7,4.6C466.6,817.7,464.8,821.2,461.7,821.2z"/>
						<path class="st43" d="M412.3,816.6c0,0.7,0.2,1.3,0.4,2.1c0.4,1.5,1.8,2.6,3.4,2.6h45.9c0.6-0.2,3.5-1.1,3.9-3
							c0.5-2.2-2.3-5.5-7.5-6.8c1.8,0.8,2.6,1.5,2.5,2c-0.4,2.1-16.2,1.6-47.6-1.6C412.4,813.9,412.3,815.6,412.3,816.6z"/>
						<path d="M442.6,790c-15.6,5.7-36.3,0-36.3,0c-2-31-4-52.1-6-83.1c-31.9-8.8-63.8-17.6-95.7-26.4c-2.9-12.3-5.8-24.7-8.7-37
							c20.7-1.9,41.3-3.7,62-5.6c22.5,12,44.9,24.1,67.4,36.1c9.4,5.7,15.2,15.8,15.4,26.7C441.3,731.3,442,757.1,442.6,790z"/>
						<path class="st42" d="M452.4,821.2h-44.3c-2.1,0-3.9-1.8-3.7-4c0.4-4.6,1.5-11.5,1.2-14.6c0.2-2.7-3.7-37.3-4-40.8h27.8
							l-4.5,35.7c-0.5,4.2,2,8.2,6,9.6c5.4,1.8,11.6,2.6,15.7,3.6c3.6,0.9,6.8,2.1,8.7,4.6C457.3,817.7,455.5,821.2,452.4,821.2z"/>
						<path class="st44" d="M403.1,817.7c0.1,1,0.5,1.8,0.5,1.8c0.4,0.8,1,1.3,1.3,1.5c0.2,0.1,0.3,0.1,0.5,0.2h47.3
							c0.8-0.2,4.4-1.1,4.8-3c0.5-2.8-5.9-5.8-6.5-6c-1.3-0.6-2.5-1-3.4-1.2c1.1,0.8,1.6,1.4,1.5,2c-0.6,2.5-15.2,1.8-44-2.2
							C403.6,813.6,403,816.2,403.1,817.7z"/>
						<path class="st45" d="M433.3,790c-10.4-2.2-22.9-3-36.3,0c-1.5,0.3-2.9,0.7-4.3,1.1c-0.3-10.1-0.8-23.8-2-40.2
							c-2-28.6-3.5-33.7-7.1-38.4c-7-9.3-18-12.1-39.9-17.5c-26.5-6.6-40.1-5.7-48.4-14.5c-5.2-5.5-7.7-12.6-8.7-19.7
							c-0.2-1.1-0.3-2.2-0.4-3.2c-0.4-5-0.2-9.8,0.3-14.1c23.6-2.1,47.1-4.2,70.7-6.3c1.9-0.2,3.7-0.3,5.6-0.5
							c2.5,1.9,5,3.9,7.6,5.7c16,11.9,33.2,23,48.7,35.3c7.5,5.9,11.9,14.9,12.2,24.4C432,732.5,432.7,757.6,433.3,790z"/>
						<path class="st3" d="M358,636.4c-0.2,0.2-0.5,0.5-0.7,0.7c-0.3,0.3-0.7,0.6-1,0.9c-4.1,3.7-9.1,7.4-15.2,10.7
							c-21.6,11.7-43.4,10.5-54.8,8.8c-1.1-0.2-2.1-0.3-3-0.5c0,0,0-0.6-0.1-1.8c-0.2-2.7-0.6-8.2-1-14.6c0-0.3,0-0.7-0.1-1
							c-0.1-1.2-0.8-14.3-1.3-29.3c-0.6-22.6-0.3-44.6-0.1-56.4c0-2.5,1.2-4.9,3.2-6.5c9.6-6.2,19.1-12.3,28.7-18.5
							c7.2,2.6,14.4,5.2,21.6,7.8c2.4-0.1,4.7-0.3,7.1-0.4c1.3,1,2.6,2.2,3.9,3.4c3.6,3.5,6.4,7,8.6,10.2c0.1,1.5,2,39.1,4,78.2
							C357.6,628.1,358,636.3,358,636.4z"/>
						<path d="M358,636.4c-0.6,0.5-1.1,1.1-1.8,1.6c-2.1-1.5-4.1-2.9-6.2-4.4c-3.3-31.9-6.6-63.8-9.9-95.6c0.6-1.1,1.1-2.1,1.7-3.2
							c1.1,0.8,2.8,2.3,4.6,4.2c0,0,4.2,4.5,7.1,10.8C356.7,556.5,359.6,590.2,358,636.4z"/>
						<path d="M338.2,630.9c-7.1,6.2-14,9.7-18.6,11.6c-7.5,3.1-13.7,4-18.7,4.8c-7.4,1.1-13.7,1.1-18.3,0.9
							c-0.1-2.1-0.4-5.1-0.6-8.7c-0.9-14.5-1.1-22.3-1.3-29.3c-0.6-22.6-0.3-44.6-0.1-56.4c0-2.5,1.2-4.9,3.2-6.5
							c9.6-6.2,19.1-12.3,28.7-18.5c3,0.8,6.3,1.7,9.7,2.9c4.4,1.5,8.3,3.2,11.8,4.9C335.4,568,336.8,599.5,338.2,630.9z"/>
						<path class="st46" d="M370.5,642.3c-11,5.2-25.7,11-43.8,14.7c-15,3.1-28.7,3.9-40,3.8c-0.2-1.1-0.3-2.2-0.4-3.2
							c-1.1-0.2-2.1-0.3-3-0.5c0,0,0-0.6-0.1-1.8c-0.2-2.7-0.6-8.2-1-14.6c11-0.2,23.6-1.1,37.4-3.4c14.4-2.3,27.2-5.6,38.1-9.1
							c0.8,2.3,1.8,4,2.6,5.1c1.7,2.5,3.7,4.1,6.5,6.4C368.2,640.7,369.6,641.7,370.5,642.3z"/>
						<path class="st47" d="M338.1,533.4c0.9,12.7,1.7,25.6,2.4,38.7c1.2,22.4,1.9,44.2,2.2,65.4"/>
						<path class="st3" d="M392.4,666.2c-1.1,2.4-4.2,9-9.4,9.2c-4.4,0.1-9.2-4.6-10.7-11.6c-8.1-2.4-16.6-5.3-25.5-8.8
							c-19.1-7.5-35.6-16.1-49.5-24.6c-2.4-6.7-22.3-63.2-18.5-77.3c1.1-4,3.9-6.2,3.9-6.2c3.7-3.3,9.2-4,13.2-3.1
							c8.2,1.8,12.3,10.5,15.8,18c2.1,4.4,4.1,9.2,6.8,25.3c1.7,9.8,3.1,18.5,4.2,26.1c9.3,3.9,20.1,9.1,31.5,16.2
							c10.6,6.6,19.5,13.5,26.7,19.7c4.2,0.2,8.3,0.3,12.5,0.5C394.1,652,395.7,659,392.4,666.2z"/>
						<g>
							<path class="st48" d="M414,668.7C414,668.7,414,668.7,414,668.7c2.1,1.7,3.7,3,4.6,3.8c2.1,1.7,3.5,2.9,3.2,3.7
								c-0.1,0.4-0.6,0.6-0.7,0.6c-0.7,0.2-1.3-0.2-2.5-1c-1.2-0.9-1.9-1.3-2.4-1.8c-0.9-0.8-2.3-1.9-4.3-3c1.6,1,2.8,1.9,3.7,2.6
								c2.2,1.7,2.6,2.2,2.5,2.5c-0.1,0.2-0.5,0.3-1,0.3c-2.9,0-5.9-2.2-8.1-3.4c-1.3-0.7-3.3-1.8-5.9-2.6c-1.4,0-4.1-0.2-7.1-1.7
								c-2.6-1.3-4.2-3.1-5.1-4.1c-0.3-0.1-0.5-0.3-0.8-0.4c0.4-1.5,0.8-3.3,1-5.4c0.2-2,0.2-3.7,0.1-5.2c0.8,0.5,1.6,0.9,2.4,1.4
								c0.7,0,1.6,0,2.8,0.1c0,0,2.8,0.3,5.6,1.5c6.1,2.7,21.9,14.4,20.7,16.1c-0.1,0.1-0.3,0.2-0.4,0.2c-1,0.2-1.7-1.6-4-3.5
								c-1.1-0.9-2-1.4-2-1.4c1,0.7,1.8,1.3,2.4,1.7c3.4,2.5,4,3.5,4.1,4.5c0,0.2,0.1,0.8-0.2,1c-0.7,0.4-2.6-1.5-3.5-2.4
								c-0.6-0.5-1.3-1-1.9-1.6C416.1,670.3,415.1,669.5,414,668.7z"/>
						</g>
						<path class="st3" d="M320.8,519.4c10.7,3.5,17.7,9,19.2,13.2c1.6,4.3,0.5,7.5,0.5,7.5c-0.3,0.9-0.7,1.6-1,2.1
							c-0.3-2-1.5-8.2-6.8-13.4c-6.2-6.1-13.7-6.6-15.5-6.7C318.3,521.2,319.5,520.3,320.8,519.4z"/>
						<g>
							<path class="st49" d="M338.6,538.8"/>
						</g>
						<g>
							<path d="M303.4,495.9c0.7,2.8,1.7,5.9,3.2,9.2c2.8,6.4,6.3,11.3,9.3,14.7c6.5,3.6,14.4,3.4,20.6-0.4
								c6.7-4.1,11.5-12.5,9.5-17.9C343,494.1,326,491.6,303.4,495.9z"/>
							<g>
								<g>
									<g>
										<path class="st48" d="M321.9,526.9c-2.5-0.2-4.5,0.5-5.6,1c0.9-3.2-0.1-10.5-1.6-13.1c2.8-0.7,6.8-1.4,11.6-1.2
											c4.9,0.2,8.9,1.3,11.7,2.3c0,3.3,0,6.7-0.1,10.2c-0.1,4.2-0.4,8.2-0.7,12C331.4,533.6,330.7,528.7,321.9,526.9z"/>
										<path class="st50" d="M337.6,516c-0.1,2.3-0.3,4.7-0.4,7c0,0.3,0,0.7,0,1c-2.4,0-4.2-0.1-5.5-0.2
											c-0.5-0.1-1.5-0.2-2.9-0.3c-1.5-0.1-2.6-0.2-2.7-0.2c-1.4-0.1-4.3-1.3-10.6-6.3c-0.4-0.8-0.7-1.6-1.1-2.4
											c0.9-0.6,1.7-1.1,2.6-1.7c3.1,0.3,6.2,0.6,9.3,0.9c0.4,0.1,0.9,0.1,1.3,0.2c0.3,0,0.5,0.1,0.8,0.1
											c1.4,0.2,3.7,0.7,3.7,0.7C334.4,515.3,336.3,515.7,337.6,516z"/>
									</g>
									<path class="st48" d="M352.4,491.5c-0.5,4.1-0.9,8.2-1.2,11.8c-0.3,1.8-1,4.5-2.6,7.5c-0.7,1.3-2.1,2.9-4.8,6.1
										c-3.3,4-4.6,5.1-6.3,5.4c-0.6,0.1-0.8,0.1-3.2,0c-4-0.1-4.4,0-6.3-0.2c-2.9-0.3-5-1.3-6.4-2c-2.7-1.3-4.2-2.7-6.9-5.3
										c-2.6-2.5-4-4.2-4.7-5.7c-0.6-1.2-1.9-3.1-1.8-7.9c0.1-3.6,0.2-7.9,0.1-12.2c-1.3-7.6,1.8-17.2,4.9-21.6
										c2.8-3.1,11.9-0.4,18.7,0c6.8,0.5,15.9-0.9,18.2,2.5c0.9,2.5,1.9,5.8,2.4,9.7C353,484.4,352.8,488.4,352.4,491.5z"/>
									<g>
										<path class="st3" d="M329.2,492.4c-0.7,0.5-2.1,1.3-4,1.4c-3.2,0.2-5.5-1.5-6.1-1.9c1.1-1.1,2.4-1.9,3.7-2.3
											c0.5-0.2,1.3-0.4,2.2-0.2C327.4,489.6,328.9,491.8,329.2,492.4z"/>
										<path class="st12" d="M327.8,491.3c-0.1,1.4-1.6,2.5-2.9,2.4c-1.4-0.1-2.8-1.4-2.5-2.9c0.1-0.5,0.3-0.9,0.6-1.2
											c0.4-0.1,0.9-0.2,1.3-0.2c0.5,0,1,0.1,1.5,0.3c0.3,0.1,0.5,0.2,0.7,0.3c0.5,0.3,0.9,0.6,1.3,1
											C327.8,491,327.8,491.2,327.8,491.3z"/>
										<path d="M323.8,491.2c0,0.9,0.7,1.5,1.5,1.4c0.8-0.1,1.4-0.8,1.4-1.6c0-0.8-0.6-1.5-1.4-1.4
											C324.4,489.7,323.8,490.4,323.8,491.2z"/>
										<path class="st3" d="M324.3,490.8c0,0.3,0.3,0.6,0.6,0.6c0.3,0,0.5-0.3,0.5-0.6c0-0.3-0.3-0.6-0.6-0.6
											C324.5,490.2,324.3,490.5,324.3,490.8z"/>
										<path class="st13" d="M330.9,482.4c-3.4-0.1-7.9,0.3-12.6,1.7c-0.9,0.3-2.2,1.3-2.4,2.7c-0.1,0.9,0.5,1.7,0.8,2.1
											c0.5-0.5,1.3-1.2,2.4-1.8c1.4-0.8,2.9-1.4,6.4-1.9c1.6-0.2,3.7-0.5,6-0.6c0-0.2,0-0.5-0.1-0.8
											C331.3,483.3,331,482.7,330.9,482.4z"/>
										<path class="st13" d="M329.2,492.4c-0.4-0.5-1.7-2-3.9-2.5c-3.4-0.7-5.9,1.7-6.2,1.9c2.1-2.7,5.3-3.6,7.6-2.5
											C328.2,490.1,328.9,491.7,329.2,492.4z"/>
									</g>
									<g>
										<path class="st3" d="M339.7,492.7c0.6,0.4,3.8,2.6,7.4,1.4c1.1-0.3,1.9-0.9,2.6-1.4c-0.9-1.1-1.9-1.9-3.1-2.4
											c-1.2-0.5-2.4-0.6-3.7-0.2c-0.4,0.1-0.7,0.3-0.8,0.3C340.8,491,340.1,492.1,339.7,492.7z"/>
										<path class="st12" d="M342.3,491.9c-0.1,1.5,1.4,2.6,2.7,2.6c1.4-0.1,2.8-1.4,2.7-2.8c0-0.5-0.2-0.9-0.5-1.2
											c-1.2-0.5-2.4-0.6-3.7-0.2c-0.3,0.1-0.6,0.2-0.8,0.3C342.6,490.9,342.4,491.4,342.3,491.9z"/>
										<path d="M347.1,492c-0.1,0.9-0.8,1.5-1.6,1.4c-0.8-0.1-1.3-0.8-1.2-1.7c0.1-0.9,0.8-1.5,1.6-1.4
											C346.7,490.4,347.2,491.1,347.1,492z"/>
										<path class="st3" d="M345.8,491.5c0,0.3-0.3,0.6-0.6,0.5c-0.3,0-0.5-0.3-0.5-0.6c0-0.3,0.3-0.6,0.6-0.5
											C345.6,490.9,345.8,491.2,345.8,491.5z"/>
										<path class="st13" d="M339.9,482.8c2.9-0.1,6.4,0.2,9.6,1.4c0.6,0.2,1.4,1,1.4,2.1c0,0.8-0.3,1.4-0.5,1.8
											c-0.3-0.4-0.8-0.9-1.5-1.3c-0.9-0.6-1.9-1-4.5-1.3c-1.3-0.2-2.9-0.3-5-0.3c0-0.2,0-0.5,0.1-0.7
											C339.6,483.7,339.8,483.2,339.9,482.8z"/>
										<path class="st13" d="M339.7,492.7c0.2-0.3,2.4-2.6,5.6-2.3c2.5,0.3,4,1.9,4.3,2.3c-0.2-0.5-1.1-2.3-3-3
											C344.4,488.8,341.4,490,339.7,492.7z"/>
									</g>
									<path d="M352.6,462c-2.6-2.3-9.5-7.7-19.9-8.7c-3.3-0.3-15.6-1.6-24.4,7.3c-10.4,10.5-7.1,26.2-6.9,27
										c0.5,4.3,1.9,10.4,5.4,16.8c1.6,3,3.5,5.6,5.1,7.6c-0.4-0.8-1-2.1-1.4-3.6c-0.4-1.7-0.5-2.9-0.5-4.8c0-1.5-0.1-3.8-0.2-7.2
										c0.5-0.1,1.9,0.2,1.9-0.3c-0.3-4.8,0.3-7.9,1.1-10c0.9-2.5,2.1-3.7,3-6.8c0.8-2.8,0.8-5.3,0.7-7c3.6-1.7,10.4-4.3,19.3-3.9
										c5.5,0.3,10,1.6,13.1,2.8c-0.1,3.8,0.5,6.6,1.2,8.5c1,2.9,2.2,4.8,2.5,8.2c0.1,1.8-0.1,3.3-0.3,4.2
										c0.6-2.4,1.2-5.1,1.6-7.9C355,475.3,353.9,467.6,352.6,462z"/>
									<g>
										<g>
											<path class="st50" d="M339.1,504.1c0,0.1-0.7,0.4-2.1,0.9c-1.3,0.6-2.8,0.5-4-0.1c-1.4-0.6-2-0.9-2-1
												c0.1-0.2,1.2,0,3.4,0.6c0.4,0.1,0.8,0.1,1.3,0C337.9,504.1,339,504,339.1,504.1z"/>
										</g>
									</g>
									<g>
										<path class="st50" d="M337.3,513.3c-2.8,0.1-3.1,0-5.2,0.1c-3.3,0.2-4.6,0.5-4.6,0.3c-0.1-0.3,2.8-1.7,6.3-2
											c4.5-0.5,8.6,0.9,8.6,1.3C342.3,513.1,340.6,513.2,337.3,513.3z"/>
									</g>
									<g>
										<path class="st50" d="M337.2,515.8c0,0.3-1.4,1-2.8,1c-1.5,0-2.9-0.7-2.8-1.1c0.1-0.4,1.8-0.3,2.8-0.3
											C335.4,515.4,337.2,515.4,337.2,515.8z"/>
									</g>
								</g>
								<g>
									<polygon class="st13" points="336.8,507.5 336.6,509.2 345.3,510.3 									"/>
									<polygon class="st13" points="333.6,507.2 333.9,508.9 323.6,511 									"/>
								</g>
								<g>
									<path d="M353.6,469.6c-17.2,0-34.2,0-50.9,0.1c0.2-5.9,0.4-11.8,0.6-17.6c16.2-0.2,32.7-0.5,49.4-0.8
										C353,457.4,353.3,463.5,353.6,469.6z"/>
									<g>
										<path class="st46" d="M275.6,467.7l1.4-5.1c0,0,0.3,0.1,0.8,0.2l0,0c0.6,0.1,1.4,0.3,2.6,0.5l0,0
											c2.3,0.4,5.7,1.1,10.2,1.7l0,0c8.8,1.2,21.7,2.5,37.8,2.6l0,0c15.8,0.1,28.6-0.8,49.6-3.8l0,0l0.8,4.9
											c-21.2,3.1-34.3,4.2-50.4,4.1l0,0C295.3,472.5,275.8,467.7,275.6,467.7L275.6,467.7z"/>
									</g>
								</g>
								<g>
									<path class="st48" d="M310.1,490c-0.1-1.5-1.4-2.6-2.9-2.3c-3.6,0.7-1.6,8.6-0.4,11.6c0.5,1.4,1,5,3.8,4.5L310.1,490z"/>
								</g>
							</g>
						</g>
					</g>
					<path class="st51" d="M247.1,541.3c3.6,0.6,8.9,2,14.6,5.3c10.9,6.4,15.9,15.8,17.7,19.2c3.7,7.2,4.2,12.7,4.3,43.5
						c0,7.8,0.1,18.7,1.3,40.4c0.2,4.8,0.5,9.1,0.8,13c0.4,6.4,5.2,11.6,11.6,12.5c19,2.7,44,6.6,54.6,9.8c0.3,0.1,1.4,0.4,2.8,0.9
						c15.1,5.6,19.6,13.3,21,16.2c2.2,4.5,3.2,10,1.8,10.9c-1.8,1-5.7-6.7-14.6-11.3c-4-2.1-7.7-2.9-19-3.5
						c-13.9-0.8-25.1-0.7-30.2-0.5c-18.9,0.4-23.9,1.2-32-1.6c-5.6-1.9-9.8-4.5-12.5-6.4c-1.6-1.5-3.6-3.5-5.5-6.2
						c-2.4-3.4-3.7-6.7-4.5-9.2l-3.1-18.3C253.1,617.7,250.1,579.5,247.1,541.3z"/>
					<path class="st3" d="M313.3,522.4c7.9,1.2,13.3,4,16.4,5.9c4.3,2.7,6,5.2,6.7,6.2c2,3,2.7,5.9,3,7.7c-2.8-2.4-6.7-5.3-11.6-7.8
						c-5.9-3-11.3-4.6-15.4-5.5C312.7,526.8,313,524.6,313.3,522.4z"/>
					<g>
						<path class="st52" d="M417.1,674.7c-1.8-1.3-3.7-2.4-5.4-3.9C413.7,671.8,415.6,673,417.1,674.7L417.1,674.7z"/>
					</g>
					<g>
						<path class="st52" d="M420.8,671.2c-1.8-1.3-3.7-2.4-5.4-3.9C417.4,668.3,419.3,669.5,420.8,671.2L420.8,671.2z"/>
					</g>
					<g>
						<path class="st52" d="M420.8,674.3c-2.3-1.7-4.3-3.5-6.4-5.3C416.8,670.4,418.9,672.3,420.8,674.3L420.8,674.3z"/>
					</g>
				</g>
			</g>
		</g>
	</g>
</g>
</svg>
